<svg
    class="splash-spinner"
    width="100%"
    height="100%"
    viewBox="0 0 50 50"
    version="1.1"
    xmlns="http://www.w3.org/2000/svg"
    xmlns:xlink="http://www.w3.org/1999/xlink"
    xml:space="preserve"
    style="fill-rule: evenodd; clip-rule: evenodd; stroke-linejoin: round; stroke-miterlimit: 2"
    >
    <path
        d="M45.695,11.675c1.13,0.037 1.837,1.699 0.749,2.583c-0.005,0.004 -0.034,0.026 -0.071,0.051c-0,0 -2.48,1.422 -4.669,2.696c-2.551,1.486 -4.121,4.216 -4.121,7.168l0,1.56c0,2.931 1.559,5.696 4.092,7.171c2.198,1.28 4.462,2.67 4.462,2.67c-0,0 0.669,0.413 0.804,1.01c0.175,0.777 -0.408,1.654 -1.229,1.759c-0.368,0.048 -0.751,-0.054 -1.051,-0.277c0,0 -2.216,-1.292 -4.39,-2.558c-2.562,-1.494 -5.704,-1.55 -8.271,-0.064c-0.481,0.278 -0.996,0.613 -1.476,0.891c-2.538,1.469 -4.101,4.111 -4.104,7.044c0.001,1.808 -0,3.796 -0.009,5.175c-0.02,1.031 -1.325,1.856 -2.258,1.214c-0.392,-0.269 -0.637,-0.734 -0.638,-1.214l-0,-5.175c-0,-2.932 -1.563,-5.576 -4.101,-7.044c-0.472,-0.273 -0.942,-0.618 -1.415,-0.891c-2.551,-1.476 -5.71,-1.471 -8.256,0.015c-2.236,1.304 -4.548,2.652 -4.548,2.652c-0.115,0.066 -0.142,0.075 -0.214,0.102c-0.895,0.339 -2.06,-0.429 -1.945,-1.501c0.05,-0.463 0.331,-0.892 0.734,-1.123c-0,0 2.347,-1.367 4.606,-2.685c2.552,-1.487 4.121,-4.218 4.121,-7.171l0,-1.56c0,-2.937 -1.561,-5.586 -4.099,-7.064c-2.278,-1.327 -4.657,-2.713 -4.657,-2.713c-0.871,-0.52 -0.934,-2.023 0.061,-2.535c0.441,-0.227 0.996,-0.209 1.423,0.046c-0,-0 2.293,1.336 4.517,2.633c2.55,1.486 5.702,1.491 8.257,0.012c0.454,-0.262 0.961,-0.63 1.415,-0.892c2.563,-1.484 4.095,-4.15 4.094,-7.111c-0.004,-1.721 -0.004,-3.412 0.007,-5.132c0.019,-0.999 1.249,-1.802 2.194,-1.222c0.426,0.262 0.7,0.714 0.702,1.222l-0,5.132c-0,2.931 1.578,5.64 4.113,7.111c0.494,0.287 0.982,0.579 1.476,0.867c2.552,1.48 5.701,1.476 8.249,-0.009c2.192,-1.278 4.8,-2.706 4.8,-2.706l0.646,-0.137Zm-20.695,3.52c5.336,-0 9.668,4.332 9.668,9.668c0,5.336 -4.332,9.668 -9.668,9.668c-5.336,0 -9.668,-4.332 -9.668,-9.668c-0,-5.336 4.332,-9.668 9.668,-9.668Z"
        style="fill: url(#_Linear1)"
    />
    <defs>
        <linearGradient
        id="_Linear1"
        x1="0"
        y1="0"
        x2="1"
        y2="0"
        gradientUnits="userSpaceOnUse"
        gradientTransform="matrix(26.433,-26.433,26.433,26.433,11.7116,38.2831)"
        >
        <stop offset="0" style="stop-color: rgb(255, 147, 0); stop-opacity: 1" />
        <stop offset="1" style="stop-color: rgb(216, 70, 98); stop-opacity: 1" />
        </linearGradient>
    </defs>
</svg>