<svg id="df403b32-2151-4b5e-8e46-dd733075237d" data-name="Flow" xmlns="http://www.w3.org/2000/svg" xmlns:xlink="http://www.w3.org/1999/xlink" viewBox="0 0 512 512"><defs><linearGradient id="6455a71f-c1c6-4768-846c-4b3824d2c8c0" x1="186.92" y1="375.65" x2="325.08" y2="136.35" gradientUnits="userSpaceOnUse"><stop offset="0" stop-color="#ff9300"/><stop offset="1" stop-color="#d84662"/></linearGradient><linearGradient id="0e8434b9-fb72-4640-a46e-a4b54fa4dc04" x1="152.48" y1="435.31" x2="359.52" y2="76.69" gradientUnits="userSpaceOnUse"><stop offset="0" stop-color="#00b570"/><stop offset="1" stop-color="#00ace4"/></linearGradient></defs><title>LogoSquare</title><g id="ac6089f0-21f6-4f79-bcb4-90405da21734" data-name="Vector"><path d="M390.71,325.76l-56.06-32.6V218.84l56.06-32.6a6.94,6.94,0,0,0-7-12l-56.11,32.63-64.69-37.35v-65a6.94,6.94,0,1,0-13.88,0v65.71l-64.11,37-56.68-33a6.94,6.94,0,0,0-7,12l57.22,33.27v73l-57.22,33.27a6.94,6.94,0,1,0,7,12l56.68-33,64.11,37v65.71a6.94,6.94,0,1,0,13.88,0v-65l64.69-37.35,56.11,32.63a6.94,6.94,0,1,0,7-12ZM192.38,218.94l64.2-37.06,63.84,36.86c0,.09.09.18.14.27s.14.21.22.32v73.34c-.07.11-.15.22-.22.33s-.09.18-.14.28l-63.84,36.86-64.2-37.06Z" style="fill:url(#6455a71f-c1c6-4768-846c-4b3824d2c8c0)"/><path d="M256,494a6.93,6.93,0,0,1-3.47-.93L52.43,377.54a6.94,6.94,0,0,1-3.47-6V140.47a6.94,6.94,0,0,1,3.47-6L252.53,18.93a6.94,6.94,0,0,1,6.94,0l200.1,115.53a6.94,6.94,0,0,1,3.47,6V371.53a6.94,6.94,0,0,1-3.47,6L259.47,493.07A6.93,6.93,0,0,1,256,494ZM62.84,367.52,256,479,449.16,367.52v-223L256,33,62.84,144.48Z" style="fill:url(#0e8434b9-fb72-4640-a46e-a4b54fa4dc04)"/></g></svg>