<?xml version="1.0" encoding="UTF-8" standalone="no"?>
<!DOCTYPE svg PUBLIC "-//W3C//DTD SVG 1.1//EN" "http://www.w3.org/Graphics/SVG/1.1/DTD/svg11.dtd">
<svg width="100%" height="100%" viewBox="0 0 144 50" version="1.1" xmlns="http://www.w3.org/2000/svg" xmlns:xlink="http://www.w3.org/1999/xlink" xml:space="preserve" xmlns:serif="http://www.serif.com/" style="fill-rule:evenodd;clip-rule:evenodd;stroke-linejoin:round;stroke-miterlimit:2;">
    <g id="Logo1" transform="matrix(0.943,0,0,0.943,0.778682,2.37918)">
        <g transform="matrix(1.12128,0,0,1.12128,54.8918,-5.06229)">
            <path d="M16.22,11l0,1.59l-11.53,0l0,12.58l11.53,0l0,1.83l-11.53,0l0,14.24l-1.69,0l0,-30.24l13.22,0Z" style="fill:url(#_Linear1);fill-rule:nonzero;"/>
            <rect x="21.5" y="11" width="1.69" height="30.24" style="fill:url(#_Linear2);fill-rule:nonzero;"/>
            <path d="M38.08,20.94c0.003,0 0.007,0 0.01,0c5.694,0 10.38,4.686 10.38,10.38l0,0.04c0,5.694 -4.686,10.38 -10.38,10.38c-0.003,0 -0.007,0 -0.01,0c-5.698,-0.005 -10.385,-4.692 -10.39,-10.39c0,-0.003 0,-0.007 0,-0.01c0,-5.701 4.689,-10.395 10.39,-10.4Zm-6.08,4.34c-1.61,1.609 -2.516,3.794 -2.516,6.07c0,2.276 0.906,4.461 2.516,6.07c3.337,3.323 8.813,3.323 12.15,0c1.61,-1.609 2.516,-3.794 2.516,-6.07c0,-2.276 -0.906,-4.461 -2.516,-6.07c-1.61,-1.611 -3.797,-2.517 -6.075,-2.517c-2.278,0 -4.465,0.906 -6.075,2.517Z" style="fill:url(#_Linear3);fill-rule:nonzero;"/>
            <path d="M62,36.31l0,-13.68l1.69,0l0,13.27c-0.03,1.045 0.376,2.056 1.12,2.79c0.714,0.715 1.684,1.117 2.695,1.117c1.011,0 1.981,-0.402 2.695,-1.117c0.678,-0.667 1.075,-1.569 1.11,-2.52l0,-13.54l1.69,0l0,13.51c-0.028,1.4 -0.607,2.733 -1.61,3.71c-1.026,1.042 -2.428,1.629 -3.89,1.629c-1.462,0 -2.864,-0.587 -3.89,-1.629c-0.282,-0.279 -0.536,-0.583 -0.76,-0.91c-0.224,0.329 -0.482,0.634 -0.77,0.91c-1.026,1.042 -2.428,1.629 -3.89,1.629c-1.462,0 -2.864,-0.587 -3.89,-1.629c-1.003,-0.977 -1.582,-2.31 -1.61,-3.71l0,-13.51l1.69,0l0,13.53c0.115,2.019 1.798,3.622 3.82,3.64c1.971,0.002 3.634,-1.526 3.8,-3.49Z" style="fill:url(#_Linear4);fill-rule:nonzero;"/>
        </g>
        <g transform="matrix(1.57661,0,0,1.57661,-108.68,-10.6511)">
            <path d="M94,25.45l-2.51,-1.45l0,-3.4l2.51,-1.51c0.136,-0.077 0.199,-0.241 0.15,-0.39c-0.045,-0.127 -0.166,-0.212 -0.301,-0.212c-0.056,0 -0.111,0.014 -0.159,0.042l-2.52,1.47l-3,-1.71l0,-3c0.003,-0.121 -0.063,-0.233 -0.17,-0.29c-0.032,-0.011 -0.066,-0.016 -0.1,-0.016c-0.174,0 -0.318,0.142 -0.32,0.316l0,3l-2.98,1.7l-2.6,-1.53c-0.114,-0.08 -0.266,-0.08 -0.38,0c-0.07,0.061 -0.111,0.149 -0.111,0.242c0,0.115 0.062,0.221 0.161,0.278l2.66,1.55l0,3.46l-2.68,1.5c-0.113,0.052 -0.186,0.166 -0.186,0.29c0,0.176 0.145,0.32 0.32,0.32c0.006,0 0.011,0 0.016,0c0.052,0.014 0.108,0.014 0.16,0l2.63,-1.53l3,1.72l0,3c-0.003,0.14 0.087,0.266 0.22,0.31c0.032,0.011 0.066,0.016 0.1,0.016c0.174,0 0.318,-0.142 0.32,-0.316l0,-3l3,-1.71l2.5,1.4c0.048,0.028 0.103,0.042 0.159,0.042c0.135,0 0.256,-0.085 0.301,-0.212c0.037,-0.155 -0.043,-0.317 -0.19,-0.38Zm-9.1,-4.89l3,-1.71l2.94,1.7l0,3.45l-2.94,1.7l-3,-1.71l0,-3.43Z" style="fill:url(#_Linear5);fill-rule:nonzero;"/>
            <path d="M87.79,33.22c-0.052,0.014 -0.108,0.014 -0.16,0l-9.2,-5.31c-0.1,-0.058 -0.161,-0.165 -0.16,-0.28l0,-10.63c-0.001,-0.115 0.06,-0.222 0.16,-0.28l9.2,-5.31c0.099,-0.057 0.221,-0.057 0.32,0l9.2,5.31c0.1,0.058 0.161,0.165 0.16,0.28l0,10.59c0.001,0.115 -0.06,0.222 -0.16,0.28l-9.2,5.31c-0.049,0.027 -0.104,0.041 -0.16,0.04Zm-8.88,-5.81l8.88,5.13l8.88,-5.13l0,-10.26l-8.88,-5.15l-8.88,5.13l0,10.28Z" style="fill:url(#_Linear6);fill-rule:nonzero;"/>
        </g>
    </g>
    <defs>
        <linearGradient id="_Linear1" x1="0" y1="0" x2="1" y2="0" gradientUnits="userSpaceOnUse" gradientTransform="matrix(69.99,0,0,69.99,3,26.37)"><stop offset="0" style="stop-color:rgb(255,147,0);stop-opacity:1"/><stop offset="1" style="stop-color:rgb(216,70,98);stop-opacity:1"/></linearGradient>
        <linearGradient id="_Linear2" x1="0" y1="0" x2="1" y2="0" gradientUnits="userSpaceOnUse" gradientTransform="matrix(69.99,0,0,69.99,3,26.37)"><stop offset="0" style="stop-color:rgb(255,147,0);stop-opacity:1"/><stop offset="1" style="stop-color:rgb(216,70,98);stop-opacity:1"/></linearGradient>
        <linearGradient id="_Linear3" x1="0" y1="0" x2="1" y2="0" gradientUnits="userSpaceOnUse" gradientTransform="matrix(69.99,0,0,69.99,3,26.37)"><stop offset="0" style="stop-color:rgb(255,147,0);stop-opacity:1"/><stop offset="1" style="stop-color:rgb(216,70,98);stop-opacity:1"/></linearGradient>
        <linearGradient id="_Linear4" x1="0" y1="0" x2="1" y2="0" gradientUnits="userSpaceOnUse" gradientTransform="matrix(69.99,0,0,69.99,3,26.37)"><stop offset="0" style="stop-color:rgb(255,147,0);stop-opacity:1"/><stop offset="1" style="stop-color:rgb(216,70,98);stop-opacity:1"/></linearGradient>
        <linearGradient id="_Linear5" x1="0" y1="0" x2="1" y2="0" gradientUnits="userSpaceOnUse" gradientTransform="matrix(6.37,-11.04,11.04,6.37,84.64,27.79)"><stop offset="0" style="stop-color:rgb(255,147,0);stop-opacity:1"/><stop offset="1" style="stop-color:rgb(216,70,98);stop-opacity:1"/></linearGradient>
        <linearGradient id="_Linear6" x1="0" y1="0" x2="1" y2="0" gradientUnits="userSpaceOnUse" gradientTransform="matrix(9.52,-16.48,16.48,9.52,83.03,30.52)"><stop offset="0" style="stop-color:rgb(0,181,112);stop-opacity:1"/><stop offset="1" style="stop-color:rgb(0,172,228);stop-opacity:1"/></linearGradient>
    </defs>
</svg>
