<?xml version="1.0" encoding="UTF-8" standalone="no"?>
<!DOCTYPE svg PUBLIC "-//W3C//DTD SVG 1.1//EN" "http://www.w3.org/Graphics/SVG/1.1/DTD/svg11.dtd">
<svg width="100%" height="100%" viewBox="0 0 1024 1024" version="1.1" xmlns="http://www.w3.org/2000/svg" xmlns:xlink="http://www.w3.org/1999/xlink" xml:space="preserve" xmlns:serif="http://www.serif.com/" style="fill-rule:evenodd;clip-rule:evenodd;stroke-linejoin:round;stroke-miterlimit:2;">
    <g id="individual" transform="matrix(11.3244,0,0,11.3237,-112.002,901.806)">
        <path d="M55.127,-34.375c11.621,0 21.094,-10.352 21.094,-22.949c-0,-12.5 -9.424,-22.315 -21.094,-22.315c-11.572,0 -21.094,10.01 -21.094,22.412c0.049,12.549 9.473,22.852 21.094,22.852Zm0,-7.373c-7.129,0 -13.233,-6.836 -13.233,-15.479c0,-8.496 6.006,-15.039 13.233,-15.039c7.275,0 13.232,6.446 13.232,14.942c0,8.642 -6.054,15.576 -13.232,15.576Zm-30.713,52.539l61.377,-0c8.105,-0 11.963,-2.441 11.963,-7.812c-0,-12.793 -16.162,-31.299 -42.627,-31.299c-26.514,-0 -42.676,18.506 -42.676,31.299c0,5.371 3.858,7.812 11.963,7.812Zm-2.295,-7.373c-1.269,-0 -1.807,-0.342 -1.807,-1.367c0,-8.008 12.403,-22.998 34.815,-22.998c22.363,-0 34.766,14.99 34.766,22.998c-0,1.025 -0.489,1.367 -1.758,1.367l-66.016,-0Z" style="fill-rule:nonzero;"/>
    </g>
</svg>
