<?xml version="1.0" encoding="UTF-8" standalone="no"?>
<!DOCTYPE svg PUBLIC "-//W3C//DTD SVG 1.1//EN" "http://www.w3.org/Graphics/SVG/1.1/DTD/svg11.dtd">
<svg width="100%" height="100%" viewBox="0 0 1024 1024" version="1.1" xmlns="http://www.w3.org/2000/svg" xmlns:xlink="http://www.w3.org/1999/xlink" xml:space="preserve" xmlns:serif="http://www.serif.com/" style="fill-rule:evenodd;clip-rule:evenodd;stroke-linejoin:round;stroke-miterlimit:2;">
    <g id="youtube" transform="matrix(32.5286,0,0,32.5153,-15468.2,-15674.7)">
        <g transform="matrix(1,0,0,1,475.265,482.177)">
            <path d="M31.094,8.3c-0.415,-1.659 -1.69,-2.973 -3.335,-3.439l-0.038,-0.01c-2.344,-0.572 -11.721,-0.59 -11.721,-0.59c-0,-0 -9.395,0.021 -11.744,0.65c-1.66,0.469 -2.935,1.783 -3.35,3.442c-0.006,0.023 -0.011,0.046 -0.015,0.07c-0.431,2.392 -0.642,4.818 -0.63,7.249c-0.016,2.437 0.195,4.882 0.63,7.292c0.006,0.035 0.014,0.069 0.024,0.103c0.457,1.606 1.725,2.86 3.335,3.301c2.355,0.63 11.75,0.651 11.75,0.651c0,0 9.395,-0.021 11.744,-0.65c1.66,-0.469 2.935,-1.783 3.35,-3.442c0.006,-0.023 0.011,-0.046 0.015,-0.07c0.428,-2.374 0.639,-4.782 0.63,-7.194c0.016,-2.438 -0.195,-4.883 -0.63,-7.293l-0.015,-0.07Zm-3.902,-1.369c-2.274,-0.543 -11.192,-0.525 -11.192,-0.525c0,-0 -8.952,-0.022 -11.175,0.573c-0.896,0.253 -1.593,0.965 -1.83,1.864c-0.403,2.25 -0.6,4.532 -0.589,6.83c-0.015,2.298 0.182,4.592 0.586,6.853c0.263,0.863 0.952,1.534 1.818,1.771c2.238,0.599 11.19,0.577 11.19,0.577c-0,0 8.952,0.022 11.175,-0.573c0.896,-0.253 1.593,-0.965 1.83,-1.864c0.4,-2.233 0.597,-4.498 0.589,-6.777c0.015,-2.303 -0.183,-4.603 -0.589,-6.87c-0.235,-0.894 -0.924,-1.602 -1.813,-1.859Z"/>
        </g>
        <g transform="matrix(0.999542,0,0,0.999257,475.271,482.162)">
            <path d="M11.851,20.027c-0,0.409 0.217,0.787 0.571,0.993c0.354,0.206 0.79,0.208 1.146,0.006l7.667,-4.36c0.359,-0.205 0.581,-0.586 0.581,-0.999c-0,-0.414 -0.222,-0.795 -0.581,-0.999l-7.667,-4.36c-0.356,-0.203 -0.792,-0.2 -1.146,0.005c-0.354,0.206 -0.571,0.584 -0.571,0.994l-0,8.72Zm2.298,-1.976l4.193,-2.384l-4.193,-2.385l0,4.769Z"/>
        </g>
    </g>
</svg>
