<?xml version="1.0" encoding="UTF-8" standalone="no"?>
<!DOCTYPE svg PUBLIC "-//W3C//DTD SVG 1.1//EN" "http://www.w3.org/Graphics/SVG/1.1/DTD/svg11.dtd">
<svg width="100%" height="100%" viewBox="0 0 1024 1024" version="1.1" xmlns="http://www.w3.org/2000/svg" xmlns:xlink="http://www.w3.org/1999/xlink" xml:space="preserve" xmlns:serif="http://www.serif.com/" style="fill-rule:evenodd;clip-rule:evenodd;stroke-linejoin:round;stroke-miterlimit:2;">
    <g id="dashboard" transform="matrix(9.68994,0,0,9.68549,-88.6514,854.516)">
        <path d="M19.434,-4.248l33.935,19.238c5.762,3.321 11.377,3.369 17.237,0l33.935,-19.238c4.541,-2.588 6.982,-5.225 6.982,-12.305l0,-37.988c0,-6.885 -2.49,-9.375 -6.64,-11.768l-34.033,-19.335c-6.055,-3.467 -11.817,-3.418 -17.725,-0l-33.984,19.335c-4.2,2.393 -6.69,4.883 -6.69,11.768l0,37.988c0,7.08 2.49,9.717 6.983,12.305Zm4.638,-6.836c-2.783,-1.563 -3.711,-3.076 -3.711,-5.713l0,-37.402c0,-2.442 0.977,-3.858 3.418,-5.274l32.813,-18.799c3.662,-2.099 7.031,-2.197 10.84,0l32.763,18.799c2.491,1.416 3.418,2.832 3.418,5.274l0,37.402c0,2.637 -0.927,4.15 -3.662,5.713l-32.519,18.506c-3.907,2.197 -7.08,2.148 -10.84,-0l-32.52,-18.506Z" style="fill-rule:nonzero;"/>
    </g>
</svg>
