<?xml version="1.0" encoding="UTF-8" standalone="no"?>
<!DOCTYPE svg PUBLIC "-//W3C//DTD SVG 1.1//EN" "http://www.w3.org/Graphics/SVG/1.1/DTD/svg11.dtd">
<svg width="100%" height="100%" viewBox="0 0 1024 1024" version="1.1" xmlns="http://www.w3.org/2000/svg" xmlns:xlink="http://www.w3.org/1999/xlink" xml:space="preserve" xmlns:serif="http://www.serif.com/" style="fill-rule:evenodd;clip-rule:evenodd;stroke-linejoin:round;stroke-miterlimit:2;">
    <g id="email" transform="matrix(9.49779,0,0,9.50899,-118.251,846.533)">
        <path d="M27.783,6.885l78.613,-0c8.79,-0 13.868,-5.078 13.868,-15.137l0,-53.906c0,-10.01 -5.127,-15.088 -15.332,-15.088l-78.614,-0c-8.789,-0 -13.867,5.029 -13.867,15.088l0,53.906c0,10.107 5.127,15.137 15.332,15.137Zm32.764,-39.6l-36.865,-36.377c1.074,-0.439 2.343,-0.683 3.808,-0.683l77.735,-0c1.513,-0 2.832,0.244 3.906,0.781l-36.768,36.279c-2.099,2.1 -4.004,3.028 -5.908,3.028c-1.953,-0 -3.857,-0.928 -5.908,-3.028Zm-40.625,24.463l-0,-53.906l-0,-0.488l28.076,27.539l-28.027,27.685c-0.049,-0.244 -0.049,-0.537 -0.049,-0.83Zm92.871,-54.248l0,54.932l-27.881,-27.539l27.881,-27.393Zm-85.303,61.914c-1.367,0 -2.588,-0.195 -3.564,-0.635l29.199,-28.857l3.174,3.125c3.418,3.369 6.689,4.785 10.156,4.785c3.418,0 6.738,-1.416 10.156,-4.785l3.174,-3.125l29.151,28.808c-1.075,0.489 -2.295,0.684 -3.711,0.684l-77.735,0Z" style="fill-rule:nonzero;"/>
    </g>
</svg>
