<?xml version="1.0" encoding="UTF-8" standalone="no"?>
<!DOCTYPE svg PUBLIC "-//W3C//DTD SVG 1.1//EN" "http://www.w3.org/Graphics/SVG/1.1/DTD/svg11.dtd">
<svg width="100%" height="100%" viewBox="0 0 1024 1024" version="1.1" xmlns="http://www.w3.org/2000/svg" xmlns:xlink="http://www.w3.org/1999/xlink" xml:space="preserve" xmlns:serif="http://www.serif.com/" style="fill-rule:evenodd;clip-rule:evenodd;stroke-linejoin:round;stroke-miterlimit:2;">
    <g id="fb-groups" transform="matrix(39.3846,0,0,39.3846,-39.3846,-39.3846)">
        <path d="M25.5,14c0,-6.351 -5.149,-11.5 -11.5,-11.5c-6.351,0 -11.5,5.149 -11.5,11.5c0,6.351 5.149,11.5 11.5,11.5c6.351,0 11.5,-5.149 11.5,-11.5Zm1.5,0c0,7.18 -5.82,13 -13,13c-7.18,0 -13,-5.82 -13,-13c0,-7.18 5.82,-13 13,-13c7.18,0 13,5.82 13,13Zm-19.521,0l0.152,0c0.302,0 0.471,0.338 0.303,0.591c-0.6,0.9 -0.951,1.977 -0.951,3.133l0,0.497c0,0.121 0.007,0.24 0.021,0.357c0.026,0.224 -0.142,0.422 -0.367,0.422l-0.514,0c-0.895,0 -1.623,-0.75 -1.623,-1.673c0,-1.835 1.227,-3.327 2.979,-3.327Zm13.042,0c1.753,0 2.979,1.492 2.979,3.327c0,0.923 -0.728,1.673 -1.622,1.673l-0.514,0c-0.225,0 -0.394,-0.198 -0.367,-0.422c0.013,-0.117 0.02,-0.236 0.02,-0.357l0,-0.497c0,-1.156 -0.35,-2.233 -0.95,-3.133c-0.168,-0.253 0,-0.591 0.302,-0.591l0.152,-0Zm-12.271,-1c-1.103,-0 -2,-1.009 -2,-2.25c0,-1.366 0.785,-2.25 2,-2.25c1.215,-0 2,0.884 2,2.25c0,1.241 -0.897,2.25 -2,2.25Zm11.5,-0c-1.103,-0 -2,-1.009 -2,-2.25c0,-1.366 0.785,-2.25 2,-2.25c1.215,-0 2,0.884 2,2.25c0,1.241 -0.897,2.25 -2,2.25Zm-4.578,0.5c2.386,-0 4.328,1.895 4.328,4.224l0,0.497c0,0.981 -0.817,1.779 -1.823,1.779l-7.354,-0c-1.006,-0 -1.823,-0.798 -1.823,-1.779l0,-0.497c0,-2.329 1.941,-4.224 4.328,-4.224l2.344,-0Zm1.578,-4.5c0,1.655 -1.233,3 -2.75,3c-1.516,-0 -2.75,-1.345 -2.75,-3c0,-1.85 1.054,-3 2.75,-3c1.697,-0 2.75,1.15 2.75,3Z" style="fill-rule:nonzero;"/>
    </g>
</svg>
