<?xml version="1.0" encoding="UTF-8" standalone="no"?>
<!DOCTYPE svg PUBLIC "-//W3C//DTD SVG 1.1//EN" "http://www.w3.org/Graphics/SVG/1.1/DTD/svg11.dtd">
<svg width="100%" height="100%" viewBox="0 0 1024 1024" version="1.1" xmlns="http://www.w3.org/2000/svg" xmlns:xlink="http://www.w3.org/1999/xlink" xml:space="preserve" xmlns:serif="http://www.serif.com/" style="fill-rule:evenodd;clip-rule:evenodd;stroke-linejoin:round;stroke-miterlimit:2;">
    <g id="instagram" transform="matrix(1.31429,0,0,1.31429,-173.314,-102.737)">
        <g transform="matrix(27.058,0,0,27.058,88.5039,34.8041)">
            <path d="M30.397,2.856c0,-0.692 -0.561,-1.253 -1.253,-1.253l-26.288,-0c-0.692,-0 -1.253,0.561 -1.253,1.253l-0,26.288c-0,0.692 0.561,1.253 1.253,1.253l26.288,0c0.692,0 1.253,-0.561 1.253,-1.253c0,0 0,-26.288 0,-26.288Zm-26.666,0.875l-0,24.538l24.538,0l0,-24.538l-24.538,-0Z"/>
        </g>
        <g transform="matrix(26.7603,0,0,26.7603,91.7234,41.111)">
            <path d="M22.386,15.004c-0.412,-2.78 -2.61,-4.978 -5.39,-5.39c-0.311,-0.046 -0.624,-0.069 -0.938,-0.069c-3.51,-0 -6.398,2.888 -6.398,6.397c0,3.51 2.888,6.398 6.398,6.398c3.509,-0 6.397,-2.888 6.397,-6.398c0,-0.314 -0.023,-0.627 -0.069,-0.938Zm-2.105,0.312c0.031,0.207 0.046,0.417 0.046,0.626c0,2.342 -1.927,4.27 -4.269,4.27c-2.342,-0 -4.27,-1.928 -4.27,-4.27c0,-2.342 1.928,-4.269 4.27,-4.269c0.209,-0 0.419,0.015 0.626,0.046c1.855,0.275 3.322,1.742 3.597,3.597Z"/>
        </g>
        <g transform="matrix(4.46005,0,0,4.46005,648.019,198.423)">
            <path d="M22.386,15.004c-0.412,-2.78 -2.61,-4.978 -5.39,-5.39c-0.311,-0.046 -0.624,-0.069 -0.938,-0.069c-3.51,-0 -6.398,2.888 -6.398,6.397c0,3.51 2.888,6.398 6.398,6.398c3.509,-0 6.397,-2.888 6.397,-6.398c0,-0.314 -0.023,-0.627 -0.069,-0.938Z"/>
        </g>
    </g>
</svg>
