<?xml version="1.0" encoding="UTF-8" standalone="no"?>
<!DOCTYPE svg PUBLIC "-//W3C//DTD SVG 1.1//EN" "http://www.w3.org/Graphics/SVG/1.1/DTD/svg11.dtd">
<svg width="100%" height="100%" viewBox="0 0 1024 1024" version="1.1" xmlns="http://www.w3.org/2000/svg" xmlns:xlink="http://www.w3.org/1999/xlink" xml:space="preserve" xmlns:serif="http://www.serif.com/" style="fill-rule:evenodd;clip-rule:evenodd;stroke-linejoin:round;stroke-miterlimit:2;">
    <g id="lending" transform="matrix(46.1438,0,0,46.4243,-1031.8,-6144.81)">
        <g transform="matrix(0.0231053,0,0,0.023025,21.6264,131.374)">
            <path d="M300.329,928.117c-10.322,12.536 -25.899,20.096 -42.532,19.965c-0,-0 -169.895,-0 -170.069,-0.001c-30.551,-0.343 -55.611,-25.434 -55.952,-56.08c-0.001,-0.058 -0.001,-0.115 -0.001,-0.173c-0,-0 -0,-251.932 0.001,-252.102c0.333,-30.41 25.006,-55.398 55.316,-56.08c0.116,-0.002 0.232,-0.003 0.348,-0.003c0,-0 169.433,-0 169.779,0.003c28.839,0.644 52.618,23.293 55.11,51.756c29.46,-1.597 58.99,1.776 87.353,9.982c0.136,0.039 0.271,0.08 0.406,0.123l78.954,25.2l103.77,0c40.895,-0.001 75.03,31.755 78.85,71.897l180.657,-34.054c59.575,-12.507 118.58,16.389 146.673,70.552l0.609,1.322c1.733,4.281 2.624,8.859 2.624,13.48c0,14.934 -9.307,28.344 -23.206,33.574l-391.938,157.912c-23.548,9.521 -48.688,14.462 -74.102,14.56c-26.349,0.06 -52.418,-5.445 -76.468,-16.139l-126.182,-55.694Zm292.71,-177.963c-0.633,-3.557 -3.742,-6.304 -7.456,-6.304l-111.263,0c-3.7,0 -4.426,0.444 -19.036,-4.442c0,-0 -75.252,-24.082 -75.068,-24.024c-20.792,-6.37 -42.551,-8.972 -64.254,-7.684c-0.305,0.019 -0.612,0.028 -0.918,0.028l-0.659,-0l0,148.872l142.913,61.253c30.639,13.017 65.27,13.017 95.909,-0c0.107,-0.046 0.215,-0.09 0.323,-0.133l341.727,-136.172c-11.915,-5.035 -25.256,-6.463 -38.287,-3.752c-0.069,0.014 -0.138,0.028 -0.207,0.041c0,0 -150.504,29.176 -150.525,29.18c-115.9,22.303 -115.947,22.045 -119.732,22.045l-169.895,0c-19.633,0 -35.813,-16.182 -35.813,-35.876c-0,-19.695 16.18,-35.877 35.813,-35.877l165.442,-0c1.686,-0.749 4.107,-1.933 6.532,-3.473c1.397,-0.887 3.507,-2.801 4.454,-3.682Zm-490.099,-94.758l0,220.932l139.357,-0l-0,-220.932l-139.357,0Z" style="fill-rule:nonzero;"/>
        </g>
        <g transform="matrix(0.0853075,0,0,0.0853387,0.983929,126.245)">
            <path d="M374.537,138.768c-2.558,-0.015 -5.066,-0.972 -6.795,-2.79c-5.552,-5.837 -0.338,-15.619 6.665,-15.756c33.146,-0.215 66.294,-0.001 99.44,-0.001c1.831,-0.154 2.453,-2.184 1.415,-3.414l-19.859,-19.859c-3.13,-3.172 -3.492,-8.629 -0.891,-12.239c1.69,-2.344 4.532,-3.628 7.409,-3.677c2.45,-0.014 4.908,0.86 6.672,2.554c13.208,13.026 26.326,26.145 39.352,39.352c3.373,3.514 3.345,9.629 0,13.113c-13.025,13.207 -26.13,26.336 -39.349,39.35c-1.765,1.684 -4.227,2.587 -6.661,2.556c-8.593,-0.107 -11.456,-10.788 -6.617,-15.829c6.603,-6.693 13.295,-13.297 19.944,-19.945c1.185,-1.404 0.19,-3.279 -1.415,-3.415l-99.31,0Z" style="fill-rule:nonzero;"/>
        </g>
    </g>
</svg>
