<?xml version="1.0" encoding="UTF-8" standalone="no"?>
<!DOCTYPE svg PUBLIC "-//W3C//DTD SVG 1.1//EN" "http://www.w3.org/Graphics/SVG/1.1/DTD/svg11.dtd">
<svg width="100%" height="100%" viewBox="0 0 1024 1024" version="1.1" xmlns="http://www.w3.org/2000/svg" xmlns:xlink="http://www.w3.org/1999/xlink" xml:space="preserve" xmlns:serif="http://www.serif.com/" style="fill-rule:evenodd;clip-rule:evenodd;stroke-linejoin:round;stroke-miterlimit:2;">
    <g id="linkedin" transform="matrix(35.5639,0,0,35.5427,-16959.3,-17181.8)">
        <g transform="matrix(0.998989,0,0,1.00049,475.296,482.469)">
            <path d="M21.333,9.603c-4.972,0 -9.063,4.092 -9.063,9.064l0,9.333c0,0.587 0.476,1.063 1.063,1.063l5.334,0c0.587,0 1.063,-0.476 1.063,-1.063l-0,-9.333c-0,-0.88 0.724,-1.604 1.603,-1.604c0.88,0 1.604,0.724 1.604,1.604l-0,9.333c-0,0.587 0.476,1.063 1.063,1.063l5.333,0c0.588,0 1.064,-0.476 1.064,-1.063l-0,-9.333c-0,-4.972 -4.092,-9.064 -9.064,-9.064Zm6.937,17.334l0,-8.27c0,-3.806 -3.131,-6.937 -6.937,-6.937c-3.805,-0 -6.936,3.131 -6.936,6.937l-0,8.27l3.206,-0l0,-8.27c0,-2.047 1.684,-3.73 3.73,-3.73c2.047,-0 3.73,1.683 3.73,3.73l0,8.27l3.207,-0Z"/>
        </g>
        <g transform="matrix(0.998856,0,0,0.999584,475.267,482.495)">
            <path d="M9.063,12c0,-0.587 -0.476,-1.063 -1.063,-1.063l-5.333,-0c-0.588,-0 -1.064,0.476 -1.064,1.063l0,16c0,0.587 0.476,1.063 1.064,1.063l5.333,0c0.587,0 1.063,-0.476 1.063,-1.063l0,-16Zm-5.333,1.063l-0,13.874l3.207,-0l-0,-13.874l-3.207,0Z"/>
        </g>
        <g transform="matrix(0.998856,0,0,0.999451,475.267,482.484)">
            <path d="M5.333,1.603c-2.058,0 -3.73,1.672 -3.73,3.73c0,2.059 1.672,3.73 3.73,3.73c2.059,0 3.73,-1.671 3.73,-3.73c0,-2.058 -1.671,-3.73 -3.73,-3.73Zm0,2.127c0.885,-0 1.604,0.718 1.604,1.603c-0,0.885 -0.719,1.604 -1.604,1.604c-0.885,-0 -1.603,-0.719 -1.603,-1.604c-0,-0.885 0.718,-1.603 1.603,-1.603Z"/>
        </g>
    </g>
</svg>
