<?xml version="1.0" encoding="UTF-8" standalone="no"?>
<!DOCTYPE svg PUBLIC "-//W3C//DTD SVG 1.1//EN" "http://www.w3.org/Graphics/SVG/1.1/DTD/svg11.dtd">
<svg width="100%" height="100%" viewBox="0 0 1024 1024" version="1.1" xmlns="http://www.w3.org/2000/svg" xmlns:xlink="http://www.w3.org/1999/xlink" xml:space="preserve" style="fill-rule:evenodd;clip-rule:evenodd;stroke-linejoin:round;stroke-miterlimit:2;">
    <g id="originator" transform="matrix(1,0,0,1,-2.41203e-05,0)">
        <path d="M0.521,724.039l-0,-423.634c-2.747,-15.904 5.599,-32.847 19.751,-40.381l0.394,-0.203c158.16,-79.021 315.678,-159.336 474.643,-237.139c4.879,-2.324 10.245,-3.576 15.651,-3.678l0.162,-0.002c5.771,-0.055 11.513,1.204 16.903,3.768c159.191,77.563 317.619,156.708 475.329,237.235l0.491,0.257c15.246,8.173 21.049,22.221 20.045,35.718c0.073,0.916 0.11,1.844 0.11,2.78l-0,427.412c-0,0.399 -0.007,0.796 -0.02,1.195c0.491,15.088 -7.906,30.028 -21.573,36.456c-0.063,0.03 -0.127,0.059 -0.191,0.089c-0.47,0.213 -0.627,0.296 -1.464,0.629l-472.083,236.527c-8.096,3.94 -17.534,4.992 -26.279,2.826c-2.683,-0.665 -4.084,-1.047 -7.74,-2.826c-0.053,-0.026 -0.105,-0.051 -0.157,-0.077c-0,-0 -474.752,-237.105 -474.752,-237.105c-0.393,-0.196 -0.779,-0.408 -1.156,-0.634c-12.874,-7.729 -20.324,-23.353 -18.237,-38.119c0.052,-0.366 0.109,-0.729 0.173,-1.094Zm938.457,-13.729c6.757,-3.393 11.022,-10.307 11.022,-17.868c0,-48.913 0,-230.209 0,-304.931c-0,-6.956 -3.606,-13.414 -9.527,-17.063c-5.921,-3.65 -13.31,-3.969 -19.524,-0.843c-130.398,65.631 -260.542,131.874 -392.066,195.704c-8.053,3.763 -17.282,4.697 -25.857,2.579c-2.685,-0.664 -4.088,-1.042 -7.943,-2.915c-130.345,-65.123 -261.49,-128.674 -391.436,-194.534c-6.216,-3.156 -13.624,-2.857 -19.565,0.79c-5.941,3.646 -9.561,10.117 -9.561,17.087c-0,74.913 -0,256.297 -0,305.234c-0,7.565 4.266,14.484 11.025,17.882c66.535,33.444 411.657,206.925 411.657,206.925c8.626,4.336 18.795,4.339 27.423,0.006c-0,0 347.574,-174.523 414.352,-208.053Zm-786.695,-430.724c-5.568,2.782 -9.087,8.47 -9.09,14.694c-0.003,6.224 3.511,11.916 9.076,14.704c76.987,38.557 282.763,141.617 342.402,171.486c10.33,5.174 22.494,5.18 32.829,0.016c59.813,-29.884 266.565,-133.182 343.621,-171.681c5.557,-2.776 9.074,-8.45 9.089,-14.662c0.015,-6.213 -3.474,-11.903 -9.018,-14.707c-76.515,-38.693 -281.145,-142.175 -340.674,-172.279c-10.355,-5.237 -22.577,-5.266 -32.957,-0.08c-60.101,30.028 -267.85,133.824 -345.278,172.509Z"/>
    </g>
</svg>
