<?xml version="1.0" encoding="UTF-8" standalone="no"?>
<!DOCTYPE svg PUBLIC "-//W3C//DTD SVG 1.1//EN" "http://www.w3.org/Graphics/SVG/1.1/DTD/svg11.dtd">
<svg width="100%" height="100%" viewBox="0 0 1024 1024" version="1.1" xmlns="http://www.w3.org/2000/svg" xmlns:xlink="http://www.w3.org/1999/xlink" xml:space="preserve" xmlns:serif="http://www.serif.com/" style="fill-rule:evenodd;clip-rule:evenodd;stroke-linejoin:round;stroke-miterlimit:2;">
    <g id="properties" transform="matrix(0.979174,0,0,0.979174,7.71832,61.3837)">
        <g transform="matrix(1.00025,0,0,1.00121,-0.359231,19.9314)">
            <path d="M820.935,854.244l-0,-419.474c-0,-0.586 0.046,-1.17 0.139,-1.748c1.011,-6.282 0.965,-8.21 4.907,-13.523c6.607,-8.907 19.086,-12.491 29.229,-8.857c2.007,0.719 3.802,1.935 5.67,2.965c0.513,0.282 1.002,0.605 1.463,0.966l25.503,19.924c0.437,0.341 0.848,0.716 1.229,1.119c4.148,4.397 5.593,5.466 7.458,11.442c0.603,1.93 0.734,3.979 1.038,5.978l0.126,1.658c0,146.119 0.954,292.242 -0.004,438.503c-0.389,19.752 -17.449,37.411 -37.952,37.807c-81.041,0.53 -162.087,0.53 -243.268,-0.002c-19.697,-0.381 -37.411,-17.126 -37.813,-37.952c-0.336,-51.299 0.154,-102.6 -0.003,-153.831c-0.309,-33.071 -28.982,-63.241 -63.63,-63.241c-33.01,-0 -63.306,28.666 -63.628,63.174c-0.16,51.299 0.332,102.6 -0.006,154.038c-0.38,19.685 -17.449,37.418 -37.952,37.814c-81.041,0.53 -162.086,0.53 -243.268,-0.002c-19.943,-0.385 -37.679,-17.545 -37.815,-38.257c-0,-0.024 -0,-0.048 -0,-0.072l-0,-437.979c-0,-0.555 0.042,-1.109 0.125,-1.658c0.911,-5.975 0.864,-7.773 4.425,-12.921c1.15,-1.663 2.684,-3.027 4.072,-4.499c0.381,-0.403 0.791,-0.778 1.229,-1.119l25.503,-19.924c0.461,-0.361 0.95,-0.684 1.463,-0.966c5.573,-3.071 7.063,-4.294 13.677,-4.459c4.826,-0.12 9.49,1.63 13.882,3.772c1.054,0.514 2.019,1.193 2.858,2.012c1.527,1.489 3.211,2.854 4.482,4.567c3.942,5.313 3.895,7.241 4.906,13.523c0.093,0.578 0.14,1.162 0.14,1.748l0,419.474l165.515,-0l-0,-114.694c0.146,-46.116 24.377,-91.318 62.59,-116.806c51.902,-34.62 127.379,-29.828 174.658,15.249c27.393,26.116 43.415,63.535 43.537,101.556c-0,0.012 -0,0.024 -0,0.035l-0,114.66l165.515,-0Z"/>
        </g>
        <g transform="matrix(1,0,0,0.999528,0,-27.184)">
            <path d="M6.965,378.865l0.009,-0.007l484.202,-382.264c0.378,-0.298 0.775,-0.571 1.188,-0.818c-0,0 9.071,-5.247 16.645,-6.334c2.098,-0.301 2.771,-0.449 6.55,-0.442l0.183,0.002c7.2,0.134 14.299,2.042 20.451,5.736c0.2,0.121 0.397,0.247 0.589,0.38l1.533,1.059c0.192,0.133 0.38,0.272 0.563,0.417l483.959,382.071c0.154,0.122 0.303,0.247 0.448,0.375c1.524,1.17 3.937,3.16 5.787,5.322c14.229,16.627 11.337,45.886 -9.292,58.059c-13.407,7.911 -31.417,7.042 -43.905,-2.616c-0.029,-0.022 -0.057,-0.044 -0.086,-0.067l-460.762,-363.678l-460.762,363.679c-0.029,0.022 -0.058,0.045 -0.087,0.067c-2.485,1.922 -3.26,2.334 -4.997,3.286c-18.217,9.987 -44.495,3.265 -53.722,-17.104c-7.207,-15.908 -2.479,-36.617 11.506,-47.123Z"/>
        </g>
    </g>
</svg>
