<?xml version="1.0" encoding="UTF-8" standalone="no"?>
<!DOCTYPE svg PUBLIC "-//W3C//DTD SVG 1.1//EN" "http://www.w3.org/Graphics/SVG/1.1/DTD/svg11.dtd">
<svg width="100%" height="100%" viewBox="0 0 1024 1024" version="1.1" xmlns="http://www.w3.org/2000/svg" xmlns:xlink="http://www.w3.org/1999/xlink" xml:space="preserve" xmlns:serif="http://www.serif.com/" style="fill-rule:evenodd;clip-rule:evenodd;stroke-linejoin:round;stroke-miterlimit:2;">
    <g id="skype" transform="matrix(0.999689,0,0,0.998799,0.156977,0.619289)">
        <path d="M51.475,432.946c-1.225,-2.462 -2.703,-5.471 -4.004,-8.211c-41.978,-88.376 -37.784,-197.302 12.601,-282.492c50.417,-85.245 145.597,-142.371 246.508,-142.863l2.329,0.002c49.216,0.341 97.685,13.562 140.29,38.016c5.006,-0.595 12.487,-1.463 19.054,-2.16c132.79,-14.108 270.547,32.847 368.66,125.552c70.256,66.383 119.696,154.101 140.619,248.535c14.48,65.356 15.472,133.578 3.199,199.534c36.797,85.031 31.66,185.814 -12.996,266.149c-38.794,69.788 -107.07,123.169 -185.089,141.931c-63.745,15.329 -132.862,7.429 -191.68,-21.379l-10.163,1.448c-134.826,18.671 -278.039,-25.811 -379.958,-119.849c-70.979,-65.491 -121.422,-152.575 -143.46,-246.602c-15.144,-64.618 -17.016,-132.091 -5.91,-197.611Zm255.374,-361.643c-75.174,0.375 -148.126,43.753 -186.166,109.854c-39.681,68.956 -39.444,158.981 -0.22,227.994c0.332,0.584 0.629,1.187 0.889,1.806l1.738,4.128c0.521,1.239 0.894,2.536 1.11,3.863c1.909,11.729 -1.771,24.832 -3.622,37.832c-14.255,100.096 8.349,205.473 63.687,290.166c62.078,95.008 164.657,162.811 277.808,178.711c42.456,5.966 85.931,4.895 127.891,-3.018c0.639,-0.121 1.284,-0.204 1.933,-0.251l4.343,-0.312c1.298,-0.093 2.603,-0.037 3.888,0.168c9.518,1.514 18.455,6.966 27.778,11.261c61.476,28.313 136.351,24.935 195.505,-9.76c77.187,-45.271 121.599,-140.027 107.227,-231.299c-3.388,-21.514 -9.905,-42.486 -19.177,-62.117l-0.74,-1.548c-0.264,-0.55 -0.497,-1.114 -0.7,-1.689l-1.373,-3.895c-0.412,-1.17 -0.695,-2.38 -0.844,-3.611c-1.404,-11.61 2.426,-24.198 4.388,-36.796c15.498,-99.565 -5.438,-204.404 -58.886,-289.471c-82.622,-131.499 -240.313,-211.431 -404.94,-182.677c-0.693,0.121 -1.392,0.199 -2.095,0.233l-4.7,0.23c-1.406,0.069 -2.815,-0.038 -4.195,-0.316c-8.805,-1.778 -16.589,-6.767 -24.33,-11.221c-31.347,-18.039 -67.005,-27.835 -103.479,-28.257l-2.718,-0.008Zm385.414,378.909c12.429,6.269 24.521,13.412 36.166,21.672c29.614,21.004 53.42,50.177 66.212,84.352c27.714,74.042 9.622,161.306 -42.045,217.766c-65.759,71.859 -175.736,93.113 -275.215,85.656c-90.989,-6.82 -180.936,-46.289 -227.885,-126.503c-16.78,-28.671 -27.887,-61.766 -25.721,-94.813c3.723,-56.823 66.23,-104.911 129.534,-84.661c32.52,10.403 54.933,41.743 68.365,72.452c6.81,15.447 13.938,31.652 26.348,42.677c17.322,15.391 42.395,18.996 66.474,18.748c24.557,-0.252 50.193,-4.52 69.276,-20.118c9.228,-7.542 15.883,-19.481 11.591,-32.806c-2.194,-6.81 -8.134,-11.462 -14.829,-15.432c-9.267,-5.496 -20.335,-9.285 -30.42,-12.273c-64.321,-19.057 -130.636,-27.249 -194.021,-56.164c-42.311,-19.301 -80.378,-50.1 -101.451,-91.746c-33.827,-66.853 -22.343,-153.486 27.25,-209.627c55.005,-62.269 146.146,-83.563 230.8,-83.849l2.237,-0.001c43.806,0.124 87.314,5.459 129.446,21.692c68.268,26.302 130.863,83.184 135.329,157.49c2.974,49.468 -33.777,99.605 -87.441,105.488Zm-179.392,-212.746c-53.194,0.181 -108.402,7.736 -152.748,38.235c-32.602,22.422 -53.666,59.856 -52.595,101.816c0.615,24.09 7.579,48.129 23.371,67.109c28.686,34.477 73.794,50.265 116.389,62.559c45.578,13.155 93.131,19.532 138.278,35.558c34.105,12.106 67.324,34.12 78.671,70.99c10.787,35.048 0.751,75.025 -25.998,101.406c-35.045,34.563 -89.283,46.233 -138.242,44.09c-41.564,-1.82 -84.4,-16.119 -112.306,-49.529c-14.684,-17.579 -25.15,-38.647 -34.155,-59.853c-4.456,-10.343 -9.282,-21.746 -19.8,-26.733c-12.733,-6.036 -30.763,-0.472 -36.543,13.001c-3.014,7.023 -1.752,15.133 -0.354,22.875c8.84,48.967 51.402,89.34 94.851,108.243c48.705,21.19 103.878,24.943 157.828,20.561c58.098,-4.72 118.053,-23.605 154.348,-67.363c26.494,-31.941 36.352,-76.246 28.9,-118.322c-5.624,-31.753 -25.969,-59.57 -54.331,-77.041c-49.425,-30.446 -109.247,-41.36 -163.944,-54.571c-35.789,-8.681 -72.429,-16.137 -103.362,-35.466c-19.339,-12.085 -36.137,-29.945 -41.869,-52.657c-6.483,-25.689 0.59,-53.875 18.879,-74.305c28.657,-32.012 76.507,-44.065 118.227,-43.951c34.921,0.095 70.958,5.811 97.369,27.555c18.861,15.529 33.607,35.74 44.777,57.049c-0,0 4.734,8.565 9.055,14.933c3.866,5.698 7.493,12.535 14.256,14.244c10.025,2.533 21.241,0.544 28.533,-7.543c5.347,-5.93 8.097,-13.686 7.433,-22.285c-2.275,-29.473 -24.218,-54.955 -48.346,-72.238c-41.346,-29.616 -95.422,-38.423 -146.572,-38.367Zm97.253,182.414c-9.948,-11.517 -17.61,-24.843 -25.484,-38.091c-7.394,-12.441 -14.942,-24.864 -26.443,-34.414c-12.404,-10.3 -30.302,-10.893 -47.313,-11.275c-23.677,-0.532 -48.861,1.406 -66.782,17.612c-3.56,3.219 -7.727,8.164 -4.08,12.615c10.969,13.388 30.075,18.415 45.846,22.768c18.355,5.067 37.019,9.535 55.381,13.866c22.901,5.402 46.039,10.634 68.875,16.919Z"/>
    </g>
</svg>
