<?xml version="1.0" encoding="UTF-8" standalone="no"?>
<!DOCTYPE svg PUBLIC "-//W3C//DTD SVG 1.1//EN" "http://www.w3.org/Graphics/SVG/1.1/DTD/svg11.dtd">
<svg width="100%" height="100%" viewBox="0 0 1024 1024" version="1.1" xmlns="http://www.w3.org/2000/svg" xmlns:xlink="http://www.w3.org/1999/xlink" xml:space="preserve" xmlns:serif="http://www.serif.com/" style="fill-rule:evenodd;clip-rule:evenodd;stroke-linejoin:round;stroke-miterlimit:2;">
    <g id="sync" transform="matrix(10.526,0,0,10.5211,-140.475,884.067)">
        <g transform="matrix(0.1032,0,0,0.103247,9.14881,-88.2263)">
            <path d="M983.334,165.042c-0,-68.645 -55.731,-124.376 -124.376,-124.376c0,0 -693.916,0 -693.916,0c-68.645,0 -124.376,55.731 -124.376,124.376c0,-0 0,693.916 0,693.916c0,68.645 55.731,124.376 124.376,124.376l693.916,-0c68.645,-0 124.376,-55.731 124.376,-124.376l-0,-693.916Zm-75,-0l-0,693.916c-0,27.251 -22.125,49.376 -49.376,49.376c0,-0 -693.916,-0 -693.916,-0c-27.251,-0 -49.376,-22.125 -49.376,-49.376l0,-693.916c0,-27.251 22.125,-49.376 49.376,-49.376l693.916,0c27.251,0 49.376,22.125 49.376,49.376Z"/>
        </g>
        <g transform="matrix(0.1032,0,0,0.103247,9.14881,-88.2263)">
            <path d="M278.548,690.787l179.489,101.707c36.039,20.759 71.263,21.073 108.018,-0.052c-0.09,0.052 179.399,-101.655 179.399,-101.655c0.012,-0.006 0.023,-0.013 0.034,-0.019c14.74,-8.397 25.787,-17.2 33.434,-29.32c7.612,-12.065 12.08,-27.635 12.08,-50.503c0,0 0,-200.833 0,-200.833c0,-22.426 -4.576,-37.571 -12.014,-49.182c-7.463,-11.649 -18.048,-19.939 -31.618,-27.759c-0.093,-0.053 -180.1,-102.277 -180.1,-102.277c-37.766,-21.614 -73.752,-21.272 -110.653,0.066c0.106,-0.06 -179.642,102.163 -179.642,102.163c-0.003,0.002 -0.006,0.003 -0.009,0.005c-13.731,7.82 -24.394,16.117 -31.898,27.767c-7.485,11.619 -12.07,26.774 -12.07,49.217l-0,200.833c-0,22.883 4.542,38.464 12.2,50.537c7.669,12.093 18.698,20.869 33.248,29.247l0.102,0.058Zm41.321,-65.707c-0.029,-0.016 -0.058,-0.033 -0.086,-0.049c-7.715,-4.328 -10.948,-8.072 -10.948,-15.377c0,0 0,-197.735 0,-197.735c0,-6.332 3.27,-9.499 9.605,-13.172c-0.078,0.045 173.471,-99.339 173.471,-99.339c0.002,-0.001 0.004,-0.001 0.005,-0.002c13.645,-7.82 26.198,-8.206 40.388,-0.023c0.035,0.02 173.325,99.404 173.325,99.404c0.02,0.011 0.04,0.022 0.059,0.033c6.411,3.643 9.477,6.819 9.477,13.099l0,197.735c0,7.32 -3.202,11.102 -10.798,15.44c0.025,-0.014 -171.975,97.821 -171.975,97.821c-14.547,8.178 -26.425,8.052 -40.497,0.015c-0.026,-0.015 -172.026,-97.85 -172.026,-97.85Z" style="fill-rule:nonzero;"/>
        </g>
    </g>
</svg>
