<?xml version="1.0" encoding="UTF-8" standalone="no"?><!DOCTYPE svg PUBLIC "-//W3C//DTD SVG 1.1//EN" "http://www.w3.org/Graphics/SVG/1.1/DTD/svg11.dtd"><svg width="100%" height="100%" viewBox="0 0 512 512" version="1.1" xmlns="http://www.w3.org/2000/svg" xmlns:xlink="http://www.w3.org/1999/xlink" xml:space="preserve" style="fill-rule:evenodd;clip-rule:evenodd;stroke-linejoin:round;stroke-miterlimit:2;"><title>Bergfürst</title><desc>BERGFÜRST is a crowdinvesting platform, where private investors can participate in individual real estate and property portfolios starting at 10 euros - with interest rates between 5.0% and 7.5% p.a.Investors benefit from a transparent presentation of the investment opportunities, ongoing information on the real estate and a trading platform on which they can offer their investments for sale even before maturity.</desc>    <g>        <g transform="matrix(0.5,0,0,11.087,-1.08802e-14,-10.087)">            <rect x="2" y="1" width="1020" height="46" style="fill:rgb(200,210,0);"/>        </g>        <g transform="matrix(588.431,0,0,588.431,79.0288,452.24)">            <path d="M0.078,0l0,-0.667l0.297,0c0.057,0 0.103,0.016 0.136,0.047c0.034,0.031 0.051,0.072 0.051,0.123c0,0.04 -0.011,0.074 -0.034,0.101c-0.023,0.027 -0.051,0.045 -0.083,0.052c0.035,0.005 0.066,0.024 0.092,0.056c0.025,0.032 0.038,0.068 0.038,0.108c0,0.054 -0.017,0.098 -0.051,0.131c-0.035,0.033 -0.082,0.049 -0.142,0.049l-0.304,0Zm0.083,-0.074l0.205,0c0.039,0 0.069,-0.01 0.09,-0.031c0.022,-0.02 0.033,-0.048 0.033,-0.084c0,-0.033 -0.011,-0.06 -0.032,-0.082c-0.022,-0.022 -0.052,-0.033 -0.091,-0.033l-0.205,0l0,0.23Zm0,-0.304l0.2,0c0.036,0 0.065,-0.01 0.085,-0.03c0.02,-0.02 0.03,-0.045 0.03,-0.077c0,-0.031 -0.01,-0.057 -0.03,-0.077c-0.02,-0.021 -0.049,-0.031 -0.085,-0.031l-0.2,0l0,0.215Z" style="fill:rgb(56,56,56);fill-rule:nonzero;"/>        </g>    </g></svg>