<?xml version="1.0" encoding="UTF-8" standalone="no"?><!DOCTYPE svg PUBLIC "-//W3C//DTD SVG 1.1//EN" "http://www.w3.org/Graphics/SVG/1.1/DTD/svg11.dtd"><svg width="100%" height="100%" viewBox="0 0 512 512" version="1.1" xmlns="http://www.w3.org/2000/svg" xmlns:xlink="http://www.w3.org/1999/xlink" xml:space="preserve" style="fill-rule:evenodd;clip-rule:evenodd;stroke-linejoin:round;stroke-miterlimit:2;"><title>Community Shares</title><desc>The CSU is a joint initiative between Locality and Co-operatives UK. Its objective is to support enterprises, promote good practice and raise awareness of community shares as a sustainable funding mechanism for community enterprises.</desc>    <g transform="matrix(18.8385,0,0,18.8385,-9768.25,-762.606)">        <g transform="matrix(0.260133,0,0,0.260133,485.515,5.04813)">            <path d="M179.144,188.446l45.059,26.018c-14.367,24.885 -46.187,33.409 -71.072,19.042c-8.288,-4.783 -14.264,-10.754 -19.047,-19.042l45.06,-26.018Z" style="fill:rgb(141,189,188);fill-rule:nonzero;"/>        </g>        <g transform="matrix(0.260133,0,0,0.260133,485.515,5.04813)">            <path d="M179.144,188.446l-45.06,26.018c-14.372,-24.89 -5.843,-56.71 19.047,-71.077c8.288,-4.787 16.443,-6.97 26.013,-6.97l0,52.029Z" style="fill:rgb(133,34,47);fill-rule:nonzero;"/>        </g>        <g transform="matrix(0,-1.33333,-1.33333,0,542.266,57.4532)">            <path d="M2.538,7.613l10.151,0c0,-5.606 -4.545,-10.151 -10.151,-10.151c-1.867,0 -3.459,0.426 -5.076,1.36l5.076,8.791Z" style="fill:rgb(199,52,61);fill-rule:nonzero;"/>        </g>    </g></svg>