<?xml version="1.0" encoding="UTF-8" standalone="no"?><!DOCTYPE svg PUBLIC "-//W3C//DTD SVG 1.1//EN" "http://www.w3.org/Graphics/SVG/1.1/DTD/svg11.dtd"><svg width="100%" height="100%" viewBox="0 0 512 512" version="1.1" xmlns="http://www.w3.org/2000/svg" xmlns:xlink="http://www.w3.org/1999/xlink" xml:space="preserve" style="fill-rule:evenodd;clip-rule:evenodd;stroke-linejoin:round;stroke-miterlimit:2;"><title>KNF</title><desc></desc>    <g id="logo" transform="matrix(5.3181,0,0,5.31372,0.569263,117.975)">        <path id="Fill-76" d="M88.393,16.288c7.56,-0.017 7.587,-6.121 7.587,-6.121l-26.745,0l0,31.616l6.939,0l0,-12.515l6.61,0c7.696,0 7.696,-6.118 7.696,-6.118l-0.02,0l0.005,-0.004l-14.291,0l0,-6.858l12.219,0Z" style="fill:rgb(40,40,120);"/>        <path id="Fill-78" d="M17.964,26.243c9.622,-6.133 10.632,-16.076 10.632,-16.076l-7.563,0c0,0 -2.359,11.234 -14.016,13.203l0,-13.203l-6.936,0l0,31.616l6.936,0l0,-11.632c1.489,-0.235 2.967,-0.549 4.383,-0.956c0.333,0.427 9.337,12.583 9.337,12.583l8.548,0c0,0 -10.938,-15 -11.321,-15.535" style="fill:rgb(40,40,120);"/>        <path id="Fill-75" d="M56.993,30.599l-15.513,-20.432l-6.889,0l0,31.616l6.889,0l0,-20.434l15.513,20.434l6.941,0l0,-31.616l-6.941,0l0,20.432Z" style="fill:rgb(40,40,120);"/>    </g></svg>