<?xml version="1.0" encoding="UTF-8" standalone="no"?><!DOCTYPE svg PUBLIC "-//W3C//DTD SVG 1.1//EN" "http://www.w3.org/Graphics/SVG/1.1/DTD/svg11.dtd"><svg width="100%" height="100%" viewBox="0 0 512 512" version="1.1" xmlns="http://www.w3.org/2000/svg" xmlns:xlink="http://www.w3.org/1999/xlink" xml:space="preserve" style="fill-rule:evenodd;clip-rule:evenodd;stroke-linejoin:round;stroke-miterlimit:2;"><title>BRISMO</title><desc>Brismo brings efficiency to the market in loans, enabling loan originators to create credible performance metrics, and investors to deploy capital more productively and cost effectively.We have the broadest market coverage, working with originators of loans - from SME and consumer, to real estate and receivables - and providing market leading performance metrics to a range of investor clients.</desc>    <g transform="matrix(1.92343,0,0,1.96831,-455.987,83.561)">        <g transform="matrix(0.769428,0,0,0.751883,133.182,-102.739)">            <path d="M352.853,408.985c-14.232,4.146 -29.287,6.344 -44.852,6.344c-89.503,0 -162.169,-72.666 -162.169,-162.169c0,-89.504 72.666,-162.169 162.169,-162.169c88.51,0 160.554,71.061 162.131,159.192l-117.279,158.802Z" style="fill:rgb(47,47,47);"/>        </g>        <g transform="matrix(-1.35688,1.79537,-1.83727,-1.32594,1638.89,146.874)">            <path d="M275.386,419.269l0.799,-0.606c20.036,-14.797 46.883,-13.857 65.705,0.606l-66.504,0Z" style="fill:url(#_Linear1);"/>        </g>        <g transform="matrix(199.584,0,0,199.584,289.535,157.462)">            <path d="M0.597,-0.364c0.04,0.013 0.071,0.034 0.094,0.064c0.023,0.029 0.034,0.066 0.034,0.109c0,0.061 -0.024,0.109 -0.072,0.142c-0.047,0.032 -0.117,0.049 -0.208,0.049l-0.362,0l0,-0.7l0.342,0c0.085,0 0.151,0.016 0.197,0.049c0.045,0.033 0.068,0.077 0.068,0.133c0,0.034 -0.008,0.064 -0.025,0.091c-0.016,0.027 -0.039,0.048 -0.068,0.063Zm-0.353,-0.214l0,0.165l0.161,0c0.04,0 0.07,-0.007 0.091,-0.021c0.021,-0.014 0.031,-0.035 0.031,-0.062c0,-0.027 -0.01,-0.048 -0.031,-0.061c-0.021,-0.014 -0.051,-0.021 -0.091,-0.021l-0.161,0Zm0.189,0.456c0.043,0 0.075,-0.007 0.096,-0.021c0.022,-0.014 0.033,-0.036 0.033,-0.065c0,-0.058 -0.043,-0.087 -0.129,-0.087l-0.189,0l0,0.173l0.189,0Z" style="fill:white;fill-rule:nonzero;"/>        </g>    </g>    <defs>        <linearGradient id="_Linear1" x1="0" y1="0" x2="1" y2="0" gradientUnits="userSpaceOnUse" gradientTransform="matrix(-47.3423,-46.6472,46.6472,-47.3423,351.28,420.791)"><stop offset="0" style="stop-color:rgb(0,208,92);stop-opacity:1"/><stop offset="0.32" style="stop-color:rgb(52,108,218);stop-opacity:1"/><stop offset="0.48" style="stop-color:rgb(50,40,163);stop-opacity:1"/><stop offset="0.67" style="stop-color:rgb(226,49,45);stop-opacity:1"/><stop offset="1" style="stop-color:rgb(255,233,92);stop-opacity:1"/></linearGradient>    </defs></svg>