<?xml version="1.0" encoding="UTF-8" standalone="no"?><!DOCTYPE svg PUBLIC "-//W3C//DTD SVG 1.1//EN" "http://www.w3.org/Graphics/SVG/1.1/DTD/svg11.dtd"><svg width="100%" height="100%" viewBox="0 0 512 512" version="1.1" xmlns="http://www.w3.org/2000/svg" xmlns:xlink="http://www.w3.org/1999/xlink" xml:space="preserve" style="fill-rule:evenodd;clip-rule:evenodd;stroke-linejoin:round;stroke-miterlimit:2;"><title>Aave</title><desc>Aave is an open source lending protocol that provides a friendly user experience for anyone to deposit and borrow cryptographic assets. Deposit allows you to earn passive income based on your holdings. Borrow allows you to unlock liquidity without been required to sell your assets.</desc>    <g id="d" transform="matrix(0.657216,0,0,0.657216,-6.8866,-6.8866)">        <g transform="matrix(1,0,0,1,12,12)">            <circle cx="388" cy="388" r="388" style="fill:url(#_Linear1);"/>        </g>        <g transform="matrix(1,0,0,1,252,183)">            <path d="M279.775,433.161c-9.033,-0.01 -16.463,-7.438 -16.475,-16.471l0,-47.959c0,-9.026 -7.427,-16.453 -16.453,-16.453c-9.027,0 -16.454,7.427 -16.454,16.453l0,22.76c0,9.026 -7.427,16.453 -16.453,16.453c-9.027,0 -16.454,-7.427 -16.454,-16.453l0,-22.76c0,-0.043 0.001,-0.086 0.001,-0.128c0,-9.029 -7.43,-16.458 -16.458,-16.458c-9.029,0 -16.458,7.429 -16.458,16.458c0,0.042 0,0.085 0,0.128l0,6.194c-0.07,8.987 -7.483,16.343 -16.47,16.343c-8.988,0 -16.401,-7.356 -16.471,-16.343l0,-6.194c0,-0.043 0.001,-0.086 0.001,-0.128c0,-9.029 -7.43,-16.458 -16.458,-16.458c-9.029,0 -16.458,7.429 -16.458,16.458c0,0.042 0,0.085 0,0.128l0,22.76c0,9.026 -7.427,16.454 -16.453,16.454c-9.027,0 -16.454,-7.428 -16.454,-16.454l0,-22.76c0,-9.026 -7.427,-16.454 -16.453,-16.454c-9.027,0 -16.454,7.428 -16.454,16.454l0,47.959c0.002,0.096 0.003,0.191 0.003,0.287c0,9.026 -7.428,16.453 -16.453,16.453c-9.026,0 -16.453,-7.427 -16.453,-16.453c0,-0.096 0,-0.191 0.002,-0.287l0,-271.724c1.895,-80.073 68.283,-144.908 148.378,-144.908c58.622,0 111.982,34.731 135.714,88.334c7.901,17.839 12.186,37.068 12.608,56.574c0.057,0.413 -0.133,0.823 -0.484,1.047l0,270.677c-0.006,9.022 -7.419,16.449 -16.441,16.471Zm-148.322,-245.011c-4.178,0 -5.874,1.618 -5.874,5.614c0,9.715 10.744,17.613 23.945,17.613c13.183,0 23.91,-7.9 23.91,-17.613c0,-3.988 -1.7,-5.606 -5.865,-5.606c-2.23,0.078 -4.452,0.304 -6.652,0.675l-0.208,0.035c-3.699,0.607 -7.437,0.949 -11.185,1.021c-3.757,-0.072 -7.503,-0.414 -11.211,-1.021c-2.267,-0.396 -4.56,-0.636 -6.86,-0.718Zm71.647,-79.966c-14.567,0 -26.41,13.564 -26.41,30.242c0,16.661 11.843,30.216 26.41,30.216c14.542,0 26.367,-13.555 26.367,-30.216c-0.003,-16.678 -11.828,-30.242 -26.367,-30.242Zm-109.5,0c-14.533,0 -26.367,13.564 -26.367,30.242c0,16.661 11.834,30.216 26.367,30.216c14.533,0 26.375,-13.555 26.375,-30.216c-0.001,-16.678 -11.835,-30.242 -26.375,-30.242Z" style="fill:white;fill-rule:nonzero;"/>        </g>    </g>    <defs>        <linearGradient id="_Linear1" x1="0" y1="0" x2="1" y2="0" gradientUnits="userSpaceOnUse" gradientTransform="matrix(-577.344,485.776,-485.776,-577.344,703.832,176.152)"><stop offset="0" style="stop-color:rgb(182,80,158);stop-opacity:1"/><stop offset="1" style="stop-color:rgb(46,186,198);stop-opacity:1"/></linearGradient>    </defs></svg>