<?xml version="1.0" encoding="UTF-8" standalone="no"?><!DOCTYPE svg PUBLIC "-//W3C//DTD SVG 1.1//EN" "http://www.w3.org/Graphics/SVG/1.1/DTD/svg11.dtd"><svg width="100%" height="100%" viewBox="0 0 512 512" version="1.1" xmlns="http://www.w3.org/2000/svg" xmlns:xlink="http://www.w3.org/1999/xlink" xml:space="preserve" style="fill-rule:evenodd;clip-rule:evenodd;stroke-linejoin:round;stroke-miterlimit:2;"><title>Credit.fr</title><desc>Credit.fr is an online platform for leading business loans in its market. By combining the best of technology and banking expertise, it revolutionizes access to professional credit by offering a 100% digital and ultra-fast service.Since its creation in 2015, its innovative approach has allowed it to attract a large community of private lenders (21,000) and institutional and finance business projects throughout France.</desc>    <g transform="matrix(4.62791,0,0,4.62791,-39.7269,-40.1862)">        <path d="M114.72,44.31c-8.126,-21.102 -28.517,-35.1 -51.13,-35.1c-30.057,0 -54.79,24.733 -54.79,54.79c0,30.057 24.733,54.79 54.79,54.79c22.613,0 43.004,-13.998 51.13,-35.1l-19.72,-19.69l19.72,-19.69Z" style="fill:rgb(90,90,90);fill-rule:nonzero;"/>        <path d="M63.79,81.12c-9.392,0 -17.12,-7.728 -17.12,-17.12c0,-9.392 7.728,-17.12 17.12,-17.12c5.715,-0.048 11.065,2.869 14.12,7.7l12.41,-12.84c-6.529,-7.903 -16.279,-12.464 -26.53,-12.41c-19.019,0 -34.67,15.651 -34.67,34.67c0,19.019 15.651,34.67 34.67,34.67c10.7,0 20.54,-4.71 26.54,-12.41l-12.42,-12.84c-3.055,4.831 -8.405,7.748 -14.12,7.7Z" style="fill:white;fill-rule:nonzero;"/>        <path d="M95.46,64l19.69,19.69c2.386,-6.299 3.688,-12.956 3.85,-19.69c0.047,-6.755 -1.262,-13.451 -3.85,-19.69l-19.69,19.69Z" style="fill:rgb(0,214,233);fill-rule:nonzero;"/>    </g></svg>