<?xml version="1.0" encoding="UTF-8" standalone="no"?><!DOCTYPE svg PUBLIC "-//W3C//DTD SVG 1.1//EN" "http://www.w3.org/Graphics/SVG/1.1/DTD/svg11.dtd"><svg width="100%" height="100%" viewBox="0 0 512 512" version="1.1" xmlns="http://www.w3.org/2000/svg" xmlns:xlink="http://www.w3.org/1999/xlink" xml:space="preserve" style="fill-rule:evenodd;clip-rule:evenodd;stroke-linejoin:round;stroke-miterlimit:2;"><title>Fundimmo</title><desc>Fundimmo is the first crowdfunding platform exclusively dedicated to real estate by regular monitoring of transactions and their timely repayment. Fundimmo allows its investors to invest in a wide range of real estate projects like real estate development and renovation, selected by an advisory committee</desc>    <g transform="matrix(8.09936,0,0,8.09936,-1443.39,-3041.44)">        <g transform="matrix(0.279938,0,0,0.279938,174.688,375.511)">            <path d="M71.492,129.878l-47.739,39l0,56.517l47.739,0l0,-95.517Z" style="fill:rgb(242,148,0);"/>        </g>        <g transform="matrix(0.279938,0,0,0.279938,203.651,375.511)">            <path d="M71.492,55.878l-47.739,39l0,130.517l47.739,0l0,-169.517Z" style="fill:rgb(59,59,59);"/>        </g>        <g transform="matrix(0.279938,0,0,0.279938,174.688,375.511)">            <path d="M93.141,56.173l0,-16.713l47.74,-39l0,84.027l-39.83,-33.131l0,103.734l-29.534,-25.139l-17.206,15.139l0,-56.517l38.83,-32.4Z" style="fill:rgb(59,59,59);"/>        </g>        <g transform="matrix(-0.279938,0,0,0.279938,253.503,375.511)">            <path d="M93.141,56.173l0,-16.713l47.74,-39l0,84.027l-33.83,-28.131l0,168.734l-52.74,0l0,-136.517l38.83,-32.4Z" style="fill:rgb(242,148,0);"/>        </g>        <g transform="matrix(0.279938,0,0,0.279938,203.749,375.511)">            <path d="M71.492,54.878l-47.739,39l0,131.517l47.739,0l0,-170.517Z" style="fill:rgb(59,59,59);"/>        </g>    </g></svg>