<?xml version="1.0" encoding="UTF-8" standalone="no"?><!DOCTYPE svg PUBLIC "-//W3C//DTD SVG 1.1//EN" "http://www.w3.org/Graphics/SVG/1.1/DTD/svg11.dtd"><svg width="100%" height="100%" viewBox="0 0 512 512" version="1.1" xmlns="http://www.w3.org/2000/svg" xmlns:xlink="http://www.w3.org/1999/xlink" xml:space="preserve" style="fill-rule:evenodd;clip-rule:evenodd;stroke-linejoin:round;stroke-miterlimit:2;"><title>Reyker</title><desc>Established in 1983, Reyker offers a range of bespoke financial services for a wide variety of client types. We specialise in providing dealing, management, custody and administration services.</desc>    <g transform="matrix(27.1264,0,0,11.3182,-1157.39,38.813)">        <g transform="matrix(0.0380159,0,0,0.0911132,42.6787,-3.73067)">            <path d="M480.652,35.012c-0,-8.935 -7.254,-16.189 -16.189,-16.189l-433.084,0c-8.935,0 -16.189,7.254 -16.189,16.189l0,433.084c0,8.935 7.254,16.189 16.189,16.189l433.084,-0c8.935,-0 16.189,-7.254 16.189,-16.189l-0,-433.084Z" style="fill:rgb(154,213,228);"/>        </g>        <g transform="matrix(0.306496,0,0,0.734061,20.6473,-0.935035)">            <path d="M93.908,13.251l-5.756,0l-9.44,14.113l9.405,14.077l5.826,0l-9.44,-14.112l9.405,-14.078Z" style="fill:rgb(60,50,105);fill-rule:nonzero;"/>        </g>        <g transform="matrix(0.306496,0,0,0.734061,10.9443,-0.935035)">            <path d="M142.979,13.388l9.44,14.113l-9.405,14.077l5.755,0.001l9.441,-14.113l-9.406,-14.078l-5.825,0Z" style="fill:rgb(60,50,105);fill-rule:nonzero;"/>        </g>    </g></svg>