<?xml version="1.0" encoding="UTF-8" standalone="no"?><!DOCTYPE svg PUBLIC "-//W3C//DTD SVG 1.1//EN" "http://www.w3.org/Graphics/SVG/1.1/DTD/svg11.dtd"><svg width="100%" height="100%" viewBox="0 0 512 512" version="1.1" xmlns="http://www.w3.org/2000/svg" xmlns:xlink="http://www.w3.org/1999/xlink" xml:space="preserve" style="fill-rule:evenodd;clip-rule:evenodd;stroke-linecap:round;stroke-linejoin:round;"><title>Kuflink</title><desc>Invest in UK property loans and earn up to 7.2% with our innovative FCA regulated platform.At Kuflink we specialise in Bridging Loans for residential and commercial property. We also provide Property-Backed Peer-to-Peer Investment opportunities via an online platform</desc>    <g id="Kuflink" transform="matrix(4.63672,0,0,4.63672,-40.7747,-40.8687)">        <path d="M119,64c0.023,-1.428 -0.285,-2.841 -0.9,-4.13c-0.521,-1.291 -1.316,-2.455 -2.33,-3.41l-23.77,-23.93l-0.18,-0.18c-4.268,-3.426 -10.505,-3.074 -14.36,0.81c-0.325,0.31 -0.626,0.645 -0.9,1c-0.499,0.594 -1.237,0.938 -2.013,0.938c-0.691,0 -1.355,-0.273 -1.847,-0.758l-6.46,-6.46c-1.249,-1.193 -3.241,-1.193 -4.49,0c-1.25,1.259 -1.25,3.321 0,4.58l14.53,14.54l0.27,0.27c0.098,0.167 0.219,0.318 0.36,0.45c0.18,0.18 0.36,0.45 0.54,0.63l3.14,3.14l7.72,7.63l3.69,3.66c0.712,0.714 0.712,1.886 0,2.6l-4.5,4.22l-10.59,10.5c-0.623,0.645 -1.483,1.01 -2.38,1.01c-0.897,0 -1.757,-0.365 -2.38,-1.01l-1.08,-1.1c-0.873,-0.901 -1.184,-2.212 -0.81,-3.41c0.202,-0.487 0.475,-0.942 0.81,-1.35l3.68,-3.68c3.32,-3.32 4.4,-9 1.44,-12.3l-6.46,-6.46l-0.54,-0.54l-18.31,-18.26c-2.003,-2.025 -4.737,-3.166 -7.585,-3.166c-2.848,0 -5.582,1.141 -7.585,3.166l-2.78,2.78c-0.09,0.09 -0.27,0.27 -0.27,0.36l-0.27,0.27l-19.92,19.82l-0.36,0.36c-1.709,1.679 -2.787,3.899 -3.05,6.28c-0.166,1.798 0.08,3.611 0.72,5.3c0.574,1.289 1.362,2.473 2.33,3.5l2.89,2.87l20.9,20.9c4.273,3.613 10.683,3.337 14.63,-0.63c0.359,-0.367 0.693,-0.758 1,-1.17c0.472,-0.632 1.215,-1.005 2.004,-1.005c0.707,0 1.382,0.3 1.856,0.825l6.53,6.54c0.609,0.678 1.478,1.066 2.389,1.066c1.761,0 3.21,-1.449 3.21,-3.21c0,-0.889 -0.369,-1.739 -1.019,-2.346l-19.75,-19.81l-7,-6.73l-3.5,-3.5c-0.712,-0.714 -0.712,-1.886 0,-2.6l3.68,-3.68l1,-1l9.87,-9.87c0.18,-0.18 0.27,-0.36 0.45,-0.45c0.161,-0.172 0.342,-0.323 0.54,-0.45c1.334,-0.851 3.095,-0.663 4.22,0.45l1.06,1.13c0.966,0.925 1.255,2.364 0.72,3.59c-0.083,0.257 -0.205,0.499 -0.36,0.72c-0.09,0.18 -0.27,0.27 -0.36,0.45l-3.95,3.95c-3.174,3.926 -2.901,9.672 0.63,13.28l3.41,3.41l18.49,18.6c5.171,5.17 13.679,5.17 18.85,0l0.63,-0.63c0.18,-0.18 0.27,-0.36 0.45,-0.45l20.19,-20.19c2.064,-2.041 3.228,-4.827 3.23,-7.73Zm-73.06,-20.25l-9.78,9.78l-5.92,5.92l-3.15,3.15c-0.712,0.714 -0.712,1.886 0,2.6l19,19c0.773,0.772 1.208,1.822 1.208,2.915c0,1.093 -0.435,2.143 -1.208,2.915l-0.54,0.54c-0.551,0.56 -1.279,0.913 -2.06,1l-0.09,0c-1.087,0.222 -2.215,-0.117 -3,-0.9l-9.98,-10.57l-5.83,-5.83l-0.59,-0.54l-7.27,-7.18c-0.301,-0.316 -0.544,-0.681 -0.72,-1.08c-0.276,-0.529 -0.429,-1.114 -0.45,-1.71l0,-1.25c0,-0.09 0,-0.09 0.09,-0.18c0.09,-0.09 0,-0.09 0.09,-0.18c0.09,-0.09 0,-0.09 0.09,-0.18c0.09,-0.09 0.18,-0.27 0.27,-0.36l0.09,-0.09l0.09,-0.09c0,-0.049 0.041,-0.09 0.09,-0.09l0.09,-0.09l14.4,-14.09l9.24,-9.24c0.772,-0.773 1.822,-1.208 2.915,-1.208c1.093,0 2.143,0.435 2.915,1.208c0.753,0.765 1.174,1.797 1.17,2.87c0.024,1.101 -0.394,2.168 -1.16,2.96Zm23.43,20.2l0,0.45c-0.087,0.921 -0.503,1.78 -1.17,2.42l-1.53,1.35c-0.157,0.176 -0.339,0.328 -0.54,0.45c-1.559,1.041 -3.652,0.853 -5,-0.45l-1.35,-1.26c-1.416,-1.399 -1.533,-3.673 -0.27,-5.21c0,-0.049 0.041,-0.09 0.09,-0.09l0.27,-0.27l1.44,-1.44c0.382,-0.35 0.805,-0.652 1.26,-0.9c0.827,-0.329 1.736,-0.392 2.6,-0.18c0.375,0.111 0.737,0.262 1.08,0.45c0.27,0.18 0.45,0.36 0.72,0.54l1.35,1.26c0.229,0.199 0.413,0.445 0.54,0.72c0.342,0.545 0.557,1.16 0.63,1.8l0,0.09c-0.069,0.072 -0.102,0.171 -0.09,0.27l-0.03,0Zm42.9,1.71c-0.157,0.334 -0.37,0.638 -0.63,0.9l-23.51,23.5c-0.772,0.773 -1.822,1.208 -2.915,1.208c-1.093,0 -2.143,-0.435 -2.915,-1.208c-0.753,-0.765 -1.174,-1.797 -1.17,-2.87c-0.02,-1.076 0.404,-2.114 1.17,-2.87l15.43,-15.44l3.41,-3.41c0.712,-0.714 0.712,-1.886 0,-2.6l-10,-10.14l-9.51,-9.51c-0.617,-0.585 -0.976,-1.391 -1,-2.24c-0.067,-0.971 0.3,-1.924 1,-2.6l0.54,-0.54c0.772,-0.773 1.822,-1.208 2.915,-1.208c1.093,0 2.143,0.435 2.915,1.208l5.24,5.16l18.31,18.31c0.301,0.316 0.544,0.681 0.72,1.08c0.503,1.028 0.503,2.232 0,3.26l0,0.01Z" style="fill:url(#_Linear1);fill-rule:nonzero;stroke:url(#_Linear2);stroke-width:0.19px;"/>    </g>    <defs>        <linearGradient id="_Linear1" x1="0" y1="0" x2="1" y2="0" gradientUnits="userSpaceOnUse" gradientTransform="matrix(110,0,0,110,9,64)"><stop offset="0" style="stop-color:rgb(76,54,110);stop-opacity:1"/><stop offset="1" style="stop-color:rgb(0,158,212);stop-opacity:1"/></linearGradient>        <linearGradient id="_Linear2" x1="0" y1="0" x2="1" y2="0" gradientUnits="userSpaceOnUse" gradientTransform="matrix(110.2,0,0,110.2,8.9,-38)"><stop offset="0" style="stop-color:rgb(76,54,110);stop-opacity:1"/><stop offset="1" style="stop-color:rgb(0,158,212);stop-opacity:1"/></linearGradient>    </defs></svg>