<?xml version="1.0" encoding="UTF-8" standalone="no"?><!DOCTYPE svg PUBLIC "-//W3C//DTD SVG 1.1//EN" "http://www.w3.org/Graphics/SVG/1.1/DTD/svg11.dtd"><svg width="100%" height="100%" viewBox="0 0 512 512" version="1.1" xmlns="http://www.w3.org/2000/svg" xmlns:xlink="http://www.w3.org/1999/xlink" xml:space="preserve" style="fill-rule:evenodd;clip-rule:evenodd;stroke-linejoin:round;stroke-miterlimit:2;"><title>GRID Finance</title><desc>We are Ireland’s business finance specialists for the retail, hospitality and services sectorsGRID operates a business financing platform aiming to help small and medium sized Irish companies access the finance they need for their continued development and expansion. The Platform is an online community putting Lenders and Borrowers (SME and social enterprises) in touch with each other.</desc>    <g transform="matrix(666.548,0,0,666.556,-32.1972,501.239)">        <path d="M0.68,-0.655l0,-0.081l0.094,0l0,0.242l-0.094,0c-0.021,-0.047 -0.055,-0.085 -0.102,-0.113c-0.046,-0.029 -0.095,-0.043 -0.146,-0.043c-0.051,0 -0.096,0.012 -0.136,0.036c-0.039,0.024 -0.07,0.057 -0.092,0.099c-0.022,0.042 -0.033,0.09 -0.033,0.143c0,0.056 0.011,0.106 0.035,0.149c0.023,0.043 0.055,0.077 0.096,0.101c0.041,0.024 0.088,0.036 0.141,0.036c0.04,0 0.077,-0.007 0.111,-0.022c0.035,-0.015 0.063,-0.035 0.086,-0.062c0.023,-0.027 0.037,-0.058 0.042,-0.093l-0.135,0l0,-0.093l0.268,0l0,0.024c0,0.07 -0.016,0.131 -0.048,0.183c-0.032,0.052 -0.076,0.092 -0.132,0.12c-0.056,0.027 -0.119,0.041 -0.189,0.041c-0.08,0 -0.15,-0.016 -0.21,-0.048c-0.06,-0.032 -0.106,-0.077 -0.138,-0.134c-0.032,-0.058 -0.048,-0.125 -0.048,-0.201c0,-0.073 0.016,-0.138 0.048,-0.195c0.032,-0.057 0.076,-0.102 0.132,-0.134c0.057,-0.032 0.121,-0.048 0.192,-0.048c0.101,0 0.187,0.031 0.258,0.093Z" style="fill:rgb(24,161,149);fill-rule:nonzero;"/>    </g></svg>