<?xml version="1.0" encoding="UTF-8" standalone="no"?><!DOCTYPE svg PUBLIC "-//W3C//DTD SVG 1.1//EN" "http://www.w3.org/Graphics/SVG/1.1/DTD/svg11.dtd"><svg width="100%" height="100%" viewBox="0 0 512 512" version="1.1" xmlns="http://www.w3.org/2000/svg" xmlns:xlink="http://www.w3.org/1999/xlink" xml:space="preserve" style="fill-rule:evenodd;clip-rule:evenodd;stroke-linejoin:round;stroke-miterlimit:2;"><title>Brickstarter</title><desc>With Brickstarter you will make the most profitable and secured investment. It is the most profitable as we focus on vacation rental properties which are the most profitable kind of assets, and it is 100% secure as there is always a real estate asset as your investment collateral. You will receive monthly payments based on the performance of your property, with no outstanding payments.</desc>    <g transform="matrix(16.1498,0,0,16.1207,4.00456,0.996207)">        <path id="Fill-1" d="M30.631,20.954l-14.192,10.409c-0.497,0.365 -1.173,0.365 -1.671,0l-14.191,-10.409c-0.77,-0.565 -0.77,-1.713 0,-2.278l14.191,-10.408c0.498,-0.365 1.174,-0.365 1.671,0l14.192,10.408c0.769,0.565 0.769,1.713 0,2.278" style="fill:rgb(123,62,236);"/>        <path id="Fill-4" d="M30.631,12.96l-14.192,10.409c-0.497,0.364 -1.173,0.364 -1.671,0l-14.191,-10.409c-0.77,-0.565 -0.77,-1.712 0,-2.277l14.191,-10.41c0.498,-0.364 1.174,-0.364 1.671,0l14.192,10.41c0.769,0.565 0.769,1.712 0,2.277" style="fill:rgb(54,215,180);"/>    </g></svg>