<?xml version="1.0" encoding="UTF-8" standalone="no"?><!DOCTYPE svg PUBLIC "-//W3C//DTD SVG 1.1//EN" "http://www.w3.org/Graphics/SVG/1.1/DTD/svg11.dtd"><svg width="100%" height="100%" viewBox="0 0 512 512" version="1.1" xmlns="http://www.w3.org/2000/svg" xmlns:xlink="http://www.w3.org/1999/xlink" xml:space="preserve" style="fill-rule:evenodd;clip-rule:evenodd;stroke-linejoin:round;stroke-miterlimit:2;"><title>Lenndy</title><desc>Lenndy is a peer-to-peer lending marketplace, where investors can invest in loans by buying out prior issued loan rights. </desc>    <g id="_61ff787b-fafb-4700-bf85-2cd58a79b8dc" transform="matrix(4.63636,0,0,4.63636,-40.82,-40.7273)">        <path id="dfb8f8a9-3e4f-4739-8e96-733efc09c06d" d="M106.17,30.19l-43.95,-21.19l0,110l44,0l-0.05,-88.81Zm-39.43,80.74l0,-86.41l35.92,15.6l0,73.75l-35.92,-2.94Z" style="fill:rgb(83,181,75);fill-rule:nonzero;"/>        <path id="_8ba64a69-7d9e-4d94-b266-0bba68581d33" d="M69.04,34.25l27.28,11.53" style="fill:none;fill-rule:nonzero;"/>        <g id="a1cbe12d-b8ee-4c3c-85cb-08571797b46f" transform="matrix(0.215686,0,0,0.215686,8.80431,8.78431)">            <path d="M297.31,277.605l-18.035,-7.557l0,-14.465l18.035,7.557l0,14.465Zm21.745,-18.591l-18.036,-7.558l0,-14.419l18.036,7.558l0,14.419Zm-21.745,-9.18l-18.035,-7.558l0,-14.465l18.035,7.557l0,14.466Zm43.489,-9.459l-18.035,-7.557l0,-14.465l18.035,7.603l0,14.419Zm-21.744,-9.319l-18.036,-7.603l0,-14.419l18.036,7.557l0,14.465Zm43.489,-7.603l-18.036,-7.558l0,-14.465l18.036,7.557l0,14.466Zm-65.234,-1.623l-18.035,-7.557l0,-14.419l18.035,7.557l0,14.419Zm43.489,-7.743l-18.035,-7.557l0,-14.419l18.035,7.557l0,14.419Zm-21.744,-9.319l-18.036,-7.557l0,-14.466l18.036,7.558l0,14.465Zm65.233,-0.278l-17.989,-7.557l0,-14.466l17.989,7.558l0,14.465Zm-21.744,-8.902l-18.036,-7.603l0,-14.42l18.036,7.558l0,14.465Zm-65.234,0l-18.035,-7.603l0,-14.42l18.035,7.558l0,14.465Zm43.489,-9.365l-18.035,-7.558l0,-14.465l18.035,7.557l0,14.466Zm65.28,-0.139l-18.035,-7.558l0,-14.465l18.035,7.557l0,14.466Zm-21.791,-9.18l-17.989,-7.558l0,-14.465l17.989,7.557l0,14.466Zm-65.233,-0.047l-18.036,-7.557l0,-14.419l18.036,7.557l0,14.419Zm43.489,-8.855l-18.036,-7.604l0,-14.419l18.036,7.557l0,14.466Zm-65.234,-0.325l-18.035,-7.557l0,-14.465l18.035,7.603l0,14.419Zm130.514,-0.324l-18.036,-7.604l0,-14.419l18.036,7.557l0,14.466Zm-87.025,-8.717l-18.035,-7.557l0,-14.465l18.035,7.557l0,14.465Zm65.28,-0.556l-18.035,-7.557l0,-14.419l18.035,7.557l0,14.419Zm-87.024,-8.809l-18.036,-7.557l0,-14.419l18.036,7.557l0,14.419Zm65.233,-0.371l-17.989,-7.557l0,-14.419l17.989,7.557l0,14.419Zm-86.978,-8.809l-18.035,-7.557l0,-14.466l18.035,7.557l0,14.466Zm65.234,-0.093l-18.036,-7.557l0,-14.466l18.036,7.558l0,14.465Zm-21.745,-9.365l-18.035,-7.558l0,-14.419l18.035,7.558l0,14.419Zm-21.744,-9.319l-18.036,-7.604l0,-14.419l18.036,7.557l0,14.466Zm-21.745,-9.227l-18.035,-7.557l0,-14.419l18.035,7.557l0,14.419Z" style="fill:rgb(209,210,212);fill-rule:nonzero;"/>        </g>        <path id="e7774a85-ba64-46eb-96fa-e6771a9241a0" d="M21.82,60.62l0,58.38l35.18,0l0,-70.28l-35.18,11.9Zm31.77,51.24l-29,3.27l0,-46.5l29,-9.17l0,52.4Z" style="fill:rgb(83,181,75);fill-rule:nonzero;"/>        <g id="_67f83424-ef05-42ce-bd38-4d68b1ce38e6" transform="matrix(0.215686,0,0,0.215686,8.80431,8.78431)">            <path d="M186.037,366.902l12.008,-4.034l0,-8.531l-12.008,4.08l0,8.485Zm-13.909,-12.565l12.008,-4.08l0,-8.484l-12.008,4.08l0,8.484Zm13.909,-4.636l12.008,-4.08l0,-8.485l-12.008,4.034l0,8.531Zm-27.818,-8.902l12.008,-4.08l0,-8.484l-12.008,4.033l0,8.531Zm13.909,-4.729l12.008,-4.08l0,-8.485l-12.008,4.034l0,8.531Zm13.909,-4.636l12.008,-4.08l0,-8.485l-12.008,4.034l0,8.531Zm-41.727,-2.689l12.008,-4.034l0,-8.531l-12.008,4.08l0,8.485Zm13.909,-4.451l12.008,-4.08l0,-8.531l-12.008,4.08l0,8.531Zm13.909,-4.729l12.008,-4.08l0,-8.485l-12.008,4.034l0,8.531Zm-41.727,-4.08l12.008,-4.034l0,-8.531l-12.008,4.08l0,8.485Zm55.636,-0.557l12.008,-4.08l0,-8.531l-12.008,4.08l0,8.531Zm-41.727,-4.08l12.008,-4.08l0,-8.484l-12.008,4.033l0,8.531Zm13.909,-4.497l12.008,-4.034l0,-8.531l-12.008,4.08l0,8.485Zm-41.727,-4.034l12.008,-4.033l0,-8.531l-12.008,4.08l0,8.484Zm55.636,-0.695l12.008,-4.034l0,-8.531l-12.008,4.08l0,8.485Zm-41.727,-4.034l12.008,-4.08l0,-8.484l-12.008,4.033l0,8.531Zm55.636,-0.603l12.008,-4.033l0,-8.531l-12.008,4.08l0,8.484Zm-41.727,-4.033l12.008,-4.08l0,-8.531l-12.008,4.08l0,8.531Zm-41.727,-4.034l12.008,-4.08l0,-8.484l-12.008,4.033l0,8.531Zm55.636,-0.463l12.008,-4.08l0,-8.485l-12.008,4.034l0,8.531Zm-41.727,-4.034l12.008,-4.08l0,-8.485l-12.008,4.08l0,8.485Zm55.636,-0.696l12.008,-4.033l0,-8.531l-12.008,4.034l0,8.53Zm-41.727,-4.033l12.008,-4.08l0,-8.531l-12.008,4.08l0,8.531Zm55.636,-0.603l12.008,-4.08l0,-8.484l-12.008,4.033l0,8.531Zm-41.727,-4.08l12.008,-4.034l0,-8.53l-12.008,4.08l0,8.484Zm13.909,-4.451l12.008,-4.08l0,-8.531l-12.008,4.08l0,8.531Zm13.909,-4.729l12.008,-4.08l0,-8.484l-12.008,4.033l0,8.531Zm13.909,-4.636l12.008,-4.08l0,-8.531l-12.008,4.08l0,8.531Z" style="fill:rgb(209,210,212);fill-rule:nonzero;"/>        </g>    </g></svg>