<?xml version="1.0" encoding="UTF-8" standalone="no"?><!DOCTYPE svg PUBLIC "-//W3C//DTD SVG 1.1//EN" "http://www.w3.org/Graphics/SVG/1.1/DTD/svg11.dtd"><svg width="100%" height="100%" viewBox="0 0 512 512" version="1.1" xmlns="http://www.w3.org/2000/svg" xmlns:xlink="http://www.w3.org/1999/xlink" xml:space="preserve" style="fill-rule:evenodd;clip-rule:evenodd;stroke-linejoin:round;stroke-miterlimit:2;"><title>Crowd For Angels</title><desc>Established in 2014, Crowd for Angels is a leading UK crowdfunding platform that raises funds for companies through the issue of shares (equity), crowd bonds (debt) and digitalised assets (cryptocurrency) to investors. Based in the heart of the City of London, we are authorised and regulated by the Financial Conduct Authority (FCA).</desc>    <g id="Layer-1" transform="matrix(3.53122,0,0,3.53122,-112.25,-79.3997)">        <g>            <g transform="matrix(1,0,0,1,99.7783,61.0563)">                <path d="M0,61.071c-3.992,-9.289 -11.094,-15.615 -19.583,-20.65c-6.15,-3.646 -12.666,-6.575 -19.021,-9.816c-6.766,-3.456 -13.369,-7.174 -18.785,-12.629c-4.813,-4.847 -8.428,-10.409 -9.875,-17.2c-0.041,-0.184 -0.047,-0.378 0.159,-0.776c0.06,0.15 0.106,0.303 0.179,0.446c3.918,7.863 10.3,13.265 17.696,17.632c6.403,3.787 13.246,6.699 19.91,9.965c6.467,3.169 12.787,6.581 18.141,11.517c6.169,5.688 10.044,12.629 11.424,20.931c0.09,0.265 0.262,0.565 -0.245,0.58" style="fill:rgb(27,121,166);"/>            </g>            <g transform="matrix(1,0,0,1,74.9141,73.8469)">                <path d="M0,29.608c-20.009,2.115 -36.776,-12.151 -42.356,-31.723c10.47,15.249 24.495,25.78 42.356,31.723" style="fill:rgb(27,121,166);"/>            </g>            <g transform="matrix(0.471819,-0.881695,-0.881695,-0.471819,73.8047,87.3786)">                <path d="M-18.506,-13.465c-11.372,10.743 -12.708,32.331 0.117,46.545c0.665,-0.563 0.07,-1.078 -0.117,-1.536c-3.019,-7.381 -4.525,-15.052 -4.379,-23.021c0.138,-7.488 1.717,-14.709 4.379,-21.988" style="fill:rgb(27,121,166);"/>            </g>            <g transform="matrix(1,0,0,1,77.7144,110.143)">                <path d="M0,6.558c-12.596,6.257 -28.993,-1.56 -35.728,-12.431c0.649,-0.384 1.109,0.126 1.579,0.379c4.227,2.319 8.399,4.738 12.666,6.984c6.507,3.424 13.392,5.425 20.839,5.034c0.171,-0.009 0.344,0.017 0.644,0.034" style="fill:rgb(27,121,166);"/>            </g>            <g transform="matrix(-0.758819,0.651301,0.651301,0.758819,80.6427,124.658)">                <path d="M8.516,-13.315c-2.003,10.551 -2.783,12.013 -6.896,13.034c2.313,2.188 5.043,1.948 6.896,-0.599c1.459,-2 2.243,-4.283 2.519,-6.696c0.264,-2.262 -0.757,-4.109 -2.519,-5.739" style="fill:rgb(27,121,166);"/>            </g>        </g>        <g transform="matrix(1,0,0,1,-109.564,0)">            <g transform="matrix(1,0,0,1,218.342,60.8657)">                <path d="M0,59.223c1.221,-7.193 4.35,-13.434 9.354,-18.734c5.053,-5.347 11.243,-9.071 17.758,-12.298c5.612,-2.78 11.318,-5.38 16.895,-8.223c9.45,-4.815 18.076,-10.608 23.118,-20.581c0.272,1.217 0.196,1.701 -0.584,3.787c-2.993,8.014 -8.358,14.12 -15.25,19.013c-6.208,4.404 -13.059,7.631 -19.845,10.981c-7.537,3.722 -15.028,7.501 -21.351,13.192c-4.219,3.801 -7.526,8.259 -9.817,13.463c-0.548,0.013 -0.357,-0.319 -0.278,-0.6" style="fill:rgb(27,121,166);"/>            </g>            <g transform="matrix(1,0,0,1,285.641,102.977)">                <path d="M0,-32.066c-2.513,8.243 -6.718,15.477 -13.037,21.407c-7.808,7.328 -17.47,10.659 -29.022,9.942c17.403,-5.902 31.431,-16.276 42.059,-31.349" style="fill:rgb(27,121,166);"/>            </g>            <g transform="matrix(1,0,0,1,241.661,91.6062)">                <path d="M0,17.255c16.402,-2.444 30.225,-9.497 40.724,-23.001c-2.907,12.326 -20.049,28.747 -40.724,23.001" style="fill:rgb(27,121,166);"/>            </g>            <g transform="matrix(1,0,0,1,242.186,105.427)">                <path d="M0,10.024c6.607,0.139 12.763,-1.598 18.663,-4.441c4.53,-2.179 8.717,-4.956 13.164,-7.275c0.8,-0.42 1.629,-0.794 2.521,-1.227c-1.58,4.18 -9.091,10.407 -15.585,13.029c-6.695,2.702 -13.401,2.833 -20.144,0.193c0.322,-0.783 0.906,-0.256 1.381,-0.279" style="fill:rgb(27,121,166);"/>            </g>            <g transform="matrix(1,0,0,1,252.876,129.146)">                <path d="M0,-10.422c0.284,3.226 -0.72,5.604 -3.316,7.262c-1.305,0.836 -2.621,1.614 -4.11,2.084c-3.422,1.076 -5.571,-0.151 -6.441,-3.831c3.923,2.092 6.953,0.115 9.884,-2.086c1.34,-1.004 2.547,-2.184 3.983,-3.429" style="fill:rgb(27,121,166);"/>            </g>        </g>    </g></svg>