<?xml version="1.0" encoding="UTF-8" standalone="no"?><!DOCTYPE svg PUBLIC "-//W3C//DTD SVG 1.1//EN" "http://www.w3.org/Graphics/SVG/1.1/DTD/svg11.dtd"><svg width="100%" height="100%" viewBox="0 0 512 512" version="1.1" xmlns="http://www.w3.org/2000/svg" xmlns:xlink="http://www.w3.org/1999/xlink" xml:space="preserve" style="fill-rule:evenodd;clip-rule:evenodd;stroke-linejoin:round;stroke-miterlimit:2;"><title>Tributile</title><desc>Crowdfunding platform dedicated to business financing. Individuals lend to businesses and receive interest The rise of crowdfunding is a new opportunity for individuals to boost their savings. Likewise, companies have access to an innovative financing method that will translate into Tributile much more than money.</desc>    <g transform="matrix(34.6455,0,0,34.6455,-17850.2,-26528.9)">        <g transform="matrix(0.0466393,0,0,0.0466393,510.673,765.708)">            <path d="M213.968,316.625l0,-163.125c0,-21.25 11.293,-31.25 32.624,-31.25c20.077,0 32.625,1.25 36.389,2.5c11.293,5 16.313,13.75 16.313,28.75l0,163.125l-85.326,0Z" style="fill:rgb(26,104,129);fill-rule:nonzero;"/>        </g>        <g transform="matrix(0.0585226,0,0,-0.0582992,525.217,767.796)">            <path d="M0,0c0,-11 -5,-20 -15,-27c-8,-5 -18,-8 -30,-8c-12,0 -22,3 -30,8c-9,7 -14,16 -14,27c0,11 5,20 14,26c8,6 18,9 30,9c12,0 22,-3 30,-9c10,-6 15,-15 15,-26" style="fill:rgb(237,28,36);fill-rule:nonzero;"/>        </g>    </g></svg>