<?xml version="1.0" encoding="UTF-8" standalone="no"?><!DOCTYPE svg PUBLIC "-//W3C//DTD SVG 1.1//EN" "http://www.w3.org/Graphics/SVG/1.1/DTD/svg11.dtd"><svg width="100%" height="100%" viewBox="0 0 512 512" version="1.1" xmlns="http://www.w3.org/2000/svg" xmlns:xlink="http://www.w3.org/1999/xlink" xml:space="preserve" style="fill-rule:evenodd;clip-rule:evenodd;stroke-linejoin:round;stroke-miterlimit:2;"><title>More Lending</title><desc>More Lending is bringing transparency and openness to business lending, and giving UK businesses access to credit when traditional financial institutions so often don’t. This requirement for credit gives consumers an opportunity to invest in UK businesses by lending to them in a simple and easy to use online platform.</desc>    <g transform="matrix(1.34647,0,0,1.34647,-1402.91,-415.62)">        <g transform="matrix(1,0,0,1,363.642,0)">            <path d="M978.544,564.011c-23.76,-42.708 -93.095,-161.661 -99.329,-172.594c-18.729,-32.848 -32.124,-57.284 -80.232,-57.284c-19.118,0 -35.072,7.911 -49.446,18.362c32.599,-25.876 72.083,-43.078 116.884,-43.078c102.672,0 186.531,81.19 190.823,182.826c-6.743,41.419 -35.389,71.768 -78.7,71.768Z" style="fill:url(#_Linear1);"/>        </g>        <g transform="matrix(1.72713,0,0,1.72713,1039.76,56.6579)">            <path d="M47.953,292.747c28.293,0.45 107.128,0.25 114.415,0.289c21.893,0.119 38.024,0.476 51.951,-23.646c5.534,-9.587 5.811,-21.327 4.731,-31.559c3.538,23.837 1.108,50.065 -11.862,72.529c-29.723,51.482 -94.711,70.027 -146.916,42.756c-18.816,-15.372 -24.858,-38.651 -12.319,-60.369Z" style="fill:url(#_Linear2);"/>        </g>        <g transform="matrix(1.74604,0,0,1.74604,1011.1,113.583)">            <path d="M126.897,148.927c-14.379,24.014 -53.202,91.235 -56.84,97.457c-10.929,18.696 -19.213,32.338 -5.437,56.199c5.475,9.482 10.032,13.733 19.331,17.869c-22.169,-8.759 -38.072,-22.019 -50.901,-44.24c-29.402,-50.925 -13.146,-115.768 36.036,-147.002c22.474,-8.516 47.643,-3.068 57.811,19.717Z" style="fill:url(#_Linear3);"/>        </g>    </g>    <defs>        <linearGradient id="_Linear1" x1="0" y1="0" x2="1" y2="0" gradientUnits="userSpaceOnUse" gradientTransform="matrix(138.483,202.984,-202.984,138.483,879.411,336.395)"><stop offset="0" style="stop-color:rgb(227,238,249);stop-opacity:1"/><stop offset="1" style="stop-color:rgb(139,146,152);stop-opacity:1"/></linearGradient>        <linearGradient id="_Linear2" x1="0" y1="0" x2="1" y2="0" gradientUnits="userSpaceOnUse" gradientTransform="matrix(131.475,0,0,131.475,55.7598,325.158)"><stop offset="0" style="stop-color:rgb(12,15,24);stop-opacity:1"/><stop offset="1" style="stop-color:rgb(52,62,102);stop-opacity:1"/></linearGradient>        <linearGradient id="_Linear3" x1="0" y1="0" x2="1" y2="-0.421088" gradientUnits="userSpaceOnUse" gradientTransform="matrix(-53.6663,144.93,-207.611,58.1957,99.9615,146.272)"><stop offset="0" style="stop-color:rgb(141,54,7);stop-opacity:1"/><stop offset="1" style="stop-color:rgb(234,89,13);stop-opacity:1"/></linearGradient>    </defs></svg>