<?xml version="1.0" encoding="UTF-8" standalone="no"?><!DOCTYPE svg PUBLIC "-//W3C//DTD SVG 1.1//EN" "http://www.w3.org/Graphics/SVG/1.1/DTD/svg11.dtd"><svg width="100%" height="100%" viewBox="0 0 512 512" version="1.1" xmlns="http://www.w3.org/2000/svg" xmlns:xlink="http://www.w3.org/1999/xlink" xml:space="preserve" style="fill-rule:evenodd;clip-rule:evenodd;stroke-linejoin:round;stroke-miterlimit:2;"><title>Lainaaja</title><desc>We are the first Finnish person-to-person lending company. P2P-lending a disrupting technology that enables customers to make loans between themselves and cutting banks out of the equation. Our goal is to give our customers an alternative to expensive consumer loans and chance to make high yielding investment.</desc>    <g transform="matrix(7.41122,0,0,12.1921,-799.263,-278.913)">        <g transform="matrix(1.07274,0,0,0.652087,77.0875,5.1081)">            <circle cx="60.872" cy="59.449" r="29.586" style="fill:rgb(27,108,137);"/>        </g>        <g transform="matrix(0.804411,0,0,0.488978,93.4212,14.8047)">            <circle cx="60.872" cy="59.449" r="29.586" style="fill:rgb(245,245,243);"/>        </g>        <g transform="matrix(1,0,0,1,17.4405,32.6637)">            <g transform="matrix(0.6526,0,0,0.588469,87.8124,-12.6375)">                <path d="M77.836,42.717c0,-0.992 -1.195,-1.798 -2.667,-1.798l-36.534,0c-1.472,0 -2.667,0.806 -2.667,1.798l0,9.028c0,0.992 1.195,1.798 2.667,1.798l36.534,0c1.472,0 2.667,-0.806 2.667,-1.798l0,-9.028Z" style="fill:rgb(62,153,172);"/>            </g>            <g transform="matrix(0.667377,0,0,0.405679,50.1381,-10.8281)">                <path d="M101.002,40.919l0,-3.438c0,-1.126 0.914,-2.041 2.041,-2.041l18.101,0c1.127,0 2.041,0.915 2.041,2.041l0,3.438l8.623,0c1.239,0 2.245,1.006 2.245,2.246l0,11.276c0,1.239 -1.006,2.245 -2.245,2.245l-39.429,0c-1.239,0 -2.245,-1.006 -2.245,-2.245l0,-11.276c0,-1.24 1.006,-2.246 2.245,-2.246l8.623,0Zm19.394,0l0,-0.848c0,-1.297 -1.052,-2.349 -2.349,-2.349l-11.907,0c-1.297,0 -2.349,1.052 -2.349,2.349l0,0.848l16.605,0Z" style="fill:rgb(27,108,137);"/>            </g>            <g transform="matrix(0.667377,0,0,0.405679,86.0718,-10.7602)">                <path d="M60.985,54.968c0,-1.303 -1.058,-2.361 -2.36,-2.361l-0.749,0c-1.303,0 -2.36,1.058 -2.36,2.361l0,3.691c0,1.303 1.057,2.361 2.36,2.361l0.749,0c1.302,0 2.36,-1.058 2.36,-2.361l0,-3.691Z" style="fill:rgb(163,158,162);"/>            </g>        </g>        <g transform="matrix(1.07274,0,0,0.652087,77.0875,5.1081)">            <path d="M60.872,27.374c-17.702,0 -32.074,14.372 -32.074,32.075c0,17.702 14.372,32.074 32.074,32.074c17.702,0 32.074,-14.372 32.074,-32.074c0,-17.703 -14.372,-32.075 -32.074,-32.075Zm0,2.489c16.329,0 29.586,13.257 29.586,29.586c0,16.328 -13.257,29.585 -29.586,29.585c-16.329,0 -29.586,-13.257 -29.586,-29.585c0,-16.329 13.257,-29.586 29.586,-29.586Z" style="fill:rgb(163,158,162);"/>        </g>    </g></svg>