<?xml version="1.0" encoding="UTF-8" standalone="no"?><!DOCTYPE svg PUBLIC "-//W3C//DTD SVG 1.1//EN" "http://www.w3.org/Graphics/SVG/1.1/DTD/svg11.dtd"><svg width="100%" height="100%" viewBox="0 0 512 512" version="1.1" xmlns="http://www.w3.org/2000/svg" xmlns:xlink="http://www.w3.org/1999/xlink" xml:space="preserve" style="fill-rule:evenodd;clip-rule:evenodd;stroke-linejoin:round;stroke-miterlimit:2;"><title>Downing</title><desc>At Downing, we aim to make a difference in the lives of our investment community. We design investment products that help investors look after their financial wellbeing, while our investment partnerships support businesses in their ambitions.In uniting the two, we build lasting relationships that become the foundation of our investment community. And in our openness to learn how to develop these we continue to evolve. We value flexibility, transparency and integrity in everything we do.</desc>    <g id="LogoAW" transform="matrix(3.57068,0,0,3.57068,-1295.91,1)">        <path d="M465.55,107.12l0,35.71l-30.92,-17.85l-30.93,-17.86l30.93,-17.85l30.92,-17.85l0,35.7Z" style="fill:url(#_Linear1);fill-rule:nonzero;"/>        <path d="M465.55,121.41l0,7.14l-6.18,-3.57l-6.19,-3.57l6.19,-3.57l6.18,-3.57l0,7.14Z" style="fill:rgb(41,177,155);fill-rule:nonzero;"/>        <path d="M465.55,107.12l0,7.15l-6.18,-3.58l-6.19,-3.57l6.19,-3.57l6.18,-3.57l0,7.14Z" style="fill:rgb(59,176,140);fill-rule:nonzero;"/>        <path d="M465.55,92.84l0,7.14l-6.18,-3.57l-6.19,-3.57l6.19,-3.57l6.18,-3.57l0,7.14Z" style="fill:rgb(94,181,118);fill-rule:nonzero;"/>        <path d="M465.55,78.56l0,7.14l-6.18,-3.57l-6.19,-3.57l6.19,-3.57l6.18,-3.57l0,7.14Z" style="fill:rgb(110,183,94);fill-rule:nonzero;"/>        <path d="M453.18,128.55l0,7.14l-6.18,-3.57l-6.19,-3.57l6.19,-3.57l6.18,-3.57l0,7.14Z" style="fill:rgb(32,175,152);fill-rule:nonzero;"/>        <path d="M453.18,114.27l0,7.14l-6.18,-3.57l-6.19,-3.57l6.19,-3.58l6.18,-3.57l0,7.15Z" style="fill:rgb(52,177,144);fill-rule:nonzero;"/>        <path d="M453.18,99.98l0,7.14l-6.18,-3.57l-6.19,-3.57l6.19,-3.57l6.18,-3.57l0,7.14Z" style="fill:rgb(76,178,123);fill-rule:nonzero;"/>        <path d="M453.18,85.7l0,7.14l-6.18,-3.57l-6.19,-3.57l6.19,-3.57l6.18,-3.57l0,7.14Z" style="fill:rgb(97,180,90);fill-rule:nonzero;"/>        <path d="M453.18,85.7l0,-7.14l6.19,3.57l6.18,3.57l-6.18,3.57l-6.19,3.57l0,-7.14Z" style="fill:rgb(114,185,108);fill-rule:nonzero;"/>        <path d="M453.18,99.98l0,-7.14l6.19,3.57l6.18,3.57l-6.18,3.57l-6.19,3.57l0,-7.14Z" style="fill:rgb(96,182,128);fill-rule:nonzero;"/>        <path d="M453.18,114.27l0,-7.15l6.19,3.57l6.18,3.58l-6.18,3.57l-6.19,3.57l0,-7.14Z" style="fill:rgb(71,178,138);fill-rule:nonzero;"/>        <path d="M453.18,128.55l0,-7.14l6.19,3.57l6.18,3.57l-6.18,3.57l-6.19,3.57l0,-7.14Z" style="fill:rgb(58,178,148);fill-rule:nonzero;"/>        <path d="M440.81,121.41l0,7.14l-6.18,-3.57l-6.19,-3.57l6.19,-3.57l6.18,-3.57l0,7.14Z" style="fill:rgb(64,178,145);fill-rule:nonzero;"/>        <path d="M440.81,107.12l0,7.15l-6.18,-3.58l-6.19,-3.57l6.19,-3.57l6.18,-3.57l0,7.14Z" style="fill:rgb(79,179,122);fill-rule:nonzero;"/>        <path d="M440.81,92.84l0,7.14l-6.18,-3.57l-6.19,-3.57l6.19,-3.57l6.18,-3.57l0,7.14Z" style="fill:rgb(95,179,100);fill-rule:nonzero;"/>        <path d="M440.81,92.84l0,-7.14l6.19,3.57l6.18,3.57l-6.18,3.57l-6.19,3.57l0,-7.14Z" style="fill:rgb(107,183,108);fill-rule:nonzero;"/>        <path d="M440.81,107.12l0,-7.14l6.19,3.57l6.18,3.57l-6.18,3.57l-6.19,3.58l0,-7.15Z" style="fill:rgb(91,181,126);fill-rule:nonzero;"/>        <path d="M440.81,121.41l0,-7.14l6.19,3.57l6.18,3.57l-6.18,3.57l-6.19,3.57l0,-7.14Z" style="fill:rgb(74,179,141);fill-rule:nonzero;"/>        <path d="M428.44,114.27l0,7.14l-6.18,-3.57l-6.19,-3.57l6.19,-3.58l6.18,-3.57l0,7.15Z" style="fill:rgb(81,178,118);fill-rule:nonzero;"/>        <path d="M428.44,99.98l0,7.14l-6.18,-3.57l-6.19,-3.57l6.19,-3.57l6.18,-3.57l0,7.14Z" style="fill:rgb(87,177,101);fill-rule:nonzero;"/>        <path d="M428.44,99.98l0,-7.14l6.19,3.57l6.18,3.57l-6.18,3.57l-6.19,3.57l0,-7.14Z" style="fill:rgb(105,183,115);fill-rule:nonzero;"/>        <path d="M428.44,114.27l0,-7.15l6.19,3.57l6.18,3.58l-6.18,3.57l-6.19,3.57l0,-7.14Z" style="fill:rgb(95,183,131);fill-rule:nonzero;"/>        <path d="M416.07,107.12l0,7.15l-6.18,-3.58l-6.19,-3.57l6.19,-3.57l6.18,-3.57l0,7.14Z" style="fill:rgb(71,174,97);fill-rule:nonzero;"/>        <path d="M416.07,107.12l0,-7.14l6.19,3.57l6.18,3.57l-6.18,3.57l-6.19,3.58l0,-7.15Z" style="fill:rgb(98,181,111);fill-rule:nonzero;"/>        <path d="M465.55,135.69l0,7.14l-6.18,-3.57l-6.19,-3.57l6.19,-3.57l6.18,-3.57l0,7.14Z" style="fill:rgb(0,172,169);fill-rule:nonzero;"/>        <path d="M403.7,71.41l0,35.71l30.93,-17.85l30.92,-17.86l-30.92,-17.85l-30.93,-17.86l0,35.71Z" style="fill:url(#_Linear2);fill-rule:nonzero;"/>        <path d="M403.7,99.98l0,7.14l6.19,-3.57l6.18,-3.57l-6.18,-3.57l-6.19,-3.57l0,7.14Z" style="fill:rgb(0,90,77);fill-rule:nonzero;"/>        <path d="M403.7,85.7l0,7.14l6.19,-3.57l6.18,-3.57l-6.18,-3.57l-6.19,-3.57l0,7.14Z" style="fill:rgb(10,102,79);fill-rule:nonzero;"/>        <path d="M403.7,71.42l0,7.14l6.19,-3.57l6.18,-3.57l-6.18,-3.58l-6.19,-3.57l0,7.15Z" style="fill:rgb(25,130,74);fill-rule:nonzero;"/>        <path d="M403.7,57.13l0,7.14l6.19,-3.57l6.18,-3.57l-6.18,-3.57l-6.19,-3.57l0,7.14Z" style="fill:rgb(52,151,63);fill-rule:nonzero;"/>        <path d="M403.7,42.85l0,7.14l6.19,-3.57l6.18,-3.57l-6.18,-3.57l-6.19,-3.57l0,7.14Z" style="fill:rgb(87,173,50);fill-rule:nonzero;"/>        <path d="M416.07,92.84l0,7.14l6.19,-3.57l6.18,-3.57l-6.18,-3.57l-6.19,-3.57l0,7.14Z" style="fill:rgb(10,102,79);fill-rule:nonzero;"/>        <path d="M416.07,78.56l0,7.14l6.19,-3.57l6.18,-3.57l-6.18,-3.57l-6.19,-3.57l0,7.14Z" style="fill:rgb(26,130,74);fill-rule:nonzero;"/>        <path d="M416.07,64.27l0,7.15l6.19,-3.58l6.18,-3.57l-6.18,-3.57l-6.19,-3.57l0,7.14Z" style="fill:rgb(52,151,63);fill-rule:nonzero;"/>        <path d="M416.07,49.99l0,7.14l6.19,-3.57l6.18,-3.57l-6.18,-3.57l-6.19,-3.57l0,7.14Z" style="fill:rgb(87,173,50);fill-rule:nonzero;"/>        <path d="M416.07,49.99l0,-7.14l-6.18,3.57l-6.19,3.57l6.19,3.57l6.18,3.57l0,-7.14Z" style="fill:rgb(65,168,55);fill-rule:nonzero;"/>        <path d="M416.07,64.27l0,-7.14l-6.18,3.57l-6.19,3.57l6.19,3.57l6.18,3.58l0,-7.15Z" style="fill:rgb(44,144,66);fill-rule:nonzero;"/>        <path d="M416.07,78.56l0,-7.14l-6.18,3.57l-6.19,3.57l6.19,3.57l6.18,3.57l0,-7.14Z" style="fill:rgb(12,123,76);fill-rule:nonzero;"/>        <path d="M416.07,92.84l0,-7.14l-6.18,3.57l-6.19,3.57l6.19,3.57l6.18,3.57l0,-7.14Z" style="fill:rgb(9,107,78);fill-rule:nonzero;"/>        <path d="M428.44,85.7l0,7.14l6.19,-3.57l6.18,-3.57l-6.18,-3.57l-6.19,-3.57l0,7.14Z" style="fill:rgb(28,130,75);fill-rule:nonzero;"/>        <path d="M428.44,71.42l0,7.14l6.19,-3.57l6.18,-3.57l-6.18,-3.58l-6.19,-3.57l0,7.15Z" style="fill:rgb(52,151,63);fill-rule:nonzero;"/>        <path d="M428.44,57.13l0,7.14l6.19,-3.57l6.18,-3.57l-6.18,-3.57l-6.19,-3.57l0,7.14Z" style="fill:rgb(87,173,50);fill-rule:nonzero;"/>        <path d="M428.44,57.13l0,-7.14l-6.18,3.57l-6.19,3.57l6.19,3.57l6.18,3.57l0,-7.14Z" style="fill:rgb(65,168,55);fill-rule:nonzero;"/>        <path d="M428.44,71.42l0,-7.15l-6.18,3.57l-6.19,3.58l6.19,3.57l6.18,3.57l0,-7.14Z" style="fill:rgb(44,144,66);fill-rule:nonzero;"/>        <path d="M428.44,85.7l0,-7.14l-6.18,3.57l-6.19,3.57l6.19,3.57l6.18,3.57l0,-7.14Z" style="fill:rgb(21,127,77);fill-rule:nonzero;"/>        <path d="M440.81,78.56l0,7.14l6.19,-3.57l6.18,-3.57l-6.18,-3.57l-6.19,-3.57l0,7.14Z" style="fill:rgb(52,151,63);fill-rule:nonzero;"/>        <path d="M440.81,64.27l0,7.15l6.19,-3.58l6.18,-3.57l-6.18,-3.57l-6.19,-3.57l0,7.14Z" style="fill:rgb(71,171,54);fill-rule:nonzero;"/>        <path d="M440.81,64.27l0,-7.14l-6.18,3.57l-6.19,3.57l6.19,3.57l6.18,3.58l0,-7.15Z" style="fill:rgb(65,168,55);fill-rule:nonzero;"/>        <path d="M440.81,78.56l0,-7.14l-6.18,3.57l-6.19,3.57l6.19,3.57l6.18,3.57l0,-7.14Z" style="fill:rgb(44,144,66);fill-rule:nonzero;"/>        <path d="M453.18,71.42l0,7.14l6.19,-3.57l6.18,-3.57l-6.18,-3.58l-6.19,-3.57l0,7.15Z" style="fill:rgb(63,157,54);fill-rule:nonzero;"/>        <path d="M453.18,71.42l0,-7.15l-6.18,3.57l-6.19,3.58l6.19,3.57l6.18,3.57l0,-7.14Z" style="fill:rgb(66,164,54);fill-rule:nonzero;"/>        <path d="M465.55,35.71l0,35.71l-30.92,-17.86l-30.93,-17.85l30.93,-17.86l30.92,-17.85l0,35.71Z" style="fill:url(#_Linear3);fill-rule:nonzero;"/>        <path d="M465.55,64.27l0,7.15l-6.18,-3.58l-6.19,-3.57l6.19,-3.57l6.18,-3.57l0,7.14Z" style="fill:rgb(124,184,63);fill-rule:nonzero;"/>        <path d="M465.55,49.99l0,7.14l-6.18,-3.57l-6.19,-3.57l6.19,-3.57l6.18,-3.57l0,7.14Z" style="fill:rgb(123,184,59);fill-rule:nonzero;"/>        <path d="M465.55,35.71l0,7.14l-6.18,-3.57l-6.19,-3.57l6.19,-3.57l6.18,-3.57l0,7.14Z" style="fill:rgb(123,184,56);fill-rule:nonzero;"/>        <path d="M465.55,21.43l0,7.14l-6.18,-3.57l-6.19,-3.57l6.19,-3.58l6.18,-3.57l0,7.15Z" style="fill:rgb(125,184,48);fill-rule:nonzero;"/>        <path d="M465.55,7.14l0,7.14l-6.18,-3.57l-6.19,-3.57l6.19,-3.57l6.18,-3.57l0,7.14Z" style="fill:rgb(127,185,46);fill-rule:nonzero;"/>        <path d="M453.18,57.13l0,7.14l-6.18,-3.57l-6.19,-3.57l6.19,-3.57l6.18,-3.57l0,7.14Z" style="fill:rgb(146,190,48);fill-rule:nonzero;"/>        <path d="M453.18,42.85l0,7.14l-6.18,-3.57l-6.19,-3.57l6.19,-3.57l6.18,-3.57l0,7.14Z" style="fill:rgb(150,190,49);fill-rule:nonzero;"/>        <path d="M453.18,28.57l0,7.14l-6.18,-3.57l-6.19,-3.57l6.19,-3.57l6.18,-3.57l0,7.14Z" style="fill:rgb(146,190,48);fill-rule:nonzero;"/>        <path d="M453.18,14.28l0,7.15l-6.18,-3.58l-6.19,-3.57l6.19,-3.57l6.18,-3.57l0,7.14Z" style="fill:rgb(160,194,45);fill-rule:nonzero;"/>        <path d="M453.18,14.28l0,-7.14l6.19,3.57l6.18,3.57l-6.18,3.57l-6.19,3.58l0,-7.15Z" style="fill:rgb(139,189,55);fill-rule:nonzero;"/>        <path d="M453.18,28.57l0,-7.14l6.19,3.57l6.18,3.57l-6.18,3.57l-6.19,3.57l0,-7.14Z" style="fill:rgb(140,188,49);fill-rule:nonzero;"/>        <path d="M453.18,42.85l0,-7.14l6.19,3.57l6.18,3.57l-6.18,3.57l-6.19,3.57l0,-7.14Z" style="fill:rgb(135,186,49);fill-rule:nonzero;"/>        <path d="M453.18,57.13l0,-7.14l6.19,3.57l6.18,3.57l-6.18,3.57l-6.19,3.57l0,-7.14Z" style="fill:rgb(138,188,61);fill-rule:nonzero;"/>        <path d="M440.81,49.99l0,7.14l-6.18,-3.57l-6.19,-3.57l6.19,-3.57l6.18,-3.57l0,7.14Z" style="fill:rgb(177,200,55);fill-rule:nonzero;"/>        <path d="M440.81,35.71l0,7.14l-6.18,-3.57l-6.19,-3.57l6.19,-3.57l6.18,-3.57l0,7.14Z" style="fill:rgb(188,203,53);fill-rule:nonzero;"/>        <path d="M440.81,21.43l0,7.14l-6.18,-3.57l-6.19,-3.57l6.19,-3.58l6.18,-3.57l0,7.15Z" style="fill:rgb(179,201,55);fill-rule:nonzero;"/>        <path d="M440.81,21.43l0,-7.15l6.19,3.57l6.18,3.58l-6.18,3.57l-6.19,3.57l0,-7.14Z" style="fill:rgb(160,195,53);fill-rule:nonzero;"/>        <path d="M440.81,35.71l0,-7.14l6.19,3.57l6.18,3.57l-6.18,3.57l-6.19,3.57l0,-7.14Z" style="fill:rgb(165,195,53);fill-rule:nonzero;"/>        <path d="M440.81,49.99l0,-7.14l6.19,3.57l6.18,3.57l-6.18,3.57l-6.19,3.57l0,-7.14Z" style="fill:rgb(167,196,53);fill-rule:nonzero;"/>        <path d="M428.44,42.85l0,7.14l-6.18,-3.57l-6.19,-3.57l6.19,-3.57l6.18,-3.57l0,7.14Z" style="fill:rgb(213,210,48);fill-rule:nonzero;"/>        <path d="M428.44,28.57l0,7.14l-6.18,-3.57l-6.19,-3.57l6.19,-3.57l6.18,-3.57l0,7.14Z" style="fill:rgb(214,210,48);fill-rule:nonzero;"/>        <path d="M428.44,28.57l0,-7.14l6.19,3.57l6.18,3.57l-6.18,3.57l-6.19,3.57l0,-7.14Z" style="fill:rgb(199,207,54);fill-rule:nonzero;"/>        <path d="M428.44,42.85l0,-7.14l6.19,3.57l6.18,3.57l-6.18,3.57l-6.19,3.57l0,-7.14Z" style="fill:rgb(204,209,58);fill-rule:nonzero;"/>        <path d="M416.07,35.71l0,7.14l-6.18,-3.57l-6.19,-3.57l6.19,-3.57l6.18,-3.57l0,7.14Z" style="fill:rgb(242,225,65);fill-rule:nonzero;"/>        <path d="M416.07,35.71l0,-7.14l6.19,3.57l6.18,3.57l-6.18,3.57l-6.19,3.57l0,-7.14Z" style="fill:rgb(218,213,59);fill-rule:nonzero;"/>    </g>    <defs>        <linearGradient id="_Linear1" x1="0" y1="0" x2="1" y2="0" gradientUnits="userSpaceOnUse" gradientTransform="matrix(-34.54,-57.99,57.99,-34.54,461.65,134.64)"><stop offset="0" style="stop-color:rgb(0,169,166);stop-opacity:1"/><stop offset="1" style="stop-color:rgb(71,171,53);stop-opacity:1"/></linearGradient>        <linearGradient id="_Linear2" x1="0" y1="0" x2="1" y2="0" gradientUnits="userSpaceOnUse" gradientTransform="matrix(24.35,-36.39,36.39,24.35,408.66,92.37)"><stop offset="0" style="stop-color:rgb(0,90,77);stop-opacity:1"/><stop offset="0.26" style="stop-color:rgb(27,121,68);stop-opacity:1"/><stop offset="0.55" style="stop-color:rgb(51,149,60);stop-opacity:1"/><stop offset="0.81" style="stop-color:rgb(66,165,55);stop-opacity:1"/><stop offset="1" style="stop-color:rgb(71,171,53);stop-opacity:1"/></linearGradient>        <linearGradient id="_Linear3" x1="0" y1="0" x2="1" y2="0" gradientUnits="userSpaceOnUse" gradientTransform="matrix(61.85,0,0,61.85,403.7,35.71)"><stop offset="0" style="stop-color:rgb(250,226,66);stop-opacity:1"/><stop offset="0.14" style="stop-color:rgb(241,223,64);stop-opacity:1"/><stop offset="0.36" style="stop-color:rgb(217,215,60);stop-opacity:1"/><stop offset="0.65" style="stop-color:rgb(178,202,53);stop-opacity:1"/><stop offset="0.97" style="stop-color:rgb(125,184,44);stop-opacity:1"/><stop offset="1" style="stop-color:rgb(120,182,43);stop-opacity:1"/></linearGradient>    </defs></svg>