<?xml version="1.0" encoding="UTF-8" standalone="no"?><!DOCTYPE svg PUBLIC "-//W3C//DTD SVG 1.1//EN" "http://www.w3.org/Graphics/SVG/1.1/DTD/svg11.dtd"><svg width="100%" height="100%" viewBox="0 0 512 512" version="1.1" xmlns="http://www.w3.org/2000/svg" xmlns:xlink="http://www.w3.org/1999/xlink" xml:space="preserve" style="fill-rule:evenodd;clip-rule:evenodd;stroke-linejoin:round;stroke-miterlimit:2;"><title>Welltrado</title><desc></desc>    <g transform="matrix(13.7837,0,0,13.7837,1.00135,0.938841)">        <path d="M37,4.627c0.001,0.989 -0.314,1.953 -0.9,2.75l-8.448,11.47c-0.694,0.947 -2.024,1.19 -3.007,0.549l-7.512,-4.883c-0.998,-0.65 -2.35,-0.388 -3.033,0.587l-5.421,7.658c-0.679,0.965 -2.014,1.231 -3.011,0.6l-3.525,-2.237c-1.334,-0.848 -2.144,-2.324 -2.143,-3.905l0,-12.589c0,-0.005 0,-0.011 0,-0.016c0,-2.518 2.068,-4.592 4.586,-4.6l27.827,0c2.519,0.007 4.587,2.081 4.587,4.6c0,0.005 0,0.011 0,0.016Z" style="fill:rgb(137,165,212);fill-rule:nonzero;"/>        <path d="M0,32.368l0,-4.657c0,-0.004 0,-0.008 0,-0.012c0,-0.815 0.671,-1.487 1.487,-1.487c0.283,0 0.561,0.081 0.8,0.234l4.413,2.842c0.997,0.644 2.343,0.382 3.026,-0.588l5.413,-7.659c0.684,-0.974 2.035,-1.234 3.032,-0.585l7.515,4.892c0.983,0.641 2.312,0.398 3.005,-0.549l5.626,-7.623c0.28,-0.379 0.724,-0.604 1.195,-0.604c0.815,0 1.485,0.671 1.485,1.485c0,0.007 0,0.013 0,0.019l0,14.3c0,0.007 0,0.015 0,0.022c0,2.517 -2.067,4.591 -4.584,4.6l-27.827,0c-2.518,-0.008 -4.586,-2.082 -4.586,-4.6c0,-0.01 0,-0.02 0,-0.03Z" style="fill:rgb(232,52,94);fill-rule:nonzero;"/>    </g></svg>