<?xml version="1.0" encoding="UTF-8" standalone="no"?><!DOCTYPE svg PUBLIC "-//W3C//DTD SVG 1.1//EN" "http://www.w3.org/Graphics/SVG/1.1/DTD/svg11.dtd"><svg width="100%" height="100%" viewBox="0 0 512 512" version="1.1" xmlns="http://www.w3.org/2000/svg" xmlns:xlink="http://www.w3.org/1999/xlink" xml:space="preserve" style="fill-rule:evenodd;clip-rule:evenodd;stroke-linejoin:round;stroke-miterlimit:2;"><title>Trufis</title><desc>Trufis is a peer-to-peer lending and borrowing marketplace where individual and institutional investors can lend money to individuals and business borrowers through our highly automated proprietary technology platform. At Trufis we are committed to provide highly competitive consumer finance and commercial products to our lenders and borrowers.Trufis technology platform aims to provide fast, secure and resilient marketplace to our customers so that they can lend and borrow through efficient use of technology.</desc>    <g transform="matrix(1.33059,0,0,1.33059,-29.1467,-0.576812)">        <path d="M89.464,180.541c0,0 9.934,67.113 -9.208,114.283c-20.753,51.14 -57.599,76.288 -57.599,76.288c0,0 183.897,12.539 275.266,-47.563c66.105,-43.482 95.606,-72.318 107.178,-169.825c8.888,-74.891 -55.335,-140.264 -55.335,-140.264c0,0 26.639,31.597 2.548,68.954c-9.49,14.716 -38.601,42.58 -129.915,71.994c-63.198,20.357 -132.935,26.133 -132.935,26.133Z" style="fill:url(#_Linear1);"/>        <path d="M346.97,20.885l-19.632,74.184c0,0 20.209,-13.107 25.647,-30.202c6.938,-21.815 -6.015,-43.982 -6.015,-43.982Z" style="fill:url(#_Linear2);"/>    </g>    <defs>        <linearGradient id="_Linear1" x1="0" y1="0" x2="1" y2="0" gradientUnits="userSpaceOnUse" gradientTransform="matrix(290.473,-312.426,312.426,290.473,73.9843,353.536)"><stop offset="0" style="stop-color:rgb(219,37,50);stop-opacity:1"/><stop offset="0.53" style="stop-color:rgb(144,29,33);stop-opacity:1"/><stop offset="1" style="stop-color:rgb(87,19,18);stop-opacity:1"/></linearGradient>        <linearGradient id="_Linear2" x1="0" y1="0" x2="1" y2="0" gradientUnits="userSpaceOnUse" gradientTransform="matrix(290.473,-312.426,312.426,290.473,73.9843,353.536)"><stop offset="0" style="stop-color:rgb(219,37,50);stop-opacity:1"/><stop offset="0.53" style="stop-color:rgb(144,29,33);stop-opacity:1"/><stop offset="1" style="stop-color:rgb(87,19,18);stop-opacity:1"/></linearGradient>    </defs></svg>