<?xml version="1.0" encoding="UTF-8" standalone="no"?><!DOCTYPE svg PUBLIC "-//W3C//DTD SVG 1.1//EN" "http://www.w3.org/Graphics/SVG/1.1/DTD/svg11.dtd"><svg width="100%" height="100%" viewBox="0 0 512 512" version="1.1" xmlns="http://www.w3.org/2000/svg" xmlns:xlink="http://www.w3.org/1999/xlink" xml:space="preserve" style="fill-rule:evenodd;clip-rule:evenodd;stroke-linejoin:round;stroke-miterlimit:2;"><title>Coinmerce</title><desc>Coinmerce is a European, euro ⇄ cryptocurrency trading platform that focuses entirely on usability and simplicity to offer its users a safe, educational, enjoyable and straightforward experience. The Coinmerce platform is connected to various external exchanges and bundles liquidity through its smart order system to offer the best prices to its users automatically. In short, we are an all-in-one platform where everyone can easily buy, sell and store over 140 cryptocurrencies.</desc>    <g transform="matrix(17.6914,0,0,17.6914,9.46978,0.955771)">        <path d="M8.31,13.95c-0.26,3.77 2.73,6.92 6.44,6.92c1.91,0 3.71,-0.85 4.93,-2.29c0.17,-0.2 0.48,-0.22 0.66,-0.03c0.17,0.17 0.18,0.43 0.02,0.62c-1.39,1.64 -3.45,2.61 -5.61,2.61c-4.06,0 -7.36,-3.3 -7.36,-7.36c0,-4.06 3.3,-7.36 7.36,-7.36c2.16,0 4.22,0.97 5.61,2.61c0.15,0.18 0.15,0.45 -0.02,0.62c-0.19,0.19 -0.49,0.17 -0.66,-0.03c-1.5,-1.77 -3.85,-2.64 -6.23,-2.16c-2.82,0.55 -4.94,2.98 -5.14,5.85Zm-2.72,1.07l-0.03,0c-0.26,0 -0.45,0.23 -0.43,0.48c0.54,4.86 4.64,8.58 9.61,8.58c2.11,0 4.15,-0.69 5.83,-1.96c0.21,-0.16 0.23,-0.46 0.05,-0.65l-0.03,-0.03c-0.15,-0.15 -0.4,-0.16 -0.57,-0.03c-1.52,1.15 -3.37,1.77 -5.28,1.77c-4.5,0 -8.22,-3.37 -8.72,-7.78c-0.02,-0.22 -0.21,-0.38 -0.43,-0.38Zm19.25,-9.4l-8.74,-5.04c-1.33,-0.77 -2.99,-0.77 -4.32,0l-8.74,5.04c-1.34,0.78 -2.16,2.2 -2.16,3.74l0,4.03c0,0.23 0.19,0.42 0.42,0.42l4.33,0c0.15,0 0.28,-0.08 0.35,-0.2c0.01,-0.01 0.02,-0.02 0.02,-0.03c0,-0.04 0,-0.06 0.01,-0.09c0.01,-0.02 0.02,-0.04 0.02,-0.07c0.49,-4.41 4.22,-7.78 8.72,-7.78c1.91,0 3.76,0.63 5.28,1.77c0.17,0.13 0.41,0.12 0.57,-0.03l0.03,-0.03c0.19,-0.19 0.16,-0.49 -0.05,-0.65c-1.68,-1.27 -3.72,-1.96 -5.83,-1.96c-4.85,0 -8.86,3.54 -9.56,8.23l-3.48,0l0,-3.61c0,-1.25 0.66,-2.4 1.74,-3.02l8.75,-5.04c0.54,-0.31 1.14,-0.47 1.74,-0.47c0.6,0 1.2,0.16 1.74,0.47l8.74,5.05c1.08,0.62 1.74,1.77 1.74,3.02l0,10.09c0,1.25 -0.66,2.4 -1.74,3.02l-8.74,5.05c-1.08,0.62 -2.41,0.62 -3.49,0l-8.74,-5.05c-1.08,-0.62 -1.74,-1.77 -1.74,-3.02l0,-4.02c0,-0.23 -0.19,-0.42 -0.42,-0.42c-0.23,0 -0.42,0.19 -0.42,0.42l0,4.02c0,1.54 0.82,2.97 2.16,3.74l8.74,5.05c0.67,0.38 1.41,0.58 2.16,0.58c0.75,0 1.49,-0.19 2.16,-0.58l8.74,-5.05c1.35,-0.77 2.17,-2.2 2.17,-3.74l0,-10.1c0,-1.54 -0.82,-2.96 -2.16,-3.74Z" style="fill:rgb(102,202,226);fill-rule:nonzero;"/>    </g></svg>