<?xml version="1.0" encoding="UTF-8" standalone="no"?><!DOCTYPE svg PUBLIC "-//W3C//DTD SVG 1.1//EN" "http://www.w3.org/Graphics/SVG/1.1/DTD/svg11.dtd"><svg width="100%" height="100%" viewBox="0 0 512 512" version="1.1" xmlns="http://www.w3.org/2000/svg" xmlns:xlink="http://www.w3.org/1999/xlink" xml:space="preserve" style="fill-rule:evenodd;clip-rule:evenodd;stroke-linejoin:round;stroke-miterlimit:2;"><title>FT</title><desc></desc>    <g transform="matrix(1,0,0,1.00057,28.0934,24.656)">        <g transform="matrix(1.275,0,0,1.275,-27.0934,-19.6448)">            <rect x="73.3" y="325.4" width="252.2" height="25.9" style="fill:rgb(248,152,58);"/>        </g>        <g transform="matrix(1.275,0,0,1.275,-27.0934,-19.6448)">            <path d="M160.8,274.9c0,13.6 -11,24 -24,24c-13.6,0 -24,-11 -24,-24c0,-13.6 11,-24 24,-24c13,0 24,10.4 24,24Z" style="fill:rgb(248,152,58);fill-rule:nonzero;"/>        </g>        <g transform="matrix(1.275,0,0,1.275,-27.0934,-19.6448)">            <path d="M286.5,274.9c0,13.6 -11,24 -24,24c-13.6,0 -24,-11 -24,-24c0,-13.6 11,-24 24,-24c13,0 24,10.4 24,24Z" style="fill:rgb(255,214,41);fill-rule:nonzero;"/>        </g>        <g transform="matrix(1.275,0,0,1.275,-27.0934,-19.6448)">            <path d="M286.5,274.9c0,13.6 -11,24 -24,24c-13.6,0 -24,-11 -24,-24c0,-13.6 11,-24 24,-24c13,0 24,10.4 24,24Z" style="fill:rgb(248,152,58);fill-rule:nonzero;"/>        </g>        <g transform="matrix(1.275,0,0,1.275,-27.0934,-19.6448)">            <path d="M349.4,274.9c0,13.6 -11,24 -24,24c-13.6,0 -24,-11 -24,-24c0,-13.6 11,-24 24,-24c13,0 24,10.4 24,24Z" style="fill:rgb(248,152,58);fill-rule:nonzero;"/>        </g>        <g transform="matrix(1.275,0,0,1.275,-27.0934,-19.6448)">            <path d="M49.3,274.9c0,13.6 11,24 24,24c13.6,0 24,-11 24,-24c0,-13.6 -11,-24 -24,-24c-13.7,0 -24,10.4 -24,24Z" style="fill:rgb(248,152,58);fill-rule:nonzero;"/>        </g>        <g transform="matrix(1.275,0,0,1.275,-27.0934,-19.6448)">            <path d="M230.8,38.9l0,-16.2l-23.3,0l0,-22.7l-16.2,0l0,22.7l-23.3,0l0,16.2l23.3,0l0,24.6c-13,3.2 -22.7,15.6 -22.7,29.2c0,16.9 13.6,30.5 30.5,30.5c16.9,0 30.5,-13.6 30.5,-30.5c0,-14.3 -9.7,-25.9 -22.7,-29.2l0,-24.6l23.9,0Z" style="fill:rgb(248,152,58);fill-rule:nonzero;"/>        </g>        <g transform="matrix(1.275,0,0,1.275,-27.0934,-19.6448)">            <rect x="73.3" y="367.6" width="252.2" height="25.9" style="fill:rgb(248,152,58);"/>        </g>        <g transform="matrix(1.275,0,0,1.275,-27.0934,-19.6448)">            <path d="M223.7,274.9c0,13.6 -11,24 -24,24c-13.6,0 -24,-11 -24,-24c0,-13.6 11,-24 24,-24c12.9,0 24,10.4 24,24Z" style="fill:rgb(248,152,58);fill-rule:nonzero;"/>        </g>        <g transform="matrix(1.275,0,0,1.275,-27.0934,-19.6448)">            <path d="M387.7,160.8c-16.9,-16.2 -46.7,-16.2 -77.1,-7.1c-0.6,-3.9 -1.9,-7.8 -3.2,-11c-3.9,-8.4 -13.6,-18.8 -35,-20.7c-23.3,-1.9 -53.8,11 -72.6,28.5c-18.8,-17.5 -49.3,-30.5 -72.6,-28.5c-21.4,1.9 -30.5,12.3 -35,20.7c-1.3,3.2 -2.6,7.1 -3.2,11c-30.5,-9.1 -60.3,-9.1 -77.1,7.1c-8,7.1 -11.9,16.8 -11.9,26.6c0,21.4 19.4,44.1 43.4,66.8c1.3,-1.9 2.6,-3.9 4.5,-5.2c5.8,-5.8 13,-9.1 20.7,-10.4c-20.1,-18.8 -40.2,-39.5 -40.2,-51.9c0,-1.9 0.6,-3.2 2.6,-5.8c9.1,-9.1 33.7,-6.5 60.9,3.2c4.5,16.2 13.6,35 27.9,57.7c5.2,-2.6 11,-3.9 16.9,-3.9c5.8,0 11.7,1.3 16.2,3.9c-3.2,-5.8 -5.2,-9.1 -5.2,-9.1c-25.9,-41.5 -30.5,-62.2 -30.5,-72c0,-3.9 0.6,-5.8 1.3,-6.5c1.3,-2.6 5.2,-4.5 11.7,-5.2c17.5,-1.3 45.4,12.3 55.8,26.6l0,64.2c4.5,-1.9 9.1,-2.6 14.3,-2.6c5.2,0 9.7,1.3 14.3,2.6l0,-64.2c10.4,-14.9 38.2,-28.5 55.8,-26.6c6.5,0.6 10.4,1.9 11.7,5.2c0.6,0.6 1.3,2.6 1.3,6.5c0,9.1 -4.5,29.8 -31.1,72c0,0 -1.9,3.9 -5.2,9.1c5.2,-2.6 10.4,-3.9 16.2,-3.9c5.8,0 11.7,1.3 16.9,3.9c13.6,-22.7 22.7,-41.5 27.9,-57.7c26.6,-9.7 51.2,-11.7 60.9,-3.2c1.9,1.9 2.6,3.9 2.6,5.8c0,12.3 -20.1,33.1 -40.2,51.9c7.8,1.3 14.9,4.5 20.7,10.4c1.9,1.9 3.2,3.2 4.5,5.2c24,-22.7 43.4,-45.4 43.4,-66.8c-0.6,-10.4 -4.5,-19.5 -12.3,-26.6Z" style="fill:rgb(248,152,58);fill-rule:nonzero;"/>        </g>    </g></svg>