<?xml version="1.0" encoding="UTF-8" standalone="no"?><!DOCTYPE svg PUBLIC "-//W3C//DTD SVG 1.1//EN" "http://www.w3.org/Graphics/SVG/1.1/DTD/svg11.dtd"><svg width="100%" height="100%" viewBox="0 0 512 512" version="1.1" xmlns="http://www.w3.org/2000/svg" xmlns:xlink="http://www.w3.org/1999/xlink" xml:space="preserve" style="fill-rule:evenodd;clip-rule:evenodd;stroke-linejoin:round;stroke-miterlimit:2;"><title>BitOfProperty</title><desc>BitOfProperty is a blockchain based real estate crowdinvestment platform, making property investing affordable and increasing liquidity of the investments. The company is headquartered in Singapore and has a subsidiary in Estonia.</desc>    <g id="Ebene-2" transform="matrix(1.3048,0,0,1.3048,-26.2083,61.2577)">        <g transform="matrix(1,0,0,1,191.533,269.837)">            <path d="M0,-72.274l-149.509,0l-21.172,72.274l170.681,-72.274Z" style="fill:rgb(52,96,172);fill-rule:nonzero;"/>        </g>        <g transform="matrix(-1,0,0,1,258.201,97.0414)">            <path d="M-150.61,-68.376l141.718,0l8.892,68.376l-115.45,-52.414l-35.16,-15.962Z" style="fill:rgb(109,190,78);fill-rule:nonzero;"/>        </g>        <g transform="matrix(236.991,-282.435,-282.435,-236.991,101.442,247.058)">            <path d="M0.01,0.205l0.271,-0.322l0.073,-0.088l0.22,0.14l-0.564,0.27Z" style="fill:url(#_Linear1);fill-rule:nonzero;"/>        </g>        <g transform="matrix(-47.5462,365.614,365.614,47.5462,362.537,-132.899)">            <path d="M0.661,-0.2l0.263,0l-0.035,0.273l-0.469,0.116l0.241,-0.389Z" style="fill:url(#_Linear2);fill-rule:nonzero;"/>        </g>    </g>    <defs>        <linearGradient id="_Linear1" x1="0" y1="0" x2="1" y2="0" gradientUnits="userSpaceOnUse" gradientTransform="matrix(1,0,0,-1,0,3.65923e-06)"><stop offset="0" style="stop-color:rgb(53,96,172);stop-opacity:1"/><stop offset="0.27" style="stop-color:rgb(53,96,172);stop-opacity:1"/><stop offset="0.93" style="stop-color:rgb(109,190,78);stop-opacity:1"/><stop offset="1" style="stop-color:rgb(109,190,78);stop-opacity:1"/></linearGradient>        <linearGradient id="_Linear2" x1="0" y1="0" x2="1" y2="0" gradientUnits="userSpaceOnUse" gradientTransform="matrix(-0.842541,0.538632,0.538632,0.842541,1.24465,-0.36385)"><stop offset="0" style="stop-color:rgb(53,96,172);stop-opacity:1"/><stop offset="0.25" style="stop-color:rgb(53,96,172);stop-opacity:1"/><stop offset="0.81" style="stop-color:rgb(109,190,78);stop-opacity:1"/><stop offset="1" style="stop-color:rgb(109,190,78);stop-opacity:1"/></linearGradient>    </defs></svg>