<?xml version="1.0" encoding="UTF-8" standalone="no"?><!DOCTYPE svg PUBLIC "-//W3C//DTD SVG 1.1//EN" "http://www.w3.org/Graphics/SVG/1.1/DTD/svg11.dtd"><svg width="100%" height="100%" viewBox="0 0 512 512" version="1.1" xmlns="http://www.w3.org/2000/svg" xmlns:xlink="http://www.w3.org/1999/xlink" xml:space="preserve" style="fill-rule:evenodd;clip-rule:evenodd;stroke-linejoin:round;stroke-miterlimit:2;"><title>Circulantis</title><desc>Circulantis es el marketplace en el que las empresas que utilizan para financiar su capital circulante el descuento de pagarés cambiarios de medianos y grandes emisores solventes, contactan directamente con ahorradores que buscan una interesante rentabilidad con un riesgo muy controlado en un entorno de absoluta transparencia.</desc>    <g transform="matrix(1.00635,0,0,1.00726,-1.18456,-1.09396)">        <path d="M450.799,260.117c-1.378,56.098 -24.433,111.884 -64.264,152.433c-51.13,52.053 -128.355,76.932 -201.164,63.44c-65.33,-12.107 -124.244,-54.824 -156.252,-113.713c-28.245,-51.967 -34.694,-115.485 -17.419,-172.272c19.373,-63.683 68.355,-117.361 130.167,-142.591l0.472,-0.192c4.411,-1.27 4.428,-1.273 9.007,-1.599c1.519,0.212 3.037,0.423 4.555,0.635c1.442,0.523 2.945,0.897 4.324,1.568c8.314,4.043 13.446,13.651 12.169,22.821c-0.854,6.13 -4.406,11.766 -9.466,15.188c-4.023,2.72 -8.723,4.052 -13.134,6.12c-49.419,23.171 -87.486,70.122 -99.502,124.187c-10.283,46.268 -1.518,96.633 24.432,136.827c32.71,50.664 91.419,83.166 152.884,82.776c50.478,-0.321 100.27,-22.95 133.823,-60.76c28.261,-31.846 44.451,-74.125 45.373,-116.575l-18.218,35.61c-5.248,9.698 -17.607,14.466 -27.756,10.407c-11.289,-4.515 -16.871,-19.148 -11.416,-30.447l60.879,-119c1.487,-2.748 1.889,-3.128 2.814,-4.218c3.731,-4.394 9.233,-7.219 14.98,-7.689c1.454,-0.119 2.082,-0.094 2.563,-0.064c0.648,-0.017 1.297,0.008 1.946,0.032c3.16,0.268 3.676,0.49 5.064,0.913c5.264,1.603 9.872,5.258 12.629,10.019c0.46,0.794 0.547,1.008 0.949,1.831l55.871,121.432c3.613,8.363 1.805,18.549 -4.468,24.791c-7.281,7.245 -19.866,8.38 -28.368,2.262c-3.072,-2.211 -5.476,-5.267 -7.136,-8.662l-16.338,-35.51Z" style="fill:rgb(0,177,225);"/>        <g transform="matrix(0.91435,0,0,0.877274,0.548599,3.21992)">            <ellipse cx="286.97" cy="55.072" rx="12.03" ry="12.539" style="fill:rgb(0,177,225);"/>        </g>        <g transform="matrix(0.664982,0,0,0.638017,129.11,29.4739)">            <ellipse cx="286.97" cy="55.072" rx="12.03" ry="12.539" style="fill:rgb(0,177,225);"/>        </g>        <g transform="matrix(1.66245,0,0,1.59504,-273.634,-36.9721)">            <ellipse cx="286.97" cy="55.072" rx="12.03" ry="12.539" style="fill:rgb(0,177,225);"/>        </g>    </g></svg>