<?xml version="1.0" encoding="UTF-8" standalone="no"?><!DOCTYPE svg PUBLIC "-//W3C//DTD SVG 1.1//EN" "http://www.w3.org/Graphics/SVG/1.1/DTD/svg11.dtd"><svg width="100%" height="100%" viewBox="0 0 512 512" version="1.1" xmlns="http://www.w3.org/2000/svg" xmlns:xlink="http://www.w3.org/1999/xlink" xml:space="preserve" style="fill-rule:evenodd;clip-rule:evenodd;stroke-linejoin:round;stroke-miterlimit:2;"><title>Advanon</title><desc>Advanon connects SMEs and investors to create synergies and win-win situations for all our customers. We are proud to state that we were the first platform for peer-to-peer invoice financing in Switzerland. Join us and get the opportunity to diversify your portfolio by adding a high-yield asset class to the mix. With us, you directly support the success of companies in Switzerland and Germany.</desc>    <g transform="matrix(25.6458,0,0,25.5743,-25.5786,-50.8901)">        <path d="M14.937,10.63c-0.77,0 -1.12,-0.342 -1.74,-1.52c-0.41,-0.76 -0.857,-1.564 -1.275,-2.35c-0.062,-0.117 -0.125,-0.236 -0.208,-0.339c-0.226,-0.279 -0.51,-0.279 -0.745,-0.003c-0.067,0.08 -0.119,0.17 -0.169,0.262c-2.064,3.81 -4.103,7.568 -6.165,11.379c-0.383,0.707 -0.965,1.072 -1.775,1.058c-0.37,-0.005 -0.74,0 -1.11,-0.007c-0.675,-0.015 -0.887,-0.374 -0.568,-0.97c1.103,-2.053 2.185,-4.055 3.29,-6.108c1.575,-2.922 3.149,-5.845 4.72,-8.767c0.37,-0.693 0.944,-1.037 1.726,-1.04c0.295,0 0.589,-0.002 0.883,0.002c0.748,0.007 1.313,0.336 1.666,0.995c1.148,2.138 2.29,4.28 3.432,6.422c0.05,0.092 0.101,0.185 0.128,0.284c0.107,0.396 -0.1,0.682 -0.51,0.699c-0.274,0.012 -1.304,0.003 -1.58,0.003Zm5.871,6.717c-0.538,-0.981 -0.995,-1.872 -1.541,-2.849c-0.339,-0.607 -0.842,-0.928 -1.582,-0.938c-0.446,-0.005 -0.891,-0.005 -1.337,0c-0.575,0.005 -0.802,0.38 -0.543,0.899l0.081,0.156l0.752,1.321c0.163,0.35 -0.237,0.35 -0.237,0.35l-1.638,0c-1.74,0 -3.48,-0.002 -5.219,0.002c-0.768,0 -1.155,0.395 -1.156,1.157c0,0.19 -0.002,0.38 0,0.57c0.006,0.68 0.426,1.097 1.104,1.098c1.024,0.002 2.05,0 3.074,0l2.197,0l0,-0.001l1.637,0c0,0 0.4,0 0.237,0.35l-0.598,1.05c-0.075,0.136 -0.146,0.274 -0.212,0.414c-0.212,0.46 -0.015,0.8 0.49,0.83c0.454,0.027 0.91,0.02 1.364,0.013c0.732,-0.012 1.296,-0.316 1.65,-0.966c0.515,-0.95 0.975,-1.822 1.49,-2.773c0.145,-0.27 0.13,-0.423 -0.014,-0.683l0.001,0Z" style="fill:rgb(0,155,218);"/>    </g></svg>