<?xml version="1.0" encoding="UTF-8" standalone="no"?><!DOCTYPE svg PUBLIC "-//W3C//DTD SVG 1.1//EN" "http://www.w3.org/Graphics/SVG/1.1/DTD/svg11.dtd"><svg width="100%" height="100%" viewBox="0 0 512 512" version="1.1" xmlns="http://www.w3.org/2000/svg" xmlns:xlink="http://www.w3.org/1999/xlink" xml:space="preserve" style="fill-rule:evenodd;clip-rule:evenodd;stroke-linejoin:round;stroke-miterlimit:2;"><title>Spreds</title><desc>Spreds is an investment platform that allows growing start-ups and companies to receive financing from a unique crowd of investors, from private individuals to industryprofessionals. Spreds also enables investors to partner up with professionals to support entrepreneurship thanks to minimum investments of €100.</desc>    <g transform="matrix(4.00157,0,0,4.00157,35.1534,-208.482)">        <path d="M109.16,71c0,0.003 0,0.007 0,0.01c0,10.237 -8.423,18.66 -18.66,18.66c-10.237,0 -18.66,-8.423 -18.66,-18.66c0,-10.237 8.423,-18.66 18.66,-18.66c10.231,0.005 18.649,8.419 18.66,18.65Zm-90.5,71.48c-10.237,0 -18.66,8.423 -18.66,18.66c0,10.237 8.423,18.66 18.66,18.66c10.237,0 18.66,-8.423 18.66,-18.66c-0.005,-10.233 -8.427,-18.65 -18.66,-18.65l0,-0.01Zm64.46,35.62c0,0.439 0.361,0.8 0.8,0.8c0.083,0.007 0.167,0.007 0.25,0c7.09,-2.39 26.21,-10.8 26.21,-32c0,-21 -9.84,-30.9 -43.22,-45.19c-24.93,-10.71 -48.81,-17.2 -48.81,-32.71c0,-8.65 3.25,-12.53 5.39,-14.31c0.175,-0.16 0.28,-0.383 0.29,-0.62c0,-0.003 0,-0.007 0,-0.01c0,-0.428 -0.352,-0.78 -0.78,-0.78c0,0 0,0 0,0c-0.128,-0.002 -0.254,0.025 -0.37,0.08c-6.78,2.64 -22.88,11.08 -22.88,30.46c0,25.08 17.84,33 45,44.81c21.06,9.16 45.9,19.31 45.9,32.73c0,9.45 -4.26,14.13 -7.41,16.08c-0.229,0.146 -0.368,0.399 -0.37,0.67l0,-0.01Z" style="fill-rule:nonzero;"/>    </g></svg>