<?xml version="1.0" encoding="UTF-8" standalone="no"?><!DOCTYPE svg PUBLIC "-//W3C//DTD SVG 1.1//EN" "http://www.w3.org/Graphics/SVG/1.1/DTD/svg11.dtd"><svg width="100%" height="100%" viewBox="0 0 512 512" version="1.1" xmlns="http://www.w3.org/2000/svg" xmlns:xlink="http://www.w3.org/1999/xlink" xml:space="preserve" style="fill-rule:evenodd;clip-rule:evenodd;stroke-linejoin:round;stroke-miterlimit:2;"><title>Bundesverband Crowdfunding</title><desc>The German Crowdfunding Association (Bundesverband Crowdfunding eV) represents the political and public interests of Crowdfunding platforms to the German Government, Parliament, Regulatory Bodies, Media and other Associations.</desc>    <g transform="matrix(6.97124,0,0,6.97124,-1020.07,-1692.38)">        <g transform="matrix(1.09091,0,0,1.09091,4.18182,-27.0098)">            <circle cx="185" cy="281" r="11" style="fill:rgb(255,203,22);"/>        </g>        <g transform="matrix(1.09091,0,0,1.09091,4.18182,-27.0098)">            <path d="M185.081,268.488c5.724,0.054 11.114,4.446 12.207,10.146c1.069,5.57 -2.177,11.676 -7.419,13.894c-5.799,2.454 -13.305,-0.302 -16.113,-6.036c-2.902,-5.926 -0.15,-13.981 5.957,-16.834c1.673,-0.782 3.514,-1.176 5.368,-1.17Zm-0.152,1.512c-6.194,0.059 -11.681,6.115 -10.832,12.469c0.698,5.22 5.613,9.531 10.903,9.531c5.254,0 10.196,-4.245 10.903,-9.531c0.815,-6.099 -4.205,-12.406 -10.832,-12.469c-0.047,0 -0.095,0 -0.142,0Z" style="fill:white;"/>        </g>        <g transform="matrix(1.09091,0,0,1.09091,-41.8182,-27.0098)">            <circle cx="185" cy="281" r="11" style="fill:rgb(48,51,51);"/>        </g>        <g transform="matrix(1.09091,0,0,1.09091,-41.8182,-27.0098)">            <path d="M185.081,268.488c5.724,0.054 11.114,4.446 12.207,10.146c1.069,5.57 -2.177,11.676 -7.419,13.894c-5.799,2.454 -13.305,-0.302 -16.113,-6.036c-2.905,-5.932 -0.142,-13.985 5.957,-16.834c1.673,-0.782 3.514,-1.176 5.368,-1.17Zm-0.152,1.512c-6.194,0.059 -11.681,6.115 -10.832,12.469c0.698,5.22 5.613,9.531 10.903,9.531c5.254,0 10.196,-4.245 10.903,-9.531c0.815,-6.099 -4.205,-12.406 -10.832,-12.469c-0.047,0 -0.095,0 -0.142,0Z" style="fill:white;"/>        </g>        <g transform="matrix(1.09091,0,0,1.09091,-18.8182,-27.0098)">            <circle cx="185" cy="281" r="11" style="fill:rgb(101,18,12);"/>        </g>        <g transform="matrix(1.09091,0,0,1.09091,-18.8182,-27.0098)">            <path d="M185.081,268.488c5.724,0.054 11.114,4.446 12.207,10.146c1.069,5.57 -2.177,11.676 -7.419,13.894c-5.799,2.454 -13.305,-0.302 -16.113,-6.036c-2.899,-5.921 -0.142,-13.985 5.957,-16.834c1.673,-0.782 3.514,-1.176 5.368,-1.17Zm-0.152,1.512c-6.194,0.059 -11.681,6.115 -10.832,12.469c0.698,5.22 5.613,9.531 10.903,9.531c5.254,0 10.196,-4.245 10.903,-9.531c0.815,-6.099 -4.205,-12.406 -10.832,-12.469c-0.047,0 -0.095,0 -0.142,0Z" style="fill:white;"/>        </g>    </g></svg>