<?xml version="1.0" encoding="UTF-8" standalone="no"?><!DOCTYPE svg PUBLIC "-//W3C//DTD SVG 1.1//EN" "http://www.w3.org/Graphics/SVG/1.1/DTD/svg11.dtd"><svg width="100%" height="100%" viewBox="0 0 512 512" version="1.1" xmlns="http://www.w3.org/2000/svg" xmlns:xlink="http://www.w3.org/1999/xlink" xml:space="preserve" style="fill-rule:evenodd;clip-rule:evenodd;stroke-linejoin:round;stroke-miterlimit:2;"><title>Crowd2Fund</title><desc>Crowd2Fund is an alternative solution to an out-of-date financial system, for private businesses and investors. We allow investors to choose their own investments and invest directly into fast growing, carefully selected businesses. Businesses choose Crowd2Fund to raise funds but also build a network of private investors to help them grow.</desc>    <g transform="matrix(6.69378,0,0,6.69378,-1159.59,-1657.71)">        <g transform="matrix(0.000188875,-2,-2,-0.000188875,200.887,275.307)">            <path d="M-5.293,-5.295c0.9,1.557 1.419,3.365 1.419,5.294c-0.002,1.931 -0.52,3.735 -1.419,5.295c-0.904,-1.561 -1.422,-3.369 -1.42,-5.296c0,-1.929 0.52,-3.735 1.42,-5.293" style="fill:rgb(207,51,57);fill-rule:nonzero;"/>        </g>        <g transform="matrix(-1.73202,-1.00006,-1.00006,1.73202,197.017,300.353)">            <path d="M-2.647,-9.876c0.901,1.559 1.419,3.364 1.418,5.295c0.001,1.928 -0.516,3.733 -1.417,5.29c-0.905,-1.555 -1.422,-3.362 -1.42,-5.288c0.001,-1.932 0.518,-3.739 1.42,-5.297" style="fill:rgb(207,51,57);fill-rule:nonzero;"/>        </g>        <g transform="matrix(0.000377786,2,2,-0.000377786,190.302,293.644)">            <path d="M5.294,-5.294c0.902,1.561 1.418,3.366 1.417,5.293c0,1.931 -0.516,3.738 -1.417,5.296c-0.903,-1.557 -1.418,-3.365 -1.418,-5.293c0,-1.93 0.516,-3.736 1.418,-5.295" style="fill:rgb(207,51,57);fill-rule:nonzero;"/>        </g>        <g transform="matrix(1.73229,0.999592,0.999592,-1.73229,175.842,300.359)">            <path d="M2.646,-0.709c0.901,1.561 1.42,3.365 1.42,5.294c0.001,1.93 -0.518,3.737 -1.42,5.294c-0.901,-1.558 -1.418,-3.365 -1.416,-5.293c-0.003,-1.929 0.515,-3.735 1.416,-5.295" style="fill:rgb(207,51,57);fill-rule:nonzero;"/>        </g>        <g transform="matrix(1.73208,0.999957,0.999957,-1.73208,207.602,318.694)">            <path d="M2.647,-0.71c0.902,1.56 1.422,3.367 1.42,5.295c-0.001,1.93 -0.519,3.737 -1.42,5.294c-0.901,-1.558 -1.418,-3.365 -1.415,-5.295c-0.003,-1.929 0.516,-3.734 1.415,-5.294" style="fill:rgb(207,51,57);fill-rule:nonzero;"/>        </g>        <g transform="matrix(1.73219,-0.999756,-0.999756,-1.73219,215.352,318.697)">            <path d="M-2.646,-0.709c0.902,1.558 1.421,3.365 1.419,5.293c0,1.929 -0.519,3.737 -1.419,5.294c-0.902,-1.558 -1.419,-3.367 -1.418,-5.293c0,-1.928 0.519,-3.735 1.418,-5.294" style="fill:rgb(207,51,57);fill-rule:nonzero;"/>        </g>        <g transform="matrix(1.73198,-1.00012,-1.00012,-1.73198,247.116,300.355)">            <path d="M-2.647,-0.71c0.901,1.56 1.419,3.366 1.42,5.294c-0.001,1.931 -0.517,3.737 -1.42,5.293c-0.902,-1.556 -1.42,-3.365 -1.418,-5.294c0,-1.927 0.518,-3.736 1.418,-5.293" style="fill:rgb(207,51,57);fill-rule:nonzero;"/>        </g>        <g transform="matrix(0.000188893,-2,-2,-0.000188893,232.656,293.642)">            <path d="M-5.294,-5.293c0.901,1.56 1.417,3.365 1.419,5.294c-0.001,1.93 -0.52,3.734 -1.419,5.294c-0.903,-1.559 -1.418,-3.367 -1.419,-5.294c0,-1.929 0.518,-3.735 1.419,-5.294" style="fill:rgb(207,51,57);fill-rule:nonzero;"/>        </g>        <g transform="matrix(-0.000188893,-2,-2,0.000188893,232.652,256.969)">            <path d="M-5.295,-5.293c0.902,1.558 1.418,3.364 1.42,5.292c-0.001,1.931 -0.516,3.736 -1.42,5.296c-0.901,-1.559 -1.418,-3.366 -1.417,-5.293c0.001,-1.93 0.517,-3.736 1.417,-5.295" style="fill:rgb(207,51,57);fill-rule:nonzero;"/>        </g>        <g transform="matrix(-1.73211,-0.999897,-0.999897,1.73211,228.775,282.02)">            <path d="M-2.648,-9.879c0.9,1.558 1.419,3.365 1.419,5.293c-0.001,1.929 -0.518,3.737 -1.419,5.295c-0.901,-1.558 -1.42,-3.366 -1.418,-5.295c0,-1.929 0.518,-3.734 1.418,-5.293" style="fill:rgb(207,51,57);fill-rule:nonzero;"/>        </g>        <g transform="matrix(-1.73208,-0.999957,-0.999957,1.73208,197.014,263.682)">            <path d="M-2.647,-9.879c0.901,1.558 1.417,3.365 1.417,5.294c0,1.929 -0.516,3.736 -1.417,5.294c-0.902,-1.558 -1.42,-3.364 -1.421,-5.293c0.002,-1.929 0.52,-3.737 1.421,-5.295" style="fill:rgb(207,51,57);fill-rule:nonzero;"/>        </g>        <g transform="matrix(-1.73212,0.999875,0.999875,1.73212,225.949,263.683)">            <path d="M2.651,-9.881c0.899,1.559 1.42,3.367 1.417,5.294c0.001,1.932 -0.518,3.738 -1.417,5.295c-0.904,-1.558 -1.42,-3.365 -1.418,-5.295c-0.001,-1.928 0.518,-3.734 1.418,-5.294" style="fill:rgb(207,51,57);fill-rule:nonzero;"/>        </g>        <g transform="matrix(-1.73198,1.00012,1.00012,1.73198,194.181,282.02)">            <path d="M2.647,-9.877c0.902,1.558 1.42,3.362 1.42,5.292c-0.004,1.932 -0.519,3.736 -1.42,5.294c-0.902,-1.557 -1.417,-3.366 -1.42,-5.293c0.002,-1.932 0.52,-3.737 1.42,-5.293" style="fill:rgb(207,51,57);fill-rule:nonzero;"/>        </g>        <g transform="matrix(0.000188947,2,2,-0.000188947,190.299,256.972)">            <path d="M5.293,-5.291c0.902,1.559 1.42,3.365 1.418,5.292c0.001,1.932 -0.517,3.737 -1.418,5.293c-0.901,-1.556 -1.421,-3.364 -1.418,-5.293c-0.001,-1.927 0.516,-3.734 1.418,-5.292" style="fill:rgb(207,51,57);fill-rule:nonzero;"/>        </g>        <g transform="matrix(-1.73216,0.999816,0.999816,1.73216,225.948,300.357)">            <path d="M2.651,-9.88c0.9,1.559 1.419,3.365 1.418,5.297c-0.001,1.929 -0.519,3.733 -1.418,5.291c-0.904,-1.557 -1.422,-3.366 -1.42,-5.293c0.001,-1.931 0.521,-3.737 1.42,-5.295" style="fill:rgb(207,51,57);fill-rule:nonzero;"/>        </g>        <g transform="matrix(-0.000188911,2,2,0.000188911,222.066,275.308)">            <path d="M5.294,-5.294c0.9,1.56 1.418,3.365 1.419,5.295c0,1.929 -0.519,3.737 -1.42,5.292c-0.903,-1.557 -1.418,-3.365 -1.419,-5.293c0.001,-1.927 0.519,-3.734 1.419,-5.294" style="fill:rgb(207,51,57);fill-rule:nonzero;"/>        </g>        <g transform="matrix(1.73193,1.0002,1.0002,-1.73193,207.602,282.017)">            <path d="M2.647,-0.71c0.902,1.559 1.42,3.365 1.42,5.294c-0.001,1.93 -0.52,3.736 -1.42,5.292c-0.903,-1.557 -1.421,-3.363 -1.42,-5.293c0.002,-1.929 0.52,-3.734 1.42,-5.293" style="fill:rgb(207,51,57);fill-rule:nonzero;"/>        </g>        <g transform="matrix(1.73198,-1.00012,-1.00012,-1.73198,215.352,282.017)">            <path d="M-2.647,-0.71c0.901,1.559 1.42,3.366 1.42,5.294c0,1.928 -0.518,3.734 -1.42,5.293c-0.902,-1.558 -1.42,-3.366 -1.418,-5.292c-0.001,-1.93 0.517,-3.736 1.418,-5.295" style="fill:rgb(207,51,57);fill-rule:nonzero;"/>        </g>    </g></svg>