<?xml version="1.0" encoding="UTF-8" standalone="no"?><!DOCTYPE svg PUBLIC "-//W3C//DTD SVG 1.1//EN" "http://www.w3.org/Graphics/SVG/1.1/DTD/svg11.dtd"><svg width="100%" height="100%" viewBox="0 0 512 512" version="1.1" xmlns="http://www.w3.org/2000/svg" xmlns:xlink="http://www.w3.org/1999/xlink" xml:space="preserve" style="fill-rule:evenodd;clip-rule:evenodd;stroke-linejoin:round;stroke-miterlimit:2;"><title>Nutmeg</title><desc></desc>    <g>        <g transform="matrix(1.78947,0,0,3.31169,-140.368,1)">            <rect x="79" y="0" width="285" height="154" style="fill:rgb(0,180,69);"/>        </g>        <g transform="matrix(3.60255,0,0,3.60169,96.9474,24.9513)">            <path d="M57,21.7c-11.8,0 -21.3,5 -26.8,14.3l-0,-3.8c-0,-5.9 -3.8,-9.3 -11,-9.3l-19.2,0l0,17.6l6.6,0c2.3,0 3.6,1.3 3.6,3.6l-0,62.5l20.9,0l-0,-45.6c-0,-13.6 6.8,-21.7 19.9,-21.7c11.8,0 16.4,7 16.4,19l0,48.3l20.9,0l0,-50c0,-22.79 -12.988,-34.889 -31.3,-34.9Z" style="fill:white;"/>        </g>    </g></svg>