<?xml version="1.0" encoding="UTF-8" standalone="no"?><!DOCTYPE svg PUBLIC "-//W3C//DTD SVG 1.1//EN" "http://www.w3.org/Graphics/SVG/1.1/DTD/svg11.dtd"><svg width="100%" height="100%" viewBox="0 0 512 512" version="1.1" xmlns="http://www.w3.org/2000/svg" xmlns:xlink="http://www.w3.org/1999/xlink" xml:space="preserve" style="fill-rule:evenodd;clip-rule:evenodd;stroke-linejoin:round;stroke-miterlimit:2;"><title>CapitalStackers</title><desc>CapitalStackers is a peer to peer lending platform dedicated to real estate finance.  Our people have a property lending background and are steeped in relevant experience.  We deal with commercial and residential property deals and our borrowers are a mix of property investors and developers.  </desc>    <g transform="matrix(13.2206,0,0,13.2206,-781.271,-56.6868)">        <g transform="matrix(36,0,0,36,57.5146,37.4755)">            <path d="M0.355,-0.03c0.082,0 0.145,-0.017 0.192,-0.042l0,-0.095c-0.041,0.017 -0.091,0.037 -0.169,0.037c-0.144,0 -0.199,-0.089 -0.199,-0.246l0,-0.035c0,-0.163 0.079,-0.227 0.198,-0.227c0.063,0 0.11,0.011 0.163,0.032l0,-0.096c-0.042,-0.023 -0.096,-0.036 -0.172,-0.036c-0.178,0 -0.322,0.093 -0.322,0.34l0,0.025c0,0.231 0.118,0.343 0.309,0.343Z" style="fill-rule:nonzero;"/>        </g>        <g transform="matrix(36,0,0,36,81.3668,37.4755)">            <path d="M0.23,-0.03c0.157,0 0.225,-0.078 0.225,-0.195c0,-0.113 -0.063,-0.155 -0.162,-0.189l-0.066,-0.021c-0.076,-0.026 -0.1,-0.054 -0.1,-0.118c0,-0.064 0.046,-0.104 0.128,-0.104c0.074,0 0.127,0.019 0.166,0.037l0,-0.067c-0.037,-0.018 -0.084,-0.037 -0.163,-0.037c-0.14,0 -0.209,0.074 -0.209,0.178c0,0.102 0.053,0.15 0.147,0.181l0.065,0.023c0.081,0.026 0.114,0.054 0.114,0.123c0,0.073 -0.045,0.121 -0.148,0.121c-0.071,0 -0.137,-0.018 -0.188,-0.044l0,0.067c0.045,0.025 0.109,0.045 0.191,0.045Z" style="fill:rgb(255,195,1);fill-rule:nonzero;"/>        </g>    </g></svg>