<?xml version="1.0" encoding="UTF-8" standalone="no"?><!DOCTYPE svg PUBLIC "-//W3C//DTD SVG 1.1//EN" "http://www.w3.org/Graphics/SVG/1.1/DTD/svg11.dtd"><svg width="100%" height="100%" viewBox="0 0 512 512" version="1.1" xmlns="http://www.w3.org/2000/svg" xmlns:xlink="http://www.w3.org/1999/xlink" xml:space="preserve" style="fill-rule:evenodd;clip-rule:evenodd;stroke-linejoin:round;stroke-miterlimit:2;"><title>ArchOver</title><desc>Business Lending. Fixed rate, fixed term loans, no personal guarantees. Lenders earn up to 11% p.a.. IFISA and auto-invest Investment Plan.ArchOver is a business lending service, connecting businesses requiring finance with investors seeking a favourable return. To date, we have facilitated over £110m of funding for UK businesses, and paid over £7m in interest to our Lenders. Invest and earn up to 10% p.a.</desc>    <g transform="matrix(1.0922,0,0,1.09023,-23.6035,-23.0999)">        <g transform="matrix(-14.1273,-0.503628,-0.504258,14.1096,156.631,294.89)">            <path d="M-0.044,-3.503c1.197,0.471 2.496,0.808 3.878,0.965c-1.183,0.97 -2.48,1.825 -3.878,2.539c-1.397,-0.452 -2.692,-1.061 -3.866,-1.791c1.374,-0.437 2.669,-1.016 3.866,-1.713" style="fill:rgb(228,239,247);fill-rule:nonzero;"/>        </g>        <g transform="matrix(-13.8979,2.58178,2.58501,13.8806,230.627,261.154)">            <path d="M0.201,-3.518c1.05,0.547 2.201,0.984 3.426,1.274c-1.029,0.867 -2.178,1.637 -3.426,2.286c-1.248,-0.539 -2.398,-1.207 -3.429,-1.974c1.229,-0.409 2.379,-0.948 3.429,-1.586" style="fill:rgb(228,239,247);fill-rule:nonzero;"/>        </g>        <g transform="matrix(-13.0256,5.48571,5.49258,13.0093,286.429,208.506)">            <path d="M0.467,-3.388c0.92,0.596 1.937,1.103 3.034,1.487c-0.901,0.789 -1.919,1.492 -3.034,2.087c-1.114,-0.597 -2.132,-1.304 -3.032,-2.091c1.096,-0.385 2.113,-0.887 3.032,-1.483" style="fill:rgb(228,239,247);fill-rule:nonzero;"/>        </g>        <g transform="matrix(-14.1253,-0.556245,-0.556941,14.1077,152.599,358.96)">            <path d="M-0.044,-3.501c1.457,0.444 3.017,0.725 4.654,0.796c-1.438,1.056 -2.996,1.965 -4.654,2.707c-1.656,-0.426 -3.211,-1.037 -4.64,-1.79c1.627,-0.413 3.182,-0.99 4.64,-1.713" style="fill:rgb(168,218,236);fill-rule:nonzero;"/>        </g>        <g transform="matrix(-13.9088,2.52282,2.52598,13.8914,240.57,325.666)">            <path d="M0.17,-3.517c1.308,0.534 2.711,0.932 4.191,1.158c-1.283,0.931 -2.687,1.74 -4.191,2.401c-1.503,-0.527 -2.907,-1.206 -4.194,-2.011c1.483,-0.373 2.888,-0.896 4.194,-1.548" style="fill:rgb(168,218,236);fill-rule:nonzero;"/>        </g>        <g transform="matrix(-13.0489,5.43024,5.43703,13.0326,309.403,267.635)">            <path d="M0.438,-3.228c1.173,0.597 2.446,1.076 3.793,1.41c-1.154,0.838 -2.425,1.57 -3.794,2.165c-1.369,-0.597 -2.64,-1.328 -3.793,-2.167c1.348,-0.334 2.62,-0.812 3.794,-1.407" style="fill:rgb(168,218,236);fill-rule:nonzero;"/>        </g>        <g transform="matrix(-11.5805,8.09703,8.10716,11.5661,354.187,192.469)">            <path d="M0.806,-2.636c1.05,0.64 2.199,1.18 3.428,1.591c-1.032,0.762 -2.18,1.429 -3.428,1.966c-1.246,-0.648 -2.391,-1.419 -3.422,-2.285c1.224,-0.292 2.373,-0.726 3.422,-1.272" style="fill:rgb(168,218,236);fill-rule:nonzero;"/>        </g>        <g transform="matrix(-13.9151,2.48755,2.49066,13.8978,250.605,389.936)">            <path d="M0.142,-3.516c1.562,0.523 3.222,0.882 4.951,1.04c-1.535,0.998 -3.192,1.844 -4.951,2.519c-1.758,-0.513 -3.418,-1.208 -4.955,-2.048c1.732,-0.335 3.395,-0.845 4.955,-1.511" style="fill:rgb(29,151,206);fill-rule:nonzero;"/>        </g>        <g transform="matrix(-13.0624,5.3977,5.40445,13.0461,332.015,324.877)">            <path d="M0.431,-2.953c1.429,0.595 2.954,1.051 4.552,1.334c-1.403,0.887 -2.928,1.645 -4.552,2.242c-1.621,-0.598 -3.147,-1.351 -4.549,-2.241c1.596,-0.284 3.122,-0.738 4.549,-1.335" style="fill:rgb(29,151,206);fill-rule:nonzero;"/>        </g>        <g transform="matrix(-11.6058,8.06078,8.07087,11.5913,388.943,244.797)">            <path d="M0.766,-2.466c1.304,0.652 2.709,1.176 4.188,1.548c-1.282,0.804 -2.687,1.483 -4.188,2.011c-1.501,-0.663 -2.903,-1.47 -4.181,-2.401c1.476,-0.225 2.877,-0.625 4.181,-1.158" style="fill:rgb(29,151,206);fill-rule:nonzero;"/>        </g>        <g transform="matrix(-9.57395,10.3877,10.4007,9.56198,420.454,160.21)">            <path d="M0.992,-2.241c1.194,0.698 2.487,1.276 3.858,1.716c-1.174,0.729 -2.465,1.336 -3.858,1.789c-1.394,-0.718 -2.689,-1.574 -3.867,-2.545c1.378,-0.156 2.672,-0.489 3.867,-0.96" style="fill:rgb(29,151,206);fill-rule:nonzero;"/>        </g>        <g transform="matrix(-13.0828,5.34823,5.35493,13.0664,353.874,383.189)">            <path d="M0.419,-2.711c1.681,0.593 3.463,1.019 5.31,1.25c-1.652,0.942 -3.431,1.726 -5.31,2.324c-1.877,-0.593 -3.656,-1.371 -5.309,-2.307c1.846,-0.238 3.626,-0.669 5.309,-1.267" style="fill:rgb(3,76,117);fill-rule:nonzero;"/>        </g>        <g transform="matrix(-11.6385,8.01375,8.02378,11.6239,423.209,298.32)">            <path d="M0.719,-2.329c1.559,0.662 3.22,1.169 4.949,1.5c-1.534,0.845 -3.191,1.543 -4.949,2.059c-1.756,-0.669 -3.412,-1.513 -4.943,-2.506c1.726,-0.164 3.383,-0.529 4.943,-1.053" style="fill:rgb(3,76,117);fill-rule:nonzero;"/>        </g>        <path d="M434.134,193.843c-6.502,21.983 -15.451,43.542 -26.83,64.311c21.529,-7.497 42.832,-17.663 63.16,-30.638c8.214,-24.213 13.769,-49.005 16.653,-73.925c-16.469,16.152 -34.394,29.508 -52.983,40.252Z" style="fill:rgb(3,76,117);fill-rule:nonzero;"/>        <path d="M447.147,106.785c-0.184,22.237 -2.743,44.643 -7.761,66.767c17.642,-11.634 34.379,-25.907 49.632,-42.935c1.258,-24.961 -0.099,-49.994 -3.986,-74.574c-10.885,19.568 -23.749,36.454 -37.885,50.742Z" style="fill:rgb(3,76,117);fill-rule:nonzero;"/>        <path d="M257.882,406.161c-22.11,12.142 -45.943,22.194 -71.177,29.677c25.219,9.29 51.824,16.123 79.432,20.119c24.795,-12.608 47.837,-27.559 68.688,-44.403c-26.265,0.96 -52.12,-0.932 -76.943,-5.393Z" style="fill:rgb(3,76,117);fill-rule:nonzero;"/>        <path d="M138.501,299.519c-20.781,4.235 -42.777,6.014 -65.692,4.743c-18.66,-16.773 -35.496,-35.409 -50.282,-55.599c21.642,6.198 42.762,9.05 62.92,9.149c15.974,15.559 33.729,29.607 53.054,41.707Z" style="fill:rgb(228,239,247);fill-rule:nonzero;"/>    </g></svg>