<?xml version="1.0" encoding="UTF-8" standalone="no"?><!DOCTYPE svg PUBLIC "-//W3C//DTD SVG 1.1//EN" "http://www.w3.org/Graphics/SVG/1.1/DTD/svg11.dtd"><svg width="100%" height="100%" viewBox="0 0 512 512" version="1.1" xmlns="http://www.w3.org/2000/svg" xmlns:xlink="http://www.w3.org/1999/xlink" xml:space="preserve" style="fill-rule:evenodd;clip-rule:evenodd;stroke-linejoin:round;stroke-miterlimit:2;"><title>BondMason</title><desc>Founded in 2014, BondMason enables investors to achieve investment returns from themes and strategies that are important to them.We provide insight, analysis and access to investment opportunities.</desc>    <g transform="matrix(1,0,0,1,-14,34.5516)">        <g transform="matrix(1.0625,0,0,4.59459,-4.125,-506.795)">            <rect x="18" y="103" width="480" height="111" style="fill:rgb(30,37,43);"/>        </g>        <g transform="matrix(614.387,0,0,574.55,127.203,376.027)">            <path d="M0.293,-0.283c0.043,0.011 0.073,0.028 0.092,0.053c0.02,0.024 0.029,0.052 0.029,0.083c0,0.026 -0.007,0.05 -0.02,0.073c-0.013,0.022 -0.032,0.04 -0.056,0.054c-0.024,0.013 -0.066,0.02 -0.126,0.02l-0.161,0l0,-0.538l0.143,0c0.065,0 0.109,0.005 0.131,0.014c0.022,0.01 0.039,0.023 0.05,0.042c0.012,0.018 0.018,0.038 0.018,0.06c0,0.025 -0.008,0.049 -0.022,0.074c-0.014,0.024 -0.04,0.046 -0.078,0.065Zm-0.172,-0.021l0.067,0c0.035,0 0.061,-0.005 0.078,-0.014c0.017,-0.009 0.031,-0.022 0.041,-0.039c0.011,-0.018 0.016,-0.035 0.016,-0.054c0,-0.02 -0.008,-0.037 -0.024,-0.051c-0.017,-0.015 -0.045,-0.022 -0.087,-0.022l-0.091,0l0,0.18Zm0,0.25l0.099,0c0.047,0 0.079,-0.008 0.096,-0.026c0.017,-0.017 0.025,-0.038 0.025,-0.062c0,-0.019 -0.005,-0.037 -0.016,-0.053c-0.011,-0.016 -0.028,-0.029 -0.05,-0.04c-0.021,-0.01 -0.056,-0.015 -0.102,-0.015l-0.052,0l0,0.196Z" style="fill:white;fill-rule:nonzero;"/>        </g>    </g></svg>