<?xml version="1.0" encoding="UTF-8" standalone="no"?><!DOCTYPE svg PUBLIC "-//W3C//DTD SVG 1.1//EN" "http://www.w3.org/Graphics/SVG/1.1/DTD/svg11.dtd"><svg width="100%" height="100%" viewBox="0 0 512 512" version="1.1" xmlns="http://www.w3.org/2000/svg" xmlns:xlink="http://www.w3.org/1999/xlink" xml:space="preserve" style="fill-rule:evenodd;clip-rule:evenodd;stroke-linejoin:round;stroke-miterlimit:2;"><title>Agrikaab</title><desc>We enable investment in farming projects in East Africa that boost local agriculture and create jobsAgrikaab is a mission-driven startup that enables anyone to invest in African agriculture from their smartphone. We are currently active in Somalia where we provide microloans (murabaha) to farmers, livestock herders and agrifood entrepreneurs.</desc>    <g id="layer102" transform="matrix(0.356481,0,0,0.356363,-30.3258,-29.0923)">        <path d="M858.5,1513.4c198.3,-15.3 378.6,-110.9 503.9,-267c82.5,-102.8 134.4,-226.1 151.1,-358.9c6.7,-53.2 6.7,-121.8 0,-175c-16.7,-132.7 -68.6,-255.9 -151.1,-358.9c-150.6,-188 -381.5,-287 -621.4,-266.5c-109.6,9.3 -215.8,44.2 -310.8,102.1c-35.4,21.5 -75.4,51.3 -105.3,78.3c-12.4,11.3 -42.4,41.3 -53.4,53.5c-75.6,84.1 -130.2,184.3 -159.4,292.5c-8.5,31.5 -15.7,68.7 -19.5,101c-6.3,52.5 -6.3,118.5 0,171c14.7,124.3 62.7,243.6 138.5,344.5c40,53.2 89.2,102.3 142,142c85.2,63.8 179.6,106.6 283.6,128.6c37.1,7.8 81.4,13.2 121.8,14.8c16.1,0.6 60.6,-0.5 80,-2Z" style="fill:rgb(4,213,94);"/>        <path d="M579.2,1270.4c-19,-5.1 -32.6,-25.1 -30.9,-45.4c1,-11.4 2.2,-13.8 23.5,-46.5c58.5,-89.4 119.3,-160.5 183.7,-214.5c60.5,-50.7 126.3,-86.9 183.5,-100.9c49.4,-12.1 103.5,-17.4 179.2,-17.5c24.1,-0.1 43.8,-0.2 43.8,-0.3c0,-0.5 -24.5,-10.3 -34,-13.5c-81.3,-27.4 -175.5,-28.9 -265.5,-4.3c-17.3,4.7 -38.5,11.7 -52,17.2c-45.5,18.4 -97.6,54.7 -152.2,105.9c-7.2,6.8 -13.4,12.4 -13.7,12.4c-1.5,0 4,-32.9 8.4,-50.5c14.6,-58 37.3,-105 70.8,-147c7.8,-9.8 34.1,-35.8 43.7,-43.2c43.5,-33.9 91.2,-53.5 150,-61.7c43.6,-6.1 98.8,-4.5 154.5,4.5c12.2,2 16.8,2.9 35.5,7c66.4,14.5 147.4,46.4 208.3,82.1c4.5,2.6 8.4,4.8 8.6,4.8c1.1,0 37.4,22.8 50.6,31.7c24.5,16.7 53.9,39.1 68.3,52l3.9,3.4l-2.8,4.2c-15.7,24.1 -47.7,63.9 -74.8,93c-92,98.8 -190.6,160.3 -288.6,180.1c-27.7,5.6 -34.6,6.1 -76.5,6.1c-67,-0.1 -121.8,-6.4 -182.5,-21.1c-32,-7.8 -70.9,-20.9 -89.2,-30c-2.6,-1.3 -5.1,-2.4 -5.6,-2.4c-3.5,0 -45.2,74.8 -81,145c-15.3,30.1 -19,36.1 -25,40.8c-11.3,8.9 -28.1,12.4 -42,8.6Z" style="fill:white;fill-rule:nonzero;"/>        <path d="M571,839.9c-50,-24.2 -93.7,-61.8 -122.4,-105.2c-28.9,-43.7 -42.6,-90.8 -42.6,-146.2c0,-59.1 15.7,-118.9 48,-183c30.1,-59.8 67.6,-112.4 119.9,-168.5l6.1,-6.5l3.6,4c8.2,9.2 28.9,35.1 39.6,49.5c52.6,70.8 88.8,141.3 102.7,200c19.4,81.7 6.1,169.4 -37.4,246.5c-9.5,16.9 -24.6,39.5 -35,52.5c-8.3,10.5 -23.2,27 -24.3,27c-0.8,0 -2.3,-3.4 -9.8,-21.8c-32.8,-80.9 -53.8,-192.7 -56.1,-298.5c-0.3,-15.8 -0.9,-28.7 -1.3,-28.7c-0.8,0 -3.8,9.9 -9.6,32.5c-25.5,99.5 -22.7,179.5 10.1,288c3.6,11.7 7.3,23.7 8.4,26.6c1,3 4.5,12.5 7.6,21.2c3.2,8.7 5.5,16 5.3,16.2c-0.2,0.2 -6,-2.3 -12.8,-5.6Z" style="fill:white;fill-rule:nonzero;"/>    </g></svg>