<?xml version="1.0" encoding="UTF-8" standalone="no"?><!DOCTYPE svg PUBLIC "-//W3C//DTD SVG 1.1//EN" "http://www.w3.org/Graphics/SVG/1.1/DTD/svg11.dtd"><svg width="100%" height="100%" viewBox="0 0 512 512" version="1.1" xmlns="http://www.w3.org/2000/svg" xmlns:xlink="http://www.w3.org/1999/xlink" xml:space="preserve" style="fill-rule:evenodd;clip-rule:evenodd;stroke-linejoin:round;stroke-miterlimit:2;"><title>AltFi</title><desc>AltFi provides market-leading news, opinion, insights and events for the rapidly-growing alternative finance and fintech community. Our core focus is on disruption to lending, banking and investing, including peer-to-peer lending, challenger banks, digital wealth management and institutional adoption of crypto technology. In addition, AltFi runs major industry events around the world.</desc>    <g transform="matrix(1.13839,0,0,1.13839,1,1)">        <path d="M448,37.614c0,-20.76 -16.854,-37.614 -37.614,-37.614l-372.772,0c-20.76,0 -37.614,16.854 -37.614,37.614l0,372.772c0,20.76 16.854,37.614 37.614,37.614l372.772,0c20.76,0 37.614,-16.854 37.614,-37.614l0,-372.772Z" style="fill:url(#_Linear1);"/>        <rect x="23" y="24" width="402" height="400" style="fill:rgb(1,130,201);"/>        <g transform="matrix(1,0,0,1,-151,-93.5)">            <path d="M350.27,496.33c-3.816,-0.025 -7.61,-0.587 -11.27,-1.67c-4.157,-1.239 -7.986,-3.388 -11.21,-6.29c-3.781,-3.515 -6.674,-7.879 -8.44,-12.73c-2.1,-5.29 -3.16,-12.13 -3.16,-20.31c-0.093,-7.283 0.577,-14.556 2,-21.7c1.182,-6.089 3.882,-11.782 7.85,-16.55c4.102,-4.627 9.384,-8.056 15.28,-9.92c6.07,-2.06 13.83,-3.1 23.06,-3.1c2.1,0 4.26,0.1 6.42,0.29c1.1,0.1 2.32,0.2 3.65,0.3l0,-10.94c0.147,-3.503 -0.717,-6.975 -2.49,-10c-0.5,-0.76 -2,-3.1 -8.13,-3.1c-2.897,-0.003 -5.706,1.005 -7.94,2.85c-2.39,1.89 -3.93,4.65 -4.69,8.46l-0.57,2.84l-34.13,0l0.27,-3.79c1,-13.58 5.62,-24.6 13.79,-32.77c4.134,-4.1 9.043,-7.336 14.44,-9.52c5.991,-2.37 12.388,-3.546 18.83,-3.46c6.075,-0.03 12.109,0.985 17.84,3c5.515,1.939 10.544,5.051 14.74,9.12c4.295,4.288 7.644,9.428 9.83,15.09c2.497,6.624 3.712,13.662 3.58,20.74l0,101.5l-35.33,0l0,-8.72c-1.886,2.032 -3.955,3.886 -6.18,5.54c-4.39,3.21 -10.46,4.84 -18.04,4.84Zm20,-63c-4.845,-0.164 -9.631,1.113 -13.75,3.67c-3.32,2.19 -4.94,6.36 -4.94,12.73c0,4.6 1,8.16 3.14,10.87c1.93,2.48 4.48,3.63 8,3.63c3.76,0 6.56,-1.14 8.55,-3.48c1.99,-2.34 3.18,-6.19 3.18,-11l0,-16.1c-1.392,-0.195 -2.795,-0.302 -4.2,-0.32l0.02,0Z" style="fill:white;fill-rule:nonzero;"/>        </g>        <g transform="matrix(1,0,0,1,-151,-93.5)">            <path d="M480.91,496.33l-3.53,0c-6.133,0.046 -12.257,-0.486 -18.29,-1.59c-5.407,-0.938 -10.504,-3.18 -14.85,-6.53c-4.328,-3.585 -7.591,-8.29 -9.43,-13.6c-2.08,-5.55 -3.14,-12.69 -3.14,-21.22l0,-163.39l35.33,0l0,161.44c0,5.94 1.31,7.9 1.88,8.46c0.76,0.76 2.91,2.12 8.83,2.73l3.17,0.33l0.03,33.37Z" style="fill:white;fill-rule:nonzero;"/>        </g>        <g transform="matrix(1,0,0,1,-151,-93.5)">            <path d="M553.06,494.66l-15.18,0c-7,0 -12.94,-1.14 -17.74,-3.39c-4.483,-1.999 -8.461,-4.98 -11.64,-8.72c-2.886,-3.508 -5.041,-7.557 -6.34,-11.91c-1.279,-4.059 -1.953,-8.285 -2,-12.54l0,-81.95l-14.11,0l0,-29.26l14.15,0l0,-42.74l35.37,0l0,42.74l17.48,0l0,29.27l-17.47,0l0,74.45c-0.101,2.227 0.159,4.456 0.77,6.6c0.277,0.965 0.868,1.81 1.68,2.4c1.136,0.669 2.422,1.044 3.74,1.09c2.1,0.18 4.71,0.27 7.76,0.27l3.53,0l0,33.69Z" style="fill:white;fill-rule:nonzero;"/>        </g>    </g>    <defs>        <linearGradient id="_Linear1" x1="0" y1="0" x2="1" y2="0" gradientUnits="userSpaceOnUse" gradientTransform="matrix(-290.32,502.86,-502.86,-290.32,369.16,-27.43)"><stop offset="0" style="stop-color:rgb(73,196,229);stop-opacity:1"/><stop offset="1" style="stop-color:rgb(7,127,197);stop-opacity:1"/></linearGradient>    </defs></svg>