<?xml version="1.0" encoding="UTF-8" standalone="no"?><!DOCTYPE svg PUBLIC "-//W3C//DTD SVG 1.1//EN" "http://www.w3.org/Graphics/SVG/1.1/DTD/svg11.dtd"><svg width="100%" height="100%" viewBox="0 0 512 512" version="1.1" xmlns="http://www.w3.org/2000/svg" xmlns:xlink="http://www.w3.org/1999/xlink" xml:space="preserve" style="fill-rule:evenodd;clip-rule:evenodd;stroke-linejoin:round;stroke-miterlimit:2;"><title>Target Circle</title><desc></desc>    <g transform="matrix(1.80865,0,0,1.80865,-2.61731,-207.015)">        <g transform="matrix(0.570378,0,0,0.570378,-16.948,99.9723)">            <path d="M279.83,408.356c-11.92,0 -23.263,-1.115 -33.056,-3.242l0,-24.008l0.054,-0.008l0,-279.37l-5.505,1.262c-46.286,10.61 -86.662,40.043 -111.167,80.934l-75.283,0c17.35,-43.56 46.717,-80.903 85.244,-108.294c41.192,-29.287 89.705,-44.767 140.294,-44.767c50.586,0 99.099,15.479 140.287,44.766c38.525,27.391 67.895,64.734 85.241,108.294l-75.276,0c-24.726,-41.276 -65.508,-70.802 -112.286,-81.193l-5.476,-1.216l0,278.389l0.007,0.004l0,25.219c-9.777,2.117 -21.128,3.23 -33.078,3.23Z" style="fill:rgb(0,180,255);fill-rule:nonzero;"/>            <path d="M280.41,35.363c49.646,0 97.255,15.192 137.68,43.933c19.472,13.843 36.727,30.473 51.286,49.427c12.041,15.672 22.04,32.68 29.82,50.699l-66.006,0c-25.478,-41.186 -66.688,-70.612 -113.839,-81.086l-10.951,-2.433l0,286.733l0.007,0.004l0,18.789c-8.629,1.576 -18.526,2.426 -28.577,2.426c-10.187,0 -19.918,-0.834 -28.556,-2.43l0,-16.381l0.054,-0.006l0,-7.902l0,-269.76l0,-11.295l-11.011,2.524c-46.648,10.693 -87.44,40.021 -112.69,80.82l-66.013,0c7.781,-18.019 17.78,-35.027 29.821,-50.699c14.562,-18.955 31.818,-35.584 51.288,-49.427c40.426,-28.744 88.037,-43.936 137.687,-43.936m0,-9c-106.399,0 -197.312,67.575 -232.08,162.06l84.396,0c23.389,-40.38 62.867,-70.334 109.602,-81.047l0,269.762c-0.022,0.002 -0.039,0.01 -0.054,0.016l0,31.527c10.394,2.609 23.394,4.176 37.556,4.176c14.156,0 27.187,-1.555 37.577,-4.16l0,-31.533c-0.002,-0.002 -0.005,-0.002 -0.007,-0.002l0,-270.038c47.215,10.488 87.123,40.6 110.689,81.3l84.391,0c-34.767,-94.485 -125.678,-162.061 -232.07,-162.061Z" style="fill:rgb(0,180,255);fill-rule:nonzero;"/>        </g>        <g transform="matrix(0.570378,0,0,0.570378,-16.948,99.9723)">            <path d="M280.41,516.237c-133.819,0 -242.689,-108.869 -242.689,-242.688c0,-16.868 1.75,-33.702 5.204,-50.097l69.778,-0.002c-4.856,16.205 -7.314,33.027 -7.314,50.099c0,96.506 78.515,175.022 175.022,175.022c96.502,0 175.013,-78.518 175.013,-175.022c0,-17.063 -2.459,-33.888 -7.313,-50.097l69.777,0c3.453,16.396 5.203,33.229 5.203,50.097c-0.001,133.819 -108.867,242.688 -242.681,242.688Z" style="fill:rgb(171,195,45);fill-rule:nonzero;"/>            <path d="M106.762,227.952c-3.902,14.827 -5.875,30.114 -5.875,45.599c0,98.988 80.533,179.521 179.522,179.521c98.983,0 179.513,-80.533 179.513,-179.521c0,-15.479 -1.973,-30.766 -5.875,-45.597l60.158,0c2.911,14.96 4.386,30.265 4.386,45.597c0,131.337 -106.849,238.189 -238.182,238.189c-131.338,0 -238.189,-106.854 -238.189,-238.189c0,-15.334 1.473,-30.638 4.383,-45.597l60.159,-0.002m12.1,-9.001l-79.561,0.003c-3.978,17.569 -6.081,35.842 -6.081,54.597c0,136.298 110.89,247.189 247.189,247.189c136.291,0 247.181,-110.891 247.181,-247.189c0,-18.755 -2.104,-37.027 -6.08,-54.597l-79.563,0c5.815,17.147 8.975,35.509 8.975,54.597c0,94.023 -76.492,170.521 -170.513,170.521c-94.021,0 -170.522,-76.498 -170.522,-170.521c0,-19.092 3.158,-37.454 8.975,-54.6Z" style="fill:rgb(171,195,45);fill-rule:nonzero;"/>        </g>    </g></svg>