<?xml version="1.0" encoding="UTF-8" standalone="no"?><!DOCTYPE svg PUBLIC "-//W3C//DTD SVG 1.1//EN" "http://www.w3.org/Graphics/SVG/1.1/DTD/svg11.dtd"><svg width="100%" height="100%" viewBox="0 0 512 512" version="1.1" xmlns="http://www.w3.org/2000/svg" xmlns:xlink="http://www.w3.org/1999/xlink" xml:space="preserve" style="fill-rule:evenodd;clip-rule:evenodd;stroke-linejoin:round;stroke-miterlimit:2;"><title>MiCrowd</title><desc>Microwd is a fintech that connects women entrepreneurs in Latin America who want a microloan with investors looking for economic profitability and social impact. We are not an NGO, we are a company. We are competitive with the stock market and we create WIN-WIN situations.  Our mission is to accelerate the development of communities through financial services.</desc>    <g transform="matrix(2.18354,0,0,1.21646,-10.9108,183.849)">        <g transform="matrix(0.706214,0,0,1.26567,-42.0936,-257.481)">            <rect x="67.329" y="84.674" width="330.729" height="331.246" style="fill:rgb(0,255,168);"/>        </g>        <g transform="matrix(68.9067,0,0,152.042,56.0245,106.707)">            <rect x="0.07" y="-0.742" width="0.174" height="0.936" style="fill:rgb(4,4,4);fill-rule:nonzero;"/>        </g>        <g transform="matrix(84.6767,0,0,158.191,80.941,117.268)">            <path d="M0.702,0l-0.002,-0.371l-0.18,0.302l-0.088,0l-0.179,-0.292l0,0.361l-0.183,0l0,-0.7l0.163,0l0.246,0.404l0.24,-0.404l0.163,0l0.002,0.7l-0.182,0Z" style="fill:rgb(4,4,4);fill-rule:nonzero;"/>        </g>        <g transform="matrix(0.457971,0,0,0.822054,1.79105,-144.558)">            <circle cx="376.345" cy="300.408" r="17.121" style="fill:rgb(4,4,4);"/>        </g>    </g></svg>