<?xml version="1.0" encoding="UTF-8" standalone="no"?><!DOCTYPE svg PUBLIC "-//W3C//DTD SVG 1.1//EN" "http://www.w3.org/Graphics/SVG/1.1/DTD/svg11.dtd"><svg width="100%" height="100%" viewBox="0 0 512 512" version="1.1" xmlns="http://www.w3.org/2000/svg" xmlns:xlink="http://www.w3.org/1999/xlink" xml:space="preserve" style="fill-rule:evenodd;clip-rule:evenodd;stroke-linejoin:round;stroke-miterlimit:2;"><title>EcoFinance</title><desc>Established in 2015, EcoFinance has become one of the leading consumer lenders for subprime and underbanked clients in Russia. The company is run by seasoned banking executives with vast international experience in finance and IT. EcoFinance puts a strong emphasis on responsible lending. The company has its own algorithms to automate the process of assessing the creditworthiness of clients. Their online service allows borrowers to send loan applications via SMS or website, and funds can be accessed after two minutes. EcoFinance holds a full general microfinance company license provided by the Central Bank of Russia.</desc>    <g>        <g transform="matrix(1.0534,0,0,1.18963,-8.08818,-37.3466)">            <path d="M478.534,65.533c0,-11.419 -10.47,-20.69 -23.365,-20.69l-408.937,0c-12.895,0 -23.365,9.271 -23.365,20.69l0,362.108c0,11.419 10.47,20.69 23.365,20.69l408.937,0c12.895,0 23.365,-9.271 23.365,-20.69l0,-362.108Z" style="fill:rgb(90,92,105);"/>        </g>        <g transform="matrix(387.225,0,0,408.163,142.35,412.735)">            <path d="M0.07,-0.041l0.447,0l0,-0.109l-0.305,0l0,-0.19l0.233,0l0,-0.106l-0.233,0l0,-0.174l0.298,0l0,-0.107l-0.44,0l0,0.686Z" style="fill:rgb(140,191,80);fill-rule:nonzero;"/>        </g>    </g></svg>