<?xml version="1.0" encoding="UTF-8" standalone="no"?><!DOCTYPE svg PUBLIC "-//W3C//DTD SVG 1.1//EN" "http://www.w3.org/Graphics/SVG/1.1/DTD/svg11.dtd"><svg width="100%" height="100%" viewBox="0 0 512 512" version="1.1" xmlns="http://www.w3.org/2000/svg" xmlns:xlink="http://www.w3.org/1999/xlink" xml:space="preserve" style="fill-rule:evenodd;clip-rule:evenodd;stroke-miterlimit:10;"><title>Assetz Capital</title><desc>Lend to UK businesses with strong security through Assetz Capital and earn from 4.1% pa. All loans are secured by tangible assets and we don’t charge any investor fees.</desc>    <g transform="matrix(1,0,0,1,192,192)">        <g transform="matrix(4.61288,0,0,4.61288,-231.224,-231.754)">            <path d="M101.32,27.28l0,-6.28c-14.143,-0.049 -27.719,5.641 -37.6,15.76c-9.756,-9.908 -23.096,-15.489 -37,-15.48l0,6.31c12.386,0.025 24.246,5.081 32.84,14c-1.076,1.427 -2.077,2.909 -3,4.44c-7.649,-8.405 -18.515,-13.184 -29.88,-13.14l0,6.31c10.369,0.064 20.17,4.817 26.64,12.92c-0.875,1.991 -1.623,4.035 -2.24,6.12c-5.174,-8.502 -14.447,-13.694 -24.4,-13.66l0,6.31c12.145,0.053 22.152,9.966 22.32,22.11l6.31,0c-0.001,-4.822 0.773,-9.613 2.29,-14.19c2.21,4.564 3.359,9.569 3.36,14.64l0,33.78l6.17,0l0,-33.8c0,-0.9 0,-1.78 -0.1,-2.66c0.255,-4.15 1.272,-8.218 3,-12c1.517,4.59 2.281,9.396 2.26,14.23l6.31,0c0,-12.91 10.37,-22.36 22.72,-22.36l0,-6.33c-10.131,-0.152 -19.622,5.06 -24.93,13.69c-0.624,-2.045 -1.375,-4.049 -2.25,-6c6.575,-8.276 16.611,-13.076 27.18,-13l0,-6.38c-11.571,-0.105 -22.637,4.808 -30.32,13.46c-0.953,-1.553 -1.988,-3.056 -3.1,-4.5c8.71,-9.135 20.798,-14.307 33.42,-14.3Zm-34.42,24.38c-1.159,1.888 -2.163,3.868 -3,5.92c-0.893,-2.107 -1.964,-4.134 -3.2,-6.06c0.913,-1.689 1.932,-3.319 3.05,-4.88c1.158,1.603 2.21,3.28 3.15,5.02Z" style="fill:rgb(10,4,68);fill-rule:nonzero;stroke:black;stroke-width:0.25px;"/>        </g>        <g transform="matrix(4.61288,0,0,4.61288,-231.224,-231.224)">            <path d="M75.14,9l-66.42,0l0,110l110.56,0l0,-110l-44.14,0Zm-9.14,6.17l47.15,0l0,97.65l-98.26,0l0,-97.65l51.11,0Z" style="fill:rgb(10,4,68);fill-rule:nonzero;stroke:black;stroke-width:0.25px;"/>        </g>    </g></svg>