<?xml version="1.0" encoding="UTF-8" standalone="no"?><!DOCTYPE svg PUBLIC "-//W3C//DTD SVG 1.1//EN" "http://www.w3.org/Graphics/SVG/1.1/DTD/svg11.dtd"><svg width="100%" height="100%" viewBox="0 0 512 512" version="1.1" xmlns="http://www.w3.org/2000/svg" xmlns:xlink="http://www.w3.org/1999/xlink" xml:space="preserve" style="fill-rule:evenodd;clip-rule:evenodd;stroke-linejoin:round;stroke-miterlimit:2;"><title>LoanBook</title><desc>Launched in late 2013, with offices in Barcelona and Madrid, LoanBook is Spain’s leading marketplace lending platform, offering working capital loans of up to €200k to Spanish SMEs. With near a 40% market share, LoanBook has lent nearly €40m to date and has doubled its volumes in each of the last 3 years.</desc>    <g transform="matrix(1,0,0,1,62.9831,-126.78)">        <g transform="matrix(787.412,0,0,676.477,-69.1285,637.78)">            <path d="M0.185,-0.754l0,0.647l0.241,0l0,0.107l-0.336,0l0,-0.754l0.095,0Z" style="fill:rgb(83,138,165);fill-rule:nonzero;"/>        </g>        <g transform="matrix(545.77,0,0,499.789,90.3625,507.808)">            <path d="M0.09,0l0,-0.754l0.114,0c0.05,0 0.09,0.004 0.12,0.012c0.03,0.008 0.056,0.021 0.077,0.039c0.021,0.02 0.038,0.043 0.05,0.072c0.013,0.029 0.019,0.058 0.019,0.088c0,0.054 -0.02,0.1 -0.062,0.137c0.04,0.014 0.072,0.038 0.095,0.072c0.023,0.034 0.035,0.073 0.035,0.118c0,0.059 -0.021,0.109 -0.062,0.15c-0.025,0.025 -0.054,0.042 -0.085,0.052c-0.034,0.009 -0.077,0.014 -0.128,0.014l-0.173,0Zm0.114,-0.43l0.036,0c0.042,0 0.073,-0.01 0.093,-0.028c0.019,-0.019 0.029,-0.047 0.029,-0.083c0,-0.035 -0.01,-0.062 -0.03,-0.081c-0.02,-0.018 -0.049,-0.027 -0.088,-0.027l-0.04,0l0,0.219Zm0,0.323l0.07,0c0.052,0 0.09,-0.01 0.114,-0.03c0.025,-0.022 0.038,-0.05 0.038,-0.083c0,-0.033 -0.012,-0.06 -0.037,-0.082c-0.024,-0.022 -0.066,-0.033 -0.127,-0.033l-0.058,0l0,0.228Z" style="fill:rgb(83,138,165);fill-rule:nonzero;"/>        </g>    </g></svg>