<?xml version="1.0" encoding="UTF-8" standalone="no"?><!DOCTYPE svg PUBLIC "-//W3C//DTD SVG 1.1//EN" "http://www.w3.org/Graphics/SVG/1.1/DTD/svg11.dtd"><svg width="100%" height="100%" viewBox="0 0 512 512" version="1.1" xmlns="http://www.w3.org/2000/svg" xmlns:xlink="http://www.w3.org/1999/xlink" xml:space="preserve" style="fill-rule:evenodd;clip-rule:evenodd;stroke-linejoin:round;stroke-miterlimit:2;"><title>CrossLend</title><desc>CrossLend is a B2B digital debt marketplace, Flexible, transparent, real-time capital markets access for institutional investors and originatorsWe offer a technology-driven platform, connecting loan originators and institutional investors across borders and asset classes.</desc>    <g transform="matrix(7.66547,0,0,7.66547,-11.882,107.532)">        <path d="M44.126,11.72l19.035,0c0.001,0 0.003,0 0.004,0c0.357,0 0.65,0.293 0.65,0.65c0,0.063 -0.009,0.125 -0.027,0.186l-0.686,1.986c-0.083,0.279 -0.342,0.472 -0.633,0.472l-18.858,0.006l0.515,-3.3Zm-0.033,15.434l16.128,-0.007c0.25,0 0.47,-0.192 0.54,-0.473l0.588,-1.98c0.105,-0.418 -0.163,-0.836 -0.536,-0.836l-16.286,0l-0.434,3.296Zm0.761,-6.16l21.806,-0.006c0.338,0 0.636,-0.192 0.731,-0.473l0.79,-1.978c0.143,-0.419 -0.22,-0.837 -0.724,-0.837l-22.017,0l-0.586,3.294Zm-34.678,14.007l-0.017,0c-0.215,0.009 -8.017,-0.025 -8.017,-0.025c-0.254,-0.002 -0.461,-0.211 -0.461,-0.465c0,-0.028 0.002,-0.055 0.007,-0.082l0.535,-2.939c0.04,-0.22 0.235,-0.382 0.459,-0.381l7.218,0.026c6.406,-0.072 11.637,-5.362 11.637,-11.768c0,-6.329 -5.106,-11.583 -11.433,-11.765l-3.137,0c0,0 0,0 0,0c-0.255,0 -0.464,-0.209 -0.464,-0.464c0,-0.028 0.002,-0.056 0.007,-0.084c0.149,-0.799 0.42,-2.26 0.547,-2.948c0.042,-0.218 0.233,-0.377 0.454,-0.378c1.115,0 2.327,-0.007 2.425,0c5.262,0.154 10.105,2.951 12.868,7.432c0.145,0.23 0.422,0.342 0.686,0.278c0.168,-0.042 0.313,-0.15 0.401,-0.3c2.849,-4.608 7.895,-7.42 13.313,-7.418l11.857,0c0.255,0 0.465,0.21 0.465,0.465c0,0.028 -0.003,0.056 -0.008,0.083l-0.54,2.953c-0.04,0.219 -0.233,0.38 -0.456,0.381l-11.372,0.005l-0.017,0c-6.306,0.21 -11.378,5.454 -11.378,11.763c0,6.449 5.3,11.759 11.75,11.769l0.026,0l15.897,-0.051c0.253,0.002 0.46,0.211 0.46,0.464c0,0.028 -0.003,0.056 -0.007,0.083l-0.549,3.001c-0.041,0.219 -0.234,0.381 -0.458,0.381l-15.328,0c-0.017,-0.002 -0.035,-0.002 -0.053,0l-0.025,0l-0.265,0c-5.428,0.003 -10.483,-2.819 -13.328,-7.442c-0.114,-0.184 -0.317,-0.297 -0.534,-0.297c-0.217,0 -0.42,0.113 -0.534,0.297c-2.716,4.413 -7.455,7.198 -12.631,7.426Z" style="fill:rgb(41,24,63);fill-rule:nonzero;"/>    </g></svg>