<?xml version="1.0" encoding="UTF-8" standalone="no"?><!DOCTYPE svg PUBLIC "-//W3C//DTD SVG 1.1//EN" "http://www.w3.org/Graphics/SVG/1.1/DTD/svg11.dtd"><svg width="100%" height="100%" viewBox="0 0 512 512" version="1.1" xmlns="http://www.w3.org/2000/svg" xmlns:xlink="http://www.w3.org/1999/xlink" xml:space="preserve" style="fill-rule:evenodd;clip-rule:evenodd;stroke-linejoin:round;stroke-miterlimit:2;"><title>Walliance</title><desc>Our purpose is to build a better world through sustainable real estate developments, for an healthy financial and green planetWe stand up for equality and we stand for causes that reflect our values. We seek to encourage people to help shape a better future and create a world where architecture and real estate investments are safe.</desc>    <g>        <g transform="matrix(3.08492,0,0,3.08492,-510.355,-546.8)">            <path d="M309.017,204.061c13.695,14.744 22.063,34.488 22.063,56.172c-0,45.622 -37.039,82.66 -82.66,82.66c-22.861,0 -43.567,-9.3 -58.532,-24.32c14.934,14.831 35.507,23.996 58.207,23.996c22.815,0 43.524,-9.301 58.442,-24.219c14.917,-14.917 24.218,-35.626 24.218,-58.441c0,-8.95 -1.404,-17.55 -4.036,-25.447c-13.865,1.579 -21.937,4.738 -28.606,10.705c-7.898,7.196 -10.881,15.971 -14.567,24.921c-6.844,16.321 -12.285,22.639 -21.937,22.639c-16.848,0 -12.987,-21.761 -10.706,-36.152c1.58,-11.057 1.58,-16.673 -0.877,-16.673c-4.388,0 -9.126,17.199 -11.759,26.325c-6.844,23.692 -10.705,36.328 -23.165,36.328c-17.726,0 -11.583,-25.096 -10.53,-64.759l11.583,0c-0.527,23.868 -4.739,53.176 0.175,53.176c2.106,0 4.738,-6.318 10.705,-27.728c5.09,-18.077 9.302,-34.925 24.746,-34.925c14.391,0 12.46,14.567 10.354,29.484c-1.755,13.338 -3.685,23.341 0,23.341c1.755,0 4.914,-2.281 10.355,-15.443c3.334,-8.073 7.897,-20.885 17.901,-29.133c8.248,-7.371 19.655,-10.706 32.291,-12.285c-3.523,-7.354 -8.117,-14.173 -13.665,-20.222Z" style="fill:white;"/>        </g>        <g transform="matrix(5.41401,0,0,5.41401,510,255)">            <path d="M-80.267,33.427c-8.495,-8.521 -13.748,-20.273 -13.748,-33.242c-0,-25.995 21.105,-47.1 47.1,-47.1c12.974,-0 24.73,5.257 33.25,13.755l0.89,0.929l0.389,0.408c3.16,3.447 5.778,7.333 7.786,11.523c-7.2,0.9 -13.7,2.8 -18.4,7c-5.7,4.7 -8.3,12 -10.2,16.6c-3.1,7.5 -4.9,8.8 -5.9,8.8c-2.1,-0 -1,-5.7 0,-13.3c1.2,-8.5 2.3,-16.8 -5.9,-16.8c-8.8,-0 -11.2,9.6 -14.1,19.9c-3.4,12.2 -4.9,15.8 -6.1,15.8c-2.8,-0 -0.4,-16.7 -0.1,-30.3l-6.6,-0c-0.6,22.6 -4.1,36.9 6,36.9c7.1,-0 9.3,-7.2 13.2,-20.7c1.5,-5.2 4.2,-15 6.7,-15c1.4,-0 1.4,3.2 0.5,9.5c-1.3,8.2 -3.5,20.6 6.1,20.6c5.5,-0 8.6,-3.6 12.5,-12.9c2.1,-5.1 3.8,-10.1 8.3,-14.2c3.8,-3.4 8.4,-5.2 16.3,-6.1c1.5,4.5 2.3,9.4 2.3,14.5c-0,13 -5.3,24.8 -13.8,33.3c-8.5,8.5 -20.3,13.8 -33.3,13.8c-12.935,-0 -24.657,-5.222 -33.167,-13.673Z" style="fill:rgb(228,9,73);"/>        </g>    </g></svg>