<?xml version="1.0" encoding="UTF-8" standalone="no"?><!DOCTYPE svg PUBLIC "-//W3C//DTD SVG 1.1//EN" "http://www.w3.org/Graphics/SVG/1.1/DTD/svg11.dtd"><svg width="100%" height="100%" viewBox="0 0 512 512" version="1.1" xmlns="http://www.w3.org/2000/svg" xmlns:xlink="http://www.w3.org/1999/xlink" xml:space="preserve" style="fill-rule:evenodd;clip-rule:evenodd;stroke-linejoin:round;stroke-miterlimit:2;"><title>Lymo</title><desc>Lymo allows individuals to finance real estate projects rigorously selected, audited and developed by its teams.</desc>    <g transform="matrix(1,0,0,1,-18.7081,-16.0553)">        <g transform="matrix(3893.13,0,0,714.286,-229.452,527.055)">            <rect x="0.064" y="-0.714" width="0.131" height="0.714" style="fill:rgb(51,49,52);fill-rule:nonzero;"/>        </g>        <g transform="matrix(457.271,0,0,457.271,88.7713,375.17)">            <rect x="0.064" y="-0.714" width="0.131" height="0.714" style="fill:rgb(232,232,232);fill-rule:nonzero;"/>        </g>        <g transform="matrix(457.271,0,0,457.271,196.342,375.17)">            <path d="M0.007,-0.477l0.145,0l0.085,0.227l0.032,0.116l0.004,0l0.031,-0.117l0.074,-0.226l0.136,-0l-0.175,0.494c-0.01,0.027 -0.021,0.053 -0.033,0.078c-0.013,0.025 -0.028,0.049 -0.045,0.07c-0.018,0.021 -0.039,0.04 -0.063,0.057c-0.024,0.017 -0.052,0.03 -0.085,0.041l-0.055,-0.103c0.037,-0.013 0.069,-0.033 0.094,-0.058c0.025,-0.025 0.043,-0.056 0.052,-0.091l0.004,-0.013l-0.201,-0.475Z" style="fill:rgb(255,192,0);fill-rule:nonzero;"/>        </g>    </g></svg>