<?xml version="1.0" encoding="UTF-8" standalone="no"?><!DOCTYPE svg PUBLIC "-//W3C//DTD SVG 1.1//EN" "http://www.w3.org/Graphics/SVG/1.1/DTD/svg11.dtd"><svg width="100%" height="100%" viewBox="0 0 512 512" version="1.1" xmlns="http://www.w3.org/2000/svg" xmlns:xlink="http://www.w3.org/1999/xlink" xml:space="preserve" style="fill-rule:evenodd;clip-rule:evenodd;stroke-linejoin:round;stroke-miterlimit:2;"><title>1741 Group</title><desc>The 1741 Diversified (P2P Multi-Platform) Lending Fund provides institutional-grade access to the Swiss market place lending opportunity. We structure, manage, represent and distribute our clients fund ideas in Switzerland or the EU.</desc>    <g transform="matrix(6.16688,0,0,6.16688,1.00324,134.544)">        <path id="Fill-1" d="M10.17,0.618c0.008,0.046 0.014,0.956 0.014,1.118l0,22.932c0,1.386 0.363,2.267 1.092,2.644c0.728,0.378 1.22,0.275 3.21,0.347l0,1.084l-13.395,0l0,-1.138c2.139,-0.108 2.816,-0.077 3.47,-0.563c0.654,-0.485 0.982,-1.538 0.982,-3.157l0,-15.43c0,-0.863 -0.107,-1.52 -0.319,-1.97c-0.212,-0.449 -0.672,-0.674 -1.379,-0.674c-0.46,0 -1.056,0.131 -1.79,0.391c-0.733,0.261 -1.419,0.536 -2.056,0.823l0,-1.563l9.739,-5.006c0,0 0.186,-0.117 0.313,-0.04c0.111,0.068 0.11,0.158 0.119,0.202" style="fill:rgb(27,25,23);"/>        <g id="Fill-4" transform="matrix(1,0,0,1,68,0)">            <path d="M10.383,0.618c0.008,0.046 0.013,0.956 0.013,1.118l0,22.932c0,1.386 0.364,2.267 1.093,2.644c0.728,0.378 1.22,0.275 3.21,0.347l0,1.084l-13.396,0l0,-1.138c2.139,-0.108 2.817,-0.077 3.471,-0.563c0.654,-0.485 0.981,-1.538 0.981,-3.157l0,-15.43c0,-0.863 -0.106,-1.52 -0.318,-1.97c-0.212,-0.449 -0.672,-0.674 -1.379,-0.674c-0.46,0 -1.057,0.131 -1.79,0.391c-0.734,0.261 -1.418,0.536 -2.055,0.823l0,-1.563l9.738,-5.006c0,0 0.186,-0.117 0.313,-0.04c0.111,0.068 0.11,0.158 0.119,0.202" style="fill:rgb(27,25,23);"/>        </g>        <path id="Fill-7" d="M38,1l0,0.887l-12,37.113l-3.536,0l11.198,-33.942l-11.736,0c-1.74,0 -2.993,0.287 -3.754,0.861c-0.763,0.573 -1.728,1.774 -2.894,3.601l-1.278,-0.43c1.166,-2.867 1.888,-4.637 2.167,-5.308c0.278,-0.673 0.642,-1.599 1.09,-2.782l20.743,0Z" style="fill:rgb(27,25,23);"/>        <path id="Fill-9" d="M52.809,6.548l-13.516,18.64l13.516,0l0,-18.64Zm1.817,-5.548l2.618,0l0,24.188l5.756,0l0,3.575l-5.756,0l0,10.237l-4.379,0l0,-10.237l-15.865,0l0,-3.575l17.626,-24.188Z" style="fill:rgb(27,25,23);"/>    </g></svg>