<?xml version="1.0" encoding="UTF-8" standalone="no"?><!DOCTYPE svg PUBLIC "-//W3C//DTD SVG 1.1//EN" "http://www.w3.org/Graphics/SVG/1.1/DTD/svg11.dtd"><svg width="100%" height="100%" viewBox="0 0 512 512" version="1.1" xmlns="http://www.w3.org/2000/svg" xmlns:xlink="http://www.w3.org/1999/xlink" xml:space="preserve" style="fill-rule:evenodd;clip-rule:evenodd;stroke-linejoin:round;stroke-miterlimit:2;"><title>Mozzeno</title><desc>mozzeno.com is the first Belgian platform allowing investors to indirectly invest in the funding of consumer loans.After a positive assessment of their application, individual borrowers can be granted a loan from mozzeno, authorized lender.To indirectly invest in the funding of these loans, investors subscribe to financial instruments issued by mozzeno (Notes).</desc>    <g transform="matrix(6.6146,0,0,6.6146,-90.7206,-106.48)">        <path d="M26.3,20.3c0.2,-0.8 1,-1.5 1.8,-1.5l1.6,0c0.6,0 1.5,0.5 1.7,1.1l20.9,51.1l0.4,0l20.8,-51.1c0.2,-0.6 1,-1.1 1.7,-1.1l1.6,0c0.8,0 1.6,0.7 1.8,1.5l12.3,67.2c0.3,1.4 -0.4,2.3 -1.8,2.3l-6.5,0c-0.9,0 -1.7,-0.7 -1.9,-1.4l-7.4,-44.7l-0.3,0l-18,46c-0.2,0.6 -0.8,1.1 -1.7,1.1l-1.8,0c-0.8,0 -1.5,-0.5 -1.7,-1.1l-18.1,-46l-0.4,0l-7.2,44.7c-0.1,0.7 -1,1.4 -1.8,1.4l-6.5,0c-1.4,0 -2.1,-0.9 -1.9,-2.3l12.4,-67.2Z" style="fill:rgb(0,197,194);fill-rule:nonzero;"/>    </g></svg>