<?xml version="1.0" encoding="UTF-8" standalone="no"?><!DOCTYPE svg PUBLIC "-//W3C//DTD SVG 1.1//EN" "http://www.w3.org/Graphics/SVG/1.1/DTD/svg11.dtd"><svg width="100%" height="100%" viewBox="0 0 512 512" version="1.1" xmlns="http://www.w3.org/2000/svg" xmlns:xlink="http://www.w3.org/1999/xlink" xml:space="preserve" style="fill-rule:evenodd;clip-rule:evenodd;stroke-linejoin:round;stroke-miterlimit:2;"><title>Crowdo</title><desc>Crowdo is a regional Fintech platform offering a full portfolio of alternative financing solutions across Peer-to-Business Lending and Equity Crowdfunding. With operations in Singapore, Malaysia and Indonesia, Crowdo boasts a global community of over 30,000 members and has successfully financed more than 3,500 projects to date.</desc>    <g id="XMLID_1256_" transform="matrix(2.90268,1.97028e-17,1.97028e-17,2.82222,-1804.46,-534.364)">        <path d="M744.7,228.3c-13.9,0 -25.9,4.9 -35.1,12.6c4.9,5.6 8.7,12.1 11.2,19.3c5.3,-7.1 13.5,-11.7 23.6,-11.7c17.7,0 30.3,14.3 30.3,31.5l0,0.3c0,17.2 -12.3,31.2 -30,31.2c-17.7,0 -30.4,-14.6 -30.4,-31.7c0,-28.2 -21.8,-50 -53.3,-50l-39,0l0,100.1l39,0c13.6,0 25.2,-4.2 34.2,-11.1c-4.6,-5.7 -8.2,-12.1 -10.5,-19.2c-5.3,6.5 -13.5,10.5 -23.6,10.5l-17,0l0,-60.4l17,0c18,0 30.2,12.7 30.2,30.4c0,28.5 22.2,51.7 53.1,51.7c30.9,0 53.3,-23.3 53.3,-51.8l0,-0.3c0,-28.3 -22.2,-51.4 -53,-51.4Z" style="fill:rgb(215,25,32);fill-rule:nonzero;"/>    </g></svg>