<?xml version="1.0" encoding="UTF-8" standalone="no"?><!DOCTYPE svg PUBLIC "-//W3C//DTD SVG 1.1//EN" "http://www.w3.org/Graphics/SVG/1.1/DTD/svg11.dtd"><svg width="100%" height="100%" viewBox="0 0 512 512" version="1.1" xmlns="http://www.w3.org/2000/svg" xmlns:xlink="http://www.w3.org/1999/xlink" xml:space="preserve" style="fill-rule:evenodd;clip-rule:evenodd;stroke-linejoin:round;stroke-miterlimit:2;"><title>VQF</title><desc></desc>    <g transform="matrix(9.80518,0,0,9.80518,-3353.25,-9402.99)">        <g transform="matrix(1.33333,0,0,1.33333,362.749,994.145)">            <path d="M0,-10.9l1.65,0l1.308,6.012c0.218,0.965 0.389,2.023 0.545,2.896l0.062,0c0.156,-0.873 0.343,-1.931 0.545,-2.896l1.324,-6.012l1.635,0l-2.679,10.9l-1.712,0l-2.678,-10.9Z" style="fill:rgb(0,149,218);fill-rule:nonzero;"/>        </g>        <g transform="matrix(1.33333,0,0,1.33333,389.349,992.173)">            <path d="M0,-7.94l0,3.254l3.286,0l0,1.433l-3.286,0l0,4.732l-1.572,0l0,-10.898l5.137,0l0,1.479l-3.565,0Z" style="fill:rgb(0,149,218);fill-rule:nonzero;"/>        </g>        <g transform="matrix(1.33333,0,0,1.33333,376.785,988.131)">            <path d="M0,1.054l0,-3.986c0,-1.369 0.577,-2.118 1.713,-2.118c1.121,0 1.713,0.749 1.713,2.118l0,3.986c0,1.37 -0.592,2.118 -1.713,2.118c-1.136,0 -1.713,-0.748 -1.713,-2.118m1.713,3.66c2.086,0 3.332,-1.386 3.332,-3.66l0,-3.986c0,-2.273 -1.246,-3.659 -3.332,-3.659c-2.086,0 -3.332,1.386 -3.332,3.659l0,3.986c0,2.059 1.024,3.386 2.767,3.619l-0.738,0.738l-0.563,-0.096l-0.261,1.555l4.631,0.775l0.26,-1.552l-3.597,-0.604l0.779,-0.777c0.018,0 0.036,0.002 0.054,0.002" style="fill:rgb(0,149,218);fill-rule:nonzero;"/>        </g>        <g transform="matrix(-1.33333,0,0,1.33333,742.233,793.721)">            <rect x="277.573" y="133.601" width="22.529" height="0.397" style="fill:rgb(0,149,218);"/>        </g>        <g transform="matrix(-1.33333,0,0,1.33333,342.151,979.817)">            <rect x="-13.765" y="-0.16" width="13.805" height="0.16" style="fill:rgb(0,149,218);"/>        </g>        <g transform="matrix(-1.33333,0,0,1.33333,342.151,982.001)">            <rect x="-14.172" y="-0.159" width="14.212" height="0.159" style="fill:rgb(0,149,218);"/>        </g>        <g transform="matrix(-1.33333,0,0,1.33333,342.149,984.186)">            <rect x="-14.581" y="-0.159" width="14.62" height="0.159" style="fill:rgb(0,149,218);"/>        </g>        <g transform="matrix(-1.33333,0,0,1.33333,342.15,986.369)">            <rect x="-14.988" y="-0.158" width="15.027" height="0.158" style="fill:rgb(0,149,218);"/>        </g>        <g transform="matrix(-1.33333,0,0,1.33333,342.221,994.145)">            <path d="M-16.325,-0.398l16.424,0l0,0.398l-16.523,0l0.099,-0.398Z" style="fill:rgb(0,149,218);fill-rule:nonzero;"/>        </g>    </g></svg>