<?xml version="1.0" encoding="UTF-8" standalone="no"?><!DOCTYPE svg PUBLIC "-//W3C//DTD SVG 1.1//EN" "http://www.w3.org/Graphics/SVG/1.1/DTD/svg11.dtd"><svg width="100%" height="100%" viewBox="0 0 512 512" version="1.1" xmlns="http://www.w3.org/2000/svg" xmlns:xlink="http://www.w3.org/1999/xlink" xml:space="preserve" style="fill-rule:evenodd;clip-rule:evenodd;stroke-linejoin:round;stroke-miterlimit:2;"><title>Blockimmo</title><desc>Blockimmo is a blockchain powered platform, our ecosystem enables shared property investments and ownership. Properties are officially and legally represented as asset-backed tokens on the Ethereum blockchain. Their legitimacy is guaranteed by our legal framework which works in-sync with our technology.</desc>    <g id="Ebene-1" transform="matrix(5.16194,0,0,5.16194,-116.996,-41.0915)">        <g transform="matrix(1,0,0,1,57.398,74.9794)">            <path d="M0,-45.001l-9.577,5.162l0.004,34.87l9.57,4.969l8.725,-3.109l0.003,-38.105l-8.725,-3.787Zm0.016,0.389l8.359,3.628l-0.004,37.629l-8.348,2.974l-9.247,-4.801l-0.004,-34.448l9.244,-4.982Z" style="fill:rgb(66,185,190);fill-rule:nonzero;"/>        </g>        <g transform="matrix(1,0,0,1,49.1119,85.3786)">            <path d="M0,-45.908l-6.905,3.465l0.002,37.375l6.903,5.068l8.639,-3.614l-0.001,-39.151l-8.638,-3.143Zm0.022,0.381l8.266,3.007l0,38.673l-8.241,3.448l-6.6,-4.847l-0.003,-36.981l6.578,-3.3Z" style="fill:rgb(66,185,190);fill-rule:nonzero;"/>        </g>        <g transform="matrix(1,0,0,1,89.4263,84.1357)">            <path d="M0,-47.379l-7.87,3.132l0,40.708l7.869,3.539l10.485,-6.485l0,-35.852l-10.484,-5.042Zm-0.014,0.382l10.148,4.88l0,35.436l-10.16,6.285l-7.494,-3.37l0,-40.244l7.506,-2.987Z" style="fill:rgb(66,185,190);fill-rule:nonzero;"/>        </g>        <g transform="matrix(1,0,0,1,92.3668,75.2008)">            <path d="M0,-47.697l-5.671,2.509l0,43.171l5.669,2.017l9.946,-5.202l-0.001,-36.943l-9.943,-5.552Zm-0.018,0.391l9.612,5.366l0.001,36.526l-9.623,5.033l-5.292,-1.883l-0.001,-42.697l5.303,-2.345Z" style="fill:rgb(66,185,190);fill-rule:nonzero;"/>        </g>        <g transform="matrix(1,0,0,1,67.9849,84.7228)">            <path d="M0,-38.388l-8.256,3.274l-0.006,30.413l8.263,4.701l3.903,-1.922l0,-35.047l-3.904,-1.419Zm0.005,0.374l3.55,1.29l0,34.584l-3.541,1.743l-7.925,-4.508l0.005,-29.97l7.911,-3.139Z" style="fill:rgb(66,185,190);fill-rule:nonzero;"/>        </g>        <g transform="matrix(1,0,0,1,79.6812,96.6302)">            <path d="M0,-77.809l-8.992,4.804l0,67.417l8.992,5.588l7.372,-5.1l0,-68.521l-7.372,-4.188Zm-0.006,0.399l7.027,3.993l0,68.133l-7.032,4.866l-8.632,-5.366l0,-67.011l8.637,-4.615Z" style="fill:rgb(66,185,190);fill-rule:nonzero;"/>        </g>        <g transform="matrix(1,0,0,1,73.6597,85.0382)">            <path d="M0,-76.884l-9.964,6.2l-0.003,65.328l9.967,5.356l9.743,-5.117l-0.001,-65.775l-9.742,-5.992Zm0.001,0.412l9.392,5.776l0.001,65.367l-9.392,4.932l-9.618,-5.168l0.002,-64.924l9.615,-5.983Z" style="fill:rgb(66,185,190);fill-rule:nonzero;"/>        </g>        <g transform="matrix(1,0,0,1,74.7584,106.954)">            <path d="M0,-80.76l-11.065,5.584l0,66.756l11.012,8.42l7.091,-5.428l0,-71.759l-7.038,-3.573Zm-0.001,0.393l6.689,3.395l0,71.371l-6.741,5.159l-10.662,-8.151l0,-66.367l10.714,-5.407Z" style="fill:rgb(66,185,190);fill-rule:nonzero;"/>        </g>        <g transform="matrix(0.00285756,-42.8644,-42.8644,-0.00285756,61.7213,73.8445)">            <path d="M-0.026,0.101l1.049,0l-0.088,-0.204l-0.889,0l-0.072,0.204Z" style="fill:url(#_Linear1);fill-rule:nonzero;"/>        </g>        <g transform="matrix(34.8719,12.6783,12.6783,-34.8719,52.5743,59.2166)">            <path d="M0.272,0.468l0.112,0l0.322,-0.887l-0.081,-0.085l-0.353,0.972Z" style="fill:url(#_Linear2);fill-rule:nonzero;"/>        </g>        <g transform="matrix(65.4933,37.2153,37.2153,-65.4933,53.1379,40.5483)">            <path d="M0.164,0.425l0.112,0l0.45,-0.791l-0.052,-0.107l-0.51,0.898Z" style="fill:url(#_Linear3);fill-rule:nonzero;"/>        </g>        <g transform="matrix(50.7938,24.4256,24.4256,-50.7938,65.6716,46.503)">            <path d="M0.305,0.338l0.206,0l0.276,-0.573l-0.118,-0.184l-0.364,0.757Z" style="fill:url(#_Linear4);fill-rule:nonzero;"/>        </g>    </g>    <defs>        <linearGradient id="_Linear1" x1="0" y1="0" x2="1" y2="0" gradientUnits="userSpaceOnUse" gradientTransform="matrix(-0.999827,-0.018582,-0.018582,0.999827,1.00056,0.00929704)"><stop offset="0" style="stop-color:rgb(210,203,140);stop-opacity:1"/><stop offset="1" style="stop-color:rgb(67,182,163);stop-opacity:1"/></linearGradient>        <linearGradient id="_Linear2" x1="0" y1="0" x2="1" y2="0" gradientUnits="userSpaceOnUse" gradientTransform="matrix(0.341685,-0.939815,-0.939815,-0.341685,0.327789,0.467954)"><stop offset="0" style="stop-color:rgb(210,203,140);stop-opacity:1"/><stop offset="1" style="stop-color:rgb(197,155,108);stop-opacity:1"/></linearGradient>        <linearGradient id="_Linear3" x1="0" y1="0" x2="1" y2="0" gradientUnits="userSpaceOnUse" gradientTransform="matrix(0.494042,-0.869438,-0.869438,-0.494042,0.233529,0.401297)"><stop offset="0" style="stop-color:rgb(0,154,139);stop-opacity:1"/><stop offset="1" style="stop-color:rgb(1,104,102);stop-opacity:1"/></linearGradient>        <linearGradient id="_Linear4" x1="0" y1="0" x2="1" y2="0" gradientUnits="userSpaceOnUse" gradientTransform="matrix(0.433374,-0.901214,-0.901214,-0.433374,0.32347,0.514476)"><stop offset="0" style="stop-color:rgb(210,203,140);stop-opacity:1"/><stop offset="1" style="stop-color:rgb(197,155,108);stop-opacity:1"/></linearGradient>    </defs></svg>