<?xml version="1.0" encoding="UTF-8" standalone="no"?><!DOCTYPE svg PUBLIC "-//W3C//DTD SVG 1.1//EN" "http://www.w3.org/Graphics/SVG/1.1/DTD/svg11.dtd"><svg width="100%" height="100%" viewBox="0 0 512 512" version="1.1" xmlns="http://www.w3.org/2000/svg" xmlns:xlink="http://www.w3.org/1999/xlink" xml:space="preserve" style="fill-rule:evenodd;clip-rule:evenodd;stroke-linejoin:round;stroke-miterlimit:2;"><title>Flex Funding</title><desc>Flex Funding offers corporate loans on simple and competitive terms to healthy Danish companies.Flex Funding is the leading marketplace lender for SMEs in Denmark and the Faroe Islands.</desc>    <g id="Group" transform="matrix(3.46029,0,0,3.46233,76.2632,-2.56027)">        <g id="Rectangle-path" transform="matrix(0.866025,-0.5,0.5,0.866025,-55.7904,48.444)">            <path d="M77.125,118.035c0,-2.308 -1.874,-4.181 -4.183,-4.181l-20.879,0c-2.309,0 -4.183,1.873 -4.183,4.181l0,20.587c0,2.307 1.874,4.181 4.183,4.181l20.879,0c2.309,0 4.183,-1.874 4.183,-4.181l0,-20.587Z" style="fill:url(#_Linear1);"/>        </g>        <g id="Rectangle-path1"  transform="matrix(0.866025,-0.5,0.5,0.866025,-33.5359,41.0155)">            <path d="M94.86,72.793c0,-2.307 -1.874,-4.181 -4.183,-4.181l-61.819,0c-2.308,0 -4.182,1.874 -4.182,4.181l0,20.587c0,2.308 1.874,4.181 4.182,4.181l61.819,0c2.309,0 4.183,-1.873 4.183,-4.181l0,-20.587Z" style="fill:url(#_Linear2);"/>        </g>        <g id="Rectangle-path2" transform="matrix(0.866025,-0.5,0.5,0.866025,-13.4247,31.4331)">            <path d="M101.649,28.418c0,-2.768 -2.248,-5.016 -5.017,-5.016l-89.378,0c-2.77,0 -5.018,2.248 -5.018,5.016l0,24.698c0,2.769 2.248,5.016 5.018,5.016l89.378,0c2.769,0 5.017,-2.247 5.017,-5.016l0,-24.698Z" style="fill:url(#_Linear3);"/>        </g>    </g>    <defs>        <linearGradient id="_Linear1" x1="0" y1="0" x2="1" y2="0.000510897" gradientUnits="userSpaceOnUse" gradientTransform="matrix(-29.2446,3.58142e-15,-3.58142e-15,-29.2446,77.1248,128.328)"><stop offset="0" style="stop-color:rgb(66,165,245);stop-opacity:1"/><stop offset="1" style="stop-color:rgb(21,101,192);stop-opacity:1"/></linearGradient>        <linearGradient id="_Linear2" x1="0" y1="0" x2="1" y2="0.000510897" gradientUnits="userSpaceOnUse" gradientTransform="matrix(-70.1839,8.59505e-15,-8.59505e-15,-70.1839,94.8599,83.0866)"><stop offset="0" style="stop-color:rgb(66,165,245);stop-opacity:1"/><stop offset="1" style="stop-color:rgb(21,101,192);stop-opacity:1"/></linearGradient>        <linearGradient id="_Linear3" x1="0" y1="0" x2="1" y2="0.000510897" gradientUnits="userSpaceOnUse" gradientTransform="matrix(-99.4133,1.21746e-14,-1.21746e-14,-99.4133,101.649,40.7673)"><stop offset="0" style="stop-color:rgb(66,165,245);stop-opacity:1"/><stop offset="1" style="stop-color:rgb(21,101,192);stop-opacity:1"/></linearGradient>    </defs></svg>