<?xml version="1.0" encoding="UTF-8" standalone="no"?><!DOCTYPE svg PUBLIC "-//W3C//DTD SVG 1.1//EN" "http://www.w3.org/Graphics/SVG/1.1/DTD/svg11.dtd"><svg width="100%" height="100%" viewBox="0 0 512 512" version="1.1" xmlns="http://www.w3.org/2000/svg" xmlns:xlink="http://www.w3.org/1999/xlink" xml:space="preserve" style="fill-rule:evenodd;clip-rule:evenodd;stroke-linejoin:round;stroke-miterlimit:2;"><title>Immofunding</title><desc>IMMOFUNDING is a Vienna-based fintech company offering investors the opportunity to invest in attractive real estate projects through crowdinvesting. The management of IMMOFUNDING has many years of experience in the field of structured real estate financing and asset-backed investment in real estate projects.</desc>    <g transform="matrix(4.07151,0,0,4.07151,-7417.08,-106.655)">        <g transform="matrix(4.16667,0,0,4.16667,1869.35,98.0827)">            <path d="M0,-6.286c0.001,-3.636 -0.001,-7.272 0.001,-10.908c2.535,1.017 5.069,2.037 7.601,3.06c-0.001,4.069 0.002,8.139 -0.001,12.209c-0.454,-0.168 -0.898,-0.36 -1.349,-0.537c-0.159,-0.058 -0.31,-0.138 -0.475,-0.179c-0.002,2.024 -0.001,4.049 -0.001,6.073c-0.003,1.682 0.007,3.364 -0.007,5.045c0,0.676 0,1.352 0.001,2.029c-1.914,0.402 -3.942,0.246 -5.77,-0.448c-0.012,-5.448 0.005,-10.896 0,-16.344" style="fill:rgb(16,71,123);fill-rule:nonzero;"/>        </g>        <g transform="matrix(4.16667,0,0,4.16667,1837.25,125.54)">            <path d="M0,-11.391c1.318,-2.897 3.785,-5.249 6.746,-6.418c0,0.506 0.003,1.013 -0.002,1.519c-1.568,0.708 -2.955,1.803 -4.033,3.141c-1.202,1.491 -2.008,3.297 -2.308,5.188c-0.251,1.585 -0.159,3.224 0.278,4.769c0.703,2.51 2.331,4.743 4.497,6.192c1.007,0.68 2.128,1.192 3.301,1.507c2.216,0.597 4.617,0.487 6.765,-0.323c1.684,-0.63 3.209,-1.679 4.402,-3.023c1.75,-1.956 2.78,-4.553 2.8,-7.181c0.002,-0.083 0.017,-0.165 0.01,-0.247c-0.024,-0.28 -0.005,-0.564 -0.039,-0.844c-0.101,-1.253 -0.418,-2.488 -0.935,-3.634c-1.034,-2.312 -2.887,-4.247 -5.153,-5.377c-0.038,-0.02 -0.096,-0.041 -0.087,-0.095c-0.003,-0.489 -0.001,-0.979 -0.001,-1.468c0.121,0.029 0.231,0.088 0.344,0.139c2.468,1.137 4.543,3.102 5.811,5.505c1.204,2.252 1.677,4.882 1.35,7.414c-0.22,1.762 -0.83,3.473 -1.767,4.981c-0.857,1.383 -1.986,2.597 -3.304,3.551c-1.326,0.965 -2.846,1.664 -4.442,2.04c-1.998,0.473 -4.113,0.443 -6.097,-0.088c-2.406,-0.639 -4.606,-2.026 -6.228,-3.914c-1.746,-2.009 -2.824,-4.593 -3.002,-7.251c-0.045,-0.532 -0.038,-1.067 -0.018,-1.601c0.092,-1.544 0.463,-3.075 1.112,-4.482" style="fill:rgb(16,71,123);fill-rule:nonzero;"/>        </g>        <g transform="matrix(4.16667,0,0,4.16667,1854.45,134.727)">            <path d="M0,-10.384c0.861,-0.289 1.733,-0.547 2.595,-0.834c0.013,1.781 0.002,3.563 0.006,5.344c-0.002,2.236 0.005,4.472 -0.009,6.708c-0.946,-0.489 -1.832,-1.105 -2.587,-1.859c0.007,-2.015 -0.006,-4.029 -0.004,-6.043c-0.001,-1.105 0.001,-2.211 -0.001,-3.316" style="fill:rgb(16,71,123);fill-rule:nonzero;"/>        </g>        <g transform="matrix(4.16667,0,0,4.16667,1897.11,140.908)">            <path d="M0,-11.815c1.67,0.597 3.339,1.197 5.006,1.8c-0.001,0.688 0.002,1.375 -0.001,2.062c-0.548,-0.155 -1.096,-0.31 -1.647,-0.455c-0.001,2.218 -0.003,4.435 0,6.653c-0.988,0.791 -2.136,1.371 -3.339,1.755c-0.016,-0.065 -0.022,-0.132 -0.013,-0.199c-0.013,-3.87 -0.007,-7.744 -0.006,-11.616" style="fill:rgb(16,71,123);fill-rule:nonzero;"/>        </g>        <g transform="matrix(4.16667,0,0,4.16667,1848.87,125.499)">            <path d="M0,-4.434c0.124,-0.041 0.245,-0.089 0.374,-0.111c0.001,1.551 -0.003,3.104 0.002,4.656c-0.896,-1.175 -1.56,-2.537 -1.88,-3.982c-0.008,-0.009 -0.025,-0.026 -0.034,-0.034c0.066,-0.034 0.134,-0.061 0.204,-0.083c0.445,-0.148 0.89,-0.297 1.334,-0.446" style="fill:rgb(16,71,123);fill-rule:nonzero;"/>        </g>        <g transform="matrix(4.16667,0,0,4.16667,1914.93,130.242)">            <path d="M0,-4.87c0.664,0.183 1.322,0.39 1.986,0.575c0.182,0.047 0.359,0.116 0.546,0.145c0.001,0.032 -0.001,0.064 -0.007,0.096c-0.509,1.524 -1.388,2.916 -2.52,4.054c0.003,-1.624 -0.006,-3.247 -0.005,-4.87" style="fill:rgb(16,71,123);fill-rule:nonzero;"/>        </g>    </g></svg>