<?xml version="1.0" encoding="UTF-8" standalone="no"?><!DOCTYPE svg PUBLIC "-//W3C//DTD SVG 1.1//EN" "http://www.w3.org/Graphics/SVG/1.1/DTD/svg11.dtd"><svg width="100%" height="100%" viewBox="0 0 512 512" version="1.1" xmlns="http://www.w3.org/2000/svg" xmlns:xlink="http://www.w3.org/1999/xlink" xml:space="preserve" style="fill-rule:evenodd;clip-rule:evenodd;stroke-linejoin:round;stroke-miterlimit:2;"><title>Lendermarket</title><desc>Lendermarket is the provider of lending marketplace platform that connects investors with borrowers. At Lendermarket, both retail and institutional investors can invest in consumer loans originated across Europe.Lendermarket is a sister company of Creditstar Group AS, which is the parent company of Creditstar’s operational subsidiaries.Lendermarket is a P2P crowdfunding marketplace that brings you investment opportunities from Creditstar Group’s companies across different European markets. Creditstar Group is a leading digital consumer finance company in Europe.</desc>    <g transform="matrix(3.57423,0,0,3.57423,1,-541.889)">        <g transform="matrix(2.02073e-15,5.27803,5.27803,-2.02073e-15,-0.00088143,152.357)">            <path d="M11.31,4.266c0.87,-1.751 3.368,-1.751 4.238,0l9.611,19.35c0.781,1.573 -0.363,3.419 -2.119,3.419l-19.223,0c-1.756,0 -2.9,-1.846 -2.119,-3.419l9.612,-19.35Z" style="fill:rgb(236,46,14);"/>        </g>        <g transform="matrix(-2.02073e-15,5.27803,-5.27803,-2.02073e-15,142.689,152.357)">            <path d="M11.31,4.266c0.87,-1.751 3.368,-1.751 4.238,0l9.611,19.35c0.781,1.573 -0.363,3.419 -2.119,3.419l-19.223,0c-1.756,0 -2.9,-1.846 -2.119,-3.419l9.612,-19.35Z" style="fill:rgb(255,175,0);fill-opacity:0.7;"/>        </g>    </g></svg>