<?xml version="1.0" encoding="UTF-8" standalone="no"?><!DOCTYPE svg PUBLIC "-//W3C//DTD SVG 1.1//EN" "http://www.w3.org/Graphics/SVG/1.1/DTD/svg11.dtd"><svg width="100%" height="100%" viewBox="0 0 512 512" version="1.1" xmlns="http://www.w3.org/2000/svg" xmlns:xlink="http://www.w3.org/1999/xlink" xml:space="preserve" style="fill-rule:evenodd;clip-rule:evenodd;stroke-linejoin:round;stroke-miterlimit:2;"><title>ACLE</title><desc></desc>    <g transform="matrix(1.51763,0,0,1.51763,-132.514,-132.514)">        <g transform="matrix(0.523402,0,0,0.523402,48.9947,48.9947)">            <path d="M395.5,74.475c177.179,0 321.025,143.846 321.025,321.025c0,177.179 -143.846,321.025 -321.025,321.025c-177.179,0 -321.025,-143.846 -321.025,-321.025c0,-177.179 143.846,-321.025 321.025,-321.025Zm-146.373,528.389c41.375,29.273 91.881,46.481 146.373,46.481c55.658,0 107.157,-17.952 149.016,-48.376l-147.096,-232.969l-148.293,234.864Zm340.591,-43.979c37.201,-44.165 59.627,-101.177 59.627,-163.385c0,-140.101 -113.744,-253.845 -253.845,-253.845c-140.101,0 -253.845,113.744 -253.845,253.845c0,63.429 23.315,121.456 61.835,165.971l193.93,-307.144l192.298,304.558Z" style="fill:rgb(34,31,31);"/>        </g>        <g transform="matrix(0.523402,0,0,0.523402,48.9947,48.9947)">            <path d="M520.965,562.48c-33.412,23.256 -74.008,36.895 -117.765,36.895c-113.97,0 -206.5,-92.53 -206.5,-206.5c0,-51.847 19.148,-99.256 50.753,-135.536l41.959,30.155c-21.949,26.287 -35.162,60.116 -35.162,97.006c0,83.615 67.885,151.5 151.5,151.5c30.482,0 58.874,-9.022 82.648,-24.539l32.567,51.019Z" style="fill:rgb(173,15,9);"/>        </g>    </g></svg>