<?xml version="1.0" encoding="UTF-8" standalone="no"?><!DOCTYPE svg PUBLIC "-//W3C//DTD SVG 1.1//EN" "http://www.w3.org/Graphics/SVG/1.1/DTD/svg11.dtd"><svg width="100%" height="100%" viewBox="0 0 512 512" version="1.1" xmlns="http://www.w3.org/2000/svg" xmlns:xlink="http://www.w3.org/1999/xlink" xml:space="preserve" style="fill-rule:evenodd;clip-rule:evenodd;stroke-linejoin:round;stroke-miterlimit:2;"><title>Kickstarter</title><desc>Kickstarter campaigns make ideas into reality. It’s where creators share new visions for creative work with the communities that will come together to fund them.</desc>    <g transform="matrix(1.77391,0,0,1.77391,2,201.896)">        <g transform="matrix(0.589139,0,0,0.613006,-7.04426,-130.414)">            <path d="M499,41.552c0,-7.48 -6.318,-13.552 -14.101,-13.552l-459.798,0c-7.783,0 -14.101,6.072 -14.101,13.552l0,441.896c0,7.48 6.318,13.552 14.101,13.552l459.798,0c7.783,0 14.101,-6.072 14.101,-13.552l0,-441.896Z" style="fill:rgb(0,210,111);"/>        </g>        <g transform="matrix(2.96054,0,0,2.96054,63.2517,-58.3162)">            <path d="M54,46.566c0,-2.786 -0.806,-5.472 -2.519,-7.86l-6.447,-8.856l6.447,-8.855c1.713,-2.289 2.519,-5.075 2.519,-7.861c0,-7.363 -6.146,-13.034 -13.399,-13.034c-4.232,0 -8.463,2.089 -11.082,5.671l-3.224,4.378c-1.209,-5.87 -6.347,-10.149 -12.896,-10.149c-7.556,0 -13.399,5.97 -13.399,13.333l0,33.333c0,7.363 5.944,13.333 13.399,13.333c6.448,0 11.485,-3.98 12.795,-9.751l2.821,3.98c2.619,3.781 6.951,5.771 11.183,5.771c7.656,0.099 13.802,-6.07 13.802,-13.433" style="fill:white;fill-rule:nonzero;"/>        </g>    </g></svg>