<?xml version="1.0" encoding="UTF-8" standalone="no"?><!DOCTYPE svg PUBLIC "-//W3C//DTD SVG 1.1//EN" "http://www.w3.org/Graphics/SVG/1.1/DTD/svg11.dtd"><svg width="100%" height="100%" viewBox="0 0 512 512" version="1.1" xmlns="http://www.w3.org/2000/svg" xmlns:xlink="http://www.w3.org/1999/xlink" xml:space="preserve" style="fill-rule:evenodd;clip-rule:evenodd;stroke-linejoin:round;stroke-miterlimit:2;"><title>Bondster</title><desc>Bondster is a Czech FinTech start-up that offers investments in loans.We connect investors from the general public with trusted lenders. We bring new opportunities for investors who can easily earn attractive returns without any in-depth knowledge of the financial market.On the Bondster marketplace, you can invest in many loans from various loans providers. To eliminate the risk, loans are usually secured, for example by real estate. Thanks to Bondster, investors can earn high returns of 10 % annually and more.</desc>    <g id="Layer-1" transform="matrix(1.75474,0,0,1.75474,-242.635,-84.8805)">        <g transform="matrix(0,-1,-1,0,284.165,50.6821)">            <path d="M-143.581,-143.581c-80.258,0 -145.321,64.283 -145.321,143.581c0,79.298 65.063,143.581 145.321,143.581c80.258,0 145.321,-64.283 145.321,-143.581c0,-79.298 -65.063,-143.581 -145.321,-143.581" style="fill:rgb(209,88,87);fill-rule:nonzero;"/>        </g>        <g transform="matrix(1,0,0,1,319.311,229.629)">            <path d="M0,-70.732c-10.85,-4.61 -28.773,-5.212 -47.368,-4.968c-0.043,-18.894 0.141,-14.477 0.325,-36.959c0.07,-8.682 -6.826,-15.779 -15.408,-15.85l-0.129,0c-8.519,0 -15.458,6.954 -15.528,15.592c0,0 -0.253,26.199 -0.186,32.811c0.267,26.438 1.275,26.982 4.66,31.482c1.975,1.953 4.188,4.654 11.086,4.654c0,0 4.099,-0.059 6.911,-0.125c8.926,-0.212 36.072,-0.849 43.617,2.356c2.327,0.987 22.73,10.338 22.647,34.171c-0.066,19.667 -14.668,33.903 -34.741,33.903l-0.149,0c-9.992,-0.038 -17.286,-0.055 -23.109,-0.064l0,-41.033c0,-8.681 -6.955,-15.72 -15.532,-15.72c-8.578,0 -15.533,7.039 -15.533,15.72l0,52.76c0,0.689 0.005,3.283 0.004,3.947c-0.016,8.682 6.923,15.735 15.505,15.751l7.205,0.008c6.986,0.005 16.006,0.013 31.347,0.073l0.262,0c37.405,0 65.681,-28.003 65.806,-65.238c0.114,-33.587 -22.389,-55.076 -41.692,-63.271" style="fill:white;fill-rule:nonzero;"/>        </g>    </g></svg>