<?xml version="1.0" encoding="UTF-8" standalone="no"?><!DOCTYPE svg PUBLIC "-//W3C//DTD SVG 1.1//EN" "http://www.w3.org/Graphics/SVG/1.1/DTD/svg11.dtd"><svg width="100%" height="100%" viewBox="0 0 512 512" version="1.1" xmlns="http://www.w3.org/2000/svg" xmlns:xlink="http://www.w3.org/1999/xlink" xml:space="preserve" style="fill-rule:evenodd;clip-rule:evenodd;stroke-linejoin:round;stroke-miterlimit:2;"><title>FundedByMe</title><desc>FundedByMe is a crowdfunding platform based in Stockholm, Sweden. The company is active in Scandinavia with joint ventures in Finland, Poland, Malaysia, The Netherlands, Singapore and The United Arab Emirates (at the Dubai International Financial Centre - DIFC).</desc>    <g transform="matrix(16.0954,0,0,16.0954,39.8383,1)">        <path d="M14.71,0l-5.052,2.019l10.84,5.669l0,6.629l-8.348,3.359l-6.869,-3.354l0,-2.172l6.869,3.337l6.338,-2.532l0,-4.464l-10.862,-5.66l-6.626,2.648l0,20.727l4.326,2.126l-0.035,-6.332l-0.01,-0.005l0,-2.213l6.869,3.377l8.348,-3.336l0,2.167l-8.348,3.359l-4.813,-2.351l0,6.322l4.813,2.366l13.71,-5.48l0,-10.363l0,-10.364l-11.15,-5.479Z" style="fill:rgb(31,205,115);fill-rule:nonzero;"/>    </g></svg>