<?xml version="1.0" encoding="UTF-8" standalone="no"?><!DOCTYPE svg PUBLIC "-//W3C//DTD SVG 1.1//EN" "http://www.w3.org/Graphics/SVG/1.1/DTD/svg11.dtd"><svg width="100%" height="100%" viewBox="0 0 512 512" version="1.1" xmlns="http://www.w3.org/2000/svg" xmlns:xlink="http://www.w3.org/1999/xlink" xml:space="preserve" style="fill-rule:evenodd;clip-rule:evenodd;stroke-linejoin:round;stroke-miterlimit:2;"><title>EstateGuru</title><desc>EstateGuru is an Estonian peer to peer (P2P) lending platform established in 2014. You can lend money to businesses. All the loans listed are backed by property assets and interest rates are between 10% and 12%.EstateGuru provides excellent information and transparency about the projects.</desc>    <g id="EstateGuru" transform="matrix(4.63636,0,0,4.63636,-40.7272,-40.7273)">        <path d="M100.33,41.23l-36.33,-32.23l-36.07,32.23c-7.159,6.144 -11.277,15.126 -11.26,24.56l0,21.21c0,17.65 13.81,32 31.21,32l32.75,0c16.88,0 30.7,-14.33 30.7,-32l0,-21.21c-0.002,-9.375 -4.006,-18.317 -11,-24.56Zm2.81,45.77c0,12.79 -10.23,23.28 -22.51,23.28l-0.77,0c-2.86,0.02 -8.7,-0.28 -15.86,-0.28c-7.16,0 -13,0 -15.6,0.26l-0.51,0c-12.54,0.04 -22.77,-10.45 -22.77,-23.26l0,-21.21c-0.002,-6.871 2.986,-13.413 8.18,-17.91l30.7,-27.37l31,27.63c5.123,4.526 8.085,11.025 8.14,17.86l0,21Zm-11,-36l-28.14,-25.12l-28.14,25.12c-4.436,3.614 -6.905,9.124 -6.65,14.84l0,21.16c0,10.49 8.19,19.19 18.42,19.19l0.51,0c2.81,0 9,-0.26 15.86,-0.26c6.86,0 13,0 15.86,0.26l0.51,0c10.23,0 18.42,-8.44 18.42,-19.19l0,-21.21c0.018,-5.655 -2.408,-11.051 -6.65,-14.79Zm-1.54,36c0.001,0.063 0.002,0.127 0.002,0.19c0,5.628 -4.604,10.272 -10.232,10.32l-0.26,0c-2.81,0 -9,-0.26 -16.12,-0.26c-7.12,0 -13.3,0 -16.12,0.26l-0.26,0c-5.656,-0.151 -10.223,-4.852 -10.21,-10.51l0,-21.21c0.083,-3.144 1.476,-6.115 3.84,-8.19l22.76,-20.2l22.77,20.46c2.348,2.065 3.736,5.015 3.83,8.14l0,21Zm-6.4,-26.35l-20.2,-17.88l-20.21,17.9c-1.453,1.194 -2.298,2.979 -2.3,4.86l0,21.24c0.049,1.693 0.681,3.319 1.79,4.6c1.117,1.204 2.709,1.859 4.35,1.79c6.14,-0.26 26.35,-0.26 32.49,0l0.26,0c1.565,0.065 3.076,-0.596 4.09,-1.79c1.211,-1.216 1.861,-2.885 1.79,-4.6l0,-21.24c0.116,-1.84 -0.623,-3.635 -2,-4.86l-0.06,-0.02Zm-6.13,24.35l-28.14,0l0,-18.19l14.07,-12.53l14.07,12.53l0,18.19Z" style="fill:rgb(0,205,236);fill-rule:nonzero;"/>    </g></svg>