<?xml version="1.0" encoding="UTF-8" standalone="no"?><!DOCTYPE svg PUBLIC "-//W3C//DTD SVG 1.1//EN" "http://www.w3.org/Graphics/SVG/1.1/DTD/svg11.dtd"><svg width="100%" height="100%" viewBox="0 0 512 512" version="1.1" xmlns="http://www.w3.org/2000/svg" xmlns:xlink="http://www.w3.org/1999/xlink" xml:space="preserve" style="fill-rule:evenodd;clip-rule:evenodd;stroke-linejoin:round;stroke-miterlimit:2;"><title>Exporo</title><desc>Exporo is an innovative Internet platform that offers investors the opportunity to participate in attractive real estate projects through crowdinvesting. The founding team of Exporo has many years of experience in asset-backed investments and has a proven track record for successful funded real estate projects.</desc>    <g transform="matrix(7.3913,0,0,7.3913,-590.849,-1601.94)">        <g transform="matrix(1,0,0,1,54.5737,212.968)">            <path d="M91.4,29.5l0,29.3l-6.3,4.6l0,-29.2l6.3,-4.7Z" style="fill:rgb(206,231,251);fill-rule:nonzero;"/>        </g>        <g transform="matrix(1,0,0,1,54.5737,212.968)">            <path d="M91.4,29.5l-6.3,4.7l-9.8,-3.2l0,-6.7l16.1,5.2Z" style="fill:rgb(80,117,192);fill-rule:nonzero;"/>        </g>        <g transform="matrix(1,0,0,1,54.5737,212.968)">            <path d="M75.3,12l-6.3,4.7l-18.7,-6.1l-6.4,-2l6.4,-4.7l25,8.1Z" style="fill:rgb(80,117,192);fill-rule:nonzero;"/>        </g>        <g transform="matrix(1,0,0,1,54.5737,212.968)">            <path d="M69,66.9l0,-9.9l0,-28l0,-6.7l0,-5.6l6.3,-4.7l0,50.3l-6.3,4.6Z" style="fill:rgb(206,231,251);fill-rule:nonzero;"/>        </g>        <g transform="matrix(1,0,0,1,54.5737,212.968)">            <path d="M60.8,54.3l6.3,-4.6l0,18.6l-6.3,4.6l0,-9.9l0,-3l0,-5.7Z" style="fill:rgb(206,231,251);fill-rule:nonzero;"/>        </g>        <g transform="matrix(1,0,0,1,54.5737,212.968)">            <path d="M58.5,25.6l0,14.3l-6.3,-7.2l0,-9.2l6.3,2.1Z" style="fill:rgb(58,78,138);fill-rule:nonzero;"/>        </g>        <g transform="matrix(1,0,0,1,54.5737,212.968)">            <path d="M52.2,52.8l4.4,-3.2l4.2,4.7l0,5.7l-8.6,-7.2Z" style="fill:rgb(80,117,192);fill-rule:nonzero;"/>        </g>        <g transform="matrix(1,0,0,1,54.5737,212.968)">            <path d="M52.2,44.5l4.4,5.1l-4.4,3.2l0,-8.3Z" style="fill:rgb(58,78,138);fill-rule:nonzero;"/>        </g>        <g transform="matrix(1,0,0,1,54.5737,212.968)">            <path d="M52.2,23.5l6.3,-4.6l10.5,3.4l0,6.7l-10.5,-3.4l-6.3,-2.1Z" style="fill:rgb(80,117,192);fill-rule:nonzero;"/>        </g>        <g transform="matrix(1,0,0,1,54.5737,212.968)">            <path d="M58.5,39.9l8.6,9.8l-6.3,4.6l-4.2,-4.7l-4.4,-5.1l-1.9,-2.2l-5.6,-6.3l6.4,-4.6l1.1,1.3l6.3,7.2Z" style="fill:rgb(80,117,192);fill-rule:nonzero;"/>        </g>        <g transform="matrix(1,0,0,1,54.5737,212.968)">            <path d="M43.9,34.9l0,-26.3l6.4,2l0,21.2l-6.4,3.1Z" style="fill:rgb(58,78,138);fill-rule:nonzero;"/>        </g>        <g transform="matrix(1,0,0,1,54.5737,212.968)">            <path d="M60.8,72.9l-16.9,-14.1l6.4,-4.6l10.5,8.8l0,9.9Z" style="fill:rgb(80,117,192);fill-rule:nonzero;"/>        </g>        <g transform="matrix(1,0,0,1,54.5737,212.968)">            <path d="M50.3,54.2l-6.4,4.6l0,-22.4l0.8,-0.4l5.6,6.3l0,11.9Z" style="fill:rgb(58,78,138);fill-rule:nonzero;"/>        </g>        <g transform="matrix(1,0,0,1,54.5737,212.968)">            <path d="M43.9,34.9l6.4,-3.1l0.8,-0.4l-6.4,4.6l-0.8,0.4l-8.9,4.4l-6.4,3.2l6.4,-4.7l8.9,-4.4Z" style="fill:rgb(80,117,192);fill-rule:nonzero;"/>        </g>        <g transform="matrix(1,0,0,1,54.5737,212.968)">            <path d="M35,40.8l0,17.1l-6.4,4.7l0,-18.6l6.4,-3.2Z" style="fill:rgb(58,78,138);fill-rule:nonzero;"/>        </g>    </g></svg>