<?xml version="1.0" encoding="UTF-8" standalone="no"?><!DOCTYPE svg PUBLIC "-//W3C//DTD SVG 1.1//EN" "http://www.w3.org/Graphics/SVG/1.1/DTD/svg11.dtd"><svg width="100%" height="100%" viewBox="0 0 512 512" version="1.1" xmlns="http://www.w3.org/2000/svg" xmlns:xlink="http://www.w3.org/1999/xlink" xml:space="preserve" style="fill-rule:evenodd;clip-rule:evenodd;stroke-linejoin:round;stroke-miterlimit:2;"><title>FCA</title><desc></desc>    <g transform="matrix(1,0,0,1.00208,-56.6517,-33.9335)">        <g transform="matrix(4.63636,0,0,4.63636,15.9244,-7.39626)">            <path d="M72,80.22c-0.959,0.938 -2.023,1.764 -3.17,2.46c-1.348,0.837 -2.791,1.509 -4.3,2c-1.74,0.545 -3.556,0.812 -5.38,0.79c-2.623,0.035 -5.226,-0.465 -7.65,-1.47c-2.245,-0.94 -4.272,-2.337 -5.95,-4.1c-1.69,-1.802 -3.009,-3.919 -3.88,-6.23c-1.849,-5.034 -1.849,-10.566 0,-15.6c0.88,-2.34 2.197,-4.492 3.88,-6.34c1.684,-1.822 3.727,-3.275 6,-4.27c2.437,-1.063 5.072,-1.595 7.73,-1.56c1.82,-0.024 3.634,0.225 5.38,0.74c1.459,0.435 2.857,1.053 4.16,1.84c1.114,0.677 2.141,1.486 3.06,2.41c0.765,0.764 1.458,1.598 2.07,2.49l-3.85,3.28c-0.499,-0.696 -1.037,-1.364 -1.61,-2c-0.659,-0.73 -1.413,-1.369 -2.24,-1.9c-0.936,-0.599 -1.944,-1.076 -3,-1.42c-1.264,-0.398 -2.585,-0.591 -3.91,-0.57c-3.755,-0.079 -7.351,1.547 -9.77,4.42c-1.174,1.403 -2.067,3.019 -2.63,4.76c-0.618,1.844 -0.935,3.775 -0.94,5.72c-0.013,1.956 0.305,3.9 0.94,5.75c0.574,1.709 1.466,3.293 2.63,4.67c1.136,1.323 2.545,2.384 4.13,3.11c1.705,0.772 3.559,1.158 5.43,1.13c1.49,0.034 2.974,-0.186 4.39,-0.65c1.107,-0.373 2.157,-0.898 3.12,-1.56c0.765,-0.531 1.466,-1.149 2.09,-1.84l1.39,-1.56l3.79,3.17c-0.546,0.847 -1.187,1.629 -1.91,2.33m-25.2,-47.86l-24.27,63.28l50.16,0l24.31,-63.28l-50.2,0Z" style="fill:rgb(112,27,69);fill-rule:nonzero;"/>        </g>        <g transform="matrix(4.63636,0,0,4.63636,15.9244,-7.39626)">            <path d="M29.13,63.1l-14.34,0l0,-12.32l19.06,0l1.99,-5.19l-26.84,0l0,40.27l5.79,0l0,-17.63l12.37,0l1.97,-5.13Z" style="fill:rgb(112,27,69);fill-rule:nonzero;"/>        </g>        <g transform="matrix(4.63636,0,0,4.63636,15.9244,-7.39626)">            <path d="M106.63,69.73l-6.2,-17.73l-6.23,17.73l12.43,0Zm-9,-24.14l5.57,0l15.8,40.25l-6.46,0l-4.16,-11.23l-15.87,0l-4.16,11.23l-6.1,0l15.38,-40.25Z" style="fill:rgb(112,27,69);fill-rule:nonzero;"/>        </g>    </g></svg>