<?xml version="1.0" encoding="UTF-8" standalone="no"?><!DOCTYPE svg PUBLIC "-//W3C//DTD SVG 1.1//EN" "http://www.w3.org/Graphics/SVG/1.1/DTD/svg11.dtd"><svg width="100%" height="100%" viewBox="0 0 512 512" version="1.1" xmlns="http://www.w3.org/2000/svg" xmlns:xlink="http://www.w3.org/1999/xlink" xml:space="preserve" style="fill-rule:evenodd;clip-rule:evenodd;stroke-linejoin:round;stroke-miterlimit:2;"><title>Safe as Houses ISA</title><desc>Safe As Houses ISA allows you to acquire Loan Notes paying a fixed rate of return. The Loan Note issuers invest in property development companies that meet our very strict criteria. Our offering is designed to reduce the risk of investing in UK property. The property market’s strong past performance is not necessarily a reliable indicator of how it will perform in the future, but it remains the best performing major asset class of the last 50 years. </desc>    <g transform="matrix(2.5868,0,0,2.5868,-1107.31,-508.589)">        <g transform="matrix(0.267872,-5.15815e-33,5.15815e-33,0.267872,395.374,162.758)">            <path d="M578.2,348c14.2,26.3 33.1,62.8 59.3,114.5c44.4,87.5 69.2,132.6 90.8,165l6.3,9.4l-2.8,16.3c-5.6,34 -7.8,59.8 -7.8,94.9c0,44.3 4.1,75.2 14.1,105.7c1.7,5.1 2.8,9.6 2.5,9.9c-1,1 -8.8,-4.7 -14.4,-10.6c-27.9,-29.1 -50.2,-98.2 -50.2,-155.7c0,-13.3 -0.2,-14.4 -2.5,-18.7c-5.4,-9.6 -17.8,-45.6 -36.8,-106.7c-27.1,-87.1 -65.6,-219.5 -71.1,-244.5c-0.7,-2.8 -0.6,-2.9 0.7,-1c0.8,1.1 6.1,10.8 11.9,21.5Z" style="fill:rgb(153,142,112);"/>        </g>        <g transform="matrix(0.267872,-5.15815e-33,5.15815e-33,0.267872,395.374,162.758)">            <path d="M371.4,592.4c26.1,25.1 67.9,52.9 118.6,78.8c62,31.6 128.4,54.8 157.1,54.8l6.7,0l0.6,6.7c3.9,37.8 21.9,82.4 46.2,114.5c2.4,3.2 4,5.8 3.5,5.8c-2,0 -25.1,-8.5 -36.1,-13.3c-97.1,-42.1 -222.5,-136 -282,-211.2c-13.1,-16.5 -27.2,-40.5 -29.6,-50c-0.6,-2.7 -0.3,-2.5 4.1,2.5c2.7,3 7.6,8.1 10.9,11.4Z" style="fill:rgb(153,142,112);"/>        </g>        <g transform="matrix(0.267872,-5.15815e-33,5.15815e-33,0.267872,395.374,162.758)">            <path d="M352.3,487.8c75.1,58.2 197.3,111.2 256.3,111.2l6.2,0l6.2,22.2c8.4,29.9 13.4,45.2 18.2,56.2c2.2,5 4.2,9.7 4.5,10.3c0.6,1.5 -0.1,1.4 -18.2,-2.3c-42.4,-8.5 -106.1,-36.2 -159,-69.2c-56.6,-35.3 -101.3,-75 -125.7,-111.7c-8.7,-13.1 -17.3,-31.1 -19.3,-40.4c-0.7,-3.3 -0.3,-3.1 9.9,6.2c5.8,5.3 15.2,13.2 20.9,17.5Z" style="fill:rgb(153,142,112);"/>        </g>        <g transform="matrix(0.267872,-5.15815e-33,5.15815e-33,0.267872,395.374,162.758)">            <path d="M336.6,371.2c32,24 70.6,47 116.9,69.8c54.7,26.9 108,46 128.3,46l4.9,0l1.1,5.2c7.8,37.4 13,59.9 17.9,77c0.6,2.1 -0.1,2 -17.2,-1.9c-55.2,-12.8 -138.4,-58.2 -199,-108.8c-45.9,-38.3 -78,-78.2 -88.3,-110c-4.5,-13.7 -4.5,-13.7 9,-0.2c7,7 18.4,16.9 26.4,22.9Z" style="fill:rgb(153,142,112);"/>        </g>        <g transform="matrix(0.267872,-5.15815e-33,5.15815e-33,0.267872,395.374,162.758)">            <path d="M249.4,149.9c3,8.1 11.6,23.5 18.2,32.4c20.1,26.9 48.5,52.3 87.4,78.2c22,14.6 33.7,21.4 56.7,32.9c31.6,15.8 63.5,27.9 93.7,35.6c15.2,3.8 37.3,8 42.7,8c2.1,0 3.2,0.6 3.9,2.2c0.5,1.3 4.7,20.5 9.4,42.8c4.8,22.3 10.8,49.9 13.5,61.5c2.7,11.5 4.8,21.1 4.7,21.3c-0.2,0.1 -6.3,-1.8 -13.7,-4.4c-77.1,-26.4 -168.3,-80.9 -229.4,-137.1c-65.8,-60.5 -99.2,-125.6 -93.6,-182.5c0.6,-6.3 1.1,-12.1 1.2,-12.9c0,-0.7 0.9,2.9 1.9,8.1c1,5.2 2.5,11.5 3.4,13.9Z" style="fill:rgb(153,142,112);"/>        </g>    </g></svg>