<?xml version="1.0" encoding="UTF-8" standalone="no"?><!DOCTYPE svg PUBLIC "-//W3C//DTD SVG 1.1//EN" "http://www.w3.org/Graphics/SVG/1.1/DTD/svg11.dtd"><svg width="100%" height="100%" viewBox="0 0 512 512" version="1.1" xmlns="http://www.w3.org/2000/svg" xmlns:xlink="http://www.w3.org/1999/xlink" xml:space="preserve" style="fill-rule:evenodd;clip-rule:evenodd;stroke-linejoin:round;stroke-miterlimit:2;"><title>Prexem</title><desc>Prexem is the loan platform between individuals and French companies. Individuals lend directly to companies rigorously selected by Prexem and in exchange earn up to 10% interest every month.</desc>    <g transform="matrix(0.999811,0,0,1,-9.99793,-11.7)">        <g transform="matrix(2.69038,0,0,2.68987,-18.5942,-21.4614)">            <path d="M181.5,107.5c0,41.8 -33.9,75.7 -75.7,75.7c-41.1,0 -61.9,-31 -61.9,-31c18.8,28.1 50,45.2 60.1,50.1l1.8,0c52.4,0 94.8,-42.4 94.8,-94.8c0,-51.9 -41.8,-94.1 -93.5,-94.8c-0.1,0 74.4,33.9 74.4,94.8" style="fill:rgb(12,166,239);fill-rule:nonzero;"/>        </g>        <g transform="matrix(2.69038,0,0,2.68987,-18.5942,-21.4614)">            <path d="M30.1,107.5c0,-41.8 33.9,-75.7 75.7,-75.7c41.2,-0.9 63.2,32.9 63.2,32.9c-13.4,-27.1 -53,-52 -61.5,-52l-1.8,0c-52.3,0 -94.7,42.4 -94.7,94.8c0,51.9 41.8,94.1 93.5,94.8c0,0 -74.4,-33.9 -74.4,-94.8" style="fill:rgb(64,216,170);fill-rule:nonzero;"/>        </g>        <g transform="matrix(2.69038,0,0,2.68987,-18.5942,-21.4614)">            <path d="M140.4,107.5l-25.8,-20.1l-14.7,11.5l40.5,31.6l0,-23Z" style="fill:rgb(12,166,239);fill-rule:nonzero;"/>        </g>        <g transform="matrix(2.69038,0,0,2.68987,-18.5942,-21.4614)">            <path d="M99.9,98.9l40.5,-31.5l0,23l-25.8,20.1l-14.7,-11.6Z" style="fill:rgb(12,166,239);fill-rule:nonzero;"/>        </g>        <g transform="matrix(2.69038,0,0,2.68987,-18.5942,-21.4614)">            <path d="M70.1,106.4l25.8,20l14.8,-11.5l-40.6,-31.6l0,23.1Z" style="fill:rgb(64,216,170);fill-rule:nonzero;"/>        </g>        <g transform="matrix(2.69038,0,0,2.68987,-18.5942,-21.4614)">            <path d="M110.7,114.9l-40.6,31.6l0,-23l25.8,-20.1l14.8,11.5Z" style="fill:rgb(64,216,170);fill-rule:nonzero;"/>        </g>    </g></svg>