<?xml version="1.0" encoding="UTF-8" standalone="no"?><!DOCTYPE svg PUBLIC "-//W3C//DTD SVG 1.1//EN" "http://www.w3.org/Graphics/SVG/1.1/DTD/svg11.dtd"><svg width="100%" height="100%" viewBox="0 0 512 512" version="1.1" xmlns="http://www.w3.org/2000/svg" xmlns:xlink="http://www.w3.org/1999/xlink" xml:space="preserve" style="fill-rule:evenodd;clip-rule:evenodd;stroke-linejoin:round;stroke-miterlimit:2;"><title>Aztec Money</title><desc>Aztec Money is an open access global marketplace offering export trade finance that YOU control.</desc>    <g transform="matrix(1.57225,0,0,1.56957,394.375,1)">        <g transform="matrix(4.16667,0,0,4.16667,-21.3129,169.313)">            <path d="M0,13.953l0,-0.685l0.274,0l0,0.685l0.684,6.294c0.618,-0.454 5.329,-13.128 5.947,-14.992c0.625,-1.882 2.485,-6.042 2.547,-7.989c0.092,-2.885 1.092,-6.71 1.092,-9.443l0.105,0.005l0.659,4.948l5.809,-16.171c-2.327,0.62 -10.971,11.166 -12.817,13.598c-1.869,2.461 -9.879,13.589 -10.451,16.132l6.151,-1.548c-1.857,1.612 -6.943,2.352 -7.824,4.632c-0.993,2.576 -2.856,6.177 -2.856,9.732l0,3.146c0,5.407 1.916,9.306 1.916,15.051c1.555,-1.041 5.282,-7.544 6.346,-9.668c1.411,-2.819 0.963,-3.122 1.541,-6.531c0.309,-1.821 0.877,-5.477 0.877,-7.196" style="fill:rgb(245,165,41);fill-rule:nonzero;"/>        </g>        <g transform="matrix(4.16667,0,0,4.16667,-84.2108,138.988)">            <path d="M0,9.368l0.299,-0.614l0.246,0.119l-0.299,0.615l-2.128,5.961c0.753,-0.137 10.521,-9.487 11.889,-10.894c1.383,-1.422 4.872,-4.354 5.777,-6.079c1.341,-2.557 3.91,-5.562 5.101,-8.021l0.092,0.048l-1.564,4.742l12.28,-12.019c-2.364,-0.455 -14.743,5.263 -17.465,6.646c-2.755,1.4 -14.816,7.92 -16.44,9.959l6.21,1.289c-2.373,0.642 -7.274,-0.912 -9.061,0.758c-2.018,1.882 -5.264,4.31 -6.816,7.51l-1.372,2.831c-2.358,4.865 -2.335,9.211 -4.838,14.378c1.851,-0.257 8.042,-4.485 9.925,-5.931c2.499,-1.922 2.229,-2.389 4.236,-5.205c1.071,-1.502 3.179,-4.546 3.928,-6.093" style="fill:rgb(223,35,44);fill-rule:nonzero;"/>        </g>        <g transform="matrix(4.16667,0,0,4.16667,-118.969,97.7659)">            <path d="M0,3.556l0.521,-0.444l0.177,0.21l-0.521,0.443l-4.345,4.603c0.745,0.177 13.446,-4.46 15.266,-5.198c1.838,-0.746 6.21,-2.028 7.733,-3.246c2.254,-1.802 5.813,-3.522 7.894,-5.295l0.064,0.082l-3.337,3.713l16.073,-6.071c-1.98,-1.368 -15.614,-1.105 -18.662,-0.931c-3.086,0.174 -16.751,1.298 -19.057,2.511l5.169,3.677c-2.432,-0.366 -6.294,-3.758 -8.6,-2.948c-2.607,0.914 -6.555,1.832 -9.261,4.139l-2.394,2.041c-4.115,3.508 -5.839,7.497 -10.208,11.222c1.8,0.507 9.165,-0.875 11.473,-1.443c3.06,-0.755 3,-1.292 5.97,-3.064c1.585,-0.945 4.737,-2.885 6.045,-4.001" style="fill:rgb(23,69,157);fill-rule:nonzero;"/>        </g>        <g transform="matrix(4.16667,0,0,4.16667,-122.155,21.0864)">            <path d="M0,4.19l0.655,-0.199l0.08,0.263l-0.656,0.198l-5.823,2.479c0.611,0.459 14.106,1.296 16.069,1.347c1.982,0.052 6.503,0.627 8.385,0.123c2.788,-0.749 6.739,-0.901 9.354,-1.692l0.027,0.101l-4.546,2.065l17.161,0.872c-1.268,-2.046 -13.867,-7.263 -16.729,-8.326c-2.897,-1.074 -15.87,-5.515 -18.468,-5.326l3.264,5.437c-2.082,-1.309 -4.264,-5.963 -6.702,-6.144c-2.752,-0.205 -6.74,-0.945 -10.142,0.087l-3.011,0.911c-5.175,1.567 -8.352,4.532 -13.848,6.196c1.446,1.186 8.749,2.869 11.091,3.271c3.108,0.533 3.268,0.017 6.698,-0.417c1.83,-0.231 5.496,-0.748 7.141,-1.246" style="fill:rgb(92,183,72);fill-rule:nonzero;"/>        </g>    </g></svg>