<?xml version="1.0" encoding="UTF-8" standalone="no"?><!DOCTYPE svg PUBLIC "-//W3C//DTD SVG 1.1//EN" "http://www.w3.org/Graphics/SVG/1.1/DTD/svg11.dtd"><svg width="100%" height="100%" viewBox="0 0 512 512" version="1.1" xmlns="http://www.w3.org/2000/svg" xmlns:xlink="http://www.w3.org/1999/xlink" xml:space="preserve" style="fill-rule:evenodd;clip-rule:evenodd;stroke-linejoin:round;stroke-miterlimit:2;"><title>Smartika</title><desc>Smartika is the first Italian Social Lending Service in terms of volumes and active Lenders and Borrowers. With Social Lending and Smartika people have an alternative: a horizontal model where Lenders and Borrowers communicate strictly with each other, achieving better results for the entire Community.</desc>    <g transform="matrix(20.5795,0,0,20.5795,46.7378,-210.619)">        <path d="M14.715,10.319c0.804,0.166 1.415,0.885 1.415,1.735c0,0.971 -0.799,1.77 -1.77,1.77l-7.28,0c-1.941,0.002 -3.538,1.599 -3.54,3.54c0.002,1.941 1.599,3.538 3.54,3.54l6.177,0c3.904,0 7.08,3.176 7.08,7.081c-0.005,3.882 -3.198,7.075 -7.08,7.08l-11.007,0c-0.955,-0.023 -1.729,-0.815 -1.729,-1.77c0,-0.956 0.774,-1.748 1.729,-1.771l11.008,0c1.941,-0.002 3.537,-1.598 3.54,-3.539c-0.002,-1.941 -1.599,-3.538 -3.54,-3.54l-6.177,0c-3.904,0 -7.081,-3.176 -7.081,-7.082c0,-3.904 3.177,-7.08 7.08,-7.08l7.28,0l0.355,0.036Z" style="fill:rgb(255,110,24);"/>    </g></svg>