<?xml version="1.0" encoding="UTF-8" standalone="no"?><!DOCTYPE svg PUBLIC "-//W3C//DTD SVG 1.1//EN" "http://www.w3.org/Graphics/SVG/1.1/DTD/svg11.dtd"><svg width="100%" height="100%" viewBox="0 0 512 512" version="1.1" xmlns="http://www.w3.org/2000/svg" xmlns:xlink="http://www.w3.org/1999/xlink" xml:space="preserve" style="fill-rule:evenodd;clip-rule:evenodd;stroke-linejoin:round;stroke-miterlimit:2;"><title>Moment Credit</title><desc>Moment credit is an established consumer loan provider from Lithuania. The company is part of Mozipo group, a fastexpanding financial service provider operating in multiple EU countries. Founded in 2007, the company has serviced morethan 200’000 loans and currently has an outstanding portfolio around EUR 6’500’000.</desc>    <g id="layer102" transform="matrix(0.715118,0,0,0.715879,-479.425,119.715)">        <path d="M714.4,349c-20.3,-3 -35.7,-16.8 -40.9,-36.5c-2.2,-8.7 -2.3,-137.2 0,-145.8c4.4,-17 17.2,-30.1 34.4,-35.1c4.9,-1.4 30.4,-1.6 266,-1.6c222.7,0 261.4,0.2 266,1.5c16.4,4.3 29.2,16.5 34.1,32.4c1.9,6 2,9.6 2,75.6c0,66.3 -0.1,69.6 -2,75.7c-4.8,15.5 -14.8,25.6 -32,32.2l-5.5,2.1l-258.5,0.1c-142.2,0.1 -260.8,-0.2 -263.6,-0.6Zm47.4,-25.6c11.4,-2.3 23.1,-8.3 30.4,-15.6c8.4,-8.4 11.1,-14.7 14.3,-33.4c1.4,-8.4 2.5,-15.9 2.5,-16.8c0,-1.4 -2.2,-1.6 -19.8,-1.6l-19.9,0l-2.2,13.2c-2.5,15.3 -4.7,20.2 -10.6,23.5c-4.7,2.7 -8.5,2.9 -13,0.7c-6.6,-3.1 -6.6,-2.9 0.9,-50.8c3.7,-23.7 7.2,-44.8 7.7,-46.9c2.1,-8.1 10.8,-13.7 18.1,-11.7c7.3,2.1 8.1,4.8 5.7,19.1c-1,6.3 -1.9,11.7 -1.9,12.2c0,1 40.8,0.9 41.4,-0.2c1.5,-2.4 3.8,-23.1 3.2,-29.1c-1.6,-14.9 -9.7,-24.9 -24.7,-30.1c-5.5,-2 -8.5,-2.3 -21.4,-2.3c-16.9,-0.1 -22.3,0.9 -33,5.9c-12.2,5.8 -19.9,14.4 -25,27.9c-2.4,6.3 -13.4,71.6 -15.5,91.5c-1.8,16.4 1.7,29.1 9.9,36.3c4.2,3.7 12.3,7.6 18.3,8.7c7.4,1.5 26.3,1.2 34.6,-0.5Zm193.6,-2.2c3.9,-1.8 8.9,-4.8 11.2,-6.7c8.2,-6.7 15.4,-20.1 17.2,-32l0.9,-5.5l-17.2,0c-18.6,0 -18.5,0 -18.5,5.3c0,3.9 -4.7,12.3 -8.1,14.7c-4.8,3.5 -9.4,3.2 -13,-0.8c-3.5,-3.9 -3.6,-6.8 -1.2,-21.2l1.6,-10l58.4,0l2.8,-17.2c3.4,-21.7 3.2,-31.2 -0.8,-38.1c-6.3,-10.8 -17,-15.3 -35.7,-15c-19.3,0.2 -32.5,4.8 -42.8,15c-9,8.9 -10.5,13.4 -15.8,47.3c-2.5,16.2 -4.5,32.5 -4.6,36.2c0,11.7 5.8,21 16.6,26.5c8.3,4.3 13.8,5.3 28.6,5c12.9,-0.2 13.8,-0.4 20.4,-3.5Zm81.8,0.1c3.7,-1.8 9.1,-5.3 11.9,-8l5.1,-4.8l-0.7,6.8l-0.7,6.7l15.6,0c8.6,0 15.6,-0.2 15.6,-0.3c0,-0.2 5.9,-37.2 13,-82.2c7.2,-45 13,-82 13,-82.2c0,-0.1 -7.8,-0.3 -17.4,-0.3l-17.4,0l-1,6.3c-0.6,3.4 -2.5,15.3 -4.3,26.5c-2.9,17.9 -3.4,19.9 -4.4,17.5c-3.6,-8.5 -12.1,-13.6 -22.7,-13.6c-12.7,0 -23.8,7.7 -29.9,20.7c-2.3,5 -3.8,12 -8.1,38.1c-6.1,37.9 -6.7,49.7 -3,58.1c6.3,13.9 19.8,18 35.4,10.7Zm-180.6,-37.8c3.7,-23 6.8,-39.6 7.9,-41.9c2.3,-4.7 5.5,-6.2 16,-7.3l8,-0.8l2.7,-16.5c3.7,-23 3.9,-21.4 -2.4,-20.6c-8.8,1.2 -14.5,4.9 -22.2,14.6c-2.6,3.2 -2.7,3.3 -2.2,1c0.3,-1.4 0.8,-5.2 1.2,-8.3l0.7,-5.7l-16.7,0c-11.5,0 -16.6,0.3 -16.6,1.1c0,0.6 -4.3,28.2 -9.5,61.2c-5.2,33.1 -9.5,60.5 -9.5,60.9c0,0.5 8.2,0.7 18.2,0.6l18.3,-0.3l6.1,-38Zm295,-19.5c5,-31.6 9.4,-59.4 9.7,-61.7l0.7,-4.3l-18.5,0c-11.4,0 -18.5,0.4 -18.5,1c0,0.5 -4.3,27.9 -9.5,60.8c-5.2,33 -9.5,60.5 -9.5,61.1c0,0.8 4.9,1.1 18.2,0.9l18.3,-0.3l9.1,-57.5Zm71.8,55.3c0.6,-3 3.6,-22 3.6,-22.8c0,-0.3 -2.9,-0.4 -6.3,-0.2c-7.4,0.2 -9.7,-1.1 -9.7,-5.5c0,-1.6 2.3,-16.8 5,-33.8c2.8,-17 5,-31.3 5,-31.9c0,-0.7 3.2,-1.1 8.8,-1.1l8.8,0l1.7,-11.7c0.9,-6.5 1.7,-12.3 1.7,-13c0,-0.8 -2.6,-1.3 -8.3,-1.5l-8.3,-0.3l2.7,-16.5c1.4,-9.1 2.4,-16.8 2.2,-17.2c-0.2,-0.5 -8.4,-0.8 -18.2,-0.8l-17.9,0l-0.5,3.3c-0.4,1.7 -1.6,9.6 -2.8,17.5l-2.2,14.2l-6.8,0c-6.6,0 -6.8,0.1 -7.3,2.8c-0.7,3.3 -3.6,21.4 -3.6,22.5c0,0.4 3.1,0.7 6.8,0.7l6.8,0l-5.8,36.3c-3.2,19.9 -5.8,38.2 -5.8,40.7c0,5.6 1.6,11.7 4.1,15.1c3.7,5.2 6.7,5.9 27.1,5.9l18.6,0l0.6,-2.7Zm-59.4,-134c0,-0.5 0.9,-6 2,-12.3c1.1,-6.3 2,-12.5 2,-13.8l0,-2.2l-18.2,0.2l-18.3,0.3l-2.1,14.3l-2.1,14.2l18.4,0c10,0 18.3,-0.3 18.3,-0.7Z" style="fill:rgb(0,179,224);fill-rule:nonzero;"/>        <path d="M932.4,239.3c3.4,-14.1 6.5,-19 12.8,-20c8,-1.2 12.9,3.8 12.9,13.2c0,9.9 0.6,9.5 -13.8,9.5l-12.5,0l0.6,-2.7Z" style="fill:rgb(0,179,224);fill-rule:nonzero;"/>        <path d="M1039.3,293.5c-4.5,-3.2 -4.6,-7.4 -0.8,-31.7c1.9,-12.2 4,-24.2 4.6,-26.5c1.3,-4.7 5.7,-9.8 9.5,-10.7c3.4,-0.9 7.6,1.3 9.3,4.8c1.2,2.6 0.9,5.7 -2.8,28.9c-2.3,14.3 -4.9,27.5 -5.8,29.4c-1.8,3.8 -6.5,7.3 -9.8,7.3c-1.1,0 -3,-0.7 -4.2,-1.5Z" style="fill:rgb(0,179,224);fill-rule:nonzero;"/>        <path d="M1325.5,154.3c-3.9,-1 -8.4,-5.3 -9.6,-9.2c-2,-6.6 0.8,-14.2 6.1,-17.1c2.3,-1.2 46.2,-11 49.5,-11c4.3,0 9.4,2.7 11.5,6.2c4,6.7 1.7,16.9 -4.7,20.1c-2.7,1.4 -47.7,11.8 -49.8,11.6c-0.5,-0.1 -1.9,-0.4 -3,-0.6Z" style="fill:rgb(0,179,224);fill-rule:nonzero;"/>        <path d="M1283.8,103c-7,-3.7 -10.9,-12.4 -8.8,-19.9c0.9,-3.4 3.7,-7 13,-17c19.9,-21.3 32.1,-32.7 36.4,-34.1c14.7,-4.8 28.3,11.2 21.1,25c-2.4,4.8 -42.2,44.9 -46.2,46.6c-4.5,1.9 -11.1,1.7 -15.5,-0.6Z" style="fill:rgb(0,179,224);fill-rule:nonzero;"/>    </g></svg>