<?xml version="1.0" encoding="UTF-8" standalone="no"?><!DOCTYPE svg PUBLIC "-//W3C//DTD SVG 1.1//EN" "http://www.w3.org/Graphics/SVG/1.1/DTD/svg11.dtd"><svg width="100%" height="100%" viewBox="0 0 512 512" version="1.1" xmlns="http://www.w3.org/2000/svg" xmlns:xlink="http://www.w3.org/1999/xlink" xml:space="preserve" style="fill-rule:evenodd;clip-rule:evenodd;stroke-linejoin:round;stroke-miterlimit:2;"><title>PolyReg</title><desc>PolyReg is a self-regulatory body recognised by the Swiss Federal Money Laundering Control Authority. It is established according to Article 24 of the Swiss Money laundering act (MLA) and acts as regulatory and supervising Organisation for its members.PolyReg is incorporated as an association and is listed in the register of commerce of the Canton of Zurich. Being independent from all trade organisations PolyReg accepts financial intermediaries from all fields of business.</desc>    <g transform="matrix(1.37933,0,0,1.37933,-2124.49,-175.985)">        <g transform="matrix(0.72499,0,0,0.72499,1540.23,127.587)">            <path d="M319.974,416.328l0,69.672l-255.898,0c-21.015,0 -38.076,-17.061 -38.076,-38.076l0,-31.596l293.974,0Z" style="fill:rgb(237,34,44);"/>        </g>        <g transform="matrix(0.72499,0,0,0.72499,1540.23,127.587)">            <path d="M486,416.328l0,31.596c0,21.015 -17.061,38.076 -38.076,38.076l-34.858,0l0,-69.672l72.934,0Z" style="fill:rgb(237,34,44);"/>        </g>        <g transform="matrix(0.72499,0,0,0.72499,1540.23,127.587)">            <path d="M447.924,26c21.015,0 38.076,17.061 38.076,38.076l0,275.924l-9.663,0l0,66.665l-72.934,0l0,71.943l-73.766,0l0,-71.943l-303.637,0l0,-342.589c0,-21.015 17.061,-38.076 38.076,-38.076l383.848,0Z" style="fill:rgb(237,34,44);"/>        </g>        <g transform="matrix(0.666667,0,0,0.666667,-18.2773,-4150.52)">            <path d="M2414.62,6805.72l-13.78,0l0,-155.74l13.86,0c0,0 -0.213,11.114 1.8,9.603c3.676,-2.773 74.353,-68.972 159,-88.5c90.837,-20.955 200.769,6.365 258.47,56.657l11.31,12.94c-119.78,-60.597 -157.694,-67.004 -220.28,-62.097c-130.864,10.262 -210.77,100.737 -210.77,100.737l0.39,126.4Z" style="fill:white;fill-rule:nonzero;"/>        </g>    </g></svg>