<?xml version="1.0" encoding="UTF-8" standalone="no"?><!DOCTYPE svg PUBLIC "-//W3C//DTD SVG 1.1//EN" "http://www.w3.org/Graphics/SVG/1.1/DTD/svg11.dtd"><svg width="100%" height="100%" viewBox="0 0 512 512" version="1.1" xmlns="http://www.w3.org/2000/svg" xmlns:xlink="http://www.w3.org/1999/xlink" xml:space="preserve" style="fill-rule:evenodd;clip-rule:evenodd;stroke-linejoin:round;stroke-miterlimit:2;"><title>First Cavendish</title><desc>First Cavendish is a new way of helping investors enjoy the rewards of property development only previously accessible by a few. It may be a new process but the people and businesses lending to property developers have been doing so for 50 years</desc>    <g transform="matrix(9.85134,0,0,9.85134,-88.0708,-4.8222)">        <g transform="matrix(1.06171,0,0,1.06171,2.62719,-4.2833)">            <path d="M27.566,4.773c0.937,-0.126 1.89,-0.182 2.856,-0.182c13.456,0 24.38,10.924 24.38,24.38c0,13.456 -10.924,24.381 -24.38,24.381c-0.966,0 -1.919,-0.057 -2.856,-0.182l0,-20.123l-0.394,-0.012l0.394,0l0,0.012c3.017,0.017 5.307,0.36 6.869,1.019c1.63,0.687 2.906,1.717 3.827,3.091c0.921,1.374 1.405,3.528 1.452,6.462l2.622,0l0,-25.568l-2.622,0c-0.614,4.122 -1.854,6.88 -3.72,8.272c-1.804,1.347 -4.613,2.042 -8.428,2.071l0,0.018l-0.394,0l0.394,-0.018l0,-23.621Z" style="fill:rgb(96,94,115);"/>        </g>        <g transform="matrix(1.06171,0,0,1.06171,2.62719,-4.2833)">            <path d="M13.961,11.031l0,35.881c-4.874,-4.437 -7.92,-10.836 -7.92,-17.941c0,-7.104 3.046,-13.503 7.92,-17.94Z" style="fill:rgb(96,94,115);"/>        </g>        <g transform="matrix(154.074,0,0,121.119,0.372028,70.1781)">            <path d="M0.205,-0.573l0,0.207l-0.003,0l0.003,0l0,0c0.026,0 0.045,-0.006 0.058,-0.018c0.013,-0.012 0.021,-0.036 0.025,-0.073l0.018,0l0,0.225l-0.018,0c0,-0.026 -0.003,-0.045 -0.01,-0.057c-0.006,-0.012 -0.015,-0.021 -0.026,-0.027c-0.011,-0.006 -0.027,-0.009 -0.047,-0.009l0,0l-0.003,0l0.003,0l0,0.176c-0.036,-0.005 -0.069,-0.025 -0.094,-0.055l0,-0.314c0.025,-0.03 0.058,-0.05 0.094,-0.055Z" style="fill:white;"/>        </g>    </g></svg>