<?xml version="1.0" encoding="UTF-8" standalone="no"?><!DOCTYPE svg PUBLIC "-//W3C//DTD SVG 1.1//EN" "http://www.w3.org/Graphics/SVG/1.1/DTD/svg11.dtd"><svg width="100%" height="100%" viewBox="0 0 512 512" version="1.1" xmlns="http://www.w3.org/2000/svg" xmlns:xlink="http://www.w3.org/1999/xlink" xml:space="preserve" style="fill-rule:evenodd;clip-rule:evenodd;stroke-linejoin:round;stroke-miterlimit:2;"><title>Lendy</title><desc>We're one of Europe's leading peer-to-peer secured property lending platformsAt Lendy we have a reputation for having one of the most experienced and specialist credit assessment teams in the industry, who ensure each investment loan has met our rigorous and robust lending criteria. We only offer investors loans to invest in that have been through our rigorous and streamlined due diligence, credit and legal checking.</desc>    <g transform="matrix(3.61778,0,0,3.61749,-270.16,-195.411)">        <g transform="matrix(0.507312,0,0,0.507353,-0.192737,-0.432353)">            <path d="M235,354.2c0,-1.7 5.7,-6.1 30,-23.7c61.1,-44 86.2,-65.5 94.1,-80.7c2.7,-5.3 2.5,-10.9 -0.6,-14.2c-4.7,-5.1 -10.7,-6.9 -24.3,-7.4c-15.1,-0.5 -25.5,0.7 -53.7,6.4c-12.1,2.4 -22.9,4.4 -24,4.4c-7.6,-0.2 25.8,-18.3 55.3,-30.1c50.3,-20.1 88.6,-21.8 106.2,-4.8c5.7,5.6 8,10.9 8,19c0,5.8 -0.5,7.7 -4.2,15c-7.8,15.6 -31.7,37 -64,57.3c-32.3,20.3 -79.2,43.9 -108.8,54.9c-12.6,4.6 -14,5 -14,3.9Z" style="fill:rgb(21,122,189);fill-rule:nonzero;"/>        </g>        <g transform="matrix(0.507312,0,0,0.507353,-0.192737,-0.432353)">            <path d="M182,301.4c-16.6,-3 -26.6,-9.4 -31.6,-19.9c-6,-12.7 -0.2,-27.6 18.1,-45.9c22.3,-22.5 58.1,-45.7 110.4,-71.5c23.7,-11.7 51.7,-23.6 58.1,-24.7l3.5,-0.5l-4.2,3.9c-2.3,2.1 -17.6,13.6 -34,25.5c-55.7,40.5 -79.2,61 -86.9,75.9c-3.2,6.4 -3.1,9.9 0.6,14.2c4.8,5.4 9.6,6.9 24.7,7.4c15.5,0.5 27.1,-0.9 55.7,-6.9c25.2,-5.2 26.8,-5.1 17.4,1.1c-22.4,14.6 -67.2,33 -94.3,38.6c-11.4,2.3 -31.8,3.9 -37.5,2.8Z" style="fill:rgb(21,122,189);fill-rule:nonzero;"/>        </g>    </g></svg>