<?xml version="1.0" encoding="UTF-8" standalone="no"?><!DOCTYPE svg PUBLIC "-//W3C//DTD SVG 1.1//EN" "http://www.w3.org/Graphics/SVG/1.1/DTD/svg11.dtd"><svg width="100%" height="100%" viewBox="0 0 512 512" version="1.1" xmlns="http://www.w3.org/2000/svg" xmlns:xlink="http://www.w3.org/1999/xlink" xml:space="preserve" style="fill-rule:evenodd;clip-rule:evenodd;stroke-linejoin:round;stroke-miterlimit:2;"><title>Kapitalfreunde</title><desc>Kapitalfreunde.de is a real estate investment platform that uses crowdfunding to make private real estate investing simple. Private investors can select and make direct investments in institutional quality real estate assets directly on our website</desc>    <g transform="matrix(3.66581,0,0,3.66581,2.90912,162.269)">        <g transform="matrix(0.301371,0,0,0.301371,-7.90187,-51.6054)">            <rect x="24.492" y="25.26" width="461.635" height="461.635" style="fill:rgb(8,39,86);"/>        </g>        <g transform="matrix(2.68742,0,0,2.68742,41.0265,-22.3327)">            <path d="M8.558,21.491l-2.36,0l0,12.379c0,0.578 -0.47,1.047 -1.048,1.047l-4.355,0c-0.578,0 -1.043,-0.469 -1.043,-1.047l0,-30.063c0,-0.578 0.465,-1.045 1.043,-1.045l4.355,0c0.578,0 1.048,0.467 1.048,1.045l0,12.094l1.812,0l8.229,-12.273c0.363,-0.539 0.978,-0.865 1.63,-0.865l5.881,0c0.435,0 0.68,0.494 0.423,0.838l-10.51,14.114l11.395,16.347c0.252,0.358 -0.007,0.854 -0.448,0.854l-6.124,0c-0.65,0 -1.264,-0.328 -1.621,-0.869l-8.307,-12.556Z" style="fill:white;fill-rule:nonzero;"/>        </g>    </g></svg>