<?xml version="1.0" encoding="UTF-8" standalone="no"?><!DOCTYPE svg PUBLIC "-//W3C//DTD SVG 1.1//EN" "http://www.w3.org/Graphics/SVG/1.1/DTD/svg11.dtd"><svg width="100%" height="100%" viewBox="0 0 512 512" version="1.1" xmlns="http://www.w3.org/2000/svg" xmlns:xlink="http://www.w3.org/1999/xlink" xml:space="preserve" style="fill-rule:evenodd;clip-rule:evenodd;stroke-linejoin:round;stroke-miterlimit:2;"><title>Yielders</title><desc>Yielders is a crowdinvesting property platform that gives you easy access to the UK property market and allows you to earn competitive returns. With our ethical investment model, there is no mortgage, interest, debt or hidden fees, which means you can grow your wealth without compromising on your values. </desc>    <g transform="matrix(3.74505,0,0,3.74505,-294.199,-124.429)">        <g transform="matrix(0.288944,0,0,0.288944,77.6674,27.7087)">            <path d="M461.442,79.449c0,-25.152 -20.42,-45.572 -45.572,-45.572l-352.434,0c-25.152,0 -45.572,20.42 -45.572,45.572l0,352.434c0,25.152 20.42,45.572 45.572,45.572l352.434,0c25.152,0 45.572,-20.42 45.572,-45.572l0,-352.434Z" style="fill:rgb(38,38,54);"/>        </g>        <g transform="matrix(1.55118,0,0,1.55118,181.748,147.4)">            <path d="M0,-51.857l-9.788,0c-1.519,4.037 -2.943,8.109 -4.358,12.183c-1.375,3.957 -2.734,7.919 -4.165,11.856c-1.065,2.929 -2.258,5.816 -3.507,8.671c-0.836,1.909 -1.707,3.803 -2.645,5.664c-0.909,1.804 -1.746,3.653 -3.079,5.199c-0.565,0.655 -1.191,1.257 -1.87,1.793c-1.361,1.074 -2.929,1.883 -4.591,2.376c-0.811,0.241 -1.563,0.355 -2.393,0.381c-0.647,0.019 -1.356,0.165 -1.586,0.854c-0.073,0.22 0.715,0.764 1.434,1.11c3.68,1.77 8.01,1.548 11.785,-0.019c5.997,-2.489 8.181,-7.823 10.818,-14.085c2.893,-6.871 13.945,-35.983 13.945,-35.983" style="fill:white;fill-rule:nonzero;"/>        </g>        <g transform="matrix(0.427374,0,0,0.427374,88.1694,-14.2109)">            <path d="M56.226,166.765c-0.312,0.613 -0.326,1.342 -0.218,2.021c0.465,2.882 2.744,4.955 3.924,7.524c1.372,2.991 2.417,6.232 3.285,9.404c1.865,6.81 2.787,13.826 4.036,20.762c2.958,16.471 5.909,33.214 12.838,48.527c7.516,16.591 17.853,24.18 34.604,31.196c2.297,0.958 15.27,5.43 20.017,4.036c1.136,-0.334 1.797,-0.998 1.739,-2.13c-0.062,-1.155 -0.799,-2.153 -1.478,-3.093c-3.829,-5.31 -6.7,-11.313 -8.442,-17.625c-1.456,-5.292 -1.71,-10.522 -2.457,-15.93c-0.069,-0.494 -0.142,-0.987 -0.218,-1.477c-2.588,-16.395 -4.864,-33.302 -12.765,-48.085c-9.855,-18.427 -27.501,-29.352 -46.941,-35.047c-1.42,-0.417 -2.846,-0.806 -4.28,-1.176c-0.301,-0.011 -0.635,-0.029 -0.976,-0.029c-1.049,-0 -2.174,0.16 -2.668,1.122Z" style="fill:url(#_Radial1);fill-rule:nonzero;"/>        </g>    </g>    <defs>        <radialGradient id="_Radial1" cx="0" cy="0" r="1" gradientUnits="userSpaceOnUse" gradientTransform="matrix(1,0,5.55112e-17,-1,0,14.0962)"><stop offset="0" style="stop-color:rgb(139,205,200);stop-opacity:1"/><stop offset="1" style="stop-color:rgb(67,147,140);stop-opacity:1"/></radialGradient>    </defs></svg>