<?xml version="1.0" encoding="UTF-8" standalone="no"?><!DOCTYPE svg PUBLIC "-//W3C//DTD SVG 1.1//EN" "http://www.w3.org/Graphics/SVG/1.1/DTD/svg11.dtd"><svg width="100%" height="100%" viewBox="0 0 512 512" version="1.1" xmlns="http://www.w3.org/2000/svg" xmlns:xlink="http://www.w3.org/1999/xlink" xml:space="preserve" style="fill-rule:evenodd;clip-rule:evenodd;stroke-linejoin:round;stroke-miterlimit:2;"><title>Prêtgo</title><desc>Prêtgo is a web crowdfunding platform via personal to business lending. Prêtgo aims to connect VSEs-SMEs with projects and individuals wishing to invest in the local economy.Investing, earning money, while remaining united, is the conviction of Prêtgo.</desc>    <g transform="matrix(7.30693,0,0,7.30693,-9.48961,40.0056)">        <g transform="matrix(1,0,0,1,0.58902,0)">            <path d="M20.831,12.22l31.945,31.945l0,10.527c0,2.106 -1.709,3.816 -3.815,3.816l-44.299,0c-2.106,0 -3.815,-1.71 -3.815,-3.816l0,-38.656c0,-2.106 1.709,-3.816 3.815,-3.816l16.169,0Z" style="fill:rgb(0,120,190);"/>        </g>        <path d="M19.303,6.104l0,-1.676c0,-2.106 1.709,-3.816 3.815,-3.816l44.299,0c2.106,0 3.815,1.71 3.815,3.816l0,38.657c0,2.106 -1.709,3.816 -3.815,3.816l-4.461,0l0,-8.176l-32.085,-32.621l-11.568,0Z" style="fill:rgb(75,63,76);"/>    </g></svg>