<?xml version="1.0" encoding="UTF-8" standalone="no"?><!DOCTYPE svg PUBLIC "-//W3C//DTD SVG 1.1//EN" "http://www.w3.org/Graphics/SVG/1.1/DTD/svg11.dtd"><svg width="100%" height="100%" viewBox="0 0 512 512" version="1.1" xmlns="http://www.w3.org/2000/svg" xmlns:xlink="http://www.w3.org/1999/xlink" xml:space="preserve" style="fill-rule:evenodd;clip-rule:evenodd;stroke-linejoin:round;stroke-miterlimit:2;"><title>Octopus Choice</title><desc>Octopus Investments is the market leader in venture capital trust and inheritance tax investments. We also offer a range of investment funds that draw on our deep experience in smaller company and multi-manager investing.Octopus Choice, the peer-to-peer product that lets you invest in property-backed loans, is offered through Octopus Co-Lend. Through Octopus Co-Lend we also provide Octopus Cash, an easy-to-use cash management platform that advisers can use to get investors top tier savings rates.</desc>    <g transform="matrix(1.4913,0,0,1.4913,-93.5418,-173.482)">        <path d="M186.471,348.983c-33.106,-25.08 -56.471,-72.267 -56.471,-114.983c0,-82 48.929,-117 105.5,-117c56.571,0 105.5,41 105.5,117c0,42.092 -22.688,88.526 -55.027,113.87c23.944,-1.87 47.751,-5.208 70.827,-11.239c1.353,-0.353 3.306,-0.911 3.306,-0.911l4.039,-0.698c1.363,0.096 2.725,0.192 4.088,0.288c3.433,1.108 4.506,1.111 7.386,3.414c7.371,5.896 8.454,18.387 1.28,25.418c-2.805,2.748 -3.69,3.175 -7.747,4.357c-29.635,8.509 -60.621,11.9 -91.62,13.966c-2.441,0.162 -4.884,0.314 -7.328,0.455c3.673,4.973 7.997,9.632 13.046,13.883c21.301,17.938 49.482,26.822 76.135,28.192c0.145,0.007 0.343,0.015 0.343,0.015c0,0 2.022,0.102 3.702,0.54c9.622,2.508 15.515,14.489 11.035,23.812c-2.996,6.237 -9.983,9.956 -17.085,9.575c-51.529,-2.761 -102.998,-28.117 -125.989,-74.61c-7.56,15.765 -18.593,30.096 -33.662,41.765c-24.699,19.126 -55.915,29.477 -86.701,32.441c-2.09,0.201 -4.184,0.364 -6.282,0.451c0,0 -6.114,-0.223 -9.945,-2.688c-7.579,-4.876 -10.082,-16.209 -4.838,-23.885c3.298,-4.828 9.108,-7.085 15.159,-7.499c15.453,-1.126 30.812,-4.823 44.955,-10.554c16.486,-6.68 31.935,-16.934 42.818,-31.183c-19.645,-1.123 -39.186,-3.246 -58.479,-6.58c-12.165,-2.102 -24.375,-4.49 -35.933,-8.514c0,0 -2.375,-0.922 -3.839,-1.887c-5.776,-3.807 -8.726,-11.244 -7.233,-17.909c1.813,-8.096 10.053,-14.022 18.277,-13.201c3.574,0.357 6.98,1.887 10.527,2.845c22.915,6.185 46.541,9.499 70.256,11.054Z" style="fill:rgb(27,7,58);"/>        <g transform="matrix(0.992426,-0.182375,0.122842,1.47338,-55.8944,-185.932)">            <ellipse cx="104" cy="437" rx="7" ry="4" style="fill:rgb(189,141,255);"/>        </g>        <g transform="matrix(-0.992426,-0.182375,-0.122842,1.47338,517.859,-185.932)">            <ellipse cx="104" cy="437" rx="7" ry="4" style="fill:rgb(189,141,255);"/>        </g>        <g transform="matrix(0.992426,-0.116997,0.122842,0.945204,-35.9298,30.8891)">            <ellipse cx="104" cy="437" rx="7" ry="4" style="fill:rgb(189,141,255);"/>        </g>        <g transform="matrix(0.954195,0.32815,-0.616058,1.34403,273.773,-275.621)">            <ellipse cx="104" cy="437" rx="7" ry="4" style="fill:rgb(189,141,255);"/>        </g>        <g transform="matrix(0.972775,0.228707,-0.207097,0.930382,114.05,-80.9849)">            <ellipse cx="104" cy="437" rx="7" ry="4" style="fill:rgb(189,141,255);"/>        </g>        <g transform="matrix(-0.954195,0.32815,0.616058,1.34403,193.804,-275.621)">            <ellipse cx="104" cy="437" rx="7" ry="4" style="fill:rgb(189,141,255);"/>        </g>        <g transform="matrix(-0.972775,0.228707,0.207097,0.930382,353.527,-80.9849)">            <ellipse cx="104" cy="437" rx="7" ry="4" style="fill:rgb(189,141,255);"/>        </g>        <g transform="matrix(-0.992426,-0.116997,-0.122842,0.945204,496.93,29.8891)">            <ellipse cx="104" cy="437" rx="7" ry="4" style="fill:rgb(189,141,255);"/>        </g>    </g></svg>