<?xml version="1.0" encoding="UTF-8" standalone="no"?><!DOCTYPE svg PUBLIC "-//W3C//DTD SVG 1.1//EN" "http://www.w3.org/Graphics/SVG/1.1/DTD/svg11.dtd"><svg width="100%" height="100%" viewBox="0 0 512 512" version="1.1" xmlns="http://www.w3.org/2000/svg" xmlns:xlink="http://www.w3.org/1999/xlink" xml:space="preserve" style="fill-rule:evenodd;clip-rule:evenodd;stroke-linejoin:round;stroke-miterlimit:2;"><title>Beesfund</title><desc>Beesfund.com is the first equity based crowdfunding platform in Poland. It enables idea originators to encourage Internet users to raise capital to carry out their own business, social and cultural ventures.</desc>    <g transform="matrix(3.55465,0,0,3.55465,-57.1043,-36.1781)">        <path d="M108.58,115.502l0,25.62l-20.497,10.249l-20.496,-10.249l0,-25.62l20.496,-10.248l20.497,10.248Zm-51.241,0l0,25.62l-20.496,10.249l-20.497,-10.249l0,-25.62l20.497,-10.248l20.496,10.248Zm25.619,-46.116l0,25.62l-20.496,10.248l-20.495,-10.248l0,-25.62l20.495,-10.248l20.496,10.248Zm51.242,0l0,25.62l-20.496,10.248l-20.497,-10.248l0,-25.62l20.497,-10.248l20.496,10.248Zm-25.62,-46.117l0,25.62l-20.497,10.249l-20.496,-10.249l0,-25.62l20.496,-10.248l20.497,10.248Zm51.24,92.233l0,25.62l-20.496,10.249l-20.496,-10.249l0,-25.62l20.496,-10.248l20.496,10.248Z" style="fill:rgb(251,186,0);fill-rule:nonzero;"/>    </g></svg>