<?xml version="1.0" encoding="UTF-8" standalone="no"?><!DOCTYPE svg PUBLIC "-//W3C//DTD SVG 1.1//EN" "http://www.w3.org/Graphics/SVG/1.1/DTD/svg11.dtd"><svg width="100%" height="100%" viewBox="0 0 512 512" version="1.1" xmlns="http://www.w3.org/2000/svg" xmlns:xlink="http://www.w3.org/1999/xlink" xml:space="preserve" style="fill-rule:evenodd;clip-rule:evenodd;stroke-linejoin:round;stroke-miterlimit:2;"><title>Foxstone</title><desc>Specializing in real estate crowdfunding, Foxstone offers a direct access to the Swiss real estate market from CHF 25’000 to democratize investments in Switzerland.Focused on simplicity and transparency, the intuitive platform allows investors to become co-owners of a yield building and benefit from rental income.Foxstone offers a turnkey service where every procedure is done online. From the selection to the management of the building, Foxstone takes care of all the formalities on behalf of the investors.</desc>    <g transform="matrix(4.37183,0,0,4.37183,-3221.07,-229.343)">        <g transform="matrix(3.67419,12.4035,-12.4035,3.67419,830.831,62.2339)">            <path d="M-0.184,0.312l1.524,0l-0.226,-0.974l-1.32,0.94l0.022,0.034Z" style="fill:url(#_Linear1);fill-rule:nonzero;"/>        </g>        <g transform="matrix(13.345,13.9069,-13.9069,13.345,767.986,129.204)">            <path d="M0.35,0.585l0.281,0l0.137,-1.057l-0.562,0.057l0.144,1Z" style="fill:url(#_Linear2);fill-rule:nonzero;"/>        </g>        <g transform="matrix(28.2537,-6.90754,6.90754,28.2537,753.639,151.582)">            <path d="M0.442,-0.235c-0.05,0.233 -0.1,0.465 -0.15,0.699l0.15,-0.042c0.096,-0.293 0.19,-0.587 0.285,-0.881c-0.095,0.075 -0.189,0.15 -0.285,0.224Z" style="fill:url(#_Linear3);fill-rule:nonzero;"/>        </g>        <g transform="matrix(4.30652,18.8508,-18.8508,4.30652,777.394,114.491)">            <path d="M0.084,0.396l0.638,0l0.326,-0.549l-0.929,-0.425l-0.035,0.974Z" style="fill:url(#_Linear4);fill-rule:nonzero;"/>        </g>        <g transform="matrix(21.6149,7.78797,-7.78797,21.6149,750.066,102.424)">            <path d="M-0.303,0.175l1.442,0l-0.112,-0.48l-0.853,-0.067l-0.477,0.547Z" style="fill:url(#_Linear5);fill-rule:nonzero;"/>        </g>        <g transform="matrix(0,-38.6128,38.6128,0,754.167,114.249)">            <path d="M0.892,-0.444l-0.19,0.041l-0.441,0.099l-0.261,0.748l1,-0.786l-0.108,-0.102Z" style="fill:url(#_Linear6);fill-rule:nonzero;"/>        </g>        <g transform="matrix(16.4065,5.41512,-5.41512,16.4065,811.613,93.6429)">            <path d="M-0.059,0.172l0.956,0l0.224,-0.288l-0.73,-0.378l-0.45,0.666Z" style="fill:url(#_Linear7);fill-rule:nonzero;"/>        </g>        <g transform="matrix(47.8939,-27.6516,27.6516,47.8939,766.72,106.265)">            <path d="M0.152,-0.022l-0.152,0.189l0.814,0.091l0.186,-0.023l-0.142,-0.493l-0.706,0.236Z" style="fill:url(#_Linear8);fill-rule:nonzero;"/>        </g>        <g transform="matrix(18.7166,18.1477,-18.1477,18.7166,809.56,66.6791)">            <path d="M-0.151,0.335l1.111,0l-0.081,-0.611l-0.648,-0.32l-0.382,0.931Z" style="fill:url(#_Linear9);fill-rule:nonzero;"/>        </g>        <g transform="matrix(1.70322,10.5726,-10.5726,1.70322,841.691,73.6529)">            <path d="M0.09,0.18l0.889,0l-0.405,-0.414l-0.567,0.15l0.083,0.264Z" style="fill:url(#_Linear10);fill-rule:nonzero;"/>        </g>        <g transform="matrix(6.15973,10.1051,-10.1051,6.15973,836.288,79.3753)">            <path d="M-0.153,0.485l1.183,0l0.237,-0.39l-1.524,-0.613l0.104,1.003Z" style="fill:url(#_Linear11);fill-rule:nonzero;"/>        </g>        <g transform="matrix(15.0783,11.5974,-11.5974,15.0783,831.781,60.1976)">            <path d="M-0.311,0.206l1.197,0l0.393,-0.335l0.005,-0.088l-1.595,0.423Z" style="fill:url(#_Linear12);fill-rule:nonzero;"/>        </g>        <g transform="matrix(3.97209,13.6362,-13.6362,3.97209,829.249,61.1566)">            <path d="M-0.189,0.306l1.541,0l-0.237,-0.971l-1.326,0.937l0.022,0.034Z" style="fill:url(#_Linear13);fill-rule:nonzero;"/>        </g>        <g transform="matrix(9.63208,-5.56109,5.56109,9.63208,821.623,104.493)">            <path d="M0,0.554l0,0l0.326,0.123l0.676,-0.792l-0.144,-0.562l-0.858,1.231Z" style="fill:url(#_Linear14);fill-rule:nonzero;"/>        </g>        <g transform="matrix(25.0458,-14.4602,14.4602,25.0458,767.416,113.663)">            <path d="M0.398,-0.276c-0.133,0.155 -0.265,0.312 -0.398,0.468l0.595,0.285l0.337,-0.294c0.023,-0.22 0.045,-0.44 0.068,-0.66c-0.2,0.067 -0.401,0.133 -0.602,0.201Z" style="fill:url(#_Linear15);fill-rule:nonzero;"/>        </g>        <g transform="matrix(0,-24.1974,24.1974,0,743.491,90.2116)">            <path d="M0.428,-0.268l-0.428,0.093c-0.004,0.007 0.33,0.156 1,0.443c-0.192,-0.179 -0.382,-0.357 -0.572,-0.536Z" style="fill:url(#_Linear16);fill-rule:nonzero;"/>        </g>    </g>    <defs>        <linearGradient id="_Linear1" x1="0" y1="0" x2="1" y2="0" gradientUnits="userSpaceOnUse" gradientTransform="matrix(-0.233438,-0.972372,-0.972372,0.233438,0.61665,0.486132)"><stop offset="0" style="stop-color:rgb(238,113,51);stop-opacity:1"/><stop offset="1" style="stop-color:rgb(199,95,40);stop-opacity:1"/></linearGradient>        <linearGradient id="_Linear2" x1="0" y1="0" x2="1" y2="0" gradientUnits="userSpaceOnUse" gradientTransform="matrix(-0.721535,-0.692378,-0.692378,0.721535,0.860721,0.34617)"><stop offset="0" style="stop-color:rgb(238,113,51);stop-opacity:1"/><stop offset="0.26" style="stop-color:rgb(235,112,50);stop-opacity:1"/><stop offset="0.5" style="stop-color:rgb(226,108,45);stop-opacity:1"/><stop offset="0.73" style="stop-color:rgb(214,103,44);stop-opacity:1"/><stop offset="0.96" style="stop-color:rgb(195,93,40);stop-opacity:1"/><stop offset="0.96" style="stop-color:rgb(195,93,40);stop-opacity:1"/><stop offset="1" style="stop-color:rgb(195,93,40);stop-opacity:1"/></linearGradient>        <linearGradient id="_Linear3" x1="0" y1="0" x2="1" y2="0" gradientUnits="userSpaceOnUse" gradientTransform="matrix(0.237488,-0.97139,-0.97139,-0.237488,0.381244,0.48568)"><stop offset="0" style="stop-color:rgb(238,113,51);stop-opacity:1"/><stop offset="0.26" style="stop-color:rgb(235,112,50);stop-opacity:1"/><stop offset="0.5" style="stop-color:rgb(226,108,45);stop-opacity:1"/><stop offset="0.73" style="stop-color:rgb(214,103,44);stop-opacity:1"/><stop offset="0.96" style="stop-color:rgb(195,93,40);stop-opacity:1"/><stop offset="0.96" style="stop-color:rgb(195,93,40);stop-opacity:1"/><stop offset="1" style="stop-color:rgb(195,93,40);stop-opacity:1"/></linearGradient>        <linearGradient id="_Linear4" x1="0" y1="0" x2="1" y2="0" gradientUnits="userSpaceOnUse" gradientTransform="matrix(-0.974884,-0.222715,-0.222715,0.974884,0.987463,0.11136)"><stop offset="0" style="stop-color:rgb(238,113,51);stop-opacity:1"/><stop offset="0.26" style="stop-color:rgb(235,112,50);stop-opacity:1"/><stop offset="0.5" style="stop-color:rgb(226,108,45);stop-opacity:1"/><stop offset="0.73" style="stop-color:rgb(214,103,44);stop-opacity:1"/><stop offset="0.96" style="stop-color:rgb(195,93,40);stop-opacity:1"/><stop offset="0.96" style="stop-color:rgb(195,93,40);stop-opacity:1"/><stop offset="1" style="stop-color:rgb(195,93,40);stop-opacity:1"/></linearGradient>        <linearGradient id="_Linear5" x1="0" y1="0" x2="1" y2="0" gradientUnits="userSpaceOnUse" gradientTransform="matrix(0.425552,-0.904934,-0.904934,-0.425552,0.287138,0.452331)"><stop offset="0" style="stop-color:rgb(238,113,51);stop-opacity:1"/><stop offset="0.26" style="stop-color:rgb(235,112,50);stop-opacity:1"/><stop offset="0.5" style="stop-color:rgb(226,108,45);stop-opacity:1"/><stop offset="0.73" style="stop-color:rgb(214,103,44);stop-opacity:1"/><stop offset="0.96" style="stop-color:rgb(195,93,40);stop-opacity:1"/><stop offset="0.96" style="stop-color:rgb(195,93,40);stop-opacity:1"/><stop offset="1" style="stop-color:rgb(195,93,40);stop-opacity:1"/></linearGradient>        <linearGradient id="_Linear6" x1="0" y1="0" x2="1" y2="0" gradientUnits="userSpaceOnUse" gradientTransform="matrix(1,0,0,-1,0,4.2877e-05)"><stop offset="0" style="stop-color:rgb(238,113,51);stop-opacity:1"/><stop offset="0.26" style="stop-color:rgb(235,112,50);stop-opacity:1"/><stop offset="0.5" style="stop-color:rgb(226,108,45);stop-opacity:1"/><stop offset="0.73" style="stop-color:rgb(214,103,44);stop-opacity:1"/><stop offset="0.96" style="stop-color:rgb(195,93,40);stop-opacity:1"/><stop offset="0.96" style="stop-color:rgb(195,93,40);stop-opacity:1"/><stop offset="1" style="stop-color:rgb(195,93,40);stop-opacity:1"/></linearGradient>        <linearGradient id="_Linear7" x1="0" y1="0" x2="1" y2="0" gradientUnits="userSpaceOnUse" gradientTransform="matrix(0.665674,-0.746242,-0.746242,-0.665674,0.167171,0.373139)"><stop offset="0" style="stop-color:rgb(209,102,44);stop-opacity:1"/><stop offset="0.14" style="stop-color:rgb(221,106,43);stop-opacity:1"/><stop offset="0.32" style="stop-color:rgb(232,109,48);stop-opacity:1"/><stop offset="0.55" style="stop-color:rgb(236,110,50);stop-opacity:1"/><stop offset="1" style="stop-color:rgb(237,111,51);stop-opacity:1"/></linearGradient>        <linearGradient id="_Linear8" x1="0" y1="0" x2="1" y2="0" gradientUnits="userSpaceOnUse" gradientTransform="matrix(1,5.55112e-17,5.55112e-17,-1,0,-3.55465e-06)"><stop offset="0" style="stop-color:rgb(238,113,51);stop-opacity:1"/><stop offset="0.42" style="stop-color:rgb(236,112,51);stop-opacity:1"/><stop offset="0.57" style="stop-color:rgb(233,110,48);stop-opacity:1"/><stop offset="0.68" style="stop-color:rgb(224,108,44);stop-opacity:1"/><stop offset="0.72" style="stop-color:rgb(218,106,43);stop-opacity:1"/><stop offset="0.85" style="stop-color:rgb(217,105,44);stop-opacity:1"/><stop offset="0.9" style="stop-color:rgb(214,103,43);stop-opacity:1"/><stop offset="0.94" style="stop-color:rgb(204,98,42);stop-opacity:1"/><stop offset="0.96" style="stop-color:rgb(195,93,40);stop-opacity:1"/><stop offset="1" style="stop-color:rgb(195,93,40);stop-opacity:1"/></linearGradient>        <linearGradient id="_Linear9" x1="0" y1="0" x2="1" y2="0" gradientUnits="userSpaceOnUse" gradientTransform="matrix(0.273695,-0.961817,-0.961817,-0.273695,0.36315,0.480905)"><stop offset="0" style="stop-color:rgb(239,126,48);stop-opacity:1"/><stop offset="0.32" style="stop-color:rgb(237,125,49);stop-opacity:1"/><stop offset="0.56" style="stop-color:rgb(231,119,49);stop-opacity:1"/><stop offset="0.77" style="stop-color:rgb(220,111,42);stop-opacity:1"/><stop offset="0.96" style="stop-color:rgb(203,98,42);stop-opacity:1"/><stop offset="1" style="stop-color:rgb(199,95,40);stop-opacity:1"/></linearGradient>        <linearGradient id="_Linear10" x1="0" y1="0" x2="1" y2="0" gradientUnits="userSpaceOnUse" gradientTransform="matrix(-0.987271,-0.159047,-0.159047,0.987271,0.995281,0.0796554)"><stop offset="0" style="stop-color:rgb(238,113,51);stop-opacity:1"/><stop offset="0.24" style="stop-color:rgb(236,112,51);stop-opacity:1"/><stop offset="0.42" style="stop-color:rgb(229,109,46);stop-opacity:1"/><stop offset="0.59" style="stop-color:rgb(217,105,43);stop-opacity:1"/><stop offset="0.74" style="stop-color:rgb(201,97,42);stop-opacity:1"/><stop offset="0.89" style="stop-color:rgb(178,88,39);stop-opacity:1"/><stop offset="1" style="stop-color:rgb(158,77,35);stop-opacity:1"/></linearGradient>        <linearGradient id="_Linear11" x1="0" y1="0" x2="1" y2="0" gradientUnits="userSpaceOnUse" gradientTransform="matrix(0.0238244,-0.999716,-0.999716,-0.0238244,0.488015,0.499783)"><stop offset="0" style="stop-color:rgb(238,113,51);stop-opacity:1"/><stop offset="0.94" style="stop-color:rgb(201,96,40);stop-opacity:1"/><stop offset="1" style="stop-color:rgb(123,56,11);stop-opacity:1"/></linearGradient>        <linearGradient id="_Linear12" x1="0" y1="0" x2="1" y2="0" gradientUnits="userSpaceOnUse" gradientTransform="matrix(0.381625,-0.924317,-0.924317,-0.381625,0.309183,0.462152)"><stop offset="0" style="stop-color:rgb(238,113,51);stop-opacity:1"/><stop offset="1" style="stop-color:rgb(199,95,40);stop-opacity:1"/></linearGradient>        <linearGradient id="_Linear13" x1="0" y1="0" x2="1" y2="0" gradientUnits="userSpaceOnUse" gradientTransform="matrix(-0.23785,-0.971302,-0.971302,0.23785,0.618833,0.485579)"><stop offset="0" style="stop-color:rgb(238,113,51);stop-opacity:1"/><stop offset="1" style="stop-color:rgb(199,95,40);stop-opacity:1"/></linearGradient>        <linearGradient id="_Linear14" x1="0" y1="0" x2="1" y2="0" gradientUnits="userSpaceOnUse" gradientTransform="matrix(1,0,0,-1,0,4.70727e-05)"><stop offset="0" style="stop-color:rgb(238,113,51);stop-opacity:1"/><stop offset="0.97" style="stop-color:rgb(215,98,49);stop-opacity:1"/><stop offset="1" style="stop-color:rgb(215,98,49);stop-opacity:1"/></linearGradient>        <linearGradient id="_Linear15" x1="0" y1="0" x2="1" y2="0" gradientUnits="userSpaceOnUse" gradientTransform="matrix(1,-5.55112e-17,-5.55112e-17,-1,0,2.52219e-05)"><stop offset="0" style="stop-color:rgb(238,113,51);stop-opacity:1"/><stop offset="0.35" style="stop-color:rgb(229,109,46);stop-opacity:1"/><stop offset="0.95" style="stop-color:rgb(210,100,43);stop-opacity:1"/><stop offset="0.96" style="stop-color:rgb(210,100,43);stop-opacity:1"/><stop offset="1" style="stop-color:rgb(210,100,43);stop-opacity:1"/></linearGradient>        <linearGradient id="_Linear16" x1="0" y1="0" x2="1" y2="0" gradientUnits="userSpaceOnUse" gradientTransform="matrix(1,0,0,-1,0,-3.92604e-05)"><stop offset="0" style="stop-color:rgb(238,113,51);stop-opacity:1"/><stop offset="0.26" style="stop-color:rgb(235,112,50);stop-opacity:1"/><stop offset="0.5" style="stop-color:rgb(226,108,45);stop-opacity:1"/><stop offset="0.73" style="stop-color:rgb(214,103,44);stop-opacity:1"/><stop offset="0.96" style="stop-color:rgb(195,93,40);stop-opacity:1"/><stop offset="0.96" style="stop-color:rgb(195,93,40);stop-opacity:1"/><stop offset="1" style="stop-color:rgb(195,93,40);stop-opacity:1"/></linearGradient>    </defs></svg>