<?xml version="1.0" encoding="UTF-8" standalone="no"?><!DOCTYPE svg PUBLIC "-//W3C//DTD SVG 1.1//EN" "http://www.w3.org/Graphics/SVG/1.1/DTD/svg11.dtd"><svg width="100%" height="100%" viewBox="0 0 512 512" version="1.1" xmlns="http://www.w3.org/2000/svg" xmlns:xlink="http://www.w3.org/1999/xlink" xml:space="preserve" style="fill-rule:evenodd;clip-rule:evenodd;stroke-linejoin:round;stroke-miterlimit:2;"><title>Cashlend</title><desc>Cashlend is a Bulgarian peer-to-peer lending platform through which investors can invest in the loans granted by our originators and receive a monthly return of 1.5% on their investment.</desc>    <g transform="matrix(15.1795,0,0,7.87983,-1399.52,91.0021)">        <g transform="matrix(0.0918072,0,0,0.176855,78.3658,-30.9194)">            <circle cx="334.365" cy="293.227" r="182.981" style="fill:rgb(40,40,40);"/>        </g>        <g transform="matrix(23.4541,0,0,48.7728,100.238,37.583)">            <path d="M0.708,-0.179c-0.012,0.053 -0.024,0.11 -0.035,0.17c-0.019,-0 -0.054,0.004 -0.104,0.013c-0.064,0.012 -0.111,0.018 -0.142,0.018c-0.076,-0 -0.143,-0.015 -0.2,-0.045c-0.057,-0.03 -0.102,-0.073 -0.134,-0.129c-0.032,-0.056 -0.048,-0.118 -0.048,-0.186c0,-0.067 0.017,-0.129 0.051,-0.186c0.034,-0.057 0.08,-0.101 0.14,-0.133c0.059,-0.032 0.126,-0.047 0.2,-0.047c0.031,-0 0.073,0.003 0.126,0.01c0.041,0.005 0.071,0.008 0.09,0.008c0.004,0.046 0.012,0.103 0.023,0.17c-0,0.005 -0.006,0.007 -0.016,0.007c-0.007,0 -0.011,-0.002 -0.012,-0.007c-0.012,-0.046 -0.038,-0.083 -0.078,-0.113c-0.04,-0.029 -0.085,-0.043 -0.137,-0.043c-0.078,-0 -0.144,0.032 -0.197,0.097c-0.053,0.064 -0.08,0.143 -0.08,0.237c0,0.091 0.026,0.168 0.079,0.232c0.053,0.064 0.117,0.096 0.193,0.096c0.119,0 0.203,-0.056 0.253,-0.169c0.002,-0.005 0.007,-0.008 0.014,-0.008c0.009,0 0.014,0.003 0.014,0.008Z" style="fill:rgb(66,118,218);fill-rule:nonzero;"/>        </g>    </g></svg>