<?xml version="1.0" encoding="UTF-8" standalone="no"?><!DOCTYPE svg PUBLIC "-//W3C//DTD SVG 1.1//EN" "http://www.w3.org/Graphics/SVG/1.1/DTD/svg11.dtd"><svg width="100%" height="100%" viewBox="0 0 512 512" version="1.1" xmlns="http://www.w3.org/2000/svg" xmlns:xlink="http://www.w3.org/1999/xlink" xml:space="preserve" style="fill-rule:evenodd;clip-rule:evenodd;stroke-linejoin:round;stroke-miterlimit:2;"><title>AdService</title><desc></desc>    <g transform="matrix(2.18612,0,0,2.18612,0.956278,74.5848)">        <g transform="matrix(1,0,0,1,-24.93,-24.93)">            <path d="M258.24,107.9l0,-0.63l0,-2.52c0,-3.907 -0.1,-7.84 -0.3,-11.8c0,-0.53 0,-1.06 -0.06,-1.6c-0.51,-12.75 -1.7,-29.9 -4.49,-40.49c-2.632,-10.168 -10.511,-18.187 -20.63,-21c-1.977,-0.509 -3.98,-0.909 -6,-1.2c-1.3,-0.21 -6.61,-0.87 -8,-1c-27.61,-2.77 -77.17,-2.78 -77.17,-2.78c-0.31,0 -49.57,0 -77.11,2.77c-1.37,0.11 -6.75,0.77 -8.06,1c-2.02,0.287 -4.023,0.684 -6,1.19c-10.119,2.813 -17.998,10.832 -20.63,21c-2.79,10.5 -3.95,27.47 -4.47,40.16c0,0.58 0,1.15 -0.07,1.72c-0.187,4 -0.287,7.963 -0.3,11.89l0,6.6c0,3.94 0.1,7.91 0.3,11.91c0,0.58 0,1.17 0.07,1.77c0.52,12.7 1.72,29.62 4.48,40.1c2.632,10.168 10.511,18.187 20.63,21c1.862,0.48 3.748,0.86 5.65,1.14c1.42,0.25 7.85,1 9.65,1.17c27.75,2.64 75.54,2.65 75.84,2.65c0.3,0 48.09,0 75.92,-2.65c1.77,-0.13 8.13,-0.91 9.52,-1.15c1.922,-0.282 3.828,-0.665 5.71,-1.15c10.119,-2.813 17.998,-10.832 20.63,-21c2.78,-10.56 4,-27.68 4.49,-40.41c0,-0.55 0,-1.09 0.06,-1.62c0.187,-4 0.287,-7.95 0.3,-11.85l0,-3.15c0,-0.06 0,0 0,0c0,0 0.04,-0.06 0.04,-0.07Z" style="fill:white;fill-rule:nonzero;"/>        </g>        <g transform="matrix(1,0,0,1,-24.93,-24.93)">            <path d="M186,96.71c-5.968,-0.079 -11.701,2.363 -15.78,6.72c-4.253,4.227 -6.614,10.004 -6.54,16c-0.163,6.079 2.224,11.957 6.58,16.2c4.415,4.326 10.412,6.665 16.59,6.47c5.682,0.082 11.131,-2.293 14.94,-6.51c4.057,-4.279 6.259,-9.995 6.12,-15.89c0.187,-6.096 -2.068,-12.021 -6.26,-16.45c-4.042,-4.312 -9.742,-6.694 -15.65,-6.54Z" style="fill:rgb(5,155,240);fill-rule:nonzero;"/>        </g>        <g transform="matrix(1,0,0,1,-24.93,-24.93)">            <path d="M258.24,107.9l0,-0.63l0,-2.52c0,-3.907 -0.1,-7.84 -0.3,-11.8c0,-0.53 0,-1.06 -0.06,-1.6c-0.51,-12.75 -1.7,-29.9 -4.49,-40.49c-2.632,-10.168 -10.511,-18.187 -20.63,-21c-1.977,-0.509 -3.98,-0.909 -6,-1.2c-1.3,-0.21 -6.61,-0.87 -8,-1c-27.61,-2.77 -77.17,-2.78 -77.17,-2.78c-0.31,0 -49.57,0 -77.11,2.77c-1.37,0.11 -6.75,0.77 -8.06,1c-2.02,0.287 -4.023,0.684 -6,1.19c-10.119,2.813 -17.998,10.832 -20.63,21c-2.79,10.5 -3.95,27.47 -4.47,40.16c0,0.58 0,1.15 -0.07,1.72c-0.187,4 -0.287,7.963 -0.3,11.89l0,6.6c0,3.94 0.1,7.91 0.3,11.91c0,0.58 0,1.17 0.07,1.77c0.52,12.7 1.72,29.62 4.48,40.1c2.632,10.168 10.511,18.187 20.63,21c1.862,0.48 3.748,0.86 5.65,1.14c1.42,0.25 7.85,1 9.65,1.17c27.75,2.64 75.54,2.65 75.84,2.65c0.3,0 48.09,0 75.92,-2.65c1.77,-0.13 8.13,-0.91 9.52,-1.15c1.922,-0.282 3.828,-0.665 5.71,-1.15c10.119,-2.813 17.998,-10.832 20.63,-21c2.78,-10.56 4,-27.68 4.49,-40.41c0,-0.55 0,-1.09 0.06,-1.62c0.187,-4 0.287,-7.95 0.3,-11.85l0,-3.15c0,-0.06 0,0 0,0c0,0 0.04,-0.06 0.04,-0.07Zm-134,51l-8.66,-22.32l-37.82,0l-8.26,22.27l-20.65,0l39.9,-102.85l17.25,0l39.76,102.87l-21.52,0.03Zm84.83,0l-0.41,-7.28c-3.36,2.694 -7.145,4.81 -11.2,6.26c-4.098,1.408 -8.407,2.108 -12.74,2.07c-4.675,0.014 -9.318,-0.784 -13.72,-2.36c-4.233,-1.504 -8.15,-3.783 -11.55,-6.72c-4.581,-3.901 -8.248,-8.763 -10.74,-14.24c-2.494,-5.481 -3.77,-11.438 -3.74,-17.46c-0.002,-11.409 4.804,-22.308 13.23,-30c3.459,-3.291 7.538,-5.861 12,-7.56c4.63,-1.745 9.542,-2.623 14.49,-2.59c4.465,-0.055 8.909,0.614 13.16,1.98c3.929,1.326 7.583,3.359 10.78,6l0,-31l17.64,0l0.41,102.87l-17.61,0.03Z" style="fill:rgb(5,155,240);fill-rule:nonzero;"/>        </g>        <path d="M59.69,92.7l24.36,0l-12.04,-32.82l-12.32,32.82Z" style="fill:rgb(5,155,240);fill-rule:nonzero;"/>    </g></svg>