<?xml version="1.0" encoding="UTF-8" standalone="no"?><!DOCTYPE svg PUBLIC "-//W3C//DTD SVG 1.1//EN" "http://www.w3.org/Graphics/SVG/1.1/DTD/svg11.dtd"><svg width="100%" height="100%" viewBox="0 0 512 512" version="1.1" xmlns="http://www.w3.org/2000/svg" xmlns:xlink="http://www.w3.org/1999/xlink" xml:space="preserve" style="fill-rule:evenodd;clip-rule:evenodd;stroke-linejoin:round;stroke-miterlimit:2;"><title>Comunitae</title><desc>Comunitae.com is the pioneer platform in Spain to offer individuals a new way to save more profitably than traditional financial products.Comunitae is the first crowd lending platform in Spain. They have been true pioneers in the field and we wanted to communicate this spirit of innovation, introducing them as an alternative to conventional banks.</desc>    <g transform="matrix(9.66924,0,0,9.66924,-4820.35,-3031.11)">        <g transform="matrix(64.9351,0,0,69.4444,537.299,363.236)">            <path d="M0.057,-0.643c0,-0.019 0.007,-0.036 0.022,-0.051c0.014,-0.014 0.032,-0.021 0.054,-0.021c0.022,0 0.041,0.007 0.055,0.021c0.016,0.013 0.023,0.03 0.023,0.051c0,0.021 -0.007,0.038 -0.023,0.052c-0.014,0.013 -0.033,0.02 -0.055,0.02c-0.022,0 -0.04,-0.007 -0.054,-0.022c-0.015,-0.014 -0.022,-0.031 -0.022,-0.05Z" style="fill:rgb(54,183,184);"/>        </g>        <g transform="matrix(64.9351,0,0,69.4444,537.299,377.653)">            <path d="M0.057,-0.643c0,-0.019 0.007,-0.036 0.022,-0.051c0.014,-0.014 0.032,-0.021 0.054,-0.021c0.022,0 0.041,0.007 0.055,0.021c0.016,0.013 0.023,0.03 0.023,0.051c0,0.021 -0.007,0.038 -0.023,0.052c-0.014,0.013 -0.033,0.02 -0.055,0.02c-0.022,0 -0.04,-0.007 -0.054,-0.022c-0.015,-0.014 -0.022,-0.031 -0.022,-0.05Z" style="fill:rgb(54,183,184);"/>        </g>        <g transform="matrix(64.9351,0,0,69.4444,537.299,391.653)">            <path d="M0.057,-0.643c0,-0.019 0.007,-0.036 0.022,-0.051c0.014,-0.014 0.032,-0.021 0.054,-0.021c0.022,0 0.041,0.007 0.055,0.021c0.016,0.013 0.023,0.03 0.023,0.051c0,0.021 -0.007,0.038 -0.023,0.052c-0.014,0.013 -0.033,0.02 -0.055,0.02c-0.022,0 -0.04,-0.007 -0.054,-0.022c-0.015,-0.014 -0.022,-0.031 -0.022,-0.05Z" style="fill:rgb(54,183,184);"/>        </g>        <g transform="matrix(64.9351,0,0,69.4444,537.299,405.981)">            <path d="M0.057,-0.643c0,-0.019 0.007,-0.036 0.022,-0.051c0.014,-0.014 0.032,-0.021 0.054,-0.021c0.022,0 0.041,0.007 0.055,0.021c0.016,0.013 0.023,0.03 0.023,0.051c0,0.021 -0.007,0.038 -0.023,0.052c-0.014,0.013 -0.033,0.02 -0.055,0.02c-0.022,0 -0.04,-0.007 -0.054,-0.022c-0.015,-0.014 -0.022,-0.031 -0.022,-0.05Z" style="fill:rgb(54,183,184);"/>        </g>        <g transform="matrix(64.9351,0,0,69.4444,523.299,363.236)">            <path d="M0.057,-0.643c0,-0.019 0.007,-0.036 0.022,-0.051c0.014,-0.014 0.032,-0.021 0.054,-0.021c0.022,0 0.041,0.007 0.055,0.021c0.016,0.013 0.023,0.03 0.023,0.051c0,0.021 -0.007,0.038 -0.023,0.052c-0.014,0.013 -0.033,0.02 -0.055,0.02c-0.022,0 -0.04,-0.007 -0.054,-0.022c-0.015,-0.014 -0.022,-0.031 -0.022,-0.05Z" style="fill:rgb(54,183,184);"/>        </g>        <g transform="matrix(64.9351,0,0,69.4444,523.299,377.653)">            <path d="M0.057,-0.643c0,-0.019 0.007,-0.036 0.022,-0.051c0.014,-0.014 0.032,-0.021 0.054,-0.021c0.022,0 0.041,0.007 0.055,0.021c0.016,0.013 0.023,0.03 0.023,0.051c0,0.021 -0.007,0.038 -0.023,0.052c-0.014,0.013 -0.033,0.02 -0.055,0.02c-0.022,0 -0.04,-0.007 -0.054,-0.022c-0.015,-0.014 -0.022,-0.031 -0.022,-0.05Z" style="fill:rgb(54,183,184);"/>        </g>        <g transform="matrix(64.9351,0,0,69.4444,523.299,391.653)">            <path d="M0.057,-0.643c0,-0.019 0.007,-0.036 0.022,-0.051c0.014,-0.014 0.032,-0.021 0.054,-0.021c0.022,0 0.041,0.007 0.055,0.021c0.016,0.013 0.023,0.03 0.023,0.051c0,0.021 -0.007,0.038 -0.023,0.052c-0.014,0.013 -0.033,0.02 -0.055,0.02c-0.022,0 -0.04,-0.007 -0.054,-0.022c-0.015,-0.014 -0.022,-0.031 -0.022,-0.05Z" style="fill:rgb(54,183,184);"/>        </g>        <g transform="matrix(64.9351,0,0,69.4444,523.299,405.981)">            <path d="M0.057,-0.643c0,-0.019 0.007,-0.036 0.022,-0.051c0.014,-0.014 0.032,-0.021 0.054,-0.021c0.022,0 0.041,0.007 0.055,0.021c0.016,0.013 0.023,0.03 0.023,0.051c0,0.021 -0.007,0.038 -0.023,0.052c-0.014,0.013 -0.033,0.02 -0.055,0.02c-0.022,0 -0.04,-0.007 -0.054,-0.022c-0.015,-0.014 -0.022,-0.031 -0.022,-0.05Z" style="fill:rgb(54,183,184);"/>        </g>        <g transform="matrix(64.9351,0,0,69.4444,509.299,363.236)">            <path d="M0.057,-0.643c0,-0.019 0.007,-0.036 0.022,-0.051c0.014,-0.014 0.032,-0.021 0.054,-0.021c0.022,0 0.041,0.007 0.055,0.021c0.016,0.013 0.023,0.03 0.023,0.051c0,0.021 -0.007,0.038 -0.023,0.052c-0.014,0.013 -0.033,0.02 -0.055,0.02c-0.022,0 -0.04,-0.007 -0.054,-0.022c-0.015,-0.014 -0.022,-0.031 -0.022,-0.05Z" style="fill:rgb(54,183,184);"/>        </g>        <g transform="matrix(64.9351,0,0,69.4444,495.299,363.236)">            <path d="M0.057,-0.643c0,-0.019 0.007,-0.036 0.022,-0.051c0.014,-0.014 0.032,-0.021 0.054,-0.021c0.022,0 0.041,0.007 0.055,0.021c0.016,0.013 0.023,0.03 0.023,0.051c0,0.021 -0.007,0.038 -0.023,0.052c-0.014,0.013 -0.033,0.02 -0.055,0.02c-0.022,0 -0.04,-0.007 -0.054,-0.022c-0.015,-0.014 -0.022,-0.031 -0.022,-0.05Z" style="fill:rgb(2,58,81);"/>        </g>        <path d="M503.935,328l14,0c1.429,0 2.63,0.475 3.604,1.424c0.974,0.949 1.461,2.141 1.461,3.576c0,1.435 -0.487,2.627 -1.461,3.576c-0.974,0.949 -2.175,1.424 -3.604,1.424c-1.429,0 -8.371,-0.237 -8.935,0l0,23.328c0,1.435 -0.487,2.627 -1.461,3.576c-0.974,0.949 -2.175,1.424 -3.604,1.424c-1.429,0 -2.608,-0.498 -3.539,-1.493c-0.931,-0.995 -1.396,-2.164 -1.396,-3.507l0,-28.328c0,-1.343 0.465,-2.512 1.396,-3.507c0.931,-0.995 2.11,-1.493 3.539,-1.493Z" style="fill:rgb(2,58,81);"/>        <g transform="matrix(64.9351,0,0,69.4444,509.299,391.653)">            <path d="M0.057,-0.643c0,-0.019 0.007,-0.036 0.022,-0.051c0.014,-0.014 0.032,-0.021 0.054,-0.021c0.022,0 0.041,0.007 0.055,0.021c0.016,0.013 0.023,0.03 0.023,0.051c0,0.021 -0.007,0.038 -0.023,0.052c-0.014,0.013 -0.033,0.02 -0.055,0.02c-0.022,0 -0.04,-0.007 -0.054,-0.022c-0.015,-0.014 -0.022,-0.031 -0.022,-0.05Z" style="fill:rgb(54,183,184);"/>        </g>        <g transform="matrix(64.9351,0,0,69.4444,509.299,405.981)">            <path d="M0.057,-0.643c0,-0.019 0.007,-0.036 0.022,-0.051c0.014,-0.014 0.032,-0.021 0.054,-0.021c0.022,0 0.041,0.007 0.055,0.021c0.016,0.013 0.023,0.03 0.023,0.051c0,0.021 -0.007,0.038 -0.023,0.052c-0.014,0.013 -0.033,0.02 -0.055,0.02c-0.022,0 -0.04,-0.007 -0.054,-0.022c-0.015,-0.014 -0.022,-0.031 -0.022,-0.05Z" style="fill:rgb(54,183,184);"/>        </g>    </g></svg>