<?xml version="1.0" encoding="UTF-8" standalone="no"?><!DOCTYPE svg PUBLIC "-//W3C//DTD SVG 1.1//EN" "http://www.w3.org/Graphics/SVG/1.1/DTD/svg11.dtd"><svg width="100%" height="100%" viewBox="0 0 512 512" version="1.1" xmlns="http://www.w3.org/2000/svg" xmlns:xlink="http://www.w3.org/1999/xlink" xml:space="preserve" style="fill-rule:evenodd;clip-rule:evenodd;stroke-linejoin:round;stroke-miterlimit:2;"><title>Banknote</title><desc>Banknote brand was launched in late 2015.All 88 Banknote branches offer consumer loans, pawnbroking services and money transfer services.Banknote webpage stands as a modern and convenient way to apply and receive consumer loans online.Banknote consumer loan product ranges from 50 EUR to 3000 EUR with the term from 1 month to 60 months.Banknote also offers consumer loans for pensioners that range from 50 EUR to 2000 EUR, with the term from 1 month to 36 months.Banknote clients always have fast and secure means to receive consumer loans online and offline.</desc>    <g transform="matrix(1,0,0,1,-20.1226,-6.01196)">        <g transform="matrix(6.375,0,0,4.39655,-291.252,-1078.94)">            <rect x="49" y="247" width="80" height="116" style="fill:rgb(0,177,56);"/>        </g>        <g transform="matrix(0.868508,0,0,0.868508,5.30888,49.1772)">            <path d="M370.826,496.024l-251.793,0l0,-398.656l-29.899,0l-21.564,-103.276l298.997,0c95.317,0 174.234,43.036 174.234,135.902c1.477,44.875 -25.125,85.926 -66.685,102.914c63.786,22.931 90.333,87.349 79.642,145.334c-15.131,81.541 -82.541,117.782 -182.932,117.782Zm-6.162,-213.548l-135.907,0l0,116.514l137.72,0l0.09,-0.363c50.105,0 73.391,-22.197 73.391,-57.35c0,-35.154 -25.823,-58.8 -75.294,-58.801Zm1.903,-191.531l-137.81,0l0.09,98.203l135.908,0c43.762,0 65.236,-17.84 65.236,-47.285c0,-29.445 -21.111,-50.918 -63.424,-50.918Z" style="fill:white;"/>        </g>    </g></svg>