<?xml version="1.0" encoding="UTF-8" standalone="no"?><!DOCTYPE svg PUBLIC "-//W3C//DTD SVG 1.1//EN" "http://www.w3.org/Graphics/SVG/1.1/DTD/svg11.dtd"><svg width="100%" height="100%" viewBox="0 0 512 512" version="1.1" xmlns="http://www.w3.org/2000/svg" xmlns:xlink="http://www.w3.org/1999/xlink" xml:space="preserve" style="fill-rule:evenodd;clip-rule:evenodd;stroke-linejoin:round;stroke-miterlimit:2;"><title>Crowd4Cash</title><desc>Crowd4Cash connects borrowers with investors on its user-friendly platform. Crowd4Cash offers private and institutional investors access to high-quality Swiss consumer and SME loans. </desc>    <g transform="matrix(9.1146,0,0,9.11311,-3952.63,-1291.66)">        <g transform="matrix(8.33333,0,0,8.33333,450.777,162.092)">            <path d="M0,4.082c1.127,0 2.041,-0.914 2.041,-2.041c0,-1.128 -0.914,-2.041 -2.041,-2.041c-1.127,0 -2.041,0.913 -2.041,2.041c0,1.127 0.914,2.041 2.041,2.041" style="fill:rgb(46,163,220);fill-rule:nonzero;"/>        </g>        <g transform="matrix(8.33333,0,0,8.33333,461.747,143.547)">            <path d="M0,2.706c-0.355,-0.3 -0.815,-0.481 -1.316,-0.481c-0.254,0 -0.496,0.046 -0.72,0.13c-0.015,-0.1 -0.024,-0.204 -0.024,-0.309l0,-0.001l0,-0.004c0,-1.11 0.885,-2.013 1.988,-2.041l0.106,0c1.103,0.028 1.988,0.931 1.988,2.041c0,0.102 -0.01,0.202 -0.025,0.3c-0.213,-0.075 -0.442,-0.116 -0.681,-0.116c-0.501,0 -0.961,0.181 -1.316,0.481" style="fill:rgb(175,212,104);fill-rule:nonzero;"/>        </g>        <g transform="matrix(7.85842,-2.77303,-2.77303,-7.85842,458.153,175.299)">            <path d="M-0.307,-0.055c-0.575,0.464 -0.863,1.217 -0.722,1.961c0.239,0.004 0.483,-0.032 0.722,-0.116c0.473,-0.167 0.846,-0.491 1.081,-0.892c-0.454,-0.173 -0.844,-0.504 -1.081,-0.953" style="fill:rgb(46,153,104);fill-rule:nonzero;"/>        </g>        <g transform="matrix(8.33333,0,0,8.33333,472.715,163.084)">            <path d="M0,3.963l-0.005,0l-0.001,0l-0.005,0l-0.001,0l-0.005,0l-0.001,0c-0.494,-0.004 -0.946,-0.185 -1.298,-0.482c0.443,-0.374 0.725,-0.934 0.725,-1.559c0,-0.107 -0.009,-0.212 -0.024,-0.315c0.68,-0.257 1.188,-0.867 1.298,-1.607c0.791,0.282 1.358,1.035 1.358,1.922c0,1.127 -0.914,2.041 -2.041,2.041" style="fill:rgb(49,143,150);fill-rule:nonzero;"/>        </g>        <g transform="matrix(8.33333,0,0,8.33333,461.747,176.475)">            <path d="M0,1.875c-0.443,-0.374 -0.725,-0.934 -0.725,-1.56c0,-0.103 0.008,-0.203 0.022,-0.302c0.214,0.076 0.444,0.118 0.684,0.118c0.253,0 0.496,-0.046 0.72,-0.131c0.016,0.103 0.024,0.208 0.024,0.315c0,0.625 -0.281,1.185 -0.724,1.559l-0.001,0.001" style="fill:rgb(1,119,140);fill-rule:nonzero;"/>        </g>        <g transform="matrix(6.93375,-4.6225,-4.6225,-6.93375,478.416,163.08)">            <path d="M-0.001,0c-0.001,0 -0.001,0.002 -0.001,0.002c0,0 0.001,0.001 0.001,0.001c0.001,0 0.002,-0.001 0.001,-0.002c0,0 0,0 -0.001,-0.001" style="fill:rgb(25,137,84);fill-rule:nonzero;"/>        </g>        <g transform="matrix(8.33333,0,0,8.33333,467.587,162.092)">            <path d="M0,1.726c-0.077,-0.497 -0.333,-0.935 -0.701,-1.245c0.356,-0.301 0.815,-0.481 1.316,-0.481c0.239,0 0.469,0.041 0.682,0.116c0,0.001 0,0.002 -0.001,0.003l0.003,0c-0.111,0.74 -0.618,1.35 -1.299,1.607" style="fill:rgb(25,137,84);fill-rule:nonzero;"/>        </g>        <g transform="matrix(8.33254,0.115057,0.115057,-8.33254,461.508,177.561)">            <path d="M0.01,0c-0.24,-0.003 -0.471,0.034 -0.686,0.107c0.068,0.504 0.319,0.951 0.686,1.269c0.371,-0.305 0.634,-0.739 0.718,-1.235c-0.223,-0.088 -0.466,-0.138 -0.718,-0.141" style="fill:rgb(0,116,81);fill-rule:nonzero;"/>        </g>    </g></svg>