<?xml version="1.0" encoding="UTF-8" standalone="no"?><!DOCTYPE svg PUBLIC "-//W3C//DTD SVG 1.1//EN" "http://www.w3.org/Graphics/SVG/1.1/DTD/svg11.dtd"><svg width="100%" height="100%" viewBox="0 0 512 512" version="1.1" xmlns="http://www.w3.org/2000/svg" xmlns:xlink="http://www.w3.org/1999/xlink" xml:space="preserve" style="fill-rule:evenodd;clip-rule:evenodd;stroke-linejoin:round;stroke-miterlimit:2;"><title>VdK</title><desc>Credit platforms allow private and institutional investors to invest directly in personal or corporate loans. Businesses and consumers thus gain new access to finance. Thus, credit platforms improve the credit supply, promote financial participation and make a positive contribution to the economy.The Association of German Credit Platforms is committed to the professional, honest and transparent structuring of the lending platform business as well as to the adherence to the highest quality standards by all market participants.</desc>    <g id="layer102" transform="matrix(1.77327,0,0,1.77327,0.648995,34.3408)">        <path d="M75.7,246.3c-61.4,-96.9 -75.7,-120 -75.5,-121.4c0.2,-0.8 17.8,-29.3 39.3,-63.2l39,-61.7l36.1,0l2.3,4c1.2,2.2 2.6,4 3.1,4c0.5,0 2,-1.8 3.2,-4l2.3,-4l36.3,0l2.7,4.6l2.7,4.7l2.9,-4.7l2.9,-4.6l18.1,0.2l18.1,0.3l39.4,62.4c21.7,34.3 39.4,62.6 39.2,63c-0.2,0.4 -17.8,28.5 -39.3,62.4l-39,61.7l-18.5,0l-18.5,0l-2.6,-4.1l-2.7,-4.2l-2.3,4.2l-2.4,4.1l-18.7,0l-18.6,0l-2.2,-3.5c-1.2,-1.9 -2.5,-3.5 -3,-3.5c-0.5,0 -1.8,1.6 -3,3.5l-2.2,3.5l-18.4,0l-18.4,0l-2.3,-3.7Zm25.3,-33.7c0,-0.5 -12.2,-20.2 -27.1,-43.7c-15.6,-24.8 -26.9,-43.5 -26.6,-44.3c0.3,-0.8 12.5,-20.4 27.1,-43.4c14.7,-23.1 26.6,-42.5 26.6,-43.2c0,-0.6 -1,-2.6 -2.3,-4.5l-2.3,-3.3l-29.9,47.3c-16.4,26 -29.9,47.5 -29.9,47.8c-0.1,0.4 13.4,22 29.9,48.1l30,47.4l2.2,-3.6c1.3,-2 2.3,-4.1 2.3,-4.6Zm45.7,3.5l2.2,-3.8l-2.5,-3.7c-1.4,-2 -2.8,-3.5 -3.2,-3.2c-0.4,0.2 -1.5,2 -2.6,4c-1.8,3.4 -1.8,3.5 0.4,7c1.2,2 2.5,3.6 2.8,3.6c0.4,0 1.7,-1.7 2.9,-3.9Zm74.3,-42.8c16.2,-25.7 29.5,-47.2 29.5,-47.8c0,-1.5 -58.7,-94.5 -59.6,-94.5c-1.3,0 -4.9,7.2 -4.2,8.3c0.3,0.7 12.6,20.1 27.1,43.1c14.6,23.1 26.5,42.4 26.5,43c0,0.6 -11.4,19.1 -25.3,41.1c-13.9,22 -26.2,41.4 -27.2,43.2c-1.9,3.1 -1.9,3.2 0.4,6.7c1.3,2 2.5,3.6 2.8,3.6c0.3,0 13.8,-21 30,-46.7Zm-97.4,4.4c1.4,-2.7 1.2,-3.1 -14.1,-27.3c-8.5,-13.5 -15.5,-24.7 -15.5,-25c0,-0.2 7,-11.5 15.6,-25.1c13.8,-21.8 15.5,-24.8 14.4,-26.7c-2,-3.7 -4.2,-6.1 -4.7,-5.1c-0.2,0.6 -8.4,13.6 -18.1,29l-17.8,27.9l17.4,27.6c9.6,15.1 17.9,28.1 18.5,28.8c1.1,1.4 1.5,1.1 4.3,-4.1Zm62.4,-23.7c9.5,-15.1 17.3,-28 17.3,-28.6c0,-0.6 -8,-13.7 -17.8,-29.2c-12.2,-19.3 -18.1,-27.9 -18.9,-27.3c-0.6,0.5 -1.9,2.2 -2.8,3.8l-1.6,2.8l15.4,24.5c9.1,14.3 15.3,25.2 15.1,26.2c-0.3,0.9 -7,12 -15.1,24.7c-8,12.6 -14.7,23.3 -14.8,23.8c-0.5,1.4 4.3,8.6 5.1,7.7c0.4,-0.5 8.6,-13.3 18.1,-28.4Zm-34.3,-20.5l5.1,-8.2l-6.5,-10.2l-6.6,-10.3l-6.3,9.9c-3.5,5.4 -6.4,10.1 -6.4,10.6c0,0.4 2.8,5.2 6.3,10.7c7.1,11.5 5.4,11.8 14.4,-2.5Zm-4.9,-91.8l1.9,-3.4l-2.5,-4.2l-2.5,-4.2l-2.3,3.8c-2.9,4.7 -2.9,4.6 -0.2,8.7c2.6,3.9 2.9,3.9 5.6,-0.7Z" style="fill:rgb(23,78,112);fill-rule:nonzero;"/>        <path d="M86.8,237.8c4.3,-6.8 9.1,-14.8 10.6,-17.8c1.5,-3 3.3,-6 4,-6.5c1.8,-1.4 16.7,-24.9 19.6,-30.9c1.3,-2.7 3.2,-5.8 4.3,-6.9c2.3,-2.3 16.4,-24.3 19.3,-30.2c1.1,-2.2 4.3,-7.6 7.1,-12.1l5.1,-8.1l-6.4,-9.9c-3.5,-5.4 -6.2,-10.6 -6,-11.6c0.5,-2.1 16.7,-27.8 17.5,-27.8c0.8,0 30.2,46.6 30.7,48.8c0.5,1.6 -28.3,48.3 -31.1,50.7c-1.8,1.5 -14.9,22.4 -18.1,29c-1.5,3.1 -3.7,6.6 -4.9,7.8c-2.6,2.6 -18.5,27.4 -18.5,28.8c0,0.5 -1.2,2.7 -2.6,4.9l-2.7,4l-17.8,0l-17.9,0l7.8,-12.2Z" style="fill:rgb(32,180,228);fill-rule:nonzero;"/>        <path d="M127,249.4c0,-0.4 3.7,-6.6 8.3,-13.8c4.5,-7.2 9.3,-15.2 10.6,-17.8c1.3,-2.7 2.7,-4.8 3.1,-4.8c0.8,0 16.6,-24.7 17.7,-27.6c0.3,-1.1 8.8,-14.7 18.6,-30.4c9.9,-15.7 18,-29 18,-29.6c0,-0.6 -8.1,-14 -18.1,-29.7l-18.1,-28.7l9.1,-14.5c5,-8 9.5,-14.2 9.8,-13.8c2,2.2 54.3,85.8 54.3,86.7c0,1.3 -53.1,85.7 -54.8,87.1c-1.8,1.5 -16.6,25.1 -20,31.8l-2.8,5.7l-17.9,0c-9.8,0 -17.8,-0.3 -17.8,-0.6Z" style="fill:rgb(32,180,228);fill-rule:nonzero;"/>        <path d="M174,249.6c0,-0.2 3.6,-6.2 8.1,-13.2c4.4,-7 8.4,-13.7 8.9,-14.9c0.4,-1.2 14.1,-23.2 30.4,-48.9c16.3,-25.7 29.6,-46.9 29.6,-47.1c0,-0.3 -13.5,-21.8 -30.1,-48c-16.5,-26.1 -29.9,-47.9 -29.7,-48.3c0.7,-1.9 17.3,-28.1 17.8,-28.2c0.8,0 78.5,123.2 78.5,124.4c0,0.6 -17.5,28.9 -39,62.9l-39,61.7l-17.7,0c-9.8,0 -17.8,-0.2 -17.8,-0.4Z" style="fill:rgb(32,180,228);fill-rule:nonzero;"/>        <path d="M122.6,71.4l-2.8,-4.4l9.2,-14.6l9.3,-14.5l2.9,4.4l2.9,4.5l-9.1,14.2c-4.9,7.9 -9.1,14.5 -9.3,14.6c-0.1,0.2 -1.5,-1.7 -3.1,-4.2Z" style="fill:rgb(32,180,228);fill-rule:nonzero;"/>        <path d="M99.3,34.5c-1.3,-1.9 -2.3,-4.1 -2.3,-4.8c0,-0.7 3.8,-7.3 8.5,-14.7c4.7,-7.4 8.5,-13.9 8.5,-14.4c0,-0.6 1.4,1.1 3.1,3.7c1.6,2.7 2.9,5.2 2.7,5.7c-0.7,1.8 -17.3,28 -17.8,28c-0.3,0 -1.5,-1.6 -2.7,-3.5Z" style="fill:rgb(32,180,228);fill-rule:nonzero;"/>        <g id="layer101">        </g>        <path d="M146,33.6l-2.4,-4.3l9,-14.2c4.9,-7.7 9.1,-14.1 9.4,-14.1c0.3,0 1.6,2 2.9,4.4l2.5,4.4l-8.9,14.1c-4.8,7.8 -9.1,14.1 -9.5,14.1c-0.4,0 -1.8,-2 -3,-4.4Z" style="fill:rgb(32,180,228);fill-rule:nonzero;"/>    </g></svg>