<?xml version="1.0" encoding="UTF-8" standalone="no"?><!DOCTYPE svg PUBLIC "-//W3C//DTD SVG 1.1//EN" "http://www.w3.org/Graphics/SVG/1.1/DTD/svg11.dtd"><svg width="100%" height="100%" viewBox="0 0 512 512" version="1.1" xmlns="http://www.w3.org/2000/svg" xmlns:xlink="http://www.w3.org/1999/xlink" xml:space="preserve" style="fill-rule:evenodd;clip-rule:evenodd;stroke-linejoin:round;stroke-miterlimit:2;"><title>Pujcmefirme</title><desc>Pujcmefirme.cz is an online platform that connects loan applicants from self-employed persons and smaller companies with investors registered with Pujcmefirme.cz</desc>    <g transform="matrix(5.98773,0,0,5.98773,-711.121,-166.618)">        <g transform="matrix(-5.19869e-05,1,1,5.19869e-05,-609.784,-90.9767)">            <path d="M149.996,728.725l46.165,0l-0.004,85.17l-69.284,-0.001l23.123,-85.169" style="fill:rgb(117,192,67);fill-rule:nonzero;"/>        </g>        <g transform="matrix(1,0,0,1,0,-676.168)">            <path d="M159.36,771.555l0,-13.384c0,-1.667 -0.228,-2.916 -0.686,-3.749c-0.455,-0.833 -1.176,-1.249 -2.16,-1.249c-1.304,0 -2.262,0.558 -2.869,1.672c-0.61,1.115 -0.913,2.863 -0.913,5.236l0,11.474l-8.518,0l0,-13.384c0,-1.667 -0.217,-2.916 -0.651,-3.749c-0.435,-0.833 -1.139,-1.249 -2.108,-1.249c-1.334,0 -2.305,0.592 -2.912,1.78c-0.61,1.189 -0.912,3.13 -0.912,5.825l0,10.777l-8.497,0l0,-24.619l6.41,0l1.064,3.042l0.5,0c0.652,-1.13 1.597,-1.992 2.837,-2.585c1.238,-0.595 2.646,-0.891 4.226,-0.891c3.549,0 6.039,1.079 7.474,3.238l0.675,0c0.696,-1.014 1.662,-1.808 2.9,-2.38c1.238,-0.573 2.603,-0.858 4.097,-0.858c2.912,0 5.062,0.746 6.453,2.237c1.391,1.494 2.086,3.759 2.086,6.802l0,16.014l-8.496,0" style="fill:white;fill-rule:nonzero;"/>        </g>        <g transform="matrix(1,0,0,1,0,-675.734)">            <path d="M183.509,751.847c-1.001,0 -1.835,0.315 -2.509,0.946c-0.674,0.629 -1.068,1.618 -1.185,2.966l7.3,0c-0.028,-1.187 -0.364,-2.136 -1.011,-2.847c-0.644,-0.709 -1.508,-1.065 -2.595,-1.065m0.499,19.708c-4.1,0 -7.282,-1.09 -9.548,-3.268c-2.269,-2.182 -3.404,-5.286 -3.404,-9.313c0,-4.156 1.052,-7.347 3.154,-9.571c2.098,-2.224 5.097,-3.335 8.994,-3.335c3.709,0 6.572,0.966 8.596,2.901c2.018,1.932 3.03,4.718 3.03,8.354l0,3.782l-15.189,0c0.058,1.375 0.561,2.454 1.51,3.237c0.95,0.782 2.241,1.174 3.879,1.174c1.491,0 2.865,-0.142 4.117,-0.425c1.254,-0.282 2.612,-0.764 4.076,-1.445l0,6.107c-1.335,0.682 -2.71,1.153 -4.129,1.413c-1.419,0.26 -3.114,0.39 -5.086,0.39" style="fill:white;fill-rule:nonzero;"/>        </g>        <g transform="matrix(1,0,0,1,0,-712.897)">            <rect x="175.023" y="775.997" width="15.799" height="2.792" style="fill:white;"/>        </g>    </g></svg>