<?xml version="1.0" encoding="UTF-8" standalone="no"?><!DOCTYPE svg PUBLIC "-//W3C//DTD SVG 1.1//EN" "http://www.w3.org/Graphics/SVG/1.1/DTD/svg11.dtd"><svg width="100%" height="100%" viewBox="0 0 512 512" version="1.1" xmlns="http://www.w3.org/2000/svg" xmlns:xlink="http://www.w3.org/1999/xlink" xml:space="preserve" style="fill-rule:evenodd;clip-rule:evenodd;stroke-linejoin:round;stroke-miterlimit:2;"><title>FinanceUtile</title><desc>FinanceUtile is a crowdfunding platform created in late 2009. FinanceUtile allows you to invest in innovative companies rigorously selected by a multidisciplinary team, stemming from venture capital, incubation and entrepreneurship.</desc>    <g transform="matrix(3.31721,0,0,3.31721,-163.823,76.4834)">        <g transform="matrix(0.747804,0,0,0.747804,-167.777,-102.813)">            <path d="M496.397,113.842c0,-2.876 -2.331,-5.208 -5.208,-5.208l-195.177,0c-2.876,0 -5.208,2.332 -5.208,5.208l0,192.023c0,2.876 2.332,5.208 5.208,5.208l195.177,0c2.877,0 5.208,-2.332 5.208,-5.208l0,-192.023Z" style="fill:url(#_Linear1);"/>        </g>        <g transform="matrix(134.86,0,0,134.86,86.5787,100.047)">            <path d="M0.556,-0.681l0,0.097l-0.355,0l0,0.184l0.308,0l0,0.098l-0.308,0l0,0.302l-0.115,0l0,-0.681l0.47,0Z" style="fill:url(#_Linear2);fill-rule:nonzero;"/>        </g>    </g>    <defs>        <linearGradient id="_Linear1" x1="0" y1="0" x2="1" y2="0" gradientUnits="userSpaceOnUse" gradientTransform="matrix(17.8119,105.052,-105.052,17.8119,371.53,169.818)"><stop offset="0" style="stop-color:rgb(247,153,55);stop-opacity:1"/><stop offset="0.27" style="stop-color:rgb(248,163,75);stop-opacity:1"/><stop offset="0.55" style="stop-color:rgb(252,194,135);stop-opacity:1"/><stop offset="0.62" style="stop-color:rgb(243,126,66);stop-opacity:1"/><stop offset="1" style="stop-color:rgb(236,143,94);stop-opacity:1"/></linearGradient>        <linearGradient id="_Linear2" x1="0" y1="0" x2="1" y2="0" gradientUnits="userSpaceOnUse" gradientTransform="matrix(4.22096e-17,0.689335,-0.689335,4.22096e-17,2.69483,-0.688169)"><stop offset="0" style="stop-color:rgb(82,131,169);stop-opacity:1"/><stop offset="0.54" style="stop-color:rgb(100,151,191);stop-opacity:1"/><stop offset="0.71" style="stop-color:rgb(61,97,133);stop-opacity:1"/><stop offset="1" style="stop-color:rgb(39,64,97);stop-opacity:1"/></linearGradient>    </defs></svg>