<?xml version="1.0" encoding="UTF-8" standalone="no"?><!DOCTYPE svg PUBLIC "-//W3C//DTD SVG 1.1//EN" "http://www.w3.org/Graphics/SVG/1.1/DTD/svg11.dtd"><svg width="100%" height="100%" viewBox="0 0 512 512" version="1.1" xmlns="http://www.w3.org/2000/svg" xmlns:xlink="http://www.w3.org/1999/xlink" xml:space="preserve" style="fill-rule:evenodd;clip-rule:evenodd;stroke-linejoin:round;stroke-miterlimit:2;"><title>Ekassa</title><desc>Ekassa.eu is an online investment platform, launched in May 2018 but part of an international finance group which has been operating since 2012.Company is focused on investing in P2P consumer loans issued by trusted lending partners in Poland one of the fastest-growing areas of finance in Europe.Our new online technologies allow us to offer our clients higher returns compared to other investment classes such as saving accounts.</desc>    <g transform="matrix(4.63636,0,0,4.63636,-40.7271,-40.7273)">        <path d="M114.41,119c-21.929,-0.022 -41.717,-13.534 -49.72,-33.95l-0.37,33.95c-29.333,-0.055 -53.44,-24.206 -53.44,-53.54c0,-0.033 0,-0.067 0,-0.1c0,-29.63 24.69,-53.64 54.2,-53.64l0.07,32.81c8.297,-19.82 27.773,-32.792 49.26,-32.81l0,107.28Z" style="fill-rule:nonzero;"/>        <path d="M117.12,116.29c-21.929,-0.022 -41.717,-13.534 -49.72,-33.95l-0.4,33.95c-29.364,-0.071 -53.47,-24.286 -53.41,-53.65c0,-29.64 24.69,-53.64 54.21,-53.64l0.07,32.81c8.296,-19.817 27.767,-32.788 49.25,-32.81l0,107.29Z" style="fill:rgb(90,102,174);fill-rule:nonzero;"/>    </g></svg>