<?xml version="1.0" encoding="UTF-8" standalone="no"?><!DOCTYPE svg PUBLIC "-//W3C//DTD SVG 1.1//EN" "http://www.w3.org/Graphics/SVG/1.1/DTD/svg11.dtd"><svg width="100%" height="100%" viewBox="0 0 512 512" version="1.1" xmlns="http://www.w3.org/2000/svg" xmlns:xlink="http://www.w3.org/1999/xlink" xml:space="preserve" style="fill-rule:evenodd;clip-rule:evenodd;stroke-linejoin:round;stroke-miterlimit:2;"><title>Optimise</title><desc>We're recognised around the world as one of the leading global performance-marketing networks, helping to deliver over $1 billion in online sales each year for our clients</desc>    <g transform="matrix(11.7783,0,0,11.8605,1,1)">        <path d="M41,13.2l0.2,0.4l-2.8,1.2l-0.2,-0.4l2.8,-1.2Zm-2.7,15.3l0.2,-0.4l2.7,1.1l-0.2,0.5l-2.7,-1.2Zm-1.7,-7c0,8.1 -6.7,14.8 -14.9,14.8c-8.2,0 -14.9,-6.6 -14.9,-14.8c0,-8.2 6.7,-14.8 14.9,-14.8c8.2,0 14.9,6.6 14.9,14.8m-6.7,-19.2l-1.1,2.7l-0.4,-0.2l1.1,-2.7l0.4,0.2Zm-14.9,2.6l-0.4,0.1l-1.2,-2.8l0.4,-0.2l1.2,2.9Zm-1.6,35.8l1.1,-2.7l0.4,0.2l-1.1,2.7l-0.4,-0.2Zm14.9,-2.6l0.4,-0.2l1.2,2.8l-0.4,0.2l-1.2,-2.8Zm-23.2,-9.6l-2.8,1.2l-0.2,-0.4l2.8,-1.2l0.2,0.4Zm-0.1,-14.1l-0.2,0.4l-2.7,-1.1l0.2,-0.4l2.7,1.1Zm38.3,7.1c0,-11.9 -9.7,-21.5 -21.6,-21.5c-12,0 -21.7,9.6 -21.7,21.5c0,11.9 9.7,21.5 21.7,21.5c11.9,-0.1 21.6,-9.7 21.6,-21.5" style="fill:rgb(3,155,229);fill-rule:nonzero;"/>    </g></svg>