<?xml version="1.0" encoding="UTF-8" standalone="no"?><!DOCTYPE svg PUBLIC "-//W3C//DTD SVG 1.1//EN" "http://www.w3.org/Graphics/SVG/1.1/DTD/svg11.dtd"><svg width="100%" height="100%" viewBox="0 0 512 512" version="1.1" xmlns="http://www.w3.org/2000/svg" xmlns:xlink="http://www.w3.org/1999/xlink" xml:space="preserve" style="fill-rule:evenodd;clip-rule:evenodd;stroke-linejoin:round;stroke-miterlimit:2;"><title>WIWIN</title><desc>WIWIN is the online platform for sustainable investing. We broker investments in the areas of renewable energies, sustainable startups and energy-efficient real estate.WIWIN is aimed at sustainably oriented investors. We offer investment opportunities with a clear focus on the sustainability turnaround, making it possible to make a contribution to a sustainable future and exciting projects, even from small amounts.</desc>    <g transform="matrix(4.49475,0,0,4.49475,-13.7334,-6.28224)">        <path d="M113.328,39.13c2.232,5.987 3.416,12.468 3.416,19.223c0,31.312 -25.422,56.733 -56.733,56.733c-31.312,0 -56.733,-25.421 -56.733,-56.733c0,-31.312 25.421,-56.733 56.733,-56.733c11.61,0 22.796,4.366 25.584,6.091l-43.632,87.434l-9.051,0l-12.852,-27.112l5.664,-10.445l9.473,21.501l4.244,0l34.647,-72.085c-4.485,-1.228 -9.205,-1.884 -14.077,-1.884c-29.38,0 -53.233,23.853 -53.233,53.233c0,29.38 23.853,53.233 53.233,53.233c29.38,0 53.233,-23.853 53.233,-53.233c0,-5.143 -0.731,-10.116 -2.115,-14.816l0.071,-0.142l-26.938,53.98l-9.051,0l-11.852,-26.112l5.665,-10.445l8.472,20.501l4.244,0l25.857,-53.798l2.437,4.061c0.78,1.639 1.561,3.278 2.341,4.917l0.953,2.631Z" style="fill:url(#_Linear1);"/>    </g>    <defs>        <linearGradient id="_Linear1" x1="0" y1="0" x2="1" y2="0" gradientUnits="userSpaceOnUse" gradientTransform="matrix(48.421,-98.5389,98.5389,48.421,31.7277,105.795)"><stop offset="0" style="stop-color:rgb(0,84,89);stop-opacity:1"/><stop offset="1" style="stop-color:rgb(84,181,170);stop-opacity:1"/></linearGradient>    </defs></svg>