<?xml version="1.0" encoding="UTF-8" standalone="no"?><!DOCTYPE svg PUBLIC "-//W3C//DTD SVG 1.1//EN" "http://www.w3.org/Graphics/SVG/1.1/DTD/svg11.dtd"><svg width="100%" height="100%" viewBox="0 0 512 512" version="1.1" xmlns="http://www.w3.org/2000/svg" xmlns:xlink="http://www.w3.org/1999/xlink" xml:space="preserve" style="fill-rule:evenodd;clip-rule:evenodd;stroke-linejoin:round;stroke-miterlimit:2;"><title>SIDA</title><desc>The Swedish International Development Cooperation Agency, Sida, is a government agency working on behalf of the Swedish parliament and government, with the mission to reduce poverty in the world. Through our work and in cooperation with others, we contribute to implementing Sweden’s Policy for Global Development.</desc>    <g transform="matrix(0.572371,0,0,0.572371,0.999845,0.635536)">        <g transform="matrix(4.16667,0,0,4.16667,0,-470.058)">            <path d="M62.68,148.566l55.259,55.259l-11.026,11.027l-55.259,-55.259c-3.552,-3.553 -3.964,-8.901 -0.919,-11.946c3.045,-3.045 8.392,-2.633 11.945,0.919Zm6.778,-25.454l64.561,64.562l-11.026,11.026l-64.562,-64.562c-3.552,-3.552 -3.963,-8.9 -0.918,-11.945c3.044,-3.045 8.392,-2.634 11.945,0.919Zm57.904,-6.56l38.889,38.889l-11.026,11.027l-38.889,-38.89c-3.553,-3.552 -3.964,-8.9 -0.919,-11.945c3.045,-3.044 8.393,-2.633 11.945,0.919Zm-32.802,-0.626l55.629,55.628l-11.026,11.027l-55.629,-55.629c-3.553,-3.553 -3.964,-8.901 -0.919,-11.945c3.045,-3.045 8.392,-2.634 11.945,0.919" style="fill:rgb(253,184,39);fill-rule:nonzero;"/>        </g>        <g transform="matrix(4.16667,0,0,4.16667,0,-1.27917)">            <path d="M35.53,151.445l55.259,-55.26l11.026,11.026l-55.259,55.259c-3.552,3.554 -8.9,3.964 -11.945,0.919c-3.045,-3.044 -2.633,-8.392 0.919,-11.944Zm-25.454,-6.778l64.561,-64.561l11.027,11.026l-64.562,64.562c-3.552,3.552 -8.9,3.963 -11.945,0.918c-3.045,-3.045 -2.634,-8.393 0.919,-11.945Zm-6.56,-57.905l38.889,-38.889l11.027,11.026l-38.889,38.89c-3.553,3.552 -8.901,3.963 -11.946,0.919c-3.045,-3.045 -2.633,-8.393 0.919,-11.946Zm-0.558,32.985l55.63,-55.629l11.026,11.027l-55.629,55.628c-3.552,3.553 -8.901,3.964 -11.945,0.919c-3.045,-3.044 -2.634,-8.393 0.918,-11.945" style="fill:rgb(0,73,144);fill-rule:nonzero;"/>        </g>        <g transform="matrix(4.16667,0,0,4.16667,0,471.333)">            <path d="M151.182,65.281l-55.26,-55.259l11.027,-11.027l55.259,55.259c3.553,3.553 3.964,8.901 0.919,11.946c-3.045,3.044 -8.393,2.633 -11.945,-0.919Zm-6.778,25.455l-64.561,-64.563l11.026,-11.026l64.562,64.561c3.552,3.553 3.963,8.902 0.918,11.946c-3.044,3.045 -8.392,2.633 -11.945,-0.918Zm-57.905,6.558l-38.889,-38.888l11.027,-11.027l38.889,38.89c3.553,3.552 3.964,8.899 0.919,11.945c-3.045,3.045 -8.393,2.633 -11.946,-0.92Zm32.789,0.628l-55.629,-55.629l11.026,-11.026l55.629,55.629c3.552,3.552 3.964,8.9 0.919,11.944c-3.045,3.045 -8.393,2.634 -11.945,-0.918" style="fill:rgb(0,169,161);fill-rule:nonzero;"/>        </g>        <g transform="matrix(4.16667,0,0,4.16667,0,1.0875)">            <path d="M178.317,62.579l-55.259,55.259l-11.026,-11.026l55.259,-55.259c3.552,-3.553 8.9,-3.964 11.945,-0.919c3.045,3.045 2.634,8.392 -0.919,11.945Zm25.455,6.777l-64.562,64.562l-11.026,-11.026l64.562,-64.562c3.552,-3.552 8.9,-3.963 11.945,-0.919c3.044,3.045 2.633,8.393 -0.919,11.945Zm6.56,57.905l-38.89,38.889l-11.026,-11.026l38.889,-38.889c3.552,-3.553 8.901,-3.964 11.945,-0.919c3.045,3.045 2.634,8.393 -0.918,11.945Zm0.557,-32.809l-55.629,55.629l-11.027,-11.027l55.629,-55.629c3.553,-3.552 8.901,-3.964 11.946,-0.919c3.045,3.045 2.633,8.393 -0.919,11.946" style="fill:rgb(182,31,84);fill-rule:nonzero;"/>        </g>    </g></svg>