<?xml version="1.0" encoding="UTF-8" standalone="no"?><!DOCTYPE svg PUBLIC "-//W3C//DTD SVG 1.1//EN" "http://www.w3.org/Graphics/SVG/1.1/DTD/svg11.dtd"><svg width="100%" height="100%" viewBox="0 0 512 512" version="1.1" xmlns="http://www.w3.org/2000/svg" xmlns:xlink="http://www.w3.org/1999/xlink" xml:space="preserve" style="fill-rule:evenodd;clip-rule:evenodd;stroke-linejoin:round;stroke-miterlimit:2;"><title>Zinsland</title><desc>ZINSLAND offers investors the opportunity with small investment amounts to invest directly in profitable project developments, an asset class that was previously reserved only for wealthy private individuals or institutional investors. In this way, ZINSLAND helps to finance project developments and gives developers greater flexibility in realizing their projects. Transaction costs can be reduced by dispensing with intermediaries and simple and transparent online processes. </desc>    <g transform="matrix(1.38587,0,0,1.38587,-527.016,-575.522)">        <g id="SVGID-3" transform="matrix(1.1083,0,0,1.1083,-61.445,-65.2355)">            <circle cx="565.23" cy="600.23" r="164.8" style="fill:white;"/>        </g>        <g transform="matrix(0.99962,0,0,0.99962,0.144891,0.158201)">            <path d="M565.07,416c101.591,0 184.07,82.479 184.07,184.07c0,101.591 -82.479,184.07 -184.07,184.07c-101.591,0 -184.07,-82.479 -184.07,-184.07c0,-101.591 82.479,-184.07 184.07,-184.07Zm-105.86,211.06l-29.11,0l0,37.4l29.11,0l0,-37.4Zm44.07,0l-29.11,0l0,37.4l29.11,0l0,-37.4Zm169.11,0l-29.11,0l0,37.4l29.11,0l0,-37.4Zm54.63,0l-29.11,0l0,37.4l29.11,0l0,-37.4Zm-36.449,-133.784l-135.991,136.794l-84.07,-87.4l-69.707,68.727c0.291,4.337 0.75,8.628 1.37,12.868l69.237,-64.035l85,85.53l141.952,-142.631c-2.473,-3.384 -5.072,-6.671 -7.791,-9.853Zm-18.181,73.944l-29.11,0l0,37.4l29.11,0l0,-37.4Zm54.63,0l-29.11,0l0,37.4l29.11,0l0,-37.4Zm-50.2,-88.219c-29.363,-27.045 -68.562,-43.571 -111.59,-43.571c-84.832,0 -154.78,64.236 -163.813,146.68l69.093,-67.9l86.75,86.02l119.56,-121.229Z" style="fill:rgb(74,174,195);"/>        </g>    </g></svg>