<?xml version="1.0" encoding="UTF-8" standalone="no"?><!DOCTYPE svg PUBLIC "-//W3C//DTD SVG 1.1//EN" "http://www.w3.org/Graphics/SVG/1.1/DTD/svg11.dtd"><svg width="100%" height="100%" viewBox="0 0 512 512" version="1.1" xmlns="http://www.w3.org/2000/svg" xmlns:xlink="http://www.w3.org/1999/xlink" xml:space="preserve" style="fill-rule:evenodd;clip-rule:evenodd;stroke-linejoin:round;stroke-miterlimit:2;"><title>Faktorama</title><desc>Faktorama is a company founded in April 2013. We provide services as a financial broker - helping small and medium companies obtain funding secured with future cashflows (i.e. invoices) by creating virtual marketplace. We match sme companies with enterpreneurships or investors who are looking for alternate investment opportunities. </desc>    <g transform="matrix(2.01237,0,0,2.01237,-164.548,-470.908)">        <g transform="matrix(1,0,0,1,0.202189,1.17835)">            <path d="M116.219,281.501c-8.26,14.761 -12.945,31.63 -12.945,49.541c0,57.945 49.044,104.988 109.453,104.988c60.408,0 109.453,-47.043 109.453,-104.988c0,-9.213 -1.24,-18.151 -3.57,-26.672c10.393,17.759 16.331,38.29 16.331,60.155c0,67.462 -56.531,122.233 -126.161,122.233c-69.631,0 -126.162,-54.771 -126.162,-122.233c0,-32.038 12.749,-61.214 33.601,-83.024Z" style="fill:url(#_Linear1);"/>        </g>        <g transform="matrix(1,0,0,1,-1.08704,2.10668)">            <path d="M299.032,354.031c-12.214,36.475 -46.497,62.771 -86.834,62.771c-50.56,0 -91.608,-41.314 -91.608,-92.202c0,-50.888 41.048,-92.203 91.608,-92.203c9.784,0 19.211,1.547 28.058,4.413c-2.687,-0.274 -5.407,-0.413 -8.16,-0.413c-43.355,0 -78.554,34.602 -78.554,77.221c0,42.619 35.199,77.221 78.554,77.221c28.29,0 53.106,-14.732 66.936,-36.808Z" style="fill:url(#_Linear2);"/>        </g>        <g transform="matrix(1,0,0,1,-0.673965,-0.445686)">            <path d="M224.896,374.029c-28.267,-7.163 -49.234,-33.103 -49.234,-63.968c0,-36.389 29.143,-65.933 65.04,-65.933c31.204,0 57.306,22.326 63.595,52.064c-10.118,-16.782 -28.818,-28.053 -50.196,-28.053c-32.117,0 -58.192,25.442 -58.192,56.779c0,20.955 11.66,39.274 28.987,49.111Z" style="fill:url(#_Linear3);"/>        </g>    </g>    <defs>        <linearGradient id="_Linear1" x1="0" y1="0" x2="1" y2="0" gradientUnits="userSpaceOnUse" gradientTransform="matrix(-85.7044,164.508,-164.508,-85.7044,278.254,317.088)"><stop offset="0" style="stop-color:rgb(171,16,4);stop-opacity:1"/><stop offset="1" style="stop-color:rgb(243,41,21);stop-opacity:1"/></linearGradient>        <linearGradient id="_Linear2" x1="0" y1="0" x2="1" y2="0" gradientUnits="userSpaceOnUse" gradientTransform="matrix(-119.807,101.382,-101.382,-119.807,264.066,275.698)"><stop offset="0" style="stop-color:rgb(163,17,0);stop-opacity:1"/><stop offset="1" style="stop-color:rgb(238,38,14);stop-opacity:1"/></linearGradient>        <linearGradient id="_Linear3" x1="0" y1="0" x2="1" y2="0" gradientUnits="userSpaceOnUse" gradientTransform="matrix(-78.9495,96.9792,-96.9792,-78.9495,273.43,255.481)"><stop offset="0" style="stop-color:rgb(152,9,4);stop-opacity:1"/><stop offset="1" style="stop-color:rgb(205,35,17);stop-opacity:1"/></linearGradient>    </defs></svg>