<?xml version="1.0" encoding="UTF-8" standalone="no"?><!DOCTYPE svg PUBLIC "-//W3C//DTD SVG 1.1//EN" "http://www.w3.org/Graphics/SVG/1.1/DTD/svg11.dtd"><svg width="100%" height="100%" viewBox="0 0 512 512" version="1.1" xmlns="http://www.w3.org/2000/svg" xmlns:xlink="http://www.w3.org/1999/xlink" xml:space="preserve" style="fill-rule:evenodd;clip-rule:evenodd;stroke-linejoin:round;stroke-miterlimit:2;"><title>AVI</title><desc>There are six Regional State Administrative Agencies in Finland. The agencies work in close collaboration with local authorities.The agencies' mission is to promote regional equality by carrying out executive, steering and supervisory tasks laid down in the law. To this end, they aim to strengthen implementation of basic rights and legal protection, access to basic public services, environmental protection, environmental sustainability, and public safety and also to provide a safe and healthy living and working environment in the regions.</desc>    <g transform="matrix(1.72851,0,0,1.72851,-603.273,-197.718)">        <g transform="matrix(4.16667,0,0,4.16667,630.956,403.526)">            <path d="M0,-54.276c0.453,3.825 0.746,6.843 0.733,11.235c-0.015,4.991 -0.995,10.629 -5.097,16.268c-7.652,10.523 -23.675,11.336 -31.547,11.172c-13.672,-0.284 -21.958,-4.311 -23.239,-4.209c-0.038,0.003 -0.093,0.002 -0.119,0.012c-0.024,0.065 -0.647,2.822 -0.981,4.967c-1.02,6.079 -1.742,13.223 -1.867,14.819c-0.001,0.008 -0.001,0.012 -0.001,0.012c0.061,-0.119 3.026,-0.709 7.397,-1.336c3.984,-0.571 8.837,-0.843 11.825,-1.052c2.987,-0.208 6.414,-0.352 8.24,-0.415c49.735,-1.719 34.656,-51.473 34.656,-51.473" style="fill:rgb(0,94,171);fill-rule:nonzero;"/>        </g>        <g transform="matrix(4.16667,0,0,4.16667,562.975,287.703)">            <path d="M0,-30.974c0.055,0.008 0.191,0.069 0.389,0.184c2.403,1.397 13.914,10.759 -0.441,30.79c0,0 19.494,-9.894 7.35,-29.772c0,0 -1.317,-0.393 -3.025,-0.715c-2.385,-0.448 -3.973,-0.487 -4.273,-0.487" style="fill:rgb(0,94,171);fill-rule:nonzero;"/>        </g>        <g transform="matrix(0.376138,-4.14965,-4.14965,-0.376138,407.536,56.6505)">            <path d="M-15.273,-44.072c-0.171,0.702 9.542,48.529 -45.944,50.075c0,0 36.717,12.87 45.944,-19.512c0.836,-2.933 1.409,-5.831 1.783,-9.955c0.941,-10.39 -1.297,-17.88 -1.783,-20.608" style="fill:rgb(141,194,233);fill-rule:nonzero;"/>        </g>        <g transform="matrix(4.16667,0,0,4.16667,0,-1369.48)">            <g opacity="0.67">                <g transform="matrix(1,0,0,1,89.3116,353.472)">                    <path d="M0,72.049c0,0 0.004,-0.04 0.105,-0.112c0.883,-0.631 5.052,-3.244 6.893,-4.511c3.841,-2.644 7.53,-6.176 9.82,-10.735c9.2,-18.315 8.134,-50.022 36.29,-42.212c0,0 -38.083,-14.479 -50.33,38.068c-1.486,6.374 -2.622,17.495 -2.778,19.502" style="fill:rgb(141,194,233);fill-rule:nonzero;"/>                </g>            </g>        </g>    </g></svg>