<?xml version="1.0" encoding="UTF-8" standalone="no"?><!DOCTYPE svg PUBLIC "-//W3C//DTD SVG 1.1//EN" "http://www.w3.org/Graphics/SVG/1.1/DTD/svg11.dtd"><svg width="100%" height="100%" viewBox="0 0 512 512" version="1.1" xmlns="http://www.w3.org/2000/svg" xmlns:xlink="http://www.w3.org/1999/xlink" xml:space="preserve" style="fill-rule:evenodd;clip-rule:evenodd;stroke-linejoin:round;stroke-miterlimit:2;"><title>OJK</title><desc></desc>    <g transform="matrix(2.45192,0,0,2.44803,-305.49,11.4944)">        <g transform="matrix(0.429752,0,0,0.429752,119.843,-0.296198)">            <path d="M287,192l0,75.8c0,90.4 -0.3,94.1 -9.1,112.1c-9.6,19.6 -27,29.2 -53.4,29.5c-12.2,0 -21.7,-1.7 -35.2,-6.6l-8.2,-3l-6.3,2.5c-13.5,5.4 -18.1,6.2 -37.8,6.2c-20.4,0 -25,-0.8 -38.7,-7c-32.4,-14.7 -51.1,-47.7 -53,-93.5c-1.4,-35.5 9.2,-68.6 29,-90.6l45.3,-24.6l19.5,0c27.6,0.1 47.1,8 64.1,26.1c8.9,9.5 15.5,20.9 20.2,35.1c5,15.2 6.6,25.8 6.6,45c0,25.7 -3.7,44.4 -12.3,62c-2.2,4.7 -4.3,8.9 -4.5,9.4c-0.3,0.5 3.3,0.7 8.1,0.4c7.2,-0.4 9.2,-0.9 12.6,-3.1c5,-3.3 8.6,-10.1 10.1,-18.8c0.6,-4 1,-34.7 1,-81.7l0,-75.2l42,0Zm84.5,-3c-0.128,-0.193 61.8,0.9 62.8,0.9c0.9,0.1 1.7,0.4 1.7,0.8c0,0.5 -15.8,19 -35.1,41.3c-19.3,22.3 -35.3,41 -35.6,41.7c-0.5,1.3 -0.4,1.3 51.6,81.2c18.7,28.8 34.1,52.8 34.1,53.3c0,0.4 -14.3,0.7 -32.2,0.6l-32.1,-0.3l-20.8,-35.5c-11.5,-19.5 -23.2,-39.6 -26,-44.5c-2.9,-5 -6.3,-10.7 -7.6,-12.9l-2.5,-3.9l-28.8,28.8l0,-65.1l35.5,-42.7c19.6,-23.5 35.3,-43.2 35,-43.7Zm-225.5,41.1c18.7,3 32.4,17 39.6,40.4c2.7,8.6 3.8,18.9 2.8,29.5c-2.207,23.396 -1.3,30.2 -8.3,44.5c-17.9,36.5 -67.2,36.1 -85.4,-0.6c-6.8,-13.8 -8.1,-20.7 -8.1,-42.9c0,-17 0.3,-20.5 2.2,-27.5c7.6,-27.7 24.6,-43.3 48.2,-44.4c1.4,0 5.4,0.4 9,1Z" style="fill:rgb(129,0,0);"/>        </g>        <path d="M125,45c0,0 15.401,14.208 19,21c8.737,16.488 9,32.16 9,32.16c0,0 27.364,-25.485 41.4,-26.16c14.036,-0.675 23.662,-5.198 81.92,8c28.934,6.555 49.592,-6.369 56.68,-14c-21.156,8.835 -47.236,14.791 -72.68,-7c-38.068,-32.602 -66.861,-35.975 -85.32,-34.64c-29.281,2.118 -50,20.64 -50,20.64Z" style="fill:white;"/>        <path d="M125,45c0,0 16.825,13.296 19,23.16c11.203,-16.056 30.406,-26.444 44.4,-26.16c58.268,1.182 62.512,26.631 95.6,30c-13.156,-4.165 -26.079,-15.528 -31.68,-20c-32.068,-25.602 -58.861,-28.975 -77.32,-27.64c-29.281,2.118 -50,20.64 -50,20.64Z" style="fill:rgb(129,0,0);"/>    </g></svg>