<?xml version="1.0" encoding="UTF-8" standalone="no"?><!DOCTYPE svg PUBLIC "-//W3C//DTD SVG 1.1//EN" "http://www.w3.org/Graphics/SVG/1.1/DTD/svg11.dtd"><svg width="100%" height="100%" viewBox="0 0 512 512" version="1.1" xmlns="http://www.w3.org/2000/svg" xmlns:xlink="http://www.w3.org/1999/xlink" xml:space="preserve" style="fill-rule:evenodd;clip-rule:evenodd;stroke-linejoin:round;stroke-miterlimit:2;"><title>Gallium</title><desc>Gallium’s primary objective is to enable its clients to create exciting investment opportunities, by utilising its client’s in-depth knowledge and management capabilities, together with Gallium’s long established fund creation experience and expertise.The Gallium team has launched over 150 funds with gross assets of over £14.5 billion, primarily investing in commercial property. Other asset classes include, residential property, land, UK and overseas hotels, student accommodation, PFI projects, traded endowment policies, contemporary art, mezzanine finance, bridging loans, bio energy and solar panels.</desc>    <g transform="matrix(8.12789,0,0,8.12789,-4794.45,-959.119)">        <g transform="matrix(1,0,0,1,-97,0.203325)">            <path d="M722,130c9.659,0 21,16 16,30c-4.064,11.379 -20.341,9 -30,9c-9.659,0 -10,-15.169 -10,-24c0,-8.831 14.341,-15 24,-15Z" style="fill:rgb(166,189,204);"/>        </g>        <g transform="matrix(1,0,0,1,-97,0.203325)">            <path d="M716,118c8.133,0 23.787,3.538 31,15c5.159,8.198 2.012,23.619 -1,33c-5.87,18.285 -31,15 -42,13c-13.726,-2.496 -17,-22.81 -17,-37c0,-14.19 15.049,-24 29,-24Zm0,5c7.294,1.823 21.242,2.405 27.91,13c4.769,7.578 2.74,21.657 -0.91,30c-7,16 -24.502,11 -32,10c-12.782,-1.705 -21,-16 -21,-32c0,-13.116 14,-24 26,-21Z" style="fill:rgb(76,35,49);"/>        </g>        <g transform="matrix(1,0,0,1.02923,-105,-9.71386)">            <path d="M726.613,134.001c7.957,0.116 13.125,9.372 13.067,16.908c-0.009,1.166 -0.102,2.332 -0.27,3.487c-0.777,5.339 -2.425,11.074 -7.686,13.121c-6.439,2.504 -14.106,-0.701 -18.356,-2.345c-4.95,-1.914 -8.663,-6.354 -9.656,-11.503c-1.04,-5.393 -0.759,-11.77 2.657,-15.241c4.651,-4.725 12.991,-4.463 20.244,-4.427Zm-0.564,1.651c-8.747,0.019 -19.062,-0.298 -20.587,8.785c-1.135,6.761 0.124,14.471 6.094,18.023c4.483,2.666 10.125,3.761 15.134,4.066c3.174,0.194 6.503,-1.176 8.191,-3.861c5.658,-8.997 4.304,-23.41 -5.444,-26.554c-1.09,-0.352 -2.235,-0.46 -3.388,-0.459Z" style="fill:rgb(76,35,49);"/>        </g>    </g></svg>