<?xml version="1.0" encoding="UTF-8" standalone="no"?><!DOCTYPE svg PUBLIC "-//W3C//DTD SVG 1.1//EN" "http://www.w3.org/Graphics/SVG/1.1/DTD/svg11.dtd"><svg width="100%" height="100%" viewBox="0 0 512 512" version="1.1" xmlns="http://www.w3.org/2000/svg" xmlns:xlink="http://www.w3.org/1999/xlink" xml:space="preserve" style="fill-rule:evenodd;clip-rule:evenodd;stroke-linejoin:round;stroke-miterlimit:2;"><title>TradeRiver</title><desc>At TradeRiver, we offer a cross border solution to keep your supply chain moving and your business growing. A facility that provides you with an unsecured revolving credit line to fund purchases of goods or services both in the UK and worldwide</desc>    <g transform="matrix(10.7465,0,0,11.3749,-210.477,-30.5891)">        <g transform="matrix(0.289689,0,0,0.273685,19.675,3.82183)">            <rect x="0.013" y="0.27" width="163.822" height="155.647" style="fill:rgb(55,163,212);"/>        </g>        <g transform="matrix(12.4528,0,0,11.7648,26.8398,23.9777)">            <path d="M0.599,-0.72l0,0.128l-0.215,0l0,0.592l-0.152,0l0,-0.592l-0.216,0l0,-0.128l0.583,0Z" style="fill:white;fill-rule:nonzero;"/>        </g>        <g transform="matrix(12.4528,0,0,11.7648,33.2877,23.9777)">            <path d="M0.354,-0.545l0.019,0.001l0,0.143c-0.009,-0.001 -0.017,-0.002 -0.024,-0.002c-0.007,-0.001 -0.012,-0.001 -0.016,-0.001c-0.056,0 -0.094,0.018 -0.113,0.055c-0.011,0.02 -0.016,0.052 -0.016,0.095l0,0.254l-0.141,0l0,-0.532l0.133,0l0,0.093c0.022,-0.036 0.04,-0.06 0.056,-0.073c0.026,-0.022 0.06,-0.033 0.102,-0.033Z" style="fill:white;fill-rule:nonzero;"/>        </g>        <g transform="matrix(12.4528,0,0,11.7648,38.4236,23.9777)">            <path d="M0.358,-0.259c-0.008,0.006 -0.017,0.01 -0.026,0.014c-0.009,0.003 -0.021,0.006 -0.037,0.009l-0.031,0.006c-0.03,0.005 -0.051,0.012 -0.063,0.019c-0.022,0.013 -0.033,0.032 -0.033,0.059c0,0.024 0.007,0.041 0.02,0.052c0.013,0.01 0.029,0.016 0.048,0.016c0.03,0 0.058,-0.009 0.083,-0.027c0.025,-0.017 0.038,-0.049 0.039,-0.096l0,-0.052Zm-0.084,-0.065c0.026,-0.003 0.044,-0.007 0.055,-0.012c0.02,-0.008 0.03,-0.022 0.03,-0.039c0,-0.022 -0.008,-0.037 -0.023,-0.046c-0.015,-0.008 -0.037,-0.012 -0.066,-0.012c-0.033,0 -0.057,0.008 -0.07,0.024c-0.01,0.012 -0.017,0.029 -0.02,0.049l-0.134,0c0.003,-0.046 0.016,-0.085 0.039,-0.115c0.037,-0.046 0.1,-0.07 0.189,-0.07c0.059,0 0.11,0.012 0.156,0.035c0.045,0.023 0.068,0.066 0.068,0.131l0,0.244c0,0.017 0,0.037 0.001,0.061c0.001,0.018 0.003,0.031 0.008,0.037c0.004,0.007 0.011,0.012 0.02,0.016l0,0.021l-0.151,0c-0.004,-0.011 -0.007,-0.021 -0.009,-0.03c-0.001,-0.01 -0.003,-0.02 -0.004,-0.033c-0.019,0.021 -0.041,0.039 -0.066,0.054c-0.03,0.017 -0.064,0.026 -0.102,0.026c-0.048,0 -0.088,-0.014 -0.119,-0.042c-0.031,-0.027 -0.047,-0.066 -0.047,-0.117c0,-0.065 0.025,-0.112 0.075,-0.142c0.028,-0.016 0.069,-0.027 0.123,-0.034l0.047,-0.006Z" style="fill:white;fill-rule:nonzero;"/>        </g>        <g transform="matrix(12.4528,0,0,11.7648,45.3492,23.9777)">            <path d="M0.261,-0.545c0.032,0 0.061,0.007 0.086,0.021c0.025,0.014 0.046,0.034 0.061,0.059l0,-0.254l0.141,0l0,0.719l-0.135,0l0,-0.074c-0.02,0.032 -0.042,0.055 -0.068,0.069c-0.025,0.014 -0.057,0.022 -0.095,0.022c-0.062,0 -0.114,-0.026 -0.157,-0.076c-0.042,-0.05 -0.063,-0.115 -0.063,-0.193c0,-0.091 0.021,-0.163 0.063,-0.215c0.041,-0.052 0.097,-0.078 0.167,-0.078Zm0.031,0.444c0.039,0 0.069,-0.014 0.089,-0.044c0.021,-0.029 0.031,-0.067 0.031,-0.113c0,-0.065 -0.016,-0.112 -0.049,-0.14c-0.02,-0.017 -0.044,-0.025 -0.071,-0.025c-0.04,0 -0.07,0.015 -0.089,0.046c-0.019,0.031 -0.029,0.069 -0.029,0.114c0,0.049 0.01,0.089 0.029,0.118c0.02,0.03 0.049,0.044 0.089,0.044Z" style="fill:white;fill-rule:nonzero;"/>        </g>        <g transform="matrix(12.4528,0,0,11.7648,53.2455,23.9777)">            <path d="M0.275,-0.432c-0.032,0 -0.057,0.01 -0.075,0.031c-0.018,0.02 -0.029,0.047 -0.033,0.082l0.216,0c-0.002,-0.037 -0.014,-0.065 -0.034,-0.084c-0.02,-0.019 -0.044,-0.029 -0.074,-0.029Zm0,-0.114c0.044,0 0.084,0.008 0.12,0.025c0.035,0.016 0.064,0.042 0.087,0.078c0.021,0.032 0.035,0.068 0.041,0.11c0.004,0.024 0.005,0.06 0.004,0.105l-0.364,0c0.002,0.054 0.019,0.091 0.05,0.113c0.02,0.013 0.043,0.02 0.07,0.02c0.028,0 0.052,-0.008 0.07,-0.025c0.009,-0.008 0.018,-0.021 0.025,-0.036l0.143,0c-0.004,0.031 -0.021,0.063 -0.05,0.096c-0.045,0.052 -0.109,0.078 -0.191,0.078c-0.068,0 -0.128,-0.022 -0.179,-0.066c-0.052,-0.043 -0.078,-0.114 -0.078,-0.213c0,-0.092 0.023,-0.163 0.07,-0.212c0.047,-0.049 0.107,-0.073 0.182,-0.073Z" style="fill:white;fill-rule:nonzero;"/>        </g>        <g transform="matrix(12.4528,0,0,11.7648,27.8962,34.7291)">            <path d="M0.227,-0.595l0,0.194l0.17,0c0.034,0 0.059,-0.004 0.076,-0.012c0.03,-0.014 0.045,-0.041 0.045,-0.081c0,-0.044 -0.014,-0.073 -0.043,-0.088c-0.017,-0.008 -0.041,-0.013 -0.074,-0.013l-0.174,0Zm0.206,-0.125c0.05,0.001 0.089,0.007 0.116,0.019c0.027,0.011 0.05,0.028 0.069,0.05c0.016,0.018 0.028,0.039 0.037,0.061c0.009,0.022 0.014,0.047 0.014,0.075c0,0.035 -0.009,0.068 -0.026,0.101c-0.017,0.033 -0.046,0.057 -0.085,0.07c0.033,0.014 0.056,0.033 0.07,0.057c0.014,0.025 0.021,0.062 0.021,0.113l0,0.048c0,0.033 0.001,0.055 0.004,0.067c0.004,0.018 0.013,0.032 0.027,0.041l0,0.018l-0.165,0c-0.005,-0.016 -0.008,-0.029 -0.01,-0.039c-0.004,-0.02 -0.006,-0.04 -0.006,-0.062l-0.001,-0.066c-0.001,-0.046 -0.009,-0.077 -0.026,-0.092c-0.016,-0.016 -0.046,-0.023 -0.09,-0.023l-0.155,0l0,0.282l-0.147,0l0,-0.72l0.353,0Z" style="fill:white;fill-rule:nonzero;"/>        </g>        <g transform="matrix(12.4528,0,0,11.7648,36.8892,34.7291)">            <path d="M0.208,-0.596l-0.141,0l0,-0.128l0.141,0l0,0.128Zm-0.141,0.064l0.141,0l0,0.532l-0.141,0l0,-0.532Z" style="fill:white;fill-rule:nonzero;"/>        </g>        <g transform="matrix(12.4528,0,0,11.7648,40.349,34.7291)">            <path d="M0.393,-0.532l0.149,0l-0.191,0.532l-0.147,0l-0.191,-0.532l0.156,0l0.111,0.392l0.113,-0.392Z" style="fill:white;fill-rule:nonzero;"/>        </g>        <g transform="matrix(12.4528,0,0,11.7648,47.5643,34.7291)">            <path d="M0.275,-0.432c-0.032,0 -0.057,0.01 -0.075,0.031c-0.018,0.02 -0.029,0.047 -0.033,0.082l0.216,0c-0.002,-0.037 -0.014,-0.065 -0.034,-0.084c-0.02,-0.019 -0.044,-0.029 -0.074,-0.029Zm0,-0.114c0.044,0 0.084,0.008 0.12,0.025c0.035,0.016 0.064,0.042 0.087,0.078c0.021,0.032 0.035,0.068 0.041,0.11c0.004,0.024 0.005,0.06 0.004,0.105l-0.364,0c0.002,0.054 0.019,0.091 0.05,0.113c0.02,0.013 0.043,0.02 0.07,0.02c0.028,0 0.052,-0.008 0.07,-0.025c0.009,-0.008 0.018,-0.021 0.025,-0.036l0.143,0c-0.004,0.031 -0.021,0.063 -0.05,0.096c-0.045,0.052 -0.109,0.078 -0.191,0.078c-0.068,0 -0.128,-0.022 -0.179,-0.066c-0.052,-0.043 -0.078,-0.114 -0.078,-0.213c0,-0.092 0.023,-0.163 0.07,-0.212c0.047,-0.049 0.107,-0.073 0.182,-0.073Z" style="fill:white;fill-rule:nonzero;"/>        </g>        <g transform="matrix(12.4528,0,0,11.7648,54.49,34.7291)">            <path d="M0.354,-0.545l0.019,0.001l0,0.143c-0.009,-0.001 -0.017,-0.002 -0.024,-0.002c-0.007,-0.001 -0.012,-0.001 -0.016,-0.001c-0.056,0 -0.094,0.018 -0.113,0.055c-0.011,0.02 -0.016,0.052 -0.016,0.095l0,0.254l-0.141,0l0,-0.532l0.133,0l0,0.093c0.022,-0.036 0.04,-0.06 0.056,-0.073c0.026,-0.022 0.06,-0.033 0.102,-0.033Z" style="fill:white;fill-rule:nonzero;"/>        </g>    </g></svg>