<?xml version="1.0" encoding="UTF-8" standalone="no"?><!DOCTYPE svg PUBLIC "-//W3C//DTD SVG 1.1//EN" "http://www.w3.org/Graphics/SVG/1.1/DTD/svg11.dtd"><svg width="100%" height="100%" viewBox="0 0 512 512" version="1.1" xmlns="http://www.w3.org/2000/svg" xmlns:xlink="http://www.w3.org/1999/xlink" xml:space="preserve" style="fill-rule:evenodd;clip-rule:evenodd;stroke-linejoin:round;stroke-miterlimit:2;"><title>ecoligo</title><desc>ecoligo.investments is a crowdinvesting platform for renewable energy projects initiated by ecoligo GmbH with a focus on developing and emerging countries. The crowdinvesting platform ecoligo.investments enables private investors to benefit financially from renewable energy projects and at the same time to support local economic development in developing and emerging countries and to combat climate change. This effectively promotes public participation in the global energy transition. </desc>    <g>        <g transform="matrix(30.0654,0,0,30.2433,-7613.01,-602.757)">            <rect x="254.08" y="20.79" width="15.3" height="15.21" style="fill:url(#_Linear1);"/>        </g>        <g transform="matrix(1,0,0,1,54.503,-13.9192)">            <g transform="matrix(1,0,0,1,76,21.2248)">                <path d="M42.305,265.41c0.244,15.038 3.546,26.068 9.906,33.09c6.36,7.022 18.227,10.507 35.6,10.455c17.425,0 35.286,-0.723 53.582,-2.169l-0.026,0.104l10.272,-1.098l0.732,29.458c-24.378,5.192 -49.205,7.993 -74.127,8.364c-27.148,0 -46.656,-7.389 -58.522,-22.165c-11.867,-14.777 -17.774,-38.431 -17.722,-70.964c0,-64.473 26.539,-96.71 79.616,-96.71c51.369,0 77.054,27.759 77.054,83.275l-2.614,28.36l-113.751,0Zm77.054,-30.503c0,-17.948 -2.875,-30.494 -8.626,-37.639c-5.75,-7.144 -15.473,-10.716 -29.169,-10.716c-13.697,-0.035 -23.664,3.685 -29.902,11.161c-6.238,7.475 -9.479,19.856 -9.723,37.142l77.42,0.052Z" style="fill:white;"/>            </g>            <g transform="matrix(1.56863,0,0,1.56863,-390.278,165.29)">                <path d="M415.19,120.77l0,-15.13l15.3,0l0,15.16l-15.3,-0.03Z" style="fill:white;fill-rule:nonzero;"/>            </g>            <g transform="matrix(1.95287,0,0,1.95287,-557.82,128.502)">                <path d="M443.87,34.22l0,-10.41l8.19,0l0,10.41l-8.19,0Zm0,86.8l0,-69.44l8.19,0l0,69.42l-8.19,0.02Z" style="fill:white;fill-rule:nonzero;"/>            </g>        </g>    </g>    <defs>        <linearGradient id="_Linear1" x1="0" y1="0" x2="1" y2="0" gradientUnits="userSpaceOnUse" gradientTransform="matrix(14.9341,14.681,-14.7678,14.8463,254.08,20.8892)"><stop offset="0" style="stop-color:rgb(1,179,213);stop-opacity:1"/><stop offset="1" style="stop-color:rgb(130,53,140);stop-opacity:1"/></linearGradient>    </defs></svg>