<?xml version="1.0" encoding="UTF-8" standalone="no"?><!DOCTYPE svg PUBLIC "-//W3C//DTD SVG 1.1//EN" "http://www.w3.org/Graphics/SVG/1.1/DTD/svg11.dtd"><svg width="100%" height="100%" viewBox="0 0 512 512" version="1.1" xmlns="http://www.w3.org/2000/svg" xmlns:xlink="http://www.w3.org/1999/xlink" xml:space="preserve" style="fill-rule:evenodd;clip-rule:evenodd;stroke-linejoin:round;stroke-miterlimit:2;"><title>UK Bond Network</title><desc>UK Bond Network is a platform that links institutional investors, wealth managers and high net worth and sophisticated individuals with carefully-assessed, UK business borrowers through an innovative online bond auction.</desc>    <g transform="matrix(14.4195,0,0,14.4195,-5189.01,-3443.28)">        <g transform="matrix(1,0,0,1,359.509,239.056)">            <path d="M23.177,6.162c-0.231,-0.401 -0.352,-0.856 -0.352,-1.319c0,-0.956 0.517,-1.841 1.349,-2.31c1.287,-0.727 2.944,-0.28 3.689,0.997c0.231,0.402 0.352,0.857 0.352,1.32c0,0.955 -0.517,1.84 -1.349,2.31c-1.285,0.725 -2.937,0.281 -3.689,-0.998Z" style="fill:rgb(112,98,88);"/>        </g>        <g transform="matrix(1,0,0,1,359.509,239.056)">            <path d="M9.187,32.756c-1.262,-0.718 -1.712,-2.345 -0.998,-3.609c0.746,-1.277 2.403,-1.725 3.69,-0.997c1.262,0.718 1.711,2.345 0.997,3.609c-0.746,1.277 -2.402,1.725 -3.689,0.997m6.192,-30.014c0,-0.01 0,-0.02 0,-0.029c0,-1.483 1.22,-2.703 2.702,-2.703c1.482,0 2.702,1.22 2.702,2.703c0,1.467 -1.195,2.68 -2.662,2.702c-0.02,0 -0.04,0 -0.06,0c-1.468,0 -2.677,-1.205 -2.682,-2.673m-7.2,3.42c-0.227,-0.399 -0.347,-0.852 -0.347,-1.312c0,-0.954 0.515,-1.837 1.345,-2.307c1.287,-0.727 2.943,-0.28 3.689,0.997c0.23,0.402 0.352,0.857 0.352,1.32c0,0.955 -0.517,1.84 -1.349,2.31c-1.287,0.727 -2.944,0.279 -3.69,-0.998m-4.477,6.372c-1.26,-0.714 -1.71,-2.339 -0.997,-3.6c0.746,-1.276 2.402,-1.724 3.69,-0.997c1.26,0.715 1.71,2.339 0.997,3.6c-0.746,1.277 -2.402,1.724 -3.69,0.997m-3.28,4.986c0,-0.01 -0.001,-0.02 -0.001,-0.03c0,-1.482 1.22,-2.702 2.703,-2.702c1.482,0 2.702,1.22 2.702,2.702c0,1.468 -1.195,2.681 -2.662,2.702c-0.02,0.001 -0.04,0.001 -0.06,0.001c-1.464,0 -2.672,-1.199 -2.682,-2.663m2.273,8.825c-0.23,-0.402 -0.351,-0.857 -0.351,-1.32c0,-0.956 0.516,-1.84 1.348,-2.31c1.288,-0.727 2.944,-0.279 3.69,0.997c0.227,0.4 0.347,0.852 0.347,1.312c0,0.954 -0.515,1.837 -1.344,2.308c-1.288,0.727 -2.944,0.279 -3.69,-0.997m12.684,5.973c-0.001,-0.02 -0.001,-0.04 -0.001,-0.06c0,-1.482 1.22,-2.702 2.703,-2.702c1.482,0 2.702,1.22 2.702,2.702c0,1.464 -1.189,2.675 -2.652,2.702c-0.023,0.001 -0.047,0.001 -0.07,0.001c-1.457,0 -2.661,-1.187 -2.682,-2.643m7.778,-0.539c-0.228,-0.4 -0.348,-0.852 -0.348,-1.312c0,-0.954 0.515,-1.837 1.345,-2.307c1.287,-0.728 2.944,-0.28 3.689,0.997c0.228,0.399 0.348,0.852 0.348,1.312c0,0.954 -0.515,1.837 -1.345,2.307c-1.287,0.727 -2.944,0.28 -3.689,-0.997m6.501,-4.437c-1.262,-0.718 -1.711,-2.346 -0.997,-3.61c0.746,-1.276 2.402,-1.724 3.689,-0.997c1.262,0.718 1.712,2.346 0.998,3.61c-0.746,1.276 -2.403,1.724 -3.69,0.997m0.728,-9.802c0,-0.013 0,-0.027 0,-0.04c0,-1.482 1.22,-2.702 2.702,-2.702c1.482,0 2.702,1.22 2.702,2.702c0,1.468 -1.195,2.68 -2.662,2.702c-1.473,0.006 -2.691,-1.199 -2.702,-2.672m-1.775,-5.953c-0.228,-0.4 -0.347,-0.852 -0.347,-1.312c0,-0.954 0.514,-1.837 1.344,-2.308c1.287,-0.727 2.944,-0.279 3.69,0.997c0.227,0.4 0.347,0.852 0.347,1.313c0,0.953 -0.515,1.837 -1.345,2.307c-1.287,0.727 -2.943,0.28 -3.689,-0.997" style="fill:rgb(255,102,0);fill-rule:nonzero;"/>        </g>    </g></svg>