<?xml version="1.0" encoding="UTF-8" standalone="no"?><!DOCTYPE svg PUBLIC "-//W3C//DTD SVG 1.1//EN" "http://www.w3.org/Graphics/SVG/1.1/DTD/svg11.dtd"><svg width="100%" height="100%" viewBox="0 0 512 512" version="1.1" xmlns="http://www.w3.org/2000/svg" xmlns:xlink="http://www.w3.org/1999/xlink" xml:space="preserve" style="fill-rule:evenodd;clip-rule:evenodd;stroke-linejoin:round;stroke-miterlimit:2;"><title>PrepayWay</title><desc>PrepayWay is a blockchain ecosystem that simplifies and streamlines international collaboration, contracting, and payments for companies across multiple industries.</desc>    <g id="Layer_2" transform="matrix(13.5236,0,0,13.5236,-80.3718,-127.759)">        <path d="M17.921,47.233l0,-19.727c0.006,-6.171 5.084,-11.245 11.254,-11.246c6.175,0 11.257,5.081 11.257,11.257c0,6.175 -5.082,11.257 -11.257,11.257l-5.421,0l0,-5.881l5.421,0c2.955,0 5.387,-2.432 5.387,-5.387c0,-2.956 -2.432,-5.387 -5.387,-5.387c-2.954,0.001 -5.384,2.432 -5.384,5.387l0,13.843c0.012,3.212 -2.617,5.866 -5.829,5.884l-0.041,0Z" style="fill:url(#_Linear1);fill-rule:nonzero;"/>        <path d="M15.184,26.162l5.39,0c2.953,-0.001 5.383,-2.431 5.384,-5.384c-0.001,-2.954 -2.433,-5.384 -5.387,-5.384c-2.954,0.001 -5.384,2.433 -5.384,5.387l0,5.134l-0.02,8.881c-0.016,3.201 -2.652,5.826 -5.853,5.829l0,-19.847c0,-6.174 5.08,-11.255 11.254,-11.257c6.175,-0.004 11.26,5.072 11.266,11.246c0,0.003 0,0.005 0,0.008c0,6.174 -5.079,11.254 -11.252,11.257l-5.431,0l0.033,-5.87Z" style="fill:url(#_Linear2);fill-rule:nonzero;"/>        <path d="M24.615,17.212c-1.017,-1.158 -2.486,-1.821 -4.027,-1.818c-2.955,0 -5.387,2.432 -5.387,5.387l0,13.841c0.001,3.222 -2.645,5.876 -5.867,5.883l0,-19.705c0,-0.002 0,-0.003 0,-0.005c0,-6.175 5.079,-11.256 11.254,-11.257c4.505,-0.002 8.595,2.702 10.36,6.847c-2.32,-0.25 -4.443,-0.036 -6.333,0.827Z" style="fill:url(#_Radial3);fill-rule:nonzero;"/>        <path d="M24.598,17.228c0.906,-0.428 1.873,-0.709 2.867,-0.832c1.154,-0.135 2.317,-0.094 3.475,0c-0.703,-1.381 -1.178,-2.649 -2.953,-4.083c-3.067,1.146 -5.59,3.392 -5.59,3.392c0,0 1.43,0.555 2.201,1.523Z" style="fill:url(#_Linear4);fill-rule:nonzero;"/>        <path d="M25.736,23.212c1.078,-0.78 2.403,-1.143 3.727,-1.021c1.646,0.155 2.19,0.535 2.19,0.535c0,0 -0.441,1.957 -0.921,2.87c-2.853,-0.76 -6.001,-1.41 -6.001,-1.41c0.306,-0.353 0.642,-0.679 1.005,-0.974Z" style="fill:url(#_Linear5);fill-rule:nonzero;"/>        <path d="M23.788,32.929l-0.034,5.833l4.913,-0.027l-0.305,-5.806l-4.574,0Z" style="fill:url(#_Linear6);fill-rule:nonzero;"/>        <path d="M15.223,26.162l-0.031,5.837l4.913,-0.028l-0.305,-5.809l-4.577,0Z" style="fill:url(#_Linear7);fill-rule:nonzero;"/>    </g>    <defs>        <linearGradient id="_Linear1" x1="0" y1="0" x2="1" y2="0" gradientUnits="userSpaceOnUse" gradientTransform="matrix(13.3968,-12.689,12.689,13.3968,18.0982,26.5838)"><stop offset="0" style="stop-color:rgb(159,0,38);stop-opacity:1"/><stop offset="0.19" style="stop-color:rgb(159,0,38);stop-opacity:1"/><stop offset="0.31" style="stop-color:rgb(172,0,24);stop-opacity:1"/><stop offset="1" style="stop-color:rgb(232,0,0);stop-opacity:1"/></linearGradient>        <linearGradient id="_Linear2" x1="0" y1="0" x2="1" y2="0" gradientUnits="userSpaceOnUse" gradientTransform="matrix(11.6094,-2.98631,2.98631,11.6094,9.57506,14.9411)"><stop offset="0" style="stop-color:rgb(163,0,34);stop-opacity:1"/><stop offset="0.19" style="stop-color:rgb(165,0,34);stop-opacity:1"/><stop offset="0.31" style="stop-color:rgb(172,0,24);stop-opacity:1"/><stop offset="1" style="stop-color:rgb(232,0,0);stop-opacity:1"/></linearGradient>        <radialGradient id="_Radial3" cx="0" cy="0" r="1" gradientUnits="userSpaceOnUse" gradientTransform="matrix(22.0865,0,0,-22.0865,26.9573,-0.814728)"><stop offset="0" style="stop-color:rgb(255,41,7);stop-opacity:1"/><stop offset="1" style="stop-color:rgb(250,0,12);stop-opacity:0"/></radialGradient>        <linearGradient id="_Linear4" x1="0" y1="0" x2="1" y2="0" gradientUnits="userSpaceOnUse" gradientTransform="matrix(-1.40989,-4.36845,4.36845,-1.40989,27.5012,7.19779)"><stop offset="0" style="stop-color:rgb(146,0,46);stop-opacity:0.96"/><stop offset="0.17" style="stop-color:rgb(146,0,46);stop-opacity:0.96"/><stop offset="0.54" style="stop-color:rgb(164,0,31);stop-opacity:0.51"/><stop offset="0.83" style="stop-color:rgb(247,0,38);stop-opacity:0.18"/><stop offset="1" style="stop-color:rgb(252,43,53);stop-opacity:0"/></linearGradient>        <linearGradient id="_Linear5" x1="0" y1="0" x2="1" y2="0" gradientUnits="userSpaceOnUse" gradientTransform="matrix(-1.09072,5.18718,-5.18718,-1.09072,28.8501,8.89355)"><stop offset="0" style="stop-color:rgb(146,0,46);stop-opacity:0.96"/><stop offset="0.17" style="stop-color:rgb(146,0,46);stop-opacity:0.96"/><stop offset="0.54" style="stop-color:rgb(164,0,31);stop-opacity:0.51"/><stop offset="0.9" style="stop-color:rgb(232,0,0);stop-opacity:0.18"/><stop offset="1" style="stop-color:rgb(232,0,0);stop-opacity:0.18"/></linearGradient>        <linearGradient id="_Linear6" x1="0" y1="0" x2="1" y2="0" gradientUnits="userSpaceOnUse" gradientTransform="matrix(4.92075,0.0277538,-0.0277538,4.92075,22.2058,24.3968)"><stop offset="0" style="stop-color:rgb(146,0,46);stop-opacity:0.96"/><stop offset="0.17" style="stop-color:rgb(146,0,46);stop-opacity:0.96"/><stop offset="0.63" style="stop-color:rgb(164,0,31);stop-opacity:0.51"/><stop offset="0.87" style="stop-color:rgb(181,0,24);stop-opacity:0.18"/><stop offset="1" style="stop-color:rgb(174,0,33);stop-opacity:0"/></linearGradient>        <linearGradient id="_Linear7" x1="0" y1="0" x2="1" y2="0" gradientUnits="userSpaceOnUse" gradientTransform="matrix(4.91242,-0.0305292,0.0305292,4.91242,13.6465,26.2206)"><stop offset="0" style="stop-color:rgb(146,0,46);stop-opacity:0.96"/><stop offset="0.17" style="stop-color:rgb(146,0,46);stop-opacity:0.96"/><stop offset="0.63" style="stop-color:rgb(164,0,31);stop-opacity:0.51"/><stop offset="0.87" style="stop-color:rgb(181,0,24);stop-opacity:0.18"/><stop offset="1" style="stop-color:rgb(174,0,33);stop-opacity:0"/></linearGradient>    </defs></svg>