<?xml version="1.0" encoding="UTF-8" standalone="no"?><!DOCTYPE svg PUBLIC "-//W3C//DTD SVG 1.1//EN" "http://www.w3.org/Graphics/SVG/1.1/DTD/svg11.dtd"><svg width="100%" height="100%" viewBox="0 0 512 512" version="1.1" xmlns="http://www.w3.org/2000/svg" xmlns:xlink="http://www.w3.org/1999/xlink" xml:space="preserve" style="fill-rule:evenodd;clip-rule:evenodd;stroke-linejoin:round;stroke-miterlimit:2;"><title>Raize</title><desc>Raize is the platform made up of people and companies that want to invest in the future. We are one of the leading financiers of Portuguese companies and one of the largest investment platforms with more than 60 thousand investors. Raize is the SME loan exchange in Portugal. Through Raize, companies obtain financing for growth capital, making investments and / or advancing invoices.</desc>    <g transform="matrix(18.7475,0,0,18.7475,35.8824,-70.5143)">        <g id="Group">            <path id="Path" d="M21.168,31.018c-0.403,0 -0.731,-0.126 -1.003,-0.386l-13.5,-11.847l-2.937,0l0,10.792c0,0.835 -0.586,1.441 -1.392,1.441c-0.807,0 -1.392,-0.606 -1.392,-1.441l0,-24.321c0,-0.822 0.619,-1.441 1.44,-1.441l11.463,0c4.765,0 7.845,2.947 7.845,7.508c0,4.532 -3.061,7.461 -7.797,7.461l-2.983,0l11.166,9.791l0.022,0.022c0.423,0.422 0.554,1.042 0.332,1.578c-0.211,0.512 -0.708,0.843 -1.264,0.843Zm-7.369,-15.018c3.312,0 5.062,-1.617 5.062,-4.677c0,-3.046 -1.815,-4.725 -5.11,-4.725l-10.023,0l0,9.402l10.071,0Z" style="fill:rgb(255,200,0);"/>        </g>    </g></svg>