<?xml version="1.0" encoding="UTF-8" standalone="no"?><!DOCTYPE svg PUBLIC "-//W3C//DTD SVG 1.1//EN" "http://www.w3.org/Graphics/SVG/1.1/DTD/svg11.dtd"><svg width="100%" height="100%" viewBox="0 0 1024 512" version="1.1" xmlns="http://www.w3.org/2000/svg" xmlns:xlink="http://www.w3.org/1999/xlink" xml:space="preserve" style="fill-rule:evenodd;clip-rule:evenodd;stroke-linejoin:round;stroke-miterlimit:2;"><title>Fairzinsung</title><desc>Fairzinsung is the platform for responsible investors who invest in ecologically and socially sustainable projects such as solar parks, tree plantations, day care centers, or senior flat shares. This generates long-term income, for example from electricity sales or rental. And everyone wins: the environment, the people in their region and you as an investor!</desc>    <g transform="matrix(3.76384,0,0,3.76384,2,154.753)">        <path d="M256.5,53.8c-3.3,0 -6.8,-0.7 -10.6,-2.1l0.6,-5.7c3.1,1.5 6.1,2.2 8.9,2.2c2.7,0 4.7,-0.5 6,-1.7c1.3,-1.2 2,-3.2 2,-6.2l0,-4c-0.8,1.8 -2,3.3 -3.6,4.5c-1.6,1.2 -3.4,1.8 -5.6,1.8c-2.2,0 -4.1,-0.6 -5.8,-1.7c-1.6,-1.1 -2.9,-2.8 -3.8,-5.1c-0.9,-2.3 -1.3,-4.8 -1.3,-7.6c0,-4.4 1.1,-8.1 3.2,-11c2.1,-2.9 5.1,-4.4 8.9,-4.5c1,0 2,0.1 2.8,0.3c0.8,0.2 1.6,0.5 2.4,1c0.8,0.5 1.7,1.2 2.8,2.3l0.8,-2.9l6.8,0l0,22.3c0,5.9 -0.6,9.9 -1.7,11.9c-1.1,2 -2.7,3.6 -5,4.6c-2.3,1.1 -4.9,1.6 -7.8,1.6l0,0Zm-99.9,-38.5c-1.9,1.6 -2.9,3.7 -2.9,6.3c0,2.1 0.6,3.8 1.9,5.1c1.3,1.3 3.2,2.5 5.9,3.6l2.6,1.1c1.3,0.5 2.3,1.1 2.9,1.6c0.6,0.6 1,1.3 1,2.1c0,1 -0.4,1.7 -1.3,2.4c-0.9,0.6 -2,0.9 -3.4,0.9c-2.7,0 -5.9,-0.8 -9.7,-2.4l0,5.8c3.5,1.1 6.9,1.6 10.2,1.6c3.9,0 6.9,-0.9 9,-2.8c2.1,-1.9 3.1,-4 3.1,-6.5c0,-1.9 -0.6,-3.5 -1.7,-4.9c-1.1,-1.3 -3.5,-2.7 -7.2,-4.2l-2.2,-0.9c-1.3,-0.5 -2.2,-1 -2.7,-1.6c-0.5,-0.5 -0.8,-1.1 -0.8,-1.8c0,-0.9 0.4,-1.6 1.2,-2.2c0.8,-0.6 2,-0.8 3.6,-0.8c2,0 4.5,0.5 7.6,1.6l0,-5.5c-3.2,-0.7 -5.9,-1 -8.2,-1c-4,0 -7,0.8 -8.9,2.5Zm-120.4,9.5l0,-2.7c0,-1.8 -0.4,-3 -1.4,-3.6c-1,-0.6 -2.2,-0.9 -3.7,-0.9c-2.9,0 -5.9,0.9 -8.9,2.6l0,-5.4c3.4,-1.3 6.8,-2 10.3,-2c2.1,0 4,0.3 5.6,0.9c1.7,0.6 3,1.5 4,2.7c1,1.2 1.5,3.1 1.5,5.5l0,12.9c0,1.6 0.2,2.5 0.7,2.9c0.5,0.3 0.9,0.5 1.4,0.5c0.2,0 0.6,0 1,-0.1l0.2,4.4c-1.6,0.5 -3,0.7 -4.3,0.7c-1.4,0 -2.6,-0.2 -3.6,-0.7c-1.1,-0.5 -1.8,-1.5 -2.4,-3.1l-0.3,0c-1.1,1.1 -2.1,1.9 -2.9,2.4c-0.8,0.5 -1.6,0.9 -2.5,1.1c-0.9,0.3 -1.8,0.4 -2.8,0.4c-2.6,0 -4.6,-0.8 -6.1,-2.4c-1.5,-1.7 -2.3,-3.6 -2.3,-6c0,-2.9 1.1,-5.3 3.4,-7.2c2.3,-1.9 6,-2.9 11.1,-2.9l2,0Zm152.7,-11.4l0,18.8c0,1.6 0.1,2.6 0.4,3.2c0.3,0.6 0.7,1 1.2,1.3c0.5,0.3 1,0.4 1.6,0.4c1.1,0 2.2,-0.4 3.3,-1.1c1.1,-0.7 2.4,-2.1 3.7,-4.2l0,-18.4l7.6,0l0,29.1l-7.6,0l0,-5.5c-1.3,2.3 -2.8,3.9 -4.5,4.8c-1.7,0.9 -3.4,1.4 -5.1,1.4c-2.3,0 -4.2,-0.7 -5.8,-2.2c-1.6,-1.5 -2.4,-3.8 -2.4,-7l0,-20.6l7.6,0Zm-59,0.1l0,5.5c1.4,-2.3 2.9,-3.9 4.6,-4.8c1.7,-1 3.4,-1.4 5,-1.4c2.3,0 4.2,0.7 5.8,2.2c1.6,1.5 2.4,3.8 2.4,7l0,20.6l-7.6,0l0,-18.7c0,-1.6 -0.1,-2.6 -0.4,-3.2c-0.3,-0.6 -0.7,-1 -1.2,-1.3c-0.5,-0.3 -1,-0.4 -1.6,-0.4c-1.1,0 -2.2,0.4 -3.3,1.1c-1.1,0.7 -2.4,2.1 -3.7,4.2l0,18.4l-7.6,0l0,-29.2l7.6,0Zm-57,0l0,5.5c0.9,-1.9 2.1,-3.4 3.7,-4.5c1.6,-1.2 3.4,-1.7 5.3,-1.8c0.4,0 0.9,0.1 1.4,0.2l0,7c-1,-0.4 -2.1,-0.6 -3,-0.6c-1.5,0 -2.9,0.4 -4.1,1.2c-1.2,0.8 -2.3,2 -3.3,3.6l0,18.6l-7.6,0l0,-29.2l7.6,0Zm148.3,0l0,5.5c1.4,-2.3 2.9,-3.9 4.6,-4.8c1.7,-1 3.4,-1.4 5,-1.4c2.3,0 4.2,0.7 5.8,2.2c1.6,1.5 2.4,3.8 2.4,7l0,20.6l-7.6,0l0,-18.7c0,-1.6 -0.1,-2.6 -0.4,-3.2c-0.3,-0.6 -0.7,-1 -1.2,-1.3c-0.5,-0.3 -1,-0.4 -1.6,-0.4c-1.1,0 -2.2,0.4 -3.3,1.1c-1.1,0.7 -2.4,2.1 -3.7,4.2l0,18.4l-7.6,0l0,-29.2l7.6,0Zm-116,-0.3l0,5.1c-2.7,3.5 -4.9,6.7 -6.5,9.6c-1.6,2.9 -2.9,5.5 -3.9,8c-1,2.5 -1.5,4.8 -1.5,6.8l-6.2,0c0.1,-1.4 0.4,-2.6 0.7,-3.6c0.3,-1 0.8,-2.1 1.5,-3.5c0.8,-1.4 2.3,-3.8 4.6,-7.3l6.6,-9.9l-14.6,0l0,-5.2l19.3,0Zm10.2,0.2l0,29.2l-7.6,0l0,-29.2l7.6,0Zm-57.1,0l0,29.2l-7.6,0l0,-29.2l7.6,0Zm46.8,24.4l0,4.8l-10.1,0c0,0 0,-2.7 1,-4.8l9.1,0Zm-101.2,-24.4l0,-2.1c0,-4 0.9,-7 2.7,-8.7c1.8,-1.7 4.4,-2.6 7.7,-2.6c2.3,0 4.6,0.3 7,1l0,5.4c-2.1,-0.9 -4.1,-1.4 -5.8,-1.4c-0.8,0 -1.5,0.2 -2.1,0.5c-0.6,0.3 -1.1,0.8 -1.4,1.6c-0.3,0.8 -0.5,2.1 -0.5,4l0,2.4l7.2,0l0,4.9l-7.2,0l0,24.2l-7.6,0l0,-24.3l-3.9,0l0,-4.9l3.9,0Zm24.2,23.5c-0.7,-0.7 -1.1,-1.6 -1.1,-2.8c0,-1.4 0.6,-2.5 1.8,-3.4c1.2,-0.9 3.1,-1.4 5.6,-1.4l1.8,0l0,5.9c-0.9,0.9 -1.9,1.6 -2.8,2c-0.9,0.5 -1.8,0.7 -2.7,0.7c-1,0 -1.8,-0.3 -2.6,-1Zm224.7,-2.8c-0.9,-1.5 -1.4,-3.6 -1.4,-6.2c0,-3.1 0.6,-5.5 1.7,-7.3c1.1,-1.8 2.6,-2.7 4.5,-2.7c0.9,0 1.8,0.2 2.7,0.6c0.9,0.4 1.9,1.3 3,2.6l0,10.8c-1,1.5 -2.1,2.7 -3.2,3.4c-1.1,0.8 -2.3,1.1 -3.5,1.1c-1.6,-0.1 -2.9,-0.8 -3.8,-2.3Zm-202.1,-28.5c0,2.2 1.8,4.1 3.9,4.1c2.2,0 3.9,-1.8 3.9,-4.1c0,-2.2 -1.8,-4.1 -3.9,-4.1c-2.1,0.1 -3.9,1.9 -3.9,4.1Zm56.9,0c0,2.2 1.8,4.1 3.9,4.1c2.2,0 3.9,-1.8 3.9,-4.1c0,-2.2 -1.8,-4.1 -3.9,-4.1c-2.1,0.1 -3.9,1.9 -3.9,4.1Z" style="fill:url(#_Linear1);"/>    </g>    <defs>        <linearGradient id="_Linear1" x1="0" y1="0" x2="1" y2="0" gradientUnits="userSpaceOnUse" gradientTransform="matrix(270.96,0,0,270.96,-0.0110496,26.8854)"><stop offset="0" style="stop-color:rgb(118,185,73);stop-opacity:1"/><stop offset="1" style="stop-color:rgb(127,175,150);stop-opacity:1"/></linearGradient>    </defs></svg>