<?xml version="1.0" encoding="UTF-8" standalone="no"?><!DOCTYPE svg PUBLIC "-//W3C//DTD SVG 1.1//EN" "http://www.w3.org/Graphics/SVG/1.1/DTD/svg11.dtd"><svg width="100%" height="100%" viewBox="0 0 512 512" version="1.1" xmlns="http://www.w3.org/2000/svg" xmlns:xlink="http://www.w3.org/1999/xlink" xml:space="preserve" style="fill-rule:evenodd;clip-rule:evenodd;stroke-linejoin:round;stroke-miterlimit:2;"><title>Property Partner</title><desc>Property Partner is the simpler, smarter way to grow your property portfolio. Choose a property, decide how much to invest, and start earning from your share - or sell it on. Build a diversified portfolio in minutes, with properties selected by expert teams. Invest in residential, purpose-built student accommodation and commercial properties from across the UK. </desc>    <g id="Property-Partner" transform="matrix(4.63799,0,0,4.63799,-40.8992,-40.9214)">        <path d="M45.14,90.92c-14.08,-1.56 -24.69,-8.23 -30.93,-21.24c-2.014,-3.955 -3.253,-8.259 -3.65,-12.68c-0.023,-2.689 0.406,-5.363 1.27,-7.91c3.92,-14.24 12.4,-25.09 24.84,-32.9c0.881,-0.733 2.165,-0.754 3.07,-0.05c0.818,0.886 0.976,2.206 0.39,3.26c-0.92,1.76 -1.85,3.52 -2.68,5.33c-3.458,7.337 -5.655,15.204 -6.5,23.27c-0.79,8.05 -0.21,16 3.08,23.5c2.611,6.127 7.171,11.225 12.97,14.5c1.56,0.89 2,2.17 1.36,3.56c-0.64,1.39 -1.89,1.44 -3.22,1.36Z" style="fill:rgb(77,135,189);fill-rule:nonzero;"/>        <path d="M74.28,29.75c-6.82,0.13 -13.21,1.11 -19.17,4c-5.641,2.646 -10.179,7.187 -12.82,12.83c-0.412,1.236 -1.755,1.926 -3,1.54c-1.174,-0.332 -1.93,-1.492 -1.76,-2.7c0.332,-8.106 3.162,-15.914 8.1,-22.35c6.08,-7.86 14.37,-12.07 23.92,-13.95c1.606,-0.184 3.233,-0.055 4.79,0.38c9.682,1.913 18.6,6.604 25.66,13.5c4.059,3.836 7.53,8.25 10.3,13.1c0.314,0.431 0.484,0.951 0.484,1.485c0,1.323 -1.043,2.433 -2.364,2.515c-0.571,0.042 -1.139,-0.121 -1.6,-0.46c-7.64,-5.31 -16.19,-8.13 -25.34,-9.32c-2.389,-0.31 -4.792,-0.501 -7.2,-0.57Z" style="fill:rgb(77,135,189);fill-rule:nonzero;"/>        <path d="M56.36,119c-3.913,-0.372 -7.757,-1.27 -11.43,-2.67c-6.691,-2.538 -12.793,-6.418 -17.93,-11.4c-3.945,-3.757 -7.338,-8.053 -10.08,-12.76c-0.49,-0.67 -0.669,-1.519 -0.49,-2.33c0.244,-1.11 1.237,-1.908 2.373,-1.908c0.521,0 1.028,0.168 1.447,0.478c7.079,4.81 15.173,7.924 23.65,9.1c4.459,0.722 8.99,0.887 13.49,0.49c7.36,-0.67 14.26,-2.64 20.16,-7.35c3.069,-2.463 5.532,-5.596 7.2,-9.16c0.391,-1.222 1.67,-1.949 2.92,-1.66c1.253,0.292 2.076,1.52 1.87,2.79c-0.85,14.67 -8.95,28.68 -25.05,34.36c-2.611,1.022 -5.344,1.701 -8.13,2.02Z" style="fill:rgb(77,135,189);fill-rule:nonzero;"/>        <path d="M117.47,71.58c-0.35,3.842 -1.179,7.625 -2.47,11.26c-4.313,12.209 -12.707,22.565 -23.76,29.31c-1.16,0.7 -2.1,0.75 -2.81,0.14c-0.789,-0.824 -0.967,-2.068 -0.44,-3.08c0.72,-1.51 1.54,-3 2.27,-4.48c3.546,-7.227 5.835,-15.005 6.77,-23c1.033,-7.472 0.349,-15.082 -2,-22.25c-2.281,-7.069 -7.009,-13.098 -13.33,-17c-0.206,-0.146 -0.428,-0.27 -0.66,-0.37c-0.987,-0.193 -1.706,-1.065 -1.706,-2.071c0,-0.213 0.032,-0.425 0.096,-0.629c0.17,-1.253 1.311,-2.162 2.57,-2.05c6.655,0.37 13.1,2.465 18.7,6.08c6.608,4.338 11.629,10.71 14.3,18.15c1.042,2.744 1.822,5.58 2.33,8.47c0.07,0.5 0.09,1.01 0.14,1.52Z" style="fill:rgb(77,135,189);fill-rule:nonzero;"/>    </g></svg>