<?xml version="1.0" encoding="UTF-8" standalone="no"?><!DOCTYPE svg PUBLIC "-//W3C//DTD SVG 1.1//EN" "http://www.w3.org/Graphics/SVG/1.1/DTD/svg11.dtd"><svg width="100%" height="100%" viewBox="0 0 512 512" version="1.1" xmlns="http://www.w3.org/2000/svg" xmlns:xlink="http://www.w3.org/1999/xlink" xml:space="preserve" style="fill-rule:evenodd;clip-rule:evenodd;stroke-linejoin:round;stroke-miterlimit:2;"><title>Property Bridges</title><desc>Property Bridges is on a mission to bring high-quality peer to peer property loans to Ireland. Through our online platform, we bring experienced developers together with property investors. Providing much-needed finance for small to medium-sized Irish developers. For investors, we provide unprecedented access to the property market.</desc>    <g transform="matrix(1.45725,0,0,1.53969,-75.9565,-138.562)">        <path d="M402.782,256.249c0,-91.407 -78.408,-165.618 -174.986,-165.618c-96.578,-0 -174.987,74.211 -174.987,165.618l0,0.025c0,91.407 78.409,165.618 174.987,165.618c96.578,0 174.986,-74.211 174.986,-165.618l0,-0.025Z" style="fill:rgb(44,58,76);"/>    </g>    <g transform="matrix(1,0,0,1,-46.9618,-9.82742)">        <g transform="matrix(-17.4758,0,0,17.4758,5684.04,-1500.98)">            <rect x="299.189" y="94.095" width="17.464" height="3.419" style="fill:rgb(132,207,203);"/>        </g>        <g transform="matrix(-17.4758,0,0,17.4758,5684.04,-1130.78)">            <rect x="299.189" y="83.503" width="17.464" height="3.419" style="fill:rgb(132,207,203);"/>        </g>        <g transform="matrix(-17.4758,0,0,17.4758,5514.95,-1315.35)">            <rect x="299.187" y="88.783" width="7.792" height="3.421" style="fill:rgb(132,207,203);"/>        </g>        <g transform="matrix(-17.4758,0,0,17.4758,5853.45,-1315.35)">            <rect x="308.872" y="88.783" width="7.792" height="3.421" style="fill:rgb(132,207,203);"/>        </g>    </g></svg>