<?xml version="1.0" encoding="UTF-8" standalone="no"?><!DOCTYPE svg PUBLIC "-//W3C//DTD SVG 1.1//EN" "http://www.w3.org/Graphics/SVG/1.1/DTD/svg11.dtd"><svg width="100%" height="100%" viewBox="0 0 512 512" version="1.1" xmlns="http://www.w3.org/2000/svg" xmlns:xlink="http://www.w3.org/1999/xlink" xml:space="preserve" style="fill-rule:evenodd;clip-rule:evenodd;stroke-linejoin:round;stroke-miterlimit:2;"><title>Coinbase</title><desc>We are building the cryptoeconomy – a more fair, accessible, efficient, and transparent financial system enabled by crypto.</desc>    <g id="coinbase">        <g transform="matrix(1.06775,0,0,1.06775,-52.3055,-24.0867)">            <circle cx="288.744" cy="262.315" r="238.82" style="fill:white;"/>        </g>        <g id="coinbase1" transform="matrix(3.25588,0,0,3.25669,28.6422,-153.904)">            <path d="M71.02,84.26c16.7,0 29.95,10.3 34.98,25.62l33.66,0c-6.1,-32.75 -33.13,-54.94 -68.37,-54.94c-40.02,-0 -71.29,30.38 -71.29,71.06c0,40.68 30.48,70.79 71.29,70.79c34.45,0 62.01,-22.19 68.11,-55.21l-33.4,0c-4.77,15.32 -18.02,25.89 -34.72,25.89c-23.06,0 -39.22,-17.7 -39.22,-41.47c0.01,-24.04 15.91,-41.74 38.96,-41.74Z" style="fill:rgb(0,82,255);fill-rule:nonzero;"/>        </g>    </g></svg>