<?xml version="1.0" encoding="UTF-8" standalone="no"?><!DOCTYPE svg PUBLIC "-//W3C//DTD SVG 1.1//EN" "http://www.w3.org/Graphics/SVG/1.1/DTD/svg11.dtd"><svg width="100%" height="100%" viewBox="0 0 512 512" version="1.1" xmlns="http://www.w3.org/2000/svg" xmlns:xlink="http://www.w3.org/1999/xlink" xml:space="preserve" style="fill-rule:evenodd;clip-rule:evenodd;stroke-linejoin:round;stroke-miterlimit:2;"><title>Monestro</title><desc>Monestro is a P2P consumer loans marketplace for Monestro is Cost-efficient highly automated P2P algorithmic lending platform to capitalize on the inefficiency of the lending markets as loans are offered with much higher interests rates compared to what investors are able to receive on deposits or investment products with similar risk levels Our mission is to find risks which are over rated by the market and based on those offer diversified, easy to buy, correctly scored and well managed products resulting in improved borrowing rates for borrowers and more appealing returns for our investors. Our core business is to automatically assess the credit risk and offer efficient, and correctly priced possibilities for convenient borrowing and investing</desc>    <g id="Monestro" transform="matrix(4.636,0,0,4.636,-40.7038,-40.7167)">        <path d="M107,29.79c-1.379,-1.932 -3.018,-3.665 -4.87,-5.15c1,5 -0.09,9.35 -2.23,13.5c-3.47,6.71 -9,11.46 -15,15.77c-0.81,0.58 -1.12,0.43 -1.5,-0.43c-0.73,-1.65 -0.39,-3.28 -0.15,-4.94c0.29,-1.93 0.75,-3.86 -0.22,-5.74c-1.514,-2.635 -4.331,-4.264 -7.369,-4.264c-4.398,0 -8.106,3.412 -8.471,7.794c-0.382,3.448 1.673,6.734 4.94,7.9c1.36,0.54 2.79,0.89 4.17,1.37c0.954,0.324 1.662,1.14 1.85,2.13c0.19,1 -1,1 -1.52,1.42c-0.696,0.468 -1.421,0.892 -2.17,1.27c-5.7,3.21 -11.56,6.14 -17.74,9.2c2.59,0.734 4.883,2.267 6.55,4.38c2.54,7.31 1.61,10.68 -4.15,15.06c-2.63,1.207 -5.598,1.472 -8.4,0.75c-6.24,-2.64 -8,-7.39 -6,-14.24c-6.36,3.43 -12.28,6.19 -17.32,10.43c-1.665,1.263 -3.031,2.878 -4,4.73c-0.679,0.785 -1.126,1.745 -1.29,2.77c-0.52,2.31 -1.07,4.73 0.61,6.74c2.141,2.634 4.627,4.968 7.39,6.94c0.617,0.763 1.391,1.384 2.27,1.82c20.16,14 47.14,13.25 65.34,-1.87c6.283,-4.42 11.33,-10.377 14.66,-17.3c2.869,-4.837 4.755,-10.193 5.55,-15.76c0.108,-0.178 0.192,-0.37 0.25,-0.57c2.5,-16.17 -1.08,-30.78 -11.18,-43.71Z" style="fill:rgb(235,99,37);fill-rule:nonzero;"/>        <path d="M99.44,26.42c0.08,-0.087 0.08,-0.223 0,-0.31c0.294,-2.6 -0.893,-5.157 -3.07,-6.61c-12.71,-8.9 -26.69,-12.25 -41.93,-9.64c-11.404,1.841 -21.885,7.405 -29.8,15.82c-2.603,2.469 -4.839,5.297 -6.64,8.4c-2.552,3.576 -4.51,7.54 -5.8,11.74c-1.643,4.303 -2.621,8.832 -2.9,13.43c-0.3,4.75 -0.56,9.6 0.7,14.32c0.404,3.635 1.393,7.181 2.93,10.5c1.18,4 3.36,7.38 5.71,11c1.056,-4.323 3.459,-8.201 6.86,-11.07c0.754,-0.319 1.434,-0.788 2,-1.38c5.17,-3.858 10.695,-7.217 16.5,-10.03c1.37,-0.68 2.24,0.09 3,1.05c0.76,0.96 0.32,2.16 0.47,3.24c-0.18,1.09 -0.38,2.19 -0.53,3.29c-0.266,1.599 0.205,3.236 1.28,4.45c2.795,3.137 7.641,3.498 10.87,0.81c3.12,-2.692 3.494,-7.465 0.83,-10.61c-0.2,-0.276 -0.431,-0.528 -0.69,-0.75c-1.744,-1.027 -3.637,-1.779 -5.61,-2.23c-1.036,-0.306 -1.799,-1.198 -1.94,-2.27c-0.22,-1.2 1,-1.17 1.64,-1.53c5.27,-2.82 10.57,-5.59 15.86,-8.38c1.45,-0.13 2.46,-1.12 3.7,-1.81c-7.26,-3.59 -8.59,-5.51 -8.69,-12.41c0.14,-0.46 0.28,-0.92 0.42,-1.38c1.72,-5.33 6,-9.27 12.59,-8.34c3.57,0.5 6.09,2.46 8.23,5.13c1.4,2.49 1.27,5.15 0.67,8.46c3.35,-2.77 6.48,-5 8.33,-8.49c1.52,-1.41 2.25,-3.34 3.3,-5.05c1.144,-2.031 1.73,-4.329 1.7,-6.66c0.275,-0.875 0.278,-1.813 0.01,-2.69Z" style="fill:rgb(140,97,165);fill-rule:nonzero;"/>    </g></svg>