<?xml version="1.0" encoding="UTF-8" standalone="no"?><!DOCTYPE svg PUBLIC "-//W3C//DTD SVG 1.1//EN" "http://www.w3.org/Graphics/SVG/1.1/DTD/svg11.dtd"><svg width="100%" height="100%" viewBox="0 0 512 512" version="1.1" xmlns="http://www.w3.org/2000/svg" xmlns:xlink="http://www.w3.org/1999/xlink" xml:space="preserve" style="fill-rule:evenodd;clip-rule:evenodd;stroke-linejoin:round;stroke-miterlimit:2;"><title>CFA</title><desc></desc>    <g id="_37a40573-ad21-48f8-ac4b-bafee752feda" transform="matrix(4.63587,0,0,4.62638,1.60958,32.3641)">        <g transform="matrix(0.990561,0,0,0.990561,-8.52154,-15.0566)">            <path d="M101.6,37.16l-17.93,0l-17.82,0l0,17.82l17.82,0l0,35.86l17.93,0l0,-35.86l17.93,0l0,-17.82l-17.93,0Z" style="fill:rgb(237,26,58);fill-rule:nonzero;"/>        </g>        <g transform="matrix(0.990561,0,0,0.990561,-8.52154,-15.0566)">            <path d="M62.27,37.16l-17.94,0l-17.93,0l-17.93,0l0,53.68l17.93,0l0,-17.93l17.93,0l0,-17.93l17.94,0l0,-17.82Z" style="fill:rgb(0,125,197);fill-rule:nonzero;"/>        </g>    </g></svg>