<?xml version="1.0" encoding="UTF-8" standalone="no"?><!DOCTYPE svg PUBLIC "-//W3C//DTD SVG 1.1//EN" "http://www.w3.org/Graphics/SVG/1.1/DTD/svg11.dtd"><svg width="100%" height="100%" viewBox="0 0 512 512" version="1.1" xmlns="http://www.w3.org/2000/svg" xmlns:xlink="http://www.w3.org/1999/xlink" xml:space="preserve" style="fill-rule:evenodd;clip-rule:evenodd;stroke-linejoin:round;stroke-miterlimit:2;"><title>Borsa Del Credito</title><desc>BorsadelCredito.it is the 1st Peer to Peer Lending platform for companies. On the platform, which in the first two years of life has handled the credit requests of over 10,000 companies, companies can find hundreds of lenders who have decided to invest in the real economy. With a significant advantage: if the request is successful, the company gets the money in 3 days.</desc>    <g transform="matrix(1.6929,0,0,1.6929,-68.0837,-71.0574)">        <path d="M339.112,56.847c0,-6.253 -5.076,-11.329 -11.329,-11.329l-272.693,0c-6.252,0 -11.329,5.076 -11.329,11.329l0,272.693c0,6.252 5.077,11.329 11.329,11.329l272.693,0c6.253,0 11.329,-5.077 11.329,-11.329l0,-272.693Z" style="fill:rgb(44,115,129);"/>    </g>    <g transform="matrix(17.145,0,0,17.1379,56.0084,-336.491)">        <path d="M4.539,45.53l7.426,0c5.176,0 6.826,-2.927 6.826,-6.38c0,-2.927 -1.575,-4.803 -3.975,-5.103l0,-0.075c2.175,-0.601 3.3,-2.402 3.3,-4.804c0,-4.203 -2.625,-5.554 -6.226,-5.554l-7.352,0l0,21.916Zm4.426,-18.613l1.576,0c2.175,0 3.15,0.75 3.15,2.852c0,2.026 -1.05,2.852 -3.525,2.852l-1.201,0l0,-5.704Zm0,8.781l1.876,0c1.95,0 3.375,0.75 3.375,3.302c0,2.552 -1.425,3.302 -3.6,3.302l-1.651,0l0,-6.604Z" style="fill:white;fill-rule:nonzero;"/>    </g></svg>