<?xml version="1.0" encoding="UTF-8" standalone="no"?><!DOCTYPE svg PUBLIC "-//W3C//DTD SVG 1.1//EN" "http://www.w3.org/Graphics/SVG/1.1/DTD/svg11.dtd"><svg width="100%" height="100%" viewBox="0 0 512 512" version="1.1" xmlns="http://www.w3.org/2000/svg" xmlns:xlink="http://www.w3.org/1999/xlink" xml:space="preserve" style="fill-rule:evenodd;clip-rule:evenodd;stroke-linejoin:round;stroke-miterlimit:2;"><title>Bloomio</title><desc>Bloomio is working on redesigning the venture capital industry. Bloomio provides a digital investment platform, that connects early-stage startups with individual investors and venture funds. The platform allows startup founders to raise capital and gives investors a possibility to trade startup stakes through a secure marketplace.</desc>    <g id="Logo" transform="matrix(2.6137,0,0,2.6137,0.819545,0.89479)">        <path d="M125.46,143.7c18.817,-7.416 39.687,-7.824 58.78,-1.15c-20.224,38.949 -64.34,59.703 -107.24,50.45c0.53,-1.41 1.11,-2.86 1.77,-4.36c8.955,-20.591 25.772,-36.778 46.69,-44.94Zm-60.57,45.85l-0.35,-0.12c-1.93,-0.7 -3.93,-1.51 -6,-2.4c-45.461,-19.87 -68.9,-71.406 -54,-118.73c18.932,9.511 35.063,23.792 46.8,41.43c12.762,19.145 19.92,41.483 20.66,64.48c-0.7,1.22 -1.4,2.5 -2.08,3.83c-1,1.91 -1.85,3.76 -2.66,5.59c-0.81,1.83 -1.62,3.86 -2.37,5.92Z" style="fill-rule:nonzero;"/>        <path d="M30.74,26.5c8.732,-8.208 18.902,-14.737 30,-19.26c18.513,16.908 31.426,39.075 37,63.52c5.889,25.602 3.367,52.434 -7.19,76.49c-0.44,1 -1,2.26 -1.73,3.77c-0.5,1.07 -1,2 -1.39,2.84c-1.49,1.5 -2.95,3 -4.34,4.62c-2.893,-19.902 -10.165,-38.916 -21.29,-55.67c-13.181,-19.808 -31.377,-35.775 -52.73,-46.27c5.227,-11.312 12.584,-21.512 21.67,-30.04Z" style="fill:rgb(132,189,0);fill-rule:nonzero;"/>        <path d="M135.26,42.79c-9.623,5.593 -18.517,12.354 -26.48,20.13c-6.103,-22.665 -17.981,-43.364 -34.47,-60.07c33.456,-8.248 68.892,1.83 93,26.45c-11.218,3.103 -21.99,7.637 -32.05,13.49Z" style="fill:rgb(238,220,0);fill-rule:nonzero;"/>        <path d="M141.57,53.65c10.839,-6.298 22.579,-10.902 34.81,-13.65c9.686,13.297 15.876,28.817 18,45.13c2.018,15.475 0.275,31.211 -5.08,45.87c-16.144,-5.841 -33.557,-7.277 -50.44,-4.16c-11.143,2.053 -21.846,6.025 -31.63,11.74c2.517,-7.961 4.285,-16.14 5.28,-24.43c1.46,-12.11 1.261,-24.363 -0.59,-36.42c8.558,-9.534 18.564,-17.66 29.65,-24.08Z" style="fill:rgb(76,140,43);fill-rule:nonzero;"/>    </g></svg>