<?xml version="1.0" encoding="UTF-8" standalone="no"?><!DOCTYPE svg PUBLIC "-//W3C//DTD SVG 1.1//EN" "http://www.w3.org/Graphics/SVG/1.1/DTD/svg11.dtd"><svg width="100%" height="100%" viewBox="0 0 512 512" version="1.1" xmlns="http://www.w3.org/2000/svg" xmlns:xlink="http://www.w3.org/1999/xlink" xml:space="preserve" style="fill-rule:evenodd;clip-rule:evenodd;stroke-linejoin:round;stroke-miterlimit:2;"><title>Kiosk to Invest</title><desc>The company Kiosk to Invest is a crowdfunding platform, or crowdfunding, whose desire is to promote the funding of startups and SMEs with potential and to involve individuals in the economic development of their territory.</desc>    <g transform="matrix(15.1341,0,0,15.1341,-916.54,-6827.76)">        <g transform="matrix(1,0,0,1,66.5901,475.463)">            <path d="M0,9.398c-0.411,0 -0.82,-0.157 -1.133,-0.471c-0.622,-0.627 -0.618,-1.638 0.007,-2.258l5.78,-5.748c0.499,-0.494 1.264,-0.607 1.884,-0.272c1.308,0.703 2.792,1.077 4.289,1.077c1.636,-0.001 3.239,-0.44 4.636,-1.273c0.757,-0.453 1.738,-0.205 2.19,0.552c0.451,0.757 0.204,1.738 -0.553,2.19c-1.892,1.129 -4.061,1.724 -6.273,1.724c-1.62,0 -3.23,-0.323 -4.716,-0.941l-4.986,4.955c-0.31,0.311 -0.718,0.465 -1.125,0.465" style="fill:rgb(188,207,0);fill-rule:nonzero;"/>        </g>        <g transform="matrix(1,0,0,1,86.5349,455.422)">            <path d="M0,19.825c-0.283,0 -0.569,-0.073 -0.827,-0.232c-0.755,-0.458 -0.995,-1.441 -0.537,-2.193c0.857,-1.413 1.309,-3.035 1.309,-4.696c0,-1.511 -0.378,-3.004 -1.093,-4.319c-0.339,-0.626 -0.224,-1.399 0.281,-1.899l5.938,-5.866c0.628,-0.62 1.639,-0.613 2.259,0.014c0.62,0.628 0.614,1.638 -0.014,2.258l-5.13,5.068c0.627,1.495 0.954,3.112 0.954,4.744c0,2.245 -0.614,4.442 -1.774,6.353c-0.3,0.495 -0.826,0.768 -1.366,0.768" style="fill:rgb(87,87,86);fill-rule:nonzero;"/>        </g>        <g transform="matrix(1,0,0,1,62.2245,460.786)">            <path d="M0,19.709c-0.409,0 -0.817,-0.155 -1.13,-0.467c-0.623,-0.622 -0.623,-1.635 0,-2.258l4.984,-4.984c-0.602,-1.471 -0.918,-3.06 -0.919,-4.66c0.001,-2.242 0.612,-4.436 1.769,-6.345c0.457,-0.754 1.439,-0.995 2.193,-0.538c0.754,0.458 0.996,1.439 0.539,2.194c-0.854,1.409 -1.306,3.03 -1.306,4.689c0,1.481 0.365,2.95 1.055,4.248c0.329,0.62 0.216,1.382 -0.281,1.879l-5.774,5.775c-0.312,0.312 -0.721,0.467 -1.13,0.467" style="fill:rgb(188,207,0);fill-rule:nonzero;"/>        </g>        <g transform="matrix(1,0,0,1,71.8796,451.111)">            <path d="M0,9.503c-0.539,0 -1.064,-0.272 -1.365,-0.766c-0.459,-0.754 -0.221,-1.736 0.533,-2.196c1.915,-1.167 4.117,-1.784 6.37,-1.784c1.602,0.001 3.193,0.317 4.664,0.921l5.105,-5.057c0.626,-0.621 1.637,-0.615 2.258,0.01c0.621,0.627 0.616,1.638 -0.01,2.259l-5.896,5.84c-0.497,0.493 -1.256,0.605 -1.873,0.277c-1.298,-0.69 -2.766,-1.055 -4.248,-1.055c-1.666,0 -3.294,0.455 -4.708,1.317c-0.26,0.158 -0.547,0.234 -0.83,0.234" style="fill:rgb(87,87,86);fill-rule:nonzero;"/>        </g>        <g transform="matrix(0,1,1,0,80.4977,461.959)">            <path d="M3.139,-3.139c-1.734,0.001 -3.14,1.406 -3.139,3.139c0,1.733 1.406,3.139 3.139,3.139c1.734,-0.001 3.138,-1.406 3.138,-3.14c0,-1.733 -1.404,-3.138 -3.139,-3.138" style="fill:rgb(188,207,0);fill-rule:nonzero;"/>        </g>        <g transform="matrix(0,1,1,0,74.3488,468.108)">            <path d="M3.139,-3.139c-1.735,0.001 -3.139,1.407 -3.139,3.14c0.001,1.733 1.405,3.138 3.139,3.138c1.733,0 3.138,-1.406 3.138,-3.14c0,-1.731 -1.406,-3.137 -3.139,-3.137" style="fill:rgb(87,87,86);fill-rule:nonzero;"/>        </g>    </g></svg>