<?xml version="1.0" encoding="UTF-8" standalone="no"?><!DOCTYPE svg PUBLIC "-//W3C//DTD SVG 1.1//EN" "http://www.w3.org/Graphics/SVG/1.1/DTD/svg11.dtd"><svg width="100%" height="100%" viewBox="0 0 512 512" version="1.1" xmlns="http://www.w3.org/2000/svg" xmlns:xlink="http://www.w3.org/1999/xlink" xml:space="preserve" style="fill-rule:evenodd;clip-rule:evenodd;stroke-linejoin:round;stroke-miterlimit:2;"><title>Property Moose</title><desc>In our mission to democratize investing, our sophisticated technology allows you to build a diverse portfolio in just a few simple clicks, anytime, anywhere. On our property investment platform, you can become a landlord by investing in expertly sourced buy to let opportunities, lend directly to or alongside carefully vetted property developers, and sell your shares on one of the world’s first Property Trading Markets. </desc>    <g transform="matrix(5.31264,0,0,5.31751,-9619.83,-7182.62)">        <path d="M1830.33,1363.5l-15.641,0c-2.071,0 -3.752,-1.681 -3.752,-3.752l0,-1.064c0,-2.07 1.681,-3.751 3.752,-3.751c0,0 17.942,-0.571 22.514,-0.382c11.654,0.481 18.788,5.826 21.254,15.295c4.265,16.382 1.361,21.385 3.188,23.156c1.703,1.651 3.014,1.322 5.359,0c4.087,-2.303 6.128,-1.965 7.741,-0.78c2.157,1.584 2.611,4.253 6.461,5.111c6.072,1.352 12.526,2.827 17.134,3.969c3.805,0.943 4.988,1.189 7.004,4.421c2.016,3.231 1.99,11.322 0.628,15.218c-1.362,3.895 -3.358,5.525 -7.057,4.622c-3.699,-0.904 -2.915,-1.89 -5.911,-6.561c-2.996,-4.671 -8.039,-9.979 -13.393,-8.934c-6.56,1.28 -12.544,5.664 -10.981,13.245c1.563,7.581 2.148,9.453 2.374,10.689c0.226,1.236 1.295,4.793 1.295,4.793c0,0 1.367,4.382 0,4.375c-0.481,-0.003 0.009,0.476 -1.295,-0.579c-8.852,-7.161 -21.059,-26.704 -22,-28.589c-1.051,-2.106 -4.046,-9.739 -1,-16c3.046,-6.261 2.989,-7.853 2,-10c-0.989,-2.147 -4.218,-2.638 -7.936,-2.884l-16.017,0c-2.07,0 -3.751,-1.681 -3.751,-3.751l0,-1.064c0,-2.071 1.681,-3.752 3.751,-3.752l12.54,0c0.492,-1.07 -0.82,-2.431 -2.388,-2.431l-16.028,0c-2.07,0 -3.751,-1.681 -3.751,-3.751l0,-1.064c0,-2.071 1.681,-3.752 3.751,-3.752l12.399,0c0.033,0 0.531,-2.217 -2.244,-2.053Zm41.504,31.82c1.485,0 2.69,1.205 2.69,2.69c0,1.484 -1.205,2.69 -2.69,2.69c-1.484,0 -2.69,-1.206 -2.69,-2.69c0,-1.485 1.206,-2.69 2.69,-2.69Z" style="fill:rgb(48,64,76);"/>    </g></svg>