<?xml version="1.0" encoding="UTF-8" standalone="no"?><!DOCTYPE svg PUBLIC "-//W3C//DTD SVG 1.1//EN" "http://www.w3.org/Graphics/SVG/1.1/DTD/svg11.dtd"><svg width="100%" height="100%" viewBox="0 0 512 512" version="1.1" xmlns="http://www.w3.org/2000/svg" xmlns:xlink="http://www.w3.org/1999/xlink" xml:space="preserve" style="fill-rule:evenodd;clip-rule:evenodd;stroke-linejoin:round;stroke-miterlimit:2;"><title>PeerBerry</title><desc>PeerBerry is a peer-to-peer marketplace offering an opportunity to invest in issued non-banking lenders loans from across Europe.PeerBerry utilises the most modern online tools and solutions to provide a trustworthy, simple and fast service.PeerBerry is the ultimate alternative investment marketplace with up to 13.7% return on investment and easy to use cutting edge investment tools. Our clients are the cornerstone of our business and our biggest assets.</desc>    <g transform="matrix(4.63636,0,0,4.63636,142.427,152.555)">        <g transform="matrix(0.999998,0,0,0.999998,-39.5001,-41.6883)">            <path d="M69,9l0,25.6c-3.31,0.31 -6.32,0.35 -9.24,0.9c-12.81,2.4 -22.78,14 -23,27.07c-0.24,15 -0.15,30 -0.21,45l0,3.1c-1.44,-1 -2.59,-1.66 -3.65,-2.46c-18.09,-13.402 -26.203,-36.617 -20.4,-58.37c5.62,-21.57 23.7,-37.37 46.23,-40.46c0.348,-0.085 0.684,-0.212 1,-0.38l9.27,0Z" style="fill-rule:nonzero;"/>        </g>        <g transform="matrix(0.999998,0,0,0.999998,-39.5001,-41.6883)">            <path d="M46.09,85.55c3.965,3.465 8.756,5.852 13.91,6.93c6.913,1.374 14.095,0.209 20.22,-3.28c0.827,-0.454 1.808,-0.538 2.7,-0.23c10.707,5.887 21.207,5.583 31.5,-0.91c0.17,-0.11 0.38,-0.17 0.89,-0.4c-2.181,4.977 -5.228,9.528 -9,13.44c-16.21,16.64 -35.54,21.59 -57.85,15.22c-1.88,-0.54 -2.46,-1.42 -2.43,-3.38c0.12,-8.23 0.05,-16.46 0.05,-24.7l0.01,-2.69Z" style="fill-rule:nonzero;"/>        </g>        <g transform="matrix(0.999998,0,0,0.999998,-39.5001,-41.6883)">            <path d="M89.28,81.18c7.35,-11.47 7.39,-22.84 0.17,-34.22c5.8,-4.22 16.45,-2.6 22.35,3.4c6.71,6.867 7.415,17.713 1.65,25.39c-5.61,7.43 -16.18,9.84 -24.17,5.43Z" style="fill-rule:nonzero;"/>        </g>        <g transform="matrix(0.999998,0,0,0.999998,-39.5001,-41.6883)">            <path d="M74.32,81.11c-6.55,3.88 -15.73,2.59 -21.91,-3c-6.042,-5.73 -7.771,-14.73 -4.28,-22.29c3.77,-8 11.59,-12.13 20.77,-10.86l0,18.15c-0.156,6.066 1.562,12.036 4.92,17.09c0.18,0.26 0.33,0.59 0.5,0.91Z" style="fill-rule:nonzero;"/>        </g>        <g transform="matrix(0.999998,0,0,0.999998,-39.5001,-41.6883)">            <path d="M115.39,40.59c-5.172,-3.722 -11.398,-5.702 -17.77,-5.65c-5.081,0.063 -10.06,1.441 -14.45,4c-1.72,1 -4.68,-0.5 -4.68,-2.41l0,-25.35c0.027,-0.144 0.077,-0.283 0.15,-0.41c12.69,1.82 29.65,13.63 36.75,29.82Z" style="fill-rule:nonzero;"/>        </g>        <g transform="matrix(0.999998,0,0,0.999998,-39.5001,-41.6883)">            <path d="M82,53.66c4.16,5.9 4.12,15.2 -0.08,20.57c-4.26,-4.47 -4.4,-15.8 0.08,-20.57Z" style="fill-rule:nonzero;"/>        </g>    </g></svg>