<?xml version="1.0" encoding="UTF-8" standalone="no"?><!DOCTYPE svg PUBLIC "-//W3C//DTD SVG 1.1//EN" "http://www.w3.org/Graphics/SVG/1.1/DTD/svg11.dtd"><svg width="100%" height="100%" viewBox="0 0 512 512" version="1.1" xmlns="http://www.w3.org/2000/svg" xmlns:xlink="http://www.w3.org/1999/xlink" xml:space="preserve" style="fill-rule:evenodd;clip-rule:evenodd;stroke-linejoin:round;stroke-miterlimit:2;"><title>Zakra</title><desc>ZAKRA - a social lending portal, a leader on the financial services market in Poland, enabling safe social loans.This is a very innovative method of financing the everyday needs of the consumer.Our offer is directed to natural persons, business operations and commercial law companies.</desc>    <g transform="matrix(4.18423,0,0,4.18423,3.25984,68.6415)">        <g transform="matrix(1,0,0,1,3.26861,1.92615)">            <path d="M74.447,0.777c18.765,-4.866 34.572,-2.727 40.857,7.132c9.925,15.572 -7.633,44.543 -39.186,64.655c-31.552,20.113 -65.227,23.8 -75.153,8.229c-9.926,-15.572 7.633,-44.543 39.185,-64.655c0.865,-0.551 1.731,-1.09 2.599,-1.617c0.725,-0.488 1.461,-0.971 2.207,-1.447l0.015,-0.009c1.573,-1.151 3.245,-2.264 5.003,-3.321c5.64,-3.391 11.371,-5.729 16.563,-6.952c2.72,-0.866 5.369,-1.539 7.91,-2.015Zm26.158,11.734c0.599,11.398 -11.512,27.796 -30.553,39.933c-22.765,14.511 -46.869,17.472 -53.795,6.607c-1.154,-1.81 -1.758,-3.89 -1.859,-6.168c-3.586,8.042 -4.361,15.341 -1.285,20.166c7.816,12.263 34.336,9.359 59.184,-6.48c24.848,-15.839 38.675,-38.654 30.859,-50.916c-0.722,-1.133 -1.577,-2.183 -2.551,-3.142Zm-15.078,-5.298c3.098,7.316 -5.529,19.769 -19.968,28.451c-15.063,9.057 -30.785,10.603 -35.085,3.45c-1.165,-1.938 -1.374,-4.316 -0.758,-6.935c-6.635,8.312 -9.143,16.585 -5.727,21.944c5.627,8.828 24.213,5.422 42.711,-6.369c18.498,-11.791 29.947,-27.53 24.32,-36.358c-1.223,-1.919 -3.105,-3.307 -5.493,-4.183Zm-10.187,-1.007c-8.164,0.713 -18.25,4.323 -28.031,10.558c-3.03,1.932 -5.844,3.996 -8.409,6.138c-3.86,4.95 -5.297,9.832 -3.31,13.136c3.494,5.812 16.268,4.556 28.508,-2.804c12.24,-7.359 19.339,-18.052 15.845,-23.864c-0.934,-1.554 -2.531,-2.602 -4.603,-3.164Z" style="fill:rgb(70,70,70);"/>        </g>        <g transform="matrix(0.283551,0,0,0.283551,-8.71234,-27.8119)">            <path d="M297.753,97.036c66.178,-17.158 121.925,-9.617 144.089,25.155c35.005,54.916 -26.918,157.087 -138.195,228.018c-111.277,70.932 -230.039,83.935 -265.044,29.019c-35.005,-54.915 26.919,-157.086 138.196,-228.018c3.049,-1.943 6.103,-3.843 9.166,-5.702c2.554,-1.721 5.15,-3.423 7.783,-5.102l0.05,-0.032c5.55,-4.061 11.446,-7.986 17.645,-11.714c19.889,-11.958 40.104,-20.204 58.415,-24.518c9.593,-3.052 18.933,-5.426 27.895,-7.106Zm92.25,41.385c2.113,40.198 -40.6,98.028 -107.75,140.831c-80.285,51.177 -165.295,61.618 -189.719,23.302c-4.069,-6.383 -6.201,-13.72 -6.557,-21.756c-12.645,28.363 -15.379,54.104 -4.532,71.122c27.567,43.246 121.093,33.006 208.725,-22.853c87.631,-55.859 136.397,-136.32 108.83,-179.567c-2.547,-3.996 -5.56,-7.698 -8.997,-11.079Zm-53.181,-18.689c11.014,26.099 -18.632,73.583 -69.567,104.209c-53.123,31.941 -109.416,33.525 -124.583,8.299c-4.109,-6.833 -4.843,-15.222 -2.674,-24.456c-23.399,29.312 -32.242,58.491 -20.196,77.389c19.845,31.133 85.393,19.122 150.629,-22.461c65.235,-41.583 105.613,-97.093 85.768,-128.226c-4.314,-6.768 -10.956,-11.664 -19.377,-14.754Zm-35.922,-3.548c-28.79,2.513 -64.36,15.247 -98.857,37.236c-10.692,6.815 -20.621,14.1 -29.656,21.646c-13.61,17.457 -18.679,34.673 -11.673,46.326c12.325,20.497 57.375,16.067 100.541,-9.887c43.165,-25.954 68.204,-63.667 55.88,-84.164c-3.295,-5.479 -8.927,-9.177 -16.235,-11.157Z" style="fill:url(#_Linear1);"/>        </g>    </g>    <defs>        <linearGradient id="_Linear1" x1="0" y1="0" x2="1" y2="0" gradientUnits="userSpaceOnUse" gradientTransform="matrix(350.79,-271.607,271.607,350.79,62.504,393.25)"><stop offset="0" style="stop-color:rgb(236,164,54);stop-opacity:1"/><stop offset="0.55" style="stop-color:rgb(247,197,67);stop-opacity:1"/><stop offset="1" style="stop-color:rgb(236,164,54);stop-opacity:1"/></linearGradient>    </defs></svg>