<?xml version="1.0" encoding="UTF-8" standalone="no"?><!DOCTYPE svg PUBLIC "-//W3C//DTD SVG 1.1//EN" "http://www.w3.org/Graphics/SVG/1.1/DTD/svg11.dtd"><svg width="100%" height="100%" viewBox="0 0 512 512" version="1.1" xmlns="http://www.w3.org/2000/svg" xmlns:xlink="http://www.w3.org/1999/xlink" xml:space="preserve"  style="fill-rule:evenodd;clip-rule:evenodd;stroke-linejoin:round;stroke-miterlimit:2;"><title>Boober</title><desc>Boober launches the first online p2p money market in the Netherlands, following the example of the very successful British Zopa.com and the American Prosper.com.Boober brings the borrower and the lender together, without the intervention of the bank. Boober is the online peer-2-peer marketplace for borrowing and lending money.</desc>    <g transform="matrix(7.30116,0,0,7.30116,-581.931,-46.0326)">        <g transform="matrix(1.35454,0,0,1.35454,44.8186,-18.1576)">            <circle cx="51.64" cy="43.945" r="25.784" style="fill:rgb(163,195,0);"/>        </g>        <g transform="matrix(1.05856,0,0,1.05856,60.1029,-5.1507)">            <circle cx="51.64" cy="43.945" r="25.784" style="fill:rgb(11,52,144);"/>        </g>        <g transform="matrix(35.3376,0,0,35.3376,94.5611,55.5918)">            <path d="M0.086,-0.805l0,0.805l0.742,-0c0.049,-0 0.19,-0.003 0.244,-0.081c0.04,-0.058 0.04,-0.187 0.02,-0.239c-0.027,-0.066 -0.074,-0.076 -0.13,-0.088c0.05,-0.022 0.085,-0.04 0.105,-0.093c0.016,-0.039 0.014,-0.163 -0.023,-0.216c-0.057,-0.085 -0.202,-0.088 -0.26,-0.088l-0.698,-0Zm0.244,0.326l-0,-0.129l0.373,-0c0.031,-0 0.099,-0.006 0.121,0.033c0.009,0.014 0.012,0.042 -0.002,0.065c-0.022,0.035 -0.078,0.031 -0.113,0.031l-0.379,-0Zm0.426,0.282l-0.426,-0l-0,-0.131l0.399,-0c0.031,-0 0.101,-0.006 0.123,0.035c0.007,0.013 0.007,0.055 -0,0.068c-0.019,0.033 -0.065,0.028 -0.096,0.028Z" style="fill:white;fill-rule:nonzero;"/>        </g>    </g></svg>