<?xml version="1.0" encoding="UTF-8" standalone="no"?><!DOCTYPE svg PUBLIC "-//W3C//DTD SVG 1.1//EN" "http://www.w3.org/Graphics/SVG/1.1/DTD/svg11.dtd"><svg width="100%" height="100%" viewBox="0 0 512 512" version="1.1" xmlns="http://www.w3.org/2000/svg" xmlns:xlink="http://www.w3.org/1999/xlink" xml:space="preserve" style="fill-rule:evenodd;clip-rule:evenodd;stroke-linejoin:round;stroke-miterlimit:2;"><title>CONDA DE</title><desc>We connect entrepreneurs and investors and create the basis for promising business ideas together.We believe that the future lies in the hands of young and innovative entrepreneurs. Therefore we have made it our goal to support these entrepreneurs, to lay the foundations together for the realisation of their dreams.</desc>    <g transform="matrix(3.792,0,0,3.792,-2646.98,-1061.66)">        <g transform="matrix(0.354682,0,0,0.354682,675.823,262.626)">            <rect x="63.394" y="49.649" width="379.195" height="379.195" style="fill:rgb(64,73,103);"/>        </g>        <g transform="matrix(2.66667,0,0,2.66667,791.179,329.432)">            <path d="M0,13.538c-0.351,0 -0.666,0.176 -0.877,0.386c-2.105,1.929 -4.244,2.981 -7.295,2.981c-5.401,0 -9.504,-4.454 -9.504,-10.136l0,-0.07c0,-5.647 4.068,-10.066 9.504,-10.066c3.016,0 5.156,1.122 7.049,2.806c0.211,0.14 0.527,0.316 0.912,0.316c0.737,0 1.404,-0.632 1.404,-1.368c0,-0.491 -0.281,-0.877 -0.562,-1.123c-2.279,-1.893 -4.805,-3.191 -8.768,-3.191c-7.225,0 -12.415,5.752 -12.415,12.696l0,0.07c0,7.05 5.225,12.626 12.31,12.626c4.033,0 6.699,-1.403 9.119,-3.612c0.245,-0.21 0.456,-0.561 0.456,-0.982c0,-0.702 -0.631,-1.333 -1.333,-1.333" style="fill:white;fill-rule:nonzero;"/>        </g>    </g></svg>