<?xml version="1.0" encoding="UTF-8" standalone="no"?><!DOCTYPE svg PUBLIC "-//W3C//DTD SVG 1.1//EN" "http://www.w3.org/Graphics/SVG/1.1/DTD/svg11.dtd"><svg width="100%" height="100%" viewBox="0 0 512 512" version="1.1" xmlns="http://www.w3.org/2000/svg" xmlns:xlink="http://www.w3.org/1999/xlink" xml:space="preserve" style="fill-rule:evenodd;clip-rule:evenodd;stroke-linejoin:round;stroke-miterlimit:2;"><title>LB</title><desc></desc>    <g id="_58b17e9c-a0fb-4352-997c-2a17d700a79e" transform="matrix(4.6383,0,0,4.63477,-40.8511,-40.5575)">        <path d="M91.78,64.84c11.56,1.16 19.22,13.26 19.22,24.26c-0.89,16.9 -14.71,30.18 -35,29.9c-10.705,-0.719 -21.445,-0.719 -32.15,0c0.85,-8.46 1.41,-16.08 1.69,-24.26c-8.74,0 -18.9,1.13 -28.2,2.26c1.721,-24.044 1.607,-48.184 -0.34,-72.21c9.31,-1.41 18.9,-2.82 28.49,-3.38c0,-3.67 -0.56,-8.18 -0.85,-11.85c5.546,-0.49 11.114,-0.676 16.68,-0.56l0,12.13c5.089,0.009 10.173,0.299 15.23,0.87c6.45,0.54 14.1,1.67 19.45,5.9c5.495,4 8.749,10.403 8.74,17.2c-0.11,7.202 -3.683,13.927 -9.59,18.05c-0.688,0.23 -1.357,0.514 -2,0.85c-0.506,0.219 -0.98,0.505 -1.41,0.85m-21.39,-29.9c-3.1,-0.28 -5.92,-0.28 -9,-0.28l0,46.25c5.08,0 10.72,0.28 15.23,0.56l0,14.39c-5.027,-0.902 -10.123,-1.373 -15.23,-1.41l0,11.28c5.171,-0.197 10.349,-0.103 15.51,0.28c1.693,-0.28 3.103,-0.563 4.23,-0.85c7.92,-1.381 13.765,-8.311 13.79,-16.35c0.104,-7.997 -5.656,-14.961 -13.53,-16.36c-3.24,-0.702 -6.557,-0.987 -9.87,-0.85l0,-11.84l1.41,0c5.64,0 11.28,-1.13 14.38,-5.08c1.744,-1.922 2.657,-4.458 2.54,-7.05c-0.048,-1.333 -0.235,-2.657 -0.56,-3.95c-0.432,-1.541 -1.317,-2.917 -2.54,-3.95c-3.71,-3.66 -11.29,-4.51 -16.36,-4.79Zm-24.26,0c-4.51,0.28 -9,0.85 -13,1.13l0,46.81c3.38,-0.56 8.74,-1.13 13,-1.41c0.56,-16.35 0.28,-30.17 0,-46.53Z" style="fill:rgb(25,61,41);fill-rule:nonzero;"/>    </g></svg>