<?xml version="1.0" encoding="UTF-8" standalone="no"?><!DOCTYPE svg PUBLIC "-//W3C//DTD SVG 1.1//EN" "http://www.w3.org/Graphics/SVG/1.1/DTD/svg11.dtd"><svg width="100%" height="100%" viewBox="0 0 512 512" version="1.1" xmlns="http://www.w3.org/2000/svg" xmlns:xlink="http://www.w3.org/1999/xlink" xml:space="preserve" style="fill-rule:evenodd;clip-rule:evenodd;stroke-linejoin:round;stroke-miterlimit:2;"><title>Fast Invest</title><desc>FAST INVEST is a P2P investment platform operating since 2015 in most EU countries.Over 28 000 users who have already joined the FAST INVEST platform can build passive income flow by investing in consumer loans in EUR and PLN originated from Spain, Denmark Poland and United Kingdom.</desc>    <g transform="matrix(1,0,0,1,-29.4109,46.4422)">        <g transform="matrix(4.63594,0,0,4.63594,-11.2869,-87.1193)">            <rect x="35.61" y="90" width="5.57" height="29" style="fill:rgb(65,184,187);fill-rule:nonzero;"/>        </g>        <g transform="matrix(4.63594,0,0,4.63594,-11.2869,-87.1193)">            <rect x="57.6" y="79.83" width="5.57" height="39.17" style="fill:rgb(65,184,187);fill-rule:nonzero;"/>        </g>        <g transform="matrix(4.63594,0,0,4.63594,-11.2869,-87.1193)">            <rect x="77.36" y="67.08" width="5.57" height="51.92" style="fill:rgb(65,184,187);fill-rule:nonzero;"/>        </g>        <g transform="matrix(4.63594,0,0,4.63594,-11.2869,-87.1193)">            <rect x="98.39" y="50.83" width="5.61" height="68.17" style="fill:rgb(65,184,187);fill-rule:nonzero;"/>        </g>        <g transform="matrix(4.63594,0,0,4.63594,-11.2869,-87.1193)">            <path d="M22,85.66c29.22,-14.86 51.82,-33.9 74.13,-58.55c1.12,0.72 2.84,2.15 4.78,3.36c2,-7.83 4.23,-14.42 6.39,-21.48c-6.71,3.67 -11.6,6.53 -19.75,10.64l4.48,4c0.64,0.64 -1,2.48 -1.91,3.66c-15.46,21 -41.69,41.87 -68.63,57c-1.1,0.47 -1.15,2 0.47,1.34" style="fill:rgb(77,84,83);fill-rule:nonzero;"/>        </g>    </g></svg>