<?xml version="1.0" encoding="UTF-8" standalone="no"?><!DOCTYPE svg PUBLIC "-//W3C//DTD SVG 1.1//EN" "http://www.w3.org/Graphics/SVG/1.1/DTD/svg11.dtd"><svg width="100%" height="100%" viewBox="0 0 512 512" version="1.1" xmlns="http://www.w3.org/2000/svg" xmlns:xlink="http://www.w3.org/1999/xlink" xml:space="preserve" style="fill-rule:evenodd;clip-rule:evenodd;stroke-linejoin:round;stroke-miterlimit:2;"><title>Unbolted</title><desc>Unbolted is part of a technological revolution. It is an online-only, peer-to-peer (p2p) lending platform that provides a simple and fast opportunity for borrowers to receive immediate funds against their personal assets, in complete privacy</desc>    <g transform="matrix(17.3086,0,0,17.3086,-7251.08,-681.335)">        <g transform="matrix(1,0,0,1,0,-742.895)">            <path d="M435.525,790.439l0,6.045l-2.314,0l0,-6.045c0,-2.786 2.259,-5.053 5.038,-5.053c2.778,0 5.037,2.267 5.037,5.053l0,8.96l-2.313,0l0,-8.96c0,-1.506 -1.223,-2.733 -2.724,-2.733c-1.502,0 -2.724,1.227 -2.724,2.733" style="fill:rgb(0,165,81);fill-rule:nonzero;"/>        </g>        <g transform="matrix(1,0,0,1,0,-748.746)">            <path d="M429.334,788.168l0,9.246c0,1.507 -1.222,2.734 -2.724,2.734c-1.502,0 -2.725,-1.227 -2.725,-2.734l0,-9.246l-2.313,0l0,9.246c0,2.787 2.259,5.054 5.038,5.054c2.778,0 5.037,-2.267 5.037,-5.054l0,-9.246l-2.313,0Z" style="fill:rgb(0,165,81);fill-rule:nonzero;"/>        </g>        <g transform="matrix(1,0,0,1,0,-717.108)">            <path d="M443.56,783.681l-10.622,0l0,-8.364l10.622,0l0,8.364Zm1.097,-10.678l-12.817,0c-0.667,0 -1.209,0.544 -1.209,1.213l0,10.565c0,0.67 0.542,1.214 1.209,1.214l12.817,0c0.667,0 1.21,-0.544 1.21,-1.214l0,-10.565c0,-0.669 -0.543,-1.213 -1.21,-1.213" style="fill:rgb(0,165,81);fill-rule:nonzero;"/>        </g>    </g></svg>