<?xml version="1.0" encoding="UTF-8" standalone="no"?><!DOCTYPE svg PUBLIC "-//W3C//DTD SVG 1.1//EN" "http://www.w3.org/Graphics/SVG/1.1/DTD/svg11.dtd"><svg width="100%" height="100%" viewBox="0 0 512 512" version="1.1" xmlns="http://www.w3.org/2000/svg" xmlns:xlink="http://www.w3.org/1999/xlink" xml:space="preserve" style="fill-rule:evenodd;clip-rule:evenodd;stroke-linejoin:round;stroke-miterlimit:2;"><title>ECN</title><desc></desc>    <g transform="matrix(4.63587,0,0,4.63587,-28.9035,-44.1396)">        <g transform="matrix(1.10012,0,0,1.10012,-8.95118,-5.66462)">            <rect x="14" y="14" width="100" height="100" style="fill:rgb(37,88,167);"/>        </g>        <g transform="matrix(1.10012,0,0,1.10012,-8.95118,-5.66462)">            <path d="M53,74.49l-12,-8.57l-11.95,8.66l4.45,-14.07l-11.92,-8.69l14.74,-0.12l4.58,-14.02l4.67,13.99l14.75,0.02l-11.86,8.76l4.54,14.04Z" style="fill:rgb(249,221,43);fill-rule:nonzero;"/>        </g>        <g transform="matrix(1.10012,0,0,1.10012,-8.95118,-5.66462)">            <path d="M79.42,46.68l-8.25,-5.89l-8.2,5.95l3.05,-9.66l-8.19,-5.97l10.13,-0.08l3.15,-9.63l3.21,9.6l10.13,0.02l-8.15,6.02l3.12,9.64Z" style="fill:rgb(249,221,43);fill-rule:nonzero;"/>        </g>        <g transform="matrix(1.10012,0,0,1.10012,-8.95118,-5.66462)">            <path d="M103.82,39.55l-4.49,-3.21l-4.46,3.24l1.66,-5.26l-4.46,-3.25l5.51,-0.04l1.72,-5.25l1.74,5.23l5.52,0.01l-4.44,3.28l1.7,5.25Z" style="fill:rgb(249,221,43);fill-rule:nonzero;"/>        </g>        <g transform="matrix(1.10012,0,0,1.10012,-8.95118,-5.66462)">            <path d="M79.69,100.36l-9.69,0c0,3.8 2,6 5.25,6c1.128,0.008 2.244,-0.231 3.27,-0.7l0.11,0.95c-1.199,0.516 -2.495,0.765 -3.8,0.73c-3.24,0 -6,-2.21 -6,-6.9c0,-3.83 2.49,-7.12 6.2,-7.12c3.16,0 4.78,2.71 4.78,5.87c-0.001,0.401 -0.027,0.802 -0.08,1.2m-1.06,-0.92c0,-3 -1.23,-5.17 -3.88,-5.17c-2.65,0 -4.63,2.4 -4.79,5.14l8.67,0.03Z" style="fill:rgb(37,88,167);fill-rule:nonzero;"/>        </g>        <g transform="matrix(1.10012,0,0,1.10012,-8.95118,-5.66462)">            <path d="M89.21,106.34c1.2,-0.04 2.382,-0.297 3.49,-0.76l0.11,1c-1.262,0.543 -2.626,0.809 -4,0.78c-3.52,0 -6.31,-2.68 -6.31,-6.87c0,-4.64 2.9,-7.1 6.73,-7.1c1.289,-0.056 2.571,0.223 3.72,0.81l-0.11,0.95c-1.103,-0.544 -2.321,-0.812 -3.55,-0.78c-3.16,0 -5.56,2 -5.56,5.81c0,3.81 2.18,6.2 5.47,6.2" style="fill:rgb(37,88,167);fill-rule:nonzero;"/>        </g>        <g transform="matrix(1.10012,0,0,1.10012,-8.95118,-5.66462)">            <path d="M97.53,96.31c0.888,-1.828 2.748,-2.995 4.78,-3c2.9,0 4.13,2.15 4.13,4.94l0,8.75l-1.12,0l0,-8.34c0,-2.71 -0.84,-4.36 -3.41,-4.36c-2.462,0.078 -4.445,2.124 -4.445,4.588c0,0.074 0.001,0.148 0.005,0.222l0,7.89l-1.11,0l0,-13.43l1,0l0.08,2.74l0.09,0Z" style="fill:rgb(37,88,167);fill-rule:nonzero;"/>        </g>        <g transform="matrix(1.10012,0,0,1.10012,-8.95118,-5.66462)">            <path d="M79.69,100.36l-9.69,0c0,3.8 2,6 5.25,6c1.128,0.008 2.244,-0.231 3.27,-0.7l0.11,0.95c-1.199,0.516 -2.495,0.765 -3.8,0.73c-3.24,0 -6,-2.21 -6,-6.9c0,-3.83 2.49,-7.12 6.2,-7.12c3.16,0 4.78,2.71 4.78,5.87c-0.001,0.401 -0.027,0.802 -0.08,1.2m-1.06,-0.92c0,-3 -1.23,-5.17 -3.88,-5.17c-2.65,0 -4.63,2.4 -4.79,5.14l8.67,0.03Z" style="fill:white;fill-rule:nonzero;"/>        </g>        <g transform="matrix(1.10012,0,0,1.10012,-8.95118,-5.66462)">            <path d="M89.21,106.34c1.2,-0.04 2.382,-0.297 3.49,-0.76l0.11,1c-1.262,0.543 -2.626,0.809 -4,0.78c-3.52,0 -6.31,-2.68 -6.31,-6.87c0,-4.64 2.9,-7.1 6.73,-7.1c1.289,-0.056 2.571,0.223 3.72,0.81l-0.11,0.95c-1.103,-0.544 -2.321,-0.812 -3.55,-0.78c-3.16,0 -5.56,2 -5.56,5.81c0,3.81 2.18,6.2 5.47,6.2" style="fill:white;fill-rule:nonzero;"/>        </g>        <g transform="matrix(1.10012,0,0,1.10012,-8.95118,-5.66462)">            <path d="M97.53,96.31c0.888,-1.828 2.748,-2.995 4.78,-3c2.9,0 4.13,2.15 4.13,4.94l0,8.75l-1.12,0l0,-8.34c0,-2.71 -0.84,-4.36 -3.41,-4.36c-2.462,0.078 -4.445,2.124 -4.445,4.588c0,0.074 0.001,0.148 0.005,0.222l0,7.89l-1.11,0l0,-13.43l1,0l0.08,2.74l0.09,0Z" style="fill:white;fill-rule:nonzero;"/>        </g>    </g></svg>