<?xml version="1.0" encoding="UTF-8" standalone="no"?><!DOCTYPE svg PUBLIC "-//W3C//DTD SVG 1.1//EN" "http://www.w3.org/Graphics/SVG/1.1/DTD/svg11.dtd"><svg width="100%" height="100%" viewBox="0 0 512 512" version="1.1" xmlns="http://www.w3.org/2000/svg" xmlns:xlink="http://www.w3.org/1999/xlink" xml:space="preserve" style="fill-rule:evenodd;clip-rule:evenodd;stroke-linejoin:round;stroke-miterlimit:2;"><title>Cash-U Finance</title><desc></desc>    <g>        <g transform="matrix(1.03139,0,0,1.03139,-42.0717,-20.4126)">            <path d="M512,81.992c0,-20.416 -16.576,-36.992 -36.992,-36.992l-372.016,0c-20.416,0 -36.992,16.576 -36.992,36.992l0,372.016c0,20.416 16.576,36.992 36.992,36.992l372.016,0c20.416,0 36.992,-16.576 36.992,-36.992l0,-372.016Z" style="fill:white;"/>        </g>        <g transform="matrix(18.3025,0,0,18.3025,-1801.36,-54.4196)">            <path d="M119.484,17.192l-2.117,1.88l-8.798,7.811l-3.236,-3.735l7.135,-6.33l-5.677,-6.467l3.78,-3.313l5.662,6.446l3.115,3.55l0.136,0.158Z" style="fill:rgb(5,198,50);"/>        </g>    </g></svg>