<?xml version="1.0" encoding="UTF-8" standalone="no"?><!DOCTYPE svg PUBLIC "-//W3C//DTD SVG 1.1//EN" "http://www.w3.org/Graphics/SVG/1.1/DTD/svg11.dtd"><svg width="100%" height="100%" viewBox="0 0 512 512" version="1.1" xmlns="http://www.w3.org/2000/svg" xmlns:xlink="http://www.w3.org/1999/xlink" xml:space="preserve" style="fill-rule:evenodd;clip-rule:evenodd;stroke-linejoin:round;stroke-miterlimit:2;"><title>BaFin</title><desc></desc>    <g transform="matrix(8.48614,0,0,8.47834,-3239.79,-431.603)">        <g transform="matrix(1,0,0,-1,-2461.97,128.918)">            <path d="M2869.3,63.023c5.832,-6.25 13.141,-6.039 13.781,-6.039c5.09,0 8.688,1.7 12.188,4.559c-1.168,-0.207 -3.918,-0.316 -5.618,-0.109c-1.91,-0.95 -4.031,-1.481 -6.57,-1.481c-4.351,0 -8.59,1.91 -11.562,5.192c-4.868,4.769 -9.317,7 -15.578,7c-3.489,0 -7.629,-1.059 -12.079,-4.668l0,-3.922c2.649,2.55 6.887,5.621 12.079,5.621c4.558,0 8.378,-1.172 13.359,-6.153Z" style="fill:rgb(173,34,48);"/>        </g>        <g transform="matrix(1,0,0,-1,-2461.97,154.777)">            <path d="M2869.3,75.953c5.832,-6.25 13.141,-6.039 13.781,-6.039c5.09,0 8.688,1.699 12.188,4.558c-1.168,-0.211 -3.918,-0.32 -5.618,-0.109c-1.91,-0.949 -4.031,-1.481 -6.57,-1.481c-4.351,0 -8.59,1.911 -11.562,5.192c-4.758,4.879 -9.219,7 -15.578,7c-3.489,0 -7.629,-1.063 -12.079,-4.672l0,-3.922c2.649,2.551 6.887,5.621 12.079,5.621c4.558,-0.109 8.378,-1.269 13.359,-6.148Z" style="fill:rgb(173,34,48);"/>        </g>        <g transform="matrix(1,0,0,-1,-2461.97,180.855)">            <path d="M2869.3,88.992c5.832,-6.25 13.141,-6.039 13.781,-6.039c5.09,0 8.688,1.699 12.188,4.558c-1.168,-0.207 -3.918,-0.32 -5.618,-0.109c-1.91,-0.949 -4.031,-1.481 -6.57,-1.481c-4.351,0 -8.59,1.911 -11.562,5.192c-4.758,4.879 -9.219,7 -15.578,7c-3.489,0 -7.629,-1.059 -12.079,-4.672l0,-3.918c2.649,2.551 6.887,5.621 12.079,5.621c4.558,0 8.378,-1.172 13.359,-6.152Z" style="fill:rgb(173,34,48);"/>        </g>        <g transform="matrix(1,0,0,-1,-2461.97,206.929)">            <path d="M2889.65,100.441c-1.91,-0.953 -4.031,-1.481 -6.57,-1.481c-4.351,0 -8.59,1.91 -11.562,5.188c-4.758,4.883 -9.219,7 -15.578,7c-3.489,0 -7.629,-1.059 -12.079,-4.668l0,-3.922c2.649,2.551 6.887,5.621 12.079,5.621c4.558,0 8.48,-1.168 13.468,-6.148c5.821,-6.25 13.141,-6.043 13.77,-6.043c5.09,0 8.703,1.703 12.191,4.562c-1.269,-0.211 -4.019,-0.32 -5.719,-0.109Z" style="fill:rgb(173,34,48);"/>        </g>        <g transform="matrix(-0.0728159,-0.997345,0.997345,-0.0728159,541.14,2924.47)">            <path d="M2859.18,58.215c0.181,1.928 0.058,3.615 -0.319,5.71c0.695,2.178 1.674,4.807 0.319,10.234c0.677,-0.483 2.834,-2.452 3.667,-3.562c0.464,-4.961 -1.733,-9.793 -3.667,-12.382Z" style="fill:rgb(237,209,35);"/>        </g>        <g transform="matrix(1,0,0,-1,-2461.97,117.683)">            <path d="M2891.98,54.339c-4.872,0 -8.899,2.328 -11.551,5.09c-4.981,4.977 -9.43,6.988 -15.578,6.988c-4.141,0.11 -8.16,-1.379 -11.981,-4.449c1.801,0.32 4.031,0.32 5.719,0.11c2.019,0.949 4.141,1.48 6.262,1.48c5.3,0 9.109,-1.699 13.461,-6.152c5.718,-6.25 13.136,-6.039 13.57,-6.039c5.398,0 9.219,2.011 11.969,4.128l0,3.934c-2.75,-2.551 -6.25,-5.09 -11.871,-5.09Z" style="fill:rgb(237,209,35);"/>        </g>        <g transform="matrix(1,0,0,-1,-2461.97,150.441)">            <path d="M2891.98,74.168c-5.082,0 -8.692,2.75 -8.899,2.859c-1.801,0 -3.601,0.32 -5.301,0.738c5.188,-5.719 10.918,-6.57 14.2,-6.57c5.519,0 9.121,2.012 11.98,4.242l0,3.809c-2.223,-1.899 -5.93,-5.078 -11.98,-5.078Z" style="fill:rgb(237,209,35);"/>        </g>        <g transform="matrix(-0.0727535,-0.99735,0.99735,-0.0727535,528.062,2938.36)">            <path d="M2859.18,71.149c0.18,1.928 0.057,3.614 -0.316,5.71c0.692,2.178 1.675,4.806 0.316,10.234c0.678,-0.483 2.838,-2.452 3.671,-3.563c0.46,-4.96 -1.842,-9.801 -3.671,-12.381Z" style="fill:rgb(237,209,35);"/>        </g>        <g transform="matrix(-0.0727535,-0.99735,0.99735,-0.0727535,515.061,2952.34)">            <path d="M2859.18,84.184c0.18,1.928 0.057,3.614 -0.32,5.709c0.696,2.179 1.675,4.807 0.32,10.235c0.674,-0.483 2.834,-2.453 3.667,-3.563c0.464,-4.96 -1.734,-9.793 -3.667,-12.381Z" style="fill:rgb(237,209,35);"/>        </g>        <g transform="matrix(1,0,0,-1,-2461.97,176.301)">            <path d="M2891.98,87.094c-5.082,0 -8.692,2.75 -8.899,2.859c-1.801,0 -3.601,0.321 -5.301,0.743c5.188,-5.723 10.918,-6.571 14.2,-6.571c5.519,0 9.121,2.008 11.98,4.238l0,3.813c-2.223,-2.012 -5.93,-5.082 -11.98,-5.082Z" style="fill:rgb(237,209,35);"/>        </g>        <g transform="matrix(1,0,0,-1,-2461.97,202.379)">            <path d="M2891.98,100.137c-5.082,0 -8.692,2.75 -8.899,2.859c-1.801,0 -3.601,0.32 -5.301,0.738c5.188,-5.718 10.918,-6.57 14.2,-6.57c5.519,0 9.121,2.012 11.98,4.242l0,3.809c-2.223,-1.899 -5.93,-5.078 -11.98,-5.078Z" style="fill:rgb(237,209,35);"/>        </g>    </g></svg>