<?xml version="1.0" encoding="UTF-8" standalone="no"?><!DOCTYPE svg PUBLIC "-//W3C//DTD SVG 1.1//EN" "http://www.w3.org/Graphics/SVG/1.1/DTD/svg11.dtd"><svg width="100%" height="100%" viewBox="0 0 512 512" version="1.1" xmlns="http://www.w3.org/2000/svg" xmlns:xlink="http://www.w3.org/1999/xlink" xml:space="preserve" style="fill-rule:evenodd;clip-rule:evenodd;stroke-linejoin:round;stroke-miterlimit:2;"><title>creditworld</title><desc>creditworld is the leading Swiss direct lending specialist with focus on Swiss SMEs. creditworld offers Swiss SMEs a financing alternative and investors a new asset class by providing loans and bonds starting at CHF 100’000.  </desc>    <g transform="matrix(23.7441,0,0,23.7506,-6767.86,-343.558)">        <g transform="matrix(0.0791008,0,0,0.0790762,255.67,-2.31218)">            <path d="M533.7,285.84c-5.02,0.75 -10.35,1.12 -15.9,1.12c-10.43,0 -20.1,-1.42 -27.91,-3.75c-6.52,12.38 -11.62,26.86 -14.85,42.76c9.68,1.65 20.18,2.63 31.21,2.63c11.1,0 21.75,-0.98 31.5,-2.63c-0.82,-14.4 -2.1,-27.83 -4.05,-40.13Zm39.83,128.5c4.35,-9.9 8.55,-20.86 11.33,-32.56c-11.25,3.68 -24.68,6.23 -39.38,7.28c-1.35,14.03 -3.68,27.08 -6.98,38.33c24.98,-1.28 42.46,-7.88 53.48,-19.43c7.96,-11.18 13.66,-24 16.66,-37.81c-4.5,3.46 -10.35,6.61 -17.18,9.31c-4.13,13.05 -10.65,24.9 -17.93,34.88Zm-37.05,19.43c-0.9,2.7 -1.95,5.25 -3,7.65c0.52,-2.48 0.9,-5.1 1.27,-7.73c-19.73,-0.82 -36.83,-5.4 -46.81,-12.08c11.41,3.75 25.58,6.08 40.96,6.08c2.33,0 4.5,-0.07 6.68,-0.15c1.5,-11.85 2.32,-24.68 2.7,-38.03c-2.7,0.07 -5.48,0.15 -8.33,0.15c-21.98,0 -42.16,-3.3 -57.76,-8.78c0.98,9.75 2.7,18.98 5.18,27.61c-4.58,-8.78 -7.95,-18.76 -10.05,-29.48c-5.1,-2.1 -9.53,-4.43 -13.36,-6.98c4.06,1.35 8.33,2.55 12.76,3.6c-1.65,-10.2 -2.1,-21 -1.13,-32.18c0.53,-5.4 1.28,-10.65 2.33,-15.75c-5.25,-1.95 -9.83,-4.28 -13.66,-6.83c4.43,1.5 9.31,2.78 14.41,3.83c3.75,-16.21 10.5,-30.61 19.12,-42.16c-3.9,-1.35 -7.27,-2.93 -9.97,-4.65c3.45,1.12 7.27,2.02 11.4,2.7c2.02,-2.55 4.2,-5.03 6.38,-7.28c-1.5,2.4 -3.08,4.95 -4.51,7.58c5.03,0.75 10.43,1.2 16.06,1.2c9.37,0 18.07,-1.13 25.35,-3.08c-0.82,-4.65 -1.8,-9.15 -2.85,-13.42c1.88,3.9 3.6,8.17 5.18,12.82c11.55,-3.45 19.05,-9 19.05,-15.23c0,-4.05 -3.15,-7.72 -8.48,-10.8c-11.7,-4.57 -24.45,-7.12 -37.73,-7.12c-57.01,0 -103.29,46.2 -103.29,103.22c0,57.01 46.28,103.21 103.29,103.21c23.41,0 45.01,-7.8 62.26,-20.92c-8.63,1.95 -18.6,3.07 -29.1,3.07c-1.5,0 -2.93,0 -4.35,-0.07Zm0.52,-148.53c3.45,11.55 6.15,24.9 7.88,39.31c15.07,-3.38 27.75,-8.63 36.23,-15.08c-3.98,-11.63 -9.15,-22.36 -14.7,-31.66c7.27,7.8 13.95,17.26 19.12,27.83c4.73,-4.72 7.28,-9.97 7.28,-15.45l0,-0.08c-7.8,-11.4 -17.93,-21.15 -29.63,-28.65c1.35,1.8 2.1,3.75 2.1,5.7c0,8.1 -11.63,15 -28.28,18.08Zm53.93,33.76c3.3,9.9 5.18,20.4 5.18,31.43c0,3.45 -0.23,6.9 -0.6,10.27c8.4,-5.85 13.8,-12.6 15.08,-19.88c-0.98,-13.57 -4.58,-26.48 -10.35,-38.03c0,0.23 0.07,0.45 0.07,0.75c0,5.55 -3.38,10.88 -9.38,15.46Zm-118.89,27.6c-0.9,10.35 -0.9,20.48 -0.15,30.16c12.45,2.55 26.33,4.05 40.96,4.05c8.92,0 17.55,-0.6 25.73,-1.58c0.07,-5.47 0.15,-11.1 0.15,-16.73c0,-9.15 -0.23,-18.15 -0.53,-26.85c-5.4,0.52 -11.1,0.75 -16.88,0.75c-17.62,0 -33.9,-2.4 -47.03,-6.45c-0.97,5.4 -1.72,10.95 -2.25,16.65Zm115.82,18.68c0.37,-3.98 0.67,-8.1 0.67,-12.23c0,-10.43 -1.35,-20.48 -3.6,-30.08c-9.67,5.48 -23.25,9.68 -39.08,11.85c0.68,7.88 1.05,15.98 1.05,24.31c0,6.37 -0.22,12.75 -0.6,19.05c16.28,-2.62 30.53,-7.13 41.56,-12.9Z" style="fill:rgb(58,141,210);fill-rule:nonzero;"/>        </g>        <g transform="matrix(0.0791008,0,0,0.0790762,255.67,-2.31218)">            <path d="M507.52,461.82c-62.63,0 -113.34,-50.78 -113.34,-113.34c0,-62.57 50.71,-113.35 113.34,-113.35c62.56,0 113.34,50.78 113.34,113.35c0,62.56 -50.78,113.34 -113.34,113.34Zm0,-249.12c-75.01,0 -135.77,60.76 -135.77,135.78c0,75.01 60.76,135.77 135.77,135.77c74.94,0 135.77,-60.76 135.77,-135.77c0,-75.02 -60.83,-135.78 -135.77,-135.78Z" style="fill:rgb(152,152,152);fill-rule:nonzero;"/>        </g>    </g></svg>