<?xml version="1.0" encoding="UTF-8" standalone="no"?><!DOCTYPE svg PUBLIC "-//W3C//DTD SVG 1.1//EN" "http://www.w3.org/Graphics/SVG/1.1/DTD/svg11.dtd"><svg width="100%" height="100%" viewBox="0 0 512 512" version="1.1" xmlns="http://www.w3.org/2000/svg" xmlns:xlink="http://www.w3.org/1999/xlink" xml:space="preserve" style="fill-rule:evenodd;clip-rule:evenodd;stroke-linejoin:round;stroke-miterlimit:2;"><title>SME Capital</title><desc>SME Capital was founded to support the growing number of SMEs who face difficulty or frustration in accessing capital through traditional methods. We understand the importance of real and trusted relationships in the lending market and have dedicated regional directors based across the UK. Unlike other lenders we cater to businesses with strong cash flows rather than focusing on the asset base.</desc>    <g transform="matrix(22.6929,0,0,22.6929,-1459.98,-17524.9)">        <g transform="matrix(1,0,0,1,84.9336,784.635)">            <path d="M0,-2.18l-4.35,-2.347l0,-7.8l-7.231,3.9l-0.001,-0.001l0,0.002l-4.35,2.347l0,7.654l-2.803,1.476l-0.34,7.096l19.518,0l-0.443,-12.327Z" style="fill:rgb(74,148,197);fill-rule:nonzero;"/>        </g>        <g transform="matrix(1,0,0,1,69.0011,776.208)">            <path d="M0,18.573l11.582,0l0,-14.668l-7.232,-3.905l0,7.709l-4.35,2.292l0,8.572Z" style="fill:rgb(34,103,167);fill-rule:nonzero;"/>        </g>        <g transform="matrix(0,-1,-1,0,84.3015,783.831)">            <path d="M-10.95,3.718l14.668,0l-3.771,7.232l-10.897,0l0,-7.232Z" style="fill:rgb(33,66,131);fill-rule:nonzero;"/>        </g>    </g></svg>