<?xml version="1.0" encoding="UTF-8" standalone="no"?><!DOCTYPE svg PUBLIC "-//W3C//DTD SVG 1.1//EN" "http://www.w3.org/Graphics/SVG/1.1/DTD/svg11.dtd"><svg width="100%" height="100%" viewBox="0 0 512 512" version="1.1" xmlns="http://www.w3.org/2000/svg" xmlns:xlink="http://www.w3.org/1999/xlink" xml:space="preserve" style="fill-rule:evenodd;clip-rule:evenodd;stroke-linejoin:round;stroke-miterlimit:2;"><title>Euro Groshi</title><desc>Established in 2016, Euro Groshi prides itself on its unique business model. The company has implemented European norms and business principles in Ukraine. Euro Groshi takes Ukraine’s political and financial circumstances very seriously, hence their main task is to make lending processes in Ukraine much easier, more convenient and faster. On top of that, they take customer service very seriously and put a strong emphasis on responsible lending. Taking into consideration legal requirements, investors are able to obtain exposure to Euro Groshi loans by investing in loans issued by Shareholder of Euro Groshi which is Lithuanian company, Imarina, LLC.</desc>    <g transform="matrix(1.26124,0,0,1.26124,-30.3587,-43.186)">        <g transform="matrix(1.40898,0,0,1.40898,22.523,132.959)">            <path d="M29.019,0.041l205.587,0c8.175,2.281 16.431,6.194 21.154,13.589c3.862,5.484 5.283,12.288 5.163,18.922l0,69.577c-0.33,3.522 1.942,6.374 3.713,9.186c8.065,12.188 15.8,24.596 24.016,36.634l-261.174,0c-6.784,-1.811 -13.709,-4.813 -18.242,-10.537c-3.928,-4.327 -6.554,-9.676 -7.575,-15.43l0,-94.563c1.341,-5.263 3.012,-10.637 6.344,-15.01c4.924,-6.914 13.009,-10.517 21.014,-12.368Z" style="fill:rgb(86,194,241);fill-rule:nonzero;"/>        </g>        <g transform="matrix(188.852,0,0,188.852,81.6414,304.624)">            <path d="M0.501,0l-0.411,0l0,-0.714l0.411,0l0,0.124l-0.26,0l0,0.157l0.242,0l0,0.124l-0.242,0l0,0.184l0.26,0l0,0.125Z" style="fill:white;fill-rule:nonzero;"/>        </g>        <g transform="matrix(188.852,0,0,188.852,187.409,304.67)">            <path d="M0.361,-0.401l0.283,0l0,0.37c-0.046,0.015 -0.089,0.026 -0.13,0.032c-0.04,0.006 -0.082,0.009 -0.124,0.009c-0.108,0 -0.19,-0.032 -0.247,-0.095c-0.056,-0.064 -0.085,-0.154 -0.085,-0.273c0,-0.115 0.033,-0.205 0.099,-0.269c0.066,-0.065 0.157,-0.097 0.274,-0.097c0.073,0 0.144,0.015 0.212,0.044l-0.05,0.121c-0.052,-0.026 -0.107,-0.039 -0.163,-0.039c-0.065,0 -0.118,0.022 -0.157,0.066c-0.039,0.044 -0.059,0.103 -0.059,0.177c0,0.077 0.016,0.137 0.047,0.178c0.032,0.04 0.078,0.061 0.139,0.061c0.031,0 0.064,-0.003 0.096,-0.01l0,-0.149l-0.135,0l0,-0.126Z" style="fill:white;fill-rule:nonzero;"/>        </g>    </g></svg>