<?xml version="1.0" encoding="UTF-8" standalone="no"?><!DOCTYPE svg PUBLIC "-//W3C//DTD SVG 1.1//EN" "http://www.w3.org/Graphics/SVG/1.1/DTD/svg11.dtd"><svg width="100%" height="100%" viewBox="0 0 512 512" version="1.1" xmlns="http://www.w3.org/2000/svg" xmlns:xlink="http://www.w3.org/1999/xlink" xml:space="preserve" style="fill-rule:evenodd;clip-rule:evenodd;stroke-linejoin:round;stroke-miterlimit:2;"><title>Relendex</title><desc>We arrange short and medium term senior and mezzanine finance from £250,000 to £5 million for commercial property investments, residential investments and owner-occupied commercial properties.</desc>    <g transform="matrix(3.1988,0,0,3.1988,-133.011,-50.449)">        <path d="M99.524,47.746l1.006,-17.365c0,0 22.202,-8.302 39.559,-5.282c17.358,3.019 37.092,12.511 39.136,33.401c2.044,20.891 -0.768,33.04 -11.69,46.54c-10.922,13.5 -33.623,31.154 -37.375,46.193c-3.751,15.04 -3.242,23.13 -3.242,23.13l10.138,-6.431c0,0 -1.225,-10.317 2.288,-17.595c3.582,-7.419 5.837,-15.832 33.464,-33.893c13.36,-8.734 22.382,-21.394 24.162,-25.504c3.518,-8.118 8.162,-27.988 -0.938,-43.257c-9.1,-15.269 -20.191,-26.361 -39.509,-28.891c-15.296,-2.003 -30.966,-1.959 -38.857,-0.49c-11.823,2.201 -22.898,5.602 -22.898,5.602l0.494,19.62c0,0 -10.163,0.773 -13.45,5.955c-3.287,5.182 -1.522,6.206 -1.522,6.206c0,0 -9.543,3.815 -11.856,7.752c-2.312,3.937 -1.558,6.187 -1.558,6.187c0,0 -11.603,4.241 -17.372,11.284c-5.768,7.043 -8.81,9.781 -7.166,13.806c1.643,4.024 1.901,1.945 3.268,4.709c1.367,2.763 4.216,15.437 18.104,16.301c6.259,0.389 6.158,-6.913 9.711,-6.777c3.552,0.135 7.729,-1.28 6.85,-3.071c-1.477,-3.013 -7.082,-4.382 -9.987,-1c-2.905,3.381 -4.752,4.662 -9.351,4.924c-3.741,0.213 -9.707,-4.641 -10.798,-10.922c0,0 1.148,1.039 3.121,-1.976c1.972,-3.015 3.253,-5.481 -0.102,-7.631c-4.066,-2.605 -6.828,3.901 -6.819,4.108l-0.281,-2.827c0,0 7.813,-7.667 11.018,-9.034c3.205,-1.367 12.577,-7.996 12.577,-7.996c0,0 0.588,-7.475 3.312,-7.521c2.672,-1.909 12.017,-8.361 12.017,-8.361c0,0 -0.692,-3.678 0.234,-4.807c1.503,-1.833 14.312,-5.087 14.312,-5.087Z" style="fill:url(#_Linear1);"/>        <path d="M106.426,42.487l-0.076,4.798c0,0 12.08,3.757 15.898,8.153c3.097,3.566 8.65,11.326 -0.246,26.253c-8.896,14.928 -17.79,19.062 -25.263,23.785c-17.611,11.13 -23.778,13.702 -25.757,18.201c-0.878,1.994 -1.941,10.579 6.695,18.791c8.637,8.212 28.012,23.803 27.724,19.437c-0.138,-2.094 -27.691,-22.575 -28.454,-26.62c-1.128,-5.971 -1.006,-11.802 5.621,-15.642c6.628,-3.84 19.702,-12.625 25.216,-16.563c6.124,-4.374 17.738,-18.109 21.548,-28.923c2.839,-8.056 2.259,-17.948 -3.877,-25.183c-4.941,-5.825 -19.029,-6.487 -19.029,-6.487Z" style="fill:url(#_Linear2);"/>        <path d="M79.498,69.8c0,0 14.324,-9.063 15.628,-7.095c1.305,1.968 -5.82,5.485 -9.055,6.225c-3.702,0.847 -6.573,0.87 -6.573,0.87Z" style="fill:url(#_Linear3);"/>    </g>    <defs>        <linearGradient id="_Linear1" x1="0" y1="0" x2="1" y2="0" gradientUnits="userSpaceOnUse" gradientTransform="matrix(9.10945e-15,-148.769,148.769,9.10945e-15,134.436,168.868)"><stop offset="0" style="stop-color:rgb(35,98,168);stop-opacity:1"/><stop offset="1" style="stop-color:rgb(36,128,197);stop-opacity:1"/></linearGradient>        <linearGradient id="_Linear2" x1="0" y1="0" x2="1" y2="0" gradientUnits="userSpaceOnUse" gradientTransform="matrix(9.10945e-15,-148.769,148.769,9.10945e-15,134.436,168.868)"><stop offset="0" style="stop-color:rgb(35,98,168);stop-opacity:1"/><stop offset="1" style="stop-color:rgb(36,128,197);stop-opacity:1"/></linearGradient>        <linearGradient id="_Linear3" x1="0" y1="0" x2="1" y2="0" gradientUnits="userSpaceOnUse" gradientTransform="matrix(9.10945e-15,-148.769,148.769,9.10945e-15,134.436,168.868)"><stop offset="0" style="stop-color:rgb(35,98,168);stop-opacity:1"/><stop offset="1" style="stop-color:rgb(36,128,197);stop-opacity:1"/></linearGradient>    </defs></svg>