<?xml version="1.0" encoding="UTF-8" standalone="no"?><!DOCTYPE svg PUBLIC "-//W3C//DTD SVG 1.1//EN" "http://www.w3.org/Graphics/SVG/1.1/DTD/svg11.dtd"><svg width="100%" height="100%" viewBox="0 0 512 512" version="1.1" xmlns="http://www.w3.org/2000/svg" xmlns:xlink="http://www.w3.org/1999/xlink" xml:space="preserve" style="fill-rule:evenodd;clip-rule:evenodd;stroke-linejoin:round;stroke-miterlimit:2;"><title>FIN FSA</title><desc></desc>    <g transform="matrix(1.16364,0,0,1.16364,-41.9604,-41.8909)">        <path d="M259.705,475.141c-1.992,-1.475 -5.179,-3.985 -6.733,-5.26c-2.351,-2.072 -4.343,-3.745 -4.463,-3.984c-0.192,-1.28 -0.81,-2.46 -1.753,-3.347c-0.775,-0.74 -1.766,-1.214 -2.829,-1.355c-0.683,0.023 -1.324,0.344 -1.753,0.877c-0.738,0.65 -1.162,1.588 -1.162,2.571c0,1.142 0.572,2.212 1.521,2.848c1.188,0.742 2.638,0.945 3.984,0.557c1.158,-0.184 2.34,0.152 3.228,0.917c0.916,0.677 8.207,5.339 9.443,6.176l0.517,0Zm17.014,-6.535c-1.998,-0.895 -4.099,-1.537 -6.256,-1.912c-2.032,-0.359 -3.984,-0.518 -5.777,-0.837c-1.793,-0.319 -4.582,-0.837 -5.937,-1.116l1.514,1.315c1.355,1.196 2.909,2.59 3.706,3.387c2.074,2.107 4.342,4.015 6.773,5.698l15.38,0c-1.275,-1.076 -2.51,-2.152 -3.985,-3.228c-1.672,-1.308 -3.49,-2.418 -5.418,-3.307Zm-81.042,6.535l30.361,0l-1.913,-0.518c-6.694,-1.913 -8.805,-3.228 -15.22,-4.543c-5.265,-0.955 -10.591,-1.54 -15.938,-1.753l-0.717,0c-2.231,0 -6.176,0 -7.969,0.239l3.267,2.072c2.623,1.653 5.337,3.156 8.129,4.503Zm42.194,0l1.195,-0.439l-2.39,-2.311c-1.628,-1.551 -3.158,-3.201 -4.582,-4.94c-0.819,-0.988 -1.465,-2.105 -1.913,-3.307c-0.591,-1.558 -1.283,-3.075 -2.072,-4.542c-3.597,-5.17 -8.379,-9.405 -13.945,-12.352c-3.306,-2.133 -6.739,-4.062 -10.28,-5.777c0.757,1.474 2.311,4.502 2.989,5.936c3.683,5.663 8.075,10.831 13.068,15.38c3.665,3.38 7.671,6.371 11.954,8.925c3.028,1.793 5.418,3.028 5.976,3.427Zm-45.621,-20.321c5.453,2.276 10.774,4.856 15.938,7.73l11.514,5.737l-3.426,-1.792c-3.522,-1.938 -6.928,-4.08 -10.2,-6.415c-7.092,-5.18 -11.276,-8.248 -13.069,-10.001c-0.828,-0.824 -1.55,-1.748 -2.152,-2.749c-0.278,-0.478 -0.478,-0.877 -0.637,-1.156l-1.235,0.478c0.019,0.266 0.019,0.532 0,0.797c-0.004,0.826 -0.224,1.636 -0.638,2.351c-0.555,0.839 -1.326,1.513 -2.231,1.952c-0.37,0.216 -0.756,0.403 -1.155,0.558l0.597,1.514c2.279,-0.446 4.644,-0.094 6.694,0.996Zm-21.954,5.22c1.347,0.149 2.699,-0.254 3.745,-1.116c0.966,-0.663 2.177,-0.867 3.307,-0.558c1.156,0.239 10.559,1.475 11.436,1.634l2.311,0c-1.036,-0.199 -7.531,-1.474 -10.32,-2.311c-2.789,-0.837 -5.538,-1.594 -5.698,-1.713c-0.721,-1.08 -1.789,-1.882 -3.028,-2.271c-0.636,-0.183 -1.291,-0.29 -1.952,-0.319c-1.112,-0.071 -2.124,0.672 -2.391,1.753c-0.23,0.47 -0.35,0.986 -0.35,1.509c0,1.697 1.26,3.151 2.94,3.392Zm30.72,-11.794c-1.153,-1.154 -2.219,-2.393 -3.188,-3.705c-0.837,-1.196 -1.673,-2.351 -2.311,-3.347c-0.577,-0.809 -0.971,-1.733 -1.155,-2.71c-0.039,-0.397 -0.039,-0.797 0,-1.195c0.024,-0.411 0.024,-0.824 0,-1.235c0.119,-0.857 -0.213,-1.717 -0.877,-2.271c-0.705,-0.623 -1.609,-0.976 -2.55,-0.996c-0.984,-0.025 -1.906,0.497 -2.39,1.354c-0.812,1.435 -0.653,3.233 0.398,4.503c0.799,0.593 1.755,0.939 2.749,0.996c0.395,0.055 0.775,0.19 1.116,0.398l0.876,0.717c0.233,0.235 0.447,0.488 0.638,0.757l0.837,1.116c0.637,0.837 1.275,1.674 1.832,2.271c1.664,1.781 3.448,3.445 5.339,4.981l-1.314,-1.634Zm-56.579,-13.666c5.563,3.916 11.826,6.73 18.448,8.287c4.463,0.837 15.26,3.985 17.85,4.901l-0.319,-1.355c-0.597,-0.438 -3.984,-2.988 -7.968,-6.096c-5.055,-3.727 -10.383,-7.07 -15.938,-10.001c-3.411,-1.742 -6.909,-3.311 -10.479,-4.701c-1.655,-0.595 -3.345,-1.087 -5.06,-1.474c-2.43,-0.638 -7.53,-2.63 -9.562,-3.467c0.87,1.572 1.856,3.076 2.948,4.503c2.716,3.76 6.14,6.955 10.08,9.403Zm28.768,-3.068c2.55,3.028 4.98,5.658 5.936,6.933c1.674,2.191 5.459,6.454 6.455,7.57l0.518,-0.558c-0.518,-0.916 -2.47,-4.542 -3.666,-6.893c-0.798,-1.685 -1.464,-3.43 -1.992,-5.219c-0.637,-1.953 -1.235,-3.985 -1.833,-6.017c-0.597,-2.032 -1.075,-3.984 -1.753,-5.897c-0.742,-2.235 -1.745,-4.374 -2.988,-6.375c-1.27,-2.045 -2.797,-3.92 -4.542,-5.578c-1.594,-1.554 -3.228,-2.869 -4.742,-4.303c-1.514,-1.434 -3.745,-3.666 -4.821,-4.741c0.558,2.032 1.594,5.857 1.873,7.57c0.955,4.9 2.578,9.645 4.821,14.105c1.915,3.357 4.172,6.508 6.734,9.403Zm-30.72,-20.121c2.47,1.633 5.419,3.665 7.411,5.259c1.992,1.594 4.263,3.745 6.375,5.817c2.112,2.072 3.984,3.985 5.658,5.738c0.929,1.034 1.987,1.944 3.148,2.709l0.358,-1.076c-0.837,-0.836 -5.1,-4.98 -7.451,-7.172c-2.35,-2.191 -6.414,-6.893 -11.076,-12.351c-3.785,-4.383 -3.985,-6.574 -3.985,-7.331l-0.996,-0.558c-0.071,0.338 -0.164,0.67 -0.279,0.996c-0.33,0.969 -0.829,1.873 -1.474,2.669c-0.658,0.775 -1.613,1.238 -2.629,1.275l0.478,1.275l4.462,2.75Zm92.557,-26.098c0,0.478 0,1.036 -0.239,1.594c-0.185,1.277 -0.723,2.478 -1.554,3.466c-0.991,0.847 -2.143,1.484 -3.387,1.873l-1.792,0.717c-0.296,0.112 -0.577,0.259 -0.837,0.438c8.24,6.506 17.229,12.004 26.775,16.376c9.414,4.98 19.412,8.768 29.763,11.276c19.563,5.259 31.995,4.462 52.674,2.59c10.279,-0.917 23.308,-2.471 25.978,-3.985c0.156,-0.447 0.223,-0.921 0.199,-1.394l0,-1.913c-0.067,-0.302 -0.067,-0.614 0,-0.916c0.086,-0.272 0.086,-0.565 0,-0.837l-1.952,-1.992c-0.385,-0.955 -0.627,-1.962 -0.718,-2.988l0,-1.953l-0.597,0.239l-1.036,0.518c-0.752,0.432 -1.555,0.767 -2.391,0.996c-3.114,0.506 -6.306,-0.192 -8.925,-1.952c-0.209,-0.161 -0.397,-0.348 -0.558,-0.558l-0.438,-0.597c-0.182,-0.318 -0.461,-0.57 -0.797,-0.718c-1.667,-0.571 -3.504,-0.381 -5.02,0.518c-0.757,0.359 -1.474,0.797 -2.192,1.196c-0.742,0.416 -1.551,0.699 -2.39,0.836c-0.222,0.011 -0.433,-0.095 -0.558,-0.278c-0.159,-0.331 -0.279,-0.678 -0.359,-1.036l-0.318,-1.156c-0.12,-0.538 -0.266,-1.07 -0.439,-1.594c-24.119,5.436 -49.346,3.178 -72.117,-6.454c-6.736,-2.588 -13.321,-5.555 -19.722,-8.885c-2.431,-1.275 -4.224,-2.471 -7.053,-3.985l0,0.558Zm132.082,30.082c-0.358,-0.239 -0.518,-0.239 -1.275,-0.319c-0.966,1.615 -1.306,3.53 -0.956,5.379c1.554,1.793 1.235,3.985 3.984,4.463l0.319,-0.957c1.009,-1.962 1.554,-4.129 1.594,-6.335c-1.156,-1.394 -0.837,-2.231 -3.666,-2.231Zm-243.604,-3.347c1.375,0.58 2.927,0.58 4.303,0c1.217,-0.435 2.57,-0.288 3.665,0.399c1.116,0.637 10.798,4.781 11.635,5.219l2.709,1.395l-0.199,-0.638c-0.956,-0.518 -7.571,-3.984 -10.28,-5.618c-2.709,-1.633 -5.379,-3.387 -5.538,-3.546c-0.737,-2.387 -2.819,-4.125 -5.299,-4.423c-0.9,0.022 -1.728,0.504 -2.192,1.275c-0.549,0.702 -0.848,1.567 -0.848,2.458c0,1.442 0.784,2.776 2.044,3.479Zm284.882,-61.479c0.91,-1.264 1.723,-2.596 2.431,-3.984c-0.976,-0.05 -1.952,0.099 -2.869,0.438c-1.236,0.338 -2.505,0.539 -3.785,0.598l-2.112,-0.319c0,0 -1.195,0 -1.354,-1.634c-0.16,-1.633 1.035,-2.43 0.438,-3.785c-0.598,-1.354 -2.55,-1.952 -3.746,-3.626c-1.195,-1.673 -1.952,-1.633 -2.231,-2.988c-0.279,-1.354 0.319,-3.307 -1.514,-5.259c-2.08,-1.857 -4.744,-2.928 -7.53,-3.028c-3.402,0.049 -6.715,-1.093 -9.364,-3.228c-2.86,-2.105 -4.745,-5.285 -5.219,-8.805c-0.536,-2.269 -0.738,-4.605 -0.598,-6.933c1.279,2.043 3.265,3.547 5.578,4.224c3.307,0.597 4.224,0.318 5.419,-0.598c0.984,-0.918 1.806,-1.996 2.431,-3.188c-1.203,0.171 -2.424,0.171 -3.626,0c-1.003,-0.256 -1.898,-0.829 -2.55,-1.633c1.792,0.027 3.557,-0.442 5.1,-1.355c1.544,-2.437 2.625,-5.139 3.187,-7.969c0.563,-2.829 -2.111,0.917 -3.984,1.833c-1.183,0.543 -2.493,0.75 -3.785,0.598l0,-1.235c1.086,-0.441 1.949,-1.304 2.39,-2.391c0.458,-2.087 0.458,-4.248 0,-6.335l-1.195,-0.319c-0.861,1.472 -2.117,2.673 -3.626,3.467c-2.051,1.014 -4.509,0.782 -6.335,-0.598c-1.202,-1.098 -2.131,-2.463 -2.709,-3.985c-0.917,-1.952 -2.71,-5.139 -2.71,-5.139l0.757,-1.196c3.864,2.392 8.503,3.206 12.95,2.271c7.968,-1.354 11.315,-6.494 14.025,-7.968c2.746,-2.31 6.213,-3.592 9.801,-3.626c2.878,-0.395 5.759,0.757 7.57,3.028c1.029,1.153 1.936,2.408 2.71,3.745l1.355,0c0,0 0.757,-6.773 -2.391,-9.642c-1.929,-1.741 -4.121,-3.166 -6.495,-4.223l0.638,-1.076c1.469,-0.144 2.946,0.177 4.223,0.916c1.775,1.326 3.392,2.85 4.821,4.543l1.036,0c0,0 0,-5.459 -1.832,-7.252c-1.491,-1.551 -3.28,-2.785 -5.26,-3.626c-0.91,-0.404 -1.878,-0.659 -2.869,-0.757l-0.318,-0.876c1.791,-0.956 3.946,-0.956 5.737,0c2.354,1.417 4.207,3.535 5.299,6.056l1.196,0c0,0 1.036,-7.252 -3.467,-9.961c-2.329,-1.893 -5.448,-2.52 -8.327,-1.674c-1.279,0.55 -2.452,1.318 -3.466,2.272l-1.236,0c-0.036,-2.725 -0.549,-5.421 -1.514,-7.969c-1.873,-4.023 -4.199,-7.82 -6.932,-11.316c-1.674,-1.952 -6.615,-6.773 -6.615,-6.773l-6.414,2.111c2.406,2.231 4.681,4.599 6.813,7.093c2.591,3.425 4.721,7.176 6.335,11.156c1.673,4.839 1.673,10.102 0,14.941c-1.608,4.501 -4.7,8.324 -8.766,10.838c-2.823,2.09 -6.15,3.396 -9.642,3.785c-2.232,0.47 -4.551,0.304 -6.693,-0.478c-1.097,-0.329 -2.216,-0.582 -3.347,-0.757c-2.07,-2.206 -4.461,-4.087 -7.093,-5.578c-3.546,-1.833 -9.482,-3.427 -13.467,-5.578c-5.383,-2.653 -10.361,-6.061 -14.782,-10.121c-3.626,-3.785 -8.606,-8.765 -10.718,-11.475c-2.111,-2.709 -4.661,-6.614 -4.661,-6.614l-1.036,-0.319c-2.108,1.412 -4.401,2.525 -6.814,3.307c-2.118,0.537 -4.336,0.537 -6.454,0c-1.409,-0.471 -2.749,-1.128 -3.985,-1.952l-1.076,0.438c-0.154,2.358 -0.777,4.66 -1.832,6.774c-1.3,2.189 -3.036,4.088 -5.1,5.578c-1.765,0.911 -3.622,1.632 -5.539,2.152c-1.916,0.519 -0.717,-3.626 -0.876,-4.822l0,-1.514c-1.126,1.683 -2.826,2.901 -4.781,3.427c-1.931,0.928 -4.035,1.444 -6.176,1.514c-0.887,-0.096 -1.782,-0.096 -2.67,0c-0.201,-0.875 -0.282,-1.773 -0.239,-2.67c0.195,-1.266 -0.327,-2.541 -1.354,-3.307c-1.644,-1.07 -2.945,-2.592 -3.746,-4.382c-0.642,-1.841 -0.913,-3.792 -0.797,-5.738l-0.717,-0.916c0,0 -23.587,15.698 -30.241,16.854c-3.907,0.963 -7.946,1.272 -11.953,0.916c-4.692,-1.269 -8.958,-3.774 -12.352,-7.252c-2.112,-2.709 -3.307,-6.932 -4.821,-8.765c-1.514,-1.833 -6.614,-2.112 -6.614,-2.112c0,0 0.757,3.984 -0.917,5.578c-1.32,1.068 -2.963,1.657 -4.661,1.674c-0.412,1.547 -0.005,3.202 1.076,4.382c0.869,1.169 2.18,1.933 3.625,2.112c1.086,0.273 2.222,0.273 3.307,0c1.086,-0.273 3.467,1.953 5.14,3.028c1.674,1.076 6.056,3.467 6.056,3.467l-0.318,1.076c-3.707,-0.355 -7.392,-0.914 -11.037,-1.674c-4.219,-1.398 -8.177,-3.485 -11.714,-6.176c-2.262,-1.747 -5.247,-2.269 -7.969,-1.394c-0.809,0.51 -1.437,1.263 -1.793,2.151c-0.356,0.888 2.112,0.439 2.71,1.475c0.622,1.329 0.79,2.828 0.478,4.263c-0.621,1.462 -1.483,2.809 -2.55,3.984c0.248,1.807 1.304,3.406 2.868,4.343c2.402,0.823 5.01,0.823 7.411,0c1.134,-0.433 2.239,-0.939 3.307,-1.514c2.511,0.089 5.013,0.342 7.491,0.757c3.028,0.598 6.813,0.877 7.969,1.076c1.111,0.038 2.223,-0.069 3.307,-0.319l0.438,0.877c-2.057,0.999 -4.243,1.709 -6.494,2.111c-3.236,-0.002 -6.464,-0.309 -9.643,-0.916c-2.23,-0.393 -4.52,0.287 -6.175,1.833c-0.547,1.142 -0.897,2.367 -1.036,3.626c1.894,-0.094 3.73,0.685 4.98,2.111c0.889,2.143 1.098,4.508 0.598,6.774c0.922,1.23 2.478,1.821 3.984,1.514c2.738,-0.249 5.226,-1.712 6.774,-3.985c1.679,-2.068 3.86,-3.673 6.335,-4.661c3.147,-1.514 9.801,-4.821 9.801,-4.821l0.757,1.075c-1.833,0.983 -3.249,2.597 -3.984,4.543c-0.303,1.882 -0.082,3.812 0.637,5.578c0.932,-0.267 1.904,-0.361 2.869,-0.279c2.271,0 3.347,0 3.985,1.355c0.366,0.729 0.779,1.434 1.235,2.111c0.456,0.677 3.745,0 4.821,-2.39c0.881,-2.112 0.719,-4.52 -0.438,-6.495c-0.438,-0.184 -0.842,-0.44 -1.196,-0.757c-0.248,-1.501 0.049,-3.042 0.837,-4.343c1.129,-1.375 2.903,-2.057 4.662,-1.793c0.233,1.753 0.92,3.415 1.992,4.821c1.733,1.47 3.798,2.496 6.016,2.989c-0.502,-0.91 -0.903,-1.872 -1.195,-2.869c-0.01,-1.163 0.096,-2.325 0.319,-3.467c0.222,-1.141 2.231,4.303 5.06,5.1c1.567,0.447 3.213,0.542 4.821,0.279l4.98,0l0,-1.076c-0.61,-0.952 -1.118,-1.967 -1.514,-3.028c-0.491,-1.599 -0.601,-3.291 -0.318,-4.94l0.876,-0.279c0.473,1.428 1.295,2.715 2.391,3.745c2.568,1.891 5.752,2.758 8.925,2.431l0,-1.514c-0.989,-0.813 -1.768,-1.851 -2.271,-3.029c-0.152,-1.696 -0.152,-3.403 0,-5.1c1.342,2.221 3.15,4.125 5.299,5.579c3.443,0.984 6.984,1.585 10.559,1.793l0.438,-0.758c0,0 -2.391,-2.868 -1.514,-5.1c0.78,-1.632 1.909,-3.074 3.307,-4.223c1.397,-1.149 7.53,4.383 10.24,6.495c2.274,2.033 5.009,3.482 7.968,4.223c3.746,1.076 7.531,0.757 12.671,2.43c5.93,1.485 11.483,4.2 16.296,7.969c4.542,4.224 10.439,9.364 11.475,15.659c1.036,6.295 0.597,14.304 1.514,18.368c0.916,4.064 3.984,13.587 3.984,13.587l0,1.514c-2.069,1.584 -3.895,3.463 -5.419,5.578c-1.673,2.709 -1.952,4.542 -3.745,6.056c-1.367,1.026 -2.886,1.833 -4.502,2.391l0.597,1.673c1.532,0.242 3.099,0.133 4.583,-0.319c1.754,-1.026 3.296,-2.379 4.542,-3.984c-0.587,1.264 -0.989,2.606 -1.196,3.984c-0.265,1.594 -0.412,3.206 -0.438,4.821c-0.136,1.729 -0.389,3.446 -0.757,5.14l1.833,1.036c0,0 1.673,-3.466 2.869,-5.737c0.714,-1.48 1.095,-3.099 1.115,-4.742c0.021,-1.643 0.757,1.953 1.235,3.467c0.271,0.94 0.471,1.899 0.598,2.868l0,2.55c0,0 1.195,1.514 2.271,-0.916c1.295,-2.185 1.88,-4.72 1.674,-7.252c-0.319,-3.307 -0.917,-4.542 -0.319,-5.578c0.464,-0.762 1.012,-1.471 1.633,-2.111l1.355,0c2.623,1.939 5.525,3.47 8.606,4.542c5.419,1.952 10.838,2.231 13.826,4.662c4.975,3.633 7.215,9.987 5.618,15.937c-1.793,9.045 -3.187,11.953 -6.534,13.706c-3.079,1.635 -6.571,2.328 -10.041,1.992c-0.816,-0.092 -1.627,-0.225 -2.43,-0.398c-0.828,-0.35 -1.627,-0.763 -2.391,-1.235c-2.709,-1.514 -2.709,-2.431 -5.857,-3.028c-3.148,-0.598 -6.654,2.709 -6.654,2.709c1.522,1.004 2.769,2.374 3.626,3.984c0.432,1.448 0.333,3.003 -0.279,4.383c-0.319,0.598 -1.395,2.112 -1.395,2.112l0.638,1.076c1.593,0.516 3.282,0.666 4.941,0.438c3.187,-0.279 2.43,-1.195 6.813,-2.59c3.035,-0.756 6.107,-1.355 9.204,-1.793c1.394,-0.438 3.347,-1.354 3.347,-1.354l0.557,1.195c0,0 -7.211,5.14 -9.602,6.335c-1.857,1.166 -3.908,1.989 -6.056,2.43c-2.33,-0.281 -4.644,-0.68 -6.933,-1.195c-1.954,0.05 -3.889,0.399 -5.737,1.036l0,1.355c0,0 2.709,1.036 3.028,3.307c-0.088,1.836 -0.79,3.59 -1.993,4.98l0,1.953c1.206,1.31 2.922,2.037 4.702,1.992c2.514,-0.175 4.899,-1.185 6.773,-2.869c1.41,-1.768 3.091,-3.301 4.981,-4.542c1.992,-0.917 5.897,-2.391 7.092,-2.988c1.195,-0.598 5.578,-3.586 5.578,-3.586l0.717,1.195c0,0 -2.231,3.745 -3.984,5.857c-1.753,2.112 -3.984,2.112 -6.614,4.502c-2.63,2.391 -3.626,3.985 -3.466,5.419c0.189,0.965 0.661,1.853 1.354,2.55c1.555,-1.182 3.643,-1.413 5.419,-0.598c1.77,1.206 3.012,3.047 3.466,5.14l1.953,1.196c0,0 3.984,-1.674 4.542,-5.1c0.558,-3.427 -2.112,-4.981 -1.673,-7.252c0.773,-2.807 1.94,-5.49 3.466,-7.969c1.514,-2.55 4.383,-7.968 4.383,-7.968l0.916,0.916c0,0 -2.231,3.984 -0.597,6.056c1.633,2.072 6.175,1.953 6.175,1.953l0.439,-1.196c0,0 -1.196,-1.474 1.036,-3.745c1.573,-1.365 3.695,-1.924 5.737,-1.514l1.395,0.438c0,0 2.55,-3.626 0.916,-6.494c-1.682,-2.047 -4.018,-3.454 -6.614,-3.985l-0.996,-1.115c-0.003,-1.765 0.701,-3.458 1.952,-4.702c1.952,-1.355 3.985,-1.673 4.981,-0.757c0.776,0.746 1.434,1.606 1.952,2.55l1.634,0c0.168,-0.895 0.168,-1.814 0,-2.709c-0.465,-1.243 -1.011,-2.455 -1.634,-3.626l3.984,3.745l1.196,0.319c0.111,-2.298 -0.214,-4.596 -0.957,-6.773c-1.337,-1.898 -2.903,-3.625 -4.661,-5.14l0,-1.196c1.104,-0.258 2.261,-0.16 3.307,0.279c1.12,1.054 2.135,2.215 3.028,3.467l1.474,0.597c0.812,-2.182 0.924,-4.564 0.319,-6.813c-0.829,-2.341 -2.194,-4.456 -3.985,-6.176c0.921,-0.485 1.713,-1.181 2.311,-2.032Zm-262.809,42.952c-0.031,0.304 -0.031,0.612 0,0.916l0,1.036c0.257,0.801 0.814,1.472 1.554,1.873l1.116,0.717c0.298,0.168 0.567,0.383 0.796,0.637c0.568,0.747 1.037,1.564 1.395,2.431c0.558,1.155 1.155,2.63 1.793,3.984c0.996,2.311 2.829,6.774 3.506,7.969c0.008,0.191 0.167,0.345 0.358,0.345c0.197,0 0.359,-0.162 0.359,-0.359c0,-0.082 -0.028,-0.161 -0.079,-0.225c-0.279,-0.837 -1.315,-3.984 -1.793,-5.259c-0.478,-1.275 -1.475,-5.22 -2.032,-6.614c-0.538,-1.405 -0.86,-2.883 -0.957,-4.383c-0.057,-0.209 -0.057,-0.429 0,-0.638c0.227,-0.216 0.499,-0.38 0.797,-0.478c0.254,-0.358 0.368,-0.798 0.319,-1.235c-0.307,-1.407 -1.079,-2.671 -2.191,-3.586c-0.305,-0.211 -0.666,-0.322 -1.036,-0.319c-1.148,0.072 -2.228,0.57 -3.028,1.395c-0.549,0.434 -0.871,1.094 -0.877,1.793Zm94.828,-32.473c0.233,0.179 0.487,0.326 0.757,0.438l0.558,0.239c0.309,0.1 0.594,0.263 0.837,0.479c0.198,0.257 0.335,0.557 0.398,0.876l0.199,0.638c0.087,0.221 0.194,0.435 0.319,0.637c0.819,1.46 0.965,3.206 0.399,4.781c-1.125,3.101 -3.05,5.851 -5.579,7.969c-1.434,1.116 -2.789,2.152 -3.984,3.188c-1.046,0.856 -1.959,1.863 -2.709,2.988c-0.203,0.352 -0.363,0.726 -0.478,1.116c-0.143,0.404 -0.263,0.817 -0.359,1.235c-0.21,0.863 -0.589,1.675 -1.116,2.39l-1.315,0.399l-0.836,0.199l-0.518,0c-4.1,2.84 -7.606,6.454 -10.32,10.638c-0.518,0.598 -1.036,1.514 -0.996,2.311c-0.528,0.757 -0.647,1.728 -0.319,2.59c0.154,0.269 0.392,0.479 0.678,0.598c0.383,0.041 0.771,0.042 1.155,0l1.435,0c0.504,0.069 0.982,0.261 1.394,0.558c0.757,0.88 0.944,2.123 0.478,3.187c-0.045,0.571 -0.165,1.134 -0.358,1.673c-0.797,0.479 -2.032,1.275 -2.351,1.515l-1.156,0c-1.413,0.02 -2.801,-0.382 -3.984,-1.156c-0.877,-0.598 -1.554,-1.355 -2.59,-2.072c-0.358,-0.637 -0.358,-0.996 -0.358,-1.354l-0.319,-1.116c-0.223,-0.862 -0.223,-1.767 0,-2.63c1.006,-3.894 3.225,-7.37 6.335,-9.921c1.195,-1.275 2.67,-2.51 3.984,-3.785c1.317,-1.179 2.482,-2.517 3.467,-3.984c0.05,-0.196 0.05,-0.402 0,-0.598l0.438,-1.753l0.319,-1.156c0.68,-0.727 1.549,-1.251 2.51,-1.514c0.877,-0.279 1.634,-0.518 1.912,-0.518c0.501,-0.139 0.983,-0.34 1.435,-0.597c1.802,-1.282 3.389,-2.842 4.701,-4.622c0.852,-1.258 1.585,-2.592 2.192,-3.985c0.299,-0.599 0.539,-1.226 0.717,-1.872c0.035,-0.238 0.035,-0.48 0,-0.717c-0.12,-0.479 -0.199,-0.757 -0.398,-0.757c-0.302,-0.066 -0.615,-0.066 -0.917,0l-0.478,0c-0.603,-0.014 -1.171,-0.291 -1.554,-0.758c-0.209,-1.39 0.103,-2.81 0.877,-3.984l1.235,-1.514l0.637,-0.279l3.626,0Zm157.702,33.668c7.41,0.001 3.625,9.324 0.557,10.001c-0.031,-2.327 -1.08,-4.527 -2.868,-6.017c0.199,-2.39 1.035,-2.669 1.912,-3.984l0.399,0Zm-282.413,-6.534l6.455,5.219c1.538,1.236 3.148,2.38 4.821,3.427c1.88,1.206 3.677,2.538 5.379,3.984c1.235,1.076 2.191,1.953 2.51,2.271l0.677,0c-1.155,-1.554 -5.339,-7.052 -8.765,-11.953c-2.032,-2.869 -3.228,-4.901 -4.463,-6.853c-1.364,-2.18 -2.868,-4.27 -4.502,-6.255c-3.454,-4.025 -7.196,-7.794 -11.196,-11.276c-1.395,-1.235 -5.379,-4.224 -7.172,-5.499c1.382,4.48 3.1,8.848 5.14,13.069c2.442,5.506 6.273,10.285 11.116,13.866Zm20.042,5.14c0.757,2.55 2.669,7.729 3.187,9.124l0.638,-0.279c0,-1.036 -0.678,-4.981 -0.917,-7.531c-0.129,-1.804 -0.129,-3.614 0,-5.418c0,-2.032 0.279,-3.985 0.438,-6.096c0.16,-2.112 0.359,-3.985 0.439,-5.977c0.094,-2.269 -0.067,-4.541 -0.478,-6.773c-0.426,-2.341 -1.149,-4.617 -2.152,-6.774c-0.916,-1.952 -1.912,-3.745 -2.789,-5.538c-0.877,-1.793 -2.112,-4.542 -2.67,-5.937c-0.199,2.072 -0.597,5.857 -0.916,7.451c-0.842,4.774 -1.016,9.641 -0.518,14.463c0.557,3.686 1.491,7.304 2.789,10.798c1.195,3.825 2.47,7.012 2.949,8.487Zm206.071,1.872c2.75,0 2.232,0.917 3.427,2.51c-0.428,1.268 -1.09,2.444 -1.952,3.467c-2.568,-0.013 -5.126,0.308 -7.61,0.956c0.398,-4.502 3.147,-4.941 5.737,-6.933l0.398,0Zm-41.756,-1.793c1.793,1.275 5.817,-0.876 6.335,-2.231c0.423,-0.542 0.543,-1.263 0.319,-1.912c0,-2.033 -0.438,-4.861 -2.749,-4.941c-1.791,0.877 -3.812,1.169 -5.777,0.837c-1.233,1.681 -2.039,3.636 -2.351,5.697c1.354,1.235 1.713,2.431 4.223,2.55Zm-190.732,-39.326l-0.398,1.594c0.797,0 2.55,0.996 5.06,4.582c3.218,4.925 6.145,10.033 8.766,15.3l8.526,15.539l0,-0.637c-3.412,-5.806 -6.369,-11.867 -8.845,-18.129c-3.028,-8.288 -4.742,-13.188 -5.26,-15.619c-0.217,-1.155 -0.298,-2.332 -0.239,-3.506l0,-1.315l-1.195,-0.239c-0.105,0.241 -0.239,0.469 -0.398,0.677c-0.465,0.679 -1.096,1.228 -1.833,1.594c-0.945,0.388 -1.975,0.525 -2.989,0.399l-1.195,-0.24Zm180.373,23.15c4.781,0 2.988,3.227 5.14,5.498c-0.558,3.148 -2.989,4.781 -6.973,4.781l-2.391,-1.753c-0.637,-1.076 -0.557,-2.231 -1.275,-3.147c0.067,-1.615 0.623,-3.172 1.594,-4.463c1.251,-0.171 2.48,-0.478 3.666,-0.916l0.239,0Zm57.176,4.622c-0.638,-1.036 -1.275,-3.666 -2.55,-3.666c-0.197,-0.046 -0.401,-0.046 -0.598,0c-3.417,1.025 -5.585,4.44 -5.06,7.969c1.793,0 2.829,-1.156 3.984,-1.594c2.869,-0.757 3.825,0.558 4.224,-2.709Zm-135.15,-3.347c0.757,0.996 1.952,2.829 3.267,4.502c0.893,1.266 2.048,2.326 3.387,3.108c0.179,-0.363 0.339,-0.735 0.478,-1.116c0,-0.478 0.318,-0.996 0.438,-1.514c0.366,-1.4 0.93,-2.742 1.673,-3.984c0.948,-0.726 2.054,-1.218 3.228,-1.435l1.394,-0.358c0.324,-0.087 0.633,-0.221 0.917,-0.399c-0.828,-0.541 -1.626,-1.126 -2.391,-1.753c-0.877,-0.876 -1.833,-1.833 -2.829,-2.789c-1.353,-1.643 -3.131,-2.883 -5.14,-3.586c-0.438,0.518 -0.996,1.156 -1.593,1.753c-0.622,0.704 -1.382,1.274 -2.232,1.674c-0.194,0.122 -0.443,0.122 -0.637,0c-0.478,-0.757 -1.156,-1.514 -1.714,-2.351c-0.669,-0.859 -1.182,-1.831 -1.514,-2.869c-0.192,-0.862 -0.273,-1.746 -0.239,-2.629l0,-1.953c-0.493,-0.305 -0.96,-0.651 -1.394,-1.036l-1.474,-1.155c-0.87,-0.722 -1.915,-1.203 -3.029,-1.395c-0.373,0.611 -0.786,1.196 -1.235,1.753c-0.438,0.558 -0.916,1.076 -1.315,1.674c-0.895,1.357 -1.354,2.956 -1.314,4.582c5.081,2.906 9.58,6.73 13.268,11.276Zm100.366,-2.63c0.818,-0.068 1.639,0.069 2.391,0.398c0.956,0.359 0.956,0.279 1.275,1.275c1.912,2.909 -0.957,6.296 -1.913,7.85c-3.426,0.04 -4.502,-1.395 -7.012,-2.67c0.916,-1.753 1.593,-4.9 2.589,-6.853l2.67,0Zm-14.264,-1.195c-2.271,3.506 -1.235,6.893 3.984,6.654c0.319,-0.279 0,0 0.638,-0.319c1.355,-2.55 1.833,-2.749 0.956,-6.056c-0.964,-0.58 -2.063,-0.896 -3.187,-0.917c-0.764,0.321 -1.569,0.536 -2.391,0.638Zm-102.598,-12.392l0.2,-0.478c-0.574,-0.098 -1.135,-0.258 -1.674,-0.478c-0.526,-0.206 -1.033,-0.46 -1.514,-0.757c-0.805,-0.526 -1.748,-0.803 -2.709,-0.797l-0.638,1.076c-0.298,0.535 -0.645,1.042 -1.036,1.514c-0.695,1.039 -1.767,1.768 -2.988,2.032c-0.877,0.379 -1.872,0.379 -2.749,0c-0.717,0 -1.395,-0.478 -1.953,-0.677c-0.982,1.819 -1.617,3.805 -1.872,5.857c-0.359,2.59 0,4.661 1.593,5.458c0.198,0.038 0.401,0.038 0.598,0c1.434,-6.215 6.694,-8.765 13.945,-8.566c0.017,-0.199 0.017,-0.399 0,-0.598c-0.439,-0.849 -0.439,-1.86 0,-2.709c0.245,-0.311 0.511,-0.604 0.797,-0.877Zm100.008,1.753c0.797,0.797 1.514,0.997 1.913,2.232c0.763,1.475 0.92,3.192 0.438,4.781c-1.239,1.125 -2.542,2.176 -3.905,3.148c-0.965,0.211 -1.973,0.099 -2.869,-0.319c-2.271,-0.12 -2.35,-1.116 -3.506,-2.231c0,-5.379 3.028,-4.901 5.379,-7.611l2.55,0Zm13.188,-1.235c1.196,1.475 2.67,2.75 3.985,3.985c0.15,0.989 -0.078,1.999 -0.638,2.829c-0.597,1.713 -2.271,2.47 -3.426,3.546c-2.112,-1.116 -1.315,-1.594 -2.869,-2.431c-1.235,-0.558 -3.148,-0.876 -3.984,-1.315c-0.439,-2.27 1.035,-4.501 1.713,-6.614l5.219,0Zm-58.769,0.478c-0.592,0.332 -1.241,0.548 -1.913,0.638l-0.637,3.984c-0.55,1.009 -0.977,2.079 -1.275,3.188c0.059,0.001 0.119,0.002 0.178,0.002c3.388,0 6.176,-2.788 6.176,-6.175c0,-0.161 -0.007,-0.321 -0.019,-0.481c-0.481,-0.396 -1.018,-0.719 -1.594,-0.956c-0.318,-0.12 -0.239,0.119 -0.916,-0.2Zm-33.588,-4.223c0.488,0.448 1.038,0.824 1.633,1.116c0.415,1.037 0.215,2.224 -0.518,3.068c-0.572,0.889 -1.388,1.594 -2.351,2.032l-1.514,0.916c-0.428,0.294 -0.817,0.642 -1.155,1.036c-0.121,-0.191 -0.228,-0.391 -0.319,-0.598c-0.133,-0.243 -0.294,-0.47 -0.478,-0.677c-0.108,-2.674 1.08,-5.243 3.188,-6.893l1.514,0Zm108.215,-76.54c3.148,3.268 7.411,5.379 9.085,10.24c0.796,2.112 0.478,6.773 1.553,8.566c0.279,10.001 -1.992,4.423 -6.813,7.969l-0.956,0.319c1.036,1.952 3.905,1.833 5.379,2.829c1.474,0.996 1.514,2.948 2.55,4.422c-0.04,0.718 -0.04,0.877 -0.319,1.275c-1.076,0.399 -2.869,-1.275 -4.741,-1.275c0.279,1.793 1.275,1.953 1.275,3.985c-1.833,-0.359 -2.391,-1.395 -3.785,-1.913c-1.958,-0.54 -3.99,-0.755 -6.017,-0.637c0.558,2.032 2.032,2.789 2.231,5.06c-4.579,0.216 -8.714,-2.848 -9.841,-7.291c-0.638,-0.319 -0.319,-0.08 -0.638,-0.319c-4.86,0.438 -12.989,9.204 -11.953,15.499c0.439,2.789 3.387,5.538 2.192,9.523c-0.518,1.793 -2.152,2.151 -3.467,3.147c-2.669,1.913 -2.111,4.503 -6.654,5.419c-0.868,0.076 -1.743,0.008 -2.589,-0.199c-1.143,-0.24 -2.324,-0.24 -3.467,0c-0.996,0.319 -2.948,1.434 -3.984,0.956c-0.576,0.076 -1.125,0.295 -1.594,0.638c-0.637,3.227 1.076,7.769 0.319,10.16c-0.319,0.916 -1.036,1.235 -1.275,2.51l-1.275,0c0.142,-0.955 0.032,-1.93 -0.319,-2.829c-0.159,-2.43 -1.514,-2.909 -2.55,-4.423l-0.956,0c0.801,2.35 1.231,4.81 1.275,7.292c-0.499,0.585 -0.927,1.227 -1.275,1.912c-1.713,-0.518 -1.713,-2.669 -2.829,-3.466c-1.116,-0.797 -2.231,-0.638 -3.506,-1.275c-1.389,-0.855 -2.72,-1.8 -3.985,-2.829l-0.916,0.956c-0.319,1.275 0.358,3.586 -0.319,4.742l0,0.637c-2.665,-0.989 -4.443,-3.545 -4.443,-6.388c0,-0.84 0.156,-1.673 0.459,-2.457l-0.956,-0.319c-0.368,0.372 -0.784,0.693 -1.236,0.956c-0.371,2.989 -0.903,5.955 -1.593,8.885l-0.957,0.319c-1.394,0.478 -2.789,-2.869 -4.462,-3.506c-1.188,-0.549 -2.558,-0.549 -3.745,0c-0.716,0.352 -1.526,0.464 -2.311,0.319l-0.638,0c-0.36,-1.662 -0.467,-3.368 -0.319,-5.06c-0.005,-0.651 -0.112,-1.296 -0.318,-1.913c-4.707,0.681 -9.295,2.022 -13.627,3.984c-1.912,1.315 -2.749,4.184 -4.462,5.698l-2.511,0.956c-1.074,0.042 -2.149,-0.079 -3.187,-0.358c0.358,-1.674 1.753,-3.666 0.358,-5.379c-0.956,-2.789 -2.709,-2.789 -4.462,-2.789c-0.961,0.099 -1.933,-0.038 -2.829,-0.399c-0.679,-0.692 -0.679,-1.817 0,-2.51c1.434,-4.024 5.857,-3.665 10.439,-3.347c3.117,0.624 6.353,0.247 9.244,-1.075l0.637,0l0,-1.275c-3.331,-0.499 -6.621,-1.244 -9.841,-2.232c-4.127,-0.361 -8.284,-0.146 -12.352,0.638c-1.024,0.349 -2.114,0.458 -3.187,0.319c-2.068,-0.87 -3.99,-2.052 -5.698,-3.507l0,-0.677c4.662,-1.634 3.546,-1.753 6.335,-4.622c-0.119,-3.187 -1.394,-3.825 -2.51,-5.737c0.45,-0.251 0.865,-0.559 1.235,-0.917c7.77,0 7.889,3.307 12.232,6.295c4.888,2.811 10.324,4.537 15.938,5.061c-0.398,-1.594 -1.514,-1.196 -2.51,-2.192c-1.596,-1.98 -3.399,-3.783 -5.379,-5.379c-1.275,-0.956 -3.148,-0.438 -4.742,-0.956c-1.895,-0.734 -3.699,-1.684 -5.378,-2.829c-0.833,-1.634 -1.166,-3.477 -0.957,-5.299c4.582,0.359 7.212,0 8.248,-3.984c0.359,-1.395 -0.558,-2.55 -0.319,-3.188l0,-0.637c9.204,0.836 6.973,12.51 12.671,16.774c9.276,6.828 21.696,7.744 31.875,2.351c1.832,-1.036 4.064,-1.953 6.056,-3.307c1.992,-1.355 2.39,-4.343 3.785,-6.336c0.677,-0.876 1.753,-1.394 2.231,-2.51c1.793,-2.869 -1.115,-8.447 0.319,-11.076l0,-2.869c-1.235,0.717 -1.514,1.793 -2.55,2.55c-3.115,2.218 -7.069,2.921 -10.758,1.912l0,-0.637c5.008,-1.792 8.996,-5.678 10.917,-10.638c-2.07,1.207 -4.066,2.537 -5.976,3.984l-2.231,0l3.984,-3.984c0.973,-1.914 2.148,-3.717 3.506,-5.379c1.275,-0.957 2.749,-1.395 3.985,-2.51c-0.583,-1.412 -1.333,-2.75 -2.232,-3.985c-0.273,-2.058 0.599,-4.108 2.271,-5.339l0.638,0c1.076,5.538 1.873,5.22 5.06,8.248c4.198,-0.288 8.183,-1.972 11.316,-4.781c1.736,-0.874 3.534,-1.62 5.379,-2.232c6.095,-2.709 10.438,-6.335 19.164,-6.335l0.558,0Zm-197.147,60.762c0.34,-0.273 0.578,-0.652 0.678,-1.076c0.14,-1.392 -0.182,-2.793 -0.917,-3.984c-0.509,-0.577 -1.266,-0.874 -2.032,-0.797c-0.761,-0.004 -1.512,0.173 -2.191,0.518c-0.566,0.27 -0.997,0.76 -1.195,1.354c-0.091,0.3 -0.157,0.607 -0.2,0.917l0,1.036c-0.003,0.84 0.31,1.651 0.877,2.271l0.797,0.996c0.215,0.267 0.414,0.546 0.597,0.837c0.277,0.893 0.451,1.816 0.518,2.749c0,1.315 0.279,2.829 0.399,4.343c0,2.47 0.478,7.331 0.637,8.805c-0.013,0.038 -0.02,0.078 -0.02,0.118c0,0.197 0.162,0.359 0.359,0.359c0.197,0 0.359,-0.162 0.359,-0.359c0,-0.04 -0.007,-0.08 -0.02,-0.118l0,-5.498c0,-1.514 0.318,-5.419 0.279,-6.933c-0.036,-1.517 0.139,-3.032 0.518,-4.502c-0.12,-0.279 -0.04,-0.638 0.557,-1.036Zm62.236,8.566l-1.115,-0.199c-0.426,0.217 -0.883,0.365 -1.355,0.438l-0.717,0c-0.224,0.045 -0.44,0.126 -0.638,0.239c-1.363,1.11 -2.511,2.461 -3.386,3.985c-0.548,0.772 -0.916,1.657 -1.076,2.59c-0.14,0.586 0.141,1.198 0.677,1.474c0.464,0.203 0.968,0.298 1.474,0.279l1.753,0l0.638,-1.275c0.261,-0.515 0.582,-0.996 0.956,-1.435c1.001,-1.126 2.485,-1.704 3.985,-1.554c2.828,2.59 9.443,2.71 10.2,-1.235c-0.997,-0.597 -2.112,-1.195 -3.228,-1.753c-1.277,-0.629 -2.611,-1.136 -3.984,-1.514c-0.877,-0.183 -1.775,-0.25 -2.67,-0.199l-1.514,0.159Zm-96.74,-1.315l1.075,0c0.423,0.033 0.84,0.127 1.236,0.279c2.413,1.28 4.628,2.904 6.574,4.821c0.876,0.837 2.43,2.431 3.108,3.148c0.059,0.083 0.156,0.133 0.259,0.133c0.102,0 0.199,-0.05 0.259,-0.133l0,-0.637l-1.873,-1.833c-1.025,-1.039 -1.996,-2.129 -2.909,-3.267l-1.593,-2.072c-0.37,-0.458 -0.642,-0.987 -0.797,-1.554c0,-0.478 -0.239,-1.435 -0.518,-2.391c-0.223,-0.982 -0.72,-1.88 -1.435,-2.59c-0.708,-0.623 -1.607,-0.988 -2.55,-1.036c-0.996,0.014 -1.905,0.584 -2.35,1.475c-1.091,1.623 -1.091,3.755 0,5.378c0.463,0.25 0.992,0.347 1.514,0.279Zm-5.539,-40.202c-1.599,-1.594 -3.115,-3.27 -4.542,-5.02l-2.191,-2.67c-0.017,1.812 0.089,3.622 0.319,5.419c0.585,4.604 2.045,9.054 4.303,13.109c2.919,6.103 6.976,11.593 11.953,16.176c1.992,1.674 5.419,5.02 8.367,7.969l4.901,5.02l0.358,-1.355c-3.608,-8.913 -7.981,-17.498 -13.068,-25.659c-2.132,-3.189 -4.433,-6.261 -6.893,-9.204c-0.757,-0.916 -1.435,-1.554 -1.993,-2.151l-1.514,-1.634Zm25.819,38.21l1.275,0.678c0.025,-3.627 0.291,-7.247 0.797,-10.838c0.222,-1.39 0.666,-2.735 1.315,-3.984c0.826,-1.639 1.545,-3.329 2.151,-5.06c1.637,-6.769 1.637,-13.831 0,-20.6c-0.748,-4.347 -1.759,-8.645 -3.028,-12.869c-0.637,1.673 -2.032,5.259 -2.709,6.853c-1.877,7.169 -2.854,14.543 -2.909,21.954c-0.074,5.427 0.407,10.847 1.435,16.176c0.757,4.184 1.315,7.053 1.673,7.69Zm87.298,-15.021c-0.271,-0.138 -0.573,-0.207 -0.877,-0.199c-2.47,0 -6.056,3.984 -6.096,6.534c1.713,-0.279 3.188,-1.593 5.698,-0.956c1.251,0.551 2.623,0.77 3.984,0.638c0.766,-0.873 1.203,-1.987 1.235,-3.148c-1.155,-1.435 -1.275,-2.789 -3.944,-2.869Zm-106.264,-37.134c0.479,0.996 3.985,8.526 5.658,13.068c1.621,5.316 2.952,10.716 3.985,16.177c0.236,1.372 0.637,2.709 1.195,3.984l0.956,-0.717c-0.319,-1.195 -1.713,-6.933 -2.55,-10.04c-0.836,-3.108 -1.793,-9.204 -2.869,-16.336c-0.836,-5.738 0,-7.69 0.678,-8.248l-0.399,-1.036l-0.796,0.677c-0.783,0.643 -1.673,1.143 -2.63,1.475c-0.971,0.307 -2.027,0.191 -2.909,-0.319l-0.319,1.315Zm332.855,25.101c-1.235,-1.354 -2.191,-3.386 -3.586,-4.821l-2.948,0.797c-0.461,0.256 -0.997,0.341 -1.514,0.239c-0.517,-0.086 -1.049,-0.002 -1.514,0.239c-1.461,2.291 -1.771,5.138 -0.837,7.69c3.944,1.195 10.439,1.514 10.399,-4.144Zm-265.24,-1.275c1.594,1.076 2.032,2.59 4.463,2.869c1.235,0.837 2.908,0.398 4.462,0.319c0.399,-1.435 1.036,-1.435 1.275,-3.148c0.239,-1.713 0,-3.307 0,-4.741c-1.822,-0.576 -3.552,-1.407 -5.14,-2.471c-0.433,0.401 -0.95,0.701 -1.514,0.877c-1.912,2.191 -3.625,1.873 -3.546,6.295Zm47.295,2.072c3.984,0 5.219,1.235 9.523,1.275c0.677,-1.036 1.474,-1.394 1.912,-2.869c0.051,-0.636 0.051,-1.276 0,-1.912l-0.637,0c-0.835,-0.601 -1.84,-0.922 -2.869,-0.916c-2.896,0.499 -5.629,1.688 -7.969,3.466l0.04,0.956Zm-33.668,-5.897c0.684,1.415 1.218,2.897 1.594,4.423c0.74,0.529 1.605,0.858 2.51,0.956c1.315,0.797 4.383,-0.837 5.419,-2.231c2.868,-3.466 -0.558,-5.299 -2.55,-7.291l-2.59,-0.439c-1.232,1.732 -2.708,3.275 -4.383,4.582Zm232.926,-5.418c0.75,-0.066 1.503,0.058 2.192,0.358c1.594,0.837 1.992,3.387 3.466,4.463c0.04,2.629 -3.825,6.972 -6.295,5.379c-2.67,0 -2.749,-2.71 -4.423,-3.985c-0.241,-1.317 -0.241,-2.667 0,-3.984c0.558,-1.434 2.111,-1.315 3.148,-2.231l1.912,0Zm-163.837,-2.192c-1.335,1.971 -2.095,4.276 -2.191,6.654c0.757,0.478 0.916,0.916 1.912,1.275c1.873,1.514 4.981,0.638 7.291,0.319l2.232,-2.51c-0.359,-2.152 -1.156,-5.419 -3.467,-5.738c-2.032,1.076 -3.705,0.199 -5.777,0Zm189.816,-1.235c-0.867,-0.541 -1.851,-0.869 -2.869,-0.956c-3.347,0.398 -4.981,-0.558 -5.14,3.546c-0.598,0.797 -1.793,3.108 -1.514,3.705c0.956,2.391 4.98,3.586 7.969,3.507c2.363,-2.689 2.969,-6.514 1.554,-9.802Zm-17.213,-0.956c1.699,-0.07 3.38,0.375 4.821,1.275c0.827,1.873 0.583,4.053 -0.637,5.697c-1.437,0.472 -2.987,0.472 -4.423,0c-1.275,-0.557 -1.634,-1.753 -2.55,-2.868c-0.044,-0.794 0.181,-1.581 0.638,-2.232c0.438,-1.195 1.115,-1.115 1.912,-1.872l0.239,0Zm-243.286,-1.913c-0.488,-0.26 -1.043,-0.37 -1.594,-0.319c-1.155,0.837 -3.984,2.232 -2.829,3.985c0.098,1.303 0.96,2.431 2.192,2.869c1.128,0.376 2.329,0.485 3.506,0.318c1.252,-1.253 1.93,-2.971 1.873,-4.741c-0.996,-0.956 -1.116,-1.913 -3.148,-2.112Zm63.71,6.335c0.757,-0.717 1.913,-1.075 2.51,-1.912c0.371,-0.672 0.797,-1.312 1.275,-1.913c-1.075,-1.115 -1.434,-5.618 -2.191,-6.016c-1.065,-0.558 -2.27,-0.794 -3.466,-0.677l-1.953,0c-1.368,1.127 -2.162,2.809 -2.162,4.582c0,3.257 2.68,5.937 5.937,5.937c0.017,0 0.033,0 0.05,-0.001Zm20.321,-10.678c8.685,0.001 6.693,6.893 3.187,10.36c-3.666,-0.08 -4.263,-1.674 -6.694,-2.55c0.438,-1.833 1.011,-3.631 1.714,-5.379c0.398,-0.797 0.358,-1.872 1.036,-2.431l0.757,0Zm-97.857,0.199l-0.757,0c-0.239,0.2 -0.677,0.399 -0.956,0.638c-1.634,1.474 -3.068,6.813 -0.637,8.566c2.328,0.99 4.962,0.99 7.291,0c-0.16,-2.095 0.418,-4.182 1.634,-5.896c-1.554,-1.036 -2.431,-2.59 -4.782,-2.869c-0.544,-0.314 -1.166,-0.466 -1.793,-0.439Zm24.186,-1.753c0.697,-0.061 1.398,0.063 2.032,0.359c2.51,0.877 3.107,4.184 2.868,6.973c-0.506,0.579 -0.934,1.222 -1.275,1.912c-2.409,0.449 -4.881,0.449 -7.291,0c-0.357,-1.391 -0.893,-2.73 -1.594,-3.984c0.159,-2.869 2.191,-3.905 3.825,-5.26l1.435,0Zm228.543,-2.032c-0.838,-0.539 -1.84,-0.765 -2.829,-0.637c-1.952,2.63 -5.379,2.829 -5.379,7.61c2.027,2.009 4.757,3.153 7.611,3.187c0.973,-1.476 2.139,-2.816 3.466,-3.984c0.677,-1.315 -1.713,-5.458 -2.869,-6.176Zm-166.945,1.594c-0.598,0.638 -0.916,0.598 -1.275,1.554c-0.41,1.296 -0.41,2.688 0,3.984c0.996,0.638 0.916,1.076 2.55,1.275c1.355,0.877 3.745,-0.637 3.984,-1.912c0.239,-1.275 0,-3.307 -0.318,-4.423c-1.598,-0.43 -3.246,-0.645 -4.901,-0.637l-0.04,0.159Zm183.759,-0.637c-1.845,-1.525 -4.011,-2.615 -6.335,-3.188c-0.819,0.323 -1.676,0.537 -2.55,0.638c-1.509,2.113 -2.19,4.709 -1.912,7.291c1.753,0.916 3.984,1.355 6.016,2.51c2.47,-2.191 4.861,-2.271 4.781,-7.251Zm-319.068,-17.532c1.235,0.001 2.51,0.518 2.749,1.235c0.425,1.294 0.425,2.691 0,3.985c-0.192,0.324 -0.487,0.577 -0.837,0.717l-0.558,0.319c-0.229,0.136 -0.421,0.328 -0.558,0.558c-0.787,1.338 -1.365,2.789 -1.713,4.303c-0.358,1.434 -1.872,5.14 -2.231,6.454c-0.359,1.315 -1.235,4.463 -1.474,5.3c0.239,-1.514 1.195,-6.216 1.673,-8.686c0.279,-1.475 0.757,-2.989 0.757,-4.303c0.194,-0.957 0.274,-1.933 0.239,-2.909c-0.093,-0.354 -0.213,-0.7 -0.358,-1.036l-0.518,-1.155c-0.352,-0.675 -0.438,-1.458 -0.239,-2.192l0.438,-0.956c0.125,-0.264 0.272,-0.517 0.438,-0.757c0.305,-0.454 0.778,-0.769 1.315,-0.877l0.877,0Zm61.319,11.834c0.694,-0.073 1.395,0.037 2.032,0.319c0.966,-0.147 1.953,0.006 2.829,0.438c0.551,2.756 -0.007,5.622 -1.554,7.969c-1.173,-0.322 -2.412,-0.322 -3.586,0c-0.956,0.358 -1.713,0.558 -2.43,0c-1.355,-0.877 -1.674,-2.471 -2.869,-3.467c-0.078,-1.393 0.255,-2.778 0.956,-3.984l3.506,-1.275l1.116,0Zm-92.318,-2.47l1.036,0c0.42,0.098 0.823,0.259 1.195,0.478c2.101,1.682 3.952,3.654 5.499,5.857c0.677,0.956 1.952,2.829 2.51,3.626c0.056,0.101 0.163,0.164 0.279,0.164c0.116,0 0.223,-0.063 0.279,-0.164l0,-0.598l-1.395,-1.873c-0.834,-1.194 -1.606,-2.43 -2.311,-3.705c-0.438,-0.917 -0.876,-1.674 -1.195,-2.311c-0.301,-0.513 -0.491,-1.083 -0.558,-1.674l0,-2.47c-0.072,-0.991 -0.416,-1.942 -0.996,-2.749c-0.68,-0.869 -1.69,-1.418 -2.789,-1.514c-0.833,0.009 -1.615,0.408 -2.112,1.076c-1.412,1.375 -1.826,3.493 -1.036,5.299c0.444,0.377 1.012,0.575 1.594,0.558Zm176.747,-2.271c0.758,0.637 1.714,0.996 2.55,1.593c0.837,0.598 0.996,1.873 1.913,2.51c0,3.945 -3.029,4.543 -5.061,6.336c-3.307,-1.076 -2.908,-2.67 -6.016,-3.148c-0.223,-2.572 0.438,-5.145 1.873,-7.291l4.741,0Zm-16.177,-0.638c-2.828,2.191 -5.498,2.231 -5.378,7.61c1.792,1.605 3.978,2.705 6.335,3.188c1.912,-2.471 3.984,-1.714 5.219,-4.423c-0.227,-1.89 -0.823,-3.718 -1.753,-5.379c-0.996,-0.478 -3.148,-0.598 -4.423,-0.996Zm-157.661,-18.089c1.833,3.626 2.988,6.096 3.984,8.168c0.951,1.947 2.015,3.836 3.188,5.658c1.259,2.108 2.364,4.306 3.307,6.574c0.717,1.634 1.275,2.988 1.434,3.466l0.797,0c-0.399,-1.992 -2.032,-9.443 -3.188,-15.937c-1.354,-7.531 -1.036,-10.24 -2.868,-17.173c-1.542,-5.597 -3.5,-11.071 -5.857,-16.376c-0.797,-1.872 -3.507,-6.813 -4.622,-8.885c-0.702,5.136 -1.008,10.317 -0.917,15.499c-0.107,6.641 1.528,13.194 4.742,19.006Zm26.416,-24.663c-5.654,7.955 -8.879,17.382 -9.283,27.133c-0.359,4.303 -0.518,8.208 -0.757,9.961c-0.359,2.988 -0.797,9.324 -0.877,10.878l0.877,0c0.318,-1.076 1.593,-5.419 2.51,-8.208c0.707,-1.902 1.546,-3.753 2.51,-5.539c1.036,-1.992 2.191,-3.984 3.227,-6.096c1.036,-2.111 2.192,-3.984 3.228,-5.976c1.125,-2.298 1.981,-4.718 2.55,-7.212c0.603,-2.611 0.857,-5.291 0.757,-7.969c0,-2.47 -0.279,-4.741 -0.359,-7.012l0,-7.531c-1.116,2.152 -3.347,6.017 -4.383,7.571Zm113.196,38.927c-1.235,-0.797 -1.354,-1.474 -3.466,-1.554l-2.869,3.785l-2.51,0.957l0,1.275c4.622,0.199 8.885,0.637 8.845,-4.463Zm-35.779,-9.164c-0.359,0.239 -0.279,0 -0.957,0.319c-2.165,2.295 -3.215,5.43 -2.868,8.566l0.956,0c1.594,-2.869 6.773,-3.666 6.972,-6.654c-0.903,-0.666 -1.755,-1.398 -2.55,-2.191l-1.553,-0.04Zm-88.254,-39.844c0.342,-1.118 0.824,-2.189 1.434,-3.187l0.717,-1.116l-0.996,-0.876l-0.677,0.438c-0.734,0.394 -1.559,0.587 -2.391,0.558c-1.002,-0.103 -1.962,-0.46 -2.789,-1.036l-1.036,-0.757l-1.076,1.195c1.507,1.812 2.326,4.099 2.311,6.455c0.531,5.827 0.73,11.681 0.598,17.531l0.239,17.73l0.279,-0.557c-0.268,-6.729 -0.028,-13.469 0.717,-20.161c0.615,-5.448 1.506,-10.86 2.67,-16.217Zm281.775,-6.415c15.658,-4.821 32.154,-11.236 37.811,-25.659c5.18,-13.228 3.985,-23.03 -3.267,-32.234c-2.112,-2.629 -12.949,-10.957 -16.376,-11.196c0.444,2.306 0.763,4.633 0.957,6.973c11.036,6.176 12.63,11.754 13.945,14.902c2.025,5.406 2.025,11.367 0,16.774c-0.854,2.611 -2.089,5.081 -3.666,7.331c-6.215,9.523 -19.563,14.463 -31.357,18.368c-13.467,4.462 -27.133,3.227 -26.934,21.555c0.434,0.325 0.766,0.768 0.956,1.275l0.638,0c1.593,-2.868 3.426,-7.49 6.654,-8.566l0,0.638c-0.871,1.362 -1.516,2.855 -1.913,4.422c-1.873,7.61 3.984,10.678 6.335,15.22c0.598,1.275 0,3.547 0.638,4.782c2.789,-3.228 0.597,-9.403 0.558,-11.953c0.336,-3.681 1.167,-7.3 2.47,-10.758l0.637,0c-0.836,10.001 3.746,11.236 7.132,16.137c1.014,2.042 1.866,4.16 2.55,6.335c1.036,-1.116 0.837,-2.271 1.275,-3.985c1.395,-6.215 -6.295,-9.323 -5.06,-14.583c0.757,-3.147 4.383,-4.621 5.299,-7.291c0.917,-2.669 -1.075,-3.546 -0.518,-5.698c-0.079,-0.956 0.997,-2.032 1.236,-2.789Zm-203.682,24.385c-0.61,-0.477 -1.379,-0.705 -2.151,-0.638c-1.081,0.047 -2.158,0.153 -3.228,0.319c-1.832,2.59 -3.546,3.028 -3.506,7.969l0.956,0c1.754,-4.622 8.447,-0.678 8.527,-6.654c-0.119,-0.279 -0.359,-0.717 -0.598,-0.996Zm101.881,-49.207c-5.259,-0.957 -4.981,-4.264 -7.65,-6.375c-0.797,-2.71 2.709,-2.829 3.187,-3.387c0.478,-0.558 0.359,-1.753 0.757,-2.43c0.794,-0.813 2.051,-0.979 3.029,-0.399c1.035,1.634 0.557,3.865 1.912,5.379c1.58,1.935 3.854,3.179 6.335,3.466c11.953,-0.318 15.539,-23.308 3.985,-26.296c-4.503,-3.068 -10.44,4.382 -10.44,8.885c-3.267,-0.2 -4.303,-2.391 -4.741,-5.379c-1.333,-0.039 -2.662,-0.145 -3.984,-0.319c-2.181,-1.138 -3.869,-3.039 -4.742,-5.339c-0.717,-2.789 2.072,-4.662 -1.394,-7.531c1.242,-4.692 4.296,-8.706 8.486,-11.156c1.714,-0.558 3.188,0.638 4.463,0.638c-0.04,-3.188 -2.47,-2.59 -4.463,-3.507c0.279,-3.825 3.068,-3.546 4.782,-5.697c1.375,-1.778 2.551,-3.702 3.506,-5.738c0.716,-0.064 1.436,-0.064 2.152,0c7.211,0 18.447,5.379 19.921,9.364l0,6.972c1.395,1.156 1.754,2.271 3.985,2.51c-0.319,-1.514 -1.634,-2.709 -1.913,-3.984c-0.478,-2.43 1.395,-4.582 1.913,-6.016c0.804,-0.154 1.565,-0.48 2.231,-0.957c7.451,-0.239 9.841,2.949 10.12,9.802c-2.709,3.465 -6.735,5.659 -11.116,6.056c0.241,0.562 0.563,1.086 0.956,1.554c5.141,0.97 10.267,-2.02 11.953,-6.973c3.626,0.12 5.06,5.18 5.06,9.165c-0.916,1.035 -1.354,2.709 -2.51,3.506c-3.39,1.465 -7.067,2.146 -10.757,1.992l0,0.717c3.705,0.717 12.391,1.156 14.582,3.985c2.192,2.828 0.996,8.486 4.423,10.16c0.023,0.251 0.023,0.505 0,0.757c-2.072,0.667 -4.303,0.667 -6.375,0c-2.63,-1.156 -5.1,-5.578 -9.523,-4.742c-2.116,0.54 -4.143,1.386 -6.016,2.51l0,2.152c3.046,-0.52 6.158,-0.52 9.204,0c2.988,1.036 4.542,4.144 6.972,5.698l4.742,1.593c-0.359,2.431 -1.116,1.475 -2.311,2.949c-1.89,0.092 -3.768,-0.35 -5.419,-1.275l-1.155,1.155c0.438,2.71 2.749,3.068 4.422,4.423c1.688,0.093 3.363,-0.353 4.782,-1.275l0.637,0c-0.238,3.653 -2.114,7.008 -5.1,9.124c-6.534,-0.199 -8.128,-5.14 -12.351,-7.61c-2.075,-0.985 -4.431,-1.211 -6.654,-0.637c-1.366,0.158 -2.705,0.493 -3.985,0.996l0,0.956c10.798,2.391 25.779,10.718 19.723,25.341c-1.783,3.231 -3.907,6.264 -6.335,9.044c-3.347,-0.478 -1.992,-12.75 -3.985,-15.579c-2.548,-2.941 -5.683,-5.316 -9.203,-6.973c-1.036,-0.557 -2.55,-0.557 -3.467,-1.275l-1.992,0c2.909,3.706 7.769,5.818 10.479,9.802c1.514,2.191 0.916,5.22 2.311,7.252c0,7.889 -11.156,7.45 -15.938,4.263c-2.508,-2.018 -4.468,-4.635 -5.697,-7.61c-0.638,-1.315 0.039,-1.953 -0.638,-2.829c-0.159,-0.199 -0.558,0 -0.956,0c-0.329,0.067 -0.668,0.067 -0.996,0c-0.247,3.221 0.52,6.44 2.191,9.204c0.557,0.631 0.929,1.403 1.076,2.231c0.606,3.63 -0.177,7.359 -2.191,10.439c-1.076,1.275 -2.989,1.913 -3.985,3.148l-0.637,0c0.044,-2.849 -0.102,-5.698 -0.439,-8.527c-1.713,0.518 -4.064,4.742 -5.379,5.698c-1.314,0.956 -3.147,1.235 -4.422,2.231c-4.463,0.638 -2.47,-3.028 -3.985,-4.781c-0.438,-0.478 -1.314,-0.478 -1.872,-0.917l-1.913,-3.187c-0.614,-4.425 0.659,-8.91 3.507,-12.352l-0.319,-2.629c-4.821,1.394 -7.411,6.016 -11.396,8.247c-3.862,1.574 -7.411,3.828 -10.478,6.654c-0.757,-0.079 -0.917,-0.079 -1.275,-0.319c-1.275,-1.593 -0.558,-2.39 -0.957,-5.02c-0.717,-5.969 2.003,-11.856 7.013,-15.18c1.476,-0.871 3.074,-1.516 4.741,-1.913c0.503,-0.064 1.012,-0.064 1.514,0c0.552,0.084 1.117,0.015 1.634,-0.199l0.637,0c-0.239,-2.431 -2.948,-2.909 -3.984,-4.741c-1.957,-3.402 -1.738,-7.654 0.558,-10.838l0.637,0c0.957,2.989 1.076,5.738 3.467,7.291c0.956,0.638 2.271,0.638 3.187,1.275c0.598,-0.318 0.558,-0.079 0.917,-0.318l1.872,-0.478c-1.434,-1.236 -2.43,-2.949 -3.984,-3.985c0.065,-0.551 -0.047,-1.109 -0.319,-1.594c-0.04,-3.147 -0.677,-6.335 1.674,-7.132c0.279,-0.318 0.039,-0.318 0.597,-0.318c1.717,3.173 3.633,6.234 5.738,9.164c1.651,1.121 3.465,1.981 5.379,2.55c2.926,0.513 5.919,0.513 8.845,0c9.543,-0.961 17.522,-7.807 19.922,-17.093c0.346,-1.499 0.612,-3.015 0.797,-4.542c0.991,-7.009 -2.109,-13.999 -7.969,-17.97c-2.829,-1.753 -8.009,-3.267 -11.116,-0.637l-0.957,0.278l0,0.598c0.267,-0.014 0.534,-0.021 0.801,-0.021c8.437,0 15.38,6.943 15.38,15.38c0,1.787 -0.312,3.56 -0.921,5.24c-2.151,7.65 -7.848,14.981 -17.73,14.185l-5.06,0Zm-167.025,17.89c1.718,0.291 2.987,1.793 2.987,3.535c0,0.44 -0.08,0.875 -0.238,1.286c-0.265,0.923 -0.989,1.647 -1.912,1.912c-0.445,0.156 -0.897,0.289 -1.355,0.399c-0.44,0.1 -0.867,0.247 -1.275,0.438c-0.906,0.616 -1.657,1.434 -2.192,2.39c-0.677,1.236 -1.474,2.55 -2.31,3.985c-0.912,1.555 -1.698,3.181 -2.351,4.861c-0.28,0.661 -0.576,1.24 -0.753,1.698c-0.056,0.217 -0.111,0.435 -0.164,0.653c0,-0.174 0.063,-0.394 0.164,-0.653c0.621,-2.406 1.432,-4.759 2.426,-7.037c0.359,-0.837 0.956,-1.913 1.474,-2.869l0.757,-1.355c0.183,-0.32 0.342,-0.653 0.479,-0.996l0,-0.597c0.013,-0.199 0.013,-0.399 0,-0.598c0.104,-0.432 0.104,-0.883 0,-1.315c-0.384,-1.031 -0.467,-2.151 -0.239,-3.227c0.733,-1.531 2.286,-2.509 3.984,-2.51l0.518,0Zm81.002,19.284c0.678,-1.036 1.315,-1.235 1.594,-2.869c-0.199,-0.199 -0.398,-0.677 -0.638,-0.916c-1.172,-1.117 -2.768,-1.683 -4.382,-1.554c-1.347,0.05 -2.683,0.25 -3.985,0.598c-0.597,0.876 -1.195,1.115 -1.593,2.231c-0.24,0.319 0,0.279 -0.319,0.916c4.104,-0.239 5.259,1.514 9.323,1.594Zm-110.168,-26.775c1.913,0 2.63,1.594 3.148,3.546c0.209,1.414 -0.057,2.858 -0.757,4.104c0,0.239 0.637,3.148 1.315,6.455c0.677,3.307 2.789,10.2 3.108,11.275l-0.279,0.598l-0.877,-2.909c-0.319,-0.836 -3.944,-10.678 -4.303,-11.953c-0.359,-1.275 -1.315,-2.908 -2.231,-2.908c-1.387,-0.585 -2.48,-1.707 -3.028,-3.108c-0.114,-0.374 -0.171,-0.763 -0.171,-1.153c0,-1.98 1.476,-3.675 3.438,-3.947l0.637,0Zm149.972,13.905l2.391,2.192c0.784,0.723 1.609,1.401 2.47,2.032c0.797,0.597 1.315,0.876 1.833,1.195c0.597,0.369 1.146,0.811 1.633,1.315l0.518,0c0,-7.73 1.475,-14.463 6.575,-17.97c0.56,-0.305 1.165,-0.52 1.793,-0.637l2.231,-0.438c0.686,-0.119 1.365,-0.279 2.032,-0.478l0.677,-0.279l-0.358,-0.319c-0.135,-0.106 -0.213,-0.268 -0.213,-0.438c0,-0.171 0.078,-0.333 0.213,-0.439c-4.081,-3.176 -9.134,-4.851 -14.304,-4.741c-1.567,-0.062 -3.129,0.21 -4.582,0.797l-0.837,0.319l-0.877,0.278c-0.504,0.13 -0.987,0.331 -1.434,0.598l-1.195,0.717c-0.338,0.184 -0.658,0.397 -0.957,0.638c-0.606,0.526 -0.978,1.271 -1.035,2.072c-0.359,1.554 -0.877,3.466 -1.275,5.299c-0.392,1.439 -0.527,2.936 -0.399,4.423c1.839,1.094 3.549,2.39 5.1,3.864Zm-133.237,-9.363c-1.196,3.984 -1.873,6.734 -2.032,7.371l0.796,1.235l1.833,-3.227c1.205,-2.085 2.535,-4.094 3.985,-6.016c0.84,-1.107 1.848,-2.075 2.988,-2.869c1.512,-1.055 2.95,-2.213 4.303,-3.467c4.578,-5.24 7.842,-11.496 9.523,-18.248c1.383,-4.114 2.527,-8.305 3.426,-12.551l-5.578,4.781c-5.058,5.425 -9.396,11.478 -12.909,18.01c-2.62,4.763 -4.743,9.783 -6.335,14.981Zm-5.618,-39.485c-0.718,-2.391 -1.594,-7.969 -1.953,-9.961c-0.887,1.568 -1.672,3.192 -2.35,4.861c-1.818,4.261 -2.792,8.835 -2.869,13.467c-0.47,6.732 0.342,13.492 2.39,19.922c1.594,4.263 4.304,15.18 5.021,17.85l0.956,-0.996c1.333,-9.528 1.839,-19.153 1.514,-28.767c-0.237,-3.834 -0.689,-7.652 -1.355,-11.435c-0.353,-1.673 -0.806,-3.322 -1.354,-4.941Zm129.771,43.35l0,-0.638c0.88,-3.633 1.414,-7.342 1.593,-11.076c3.158,-2.349 6.549,-4.365 10.121,-6.017c3.984,-1.314 7.969,0.917 11.714,0.957c0,-0.678 0,-0.598 -0.319,-0.957c-1.394,-1.434 -4.542,-2.151 -5.698,-3.984c-1.155,-1.833 -0.916,-5.299 -1.553,-7.291l-0.957,-0.08c-1.235,2.271 -1.673,5.698 -3.187,7.969c-1.514,2.271 -4.742,2.43 -6.973,3.984c-1.275,0.797 -3.984,3.068 -6.335,2.51c-3.745,-0.876 -5.817,-3.984 -10.16,-3.984c-0.883,2.984 -1.101,6.126 -0.638,9.204c2.587,4.766 7.105,8.195 12.392,9.403Zm144.911,-53.59c3.347,0 4.304,0.877 3.985,3.227c-0.319,2.351 -1.913,3.307 -2.988,4.822c-2.853,3.601 -5.162,7.602 -6.854,11.873c-4.103,12.033 7.73,25.978 14.583,30.441c-0.048,0.437 -0.155,0.866 -0.319,1.275l-5.418,1.275c-1.076,-0.917 -2.351,-1.395 -3.507,-2.232c-8.646,-6.494 -17.132,-21.555 -10.439,-36.417c2.791,-5.065 6.074,-9.843 9.802,-14.264l1.155,0Zm-189.895,42.513c4.821,0.2 9.244,-0.398 9.204,-5.06c-1.753,-1.474 -1.873,-3.984 -5.06,-3.984c-0.996,0.916 -3.148,0.956 -4.742,1.275c-0.603,2.217 -0.779,4.53 -0.517,6.813c0.412,0.269 0.787,0.59 1.115,0.956Zm212.606,-11.754c-1.036,0.718 -2.629,0.2 -4.382,0c-1.277,2.049 -2.055,4.37 -2.272,6.774l1.275,1.275c1.993,1.554 5.26,0.558 7.611,0.319c0.637,-0.957 2.191,-2.232 1.593,-3.507c-0.519,-2.092 -1.913,-3.863 -3.825,-4.861Zm-219.897,7.611c1.195,-1.873 2.789,-2.989 3.187,-5.698c-2.072,-1.514 -1.474,-4.423 -5.06,-4.423l-4.741,1.594c-0.304,0.699 -0.736,1.334 -1.275,1.873c0.803,2.766 2.464,5.208 4.741,6.972l3.148,-0.318Zm-71.719,-0.752c-0.024,0.081 -0.04,0.146 -0.04,0.194l0.04,-0.194c0.077,-0.259 0.239,-0.675 0.239,-1.161l-0.239,1.161Zm2.988,-13.991l-2.749,12.83c1.183,-5.21 2.754,-10.325 4.702,-15.3c1.918,-5.142 4.099,-10.182 6.534,-15.101c0.608,-0.997 1.33,-1.919 2.152,-2.749l0.956,-0.916l-0.757,-1.076l-0.757,0.239c-0.797,0.209 -1.634,0.209 -2.431,0c-0.961,-0.341 -1.814,-0.933 -2.47,-1.713c-0.296,-0.307 -0.562,-0.641 -0.797,-0.996l-1.355,0.916c1.027,2.118 1.267,4.534 0.678,6.813c-0.915,5.75 -2.152,11.443 -3.706,17.053Zm271.535,1.116c-0.486,1.102 -0.808,2.27 -0.956,3.466c1.395,1.953 0.757,4.742 3.188,5.698c0.583,0.583 1.428,0.824 2.231,0.638c2.789,-0.718 3.347,-3.028 5.06,-4.742c0,-1.275 -1.155,-2.789 -1.594,-4.781c-1.792,-0.78 -3.749,-1.108 -5.697,-0.956l-0.678,0c-0.459,0.341 -0.991,0.573 -1.554,0.677Zm-159.813,4.741l1.713,1.156c0.611,0.404 1.25,0.763 1.913,1.076c1.453,0.71 3.045,1.091 4.662,1.115c0.643,-0.475 1.355,-0.852 2.111,-1.115c0.837,-0.319 1.793,-0.558 2.71,-0.797c1.436,-0.253 2.798,-0.825 3.984,-1.674c1.552,-1.655 2.271,-3.929 1.952,-6.175c-0.091,-1.172 -0.291,-2.332 -0.597,-3.467c-0.279,-1.195 -0.638,-2.39 -0.956,-3.586c-0.206,-0.959 -0.352,-1.931 -0.439,-2.908c0,-1.116 -0.199,-2.391 -0.358,-3.546c-0.105,-1.065 -0.305,-2.119 -0.598,-3.148c-0.279,-0.916 -0.598,-1.315 -0.916,-1.514c-0.837,-0.449 -1.762,-0.707 -2.71,-0.757c-1.076,0 -2.231,-0.199 -3.227,-0.359c-1.073,0.624 -2.27,1.005 -3.506,1.116c-1.156,0 -2.232,0 -3.228,0.279c-1.593,0.279 -2.829,0.956 -2.709,4.901c0.34,0.888 0.49,1.839 0.438,2.789l0,3.068c0.04,4.861 -0.119,9.044 -0.239,13.546Zm-22.79,-6.972c0.576,-0.05 1.155,0.061 1.673,0.319c3.745,1.673 1.315,7.968 0,9.841c-3.706,-0.04 -4.383,-1.235 -6.973,-1.913c-0.08,-0.654 0.031,-1.319 0.319,-1.912c-0.199,-6.574 0.797,-4.144 4.463,-6.335l0.518,0Zm211.132,7.929c1.782,-2.492 1.651,-5.901 -0.319,-8.248c-0.319,-0.239 -0.279,0 -0.956,-0.319l-5.698,0.957c0.048,0.796 0.048,1.594 0,2.39c-0.335,1.234 -0.748,2.445 -1.235,3.626c1.193,0.656 2.27,1.504 3.187,2.51c2.112,0.279 3.825,0.638 5.021,-0.916Zm-221.532,0.318c0.837,-1.195 1.714,-1.275 1.913,-3.147c2.39,-3.546 -2.749,-4.423 -4.781,-5.06c-0.485,0.271 -1.043,0.383 -1.594,0.318c-0.381,0.841 -0.923,1.599 -1.594,2.232l0,2.868c0.877,0.917 1.673,1.953 2.51,2.869l3.546,-0.08Zm209.459,-10.16l1.912,1.594c0.279,0.638 0.04,0.319 0.279,0.638c0.12,2.789 -0.239,4.183 -2.191,4.781c-0.65,0.418 -1.45,0.534 -2.192,0.319c-1.912,-0.239 -1.553,-1.435 -2.749,-2.232c-0.247,-1.72 0.295,-3.464 1.474,-4.741c0.717,-0.08 0.877,-0.08 1.275,-0.359l2.192,0Zm-127.699,-12.311c0.518,0.757 0.478,0.757 1.554,0.956l0.318,-0.956c-0.557,-0.757 -0.398,-1.634 -0.956,-2.55c-0.558,-0.917 -1.235,-2.232 -3.187,-2.869c-0.558,-0.227 -1.152,-0.349 -1.754,-0.359c-1.314,0 -2.35,0.598 -3.665,0.678c-1.235,1.514 -3.188,2.231 -3.985,3.984c-3.984,7.969 5.061,16.336 13.587,14.264c9.204,-2.231 20.838,-5.379 25.341,3.984l0.956,0c-1.076,-6.454 -8.845,-10.04 -16.774,-9.522c-3.948,0.683 -7.975,0.791 -11.953,0.319c-4.303,-1.435 -6.973,-8.009 0.518,-7.929Zm-93.155,5.379c-0.319,0.239 -0.279,0 -0.956,0.318c-1.395,1.435 -3.985,2.63 -3.985,5.06c-0.722,0.921 -0.722,2.227 0,3.148c0.359,1.036 0.558,1.235 1.594,1.594c1.699,0.707 3.562,0.928 5.379,0.637c0.916,-2.629 3.347,-3.068 3.506,-6.335c-2.072,-1.992 -2.072,-3.745 -5.538,-4.422Zm213.881,-1.913c-0.518,-0.478 -0.637,-0.478 -1.594,-0.637c-0.914,0.343 -1.9,0.453 -2.868,0.318c-1.156,1.714 -2.989,2.271 -3.188,5.06c-0.069,0.968 0.039,1.94 0.319,2.869c2.082,0.958 4.365,1.395 6.654,1.275c0.876,-2.63 3.227,-1.594 3.187,-5.379c-0.956,-1.036 -1.155,-2.709 -2.51,-3.506Zm-203.402,-0.319c-1.674,0.518 -2.311,1.514 -2.231,3.985c-0.478,0.757 0,1.832 0,3.187c2.595,1.179 5.398,1.829 8.247,1.913c1.275,-1.953 2.829,-2.311 2.829,-5.698c-2.988,-2.152 -2.43,-3.188 -7.61,-3.984c-0.239,0.159 -0.956,0.398 -1.235,0.597Zm212.726,-1.872c-0.558,0.518 -1.355,0.677 -1.913,1.275c-0.916,2.093 -1.14,4.425 -0.637,6.654c2.311,0.597 2.59,1.593 5.06,2.51c1.195,-1.435 6.255,-3.228 5.06,-5.698c-1.188,-3.077 -4.284,-5.016 -7.57,-4.741Zm-59.487,8.606l-0.478,0.518c0.106,-0.155 0.174,-0.332 0.199,-0.518l0.279,0Zm-211.212,-16.017l-0.319,0.557l-0.637,0.877l-1.036,1.156c-0.738,0.782 -1.43,1.607 -2.072,2.47c-1.672,2.164 -3.152,4.47 -4.422,6.893c0.278,-0.399 0.757,-1.196 1.394,-2.072c1.027,-1.486 2.159,-2.898 3.387,-4.224c1.155,-1.195 2.191,-2.31 3.147,-3.227c0.746,-0.789 1.658,-1.401 2.67,-1.793c0.437,-0.043 0.878,-0.043 1.315,0l1.394,0c0.958,-0.073 1.814,-0.63 2.271,-1.474c0.439,-0.605 0.675,-1.333 0.675,-2.08c0,-1.416 -0.848,-2.701 -2.149,-3.259c-1.744,-0.607 -3.693,-0.027 -4.821,1.434c-0.484,1.002 -0.664,2.124 -0.518,3.228c0.114,0.417 0.114,0.857 0,1.275c-0.088,0.084 -0.181,0.164 -0.279,0.239Zm117.539,6.733c1.235,0.917 1.395,1.753 3.467,1.913c0.956,-0.797 1.753,-0.837 2.191,-2.192c0.438,-0.717 0,-1.036 0,-1.912c-0.911,-0.734 -2.022,-1.178 -3.187,-1.275c-0.319,0.239 -0.319,0 -0.917,0.319c-0.757,1.155 -1.394,1.314 -1.554,3.147Zm-139.612,-26.615l-0.797,0c-0.082,-0.006 -0.165,-0.009 -0.247,-0.009c-2.055,0 -3.746,1.691 -3.746,3.746c0,0.082 0.003,0.165 0.009,0.247c0.071,1.54 0.779,2.984 1.952,3.984c0.895,0.919 1.334,2.192 1.195,3.467c0,1.315 0.438,11.953 0.399,12.75l0.398,2.55c0,-1.116 0,-8.487 0.558,-11.714c0.558,-3.228 0.637,-6.335 0.717,-6.535c1.073,-0.977 1.765,-2.305 1.952,-3.745c0.2,-2.351 0,-4.343 -2.39,-4.741Zm281.058,2.749c-0.423,-0.058 -0.852,-0.058 -1.275,0c-3.317,0.997 -6.442,2.546 -9.244,4.582c-0.847,0.694 -1.598,1.498 -2.231,2.391l-1.076,1.394c-0.309,0.404 -0.642,0.79 -0.996,1.156l0,1.514l2.868,0c0.725,-0.012 1.448,0.069 2.152,0.239c1.275,0.358 2.112,1.155 3.984,2.988c0.526,1.17 0.836,2.425 0.917,3.705c0.044,0.664 0.044,1.329 0,1.993c-0.066,0.328 -0.066,0.667 0,0.996c1.122,-0.663 2.328,-1.172 3.586,-1.514l1.872,-0.558c0.562,-0.182 1.108,-0.408 1.634,-0.678c1.713,-0.956 2.789,-2.589 0.956,-7.53c-0.238,-0.573 -0.575,-1.099 -0.996,-1.554c-0.501,-0.582 -0.904,-1.241 -1.195,-1.952c-0.073,-0.165 -0.073,-0.353 0,-0.518l0.797,-0.439c5.658,1.554 7.052,6.415 5.259,12.511l0.478,0c0.585,-0.39 1.214,-0.711 1.873,-0.956l2.032,-0.757c1.289,-0.319 2.337,-1.262 2.789,-2.51c0.775,-1.985 0.775,-4.191 0,-6.176c-0.732,-3.302 -3.136,-5.994 -6.335,-7.092c-0.399,0 -0.877,-0.558 -1.474,-0.877c-0.519,-0.297 -1.119,-0.423 -1.714,-0.358c-0.464,0.036 -0.93,0.036 -1.394,0l-3.267,0Zm-137.9,-6.574c0.176,-0.624 0.283,-1.266 0.319,-1.913c-2.603,-3.416 -3.865,-7.67 -3.546,-11.953c-0.279,-5.02 0,-10.638 0,-14.941c-0.835,-0.083 -1.675,-0.083 -2.51,0c-0.561,0.229 -1.151,0.376 -1.753,0.438l-1.355,0.478c0.552,0.795 0.908,1.71 1.036,2.67c0,0.916 0.279,1.952 0.558,3.068c0.478,1.872 1.235,4.741 1.753,7.769c0.577,2.96 0.577,6.005 0,8.965c-0.124,0.45 -0.284,0.89 -0.478,1.315l-0.598,1.354l-0.478,1.196c-0.051,0.196 -0.051,0.401 0,0.597c0.308,0.74 0.77,1.405 1.355,1.953l0.876,0.996c0.292,0.401 0.521,0.844 0.678,1.315l0.279,4.701c0.623,2.864 0.811,5.806 0.557,8.726c0,2.59 -0.478,5.18 -0.518,7.969c1.804,0.042 3.597,-0.297 5.26,-0.996c-2.072,-3.148 -2.949,-12.471 -3.148,-16.854c0.065,-1.595 0.43,-3.163 1.076,-4.622c0.239,-0.797 0.478,-1.514 0.637,-2.231Zm-15.937,22.551c1.097,0.395 2.327,0.149 3.187,-0.637c0.239,-0.478 0,0 0,-0.957c-2.887,-0.45 -5.803,-0.69 -8.725,-0.717c-4.463,0 -8.806,0.757 -9.364,3.586c2.056,-0.03 4.102,-0.298 6.096,-0.797c2.861,-0.826 5.873,-0.989 8.806,-0.478Zm-115.906,-2.749l0.678,0.359c0.757,-0.757 3.705,-3.985 5.697,-5.698c1.432,-1.284 2.949,-2.469 4.543,-3.546l5.418,-3.626c1.753,-1.155 3.507,-2.231 5.3,-3.506c1.97,-1.413 3.774,-3.044 5.378,-4.861c1.575,-1.874 2.913,-3.935 3.985,-6.136c1.036,-2.072 1.873,-3.984 2.829,-5.977c0.956,-1.992 2.47,-4.821 3.227,-6.215c-1.833,1.155 -5.339,3.347 -6.893,3.984c-4.548,2.434 -8.744,5.477 -12.471,9.045c-2.734,2.891 -5.164,6.055 -7.252,9.443c-2.191,3.426 -3.984,6.614 -5.02,7.968c-1.554,2.431 -4.662,7.451 -5.419,8.766Zm97.817,-9.642c0.741,0.22 1.53,0.22 2.271,0l1.315,-1.514l4.462,0.279c0.425,-0.132 0.818,-0.349 1.156,-0.638l0.876,-0.637c0.545,-0.398 1.289,-0.398 1.833,0c1.674,0.199 1.674,0.478 1.674,2.39c-0.002,0.014 -0.002,0.027 -0.002,0.04c0,0.262 0.216,0.478 0.478,0.478c0.001,0 0.001,0 0.002,0c0.478,0 0.797,-0.319 0.797,-0.319c0.518,-1.235 1.035,-2.669 1.633,-3.984c0.485,-1.242 1.187,-2.389 2.072,-3.387c0.092,-1.366 -0.154,-2.735 -0.717,-3.984c-0.438,-1.036 -0.996,-1.952 -1.435,-2.909c-1.095,-1.966 -1.241,-4.327 -0.398,-6.414c3.136,1.567 5.782,3.965 7.65,6.932c0.084,0.204 0.084,0.434 0,0.638c0.035,0.251 0.035,0.506 0,0.757c-0.125,0.336 -0.218,0.683 -0.279,1.036c-0.089,0.447 -0.089,0.907 0,1.355c0.78,2.433 2.149,4.636 3.984,6.414c-0.238,0.782 -0.573,1.532 -0.996,2.232c-0.478,0.797 -0.996,1.514 -1.554,2.311c-1.299,1.791 -2.047,3.924 -2.151,6.136c-0.701,-0.019 -1.398,-0.126 -2.072,-0.319l-1.713,-0.598c-5.556,-0.888 -11.252,0.108 -16.177,2.829l-1.514,0l-0.438,-1.116c-0.279,-0.876 -0.677,-1.912 -0.837,-3.307c-0.518,-1.792 -1.036,-3.744 -1.315,-4.701l1.395,0Zm-92.278,-47.096c-1.989,3.17 -3.76,6.471 -5.3,9.882c-3.013,5.825 -4.468,12.332 -4.223,18.886c-0.165,5.21 -0.019,10.426 0.438,15.618c0.312,3.699 0.312,7.418 0,11.117l0.678,0.518c0.478,-1.992 2.311,-9.403 3.984,-15.738c2.032,-7.372 3.546,-9.683 4.941,-16.695c1.056,-5.71 1.696,-11.489 1.912,-17.292c0,-2.072 0,-7.69 -0.279,-10.001c-0.318,0.837 -1.155,2.112 -2.151,3.705Zm177.467,42.518c0.358,0.494 0.447,1.136 0.236,1.709c-1.772,2.605 -4.833,4.044 -7.969,3.745l-0.558,-0.199c-0.244,-0.215 -0.511,-0.402 -0.797,-0.558l-0.916,-0.557c-0.508,-0.316 -0.934,-0.739 -1.253,-1.235c0.309,0.445 0.707,0.825 1.173,1.115l0.917,0.558c0.285,0.156 0.552,0.343 0.797,0.558l0.557,0.199c3.137,0.298 6.197,-1.14 7.969,-3.745c0.194,-0.528 0.134,-1.115 -0.156,-1.59Zm22.309,-27.218c0.957,-0.479 1.395,-2.749 2.192,-3.506c0.797,-0.757 1.912,-0.797 2.868,-1.594c0.957,-0.796 1.594,-2.51 2.55,-3.187c0.957,-0.677 1.754,-0.638 2.511,-1.594l0.916,0.319c0,3.945 -1.753,4.462 -3.148,6.654l-0.318,3.187c-0.739,1.057 -1.724,1.918 -2.869,2.511c0.159,2.629 2.47,5.259 0.637,7.61c-0.318,0.996 -0.797,1.155 -1.275,1.912c-1.354,-0.358 -1.912,-2.112 -2.51,-3.187c-1.952,0.239 -2.63,1.354 -3.984,2.231c0.438,2.789 3.028,3.466 4.422,5.379c3.507,-0.478 3.427,-3.467 6.017,-4.463c0.757,-0.358 1.434,0.16 2.231,0.638c-0.08,0.757 -0.319,1.235 -0.319,1.275c0,0.04 -3.705,4.462 -3.984,4.462c0.12,3.706 2.55,4.702 4.423,6.654c2.231,-0.199 3.904,-0.836 4.422,-2.829c0.319,-0.318 0.319,-0.039 0.319,-0.637c-0.916,-0.917 -1.036,-1.713 -2.55,-2.192c-0.837,-0.518 -1.634,0 -2.829,0c0.319,-0.677 0.08,-0.597 0.319,-0.956c0.478,-1.394 1.235,-1.434 2.231,-2.231c2.673,0.156 5.335,0.476 7.969,0.956c0.876,0.438 1.394,2.152 2.191,2.51c0.76,0.216 1.574,0.13 2.271,-0.239c0.486,-0.237 1.015,-0.372 1.554,-0.398c0.996,0.159 1.793,0.996 2.829,1.235c1.036,0.239 2.431,-0.637 3.188,-0.637c2.226,-0.111 4.456,0.118 6.614,0.677l0,0.956c-7.537,0.644 -14.869,2.799 -21.556,6.335c-2.066,0.943 -4.075,2.007 -6.016,3.188l-1.275,0c-1.873,-0.797 -2.909,-4.423 -3.984,-6.017c-1.218,-1.434 -2.55,-2.767 -3.985,-3.984c-6.176,-6.216 -20.36,-17.452 -32.313,-17.452c1.275,-4.103 1.474,-5.697 2.51,-8.526c0.995,-3.324 1.793,-6.703 2.391,-10.12c0.832,-4.395 1.365,-8.841 1.593,-13.308c0.388,0.224 0.749,0.491 1.076,0.797c-0.08,3.426 0,4.94 1.873,6.654c0.04,1.792 -0.199,2.47 -1.235,3.147c0.159,1.793 1.354,2.231 2.868,2.55c0.319,0.638 0.08,0.319 0.319,0.638c0.137,1.206 -0.085,2.425 -0.637,3.506c-0.482,-0.073 -0.928,-0.296 -1.275,-0.638c-2.152,0.239 -2.152,1.275 -3.148,2.55c-0.068,1.626 0.504,3.215 1.594,4.423c2.359,-0.11 4.4,-1.717 5.06,-3.984c1.713,0.239 1.634,0.996 2.55,1.912c0.211,1.402 -0.133,2.831 -0.956,3.985c-0.399,0.996 -1.076,0.717 -1.594,1.275c-0.518,0.557 -1.554,-0.997 -1.913,-1.594c-0.654,-0.08 -1.319,0.03 -1.912,0.319c-1.514,0.557 -1.355,1.713 -2.191,2.868c0.517,2.55 4.024,2.072 5.697,3.467c1.69,-0.311 3.154,-1.365 3.985,-2.869c0.458,-1.148 1.105,-2.212 1.912,-3.148c0.277,0.042 0.559,0.042 0.837,0c0.283,-0.1 0.593,-0.1 0.876,0c0.478,0.12 0.16,0.678 0.478,0.678c-0.361,2.213 -1.489,4.231 -3.187,5.697c0.199,3.546 4.383,3.467 6.016,5.698c1.753,-0.359 1.634,-1.195 2.55,-2.231c0.056,-0.556 -0.07,-1.115 -0.358,-1.594c-0.638,-2.231 -2.55,-1.275 -3.985,-1.913c-0.318,-0.318 -0.079,-0.079 -0.318,-0.637c1.155,-1.275 2.549,-2.032 3.984,-3.188l4.781,0Zm-128.655,23.548c1.713,0 2.63,0.359 3.068,1.952c1.434,2.351 -1.753,3.825 -3.785,4.104c-1.036,-0.996 -1.634,-1.593 -2.232,-2.868c-0.597,-1.275 0.757,-2.39 1.594,-3.188l1.355,0Zm10.08,-3.267c0.494,-0.016 0.984,0.079 1.435,0.279c0.527,0.174 0.978,0.526 1.275,0.996l0.478,0.717c0.203,0.235 0.43,0.449 0.677,0.638c0.121,0.765 0.201,1.537 0.239,2.311c0.074,0.655 -0.081,1.317 -0.438,1.872c-0.478,1.873 -2.709,2.471 -5.817,2.311c-0.558,-0.558 -1.036,-0.956 -1.435,-1.315c-0.352,-0.286 -0.66,-0.621 -0.916,-0.996c-0.54,-1.127 -0.721,-2.393 -0.518,-3.626c0.235,-0.28 0.435,-0.588 0.598,-0.916l0.518,-0.837l2.032,-1.434l1.872,0Zm9.005,7.57c0.558,0.279 0.956,0.518 1.474,0.717c0.591,0.286 1.282,0.286 1.873,0c0.052,-0.263 0.052,-0.533 0,-0.796c-2.055,-4.243 -3.182,-8.875 -3.307,-13.587l-0.558,0.598l-0.757,0.637c-0.473,0.364 -0.843,0.845 -1.076,1.395c-0.259,1.742 -0.081,3.522 0.518,5.179c0.757,2.351 1.474,4.662 1.833,5.857Zm81.839,0.518l-1.355,-1.076c-0.485,-0.427 -1.004,-0.814 -1.554,-1.155c-1.481,-0.82 -3.174,-1.181 -4.861,-1.036c-0.48,0 -0.876,-0.396 -0.876,-0.877l0,-0.956c0.006,-0.028 0.013,-0.056 0.021,-0.084c-0.025,0.066 -0.046,0.134 -0.061,0.204l0,0.956c0,0.481 0.396,0.877 0.877,0.877c1.687,-0.145 3.379,0.215 4.861,1.036c0.549,0.341 1.069,0.727 1.553,1.155l1.205,0.956l0.19,0Zm-42.792,-11.276l0.518,0.558c0.463,0.348 0.822,0.817 1.036,1.355c0.31,1.148 0.091,2.377 -0.598,3.347l-0.797,1.275c-0.272,0.401 -0.424,0.871 -0.438,1.355l0,1.633c1.195,0 5.459,-0.717 10.479,-1.514c5.02,-0.797 10.877,-1.713 13.706,-2.032c-0.01,-1.53 0.527,-3.015 1.514,-4.184c0.387,-0.429 0.863,-0.769 1.395,-0.996l0.677,-0.318l0.558,-0.359c1.994,-1.848 3.523,-4.142 4.462,-6.694l-33.548,3.108l1.036,3.466Zm-31.437,-6.932c-0.398,5.698 -0.279,11.833 2.51,15.499c0.03,0.305 0.03,0.611 0,0.916c-1.165,0.112 -2.335,-0.183 -3.307,-0.836c-1.723,-2.424 -2.843,-5.225 -3.267,-8.168l0.598,-5.1l0.558,-0.479l0.876,-0.597c0.529,-0.365 1.022,-0.778 1.474,-1.235l0.558,0Zm5.299,-2.232l0.797,-0.438c0.397,-0.053 0.799,-0.053 1.196,0c-0.12,1.235 -0.359,2.789 -0.638,4.224c-0.222,1.545 -0.222,3.115 0,4.661c0.217,1.018 0.551,2.008 0.996,2.949c0.359,0.876 0.757,1.633 1.036,2.39c0.576,1.282 0.502,2.767 -0.199,3.985c-0.66,-0.084 -1.313,-0.217 -1.953,-0.399c-0.58,-0.13 -1.1,-0.453 -1.474,-0.916c-1.593,-2.59 -3.785,-12.312 -1.593,-15.26c0.161,-0.526 0.537,-0.961 1.035,-1.196l0.797,0Zm197.068,13.746c0.956,-1.394 2.191,-1.673 2.51,-3.984c-1.753,-1.673 -1.993,-4.901 -4.782,-5.698c-0.344,-0.042 -0.692,-0.042 -1.036,0c-1.753,0 -3.147,1.236 -4.94,1.395c-0.499,2.403 -0.819,4.841 -0.956,7.291c1.195,0.797 1.474,1.475 3.506,1.594c1.076,0.598 4.024,-0.438 5.698,-0.598Zm-132.361,-14.742l-0.518,1.395c-0.16,0.451 -0.267,0.919 -0.319,1.394c8.279,0.066 16.215,3.355 22.113,9.164c1.221,-0.121 2.369,-0.639 3.267,-1.474c-0.94,-0.603 -1.809,-1.312 -2.59,-2.112l-1.354,-1.314c-0.416,-0.413 -0.87,-0.787 -1.355,-1.116c-5.231,-3.457 -11.245,-5.552 -17.491,-6.096c-0.588,0.006 -1.174,0.059 -1.753,0.159Zm-143.518,-20.958l0.518,1.236l-1.115,0.677c-0.986,0.637 -1.896,1.385 -2.71,2.231c-3.398,4.313 -6.576,8.795 -9.522,13.428c-3.014,4.574 -5.677,9.368 -7.969,14.343l5.538,-12.391c2.677,-5.179 5.071,-10.5 7.172,-15.938c1.03,-2.116 1.284,-4.528 0.717,-6.813l1.514,-0.598c0.12,0.279 0.319,0.678 0.598,1.156c0.483,0.878 1.183,1.619 2.032,2.152c0.742,0.366 1.563,0.544 2.391,0.517l0.836,0Zm259.383,20.958c0.982,-0.074 1.966,0.09 2.869,0.478c0.877,1.275 0.677,2.59 1.912,3.507c-0.079,3.307 -1.872,4.024 -3.187,6.016c-3.427,0.239 -3.706,-0.677 -6.016,-1.912c-0.279,-1.1 -0.781,-2.131 -1.475,-3.029c-0.344,-1.907 0.392,-3.856 1.913,-5.06l3.984,0Zm-173.32,-0.119c-0.475,-0.259 -1.016,-0.37 -1.554,-0.319c-0.21,0.616 -0.318,1.262 -0.319,1.913c2.989,1.434 6.375,6.056 9.204,6.653c0.641,-1.229 0.969,-2.598 0.956,-3.984c-2.669,-2.59 -2.39,-4.423 -8.287,-4.263Zm101.004,-0.359l0.717,2.63l3.825,4.343l4.184,-0.797l3.665,1.434l48.131,-6.136l4.463,-2.948l-4.981,-2.51l-60.004,3.984Zm96.74,-4.422c-1.084,-0.517 -2.265,-0.802 -3.466,-0.837l-0.916,0c-2.869,0.916 -1.554,-0.996 -2.71,3.984c0,0.598 -1.195,2.789 -0.876,3.148c1.469,2.449 4.116,3.961 6.972,3.984c0.389,-0.254 0.803,-0.468 1.235,-0.637c1.254,-2.459 1.792,-5.22 1.554,-7.969c-0.677,-0.638 -0.757,-1.235 -1.793,-1.673Zm-18.407,2.231c-0.019,1.335 0.088,2.669 0.318,3.984c0.479,0.4 1.017,0.722 1.594,0.956c2.108,1.076 4.718,0.385 6.017,-1.593l0,-3.666c-0.279,-0.319 0,0 -0.319,-0.637c-1.18,-0.91 -2.537,-1.561 -3.985,-1.913c-0.7,0.411 -1.45,0.733 -2.231,0.956c-0.325,0.729 -0.8,1.381 -1.394,1.913Zm-199.896,0.637l-0.319,-2.55c-1.435,-1.155 -1.873,-3.108 -3.985,-3.984c-2.948,2.191 -3.984,1.315 -6.654,2.191c-0.269,2.008 -0.161,4.049 0.319,6.017c0.757,0.752 1.616,1.396 2.55,1.912c3.187,0.762 6.513,-0.713 8.089,-3.586Zm-13.627,-6.654c-0.279,-0.876 -1.116,-1.075 -1.594,-1.872c-0.421,-0.808 -0.742,-1.665 -0.956,-2.55l-1.913,-0.319c-0.757,0.438 -2.749,0 -3.466,0.637c-1.053,0.144 -1.928,0.894 -2.231,1.913c-1.594,2.351 1.833,7.371 3.506,7.969c0.916,0.637 2.829,0.239 3.984,0c0.558,-1.235 3.347,-3.626 2.67,-5.778Zm207.905,-6.335c0.629,-0.062 1.262,0.048 1.832,0.319c2.232,1.036 2.351,3.745 4.184,5.578c-0.159,2.63 -2.869,3.267 -3.466,5.698c-2.779,-0.204 -5.489,-0.963 -7.969,-2.232l-0.319,-3.147c0.638,-0.638 0.757,-1.474 1.275,-2.231c0.916,-1.674 2.908,-2.471 3.985,-3.985l0.478,0Zm-264.085,9.603l1.953,-1.594c1.389,-1.146 2.853,-2.197 4.382,-3.148c1.435,-0.837 2.75,-1.633 3.985,-2.231c0.916,-0.567 1.954,-0.908 3.028,-0.996c0.46,0.023 0.915,0.104 1.355,0.239l1.394,0.279c0.934,0.187 1.904,-0.096 2.59,-0.757c0.842,-0.681 1.332,-1.707 1.332,-2.789c0,-1.083 -0.49,-2.109 -1.332,-2.789c-0.711,-0.534 -1.581,-0.815 -2.47,-0.797c-0.923,0.008 -1.823,0.285 -2.59,0.797c-0.721,0.84 -1.203,1.858 -1.395,2.948c-0.066,0.437 -0.244,0.848 -0.518,1.195c-0.272,0.324 -0.565,0.63 -0.876,0.917l-0.877,0.637l-1.315,0.837c-0.923,0.546 -1.815,1.144 -2.669,1.793c-2.147,1.643 -4.146,3.469 -5.977,5.459Zm273.846,-11.197c-0.557,1.993 -2.151,5.618 -0.478,7.69c2.112,0.757 3.985,3.028 6.535,2.112c1.912,-0.677 2.311,-2.709 3.466,-3.984l0,-2.192c-3.108,-2.55 -3.187,-3.984 -9.005,-3.984l-0.518,0.358Zm-198.979,7.611c0.348,-0.34 0.794,-0.563 1.275,-0.638c1.299,-2.691 1.371,-5.817 0.199,-8.566c-0.47,-0.255 -0.899,-0.577 -1.275,-0.957l-2.709,0c-0.558,0.399 -1.634,0.518 -2.192,0.957c-1.633,0.438 -1.992,1.036 -1.912,3.187c0.518,0.877 0,2.351 0,3.985c1.916,1.395 4.245,2.11 6.614,2.032Zm-15.539,-1.594l2.829,0c0.916,-0.877 1.952,-1.674 2.868,-2.51c-0.239,-1.395 -0.637,-2.949 -0.956,-3.985c-1.189,-0.743 -2.588,-1.078 -3.984,-0.956c-1.116,0.956 -2.271,0.956 -2.829,2.55c-0.558,1.594 -0.439,1.674 -0.359,3.148l2.431,1.753Zm74.786,-12.67c-0.488,-0.26 -1.043,-0.371 -1.593,-0.319c-2.511,2.988 -5.579,-0.956 -5.419,5.179c-0.418,0.854 -0.517,1.83 -0.279,2.75c0.558,1.793 2.231,2.271 3.984,2.55c2.661,0.446 5.301,-1.015 6.335,-3.507c0.598,-0.637 0.598,-0.996 0.638,-2.231c-1.156,-1.394 -1.673,-3.665 -3.666,-4.422Zm-143.995,4.661l-0.797,2.909l0.558,-0.359c0.279,-1.076 2.191,-8.208 3.347,-11.236c1.155,-3.028 2.151,-5.976 2.311,-6.175c1.246,-0.726 2.215,-1.848 2.749,-3.188c0.677,-2.152 0.956,-3.984 -1.275,-4.941c-0.564,-0.255 -1.174,-0.391 -1.793,-0.398c-1.796,-0.074 -3.395,1.185 -3.745,2.948c-0.227,1.471 0.13,2.974 0.996,4.184c0.697,1.079 0.83,2.431 0.358,3.626c-0.398,1.394 -2.47,11.714 -2.709,12.63Zm109.889,-4.303c-0.359,0.239 -0.319,0 -0.956,0.319c-0.485,0.675 -1.018,1.314 -1.594,1.912l0.638,2.869c1.027,0.672 2.239,1.006 3.466,0.956c0.717,-0.876 1.434,-0.956 1.873,-2.191c0.29,-0.593 0.401,-1.258 0.318,-1.913c-1.235,-1.275 -1.275,-1.952 -3.745,-1.952Zm-47.573,-3.984c0.716,-0.205 1.475,-0.205 2.191,0c1.793,0.836 1.793,3.187 2.51,4.741c-0.95,1.953 -2.309,3.679 -3.984,5.06c-1.913,0.917 -5.26,-1.912 -6.654,-2.829c0.159,-4.382 2.51,-4.86 4.741,-6.972l1.196,0Zm67.136,-1.474c0.262,-0.066 0.536,-0.066 0.797,0c1.647,1.425 3,3.157 3.985,5.1c-1.139,2.037 -2.473,3.959 -3.985,5.737c-1.397,0.134 -2.8,-0.202 -3.984,-0.956c-1.036,-0.837 -1.395,-2.112 -2.55,-2.869c-0.08,-2.032 -0.677,-4.462 0.119,-5.459c0.797,-0.995 1.992,-0.836 3.148,-1.553l2.47,0Zm-49.127,4.462l0,-2.55c-1.254,-0.965 -2.426,-2.031 -3.506,-3.187l-4.423,-0.319c-0.239,0.199 -0.717,0.398 -0.956,0.637c-1.793,1.674 -1.195,5.021 -0.638,7.61c2.63,0.279 3.706,1.793 5.977,2.072c0.886,-1.643 2.092,-3.092 3.546,-4.263Zm71.28,-10.12c-3.466,1.275 -6.135,0.438 -6.016,5.697c-0.257,0.476 -0.367,1.016 -0.319,1.554c1.575,1.022 3.055,2.182 4.423,3.467c1.164,0.034 2.328,-0.073 3.466,-0.319c1.757,-2.724 2.333,-6.048 1.594,-9.204c-0.877,-0.754 -1.991,-1.178 -3.148,-1.195Zm-131.524,4.104c-2.829,2.51 -4.781,4.502 -5.219,4.98l0,1.355l2.988,-1.674c1.974,-1.086 4.01,-2.057 6.096,-2.908c1.271,-0.511 2.617,-0.807 3.984,-0.877c1.729,-0.138 3.446,-0.391 5.14,-0.757c6.24,-1.986 11.912,-5.443 16.535,-10.08c3.073,-2.641 5.987,-5.462 8.726,-8.447l-6.773,1.155c-6.706,1.945 -13.133,4.744 -19.125,8.328c-4.423,2.528 -8.563,5.519 -12.352,8.925Zm114.75,2.231c0.239,0.319 0,0 0.279,0.637c1.116,0.558 1.235,1.076 2.869,1.275c0.648,0.24 1.377,0.119 1.912,-0.318c1.435,-0.478 1.913,-1.634 2.829,-2.55c0.049,-0.25 0.073,-0.504 0.073,-0.758c0,-2.186 -1.799,-3.984 -3.984,-3.984c-0.025,0 -0.049,0 -0.073,0c-0.795,0.321 -1.66,0.431 -2.51,0.319c-1.217,1.508 -1.726,3.47 -1.395,5.379Zm-108.375,-38.33c-4.023,5.488 -6.958,11.696 -8.646,18.288c-0.916,4.423 -4.383,15.181 -5.219,17.771l1.354,-0.319c0.478,-0.558 3.068,-3.745 6.256,-7.969c3.814,-4.954 7.251,-10.188 10.279,-15.658c1.825,-3.374 3.461,-6.845 4.901,-10.4c0.628,-1.637 1.147,-3.314 1.554,-5.02c0.678,-2.43 2.789,-7.49 3.626,-9.483c-1.575,0.842 -3.092,1.787 -4.542,2.829c-3.799,2.674 -7.046,6.057 -9.563,9.961Zm103.594,22.472c-2.749,2.47 -6.773,3.745 -5.698,9.164c2.21,1.228 4.731,1.782 7.252,1.594c0.956,-2.709 3.227,-2.072 3.984,-5.1l-2.231,-4.742c-1.594,-0.199 -1.873,-0.677 -3.307,-0.916Zm11.674,-2.231c3.25,-0.389 6.422,1.261 7.969,4.144c0.279,0.518 0,1.115 0,2.231c-1.434,1.195 -3.068,2.55 -4.423,3.984c-2.136,-0.043 -4.219,-0.677 -6.016,-1.833c-0.627,-1.431 -0.74,-3.037 -0.319,-4.542c-0.08,-3.067 0.837,-2.709 2.55,-3.984l0.239,0Zm-107.299,-3.148c-1.051,0.784 -2.001,1.694 -2.829,2.71l0.996,0.478c0.917,-0.797 5.14,-4.423 7.411,-6.415c2.271,-1.992 7.052,-5.538 12.591,-9.483c4.502,-3.187 6.534,-3.187 7.291,-2.988l0.598,-0.877l-0.877,-0.358c-0.901,-0.396 -1.724,-0.949 -2.43,-1.634c-0.67,-0.692 -1.03,-1.628 -0.996,-2.59l-1.196,0.319c-0.318,0.398 -1.474,1.952 -2.988,3.984c-1.514,2.032 -3.984,4.821 -5.618,6.574c-1.633,1.754 -3.984,3.706 -6.056,5.579c-2.072,1.872 -4.184,3.426 -5.897,4.701Zm22.113,-7.172c-2.468,1.134 -4.84,2.466 -7.092,3.985l2.271,-1.156c1.612,-0.79 3.276,-1.469 4.981,-2.032c1.593,-0.478 3.068,-0.956 4.343,-1.315c1.041,-0.335 2.144,-0.43 3.227,-0.279c0.428,0.131 0.842,0.304 1.235,0.518c0.409,0.233 0.835,0.433 1.275,0.598c0.844,0.46 1.866,0.46 2.71,0c1.233,-0.587 2.021,-1.836 2.021,-3.202c0,-0.788 -0.262,-1.555 -0.746,-2.177c-0.785,-0.943 -1.962,-1.473 -3.188,-1.434c-0.586,-0.006 -1.168,0.103 -1.713,0.319c-0.897,0.639 -1.589,1.525 -1.992,2.55c-0.192,0.396 -0.463,0.749 -0.797,1.035l-0.478,0.359l-0.598,0.319l-0.996,0.398l-1.435,0.518c-1.026,0.278 -2.037,0.61 -3.028,0.996Zm-12.989,-11.714l-1.793,2.431l0.638,0c0.677,-0.917 5.02,-6.853 7.172,-9.284c2.151,-2.43 3.984,-4.781 4.382,-4.901c1.419,-0.218 2.724,-0.905 3.706,-1.952c1.434,-1.753 2.311,-3.427 0.558,-5.1c-0.784,-0.81 -1.862,-1.27 -2.989,-1.275c-1.256,-0.028 -2.432,0.629 -3.068,1.713c-0.777,1.292 -1.006,2.842 -0.637,4.303c0.264,1.254 -0.093,2.561 -0.956,3.507c-0.797,0.876 -6.415,9.761 -7.013,10.558Zm49.685,-10.877c-2.024,-0.005 -4.046,0.115 -6.056,0.358c-3.57,0.589 -7.069,1.551 -10.439,2.869c-3.506,1.275 -6.614,2.55 -7.969,3.028c-2.47,0.797 -7.411,2.75 -8.765,3.268l0.279,0.597c0.996,0 4.821,-0.757 7.251,-1.036c1.751,-0.121 3.508,-0.121 5.26,0c1.952,0 3.984,0.199 5.936,0.359c1.953,0.159 3.785,0.279 5.778,0.358c2.205,0.068 4.411,-0.12 6.574,-0.557c2.211,-0.47 4.353,-1.22 6.375,-2.232c1.872,-0.916 3.586,-1.912 5.339,-2.829c1.753,-0.916 4.343,-2.111 5.698,-2.669c-2.032,0 -5.658,-0.478 -7.212,-0.757c-2.657,-0.479 -5.349,-0.732 -8.049,-0.757Zm-5.737,-15.938c-1.156,1.156 -2.431,2.351 -3.666,3.467c-1.969,1.764 -4.06,3.388 -6.255,4.861c-1.953,1.354 -3.985,2.669 -6.853,4.861c-4.901,3.665 -10.439,8.207 -11.953,9.443l-0.2,-0.718c0.319,-0.358 1.196,-1.354 2.232,-2.669c1.461,-1.802 2.793,-3.706 3.984,-5.698c1.015,-1.763 2.133,-3.466 3.347,-5.1c1.155,-1.753 2.908,-3.785 5.14,-6.853c0.478,-0.597 0.995,-1.035 1.315,-1.594l12.909,0Zm20.4,0c0.036,0.299 0.103,0.593 0.199,0.877c0.351,0.768 0.902,1.428 1.594,1.912l0.677,0.399l-0.319,1.275l-1.275,0c-1.164,-0.144 -2.341,-0.144 -3.506,0c-5.314,1.391 -10.554,3.053 -15.698,4.98c-5.489,1.963 -10.817,4.348 -15.938,7.132l-0.597,0l13.188,-6.853c5.336,-2.547 10.524,-5.394 15.539,-8.526c0.677,-0.399 1.155,-0.797 1.634,-1.196l4.502,0Zm11.435,7.371l0.996,0.279l0.877,0.319c0.613,0.371 1.024,1.003 1.115,1.713c0.598,1.275 0.359,3.387 -0.717,3.985c-1.246,0.57 -2.639,0.738 -3.984,0.478c-0.407,-0.159 -0.745,-0.455 -0.956,-0.837c-0.518,-0.637 -0.718,-0.876 -0.917,-0.876c-1.419,-0.541 -2.908,-0.877 -4.423,-0.996c-1.514,-0.08 -5.259,-0.957 -6.853,-0.957l-5.498,-0.597c-0.186,0 -0.339,-0.153 -0.339,-0.339c0,-0.186 0.153,-0.339 0.339,-0.339c1.554,-0.04 6.335,0.239 8.845,0.239l4.383,0c0.936,0.03 1.872,-0.05 2.789,-0.239c0.31,-0.125 0.604,-0.285 0.877,-0.478l1.115,-0.677c0.568,-0.387 1.227,-0.62 1.913,-0.678l0.438,0Zm23.906,-7.371c4.892,0.678 9.69,1.908 14.304,3.666l6.136,3.068c-3.951,0.767 -7.941,1.312 -11.953,1.634c-6.473,1.035 -13.1,0.502 -19.324,-1.554c-1.579,-0.709 -3.11,-1.521 -4.582,-2.431c-1.12,-0.695 -2.344,-1.206 -3.626,-1.514c-3.32,-0.766 -6.688,-1.312 -10.08,-1.633l0.836,-1.236l28.289,0Zm30.042,2.869c0.177,0.384 0.377,0.756 0.598,1.116c0.428,0.859 1.275,1.434 2.231,1.514c0.262,0.06 0.529,0.091 0.797,0.091c1.946,0 3.546,-1.601 3.546,-3.547c0,-0.003 0,-0.007 0,-0.011c-0.083,-0.742 -0.373,-1.446 -0.836,-2.032l-9.722,0c1.006,0.366 1.918,0.952 2.669,1.714c0.279,0.358 0.52,0.746 0.717,1.155Z" style="fill:rgb(0,83,152);"/>    </g></svg>