<?xml version="1.0" encoding="UTF-8" standalone="no"?><!DOCTYPE svg PUBLIC "-//W3C//DTD SVG 1.1//EN" "http://www.w3.org/Graphics/SVG/1.1/DTD/svg11.dtd"><svg width="100%" height="100%" viewBox="0 0 512 512" version="1.1" xmlns="http://www.w3.org/2000/svg" xmlns:xlink="http://www.w3.org/1999/xlink" xml:space="preserve" style="fill-rule:evenodd;clip-rule:evenodd;stroke-linejoin:round;stroke-miterlimit:2;"><title>My Blue Bricks</title><desc>My Blue Bricks is building a community of like-minded peers leveraging the power of many and learning together along the way. We facilitate various types of real estate projects as well as real estate management &amp; consulting services. We are excited about the future because we know we can shape it together with you.My Blue Bricks stands for secure investments into something tangible, physical: A brick. A brick cannot be moved easily, and does not evaporate just like that. A brick is there to stay, and so are we.Our Spain based company is focused on the generation of Crowdfunding Real Estate investment opportunities for our community.</desc>    <g transform="matrix(1.26334,0,0,0.550606,-195.581,249.01)">        <g transform="matrix(0.960722,0,0,2.13668,100.457,-507.588)">            <path d="M457,145.75c0,-53.95 -42.456,-97.75 -94.75,-97.75l-189.5,0c-52.294,0 -94.75,43.8 -94.75,97.75l0,195.5c0,53.95 42.456,97.75 94.75,97.75l189.5,0c52.294,0 94.75,-43.8 94.75,-97.75l0,-195.5Z" style="fill:rgb(0,177,248);"/>        </g>        <g transform="matrix(190.545,0,0,585.51,231.792,222.254)">            <path d="M0.074,-0.716l0.414,0c0.069,0 0.122,0.017 0.159,0.051c0.037,0.035 0.055,0.077 0.055,0.127c0,0.043 -0.013,0.079 -0.039,0.109c-0.018,0.02 -0.044,0.036 -0.078,0.048c0.052,0.013 0.09,0.034 0.114,0.064c0.024,0.03 0.036,0.068 0.036,0.113c0,0.037 -0.008,0.071 -0.026,0.1c-0.017,0.03 -0.04,0.054 -0.07,0.071c-0.019,0.011 -0.047,0.018 -0.084,0.023c-0.05,0.007 -0.083,0.01 -0.099,0.01l-0.382,0l0,-0.716Zm0.223,0.281l0.096,0c0.035,0 0.059,-0.006 0.072,-0.018c0.014,-0.012 0.02,-0.029 0.02,-0.051c0,-0.021 -0.006,-0.038 -0.02,-0.049c-0.013,-0.012 -0.037,-0.018 -0.07,-0.018l-0.098,0l0,0.136Zm0,0.281l0.113,0c0.038,0 0.065,-0.007 0.08,-0.02c0.016,-0.014 0.024,-0.032 0.024,-0.055c0,-0.021 -0.008,-0.038 -0.024,-0.051c-0.015,-0.012 -0.042,-0.019 -0.081,-0.019l-0.112,0l0,0.145Z" style="fill:white;fill-rule:nonzero;"/>        </g>        <g transform="matrix(5.5099e-17,-2.06463,0.939643,1.32015e-16,36.8231,1010.94)">            <path d="M585,395.601c0,-9.162 -7.768,-16.601 -17.336,-16.601l-168.328,0c-9.568,0 -17.336,7.439 -17.336,16.601l0,47.798c0,9.162 7.768,16.601 17.336,16.601l168.328,0c9.568,0 17.336,-7.439 17.336,-16.601l0,-47.798Z" style="fill:white;"/>        </g>    </g></svg>