<?xml version="1.0" encoding="UTF-8" standalone="no"?><!DOCTYPE svg PUBLIC "-//W3C//DTD SVG 1.1//EN" "http://www.w3.org/Graphics/SVG/1.1/DTD/svg11.dtd"><svg width="100%" height="100%" viewBox="0 0 512 512" version="1.1" xmlns="http://www.w3.org/2000/svg" xmlns:xlink="http://www.w3.org/1999/xlink" xml:space="preserve" style="fill-rule:evenodd;clip-rule:evenodd;stroke-linejoin:round;stroke-miterlimit:2;"><title>FundingSecure</title><desc>As one of the country’s most established Peer-to-Peer platforms, we know that alternative investments are a great way to diversity your portfolio. From commercial and residential property to fine art, collectables and classic cars. Each of our opportunities offer the potential for high returns with low entry points.</desc>    <g transform="matrix(73.7788,0,0,42.5844,-3084.83,-376.124)">        <g transform="matrix(0.205192,0,0,0.355501,41.7431,10.0265)">            <path d="M0.401,26.417c0.029,-5.802 2.284,-10.904 4.173,-13.887c-2.218,-1.095 -2.712,-3.149 -2.712,-5.5c0,-3.501 2.315,-6.344 6.399,-6.344c4.084,0 6.399,2.843 6.399,6.344c0,2.25 -0.369,4.228 -2.432,5.355c1.941,2.962 4.237,8.134 4.267,14.032l-16.094,0Z" style="fill:rgb(147,192,32);"/>        </g>        <g transform="matrix(0.205192,0,0,0.355501,45.3533,10.0265)">            <path d="M0.401,26.417c0.029,-5.802 2.284,-10.904 4.173,-13.887c-2.218,-1.095 -2.712,-3.149 -2.712,-5.5c0,-3.501 2.315,-6.344 6.399,-6.344c4.084,0 6.399,2.843 6.399,6.344c0,2.25 -0.369,4.228 -2.432,5.355c1.941,2.962 4.237,8.134 4.267,14.032l-16.094,0Z" style="fill:rgb(33,105,153);"/>        </g>    </g></svg>