<?xml version="1.0" encoding="UTF-8" standalone="no"?><!DOCTYPE svg PUBLIC "-//W3C//DTD SVG 1.1//EN" "http://www.w3.org/Graphics/SVG/1.1/DTD/svg11.dtd"><svg width="100%" height="100%" viewBox="0 0 512 512" version="1.1" xmlns="http://www.w3.org/2000/svg" xmlns:xlink="http://www.w3.org/1999/xlink" xml:space="preserve" style="fill-rule:evenodd;clip-rule:evenodd;stroke-linejoin:round;stroke-miterlimit:2;"><title>TrustBuddy</title><desc>TrustBuddy is a unique peer-to-peer company which mediates 30-day loans of up to 10 000 SEK between private parties. As a lender, you can expect a better return than at the bank.TrustBuddy is the world's largest short-term peer-to-peer company and are active in 6 countries throughout Europe.</desc>    <g transform="matrix(2.19911,0,0,2.19911,-62.0947,-4.95098)">        <g transform="matrix(188.295,0,0,197.606,17.4515,188.471)">            <path d="M0.633,-0.567l-0.206,0l-0.076,0.577l-0.175,0l0.076,-0.577l-0.192,0l0.021,-0.154l0.573,0l-0.021,0.154Z" style="fill:rgb(107,181,34);fill-rule:nonzero;"/>        </g>        <g transform="matrix(188.295,0,0,197.606,147.974,189.471)">            <path d="M-0.04,0.01l0.1,-0.737l0.34,0.001c0.082,0.005 0.112,0.031 0.153,0.065c0.042,0.033 0.048,0.081 0.044,0.141c-0.004,0.072 -0.046,0.124 -0.124,0.158c0.028,0.009 0.05,0.028 0.066,0.055c0.015,0.026 0.022,0.058 0.02,0.095c-0.005,0.067 -0.031,0.119 -0.079,0.156c-0.048,0.037 -0.119,0.066 -0.202,0.066l-0.318,0Zm0.214,-0.297l-0.015,0.142l0.128,0c0.035,0 0.088,-0.02 0.094,-0.067c0.005,-0.036 -0.015,-0.071 -0.039,-0.075l-0.168,0Zm0.02,-0.137l0.162,0.001c0.017,0.004 0.067,-0.048 0.071,-0.077c0.007,-0.042 -0.026,-0.066 -0.058,-0.07l-0.153,-0.002l-0.022,0.148Z" style="fill:rgb(107,181,34);fill-rule:nonzero;"/>        </g>    </g></svg>