<?xml version="1.0" encoding="UTF-8" standalone="no"?><!DOCTYPE svg PUBLIC "-//W3C//DTD SVG 1.1//EN" "http://www.w3.org/Graphics/SVG/1.1/DTD/svg11.dtd"><svg width="100%" height="100%" viewBox="0 0 512 512" version="1.1" xmlns="http://www.w3.org/2000/svg" xmlns:xlink="http://www.w3.org/1999/xlink" xml:space="preserve" style="fill-rule:evenodd;clip-rule:evenodd;stroke-linejoin:round;stroke-miterlimit:2;"><title>Right Choice Finance</title><desc>Our mission is to bring affordable loan products to Filipinos and Filipino businesses and to help them build their credit and access to credit facilities. The process is fast and easy – everything can be done online and once approved your funds are immediately available via check exchange.</desc>    <g transform="matrix(0.35054,0,0,0.350715,-24.4492,-24.5878)">        <path d="M672,1417.5c-26.3,-3.6 -49.5,-13.7 -70.1,-30.4c-4.1,-3.3 -118.2,-116.8 -253.5,-252.3c-229.6,-229.8 -246.6,-247 -252.7,-256.4c-10.2,-15.4 -15.9,-28.8 -20.9,-48.9c-1.9,-7.8 -2.2,-11.6 -2.2,-29.5c0,-17.9 0.3,-21.7 2.2,-29.5c5,-20.1 10.7,-33.5 20.9,-48.9c6.1,-9.4 23.1,-26.6 252.7,-256.4c135.3,-135.5 249.4,-249 253.5,-252.3c50.2,-40.8 121.6,-42.2 173.4,-3.5c3.1,2.3 105.8,104.2 228.3,226.5l222.7,222.4l18.8,-19.1c15,-15.2 19.5,-19.2 22.1,-19.7c1.8,-0.3 59.4,-0.4 128,-0.3l124.8,0.3l3.7,3.8c3.6,3.5 3.8,4.1 3.8,10.1l0,6.3l-245.2,245.9c-337.3,338.3 -497.6,498.1 -505.6,504c-31.3,23.2 -67.9,32.9 -104.7,27.9Zm52.2,-90.4c19,-4.1 38,-12.2 54.8,-23.2c8.7,-5.7 36.4,-33.2 319.8,-316.3c170.6,-170.5 310.2,-310.4 310.2,-310.8c0,-0.5 -23.1,-0.8 -51.4,-0.8l-51.4,0l-280.9,281.4c-228.2,228.7 -282.1,282.3 -287.8,285.8c-15.5,9.8 -27.2,13.2 -45,13.2c-12.7,0 -19.6,-1.3 -30.7,-5.8c-13.2,-5.3 -16,-7.8 -62.8,-54.3c-25.1,-24.9 -46,-45.3 -46.5,-45.3c-0.6,0 -12.5,11.5 -26.5,25.5l-25.5,25.6l47,46.7c31.6,31.5 49.6,48.6 55,52.4c19.9,14.1 42.6,23.3 67.1,27.3c12.9,2.1 41.7,1.3 54.6,-1.4Zm-237.5,-189.3c13.4,-13.4 24.3,-24.7 24.3,-25.3c0,-0.5 -58.2,-59.3 -129.4,-130.5c-71.1,-71.2 -130.8,-131.7 -132.6,-134.3c-4.3,-6.5 -9.4,-17.8 -11.6,-25.7c-2.5,-9.1 -2.6,-31.9 -0.1,-41c2.3,-8.6 8.9,-22.2 14,-29c2.2,-3 90.1,-91.5 195.1,-196.6c154.6,-154.6 192.5,-192.1 198.6,-196c22.5,-14.6 49.9,-17.3 76.2,-7.4c12.2,4.6 20,10.9 49.3,40.4c15.4,15.4 64.9,65.2 110,110.6c45.1,45.4 121.9,122.6 170.6,171.6l88.6,89.2l24.9,-24.9l24.8,-24.9l-14.4,-14.7c-8,-8.1 -83.6,-84.3 -168,-169.3c-84.5,-85 -166.4,-167.5 -182,-183.4c-15.7,-15.8 -31.9,-31.6 -36,-35.1c-55.3,-46.2 -132.5,-48.5 -190.6,-5.8c-6.7,4.9 -57.5,55.2 -202.3,200.1c-106.3,106.4 -196,196.9 -199.2,201c-37,46.5 -43,112.7 -15,165.9c10.5,19.9 9,18.3 148,157.6c72.4,72.4 131.8,131.7 132.1,131.7c0.3,0 11.4,-10.9 24.7,-24.2Z" style="fill:rgb(2,47,143);fill-rule:nonzero;"/>        <g transform="matrix(1,0,0,1,-153.084,397.618)">            <g transform="matrix(1,0,0,1,153.084,-397.618)">                <path d="M880.274,902.588c27.548,0 49.912,22.365 49.912,49.912c0,27.547 -22.364,49.912 -49.912,49.912l-451.35,0l-97.999,-99.824l549.349,0Z" style="fill:rgb(223,33,46);"/>            </g>            <g transform="matrix(64,0,0,64,568.055,577.812)">                <path d="M0.074,0l0,-0.716l0.49,0l0,0.121l-0.346,0l0,0.17l0.299,0l0,0.121l-0.299,0l0,0.304l-0.144,0Z" style="fill:white;fill-rule:nonzero;"/>            </g>            <g transform="matrix(64,0,0,64,633.149,577.812)">                <rect x="0.068" y="-0.716" width="0.145" height="0.716" style="fill:white;fill-rule:nonzero;"/>            </g>            <g transform="matrix(64,0,0,64,681.93,577.812)">                <path d="M0.074,0l0,-0.716l0.141,0l0.293,0.478l0,-0.478l0.134,0l0,0.716l-0.145,0l-0.289,-0.467l0,0.467l-0.134,0Z" style="fill:white;fill-rule:nonzero;"/>            </g>            <g transform="matrix(64,0,0,64,755.149,577.812)">                <path d="M0.718,0l-0.157,0l-0.062,-0.163l-0.287,0l-0.059,0.163l-0.153,0l0.279,-0.716l0.153,0l0.286,0.716Zm-0.266,-0.283l-0.098,-0.266l-0.097,0.266l0.195,0Z" style="fill:white;fill-rule:nonzero;"/>            </g>            <g transform="matrix(64,0,0,64,829.368,577.812)">                <path d="M0.074,0l0,-0.716l0.141,0l0.293,0.478l0,-0.478l0.134,0l0,0.716l-0.145,0l-0.289,-0.467l0,0.467l-0.134,0Z" style="fill:white;fill-rule:nonzero;"/>            </g>            <g transform="matrix(64,0,0,64,908.709,578.304)">                <path d="M0.531,-0.263l0.14,0.044c-0.022,0.078 -0.057,0.136 -0.107,0.174c-0.05,0.038 -0.114,0.057 -0.19,0.057c-0.096,0 -0.174,-0.032 -0.235,-0.097c-0.061,-0.065 -0.092,-0.154 -0.092,-0.267c0,-0.119 0.031,-0.211 0.093,-0.277c0.061,-0.066 0.142,-0.099 0.242,-0.099c0.088,0 0.159,0.026 0.214,0.078c0.032,0.03 0.057,0.074 0.073,0.131l-0.143,0.035c-0.009,-0.037 -0.026,-0.067 -0.053,-0.088c-0.027,-0.022 -0.06,-0.032 -0.098,-0.032c-0.053,0 -0.096,0.019 -0.129,0.057c-0.033,0.038 -0.05,0.099 -0.05,0.185c0,0.09 0.017,0.155 0.049,0.193c0.033,0.038 0.075,0.058 0.127,0.058c0.038,0 0.072,-0.013 0.099,-0.037c0.028,-0.024 0.048,-0.063 0.06,-0.115Z" style="fill:white;fill-rule:nonzero;"/>            </g>            <g transform="matrix(64,0,0,64,977.309,577.835)">                <path d="M0.073,0l0,-0.716l0.531,0l0,0.121l-0.387,0l0,0.159l0.36,0l0,0.121l-0.36,0l0,0.194l0.4,0l0,0.121l-0.544,0Z" style="fill:white;fill-rule:nonzero;"/>            </g>        </g>        <path d="M329.9,1030.3c-139,-139.3 -137.5,-137.7 -148,-157.6c-28,-53.2 -22,-119.4 15,-165.9c3.2,-4.1 92.9,-94.6 199.2,-201c144.8,-144.9 195.6,-195.2 202.3,-200.1c52.1,-38.2 121.3,-40.7 174.3,-6.1c13.7,8.9 21.7,16.1 52.3,47c15.6,15.9 97.5,98.4 182,183.4c84.4,85 160,161.2 168,169.3l14.4,14.7l-24.8,24.9l-24.9,24.9l-88.6,-89.2c-48.7,-49 -125.5,-126.2 -170.6,-171.6c-45.1,-45.4 -94.6,-95.2 -110,-110.6c-34,-34.2 -39.9,-38.5 -60.5,-44c-8.1,-2.2 -23.6,-2.9 -32.7,-1.4c-10.5,1.6 -23.3,6.5 -32.3,12.4c-6.1,3.9 -44,41.4 -198.6,196c-105,105.1 -192.9,193.6 -195.1,196.6c-5.1,6.8 -11.7,20.4 -14,29c-2.5,9.1 -2.4,31.9 0.1,41c2.2,7.9 7.3,19.2 11.6,25.7c1.8,2.6 61.5,63.1 132.6,134.3c71.2,71.2 129.4,130 129.4,130.5c0,1 -48,49.5 -49,49.5c-0.3,0 -59.7,-59.3 -132.1,-131.7Z" style="fill:rgb(35,86,186);fill-rule:nonzero;"/>        <path id="layer106" d="M669.6,1328.5c-24.5,-4 -47.2,-13.2 -67.1,-27.3c-5.4,-3.8 -23.4,-20.9 -55,-52.4l-47,-46.7l25.5,-25.6c14,-14 25.9,-25.5 26.5,-25.5c0.5,0 21.4,20.4 46.5,45.3c46.8,46.5 49.6,49 62.8,54.3c11.1,4.5 18,5.8 30.7,5.8c17.8,0 29.5,-3.4 45,-13.2c5.7,-3.5 59.6,-57.1 287.8,-285.8l280.9,-281.4l51.4,0c28.3,0 51.4,0.3 51.4,0.8c0,0.4 -139.6,140.3 -310.2,310.8c-283.4,283.1 -311.1,310.6 -319.8,316.3c-16.8,11 -35.8,19.1 -54.8,23.2c-12.9,2.7 -41.7,3.5 -54.6,1.4Z" style="fill:rgb(255,241,0);fill-rule:nonzero;"/>        <path d="M1095,892l-4.416,0l4.416,-4.424l0,4.424Zm-384,-22c20.6,-3.3 40.1,-21.2 45.4,-41.6c7.5,-29.1 -9.4,-59.3 -38.4,-68.5c-9.2,-3 -24.1,-2.9 -33,0.1c-19.4,6.5 -33.6,21.8 -38.4,41.1c-6.6,27 8.8,56 35.2,65.9c10,3.8 18.3,4.7 29.2,3Zm-228.9,-1.9c10.1,-3.4 16.3,-7.3 23.7,-14.6c7.1,-7.1 8.5,-10.2 6,-12.3c-1.4,-1.1 -13.6,-6.2 -14.9,-6.2c-0.5,0 -3.6,2.4 -6.9,5.4c-7,6.3 -12.4,9.2 -19.8,10.6c-9.7,1.8 -21.3,-2.1 -28.9,-9.6c-14.9,-14.9 -15,-38.8 -0.1,-53.7c6.9,-6.9 14.3,-10 23.8,-10.1c9.4,0 16.6,3 24.5,10.5c6.3,5.9 7.6,6 17.8,1.6c6.9,-3.1 7.2,-4.6 2,-11.1c-10.2,-12.5 -27.5,-20.5 -44.4,-20.6c-8.2,0 -20.4,3.5 -27.9,7.9c-26,15.5 -35.2,46.6 -21.8,74.1c7.1,14.7 25.3,27.7 42.3,30.4c5.7,0.8 19.1,-0.4 24.6,-2.3Zm413.9,-0.1c9,-3 17.1,-8.3 23.9,-15.6c7.8,-8.3 7.8,-9.9 -0.1,-13.6c-9.8,-4.7 -9.8,-4.7 -17.2,2.1c-8.3,7.4 -15.2,10.3 -24.8,10.3c-13,0 -24.5,-7.8 -31,-21c-3,-6 -3.3,-7.5 -3.3,-15.7c0,-7.7 0.4,-9.8 2.7,-14.7c3.8,-8.3 7.5,-12.6 14,-16.9c7.3,-4.7 16.3,-6.6 23.8,-5c7,1.5 12.1,4.3 18.7,10.2c6.4,5.8 7.6,6 17.6,1.6c6.8,-3.1 7.1,-4.5 2.3,-10.8c-6.7,-8.9 -17.7,-15.7 -30.3,-19c-28.7,-7.3 -58.2,9.3 -67.9,38.1c-1.4,4.2 -1.9,8.3 -1.8,17c0,9.9 0.4,12.4 2.6,18.1c7.7,19.6 23.8,33.2 43.8,36.9c6.6,1.3 20.3,0.3 27,-2Zm-345.9,0c1.8,-1 1.9,-2.3 1.9,-20.5c0,-18.9 0.1,-19.4 2.2,-20.9c3.4,-2.4 47.3,-2.4 50,0.1c1.6,1.4 1.8,3.5 1.8,20.4c0,15.7 0.3,19 1.6,20.3c2.2,2.2 15.6,2.2 17.8,0c1.4,-1.4 1.6,-7.6 1.6,-53.1c0,-60 0.9,-55.3 -10.3,-55.3c-11,0 -10.7,-0.6 -10.7,23.8c0,17.7 -0.2,20.8 -1.7,22.4c-1.5,1.6 -3.6,1.8 -24.7,1.8c-19.3,0 -23.5,-0.3 -25.4,-1.6c-2.2,-1.5 -2.2,-2 -2.2,-22.4c0,-17.6 -0.2,-21.1 -1.6,-22.4c-2.1,-2.2 -14.1,-2.2 -17.2,0l-2.2,1.5l0,51.6c0,60 -0.9,55.3 10.2,55.3c3.8,0 7.8,-0.5 8.9,-1Zm249,0c1.8,-1 1.9,-2.7 1.9,-53.3c0,-39.4 -0.3,-52.6 -1.2,-53.5c-1.9,-1.9 -16.3,-1.6 -18.2,0.4c-1.4,1.4 -1.6,7.5 -1.6,52.6c0,59.4 -0.9,54.8 10.2,54.8c3.8,0 7.8,-0.5 8.9,-1Zm224.3,-0.6c1.1,-1.1 1.6,-3.4 1.6,-7.6c0,-10.2 1.2,-9.8 -29.9,-9.8c-15,0 -27.3,-0.4 -28.1,-1c-2.3,-1.4 -2.8,-19.2 -0.6,-22.5l1.6,-2.5l23.8,0c17.2,0 24.1,-0.3 25,-1.2c0.7,-0.7 1.2,-4.2 1.2,-8.5c0,-7 -0.1,-7.4 -2.6,-8.3c-1.4,-0.6 -12.9,-1 -25.5,-1l-22.9,0l-1,-2.6c-0.6,-1.4 -1,-6.5 -1,-11.2c0,-14.1 -2,-13.2 30,-13.2c31.3,0 30,0.4 30,-9.2c0,-10.4 2.5,-9.8 -39.7,-9.8c-23.2,0 -37.1,0.4 -38.4,1c-1.8,1 -1.9,2.7 -1.9,53.8c0,39.7 0.3,53.1 1.2,54c0.9,0.9 10.8,1.2 38.4,1.2c32.5,0 37.5,-0.2 38.8,-1.6Zm-327.5,-16.4c-10.5,-1.8 -20.5,-9.7 -26.2,-20.5c-3,-5.6 -3.2,-6.7 -3.2,-16c0,-9 0.3,-10.6 2.9,-16c5.4,-11 14.8,-18.2 26.9,-20.6c15.4,-3.1 32.4,7.5 38.8,24.1c3,8 2.4,20.3 -1.4,28.2c-7.1,14.5 -23,23.3 -37.8,20.8Zm-57,-117.1c7.9,-1.9 18.7,-7.8 24.4,-13.3c10.2,-9.9 15.1,-20.5 16.4,-35.3c1,-11.8 2.5,-11.3 -30.9,-11.3c-17.3,0 -28.7,0.4 -29.9,1c-1.6,0.9 -1.9,2.2 -1.9,8.5c0,6.3 0.3,7.6 1.9,8.5c1.2,0.6 9.2,1 19.1,1c19.5,0 19.9,0.2 15.6,7.4c-3,5.2 -7,8.7 -14,12.4c-4.6,2.4 -6.2,2.7 -15.1,2.7c-8.9,0 -10.6,-0.3 -15.1,-2.7c-6.7,-3.5 -13.4,-10.4 -17,-17.5c-2.6,-5.3 -2.9,-6.7 -2.9,-15.8c0,-8.9 0.3,-10.6 2.8,-15.6c4.1,-8.4 9.8,-14.3 17.4,-18.1c12.9,-6.3 27.1,-3.9 38.4,6.7c2.7,2.5 5.7,4.5 6.8,4.5c2.7,0 14.5,-8.1 14.9,-10.2c0.5,-2.5 -11.3,-13.8 -18.3,-17.5c-18.2,-9.6 -38.7,-9.1 -56.4,1.4c-12.5,7.4 -23.1,22.2 -26,36.1c-1.5,7.4 -1.4,19.7 0.4,26.2c5.7,21.3 23.9,38 45.8,42c5.9,1 16.7,0.5 23.6,-1.1Zm-204.7,-1.6c1.6,-1.4 1.8,-3.3 1.8,-16.4c0,-13.6 0.2,-14.9 1.9,-15.9c2.6,-1.4 14.4,-1.3 17.5,0.2c1.5,0.6 7.3,7.7 13.5,16.3c7.4,10.2 11.9,15.6 13.9,16.4c1.6,0.7 6.5,1.1 11.7,0.9c7.6,-0.3 9,-0.6 9.3,-2c0.2,-1.1 -4.5,-8.3 -11.2,-17.4c-12.5,-16.9 -12.7,-17.7 -6.7,-20.8c1.5,-0.8 4.5,-3.4 6.5,-5.7c13.9,-15.3 12.5,-41.9 -2.8,-55.1c-3.5,-3.1 -10.8,-6.5 -16.4,-7.7c-6.8,-1.4 -53.6,-1.5 -56.3,-0.1c-1.8,1 -1.9,2.7 -1.9,54c0,60.7 -1.1,54.9 10.4,55c5.1,0 7.4,-0.4 8.8,-1.7Zm282.2,0.1c1.3,-1.3 1.6,-4.6 1.6,-20.1c0,-15.9 0.2,-18.9 1.7,-20.5c1.5,-1.6 3.6,-1.8 25.1,-1.8c20.5,0 23.8,0.2 25.4,1.7c1.6,1.4 1.8,3.5 1.8,20.4c0,22.4 -0.3,21.9 10.2,21.9c11.8,0 10.8,5 10.8,-54.8c0,-46.6 -0.2,-51.7 -1.7,-53.4c-1.3,-1.4 -3.1,-1.8 -8.9,-1.8c-10.8,0 -10.4,-0.9 -10.4,24c0,20.4 0,20.9 -2.2,22.4c-1.9,1.3 -6,1.6 -24.8,1.6c-18.8,0 -22.9,-0.3 -24.8,-1.6c-2.2,-1.5 -2.2,-2 -2.2,-22.4c0,-24.8 0.3,-24 -10.2,-24c-11.8,0 -10.8,-5 -10.8,54.8c0,46.6 0.2,51.7 1.7,53.4c2.2,2.4 15.3,2.6 17.7,0.2Zm172.5,-108.4l1.5,2.2c1,1.4 1.6,4.4 1.6,7.9c0,8.4 -0.9,8.9 -16.1,8.9c-8.4,0 -12.9,0.4 -13.7,1.2c-0.9,0.9 -1.2,11.9 -1.2,43.5c0,41 -0.1,42.4 -2,44.3c-1.6,1.6 -3.3,2 -8.7,2c-11.3,-0.1 -10.3,4.2 -10.3,-44.9c0,-40.2 -0.1,-42.9 -1.8,-44.4c-1.5,-1.4 -4.1,-1.7 -14.4,-1.7c-10.8,0 -12.7,-0.2 -14.1,-1.8c-2.2,-2.4 -2.3,-11.9 -0.1,-15l1.5,-2.2l77.8,0Zm-344.8,109c1.8,-1 1.9,-2.7 1.9,-53.3c0,-39.4 -0.3,-52.6 -1.2,-53.5c-0.7,-0.7 -4.2,-1.2 -8.7,-1.2c-12.1,0 -11.1,-5 -11.1,53.9c0,44.2 0.2,50.9 1.6,52.9c1.3,1.9 2.4,2.2 8.5,2.2c3.9,0 7.9,-0.5 9,-1Zm-105.1,-52.7c-0.8,-0.3 -1.8,-1.1 -2.2,-1.7c-1.3,-1.9 -0.9,-33.1 0.4,-34.4c0.8,-0.8 5.9,-1.2 16.5,-1.2c16.4,0 18.7,0.5 22.9,5.2c5.3,5.8 5.9,18.9 1,25.2c-4.6,6.1 -7.3,7 -23.1,7.3c-7.7,0.1 -14.7,0 -15.5,-0.4Z" style="fill:white;"/>    </g></svg>