<?xml version="1.0" encoding="UTF-8" standalone="no"?><!DOCTYPE svg PUBLIC "-//W3C//DTD SVG 1.1//EN" "http://www.w3.org/Graphics/SVG/1.1/DTD/svg11.dtd"><svg width="100%" height="100%" viewBox="0 0 512 512" version="1.1" xmlns="http://www.w3.org/2000/svg" xmlns:xlink="http://www.w3.org/1999/xlink" xml:space="preserve" style="fill-rule:evenodd;clip-rule:evenodd;stroke-linejoin:round;stroke-miterlimit:2;"><title>Maxcredit</title><desc></desc>    <g>        <g transform="matrix(1.71004,0,0,1.86235,-273.257,-141.611)">            <path d="M444,104.165c0,-7.818 -6.912,-14.165 -15.427,-14.165l-238.146,0c-8.515,0 -15.427,6.347 -15.427,14.165l0,218.67c0,7.818 6.912,14.165 15.427,14.165l238.146,0c8.515,0 15.427,-6.347 15.427,-14.165l0,-218.67Z" style="fill:rgb(255,95,7);"/>        </g>        <g transform="matrix(7.10292,0,0,7.10292,-1503.64,-1766.98)">            <path d="M246.15,269.43c2.26,0 4.01,0.47 5.24,1.41c1.22,0.95 2.01,2.25 2.34,3.91c1.04,-1.51 2.53,-2.77 4.48,-3.79c1.94,-1.02 3.96,-1.53 6.05,-1.53c2.4,0 4.27,0.64 5.61,1.92c1.34,1.29 2.01,2.98 2.01,5.1c0,1.04 -0.27,2.83 -0.8,5.37l-3.85,18.37l-8.12,0l3.85,-18.37c0.47,-2.3 0.71,-3.6 0.71,-3.9c0,-0.83 -0.25,-1.49 -0.75,-1.97c-0.5,-0.48 -1.25,-0.72 -2.25,-0.72c-2.02,0 -3.82,1.07 -5.41,3.2c-1.15,1.53 -2.13,4.23 -2.94,8.12l-2.86,13.64l-8.12,0l3.79,-18.17c0.44,-2.09 0.65,-3.45 0.65,-4.07c0,-0.79 -0.27,-1.45 -0.8,-1.95c-0.54,-0.51 -1.28,-0.77 -2.23,-0.77c-0.88,0 -1.8,0.27 -2.74,0.79c-0.94,0.53 -1.77,1.26 -2.48,2.18c-0.7,0.93 -1.31,2.12 -1.82,3.57c-0.23,0.68 -0.6,2.22 -1.11,4.61l-2.88,13.81l-8.13,0l6.29,-30.05l7.64,0l-0.77,3.65c2.99,-2.91 6.12,-4.36 9.4,-4.36Z" style="fill:white;"/>        </g>    </g></svg>