<?xml version="1.0" encoding="UTF-8" standalone="no"?><!DOCTYPE svg PUBLIC "-//W3C//DTD SVG 1.1//EN" "http://www.w3.org/Graphics/SVG/1.1/DTD/svg11.dtd"><svg width="100%" height="100%" viewBox="0 0 512 512" version="1.1" xmlns="http://www.w3.org/2000/svg" xmlns:xlink="http://www.w3.org/1999/xlink" xml:space="preserve" style="fill-rule:evenodd;clip-rule:evenodd;stroke-linejoin:round;stroke-miterlimit:2;"><title>Adventureros</title><desc></desc>    <g id="layer101" transform="matrix(0.50667,0,0,0.50667,-86.8197,66.3657)">        <path d="M1094.8,583.4c-28,-14 -50.8,-25.9 -50.8,-26.4c0,-0.6 -0.9,-2.9 -1.9,-5.3c-12.9,-28.4 -15.9,-35.2 -15.7,-35.5c0.2,-0.2 24.9,12 55,27c51.6,25.8 54.6,27.4 55.2,30.3c0.3,1.6 2.6,9.9 5,18.4c2.5,8.5 4.3,15.8 4.2,16.2c-0.2,0.4 -23.1,-10.7 -51,-24.7Z" style="fill:rgb(29,112,183);fill-rule:nonzero;"/>        <path d="M343,207.5c-48.5,-24.3 -50.4,-25.4 -47.5,-26.4c1.7,-0.6 3.9,-1.6 5,-2.1c1.1,-0.5 6.3,-2.5 11.5,-4.5c5.2,-1.9 11,-4.2 12.8,-5c1.8,-0.8 3.9,-1.5 4.7,-1.5c1.5,0 107.3,52.4 108.8,53.9c0.4,0.4 -2.5,1.5 -6.5,2.4c-29.2,6.7 -37.9,8.7 -38.1,8.6c-0.1,0 -22.9,-11.4 -50.7,-25.4Z" style="fill:rgb(29,112,183);fill-rule:nonzero;"/>        <path d="M1137.8,746.1c-7.2,-2.3 -13.5,-6 -18.5,-10.8c-5.9,-5.6 -8.1,-9.3 -11.8,-19.5c-6.7,-18.7 -11.4,-31.5 -14.3,-39c-1.7,-4.3 -2.8,-7.8 -2.4,-7.8c1.9,0 83.5,41.6 84.2,43c0.5,0.9 1.8,5.2 2.9,9.5l2,8l-2.1,4.4c-1.5,3.1 -3.7,5.4 -8,8.1c-9.4,6.1 -21,7.6 -32,4.1Z" style="fill:rgb(115,204,18);fill-rule:nonzero;"/>        <g transform="matrix(2.35196,0,0,2.35196,0.5,-175.8)">            <path d="M427.218,275.812c-0.765,-1.658 -38.479,-66.752 -38.819,-67.263c-1.233,-1.998 -8.036,-10.927 -11.394,-14.966c-13.691,-16.412 -26.404,-26.616 -38.777,-31.038c-11.862,-4.209 -28.571,-6.59 -46.684,-6.59c-20.919,0 -51.149,3.274 -80.869,8.759c-3.401,0.595 -6.505,1.148 -6.888,1.19c-0.765,0.043 -50.468,-24.405 -50.468,-24.873c-0.043,-0.17 6.165,-2.636 20.153,-8.036c1.658,-0.637 7.016,-2.721 11.905,-4.634c7.398,-2.934 27.297,-10.459 34.014,-12.925c21.217,-7.696 43.921,-15.477 57.399,-19.644c2.806,-0.85 5.868,-1.828 6.803,-2.125c0.936,-0.341 3.444,-1.106 5.527,-1.701c2.126,-0.638 4.975,-1.488 6.378,-1.913c14.839,-4.507 37.586,-10.162 49.746,-12.331c11.607,-2.083 17.262,-2.678 26.573,-2.721c13.606,-0.042 16.625,0.936 23.215,7.568c7.781,7.866 15.221,20.239 24.575,41.073c4.55,10.034 4.337,9.609 8.504,20.195c2.041,5.145 3.912,9.737 4.124,10.205c0.213,0.467 1.148,2.976 2.041,5.527c0.935,2.594 2.211,6.038 2.849,7.653c1.955,5.187 11.224,32.314 11.224,32.909c0,0.127 27.892,94.219 29.04,98.513c0.553,2.126 1.148,4.125 1.318,4.38c0.17,0.255 0.042,0.467 -0.255,0.467c-0.298,0 -11.65,-5.569 -25.171,-12.33l-24.617,-12.33l-1.446,-3.019Z" style="fill:rgb(115,204,18);fill-rule:nonzero;"/>        </g>        <path d="M207.9,279.9c-9.8,-1.4 -19.2,-6 -25.5,-12.5c-3.7,-3.8 -6.3,-8.9 -8,-15.4c-1.3,-5.2 -1.4,-7.3 -0.4,-12.5c1.7,-9.2 3.9,-12.1 11.5,-15.6c3.6,-1.6 6.9,-2.9 7.4,-2.9c0.9,0 18.8,8.6 63.6,30.5c19.7,9.7 21.7,10.9 19.5,11.7c-1.4,0.5 -7.7,2.5 -14,4.4c-6.3,1.9 -17.8,5.5 -25.5,7.9c-15.7,4.9 -20.5,5.6 -28.6,4.4Z" style="fill:rgb(115,204,18);fill-rule:nonzero;"/>        <path d="M1120.7,656.9c-32.4,-16.2 -44,-22.5 -44.7,-24.2c-2.1,-5 -15.2,-37.2 -15.7,-38.5c-0.3,-0.7 21,9.4 47.3,22.6l47.9,24l2.3,8.3c3.8,14.2 7,25.5 7.7,27.8c0.3,1.1 0.3,2.1 -0.2,2c-0.4,0 -20.5,-9.9 -44.6,-22Z" style="fill:rgb(0,158,226);fill-rule:nonzero;"/>        <path d="M268.6,230.9c-24.1,-12.1 -43.6,-22.2 -43.4,-22.4c0.2,-0.3 8.6,-3.6 18.7,-7.5l18.3,-7l47.3,23.7c26.1,13.1 47.2,23.9 47.1,24.1c-0.3,0.3 -3.6,1.1 -27.3,7.3c-8.3,2.1 -15.5,3.9 -16,3.8c-0.4,0 -20.5,-9.9 -44.7,-22Z" style="fill:rgb(0,158,226);fill-rule:nonzero;"/>    </g></svg>