<?xml version="1.0" encoding="UTF-8" standalone="no"?><!DOCTYPE svg PUBLIC "-//W3C//DTD SVG 1.1//EN" "http://www.w3.org/Graphics/SVG/1.1/DTD/svg11.dtd"><svg width="100%" height="100%" viewBox="0 0 512 512" version="1.1" xmlns="http://www.w3.org/2000/svg" xmlns:xlink="http://www.w3.org/1999/xlink" xml:space="preserve" style="fill-rule:evenodd;clip-rule:evenodd;stroke-linejoin:round;stroke-miterlimit:2;"><title>Ethex</title><desc>Through our platform you can invest and save with businesses you believe in - whether it’s renewable energy, fair trade, social housing, organic farming, green transport, or micro-finance schemes – and these positive businesses can then find the investment they need to develop and grow.</desc>    <g transform="matrix(4.2072,0,0,4.2072,-2789.08,-932.437)">        <g transform="matrix(4.16667,0,0,4.16667,689.848,221.867)">            <path d="M0,29.093l-4.483,0c-0.535,0 -0.728,-0.364 -0.431,-0.808l2.579,-3.855l-0.003,0l7.146,-10.678l-5.242,-7.97l0.004,-0.001l-3.27,-4.971c-0.294,-0.445 -0.096,-0.81 0.439,-0.81l4.484,0c0.534,0 1.211,0.365 1.505,0.81l4.053,6.163l1.244,1.892l0.118,0.179l-3.096,4.708l3.096,4.624l-0.118,0.176l-0.54,0.809l-0.133,0.197l-4.194,6.269l-1.645,2.458c-0.299,0.444 -0.979,0.808 -1.513,0.808" style="fill:rgb(131,191,65);fill-rule:nonzero;"/>        </g>        <g transform="matrix(4.16667,0,0,4.16667,776.391,221.867)">            <path d="M0,29.093l-4.482,0c-0.535,0 -1.216,-0.364 -1.514,-0.808l-5.972,-8.924l-0.54,-0.809l-0.119,-0.176l3.096,-4.624l-3.096,-4.708l0.119,-0.179l2.915,-4.432l2.381,-3.623c0.294,-0.445 0.972,-0.81 1.507,-0.81l4.485,0c0.533,0 0.73,0.365 0.436,0.81l-2.808,4.269l0.003,0.002l-5.703,8.671l7.009,10.474l-0.002,0.001l2.715,4.058c0.298,0.444 0.104,0.808 -0.43,0.808" style="fill:rgb(45,159,206);fill-rule:nonzero;"/>        </g>        <g transform="matrix(-2.31816,-3.46226,-3.46226,2.31816,739.93,268.175)">            <path d="M-3.878,7.261l5.565,0l2.189,-5.192l-5.633,0.047l-2.121,5.145Z" style="fill:rgb(6,145,70);fill-rule:nonzero;"/>        </g>    </g></svg>