<?xml version="1.0" encoding="UTF-8" standalone="no"?><!DOCTYPE svg PUBLIC "-//W3C//DTD SVG 1.1//EN" "http://www.w3.org/Graphics/SVG/1.1/DTD/svg11.dtd"><svg width="100%" height="100%" viewBox="0 0 512 512" version="1.1" xmlns="http://www.w3.org/2000/svg" xmlns:xlink="http://www.w3.org/1999/xlink" xml:space="preserve" style="fill-rule:evenodd;clip-rule:evenodd;stroke-linejoin:round;stroke-miterlimit:2;"><title>Farmcrowdy</title><desc>Farmcrowdy is Nigeria’s First Digital Agriculture Platform that empowers rural farmers by providing them with improved seeds, farm inputs, training on modern farming techniques and provides a market for the sale of their farm produce.Since launching in 2016, Farmcrowdy has empowered over 25,000 small-scale farmers across Nigeria.</desc>    <g transform="matrix(13.6866,0,0,13.6866,-1190.08,-4.04406)">        <path d="M103.678,0.475c-7.417,0.792 -13.647,5.933 -15.834,13.065c-2.186,7.132 0.093,14.881 5.792,19.694c6.482,5.474 15.843,5.877 22.771,0.982c6.929,-4.896 9.675,-13.854 6.68,-21.792c-2.994,-7.937 -10.973,-12.849 -19.409,-11.949Zm0.07,0.416c9.964,-1.004 18.87,6.226 19.936,16.184c1.066,9.958 -6.107,18.909 -16.058,20.038c-6.493,0.736 -12.883,-2.062 -16.746,-7.333c-3.862,-5.271 -4.605,-12.208 -1.946,-18.177c2.659,-5.97 8.312,-10.057 14.814,-10.712Z" style="fill:rgb(172,187,22);"/>        <path d="M104.925,1.653c-7.015,0.325 -13.139,4.856 -15.503,11.47c-2.363,6.613 -0.497,13.999 4.724,18.696c5.221,4.698 12.762,5.777 19.09,2.731c4.592,-2.279 7.944,-6.47 9.159,-11.451c1.215,-4.981 0.17,-10.244 -2.857,-14.382c-0.277,-0.485 -0.623,-0.693 -0.969,-1.177c-3.389,-3.973 -8.429,-6.148 -13.644,-5.887Zm0.416,15.306c0.069,0.138 0.069,-0.07 0.069,0.207l-0.347,1.316l-0.346,1.662c-0.554,-0.831 -0.969,-2.631 -1.177,-3.739c-0.277,-1.87 0,-2.84 0.069,-4.571c-0.277,0.692 -0.415,1.662 -0.485,2.493c-0.692,-0.623 -0.762,-1.178 -1.731,-1.524c0.969,0.762 1.385,1.662 1.524,3.255c0.069,1.939 0.346,2.494 0.692,4.156c-0.623,-0.416 -0.97,-0.831 -1.454,-1.385c-2.424,-2.771 -3.186,-0.901 -4.156,-4.571c-0.069,1.385 0.208,1.523 0.554,2.493c-0.762,0 -1.523,-0.139 -2.147,0.277c1.593,0.138 2.701,0.346 3.74,1.108c2.216,1.593 4.987,6.095 5.125,9.211c-0.692,-0.346 -1.385,-1.87 -4.501,-3.047c-1.039,-0.346 -1.87,-0.485 -2.771,-0.97c-0.485,-0.346 -1.523,-1.316 -1.523,-2.077c0,0.9 0.831,2.008 1.177,2.285l-3.255,0.139c2.216,0.207 3.255,0 5.194,0.761c1.316,0.554 2.84,1.524 3.602,2.286c0.484,0.554 2.008,1.801 1.731,2.562l-1.316,3.256c-0.415,1.108 -0.346,1.177 -0.485,2.424c-8.319,-1.282 -14.222,-8.79 -13.505,-17.176c0.543,-6.161 4.56,-11.469 10.341,-13.667c5.781,-2.197 12.31,-0.897 16.808,3.347l0.416,0.485c4.212,4.379 5.594,10.758 3.572,16.487c-2.022,5.73 -7.103,9.828 -13.13,10.593c-0.485,-2.078 -0.277,-2.909 0.277,-4.917c0.623,-2.147 0.97,-2.286 2.355,-3.394c3.255,-2.493 4.64,-2.493 7.757,-3.601c-1.178,-0.07 -2.078,0.138 -3.186,0.346c0.554,-0.97 0.831,-1.108 0.969,-2.493c-0.277,2.562 -3.255,2.978 -5.956,4.64l-2.008,1.385c-1.247,-2.493 0.554,-3.324 2.424,-6.025c0.485,-0.693 1.177,-2.078 1.385,-3.186c0.277,-1.732 0.693,-1.939 1.731,-2.909c-0.831,0.277 -1.108,0.762 -1.593,1.177l-0.207,-1.246c-0.07,2.008 -0.139,3.878 -2.078,5.61c0.416,-2.563 0.277,-2.771 -0.554,-4.849c0.831,2.563 0.138,4.987 -1.524,6.926l-1.454,1.593c-0.208,-1.177 -0.346,-2.562 -0.346,-3.809c0,-0.623 0.207,-2.701 0.623,-3.324c0.138,-0.901 1.108,-2.494 1.524,-3.117l1.592,-1.939l0.555,-0.554c-0.347,0.208 -1.247,0.831 -1.455,1.108l0,-1.455l-0.346,-1.108c0.138,0.762 0.346,1.178 0.069,2.147c-0.554,1.801 -2.701,3.602 -2.77,4.71l0,-1.801c-0.762,0.277 -1.524,1.108 -1.108,2.216l0.415,-0.969l-0.208,1.039c0.624,-0.139 0.554,-0.07 0.832,-0.277Z" style="fill:rgb(41,55,55);"/>        <path d="M111.366,11.695c0.762,-0.346 1.593,-1.177 3.116,-1.247c-1.038,0.416 -2.285,0.832 -2.908,1.593c1.662,1.732 3.255,-0.692 3.878,-1.177c0.416,-0.346 0.831,-0.416 1.247,-0.762c-1.039,-0.346 -2.147,-0.762 -3.394,-0.485c-1.108,0.208 -2.078,0.831 -1.939,2.078Z" style="fill:rgb(172,187,22);"/>        <path d="M112.197,26.031c1.87,-0.207 2.078,0.07 3.601,0.347c-1.523,-0.07 -1.87,-0.347 -3.601,0.069c1.316,2.562 2.909,0.485 5.333,0.554c-1.455,-2.147 -4.987,-2.84 -5.333,-0.97Z" style="fill:rgb(172,187,22);"/>        <path d="M95.09,11.557l0.208,0.069l0.069,0.069l0.416,0.139c0.277,0 0.416,0.138 0.623,0.207c1.178,0.485 2.355,1.801 3.394,-0.207c-0.623,-0.416 -2.009,-0.624 -2.84,-0.624c1.316,-0.069 1.732,0 2.84,0.277c-0.277,-0.9 -1.177,-1.246 -2.355,-1.039c-1.177,0.139 -1.593,0.762 -2.355,1.109Z" style="fill:rgb(172,187,22);"/>        <path d="M116.352,22.014c0.624,-0.554 0.693,-1.038 1.593,-1.523c-0.346,0.554 -1.108,1.039 -1.316,1.87c2.217,0.762 1.732,-0.624 3.463,-3.048c-1.87,-0.207 -4.155,0.762 -3.74,2.701Z" style="fill:rgb(172,187,22);"/>        <path d="M107.557,8.925c0.069,-0.554 -0.693,-1.593 -0.901,-1.939c0.693,0.554 0.762,0.969 1.109,1.454l0.207,0.277c0.277,-1.108 -0.138,-1.662 -0.762,-2.285c-0.554,-0.485 -1.385,-0.97 -2.354,-0.901c1.177,1.801 0.346,3.879 2.701,3.394Z" style="fill:rgb(172,187,22);"/>        <path d="M112.405,18.69c0.692,0.623 0.415,0.069 2.008,1.732c-0.138,-0.416 -1.593,-1.247 -2.285,-1.524c-0.693,1.939 1.385,2.078 2.147,2.355c0.485,0.138 0.762,0.415 1.108,0.554c-0.139,-3.255 -2.909,-3.671 -2.978,-3.117Z" style="fill:rgb(172,187,22);"/>        <path d="M105.133,14.258c0.138,-0.693 0,-1.316 0,-1.94l0.069,0.139c0.139,0.346 0.208,0.692 0.208,1.662c1.246,-0.762 0.415,-3.186 -1.247,-4.086c0.208,1.87 -1.177,3.809 0.97,4.225Z" style="fill:rgb(172,187,22);"/>        <path d="M93.22,14.673c1.039,0.554 1.109,0.623 1.87,1.247c0.762,0.692 1.732,0.485 2.147,-0.416l-1.939,-0.831c0.831,0.069 1.316,0.346 2.009,0.554c-0.277,-1.316 -1.87,-1.454 -3.048,-1.108l-1.039,0.554Z" style="fill:rgb(172,187,22);"/>        <path d="M92.251,20.56c0.762,0.623 0.831,0.623 1.524,1.593c0.415,0.693 1.177,1.039 2.077,0.277c-0.208,-0.485 -1.177,-1.177 -1.731,-1.385c0.9,0.208 1.316,0.831 1.939,1.108c-0.138,-1.731 -2.147,-2.078 -3.809,-1.593Z" style="fill:rgb(172,187,22);"/>        <path d="M100.977,29.91c0.693,-2.009 2.355,-1.247 2.147,-3.117c-0.692,0.208 -1.454,0.901 -1.662,1.455c0.346,-0.97 1.108,-1.386 1.455,-1.732c-1.87,-1.662 -2.84,2.216 -1.94,3.394Z" style="fill:rgb(172,187,22);"/>        <path d="M102.224,24.577c0.208,-0.762 0.208,-0.97 0.208,-1.87c0.207,0.554 0.138,1.316 0,1.939c1.316,-0.138 1.454,-1.039 0.9,-2.147c-0.346,-0.831 -1.108,-1.316 -1.731,-1.731c0.069,0.831 0.277,1.039 0.069,2.008c-0.208,0.97 -0.208,1.524 0.554,1.801Z" style="fill:rgb(172,187,22);"/>        <path d="M101.808,17.928l-0.138,-2.424l0.415,2.355c1.109,-0.693 0.485,-2.909 -1.177,-3.809c0.139,1.731 -1.177,3.67 0.9,3.878Z" style="fill:rgb(172,187,22);"/>        <path d="M114.413,15.227l2.147,-0.138c-0.762,0.138 -1.593,0.069 -2.147,0.484c0.624,1.801 2.147,0.07 3.532,0c-0.138,-0.346 0,-0.138 -0.346,-0.346l-0.346,-0.277c-0.97,-0.623 -2.424,-0.762 -2.84,0.277Z" style="fill:rgb(172,187,22);"/>        <path d="M102.639,11.972c0,-0.485 -0.277,-0.831 -0.415,-1.316l0.346,0.416l0.277,0.623c0,0 0.208,-0.069 0.277,-0.485c0.07,-0.9 -1.177,-2.008 -2.493,-2.147l0.554,1.939c0.139,0.832 0.485,1.039 1.454,0.97Z" style="fill:rgb(172,187,22);"/>        <path d="M95.922,27.347c0.484,-0.554 0.554,-0.831 1.108,-1.177c0.554,-0.416 0.969,-0.485 0.9,-1.385c-0.485,-0.07 -0.623,0.207 -1.039,0.415c0.277,-0.415 0.485,-0.485 0.762,-0.762c-1.593,-1.315 -2.216,1.386 -1.731,2.909Z" style="fill:rgb(172,187,22);"/>        <path d="M96.268,20.144c0.623,-0.277 0.762,-0.554 1.523,-0.692c0.762,-0.208 1.178,-0.208 1.178,-1.108c-0.762,0.069 -0.831,0.208 -1.455,0.415c0.624,-0.415 0.693,-0.346 1.386,-0.623c-0.347,-1.316 -2.286,-0.693 -2.632,2.008Z" style="fill:rgb(172,187,22);"/>        <path d="M109.08,25.062l0.832,-1.524c-0.208,0.554 -0.416,0.9 -0.555,1.662c1.663,0 1.109,-0.9 1.732,-2.978c-1.108,0.277 -2.493,1.385 -2.009,2.84Z" style="fill:rgb(172,187,22);"/>        <path d="M106.864,21.322l0.554,-1.662l-0.346,1.731c1.662,0.208 1.039,-1.662 1.316,-3.047c-0.831,0.277 -2.632,2.078 -1.524,2.978Z" style="fill:rgb(172,187,22);"/>        <path d="M109.912,27.624l0.138,0.07l0.208,0.069l0.969,0.485c-0.554,-0.139 -0.761,-0.277 -1.523,-0.347c0.138,1.732 1.385,1.108 2.909,1.524c-0.139,-0.693 -0.555,-1.177 -0.901,-1.524c-0.346,-0.346 -1.246,-0.9 -1.8,-0.277Z" style="fill:rgb(172,187,22);"/>        <path d="M92.736,17.928c0.761,-0.069 1.039,-0.138 1.731,0.139c0.693,0.208 1.108,0.208 1.316,-0.347c-0.485,-0.346 -0.831,-0.207 -1.385,-0.346l1.454,0.139c0,-2.078 -2.562,-0.693 -3.116,0.415Z" style="fill:rgb(172,187,22);"/>        <path d="M105.133,9.825c0.138,-0.346 -0.208,-0.762 -0.416,-1.247c0.208,0.278 0.485,0.762 0.762,0.97c0.346,-0.554 -0.208,-1.247 -0.554,-1.454c-0.416,-0.347 -0.9,-0.485 -1.524,-0.554c0.693,1.593 0.624,2.493 1.732,2.285Z" style="fill:rgb(172,187,22);"/>        <path d="M114.136,13.149c0.554,-0.138 0.762,-0.346 1.316,-0.346c-0.415,0.139 -0.97,0.277 -1.247,0.554c0.347,0.485 0.832,0.762 1.455,0.208l1.385,-0.831c-0.762,-0.485 -2.563,-0.9 -2.909,0.415Z" style="fill:rgb(172,187,22);"/>        <path d="M99.869,27.555c0.069,-0.554 0.069,-0.831 0.277,-1.316c0.693,-1.247 0.139,-1.731 -0.277,-0.831l-0.208,0.693c0,-0.624 0.208,-0.762 0.347,-1.247c-1.662,0 -1.178,1.87 -0.139,2.701Z" style="fill:rgb(172,187,22);"/>        <path d="M106.449,16.82l0.969,0l-0.9,0.416c0.485,1.108 1.247,0.346 2.355,-0.208l0.277,-0.208c-0.416,-0.208 -1.178,-0.762 -2.147,-0.415l-0.347,0.207l0,0.07l-0.069,0.069l-0.138,0.069Z" style="fill:rgb(172,187,22);"/>        <path d="M112.751,17.513c0.416,-0.139 0.762,-0.277 1.247,-0.277c-0.485,0.069 -0.901,0.138 -1.247,0.484c0.623,1.039 1.385,0.07 1.801,-0.207l0.623,-0.277c-0.693,-0.416 -2.078,-0.901 -2.424,0.277Z" style="fill:rgb(172,187,22);"/>        <path d="M105.341,16.959l0.277,-0.277l0,-1.801c-0.762,0.277 -1.524,1.108 -1.109,2.147l0.416,-0.97l-0.208,1.108c0.416,-0.069 0.346,0 0.624,-0.207Z" style="fill:rgb(172,187,22);"/>        <path d="M111.227,13.842l-0.277,-1.039l0.139,0.208l0.277,0.485l0.208,0.208c0.831,-1.039 -0.485,-1.732 -1.732,-1.801l0.139,0.277c0.9,1.385 0.346,1.662 1.246,1.662Z" style="fill:rgb(172,187,22);"/>        <path d="M110.396,10.102l0.139,-0.069c0.692,-0.208 0.554,-1.524 -0.277,-2.216c-0.485,1.246 -0.762,2.008 0.138,2.285Z" style="fill:rgb(172,187,22);"/>        <path d="M99.938,21.391c0.347,-0.346 0.208,-0.485 0.762,-1.108c0.139,-0.208 0.347,-0.277 0.347,-0.623c-0.139,-0.485 -0.208,-0.208 -0.555,0c0.208,-0.347 0.416,-0.485 -0.069,-0.554c-0.277,0 -0.485,0.207 -0.623,0.415c-0.277,0.693 0,1.316 0.138,1.87Z" style="fill:rgb(172,187,22);"/>        <path d="M106.449,13.011l0.346,-0.208l0.208,-0.346l-0.208,0.692c1.316,0.278 0.831,-1.731 0.277,-2.077c-0.485,1.385 -0.831,1.108 -0.623,1.939Z" style="fill:rgb(172,187,22);"/>        <path d="M110.396,17.859l0.416,-0.485l-0.208,0.554c0.831,-0.208 1.039,-1.316 0.554,-2.008l-0.069,0.069c-0.069,0.346 0,0 -0.069,0.139c-0.554,0.623 -1.386,1.108 -0.624,1.731Z" style="fill:rgb(172,187,22);"/>        <path d="M110.396,21.391l0.831,-0.208c-0.415,0.139 -0.415,0.07 -0.761,0.416c0.277,0.346 0.554,0.485 1.108,0.138l0.831,-0.554l-0.069,-0.207l-0.347,-0.139l-0.623,-0.069c-0.554,0 -0.762,0.208 -0.97,0.623Z" style="fill:rgb(172,187,22);"/>        <path d="M116.352,24.231l0.693,-0.139c-0.277,0.139 -0.416,0.069 -0.623,0.416c0.485,0.554 0.692,0.346 1.731,-0.347l0.208,-0.207c-0.693,-0.208 -1.593,-0.693 -2.009,0.277Z" style="fill:rgb(172,187,22);"/>        <path d="M99.731,23.746l0.346,-0.623l-0.139,0.761c1.109,-0.138 0.693,-0.831 0.901,-1.87c-0.624,0.139 -1.662,0.97 -1.108,1.732Z" style="fill:rgb(172,187,22);"/>        <path d="M98.553,23.053c0.208,-0.277 0.139,-0.277 0.139,-0.623l0.069,0.208l0.069,0.138l0.139,0.208c0.208,-0.9 -0.069,-1.593 -0.831,-2.008c0.069,1.038 -0.554,1.87 0.415,2.077Z" style="fill:rgb(172,187,22);"/>        <path d="M112.682,23.469l0.138,-0.208l0.139,0.346c1.316,-0.069 0.346,-1.593 -0.069,-1.87c-0.07,0.762 -0.554,1.316 -0.208,1.732Z" style="fill:rgb(172,187,22);"/>        <path d="M98.553,14.812l0.277,0.069l0.277,0c-0.484,0.069 -0.415,0.069 -0.554,0.346c0.347,0.208 0.554,0.346 0.97,0.069l0.9,-0.484c-0.554,-0.347 -1.454,-0.693 -1.87,0Z" style="fill:rgb(172,187,22);"/>        <path d="M110.743,15.296c0.277,-0.415 -0.07,-0.069 0.069,-0.277l0.208,-0.138c-0.208,-0.554 -0.624,-0.693 -1.247,-0.762c0.485,1.108 0.346,1.177 0.97,1.177Z" style="fill:rgb(172,187,22);"/>        <path d="M108.734,15.296l-0.208,-0.692l0.416,0.485c0.069,-0.693 -0.346,-0.97 -1.039,-1.039c0.208,0.762 0.069,1.177 0.831,1.246Z" style="fill:rgb(172,187,22);"/>    </g></svg>