<?xml version="1.0" encoding="UTF-8" standalone="no"?><!DOCTYPE svg PUBLIC "-//W3C//DTD SVG 1.1//EN" "http://www.w3.org/Graphics/SVG/1.1/DTD/svg11.dtd"><svg width="100%" height="100%" viewBox="0 0 512 512" version="1.1" xmlns="http://www.w3.org/2000/svg" xmlns:xlink="http://www.w3.org/1999/xlink" xml:space="preserve" style="fill-rule:evenodd;clip-rule:evenodd;stroke-linejoin:round;stroke-miterlimit:2;"><title>Blackfinch</title><desc>Our businesses cover tax-efficient solutions, early-stage investing, managed portfolio services and property financing. We are entrusted with £300 million in assets under management and administration.Our focus is always on delivering value through expertise and a high-quality service with a transparent approach.We work to help people thrive.</desc>    <g transform="matrix(5.43486,0,0,5.43486,-1250.16,-476.589)">        <g transform="matrix(-4.16667,0,0,4.16667,230.21,174.589)">            <path d="M-8.119,-4.497l3.128,0l4.991,4.497l-3.132,0l-4.987,-4.497Z" style="fill:rgb(12,12,12);fill-rule:nonzero;"/>        </g>        <g transform="matrix(4.16667,0,0,4.16667,324.049,170.185)">            <path d="M0,-17.486l-2.695,-0.507c-0.594,-0.116 -1.31,-0.031 -1.981,0.204c-1.072,0.375 -1.897,1.307 -2.172,2.325l0,0.001l-0.004,0.013c-0.009,0.041 -0.02,0.085 -0.03,0.126l-0.727,2.274l-10.195,9.176l4.65,0l-4.999,4.497l3.133,0l4.994,-4.497c4.406,0 6.873,-1.592 7.806,-4.3c1.16,-3.367 -0.815,-6.566 0.503,-7.762c1.328,-1.206 1.717,-1.55 1.717,-1.55m-2.826,0.917c-0.258,0.096 -0.544,-0.035 -0.642,-0.29c-0.097,-0.255 0.036,-0.538 0.292,-0.631c0.259,-0.095 0.545,0.035 0.642,0.29c0.096,0.255 -0.034,0.538 -0.292,0.631" style="fill:rgb(12,12,12);fill-rule:nonzero;"/>        </g>    </g></svg>