<?xml version="1.0" encoding="UTF-8" standalone="no"?><!DOCTYPE svg PUBLIC "-//W3C//DTD SVG 1.1//EN" "http://www.w3.org/Graphics/SVG/1.1/DTD/svg11.dtd"><svg width="100%" height="100%" viewBox="0 0 512 512" version="1.1" xmlns="http://www.w3.org/2000/svg" xmlns:xlink="http://www.w3.org/1999/xlink" xml:space="preserve" style="fill-rule:evenodd;clip-rule:evenodd;stroke-linejoin:round;stroke-miterlimit:2;"><title>BoldYield</title><desc>BoldYield is the first European online investment marketplace that provides investment opportunities in 3 reliable industries such as Real Estate, Maritime Transportation and Business Financing within the one place.</desc>    <g id="Layer_1" transform="matrix(1.51232,0,0,1.51232,-16.9966,182.897)">        <g transform="matrix(4.14147,0,0,4.14147,-567.334,-151.853)">            <path d="M184,7.5c2.1,0.4 4.2,0.8 6.3,1.3c17.3,4.2 29.7,19.1 30.9,36.8c1.4,21.5 -13.8,40.2 -35.2,43.2c-22.5,3.1 -43.5,-13.3 -45.9,-35.9c-2.4,-22.5 13.6,-42.4 36,-45c0.3,0 0.6,-0.2 0.9,-0.3c2.3,-0.1 4.6,-0.1 7,-0.1Z" style="fill:rgb(0,160,226);fill-rule:nonzero;"/>        </g>        <g transform="matrix(2.91859,0,0,2.91859,58.9337,-510.134)">            <path d="M20.1,228l0,-73.1c0.1,-0.1 0.2,-0.2 0.3,-0.2c9,0 18.1,0 27.1,0.1c3.7,0.1 7.4,0.9 10.8,2.5c5.4,2.6 9.4,6.3 9.9,12.6c0.6,7 -2.2,12.5 -8.1,16.3c-1.6,1.1 -3.5,1.8 -5.3,2.7c1.8,0.5 3.6,0.8 5.3,1.4c14.3,5.1 13.8,21.2 7.6,28.3c-4.7,5.5 -10.9,8.5 -17.9,8.9c-7.8,0.5 -15.7,0.3 -23.6,0.4c-1.9,0.1 -4,0.1 -6.1,0.1Zm12.7,-33.3l0,23.5c4.4,0 8.8,0.1 13.1,0c3,-0.1 5.9,-0.9 8.4,-2.9c3.7,-3 4.6,-7 3.8,-11.4c-0.8,-4.6 -4.2,-7.2 -8.5,-7.9c-5.5,-0.8 -11.1,-0.9 -16.8,-1.3Zm-0.1,-9.6c3.8,0 7.4,0.3 11,-0.1c2.3,-0.3 4.8,-1.1 6.8,-2.3c4,-2.5 4.9,-6.6 4.2,-11c-0.7,-4.1 -3.6,-6.2 -7.4,-6.7c-4.8,-0.6 -9.7,-0.6 -14.7,-0.9c0.1,7.3 0.1,14.1 0.1,21Z" style="fill:rgb(15,4,78);fill-rule:nonzero;"/>        </g>    </g></svg>