<?xml version="1.0" encoding="UTF-8" standalone="no"?><!DOCTYPE svg PUBLIC "-//W3C//DTD SVG 1.1//EN" "http://www.w3.org/Graphics/SVG/1.1/DTD/svg11.dtd"><svg width="100%" height="100%" viewBox="0 0 512 512" version="1.1" xmlns="http://www.w3.org/2000/svg" xmlns:xlink="http://www.w3.org/1999/xlink" xml:space="preserve" style="fill-rule:evenodd;clip-rule:evenodd;stroke-linejoin:round;stroke-miterlimit:2;"><title>Kuetzal</title><desc>Kuetzal is a lending crowdfunding platform registered in Tallinn, Estonia. We provide opportunities to attract funds for European businesses and startups. Investors may earn up to 21%. Secured investments mainly supported by unique tool «Kuetzal Care» which allows to start receiving interest immediately after investment is made. No fees for investors. Projects mostly cover: Real estate, transport, medical care, technological progress, food industry, goods production.</desc>    <g id="Kuetzal" transform="matrix(4.63459,0,0,4.63459,-40.5173,-40.5624)">        <path d="M101,82.1l13.77,13.16c2.685,2.58 4.206,6.146 4.21,9.87c0.011,3.715 -1.514,7.274 -4.21,9.83c-5.694,5.363 -14.696,5.363 -20.39,0l-31.49,-30.13c-2.84,-2.72 -5.12,-4.9 -7.08,-6.64c-0.971,1.848 -1.453,3.913 -1.4,6l0,21c0,7.58 -6.48,13.81 -14.41,13.81c-7.93,0 -14.5,-6.23 -14.5,-13.89l0,-21c0,-8.84 8.75,-17.19 18,-17.19c4.209,-0.102 8.33,1.223 11.69,3.76c3.551,-2.65 7.879,-4.057 12.31,-4c16.21,0.07 24.12,6.43 33.5,15.42Zm-34.27,-1.1l31.51,30.12c3.557,3.334 9.163,3.334 12.72,0c1.645,-1.559 2.569,-3.734 2.55,-6c0.002,-2.263 -0.92,-4.431 -2.55,-6l-13.78,-13.12c-8.73,-8.38 -15.51,-13.85 -29.68,-13.85c-2.784,-0.046 -5.527,0.685 -7.92,2.11c2.02,1.8 4.31,3.99 7.15,6.74Zm-17.82,24.11l0,-21c-0.054,-3.312 0.841,-6.571 2.58,-9.39c-2.33,-1.658 -5.142,-2.502 -8,-2.4c-6.73,0 -12.5,6.48 -12.5,11.79l0,21c0.132,4.7 4.035,8.494 8.737,8.494c0.087,0 0.175,-0.001 0.263,-0.004c4.769,0.1 8.785,-3.722 8.92,-8.49Z" style="fill:rgb(49,22,68);fill-rule:nonzero;"/>        <path d="M67.5,61.25c-4.431,0.057 -8.759,-1.35 -12.31,-4c-3.361,2.534 -7.483,3.856 -11.69,3.75c-9.25,0 -18,-8.36 -18,-17.19l0,-21c0,-7.58 6.5,-13.81 14.5,-13.81c8,0 14.45,6.23 14.45,13.89l0,21c-0.053,2.087 0.429,4.152 1.4,6c2,-1.74 4.24,-3.92 7.08,-6.64l31.47,-30.25c5.694,-5.363 14.696,-5.363 20.39,0c2.71,2.567 4.236,6.147 4.21,9.88c-0.004,3.724 -1.525,7.29 -4.21,9.87l-13.79,13.15c-9.38,8.99 -17.29,15.35 -33.5,15.35Zm-7.92,-7.52c2.393,1.425 5.136,2.156 7.92,2.11c14.17,0 21,-5.47 29.68,-13.82l13.82,-13.15c1.63,-1.569 2.552,-3.737 2.55,-6c0.019,-2.266 -0.905,-4.441 -2.55,-6c-3.557,-3.334 -9.163,-3.334 -12.72,0l-31.55,30.13c-2.84,2.75 -5.13,4.94 -7.15,6.73Zm-19.58,-39.33c-0.088,-0.003 -0.176,-0.004 -0.263,-0.004c-4.702,0 -8.605,3.794 -8.737,8.494l0,21c0,5.31 5.77,11.79 12.5,11.79c2.858,0.102 5.67,-0.742 8,-2.4c-1.739,-2.819 -2.634,-6.078 -2.58,-9.39l0,-21c-0.135,-4.768 -4.151,-8.59 -8.92,-8.49Zm-21.15,16.31c0.691,-0.345 1.135,-1.048 1.15,-1.82l0,-6.79c-0.015,-0.772 -0.459,-1.475 -1.15,-1.82c-0.719,-0.378 -1.581,-0.378 -2.3,0l-6.41,3.39c-0.718,0.322 -1.182,1.038 -1.182,1.825c0,0.787 0.464,1.503 1.182,1.825l6.41,3.39c0.72,0.377 1.58,0.377 2.3,0Z" style="fill:rgb(0,108,156);fill-rule:nonzero;"/>    </g></svg>