<?xml version="1.0" encoding="UTF-8" standalone="no"?><!DOCTYPE svg PUBLIC "-//W3C//DTD SVG 1.1//EN" "http://www.w3.org/Graphics/SVG/1.1/DTD/svg11.dtd"><svg width="100%" height="100%" viewBox="0 0 512 512" version="1.1" xmlns="http://www.w3.org/2000/svg" xmlns:xlink="http://www.w3.org/1999/xlink" xml:space="preserve" style="fill-rule:evenodd;clip-rule:evenodd;stroke-linejoin:round;stroke-miterlimit:2;"><title>weeXimmo</title><desc>weeXimmo is a real estate crowdfunding platform dedicated to real estate promotion, approved by the AMF and registered with ORIAS.For all the investments proposed, a single return (10 to 12% per year depending on the amount invested), a maximum duration of 2 years, standardized real estate projects (collective buildings of 12 to 60 dwellings, located in major cities well-established local promoters</desc>    <g transform="matrix(7.0442,0,0,7.0442,-13.0884,31.2901)">        <path d="M74.4,1.4l0,59.3c0,1.7 -0.1,1.7 -1.8,1.7l-70.6,0l0,-61l72.4,0Zm-35.9,19.2c-1.3,0 -2.6,-0.1 -3.9,0c-0.8,0.1 -1.7,0.4 -2.2,1c-6.2,6.1 -12.4,12.3 -18.6,18.5c-0.4,0.4 -0.8,1.2 -0.6,1.4c0.3,0.4 1,0.8 1.5,0.8c1.9,0.1 3.8,-0.1 5.7,0.1c1.8,0.1 3,-0.5 4.3,-1.8c4,-4.1 8,-8.1 12,-12.1c2.1,-2.1 4.1,-4.1 6.2,-6.2c0.3,-0.3 0.4,-0.9 0.6,-1.4c-0.4,-0.1 -0.8,-0.4 -1.2,-0.4c-1.3,0 -2.5,0.1 -3.8,0.1Zm19.3,21.8c1.3,0 2.6,-0.1 3.9,0c0.9,0 1.1,-0.5 0.9,-1.2c-0.1,-0.4 -0.4,-0.8 -0.7,-1.2c-4.2,-4.2 -8.3,-8.5 -12.5,-12.7c-0.8,-0.8 -1.7,-0.7 -2.5,0.1c-1.1,1.2 -2.3,2.3 -3.5,3.5c-0.6,0.6 -0.6,1.6 0,2.1c2.7,2.6 5.4,5.3 8.1,7.9c0.9,0.9 1.8,1.6 3.2,1.4c1.1,0 2.1,0.1 3.1,0.1Z" style="fill:rgb(26,45,111);fill-rule:nonzero;"/>    </g></svg>