<?xml version="1.0" encoding="UTF-8" standalone="no"?><!DOCTYPE svg PUBLIC "-//W3C//DTD SVG 1.1//EN" "http://www.w3.org/Graphics/SVG/1.1/DTD/svg11.dtd"><svg width="100%" height="100%" viewBox="0 0 512 512" version="1.1" xmlns="http://www.w3.org/2000/svg" xmlns:xlink="http://www.w3.org/1999/xlink" xml:space="preserve" style="fill-rule:evenodd;clip-rule:evenodd;stroke-linejoin:round;stroke-miterlimit:2;"><title>Splendit</title><desc>Splendit is a crowdlending platform for students. Students can focus on their studies and connect with a network of alumni that finances their loans.</desc>    <g>        <g transform="matrix(27.7108,0,0,27.7108,-9850.14,-2431.95)">            <rect x="356.4" y="88.7" width="16.6" height="16.6" style="fill:rgb(118,178,77);"/>        </g>        <g id="SVGID_1_" transform="matrix(3.59582,0,0,3.59582,-50.1842,-23.8811)">            <path d="M57.5,65.4c-0.1,-1.2 -0.3,-4.2 -5.2,-4.2c-3.5,0 -4.7,2.2 -4.7,3.7c0,3 4.1,4.7 8.5,6c9.4,2.6 19.4,5.4 19.4,17.4c0,11.7 -10.3,18.9 -22.7,18.9c-8.4,0 -21.1,-3.8 -22.7,-18.4l16.5,0c0.7,5.1 5.6,5.1 6.3,5.1c2.8,0 5.8,-1.6 5.8,-4.3c0,-4.3 -4.1,-4.8 -14.7,-8.9c-7.2,-2.3 -13.2,-7 -13.2,-14.5c0,-11 10,-18.3 21.6,-18.3c7.3,0 19.9,2.9 21.4,17.5l-16.3,0Zm22.3,-15.7l15.6,0l0,6.1l0.3,0c3.3,-4.2 8.8,-8 17.3,-8c19.7,0 27.2,17.3 27.2,30.3c0,16 -11.2,29.2 -27.1,29.2c-10,0 -14.7,-4.8 -16.7,-6.9l0,23.6l-16.6,0l0,-74.3Zm43.8,27.9c0,-6.6 -4.8,-14.2 -13.9,-14.2c-9.1,0 -13.9,7.6 -13.9,14.2c0,7 5.2,14.1 13.9,14.1c8.7,0 13.9,-7.1 13.9,-14.1Z" style="fill:rgb(51,64,81);fill-rule:nonzero;"/>        </g>    </g></svg>