<?xml version="1.0" encoding="UTF-8" standalone="no"?><!DOCTYPE svg PUBLIC "-//W3C//DTD SVG 1.1//EN" "http://www.w3.org/Graphics/SVG/1.1/DTD/svg11.dtd"><svg width="100%" height="100%" viewBox="0 0 512 512" version="1.1" xmlns="http://www.w3.org/2000/svg" xmlns:xlink="http://www.w3.org/1999/xlink" xml:space="preserve" style="fill-rule:evenodd;clip-rule:evenodd;stroke-linejoin:round;stroke-miterlimit:2;"><title>Money&amp;Co</title><desc>Many companies find it difficult to obtain the funds they need to help them grow and things are only going to get worse for small businesses as banking regulation continues to tighten. Money&amp;Co. is making a real difference to businesses in the UK through connecting its lenders to good quality companies that want to borrow.</desc>    <g transform="matrix(1,0,0,1,-373.971,-90.9916)">        <g transform="matrix(14.8441,0,0,14.8441,-5697.37,-1006.9)">            <g opacity="0.85">                <g transform="matrix(0,-1,-1,0,754.573,517.459)">                    <path d="M426.253,311.142c-9.487,0 -17.179,7.692 -17.179,17.179c0,9.486 7.692,17.178 17.179,17.178c9.487,0 17.177,-7.692 17.177,-17.178c0,-9.487 -7.69,-17.179 -17.177,-17.179" style="fill:rgb(0,51,0);fill-rule:nonzero;"/>                </g>            </g>        </g>        <g transform="matrix(393.013,1.76051,-1.65215,368.825,546.437,476.171)">            <path d="M0.016,-0.394l0.095,0c-0.008,-0.023 -0.015,-0.046 -0.022,-0.069c-0.006,-0.024 -0.009,-0.049 -0.009,-0.076c0,-0.025 0.004,-0.049 0.013,-0.07c0.009,-0.021 0.021,-0.039 0.037,-0.055c0.016,-0.015 0.035,-0.027 0.058,-0.035c0.022,-0.009 0.046,-0.013 0.073,-0.013c0.024,0 0.046,0.004 0.067,0.013c0.02,0.009 0.037,0.021 0.051,0.036c0.015,0.015 0.026,0.033 0.033,0.055c0.007,0.021 0.01,0.044 0.009,0.069l-0.081,0.005c0,-0.013 -0.002,-0.025 -0.006,-0.036c-0.003,-0.012 -0.008,-0.022 -0.015,-0.032c-0.006,-0.009 -0.014,-0.016 -0.024,-0.022c-0.009,-0.005 -0.02,-0.008 -0.033,-0.008c-0.014,0 -0.026,0.002 -0.037,0.006c-0.011,0.004 -0.02,0.01 -0.027,0.017c-0.007,0.007 -0.013,0.015 -0.017,0.025c-0.004,0.009 -0.007,0.019 -0.007,0.03c-0.001,0.008 -0.001,0.016 0,0.023c0,0.008 0.002,0.016 0.003,0.024c0.002,0.009 0.004,0.018 0.007,0.028c0.003,0.009 0.006,0.02 0.01,0.032c0.002,0.009 0.005,0.018 0.007,0.027c0.003,0.008 0.005,0.017 0.008,0.026l0.136,0l0,0.071l-0.114,0c0.005,0.014 0.009,0.027 0.012,0.04c0.003,0.012 0.006,0.024 0.009,0.034c0.003,0.012 0.004,0.026 0.002,0.041c-0.001,0.014 -0.005,0.029 -0.011,0.044c-0.005,0.015 -0.013,0.029 -0.023,0.043c-0.01,0.014 -0.023,0.026 -0.037,0.037l0.237,0l0,0.082l-0.39,0l0,-0.082l0.053,0c0.02,-0.011 0.036,-0.025 0.048,-0.041c0.012,-0.016 0.021,-0.033 0.026,-0.052c0.005,-0.018 0.006,-0.038 0.004,-0.06c-0.001,-0.021 -0.006,-0.043 -0.014,-0.065l-0.008,-0.021l-0.123,0l0,-0.071Z" style="fill:white;fill-rule:nonzero;"/>        </g>    </g></svg>