<?xml version="1.0" encoding="UTF-8" standalone="no"?><!DOCTYPE svg PUBLIC "-//W3C//DTD SVG 1.1//EN" "http://www.w3.org/Graphics/SVG/1.1/DTD/svg11.dtd"><svg width="100%" height="100%" viewBox="0 0 512 512" version="1.1" xmlns="http://www.w3.org/2000/svg" xmlns:xlink="http://www.w3.org/1999/xlink" xml:space="preserve" style="fill-rule:evenodd;clip-rule:evenodd;stroke-linejoin:round;stroke-miterlimit:2;"><title>Creditter</title><desc>The company issues short-term loans of up to 400 EUR with a maturity of up to 30 days. Launched in 2014, Creditter experienced exponential growth, and has reported to have over a million returning customers. In 2019, Creditter entered the TOP-3 of the most visited sites among online lenders in Russia. The company has plans to expand its activities in European countries.</desc>    <g transform="matrix(1.27286,0,0,1.27286,-16.9473,-4.92575)">        <path d="M121.1,284.2c7.2,-7.5 12.1,-16.8 13.8,-26.4l17.5,-99.4c0,0 5.5,-34.5 30.2,-66.1c-81.8,24.2 -84.2,125 -80.6,79.6c10.2,-127.3 115.7,-142.4 220.6,-129.4c-1.4,-0.6 -5.4,-2.6 -14.8,-6.2c-18.5,-7.2 -47.4,-15.1 -78.3,-19.2c-94.2,-9.8 -157.5,34.4 -177.3,141.2l-20.5,114.2l39,64.3c3.3,-3.5 48.2,-50.3 50.4,-52.6Z" style="fill:rgb(23,35,59);fill-rule:nonzero;"/>        <path d="M378.2,14l-61.6,64.3l-30.9,173.3c0,0 -17.4,109.1 -129.6,117.1c53.4,-16.9 93.5,-52.7 104.9,-117.1l20.6,-114.2c-34.8,-57.4 -26.3,-43.4 -39,-64.3c-4.4,4.6 -33.8,35.2 -50.5,52.7c-7.2,7.5 -12.1,16.8 -13.8,26.4l-17.5,99.4c0,0 -5.5,34.5 -30.2,66.1c44,-13 68.9,-47.9 81.7,-91.4c-1.1,3.6 -0.6,8.1 -1.1,11.8c-13.3,104.7 -93,142.3 -197.1,129.4c1.4,0.7 121,70.6 282.3,-11.2c43.6,-21.4 81.5,-59.3 89.5,-104.7l28.1,-155.1c2.1,-11.8 -0.1,-23.9 -6.3,-34.1l-29.5,-48.4Z" style="fill:rgb(255,78,44);fill-rule:nonzero;"/>    </g></svg>