<?xml version="1.0" encoding="UTF-8" standalone="no"?><!DOCTYPE svg PUBLIC "-//W3C//DTD SVG 1.1//EN" "http://www.w3.org/Graphics/SVG/1.1/DTD/svg11.dtd"><svg width="100%" height="100%" viewBox="0 0 512 512" version="1.1" xmlns="http://www.w3.org/2000/svg" xmlns:xlink="http://www.w3.org/1999/xlink" xml:space="preserve" style="fill-rule:evenodd;clip-rule:evenodd;stroke-linejoin:round;stroke-miterlimit:2;"><title>NEO Finance</title><desc>NEO Finance is the P2P investment arm of the Lithuanian lender Paskolu Klubas. We have been operating since 2016 and hold authorizations from the Bank of Lithuania.We offer opportunity to invest in traditional personal loans with typical rates of around 18% and terms of 48 months. We will buy back defaulted loans at our expected future recovery level which is between 50-80% of outstanding balance. We forecast that our investors should expect net returns of between 11 to 15% after defaults.</desc>    <g id="NEO" transform="matrix(4.63432,0,0,4.63432,-40.4865,-40.7668)">        <path d="M118.49,61.78c0.74,-4.39 0.81,-17.63 -0.7,-21c-1.654,-3.616 -5.283,-5.944 -9.26,-5.94l-13.4,0c-0.7,-2 -1.74,-2.65 -4.2,-2.61l-2.4,0l0,-1.62c0.167,-3.523 -1.241,-6.945 -3.84,-9.33c-5.09,-4.28 -35.63,-4.28 -40.69,-0.01c-2.587,2.393 -3.993,5.809 -3.84,9.33l0,1.62l-2.4,0c-2.44,0 -3.49,0.56 -4.18,2.57l-6.29,0l-2,0c-2.636,-0.099 -5.276,-0.012 -7.9,0.26c-3.274,0.325 -6.101,2.466 -7.3,5.53c-1.37,3.28 -1.37,20.44 -0.7,22.69c1.61,5.49 10.44,9.73 22.4,12.43c1,0.92 2,1.84 3,2.71c-9.25,-2 -17.07,-4.92 -21.94,-8.82c0,8.74 -0.07,22.28 0,31c0.07,5 4.91,9.44 9.92,9.41l82.03,0c0.105,0.003 0.209,0.005 0.314,0.005c5.579,0 10.17,-4.591 10.17,-10.17c0,-0.092 -0.002,-0.183 -0.004,-0.275l0,-30.14c-4.77,4.49 -13.27,7.69 -23.48,9.65c0.8,-0.85 1.61,-1.69 2.43,-2.53c12.77,-2.69 22.34,-7.54 24.26,-14.76Zm-65.74,-37.11c4.72,-1 18.45,-1 23.17,0c3.76,0.77 4.61,4.13 4.39,7.67l-1.48,0c-2.38,0 -3.45,0.54 -4.15,2.48l-20.7,0c-0.7,-1.92 -1.75,-2.48 -4.15,-2.45l-1.47,0c-0.23,-3.57 0.64,-6.93 4.39,-7.7Zm-6.75,57.4c-0.85,-0.81 -2.25,-2.07 -3,-2.88c-0.75,-0.81 -0.89,-1.33 0,-2.1c0.15,-0.15 1.22,-1.33 2.51,-2.55c0.739,-0.821 1.575,-1.55 2.49,-2.17c2.66,-1.37 6.6,2.25 3.84,5.39c-0.15,0.18 -1.22,1.33 -2.51,2.58c-0.48,0.48 -1,0.92 -1.37,1.33c-0.96,0.96 -1.37,0.92 -1.96,0.4Zm6.09,5.61c-0.89,-0.81 -2.25,-2.07 -3,-2.88c-0.75,-0.81 -0.89,-1.29 0,-2.07c0.15,-0.18 1.22,-1.33 2.51,-2.58c0.699,-0.822 1.506,-1.546 2.4,-2.15c2.66,-1.37 6.64,2.21 3.87,5.35c-0.15,0.18 -1.22,1.33 -2.51,2.58c-0.48,0.48 -1,1 -1.37,1.33c-0.99,0.97 -1.32,0.94 -1.91,0.42l0.01,0Zm5.91,5.57c-0.85,-0.77 -2.25,-2.07 -3,-2.84c-0.75,-0.77 -0.89,-1.33 0,-2.1c0.18,-0.15 1.22,-1.33 2.51,-2.58c0.747,-0.804 1.583,-1.522 2.49,-2.14c2.66,-1.36 6.6,2.25 3.84,5.39c-0.15,0.15 -1.18,1.33 -2.47,2.58c-0.52,0.48 -1,0.92 -1.4,1.33c-0.97,0.95 -1.36,0.91 -1.97,0.36Zm11.58,1.29c-0.15,0.18 -1.22,1.33 -2.51,2.58c-0.48,0.48 -1,0.92 -1.37,1.33c-1,1 -1.37,0.92 -2,0.41c-0.89,-0.81 -2.25,-2.07 -3,-2.88c-0.75,-0.81 -0.89,-1.33 0,-2.07c0.15,-0.18 1.22,-1.36 2.51,-2.58c0.72,-0.821 1.536,-1.553 2.43,-2.18c2.75,-1.36 6.73,2.26 3.97,5.39l-0.03,0Zm15.08,-13.94c-0.92,1.07 -2.14,2.25 -4.06,0.37c-1.22,-1.18 -3.1,-3.1 -3.47,-3.47c-0.37,-0.37 -0.63,-0.52 -0.92,-0.85l-6.27,-6.27c-0.55,-0.55 -1.51,-2 -2.4,-1.33c-0.265,0.175 -0.387,0.504 -0.3,0.81c0.07,0.41 0.59,0.74 0.85,1c2.25,2.21 4.43,4.5 6.75,6.64c1.22,1.14 3.47,3.47 4.8,4.8c1.33,1.33 1.37,2.43 -0.15,3.73c-0.85,0.77 -1.88,1.77 -2.8,1.25c-0.761,-0.554 -1.465,-1.184 -2.1,-1.88c-1.51,-1.48 -3,-3 -4.46,-4.43c-0.33,-0.37 -0.63,-0.55 -1,-0.89c-1.81,-1.77 -3.58,-3.58 -5.35,-5.35c-1.4,-1.55 -2.36,-0.18 -1.48,0.85c0.66,0.81 2.07,2.07 2.4,2.4c1.77,1.77 10.4,9.63 10.81,11.36c0,0.18 -0.15,0.26 -0.15,0.44c0,1.25 -2.21,2.91 -3.54,2.62c-0.103,-0.597 -0.24,-1.188 -0.41,-1.77c-0.85,-2.25 -2.47,-3.36 -5.53,-3.06c1.37,-3 -2.1,-6.53 -5.64,-5.61c0.079,-0.348 0.119,-0.704 0.119,-1.061c0,-2.639 -2.172,-4.81 -4.81,-4.81c-0.346,0 -0.691,0.037 -1.029,0.111c0,-0.26 0.07,-0.48 0.11,-0.74c0.18,-3.5 -3.28,-6.49 -6.9,-4.39c-1.88,1.07 -2.29,1.73 -4.65,4.13c-0.566,0.649 -1.171,1.263 -1.81,1.84c-3.135,-2.537 -6.105,-5.273 -8.89,-8.19c-0.74,-0.81 -1.07,-0.77 0,-2.14c3.36,-3.71 11.62,-12.09 16.79,-17.4c1.316,-1.043 2.975,-1.557 4.65,-1.44c1.164,0.156 2.232,0.732 3,1.62c1,0.92 2.07,2 3.47,3.39c1.77,1.77 2.66,1.81 1.18,3.28c-1.48,1.47 -3.87,3.91 -4.76,4.65c-0.41,0.33 -3.62,3.62 -4.28,4.28l-0.7,0.7c-0.22,0.22 -0.55,0.44 -0.55,0.85c0.097,0.36 0.303,0.681 0.59,0.92c4.46,3.84 10.44,2.88 14.35,-1.11c1.51,-1.55 3.43,-3.87 4,-4.24c3.17,3.1 6.38,6.2 9.37,9.41c1.25,1.36 3.8,3.8 5.2,5.24c1.59,1.6 0.93,2.63 -0.03,3.74Zm2.77,-4.54c-0.181,0.237 -0.393,0.449 -0.63,0.63l-6.8,-6.9c-0.326,-0.315 -0.633,-0.649 -0.92,-1l-5.9,-5.87c-0.666,-0.629 -1.294,-1.297 -1.88,-2c1.51,-1.84 0.26,-2.36 -0.81,-1.48l-4.61,4.61c-4.76,4.57 -7.78,5.61 -12.51,2.47c1.62,-1.51 9.22,-9.11 14.57,-14.31c6,-5.79 7.42,-6.75 12.69,-1.7c4.83,4.61 9.67,9.19 14.43,13.87c1.44,1.44 1.7,1.81 0.48,3.17c-2.62,2.9 -5.54,5.67 -8.11,8.51Z" style="fill:rgb(8,23,73);fill-rule:nonzero;"/>    </g></svg>