<?xml version="1.0" encoding="UTF-8" standalone="no"?><!DOCTYPE svg PUBLIC "-//W3C//DTD SVG 1.1//EN" "http://www.w3.org/Graphics/SVG/1.1/DTD/svg11.dtd"><svg width="100%" height="100%" viewBox="0 0 512 512" version="1.1" xmlns="http://www.w3.org/2000/svg" xmlns:xlink="http://www.w3.org/1999/xlink" xml:space="preserve" style="fill-rule:evenodd;clip-rule:evenodd;stroke-linejoin:round;stroke-miterlimit:2;"><title>Trine</title><desc>We make it easy for people to invest in solar energy in growing markets. Our mission is to give people a triple return on investment - earn a profit while making social and environmental impact.</desc>    <g transform="matrix(2.11643,0,0,2.11201,1.00215,22.9883)">        <path d="M209.1,59.4c-6.2,-34.3 -48.9,-38.9 -101,-7.8c-38.2,22.7 -67.9,53.7 -65.5,81.1c2.9,32.6 28.6,47.7 56.1,53.9c30.1,6.7 68,3.2 94.4,-14.4c30.2,-20.4 24.8,-63.4 16,-112.8Zm-7.8,74.4c-7.9,19.6 -47.2,47.7 -93.3,39.4c-33.9,-6.1 -28,-43.5 -10.2,-72.1c23.5,-37.8 45.7,-50.4 64.6,-46.1c21.8,4.9 47.2,57.8 38.9,78.8Z" style="fill:rgb(84,50,79);fill-rule:nonzero;"/>        <path d="M141.3,83.8c-23.8,-3.8 -36.3,32.5 -35.5,55.5c1.1,35 55.5,31.3 79.9,-6.7c20,-31 -23.3,-45.4 -44.4,-48.8Z" style="fill:rgb(84,50,79);fill-rule:nonzero;"/>        <path d="M232.4,56.1c-22.2,-66.1 -54.3,-40 -100.5,-53.3c-49.1,-14.2 -64.7,29.3 -79.4,50c-12.2,17.2 -26.4,26.3 -39.8,43.8c-16.8,22.1 -16.9,52 -0.5,74.4c16,21.9 64.6,35 89.1,41.1c51.9,12.9 105.4,15.5 127.7,-23.3c15.5,-27 15.2,-97.6 3.4,-132.7Zm-7.8,32.2c4.1,81 -15.3,133 -103.3,118.8c-93.3,-15 -118.6,-75.9 -86.1,-112.7c25,-28.3 38.8,-68.7 91.1,-70.5c49.4,-1.7 93.5,-31.6 98.3,64.4Z" style="fill:rgb(84,50,79);fill-rule:nonzero;"/>    </g></svg>