<?xml version="1.0" encoding="UTF-8" standalone="no"?><!DOCTYPE svg PUBLIC "-//W3C//DTD SVG 1.1//EN" "http://www.w3.org/Graphics/SVG/1.1/DTD/svg11.dtd"><svg width="100%" height="100%" viewBox="0 0 512 512" version="1.1" xmlns="http://www.w3.org/2000/svg" xmlns:xlink="http://www.w3.org/1999/xlink" xml:space="preserve" style="fill-rule:evenodd;clip-rule:evenodd;stroke-linejoin:round;stroke-miterlimit:2;"><title>The Crowd Estates</title><desc>The Crowd Estates is an online investment platform specialized in real estate transactions. It conducts a thorough preliminary analysis of all real estate operations.We want to democratize real estate investment so that not everyone can invest in the best projects in the sector.</desc>    <g transform="matrix(3.5774,0,0,3.5774,52.1419,-11.3271)">        <path d="M55.334,3.446l-18.574,17l-2,34.196l20.574,-20l0,-31.196Z" style="fill:rgb(128,128,128);"/>        <g transform="matrix(1,0,0,1,-24.0576,23.2764)">            <path d="M59.334,-1.554l-19.574,19l-5,37.196l21.574,-21l3,-35.196Z" style="fill:rgb(128,128,128);"/>        </g>        <g transform="matrix(1,0,0,1,-24.0576,23.2764)">            <path d="M56.166,37.031l-22.808,23.25l-7.831,52.582l26.517,-27.4l4.122,-48.432Z" style="fill:rgb(128,128,128);"/>        </g>        <g transform="matrix(1,0,0,1,-24.0576,23.2764)">            <path d="M49.822,122.123l1.83,-31.262l-28.795,31.393l26.965,-0.131Z" style="fill:rgb(128,128,128);"/>        </g>        <g transform="matrix(1,0,0,1,0,110)">            <path d="M55.334,-24.554l-25.574,26l-1.488,34.129l27.062,0.432l0,-60.561Z" style="fill:rgb(128,128,128);"/>        </g>        <g transform="matrix(1,0,0,1,0,70)">            <path d="M55.334,-32.554l-20.574,21l-3.176,47.149l23.75,-25.286l0,-42.863Z" style="fill:rgb(128,128,128);"/>        </g>        <g transform="matrix(-1,0,0,1,113.97,0)">            <path d="M55.334,3.446l-18.574,17l-2,34.196l20.574,-20l0,-31.196Z" style="fill:rgb(62,169,245);"/>        </g>        <g transform="matrix(-1,0,0,1,138.028,23.2764)">            <path d="M59.334,-1.554l-19.574,19l-5,37.196l21.574,-21l3,-35.196Z" style="fill:rgb(62,169,245);"/>        </g>        <g transform="matrix(-1,0,0,1,138.028,23.2764)">            <path d="M56.166,37.031l-22.808,23.25l-7.831,52.582l26.517,-27.4l4.122,-48.432Z" style="fill:rgb(62,169,245);"/>        </g>        <g transform="matrix(-1,0,0,1,138.028,23.2764)">            <path d="M49.822,122.123l1.83,-31.262l-28.795,31.393l26.965,-0.131Z" style="fill:rgb(62,169,245);"/>        </g>        <g transform="matrix(-1,0,0,1,113.97,110)">            <path d="M55.334,-24.554l-25.574,26l-1.488,34.129l27.062,0.432l0,-60.561Z" style="fill:rgb(62,169,245);"/>        </g>        <g transform="matrix(-1,0,0,1,113.97,70)">            <path d="M55.334,-32.554l-20.574,21l-3.176,47.149l23.75,-25.286l0,-42.863Z" style="fill:rgb(62,169,245);"/>        </g>    </g></svg>