<?xml version="1.0" encoding="UTF-8" standalone="no"?><!DOCTYPE svg PUBLIC "-//W3C//DTD SVG 1.1//EN" "http://www.w3.org/Graphics/SVG/1.1/DTD/svg11.dtd"><svg width="100%" height="100%" viewBox="0 0 512 512" version="1.1" xmlns="http://www.w3.org/2000/svg" xmlns:xlink="http://www.w3.org/1999/xlink" xml:space="preserve" style="fill-rule:evenodd;clip-rule:evenodd;stroke-linejoin:round;stroke-miterlimit:2;"><title>Neufund</title><desc>Founded in 2016 in Berlin by Zoe Adamovicz and Marcin Rudolf, Neufund is a fintech startup that connects investors and entrepreneurs in a novel way. The company creates blockchain-based solutions and services, which include a fundraising and investing platform, an employee stock option plan (ESOP) manager, a light wallet, post-investment instruments, and more.</desc>    <g transform="matrix(18.3032,0,0,18.3032,33.2594,-0.775409)">        <path d="M24.24,7.049l-12.021,-6.932l-0.059,-0.02l-6.03,3.467l-6.032,3.485l-0,13.941l6.03,3.486l6.031,3.485l6.05,-3.485l6.032,-3.486l-0,-13.94l-0.001,-0.001Zm-19.05,15.37l-3.78,-2.192l-0,-12.414l3.78,-2.193l-0,16.8l-0,-0.001Zm11.69,1.313l-10.4,-18.016l-0,17.447l5.698,3.29l4.7,-2.723l0.002,0.002Zm6.05,-3.486l-3.82,2.194l-0,-16.84l3.819,2.193l-0,12.453l0.001,0Zm-15.685,-15.82l10.573,18.307l-0,-17.897l-5.639,-3.25l-4.934,2.84Z" style="fill:rgb(16,37,50);"/>    </g></svg>