<?xml version="1.0" encoding="UTF-8" standalone="no"?><!DOCTYPE svg PUBLIC "-//W3C//DTD SVG 1.1//EN" "http://www.w3.org/Graphics/SVG/1.1/DTD/svg11.dtd"><svg width="100%" height="100%" viewBox="0 0 512 512" version="1.1" xmlns="http://www.w3.org/2000/svg" xmlns:xlink="http://www.w3.org/1999/xlink" xml:space="preserve" style="fill-rule:evenodd;clip-rule:evenodd;stroke-linejoin:round;stroke-miterlimit:2;"><title>Planeta Cash</title><desc>Planet Cash is a Russia-based micro lending company, that has been founded in 2018. The company is focusing solely on online loans from Eur30 to Eur400. Planet Cash is founded by as trusted Grupeer partner, who previously worked in offline segment. After rebranding it has issued first online loan on 21st January 2019. In February 2019 the volume of issued loans has exceeded 10 times the offline volume.</desc>    <g transform="matrix(11.087,0,0,11.087,-764,-320.522)">        <path d="M92,75c-12.617,0 -23,-10.383 -23,-23c0,-12.617 10.383,-23 23,-23l0,2.826c-0.001,0 -0.003,0 -0.004,0c-11.068,0 -20.176,9.108 -20.176,20.176c0,11.068 9.108,20.176 20.176,20.176c11.068,0 20.176,-9.108 20.176,-20.176c0,-0.001 0,-0.001 0,-0.002l2.828,0c-0.015,12.612 -10.388,22.985 -23,23Zm11.511,-11.647c3.05,-3.02 4.766,-7.141 4.761,-11.433l0,-1.413l-10.133,0l0,1.414c0,3.327 -2.738,6.065 -6.065,6.065c-3.327,0 -6.065,-2.738 -6.065,-6.065c0,-3.327 2.738,-6.065 6.065,-6.065l1.414,0l0,-10.131l-1.418,0c-8.836,0.069 -16.068,7.358 -16.068,16.194c0,8.837 7.232,16.126 16.068,16.195l0.011,0c4.29,0.002 8.407,-1.714 11.426,-4.761l0.004,0Zm-11.442,1.935c-7.319,-0.023 -13.328,-6.052 -13.328,-13.371c0,-6.789 5.171,-12.555 11.92,-13.292l0,4.516c-4.291,0.691 -7.478,4.432 -7.478,8.778c0,4.877 4.014,8.891 8.891,8.891c4.346,0 8.087,-3.186 8.778,-7.477l4.516,0c-0.753,6.746 -6.502,11.918 -13.29,11.955l-0.009,0Zm11.436,-24.8c-0.335,-0.336 -0.681,-0.654 -1.038,-0.957l-7.224,7.224l-4.243,4.245l2,2l4.246,-4.25l2.035,-2.031l3.179,-3.183l2.007,-2c-0.305,-0.365 -0.626,-0.715 -0.962,-1.051l0,0.003Z" style="fill:rgb(95,37,159);fill-rule:nonzero;"/>    </g></svg>