<?xml version="1.0" encoding="UTF-8" standalone="no"?><!DOCTYPE svg PUBLIC "-//W3C//DTD SVG 1.1//EN" "http://www.w3.org/Graphics/SVG/1.1/DTD/svg11.dtd"><svg width="100%" height="100%" viewBox="0 0 512 512" version="1.1" xmlns="http://www.w3.org/2000/svg" xmlns:xlink="http://www.w3.org/1999/xlink" xml:space="preserve" style="fill-rule:evenodd;clip-rule:evenodd;stroke-linejoin:round;stroke-miterlimit:2;"><title>Crowdstacker</title><desc>Crowdstacker is an exciting platform that allows you to lend to growing and established British businesses and earn interest on your money at more interesting rates. When investing, capital is at risk.</desc>    <g transform="matrix(5.77581,0,0,5.77581,-680.17,-20.928)">        <g transform="matrix(0.214319,0,0,0.221858,106.147,-8.40564)">            <path d="M467,69.857c0,-8.2 -6.891,-14.857 -15.379,-14.857l-381.242,0c-8.488,0 -15.379,6.657 -15.379,14.857l0,368.286c0,8.2 6.891,14.857 15.379,14.857l381.242,0c8.488,0 15.379,-6.657 15.379,-14.857l0,-368.286Z" style="fill:rgb(0,81,104);"/>        </g>        <g transform="matrix(5.88873,0,0,5.88873,-868.184,-4655.11)">            <rect x="169.968" y="797.119" width="9.976" height="2.938" style="fill:rgb(128,214,234);"/>        </g>        <g transform="matrix(5.88873,0,0,5.88873,-868.001,-4593.95)">            <rect x="169.937" y="791.926" width="9.976" height="2.938" style="fill:rgb(128,214,234);"/>        </g>        <g transform="matrix(5.88873,0,0,5.88873,-868.178,-4714.71)">            <rect x="169.967" y="802.179" width="9.976" height="2.938" style="fill:rgb(128,214,234);"/>        </g>    </g></svg>