<?xml version="1.0" encoding="UTF-8" standalone="no"?><!DOCTYPE svg PUBLIC "-//W3C//DTD SVG 1.1//EN" "http://www.w3.org/Graphics/SVG/1.1/DTD/svg11.dtd"><svg width="100%" height="100%" viewBox="0 0 512 512" version="1.1" xmlns="http://www.w3.org/2000/svg" xmlns:xlink="http://www.w3.org/1999/xlink" xml:space="preserve" style="fill-rule:evenodd;clip-rule:evenodd;stroke-linejoin:round;stroke-miterlimit:2;"><title>P2PFA</title><desc></desc>    <g transform="matrix(1,0,0,0.998839,-158.049,-117.426)">        <g transform="matrix(4.05281,0,0,4.05281,-6288.03,-1204.05)">            <path d="M1681.78,442.697l-9.811,0c-0.867,-0.098 -0.943,-0.495 -1,-1l0,-61.531c0.098,-0.868 0.496,-0.944 1,-1l9.123,0c0.867,0.097 0.943,0.495 1,1c0,0 -1.008,2.955 0.775,1.498c10.247,-8.232 37.036,-4.044 33.407,26.093c-0.42,3.489 -3.443,9.794 -6.597,13.162c-6.861,7.325 -19.522,8.106 -26.866,0.405c0,0 -0.056,20.596 -0.056,20.596c-0.159,0.455 -0.48,0.721 -0.975,0.777Zm11.105,-54.818c-10.378,0.185 -14.797,19.15 -5.917,26.951c5.225,4.59 14.954,1.915 16.689,-7.073c1.552,-8.045 1.496,-19.538 -10.226,-19.875c-0.182,-0.003 -0.364,-0.004 -0.546,-0.003Z" style="fill-rule:nonzero;"/>        </g>        <g transform="matrix(4.05281,0,0,4.05281,-6613.06,-1206.54)">            <path d="M1681.78,442.697l-9.811,0c-0.867,-0.098 -0.943,-0.495 -1,-1l0,-61.531c0.098,-0.868 0.496,-0.944 1,-1l9.123,0c0.867,0.097 -0.008,3.955 1.775,2.498c10.247,-8.232 37.036,-4.044 33.407,26.093c-0.42,3.489 -3.443,9.794 -6.597,13.162c-6.861,7.325 -19.522,8.106 -26.866,0.405c0,0 -0.056,20.596 -0.056,20.596c-0.159,0.455 -0.48,0.721 -0.975,0.777Zm11.105,-54.818c-10.378,0.185 -14.797,19.15 -5.917,26.951c5.225,4.59 14.954,1.915 16.689,-7.073c1.552,-8.045 1.496,-19.538 -10.226,-19.875c-0.182,-0.003 -0.364,-0.004 -0.546,-0.003Z" style="fill-rule:nonzero;"/>        </g>        <g transform="matrix(4.05281,0,0,4.05281,-7036.86,-1204.05)">            <path d="M1817.3,377.361l-16.873,0c-1.457,-0.116 -1.52,-0.808 -1.484,-2.332c0.286,-10.118 3.449,-20.025 10.485,-27.528c6.984,-7.448 17.022,-11.382 27.383,-11.518c0.258,-0.002 0.516,-0.003 0.774,-0.002c12.736,0.085 26.055,5.772 32.088,17.325c7.328,14.037 1.634,32.426 -11.155,43.329c-10.295,8.777 -23.067,14.504 -32.209,24.291c-1.041,1.114 -2.013,2.294 -2.854,3.567c0,0 28.213,0.004 28.213,0.004c0,0 1.393,0.142 1.5,1.5l0,14.588c-0.093,1.188 -0.389,1.412 -1.5,1.5l-51.817,0c-1.425,-0.113 -1.514,-0.744 -1.495,-2.248c0.207,-11.847 5.665,-23.227 14.896,-31.34c10.636,-9.35 23.755,-15.799 33.413,-25.614c0,0 7.426,-8.523 6.331,-17.878c-0.449,-3.836 -2.104,-7.728 -5.75,-9.798c-8.651,-4.911 -20.68,-2.347 -25.187,6.054c-2.376,4.427 -3.06,9.617 -3.26,14.659c0,0 -0.175,1.339 -1.499,1.441Z" style="fill:url(#_Linear1);fill-rule:nonzero;"/>        </g>    </g>    <defs>        <linearGradient id="_Linear1" x1="0" y1="0" x2="1" y2="0.000482253" gradientUnits="userSpaceOnUse" gradientTransform="matrix(37.6039,114.812,-163.39,53.5143,1809.44,327.695)"><stop offset="0" style="stop-color:rgb(58,141,48);stop-opacity:1"/><stop offset="0.3" style="stop-color:rgb(79,153,46);stop-opacity:1"/><stop offset="0.69" style="stop-color:rgb(128,182,42);stop-opacity:1"/><stop offset="0.83" style="stop-color:rgb(163,202,40);stop-opacity:1"/><stop offset="1" style="stop-color:rgb(172,208,39);stop-opacity:1"/></linearGradient>    </defs></svg>