<?xml version="1.0" encoding="UTF-8" standalone="no"?><!DOCTYPE svg PUBLIC "-//W3C//DTD SVG 1.1//EN" "http://www.w3.org/Graphics/SVG/1.1/DTD/svg11.dtd"><svg width="100%" height="100%" viewBox="0 0 512 512" version="1.1" xmlns="http://www.w3.org/2000/svg" xmlns:xlink="http://www.w3.org/1999/xlink" xml:space="preserve" style="fill-rule:evenodd;clip-rule:evenodd;stroke-linejoin:round;stroke-miterlimit:2;"><title>Bolden</title><desc>Bolden is an online marketplace that allows individual and institutional investors to directly lend to small businesses. Bolden offers a fast, smart and transparent financing alternative to growing businesses and provides lenders with attractive returns. </desc>    <g transform="matrix(1.79627,0,0,1.79627,1.72582,-227.15)">        <path d="M113.181,410.934l-111.181,0l0,-10.949c6.217,-1.206 13.172,-2.159 18.53,-5.77c14.699,-9.907 17.033,-31.53 21.414,-47.294c12.63,-45.437 25.09,-90.93 37.418,-136.449c3.042,-11.23 5.972,-22.499 9.148,-33.691c2.297,-8.095 5.218,-17.691 3.369,-26.111c-2.829,-12.889 -19.735,-12.169 -30.077,-13.476l0,-10.108l97.704,0c32.64,0 72.406,-2.362 99.389,19.764c6.867,5.631 29.105,23.15 20.105,55.15c-7.556,26.865 -40.005,44.169 -50.427,48.393c-9.598,3.888 -20.037,5.711 -29.48,9.773c17.243,5.833 36.324,13.87 46.865,29.48c6.587,9.755 8.726,21.28 8.726,32.849c0,28.814 -15.602,57.224 -41.272,71.331c-30.514,16.771 -66.326,17.108 -100.231,17.108Zm13.951,-142.321c-2.721,1.998 -3.146,7.881 -3.971,10.926c-2.738,10.111 -5.418,20.251 -8.296,30.322c-4.635,16.221 -8.625,32.622 -13.232,48.852c-2.384,8.402 -6.818,18.956 -4.891,27.795c1.846,8.467 10.101,9.532 17.281,10.25c15.481,1.548 31.69,-1.135 44.641,-10.286c21.007,-14.845 31.155,-45.002 31.164,-69.873c0.004,-8.39 -0.541,-16.549 -3.751,-24.426c-7.241,-17.771 -24.851,-20.801 -41.732,-23.099c-4.039,-0.549 -13.751,-3.006 -17.213,-0.461Zm2.894,-14.343c24.899,-4.622 51.848,-0.336 69.473,-22.741c3.562,-4.527 6.256,-9.876 8.499,-15.161c6.15,-14.493 7.895,-31.702 5.203,-47.168c-1.299,-7.465 -4.052,-15.644 -9.933,-20.78c-5.573,-4.867 -13.025,-6.511 -20.178,-7.087c-6.093,-0.491 -12.938,-1.482 -18.494,1.949c-8.586,5.303 -9.911,20.425 -12.426,29.287c-7.672,27.032 -15.866,54.317 -22.144,81.701Z" style="fill:rgb(1,25,81);"/>    </g></svg>