<?xml version="1.0" encoding="UTF-8" standalone="no"?><!DOCTYPE svg PUBLIC "-//W3C//DTD SVG 1.1//EN" "http://www.w3.org/Graphics/SVG/1.1/DTD/svg11.dtd"><svg width="100%" height="100%" viewBox="0 0 512 512" version="1.1" xmlns="http://www.w3.org/2000/svg" xmlns:xlink="http://www.w3.org/1999/xlink" xml:space="preserve" style="fill-rule:evenodd;clip-rule:evenodd;stroke-linejoin:round;stroke-miterlimit:2;"><title>RealFunding</title><desc>The purpose of RealFunding is to help organizations with social or environmental impact have better access to credit and to energize and make sense of people's savings.To do this, RealFunding offers a crowdfunding platform in the form of an interest-free loan where organizations apply for a funding campaign and social investors consult and choose the projects to which they lend a small part of their savings.</desc>    <g transform="matrix(1.70664,0,0,1.70664,3.37514,-0.418952)">        <g transform="matrix(1,0,0,1,-0.774069,0)">            <path d="M148.758,203c17.995,0 32.605,14.61 32.605,32.605c0,19.145 -32.605,63.816 -32.605,63.816c0,0 -32.605,-44.671 -32.605,-63.816c0,-3.761 0.638,-7.374 1.811,-10.735c-1.519,3.001 -3.531,5.814 -6.036,8.32c-13.538,13.537 -68.18,22.069 -68.18,22.069c0,0 8.532,-54.642 22.069,-68.18c12.725,-12.724 33.386,-12.724 46.111,0c9.142,9.143 11.716,22.383 7.72,33.834c5.376,-10.623 16.398,-17.913 29.11,-17.913Zm70.505,-81.876c-11.292,3.664 -24.193,1.015 -33.156,-7.948c-12.725,-12.725 -12.725,-33.386 0,-46.111c13.537,-13.537 68.18,-22.07 68.18,-22.07c0,0 -8.532,54.643 -22.07,68.181c-2.381,2.38 -5.039,4.316 -7.874,5.807c3.167,-1.028 6.547,-1.583 10.057,-1.583c19.144,0 63.816,32.605 63.816,32.605c0,0 -44.672,32.605 -63.816,32.605c-4.28,0 -8.368,-0.827 -12.115,-2.329c3.607,1.583 6.983,3.849 9.932,6.798c13.538,13.538 22.07,68.18 22.07,68.18c0,0 -54.643,-8.532 -68.18,-22.069c-12.725,-12.725 -12.725,-33.386 0,-46.111c9.514,-9.514 23.465,-11.914 35.216,-7.202c-11.493,-5.044 -19.528,-16.527 -19.528,-29.872c0,-12.534 7.087,-23.425 17.468,-28.881Zm-144.574,-1.639c-3.209,-1.548 -6.214,-3.651 -8.872,-6.309c-13.537,-13.538 -22.069,-68.181 -22.069,-68.181c0,0 54.642,8.533 68.18,22.07c12.724,12.725 12.724,33.386 0,46.111c-9.345,9.345 -22.971,11.827 -34.588,7.446c10.921,5.271 18.464,16.453 18.464,29.383c0,17.995 -14.61,32.605 -32.605,32.605c-19.145,0 -63.817,-32.605 -63.817,-32.605c0,0 44.672,-32.605 63.817,-32.605c4.043,0 7.916,0.737 11.49,2.085Z" style="fill:rgb(136,179,107);"/>        </g>        <g transform="matrix(1.25997,0,0,1.25997,-40.3994,-58.8319)">            <path d="M149.547,104.888c33.505,0 60.708,27.203 60.708,60.708c0,33.506 -27.203,60.708 -60.708,60.708c-33.506,0 -60.708,-27.202 -60.708,-60.708c0,-33.505 27.202,-60.708 60.708,-60.708Zm0,35.104c14.131,0 25.604,11.473 25.604,25.604c0,14.131 -11.473,25.604 -25.604,25.604c-14.131,0 -25.604,-11.473 -25.604,-25.604c0,-14.131 11.473,-25.604 25.604,-25.604Z" style="fill:rgb(94,164,68);"/>        </g>        <g transform="matrix(1.8264,0,0,1.35028,-125.149,-35.5564)">            <path d="M149.57,27.129c0,0 -17.852,33.083 -17.852,47.261c0,13.327 7.999,24.147 17.852,24.147c9.853,0 17.852,-10.82 17.852,-24.147c0,-14.178 -17.852,-47.261 -17.852,-47.261Z" style="fill:rgb(0,155,201);"/>        </g>    </g></svg>