<?xml version="1.0" encoding="UTF-8" standalone="no"?><!DOCTYPE svg PUBLIC "-//W3C//DTD SVG 1.1//EN" "http://www.w3.org/Graphics/SVG/1.1/DTD/svg11.dtd"><svg width="100%" height="100%" viewBox="0 0 512 512" version="1.1" xmlns="http://www.w3.org/2000/svg" xmlns:xlink="http://www.w3.org/1999/xlink" xml:space="preserve" style="fill-rule:evenodd;clip-rule:evenodd;stroke-linejoin:round;stroke-miterlimit:2;"><title>Nibble</title><desc>Nibble, is a P2P crowdfunding platform that belongs to the IT Smart Finance Group (ITSF) - a financial conglomerate with current headquarters in Spain and Russia founded in 2014 with more than 200 employees worldwide among all the companies in the corporate group and 1.5 million dollars of net income in the last reported year.</desc>    <g transform="matrix(1.26514,0,0,1.26514,-415.609,-24.8767)">        <path d="M398.5,331.6c-13.5,-2.6 -22.6,-6.8 -32.1,-14.5c-14.6,-12.1 -24.9,-31.7 -30.4,-58.4c-6,-28.9 -8.8,-121.2 -4.9,-164.6c2.2,-23.9 8.2,-33.1 21.9,-33.1c8.9,0 13.7,3.9 16.7,13.5c1.6,5.4 1.8,9.8 1.7,43.5c0,20.6 -0.3,43.1 -0.7,50c-0.7,11.9 -0.6,12.4 1,10c0.9,-1.4 5.1,-5.9 9.2,-10c13.2,-13.1 29.8,-19.8 51.7,-20.7c14.6,-0.7 22.9,0.6 34.2,5.2c31.2,12.7 49.2,44.2 49.2,86.5c0,47 -23.8,79.7 -65.9,90.7c-8,2.1 -12.4,2.6 -27.1,2.9c-12.1,0.2 -19.7,-0.1 -24.5,-1Zm43.5,-36.6c16.1,-4.3 28.3,-16.8 33.6,-34.5c2.5,-8.2 2.5,-28.3 0.1,-37.5c-6.5,-24.6 -23.5,-38 -48,-38c-19.4,0 -36.9,9.5 -44.2,24.1c-5.3,10.4 -6.7,15.8 -7.2,28.5c-1.6,35 13.1,56.4 40.7,59.2c7.3,0.8 18.3,0 25,-1.8Z" style="fill:rgb(51,51,51);fill-rule:nonzero;"/>        <path d="M619.6,294.9c-10.8,-1.5 -18.4,-3.7 -27.6,-8.1c-6.8,-3.3 -10.1,-5.7 -17.1,-12.7c-7.3,-7.4 -9.3,-10.1 -13.7,-19.1c-10.5,-21.3 -13.2,-38.4 -13.2,-83.8c0,-55.9 4.4,-115.2 9.6,-131.7c4.6,-14.1 12.8,-19.9 24.5,-17.4c8.4,1.8 12.2,7.6 13.5,20.5c0.9,8.7 -2.6,60.8 -6.2,93.2l-0.7,5.7l3.5,-4.3c12.4,-15.5 31.9,-23.9 57.4,-24.9c16.7,-0.7 25,1 39.4,7.9c9.3,4.5 11.5,6.1 19.5,14.2c7.2,7.2 9.9,10.8 13.3,17.6c8.4,16.9 11.9,37.1 10.2,58c-3.6,44.3 -26.1,72.4 -65.9,82.7c-11,2.8 -34.3,3.9 -46.5,2.2Zm36.4,-36c8.2,-1.8 16.7,-6.8 22.9,-13.5c10.6,-11.3 14.5,-22.7 14.5,-42.4c-0.1,-10.7 -0.4,-13.6 -2.6,-20.2c-4.5,-13.6 -12.6,-23.4 -23.3,-28.4c-20.5,-9.5 -44.5,-6.4 -60,7.8c-6.6,6 -12.8,17.7 -15,28.3c-1.9,9 -1.9,26.2 0,34.3c5,21 17.3,31.6 41.5,35.6c3.4,0.6 16.5,-0.3 22,-1.5Z" style="fill:rgb(51,51,51);fill-rule:nonzero;"/>        <path d="M510.5,421.9c-31.5,-2.6 -62.3,-11.3 -91.3,-25.8c-9.6,-4.8 -12.2,-6.6 -12.2,-8.1c0,-3.3 2.2,-3.3 13.7,-0.1c21,5.9 38.6,9.1 60.7,11.2c16.1,1.5 56.7,0.6 72.6,-1.6c37.9,-5.1 70.8,-15 103.5,-31c15.7,-7.7 44,-24.3 43,-25.3c-0.8,-0.8 -14.1,2 -25.1,5.4c-13.1,4 -15.4,4.3 -14.7,1.4c1.5,-5.7 17.9,-15.5 31.7,-19c9.9,-2.5 23.7,-2.7 26,-0.5c2.3,2.3 3.1,7.8 3,20.5c0,9.8 -0.5,12.7 -2.8,19.5c-4.6,13.4 -10.1,21.4 -12.8,18.7c-0.6,-0.6 -0.3,-5.3 0.6,-11.4c0.9,-5.8 1.6,-14 1.6,-18.3l0,-7.7l-7.7,7.2c-27,25 -66.1,46.6 -102.8,57c-22.4,6.3 -62.7,10 -87,7.9Z" style="fill:rgb(18,144,224);fill-rule:nonzero;"/>    </g></svg>