<?xml version="1.0" encoding="UTF-8" standalone="no"?><!DOCTYPE svg PUBLIC "-//W3C//DTD SVG 1.1//EN" "http://www.w3.org/Graphics/SVG/1.1/DTD/svg11.dtd"><svg width="100%" height="100%" viewBox="0 0 512 512" version="1.1" xmlns="http://www.w3.org/2000/svg" xmlns:xlink="http://www.w3.org/1999/xlink" xml:space="preserve" style="fill-rule:evenodd;clip-rule:evenodd;stroke-linejoin:round;stroke-miterlimit:2;"><title>Lendopolis</title><desc>LENDOPOLIS is a crowdfunding platform specializing in renewable energies and real estate.</desc>    <g transform="matrix(1.44108,0,0,1.44068,-157.519,-226.339)">        <circle cx="287.1" cy="333.4" r="173.6" style="fill:white;"/>        <path d="M165.9,259.4l-8.7,-14.4c0,0 -21.6,30 -26.7,69c-4,31 0.8,57 8.8,76.8l42.1,0c2.4,0 4.7,0.6 6.7,1.6l0,-40.4c0,-8.2 6.7,-14.9 14.3,-15.7l10.8,0l-47.3,-76.9Zm193.9,76.8l10.8,0c7.6,0.8 14.3,7.5 14.3,15.7l0,40.4c2,-1 4.3,-1.6 6.7,-1.6l42.1,0c8,-19.8 12.8,-45.8 8.8,-76.8c-5,-38.9 -26.7,-69 -26.7,-69l-8.7,14.4l-47.3,76.9Zm-24.8,-140.9l1.5,-10.3c0,0 -24.8,-7.8 -50.7,-7.8c-22.7,0 -49.3,8.9 -49.3,8.9l2.5,15.5l0.7,5.6l10.4,85.1l7,0c2.2,0 4.4,0.5 6.3,1.4l0,-25.1c0,-8.2 7.2,-15.6 15.4,-15.6l16.2,0c8.2,0 14.4,7.4 14.4,15.6l0,25c1.9,-0.8 3.9,-1.3 6.1,-1.3l7.6,0l10.6,-86.3l0,-0.1l1.3,-10.6Z" style="fill:rgb(202,244,254);fill-rule:nonzero;"/>        <path d="M287,157.8c-97.6,0 -177,79.4 -177,177c0,29 7,56.3 19.4,80.4c12.2,23.8 29.6,44.4 50.6,60.5c29.7,22.6 66.8,36.1 106.9,36.1c40.2,0 77.2,-13.5 106.9,-36.1c20.2,-15.4 37,-34.9 49.1,-57.4c13.4,-24.9 21,-53.3 21,-83.5c0.1,-97.6 -79.3,-177 -176.9,-177Zm144.3,238.7l-40.1,0c-4,0 -7.3,3.3 -7.3,7.3l0,54.3c-2.1,1.7 -4.3,3.3 -6.6,4.9l0,-112.9c0,-4 -3.3,-7.3 -7.3,-7.3l-16.6,0c-4,0 -7.3,3.3 -7.3,7.3l0.2,129.9c0,0 -4.1,1.7 -6.7,2.6l0,-177.2c0,-4 -3.3,-7.3 -7.3,-7.3l-16.6,0c-4,0 -7.3,3.3 -7.3,7.3c0,0 0,184.6 0.1,184.8c-2.1,0.3 -4.3,0.6 -6.5,0.8l0,-224.2c0,-4 -3.3,-7.3 -7.3,-7.3l-16.2,0c-4,0 -7.3,3.3 -7.3,7.3l0,224.2c-2.2,-0.2 -4.5,-0.5 -6.7,-0.8l0.1,-184.8c0,-4 -3.3,-7.3 -7.3,-7.3l-16.3,0c-4,0 -7.3,3.3 -7.3,7.3l0,177c-2.7,-1 -7.2,-2.8 -7.2,-2.8l0.1,-129.5c0,-4 -3.3,-7.3 -7.3,-7.3l-16.6,0c-4,0 -7.3,3.3 -7.3,7.3l0,112.2c-2.4,-1.7 -4.8,-3.5 -7.1,-5.4l0,-53.1c0,-4 -3.3,-7.3 -7.3,-7.3l-38.5,0c-10,-24.3 -12.7,-39.9 -12.7,-61.8c0,-86.6 70.4,-157 157,-157c86.6,0 157,70.4 157,157c0.2,22 -4.3,42.9 -12.5,61.8Z" style="fill-rule:nonzero;"/>    </g></svg>