<?xml version="1.0" encoding="UTF-8" standalone="no"?><!DOCTYPE svg PUBLIC "-//W3C//DTD SVG 1.1//EN" "http://www.w3.org/Graphics/SVG/1.1/DTD/svg11.dtd"><svg width="100%" height="100%" viewBox="0 0 512 512" version="1.1" xmlns="http://www.w3.org/2000/svg" xmlns:xlink="http://www.w3.org/1999/xlink" xml:space="preserve" style="fill-rule:evenodd;clip-rule:evenodd;stroke-linejoin:round;stroke-miterlimit:2;"><title>FINMA</title><desc></desc>    <g transform="matrix(14.2434,0,0,14.2559,-5636.69,-694.651)">        <g transform="matrix(0.0808261,0,0,0.0813058,405.509,55.9521)">            <rect x="-120" y="-88" width="443" height="440" style="fill:white;"/>        </g>        <g transform="matrix(-0.620149,-0.784484,-0.784484,0.620149,422.289,62.694)">            <path d="M-2.342,-4.836c-0.247,0.944 -0.494,1.89 -0.742,2.836c0.224,1.092 0.472,2.132 0.743,3.134c0.217,-0.839 0.435,-1.681 0.651,-2.525c-0.242,-1.088 -0.457,-2.232 -0.651,-3.445" style="fill:rgb(237,28,36);fill-rule:nonzero;"/>        </g>        <g transform="matrix(-0.710988,0.703204,0.703204,0.710988,410.133,70.1095)">            <path d="M0.586,-1.324c-0.524,0.39 -1.039,0.77 -1.543,1.138c0.518,0.131 1.032,0.266 1.543,0.404c0.491,-0.363 0.991,-0.734 1.501,-1.115c-0.496,-0.146 -0.998,-0.288 -1.501,-0.427" style="fill:rgb(237,28,36);fill-rule:nonzero;"/>        </g>        <g transform="matrix(0.68933,-0.724447,-0.724447,-0.68933,408.934,68.5801)">            <path d="M-0.556,-0.217c-0.504,0.369 -1.019,0.75 -1.545,1.141c0.512,0.135 1.027,0.268 1.545,0.396c0.543,-0.401 1.073,-0.79 1.594,-1.165c-0.535,-0.12 -1.065,-0.245 -1.594,-0.372" style="fill:rgb(237,28,36);fill-rule:nonzero;"/>        </g>        <g transform="matrix(-0.733162,0.680054,0.680054,0.733162,411.256,71.7741)">            <path d="M0.564,-1.345c-0.505,0.378 -1.001,0.748 -1.489,1.11c0.5,0.142 0.996,0.286 1.489,0.434c0.476,-0.355 0.96,-0.718 1.453,-1.088c-0.481,-0.155 -0.965,-0.307 -1.453,-0.456" style="fill:rgb(237,28,36);fill-rule:nonzero;"/>        </g>        <g transform="matrix(-0.515602,-0.856829,-0.856829,0.515602,407.015,71.2788)">            <path d="M-1.253,-2.216c-0.248,0.445 -0.496,0.886 -0.747,1.324c0.245,0.523 0.493,1.056 0.747,1.6c0.255,-0.425 0.51,-0.855 0.763,-1.29c-0.259,-0.556 -0.514,-1.102 -0.763,-1.634" style="fill:rgb(237,28,36);fill-rule:nonzero;"/>        </g>        <g transform="matrix(-0.512213,-0.858858,-0.858858,0.512213,406.138,73.0569)">            <path d="M-1.19,-2.096c-0.249,0.425 -0.498,0.847 -0.749,1.264c0.248,0.492 0.497,0.995 0.749,1.508c0.257,-0.408 0.514,-0.819 0.77,-1.237c-0.259,-0.522 -0.517,-1.036 -0.77,-1.535" style="fill:rgb(237,28,36);fill-rule:nonzero;"/>        </g>        <g transform="matrix(-0.756881,0.653553,0.653553,0.756881,410.202,73.6712)">            <path d="M0.534,-1.373c-0.476,0.357 -0.943,0.71 -1.4,1.056c0.47,0.162 0.937,0.327 1.4,0.493c0.451,-0.339 0.91,-0.685 1.377,-1.033c-0.456,-0.175 -0.913,-0.346 -1.377,-0.516" style="fill:rgb(237,28,36);fill-rule:nonzero;"/>        </g>        <g transform="matrix(-0.755008,0.655716,0.655716,0.755008,412.325,73.5198)">            <path d="M0.541,-1.369c-0.487,0.369 -0.964,0.73 -1.436,1.084c0.482,0.153 0.96,0.309 1.436,0.467c0.462,-0.349 0.931,-0.704 1.406,-1.064c-0.467,-0.164 -0.934,-0.327 -1.406,-0.487" style="fill:rgb(237,28,36);fill-rule:nonzero;"/>        </g>        <g transform="matrix(-0.748725,0.66288,0.66288,0.748725,414.515,73.3338)">            <path d="M0.556,-1.355c-0.502,0.382 -0.998,0.752 -1.49,1.113c0.499,0.143 0.996,0.289 1.49,0.437c0.479,-0.358 0.961,-0.725 1.447,-1.097c-0.48,-0.153 -0.961,-0.303 -1.447,-0.453" style="fill:rgb(237,28,36);fill-rule:nonzero;"/>        </g>        <g transform="matrix(0.500017,0.866016,0.866016,-0.500017,411.36,70.6948)">            <path d="M1.357,-0.783c-0.254,0.449 -0.505,0.903 -0.754,1.36c0.261,0.6 0.512,1.19 0.754,1.773c0.247,-0.474 0.496,-0.945 0.747,-1.412c-0.242,-0.566 -0.491,-1.14 -0.747,-1.721" style="fill:rgb(237,28,36);fill-rule:nonzero;"/>        </g>        <g transform="matrix(0.517779,0.855514,0.855514,-0.517779,410.197,69.0184)">            <path d="M1.397,-0.787c-0.253,0.467 -0.503,0.939 -0.751,1.415c0.261,0.627 0.511,1.244 0.751,1.85c0.245,-0.494 0.494,-0.985 0.743,-1.471c-0.239,-0.589 -0.487,-1.186 -0.743,-1.794" style="fill:rgb(237,28,36);fill-rule:nonzero;"/>        </g>        <g transform="matrix(0.535249,0.844694,0.844694,-0.535249,411.348,66.8715)">            <path d="M1.53,-0.842c-0.249,0.512 -0.495,1.028 -0.738,1.549c0.261,0.699 0.507,1.39 0.738,2.074c0.243,-0.551 0.488,-1.098 0.737,-1.641c-0.233,-0.652 -0.479,-1.311 -0.737,-1.982" style="fill:rgb(237,28,36);fill-rule:nonzero;"/>        </g>        <g transform="matrix(0.677282,-0.735724,-0.735724,-0.677282,411.277,68.1264)">            <path d="M-0.567,-0.22c-0.527,0.386 -1.062,0.785 -1.608,1.198c0.533,0.117 1.068,0.231 1.608,0.342c0.567,-0.423 1.122,-0.832 1.672,-1.225c-0.561,-0.101 -1.117,-0.207 -1.672,-0.315" style="fill:rgb(237,28,36);fill-rule:nonzero;"/>        </g>        <g transform="matrix(0.654584,-0.755989,-0.755989,-0.654584,410.09,66.5563)">            <path d="M-0.583,-0.232c-0.542,0.395 -1.093,0.806 -1.656,1.233c0.548,0.106 1.1,0.208 1.656,0.305c0.588,-0.438 1.165,-0.859 1.731,-1.263c-0.58,-0.086 -1.158,-0.178 -1.731,-0.275" style="fill:rgb(237,28,36);fill-rule:nonzero;"/>        </g>        <g transform="matrix(-0.553728,-0.832698,-0.832698,0.553728,405.423,66.5035)">            <path d="M-1.384,-2.581c-0.242,0.505 -0.488,1.005 -0.738,1.503c0.236,0.591 0.483,1.198 0.738,1.819c0.254,-0.476 0.504,-0.955 0.752,-1.439c-0.262,-0.644 -0.513,-1.271 -0.752,-1.883" style="fill:rgb(237,28,36);fill-rule:nonzero;"/>        </g>        <g transform="matrix(-0.548501,-0.83615,-0.83615,0.548501,404.517,68.3683)">            <path d="M-1.295,-2.398c-0.245,0.472 -0.492,0.94 -0.741,1.404c0.24,0.551 0.489,1.117 0.741,1.693c0.254,-0.447 0.506,-0.901 0.757,-1.358c-0.26,-0.593 -0.513,-1.174 -0.757,-1.739" style="fill:rgb(237,28,36);fill-rule:nonzero;"/>        </g>        <g transform="matrix(-0.715512,0.6986,0.6986,0.715512,407.925,70.4402)">            <path d="M0.573,-1.328c-0.507,0.373 -1.006,0.74 -1.491,1.096c0.5,0.143 0.997,0.292 1.491,0.441c0.475,-0.349 0.962,-0.707 1.459,-1.072c-0.482,-0.158 -0.969,-0.313 -1.459,-0.465" style="fill:rgb(237,28,36);fill-rule:nonzero;"/>        </g>        <g transform="matrix(-0.530377,-0.847762,-0.847762,0.530377,404.922,71.567)">            <path d="M-1.21,-2.184c-0.247,0.438 -0.495,0.871 -0.744,1.301c0.244,0.506 0.493,1.024 0.744,1.553c0.255,-0.419 0.512,-0.843 0.764,-1.271c-0.258,-0.539 -0.513,-1.068 -0.764,-1.583" style="fill:rgb(237,28,36);fill-rule:nonzero;"/>        </g>        <g transform="matrix(-0.530593,-0.847627,-0.847627,0.530593,404.116,73.284)">            <path d="M-1.155,-2.086c-0.247,0.423 -0.496,0.84 -0.747,1.254c0.248,0.48 0.498,0.969 0.747,1.472c0.256,-0.405 0.512,-0.814 0.767,-1.229c-0.257,-0.509 -0.513,-1.01 -0.767,-1.497" style="fill:rgb(237,28,36);fill-rule:nonzero;"/>        </g>        <g transform="matrix(-0.771349,0.636412,0.636412,0.771349,407.251,75.5401)">            <path d="M0.512,-1.382c-0.448,0.332 -0.889,0.66 -1.317,0.985c0.442,0.184 0.882,0.37 1.317,0.556c0.426,-0.318 0.859,-0.638 1.302,-0.96c-0.43,-0.196 -0.863,-0.388 -1.302,-0.581" style="fill:rgb(237,28,36);fill-rule:nonzero;"/>        </g>        <g transform="matrix(-0.776252,0.630423,0.630423,0.776252,409.237,75.466)">            <path d="M0.512,-1.393c-0.454,0.341 -0.897,0.677 -1.333,1.011c0.447,0.178 0.892,0.358 1.333,0.539c0.429,-0.326 0.868,-0.655 1.315,-0.986c-0.433,-0.19 -0.873,-0.378 -1.315,-0.564" style="fill:rgb(237,28,36);fill-rule:nonzero;"/>        </g>        <g transform="matrix(-0.778859,0.6272,0.6272,0.778859,411.263,75.4062)">            <path d="M0.512,-1.396c-0.459,0.351 -0.91,0.695 -1.353,1.034c0.455,0.173 0.905,0.347 1.353,0.523c0.436,-0.334 0.882,-0.672 1.333,-1.014c-0.44,-0.182 -0.884,-0.362 -1.333,-0.543" style="fill:rgb(237,28,36);fill-rule:nonzero;"/>        </g>        <g transform="matrix(-0.777663,0.628681,0.628681,0.777663,413.341,75.3399)">            <path d="M0.521,-1.39c-0.468,0.357 -0.93,0.711 -1.387,1.056c0.465,0.165 0.929,0.331 1.387,0.501c0.447,-0.341 0.9,-0.689 1.358,-1.039c-0.449,-0.174 -0.902,-0.347 -1.358,-0.518" style="fill:rgb(237,28,36);fill-rule:nonzero;"/>        </g>        <g transform="matrix(1,0,0,1,414.193,75.7026)">            <path d="M0,-1.181c0.559,-0.021 1.112,-0.044 1.657,-0.073c0.047,-0.003 0.093,-0.006 0.139,-0.009c-0.272,0.427 -0.541,0.854 -0.806,1.28c-0.58,0.026 -1.166,0.047 -1.758,0.065c0.253,-0.42 0.508,-0.841 0.768,-1.263" style="fill:rgb(237,28,36);fill-rule:nonzero;"/>        </g>        <g transform="matrix(1,0,0,1,415.733,72.3757)">            <path d="M0,1.336c-0.366,0.037 -0.733,0.071 -1.102,0.102c0.273,-0.439 0.551,-0.879 0.834,-1.319c0.047,-0.004 0.096,-0.008 0.144,-0.014c0.604,-0.06 1.199,-0.129 1.79,-0.207c-0.301,0.453 -0.597,0.904 -0.889,1.355c-0.258,0.029 -0.517,0.057 -0.777,0.083" style="fill:rgb(237,28,36);fill-rule:nonzero;"/>        </g>        <g transform="matrix(1,0,0,1,415.567,70.5999)">            <path d="M0,1.136c-0.006,0.001 -0.012,0.001 -0.017,0.002c-0.634,0.094 -1.274,0.18 -1.923,0.261c0.282,-0.452 0.568,-0.906 0.858,-1.358c0.297,-0.04 0.591,-0.082 0.883,-0.126c0.376,-0.056 0.749,-0.116 1.118,-0.178c-0.31,0.466 -0.617,0.932 -0.919,1.399" style="fill:rgb(237,28,36);fill-rule:nonzero;"/>        </g>        <g transform="matrix(0.519333,0.854572,0.854572,-0.519333,412.512,68.5693)">            <path d="M1.479,-0.832c-0.251,0.492 -0.497,0.987 -0.742,1.487c0.261,0.663 0.508,1.322 0.741,1.974c0.245,-0.526 0.492,-1.047 0.744,-1.566c-0.237,-0.626 -0.485,-1.256 -0.744,-1.895" style="fill:rgb(237,28,36);fill-rule:nonzero;"/>        </g>        <g transform="matrix(0.542894,0.839801,0.839801,-0.542894,413.819,66.196)">            <path d="M1.657,-0.902c-0.245,0.552 -0.486,1.107 -0.723,1.668c0.26,0.761 0.501,1.518 0.723,2.279c0.241,-0.606 0.487,-1.207 0.737,-1.805c-0.23,-0.712 -0.476,-1.424 -0.737,-2.142" style="fill:rgb(237,28,36);fill-rule:nonzero;"/>        </g>        <g transform="matrix(0.557354,0.830275,0.830275,-0.557354,412.654,64.4643)">            <path d="M1.731,-0.923c-0.245,0.579 -0.485,1.162 -0.721,1.749c0.261,0.812 0.501,1.616 0.721,2.421c0.238,-0.642 0.483,-1.279 0.733,-1.911c-0.227,-0.746 -0.471,-1.498 -0.733,-2.259" style="fill:rgb(237,28,36);fill-rule:nonzero;"/>        </g>        <g transform="matrix(0.632353,-0.774681,-0.774681,-0.632353,412.612,65.9161)">            <path d="M-0.602,-0.236c-0.579,0.423 -1.162,0.86 -1.755,1.318c0.582,0.079 1.167,0.152 1.755,0.221c0.627,-0.471 1.245,-0.92 1.86,-1.352c-0.622,-0.057 -1.244,-0.12 -1.86,-0.187" style="fill:rgb(237,28,36);fill-rule:nonzero;"/>        </g>        <g transform="matrix(0.564257,0.825599,0.825599,-0.564257,408.841,63.7649)">            <path d="M1.629,-0.86c-0.249,0.549 -0.492,1.105 -0.732,1.665c0.263,0.776 0.506,1.534 0.732,2.281c0.237,-0.604 0.483,-1.202 0.733,-1.797c-0.228,-0.7 -0.473,-1.416 -0.734,-2.149" style="fill:rgb(237,28,36);fill-rule:nonzero;"/>        </g>        <g transform="matrix(0.581238,-0.813733,-0.813733,-0.581238,410.163,62.8737)">            <path d="M-0.642,-0.253c-0.607,0.45 -1.224,0.925 -1.852,1.424c0.615,0.048 1.232,0.089 1.852,0.124c0.68,-0.52 1.344,-1.007 2.002,-1.471c-0.67,-0.017 -1.338,-0.044 -2.002,-0.077" style="fill:rgb(237,28,36);fill-rule:nonzero;"/>        </g>        <g transform="matrix(0.616903,-0.787039,-0.787039,-0.616903,407.555,63.7004)">            <path d="M-0.612,-0.246c-0.561,0.409 -1.134,0.839 -1.721,1.29c0.571,0.088 1.144,0.172 1.721,0.249c0.624,-0.465 1.232,-0.907 1.827,-1.327c-0.611,-0.064 -1.22,-0.135 -1.827,-0.212" style="fill:rgb(237,28,36);fill-rule:nonzero;"/>        </g>        <g transform="matrix(0.604032,-0.79696,-0.79696,-0.604032,406.219,62.4035)">            <path d="M-0.623,-0.25c-0.566,0.413 -1.144,0.85 -1.734,1.308c0.574,0.084 1.153,0.163 1.734,0.236c0.632,-0.477 1.249,-0.925 1.853,-1.348c-0.62,-0.06 -1.238,-0.124 -1.853,-0.196" style="fill:rgb(237,28,36);fill-rule:nonzero;"/>        </g>        <g transform="matrix(-0.575356,-0.817903,-0.817903,0.575356,402.769,63.8916)">            <path d="M-1.404,-2.705c-0.242,0.524 -0.488,1.045 -0.739,1.561c0.233,0.607 0.48,1.235 0.739,1.873c0.252,-0.487 0.501,-0.978 0.747,-1.475c-0.264,-0.671 -0.514,-1.324 -0.747,-1.959" style="fill:rgb(237,28,36);fill-rule:nonzero;"/>        </g>        <g transform="matrix(-0.654162,0.756354,0.756354,0.654162,406.459,65.6264)">            <path d="M0.652,-1.269c-0.572,0.421 -1.131,0.827 -1.676,1.213c0.562,0.103 1.12,0.211 1.676,0.323c0.521,-0.378 1.057,-0.773 1.604,-1.182c-0.531,-0.123 -1.066,-0.24 -1.604,-0.354" style="fill:rgb(237,28,36);fill-rule:nonzero;"/>        </g>        <g transform="matrix(-0.561834,-0.82725,-0.82725,0.561834,403.222,67.0218)">            <path d="M-1.307,-2.469c-0.243,0.484 -0.491,0.962 -0.74,1.438c0.238,0.56 0.485,1.136 0.739,1.724c0.255,-0.456 0.506,-0.918 0.755,-1.383c-0.26,-0.607 -0.513,-1.202 -0.755,-1.779" style="fill:rgb(237,28,36);fill-rule:nonzero;"/>        </g>        <g transform="matrix(-0.560715,-0.828009,-0.828009,0.560715,402.401,68.7972)">            <path d="M-1.236,-2.33c-0.245,0.459 -0.491,0.915 -0.74,1.365c0.241,0.527 0.487,1.067 0.74,1.621c0.255,-0.436 0.508,-0.877 0.758,-1.322c-0.258,-0.567 -0.512,-1.124 -0.758,-1.664" style="fill:rgb(237,28,36);fill-rule:nonzero;"/>        </g>        <g transform="matrix(-0.717158,0.69691,0.69691,0.717158,405.792,70.7455)">            <path d="M0.569,-1.326c-0.495,0.36 -0.982,0.714 -1.452,1.059c0.487,0.155 0.97,0.313 1.452,0.472c0.462,-0.338 0.936,-0.682 1.421,-1.033c-0.47,-0.169 -0.944,-0.334 -1.421,-0.498" style="fill:rgb(237,28,36);fill-rule:nonzero;"/>        </g>        <g transform="matrix(-0.547491,-0.836812,-0.836812,0.547491,402.886,71.8689)">            <path d="M-1.168,-2.161c-0.246,0.432 -0.493,0.86 -0.743,1.284c0.246,0.493 0.492,0.993 0.742,1.509c0.257,-0.414 0.511,-0.833 0.765,-1.254c-0.258,-0.526 -0.514,-1.039 -0.764,-1.539" style="fill:rgb(237,28,36);fill-rule:nonzero;"/>        </g>        <g transform="matrix(-0.551086,-0.834448,-0.834448,0.551086,402.14,73.5429)">            <path d="M-1.121,-2.083c-0.246,0.42 -0.492,0.836 -0.741,1.247c0.247,0.469 0.494,0.948 0.742,1.439c0.255,-0.404 0.511,-0.811 0.765,-1.224c-0.257,-0.499 -0.512,-0.985 -0.765,-1.462" style="fill:rgb(237,28,36);fill-rule:nonzero;"/>        </g>        <g transform="matrix(-0.765911,0.642947,0.642947,0.765911,405.305,75.6446)">            <path d="M0.515,-1.368c-0.446,0.321 -0.882,0.638 -1.307,0.954c0.439,0.191 0.875,0.382 1.307,0.574c0.42,-0.308 0.849,-0.617 1.29,-0.927c-0.426,-0.202 -0.855,-0.402 -1.29,-0.601" style="fill:rgb(237,28,36);fill-rule:nonzero;"/>        </g>        <g transform="matrix(-0.538584,-0.842572,-0.842572,0.538584,402.632,76.5836)">            <path d="M-1.069,-1.951c-0.246,0.401 -0.495,0.799 -0.744,1.191c0.249,0.44 0.499,0.886 0.744,1.345c0.257,-0.386 0.513,-0.778 0.769,-1.174c-0.255,-0.463 -0.511,-0.919 -0.769,-1.362" style="fill:rgb(237,28,36);fill-rule:nonzero;"/>        </g>        <g transform="matrix(-0.784849,0.619686,0.619686,0.784849,406.426,77.207)">            <path d="M0.493,-1.393c-0.434,0.317 -0.855,0.632 -1.269,0.946c0.427,0.196 0.85,0.394 1.269,0.592c0.411,-0.308 0.831,-0.613 1.26,-0.92c-0.415,-0.206 -0.836,-0.413 -1.26,-0.618" style="fill:rgb(237,28,36);fill-rule:nonzero;"/>        </g>        <g transform="matrix(-0.79164,0.610988,0.610988,0.79164,408.342,77.1771)">            <path d="M0.496,-1.403c-0.435,0.324 -0.863,0.648 -1.28,0.97c0.43,0.192 0.857,0.386 1.28,0.58c0.413,-0.315 0.832,-0.631 1.262,-0.948c-0.416,-0.202 -0.838,-0.402 -1.262,-0.602" style="fill:rgb(237,28,36);fill-rule:nonzero;"/>        </g>        <g transform="matrix(1,0,0,1,409.043,77.5992)">            <path d="M0,-1.242c0.551,0.001 1.095,0.005 1.63,0.011c-0.233,0.412 -0.462,0.823 -0.687,1.231c-0.419,-0.003 -0.837,-0.006 -1.265,-0.006c-0.111,0 -0.226,0.001 -0.338,0.001c0.217,-0.411 0.436,-0.824 0.66,-1.237" style="fill:rgb(237,28,36);fill-rule:nonzero;"/>        </g>        <g transform="matrix(-0.799232,0.601023,0.601023,0.799232,412.276,77.2066)">            <path d="M0.496,-1.416c-0.443,0.342 -0.88,0.68 -1.311,1.014c0.44,0.182 0.878,0.365 1.311,0.55c0.424,-0.33 0.853,-0.661 1.289,-0.995c-0.427,-0.191 -0.855,-0.381 -1.289,-0.569" style="fill:rgb(237,28,36);fill-rule:nonzero;"/>        </g>        <g transform="matrix(-0.797847,0.60286,0.60286,0.797847,414.309,77.2292)">            <path d="M0.498,-1.415c-0.45,0.35 -0.897,0.694 -1.341,1.033c0.451,0.176 0.898,0.354 1.341,0.531c0.435,-0.335 0.874,-0.675 1.315,-1.019c-0.434,-0.183 -0.873,-0.365 -1.315,-0.545" style="fill:rgb(237,28,36);fill-rule:nonzero;"/>        </g>        <g transform="matrix(1,0,0,1,415.139,77.6414)">            <path d="M0,-1.223c0.05,0 0.103,0.001 0.153,0.001c0.536,0 1.065,-0.007 1.591,-0.017c-0.268,0.417 -0.532,0.835 -0.792,1.25c-0.266,0.003 -0.532,0.005 -0.799,0.004c-0.3,0 -0.605,-0.003 -0.907,-0.006c0.248,-0.409 0.499,-0.82 0.754,-1.232" style="fill:rgb(237,28,36);fill-rule:nonzero;"/>        </g>        <g transform="matrix(1,0,0,1,415.917,74.2813)">            <path d="M0,1.403c-0.109,0.006 -0.221,0.01 -0.331,0.016c0.267,-0.429 0.54,-0.857 0.814,-1.286c0.631,-0.04 1.254,-0.088 1.873,-0.149c-0.292,0.441 -0.58,0.88 -0.864,1.32c-0.495,0.038 -0.991,0.072 -1.492,0.099" style="fill:rgb(237,28,36);fill-rule:nonzero;"/>        </g>        <g transform="matrix(-0.735279,0.677764,0.677764,0.735279,420.033,74.7727)">            <path d="M0.597,-1.298c-0.538,0.398 -1.082,0.78 -1.636,1.148c0.548,0.124 1.094,0.251 1.636,0.382c0.523,-0.371 1.037,-0.753 1.546,-1.147c-0.513,-0.129 -1.027,-0.257 -1.546,-0.383" style="fill:rgb(237,28,36);fill-rule:nonzero;"/>        </g>        <g transform="matrix(0.500273,0.865868,0.865868,-0.500273,416.94,71.8743)">            <path d="M1.475,-0.852c-0.245,0.484 -0.49,0.973 -0.732,1.465c0.261,0.643 0.505,1.291 0.732,1.944c0.248,-0.523 0.498,-1.043 0.749,-1.559c-0.236,-0.62 -0.485,-1.236 -0.749,-1.85" style="fill:rgb(237,28,36);fill-rule:nonzero;"/>        </g>        <g transform="matrix(0.513588,0.858037,0.858037,-0.513588,415.958,69.9106)">            <path d="M1.529,-0.867c-0.245,0.505 -0.488,1.012 -0.729,1.523c0.26,0.679 0.504,1.357 0.729,2.042c0.246,-0.546 0.494,-1.09 0.745,-1.628c-0.233,-0.649 -0.483,-1.293 -0.745,-1.937" style="fill:rgb(237,28,36);fill-rule:nonzero;"/>        </g>        <g transform="matrix(0.528511,0.848926,0.848926,-0.528511,414.917,68.015)">            <path d="M1.591,-0.884c-0.245,0.527 -0.487,1.057 -0.725,1.592c0.26,0.718 0.5,1.434 0.725,2.157c0.244,-0.576 0.491,-1.147 0.742,-1.715c-0.233,-0.677 -0.481,-1.354 -0.742,-2.034" style="fill:rgb(237,28,36);fill-rule:nonzero;"/>        </g>        <g transform="matrix(0.559303,0.828963,0.828963,-0.559303,416.422,65.3229)">            <path d="M1.846,-0.981c-0.241,0.613 -0.476,1.233 -0.705,1.855c0.258,0.854 0.493,1.716 0.705,2.598c0.239,-0.695 0.485,-1.386 0.736,-2.072c-0.226,-0.801 -0.472,-1.593 -0.736,-2.381" style="fill:rgb(237,28,36);fill-rule:nonzero;"/>        </g>        <g transform="matrix(1,0,0,1,415.623,62.8942)">            <path d="M0,2.721c0.396,-0.57 0.8,-1.138 1.211,-1.702c0.903,-0.315 1.795,-0.651 2.692,-1.019c-0.123,0.161 -0.246,0.322 -0.369,0.483c-0.349,0.46 -0.693,0.923 -1.034,1.387c-0.826,0.304 -1.656,0.586 -2.5,0.851" style="fill:rgb(237,28,36);fill-rule:nonzero;"/>        </g>        <g transform="matrix(1,0,0,1,414.536,60.9392)">            <path d="M0,2.987c0.42,-0.6 0.849,-1.197 1.286,-1.792c0.961,-0.371 1.908,-0.768 2.856,-1.195c-0.263,0.34 -0.524,0.68 -0.784,1.019c-0.246,0.324 -0.49,0.648 -0.732,0.974c-0.863,0.351 -1.734,0.68 -2.626,0.994" style="fill:rgb(237,28,36);fill-rule:nonzero;"/>        </g>        <g transform="matrix(0.566419,-0.824117,-0.824117,-0.566419,414.213,63.4196)">            <path d="M-0.655,-0.244c-0.652,0.485 -1.305,0.991 -1.964,1.521c0.651,0.015 1.307,0.026 1.964,0.027c0.719,-0.552 1.433,-1.076 2.154,-1.58c-0.72,0.02 -1.439,0.031 -2.154,0.032" style="fill:rgb(237,28,36);fill-rule:nonzero;"/>        </g>        <g transform="matrix(0.584379,0.811481,0.811481,-0.584379,410.113,61.3127)">            <path d="M1.88,-0.963c-0.246,0.63 -0.485,1.263 -0.716,1.902c0.266,0.926 0.503,1.831 0.715,2.731c0.235,-0.722 0.478,-1.439 0.73,-2.149c-0.22,-0.812 -0.463,-1.639 -0.73,-2.484" style="fill:rgb(237,28,36);fill-rule:nonzero;"/>        </g>        <g transform="matrix(0.595959,0.803015,0.803015,-0.595959,408.741,59.9107)">            <path d="M1.943,-0.978c-0.244,0.651 -0.483,1.306 -0.713,1.966c0.273,0.98 0.509,1.934 0.713,2.874c0.234,-0.759 0.476,-1.513 0.731,-2.26c-0.218,-0.841 -0.459,-1.698 -0.731,-2.58" style="fill:rgb(237,28,36);fill-rule:nonzero;"/>        </g>        <g transform="matrix(0.563597,-0.82605,-0.82605,-0.563597,408.844,61.5166)">            <path d="M-0.655,-0.255c-0.615,0.458 -1.242,0.942 -1.881,1.455c0.625,0.038 1.253,0.071 1.881,0.095c0.698,-0.536 1.381,-1.038 2.053,-1.511c-0.687,-0.004 -1.371,-0.018 -2.053,-0.039" style="fill:rgb(237,28,36);fill-rule:nonzero;"/>        </g>        <g transform="matrix(0.551281,-0.834319,-0.834319,-0.551281,407.471,60.2556)">            <path d="M-0.664,-0.257c-0.62,0.462 -1.248,0.952 -1.891,1.473c0.628,0.035 1.257,0.062 1.891,0.081c0.705,-0.547 1.397,-1.06 2.076,-1.535c-0.694,0.002 -1.386,-0.004 -2.076,-0.019" style="fill:rgb(237,28,36);fill-rule:nonzero;"/>        </g>        <g transform="matrix(0.54474,-0.838605,-0.838605,-0.54474,406.059,59.0782)">            <path d="M-0.673,-0.254c-0.616,0.462 -1.242,0.954 -1.881,1.48c0.624,0.033 1.251,0.059 1.881,0.078c0.709,-0.555 1.404,-1.067 2.085,-1.544c-0.697,0.005 -1.393,-0.001 -2.085,-0.014" style="fill:rgb(237,28,36);fill-rule:nonzero;"/>        </g>        <g transform="matrix(0.544179,-0.838969,-0.838969,-0.544179,404.616,57.9635)">            <path d="M-0.678,-0.253c-0.607,0.459 -1.225,0.95 -1.856,1.473c0.617,0.037 1.236,0.068 1.856,0.09c0.705,-0.552 1.392,-1.062 2.068,-1.536c-0.692,0.001 -1.38,-0.008 -2.068,-0.027" style="fill:rgb(237,28,36);fill-rule:nonzero;"/>        </g>        <g transform="matrix(-0.596479,0.802629,0.802629,0.596479,404.851,61.0422)">            <path d="M0.741,-1.215c-0.635,0.48 -1.254,0.931 -1.862,1.356c0.624,0.057 1.243,0.12 1.862,0.191c0.563,-0.415 1.143,-0.855 1.732,-1.316c-0.575,-0.084 -1.152,-0.16 -1.732,-0.231" style="fill:rgb(237,28,36);fill-rule:nonzero;"/>        </g>        <g transform="matrix(-0.582171,-0.813067,-0.813067,0.582171,401.418,62.6704)">            <path d="M-1.402,-2.727c-0.242,0.527 -0.488,1.051 -0.739,1.57c0.231,0.608 0.48,1.237 0.74,1.877c0.252,-0.487 0.501,-0.98 0.746,-1.476c-0.264,-0.675 -0.515,-1.334 -0.746,-1.971" style="fill:rgb(237,28,36);fill-rule:nonzero;"/>        </g>        <g transform="matrix(-0.580239,-0.814446,-0.814446,0.580239,400.585,64.4914)">            <path d="M-1.311,-2.544c-0.243,0.494 -0.49,0.984 -0.74,1.468c0.235,0.569 0.483,1.155 0.74,1.752c0.254,-0.461 0.504,-0.929 0.752,-1.399c-0.261,-0.622 -0.515,-1.232 -0.752,-1.821" style="fill:rgb(237,28,36);fill-rule:nonzero;"/>        </g>        <g transform="matrix(-0.668243,0.743943,0.743943,0.668243,404.184,66.1747)">            <path d="M0.627,-1.281c-0.542,0.396 -1.073,0.779 -1.587,1.145c0.532,0.124 1.061,0.255 1.587,0.388c0.498,-0.36 1.009,-0.733 1.531,-1.117c-0.507,-0.143 -1.018,-0.281 -1.531,-0.416" style="fill:rgb(237,28,36);fill-rule:nonzero;"/>        </g>        <g transform="matrix(-0.572109,-0.820177,-0.820177,0.572109,401.108,67.4991)">            <path d="M-1.242,-2.38c-0.244,0.467 -0.49,0.928 -0.739,1.385c0.24,0.535 0.485,1.081 0.739,1.643c0.255,-0.443 0.507,-0.888 0.757,-1.337c-0.26,-0.578 -0.513,-1.144 -0.757,-1.691" style="fill:rgb(237,28,36);fill-rule:nonzero;"/>        </g>        <g transform="matrix(-0.574532,-0.818482,-0.818482,0.574532,400.36,69.2126)">            <path d="M-1.181,-2.272c-0.244,0.448 -0.49,0.891 -0.738,1.33c0.242,0.508 0.486,1.025 0.738,1.556c0.255,-0.426 0.508,-0.855 0.759,-1.29c-0.259,-0.546 -0.512,-1.077 -0.759,-1.596" style="fill:rgb(237,28,36);fill-rule:nonzero;"/>        </g>        <g transform="matrix(-0.718517,0.695509,0.695509,0.718517,403.729,71.0473)">            <path d="M0.565,-1.319c-0.485,0.346 -0.956,0.685 -1.418,1.018c0.477,0.166 0.949,0.334 1.418,0.503c0.453,-0.325 0.913,-0.654 1.387,-0.991c-0.458,-0.178 -0.921,-0.356 -1.387,-0.53" style="fill:rgb(237,28,36);fill-rule:nonzero;"/>        </g>        <g transform="matrix(-0.566032,-0.824383,-0.824383,0.566032,400.904,72.1898)">            <path d="M-1.128,-2.143c-0.245,0.428 -0.49,0.852 -0.738,1.272c0.244,0.477 0.489,0.965 0.738,1.465c0.255,-0.41 0.509,-0.825 0.763,-1.244c-0.257,-0.511 -0.511,-1.006 -0.763,-1.493" style="fill:rgb(237,28,36);fill-rule:nonzero;"/>        </g>        <g transform="matrix(-0.572802,-0.819693,-0.819693,0.572802,400.215,73.8357)">            <path d="M-1.084,-2.08c-0.244,0.418 -0.488,0.833 -0.734,1.242c0.244,0.456 0.489,0.925 0.734,1.403c0.255,-0.402 0.508,-0.808 0.761,-1.219c-0.255,-0.487 -0.508,-0.962 -0.761,-1.426" style="fill:rgb(237,28,36);fill-rule:nonzero;"/>        </g>        <g transform="matrix(-0.758884,0.651226,0.651226,0.758884,403.398,75.7861)">            <path d="M0.515,-1.353c-0.444,0.31 -0.875,0.619 -1.297,0.926c0.437,0.196 0.87,0.391 1.297,0.588c0.416,-0.298 0.846,-0.596 1.283,-0.896c-0.424,-0.207 -0.851,-0.412 -1.283,-0.618" style="fill:rgb(237,28,36);fill-rule:nonzero;"/>        </g>        <g transform="matrix(-0.564542,-0.825404,-0.825404,0.564542,400.761,76.7959)">            <path d="M-1.041,-1.973c-0.244,0.403 -0.489,0.802 -0.734,1.196c0.246,0.432 0.491,0.875 0.734,1.326c0.255,-0.389 0.509,-0.783 0.763,-1.181c-0.252,-0.458 -0.507,-0.905 -0.763,-1.341" style="fill:rgb(237,28,36);fill-rule:nonzero;"/>        </g>        <g transform="matrix(-0.575041,-0.818125,-0.818125,0.575041,400.115,78.3912)">            <path d="M-1.008,-1.941c-0.245,0.402 -0.487,0.798 -0.731,1.188c0.247,0.416 0.49,0.842 0.731,1.277c0.253,-0.386 0.506,-0.776 0.76,-1.174c-0.25,-0.439 -0.504,-0.87 -0.76,-1.291" style="fill:rgb(237,28,36);fill-rule:nonzero;"/>        </g>        <g transform="matrix(-0.78625,0.617909,0.617909,0.78625,403.823,78.8635)">            <path d="M0.486,-1.377c-0.421,0.292 -0.831,0.586 -1.233,0.881c0.415,0.211 0.827,0.421 1.233,0.634c0.398,-0.286 0.806,-0.57 1.223,-0.851c-0.402,-0.222 -0.81,-0.443 -1.223,-0.664" style="fill:rgb(237,28,36);fill-rule:nonzero;"/>        </g>        <g transform="matrix(-0.795357,0.606142,0.606142,0.795357,405.651,78.8229)">            <path d="M0.479,-1.398c-0.421,0.302 -0.83,0.605 -1.231,0.911c0.415,0.206 0.825,0.413 1.231,0.622c0.399,-0.297 0.807,-0.591 1.224,-0.884c-0.404,-0.216 -0.811,-0.433 -1.224,-0.649" style="fill:rgb(237,28,36);fill-rule:nonzero;"/>        </g>        <g transform="matrix(1,0,0,1,406.281,79.2266)">            <path d="M0,-1.247c0.523,0 1.041,0.007 1.549,0.018c-0.213,0.411 -0.425,0.822 -0.631,1.229c-0.351,-0.005 -0.699,-0.012 -1.056,-0.012c-0.154,0 -0.311,0.003 -0.467,0.004c0.197,-0.412 0.399,-0.824 0.605,-1.239" style="fill:rgb(237,28,36);fill-rule:nonzero;"/>        </g>        <g transform="matrix(-0.811084,0.584929,0.584929,0.811084,409.385,78.8807)">            <path d="M0.479,-1.421c-0.421,0.321 -0.835,0.641 -1.24,0.96c0.418,0.199 0.83,0.4 1.24,0.601c0.401,-0.312 0.809,-0.625 1.225,-0.938c-0.405,-0.208 -0.812,-0.416 -1.225,-0.623" style="fill:rgb(237,28,36);fill-rule:nonzero;"/>        </g>        <g transform="matrix(-0.816225,0.577734,0.577734,0.816225,411.295,78.9704)">            <path d="M0.476,-1.431c-0.424,0.328 -0.84,0.654 -1.25,0.979c0.42,0.195 0.837,0.391 1.25,0.589c0.404,-0.32 0.816,-0.64 1.233,-0.96c-0.407,-0.204 -0.819,-0.407 -1.233,-0.608" style="fill:rgb(237,28,36);fill-rule:nonzero;"/>        </g>        <g transform="matrix(-0.818515,0.574486,0.574486,0.818515,413.238,79.0773)">            <path d="M0.475,-1.438c-0.428,0.336 -0.851,0.668 -1.269,0.997c0.427,0.191 0.849,0.382 1.269,0.577c0.412,-0.325 0.827,-0.652 1.249,-0.981c-0.413,-0.199 -0.829,-0.397 -1.249,-0.593" style="fill:rgb(237,28,36);fill-rule:nonzero;"/>        </g>        <g transform="matrix(-0.81635,0.577558,0.577558,0.81635,415.226,79.1744)">            <path d="M0.479,-1.434c-0.436,0.344 -0.868,0.682 -1.297,1.014c0.436,0.184 0.868,0.371 1.297,0.556c0.422,-0.329 0.847,-0.663 1.273,-1.001c-0.421,-0.189 -0.844,-0.38 -1.273,-0.569" style="fill:rgb(237,28,36);fill-rule:nonzero;"/>        </g>        <g transform="matrix(-0.811437,0.584439,0.584439,0.811437,417.272,79.245)">            <path d="M0.488,-1.426c-0.451,0.35 -0.9,0.691 -1.349,1.024c0.452,0.18 0.903,0.359 1.349,0.54c0.437,-0.333 0.874,-0.674 1.31,-1.02c-0.434,-0.181 -0.87,-0.363 -1.31,-0.544" style="fill:rgb(237,28,36);fill-rule:nonzero;"/>        </g>        <g transform="matrix(0.455784,0.890091,0.890091,-0.455784,416.613,76.1225)">            <path d="M1.305,-0.798c-0.251,0.423 -0.503,0.849 -0.753,1.28c0.263,0.551 0.515,1.101 0.753,1.653c0.253,-0.449 0.507,-0.896 0.761,-1.339c-0.244,-0.533 -0.498,-1.065 -0.76,-1.594" style="fill:rgb(237,28,36);fill-rule:nonzero;"/>        </g>        <g transform="matrix(-0.755042,0.655677,0.655677,0.755042,420.845,76.893)">            <path d="M0.575,-1.312c-0.518,0.385 -1.042,0.755 -1.579,1.108c0.53,0.14 1.056,0.28 1.579,0.422c0.507,-0.358 1.003,-0.73 1.494,-1.111c-0.495,-0.141 -0.993,-0.281 -1.494,-0.419" style="fill:rgb(237,28,36);fill-rule:nonzero;"/>        </g>        <g transform="matrix(-0.71469,0.699441,0.699441,0.71469,423.282,76.4479)">            <path d="M0.643,-1.239c-0.569,0.411 -1.154,0.805 -1.762,1.175c0.59,0.11 1.177,0.22 1.762,0.333c0.557,-0.379 1.098,-0.772 1.625,-1.182c-0.538,-0.111 -1.081,-0.219 -1.625,-0.326" style="fill:rgb(237,28,36);fill-rule:nonzero;"/>        </g>        <g transform="matrix(0.514496,0.857493,0.857493,-0.514496,420.174,73.4943)">            <path d="M1.555,-0.88c-0.239,0.511 -0.476,1.028 -0.71,1.546c0.26,0.681 0.499,1.372 0.71,2.08c0.249,-0.566 0.498,-1.129 0.749,-1.688c-0.23,-0.658 -0.482,-1.302 -0.749,-1.938" style="fill:rgb(237,28,36);fill-rule:nonzero;"/>        </g>        <g transform="matrix(0.525099,0.851041,0.851041,-0.525099,419.306,71.3809)">            <path d="M1.611,-0.899c-0.239,0.533 -0.475,1.068 -0.71,1.609c0.259,0.711 0.498,1.435 0.71,2.177c0.246,-0.591 0.495,-1.178 0.746,-1.762c-0.229,-0.686 -0.479,-1.359 -0.746,-2.024" style="fill:rgb(237,28,36);fill-rule:nonzero;"/>        </g>        <g transform="matrix(0.535735,0.844386,0.844386,-0.535735,418.394,69.3089)">            <path d="M1.677,-0.922c-0.24,0.556 -0.476,1.114 -0.709,1.678c0.258,0.751 0.496,1.514 0.709,2.294c0.243,-0.619 0.491,-1.233 0.744,-1.844c-0.231,-0.72 -0.477,-1.428 -0.744,-2.128" style="fill:rgb(237,28,36);fill-rule:nonzero;"/>        </g>        <g transform="matrix(0.547134,0.837045,0.837045,-0.547134,417.436,67.2866)">            <path d="M1.754,-0.949c-0.239,0.581 -0.474,1.168 -0.705,1.757c0.257,0.797 0.492,1.605 0.705,2.434c0.242,-0.654 0.49,-1.303 0.741,-1.95c-0.228,-0.757 -0.476,-1.5 -0.741,-2.241" style="fill:rgb(237,28,36);fill-rule:nonzero;"/>        </g>        <g transform="matrix(1,0,0,1,419.567,63.4739)">            <path d="M0,3.026c0.347,-0.475 0.7,-0.95 1.058,-1.422c0.098,-0.129 0.197,-0.259 0.295,-0.388c0.933,-0.364 1.874,-0.768 2.838,-1.216c-0.515,0.677 -1.027,1.353 -1.536,2.025c-0.892,0.368 -1.774,0.698 -2.655,1.001" style="fill:rgb(237,28,36);fill-rule:nonzero;"/>        </g>        <g transform="matrix(1,0,0,1,418.679,61.2622)">            <path d="M0,3.295c0.223,-0.302 0.449,-0.603 0.677,-0.903c0.258,-0.337 0.517,-0.676 0.776,-1.015c0.982,-0.418 1.973,-0.872 2.99,-1.377c-0.551,0.714 -1.1,1.428 -1.642,2.139c-0.941,0.419 -1.87,0.802 -2.801,1.156" style="fill:rgb(237,28,36);fill-rule:nonzero;"/>        </g>        <g transform="matrix(1,0,0,1,417.737,59.0617)">            <path d="M0,3.633c0.117,-0.155 0.233,-0.31 0.352,-0.466c0.4,-0.524 0.808,-1.051 1.218,-1.579c1.046,-0.485 2.1,-1.013 3.19,-1.588c-0.601,0.764 -1.198,1.53 -1.789,2.294c-0.996,0.481 -1.98,0.924 -2.971,1.339" style="fill:rgb(237,28,36);fill-rule:nonzero;"/>        </g>        <g transform="matrix(1,0,0,1,416.725,56.8779)">            <path d="M0,4.053c0.031,-0.042 0.062,-0.084 0.095,-0.126c0.529,-0.689 1.069,-1.382 1.616,-2.074c1.128,-0.572 2.265,-1.188 3.444,-1.853c-0.664,0.827 -1.324,1.657 -1.976,2.488c-1.064,0.556 -2.115,1.076 -3.179,1.565" style="fill:rgb(237,28,36);fill-rule:nonzero;"/>        </g>        <g transform="matrix(1,0,0,1,416.631,60.8676)">            <path d="M0,-0.327c-0.168,0.219 -0.333,0.439 -0.498,0.659c-0.901,0.402 -1.817,0.784 -2.762,1.149c0.444,-0.634 0.9,-1.263 1.364,-1.887c1.032,-0.439 2.039,-0.905 3.045,-1.402c-0.387,0.494 -0.771,0.988 -1.149,1.481" style="fill:rgb(237,28,36);fill-rule:nonzero;"/>        </g>        <g transform="matrix(1,0,0,1,415.011,58.5861)">            <path d="M0,1.006c-0.936,0.454 -1.894,0.888 -2.893,1.305c0.467,-0.666 0.947,-1.326 1.438,-1.982c1.112,-0.515 2.187,-1.058 3.256,-1.634c-0.489,0.614 -0.972,1.228 -1.445,1.842c-0.12,0.156 -0.238,0.313 -0.356,0.469" style="fill:rgb(237,28,36);fill-rule:nonzero;"/>        </g>        <g transform="matrix(1,0,0,1,413.779,57.0814)">            <path d="M0,1.05c-0.963,0.501 -1.956,0.984 -3.006,1.446c0.484,-0.694 0.983,-1.382 1.494,-2.063c1.202,-0.595 2.346,-1.22 3.474,-1.879c-0.556,0.689 -1.103,1.38 -1.637,2.07c-0.109,0.141 -0.217,0.284 -0.325,0.426" style="fill:rgb(237,28,36);fill-rule:nonzero;"/>        </g>        <g transform="matrix(0.484619,-0.874725,-0.874725,-0.484619,410.427,59.0452)">            <path d="M-0.72,-0.234c-0.697,0.542 -1.402,1.116 -2.119,1.735c0.705,-0.044 1.411,-0.096 2.119,-0.158c0.824,-0.667 1.635,-1.28 2.442,-1.855c-0.814,0.107 -1.628,0.2 -2.442,0.278" style="fill:rgb(237,28,36);fill-rule:nonzero;"/>        </g>        <g transform="matrix(0.472291,-0.881442,-0.881442,-0.472291,409.017,57.8387)">            <path d="M-0.738,-0.222c-0.697,0.544 -1.402,1.13 -2.119,1.761c0.705,-0.049 1.411,-0.108 2.119,-0.177c0.84,-0.686 1.666,-1.312 2.486,-1.891c-0.829,0.118 -1.658,0.218 -2.486,0.307" style="fill:rgb(237,28,36);fill-rule:nonzero;"/>        </g>        <g transform="matrix(0.466239,-0.884659,-0.884659,-0.466239,407.538,56.729)">            <path d="M-0.744,-0.221c-0.69,0.545 -1.388,1.131 -2.098,1.764c0.698,-0.047 1.398,-0.106 2.098,-0.174c0.838,-0.695 1.662,-1.322 2.476,-1.899c-0.825,0.118 -1.651,0.221 -2.476,0.309" style="fill:rgb(237,28,36);fill-rule:nonzero;"/>        </g>        <g transform="matrix(0.471959,-0.88162,-0.88162,-0.471959,406.013,55.7073)">            <path d="M-0.742,-0.22c-0.676,0.533 -1.359,1.106 -2.053,1.728c0.683,-0.035 1.368,-0.083 2.053,-0.139c0.824,-0.682 1.632,-1.297 2.428,-1.859c-0.809,0.105 -1.618,0.195 -2.428,0.27" style="fill:rgb(237,28,36);fill-rule:nonzero;"/>        </g>        <g transform="matrix(0.484256,-0.874926,-0.874926,-0.484256,404.467,54.7218)">            <path d="M-0.735,-0.231c-0.658,0.518 -1.325,1.077 -2.002,1.682c0.666,-0.02 1.335,-0.051 2.002,-0.09c0.795,-0.659 1.575,-1.255 2.345,-1.797c-0.781,0.084 -1.563,0.152 -2.345,0.205" style="fill:rgb(237,28,36);fill-rule:nonzero;"/>        </g>        <g transform="matrix(0.501756,-0.865009,-0.865009,-0.501756,402.917,53.7594)">            <path d="M-0.721,-0.239c-0.638,0.5 -1.282,1.037 -1.936,1.618c0.644,0 1.289,-0.01 1.936,-0.029c0.759,-0.629 1.507,-1.197 2.243,-1.716c-0.749,0.054 -1.496,0.097 -2.243,0.127" style="fill:rgb(237,28,36);fill-rule:nonzero;"/>        </g>        <g transform="matrix(-0.594986,-0.803736,-0.803736,0.594986,399.054,55.4526)">            <path d="M-1.594,-3.163c-0.241,0.611 -0.488,1.217 -0.745,1.818c0.224,0.698 0.471,1.413 0.745,2.148c0.25,-0.536 0.496,-1.076 0.734,-1.62c-0.277,-0.808 -0.52,-1.589 -0.734,-2.346" style="fill:rgb(237,28,36);fill-rule:nonzero;"/>        </g>        <g transform="matrix(-0.548642,0.836057,0.836057,0.548642,403.125,56.6817)">            <path d="M0.833,-1.175c-0.687,0.544 -1.358,1.046 -2.017,1.51c0.673,0.009 1.346,0.028 2.017,0.056c0.596,-0.453 1.202,-0.935 1.818,-1.451c-0.604,-0.046 -1.21,-0.084 -1.818,-0.115" style="fill:rgb(237,28,36);fill-rule:nonzero;"/>        </g>        <g transform="matrix(-0.591352,-0.806414,-0.806414,0.591352,399.551,58.4749)">            <path d="M-1.483,-2.927c-0.241,0.564 -0.488,1.123 -0.741,1.677c0.227,0.65 0.475,1.317 0.741,2.002c0.251,-0.508 0.498,-1.021 0.74,-1.536c-0.27,-0.736 -0.518,-1.449 -0.74,-2.143" style="fill:rgb(237,28,36);fill-rule:nonzero;"/>        </g>        <g transform="matrix(-0.588347,-0.808609,-0.808609,0.588347,398.71,60.323)">            <path d="M-1.373,-2.697c-0.244,0.52 -0.49,1.037 -0.743,1.546c0.231,0.6 0.482,1.22 0.743,1.85c0.254,-0.478 0.503,-0.958 0.748,-1.443c-0.266,-0.669 -0.517,-1.321 -0.748,-1.953" style="fill:rgb(237,28,36);fill-rule:nonzero;"/>        </g>        <g transform="matrix(-0.627854,0.778331,0.778331,0.627854,402.452,61.8089)">            <path d="M0.689,-1.243c-0.581,0.432 -1.149,0.847 -1.704,1.236c0.571,0.095 1.138,0.199 1.704,0.306c0.523,-0.382 1.062,-0.788 1.609,-1.206c-0.533,-0.117 -1.07,-0.229 -1.609,-0.336" style="fill:rgb(237,28,36);fill-rule:nonzero;"/>        </g>        <g transform="matrix(-0.585968,-0.810334,-0.810334,0.585968,399.255,63.2856)">            <path d="M-1.302,-2.548c-0.243,0.494 -0.491,0.981 -0.741,1.465c0.235,0.569 0.483,1.152 0.741,1.748c0.254,-0.459 0.505,-0.924 0.753,-1.392c-0.263,-0.622 -0.517,-1.232 -0.753,-1.821" style="fill:rgb(237,28,36);fill-rule:nonzero;"/>        </g>        <g transform="matrix(-0.587742,-0.809048,-0.809048,0.587742,398.502,65.0221)">            <path d="M-1.232,-2.418c-0.244,0.471 -0.491,0.935 -0.741,1.396c0.238,0.538 0.484,1.086 0.741,1.65c0.255,-0.441 0.506,-0.887 0.755,-1.337c-0.262,-0.584 -0.514,-1.154 -0.755,-1.709" style="fill:rgb(237,28,36);fill-rule:nonzero;"/>        </g>        <g transform="matrix(-0.679395,0.733773,0.733773,0.679395,402.021,66.6559)">            <path d="M0.612,-1.287c-0.517,0.373 -1.024,0.736 -1.516,1.085c0.509,0.144 1.013,0.291 1.516,0.441c0.479,-0.342 0.964,-0.693 1.466,-1.057c-0.485,-0.16 -0.974,-0.316 -1.466,-0.469" style="fill:rgb(237,28,36);fill-rule:nonzero;"/>        </g>        <g transform="matrix(-0.584486,-0.811404,-0.811404,0.584486,399.079,67.9506)">            <path d="M-1.18,-2.304c-0.243,0.452 -0.489,0.9 -0.738,1.343c0.239,0.51 0.485,1.031 0.738,1.565c0.254,-0.428 0.507,-0.861 0.758,-1.297c-0.26,-0.552 -0.512,-1.086 -0.758,-1.611" style="fill:rgb(237,28,36);fill-rule:nonzero;"/>        </g>        <g transform="matrix(-0.589936,-0.80745,-0.80745,0.589936,398.392,69.621)">            <path d="M-1.128,-2.222c-0.245,0.438 -0.489,0.873 -0.736,1.302c0.24,0.486 0.486,0.986 0.736,1.493c0.253,-0.416 0.506,-0.837 0.757,-1.264c-0.258,-0.522 -0.51,-1.033 -0.757,-1.531" style="fill:rgb(237,28,36);fill-rule:nonzero;"/>        </g>        <g transform="matrix(-0.718922,0.695091,0.695091,0.718922,401.732,71.3551)">            <path d="M0.559,-1.313c-0.474,0.331 -0.934,0.657 -1.385,0.977c0.466,0.177 0.928,0.353 1.385,0.534c0.441,-0.311 0.895,-0.629 1.357,-0.949c-0.448,-0.19 -0.9,-0.378 -1.357,-0.562" style="fill:rgb(237,28,36);fill-rule:nonzero;"/>        </g>        <g transform="matrix(-0.586062,-0.810266,-0.810266,0.586062,398.982,72.532)">            <path d="M-1.086,-2.126c-0.244,0.424 -0.489,0.845 -0.734,1.259c0.243,0.464 0.488,0.936 0.734,1.422c0.253,-0.406 0.506,-0.816 0.758,-1.232c-0.255,-0.494 -0.508,-0.977 -0.758,-1.449" style="fill:rgb(237,28,36);fill-rule:nonzero;"/>        </g>        <g transform="matrix(-0.595448,-0.803394,-0.803394,0.595448,398.342,74.1606)">            <path d="M-1.047,-2.079c-0.242,0.418 -0.487,0.831 -0.73,1.24c0.243,0.445 0.485,0.9 0.73,1.366c0.252,-0.401 0.505,-0.807 0.756,-1.217c-0.252,-0.474 -0.504,-0.937 -0.756,-1.389" style="fill:rgb(237,28,36);fill-rule:nonzero;"/>        </g>        <g transform="matrix(-0.753238,0.657748,0.657748,0.753238,401.531,75.9648)">            <path d="M0.519,-1.33c-0.439,0.297 -0.871,0.593 -1.29,0.887c0.435,0.204 0.865,0.406 1.29,0.611c0.414,-0.286 0.836,-0.572 1.27,-0.86c-0.419,-0.214 -0.842,-0.427 -1.27,-0.638" style="fill:rgb(237,28,36);fill-rule:nonzero;"/>        </g>        <g transform="matrix(-0.59252,-0.805556,-0.805556,0.59252,398.927,77.0647)">            <path d="M-1.012,-2c-0.242,0.41 -0.484,0.813 -0.728,1.212c0.245,0.423 0.487,0.857 0.728,1.3c0.253,-0.393 0.505,-0.792 0.757,-1.198c-0.25,-0.447 -0.503,-0.885 -0.757,-1.314" style="fill:rgb(237,28,36);fill-rule:nonzero;"/>        </g>        <g transform="matrix(-0.603897,-0.797062,-0.797062,0.603897,398.327,78.658)">            <path d="M-0.98,-1.972c-0.241,0.407 -0.481,0.807 -0.722,1.203c0.243,0.41 0.484,0.826 0.722,1.256c0.25,-0.39 0.5,-0.784 0.75,-1.186c-0.248,-0.434 -0.498,-0.859 -0.75,-1.273" style="fill:rgb(237,28,36);fill-rule:nonzero;"/>        </g>        <g transform="matrix(-0.785055,0.619426,0.619426,0.785055,401.38,80.525)">            <path d="M0.478,-1.35c-0.415,0.265 -0.818,0.535 -1.213,0.806c0.41,0.226 0.814,0.453 1.213,0.68c0.391,-0.262 0.793,-0.521 1.203,-0.776c-0.395,-0.236 -0.797,-0.472 -1.203,-0.71" style="fill:rgb(237,28,36);fill-rule:nonzero;"/>        </g>        <g transform="matrix(-0.794622,0.607105,0.607105,0.794622,403.135,80.4291)">            <path d="M0.474,-1.372c-0.412,0.278 -0.815,0.558 -1.207,0.841c0.406,0.221 0.81,0.443 1.207,0.663c0.39,-0.274 0.789,-0.545 1.197,-0.813c-0.393,-0.231 -0.794,-0.461 -1.197,-0.691" style="fill:rgb(237,28,36);fill-rule:nonzero;"/>        </g>        <g transform="matrix(1,0,0,1,403.03,82.3241)">            <path d="M0,-1.237c0.251,-0.004 0.504,-0.011 0.753,-0.011c0.231,0 0.46,0.007 0.69,0.01c-0.19,0.414 -0.375,0.823 -0.558,1.23c-0.044,-0.001 -0.087,-0.003 -0.132,-0.003c-0.426,0 -0.855,0.008 -1.288,0.022c0.174,-0.413 0.353,-0.828 0.535,-1.248" style="fill:rgb(237,28,36);fill-rule:nonzero;"/>        </g>        <g transform="matrix(1,0,0,1,403.152,79.5429)">            <path d="M0,1.264c0.181,-0.413 0.367,-0.83 0.555,-1.248c0.344,-0.008 0.688,-0.016 1.026,-0.016c0.155,0 0.307,0.004 0.461,0.005c-0.198,0.414 -0.39,0.825 -0.58,1.234c-0.482,0.001 -0.969,0.009 -1.462,0.025" style="fill:rgb(237,28,36);fill-rule:nonzero;"/>        </g>        <g transform="matrix(-0.814826,0.579705,0.579705,0.814826,406.716,80.4256)">            <path d="M0.471,-1.408c-0.408,0.299 -0.809,0.6 -1.2,0.902c0.404,0.214 0.805,0.427 1.2,0.641c0.387,-0.294 0.783,-0.587 1.186,-0.877c-0.391,-0.222 -0.786,-0.444 -1.186,-0.666" style="fill:rgb(237,28,36);fill-rule:nonzero;"/>        </g>        <g transform="matrix(-0.823068,0.567943,0.567943,0.823068,408.538,80.5184)">            <path d="M0.464,-1.429c-0.407,0.309 -0.807,0.618 -1.198,0.928c0.405,0.21 0.803,0.421 1.198,0.632c0.388,-0.303 0.782,-0.605 1.185,-0.905c-0.391,-0.218 -0.786,-0.437 -1.185,-0.655" style="fill:rgb(237,28,36);fill-rule:nonzero;"/>        </g>        <g transform="matrix(-0.83107,0.556168,0.556168,0.83107,410.38,80.6585)">            <path d="M0.457,-1.445c-0.408,0.316 -0.807,0.631 -1.202,0.946c0.404,0.208 0.805,0.417 1.202,0.626c0.39,-0.309 0.786,-0.618 1.19,-0.925c-0.393,-0.216 -0.789,-0.431 -1.19,-0.647" style="fill:rgb(237,28,36);fill-rule:nonzero;"/>        </g>        <g transform="matrix(-0.83583,0.548988,0.548988,0.83583,412.25,80.8264)">            <path d="M0.455,-1.456c-0.41,0.323 -0.813,0.644 -1.213,0.964c0.408,0.206 0.812,0.41 1.213,0.615c0.394,-0.314 0.794,-0.629 1.198,-0.944c-0.397,-0.213 -0.795,-0.425 -1.198,-0.635" style="fill:rgb(237,28,36);fill-rule:nonzero;"/>        </g>        <g transform="matrix(-0.837837,0.545921,0.545921,0.837837,414.15,81.0094)">            <path d="M0.452,-1.46c-0.415,0.33 -0.823,0.656 -1.23,0.978c0.414,0.2 0.823,0.403 1.23,0.604c0.402,-0.32 0.806,-0.641 1.214,-0.964c-0.402,-0.206 -0.806,-0.412 -1.214,-0.618" style="fill:rgb(237,28,36);fill-rule:nonzero;"/>        </g>        <g transform="matrix(-0.835839,0.548975,0.548975,0.835839,416.096,81.1798)">            <path d="M0.457,-1.454c-0.422,0.337 -0.842,0.666 -1.261,0.989c0.424,0.195 0.845,0.391 1.261,0.587c0.411,-0.321 0.822,-0.649 1.236,-0.979c-0.407,-0.199 -0.82,-0.398 -1.236,-0.597" style="fill:rgb(237,28,36);fill-rule:nonzero;"/>        </g>        <g transform="matrix(-0.8281,0.56058,0.56058,0.8281,418.099,81.3122)">            <path d="M0.467,-1.44c-0.434,0.342 -0.869,0.678 -1.306,1.003c0.44,0.187 0.875,0.375 1.306,0.563c0.426,-0.327 0.849,-0.66 1.272,-0.999c-0.421,-0.189 -0.844,-0.378 -1.272,-0.567" style="fill:rgb(237,28,36);fill-rule:nonzero;"/>        </g>        <g transform="matrix(1,0,0,1,418.456,78.4003)">            <path d="M0,1.263c-0.362,0 -0.727,-0.008 -1.092,-0.015c0.257,-0.408 0.52,-0.817 0.784,-1.226c0.102,0 0.206,0.003 0.308,0.003c0.488,0 0.972,-0.009 1.453,-0.025c-0.279,0.42 -0.555,0.839 -0.827,1.257c-0.209,0.003 -0.416,0.006 -0.626,0.006" style="fill:rgb(237,28,36);fill-rule:nonzero;"/>        </g>        <g transform="matrix(-0.773024,0.634377,0.634377,0.773024,421.622,79.0541)">            <path d="M0.555,-1.325c-0.503,0.374 -1.013,0.733 -1.534,1.076c0.514,0.149 1.025,0.301 1.534,0.453c0.492,-0.348 0.976,-0.709 1.453,-1.082c-0.482,-0.15 -0.966,-0.299 -1.453,-0.447" style="fill:rgb(237,28,36);fill-rule:nonzero;"/>        </g>        <g transform="matrix(-0.732841,0.6804,0.6804,0.732841,424.011,78.6774)">            <path d="M0.624,-1.251c-0.554,0.398 -1.124,0.778 -1.716,1.134c0.575,0.123 1.147,0.247 1.716,0.373c0.543,-0.366 1.071,-0.748 1.583,-1.145c-0.524,-0.122 -1.053,-0.243 -1.583,-0.362" style="fill:rgb(237,28,36);fill-rule:nonzero;"/>        </g>        <g transform="matrix(0.547937,0.836519,0.836519,-0.547937,423.363,75.0658)">            <path d="M1.703,-0.92c-0.229,0.568 -0.457,1.14 -0.683,1.715c0.26,0.759 0.491,1.541 0.683,2.356c0.249,-0.653 0.499,-1.303 0.75,-1.948c-0.224,-0.729 -0.474,-1.436 -0.75,-2.123" style="fill:rgb(237,28,36);fill-rule:nonzero;"/>        </g>        <g transform="matrix(0.55388,0.832596,0.832596,-0.55388,422.596,72.8298)">            <path d="M1.758,-0.942c-0.229,0.586 -0.457,1.176 -0.682,1.77c0.26,0.788 0.488,1.604 0.682,2.453c0.247,-0.677 0.497,-1.351 0.75,-2.018c-0.225,-0.757 -0.475,-1.491 -0.75,-2.205" style="fill:rgb(237,28,36);fill-rule:nonzero;"/>        </g>        <g transform="matrix(1,0,0,1,422.023,70.2069)">            <path d="M0,2.463c0.376,-0.532 0.754,-1.064 1.14,-1.595c0.827,-0.247 1.658,-0.532 2.502,-0.868c-0.064,0.087 -0.128,0.175 -0.193,0.26c-0.379,0.511 -0.754,1.021 -1.125,1.532c-0.78,0.257 -1.553,0.478 -2.324,0.671" style="fill:rgb(237,28,36);fill-rule:nonzero;"/>        </g>        <g transform="matrix(1,0,0,1,423.65,68.7078)">            <path d="M0,1.096c-0.811,0.287 -1.615,0.539 -2.416,0.761c0.394,-0.551 0.793,-1.101 1.197,-1.651c0.858,-0.28 1.722,-0.601 2.602,-0.967c-0.275,0.369 -0.55,0.736 -0.823,1.103c-0.188,0.25 -0.375,0.502 -0.56,0.754" style="fill:rgb(237,28,36);fill-rule:nonzero;"/>        </g>        <g transform="matrix(1,0,0,1,422.946,66.5724)">            <path d="M0,1.06c-0.849,0.324 -1.69,0.612 -2.528,0.871c0.416,-0.576 0.838,-1.151 1.268,-1.723c0.892,-0.318 1.792,-0.675 2.711,-1.079c-0.487,0.647 -0.97,1.291 -1.451,1.93l0,0.001" style="fill:rgb(237,28,36);fill-rule:nonzero;"/>        </g>        <g transform="matrix(-0.625446,-0.780267,-0.780267,0.625446,421.503,60.4428)">            <path d="M-2.47,-5.144c-0.243,0.993 -0.488,1.991 -0.734,2.989c0.224,1.165 0.468,2.274 0.734,3.34c0.221,-0.895 0.44,-1.795 0.658,-2.697c-0.238,-1.145 -0.455,-2.35 -0.657,-3.632" style="fill:rgb(237,28,36);fill-rule:nonzero;"/>        </g>        <g transform="matrix(-0.631047,-0.775745,-0.775745,0.631047,420.686,58.1932)">            <path d="M-2.635,-5.54c-0.238,1.058 -0.481,2.123 -0.726,3.191c0.226,1.257 0.466,2.451 0.726,3.602c0.223,-0.968 0.445,-1.939 0.662,-2.913c-0.232,-1.223 -0.449,-2.508 -0.662,-3.88" style="fill:rgb(237,28,36);fill-rule:nonzero;"/>        </g>        <g transform="matrix(-0.636773,-0.771051,-0.771051,0.636773,419.824,55.9422)">            <path d="M-2.851,-6.052c-0.232,1.141 -0.47,2.292 -0.714,3.448c0.227,1.379 0.46,2.685 0.714,3.947c0.229,-1.063 0.452,-2.13 0.669,-3.197c-0.226,-1.319 -0.444,-2.709 -0.669,-4.198" style="fill:rgb(237,28,36);fill-rule:nonzero;"/>        </g>        <g transform="matrix(-0.642587,-0.766213,-0.766213,0.642587,418.903,53.6867)">            <path d="M-3.133,-6.716c-0.223,1.244 -0.456,2.506 -0.698,3.775c0.229,1.54 0.454,2.994 0.698,4.402c0.236,-1.19 0.461,-2.386 0.68,-3.578c-0.218,-1.439 -0.437,-2.963 -0.68,-4.599" style="fill:rgb(237,28,36);fill-rule:nonzero;"/>        </g>        <g transform="matrix(-0.629656,-0.776874,-0.776874,0.629656,414.89,56.2445)">            <path d="M-2.828,-5.933c-0.237,1.155 -0.479,2.312 -0.732,3.463c0.215,1.293 0.452,2.556 0.732,3.818c0.231,-0.976 0.455,-1.966 0.67,-2.963c-0.247,-1.392 -0.463,-2.816 -0.67,-4.318" style="fill:rgb(237,28,36);fill-rule:nonzero;"/>        </g>        <g transform="matrix(-0.641106,-0.767452,-0.767452,0.641106,413.516,54.4371)">            <path d="M-3.152,-6.741c-0.23,1.325 -0.474,2.656 -0.73,3.979c0.205,1.425 0.438,2.824 0.729,4.236c0.234,-1.074 0.456,-2.165 0.668,-3.264c-0.251,-1.598 -0.457,-3.226 -0.667,-4.951" style="fill:rgb(237,28,36);fill-rule:nonzero;"/>        </g>        <g transform="matrix(1,0,0,1,420.173,56.4886)">            <path d="M0,-6.127c-1.036,1.188 -2.067,2.397 -3.078,3.616c-0.989,0.659 -1.983,1.299 -3.016,1.915c-0.338,0.202 -0.682,0.399 -1.029,0.596c0.735,-0.944 1.497,-1.889 2.276,-2.829c1.599,-1.032 3.17,-2.132 4.847,-3.298" style="fill:rgb(237,28,36);fill-rule:nonzero;"/>        </g>        <g transform="matrix(1,0,0,1,413.446,57.7079)">            <path d="M0,-2.878c0.366,-0.219 0.728,-0.441 1.087,-0.667c-0.576,0.707 -1.142,1.416 -1.692,2.124c-0.144,0.185 -0.285,0.371 -0.427,0.558c-0.97,0.53 -1.987,1.039 -3.066,1.53c0.492,-0.71 0.997,-1.414 1.517,-2.109c0.894,-0.462 1.75,-0.941 2.581,-1.436" style="fill:rgb(237,28,36);fill-rule:nonzero;"/>        </g>        <g transform="matrix(1,0,0,1,413.144,57.2839)">            <path d="M0,-4.369c-0.533,0.65 -1.057,1.302 -1.566,1.954c-0.22,0.282 -0.437,0.565 -0.652,0.849c-0.967,0.542 -1.985,1.065 -3.078,1.566c0.487,-0.713 0.987,-1.421 1.503,-2.118c1.354,-0.712 2.6,-1.463 3.793,-2.251" style="fill:rgb(237,28,36);fill-rule:nonzero;"/>        </g>        <g transform="matrix(1,0,0,1,411.541,56.2688)">            <path d="M0,-4.345c-0.416,0.508 -0.826,1.017 -1.227,1.527c-0.335,0.426 -0.661,0.858 -0.984,1.292c-0.946,0.529 -1.95,1.04 -3.03,1.526c0.469,-0.701 0.954,-1.394 1.453,-2.079c1.37,-0.716 2.614,-1.473 3.788,-2.266" style="fill:rgb(237,28,36);fill-rule:nonzero;"/>        </g>        <g transform="matrix(1,0,0,1,409.751,55.2994)">            <path d="M0,-4.14c-0.236,0.291 -0.47,0.582 -0.7,0.873c-0.475,0.604 -0.938,1.216 -1.39,1.835c-0.915,0.498 -1.888,0.976 -2.935,1.432c0.445,-0.678 0.904,-1.348 1.376,-2.01c1.329,-0.671 2.529,-1.383 3.649,-2.13" style="fill:rgb(237,28,36);fill-rule:nonzero;"/>        </g>        <g transform="matrix(1,0,0,1,407.858,54.3451)">            <path d="M0,-3.818c-0.023,0.029 -0.047,0.058 -0.07,0.088c-0.628,0.794 -1.233,1.603 -1.818,2.424c-0.881,0.457 -1.817,0.893 -2.818,1.306c0.416,-0.648 0.844,-1.29 1.285,-1.924c1.245,-0.595 2.374,-1.228 3.421,-1.894" style="fill:rgb(237,28,36);fill-rule:nonzero;"/>        </g>        <g transform="matrix(-0.40846,0.912776,0.912776,0.40846,404.273,50.7903)">            <path d="M1.297,-1.046c-0.937,0.841 -1.865,1.579 -2.789,2.234c0.925,-0.222 1.856,-0.42 2.789,-0.596c0.72,-0.604 1.443,-1.263 2.17,-1.985c-0.724,0.103 -1.447,0.219 -2.17,0.347" style="fill:rgb(237,28,36);fill-rule:nonzero;"/>        </g>        <g transform="matrix(-0.59733,-0.801996,-0.801996,0.59733,398.583,52.3972)">            <path d="M-1.732,-3.45c-0.239,0.672 -0.489,1.34 -0.748,2.001c0.216,0.752 0.465,1.523 0.748,2.319c0.25,-0.57 0.493,-1.143 0.726,-1.722c-0.285,-0.895 -0.526,-1.76 -0.726,-2.598" style="fill:rgb(237,28,36);fill-rule:nonzero;"/>        </g>        <g transform="matrix(-0.540726,0.841199,0.841199,0.540726,399.835,51.56)">            <path d="M0.88,-1.181c-0.688,0.571 -1.367,1.093 -2.036,1.573c0.68,-0.004 1.359,0.004 2.036,0.021c0.592,-0.467 1.193,-0.968 1.801,-1.506c-0.599,-0.037 -1.199,-0.067 -1.801,-0.088" style="fill:rgb(237,28,36);fill-rule:nonzero;"/>        </g>        <g transform="matrix(0.58397,0.811775,0.811775,-0.58397,396.28,53.2987)">            <path d="M1.502,-0.77c-0.253,0.501 -0.502,1.007 -0.744,1.515c0.277,0.75 0.525,1.479 0.744,2.186c0.243,-0.563 0.494,-1.124 0.753,-1.68c-0.227,-0.657 -0.477,-1.331 -0.753,-2.021" style="fill:rgb(237,28,36);fill-rule:nonzero;"/>        </g>        <g transform="matrix(-0.568252,0.822854,0.822854,0.568252,400.215,54.5958)">            <path d="M0.806,-1.202c-0.645,0.518 -1.277,0.996 -1.899,1.443c0.635,0.036 1.268,0.08 1.899,0.132c0.566,-0.436 1.141,-0.9 1.724,-1.393c-0.571,-0.068 -1.148,-0.129 -1.724,-0.182" style="fill:rgb(237,28,36);fill-rule:nonzero;"/>        </g>        <g transform="matrix(0.586851,0.809695,0.809695,-0.586851,396.808,56.2416)">            <path d="M1.422,-0.726c-0.254,0.484 -0.503,0.974 -0.748,1.466c0.273,0.702 0.522,1.383 0.748,2.048c0.243,-0.536 0.494,-1.067 0.749,-1.593c-0.23,-0.626 -0.479,-1.266 -0.748,-1.921" style="fill:rgb(237,28,36);fill-rule:nonzero;"/>        </g>        <g transform="matrix(-0.596607,0.802533,0.802533,0.596607,400.636,57.6138)">            <path d="M0.747,-1.223c-0.609,0.474 -1.203,0.916 -1.787,1.332c0.598,0.07 1.194,0.144 1.787,0.226c0.543,-0.406 1.094,-0.836 1.655,-1.292c-0.55,-0.094 -1.1,-0.183 -1.655,-0.266" style="fill:rgb(237,28,36);fill-rule:nonzero;"/>        </g>        <g transform="matrix(-0.628307,0.777965,0.777965,0.628307,399.716,59.4687)">            <path d="M0.696,-1.25c-0.565,0.43 -1.122,0.84 -1.663,1.226c0.556,0.102 1.112,0.21 1.663,0.325c0.512,-0.378 1.034,-0.779 1.564,-1.194c-0.519,-0.123 -1.04,-0.243 -1.564,-0.357" style="fill:rgb(237,28,36);fill-rule:nonzero;"/>        </g>        <g transform="matrix(0.589682,0.807636,0.807636,-0.589682,396.607,60.9179)">            <path d="M1.271,-0.646c-0.255,0.449 -0.508,0.9 -0.756,1.356c0.265,0.611 0.519,1.211 0.756,1.792c0.244,-0.482 0.492,-0.96 0.744,-1.432c-0.236,-0.561 -0.482,-1.13 -0.744,-1.716" style="fill:rgb(237,28,36);fill-rule:nonzero;"/>        </g>        <g transform="matrix(-0.649345,0.760494,0.760494,0.649345,400.214,62.428)">            <path d="M0.655,-1.265c-0.54,0.399 -1.072,0.788 -1.586,1.154c0.531,0.123 1.06,0.252 1.586,0.385c0.495,-0.361 0.999,-0.735 1.514,-1.126c-0.501,-0.142 -1.006,-0.28 -1.514,-0.413" style="fill:rgb(237,28,36);fill-rule:nonzero;"/>        </g>        <g transform="matrix(-0.667196,0.744883,0.744883,0.667196,399.412,64.1546)">            <path d="M0.63,-1.274c-0.517,0.377 -1.018,0.739 -1.511,1.088c0.508,0.144 1.01,0.292 1.511,0.443c0.474,-0.343 0.956,-0.697 1.45,-1.064c-0.48,-0.16 -0.963,-0.316 -1.45,-0.467" style="fill:rgb(237,28,36);fill-rule:nonzero;"/>        </g>        <g transform="matrix(1,0,0,1,397.157,65.1288)">            <path d="M0,1.571c-0.139,0.027 -0.279,0.051 -0.417,0.077c0.188,-0.456 0.381,-0.913 0.578,-1.371c0.597,-0.119 1.178,-0.236 1.745,-0.354c-0.216,0.465 -0.426,0.931 -0.633,1.395c-0.418,0.084 -0.84,0.168 -1.273,0.253" style="fill:rgb(237,28,36);fill-rule:nonzero;"/>        </g>        <g transform="matrix(-0.688109,0.725607,0.725607,0.688109,399.956,67.0869)">            <path d="M0.602,-1.288c-0.497,0.355 -0.981,0.697 -1.456,1.033c0.489,0.158 0.975,0.321 1.456,0.487c0.459,-0.325 0.929,-0.662 1.408,-1.006c-0.465,-0.174 -0.934,-0.346 -1.408,-0.514" style="fill:rgb(237,28,36);fill-rule:nonzero;"/>        </g>        <g transform="matrix(1,0,0,1,397.909,69.3049)">            <path d="M0,-1.05c0.574,-0.106 1.136,-0.211 1.684,-0.312c-0.207,0.459 -0.41,0.916 -0.607,1.372c-0.499,0.092 -1.006,0.186 -1.526,0.281c-0.037,0.007 -0.074,0.014 -0.112,0.021c0.183,-0.452 0.369,-0.907 0.561,-1.362" style="fill:rgb(237,28,36);fill-rule:nonzero;"/>        </g>        <g transform="matrix(1,0,0,1,397.612,69.7186)">            <path d="M0,1.326c-0.294,0.053 -0.59,0.104 -0.885,0.155c0.171,-0.447 0.347,-0.898 0.528,-1.349c0.045,-0.008 0.093,-0.016 0.139,-0.024c0.506,-0.091 1,-0.178 1.486,-0.263c-0.194,0.454 -0.385,0.906 -0.57,1.358c-0.233,0.041 -0.461,0.081 -0.698,0.123" style="fill:rgb(237,28,36);fill-rule:nonzero;"/>        </g>        <g transform="matrix(-0.719642,0.694345,0.694345,0.719642,399.799,71.6662)">            <path d="M0.556,-1.303c-0.462,0.316 -0.915,0.628 -1.356,0.935c0.457,0.186 0.908,0.375 1.356,0.567c0.433,-0.3 0.873,-0.602 1.326,-0.91c-0.437,-0.2 -0.881,-0.397 -1.326,-0.592" style="fill:rgb(237,28,36);fill-rule:nonzero;"/>        </g>        <g transform="matrix(1,0,0,1,397.858,73.7863)">            <path d="M0,-1.089c0.534,-0.089 1.056,-0.172 1.572,-0.251c-0.189,0.448 -0.371,0.894 -0.552,1.338c-0.318,0.051 -0.637,0.102 -0.963,0.157c-0.19,0.031 -0.381,0.064 -0.572,0.096c0.168,-0.444 0.339,-0.891 0.515,-1.34" style="fill:rgb(237,28,36);fill-rule:nonzero;"/>        </g>        <g transform="matrix(1,0,0,1,398.067,74.2406)">            <path d="M0,1.149c-0.433,0.07 -0.866,0.142 -1.299,0.214c0.158,-0.441 0.321,-0.887 0.488,-1.334c0.204,-0.035 0.409,-0.069 0.613,-0.102c0.309,-0.05 0.61,-0.094 0.912,-0.141c-0.18,0.448 -0.355,0.892 -0.525,1.334c-0.064,0.01 -0.125,0.019 -0.189,0.029" style="fill:rgb(237,28,36);fill-rule:nonzero;"/>        </g>        <g transform="matrix(1,0,0,1,398.449,76.6691)">            <path d="M0,-1.115c0.515,-0.078 1.02,-0.148 1.519,-0.212c-0.182,0.442 -0.361,0.881 -0.535,1.317c-0.4,0.056 -0.804,0.115 -1.215,0.179c-0.09,0.014 -0.181,0.028 -0.272,0.043c0.163,-0.439 0.331,-0.881 0.503,-1.327" style="fill:rgb(237,28,36);fill-rule:nonzero;"/>        </g>        <g transform="matrix(1,0,0,1,397.86,78.2303)">            <path d="M0,-1.117c0.108,-0.017 0.217,-0.035 0.325,-0.051c0.389,-0.058 0.771,-0.109 1.152,-0.159c-0.176,0.444 -0.348,0.883 -0.514,1.32c-0.152,0.021 -0.3,0.039 -0.454,0.062c-0.33,0.05 -0.659,0.102 -0.989,0.155c0.156,-0.439 0.316,-0.881 0.48,-1.327" style="fill:rgb(237,28,36);fill-rule:nonzero;"/>        </g>        <g transform="matrix(1,0,0,1,396.839,78.4574)">            <path d="M0,1.54c0.15,-0.438 0.302,-0.881 0.46,-1.328c0.348,-0.055 0.696,-0.109 1.046,-0.16c0.131,-0.019 0.259,-0.034 0.389,-0.052c-0.168,0.444 -0.333,0.884 -0.492,1.319c-0.468,0.069 -0.936,0.142 -1.403,0.221" style="fill:rgb(237,28,36);fill-rule:nonzero;"/>        </g>        <g transform="matrix(1,0,0,1,398.446,81.1131)">            <path d="M0,-1.148c0.019,-0.003 0.038,-0.006 0.057,-0.008c0.462,-0.064 0.917,-0.115 1.37,-0.163c-0.173,0.44 -0.341,0.875 -0.505,1.306c-0.232,0.028 -0.461,0.05 -0.695,0.082c-0.234,0.032 -0.467,0.067 -0.701,0.102c0.154,-0.434 0.311,-0.874 0.474,-1.319" style="fill:rgb(237,28,36);fill-rule:nonzero;"/>        </g>        <g transform="matrix(1,0,0,1,398.798,81.5354)">            <path d="M0,1.099c-0.455,0.06 -0.909,0.129 -1.361,0.202c0.147,-0.435 0.298,-0.875 0.454,-1.321c0.257,-0.037 0.513,-0.077 0.77,-0.112c0.209,-0.026 0.413,-0.046 0.619,-0.07c-0.165,0.438 -0.327,0.872 -0.482,1.301" style="fill:rgb(237,28,36);fill-rule:nonzero;"/>        </g>        <g transform="matrix(0.788138,-0.615498,-0.615498,-0.788138,400.733,82.0656)">            <path d="M-0.442,-0.149c-0.385,0.251 -0.779,0.497 -1.182,0.739c0.387,0.242 0.781,0.484 1.182,0.726c0.406,-0.252 0.803,-0.508 1.19,-0.771c-0.403,-0.232 -0.8,-0.464 -1.19,-0.694" style="fill:rgb(237,28,36);fill-rule:nonzero;"/>        </g>        <g transform="matrix(0.567733,0.823213,0.823213,-0.567733,400.646,81.3428)">            <path d="M0.971,-0.51c-0.253,0.377 -0.506,0.761 -0.761,1.15c0.248,0.413 0.503,0.815 0.761,1.21c0.245,-0.391 0.487,-0.775 0.73,-1.156c-0.247,-0.392 -0.491,-0.793 -0.73,-1.204" style="fill:rgb(237,28,36);fill-rule:nonzero;"/>        </g>        <g transform="matrix(1,0,0,1,403.093,82.6129)">            <path d="M0,1.213c-0.405,0 -0.815,0.01 -1.226,0.024c0.168,-0.413 0.34,-0.83 0.517,-1.25c0.237,-0.006 0.475,-0.011 0.709,-0.011c0.234,0.001 0.463,0.009 0.695,0.014c-0.184,0.412 -0.364,0.821 -0.54,1.226c-0.052,0 -0.103,-0.003 -0.155,-0.003" style="fill:rgb(237,28,36);fill-rule:nonzero;"/>        </g>        <g transform="matrix(0.830031,-0.557718,-0.557718,-0.830031,405.236,83.5376)">            <path d="M-0.424,-0.124c-0.369,0.276 -0.747,0.547 -1.132,0.813c0.372,0.237 0.749,0.475 1.132,0.715c0.388,-0.277 0.769,-0.556 1.139,-0.84c-0.385,-0.23 -0.764,-0.459 -1.139,-0.688" style="fill:rgb(237,28,36);fill-rule:nonzero;"/>        </g>        <g transform="matrix(0.823548,-0.567246,-0.567246,-0.823548,405.948,82.0045)">            <path d="M-0.434,-0.129c-0.379,0.285 -0.765,0.566 -1.158,0.843c0.381,0.231 0.766,0.462 1.158,0.694c0.397,-0.286 0.788,-0.577 1.168,-0.87c-0.394,-0.223 -0.783,-0.445 -1.168,-0.667" style="fill:rgb(237,28,36);fill-rule:nonzero;"/>        </g>        <g transform="matrix(0.833039,-0.553215,-0.553215,-0.833039,407.72,82.1179)">            <path d="M-0.428,-0.125c-0.377,0.295 -0.763,0.585 -1.155,0.872c0.381,0.228 0.765,0.455 1.155,0.683c0.393,-0.297 0.779,-0.596 1.159,-0.897c-0.392,-0.219 -0.777,-0.439 -1.159,-0.658" style="fill:rgb(237,28,36);fill-rule:nonzero;"/>        </g>        <g transform="matrix(0.842375,-0.538891,-0.538891,-0.842375,409.506,82.296)">            <path d="M-0.422,-0.118c-0.377,0.301 -0.759,0.6 -1.15,0.897c0.38,0.224 0.763,0.45 1.15,0.675c0.394,-0.304 0.783,-0.61 1.165,-0.916c-0.392,-0.219 -0.782,-0.438 -1.165,-0.656" style="fill:rgb(237,28,36);fill-rule:nonzero;"/>        </g>        <g transform="matrix(0.849591,-0.527441,-0.527441,-0.849591,411.312,82.5097)">            <path d="M-0.416,-0.114c-0.379,0.307 -0.765,0.612 -1.155,0.915c0.381,0.224 0.766,0.445 1.155,0.669c0.394,-0.312 0.783,-0.624 1.168,-0.935c-0.393,-0.216 -0.783,-0.432 -1.168,-0.649" style="fill:rgb(237,28,36);fill-rule:nonzero;"/>        </g>        <g transform="matrix(0.853639,-0.520865,-0.520865,-0.853639,413.14,82.7518)">            <path d="M-0.412,-0.111c-0.385,0.311 -0.771,0.622 -1.163,0.934c0.385,0.218 0.772,0.438 1.163,0.656c0.397,-0.318 0.79,-0.636 1.179,-0.949c-0.398,-0.214 -0.79,-0.427 -1.179,-0.641" style="fill:rgb(237,28,36);fill-rule:nonzero;"/>        </g>        <g transform="matrix(0.399702,0.916645,0.916645,-0.399702,413.427,81.8135)">            <path d="M1.099,-0.719c-0.263,0.357 -0.528,0.718 -0.793,1.082c0.267,0.442 0.533,0.881 0.793,1.315c0.262,-0.372 0.521,-0.739 0.782,-1.103c-0.259,-0.429 -0.519,-0.86 -0.782,-1.294" style="fill:rgb(237,28,36);fill-rule:nonzero;"/>        </g>        <g transform="matrix(0.395983,0.918258,0.918258,-0.395983,415.317,82.0308)">            <path d="M1.125,-0.743c-0.262,0.365 -0.524,0.73 -0.786,1.102c0.267,0.454 0.529,0.904 0.786,1.353c0.26,-0.378 0.52,-0.755 0.78,-1.127c-0.255,-0.443 -0.517,-0.884 -0.78,-1.328" style="fill:rgb(237,28,36);fill-rule:nonzero;"/>        </g>        <g transform="matrix(0.84353,-0.537082,-0.537082,-0.84353,418.862,83.4325)">            <path d="M-0.419,-0.114c-0.416,0.32 -0.828,0.647 -1.239,0.98c0.41,0.197 0.822,0.393 1.239,0.589c0.423,-0.337 0.848,-0.664 1.274,-0.984c-0.428,-0.195 -0.853,-0.39 -1.274,-0.585" style="fill:rgb(237,28,36);fill-rule:nonzero;"/>        </g>        <g transform="matrix(1,0,0,1,418.191,80.5548)">            <path d="M0,1.145c0.255,-0.399 0.512,-0.801 0.772,-1.203c0.512,0.019 1.021,0.032 1.525,0.031c0.064,0 0.127,-0.001 0.19,-0.002c-0.273,0.413 -0.546,0.823 -0.814,1.232c-0.556,-0.009 -1.113,-0.029 -1.673,-0.058" style="fill:rgb(237,28,36);fill-rule:nonzero;"/>        </g>        <g transform="matrix(1,0,0,1,422.059,80.4672)">            <path d="M0,1.262c-0.523,0.025 -1.046,0.037 -1.57,0.036c-0.063,0 -0.126,-0.002 -0.19,-0.002c0.272,-0.412 0.545,-0.826 0.823,-1.242c0.61,-0.011 1.216,-0.041 1.821,-0.091c-0.298,0.434 -0.593,0.868 -0.884,1.299" style="fill:rgb(237,28,36);fill-rule:nonzero;"/>        </g>        <g transform="matrix(0.486288,0.873799,0.873799,-0.486288,422.569,80.035)">            <path d="M1.437,-0.845c-0.237,0.471 -0.475,0.945 -0.713,1.422c0.264,0.611 0.502,1.231 0.713,1.868c0.253,-0.519 0.504,-1.035 0.756,-1.546c-0.232,-0.594 -0.484,-1.173 -0.756,-1.744" style="fill:rgb(237,28,36);fill-rule:nonzero;"/>        </g>        <g transform="matrix(-0.531971,-0.846763,-0.846763,0.531971,425.511,81.867)">            <path d="M-1.6,-2.896c-0.253,0.617 -0.506,1.23 -0.757,1.838c0.221,0.668 0.475,1.314 0.757,1.943c0.224,-0.531 0.449,-1.067 0.674,-1.604c-0.265,-0.7 -0.49,-1.424 -0.674,-2.177" style="fill:rgb(237,28,36);fill-rule:nonzero;"/>        </g>        <g transform="matrix(-0.537161,-0.84348,-0.84348,0.537161,424.818,79.5877)">            <path d="M-1.626,-2.963c-0.251,0.624 -0.504,1.245 -0.754,1.863c0.222,0.684 0.473,1.348 0.754,1.992c0.227,-0.541 0.453,-1.085 0.678,-1.634c-0.262,-0.715 -0.491,-1.452 -0.678,-2.221" style="fill:rgb(237,28,36);fill-rule:nonzero;"/>        </g>        <g transform="matrix(0.671901,-0.740641,-0.740641,-0.671901,426.66,78.1782)">            <path d="M-0.593,-0.156c-0.623,0.398 -1.219,0.817 -1.789,1.257c0.592,0.077 1.189,0.153 1.789,0.227c0.643,-0.443 1.317,-0.859 2.031,-1.246c-0.68,-0.077 -1.357,-0.157 -2.031,-0.238" style="fill:rgb(237,28,36);fill-rule:nonzero;"/>        </g>        <g transform="matrix(1,0,0,1,430.356,76.282)">            <path d="M0,-3.062c-0.364,0.504 -0.729,1.005 -1.093,1.502c-0.154,0.209 -0.306,0.417 -0.458,0.625c-0.843,0.365 -1.675,0.675 -2.502,0.935c0.421,-0.589 0.849,-1.178 1.279,-1.769c0.911,-0.361 1.834,-0.787 2.774,-1.293" style="fill:rgb(237,28,36);fill-rule:nonzero;"/>        </g>        <g transform="matrix(-0.604289,-0.796765,-0.796765,0.604289,425.199,71.7679)">            <path d="M-2.061,-4.151c-0.259,0.848 -0.514,1.693 -0.762,2.534c0.219,0.921 0.475,1.798 0.762,2.641c0.216,-0.709 0.43,-1.421 0.64,-2.14c-0.257,-0.957 -0.471,-1.965 -0.64,-3.035" style="fill:rgb(237,28,36);fill-rule:nonzero;"/>        </g>        <g transform="matrix(1,0,0,1,429.167,71.7965)">            <path d="M0,-3.226c-0.526,0.725 -1.053,1.446 -1.58,2.163c-0.893,0.403 -1.772,0.757 -2.641,1.063c0.25,-0.341 0.499,-0.682 0.752,-1.022c0.207,-0.278 0.413,-0.556 0.621,-0.836c0.929,-0.392 1.876,-0.846 2.848,-1.368" style="fill:rgb(237,28,36);fill-rule:nonzero;"/>        </g>        <g transform="matrix(1,0,0,1,428.597,69.5805)">            <path d="M0,-3.347c-0.54,0.738 -1.081,1.474 -1.622,2.206c-0.92,0.429 -1.824,0.808 -2.715,1.141c0.057,-0.077 0.113,-0.153 0.17,-0.23c0.417,-0.558 0.837,-1.121 1.258,-1.686c0.946,-0.417 1.913,-0.891 2.909,-1.431" style="fill:rgb(237,28,36);fill-rule:nonzero;"/>        </g>        <g transform="matrix(0.494998,-0.868894,-0.868894,-0.494998,426.528,65.406)">            <path d="M-0.729,-0.232c-0.875,0.601 -1.694,1.209 -2.467,1.825c0.818,-0.103 1.641,-0.208 2.467,-0.313c0.869,-0.623 1.799,-1.238 2.798,-1.851c-0.932,0.112 -1.867,0.225 -2.798,0.339" style="fill:rgb(237,28,36);fill-rule:nonzero;"/>        </g>        <g transform="matrix(0.561834,0.82725,0.82725,-0.561834,403.222,67.0217)">            <path d="M1.307,-0.693c0.255,0.588 0.501,1.165 0.74,1.724c-0.249,0.476 -0.496,0.954 -0.739,1.438c-0.242,-0.576 -0.495,-1.171 -0.755,-1.779c0.249,-0.465 0.5,-0.926 0.755,-1.383" style="fill:rgb(237,28,36);fill-rule:nonzero;"/>        </g>        <g transform="matrix(1,0,0,1,397.873,62.4547)">            <path d="M0,1.131c0.216,-0.472 0.436,-0.943 0.661,-1.414c-0.586,0.132 -1.185,0.264 -1.808,0.393c-0.076,0.17 -0.146,0.34 -0.22,0.509l0,0.795c0.115,-0.022 0.232,-0.043 0.347,-0.066c0.348,-0.072 0.683,-0.145 1.02,-0.217" style="fill:rgb(237,28,36);fill-rule:nonzero;"/>        </g>        <g transform="matrix(-0.58875,-0.808315,-0.808315,0.58875,397.928,62.0973)">            <path d="M-1.289,-2.533c0.236,0.586 0.491,1.193 0.754,1.811c-0.248,0.464 -0.5,0.923 -0.754,1.378c-0.261,-0.593 -0.506,-1.17 -0.742,-1.736c0.251,-0.48 0.499,-0.965 0.742,-1.453" style="fill:rgb(237,28,36);fill-rule:nonzero;"/>        </g>        <g transform="matrix(1,0,0,1,402.077,83.8919)">            <path d="M0,-1.288c-0.46,0.012 -0.925,0.038 -1.394,0.069c-0.161,0.412 -0.317,0.817 -0.469,1.219l0.908,0c0.145,-0.008 0.292,-0.021 0.436,-0.028c0.169,-0.415 0.342,-0.836 0.519,-1.26" style="fill:rgb(237,28,36);fill-rule:nonzero;"/>        </g>        <g transform="matrix(1,0,0,1,398.158,81.5269)">            <path d="M0,-1.519c-0.467,0.068 -0.932,0.141 -1.396,0.219c-0.088,0.262 -0.171,0.518 -0.256,0.776l0,0.524c0.393,-0.069 0.786,-0.137 1.18,-0.199c0.153,-0.435 0.31,-0.875 0.472,-1.32" style="fill:rgb(237,28,36);fill-rule:nonzero;"/>        </g>        <g transform="matrix(-0.800067,-0.599911,-0.599911,0.800067,396.184,78.1234)">            <path d="M-0.537,-1.61c0.253,0.261 0.503,0.522 0.753,0.786l-0.752,1.003c-0.139,-0.146 -0.276,-0.293 -0.415,-0.438c0.14,-0.444 0.278,-0.895 0.415,-1.351" style="fill:rgb(237,28,36);fill-rule:nonzero;"/>        </g>        <g transform="matrix(-0.93399,-0.357298,-0.357298,0.93399,396.284,79.9206)">            <path d="M-0.256,-1.388c0.15,0.087 0.297,0.178 0.447,0.266l-0.448,1.169c-0.015,-0.01 -0.032,-0.021 -0.048,-0.03c0.018,-0.463 0.035,-0.931 0.049,-1.405" style="fill:rgb(237,28,36);fill-rule:nonzero;"/>        </g>        <g transform="matrix(0.585968,0.810334,0.810334,-0.585968,399.255,63.2856)">            <path d="M1.302,-0.665c0.258,0.596 0.507,1.18 0.74,1.747c-0.249,0.485 -0.497,0.973 -0.74,1.466c-0.236,-0.589 -0.49,-1.199 -0.752,-1.82c0.247,-0.469 0.498,-0.933 0.752,-1.393" style="fill:rgb(237,28,36);fill-rule:nonzero;"/>        </g>        <g transform="matrix(0.654162,-0.756354,-0.756354,-0.654162,406.439,65.7005)">            <path d="M-0.582,-0.234c0.555,0.112 1.114,0.22 1.676,0.324c-0.546,0.386 -1.104,0.79 -1.676,1.212c-0.539,-0.113 -1.073,-0.231 -1.606,-0.354c0.549,-0.409 1.085,-0.804 1.606,-1.182" style="fill:rgb(237,28,36);fill-rule:nonzero;"/>        </g>        <g transform="matrix(0.575356,0.817903,0.817903,-0.575356,402.768,63.8916)">            <path d="M1.404,-0.729c0.26,0.639 0.506,1.266 0.738,1.872c-0.249,0.518 -0.496,1.038 -0.738,1.562c-0.234,-0.633 -0.482,-1.288 -0.747,-1.959c0.245,-0.496 0.495,-0.988 0.747,-1.475" style="fill:rgb(237,28,36);fill-rule:nonzero;"/>        </g>        <g transform="matrix(0.573716,0.819055,0.819055,-0.573716,405.07,63.1955)">            <path d="M1.519,-0.791c0.26,0.694 0.505,1.366 0.734,2.023c-0.251,0.557 -0.495,1.12 -0.734,1.687c-0.23,-0.693 -0.475,-1.402 -0.741,-2.135c0.243,-0.529 0.491,-1.054 0.741,-1.575" style="fill:rgb(237,28,36);fill-rule:nonzero;"/>        </g>        <g transform="matrix(1,0,0,1,408.563,65.3278)">            <path d="M0,-0.886c0.139,-0.316 0.279,-0.63 0.436,-0.878c-0.69,0.189 -1.401,0.374 -2.137,0.557c-0.293,0.495 -0.58,0.989 -0.862,1.484c0.334,-0.079 0.677,-0.098 1.016,-0.113c-0.138,0.238 -0.279,0.476 -0.415,0.714c0.706,-0.167 1.39,-0.337 2.053,-0.508c0.308,-0.512 0.624,-1.023 0.945,-1.533c-0.339,0.093 -0.685,0.185 -1.036,0.277" style="fill:rgb(237,28,36);fill-rule:nonzero;"/>        </g>        <g transform="matrix(-0.604032,0.79696,0.79696,0.604032,406.226,62.2767)">            <path d="M0.728,-1.223c0.581,0.074 1.159,0.152 1.734,0.236c-0.59,0.459 -1.168,0.895 -1.734,1.309c-0.616,-0.073 -1.233,-0.137 -1.854,-0.196c0.605,-0.424 1.222,-0.872 1.854,-1.349" style="fill:rgb(237,28,36);fill-rule:nonzero;"/>        </g>        <g transform="matrix(-0.828662,0.55975,0.55975,0.828662,420.936,83.5279)">            <path d="M0.471,-1.429c0.435,0.184 0.869,0.367 1.296,0.551c-0.426,0.342 -0.859,0.674 -1.296,0.999c-0.445,-0.184 -0.894,-0.368 -1.345,-0.552c0.453,-0.319 0.901,-0.652 1.345,-0.998" style="fill:rgb(237,28,36);fill-rule:nonzero;"/>        </g>        <g transform="matrix(0.582171,0.813067,0.813067,-0.582171,401.418,62.6707)">            <path d="M1.402,-0.72c0.258,0.641 0.508,1.269 0.738,1.878c-0.251,0.519 -0.498,1.041 -0.738,1.569c-0.232,-0.637 -0.483,-1.296 -0.747,-1.97c0.245,-0.497 0.494,-0.99 0.746,-1.477" style="fill:rgb(237,28,36);fill-rule:nonzero;"/>        </g>        <g transform="matrix(1,0,0,1,397.321,59.481)">            <path d="M0,1.249c0.226,-0.478 0.46,-0.955 0.697,-1.433c-0.491,0.119 -0.995,0.236 -1.512,0.351l0,1.266c0.015,-0.003 0.029,-0.005 0.044,-0.008c0.263,-0.057 0.514,-0.118 0.771,-0.176" style="fill:rgb(237,28,36);fill-rule:nonzero;"/>        </g>        <g transform="matrix(-0.896192,-0.443666,-0.443666,0.896192,396.228,62.163)">            <path d="M-0.35,-1.498c0.185,0.15 0.368,0.299 0.559,0.45l-0.56,1.13c-0.016,-0.012 -0.031,-0.024 -0.047,-0.036c0.021,-0.512 0.037,-1.027 0.048,-1.544" style="fill:rgb(237,28,36);fill-rule:nonzero;"/>        </g>        <g transform="matrix(1,0,0,1,403.913,61.0644)">            <path d="M0,-1.476c0.103,-0.174 0.201,-0.35 0.306,-0.524c-0.697,0.234 -1.426,0.462 -2.186,0.685c-0.282,0.505 -0.557,1.011 -0.826,1.518c0.199,-0.054 0.39,-0.11 0.585,-0.164c-0.087,0.161 -0.178,0.322 -0.264,0.485c0.718,-0.196 1.411,-0.397 2.076,-0.603c0.305,-0.536 0.616,-1.069 0.936,-1.6c-0.204,0.068 -0.417,0.135 -0.627,0.203" style="fill:rgb(237,28,36);fill-rule:nonzero;"/>        </g>        <g transform="matrix(0.627461,-0.778648,-0.778648,-0.627461,402.442,61.9068)">            <path d="M-0.606,-0.245c0.565,0.106 1.132,0.21 1.703,0.306c-0.554,0.389 -1.122,0.803 -1.703,1.236c-0.538,-0.107 -1.076,-0.219 -1.608,-0.336c0.546,-0.418 1.084,-0.824 1.608,-1.206" style="fill:rgb(237,28,36);fill-rule:nonzero;"/>        </g>        <g transform="matrix(-0.833483,-0.552546,-0.552546,0.833483,396.171,57.5439)">            <path d="M-0.504,-1.671c0.228,0.253 0.463,0.507 0.703,0.763l-0.703,1.06c-0.063,-0.069 -0.128,-0.136 -0.193,-0.205c0.071,-0.537 0.137,-1.076 0.194,-1.618" style="fill:rgb(237,28,36);fill-rule:nonzero;"/>        </g>        <g transform="matrix(1,0,0,1,396.506,54.4251)">            <path d="M0,-0.728l0,0.868c0.177,-0.337 0.352,-0.674 0.534,-1.008c-0.176,0.047 -0.355,0.093 -0.534,0.14" style="fill:rgb(237,28,36);fill-rule:nonzero;"/>        </g>        <g transform="matrix(1,0,0,1,396.506,58.4189)">            <path d="M0,-0.255l0,0.29c0.052,-0.109 0.102,-0.218 0.154,-0.325c-0.051,0.012 -0.103,0.023 -0.154,0.035" style="fill:rgb(237,28,36);fill-rule:nonzero;"/>        </g>        <g transform="matrix(-0.641406,0.767202,0.767202,0.641406,398.488,83.1656)">            <path d="M0.647,-0.929c0.274,0.108 0.539,0.214 0.808,0.321l-0.808,0.967c-0.337,-0.126 -0.675,-0.252 -1.021,-0.378c0.335,-0.31 0.677,-0.613 1.021,-0.91" style="fill:rgb(237,28,36);fill-rule:nonzero;"/>        </g>        <g transform="matrix(-0.756582,0.653898,0.653898,0.756582,400.185,83.3194)">            <path d="M0.573,-1.14c0.332,0.186 0.657,0.37 0.98,0.555l-0.98,0.847c-0.371,-0.201 -0.747,-0.402 -1.129,-0.604c0.367,-0.271 0.742,-0.538 1.129,-0.798" style="fill:rgb(237,28,36);fill-rule:nonzero;"/>        </g>        <g transform="matrix(0,1,1,0,397.076,83.2189)">            <path d="M0,-0.57l0.674,0.001l-0.001,0.315c-0.258,0.084 -0.515,0.167 -0.778,0.254c0.032,-0.19 0.07,-0.379 0.105,-0.569" style="fill:rgb(237,28,36);fill-rule:nonzero;"/>        </g>        <g transform="matrix(-0.795482,-0.605977,-0.605977,0.795482,396.181,82.5198)">            <path d="M-0.55,-1.63c0.258,0.269 0.51,0.542 0.762,0.816l-0.762,1c-0.148,-0.163 -0.293,-0.327 -0.443,-0.486c0.148,-0.436 0.296,-0.879 0.443,-1.33" style="fill:rgb(237,28,36);fill-rule:nonzero;"/>        </g>        <g transform="matrix(-0.735527,0.677496,0.677496,0.735527,408.73,83.4454)">            <path d="M0.432,-1.221c0.369,0.141 0.733,0.281 1.095,0.422l-1.095,1.008c-0.311,-0.113 -0.621,-0.227 -0.937,-0.34c0.305,-0.365 0.618,-0.727 0.937,-1.09" style="fill:rgb(237,28,36);fill-rule:nonzero;"/>        </g>        <g transform="matrix(-0.610869,0.791732,0.791732,0.610869,410.484,83.3334)">            <path d="M0.471,-1.072c0.314,0.055 0.624,0.111 0.933,0.167l-0.933,1.209c-0.238,-0.039 -0.474,-0.078 -0.715,-0.116c0.232,-0.419 0.471,-0.84 0.715,-1.26" style="fill:rgb(237,28,36);fill-rule:nonzero;"/>        </g>        <g transform="matrix(-0.424118,0.905607,0.905607,0.424118,412.193,83.2131)">            <path d="M0.539,-0.927c0.222,-0.014 0.442,-0.026 0.663,-0.039l-0.663,1.416c-0.134,0.011 -0.267,0.02 -0.402,0.031c0.13,-0.466 0.264,-0.935 0.402,-1.408" style="fill:rgb(237,28,36);fill-rule:nonzero;"/>        </g>        <g transform="matrix(1,0,0,1,398.209,72.7072)">            <path d="M0,-1.545c-0.219,0.036 -0.434,0.073 -0.657,0.112c-0.304,0.051 -0.609,0.104 -0.915,0.156c-0.045,0.119 -0.086,0.237 -0.131,0.356l0,0.921c0.389,-0.066 0.777,-0.132 1.164,-0.199c0.176,-0.446 0.355,-0.895 0.539,-1.346" style="fill:rgb(237,28,36);fill-rule:nonzero;"/>        </g>        <g transform="matrix(1,0,0,1,396.506,71.0385)">            <path d="M0,-1.058c0.157,-0.027 0.474,-0.081 0.474,-0.081l-0.474,1.22l0,-1.139" style="fill:rgb(237,28,36);fill-rule:nonzero;"/>        </g>        <g transform="matrix(-0.80087,-0.598839,-0.598839,0.80087,396.183,73.7137)">            <path d="M-0.537,-1.613c0.25,0.261 0.501,0.524 0.752,0.786l-0.751,1.005c-0.131,-0.136 -0.262,-0.274 -0.393,-0.41c0.133,-0.457 0.264,-0.917 0.393,-1.381" style="fill:rgb(237,28,36);fill-rule:nonzero;"/>        </g>        <g transform="matrix(1,0,0,1,397.629,69.7646)">            <path d="M0,-1.458c-0.132,0.024 -0.26,0.048 -0.393,0.073c-0.243,0.044 -0.487,0.086 -0.73,0.129l0,1.256c0.188,-0.033 0.379,-0.064 0.567,-0.097c0.18,-0.453 0.366,-0.907 0.556,-1.361" style="fill:rgb(237,28,36);fill-rule:nonzero;"/>        </g>        <g transform="matrix(1,0,0,1,414.065,49.7143)">            <path d="M0,-0.237l-0.079,0c-0.07,0.079 -0.141,0.158 -0.21,0.237c0.098,-0.078 0.193,-0.158 0.289,-0.237" style="fill:rgb(237,28,36);fill-rule:nonzero;"/>        </g>        <g transform="matrix(1,0,0,1,427.805,51.8043)">            <path d="M0,-2.327l-1.695,0c-0.659,0.764 -1.324,1.537 -1.994,2.327c1.156,-0.744 2.376,-1.52 3.689,-2.327" style="fill:rgb(237,28,36);fill-rule:nonzero;"/>        </g>        <g transform="matrix(1,0,0,1,426.928,52.4517)">            <path d="M0,-1.21c-0.815,0.973 -1.641,1.966 -2.469,2.974c1.197,-0.738 2.457,-1.517 3.81,-2.344c0.668,-0.815 1.325,-1.614 1.97,-2.394l-0.676,0c-0.615,0.475 -1.246,0.918 -1.892,1.31c-0.253,0.154 -0.498,0.304 -0.743,0.454" style="fill:rgb(237,28,36);fill-rule:nonzero;"/>        </g>        <g transform="matrix(1,0,0,1,427.133,53.8874)">            <path d="M0,-0.098c-0.743,0.915 -1.492,1.845 -2.243,2.783c1.136,-0.669 2.325,-1.384 3.589,-2.15c0.827,-1.044 1.644,-2.068 2.442,-3.064l0,-0.254c-0.914,0.803 -1.871,1.528 -2.87,2.13c-0.311,0.188 -0.616,0.373 -0.918,0.555" style="fill:rgb(237,28,36);fill-rule:nonzero;"/>        </g>        <g transform="matrix(1,0,0,1,430.92,55.6488)">            <path d="M0,-0.203l0,-0.73c-0.426,0.549 -0.854,1.103 -1.288,1.663c0.439,-0.29 0.868,-0.604 1.288,-0.933" style="fill:rgb(237,28,36);fill-rule:nonzero;"/>        </g>        <g transform="matrix(1,0,0,1,427.444,56.4899)">            <path d="M0,-0.219c-0.685,0.869 -1.372,1.745 -2.061,2.628c1.085,-0.612 2.215,-1.274 3.406,-1.989c0.721,-0.934 1.429,-1.849 2.131,-2.752l0,-0.296c-0.795,0.685 -1.624,1.303 -2.488,1.82c-0.335,0.201 -0.664,0.397 -0.988,0.589" style="fill:rgb(237,28,36);fill-rule:nonzero;"/>        </g>        <g transform="matrix(1,0,0,1,427.838,59.1156)">            <path d="M0,-0.411c-0.638,0.829 -1.28,1.664 -1.92,2.502c1.044,-0.565 2.127,-1.181 3.261,-1.856c0.587,-0.777 1.166,-1.546 1.741,-2.308l0,-0.429c-0.677,0.567 -1.378,1.082 -2.107,1.515c-0.33,0.197 -0.654,0.388 -0.975,0.576" style="fill:rgb(237,28,36);fill-rule:nonzero;"/>        </g>        <g transform="matrix(1,0,0,1,428.296,61.778)">            <path d="M0,-0.678c-0.602,0.8 -1.208,1.603 -1.812,2.407c1.014,-0.53 2.059,-1.11 3.148,-1.755c0.432,-0.583 0.861,-1.164 1.288,-1.743l0,-0.638c-0.558,0.447 -1.133,0.854 -1.727,1.205c-0.303,0.18 -0.601,0.354 -0.897,0.524" style="fill:rgb(237,28,36);fill-rule:nonzero;"/>        </g>        <g transform="matrix(1,0,0,1,412.381,52.5404)">            <path d="M0,-1.198c-0.652,0.778 -1.289,1.56 -1.903,2.343c-0.187,0.239 -0.372,0.479 -0.557,0.72c1.358,-0.791 2.599,-1.624 3.782,-2.488c0.244,-0.178 0.483,-0.357 0.723,-0.537c0.543,-0.64 1.096,-1.272 1.653,-1.903l-1.209,0c-0.625,0.49 -1.253,0.972 -1.896,1.441c-0.196,0.142 -0.394,0.283 -0.593,0.424" style="fill:rgb(237,28,36);fill-rule:nonzero;"/>        </g>        <g transform="matrix(1,0,0,1,428.805,64.4525)">            <path d="M0,-0.985c-0.577,0.779 -1.156,1.561 -1.735,2.338c0.991,-0.499 2.008,-1.054 3.063,-1.677c0.264,-0.362 0.526,-0.723 0.787,-1.083l0,-0.931c-0.436,0.333 -0.884,0.638 -1.345,0.908c-0.26,0.154 -0.515,0.299 -0.77,0.445" style="fill:rgb(237,28,36);fill-rule:nonzero;"/>        </g>        <g transform="matrix(1,0,0,1,429.355,67.1407)">            <path d="M0,-1.328c-0.561,0.767 -1.122,1.533 -1.684,2.296c0.948,-0.465 1.915,-0.986 2.912,-1.573c0.033,-0.02 0.065,-0.042 0.098,-0.062c0.08,-0.111 0.16,-0.223 0.24,-0.335l0,-1.294c-0.315,0.225 -0.637,0.435 -0.965,0.625c-0.202,0.119 -0.402,0.23 -0.601,0.343" style="fill:rgb(237,28,36);fill-rule:nonzero;"/>        </g>        <g transform="matrix(1,0,0,1,429.932,69.8162)">            <path d="M0,-1.67c-0.548,0.757 -1.097,1.511 -1.646,2.261c0.862,-0.414 1.737,-0.875 2.635,-1.398l0,-1.454c-0.193,0.126 -0.387,0.248 -0.584,0.362c-0.136,0.08 -0.27,0.152 -0.405,0.229" style="fill:rgb(237,28,36);fill-rule:nonzero;"/>        </g>        <g transform="matrix(-0.199009,0.979998,0.979998,0.199009,413.842,83.1423)">            <path d="M0.633,-0.808c0.106,-0.036 0.211,-0.069 0.318,-0.104l-0.318,1.566c-0.017,0.007 -0.031,0.011 -0.047,0.016c0.015,-0.489 0.029,-0.982 0.047,-1.478" style="fill:rgb(237,28,36);fill-rule:nonzero;"/>        </g>        <g transform="matrix(-0.805745,0.592263,0.592263,0.805745,406.968,83.5213)">            <path d="M0.416,-1.341c0.394,0.214 0.784,0.425 1.168,0.637l-1.168,0.858c-0.355,-0.186 -0.712,-0.373 -1.075,-0.559c0.352,-0.314 0.71,-0.627 1.075,-0.936" style="fill:rgb(237,28,36);fill-rule:nonzero;"/>        </g>        <g transform="matrix(1,0,0,1,397.146,63.9506)">            <path d="M0,1.272c0.2,-0.463 0.405,-0.927 0.615,-1.392c-0.33,0.069 -0.659,0.138 -0.999,0.207c-0.085,0.018 -0.171,0.031 -0.256,0.047l0,1.258c0.166,-0.031 0.335,-0.058 0.5,-0.091c0.048,-0.01 0.093,-0.02 0.14,-0.029" style="fill:rgb(237,28,36);fill-rule:nonzero;"/>        </g>        <g transform="matrix(-0.949739,-0.313043,-0.313043,0.949739,396.445,66.6364)">            <path d="M-0.09,-1.241c0.121,0.068 0.246,0.132 0.369,0.199l-0.369,1.12c-0.033,-0.458 -0.069,-0.919 -0.109,-1.383c0.037,0.022 0.071,0.043 0.109,0.064" style="fill:rgb(237,28,36);fill-rule:nonzero;"/>        </g>        <g transform="matrix(1,0,0,1,397.729,66.9188)">            <path d="M0,1.148c0.192,-0.456 0.391,-0.915 0.593,-1.374c-0.408,0.079 -0.821,0.159 -1.244,0.24c-0.145,0.027 -0.29,0.053 -0.435,0.08c-0.047,0.114 -0.091,0.227 -0.137,0.341l0,0.939c0.268,-0.048 0.536,-0.094 0.803,-0.145c0.143,-0.027 0.279,-0.054 0.42,-0.081" style="fill:rgb(237,28,36);fill-rule:nonzero;"/>        </g>        <g transform="matrix(1,0,0,1,396.506,75.5357)">            <path d="M0,-1.142l0,1.222c0.154,-0.43 0.313,-0.864 0.475,-1.302c-0.158,0.027 -0.317,0.054 -0.475,0.08" style="fill:rgb(237,28,36);fill-rule:nonzero;"/>        </g>        <g transform="matrix(1,0,0,1,398.165,77.1182)">            <path d="M0,-1.523c-0.047,0.007 -0.092,0.013 -0.138,0.021c-0.447,0.069 -0.895,0.142 -1.342,0.217c-0.061,0.172 -0.119,0.342 -0.179,0.513l0,0.772c0.385,-0.065 0.771,-0.13 1.156,-0.191c0.163,-0.441 0.331,-0.885 0.503,-1.332" style="fill:rgb(237,28,36);fill-rule:nonzero;"/>        </g>        <g transform="matrix(-0.676559,-0.736388,-0.736388,0.676559,396.161,55.4508)">            <path d="M-0.979,-2.228c0.291,0.586 0.604,1.184 0.939,1.795l-0.938,0.863c-0.193,-0.347 -0.382,-0.694 -0.562,-1.033c0.193,-0.538 0.381,-1.08 0.562,-1.625" style="fill:rgb(237,28,36);fill-rule:nonzero;"/>        </g>        <g transform="matrix(1,0,0,1,404.742,49.4771)">            <path d="M0,2.512c1.358,-0.685 2.581,-1.42 3.706,-2.194c0.088,-0.106 0.177,-0.212 0.265,-0.318l-2.032,0c-0.04,0.025 -0.077,0.051 -0.116,0.074c-0.63,0.798 -1.237,1.612 -1.823,2.438" style="fill:rgb(237,28,36);fill-rule:nonzero;"/>        </g>        <g transform="matrix(1,0,0,1,420.004,51.8003)">            <path d="M0,-2.323l-1.085,0c-0.68,0.766 -1.358,1.541 -2.029,2.323c1.028,-0.754 2.054,-1.53 3.114,-2.323" style="fill:rgb(237,28,36);fill-rule:nonzero;"/>        </g>        <g transform="matrix(1,0,0,1,411.747,49.7294)">            <path d="M0,5.38c-0.065,0.083 -0.13,0.168 -0.195,0.252c0.811,-0.472 1.587,-0.957 2.34,-1.456c0.682,-0.452 1.345,-0.913 2.001,-1.382c0.865,-1.028 1.75,-2.042 2.639,-3.046l-0.592,0c-1.334,1.001 -2.627,1.964 -3.962,2.878c-0.765,0.915 -1.513,1.833 -2.231,2.754" style="fill:rgb(237,28,36);fill-rule:nonzero;"/>        </g>        <g transform="matrix(1,0,0,1,416.855,50.5263)">            <path d="M0,-1.049l-0.393,0c-0.31,0.349 -0.62,0.697 -0.925,1.049c0.441,-0.346 0.879,-0.697 1.318,-1.049" style="fill:rgb(237,28,36);fill-rule:nonzero;"/>        </g>        <g transform="matrix(1,0,0,1,417.984,49.4766)">            <path d="M0,3.902c1.581,-1.076 3.174,-2.206 4.912,-3.393c0.15,-0.171 0.298,-0.338 0.448,-0.509l-1.892,0c-0.082,0.057 -0.167,0.115 -0.25,0.172c-1.078,1.221 -2.158,2.468 -3.218,3.73" style="fill:rgb(237,28,36);fill-rule:nonzero;"/>        </g>        <g transform="matrix(1,0,0,1,409.211,50.7742)">            <path d="M0,1.487c-0.338,0.428 -0.668,0.86 -0.994,1.297c1.624,-0.922 3.066,-1.907 4.41,-2.935c0.325,-0.384 0.662,-0.764 0.994,-1.146l-1.543,0c-0.498,0.384 -1.003,0.764 -1.528,1.135c-0.455,0.548 -0.905,1.097 -1.339,1.649" style="fill:rgb(237,28,36);fill-rule:nonzero;"/>        </g>        <g transform="matrix(1,0,0,1,418.935,49.4772)">            <path d="M0,5.664c1.377,-0.865 2.776,-1.779 4.269,-2.747c0.834,-0.991 1.665,-1.964 2.487,-2.917l-0.225,0c-1.375,0.865 -2.649,1.69 -3.854,2.472c-0.898,1.052 -1.794,2.118 -2.677,3.192" style="fill:rgb(237,28,36);fill-rule:nonzero;"/>        </g>        <g transform="matrix(1,0,0,1,406.209,51.1823)">            <path d="M0,-1.705l-1.944,0c-0.419,0.562 -0.83,1.129 -1.227,1.705c1.145,-0.533 2.194,-1.105 3.171,-1.705" style="fill:rgb(237,28,36);fill-rule:nonzero;"/>        </g>        <g transform="matrix(1,0,0,1,407.941,51.4119)">            <path d="M0,-0.575c-0.503,0.635 -0.99,1.281 -1.466,1.935c1.51,-0.816 2.856,-1.69 4.094,-2.605c0.193,-0.231 0.392,-0.46 0.588,-0.69l-1.751,0c-0.277,0.199 -0.555,0.397 -0.843,0.591c-0.209,0.255 -0.418,0.512 -0.622,0.769" style="fill:rgb(237,28,36);fill-rule:nonzero;"/>        </g>        <g transform="matrix(0.808704,0.588216,0.588216,-0.808704,429.89,77.0117)">            <path d="M0.393,-0.128c0.141,0.253 0.275,0.513 0.41,0.775l-0.41,0.563c0,-0.084 0.001,-0.169 0.001,-0.253c0,-0.363 -0.001,-0.724 -0.001,-1.085" style="fill:rgb(237,28,36);fill-rule:nonzero;"/>        </g>        <g transform="matrix(1,0,0,1,423.619,54.065)">            <path d="M0,0.667c0.817,-1.001 1.634,-1.99 2.444,-2.961c-1.41,0.867 -2.718,1.678 -3.961,2.436c-0.773,0.933 -1.545,1.874 -2.305,2.819" style="fill:rgb(237,28,36);fill-rule:nonzero;"/>        </g>        <g transform="matrix(1,0,0,1,430.92,60.9349)">            <path d="M0,-0.023l0,-0.304c-0.155,0.21 -0.31,0.42 -0.466,0.631c0.158,-0.105 0.311,-0.217 0.466,-0.327" style="fill:rgb(237,28,36);fill-rule:nonzero;"/>        </g>        <g transform="matrix(1,0,0,1,430.92,73.8042)">            <path d="M0,0.516l0,-1.227c-0.468,0.65 -0.936,1.299 -1.406,1.938c0.465,-0.217 0.935,-0.459 1.406,-0.711" style="fill:rgb(237,28,36);fill-rule:nonzero;"/>        </g>        <g transform="matrix(1,0,0,1,430.92,58.2718)">            <path d="M0,-0.09l0,-0.559c-0.303,0.401 -0.605,0.802 -0.912,1.208c0.31,-0.205 0.612,-0.424 0.912,-0.649" style="fill:rgb(237,28,36);fill-rule:nonzero;"/>        </g>        <g transform="matrix(1,0,0,1,430.531,72.4819)">            <path d="M0,-2.014c-0.542,0.753 -1.085,1.503 -1.629,2.245c0.665,-0.314 1.337,-0.66 2.018,-1.042l0,-1.434c-0.068,0.041 -0.134,0.087 -0.203,0.127c-0.063,0.036 -0.123,0.068 -0.186,0.104" style="fill:rgb(237,28,36);fill-rule:nonzero;"/>        </g>        <g transform="matrix(1,0,0,1,403.217,50.3313)">            <path d="M0,-0.854l-1.254,0c-0.198,0.283 -0.395,0.566 -0.587,0.854c0.641,-0.273 1.253,-0.559 1.841,-0.854" style="fill:rgb(237,28,36);fill-rule:nonzero;"/>        </g>        <g transform="matrix(1,0,0,1,398.524,49.4774)">            <path d="M0,1.916c0.869,-0.283 1.692,-0.586 2.474,-0.906c0.224,-0.339 0.452,-0.675 0.684,-1.01l-1.494,0c-0.204,0.08 -0.409,0.16 -0.618,0.239c-0.358,0.553 -0.706,1.112 -1.046,1.677" style="fill:rgb(237,28,36);fill-rule:nonzero;"/>        </g>        <g transform="matrix(0.0427561,-0.999086,-0.999086,-0.0427561,397.947,48.7371)">            <path d="M-0.756,-1.498c0.027,-0.016 0.053,-0.034 0.081,-0.051l-0.081,1.898c-0.297,0.165 -0.59,0.332 -0.889,0.491c0.28,-0.819 0.577,-1.597 0.889,-2.338" style="fill:rgb(237,28,36);fill-rule:nonzero;"/>        </g>        <g transform="matrix(1,0,0,1,400.045,49.4777)">            <path d="M0,2.926c0.908,-0.324 1.763,-0.668 2.573,-1.031c0.436,-0.64 0.886,-1.271 1.346,-1.895l-0.264,0c-0.793,0.41 -1.634,0.804 -2.538,1.174c-0.383,0.578 -0.755,1.163 -1.117,1.752" style="fill:rgb(237,28,36);fill-rule:nonzero;"/>        </g>        <g transform="matrix(1,0,0,1,430.92,53.0557)">            <path d="M0,-0.344l0,-0.814c-0.518,0.647 -1.042,1.304 -1.573,1.972c0.538,-0.36 1.063,-0.747 1.573,-1.158" style="fill:rgb(237,28,36);fill-rule:nonzero;"/>        </g>        <g transform="matrix(0,-1,-1,0,429.64,49.5093)">            <path d="M-0.462,-1.281l0.495,0l0,0.252c-0.593,0.491 -1.194,0.987 -1.808,1.491c0.407,-0.597 0.849,-1.177 1.313,-1.743" style="fill:rgb(237,28,36);fill-rule:nonzero;"/>        </g>        <g transform="matrix(1,0,0,1,422.084,83.8449)">            <path d="M0,-1.153c-0.073,0.001 -0.146,-0.003 -0.219,-0.003c-0.271,0.403 -0.538,0.804 -0.803,1.203l1.726,0c0.281,-0.413 0.565,-0.828 0.852,-1.247c-0.516,0.031 -1.034,0.047 -1.556,0.047" style="fill:rgb(237,28,36);fill-rule:nonzero;"/>        </g>        <g transform="matrix(1,0,0,1,426.061,83.8915)">            <path d="M0,-1.52c-0.643,0.11 -1.288,0.19 -1.935,0.242c-0.295,0.427 -0.587,0.854 -0.876,1.278l0.221,0c0.539,-0.026 1.079,-0.068 1.618,-0.13c0.321,-0.462 0.646,-0.925 0.972,-1.39" style="fill:rgb(237,28,36);fill-rule:nonzero;"/>        </g>        <g transform="matrix(1,0,0,1,398.906,59.4329)">            <path d="M0,-1.866c-0.633,0.171 -1.29,0.337 -1.971,0.498c-0.146,0.299 -0.287,0.598 -0.429,0.897l0,0.471c0.56,-0.125 1.107,-0.256 1.637,-0.388c0.248,-0.494 0.503,-0.987 0.763,-1.478" style="fill:rgb(237,28,36);fill-rule:nonzero;"/>        </g>        <g transform="matrix(-1,0,0,1,396.506,50.4933)">            <path d="M-0.812,-1.016l0.812,0l0,1.016c-0.08,-0.022 -0.162,-0.044 -0.241,-0.067c-0.186,-0.318 -0.38,-0.633 -0.571,-0.949" style="fill:rgb(237,28,36);fill-rule:nonzero;"/>        </g>        <g transform="matrix(1,0,0,1,396.506,50.8234)">            <path d="M0,-0.118l0,0.143c0.032,-0.056 0.061,-0.112 0.094,-0.168c-0.031,0.008 -0.063,0.017 -0.094,0.025" style="fill:rgb(237,28,36);fill-rule:nonzero;"/>        </g>        <g transform="matrix(-0.743765,-0.668441,-0.668441,0.743765,396.127,52.7445)">            <path d="M-0.777,-2.026c0.269,0.449 0.56,0.905 0.86,1.367l-0.859,0.957c-0.129,-0.195 -0.256,-0.39 -0.379,-0.583c0.135,-0.578 0.261,-1.158 0.379,-1.741" style="fill:rgb(237,28,36);fill-rule:nonzero;"/>        </g>        <g transform="matrix(1,0,0,1,399.232,51.9862)">            <path d="M0,-2.147c-0.744,0.269 -1.522,0.523 -2.344,0.76c-0.131,0.225 -0.255,0.454 -0.382,0.679l0,0.708c0.586,-0.157 1.159,-0.32 1.708,-0.493c0.33,-0.557 0.669,-1.108 1.018,-1.654" style="fill:rgb(237,28,36);fill-rule:nonzero;"/>        </g>        <g transform="matrix(-0.581238,0.813733,0.813733,0.581238,410.159,62.7154)">            <path d="M0.769,-1.2c0.62,0.035 1.237,0.077 1.851,0.125c-0.629,0.498 -1.245,0.973 -1.851,1.424c-0.666,-0.033 -1.334,-0.06 -2.003,-0.078c0.657,-0.463 1.322,-0.95 2.003,-1.471" style="fill:rgb(237,28,36);fill-rule:nonzero;"/>        </g>        <g transform="matrix(0.596169,-0.802859,-0.802859,-0.596169,404.85,61.1775)">            <path d="M-0.631,-0.252c0.618,0.071 1.237,0.134 1.861,0.191c-0.607,0.425 -1.226,0.876 -1.861,1.357c-0.581,-0.071 -1.157,-0.148 -1.732,-0.232c0.589,-0.461 1.167,-0.901 1.732,-1.316" style="fill:rgb(237,28,36);fill-rule:nonzero;"/>        </g>        <g transform="matrix(-0.54474,0.838605,0.838605,0.54474,406.033,58.8647)">            <path d="M0.839,-1.166c0.628,0.019 1.255,0.044 1.88,0.077c-0.639,0.526 -1.265,1.019 -1.88,1.481c-0.694,-0.014 -1.389,-0.019 -2.086,-0.014c0.681,-0.476 1.375,-0.99 2.086,-1.544" style="fill:rgb(237,28,36);fill-rule:nonzero;"/>        </g>        <g transform="matrix(1,0,0,1,427.623,78.2079)">            <path d="M0,2.632c0.799,-0.23 1.6,-0.511 2.405,-0.85c0.295,-0.41 0.594,-0.822 0.892,-1.233l0,-0.549c-0.698,0.356 -1.389,0.663 -2.077,0.924c-0.41,0.571 -0.817,1.141 -1.22,1.708" style="fill:rgb(237,28,36);fill-rule:nonzero;"/>        </g>        <g transform="matrix(1,0,0,1,426.967,75.5636)">            <path d="M0,2.992c0.809,-0.244 1.624,-0.536 2.445,-0.886c0.369,-0.509 0.739,-1.019 1.113,-1.529c0.132,-0.181 0.263,-0.363 0.395,-0.545l0,-0.032c-0.916,0.495 -1.817,0.913 -2.709,1.259c-0.419,0.578 -0.834,1.157 -1.244,1.733" style="fill:rgb(237,28,36);fill-rule:nonzero;"/>        </g>        <g transform="matrix(1,0,0,1,428.262,80.8338)">            <path d="M0,2.31c0.79,-0.221 1.582,-0.493 2.377,-0.827c0.092,-0.13 0.187,-0.261 0.281,-0.391l0,-1.092c-0.484,0.228 -0.967,0.435 -1.447,0.615c-0.408,0.567 -0.811,1.133 -1.211,1.695" style="fill:rgb(237,28,36);fill-rule:nonzero;"/>        </g>        <g transform="matrix(1,0,0,1,411.288,64.609)">            <path d="M0,-3.634l-4.24,0l0,-4.241l-3.635,0l0,4.241l-4.239,0l0,3.635l4.239,0l0,4.24l3.635,0l0,-4.24l4.24,0l0,-3.635Z" style="fill:white;fill-rule:nonzero;"/>        </g>    </g></svg>