<?xml version="1.0" encoding="UTF-8" standalone="no"?><!DOCTYPE svg PUBLIC "-//W3C//DTD SVG 1.1//EN" "http://www.w3.org/Graphics/SVG/1.1/DTD/svg11.dtd"><svg width="100%" height="100%" viewBox="0 0 512 512" version="1.1" xmlns="http://www.w3.org/2000/svg" xmlns:xlink="http://www.w3.org/1999/xlink" xml:space="preserve" style="fill-rule:evenodd;clip-rule:evenodd;stroke-linejoin:round;stroke-miterlimit:2;"><title>DKB Crowd</title><desc></desc>    <g transform="matrix(0.56669,0,0,0.56669,1,160.532)">        <g id="path8" transform="matrix(3.17559,0,0,3.17559,331.849,-1005.07)">            <path d="M-104.5,316.5l41.2,0c23.6,0 51.6,17.7 51.6,53c0,32.4 -28,53 -51.6,53l-41.2,0l0,-106Zm63.3,53c0,-22.1 -17.7,-26.5 -33.9,-26.5l0,53c16.2,0 33.9,-4.4 33.9,-26.5Z" style="fill:rgb(20,141,234);fill-rule:nonzero;"/>        </g>        <g id="path10" transform="matrix(3.17559,0,0,3.17559,331.849,-1005.07)">            <path d="M-0.1,316.5l29.5,0l0,39.8l0.3,0l23.3,-39.8l33.9,0l-30.9,48.6l33.9,57.5l-33.9,0l-26.2,-45.7l-0.3,0l0,45.7l-29.5,0l0,-106.1l-0.1,0Z" style="fill:rgb(20,141,234);fill-rule:nonzero;"/>        </g>        <g id="path12" transform="matrix(3.17559,0,0,3.17559,331.849,-1005.07)">            <path d="M97.9,316.5l42.7,0c19.2,0 32.4,11.5 32.4,26.5c0,10 -3.5,18.6 -11.5,21.1l0,0.3c6.6,2.5 17.4,11.5 17.4,25.8c0,21.2 -16.2,32.4 -33.9,32.4l-47.1,0l0,-106.1Zm38.5,42.4c5,0 9.3,-3.2 9.3,-9.3c0,-5.7 -4.3,-9.3 -9.3,-9.3l-9,0l0,18.6l9,0Zm2.6,38.4c5.9,0 9.3,-4.7 9.3,-10.6c0,-5.9 -4.7,-10.6 -10.6,-10.6l-10.3,0l0,21.2l11.6,0Z" style="fill:rgb(20,141,234);fill-rule:nonzero;"/>        </g>    </g></svg>