<?xml version="1.0" encoding="UTF-8" standalone="no"?><!DOCTYPE svg PUBLIC "-//W3C//DTD SVG 1.1//EN" "http://www.w3.org/Graphics/SVG/1.1/DTD/svg11.dtd"><svg width="100%" height="100%" viewBox="0 0 512 512" version="1.1" xmlns="http://www.w3.org/2000/svg" xmlns:xlink="http://www.w3.org/1999/xlink" xml:space="preserve" style="fill-rule:evenodd;clip-rule:evenodd;stroke-linejoin:round;stroke-miterlimit:2;"><title>Finsquare</title><desc>Finsquare est une plateforme de prêts aux entreprises financés par des particuliers. Spécialisée dans les crédits court terme, la plateforme permet aux professionnels d’emprunter jusqu’à 100000€ sur une durée allant de 1 jusqu’à 24 mois et cela sans garantie ni caution personnelle. A la différence d’un crédit classique, l’emprunteur rembourse son prêt tous les mois augmenté d'intérêts. Les particuliers quant à eux, peuvent prêter à partir de 10€ à des taux d’intérêts attractifs jusqu’à 10%. Un système d’enchère permet aux prêteurs d’évaluer le projet afin de personnaliser leur offre de prêt. A la fin des enchères, les contributions sont sélectionnées en fonction de leur taux afin de constituer le prêt le plus avantageux pour le professionnel.</desc>    <g transform="matrix(2.14378,0,0,2.14378,-616.364,-107.991)">        <g transform="matrix(1.00757,0,0,1.00757,-6.17742,-9.53916)">            <circle cx="376.858" cy="86.245" r="26.318" style="fill:url(#_Linear1);"/>        </g>        <g transform="matrix(1.00757,0,0,1.00757,62.4699,-9.53916)">            <circle cx="376.858" cy="86.245" r="26.318" style="fill:url(#_Linear2);"/>        </g>        <path d="M481.717,221.347c-3.907,37.842 -35.924,67.391 -74.788,67.391c-38.948,0 -71.018,-29.675 -74.815,-67.624c-0.246,-0.837 -0.377,-95.883 -0.377,-95.883c0,-5.179 4.204,-9.383 9.383,-9.383l59.929,0l0,40.05l-25.987,0c-2.5,0 -4.53,2.24 -4.53,4.998c0,0 0.063,50.633 0.182,51.079c1.833,20.216 17.317,36.025 36.122,36.025l3.474,-0.194l-0.25,0.038c1.632,0.082 3.276,0.124 4.929,0.124c25.837,0 49.328,-10.123 66.728,-26.621Z" style="fill:url(#_Linear3);"/>        <path d="M412.022,115.848l60.716,0c5.178,0 9.382,4.204 9.382,9.383l0,88.316l-0.1,3.896l-0.087,1.148l-0.209,2.702l-0.007,0.054c-17.4,16.498 -40.891,26.621 -66.728,26.621c-1.653,0 -3.297,-0.042 -4.929,-0.124l0.25,-0.038l0.235,-0.013l1.229,-0.207l1.711,-0.257l0.343,-0.089l0.32,-0.054l1.158,-0.329l1.495,-0.387l0.428,-0.159l0.397,-0.113l1.059,-0.428l1.308,-0.486l0.502,-0.245l0.466,-0.189l0.946,-0.503l1.138,-0.557l0.565,-0.349l0.524,-0.279l0.828,-0.555l0.98,-0.604l0.615,-0.465l0.571,-0.383l0.709,-0.585l0.832,-0.629l0.651,-0.595l0.603,-0.498l0.592,-0.594l0.694,-0.634l0.673,-0.737l0.619,-0.621l0.482,-0.584l0.565,-0.619l0.679,-0.891l0.618,-0.751l0.377,-0.556l0.447,-0.587l0.668,-1.057l0.599,-0.884l0.282,-0.512l0.34,-0.539l0.638,-1.235l0.559,-1.017l0.198,-0.452l0.246,-0.478l0.588,-1.431l0.498,-1.14l0.126,-0.381l0.166,-0.402l0.517,-1.653l0.412,-1.243l0.07,-0.299l0.099,-0.315l0.424,-1.928l0.303,-1.296l0.028,-0.206l0.048,-0.218l0.309,-2.358l0.165,-1.193l0.005,-0.106c0.122,-1.309 0.183,-2.641 0.183,-3.987l0,-47.048c0,-2.758 -2.03,-4.998 -4.531,-4.998l-26.587,0l0,-40.05Z" style="fill:url(#_Linear4);"/>    </g>    <defs>        <linearGradient id="_Linear1" x1="0" y1="0" x2="1" y2="0" gradientUnits="userSpaceOnUse" gradientTransform="matrix(47.6123,0,0,47.6123,350.54,86.2446)"><stop offset="0" style="stop-color:rgb(13,155,70);stop-opacity:1"/><stop offset="1" style="stop-color:rgb(55,179,73);stop-opacity:1"/></linearGradient>        <linearGradient id="_Linear2" x1="0" y1="0" x2="1" y2="0" gradientUnits="userSpaceOnUse" gradientTransform="matrix(44.6785,0,0,44.6785,353.535,86.2446)"><stop offset="0" style="stop-color:rgb(12,129,149);stop-opacity:1"/><stop offset="1" style="stop-color:rgb(12,129,149);stop-opacity:1"/></linearGradient>        <linearGradient id="_Linear3" x1="0" y1="0" x2="1" y2="0" gradientUnits="userSpaceOnUse" gradientTransform="matrix(129.111,53.7067,-61.9107,148.834,331.737,202.293)"><stop offset="0" style="stop-color:rgb(13,155,70);stop-opacity:1"/><stop offset="1" style="stop-color:rgb(139,196,63);stop-opacity:1"/></linearGradient>        <linearGradient id="_Linear4" x1="0" y1="0" x2="1" y2="0" gradientUnits="userSpaceOnUse" gradientTransform="matrix(61.1658,0,0,112.144,414.161,181.908)"><stop offset="0" style="stop-color:rgb(12,129,149);stop-opacity:1"/><stop offset="1" style="stop-color:rgb(12,129,149);stop-opacity:1"/></linearGradient>    </defs></svg>