<?xml version="1.0" encoding="UTF-8" standalone="no"?><!DOCTYPE svg PUBLIC "-//W3C//DTD SVG 1.1//EN" "http://www.w3.org/Graphics/SVG/1.1/DTD/svg11.dtd"><svg width="100%" height="100%" viewBox="0 0 512 512" version="1.1" xmlns="http://www.w3.org/2000/svg" xmlns:xlink="http://www.w3.org/1999/xlink" xml:space="preserve" style="fill-rule:evenodd;clip-rule:evenodd;stroke-linejoin:round;stroke-miterlimit:2;"><title>Monetria</title><desc></desc>    <g id="Layer_1-2" transform="matrix(9.91202,0,0,9.91202,1.02648,47.8507)">        <path id="Path_57" d="M12.18,6.2c1.034,0.002 2.026,0.412 2.76,1.14l11.06,11.36c0.292,0.316 0.791,0.338 1.11,0.05l0,-0.05l10.38,-10.7c-3.979,-5.049 -10.064,-8 -16.493,-8c-11.52,0 -21,9.479 -21,21c0,11.52 9.48,21 21,21c4.717,0 9.299,-1.589 13.003,-4.51c0.38,-0.31 0.76,-0.62 1.12,-1l0,-14.49c0,-0.214 -0.176,-0.39 -0.39,-0.39c-0.106,-0.001 -0.208,0.043 -0.28,0.12l-6.8,7.74c-0.296,0.339 -0.725,0.533 -1.174,0.533c-0.382,0 -0.751,-0.14 -1.036,-0.393c-0.052,-0.042 -0.098,-0.088 -0.14,-0.14l-6.8,-7.74c-0.072,-0.075 -0.171,-0.118 -0.275,-0.118c-0.104,0 -0.203,0.043 -0.275,0.118c-0.077,0.069 -0.12,0.167 -0.12,0.27l0,15c-4.24,0 -7.67,-2.8 -7.67,-7l0,-21.85c0.027,-1.078 0.921,-1.95 2,-1.95l0.02,0Z" style="fill:url(#_Linear1);fill-rule:nonzero;"/>        <path id="Rectangle_3" d="M47.09,26.22c0,-0.066 -0.054,-0.12 -0.12,-0.12l-7.15,0c-0.066,0 -0.12,0.054 -0.12,0.12l0,7.1c0,0.066 0.054,0.12 0.12,0.12l7.15,0c0.066,0 0.12,-0.054 0.12,-0.12l0,-7.1Z" style="fill:url(#_Linear2);"/>        <path id="Rectangle_4" d="M46.63,14.609c0,-0.06 -0.049,-0.109 -0.109,-0.109l-5.392,0c-0.06,0 -0.109,0.049 -0.109,0.109l0,5.352c0,0.06 0.049,0.109 0.109,0.109l5.392,0c0.06,0 0.109,-0.049 0.109,-0.109l0,-5.352Z" style="fill:url(#_Linear3);"/>        <path id="Rectangle_5" d="M51.45,20.777c0,-0.043 -0.034,-0.077 -0.077,-0.077l-4.206,0c-0.043,0 -0.077,0.034 -0.077,0.077l0,4.176c0,0.043 0.034,0.077 0.077,0.077l4.206,0c0.043,0 0.077,-0.034 0.077,-0.077l0,-4.176Z" style="fill:url(#_Linear4);"/>        <path id="Rectangle_6" d="M49.8,10.26c0,-0.033 -0.027,-0.06 -0.06,-0.06l-3.09,0c-0.033,0 -0.06,0.027 -0.06,0.06l0,3.06c0,0.033 0.027,0.06 0.06,0.06l3.09,0c0.033,0 0.06,-0.027 0.06,-0.06l0,-3.06Z" style="fill:url(#_Linear5);"/>        <path id="Path_58" d="M26.52,31l-0.21,0c1.129,2.767 1.843,5.685 2.12,8.66c2.1,-0.835 4.044,-2.018 5.75,-3.5l0,-12.62l-5.74,6.55c-0.478,0.567 -1.179,0.899 -1.92,0.91Z" style="fill:url(#_Linear6);fill-rule:nonzero;"/>        <path id="Path_59" d="M20.9,1c-7.498,-0.003 -14.407,4.165 -17.9,10.8c2.139,0.41 4.23,1.04 6.24,1.88l0,-5.53c0,0 0,0 0,0c0,-1.602 1.318,-2.92 2.92,-2.92c0.01,0 0.02,0 0.03,0c1.298,0.008 2.543,0.521 3.47,1.43l10.87,11.23l9.65,-10c-3.85,-4.403 -9.431,-6.92 -15.28,-6.89Z" style="fill:url(#_Linear7);fill-rule:nonzero;"/>        <path id="Rectangle_7" d="M40.89,26.74l5,0c0.302,0 0.55,0.248 0.55,0.55l0,5c0,0.302 -0.248,0.55 -0.55,0.55l-5,0c-0.298,0 -0.545,-0.242 -0.55,-0.54l0,-5c0,-0.302 0.248,-0.55 0.55,-0.55l0,-0.01Z" style="fill:url(#_Linear8);fill-rule:nonzero;"/>        <path id="Rectangle_8" d="M45.99,15.184c0,-0.024 -0.02,-0.044 -0.044,-0.044l-4.242,0c-0.024,0 -0.044,0.02 -0.044,0.044l0,4.202c0,0.024 0.02,0.044 0.044,0.044l4.242,0c0.024,0 0.044,-0.02 0.044,-0.044l0,-4.202Z" style="fill:url(#_Linear9);"/>        <path id="Rectangle_9" d="M47.85,21.34l2.84,0c0.066,0 0.12,0.054 0.12,0.12l0,2.81c0,0.066 -0.054,0.12 -0.12,0.12l-2.84,0c-0.066,0 -0.12,-0.054 -0.12,-0.12l0,-2.81c0,-0.066 0.054,-0.12 0.12,-0.12Z" style="fill:url(#_Linear10);fill-rule:nonzero;"/>        <rect id="Rectangle_10" x="47.18" y="10.79" width="1.98" height="1.96" style="fill:url(#_Linear11);"/>    </g>    <defs>        <linearGradient id="_Linear1" x1="0" y1="0" x2="1" y2="0" gradientUnits="userSpaceOnUse" gradientTransform="matrix(-61.4836,47.9028,-47.9028,-61.4836,78.6515,-25.5688)"><stop offset="0" style="stop-color:rgb(0,186,242);stop-opacity:1"/><stop offset="0.52" style="stop-color:rgb(0,99,176);stop-opacity:1"/><stop offset="1" style="stop-color:rgb(0,48,122);stop-opacity:1"/></linearGradient>        <linearGradient id="_Linear2" x1="0" y1="0" x2="1" y2="0" gradientUnits="userSpaceOnUse" gradientTransform="matrix(-61.7804,47.7834,-47.7834,-61.7804,90.0945,-12.2656)"><stop offset="0" style="stop-color:rgb(0,186,242);stop-opacity:1"/><stop offset="0.52" style="stop-color:rgb(0,99,176);stop-opacity:1"/><stop offset="1" style="stop-color:rgb(0,48,122);stop-opacity:1"/></linearGradient>        <linearGradient id="_Linear3" x1="0" y1="0" x2="1" y2="0" gradientUnits="userSpaceOnUse" gradientTransform="matrix(-61.7661,47.7906,-47.7906,-61.7661,84.751,-18.8619)"><stop offset="0" style="stop-color:rgb(0,186,242);stop-opacity:1"/><stop offset="0.52" style="stop-color:rgb(0,99,176);stop-opacity:1"/><stop offset="1" style="stop-color:rgb(0,48,122);stop-opacity:1"/></linearGradient>        <linearGradient id="_Linear4" x1="0" y1="0" x2="1" y2="0" gradientUnits="userSpaceOnUse" gradientTransform="matrix(-61.7812,47.8032,-47.8032,-61.7812,89.2016,-10.4455)"><stop offset="0" style="stop-color:rgb(0,186,242);stop-opacity:1"/><stop offset="0.52" style="stop-color:rgb(0,99,176);stop-opacity:1"/><stop offset="1" style="stop-color:rgb(0,48,122);stop-opacity:1"/></linearGradient>        <linearGradient id="_Linear5" x1="0" y1="0" x2="1" y2="0" gradientUnits="userSpaceOnUse" gradientTransform="matrix(-61.8246,47.7318,-47.7318,-61.8246,83.7507,-13.3516)"><stop offset="0" style="stop-color:rgb(0,186,242);stop-opacity:1"/><stop offset="0.52" style="stop-color:rgb(0,99,176);stop-opacity:1"/><stop offset="1" style="stop-color:rgb(0,48,122);stop-opacity:1"/></linearGradient>        <linearGradient id="_Linear6" x1="0" y1="0" x2="1" y2="0" gradientUnits="userSpaceOnUse" gradientTransform="matrix(-28.8829,47.5376,-47.5376,-28.8829,51.7052,-5.4822)"><stop offset="0" style="stop-color:rgb(0,186,242);stop-opacity:1"/><stop offset="0.52" style="stop-color:rgb(0,99,176);stop-opacity:1"/><stop offset="1" style="stop-color:rgb(0,48,122);stop-opacity:1"/></linearGradient>        <linearGradient id="_Linear7" x1="0" y1="0" x2="1" y2="0" gradientUnits="userSpaceOnUse" gradientTransform="matrix(-28.8753,47.489,-47.489,-28.8753,33.8341,-9.107)"><stop offset="0" style="stop-color:rgb(0,186,242);stop-opacity:1"/><stop offset="0.52" style="stop-color:rgb(0,99,176);stop-opacity:1"/><stop offset="1" style="stop-color:rgb(0,48,122);stop-opacity:1"/></linearGradient>        <linearGradient id="_Linear8" x1="0" y1="0" x2="1" y2="0" gradientUnits="userSpaceOnUse" gradientTransform="matrix(-28.8392,47.571,-47.571,-28.8392,60.0094,5.6528)"><stop offset="0" style="stop-color:rgb(0,186,242);stop-opacity:1"/><stop offset="0.52" style="stop-color:rgb(0,99,176);stop-opacity:1"/><stop offset="1" style="stop-color:rgb(0,48,122);stop-opacity:1"/></linearGradient>        <linearGradient id="_Linear9" x1="0" y1="0" x2="1" y2="0" gradientUnits="userSpaceOnUse" gradientTransform="matrix(-28.9244,47.5332,-47.5332,-28.9244,54.8966,2.7682)"><stop offset="0" style="stop-color:rgb(0,186,242);stop-opacity:1"/><stop offset="0.52" style="stop-color:rgb(0,99,176);stop-opacity:1"/><stop offset="1" style="stop-color:rgb(0,48,122);stop-opacity:1"/></linearGradient>        <linearGradient id="_Linear10" x1="0" y1="0" x2="1" y2="0" gradientUnits="userSpaceOnUse" gradientTransform="matrix(-28.8904,47.6442,-47.6442,-28.8904,61,-1.332)"><stop offset="0" style="stop-color:rgb(0,186,242);stop-opacity:1"/><stop offset="0.52" style="stop-color:rgb(0,99,176);stop-opacity:1"/><stop offset="1" style="stop-color:rgb(0,48,122);stop-opacity:1"/></linearGradient>        <linearGradient id="_Linear11" x1="0" y1="0" x2="1" y2="0" gradientUnits="userSpaceOnUse" gradientTransform="matrix(-29.1258,47.9024,-47.9024,-29.1258,54.8494,-0.418)"><stop offset="0" style="stop-color:rgb(0,186,242);stop-opacity:1"/><stop offset="0.52" style="stop-color:rgb(0,99,176);stop-opacity:1"/><stop offset="1" style="stop-color:rgb(0,48,122);stop-opacity:1"/></linearGradient>    </defs></svg>