<?xml version="1.0" encoding="UTF-8" standalone="no"?><!DOCTYPE svg PUBLIC "-//W3C//DTD SVG 1.1//EN" "http://www.w3.org/Graphics/SVG/1.1/DTD/svg11.dtd"><svg width="100%" height="100%" viewBox="0 0 512 512" version="1.1" xmlns="http://www.w3.org/2000/svg" xmlns:xlink="http://www.w3.org/1999/xlink" xml:space="preserve" style="fill-rule:evenodd;clip-rule:evenodd;stroke-linejoin:round;stroke-miterlimit:2;"><title>CannerGrow</title><desc>Cannergrow is a project founded by Cannerald which combines professional cultivation with an easy to use Customer-End-Web interface. We offer the first and so far, only Plant-Growing-Service in the entire Cannabis industry. Anyone from all around the world can get started in the cannabis industry with us an be a virtual grower and get a piece of this huge billion-dollar market. We put the highest quality first to satisfy our customers. To be able to ensure this level of satisfaction, we strictly adhere to Swiss quality standards while setting new standards in the cannabis industry. </desc>    <g transform="matrix(4.94474,0,0,4.94474,-1073.02,-979.316)">        <g transform="matrix(1,0,0,1,217.204,210.889)">            <path d="M93.88,29.9c-5.11,0 -9.26,4.15 -9.26,9.26c0,5.11 4.15,9.26 9.26,9.26c5.11,0 9.26,-4.15 9.26,-9.26c0,-5.11 -4.14,-9.26 -9.26,-9.26Zm5.73,11.2l-3.76,0l0,3.76l-3.87,0l0,-3.76l-3.76,0l0,-3.87l3.76,0l0,-3.76l3.87,0l0,3.76l3.76,0l0,3.87Z" style="fill:rgb(255,0,0);fill-rule:nonzero;"/>        </g>        <g transform="matrix(1,0,0,1,217.204,210.889)">            <path d="M62.96,10.18c-0.2,0 -0.4,0.05 -0.57,0.15c-0.36,0.2 -0.58,0.59 -0.58,1l0,3.98c0,0.41 0.22,0.79 0.57,0.99l17.15,10.58c2.06,1.2 4.85,1.24 6.97,0.06c2.4,-1.33 3.84,-3.76 3.86,-6.5c0.02,-2.74 -1.38,-5.19 -3.75,-6.56l-20.86,-12.64c-2.87,-1.65 -6.45,-1.65 -9.32,0.01l-19.54,11.19c-0.32,0.18 -0.53,0.51 -0.57,0.88c-0.04,0.37 0.11,0.73 0.38,0.98l2.74,2.4c0.37,0.32 0.9,0.38 1.33,0.13l18.07,-10.34c1.39,-0.8 3.12,-0.8 4.51,0l20.48,12.41c0.54,0.31 0.86,0.89 0.84,1.53c-0.02,0.65 -0.38,1.2 -0.95,1.49c-0.51,0.26 -1.18,0.21 -1.75,-0.12l-18.45,-11.47c-0.17,-0.1 -0.36,-0.15 -0.56,-0.15Zm-34.97,13.44c-0.16,0 -0.32,0.03 -0.47,0.1c-0.41,0.18 -0.68,0.59 -0.68,1.05l-0.02,29.62c0,3.17 1.7,6.13 4.45,7.71l25.15,14.54c2.83,1.63 6.52,1.64 9.35,0.01l20.83,-12.63c2.39,-1.38 3.79,-3.83 3.77,-6.57c-0.02,-2.74 -1.47,-5.17 -3.86,-6.49c-2.17,-1.2 -4.85,-1.17 -7,0.07l-17.11,10.56c-0.37,0.22 -0.59,0.6 -0.59,1l0,3.98c0,0.41 0.22,0.79 0.58,0.99c0.36,0.21 0.8,0.2 1.15,-0.01l18.41,-11.45c0.58,-0.35 1.26,-0.39 1.77,-0.13c0.57,0.28 0.93,0.84 0.95,1.48c0.02,0.65 -0.3,1.22 -0.86,1.55l-20.45,12.4c-1.41,0.81 -3.14,0.81 -4.53,0.01l-24.18,-13.99c-1.28,-0.74 -2.08,-2.13 -2.08,-3.61l0.01,-25.95c0,-0.33 -0.14,-0.64 -0.38,-0.85l-3.45,-3.09c-0.21,-0.2 -0.48,-0.3 -0.76,-0.3Z" style="fill:rgb(102,102,102);fill-rule:nonzero;"/>        </g>        <g transform="matrix(1,0,0,1,217.204,210.889)">            <path d="M20.49,7.8c1.71,0 3.35,0.62 4.63,1.74l13.14,11.54c1.73,1.52 2.73,3.72 2.73,6.02l0,28.62c0,0.08 -0.05,0.16 -0.12,0.2c-0.04,0.02 -0.08,0.03 -0.12,0.03c-0.03,0 -0.07,-0.01 -0.12,-0.03l-3.66,-2.08c-0.07,-0.04 -0.12,-0.12 -0.12,-0.2l0,-25.95c0,-1.45 -0.63,-2.84 -1.72,-3.8l-11.88,-10.44c-0.29,-0.26 -0.62,-0.49 -0.97,-0.65c-1.57,-0.72 -3.31,-0.42 -4.52,0.64l-11.89,10.44c-1.1,0.97 -1.73,2.36 -1.73,3.83l0,24.63c0,1.27 0.55,2.49 1.5,3.33l12.36,10.93c0.83,0.71 1.66,1.06 2.56,1.06c0.84,0 1.65,-0.31 2.46,-0.93l3.48,-2.65c0.05,-0.04 0.11,-0.05 0.14,-0.05c0.04,0 0.08,0.01 0.12,0.03l3.35,1.99c0.07,0.04 0.11,0.11 0.11,0.19c0.01,0.08 -0.03,0.15 -0.09,0.2l-5.04,4.06c-1.26,1.01 -2.83,1.57 -4.44,1.57c-1.71,0 -3.37,-0.62 -4.66,-1.76l-13.31,-11.69c-1.7,-1.49 -2.68,-3.65 -2.68,-5.92l0,-24.48c0,-3.02 1.3,-5.9 3.57,-7.89l12.29,-10.8c1.28,-1.12 2.92,-1.73 4.63,-1.73" style="fill:rgb(191,198,0);fill-rule:nonzero;"/>        </g>    </g></svg>