<?xml version="1.0" encoding="UTF-8" standalone="no"?><!DOCTYPE svg PUBLIC "-//W3C//DTD SVG 1.1//EN" "http://www.w3.org/Graphics/SVG/1.1/DTD/svg11.dtd"><svg width="100%" height="100%" viewBox="0 0 512 512" version="1.1" xmlns="http://www.w3.org/2000/svg" xmlns:xlink="http://www.w3.org/1999/xlink" xml:space="preserve" style="fill-rule:evenodd;clip-rule:evenodd;stroke-linejoin:round;stroke-miterlimit:2;"><title>BLender IL</title><desc></desc>    <g transform="matrix(1.12218,0,0,1.12218,-540.346,-329.428)">        <g transform="matrix(1.06347,0,0,1.06347,-30.294,-47.5372)">            <circle cx="695.77" cy="535.249" r="213.673" style="fill:rgb(0,169,236);"/>        </g>        <g transform="matrix(1,0,0,1,-0.796844,4.19888)">            <path d="M705.332,507.047c-2.678,-0.657 -2.05,-15.053 -1.549,-15.338c3.02,-1.72 32.837,-25.577 66.081,11.123c13.728,15.155 13.203,33.547 12.835,47.719c-0.608,23.384 -14.816,41.887 -24.611,47.419c-14.709,8.308 -27.71,14.05 -40.955,14.05c-10.109,0 -19.752,-2.664 -28.931,-7.991c-9.178,-5.327 -22.829,-20.245 -30.099,-41.552c0,0 -0.512,-127.765 -0.512,-129.521c0,-3.161 -1.191,-5.883 -3.573,-8.166c-2.382,-2.283 -5.257,-3.425 -8.627,-3.425c-6.158,0 -49.595,2.356 -67.004,52.392c-5.764,16.566 -5.909,58.172 -1.753,75.375c6.631,27.452 15.119,38.673 25.052,55.649c9.934,16.976 29.259,31.045 48.953,41.231c19.693,10.185 33.601,13.715 57.419,13.715c27.187,0 51.405,-7.93 73.886,-20.75c22.482,-12.82 37.933,-31.775 50.306,-55.717c12.374,-23.943 15.939,-49.039 15.939,-76.435c0,-28.685 -5.932,-48.796 -18.306,-69.518c-12.373,-20.723 -32.278,-42.391 -52.6,-52.379c-34.496,-16.953 -51.889,-21.329 -84.967,-16.144c-3.514,0.55 -28.762,-0.608 -14.712,-13.761c11.756,-11.006 65.837,-5.694 89.319,3.722c21.147,8.48 42.633,21.68 57.969,35.085c15.337,13.406 29.036,32.909 36.821,50.354c9.759,22.127 15.166,41.384 15.166,67.024c0,28.568 -4.09,54.064 -15.709,79.938c-14.174,31.729 -39.269,54.138 -65.352,70.997c-26.084,16.859 -50.268,23.966 -87.448,23.966c-28.814,0 -57.594,-8.692 -80.541,-20.575c-22.947,-11.884 -49.261,-40.206 -62.506,-63.738c-11.27,-20.255 -21.329,-50.119 -21.329,-73.886c0,-33.952 1.975,-48.79 22.309,-77.812c22.36,-31.914 65.956,-50.15 91.052,-50.15c8.017,0 14.494,0.229 19.432,2.688c4.938,2.458 8.569,7.971 10.893,12.537c1.51,2.927 2.585,147.307 2.585,147.307c0,0 -3.061,28.519 24.067,35.289c7.215,1.8 36.523,-7.065 34.027,-47.501c-3.282,-53.149 -35.061,-41.267 -43.027,-43.221Z" style="fill:white;fill-rule:nonzero;"/>        </g>    </g></svg>