<?xml version="1.0" encoding="UTF-8" standalone="no"?><!DOCTYPE svg PUBLIC "-//W3C//DTD SVG 1.1//EN" "http://www.w3.org/Graphics/SVG/1.1/DTD/svg11.dtd"><svg width="100%" height="100%" viewBox="0 0 512 512" version="1.1" xmlns="http://www.w3.org/2000/svg" xmlns:xlink="http://www.w3.org/1999/xlink" xml:space="preserve" style="fill-rule:evenodd;clip-rule:evenodd;stroke-linejoin:round;stroke-miterlimit:2;"><title>AHK</title><desc></desc>    <g id="_37a40573-ad21-48f8-ac4b-bafee752feda" transform="matrix(4.63587,0,0,4.63587,-40.6957,-40.7228)">        <path d="M10.5,102.36c42.19,-16.47 54.33,36.66 107,8c-55.01,13.52 -62.24,-36.36 -107,-8Z" style="fill:rgb(0,79,141);fill-rule:nonzero;"/>        <path d="M88.76,89.17c17.44,-4.67 38.3,-66.34 -28.76,-71.83l0,-8.34l-5.06,0l0,8.51c0,0 -6,2.51 -16,7c-1.15,0.7 -1.38,2.76 0,3l16,0.11c0.21,0.51 0,61.18 0,61.18l-13.38,0c-1,1.54 0,1.88 0,2.07c22.12,4.68 51.06,33.83 69,-1.92l-21.8,0.22Zm-28.76,-5.1c-0.13,0.27 -0.07,0.19 -0.11,-62c19.92,17.77 8.87,57.33 0.11,62Zm25.15,4.93l-21.92,-0.21c5.53,-4.72 23.77,-18.01 21.92,0.21Z" style="fill:rgb(0,79,141);fill-rule:nonzero;"/>    </g></svg>