<?xml version="1.0" encoding="UTF-8" standalone="no"?><!DOCTYPE svg PUBLIC "-//W3C//DTD SVG 1.1//EN" "http://www.w3.org/Graphics/SVG/1.1/DTD/svg11.dtd"><svg width="100%" height="100%" viewBox="0 0 512 512" version="1.1" xmlns="http://www.w3.org/2000/svg" xmlns:xlink="http://www.w3.org/1999/xlink" xml:space="preserve" style="fill-rule:evenodd;clip-rule:evenodd;stroke-linejoin:round;stroke-miterlimit:2;"><title>CapitalRise</title><desc>CapitalRise is a property backed investment platform enabling everyday investors to sidestep middlemen and invest directly in some of the finest real estate.For ordinary investors, CapitalRise differs from other platforms in that it offers higher returns (typically from 8-12% per year), charges no fees, gives direct access to some of the finest real estate, and investments can start from £1000.</desc>    <g transform="matrix(4.08888,0,0,4.08888,-1126.1,-3611.05)">        <g transform="matrix(-1.63137,1.15699,1.15699,1.63137,406.456,971.199)">            <path d="M8.602,-21.103c0.282,-0.097 0.563,-0.196 0.842,-0.298c0.711,6.401 0.426,13.779 -0.842,22.129c-0.885,0.838 -1.745,1.677 -2.58,2.51c2.157,-9.287 3.02,-17.404 2.58,-24.341" style="fill:rgb(33,63,108);fill-rule:nonzero;"/>        </g>        <g transform="matrix(-1.82475,0.818707,0.818707,1.82475,387.67,974.41)">            <path d="M6.485,-23.574c0.176,-0.074 0.356,-0.149 0.534,-0.226c1.185,6.912 1.004,15.026 -0.534,24.332c-0.662,0.364 -1.319,0.727 -1.968,1.094c2.304,-9.701 2.965,-18.104 1.968,-25.2" style="fill:rgb(33,63,108);fill-rule:nonzero;"/>        </g>        <g transform="matrix(-1.94857,0.450648,0.450648,1.94857,370.867,977.562)">            <path d="M4.437,-27.82c0.147,-0.053 0.295,-0.104 0.444,-0.153c1.231,8.053 1.081,17.438 -0.444,28.143c-0.572,0.163 -1.14,0.326 -1.706,0.489c2.266,-10.865 2.838,-20.362 1.706,-28.479" style="fill:rgb(33,63,108);fill-rule:nonzero;"/>        </g>        <g transform="matrix(-1.99325,0.164207,0.164207,1.99325,353.558,979.109)">            <path d="M2.43,-31.622c0.145,-0.027 0.288,-0.053 0.434,-0.077c0.728,9.044 0.582,19.615 -0.434,31.708c-0.524,0.054 -1.045,0.109 -1.564,0.168c1.764,-12.134 2.287,-22.738 1.564,-31.799" style="fill:rgb(33,63,108);fill-rule:nonzero;"/>        </g>        <g transform="matrix(-1.63141,-1.15693,-1.15693,1.63141,269.572,971.2)">            <path d="M-8.601,-21.102c-0.284,-0.098 -0.564,-0.197 -0.843,-0.299c-0.71,6.401 -0.426,13.779 0.843,22.129c0.883,0.837 1.745,1.676 2.58,2.51c-2.158,-9.288 -3.021,-17.404 -2.58,-24.34" style="fill:rgb(33,63,108);fill-rule:nonzero;"/>        </g>        <g transform="matrix(-1.82478,-0.818638,-0.818638,1.82478,288.356,974.41)">            <path d="M-6.486,-23.574c-0.179,-0.075 -0.357,-0.149 -0.534,-0.225c-1.186,6.911 -1.004,15.025 0.534,24.331c0.663,0.364 1.32,0.727 1.969,1.093c-2.306,-9.7 -2.966,-18.104 -1.969,-25.199" style="fill:rgb(33,63,108);fill-rule:nonzero;"/>        </g>        <g transform="matrix(-1.94855,-0.450716,-0.450716,1.94855,305.162,977.562)">            <path d="M-4.435,-27.82c-0.147,-0.053 -0.297,-0.104 -0.444,-0.153c-1.233,8.053 -1.082,17.438 0.444,28.144c0.571,0.162 1.139,0.325 1.703,0.488c-2.265,-10.865 -2.837,-20.362 -1.703,-28.479" style="fill:rgb(33,63,108);fill-rule:nonzero;"/>        </g>        <g transform="matrix(-1.99325,-0.164144,-0.164144,1.99325,322.472,979.109)">            <path d="M-2.428,-31.622c-0.145,-0.027 -0.29,-0.053 -0.435,-0.077c-0.729,9.044 -0.582,19.615 0.435,31.708c0.523,0.054 1.045,0.109 1.563,0.168c-1.765,-12.134 -2.289,-22.738 -1.563,-31.799" style="fill:rgb(33,63,108);fill-rule:nonzero;"/>        </g>        <g transform="matrix(2,0,0,2,339.555,908.047)">            <path d="M0,35.692c-0.41,-13.857 -0.586,-25.756 -0.526,-35.69c-0.154,-0.002 -0.308,-0.002 -0.462,0c0.06,9.934 -0.115,21.831 -0.526,35.688c0.15,0 0.299,-0.001 0.449,-0.001c0.356,0 0.711,0.001 1.065,0.003" style="fill:rgb(33,63,108);fill-rule:nonzero;"/>        </g>    </g></svg>