<?xml version="1.0" encoding="UTF-8" standalone="no"?><!DOCTYPE svg PUBLIC "-//W3C//DTD SVG 1.1//EN" "http://www.w3.org/Graphics/SVG/1.1/DTD/svg11.dtd"><svg width="100%" height="100%" viewBox="0 0 512 512" version="1.1" xmlns="http://www.w3.org/2000/svg" xmlns:xlink="http://www.w3.org/1999/xlink" xml:space="preserve" style="fill-rule:evenodd;clip-rule:evenodd;stroke-linejoin:round;stroke-miterlimit:2;"><title>NACFB</title><desc>The NACFB is the trade body for more than 1600 commercial finance brokers and 138 lenders across the UK. We work with the regulatory body and a full spectrum of partners to ensure that SME UK gets the funding it needs.</desc>    <g id="Layer_1-2" transform="matrix(2.69658,0,0,2.69658,2.42591,149.341)">        <path d="M38.89,44.31l-2.81,0l-28.16,-31.21l0.25,31.21l-7.96,0l0,-43.21l7.53,0l23.56,26.81l-0.24,-26.81l7.83,0l0,43.21Z" style="fill:rgb(29,60,52);fill-rule:nonzero;"/>        <path d="M85.65,44.31l-8.75,0l-4,-10.77l-17.18,0l-4.1,10.77l-8.08,0l17.46,-43.21l7.84,0m2.16,27.12l-5.79,-16.16c-0.25,-0.73 -0.31,-1 -0.68,-2.33c-0.43,1.41 -0.49,1.65 -0.67,2.2l-6.18,16.29l13.32,0Z" style="fill:rgb(29,60,52);fill-rule:nonzero;"/>        <path d="M120.12,44.19c-3.196,0.832 -6.487,1.246 -9.79,1.23c-16.22,0 -25,-10.1 -25,-22.47c0,-12.37 8.96,-22.95 24.81,-22.95c4.094,-0.047 8.161,0.658 12,2.08l0,7.41c-3.315,-2.326 -7.271,-3.566 -11.32,-3.55c-10.22,0 -17,7 -17,16.52c0,9.52 6.62,17 18.18,17c4.137,-0.085 8.232,-0.852 12.12,-2.27" style="fill:rgb(29,60,52);fill-rule:nonzero;"/>        <path d="M158.43,1.1l15.12,0c6.61,0 13.4,2.76 13.4,10.71c0,5.33 -3.42,8.33 -7.77,9.61c5.45,0.92 9.42,4.65 9.42,10.41c-0.086,5.5 -3.858,10.302 -9.18,11.69c-2.069,0.576 -4.213,0.842 -6.36,0.79l-14.63,0m7.77,-20.68l3.31,-4.63c1.248,0.042 2.497,-0.038 3.73,-0.24c3.92,-0.8 5.94,-3.3 5.94,-6.18c0,-4.58 -3.86,-5.58 -7.65,-5.58l-5.33,0l0,16.63Zm0,14.81l3.31,0c1.554,0.071 3.112,-0.012 4.65,-0.25c4.35,-0.73 6.37,-4 6.37,-6.91c0.044,-2.347 -1.271,-4.52 -3.37,-5.57c-2.2,-1.23 -5,-1.35 -8.26,-1.35l-2.7,0l0,14.08Z" style="fill:rgb(29,60,52);fill-rule:nonzero;"/>        <path d="M153.54,7.16l0,-6.12l-25.71,0l0,43.27l8.08,0l0,-18.91l15.24,0l0,-6.18l-11.21,0l-4.03,5.68l0,-6.15l0,-11.59" style="fill:rgb(29,60,52);fill-rule:nonzero;"/>        <g transform="matrix(0.994969,0,0,0.994969,-0.528784,7.15312)">            <path d="M0,55.91l0,16.41l176.94,0l11.66,-16.41l-188.6,0Z" style="fill:rgb(29,60,52);fill-rule:nonzero;"/>        </g>    </g></svg>