<?xml version="1.0" encoding="UTF-8" standalone="no"?><!DOCTYPE svg PUBLIC "-//W3C//DTD SVG 1.1//EN" "http://www.w3.org/Graphics/SVG/1.1/DTD/svg11.dtd"><svg width="100%" height="100%" viewBox="0 0 512 512" version="1.1" xmlns="http://www.w3.org/2000/svg" xmlns:xlink="http://www.w3.org/1999/xlink" xml:space="preserve" style="fill-rule:evenodd;clip-rule:evenodd;stroke-linejoin:round;stroke-miterlimit:2;"><title>Finance Estonia</title><desc></desc>    <g transform="matrix(4.63636,0,0,4.6298,-40.7273,-40.3072)">        <path d="M29,74.57l-7.54,7.54l-12.1,12.07c6.39,-0.05 17.18,-0.17 19.19,-0.17c1.512,-0.025 2.975,0.546 4.07,1.59c0.92,0.91 1.53,2.15 1.53,4.7c0,3.3 -0.35,12.16 -0.52,18.13l4.28,-4.28l4.29,-4.26c1.16,-1.17 2.33,-2.35 3.51,-3.51c2.52,-2.507 5.033,-5.02 7.54,-7.54l4.75,-4.71c0,-2.06 0,-24.13 -0.18,-24.13c-8,0 -16.06,-0.1 -24.1,-0.13l-4.72,4.7" style="fill:rgb(0,179,227);fill-rule:nonzero;"/>        <path d="M99.4,54.45l7.54,-7.54l12.06,-12.06c-6.39,0.05 -17.18,0.17 -19.19,0.17c-1.512,0.025 -2.975,-0.546 -4.07,-1.59c-0.92,-0.91 -1.53,-2.15 -1.53,-4.7c0,-3.3 0.35,-12.16 0.52,-18.13l-4.28,4.28l-4.29,4.26c-1.16,1.17 -2.33,2.35 -3.51,3.51c-2.52,2.507 -5.033,5.02 -7.54,7.54l-4.71,4.71c0,2.06 0,24.13 0.18,24.13c8,0 16.06,0.1 24.1,0.13l4.72,-4.71" style="fill:rgb(0,179,227);fill-rule:nonzero;"/>        <path d="M52.85,29.18l-7.54,-7.54l-12.06,-12.07c0.05,6.39 0.17,17.18 0.17,19.19c0.025,1.512 -0.546,2.975 -1.59,4.07c-0.91,0.92 -2.15,1.53 -4.7,1.53c-3.29,0 -12.13,-0.36 -18.13,-0.52l4.28,4.28l4.26,4.29c1.17,1.16 2.35,2.33 3.51,3.51c2.507,2.52 5.02,5.033 7.54,7.54l4.71,4.71c2.06,0 24.13,0 24.13,-0.18c0,-8 0.1,-16.06 0.13,-24.1l-4.71,-4.72" style="fill:rgb(0,179,227);fill-rule:nonzero;"/>    </g></svg>