<?xml version="1.0" encoding="UTF-8" standalone="no"?><!DOCTYPE svg PUBLIC "-//W3C//DTD SVG 1.1//EN" "http://www.w3.org/Graphics/SVG/1.1/DTD/svg11.dtd"><svg width="100%" height="100%" viewBox="0 0 512 512" version="1.1" xmlns="http://www.w3.org/2000/svg" xmlns:xlink="http://www.w3.org/1999/xlink" xml:space="preserve" style="fill-rule:evenodd;clip-rule:evenodd;stroke-linejoin:round;stroke-miterlimit:2;"><title>HNW Lending</title><desc>HNW Lending Ltd allows asset owners to use illiquid assets to generate liquidity (cash). In other words rather than sell a fine collection of antiques, some rare wine or hand-crafted jewellery, HNW will arrange for you to borrow money against the value of these assets. </desc>    <g>        <g transform="matrix(1.07822,0,0,1.07822,-14.0951,-16.2516)">            <path d="M487,33.791c0,-9.819 -7.972,-17.791 -17.791,-17.791l-437.418,0c-9.819,0 -17.791,7.972 -17.791,17.791l0,437.418c0,9.819 7.972,17.791 17.791,17.791l437.418,0c9.819,0 17.791,-7.972 17.791,-17.791l0,-437.418Z" style="fill:rgb(116,116,116);"/>        </g>        <g transform="matrix(2.76809,0,0,2.76809,-508.003,139.134)">            <g transform="matrix(0.555171,0,0,0.555171,202.657,18.8297)">                <path d="M16.2,79.818l-14.228,0l0,-75.375l14.228,0l0,30.475l35.784,0l0,-30.475l14.13,0l0,75.375l-14.13,0l0,-31.55l-35.784,0l0,31.55Z" style="fill:rgb(226,226,226);"/>            </g>            <g transform="matrix(0.555171,0,0,0.555171,202.657,18.8297)">                <path d="M95.613,79.818l-14.228,0l0,-75.375l11.149,0l38.863,48.945l0,-48.945l14.13,0l0,75.375l-11.151,0l-38.763,-48.928l0,48.928Z" style="fill:rgb(226,226,226);"/>            </g>            <g transform="matrix(0.555171,0,0,0.555171,202.657,18.8297)">                <path d="M236.848,79.818l-12.632,0l-17.533,-51.061l-17.619,51.061l-12.53,0l-25.412,-75.375l14.814,0l17.271,51.468l17.868,-51.468l11.736,0l17.608,51.713l17.523,-51.713l14.318,0c-8.471,25.125 -16.942,50.25 -25.412,75.375Z" style="fill:rgb(226,226,226);"/>            </g>        </g>    </g></svg>