<?xml version="1.0" encoding="UTF-8" standalone="no"?><!DOCTYPE svg PUBLIC "-//W3C//DTD SVG 1.1//EN" "http://www.w3.org/Graphics/SVG/1.1/DTD/svg11.dtd"><svg width="100%" height="100%" viewBox="0 0 512 512" version="1.1" xmlns="http://www.w3.org/2000/svg" xmlns:xlink="http://www.w3.org/1999/xlink" xml:space="preserve" style="fill-rule:evenodd;clip-rule:evenodd;stroke-linejoin:round;stroke-miterlimit:2;"><title>CrowdLords</title><desc>The property crowdfunding platform for direct investment into hand-picked UK developments and rental property projectsChoose investments that match your financial goals, from first charge or second charge lending, to shares in individual property development projects</desc>    <g transform="matrix(11.1654,0,0,11.1654,28.5434,-2.60643)">        <path d="M40.212,18.196l-18.85,-17.483c-0.552,-0.52 -1.426,-0.52 -1.978,0l-18.85,17.482c-0.448,0.416 -0.598,1.066 -0.377,1.636c0.22,0.577 0.757,0.95 1.367,0.95l3.556,0l0,24.474c0,0.411 0.329,0.744 0.734,0.744c0.403,-0.003 0.733,-0.335 0.733,-0.738c0,-0.002 0,-0.004 0,-0.006l0,-25.217c0,-0.002 0,-0.004 0,-0.006c0,-0.403 -0.33,-0.735 -0.733,-0.738l-4.29,0l18.85,-17.484l18.848,17.484l-4.288,0c-0.405,0.003 -0.736,0.339 -0.733,0.744l0,25.218c0,0.411 0.328,0.744 0.733,0.744c0.403,-0.003 0.733,-0.335 0.733,-0.738c0,-0.002 0,-0.004 0,-0.006l0,-24.474l3.555,0c0.61,0 1.147,-0.373 1.368,-0.95c0.215,-0.571 0.066,-1.218 -0.378,-1.636Zm-28.842,15.016c-0.363,0.343 -0.485,0.873 -0.307,1.34c0.178,0.465 0.626,0.776 1.117,0.776l0.005,0l0.976,-0.003l-0.025,10.065c0,0.002 0,0.004 0,0.006c0,0.329 0.27,0.601 0.599,0.604l0.001,0c0.33,0 0.6,-0.272 0.6,-0.607l0.026,-10.676c0.001,-0.161 -0.062,-0.317 -0.175,-0.432c-0.11,-0.118 -0.265,-0.183 -0.426,-0.178l-1.58,0.004l8.214,-7.622l8.176,7.58l-1.587,0.005c-0.33,0.003 -0.6,0.277 -0.598,0.607l-0.027,10.681c0,0.336 0.268,0.61 0.599,0.61l0.001,0c0.331,0 0.6,-0.271 0.6,-0.606l0.026,-10.077l0.99,-0.002c0.497,-0.002 0.943,-0.314 1.115,-0.78c0.179,-0.47 0.058,-0.995 -0.31,-1.337l-8.176,-7.58c-0.453,-0.426 -1.167,-0.426 -1.62,0l-8.214,7.622Z" style="fill:url(#_Linear1);"/>    </g>    <defs>        <linearGradient id="_Linear1" x1="0" y1="0" x2="1" y2="0" gradientUnits="userSpaceOnUse" gradientTransform="matrix(2.79691e-15,-45.677,45.677,2.79691e-15,20.3716,46)"><stop offset="0" style="stop-color:rgb(202,97,168);stop-opacity:1"/><stop offset="1" style="stop-color:rgb(145,171,255);stop-opacity:1"/></linearGradient>    </defs></svg>