<?xml version="1.0" encoding="UTF-8" standalone="no"?><!DOCTYPE svg PUBLIC "-//W3C//DTD SVG 1.1//EN" "http://www.w3.org/Graphics/SVG/1.1/DTD/svg11.dtd"><svg width="100%" height="100%" viewBox="0 0 512 512" version="1.1" xmlns="http://www.w3.org/2000/svg" xmlns:xlink="http://www.w3.org/1999/xlink" xml:space="preserve" style="fill-rule:evenodd;clip-rule:evenodd;stroke-linejoin:round;stroke-miterlimit:2;"><title>Crealsa</title><desc>Our commitment is to offer financing quickly and easily to companies and freelancers, without complicated formal requirements or policies.   We are aware of the treasury tensions that prevent companies and freelancers from discounting the promissory notes issued by their clients. Our innovative business model is based on two fundamental values: the application of new technologies and the concept of "alternative to traditional banking."</desc>    <g id="g30" transform="matrix(14.8962,-2.19188e-31,2.19188e-31,-14.8962,-1271.21,2773.6)">        <g id="g64" transform="matrix(0.173971,0,0,0.183436,76.7163,123.471)">            <path id="path88" d="M198.099,303.208c27.447,-15.191 33.922,-56.066 14.445,-91.348l-8.532,-15.427c-19.521,-35.258 -57.566,-50.885 -85.013,-35.725c-27.47,15.207 -28.858,53.941 -18.081,80.256c6.74,16.457 13.067,26.844 13.067,26.844c19.32,34.302 56.677,50.561 84.114,35.4" style="fill:url(#_Linear1);fill-rule:nonzero;"/>        </g>        <g id="g102" transform="matrix(0.173971,0,0,0.183436,76.7163,123.471)">            <clipPath id="_clip2">                <rect id="path126" x="72.898" y="155.137" width="105.421" height="186.436"/>            </clipPath>            <g clip-path="url(#_clip2)">                <path d="M175.388,256.96c0.561,-4.897 1.218,-8.451 1.706,-12.285c0.626,-4.983 1.038,-9.699 1.134,-13.981c0.414,-19.191 -0.275,-33.859 -8.447,-53.863c-0.72,-1.695 -3.507,-6.385 -4.799,-8.256c-1.337,-1.881 -2.618,-3.32 -3.997,-4.668c-4.534,-4.424 -11.88,-9.373 -24.342,-8.711c-2.49,0.117 -11.424,1.803 -17.38,5.369c-4.154,2.479 -8.923,5.791 -12.94,10.803c-11.477,14.287 -24.173,38.194 -30.881,67.736c-8.192,45.723 4.536,83.562 22.032,96.792c2.512,1.914 3.105,2.109 4.621,2.873c2.405,1.198 4.07,1.632 6.443,2.114c1.526,0.318 3.74,0.62 4.6,0.641c1.123,0.032 2.246,0.08 3.454,0.021c24.078,-1.144 49.778,-34.134 58.796,-84.585" style="fill:url(#_Linear3);fill-rule:nonzero;"/>            </g>        </g>        <g id="g140" transform="matrix(0.173971,0,0,0.183436,76.7163,123.471)">            <clipPath id="_clip4">                <rect id="path166" x="111.031" y="159.801" width="57.834" height="75.74"/>            </clipPath>            <g clip-path="url(#_clip4)">                <path d="M166.57,189.999c-5.944,-20.166 -21.386,-33.371 -34.494,-29.537l-5.734,1.719c-13.12,3.847 -18.917,23.336 -12.983,43.492c5.956,20.156 23.464,31.931 34.529,29.568c0,0 1.026,-0.191 2.764,-0.609c2.555,-0.627 2.078,-0.611 2.958,-0.918c12.908,-4.471 18.885,-23.547 12.96,-43.715" style="fill:url(#_Linear5);fill-rule:nonzero;"/>            </g>        </g>        <g transform="matrix(0.173971,0,0,0.183436,103.206,161.267)">            <g id="g180">                <clipPath id="_clip6">                    <rect id="path188" x="-76.726" y="0" width="148.24" height="135.529"/>                </clipPath>                <g clip-path="url(#_clip6)">                    <path d="M0,0c32.376,0 60.079,19.924 71.514,48.166c-0.107,21.133 -9.009,39.783 -25.678,48.998c-11.871,6.577 -25.754,7.239 -39.244,3.004c-11.817,21.715 -27.352,34.628 -42.242,35.333c-1.208,0.059 -2.342,0.011 -3.466,-0.021c-0.815,-0.021 -3.051,-0.323 -4.599,-0.641c-2.373,-0.482 -4.027,-0.916 -6.432,-2.114c-1.516,-0.764 -2.12,-0.959 -4.621,-2.872c-12.643,-9.559 -21.259,-31.665 -21.958,-60.443c3.868,-38.984 36.741,-69.41 76.726,-69.41" style="fill:rgb(244,244,244);fill-opacity:0.17;fill-rule:nonzero;"/>                </g>            </g>        </g>    </g>    <defs>        <linearGradient id="_Linear1" x1="0" y1="0" x2="1" y2="0" gradientUnits="userSpaceOnUse" gradientTransform="matrix(129.13,0,0,129.13,94.6558,231.914)"><stop offset="0" style="stop-color:rgb(47,139,141);stop-opacity:0.77"/><stop offset="0.36" style="stop-color:rgb(62,190,189);stop-opacity:0.77"/><stop offset="0.98" style="stop-color:rgb(18,125,197);stop-opacity:0.77"/><stop offset="0.99" style="stop-color:rgb(18,125,197);stop-opacity:0.77"/><stop offset="1" style="stop-color:rgb(18,125,197);stop-opacity:0.77"/></linearGradient>        <linearGradient id="_Linear3" x1="0" y1="0" x2="1" y2="0" gradientUnits="userSpaceOnUse" gradientTransform="matrix(105.421,0,0,105.421,72.8984,248.354)"><stop offset="0" style="stop-color:rgb(47,139,141);stop-opacity:0.25"/><stop offset="0.52" style="stop-color:rgb(166,223,184);stop-opacity:0.25"/><stop offset="0.98" style="stop-color:rgb(18,125,197);stop-opacity:0.25"/><stop offset="0.99" style="stop-color:rgb(18,125,197);stop-opacity:0.25"/><stop offset="1" style="stop-color:rgb(18,125,197);stop-opacity:0.25"/></linearGradient>        <linearGradient id="_Linear5" x1="0" y1="0" x2="1" y2="-0.0298332" gradientUnits="userSpaceOnUse" gradientTransform="matrix(61.0009,19.8204,-19.8204,61.0009,109.545,187.506)"><stop offset="0" style="stop-color:rgb(12,16,41);stop-opacity:0.72"/><stop offset="0.38" style="stop-color:rgb(12,16,41);stop-opacity:0.72"/><stop offset="0.58" style="stop-color:rgb(12,16,41);stop-opacity:0.72"/><stop offset="0.98" style="stop-color:rgb(19,123,201);stop-opacity:0.72"/><stop offset="0.99" style="stop-color:rgb(19,123,201);stop-opacity:0.72"/><stop offset="1" style="stop-color:rgb(19,123,201);stop-opacity:0.72"/></linearGradient>    </defs></svg>