<?xml version="1.0" encoding="UTF-8" standalone="no"?><!DOCTYPE svg PUBLIC "-//W3C//DTD SVG 1.1//EN" "http://www.w3.org/Graphics/SVG/1.1/DTD/svg11.dtd"><svg width="100%" height="100%" viewBox="0 0 512 512" version="1.1" xmlns="http://www.w3.org/2000/svg" xmlns:xlink="http://www.w3.org/1999/xlink" xml:space="preserve" style="fill-rule:evenodd;clip-rule:evenodd;stroke-linejoin:round;stroke-miterlimit:2;"><title>UKCFA</title><desc>The UK is a world leader in the creation of new forms of crowdfunding from simple donations and rewards based schemes to fully regulated investments in the businesses and projects that shape our world.The UKCFA represents this diverse and vibrant industry and gives our members a collective voice across government, media, regulators, and most importantly, to the general public. Our members provide the platforms necessary to bring investors and fundraisers together across many industries, providing choice in this ever expanding marketplace.</desc>    <g transform="matrix(0.514113,0,0,0.514113,-18.5363,-2.5959)">        <g id="layer101">            <path d="M152,988.4c-26.3,-2.9 -42.4,-7.1 -58.5,-15.2c-23.4,-11.7 -39.2,-29.5 -46.5,-52.1c-5.7,-17.9 -5.4,-10.7 -5.7,-135.3l-0.3,-114.7l2.2,-0.6c1.3,-0.3 20.8,-0.4 43.3,-0.3l41,0.3l0.5,108.5c0.5,98.5 0.7,109 2.3,114.3c5.6,19.1 16.8,26.9 40.2,28.3c22.4,1.3 37.6,-4.8 43.6,-17.5c4.6,-9.8 4.9,-16.6 4.9,-127.7c0,-79.5 0.3,-104.3 1.2,-105.2c1.9,-1.9 83.1,-1.7 84.7,0.2c0.9,1.1 1.1,29.6 0.8,114.8c-0.4,122.2 -0.2,118.7 -5.7,134.8c-12.2,36.2 -41.9,57.7 -90.5,65.6c-8.5,1.4 -49.7,2.7 -57.5,1.8Z" style="fill:rgb(1,1,1);fill-rule:nonzero;"/>            <path d="M679.5,988c-43.7,-4.3 -72.8,-25.3 -85.2,-61.5c-5,-14.6 -5.3,-20.3 -5.3,-99c0,-73.3 0.4,-83.7 3.7,-96c7.3,-27.2 29.3,-50.2 56.8,-59.3c14.3,-4.8 33.3,-7.2 56.2,-7.2c48.2,0 76.7,12 94.7,39.7c6.1,9.5 10.9,21.4 14.4,36.3c4.1,17.3 4.3,18.6 2.8,19.9c-0.7,0.6 -8.2,1.8 -16.7,2.6c-8.5,0.8 -20.3,1.9 -26.4,2.5c-6,0.5 -17.3,1.6 -25,2.4c-10.7,1.1 -14.3,1.2 -15.2,0.3c-0.7,-0.7 -1.9,-4.6 -2.8,-8.7c-2.1,-10.3 -6.9,-19.6 -12.3,-23.7c-11.8,-8.9 -28.9,-7.7 -37.3,2.7c-5.9,7.3 -6,8.8 -5.7,86.2c0.3,69.7 0.3,70.3 2.5,76.1c6.2,16.3 21.4,23.8 45.3,22.4c11.9,-0.7 27.4,-3.8 36.6,-7.3c16.4,-6.1 38.7,-18.9 51.5,-29.5c3.2,-2.7 6.1,-4.9 6.4,-4.9c0.9,0 0.5,71.1 -0.4,72.9c-1.5,2.7 -14.7,11.5 -25.1,16.7c-12.1,6 -29.7,11.8 -44,14.5c-9.4,1.7 -16.1,2.2 -36.5,2.4c-13.7,0.2 -28.6,0 -33,-0.5Z" style="fill:rgb(1,1,1);fill-rule:nonzero;"/>            <path d="M315.8,981.9c-1.7,-0.9 -1.8,-9.4 -1.8,-155.3c0,-129.2 0.2,-154.5 1.4,-155.5c0.9,-0.8 13.1,-1 43.2,-0.9l41.9,0.3l0,65.7c0,50 0.3,65.4 1.2,64.5c1,-1.1 17.5,-24.6 43.3,-61.7c4.8,-6.9 17.1,-24.6 27.5,-39.5c10.3,-14.8 19.4,-27.6 20.3,-28.2c2.2,-1.8 93.2,-1.9 93.2,-0.1c0,0.6 -0.9,2.1 -1.9,3.2c-1.6,1.8 -22.2,29.3 -95,127.4c-6.5,8.8 -11.1,15.8 -10.8,16.6c0.3,0.8 12.1,18.2 26.3,38.8c14.1,20.5 36.9,53.7 50.7,73.8c13.7,20.1 27.2,39.6 29.9,43.3c2.7,3.7 4.6,7.2 4.3,7.8c-1,1.5 -93.7,1.2 -95.7,-0.3c-0.9,-0.7 -19.4,-29 -41,-62.8c-46.3,-72.3 -51.9,-81 -52.1,-81c-0.1,0 -0.1,32.1 0.1,71.2c0.2,66.2 0.1,71.4 -1.5,72.6c-2.2,1.6 -80.8,1.7 -83.5,0.1Z" style="fill:rgb(1,1,1);fill-rule:nonzero;"/>            <path d="M829.1,981.6c-0.8,-1 -1,-42.6 -0.9,-156.2l0.3,-154.9l98.4,-0.3c63.5,-0.1 98.8,0.1 99.5,0.8c1.2,1.2 1.1,61.9 -0.1,63.1c-0.5,0.5 -25.8,1 -56.3,1.1l-55.5,0.3l-0.3,37.4c-0.2,29.3 0.1,37.6 1,38.3c0.7,0.4 23.7,0.8 51.1,0.8c27.4,-0.1 50.2,0.2 50.7,0.5c0.9,0.5 1.6,63 0.8,63.7c-0.2,0.2 -23.5,0.5 -51.8,0.8l-51.5,0.5l-0.3,51.9c-0.2,40.1 -0.5,52.2 -1.5,52.8c-0.6,0.4 -19.5,0.8 -41.8,0.8c-33,0 -40.9,-0.3 -41.8,-1.4Z" style="fill:rgb(1,1,1);fill-rule:nonzero;"/>        </g>        <g>            <path d="M38,624l0,-80c0,-19.041 15.459,-34.5 34.5,-34.5c19.041,0 34.5,15.459 34.5,34.5l0,80l-69,0Z" style="fill:rgb(250,185,47);"/>            <path d="M132,624l0,-154.601c0,-21.801 17.699,-39.5 39.5,-39.5c21.801,0 39.5,17.699 39.5,39.5l0,154.601l-79,0Z" style="fill:rgb(247,170,40);"/>            <path d="M237,624l0,-237.435c0,-22.077 17.923,-40 40,-40c22.077,0 40,17.923 40,40l0,237.435l-80,0Z" style="fill:rgb(206,16,29);"/>            <path d="M353.5,624l0,-331.688c0,-25.388 20.612,-46 46,-46c25.388,0 46,20.612 46,46l0,331.688l-92,0Z" style="fill:rgb(187,24,124);"/>            <path d="M481.703,624l0,-429.709c0,-29.251 23.749,-53 53,-53c29.252,0 53,23.749 53,53l0,429.709l-106,0Z" style="fill:rgb(125,53,139);"/>            <path d="M623.5,624l0,-331.688c0,-25.388 20.612,-46 46,-46c25.388,0 46,20.612 46,46l0,331.688l-92,0Z" style="fill:rgb(0,117,189);"/>            <path d="M752,624l0,-237.435c0,-22.077 17.923,-40 40,-40c22.077,0 40,17.923 40,40l0,237.435l-80,0Z" style="fill:rgb(0,156,220);"/>            <path d="M860,624l0,-154.601c0,-21.801 17.699,-39.5 39.5,-39.5c21.801,0 39.5,17.699 39.5,39.5l0,154.601l-79,0Z" style="fill:rgb(14,149,54);"/>            <path d="M961,624l0,-80c0,-19.041 15.459,-34.5 34.5,-34.5c19.041,0 34.5,15.459 34.5,34.5l0,80l-69,0Z" style="fill:rgb(185,206,0);"/>            <g transform="matrix(1.13833,0,0,1.13833,8.35,38.1189)">                <circle cx="56.354" cy="369.646" r="26.354" style="fill:rgb(250,185,47);"/>            </g>            <g transform="matrix(1.30908,0,0,1.30908,97.7275,-110.106)">                <circle cx="56.354" cy="369.646" r="26.354" style="fill:rgb(247,170,40);"/>            </g>            <g transform="matrix(1.44189,0,0,1.44189,195.743,-254.697)">                <circle cx="56.354" cy="369.646" r="26.354" style="fill:rgb(206,16,29);"/>            </g>            <g transform="matrix(1.63161,0,0,1.63161,307.552,-423.827)">                <circle cx="56.354" cy="369.646" r="26.354" style="fill:rgb(187,24,124);"/>            </g>            <g transform="matrix(1.93517,0,0,1.93517,425.648,-647.035)">                <circle cx="56.354" cy="369.646" r="26.354" style="fill:rgb(125,53,139);"/>            </g>            <g transform="matrix(1.63161,0,0,1.63161,577.552,-423.827)">                <circle cx="56.354" cy="369.646" r="26.354" style="fill:rgb(0,117,189);"/>            </g>            <g transform="matrix(1.44189,0,0,1.44189,710.743,-254.697)">                <circle cx="56.354" cy="369.646" r="26.354" style="fill:rgb(0,156,220);"/>            </g>            <g transform="matrix(1.30908,0,0,1.30908,825.727,-110.106)">                <circle cx="56.354" cy="369.646" r="26.354" style="fill:rgb(14,149,54);"/>            </g>            <g transform="matrix(1.13833,0,0,1.13833,931.35,38.1189)">                <circle cx="56.354" cy="369.646" r="26.354" style="fill:rgb(185,206,0);"/>            </g>        </g>    </g></svg>