<?xml version="1.0" encoding="UTF-8" standalone="no"?><!DOCTYPE svg PUBLIC "-//W3C//DTD SVG 1.1//EN" "http://www.w3.org/Graphics/SVG/1.1/DTD/svg11.dtd"><svg width="100%" height="100%" viewBox="0 0 512 512" version="1.1" xmlns="http://www.w3.org/2000/svg" xmlns:xlink="http://www.w3.org/1999/xlink" xml:space="preserve" style="fill-rule:evenodd;clip-rule:evenodd;stroke-linejoin:round;stroke-miterlimit:2;"><title>KissKissBankBank</title><desc>KissKissBankBank, pioneer of crowdfunding in France, was launched by Adrien Aumont, Ombline le Lasseur and Vincent Ricordeau in September 2009. Their ambition: to allow everyone to finance creative, associative or entrepreneurial projects.</desc>    <g transform="matrix(16.3834,0,0,16.3834,1,14.6228)">        <path d="M31.118,10.948c-0.004,-2.185 -1.778,-3.954 -3.962,-3.95c-1.055,0 -2.012,0.415 -2.72,1.087l-6.76,6.778l6.59,6.57c0.726,0.785 1.762,1.274 2.913,1.27c2.184,0 3.95,-1.773 3.95,-3.96c-0.004,-1.953 -1.42,-3.573 -3.283,-3.894c1.86,-0.327 3.274,-1.95 3.27,-3.903l0.002,0.002Z" style="fill-rule:nonzero;"/>        <path d="M20.276,6.696c-2.14,-2.276 -5.176,-3.696 -8.544,-3.696c-6.48,0 -11.732,5.252 -11.732,11.732c0,6.48 5.252,11.734 11.732,11.734c3.295,0 6.27,-1.36 8.403,-3.547l-8.04,-8.043l8.18,-8.182l0.001,0.002Z" style="fill-rule:nonzero;"/>    </g></svg>