<?xml version="1.0" encoding="UTF-8" standalone="no"?><!DOCTYPE svg PUBLIC "-//W3C//DTD SVG 1.1//EN" "http://www.w3.org/Graphics/SVG/1.1/DTD/svg11.dtd"><svg width="100%" height="100%" viewBox="0 0 512 512" version="1.1" xmlns="http://www.w3.org/2000/svg" xmlns:xlink="http://www.w3.org/1999/xlink" xml:space="preserve" style="fill-rule:evenodd;clip-rule:evenodd;stroke-linejoin:round;stroke-miterlimit:2;"><title>finGOOD</title><desc>We are a Czech intermediary of P2P loans. We connect applicants who are looking for a favorable loan with investors who can provide them with money. We make it possible to obtain a loan or increase the value of your money without the participation of banks or credit companies and thus achieve more favorable conditions. We believe that investments and loans are among the people.</desc>    <g id="Fingood" transform="matrix(12.2596,0,0,12.2596,-115.841,8.83846)">        <g id="Path" transform="matrix(1,0,0,1,-0.569412,0)">            <path d="M12.033,27.111c-0.333,0 -0.466,0.168 -0.633,0.572l-0.9,1.951c-0.3,0.605 -0.4,0.908 -0.4,1.211c0,0.47 0.267,0.941 2.4,1.984c4.267,2.086 10.367,4.003 18.4,4.003c8.033,0 14.133,-1.951 18.4,-4.003c2.133,-1.043 2.4,-1.514 2.4,-1.984c0,-0.303 -0.1,-0.606 -0.4,-1.211l-0.9,-1.951c-0.167,-0.404 -0.3,-0.572 -0.633,-0.572c-0.3,0 -1.1,0.639 -3.8,1.514c-3.334,1.076 -8.134,2.119 -15.067,2.119c-6.933,0 -11.733,-1.043 -15.067,-2.119c-2.7,-0.875 -3.5,-1.514 -3.8,-1.514" style="fill:rgb(26,181,115);fill-rule:nonzero;"/>        </g>        <g transform="matrix(0.119412,0,0,0.119412,-10.8068,-9.28762)">            <circle cx="267" cy="164" r="57" style="fill:rgb(67,71,80);"/>        </g>        <g transform="matrix(0.119412,0,0,0.119412,7.70206,-9.28762)">            <circle cx="267" cy="164" r="57" style="fill:rgb(67,71,80);"/>        </g>    </g></svg>