<?xml version="1.0" encoding="UTF-8" standalone="no"?><!DOCTYPE svg PUBLIC "-//W3C//DTD SVG 1.1//EN" "http://www.w3.org/Graphics/SVG/1.1/DTD/svg11.dtd"><svg width="100%" height="100%" viewBox="0 0 512 512" version="1.1" xmlns="http://www.w3.org/2000/svg" xmlns:xlink="http://www.w3.org/1999/xlink" xml:space="preserve" style="fill-rule:evenodd;clip-rule:evenodd;stroke-linejoin:round;stroke-miterlimit:2;"><title>Syndicate Room</title><desc>We’re a fintech company made up of data-scientists, investment professionals, software developers and marketers with one mission: to be an early investor in every British startup success story.Instead, we apply a data-driven model to portfolio construction; a repeatable process designed to maximise returns and minimise risk for fund investors. As such, we build startup portfolios that don’t attempt to predict the future; they work to stack the odds in investors’ favour.</desc>    <g transform="matrix(8.5,0,0,8.5,-3305.52,-2419.6)">        <g transform="matrix(1,0,0,1,389.002,284.777)">            <circle cx="30" cy="30" r="30" style="fill:rgb(255,193,23);"/>        </g>        <g transform="matrix(1,0,0,1,389.002,284.777)">            <path d="M43.4,20.1l-6.2,0c1,0.7 1,2.2 1,2.2l0,0.8c0,1 0.3,1.8 1,2.4c0.7,0.7 1.5,1 2.4,1c1,0 1.8,-0.3 2.4,-1c0.7,-0.7 1,-1.5 1,-2.4c0,-1.3 -0.5,-2.2 -1.6,-3Z" style="fill:rgb(76,161,197);fill-rule:nonzero;"/>        </g>        <g transform="matrix(1,0,0,1,389.002,284.777)">            <path d="M36.3,20.1l-8.4,0c0.7,0.5 1.1,1.4 1.1,2.5l0,6.2l2,0.9c2.9,1.5 4.3,3.5 4.3,6c0,1.7 -0.4,3 -1.3,4.1l2.4,0c0,-0.2 -0.1,-0.5 -0.1,-0.8l0,-18.9Z" style="fill:rgb(76,161,197);fill-rule:nonzero;"/>        </g>        <g transform="matrix(1,0,0,1,389.002,284.777)">            <path d="M29,39c0,0.1 0,0.1 0,0Z" style="fill:rgb(76,161,197);fill-rule:nonzero;"/>        </g>        <g transform="matrix(1,0,0,1,389.002,284.777)">            <path d="M31,29.8l-2,-0.9l0,10.1c0,0.3 0,0.5 -0.1,0.8l5,0c0.9,-1.1 1.3,-2.5 1.3,-4.1c0.1,-2.4 -1.3,-4.4 -4.2,-5.9Z" style="fill:rgb(86,72,156);fill-rule:nonzero;"/>        </g>        <g transform="matrix(1,0,0,1,389.002,284.777)">            <path d="M24.2,26.6c-1.1,-0.5 -1.9,-1.1 -2.6,-1.6c-0.7,-0.5 -1.1,-1.3 -1.1,-2.3c0,-0.8 0.4,-1.6 1.3,-2.3c0.1,-0.1 0.2,-0.1 0.3,-0.2l-3.3,0c-0.3,0.2 -0.7,0.4 -0.9,0.6c-1.9,1.2 -2.9,2.9 -2.9,5.2c0,1.4 0.4,2.5 1.2,3.6c0.8,1.1 2.1,2 3.6,2.7l6.4,2.9c1.8,0.9 2.7,2.2 2.7,3.9l0,-10.3l-4.7,-2.2Z" style="fill:rgb(254,96,89);fill-rule:nonzero;"/>        </g>        <g transform="matrix(1,0,0,1,389.002,284.777)">            <path d="M21.8,37.7l0,-0.8c0,-1 -0.3,-1.8 -1,-2.4c-0.7,-0.6 -1.5,-1 -2.4,-1c-1,0 -1.8,0.3 -2.4,1c-0.7,0.7 -1,1.5 -1,2.4c0,1.3 0.5,2.3 1.6,3l6.2,0c-1,-0.7 -1,-2.2 -1,-2.2Z" style="fill:rgb(254,96,89);fill-rule:nonzero;"/>        </g>    </g></svg>