<?xml version="1.0" encoding="UTF-8" standalone="no"?><!DOCTYPE svg PUBLIC "-//W3C//DTD SVG 1.1//EN" "http://www.w3.org/Graphics/SVG/1.1/DTD/svg11.dtd"><svg width="100%" height="100%" viewBox="0 0 512 512" version="1.1" xmlns="http://www.w3.org/2000/svg" xmlns:xlink="http://www.w3.org/1999/xlink" xml:space="preserve" style="fill-rule:evenodd;clip-rule:evenodd;stroke-linejoin:round;stroke-miterlimit:2;"><title>ILPA</title><desc>The Innovative Lending Platform Association (ILPA) is a leading trade organization representing a diverse group of online lending and service companies serving small businesses.</desc>    <g transform="matrix(2.35211,0,0,2.36409,-1330.29,-149.906)">        <path d="M720.837,214.2c13.349,-46.489 -6.013,-97.875 -49.774,-123.141c-14.97,-8.643 -31.16,-13.284 -47.328,-14.257c31.85,-17.158 71.599,-17.918 105.203,1.483c32.742,18.904 51.826,52.432 53.767,87.591l-4.251,6.412l-0.201,0.301c-13.463,19.997 -34.205,35.038 -57.416,41.611Z" style="fill:rgb(0,81,255);"/>        <path d="M614.383,189.189c33.512,35.587 88.278,44.904 132.432,19.411c14.97,-8.643 27.085,-20.343 36.011,-33.858c-1.065,36.161 -20.282,70.965 -53.885,90.366c-33.28,19.214 -72.588,18.654 -104.28,1.974l-3.033,-6.094l-0.16,-0.325c-10.731,-21.948 -13.306,-47.848 -7.085,-71.474Z" style="fill:rgb(107,43,121);"/>        <path d="M615.069,81.275l8.727,0.54l0.362,0.024c23.941,1.653 47.237,12.01 64.513,28.693c-47.397,11.358 -82.671,54.042 -82.671,104.9c0,17.286 4.075,33.628 11.317,48.116c-30.784,-19.004 -51.317,-53.048 -51.317,-91.85c0,-37.85 19.538,-71.172 49.069,-90.423Z" style="fill:rgb(129,176,18);"/>    </g></svg>