<?xml version="1.0" encoding="UTF-8" standalone="no"?><!DOCTYPE svg PUBLIC "-//W3C//DTD SVG 1.1//EN" "http://www.w3.org/Graphics/SVG/1.1/DTD/svg11.dtd"><svg width="100%" height="100%" viewBox="0 0 512 512" version="1.1" xmlns="http://www.w3.org/2000/svg" xmlns:xlink="http://www.w3.org/1999/xlink" xml:space="preserve" style="fill-rule:evenodd;clip-rule:evenodd;stroke-linejoin:round;stroke-miterlimit:2;"><title>QuidCycle</title><desc>QuidCycle is a division of Signia Money Limited, a financial services company which champions the cause of British families by relentlessly seeking to meet their financial needs using complete financial solutions....simply!</desc>    <g transform="matrix(11.3333,0,0,11.3408,2981.67,-6811.8)">        <path d="M-218.2,640l-4.7,-4.7c-0.2,-0.2 -0.4,-0.2 -0.6,-0.1c-0.2,0.1 -0.4,0.3 -0.4,0.5l0,1.9l-19,0l0,0.4c-8,0 -15.9,-7.3 -15.9,-16.2c0,-8.9 7.4,-16.2 16.3,-16.2c8.9,0 16.3,7.3 16.3,16.2c0,3.7 -1.2,7.1 -3.4,10c-0.8,1 -0.6,2.5 0.4,3.3c1,0.8 2.5,0.6 3.3,-0.4c2.9,-3.7 4.5,-8.2 4.5,-12.9c0,-11.5 -9.3,-20.8 -20.8,-20.8c-11.5,0 -20.8,9.3 -20.8,20.8c0,11.5 9.2,20.8 20.7,20.8l18.6,0l0,2.3c0,0.2 0.2,0.4 0.4,0.5c0.2,0.1 0.5,0 0.6,-0.1l4.7,-4.7c0,-0.1 0,-0.5 -0.2,-0.6Z" style="fill:rgb(214,73,51);fill-rule:nonzero;"/>    </g></svg>