<?xml version="1.0" encoding="UTF-8" standalone="no"?><!DOCTYPE svg PUBLIC "-//W3C//DTD SVG 1.1//EN" "http://www.w3.org/Graphics/SVG/1.1/DTD/svg11.dtd"><svg width="100%" height="100%" viewBox="0 0 512 512" version="1.1" xmlns="http://www.w3.org/2000/svg" xmlns:xlink="http://www.w3.org/1999/xlink" xml:space="preserve" style="fill-rule:evenodd;clip-rule:evenodd;stroke-linejoin:round;stroke-miterlimit:2;"><title>Toborrow</title><desc>Four out of five new jobs in Sweden are created by small companies. But for companies to grow, financing is sometimes required, and this is a major challenge for many. Toborrow is a digital platform for investors and borrowers - people who would otherwise never have met, but who need each other to grow. As an alternative to the banks, we offer a simple, secure and flexible loan process where everything happens completely without traditional intermediaries. Toborrow is registered with Finansinspektionen and is owned by NFT Ventures and Marginalen Bank.</desc>    <g transform="matrix(3.32406,0,0,3.32406,52.8654,-593.473)">        <g transform="matrix(1.75932,0,0,1.75932,2,178.108)">            <path d="M53.009,87.624c-10.399,-2.588 -19.411,-4.853 -23.709,-14.003c-3.373,-7.117 -3.235,-16.915 -2.957,-36.372c0.138,-9.612 0.323,-21.536 0.092,-36.648l13.865,-0.185c0.184,15.251 0.046,27.313 -0.093,37.018c-0.231,16.222 -0.37,26.066 1.618,30.271c1.201,2.588 4.067,3.836 14.557,6.47l-3.373,13.449Z" style="fill:rgb(128,199,146);fill-rule:nonzero;"/>        </g>        <g transform="matrix(1.75932,0,0,1.75932,2,178.108)">            <rect x="0" y="27.221" width="67.197" height="13.865" style="fill:rgb(137,206,182);fill-rule:nonzero;"/>        </g>    </g></svg>