<?xml version="1.0" encoding="UTF-8" standalone="no"?><!DOCTYPE svg PUBLIC "-//W3C//DTD SVG 1.1//EN" "http://www.w3.org/Graphics/SVG/1.1/DTD/svg11.dtd"><svg width="100%" height="100%" viewBox="0 0 512 512" version="1.1" xmlns="http://www.w3.org/2000/svg" xmlns:xlink="http://www.w3.org/1999/xlink" xml:space="preserve" style="fill-rule:evenodd;clip-rule:evenodd;stroke-linejoin:round;stroke-miterlimit:2;"><title>GIROMATCH</title><desc>We are your digital loan platformSince 2016 we have been offering our customers simple and suitable solutions for everything related to credit and money. Whether personal loan, online loan or credit without Schufa: with our digital loan application you have various options to get your desired loan.</desc>    <g transform="matrix(4.45638,0,0,4.45638,-390.954,-819.081)">        <path d="M147.979,190.313l0.681,101.438c0,3.707 -3.009,6.716 -6.716,6.716l-47.275,0c-3.707,0 -6.716,-3.009 -6.716,-6.716l0,-47.275c0,-3.707 3.009,-6.716 6.716,-6.716l41.318,0l0,6.289l-41.745,0l0,48.129l48.129,0l-0.681,-101.439c0,-3.706 3.009,-6.715 6.715,-6.715l47.276,0c3.706,0 6.715,3.009 6.715,6.715l0,47.276c0,3.706 -3.009,6.715 -6.715,6.715l-41.376,0l0,-6.289l41.802,0l0,-48.128l-48.128,0Z" style="fill:rgb(13,47,75);"/>    </g></svg>