<?xml version="1.0" encoding="UTF-8" standalone="no"?><!DOCTYPE svg PUBLIC "-//W3C//DTD SVG 1.1//EN" "http://www.w3.org/Graphics/SVG/1.1/DTD/svg11.dtd"><svg width="100%" height="100%" viewBox="0 0 512 512" version="1.1" xmlns="http://www.w3.org/2000/svg" xmlns:xlink="http://www.w3.org/1999/xlink" xml:space="preserve" style="fill-rule:evenodd;clip-rule:evenodd;stroke-linejoin:round;stroke-miterlimit:2;"><title>Rontgen</title><desc>Röntgen is a crowdinvesting platform where retail investors can invest in premium real estate projects that before were accessible only to a narrow circle of high net worth individuals.</desc>    <g id="_0300a3b1-b6d7-4de9-9b6c-cb0dba5923eb" transform="matrix(4.64019,0,0,4.63771,-41.0377,-40.749)">        <path d="M107.32,53.21c5.66,-8.85 8.14,-22.31 6.74,-27.35c-2.64,-9.46 -11.11,-14.14 -21.66,-16.13c-8.53,-1.62 -26.44,-0.5 -37.58,3c-4.179,1.099 -7.752,3.822 -9.92,7.56c-0.64,1.53 1.3,2.31 1.75,1.39c0.642,-1.647 1.791,-3.048 3.28,-4c3.899,-1.882 8.107,-3.041 12.42,-3.42c7.071,-0.134 14.129,0.645 21,2.32c10.75,2.49 19.31,7.73 22.31,18.76c0.93,5.243 -0.226,10.647 -3.22,15.05c-4.264,5.856 -9.716,10.746 -16,14.35c-3.011,1.793 -6.326,3.017 -9.78,3.61c-2.17,0.11 0.61,-7.8 -5.33,-7.68c-5.94,0.12 -9,4.41 -11.75,8.41c-2.54,3.7 3,7.46 3.56,8.51c0.56,1.05 0,9.39 -1,15.17c-1.2,6.407 -2.848,12.723 -4.93,18.9c-0.326,0.669 -0.496,1.404 -0.496,2.148c0,2.303 1.624,4.311 3.876,4.792c4.07,1.35 10.58,-1.17 13.57,-4.7c1.34,-1.58 1.8,-5.4 0.29,-4.74c-3.66,1.61 -4.69,1.5 -5,0.28c-3,-11.58 5.82,-36.56 11.55,-37c5.73,-0.44 19.88,-9.15 26.32,-19.23Zm-45.65,1.38c0.28,-1.25 0.59,-5.22 -1.63,-2.25c-6.04,7.76 -13.62,16.34 -15.33,18.33c-1.71,1.99 -8.48,8 -10.64,10.79c-0.12,0.15 -9.66,11.23 -10.9,13.19c-2.1,2.45 -4.17,4.94 -6.32,7.34c-2.15,2.4 -4.63,5.8 -2.37,8.65c2.92,3.69 10.69,-0.22 11.83,-2.08c1.14,-1.86 0,-4 -1.1,-3.63c-2.08,0.64 -6.08,3.08 -3.49,-1.58c0.71,-1.28 10.94,-16.35 10.28,-15.15c-0.66,1.2 1.44,-2.19 3.29,-3.54c1.85,-1.35 8.58,-8.52 9,-9c-0.38,0.41 4,-3.61 3.36,-3.11c-0.64,0.5 12.08,-9.55 14,-18l0.02,0.04Z" style="fill:rgb(47,48,56);fill-rule:nonzero;"/>    </g></svg>