<?xml version="1.0" encoding="UTF-8" standalone="no"?><!DOCTYPE svg PUBLIC "-//W3C//DTD SVG 1.1//EN" "http://www.w3.org/Graphics/SVG/1.1/DTD/svg11.dtd"><svg width="100%" height="100%" viewBox="0 0 512 512" version="1.1" xmlns="http://www.w3.org/2000/svg" xmlns:xlink="http://www.w3.org/1999/xlink" xml:space="preserve" style="fill-rule:evenodd;clip-rule:evenodd;stroke-linejoin:round;stroke-miterlimit:2;"><title>GoAff</title><desc>GoAffiliate is a single-stop resource for both publishers and advertisers who are interested in expanding the reach of top-quality affiliate marketing products to a broader and more lucrative audience.</desc>    <g transform="matrix(1.00155,0,0,1.00196,62.1957,-2.00589)">        <g id="XMLID_3_" transform="matrix(2.0539,0,0,2.0539,-2.95091,-3.16169)">            <path d="M93.6,82.2c-10.5,0 -19.1,8.7 -18.9,19.2c0.2,8.7 7.4,15.5 16.1,15.5l43.2,0c9.8,0 18.1,8 18,17.8c-0.2,9.5 -7.9,17.2 -17.5,17.2l-43.1,0c-28.4,0 -52.1,-23.2 -51.7,-51.6c0.4,-29.3 24.4,-53.1 53.9,-53.1l50.7,0c24.4,0 44.2,-19.8 44.2,-44.2l-107.3,0c-43.3,0 -78.4,35.1 -78.4,78.4l0,107.3l107.3,0c43.3,0 78.4,-35.1 78.4,-78.4l0,-28.1l-94.9,0Z" style="fill:rgb(0,174,239);fill-rule:nonzero;"/>        </g>        <g id="XMLID_38_" transform="matrix(2.0539,0,0,2.0539,-2.95091,-3.16169)">            <path d="M32.9,223.4l-8.1,0c-2.3,0 -4.3,1.9 -4.3,4.2c0,2.4 2,4.2 4.5,4.2l4.7,0l0,10.5l-9.6,0c-5.3,0 -8.5,-3.3 -8.5,-8.8l0,-13.8c0,-6.4 2.5,-9.2 8.5,-9.2l11.9,0c2.3,0 4.3,-1.9 4.3,-4.2c0,-2.3 -2,-4.2 -4.3,-4.2l-11.9,0c-11.3,0 -17.3,6.1 -17.3,17.6l0,13.8c0,10.5 6.8,17.3 17.3,17.3l12.9,0c3.1,0 5.5,-2.3 5.5,-5.4l0,-16.6c-0.1,-3 -2.5,-5.4 -5.6,-5.4Z" style="fill:rgb(0,174,239);fill-rule:nonzero;"/>        </g>        <g id="XMLID_41_" transform="matrix(2.0539,0,0,2.0539,-2.95091,-3.16169)">            <path d="M62.5,202.1l-2.9,0c-11.3,0 -17.3,6.1 -17.3,17.6l0,13.8c0,10.5 6.8,17.3 17.3,17.3l2.9,0c10.5,0 17.3,-6.8 17.3,-17.3l0,-13.8c0,-11.5 -5.9,-17.6 -17.3,-17.6Zm-11.3,17.7c0,-6.4 2.5,-9.2 8.4,-9.2l2.9,0c5.9,0 8.5,2.7 8.5,9.2l0,13.8c0,5.5 -3.2,8.8 -8.5,8.8l-2.9,0c-5.3,0 -8.4,-3.3 -8.4,-8.8l0,-13.8Z" style="fill:rgb(0,174,239);fill-rule:nonzero;"/>        </g>        <g id="XMLID_44_" transform="matrix(2.0539,0,0,2.0539,-2.95091,-3.16169)">            <path d="M107.2,207.6c-1,-3.3 -4,-5.5 -7.5,-5.5c-3.5,0 -6.5,2.2 -7.5,5.5l-11.4,37.8c-0.1,0.4 -0.2,0.8 -0.2,1.2c0,2.3 1.7,4.1 4.1,4.2l0.3,0c1.9,0 3.6,-1.3 4.2,-3.1l3.1,-9.8l14.9,0l3.1,9.9c0.6,2 2.5,3.2 4.5,3c2.3,-0.2 4.1,-1.9 4.1,-4.1c0,-0.4 -0.1,-0.8 -0.2,-1.1l-11.5,-38Zm-12.3,21.7l4.9,-16l4.8,16l-9.7,0Z" style="fill:rgb(0,174,239);fill-rule:nonzero;"/>        </g>        <g id="XMLID_45_" transform="matrix(2.0539,0,0,2.0539,-2.95091,-3.16169)">            <path d="M148.8,202.1l-21.3,0c-3.1,0 -5.5,2.4 -5.5,5.4l0,39c0,2.4 1.9,4.3 4.4,4.3c2.5,0 4.4,-1.9 4.4,-4.4l0,-16.5l14.5,0c2.5,0 4.4,-1.9 4.4,-4.3c0,-2.4 -2,-4.3 -4.5,-4.3l-14.4,0l0,-10.6l18.1,0c2.5,0 4.4,-1.8 4.4,-4.3c0,-2.4 -1.9,-4.3 -4.5,-4.3Z" style="fill:rgb(0,174,239);fill-rule:nonzero;"/>        </g>        <g id="XMLID_46_" transform="matrix(2.0539,0,0,2.0539,-2.95091,-3.16169)">            <path d="M184.1,210.7c2.5,0 4.4,-1.8 4.4,-4.3c0,-2.4 -1.9,-4.3 -4.5,-4.3l-21.3,0c-3.1,0 -5.5,2.4 -5.5,5.4l0,39c0,2.4 1.9,4.3 4.4,4.3c2.5,0 4.4,-1.9 4.4,-4.4l0,-16.5l14.5,0c2.5,0 4.4,-1.9 4.4,-4.3c0,-2.4 -2,-4.3 -4.5,-4.3l-14.4,0l0,-10.6l18.1,0Z" style="fill:rgb(0,174,239);fill-rule:nonzero;"/>        </g>    </g></svg>