<?xml version="1.0" encoding="UTF-8" standalone="no"?><!DOCTYPE svg PUBLIC "-//W3C//DTD SVG 1.1//EN" "http://www.w3.org/Graphics/SVG/1.1/DTD/svg11.dtd"><svg width="100%" height="100%" viewBox="0 0 512 512" version="1.1" xmlns="http://www.w3.org/2000/svg" xmlns:xlink="http://www.w3.org/1999/xlink" xml:space="preserve" style="fill-rule:evenodd;clip-rule:evenodd;stroke-linejoin:round;stroke-miterlimit:2;"><title>Oaksmore Portfolios</title><desc>Oaksmore specialise in creating innovative new investment opportunities for its clients by combining our expert industry knowledge with a wealth of experience in fund creation and investment management.</desc>    <g transform="matrix(0.137963,0,0,-0.137963,-152.371,724.735)">        <path d="M2669,4766c15,-18 -11,-46 -37,-39c-18,4 -30,-13 -36,-50c-4,-30 -60,-39 -78,-13c-9,14 -45,15 -85,1c-38,-13 -102,-12 -112,2c-3,5 -14,1 -23,-9c-10,-10 -15,-18 -12,-18c4,0 1,-7 -6,-15c-10,-12 -10,-15 1,-15c10,-1 8,-4 -3,-11c-10,-5 -18,-19 -18,-30c0,-12 -14,-34 -30,-49c-25,-23 -37,-27 -70,-24c-27,2 -40,0 -40,-9c0,-7 -9,-18 -20,-25c-11,-7 -20,-21 -20,-31c0,-11 -4,-23 -10,-26c-15,-9 -12,-25 4,-19c8,3 16,-3 19,-16c6,-25 -1,-52 -12,-45c-5,2 -25,0 -45,-6c-27,-7 -41,-7 -51,1c-9,8 -15,8 -20,0c-3,-5 -12,-10 -18,-10c-8,0 -8,3 1,9c11,6 10,10 -3,15c-15,5 -17,2 -11,-26c3,-18 2,-28 -2,-21c-11,17 -56,-7 -60,-32c-3,-11 -8,-25 -13,-31c-10,-12 -50,-7 -59,7c-3,4 -23,1 -45,-7c-22,-7 -50,-14 -62,-14c-12,0 -25,-5 -28,-10c-5,-8 -11,-8 -20,0c-14,11 -48,3 -40,-10c3,-5 1,-11 -5,-15c-6,-4 -8,-11 -5,-16c4,-5 3,-14 -1,-21c-4,-7 -9,-24 -10,-37c-2,-14 -11,-31 -20,-38c-15,-11 -60,-18 -86,-14c-5,0 -8,-5 -8,-13c0,-7 -6,-19 -14,-25c-19,-16 -25,-65 -9,-80c19,-18 16,-30 -12,-41c-28,-10 -31,-20 -13,-38c8,-8 8,-15 -1,-26c-7,-8 -10,-19 -7,-24c3,-6 -2,-16 -12,-23c-16,-13 -16,-13 -2,5c14,18 14,19 -7,5c-21,-12 -21,-14 -5,-23c16,-9 37,-35 35,-46c0,-3 3,-15 8,-28c5,-14 5,-21 0,-17c-5,3 -12,1 -15,-4c-3,-5 1,-12 10,-15c15,-6 15,-8 0,-24c-20,-23 -21,-39 -1,-22c13,11 15,8 13,-16c-1,-16 -6,-34 -11,-41c-5,-7 -6,-17 -3,-22c4,-6 -6,-17 -21,-25c-15,-8 -24,-15 -20,-16c17,0 -15,-40 -33,-40c-11,0 -20,-5 -20,-11c0,-5 4,-8 9,-4c12,7 23,-28 15,-49c-3,-9 -15,-16 -25,-16c-10,0 -19,-7 -19,-15c0,-9 -7,-18 -15,-21c-20,-8 -19,-24 2,-24c9,0 14,-3 11,-6c-4,-3 -2,-19 2,-35c7,-23 5,-29 -7,-29c-10,0 -13,-6 -9,-17c4,-9 1,-20 -5,-24c-6,-4 -8,-12 -5,-18c11,-16 26,-13 20,4c-5,11 1,15 24,15c19,0 35,7 41,18c13,21 13,17 11,-85c-1,-80 0,-82 57,-58c43,18 66,6 39,-20c-19,-19 -21,-42 -4,-47c10,-4 10,-10 1,-31c-12,-25 -10,-28 17,-42c29,-15 32,-39 6,-57c-8,-6 -6,-11 4,-17c14,-10 11,-12 -58,-36c-7,-3 -11,-1 -8,3c2,4 1,14 -4,22c-8,13 -12,12 -24,-5c-20,-27 -6,-59 28,-62c21,-1 26,2 22,13c-3,8 -2,12 3,9c5,-3 12,-1 16,5c4,6 12,7 18,3c23,-14 35,-11 30,8c-4,13 2,21 22,29c33,13 32,13 39,-5c7,-20 -3,-45 -20,-45c-7,0 -20,-15 -27,-32c-24,-53 -27,-68 -15,-68c6,0 16,-7 22,-16c10,-13 12,-11 11,13c0,21 5,28 18,27c9,-1 17,2 17,6c0,4 9,10 20,13c11,3 20,11 20,17c0,8 -8,10 -22,7c-22,-6 -22,-6 2,13c28,21 67,21 101,-1l22,-15l-22,-31c-19,-26 -21,-34 -11,-53c6,-12 9,-34 5,-48l-7,-27l27,25c22,21 28,22 35,10c8,-13 10,-12 10,2c0,9 5,20 12,24c7,4 8,3 4,-4c-9,-15 6,-16 20,-2c6,6 10,1 12,-15c1,-14 -3,-25 -8,-25c-5,0 -7,-7 -3,-16c5,-13 7,-13 14,-2c7,10 9,9 9,-4c0,-11 6,-15 20,-11c10,3 19,8 18,12c-2,8 11,51 24,77c14,30 55,29 61,-2c2,-13 0,-21 -4,-18c-5,3 -9,-5 -9,-18c0,-17 3,-19 9,-9c6,9 11,10 15,2c4,-6 11,-9 15,-7c4,3 25,6 45,8c35,2 37,4 32,29c-5,25 -3,28 25,27c17,-1 33,-7 35,-15c2,-7 7,-21 11,-30c7,-21 4,-54 -7,-68c-13,-17 -17,-63 -8,-77c7,-10 8,-8 4,5c-3,9 -1,17 5,17c9,0 12,-7 25,-49c6,-19 34,5 34,30c0,11 5,19 10,19c6,0 15,12 20,26c10,25 16,26 67,7c7,-3 16,3 20,13c4,11 20,33 35,49c21,23 24,31 13,33c-8,2 -15,8 -15,12c0,5 -14,17 -31,25c-29,15 -63,71 -53,87c10,16 41,7 52,-14c9,-19 11,-20 11,-5c1,14 15,43 37,76c2,2 15,-6 29,-17c21,-17 31,-19 59,-11c18,5 44,8 57,7c13,-2 23,2 22,7c-1,6 16,10 38,10c21,0 39,-4 40,-10c4,-34 1,-94 -6,-104c-4,-7 -5,-15 -2,-18c10,-9 26,7 43,43c16,34 38,41 40,13c1,-8 2,-18 3,-23c0,-5 12,1 25,13c13,12 26,19 29,14c6,-10 -17,-44 -27,-38c-3,3 -2,-1 4,-7c5,-7 10,-23 10,-37c0,-21 2,-23 10,-11c5,8 10,11 10,5c0,-5 5,-3 10,5c8,11 9,8 4,-12c-3,-15 -3,-32 1,-37c9,-16 46,11 40,29c-3,9 1,7 10,-4c8,-11 18,-35 21,-55c11,-58 -4,-346 -20,-385l-14,-34l-89,-7c-48,-4 -119,-11 -158,-16c-38,-5 -95,-12 -125,-14c-30,-3 -82,-9 -115,-15c-126,-20 -466,-44 -775,-55c-145,-5 -303,-22 -408,-43c-19,-4 813,-7 1848,-7c1035,0 1867,3 1848,7c-123,24 -287,39 -513,48c-302,12 -433,23 -675,52c-96,12 -195,23 -220,25c-104,8 -435,36 -437,37c-16,12 -40,392 -24,382c5,-4 12,3 16,14c4,11 21,39 39,63c18,23 45,66 62,94c41,74 57,66 27,-14c-6,-15 -4,-16 9,-6c8,7 18,9 22,5c4,-4 27,-7 50,-8c23,0 47,-4 54,-8c12,-7 11,31 -1,51c-12,19 11,25 47,12c25,-9 32,-17 28,-31c-2,-10 0,-24 6,-31c11,-13 4,-67 -9,-67c-11,0 -27,-60 -21,-83c4,-17 5,-17 18,0c12,17 13,17 19,1c4,-10 5,-25 2,-33c-7,-17 9,-30 18,-15c4,6 11,8 16,5c5,-4 9,5 9,20c0,14 7,28 15,31c8,4 15,12 15,19c0,27 24,34 59,17c33,-15 35,-15 45,2c17,30 68,76 82,76c8,0 14,-7 14,-16c0,-12 6,-15 23,-11c12,3 43,9 69,12c44,7 88,39 88,66c0,15 47,59 64,59c18,0 15,-42 -5,-66c-13,-15 -12,-16 11,-9c27,8 40,22 40,43c0,21 17,13 44,-23c33,-43 69,-65 64,-39c-2,9 3,19 9,21c9,3 12,-7 10,-34c-2,-31 1,-37 16,-35c9,2 17,-3 17,-9c0,-7 9,-4 21,7c17,14 23,16 26,6c4,-10 9,-8 18,5c12,15 11,22 -2,43c-15,23 -15,24 0,12c14,-12 15,-10 10,22c-6,40 7,47 42,20c22,-16 33,-90 12,-78c-7,4 -3,-2 7,-14c11,-12 16,-22 12,-22c-4,0 0,-7 9,-17c14,-14 18,-14 26,-2c6,10 9,10 9,2c0,-24 25,-13 26,12c1,16 -2,22 -10,18c-6,-4 -20,-9 -31,-10c-15,-2 -17,-1 -6,6c8,5 11,16 8,24c-4,11 -1,14 9,10c19,-7 18,7 -3,24c-10,8 -12,11 -4,7c11,-5 13,-3 8,9c-3,9 -2,19 4,22c5,4 6,11 3,17c-4,6 0,14 7,19c16,10 29,-7 29,-38c0,-13 5,-23 10,-23c6,0 10,-6 10,-14c0,-8 8,-21 18,-28c11,-7 22,-20 25,-28c4,-8 5,10 3,41c-5,63 5,92 26,71c13,-13 29,-16 27,-4c-1,4 -1,9 1,12c7,20 7,61 -1,65c-5,4 -6,17 -3,31c4,16 2,24 -7,24c-13,0 -69,58 -69,72c0,4 11,15 26,24c20,13 32,15 57,7l32,-10l1,81c1,73 -1,78 -14,58c-8,-12 -20,-22 -27,-22c-7,0 -16,-8 -20,-17c-5,-14 -9,-11 -23,17c-9,19 -21,38 -26,42c-6,4 -6,11 0,20c6,7 10,25 9,40c0,15 4,26 10,25c5,-1 10,8 9,21c-1,26 0,27 20,6c9,-8 16,-11 16,-5c0,5 -6,16 -14,24c-12,12 -10,14 15,14c15,0 26,-3 24,-7c-2,-3 5,-14 16,-23c21,-18 27,-9 7,11c-9,9 -9,12 2,12c9,0 7,5 -6,14c-18,13 -17,14 14,12c31,-2 47,17 21,26c-14,5 -3,78 11,78c5,0 17,-11 27,-24c14,-17 21,-20 29,-12c6,6 9,16 7,22c-2,6 9,16 24,23c24,11 29,10 44,-8c22,-26 33,-27 17,-2c-9,15 -9,23 1,35c9,11 10,16 2,16c-6,0 -11,7 -11,15c0,8 -4,15 -10,15c-22,0 -8,16 15,18c14,1 25,-4 25,-11c0,-25 20,19 20,45c0,19 -4,26 -14,22c-8,-3 -16,3 -19,16c-3,13 0,23 9,27c8,3 11,9 8,15c-3,5 -11,4 -19,-2c-20,-16 -30,-7 -33,29c-3,35 12,48 35,29c15,-11 16,-11 10,5c-4,11 1,25 14,38l20,20l-21,19c-16,13 -31,17 -51,13c-17,-3 -35,0 -44,7c-8,7 -26,10 -39,8c-25,-5 -24,-8 -6,67c5,21 -1,35 -15,35c-8,0 -15,7 -15,15c0,8 -5,15 -11,15c-7,0 -9,10 -5,25c4,14 2,25 -4,25c-5,0 -10,-8 -10,-17c0,-13 -3,-14 -11,-6c-16,16 -17,93 -1,93c6,0 -6,18 -28,40c-38,38 -58,52 -45,30c3,-5 -13,-3 -36,5c-23,8 -50,15 -61,15c-17,0 -32,6 -87,37c-9,5 -9,63 0,63c6,0 8,4 5,9c-3,5 -19,8 -35,7c-17,-1 -28,1 -26,5c3,3 -9,20 -25,37c-28,29 -30,30 -46,14c-10,-9 -20,-17 -23,-17c-3,0 -5,-6 -5,-12c1,-7 -2,-10 -7,-7c-5,3 -12,-8 -15,-25c-7,-32 -18,-38 -44,-22c-8,6 -19,7 -25,3c-21,-13 -34,-10 -41,11c-19,68 -39,98 -60,95c-27,-3 -65,28 -57,48c3,8 -1,14 -11,14c-9,0 -16,4 -16,9c0,5 -9,12 -19,16c-11,3 -23,16 -27,28c-3,12 -20,37 -38,56c-17,19 -25,31 -18,27c17,-10 15,9 -3,24c-12,10 -15,10 -15,-4c0,-9 -7,-16 -15,-16c-8,0 -15,-4 -15,-10c0,-16 -37,-12 -54,6c-9,8 -16,29 -16,46c0,25 -3,29 -20,25c-13,-3 -25,2 -34,15c-9,13 -16,16 -21,8c-4,-6 -14,-10 -23,-9c-10,1 -25,-1 -34,-5c-11,-5 -24,-2 -34,9c-9,9 -23,14 -30,11c-9,-3 -14,2 -14,14c0,11 -5,20 -11,20c-5,0 -7,5 -4,10c3,6 2,10 -3,10c-5,0 -12,-9 -15,-20c-5,-20 -27,-28 -27,-10c0,6 -5,10 -11,10c-6,0 -9,-7 -5,-15c6,-16 -14,-21 -30,-6c-20,19 -72,29 -84,18c-10,-9 -11,-9 -6,1c12,21 -12,13 -30,-10c-16,-22 -16,-22 -11,-2c4,20 3,20 -22,9c-66,-32 -89,-25 -93,29c-2,18 -8,26 -22,26c-10,0 -24,6 -30,14c-9,13 -16,12 -48,-4c-36,-17 -39,-17 -60,-1c-13,10 -29,16 -36,13c-7,-2 -22,4 -33,14c-13,12 -19,13 -19,4c0,-8 -8,-4 -19,8c-20,24 -41,31 -22,8Zm56,-86c3,-6 -1,-7 -9,-4c-18,7 -21,14 -7,14c6,0 13,-4 16,-10Zm425,-111c0,-27 -15,-24 -29,8c-10,21 -14,24 -21,13c-6,-10 -8,-6 -6,15c2,17 4,32 5,35c4,12 51,-53 51,-71Zm-779,28c-10,-9 -11,-8 -5,6c3,10 9,15 12,12c3,-3 0,-11 -7,-18Zm1419,-281c0,-3 -4,-8 -10,-11c-5,-3 -10,-1 -10,4c0,6 5,11 10,11c6,0 10,-2 10,-4Zm-2310,-404c0,-5 -7,-17 -15,-28c-14,-18 -14,-17 -4,9c12,27 19,34 19,19Zm732,-989c31,-30 35,-42 13,-39c-17,2 -65,45 -65,58c0,16 25,7 52,-19Zm1392,-22c-2,-2 1,-10 7,-17c13,-16 1,-66 -15,-57c-6,4 -4,-1 4,-11c7,-10 14,-30 14,-44c0,-15 4,-30 10,-34c7,-5 7,-11 -2,-20c-10,-10 -14,-8 -18,10c-4,12 -10,22 -15,22c-13,0 -11,-44 3,-58c8,-8 4,-9 -18,-3c-16,4 -35,18 -41,32c-7,13 -13,20 -13,15c0,-5 -7,-3 -15,4c-11,9 -13,16 -6,23c7,7 15,6 24,-2c12,-9 16,-7 20,9c3,11 1,23 -4,26c-5,3 -9,10 -9,15c0,6 5,7 11,3c8,-5 10,1 6,18c-5,17 -2,30 9,38c8,7 13,18 11,24c-3,6 6,11 18,11c13,0 21,-2 19,-4Zm30,-77c3,-8 2,-12 -4,-9c-6,3 -10,10 -10,16c0,14 7,11 14,-7Zm36,2c0,-3 -4,-8 -10,-11c-5,-3 -10,-1 -10,4c0,6 5,11 10,11c6,0 10,-2 10,-4Zm-3,-46c1,-11 -4,-20 -11,-20c-22,0 -26,13 -8,26c9,7 17,14 17,14c1,0 1,-9 2,-20Zm-617,-21c0,-24 -23,-21 -28,4c-2,10 3,17 12,17c10,0 16,-9 16,-21Zm-100,-74c0,-8 -7,-15 -15,-15c-16,0 -20,12 -8,23c11,12 23,8 23,-8Z" style="fill:rgb(109,130,29);fill-rule:nonzero;"/>    </g></svg>