<?xml version="1.0" encoding="UTF-8" standalone="no"?><!DOCTYPE svg PUBLIC "-//W3C//DTD SVG 1.1//EN" "http://www.w3.org/Graphics/SVG/1.1/DTD/svg11.dtd"><svg width="100%" height="100%" viewBox="0 0 512 512" version="1.1" xmlns="http://www.w3.org/2000/svg" xmlns:xlink="http://www.w3.org/1999/xlink" xml:space="preserve" style="fill-rule:evenodd;clip-rule:evenodd;stroke-linejoin:round;stroke-miterlimit:2;"><title>Excelend</title><desc>Crowdlending platform. Where borrowers and investors are in search of a common benefit.</desc>    <g transform="matrix(2.87524,0,0,2.88214,-564.964,-1020.39)">        <g transform="matrix(370.649,0,0,347.996,195.723,531.337)">            <path d="M0.313,-0.234l0.141,0.234l-0.127,0l-0.083,-0.143l0.069,-0.091Z" style="fill:rgb(26,42,74);"/>        </g>        <g transform="matrix(370.649,0,0,347.996,195.723,531.337)">            <path d="M0.254,-0.322l-0.077,0.077l-0.16,-0.262l0.122,0l0.115,0.185Z" style="fill:rgb(26,42,74);"/>        </g>        <path d="M238,531.337l-34.182,-70.689l12.649,-12.648l21.533,20l23.327,-21.903l28.504,-26.764l69.169,-64.948l10,11.615l-62.385,78.738l-25.358,32.004l-43.257,54.595Z" style="fill:rgb(233,84,13);"/>    </g></svg>