<?xml version="1.0" encoding="UTF-8" standalone="no"?><!DOCTYPE svg PUBLIC "-//W3C//DTD SVG 1.1//EN" "http://www.w3.org/Graphics/SVG/1.1/DTD/svg11.dtd"><svg width="100%" height="100%" viewBox="0 0 512 512" version="1.1" xmlns="http://www.w3.org/2000/svg" xmlns:xlink="http://www.w3.org/1999/xlink" xml:space="preserve" style="fill-rule:evenodd;clip-rule:evenodd;stroke-linejoin:round;stroke-miterlimit:2;"><title>LeihDeinerUmweltGeld</title><desc>The company offers citizens the opportunity to invest with maximum transparency, social added value and attractive interest rates with the globally unique online platforms</desc>    <g transform="matrix(1.41013,0,0,1.41013,-203.881,129.983)">        <path d="M506.96,178.728c0,0 -23.83,-13.248 -61.545,-25.372c-0.838,-8.416 -1.549,-16.96 -2.225,-25.541c1.789,0.594 3.702,0.933 5.7,0.933c9.682,0 17.536,-7.581 17.536,-16.933c0,-1.522 -0.228,-2.989 -0.617,-4.393c3.544,-3.099 5.784,-7.563 5.784,-12.545c0,-9.353 -7.854,-16.931 -17.536,-16.931c-2.472,0 -4.82,0.499 -6.952,1.389c-2.288,-6.785 -8.88,-11.689 -16.668,-11.689c-9.689,0 -17.536,7.579 -17.536,16.937c0,4.621 1.921,8.807 5.028,11.863c-6.015,2.685 -10.199,8.547 -10.199,15.368c0,9.352 7.854,16.933 17.536,16.933c3.148,0 6.095,-0.811 8.647,-2.212c-0.602,7.555 -1.735,15.597 -2.241,23.068l-28.862,-7.602c-1.986,-0.424 -3.995,-0.837 -6.027,-1.23c0,0 -6.528,-1.05 -14.368,-2.251c-1.224,-12.768 -2.201,-25.786 -3.195,-38.788c1.615,-2.832 5.509,-3.37 5.789,-7.533c8.533,1.926 17.733,-0.384 23.753,-2.896c-4.891,-3.878 -14.765,-5.595 -23.173,-4.052c-3.2,-2.211 -4.996,-5.815 -10.425,-5.793c-1.319,-9.693 -6.315,-15.713 -12.168,-20.857c-0.417,10.27 1.717,17.979 6.372,23.176c-2.115,1.943 -4.822,6.358 -2.896,10.422c-6.364,5.229 -12.479,10.698 -15.061,19.697c9.09,-1.523 15.141,-9.182 19.693,-13.324c1.625,10.547 -1.049,25.03 -2.028,37.966c-5.876,-0.835 -10.842,-1.47 -12.565,-1.503c-2.808,-0.474 -15.013,-0.699 -26.397,-0.806c-2.097,-21.627 -3.756,-43.69 -5.437,-65.725c2.684,-4.715 9.173,-5.618 9.651,-12.54c14.215,3.204 29.533,-0.644 39.56,-4.827c-8.146,-6.465 -24.59,-9.322 -38.601,-6.752c-5.33,-3.678 -8.321,-9.688 -17.369,-9.653c-2.195,-16.136 -10.509,-26.157 -20.27,-34.732c-0.687,17.103 2.869,29.939 10.622,38.595c-3.521,3.244 -8.045,10.59 -4.822,17.37c-10.603,8.694 -20.784,17.812 -25.084,32.806c15.137,-2.546 25.22,-15.3 32.802,-22.197c2.897,18.776 -2.4,45.025 -3.678,67.629c-1.705,0.093 -3.405,0.188 -5.103,0.308l-40.266,5.015c-0.898,0.161 -1.786,0.329 -2.677,0.495c4.106,-14.454 -2.962,-30.089 -17.09,-36.31c-15.452,-6.808 -33.508,0.208 -40.314,15.668c-5.156,11.71 -2.368,24.916 6.012,33.585c-38.423,12.232 -62.758,25.766 -62.758,25.766c0,0 80.962,-20.392 180.836,-20.392c99.871,-0.002 180.832,20.39 180.832,20.39Z" style="fill:rgb(0,61,42);fill-rule:nonzero;"/>        <path d="M271.556,117.432l15.864,-7.816c2.766,-1.364 3.902,-4.71 2.543,-7.472c-1.365,-2.763 -4.71,-3.899 -7.472,-2.535l-15.868,7.819c-2.769,1.357 -3.901,4.705 -2.539,7.464c1.361,2.768 4.702,3.903 7.472,2.54Z" style="fill:rgb(0,61,42);fill-rule:nonzero;"/>        <path d="M170.629,144.511l17.584,-1.914c3.066,-0.336 5.274,-3.094 4.944,-6.157c-0.335,-3.06 -3.091,-5.272 -6.152,-4.943l-17.584,1.925c-3.064,0.333 -5.276,3.09 -4.939,6.149c0.331,3.064 3.083,5.279 6.147,4.94Z" style="fill:rgb(0,61,42);fill-rule:nonzero;"/>        <path d="M176.208,103.077l14.704,9.833c2.564,1.712 6.032,1.023 7.736,-1.536c1.72,-2.566 1.031,-6.028 -1.531,-7.744l-14.704,-9.827c-2.565,-1.718 -6.032,-1.026 -7.739,1.534c-1.714,2.561 -1.024,6.025 1.534,7.74Z" style="fill:rgb(0,61,42);fill-rule:nonzero;"/>        <path d="M210.813,91.962c0.861,2.959 3.958,4.66 6.916,3.798c2.954,-0.857 4.658,-3.958 3.797,-6.915l-4.944,-16.986c-0.863,-2.955 -3.954,-4.657 -6.917,-3.793c-2.961,0.861 -4.656,3.951 -3.799,6.912l4.947,16.984Z" style="fill:rgb(0,61,42);fill-rule:nonzero;"/>        <path d="M244.808,97.75c2.819,1.245 6.113,-0.035 7.355,-2.855l7.131,-16.186c1.242,-2.819 -0.044,-6.111 -2.859,-7.354c-2.819,-1.243 -6.112,0.033 -7.354,2.851l-7.129,16.197c-1.244,2.817 0.037,6.114 2.856,7.347Z" style="fill:rgb(0,61,42);fill-rule:nonzero;"/>    </g></svg>