<?xml version="1.0" encoding="UTF-8" standalone="no"?><!DOCTYPE svg PUBLIC "-//W3C//DTD SVG 1.1//EN" "http://www.w3.org/Graphics/SVG/1.1/DTD/svg11.dtd"><svg width="100%" height="100%" viewBox="0 0 512 512" version="1.1" xmlns="http://www.w3.org/2000/svg" xmlns:xlink="http://www.w3.org/1999/xlink" xml:space="preserve" style="fill-rule:evenodd;clip-rule:evenodd;stroke-linejoin:round;stroke-miterlimit:2;"><title>Lend</title><desc>LEND is a brand and platform operated by Switzerlend AG with its offices based in Zürich. Switzerlend has a lending license and as a financial intermediary is a member of and supervised by SRO PolyReg.</desc>    <g transform="matrix(2.83962,0,0,2.83962,-678.54,-331.236)">        <g transform="matrix(31.6757,0,0,31.6757,-16,117)">            <path d="M13.73,0.011c0,-0.006 -0.005,-0.011 -0.011,-0.011l-5.648,0c-0.006,0 -0.011,0.005 -0.011,0.011l0,5.648c0,0.006 0.005,0.011 0.011,0.011l5.648,0c0.006,0 0.011,-0.005 0.011,-0.011l0,-5.648Z" style="fill:rgb(234,91,98);"/>        </g>        <g id="N" transform="matrix(31.6757,0,0,31.6757,-178.813,-17.6218)">            <path d="M16,5.39c-0.216,-0.004 -0.431,0.037 -0.63,0.12c-0.179,0.078 -0.34,0.194 -0.47,0.34c-0.133,0.148 -0.235,0.322 -0.3,0.51c-0.069,0.206 -0.103,0.423 -0.1,0.64l0,2l-0.35,0l0,-2c-0.002,-0.259 0.042,-0.516 0.13,-0.76c0.082,-0.226 0.207,-0.433 0.37,-0.61c0.162,-0.176 0.36,-0.316 0.58,-0.41c0.494,-0.197 1.046,-0.197 1.54,0c0.22,0.094 0.418,0.234 0.58,0.41c0.163,0.177 0.289,0.384 0.37,0.61c0.088,0.244 0.132,0.501 0.13,0.76l0,2l-0.36,0l0,-2c0.003,-0.217 -0.031,-0.434 -0.1,-0.64c-0.062,-0.187 -0.161,-0.361 -0.29,-0.51c-0.13,-0.146 -0.291,-0.262 -0.47,-0.34c-0.199,-0.084 -0.414,-0.125 -0.63,-0.12Z" style="fill:white;fill-rule:nonzero;"/>        </g>    </g></svg>