<?xml version="1.0" encoding="UTF-8" standalone="no"?><!DOCTYPE svg PUBLIC "-//W3C//DTD SVG 1.1//EN" "http://www.w3.org/Graphics/SVG/1.1/DTD/svg11.dtd"><svg width="100%" height="100%" viewBox="0 0 512 512" version="1.1" xmlns="http://www.w3.org/2000/svg" xmlns:xlink="http://www.w3.org/1999/xlink" xml:space="preserve" style="fill-rule:evenodd;clip-rule:evenodd;stroke-linejoin:round;stroke-miterlimit:2;"><title>VIZIA</title><desc>VIZIA is a modern financial services provider, specializing in easy and fast consumer loans for both small and large life situations.VIZIA is operating in a fully online environment.VIZIA webpage offers consumer loans from 50 EUR to 2000 EUR with the term from 4 months to 24 months.VIZIA clients apply for the loan online and receive money in the bank account.</desc>    <g transform="matrix(1,0,0,1,-20.1226,-6.01196)">        <g transform="matrix(6.375,0,0,4.39655,-291.252,-1078.94)">            <rect x="49" y="247" width="80" height="116" style="fill:rgb(74,194,240);"/>        </g>        <g transform="matrix(14.2844,0,0,14.3037,47.1226,28.2786)">            <path d="M32.063,1.1l-6.5,0c-0.854,-0.006 -1.644,0.467 -2.042,1.223l-7.489,14.983l-7.487,-14.906c-0.384,-0.771 -1.184,-1.25 -2.045,-1.224l-6.5,0l14.9,29.66c0.213,0.454 0.671,0.746 1.172,0.746c0.501,0 0.959,-0.292 1.172,-0.746l14.819,-29.736Z" style="fill:white;fill-rule:nonzero;"/>        </g>    </g></svg>