<?xml version="1.0" encoding="UTF-8" standalone="no"?><!DOCTYPE svg PUBLIC "-//W3C//DTD SVG 1.1//EN" "http://www.w3.org/Graphics/SVG/1.1/DTD/svg11.dtd"><svg width="100%" height="100%" viewBox="0 0 512 512" version="1.1" xmlns="http://www.w3.org/2000/svg" xmlns:xlink="http://www.w3.org/1999/xlink" xml:space="preserve" style="fill-rule:evenodd;clip-rule:evenodd;stroke-linejoin:round;stroke-miterlimit:2;"><title>SymCredit</title><desc>Symfonie Capital brings together a multinational team of specialists in finance and investment management. Our team includes professionals with a wealth of knowledge derived from careers that have spanned more than twenty years. Our experience includes working at major international banks in corporate finance, portfolio management and investment analysis, in addition to advising and managing startup and early stage companies.</desc>    <g transform="matrix(3.23534,0,0,3.23534,-8482.59,-493.028)">        <g transform="matrix(4.16667,0,0,4.16667,2696.9,258.501)">            <path d="M0,8.807c-9.018,0 -15.116,-2.145 -15.116,-4.791c0,-2.439 5,-4.453 13.035,-4.753c-8.799,0.079 -15.856,2.349 -15.856,5.14c0,2.838 7.31,5.141 16.328,5.141c5.591,0 10.526,-0.885 13.469,-2.235c-2.976,0.922 -7.189,1.498 -11.86,1.498" style="fill:rgb(173,176,175);fill-rule:nonzero;"/>        </g>        <g transform="matrix(4.16667,0,0,4.16667,2706.95,214.905)">            <path d="M0,10.445c-6.377,-6.377 -9.172,-12.205 -7.301,-14.076c1.725,-1.725 6.684,0.386 12.578,5.856c-6.278,-6.167 -12.873,-9.551 -14.846,-7.578c-2.008,2.007 1.533,8.805 7.91,15.181c3.954,3.954 8.069,6.817 11.104,7.943c-2.756,-1.451 -6.142,-4.023 -9.445,-7.326" style="fill:rgb(173,176,175);fill-rule:nonzero;"/>        </g>        <g transform="matrix(4.16667,0,0,4.16667,2740.03,214.178)">            <path d="M0,6.077c0,-9.018 2.145,-15.116 4.791,-15.116c2.439,0 4.453,5 4.753,13.035c-0.079,-8.799 -2.35,-15.856 -5.14,-15.856c-2.839,0 -5.141,7.31 -5.141,16.328c0,5.591 0.886,10.526 2.235,13.469c-0.922,-2.976 -1.498,-7.189 -1.498,-11.86" style="fill:rgb(173,176,175);fill-rule:nonzero;"/>        </g>    </g></svg>