<?xml version="1.0" encoding="UTF-8" standalone="no"?><!DOCTYPE svg PUBLIC "-//W3C//DTD SVG 1.1//EN" "http://www.w3.org/Graphics/SVG/1.1/DTD/svg11.dtd"><svg width="100%" height="100%" viewBox="0 0 512 512" version="1.1" xmlns="http://www.w3.org/2000/svg" xmlns:xlink="http://www.w3.org/1999/xlink" xml:space="preserve" style="fill-rule:evenodd;clip-rule:evenodd;stroke-linejoin:round;stroke-miterlimit:2;"><title>Grow.ly</title><desc>Grow.ly is a Spanish crowdlending platform registered with CNMV, where a number of people lend directly to SMEs financing their growth projects, supporting the heart of the economy and collaborating with their development. In Grow.ly a single loan is financed by a multitude of investors and a single investor can finance a multitude of companies deciding which companies to lend, what amount and at what interest rate.</desc>    <g transform="matrix(1.34801,0,0,1.34801,-1386.66,-151.947)">        <g transform="matrix(8.33333,0,0,8.33333,-2530.13,-2879)">            <path d="M464.213,370.123c-0.064,-0.284 -0.314,-0.486 -0.607,-0.486l-0.007,0l-6.683,0.082l3.575,-5.871c0.145,-0.242 0.111,-0.552 -0.088,-0.756c-0.903,-0.924 -1.882,-1.709 -2.909,-2.332c-1.026,-0.622 -2.16,-1.123 -3.372,-1.49c-0.274,-0.082 -0.564,0.031 -0.713,0.272l-3.578,5.88l-3.02,-5.986c-0.13,-0.26 -0.426,-0.395 -0.714,-0.32c-2.191,0.579 -4.241,1.658 -5.923,3.122c-0.219,0.192 -0.277,0.506 -0.141,0.76l3.536,6.63l-7.437,-0.173c-0.282,-0.009 -0.552,0.193 -0.619,0.478c-0.51,2.155 -0.521,4.444 -0.027,6.621c0.064,0.284 0.283,0.515 0.612,0.481l6.711,-0.081l-3.579,5.878c-0.148,0.243 -0.112,0.554 0.088,0.757c0.892,0.907 1.86,1.677 2.877,2.295c1.038,0.631 2.188,1.135 3.416,1.504c0.272,0.085 0.565,-0.029 0.712,-0.271l3.572,-5.868l3.004,5.952c0.108,0.214 0.326,0.341 0.556,0.341c0.053,0 0.106,-0.006 0.158,-0.022c2.112,-0.553 4.11,-1.595 5.774,-3.01c0.224,-0.188 0.284,-0.506 0.147,-0.762l-3.52,-6.599l7.515,0.172c0.275,0.005 0.548,-0.19 0.618,-0.472c0.54,-2.179 0.56,-4.505 0.066,-6.726" style="fill:rgb(55,173,230);fill-rule:nonzero;"/>        </g>        <g transform="matrix(3.47402,0,0,8.33333,-450.78,-2420.96)">            <path d="M533.703,345.808l0,-0.001c0,-3.215 -1.243,-3.72 -1.243,-3.72l-103.864,0c0,0 -1.24,0.506 -1.243,3.715l0,0.008c0,3.215 1.243,3.721 1.243,3.721l103.864,0c0,0 1.241,-0.507 1.243,-3.716l0,-0.005l0,-0.002Z" style="fill:rgb(55,173,230);fill-rule:nonzero;"/>        </g>    </g></svg>