<?xml version="1.0" encoding="UTF-8" standalone="no"?><!DOCTYPE svg PUBLIC "-//W3C//DTD SVG 1.1//EN" "http://www.w3.org/Graphics/SVG/1.1/DTD/svg11.dtd"><svg width="100%" height="100%" viewBox="0 0 512 512" version="1.1" xmlns="http://www.w3.org/2000/svg" xmlns:xlink="http://www.w3.org/1999/xlink" xml:space="preserve" style="fill-rule:evenodd;clip-rule:evenodd;stroke-linejoin:round;stroke-miterlimit:2;"><title>Finbc</title><desc>finbc is a B2B platform. Corporates can not only act as customers but also dock on via API and integrate their service  offerings  into  a  joint  service  portfolio  while beneﬁtting  from  the  platform  architecture.  Thus,  the number of services will grow constantly. Furthermore, all ﬁnbc  members  can  become  an  investor  by  allocating liquidity to other members. </desc>    <g transform="matrix(3.55854,0,0,3.55493,396.429,-116.387)">        <g transform="matrix(1.09201,0,0,1.09201,4.06522,-14.6889)">            <path d="M-90.4,85.314c5.226,-23.073 25.887,-40.304 50.54,-40.304c24.653,-0 45.313,17.231 50.539,40.304c-9.395,-9.473 -22.42,-15.339 -36.804,-15.339c-4.759,0 -9.37,0.642 -13.735,1.9c-4.366,-1.258 -8.977,-1.9 -13.736,-1.9c-14.384,0 -27.409,5.866 -36.804,15.339Z" style="fill:rgb(102,188,255);"/>        </g>        <g transform="matrix(1.09201,0,0,1.09201,19.0647,12.5733)">            <path d="M-16.792,108.476c9.322,-9.376 15.081,-22.294 15.081,-36.546c0,-3.983 -0.45,-7.862 -1.345,-11.581c9.322,9.376 15.081,22.294 15.081,36.546c-0,28.637 -23.249,51.886 -51.885,51.886c-4.756,-0 -9.363,-0.642 -13.736,-1.857c18.314,-5.009 32.586,-19.825 36.804,-38.448Z" style="fill:rgb(143,238,246);"/>        </g>        <g transform="matrix(1.09201,0,0,1.09201,19.0647,12.5733)">            <path d="M-53.596,46.91c4.366,-1.258 8.976,-1.9 13.736,-1.9c14.384,-0 27.408,5.866 36.804,15.339c0.895,3.719 1.345,7.598 1.345,11.581c0,14.252 -5.759,27.17 -15.081,36.546c0.896,-3.718 1.346,-7.597 1.346,-11.581c-0,-23.877 -16.164,-44.008 -38.15,-49.985Z" style="fill:rgb(75,210,245);"/>        </g>        <g transform="matrix(1.09201,0,0,1.09201,-10.9342,12.5733)">            <path d="M-26.125,146.924c-4.373,1.215 -8.98,1.857 -13.735,1.857c-28.637,-0 -51.886,-23.249 -51.886,-51.886c0,-14.252 5.759,-27.17 15.082,-36.546c-0.896,3.719 -1.346,7.598 -1.346,11.581c-0,14.252 5.759,27.17 15.081,36.546c7.047,7.105 16.135,12.181 26.307,14.275c-10.172,-2.094 -19.26,-7.17 -26.307,-14.275c4.219,18.623 18.491,33.439 36.804,38.448Z" style="fill:rgb(92,108,254);"/>        </g>        <g transform="matrix(1.09201,0,0,1.09201,-10.9342,12.5733)">            <path d="M-26.125,146.924c-18.313,-5.009 -32.585,-19.825 -36.804,-38.448c7.047,7.105 16.135,12.181 26.307,14.275l5.171,0.794c1.752,0.179 3.528,0.27 5.326,0.27c1.793,0 3.564,-0.091 5.314,-0.27l0.012,-0l1.669,-0.256l3.457,-0.529l0.024,-0.006l0.022,-0.003l1.82,-0.471l3.104,-0.799l0.037,-0.013l0.03,-0.008l1.695,-0.624l3.004,-1.101l0.051,-0.024l0.034,-0.013l1.438,-0.697l3.012,-1.452l0.067,-0.04l0.033,-0.016l1.105,-0.676l3.073,-1.868l0.084,-0.063l0.028,-0.016l0.732,-0.552l3.151,-2.357l0.103,-0.094l0.016,-0.012l0.354,-0.323l3.213,-2.921l0.122,-0.135c-4.218,18.623 -18.49,33.439 -36.804,38.448Z" style="fill:rgb(73,171,245);"/>        </g>        <g transform="matrix(1.09201,0,0,1.09201,-10.9342,12.5733)">            <path d="M-76.664,60.349c9.395,-9.473 22.42,-15.339 36.804,-15.339c4.759,-0 9.37,0.642 13.735,1.9l-1.686,0.434l-2.031,0.744l-0.334,0.106l-0.375,0.154l-2.026,0.742l-1.246,0.6l-0.253,0.105l-0.665,0.338l-2.371,1.143l-0.66,0.401l-0.038,0.019l-0.455,0.281l-3.125,1.899l-1.937,1.449l-1.388,1.017l-0.181,0.156l-0.489,0.366l-1.253,1.139l-1.219,1.053l-0.527,0.534l-0.686,0.624l-0.829,0.912l-0.873,0.885l-0.844,1.004l-0.804,0.884l-0.489,0.654l-0.535,0.637l-1.182,1.658l-0.782,1.046l-0.216,0.355l-0.235,0.33l-2.04,3.413l-0.109,0.18l-0.128,0.265l-1.719,3.489l-0.168,0.426l-0.171,0.355l-0.397,1.084l-0.814,2.061l-0.279,0.923l-0.256,0.698l-0.255,0.991l-0.443,1.464l-0.321,1.506l-0.26,1.01l-0.112,0.727l-0.206,0.966l-0.292,2.297l-0.177,1.159l-0.02,0.387c-0.171,1.619 -0.248,3.258 -0.248,4.915l0.084,2.967c0.168,2.946 0.589,5.825 1.261,8.614c-9.322,-9.376 -15.081,-22.294 -15.081,-36.546c-0,-3.983 0.45,-7.862 1.346,-11.581Z" style="fill:rgb(70,159,253);"/>        </g>        <g transform="matrix(1.09201,0,0,1.09201,-10.9342,12.5733)">            <path d="M-26.125,46.91c21.987,5.977 38.15,26.108 38.15,49.985c-0,3.984 -0.45,7.863 -1.346,11.581c-9.395,9.473 -22.42,15.339 -36.804,15.339c-14.384,0 -27.408,-5.866 -36.804,-15.339c-0.896,-3.718 -1.345,-7.597 -1.345,-11.581c-0,-23.877 16.163,-44.008 38.149,-49.985Z" style="fill:rgb(60,196,245);"/>        </g>        <g transform="matrix(1.08354,0,0,1.08354,-5.68103,-11.6469)">            <path d="M-31.177,80.815l9.934,19.81l21.91,3.326l-15.771,15.569l3.608,21.866l-19.681,-10.188l-19.681,10.188l3.608,-21.866l-15.771,-15.569l21.91,-3.326l9.934,-19.81Z" style="fill:white;"/>        </g>    </g></svg>