<?xml version="1.0" encoding="UTF-8" standalone="no"?><!DOCTYPE svg PUBLIC "-//W3C//DTD SVG 1.1//EN" "http://www.w3.org/Graphics/SVG/1.1/DTD/svg11.dtd"><svg width="100%" height="100%" viewBox="0 0 512 512" version="1.1" xmlns="http://www.w3.org/2000/svg" xmlns:xlink="http://www.w3.org/1999/xlink" xml:space="preserve" style="fill-rule:evenodd;clip-rule:evenodd;stroke-linejoin:round;stroke-miterlimit:2;"><title>Action Crowd</title><desc>ACTION Crowd s.r.l. is a company based in Milan, licensed by Consob to carry out, through its web platform, equity-based crowdfunding activities (collection of public savings in favor of innovative start-ups). The company structure includes among others the Assiteca Group (the very first independent insurance broker in Italy and one of the first ones in Europe) and Millenium Holding (a solid holding company, already parent of the group, listed on the Milan Stock Exchange, DMT s.p.a.).</desc>    <g id="Action-Crowd" transform="matrix(2.29295,0,0,2.29013,-17.947,30.5983)">        <g transform="matrix(0.975904,0,0,0.975904,-4.13014,-14.9699)">            <path d="M127.794,100.902c20.852,0.199 40.505,16.208 44.488,36.974c2.828,14.74 -2.172,30.738 -12.934,41.246c-12.57,12.274 -32.56,16.357 -49.08,9.603c-14.595,-5.968 -25.597,-19.971 -27.884,-35.572c-2.824,-19.275 8.208,-39.745 25.851,-47.988c6.096,-2.848 12.801,-4.284 19.559,-4.263Zm-0.536,8.198c-17.058,0.162 -32.971,13.129 -36.399,29.863c-4.783,23.351 16.943,49.06 43.262,44.354c15.264,-2.73 28.121,-15.915 30.384,-31.353c2.962,-20.216 -13.278,-41.436 -34.601,-42.789c-0.88,-0.056 -1.762,-0.078 -2.646,-0.075Z" style="fill:rgb(2,38,86);"/>        </g>        <path d="M8.4,191.2c0.4,-0.6 2.7,-2.1 5.1,-3.3c2.5,-1.2 4.5,-2.6 4.5,-3.1c0,-0.4 0.4,-0.8 0.9,-0.8c1,0 18.4,-10.1 21,-12.2c0.9,-0.7 3.3,-2.2 5.4,-3.2c2,-1.1 3.7,-2.5 3.7,-3.3c0,-0.8 0.4,-1.2 0.9,-0.9c0.5,0.3 2.3,-0.7 4,-2.3c2.9,-2.7 18.5,-12.1 20.1,-12.1c0.4,0 1.3,-0.7 2,-1.5c0.7,-0.8 1.5,-1.3 1.9,-1.1c1.3,0.8 17.2,-9.4 16.8,-10.7c-0.3,-0.9 -7,-3.6 -16.9,-6.7c-7.1,-2.2 -17.1,-7.7 -18.7,-10.2c-1.4,-2.2 -0.5,-4.3 1.2,-3c0.7,0.5 3.9,1.4 7.2,2.1c3.3,0.7 7.3,1.7 8.8,2.2c1.5,0.4 4,0.6 5.5,0.3c1.7,-0.3 6.7,0.9 13.2,3.1c5.8,2 11.9,4 13.5,4.4c4.5,1.2 7.5,3 7.5,4.6c0,6.7 -10.1,39.6 -13.4,43.5c-0.7,0.8 -2.5,3.6 -4,6.3c-1.5,2.6 -3.1,4.5 -3.7,4.2c-1.1,-0.8 -1.1,-8.7 0.1,-14c2.2,-9.9 4.2,-17.4 5.7,-21.7c0.9,-2.6 1.4,-5 1.1,-5.4c-0.6,-0.5 -17.8,8.2 -18.8,9.5c-0.3,0.4 -3.2,2.2 -6.5,4c-14.4,7.9 -17.1,9.4 -18,10.1c-2,1.6 -12.6,7 -13.6,7c-0.6,0 -7.3,2.9 -14.8,6.4c-7.5,3.5 -14.7,6.7 -16.1,7.1c-1.4,0.3 -3.3,0.9 -4.4,1.2c-1.1,0.3 -1.6,0.1 -1.2,-0.5Z" style="fill:rgb(228,33,125);fill-rule:nonzero;"/>        <path d="M224,190c-3,-1 -9.5,-3.9 -14.5,-6.3c-4.9,-2.4 -11.2,-5.3 -14,-6.3c-4,-1.5 -17.2,-8.5 -25.5,-13.5c-0.8,-0.5 -4.1,-2.2 -7.2,-3.9c-3.1,-1.6 -5.9,-3.4 -6.3,-4c-0.9,-1.4 -18.6,-10.3 -19.2,-9.6c-0.3,0.2 0.4,3.2 1.6,6.5c1.2,3.4 2.1,6.9 2.1,8c0,1 0.9,4.7 2,8.1c2.1,6.5 2.7,17.5 1,18.5c-0.9,0.5 -5,-5.7 -9.2,-14c-2.4,-4.6 -8.4,-23.2 -9.6,-29.7c-2.3,-11.9 -2.3,-11.7 0.1,-12.9c1.2,-0.7 3.5,-1.6 5.2,-2c1.6,-0.4 7.1,-2.2 12,-3.9c5.2,-1.8 11.6,-3.3 15,-3.5c3.3,-0.1 9.6,-1.2 14,-2.4c9.3,-2.4 9.5,-2.4 9.5,-1.1c0,3.1 -13.9,11.2 -21.6,12.6c-2.1,0.3 -4.3,1 -4.9,1.4c-0.5,0.4 -3,1.5 -5.5,2.3c-2.4,0.8 -4.5,1.9 -4.7,2.3c-0.2,1 12.2,9.1 17,11.2c4.9,2 21,11.4 23.7,13.7c5,4.4 32.9,22.5 34.7,22.5c0.2,0 1.9,1.1 3.7,2.5c1.8,1.4 3.8,2.5 4.3,2.5c0.6,0 1.6,0.7 2.3,1.5c1.6,1.9 0.7,1.9 -6,-0.5Z" style="fill:rgb(228,33,125);fill-rule:nonzero;"/>        <path d="M114.3,122.1c-10.6,-8.5 -27.8,-28.2 -26.9,-30.7c0.3,-0.8 0.1,-1.3 -0.5,-1.1c-1.3,0.3 -6.4,-9.1 -5.5,-10.1c1.5,-1.4 15.5,8.1 15.6,10.5c0,0.5 2.1,2.3 4.6,4.2c2.5,1.9 6.1,5.4 8.1,7.8c1.9,2.4 3.9,4.3 4.4,4.3c0.4,0 0.8,-14.5 0.9,-32.1c0,-17.7 0.3,-32.5 0.5,-33c0.3,-0.4 1.2,-7.7 2,-16.1c0.8,-8.4 1.7,-16.5 2.1,-18.1c1.3,-6.3 2.1,-1.7 2.3,14.2c0.1,9.3 0.7,19.6 1.3,22.8c0.9,4.9 1.3,19.2 1.7,55.6l0.1,6.7l11.8,-9.7c12.1,-10.1 18.6,-14.3 22.1,-14.3c3.4,0 2.5,1.8 -4.9,8.8c-3.8,3.8 -7.5,8.1 -8.1,9.7c-0.6,1.7 -4.3,5.8 -8.2,9.2c-14.5,12.5 -17.8,15.3 -18.1,15.3c-0.3,0 -2.6,-1.8 -5.3,-3.9Z" style="fill:rgb(228,33,125);fill-rule:nonzero;"/>    </g></svg>