<?xml version="1.0" encoding="UTF-8" standalone="no"?><!DOCTYPE svg PUBLIC "-//W3C//DTD SVG 1.1//EN" "http://www.w3.org/Graphics/SVG/1.1/DTD/svg11.dtd"><svg width="100%" height="100%" viewBox="0 0 512 512" version="1.1" xmlns="http://www.w3.org/2000/svg" xmlns:xlink="http://www.w3.org/1999/xlink" xml:space="preserve" style="fill-rule:evenodd;clip-rule:evenodd;stroke-linejoin:round;stroke-miterlimit:2;"><title>Greyfriars</title><desc>Since our inception in 1989, we have become a reputable and leading wealth management specialist in Leicestershire. Our reputation has led us to now manage over £600 million in assets with a client base expanding some 26-Years.</desc>    <g transform="matrix(10.9208,0,0,10.9208,128.773,1)">        <path d="M23.3,6.2c0,-0.5 -0.2,-0.9 -0.6,-1.2l-0.4,-0.3c-3,-2.2 -6.4,-3.7 -10,-4.6l-0.6,-0.1l-0.7,0.2c-3.6,0.9 -7,2.4 -10,4.6l-0.4,0.3c-0.3,0.2 -0.6,0.7 -0.6,1.1l0,21.4l23.2,0l0,-21.4l0.1,0Zm-4.9,16.5l-13.4,0l0,-14c0,-0.4 0.2,-0.7 0.5,-0.9c1.9,-1.2 4,-2.1 6.2,-2.7c2.2,0.6 4.2,1.5 6.2,2.7c0.3,0.2 0.5,0.5 0.5,0.8l0,14.1Zm4.9,13.7l0,-5l-23.3,0l0,5l8.9,0c-0.1,4.3 2.3,8.5 6.6,10.3l1.9,-4.6c-2.3,-1 -3.7,-3.4 -3.5,-5.8l9.4,0l0,0.1Z" style="fill:rgb(167,123,116);fill-rule:nonzero;"/>    </g></svg>