<?xml version="1.0" encoding="UTF-8" standalone="no"?><!DOCTYPE svg PUBLIC "-//W3C//DTD SVG 1.1//EN" "http://www.w3.org/Graphics/SVG/1.1/DTD/svg11.dtd"><svg width="100%" height="100%" viewBox="0 0 512 512" version="1.1" xmlns="http://www.w3.org/2000/svg" xmlns:xlink="http://www.w3.org/1999/xlink" xml:space="preserve" style="fill-rule:evenodd;clip-rule:evenodd;stroke-linejoin:round;stroke-miterlimit:2;"><title>BrickVest</title><desc>BrickVest is an online marketplace for real estate investing for investors and deal sponsors (real estate investment firms, portfolio owners, operators and developers). Professional clients can invest in pre-vetted real estate investment opportunities online through a simple and secure website by creating an account, selecting an investment, signing legal documents and funding their investment.</desc>    <g transform="matrix(4.21488,0,0,4.21488,-1467.82,-299.287)">        <g transform="matrix(1,0,0,1,130.485,0)">            <path d="M281,172.795l0,-48.795l-50.024,0c-7.162,0 -12.976,5.814 -12.976,12.976l0,48.795l50.024,0c7.162,0 12.976,-5.814 12.976,-12.976Z" style="fill:rgb(180,209,61);"/>        </g>        <g transform="matrix(0.746032,0,0,0.746032,249.85,-14.7897)">            <path d="M281,172.795l0,-48.795l-50.024,0c-7.162,0 -12.976,5.814 -12.976,12.976l0,48.795l50.024,0c7.162,0 12.976,-5.814 12.976,-12.976Z" style="fill:rgb(180,209,61);"/>        </g>        <g transform="matrix(-0.936824,0,0,0.936824,673.712,7.83386)">            <path d="M281,172.795l0,-48.795l-50.024,0c-7.162,0 -12.976,5.814 -12.976,12.976l0,48.795l50.024,0c7.162,0 12.976,-5.814 12.976,-12.976Z" style="fill:rgb(0,173,239);"/>        </g>        <g transform="matrix(-0.698413,0,0,0.698413,564.739,-5.74482)">            <path d="M281,172.795l0,-48.795l-50.024,0c-7.162,0 -12.976,5.814 -12.976,12.976l0,48.795l50.024,0c7.162,0 12.976,-5.814 12.976,-12.976Z" style="fill:rgb(0,173,239);"/>        </g>        <g transform="matrix(1,0,0,1,131.985,0)">            <path d="M281,94l-33,24l8,0l0,36l16,0l0,-26l17,0l0,26l16,0l0,-36l8,0l-32,-24Z" style="fill:white;"/>        </g>    </g></svg>