<?xml version="1.0" encoding="UTF-8" standalone="no"?><!DOCTYPE svg PUBLIC "-//W3C//DTD SVG 1.1//EN" "http://www.w3.org/Graphics/SVG/1.1/DTD/svg11.dtd"><svg width="100%" height="100%" viewBox="0 0 512 512" version="1.1" xmlns="http://www.w3.org/2000/svg" xmlns:xlink="http://www.w3.org/1999/xlink" xml:space="preserve" style="fill-rule:evenodd;clip-rule:evenodd;stroke-linejoin:round;stroke-miterlimit:2;"><title>Anaxago</title><desc>Anaxago offers an innovative approach to unlisted investment.  Our mission: to make new, high-potential asset classes accessible to private and institutional investors, in the simplest and most transparent way possible. </desc>    <g id="anaxago-logo-white-copy" transform="matrix(14.3885,0,0,14.3885,0.978417,1)">        <path id="Fill-1" d="M14.444,11.069l-1.259,-3.084l-7.576,18.573l2.761,0l0.583,-1.47l0.912,-2.382l3.32,-8.513l1.259,-3.124Z" style="fill:rgb(216,185,122);"/>        <path id="Fill-2" d="M18.862,11.069l-1.259,-3.084l-7.576,18.573l2.761,0l0.583,-1.47l0.912,-2.382l3.32,-8.513l1.259,-3.124Z" style="fill:rgb(216,185,122);"/>        <path id="Fill-3" d="M26.276,25.088l0.558,1.469l2.762,0l-7.576,-18.572l-7.576,18.572l2.762,0l0.583,-1.469l0.912,-2.381l3.319,-8.514l3.319,8.514l0.937,2.381Z" style="fill:rgb(216,185,122);"/>        <path id="Fill-4" d="M0,35.445l35.448,0l0,-35.445l-35.448,0l0,35.445Zm0.877,-0.875l33.695,0l0,-33.696l-33.695,0l0,33.696Z" style="fill:rgb(216,185,122);"/>    </g></svg>