<?xml version="1.0" encoding="UTF-8" standalone="no"?><!DOCTYPE svg PUBLIC "-//W3C//DTD SVG 1.1//EN" "http://www.w3.org/Graphics/SVG/1.1/DTD/svg11.dtd"><svg width="100%" height="100%" viewBox="0 0 512 512" version="1.1" xmlns="http://www.w3.org/2000/svg" xmlns:xlink="http://www.w3.org/1999/xlink" xml:space="preserve" style="fill-rule:evenodd;clip-rule:evenodd;stroke-linejoin:round;stroke-miterlimit:2;"><title>Go2</title><desc>Go2 is a money market place for Southern English businesses.We give companies a forum to request loan funding and we give investors an opportunity to lend to them. Do a great thing for Southern business and earn a great rate of return!</desc>    <g transform="matrix(8.9603,0,0,8.9603,-2301.8,-2292.84)">        <g transform="matrix(1.33333,0,0,1.33333,226.764,240.273)">            <rect x="22.684" y="33.105" width="42.679" height="0.152" style="fill:rgb(49,142,205);"/>        </g>        <g transform="matrix(1.33333,0,0,1.33333,311.98,260.035)">            <path d="M0,14.807l-16.381,-16.379c-1.939,-1.939 -5.082,-1.939 -7.02,0l-16.382,16.379c-0.969,0.97 -1.453,2.241 -1.452,3.511l42.688,0c0,-1.27 -0.484,-2.541 -1.453,-3.511" style="fill:rgb(57,150,211);fill-rule:nonzero;"/>        </g>        <g transform="matrix(1.33333,0,0,1.33333,280.779,287.045)">            <path d="M0,17.951c1.938,1.939 5.081,1.939 7.021,0l16.38,-16.38c0.969,-0.97 1.453,-2.24 1.453,-3.51l-42.688,0c0,1.27 0.484,2.54 1.452,3.51l16.382,16.38Z" style="fill:rgb(49,142,205);fill-rule:nonzero;"/>        </g>        <g transform="matrix(1.33333,0,0,1.33333,299.591,292.737)">            <path d="M0,-13.267c-2.28,-2.892 -6.486,-3.392 -9.378,-1.112c-0.435,0.34 -0.822,0.731 -1.153,1.16c-0.195,0.253 -0.15,0.618 0.105,0.812c0.252,0.196 0.615,0.15 0.812,-0.105c0.271,-0.353 0.592,-0.675 0.951,-0.957c2.391,-1.884 5.869,-1.471 7.753,0.919c1.881,2.391 1.47,5.868 -0.922,7.751c-2.391,1.88 -5.869,1.468 -7.75,-0.922c-0.197,-0.251 -0.371,-0.513 -0.516,-0.778c-0.002,-0.006 -0.005,-0.008 -0.008,-0.012c-0.174,-0.313 -0.374,-0.617 -0.6,-0.905c-2.28,-2.893 -6.488,-3.392 -9.379,-1.115c-2.891,2.28 -3.39,6.486 -1.113,9.377c1.104,1.401 2.687,2.289 4.458,2.499c0.269,0.032 0.534,0.047 0.802,0.047c1.489,0 2.929,-0.496 4.118,-1.433c1.337,-1.053 2.212,-2.558 2.468,-4.237c0.037,-0.248 -0.091,-0.482 -0.299,-0.593c-0.092,-0.068 -0.205,-0.107 -0.327,-0.11l-3.16,-0.046l-0.01,0c-0.316,0 -0.575,0.253 -0.579,0.569c-0.005,0.322 0.251,0.584 0.572,0.589l2.524,0.038c-0.31,1.135 -0.969,2.143 -1.906,2.88c-1.158,0.913 -2.605,1.321 -4.067,1.145c-1.465,-0.174 -2.772,-0.907 -3.685,-2.065c-1.88,-2.39 -1.469,-5.867 0.921,-7.75c2.391,-1.881 5.867,-1.47 7.75,0.918c0.189,0.242 0.358,0.497 0.502,0.759c0.005,0.008 0.011,0.012 0.014,0.02c0.175,0.314 0.378,0.624 0.609,0.919c1.317,1.671 3.276,2.544 5.253,2.544c1.446,0 2.903,-0.468 4.125,-1.428c2.893,-2.279 3.394,-6.484 1.115,-9.378" style="fill:white;fill-rule:nonzero;"/>        </g>    </g></svg>