<?xml version="1.0" encoding="UTF-8" standalone="no"?><!DOCTYPE svg PUBLIC "-//W3C//DTD SVG 1.1//EN" "http://www.w3.org/Graphics/SVG/1.1/DTD/svg11.dtd"><svg width="100%" height="100%" viewBox="0 0 512 512" version="1.1" xmlns="http://www.w3.org/2000/svg" xmlns:xlink="http://www.w3.org/1999/xlink" xml:space="preserve" style="fill-rule:evenodd;clip-rule:evenodd;stroke-linejoin:round;stroke-miterlimit:2;"><title>Vauraus</title><desc>Vauraus was founded to boost the funding and growth of SMEs in Finland. We also offer investors a transparent investment option with stable earnings that doesn’t correlate with the stock market.Vauraus has intermediated crowdfunded corporate loans in Finland since 2013. We aspire to support entrepreneurship and the economic growth of SMEs.</desc>    <g transform="matrix(0.972207,0,0,0.972207,-676.335,-442.406)">        <path d="M958.692,803.088l-204.945,-312.523c-6.86,-10.462 -20.923,-13.385 -31.384,-6.525c-10.462,6.86 -13.385,20.923 -6.525,31.385l215.709,328.937l-50.35,76.557c-6.874,10.452 -3.969,24.519 6.483,31.393c10.453,6.874 24.519,3.969 31.394,-6.483l39.563,-60.157l39.679,60.507c6.86,10.461 20.923,13.385 31.384,6.524c10.462,-6.86 13.385,-20.923 6.525,-31.384l-50.443,-76.921l216.34,-328.948c6.874,-10.453 3.969,-24.519 -6.483,-31.393c-10.452,-6.875 -24.519,-3.97 -31.393,6.483l-205.554,312.548Z" style="fill:rgb(246,49,62);"/>    </g></svg>