<?xml version="1.0" encoding="UTF-8" standalone="no"?><!DOCTYPE svg PUBLIC "-//W3C//DTD SVG 1.1//EN" "http://www.w3.org/Graphics/SVG/1.1/DTD/svg11.dtd"><svg width="100%" height="100%" viewBox="0 0 512 512" version="1.1" xmlns="http://www.w3.org/2000/svg" xmlns:xlink="http://www.w3.org/1999/xlink" xml:space="preserve" style="fill-rule:evenodd;clip-rule:evenodd;stroke-linejoin:round;stroke-miterlimit:2;"><title>Prime</title><desc>The Prime IFISA is designed to deliver threefold benefits to investors: quality, value and innovation. We believe we’ve achieved this by offering an asset-backed investment in an exciting new IT redevelopment offering attractive returns over three years.</desc>    <g transform="matrix(2.47893,0,0,2.47893,-1794.19,1.76173)">        <g transform="matrix(4.32027,0,0,4.32027,-227.476,-50.4954)">            <path d="M244.088,11.617c-13.142,0 -23.811,10.669 -23.811,23.81c0,13.141 10.669,23.811 23.811,23.811c13.141,0 23.81,-10.67 23.81,-23.811c0,-13.141 -10.669,-23.81 -23.81,-23.81Zm0,1.594c12.261,0 22.216,9.955 22.216,22.216c0,12.262 -9.955,22.216 -22.216,22.216c-12.262,0 -22.217,-9.954 -22.217,-22.216c0,-12.261 9.955,-22.216 22.217,-22.216Z" style="fill:rgb(34,97,146);"/>        </g>        <g transform="matrix(3.44338,0,0,3.44338,0.676163,0.750809)">            <path d="M221.496,40.451l22.866,-27.869l6.437,5.222l-19.295,23.993l3.776,2.883l21.388,-26.101c-0.113,-0.29 -0.175,-0.606 -0.175,-0.935c0,-1.426 1.157,-2.583 2.582,-2.583c1.426,0 2.583,1.157 2.583,2.583c0,1.425 -1.157,2.582 -2.583,2.582c-0.356,0 -0.695,-0.072 -1.004,-0.203l-22.469,27.42l-6.941,-5.301l19.331,-24.04l-3.345,-2.714l-21.596,26.321c0.196,0.364 0.308,0.78 0.308,1.222c0,1.426 -1.158,2.583 -2.583,2.583c-1.425,0 -2.582,-1.157 -2.582,-2.583c0,-1.425 1.157,-2.582 2.582,-2.582c0.25,0 0.492,0.035 0.72,0.102Z" style="fill:rgb(34,97,146);"/>        </g>    </g></svg>