<?xml version="1.0" encoding="UTF-8" standalone="no"?><!DOCTYPE svg PUBLIC "-//W3C//DTD SVG 1.1//EN" "http://www.w3.org/Graphics/SVG/1.1/DTD/svg11.dtd"><svg width="100%" height="100%" viewBox="0 0 512 512" version="1.1" xmlns="http://www.w3.org/2000/svg" xmlns:xlink="http://www.w3.org/1999/xlink" xml:space="preserve" style="fill-rule:evenodd;clip-rule:evenodd;stroke-linejoin:round;stroke-miterlimit:2;"><title>NEST</title><desc></desc>    <g transform="matrix(1.47156,0,0,1.47368,-60.4215,-158.842)">        <g transform="matrix(1.09728,0,0,1.09571,54.6487,103.429)">            <path d="M239.6,17.4c60.8,37.5 64.3,142.3 10.1,230.3c-54.2,87.9 -140.5,83.4 -186.1,55.4c-43.9,-27 -88.4,-103.2 -34.3,-191.1c54.3,-88 149.5,-132.1 210.3,-94.6Z" style="fill:rgb(255,130,0);fill-rule:nonzero;"/>        </g>        <g transform="matrix(1.09728,0,0,1.09571,54.6487,103.429)">            <path d="M24.5,152.5l18.1,0l0,7.7c2.6,-5.4 9.2,-9 17.6,-9c15,0 23.2,9.6 23.2,25.4l0,15.5c0,4.5 0.9,6.4 4,6.4c0.7,0 1.7,-0.1 1.9,-0.1l0,15.3c-0.6,0.2 -3.2,0.9 -7.9,0.9c-9.7,0 -16.2,-4.6 -16.2,-17.5l0,-18.2c0,-7.1 -3.8,-11.6 -10.9,-11.6c-6.8,0 -11.8,5 -11.8,12.2l0,34.4l-18,0l0,-61.4Z" style="fill:white;fill-rule:nonzero;"/>        </g>        <g transform="matrix(1.09728,0,0,1.09571,54.6487,103.429)">            <path d="M24.5,152.5l18.1,0l0,7.7c2.6,-5.4 9.2,-9 17.6,-9c15,0 23.2,9.6 23.2,25.4l0,15.5c0,4.5 0.9,6.4 4,6.4c0.7,0 1.7,-0.1 1.9,-0.1l0,15.3c-0.6,0.2 -3.2,0.9 -7.9,0.9c-9.7,0 -16.2,-4.6 -16.2,-17.5l0,-18.2c0,-7.1 -3.8,-11.6 -10.9,-11.6c-6.8,0 -11.8,5 -11.8,12.2l0,34.4l-18,0l0,-61.4Z" style="fill:white;fill-rule:nonzero;"/>        </g>        <g transform="matrix(1.09728,0,0,1.09571,54.6487,103.429)">            <path d="M93.3,183c0,-19.6 14.1,-32.1 33.2,-32.1c19,0 31.5,13.9 31.5,31.1c0,0 0,3 -0.2,5.8l-46.3,0c0.4,7.3 6.7,12 16.3,12c6.3,0 10.7,-1.9 15,-6l10.6,10.1c-8.2,8.4 -17,11.2 -26.4,11.2c-20,0 -33.6,-12.5 -33.6,-31.8l0,-0.3l-0.1,0Zm46.5,-6.9c0,-5.6 -6,-10.2 -13.3,-10.2c-7.9,0 -14.4,4.5 -14.8,10.2l28.1,0Z" style="fill:white;fill-rule:nonzero;"/>        </g>        <g transform="matrix(1.09728,0,0,1.09571,54.6487,103.429)">            <path d="M169.5,193.4c3.3,3.9 9.6,6.7 16.8,6.7c6.4,0 9.2,-2.1 9.2,-5c0,-4.1 -8.4,-4.5 -17.8,-7.7c-8.5,-2.9 -14.1,-7.8 -14.1,-17c0,-13.1 11.4,-19.7 23.8,-19.7c10.9,0 18,3.8 22.6,7.9l-8.6,11.9c-2.7,-2.2 -7.3,-4.5 -14.5,-4.5c-4.1,0 -6.1,1.8 -6.1,3.9c0,4.1 5,3.4 16.8,7.5c11.1,3.8 15.1,9.6 15.1,17.4c0,11.8 -8.3,20.7 -27,20.7c-13.7,0 -22.1,-5.2 -26.8,-10.9l10.6,-11.2Z" style="fill:white;fill-rule:nonzero;"/>        </g>        <g transform="matrix(1.09728,0,0,1.09571,54.6487,103.429)">            <path d="M223.5,168.9l-8,0l0,-16.4l8,0l0,-18.5l17.6,0l0,18.5l13.6,0l0,16.4l-13.6,0l0,21.9c0,6 2.4,8.2 7.8,8.2c1.3,0 3,-0.2 4.6,-0.5l0,16.1c-2.1,0.5 -5.5,0.9 -8.9,0.9c-9,0 -21.2,-2.7 -21.2,-21.9l0,-24.7l0.1,0Z" style="fill:white;fill-rule:nonzero;"/>        </g>    </g></svg>