<?xml version="1.0" encoding="UTF-8" standalone="no"?><!DOCTYPE svg PUBLIC "-//W3C//DTD SVG 1.1//EN" "http://www.w3.org/Graphics/SVG/1.1/DTD/svg11.dtd"><svg width="100%" height="100%" viewBox="0 0 512 512" version="1.1" xmlns="http://www.w3.org/2000/svg" xmlns:xlink="http://www.w3.org/1999/xlink" xml:space="preserve" style="fill-rule:evenodd;clip-rule:evenodd;stroke-linejoin:round;stroke-miterlimit:2;"><title>Geldwerk1</title><desc>On Geldwerk1 you can invest in companies with good growth opportunities online. The corresponding investments are brokered by crowdinvesting platforms over the Internet. </desc>    <g transform="matrix(3.27462,0,0,3.27462,-39.2893,-68.3293)">        <g transform="matrix(74.7138,0,0,74.7138,8.03518,141.755)">            <path d="M0.78,-0.598l-0.055,0.053c-0.04,-0.039 -0.084,-0.069 -0.132,-0.09c-0.048,-0.02 -0.094,-0.03 -0.139,-0.03c-0.057,0 -0.11,0.014 -0.161,0.041c-0.051,0.028 -0.091,0.066 -0.119,0.113c-0.028,0.047 -0.042,0.097 -0.042,0.15c0,0.054 0.015,0.106 0.044,0.154c0.029,0.049 0.069,0.087 0.12,0.115c0.051,0.028 0.107,0.042 0.168,0.042c0.074,0 0.136,-0.021 0.187,-0.063c0.051,-0.041 0.082,-0.095 0.091,-0.162l-0.229,0l0,-0.069l0.31,0c-0.001,0.111 -0.034,0.199 -0.099,0.264c-0.065,0.065 -0.153,0.098 -0.262,0.098c-0.133,0 -0.238,-0.045 -0.316,-0.136c-0.059,-0.069 -0.089,-0.15 -0.089,-0.241c0,-0.068 0.017,-0.132 0.051,-0.19c0.035,-0.059 0.081,-0.105 0.141,-0.138c0.06,-0.033 0.127,-0.049 0.202,-0.049c0.061,0 0.118,0.011 0.172,0.033c0.054,0.022 0.106,0.057 0.157,0.105Z" style="fill:rgb(246,204,43);fill-rule:nonzero;"/>        </g>        <path d="M69.996,126.126l0,12.05l-6.405,0l0,-1.874c0.178,-0.168 0.354,-0.338 0.528,-0.512c2.698,-2.698 4.657,-5.919 5.877,-9.664Zm-6.405,-32.979l0,-38.165l26.889,0l0,58.194l-7.197,0l0,-50.964l-13.287,0l0,50.964l-6.405,0c0,0 0.39,-12.324 0.582,-12.134l4.159,-3.94c-1.564,-1.485 -3.144,-2.803 -4.741,-3.955Z"/>        <g transform="matrix(1,0,0,1,98.0507,-0.821951)">            <path d="M69.996,138.176l-7.405,0l0,-24.8l-8.925,0l8.925,-7.881l7.405,0l0,32.681Z"/>        </g>        <path d="M121.924,103.946l7.181,0l0,25.333l19.255,-15.126l10.219,0l-28.615,23.215l-7.314,0l0,-24.675l-32.17,24.756l-7.029,0l0,-22.305l7.029,0l0,14.524l31.444,-25.722Z" style="fill:rgb(246,204,43);"/>    </g></svg>