<?xml version="1.0" encoding="UTF-8" standalone="no"?><!DOCTYPE svg PUBLIC "-//W3C//DTD SVG 1.1//EN" "http://www.w3.org/Graphics/SVG/1.1/DTD/svg11.dtd"><svg width="100%" height="100%" viewBox="0 0 512 512" version="1.1" xmlns="http://www.w3.org/2000/svg" xmlns:xlink="http://www.w3.org/1999/xlink" xml:space="preserve" style="fill-rule:evenodd;clip-rule:evenodd;stroke-linejoin:round;stroke-miterlimit:2;"><title>GwenneG</title><desc>GwenneG (or "little penny" in Breton) responds to this desire for proximity and allows everyone to support Breton projects whether in the form of a loan or a capital investment. This is a unique offer in the crowdfunding industry. With one key objective: to support development and employment in Brittany for future generations.</desc>    <g transform="matrix(2.27807,0,0,2.27807,-327.186,-327.236)">        <g transform="matrix(0.137645,0,0,0.137645,-652.325,173.051)">            <path d="M7039.8,950.5c-172.8,-32.3 -288.7,-202.9 -253.5,-373.1c46.6,-224.9 301.2,-327.6 491.6,-198.5c36.7,24.9 80.7,75.9 102.7,118.9c24.6,48.8 36.7,118.5 29.7,175.7c-8.8,74.5 -37.8,134.6 -89.9,187.1c-37.8,38.5 -74.1,60.5 -127.7,78.9c-30.1,10.3 -39.3,11.7 -85.1,12.8c-28.2,0.4 -58.7,-0.4 -67.9,-1.8l0.1,0Z" style="fill:rgb(225,7,26);fill-rule:nonzero;"/>        </g>        <g transform="matrix(0.137645,0,0,0.137645,-652.325,173.051)">            <path d="M6159.4,1203.3c-168,-27.5 -293.1,-133.9 -346.7,-294.6c-24.9,-75.6 -24.9,-73.7 -26.4,-279.5c-1.8,-227.4 -0,-251.7 29,-332c41.5,-114.8 114.5,-197.7 221.9,-250.9c145.6,-72.6 343,-59.1 481.7,32.6c31.9,21.3 71.2,55.8 82.5,72.3c10.3,15.4 12.1,34.9 4,49.9c-8.4,15.4 -72.3,77 -86.2,82.5c-17.2,7.3 -29,3.3 -58.3,-20.5c-50.6,-40.7 -90.2,-63.8 -129.5,-74.5c-18.3,-5.5 -37.1,-6.6 -87.7,-6.6c-63.1,0 -64.6,0 -94.6,11.4c-97.2,37.4 -156.3,118.1 -173.2,237.7c-6.6,45.9 -2.9,351.4 4.8,385.6c23.8,108.6 86.6,180.1 177.6,203.2c32.6,8.1 108.2,9.9 141.2,3.3c96.1,-19.4 155.5,-69.3 186.7,-157.4c9.2,-26 18,-80 18,-111.9l-0,-12.8l-102.7,-0c-93.9,-0 -104.2,-0.7 -116.7,-7c-24.2,-12.5 -28.2,-24.2 -28.2,-81.1c-0,-51.7 2.9,-63.1 19.1,-77.8c13.9,-12.5 36.3,-13.9 277.3,-13.9c208.4,-0 237.4,-0.7 237.4,-5.5c-0,-2.9 2.6,-5.5 5.9,-5.5c6.6,-0 6.6,1.8 -2.6,61.3c-4.4,27.9 -4,33.8 3.3,71.5c12.1,59.4 13.2,69 8.4,69c-2.6,-0 -5.1,-2.6 -6.2,-5.5c-1.8,-4.4 -11.4,-5.5 -54.7,-5.5l-52.1,-0l-2.2,48.8c-5.5,136.1 -65.7,253.1 -169.1,330.5c-45.1,33.4 -106.8,60.5 -174.3,75.9c-36,8.4 -152.6,12.5 -187.5,7l0.1,-0Z" style="fill:rgb(3,3,4);fill-rule:nonzero;"/>        </g>    </g></svg>