<?xml version="1.0" encoding="UTF-8" standalone="no"?><!DOCTYPE svg PUBLIC "-//W3C//DTD SVG 1.1//EN" "http://www.w3.org/Graphics/SVG/1.1/DTD/svg11.dtd"><svg width="100%" height="100%" viewBox="0 0 512 512" version="1.1" xmlns="http://www.w3.org/2000/svg" xmlns:xlink="http://www.w3.org/1999/xlink" xml:space="preserve" style="fill-rule:evenodd;clip-rule:evenodd;stroke-linejoin:round;stroke-miterlimit:2;"><title>Fund Ourselves</title><desc>Fund Ourselves is a mission driven financial technology company providing a market place offering affordable short-term consumer credit to hard working families.We are a small group of passionate techies, credit geeks, designers, marketers, lawyers and compliance experts with a shared vision to make change to the consumer credit market.</desc>    <g transform="matrix(2.21258,0,0,2.21258,-17.9176,-13.1605)">        <circle cx="123.8" cy="121.6" r="115.2" style="fill:white;"/>        <path d="M47.3,207.7c7,-0.1 19,-6.1 32.6,-38.5l19.4,-45.1l-39.1,-0.5c1,-11.4 13.5,-27.2 30.8,-27.2l20.3,0l20.6,-47.7c11.8,-27.4 40.6,-31.5 59.6,-20.4c-19,-13.8 -42.3,-21.9 -67.6,-21.9c-63.7,0.1 -115.3,51.6 -115.3,115.2c0,34.2 14.9,65 38.7,86.1Z" style="fill:rgb(2,230,181);fill-rule:nonzero;"/>        <path d="M200.5,35.8l-0.1,0c-3.6,-3 -8.3,-4.9 -13.4,-4.9c-3.5,0 -6.8,0.9 -9.7,2.4c-6.1,2.6 -11.6,10.9 -20.5,31.5l-13.8,31.8l35.9,0c-1,11.4 -10.3,28.2 -27.5,28.2l-20.5,-0.2l-2.9,6.6l-21.4,50.4c-11,25.4 -34.9,36.2 -52.8,31.7c19.4,14.8 43.6,23.6 69.9,23.6c63.6,0 115.2,-51.6 115.2,-115.2c0,-34.2 -14.8,-64.8 -38.4,-85.9Z" style="fill:rgb(2,230,181);fill-rule:nonzero;"/>    </g></svg>