<?xml version="1.0" encoding="UTF-8" standalone="no"?><!DOCTYPE svg PUBLIC "-//W3C//DTD SVG 1.1//EN" "http://www.w3.org/Graphics/SVG/1.1/DTD/svg11.dtd"><svg width="100%" height="100%" viewBox="0 0 512 512" version="1.1" xmlns="http://www.w3.org/2000/svg" xmlns:xlink="http://www.w3.org/1999/xlink" xml:space="preserve" style="fill-rule:evenodd;clip-rule:evenodd;stroke-linejoin:round;stroke-miterlimit:2;"><title>MoneyThing</title><desc>MoneyThing was a lending platform and part of the fastest growing sector in the alternative banking sector. They arrange secure lending of money to British businesses, funded by individuals and businesses that are looking for a better return on capital.</desc>    <g id="MoneyThing" transform="matrix(4.63636,0,0,4.63636,-40.7273,-40.7273)">        <path d="M57,69.21c-0.21,-2 -0.42,-5.11 -0.77,-9.16c-0.526,3.283 -1.271,6.527 -2.23,9.71l-5.75,19.24l-10.7,0l-5.74,-19.24c-0.962,-3.18 -1.71,-6.42 -2.24,-9.7c-0.28,3.42 -0.49,6.5 -0.77,9.16l-2.16,19.78l-17.64,0l8.57,-50l18.52,0l3.53,12.35c1.553,4.77 2.654,9.674 3.29,14.65l0.28,0c0.755,-5.02 1.919,-9.97 3.48,-14.8l3.71,-12.2l18.52,0l7.94,50l-17.64,0l-2.2,-19.79Z" style="fill:rgb(140,191,68);fill-rule:nonzero;"/>        <path d="M87.54,54.18l-10.7,0l2.87,-15.17l39.29,0l-2.79,15.17l-10.35,0l-6.43,34.82l-18.32,0l6.43,-34.82Z" style="fill:rgb(28,117,187);fill-rule:nonzero;"/>    </g></svg>