<?xml version="1.0" encoding="UTF-8" standalone="no"?><!DOCTYPE svg PUBLIC "-//W3C//DTD SVG 1.1//EN" "http://www.w3.org/Graphics/SVG/1.1/DTD/svg11.dtd"><svg width="100%" height="100%" viewBox="0 0 512 512" version="1.1" xmlns="http://www.w3.org/2000/svg" xmlns:xlink="http://www.w3.org/1999/xlink" xml:space="preserve" style="fill-rule:evenodd;clip-rule:evenodd;stroke-linejoin:round;stroke-miterlimit:2;"><title>ShareVestors</title><desc>We open the possibility of participation in profitable development projects for everyone. By using equity crowdfunding, we make group investments in profitable development projects and group land investments possible.ShareVestors.com - the only such website in Poland, where you can become a shareholder in profitable real estate investments with little capital. Investments in real estate from 1000 PLN!</desc>    <g transform="matrix(1.64158,0,0,1.64158,-11.3066,-31.8317)">        <path d="M142.5,329.5c-26.2,-4.3 -48.4,-12.9 -69,-26.8c-13.1,-8.9 -32.3,-28.4 -41.4,-42.1c-14.5,-21.8 -18.7,-33.3 -17.8,-48.9c0.4,-7.6 1,-9.9 4.1,-16.2c6.2,-12.4 16.1,-19.7 34.1,-24.7c7.7,-2.1 10,-2.2 56.8,-2.6l48.7,-0.3l0,-49.3c-0.1,-42.6 0.1,-50.2 1.5,-55.6c5.2,-20 18.2,-32.1 37.7,-35.2c7.7,-1.1 7.9,-1.1 16.5,2.2c61.6,23.2 99.3,76.8 102,144.5c0.5,12.4 0.2,15.4 -2.1,26.6c-7,34.1 -21.2,61.4 -43.6,84c-12.8,12.9 -25.5,22 -41.1,29.3c-27.3,13 -62.1,19 -86.4,15.1Zm31.6,-21c35.6,-4.7 62.1,-17.2 83,-39.2c29.1,-30.6 43.5,-79.2 35,-118.3c-6.3,-29.6 -18.7,-52.7 -38.5,-71.8c-17.5,-16.9 -39.9,-29.2 -53,-29.2c-10.1,0.1 -16.6,5.2 -20.8,16.6c-2.1,5.7 -2.2,8 -2.9,57.9c-0.4,28.6 -0.7,54.4 -0.8,57.3l-0.1,5.3l-56.2,-0.1c-45.2,-0.1 -57.3,0.2 -61.3,1.3c-16.5,4.6 -23.2,13.2 -22.3,28.4c0.6,9.5 3.2,16.8 9.3,27c20.1,33.1 51.6,55.2 90.1,63.2c16.7,3.5 22.9,3.7 38.5,1.6Z" style="fill:rgb(111,111,112);fill-rule:nonzero;"/>        <path d="M31,150.1c-9.3,-2.9 -16.8,-9.9 -19.6,-18.5c-2.2,-6.6 -2.2,-20.1 0.1,-28.6c6.3,-24.1 30.7,-52.6 60.2,-70.3c12.6,-7.7 28.8,-12.7 40.5,-12.7c10.7,0 23.8,9.2 26.6,18.8c0.9,2.8 1.2,19.5 1.2,58.1l0,54.1l-53.2,-0.1c-29.3,0 -54.4,-0.4 -55.8,-0.8Zm86,-58.2c0,-40.6 0,-40.7 -6,-46.4c-2.3,-2.2 -4.2,-2.9 -8.2,-3.3c-4.8,-0.3 -6.3,0.1 -15.5,4.7c-24.5,12.3 -43.8,31.5 -51.6,51.1c-7,17.6 -5.8,27.2 3.7,29.9c1.7,0.5 19.9,1 40.4,1l37.2,0.1l0,-37.1Z" style="fill:rgb(241,94,34);fill-rule:nonzero;"/>    </g></svg>