<?xml version="1.0" encoding="UTF-8" standalone="no"?><!DOCTYPE svg PUBLIC "-//W3C//DTD SVG 1.1//EN" "http://www.w3.org/Graphics/SVG/1.1/DTD/svg11.dtd"><svg width="100%" height="100%" viewBox="0 0 512 512" version="1.1" xmlns="http://www.w3.org/2000/svg" xmlns:xlink="http://www.w3.org/1999/xlink" xml:space="preserve" style="fill-rule:evenodd;clip-rule:evenodd;stroke-linejoin:round;stroke-miterlimit:2;"><title>Viventor</title><desc>In Viventor, we believe everyone should be given access to invest their money in the financial products of today. Our mission is to enable cross-border investing for every European by building a remarkable platform for investors that lets you invest in different countries, loan types and Loan Originators.</desc>    <g transform="matrix(4.63665,0,0,4.63665,-40.7756,-40.75)">        <path d="M68.9,91.2c-2.322,-0.005 -4.23,-1.918 -4.23,-4.24c0,-0.907 0.291,-1.791 0.83,-2.52l45.85,-61.89c0.8,-1.08 2.066,-1.718 3.41,-1.718c2.328,0 4.243,1.915 4.243,4.243c0,0.909 -0.292,1.794 -0.833,2.525l-45.85,61.88c-0.801,1.084 -2.072,1.723 -3.42,1.72" style="fill:rgb(255,214,33);fill-rule:nonzero;"/>        <path d="M37.73,103.78c-0.002,0 -0.003,0 -0.005,0c-2.326,0 -4.24,-1.914 -4.24,-4.24c0,-0.916 0.297,-1.807 0.845,-2.54l29.27,-39.49c0.805,-0.942 1.984,-1.486 3.223,-1.486c2.326,0 4.24,1.914 4.24,4.24c0,0.794 -0.223,1.573 -0.643,2.246l-29.28,39.56c-0.798,1.082 -2.066,1.722 -3.41,1.72" style="fill:rgb(23,28,31);fill-rule:nonzero;"/>        <path d="M13.24,107.17c-2.322,-0.005 -4.23,-1.918 -4.23,-4.24c0,-0.907 0.291,-1.791 0.83,-2.52l21.31,-28.41c0.798,-1.093 2.072,-1.74 3.425,-1.74c2.326,0 4.24,1.914 4.24,4.24c0,0.899 -0.285,1.774 -0.815,2.5l-21.35,28.45c-0.798,1.082 -2.066,1.722 -3.41,1.72" style="fill:rgb(255,214,33);fill-rule:nonzero;"/>    </g></svg>