<?xml version="1.0" encoding="UTF-8" standalone="no"?><!DOCTYPE svg PUBLIC "-//W3C//DTD SVG 1.1//EN" "http://www.w3.org/Graphics/SVG/1.1/DTD/svg11.dtd"><svg width="100%" height="100%" viewBox="0 0 512 512" version="1.1" xmlns="http://www.w3.org/2000/svg" xmlns:xlink="http://www.w3.org/1999/xlink" xml:space="preserve" style="fill-rule:evenodd;clip-rule:evenodd;stroke-linejoin:round;stroke-miterlimit:2;"><title>ZAAR</title><desc>ZAAR is a donation/reward-based crowdfunding platform,to promote entrepreneurship in Malta and support local start-ups. ZAAR offers an alternative to raise finance for their projects and business ideas. Local platform available worldwide.</desc>    <g transform="matrix(1.82736,0,0,1.82613,-232.589,-266.767)">        <g transform="matrix(0.651317,0,0,0.651317,134.188,119.132)">            <path d="M85.198,157.731c-0.576,-0.44 -1.129,-0.91 -1.645,-1.402c-0.53,-0.501 -1.023,-1.039 -1.485,-1.607c-4.98,-6.102 -4.715,-13.25 -2.903,-17.836l19.275,-59.373c0.781,-2.516 1.205,-5.199 1.205,-7.974c0,-6.784 -2.516,-12.969 -6.67,-17.691c0.841,-0.038 94.642,-4.449 148.975,-5.996c54.271,-1.554 137.809,-3.433 138.65,-3.456l7.921,-0.174l7.201,23.122c-0.262,24.317 -13.03,45.308 -29.069,63.007l-162.732,172.859l203.056,-26.093l-24.175,138.598c-59.903,12.652 -244.271,30.728 -287.25,57.299l-67.263,-51.475l-3.828,-2.721c-1.054,-0.743 -25.628,-18.646 -22.118,-55.659c2.584,-27.287 27.219,-50.724 28.257,-51.702l0.129,-0.121l110.916,-97.394l-56.432,-54.196l-0.015,-0.015Zm295.001,-82.105c-4.041,16.335 -15.994,28.538 -15.994,28.538l-209.772,216.36c-0,-0 55.818,-9.718 108.801,-17.252c52.998,-7.519 125.901,-14.258 125.901,-14.258l-42.023,65.846c0,0 -55.59,5.731 -151.915,20.223c-88.404,13.295 -164.93,33.556 -164.93,33.556c-0,0 -20.936,-14.864 -17.934,-46.54c2.251,-23.823 25.142,-45.335 25.142,-45.335l212.911,-186.95c-0,0 -28.099,3.517 -76.261,9.786c-48.162,6.276 -72.744,12.044 -72.744,12.044c0,0 -7.648,1.501 -11.544,-3.267c-3.146,-3.858 -1.251,-8.019 -1.251,-8.019l19.299,-59.896c1.076,-3.449 1.652,-7.125 1.652,-10.923c0,-2.948 -0.349,-5.813 -1.008,-8.565c-0,0 78.823,-3.532 133.701,-5.101c54.878,-1.562 138.598,-3.441 138.598,-3.441c-0,-0 2.63,10.035 -0.629,23.194Z" style="fill:rgb(35,39,33);fill-rule:nonzero;"/>        </g>        <g transform="matrix(4.93689,0,0,4.93689,381.816,370.17)">            <path d="M0,-40.871c-0.533,2.154 -2.11,3.764 -2.11,3.764l-27.675,28.544c0,-0 7.364,-1.283 14.355,-2.275c6.991,-0.994 16.609,-1.883 16.609,-1.883l-5.544,8.687c-0,-0 -7.333,0.758 -20.041,2.669c-11.664,1.753 -21.76,4.426 -21.76,4.426c-0,0 -2.762,-1.961 -2.367,-6.138c0.299,-3.145 3.318,-5.983 3.318,-5.983l28.089,-24.664c-0,0 -3.706,0.464 -10.061,1.292c-6.354,0.827 -9.597,1.588 -9.597,1.588c-0,0 -1.01,0.199 -1.523,-0.43c-0.415,-0.509 -0.165,-1.06 -0.165,-1.06l2.546,-7.901c0.142,-0.455 0.219,-0.938 0.219,-1.44c-0,-0.39 -0.046,-0.768 -0.134,-1.131c0,-0 10.4,-0.464 17.64,-0.672c7.238,-0.206 18.284,-0.454 18.284,-0.454c-0,-0 0.348,1.323 -0.083,3.061" style="fill:rgb(252,181,21);fill-rule:nonzero;"/>        </g>    </g></svg>