<?xml version="1.0" encoding="UTF-8" standalone="no"?><!DOCTYPE svg PUBLIC "-//W3C//DTD SVG 1.1//EN" "http://www.w3.org/Graphics/SVG/1.1/DTD/svg11.dtd"><svg width="100%" height="100%" viewBox="0 0 512 512" version="1.1" xmlns="http://www.w3.org/2000/svg" xmlns:xlink="http://www.w3.org/1999/xlink" xml:space="preserve" style="fill-rule:evenodd;clip-rule:evenodd;stroke-linejoin:round;stroke-miterlimit:2;"><title>Modalku</title><desc>We support SME owners in starting or growing their businesses by providing access to funding from individual as well as institutional lenders.</desc>    <g transform="matrix(21.4956,0,0,21.4956,-1119.61,-1119.7)">        <g transform="matrix(0.215686,0,0,0.215686,50.1922,50.1961)">            <path d="M64,41.22l-22.76,22.78l-22.78,-22.78l22.78,-22.76l22.76,22.76Z" style="fill:rgb(255,181,13);fill-rule:nonzero;"/>        </g>        <g transform="matrix(0.215686,0,0,0.215686,50.1922,50.1961)">            <path d="M64,86.75l-22.76,-22.75l22.76,-22.78" style="fill:rgb(39,227,204);fill-rule:nonzero;"/>        </g>        <g transform="matrix(0.215686,0,0,0.215686,50.1922,50.1961)">            <path d="M64,41.22l22.79,22.78l-22.79,22.75" style="fill:rgb(82,3,233);fill-rule:nonzero;"/>        </g>        <g transform="matrix(0.215686,0,0,0.215686,50.1922,50.1961)">            <path d="M109.57,86.75l-22.78,22.76l-22.79,-22.76l22.8,-22.75l22.77,22.75Z" style="fill:rgb(62,126,255);fill-rule:nonzero;"/>        </g>        <g transform="matrix(0.215686,0,0,0.215686,50.1922,50.1961)">            <path d="M109.56,41.23l-22.78,22.77l22.78,22.77c6.039,-6.033 9.436,-14.229 9.436,-22.765c0,-8.536 -3.397,-16.732 -9.436,-22.765" style="fill:rgb(7,192,166);fill-rule:nonzero;"/>        </g>        <g transform="matrix(0.215686,0,0,0.215686,50.1922,50.1961)">            <path d="M64,41.23l22.79,22.77l22.78,-22.76c-12.5,-12.489 -33.06,-12.489 -45.56,0" style="fill:rgb(39,227,204);fill-rule:nonzero;"/>        </g>        <g transform="matrix(0.215686,0,0,0.215686,50.1922,50.1961)">            <path d="M18.44,86.77l22.77,-22.77l-22.78,-22.76c-6.039,6.033 -9.436,14.229 -9.436,22.765c0,8.536 3.397,16.732 9.436,22.765" style="fill:rgb(82,3,233);fill-rule:nonzero;"/>        </g>        <g transform="matrix(0.215686,0,0,0.215686,50.1922,50.1961)">            <path d="M41.23,18.47l22.77,22.76l22.79,-22.77c-12.5,-12.489 -33.06,-12.489 -45.56,0" style="fill:rgb(255,221,15);fill-rule:nonzero;"/>        </g>        <g transform="matrix(0.215686,0,0,0.215686,50.1922,50.1961)">            <path d="M64,86.77l-22.79,-22.77l-22.77,22.77c12.498,12.494 33.062,12.494 45.56,0" style="fill:rgb(59,3,168);fill-rule:nonzero;"/>        </g>        <g transform="matrix(0.215686,0,0,0.215686,50.1922,50.1961)">            <path d="M86.78,109.53l-22.78,-22.76l-22.79,22.76c12.5,12.489 33.06,12.489 45.56,0" style="fill:rgb(44,80,255);fill-rule:nonzero;"/>        </g>    </g></svg>