<?xml version="1.0" encoding="UTF-8" standalone="no"?><!DOCTYPE svg PUBLIC "-//W3C//DTD SVG 1.1//EN" "http://www.w3.org/Graphics/SVG/1.1/DTD/svg11.dtd"><svg width="100%" height="100%" viewBox="0 0 512 512" version="1.1" xmlns="http://www.w3.org/2000/svg" xmlns:xlink="http://www.w3.org/1999/xlink" xml:space="preserve" style="fill-rule:evenodd;clip-rule:evenodd;stroke-linejoin:round;stroke-miterlimit:2;"><title>Sowefund</title><desc>A long-standing player in participatory investment in startups, Sowefund is a leading platform specializing in financing innovation. In four years of activity, we have supported 35 companies, for more than 17 million euros raised. Our team, specialized in venture capital, analyzes the files and supports startups in their fundraising efforts.</desc>    <g transform="matrix(1.39488,0,0,1.39488,-169.958,-174.785)">        <g transform="matrix(1,0,0,1,0.125309,0)">            <path d="M301.422,491.526c-20.136,1.168 -43.563,-6.589 -43.289,-6.478c-97.24,-31.093 -154.992,-128.869 -129.794,-222.908c17.93,-66.918 74.63,-124.652 165.117,-136.118c-53.156,11.851 -71.945,39.108 -79.427,67.029c-13.004,48.534 18.18,99.058 69.653,112.85c2.844,0.762 31.243,3.353 31.243,3.353c45.804,7.912 80.544,45.603 80.544,90.842c0,51.002 -46.716,88.685 -94.047,91.43Zm1.997,-137.138c-19.471,0.465 -37.19,13.849 -42.56,33.893c-5.374,20.053 3.29,40.513 19.939,50.647l0.331,0.205c3.437,2.095 7.228,3.723 11.304,4.815c23.956,6.419 48.66,-8.097 55.177,-32.422c6.518,-24.325 -7.618,-49.249 -31.574,-55.667c-4.084,-1.095 -8.191,-1.581 -12.227,-1.483l-0.39,0.012Z" style="fill:rgb(119,165,173);"/>        </g>        <g transform="matrix(0.97869,0,0,0.97869,4.14906,5.6048)">            <path d="M307.077,170.123c-25.652,0 -46.447,20.795 -46.447,46.447c0,25.635 20.812,46.448 46.447,46.448c25.653,0 46.448,-20.795 46.448,-46.448l-46.448,0l0,-46.447Z" style="fill:rgb(249,157,28);"/>        </g>    </g></svg>