<?xml version="1.0" encoding="UTF-8" standalone="no"?><!DOCTYPE svg PUBLIC "-//W3C//DTD SVG 1.1//EN" "http://www.w3.org/Graphics/SVG/1.1/DTD/svg11.dtd"><svg width="100%" height="100%" viewBox="0 0 512 512" version="1.1" xmlns="http://www.w3.org/2000/svg" xmlns:xlink="http://www.w3.org/1999/xlink" xml:space="preserve" style="fill-rule:evenodd;clip-rule:evenodd;stroke-linejoin:round;stroke-miterlimit:2;"><title>ViaConto ES</title><desc>VIACONTO  is consumer lending company founded in 2014 that is registered and operating in Spain. Offers short-term consumer lending services:Payday loans - short-term consumer loan up to EUR 600 with a loan term up to 30 days. VIACONTO.es offers fast and convenient lending by ensuring online application process 0% fee for the first loan.</desc>    <g transform="matrix(4.48943,0,0,4.48943,1.00066,1)">        <path d="M0,56.8c0,-31.4 25.4,-56.8 56.8,-56.8c31.4,0 56.8,25.4 56.8,56.8c0,31.4 -25.5,56.8 -56.8,56.8c-31.4,0.1 -56.8,-25.4 -56.8,-56.8Z" style="fill:rgb(211,33,41);fill-rule:nonzero;"/>        <path d="M45.8,38.8l-4.7,0c-1.4,0 -2.6,0.7 -3.5,2l-7.4,21.7l-7.1,-21.7c-0.9,-1.3 -2.2,-2 -4,-2l-4.9,0c-1.4,0 -2.1,0.6 -2.1,1.9c0,0.6 0.1,1 0.3,1.4l11.2,30.7c0.6,1 1.6,1.5 2.8,1.5l6.8,0c1.6,0 2.5,-0.6 2.6,-1.9l11.9,-30.4c0.2,-0.4 0.3,-0.9 0.3,-1.4c0,-1.1 -0.7,-1.8 -2.2,-1.8" style="fill:white;fill-rule:nonzero;"/>        <path d="M60.5,39l-3.2,0c-3,0 -4.4,1.5 -4.4,4.6l0,28.8c0,1.4 0.7,2.1 2.1,2.1l5.6,0c1.4,0 2.1,-0.7 2.1,-2.1l0,-31.4c-0.2,-1.3 -0.9,-2 -2.2,-2" style="fill:white;fill-rule:nonzero;"/>        <path d="M57.7,24.1c-3.7,0 -5.5,1.9 -5.5,5.7c0,3.7 1.8,5.5 5.5,5.5c3.7,0 5.5,-1.8 5.5,-5.5c0,-3.8 -1.9,-5.7 -5.5,-5.7" style="fill:white;fill-rule:nonzero;"/>        <path d="M92.4,66c-1.5,0.3 -3.5,0.4 -5.9,0.4c-4.7,0 -7,-1 -7,-2.9c0,-1.3 0.8,-2.1 2.5,-2.4l10.4,-2l0,6.9Zm-5.9,-27.4c-5.1,0 -7.9,0 -8.6,0.1c-3.9,0.5 -5.8,2 -5.8,4.4c0,1.9 0,2.9 0.1,3c0.2,1.3 0.9,1.9 1.9,1.9c0.1,-0.1 0.2,-0.1 0.3,-0.1l3.5,-0.4c2.3,-0.2 5,-0.4 8.1,-0.4c1.9,0 3.2,0.1 4,0.4c1.5,0.5 2.2,1.4 2.2,2.9c0,0 0.1,0 0.1,0.1c-0.7,0.3 -2.4,0.7 -5,1.2c-4.8,0.9 -7.4,1.4 -7.8,1.5c-6.7,1.7 -10,5.1 -10,10.3c0,7.6 5.5,11.3 16.4,11.3c5,0 9.2,-0.3 12.6,-1c2.3,-0.4 3.5,-1.8 3.5,-4.1l0,-17.7c0.1,-8.9 -5.1,-13.4 -15.5,-13.4" style="fill:white;fill-rule:nonzero;"/>    </g></svg>