<?xml version="1.0" encoding="UTF-8" standalone="no"?><!DOCTYPE svg PUBLIC "-//W3C//DTD SVG 1.1//EN" "http://www.w3.org/Graphics/SVG/1.1/DTD/svg11.dtd"><svg width="100%" height="100%" viewBox="0 0 512 512" version="1.1" xmlns="http://www.w3.org/2000/svg" xmlns:xlink="http://www.w3.org/1999/xlink" xml:space="preserve" style="fill-rule:evenodd;clip-rule:evenodd;stroke-linejoin:round;stroke-miterlimit:2;"><title>Lendable</title><desc>Lendable allows qualified investors to invest in consumer loans originated through the platform.Unlike traditional retail lending platforms, Lendable exclusively works with selected institutional and sophisticated investors to build a better, more streamlined customer experience for a wider audience of borrowers.</desc>    <g>        <g transform="matrix(1.03448,0,0,1.05809,-7.27586,-14.8714)">            <path d="M501,38.909c0,-13.196 -10.958,-23.909 -24.454,-23.909l-444.092,0c-13.496,0 -24.454,10.713 -24.454,23.909l0,434.182c0,13.196 10.958,23.909 24.454,23.909l444.092,0c13.496,0 24.454,-10.713 24.454,-23.909l0,-434.182Z" style="fill:rgb(0,9,49);"/>        </g>        <g transform="matrix(0.868932,0,0,0.868932,26.3932,46.4911)">            <g transform="matrix(1.0326,0,0,1.0326,-526.386,249.741)">                <path d="M703.9,67.3l-25.2,0l0,-67.3l-22.2,0l0,210.4c8.9,5.6 28.3,9.9 46.4,9.9c41,0 74.5,-25 74.5,-74.4c0,-47.4 -32.8,-78.6 -73.5,-78.6Zm-1.8,133.5c-7.5,0 -18.9,-1.5 -23.4,-4l0,-110l23.7,0c28.3,0 52.1,21 52.1,58.4c0,33.9 -19.6,55.6 -52.4,55.6Z" style="fill:white;fill-rule:nonzero;"/>            </g>            <g transform="matrix(1.0326,0,0,1.0326,-526.386,249.741)">                <path d="M987.8,142.4c0,-46 -19.3,-75.1 -55.5,-75.1c-34.7,0 -57.9,30.6 -57.9,75.1c0,42.6 22.3,77.8 67.2,77.8c16,0 33.3,-4.6 45.7,-13l-7.2,-16.1c-9.6,5.6 -21.7,10.4 -34.9,10.4c-30.4,0 -47,-21.5 -47.6,-52.6l90.1,0l0,-6.5l0.1,0Zm-89.8,-9c0.3,-24.5 13.9,-44.5 35.6,-44.5c22.6,0 33.2,20 33.5,44.5l-69.1,0Z" style="fill:white;fill-rule:nonzero;"/>            </g>            <g transform="matrix(1,0,0,1,1,-137.259)">                <path d="M491.348,142.259l0,71.146l40.038,0l0,17.591l-40.038,-0.243l0,127.423c-9.19,5.782 -26.847,10.222 -45.538,10.222c-42.336,0 -75.689,-25.815 -75.689,-76.825c0,-48.842 33.043,-81.059 75.07,-81.059l23.233,0l0,-68.255l22.924,0Zm-22.82,201.976c-6.919,2.582 -13.527,4.131 -21.375,4.131c-33.973,0 -53.282,-22.304 -53.282,-57.413c0,-38.619 23.337,-60.303 52.559,-60.303l22.098,0l0,113.585Z" style="fill:white;"/>            </g>            <g transform="matrix(1.15084,0,0,1.15084,-31.5252,-36.4302)">                <path d="M82.669,310.484c26.559,0 43.876,11.934 43.876,43.248l0,45.221c0,25.752 2.512,41.364 4.127,47.286l-17.586,0l-3.858,-15.971c-9.96,9.69 -22.521,16.061 -38.493,16.061c-23.328,0 -40.735,-15.254 -40.735,-40.467c0,-17.406 8.434,-29.34 21.444,-35.441c8.704,-4.397 18.574,-5.833 31.584,-6.371l23.598,-0.807l0,-8.345c0,-19.919 -12.113,-28.802 -28.084,-28.802l-48.542,-0.327l0,-15.285l52.669,0Zm23.957,101.39l0,-33.288l-21.804,0.807c-11.126,0.269 -17.765,1.974 -23.418,5.025c-7.358,4.127 -11.305,11.574 -11.305,20.188c0,14.446 8.793,24.406 23.418,24.406c15.971,0 27.097,-10.768 33.109,-17.138Z" style="fill:white;fill-rule:nonzero;"/>            </g>            <g transform="matrix(1.0326,0,0,1.0326,3,5)">                <path d="M34.8,200c-7.5,0 -12.6,-3.4 -12.6,-15.4l0,-184.6l-22.2,0l0,191.7c0,17.6 10.2,28.4 28.3,28.4c6.6,0 14.9,-1.5 20.7,-4.3l-5.2,-18c-2.1,1 -6.6,2.2 -9,2.2Z" style="fill:white;fill-rule:nonzero;"/>            </g>            <g transform="matrix(1.0326,0,0,1.0326,3,5)">                <path d="M127.7,66.1c-34.7,0 -57.9,30.6 -57.9,75.1c0,42.6 22.3,77.8 67.2,77.8c16,0 33.3,-4.6 45.7,-13l-7.2,-16.1c-9.6,5.6 -21.7,11 -34.9,11c-30.4,0 -47,-20.9 -47.6,-52l90.3,0l0,-7.7c0,-46 -19.4,-75.1 -55.6,-75.1Zm-34.4,67.3c0.3,-24.5 13.9,-44.5 35.6,-44.5c22.6,0 33.2,20 33.5,44.5l-69.1,0Z" style="fill:white;fill-rule:nonzero;"/>            </g>            <g transform="matrix(1.0326,0,0,1.0326,3,5)">                <path d="M287.2,68.3c-18.4,0 -33.5,10.7 -49.2,24.3l-1.9,-17.1l-21.7,0l0,144.5l22.3,0l0,-109.4c13.3,-12 29.3,-21.9 45.3,-21.9c20.2,0 26.5,17.2 26.5,39.1l0.7,92.3l18.7,0l0,-100.5c-0.1,-36.8 -18.4,-51.3 -40.7,-51.3Z" style="fill:white;fill-rule:nonzero;"/>            </g>            <g transform="matrix(1.0326,0,0,1.0326,-526.386,249.741)">                <path d="M846.4,198.9c-7.5,0 -12,-3.4 -12,-15.4l0,-183.5l-20.2,0l0,191.9c0,17.6 8.7,27.8 26.8,27.8c6.6,0 14.2,-1.9 19.9,-4.6l-5.2,-18.1c-2.1,0.8 -6.9,1.9 -9.3,1.9Z" style="fill:white;fill-rule:nonzero;"/>            </g>        </g>    </g></svg>