<?xml version="1.0" encoding="UTF-8" standalone="no"?><!DOCTYPE svg PUBLIC "-//W3C//DTD SVG 1.1//EN" "http://www.w3.org/Graphics/SVG/1.1/DTD/svg11.dtd"><svg width="100%" height="100%" viewBox="0 0 512 512" version="1.1" xmlns="http://www.w3.org/2000/svg" xmlns:xlink="http://www.w3.org/1999/xlink" xml:space="preserve" style="fill-rule:evenodd;clip-rule:evenodd;stroke-linejoin:round;stroke-miterlimit:2;"><title>FSMA</title><desc></desc>    <g transform="matrix(1.21429,0,0,1.21429,-342.098,-54.8571)">        <rect x="282.551" y="46" width="420" height="420" style="fill:rgb(0,34,68);"/>        <g transform="matrix(1,0,0,1,-1,2)">            <path d="M643.556,217.521c5.734,0.701 9.071,8.051 4.733,12.797l-180.001,179c-4.337,3.921 -12.352,1.288 -12.77,-4.804c-0.115,-1.668 0.342,-3.353 1.283,-4.735c0.357,-0.526 0.483,-0.63 0.91,-1.097l180.001,-179c2.443,-2.209 2.494,-2.25 5.844,-2.161Z" style="fill:rgb(170,204,0);"/>        </g>        <g transform="matrix(105.412,0,0,105.412,331.14,175.879)">            <path d="M0.181,-0.352l0.348,0c0.025,0 0.039,-0.019 0.039,-0.042c0,-0.025 -0.013,-0.043 -0.039,-0.043l-0.348,0l0,-0.216c0,-0.02 0.012,-0.032 0.031,-0.032l0.373,0c0.027,0 0.041,-0.019 0.041,-0.044c0,-0.025 -0.014,-0.043 -0.041,-0.043l-0.397,0c-0.071,0 -0.102,0.03 -0.102,0.107l0,0.635c0,0.029 0.02,0.043 0.047,0.043c0.028,0 0.048,-0.014 0.048,-0.042l0,-0.323Z" style="fill:white;fill-rule:nonzero;"/>        </g>        <g transform="matrix(105.412,0,0,105.412,399.974,175.879)">            <path d="M0.308,-0.449c-0.112,-0.022 -0.147,-0.059 -0.147,-0.131c0,-0.066 0.053,-0.124 0.169,-0.124c0.111,0 0.153,0.056 0.169,0.113c0.008,0.021 0.026,0.029 0.044,0.029c0.006,0 0.012,-0.001 0.017,-0.002c0.02,-0.004 0.037,-0.019 0.037,-0.04c0,-0.005 -0.001,-0.01 -0.003,-0.015c-0.022,-0.072 -0.084,-0.168 -0.264,-0.168c-0.188,0 -0.266,0.102 -0.266,0.207c0,0.131 0.068,0.188 0.218,0.219l0.08,0.017c0.118,0.024 0.163,0.06 0.163,0.142c0,0.086 -0.071,0.141 -0.185,0.141c-0.146,0 -0.179,-0.075 -0.197,-0.142c-0.006,-0.021 -0.025,-0.03 -0.044,-0.03c-0.006,0 -0.011,0.001 -0.017,0.002c-0.021,0.005 -0.038,0.02 -0.038,0.042c0,0.004 0.001,0.008 0.002,0.013c0.024,0.081 0.071,0.199 0.299,0.199c0.179,0 0.278,-0.097 0.278,-0.226c0,-0.145 -0.085,-0.198 -0.241,-0.231l-0.074,-0.015Z" style="fill:white;fill-rule:nonzero;"/>        </g>        <g transform="matrix(105.412,0,0,105.412,470.705,175.879)">            <path d="M0.539,-0.244c0,0 0.231,-0.385 0.25,-0.449c-0.004,0.068 -0.016,0.247 -0.016,0.389l0,0.277c0,0.027 0.02,0.04 0.047,0.04c0.026,0 0.046,-0.013 0.046,-0.04l0,-0.692c0,-0.036 -0.026,-0.059 -0.063,-0.059c-0.044,0 -0.067,0.015 -0.083,0.055c0,0 -0.234,0.391 -0.244,0.435c-0.009,-0.043 -0.246,-0.437 -0.246,-0.437c-0.015,-0.037 -0.036,-0.053 -0.08,-0.053c-0.038,0 -0.064,0.023 -0.064,0.059l0,0.692c0,0.027 0.019,0.04 0.046,0.04c0.028,0 0.047,-0.013 0.047,-0.04l0,-0.278c0,-0.141 -0.012,-0.322 -0.015,-0.387c0.019,0.062 0.247,0.447 0.247,0.447c0.014,0.035 0.033,0.047 0.064,0.047c0.032,0 0.05,-0.012 0.064,-0.046Z" style="fill:white;fill-rule:nonzero;"/>        </g>        <g transform="matrix(105.412,0,0,105.412,571.268,175.879)">            <path d="M0.205,-0.221l0.346,0l0.079,0.207c0.007,0.019 0.023,0.028 0.041,0.028c0.006,0 0.012,-0.001 0.018,-0.003c0.02,-0.005 0.036,-0.02 0.036,-0.04c0,-0.006 -0.001,-0.011 -0.004,-0.017l-0.272,-0.685c-0.013,-0.034 -0.039,-0.047 -0.071,-0.047c-0.031,0 -0.056,0.013 -0.069,0.047l-0.272,0.683c-0.002,0.006 -0.003,0.011 -0.003,0.017c0,0.019 0.015,0.036 0.035,0.041c0.007,0.002 0.013,0.003 0.02,0.003c0.017,0 0.032,-0.008 0.039,-0.028l0.077,-0.206Zm0.03,-0.084l0.113,-0.29c0.012,-0.03 0.022,-0.062 0.031,-0.096c0.009,0.034 0.02,0.066 0.031,0.095l0.111,0.291l-0.286,0Z" style="fill:white;fill-rule:nonzero;"/>        </g>    </g></svg>