<?xml version="1.0" encoding="UTF-8" standalone="no"?><!DOCTYPE svg PUBLIC "-//W3C//DTD SVG 1.1//EN" "http://www.w3.org/Graphics/SVG/1.1/DTD/svg11.dtd"><svg width="100%" height="100%" viewBox="0 0 512 512" version="1.1" xmlns="http://www.w3.org/2000/svg" xmlns:xlink="http://www.w3.org/1999/xlink" xml:space="preserve" style="fill-rule:evenodd;clip-rule:evenodd;stroke-linejoin:round;stroke-miterlimit:2;"><title>FinanceAds</title><desc></desc>    <g transform="matrix(15.0929,0,0,0.447093,-3588.12,-280.276)">        <g transform="matrix(0.767845,0,0,25.9209,-1397.59,-7350.96)">            <path d="M2170.98,307.886c1.474,0.171 1.679,0.589 2.093,1.066c1.029,1.185 1.106,2.878 -0.11,4.217l-26.711,27.711c-1.729,1.69 -2.387,1.144 -3.414,0.731c-1.881,-0.755 -2.561,-3.444 -1.086,-5.068l26.711,-27.712c0.666,-0.651 1.553,-0.998 2.517,-0.945Z" style="fill:rgb(87,90,95);"/>        </g>        <g transform="matrix(0.767845,0,0,25.9209,-1397.59,-7350.96)">            <path d="M2169.92,321.394c0.12,0.614 0.19,1.243 0.202,1.883c0.036,6.113 0.613,12.319 -0.074,18.321c-0.628,5.483 -5.555,10.116 -11.326,10.227c-5.816,0.036 -11.632,0.037 -17.447,0c-5.947,-0.114 -11.279,-5.171 -11.401,-11.401c-0.034,-5.716 -0.034,-11.432 0,-17.147c0.117,-5.963 5.266,-11.286 11.401,-11.401c5.815,-0.037 11.631,-0.037 17.446,0c0.484,0.009 0.963,0.051 1.436,0.125l-5.889,6.109c-4.278,-0.005 -8.557,0.015 -12.835,0.015c-2.769,0.018 -5.255,2.435 -5.31,5.231c-0.033,5.686 -0.11,11.372 0.002,17.057c0.085,2.713 2.486,5.11 5.229,5.162c5.786,0.037 11.572,0.109 17.357,-0.001c2.714,-0.086 5.108,-2.489 5.162,-5.23c0.024,-4.243 0.073,-8.486 0.05,-12.729l5.997,-6.221Z" style="fill:rgb(212,14,49);"/>        </g>    </g></svg>