<?xml version="1.0" encoding="UTF-8" standalone="no"?><!DOCTYPE svg PUBLIC "-//W3C//DTD SVG 1.1//EN" "http://www.w3.org/Graphics/SVG/1.1/DTD/svg11.dtd"><svg width="100%" height="100%" viewBox="0 0 512 512" version="1.1" xmlns="http://www.w3.org/2000/svg" xmlns:xlink="http://www.w3.org/1999/xlink" xml:space="preserve" style="fill-rule:evenodd;clip-rule:evenodd;stroke-linejoin:round;stroke-miterlimit:2;"><title>Finansowo</title><desc>Finansowo.pl is a project introducing the idea of "social lending" to the Polish market. In the simplest terms, our service enables the granting of loans between individuals without the intermediation of banks - offering customers speed, simplicity and convenience.</desc>    <g>        <g transform="matrix(1.31499,0,0,5.45236,-139.23,-404.643)">            <path d="M483.066,79.883c0,-1.509 -5.08,-2.734 -11.338,-2.734l-342.344,0c-6.257,0 -11.338,1.225 -11.338,2.734l0,82.566c0,1.51 5.081,2.735 11.338,2.735l342.344,0c6.258,0 11.338,-1.225 11.338,-2.735l0,-82.566Z" style="fill:url(#_Linear1);"/>        </g>        <g transform="matrix(328.373,0,0,368.109,155.189,386.311)">            <path d="M0.185,0l-0.099,0l0,-0.708l0.442,0l0,0.087l-0.343,0l0,0.22l0.321,0l0,0.085l-0.321,0l0,0.316Z" style="fill:white;fill-rule:nonzero;"/>        </g>    </g>    <defs>        <linearGradient id="_Linear1" x1="0" y1="0" x2="1" y2="0" gradientUnits="userSpaceOnUse" gradientTransform="matrix(342.41,0,0,342.41,126.519,124.554)"><stop offset="0" style="stop-color:rgb(7,127,74);stop-opacity:1"/><stop offset="1" style="stop-color:rgb(26,139,95);stop-opacity:1"/></linearGradient>    </defs></svg>