<?xml version="1.0" encoding="UTF-8" standalone="no"?><!DOCTYPE svg PUBLIC "-//W3C//DTD SVG 1.1//EN" "http://www.w3.org/Graphics/SVG/1.1/DTD/svg11.dtd"><svg width="100%" height="100%" viewBox="0 0 512 512" version="1.1" xmlns="http://www.w3.org/2000/svg" xmlns:xlink="http://www.w3.org/1999/xlink" xml:space="preserve" style="fill-rule:evenodd;clip-rule:evenodd;stroke-linejoin:round;stroke-miterlimit:2;"><title>MarketFinance</title><desc>At MarketFinance, we believe UK businesses are building the world we all want to live in, piece by piece. And we know that building an idea, a product, a team, a business – the world – isn’t easy. We’ve been there. We are there. We get it. But running a business on your own terms, doesn’t mean having to go it alone. We know first-hand that success lives within the people and partnerships that surround you. And whether success means disrupting an industry or simply getting that order out on time, you should have a choice of how to fund your business.</desc>    <g transform="matrix(2.01475,0,0,2.01475,27.5473,0.98564)">        <path d="M19.39,253.14c10.637,0 19.39,-8.753 19.39,-19.39l0,-137.42l57.43,106.72c-2.986,-5.695 -2.949,-12.518 0.1,-18.18l3.87,-7.18l-76.91,-142.91l0,199c0,2.129 -1.751,3.88 -3.88,3.88c-2.129,0 -3.88,-1.751 -3.88,-3.88l0,-214.39c0.006,-2.124 1.756,-3.869 3.88,-3.869c1.421,0 2.732,0.78 3.41,2.029l81.78,152l8.81,-16.37l-76.93,-142.98c-3.378,-6.269 -9.948,-10.193 -17.07,-10.193c-10.634,0 -19.386,8.749 -19.39,19.383l0,214.36c0,10.637 8.753,19.39 19.39,19.39Z" style="fill:rgb(0,205,190);fill-rule:nonzero;"/>        <path d="M226.77,233.75l0,-214.36c-0.004,-10.634 -8.756,-19.383 -19.39,-19.383c-7.122,0 -13.692,3.924 -17.07,10.193l-94,174.67c-1.589,2.873 -2.423,6.103 -2.423,9.386c0,10.637 8.753,19.39 19.39,19.39c7.207,0 13.844,-4.019 17.183,-10.406l57.54,-106.91l0,137.42c0,10.637 8.753,19.39 19.39,19.39c10.637,0 19.39,-8.753 19.39,-19.39l-0.01,0Zm-23.26,0l0,-199l-86.71,161.14c-0.648,1.334 -2.007,2.184 -3.49,2.184c-2.128,0 -3.88,-1.751 -3.88,-3.88c0,-0.694 0.187,-1.376 0.54,-1.974l94.03,-174.67c0.678,-1.249 1.989,-2.029 3.41,-2.029c2.124,0 3.874,1.745 3.88,3.869l0,214.36c0.003,0.066 0.005,0.131 0.005,0.197c0,2.128 -1.751,3.88 -3.88,3.88c-2.129,0 -3.88,-1.752 -3.88,-3.88c0,-0.066 0.002,-0.131 0.005,-0.197l-0.03,0Z" style="fill:rgb(0,16,97);fill-rule:nonzero;"/>    </g></svg>