<?xml version="1.0" encoding="UTF-8" standalone="no"?><!DOCTYPE svg PUBLIC "-//W3C//DTD SVG 1.1//EN" "http://www.w3.org/Graphics/SVG/1.1/DTD/svg11.dtd"><svg width="100%" height="100%" viewBox="0 0 512 512" version="1.1" xmlns="http://www.w3.org/2000/svg" xmlns:xlink="http://www.w3.org/1999/xlink" xml:space="preserve" style="fill-rule:evenodd;clip-rule:evenodd;stroke-linejoin:round;stroke-miterlimit:2;"><title>Bulkestate</title><desc>Bulkestate work with real-estate projects in all three Baltic states. We offer to earn with us, by investing funds in real-estate projects with annual return on investment of up to 15% and profit withdrawal period from 3 to 24 months.As other self-recommending crowdfunding platforms, Bulkestate offers absolutely simple and reliable cooperation terms. Funds of our clients are protected and their return is guaranteed under any circumstances, because a mortgage is placed, based on the return quality of the object. </desc>    <g id="Bulkestate" transform="matrix(4.63606,0,0,4.63606,-40.7245,-40.8089)">        <path d="M80.59,44.21l-10.92,0l0,-11l10.92,0l0,11Zm0,13.53l-10.92,0l0,11l10.92,0l0,-11Zm0,26l-10.92,0l0,11l10.92,0l0,-11Z" style="fill:rgb(247,176,33);fill-rule:nonzero;"/>        <path d="M69.67,44.21l-60.67,0l0,-11l60.67,0l0,11Zm0,13.53l-60.67,0l0,11l60.67,0l0,-11Zm0,26l-60.67,0l0,11l60.67,0l0,-11Z" style="fill:rgb(65,207,172);fill-rule:nonzero;"/>        <path d="M116.66,67.7c-1.326,-2.043 -3.021,-3.82 -5,-5.24c0.593,-0.378 1.141,-0.824 1.63,-1.33c0.741,-0.735 1.41,-1.539 2,-2.4c0.736,-1.08 1.309,-2.263 1.7,-3.51c0.49,-1.514 0.729,-3.099 0.71,-4.69c-0.027,-1.931 -0.365,-3.846 -1,-5.67c-0.707,-2.075 -1.83,-3.984 -3.3,-5.61c-1.69,-1.859 -3.76,-3.332 -6.07,-4.32c-2.976,-1.235 -6.18,-1.825 -9.4,-1.73l-17.34,0l0,11l16.41,0c3.05,0 5.27,0.59 6.69,1.73c1.489,1.247 2.3,3.131 2.18,5.07c0.125,1.92 -0.652,3.793 -2.1,5.06c-1.39,1.14 -3.64,1.73 -6.69,1.73l-16.46,0l0,11l17.17,0c3.11,0 5.43,0.71 7,2.13c1.538,1.391 2.394,3.387 2.34,5.46c0.085,2.043 -0.74,4.022 -2.25,5.4c-1.48,1.39 -3.85,2.07 -7.09,2.07l-17.17,0l0,11l19.38,0c2.828,0.054 5.636,-0.502 8.23,-1.63c2.271,-0.989 4.314,-2.436 6,-4.25c1.539,-1.754 2.739,-3.778 3.54,-5.97c0.813,-2.119 1.23,-4.37 1.23,-6.64c0.094,-3.054 -0.721,-6.069 -2.34,-8.66Z" style="fill:rgb(19,34,45);fill-rule:nonzero;"/>    </g></svg>