<?xml version="1.0" encoding="UTF-8" standalone="no"?><!DOCTYPE svg PUBLIC "-//W3C//DTD SVG 1.1//EN" "http://www.w3.org/Graphics/SVG/1.1/DTD/svg11.dtd"><svg width="100%" height="100%" viewBox="0 0 512 512" version="1.1" xmlns="http://www.w3.org/2000/svg" xmlns:xlink="http://www.w3.org/1999/xlink" xml:space="preserve" style="fill-rule:evenodd;clip-rule:evenodd;stroke-linejoin:round;stroke-miterlimit:2;"><title>Triple Point Advancr</title><desc>Triple Point is an independently owned alternative investment manager established in 2004 and currently managing over £1.4 billion of private and institutional capital with a staff of over 110.The Group offers a range of investment strategies in asset classes such as real estate, infrastructure, venture capital, and private debt (direct lending).</desc>    <g transform="matrix(0.999209,0,0,1,1,9)">        <g transform="matrix(4.1355,0,0,4.00408,0,-8)">            <rect x="0" y="0" width="123.42" height="127.37" style="fill:url(#_Linear1);fill-rule:nonzero;"/>        </g>        <g transform="matrix(4.00576,0,0,4.00408,8.00634,-9.52155)">            <path d="M78.64,25.13l-33.87,0c-7.159,0.011 -13.045,5.901 -13.05,13.06c0,36 25.31,60.38 26.39,61.4l3.6,3.41l3.59,-3.41c1.07,-1 26.32,-25.38 26.39,-61.26l0,-0.14c-0.005,-7.159 -5.891,-13.049 -13.05,-13.06m13,13.57l0,0.34c0,-0.24 0,-0.46 0.06,-0.69l-0.06,0.35Z" style="fill:white;fill-rule:nonzero;"/>        </g>        <g transform="matrix(4.00576,0,0,4.00408,8.12651,-8.64065)">            <path d="M79.76,28.93l-15.27,0c-0.753,0.016 -1.365,0.637 -1.37,1.39l1.39,32c0,0.763 0.627,1.39 1.39,1.39c0.514,0.009 0.995,-0.263 1.25,-0.71l8.55,-23.33c0.177,-0.584 0.72,-0.986 1.33,-0.986c0.763,0 1.39,0.627 1.39,1.39c0,0.005 0,0.011 0,0.016c-0.004,0.129 -0.024,0.256 -0.06,0.38l-11,43c-3.655,-1.513 -7.765,-1.513 -11.42,0l-11,-43c0.001,-0.135 0.022,-0.27 0.06,-0.4c0.008,-0.757 0.633,-1.375 1.39,-1.375c0.598,0 1.133,0.387 1.32,0.955l8.57,23.35c0.236,0.467 0.717,0.762 1.24,0.762c0.76,0 1.386,-0.623 1.39,-1.382l1.39,-32c0.034,-0.752 -0.549,-1.402 -1.3,-1.45l-15.39,0c-4.586,0 -8.36,3.774 -8.36,8.36c0,36.41 26.43,61.47 26.43,61.47c0,0 26.38,-25 26.43,-61.38l0,-0.09c0,-4.586 -3.774,-8.36 -8.36,-8.36" style="fill:rgb(44,85,155);fill-rule:nonzero;"/>        </g>    </g>    <defs>        <linearGradient id="_Linear1" x1="0" y1="0" x2="1" y2="0" gradientUnits="userSpaceOnUse" gradientTransform="matrix(137.93,0,0,137.93,0,63.68)"><stop offset="0" style="stop-color:rgb(32,38,62);stop-opacity:1"/><stop offset="0.18" style="stop-color:rgb(33,43,72);stop-opacity:1"/><stop offset="0.49" style="stop-color:rgb(38,57,99);stop-opacity:1"/><stop offset="0.89" style="stop-color:rgb(44,78,142);stop-opacity:1"/><stop offset="1" style="stop-color:rgb(46,85,155);stop-opacity:1"/></linearGradient>    </defs></svg>