<?xml version="1.0" encoding="UTF-8" standalone="no"?><!DOCTYPE svg PUBLIC "-//W3C//DTD SVG 1.1//EN" "http://www.w3.org/Graphics/SVG/1.1/DTD/svg11.dtd"><svg width="100%" height="100%" viewBox="0 0 512 512" version="1.1" xmlns="http://www.w3.org/2000/svg" xmlns:xlink="http://www.w3.org/1999/xlink" xml:space="preserve" style="fill-rule:evenodd;clip-rule:evenodd;stroke-linejoin:round;stroke-miterlimit:2;"><title>Transcendent Real Estate</title><desc>Transcendent Real Estate (TRE) is the first Commercial Property Crowd Funding Platform in the UK to allow direct equity investment in specific real estate investments. We seek to offer returns secured against real estate with strong fundamentals secured on long term leases, targeting minimum returns of 5% per annum upwards*. TRE invest its own capital into each investment alongside your money.</desc>    <g transform="matrix(0.844735,0,0,0.844735,-8.52184,34.4353)">        <g transform="matrix(-508.928,0,0,508.928,293.727,493.357)">            <path d="M0.074,0l0,-0.7l0.23,0c0.069,0 0.125,0.02 0.168,0.061c0.043,0.041 0.064,0.093 0.064,0.157c0,0.053 -0.014,0.098 -0.041,0.135c-0.027,0.037 -0.066,0.062 -0.115,0.075l0.175,0.272l-0.14,0l-0.166,-0.264l-0.055,0l0,0.264l-0.12,0Zm0.215,-0.378c0.039,0 0.07,-0.009 0.092,-0.027c0.022,-0.017 0.033,-0.043 0.033,-0.077c0,-0.034 -0.011,-0.06 -0.033,-0.078c-0.022,-0.017 -0.053,-0.026 -0.092,-0.026l-0.095,0l0,0.208l0.095,0Z" style="fill:rgb(57,57,57);fill-rule:nonzero;"/>        </g>        <g transform="matrix(3.50368,0,0,3.50368,-28.2214,-78.1675)">            <path d="M125.648,61.443l0,101.678l57.458,0l0,-14.436l-40.137,0l0,-31.28l37.344,0l0,-13.941l-37.612,0l0,-27.721l40.887,0l0,-14.3l-57.94,0Z" style="fill:rgb(57,57,57);"/>        </g>        <g transform="matrix(3.50368,0,0,3.50368,-28.2214,-78.1675)">            <path d="M23.6,31.221l0,16.616l71.277,0l0,115.284l17.236,0l0,-115l71.475,0l0,-16.656l-159.988,-0.244Z" style="fill:rgb(255,194,17);"/>        </g>    </g></svg>