<?xml version="1.0" encoding="UTF-8" standalone="no"?><!DOCTYPE svg PUBLIC "-//W3C//DTD SVG 1.1//EN" "http://www.w3.org/Graphics/SVG/1.1/DTD/svg11.dtd"><svg width="100%" height="100%" viewBox="0 0 512 512" version="1.1" xmlns="http://www.w3.org/2000/svg" xmlns:xlink="http://www.w3.org/1999/xlink" xml:space="preserve" style="fill-rule:evenodd;clip-rule:evenodd;stroke-linejoin:round;stroke-miterlimit:2;"><title>Cardec</title><desc>"Cardec Factoring" was established in 2018 and it focuses on providing financial products to lawyers and is planning to expand into regular factoring. The founders of Cardec Factoring have been thinking about this product since 2013 and they have finally launched started providing its services in 2019. Their current product has a state-owned agency Raad voor Rechtsbijstand (Legal Aid Board) as the payer of the promissory notes. The maximum term of these promissory notes is 400 days, but on average they are usually covered in 80 days when the court decision is reached.</desc>    <g transform="matrix(3.80922,0,0,3.80922,-623.132,-57.2172)">        <g transform="matrix(0.262275,0,0,0.278942,162.091,12.0844)">            <path d="M517.177,42.534c0,-17.146 -14.805,-31.066 -33.041,-31.066l-444.396,0c-18.236,0 -33.041,13.92 -33.041,31.066l0,417.844c0,17.146 14.805,31.066 33.041,31.066l444.396,0c18.236,0 33.041,-13.92 33.041,-31.066l0,-417.844Z" style="fill:rgb(24,57,138);"/>        </g>        <g transform="matrix(149.537,0,0,149.537,176.957,131.573)">            <path d="M0.044,-0.326c0,-0.056 0.011,-0.107 0.035,-0.152c0.022,-0.045 0.053,-0.083 0.091,-0.113c0.037,-0.029 0.078,-0.05 0.124,-0.064c0.045,-0.014 0.094,-0.021 0.146,-0.021c0.013,0 0.028,0.001 0.044,0.002c0.015,0.001 0.031,0.003 0.047,0.005c0.016,0.002 0.031,0.005 0.046,0.008c0.015,0.003 0.028,0.006 0.04,0.009c0.006,0.001 0.011,0.002 0.015,0.004c0.004,0.001 0.008,0.001 0.013,0c0.001,0.011 0.002,0.031 0.004,0.059c0.003,0.028 0.006,0.057 0.01,0.088c-0.003,0.003 -0.007,0.005 -0.013,0.006c-0.006,0.001 -0.011,-0.001 -0.014,-0.004c-0.004,-0.017 -0.01,-0.035 -0.018,-0.052c-0.008,-0.017 -0.02,-0.033 -0.035,-0.047c-0.016,-0.014 -0.036,-0.025 -0.061,-0.034c-0.025,-0.009 -0.055,-0.013 -0.091,-0.013c-0.038,0 -0.074,0.006 -0.109,0.019c-0.034,0.012 -0.064,0.031 -0.09,0.056c-0.026,0.025 -0.047,0.056 -0.062,0.094c-0.015,0.038 -0.022,0.083 -0.022,0.135c0,0.053 0.008,0.099 0.023,0.14c0.016,0.04 0.037,0.074 0.064,0.102c0.027,0.027 0.058,0.048 0.094,0.063c0.037,0.014 0.075,0.021 0.116,0.021c0.032,0 0.06,-0.005 0.083,-0.014c0.024,-0.009 0.044,-0.021 0.061,-0.035c0.017,-0.015 0.03,-0.03 0.041,-0.047c0.01,-0.017 0.018,-0.032 0.024,-0.047c0.003,-0.003 0.008,-0.003 0.014,-0.002c0.006,0.001 0.01,0.003 0.012,0.006c-0.002,0.013 -0.005,0.026 -0.009,0.041c-0.003,0.014 -0.007,0.027 -0.012,0.04c-0.005,0.013 -0.009,0.024 -0.014,0.034c-0.005,0.01 -0.009,0.017 -0.013,0.022c-0.006,0.001 -0.012,0.003 -0.018,0.005c-0.006,0.001 -0.012,0.003 -0.017,0.005c-0.005,0.002 -0.014,0.004 -0.025,0.007c-0.011,0.003 -0.024,0.005 -0.038,0.008c-0.015,0.002 -0.03,0.004 -0.046,0.006c-0.017,0.001 -0.033,0.002 -0.049,0.002c-0.045,0 -0.089,-0.005 -0.131,-0.015c-0.042,-0.01 -0.081,-0.027 -0.118,-0.052c-0.04,-0.027 -0.074,-0.064 -0.101,-0.109c-0.027,-0.046 -0.041,-0.101 -0.041,-0.166Z" style="fill:rgb(194,209,249);fill-rule:nonzero;"/>        </g>    </g></svg>