<?xml version="1.0" encoding="UTF-8" standalone="no"?><!DOCTYPE svg PUBLIC "-//W3C//DTD SVG 1.1//EN" "http://www.w3.org/Graphics/SVG/1.1/DTD/svg11.dtd"><svg width="100%" height="100%" viewBox="0 0 512 512" version="1.1" xmlns="http://www.w3.org/2000/svg" xmlns:xlink="http://www.w3.org/1999/xlink" xml:space="preserve" style="fill-rule:evenodd;clip-rule:evenodd;stroke-linejoin:round;stroke-miterlimit:2;"><title>Green Rocket</title><desc>GREEN ROCKET is the first crowdinvesting platform specializing in sustainable energy, environment, mobility and healthcare companies. Everyone has the opportunity to invest online in selected companies (equity-based crowdfunding) and benefit from their growth. The variety of investment opportunities extends from startups and first-stage companies to project financing of established companies. As a crowd investor, you are a venture capitalist and manage your own portfolio of attractive, promising projects.</desc>    <g transform="matrix(1.3468,0,0,1.3468,-21.9534,-18.7487)">        <rect x="17.043" y="14.663" width="378.677" height="378.677" style="fill:rgb(23,138,55);"/>    </g>    <g transform="matrix(4.34483,0,0,4.34483,161.717,76.1242)">        <path d="M33.3,40c-0.3,-0.5 -0.7,-0.9 -1,-1.3l0,-12.2c0,-17 -10.6,-21.8 -10.6,-21.8c0,0 -10.6,4.8 -10.6,21.8l0,12.2c-0.3,0.4 -0.6,0.8 -1,1.3c-9.8,14.8 1,38.1 1,38.1l4.2,-8.4l12.8,0l4.2,8.4c0,0 10.8,-23.3 1,-38.1Z" style="fill:rgb(225,255,229);fill-rule:nonzero;"/>    </g></svg>