<?xml version="1.0" encoding="UTF-8" standalone="no"?><!DOCTYPE svg PUBLIC "-//W3C//DTD SVG 1.1//EN" "http://www.w3.org/Graphics/SVG/1.1/DTD/svg11.dtd"><svg width="100%" height="100%" viewBox="0 0 512 512" version="1.1" xmlns="http://www.w3.org/2000/svg" xmlns:xlink="http://www.w3.org/1999/xlink" xml:space="preserve" style="fill-rule:evenodd;clip-rule:evenodd;stroke-linejoin:round;stroke-miterlimit:2;"><title>Renditefokus</title><desc>Our crowdfunding platform allows you to invest in real estate projects from experienced property developers free of charge from €500.We are a fintech startup from Munich and bring together private investors and property developers online.</desc>    <g transform="matrix(19.5228,0,0,9.47945,-3549,-93.4597)">        <g transform="matrix(24.2779,0,0,50,184.576,62.046)">            <path d="M0.746,0.034l-0.599,-0.622l0.002,0.588l-0.048,0l0,-0.714l0.601,0.621c-0.003,-0.058 -0.004,-0.518 -0.004,-0.518l0.048,-0.057l0,0.702Z" style="fill:rgb(120,120,123);fill-rule:nonzero;"/>        </g>        <g transform="matrix(0.278271,0,0,0.573095,164.339,10.0623)">            <path d="M83.436,26.11l4.41,4.41l42.259,0l-20.343,23.894l3.018,3.319l25.33,-28.826l-28.158,-29.077l-26.516,26.28Zm5.686,0.068l39.708,0l-18.884,-19.936l-20.824,19.936Z" style="fill:rgb(255,99,124);"/>        </g>        <g transform="matrix(0.278271,0,0,0.573095,164.339,10.0623)">            <path d="M105.062,60.791l2.841,3.247l-19.467,21.702l0,-6.347l16.626,-18.602Z" style="fill:rgb(255,99,124);"/>        </g>        <g transform="matrix(0.278271,0,0,0.573095,164.339,10.0623)">            <path d="M88.44,86.961l0,3.746l44.631,0l-3.785,-3.746l-40.846,0Z" style="fill:rgb(255,99,124);"/>        </g>    </g></svg>