<?xml version="1.0" encoding="UTF-8" standalone="no"?><!DOCTYPE svg PUBLIC "-//W3C//DTD SVG 1.1//EN" "http://www.w3.org/Graphics/SVG/1.1/DTD/svg11.dtd"><svg width="100%" height="100%" viewBox="0 0 512 512" version="1.1" xmlns="http://www.w3.org/2000/svg" xmlns:xlink="http://www.w3.org/1999/xlink" xml:space="preserve" style="fill-rule:evenodd;clip-rule:evenodd;stroke-linejoin:round;stroke-miterlimit:2;"><title>AlexCredit</title><desc>Established in 2017, Alexcredit has a leading presence in the Ukrainian online microcredit market. Thanks to its credit scoring algorithm, which is based on the application form details, behaviour data and credit bureau data, borrowers receive a credit decision in less than 20 seconds. From the total loan applications, 20-30% of requests are approved.</desc>    <g transform="matrix(2.35349,0,0,2.35349,-57.8524,-264.295)">        <g transform="matrix(0.561652,0,0,0.561652,-6.51792,99.039)">            <circle cx="249.04" cy="217.277" r="192.912" style="fill:rgb(255,156,0);"/>        </g>        <g transform="matrix(0.58343,0,0,0.58343,-148.483,81.4469)">            <path d="M553.774,188.395c4.277,-5.317 -8.338,25.182 -9.474,25.175c-6.186,6.059 -12.936,11.513 -20.158,16.29c-1.539,0.659 -1.299,2.408 -1.329,3.797c0.104,9.418 0.936,18.814 2.488,28.103c1.819,8.835 3.998,17.989 9.844,25.155c0.91,1.229 2.699,2.998 0.91,4.347c-7.224,7.211 -12.853,15.86 -16.52,25.385c-1.821,0.598 -3.829,0.169 -5.247,-1.12c-8.63,-21.028 -13.143,-43.519 -13.292,-66.249c0.112,-1.843 -0.168,-3.689 -0.819,-5.417c-4.658,0.77 -9.055,2.688 -13.762,3.188c-10.823,1.709 -21.797,-0.41 -32.06,-3.808c-2.409,-1.109 -4.728,0.83 -4.997,3.238c-3.998,15.921 -5.997,32.261 -7.486,48.571c-2.189,25.854 -2.908,51.828 -2.528,77.772c-0.053,1.455 -0.227,2.902 -0.52,4.328c-3.998,0.609 -7.296,-1.939 -10.454,-3.918c-8.185,-5.097 -16.45,-10.484 -22.686,-17.989c-1.808,-2.143 -2.657,-4.938 -2.348,-7.725c1.998,-63.202 14.041,-127.173 43.093,-183.798c7.576,-13.931 15.551,-28.063 27.274,-38.976c10.643,-10.154 23.505,-18.289 37.857,-21.917c11.183,-2.718 22.826,-1.089 33.979,1c5.965,1.041 11.71,3.089 16.989,6.056c0.635,2.618 0.386,5.374 -0.709,7.835c-2.309,1.279 -5.077,1.639 -7.096,3.438c-3.567,3.029 -6.458,6.775 -8.485,10.993c-12.432,25.385 -19.208,53.228 -22.796,81.161c12.473,-4.677 22.706,-14.142 30.332,-24.915Zm-41.755,-65.33c-13.711,6.826 -23.735,19.078 -31.5,31.98c-9.834,16.87 -16.121,35.549 -20.988,54.387c-0.469,2.309 -1.449,4.717 -0.859,7.096c4.228,4.154 9.271,7.387 14.811,9.494c8.435,2.998 17.749,2.249 26.164,-0.41c1.239,-0.31 2.708,-1.109 2.578,-2.618c3.998,-35.209 13.282,-70.447 30.851,-101.358c0.35,-0.22 0.46,-0.14 0,0c-0.239,-1.559 -1.059,-3.468 -2.948,-3.268c-6.316,0.11 -12.452,2.058 -18.079,4.717l-0.03,-0.02Z" style="fill:rgb(35,64,68);fill-rule:nonzero;"/>        </g>    </g></svg>