<?xml version="1.0" encoding="UTF-8" standalone="no"?><!DOCTYPE svg PUBLIC "-//W3C//DTD SVG 1.1//EN" "http://www.w3.org/Graphics/SVG/1.1/DTD/svg11.dtd"><svg width="100%" height="100%" viewBox="0 0 512 512" version="1.1" xmlns="http://www.w3.org/2000/svg" xmlns:xlink="http://www.w3.org/1999/xlink" xml:space="preserve"  style="fill-rule:evenodd;clip-rule:evenodd;stroke-linejoin:round;stroke-miterlimit:2;"><title>Lignum Capital</title><desc>We are a web platform that facilitates financing and allows you to invest in innovative companies and projects in the creation and growth phase.</desc>    <g transform="matrix(11.0704,0,0,11.0704,-2267.58,-3246.32)">        <path d="M212.697,339.403c0,0 3.793,-8.468 10.206,-9.723c6.413,-1.255 20.125,-6.679 22.781,-14.058c2.446,-6.796 0.569,-15.066 -2.556,-16.743c-3.125,-1.678 -10.977,0.632 -17.759,5.733c-6.204,4.665 -12.032,24.474 -12.032,24.474c-0,0 4.112,-21.562 11.594,-26.813c10.043,-7.048 14.703,-6.226 14.703,-6.226c0,0 -7.776,-4.007 -13.066,-2.281c-5.289,1.725 -12.611,6.542 -16.959,21.675c-2.095,7.294 3.088,23.962 3.088,23.962Z" style="fill:rgb(99,178,193);"/>    </g></svg>