<?xml version="1.0" encoding="UTF-8" standalone="no"?><!DOCTYPE svg PUBLIC "-//W3C//DTD SVG 1.1//EN" "http://www.w3.org/Graphics/SVG/1.1/DTD/svg11.dtd"><svg width="100%" height="100%" viewBox="0 0 512 512" version="1.1" xmlns="http://www.w3.org/2000/svg" xmlns:xlink="http://www.w3.org/1999/xlink" xml:space="preserve" style="fill-rule:evenodd;clip-rule:evenodd;stroke-linejoin:round;stroke-miterlimit:2;"><title>Ethic Investors</title><desc>Ethic Investors is a real estate investment company whose purpose is to offer the maximum profitability of the market through the purchase, reform and subsequent sale of real estate throughout the national territory.</desc>    <g id="Group-6-Copy" transform="matrix(3.45067,0,0,3.45067,45.0132,0.529012)">        <path id="Combined-Shape" d="M95.281,100.649l10.332,-7.182l16.533,11.843l-59.672,42.624l-62.332,-44.439l0,-61.676l61.915,-41.683l59.983,42.871l-59.588,43.124l-27.441,-19.631l10.441,-7.453l16.606,12.032l39.618,-27.846l-39.708,-28.293l-49.296,34.763l0,48.109l49.75,35.527l38.861,-28.481l-6.002,-4.209Z" style="fill:rgb(51,51,51);fill-rule:nonzero;"/>        <path id="Path-7-Copy" d="M93.957,69.847l10.267,-7.627l17.816,12.776l-59.581,42.311l-28.129,-19.703l10.346,-7.506l17.761,12.572l39.201,-27.674l-7.681,-5.149Z" style="fill:rgb(17,183,132);"/>    </g></svg>