<?xml version="1.0" encoding="UTF-8" standalone="no"?><!DOCTYPE svg PUBLIC "-//W3C//DTD SVG 1.1//EN" "http://www.w3.org/Graphics/SVG/1.1/DTD/svg11.dtd"><svg width="100%" height="100%" viewBox="0 0 512 512" version="1.1" xmlns="http://www.w3.org/2000/svg" xmlns:xlink="http://www.w3.org/1999/xlink" xml:space="preserve" style="fill-rule:evenodd;clip-rule:evenodd;stroke-linejoin:round;stroke-miterlimit:2;"><title>LendingWorks</title><desc>Lending Works is the UK’s leading disrupter in providing of personal loans through partnerships. Using innovative technology, Lending Works enables partner firms to provide their customers with access to credit products quickly and simply, resulting in game-changing customer experience. Current partners include leading FinTechs, retailers and intermediaries including Revolut, Asda Money, Moneysupermarket, Clearscore, Experian and many others.</desc>    <g id="LendingWorks" transform="matrix(4.63612,0,0,4.63612,-40.7258,-40.8969)">        <path d="M82.29,22c7.509,-0.051 15.015,0.282 22.49,1c4,0.45 7.5,3.6 7.8,7c1.35,18.59 -0.9,50.52 -30.13,59.36c-29.25,-8.72 -31.45,-40.65 -30.3,-59.24c0.3,-3.45 3.75,-6.75 7.65,-7c7.475,-0.714 14.981,-1.048 22.49,-1m0,-6.3c-7.8,0 -15.59,0.45 -23.09,1.2c-6.9,0.75 -12.74,6.15 -13.19,12.74c-1.35,19.19 0.9,56.67 36.28,66.11l0.15,0c35.53,-9.59 37.63,-46.92 36.28,-66.11c-0.45,-6.75 -6.45,-12.14 -13.34,-12.74c-7.671,-0.789 -15.378,-1.19 -23.09,-1.2Z" style="fill:rgb(117,168,219);fill-rule:nonzero;"/>        <path d="M64,94.28c-4.868,5.515 -11.217,9.52 -18.29,11.54c-29.23,-8.82 -31.48,-40.82 -30.28,-59.36c0.3,-3.45 3.75,-6.75 7.65,-7c5.25,-0.6 10.79,-0.9 16.34,-1c0,-2.1 0,-4 0.15,-6.15c-5.85,0.15 -11.54,0.45 -17.09,1c-6.9,0.69 -12.75,6.1 -13.2,12.69c-1.35,19.34 0.9,56.67 36.28,66.26l0.15,0c10.64,-2.85 18.14,-8.1 23.69,-14.69c-1.872,-0.974 -3.676,-2.073 -5.4,-3.29Z" style="fill:rgb(159,187,78);fill-rule:nonzero;"/>    </g></svg>