<?xml version="1.0" encoding="UTF-8" standalone="no"?><!DOCTYPE svg PUBLIC "-//W3C//DTD SVG 1.1//EN" "http://www.w3.org/Graphics/SVG/1.1/DTD/svg11.dtd"><svg width="100%" height="100%" viewBox="0 0 512 512" version="1.1" xmlns="http://www.w3.org/2000/svg" xmlns:xlink="http://www.w3.org/1999/xlink" xml:space="preserve" style="fill-rule:evenodd;clip-rule:evenodd;stroke-linejoin:round;stroke-miterlimit:2;"><title>CoinLoan</title><desc>CoinLoan is the first P2P lending platform for cryptoassets backed loans. Borrowers get money withoфut selling cryptoassets. Investors offer loans and earn competitive returns. Overcollateralization ensures full repayment on time.</desc>    <g id="Group-8" transform="matrix(17.2745,0,0,17.162,-2.30746,-0.313777)">        <path id="Shape" d="M14.947,4.662c-5.632,0 -10.215,4.614 -10.215,10.284c0,5.671 4.583,10.284 10.215,10.284c5.633,0 10.216,-4.613 10.216,-10.284c0,-5.67 -4.583,-10.284 -10.216,-10.284Zm0,19.127c-4.844,0 -8.783,-3.967 -8.783,-8.843c0,-4.876 3.939,-8.843 8.783,-8.843c4.843,0 8.783,3.967 8.783,8.843c0,4.876 -3.94,8.843 -8.783,8.843Z" style="fill:rgb(52,130,250);fill-rule:nonzero;"/>        <path id="Shape1" d="M19.622,14.309c-0.112,-0.834 -0.438,-1.599 -0.923,-2.238c0.013,-0.011 0.026,-0.019 0.037,-0.031l1.177,-1.185c0.25,-0.251 0.25,-0.657 0,-0.908c-0.249,-0.251 -0.652,-0.251 -0.902,0l-1.176,1.185c-0.012,0.011 -0.02,0.025 -0.032,0.037c-0.634,-0.488 -1.394,-0.816 -2.222,-0.929c0,-0.016 0.005,-0.03 0.005,-0.046l0,-1.676c0,-0.355 -0.286,-0.642 -0.639,-0.642c-0.352,0 -0.637,0.287 -0.637,0.642l0,1.676c0,0.016 0.004,0.03 0.005,0.046c-0.83,0.113 -1.588,0.441 -2.223,0.929c-0.01,-0.012 -0.019,-0.026 -0.031,-0.037l-1.177,-1.185c-0.249,-0.251 -0.652,-0.251 -0.903,0c-0.249,0.251 -0.249,0.657 0,0.908l1.178,1.185c0.012,0.012 0.025,0.02 0.037,0.031c-0.484,0.64 -0.811,1.404 -0.922,2.238c-0.016,-0.002 -0.031,-0.005 -0.046,-0.005l-1.665,-0.001c-0.353,0 -0.638,0.288 -0.638,0.644c0,0.354 0.285,0.642 0.638,0.642l1.664,-0.001c0.015,0 0.03,-0.003 0.046,-0.005c0.111,0.834 0.438,1.599 0.923,2.238c-0.012,0.011 -0.025,0.019 -0.038,0.031l-1.177,1.185c-0.25,0.251 -0.25,0.657 0,0.909c0.25,0.251 0.653,0.251 0.902,0l1.178,-1.186c0.011,-0.011 0.02,-0.024 0.031,-0.037c0.634,0.488 1.393,0.817 2.223,0.929c-0.002,0.016 -0.006,0.031 -0.006,0.046l0,1.676c0,0.356 0.286,0.643 0.638,0.643c0.353,0 0.638,-0.287 0.638,-0.643l0,-1.676c0,-0.015 -0.004,-0.03 -0.004,-0.046c0.828,-0.112 1.588,-0.441 2.221,-0.929c0.012,0.013 0.021,0.026 0.032,0.038l1.177,1.185c0.249,0.252 0.652,0.252 0.902,0c0.25,-0.251 0.249,-0.658 0,-0.909l-1.177,-1.185c-0.011,-0.012 -0.024,-0.02 -0.037,-0.031c0.484,-0.639 0.811,-1.403 0.922,-2.237c0.016,0.001 0.031,0.005 0.047,0.005l1.664,0c0.354,0 0.638,-0.287 0.638,-0.642c0,-0.355 -0.285,-0.643 -0.638,-0.643l-1.664,0c-0.016,-0.001 -0.031,0.003 -0.046,0.005Zm-4.675,3.95c-1.814,0 -3.29,-1.486 -3.29,-3.312c0,-1.827 1.476,-3.313 3.29,-3.313c1.815,0 3.291,1.486 3.291,3.313c0,1.826 -1.476,3.312 -3.291,3.312Z" style="fill:rgb(52,130,250);fill-rule:nonzero;"/>        <path id="Shape2" d="M26.167,0.077l-22.429,0c-1.956,0 -3.547,1.602 -3.547,3.571l0,22.573c0,1.97 1.591,3.572 3.547,3.572l22.429,0c1.955,0 3.548,-1.602 3.548,-3.572l0,-22.573c0,-1.969 -1.593,-3.571 -3.548,-3.571Zm1.928,26.144c0,1.071 -0.866,1.943 -1.928,1.943l-22.429,0c-1.063,0 -1.928,-0.871 -1.928,-1.943l0,-12.284l0,-0.09l0,-10.199c0,-1.071 0.864,-1.941 1.928,-1.941l22.429,0c1.062,0 1.928,0.87 1.928,1.941l0,22.573Z" style="fill:rgb(52,130,250);fill-rule:nonzero;"/>    </g></svg>