<?xml version="1.0" encoding="UTF-8" standalone="no"?><!DOCTYPE svg PUBLIC "-//W3C//DTD SVG 1.1//EN" "http://www.w3.org/Graphics/SVG/1.1/DTD/svg11.dtd"><svg width="100%" height="100%" viewBox="0 0 512 512" version="1.1" xmlns="http://www.w3.org/2000/svg" xmlns:xlink="http://www.w3.org/1999/xlink" xml:space="preserve" style="fill-rule:evenodd;clip-rule:evenodd;stroke-linejoin:round;stroke-miterlimit:2;"><title>HODL Finance</title><desc>We're issuing crypto-backed loans that are fast, safe, exempt from tax and available 24/7. </desc>    <g transform="matrix(24.4508,0,0,24.3601,-562.955,-244.74)">        <path d="M24.5,15.4c0.917,-1.6 2.224,-2.942 3.8,-3.9c1.577,-0.925 3.372,-1.412 5.2,-1.412c3.738,0 7.193,2.039 9,5.312c1.897,3.202 1.897,7.198 0,10.4c-0.921,1.571 -2.229,2.879 -3.8,3.8c-3.238,1.898 -7.262,1.898 -10.5,0c-1.592,-0.892 -2.908,-2.208 -3.8,-3.8c-1.814,-3.229 -1.778,-7.191 0.1,-10.4Z" style="fill:url(#_Linear1);"/>    </g>    <g transform="matrix(14.3919,0,0,14.3919,96.25,-39.0338)">        <path d="M21.3,20.9l-1.5,0.3l0,9.6l-4,0l0,-8.9l-9.2,1.6l0,7.3l-4,0l0,-6.6l-2.6,0.4l1.1,-4.3l1.5,-0.3l0,-9.8l4,0l0,9.1l9.1,-1.6l0,-7.5l4,0l0,6.7l2.5,-0.5l-0.9,4.5Z" style="fill:white;"/>    </g>    <defs>        <linearGradient id="_Linear1" x1="0" y1="0" x2="1" y2="0" gradientUnits="userSpaceOnUse" gradientTransform="matrix(80.2,0,0,80.2,0,298.55)"><stop offset="0" style="stop-color:rgb(232,30,49);stop-opacity:1"/><stop offset="1" style="stop-color:rgb(248,103,58);stop-opacity:1"/></linearGradient>    </defs></svg>