<?xml version="1.0" encoding="UTF-8" standalone="no"?><!DOCTYPE svg PUBLIC "-//W3C//DTD SVG 1.1//EN" "http://www.w3.org/Graphics/SVG/1.1/DTD/svg11.dtd"><svg width="100%" height="100%" viewBox="0 0 512 512" version="1.1" xmlns="http://www.w3.org/2000/svg" xmlns:xlink="http://www.w3.org/1999/xlink" xml:space="preserve" style="fill-rule:evenodd;clip-rule:evenodd;stroke-linejoin:round;stroke-miterlimit:2;"><title>Bricklane</title><desc>Bricklane enables investors to efficiently and flexibly access the UK’s largest asset class – residential property. Since 2016, Bricklane has enabled thousands of customers to invest in diversified, geographically focused residential property portfolios, tax-efficiently in their ISAs and pensions.</desc>    <g transform="matrix(5.3831,0,0,5.3831,-320.355,-386.744)">        <path d="M71.735,127.611l15.158,0l0,7.579l-15.158,0l0,-7.579Zm55.582,0l15.158,0l0,7.579l-15.158,0l0,-7.579Zm-24.002,-16.675l0,-15.158l7.58,0l0,15.158l-7.58,0Zm0,55.835l0,-15.159l7.58,0l0,15.159l-7.58,0Zm-28.672,-20.984l13.127,-7.579l3.79,6.564l-13.128,7.579l-3.789,-6.564Zm48.134,-27.79l13.127,-7.58l3.79,6.564l-13.128,7.579l-3.789,-6.563Zm-1.206,45.912l-7.579,-13.127l6.564,-3.79l7.578,13.128l-6.563,3.789Zm-35.323,-3.836l7.579,-13.127l6.564,3.789l-7.58,13.128l-6.563,-3.79Zm27.791,-48.134l7.579,-13.126l6.564,3.789l-7.579,13.127l-6.564,-3.79Zm21.912,40.365l-13.128,-7.579l3.79,-6.564l13.127,7.58l-3.789,6.563Zm-64.216,-38.588l15.158,0l0,7.579l-15.158,0l0,-7.579Zm-0.075,-13.895l15.159,0l0,7.578l-15.159,0l0,-7.578Zm0,-13.896l15.159,0l0,7.579l-15.159,0l0,-7.579Zm0,-13.895l15.159,0l0,7.579l-15.159,0l0,-7.579Z" style="fill:rgb(76,175,80);fill-rule:nonzero;"/>    </g></svg>