<?xml version="1.0" encoding="UTF-8" standalone="no"?><!DOCTYPE svg PUBLIC "-//W3C//DTD SVG 1.1//EN" "http://www.w3.org/Graphics/SVG/1.1/DTD/svg11.dtd"><svg width="100%" height="100%" viewBox="0 0 512 512" version="1.1" xmlns="http://www.w3.org/2000/svg" xmlns:xlink="http://www.w3.org/1999/xlink" xml:space="preserve" style="fill-rule:evenodd;clip-rule:evenodd;stroke-linejoin:round;stroke-miterlimit:2;"><title>The Fyzz ISA</title><desc>The Fyzz ISA the UK’s first innovative finance ISA specialising in funding film and entertainment projects.Based in London, The Fyzz is a prolific production and financing company specializing in feature film content and international television drama series.</desc>    <g transform="matrix(3.17778,0,0,3.17778,-728.458,-950.914)">        <g>            <path d="M240.716,446.941l88.266,-50.89c1.314,-0.906 3.76,-0.996 5.006,-0.43l48.484,12.782l-88.913,50.863c-1.563,0.793 -3.511,1.11 -5.255,0.317l-47.588,-12.642Z" style="fill:rgb(51,51,51);"/>            <path d="M236.897,444.111l0.803,-101.882c-0.116,-1.592 1.045,-3.747 2.164,-4.535l35.57,-35.339l-1.153,102.426c-0.108,1.75 -0.821,3.59 -2.388,4.692l-34.996,34.638Z" style="fill:rgb(51,51,51);"/>            <path d="M278.221,299.553l88.312,50.81c1.443,0.682 2.749,2.752 2.884,4.114l13.274,48.352l-88.613,-51.383c-1.47,-0.954 -2.722,-2.481 -2.911,-4.387l-12.946,-47.506Z" style="fill:rgb(51,51,51);"/>        </g>    </g></svg>