<?xml version="1.0" encoding="UTF-8" standalone="no"?><!DOCTYPE svg PUBLIC "-//W3C//DTD SVG 1.1//EN" "http://www.w3.org/Graphics/SVG/1.1/DTD/svg11.dtd"><svg width="100%" height="100%" viewBox="0 0 512 512" version="1.1" xmlns="http://www.w3.org/2000/svg" xmlns:xlink="http://www.w3.org/1999/xlink" xml:space="preserve" style="fill-rule:evenodd;clip-rule:evenodd;stroke-linejoin:round;stroke-miterlimit:2;"><title>SPEAR</title><desc>SPEAR is a cooperative that allows companies and associations wishing to carry out a responsible project to benefit from a full range of services. In particular, SPEAR offers them access to an advantageous bank loan thanks to the support of a community of spaniards in solidarity.</desc>    <g transform="matrix(7.96698,0,0,7.5178,-474.88,-35.8271)">        <g transform="matrix(0.606104,0,0,0.642319,59.8264,4.83245)">            <path d="M105.459,17.192c0,-6.505 -5.281,-11.786 -11.786,-11.786l-82.043,0c-6.505,0 -11.786,5.281 -11.786,11.786l0,71.438c0,6.505 5.281,11.786 11.786,11.786l82.043,0c6.505,0 11.786,-5.281 11.786,-11.786l0,-71.438Z" style="fill:rgb(38,36,91);"/>        </g>        <g transform="matrix(0.606104,0,0,0.642319,59.8264,4.83245)">            <path d="M56.763,56.154c-2.508,-0.484 -4.685,-1.131 -6.862,-1.816l0,14.05c0,0 -4.395,2 -9.796,2c-5.946,0 -9.912,-2 -9.912,-2l0,-16.458c-1.713,0.461 -3.413,1.117 -5.007,1.818c-5.435,2.392 -9.71,5.534 -9.71,5.534l-6.179,-8.383c0,0 11.677,-8.34 22.499,-9.813l0,-0.747c0,-4.17 3.386,-7.555 7.555,-7.555c4.17,0 7.555,3.385 7.555,7.555l0,2.241c2.084,0.536 3.945,1.136 5.792,1.72c1.928,0.61 3.837,1.198 6.077,1.625l0,-1.437c0,-4.17 3.385,-7.555 7.555,-7.555c4.169,0 7.555,3.385 7.555,7.555l0,0.74c8.495,-2.822 15.215,-9.082 15.215,-9.082l7.009,7.704c0,0 -8.687,7.76 -19.638,11.356l0,15.233c0,0 -4.396,2 -9.796,2c-5.947,0 -9.912,-2 -9.912,-2l0,-14.285Z" style="fill:rgb(235,235,235);"/>        </g>    </g></svg>