<?xml version="1.0" encoding="UTF-8" standalone="no"?><!DOCTYPE svg PUBLIC "-//W3C//DTD SVG 1.1//EN" "http://www.w3.org/Graphics/SVG/1.1/DTD/svg11.dtd"><svg width="100%" height="100%" viewBox="0 0 512 512" version="1.1" xmlns="http://www.w3.org/2000/svg" xmlns:xlink="http://www.w3.org/1999/xlink" xml:space="preserve" style="fill-rule:evenodd;clip-rule:evenodd;stroke-linejoin:round;stroke-miterlimit:2;"><title>Immovesting</title><desc>Immovesting is a real estate investment or real estate crowdfunding platform that gives you access to investment opportunities hitherto reserved for professional or wealthy investors. Discover our real estate development operations, merchants of property, rental yield and hotels.</desc>    <g id="_93bd8886-ef17-42b3-aad0-b6897c572940" transform="matrix(4.63835,0,0,4.63835,-40.9639,-40.8107)">        <path id="_768a471e-b678-4070-91ac-1b28bb6f3bc3" d="M65.71,40.21l-23.37,-10.44c-0.92,-0.533 -1.9,-0.952 -2.92,-1.25c-1.343,-0.457 -2.751,-0.694 -4.17,-0.7c-4.327,0 -8.539,1.404 -12,4c6.26,2.5 10.85,5.43 14.19,11.27c1.365,2.497 2.394,5.163 3.06,7.93c0.663,-1.96 1.65,-3.796 2.92,-5.43c1.132,-1.509 2.912,-2.399 4.799,-2.399c2.509,0 4.765,1.574 5.631,3.929c0.973,2.625 1.445,5.41 1.39,8.21l0,33.29c0.006,2.329 1.367,4.452 3.48,5.43l12,5.57c0.782,0.357 1.631,0.541 2.49,0.541c3.281,0 5.984,-2.69 6,-5.971l0,-35.34c-0.116,-8.419 -5.537,-15.904 -13.5,-18.64Zm-0.83,47.44c0,0.011 0.001,0.021 0.001,0.032c0,0.483 -0.398,0.88 -0.88,0.88c-0.128,0 -0.255,-0.028 -0.371,-0.082l-1.39,-0.7c-0.33,-0.146 -0.548,-0.469 -0.56,-0.83l0,-5.7c0.017,-0.476 0.413,-0.858 0.889,-0.858c0.075,0 0.149,0.01 0.221,0.028l1.39,0.42c0.395,0.082 0.686,0.427 0.7,0.83l0,6l0,-0.02Zm0,-12.66c0,0.011 0.001,0.021 0.001,0.032c0,0.483 -0.398,0.88 -0.88,0.88c-0.128,0 -0.255,-0.028 -0.371,-0.082l-1.39,-0.7c-0.33,-0.146 -0.548,-0.469 -0.56,-0.83l0,-5.7c0.017,-0.476 0.413,-0.858 0.889,-0.858c0.075,0 0.149,0.01 0.221,0.028l1.39,0.42c0.395,0.082 0.686,0.427 0.7,0.83l0,6l0,-0.02Zm0,-12.38c0,0.011 0.001,0.021 0.001,0.032c0,0.483 -0.398,0.88 -0.88,0.88c-0.128,0 -0.255,-0.028 -0.371,-0.082l-1.39,-0.7c-0.33,-0.146 -0.548,-0.469 -0.56,-0.83l0,-5.7c0.017,-0.476 0.413,-0.858 0.889,-0.858c0.075,0 0.149,0.01 0.221,0.028l1.39,0.42c0.395,0.082 0.686,0.427 0.7,0.83l0,6l0,-0.02Zm6.68,26.85c0,0.011 0.001,0.021 0.001,0.032c0,0.483 -0.398,0.88 -0.88,0.88c-0.128,0 -0.255,-0.028 -0.371,-0.082l-1.39,-0.7c-0.33,-0.146 -0.548,-0.469 -0.56,-0.83l0,-5.7c0.017,-0.476 0.413,-0.858 0.889,-0.858c0.075,0 0.149,0.01 0.221,0.028l1.39,0.42c0.395,0.082 0.686,0.427 0.7,0.83l0,6l0,-0.02Zm0,-12.1c0,0.011 0.001,0.021 0.001,0.032c0,0.483 -0.398,0.88 -0.88,0.88c-0.128,0 -0.255,-0.028 -0.371,-0.082l-1.39,-0.7c-0.33,-0.146 -0.548,-0.469 -0.56,-0.83l0,-5.57c0.017,-0.476 0.413,-0.858 0.889,-0.858c0.075,0 0.149,0.01 0.221,0.028l1.39,0.42c0.395,0.082 0.686,0.427 0.7,0.83l0,5.85Zm0,-12.8c0,0.011 0.001,0.021 0.001,0.032c0,0.483 -0.398,0.88 -0.88,0.88c-0.128,0 -0.255,-0.028 -0.371,-0.082l-1.39,-0.7c-0.33,-0.146 -0.548,-0.469 -0.56,-0.83l0,-5.7c0.017,-0.476 0.413,-0.858 0.889,-0.858c0.075,0 0.149,0.01 0.221,0.028l1.39,0.42c0.395,0.082 0.686,0.427 0.7,0.83l0,6l0,-0.02Z" style="fill:rgb(22,119,203);fill-rule:nonzero;"/>        <path id="_855c3c4b-6780-4d21-b080-e7898d989630" d="M21.05,33.95c-2.78,-1.11 -6.4,-1.39 -9,0.28c-0.28,0.14 -0.56,0.42 -0.83,0.56c-3.06,2.64 -2.64,7.1 -0.28,10.16c1.25,1.53 2.92,2.5 3.76,4.45c0.574,1.798 0.812,3.686 0.7,5.57l0,33.24c0.006,2.329 1.367,4.452 3.48,5.43l12,5.57c0.782,0.357 1.631,0.541 2.49,0.541c3.281,0 5.984,-2.69 6,-5.971l0,-17.96c0,-10.57 1.39,-22 -4,-31.58c-3.6,-5.42 -8.37,-7.93 -14.32,-10.29Zm3.62,52c0,0.011 0.001,0.021 0.001,0.032c0,0.483 -0.398,0.88 -0.88,0.88c-0.128,0 -0.255,-0.028 -0.371,-0.082l-1.42,-0.66c-0.33,-0.146 -0.548,-0.469 -0.56,-0.83l0,-5.7c0.017,-0.476 0.413,-0.858 0.889,-0.858c0.075,0 0.149,0.01 0.221,0.028l1.39,0.42c0.395,0.082 0.686,0.427 0.7,0.83l0,6l0.03,-0.06Zm0,-12.52c0,0.011 0.001,0.021 0.001,0.032c0,0.483 -0.398,0.88 -0.88,0.88c-0.128,0 -0.255,-0.028 -0.371,-0.082l-1.42,-0.66c-0.33,-0.146 -0.548,-0.469 -0.56,-0.83l0,-5.7c0.017,-0.476 0.413,-0.858 0.889,-0.858c0.075,0 0.149,0.01 0.221,0.028l1.39,0.42c0.395,0.082 0.686,0.427 0.7,0.83l0,6l0.03,-0.06Zm0,-12.38c0,0.011 0.001,0.021 0.001,0.032c0,0.483 -0.398,0.88 -0.88,0.88c-0.128,0 -0.255,-0.028 -0.371,-0.082l-1.42,-0.66c-0.33,-0.146 -0.548,-0.469 -0.56,-0.83l0,-5.7c0.017,-0.476 0.413,-0.858 0.889,-0.858c0.075,0 0.149,0.01 0.221,0.028l1.39,0.42c0.395,0.082 0.686,0.427 0.7,0.83l0,6l0.03,-0.06Zm6.68,26.85c0,0.011 0.001,0.021 0.001,0.032c0,0.483 -0.398,0.88 -0.88,0.88c-0.128,0 -0.255,-0.028 -0.371,-0.082l-1.39,-0.7c-0.33,-0.146 -0.548,-0.469 -0.56,-0.83l0,-5.7c0.017,-0.476 0.413,-0.858 0.889,-0.858c0.075,0 0.149,0.01 0.221,0.028l1.39,0.42c0.395,0.082 0.686,0.427 0.7,0.83l0,6l0,-0.02Zm0,-12.1c0,0.011 0.001,0.021 0.001,0.032c0,0.483 -0.398,0.88 -0.88,0.88c-0.128,0 -0.255,-0.028 -0.371,-0.082l-1.4,-0.63c-0.33,-0.146 -0.548,-0.469 -0.56,-0.83l0,-5.7c0.017,-0.476 0.413,-0.858 0.889,-0.858c0.075,0 0.149,0.01 0.221,0.028l1.39,0.42c0.395,0.082 0.686,0.427 0.7,0.83l0,6l0.01,-0.09Zm0,-12.8c0,0.011 0.001,0.021 0.001,0.032c0,0.483 -0.398,0.88 -0.88,0.88c-0.128,0 -0.255,-0.028 -0.371,-0.082l-1.39,-0.7c-0.33,-0.146 -0.548,-0.469 -0.56,-0.83l0,-5.7c0.017,-0.476 0.413,-0.858 0.889,-0.858c0.075,0 0.149,0.01 0.221,0.028l1.39,0.42c0.395,0.082 0.686,0.427 0.7,0.83l0,6l0,-0.02Z" style="fill:rgb(22,119,203);fill-rule:nonzero;"/>        <path id="e823bc28-aeb1-4a3a-b2a4-17f74535e395" d="M105.5,40.21l-23.37,-10.44c-0.92,-0.533 -1.9,-0.952 -2.92,-1.25c-1.343,-0.457 -2.751,-0.694 -4.17,-0.7c-5.684,0.008 -11.104,2.44 -14.89,6.68l6.85,3.06c6.249,2.239 11.196,7.135 13.5,13.36c0.702,-1.917 1.635,-3.74 2.78,-5.43c1.133,-1.497 2.906,-2.379 4.784,-2.379c2.493,0 4.738,1.555 5.616,3.889c0.973,2.625 1.445,5.41 1.39,8.21l0,33.28c0.006,2.329 1.367,4.452 3.48,5.43l12,5.57c0.771,0.345 1.606,0.523 2.45,0.523c3.278,0 5.98,-2.686 6,-5.963l0,-35.34c-0.276,-8.335 -5.646,-15.695 -13.5,-18.5Zm-1,47.44c0,0.011 0.001,0.021 0.001,0.032c0,0.483 -0.398,0.88 -0.88,0.88c-0.128,0 -0.255,-0.028 -0.371,-0.082l-1.39,-0.7c-0.33,-0.146 -0.548,-0.469 -0.56,-0.83l0,-5.7c0.017,-0.476 0.413,-0.858 0.889,-0.858c0.075,0 0.149,0.01 0.221,0.028l1.39,0.42c0.395,0.082 0.686,0.427 0.7,0.83l0,6l0,-0.02Zm0,-12.66c0,0.011 0.001,0.021 0.001,0.032c0,0.483 -0.398,0.88 -0.88,0.88c-0.128,0 -0.255,-0.028 -0.371,-0.082l-1.39,-0.7c-0.33,-0.146 -0.548,-0.469 -0.56,-0.83l0,-5.7c0.017,-0.476 0.413,-0.858 0.889,-0.858c0.075,0 0.149,0.01 0.221,0.028l1.39,0.42c0.395,0.082 0.686,0.427 0.7,0.83l0,6l0,-0.02Zm0,-12.38c0,0.011 0.001,0.021 0.001,0.032c0,0.483 -0.398,0.88 -0.88,0.88c-0.128,0 -0.255,-0.028 -0.371,-0.082l-1.39,-0.7c-0.33,-0.146 -0.548,-0.469 -0.56,-0.83l0,-5.7c0.017,-0.476 0.413,-0.858 0.889,-0.858c0.075,0 0.149,0.01 0.221,0.028l1.39,0.42c0.395,0.082 0.686,0.427 0.7,0.83l0,6l0,-0.02Zm6.82,26.85c0,0.011 0.001,0.021 0.001,0.032c0,0.483 -0.398,0.88 -0.88,0.88c-0.128,0 -0.255,-0.028 -0.371,-0.082l-1.39,-0.7c-0.33,-0.146 -0.548,-0.469 -0.56,-0.83l0,-5.7c0.017,-0.476 0.413,-0.858 0.889,-0.858c0.075,0 0.149,0.01 0.221,0.028l1.39,0.42c0.395,0.082 0.686,0.427 0.7,0.83l0,6l0,-0.02Zm0,-12.1c0,0.011 0.001,0.021 0.001,0.032c0,0.483 -0.398,0.88 -0.88,0.88c-0.128,0 -0.255,-0.028 -0.371,-0.082l-1.39,-0.7c-0.33,-0.146 -0.548,-0.469 -0.56,-0.83l0,-5.57c0.017,-0.476 0.413,-0.858 0.889,-0.858c0.075,0 0.149,0.01 0.221,0.028l1.39,0.42c0.395,0.082 0.686,0.427 0.7,0.83l0,5.85Zm0,-12.8c0,0.011 0.001,0.021 0.001,0.032c0,0.483 -0.398,0.88 -0.88,0.88c-0.128,0 -0.255,-0.028 -0.371,-0.082l-1.39,-0.7c-0.33,-0.146 -0.548,-0.469 -0.56,-0.83l0,-5.7c0.017,-0.476 0.413,-0.858 0.889,-0.858c0.075,0 0.149,0.01 0.221,0.028l1.39,0.42c0.395,0.082 0.686,0.427 0.7,0.83l0,6l0,-0.02Z" style="fill:rgb(22,119,203);fill-rule:nonzero;"/>    </g></svg>