<?xml version="1.0" encoding="UTF-8" standalone="no"?><!DOCTYPE svg PUBLIC "-//W3C//DTD SVG 1.1//EN" "http://www.w3.org/Graphics/SVG/1.1/DTD/svg11.dtd"><svg width="100%" height="100%" viewBox="0 0 512 512" version="1.1" xmlns="http://www.w3.org/2000/svg" xmlns:xlink="http://www.w3.org/1999/xlink" xml:space="preserve" style="fill-rule:evenodd;clip-rule:evenodd;stroke-linejoin:round;stroke-miterlimit:2;"><title>Epic Cash</title><desc></desc>    <g id="Layer_4" transform="matrix(5.1,0,0,5.1,2.0001,147.37)">        <g transform="matrix(0.217865,0,0,0.217865,-9.12856,-37.8503)">            <circle cx="270.5" cy="271.5" r="229.5" style="fill:rgb(240,36,78);"/>        </g>        <g transform="matrix(1.54039,0,0,1.54039,31.427,-4.37064)">            <path d="M20.82,33.24l-11,0c-5.382,0 -9.81,-4.428 -9.81,-9.81c0,-5.382 4.428,-9.81 9.81,-9.81l11,0c1.668,0 3.04,1.372 3.04,3.04c0,1.668 -1.372,3.04 -3.04,3.04l-11,0c-0.064,-0.003 -0.129,-0.005 -0.193,-0.005c-2.052,0 -3.74,1.688 -3.74,3.74c0,2.052 1.688,3.74 3.74,3.74c0.064,0 0.129,-0.002 0.193,-0.005l11,0c1.668,0 3.04,1.372 3.04,3.04c0,1.668 -1.372,3.04 -3.04,3.04l0,-0.01Z" style="fill:white;fill-rule:nonzero;"/>        </g>        <g transform="matrix(1.54039,0,0,1.54039,31.427,-4.37064)">            <path d="M3,12.92c-1.646,0 -3,-1.354 -3,-3c0,-0.007 0,-0.013 0,-0.02c0,-5.383 4.427,-9.815 9.81,-9.82l11,0c1.668,0 3.04,1.372 3.04,3.04c0,1.668 -1.372,3.04 -3.04,3.04l-11,0c-2.044,0.005 -3.725,1.686 -3.73,3.73c0,0.01 0,0.021 0,0.031c0,1.646 -1.354,3 -3,3c-0.027,0 -0.053,0 -0.08,-0.001Z" style="fill:white;fill-rule:nonzero;"/>        </g>    </g></svg>