<?xml version="1.0" encoding="UTF-8" standalone="no"?><!DOCTYPE svg PUBLIC "-//W3C//DTD SVG 1.1//EN" "http://www.w3.org/Graphics/SVG/1.1/DTD/svg11.dtd"><svg width="100%" height="100%" viewBox="0 0 512 512" version="1.1" xmlns="http://www.w3.org/2000/svg" xmlns:xlink="http://www.w3.org/1999/xlink" xml:space="preserve" style="fill-rule:evenodd;clip-rule:evenodd;stroke-linejoin:round;stroke-miterlimit:2;"><title>Edebex</title><desc>Edebex is an online marketplace where companies can quickly and easily sell their client invoices to investors. This means that they will receive their money in a few days, without waiting for the due date of the invoice. Also investors are making a good deal as this investment provides them with a significant higher return than other investments on the market with a limited risk.And now, thanks to our great group of members, we have already pre-financed more than 300 million € of invoices in 6 years of activity.</desc>    <g transform="matrix(3.71765,0,0,3.71765,-2316.6,-695.719)">        <path d="M752.005,324.592l-50.026,0l-10.313,-30.859l7.367,-21.941l7.437,18.908c3.217,0.533 6.384,0.808 9.5,0.808c3.117,0 6.413,-0.275 9.892,-0.808l-15.913,-35.692l13.371,-33.421c-3.212,-0.529 -6.462,-0.804 -9.754,-0.804c-3.571,0 -6.992,0.275 -10.296,0.804l-4.825,15.266l0.004,0.014l-5.87,18.541l5.866,-18.555l-6.766,-19.561l10.3,-29.875l50.176,-0.009c3.271,0 5.887,2.709 5.887,5.975l-0.021,125.292c0,3.262 -2.745,5.917 -6.016,5.917Z" style="fill:rgb(145,200,78);"/>        <g transform="matrix(0.980132,0,0,1.06681,12.6225,-21.6871)">            <path d="M686.437,241.052l13.287,1.296l0.005,0.013l-0.005,-0.013l4.923,-14.309c3.371,-0.496 6.862,-0.754 10.505,-0.754c3.358,0 6.674,0.258 9.952,0.754l-13.642,31.327l16.235,33.457c-3.55,0.5 -6.912,0.757 -10.092,0.757c-3.18,0 -6.411,-0.257 -9.693,-0.757l-7.588,-17.725l-14.565,1.191l-0.002,-0.008l0.002,0.008l-7.021,16.537c-3.278,0.496 -6.5,0.754 -9.688,0.754c-3.176,0 -6.539,-0.258 -10.088,-0.754l16.094,-33.461l-13.501,-31.327c2.997,-0.496 6.313,-0.754 9.948,-0.754c3.46,0 6.963,0.258 10.504,0.754l4.43,13.014Z" style="fill:white;"/>        </g>        <g transform="matrix(4.16667,0,0,4.16667,691.677,293.731)">            <path d="M0,-18.345l-1.502,4.362l0.385,1.234l1.108,3.552l-1.652,4.234l0,0.002l1.658,4.961l0.745,-2.216l1.023,-3.049l-1.548,-3.932l1.408,-4.451l-0.001,-0.003l0,0.004l-1.407,4.45l1.407,-4.453l-1.624,-4.695Z" style="fill:rgb(56,161,72);fill-rule:nonzero;"/>        </g>        <path d="M633.836,324.587c-4.354,0 -7.887,-3.53 -7.887,-7.884l0.22,-121.396c0,-4.354 3.534,-7.887 7.888,-7.887l47.302,-0.004l10.32,29.873l0,0.003l0,0.001l-6.258,18.177l-4.341,-13.883c-3.471,-0.529 -6.904,-0.804 -10.296,-0.804c-3.563,0 -6.813,0.275 -9.75,0.804l13.233,33.421l-15.775,35.695c3.479,0.53 6.775,0.805 9.888,0.805c3.125,0 6.283,-0.275 9.496,-0.805l6.881,-17.642l-0.002,-0.008l6.887,-17.641l-6.885,17.649l6.91,20.67l-0.001,0.002l0.001,0.002l-10.358,30.856l-47.473,-0.004Z" style="fill:rgb(47,197,244);"/>    </g></svg>