<?xml version="1.0" encoding="UTF-8" standalone="no"?><!DOCTYPE svg PUBLIC "-//W3C//DTD SVG 1.1//EN" "http://www.w3.org/Graphics/SVG/1.1/DTD/svg11.dtd"><svg width="100%" height="100%" viewBox="0 0 512 512" version="1.1" xmlns="http://www.w3.org/2000/svg" xmlns:xlink="http://www.w3.org/1999/xlink" xml:space="preserve" style="fill-rule:evenodd;clip-rule:evenodd;stroke-linejoin:round;stroke-miterlimit:2;"><title>Z-Finance</title><desc>LLP MFI TEZ FINANCE started its work in October 2014. The company is registered as a microfinance institution in the National Bank of the Republic of Kazakhstan. Its main product is PDL loans in the amount of up to 330 euro with the maturity period of up to 45 days.</desc>    <g transform="matrix(5.1,0,0,5.1,-70.4,-70.4)">        <rect x="14" y="80.67" width="33.33" height="33.33" style="fill:rgb(255,137,0);fill-rule:nonzero;"/>        <path d="M47.33,80.67l-33.33,33.33l0,-33.33l33.33,0Z" style="fill:rgb(255,167,0);fill-rule:nonzero;"/>        <rect x="47.34" y="80.67" width="33.33" height="33.33" style="fill:rgb(255,184,58);fill-rule:nonzero;"/>        <path d="M80.67,80.67l-33.33,33.33l0,-33.33l33.33,0Z" style="fill:rgb(255,202,73);fill-rule:nonzero;"/>        <rect x="47.34" y="47.33" width="33.33" height="33.33" style="fill:rgb(184,186,60);fill-rule:nonzero;"/>        <path d="M80.67,47.33l-33.33,33.33l0,-33.33l33.33,0Z" style="fill:rgb(202,203,75);fill-rule:nonzero;"/>        <rect x="80.67" y="47.33" width="33.33" height="33.33" style="fill:rgb(113,187,62);fill-rule:nonzero;"/>        <path d="M114,47.33l-33.33,33.33l0,-33.33l33.33,0Z" style="fill:rgb(141,204,78);fill-rule:nonzero;"/>        <rect x="80.67" y="14" width="33.33" height="33.33" style="fill:rgb(76,157,51);fill-rule:nonzero;"/>        <path d="M114,14l-33.33,33.33l0,-33.33l33.33,0Z" style="fill:rgb(95,182,64);fill-rule:nonzero;"/>    </g></svg>