<?xml version="1.0" encoding="UTF-8" standalone="no"?><!DOCTYPE svg PUBLIC "-//W3C//DTD SVG 1.1//EN" "http://www.w3.org/Graphics/SVG/1.1/DTD/svg11.dtd"><svg width="100%" height="100%" viewBox="0 0 512 512" version="1.1" xmlns="http://www.w3.org/2000/svg" xmlns:xlink="http://www.w3.org/1999/xlink" xml:space="preserve" style="fill-rule:evenodd;clip-rule:evenodd;stroke-linejoin:round;stroke-miterlimit:2;"><title>KazFintech</title><desc></desc>    <g transform="matrix(10.7347,0,0,10.7347,-17.0447,129.453)">        <path d="M1.7,11.77l0,-9.16c0,-0.8 0.12,-0.9 0.85,-0.9c0.003,0 0.007,0 0.01,0c0.461,0 0.84,0.379 0.84,0.84c0,0.003 0,0.007 0,0.01l0,8l2.69,0c0,0 4.63,-6.18 6.34,-8.53c0.405,-0.324 0.929,-0.459 1.44,-0.37c0.38,0 0.52,0.3 0.3,0.61c-0.52,0.77 -1.07,1.52 -1.62,2.27c-1.65,2.24 -3.31,4.49 -5,6.72c2,2.8 4,5.62 6,8.43l1.17,1.64c0.22,0.3 0.13,0.42 -0.22,0.45c-0.806,0.157 -1.63,-0.197 -2.07,-0.89c-2,-3 -6.29,-8.91 -6.29,-8.91l-2.76,0l0,8.85c0,0.87 -0.57,1.25 -1.37,0.9c-0.158,-0.095 -0.27,-0.25 -0.31,-0.43c-0.025,-0.236 -0.025,-0.474 0,-0.71l0,-8.82Z" style="fill:rgb(1,56,109);fill-rule:nonzero;"/>        <path d="M42.42,21.84l-5.42,0c-1.21,0 -1.22,-1.33 -1,-1.83c0.256,-0.455 0.537,-0.895 0.84,-1.32l5.92,-8.87l4.41,-6.57l-10.64,0c-0.46,0 -0.61,-0.25 -0.61,-0.68c0,-0.43 0.14,-0.69 0.61,-0.69l11.31,0c0.235,-0.035 0.475,-0.035 0.71,0c1,0.33 0.4,1.48 0.15,1.87c-1.51,2.34 -3.09,4.64 -4.63,7c-1.21,1.81 -2.38,3.63 -3.58,5.44l-2.84,4.26l10.78,0c0.61,0 0.75,0.17 0.76,0.7c0.01,0.53 -0.14,0.69 -0.75,0.69l-6.02,0Z" style="fill:rgb(1,56,109);fill-rule:nonzero;"/>        <path d="M33.41,21.16c-0.627,-1.807 -1.25,-3.623 -1.87,-5.45c-0.57,-1.66 -1.11,-3.32 -1.69,-5c-0.86,-2.49 -1.77,-5 -2.61,-7.48c-0.51,-1.53 -0.3,-1.56 -2.14,-1.54l-0.93,0c-0.463,-0.052 -0.897,0.256 -1,0.71c-1.053,3.193 -2.11,6.393 -3.17,9.6c-0.85,2.45 -1.72,4.89 -2.57,7.34c-0.25,0.7 -0.45,1.42 -0.68,2.13c-0.07,0.21 -0.09,0.35 0.2,0.4c1,0.21 1.45,0 1.78,-1c0.56,-1.69 1.87,-5.73 1.87,-5.73l9,0c0,0 1.33,4 1.87,5.67c0.34,1.06 0.4,1.14 1.5,1.1c0.64,-0.1 0.65,-0.12 0.44,-0.75Zm-4.26,-7.51l-8.15,0c0,0 2.27,-6.85 3.27,-9.83c0.051,-0.185 0.125,-0.363 0.22,-0.53c0.12,-0.184 0.325,-0.296 0.545,-0.296c0.22,0 0.425,0.112 0.545,0.296c0.106,0.16 0.187,0.336 0.24,0.52c0.61,1.68 1.18,3.42 1.73,5.19c0.45,1.24 1.6,4.65 1.6,4.65Z" style="fill:rgb(1,56,109);fill-rule:nonzero;"/>    </g></svg>