<?xml version="1.0" encoding="UTF-8" standalone="no"?><!DOCTYPE svg PUBLIC "-//W3C//DTD SVG 1.1//EN" "http://www.w3.org/Graphics/SVG/1.1/DTD/svg11.dtd"><svg width="100%" height="100%" viewBox="0 0 512 512" version="1.1" xmlns="http://www.w3.org/2000/svg" xmlns:xlink="http://www.w3.org/1999/xlink" xml:space="preserve" style="fill-rule:evenodd;clip-rule:evenodd;stroke-linejoin:round;stroke-miterlimit:2;"><title>Liqquid</title><desc>We're a team of entrepreneurs passionate about property, technology and finance. We have experience in real estate investment, fund management, building marketplaces, artificial intelligence and machine learning. For several years, we have been focusing on ways to make the property market more liquid, with a view to benefitting everyone involved, from buyers and sellers to agents, conveyancers, surveyors, brokers and lenders. </desc>    <g transform="matrix(1.21374,0,0,1.21374,-184.889,-12.7302)">        <path d="M366.714,11.312c0,0 146.176,187.961 146.176,270.55c-0,82.589 -67.052,149.64 -149.641,149.64c-82.588,0 -149.64,-67.051 -149.64,-149.64c-0,-82.589 153.105,-270.55 153.105,-270.55Zm-3.465,212.693c31.932,0 57.857,25.925 57.857,57.857c-0,31.932 -25.925,57.856 -57.857,57.856c-31.932,0 -57.856,-25.924 -57.856,-57.856c-0,-31.932 25.924,-57.857 57.856,-57.857Z" style="fill:rgb(1,103,153);"/>    </g></svg>