<?xml version="1.0" encoding="UTF-8" standalone="no"?><!DOCTYPE svg PUBLIC "-//W3C//DTD SVG 1.1//EN" "http://www.w3.org/Graphics/SVG/1.1/DTD/svg11.dtd"><svg width="100%" height="100%" viewBox="0 0 512 512" version="1.1" xmlns="http://www.w3.org/2000/svg" xmlns:xlink="http://www.w3.org/1999/xlink" xml:space="preserve" style="fill-rule:evenodd;clip-rule:evenodd;stroke-linejoin:round;stroke-miterlimit:2;"><title>RoboCash VN</title><desc></desc>    <g id="Слой_1-2" transform="matrix(6.3197,0,0,6.3197,-421.899,-84.8564)">        <g transform="matrix(0.181348,0,0,0.181348,44.249,-1.8291)">            <circle cx="347.5" cy="307.5" r="222.5" style="fill:rgb(150,52,177);"/>        </g>        <path d="M76.5,51.7c0.5,-1.2 1.3,-2.3 2.3,-3.2l1.1,-19.4c0.4,-6.7 4.7,-8.7 8,-2.4l3.2,7.2l0.5,-0.3l0.6,-0.3l0.7,-0.4c0.7,-0.4 1.4,-0.8 2.1,-1.1c1.7,-0.8 3.5,-1.4 5.3,-1.9c2.9,-0.7 5.9,-1 8.9,-0.8c3.1,0.2 6.1,0.9 8.9,2c1.9,0.8 3.7,1.7 5.4,2.9l4,-7.8c2.8,-5.5 7,-3.3 7.2,1.4l1,19.8l0,0.5c0,0.2 0,0.4 0.1,0.7l0.3,0.3c1.2,1.2 2.1,2.7 2.6,4.3c0.5,1.7 0.7,3.5 0.6,5.3c0,1.1 -0.2,2.3 -0.4,3.4c-0.2,1 -0.6,2.1 -1.1,3c-0.6,1.2 -1.5,2.2 -2.6,3c-0.5,0.4 -1.1,0.7 -1.7,0.9c-0.3,0.7 -0.7,1.4 -1.1,2.1c-0.5,0.8 -0.1,0.2 -0.3,0.4c-0.3,0.5 -0.5,0.9 -0.8,1.2l-0.6,0.8l-0.6,0.8l0,0.1l-0.8,1l-0.1,0.1l-0.1,0.2c-0.2,0.2 -0.5,0.5 -0.8,0.8c-0.7,0.8 -1.5,1.5 -2.3,2.2c-0.8,0.6 -1.5,1.2 -2.3,1.8c-0.9,0.6 -1.8,1.2 -2.7,1.6c-2,1.1 -4.2,1.9 -6.5,2.5c-2.3,0.5 -4.6,0.8 -7,0.9c-3.2,0 -6.5,-0.5 -9.5,-1.5c-3.1,-1 -5.9,-2.5 -8.4,-4.5c-0.5,-0.4 -0.9,-0.8 -1.4,-1.2c-0.5,-0.4 -1,-0.9 -1.4,-1.4c-0.4,-0.5 -0.7,-0.8 -1,-1.1c-0.4,-0.4 -0.7,-0.9 -1.1,-1.3l-0.1,-0.2c-0.1,-0.2 -0.3,-0.3 -0.3,-0.4l-0.3,-0.5l-0.2,-0.2c-0.2,-0.3 -0.4,-0.6 -0.6,-0.9l-0.5,-0.8l-0.1,-0.2l-1,-1.9c-0.3,-0.1 -0.5,-0.2 -0.7,-0.3c-2.2,-1.1 -3.9,-3.1 -4.6,-5.5c-0.7,-2.1 -0.9,-4.4 -0.7,-6.6c-0.1,-1.9 0.3,-3.5 0.9,-5.1Z" style="fill:white;fill-rule:nonzero;"/>        <path d="M100.3,71.3c0.5,0.1 1,0.3 1.5,0.5c3.9,1.3 8.1,1.2 11.9,-0.3c0.3,-0.1 0.5,-0.3 0.7,-0.2c0.1,0.4 -0.3,0.4 -0.5,0.6c-2.7,2 -7.5,2.2 -10.7,1.2c-1,-0.3 -1.9,-0.8 -2.8,-1.4c-0.1,-0.1 -0.2,-0.1 -0.1,-0.4Zm-17.3,-20.9c-1.4,4.8 -1.2,9.9 0.4,14.6c0.1,0.3 0.2,0.6 0.3,0.8l-0.3,0c0.1,0.1 0.2,0.1 0.3,0.1c0.2,0.3 0.2,0.6 0.4,0.9l1.2,2.4c0.3,0.5 0.6,1 1,1.5c0.2,0.3 0.3,0.5 0.5,0.7c0.2,0.2 0.4,0.4 0.5,0.7c0.5,0.7 1.1,1.4 1.7,2c0.8,0.8 1.7,1.6 2.6,2.3c4.5,3.5 10.1,5.3 15.8,5.2c4.2,0 8.3,-1.1 12,-3c1.6,-0.8 3.1,-1.8 4.4,-3c1,-0.9 1.9,-1.8 2.8,-2.8l0.8,-1c0.4,-0.5 0.7,-1 1,-1.5c0.3,-0.5 0.6,-1 0.9,-1.5c0.5,-0.8 0.9,-1.6 1.2,-2.5c0.1,-0.1 0.1,-0.3 0.2,-0.4c0.1,-0.4 0.2,-0.2 0.3,-0.3c0,-0.1 0,0 0,0c-0.3,0 -0.1,0 -0.1,0c1.7,-4.3 2.1,-9 1.1,-13.5c-0.1,-0.5 -0.4,-1.4 -0.4,-1.8c-0.2,-0.1 -0.2,-0.5 -0.2,-0.7l0.9,0c0,-0.5 -0.1,-1.5 -0.1,-2l-1.1,-14.5l-1.5,2.3c-1,1.5 -2,3.2 -3,4.7c-0.1,0.1 -0.1,0.1 -0.1,0.3l-0.2,0.2c-0.2,-0.1 -0.5,-0.5 -0.8,-0.8c0.3,-0.5 0.6,-0.9 0.9,-1.4l1.8,-2.7c0.3,-0.4 0.6,-0.9 0.9,-1.4c0.3,-0.5 0.6,-0.9 0.9,-1.4c0.1,-0.2 0.3,-0.5 0.4,-0.7c0.1,-0.2 0.3,-0.4 0.4,-0.7c0.3,-0.5 0.4,-0.4 0.4,-0.8l0,-3.3c-0.2,0.2 -2.1,3.7 -2.4,4.3c-0.8,1.4 -1.6,2.9 -2.4,4.3l-1.6,2.9c-0.2,-0.1 -0.5,-0.3 -0.6,-0.5l-1.8,-1.4l-2.6,-1.7l-0.1,0l0.1,0c-0.7,2.4 -1.2,4.9 -1.6,7.4l0,1.1c0,0.4 0,0.6 0.4,0.7c0.6,0.1 1.3,0 1.9,-0.2c0.6,-0.1 1.2,-0.3 1.7,-0.5c0.5,-0.2 1.2,-0.5 1.7,-0.6c-0.2,0.5 -0.9,2 -1.1,2.6l-1.2,2.4c0.7,0.3 1.5,0.5 2.2,0.8c0.7,0.3 1.5,0.5 2.2,0.9c1,0.5 2,1 3,1.5c0.3,0.2 0.6,0.5 0.7,0.8c1,2.4 0.5,8.2 -0.5,10.5c-0.1,0.3 -0.3,0.7 -0.5,1c-0.2,0.3 -0.5,0.2 -1.2,0.3c-2.7,0.3 -5.6,0.5 -8.3,0.7c-3.8,0.2 -7.8,0.6 -11.6,0.5c-5.8,-0.2 -11.3,-0.5 -17.1,-1c-0.9,-0.1 -1.8,-0.1 -2.8,-0.2c-0.7,-0.1 -0.7,0 -0.9,-0.5c-1.3,-2.6 -2,-9.2 -0.7,-11.5c0.5,-0.6 1.1,-1 1.8,-1.2c2,-1.1 4.2,-1.9 6.4,-2.6l-1.2,-1.9c-0.2,-0.3 -1.8,-3 -1.9,-3.2c1.6,0.5 4.1,1.7 5.8,1.5c0.9,-0.1 0.9,-0.7 0.8,-1.6c-0.2,-1.4 -0.5,-2.7 -0.8,-4c-0.1,-0.5 -1.1,-3.6 -1.1,-3.8l0.1,-0.1l-0.1,0.1l-0.1,0l-0.1,0.1l-1.3,0.7c-0.5,0.3 -1,0.6 -1.4,0.9c-0.4,0.3 -0.9,0.6 -1.3,1l-1.3,1.1l-0.8,-1.4c-0.3,-0.5 -0.6,-1 -0.8,-1.4c-1,-1.9 -2.2,-3.8 -3.2,-5.8l-1.6,-2.8c-0.1,0.7 0,1.5 0,2.2c0,1.4 -0.2,1.1 0.3,1.9l1.8,2.7c0.3,0.5 0.6,0.9 0.9,1.4c0.2,0.2 0.3,0.4 0.4,0.7c0.2,0.3 0.1,0.2 0.2,0.3c0.3,0.5 1.9,2.9 2,3.1c-0.2,0.3 -0.5,0.6 -0.8,0.8l-1.9,-2.9c-0.8,-1.3 -1.8,-2.5 -2.6,-3.8l-0.5,-0.7c-0.1,-0.1 -0.1,-0.1 -0.2,-0.2c-0.1,2.8 -0.4,5.6 -0.6,8.3l-0.6,8.2l1,0c-0.3,0.4 -0.3,0.6 -0.4,0.8Z" style="fill:rgb(226,226,226);fill-rule:nonzero;"/>        <path d="M121.2,56.2c0,2.2 0,3.7 -1.3,5.4c-0.3,0.4 -0.2,0.3 -0.8,0.5c-2.3,0.6 -4.8,0.7 -7.1,0.2c-0.9,-0.2 -1.1,-0.2 -1.5,-1.1c-0.8,-2.2 -1.1,-4.6 -0.7,-6.9c1,-3 3.6,-4.1 6.7,-3.7c0.7,0.1 1.4,0.3 2,0.6c0.6,0.3 1.1,0.7 1.5,1.2c1,-0.2 2.1,1.3 1.8,2.8c-0.1,0.3 -0.2,0.6 -0.4,0.8l-0.2,0.2Zm-14.9,8.6c3.4,0 5.7,-0.1 9.2,-0.3c4.2,-0.2 7.6,-0.6 11.7,-1c0.4,0 0.5,-0.2 0.8,-1c0.8,-2.1 1.4,-7.1 0.5,-9.5c-0.4,-0.9 -1,-1.1 -2,-1.7c-5.4,-3 -12.4,-4.2 -18.7,-4.1l-1.9,0c-4.2,0 -8.5,0.7 -12.5,2c-2.2,0.7 -4.2,1.6 -6.2,2.8c-1.2,0.7 -1.3,2.9 -1.2,4.2c0,2.3 0.4,4.7 1.2,6.9c0.2,0.3 0.1,0.4 0.5,0.4l5,0.5c2.2,0.2 4.5,0.4 6.7,0.5c2.1,0.2 4.6,0.3 6.9,0.3Z" style="fill:rgb(59,117,153);fill-rule:nonzero;"/>        <path d="M95.8,35.2c-0.1,0.3 0.8,3.3 1,3.9c0.4,1.3 0.7,2.7 0.8,4c0.1,0.9 0,1.5 -0.8,1.6c-1.7,0.2 -4.2,-0.9 -5.8,-1.5c0.1,0.2 1.7,2.8 1.9,3.2l1.2,1.8c2.1,-0.6 4.2,-1 6.3,-1.3c6.6,-0.9 14.6,-0.6 20.8,1.4l1.2,-2.4c0.3,-0.6 1,-2.1 1.1,-2.6c-0.5,0.1 -1.1,0.5 -1.7,0.6c-0.5,0.2 -1.1,0.4 -1.7,0.5c-0.6,0.2 -1.3,0.3 -1.9,0.2c-0.4,-0.1 -0.4,-0.3 -0.4,-0.7l0,-1.1c0.4,-2.5 0.9,-4.9 1.6,-7.4l-0.1,0c-0.9,-0.4 -1.4,-0.7 -2.5,-1.1c-5,-2 -10.5,-2.3 -15.8,-1.1c-0.9,0.2 -1.9,0.5 -2.8,0.9c-0.4,0.2 -0.9,0.3 -1.3,0.5c-0.4,0.2 -0.8,0.5 -1.1,0.6Z" style="fill:rgb(243,161,15);fill-rule:nonzero;"/>        <path d="M118.5,57.2c-0.2,2.2 -1.3,3.4 -3.4,3.2c-2.1,-0.2 -2.8,-1.8 -2.7,-3.9c0.1,-2.1 1.2,-3.3 3.4,-3.2c2,0.2 2.8,1.8 2.7,3.9Zm2.7,-1c-1.1,1.1 -2.3,0.3 -2.8,-0.9c-0.5,-1.2 0.3,-3 1.5,-2.9c0.7,0.5 1.3,2.6 1.3,3.8l0.2,-0.2c0.2,-0.2 0.3,-0.5 0.3,-0.8c0.3,-1.4 -0.7,-2.9 -1.8,-2.8c-0.4,-0.5 -0.9,-0.9 -1.5,-1.2c-0.6,-0.3 -1.3,-0.5 -2,-0.6c-3.2,-0.4 -5.8,0.7 -6.7,3.7c-0.4,2.3 -0.2,4.7 0.7,6.9c0.5,1 0.7,0.9 1.5,1.1c2.4,0.5 4.8,0.4 7.1,-0.2c0.6,-0.2 0.5,-0.1 0.8,-0.5c1.4,-1.7 1.4,-3.2 1.4,-5.4Z" style="fill:rgb(207,210,210);fill-rule:nonzero;"/>        <path d="M106.2,64.8c-2.3,0 -4.7,-0.2 -7,-0.3c-2.3,-0.1 -4.5,-0.3 -6.7,-0.5l-5,-0.5c-0.4,0 -0.3,-0.1 -0.5,-0.4c-0.8,-2.2 -1.2,-4.5 -1.2,-6.9c0,-1.3 0.1,-3.5 1.2,-4.2c1.9,-1.2 4,-2.1 6.2,-2.8c4,-1.3 8.3,-2 12.5,-2l1.9,0c6.3,-0.1 13.3,1.1 18.7,4.1c1,0.6 1.6,0.8 2,1.7c0.9,2.4 0.3,7.4 -0.5,9.5c-0.3,0.9 -0.4,1 -0.8,1c-4.1,0.4 -7.5,0.7 -11.7,1c-3.4,0.1 -5.7,0.2 -9.1,0.3Zm-12.2,-16.6c-2.3,0.6 -4.5,1.5 -6.6,2.5c-0.7,0.2 -1.3,0.7 -1.8,1.2c-1.3,2.4 -0.7,8.9 0.7,11.5c0.3,0.5 0.3,0.5 0.9,0.5c0.9,0.1 1.8,0.2 2.8,0.2c5.7,0.5 11.3,0.8 17.1,1c3.8,0.1 7.8,-0.2 11.6,-0.5c2.7,-0.2 5.6,-0.4 8.3,-0.7c0.7,-0.1 1,0 1.2,-0.3c0.2,-0.3 0.4,-0.7 0.5,-1c1,-2.3 1.5,-8.1 0.5,-10.5c-0.1,-0.4 -0.3,-0.7 -0.7,-0.8c-1,-0.6 -2,-1.1 -3,-1.5c-0.7,-0.3 -1.4,-0.6 -2.1,-0.9c-0.7,-0.3 -1.5,-0.5 -2.2,-0.8c-6.2,-2 -14.2,-2.3 -20.8,-1.4c-2.3,0.5 -4.4,0.9 -6.4,1.5Z" style="fill:rgb(75,88,88);fill-rule:nonzero;"/>        <path d="M98.9,53.3c0.9,-0.1 1.8,0.1 2.6,0.7c0.6,0.7 0.9,1.5 0.9,2.4c0.1,2.2 -0.6,3.8 -2.6,4c-2.2,0.2 -3.3,-1 -3.5,-3c-0.2,-2.2 0.6,-3.8 2.6,-4.1Zm5,-0.8c0.4,0.5 0.7,1 0.9,1.6c0.3,0.7 0.3,1.5 0.2,2.3c-1,1.1 -2.4,0.2 -2.7,-1c-0.4,-1.4 0.3,-3.1 1.6,-2.9Z" style="fill:rgb(207,210,210);fill-rule:nonzero;"/>        <path d="M83.4,65.8l0.3,0c-0.1,-0.3 -0.2,-0.6 -0.3,-0.8c-1.6,-4.7 -1.8,-9.8 -0.4,-14.6c-1.7,0 -2.8,1.5 -3.4,2.7c-1.8,4.1 -1.1,12.3 3.8,12.7Z" style="fill:rgb(75,88,88);fill-rule:nonzero;"/>        <path d="M131.2,65.8c1.5,-0.2 2.9,-1.2 3.6,-2.6c0.7,-1.5 1.1,-3.2 1.2,-4.9c0.1,-2.3 -0.5,-5.5 -2.1,-7c-0.5,-0.5 -1.2,-0.9 -2,-1c0,0.5 0.3,1.3 0.4,1.8c0.9,4.5 0.5,9.3 -1.2,13.6c-0.1,0.1 -0.2,0.1 0.1,0.1Z" style="fill:rgb(75,88,88);fill-rule:nonzero;"/>        <path d="M100.5,57.5l0.2,0.1c-0.5,1.4 -2.1,1.5 -2.7,0c-0.2,-0.7 -0.2,-1.4 0.2,-2c0.5,-0.7 1.3,-0.8 1.6,-0.5c0.2,-0.2 0.2,-0.3 0.4,-0.4c1.4,-0.5 1.9,2.9 0.3,2.8Zm-1.6,-4.2c-2,0.2 -2.8,1.8 -2.6,4c0.2,2 1.3,3.3 3.5,3c2,-0.2 2.7,-1.9 2.6,-4c0,-0.9 -0.3,-1.7 -0.9,-2.4c-0.8,-0.5 -1.7,-0.7 -2.6,-0.6Z" style="fill:rgb(14,79,156);fill-rule:nonzero;"/>        <path d="M116.6,57.5l0.2,0.1c-0.2,0.6 -0.7,1 -1.3,1.1c-1.7,0.1 -2.1,-2.9 -0.5,-3.6c0.3,-0.1 0.6,-0.1 0.9,0c0.2,-0.2 0.1,-0.2 0.4,-0.3c0.2,-0.1 0.4,-0.1 0.6,0c0.9,0.4 1,2.8 -0.3,2.7Zm1.9,-0.3c0.2,-2.1 -0.7,-3.7 -2.7,-3.9c-2.2,-0.2 -3.3,1 -3.4,3.2c-0.1,2.2 0.7,3.8 2.7,3.9c2,0.1 3.2,-1.1 3.4,-3.2Z" style="fill:rgb(14,79,156);fill-rule:nonzero;"/>        <path d="M113.6,71.6c-3.8,1.5 -8,1.6 -11.9,0.3c-0.5,-0.2 -1,-0.4 -1.5,-0.5c-0.1,0.2 0,0.2 0.1,0.4c0.8,0.6 1.8,1.1 2.8,1.4c3.2,1 8,0.8 10.7,-1.2c0.2,-0.2 0.6,-0.2 0.5,-0.6c-0.2,-0.1 -0.4,0 -0.7,0.2Z" style="fill:rgb(75,88,88);fill-rule:nonzero;"/>        <path d="M103.9,52.5c-1.3,-0.1 -2,1.5 -1.6,2.8c0.4,1.2 1.7,2.1 2.7,1c0.1,-0.8 0,-1.5 -0.2,-2.3c-0.2,-0.6 -0.5,-1.1 -0.9,-1.5Z" style="fill:white;fill-rule:nonzero;"/>        <path d="M121.2,56.2c0,-1.2 -0.5,-3.3 -1.2,-3.8c-1.2,-0.1 -2,1.6 -1.5,2.9c0.4,1.3 1.6,2 2.7,0.9Z" style="fill:white;fill-rule:nonzero;"/>        <path d="M116.6,57.5c-0.4,-0.1 -0.7,-0.5 -0.8,-0.9c-0.1,-0.5 -0.1,-1 0.1,-1.4c-0.3,-0.1 -0.6,-0.1 -0.9,0c-1.6,0.7 -1.2,3.7 0.5,3.6c0.6,-0.1 1.1,-0.5 1.3,-1.1l-0.2,-0.2Z" style="fill-rule:nonzero;"/>        <path d="M100.5,57.5c-0.4,-0.1 -0.7,-0.5 -0.8,-0.9c-0.1,-0.5 -0.1,-1 0.1,-1.4c-0.3,-0.3 -1.1,-0.2 -1.6,0.5c-0.4,0.6 -0.5,1.3 -0.2,2c0.5,1.5 2.1,1.4 2.7,0l-0.2,-0.2Z" style="fill-rule:nonzero;"/>        <path d="M99.8,55.2c-0.2,0.4 -0.2,0.9 -0.1,1.4c0.1,0.4 0.4,0.8 0.8,0.9c1.6,0.2 1,-3.2 -0.3,-2.7c-0.2,0.1 -0.2,0.3 -0.4,0.4Z" style="fill:white;fill-rule:nonzero;"/>        <path d="M116,55.2c-0.2,0.4 -0.2,0.9 -0.1,1.4c0.1,0.4 0.4,0.8 0.8,0.9c1.3,0.1 1.2,-2.2 0.3,-2.6c-0.2,-0.1 -0.4,-0.1 -0.6,0c-0.3,0.1 -0.2,0.1 -0.4,0.3Z" style="fill:white;fill-rule:nonzero;"/>        <path d="M102.4,57.2c-0.2,2.2 -1.3,3.4 -3.4,3.2c-2.1,-0.2 -2.8,-1.8 -2.7,-3.9c0.1,-2.1 1.2,-3.3 3.4,-3.2c2,0.2 2.9,1.8 2.7,3.9Zm2.7,-1c-1.1,1.1 -2.3,0.3 -2.8,-0.9c-0.5,-1.2 0.3,-3 1.5,-2.9c0.7,0.5 1.3,2.6 1.3,3.8l0.2,-0.2c0.2,-0.2 0.3,-0.5 0.4,-0.8c0.3,-1.4 -0.7,-2.9 -1.8,-2.8c-0.4,-0.5 -0.9,-0.9 -1.5,-1.2c-0.6,-0.3 -1.3,-0.5 -2,-0.6c-3.2,-0.4 -5.8,0.7 -6.7,3.7c-0.4,2.3 -0.2,4.7 0.7,6.9c0.5,1 0.7,0.9 1.5,1.1c2.4,0.5 4.8,0.4 7.1,-0.2c0.6,-0.2 0.5,-0.1 0.8,-0.5c1.3,-1.7 1.3,-3.2 1.3,-5.4Z" style="fill:rgb(207,210,210);fill-rule:nonzero;"/>    </g></svg>