<?xml version="1.0" encoding="UTF-8" standalone="no"?><!DOCTYPE svg PUBLIC "-//W3C//DTD SVG 1.1//EN" "http://www.w3.org/Graphics/SVG/1.1/DTD/svg11.dtd"><svg width="100%" height="100%" viewBox="0 0 512 512" version="1.1" xmlns="http://www.w3.org/2000/svg" xmlns:xlink="http://www.w3.org/1999/xlink" xml:space="preserve" style="fill-rule:evenodd;clip-rule:evenodd;stroke-linejoin:round;stroke-miterlimit:2;"><title>FPF</title><desc>The French Crowdfunding Association</desc>    <g transform="matrix(1,0,0,1,192,192)">        <g transform="matrix(4.63636,0,0,4.63636,-232.727,-232.727)">            <path d="M119,64c0,30.172 -24.828,55 -55,55c-30.172,0 -55,-24.828 -55,-55c0,-30.172 24.828,-55 55,-55c30.172,0 55,24.828 55,55" style="fill:white;fill-rule:nonzero;"/>        </g>        <g transform="matrix(4.63636,0,0,4.63636,-232.727,-232.727)">            <path d="M92,98.94c-3.84,0 -7,-3.16 -7,-7c0,-3.84 3.16,-7 7,-7c3.84,0 7,3.16 7,7c0,3.84 -3.16,7 -7,7m15,-19.86c0,-3.489 -2.871,-6.36 -6.36,-6.36c-3.489,0 -6.36,2.871 -6.36,6.36c0,3.489 2.871,6.36 6.36,6.36c3.489,0 6.36,-2.871 6.36,-6.36m2.11,-14.76c0,-3.089 -2.541,-5.63 -5.63,-5.63c-3.089,0 -5.63,2.541 -5.63,5.63c0,3.089 2.541,5.63 5.63,5.63c3.089,0 5.63,-2.541 5.63,-5.63m-3.54,-14.9c-0.005,-2.695 -2.225,-4.91 -4.92,-4.91c-2.699,0 -4.92,2.221 -4.92,4.92c0,2.699 2.221,4.92 4.92,4.92c0,0 0,0 0,0c2.699,0 4.92,-2.221 4.92,-4.92c0,-0.003 0,-0.007 0,-0.01m-9.26,-12.79c0,-2.337 -1.923,-4.26 -4.26,-4.26c-2.337,0 -4.26,1.923 -4.26,4.26c0,2.337 1.923,4.26 4.26,4.26c0.003,0 0.007,0 0.01,0c2.333,-0.005 4.25,-1.927 4.25,-4.26m-13.57,-8.52c-0.005,-1.916 -1.584,-3.49 -3.5,-3.49c-1.92,0 -3.5,1.58 -3.5,3.5c0,1.92 1.58,3.5 3.5,3.5c1.922,-0.005 3.5,-1.588 3.5,-3.51m-15.62,-2.87c0,-0.017 0,-0.033 0,-0.05c0,-1.542 -1.268,-2.81 -2.81,-2.81c-1.541,0 -2.81,1.268 -2.81,2.81c0,1.542 1.269,2.81 2.81,2.81c0.004,0 0.007,0 0.01,0c1.542,0 2.81,-1.268 2.81,-2.81m-15.45,2.92c0,-1.152 -0.948,-2.1 -2.1,-2.1c-1.152,0 -2.1,0.948 -2.1,2.1c0,1.148 0.942,2.095 2.09,2.1c0.003,0 0.007,0 0.01,0c1.152,0 2.1,-0.948 2.1,-2.1c0,0 0,0 0,0m16.06,66.14c0.887,-0.888 1.385,-2.093 1.385,-3.348c0,-2.601 -2.14,-4.74 -4.74,-4.74c-2.6,0 -4.74,2.139 -4.74,4.74c0,1.255 0.498,2.46 1.385,3.348c0.889,0.891 2.097,1.392 3.355,1.392c1.258,0 2.466,-0.501 3.355,-1.392m10,-2.33c0.81,-0.808 1.265,-1.906 1.265,-3.05c0,-2.365 -1.946,-4.31 -4.31,-4.31c-2.364,0 -4.31,1.945 -4.31,4.31c0,1.144 0.455,2.242 1.265,3.05c1.671,1.668 4.419,1.668 6.09,0m8.09,-6c0.714,-0.714 1.115,-1.684 1.115,-2.693c0,-2.09 -1.72,-3.81 -3.81,-3.81c-2.09,0 -3.81,1.72 -3.81,3.81c0,1.009 0.401,1.979 1.115,2.693c0.714,0.715 1.684,1.117 2.695,1.117c1.011,0 1.981,-0.402 2.695,-1.117m5.47,-8.82c0.627,-0.626 0.98,-1.477 0.98,-2.363c0,-1.833 -1.508,-3.34 -3.34,-3.34c-1.832,0 -3.34,1.507 -3.34,3.34c0,0.886 0.353,1.737 0.98,2.363c1.295,1.293 3.425,1.293 4.72,0m1.7,-10.58c0.538,-0.54 0.84,-1.271 0.84,-2.033c0,-1.58 -1.3,-2.88 -2.88,-2.88c-1.58,0 -2.88,1.3 -2.88,2.88c0,0.762 0.302,1.493 0.84,2.033c0.54,0.542 1.275,0.847 2.04,0.847c0.765,0 1.5,-0.305 2.04,-0.847m-2.39,-10.58c0.442,-0.444 0.69,-1.045 0.69,-1.672c0,-1.3 -1.07,-2.37 -2.37,-2.37c-1.3,0 -2.37,1.07 -2.37,2.37c0,0.627 0.248,1.228 0.69,1.672c0.923,0.919 2.437,0.919 3.36,0m-6.08,-8.87c0.355,-0.356 0.555,-0.839 0.555,-1.342c0,-1.042 -0.858,-1.9 -1.9,-1.9c-1.042,0 -1.9,0.858 -1.9,1.9c0,0.503 0.2,0.986 0.555,1.342c0.356,0.357 0.841,0.558 1.345,0.558c0.504,0 0.989,-0.201 1.345,-0.558m-8.76,-6c0.275,-0.269 0.43,-0.638 0.43,-1.022c0,-0.785 -0.646,-1.43 -1.43,-1.43c-0.784,0 -1.43,0.645 -1.43,1.43c0,0.384 0.155,0.753 0.43,1.022c0.552,0.54 1.448,0.54 2,0m-23.6,38.59c0.003,0 0.007,0 0.01,0c1.712,0 3.12,-1.408 3.12,-3.12c0,-1.712 -1.408,-3.12 -3.12,-3.12c-1.708,0 -3.115,1.402 -3.12,3.11c0,0.003 0,0.007 0,0.01c0,1.708 1.402,3.115 3.11,3.12m5.71,3.55c0.003,0 0.007,0 0.01,0c1.552,0 2.83,-1.277 2.83,-2.83c0,-1.552 -1.278,-2.83 -2.83,-2.83c-1.549,0 -2.825,1.271 -2.83,2.82c0,0.003 0,0.007 0,0.01c0,1.549 1.271,2.825 2.82,2.83m6.57,1c0.02,0 0.04,0.001 0.06,0.001c1.377,0 2.51,-1.133 2.51,-2.51c0,-1.377 -1.133,-2.51 -2.51,-2.51c-1.362,0 -2.488,1.108 -2.51,2.469c0,0.003 0,0.007 0,0.01c0,1.373 1.127,2.505 2.5,2.51m6.64,-1.56c1.201,0 2.19,-0.989 2.19,-2.19c0,-1.201 -0.989,-2.19 -2.19,-2.19c-1.198,0 -2.185,0.982 -2.19,2.18c0,0.003 0,0.007 0,0.01c0,1.201 0.989,2.19 2.19,2.19c0,0 0,0 0,0m5.71,-4.08c1.037,0 1.89,-0.853 1.89,-1.89c0,-1.037 -0.853,-1.89 -1.89,-1.89c-1.033,0 -1.885,0.847 -1.89,1.88c0,0.003 0,0.007 0,0.01c0,1.037 0.853,1.89 1.89,1.89c0,0 0,0 0,0m3.81,-6c0.003,0 0.007,0 0.01,0c0.856,0 1.56,-0.704 1.56,-1.56c0,-0.856 -0.704,-1.56 -1.56,-1.56c-0.856,0 -1.56,0.704 -1.56,1.56c0,0.852 0.698,1.555 1.55,1.56m1.31,-6.95c0.686,0 1.25,-0.564 1.25,-1.25c0,-0.686 -0.564,-1.25 -1.25,-1.25c-0.686,0 -1.25,0.564 -1.25,1.25c0,0.686 0.564,1.25 1.25,1.25m-1.26,-6.88c0.003,0 0.007,0 0.01,0c0.516,0 0.94,-0.424 0.94,-0.94c0,-0.516 -0.424,-0.94 -0.94,-0.94c-0.516,0 -0.94,0.424 -0.94,0.94c0,0.512 0.418,0.935 0.93,0.94" style="fill:rgb(26,29,86);fill-rule:nonzero;"/>        </g>        <g transform="matrix(4.63636,0,0,4.63636,-232.727,-232.727)">            <path d="M28.36,74.41c2.699,0 4.92,2.221 4.92,4.92c0,2.699 -2.221,4.92 -4.92,4.92c-2.695,0 -4.915,-2.215 -4.92,-4.91c0,-0.003 0,-0.007 0,-0.01c0,-2.699 2.221,-4.92 4.92,-4.92c0,0 0,0 0,0m1.55,-37.59c0,3.84 3.16,7 7,7c3.84,0 7,-3.16 7,-7c0,-3.84 -3.16,-7 -7,-7c-3.84,0 -7,3.16 -7,7m-7.91,12.86c0,3.489 2.871,6.36 6.36,6.36c3.489,0 6.36,-2.871 6.36,-6.36c0,-3.489 -2.871,-6.36 -6.36,-6.36c-0.003,0 -0.007,0 -0.01,0c-3.485,0.005 -6.35,2.875 -6.35,6.36m-2.1,14.76c0,3.089 2.541,5.63 5.63,5.63c3.089,0 5.63,-2.541 5.63,-5.63c0,-3.089 -2.541,-5.63 -5.63,-5.63c-0.003,0 -0.007,0 -0.01,0c-3.085,0.005 -5.62,2.545 -5.62,5.63m12.77,27.68c0,2.337 1.923,4.26 4.26,4.26c2.337,0 4.26,-1.923 4.26,-4.26c0,-2.337 -1.923,-4.26 -4.26,-4.26l-0.01,0c-2.331,0 -4.25,1.919 -4.25,4.25c0,0.003 0,0.007 0,0.01m13.58,8.5c0,1.926 1.584,3.51 3.51,3.51c1.926,0 3.51,-1.584 3.51,-3.51c0,-1.926 -1.584,-3.51 -3.51,-3.51c-0.003,0 -0.007,0 -0.01,0c-1.922,0.005 -3.5,1.588 -3.5,3.51m15.61,2.87c0,1.542 1.268,2.81 2.81,2.81c1.542,0 2.81,-1.268 2.81,-2.81c0,-1.542 -1.268,-2.81 -2.81,-2.81c-1.542,0 -2.81,1.268 -2.81,2.81m15.44,-2.88c0.005,1.148 0.952,2.09 2.1,2.09c1.152,0 2.1,-0.948 2.1,-2.1c0,-1.152 -0.948,-2.1 -2.1,-2.1c-1.154,0.005 -2.1,0.956 -2.1,2.11m-16.1,-65.89c-0.887,0.888 -1.385,2.093 -1.385,3.348c0,2.601 2.14,4.74 4.74,4.74c2.6,0 4.74,-2.139 4.74,-4.74c0,-1.255 -0.498,-2.46 -1.385,-3.348c-1.842,-1.838 -4.868,-1.838 -6.71,0m-10,2.34c-0.81,0.808 -1.265,1.906 -1.265,3.05c0,2.365 1.946,4.31 4.31,4.31c2.364,0 4.31,-1.945 4.31,-4.31c0,-1.144 -0.455,-2.242 -1.265,-3.05c-1.671,-1.668 -4.419,-1.668 -6.09,0m-8.09,6c-0.714,0.714 -1.115,1.684 -1.115,2.693c0,2.09 1.72,3.81 3.81,3.81c2.09,0 3.81,-1.72 3.81,-3.81c0,-1.009 -0.401,-1.979 -1.115,-2.693c-0.714,-0.715 -1.684,-1.117 -2.695,-1.117c-1.011,0 -1.981,0.402 -2.695,1.117m-5.46,8.82c-0.627,0.626 -0.98,1.477 -0.98,2.363c0,1.833 1.508,3.34 3.34,3.34c1.832,0 3.34,-1.507 3.34,-3.34c0,-0.886 -0.353,-1.737 -0.98,-2.363c-1.295,-1.293 -3.425,-1.293 -4.72,0m-1.65,10.59c-0.538,0.54 -0.84,1.271 -0.84,2.033c0,1.58 1.3,2.88 2.88,2.88c1.58,0 2.88,-1.3 2.88,-2.88c0,-0.762 -0.302,-1.493 -0.84,-2.033c-1.12,-1.116 -2.96,-1.116 -4.08,0m2.36,10.53c-0.445,0.444 -0.695,1.048 -0.695,1.677c0,1.3 1.07,2.37 2.37,2.37c1.3,0 2.37,-1.07 2.37,-2.37c0,-0.629 -0.25,-1.233 -0.695,-1.677c-0.919,-0.918 -2.431,-0.918 -3.35,0m6.08,8.87c-0.355,0.356 -0.555,0.839 -0.555,1.342c0,1.042 0.858,1.9 1.9,1.9c1.042,0 1.9,-0.858 1.9,-1.9c0,-0.503 -0.2,-0.986 -0.555,-1.342c-0.74,-0.734 -1.95,-0.734 -2.69,0m8.76,6c-0.269,0.267 -0.42,0.63 -0.42,1.008c0,0.779 0.641,1.42 1.42,1.42c0.779,0 1.42,-0.641 1.42,-1.42c0,-0.378 -0.151,-0.741 -0.42,-1.008c-0.55,-0.546 -1.45,-0.546 -2,0m23.63,-38.87c-0.003,0 -0.007,0 -0.01,0c-1.712,0 -3.12,1.408 -3.12,3.12c0,1.712 1.408,3.12 3.12,3.12c1.708,0 3.115,-1.402 3.12,-3.11c0,-0.003 0,-0.007 0,-0.01c0,-1.708 -1.402,-3.115 -3.11,-3.12m-5.72,-3.55c-0.003,0 -0.007,0 -0.01,0c-1.552,0 -2.83,1.277 -2.83,2.83c0,1.552 1.278,2.83 2.83,2.83c1.549,0 2.825,-1.271 2.83,-2.82c0,-0.003 0,-0.007 0,-0.01c0,-1.549 -1.271,-2.825 -2.82,-2.83m-6.57,-1c-0.017,0 -0.033,0 -0.05,0c-1.377,0 -2.51,1.133 -2.51,2.51c0,1.376 1.133,2.51 2.51,2.51c1.362,0 2.488,-1.109 2.51,-2.47c0,-0.007 0,-0.013 0,-0.02c0,-1.371 -1.128,-2.5 -2.5,-2.5c0,0 0,0 0,0m-6.6,1.52c-1.201,0 -2.19,0.989 -2.19,2.19c0,1.201 0.989,2.19 2.19,2.19c1.198,0 2.185,-0.982 2.19,-2.18c0,-1.203 -0.987,-2.195 -2.19,-2.2m-5.71,4.09c-0.003,0 -0.007,0 -0.01,0c-1.042,0 -1.9,0.858 -1.9,1.9c0,1.042 0.858,1.9 1.9,1.9c1.039,0 1.895,-0.851 1.9,-1.89c0,-1.039 -0.851,-1.895 -1.89,-1.9m-3.8,6c-0.003,0 -0.007,0 -0.01,0c-0.856,0 -1.56,0.704 -1.56,1.56c0,0.856 0.704,1.56 1.56,1.56c0.856,0 1.56,-0.704 1.56,-1.56c0,-0.852 -0.698,-1.555 -1.55,-1.56m-1.3,6.95c-0.003,0 -0.007,0 -0.01,0c-0.686,0 -1.25,0.564 -1.25,1.25c0,0.686 0.564,1.25 1.25,1.25c0.686,0 1.25,-0.564 1.25,-1.25c0,-0.682 -0.558,-1.245 -1.24,-1.25m1.26,6.95c-0.003,0 -0.007,0 -0.01,0c-0.516,0 -0.94,0.424 -0.94,0.94c0,0.516 0.424,0.94 0.94,0.94c0.516,0 0.94,-0.424 0.94,-0.94c0,-0.512 -0.418,-0.935 -0.93,-0.94" style="fill:rgb(2,169,205);fill-rule:nonzero;"/>        </g>    </g></svg>