<?xml version="1.0" encoding="UTF-8" standalone="no"?><!DOCTYPE svg PUBLIC "-//W3C//DTD SVG 1.1//EN" "http://www.w3.org/Graphics/SVG/1.1/DTD/svg11.dtd"><svg width="100%" height="100%" viewBox="0 0 512 512" version="1.1" xmlns="http://www.w3.org/2000/svg" xmlns:xlink="http://www.w3.org/1999/xlink" xml:space="preserve" style="fill-rule:evenodd;clip-rule:evenodd;stroke-linejoin:round;stroke-miterlimit:2;"><title>Platform One</title><desc>Platform One was launched in 2011 by a group of established financial services firms, who shared the vision of creating a premium online platform designed for advised high net worth clients.Platform One is a UK and International platform service. It has been designed with UK HNW clients in mind, and also to meet the growing needs of the international market-place. Advisers and their clients from around the world can now access the benefits of a UK regulated wrap platform with exceptional service standards.</desc>    <g transform="matrix(20.2754,0,0,4.84478,-2634.81,98.3609)">        <g transform="matrix(0.048336,0,0,0.202286,130.293,-19.2552)">            <path d="M499.042,47.366c0,-19.989 -16.228,-36.217 -36.217,-36.217l-417.345,-0c-19.989,-0 -36.217,16.228 -36.217,36.217l-0,417.345c-0,19.989 16.228,36.217 36.217,36.217l417.345,0c19.989,0 36.217,-16.228 36.217,-36.217l0,-417.345Z" style="fill:rgb(161,112,0);"/>        </g>        <g transform="matrix(0.622136,-0.576672,0.144549,2.73125,-24.8631,128.911)">            <path d="M264.088,5.518c1.134,2.168 7.195,10.679 6.985,12.32c-0.218,1.71 -0.517,3.081 -3.788,3.717c-3.271,0.636 -5.478,0.82 -5.478,0.82l2.555,1.022l-1.459,2.11c-0,0 3.702,-2.056 5.042,-2.335c1.278,-0.266 2.728,-0.527 2.613,0.73c-0.14,1.518 -5.555,10.373 -5.555,10.373c0,-0 10.981,-9.88 10.774,-11.705c-0.175,-1.549 -0.011,-1.116 0.271,-1.563c0.338,-0.534 1.632,-0.999 1.755,-1.642c0.075,-0.395 -2.381,-1.238 -2.381,-1.238c0,-0 0.086,-2.301 -0.614,-3.913c-0.553,-1.274 -0.773,-1.657 -10.72,-8.696Z" style="fill:white;"/>        </g>    </g></svg>