<?xml version="1.0" encoding="UTF-8" standalone="no"?><!DOCTYPE svg PUBLIC "-//W3C//DTD SVG 1.1//EN" "http://www.w3.org/Graphics/SVG/1.1/DTD/svg11.dtd"><svg width="100%" height="100%" viewBox="0 0 512 512" version="1.1" xmlns="http://www.w3.org/2000/svg" xmlns:xlink="http://www.w3.org/1999/xlink" xml:space="preserve" style="fill-rule:evenodd;clip-rule:evenodd;stroke-linejoin:round;stroke-miterlimit:2;"><title>Twino</title><desc>TWINO is an international financial technology company that has issued more than EUR 950 million in loans since its inception in 2009. TWINO Investment Platform was launched in 2015 and since then the platform provides European investors a chance to earn premium returns by investing in consumer loans issued by TWINO Group subsidiaries in Poland, Russia, Latvia, and Kazakhstan.</desc>    <g transform="matrix(1.09442,0,0,1.09442,-12.8434,-24.1717)">        <g transform="matrix(1.04484,0,0,1.04251,-23.9204,-19.7427)">            <path d="M481,152.75c0,-61.677 -49.961,-111.75 -111.5,-111.75l-223,0c-61.539,0 -111.5,50.073 -111.5,111.75l0,223.5c0,61.677 49.961,111.75 111.5,111.75l223,0c61.539,0 111.5,-50.073 111.5,-111.75l0,-223.5Z" style="fill:rgb(30,52,99);"/>        </g>        <g transform="matrix(1,0,0,1,-1,-1)">            <path d="M368.506,170c20.148,0 36.505,16.358 36.505,36.506c0,20.148 -16.357,36.505 -36.505,36.505c-20.148,0 -36.506,-16.357 -36.506,-36.505c0,-20.148 16.358,-36.506 36.506,-36.506Zm0,21.848c8.09,0 14.658,6.568 14.658,14.658c0,8.09 -6.568,14.658 -14.658,14.658c-8.09,0 -14.658,-6.568 -14.658,-14.658c0,-8.09 6.568,-14.658 14.658,-14.658Z" style="fill:white;"/>        </g>        <g transform="matrix(3.12014,0,0,3.12014,86.0078,165.32)">            <path d="M8.5,24.8c-0.2,0 -0.3,-0.1 -0.3,-0.3l0,-17.3c0,-0.3 -0.2,-0.5 -0.5,-0.5l-5.8,0c-0.2,0 -0.3,-0.2 -0.3,-0.3l0,-4.6c0,-0.2 0.2,-0.3 0.3,-0.3l18.1,0c0.2,0 0.3,0.2 0.3,0.3l0,4.6c0,0.2 -0.2,0.3 -0.3,0.3l-5.8,0c-0.3,0 -0.5,0.2 -0.5,0.5l0,17.3c0,0.2 -0.2,0.4 -0.3,0.4l-4.9,0l0,-0.1Z" style="fill:white;"/>        </g>        <path d="M327.259,286.683l14.312,14.312c-32.136,30.722 -79.114,45.874 -122.779,36.698c-25.829,-5.428 -49.906,-18.555 -69.065,-36.857l13.694,-13.694c0.737,0.707 1.485,1.405 2.242,2.093c32.583,29.602 82.233,39.68 123.305,22.77c14.251,-5.868 27.221,-14.585 38.291,-25.322Z" style="fill:white;"/>    </g></svg>