<?xml version="1.0" encoding="UTF-8" standalone="no"?><!DOCTYPE svg PUBLIC "-//W3C//DTD SVG 1.1//EN" "http://www.w3.org/Graphics/SVG/1.1/DTD/svg11.dtd"><svg width="100%" height="100%" viewBox="0 0 512 512" version="1.1" xmlns="http://www.w3.org/2000/svg" xmlns:xlink="http://www.w3.org/1999/xlink" xml:space="preserve" style="fill-rule:evenodd;clip-rule:evenodd;"><title>Tessin</title><desc>Tessin is a service for those who want to place capital directly in real estate without any complicated fee structures and intermediaries. In Tessin, investors, along with others, invest in different types of real estate projects and at the same time receive a good return on their capital.</desc>    <g id="Tessin-Original-Logo" transform="matrix(10.7715,0,0,10.7715,33.9515,-29.5881)">        <path d="M2.851,26.34c-0,-12.376 7.96,-22.423 17.763,-22.423c9.804,0 17.764,10.047 17.764,22.423c0,12.375 -7.96,22.422 -17.764,22.422c-9.803,-0 -17.763,-10.047 -17.763,-22.422" style="fill:rgb(0,176,138);fill-rule:nonzero;"/>        <path id="Stroke-2" d="M1.425,26.513c0,-13.071 8.587,-23.673 19.189,-23.673c10.603,-0 19.19,10.602 19.19,23.673c-0,13.071 -8.587,23.674 -19.19,23.674c-10.602,-0 -19.189,-10.603 -19.189,-23.674Z" style="fill:none;fill-rule:nonzero;stroke:rgb(0,176,138);stroke-width:1px;"/>        <path id="Fill-4" d="M28.123,13.686c0,-0 1.634,1.703 2.399,2.989c0.591,1.009 1.217,1.599 1.217,2.781c-0,0.522 -0.348,0.8 -0.209,1.287c0.139,0.521 0.626,0.625 0.939,1.043c0.347,0.451 0.556,0.695 0.799,1.251c0.487,1.147 1.808,2.955 0.104,3.163c-0.243,0.035 -0.973,-0.034 -1.147,0.418c-0.104,0.243 -0.034,0.452 0.035,0.73c0.035,0.278 0.278,0.417 0.174,0.695c-0.104,0.278 -0.626,0.417 -0.626,0.417c0,0 0.417,0.313 0.417,0.591c-0.034,0.348 -0.66,0.209 -0.695,0.556c-0.035,0.174 0.035,0.244 0.07,0.417c0.069,0.278 0.243,0.418 0.312,0.696c0.105,0.521 0.07,0.903 -0.173,1.39c-0.487,0.904 -1.634,0.243 -2.538,0.8c-0.348,0.208 -0.522,0.347 -0.8,0.625c-0.556,0.557 -1.008,1.808 -1.008,1.808c0,0 1.634,5.91 0.869,5.458c0,-0 -2.572,-1.53 -5.145,-2.99c-1.39,-0.799 -2.19,-1.112 -3.441,-0.591c-1.113,0.452 -1.008,1.634 -1.947,2.364c-0.799,0.626 -1.251,1.078 -2.259,1.217c-1.252,0.174 -1.878,-0.626 -3.094,-0.973c-1.391,-0.383 -2.712,0.208 -3.616,-0.904c-1.008,-1.287 0.348,-2.538 0.383,-4.172c-0,-1.182 -0.174,-1.877 -0.139,-3.059c0.069,-1.46 0.208,-2.294 0.625,-3.685c0.278,-0.973 -0.313,-1.634 -0.347,-2.711c-0.035,-1.565 0.452,-2.712 0.486,-3.929c0.105,-1.946 -0.243,-2.746 0.452,-4.275c0.73,-1.6 1.947,-1.982 3.129,-3.303c1.112,-1.251 1.321,-2.364 2.711,-3.268c1.113,-0.695 1.947,-0.66 3.164,-1.077c1.182,-0.417 1.773,-1.043 3.024,-1.113c1.043,-0.069 1.599,0.209 2.608,0.452c0.799,0.209 1.39,0.139 2.051,0.626c1.147,0.799 1.494,1.877 1.46,3.268c-0.035,0.382 -0.244,1.008 -0.244,1.008" style="fill:white;fill-rule:nonzero;"/>    </g></svg>