<?xml version="1.0" encoding="UTF-8" standalone="no"?><!DOCTYPE svg PUBLIC "-//W3C//DTD SVG 1.1//EN" "http://www.w3.org/Graphics/SVG/1.1/DTD/svg11.dtd"><svg width="100%" height="100%" viewBox="0 0 512 512" version="1.1" xmlns="http://www.w3.org/2000/svg" xmlns:xlink="http://www.w3.org/1999/xlink" xml:space="preserve" style="fill-rule:evenodd;clip-rule:evenodd;stroke-linejoin:round;stroke-miterlimit:2;"><title>Fundbase</title><desc></desc>    <g transform="matrix(0.863596,0,0,0.863596,-810.6,132.064)">        <g transform="matrix(4.16667,0,0,4.16667,1013.61,51.2335)">            <path d="M0,44.293c0,-7.301 5.887,-13.223 13.172,-13.285l0.116,0.002l0,-0.005l4.428,0.005l0.116,-0.005l35.318,0l0,26.575l-35.434,0l-4.467,-0.005l-0.068,0.002l-0.074,-0.002l0.142,0l0.039,-0.001l-0.214,0c-7.24,-0.114 -13.074,-6.014 -13.074,-13.281m13.288,-57.574l0,-0.005l4.428,0.005l0.107,-0.005l35.327,0l0,26.574l-35.434,0l-4.467,-0.004c-0.046,0 -0.093,0.004 -0.14,0.005l-0.035,0l-0.126,-0.005l0.301,0l0.039,-0.001l-0.357,0c-7.173,-0.19 -12.931,-6.057 -12.931,-13.276c0,-7.339 5.948,-13.288 13.288,-13.288m101.87,-17.722l-53.15,0l-44.292,0l-0.104,0.006l-4.363,-0.005c-0.176,0.001 -0.354,0.008 -0.531,0.019c-16.86,0.305 -30.434,14.058 -30.434,30.991c0,8.679 3.568,16.521 9.315,22.145c-5.745,5.626 -9.315,13.463 -9.315,22.14c0,16.426 12.774,29.858 28.929,30.926c0.353,0.043 0.71,0.072 1.075,0.072l0.788,0c0.07,0 0.14,0.005 0.212,0.005l0,-0.005l4.428,0.005l44.292,0c0.612,0 1.208,-0.062 1.785,-0.18c0.774,-0.158 1.507,-0.425 2.194,-0.772c0.08,-0.04 0.164,-0.074 0.243,-0.117c0.063,-0.034 0.122,-0.076 0.184,-0.112c0.185,-0.106 0.371,-0.212 0.546,-0.332l0.08,-0.059c2.31,-1.599 3.826,-4.264 3.826,-7.285l0,-0.001l0,-35.433l35.433,0c4.892,0 8.859,-3.966 8.859,-8.858c0,-4.893 -3.967,-8.859 -8.859,-8.859l-35.433,0l0,-26.574l44.292,0c4.891,0 8.858,-3.966 8.858,-8.858c0,-4.893 -3.967,-8.859 -8.858,-8.859" style="fill:white;fill-rule:nonzero;"/>        </g>        <g transform="matrix(4.16667,0,0,4.16667,1064.81,-77.9402)">            <path d="M0,-0.001l0.961,0.001l0.039,-0.001l-1,0Z" style="fill:white;fill-rule:nonzero;"/>        </g>        <g transform="matrix(4.16667,0,0,4.16667,1493.43,-77.9427)">            <path d="M0,17.716l-44.292,0l0,-8.858l0,-0.114c-0.062,-4.84 -4.003,-8.744 -8.858,-8.744l53.15,0c4.892,0 8.859,3.966 8.859,8.858c0,4.893 -3.967,8.858 -8.859,8.858" style="fill:rgb(140,198,63);fill-rule:nonzero;"/>        </g>        <g transform="matrix(4.16667,0,0,4.16667,1456.52,106.604)">            <path d="M0,17.716l-35.433,0l0,-8.858l0,-8.858l35.433,0c4.892,0 8.858,3.965 8.858,8.858c0,4.892 -3.966,8.858 -8.858,8.858" style="fill:rgb(252,175,22);fill-rule:nonzero;"/>        </g>        <g transform="matrix(4.16667,0,0,4.16667,1235.07,106.604)">            <path d="M0,17.716l-35.11,0c4.743,-0.17 8.535,-4.068 8.535,-8.852l0,-0.003l0,-0.003c0,-4.893 -3.967,-8.858 -8.859,-8.858l35.434,0l0,17.716Z" style="fill:rgb(245,130,31);fill-rule:nonzero;"/>        </g>        <g transform="matrix(4.16667,0,0,4.16667,1087,-77.9427)">            <path d="M0,0.005l-0.201,0c0.101,-0.004 0.202,-0.005 0.304,-0.005l-0.103,0.005Z" style="fill:rgb(167,174,185);fill-rule:nonzero;"/>        </g>        <g transform="matrix(4.16667,0,0,4.16667,1235.07,-77.9427)">            <path d="M0,17.716l-35.122,0c4.748,-0.164 8.547,-4.064 8.547,-8.853c0,-4.892 -3.967,-8.858 -8.859,-8.858l-0.102,0l0.102,-0.005l44.292,0c-4.845,0 -8.78,3.888 -8.857,8.715c-0.001,0.048 -0.001,0.095 -0.001,0.143l0,8.858Z" style="fill:rgb(167,174,185);fill-rule:nonzero;"/>        </g>        <g transform="matrix(4.16667,0,0,4.16667,1087.43,328.06)">            <path d="M0,8.858l-0.02,0l0.02,0Zm48.799,-1.231c0.002,-0.001 0.004,-0.003 0.006,-0.003c-0.002,0 -0.004,0.002 -0.006,0.003m0.007,-0.004c2.445,-1.45 4.131,-4.044 4.325,-7.043c0,-0.001 0,-0.001 0.001,-0.001l0,-0.015c0.001,-0.001 0.001,-0.003 0.001,-0.005l0,-0.01c0.001,-0.002 0.001,-0.005 0.001,-0.007l0,-0.007c0.001,-0.017 0.002,-0.034 0.003,-0.051l0,-0.001c0.005,-0.102 0.009,-0.203 0.011,-0.306c-0.062,3.169 -1.789,5.931 -4.342,7.446m4.342,-7.447c0,-0.017 0.001,-0.034 0.001,-0.051c0,0.017 -0.001,0.035 -0.001,0.051m0.001,-0.054c0,-0.004 0,-0.009 0.001,-0.014c-0.001,0.005 -0.001,0.01 -0.001,0.014m0.001,-0.017l0,-0.015l0,0.015m0,-0.018l0,-0.016l0,0.016m0,-0.018l0,-0.011l0,-0.002l0,-0.002l0,0.015m0,-0.019l0,-0.005l0,-0.005l0,-0.002l0,0.012m0,-0.018l0,-0.001l0,-0.008l0,-0.002l0,0.011m0,-0.016l0,-0.001l0,-0.013l0,-0.002l0,0.016" style="fill:rgb(0,174,239);fill-rule:nonzero;"/>        </g>        <g transform="matrix(4.16667,0,0,4.16667,1271.98,291.152)">            <path d="M0,17.716l-44.292,0c4.892,0 8.859,-3.966 8.859,-8.858c0,-4.892 -3.967,-8.858 -8.859,-8.858l35.434,0l0,8.857c0,4.893 3.966,8.859 8.858,8.859m8.84,-8.278l0,-0.001l0,0.001m0,-0.016c0.001,-0.001 0.001,-0.003 0.001,-0.005c0,0.002 0,0.004 -0.001,0.005m0.002,-0.015l0,-0.007l0,0.007m0,-0.014c0.002,-0.017 0.003,-0.034 0.003,-0.051c0,0.017 -0.001,0.034 -0.003,0.051m0.003,-0.052c0.008,-0.141 0.013,-0.283 0.013,-0.425l0,0.067c0,0.017 -0.001,0.034 -0.001,0.051l0,0.001c-0.002,0.103 -0.006,0.204 -0.012,0.306m0.013,-0.427l0,-0.011l0,0.011m0,-0.016l0,-0.009l0,0.009m0,-0.017l0,-0.008l0,0.008m0,-0.021l0,-0.003l0,0.003" style="fill:rgb(0,174,239);fill-rule:nonzero;"/>        </g>        <g transform="matrix(4.16667,0,0,4.16667,1271.98,-4.12729)">            <path d="M0,26.575l-8.858,0l0,-26.575l17.716,0l0,26.575l-8.857,0" style="fill:rgb(241,90,34);fill-rule:nonzero;"/>        </g>        <g transform="matrix(4.16667,0,0,4.16667,1308.89,-41.0344)">            <path d="M0,8.858l-8.858,0c4.892,0 8.858,-3.965 8.858,-8.858l0,8.858Z" style="fill:rgb(149,84,54);fill-rule:nonzero;"/>        </g>        <g transform="matrix(4.16667,0,0,4.16667,1308.89,106.6)">            <path d="M0,8.859c0,-0.039 0,-0.077 -0.001,-0.115c-0.004,-0.367 -0.031,-0.728 -0.08,-1.083c-0.584,-4.326 -4.291,-7.661 -8.777,-7.661l8.858,0l0,8.859Z" style="fill:rgb(240,73,35);fill-rule:nonzero;"/>        </g>        <g transform="matrix(4.16667,0,0,4.16667,1308.88,-77.9444)">            <path d="M0,8.744c-0.061,-4.84 -4.004,-8.744 -8.858,-8.744l0.001,0c4.854,0 8.796,3.904 8.857,8.744" style="fill:rgb(149,84,54);fill-rule:nonzero;"/>        </g>        <g transform="matrix(0,-4.16667,-4.16667,0,1271.98,143.511)">            <path d="M-0.001,8.859l8.86,0l0,-8.859c0,4.846 -3.89,8.781 -8.717,8.858c-0.047,0.001 -0.095,0.001 -0.143,0.001" style="fill:rgb(239,58,35);fill-rule:nonzero;"/>        </g>        <g transform="matrix(4.16667,0,0,4.16667,1271.98,-77.9427)">            <path d="M0,17.716l-8.858,0l0,-8.858c0,4.893 3.966,8.858 8.859,8.858l-0.001,0m-8.857,-9.001c0.077,-4.827 4.012,-8.715 8.857,-8.715c-4.845,0 -8.78,3.888 -8.857,8.715" style="fill:rgb(164,63,24);fill-rule:nonzero;"/>        </g>        <g transform="matrix(4.16667,0,0,4.16667,1271.98,-77.9427)">            <path d="M0,17.716c-4.893,0 -8.859,-3.965 -8.859,-8.858c0,-0.048 0.001,-0.095 0.001,-0.143c0.077,-4.827 4.013,-8.715 8.858,-8.715c4.853,0 8.796,3.904 8.857,8.744c0,0.038 0.001,0.076 0.001,0.114c0,4.893 -3.967,8.858 -8.859,8.858" style="fill:rgb(104,59,35);fill-rule:nonzero;"/>        </g>        <g transform="matrix(4.16667,0,0,4.16667,1273.09,359.823)">            <path d="M0,1.231l0.004,0l-0.004,0m0.006,0c0.022,-0.001 0.044,-0.002 0.066,-0.003l0.018,0c1.509,-0.06 2.92,-0.497 4.143,-1.22c-1.245,0.736 -2.687,1.176 -4.227,1.223m4.227,-1.223c0.003,-0.002 0.004,-0.003 0.007,-0.004c-0.002,0.001 -0.004,0.003 -0.007,0.004m0.013,-0.007l0,-0.001l0,0.001" style="fill:rgb(237,28,36);fill-rule:nonzero;"/>        </g>        <g transform="matrix(4.16667,0,0,4.16667,1271.98,180.419)">            <path d="M0,44.292c0.113,0 0.228,-0.003 0.34,-0.007c-0.022,0.001 -0.044,0.002 -0.066,0.002l-0.002,0c-0.002,0 -0.003,0.001 -0.004,0.001c-0.089,0.002 -0.178,0.004 -0.268,0.004m0.342,-0.007l0.011,0l-0.011,0m0.015,-0.001l0.001,0l-0.001,0m8.501,-8.85c0,-4.892 -3.966,-8.858 -8.858,-8.858l-8.858,0l0,-26.576l8.77,0c0.029,0 0.058,0.001 0.088,0.001c0.03,0 0.059,-0.001 0.088,-0.001l8.77,0l0,35.433" style="fill:rgb(237,28,36);fill-rule:nonzero;"/>        </g>        <g transform="matrix(-4.16667,0,0,4.16667,1272.34,143.512)">            <path d="M-8.771,8.858l8.771,0c-4.815,-0.047 -8.71,-3.933 -8.77,-8.743c-0.001,-0.038 -0.001,-0.077 -0.001,-0.115l0,8.858Z" style="fill:rgb(237,28,36);fill-rule:nonzero;"/>        </g>        <g transform="matrix(-4.16667,0,0,4.16667,1235.07,143.512)">            <path d="M-8.77,8.858l8.77,0l0,-8.858c0,0.038 0,0.077 -0.001,0.115c-0.061,4.81 -3.955,8.696 -8.769,8.743" style="fill:rgb(237,28,36);fill-rule:nonzero;"/>        </g>        <g transform="matrix(4.16667,0,0,4.16667,1273.39,328.071)">            <path d="M0,8.849l0.003,0l-0.003,0m0.013,0c0.001,0 0.002,0 0.004,-0.001c-0.002,0.001 -0.003,0.001 -0.004,0.001m0.005,-0.001c0.487,-0.019 0.964,-0.078 1.427,-0.173c0.774,-0.158 1.508,-0.425 2.194,-0.772c0.08,-0.04 0.164,-0.074 0.244,-0.117c0.062,-0.034 0.121,-0.075 0.183,-0.112c0.186,-0.106 0.371,-0.212 0.546,-0.331l0.081,-0.06c2.161,-1.495 3.627,-3.924 3.807,-6.705c-0.195,2.999 -1.881,5.592 -4.326,7.043c-0.002,0.001 -0.005,0.002 -0.006,0.004c-0.003,0.001 -0.004,0.002 -0.007,0.003c-1.222,0.723 -2.634,1.16 -4.143,1.22m8.482,-8.271l0,-0.015l0,0.015m0.001,-0.021c0,-0.003 0.001,-0.006 0.001,-0.009c0,0.003 -0.001,0.006 -0.001,0.009m0.001,-0.016c0,-0.003 0.001,-0.005 0.001,-0.007c0,0.002 -0.001,0.004 -0.001,0.007m0.003,-0.058l0,-0.001l0,0.001Zm0.013,-0.427l0,-0.001l0,0.001m0,-0.012l0,-0.005l0,0.005m0,-0.014l0,-0.008l0,0.008m0,-0.016l0,-0.013l0,0.013" style="fill:rgb(54,54,57);fill-rule:nonzero;"/>        </g>        <g transform="matrix(4.16667,0,0,4.16667,1271.98,291.152)">            <path d="M0,17.716c-4.892,0 -8.858,-3.966 -8.858,-8.859l0,-8.857l8.858,0c4.892,0 8.858,3.966 8.858,8.858l0,0.058c0,0.142 -0.005,0.284 -0.013,0.425l0,0.001c0,0.017 -0.001,0.034 -0.003,0.051l0,0.014c0,0.004 -0.001,0.007 -0.001,0.01c0,0.002 0,0.004 -0.001,0.005l0,0.016c-0.18,2.781 -1.646,5.21 -3.807,6.705l-0.081,0.06c-0.175,0.12 -0.36,0.225 -0.546,0.331c-0.062,0.037 -0.121,0.078 -0.183,0.112c-0.08,0.044 -0.164,0.078 -0.244,0.117c-0.686,0.347 -1.42,0.614 -2.194,0.773c-0.463,0.094 -0.94,0.154 -1.427,0.172l-0.001,0c-0.002,0.001 -0.003,0.001 -0.004,0.001l-0.011,0l-0.002,0c-0.112,0.004 -0.227,0.007 -0.34,0.007" style="fill:rgb(54,54,57);fill-rule:nonzero;"/>        </g>        <g transform="matrix(4.16667,0,0,4.16667,1272.34,143.991)">            <path d="M0,8.743l-0.087,0c4.854,0 8.795,-3.904 8.857,-8.743c-0.061,4.81 -3.956,8.696 -8.77,8.743" style="fill:rgb(237,28,36);fill-rule:nonzero;"/>        </g>        <g transform="matrix(4.16667,0,0,4.16667,1271.98,106.604)">            <path d="M0,17.716l-0.088,0c-4.814,-0.047 -8.708,-3.933 -8.769,-8.743c0.061,4.839 4.003,8.743 8.858,8.743l-0.001,0m-8.857,-9.001c0.077,-4.827 4.012,-8.715 8.857,-8.715c-4.845,0 -8.78,3.888 -8.857,8.715" style="fill:rgb(237,28,36);fill-rule:nonzero;"/>        </g>        <g transform="matrix(4.16667,0,0,4.16667,1067.56,106.586)">            <path d="M0,-0.001l0.301,0.001l-0.297,-0.001l-0.004,0Z" style="fill:rgb(140,198,63);fill-rule:nonzero;"/>        </g>        <g transform="matrix(4.16667,0,0,4.16667,1068.81,106.58)">            <path d="M0,0.001l-0.301,0l0.004,0l-0.098,0c-0.006,-0.001 -0.013,-0.001 -0.018,-0.001l0.452,0l-0.039,0.001Z" style="fill:rgb(140,198,63);fill-rule:nonzero;"/>        </g>        <g transform="matrix(4.16667,0,0,4.16667,939.792,143.527)">            <path d="M0,22.143l0,-0.026l0,0.026m0,-0.032l0,-0.019l0,0.019m17.716,-0.01l0,-0.002l0,0.002m-17.716,-0.016l0,-0.018l0,0.018m17.717,-0.004l0,-0.003l0,0.003m0,-0.013l0,-0.011l0,0.011m-17.717,-0.006l0,-0.021l0,0.021m17.717,-0.01l0,-0.017l0,0.017m-17.717,-0.014l0,-0.022l0,0.022m17.717,-0.012l0,-0.012l0,0.012m-17.717,-0.015l0,-0.019l0,0.019m17.717,-0.005l0,-0.014l0,0.014m-17.717,-0.019l0,-0.021l0,0.021m17.717,-0.002c0,-0.004 0,-0.009 0.001,-0.014c-0.001,0.005 -0.001,0.009 -0.001,0.014m0.001,-0.021l0,-0.014l0,0.014m-17.718,-0.001l0,-0.023l0,0.023m17.718,-0.019c0,-0.005 0.001,-0.011 0.001,-0.016c0,0.005 -0.001,0.01 -0.001,0.016m-17.718,-0.006l0,-0.024l0,0.024m17.719,-0.016l0,-0.016l0,0.016m-17.719,-0.008c0.001,-0.009 0.001,-0.016 0.001,-0.025c0,0.008 0,0.017 -0.001,0.025m17.719,-0.012l0,-0.017l0,0.017m-17.718,-0.014c0.068,-8.575 3.619,-16.318 9.307,-21.888c0.002,0.001 0.004,0.003 0.006,0.005c-5.688,5.57 -9.244,13.308 -9.313,21.883m17.718,-0.011l0,-0.013l0,0.013m0,-0.022c0.001,-0.004 0.001,-0.008 0.001,-0.012c0,0.004 0,0.008 -0.001,0.012m0.001,-0.021l0,-0.013l0,0.013m0,-0.023c0.001,-0.004 0.001,-0.007 0.001,-0.011c0,0.004 0,0.007 -0.001,0.011m0.001,-0.021l0,-0.011l0,0.011m0.001,-0.022l0,-0.01l0,0.01m0.001,-0.021l0,-0.01l0,0.01m0,-0.022l0,-0.01l0,0.01m0,-0.021c0.001,-0.003 0.001,-0.006 0.001,-0.01c0,0.004 0,0.007 -0.001,0.01m0.001,-0.022c0,-0.003 0,-0.006 0.001,-0.009c-0.001,0.003 -0.001,0.006 -0.001,0.009m0.001,-0.023l0,-0.007l0,0.007m0.001,-0.022c0,-0.002 0.001,-0.004 0.001,-0.007c0,0.003 -0.001,0.005 -0.001,0.007m0.001,-0.02l0,-0.008l0,0.008m0,-0.021c0.001,-0.002 0.001,-0.005 0.001,-0.008c0,0.003 0,0.005 -0.001,0.008m0.001,-0.021c0,-0.003 0.001,-0.005 0.001,-0.008c0,0.002 -0.001,0.006 -0.001,0.008m0.001,-0.023c0,-0.002 0,-0.004 0.001,-0.006c-0.001,0.001 -0.001,0.004 -0.001,0.006m0.001,-0.021c0,-0.002 0,-0.005 0.001,-0.007c-0.001,0.002 -0.001,0.005 -0.001,0.007m0.002,-0.021l0,-0.007l0,0.007m0,-0.022c0,-0.001 0,-0.004 0.001,-0.006c-0.001,0.002 -0.001,0.005 -0.001,0.006m0.001,-0.022c0,-0.001 0,-0.003 0.001,-0.005c-0.001,0.002 -0.001,0.004 -0.001,0.005m0.001,-0.021c0,-0.002 0.001,-0.003 0.001,-0.005c0,0.002 -0.001,0.003 -0.001,0.005m0.002,-0.021l0,-0.005l0,0.005m0.001,-0.021l0,-0.005l0,0.005m0.001,-0.021l0,-0.005l0,0.005m0.002,-0.022l0,-0.004l0,0.004m0,-0.022c0,-0.001 0,-0.002 0.001,-0.003c0,0.001 -0.001,0.002 -0.001,0.003m0.002,-0.02l0,-0.005l0,0.005m0.001,-0.021l0,-0.005l0,0.005m0.001,-0.021c0,-0.002 0,-0.003 0.001,-0.005c-0.001,0.002 -0.001,0.003 -0.001,0.005m0.002,-0.021l0,-0.005l0,0.005m0.001,-0.023l0,-0.002l0,0.002m0.002,-0.021l0,-0.002l0,0.002m0.001,-0.021l0,-0.003l0,0.003m0.002,-0.021l0,-0.002l0,0.002m0.001,-0.022l0,-0.001l0,0.001m0.004,-0.043l0.001,0l0,-0.001l-0.001,0l0,0.001Z" style="fill:rgb(140,198,63);fill-rule:nonzero;"/>        </g>        <g transform="matrix(4.16667,0,0,4.16667,1068.98,143.548)">            <path d="M0,53.141c-0.072,0 -0.142,-0.005 -0.212,-0.005l-0.788,0c-0.365,0 -0.721,-0.029 -1.074,-0.072c-16.155,-1.068 -28.93,-14.501 -28.93,-30.926l0,-0.026l0,-0.006l0,-0.019l0,-0.007l0,-0.018l0,-0.004l0,-0.021l0,-0.004l0,-0.022l0,-0.005l0,-0.019l0,-0.005l0,-0.021l0,-0.003l0,-0.023l0,-0.002l0,-0.024c0.001,-0.008 0.001,-0.017 0.001,-0.025l0,-0.001c0.069,-8.575 3.625,-16.312 9.313,-21.883c5.129,5.021 11.996,8.274 19.616,8.779c0.353,0.042 0.709,0.071 1.074,0.071l0.827,0c-6.91,0.088 -12.549,5.452 -13.074,12.249c-0.001,0.008 -0.002,0.014 -0.002,0.021c-0.001,0.008 -0.001,0.014 -0.002,0.021l0,0.001c0,0.007 0,0.013 -0.001,0.02l0,0.002c-0.001,0.006 -0.001,0.013 -0.002,0.019l0,0.002c0,0.006 -0.001,0.013 -0.001,0.019l0,0.002c0,0.005 -0.001,0.013 -0.002,0.019l0,0.002c0,0.006 -0.001,0.013 -0.001,0.018l0,0.005c-0.001,0.005 -0.001,0.011 -0.001,0.016c-0.001,0.002 -0.001,0.003 -0.001,0.005l0,0.016c0,0.002 -0.001,0.003 -0.001,0.005c0,0.005 -0.001,0.011 -0.001,0.016l0,0.005c-0.001,0.006 -0.001,0.011 -0.001,0.017c-0.001,0.001 -0.001,0.002 -0.001,0.004l0,0.021c-0.001,0.005 -0.002,0.012 -0.002,0.017l0,0.005c0,0.005 -0.001,0.011 -0.001,0.016l0,0.006c-0.001,0.005 -0.001,0.01 -0.001,0.015l0,0.005c0,0.005 -0.001,0.011 -0.001,0.016c0,0.002 -0.001,0.003 -0.001,0.005l0,0.016c-0.001,0.002 -0.001,0.004 -0.001,0.005l0,0.016c-0.001,0.003 -0.001,0.005 -0.001,0.006l0,0.022c-0.001,0.004 -0.001,0.009 -0.001,0.014l0,0.007c0,0.005 -0.001,0.01 -0.001,0.015c-0.001,0.002 -0.001,0.004 -0.001,0.006l0,0.015c0,0.003 -0.001,0.005 -0.001,0.008l0,0.013c0,0.003 0,0.006 -0.001,0.008l0,0.034c0,0.003 -0.001,0.005 -0.001,0.007c0,0.005 -0.001,0.01 -0.001,0.015l0,0.021c-0.001,0.003 -0.001,0.006 -0.001,0.009l0,0.012c0,0.004 0,0.007 -0.001,0.01l0,0.043c0,0.003 -0.001,0.007 -0.001,0.011l0,0.01c-0.001,0.004 -0.001,0.007 -0.001,0.011l0,0.021c0,0.004 0,0.007 -0.001,0.011l0,0.032c0,0.004 0,0.008 -0.001,0.012l0,0.073c0,0.005 -0.001,0.011 -0.001,0.016l0,0.07c-0.001,0.004 -0.001,0.008 -0.001,0.012l0,0.055c0,0.006 0,0.013 -0.001,0.018l0,0.044c0,7.267 5.835,13.167 13.075,13.281l0.213,0l-0.039,0.001l4.467,0.005c-4.892,0 -8.858,3.966 -8.858,8.858c0,4.886 3.956,8.848 8.839,8.858l-4.409,-0.005l0,0.005Zm-0.181,-17.721l0.074,0.002l0.068,-0.002l-0.142,0Z" style="fill:rgb(140,198,63);fill-rule:nonzero;"/>        </g>        <g transform="matrix(4.16667,0,0,4.16667,1087.43,291.152)">            <path d="M0,17.716l-0.02,0c-4.882,-0.01 -8.838,-3.972 -8.838,-8.858c0,-4.892 3.966,-8.858 8.858,-8.858c4.892,0 8.858,3.966 8.858,8.858c0,4.892 -3.966,8.858 -8.858,8.858" style="fill:rgb(0,166,80);fill-rule:nonzero;"/>        </g>        <g transform="matrix(-4.16667,0,0,4.16667,1068.51,106.583)">            <path d="M0.066,0.005l0.035,0l0.033,-0.001c-0.068,-0.002 -0.134,-0.004 -0.202,-0.004c0.045,0 0.09,0.004 0.134,0.005" style="fill:rgb(140,198,63);fill-rule:nonzero;"/>        </g>        <g transform="matrix(4.16667,0,0,4.16667,1086.11,106.584)">            <path d="M0,0.01l-4.15,-0.004l0.039,-0.001l-0.213,0c-0.017,0 -0.033,-0.001 -0.049,-0.001l0.016,0l0.033,0.001l0.035,0c0.044,-0.001 0.088,-0.005 0.133,-0.005l0.006,0l4.467,0.004c-0.106,0 -0.212,0.002 -0.317,0.006" style="fill:rgb(140,198,63);fill-rule:nonzero;"/>        </g>        <g transform="matrix(4.16667,0,0,4.16667,1124.34,106.6)">            <path d="M0,8.862c-0.001,-4.892 -3.967,-8.856 -8.858,-8.856l-0.318,0c0.106,-0.004 0.211,-0.006 0.318,-0.006c4.892,0 8.858,3.966 8.858,8.859l0,0.003" style="fill:rgb(148,113,57);fill-rule:nonzero;"/>        </g>        <g transform="matrix(4.16667,0,0,4.16667,1068.22,106.616)">            <path d="M0,-0.002l0.075,0.002l0.067,-0.002l-0.142,0Z" style="fill:rgb(140,198,63);fill-rule:nonzero;"/>        </g>        <g transform="matrix(4.16667,0,0,4.16667,1064.81,-77.9402)">            <path d="M0,-0.001l0.961,0.001l0.039,-0.001l-1,0Z" style="fill:rgb(0,174,239);fill-rule:nonzero;"/>        </g>        <g transform="matrix(4.16667,0,0,4.16667,1087.43,180.423)">            <path d="M0,0.005l-4.428,-0.005l0,0.005c-0.039,0 -0.079,-0.001 -0.117,-0.003l0.001,0l0.116,0.003l0,-0.005l4.428,0.005l0.116,-0.005l0.207,0c-0.107,0.003 -0.215,0.005 -0.323,0.005" style="fill:rgb(0,174,239);fill-rule:nonzero;"/>        </g>        <g transform="matrix(4.16667,0,0,4.16667,1087.43,180.398)">            <path d="M0,0.011l-4.428,-0.005l0,0.005l-0.116,-0.003c-0.02,0 -0.038,-0.001 -0.058,-0.002l0.174,0l0,-0.006l4.408,0.006l0.136,0l-0.116,0.005Z" style="fill:rgb(0,174,239);fill-rule:nonzero;"/>        </g>        <g transform="matrix(4.16667,0,0,4.16667,1088.78,143.525)">            <path d="M0,8.855l-0.207,0l-0.116,0c4.891,0 8.857,-3.964 8.858,-8.855l0,0.003c0,4.784 -3.792,8.682 -8.535,8.852m-0.323,0l-0.02,0l0.02,0Z" style="fill:rgb(4,101,67);fill-rule:nonzero;"/>        </g>        <g transform="matrix(4.16667,0,0,4.16667,978.575,-77.9415)">            <path d="M0,53.152c-5.659,-5.542 -9.203,-13.237 -9.306,-21.761c0.103,8.524 3.648,16.217 9.308,21.759c-0.001,0 -0.001,0.001 -0.002,0.002m8.423,-21.532l0,-0.003l0,0.003m-0.001,-0.021l0,-0.003l0,0.003m-0.001,-0.021l0,-0.003l0,0.003m-0.001,-0.021c-0.001,-0.001 -0.001,-0.003 -0.001,-0.004c0,0.002 0,0.003 0.001,0.004m-0.001,-0.021l0,-0.004l0,0.004m-0.001,-0.021l0,-0.003l0,0.003m0,-0.021c0,-0.002 0,-0.003 -0.001,-0.004c0.001,0.001 0.001,0.003 0.001,0.004m-0.001,-0.021l0,-0.004l0,0.004m-0.001,-0.021c0,-0.002 0,-0.003 -0.001,-0.005c0.001,0.002 0.001,0.004 0.001,0.005m-0.001,-0.021l0,-0.005l0,0.005m0,-0.021l0,-0.006l0,0.006m-17.721,-0.019l0,-0.025l0,0.025m17.72,-0.002l0,-0.005l0,0.005m0,-0.021l0,-0.006l0,0.006m-17.72,-0.004l0,-0.022l0,0.022m17.719,-0.017l0,-0.006l0,0.006m-17.719,-0.011l0,-0.02l0,0.02m17.719,-0.01c0,-0.002 0,-0.004 -0.001,-0.006c0.001,0.002 0.001,0.004 0.001,0.006m-17.719,-0.016c0,-0.006 -0.001,-0.012 -0.001,-0.018c0,0.006 0.001,0.012 0.001,0.018m17.718,-0.005l0,-0.006l0,0.006m-17.719,-0.021l0,-0.017l0,0.017m17.718,0l0,-0.008l0,0.008m0,-0.021l0,-0.006l0,0.006m-17.718,-0.004l0,-0.017l0,0.017m17.718,-0.017l0,-0.006l0,0.006m-17.718,-0.008l0,-0.017l0,0.017m17.718,-0.013c0,-0.003 -0.001,-0.006 -0.001,-0.009c0,0.003 0.001,0.006 0.001,0.009m-17.718,-0.012l0,-0.015l0,0.015m17.717,-0.009l0,-0.008l0,0.008m-17.717,-0.016l0,-0.015l0,0.015m17.717,-0.006l0,-0.005l0,0.005m-17.718,-0.02l0,-0.014l0,0.014m17.718,-0.001l0,-0.006l0,0.006m0,-0.021c-0.001,-0.002 -0.001,-0.006 -0.001,-0.008c0,0.003 0,0.005 0.001,0.008m-17.718,-0.002l0,-0.015l0,0.015m17.717,-0.019l0,-0.011l0,0.011m-17.717,-0.006l0,-0.015l0,0.015m17.717,-0.015l0,-0.012l0,0.012m-17.717,-0.01l0,-0.015l0,0.015m17.717,-0.011l0,-0.012l0,0.012m-17.717,-0.014l0,-0.02l0,0.02m17.717,-0.007l0,-0.008l0,0.008m-17.717,-0.017l0,-0.025l0,0.025m17.717,-0.026c0,-7.339 5.948,-13.288 13.287,-13.288l0,-0.005l4.429,0.005l0.106,-0.005l0.205,0c-0.103,0.003 -0.207,0.005 -0.311,0.005l-4.429,-0.005l0,0.005c-7.339,0 -13.287,5.949 -13.287,13.288m17.41,-31.004l-4.161,-0.005l4.164,0.005l-0.003,0" style="fill:rgb(0,174,239);fill-rule:nonzero;"/>        </g>        <g transform="matrix(4.16667,0,0,4.16667,978.583,-77.9419)">            <path d="M0,53.15c-5.66,-5.542 -9.205,-13.235 -9.308,-21.759l0,-0.025l0,-0.002c0,-0.007 -0.001,-0.015 -0.001,-0.022l0,-0.006l0,-0.019l0,-0.007l0,-0.018l0,-0.008l0,-0.017l0,-0.008c0,-0.005 0,-0.011 -0.001,-0.017l0,-0.008l0,-0.017l0,-0.008l0,-0.015l0,-0.01l0,-0.015l0,-0.011l0,-0.013l0,-0.011l0,-0.015l0,-0.01l0,-0.015l0,-0.01l0,-0.015l0,-0.01l0,-0.02l0,-0.004l0,-0.025c0,-16.933 13.574,-30.686 30.434,-30.991c0.177,-0.011 0.355,-0.018 0.531,-0.019l4.162,0.005c-4.751,0.16 -8.553,4.062 -8.553,8.853c0,4.892 3.966,8.858 8.858,8.858l0.107,0l-0.107,0.005l-4.428,-0.005l0,0.005c-7.339,0 -13.288,5.949 -13.288,13.288l0,0.043c0.001,0.003 0.001,0.006 0.001,0.009l0,0.067c0,0.002 0,0.006 0.001,0.008l0,0.076c0,0.003 0.001,0.006 0.001,0.009l0,0.063c0,0.005 0,0.01 0.001,0.015l0,0.042c0.001,0.002 0.001,0.004 0.001,0.006l0,0.021c0,0.005 0,0.011 0.001,0.016l0,0.005c0,0.005 0.001,0.011 0.001,0.015l0,0.043c0.001,0.002 0.001,0.003 0.001,0.005l0,0.021c0.001,0.006 0.001,0.011 0.001,0.017l0,0.004c0,0.006 0.001,0.012 0.001,0.018l0,0.003c0.001,0.006 0.001,0.012 0.001,0.017l0,0.021c0,0.001 0,0.003 0.001,0.004l0,0.021c0.001,0.006 0.001,0.012 0.001,0.018l0,0.003c0.001,0.006 0.001,0.012 0.002,0.018l0,0.003c0,0.007 0,0.013 0.001,0.02c0.322,6.896 5.9,12.414 12.82,12.645l-0.548,0l0.566,0.001c0.058,0.002 0.114,0.003 0.172,0.004c-0.103,0.003 -0.205,0.008 -0.308,0.015c-8.22,0.148 -15.659,3.493 -21.124,8.845" style="fill:rgb(0,174,239);fill-rule:nonzero;"/>        </g>        <g transform="matrix(4.16667,0,0,4.16667,1088.72,-77.9219)">            <path d="M0,17.711l-0.205,0l-0.106,0c-4.892,0 -8.858,-3.965 -8.858,-8.858c0,-4.79 3.801,-8.692 8.552,-8.853l0.306,0c4.892,0 8.858,3.966 8.858,8.858c0,4.789 -3.799,8.689 -8.547,8.853" style="fill:rgb(0,126,177);fill-rule:nonzero;"/>        </g>        <g transform="matrix(4.16667,0,0,4.16667,1067.17,106.578)">            <path d="M0,0.001l-0.566,-0.001l0.548,0c0.005,0.001 0.012,0.001 0.018,0.001" style="fill:rgb(0,166,80);fill-rule:nonzero;"/>        </g>        <g transform="matrix(3.72678,-1.86339,-1.86339,-3.72678,978.607,143.543)">            <path d="M-0.002,0c-0.001,0.002 -0.002,0.005 -0.003,0.007c0.001,0 0.002,0.001 0.003,0.001c0,-0.003 0.001,-0.004 0.003,-0.008c-0.002,0 -0.003,0 -0.003,0" style="fill:rgb(0,166,80);fill-rule:nonzero;"/>        </g>        <g transform="matrix(4.16667,0,0,4.16667,1068.25,106.6)">            <path d="M0,17.718l-0.039,0l-0.788,0c-0.364,0 -0.721,-0.029 -1.074,-0.072c-7.62,-0.504 -14.487,-3.757 -19.616,-8.778c0,-0.001 0.001,-0.002 0.002,-0.002c-0.003,-0.002 -0.004,-0.004 -0.006,-0.006c5.465,-5.352 12.904,-8.697 21.125,-8.845c0.102,-0.007 0.205,-0.012 0.307,-0.015c0.016,0 0.033,0.001 0.049,0.001l0.213,0l-0.039,0.001l4.15,0.004c-4.745,0.167 -8.541,4.066 -8.541,8.853c0,4.886 3.956,8.848 8.839,8.858l-4.409,-0.005l0,0.005c-0.058,0 -0.116,0 -0.173,0.001m-0.008,-17.716l0.074,0.001l0.068,-0.001l-0.142,0Z" style="fill:rgb(0,166,80);fill-rule:nonzero;"/>        </g>        <g transform="matrix(4.16667,0,0,4.16667,1087.43,106.625)">            <path d="M0,17.711l-0.02,0c-4.882,-0.01 -8.838,-3.972 -8.838,-8.858c0,-4.787 3.796,-8.686 8.541,-8.853l0.317,0c4.891,0 8.857,3.964 8.858,8.856c-0.001,4.891 -3.967,8.855 -8.858,8.855" style="fill:rgb(4,101,67);fill-rule:nonzero;"/>        </g>        <g transform="matrix(4.16667,0,0,4.16667,1308.55,106.602)">            <path d="M0,7.661c-0.584,-4.326 -4.292,-7.661 -8.778,-7.661l0.001,0c4.485,0 8.193,3.335 8.777,7.661" style="fill:rgb(163,50,24);fill-rule:nonzero;"/>        </g>        <g transform="matrix(4.16667,0,0,4.16667,1271.98,106.604)">            <path d="M0,17.716c4.891,0 8.858,-3.966 8.858,-8.858c0,0.038 -0.001,0.077 -0.001,0.115c-0.061,4.839 -4.003,8.743 -8.857,8.743m8.857,-8.972c-0.061,-4.84 -4.004,-8.744 -8.858,-8.744l0.001,0c4.486,0 8.193,3.334 8.777,7.661c0.049,0.354 0.075,0.716 0.08,1.083" style="fill:rgb(162,19,23);fill-rule:nonzero;"/>        </g>        <g transform="matrix(4.16667,0,0,4.16667,1271.98,106.604)">            <path d="M0,17.716c-4.893,0 -8.859,-3.966 -8.859,-8.858c0,-4.893 3.966,-8.858 8.859,-8.858c4.853,0 8.796,3.904 8.857,8.744c0,0.037 0.001,0.076 0.001,0.114c0,4.892 -3.967,8.858 -8.859,8.858" style="fill:rgb(162,19,23);fill-rule:nonzero;"/>        </g>    </g></svg>