<?xml version="1.0" encoding="UTF-8" standalone="no"?><!DOCTYPE svg PUBLIC "-//W3C//DTD SVG 1.1//EN" "http://www.w3.org/Graphics/SVG/1.1/DTD/svg11.dtd"><svg width="100%" height="100%" viewBox="0 0 512 512" version="1.1" xmlns="http://www.w3.org/2000/svg" xmlns:xlink="http://www.w3.org/1999/xlink" xml:space="preserve"  style="fill-rule:evenodd;clip-rule:evenodd;stroke-linejoin:round;stroke-miterlimit:2;"><title>SoMo</title><desc>Welcome to the social way to borrow and lend secured! SoMo offers peer-to-peer bridging loans secured over UK property.   All our loans are underwritten and fully redeemed by the team.</desc>    <g id="SoMo" transform="matrix(15.4987,0,0,15.4987,93.3341,32.4243)">        <path id="path11" d="M10.489,30.878c-9.023,-0.003 -16.447,-7.429 -16.447,-16.453c0,-9.025 7.428,-16.453 16.453,-16.453c9.026,0 16.453,7.428 16.453,16.453c0,6.597 -3.967,12.583 -10.043,15.153c-2.029,0.861 -4.211,1.303 -6.416,1.3Zm0,-30.969c-3.842,-0.004 -7.531,1.523 -10.246,4.242c-2.724,2.714 -4.257,6.405 -4.257,10.25c-0,3.845 1.533,7.536 4.257,10.25c2.715,2.718 6.404,4.248 10.246,4.248c3.843,-0 7.531,-1.53 10.247,-4.248c2.724,-2.714 4.257,-6.405 4.257,-10.25c-0,-3.845 -1.533,-7.536 -4.257,-10.25c-2.715,-2.719 -6.405,-4.246 -10.247,-4.242Z" style="fill:rgb(3,15,45);fill-rule:nonzero;"/>        <path id="path21" d="M14.83,9.281c-1.35,-0.082 -2.664,0.469 -3.551,1.489c-0.633,0.759 -1.121,1.629 -1.44,2.565c-0.023,0.044 -0.023,0.096 0,0.14c0.442,0.482 0.924,0.926 1.44,1.328c0.013,0.01 0.03,0.016 0.047,0.016c0.032,-0 0.061,-0.021 0.072,-0.051l-0,-0.07c0.797,-2.481 1.698,-3.453 3.201,-3.453c0.023,-0 0.047,-0.001 0.07,-0.001c1.723,0 3.144,1.41 3.159,3.133l0,0.125c-0.069,1.656 -1.426,2.991 -3.082,3.034c-0.702,0.017 -1.389,-0.202 -1.95,-0.622c-0.024,-0.02 -0.054,-0.031 -0.085,-0.031c-0.056,-0 -0.106,0.035 -0.125,0.087c-0.235,0.508 -0.511,0.997 -0.825,1.46c-0.038,0.064 -0.02,0.148 0.042,0.189c0.824,0.564 1.798,0.871 2.796,0.881c0.023,0 0.047,0 0.07,0c2.794,0 5.1,-2.281 5.13,-5.075c0.009,-2.759 -2.211,-5.057 -4.969,-5.144l-0,0Z" style="fill:url(#_Linear1);fill-rule:nonzero;"/>        <path id="path23" d="M9.93,14.377c0,-0 -0.266,-0.28 -0.266,-0.28c-0.014,-0.021 -0.037,-0.033 -0.062,-0.033c-0.025,0 -0.049,0.012 -0.063,0.033c-0.797,2.488 -1.699,3.46 -3.201,3.46c-0.007,-0 -0.014,-0 -0.021,-0c-1.737,-0 -3.167,-1.43 -3.167,-3.166c0,-0.005 0,-0.01 0,-0.014c-0.003,-0.04 -0.003,-0.08 0,-0.119c0.063,-1.684 1.465,-3.035 3.15,-3.035c0.679,-0 1.339,0.218 1.883,0.623c0.023,0.018 0.051,0.027 0.08,0.027c0.053,-0 0.102,-0.033 0.122,-0.083c0.235,-0.508 0.511,-0.997 0.825,-1.46c0.015,-0.022 0.023,-0.048 0.023,-0.075c0,-0.047 -0.025,-0.09 -0.065,-0.114c-0.824,-0.564 -1.797,-0.871 -2.796,-0.881c-0.009,0 -0.018,0 -0.027,0c-2.81,0 -5.123,2.307 -5.131,5.117c-0.009,2.751 2.193,5.046 4.942,5.151c1.351,0.082 2.666,-0.471 3.55,-1.496c0.612,-0.741 1.086,-1.586 1.398,-2.495c0.019,-0.059 -0,-0.123 -0.049,-0.161c-0.395,-0.309 -0.771,-0.643 -1.125,-0.999Z" style="fill:rgb(3,15,45);fill-rule:nonzero;"/>    </g>    <defs>        <linearGradient id="_Linear1" x1="0" y1="0" x2="1" y2="0" gradientUnits="userSpaceOnUse" gradientTransform="matrix(9.93888,0,0,9.93888,9.83223,14.3975)"><stop offset="0" style="stop-color:rgb(230,179,73);stop-opacity:1"/><stop offset="1" style="stop-color:rgb(172,112,0);stop-opacity:1"/></linearGradient>    </defs></svg>