<?xml version="1.0" encoding="UTF-8" standalone="no"?><!DOCTYPE svg PUBLIC "-//W3C//DTD SVG 1.1//EN" "http://www.w3.org/Graphics/SVG/1.1/DTD/svg11.dtd"><svg width="100%" height="100%" viewBox="0 0 512 512" version="1.1" xmlns="http://www.w3.org/2000/svg" xmlns:xlink="http://www.w3.org/1999/xlink" xml:space="preserve" style="fill-rule:evenodd;clip-rule:evenodd;stroke-linejoin:round;stroke-miterlimit:2;"><title>Crowdinvest.de</title><desc></desc>    <g transform="matrix(5.20408,0,0,5.20408,1,21.5561)">        <path d="M95.9,29.4l-45.6,-20.5c-0.9,-0.4 -1.9,-0.4 -2.8,0l-45.5,20.5c-1.2,0.6 -2,1.8 -2,3.1l0,25.1c0,1.3 0.8,2.6 2,3.1l45.6,20.5c0.4,0.2 0.9,0.3 1.4,0.3c0.5,0 1,-0.1 1.4,-0.3l45.6,-20.5c1.2,-0.6 2,-1.8 2,-3.1l0,-25.1c-0.1,-1.3 -0.8,-2.5 -2.1,-3.1Zm-61.9,15.7l14.9,-6.7l14.9,6.7l-14.8,6.7l-15,-6.7Zm35.5,0l21.6,-9.7l0,19.4l-21.6,-9.7Zm19.5,-11.3l-22.3,10l-16.6,-7.5l0,-20.1l38.9,17.6Zm-82.2,1.6l21.6,9.7l-21.6,9.7l0,-19.4Zm2.2,-1.6l38.9,-17.5l0,20.1l-16.6,7.5l-22.3,-10.1Zm41.1,20l16.6,-7.5l22.3,10l-38.9,17.5l0,-20Zm-41.1,2.6l22.3,-10l16.6,7.5l0,20.1l-38.9,-17.6Z" style="fill:rgb(1,68,95);fill-rule:nonzero;"/>    </g></svg>