<?xml version="1.0" encoding="UTF-8" standalone="no"?><!DOCTYPE svg PUBLIC "-//W3C//DTD SVG 1.1//EN" "http://www.w3.org/Graphics/SVG/1.1/DTD/svg11.dtd"><svg width="100%" height="100%" viewBox="0 0 512 512" version="1.1" xmlns="http://www.w3.org/2000/svg" xmlns:xlink="http://www.w3.org/1999/xlink" xml:space="preserve" style="fill-rule:evenodd;clip-rule:evenodd;stroke-linejoin:round;stroke-miterlimit:2;"><title>Pozyczka Plus</title><desc></desc>    <g transform="matrix(3.5865,0,0,3.5865,-895.086,-6.173)">        <path d="M272.2,60.7l0,39.7l6.6,0l0,-16.6l0.1,0c1.7,2.7 5,4.2 8.8,4.2c8,0 13,-6.4 13,-14.1c0,-7.8 -5.3,-13.9 -12.8,-13.9c-4.9,0 -7.8,2.4 -9.1,4.4l-0.2,0l0,-3.7l-6.4,0Zm14.1,4.9c5.1,0 7.6,4.3 7.6,8.5c0,4.2 -2.5,8.6 -7.6,8.6c-4.9,0 -7.8,-4.3 -7.8,-8.5c0,-4.3 3,-8.6 7.8,-8.6Z" style="fill:rgb(255,137,0);fill-rule:nonzero;"/>        <rect x="307" y="45.8" width="6.6" height="41.6" style="fill:rgb(255,137,0);"/>        <path d="M345.7,87.3l0,-26.4l-6.7,0l0,14.5c0,3.5 -1.9,7.2 -6.2,7.2c-4.2,0 -5,-3.9 -5,-7.1l0,-14.6l-6.6,0l0,16.4c0,5.4 2.8,10.7 9.7,10.7c3.9,0 7.1,-2.4 8.2,-5l0.1,0l0,4.2c0.1,0 6.5,0 6.5,0.1Z" style="fill:rgb(255,137,0);fill-rule:nonzero;"/>        <path d="M362.3,65.2c2.4,0 4.6,1.3 5.7,2.8l4.2,-3.8c-2.1,-2.7 -6.1,-4 -9.9,-4c-5.2,0 -10.5,2.6 -10.5,8.4c0,5 3.9,6.5 7.8,7.4c4,1 6,1.6 6,3.8c0,2.4 -2.3,3.1 -4.2,3.1c-2.8,0 -5.3,-1.4 -6.7,-3.3l-4.3,4.1c2.6,2.8 6.7,4.3 10.8,4.3c5.7,0 11,-2.4 11,-8.8c0,-5.1 -4.6,-6.9 -8.5,-7.9c-3.7,-0.9 -5.7,-1.4 -5.7,-3.4c0,-2.1 2.2,-2.7 4.3,-2.7Z" style="fill:rgb(255,137,0);fill-rule:nonzero;"/>        <path d="M373.8,25.7c-0.7,-0.8 -1.8,-1.3 -2.9,-1.3c-2.1,0 -3.9,1.8 -3.9,3.9c0,1 0.4,1.9 1,2.6c10.4,11.7 16.2,26.6 16.2,42.3c0,34.9 -28.4,63.3 -63.3,63.3c-34.9,0 -63.4,-28.5 -63.4,-63.4c0,-34.9 28.5,-63.3 63.3,-63.3c5.6,0 11.1,0.7 16.4,2.1c0.4,0.1 0.6,0.2 1,0.2c2.1,0 3.9,-1.8 3.9,-3.9c0,-1.8 -1.2,-3.3 -2.8,-3.7c-6,-1.6 -12.2,-2.5 -18.3,-2.5c-39.2,0 -71.1,31.9 -71.1,71.1c0,39.2 31.9,71.1 71.1,71.1c39.2,0 71,-31.8 71,-71c0,-17.6 -6.5,-34.5 -18.2,-47.5Z" style="fill:rgb(255,137,0);fill-rule:nonzero;"/>        <path d="M346.5,22.2l4.6,0l0,4.6c0,2.1 1.8,3.9 3.9,3.9c2.1,0 3.9,-1.8 3.9,-3.9l0,-4.6l4.6,0c2.1,0 3.9,-1.8 3.9,-3.9c0,-2.1 -1.8,-3.9 -3.9,-3.9l-4.6,0l0,-4.6c0,-2.1 -1.8,-3.9 -3.9,-3.9c-2.1,0 -3.9,1.8 -3.9,3.9l0,4.6l-4.6,0c-2.1,0 -3.9,1.8 -3.9,3.9c0.1,2 1.7,3.9 3.9,3.9Z" style="fill:rgb(255,137,0);fill-rule:nonzero;"/>    </g></svg>d="M346.5,22.2l4.6,0l0,4.6c0,2.1 1.8,3.9 3.9,3.9c2.1,0 3.9,-1.8 3.9,-3.9l0,-4.6l4.6,0c2.1,0 3.9,-1.8 3.9,-3.9c0,-2.1 -1.8,-3.9 -3.9,-3.9l-4.6,0l0,-4.6c0,-2.1 -1.8,-3.9 -3.9,-3.9c-2.1,0 -3.9,1.8 -3.9,3.9l0,4.6l-4.6,0c-2.1,0 -3.9,1.8 -3.9,3.9c0.1,2 1.7,3.9 3.9,3.9Z" style="fill:rgb(255,137,0);fill-rule:nonzero;"/>    </g></svg>