<?xml version="1.0" encoding="UTF-8" standalone="no"?><!DOCTYPE svg PUBLIC "-//W3C//DTD SVG 1.1//EN" "http://www.w3.org/Graphics/SVG/1.1/DTD/svg11.dtd"><svg width="100%" height="100%" viewBox="0 0 512 512" version="1.1" xmlns="http://www.w3.org/2000/svg" xmlns:xlink="http://www.w3.org/1999/xlink" xml:space="preserve" style="fill-rule:evenodd;clip-rule:evenodd;stroke-linejoin:round;stroke-miterlimit:2;"><title>Noviti Finance</title><desc>Noviti Finance has been successfully disbursing loans to Lithuanian business since 2016. They already funded over 1000 small medium businesses and lent over 10 million euros since they started to grow their business. Team of Noviti Finance is focusing on good customer experience, transparent pricing, flexible risk scoring and fast financing.</desc>    <g transform="matrix(1.4222,0,0,1.4222,-118.607,-86.1807)">        <path d="M309.8,191.1c-9.2,-6.4 -19.5,-10.7 -30.7,-12.8c-12.5,-2.3 -24.9,-1.9 -36.9,1.3c-20.4,5.4 -36.2,16.4 -48.4,33.8c-9.5,13.6 -14.4,27.7 -14.5,42c-0.1,8.5 -0.2,99.8 -0.3,153.5c0.6,0.3 1.3,0.7 1.9,1l82.4,-92l82.4,92c0.5,-0.3 1.1,-0.5 1.6,-0.8c0.2,-47 0.3,-123.5 -0.3,-151.1c-0.7,-27.6 -13.2,-50.1 -37.2,-66.9Z" style="fill:url(#_Linear1);fill-rule:nonzero;"/>        <path d="M129.1,258.6c0.6,-45.1 20.2,-81.7 58.1,-108.8c14.1,-10 30.1,-17 47.8,-20.8c17.2,-3.7 34.6,-3.9 51.7,-0.8c29.5,5.4 54.9,19.2 75.6,41.2c15.2,16.1 25.6,35.1 31.2,56.5c2.7,10.5 4.2,21.6 4.3,31.9c0.2,25.1 0.2,70.7 0.2,111.2c27.8,-31.6 44.7,-73 44.7,-118.4c0,-99 -80.3,-179.3 -179.3,-179.3c-99,0 -179.3,80.3 -179.3,179.3c0,45.4 16.9,86.8 44.7,118.4c-0.1,-40.7 -0.1,-85.6 0.3,-110.4Z" style="fill:url(#_Linear2);fill-rule:nonzero;"/>    </g>    <defs>        <linearGradient id="_Linear1" x1="0" y1="0" x2="1" y2="0" gradientUnits="userSpaceOnUse" gradientTransform="matrix(329.55,-403.86,403.86,329.55,136.185,475.565)"><stop offset="0" style="stop-color:rgb(0,112,123);stop-opacity:1"/><stop offset="0.11" style="stop-color:rgb(0,117,128);stop-opacity:1"/><stop offset="0.27" style="stop-color:rgb(0,129,142);stop-opacity:1"/><stop offset="0.49" style="stop-color:rgb(0,150,165);stop-opacity:1"/><stop offset="0.7" style="stop-color:rgb(0,174,192);stop-opacity:1"/><stop offset="1" style="stop-color:rgb(0,174,192);stop-opacity:1"/></linearGradient>        <linearGradient id="_Linear2" x1="0" y1="0" x2="1" y2="0" gradientUnits="userSpaceOnUse" gradientTransform="matrix(329.55,-403.86,403.86,329.55,102.286,447.904)"><stop offset="0" style="stop-color:rgb(0,112,123);stop-opacity:1"/><stop offset="0.11" style="stop-color:rgb(0,117,128);stop-opacity:1"/><stop offset="0.27" style="stop-color:rgb(0,129,142);stop-opacity:1"/><stop offset="0.49" style="stop-color:rgb(0,150,165);stop-opacity:1"/><stop offset="0.7" style="stop-color:rgb(0,174,192);stop-opacity:1"/><stop offset="1" style="stop-color:rgb(0,174,192);stop-opacity:1"/></linearGradient>    </defs></svg>