<?xml version="1.0" encoding="UTF-8" standalone="no"?><!DOCTYPE svg PUBLIC "-//W3C//DTD SVG 1.1//EN" "http://www.w3.org/Graphics/SVG/1.1/DTD/svg11.dtd"><svg width="100%" height="100%" viewBox="0 0 512 512" version="1.1" xmlns="http://www.w3.org/2000/svg" xmlns:xlink="http://www.w3.org/1999/xlink" xml:space="preserve" style="fill-rule:evenodd;clip-rule:evenodd;stroke-linejoin:round;stroke-miterlimit:2;"><title>Innovate Finance</title><desc>Innovate Finance is the independent industry body that represents and advances the global FinTech community in the UK. Our mission is to accelerate the UK’s leading role in the financial services sector by directly supporting the next generation of technology-led innovators.</desc>    <g transform="matrix(3.99284,0,0,3.99284,-892.96,-825.423)">        <g transform="matrix(2.7164,0,0,2.7164,286.068,331.953)">            <path d="M0,-18.316c-0.139,0.078 -0.251,0.109 -0.397,0.109l-7.063,0c-0.329,0 -0.63,0.023 -0.904,0.069c-0.274,0.046 -0.511,0.137 -0.712,0.274c-0.201,0.137 -0.374,0.333 -0.52,0.589c-0.146,0.255 -0.256,0.593 -0.329,1.013l-1.067,6.023l9.172,0c0.31,0 0.508,0.159 0.465,0.41c-0.028,0.166 -0.066,0.356 -0.066,0.356c-0.055,0.274 -0.282,0.411 -0.591,0.411l-9.172,0l-1.697,9.555c-0.037,0.146 -0.101,0.27 -0.192,0.37c-0.091,0.1 -0.21,0.15 -0.356,0.15l-0.274,0c-0.128,0 -0.223,-0.041 -0.287,-0.123c-0.064,-0.082 -0.096,-0.178 -0.096,-0.287l0,-0.11l2.957,-16.755c0.201,-1.15 0.607,-1.949 1.218,-2.396c0.612,-0.447 1.492,-0.671 2.642,-0.671l7.03,0c0.146,0 0.251,0.015 0.341,0.078c0.061,0.045 0.121,0.12 0.131,0.279c0.004,0.065 -0.017,0.24 -0.034,0.366c-0.02,0.15 -0.14,0.257 -0.199,0.29" style="fill:rgb(53,53,53);fill-rule:nonzero;"/>        </g>        <g transform="matrix(2.7164,0,0,2.7164,283.312,260.821)">            <path d="M0,-19.302l-3.422,19.302c-0.037,0.146 -0.101,0.27 -0.192,0.37c-0.092,0.1 -0.21,0.15 -0.356,0.15l-0.274,0c-0.128,0 -0.223,-0.041 -0.287,-0.123c-0.064,-0.082 -0.096,-0.178 -0.096,-0.287l0,-0.11l3.422,-19.302c0.037,-0.145 0.1,-0.269 0.192,-0.369c0.091,-0.101 0.209,-0.151 0.356,-0.151l0.273,0c0.128,0 0.224,0.041 0.288,0.123c0.064,0.082 0.096,0.178 0.096,0.288l0,0.109Z" style="fill:rgb(53,53,53);fill-rule:nonzero;"/>        </g>        <g transform="matrix(3.35431,0,0,3.35431,321.772,334.705)">            <path d="M0,-38.079l-0.084,0.458c-0.012,0.04 -0.019,0.075 -0.023,0.096l-0.004,0.022l-6.554,36.416l-0.201,1.087l0.567,0l0,-0.001l0.726,0c0.011,0 0.018,-0.001 0.028,-0.002l0.013,0.003l0.435,0l0.09,-0.489c0.006,-0.021 0.014,-0.043 0.017,-0.062c0,-0.001 0.004,-0.028 0.004,-0.028l6.664,-36.929c0,0 0.005,-0.03 0.005,-0.031c0.004,-0.023 0.014,-0.077 0.013,-0.143l0.073,-0.397l-1.769,0Z" style="fill:rgb(83,182,135);fill-rule:nonzero;"/>        </g>    </g></svg>