<?xml version="1.0" encoding="UTF-8" standalone="no"?><!DOCTYPE svg PUBLIC "-//W3C//DTD SVG 1.1//EN" "http://www.w3.org/Graphics/SVG/1.1/DTD/svg11.dtd"><svg width="100%" height="100%" viewBox="0 0 512 512" version="1.1" xmlns="http://www.w3.org/2000/svg" xmlns:xlink="http://www.w3.org/1999/xlink" xml:space="preserve" style="fill-rule:evenodd;clip-rule:evenodd;stroke-linejoin:round;stroke-miterlimit:2;"><title>Bez Banky</title><desc></desc>    <g transform="matrix(1.20141,0,0,1.20141,-96.6749,63.2933)">        <path d="M137.9,84.8c0,-42.4 -23.9,-76.7 -53.3,-76.7c-1.1,0 -2.2,0.1 -3.3,0.2l0,227.7c0,42.4 23.9,76.7 53.3,76.7c1.1,0 2.2,-0.1 3.3,-0.2l0,-153.2l0,-74.5Z" style="fill:rgb(0,199,177);fill-rule:nonzero;"/>        <path d="M197.1,160.4l-19.3,0l0,152.3l19.3,0c39.2,0 71,-34.1 71,-76.1c0,-42.1 -31.8,-76.2 -71,-76.2" style="fill:rgb(0,199,177);fill-rule:nonzero;"/>        <path d="M258.3,76c0,-37.5 -28.3,-67.9 -63.3,-67.9l-17.2,0l0,135.8l17.2,0c35,-0.1 63.3,-30.5 63.3,-67.9" style="fill:rgb(0,199,177);fill-rule:nonzero;"/>        <path d="M375.5,84.8c0,-42.4 -23.9,-76.7 -53.3,-76.7c-1.1,0 -2.2,0.1 -3.3,0.2l0,227.7c0,42.4 23.9,76.7 53.3,76.7c1.1,0 2.2,-0.1 3.3,-0.2l0,-153.2l0,-74.5Z" style="fill:rgb(0,199,177);fill-rule:nonzero;"/>        <path d="M434.8,160.4l-19.3,0l0,152.3l19.3,0c39.2,0 71,-34.1 71,-76.1c0,-42.1 -31.8,-76.2 -71,-76.2" style="fill:rgb(0,199,177);fill-rule:nonzero;"/>    </g></svg>