<?xml version="1.0" encoding="UTF-8" standalone="no"?><!DOCTYPE svg PUBLIC "-//W3C//DTD SVG 1.1//EN" "http://www.w3.org/Graphics/SVG/1.1/DTD/svg11.dtd"><svg width="100%" height="100%" viewBox="0 0 512 512" version="1.1" xmlns="http://www.w3.org/2000/svg" xmlns:xlink="http://www.w3.org/1999/xlink" xml:space="preserve" style="fill-rule:evenodd;clip-rule:evenodd;stroke-linejoin:round;stroke-miterlimit:2;"><title>CreditGate24</title><desc>CreditGate24 brings borrowers and private/institutional investors together on its highly automated direct-lending platform. It operates in the area of consumer/private loans, loans for SMEs/self-employed individuals and real-estate financing.</desc>    <g transform="matrix(6.27854,0,0,6.30164,-774.577,-54.1638)">        <g transform="matrix(1.72208,0,0,1.71857,-120.215,-499.286)">            <path d="M184.919,321.855l-3.042,0l-13.092,0l0,5.737l11.602,0c-0.194,0.403 -0.407,0.806 -0.647,1.211c-0.109,0.182 -0.223,0.361 -0.34,0.544c-0.134,0.21 -0.274,0.414 -0.423,0.618c-0.064,0.093 -0.134,0.186 -0.202,0.279c-0.021,0.021 -0.038,0.045 -0.053,0.066c-0.071,0.096 -0.147,0.193 -0.226,0.289c-0.102,0.131 -0.206,0.258 -0.315,0.386c-0.276,0.325 -0.564,0.639 -0.865,0.939c-1.422,1.427 -3.106,2.583 -4.98,3.394c-0.124,0.055 -0.248,0.105 -0.367,0.153c-1.095,0.427 -2.163,0.704 -3.184,0.878l0,6.202c0.038,-0.005 0.079,-0.008 0.116,-0.013l0,0.012c0.167,-0.022 0.33,-0.052 0.494,-0.078c0.18,-0.027 0.352,-0.055 0.515,-0.082c0.015,-0.003 0.028,-0.006 0.047,-0.006c1.234,-0.216 1.984,-0.456 2.063,-0.481c0.004,-0.003 0.007,-0.003 0.007,-0.003c5.423,-1.544 9.999,-5.113 12.864,-9.837c0,0 0.16,-0.226 0.405,-0.657c0.342,-0.592 0.851,-1.575 1.333,-2.878l0,-0.007c0.055,-0.133 0.101,-0.267 0.15,-0.406c0.06,-0.173 0.119,-0.352 0.179,-0.534l0,-0.002c0.046,-0.148 0.092,-0.297 0.139,-0.451c0.345,-1.116 0.616,-2.264 0.785,-3.448l-0.055,0c0.078,-0.583 0.131,-1.193 0.16,-1.825l-3.068,0Z" style="fill:rgb(125,178,224);fill-rule:nonzero;"/>        </g>        <g transform="matrix(1.72208,0,0,1.71857,-120.215,-544.105)">            <path d="M172.489,322.761c-0.012,-0.004 -0.024,-0.008 -0.035,-0.012c-0.332,-0.103 -0.668,-0.195 -1.007,-0.287c-0.057,-0.011 -0.11,-0.026 -0.168,-0.041c-0.297,-0.078 -0.598,-0.146 -0.901,-0.207c-0.084,-0.02 -0.171,-0.039 -0.254,-0.058c-0.279,-0.054 -0.554,-0.103 -0.833,-0.15c-0.106,-0.015 -0.213,-0.033 -0.324,-0.049c-0.262,-0.042 -0.53,-0.073 -0.796,-0.103c-0.119,-0.012 -0.238,-0.03 -0.355,-0.042c-0.275,-0.028 -0.546,-0.043 -0.822,-0.061c-0.114,-0.008 -0.224,-0.02 -0.338,-0.023c-0.385,-0.02 -0.775,-0.032 -1.164,-0.032l-0.003,0c-0.39,0 -0.775,0.012 -1.16,0.032c-0.119,0.003 -0.233,0.015 -0.347,0.023c-0.271,0.018 -0.542,0.033 -0.813,0.061c-0.122,0.012 -0.241,0.03 -0.363,0.042c-0.263,0.03 -0.529,0.061 -0.789,0.103c-0.11,0.016 -0.221,0.034 -0.332,0.054c-0.274,0.045 -0.55,0.091 -0.821,0.145c-0.091,0.019 -0.178,0.038 -0.266,0.058c-0.297,0.064 -0.595,0.129 -0.889,0.207c-0.061,0.015 -0.119,0.03 -0.18,0.045c-0.332,0.088 -0.663,0.18 -0.992,0.283c-0.018,0.004 -0.034,0.008 -0.049,0.015c-8.556,2.68 -15.004,10.139 -16.251,19.266l-0.103,0c-0.145,1.056 -0.224,2.135 -0.224,3.23c0,1.099 0.087,2.179 0.231,3.235l-0.018,0c1.297,9.165 7.812,16.634 16.438,19.29c0.061,0.02 0.122,0.035 0.183,0.055c1.105,0.328 2.242,0.585 3.41,0.749l0,-0.026c1.046,0.144 2.038,0.209 2.966,0.225l0,-6.536c-2.194,-0.047 -3.934,-0.473 -4.853,-0.758c-2.625,-0.843 -4.975,-2.298 -6.877,-4.209c-2.06,-2.068 -3.594,-4.661 -4.392,-7.56c-0.015,-0.058 -0.029,-0.114 -0.044,-0.172c-0.081,-0.302 -0.147,-0.61 -0.212,-0.92c-0.216,-1.088 -0.345,-2.214 -0.345,-3.373c0,-1.071 0.102,-2.116 0.289,-3.134c0.661,-3.436 2.331,-6.512 4.704,-8.888c1.345,-1.355 2.925,-2.473 4.658,-3.312c0.085,-0.04 0.169,-0.081 0.253,-0.121c0.294,-0.136 0.595,-0.265 0.896,-0.386c0.216,-0.085 0.436,-0.17 0.656,-0.247c0.135,-0.049 0.271,-0.095 0.41,-0.14c0.348,-0.114 0.7,-0.217 1.059,-0.308c0.059,-0.015 0.122,-0.027 0.18,-0.042c0.373,-0.091 0.755,-0.169 1.14,-0.235c0.026,-0.003 0.048,-0.01 0.074,-0.015l0,0.005c0.901,-0.151 1.829,-0.232 2.775,-0.232c0.945,0 1.869,0.081 2.774,0.232l0,-0.005c0.023,0.008 0.048,0.012 0.074,0.018c0.38,0.063 0.759,0.141 1.132,0.232c0.063,0.015 0.126,0.027 0.187,0.042c0.357,0.091 0.709,0.194 1.056,0.308c0.14,0.045 0.279,0.091 0.418,0.14c0.216,0.077 0.429,0.159 0.638,0.243c0.312,0.121 0.616,0.257 0.92,0.397c0.078,0.038 0.157,0.074 0.235,0.111c0.986,0.477 1.903,1.066 2.774,1.714l4.531,-4.691c-2.272,-1.847 -4.883,-3.29 -7.742,-4.185" style="fill:rgb(40,56,128);fill-rule:nonzero;"/>        </g>        <g transform="matrix(0.159273,0,0,0.158689,123.369,8.59519)">            <path d="M429.737,203.899c-2.411,0 -4.592,0.414 -6.485,1.239c-2,0.862 -3.752,2.048 -5.145,3.538c-1.43,1.473 -2.518,3.197 -3.323,5.279c-0.769,2.084 -1.197,4.311 -1.215,6.591c-0.071,4.885 1.394,8.8 4.431,11.979c3.037,3.196 7.038,5.244 11.88,6.123l1.197,0.216l-0.231,1.203l-2.662,14.762l-1.162,-0.179c-3.967,-0.647 -7.664,-1.976 -11.005,-3.951c-3.395,-1.976 -6.343,-4.508 -8.826,-7.489c-2.448,-2.999 -4.377,-6.518 -5.699,-10.433c-1.323,-3.915 -1.965,-8.136 -1.894,-12.572c0.053,-4.327 0.732,-8.53 2.055,-12.463c1.375,-4.005 3.305,-7.56 5.806,-10.56c2.519,-3.07 5.699,-5.531 9.469,-7.326c3.68,-1.724 7.896,-2.605 12.524,-2.605l0.482,0c3.359,0.054 6.521,0.557 9.326,1.473c2.805,0.916 5.52,2.191 8.058,3.754c2.501,1.544 4.93,3.375 7.2,5.459c2.197,2.011 4.412,4.185 6.592,6.465l29.496,31.265l0.643,-48.02l14.847,0.179l-0.018,1.203l-0.876,67.524l-14.989,-0.179l-39.805,-41.377c-3.037,-3.017 -6.235,-5.675 -9.541,-7.847c-3.179,-2.119 -6.841,-3.215 -10.879,-3.251l-0.251,0Z" style="fill:rgb(125,178,224);fill-rule:nonzero;"/>        </g>        <g transform="matrix(0.159273,0,0,0.158689,123.369,8.59519)">            <path d="M483.489,180.228l-14.15,-0.198l-0.304,-0.197l-65.782,-44.447l0.037,-0.646l0.214,-18.282l1.214,0.018l65.317,0.862l0.179,-14.636l14.292,0.18l-0.214,14.635l22.708,0.305l-0.197,15.93l-22.689,-0.305l-0.625,46.781Zm-59.386,-47.572l45.36,29.614l0.376,-29.022l-45.736,-0.592Z" style="fill:rgb(125,178,224);fill-rule:nonzero;"/>        </g>    </g></svg>