<?xml version="1.0" encoding="UTF-8" standalone="no"?><!DOCTYPE svg PUBLIC "-//W3C//DTD SVG 1.1//EN" "http://www.w3.org/Graphics/SVG/1.1/DTD/svg11.dtd"><svg width="100%" height="100%" viewBox="0 0 512 512" version="1.1" xmlns="http://www.w3.org/2000/svg" xmlns:xlink="http://www.w3.org/1999/xlink" xml:space="preserve" style="fill-rule:evenodd;clip-rule:evenodd;stroke-linejoin:round;stroke-miterlimit:2;"><title>Wisefund</title><desc>A better way to grow your savings. A better place to get funded.Wisefund builds secure bridges between lenders and borrowers. Mediating and monitoring investments presents valuable opportunities, secure transactions, and profitable returns. Our team’s vision will create a mutually favourable environment that benefits all parties.</desc>    <g transform="matrix(-16.4504,0,0,16.4566,511,59)">        <g transform="matrix(-1,0,0,1,31.232,0)">            <path d="M0.23,6.239l0,15.82c0,1.04 0.822,1.883 1.837,1.883l27.096,0c1.885,0 2.547,-2.563 0.909,-3.519l-27.096,-15.82c-1.225,-0.715 -2.746,0.192 -2.746,1.636Zm21.914,13.972l-18.184,0l0,-10.727l18.184,10.727Z" style="fill:url(#_Linear1);fill-rule:nonzero;"/>        </g>        <path d="M0,1.869l0,20.178c0,1.031 0.835,1.866 1.865,1.866l27.129,0c1.713,0 2.52,-2.116 1.242,-3.257l-27.129,-20.179c-1.202,-1.073 -3.107,-0.219 -3.107,1.392Zm24.104,18.313l-20.374,0l0,-14.147l20.374,14.147Z" style="fill:url(#_Linear2);fill-rule:nonzero;"/>    </g>    <defs>        <linearGradient id="_Linear1" x1="0" y1="0" x2="1" y2="-0.000178255" gradientUnits="userSpaceOnUse" gradientTransform="matrix(28.9945,7.34849,-7.34849,28.9945,2.00815,10.1793)"><stop offset="0" style="stop-color:rgb(131,141,254);stop-opacity:1"/><stop offset="1" style="stop-color:rgb(215,197,253);stop-opacity:1"/></linearGradient>        <linearGradient id="_Linear2" x1="0" y1="0" x2="1" y2="-0.00029945" gradientUnits="userSpaceOnUse" gradientTransform="matrix(28.7093,14.3559,-14.3559,28.7093,2.15328,4.77853)"><stop offset="0" style="stop-color:rgb(0,255,212);stop-opacity:0.6"/><stop offset="1" style="stop-color:rgb(131,219,255);stop-opacity:0.6"/></linearGradient>    </defs></svg>