<?xml version="1.0" encoding="UTF-8" standalone="no"?><!DOCTYPE svg PUBLIC "-//W3C//DTD SVG 1.1//EN" "http://www.w3.org/Graphics/SVG/1.1/DTD/svg11.dtd"><svg width="100%" height="100%" viewBox="0 0 512 512" version="1.1" xmlns="http://www.w3.org/2000/svg" xmlns:xlink="http://www.w3.org/1999/xlink" xml:space="preserve" style="fill-rule:evenodd;clip-rule:evenodd;stroke-linejoin:round;stroke-miterlimit:2;"><title>Abundance</title><desc>Abundance Investment is the UK's first crowdfunding platform enabling anyone to earn money by investing in UK renewable energy projects.We want to help everyone mobilise their money for good, by investing directly in businesses who are trying to make a real positive impact on the world.</desc>    <g id="b44bfa14-c543-489b-8a82-82d5e742236a" transform="matrix(4.6366,0,0,4.6366,-40.7294,-40.7422)">        <path id="_65893a42-7282-42a9-a59b-ff1bcc8b1b51" d="M52.53,28.26c-12.24,5.4 -22.53,15.57 -27.33,21.29c-4.61,5.56 -7.94,9.05 -11.44,15.25c-3.76,6.66 -4.76,10.79 -4.76,16.04c0,10.32 5.08,15.09 11.6,15.09c5.24,0 13.82,-2.06 23.51,-10.64c3.65,-3.18 8.58,-9.37 8.9,-9.69c-0.16,1.91 -0.16,3.49 -0.16,5.08c0,5.4 0.32,9.37 1.91,12.71c2.06,4.13 8.26,8.1 15.73,8.1c9.21,-0.01 17.51,-4.49 20.51,-8.74c1.016,-1.412 1.7,-3.036 2,-4.75c0,-2.07 -3,-3.65 -5.08,-5.08c-1.585,-0.986 -3.38,-1.586 -5.24,-1.75c-0.478,-0.076 -0.962,0.107 -1.27,0.48c-2.07,2.07 -3,3.81 -6.67,3.81c-4.13,0 -4.61,-2.22 -4.61,-9.53c0,-22.55 5.72,-31 5.72,-34.31c0,-1.75 -3.34,-3.49 -6.35,-3.65c-1.59,-0.16 -3.18,-0.64 -4.13,-0.64c-0.512,-0.06 -1.014,0.192 -1.27,0.64c-1.586,2.286 -3.019,4.675 -4.29,7.15c-4,7.62 -7.94,14.93 -15.25,21.6c-9.85,8.89 -14.77,13 -17.63,13c-1.75,0 -2.22,-1.91 -2.22,-2.7c0,-17.63 22.88,-36.21 37.65,-43.52c0.64,-0.32 1,-0.63 1,-1.27c0,-2.38 -1.12,-5.72 -3.66,-5.72c-2.466,0.161 -4.885,0.75 -7.15,1.74" style="fill:rgb(76,76,74);fill-rule:nonzero;"/>        <path id="af44ce03-d3da-4ae1-a754-8335ec3a75b1" d="M109.52,96.47c7.08,0 8.59,-4.24 9.35,-9.35c1,-6.77 -4.2,-9.69 -9.35,-9.35c-6,0.39 -9.35,4.19 -9.35,9.35c0,5.16 2.19,9.35 9.35,9.35" style="fill:rgb(231,133,181);fill-rule:nonzero;"/>    </g></svg>