<?xml version="1.0" encoding="UTF-8" standalone="no"?><!DOCTYPE svg PUBLIC "-//W3C//DTD SVG 1.1//EN" "http://www.w3.org/Graphics/SVG/1.1/DTD/svg11.dtd"><svg width="100%" height="100%" viewBox="0 0 512 512" version="1.1" xmlns="http://www.w3.org/2000/svg" xmlns:xlink="http://www.w3.org/1999/xlink" xml:space="preserve" style="fill-rule:evenodd;clip-rule:evenodd;stroke-linejoin:round;stroke-miterlimit:2;"><title>MoneyZen</title><desc>MoneyZen is a financial portal, where people can grant loans to each other. The portal provides services to lenders (investors) as well as borrowers. Compared to banks, who are also lending money deposited by the people, the interest revenue earned by investors in our financial portal is much higher than in case of bank deposit.</desc>    <g transform="matrix(0.913039,0,0,0.913039,-1.9335,-2.84654)">        <g transform="matrix(0.709018,0,0,0.709018,-115.787,-35.3909)">            <path d="M561.745,55.857c-217.403,0 -393.907,176.504 -393.907,393.907c0,217.403 176.504,393.907 393.907,393.907c217.403,0 393.907,-176.504 393.907,-393.907c0,-217.403 -176.504,-393.907 -393.907,-393.907Zm0,56.416c186.266,0 337.491,151.225 337.491,337.491c0,186.266 -151.225,337.491 -337.491,337.491c-186.266,0 -337.491,-151.225 -337.491,-337.491c0,-186.266 151.225,-337.491 337.491,-337.491Z" style="fill:white;"/>        </g>        <g transform="matrix(0.709018,0,0,0.709018,-115.787,-35.3909)">            <circle cx="561.745" cy="449.764" r="337.491" style="fill:url(#_Linear1);"/>        </g>        <g transform="matrix(0.682857,0,0,0.682857,-91.508,14.4111)">            <path d="M337.084,274.772l0,292.273l84.884,0l0,-345.964l-84.884,53.691Z" style="fill:white;"/>            <path d="M508.379,221.081l74.52,85.751l-160.931,0l0,-85.751l86.411,0Z" style="fill:rgb(205,204,203);"/>            <g transform="matrix(1,0,0,1,165.37,0)">                <path d="M508.379,221.081l74.52,85.751l-160.931,0l0,-85.751l86.411,0Z" style="fill:rgb(205,204,203);"/>            </g>            <g transform="matrix(-1,0,0,1,1095.42,0)">                <path d="M337.084,274.772l0,292.273l84.884,0l0,-345.964l-84.884,53.691Z" style="fill:white;"/>            </g>            <g transform="matrix(1,0,0,1,166.085,0)">                <path d="M337.084,304.772l0,262.273l84.884,0l0,-345.964l-84.884,83.691Z" style="fill:white;"/>            </g>        </g>    </g>    <defs>        <linearGradient id="_Linear1" x1="0" y1="0" x2="1" y2="0" gradientUnits="userSpaceOnUse" gradientTransform="matrix(3.63676e-14,593.928,-593.928,3.63676e-14,539.442,170.079)"><stop offset="0" style="stop-color:rgb(30,114,187);stop-opacity:1"/><stop offset="0.61" style="stop-color:rgb(56,54,129);stop-opacity:1"/><stop offset="1" style="stop-color:rgb(177,27,109);stop-opacity:1"/></linearGradient>    </defs></svg>