<?xml version="1.0" encoding="UTF-8" standalone="no"?><!DOCTYPE svg PUBLIC "-//W3C//DTD SVG 1.1//EN" "http://www.w3.org/Graphics/SVG/1.1/DTD/svg11.dtd"><svg width="100%" height="100%" viewBox="0 0 512 512" version="1.1" xmlns="http://www.w3.org/2000/svg" xmlns:xlink="http://www.w3.org/1999/xlink" xml:space="preserve" style="fill-rule:evenodd;clip-rule:evenodd;stroke-linejoin:round;stroke-miterlimit:2;"><title>Envestio</title><desc>Envestio is an Estonian Crowdfunding platform focused on companies, the projects ratings are between BB and BBB with high returns.</desc>    <g id="envestio-512x256.svg" transform="matrix(5.6402,0,0,5.64655,-1193.08,-203.063)">        <path id="_8635e219-ac35-44ec-8f27-b1edc0061a5c" d="M220.31,54c1.174,-0.01 2.304,0.455 3.13,1.29l23.19,22.9c0.828,0.814 1.293,1.929 1.29,3.09c0.002,1.173 -0.462,2.3 -1.29,3.13l-23.19,22.9c-0.829,0.831 -1.956,1.299 -3.13,1.299c-2.425,0 -4.42,-1.995 -4.42,-4.42c0,-0.003 0,-0.006 0,-0.009c0.032,-1.162 0.508,-2.268 1.33,-3.09l13.06,-12.56c1.911,-1.793 2.998,-4.299 3,-6.92c0.04,-2.628 -1.002,-5.161 -2.88,-7l-13.3,-13.08c-0.814,-0.814 -1.272,-1.919 -1.272,-3.07c0,-1.151 0.458,-2.256 1.272,-3.07l0.13,-0.12c0.821,-0.809 1.927,-1.265 3.08,-1.27Zm7.18,23.53c1.073,1.064 1.678,2.515 1.678,4.026c0,1.55 -0.636,3.034 -1.758,4.104l-13,12.51c-1.659,1.574 -2.599,3.763 -2.599,6.05c0,2.14 0.823,4.2 2.299,5.75l0.22,0.22c3.323,3.275 8.737,3.275 12.06,0l23.19,-22.94c1.593,-1.567 2.491,-3.71 2.491,-5.945c0,-2.19 -0.863,-4.295 -2.401,-5.855l-0.09,-0.09l-23.22,-22.97c-3.334,-3.249 -8.726,-3.249 -12.06,0l-0.08,0.08c-1.605,1.569 -2.511,3.721 -2.511,5.965c0,2.181 0.855,4.277 2.381,5.835l0.13,0.13l13.27,13.13Z" style="fill:rgb(16,16,16);fill-rule:nonzero;"/>        <path id="_9ecaebeb-3c8d-4398-9a95-9e39547a061e" d="M299.53,110.17c1.583,-1.579 2.473,-3.725 2.473,-5.961c0,-2.274 -0.922,-4.454 -2.553,-6.039l-13.06,-12.53c-2.229,-2.156 -2.297,-5.762 -0.15,-8l0.11,-0.11l13.27,-13.1c1.605,-1.569 2.511,-3.721 2.511,-5.965c0,-2.181 -0.855,-4.277 -2.381,-5.835l-0.13,-0.13l-0.08,-0.08c-3.323,-3.275 -8.737,-3.275 -12.06,0l-23.2,22.92c-1.593,1.567 -2.491,3.71 -2.491,5.945c0,2.19 0.863,4.295 2.401,5.855l0.09,0.09l23.19,22.94c3.323,3.275 8.737,3.275 12.06,0" style="fill:rgb(16,16,16);fill-rule:nonzero;"/>    </g></svg>