<?xml version="1.0" encoding="UTF-8" standalone="no"?><!DOCTYPE svg PUBLIC "-//W3C//DTD SVG 1.1//EN" "http://www.w3.org/Graphics/SVG/1.1/DTD/svg11.dtd"><svg width="100%" height="100%" viewBox="0 0 512 512" version="1.1" xmlns="http://www.w3.org/2000/svg" xmlns:xlink="http://www.w3.org/1999/xlink" xml:space="preserve"  style="fill-rule:evenodd;clip-rule:evenodd;stroke-linejoin:round;stroke-miterlimit:2;"><title>Proptech Zone</title><desc>Proptech Zone is an innovation and knowledge center based in Tel Aviv, the heart of the startup nation. We empower both startups and real estate players to meet today’s needs and challenges of the industry, facilitating growth opportunities through technology. </desc>    <g transform="matrix(10.241,0,0,10.241,68.0783,-0.0240964)">        <path d="M17.1,0.1c-6.7,0 -12.9,3.4 -16.4,9c-0.3,0.5 -0.2,1.1 0.3,1.4c0.5,0.3 1.1,0.2 1.4,-0.3c5.1,-8.1 15.9,-10.6 24,-5.4c8.1,5.2 10.6,15.9 5.4,24c-0.7,1.1 -1.5,2.1 -2.4,3c-1.2,1.3 -2.6,2.3 -4.2,3.1l0.1,-23.4c-0,-0.6 -0.4,-1 -1,-1l-0.2,0l-14.6,2.2c-0.5,0.1 -0.9,0.5 -0.9,1l-0,7.3l-7.2,1c-0.5,0.1 -0.9,0.5 -0.9,1l-0.3,25.9c-0,0.6 0.4,1 1,1l0.2,0l8.1,-1.3c0.5,-0.1 0.9,-0.5 0.8,-1l0.2,-24.8l5.5,-0.7l-0,15.5c-0,0.1 -0,0.2 0.1,0.3l-0,0.1c-0,0.6 0.5,1 1,1c5.2,0 10.1,-2.1 13.7,-5.8c3.6,-3.7 5.7,-8.6 5.7,-13.8c-0,-10.6 -8.7,-19.3 -19.4,-19.3Zm-8.8,46.6l-6.1,1l0.3,-23.9l6,-0.8l-0.2,23.7Zm2.3,-25.9l0.1,-6.1l12.6,-1.9l-0.1,23.2c-1.6,0.6 -3.4,1 -5.1,1.1l0.1,-16c-0,-0.6 -0.4,-1 -1,-1l-0.1,0l-6.5,0.7Z" style="fill:rgb(12,0,237);fill-rule:nonzero;"/>    </g></svg>