<?xml version="1.0" encoding="UTF-8" standalone="no"?><!DOCTYPE svg PUBLIC "-//W3C//DTD SVG 1.1//EN" "http://www.w3.org/Graphics/SVG/1.1/DTD/svg11.dtd"><svg width="100%" height="100%" viewBox="0 0 512 512" version="1.1" xmlns="http://www.w3.org/2000/svg" xmlns:xlink="http://www.w3.org/1999/xlink" xml:space="preserve" style="fill-rule:evenodd;clip-rule:evenodd;stroke-linejoin:round;stroke-miterlimit:2;"><title>Lendora</title><desc>Lendora is a Swiss crowdlending startup. Our platform connects borrowers and investors online to make credit more accessible and investing more rewarding.Since its launch, Lendora has gathered a community of more than 750 smart-money investors and has reached close to CHF 1.5mio in financed loans, with more than CHF 40mio worth of loan requests received on its platform.</desc>    <g transform="matrix(1.0625,0,0,1.0625,1.47812,1)">        <path d="M447.7,120.6c-2.3,-4.2 -5.5,-7.8 -9.1,-9.9l-139,-80.3l-47.5,-27.4c-6.9,-4 -18.1,-4 -25,0l-54.9,31.7l-131.7,75.9c-6.9,4 -12.5,13.7 -12.5,21.7l0,215.4c0,4.2 1.6,8.8 4.1,12.8c2.2,3.7 5.2,7 8.4,8.8l186.6,107.7c6.9,4 18.1,4 25,0l45.6,-26.3l140.9,-81.3c4.5,-2.6 8.2,-7.6 10.4,-13c1.2,-2.9 2.1,-5.9 2.1,-8.6l0,-213.6l0,-1.9c0,-3.8 -1.4,-7.9 -3.4,-11.7Z" style="fill:url(#_Linear1);fill-rule:nonzero;"/>        <g>            <path d="M40.5,110.6c-6.9,4 -12.5,13.7 -12.5,21.7l0,199.6l144.1,-297.2l-131.6,75.9Z" style="fill:rgb(136,182,92);fill-rule:nonzero;"/>            <path d="M449,356.3c1.2,-2.9 2.1,-5.9 2.1,-8.6l0,-213.5l-53.4,110.2l51.3,111.9Z" style="fill:rgb(161,195,124);fill-rule:nonzero;"/>            <path d="M297.7,450.7l140.9,-81.3c4.5,-2.6 8.2,-7.6 10.4,-13l-51.3,-111.9l-100,206.2Z" style="fill:rgb(106,168,77);fill-rule:nonzero;"/>            <path d="M447.7,120.6c-2.3,-4.2 -5.5,-7.8 -9.1,-9.9l-139,-80.3l63.7,138.9l84.4,-48.7Z" style="fill:rgb(161,195,124);fill-rule:nonzero;"/>            <path d="M299.5,30.4l-47.4,-27.4c-6.9,-4 -18.1,-4 -25,0l-54.9,31.7l-144.2,297.2l0,15.8c0,4.2 1.6,8.8 4.1,12.8l331.1,-191.2l-63.7,-138.9Z" style="fill:url(#_Linear2);fill-rule:nonzero;"/>            <path d="M397.7,244.4l53.4,-110.2l0,-1.9c0,-3.8 -1.4,-7.9 -3.4,-11.7l-84.4,48.7l34.4,75.1Z" style="fill:rgb(139,183,104);fill-rule:nonzero;"/>            <path d="M40.5,369.3l186.6,107.7c6.9,4 18.1,4 25,0l45.6,-26.3l100,-206.3l-34.4,-75.1l-331.2,191.2c2.2,3.7 5.2,6.9 8.4,8.8Z" style="fill:url(#_Linear3);fill-rule:nonzero;"/>        </g>        <path d="M189.7,126l0,178l38.6,38.6l0.1,0l0,-94.6l0,-122l-38.7,0Z" style="fill:url(#_Linear4);fill-rule:nonzero;"/>        <path d="M189.7,304l38.6,38.6l75.8,0l0,-38.6l-114.4,0Z" style="fill:white;fill-rule:nonzero;"/>    </g>    <defs>        <linearGradient id="_Linear1" x1="0" y1="0" x2="1" y2="0" gradientUnits="userSpaceOnUse" gradientTransform="matrix(357.251,-287.642,287.642,357.251,94.123,357.075)"><stop offset="0" style="stop-color:rgb(45,144,68);stop-opacity:1"/><stop offset="0.29" style="stop-color:rgb(48,145,69);stop-opacity:1"/><stop offset="0.51" style="stop-color:rgb(57,149,71);stop-opacity:1"/><stop offset="0.7" style="stop-color:rgb(73,155,75);stop-opacity:1"/><stop offset="0.87" style="stop-color:rgb(95,163,80);stop-opacity:1"/><stop offset="1" style="stop-color:rgb(118,172,86);stop-opacity:1"/></linearGradient>        <linearGradient id="_Linear2" x1="0" y1="0" x2="1" y2="0" gradientUnits="userSpaceOnUse" gradientTransform="matrix(222.216,-0.6761,0.6761,222.216,112.656,180.319)"><stop offset="0" style="stop-color:rgb(66,151,69);stop-opacity:1"/><stop offset="1" style="stop-color:rgb(118,172,86);stop-opacity:1"/></linearGradient>        <linearGradient id="_Linear3" x1="0" y1="0" x2="1" y2="0" gradientUnits="userSpaceOnUse" gradientTransform="matrix(284.423,-229.005,229.005,284.423,137.591,427.558)"><stop offset="0" style="stop-color:rgb(45,144,68);stop-opacity:1"/><stop offset="0.29" style="stop-color:rgb(48,145,69);stop-opacity:1"/><stop offset="0.51" style="stop-color:rgb(57,149,71);stop-opacity:1"/><stop offset="0.7" style="stop-color:rgb(73,155,75);stop-opacity:1"/><stop offset="0.87" style="stop-color:rgb(95,163,80);stop-opacity:1"/><stop offset="1" style="stop-color:rgb(118,172,86);stop-opacity:1"/></linearGradient>        <linearGradient id="_Linear4" x1="0" y1="0" x2="1" y2="0" gradientUnits="userSpaceOnUse" gradientTransform="matrix(-0.6947,90.7971,-90.7971,-0.6947,208.907,253.825)"><stop offset="0" style="stop-color:white;stop-opacity:1"/><stop offset="0.02" style="stop-color:rgb(254,254,254);stop-opacity:1"/><stop offset="0.89" style="stop-color:rgb(189,189,189);stop-opacity:1"/><stop offset="1" style="stop-color:rgb(189,189,189);stop-opacity:1"/></linearGradient>    </defs></svg>