<?xml version="1.0" encoding="UTF-8" standalone="no"?><!DOCTYPE svg PUBLIC "-//W3C//DTD SVG 1.1//EN" "http://www.w3.org/Graphics/SVG/1.1/DTD/svg11.dtd"><svg width="100%" height="100%" viewBox="0 0 512 512" version="1.1" xmlns="http://www.w3.org/2000/svg" xmlns:xlink="http://www.w3.org/1999/xlink" xml:space="preserve" style="fill-rule:evenodd;clip-rule:evenodd;stroke-linejoin:round;stroke-miterlimit:2;"><title>Amberside ALP</title><desc>Amberside ALP has identified a gap in the market for senior debt lending into infrastructure projects that are either too large for the corporate lending arms of banks, or too small for their project finance arms. By focussing on this market, we can obtain the levels of risk traditional banks take, with slightly higher returns.</desc>    <g transform="matrix(9.95539,0,0,9.948,-54.1027,-6.23854)">        <g id="Fill-14" transform="matrix(1,0,0,1,18.36,0.726562)">            <path d="M0.066,1.542c0,0 -0.088,-0.765 0.501,-1.089c0.588,-0.324 4.074,-0.738 7.739,-0.172c3.71,0.573 8.025,3.726 10.32,7.08c2.295,3.355 4.2,6.96 5.19,12.51l-6.435,2.07c0,0 -1.778,-6.746 -3.72,-10.218c-1.942,-3.472 -3.943,-6.591 -6.768,-7.915c-2.825,-1.325 -4.061,-1.089 -4.237,-0.795c-0.177,0.294 -0.236,1.412 -0.206,1.56l-1.118,0.294l-1.266,-3.325" style="fill:rgb(26,25,25);"/>        </g>        <g id="Fill-16" transform="matrix(1,0,0,1,0,0.726562)">            <path d="M37.226,27.386c0,0 2.365,-0.516 6.075,-2.655c0,0 2.668,10.591 3.079,12.239c0.412,1.648 2.06,7.945 2.884,9.181c0.824,1.235 2.06,3.119 5.297,2.942l0.294,1c0,0 -2.884,1.001 -4.826,1.119c-1.942,0.118 -4.649,0.353 -6.003,-2.943c-1.353,-3.295 -3.975,-10.584 -6.8,-20.883" style="fill:rgb(26,25,25);"/>        </g>        <g id="Fill-17" transform="matrix(1,0,0,1,0,0.726562)">            <path d="M32.492,48.505c0,0 -6.533,1.176 -11.888,-0.766c-5.355,-1.942 -7.121,-6.241 -5.355,-10.123c1.765,-3.883 6.179,-5.531 11.534,-7.414c5.356,-1.883 14.124,-5.296 16.949,-7.415c2.825,-2.119 4.885,-3.767 6.591,-7.415c0,0 -3.943,4.472 -12.417,7.415c-8.475,2.942 -19.433,5.792 -23.776,7.945c-5.462,2.707 -7.474,7.65 -6.414,11.064c1.059,3.413 3.354,7.356 9.533,8.356c6.18,1.001 9.122,0.426 10.652,0c1.53,-0.425 3.708,-0.882 4.591,-1.647" style="fill:rgb(26,142,194);"/>        </g>    </g></svg>