<?xml version="1.0" encoding="UTF-8" standalone="no"?><!DOCTYPE svg PUBLIC "-//W3C//DTD SVG 1.1//EN" "http://www.w3.org/Graphics/SVG/1.1/DTD/svg11.dtd"><svg width="100%" height="100%" viewBox="0 0 512 512" version="1.1" xmlns="http://www.w3.org/2000/svg" xmlns:xlink="http://www.w3.org/1999/xlink" xml:space="preserve" style="fill-rule:evenodd;clip-rule:evenodd;stroke-linejoin:round;stroke-miterlimit:2;"><title>Find &amp; Fund</title><desc>Find and Fund is a real estate crowdfunding platform. Crowdfunding is an emerging form of real estate investment. Since 2013, the funds collected through this have doubled from year to year.</desc>    <g transform="matrix(9.39408,0,0,9.39408,-1875.1,-252.179)">        <g transform="matrix(0.10645,0,0,0.10645,201.308,26.2057)">            <path d="M470,55.759c0,-13.113 -10.646,-23.759 -23.759,-23.759l-412.482,0c-13.113,0 -23.759,10.646 -23.759,23.759l0,412.482c0,13.113 10.646,23.759 23.759,23.759l412.482,0c13.113,0 23.759,-10.646 23.759,-23.759l0,-412.482Z" style="fill:rgb(0,157,171);"/>        </g>        <g transform="matrix(1,0,0,1,208.12,65.6569)">            <path d="M0,-23.137l0,23.137l3.419,0l0,-9.894l10.354,0l0,-3.418l-10.354,0l0,-6.406l12.356,0l0,-3.419l-15.775,0Z" style="fill:white;fill-rule:nonzero;"/>        </g>        <g transform="matrix(1,0,0,1,231.306,65.6714)">            <path d="M0,-23.137l0,23.137l3.419,0l0,-9.894l10.354,0l0,-3.418l-10.354,0l0,-6.407l12.356,0l0,-3.418l-15.775,0Z" style="fill:white;fill-rule:nonzero;"/>        </g>    </g></svg>