<?xml version="1.0" encoding="UTF-8" standalone="no"?><!DOCTYPE svg PUBLIC "-//W3C//DTD SVG 1.1//EN" "http://www.w3.org/Graphics/SVG/1.1/DTD/svg11.dtd"><svg width="100%" height="100%" viewBox="0 0 512 512" version="1.1" xmlns="http://www.w3.org/2000/svg" xmlns:xlink="http://www.w3.org/1999/xlink" xml:space="preserve" style="fill-rule:evenodd;clip-rule:evenodd;stroke-linejoin:round;stroke-miterlimit:2;"><title>ViaInvest</title><desc>VIAINVEST is a peer-to-peer lending platform offering private lenders/individuals and legal entities an opportunity to invest into short-term consumer loans originated across Europe. VIAINVEST provides investors an access to non-bank lending sector by creating a safe and transparent investment environment where investors are able to earn up to 12.2% p.a. on their capital.</desc>    <g transform="matrix(3.98779,0,0,3.98779,27.1701,0.961486)">        <path d="M63.9,127.9c-33.6,0 -61.9,-26.5 -63.8,-60.5c-1.9,-35.2 25.2,-65.4 60.4,-67.3c20.6,-1.1 40.6,7.9 53.4,24c1,1.2 0.8,3 -0.5,4c-1.2,1 -3,0.8 -4,-0.5c-11.6,-14.7 -29.8,-22.9 -48.6,-21.9c-32.1,1.8 -56.8,29.3 -55.1,61.4c1.8,32.1 29.3,56.9 61.4,55.1c16.7,-0.9 32.3,-9 42.7,-22.1c1,-1.2 2.7,-1.4 3.9,-0.5c1.2,1 1.4,2.7 0.5,3.9c-11.4,14.5 -28.5,23.3 -46.8,24.3c-1.2,0.1 -2.4,0.1 -3.5,0.1Z" style="fill:url(#_Linear1);fill-rule:nonzero;"/>        <path d="M56.3,51.7l-16.5,31.9l-0.4,0l-17.2,-31.9l8.3,0l9.4,19.8l8.7,-19.8l7.7,0Z" style="fill:rgb(1,59,81);fill-rule:nonzero;"/>        <path d="M64.6,37.8c0.9,-0.7 1.8,-1.1 2.9,-1.1c1.1,0 2.1,0.4 2.9,1.1c0.8,0.7 1.2,1.7 1.2,2.7c0,1.1 -0.4,2 -1.2,2.8c-0.8,0.7 -1.8,1.1 -2.9,1.1c-1.1,0 -2.1,-0.4 -2.9,-1.1c-0.9,-0.7 -1.3,-1.7 -1.3,-2.8c0,-1 0.4,-1.9 1.3,-2.7Zm6.2,13.9l0,31l-7,0l0,-31l7,0Z" style="fill:rgb(1,59,81);fill-rule:nonzero;"/>        <path d="M114.7,51.7l0,31l-7,0l0,-5.1c-1.1,1.4 -2.7,2.8 -4.8,4c-2.1,1.2 -4.5,1.8 -7.1,1.8c-3,0 -5.6,-0.6 -8,-1.9c-2.4,-1.3 -4.3,-3.1 -5.6,-5.5c-1.3,-2.4 -2.1,-5.4 -2.1,-8.8c0,-3.4 0.7,-6.3 2.2,-8.8c1.4,-2.5 3.4,-4.5 5.8,-5.9c2.4,-1.4 5.1,-2.1 8,-2.1c2.7,0 5,0.6 6.9,1.7c1.9,1.1 3.5,2.7 4.7,4.5l0.6,-5c0,0.1 6.4,0.1 6.4,0.1Zm-10.4,23.9c1.8,-1.4 3,-3.4 3.5,-5.8l0,-6.1c-0.6,-2.2 -1.8,-4 -3.8,-5.4c-2,-1.4 -4.1,-2.1 -6.5,-2.1c-1.8,0 -3.5,0.5 -5.1,1.4c-1.6,0.9 -2.8,2.2 -3.8,3.8c-1,1.6 -1.4,3.5 -1.4,5.5c0,2 0.5,3.9 1.4,5.5c1,1.7 2.2,3 3.9,3.9c1.7,0.9 3.4,1.4 5.2,1.4c2.6,0.1 4.8,-0.7 6.6,-2.1Z" style="fill:rgb(1,59,81);fill-rule:nonzero;"/>    </g>    <defs>        <linearGradient id="_Linear1" x1="0" y1="0" x2="1" y2="0" gradientUnits="userSpaceOnUse" gradientTransform="matrix(114.806,0,0,114.806,0,63.9552)"><stop offset="0" style="stop-color:rgb(3,107,180);stop-opacity:1"/><stop offset="1" style="stop-color:rgb(1,59,81);stop-opacity:1"/></linearGradient>    </defs></svg>