<?xml version="1.0" encoding="UTF-8" standalone="no"?><!DOCTYPE svg PUBLIC "-//W3C//DTD SVG 1.1//EN" "http://www.w3.org/Graphics/SVG/1.1/DTD/svg11.dtd"><svg width="100%" height="100%" viewBox="0 0 512 512" version="1.1" xmlns="http://www.w3.org/2000/svg" xmlns:xlink="http://www.w3.org/1999/xlink" xml:space="preserve" style="fill-rule:evenodd;clip-rule:evenodd;stroke-linejoin:round;stroke-miterlimit:2;"><title>WeShareBonds</title><desc>WeShareBonds is a french P2P lending platform funded in 2016 dedicated to SMEs who are looking for loans or equity.</desc>    <g transform="matrix(4.35761,0,0,4.35761,-22.9682,-22.9109)">        <path d="M60.65,62.09c-11.59,-5.64 -22.71,-11.43 -34.14,-16.76c-1.72,-0.78 -3.45,-1.72 -5,-2.51c-2.19,-1.1 -2.51,-2.19 -1.41,-4.39c2.507,-5.039 5.668,-9.726 9.4,-13.94c5.035,-5.654 11.152,-10.241 17.99,-13.49c7.149,-3.422 14.946,-5.28 22.87,-5.45c7.379,-0.336 14.757,0.68 21.77,3c7.393,2.501 14.168,6.551 19.87,11.88c1.314,1.08 2.52,2.286 3.6,3.6c1.1,1.57 0.94,2.82 -0.63,3.76c-1.728,0.98 -3.508,1.868 -5.33,2.66c-0.999,0.468 -2.203,0.135 -2.82,-0.78c-13.776,-13.788 -34.664,-17.831 -52.59,-10.18c-6.28,2.664 -11.935,6.612 -16.6,11.59c-1.41,1.57 -2.51,3.29 -3.92,4.7c-1.1,1.25 -0.47,1.72 0.78,2.35l35.71,17.87c2.35,1.25 4.7,2.51 6.89,3.6c0.961,0.315 1.641,1.182 1.72,2.19c-0.026,1.063 -0.714,2.004 -1.72,2.35c-14.25,7.51 -28.66,14.4 -43.09,21.76c-0.527,0.352 -1.108,0.616 -1.72,0.78c-1.25,0.47 -1.25,1.1 -0.63,2c4.034,6.654 9.651,12.21 16.35,16.17c17.55,10.779 40.181,9.066 55.91,-4.23c1.88,-1.57 3.6,-3.29 5.33,-5c0.927,-1.082 2.479,-1.404 3.76,-0.78c1.56,0.689 3.077,1.474 4.54,2.35c0.913,0.421 1.5,1.338 1.5,2.343c0,0.383 -0.086,0.761 -0.25,1.107c-0.154,0.347 -0.367,0.666 -0.63,0.94c-9.4,11 -21.14,18 -35.55,20.2c-17.23,2.51 -33.2,-1.25 -46.83,-12.53c-7.404,-6.117 -13.171,-13.98 -16.78,-22.88c-0.833,-1.379 -0.413,-3.196 0.94,-4.07c0.214,-0.194 0.491,-0.304 0.78,-0.31c10.64,-5.18 21.13,-10.5 31.78,-15.51l8.15,-4.39Z" style="fill:rgb(4,154,233);fill-rule:nonzero;"/>        <path d="M9.12,62.09c-0.307,-5.945 1.036,-11.861 3.88,-17.09c0.78,-1.41 1.25,-2 3.13,-1.1c11.32,5.82 22.75,11.3 34.03,17.1c0.642,0.063 1.193,0.492 1.41,1.1c-0.176,0.636 -0.751,1.084 -1.41,1.1c-11.28,5.64 -22.71,11.28 -34,17.07c-1.72,0.94 -2.35,0.47 -3.13,-1.1c-2.66,-5.49 -4.54,-11.17 -3.91,-17.08Z" style="fill:rgb(41,50,60);fill-rule:nonzero;"/>    </g></svg>