<?xml version="1.0" encoding="UTF-8" standalone="no"?><!DOCTYPE svg PUBLIC "-//W3C//DTD SVG 1.1//EN" "http://www.w3.org/Graphics/SVG/1.1/DTD/svg11.dtd"><svg width="100%" height="100%" viewBox="0 0 512 512" version="1.1" xmlns="http://www.w3.org/2000/svg" xmlns:xlink="http://www.w3.org/1999/xlink" xml:space="preserve" style="fill-rule:evenodd;clip-rule:evenodd;stroke-linejoin:round;stroke-miterlimit:2;"><title>CrowdProperty</title><desc>CrowdProperty is the UK's leading specialist property project online lending platform, exceptionally efficiently matching the demand and supply of capital for value-creating property projects, delivering a better deal for all – borrowers, lenders, the under-supplied UK housing environment and spend in the UK economy.CrowdProperty funds property professionals undertaking any sort of property project (including auction purchases and bridging), structuring the perfect funding product and doing so with greater speed, ease, certainty and expertise than anyone in the market. As property people providing property finance, we intimately understand the market needs. </desc>    <g transform="matrix(4.47173,0,0,4.47173,-143.298,-796.674)">        <g transform="matrix(1.06561,0,0,1.06561,-11.2309,-16.15)">            <circle cx="94.12" cy="188.813" r="6.259" style="fill:rgb(86,183,147);"/>        </g>        <g transform="matrix(1.06561,0,0,1.06561,-11.2309,3.99224)">            <circle cx="94.12" cy="188.813" r="6.259" style="fill:rgb(86,183,147);"/>        </g>        <g transform="matrix(1.06561,0,0,1.06561,-11.2309,24.1345)">            <circle cx="94.12" cy="188.813" r="6.259" style="fill:rgb(86,183,147);"/>        </g>        <g transform="matrix(1.06561,0,0,1.06561,-11.2309,44.2768)">            <circle cx="94.12" cy="188.813" r="6.259" style="fill:rgb(86,183,147);"/>        </g>        <g transform="matrix(1.06561,0,0,1.06561,-11.2309,64.4191)">            <circle cx="94.12" cy="188.813" r="6.259" style="fill:rgb(86,183,147);"/>        </g>        <g transform="matrix(1.06561,0,0,1.06561,-11.2309,84.5614)">            <circle cx="94.12" cy="188.813" r="6.259" style="fill:rgb(86,183,147);"/>        </g>        <g transform="matrix(1.06561,0,0,1.06561,9.44441,3.99224)">            <circle cx="94.12" cy="188.813" r="6.259" style="fill:rgb(86,183,147);"/>        </g>        <g transform="matrix(1.06561,0,0,1.06561,9.44441,24.1345)">            <circle cx="94.12" cy="188.813" r="6.259" style="fill:rgb(86,183,147);"/>        </g>        <g transform="matrix(1.06561,0,0,1.06561,9.44441,44.2768)">            <circle cx="94.12" cy="188.813" r="6.259" style="fill:rgb(86,183,147);"/>        </g>        <g transform="matrix(1.06561,0,0,1.06561,9.44441,64.4191)">            <circle cx="94.12" cy="188.813" r="6.259" style="fill:rgb(86,183,147);"/>        </g>        <g transform="matrix(1.06561,0,0,1.06561,9.44441,84.5614)">            <circle cx="94.12" cy="188.813" r="6.259" style="fill:rgb(86,183,147);"/>        </g>        <g transform="matrix(1.06561,0,0,1.06561,-31.4954,3.99224)">            <circle cx="94.12" cy="188.813" r="6.259" style="fill:rgb(86,183,147);"/>        </g>        <g transform="matrix(1.06561,0,0,1.06561,-31.4954,24.1345)">            <circle cx="94.12" cy="188.813" r="6.259" style="fill:rgb(86,183,147);"/>        </g>        <g transform="matrix(1.06561,0,0,1.06561,-31.4954,44.2768)">            <circle cx="94.12" cy="188.813" r="6.259" style="fill:rgb(86,183,147);"/>        </g>        <g transform="matrix(1.06561,0,0,1.06561,-31.4954,64.4191)">            <circle cx="94.12" cy="188.813" r="6.259" style="fill:rgb(86,183,147);"/>        </g>        <g transform="matrix(1.06561,0,0,1.06561,-31.4954,84.5614)">            <circle cx="94.12" cy="188.813" r="6.259" style="fill:rgb(86,183,147);"/>        </g>        <g transform="matrix(1.06561,0,0,1.06561,-51.4625,24.1345)">            <circle cx="94.12" cy="188.813" r="6.259" style="fill:rgb(86,183,147);"/>        </g>        <g transform="matrix(1.06561,0,0,1.06561,-51.4625,44.2768)">            <circle cx="94.12" cy="188.813" r="6.259" style="fill:rgb(86,183,147);"/>        </g>        <g transform="matrix(1.06561,0,0,1.06561,-51.4625,64.4191)">            <circle cx="94.12" cy="188.813" r="6.259" style="fill:rgb(86,183,147);"/>        </g>        <g transform="matrix(1.06561,0,0,1.06561,-51.4625,84.5614)">            <circle cx="94.12" cy="188.813" r="6.259" style="fill:rgb(86,183,147);"/>        </g>        <g transform="matrix(1.06561,0,0,1.06561,29.4603,24.1345)">            <circle cx="94.12" cy="188.813" r="6.259" style="fill:rgb(86,183,147);"/>        </g>        <g transform="matrix(1.06561,0,0,1.06561,29.4603,44.2768)">            <circle cx="94.12" cy="188.813" r="6.259" style="fill:rgb(86,183,147);"/>        </g>        <g transform="matrix(1.06561,0,0,1.06561,29.4603,64.4191)">            <circle cx="94.12" cy="188.813" r="6.259" style="fill:rgb(86,183,147);"/>        </g>        <g transform="matrix(1.06561,0,0,1.06561,29.4603,84.5614)">            <circle cx="94.12" cy="188.813" r="6.259" style="fill:rgb(86,183,147);"/>        </g>    </g></svg>