<?xml version="1.0" encoding="UTF-8" standalone="no"?><!DOCTYPE svg PUBLIC "-//W3C//DTD SVG 1.1//EN" "http://www.w3.org/Graphics/SVG/1.1/DTD/svg11.dtd"><svg width="100%" height="100%" viewBox="0 0 512 512" version="1.1" xmlns="http://www.w3.org/2000/svg" xmlns:xlink="http://www.w3.org/1999/xlink" xml:space="preserve" style="fill-rule:evenodd;clip-rule:evenodd;stroke-linejoin:round;stroke-miterlimit:2;"><title>AEFI</title><desc></desc>    <g transform="matrix(2.31343,0,0,2.31343,-393.532,-336.238)">        <g transform="matrix(-2,0,0,2,493.136,-749.564)">            <rect x="104.821" y="529.042" width="14.426" height="14.426" style="fill:rgb(76,12,69);"/>        </g>        <g transform="matrix(-2,0,0,2,550.844,-691.856)">            <rect x="119.248" y="514.615" width="14.426" height="14.426" style="fill:rgb(190,211,58);"/>        </g>        <g transform="matrix(-2,0,0,2,435.432,-807.268)">            <rect x="90.395" y="543.468" width="14.426" height="14.426" style="fill:rgb(1,45,54);"/>        </g>        <g transform="matrix(-2,0,0,2,550.844,-807.268)">            <rect x="119.248" y="543.468" width="14.426" height="14.426" style="fill:rgb(14,178,173);"/>        </g>        <g transform="matrix(-2,0,0,2,597.632,-1017.35)">            <rect x="130.945" y="595.989" width="14.426" height="14.426" style="fill:rgb(14,178,173);"/>        </g>        <g transform="matrix(-2,0,0,2,539.924,-1075.06)">            <rect x="116.518" y="610.415" width="14.426" height="14.426" style="fill:rgb(190,211,58);"/>        </g>        <g transform="matrix(-2,0,0,2,516.53,-913.664)">            <rect x="90.395" y="560.825" width="54.975" height="32.91" style="fill:rgb(76,12,69);"/>        </g>    </g></svg>