<?xml version="1.0" encoding="UTF-8" standalone="no"?><!DOCTYPE svg PUBLIC "-//W3C//DTD SVG 1.1//EN" "http://www.w3.org/Graphics/SVG/1.1/DTD/svg11.dtd"><svg width="100%" height="100%" viewBox="0 0 512 512" version="1.1" xmlns="http://www.w3.org/2000/svg" xmlns:xlink="http://www.w3.org/1999/xlink" xml:space="preserve" style="fill-rule:evenodd;clip-rule:evenodd;stroke-linejoin:round;stroke-miterlimit:2;"><title>GoFundMe</title><desc></desc>    <g transform="matrix(0.490586,0,0,0.490586,-1033.81,61.8838)">        <path d="M2321,539.12c8.54,-7.44 16.29,-14.2 25.06,-19.62c25.18,-15.57 52.67,-20.37 81.84,-17.84c13.613,1.063 26.954,4.392 39.47,9.85c18,8 31.38,21 42.31,37c1.82,2.65 2.75,3.17 4.79,0.12c18.67,-27.91 45.38,-43.2 78.19,-47.22c32.5,-4 62.74,2.37 87.81,25c12.64,11.43 19.71,26.15 22.7,42.89c1.905,11.148 2.832,22.441 2.77,33.75c0.13,57.32 0,114.65 0.18,172c0,4.89 -1.36,6 -6.11,6c-30.16,-0.22 -60.323,-0.22 -90.49,0c-4.38,0 -5.58,-1.06 -5.56,-5.51c0.173,-45.16 0.193,-90.32 0.06,-135.48c0.109,-10.818 -1.032,-21.613 -3.4,-32.17c-8.72,-37 -50.71,-37.23 -69.43,-19.72c-11.51,10.77 -15.33,24.51 -17,39.35c-1.44,12.62 -0.88,25.28 -0.9,37.93c-0.06,36.833 -0.043,73.66 0.05,110.48c0,3.81 -0.84,5.14 -4.93,5.11c-30.667,-0.167 -61.333,-0.167 -92,0c-4.29,0 -5.19,-1.33 -5.18,-5.37c0.14,-45.66 0.08,-91.32 0.09,-137c0,-9.33 -0.32,-18.63 -2.12,-27.82c-3.34,-17.11 -13.57,-27.79 -30.37,-32c-19.81,-4.93 -39.38,2.53 -49.78,18.81c-6.25,9.77 -7.6,21 -7.68,32.12c-0.353,48.333 -0.423,96.667 -0.21,145c0,5.18 -1.4,6.29 -6.36,6.25c-30.16,-0.24 -60.323,-0.24 -90.49,0c-4.22,0 -5.23,-1.19 -5.22,-5.3c0.107,-88.493 0.107,-176.983 0,-265.47c0,-4.34 1.39,-5.16 5.38,-5.14c30.5,0.16 60.997,0.16 91.49,0c4.31,0 5.29,1.35 5.17,5.38c-0.3,9.12 -0.13,18.29 -0.13,28.62Z" style="fill:rgb(0,188,90);fill-rule:nonzero;"/>        <path d="M2974.56,661.27l-100.48,0c-5.79,0 -6.27,0.59 -5.51,6.36c0.75,5.59 1.11,11.23 2.59,16.73c4.69,17.38 15.11,29.41 32.53,34.78c15.1,4.66 30.34,5.59 45.69,1c11.12,-3.3 19.87,-10 26.71,-19.15c2,-2.64 3.95,-3.92 7.39,-3.91c29.333,0.14 58.667,0.14 88,0c4.83,0 5.09,1.44 3.73,5.47c-15.47,45.76 -48.2,72 -94.07,83.48c-14.91,3.71 -30.09,5.06 -45.47,5.32c-26.64,0.46 -52.88,-1.9 -77.91,-11.4c-49.1,-18.64 -80.2,-53.27 -89.55,-105.42c-7.13,-39.76 -1.94,-78 20.07,-112.72c16.84,-26.58 40.53,-45 70.4,-54.6c40.42,-13 81.58,-14 122.37,-2.4c50.48,14.3 80.37,49.19 94.09,98.9c4.88,17.65 5.57,35.75 5.33,53.95c0,4 -2.36,3.6 -4.91,3.6l-101,0.01Zm-46.34,-55.22l53,0c2.08,0 4.8,0.59 3.8,-3.12c-3.71,-13.82 -9.85,-26.11 -21.94,-34.66c-12.09,-8.55 -25.78,-9.88 -40,-9.32c-26,1 -45.63,17.58 -51.19,43c-0.8,3.67 0.18,4.16 3.42,4.14c17.6,-0.09 35.26,-0.04 52.91,-0.04Z" style="fill:rgb(0,188,90);fill-rule:nonzero;"/>        <path d="M3136.1,79.42c-19.53,-23.49 -65.56,-29.28 -94.05,-15.89c-6,2.82 -12.26,5.1 -17.65,9l-170.92,124c-12.17,10.62 -23.19,22.69 -24.92,38.37c-1.58,14.3 0,26.13 12.51,38.9c28.3,28.82 78.26,29 102.08,14.48c21.88,-13.29 166.42,-120.11 190,-137.52l6.12,-6.13c6.99,-9.63 19.1,-38.42 -3.17,-65.21Z" style="fill:rgb(0,188,90);fill-rule:nonzero;"/>        <path d="M2417.1,269.41c12.53,-12.77 14.09,-24.6 12.51,-38.9c-1.73,-15.68 -12.75,-27.75 -24.92,-38.37l-170.92,-124c-5.39,-3.91 -11.64,-6.19 -17.65,-9c-28.49,-13.39 -74.52,-7.6 -94,15.89c-22.27,26.79 -10.16,55.57 -3.12,65.18l6.12,6.13c23.48,17.44 168.02,124.26 189.92,137.55c23.8,14.49 73.76,14.34 102.06,-14.48Z" style="fill:rgb(0,188,90);fill-rule:nonzero;"/>        <path d="M2630.32,237c36.49,0 67.07,-16.61 75.76,-47.45c1.129,-4.241 1.697,-8.611 1.69,-13l0.82,-111.18c0,-0.94 0.07,-1.88 0.07,-2.81c0,-42.74 -34.45,-62.6 -77.71,-62.6c-43,0 -77.95,23.07 -78.3,65.41l-0.08,112.08c-0.07,4.368 0.363,8.731 1.29,13c7.43,32.07 38.82,46.55 76.46,46.55Z" style="fill:rgb(0,188,90);fill-rule:nonzero;"/>        <path d="M2855.9,320.61c-58,-28.86 -134.66,-47 -234.76,-47c-167.72,0 -280.19,52.93 -337.33,129.86l0.86,0l-0.24,0.31l675,-0.06c-24.61,-31.88 -58.43,-60.72 -103.53,-83.11Z" style="fill:rgb(0,188,90);fill-rule:nonzero;"/>    </g></svg>