<?xml version="1.0" encoding="UTF-8" standalone="no"?><!DOCTYPE svg PUBLIC "-//W3C//DTD SVG 1.1//EN" "http://www.w3.org/Graphics/SVG/1.1/DTD/svg11.dtd"><svg width="100%" height="100%" viewBox="0 0 512 512" version="1.1" xmlns="http://www.w3.org/2000/svg" xmlns:xlink="http://www.w3.org/1999/xlink" xml:space="preserve" style="fill-rule:evenodd;clip-rule:evenodd;stroke-linejoin:round;stroke-miterlimit:2;"><title>RebuildingSociety</title><desc>Based in Leeds city centre, rebuildingsociety.com is the peer-to-peer lending platform that brings ethically-minded people together for a better deal. Whereas many platforms encourage passive transactions, with limited information, we invite you to become a ‘financial activist’, because purposeful lending serves our society better.</desc>    <g transform="matrix(0.51,0,0,0.51,1,1)">        <g transform="matrix(0.942584,0,0,1.07259,27.751,27.854)">            <path d="M1000.27,23.465c0,-12.149 -11.224,-22.013 -25.049,-22.013l-948.409,0c-13.825,0 -25.049,9.864 -25.049,22.013l0,833.455c0,12.149 11.224,22.013 25.049,22.013l948.409,0c13.825,0 25.049,-9.864 25.049,-22.013l0,-833.455Z" style="fill:url(#_Linear1);"/>        </g>        <g transform="matrix(1,0,0,1,31.7123,-11.4687)">            <g transform="matrix(0.917488,0,0,0.917488,-218.349,277.681)">                <g transform="matrix(1,0,0,1,245.534,-245.534)">                    <path d="M96.928,385.009l115.417,115.418l-115.294,115.295l-0.123,0l0,-230.713Z" style="fill:rgb(222,240,250);"/>                </g>                <g transform="matrix(8.28335e-17,1.35277,-1.35277,8.28335e-17,1131.46,-35.7484)">                    <path d="M129.529,583.243l-0.028,0l0,-170.576l0.091,0l85.257,85.257l-85.32,85.319Z" style="fill:rgb(144,208,236);"/>                </g>            </g>            <g transform="matrix(5.618e-17,-0.917488,0.917488,5.618e-17,233.081,931.529)">                <g transform="matrix(1,0,0,1,245.534,-245.534)">                    <path d="M96.928,385.009l115.417,115.418l-115.294,115.295l-0.123,0l0,-230.713Z" style="fill:rgb(222,240,250);"/>                </g>                <g transform="matrix(8.28335e-17,1.35277,-1.35277,8.28335e-17,1131.46,-35.7484)">                    <path d="M129.529,583.243l-0.028,0l0,-170.576l0.091,0l85.257,85.257l-85.32,85.319Z" style="fill:rgb(144,208,236);"/>                </g>            </g>            <g transform="matrix(0.917488,0,0,0.917488,7.9092,51.0453)">                <path d="M907.707,499.033l0,119.611l-233.628,0l0,-5.527l233.628,-114.084Z" style="fill:rgb(144,208,236);"/>                <path d="M907.707,387.125l-233.628,114.084l0,-116.193l233.628,0l0,2.109Z" style="fill:rgb(222,240,250);"/>            </g>        </g>    </g>    <defs>        <linearGradient id="_Linear1" x1="0" y1="0" x2="1" y2="0" gradientUnits="userSpaceOnUse" gradientTransform="matrix(986.214,0,0,986.214,4.37973,475.86)"><stop offset="0" style="stop-color:rgb(32,166,227);stop-opacity:1"/><stop offset="1" style="stop-color:rgb(20,118,191);stop-opacity:1"/></linearGradient>    </defs></svg>