<?xml version="1.0" encoding="UTF-8" standalone="no"?><!DOCTYPE svg PUBLIC "-//W3C//DTD SVG 1.1//EN" "http://www.w3.org/Graphics/SVG/1.1/DTD/svg11.dtd"><svg width="100%" height="100%" viewBox="0 0 512 512" version="1.1" xmlns="http://www.w3.org/2000/svg" xmlns:xlink="http://www.w3.org/1999/xlink" xml:space="preserve" style="fill-rule:evenodd;clip-rule:evenodd;stroke-linejoin:round;stroke-miterlimit:2;"><title>gust</title><desc></desc>    <g transform="matrix(10.7641,0,0,10.7641,-0.706959,138.63)">        <path d="M46.7,0c-0.1,0.1 -7.3,8.4 -17.9,14.4c-0.1,0 -0.2,-0.1 -0.1,-0.1c3.5,-2.6 6.6,-5.5 9.2,-8.2c0.6,-0.6 0.6,-1.6 0,-2.2l-0.6,-0.6c-4.3,4.5 -10.1,10.1 -17.3,13.8c-0.1,0 -0.1,-0.1 -0.1,-0.1c3.2,-2.2 6.5,-5 9.3,-7.8c0.6,-0.6 0.6,-1.6 0,-2.2l-0.6,-0.6c-4.9,4.8 -10.2,9.7 -15.5,12.1c-0.1,0 -0.1,-0.1 -0.1,-0.1c3.2,-2 6.6,-5.2 8.3,-6.8c0.6,-0.6 0.6,-1.6 0,-2.2l-0.5,-0.5c0,0 -7.5,7.7 -11.8,9.6c-4.2,1.9 -7.1,1.9 -8.7,1.6c-0.1,0 -0.2,0.2 -0.1,0.2c1.7,0.7 5,1.6 9.8,1.5c13.6,-0.4 27.2,-8.7 37.1,-19c0.6,-0.6 0.6,-1.7 -0.1,-2.3l-0.3,-0.5Z" style="fill:url(#_Linear1);fill-rule:nonzero;"/>    </g>    <defs>        <linearGradient id="_Linear1" x1="0" y1="0" x2="1" y2="0" gradientUnits="userSpaceOnUse" gradientTransform="matrix(42.6893,0,0,42.6893,5.65412,19.5918)"><stop offset="0" style="stop-color:rgb(0,184,55);stop-opacity:1"/><stop offset="0.57" style="stop-color:rgb(0,183,93);stop-opacity:1"/><stop offset="1" style="stop-color:rgb(0,177,245);stop-opacity:1"/></linearGradient>    </defs></svg>