<?xml version="1.0" encoding="UTF-8" standalone="no"?><!DOCTYPE svg PUBLIC "-//W3C//DTD SVG 1.1//EN" "http://www.w3.org/Graphics/SVG/1.1/DTD/svg11.dtd"><svg width="100%" height="100%" viewBox="0 0 512 512" version="1.1" xmlns="http://www.w3.org/2000/svg" xmlns:xlink="http://www.w3.org/1999/xlink" xml:space="preserve" style="fill-rule:evenodd;clip-rule:evenodd;stroke-linejoin:round;stroke-miterlimit:2;"><title>Zopa</title><desc>Zopa created peer-to-peer lending back in 2005, has lent more than £1.2bnm and returned over £60m in interest to lenders. Zopa has over a 2% market share in UK personal loans and has helped over 250k consumers get a better deal on their money.</desc>    <g id="Zopa" transform="matrix(4.63679,0,0,4.63679,-40.7543,-40.7311)">        <path d="M65.2,9l45.62,0c1.92,0 2.4,0.48 2.4,2.4c0.48,13 -4.32,23.6 -11.52,33.6c-5.527,7.822 -11.627,15.222 -18.25,22.14c-4.8,5.28 -10.09,10.56 -14.45,16.8c-1.413,1.472 -2.408,3.295 -2.88,5.28c-1,1.92 -0.48,2.4 1.44,2.4l40.82,0c1.92,0 2.4,0.48 2.4,2.4l0,23.05c0,1.44 0,1.92 -1.92,1.92l-92.16,0c-1.44,0 -1.92,-0.48 -1.92,-1.92c-0.48,-13 4.32,-24 11.53,-34.1c5.28,-8.16 12,-14.89 18.25,-22.09c4.79,-5.27 10.08,-10.55 14.44,-16.31c1.397,-1.744 2.53,-3.685 3.36,-5.76c0.48,-1.92 0.48,-2.4 -1.44,-2.4l-40.86,0c-2.4,0.48 -2.88,-0.48 -2.88,-2.4l0,-22.58c0,-2.88 -0.48,-2.4 2.4,-2.4l45.62,-0.03Z" style="fill:rgb(0,200,180);fill-rule:nonzero;"/>    </g></svg>