<?xml version="1.0" encoding="UTF-8" standalone="no"?><!DOCTYPE svg PUBLIC "-//W3C//DTD SVG 1.1//EN" "http://www.w3.org/Graphics/SVG/1.1/DTD/svg11.dtd"><svg width="100%" height="100%" viewBox="0 0 512 512" version="1.1" xmlns="http://www.w3.org/2000/svg" xmlns:xlink="http://www.w3.org/1999/xlink" xml:space="preserve" style="fill-rule:evenodd;clip-rule:evenodd;stroke-linejoin:round;stroke-miterlimit:2;"><title>Cashare</title><desc>Cashare is the first disruptive FinTech company in Switzerland, established in January 2008 and has been running the biggest and fastest growing crowdlending platform in this country since then.</desc>    <g transform="matrix(10.5246,0,0,10.5246,79.7149,1.00238)">        <g transform="matrix(1,0,0,1,-0.05,-14.3)">            <path d="M3.53,31c0.006,6.208 4.344,11.632 10.4,13c0.45,0.09 0.91,0.17 1.37,0.23c0.46,0.06 1,0.08 1.49,0.08c0.96,0 1.75,0.79 1.75,1.75c0,0.96 -0.79,1.75 -1.75,1.75c-0.797,0 -1.592,-0.06 -2.38,-0.18c-0.42,-0.025 -0.835,-0.096 -1.24,-0.21c-7.639,-1.7 -13.12,-8.534 -13.12,-16.36c0,-9.187 7.553,-16.749 16.74,-16.76c2.076,-0.011 4.135,0.369 6.07,1.12l-0.86,3.42c-1.642,-0.697 -3.407,-1.056 -5.19,-1.056c-7.261,0 -13.245,5.955 -13.28,13.216Z" style="fill:rgb(0,181,206);fill-rule:nonzero;"/>        </g>        <g transform="matrix(1,0,0,1,-0.05,-14.3)">            <path d="M33.55,46c-0.001,9.193 -7.567,16.758 -16.76,16.758c-2.076,0 -4.135,-0.386 -6.07,-1.138l0.9,-3.4c1.63,0.687 3.381,1.041 5.15,1.041c7.275,0 13.261,-5.986 13.261,-13.261c0,-5.323 -3.206,-10.153 -8.111,-12.22c-0.743,-0.314 -1.512,-0.558 -2.3,-0.73c-0.45,-0.09 -0.91,-0.17 -1.37,-0.23c-0.495,-0.052 -0.992,-0.079 -1.49,-0.08c-0.96,0 -1.75,-0.79 -1.75,-1.75c0,-0.96 0.79,-1.75 1.75,-1.75c0.797,-0.001 1.592,0.06 2.38,0.18c0.42,0.029 0.836,0.102 1.24,0.22c7.646,1.7 13.142,8.527 13.17,16.36Z" style="fill:rgb(0,115,153);fill-rule:nonzero;"/>        </g>    </g></svg>