<?xml version="1.0" encoding="UTF-8" standalone="no"?><!DOCTYPE svg PUBLIC "-//W3C//DTD SVG 1.1//EN" "http://www.w3.org/Graphics/SVG/1.1/DTD/svg11.dtd"><svg width="100%" height="100%" viewBox="0 0 512 512" version="1.1" xmlns="http://www.w3.org/2000/svg" xmlns:xlink="http://www.w3.org/1999/xlink" xml:space="preserve" style="fill-rule:evenodd;clip-rule:evenodd;stroke-linejoin:round;stroke-miterlimit:2;"><title>DoFinance</title><desc>The global online lending and investment management company Alfa Finance Group was founded in 2015 with business essence in consumer loans and P2P investment platform services for private individuals.In less than two years, we have successfully expanded to Poland, Georgia and Indonesia, with a total of more than 150,000 registered clients.A subsidiary of the Alfa Finance Group, DoFinance is a platform providing web P2P platform operations which, thanks to innovative financial technologies, offer easy, secure and smart way of borrowing money or investing available financial resources and earning money in a manner that offers an alternative to traditional opportunities such as conservative bank deposits or risky stock markets.</desc>    <g transform="matrix(4.6374,0,0,4.6374,-40.9518,-40.8604)">        <path d="M60.78,81.22c0.159,-0.227 0.217,-0.509 0.16,-0.78l0,-13c0.016,-0.292 -0.039,-0.584 -0.16,-0.85l0,-40.82c0,-0.45 -0.1,-0.57 -0.56,-0.57l-9.24,0c-0.5,0 -0.62,0.12 -0.62,0.62l0,30.36c-4.46,-3.302 -9.864,-5.086 -15.414,-5.086c-14.208,0 -25.9,11.692 -25.9,25.9c0,4.966 1.429,9.829 4.114,14.006c3.068,4.863 7.726,8.518 13.18,10.34c8.57,2.88 16.57,1.53 24,-3.61l0,4.6c0,0.39 0.1,0.48 0.49,0.48l9.34,0c0.48,0 0.59,-0.13 0.59,-0.59l0,-20.38c0,-0.2 0.01,-0.41 0.02,-0.62Zm-10.4,-3.82c-0.268,8.31 -7.178,15 -15.492,15c-8.503,0 -15.5,-6.997 -15.5,-15.5c0,-8.492 6.98,-15.485 15.472,-15.5c8.525,0.024 15.526,7.045 15.526,15.57c0,0.143 -0.002,0.287 -0.006,0.43Z" style="fill:rgb(103,69,147);fill-rule:nonzero;"/>        <path d="M118.91,74.69c-0.285,-3.507 -1.307,-6.915 -3,-10c-4.509,-8.367 -13.278,-13.603 -22.783,-13.603c-7.946,0 -15.465,3.66 -20.367,9.913c-2.321,2.934 -3.955,6.351 -4.78,10c-0.17,0.73 -0.31,1.46 -0.47,2.19l-0.15,0.12c-0.29,-0.34 -0.55,-0.7 -0.86,-1c-1.893,-1.9 -3.797,-3.793 -5.71,-5.68l0,14.67c0.1,0.09 0.21,0.17 0.31,0.27l13.27,13.21c1.115,1.157 2.33,2.215 3.63,3.16c6.17,4.502 14.051,5.995 21.44,4.06c5.405,-1.275 10.227,-4.329 13.69,-8.67c4.332,-5.193 6.414,-11.907 5.78,-18.64Zm-25.81,17.72c-8.479,-0.027 -15.44,-7.011 -15.44,-15.49c0,-8.497 6.992,-15.49 15.49,-15.49c8.49,0 15.479,6.98 15.49,15.47c0,0.03 0,0.06 0,0.09c0,8.46 -6.961,15.42 -15.42,15.42c-0.04,0 -0.08,0 -0.12,0Z" style="fill:rgb(120,193,235);fill-rule:nonzero;"/>    </g></svg>