<?xml version="1.0" encoding="UTF-8" standalone="no"?><!DOCTYPE svg PUBLIC "-//W3C//DTD SVG 1.1//EN" "http://www.w3.org/Graphics/SVG/1.1/DTD/svg11.dtd"><svg width="100%" height="100%" viewBox="0 0 512 512" version="1.1" xmlns="http://www.w3.org/2000/svg" xmlns:xlink="http://www.w3.org/1999/xlink" xml:space="preserve" style="fill-rule:evenodd;clip-rule:evenodd;stroke-linejoin:round;stroke-miterlimit:2;"><title>Soisy</title><desc>We want people to lend, borrow and exchange their money easily, with a platform available on desktop and mobile devices.We think it’s time to build “a bank without the bank”. We think it’s time to bank different.</desc>    <g transform="matrix(1.83749,0,0,1.83749,-401.758,-214.274)">        <g transform="matrix(11.3333,0,0,11.3333,409.113,309.219)">            <path d="M0,-5.86c0.375,0.899 0.581,1.887 0.581,2.928l0,0.061c0,3.909 -2.789,7.072 -6.786,7.072c-3.996,0 -6.844,-3.22 -6.844,-7.133l0,-0.058c0,-3.905 2.788,-7.1 6.785,-7.1c0.76,0 1.479,0.12 2.144,0.339c0.751,-0.922 1.549,-1.812 2.382,-2.661c-1.328,-0.589 -2.831,-0.926 -4.467,-0.926c-6.183,0 -10.553,4.746 -10.553,10.406l0,0.061c0,5.664 4.314,10.349 10.494,10.349c6.182,0 10.553,-4.745 10.553,-10.41l0,-0.058c0,-2.128 -0.612,-4.121 -1.704,-5.776c-0.92,0.91 -1.779,1.885 -2.585,2.906" style="fill:rgb(75,79,84);fill-rule:nonzero;"/>        </g>        <g transform="matrix(11.3333,0,0,11.3333,493.539,303.273)">            <path d="M0,-15.582c-0.519,-0.792 -1.583,-1.014 -2.375,-0.493c-4.618,3.035 -8.482,7.066 -11.308,11.771c-0.757,-1.258 -1.597,-2.466 -2.503,-3.631c-1.069,0.51 -1.927,1.34 -2.497,2.377c1.323,1.734 2.476,3.593 3.435,5.556c0.136,0.306 0.364,0.579 0.669,0.761c0.276,0.175 0.586,0.255 0.898,0.255c0.415,0 0.825,-0.147 1.151,-0.44c0.202,-0.18 0.347,-0.4 0.443,-0.637c2.616,-5.33 6.621,-9.873 11.598,-13.143c0.791,-0.521 1.009,-1.583 0.489,-2.376" style="fill:rgb(0,183,79);fill-rule:nonzero;"/>        </g>    </g></svg>