<?xml version="1.0" encoding="UTF-8" standalone="no"?><!DOCTYPE svg PUBLIC "-//W3C//DTD SVG 1.1//EN" "http://www.w3.org/Graphics/SVG/1.1/DTD/svg11.dtd"><svg width="100%" height="100%" viewBox="0 0 512 512" version="1.1" xmlns="http://www.w3.org/2000/svg" xmlns:xlink="http://www.w3.org/1999/xlink" xml:space="preserve" style="fill-rule:evenodd;clip-rule:evenodd;stroke-linejoin:round;stroke-miterlimit:2;"><title>Blend</title><desc>BLEND is a peer-to-peer property lending platform that lends to established businesses (mostly property developers) with loans secured against property. BLENDs loan-based crowdfunding platform was founded by a team of professionals with substantial experience in real estate and finance.</desc>    <g transform="matrix(2.41063,0,0,2.41063,-254.777,-226.697)">        <g id="Layer-1" transform="matrix(1.31097,0,0,1.31097,-72.9922,-148.211)">            <g id="path48" transform="matrix(71.6121,0,-3.73281,71.612,121.592,338.466)">                <path d="M0.21,-2.03l1.173,0c0.196,0 0.346,0.049 0.451,0.145c0.105,0.099 0.156,0.218 0.156,0.36c0,0.122 -0.037,0.224 -0.111,0.309c-0.051,0.057 -0.124,0.102 -0.221,0.136c0.148,0.037 0.255,0.096 0.323,0.181c0.068,0.085 0.102,0.193 0.102,0.321c0,0.105 -0.022,0.201 -0.073,0.283c-0.048,0.085 -0.114,0.153 -0.199,0.201c-0.054,0.032 -0.133,0.051 -0.238,0.066c-0.142,0.019 -0.235,0.028 -0.28,0.028l-1.083,0l0,-2.03Zm0.632,0.797l0.272,0c0.099,0 0.167,-0.017 0.204,-0.051c0.04,-0.034 0.057,-0.082 0.057,-0.145c0,-0.059 -0.017,-0.107 -0.057,-0.139c-0.037,-0.034 -0.105,-0.051 -0.198,-0.051l-0.278,0l0,0.386Zm0,0.796l0.32,0c0.108,0 0.184,-0.019 0.227,-0.056c0.045,-0.04 0.068,-0.091 0.068,-0.156c0,-0.06 -0.023,-0.108 -0.068,-0.145c-0.043,-0.034 -0.119,-0.054 -0.23,-0.054l-0.317,0l0,0.411Z" style="fill:white;fill-rule:nonzero;"/>            </g>            <g transform="matrix(0.939923,0,0,0.939923,9.62512,48.9698)">                <path d="M306.799,264.447l-43.553,0l-3.246,43.553l43.553,0l3.246,-43.553Z" style="fill:white;"/>            </g>        </g>        <g id="Layer-11" transform="matrix(1.31097,0,0,1.31097,-72.9922,-148.211)">            <g transform="matrix(0.939923,0,1.05859e-17,0.939923,9.62512,48.9698)">                <path d="M306.799,264.447l-43.553,0l-3.246,43.553l43.553,0l3.246,-43.553Z" style="fill:url(#_Linear1);"/>            </g>            <g id="path481" transform="matrix(71.6121,0,-3.73281,71.612,121.592,338.466)">                <path d="M0.21,-2.03l1.173,0c0.196,0 0.346,0.049 0.451,0.145c0.105,0.099 0.156,0.218 0.156,0.36c0,0.122 -0.037,0.224 -0.111,0.309c-0.051,0.057 -0.124,0.102 -0.221,0.136c0.148,0.037 0.255,0.096 0.323,0.181c0.068,0.085 0.102,0.193 0.102,0.321c0,0.105 -0.022,0.201 -0.073,0.283c-0.048,0.085 -0.114,0.153 -0.199,0.201c-0.054,0.032 -0.133,0.051 -0.238,0.066c-0.142,0.019 -0.235,0.028 -0.28,0.028l-1.083,0l0,-2.03Zm0.632,0.797l0.272,0c0.099,0 0.167,-0.017 0.204,-0.051c0.04,-0.034 0.057,-0.082 0.057,-0.145c0,-0.059 -0.017,-0.107 -0.057,-0.139c-0.037,-0.034 -0.105,-0.051 -0.198,-0.051l-0.278,0l0,0.386Zm0,0.796l0.32,0c0.108,0 0.184,-0.019 0.227,-0.056c0.045,-0.04 0.068,-0.091 0.068,-0.156c0,-0.06 -0.023,-0.108 -0.068,-0.145c-0.043,-0.034 -0.119,-0.054 -0.23,-0.054l-0.317,0l0,0.411Z" style="fill:url(#_Linear2);fill-rule:nonzero;"/>            </g>        </g>    </g>    <defs>        <linearGradient id="_Linear1" x1="0" y1="0" x2="1" y2="0.0555575" gradientUnits="userSpaceOnUse" gradientTransform="matrix(41.9298,33.2593,-105.462,98.2509,264.869,273.285)"><stop offset="0" style="stop-color:rgb(83,204,255);stop-opacity:1"/><stop offset="0.67" style="stop-color:rgb(48,72,188);stop-opacity:1"/><stop offset="1" style="stop-color:rgb(139,0,139);stop-opacity:1"/></linearGradient>        <linearGradient id="_Linear2" x1="0" y1="0" x2="1" y2="0.0479912" gradientUnits="userSpaceOnUse" gradientTransform="matrix(1.95442,1.0148,-1.10223,2.00245,0.209764,-2.02961)"><stop offset="0" style="stop-color:rgb(255,0,0);stop-opacity:0.8"/><stop offset="0.18" style="stop-color:rgb(255,255,0);stop-opacity:0.8"/><stop offset="0.29" style="stop-color:rgb(59,202,0);stop-opacity:0.8"/><stop offset="0.41" style="stop-color:rgb(0,186,0);stop-opacity:0.8"/><stop offset="0.65" style="stop-color:rgb(0,255,255);stop-opacity:0.8"/><stop offset="0.83" style="stop-color:rgb(0,0,255);stop-opacity:0.8"/><stop offset="1" style="stop-color:rgb(139,0,139);stop-opacity:0.8"/></linearGradient>    </defs></svg>