<?xml version="1.0" encoding="UTF-8" standalone="no"?><!DOCTYPE svg PUBLIC "-//W3C//DTD SVG 1.1//EN" "http://www.w3.org/Graphics/SVG/1.1/DTD/svg11.dtd"><svg width="100%" height="100%" viewBox="0 0 512 512" version="1.1" xmlns="http://www.w3.org/2000/svg" xmlns:xlink="http://www.w3.org/1999/xlink" xml:space="preserve" style="fill-rule:evenodd;clip-rule:evenodd;stroke-linejoin:round;stroke-miterlimit:2;"><title>Aescuvest</title><desc>aescuvest enables great health innovations through equity crowdfunding. It is the leading platform to foster and fund smart healthcare ideas. This independent launch pad offers financing strategies to companies &amp; an above-average profit share to investors.</desc>    <g transform="matrix(9.79134,0,0,9.80977,31,-8.81075)">        <g transform="matrix(1,0,0,1,0,0.989)">            <path d="M0,14.577c0,-1.011 0.716,-2.252 1.592,-2.758l19.795,-11.428c0.876,-0.506 2.309,-0.506 3.185,0l19.794,11.428c0.876,0.506 1.593,1.747 1.593,2.758l0,22.858c0,1.011 -0.717,2.252 -1.593,2.757l-19.795,11.429c-0.875,0.506 -2.308,0.506 -3.185,0l-19.794,-11.429c-0.876,-0.505 -1.592,-1.746 -1.592,-2.757l0,-22.858Z" style="fill:rgb(64,240,33);"/>        </g>        <path d="M5.129,16.345c0,-0.429 0.35,-0.777 0.784,-0.777l4.084,0c0.308,0 0.576,0.177 0.701,0.436l1.982,4.674l-1.695,3.998l-2.441,-5.765c-0.058,-0.138 -0.197,-0.236 -0.359,-0.236l-2.273,0c-0.434,0 -0.784,-0.348 -0.784,-0.776c0.001,-0.239 0.001,-1.316 0.001,-1.554Z" style="fill:rgb(0,41,79);"/>        <path d="M9.997,38.42l-4.084,0c-0.434,0 -0.784,-0.347 -0.784,-0.776l0,-1.554c0,-0.428 0.35,-0.778 0.784,-0.778l2.273,0c0.161,0 0.3,-0.097 0.359,-0.236l11.235,-26.524c0.13,-0.257 0.394,-0.434 0.702,-0.434l4.993,0c0.311,0 0.574,0.177 0.705,0.433l5.134,12.127l-1.694,3.998l-5.595,-13.213c-0.058,-0.14 -0.199,-0.237 -0.359,-0.237l-1.373,0c-0.162,0 -0.298,0.097 -0.359,0.237l-5.92,13.976l13.283,0l-1.316,3.109l-13.283,0l-4,9.436c-0.125,0.258 -0.393,0.436 -0.701,0.436Z" style="fill:rgb(0,41,79);"/>        <path d="M40.829,37.644c0,0.429 -0.353,0.776 -0.784,0.776l-4.086,0c-0.309,0 -0.574,-0.178 -0.703,-0.434l-1.977,-4.677l1.692,-3.999l2.444,5.766c0.057,0.139 0.199,0.236 0.359,0.236l2.273,0c0.434,0 0.784,0.35 0.784,0.778c-0.002,0.237 -0.002,1.316 -0.002,1.554Z" style="fill:rgb(0,41,79);"/>        <path d="M40.829,17.899c0,0.428 -0.35,0.776 -0.784,0.776l-2.273,0c-0.159,0 -0.3,0.098 -0.359,0.236l-11.233,26.526c-0.131,0.257 -0.394,0.433 -0.705,0.433l-4.993,0c-0.308,0 -0.572,-0.176 -0.702,-0.433l-5.134,-12.128l1.242,-2.932l0.903,0l5.145,12.149c0.06,0.139 0.199,0.235 0.359,0.236l1.373,0c0.159,-0.001 0.3,-0.097 0.359,-0.236l11.231,-26.521c0.13,-0.258 0.394,-0.436 0.703,-0.436l4.087,0c0.431,0 0.783,0.348 0.783,0.778c-0.002,0.236 -0.002,1.313 -0.002,1.552Z" style="fill:rgb(0,41,79);"/>    </g></svg>