<?xml version="1.0" encoding="UTF-8" standalone="no"?><!DOCTYPE svg PUBLIC "-//W3C//DTD SVG 1.1//EN" "http://www.w3.org/Graphics/SVG/1.1/DTD/svg11.dtd"><svg width="100%" height="100%" viewBox="0 0 512 512" version="1.1" xmlns="http://www.w3.org/2000/svg" xmlns:xlink="http://www.w3.org/1999/xlink" xml:space="preserve" style="fill-rule:evenodd;clip-rule:evenodd;stroke-linejoin:round;stroke-miterlimit:2;"><title>ShareCredit</title><desc>At ShareCredit, we are dedicated to make investing and financing simpler by connecting borrowers and investors through our online platform. We carefully screen borrowers and investors, facilitate transactions and service loans.Our goal is to make lending quicker and more transparent when compared to traditional methods, giving all parties involved more control and certainty over their finances.</desc>    <g id="ShareCredit-Logo" transform="matrix(12.7635,0,0,12.7635,21.368,0.763667)">        <path id="Fill-1" d="M0.044,15.421c0,8.507 8.349,15.404 18.649,15.404c0.766,0 1.52,-0.04 2.261,-0.113l3.946,-2.511c-10.036,-0.208 -13.986,-4.567 -13.986,-9.724c0,-6.079 6.019,-11.007 13.445,-11.007c4.519,0 8.516,1.827 10.953,4.627l1.315,-0.829c-0.003,-0.008 -0.004,-0.018 -0.009,-0.026c-3.916,-6.472 -9.39,-11.223 -17.925,-11.223c-10.3,0 -18.649,6.896 -18.649,15.402" style="fill:rgb(33,150,243);"/>        <path id="Fill-4" d="M15.798,9.283l-3.946,2.511c10.036,0.208 13.986,4.567 13.986,9.724c0,6.079 -6.019,11.007 -13.444,11.007c-4.52,0 -8.517,-1.828 -10.954,-4.627l-1.285,0.824c0.003,0.009 0.004,0.019 0.009,0.026c3.252,5.693 9.36,11.228 17.895,11.228c10.3,0 18.649,-6.896 18.649,-15.403c0,-8.507 -8.349,-15.403 -18.649,-15.403c-0.765,0 -1.52,0.039 -2.261,0.113" style="fill:rgb(33,150,243);"/>        <path id="Fill-7" d="M0.529,27.697c-0.353,0.156 -0.539,0.531 -0.47,0.893c2.245,4.763 6.299,8.507 11.278,10.352c2.086,0.667 4.352,1.034 6.722,1.034c4.753,0 9.089,-1.469 12.382,-3.887l0.001,0.001c0.036,-0.027 0.071,-0.054 0.107,-0.081c0.079,-0.059 0.157,-0.118 0.235,-0.177c0.05,-0.039 0.099,-0.079 0.149,-0.118c0.069,-0.054 0.138,-0.108 0.205,-0.163c0.054,-0.044 0.106,-0.088 0.159,-0.132c0.063,-0.052 0.125,-0.104 0.186,-0.156c0.055,-0.047 0.11,-0.095 0.164,-0.143c0.03,-0.026 0.06,-0.051 0.089,-0.077c-0.001,0 -0.002,0.001 -0.003,0.001c0.527,-0.469 1.02,-0.964 1.474,-1.485c-0.78,0.894 -1.831,1.589 -3.004,2.041c-2.754,0.903 -5.833,1.409 -9.083,1.409c-8.752,0 -16.265,-3.665 -19.517,-8.898l0,0c-0.135,-0.304 -0.433,-0.484 -0.745,-0.484c-0.11,0 -0.222,0.023 -0.329,0.07" style="fill:rgb(20,124,204);"/>        <path id="Fill-10" d="M10.506,10.487l0.001,0.002c-0.348,0.103 -0.585,0.44 -0.55,0.814c0.041,0.425 0.418,0.736 0.844,0.696c0.024,-0.003 0.048,-0.007 0.072,-0.011l0.001,0.004c0.692,-0.059 1.393,-0.09 2.102,-0.09c0.177,0 0.353,0.002 0.529,0.006c0.058,0.001 0.116,0.003 0.174,0.005c0.118,0.003 0.236,0.007 0.353,0.012c0.069,0.003 0.138,0.006 0.206,0.01c0.106,0.005 0.213,0.011 0.319,0.018c0.072,0.004 0.144,0.01 0.217,0.015c0.101,0.007 0.203,0.015 0.304,0.023c0.074,0.007 0.148,0.014 0.222,0.02c0.099,0.01 0.198,0.02 0.297,0.03c0.074,0.008 0.148,0.016 0.221,0.025c0.1,0.011 0.198,0.023 0.297,0.036c0.072,0.009 0.145,0.019 0.217,0.028c0.101,0.014 0.201,0.029 0.302,0.044c0.069,0.011 0.138,0.02 0.207,0.031c0.107,0.017 0.213,0.036 0.32,0.054c0.061,0.011 0.123,0.021 0.184,0.032c0.137,0.024 0.273,0.051 0.409,0.078c0.03,0.006 0.061,0.011 0.091,0.017c0.164,0.033 0.327,0.068 0.49,0.105c0.059,0.013 0.118,0.027 0.176,0.041c0.105,0.025 0.21,0.049 0.314,0.074c0.069,0.017 0.138,0.035 0.206,0.053c0.094,0.024 0.187,0.048 0.28,0.073c0.072,0.019 0.144,0.039 0.217,0.06c0.088,0.024 0.176,0.049 0.264,0.075c0.074,0.021 0.147,0.043 0.221,0.066c0.085,0.025 0.17,0.051 0.255,0.078c0.075,0.024 0.149,0.047 0.223,0.071c0.083,0.027 0.166,0.055 0.249,0.083c0.074,0.025 0.148,0.05 0.222,0.076c0.082,0.029 0.164,0.058 0.246,0.088c0.073,0.026 0.147,0.053 0.22,0.08c0.082,0.03 0.163,0.062 0.244,0.093c0.072,0.028 0.144,0.055 0.216,0.084c0.085,0.033 0.169,0.068 0.253,0.103c0.105,0.043 0.21,0.087 0.314,0.131c0.105,0.045 0.21,0.09 0.314,0.137c0.076,0.034 0.152,0.069 0.227,0.104c0.071,0.032 0.143,0.064 0.214,0.098c0.078,0.036 0.154,0.074 0.232,0.112c0.067,0.032 0.135,0.065 0.202,0.098c0.078,0.039 0.156,0.079 0.233,0.119c0.065,0.033 0.13,0.066 0.194,0.099c0.079,0.042 0.157,0.083 0.235,0.125c0.062,0.034 0.124,0.067 0.186,0.101c0.079,0.044 0.157,0.088 0.235,0.132c0.06,0.033 0.119,0.067 0.178,0.101c0.079,0.047 0.158,0.093 0.237,0.14c0.056,0.032 0.111,0.066 0.166,0.099c0.081,0.05 0.162,0.099 0.243,0.149c0.049,0.031 0.097,0.062 0.145,0.092c0.086,0.055 0.172,0.109 0.257,0.165c0.031,0.02 0.062,0.041 0.093,0.062c0.329,0.218 0.651,0.443 0.966,0.676c0.021,0.015 0.041,0.03 0.061,0.045c0.091,0.068 0.18,0.136 0.27,0.205c0.033,0.026 0.067,0.052 0.101,0.078c0.085,0.067 0.169,0.134 0.253,0.202c0.037,0.029 0.073,0.058 0.109,0.087c0.083,0.068 0.165,0.136 0.246,0.204c0.036,0.031 0.072,0.061 0.108,0.091c0.081,0.07 0.163,0.14 0.243,0.211c0.034,0.029 0.067,0.058 0.1,0.088c0.082,0.073 0.164,0.146 0.245,0.22c0.029,0.027 0.057,0.053 0.086,0.08c0.084,0.079 0.168,0.157 0.252,0.237c0.019,0.018 0.038,0.037 0.057,0.056c0.51,0.492 0.993,1.008 1.447,1.546c0.004,0.005 0.008,0.01 0.013,0.015c0.084,0.1 0.166,0.2 0.248,0.301c0.013,0.016 0.026,0.032 0.039,0.048c0.078,0.097 0.155,0.195 0.231,0.294c0.015,0.019 0.03,0.039 0.045,0.058c0.076,0.098 0.15,0.197 0.224,0.296c0.014,0.02 0.028,0.039 0.042,0.058c0.074,0.102 0.148,0.204 0.22,0.307c0.011,0.014 0.021,0.029 0.031,0.044c0.076,0.108 0.152,0.218 0.225,0.327c0.002,0.003 0.004,0.006 0.005,0.008c0.481,0.718 0.914,1.466 1.292,2.239c0.002,0.002 0.003,0.005 0.004,0.007c0.06,0.123 0.119,0.246 0.176,0.371c0.005,0.01 0.01,0.02 0.014,0.03c0.056,0.121 0.111,0.243 0.164,0.366c0.005,0.011 0.01,0.023 0.015,0.034c0.053,0.124 0.106,0.248 0.156,0.373c0.003,0.008 0.006,0.016 0.01,0.023c0.377,0.932 0.68,1.896 0.9,2.886l-0.016,0.005c0.11,0.464 0.168,0.945 0.168,1.439c0,1.525 -0.518,2.951 -1.449,4.087c0.658,-0.776 1.231,-1.605 1.709,-2.477c0,0.001 0,0.002 0,0.003c0.056,-0.102 0.11,-0.205 0.163,-0.309c0.051,-0.099 0.101,-0.199 0.15,-0.299c0,0 0,0 0,-0.001c0.004,-0.007 0.007,-0.014 0.01,-0.021c0,0 0.001,0 0.001,0c0.048,-0.099 0.095,-0.199 0.14,-0.3c0,0 0.001,-0.001 0.001,-0.001c0.006,-0.014 0.013,-0.028 0.019,-0.042c0.044,-0.099 0.088,-0.198 0.13,-0.298c0,0 0,0 0,0c0.004,-0.01 0.008,-0.019 0.012,-0.029c0.045,-0.106 0.088,-0.213 0.13,-0.321c0,0 0,0 0,0c0.002,-0.004 0.003,-0.007 0.004,-0.011c0.109,-0.278 0.207,-0.559 0.297,-0.844c0.003,-0.01 0.006,-0.019 0.009,-0.029c0.027,-0.089 0.054,-0.178 0.08,-0.268c0.003,-0.009 0.005,-0.017 0.007,-0.025c0.049,-0.172 0.095,-0.345 0.137,-0.518c0.003,-0.016 0.008,-0.031 0.011,-0.047c0.018,-0.075 0.035,-0.15 0.051,-0.226c0.01,-0.042 0.019,-0.084 0.028,-0.127c0.014,-0.069 0.028,-0.139 0.042,-0.209c0.013,-0.067 0.025,-0.135 0.036,-0.203c0.016,-0.086 0.03,-0.172 0.043,-0.259c0.011,-0.069 0.021,-0.139 0.031,-0.208c0.007,-0.053 0.014,-0.106 0.021,-0.158c0.01,-0.081 0.019,-0.162 0.027,-0.243c0.005,-0.04 0.009,-0.079 0.013,-0.119c0.011,-0.118 0.021,-0.236 0.029,-0.355c0.003,-0.036 0.004,-0.073 0.007,-0.109c0.005,-0.093 0.01,-0.186 0.013,-0.279c0.002,-0.038 0.003,-0.075 0.004,-0.113c0.004,-0.125 0.006,-0.251 0.006,-0.377c0,-8.507 -8.349,-15.403 -18.649,-15.403c-2.688,0 -5.244,0.471 -7.553,1.317" style="fill:rgb(20,124,204);"/>        <path id="Fill-13" d="M1.697,9.076c-0.001,-0.001 -0.001,-0.002 -0.001,-0.003c-0.056,0.103 -0.11,0.206 -0.163,0.309c-0.051,0.1 -0.101,0.199 -0.15,0.3c0,0 0,0 0,0.001c-0.003,0.007 -0.007,0.013 -0.01,0.02c0,0.001 0,0.001 0,0.001c-0.049,0.099 -0.095,0.199 -0.141,0.3c0,0 0,0 -0.001,0.001c-0.006,0.014 -0.012,0.027 -0.018,0.042c-0.045,0.098 -0.089,0.198 -0.131,0.298c0,0 0,0 0,0c-0.004,0.009 -0.008,0.019 -0.012,0.029c-0.044,0.106 -0.088,0.213 -0.13,0.32c0,0 0,0.001 0,0.001c-0.001,0.003 -0.003,0.007 -0.004,0.01c-0.108,0.279 -0.207,0.56 -0.296,0.845c-0.003,0.009 -0.006,0.019 -0.009,0.028c-0.028,0.09 -0.055,0.179 -0.081,0.269c-0.002,0.008 -0.005,0.017 -0.007,0.025c-0.049,0.172 -0.095,0.344 -0.137,0.518c-0.003,0.016 -0.007,0.031 -0.011,0.047c-0.018,0.075 -0.035,0.15 -0.051,0.225c-0.01,0.043 -0.018,0.085 -0.028,0.128c-0.014,0.069 -0.028,0.138 -0.042,0.208c-0.013,0.068 -0.024,0.135 -0.036,0.203c-0.015,0.087 -0.03,0.173 -0.043,0.26c-0.011,0.069 -0.021,0.138 -0.031,0.208c-0.007,0.053 -0.014,0.105 -0.02,0.158c-0.011,0.081 -0.02,0.162 -0.028,0.243c-0.004,0.04 -0.009,0.079 -0.013,0.118c-0.011,0.119 -0.021,0.237 -0.029,0.356c-0.002,0.036 -0.004,0.072 -0.006,0.109c-0.006,0.093 -0.01,0.186 -0.014,0.279c-0.002,0.037 -0.003,0.075 -0.004,0.112c-0.004,0.126 -0.006,0.251 -0.006,0.377c0,8.507 8.349,15.404 18.649,15.404c2.689,0 5.244,-0.471 7.553,-1.317l-0.001,-0.003c0.348,-0.102 0.586,-0.439 0.55,-0.814c-0.04,-0.424 -0.418,-0.735 -0.843,-0.695c-0.025,0.003 -0.049,0.006 -0.073,0.011l-0.001,-0.004c-0.692,0.059 -1.393,0.09 -2.102,0.09c-0.176,0 -0.353,-0.002 -0.529,-0.006c-0.058,-0.001 -0.116,-0.004 -0.174,-0.005c-0.118,-0.003 -0.236,-0.007 -0.353,-0.012c-0.069,-0.003 -0.137,-0.007 -0.206,-0.01c-0.106,-0.005 -0.212,-0.011 -0.318,-0.018c-0.073,-0.005 -0.145,-0.01 -0.218,-0.015c-0.101,-0.007 -0.203,-0.015 -0.304,-0.024c-0.074,-0.006 -0.148,-0.013 -0.221,-0.02c-0.1,-0.009 -0.199,-0.019 -0.298,-0.03c-0.074,-0.007 -0.148,-0.016 -0.221,-0.024c-0.099,-0.011 -0.198,-0.024 -0.297,-0.036c-0.072,-0.01 -0.145,-0.019 -0.217,-0.029c-0.101,-0.013 -0.201,-0.028 -0.302,-0.044c-0.069,-0.01 -0.138,-0.02 -0.206,-0.031c-0.108,-0.017 -0.214,-0.035 -0.321,-0.054c-0.061,-0.01 -0.123,-0.02 -0.184,-0.031c-0.137,-0.025 -0.273,-0.051 -0.409,-0.078c-0.03,-0.006 -0.061,-0.011 -0.091,-0.017c-0.164,-0.034 -0.327,-0.069 -0.49,-0.105c-0.059,-0.013 -0.117,-0.028 -0.176,-0.041c-0.105,-0.025 -0.21,-0.049 -0.314,-0.075c-0.069,-0.017 -0.137,-0.035 -0.206,-0.052c-0.093,-0.024 -0.187,-0.048 -0.279,-0.073c-0.073,-0.019 -0.145,-0.04 -0.217,-0.06c-0.089,-0.025 -0.177,-0.049 -0.264,-0.075c-0.074,-0.021 -0.148,-0.044 -0.222,-0.066c-0.085,-0.026 -0.17,-0.052 -0.255,-0.078c-0.074,-0.024 -0.149,-0.048 -0.223,-0.072c-0.083,-0.027 -0.166,-0.054 -0.249,-0.082c-0.074,-0.025 -0.148,-0.051 -0.222,-0.076c-0.082,-0.029 -0.164,-0.058 -0.246,-0.088c-0.073,-0.027 -0.147,-0.053 -0.22,-0.08c-0.082,-0.031 -0.163,-0.062 -0.244,-0.094c-0.072,-0.027 -0.144,-0.054 -0.215,-0.083c-0.085,-0.034 -0.169,-0.069 -0.254,-0.103c-0.105,-0.043 -0.21,-0.087 -0.314,-0.132c-0.105,-0.044 -0.21,-0.09 -0.314,-0.136c-0.076,-0.034 -0.151,-0.069 -0.227,-0.104c-0.071,-0.032 -0.143,-0.065 -0.213,-0.098c-0.078,-0.037 -0.155,-0.074 -0.233,-0.112c-0.067,-0.033 -0.134,-0.065 -0.201,-0.098c-0.079,-0.039 -0.157,-0.079 -0.234,-0.119c-0.065,-0.033 -0.13,-0.066 -0.194,-0.1c-0.078,-0.041 -0.157,-0.083 -0.235,-0.125c-0.062,-0.033 -0.124,-0.067 -0.186,-0.101c-0.078,-0.043 -0.157,-0.087 -0.235,-0.131c-0.059,-0.034 -0.118,-0.068 -0.177,-0.102c-0.08,-0.046 -0.159,-0.092 -0.238,-0.139c-0.055,-0.033 -0.111,-0.066 -0.165,-0.1c-0.082,-0.049 -0.163,-0.098 -0.244,-0.149c-0.048,-0.03 -0.097,-0.061 -0.145,-0.092c-0.086,-0.054 -0.172,-0.109 -0.257,-0.164c-0.031,-0.021 -0.062,-0.042 -0.093,-0.062c-0.329,-0.218 -0.651,-0.443 -0.966,-0.677c-0.02,-0.015 -0.041,-0.029 -0.061,-0.044c-0.091,-0.068 -0.18,-0.137 -0.269,-0.205c-0.034,-0.027 -0.068,-0.052 -0.102,-0.079c-0.085,-0.066 -0.169,-0.133 -0.253,-0.201c-0.037,-0.029 -0.073,-0.058 -0.109,-0.088c-0.083,-0.067 -0.165,-0.135 -0.246,-0.204c-0.036,-0.03 -0.072,-0.06 -0.108,-0.09c-0.081,-0.07 -0.162,-0.14 -0.243,-0.211c-0.033,-0.029 -0.067,-0.059 -0.1,-0.088c-0.082,-0.073 -0.164,-0.147 -0.244,-0.221c-0.029,-0.026 -0.058,-0.053 -0.086,-0.079c-0.085,-0.079 -0.169,-0.158 -0.253,-0.237c-0.019,-0.019 -0.038,-0.037 -0.057,-0.056c-0.51,-0.492 -0.993,-1.008 -1.446,-1.546c-0.005,-0.005 -0.009,-0.01 -0.014,-0.015c-0.083,-0.1 -0.166,-0.2 -0.248,-0.301c-0.013,-0.016 -0.026,-0.032 -0.039,-0.048c-0.078,-0.097 -0.155,-0.196 -0.231,-0.294c-0.015,-0.02 -0.03,-0.039 -0.045,-0.059c-0.076,-0.098 -0.15,-0.196 -0.223,-0.296c-0.015,-0.019 -0.029,-0.038 -0.043,-0.057c-0.074,-0.102 -0.148,-0.204 -0.22,-0.307c-0.01,-0.014 -0.021,-0.029 -0.031,-0.044c-0.076,-0.109 -0.151,-0.218 -0.225,-0.328c-0.002,-0.002 -0.004,-0.005 -0.005,-0.008c-0.481,-0.718 -0.913,-1.465 -1.292,-2.238c-0.001,-0.003 -0.003,-0.005 -0.004,-0.007c-0.06,-0.123 -0.118,-0.247 -0.176,-0.371c-0.005,-0.01 -0.009,-0.02 -0.014,-0.03c-0.056,-0.122 -0.11,-0.243 -0.164,-0.366c-0.005,-0.012 -0.01,-0.023 -0.015,-0.035c-0.053,-0.123 -0.105,-0.247 -0.156,-0.372c-0.003,-0.008 -0.006,-0.016 -0.01,-0.023c-0.377,-0.932 -0.679,-1.896 -0.9,-2.886l0.016,-0.005c-0.11,-0.464 -0.168,-0.946 -0.168,-1.44c0,-1.524 0.518,-2.95 1.449,-4.087c-0.658,0.777 -1.231,1.605 -1.708,2.477" style="fill:rgb(20,124,204);"/>        <path id="Fill-16" d="M6.311,3.905l0,0c-0.037,0.027 -0.072,0.054 -0.108,0.081c-0.079,0.059 -0.157,0.117 -0.234,0.177c-0.051,0.039 -0.1,0.078 -0.15,0.118c-0.069,0.054 -0.137,0.108 -0.205,0.163c-0.053,0.043 -0.106,0.087 -0.159,0.131c-0.063,0.052 -0.125,0.104 -0.186,0.157c-0.055,0.047 -0.109,0.095 -0.164,0.142c-0.029,0.026 -0.06,0.052 -0.089,0.078c0.001,0 0.002,-0.001 0.004,-0.002c-0.528,0.47 -1.021,0.965 -1.475,1.486c0.78,-0.894 1.831,-1.59 3.004,-2.041c2.754,-0.904 5.833,-1.41 9.083,-1.41c8.752,0 16.265,3.665 19.517,8.899c0.183,0.41 0.663,0.595 1.074,0.414c0.353,-0.156 0.583,-0.542 0.47,-0.893c-0.001,-0.004 -0.003,-0.007 -0.004,-0.01c-2.247,-4.758 -6.299,-8.499 -11.275,-10.343c-2.085,-0.667 -4.352,-1.033 -6.721,-1.033c-4.753,0 -9.089,1.469 -12.382,3.886" style="fill:rgb(20,124,204);"/>    </g></svg>