<?xml version="1.0" encoding="UTF-8" standalone="no"?><!DOCTYPE svg PUBLIC "-//W3C//DTD SVG 1.1//EN" "http://www.w3.org/Graphics/SVG/1.1/DTD/svg11.dtd"><svg width="100%" height="100%" viewBox="0 0 512 512" version="1.1" xmlns="http://www.w3.org/2000/svg" xmlns:xlink="http://www.w3.org/1999/xlink" xml:space="preserve" style="fill-rule:evenodd;clip-rule:evenodd;stroke-linejoin:round;stroke-miterlimit:2;"><title>Enerfip</title><desc>Enerfip was founded in 2014 by renewable energy professionals with experience in financing.Our dynamic team selects solid projects developed by the most reliable companies in the sector. You invest part of your savings in the projects of your choice for 2 to 6 years with an interest rate of up to 7%.</desc>    <g id="enerfip" transform="matrix(2.44968,0,0,2.44968,0.0707306,-3.48138)">        <path d="M92.21,15.72c0.847,2.443 1.822,4.839 2.92,7.18c2.037,4.28 4.467,8.361 7.26,12.19c5.199,7.056 11.528,13.205 18.73,18.2c7.16,5.052 15.108,8.884 23.52,11.34c4.547,1.32 9.207,2.214 13.92,2.67c2.26,0.21 4.55,0.32 6.82,0.32l0.89,0c2.9,-0.024 5.793,-0.288 8.65,-0.79l1.93,-0.35c1.114,-0.207 1.867,-1.283 1.68,-2.4l-0.33,-1.93c-0.501,-2.849 -1.237,-5.652 -2.2,-8.38c-0.849,-2.437 -1.827,-4.827 -2.93,-7.16c-2.037,-4.276 -4.467,-8.354 -7.26,-12.18c-10.476,-14.186 -25.283,-24.592 -42.18,-29.64c-4.553,-1.324 -9.22,-2.214 -13.94,-2.66c-2.19,-0.2 -4.43,-0.31 -6.66,-0.3l-1.03,0c-2.908,0.037 -5.807,0.311 -8.67,0.82l-1.95,0.35c-1.108,0.207 -1.857,1.278 -1.67,2.39l0.29,1.92c0.507,2.859 1.247,5.671 2.21,8.41Z" style="fill:rgb(255,212,31);fill-rule:nonzero;"/>        <path d="M206.64,82.49c-0.474,-2.491 -1.082,-4.954 -1.82,-7.38c-0.828,-2.749 -1.882,-5.425 -3.15,-8l-0.88,-1.74c-0.506,-1.007 -1.744,-1.429 -2.76,-0.94l-1.75,0.84c-2.569,1.252 -5.031,2.714 -7.36,4.37c-2.084,1.464 -4.087,3.039 -6,4.72c-3.497,3.092 -6.695,6.507 -9.55,10.2c-10.511,13.825 -16.257,30.694 -16.37,48.06c-0.007,4.66 0.425,9.311 1.29,13.89c0.472,2.49 1.076,4.954 1.81,7.38c0.816,2.749 1.859,5.425 3.12,8l0.87,1.76c0.507,1.013 1.752,1.435 2.77,0.94l1.77,-0.85c2.557,-1.254 5.006,-2.719 7.32,-4.38c2.085,-1.465 4.089,-3.044 6,-4.73c3.489,-3.097 6.683,-6.512 9.54,-10.2c10.556,-13.798 16.352,-30.658 16.51,-48.03c-0.016,-4.669 -0.471,-9.326 -1.36,-13.91Z" style="fill:rgb(132,154,207);fill-rule:nonzero;"/>        <path d="M168.9,179.15c-2.065,-1.487 -4.208,-2.862 -6.42,-4.12c-4.063,-2.293 -8.332,-4.202 -12.75,-5.7c-8.101,-2.686 -16.585,-4.037 -25.12,-4l-0.28,0c-8.617,-0.005 -17.176,1.414 -25.33,4.2c-4.412,1.512 -8.671,3.437 -12.72,5.75c-2.198,1.259 -4.328,2.635 -6.38,4.12c-2.332,1.686 -4.522,3.559 -6.55,5.6l-1.35,1.35c-0.793,0.805 -0.793,2.115 -0,2.92l1.38,1.39c2.017,2.015 4.202,3.854 6.53,5.5c2.066,1.479 4.209,2.848 6.42,4.1c4.061,2.291 8.33,4.193 12.75,5.68c16.477,5.467 34.291,5.439 50.75,-0.08c4.416,-1.516 8.679,-3.448 12.73,-5.77c2.201,-1.261 4.331,-2.643 6.38,-4.14c2.324,-1.676 4.505,-3.543 6.52,-5.58l1.36,-1.39c0.788,-0.807 0.788,-2.113 -0,-2.92l-1.37,-1.38c-2.026,-2.022 -4.217,-3.872 -6.55,-5.53Z" style="fill:rgb(168,200,19);fill-rule:nonzero;"/>        <path d="M45.35,123.4c-2.84,-3.696 -6.021,-7.118 -9.5,-10.22c-1.894,-1.684 -3.877,-3.267 -5.94,-4.74c-2.315,-1.682 -4.767,-3.167 -7.33,-4.44l-1.77,-0.86c-1.018,-0.495 -2.263,-0.073 -2.77,0.94l-0.88,1.75c-1.27,2.566 -2.326,5.231 -3.16,7.97c-0.742,2.429 -1.357,4.896 -1.84,7.39c-0.875,4.582 -1.32,9.235 -1.33,13.9c0.071,17.36 5.775,34.236 16.25,48.08c2.844,3.702 6.032,7.127 9.52,10.23c1.896,1.683 3.883,3.262 5.95,4.73c2.33,1.669 4.795,3.141 7.37,4.4l1.75,0.85c1.016,0.489 2.254,0.067 2.76,-0.94l0.88,-1.74c1.276,-2.553 2.333,-5.209 3.16,-7.94c0.756,-2.43 1.377,-4.901 1.86,-7.4c0.887,-4.584 1.336,-9.241 1.34,-13.91c-0.022,-8.63 -1.465,-17.198 -4.27,-25.36c-2.742,-8.174 -6.813,-15.841 -12.05,-22.69Z" style="fill:rgb(243,146,5);fill-rule:nonzero;"/>        <g transform="matrix(1,0,0,1,0.96322,0)">            <path d="M81.27,46.43c1.038,-2.312 1.949,-4.679 2.73,-7.09c0.894,-2.72 1.563,-5.51 2,-8.34l0.28,-1.94c0.172,-1.122 -0.608,-2.187 -1.73,-2.36l-1.93,-0.31c-2.802,-0.432 -5.635,-0.633 -8.47,-0.6l-0.07,-0c-2.533,0.021 -5.064,0.178 -7.58,0.47c-4.63,0.545 -9.2,1.52 -13.65,2.91c-16.553,5.294 -30.946,15.825 -41,30c-2.656,3.825 -4.949,7.889 -6.85,12.14c-1.034,2.315 -1.939,4.685 -2.71,7.1c-0.897,2.723 -1.566,5.516 -2,8.35l-0.29,1.93c-0.131,1.108 0.648,2.136 1.75,2.31l1.92,0.31c2.819,0.465 5.672,0.696 8.53,0.69c2.543,-0.017 5.083,-0.17 7.61,-0.46c4.638,-0.536 9.216,-1.51 13.67,-2.91c8.22,-2.618 15.953,-6.571 22.89,-11.7c6.969,-5.084 13.051,-11.285 18,-18.35c2.674,-3.826 4.984,-7.894 6.9,-12.15Z" style="fill:rgb(0,181,236);fill-rule:nonzero;"/>        </g>    </g></svg>