<?xml version="1.0" encoding="UTF-8" standalone="no"?><!DOCTYPE svg PUBLIC "-//W3C//DTD SVG 1.1//EN" "http://www.w3.org/Graphics/SVG/1.1/DTD/svg11.dtd"><svg width="100%" height="100%" viewBox="0 0 512 512" version="1.1" xmlns="http://www.w3.org/2000/svg" xmlns:xlink="http://www.w3.org/1999/xlink" xml:space="preserve" style="fill-rule:evenodd;clip-rule:evenodd;stroke-linejoin:round;stroke-miterlimit:2;"><title>Klear</title><desc>KLEAR is a FinTech company building a unique combination of Peer-to-Peer lending platform and a whole range of financial education tools.We are based in Bulgaria. We launched the Peer-to-Peer platform in November 2016, lending to Bulgarian citizens and accepting investments from any individual from the EU.</desc>    <g transform="matrix(1.33636,0,0,1.33636,-415.477,663.603)">        <g transform="matrix(1,0,0,1,-230.485,-949.21)">            <path d="M892.9,739.675l-243.771,-267.378c-21.092,-23.093 -56.964,-24.717 -80.057,-3.626c-23.093,21.092 -24.718,56.964 -3.626,80.057l243.771,267.377c21.092,23.093 56.964,24.718 80.057,3.626c23.093,-21.091 24.717,-56.963 3.626,-80.056Z" style="fill:url(#_Linear1);"/>        </g>        <g transform="matrix(1,0,0,1,-224.033,-948.023)">            <path d="M657.872,776.178l-0.36,-266.919c-0.043,-31.275 -25.468,-56.632 -56.744,-56.59c-31.275,0.043 -56.632,25.468 -56.59,56.744l0.361,266.918c0.042,31.276 25.468,56.633 56.743,56.591c31.275,-0.043 56.632,-25.468 56.59,-56.744Z" style="fill:url(#_Linear2);"/>        </g>        <g transform="matrix(1.02337,-0.0232208,0.023466,1.03418,206.496,-966.512)">            <path d="M188.067,810.36l251.353,-251.354c21.491,-21.49 21.307,-56.203 -0.411,-77.469c-21.717,-21.266 -56.796,-21.084 -78.287,0.407l-251.353,251.353c-21.49,21.491 -21.306,56.203 0.411,77.469c21.718,21.266 56.797,21.084 78.287,-0.406Z" style="fill:url(#_Linear3);"/>        </g>    </g>    <defs>        <linearGradient id="_Linear1" x1="0" y1="0" x2="1" y2="0" gradientUnits="userSpaceOnUse" gradientTransform="matrix(280.946,280.946,-280.946,280.946,582.063,506.983)"><stop offset="0" style="stop-color:rgb(240,108,85);stop-opacity:1"/><stop offset="1" style="stop-color:rgb(234,30,93);stop-opacity:1"/></linearGradient>        <linearGradient id="_Linear2" x1="0" y1="0" x2="1" y2="-0.0027008" gradientUnits="userSpaceOnUse" gradientTransform="matrix(-251.936,251.257,-251.936,-251.257,386.33,512.227)"><stop offset="0" style="stop-color:rgb(241,106,84);stop-opacity:1"/><stop offset="1" style="stop-color:rgb(243,142,62);stop-opacity:1"/></linearGradient>        <linearGradient id="_Linear3" x1="0" y1="0" x2="1" y2="0" gradientUnits="userSpaceOnUse" gradientTransform="matrix(256.684,-242.731,245.294,254.002,137.59,780.522)"><stop offset="0" style="stop-color:rgb(249,137,63);stop-opacity:1"/><stop offset="1" style="stop-color:rgb(253,184,19);stop-opacity:1"/></linearGradient>    </defs></svg>