<?xml version="1.0" encoding="UTF-8" standalone="no"?><!DOCTYPE svg PUBLIC "-//W3C//DTD SVG 1.1//EN" "http://www.w3.org/Graphics/SVG/1.1/DTD/svg11.dtd"><svg width="100%" height="100%" viewBox="0 0 512 512" version="1.1" xmlns="http://www.w3.org/2000/svg" xmlns:xlink="http://www.w3.org/1999/xlink" xml:space="preserve" style="fill-rule:evenodd;clip-rule:evenodd;stroke-linejoin:round;stroke-miterlimit:2;"><title>DFID</title><desc>The Department for International Development (DFID) leads the UK’s work to end extreme poverty. We are tackling the global challenges of our time including poverty and disease, mass migration, insecurity and conflict. Our work is building a safer, healthier, more prosperous world for people in developing countries and in the UK too.</desc>    <g transform="matrix(3.07824,0,0,3.07824,-1309.15,-465.56)">        <g transform="matrix(1,0,0,1,566.252,220.434)">            <path d="M0,27.098l0,-6.404c0,-5.491 0.944,-8.739 5.585,-8.739l5.237,0c0.841,0 2.101,0.739 2.101,2.268l0,13.613c0,1.995 -0.841,2.719 -2.06,2.788c-3.212,0.174 -8.551,0.06 -8.551,0.06c-2.359,0 -2.312,-2.948 -2.312,-3.586m-0.815,14.412l20.622,0c3.63,0 5.236,-2.347 5.236,-4.98l0,-1.631l0,-47.712c0,-0.877 -0.727,-1.599 -1.612,-1.599l-8.885,0c-0.89,0 -1.623,0.722 -1.623,1.599l0,14.382l-7.253,0c-11.522,0 -17.799,5.69 -17.799,18.71l0,11.489c0,6.714 4.206,9.742 11.314,9.742" style="fill:rgb(227,33,25);fill-rule:nonzero;"/>        </g>        <g transform="matrix(1,0,0,1,550.225,223.665)">            <path d="M0,36.894l0,-36.899c0,-0.88 -0.727,-1.601 -1.614,-1.601l-8.854,0c-0.887,0 -1.608,0.721 -1.608,1.601l0,36.899c0,0.882 0.721,1.606 1.608,1.606l8.854,0c0.887,0 1.614,-0.724 1.614,-1.606" style="fill:rgb(227,33,25);fill-rule:nonzero;"/>        </g>        <g transform="matrix(1,0,0,1,519.456,231.83)">            <path d="M0,20.438l-10.131,0c0,0 -2.214,-0.046 -2.214,-2.015l0,-2.466c0,-2.235 2.838,-3.844 5.019,-3.844l6.582,0c0,0 2.655,-0.043 2.655,2.281l0,4.301c0,0 0.104,1.743 -1.911,1.743m14.337,4.376l0,-24.597c0,-3.995 -4.092,-10.076 -11.435,-10.076l-22.219,0c0,0 -1.436,0 -1.436,1.417l0,7.237c0,0 -0.235,1.704 2.106,1.704l18.658,0c0,0 2.461,-0.123 2.461,1.276c0,1.705 0.098,2.098 -2.146,2.127c-2.18,0.031 -9.3,-0.183 -11.441,0.476c-4.773,1.083 -10.451,3.863 -10.64,10.929c0,8.511 0.012,8.001 0.012,8.843c0,0.835 0.131,6.147 8.717,6.147l23.511,0c1.099,0 3.852,-0.696 3.852,-5.483" style="fill:rgb(227,33,25);fill-rule:nonzero;"/>        </g>        <g transform="matrix(1,0,0,1,550.322,207.463)">            <path d="M0,8.705l0,-8.708c0,-0.882 -0.733,-1.598 -1.614,-1.598l-8.888,0c-0.893,0 -1.626,0.716 -1.626,1.598l0,8.708c0,0.88 0.733,1.601 1.626,1.601l8.888,0c0.881,0 1.614,-0.721 1.614,-1.601" style="fill:rgb(227,33,25);fill-rule:nonzero;"/>        </g>        <g transform="matrix(1,0,0,1,462.794,222.946)">            <path d="M0,39.055l5.363,0l0,-14.005l6.713,-6.216l14.572,20.221l6.788,0l-17.702,-23.865l17.027,-16.14l-6.971,0l-20.427,19.952l0,-19.952l-5.363,0l0,40.005Zm-4.647,-40.005l-5.383,0l0,25.553c0,7.063 -3.743,10.926 -10.543,10.926c-7.138,0 -11.219,-3.863 -11.219,-10.926l0,-25.553l-5.386,0l0,25.553c0,10.646 6.176,15.402 16.605,15.402c10.091,0 15.926,-5.311 15.926,-15.402l0,-25.553Z" style="fill:rgb(0,69,125);fill-rule:nonzero;"/>        </g>    </g></svg>