<?xml version="1.0" encoding="UTF-8" standalone="no"?><!DOCTYPE svg PUBLIC "-//W3C//DTD SVG 1.1//EN" "http://www.w3.org/Graphics/SVG/1.1/DTD/svg11.dtd"><svg width="100%" height="100%" viewBox="0 0 512 512" version="1.1" xmlns="http://www.w3.org/2000/svg" xmlns:xlink="http://www.w3.org/1999/xlink" xml:space="preserve" style="fill-rule:evenodd;clip-rule:evenodd;stroke-linejoin:round;stroke-miterlimit:2;"><title>Cogress</title><desc>Cogress is a leading property investment company. Founded in 2014, our aim was to connect investors with rigorously vetted property development investment opportunities, those normally reserved for the super-wealthy.</desc>    <g transform="matrix(8.55594,0,0,8.55594,-2098.48,1.06581)">        <path d="M257,59.6l-2.72,0c-2.652,-0.036 -4.814,-2.227 -4.814,-4.88c0,-0.772 0.183,-1.533 0.534,-2.22c0.029,-0.062 0.063,-0.122 0.1,-0.18l14.1,-24.23c0.612,-1.032 1.726,-1.667 2.925,-1.667c1.199,0 2.313,0.635 2.925,1.667l15.44,25.91c0.312,0.525 0.476,1.125 0.476,1.735c0,1.2 -0.634,2.313 -1.666,2.925c-0.889,0.512 -1.878,0.826 -2.9,0.92l-24.4,0l0,0.02Z" style="fill:rgb(255,147,59);fill-rule:nonzero;"/>        <path d="M282.58,59.13c-1.197,0.004 -2.311,-0.629 -2.92,-1.66l-15.44,-25.93c-0.314,-0.526 -0.481,-1.127 -0.481,-1.74c0,-1.86 1.531,-3.39 3.39,-3.39l30.401,0c1.867,0.005 3.4,1.543 3.4,3.41c0,0.013 0,0.027 0,0.04c-0.02,1.215 -0.347,2.405 -0.95,3.46l-1.42,2.48l-11.75,20.35l-0.05,0.08c-0.61,1.002 -1.458,1.837 -2.47,2.43c-0.517,0.308 -1.108,0.47 -1.71,0.47Z" style="fill:rgb(230,32,88);fill-rule:nonzero;"/>        <path d="M267.13,33.19c0,0 0,0 -0.001,0c-1.859,0 -3.39,-1.53 -3.39,-3.39c0,-0.613 0.167,-1.214 0.481,-1.74l15.45,-25.95c0.951,-1.594 3.043,-2.126 4.64,-1.18c0.95,0.563 1.755,1.34 2.35,2.27l0.09,0.15l13.38,23.18c0.059,0.104 0.113,0.21 0.16,0.32c0.432,0.94 0.651,1.965 0.64,3c-0.038,1.839 -1.561,3.33 -3.4,3.33l-30.4,0.01Z" style="fill:rgb(212,17,83);fill-rule:nonzero;"/>        <path d="M267.13,33.19c-1.201,0 -2.316,-0.642 -2.92,-1.68l-14.11,-24.2c-0.431,-0.744 -0.658,-1.588 -0.658,-2.447c0,-2.522 1.955,-4.65 4.468,-4.863l27.28,0c0.146,-0.01 0.294,-0.01 0.44,0c0.955,0.112 1.877,0.419 2.71,0.9c1.027,0.61 1.658,1.72 1.658,2.914c0,0.611 -0.165,1.211 -0.478,1.736l-15.44,26c-0.623,1.029 -1.747,1.654 -2.95,1.64Z" style="fill:rgb(169,24,83);fill-rule:nonzero;"/>    </g></svg>