<?xml version="1.0" encoding="UTF-8" standalone="no"?><!DOCTYPE svg PUBLIC "-//W3C//DTD SVG 1.1//EN" "http://www.w3.org/Graphics/SVG/1.1/DTD/svg11.dtd"><svg width="100%" height="100%" viewBox="0 0 512 512" version="1.1" xmlns="http://www.w3.org/2000/svg" xmlns:xlink="http://www.w3.org/1999/xlink" xml:space="preserve" style="fill-rule:evenodd;clip-rule:evenodd;stroke-linejoin:round;stroke-miterlimit:2;"><title>Socilen</title><desc>Participatory financing or crowdlending platform authorized by the CNMV with registration number 9, which connects individuals and companies with investors willing to finance them, thus opening an alternative way to traditional financing.</desc>    <g id="layer102" transform="matrix(2.15875,0,0,2.15875,-228.266,-86.3261)">        <path d="M282.8,271.6c-3,-2.8 -12.8,-11.8 -21.6,-19.9l-16,-14.9l3.5,-5.5c13.7,-21.5 12.6,-50.1 -2.9,-69.6c-2.1,-2.7 -5.1,-5.9 -6.6,-7.1c-1.5,-1.1 -3.3,-2.6 -4.1,-3.4c-1.8,-1.7 -11.6,-6.6 -16.4,-8.2c-2.9,-0.9 -3.7,-1.6 -3.2,-2.9c0.4,-0.9 1.3,-4.1 2.1,-7.1c0.8,-3 2.8,-9.6 4.5,-14.6l3,-9.2l6.2,1.4c9.3,2.2 12.4,3.3 21.7,7.7c42.5,20.3 63.8,65.1 54.5,114.3c-0.9,4.4 -2.3,10.2 -3.2,12.9c-2.5,7.6 -9.6,22.6 -12.9,27.2l-3,4l-5.6,-5.1Z" style="fill:rgb(16,52,108);fill-rule:nonzero;"/>        <path d="M186.7,135.8c-6,-1.3 -18.6,-6.8 -24.7,-10.7c-7.5,-4.9 -13,-10.6 -17.3,-17.9c-4.6,-7.9 -5.7,-11.9 -5.7,-21.8c0,-9.5 2.1,-16.5 7.7,-25.7c4.8,-8.1 16.8,-20.1 19.1,-19.2c2.7,1 19.2,10.9 19.2,11.5c0,0.3 -1.7,2.3 -3.6,4.5c-6,6.6 -8.4,12.4 -8.4,20.3c0,5.8 0.4,7.5 2.8,11.3c5,7.8 11.7,12.7 21.4,15.6c4,1.1 4.8,1.8 4.3,3.1c-0.4,0.9 -1.1,2.9 -1.5,4.4c-0.5,1.4 -2.6,7.3 -4.8,13c-2.2,5.7 -4.2,10.8 -4.4,11.4c-0.2,0.7 -1.6,0.7 -4.1,0.2Z" style="fill:rgb(16,52,108);fill-rule:nonzero;"/>        <g transform="matrix(1.04428,-0.282813,0.29254,1.0802,-61.1376,56.855)">            <ellipse cx="195.5" cy="182" rx="38.5" ry="34" style="fill:rgb(195,40,39);"/>        </g>        <g transform="matrix(0.771512,-0.146396,0.113775,0.599595,47.7549,-11.2558)">            <ellipse cx="195.5" cy="182" rx="38.5" ry="34" style="fill:rgb(16,52,108);"/>        </g>    </g></svg>