<?xml version="1.0" encoding="UTF-8" standalone="no"?><!DOCTYPE svg PUBLIC "-//W3C//DTD SVG 1.1//EN" "http://www.w3.org/Graphics/SVG/1.1/DTD/svg11.dtd"><svg width="100%" height="100%" viewBox="0 0 512 512" version="1.1" xmlns="http://www.w3.org/2000/svg" xmlns:xlink="http://www.w3.org/1999/xlink" xml:space="preserve" style="fill-rule:evenodd;clip-rule:evenodd;stroke-linejoin:round;stroke-miterlimit:2;"><title>Moneyfarm</title><desc>Moneyfarm launched in 2012 to bring together the worlds of technology and finance to deliver an investment service that protects and increases an individual’s wealth over time. Moneyfarm now has three offices in London, Milan and Cagliari and all share a passion for providing a better investment experience.</desc>    <g id="Moneyfarm" transform="matrix(11.8764,0,0,11.8571,0.996731,42.9956)">        <path id="Fill-19" d="M41.29,5.852c-0.911,0 -1.651,0.74 -1.651,1.652c0,0.201 0.041,0.392 0.107,0.57l-5.247,5.052l-0.422,0.407l-7.02,6.76c-0.194,-0.081 -0.408,-0.126 -0.632,-0.126c-0.284,0 -0.549,0.079 -0.782,0.205l-7.531,-5.857c0.032,-0.13 0.055,-0.264 0.055,-0.405c0,-0.911 -0.739,-1.652 -1.652,-1.652c-0.91,0 -1.651,0.741 -1.651,1.652c0,0.202 0.042,0.391 0.108,0.57l-12.689,12.22c-0.195,-0.082 -0.408,-0.127 -0.632,-0.127c-0.911,0 -1.651,0.74 -1.651,1.651c0,0.912 0.74,1.653 1.651,1.653c0.913,0 1.652,-0.741 1.652,-1.653c0,-0.201 -0.041,-0.391 -0.107,-0.569l2.13,-2.052l3.538,-3.407l7.021,-6.76c0.194,0.081 0.407,0.126 0.63,0.126c0.285,0 0.549,-0.078 0.783,-0.205l7.532,5.856c-0.033,0.131 -0.056,0.265 -0.056,0.404c0,0.914 0.74,1.652 1.651,1.652c0.913,0 1.651,-0.738 1.651,-1.652c0,-0.2 -0.04,-0.39 -0.106,-0.568l12.689,-12.219c0.194,0.081 0.407,0.126 0.631,0.126c0.914,0 1.652,-0.739 1.652,-1.652c0,-0.912 -0.738,-1.652 -1.652,-1.652" style="fill:rgb(38,47,58);"/>        <path id="Fill-21" d="M34.81,17.21c0.014,0.251 0.038,0.5 0.038,0.754c0,7.376 -6,13.377 -13.377,13.377c-5.127,0 -9.583,-2.902 -11.828,-7.147l-3.397,3.272c3.174,5.075 8.797,8.462 15.225,8.462c9.921,0 17.965,-8.042 17.965,-17.964c0,-1.597 -0.23,-3.138 -0.621,-4.611l-4.005,3.857Z" style="fill:rgb(38,47,58);"/>        <path id="Fill-23" d="M8.132,18.72c-0.013,-0.252 -0.038,-0.5 -0.038,-0.755c0,-7.377 6.001,-13.377 13.377,-13.377c5.127,0 9.583,2.901 11.828,7.146l3.398,-3.271c-3.174,-5.075 -8.798,-8.463 -15.226,-8.463c-9.921,0 -17.964,8.043 -17.964,17.965c0,1.597 0.229,3.137 0.62,4.612l4.005,-3.857Z" style="fill:rgb(38,47,58);"/>    </g></svg>