<?xml version="1.0" encoding="UTF-8" standalone="no"?><!DOCTYPE svg PUBLIC "-//W3C//DTD SVG 1.1//EN" "http://www.w3.org/Graphics/SVG/1.1/DTD/svg11.dtd"><svg width="100%" height="100%" viewBox="0 0 512 512" version="1.1" xmlns="http://www.w3.org/2000/svg" xmlns:xlink="http://www.w3.org/1999/xlink" xml:space="preserve" style="fill-rule:evenodd;clip-rule:evenodd;stroke-linejoin:round;stroke-miterlimit:2;"><title>Kviku</title><desc>Kviku - an online B2B / B2C credit platform providing instant credit solutions;Countries of presence - Russia, Kazakhstan, Spain. In 2019 plan - Poland, Vietnam, Philippines;Main products - new customers: POS and virtual credit cards, repeat customers: installment loans (cash loans).--Kviku is a point of sale loan provider with operations in Russia, Kazakhstan and Spain. The company offers loans from EUR 15 to EUR 1500 with a term of up to 12 months. Since incorporation the company has issued and serviced more than 400’000 loans, worth more than EUR 20 million. Kviku loan portfolio has grown to EUR 8.5 million while the revenue has exceeded EUR 13 million in 2018.</desc>    <g transform="matrix(1.46136,0,0,1.51483,-1149.95,-238.518)">        <path d="M906.48,472.014c-1.21,-0.453 -2.396,-0.868 -3.48,-1.214c-26.5,-9.1 -52.8,-27.9 -68.8,-49.3c-9.224,-12.265 -17.388,-30.885 -21.449,-48.5l-0.251,-1c-2.6,-11.5 -3.1,-43.3 -1.1,-58.5c5.6,-40.1 17.9,-73.9 35.1,-96.1l4.4,-5.6l-3.4,-4.4c-10.3,-13.4 -5.1,-31.3 11.5,-39.9c5.4,-2.9 15.1,-2.5 22.3,0.8c3.2,1.4 7.7,4 10,5.7l4.3,3.1l10.5,-3.5c13.6,-4.6 28,-6.9 38.6,-6.3c8,0.5 8.2,0.4 11,-2.5c8.7,-9.3 24.6,-8.8 32,0.9c3.8,5 4.3,13.1 1.3,19.6c-1.2,2.6 -2.6,5 -3.1,5.3c-0.5,0.3 3.5,5.5 8.7,11.7c15.1,17.7 23.4,33 23.4,43.2c0,6 -3.8,15.9 -9.1,23.5c-5,7.3 -7.4,14 -5,14c0.6,0 4,-1.4 7.4,-3.2c5,-2.5 7.5,-3.2 12.7,-3.2c8.8,-0.1 14.4,3.1 18.6,10.6c2.7,5 2.9,6 2.9,16.3c0,8.9 -0.5,12.3 -2.3,17.5c-2.8,7.9 -8.6,17.8 -14.8,25.4l-4.6,5.8l1.6,3.6c1.6,3.6 1.8,3.7 6.3,3.3c5.6,-0.4 14.3,1.4 19.8,4.1c5.4,2.7 12.8,8.3 25.7,19.5c14.1,12.1 17.2,13.7 25.6,12.9c8.4,-0.9 11.2,0.7 11.2,6.3c0,6.8 -9,21.3 -22.9,37.2c-5.467,6.163 -13.404,10.844 -18.6,10.9l-3.2,0l-0.6,7.3c-1.3,15.6 -7.2,25 -19,30.6c-12.1,5.6 -31.8,8 -53.7,6.4c-31.6,-2.2 -61.5,-8.9 -78.2,-17.4c-2.577,-1.325 -6.835,-3.193 -10.8,-4.689l-0.52,-0.197Z" style="fill:rgb(10,2,5);"/>        <path d="M1037,423.9c3.6,-0.5 7.6,-1.6 9,-2.2c2.3,-1.2 2.5,-1.8 2.4,-7.2c-0.1,-7.9 -1.7,-10.8 -12.6,-22.3c-11.6,-12.3 -17.7,-21 -24.4,-34.6c-3,-6 -5.6,-11.2 -5.9,-11.4c-0.2,-0.2 -1.8,2.5 -3.6,5.9c-9.9,19.8 -26.7,37.3 -46.9,49l-7.9,4.6l6.7,2.6c3.7,1.4 11,4.3 16.2,6.5c5.2,2.1 12.6,4.7 16.4,5.6c16.1,4.1 38,5.6 50.6,3.5Z" style="fill:white;"/>        <path d="M867.1,218c-6.705,0.004 -7.235,0.454 -15.1,12.5c-9.6,14.8 -19.1,37.7 -23.1,55.8l-1.2,5.8l3.9,4.1c13.9,14.5 33.9,26.2 51.9,30.4c9.2,2.1 24.4,1.3 32.7,-1.8c3.6,-1.4 10.2,-4.7 14.5,-7.4l7.8,-4.9l-7,-0.8c-13.3,-1.5 -21.6,-3.6 -29.3,-7.3c-12.5,-6 -22.8,-17.3 -24.8,-27.2c-1,-5 1.9,-4.1 6.4,2.1c6.2,8.4 12.2,13.5 20.2,17.5l7.4,3.7l14.1,0c12.7,0 15.1,-0.3 25.9,-3.3c6.6,-1.8 12.9,-3.8 14,-4.4c1.9,-1 1.8,-1.2 -1.7,-2.4c-2.1,-0.7 -5.2,-2.3 -6.8,-3.5c-4.9,-3.5 -2.4,-4.4 8,-2.9c9.7,1.4 20,1 24.2,-1c1.4,-0.6 3.3,-2.4 4.2,-4l1.7,-2.8l-5.4,-0.4c-6.9,-0.6 -10.6,-2.9 -10.6,-6.6c0,-6.2 10.9,-11.9 20.1,-10.7l4.6,0.6l1,-4l1.1,-4l-4.4,-2.2c-5.3,-2.5 -10.6,-8.4 -14.5,-16.1c-4,-7.9 -4.6,-12.7 -2.1,-15.8c2,-2.5 2.1,-2.5 6.6,-0.9l4.6,1.6l-2.9,-3.6c-1.6,-2 -9,-9.5 -16.3,-16.8c-15.2,-15 -19.8,-17.7 -31.3,-18.8c-13.3,-1.3 -33.8,3.3 -48.2,10.8c-6.4,3.3 -9.9,7.2 -20.2,22.5l-4.2,6.2l-5.8,0Z" style="fill:white;"/>        <g transform="matrix(0.462046,0,0,0.303763,412.611,338.371)">            <path d="M1028.88,337.2c0,-18.106 6.492,-44.442 15.15,-60.903c5.627,-10.863 5.41,-14.155 -0.433,-12.18c-9.956,2.963 -47.831,-5.926 -64.496,-14.814c-22.509,-12.181 -38.741,-27.324 -56.921,-53.002c-13.635,-19.423 -14.717,-20.411 -11.254,-9.876c13.635,40.492 42.204,92.506 66.876,121.476c12.337,14.485 46.316,46.418 49.346,46.418c0.866,0 1.732,-7.901 1.732,-17.119Z" style="fill:white;"/>        </g>        <path d="M931.5,265.7c-9.9,-3.9 -12,-10.9 -6.7,-22.2c5,-10.6 19.2,-23.5 25.7,-23.5c6.3,0 9.6,8.2 7.6,19.4c-2.1,12.7 -7.9,22.3 -15.6,25.7c-4.6,2.1 -6.8,2.2 -11,0.6Z" style="fill:rgb(10,2,5);fill-rule:nonzero;"/>    </g></svg>