<?xml version="1.0" encoding="UTF-8" standalone="no"?><!DOCTYPE svg PUBLIC "-//W3C//DTD SVG 1.1//EN" "http://www.w3.org/Graphics/SVG/1.1/DTD/svg11.dtd"><svg width="100%" height="100%" viewBox="0 0 512 512" version="1.1" xmlns="http://www.w3.org/2000/svg" xmlns:xlink="http://www.w3.org/1999/xlink" xml:space="preserve" style="fill-rule:evenodd;clip-rule:evenodd;stroke-linejoin:round;stroke-miterlimit:2;"><title>The Crowd Angel</title><desc>The Crowd Angel is the leading investment vehicle for early-stage startupsOur mission is to apply the risk capital methodology to equity crowdfunding. And allow private investors to participate in financing rounds of the best Spanish startups, investing from € 3,000.</desc>    <g transform="matrix(7.33665,0,0,7.33665,-339.436,-2864.54)">        <g transform="matrix(2,0,0,2,65.5541,450.517)">            <path d="M-4.788,-4.788c-2.645,0 -4.788,2.143 -4.788,4.788c0,2.644 2.143,4.788 4.788,4.788c2.644,0 4.788,-2.144 4.788,-4.788c0,-2.645 -2.144,-4.788 -4.788,-4.788Z" style="fill:rgb(58,58,58);"/>        </g>        <g transform="matrix(2,0,0,2,65.5541,450.517)">            <path d="M7.803,-4.788c-2.645,0 -4.788,2.143 -4.788,4.788c0,2.644 2.143,4.788 4.788,4.788c2.644,0 4.787,-2.144 4.787,-4.788c0,-2.645 -2.143,-4.788 -4.787,-4.788Z" style="fill:rgb(58,58,58);"/>        </g>        <g transform="matrix(2,0,0,2,65.5541,450.517)">            <path d="M20.393,-4.788c-2.644,0 -4.788,2.143 -4.788,4.788c0,2.644 2.144,4.788 4.788,4.788c2.645,0 4.788,-2.144 4.788,-4.788c0,-2.645 -2.143,-4.788 -4.788,-4.788Z" style="fill:rgb(58,58,58);"/>        </g>        <g transform="matrix(2,0,0,2,65.5541,450.517)">            <path d="M-4.788,-17.379c-2.645,0 -4.788,2.143 -4.788,4.788c0,2.644 2.143,4.788 4.788,4.788c2.644,0 4.788,-2.144 4.788,-4.788c0,-2.645 -2.144,-4.788 -4.788,-4.788Z" style="fill:rgb(58,58,58);"/>        </g>        <g transform="matrix(2,0,0,2,65.5541,450.517)">            <path d="M7.803,-17.379c-2.645,0 -4.788,2.143 -4.788,4.788c0,2.644 2.143,4.788 4.788,4.788c2.644,0 4.787,-2.144 4.787,-4.788c0,-2.645 -2.143,-4.788 -4.787,-4.788Z" style="fill:rgb(58,58,58);"/>        </g>        <g transform="matrix(2,0,0,2,65.5541,450.517)">            <path d="M20.393,-17.379c-2.644,0 -4.788,2.143 -4.788,4.788c0,2.644 2.144,4.788 4.788,4.788c2.645,0 4.788,-2.144 4.788,-4.788c0,-2.645 -2.143,-4.788 -4.788,-4.788Z" style="fill:rgb(58,58,58);"/>        </g>        <g transform="matrix(2,0,0,2,65.5541,450.517)">            <path d="M0,-25.182c0,2.645 -2.144,4.788 -4.788,4.788c-2.645,0 -4.788,-2.143 -4.788,-4.788c0,-2.643 2.143,-4.788 4.788,-4.788c2.644,0 4.788,2.145 4.788,4.788Z" style="fill:rgb(58,58,58);"/>        </g>        <g transform="matrix(2,0,0,2,65.5541,450.517)">            <path d="M7.803,-29.97c-2.645,0 -4.788,2.145 -4.788,4.788c0,2.645 2.143,4.788 4.788,4.788c2.644,0 4.787,-2.143 4.787,-4.788c0,-2.643 -2.143,-4.788 -4.787,-4.788Z" style="fill:rgb(58,58,58);"/>        </g>        <g transform="matrix(2,0,0,2,115.916,461.905)">            <path d="M0,-30.876c0,2.645 -2.143,4.788 -4.788,4.788c-2.644,0 -4.788,-2.143 -4.788,-4.788c0,-2.643 2.144,-4.788 4.788,-4.788c2.645,0 4.788,2.145 4.788,4.788Z" style="fill:rgb(150,191,45);"/>        </g>    </g></svg>