<?xml version="1.0" encoding="UTF-8" standalone="no"?><!DOCTYPE svg PUBLIC "-//W3C//DTD SVG 1.1//EN" "http://www.w3.org/Graphics/SVG/1.1/DTD/svg11.dtd"><svg width="100%" height="100%" viewBox="0 0 512 512" version="1.1" xmlns="http://www.w3.org/2000/svg" xmlns:xlink="http://www.w3.org/1999/xlink" xml:space="preserve" style="fill-rule:evenodd;clip-rule:evenodd;stroke-linejoin:round;stroke-miterlimit:2;"><title>Crowdestor</title><desc>Crowdestor give everyone the opportunity to invest directly in real estate and business projects without the middlemen and hidden conditions or costs. With Crowdestor you can start investing from 50€ with annual interest rate from 15%. There are two type of crowdfunding models Crowdestor offer: - Classic Crowdfunding: way of raising capital for business from multiple investors by secure of pledge on it. - Equity Crowdfunding: way of raising capital for business from multiple investors by selling parts of it off.</desc>    <g transform="matrix(6.03206,0,0,6.03206,-155.663,-517.31)">        <path d="M110.52,102.53c-0.218,-8.819 -7.533,-15.956 -16.355,-15.956c-8.822,0 -16.137,7.137 -16.355,15.956l0,0.39l-20.59,5.48c-2.641,-5.843 -8.486,-9.615 -14.898,-9.615c-8.97,0 -16.35,7.381 -16.35,16.35c0,8.97 7.38,16.35 16.35,16.35c2.476,0 4.921,-0.562 7.148,-1.645l16.43,16.43c-1.128,2.232 -1.717,4.699 -1.72,7.2c0.002,8.973 7.387,16.356 16.36,16.356c8.975,0 16.36,-7.386 16.36,-16.36c0,-5.467 -2.74,-10.585 -7.29,-13.616l5.63,-21.05c8.544,-0.531 15.286,-7.71 15.28,-16.27Zm-30,34.59c-3.886,0.001 -7.649,1.375 -10.62,3.88l-15.18,-15.15c2.593,-2.967 4.016,-6.78 4,-10.72l0,-0.31l20.58,-5.56c1.823,4.077 5.252,7.224 9.47,8.69l-5.24,19.49c-0.983,-0.188 -1.98,-0.295 -2.98,-0.32l-0.03,0Z" style="fill:rgb(254,224,0);fill-rule:nonzero;"/>    </g></svg>