<?xml version="1.0" encoding="UTF-8" standalone="no"?><!DOCTYPE svg PUBLIC "-//W3C//DTD SVG 1.1//EN" "http://www.w3.org/Graphics/SVG/1.1/DTD/svg11.dtd"><svg width="100%" height="100%" viewBox="0 0 512 512" version="1.1" xmlns="http://www.w3.org/2000/svg" xmlns:xlink="http://www.w3.org/1999/xlink" xml:space="preserve" style="fill-rule:evenodd;clip-rule:evenodd;stroke-linejoin:round;stroke-miterlimit:2;"><title>iuvo</title><desc>We, at iuvo, are a group of young entrepreneurs who wish to re-define the way people manage their money, invest and get access to credit.Our team consists of experts in the financial services, consulting and IT industries with great passion for innovation. We have been following the fintech and crowdfunding industries very closely in the past few years and decided it’s time to join the game and offer our take on a successful business model which adds value for both investors and lenders.</desc>    <g transform="matrix(4.63636,0,0,4.63636,-40.7273,-40.7273)">        <path d="M9.22,40.9l26.1,15.68l28.68,-16.56l-26.79,-15.47l-27.99,16.17l0,0.18Z" style="fill:rgb(155,202,80);fill-rule:nonzero;"/>        <path d="M64,9l-26.79,15.46l26.79,15.47l26.79,-15.47l-26.79,-15.46Z" style="fill:rgb(177,209,71);fill-rule:nonzero;"/>        <path d="M9.22,71.56l26.1,-15.07l-26.1,-15.68l0,30.75Z" style="fill:rgb(129,197,84);fill-rule:nonzero;"/>        <path d="M118.78,40.9l-26.1,15.68l-28.68,-16.56l26.79,-15.47l27.99,16.17l0,0.18Z" style="fill:rgb(155,202,80);fill-rule:nonzero;"/>        <path d="M118.78,71.73l-26.1,-15.06l26.1,-15.68l0,30.74Z" style="fill:rgb(129,197,84);fill-rule:nonzero;"/>        <path d="M9.22,103.32l26.1,15.68l28.68,-16.56l-26.79,-15.46l-27.99,16.16l0,0.18Z" style="fill:rgb(0,165,88);fill-rule:nonzero;"/>        <path d="M64,71.42l-26.79,15.47l26.79,15.46l26.79,-15.46l-26.79,-15.47Z" style="fill:rgb(7,178,91);fill-rule:nonzero;"/>        <path d="M118.78,103.32l-26.1,15.68l-28.68,-16.56l26.79,-15.46l27.99,16.16l0,0.18Z" style="fill:rgb(0,165,88);fill-rule:nonzero;"/>    </g></svg>