<?xml version="1.0" encoding="UTF-8" standalone="no"?><!DOCTYPE svg PUBLIC "-//W3C//DTD SVG 1.1//EN" "http://www.w3.org/Graphics/SVG/1.1/DTD/svg11.dtd"><svg width="100%" height="100%" viewBox="0 0 512 512" version="1.1" xmlns="http://www.w3.org/2000/svg" xmlns:xlink="http://www.w3.org/1999/xlink" xml:space="preserve" style="fill-rule:evenodd;clip-rule:evenodd;stroke-linejoin:round;stroke-miterlimit:2;"><title>Folk2Folk</title><desc>FOLK2FOLK introduces credit-worthy businesses looking for interest-only finance to grow, develop or diversify to individuals seeking a great return on their capital secured against property.</desc>    <g transform="matrix(5.08861,0,0,3.7197,-1015.24,-1602.15)">        <g transform="matrix(2.94489,0,0,4.04808,199.708,520.993)">            <path d="M0,-10.261c0,-0.846 0.454,-1.269 1.362,-1.269l6.623,0c0.746,0 1.119,0.336 1.119,1.008c0,0.236 -0.037,0.451 -0.112,0.643c-0.074,0.193 -0.13,0.321 -0.168,0.383l-6.567,0l0,3.395l5.187,0c0.746,0 1.119,0.336 1.119,1.008c0,0.236 -0.037,0.451 -0.112,0.643c-0.074,0.193 -0.13,0.321 -0.168,0.383l-6.026,0l0,5.336l-2.257,0l0,-11.53Z" style="fill:rgb(11,51,97);fill-rule:nonzero;"/>        </g>        <g transform="matrix(2.94489,0,0,4.04808,236.305,480.586)">            <path d="M0,9.366c0.174,-0.112 0.454,-0.301 0.84,-0.569c0.385,-0.267 0.805,-0.566 1.259,-0.896c0.454,-0.329 0.905,-0.665 1.352,-1.007c0.448,-0.342 0.821,-0.65 1.12,-0.924c0.721,-0.646 1.275,-1.252 1.66,-1.818c0.385,-0.566 0.579,-1.197 0.579,-1.894c0,-0.299 -0.054,-0.581 -0.159,-0.849c-0.106,-0.267 -0.267,-0.507 -0.485,-0.718c-0.218,-0.211 -0.498,-0.379 -0.839,-0.504c-0.343,-0.124 -0.75,-0.186 -1.223,-0.186c-0.472,0 -0.88,0.068 -1.222,0.205c-0.342,0.137 -0.628,0.298 -0.858,0.485c-0.23,0.186 -0.41,0.379 -0.541,0.578c-0.13,0.199 -0.221,0.355 -0.27,0.467c-0.112,-0.025 -0.234,-0.069 -0.364,-0.131c-0.131,-0.062 -0.255,-0.143 -0.373,-0.243c-0.118,-0.099 -0.218,-0.214 -0.299,-0.345c-0.081,-0.13 -0.121,-0.276 -0.121,-0.438c0,-0.187 0.034,-0.364 0.103,-0.532c0.068,-0.168 0.152,-0.32 0.251,-0.457c0.063,-0.087 0.184,-0.214 0.364,-0.382c0.18,-0.168 0.429,-0.333 0.746,-0.495c0.318,-0.161 0.703,-0.301 1.157,-0.419c0.454,-0.119 0.992,-0.178 1.614,-0.178c0.783,0 1.474,0.103 2.071,0.308c0.597,0.205 1.097,0.485 1.502,0.84c0.404,0.354 0.709,0.774 0.914,1.259c0.205,0.485 0.308,1.007 0.308,1.567c0,0.436 -0.05,0.84 -0.15,1.213c-0.099,0.373 -0.23,0.715 -0.391,1.026c-0.162,0.311 -0.345,0.6 -0.551,0.867c-0.205,0.268 -0.413,0.52 -0.625,0.756c-0.211,0.236 -0.504,0.519 -0.876,0.849c-0.374,0.329 -0.759,0.656 -1.157,0.979c-0.398,0.324 -0.778,0.622 -1.138,0.896c-0.361,0.273 -0.628,0.472 -0.803,0.597l5.784,0l0,1.977l-9.179,0l0,-1.884Z" style="fill:rgb(11,51,97);fill-rule:nonzero;"/>        </g>        <g transform="matrix(2.94489,0,0,4.04808,273.122,520.993)">            <path d="M0,-10.261c0,-0.846 0.454,-1.269 1.362,-1.269l6.623,0c0.746,0 1.119,0.336 1.119,1.008c0,0.236 -0.037,0.451 -0.112,0.643c-0.074,0.193 -0.13,0.321 -0.168,0.383l-6.567,0l0,3.395l5.187,0c0.746,0 1.119,0.336 1.119,1.008c0,0.236 -0.037,0.451 -0.112,0.643c-0.074,0.193 -0.13,0.321 -0.168,0.383l-6.026,0l0,5.336l-2.257,0l0,-11.53Z" style="fill:rgb(11,51,97);fill-rule:nonzero;"/>        </g>    </g></svg>