<?xml version="1.0" encoding="UTF-8" standalone="no"?><!DOCTYPE svg PUBLIC "-//W3C//DTD SVG 1.1//EN" "http://www.w3.org/Graphics/SVG/1.1/DTD/svg11.dtd"><svg width="100%" height="100%" viewBox="0 0 512 512" version="1.1" xmlns="http://www.w3.org/2000/svg" xmlns:xlink="http://www.w3.org/1999/xlink" xml:space="preserve" style="fill-rule:evenodd;clip-rule:evenodd;stroke-linecap:round;stroke-linejoin:round;stroke-miterlimit:1.5;"><title>Kensington Crowd</title><desc>Kensington Family Office AG concentrates on the selection and acquisition of real estate projects and selected start-up companies. The Kensington Crowd investment platform offers investors the opportunity to use their money in the form of inter- est-bearing subordinated loans to finance real estate projects and young companies.</desc>    <g transform="matrix(1.0119,0,0,1.0119,-345.071,-179.119)">        <g transform="matrix(0.959525,0,0,0.976744,34.0728,15.8605)">            <rect x="324" y="166" width="517.819" height="516" style="fill:white;stroke:black;stroke-width:0.92px;"/>        </g>        <path d="M345.7,681.3c-0.6,-0.6 -1.1,-84.3 -0.4,-84.3c0.1,0 3.4,0.7 7.2,1.5c25.7,5.7 36.1,6.8 61.5,6.9c29.4,0 54.9,-3.3 87.9,-11.3c37.8,-9.3 79.1,-25.6 112.5,-44.5c5.4,-3.1 10,-5.6 10.2,-5.6c1.4,0 38.3,-24.1 50.9,-33.2c17.5,-12.8 26.2,-19.1 27.5,-20.1c0.8,-0.7 4.9,-3.7 9,-6.7c4.1,-3 7.7,-5.7 8,-6c0.3,-0.3 7.3,-5.9 15.5,-12.5c8.3,-6.6 15.2,-12.2 15.5,-12.5c0.3,-0.3 3.4,-3 7,-6c28.3,-23.9 62.8,-58.2 77.8,-77.2c2.5,-3.2 4.9,-5.8 5.4,-5.8c0.4,0 0.7,71.3 0.6,158.8l-0.3,158.7l-47.7,0.3l-47.8,0.2l0,-107.5c0,-59.1 -0.3,-107.5 -0.6,-107.5c-0.5,0 -8.2,5.7 -9.4,7c-2.6,2.8 -42.2,32.5 -55.7,41.9l-6.3,4.4l-0.2,80.6l-0.3,80.6l-2.8,0l-2.7,0l0,-78.2c0,-43.1 -0.2,-78.3 -0.4,-78.3c-0.2,0 -4,2.4 -8.3,5.4c-15.4,10.6 -41.6,26 -56.5,33.3l-6.8,3.3l-0.2,57.2l-0.3,57.3l-2.7,0.3c-1.8,0.2 -2.8,-0.1 -2.8,-1l0,-55.5c0,-29.9 -0.4,-54.3 -0.9,-54.3c-0.5,0 -3.5,1.2 -6.7,2.6c-3.3,1.4 -6.8,3 -7.9,3.4c-1.1,0.5 -4.9,2.1 -8.5,3.5c-3.6,1.4 -7.4,3 -8.5,3.5c-2.8,1.3 -26.7,9.5 -33.6,11.5l-5.6,1.6l-0.7,11.2c-0.4,6.2 -0.6,25.2 -0.6,42.2l0.1,31l-2.8,0l-2.8,0l-0.3,-41.3c-0.2,-38.7 -0.3,-41.3 -2,-40.8c-11,3.4 -40.2,8.9 -58.2,10.9l-11.5,1.3l-0.2,34.9l-0.2,35l-46.4,0.3c-25.5,0.1 -46.7,-0.1 -47,-0.5Z" style="fill:rgb(208,207,208);fill-rule:nonzero;"/>        <path d="M344.5,178l498.389,0l0,142.436l0.611,-0.621l0,22.851c-94.218,98.248 -310.485,207.194 -413.905,205.001c-35.58,-0.754 -63.378,-8.302 -85.095,-20.744l0,-348.923Zm166.5,333.4l0,-124.4l-71.697,64l0,74.546c20.946,-1.416 45.322,-6.379 71.697,-14.146Zm78.697,-28.809l0,-273.591l-71.697,63l0,237.287c22.828,-7.053 47.024,-16.106 71.697,-26.696Zm5.303,-2.297c23.782,-10.39 47.945,-22.171 71.697,-34.931l0,-131.363l-71.697,-62l0,228.294Zm78,-38.345c12.913,-7.053 25.682,-14.386 38.18,-21.933l-38.18,-33.016l0,54.949Z" style="fill:rgb(31,96,80);"/>    </g></svg>