<?xml version="1.0" encoding="UTF-8" standalone="no"?><!DOCTYPE svg PUBLIC "-//W3C//DTD SVG 1.1//EN" "http://www.w3.org/Graphics/SVG/1.1/DTD/svg11.dtd"><svg width="100%" height="100%" viewBox="0 0 512 512" version="1.1" xmlns="http://www.w3.org/2000/svg" xmlns:xlink="http://www.w3.org/1999/xlink" xml:space="preserve" style="fill-rule:evenodd;clip-rule:evenodd;stroke-linejoin:round;stroke-miterlimit:2;"><title>PrêtStory</title><desc>PrêtStory allows entrepreneurs to present their project and promote their loan application!</desc>    <g id="Story" transform="matrix(4.87619,0,0,4.87619,14.0908,-127.645)">        <path d="M45.583,26.524c-1.927,0.139 -3.553,0.34 -5.083,0.626c-0.504,0.095 -1.455,0.269 -2.113,0.388c-0.658,0.119 -1.252,0.272 -1.32,0.339c-0.067,0.068 -0.294,0.123 -0.504,0.123c-0.209,-0 -0.553,0.068 -0.763,0.152c-0.211,0.083 -0.833,0.276 -1.383,0.43c-1.063,0.295 -1.79,0.531 -2.334,0.756c-0.183,0.076 -0.774,0.296 -1.314,0.49c-0.966,0.346 -1.867,0.727 -3.197,1.353c-0.372,0.175 -0.76,0.319 -0.861,0.319c-0.101,-0 -0.208,0.056 -0.239,0.125c-0.03,0.069 -0.58,0.396 -1.222,0.727c-1.969,1.017 -4.163,2.337 -5.167,3.108c-0.091,0.071 -0.579,0.425 -1.083,0.787c-0.504,0.362 -0.954,0.703 -1,0.756c-0.046,0.054 -0.383,0.319 -0.75,0.589c-1.82,1.341 -5.9,5.423 -7.327,7.331c-0.272,0.363 -0.577,0.746 -0.678,0.85c-0.102,0.105 -0.554,0.742 -1.006,1.417c-0.452,0.675 -0.879,1.252 -0.947,1.282c-0.069,0.031 -0.125,0.124 -0.125,0.207c0,0.083 -0.324,0.658 -0.719,1.278c-0.396,0.619 -1.014,1.726 -1.375,2.46c-0.361,0.733 -0.713,1.358 -0.781,1.389c-0.069,0.03 -0.125,0.162 -0.125,0.292c0,0.13 -0.188,0.626 -0.417,1.101c-0.229,0.475 -0.417,0.962 -0.417,1.082c0,0.121 -0.075,0.219 -0.166,0.219c-0.092,-0 -0.169,0.131 -0.172,0.292c-0.007,0.337 -0.561,1.996 -0.72,2.156c-0.06,0.059 -0.108,0.278 -0.108,0.487c0,0.208 -0.067,0.42 -0.148,0.47c-0.081,0.05 -0.188,0.298 -0.238,0.551c-0.05,0.253 -0.216,1.023 -0.369,1.711c-0.511,2.297 -0.6,2.743 -0.76,3.833c-0.73,4.969 -0.655,8.944 0.267,14.167c0.425,2.408 1.655,6.615 2.423,8.29c0.179,0.388 0.325,0.751 0.325,0.806c0,0.145 2.05,4.304 2.17,4.404c0.055,0.045 0.533,0.795 1.061,1.666c2.489,4.105 6.048,8.141 10.079,11.429c0.216,0.177 0.479,0.399 0.583,0.494c0.105,0.095 0.49,0.395 0.857,0.666c0.366,0.271 0.704,0.538 0.75,0.594c0.045,0.055 0.158,0.131 0.25,0.168c0.091,0.037 1.066,0.659 2.164,1.383c2.042,1.344 5.673,3.297 7.169,3.855c0.458,0.171 1.079,0.446 1.38,0.611c0.301,0.165 0.68,0.3 0.842,0.3c0.162,-0 0.366,0.06 0.453,0.133c0.087,0.073 0.608,0.268 1.158,0.433c0.55,0.166 1.131,0.368 1.29,0.451c0.159,0.082 0.404,0.15 0.544,0.15c0.14,-0 0.384,0.072 0.544,0.16c0.281,0.156 1.447,0.447 2.456,0.613c0.275,0.046 0.65,0.148 0.833,0.228c0.183,0.08 0.596,0.185 0.917,0.234c6.44,0.987 9.514,1.165 14.69,0.854c2.093,-0.127 2.311,-0.112 2.75,0.181c0.262,0.175 0.926,0.542 1.476,0.815c0.55,0.273 1.038,0.534 1.084,0.581c0.045,0.046 0.57,0.329 1.166,0.628c1.106,0.556 3.145,1.634 5.656,2.991c1.603,0.866 4.051,2.155 5.761,3.033c0.642,0.329 1.204,0.637 1.25,0.683c0.046,0.046 0.683,0.381 1.417,0.745c0.733,0.363 1.37,0.701 1.416,0.749c0.046,0.049 0.534,0.313 1.084,0.587c0.55,0.275 1.037,0.537 1.083,0.584c0.069,0.07 2.116,1.123 2.538,1.306c0.071,0.031 0.129,-5.081 0.129,-11.36l0,-11.416l0.766,-0.64c0.421,-0.352 0.852,-0.715 0.958,-0.808c0.106,-0.093 0.676,-0.581 1.267,-1.084c1.777,-1.512 4.287,-4.126 5.57,-5.798c0.189,-0.247 0.389,-0.487 0.445,-0.533c0.373,-0.308 2.917,-4.041 3.408,-5c0.164,-0.32 0.348,-0.621 0.408,-0.666c0.123,-0.095 2.178,-4.249 2.178,-4.404c0,-0.055 0.146,-0.418 0.324,-0.806c0.812,-1.771 2.342,-7.064 2.342,-8.104c0,-0.249 0.069,-0.524 0.152,-0.611c0.828,-0.862 0.743,-11.515 -0.123,-15.575c-0.088,-0.413 -0.248,-1.2 -0.355,-1.75c-0.186,-0.957 -0.41,-1.782 -0.677,-2.5c-0.069,-0.184 -0.261,-0.784 -0.428,-1.334c-0.167,-0.55 -0.363,-1.071 -0.436,-1.158c-0.073,-0.087 -0.133,-0.331 -0.133,-0.542c0,-0.211 -0.075,-0.383 -0.166,-0.383c-0.092,0 -0.167,-0.098 -0.167,-0.219c0,-0.12 -0.187,-0.607 -0.417,-1.082c-0.229,-0.475 -0.416,-0.977 -0.416,-1.115c0,-0.138 -0.057,-0.252 -0.125,-0.253c-0.069,-0.001 -0.35,-0.525 -0.625,-1.164c-0.275,-0.639 -0.557,-1.163 -0.625,-1.165c-0.069,-0.001 -0.125,-0.076 -0.125,-0.167c0,-0.091 -0.338,-0.691 -0.75,-1.335c-0.413,-0.644 -0.75,-1.206 -0.75,-1.25c0,-0.093 -2.013,-2.96 -2.165,-3.083c-0.057,-0.046 -0.324,-0.381 -0.594,-0.744c-1.092,-1.468 -4.891,-5.381 -6.398,-6.59c-0.399,-0.321 -0.959,-0.774 -1.243,-1.008c-0.284,-0.234 -0.93,-0.719 -1.434,-1.078c-0.504,-0.359 -0.954,-0.694 -1,-0.744c-0.308,-0.338 -3.823,-2.442 -5.416,-3.243c-0.55,-0.276 -1.025,-0.56 -1.056,-0.631c-0.03,-0.071 -0.122,-0.129 -0.204,-0.129c-0.081,0 -0.581,-0.197 -1.111,-0.437c-1.555,-0.705 -1.909,-0.852 -2.963,-1.229c-0.55,-0.197 -1.15,-0.42 -1.333,-0.496c-0.544,-0.225 -1.271,-0.461 -2.333,-0.756c-0.55,-0.154 -1.173,-0.347 -1.383,-0.43c-0.211,-0.084 -0.554,-0.152 -0.764,-0.152c-0.21,0 -0.437,-0.056 -0.506,-0.125c-0.116,-0.116 -0.855,-0.274 -3.347,-0.716c-4.104,-0.726 -8.911,-0.956 -13.334,-0.635Z" style="fill:rgb(236,156,68);"/>        <path d="M58.417,38.973c3.208,0.266 5.739,0.676 6.456,1.045c0.159,0.082 0.441,0.149 0.627,0.149c0.186,0 0.468,0.064 0.627,0.143c0.159,0.079 0.702,0.275 1.206,0.437c0.504,0.162 1.466,0.548 2.138,0.857c0.671,0.309 1.257,0.563 1.303,0.563c0.045,0 0.41,0.225 0.809,0.5c0.4,0.275 0.775,0.5 0.833,0.5c0.203,0 1.735,1.203 2.967,2.329c1.006,0.92 2.682,3.122 3.161,4.153c0.196,0.422 0.417,0.793 0.49,0.823c0.073,0.031 0.133,0.195 0.133,0.365c0,0.171 0.061,0.348 0.135,0.394c0.075,0.046 0.281,0.538 0.459,1.093l0.322,1.009l5.199,0c5.339,0 5.605,0.034 5.046,0.635c-0.181,0.193 -0.328,0.401 -0.328,0.461c0,0.061 -0.206,0.353 -0.458,0.65c-0.618,0.728 -0.876,1.053 -1.461,1.838c-0.272,0.366 -0.538,0.704 -0.589,0.75c-0.051,0.045 -0.314,0.383 -0.584,0.75c-0.27,0.366 -0.623,0.812 -0.783,0.989c-0.16,0.178 -0.292,0.384 -0.292,0.459c0,0.074 -1.05,0.135 -2.333,0.135l-2.333,0l0,2.833l3.666,0c2.826,0 3.666,0.048 3.661,0.209c-0.005,0.17 -0.849,1.285 -2.873,3.795c-0.112,0.139 -0.427,0.551 -0.698,0.916c-0.272,0.365 -0.572,0.749 -0.667,0.853c-0.095,0.105 -0.303,0.349 -0.463,0.542c-0.264,0.321 -0.459,0.352 -2.212,0.352l-1.923,0l-0.174,0.458c-0.147,0.389 -0.773,1.682 -1.399,2.891c-0.09,0.175 -0.221,0.318 -0.291,0.318c-0.07,0 -0.127,0.098 -0.127,0.219c0,0.586 -2.776,3.513 -4.5,4.745c-0.596,0.426 -1.121,0.814 -1.167,0.863c-0.308,0.33 -4.012,2.173 -4.365,2.173c-0.166,0 -0.302,0.075 -0.302,0.166c0,0.092 -0.183,0.167 -0.406,0.167c-0.224,0 -0.448,0.066 -0.498,0.147c-0.051,0.082 -0.299,0.19 -0.552,0.243c-0.253,0.052 -0.948,0.216 -1.544,0.365c-3.494,0.874 -4.319,0.945 -11.874,1.022l-7.123,0.073l-0.086,23.9l-13,0l-0.042,-34.066c-0.031,-25.232 0.007,-34.125 0.147,-34.294c0.227,-0.273 22.63,-0.202 26.062,0.083Zm-6.792,10.247l-6.292,-0.061l0,23.878l6.576,-0.061c4.955,-0.046 6.627,-0.112 6.784,-0.269c0.114,-0.114 0.45,-0.207 0.747,-0.207c0.297,0 0.587,-0.075 0.643,-0.167c0.057,-0.091 0.23,-0.169 0.385,-0.172c0.155,-0.002 0.657,-0.189 1.115,-0.415c0.459,-0.225 0.927,-0.41 1.042,-0.411c0.115,-0.001 0.208,-0.072 0.208,-0.157c0,-0.086 0.134,-0.198 0.298,-0.25c0.164,-0.052 0.632,-0.392 1.042,-0.756l0.744,-0.663l-4.199,-0.004c-3.981,-0.005 -4.812,-0.098 -4.28,-0.482c0.081,-0.058 0.368,-0.406 0.637,-0.773c0.27,-0.367 0.533,-0.704 0.584,-0.75c0.051,-0.046 0.316,-0.383 0.589,-0.75c0.273,-0.367 0.588,-0.779 0.7,-0.917c0.112,-0.137 0.664,-0.85 1.226,-1.583l1.022,-1.333l3.361,-0.084l3.36,-0.083l0.096,-2.75l-4.728,0c-2.601,0 -4.774,-0.045 -4.829,-0.099c-0.079,-0.08 3.831,-5.263 4.201,-5.568c0.055,-0.045 0.232,-0.289 0.392,-0.541c0.274,-0.43 0.367,-0.459 1.497,-0.464l1.204,-0.006l-1.09,-1.036c-1.505,-1.43 -3.405,-2.343 -5.91,-2.839c-0.458,-0.091 -3.665,-0.193 -7.125,-0.227Z" style="fill:white;"/>    </g></svg>