<?xml version="1.0" encoding="UTF-8" standalone="no"?><!DOCTYPE svg PUBLIC "-//W3C//DTD SVG 1.1//EN" "http://www.w3.org/Graphics/SVG/1.1/DTD/svg11.dtd"><svg width="100%" height="100%" viewBox="0 0 512 512" version="1.1" xmlns="http://www.w3.org/2000/svg" xmlns:xlink="http://www.w3.org/1999/xlink" xml:space="preserve" style="fill-rule:evenodd;clip-rule:evenodd;stroke-linejoin:round;stroke-miterlimit:2;"><title>Rockpool Investments</title><desc>Since 2011 we have invested over £400m into a diverse range of private companies. We offer equity and loan investment and combine these with tax reliefs where possible.We invest in development capital, management buy-out and equity release opportunities across all sectors. Many of our investment opportunities target growth across both loans and equity.</desc>    <g transform="matrix(2.95255,0,0,2.95255,-159.651,-166.389)">        <g transform="matrix(1,0,0,1,175.475,204.575)">            <path d="M0,24.695c2.888,0 5.546,-0.992 7.647,-2.653c2.106,-1.667 4.232,-6.68 10.872,-6.68c6.641,0 8.766,5.013 10.867,6.68c2.106,1.661 4.765,2.653 7.657,2.653c3.406,0 6.494,-1.383 8.727,-3.616c2.233,-2.233 3.616,-5.321 3.616,-8.732c0,-3.41 -1.383,-6.494 -3.616,-8.732c-2.233,-2.233 -5.321,-3.615 -8.727,-3.615c-2.892,0 -5.551,0.996 -7.657,2.658c-2.101,1.661 -4.187,6.679 -10.867,6.679c-6.675,0 -8.766,-5.018 -10.872,-6.679c-2.101,-1.662 -4.759,-2.658 -7.647,-2.658c-3.411,0 -6.494,1.382 -8.732,3.615c-2.233,2.238 -3.616,5.322 -3.616,8.732c0,3.411 1.383,6.499 3.616,8.732c2.238,2.233 5.321,3.616 8.732,3.616" style="fill:rgb(195,32,50);fill-rule:nonzero;"/>        </g>        <g transform="matrix(1,0,0,1,83.8365,204.744)">            <path d="M0,-123.37l0,53.051l10.613,0c10.115,0 16.286,-4.442 16.286,-18.26l0,-17.029c0,-12.338 -4.197,-17.762 -13.818,-17.762l-13.081,0Zm29.611,148.051c-1.475,-4.441 -2.463,-7.153 -2.463,-21.221l0,-27.144c0,-16.037 -5.433,-21.964 -17.766,-21.964l-9.382,0l0,70.329l-27.144,0l0,-172.732l40.963,0c28.13,0 40.224,13.076 40.224,39.731l0,13.569c0,17.772 -5.678,29.123 -17.767,34.796l0,0.489c13.57,5.677 18.011,18.509 18.011,36.525l0,26.645c0,8.39 0.249,14.561 2.961,20.977l-27.637,0Z" style="fill:rgb(195,32,50);fill-rule:nonzero;"/>        </g>    </g></svg>