<?xml version="1.0" encoding="UTF-8" standalone="no"?><!DOCTYPE svg PUBLIC "-//W3C//DTD SVG 1.1//EN" "http://www.w3.org/Graphics/SVG/1.1/DTD/svg11.dtd"><svg width="100%" height="100%" viewBox="0 0 512 512" version="1.1" xmlns="http://www.w3.org/2000/svg" xmlns:xlink="http://www.w3.org/1999/xlink" xml:space="preserve" style="fill-rule:evenodd;clip-rule:evenodd;stroke-linejoin:round;stroke-miterlimit:2;"><title>Unilend</title><desc>Unilend is the leader in crowdfunding for SMEs in France. We are the first French site allowing everyone to lend their money directly to French SMEs and receive interest. VSEs / SMEs find it a complement to bank financing, faster and more flexible. As for savers, this is an opportunity to set your own interest rate and know what your money is used for.</desc>    <g transform="matrix(42.3247,0,0,42.3247,-2453.84,-23485.2)">        <g transform="matrix(1,0,0,1,0,526.584)">            <path d="M70.05,38.713c0,0.834 -0.694,1.51 -1.548,1.51l-8.953,0c-0.856,0 -1.549,-0.676 -1.549,-1.51l0,-8.734c0,-0.834 0.693,-1.51 1.549,-1.51l8.953,0c0.854,0 1.548,0.676 1.548,1.51l0,8.734Z" style="fill:rgb(175,0,110);fill-rule:nonzero;"/>        </g>        <g transform="matrix(1,0,0,1,0,526.784)">            <path d="M61.939,37.313l0,0c0.296,0 0.59,-0.054 0.875,-0.163c0.284,-0.108 0.541,-0.274 0.766,-0.494l2.115,-2.062c0.062,-0.061 0.109,-0.132 0.138,-0.21c0.031,-0.084 0.048,-0.17 0.05,-0.255c0.002,-0.081 -0.014,-0.163 -0.047,-0.243c-0.034,-0.081 -0.082,-0.151 -0.141,-0.209c-0.13,-0.127 -0.283,-0.19 -0.469,-0.191l-0.001,0c-0.189,0 -0.34,0.062 -0.471,0.191l-2.114,2.062c-0.098,0.095 -0.209,0.168 -0.329,0.216c-0.116,0.046 -0.236,0.069 -0.358,0.069l-0.019,0c-0.128,-0.003 -0.253,-0.027 -0.373,-0.071c-0.124,-0.046 -0.237,-0.118 -0.336,-0.214c-0.099,-0.097 -0.173,-0.207 -0.22,-0.328c-0.045,-0.117 -0.07,-0.239 -0.073,-0.362c-0.002,-0.126 0.02,-0.25 0.066,-0.369c0.047,-0.122 0.121,-0.232 0.22,-0.328l2.114,-2.062c0.063,-0.062 0.11,-0.133 0.139,-0.211c0.031,-0.084 0.048,-0.17 0.05,-0.255c0.002,-0.081 -0.015,-0.162 -0.048,-0.243c-0.034,-0.081 -0.082,-0.151 -0.141,-0.209c-0.134,-0.131 -0.288,-0.194 -0.47,-0.194c-0.183,0 -0.337,0.063 -0.471,0.194l-2.114,2.062c-0.226,0.22 -0.396,0.472 -0.506,0.748c-0.111,0.277 -0.166,0.565 -0.164,0.856c0.002,0.29 0.061,0.58 0.174,0.86c0.113,0.279 0.284,0.532 0.51,0.752c0.226,0.221 0.485,0.388 0.77,0.497c0.287,0.11 0.583,0.166 0.878,0.166" style="fill:white;fill-rule:nonzero;"/>        </g>        <g transform="matrix(1,0,0,1,0,526.328)">            <path d="M66.097,32.722c0.008,0 0.016,0 0.024,0c0.123,0.003 0.248,0.026 0.368,0.071c0.124,0.046 0.237,0.117 0.336,0.214c0.099,0.096 0.173,0.207 0.22,0.328c0.045,0.117 0.07,0.239 0.072,0.362c0.003,0.126 -0.019,0.25 -0.066,0.369c-0.046,0.121 -0.12,0.231 -0.219,0.328l-2.114,2.062c-0.063,0.061 -0.11,0.132 -0.139,0.211c-0.031,0.083 -0.048,0.169 -0.05,0.255c-0.002,0.081 0.014,0.163 0.048,0.243c0.034,0.08 0.081,0.151 0.141,0.209c0.134,0.131 0.288,0.194 0.47,0.194c0.183,0 0.337,-0.063 0.471,-0.194l2.114,-2.062c0.225,-0.22 0.396,-0.471 0.506,-0.748c0.111,-0.278 0.166,-0.566 0.163,-0.856c-0.002,-0.291 -0.06,-0.581 -0.174,-0.861c-0.112,-0.278 -0.283,-0.531 -0.509,-0.751c-0.225,-0.22 -0.484,-0.388 -0.77,-0.497c-0.57,-0.219 -1.183,-0.22 -1.754,-0.003c-0.283,0.107 -0.541,0.273 -0.765,0.493l-2.115,2.062c-0.062,0.061 -0.109,0.132 -0.139,0.211c-0.031,0.084 -0.048,0.17 -0.05,0.255c-0.001,0.081 0.015,0.162 0.048,0.243c0.034,0.081 0.082,0.151 0.141,0.209c0.13,0.127 0.283,0.189 0.469,0.191c0.189,0 0.341,-0.062 0.472,-0.191l2.114,-2.062c0.098,-0.096 0.209,-0.168 0.329,-0.216c0.115,-0.046 0.236,-0.069 0.358,-0.069" style="fill:white;fill-rule:nonzero;"/>        </g>    </g></svg>