<?xml version="1.0" encoding="UTF-8" standalone="no"?><!DOCTYPE svg PUBLIC "-//W3C//DTD SVG 1.1//EN" "http://www.w3.org/Graphics/SVG/1.1/DTD/svg11.dtd"><svg width="100%" height="100%" viewBox="0 0 512 512" version="1.1" xmlns="http://www.w3.org/2000/svg" xmlns:xlink="http://www.w3.org/1999/xlink" xml:space="preserve" style="fill-rule:evenodd;clip-rule:evenodd;stroke-linejoin:round;stroke-miterlimit:2;"><title>Collin Crowdfund</title><desc>Collin Crowdfund is the market leader in the crowdfunding industry and provides linear loans to SMEs. You have the opportunity to invest in these responsible investment opportunities, where you as an investor receive monthly repayments in the form of interest and repayment during the term.</desc>    <g>        <g transform="matrix(1.02222,0,0,1.18557,-33.2889,-43.9485)">            <path d="M508,87.351c0,-15.648 -14.733,-28.351 -32.881,-28.351l-384.238,0c-18.148,0 -32.881,12.703 -32.881,28.351l0,331.298c0,15.648 14.733,28.351 32.881,28.351l384.238,0c18.148,0 32.881,-12.703 32.881,-28.351l0,-331.298Z" style="fill:rgb(0,50,108);"/>        </g>        <g transform="matrix(9.71361,0,0,9.71361,-137.765,-320.168)">            <path d="M27.42,59.72c0,-9.31 5,-17 15.6,-17c2.738,-0.061 5.46,0.436 8,1.46l0,6.19c-2.217,-1.185 -4.708,-1.761 -7.22,-1.67c-5.72,0 -8.84,3.8 -8.84,11c0.04,6.62 3.43,10.3 9.04,10.3c2.604,0.058 5.17,-0.637 7.39,-2l0,6.34c-2.601,1.144 -5.431,1.678 -8.27,1.56c-10.4,0.04 -15.7,-6.9 -15.7,-16.18Z" style="fill:rgb(111,178,222);fill-rule:nonzero;"/>        </g>    </g></svg>