<?xml version="1.0" encoding="UTF-8" standalone="no"?><!DOCTYPE svg PUBLIC "-//W3C//DTD SVG 1.1//EN" "http://www.w3.org/Graphics/SVG/1.1/DTD/svg11.dtd"><svg width="100%" height="100%" viewBox="0 0 512 512" version="1.1" xmlns="http://www.w3.org/2000/svg" xmlns:xlink="http://www.w3.org/1999/xlink" xml:space="preserve" style="fill-rule:evenodd;clip-rule:evenodd;stroke-linejoin:round;stroke-miterlimit:2;"><title>UdenomBanken</title><desc>UdenomBanken is a mortgage broker, which connects borrowers in Denmark with institutional and private investors in Denmark.UdenomBanken is able to identify properties and buyers through fine-masked credit rating systems, which, despite the refusal of banks and mortgage banks, are suitable for obtaining a loan for the purchase of real estate.</desc>    <g transform="matrix(1.93879,0,0,1.93831,-516.626,-55.211)">        <g transform="matrix(1,0,0,1,226.271,4.44866)">            <path d="M65.729,187.008l0,-162.457l74.386,0l0,182.27c6.593,13.6 19.286,22.67 32.745,22.67c17.349,0 31.956,-15.072 36.183,-35.489l-9.314,75.549c0,0 -47.447,18.004 -70.008,11c-28.992,-9 -63.992,-47.668 -63.992,-93.051l0.002,-0.5l-0.002,0.008Z" style="fill:rgb(76,157,253);"/>        </g>        <g transform="matrix(1,0,0,1,226.271,2.44866)">            <path d="M207.043,204.526l0,-126.234c41.163,9.709 71.706,46.07 71.706,101.767c0,65.599 -42.37,109.608 -94.559,109.608c-18.725,0 -37.758,-1.782 -54.469,-7.097c45.937,-1.501 67.841,-35.522 77.322,-78.044Z" style="fill:rgb(150,16,160);"/>        </g>    </g></svg>