<?xml version="1.0" encoding="UTF-8" standalone="no"?><!DOCTYPE svg PUBLIC "-//W3C//DTD SVG 1.1//EN" "http://www.w3.org/Graphics/SVG/1.1/DTD/svg11.dtd"><svg width="100%" height="100%" viewBox="0 0 512 512" version="1.1" xmlns="http://www.w3.org/2000/svg" xmlns:xlink="http://www.w3.org/1999/xlink" xml:space="preserve" style="fill-rule:evenodd;clip-rule:evenodd;stroke-linejoin:round;stroke-miterlimit:2;"><title>CoFunder</title><desc>CoFunder is a crowdfunding platform that connects lenders with businesses with the sole intention of helping both achieve their objectives.</desc>    <g transform="matrix(10.4998,0,0,10.4998,-741.965,-217.251)">        <path d="M113.496,21.112l-3.249,6.01c5.927,4.284 8.585,13.242 8.585,17.95c0,13.404 -9.882,24.286 -23.286,24.286c-13.404,0 -24.286,-10.882 -24.286,-24.286c0,-13.404 10.489,-24.286 25.286,-24.286l-0.345,2.754l-2.76,0.388l2.178,4.27l-0.073,0.588c-8.989,0 -16.286,7.298 -16.286,16.286c0,8.989 7.297,16.286 16.286,16.286c8.988,0 15.342,-6.49 15.342,-15.478c0,-2.755 -2.198,-7.875 -4.72,-11.215l-3.73,6.9l-4.009,-16.32l15.067,-4.133Z" style="fill:rgb(10,148,249);"/>    </g></svg>