<?xml version="1.0" encoding="UTF-8" standalone="no"?><!DOCTYPE svg PUBLIC "-//W3C//DTD SVG 1.1//EN" "http://www.w3.org/Graphics/SVG/1.1/DTD/svg11.dtd"><svg width="100%" height="100%" viewBox="0 0 512 512" version="1.1" xmlns="http://www.w3.org/2000/svg" xmlns:xlink="http://www.w3.org/1999/xlink" xml:space="preserve" style="fill-rule:evenodd;clip-rule:evenodd;stroke-linejoin:round;stroke-miterlimit:2;"><title>Crowdahouse</title><desc>We launched our platform in 2012 as an equity fund for investors in UK property. Since then, most of the property crowdfunding platforms have been started by people who joined Crowdahouse as Members and who saw the model we designed as a dynamic new way of financing property</desc>    <g transform="matrix(3.76561,0,0,4.06936,-524.18,-52.2802)">        <g transform="matrix(130.39,0,0,130.39,175.288,123.854)">            <path d="M0.295,-0.222l0.155,0l0.001,0.022c0,0.072 -0.017,0.126 -0.05,0.162c-0.034,0.035 -0.085,0.053 -0.153,0.053c-0.077,0 -0.131,-0.022 -0.163,-0.066c-0.031,-0.043 -0.047,-0.121 -0.047,-0.231c0,-0.111 0.016,-0.188 0.047,-0.232c0.032,-0.044 0.086,-0.066 0.163,-0.066c0.069,0 0.12,0.018 0.152,0.053c0.033,0.035 0.049,0.09 0.049,0.165l0,0.01l-0.152,0l0,-0.016c0,-0.034 -0.004,-0.058 -0.011,-0.072c-0.007,-0.015 -0.02,-0.022 -0.037,-0.022c-0.02,0 -0.033,0.01 -0.04,0.029c-0.007,0.019 -0.011,0.069 -0.011,0.151c0,0.078 0.004,0.128 0.011,0.149c0.007,0.021 0.02,0.032 0.039,0.032c0.017,0 0.029,-0.008 0.036,-0.023c0.008,-0.015 0.012,-0.039 0.012,-0.072l-0.001,-0.026Z" style="fill:rgb(29,29,29);fill-rule:nonzero;"/>        </g>        <g transform="matrix(0.270349,0,0,0.250169,138.274,12.6149)">            <path d="M432.644,151.49l70.43,40.837c0.871,0.505 1.651,1.46 2.308,2.741l-2.391,25.414c-0.84,0.458 -1.736,0.469 -2.63,-0.05l-239.244,-138.721l-254.132,139.208l-2.57,-28.185l255.455,-139.933c0.87,-0.477 1.773,-0.463 2.641,0.04l146.298,84.828l0,-46.628l23.835,0l0,60.449Z" style="fill:rgb(29,29,29);"/>        </g>    </g></svg>