<?xml version="1.0" encoding="UTF-8" standalone="no"?><!DOCTYPE svg PUBLIC "-//W3C//DTD SVG 1.1//EN" "http://www.w3.org/Graphics/SVG/1.1/DTD/svg11.dtd"><svg width="100%" height="100%" viewBox="0 0 512 512" version="1.1" xmlns="http://www.w3.org/2000/svg" xmlns:xlink="http://www.w3.org/1999/xlink" xml:space="preserve" style="fill-rule:evenodd;clip-rule:evenodd;stroke-linejoin:round;stroke-miterlimit:2;"><title>Cubefunder</title><desc>At Cubefunder, we understand what it is like to own and run a small to medium-sized business. Even when things are going well, cashflow can be an ongoing struggle and a source of much stress. That is why when we reviewed the existing funding options for SME’s, we felt something new was required.</desc>    <g transform="matrix(11.3333,0,0,11.3333,-2742.14,-5382.33)">        <g transform="matrix(1,0,0,1,-17.9586,13)">            <path d="M288.978,506.047c-2.043,0.62 -4.222,0.953 -6.478,0.953c-12.418,0 -22.5,-10.082 -22.5,-22.5c0,-12.418 10.082,-22.5 22.5,-22.5c12.418,0 22.5,10.082 22.5,22.5c0,4.095 -1.096,7.935 -3.037,11.244l-0.046,0.079c-2.803,4.832 -7.37,8.521 -12.842,10.194l-0.097,0.03Z" style="fill:rgb(241,109,84);"/>        </g>        <g transform="matrix(1,0,0,1,5.4172,-56.0168)">            <path d="M250.583,559l0,-11l9,-4l8,4l0,11l10.917,5.823c-2.803,4.832 -7.37,8.521 -12.843,10.194l-15.074,-16.017Z" style="fill:rgb(202,91,76);"/>            <g transform="matrix(1,0,0,1,43.5828,20)">                <path d="M216,532l-9,-4l0,11l9,4l0,-11Z" style="fill:white;"/>            </g>            <g transform="matrix(1,0,0,1,46.5828,6.673)">                <path d="M221,552.327l0,-11l-7.583,4l0,11l7.583,-4Z" style="fill:white;"/>            </g>        </g>    </g></svg>