<?xml version="1.0" encoding="UTF-8" standalone="no"?><!DOCTYPE svg PUBLIC "-//W3C//DTD SVG 1.1//EN" "http://www.w3.org/Graphics/SVG/1.1/DTD/svg11.dtd"><svg width="100%" height="100%" viewBox="0 0 512 512" version="1.1" xmlns="http://www.w3.org/2000/svg" xmlns:xlink="http://www.w3.org/1999/xlink" xml:space="preserve" style="fill-rule:evenodd;clip-rule:evenodd;stroke-linejoin:round;stroke-miterlimit:2;"><title>Digital Finance International</title><desc>Global leader in digital lendingEstablished financial technology companies in emerging markets. Modern and demanding financial products for millions of underservedand underbanked customers globally.DFI applies flexible fin-tech solutions, and extensive usage of the most advanced digital marketing technology to approach different markets worldwide with tailored loan solutions that fit the needs of individual customers. DFI’s development strategy combines green-field investments (start-ups) with M&amp;A and partnerships to secure access to local market and to capitalize on its competitive advantages.</desc>    <g transform="matrix(0.826193,0,0,0.822612,-167,124.177)">        <g transform="matrix(7.84906,0,0,7.84571,96,1.01225)">            <path d="M88.911,12.939l-9.457,-9.412l-0.812,-0.808c-1.76,-1.741 -4.14,-2.719 -6.621,-2.719c-2.481,0 -4.861,0.978 -6.62,2.719l-0.442,0.439l-10.592,10.543l-1.246,1.24l-5.627,5.601l-1.405,1.399l-0.062,0.062l-10.196,10.149l-0.111,0.11c-0.44,0.435 -1.036,0.679 -1.656,0.679c-0.621,-0.001 -1.216,-0.247 -1.656,-0.683l-10.372,-10.324c-0.438,-0.438 -0.683,-1.03 -0.683,-1.648c0,-0.617 0.245,-1.21 0.683,-1.647l10.372,-10.319c0.44,-0.436 1.035,-0.68 1.655,-0.68c0.621,0 1.216,0.244 1.655,0.68l10.264,10.216l5.301,-5.273l-10.595,-10.546c-1.759,-1.741 -4.139,-2.719 -6.62,-2.719c-2.481,0 -4.861,0.978 -6.621,2.719l-11.04,10.989c-1.749,1.751 -2.731,4.12 -2.731,6.59c0,2.469 0.982,4.839 2.731,6.59l11.04,10.989c1.76,1.741 4.14,2.719 6.621,2.719c2.481,0 4.861,-0.978 6.62,-2.719l0.442,-0.44l10.591,-10.542l1.459,-1.452l6.816,-6.785l0.458,-0.455l9.804,-9.759l0.111,-0.11c0.439,-0.435 1.034,-0.68 1.655,-0.68c0.62,0 1.215,0.245 1.655,0.68l9.938,9.892l3.408,3.392l5.296,-5.271l-3.41,-3.406Z" style="fill:rgb(0,48,140);fill-rule:nonzero;"/>        </g>        <g transform="matrix(7.84906,0,0,7.84571,96,1.01225)">            <path d="M60.107,22.049l-5.296,5.271l13.234,13.173l5.295,-5.272l-13.233,-13.172Z" style="fill:rgb(0,177,0);fill-rule:nonzero;"/>        </g>    </g></svg>