<?xml version="1.0" encoding="UTF-8" standalone="no"?><!DOCTYPE svg PUBLIC "-//W3C//DTD SVG 1.1//EN" "http://www.w3.org/Graphics/SVG/1.1/DTD/svg11.dtd"><svg width="100%" height="100%" viewBox="0 0 512 512" version="1.1" xmlns="http://www.w3.org/2000/svg" xmlns:xlink="http://www.w3.org/1999/xlink" xml:space="preserve" style="fill-rule:evenodd;clip-rule:evenodd;stroke-linejoin:round;stroke-miterlimit:2;"><title>HelloCrowdfunding</title><desc>Real estate crowdfunding aggregatorOur tool is based on regular and factual monitoring of projects proposed by crowdfunding platforms. You will find there information on the projects in collection and especially on the projects already financed, all confused platforms.</desc>    <g transform="matrix(5.93023,0,0,5.93023,-675.047,368.674)">        <path d="M162,-62l0,29l-9,4l0,-33l-26,8l0,32l7,-3l0,-23l11,-4l0,27l-18,7.5l0,32.5l26,9l0,-28l9,-6l0,34l25,-9l0,-30.5l-7,2.5l0,24l-12,4l0,-28l19,-9l0,-32l-25,-8Zm-28,49.5l0,22l12,4l0,-24l34,-16l0,-22l-12,-3l0,22l-34,17Z" style="fill:rgb(52,52,52);"/>    </g></svg>