<?xml version="1.0" encoding="UTF-8" standalone="no"?><!DOCTYPE svg PUBLIC "-//W3C//DTD SVG 1.1//EN" "http://www.w3.org/Graphics/SVG/1.1/DTD/svg11.dtd"><svg width="100%" height="100%" viewBox="0 0 512 512" version="1.1" xmlns="http://www.w3.org/2000/svg" xmlns:xlink="http://www.w3.org/1999/xlink" xml:space="preserve" style="fill-rule:evenodd;clip-rule:evenodd;stroke-linejoin:round;stroke-miterlimit:2;"><title>FinBee CZ</title><desc>P2P loans on the FinBee.cz portal are operated by FinBee CZ Lending s.r.o., which was founded in 2015. It belongs to the Lithuanian FinBee platform, which is currently one of the fastest growing P2P loan intermediaries in Europe.</desc>    <g transform="matrix(4.63633,0,0,4.63633,-40.7254,-40.7269)">        <path d="M83.071,14.622c0.469,-3.159 3.218,-5.617 6.499,-5.622c3.61,0 6.58,2.97 6.58,6.58c0,3.61 -2.97,6.58 -6.58,6.58c-3.369,-0.005 -6.177,-2.596 -6.532,-5.877c-0.272,0.485 -0.508,0.976 -0.728,1.408c-0.185,0.364 -0.361,0.733 -0.528,1.105c-3.695,8.225 -5.108,17.317 -6.354,26.406c19.163,3.428 27.655,15.319 28.572,17.178c-6.55,-7.12 -35,-3.33 -40.57,11.48c-4,-12.7 -33.73,-16.9 -39.7,-11c0,0 7.369,-13.185 27.937,-17.341c-1.272,-9.625 -2.568,-19.621 -7.076,-28.124c-0.149,-0.28 -0.304,-0.557 -0.468,-0.828c-0.037,-0.062 -0.075,-0.123 -0.113,-0.184c-0.401,3.237 -3.192,5.777 -6.53,5.777c-3.61,0 -6.58,-2.97 -6.58,-6.58c0,-3.61 2.97,-6.58 6.58,-6.58c3.264,0 6.005,2.429 6.5,5.563c0.576,0.707 1.036,1.515 1.413,2.212c0.226,0.417 0.437,0.843 0.637,1.273c3.918,8.428 5.339,17.902 6.619,27.282c3.264,-0.602 6.851,-0.976 10.781,-1.04c3.996,-0.072 7.66,0.207 11.009,0.745c1.301,-9.796 2.769,-20.028 7.222,-28.26c0.158,-0.292 0.324,-0.58 0.498,-0.863c0.138,-0.222 0.28,-0.441 0.43,-0.655c0.114,-0.162 0.232,-0.321 0.355,-0.477c0.041,-0.053 0.083,-0.106 0.127,-0.158Z"/>        <path d="M89.81,81.34c-2.27,0 -3.85,1.67 -4.15,4.24l7.83,0c0.08,-2.66 -1.38,-4.24 -3.68,-4.24Z" style="fill-rule:nonzero;"/>        <path d="M38.06,81.34c-2.26,0 -3.85,1.67 -4.15,4.24l7.83,0c0.08,-2.66 -1.37,-4.24 -3.68,-4.24Z" style="fill-rule:nonzero;"/>        <path d="M60.37,94.55l-31.64,0c-0.1,9.56 4.62,14.18 14.07,14.18c5.135,-0.006 10.212,-1.093 14.9,-3.19l1.24,10.17c-5.842,2.212 -12.043,3.328 -18.29,3.29c-16.23,0 -25.27,-8.11 -25.27,-26.1c0,-15.62 8.63,-27.12 23.94,-27.12c14.9,0 21.48,10.17 21.48,22.81c-0.003,1.994 -0.147,3.986 -0.43,5.96Zm-21.47,-19.11c-5.45,0 -9.25,4 -10,10.17l18.84,0c0.21,-6.37 -3.29,-10.17 -8.84,-10.17Z" style="fill:rgb(255,222,0);fill-rule:nonzero;"/>        <path d="M112.22,94.55l-31.65,0c-0.1,9.56 4.62,14.18 14.07,14.18c5.135,-0.007 10.212,-1.094 14.9,-3.19l1.23,10.17c-5.839,2.212 -12.036,3.327 -18.28,3.29c-16.24,0 -25.28,-8.11 -25.28,-26.1c0,-15.62 8.63,-27.12 23.94,-27.12c14.9,0 21.47,10.17 21.47,22.81c0.007,1.994 -0.127,3.985 -0.4,5.96Zm-21.48,-19.11c-5.44,0 -9.25,4 -10,10.17l18.8,0c0.25,-6.37 -3.24,-10.17 -8.8,-10.17Z" style="fill:rgb(255,222,0);fill-rule:nonzero;"/>    </g></svg>