<?xml version="1.0" encoding="UTF-8" standalone="no"?><!DOCTYPE svg PUBLIC "-//W3C//DTD SVG 1.1//EN" "http://www.w3.org/Graphics/SVG/1.1/DTD/svg11.dtd"><svg width="100%" height="100%" viewBox="0 0 512 512" version="1.1" xmlns="http://www.w3.org/2000/svg" xmlns:xlink="http://www.w3.org/1999/xlink" xml:space="preserve" style="fill-rule:evenodd;clip-rule:evenodd;stroke-linejoin:round;stroke-miterlimit:2;"><title>Swisspeers</title><desc>Swisspeers is an independent online platform that allows businesses to source capital directly from investors without intermediaries such as financial institutions.</desc>    <g transform="matrix(31.6928,0,0,31.6839,440.61,434.666)">        <path d="M0,-11.278c-1.515,-1.515 -3.475,-2.283 -5.825,-2.283c-2.35,0 -4.289,0.768 -5.763,2.283c-1.515,1.474 -2.283,3.371 -2.283,5.64l0,0.824l13.676,0c-0.194,1.402 -0.784,2.567 -1.757,3.465c-1.025,0.907 -2.328,1.366 -3.873,1.366c-1.154,0 -2.149,-0.215 -2.959,-0.639c-0.803,-0.421 -1.449,-1.063 -1.921,-1.908l-0.059,-0.106l-2.591,0l0.117,0.286c0.59,1.434 1.552,2.567 2.859,3.367c1.302,0.84 2.834,1.266 4.554,1.266c2.35,0 4.31,-0.767 5.825,-2.281c1.474,-1.474 2.221,-3.372 2.221,-5.64c0,-2.269 -0.747,-4.167 -2.221,-5.64m-11.326,4.321c0.26,-1.261 0.867,-2.3 1.808,-3.09c0.986,-0.828 2.228,-1.247 3.693,-1.247c1.467,0 2.731,0.42 3.755,1.247c0.941,0.79 1.529,1.829 1.752,3.09l-11.008,0Z" style="fill:rgb(183,30,30);fill-rule:nonzero;"/>    </g></svg>