<?xml version="1.0" encoding="UTF-8" standalone="no"?><!DOCTYPE svg PUBLIC "-//W3C//DTD SVG 1.1//EN" "http://www.w3.org/Graphics/SVG/1.1/DTD/svg11.dtd"><svg width="100%" height="100%" viewBox="0 0 512 512" version="1.1" xmlns="http://www.w3.org/2000/svg" xmlns:xlink="http://www.w3.org/1999/xlink" xml:space="preserve" style="fill-rule:evenodd;clip-rule:evenodd;stroke-linejoin:round;stroke-miterlimit:2;"><title>Investly</title><desc>We provide an invoice finance platform that lets you easily upload invoices and get them paid with the best rates much faster. </desc>    <g transform="matrix(0.501969,0,0,0.501969,-520.953,-1.00787)">        <g transform="matrix(6.64077e-17,1.08452,-1.08452,6.64077e-17,2187.12,-65.4116)">            <circle cx="532.412" cy="185.03" r="63.953" style="fill:rgb(38,169,224);"/>        </g>        <g transform="matrix(1.08452,0,0,1.08452,970.401,-127.31)">            <circle cx="532.412" cy="185.03" r="63.953" style="fill:rgb(144,39,142);"/>        </g>        <g transform="matrix(1.08452,0,0,1.08452,970.401,749.973)">            <circle cx="532.412" cy="185.03" r="63.953" style="fill:rgb(87,184,71);"/>        </g>        <g transform="matrix(6.64077e-17,1.08452,-1.08452,6.64077e-17,1309.84,-65.4116)">            <circle cx="532.412" cy="185.03" r="63.953" style="fill:rgb(246,146,30);"/>        </g>        <g transform="matrix(0.766871,0.766871,-0.766871,0.766871,1591.58,-348.352)">            <circle cx="532.412" cy="185.03" r="63.953" style="fill:rgb(27,117,187);"/>        </g>        <g transform="matrix(0.766871,0.766871,-0.766871,0.766871,971.248,271.981)">            <circle cx="532.412" cy="185.03" r="63.953" style="fill:rgb(168,206,56);"/>        </g>        <g transform="matrix(-0.766871,0.766871,-0.766871,-0.766871,2408.16,555.769)">            <circle cx="532.412" cy="185.03" r="63.953" style="fill:rgb(0,166,156);"/>        </g>        <g transform="matrix(-0.766871,0.766871,-0.766871,-0.766871,1787.83,-64.5639)">            <circle cx="532.412" cy="185.03" r="63.953" style="fill:rgb(238,64,54);"/>        </g>        <g transform="matrix(6.12323e-17,1,-1,6.12323e-17,2059.81,2)">            <path d="M442.5,674.959l67.5,-67.5l67.5,67.5l0,99.164c0,37.255 -30.246,67.5 -67.5,67.5c-37.254,0 -67.5,-30.245 -67.5,-67.5l0,-99.164Z" style="fill:rgb(246,146,30);"/>        </g>        <g transform="matrix(6.12323e-17,1,-1,6.12323e-17,2059.81,2)">            <path d="M510,416.541l-67.5,-67.5l0,-101.767c0,-37.254 30.246,-67.5 67.5,-67.5c37.254,0 67.5,30.246 67.5,67.5l0,101.767l-67.5,67.5Z" style="fill:rgb(38,169,224);"/>        </g>        <g transform="matrix(1,0,0,1,1037.81,0)">            <path d="M482.041,579.5l55.918,0l-27.959,27.959l-27.959,-27.959Z" style="fill:rgb(87,184,71);"/>        </g>        <g transform="matrix(1,0,0,1,1037.81,0)">            <path d="M510,607.459l67.5,67.5l0,99.164c0,37.255 -30.246,67.5 -67.5,67.5c-37.254,0 -67.5,-30.245 -67.5,-67.5l0,-99.164l67.5,-67.5Z" style="fill:rgb(87,184,71);"/>        </g>        <g transform="matrix(0.707107,0.707107,-0.707107,0.707107,1549.23,-210.663)">            <path d="M510,607.459l67.5,67.5l0,99.164c0,37.255 -30.246,67.5 -67.5,67.5c-37.254,0 -67.5,-30.245 -67.5,-67.5l0,-99.164l67.5,-67.5Z" style="fill:rgb(168,206,56);"/>        </g>        <g transform="matrix(0.707107,0.707107,-0.707107,0.707107,1549.23,-210.663)">            <path d="M482.041,579.5l55.918,0l-27.959,27.959l-27.959,-27.959Z" style="fill:rgb(168,206,56);"/>        </g>        <g transform="matrix(0.707107,0.707107,-0.707107,0.707107,1549.23,-210.663)">            <path d="M482.041,579.5l27.959,27.959l-67.5,67.5l0,-95.459l39.541,0Z" style="fill:rgb(252,234,79);"/>        </g>        <g transform="matrix(0.707107,0.707107,-0.707107,0.707107,1549.23,-210.663)">            <path d="M577.5,579.5l0,95.459l-67.5,-67.5l27.959,-27.959l39.541,0Z" style="fill:rgb(198,241,111);"/>        </g>        <g transform="matrix(0.707107,0.707107,-0.707107,0.707107,1549.23,-210.663)">            <path d="M537.959,444.5l-55.918,0l27.959,-27.959l27.959,27.959Z" style="fill:rgb(172,220,252);"/>        </g>        <g transform="matrix(0.707107,0.707107,-0.707107,0.707107,1549.23,-210.663)">            <path d="M510,416.541l-67.5,-67.5l0,-101.767c0,-37.254 30.246,-67.5 67.5,-67.5c37.254,0 67.5,30.246 67.5,67.5l0,101.767l-67.5,67.5Z" style="fill:rgb(27,117,187);"/>        </g>        <g transform="matrix(0.707107,0.707107,-0.707107,0.707107,1549.23,-210.663)">            <path d="M537.959,444.5l-27.959,-27.959l67.5,-67.5l0,95.459l-39.541,0Z" style="fill:rgb(61,208,247);"/>        </g>        <g transform="matrix(-0.707107,0.707107,-0.707107,-0.707107,2270.48,513.414)">            <path d="M537.959,444.5l-55.918,0l27.959,-27.959l27.959,27.959Z" style="fill:rgb(114,248,247);"/>        </g>        <g transform="matrix(-0.707107,0.707107,-0.707107,-0.707107,2270.48,513.414)">            <path d="M510,416.541l-67.5,-67.5l0,-101.767c0,-37.254 30.246,-67.5 67.5,-67.5c37.254,0 67.5,30.246 67.5,67.5l0,101.767l-67.5,67.5Z" style="fill:rgb(0,166,156);"/>        </g>        <g transform="matrix(-0.707107,0.707107,-0.707107,-0.707107,2270.48,513.414)">            <path d="M577.5,349.041l0,95.459l-39.541,0l-27.959,-27.959l67.5,-67.5Z" style="fill:rgb(87,230,184);"/>        </g>        <g transform="matrix(-0.707107,0.707107,-0.707107,-0.707107,2270.48,513.414)">            <path d="M442.5,349.041l67.5,67.5l-27.959,27.959l-39.541,0l0,-95.459Z" style="fill:rgb(34,211,227);"/>        </g>        <g transform="matrix(-0.707107,0.707107,-0.707107,-0.707107,2270.48,513.414)">            <path d="M577.5,674.959l0,99.164c0,37.255 -30.246,67.5 -67.5,67.5c-37.254,0 -67.5,-30.245 -67.5,-67.5l0,-99.164l67.5,-67.5l67.5,67.5Z" style="fill:rgb(238,64,54);"/>        </g>        <g transform="matrix(-0.707107,0.707107,-0.707107,-0.707107,2270.48,513.414)">            <path d="M510,607.459l-27.959,-27.959l55.918,0l-27.959,27.959Z" style="fill:rgb(255,186,176);"/>        </g>        <g transform="matrix(-0.707107,0.707107,-0.707107,-0.707107,2270.48,513.414)">            <path d="M510,607.459l27.959,-27.959l39.541,0l0,95.459l-67.5,-67.5Z" style="fill:rgb(254,173,78);"/>        </g>        <g transform="matrix(1,0,0,1,1037.81,0)">            <path d="M510,416.541l27.959,27.959l-55.918,0l27.959,-27.959Z" style="fill:rgb(144,39,142);"/>        </g>        <g transform="matrix(1,0,0,1,1037.81,0)">            <path d="M510,416.541l-67.5,-67.5l0,-101.767c0,-37.254 30.246,-67.5 67.5,-67.5c37.254,0 67.5,30.246 67.5,67.5l0,101.767l-67.5,67.5Z" style="fill:rgb(144,39,142);"/>        </g>        <g transform="matrix(1,0,0,1,1037.81,0)">            <path d="M577.5,444.5l-39.541,0l-27.959,-27.959l67.5,-67.5l0,95.459Z" style="fill:rgb(156,138,225);"/>        </g>        <g transform="matrix(1,0,0,1,1037.81,0)">            <path d="M510,416.541l-27.959,27.959l-39.541,0l0,-95.459l67.5,67.5Z" style="fill:rgb(248,93,166);"/>        </g>        <g transform="matrix(-0.707107,0.707107,-0.707107,-0.707107,2270.48,513.414)">            <path d="M577.5,444.5l0,39.541l-39.541,-39.541l39.541,0Z" style="fill:rgb(198,250,200);"/>        </g>        <g transform="matrix(-0.707107,0.707107,-0.707107,-0.707107,2270.48,513.414)">            <path d="M442.5,444.5l39.541,0l-39.541,39.541l0,-39.541Z" style="fill:rgb(42,228,245);"/>        </g>        <g transform="matrix(-0.707107,0.707107,-0.707107,-0.707107,2270.48,513.414)">            <path d="M537.959,579.5l39.541,-39.541l0,39.541l-39.541,0Z" style="fill:rgb(255,245,124);"/>        </g>        <g transform="matrix(-0.707107,0.707107,-0.707107,-0.707107,2270.48,513.414)">            <path d="M442.5,539.959l39.541,39.541l-39.541,0l0,-39.541Z" style="fill:rgb(248,166,231);"/>        </g>        <g transform="matrix(1.17186,0,0,1.17186,923.9,295.171)">            <circle cx="532.412" cy="185.03" r="63.953" style="fill:white;"/>        </g>    </g></svg>