<?xml version="1.0" encoding="UTF-8" standalone="no"?><!DOCTYPE svg PUBLIC "-//W3C//DTD SVG 1.1//EN" "http://www.w3.org/Graphics/SVG/1.1/DTD/svg11.dtd"><svg width="100%" height="100%" viewBox="0 0 512 512" version="1.1" xmlns="http://www.w3.org/2000/svg" xmlns:xlink="http://www.w3.org/1999/xlink" xml:space="preserve" style="fill-rule:evenodd;clip-rule:evenodd;stroke-linejoin:round;stroke-miterlimit:2;"><title>Look &amp; Fin</title><desc>Founded in 2012, Look &amp; Fin has 30 employees. It analyzes and selects companies in search of financing which it presents via its website to private and professional investors. It is also responsible for monitoring each funded file and supports investors throughout their loans.</desc>    <g transform="matrix(1,0,0,1.00032,-5.68434e-14,-0.0811854)">        <g transform="matrix(7.02286,9.86076e-32,9.86076e-32,7.02286,-207.516,119.823)">            <path d="M102.311,18.563c0,-11.338 -8.176,-18.247 -19.123,-18.247c-13.431,0 -19.172,11.143 -19.172,19.026c0,2.844 0.589,5.856 1.836,8.629c2.4,-5.359 2.805,-10.977 2.805,-10.977l0.015,0.028c0.362,-10.01 6.299,-15.052 14.174,-15.052c7.689,0 14.793,6.277 14.793,17.956c0,14.158 -9.051,16.69 -13.429,16.69c-7.266,0 -13.177,-5.033 -14.987,-13.215c-0.437,1.897 -1.163,4.213 -2.353,6.532c2.886,4.839 8.068,8.531 16.025,8.531c11.727,0 19.416,-9.002 19.416,-19.901Z" style="fill:url(#_Linear1);"/>        </g>        <g transform="matrix(7.02286,9.86076e-32,9.86076e-32,7.02286,-207.516,119.823)">            <path d="M80.872,0.497l0,-0.045c-15.618,1.48 -17.034,17.087 -17.227,19.986c-0.207,1.381 -0.418,2.766 -0.65,3.795c-0.059,0.368 -0.129,0.719 -0.202,1.066c-0.539,2.093 -1.232,3.819 -2.013,5.256c-3.008,4.922 -7.981,6.061 -10.896,6.061c-8.758,0 -15.571,-7.299 -15.571,-18.637c0,-10.656 6.083,-16.008 14.209,-16.008c6.475,0 12.536,4.452 14.287,12.834c0.004,0.021 0.008,0.043 0.012,0.064c0.08,-0.285 0.159,-0.568 0.246,-0.871c0.93,-3.255 1.804,-4.696 2.31,-5.312l-0.014,-0.054c-3.257,-5.305 -9.275,-8.315 -16.5,-8.315c-13.431,0 -19.172,11.142 -19.172,19.025c0,8.758 5.547,19.123 18.88,19.123c3.013,0 5.754,-0.603 8.172,-1.671c3.703,-1.53 6.24,-4.122 7.974,-6.829c0.149,-0.228 0.29,-0.461 0.428,-0.696c0.195,-0.331 0.379,-0.663 0.553,-0.995c0.06,-0.119 0.127,-0.235 0.186,-0.358c2.157,-3.775 2.479,-8.105 2.479,-8.105c1.014,-16.43 12.509,-19.314 12.509,-19.314Z" style="fill:url(#_Linear2);"/>        </g>    </g>    <defs>        <linearGradient id="_Linear1" x1="0" y1="0" x2="1" y2="5.28882e-06" gradientUnits="userSpaceOnUse" gradientTransform="matrix(-38.295,0.319499,-0.319499,-38.295,102.311,19.3905)"><stop offset="0" style="stop-color:rgb(243,111,44);stop-opacity:1"/><stop offset="1" style="stop-color:rgb(232,71,36);stop-opacity:1"/></linearGradient>        <linearGradient id="_Linear2" x1="0" y1="0" x2="1" y2="1.7569e-05" gradientUnits="userSpaceOnUse" gradientTransform="matrix(-51.3234,1.42342,-1.42342,-51.3234,80.872,17.9666)"><stop offset="0" style="stop-color:rgb(243,111,44);stop-opacity:1"/><stop offset="1" style="stop-color:rgb(232,71,36);stop-opacity:1"/></linearGradient>    </defs></svg>