<?xml version="1.0" encoding="UTF-8" standalone="no"?><!DOCTYPE svg PUBLIC "-//W3C//DTD SVG 1.1//EN" "http://www.w3.org/Graphics/SVG/1.1/DTD/svg11.dtd"><svg width="100%" height="100%" viewBox="0 0 512 512" version="1.1" xmlns="http://www.w3.org/2000/svg" xmlns:xlink="http://www.w3.org/1999/xlink" xml:space="preserve" style="fill-rule:evenodd;clip-rule:evenodd;stroke-linejoin:round;stroke-miterlimit:2;"><title>urbanitae</title><desc>Our platform allows investors to acquire participations in real estate projects previously studied by our team of experts, and manage their investments through its control panel.The platform also allows accredited property developers to offer their projects on our marketplace. Once studied and authorized by our team of analysts, developers will have the facility to develop their real estate projects reliably and quickly with our network of investors.</desc>    <g transform="matrix(1,0,0,1,-1.00023,-158.148)">        <g transform="matrix(2.12339,0,0,2.12592,241.542,159.136)">            <path d="M0,239.902c-0.864,-2.177 -3.302,-5.798 -4.568,-7.854c-1.596,-2.597 -3.07,-5.015 -4.608,-7.509c-11.846,-19.216 -5.31,-12.591 -18.419,-17.971c-2.996,-1.23 -5.404,-2.412 -8.255,-3.867c-24.064,-12.279 -45.496,-38.755 -48.85,-72.45c-5.579,-56.034 38.81,-101.669 91.954,-101.676c53.095,-0.007 97.264,45.479 91.991,101.311c-3.17,33.552 -24.789,60.625 -48.624,72.682c-9.935,5.025 -9.396,3.829 -17.2,7.049c-1.891,0.779 -12.276,19.079 -14.195,22.189c-1.313,2.127 -3.831,5.863 -4.719,8.096c24.309,-1.098 46.842,-10.396 64.858,-23.843l8.156,-6.71c6.532,-5.287 15.865,-16.884 20.389,-23.837c51.342,-78.903 -4.661,-185.498 -100.656,-185.506c-65.36,-0.006 -118.084,52.114 -120.009,116.156c-0.759,25.165 6.158,49.213 19.199,69.114c4.392,6.701 8.359,11.458 12.966,16.786l11.348,10.557c1.497,1.284 2.67,2.155 4.164,3.271c18.156,13.551 40.566,22.909 65.078,24.012" style="fill:rgb(136,175,68);"/>        </g>        <g transform="matrix(2.12339,0,0,2.12592,244.297,529.729)">            <path d="M0,-112.143c-9.55,0.917 -18.529,3.632 -25.708,7.658c-23.891,13.394 -37.795,37.854 -35.137,65.722c1.535,16.084 8.957,30.954 20.341,41.945c9.58,-10.047 20.276,-17.046 31.676,-20.26c-9.253,-4.908 -15.667,-14.217 -16.812,-24.477c-2.111,-18.936 11.659,-33.331 28.068,-35.327c18.503,-2.252 33.418,11.905 35.179,27.991c1.575,14.38 -6.209,26.371 -17.288,31.997c11.37,3.352 22.03,10.467 31.565,20.617c14.253,-13.295 22.909,-32.836 20.983,-54.999c-3.021,-34.717 -34.026,-64.59 -72.867,-60.867" style="fill:rgb(136,175,68);"/>        </g>    </g></svg>