<?xml version="1.0" encoding="UTF-8" standalone="no"?><!DOCTYPE svg PUBLIC "-//W3C//DTD SVG 1.1//EN" "http://www.w3.org/Graphics/SVG/1.1/DTD/svg11.dtd"><svg width="100%" height="100%" viewBox="0 0 512 512" version="1.1" xmlns="http://www.w3.org/2000/svg" xmlns:xlink="http://www.w3.org/1999/xlink" xml:space="preserve" style="fill-rule:evenodd;clip-rule:evenodd;stroke-linejoin:round;stroke-miterlimit:2;"><title>InvoiceMarket</title><desc>Invoice Market is Russia's first online auction of receivables. Now, entrepreneurs working with receivables will be able to sell it quickly and profitably and receive money for business development. Invoice Market is an electronic trading platform for attracting financing to a business. Suppliers get the opportunity to auction invoices for which payment from buyers has not yet passed. These invoices are funded by investors who make online offers.</desc>    <g transform="matrix(1.01806,0,0,1.01806,-166.449,154.352)">        <g transform="matrix(1.6764,0,0,1.6764,146.314,-329.312)">            <path d="M90.354,226.358c5.154,-8.927 2.091,-20.359 -6.836,-25.513c-8.927,-5.154 -20.359,-2.091 -25.513,6.836l-44.667,77.365c-5.154,8.927 -2.09,20.359 6.837,25.513c8.927,5.154 20.359,2.091 25.513,-6.836l44.666,-77.365Z" style="fill:rgb(255,192,20);"/>        </g>        <g transform="matrix(1.03157,0.595577,-0.55967,0.969377,-6.30318,-272.933)">            <path d="M462.653,49.044c0,-15.438 -11.778,-27.972 -26.286,-27.972c-14.507,0 -26.285,12.534 -26.285,27.972l0,133.791c0,15.438 11.778,27.971 26.285,27.971c14.508,0 26.286,-12.533 26.286,-27.971l0,-133.791Z" style="fill:rgb(255,192,20);"/>        </g>        <g transform="matrix(1.03157,0.595577,-0.55967,0.969377,141.261,-272.933)">            <path d="M462.653,49.044c0,-15.438 -11.778,-27.972 -26.286,-27.972c-14.507,0 -26.285,12.534 -26.285,27.972l0,133.791c0,15.438 11.778,27.971 26.285,27.971c14.508,0 26.286,-12.533 26.286,-27.971l0,-133.791Z" style="fill:rgb(255,192,20);"/>        </g>        <path d="M599.763,43.061l61.475,106.477c8.64,14.965 3.505,34.129 -11.461,42.77c-14.965,8.64 -34.129,3.505 -42.769,-11.461l-42.521,-73.648l31.347,-54.296c1.822,-3.154 3.122,-6.468 3.929,-9.842Z" style="fill:rgb(88,88,90);"/>        <path d="M485.716,96.41l-28.508,49.378c-3.27,5.663 -4.861,11.838 -4.929,17.946l-32.641,-56.535l31.348,-54.296c1.821,-3.154 3.122,-6.468 3.929,-9.842l30.801,53.349Z" style="fill:rgb(88,88,90);"/>    </g></svg>