<?xml version="1.0" encoding="UTF-8" standalone="no"?><!DOCTYPE svg PUBLIC "-//W3C//DTD SVG 1.1//EN" "http://www.w3.org/Graphics/SVG/1.1/DTD/svg11.dtd"><svg width="100%" height="100%" viewBox="0 0 512 512" version="1.1" xmlns="http://www.w3.org/2000/svg" xmlns:xlink="http://www.w3.org/1999/xlink" xml:space="preserve" style="fill-rule:evenodd;clip-rule:evenodd;stroke-linejoin:round;stroke-miterlimit:2;"><title>Kokos</title><desc>The Blue Services company is part of the Blue Media group, providing solutions for handling electronic transactions and supporting online sales, especially for the banking industry. We automate payments, design and implement extensive online banking services, and create dedicated solutions to improve the sale of banking products.</desc>    <g transform="matrix(3.50533,0,0,3.50533,-199.692,-296.625)">        <path d="M116.973,156.796l-1.273,1.304l29.1,29.3c27.5,27.5 29.2,29.4 29.2,32.8c0,2.8 -0.7,4.2 -3.1,6.2c-3.3,2.8 -5.8,3.2 -9.2,1.5c-1.2,-0.6 -14.9,-13.8 -30.4,-29.2l-28.3,-28.2l0,54.4l-2.6,2c-3.7,2.9 -8.9,2.7 -11.9,-0.4l-2.5,-2.4l0,-66.4c0,-64 0.1,-66.6 1.9,-68.8c2.8,-3.4 10.4,-3.4 13.2,0c1.8,2.2 1.9,4.3 1.9,29.5l0.1,27.1l10.951,-11.103c-1.791,8.047 -1.15,15.303 2.262,21.316l0.66,1.083Z" style="fill:rgb(43,128,25);"/>        <g transform="matrix(0.517728,-0.293806,0.211762,0.373155,43.8731,102.843)">            <path d="M76.369,144.688l40.853,-16.063c43.074,-17.002 67.621,-25.545 70.583,-24.285c5.777,2.404 10.085,9.816 10.436,18.401c0.7,15.29 -1.152,16.511 -72.351,45.136l-63.824,25.578l-0.066,-2.955c0,-16.114 5.08,-31.559 14.369,-45.812Z" style="fill:rgb(145,191,40);"/>        </g>    </g></svg>