<?xml version="1.0" encoding="UTF-8" standalone="no"?><!DOCTYPE svg PUBLIC "-//W3C//DTD SVG 1.1//EN" "http://www.w3.org/Graphics/SVG/1.1/DTD/svg11.dtd"><svg width="100%" height="100%" viewBox="0 0 512 512" version="1.1" xmlns="http://www.w3.org/2000/svg" xmlns:xlink="http://www.w3.org/1999/xlink" xml:space="preserve" style="fill-rule:evenodd;clip-rule:evenodd;stroke-linejoin:round;stroke-miterlimit:2;"><title>auxmoney</title><desc></desc>    <g transform="matrix(1.28538,0,0,1.28588,-35.2121,-32.4336)">        <g transform="matrix(17.0548,0,0,17.0548,-681.149,43.8166)">            <path d="M57.338,11.571l-3.073,4.115l1.921,2.634c1.262,1.591 2.414,2.249 4.718,2.249l3.402,0c0.275,0 0.494,-0.219 0.494,-0.548l0,-3.073c0,-0.274 -0.219,-0.549 -0.494,-0.549l-2.469,-0.11c-0.878,-0.054 -1.207,-0.384 -1.81,-1.042l-2.689,-3.676Z" style="fill:rgb(81,115,141);"/>        </g>        <g transform="matrix(17.0548,0,0,17.0548,-681.149,43.8166)">            <path d="M49.437,9.266l3.072,-4.06l-1.755,-2.305c-1.262,-1.646 -2.415,-2.304 -4.719,-2.304l-3.951,0c-0.274,0 -0.493,0.219 -0.493,0.549l0,3.072c0,0.275 0.219,0.549 0.493,0.549l3.018,0.11c0.878,0.055 1.207,0.384 1.811,1.042l2.524,3.347Z" style="fill:rgb(81,115,141);"/>        </g>        <g transform="matrix(17.0548,0,0,17.0548,-681.149,43.8166)">            <path d="M64.855,1.146c0,-0.33 -0.219,-0.549 -0.494,-0.549l-3.402,0c-2.304,0 -3.402,0.713 -4.718,2.25l-9.328,12.345c-0.604,0.658 -0.933,0.988 -1.811,1.043l-1.207,0.164c-0.274,0 -0.494,0.22 -0.494,0.549l0,3.073c0,0.274 0.22,0.548 0.494,0.548l1.701,0c2.305,0 3.457,-0.658 4.719,-2.249l9.327,-12.346c0.604,-0.658 0.988,-0.988 1.811,-1.042l2.908,-0.11c0.275,0 0.494,-0.22 0.494,-0.549l0,-3.127Z" style="fill:rgb(81,115,141);"/>        </g>    </g></svg>