<?xml version="1.0" encoding="UTF-8" standalone="no"?><!DOCTYPE svg PUBLIC "-//W3C//DTD SVG 1.1//EN" "http://www.w3.org/Graphics/SVG/1.1/DTD/svg11.dtd"><svg width="100%" height="100%" viewBox="0 0 512 512" version="1.1" xmlns="http://www.w3.org/2000/svg" xmlns:xlink="http://www.w3.org/1999/xlink" xml:space="preserve" style="fill-rule:evenodd;clip-rule:evenodd;stroke-linejoin:round;stroke-miterlimit:2;"><title>eMONERO</title><desc>Did you know that the new eMONERO social loans platform gives you the opportunity to earn money on loans granted? Earn more than on bank deposits or investing in currencies or playing on the stock exchange. The expected rate of return is around 9% per annum. The eMONERO system will select the most suitable borrowers for you and grant them a loan by diversifying your funds into small amounts to increase your security.</desc>    <g transform="matrix(2.03025,0,0,2.03025,-5.96377,19.6783)">        <g transform="matrix(1,0,0,1,-260.26,-129.2)">            <path d="M389.33,169.84l125.56,65.16l0,-24c0.001,-6.001 -3.354,-11.524 -8.68,-14.29l-109.5,-56.83c-4.645,-2.41 -10.185,-2.41 -14.83,0l-109.51,56.82c-5.329,2.767 -8.684,8.295 -8.68,14.3l0,69.2c-0.001,6.001 3.354,11.524 8.68,14.29l109.5,56.83c4.645,2.41 10.185,2.41 14.83,0l26.53,-14.32l-70,-36.31l13.22,-7.31l70.39,36.53l27,-13.42l-71.17,-36.93l13.22,-7.31l71.61,37.16l28.68,-14.88c1.477,-0.764 2.826,-1.752 4,-2.93l-120.92,-62.79l-81.53,41.34l0,-59l81.6,-41.31Z" style="fill:rgb(38,140,179);fill-rule:nonzero;"/>        </g>        <path d="M60.04,89.66l0,30.81l69.02,-35l125.57,65.17l0,-30.66l-125.64,-65.2l-68.95,34.88Z" style="fill:rgb(38,140,179);fill-rule:nonzero;"/>    </g></svg>