<?xml version="1.0" encoding="UTF-8" standalone="no"?><!DOCTYPE svg PUBLIC "-//W3C//DTD SVG 1.1//EN" "http://www.w3.org/Graphics/SVG/1.1/DTD/svg11.dtd"><svg width="100%" height="100%" viewBox="0 0 512 512" version="1.1" xmlns="http://www.w3.org/2000/svg" xmlns:xlink="http://www.w3.org/1999/xlink" xml:space="preserve" style="fill-rule:evenodd;clip-rule:evenodd;stroke-linejoin:round;stroke-miterlimit:2;"><title>Earthworm</title><desc>We only invest in projects that will make a positive environmental or social impact – if it’s good for the environment, it’s good for us all.</desc>    <g transform="matrix(1.88882,0,0,1.88882,-9.71905,58.4047)">        <path d="M225.921,81.14c2.012,7.484 3.101,15.346 3.102,23.473c-0.004,24.935 -10.092,47.458 -26.43,63.805c-16.345,16.337 -38.869,26.424 -63.802,26.427c-24.668,-0.003 -46.965,-9.886 -63.267,-25.915c-1.21,0.04 -2.427,0.071 -3.663,0.071c-3.826,0 -7.676,-0.211 -11.533,-0.54c18.55,22.769 46.802,37.32 78.463,37.322c55.875,-0.003 101.165,-45.293 101.168,-101.17c-0.001,-12.941 -2.456,-25.3 -6.885,-36.673c-2.681,4.201 -4.998,8.616 -7.153,13.2" style="fill:rgb(51,178,181);fill-rule:nonzero;"/>        <path d="M56.35,141.293c-4.994,-11.207 -7.79,-23.605 -7.792,-36.681c0.003,-24.933 10.091,-47.457 26.428,-63.804c16.347,-16.336 38.87,-26.424 63.805,-26.427c24.933,0.003 47.457,10.091 63.802,26.427c3.526,3.528 6.739,7.357 9.644,11.421c2.257,-3.133 4.648,-6.031 7.133,-8.771c-18.477,-24.308 -47.688,-40.013 -80.579,-40.014c-55.878,0.002 -101.167,45.292 -101.17,101.168c0,12.225 2.169,23.944 6.142,34.792c4.227,0.751 8.431,1.396 12.587,1.889" style="fill:rgb(51,178,181);fill-rule:nonzero;"/>        <path d="M127.958,121.03c-0.381,-0.529 -0.789,-1.001 -1.155,-1.559c-6.07,-9.23 -8.954,-20.356 -9.908,-31.264c-0.428,-4.894 -0.793,-10.398 0.218,-15.263c2.319,-11.155 16.309,-12.936 21.011,-3.092c7.249,15.173 -1.383,38.041 -10.166,51.178m147.727,-95.762l-5.469,-9.47l-7.633,4.407c-0.258,0.108 -0.515,0.233 -0.776,0.391c-21.521,13.009 -38.914,25.379 -50.617,48.166c-8.354,16.268 -13.406,34.744 -23.811,49.857c-13.041,18.941 -35.53,23.537 -51.801,10.529c7.234,-10.072 12.328,-21.748 14.296,-33.93c2.138,-13.223 1.97,-31.968 -9.287,-41.495c-11.759,-9.948 -27.366,-1.638 -32.427,11.112c-6.19,15.593 -1.889,37.64 4.922,52.311c2.22,4.78 4.927,8.998 7.982,12.674c-27.137,29.617 -66.062,20.086 -102.562,12.389l0.028,-0.142l-10.728,-2.126l-2.127,10.728l4.655,0.923c0.264,0.094 0.537,0.179 0.835,0.241c39.929,8.23 81.498,20.614 114.572,-11.224c1.07,-1.032 2.075,-2.132 3.091,-3.221c20.191,15.844 49.274,13.146 66.812,-11.491c13.491,-18.95 18.436,-42.695 30.994,-62.286c9.631,-15.026 24.628,-23.877 39.569,-32.891l0.01,0.017l9.472,-5.469Z" style="fill:rgb(51,178,181);fill-rule:nonzero;"/>    </g></svg>