<?xml version="1.0" encoding="UTF-8" standalone="no"?><!DOCTYPE svg PUBLIC "-//W3C//DTD SVG 1.1//EN" "http://www.w3.org/Graphics/SVG/1.1/DTD/svg11.dtd"><svg width="100%" height="100%" viewBox="0 0 512 512" version="1.1" xmlns="http://www.w3.org/2000/svg" xmlns:xlink="http://www.w3.org/1999/xlink" xml:space="preserve" style="fill-rule:evenodd;clip-rule:evenodd;stroke-linejoin:round;stroke-miterlimit:2;"><title>CircleWise</title><desc>Connect directly to affiliate programs run by the advertisers themselves. Everything in one place. Full transparency.No losses in margins to re-brokering or vague network fees.Start making bank today!</desc>    <g id="Logo" transform="matrix(11.7799,0,0,11.7799,1,67.5217)">        <path id="Combined-Shape" d="M21.647,1.068c-5.959,2.313 -10.187,8.126 -10.187,14.932c0,6.806 4.228,12.619 10.187,14.932c-1.778,0.69 -3.71,1.068 -5.73,1.068c-8.791,0 -15.917,-7.163 -15.917,-16c0,-8.837 7.126,-16 15.917,-16c2.02,0 3.952,0.378 5.73,1.068Z" style="fill:rgb(208,46,125);"/>        <path id="Combined-Shape1" d="M21.647,30.932c5.959,-2.313 10.187,-8.126 10.187,-14.932c0,-6.806 -4.228,-12.619 -10.187,-14.932c1.778,-0.69 3.71,-1.068 5.73,-1.068c8.791,0 15.917,7.163 15.917,16c0,8.837 -7.126,16 -15.917,16c-2.02,0 -3.952,-0.378 -5.73,-1.068Z" style="fill:rgb(255,185,0);"/>    </g></svg>