<?xml version="1.0" encoding="UTF-8" standalone="no"?><!DOCTYPE svg PUBLIC "-//W3C//DTD SVG 1.1//EN" "http://www.w3.org/Graphics/SVG/1.1/DTD/svg11.dtd"><svg width="100%" height="100%" viewBox="0 0 512 512" version="1.1" xmlns="http://www.w3.org/2000/svg" xmlns:xlink="http://www.w3.org/1999/xlink" xml:space="preserve" style="fill-rule:evenodd;clip-rule:evenodd;stroke-linejoin:round;stroke-miterlimit:2;"><title>Quanloop</title><desc>Quanloop is an investment fund dedicated to wholesale funding. We attract capital from investors like you and act as the main source of financing for our commercial finance intermediary partners, such as leasing or factoring companies, crowdfunding platforms, etc.Quanloop applies a unique business model by sourcing money for only 24 hours and splitting the capital in need into a myriad of tiny credit agreements, each valued at €1.</desc>    <g transform="matrix(1.15334,0,0,1.15334,-39.7273,-70.0345)">        <path d="M477.508,172.139c0,-61.013 -49.535,-110.549 -110.549,-110.549l-221.098,0c-61.013,0 -110.548,49.536 -110.548,110.549l0,221.098c0,61.013 49.535,110.549 110.548,110.549l221.098,0c61.014,0 110.549,-49.536 110.549,-110.549l0,-221.098Z" style="fill:url(#_Linear1);"/>    </g>    <g id="Fill-1" transform="matrix(12.8377,0,0,12.8377,144.261,95.8819)">        <path d="M8.704,15.453c1.21,0 2.29,-0.285 3.241,-0.856c0.949,-0.571 1.701,-1.358 2.254,-2.362c0.553,-1.004 0.83,-2.13 0.83,-3.378c0,-1.268 -0.277,-2.399 -0.83,-3.393c-0.553,-0.994 -1.305,-1.781 -2.254,-2.363c-0.951,-0.581 -2.031,-0.872 -3.241,-0.872c-1.19,0 -2.265,0.291 -3.225,0.872c-0.96,0.582 -1.722,1.369 -2.285,2.363c-0.564,0.994 -0.846,2.125 -0.846,3.393c0,1.248 0.282,2.374 0.846,3.378c0.563,1.004 1.325,1.791 2.285,2.362c0.96,0.571 2.035,0.856 3.225,0.856m7.483,9.483c-0.355,0 -0.647,-0.111 -0.877,-0.333c-0.23,-0.222 -0.344,-0.524 -0.344,-0.904l0,-9.324c-0.689,0.994 -1.597,1.792 -2.724,2.395c-1.127,0.602 -2.39,0.903 -3.788,0.903c-1.608,0 -3.048,-0.385 -4.321,-1.157c-1.274,-0.772 -2.281,-1.824 -3.021,-3.156c-0.742,-1.332 -1.112,-2.832 -1.112,-4.503c0,-1.691 0.381,-3.203 1.143,-4.535c0.762,-1.332 1.8,-2.383 3.115,-3.155c1.315,-0.772 2.797,-1.158 4.446,-1.158c1.628,0 3.094,0.381 4.399,1.142c1.304,0.761 2.338,1.803 3.1,3.124c0.761,1.321 1.163,2.806 1.205,4.455l0,14.969c0,0.38 -0.115,0.682 -0.344,0.904c-0.23,0.222 -0.522,0.333 -0.877,0.333" style="fill:white;"/>    </g>    <defs>        <linearGradient id="_Linear1" x1="0" y1="0" x2="1" y2="0" gradientUnits="userSpaceOnUse" gradientTransform="matrix(365.687,-326.044,326.044,365.687,66.8856,434.48)"><stop offset="0" style="stop-color:rgb(38,91,123);stop-opacity:1"/><stop offset="1" style="stop-color:rgb(89,198,156);stop-opacity:1"/></linearGradient>    </defs></svg>