<?xml version="1.0" encoding="UTF-8" standalone="no"?><!DOCTYPE svg PUBLIC "-//W3C//DTD SVG 1.1//EN" "http://www.w3.org/Graphics/SVG/1.1/DTD/svg11.dtd"><svg width="100%" height="100%" viewBox="0 0 512 512" version="1.1" xmlns="http://www.w3.org/2000/svg" xmlns:xlink="http://www.w3.org/1999/xlink" xml:space="preserve" style="fill-rule:evenodd;clip-rule:evenodd;stroke-linejoin:round;stroke-miterlimit:2;"><title>Bondora</title><desc>Bondora was founded over 10 years ago in the height of the global financial crisis. This was a time when the world was in need of fair finance and a technological revolution. Today, Bondora has served over 80,000 customers who’ve earned more than €33M in interest. We make sure everyone can access the world of investing and earn a reliable net return, without all the complexities. </desc>    <g transform="matrix(66.8405,0,0,66.8405,-5132.49,1331.56)">        <g transform="matrix(0.173472,0,0,0.173472,78.3237,-19.9064)">            <path d="M9.105,18.578l6.79,3.414l6.79,-3.414c5.008,-2.892 5.008,-7.623 0,-10.514l-13.58,-6.83c-5.008,-2.891 -9.105,-0.526 -9.105,5.257l0,13.659c-0.002,0.618 0.051,1.234 0.158,1.842c0.792,-4.409 4.511,-5.976 8.947,-3.414Z" style="fill:rgb(130,225,0);fill-rule:nonzero;"/>        </g>        <g transform="matrix(0.173472,0,0,0.173472,78.3237,-19.9064)">            <path d="M22.686,25.407l-6.79,-3.415l-6.79,3.415c-4.437,2.561 -8.156,0.995 -8.948,-3.415c-0.107,0.608 -0.16,1.225 -0.158,1.842l0,13.66c0,5.782 4.097,8.148 9.105,5.257l13.581,-6.83c5.008,-2.891 5.008,-7.623 0,-10.514Z" style="fill:rgb(110,193,237);fill-rule:nonzero;"/>        </g>        <g transform="matrix(0.173472,0,0,0.173472,78.3237,-19.9064)">            <path d="M9.105,25.407l6.79,-3.415l-6.79,-3.415c-4.436,-2.561 -8.155,-0.995 -8.947,3.415c0.792,4.41 4.511,5.976 8.947,3.415Z" style="fill:rgb(19,170,0);fill-rule:nonzero;"/>        </g>    </g></svg>