<?xml version="1.0" encoding="UTF-8" standalone="no"?><!DOCTYPE svg PUBLIC "-//W3C//DTD SVG 1.1//EN" "http://www.w3.org/Graphics/SVG/1.1/DTD/svg11.dtd"><svg width="100%" height="100%" viewBox="0 0 512 512" version="1.1" xmlns="http://www.w3.org/2000/svg" xmlns:xlink="http://www.w3.org/1999/xlink" xml:space="preserve" style="fill-rule:evenodd;clip-rule:evenodd;stroke-linejoin:round;stroke-miterlimit:2;"><title>Arboribus</title><desc>Arboribus is the pioneering crowdlending platform in Spain with a non-bank financing business model for SMEs. In just over 4 years, since 2013, it has become a benchmark within the sector, a clear and solid alternative to bank loans and ahead of other platforms.</desc>    <g transform="matrix(0.347223,0,0,0.347293,58.6528,-30.7773)">        <path d="M567.2,1557c0.3,-1.6 0.2,-3 -0.2,-3c-0.4,0 0.2,-2.6 1.3,-5.7c1.1,-3.2 2.6,-8.3 3.3,-11.3c1.7,-7 3.5,-13.8 7.4,-27.5c13.8,-48.2 16.3,-62 15.7,-89c-1.4,-67.7 -4.1,-114.5 -8.1,-140c-2.7,-16.9 -6.2,-35.6 -9.1,-48.5c-2.3,-10.8 -4.6,-21.2 -5.6,-25.9c-0.5,-2.4 -1.1,-4.6 -1.3,-4.8c-0.5,-0.5 -6.8,8.2 -10,14c-1.4,2.6 -3.7,6.6 -5,9c-8.9,16.1 -15,44.5 -17.6,82.1c-0.5,7.7 -1.4,15.4 -1.9,17c-0.5,1.7 -1.2,5.8 -1.6,9.1c-0.6,6.3 -1.1,8.8 -4.5,24.5c-2.9,12.8 -4.5,17.8 -8.8,27l-2.2,4.5l0.4,-56.5c0.3,-52.4 0.5,-57.3 2.5,-67.5c2.6,-14 6.4,-29.9 9.6,-40.5c0.9,-3 2.2,-7.7 2.9,-10.5c0.8,-2.7 2.8,-9.5 4.6,-15c1.8,-5.5 3.8,-12 4.6,-14.5c0.7,-2.5 2.3,-7.6 3.4,-11.5c1.2,-3.8 2.8,-9 3.5,-11.5c0.7,-2.5 2.8,-9.2 4.5,-15c4.5,-14.5 4.9,-17.4 4.9,-34.3c0.1,-14.9 -0.3,-16.8 -4.7,-23.7c-0.6,-0.9 -7.6,7.3 -12.8,15.3c-6,9 -16.1,28.3 -18.9,36.2c-1,2.8 -2.2,5.5 -2.6,6c-1.6,2.2 -12.5,36.2 -16.6,51.5c-1.8,6.8 -3.9,14.8 -5.9,22c-0.8,3 -2.1,8 -2.9,11c-4.1,16.6 -9.9,38.3 -11.5,43c-0.5,1.4 -1.8,5.9 -3,10c-1.3,4.1 -2.6,7.9 -3.1,8.4c-0.5,0.6 -0.9,1.6 -0.9,2.4c0,3.9 -12.8,29.5 -17.5,34.9c-1.9,2.3 -3.1,3.8 -5.5,7.3c-1.3,1.9 -2.7,3.7 -3,4c-0.3,0.3 -3,3.6 -6,7.5c-3,3.8 -6.2,7.7 -7,8.6c-6.3,6.7 -21.5,26.6 -29.8,39c-6.5,9.7 -17.2,30 -17.2,32.5c0,0.6 -0.7,2.9 -1.6,4.9c-1.2,2.9 -1.8,3.5 -2.5,2.4c-1.3,-2.1 -1.1,-7.2 0.7,-16.8c2.3,-12.6 3.9,-17.1 13.4,-36.6c3.2,-6.6 6.8,-14.2 8.1,-17c3.5,-7.8 19.5,-40.3 23.3,-47.5c6.8,-12.7 22.3,-45.4 27,-57c1.5,-3.6 3.1,-7.4 3.6,-8.5c2.7,-6 7,-22.1 7.9,-29.5c0.6,-4.7 1.7,-11.9 2.5,-16c0.8,-4.1 2.1,-11.1 2.9,-15.5c0.9,-4.4 2.2,-10.7 3,-14c0.8,-3.3 2.2,-9.3 3.1,-13.4c1.5,-6.8 5.6,-20 7.6,-24.6c0.5,-1.1 2.3,-5.4 4.1,-9.5c3.8,-9.1 9.7,-20.6 16.3,-32c2.7,-4.7 5.4,-9.5 6,-10.7c0.6,-1.3 1.4,-2.3 1.9,-2.3c0.4,0 0.7,-0.4 0.7,-0.9c0,-0.6 1.3,-2.9 2.8,-5.3c1.6,-2.4 5.2,-7.9 8,-12.3c2.8,-4.4 5.5,-8.4 5.9,-9c0.5,-0.5 2,-2.8 3.3,-5c1.3,-2.2 2.6,-4.2 3,-4.5c2.6,-2.4 11.5,-18.6 12.6,-23c1.9,-7.9 1.8,-33.7 -0.1,-40.5c-2.1,-7.1 -4.2,-8.8 -11.6,-9.3l-6,-0.4l-17.2,17.3c-9.5,9.6 -19.7,20.3 -22.7,23.9c-3,3.6 -5.7,6.7 -6,7c-1.5,1.3 -12.1,15.2 -15.7,20.5c-7.5,11.1 -12,24 -13.8,39.5c-1.1,9.6 -4.2,20.8 -13,47.5c-4.7,14.3 -8.9,26.9 -9.4,28c-0.5,1.1 -2.3,5.9 -4,10.6c-2.7,7.8 -6.7,18 -9.1,23.4c-0.5,1.1 -1.9,4.3 -3.1,7c-6.2,14.3 -16.6,35.5 -23.3,47.5c-7.4,13.3 -13.6,27 -13.6,30.1c0,2.3 -6.7,9.9 -8.6,9.9c-0.8,0 -1.4,0.4 -1.4,0.9c0,0.5 -1,1.2 -2.2,1.5c-1.3,0.3 -4.1,3 -6.3,5.9c-9.2,12.1 -34.9,34.7 -39.4,34.7c-0.6,0 -1.1,0.5 -1.1,1c0,0.6 -0.6,1 -1.2,1c-0.7,0 -2.6,0.7 -4.1,1.5c-4.9,2.5 -14.1,4.6 -18.7,4.3l-4.5,-0.3l3,-1.5c3.6,-1.7 11.2,-6.7 14,-9.1c1.1,-1 5,-4.3 8.7,-7.4c3.7,-3.1 7.3,-6.4 8.1,-7.5c0.7,-1.1 3.6,-4.3 6.3,-7.3c12.8,-13.9 27.2,-34.2 41,-57.7c10.3,-17.4 27.5,-52.3 31.9,-64.5c1,-2.7 2.2,-5.4 2.5,-6c2.2,-3.1 9.9,-28.9 10.4,-34.9c0.6,-6.2 4.5,-22.3 9.1,-37.6c0.9,-3 2.1,-7.7 2.7,-10.5c1,-5.2 0.8,-25.9 -0.4,-27c-1.3,-1.4 -10,0.9 -14.3,3.7c-9.5,6.3 -21,26.1 -30.5,52.3c-1.8,5 -3.9,10.4 -4.6,12.2c-0.8,1.7 -1.4,3.4 -1.4,3.8c0,1.5 -12.3,36.2 -14.1,39.7c-0.5,1 -0.9,2.3 -0.9,2.9c0,4.6 -17,36.2 -18.7,34.6c-0.3,-0.3 0.9,-4.5 2.5,-9.4c4.6,-13.3 9.2,-32.5 13.2,-54.3c1,-5.6 3.1,-16.2 5.5,-28c2.2,-10.7 6.2,-26.3 7.5,-29.5c0.5,-1.1 1.4,-3.8 2.1,-6c3.1,-10.2 16.3,-31.6 25,-40.6c7.9,-8 26.3,-24.9 34.9,-31.9c4.1,-3.4 8.6,-7.1 9.9,-8.3c1.4,-1.1 3.9,-3 5.7,-4.2l3.2,-2.1l-5.4,0.4c-5.6,0.5 -11.4,-1.2 -11.4,-3.2c0,-0.6 1.7,-2.1 3.8,-3.4c2,-1.3 5.5,-3.9 7.7,-5.8c5.4,-4.7 13.8,-9.5 20,-11.5l5,-1.6l-5.9,-0.8c-7.3,-1 -31.2,-0.1 -34.6,1.3c-1.4,0.5 -4.5,1.8 -7,2.8c-5.3,2.1 -16.8,8.7 -19.6,11.2c-1,0.9 -4.1,3.4 -6.7,5.5c-6,4.9 -17.9,16.8 -27.7,27.8c-10.5,11.7 -10.8,12.1 -13.9,17.2c-1.2,2 -2.8,3.7 -3.5,3.7c-0.7,0 -5.5,4.2 -10.7,9.3c-7.9,7.9 -11.7,11.2 -22.4,19.6c-3.9,3 -15.8,9.4 -21.4,11.5c-11.5,4.3 -18.6,5.6 -30.4,5.6c-10.1,-0.1 -11,-0.2 -9.3,-1.5c1.1,-0.8 2.9,-1.5 4,-1.5c1.2,0 3.3,-0.6 4.7,-1.4c1.4,-0.7 3.7,-1.6 5.2,-1.9c1.4,-0.4 5.5,-2.1 9,-3.7c3.6,-1.7 7,-3 7.6,-3c0.6,0 1.1,-0.4 1.1,-1c0,-0.5 0.5,-1 1.1,-1c1.1,0 12.8,-6.7 13.9,-7.9c0.3,-0.4 3.7,-3.1 7.6,-6.3c3.9,-3.1 9.5,-8.4 12.5,-11.8c3,-3.5 5.9,-6.8 6.4,-7.4c5.5,-6.2 11.5,-15.8 11.5,-18.2c0,-1.9 -8.2,-0.5 -23.5,3.8c-13.6,3.8 -20.7,5.8 -28.9,7.9c-7.5,1.9 -8.3,0.7 -2.1,-3.1c3.1,-1.9 6.6,-4.3 7.8,-5.2c1.2,-1 2.7,-2.1 3.2,-2.5c0.6,-0.5 5.3,-3.7 10.5,-7.2c5.2,-3.6 11.4,-7.9 13.6,-9.5c2.3,-1.7 5.2,-3.8 6.4,-4.6c1.2,-0.8 4.1,-2.9 6.4,-4.6c5.8,-4.4 47.9,-32.3 55.3,-36.8c3.5,-2.1 8.9,-5 12,-6.7l5.8,-2.9l35.8,0c20.3,0 36.5,-0.4 37.5,-0.9c0.9,-0.6 4,-2 6.7,-3.3c2.8,-1.3 5.2,-2.6 5.5,-2.9c0.3,-0.3 1.2,-0.8 2.1,-1.2c3.1,-1.1 20,-11.9 26.7,-17c14.2,-10.8 28.9,-28.1 40.5,-47.7c10.5,-17.8 13.2,-28.4 13.1,-51.5c0,-17.5 -0.1,-17.7 -5.7,-37c-2,-6.8 -8.5,-25.1 -10.6,-30c-1,-2.2 -2.4,-5.6 -3.1,-7.5c-2.1,-5.5 -4.6,-11.4 -9.9,-23.3c-1.7,-3.8 -3.1,-7.1 -3.1,-7.4c0,-0.2 -1.4,-3.5 -3.1,-7.1c-3.8,-8.2 -10.9,-24.9 -10.9,-25.6c0,-1.1 -17.7,-29.8 -26.2,-42.4c-9.5,-14.2 -23.6,-33.3 -28.8,-39.2c-0.8,-0.9 -4,-4.5 -7,-8.1c-13,-15.1 -35.8,-36 -47.5,-43.4c-1.6,-1.1 -3.2,-2.3 -3.5,-2.7c-0.6,-0.8 -17.7,-9.6 -22.8,-11.7c-3.4,-1.4 -7.5,-2.5 -14.7,-4.1c-2.2,-0.5 -7.5,-0.9 -11.8,-1l-7.9,0l0.5,-6.7c0.3,-3.8 1.2,-9.8 2.2,-13.5l1.7,-6.8l11.3,0c6.2,0 12,-0.3 12.9,-0.6c3.5,-1.4 0.9,-17.3 -3.3,-19.9c-1.7,-1 -12.1,-17.3 -12.1,-19c0,-0.3 1.1,-0.3 2.5,0.1c2.3,0.6 2.5,0.3 2.5,-2.5c0,-1.9 0.5,-3.1 1.3,-3c0.6,0 5.7,5 11.2,11c5.5,6 12.5,12.7 15.5,15.1c3,2.3 5.7,4.4 6,4.7c0.3,0.3 2.8,2.4 5.5,4.6c2.8,2.1 5.2,4.2 5.5,4.5c0.3,0.3 2.7,2.4 5.5,4.5c2.7,2.2 6.1,5 7.5,6.2c8.3,7.1 38.7,29.4 37.7,27.6c-0.4,-0.7 -19.1,-32 -22,-36.8c-0.7,-1 -1.6,-2.5 -2.2,-3.2c-4.6,-5.7 -9.5,-13.1 -9.5,-14.1c0,-1.2 7.5,-0.4 10.3,1c2.8,1.4 2,-0.2 -2.4,-4.5c-5.9,-6 -8.2,-10.9 -8.3,-18.7c-0.1,-6.7 1.1,-10.4 6,-18.2c5,-7.9 15.1,-12 23.7,-9.7c5.5,1.5 13,8.8 16.7,16.3c2.5,5.2 3,7.5 3,13.4c0,6.5 -0.2,7.3 -3.1,10.1c-1.6,1.7 -5.5,4.5 -8.5,6.3c-2.9,1.8 -5.4,3.7 -5.4,4.2c0,0.5 0.9,1.9 1.9,3c1,1.2 6.2,8 11.5,15.1c5.3,7.2 9.9,13.5 10.4,14c4.1,5.2 19.2,32.7 19.2,35.1c0,0.3 0.6,2 1.4,3.7c2.1,4.5 5.2,16.6 7.1,27.7c3.4,19.3 6.6,30 12.3,41.5c4,8 13.2,21.5 14.7,21.5c2.3,0 7,-6.7 8.7,-12.3c0.9,-2.8 1.9,-8.2 2.3,-12c0.6,-6.2 0.5,-6.9 -1.6,-8.6l-2.2,-1.8l1,-21c0.6,-11.6 1.4,-21.6 1.7,-22.2c0.4,-0.6 2.6,-1.1 4.9,-1.1c5.9,0 16.5,-1.8 18.7,-3.2c2.8,-1.8 3.2,-0.6 1.9,4.7c-2.6,10.2 0.7,27 6.9,35.4c5.7,7.8 17.8,17.6 24,19.5c1.6,0.5 2.2,1.5 2.2,3.5c0,4.1 -4.9,9.2 -11.2,11.5c-3.1,1.2 -5.6,2.6 -5.6,3.1c-0.2,1.6 13.7,1 18.9,-0.8c6.5,-2.2 17,-8.4 19.9,-11.7c0.3,-0.3 3,-2.5 6,-5c3,-2.5 5.7,-4.7 6,-5c1.9,-2.2 16,-12.4 21.3,-15.5c6.8,-4 7.7,-5.1 9.9,-12.5l1.3,-4.5l13.5,-0.6c10.5,-0.4 14.8,-1.1 19.4,-2.8c3.2,-1.2 6.2,-2.1 6.7,-1.9c1.1,0.4 -4.6,11.8 -9.9,19.5c-2.3,3.4 -4.2,6.5 -4.2,6.9c0,0.3 -2.1,3.5 -4.7,7c-4.5,6.1 -6.3,7.7 -6.3,5.3c0,-0.5 -2.8,1.4 -6.3,4.3c-3.5,2.9 -7.6,6.2 -9.1,7.3c-1.6,1.1 -3.3,2.5 -4,3c-0.6,0.6 -2.7,2.2 -4.6,3.5c-1.9,1.3 -4.1,2.9 -4.9,3.5c-0.8,0.5 -5.5,5.1 -10.5,10c-11.1,10.9 -14.8,17.7 -17.4,31.5c-1.9,10.3 -2.1,8.7 2.9,31c1.2,5.2 2.5,10 2.8,10.5c0.3,0.6 1.1,3.7 1.7,7c0.6,3.3 2.3,10.5 3.8,16c3.9,14.3 6.5,24.1 8.2,31c0.9,3.3 2.2,8.5 2.9,11.5c6.4,25 6.8,28.1 6.2,43.5c-0.3,7.7 -1,16.3 -1.6,19c-3.4,16.4 -4.1,25.4 -4.1,53.4c0,26.5 0.2,29.2 2.1,34.9l2.1,6.2l59.3,0l5.6,2.9c7.3,3.6 10.7,5.5 20.5,11.3c4.5,2.7 8.4,4.8 8.8,4.8c0.3,0 3.7,2 7.5,4.5c3.8,2.5 7.2,4.5 7.4,4.5c0.3,0 6.3,3.7 13.4,8.1c7,4.5 15.1,9.6 17.8,11.2c2.8,1.7 5.2,3.4 5.5,3.7c0.3,0.3 3.4,2.4 7,4.5c3.6,2.1 6.7,4.2 7,4.5c0.3,0.3 2.3,1.7 4.5,3c2.2,1.3 4.2,2.6 4.5,2.9c0.3,0.4 3.2,2.4 6.5,4.6c3.3,2.2 6.2,4.2 6.5,4.5c0.3,0.3 2.5,1.9 5,3.5c2.5,1.7 5,3.3 5.5,3.7c0.6,0.5 6,4.4 12,8.9c13.1,9.7 12,8.8 11.2,9.6c-0.9,0.9 -19,-5.2 -30.7,-10.3c-1.9,-0.8 -4.4,-1.9 -5.5,-2.4c-1.1,-0.4 -4.9,-2.2 -8.5,-3.8c-18,-8.3 -37.9,-16.5 -47.5,-19.6c-13.4,-4.2 -29.5,-7.4 -29.5,-5.8c0,2.9 7.5,14.4 12.4,19.1c6,5.7 9.5,11.6 9.6,16c0,2.3 3.2,7.3 7.1,11.2c2.7,2.7 42,25.9 54.9,32.4c8.8,4.5 14.9,6.7 26.5,9.7c34.1,8.8 53.9,17.6 70,31.2l3,2.5l-3.2,0.1c-3.9,0 -19.2,-4.9 -28.3,-9.2c-13.1,-6 -18.7,-8.1 -28.5,-10.4c-5.5,-1.3 -11.4,-2.8 -13.1,-3.4c-4.3,-1.4 -5.7,-1.3 -7.6,0.9c-3.6,4.2 -3.3,5.7 3.7,16.2c7.2,11 16.1,25.5 18.7,30.9c11.4,23.5 17.1,36 17.5,39l0.5,3.5l-1.6,-2.9c-5.8,-10.4 -24.3,-38.9 -28.8,-44.2c-13.6,-16.3 -25,-27.7 -41.9,-41.9c-1.3,-1.1 -11.8,-9.2 -23.4,-18c-23.2,-17.5 -28.1,-21.3 -34,-26.5c-10.3,-9 -22.4,-21.3 -29.3,-30c-4.3,-5.2 -8.1,-10 -8.7,-10.6c-0.5,-0.6 -1.7,-2.2 -2.5,-3.4c-0.8,-1.2 -2.2,-3.2 -3.1,-4.4c-3.5,-4.6 -16.2,-26.1 -20.9,-35.6l-5.1,-10l-17.3,0l-17.3,0l0.8,4.8c0.5,2.6 1.3,6.3 1.8,8.2c4.3,15.2 5.6,19.3 7.8,25.5c5.5,14.9 15.8,37.6 17.5,38.3c0.5,0.2 0.8,0.8 0.8,1.3c0,1.3 11.2,18 17.4,25.9c6.8,8.6 11.8,14.5 24.5,28.5c5.1,5.7 16.3,18.5 19.2,21.9c1.3,1.6 3.1,3.7 3.9,4.5c0.8,0.9 2.6,3.2 4,5.1c1.3,1.9 3.3,4.4 4.3,5.5c2.2,2.4 15.7,22.1 15.7,22.9c0,0.4 1.2,2.5 2.7,4.9c2.7,4.3 12.3,23.1 12.3,24.2c0,0.5 2.6,6.6 5,12c1.7,3.6 7,17.9 7,18.8c0,0.5 0.6,2.3 1.4,4c0.8,1.8 3,8.6 5.1,15.2c2,6.6 4,13.1 4.5,14.5c0.5,1.4 1.8,5.9 3,10c1.2,4.1 2.5,8.6 3,10c0.5,1.4 1.8,5.9 3,10c1.2,4.1 2.5,8.6 3,10c0.4,1.4 1.5,4.8 2.3,7.5c3.6,12.2 9.2,29.9 12.9,40.5c2.1,6.3 4.4,13.1 4.9,15c0.6,1.9 1.6,4.9 2.3,6.5c0.7,1.7 1.9,4.6 2.6,6.5c3.2,8.4 11.3,27.9 13.7,32.8c1.5,2.8 2.3,5.5 1.9,5.9c-1,1 -11.9,-11 -17.4,-19.2c-2.6,-3.8 -4.9,-7.2 -5.3,-7.5c-2.5,-2.3 -14.6,-25.1 -20.9,-39.5c-4.3,-9.9 -4.8,-11.1 -6.5,-16c-1,-2.7 -2.1,-5.4 -2.5,-6c-0.4,-0.5 -1.7,-3.9 -3,-7.5c-1.2,-3.6 -2.8,-7.8 -3.5,-9.5c-0.7,-1.6 -2.2,-5.7 -3.3,-9c-1.1,-3.3 -4.4,-12.5 -7.2,-20.5c-2.8,-8 -6.3,-17.9 -7.7,-22c-1.4,-4.1 -2.9,-7.9 -3.3,-8.5c-0.4,-0.5 -1.7,-3.9 -3,-7.5c-1.3,-3.6 -3,-7.6 -3.7,-9c-0.7,-1.4 -1.3,-2.8 -1.3,-3.3c0,-0.6 -8,-18.1 -9.9,-21.7c-6.6,-12.3 -9.3,-16.9 -14.5,-24.5c-3.3,-4.9 -7,-10 -8.2,-11.3l-2.1,-2.3l-3.1,8.3c-2.9,7.9 -13.9,41.4 -16.7,50.8c-11.4,38.7 -14.1,51.3 -13.1,60.8c0.7,6 4,25 5.6,31.7c0.5,2.2 1.8,8.5 3,14c1.2,5.5 2.5,11.8 3,14c0.6,2.2 1.9,8.1 3,13c3.3,14.4 10.3,43.7 12.6,53c3.7,14.8 6.4,24.7 6.9,25.5c0.3,0.6 0,1 -0.7,1c-3,0 -23.2,-34.6 -28.3,-48.5c-1,-2.7 -2.1,-5.4 -2.5,-6c-1.7,-2.6 -6.5,-18 -8,-26.2c-1.3,-6.3 -2.3,-7.3 -3.3,-3.1c-0.3,1.3 -1.4,5.5 -2.5,9.3c-6.7,23.9 -6.7,42.3 0.2,85.5c0.8,5.2 2,12.7 2.5,16.5c0.6,3.9 1.6,9.3 2.2,12c0.5,2.8 1.2,6 1.5,7.3c0.9,4.4 -1.4,2.1 -4.4,-4.5c-4.9,-10.9 -8.9,-21.8 -11.7,-31.8c-0.9,-3.3 -2.3,-8.1 -3.1,-10.7c-0.8,-2.6 -1.9,-8.2 -2.5,-12.5c-0.6,-4.3 -1.5,-10.3 -2.1,-13.3c-1.5,-7.9 -2.2,-59.3 -1,-73.5c2,-23.7 5.3,-54.2 6.7,-62.5c4.2,-23.7 6.5,-35.2 7.3,-36.3c1.3,-1.8 5,-12.3 7.3,-21.2c3.6,-14 8.4,-31.1 12.5,-45c2.5,-8.2 4.4,-15.7 5.6,-21c1.1,-5.4 0.6,-14.1 -1,-17.1c-6.2,-11.4 -19,-30 -25,-36.2c-0.9,-1 -2.6,-3 -3.7,-4.3c-1.1,-1.3 -3.2,-3.9 -4.7,-5.6l-2.6,-3.3l-0.6,2.8c-0.3,1.5 -1,7.2 -1.6,12.7c-1.1,9.5 -3,21.1 -5,30c-2.4,10.6 -5.3,22.5 -6.7,27c-2.7,8.6 -6.5,19.9 -7.3,21.3c-0.4,0.8 -1,-12.7 -1.3,-30c-0.7,-31 -1.2,-39 -4.1,-64.3c-2.8,-24.6 -7.2,-49.9 -11.1,-63.5c-4.9,-17.1 -6.7,-20.9 -15.2,-32.1c-5.6,-7.4 -16.7,-17.7 -19.9,-18.5c-3.3,-0.9 -16.4,0.2 -17.6,1.4c-0.6,0.6 0.4,3.3 2.3,6.8c6.5,12 17.5,34 19.2,38.4c0.9,2.5 1.7,6.6 1.7,9c0,2.5 0.7,7.5 1.4,11.1c0.8,3.6 2,11 2.6,16.5c0.7,5.4 1.4,10.3 1.7,10.7c0.3,0.4 0.9,25.2 1.3,55c1,57.7 1.6,68.1 5.6,90.2c1.4,7.7 3.2,17.6 3.9,22c0.8,4.4 1.7,9 2.1,10.3c0.3,1.2 0.2,2.2 -0.3,2.2c-1.1,0 -6.1,-12 -9.5,-22.5c-1.1,-3.3 -3.2,-8.7 -4.8,-12c-1.6,-3.3 -3.8,-8.5 -5,-11.5c-1.1,-3 -2.5,-6.4 -3,-7.5c-0.8,-1.8 -3.2,-10.1 -6,-20.5c-1.6,-5.8 -4.8,-23.7 -8,-44.5c-1.3,-8.8 -2,-18.5 -2,-30c-0.2,-25.5 -3,-49 -8.2,-68c-0.6,-2.2 -4.4,-10.7 -8.4,-19c-6.9,-14.2 -9.9,-19.8 -17.1,-32.3l-3,-5.3l-1.9,2.8c-1.5,2.3 -1.9,4.6 -1.9,12.3c0,5.2 0.6,12 1.3,15c4.7,20.8 4.5,17.1 5.2,89c0.8,75 0.5,71.1 8.4,106c8.2,36.2 10.4,48.5 12.6,70c0.6,5.8 1.5,14.6 2.1,19.5c1.6,13.1 2.4,140.3 1,153.5c-2.6,24.6 -3.1,28.8 -4.6,34c-0.9,3 -2,6.3 -2.6,7.2c-0.5,1 -0.9,2.3 -0.9,2.9c0,0.6 -0.6,2.5 -1.4,4.2c-0.7,1.8 -2.4,6.1 -3.6,9.7c-2,5.7 -6.4,15.6 -11.9,27c-4.5,9.1 -17.9,32 -18.8,32c-0.3,0 -0.3,-1.3 -0.1,-3Z" style="fill:rgb(0,137,203);fill-rule:nonzero;"/>        <path d="M802.5,665.4c-4.7,-1.2 -11.3,-4 -15,-6.2c-9.2,-5.6 -20.8,-19.1 -25.4,-29.7c-1.2,-2.7 -2.7,-6.1 -3.4,-7.4c-0.7,-1.5 -1.2,-6.9 -1.1,-14c0.1,-10.1 0.4,-12.6 2.9,-19.1c6.4,-17.1 17,-26.8 34.2,-31.1c13.2,-3.3 32,-2.1 41,2.7c1.6,0.7 3.4,1.4 4.1,1.4c0.6,0 1.2,0.5 1.2,1c0,0.6 0.6,1 1.3,1c3.7,0 13.9,10.7 18.6,19.3c10.8,20.2 6.9,47.1 -9.3,64c-7.8,8.2 -19.2,15.7 -23.8,15.7c-0.8,0 -1.9,0.5 -2.5,1.1c-1.1,1.1 -19.4,2.2 -22.8,1.3Z" style="fill:rgb(0,137,203);fill-rule:nonzero;"/>        <path d="M611.2,610c-6.4,-3.7 -11.5,-10.5 -13.7,-18.3c-1.5,-5.3 -1.5,-6.2 -0.1,-11.2c1.9,-6.3 6.2,-11.3 12.6,-14.6c6.2,-3.2 16.9,-3.2 23.1,0c11.7,6 16.6,17 12.4,27.7c-5.4,13.6 -12.2,19.4 -22.7,19.4c-5.2,0 -7.3,-0.6 -11.6,-3Z" style="fill:rgb(0,137,203);fill-rule:nonzero;"/>        <path d="M884.9,592.1c-7.3,-2.4 -12.7,-7.4 -16.9,-15.8c-6.3,-12.3 -1.9,-23.2 12.3,-30.3c11.2,-5.6 22.2,-3.6 30.5,5.5c6.2,6.6 8.6,12 8.6,19c0.1,9.7 -3.5,15.1 -13.4,19.9c-4,1.9 -17.2,3 -21.1,1.7Z" style="fill:rgb(0,137,203);fill-rule:nonzero;"/>        <path d="M710.5,586.3c-5.9,-0.8 -15.1,-4.7 -17.5,-7.3c-0.3,-0.3 -1.7,-1.3 -3.2,-2.3c-4.5,-2.8 -13.2,-14.2 -17.4,-22.5c-3.5,-6.9 -3.9,-8.5 -3.9,-15.2c0,-8.4 1.4,-12.1 7.6,-20.6c4,-5.5 14.7,-15.4 16.6,-15.4c0.6,0 1.3,-0.3 1.5,-0.7c0.6,-1.6 7.5,-4.3 13,-5.3c16.2,-3 32.7,6.4 43.4,24.5c6.4,10.9 7.7,15.3 7.2,23.7c-0.7,10.4 -5.1,18.9 -14.4,27.8c-10.7,10.1 -22.2,14.8 -32.9,13.3Z" style="fill:rgb(0,137,203);fill-rule:nonzero;"/>        <path d="M289.5,567.1c-6.8,-1.1 -12.8,-2.8 -16.2,-4.6c-1.5,-0.8 -3.4,-1.5 -4,-1.5c-0.7,0 -1.3,-0.4 -1.3,-1c0,-0.5 -0.6,-1 -1.3,-1c-3.1,0 -13.3,-9.8 -18.1,-17.3c-2,-3.1 -3.6,-5.9 -3.6,-6.3c0,-0.3 -0.7,-2 -1.5,-3.7c-4.4,-9.7 -5.9,-30 -2.9,-41.9c3,-12.4 7.8,-22.5 14,-29.6l4.4,-5.1l-3.2,-0.4c-2.9,-0.3 -2.8,-0.4 0.9,-0.5c2.8,-0.1 5,-0.9 6.6,-2.5c3.4,-3.1 14,-8.3 20.9,-10.1c8.3,-2.3 25,-2.1 32.1,0.3c8.5,3 15.5,6.7 22.2,11.9c13.1,10.2 19.8,19.4 26.6,36.2c1.8,4.6 2,27.3 0.2,29.2c-0.7,0.6 -1.3,1.8 -1.3,2.6c0,2.3 -4.1,10.4 -8,15.7c-8.8,11.9 -24.7,22.9 -40.5,28c-6,1.9 -19.1,2.7 -26,1.6Z" style="fill:rgb(0,137,203);fill-rule:nonzero;"/>        <path d="M565.5,561.4c-1.1,-0.2 -4,-1 -6.5,-1.6c-13.7,-3.4 -26.6,-13.2 -34.4,-26.2c-10.6,-17.6 -10.9,-39.7 -0.8,-56.7c7.5,-12.8 20.9,-22.3 37,-26.3c8.2,-2.1 26.1,-2.1 33.9,-0.1c17.6,4.5 30,16 36.3,33.5c2,5.5 2.3,8.5 2.4,20c0,11.7 -0.3,14.3 -2.3,20c-6.1,16.7 -20.5,30 -38.6,35.6c-5,1.5 -23.2,2.7 -27,1.8Z" style="fill:rgb(0,137,203);fill-rule:nonzero;"/>        <path d="M939.5,561.3c-13.9,-3.8 -26.1,-16.1 -31.9,-32.1c-3.2,-9 -3.6,-22.2 -0.9,-30.5c5.3,-16.5 18.1,-25.1 39.3,-26.4c16.4,-1 27.9,2.3 36.3,10.2c9.1,8.7 14.1,26.7 11.7,42.2c-2.2,13.8 -11.5,25.1 -26.6,32.4c-8.1,3.9 -9.7,4.3 -17.4,4.5c-4.7,0.2 -9.4,0 -10.5,-0.3Z" style="fill:rgb(0,137,203);fill-rule:nonzero;"/>        <path d="M785,544.1c-7.2,-3.9 -10,-9.6 -10,-20.7c0,-11.7 3.8,-19.4 11.8,-24.1c4.1,-2.5 5.7,-2.8 12.7,-2.7c9.3,0 13.4,1.6 18.7,7.2c4.6,4.8 6.8,10.8 6.8,18.1c0,10.3 -4.6,17.8 -13.5,22c-6.1,2.9 -21.3,2.9 -26.5,0.2Z" style="fill:rgb(0,137,203);fill-rule:nonzero;"/>        <path d="M849.3,532.2c-2.3,-0.9 -5.8,-3 -7.8,-4.7c-3.2,-2.7 -3.5,-3.5 -3.5,-8.3c0,-5.5 2,-9.8 7.4,-15.5c4.1,-4.4 13.3,-8.7 18.7,-8.7c7.8,0 11.7,2.9 14.4,10.6c1.6,4.6 1.6,5.2 0.1,10.6c-2.1,7 -7.4,12.9 -14.1,15.8c-5.6,2.4 -9.6,2.5 -15.2,0.2Z" style="fill:rgb(0,137,203);fill-rule:nonzero;"/>        <path d="M747.3,501c-8,-1.7 -14.5,-7.1 -18.4,-15.5c-2.1,-4.3 -2.4,-6.5 -2.4,-15.5c0,-9.7 0.3,-10.9 2.9,-15.5c6.3,-11.3 13.6,-15.7 25.5,-15.8c12.7,0 20.1,4.8 26.8,17.3c2.9,5.5 3.3,7.2 3.3,13.4c0,4 -0.8,9.4 -1.8,12.4c-2.2,6.6 -8.5,14 -14.3,16.9c-5.1,2.5 -15.4,3.6 -21.6,2.3Z" style="fill:rgb(0,137,203);fill-rule:nonzero;"/>        <path d="M662.7,491.9c-12.3,-2.4 -22.2,-13.8 -24.8,-28.5c-2.4,-13.7 0.6,-28.8 6.5,-32.8c1.2,-0.8 3.9,-3.1 6.1,-5.1c6.5,-5.9 13.8,-8.9 22.7,-9.4c11.6,-0.5 20.7,3.5 30.3,13.3c8.9,9.1 9,9.4 9,24.1c0,12.9 0,13 -3.4,19c-8.7,15.5 -26.8,23.1 -46.4,19.4Z" style="fill:rgb(0,137,203);fill-rule:nonzero;"/>        <path d="M819.5,477.1c-11.4,-2.9 -24.5,-17.1 -24.5,-26.6c0,-7.3 10.3,-21 18.8,-25.1c5.4,-2.5 14.7,-2.3 20.6,0.6c8.4,4.2 16.3,13.2 19,21.7c1.6,4.7 1.6,5.7 0.2,10.1c-1.6,5.7 -4.4,9.2 -10.1,13.1c-7.6,5.2 -17.7,7.8 -24,6.2Z" style="fill:rgb(0,137,203);fill-rule:nonzero;"/>        <path d="M418.6,472.3c-2.2,-7.8 -2.5,-13.1 -1.2,-18.2c0.8,-2.9 1.7,-5.6 2,-5.9c0.6,-0.5 4.5,0.2 16.4,2.9l5.2,1.2l0,17.2l-6.2,2.3c-7.8,2.7 -15.4,3 -16.2,0.5Z" style="fill:rgb(0,137,203);fill-rule:nonzero;"/>        <path d="M881.2,472.1c-17.4,-6.5 -26.5,-24 -23.3,-44.8c2.6,-16.7 12.7,-26.4 30.6,-29.3c16.5,-2.6 33.8,5.4 40.8,19.1c3.2,6.1 5.1,16.5 4.2,23.4c-1.4,11.3 -10.6,23.9 -21.7,30c-4.7,2.6 -6.5,3 -15.3,3.2c-8,0.3 -11.1,-0.1 -15.3,-1.6Z" style="fill:rgb(0,137,203);fill-rule:nonzero;"/>        <path d="M371,461.4c-2.9,-0.6 -4.3,-1.1 -12.3,-5c-4.9,-2.3 -11.4,-8.2 -14.5,-13c-4.8,-7.3 -6.7,-17.1 -5.8,-29.2c0.7,-9.4 2.8,-15.1 7.8,-21.5c9.3,-11.8 18.8,-16.7 32.8,-16.7c8.9,0 15.4,1.9 22.5,6.7c2.8,1.8 7.8,5.2 11.2,7.4c8.9,5.9 11.3,11.1 11.3,24.9c0,15.2 -3.3,25 -11.3,33.7c-8,8.7 -15.8,12 -29.7,12.7c-5.2,0.3 -10.6,0.2 -12,0Z" style="fill:rgb(0,137,203);fill-rule:nonzero;"/>        <path d="M550.2,437.5c-6.4,-2.8 -9.2,-7.5 -9.2,-15.3c0,-6.4 1.5,-11 5,-15.4c1.9,-2.5 2.8,-2.8 8,-2.8c5.7,0 16.5,2.2 20.5,4.2c3.3,1.7 5.5,5.1 5.5,8.5c0,8.1 -7.9,17.7 -17.1,20.6c-6.6,2 -8.4,2.1 -12.7,0.2Z" style="fill:rgb(0,137,203);fill-rule:nonzero;"/>        <path d="M441.2,436.1c-1.9,-0.5 -3.8,-1.3 -4.4,-1.9c-1.7,-1.7 -2.1,-9.6 -0.8,-18.6l1.2,-8.6l21.8,0l0,2.5c0,2 0.5,2.5 2.5,2.5l2.5,0l0,21.6l-3.4,1.2c-4.5,1.6 -15.2,2.3 -19.4,1.3Z" style="fill:rgb(0,137,203);fill-rule:nonzero;"/>        <path d="M593.2,432.5c-2.6,-2.2 -3.2,-3.4 -3.2,-6.5c0,-8.6 10.3,-13.2 16.5,-7.4c2.4,2.2 2.7,3.1 2.2,7.1c-0.6,5.6 -3.1,8.3 -8.4,9c-3.2,0.4 -4.4,0.1 -7.1,-2.2Z" style="fill:rgb(0,137,203);fill-rule:nonzero;"/>        <path d="M290,428c-8.9,-4.8 -17.4,-16.1 -18.6,-24.8c-0.9,-7 1,-12.5 6.4,-18.6c6,-6.8 10,-8.6 19,-8.6c11.9,0 20.2,5.9 26.3,18.6c3.5,7.5 3.6,10 0.4,16.7c-3.4,7.2 -9.6,13.6 -16.5,17c-4.4,2.3 -12.6,2.1 -17,-0.3Z" style="fill:rgb(0,137,203);fill-rule:nonzero;"/>        <path d="M499.4,428c-14,-6.2 -18,-30.9 -6.9,-42.3c3.6,-3.7 10.8,-6.7 16,-6.7c4.6,0 11.7,2.7 14.9,5.7c9.7,8.9 10.1,27.7 0.8,36.8c-8.5,8.3 -16.2,10.4 -24.8,6.5Z" style="fill:rgb(0,137,203);fill-rule:nonzero;"/>        <path d="M740,421.3c-5.8,-1.1 -17.2,-5.5 -19,-7.3c-0.3,-0.3 -2.5,-1.9 -4.9,-3.5c-9.4,-6.3 -18.2,-20.1 -21.7,-33.5c-1.9,-7.4 -1.6,-28.9 0.4,-32.5c0.6,-1.1 2.1,-4.4 3.3,-7.2c1.2,-2.9 2.5,-5.3 3,-5.3c0.4,0 1,-0.8 1.3,-1.7c1.5,-4.5 12.3,-13.8 21.2,-18.2c10.3,-5 16.8,-6.4 29.4,-6.5c12.2,0 16.6,1 26.9,6.1c6.9,3.4 16.6,13.1 21.4,21.3c6,10.3 8.1,18.6 8.1,31.5c-0.1,13.2 -2.4,22.1 -8.3,31.2c-7.5,11.7 -14.6,17.1 -31.6,24.3c-3,1.3 -24.8,2.3 -29.5,1.3Z" style="fill:rgb(0,137,203);fill-rule:nonzero;"/>        <path d="M216.2,419.4c-6.1,-1.7 -11.7,-4.9 -14.9,-8.7c-6.4,-7.5 -8.2,-19.6 -4.2,-27.2c2.4,-4.6 12.2,-14.5 14.3,-14.5c0.8,0 1.6,-0.6 1.9,-1.2c0.2,-0.9 2.9,-1.3 8.8,-1.3c8,0 8.6,0.2 13.2,3.4c16.5,11.9 18.2,36.8 3.2,46.1c-3.7,2.3 -12,5 -15,4.9c-1.1,0 -4.4,-0.7 -7.3,-1.5Z" style="fill:rgb(0,137,203);fill-rule:nonzero;"/>        <path d="M636.5,415.7c-2.7,-0.7 -5.8,-2.8 -9.6,-6.6c-6.6,-6.6 -8.6,-12.5 -7.5,-21.9c1.5,-12.8 11.1,-20.2 26.4,-20.2c15.5,0 23.2,7.6 23.2,22.7c0,20.8 -13,31.2 -32.5,26Z" style="fill:rgb(0,137,203);fill-rule:nonzero;"/>        <path d="M945.8,415.7c-13.8,-4.4 -22.5,-21.3 -18,-34.8c2.9,-8.5 12.8,-13.9 25.6,-13.9c11.8,0 17.7,3.5 21.7,12.8c2.3,5.3 2.4,12.6 0.3,19.8c-2.1,7.3 -9.2,14.6 -15.7,16.3c-5.6,1.4 -9.1,1.3 -13.9,-0.2Z" style="fill:rgb(0,137,203);fill-rule:nonzero;"/>        <path d="M850.2,386.3c-4.5,-2.2 -11.7,-9.6 -13.9,-14.1c-2.6,-5.3 -2.3,-15.5 0.4,-20.7c4.7,-8.9 12.3,-13 23.8,-12.9c9.8,0.1 15.4,2.7 20,9.2c2.8,4.1 3,4.9 3,14.1c0,6.6 -0.5,10.8 -1.5,12.7c-2.3,4.6 -7.1,9.4 -11.7,11.5c-5.3,2.4 -15.4,2.5 -20.1,0.2Z" style="fill:rgb(0,137,203);fill-rule:nonzero;"/>        <path d="M434.5,382.9c-22.8,-8.2 -35.3,-30 -31.7,-55.3c0.7,-4.6 1.9,-9.7 2.7,-11.3c0.8,-1.5 1.5,-3.4 1.5,-4c0,-0.7 0.5,-1.3 1,-1.3c0.6,0 1,-0.6 1,-1.3c0,-1.3 3.8,-6.4 7.1,-9.6c10.8,-10.7 26.3,-15.3 44.1,-13.1c26.1,3.1 40.8,20.8 40.8,49c0,9.8 -1.7,18.3 -5.3,25.9c-2.8,6.1 -13,16.2 -18.7,18.5c-2.5,1 -5.4,2.3 -6.5,2.9c-1.1,0.6 -8.2,1.3 -16,1.4c-12.3,0.3 -14.7,0.1 -20,-1.8Z" style="fill:rgb(0,137,203);fill-rule:nonzero;"/>        <path d="M592,381.1c-18.3,-4 -30,-24.7 -27.1,-48.1c1.2,-9.5 4.6,-17.3 9.7,-22.7c14.7,-15.1 43.2,-13.1 54.4,4c5.4,8.3 7.3,14.9 7.3,26.3c0.1,9.5 -0.1,10.5 -3.2,16.9c-6.2,12.6 -20.6,23.3 -32.1,24.1c-3,0.1 -7.1,-0.1 -9,-0.5Z" style="fill:rgb(0,137,203);fill-rule:nonzero;"/>        <path d="M532.7,376c-4.7,-1.2 -8.3,-3.5 -12.5,-8c-5.6,-6 -5.5,-8.3 0.9,-21.9c4.6,-10 10.4,-16.1 15,-16.1c1.6,0 4.7,0.9 6.7,1.9c8.6,4.4 13.1,12.1 13.9,23.8c0.6,8.5 -1.6,14.4 -6.9,18c-3.8,2.5 -11.7,3.6 -17.1,2.3Z" style="fill:rgb(0,137,203);fill-rule:nonzero;"/>        <path d="M271,372.3c-7.9,-1.2 -15.3,-6.6 -19.1,-14c-2,-4 -2.4,-6.2 -2.4,-13.8c0,-11.7 2.2,-16.1 9.9,-19.5c7.4,-3.2 21.9,-3.3 29.3,0c4.6,1.9 5.6,2.9 7.8,7.6c4.2,8.8 3,24.6 -2.5,32c-3.9,5.4 -14.7,9 -23,7.7Z" style="fill:rgb(0,137,203);fill-rule:nonzero;"/>        <path d="M347,363.3c-9.9,-3.3 -17,-11.5 -17,-19.3c0.1,-10.7 8.9,-20.6 19.3,-21.7c10.5,-1.1 18.1,3.3 21,12.1c2.1,6.2 2.1,8.5 0.1,14.6c-3.2,9.9 -15.1,17.2 -23.4,14.3Z" style="fill:rgb(0,137,203);fill-rule:nonzero;"/>        <path d="M918.4,349c-10.7,-2.3 -23.6,-12.4 -28.3,-22.2c-4.4,-9.2 -5,-24.1 -1.4,-35.3c4.3,-13.2 16.1,-25.6 28.4,-29.9c5.8,-2.1 17.7,-2 24.2,0c14.7,4.7 29.7,20.2 34.3,35.4c1.8,6 1.8,11 -0.2,17.8c-3.8,13.1 -14.1,23.5 -30.7,31.2c-7.3,3.5 -18.3,4.7 -26.3,3Z" style="fill:rgb(0,137,203);fill-rule:nonzero;"/>        <path d="M179.1,335.9c-10.1,-2 -18.5,-8.2 -27,-19.8c-6.5,-9 -9.1,-14.8 -9.8,-22.5c-0.8,-8.9 1,-15.3 6.7,-23.3c4.1,-5.9 15.2,-17.3 16.8,-17.3c0.3,0 3.4,-1.4 6.9,-3.1c6.3,-3.1 6.7,-3.1 18.1,-2.7c6.4,0.2 12.6,0.9 13.7,1.6c1.1,0.6 3.6,1.8 5.6,2.7c5,2.2 14.2,10.7 17.1,15.7c3.9,6.8 5,12.3 4.5,23.8c-0.5,12.8 -1.7,17.5 -6.3,24.8c-4.8,7.4 -10.3,12.4 -17.8,16c-9.4,4.7 -18.9,6 -28.5,4.1Z" style="fill:rgb(0,137,203);fill-rule:nonzero;"/>        <path d="M667.3,329.4c-4.9,-2.9 -8.9,-9 -9.9,-15c-0.8,-5.1 1.2,-8.2 10.1,-15.5c6.2,-5.1 12.1,-7.5 15.6,-6.4c2.8,0.9 6.3,4.5 8.2,8.4c3.2,6.5 1.4,21.3 -3.2,26.1c-5.5,5.7 -13.7,6.7 -20.8,2.4Z" style="fill:rgb(0,137,203);fill-rule:nonzero;"/>        <path d="M296,314c-7.9,-0.8 -13.4,-2.2 -18.7,-4.6c-1.7,-0.8 -3.4,-1.4 -3.8,-1.4c-2.8,0 -17.4,-12.1 -23,-19c-6.1,-7.6 -8.5,-11.1 -11.3,-16.2c-11.7,-22.1 -10.7,-44.4 3,-67.1c3.7,-6.2 17.9,-21.7 19.9,-21.7c0.4,0 1.4,-0.6 2.2,-1.4c0.7,-0.8 4.1,-2.8 7.4,-4.5c23.1,-11.6 54.6,-9.1 77.3,6.2c7.7,5.2 22.3,20.7 24.6,26.2c4.4,10 4.9,13.4 4.8,30.5c0,15.7 -0.2,16.9 -3,25.1c-4.5,12.6 -13,24.8 -22.4,31.8c-1.9,1.4 -4,3.1 -4.6,3.7c-1.1,1 -12.5,6.7 -16.9,8.5c-8.2,3.3 -23.9,5 -35.5,3.9Z" style="fill:rgb(0,137,203);fill-rule:nonzero;"/>        <path d="M806,305c-20.8,-2.6 -37.2,-13 -49.7,-31.5c-8.6,-12.7 -12.3,-24.9 -12.3,-40.8c0,-8 1.8,-20.8 3.1,-22.2c0.5,-0.5 0.9,-1.5 0.9,-2.3c0,-4.7 8.9,-19.1 16.7,-26.9c4.8,-4.8 16.9,-13.3 19,-13.3c0.3,0 1.9,-0.6 3.6,-1.4c6.7,-3 15.9,-4.6 27.2,-4.6c17.1,0 29.2,3.2 43.9,11.5c8.2,4.6 9.6,5.9 14.3,12.5c2.9,4.1 5.2,8 5.3,8.7c0,0.6 0.4,1.3 0.9,1.5c0.4,0.2 2.3,4.6 4.2,9.8c3.1,8.8 3.3,10.6 3.7,24.6c0.4,16.1 -0.6,22.6 -4.9,32.2c-5,11.1 -14.9,23 -23.9,28.8c-2.5,1.6 -4.7,3.1 -5,3.4c-0.6,0.6 -5.9,3.2 -11,5.3c-10,4.3 -24.2,6.1 -36,4.7Z" style="fill:rgb(0,137,203);fill-rule:nonzero;"/>        <path d="M516,303.2c-10,-3.7 -15.4,-8.8 -20.3,-19.4c-7.3,-15.4 -4.7,-39.6 5.3,-49.8c4.4,-4.5 10.1,-7.7 16.9,-9.4c7.8,-2 11.7,-2 19.4,0c16.8,4.3 25.9,18 26,39c0.1,9.4 -0.1,10.5 -3.1,16.6c-4.9,10 -12.4,17.2 -22.9,21.9c-7.3,3.4 -14.2,3.7 -21.3,1.1Z" style="fill:rgb(0,137,203);fill-rule:nonzero;"/>        <path d="M601.5,282.6c-6.3,-2.8 -11.5,-9.8 -11.5,-15.4c0,-3.2 2.4,-8.6 4.9,-11.1c3.9,-3.8 7.1,-5.1 12.8,-5.1c10.1,0 15.3,5.2 15.3,15.5c0,6.6 -4.1,12.7 -10.3,15.6c-4.9,2.2 -7.1,2.3 -11.2,0.5Z" style="fill:rgb(0,137,203);fill-rule:nonzero;"/>        <path d="M402.3,281.4c-4.3,-1.8 -9.4,-7.1 -12.2,-12.5c-6.8,-13 -1.4,-31.6 11.1,-38c5,-2.6 15.8,-2.5 21.4,0c4.4,2 9.1,7.2 12.4,13.6c2.7,5.3 2.7,17.3 0.1,23.1c-1.9,4.1 -8.7,10.1 -15.8,13.7c-3.9,2 -12.5,2.1 -17,0.1Z" style="fill:rgb(0,137,203);fill-rule:nonzero;"/>        <path d="M672.5,277.9c-7.6,-1.2 -14.9,-5.5 -21.4,-12.4c-22.1,-23.6 -17.3,-60 9.7,-73.2c5.3,-2.6 6.5,-2.8 18.3,-2.8c7.8,0 13.1,0.4 14,1.1c0.8,0.6 2.5,1.5 3.9,1.9c9.5,2.9 24.1,18.1 28.3,29.5c3.4,9.1 1.3,26 -4.5,36.8c-8.2,15.3 -26.8,22.7 -48.3,19.1Z" style="fill:rgb(0,137,203);fill-rule:nonzero;"/>        <path d="M573.5,235.4c-4.9,-0.8 -13.4,-5.4 -16.4,-9.1c-4.4,-5.3 -6.4,-13.6 -5.9,-23.6c0.6,-11.3 3.7,-18 10.5,-22.1c4.3,-2.7 5.8,-3 15.4,-3.4c9.2,-0.4 11.2,-0.1 15.7,1.8c6,2.6 11.1,7.8 14.4,14.7c1.9,4 2.2,6.5 2.3,14.8c0,8.9 -0.3,10.4 -2.5,14c-2.5,4.2 -7.8,9.5 -9.5,9.5c-0.5,0 -2.3,0.7 -3.9,1.5c-3,1.6 -14.8,2.7 -20.1,1.9Z" style="fill:rgb(0,137,203);fill-rule:nonzero;"/>        <path d="M469.8,232.9c-6.9,-1.6 -13,-9.1 -14.4,-17.6c-0.6,-3.9 -0.4,-4.2 6.1,-10.6c11.5,-11.4 18.3,-13.3 24.5,-6.9c5.2,5.5 6.7,12.7 4.5,21.2c-2,7.6 -3.1,9.6 -7,11.9c-3.9,2.4 -9,3.1 -13.7,2Z" style="fill:rgb(0,137,203);fill-rule:nonzero;"/>        <path d="M412,207.3c-3.2,-0.4 -7,-1.7 -12.9,-4.6c-5.1,-2.5 -11.4,-11.2 -14.9,-20.7c-2.5,-6.7 -2.4,-26.7 0.2,-33.5c2.9,-7.5 11.1,-17.5 14.4,-17.5c0.6,0 1.2,-0.4 1.2,-0.8c0,-1.5 11.8,-4.2 18.2,-4.2c18.7,0 31.5,11.3 34.9,30.5c2.7,15.9 -0.9,28.6 -10.9,38.4c-9.7,9.4 -20,13.7 -30.2,12.4Z" style="fill:rgb(0,137,203);fill-rule:nonzero;"/>        <path d="M490.5,180c-14.6,-4 -25.8,-14.8 -33,-32c-6.6,-15.6 -2.9,-36.3 8.2,-46.5c2,-1.8 6.5,-4.8 10.1,-6.6l6.5,-3.4l15.1,0c15.5,0 20.2,0.9 27.6,5.4c5.5,3.3 12.1,11 15.2,17.7c3.1,6.5 3.2,7.5 3.3,18.9c0,11.1 -0.2,12.4 -2.7,17.5c-8.6,17.5 -35.7,33.1 -50.3,29Z" style="fill:rgb(0,137,203);fill-rule:nonzero;"/>        <path d="M619.5,176.4c-6.7,-3.5 -11.5,-10.9 -11.5,-17.9c0,-3.5 0.7,-4.6 6.5,-10.1c6.4,-6.1 13.6,-10.4 17.4,-10.4c3,0 8.1,4.9 10.2,9.8c4.5,10.4 -0.2,26 -8.9,29.3c-3.6,1.4 -10.4,1.1 -13.7,-0.7Z" style="fill:rgb(0,137,203);fill-rule:nonzero;"/>    </g></svg>