<?xml version="1.0" encoding="UTF-8" standalone="no"?><!DOCTYPE svg PUBLIC "-//W3C//DTD SVG 1.1//EN" "http://www.w3.org/Graphics/SVG/1.1/DTD/svg11.dtd"><svg width="100%" height="100%" viewBox="0 0 512 512" version="1.1" xmlns="http://www.w3.org/2000/svg" xmlns:xlink="http://www.w3.org/1999/xlink" xml:space="preserve" style="fill-rule:evenodd;clip-rule:evenodd;stroke-linejoin:round;stroke-miterlimit:2;"><title>Dansk LåneFormidling</title><desc>Danish Mortgage Brokerage is the pioneer in so-called peer-to-peer lending, which uses the Internet to cut banks completely out of lending. It matches savers with companies that want to borrow, omits the bank and offers better rates and terms all around.</desc>    <g transform="matrix(4.90385,0,0,4.90385,1,3.50461)">        <path d="M0,4c0,0 10.004,11.509 9,23.475c-1.004,11.967 -5,27.525 -5,27.525l27,-11l0,-25c0,0 23.471,-4.288 28,1c4.529,5.288 5.353,10.465 5,13c8.515,-1.198 40,-14 40,-14c0,0 -6.442,-17.414 -27,-18c-20.558,-0.586 -41.055,5.018 -52.701,4.744c-11.646,-0.274 -24.299,-1.744 -24.299,-1.744Z" style="fill:url(#_Linear1);"/>        <path d="M5.958,62.748l0,9.901c0,0 74.769,-18.552 84.042,-24.649c11.853,-7.794 13.175,-17.504 13.175,-17.504l-97.217,32.252Z" style="fill:url(#_Linear2);"/>        <path d="M35,72c-9.841,2.489 -28,6 -28,6c0,0 5.722,18.779 19.366,22.212c9.979,2.51 19.892,2.314 34.616,0c20.602,-3.238 30.018,-10.212 30.018,-10.212l0,-5c0,0 -10.358,3.248 -30.018,2.292c-10.62,-0.517 -22.044,-5.95 -25.982,-15.292Z" style="fill:url(#_Linear3);"/>    </g>    <defs>        <linearGradient id="_Linear1" x1="0" y1="0" x2="1" y2="0" gradientUnits="userSpaceOnUse" gradientTransform="matrix(-50.5811,39.053,-39.053,-50.5811,55.9446,11.3248)"><stop offset="0" style="stop-color:rgb(6,117,144);stop-opacity:1"/><stop offset="1" style="stop-color:rgb(0,56,69);stop-opacity:1"/></linearGradient>        <linearGradient id="_Linear2" x1="0" y1="0" x2="1" y2="0" gradientUnits="userSpaceOnUse" gradientTransform="matrix(-36.2683,13.3348,-13.3348,-36.2683,49.9616,54.9051)"><stop offset="0" style="stop-color:rgb(6,117,144);stop-opacity:1"/><stop offset="1" style="stop-color:rgb(0,56,69);stop-opacity:1"/></linearGradient>        <linearGradient id="_Linear3" x1="0" y1="0" x2="1" y2="0" gradientUnits="userSpaceOnUse" gradientTransform="matrix(84,0,-0,84,7,87.0108)"><stop offset="0" style="stop-color:rgb(150,190,61);stop-opacity:1"/><stop offset="1" style="stop-color:rgb(192,217,137);stop-opacity:1"/></linearGradient>    </defs></svg>