<?xml version="1.0" encoding="UTF-8" standalone="no"?><!DOCTYPE svg PUBLIC "-//W3C//DTD SVG 1.1//EN" "http://www.w3.org/Graphics/SVG/1.1/DTD/svg11.dtd"><svg width="100%" height="100%" viewBox="0 0 512 512" version="1.1" xmlns="http://www.w3.org/2000/svg" xmlns:xlink="http://www.w3.org/1999/xlink" xml:space="preserve" style="fill-rule:evenodd;clip-rule:evenodd;stroke-linejoin:round;stroke-miterlimit:2;"><title>Crowdimo</title><desc>Crowdimo Invest is a Real Estate Crowdfunding platform that offers everyone the opportunity to become an investor, from 1000 €. Invest according to your budget in real estate renovation projects or real estate development and build today your heritage tomorrow.</desc>    <g transform="matrix(1.63427,0,0,1.63427,-383.899,-76.6633)">        <g transform="matrix(0.972167,0,0,0.972167,2.19686,55.9098)">            <path d="M304.7,233.3c-0.4,-0.3 -0.7,-15.6 -0.7,-34l0,-33.3l6,0l0,68l-2.3,0c-1.3,0 -2.7,-0.3 -3,-0.7Z" style="fill:rgb(43,157,192);fill-rule:nonzero;"/>        </g>        <g transform="matrix(0.972167,0,0,0.972167,2.19686,55.9098)">            <path d="M365,270l0,-174l4.3,0.6c8.5,1.3 7.7,-8.2 7.7,87.9l0,85.5l-12,0Z" style="fill:rgb(43,157,192);fill-rule:nonzero;"/>        </g>        <path d="M429.451,87.603l-54.233,19l0,212.903l54.233,0l0,-231.903Z" style="fill:rgb(43,157,192);"/>        <g transform="matrix(0.663079,0,0,0.725918,65.2202,85.1466)">            <path d="M429.451,87.603l-54.233,19l0,212.903l54.233,0l0,-231.903Z" style="fill:rgb(43,157,192);"/>        </g>        <g transform="matrix(0.972167,0,0,0.972167,2.19686,55.9098)">            <path d="M447,152.5c0,-104.9 0.2,-117.5 1.5,-117.5c2.3,0 13.3,3.7 19,6.5c2.8,1.3 5.8,2.6 6.8,2.9c1.6,0.5 1.7,6.8 1.7,113.1l0,112.5l-29,0l0,-117.5Z" style="fill:rgb(43,157,192);fill-rule:nonzero;"/>        </g>        <g transform="matrix(0.972167,0,0,0.972167,2.19686,55.9098)">            <path d="M499,268l0,-131l9,0l0,131l-9,0Z" style="fill:rgb(43,157,192);fill-rule:nonzero;"/>        </g>        <g transform="matrix(0.972167,0,0,0.972167,2.19686,55.9098)">            <path d="M554.7,263.3c-0.4,-0.3 -0.7,-10.9 -0.7,-23.5l0,-22.8l7,0l0,47l-2.8,0c-1.6,0 -3.2,-0.3 -3.5,-0.7Z" style="fill:rgb(43,157,192);fill-rule:nonzero;"/>        </g>        <g transform="matrix(0.972167,0,0,0.972167,2.19686,55.9098)">            <path d="M240,259l0,-23l6,0l0,23l-6,0Z" style="fill:rgb(43,157,192);fill-rule:nonzero;"/>        </g>        <g transform="matrix(0.972167,0,0,0.972167,2.19686,55.9098)">            <path d="M275.2,220.8l0.3,-27.3l9,0l0.3,27.3l0.2,27.2l-10,0l0.2,-27.2Z" style="fill:rgb(43,157,192);fill-rule:nonzero;"/>        </g>        <g transform="matrix(0.972167,0,0,0.972167,2.19686,55.9098)">            <path d="M365,270l0,-174l4.3,0.6c8.5,1.3 7.7,-8.2 7.7,87.9l0,85.5l-12,0Z" style="fill:rgb(141,173,184);fill-rule:nonzero;"/>        </g>        <g transform="matrix(0.972167,0,0,0.972167,2.19686,55.9098)">            <path d="M447,152.5c0,-104.9 0.2,-117.5 1.5,-117.5c2.3,0 13.3,3.7 19,6.5c2.8,1.3 5.8,2.6 6.8,2.9c1.6,0.5 1.7,6.8 1.7,113.1l0,112.5l-29,0l0,-117.5Z" style="fill:rgb(141,173,184);fill-rule:nonzero;"/>        </g>        <g transform="matrix(0.972167,0,0,0.972167,2.19686,55.9098)">            <path d="M240,259l0,-23l6,0l0,23l-6,0Z" style="fill:rgb(141,173,184);fill-rule:nonzero;"/>        </g>        <g transform="matrix(0.972167,0,0,0.972167,2.19686,55.9098)">            <path d="M524,234l0,-59l8,0l0,59l-8,0Z" style="fill:rgb(141,173,184);fill-rule:nonzero;"/>        </g>        <g transform="matrix(0.972167,0,0,0.972167,2.19686,55.9098)">            <path d="M480.7,210.4c-0.4,-0.4 -0.7,-23.6 -0.7,-51.4c0,-42.6 0.2,-50.9 1.4,-51.9c0.9,-0.7 3.8,-1.1 7.3,-0.9l5.8,0.3l0,104l-6.5,0.3c-3.6,0.2 -6.9,0 -7.3,-0.4Z" style="fill:rgb(141,173,184);fill-rule:nonzero;"/>        </g>    </g></svg>