<?xml version="1.0" encoding="UTF-8" standalone="no"?><!DOCTYPE svg PUBLIC "-//W3C//DTD SVG 1.1//EN" "http://www.w3.org/Graphics/SVG/1.1/DTD/svg11.dtd"><svg width="100%" height="100%" viewBox="0 0 512 512" version="1.1" xmlns="http://www.w3.org/2000/svg" xmlns:xlink="http://www.w3.org/1999/xlink" xml:space="preserve" style="fill-rule:evenodd;clip-rule:evenodd;stroke-linejoin:round;stroke-miterlimit:2;"><title>WeCan.Fund</title><desc>WeCan.Fund connects investors to Swiss SMEs seeking crowdfunded loans in a secure, user-friendly, transparent platform.We co-create, run and scale joint ventures to transform socio-economic paradigms through pioneering blockchain solutions.</desc>    <g transform="matrix(1.90565,0,0,1.90565,-93.1147,-146.712)">        <g transform="matrix(0.615844,0,0,0.615844,33.0666,48.752)">            <path d="M461.068,65.329c0,-10.281 -8.347,-18.627 -18.627,-18.627l-397.312,0c-10.281,0 -18.628,8.346 -18.628,18.627l0,397.312c0,10.281 8.347,18.627 18.628,18.627l397.312,0c10.28,0 18.627,-8.346 18.627,-18.627l0,-397.312Z" style="fill:rgb(220,6,28);"/>        </g>        <g transform="matrix(1.15388,0,0,1.02231,-41.1978,-8.50163)">            <path d="M271.784,160.119c0,-10.86 -7.812,-19.677 -17.434,-19.677c-9.622,0 -17.434,8.817 -17.434,19.677l0,109.823c0,10.86 7.812,19.678 17.434,19.678c9.622,0 17.434,-8.818 17.434,-19.678l0,-109.823Z" style="fill:rgb(255,216,216);"/>        </g>        <g transform="matrix(1.0801,0,0,0.923868,-73.1664,16.2621)">            <path d="M271.784,160.823c0,-11.249 -7.812,-20.381 -17.434,-20.381c-9.622,0 -17.434,9.132 -17.434,20.381l0,108.415c0,11.249 7.812,20.382 17.434,20.382c9.622,0 17.434,-9.133 17.434,-20.382l0,-108.415Z" style="fill:rgb(255,216,216);"/>        </g>        <g transform="matrix(1.08542,0,0,0.835176,-124.524,39.8689)">            <path d="M271.784,163.099c0,-12.505 -7.812,-22.657 -17.434,-22.657c-9.622,0 -17.434,10.152 -17.434,22.657l0,103.863c0,12.505 7.812,22.658 17.434,22.658c9.622,0 17.434,-10.153 17.434,-22.658l0,-103.863Z" style="fill:rgb(255,216,216);"/>        </g>        <g transform="matrix(0.856424,0,0,0.635041,-108.91,85.1991)">            <path d="M271.784,163.953c0,-12.976 -7.812,-23.511 -17.434,-23.511c-9.622,0 -17.434,10.535 -17.434,23.511l0,102.155c0,12.977 7.812,23.512 17.434,23.512c9.622,0 17.434,-10.535 17.434,-23.512l0,-102.155Z" style="fill:rgb(255,216,216);"/>        </g>    </g></svg>