<?xml version="1.0" encoding="UTF-8" standalone="no"?><!DOCTYPE svg PUBLIC "-//W3C//DTD SVG 1.1//EN" "http://www.w3.org/Graphics/SVG/1.1/DTD/svg11.dtd"><svg width="100%" height="100%" viewBox="0 0 512 512" version="1.1" xmlns="http://www.w3.org/2000/svg" xmlns:xlink="http://www.w3.org/1999/xlink" xml:space="preserve" style="fill-rule:evenodd;clip-rule:evenodd;stroke-linejoin:round;stroke-miterlimit:2;"><title>BacktoWork</title><desc>BacktoWork is the main equity crowdfunding platform in Italy that favors the investment in startups, SMEs and real estate projects by private and professional investors.</desc>    <g transform="matrix(2.13433,0,0,2.13433,27.9578,-290.388)">        <g transform="matrix(1.38776,0,0,1.38776,2,136.508)">            <path d="M39.7,92.8l-39.6,0l0,21.9l38.9,0c6,0.2 11.1,-4.6 11.3,-10.6c0.2,-6 -4.6,-11.1 -10.6,-11.3Z" style="fill:rgb(255,60,77);fill-rule:nonzero;"/>        </g>        <g transform="matrix(1.38776,0,0,1.38776,2,136.508)">            <path d="M48.6,61.8c-2,-3.4 -5.6,-5.5 -9.6,-5.4l-38.9,0l0,21.9l38.9,0c6,0.1 11,-4.8 11,-10.8c0.1,-2.1 -0.4,-4 -1.4,-5.7Z" style="fill:rgb(255,60,77);fill-rule:nonzero;"/>        </g>        <g transform="matrix(1.38776,0,0,1.38776,2,136.508)">            <path d="M147.6,127.2c-9.4,4 -20.3,2.1 -27.7,-4.9l-0.7,-0.7l-0.7,0.7c-10.2,9.7 -26.4,9.3 -36.1,-1c-4.5,-4.7 -7,-11 -7,-17.6l0,-62l14.6,0l0,62c0.2,6 5.2,10.8 11.3,10.6c5.8,-0.2 10.4,-4.8 10.6,-10.6l0,-62l14.6,0l0,62c-0.2,6 4.6,11.1 10.6,11.3c6,0.2 11.1,-4.6 11.3,-10.6l0,-62.4c-24.3,-40.8 -77.2,-54.2 -118.1,-29.8c-12.1,7.2 -22.3,17.4 -29.6,29.5l38.3,0c14.1,0 25.5,11.4 25.6,25.5c0,6.5 -2.5,12.8 -7,17.6l-0.7,0.7l0.7,0.7c9.7,10.2 9.3,26.4 -1,36.1c-4.8,4.5 -11.1,7 -17.6,7l-39,0c23.9,41.1 76.6,55.1 117.7,31.3c14.3,-8.3 25.9,-20.5 33.4,-35.2c-1.1,0.7 -2.3,1.3 -3.5,1.8Z" style="fill:rgb(255,60,77);fill-rule:nonzero;"/>        </g>    </g></svg>