<?xml version="1.0" encoding="UTF-8" standalone="no"?><!DOCTYPE svg PUBLIC "-//W3C//DTD SVG 1.1//EN" "http://www.w3.org/Graphics/SVG/1.1/DTD/svg11.dtd"><svg width="100%" height="100%" viewBox="0 0 512 512" version="1.1" xmlns="http://www.w3.org/2000/svg" xmlns:xlink="http://www.w3.org/1999/xlink" xml:space="preserve" style="fill-rule:evenodd;clip-rule:evenodd;stroke-linejoin:round;stroke-miterlimit:2;"><title>Procentas</title><desc></desc>    <g transform="matrix(1,0,0,1,-36.573,42.0648)">        <g transform="matrix(9.80309,0,0,9.80309,-20.1975,-980.326)">            <path d="M57.917,109.208c0,-3.44 -2.792,-6.233 -6.232,-6.233l-39.559,0c-3.44,0 -6.233,2.793 -6.233,6.233l0,25.234c0,3.44 2.793,6.233 6.233,6.233l39.559,-0c3.44,-0 6.232,-2.793 6.232,-6.233l0,-25.234Z" style="fill:rgb(143,176,197);"/>        </g>        <g transform="matrix(384.091,0,0,384.091,155.837,348.175)">            <path d="M0.069,-0.665c0.032,-0.031 0.07,-0.047 0.115,-0.047c0.045,0 0.083,0.016 0.114,0.047c0.032,0.031 0.048,0.068 0.048,0.112c0,0.044 -0.016,0.082 -0.047,0.113c-0.032,0.031 -0.07,0.046 -0.115,0.046c-0.045,0 -0.083,-0.015 -0.114,-0.046c-0.032,-0.031 -0.048,-0.069 -0.048,-0.113c0,-0.044 0.016,-0.081 0.047,-0.112Zm0.115,0.194c0.023,0 0.043,-0.008 0.058,-0.023c0.015,-0.016 0.023,-0.036 0.023,-0.059c0,-0.023 -0.008,-0.043 -0.023,-0.058c-0.015,-0.016 -0.035,-0.024 -0.058,-0.024c-0.024,0 -0.044,0.008 -0.059,0.024c-0.015,0.015 -0.023,0.035 -0.023,0.058c-0,0.023 0.008,0.043 0.023,0.059c0.015,0.015 0.035,0.023 0.059,0.023Zm0.229,0.212c0.032,-0.031 0.07,-0.047 0.115,-0.047c0.045,0 0.083,0.016 0.114,0.046c0.032,0.032 0.048,0.069 0.048,0.113c0,0.044 -0.016,0.082 -0.048,0.113c-0.031,0.031 -0.069,0.046 -0.114,0.046c-0.045,0 -0.083,-0.015 -0.114,-0.046c-0.032,-0.031 -0.048,-0.069 -0.048,-0.113c-0,-0.044 0.016,-0.081 0.047,-0.112Zm0.115,0.194c0.023,0 0.043,-0.008 0.058,-0.023c0.015,-0.016 0.023,-0.036 0.023,-0.059c-0,-0.023 -0.008,-0.043 -0.023,-0.059c-0.015,-0.015 -0.035,-0.023 -0.058,-0.023c-0.024,-0 -0.044,0.008 -0.059,0.023c-0.015,0.016 -0.023,0.036 -0.023,0.059c0,0.023 0.008,0.043 0.023,0.058c0.015,0.016 0.035,0.024 0.059,0.024Zm-0.439,0.058l0.471,-0.724l0.057,0.039l-0.471,0.724l-0.057,-0.039Z" style="fill-rule:nonzero;"/>        </g>    </g></svg>