<?xml version="1.0" encoding="UTF-8" standalone="no"?><!DOCTYPE svg PUBLIC "-//W3C//DTD SVG 1.1//EN" "http://www.w3.org/Graphics/SVG/1.1/DTD/svg11.dtd"><svg width="100%" height="100%" viewBox="0 0 512 512" version="1.1" xmlns="http://www.w3.org/2000/svg" xmlns:xlink="http://www.w3.org/1999/xlink" xml:space="preserve" style="fill-rule:evenodd;clip-rule:evenodd;stroke-linejoin:round;stroke-miterlimit:2;"><title>Funderbeam</title><desc>Funderbeam is a global funding and trading platform. We connect a diverse investor network with highly vetted growth companies across international markets and, through ‘The Marketplace’, allow private investments to be traded.We’re on a mission to shake up traditional models of funding &amp; trading of private companies.</desc>    <g transform="matrix(2.55,0,0,2.55,-1031.84,-44.9)">        <g transform="matrix(1.83546,0,0,1.02564,-521.935,-0.461538)">            <rect x="505.035" y="18" width="108.965" height="195" style="fill:rgb(9,32,95);"/>        </g>        <g id="Fill-1" transform="matrix(9.85507,0,0,9.85507,-873.689,-869.71)">            <path d="M150.047,92.512l-10.147,2.688l10.147,0l0,-2.688Z" style="fill:rgb(236,30,121);fill-rule:nonzero;"/>        </g>        <g id="Fill-2" transform="matrix(11.468,0,0,11.468,-455.937,-1042.34)">            <path d="M78.1,106.8l1.4,0l0,-6.3l-1.5,0l0,-1.3l1.5,0l0,-0.4c0,-2.9 2.1,-3.2 3.2,-3.2l0.9,0l0,1.4c0,0 -0.2,-0.1 -0.6,-0.1c-0.5,0 -1.7,0.1 -1.7,1.8l0,0.4l2.1,0l0,1.3l-2.1,0l0,6.3l1.6,0l0,1.3l-4.7,0l-0.1,-1.2" style="fill:white;fill-rule:nonzero;"/>        </g>    </g></svg>