<?xml version="1.0" encoding="UTF-8" standalone="no"?><!DOCTYPE svg PUBLIC "-//W3C//DTD SVG 1.1//EN" "http://www.w3.org/Graphics/SVG/1.1/DTD/svg11.dtd"><svg width="100%" height="100%" viewBox="0 0 512 512" version="1.1" xmlns="http://www.w3.org/2000/svg" xmlns:xlink="http://www.w3.org/1999/xlink" xml:space="preserve" style="fill-rule:evenodd;clip-rule:evenodd;stroke-linejoin:round;stroke-miterlimit:2;"><title>Monify</title><desc>Monify supports small-medium enterprises by providing unsecured on-line business loans of up to 250'000 EUR in 1 business hour.</desc>    <g id="layer101" transform="matrix(2.2467,0,0,2.2467,-55.1674,-22.5903)">        <path id="layer104" d="M25,139.5c0,-45.9 0.2,-83.5 0.5,-83.5c0.3,0 14.5,5.7 31.5,12.6l31,12.7l0,141.7l-31.5,0l-31.5,0l0,-83.5Z" style="fill:rgb(164,207,89);fill-rule:nonzero;"/>        <path d="M189.2,136.3l0.3,-86.7l30,-12.2c16.5,-6.8 30.6,-12.3 31.3,-12.4c0.9,0 1.2,20.4 1.2,99l0,99l-31.5,0l-31.5,0l0.2,-86.7Z" style="fill:rgb(0,172,108);fill-rule:nonzero;"/>        <path d="M107.2,122.4l0.3,-37.6l30.4,-12.4c16.7,-6.8 30.8,-12.4 31.2,-12.4c0.5,0 0.9,22.5 0.9,50l0,50l-31.5,0l-31.5,0l0.2,-37.6Z" style="fill:rgb(109,192,104);fill-rule:nonzero;"/>    </g></svg>