<?xml version="1.0" encoding="UTF-8" standalone="no"?><!DOCTYPE svg PUBLIC "-//W3C//DTD SVG 1.1//EN" "http://www.w3.org/Graphics/SVG/1.1/DTD/svg11.dtd"><svg width="100%" height="100%" viewBox="0 0 512 512" version="1.1" xmlns="http://www.w3.org/2000/svg" xmlns:xlink="http://www.w3.org/1999/xlink" xml:space="preserve" style="fill-rule:evenodd;clip-rule:evenodd;stroke-linejoin:round;stroke-miterlimit:2;"><title>TFG Crowd</title><desc>The goal of TFGCROWD is simple: make crowdfunding simpler, more transparent, and as safe as possible for our business and investor partners. We do this by providing services that carefully target the interests of entrepreneurs and stakeholders, and by offering a platform for collaboration that maximises the gains for all parties involved. So whether you’re a business looking for financing solutions, or an investor looking for promising projects to take part in, TFGCROWD has something to offer you.</desc>    <g transform="matrix(1.2,0,0,1.2,-66.2,-33.8)">        <g id="path4192" transform="matrix(1,0,0,1,56,29)">            <path d="M345,425l-265,0c-44,0 -80,-36 -80,-80l0,-265c0,-44 36,-80 80,-80l265,0c44,0 80,36 80,80l0,265c0,44 -36,80 -80,80Z" style="fill:url(#_Linear1);fill-rule:nonzero;"/>        </g>        <g id="g4255" transform="matrix(1,0,0,1,50,7)">            <g id="g4202">                <path id="path4196" d="M91.3,185.3l0,31.9c0,8.8 3.1,16.4 9.4,22.6c6.3,6.3 16.4,9.4 30.3,9.4l0,45.3c-26.6,0 -47.4,-7.5 -62.5,-22.6c-15,-15.1 -22.5,-33.3 -22.5,-54.7l0,-116.9l45.3,0l0,39.7l39.7,0l0,45.3l-39.7,0Z" style="fill:white;fill-rule:nonzero;"/>                <path id="path4198" d="M190.4,159.8l36,0l0,45.3l-39.7,0l0,89.4l-45.3,0l0,-117.1c0,-21.4 7.5,-39.6 22.5,-54.6c15,-15 35.9,-22.5 62.5,-22.5l0,45.3c-13.9,0 -24.1,3.1 -30.4,9.3c-2.8,2.7 -4.7,4.4 -5.6,4.9Z" style="fill:white;fill-rule:nonzero;"/>                <path id="path4200" d="M345.7,289.5c-4.7,3.3 -15.2,5 -31.6,5c-21.5,0 -39.8,-7.5 -54.8,-22.6c-15,-15.1 -22.5,-33.3 -22.5,-54.7c0,-21.4 7.5,-39.6 22.5,-54.6c15,-15 33.3,-22.5 54.8,-22.5c21.4,0 39.6,7.5 54.6,22.5c15,15 22.5,33.2 22.5,54.6l0,69.5c0,21.4 -7.5,39.6 -22.5,54.7c-15,15.1 -35.9,22.6 -62.5,22.6l0,-45.3c13.9,0 24.1,-3.2 30.4,-9.5c5.5,-5.5 8.6,-12.1 9.1,-19.7Zm-31.6,-40.3c8.7,0 16.2,-3.1 22.4,-9.4c6.3,-6.3 9.4,-13.8 9.4,-22.6c0,-8.8 -3.1,-16.3 -9.4,-22.5c-6.3,-6.2 -13.8,-9.3 -22.4,-9.3c-8.8,0 -16.4,3.1 -22.6,9.3c-6.3,6.2 -9.4,13.7 -9.4,22.5c0,8.8 3.1,16.4 9.4,22.6c6.2,6.3 13.7,9.4 22.6,9.4Z" style="fill:white;fill-rule:nonzero;"/>            </g>            <g id="g4177" transform="matrix(0.737997,0,0,0.737997,-26.7107,-0.631315)">                <path id="path4167" d="M184.5,491.1c-5.1,5.1 -11.3,7.7 -18.6,7.7c-7.3,0 -13.5,-2.6 -18.6,-7.7c-5.1,-5.1 -7.7,-11.3 -7.7,-18.6c0,-7.3 2.6,-13.5 7.7,-18.6c5.1,-5.1 11.3,-7.7 18.6,-7.7c7.3,0 13.5,2.6 18.6,7.7l1.9,1.9l-10.9,10.9l-1.9,-1.9c-2.2,-2.1 -4.7,-3.2 -7.7,-3.2c-3,0 -5.6,1.1 -7.7,3.2c-2.1,2.1 -3.2,4.7 -3.2,7.7c0,3 1.1,5.6 3.2,7.7c2.1,2.1 4.7,3.2 7.7,3.2c3,0 5.5,-1.1 7.7,-3.2l1.9,-1.9l10.9,10.9l-1.9,1.9Z" style="fill:white;fill-rule:nonzero;"/>                <path id="path4169" d="M189.9,472.5c0,-7.3 2.6,-13.5 7.7,-18.6c5.1,-5.1 12.2,-7.7 21.2,-7.7l0,15.4c-4.7,0 -8.2,1.1 -10.3,3.2c-2.1,2.1 -3.2,4.7 -3.2,7.7l0,26.3l-15.4,0l0,-26.3Z" style="fill:white;fill-rule:nonzero;"/>                <path id="path4171" d="M248.6,498.8c-7.3,0 -13.5,-2.6 -18.6,-7.7c-5.1,-5.1 -7.7,-11.3 -7.7,-18.6c0,-7.3 2.6,-13.5 7.7,-18.6c5.1,-5.1 11.3,-7.7 18.6,-7.7c7.3,0 13.5,2.6 18.6,7.7c5.1,5.1 7.7,11.3 7.7,18.6c0,7.3 -2.6,13.5 -7.7,18.6c-5.1,5.1 -11.3,7.7 -18.6,7.7Zm7.6,-18.6c2.1,-2.1 3.2,-4.7 3.2,-7.7c0,-3 -1.1,-5.6 -3.2,-7.7c-2.1,-2.1 -4.7,-3.2 -7.6,-3.2c-3,0 -5.6,1.1 -7.7,3.2c-2.1,2.1 -3.2,4.7 -3.2,7.7c0,3 1.1,5.6 3.2,7.7c2.1,2.1 4.7,3.2 7.7,3.2c3,0 5.5,-1.1 7.6,-3.2Z" style="fill:white;fill-rule:nonzero;"/>                <path id="path4173" d="M304.6,498.8c-7.3,0 -13.5,-2.6 -18.6,-7.7c-5.1,-5.1 -7.7,-11.3 -7.7,-18.6l0,-26.3l15.4,0l0,26.3c0,3 1.1,5.6 3.2,7.7c2.1,2.1 4.7,3.2 7.7,3.2c3,0 5.5,-1.1 7.6,-3.2c2.1,-2.1 3.2,-4.7 3.2,-7.7l0,-26.3l15.4,0l0,26.3c0,3 1.1,5.6 3.2,7.7c2.1,2.1 4.7,3.2 7.7,3.2c3,0 5.5,-1.1 7.6,-3.2c2.1,-2.1 3.2,-4.7 3.2,-7.7l0,-26.3l15.5,0l0,26.3c0,7.3 -2.6,13.5 -7.7,18.6c-5.1,5.1 -11.3,7.7 -18.6,7.7c-7.2,0 -13.4,-2.5 -18.5,-7.5c-5.1,5 -11.3,7.5 -18.6,7.5Z" style="fill:white;fill-rule:nonzero;"/>                <path id="path4175" d="M424,472.5c0,7.3 -2.6,13.5 -7.7,18.6c-5.1,5.1 -11.3,7.7 -18.6,7.7c-7.3,0 -13.5,-2.6 -18.6,-7.7c-5.1,-5.1 -7.7,-11.3 -7.7,-18.6c0,-7.3 2.6,-13.5 7.7,-18.6c5.1,-5.1 11.3,-7.7 18.6,-7.7c5.6,0 9.2,0.6 10.8,1.7l0,-15.2l15.5,0l0,39.8Zm-18.6,7.7c2.1,-2.1 3.2,-4.7 3.2,-7.7c0,-3 -1.1,-5.6 -3.2,-7.7c-2.1,-2.1 -4.7,-3.2 -7.6,-3.2c-3,0 -5.6,1.1 -7.7,3.2c-2.1,2.1 -3.2,4.7 -3.2,7.7c0,3 1.1,5.6 3.2,7.7c2.1,2.1 4.7,3.2 7.7,3.2c3,0 5.5,-1.1 7.6,-3.2Z" style="fill:white;fill-rule:nonzero;"/>            </g>        </g>    </g>    <defs>        <linearGradient id="_Linear1" x1="0" y1="0" x2="1" y2="0" gradientUnits="userSpaceOnUse" gradientTransform="matrix(378,-378,378,378,23.5,401.5)"><stop offset="0" style="stop-color:rgb(240,57,34);stop-opacity:1"/><stop offset="0.21" style="stop-color:rgb(241,66,35);stop-opacity:1"/><stop offset="0.56" style="stop-color:rgb(243,92,36);stop-opacity:1"/><stop offset="0.57" style="stop-color:rgb(243,92,36);stop-opacity:1"/><stop offset="0.98" style="stop-color:rgb(245,124,38);stop-opacity:1"/><stop offset="1" style="stop-color:rgb(245,124,38);stop-opacity:1"/></linearGradient>    </defs></svg>