<?xml version="1.0" encoding="UTF-8" standalone="no"?><!DOCTYPE svg PUBLIC "-//W3C//DTD SVG 1.1//EN" "http://www.w3.org/Graphics/SVG/1.1/DTD/svg11.dtd"><svg width="100%" height="100%" viewBox="0 0 512 512" version="1.1" xmlns="http://www.w3.org/2000/svg" xmlns:xlink="http://www.w3.org/1999/xlink" xml:space="preserve" style="fill-rule:evenodd;clip-rule:evenodd;stroke-linejoin:round;stroke-miterlimit:2;"><title>Debitum Network</title><desc>Debitum Network is a P2B platform which allows anyone to invest in business loans from as little as €10 and earn interest from 9 to 11 %. All investments carry an additional guarantee for all investors. Loans are assessed by independent 3rd party risk assessors. There are 0% fees on the platform. All investments are accepted instantaneously. Debitum Network allows depositing of EUR, GBP and USD, as well as cryptocurrencies of ETH and DEB tokens.</desc>    <g id="_1" transform="matrix(4.56583,0,0,4.56583,-36.2894,-36.1202)">        <path d="M86.12,61.09c-1.335,-10.178 -3.776,-20.181 -7.28,-29.83c-1.705,-4.896 -3.942,-9.591 -6.67,-14c-1.389,-2.263 -3.089,-4.32 -5.05,-6.11c-1.047,-0.927 -2.227,-1.692 -3.5,-2.27c-1.089,-0.486 -2.267,-0.742 -3.46,-0.75c-0.308,0.001 -0.615,0.021 -0.92,0.06c-1.51,0.187 -2.943,0.774 -4.15,1.7c-1.146,0.87 -2.157,1.905 -3,3.07c-1.559,2.221 -2.81,4.643 -3.72,7.2c-0.52,1.38 -1,2.78 -1.38,4.19l4.09,0.63c0.23,-1.24 0.49,-2.47 0.82,-3.68c0.588,-2.325 1.503,-4.554 2.72,-6.62c1.24,-1.94 2.9,-3.6 4.93,-3.94c2.03,-0.34 4.23,0.67 6.08,2.14c1.876,1.58 3.522,3.414 4.89,5.45c2.798,4.217 5.113,8.735 6.9,13.47c3.483,9.54 5.914,19.432 7.25,29.5c1.406,10.048 1.651,20.226 0.73,30.33c-0.322,2.981 -0.806,5.942 -1.45,8.87l2.48,0.43c0.52,-3.019 0.877,-6.063 1.07,-9.12c0.342,-5.13 0.372,-10.276 0.09,-15.41c-0.247,-5.127 -0.737,-10.23 -1.47,-15.31Z" style="fill:rgb(99,52,147);fill-rule:nonzero;"/>        <path d="M77.68,47.06c0.069,-0.315 0.104,-0.636 0.104,-0.958c0,-2.457 -2.023,-4.48 -4.48,-4.48c-1.631,0 -3.137,0.89 -3.924,2.318c-8.682,-3.105 -17.654,-5.333 -26.78,-6.65c-3.718,-0.557 -7.471,-0.851 -11.23,-0.88c-1.41,0 -2.81,0 -4.23,0.16c-2.65,0.153 -5.266,0.678 -7.77,1.56c-1.312,0.482 -2.546,1.156 -3.66,2c-1.203,0.909 -2.139,2.125 -2.71,3.52c-0.146,0.36 -0.263,0.731 -0.35,1.11l2.61,0.44c0.04,-0.221 0.097,-0.438 0.17,-0.65c0.64,-2 2.59,-3.41 4.76,-4.34c2.281,-0.906 4.678,-1.489 7.12,-1.73c5.019,-0.463 10.074,-0.363 15.07,0.3c9.02,1.285 17.887,3.473 26.47,6.53c-0.053,0.27 -0.08,0.545 -0.08,0.82c0,0.009 0,0.017 0,0.026c0,2.458 2.022,4.48 4.48,4.48c1.564,0 3.019,-0.819 3.83,-2.156c7.07,2.931 13.864,6.489 20.3,10.63l1.34,-1.59c-3.952,-2.412 -8.031,-4.608 -12.22,-6.58c-2.9,-1.387 -5.84,-2.68 -8.82,-3.88Z" style="fill:rgb(153,66,153);fill-rule:nonzero;"/>        <path d="M109.85,29.07c-1.019,-1.223 -2.349,-2.149 -3.85,-2.68c-1.361,-0.485 -2.787,-0.762 -4.23,-0.82l-1,0c-2.362,0.028 -4.711,0.337 -7,0.92c-5.026,1.295 -9.892,3.143 -14.51,5.51c-4.608,2.283 -9.073,4.845 -13.37,7.67c-4.307,2.787 -8.47,5.787 -12.49,9c-8.126,6.274 -15.543,13.417 -22.12,21.3c-1.941,2.335 -3.757,4.772 -5.44,7.3l1.46,0.92c1.586,-2.51 3.305,-4.934 5.15,-7.26c6.496,-7.818 13.826,-14.903 21.86,-21.13c7.977,-6.272 16.651,-11.604 25.85,-15.89c4.551,-2.091 9.32,-3.671 14.22,-4.71c2.358,-0.503 4.775,-0.672 7.18,-0.5c2.29,0.22 4.45,1 5.53,2.52c1.08,1.52 1.17,3.7 0.73,5.9c-0.549,2.295 -1.421,4.5 -2.59,6.55c-2.449,4.26 -5.363,8.234 -8.69,11.85c-0.35,0.39 -0.71,0.76 -1.06,1.14l5.16,3.34l0.52,-0.68c3.204,-4.23 5.937,-8.797 8.15,-13.62c1.155,-2.502 1.962,-5.15 2.4,-7.87c0.216,-1.459 0.216,-2.941 0,-4.4c-0.219,-1.593 -0.862,-3.099 -1.86,-4.36Z" style="fill:rgb(189,96,165);fill-rule:nonzero;"/>        <path d="M117.3,74.15c-1.342,-2.34 -3.009,-4.478 -4.95,-6.35c-3.754,-3.607 -7.896,-6.786 -12.35,-9.48l-1.31,-0.79l-1.34,1.59c0.5,0.33 1,0.64 1.49,1c4.164,2.789 8.007,6.028 11.46,9.66c1.659,1.749 3.066,3.722 4.18,5.86c1,2.07 1.48,4.31 0.74,6c-0.74,1.69 -2.54,2.94 -4.65,3.71c-2.241,0.731 -4.574,1.142 -6.93,1.22c-4.91,0.136 -9.82,-0.273 -14.64,-1.22c-9.757,-1.926 -19.34,-4.652 -28.65,-8.15c-9.385,-3.356 -18.482,-7.47 -27.2,-12.3c-4.31,-2.412 -8.335,-5.3 -12,-8.61c-1.772,-1.617 -3.305,-3.479 -4.55,-5.53c-0.221,-0.4 -0.421,-0.81 -0.6,-1.23c1.816,-0.795 2.994,-2.598 2.994,-4.58c0,-2.743 -2.257,-5 -5,-5c-2.743,0 -5,2.257 -5,5c0,2.369 1.684,4.429 4.006,4.9c0.244,0.794 0.545,1.569 0.9,2.32c1.218,2.423 2.758,4.671 4.58,6.68c3.519,3.923 7.452,7.453 11.73,10.53c8.483,6.135 17.757,11.093 27.57,14.74c9.788,3.729 20.033,6.128 30.46,7.13c5.281,0.517 10.602,0.457 15.87,-0.18c2.749,-0.318 5.442,-1.014 8,-2.07c1.359,-0.574 2.626,-1.346 3.76,-2.29c1.228,-1.027 2.16,-2.363 2.7,-3.87c0.509,-1.5 0.606,-3.11 0.28,-4.66c-0.311,-1.414 -0.833,-2.772 -1.55,-4.03Z" style="fill:rgb(153,66,153);fill-rule:nonzero;"/>        <path d="M85.2,96.73c-2.155,0.055 -3.898,1.843 -3.898,3.999c0,1.3 0.634,2.523 1.698,3.271c-0.23,0.77 -0.46,1.54 -0.72,2.3c-0.756,2.292 -1.83,4.466 -3.19,6.46c-1.34,1.87 -3.1,3.35 -5,3.51c-1.9,0.16 -3.79,-0.85 -5.47,-2.34c-1.703,-1.629 -3.167,-3.491 -4.35,-5.53c-2.449,-4.259 -4.418,-8.777 -5.87,-13.47c-2.906,-9.519 -5.02,-19.262 -6.32,-29.13c-1.5,-9.86 -2.196,-19.827 -2.08,-29.8c0.053,-1.533 0.143,-3.067 0.27,-4.6c3.233,-0.584 5.607,-3.426 5.607,-6.711c0,-3.742 -3.079,-6.82 -6.82,-6.82c-3.742,0 -6.82,3.078 -6.82,6.82c0,2.381 1.247,4.596 3.283,5.831c-0.327,1.667 -0.613,3.333 -0.86,5c-1.389,10.375 -1.366,20.891 0.07,31.26c1.36,10.394 4.111,20.559 8.18,30.22c2.041,4.9 4.613,9.561 7.67,13.9c1.582,2.245 3.463,4.263 5.59,6c1.157,0.946 2.447,1.714 3.83,2.28c1.486,0.597 3.106,0.787 4.69,0.55c1.567,-0.274 3.032,-0.965 4.24,-2c1.102,-0.934 2.059,-2.026 2.84,-3.24c1.414,-2.281 2.501,-4.748 3.23,-7.33c0.25,-0.85 0.47,-1.71 0.68,-2.57c2.004,-0.201 3.548,-1.907 3.548,-3.92c0,-2.162 -1.779,-3.94 -3.94,-3.94c-0.02,0 -0.039,0 -0.058,0l-0.03,0Z" style="fill:rgb(99,52,147);fill-rule:nonzero;"/>        <path d="M98.1,49.67c-4.753,0.005 -8.66,3.917 -8.66,8.67c0,1.264 0.276,2.514 0.81,3.66c-4.979,4.831 -10.203,9.404 -15.65,13.7c-7.774,6.242 -16.041,11.844 -24.72,16.75c-4.315,2.415 -8.887,4.34 -13.63,5.74c-2.304,0.667 -4.691,1.004 -7.09,1c-2.3,-0.1 -4.57,-0.7 -5.88,-2.28c-1.31,-1.58 -1.55,-4 -1.2,-6.33c0.419,-2.427 1.176,-4.783 2.25,-7c0.41,-0.87 0.86,-1.73 1.32,-2.57c0.299,0.086 0.609,0.133 0.92,0.14c1.871,0 3.41,-1.539 3.41,-3.41c0,-1.871 -1.54,-3.41 -3.41,-3.41c-1.871,0 -3.41,1.539 -3.41,3.41c0,0.865 0.329,1.698 0.92,2.33c-0.52,0.87 -1,1.76 -1.49,2.67c-1.26,2.338 -2.182,4.843 -2.74,7.44c-0.278,1.372 -0.349,2.777 -0.21,4.17c0.153,1.495 0.706,2.922 1.6,4.13c0.922,1.211 2.151,2.154 3.56,2.73c1.324,0.533 2.719,0.87 4.14,1c2.706,0.229 5.431,0.091 8.1,-0.41c5.188,-0.948 10.258,-2.457 15.12,-4.5c9.671,-4.017 18.754,-9.325 27,-15.78c5.794,-4.51 11.172,-9.53 16.07,-15c0.94,0.337 1.932,0.51 2.931,0.51c4.762,0 8.68,-3.919 8.68,-8.68c0,-4.762 -3.918,-8.68 -8.68,-8.68c-0.02,0 -0.041,0 -0.061,0Z" style="fill:rgb(189,96,165);fill-rule:nonzero;"/>    </g></svg>