<?xml version="1.0" encoding="UTF-8" standalone="no"?><!DOCTYPE svg PUBLIC "-//W3C//DTD SVG 1.1//EN" "http://www.w3.org/Graphics/SVG/1.1/DTD/svg11.dtd"><svg width="100%" height="100%" viewBox="0 0 512 512" version="1.1" xmlns="http://www.w3.org/2000/svg" xmlns:xlink="http://www.w3.org/1999/xlink" xml:space="preserve" style="fill-rule:evenodd;clip-rule:evenodd;stroke-linejoin:round;stroke-miterlimit:2;"><title>Zank</title><desc>Zank is a platform that connects solvent people who are looking for a loan and want to pay a fairer interest with people who have money to invest and want to obtain a higher return.</desc>    <g transform="matrix(1.36848,0,0,1.36848,-599.455,1)">        <g transform="matrix(1.63696,0,0,1.63696,0,0)">            <circle cx="330.882" cy="28.27" r="28.27" style="fill:rgb(68,68,68);"/>        </g>        <g transform="matrix(1.63696,0,0,1.63696,0,0)">            <path d="M461.135,28.27c0,15.613 -12.66,28.27 -28.27,28.27c-15.616,0 -28.27,-12.657 -28.27,-28.27c0,-15.613 12.654,-28.27 28.27,-28.27c15.61,0 28.27,12.657 28.27,28.27Z" style="fill:rgb(68,68,68);fill-rule:nonzero;"/>        </g>        <g transform="matrix(1.63696,0,0,1.63696,0,0)">            <path d="M455.812,110.738c0,-15.836 -9.423,-29.444 -22.947,-35.611l0,-0.001c-0.003,-0.002 -0.011,-0.004 -0.014,-0.006c-1.899,-0.863 -3.87,-1.571 -5.917,-2.126c-7.052,-2.243 -14.542,-3.494 -22.339,-3.494c-19.712,0 -37.576,7.765 -50.827,20.343l0,-20.344l-12.211,0l-29.383,0l-4.177,0l0,157.336l45.629,0l0,-29.994c0.003,0.006 0.006,0.008 0.011,0.008l0,-62.888l0,-0.647c0,-15.613 12.655,-28.269 28.27,-28.269c15.61,0 28.265,12.656 28.265,28.269l0,94.349c0.047,-0.006 0.092,-0.017 0.137,-0.025l0,0.025l45.504,0l0,-77.779l0,-15.728l0,-22.572l-0.036,0c0.004,-0.283 0.035,-0.561 0.035,-0.846Z" style="fill:rgb(68,68,68);fill-rule:nonzero;"/>        </g>    </g></svg>