<?xml version="1.0" encoding="UTF-8" standalone="no"?><!DOCTYPE svg PUBLIC "-//W3C//DTD SVG 1.1//EN" "http://www.w3.org/Graphics/SVG/1.1/DTD/svg11.dtd"><svg width="100%" height="100%" viewBox="0 0 512 512" version="1.1" xmlns="http://www.w3.org/2000/svg" xmlns:xlink="http://www.w3.org/1999/xlink" xml:space="preserve" style="fill-rule:evenodd;clip-rule:evenodd;stroke-linejoin:round;stroke-miterlimit:2;"><title>NordCard</title><desc>Latvia-based fintech NordCard offers short-term loans. NordCard was among the first company in Latvia to offer a service of Credit Line. When clients apply for a loan, the company decides how much they are eligible for, but not more than Eur 3,000. Then, they have a freedom to choose how to use the approved funds- he or she may not use it all, use it for short period of time and repay before the end of the month benefitting from zero interest rate, or use it as a long-term loan for up to 50 months. </desc>    <g transform="matrix(17.5789,0,0,17.5789,-30.5014,24.4855)">        <path d="M28.945,1.527l-25.295,0c-1.026,0 -1.858,0.836 -1.858,1.868l0,1.84l29.012,0l0,-1.84c0,-1.031 -0.832,-1.868 -1.859,-1.868Z" style="fill:rgb(94,94,94);fill-rule:nonzero;"/>        <path d="M1.792,17.511c0,1.032 0.832,1.868 1.858,1.868l9.062,0c6.933,0.277 10.942,5.434 10.942,5.434l-0.001,-0.544l0,-4.889l5.293,0c1.026,0 1.858,-0.836 1.858,-1.868l0,-7.668l-29.012,0l0,7.667Z" style="fill:rgb(94,94,94);fill-rule:nonzero;"/>    </g></svg>