<?xml version="1.0" encoding="UTF-8" standalone="no"?><!DOCTYPE svg PUBLIC "-//W3C//DTD SVG 1.1//EN" "http://www.w3.org/Graphics/SVG/1.1/DTD/svg11.dtd"><svg width="100%" height="100%" viewBox="0 0 512 512" version="1.1" xmlns="http://www.w3.org/2000/svg" xmlns:xlink="http://www.w3.org/1999/xlink" xml:space="preserve" style="fill-rule:evenodd;clip-rule:evenodd;stroke-linejoin:round;stroke-miterlimit:2;"><title>Canberra Immo</title><desc>Canberra immo is a crowdfunding and real estate crowdfunding platform. It brings together individuals wishing to invest and entrepreneurs with projects. Investments are made in the form of the issue of financial securities (stocks or bonds).We are professionals in real estate promotion and building rehabilitation. Our founders are also graduates in wealth management.</desc>    <g transform="matrix(1.08827,0,0,1.08827,-66.6598,-1011.81)">        <path d="M394.898,942.014c80.232,37.403 135.906,118.815 135.906,213.129c0,55.776 -19.471,107.04 -51.991,147.37c-2.956,2.708 -4.511,4.097 -4.248,3.973c-42.751,49.825 -108.6,81.442 -179.343,81.442c-128.624,0 -233.05,-104.427 -233.05,-233.05c0,-93.188 57.987,-173.514 137.107,-210.791c-34.986,40.775 -59.306,93.594 -59.306,151.475c0,127.029 96.482,220.525 222.789,222.824c-81.928,-32.358 -143.617,-104.637 -143.617,-184.414c0,-92.482 74.792,-170.24 175.753,-191.958Z" style="fill:rgb(44,80,114);"/>    </g></svg>