<?xml version="1.0" encoding="UTF-8" standalone="no"?><!DOCTYPE svg PUBLIC "-//W3C//DTD SVG 1.1//EN" "http://www.w3.org/Graphics/SVG/1.1/DTD/svg11.dtd"><svg width="100%" height="100%" viewBox="0 0 512 512" version="1.1" xmlns="http://www.w3.org/2000/svg" xmlns:xlink="http://www.w3.org/1999/xlink" xml:space="preserve" style="fill-rule:evenodd;clip-rule:evenodd;stroke-linejoin:round;stroke-miterlimit:2;"><title>Upstone</title><desc></desc>    <g transform="matrix(1.40306,0,0,1.40306,21.8102,-250.007)">        <g transform="matrix(2.4854,0,0,2.4854,-280.604,1.23882)">            <circle cx="129.39" cy="143.644" r="4.465" style="fill:rgb(1,1,1);"/>        </g>        <g transform="matrix(2.4854,0,0,2.4854,-28.7429,1.23882)">            <circle cx="129.39" cy="143.644" r="4.465" style="fill:rgb(61,97,169);"/>        </g>        <g transform="matrix(1,0,0,1,-283.933,0)">            <path d="M499,540.4c19,-4.9 34.3,-18.6 40.2,-36.3c2.2,-6.4 2.3,-8 2.6,-61.5c0.3,-60.1 0,-65.2 -5.5,-75.9c-3.1,-6.3 -11.1,-14.8 -18.3,-19.7c-4.7,-3.1 -29.8,-17.6 -53.9,-30.9c-8.6,-4.8 -16.6,-12.6 -18,-17.7c-0.7,-2.6 -1.1,-21.6 -1.1,-56.6c0,-36.2 -0.3,-52.8 -1,-52.8c-2.3,0 -15.6,14.7 -18.2,20c-5.4,11.3 -5.8,14.8 -5.8,52.7c0,38.4 0.5,42.7 6.5,52.9c6.1,10.5 13.5,16 44.5,33.4c35.5,19.9 38.8,22.1 42.8,28.8l2.7,4.7l0.3,53.5c0.4,58.9 0.1,62.5 -5.1,69.7c-5.5,7.8 -17.8,13.3 -29.4,13.3c-4.7,0 -5,0.2 -7.1,3.9c-1.3,2.2 -5.4,6.9 -9.3,10.5l-7.1,6.6l2.8,1.1c7.7,2.9 26.2,3.1 37.4,0.3Z"/>        </g>        <g transform="matrix(1,0,0,1,-283.933,0)">            <path d="M431.1,540.4c18.5,-4 33.2,-14.8 40.5,-29.9l4.533,-8l0,-142.356c0,-0 -20.933,-11.144 -21.633,-11.144c-0.2,0 -0.5,33 -0.7,73.3c-0.3,72.1 -0.3,73.3 -2.4,77.7c-2.5,5.3 -9.5,12 -15.4,14.9c-6.2,3 -18.1,4.4 -26.9,3.1c-13.3,-1.9 -22.8,-8.4 -27.2,-18.7c-1.8,-4.3 -1.9,-319.3 -1.9,-319.3l-22.8,0c0,0 -0.015,298.474 0,309.224c0.01,5.918 -0.1,11.876 5.1,22.776c4.7,9.9 17.1,21.1 27.7,25c13.5,4.9 28.4,6.2 41.1,3.4Z" style="fill:rgb(61,97,169);"/>        </g>        <g transform="matrix(1,0,0,1,-283.933,0)">            <path d="M476,312.9c0.3,0.1 0,-133.4 0,-133.4l-21.5,0.4l-0.3,58.5l-0.2,58.6l3.8,3.8c3.1,3.1 16.1,11.7 18.2,12.1Z" style="fill:rgb(61,97,169);"/>        </g>        <g transform="matrix(1,0,0,1,-283.933,0)">            <path d="M430.1,507.8c5.8,-1.7 11.4,-7 13.3,-12.5c1.4,-4 1.6,-11.4 1.6,-53c0,-30.4 -0.4,-48.3 -1,-48.3c-0.5,0 -6.1,2.6 -12.5,5.7l-11.5,5.7l-0,44.2c-0,36.7 0.3,45.4 1.6,51c2.2,9.5 1.8,9.2 8.5,7.2Z" style="fill:rgb(1,1,1);"/>        </g>        <g transform="matrix(1,0,0,1,-283.933,0)">            <path d="M530.3,297.3l11.9,-5.8l-0.5,-34c-0.4,-36.7 -0.5,-37 -6.4,-49.1c-7,-14.3 -25.4,-26.4 -44,-28.8l-5.3,-0.7l0,24.8l4.5,0.6c6.6,1 14.8,5.2 19,9.8c7.1,7.9 7,7.1 7.3,50.2c0.2,21.3 0.6,38.7 1,38.7c0.4,0 6,-2.6 12.5,-5.7Z" style="fill:rgb(1,1,1);fill-rule:nonzero;"/>        </g>    </g></svg>