<?xml version="1.0" encoding="UTF-8" standalone="no"?><!DOCTYPE svg PUBLIC "-//W3C//DTD SVG 1.1//EN" "http://www.w3.org/Graphics/SVG/1.1/DTD/svg11.dtd"><svg width="100%" height="100%" viewBox="0 0 512 512" version="1.1" xmlns="http://www.w3.org/2000/svg" xmlns:xlink="http://www.w3.org/1999/xlink" xml:space="preserve" style="fill-rule:evenodd;clip-rule:evenodd;stroke-linejoin:round;stroke-miterlimit:2;"><title>Katipult</title><desc>Katipult is an award winning, proprietary cloud-based software infrastructure to digitize and automate private placements, while providing best-of-breed standards for eliminating transaction redundancy, enhancing investor experience, and accelerating deal flow.</desc>    <g id="Katipult-2021-Logo" transform="matrix(4.03561,0,0,4.03561,22.8761,1)">        <g transform="matrix(0.361099,0,0,0.381525,-24.4901,-34.5827)">            <path d="M402.782,108.729c0,-9.989 -8.568,-18.098 -19.122,-18.098l-311.729,-0c-10.553,-0 -19.122,8.109 -19.122,18.098l0,295.065c0,9.989 8.569,18.098 19.122,18.098l311.729,0c10.554,0 19.122,-8.109 19.122,-18.098l0,-295.065Z" style="fill:rgb(15,77,129);"/>        </g>        <g id="Shape" transform="matrix(1.33485,0,0,1.33485,-91.5367,18.4689)">            <path d="M143.304,17.877l7.741,1.737l4.001,-17.876l-7.608,-1.738l-4.134,17.877Zm-16.797,-16.271l2.764,20.694l7.899,-1.053l-2.739,-20.72l-7.924,1.079Zm-19.246,9.268l10.979,20.509l6.74,-3.607l-10.979,-20.509l-6.74,3.607Zm-16.719,14.506l18.93,17.298l5.266,-5.687l-18.956,-17.35l-5.24,5.739Zm-13.164,18.799l26.171,10.741l2.922,-7.082l-26.17,-10.768l-2.923,7.109Zm22.959,15.296l-30.91,-0.79l-0.184,7.478l30.909,0.816l0.185,-7.504Z" style="fill:url(#_Linear1);fill-rule:nonzero;"/>        </g>    </g>    <defs>        <linearGradient id="_Linear1" x1="0" y1="0" x2="1" y2="0" gradientUnits="userSpaceOnUse" gradientTransform="matrix(154.862,0,0,154.862,67.2947,56.3422)"><stop offset="0" style="stop-color:rgb(241,106,36);stop-opacity:1"/><stop offset="0.25" style="stop-color:rgb(241,106,36);stop-opacity:1"/><stop offset="1" style="stop-color:rgb(91,194,167);stop-opacity:1"/></linearGradient>    </defs></svg>