<?xml version="1.0" encoding="UTF-8" standalone="no"?><!DOCTYPE svg PUBLIC "-//W3C//DTD SVG 1.1//EN" "http://www.w3.org/Graphics/SVG/1.1/DTD/svg11.dtd"><svg width="100%" height="100%" viewBox="0 0 512 512" version="1.1" xmlns="http://www.w3.org/2000/svg" xmlns:xlink="http://www.w3.org/1999/xlink" xml:space="preserve" style="fill-rule:evenodd;clip-rule:evenodd;stroke-linejoin:round;stroke-miterlimit:2;"><title>AgriLend</title><desc>AgriLend is the 1st crowdfunding platform for loans dedicated to the agricultural world.Our desire is to become a partner of actors in the agricultural world in need of financing by putting them in direct contact with individuals wishing to give meaning to their savings.</desc>    <g transform="matrix(2.22842,0,0,2.22578,-1570.12,-168.252)">        <g transform="matrix(1,0,0,1,-111,4)">            <path d="M908.708,159.115l1.892,-5.815c1.2,-3 4,-8.6 6.2,-12.3l4,-6.9l8.4,-10.9l7.6,-7.3c4.2,-4.1 7.9,-7.6 8.2,-7.9c0.3,-0.3 2.5,-2.1 5,-4c2.5,-1.9 4.7,-3.7 5,-4.1c0.3,-0.3 4.3,-3.2 9,-6.3c7,-4.8 8.9,-5.7 11.5,-5.3c7,1.1 33.8,22.6 45.4,36.3c6.9,8 15.2,21.6 18.3,29.6c8.6,22.6 7.5,43.6 -3.5,66.8c-7.3,15.3 -14.6,25.2 -30.1,40.5c-14.9,14.8 -26.3,23.5 -31,23.5c-3.6,0 -3.2,0.3 -37.6,-31.8l-44,-41.5l0,-18.8l73.5,68.4l0.6,-82.8l-7.8,-7.4c-4.3,-4.1 -12.3,-11.8 -17.8,-17.2l-10.1,-9.7l-2.1,3.1c-2.6,3.8 -6.7,12.9 -8.1,17.9l-0.82,4.033l-11.672,-10.118Zm79.392,99.885c0.9,-0.8 3.4,-3.1 5.5,-5.1c15.6,-14.5 29.1,-34.7 34,-50.5c1,-3.2 2,-9.1 2.3,-13.1l0.6,-7.2l-2.9,2.7c-1.7,1.5 -8.4,7.9 -15,14.3c-6.7,6.3 -16.3,15.5 -21.3,20.4l-9.3,8.8l0,35l2.3,-1.9c1.2,-1 2.9,-2.6 3.8,-3.4Zm7.9,-62.7c3.6,-3.3 10.4,-9.9 15.2,-14.5c4.8,-4.5 10.6,-10 12.8,-12.1c3.4,-3.2 3.9,-4.2 3.4,-6.5c-0.9,-3.7 -7.8,-17.4 -8.7,-17.4c-0.5,0.1 -7,5.9 -14.5,13c-7.5,7.1 -15.6,14.8 -17.9,17l-4.3,4l0,29.6l3.7,-3.5c2.1,-1.8 6.7,-6.2 10.3,-9.6Zm0.8,-50.1l13.2,-12.7l-3.8,-4c-4.2,-4.5 -24.7,-21.4 -24.7,-21.4c0,0 0.9,50.9 1.3,50.9c0.4,0 6.7,-5.8 14,-12.8Zm-30.3,11.7l0,-49.2l-26.7,24.1c0,0 20.5,19.5 22.7,21.4l4,3.7Z" style="fill:rgb(156,208,172);fill-rule:nonzero;"/>        </g>        <path d="M811.1,243.5l10.474,9.525l-9.074,8.775c-9.9,9.7 -15.2,14.1 -26.4,22c-8.6,5.9 -12.6,6.6 -17.6,3c-28.6,-20.6 -43.3,-35.5 -53.5,-54.3c-9.3,-17.2 -12.3,-37.6 -8.1,-55.2c10.261,-43 44,-69.1 56.1,-78.3c10.3,-7.8 13.2,-8.3 20.1,-3.1c2.4,1.9 4.9,3.9 5.4,4.5c0.6,0.6 16,13.5 24.7,22l5,4.8l-8.4,10.9l-9.7,-8.8c-14.6,-13.2 -17,-15.3 -17.6,-15.3c-0.8,0 -0.6,36 0.3,36c0.4,0.1 73.7,63.4 73.7,63.4l-0.76,18.791l-73.74,-64.591l0,74.8c0,29.9 -0.7,28.1 7.7,21.1c2.6,-2.2 8.5,-7.6 13.1,-12l8.3,-8Zm-43.1,-0.5c0,-20.9 -0.2,-25 -1.4,-24.3c-0.7,0.4 -27,25.2 -27,25.2l7,7c3.8,3.9 9.5,9 12.7,11.3c3.1,2.3 6.4,5.8 7.2,5.8c1.3,0 1.5,-3.4 1.5,-25Zm-36.9,-10.9l37,-34.8l-0.3,-14.1l-0.3,-14.1l-5.5,5.1c-5.7,5.3 -36.3,34.2 -38.7,36.7c-1.9,1.8 0.4,9.2 5.5,17.4l2.3,3.8Zm-1.2,-47.1c13.4,-13 36.4,-34.5 37.2,-34.8c1.2,-0.5 1.2,-36.2 0,-36.2c-2,0 -23.2,21.9 -29.1,29.9c-10.5,14.4 -17.1,30.2 -18.4,44.1l-0.8,7.5l3.3,-3c1.7,-1.6 5.3,-5 7.8,-7.5Z" style="fill:rgb(97,171,127);fill-rule:nonzero;"/>    </g></svg>