<?xml version="1.0" encoding="UTF-8" standalone="no"?><!DOCTYPE svg PUBLIC "-//W3C//DTD SVG 1.1//EN" "http://www.w3.org/Graphics/SVG/1.1/DTD/svg11.dtd"><svg width="100%" height="100%" viewBox="0 0 512 512" version="1.1" xmlns="http://www.w3.org/2000/svg" xmlns:xlink="http://www.w3.org/1999/xlink" xml:space="preserve" style="fill-rule:evenodd;clip-rule:evenodd;stroke-linejoin:round;stroke-miterlimit:2;"><title>Triodos Bank</title><desc>On Triodos Bank, you can invest directly in pioneering organisations delivering positive change.We create direct investment opportunities with businesses, charities and social enterprises spanning a range of sectors and industries. We work with these organisations to get them ready for investment and provide you with all of the information you need to make your decision.</desc>    <g transform="matrix(20.8192,0,0,20.8192,312.822,287.451)">        <path d="M0,-2.993c-0.573,1.853 -1.623,3.529 -2.898,4.846c-1.236,-1.404 -2.074,-3.223 -2.472,-5.024c0.697,-0.187 1.452,-0.273 2.216,-0.271c1.069,-0.002 2.123,0.17 3.154,0.449m8.865,1.976c0.039,-3.449 -1.368,-6.802 -3.24,-8.793c-1.176,-1.248 -2.257,-2.015 -3.833,-2.785l-0.173,0.362c0.751,0.463 1.373,0.975 2.131,1.702c2.05,2.143 3.397,5.78 3.41,8.797c-0.013,0.423 -0.013,1.02 -0.085,1.524c-0.413,-1.273 -1.114,-2.351 -2.046,-3.319c-0.257,-0.311 -0.632,-0.709 -0.937,-0.899c-0.021,0.673 -0.289,2.151 -0.596,2.963c0.386,0.382 0.603,0.636 1.023,0.985c0.82,0.96 1.387,2.151 1.362,3.141c0.025,0.574 -0.217,1.17 -0.682,1.617c-0.399,0.464 -1.289,0.803 -2.215,0.807c-1.017,-0.004 -2.584,-0.601 -3.41,-1.259c1.663,-1.727 2.662,-3.63 3.324,-6.011c0.229,-1.03 0.363,-2.053 0.34,-3.052c0.023,-1.873 -0.41,-3.633 -1.193,-5.022c-1.186,-2.219 -3.021,-3.473 -5.454,-3.5c-2.831,0.027 -5.504,1.506 -7.5,3.677c-2.296,2.404 -3.429,5.389 -3.41,8.435c-0.019,0.564 0.008,1.075 0.084,1.705l0.342,0c0.015,-0.944 0.121,-1.797 0.34,-2.87c0.483,-1.881 1.727,-3.983 3.324,-5.652c1.1,-1.174 2.344,-2.026 3.496,-2.513c-0.832,1.025 -1.396,2.192 -1.791,3.497c-0.064,0.4 -0.172,0.968 -0.17,1.347c0.537,-0.323 1.887,-0.833 2.727,-0.986c0.214,-1.296 0.672,-2.747 1.621,-3.681c0.428,-0.515 0.965,-0.827 1.619,-0.805c1.05,-0.022 1.858,0.774 2.385,1.703c0.498,0.919 0.823,2.594 0.682,3.769c-1.126,-0.379 -2.206,-0.549 -3.323,-0.539c-1.043,-0.01 -2.123,0.16 -3.324,0.539c-1.85,0.501 -3.576,1.525 -4.859,2.873c-1.282,1.351 -2.307,3.284 -2.301,5.293c-0.006,2.055 0.991,3.787 2.301,5.207c2.227,2.333 5.383,3.526 8.525,3.497c2.476,0.029 4.716,-0.88 6.733,-2.42l-0.172,-0.272c-1.604,0.901 -3.303,1.357 -5.199,1.345c-2.639,0.012 -5.475,-0.84 -7.415,-2.42c0.537,0.073 1.052,0.13 1.534,0.088c0.946,0.042 2.593,-0.213 3.411,-0.716c-0.494,-0.35 -1.573,-1.344 -2.132,-2.064c-0.818,0.351 -1.816,0.605 -2.727,0.627c-0.817,-0.022 -1.736,-0.22 -2.301,-0.898c-0.378,-0.403 -0.597,-0.942 -0.597,-1.524c0,-1.181 0.622,-2.174 1.363,-2.963c0.557,-0.633 1.285,-1.173 1.875,-1.436c0.596,2.396 1.65,4.328 3.323,6.103c2.025,2.089 4.698,3.284 7.076,3.322c1.751,-0.01 3.263,-0.551 4.519,-1.887c1.362,-1.449 2.254,-4.006 2.215,-6.639" style="fill:rgb(0,156,128);fill-rule:nonzero;"/>    </g></svg>