<?xml version="1.0" encoding="UTF-8" standalone="no"?><!DOCTYPE svg PUBLIC "-//W3C//DTD SVG 1.1//EN" "http://www.w3.org/Graphics/SVG/1.1/DTD/svg11.dtd"><svg width="100%" height="100%" viewBox="0 0 512 512" version="1.1" xmlns="http://www.w3.org/2000/svg" xmlns:xlink="http://www.w3.org/1999/xlink" xml:space="preserve" style="fill-rule:evenodd;clip-rule:evenodd;stroke-linejoin:round;stroke-miterlimit:2;"><title>Geldvoorelkaar</title><desc>SME entrepreneurs and real estate investors find financing via Geldvoorelkaar.nl, the largest crowdfunding platform in the Netherlands. So that they can focus on their ambitions and the growth of their companies. Thanks to Geldvoorelkaar.nl, entrepreneurs can start a new franchise location, build up larger stocks, buy an inland vessel, commercial real estate or a new machine.</desc>    <g transform="matrix(4.52327,0,0,4.52327,0.592223,92.3767)">        <path d="M52.8,69c-20.1,-2 -36.8,-10.4 -43.8,-20.8c-5.4,1.9 -8.7,4.5 -8.9,7.5c-0.5,7.5 18.1,14.9 41.5,16.6c16.6,1.2 31.2,-0.9 38.5,-4.9c-8.1,2 -17.4,2.6 -27.3,1.6Z" style="fill:url(#_Linear1);fill-rule:nonzero;"/>        <path d="M83.6,52.3c-0.4,0.5 -0.6,0.9 -0.4,1.3c0.7,-0.7 1.3,-1.4 1.7,-2.2c-0.6,0.3 -1,0.6 -1.3,0.9" style="fill:rgb(188,190,192);fill-rule:nonzero;"/>        <path d="M44.1,48.7c-0.2,-0.2 -1.4,-0.5 -1.4,-0.5c-8,-1.9 -5.2,-4.7 -5.2,-4.7l18.2,-14.5c-0.5,-0.2 -1.1,-0.3 -1.1,-0.3c-8.9,0.2 -16.4,-1.4 -16.9,-1.5c-0.4,-0.1 -0.5,0.3 -0.3,0.3c0.2,0.1 4.1,1 5.8,1.6c1.6,0.6 0.6,1.7 0.6,1.7l-13.4,11.2c-3.9,2.3 -9,0.8 -9,0.8c-0.3,-0.1 -0.6,-0.1 -1.1,-0.2c0.1,0.3 0.3,0.6 0.5,0.9l22.7,5.6l0.6,-0.4Z" style="fill:rgb(188,190,192);fill-rule:nonzero;"/>        <g>            <path d="M81.4,58l0.2,0.5l1,0.3l-0.9,0.2l-0.1,0.5l-0.8,-0.4l-1,0l0.4,-0.5l-0.6,-0.5l1.1,0.2l0.7,-0.3Z" style="fill:rgb(109,110,113);fill-rule:nonzero;"/>            <path d="M77.3,59l0.2,0.6l1,0.3l-0.9,0.2l-0.1,0.5l-0.8,-0.5l-1,0l0.4,-0.4l-0.6,-0.5l1.1,0.1l0.7,-0.3Z" style="fill:rgb(109,110,113);fill-rule:nonzero;"/>            <path d="M73.4,60l0.2,0.5l1,0.4l-0.9,0.1l-0.1,0.5l-0.8,-0.4l-1,0l0.4,-0.5l-0.6,-0.5l1.1,0.2l0.7,-0.3Z" style="fill:rgb(109,110,113);fill-rule:nonzero;"/>            <path d="M69.3,60.5l0.3,0.5l1,0.4l-0.9,0.1l-0.1,0.6l-0.8,-0.5l-1,0l0.4,-0.4l-0.6,-0.6l1.1,0.2l0.6,-0.3Z" style="fill:rgb(109,110,113);fill-rule:nonzero;"/>            <path d="M65.4,60.8l0.3,0.6l1,0.3l-1,0.2l0,0.5l-0.8,-0.4l-1.1,0l0.5,-0.5l-0.6,-0.5l1,0.2l0.7,-0.4Z" style="fill:rgb(109,110,113);fill-rule:nonzero;"/>            <path d="M61.8,61l0.2,0.6l1,0.3l-0.9,0.1l-0.1,0.6l-0.8,-0.5l-1,0l0.4,-0.4l-0.6,-0.6l1.1,0.2l0.7,-0.3Z" style="fill:rgb(109,110,113);fill-rule:nonzero;"/>            <path d="M60.7,62.6l-0.5,1.1c0,0.1 0.1,0.1 0.2,0.2c0.1,0 0.3,0 0.3,-0.1l0.5,-1.1c0,-0.1 -0.1,-0.1 -0.2,-0.2c-0.1,0 -0.2,0 -0.3,0.1" style="fill:rgb(109,110,113);fill-rule:nonzero;"/>            <path d="M64.5,62.7l-0.5,1.1c0,0.1 0.1,0.1 0.2,0.2c0.1,0 0.3,0 0.3,-0.1l0.5,-1.1c0,-0.1 -0.1,-0.1 -0.2,-0.2c-0.1,0 -0.2,0 -0.3,0.1" style="fill:rgb(109,110,113);fill-rule:nonzero;"/>            <path d="M68.2,62.2l-0.7,1.3c0,0.1 0.1,0.1 0.2,0.2c0.1,0 0.3,0 0.3,-0.1l0.7,-1.3c0,-0.1 -0.1,-0.1 -0.2,-0.2c-0.1,0 -0.2,0.1 -0.3,0.1" style="fill:rgb(109,110,113);fill-rule:nonzero;"/>            <path d="M72.2,61.7l-0.7,1.5c0,0.1 0.1,0.1 0.2,0.2c0.1,0 0.3,0 0.3,-0.1l0.7,-1.5c0,-0.1 -0.1,-0.1 -0.2,-0.2c-0.1,0 -0.2,0 -0.3,0.1" style="fill:rgb(109,110,113);fill-rule:nonzero;"/>            <path d="M76,60.8l-0.7,1.5c0,0.1 0.1,0.1 0.2,0.2c0.1,0 0.3,0 0.3,-0.1l0.7,-1.5c0,-0.1 -0.1,-0.1 -0.2,-0.2c-0.1,0 -0.3,0.1 -0.3,0.1" style="fill:rgb(109,110,113);fill-rule:nonzero;"/>            <path d="M80.3,59.7l-0.7,1.5c0,0.1 0.1,0.1 0.2,0.2c0.1,0 0.3,0 0.3,-0.1l0.7,-1.5c0,-0.1 -0.1,-0.1 -0.2,-0.2c-0.1,0 -0.3,0.1 -0.3,0.1" style="fill:rgb(109,110,113);fill-rule:nonzero;"/>            <path d="M67.6,57.1c-0.1,0 -0.3,0 -0.3,0.1l-1.4,2.7c0.2,0 0.4,0 0.6,-0.1l1.3,-2.6c0,0 -0.1,-0.1 -0.2,-0.1" style="fill:rgb(109,110,113);fill-rule:nonzero;"/>            <path d="M71.4,56.4c-0.1,0 -0.3,0 -0.3,0.1l-1.4,2.9c0.2,0 0.4,-0.1 0.6,-0.1l1.3,-2.7c0,-0.1 -0.1,-0.1 -0.2,-0.2" style="fill:rgb(109,110,113);fill-rule:nonzero;"/>            <path d="M75,57.3c0,-0.1 -0.1,-0.1 -0.2,-0.2c-0.1,0 -0.3,0 -0.3,0.1l-0.6,1.3c0.2,-0.1 0.4,-0.1 0.7,-0.2l0.4,-1Z" style="fill:rgb(109,110,113);fill-rule:nonzero;"/>            <path d="M77.7,35.9c0,0.1 0.1,0.1 0.2,0.2c0.1,0 0.3,0 0.3,-0.1l0.2,-0.5c-0.1,-0.1 -0.3,-0.2 -0.4,-0.3l-0.3,0.7Z" style="fill:rgb(109,110,113);fill-rule:nonzero;"/>            <path d="M72.8,38.3c0,0.1 0.1,0.1 0.2,0.2c0.1,0 0.3,0 0.3,-0.1l2.3,-4.7c-0.1,-0.1 -0.3,-0.2 -0.4,-0.3l-2.4,4.9Z" style="fill:rgb(109,110,113);fill-rule:nonzero;"/>            <path d="M65,54.6c-0.1,0 -0.3,0 -0.3,0.1l-2.7,5.4l0.6,0l2.6,-5.3c0,-0.1 -0.1,-0.2 -0.2,-0.2" style="fill:rgb(109,110,113);fill-rule:nonzero;"/>            <path d="M20.1,52.6c0,0 -18.7,-12.2 -6.2,-24.2c0,0 7.4,-8.1 29.7,-7.8c0,0 16.4,0.1 31,6.6l0.3,-0.2c0,0 -20.9,-9.9 -45.5,-5.7c0,0 -18.3,2.6 -20.2,14.3c0,0 -2.1,7.4 9.3,16.2l1.6,0.8Z" style="fill:rgb(109,110,113);fill-rule:nonzero;"/>        </g>        <path d="M98.8,52c-0.2,1.1 -0.3,1.5 -0.7,3.1c0,0 -1.4,13.6 -27.8,15.7c0,0 -19.6,2.2 -39.8,-5.8c0,0 -25.6,-9.6 -24.9,-25.1l1.4,-5.9c0,0 -3.7,9.7 12,20.1c0,0 15.9,11.9 44.7,12.4c0,0 31.3,1.1 34.7,-16c0,0 2.3,-9 -11.4,-18.5c0,0 11.8,6.9 12,16.8c0,0 0.1,1.5 -0.2,3.2" style="fill:rgb(35,31,32);fill-rule:nonzero;"/>        <path d="M103.5,17.3c-0.8,-2.4 -3.2,-3.7 -5.2,-3c-2,0.7 -3,3.2 -2.1,5.6c0.8,2.4 3.2,3.7 5.2,3c2,-0.8 3,-3.3 2.1,-5.6" style="fill:rgb(28,148,210);fill-rule:nonzero;"/>        <path d="M62,2.9c-0.8,-2.4 -3.2,-3.7 -5.2,-3c-2,0.7 -3,3.2 -2.1,5.6c0.8,2.4 3.2,3.7 5.2,3c2,-0.7 3,-3.2 2.1,-5.6" style="fill:rgb(10,114,186);fill-rule:nonzero;"/>        <path d="M100.5,37.9c0,0 -17,-8.9 -8.8,9.8l4.2,3.2c0,0 -5.5,-16.9 8.5,-5.6c0,0 -4.8,4 -4,11.8l5.2,5.9c0,0 -3.1,-13.4 4.2,-13.9c0,0 5.6,-1.5 1.6,-12c0,-0.1 -9,7.9 -10.9,0.8" style="fill:rgb(28,148,210);fill-rule:nonzero;"/>        <path d="M49.5,13.6c-2.7,0 -4.1,-0.5 -4.3,-1.4c-0.4,-1.4 2.1,-2.9 3.1,-3.5l0.5,1c-1.5,0.8 -2.7,1.9 -2.6,2.2c0,0 0.3,0.6 3.2,0.6l0.1,1.1Zm23.5,8.4l-11.7,-6.3c0,0 0.8,-3.9 -2.8,-5.4c-3.6,-1.5 -9,-5.9 -9,-5.9c-9,4.4 -9.6,6.1 -9.6,6.1c-6.6,9.1 16.5,4.4 16.5,4.4c1,4.3 9.5,5.8 9.5,5.8c0,0 1.5,2.5 3.1,4c1.6,1.5 1.1,-0.2 1.1,-0.2l-0.8,-1.8l0,-0.1l0,0.1c0.1,0.3 0.8,1.1 3.2,1c2.8,-0.3 0.5,-1.7 0.5,-1.7" style="fill:rgb(10,114,186);fill-rule:nonzero;"/>        <path d="M106.8,33.4l-0.8,-0.8c1.3,-1.1 2.1,-2.4 2,-2.7c0,0 -0.4,-0.5 -3.3,0.2l-0.3,-1.1c2.7,-0.6 4.1,-0.5 4.5,0.4c0.8,1.2 -1.2,3.2 -2.1,4Zm-2.8,-10.1c0,0 -10.6,3.2 -21.1,0.8c0,0 -8.5,-4.3 -2.6,0.8c0,0 -6,-2.1 -5.1,-0.5c0,0 2,3 7.3,2.5c5.3,-0.5 13.7,3.4 13.7,3.4c0,0 3.3,2.7 5.1,7.6c1.8,4.9 10.3,-1.2 11.3,-5c0.1,0 1.8,-7.6 -8.6,-9.6" style="fill:rgb(28,148,210);fill-rule:nonzero;"/>        <path d="M78.9,35.9c0,0 -4,3.2 -7.3,2.8c-3.3,-0.4 -5.8,3 -1,2.5c0,0 0.8,-0.1 1,0.8c0.2,0.9 3.8,3.4 4.4,-0.5c0,0 -2.6,-2.1 5.4,-2.2c0,0 -5.9,3.7 2.5,3.6c0,0 -2.4,3.7 -7.7,3.1c-5.2,-0.5 -10.8,-3.6 -12.7,-0.9c0,0 -5.5,0 -6.4,-0.7c-0.9,-0.7 -1.6,-0.7 -0.4,0.4c1.2,1.1 -0.5,2.4 -1.5,2.4c0,0 -2.8,0.1 -4.9,-1.8c0,0 -8.7,1.3 -3.3,4c5.5,2.7 7.3,0.5 7.3,0.5c0,0 3.7,-1.5 6.4,-1.1c0,0 4.8,-0.3 7,3.2c0,0 3.9,2.1 2.3,2.9c0,0 1.1,0.2 1.8,-0.8c0,0 2.4,0.5 -0.1,-0.6c-2.5,-1.1 -3.4,-3.9 -3.4,-3.9c0,0 1.7,-1.2 6.1,3.3c0,0 -0.6,2.9 2.4,2.8c0,0 0.8,-3.1 4.3,-0.4c-0.1,0.1 12.5,-7.8 -2.2,-19.4" style="fill:rgb(188,190,192);fill-rule:nonzero;"/>        <path d="M58.6,39.4c0,0 3,2.9 -1.4,2.9c0,0 3,1.3 -1,0.6c0,0 3.6,1.3 6.2,0.6c0,0 -2.6,-2.6 -0.6,-3.2c0,0.1 0.5,-1.9 -3.2,-0.9" style="fill:rgb(188,190,192);fill-rule:nonzero;"/>        <path d="M56.6,39.6c0,0 -5.8,0.8 -2,1.4c3.8,0.6 2.6,0.1 3.1,-0.4c0.5,-0.5 -0.4,-1 -1.1,-1" style="fill:rgb(188,190,192);fill-rule:nonzero;"/>        <path d="M69.3,55c0,0 -3.7,-1.1 -2.1,0.2c1.6,1.3 2.7,0.3 2.1,-0.2" style="fill:rgb(188,190,192);fill-rule:nonzero;"/>        <path d="M62.1,60.2c-14.2,0 -24.1,-3.5 -29.9,-6.6c-6.6,-3.5 -9.6,-6.9 -9.8,-7.1c-7.5,-8.1 -0.8,-14.7 -0.7,-14.7c6.3,-5.5 15.9,-6.6 22.9,-6.5c7.5,0.1 13.7,1.5 13.7,1.5l-0.1,0.7c-0.1,0 -6.2,-1.4 -13.6,-1.5c-6.9,-0.1 -16.3,1 -22.4,6.4c0,0 -1.6,1.6 -2.3,4c-0.9,3.3 0.1,6.6 3.1,9.8c0,0 3.1,3.6 9.6,7c6,3.1 16.4,6.8 31.5,6.5c0.2,0 16.4,-0.8 20.6,-8.2c1.5,-2.7 1.2,-6.1 -1,-10l0.6,-0.3c2.3,4.1 2.6,7.7 1,10.7c-4.3,7.7 -20.5,8.5 -21.1,8.5c-0.8,-0.2 -1.4,-0.2 -2.1,-0.2" style="fill:rgb(109,110,113);fill-rule:nonzero;"/>        <path d="M37.7,14.9c0,0 2,3.5 12.1,1.9c0,0 11.3,6.1 9.5,14.3l-3.7,2.8c0,0 1.2,-9.8 -6.4,-11.2c0,0 7.4,5.4 -1.8,11.2l-4.6,-0.2c0,0 9.4,-7.4 -3.1,-10.7c0.2,0 -6.9,-2.1 -2,-8.1" style="fill:rgb(10,114,186);fill-rule:nonzero;"/>    </g>    <defs>        <linearGradient id="_Linear1" x1="0" y1="0" x2="1" y2="0" gradientUnits="userSpaceOnUse" gradientTransform="matrix(80.0043,0,0,80.0043,0.074518,60.429)"><stop offset="0" style="stop-color:white;stop-opacity:0"/><stop offset="0.09" style="stop-color:rgb(203,203,203);stop-opacity:0.13"/><stop offset="0.2" style="stop-color:rgb(142,142,142);stop-opacity:0.31"/><stop offset="0.31" style="stop-color:rgb(91,91,91);stop-opacity:0.48"/><stop offset="0.41" style="stop-color:rgb(52,52,52);stop-opacity:0.64"/><stop offset="0.5" style="stop-color:rgb(23,23,23);stop-opacity:0.78"/><stop offset="0.58" style="stop-color:rgb(6,6,6);stop-opacity:0.91"/><stop offset="0.64" style="stop-color:black;stop-opacity:1"/><stop offset="1" style="stop-color:black;stop-opacity:1"/></linearGradient>    </defs></svg>