<?xml version="1.0" encoding="UTF-8" standalone="no"?><!DOCTYPE svg PUBLIC "-//W3C//DTD SVG 1.1//EN" "http://www.w3.org/Graphics/SVG/1.1/DTD/svg11.dtd"><svg width="100%" height="100%" viewBox="0 0 512 512" version="1.1" xmlns="http://www.w3.org/2000/svg" xmlns:xlink="http://www.w3.org/1999/xlink" xml:space="preserve" style="fill-rule:evenodd;clip-rule:evenodd;stroke-linejoin:round;stroke-miterlimit:2;"><title>Price Value Partners</title><desc></desc>    <g transform="matrix(27.1264,0,0,11.3182,-1157.39,38.813)">        <g transform="matrix(0.0380159,0,0,0.0911132,42.6787,-3.73067)">            <path d="M480.652,35.012c-0,-8.935 -7.254,-16.189 -16.189,-16.189l-433.084,0c-8.935,0 -16.189,7.254 -16.189,16.189l0,433.084c0,8.935 7.254,16.189 16.189,16.189l433.084,-0c8.935,-0 16.189,-7.254 16.189,-16.189l-0,-433.084Z" style="fill:rgb(32,67,156);"/>        </g>        <g transform="matrix(17.9505,0,0,40.1003,45.9825,33.3847)">            <path d="M0.424,-0l-0.171,-0l-0.268,-0.708l0.192,0l0.164,0.502l0.004,-0l0.163,-0.502l0.189,0l-0.273,0.708Z" style="fill:rgb(11,34,100);fill-rule:nonzero;"/>        </g>    </g></svg>