<?xml version="1.0" encoding="UTF-8" standalone="no"?><!DOCTYPE svg PUBLIC "-//W3C//DTD SVG 1.1//EN" "http://www.w3.org/Graphics/SVG/1.1/DTD/svg11.dtd"><svg width="100%" height="100%" viewBox="0 0 512 512" version="1.1" xmlns="http://www.w3.org/2000/svg" xmlns:xlink="http://www.w3.org/1999/xlink" xml:space="preserve" style="fill-rule:evenodd;clip-rule:evenodd;stroke-linejoin:round;stroke-miterlimit:2;"><title>Funding Circle</title><desc>At Funding Circle you lend directly to established small British businesses. They get the funds they need to grow, and you can earn attractive returns as they pay you back each month.</desc>    <g id="b905a40e-b3b2-4fec-a39f-1cd82b631b2c" transform="matrix(4.63636,0,0,4.63636,-40.704,-40.7271)">        <path d="M9.13,57.64c0.244,1.515 1.565,2.64 3.1,2.64l44.94,0c1.719,0 3.135,-1.411 3.14,-3.13l0,-45c-0.069,-1.671 -1.467,-3.007 -3.14,-3l-0.63,0.06c-25.169,1.849 -45.428,22.001 -47.41,47.16l0,1.27Z" style="fill:rgb(141,70,138);fill-rule:nonzero;"/>        <path d="M118.87,57.13c-0.011,1.717 -1.423,3.125 -3.14,3.13l-44.82,0c-0.04,0.002 -0.08,0.002 -0.12,0.002c-1.721,0 -3.14,-1.411 -3.15,-3.132l0,-0.17c1.636,-25.459 22.017,-46.029 47.46,-47.9l0.63,-0.06c1.673,-0.007 3.071,1.329 3.14,3l0,45.13Z" style="fill:rgb(115,36,126);fill-rule:nonzero;"/>        <path d="M9.13,70.46c0.209,-1.55 1.546,-2.719 3.11,-2.72l44.95,0c1.723,0 3.14,1.417 3.14,3.14l0,0.17c-1.613,25.482 -22.006,46.081 -47.47,47.95l-0.63,0c-1.556,0.006 -2.891,-1.15 -3.11,-2.69l0,-45.85l0.01,0Z" style="fill:rgb(141,70,138);fill-rule:nonzero;"/>        <path d="M118.87,115.91c-0.069,1.671 -1.467,3.007 -3.14,3l-0.63,0c-25.426,-1.868 -45.8,-22.41 -47.46,-47.85l0,-0.17c0,-1.723 1.417,-3.14 3.14,-3.14l44.95,0c1.715,0 3.129,1.405 3.14,3.12l0,45.04Z" style="fill:rgb(115,36,126);fill-rule:nonzero;"/>    </g></svg>