<?xml version="1.0" encoding="UTF-8" standalone="no"?><!DOCTYPE svg PUBLIC "-//W3C//DTD SVG 1.1//EN" "http://www.w3.org/Graphics/SVG/1.1/DTD/svg11.dtd"><svg width="100%" height="100%" viewBox="0 0 512 512" version="1.1" xmlns="http://www.w3.org/2000/svg" xmlns:xlink="http://www.w3.org/1999/xlink" xml:space="preserve" style="fill-rule:evenodd;clip-rule:evenodd;stroke-linejoin:round;stroke-miterlimit:2;"><title>Finanzas Para Todos</title><desc>Portal del Plan de Educación Financiera. Sitio web con consejos prácticos y herramientas para planificar el ahorro y la economía personal.</desc>    <g transform="matrix(11.6017,0,0,11.6017,-45.2271,-50.0824)">        <path d="M47.449,38.371c0,5.507 -4.486,9.991 -9.992,9.991c-5.507,-0 -9.992,-4.484 -9.992,-9.991c-0,-5.508 4.485,-9.994 9.992,-9.994c5.537,-0 9.992,4.486 9.992,9.994Z" style="fill:rgb(236,115,47);fill-rule:nonzero;"/>        <path d="M24,33.079l-4.456,-4.484l-5.321,5.29l-5.289,-5.29l-4.455,4.484l5.289,5.292l-5.289,5.288l4.455,4.487l5.289,-5.32l5.321,5.32l4.456,-4.487l-5.291,-5.288l5.291,-5.292Z" style="fill:rgb(57,173,223);fill-rule:nonzero;"/>        <path d="M47.231,23.954l-0,-19.551l-6.527,0l0,6.557l-6.526,-0l0,6.653l-6.467,0l0,6.341l19.52,-0Z" style="fill:rgb(136,186,51);fill-rule:nonzero;"/>    </g></svg>