<?xml version="1.0" encoding="UTF-8" standalone="no"?><!DOCTYPE svg PUBLIC "-//W3C//DTD SVG 1.1//EN" "http://www.w3.org/Graphics/SVG/1.1/DTD/svg11.dtd"><svg width="100%" height="100%" viewBox="0 0 512 512" version="1.1" xmlns="http://www.w3.org/2000/svg" xmlns:xlink="http://www.w3.org/1999/xlink" xml:space="preserve" style="fill-rule:evenodd;clip-rule:evenodd;stroke-linejoin:round;stroke-miterlimit:2;"><title>GreenVesting</title><desc>GreenVesting sees itself as a consultant and solution provider for everything to do with renewable energies. Our expertise lies in the valuation competence of the most complex issues, which is unique in the crowdinvesting industry. Both technically and commercially: Our engineers evaluate all technical aspects in detail, while our business department analyzes and assesses the business risks. In the end there is an overall recommendation based on which we invest or not.</desc>    <g transform="matrix(10.0294,0,0,10.0294,1.00347,7.21153)">        <path d="M27.593,49.612c-0.652,0 -1.292,-0.318 -1.675,-0.904l-3.142,-4.801c-0.53,-0.81 -0.404,-1.882 0.297,-2.547l4.163,-3.947c0.802,-0.762 2.067,-0.728 2.827,0.075c0.76,0.802 0.727,2.067 -0.075,2.827l-1.553,1.473c3.203,0.613 8.691,0.944 12.152,-2.801c0.749,-0.812 2.014,-0.862 2.826,-0.111c0.811,0.749 0.861,2.015 0.111,2.826c-4.338,4.693 -10.516,4.826 -14.645,4.227l0.384,0.587c0.605,0.925 0.346,2.164 -0.578,2.77c-0.337,0.22 -0.716,0.326 -1.092,0.326Z" style="fill:rgb(102,151,48);fill-rule:nonzero;"/>        <path d="M50.298,28.949c-0.696,-0.729 -1.81,-0.81 -2.608,-0.238c0.56,-4.374 -0.607,-8.591 -3.352,-11.109c-1.29,-1.183 -2.817,-1.857 -4.451,-2.014c0.191,-0.677 0.339,-1.543 0.443,-2.724c0.013,-0.141 0.01,-0.282 -0.007,-0.422c-0.935,-7.559 -6.891,-12.208 -15.931,-12.437c-6.043,-0.136 -13.724,2.498 -17.314,8.762c-0.549,0.958 -0.217,2.181 0.741,2.73c0.959,0.549 2.181,0.217 2.73,-0.741c2.361,-4.121 8.021,-6.901 13.741,-6.752c4.067,0.103 11.002,1.379 12.037,8.723c-0.185,1.933 -0.427,2.233 -0.817,2.719c-0.175,0.218 -0.386,0.48 -0.615,0.827l-1.016,0.991c-0.722,0.706 -0.806,1.838 -0.194,2.642c0.611,0.804 1.726,1.028 2.598,0.518c1.456,-0.847 3.567,-1.513 5.351,0.125c1.958,1.796 2.911,5.892 1.533,10.131l-1.909,-1.397c-0.892,-0.652 -2.142,-0.46 -2.795,0.432c-0.652,0.892 -0.459,2.143 0.432,2.795l4.625,3.387c0.354,0.26 0.768,0.387 1.181,0.387c0.5,0 0.997,-0.187 1.38,-0.552l4.149,-3.954c0.8,-0.764 0.83,-2.029 0.068,-2.829Z" style="fill:rgb(96,150,208);fill-rule:nonzero;"/>        <path d="M19.388,38.299c-6.631,-3.189 -10.835,-9.876 -10.988,-17.109l0.778,0.899c0.396,0.457 0.953,0.691 1.513,0.691c0.464,0 0.93,-0.161 1.308,-0.488c0.835,-0.723 0.926,-1.986 0.203,-2.821l-3.754,-4.337c-0.633,-0.731 -1.699,-0.905 -2.529,-0.413l-4.936,2.916c-0.951,0.562 -1.267,1.788 -0.705,2.739c0.563,0.951 1.79,1.267 2.739,0.705l1.37,-0.809c-0.2,9.103 4.965,17.639 13.266,21.633c0.28,0.134 0.575,0.197 0.866,0.197c0.745,0 1.459,-0.417 1.804,-1.133c0.479,-0.995 0.06,-2.19 -0.935,-2.67Z" style="fill:rgb(249,178,45);fill-rule:nonzero;"/>    </g></svg>