<?xml version="1.0" encoding="UTF-8" standalone="no"?><!DOCTYPE svg PUBLIC "-//W3C//DTD SVG 1.1//EN" "http://www.w3.org/Graphics/SVG/1.1/DTD/svg11.dtd"><svg width="100%" height="100%" viewBox="0 0 512 512" version="1.1" xmlns="http://www.w3.org/2000/svg" xmlns:xlink="http://www.w3.org/1999/xlink" xml:space="preserve" style="fill-rule:evenodd;clip-rule:evenodd;stroke-linejoin:round;stroke-miterlimit:2;"><title>Finx</title><desc>Finx examine and connect borrowers seeking loans with investors offering loans and enable us to conclude, draw on, repay and recover these loans.</desc>    <g transform="matrix(10.9685,0,0,10.9685,-1080.58,-227.744)">        <path d="M113.054,43.664l-13.166,-18.803c-0.321,-0.458 -0.36,-1.057 -0.102,-1.553c0.259,-0.496 0.771,-0.807 1.331,-0.807l7.878,0c0.491,0 0.951,0.24 1.231,0.644l11.13,15.13l12.13,-15.13c0.281,-0.404 0.741,-0.644 1.232,-0.644l7.878,0c0.559,0 1.072,0.311 1.33,0.807c0.259,0.496 0.219,1.095 -0.102,1.553l-13.165,18.803l14.163,19.665c0.329,0.457 0.374,1.059 0.118,1.56c-0.257,0.501 -0.772,0.816 -1.335,0.816l-7.878,0c-0.482,0 -0.935,-0.231 -1.216,-0.622l-13.155,-16.07l-12.154,16.07c-0.282,0.391 -0.734,0.622 -1.216,0.622l-7.878,0c-0.563,0 -1.079,-0.315 -1.335,-0.816c-0.257,-0.501 -0.211,-1.103 0.118,-1.56l14.163,-19.665Z" style="fill:rgb(27,155,215);fill-rule:nonzero;"/>    </g></svg>