<?xml version="1.0" encoding="UTF-8" standalone="no"?><!DOCTYPE svg PUBLIC "-//W3C//DTD SVG 1.1//EN" "http://www.w3.org/Graphics/SVG/1.1/DTD/svg11.dtd"><svg width="100%" height="100%" viewBox="0 0 512 512" version="1.1" xmlns="http://www.w3.org/2000/svg" xmlns:xlink="http://www.w3.org/1999/xlink" xml:space="preserve" style="fill-rule:evenodd;clip-rule:evenodd;stroke-linejoin:round;stroke-miterlimit:2;"><title>Fixura</title><desc>The companies that offer peer-to-peer loans have based their business concept upon an ancient principle: that people lend money to each other. In English this is called either P2P lending or peer-to-peer lending. With the help of state-of-the-art technique it is today much easier to connect people who need to borrow money with people who want to lend money than it was before.</desc>    <g id="g12" transform="matrix(0.675916,0,0,-0.675916,-2886.12,922.066)">        <path id="path28" d="M4983.8,924.488l-335.16,221.492l0,-322.578l314.35,-207.738c19.04,-12.578 44.42,1.074 44.42,23.895l0,241.015c0,17.676 -8.87,34.168 -23.61,43.914" style="fill:url(#_Linear1);fill-rule:nonzero;"/>        <path id="path44" d="M4307.54,920.496l341.19,225.484l0,-322.578l-319.25,-210.976c-16.94,-11.192 -39.52,0.953 -39.52,21.258l0,254.129c0,13.152 6.6,25.429 17.58,32.683" style="fill:url(#_Linear2);fill-rule:nonzero;"/>        <path id="path48" d="M4986.85,1046.89l-338.21,-223.507l0,322.577l321.95,212.76c15.78,10.43 36.82,-0.89 36.82,-19.8l0,-253.79c0,-15.4 -7.72,-29.75 -20.56,-38.24" style="fill:rgb(41,61,155);fill-rule:nonzero;"/>        <path id="path50" d="M4308.65,1048.13l340.08,-224.747l0,322.577l-317.08,209.54c-17.87,11.8 -41.69,-1.01 -41.69,-22.42l0,-250.2c0,-13.99 7.02,-27.04 18.69,-34.75" style="fill:rgb(145,143,144);fill-rule:nonzero;"/>    </g>    <defs>        <linearGradient id="_Linear1" x1="0" y1="0" x2="1" y2="0" gradientUnits="userSpaceOnUse" gradientTransform="matrix(-358.785,4.39385e-14,-4.39385e-14,-358.785,5007.1,840.171)"><stop offset="0" style="stop-color:rgb(41,62,155);stop-opacity:1"/><stop offset="1" style="stop-color:rgb(25,19,52);stop-opacity:1"/></linearGradient>        <linearGradient id="_Linear2" x1="0" y1="0" x2="1" y2="0" gradientUnits="userSpaceOnUse" gradientTransform="matrix(358.768,0,0,358.768,4289.96,608.163)"><stop offset="0" style="stop-color:rgb(145,143,144);stop-opacity:1"/><stop offset="1" style="stop-color:rgb(70,67,68);stop-opacity:1"/></linearGradient>    </defs></svg>