<?xml version="1.0" encoding="UTF-8" standalone="no"?><!DOCTYPE svg PUBLIC "-//W3C//DTD SVG 1.1//EN" "http://www.w3.org/Graphics/SVG/1.1/DTD/svg11.dtd"><svg width="100%" height="100%" viewBox="0 0 512 512" version="1.1" xmlns="http://www.w3.org/2000/svg" xmlns:xlink="http://www.w3.org/1999/xlink" xml:space="preserve" style="fill-rule:evenodd;clip-rule:evenodd;stroke-linejoin:round;stroke-miterlimit:2;"><title>Lendity</title><desc>Lendity provides institutional-grade investment solutions to access to the best marketplace and private debt opportunities across the globe.Lendity connects alternative lending platforms with professional investment managers and institutional investors using cost-effective investment solutions.</desc>    <g transform="matrix(1.08511,0,0,1.08511,-750.979,-551.319)">        <path d="M991,579.629l-41,8.371l-44,-3l44,-76l41,70.629Z" style="fill:rgb(0,199,245);"/>        <path d="M1027,644l-33.544,57.913l-30.456,-34.913l-13,-79l40.285,-8.371l36.715,64.371Z" style="fill:rgb(0,177,239);"/>        <path d="M906,585l44.349,3.117l12.704,79.283l-62.433,53.047l-34.62,-64.447l40,-71Z" style="fill:rgb(0,148,210);"/>        <path d="M866,656l56,104l-74,20l-51,-6l69,-118Z" style="fill:rgb(0,107,156);"/>        <path d="M797,774l51,6l-3,94l-71,-6l-15,-26l38,-68Z" style="fill:rgb(0,72,126);"/>        <path d="M774,868l64,111l84,-40l-77,-65l-71,-6Z" style="fill:rgb(0,57,126);"/>        <path d="M845,874l65,-29l84,-143l-30.947,-35l-62.053,53.447l21,39.553l-74,20l-3,94Z" style="fill:rgb(0,120,180);"/>        <path d="M910,845l111,0l-99,94l-77,-65l65,-29Z" style="fill:rgb(0,39,96);"/>        <path d="M922,939l72,40l-156,0l84,-40Z" style="fill:rgb(0,39,96);"/>        <path d="M922,939l99,-94l76,134l-103,0l-72,-40Z" style="fill:rgb(0,23,64);"/>    </g></svg>