<?xml version="1.0" encoding="UTF-8" standalone="no"?><!DOCTYPE svg PUBLIC "-//W3C//DTD SVG 1.1//EN" "http://www.w3.org/Graphics/SVG/1.1/DTD/svg11.dtd"><svg width="100%" height="100%" viewBox="0 0 512 512" version="1.1" xmlns="http://www.w3.org/2000/svg" xmlns:xlink="http://www.w3.org/1999/xlink" xml:space="preserve" style="fill-rule:evenodd;clip-rule:evenodd;stroke-linejoin:round;stroke-miterlimit:2;"><title>Asetku</title><desc>ASETKU provides an easy way to grow your wealth in one click away. No more long and complicated process on lending money with ASETKU. Start funding and get a return up to 24%.</desc>    <g id="layer102" transform="matrix(3.24841,0,0,3.25337,-1048.24,-498.266)">        <path d="M323.2,249.3l0.3,-51.8l9,-2.6l9,-2.6l0.3,24.8c0.1,13.7 0.6,24.9 1,24.9c0.4,0 11.5,-12.8 24.7,-28.5l23.9,-28.5l11.8,0c6.5,0 11.8,0.4 11.8,0.8c0,0.4 -13.2,16.5 -29.4,35.8l-29.4,34.9l21.4,21.5c11.8,11.8 21.4,21.9 21.4,22.3c0,0.4 -5.7,0.7 -12.8,0.7l-12.7,0l-15,-15c-8.2,-8.2 -15.3,-15 -15.7,-15c-0.5,0 -0.8,6.8 -0.8,15l0,15l-9.5,0l-9.5,0l0.2,-51.7Z" style="fill:rgb(242,142,30);fill-rule:nonzero;"/>        <path d="M413,207.4c-3.6,-3 -6.6,-5.8 -6.8,-6.2c-0.3,-0.9 10.6,-14.2 11.6,-14.2c1,0 29.6,24 30,25.1c0.2,0.5 -6,0.9 -14,0.9l-14.3,-0.1l-6.5,-5.5Z" style="fill:rgb(242,142,30);fill-rule:nonzero;"/>        <path d="M443.3,205.3c-3.7,-3.1 -7,-5.8 -7.2,-5.9c-0.2,-0.2 4.9,-6.5 11.2,-14.1l11.6,-13.8l-2.6,-2.7c-1.5,-1.6 -2.3,-2.8 -1.7,-2.8c0.5,0 6.1,-0.9 12.4,-2c8.9,-1.5 11.6,-1.7 12.2,-0.7c0.4,0.6 0.8,6.5 0.8,13l0,11.8l-2.9,-2c-1.6,-1.2 -3.1,-2.1 -3.3,-2.1c-0.3,0 -5.6,6.1 -11.8,13.5c-6.2,7.4 -11.4,13.5 -11.6,13.5c-0.1,0 -3.3,-2.6 -7.1,-5.7Z" style="fill:rgb(242,142,30);fill-rule:nonzero;"/>    </g></svg>