<?xml version="1.0" encoding="UTF-8" standalone="no"?><!DOCTYPE svg PUBLIC "-//W3C//DTD SVG 1.1//EN" "http://www.w3.org/Graphics/SVG/1.1/DTD/svg11.dtd"><svg width="100%" height="100%" viewBox="0 0 512 512" version="1.1" xmlns="http://www.w3.org/2000/svg" xmlns:xlink="http://www.w3.org/1999/xlink" xml:space="preserve" style="fill-rule:evenodd;clip-rule:evenodd;stroke-linejoin:round;stroke-miterlimit:2;"><title>Sekrata</title><desc>Sekrata PL - become an investor or borrower! The choice is yours We are used to taking loans from non-banking companies. It turns out that in the case of social loans, we can not only apply for a loan, but also grant it ourselves. This is one way to make money online. Sekrata PL belongs to platforms with social loans</desc>    <g transform="matrix(12.2642,0,0,12.2642,-1224.64,-247.412)">        <g transform="matrix(1.41245,0,0,0.884772,-43.5381,-0.466057)">            <path d="M124.124,31.291l-7.871,7.871l0,-15.742l7.871,7.871Z" style="fill:rgb(63,163,1);"/>        </g>        <g transform="matrix(1.41245,0,0,0.884772,-43.5381,13.2611)">            <path d="M124.124,31.291l-7.871,7.871l0,-15.742l7.871,7.871Z" style="fill:rgb(206,250,20);"/>        </g>        <g transform="matrix(1.41245,0,0,0.884772,-54.4112,6.49828)">            <path d="M124.124,31.291l-7.871,7.871l0,-15.742l7.871,7.871Z" style="fill:rgb(147,222,0);"/>        </g>        <g transform="matrix(-1.41245,0,0,0.884772,284.996,-0.466057)">            <path d="M124.124,31.291l-7.871,7.871l0,-15.742l7.871,7.871Z" style="fill:rgb(88,194,1);"/>        </g>        <g transform="matrix(-1.41245,0,0,0.884772,284.996,13.4626)">            <path d="M124.124,31.291l-7.871,7.871l0,-15.742l7.871,7.871Z" style="fill:rgb(177,230,42);"/>        </g>        <g transform="matrix(-1.41245,0,0,0.884772,295.982,20.2254)">            <path d="M124.124,31.291l-7.871,7.871l0,-15.742l7.871,7.871Z" style="fill:rgb(192,238,1);"/>        </g>        <g transform="matrix(1.41245,0,0,0.884772,-43.5381,27.1898)">            <path d="M124.124,31.291l-7.871,7.871l0,-15.742l7.871,7.871Z" style="fill:rgb(143,201,2);"/>        </g>        <g transform="matrix(-1.41245,0,0,0.884772,284.996,27.1898)">            <path d="M124.124,31.291l-7.871,7.871l0,-15.742l7.871,7.871Z" style="fill:rgb(63,163,1);"/>        </g>    </g></svg>