<?xml version="1.0" encoding="UTF-8" standalone="no"?><!DOCTYPE svg PUBLIC "-//W3C//DTD SVG 1.1//EN" "http://www.w3.org/Graphics/SVG/1.1/DTD/svg11.dtd"><svg width="100%" height="100%" viewBox="0 0 512 512" version="1.1" xmlns="http://www.w3.org/2000/svg" xmlns:xlink="http://www.w3.org/1999/xlink" xml:space="preserve" style="fill-rule:evenodd;clip-rule:evenodd;stroke-linejoin:round;stroke-miterlimit:2;"><title>Dom Com Agricole</title><desc>Dom Com Invest operates as an overseas tax exemption fitter framed by article 242 septies of the General Tax Code. In application of the LODEOM law, since 2011 it has designed and developed the Girardin Agricole offer which allows tax investors to subsidize agricultural projects in Guyana in exchange for a tax reduction greater than the amount of their financial contribution.</desc>    <g transform="matrix(1.04198,0,0,1.04198,-360.732,-8.80792)">        <path d="M416.548,125.4l-39.087,8.224l16.686,22.273l-4.393,3.63l-17.608,-5.57l15.485,20.116l-24.949,-1.708l25.034,13.027l-1.073,5.755l-29.073,0.046c0,-0 17.635,14.976 15.817,23.938c-1.818,8.962 -5.635,11.441 -11.958,19.061c-6.323,7.621 -7.988,5.387 -9.361,19.501c-1.374,14.115 -4.91,27.549 -4.91,27.549l32.146,-9.907l3.512,8.497l-33.356,13.309l18.752,7.764l-20.94,10.195l15.428,4.534l-7.206,14.519l47.029,-9.034l-31.796,-12.297l56.166,-68.187c0,0 25.485,12.976 32.873,7.899c7.387,-5.077 11.285,-17.122 11.285,-17.122c-0,0 -1.004,-0.153 -6.707,-2.004c-5.703,-1.851 -21.979,-5.906 -28.765,-4.185c-6.785,1.721 -12.891,2.693 -18.722,10.604c-5.831,7.912 -10.532,14.621 -20.446,19.009c-9.914,4.388 -39.831,7.003 -39.831,7.003c0,-0 30.731,-45.006 39.589,-51.244c6.88,-4.846 11.913,-12.297 33.306,-17.684c21.393,-5.387 31.222,-14.837 37.144,-18.153c5.922,-3.317 16.361,-4.105 23.425,-4.014c10.295,0.132 33.568,34.274 33.314,40.192c-0.254,5.917 2.931,15.298 -3.752,21.825c-6.683,6.527 -3.743,6.79 -9.663,7.179c-5.92,0.389 -23.701,6.235 -28.224,10.506c-4.522,4.271 -5.737,5.422 -5.737,5.422c0,0 10.146,9.019 7.63,22.862c-2.515,13.843 -4.619,25.311 -15.369,34.78c-10.751,9.468 -11.788,11.115 -11.788,11.115l-47.582,0.238l2.181,12.895l-48.782,5.694l-0.328,4.267l45.501,3.654l-32.516,25.084l21.607,0.764l-7.171,15.743l7.676,5.566l18.165,-43.572l43,-21.42c-0,0 5.63,25.18 2.813,40.763c-4.477,24.768 -28.843,41.736 -28.843,41.736l18.42,-38.421l-44.081,30.105l2.797,4.502l16.906,-5.136l1.396,26.008l35.31,-25.865l4.882,6.876l-21.302,27.192l18.642,12.643l6.665,-30.158l8.806,1.602l0.274,45.77c-0,-0 16.23,5.586 19.338,5.483c3.109,-0.103 2.906,-7.963 8.163,-18.119c5.258,-10.155 40.817,-66.737 40.817,-66.737l24.13,-5.237l-14.117,61.393l-32.084,35.746l4.98,6.046l11.889,-8.336l4.153,8.518l19.327,-25.402l13.705,28.037l0.399,-19.069l-9.964,-58.002l26.769,-6.422c0,-0 12.859,19.021 15.514,30.823c2.855,12.691 -6.89,38.744 -6.89,38.744c-0,0 25.629,-27.823 34.556,-27.772c8.927,0.051 21.358,1.482 21.358,1.482l-14.989,38.121l25.054,-8.767c-0,-0 -4.657,-12.125 -0.361,-12.266c4.296,-0.141 26.42,5.378 26.42,5.378l4.165,-20.68l20.334,10.507c0,0 -24.076,-30.325 -42.472,-33.015c-18.395,-2.69 -33.848,8.75 -47.385,8.186c-10.147,-0.422 -17.557,-27.092 -19.117,-31.463c-1.559,-4.371 -11.357,-55.299 -11.357,-55.299c0,0 50.002,14.069 56.289,15.194c6.288,1.125 11.929,1.277 16.862,-2.791c4.932,-4.068 11.692,-8.016 18.605,0.925c6.913,8.941 34.498,77.873 34.498,77.873l14.12,-10.741l-12.001,-20.142l36.078,8.061l-21.132,-53.471l9.023,-5.418c0,-0 14.894,15.378 15.399,18.664c0.506,3.286 -0.808,12.293 3.207,12.809c4.015,0.515 11.566,-5.217 11.566,-5.217c-0,0 -6.036,-2.044 -8.794,-9.163c-2.758,-7.119 -3.883,-17.867 -8.131,-21.557c-4.248,-3.691 -7.805,-10.133 -18.513,-7.442c-10.708,2.691 -9.873,6.679 -16.306,4.781c-6.434,-1.898 -22.208,-10.985 -22.208,-10.985c-0,0 15.229,-21.364 42.109,-16.759c26.881,4.605 32.232,12.814 31.308,23.666c-0.924,10.851 -4.271,19.091 -2.431,26.158c1.84,7.067 1.915,7.588 1.915,7.588l9.394,-19.759l10.894,-0.426l-17.917,-37.891l7.934,-6.281l15.797,29.929l16.074,-31.605c-0,0 -35.583,1.712 -53.915,-11.133c-24.864,-17.422 -31.5,-41.102 -31.5,-41.102c-0,0 32.859,-13.979 57.387,-0.697c24.528,13.282 29.876,21.355 29.876,21.355l7.899,-17.966c-0,-0 -22.583,-18.518 -62.859,-19.216c-40.277,-0.698 -65.044,13.442 -65.044,13.442l-3.909,-41.694l-29.766,6.211c0,-0 -10.169,-41.079 -10.389,-52.563c-0.22,-11.484 -0.481,-26.154 -0.481,-26.154c-0,0 -24.626,-2.894 -29.56,-8.085c-4.933,-5.192 -11.782,-6.579 -9.125,-19.866c2.657,-13.287 18.364,-49.082 24.079,-54.625c5.714,-5.544 15.885,-23.057 15.885,-23.057c0,-0 1.313,25.352 4.189,35.143c2.876,9.79 10.409,25.934 8.768,37.142c-1.641,11.209 -8.951,30.461 -8.951,30.461l43.205,-23.616c-0,-0 -21.305,-2.565 -24.541,-9.962c-3.236,-7.398 -2.475,-12.371 0.165,-16.092c2.641,-3.721 5.17,-29.312 5.724,-35.346c0.553,-6.033 1.55,-15.72 1.55,-15.72l-3.073,-0.841l-9.347,20.271l-14.883,-36.721l-20.396,17.712l-4.151,-11.499l-35.913,94.951c0,-0 -19.18,-14.077 -21.347,-31.156c-2.167,-17.079 -6.791,-36.395 -6.791,-36.395l6.286,3.884l37.117,-39.861l-4.825,-5.153l-37.981,35.527l7.353,-38.524l-4.443,-2.356l-11.916,21.762l-16.674,-19.212l22.487,84.834l8.5,2.892l1.074,3.387c-0,0 -7.221,8.533 -3.889,16.796c3.331,8.262 5.083,13.57 27.807,21.458c22.724,7.887 26.295,22.512 28.074,29.997c1.78,7.485 1.118,9.301 1.118,9.301c0,0 -7.569,5.034 -7.992,14.192c-0.423,9.158 -0.225,20.327 4.645,30.545c4.871,10.218 5.341,15.165 5.341,15.165c0,-0 -23.635,13.601 -30.684,20.489c-7.048,6.888 -16.101,19.974 -16.101,19.974c0,0 -16.093,-9.687 -17.125,-17.524c-1.032,-7.838 -3.481,-8.352 0.4,-16.701c3.881,-8.35 3.333,-26.257 3.47,-24.234c0.137,2.023 0.36,-5.36 0.36,-5.36l13.667,0.785c0,-0 -14.435,-9.688 -21.504,-10.8c-7.069,-1.111 -35.043,-12.263 -44.966,-29.057c-9.923,-16.793 -21.463,-35.247 -12.551,-58.95c8.911,-23.704 16.595,-26.744 21.35,-42.006c4.756,-15.261 7.44,-54.327 7.44,-54.327l-23.492,5.792l12.066,30.856l-9.33,7.443l-26.422,-42.096l-6.699,6.379c-0,-0 7.968,12.91 16.718,21.138c8.75,8.229 14.181,17.793 13.217,24.725c-0.964,6.931 -9.79,18.544 -9.79,18.544c0,0 -21.32,-8.88 -26.975,-15.443c-5.654,-6.563 -8.35,-8.562 -8.942,-24.266c-0.591,-15.704 -0.854,-19.705 -0.854,-19.705l-23.773,7.523l14.736,17.111l-20.434,4.186c-0,0 41.329,23.014 47.575,32.584c6.246,9.569 16.162,28.313 8.411,35.637c-7.75,7.325 -22.356,11.901 -30.545,9.239c-8.189,-2.663 -5.379,-2.29 -15.045,-18.769c-9.667,-16.479 -25.655,-58.727 -25.655,-58.727l-7.988,-1.499l7.988,16.253l-23.807,-0.501c0,0 22.936,8.829 30.259,17.211c7.322,8.382 7.709,22.096 6.733,24.415c-0.976,2.319 -1.472,2.765 -1.472,2.765l-26.797,-21.905l-20.578,4.914l21.954,12.458Zm67.307,333.31l7.732,11.324c-0,-0 8.581,-27.069 14.035,-33.504c5.453,-6.435 45.205,-49.876 45.205,-49.876l14.912,-28.455l-2.99,-2.645c0,-0 -17.356,-0.231 -23.364,1.1c-6.008,1.331 -35.998,19.516 -40.731,24.305c-4.733,4.789 -11.691,6.174 -13.399,9.528c-1.708,3.354 -4.016,10.27 -2.597,17.154c1.419,6.884 9.108,21.678 8.891,28.467c-0.217,6.788 -0.67,13.434 -4.612,16.662c-3.942,3.228 -3.082,5.94 -3.082,5.94Zm232.546,-93.153l8.429,-5.638l28.542,46.802c0,-0 -19.645,-1.367 -27.11,-9.549c-10.255,-11.241 -9.861,-31.615 -9.861,-31.615Zm-199.992,-122.538l8.901,26.049c-0,0 -23.131,20.838 -26.245,27.792c-3.114,6.953 -4.198,12.646 -13.168,20.167c-8.97,7.52 -12.824,7.166 -18.199,7.576c-5.374,0.41 -8.314,1.322 -8.314,1.322l13.153,7.235l5.051,47.439l84.285,-50.541l7.154,25.983l33.417,-8.353l-0.595,-10.609l-31.06,-5.569c-0,0 11.885,-35.662 1.47,-48.412c-13.368,-16.366 -38.981,-18.865 -38.981,-18.865c0,0 6.814,-13.156 0.839,-17.435c-5.975,-4.279 -17.708,-3.779 -17.708,-3.779Zm83.263,58.717l-9.172,7.139c-0,-0 20.275,33.494 25.981,36.575c5.706,3.081 17.348,2.537 19.908,3.967c2.56,1.431 3.522,-1.82 3.522,-1.82l0.525,-3.55l-40.764,-42.311Zm75.44,-68.257c0,-0 15.975,30.117 36.113,37.968c20.138,7.85 11.883,0.938 29.128,13.824c17.245,12.886 25.411,20.697 25.411,20.697l-84.519,14.662c-0,0 -5.466,12.441 -13.019,13.369c-7.554,0.929 -17.317,7.826 -32.443,-9.546c-15.126,-17.373 -18.062,-19.65 -16.334,-31.032c1.729,-11.382 16.57,-35.581 16.57,-35.581l5.752,-7.897l17.954,-6.01c0,-0 -7.719,-10.163 -2.132,-11.853c5.587,-1.69 14.274,-3.014 14.274,-3.014l3.245,4.413Zm-267.958,-101.383l-9.212,8.722c0,-0 6.088,40.519 9.569,41.557c3.48,1.038 24.837,0.091 29.698,-5.959c4.861,-6.05 10.379,-24.563 5.08,-29.637c-5.299,-5.073 -35.135,-14.683 -35.135,-14.683Z" style="fill:rgb(91,67,55);"/>        <path d="M739.797,73.137l-19.848,35.606l30.832,6.388l3.337,-4.768l-22.499,-5.341l16.206,-26.288l-8.028,-5.597Z" style="fill:rgb(91,67,55);"/>        <path d="M787.665,124.562l-27.264,51.432l23.592,57.334l6.265,-21.084l37.862,11.551l1.861,-3.863l-57.536,-28.062l46.19,-16.061l-43.424,-3.264l32.533,-30.283l-1.968,-3.595l-16.723,6.925l4.577,-18.919l-5.965,-2.111Z" style="fill:rgb(91,67,55);"/>    </g></svg>