<?xml version="1.0" encoding="UTF-8" standalone="no"?><!DOCTYPE svg PUBLIC "-//W3C//DTD SVG 1.1//EN" "http://www.w3.org/Graphics/SVG/1.1/DTD/svg11.dtd"><svg width="100%" height="100%" viewBox="0 0 512 512" version="1.1" xmlns="http://www.w3.org/2000/svg" xmlns:xlink="http://www.w3.org/1999/xlink" xml:space="preserve" style="fill-rule:evenodd;clip-rule:evenodd;stroke-linejoin:round;stroke-miterlimit:2;"><title>SOSCredit</title><desc>Established in 2015, SOS CREDIT is lead by an international team with experience across the finance, payments and marketing industries. The company provides consumer loans issued in Ukraine.Each month SOS CREDIT issues more than 14 thousand loans. The company is able to issue such a high volume because of their machine-learning scoring algorithms, which allows it to check the creditworthiness of a borrower in 5.15 seconds, with manual verifications taking less than 20 minutes.</desc>    <g transform="matrix(1.58287,0,0,1.58287,-88.4418,-112.492)">        <path d="M344.1,134.65l-43.4,43.9c21,32.9 21,75.5 0,108.4l43.4,43.9c43.8,-57.7 43.9,-138.5 0,-196.2Zm-72.9,14.2l43.4,-43.9c-57.1,-44.4 -137,-44.3 -194,0.1l43.4,43.9c32.6,-21.3 74.7,-21.4 107.2,-0.1Zm-107.2,167.9l-43.4,43.9c57.1,44.4 137,44.3 194,-0.1l-43.4,-43.9c-32.5,21.3 -74.7,21.4 -107.2,0.1Zm-29.4,-138.1l-43.4,-43.9c-43.9,57.7 -44,138.5 -0.1,196.1l43.4,-43.9c-21,-32.8 -20.9,-75.4 0.1,-108.3Z" style="fill:rgb(210,33,32);"/>    </g></svg>