<?xml version="1.0" encoding="UTF-8" standalone="no"?><!DOCTYPE svg PUBLIC "-//W3C//DTD SVG 1.1//EN" "http://www.w3.org/Graphics/SVG/1.1/DTD/svg11.dtd"><svg width="100%" height="100%" viewBox="0 0 512 512" version="1.1" xmlns="http://www.w3.org/2000/svg" xmlns:xlink="http://www.w3.org/1999/xlink" xml:space="preserve" style="fill-rule:evenodd;clip-rule:evenodd;stroke-linejoin:round;stroke-miterlimit:2;"><title>Bondkick</title><desc>Bondkick is an international financial technology company that helps businesses grow by bringing together the money that longs for growth and the companies in need of funding. We offer a convenient and flexible service that increases the earning potential of both the investors and the entrepreneurs.</desc>    <g transform="matrix(4.09189,0,0,4.09189,1.00004,49.5976)">        <g transform="matrix(1,0,0,1,-526.792,-333.875)">            <path d="M636.261,399.16c-8.318,-0.001 -15.163,-6.846 -15.163,-15.165c0,-8.319 6.846,-15.165 15.165,-15.165c8.319,0 15.164,6.845 15.165,15.163c-0.001,8.32 -6.847,15.166 -15.167,15.167" style="fill:rgb(16,137,72);fill-rule:nonzero;"/>        </g>        <g transform="matrix(1,0,0,1,-526.792,-333.875)">            <path d="M636.261,432.253c-0.002,0 -0.005,0 -0.007,0c-8.325,0 -15.175,-6.851 -15.175,-15.175c0,-8.324 6.85,-15.174 15.175,-15.174c8.321,0 15.17,6.844 15.174,15.166c-0.001,8.322 -6.844,15.172 -15.167,15.183" style="fill:rgb(16,137,72);fill-rule:nonzero;"/>        </g>        <g transform="matrix(1,0,0,1,-526.792,-333.875)">            <path d="M636.261,366.082c0,0 -0.001,0 -0.002,0c-8.321,0 -15.169,-6.848 -15.169,-15.169c0,-8.322 6.848,-15.169 15.169,-15.169c8.322,0 15.169,6.847 15.169,15.169c0,0.004 0,0.008 0,0.012c-0.004,8.317 -6.85,15.158 -15.167,15.157" style="fill:rgb(16,137,72);fill-rule:nonzero;"/>        </g>        <g transform="matrix(1,0,0,1,-150.279,-333.875)">            <path d="M181.852,415.267l16.789,0.62c5.656,0 9.831,-0.898 12.524,-2.694c2.83,-2.056 4.43,-5.415 4.242,-8.907c0.17,-3.811 -1.39,-7.502 -4.242,-10.035c-2.695,-1.992 -6.869,-3.095 -12.524,-3.309l-16.789,-0.733l0,25.058Zm0,-40.695l2.388,0c13.256,0 20.75,-0.726 22.48,-2.178c2.474,-1.858 3.722,-4.821 3.722,-8.893c0,-3.457 -1.164,-5.988 -3.519,-7.573c-0.964,-0.758 -4.018,-1.47 -9.164,-2.17c-4.273,-0.618 -8.581,-0.962 -12.898,-1.029l-3.009,0l0,21.843Zm-18.008,57.681l0.201,-42.251l-13.766,0l0.62,-15.216l13.146,0l-0.201,-39.042l14.387,0l21.233,0.619c8.292,0 15.299,2.488 21.021,7.465c5.319,4.611 8.286,11.383 8.071,18.42c0.088,3.984 -0.797,7.931 -2.58,11.497c-1.654,3.172 -4.266,5.744 -7.463,7.351c4.587,1.306 8.581,4.164 11.298,8.084c2.85,4.288 4.328,9.344 4.238,14.493c0.052,4.781 -1.051,9.505 -3.215,13.769c-1.85,4.095 -4.781,7.609 -8.477,10.165c-2.86,1.904 -6.01,3.334 -9.327,4.235c-4.686,0.763 -9.43,1.111 -14.178,1.04l-35.008,-0.629Z" style="fill-rule:nonzero;"/>        </g>    </g></svg>