<?xml version="1.0" encoding="UTF-8" standalone="no"?><!DOCTYPE svg PUBLIC "-//W3C//DTD SVG 1.1//EN" "http://www.w3.org/Graphics/SVG/1.1/DTD/svg11.dtd"><svg width="100%" height="100%" viewBox="0 0 512 512" version="1.1" xmlns="http://www.w3.org/2000/svg" xmlns:xlink="http://www.w3.org/1999/xlink" xml:space="preserve" style="fill-rule:evenodd;clip-rule:evenodd;stroke-linejoin:round;stroke-miterlimit:2;"><title>ThinCats</title><desc>ThinCats is a leading alternative finance provider dedicated to funding growing and ambitious SMEs across the UK.ThinCats specialises in business loans from £1m up to £15m for working capital, growth finance, acquisitions (including MBOs and MBIs), refinance and asset purchase purposes.ThinCats has £700m of lending capital enabling us to price across a broad credit risk spectrum and tailor solutions to SMEs nationwide.</desc>    <g transform="matrix(2.81325,0,0,2.81325,-176.604,15.7972)">        <path d="M140.795,170.766c-1.296,0 -2.362,-1.066 -2.362,-2.362c0,0 0,-0.001 0,-0.001l0,-165.963c0.026,-1.278 1.085,-2.314 2.362,-2.314c1.278,0 2.337,1.036 2.363,2.314l0,165.96c0,1.296 -1.067,2.363 -2.363,2.363" style="fill:rgb(52,56,55);fill-rule:nonzero;"/>        <path d="M153.643,170.766c-1.296,0 -2.363,-1.067 -2.363,-2.363l0,-165.963c0,-1.296 1.067,-2.363 2.363,-2.363c1.296,0 2.363,1.067 2.363,2.363l0,165.96c0,1.296 -1.067,2.363 -2.363,2.363" style="fill:rgb(52,56,55);fill-rule:nonzero;"/>        <path d="M166.492,170.766c-1.296,0 -2.363,-1.067 -2.363,-2.363l0,-165.963c0.026,-1.278 1.085,-2.314 2.362,-2.314c1.278,0 2.337,1.036 2.363,2.314l0,165.96c0,1.296 -1.066,2.362 -2.362,2.363" style="fill:rgb(52,56,55);fill-rule:nonzero;"/>        <path d="M242.007,30.418l-66.075,0c-0.016,0 -0.032,0 -0.049,0c-1.295,0 -2.361,-1.065 -2.361,-2.361c0,-1.295 1.066,-2.361 2.361,-2.361c0.017,0 0.033,0.001 0.049,0.001l66.075,0c0.016,0 0.032,-0.001 0.049,-0.001c1.295,0 2.361,1.066 2.361,2.361c0,1.296 -1.066,2.361 -2.361,2.361c-0.017,0 -0.033,0 -0.049,0" style="fill:rgb(52,56,55);fill-rule:nonzero;"/>        <path d="M242.007,17.569l-66.075,0c-0.016,0 -0.032,0 -0.049,0c-1.295,0 -2.361,-1.065 -2.361,-2.361c0,-1.295 1.066,-2.361 2.361,-2.361c0.017,0.001 0.033,0.001 0.049,0.001l66.075,0c0.016,0 0.032,0 0.049,0c1.295,0 2.361,1.065 2.361,2.361c0,1.295 -1.066,2.361 -2.361,2.361c-0.017,0 -0.033,-0.001 -0.049,-0.001" style="fill:rgb(52,56,55);fill-rule:nonzero;"/>        <path d="M242.007,4.721l-66.075,0c-0.016,0 -0.032,0.001 -0.049,0.001c-1.295,0 -2.361,-1.066 -2.361,-2.362c0,-1.295 1.066,-2.361 2.361,-2.361c0.017,0 0.033,0.001 0.049,0.001l66.075,0c0.016,0 0.032,-0.001 0.049,-0.001c1.295,0 2.361,1.066 2.361,2.361c0,1.296 -1.066,2.362 -2.361,2.362c-0.017,0 -0.033,-0.001 -0.049,-0.001" style="fill:rgb(52,56,55);fill-rule:nonzero;"/>        <path d="M130.831,30.418l-65.29,0c-0.016,0 -0.032,0 -0.049,0c-1.295,0 -2.361,-1.065 -2.361,-2.361c0,-1.295 1.066,-2.361 2.361,-2.361c0.017,0 0.033,0.001 0.049,0.001l65.29,0c0.016,0 0.032,-0.001 0.049,-0.001c1.295,0 2.361,1.066 2.361,2.361c0,1.296 -1.066,2.361 -2.361,2.361c-0.017,0 -0.033,0 -0.049,0" style="fill:rgb(52,56,55);fill-rule:nonzero;"/>        <path d="M130.831,17.569l-65.29,0c-0.016,0 -0.032,0 -0.049,0c-1.295,0 -2.361,-1.065 -2.361,-2.361c0,-1.295 1.066,-2.361 2.361,-2.361c0.017,0.001 0.033,0.001 0.049,0.001l65.29,0c0.016,0 0.032,0 0.049,0c1.295,0 2.361,1.065 2.361,2.361c0,1.295 -1.066,2.361 -2.361,2.361c-0.017,0 -0.033,-0.001 -0.049,-0.001" style="fill:rgb(52,56,55);fill-rule:nonzero;"/>        <path d="M130.831,4.721l-65.29,0c-0.016,0 -0.032,0.001 -0.049,0.001c-1.295,0 -2.361,-1.066 -2.361,-2.362c0,-1.295 1.066,-2.361 2.361,-2.361c0.017,0 0.033,0.001 0.049,0.001l65.29,0c0.016,0 0.032,-0.001 0.049,-0.001c1.295,0 2.361,1.066 2.361,2.361c0,1.296 -1.066,2.362 -2.361,2.362c-0.017,0 -0.033,-0.001 -0.049,-0.001" style="fill:rgb(52,56,55);fill-rule:nonzero;"/>    </g></svg>