<?xml version="1.0" encoding="UTF-8" standalone="no"?><!DOCTYPE svg PUBLIC "-//W3C//DTD SVG 1.1//EN" "http://www.w3.org/Graphics/SVG/1.1/DTD/svg11.dtd"><svg width="100%" height="100%" viewBox="0 0 512 512" version="1.1" xmlns="http://www.w3.org/2000/svg" xmlns:xlink="http://www.w3.org/1999/xlink" xml:space="preserve" style="fill-rule:evenodd;clip-rule:evenodd;stroke-linejoin:round;stroke-miterlimit:2;"><title>Homunity</title><desc>Homunity.com is a 100% online platform that makes real estate investing accessible.To help you have a diversified portfolio, three investment solutions are available on the platform. Real estate crowdfunding, SCPI and New real estate</desc>    <g transform="matrix(14.7172,0,0,14.7172,-5090.93,-6.99629)">        <path id="Tracé_3" d="M380.338,19c-0.266,5.292 -3.078,10.141 -7.54,13l-2.9,-5l0.11,0c0.003,0 0.007,0 0.01,0c0.417,0 0.76,-0.343 0.76,-0.76c0,-0.003 0,-0.007 0,-0.01l0,-7.23l9.56,0Z" style="fill:rgb(38,52,129);"/>        <path id="Tracé_4" d="M378.768,10c1.096,2.131 1.733,4.468 1.87,6.86l-9.86,0l0,-1.49l1.8,0c0.44,0.37 0.79,0 0.79,-0.44c-0.01,-0.204 -0.092,-0.399 -0.23,-0.55l-0.73,-0.72l6.36,-3.66Z" style="fill:rgb(38,52,129);"/>        <path id="Tracé_5" d="M372.818,3.44c2.056,1.322 3.802,3.072 5.12,5.13l-6.75,3.9l-2.27,-2.27l3.9,-6.76Z" style="fill:rgb(38,52,129);"/>        <path id="Tracé_6" d="M364.238,0.74c2.442,0.111 4.831,0.753 7,1.88l-3.66,6.38l-3.33,-3.33l-0.01,-4.93Z" style="fill:rgb(38,52,129);"/>        <path id="Tracé_7" d="M347.908,26c-4.3,-8.15 -1.142,-18.395 7,-22.71l0.67,-0.29c2.254,-1.13 4.721,-1.771 7.24,-1.88l0,4.88l-9,8.72c-0.152,0.146 -0.239,0.349 -0.24,0.56c0.006,0.441 0.369,0.8 0.81,0.8c0.003,0 0.007,0 0.01,0l1.9,0l0,5.23l-8.39,4.69Z" style="fill:rgb(38,52,129);"/>        <path id="Tracé_8" d="M363.368,35c-5.807,-0.002 -11.23,-2.965 -14.37,-7.85l7.24,-4.15l0,3.28c0,0.428 0.352,0.78 0.78,0.78c0.003,0 0.007,0 0.01,0l10.67,0l3.49,6c-2.417,1.25 -5.099,1.902 -7.82,1.9" style="fill:rgb(38,52,129);"/>    </g></svg>