<?xml version="1.0" encoding="UTF-8" standalone="no"?><!DOCTYPE svg PUBLIC "-//W3C//DTD SVG 1.1//EN" "http://www.w3.org/Graphics/SVG/1.1/DTD/svg11.dtd"><svg width="100%" height="100%" viewBox="0 0 512 512" version="1.1" xmlns="http://www.w3.org/2000/svg" xmlns:xlink="http://www.w3.org/1999/xlink" xml:space="preserve" style="fill-rule:evenodd;clip-rule:evenodd;stroke-linejoin:round;stroke-miterlimit:2;"><title>Lendico Schweiz</title><desc>Lendico provides an on-line alternative to classic bank loans. We help Swiss businesses with quick and easy financing solutions for their projects. In doing so, we are attractive for private and professional investors interested in a new and thriving asset class.</desc>    <g transform="matrix(5.79066,0,0,5.79066,-1002.11,-1009.72)">        <g transform="matrix(0.209365,0,0,0.209365,163.668,164.981)">            <path d="M74.471,275l-28.799,-76.965l152.446,-152.386l115.866,0l-229.428,229.351l-10.085,0Z" style="fill:rgb(0,66,87);fill-rule:nonzero;"/>        </g>        <g transform="matrix(4.16667,0,0,4.16667,205.142,206.45)">            <path d="M0,13.479l-0.007,0l0.002,0.002l0.005,-0.002Zm-7.659,-13.481l0,5.824l7.651,7.656l2.914,-2.911l-7.655,-7.657l-2.91,-2.912Z" style="fill:rgb(84,109,127);fill-rule:nonzero;"/>        </g>        <g transform="matrix(-4.16667,0,0,4.16667,237.029,213.317)">            <path d="M1.836,11.831l5.825,0l-11.839,-11.831l-1.647,4.181l7.661,7.65Z" style="fill:rgb(40,189,183);fill-rule:nonzero;"/>        </g>        <g transform="matrix(0.209365,0,0,0.209365,163.668,164.981)">            <path d="M313.99,45.641l-57.933,57.934l210.279,210.497l0,-115.985l-152.346,-152.446Z" style="fill:rgb(136,209,206);fill-rule:nonzero;"/>        </g>    </g></svg>