<?xml version="1.0" encoding="UTF-8" standalone="no"?><!DOCTYPE svg PUBLIC "-//W3C//DTD SVG 1.1//EN" "http://www.w3.org/Graphics/SVG/1.1/DTD/svg11.dtd"><svg width="100%" height="100%" viewBox="0 0 512 512" version="1.1" xmlns="http://www.w3.org/2000/svg" xmlns:xlink="http://www.w3.org/1999/xlink" xml:space="preserve" style="fill-rule:evenodd;clip-rule:evenodd;stroke-linejoin:round;stroke-miterlimit:2;"><title>BienPrêter</title><desc>Founded in 2017, Ulends, under the brand name Bienprêter, is a Fintech that allows companies to finance their working capital needs with retail investors. Combining the advantages of factoring and crowdfunding, the Bienprêter platform is a real alternative to existing financing solutions.</desc>    <g transform="matrix(1,0,0,1,192.001,192.001)">        <g transform="matrix(4.63706,0,0,4.63706,-232.77,-232.77)">            <path d="M99.94,9.91c1.248,-0.594 2.612,-0.902 3.994,-0.902c5.096,0 9.29,4.193 9.29,9.29c0,5.096 -4.194,9.29 -9.29,9.29c-3.574,0 -6.844,-2.063 -8.384,-5.288c-0.597,-1.25 -0.906,-2.617 -0.906,-4.002c0,-3.578 2.066,-6.85 5.296,-8.388Z" style="fill:rgb(54,169,225);"/>        </g>        <g transform="matrix(4.63706,0,0,4.63706,-232.77,-232.77)">            <path d="M113.08,110.44c-0.383,4.803 -4.442,8.551 -9.261,8.551c-5.096,0 -9.29,-4.193 -9.29,-9.29c0,-5.096 4.194,-9.29 9.29,-9.29c0.244,0 0.488,0.01 0.731,0.029c4.806,0.379 8.559,4.44 8.559,9.261c0,0.247 -0.009,0.493 -0.029,0.739Z" style="fill:rgb(29,113,184);"/>        </g>        <g transform="matrix(4.63706,0,0,4.63706,-232.77,-232.77)">            <path d="M18.8,70.47c-2.517,-1.732 -4.025,-4.598 -4.025,-7.654c0,-5.096 4.194,-9.29 9.29,-9.29c5.097,0 9.29,4.194 9.29,9.29c0,1.88 -0.57,3.715 -1.635,5.264c-1.732,2.518 -4.599,4.026 -7.655,4.026c-1.88,0 -3.716,-0.571 -5.265,-1.636Z" style="fill:rgb(45,46,131);"/>        </g>        <g transform="matrix(4.63706,0,0,4.63706,-232.77,-232.77)">            <path d="M55.51,51.48c1.888,-3.2 4.472,-5.934 7.56,-8c-1,-0.74 -1.92,-1.47 -2.9,-2.17c-1.727,-1.155 -4.001,-1.119 -5.69,0.09c-1.83,1.28 -3.72,2.48 -5.44,3.88c-2.533,1.94 -4.934,4.044 -7.19,6.3c-3.885,3.998 -5.624,9.627 -4.67,15.12c0.599,4.158 2.664,7.968 5.82,10.74c3.4,3.06 7.19,5.68 10.69,8.64c2.063,1.59 4.969,1.561 7,-0.07c0.66,-0.54 1.33,-1.05 2,-1.56c-10.549,-7.409 -13.693,-21.845 -7.18,-32.97Z" style="fill:rgb(45,46,131);"/>        </g>        <g transform="matrix(4.63706,0,0,4.63706,-232.77,-232.77)">            <path d="M107.88,55.94c-0.19,-2.22 -0.29,-4.46 -0.64,-6.65c-0.417,-3.16 -1.038,-6.29 -1.86,-9.37c-1.513,-5.38 -5.53,-9.714 -10.78,-11.63c-3.907,-1.554 -8.244,-1.657 -12.22,-0.29c-4.38,1.38 -8.51,3.36 -12.83,4.9c-2.4,1.001 -3.818,3.531 -3.42,6.1c0.14,0.84 0.25,1.68 0.35,2.53c3.301,-1.542 6.9,-2.341 10.543,-2.341c12.999,0 23.924,10.175 24.847,23.141c1.09,-0.44 2.18,-0.9 3.25,-1.39c1.885,-0.908 2.997,-2.921 2.76,-5Z" style="fill:rgb(54,169,225);"/>        </g>        <g transform="matrix(4.63706,0,0,4.63706,-232.77,-232.77)">            <path d="M104.22,67.21c-0.81,-0.3 -1.6,-0.63 -2.39,-1c-1.064,12.82 -11.911,22.805 -24.775,22.805c-3.775,0 -7.502,-0.86 -10.895,-2.515c-0.16,1.16 -0.31,2.33 -0.43,3.5c-0.152,2.077 1.025,4.038 2.93,4.88c2,0.94 4,2 6.08,2.77c2.928,1.226 5.935,2.255 9,3.08c1.345,0.313 2.722,0.471 4.104,0.471c8.546,0 15.987,-6.046 17.736,-14.411c1,-4.47 1.33,-9.07 2.15,-13.58c0.336,-2.558 -1.115,-5.039 -3.51,-6Z" style="fill:rgb(29,113,184);"/>        </g>    </g></svg>