<?xml version="1.0" encoding="UTF-8" standalone="no"?><!DOCTYPE svg PUBLIC "-//W3C//DTD SVG 1.1//EN" "http://www.w3.org/Graphics/SVG/1.1/DTD/svg11.dtd"><svg width="100%" height="100%" viewBox="0 0 512 512" version="1.1" xmlns="http://www.w3.org/2000/svg" xmlns:xlink="http://www.w3.org/1999/xlink" xml:space="preserve" style="fill-rule:evenodd;clip-rule:evenodd;stroke-linejoin:round;stroke-miterlimit:2;"><title>FFT</title><desc>France Fintech a vocation à accueillir l’ensemble des entreprises utilisant des modèles opérationnels, technologiques ou économiques innovants et disruptifs, visant à traiter des problématiques existantes ou émergentes de l’industrie des services financiers.</desc>    <g transform="matrix(0.999537,0,0,1,192.038,191.985)">        <g transform="matrix(4.63765,0,0,4.63765,-232.78,-232.864)">            <path d="M64,93.12c-0.432,0 -0.856,-0.114 -1.23,-0.33l-22.89,-13.34c-0.755,-0.438 -1.22,-1.247 -1.22,-2.12l0,-26.68c0,-0.873 0.465,-1.682 1.22,-2.12l22.89,-13.34c0.762,-0.445 1.708,-0.445 2.47,0l22.88,13.34c0.755,0.438 1.22,1.247 1.22,2.12l0,26.68c0,0.873 -0.465,1.682 -1.22,2.12l-22.89,13.34c-0.374,0.216 -0.798,0.33 -1.23,0.33Zm-20.44,-17.2l20.44,11.91l20.44,-11.91l0,-23.86l-20.44,-11.92l-20.44,11.92l0,23.86Z" style="fill-rule:nonzero;"/>        </g>        <g transform="matrix(4.63765,0,0,4.63765,-232.78,-232.864)">            <path d="M62.76,35.19l0.06,0l-0.06,0Z" style="fill:rgb(3,232,253);fill-rule:nonzero;"/>        </g>        <g transform="matrix(4.63765,0,0,4.63765,-232.78,-232.864)">            <path d="M62.76,35.19c-0.137,0.064 -0.268,0.141 -0.39,0.23l0.39,-0.23Z" style="fill:rgb(3,232,253);fill-rule:nonzero;"/>        </g>        <g transform="matrix(4.63765,0,0,4.63765,-232.78,-232.864)">            <path d="M112.07,37c-4.854,-8.379 -13.985,-13.396 -23.66,-13c-4.304,-9.123 -13.526,-14.97 -23.614,-14.97c-9.688,0 -18.611,5.393 -23.116,13.97c-0.744,-0.064 -1.491,-0.096 -2.238,-0.096c-14.329,0 -26.12,11.791 -26.12,26.12c0,4.868 1.361,9.64 3.928,13.776c-3.133,4.415 -4.817,9.697 -4.817,15.111c0,14.323 11.787,26.11 26.11,26.11c0.346,0 0.692,-0.007 1.037,-0.021c4.298,9.14 13.529,15 23.628,15c9.701,0 18.633,-5.406 23.132,-14c0.711,0.058 1.425,0.088 2.138,0.088c14.329,0 26.12,-11.791 26.12,-26.12c0,-4.849 -1.35,-9.603 -3.898,-13.728c5.929,-8.321 6.466,-19.384 1.37,-28.24Zm-5.41,52.28c-3.776,6.503 -10.75,10.519 -18.27,10.52c0.631,-2.28 0.95,-4.635 0.95,-7l0,-15.47c0,0.873 -0.465,1.682 -1.22,2.12l-3.69,2.15l0,11.21c0.004,2.169 -0.334,4.326 -1,6.39c-1.905,-0.472 -3.734,-1.213 -5.43,-2.2c-0.4,-0.231 -0.853,-0.352 -1.315,-0.352c-1.444,0 -2.632,1.188 -2.632,2.632c0,0.94 0.503,1.811 1.317,2.28c1.816,1.04 3.749,1.86 5.76,2.44c-3.866,6.046 -10.566,9.714 -17.742,9.714c-7.529,0 -14.506,-4.037 -18.258,-10.564c2.298,-0.593 4.505,-1.494 6.56,-2.68l12.93,-7.47c-0.628,0.167 -1.298,0.077 -1.86,-0.25l-3.76,-2.14l-9.8,5.66c-1.888,1.092 -3.936,1.878 -6.07,2.33c-0.549,-1.878 -0.828,-3.824 -0.83,-5.78c0,-1.443 -1.187,-2.63 -2.63,-2.63c-1.443,0 -2.63,1.187 -2.63,2.63c0.002,2.089 0.254,4.171 0.75,6.2c-11.166,-0.534 -20.063,-9.867 -20.063,-21.046c0,-3.792 1.024,-7.515 2.963,-10.774c1.691,1.744 3.616,3.245 5.72,4.46l13.32,7.69c-0.666,-0.449 -1.07,-1.197 -1.08,-2l0,-4.29l-9.8,-5.66c-1.92,-1.11 -3.648,-2.521 -5.12,-4.18c1.314,-1.342 2.804,-2.5 4.43,-3.44c0.814,-0.469 1.317,-1.34 1.317,-2.28c0,-1.444 -1.188,-2.632 -2.632,-2.632c-0.462,0 -0.915,0.121 -1.315,0.352c-1.734,1.002 -3.348,2.2 -4.81,3.57c-1.512,-2.964 -2.3,-6.244 -2.3,-9.57c0,-11.554 9.507,-21.06 21.06,-21.06c0.047,0 0.093,0 0.14,0c-0.648,2.278 -0.984,4.632 -1,7l0,15.49c0,-0.873 0.465,-1.682 1.22,-2.12l3.69,-2.15l0,-11.19c-0.006,-2.176 0.332,-4.339 1,-6.41c1.872,0.468 3.669,1.195 5.34,2.16c0.4,0.231 0.853,0.352 1.315,0.352c1.444,0 2.632,-1.188 2.632,-2.632c0,-0.94 -0.503,-1.811 -1.317,-2.28c-1.788,-1.03 -3.691,-1.846 -5.67,-2.43c3.865,-6.051 10.568,-9.723 17.748,-9.723c7.524,0 14.498,4.032 18.252,10.553c-2.294,0.593 -4.498,1.495 -6.55,2.68l-13,7.48c0.631,-0.17 1.305,-0.079 1.87,0.25l3.85,2.17l9.8,-5.66c1.888,-1.092 3.936,-1.878 6.07,-2.33c0.551,1.887 0.831,3.844 0.83,5.81c0,1.443 1.187,2.63 2.63,2.63c1.443,0 2.63,-1.187 2.63,-2.63c-0.013,-2.084 -0.275,-4.158 -0.78,-6.18c11.174,0.524 20.082,9.861 20.082,21.047c0,3.811 -1.034,7.553 -2.992,10.823c-1.705,-1.774 -3.65,-3.299 -5.78,-4.53l-13,-7.5c0.532,0.463 0.838,1.135 0.84,1.84l0,4.32l9.7,5.6c1.942,1.124 3.688,2.556 5.17,4.24c-1.302,1.321 -2.775,2.461 -4.38,3.39c-0.814,0.469 -1.317,1.34 -1.317,2.28c0,1.444 1.188,2.632 2.632,2.632c0.462,0 0.915,-0.121 1.315,-0.352c1.71,-0.987 3.304,-2.165 4.75,-3.51c3.179,6.323 2.976,13.838 -0.54,19.98l0,0.02Z" style="fill:rgb(3,232,253);fill-rule:nonzero;"/>        </g>    </g></svg>