<?xml version="1.0" encoding="UTF-8" standalone="no"?><!DOCTYPE svg PUBLIC "-//W3C//DTD SVG 1.1//EN" "http://www.w3.org/Graphics/SVG/1.1/DTD/svg11.dtd"><svg width="100%" height="100%" viewBox="0 0 512 512" version="1.1" xmlns="http://www.w3.org/2000/svg" xmlns:xlink="http://www.w3.org/1999/xlink" xml:space="preserve" style="fill-rule:evenodd;clip-rule:evenodd;stroke-linejoin:round;stroke-miterlimit:2;"><title>LAFPA</title><desc></desc>    <g transform="matrix(4.63636,0,0,4.63636,-40.7273,-40.6809)">        <g id="_4d0844e3-22bd-4c74-b30c-303ee5d8a56b" transform="matrix(1.0014,0,0,1.0014,-0.0927171,-0.252927)">            <path d="M37.08,23.23c0,7.68 -6.32,14 -14,14c-7.68,0 -14,-6.32 -14,-14c0,-7.68 6.32,-14 14,-14c7.68,0 14,6.32 14,14Z" style="fill:rgb(0,66,95);fill-rule:nonzero;"/>        </g>        <g id="cd5c2361-7209-4430-8153-f7cc08688f27" transform="matrix(1.0014,0,0,1.0014,-0.197479,-0.252927)">            <path d="M78,23.23c0,7.68 -6.32,14 -14,14c-7.68,0 -14,-6.32 -14,-14c0,-7.68 6.32,-14 14,-14c7.68,0 14,6.32 14,14Z" style="fill:rgb(84,142,171);fill-rule:nonzero;"/>        </g>        <g id="_255cb8a3-22ff-4727-a578-d88160e85c88" transform="matrix(1.0014,0,0,1.0014,-0.166667,-0.252927)">            <path d="M119,23.23c0,7.68 -6.32,14 -14,14c-7.68,0 -14,-6.32 -14,-14c0,-7.68 6.32,-14 14,-14c7.68,0 14,6.32 14,14Z" style="fill:rgb(0,66,95);fill-rule:nonzero;"/>        </g>        <g id="_59938a57-59a8-429a-870e-8f35813a3b59" transform="matrix(1.0014,0,0,1.0014,-0.012605,-0.315322)">            <path d="M23,78c-7.68,0 -14,-6.32 -14,-14c0,-7.68 6.32,-14 14,-14c7.68,0 14,6.32 14,14c0,7.68 -6.32,14 -14,14Z" style="fill:rgb(0,66,95);fill-rule:nonzero;"/>        </g>        <g id="_36f9ace6-eb8c-40d8-b941-f04280e97c6a" transform="matrix(1.0014,0,0,1.0014,-0.012605,0.0736835)">            <path d="M23,118.75c-7.68,0 -14,-6.32 -14,-14c0,-7.68 6.32,-14 14,-14c7.68,0 14,6.32 14,14c0,7.68 -6.32,14 -14,14Z" style="fill:rgb(0,66,95);fill-rule:nonzero;"/>        </g>        <g id="_16caa379-e74c-4c69-9260-f85d093ff43a" transform="matrix(1.0014,0,0,1.0014,-0.305322,-0.315322)">            <path d="M64,78c-7.68,0 -14,-6.32 -14,-14c0,-7.68 6.32,-14 14,-14c7.68,0 14,6.32 14,14c0,7.68 -6.32,14 -14,14Z" style="fill:rgb(0,66,95);fill-rule:nonzero;"/>        </g>        <g id="cb2e8129-a72d-475c-8703-b5c54308251e" transform="matrix(1.0014,0,0,1.0014,-0.0896359,0.0736835)">            <path d="M64,118.75c-7.68,0 -14,-6.32 -14,-14c0,-7.68 6.32,-14 14,-14c7.68,0 14,6.32 14,14c0,7.68 -6.32,14 -14,14Z" style="fill:rgb(84,142,171);fill-rule:nonzero;"/>        </g>        <g id="_844447e0-b569-40f4-a5ac-599cad1c2386" transform="matrix(1.0014,0,0,1.0014,-0.166667,-0.315322)">            <path d="M105,78c-7.68,0 -14,-6.32 -14,-14c0,-7.68 6.32,-14 14,-14c7.68,0 14,6.32 14,14c0,7.68 -6.32,14 -14,14Z" style="fill:rgb(84,142,171);fill-rule:nonzero;"/>        </g>        <g id="b2efbebd-425e-4d91-98dd-6f5bfa070720" transform="matrix(1.0014,0,0,1.0014,-0.166667,0.0736835)">            <path d="M105,118.75c-7.68,0 -14,-6.32 -14,-14c0,-7.68 6.32,-14 14,-14c7.68,0 14,6.32 14,14c0,7.68 -6.32,14 -14,14Z" style="fill:rgb(0,66,95);fill-rule:nonzero;"/>        </g>    </g></svg>