<?xml version="1.0" encoding="UTF-8" standalone="no"?><!DOCTYPE svg PUBLIC "-//W3C//DTD SVG 1.1//EN" "http://www.w3.org/Graphics/SVG/1.1/DTD/svg11.dtd"><svg width="100%" height="100%" viewBox="0 0 512 512" version="1.1" xmlns="http://www.w3.org/2000/svg" xmlns:xlink="http://www.w3.org/1999/xlink" xml:space="preserve" style="fill-rule:evenodd;clip-rule:evenodd;stroke-linejoin:round;stroke-miterlimit:2;"><title>StockCrowd IN</title><desc>StockCrowd IN connects investors with the most consolidated real estate companies in the sector</desc>    <g transform="matrix(1,0,0,1,0.9895,1)">        <g id="Fill-1" transform="matrix(17.0007,0,0,17.0007,0.00200009,0)">            <path d="M28.13,29.999l-26.259,0c-1.034,0 -1.871,-0.833 -1.871,-1.863l0,-26.275c0,-1.027 0.837,-1.861 1.871,-1.861l26.259,0c1.032,0 1.87,0.834 1.87,1.861l0,26.275c0,1.03 -0.838,1.863 -1.87,1.863" style="fill:rgb(19,162,73);"/>        </g>        <g id="Group" transform="matrix(17.0007,0,0,17.0007,68.0048,187.008)">            <path id="Fill-4" d="M21.837,3.999c0,-1.877 -1.523,-3.401 -3.403,-3.401c-1.879,0 -3.403,1.524 -3.403,3.401c0,1.879 1.524,3.403 3.403,3.403c1.88,0 3.403,-1.524 3.403,-3.403" style="fill:white;"/>            <path id="Fill-6" d="M4.246,3.999c0,-1.127 -0.913,-2.041 -2.041,-2.041c-1.128,0 -2.043,0.914 -2.043,2.041c0,1.128 0.915,2.043 2.043,2.043c1.128,0 2.041,-0.915 2.041,-2.043" style="fill:white;"/>            <path id="Fill-8" d="M12.36,3.999c0,-1.503 -1.218,-2.722 -2.721,-2.722c-1.503,0 -2.722,1.219 -2.722,2.722c0,1.504 1.219,2.722 2.722,2.722c1.503,0 2.721,-1.218 2.721,-2.722" style="fill:white;"/>        </g>    </g></svg>