<?xml version="1.0" encoding="UTF-8" standalone="no"?><!DOCTYPE svg PUBLIC "-//W3C//DTD SVG 1.1//EN" "http://www.w3.org/Graphics/SVG/1.1/DTD/svg11.dtd"><svg width="100%" height="100%" viewBox="0 0 512 512" version="1.1" xmlns="http://www.w3.org/2000/svg" xmlns:xlink="http://www.w3.org/1999/xlink" xml:space="preserve" style="fill-rule:evenodd;clip-rule:evenodd;stroke-linejoin:round;stroke-miterlimit:2;"><title>neocredit</title><desc>neocredit.ch AG is a Crowdlending platform specialised in business loans to Swiss SMEs. Thanks to the simple, fast and transparent process, SMEs can easily finance their projects. neocredit.ch AG is the only Swiss Crowdlending platform uniting two strong partners: Vaudoise Insurance and Credit.fr, a leading French crowdlending platform.</desc>    <g transform="matrix(3.9761,0,0,3.9761,21.0719,-40.0481)">        <path d="M71.7,74.82l-26.44,-36.15c-0.02,-0.02 -0.04,-0.03 -0.06,-0.05c0.78,0.9 1.27,2.07 1.27,3.39l0,63.03l26.29,31.49l0.01,0.01c-0.67,-0.88 -1.07,-1.97 -1.07,-3.16l0,-58.56Z" style="fill:rgb(65,123,187);fill-rule:nonzero;"/>        <path d="M4.89,53.3c0,0.02 -0.01,0.04 -0.01,0.07l0,80.02c0,2.87 2.33,5.2 5.2,5.2l31.19,0c2.87,0 5.2,-2.33 5.2,-5.2l0,-28.34l-40.37,-48.34c-0.85,-1.01 -1.22,-2.22 -1.21,-3.41Z" style="fill:rgb(155,204,237);fill-rule:nonzero;"/>        <path d="M45.2,38.63c-0.31,-0.36 -0.67,-0.67 -1.05,-0.92c-0.12,-0.08 -0.26,-0.14 -0.4,-0.21c-0.29,-0.16 -0.59,-0.29 -0.9,-0.39c-0.16,-0.05 -0.31,-0.09 -0.48,-0.13c-0.33,-0.07 -0.66,-0.1 -0.99,-0.11c-0.15,0 -0.29,-0.02 -0.44,-0.01c-0.45,0.03 -0.89,0.11 -1.33,0.26c-0.04,0.01 -0.08,0.01 -0.12,0.03l-31.19,11.34c-0.48,0.18 -0.92,0.43 -1.31,0.72c-0.09,0.07 -0.17,0.15 -0.26,0.23c-0.28,0.24 -0.54,0.51 -0.76,0.8c-0.09,0.11 -0.17,0.23 -0.24,0.35c-0.19,0.3 -0.35,0.62 -0.47,0.96c-0.04,0.12 -0.1,0.23 -0.14,0.35c-0.13,0.45 -0.21,0.92 -0.22,1.41c-0.02,1.19 0.36,2.39 1.21,3.4l40.37,48.34l0,-63.03c-0.01,-1.33 -0.5,-2.5 -1.28,-3.39Z" style="fill:rgb(118,176,223);fill-rule:nonzero;"/>        <path d="M113.29,133.39l0,-117.86c0,-3.61 -3.59,-6.12 -6.98,-4.89l-31.19,11.36c-2.05,0.75 -3.42,2.7 -3.42,4.88l0,47.94l40.37,55.19c0.41,0.48 0.9,1.6 0.9,1.6c0,0 0.32,0.9 0.32,1.78Z" style="fill:rgb(155,204,237);fill-rule:nonzero;"/>        <path d="M113.29,133.39c0,-0.88 -0.31,-1.78 -0.31,-1.78c0,0 -0.49,-1.12 -0.9,-1.6l-40.38,-55.19l0,58.57c0,1.19 0.4,2.29 1.07,3.16c0.47,0.62 1.08,1.12 1.78,1.48c0.7,0.36 1.5,0.56 2.34,0.56l31.19,0c1.5,0 2.86,-0.64 3.81,-1.66c0.87,-0.93 1.39,-2.17 1.4,-3.54Z" style="fill:rgb(118,176,223);fill-rule:nonzero;"/>    </g></svg>