<?xml version="1.0" encoding="UTF-8" standalone="no"?><!DOCTYPE svg PUBLIC "-//W3C//DTD SVG 1.1//EN" "http://www.w3.org/Graphics/SVG/1.1/DTD/svg11.dtd"><svg width="100%" height="100%" viewBox="0 0 512 512" version="1.1" xmlns="http://www.w3.org/2000/svg" xmlns:xlink="http://www.w3.org/1999/xlink" xml:space="preserve" style="fill-rule:evenodd;clip-rule:evenodd;stroke-linejoin:round;stroke-miterlimit:2;"><title>SmartAngels</title><desc>SmartAngels is the crowdfunding platform launched in 2012 dedicated to investing in the capital of start-ups and growing SMEsAt SmartAngels.fr, we are convinced that investing in the capital of SMEs makes it possible to optimize the management of one's wealth in the long term. Far from the traditional investments offered to individuals, we wanted to allow you to access assets rooted in the real economy and with high potential for capital gain.</desc>    <g transform="matrix(2.52729,0,0,2.52729,-126.835,-185.595)">        <path d="M211.394,255.997c-44.763,33.001 -108.179,23.41 -141.18,-21.353c-33.001,-44.763 -23.41,-108.178 21.353,-141.18c44.762,-33 108.178,-23.41 141.18,21.353c33.001,44.763 23.409,108.179 -21.353,141.18Zm-111.298,-1.571c31.559,20.329 72.687,20.093 103.888,-0.871l-52.114,-16.393l-51.774,17.264Zm0,0l0,0l0,0l0,0Zm-7.799,-60.029l-32.513,-44.102c-7.497,28.218 -2.072,57.363 15.098,80.652c5.115,6.938 11.099,12.979 17.786,18.246l-0.371,-54.796Zm6.328,54.229l47.123,-15.62l-47.536,-34.046l0.413,49.666l0,0Zm112.213,-54.939l0.415,54.509c29.131,-23.772 41.476,-62.702 31.554,-98.984l-31.969,44.475l0,0Zm-52.9,39.255l47.323,15.083l-0.413,-49.666l-46.91,34.583Zm-56.979,-38.555l48.188,34.585l-0.405,-50.693l-47.783,16.108Zm101.219,-0.688l-48.141,-15.5l0.405,50.693l47.736,-35.193Zm-109.881,0.698l0.001,0l-0.001,-0.001l0,0.001Zm8.662,-0.01l-0.001,0l0,0l0.001,0Zm-1.602,-4.94l47.784,-16.108l-29.835,-40.467l-17.949,56.575Zm56.157,-16.161l48.306,15.378l-18.788,-56.262l-29.519,40.884l0.001,0Zm-43.329,-41.482l-47.123,15.621l29.469,39.972l17.654,-55.593Zm125.352,14.41l-47.323,-15.083l18.466,55.478l28.857,-40.395l0,0Zm-56.749,-16.802l-59.353,0.416l29.834,40.468l29.519,-40.884Zm-34.358,-49.37c-18.642,0.996 -36.466,7.253 -51.496,18.334c-15.031,11.082 -26.279,26.258 -32.743,43.771l52.226,-17.343l32.013,-44.762Zm81.526,38.307c-17.17,-23.29 -43.529,-37.256 -72.579,-38.274l32.392,43.937l52.236,16.559c-2.932,-7.782 -7.056,-15.45 -12.048,-22.222l-0.001,0Zm-106.148,6.105l58.327,-0.424l-29.47,-39.972l-28.858,40.396l0.001,0Z" style="fill:rgb(27,68,89);fill-rule:nonzero;"/>    </g></svg>