<?xml version="1.0" encoding="UTF-8" standalone="no"?><!DOCTYPE svg PUBLIC "-//W3C//DTD SVG 1.1//EN" "http://www.w3.org/Graphics/SVG/1.1/DTD/svg11.dtd"><svg width="100%" height="100%" viewBox="0 0 512 512" version="1.1" xmlns="http://www.w3.org/2000/svg" xmlns:xlink="http://www.w3.org/1999/xlink" xml:space="preserve" style="fill-rule:evenodd;clip-rule:evenodd;stroke-linejoin:round;stroke-miterlimit:2;"><title>Primo Invest</title><desc>Being prominent members of the financing scene in real estate development and financing since 1999, the board of the company accumulated vast experience and expertize in this field.SIA “Primo Invest” was founded in 2017 with a goal of financing short and medium term real estate investment projects. We’re proud to invest and support wooden real estate development in Norway, with our overall commitment surpassing a million euro. Our other project include large scale real estate development in Belarus.</desc>    <g transform="matrix(7.5,0,0,7.5,-929,-1589)">        <path d="M185,267l-36,0l0,13l-18,0l0,-68l54,0l0,55Zm-41,-37l-8,0l0,45l8,0l0,-45Zm5,24l0,8l31,0l0,-8l-31,0Zm0,-24l0,19l18,0l0,-19l-18,0Zm31,-13l-8,0l0,31.703l8,0l0,-31.703Zm-31,8l18,0l0,-8l-31,0l0,8l13,0l0,0Z" style="fill:rgb(0,62,203);"/>    </g></svg>