<?xml version="1.0" encoding="UTF-8" standalone="no"?><!DOCTYPE svg PUBLIC "-//W3C//DTD SVG 1.1//EN" "http://www.w3.org/Graphics/SVG/1.1/DTD/svg11.dtd"><svg width="100%" height="100%" viewBox="0 0 512 512" version="1.1" xmlns="http://www.w3.org/2000/svg" xmlns:xlink="http://www.w3.org/1999/xlink" xml:space="preserve" style="fill-rule:evenodd;clip-rule:evenodd;stroke-linejoin:round;stroke-miterlimit:2;"><title>Growthdeck</title><desc>We provide tax-efficient and growth investment opportunities for our network of sophisticated private investors and introducers.</desc>    <g transform="matrix(8.83882,0,0,8.83882,-16.6776,36.3553)">        <path d="M26.8,36.7l-4.4,0c-6.5,0 -11.9,-5.3 -11.9,-11.9c0,-6.5 5.3,-11.9 11.9,-11.9l2.8,0l0,-8.5l-2.8,0c-11.3,0 -20.4,9.2 -20.4,20.4c0,11.2 9.1,20.4 20.4,20.4l12.5,0l0,-1.4l0,-17.7l-4,-2l-4.1,2l0,10.6Z" style="fill:url(#_Linear1);fill-rule:nonzero;"/>        <path d="M34.9,13l4.4,0c6.5,0 11.9,5.3 11.9,11.9c0,6.5 -5.3,11.9 -11.9,11.9l-2.8,0l0,8.5l2.8,0c11.2,0 20.4,-9.1 20.4,-20.4c0,-11.3 -9.2,-20.5 -20.4,-20.5l-12.5,0l0,19.6l4,-2l4,2l0,-11l0.1,0Z" style="fill:url(#_Linear2);fill-rule:nonzero;"/>    </g>    <defs>        <linearGradient id="_Linear1" x1="0" y1="0" x2="1" y2="0" gradientUnits="userSpaceOnUse" gradientTransform="matrix(291.5,0,0,291.5,0,25.55)"><stop offset="0" style="stop-color:rgb(10,28,198);stop-opacity:1"/><stop offset="1" style="stop-color:rgb(19,24,73);stop-opacity:1"/></linearGradient>        <linearGradient id="_Linear2" x1="0" y1="0" x2="1" y2="0" gradientUnits="userSpaceOnUse" gradientTransform="matrix(291.5,0,0,291.5,0,25.55)"><stop offset="0" style="stop-color:rgb(10,28,198);stop-opacity:1"/><stop offset="1" style="stop-color:rgb(19,24,73);stop-opacity:1"/></linearGradient>    </defs></svg>