<?xml version="1.0" encoding="UTF-8" standalone="no"?><!DOCTYPE svg PUBLIC "-//W3C//DTD SVG 1.1//EN" "http://www.w3.org/Graphics/SVG/1.1/DTD/svg11.dtd"><svg width="100%" height="100%" viewBox="0 0 512 512" version="1.1" xmlns="http://www.w3.org/2000/svg" xmlns:xlink="http://www.w3.org/1999/xlink" xml:space="preserve" style="fill-rule:evenodd;clip-rule:evenodd;stroke-linejoin:round;stroke-miterlimit:2;"><title>Barclays</title><desc></desc>    <g id="Barclays" transform="matrix(13.2222,0,0,13.1753,18,0.98725)">        <path d="M15.154,0.474c-0.044,0.053 -0.053,0.078 -0.112,0.074c-0.136,-0.011 -0.44,-0.01 -0.531,-0.01c-0.428,0 -0.81,0.068 -1.172,0.144c-0.764,0.16 -1.235,0.477 -1.653,0.811c-0.194,0.155 -0.565,0.59 -0.649,1.054c-0.07,0.392 0.002,0.611 0.083,0.805c0.013,0.033 0.064,0.092 0.074,0.127c0.229,-0.239 0.608,-0.425 1.326,-0.428c0.801,-0.003 1.898,0.362 2.282,0.981c0.548,0.883 0.438,1.597 0.323,2.445c-0.295,2.174 -1.102,3.304 -2.894,3.552c-0.31,0.043 -0.617,0.065 -0.911,0.065c-1.259,0 -2.176,-0.398 -2.646,-1.155c-0.127,-0.204 -0.142,-0.269 -0.142,-0.269c0,0 0.141,-0.035 0.265,-0.093c0.476,-0.223 0.835,-0.554 0.965,-1.064c0.145,-0.568 -0.002,-1.205 -0.375,-1.624c-0.674,-0.758 -1.61,-1.143 -2.781,-1.143c-0.65,0 -1.226,0.124 -1.595,0.227c-1.475,0.412 -2.651,1.526 -3.595,3.406c-0.669,1.33 -1.135,3.086 -1.315,4.946c-0.178,1.823 -0.09,3.363 0.031,4.756c0.201,2.318 0.588,3.707 1.149,5.196c0.577,1.538 1.284,3.007 2.066,4.282c0.255,0.416 0.443,0.723 0.547,0.862c0.15,-0.157 0.286,-0.301 0.499,-0.513c0.307,-0.306 1.177,-1.441 1.423,-1.791c0.25,-0.352 0.708,-1.06 0.948,-1.57l0.131,-0.279l0.243,0.191c0.259,0.205 0.411,0.562 0.404,0.956c-0.005,0.345 -0.086,0.748 -0.298,1.486c-0.231,0.801 -0.633,1.759 -1.104,2.629c-0.058,0.105 -0.114,0.207 -0.168,0.303c-0.309,0.552 -0.439,0.821 -0.323,0.943c0.285,0.041 0.65,-0.146 1.046,-0.449c0.36,-0.274 1.321,-1.085 2.48,-2.703c0.876,-1.225 1.571,-2.413 2.256,-3.853l0.101,-0.212l0.217,0.091c0.119,0.051 0.231,0.152 0.298,0.273c0.131,0.237 0.177,0.552 0.131,0.91c-0.107,0.867 -0.616,2.18 -1.024,3.129c-0.691,1.609 -1.961,3.41 -2.904,4.638c-0.037,0.048 -0.264,0.318 -0.302,0.367c0.079,0.08 0.271,0.237 0.503,0.427l0.356,0.291c1.294,1.061 2.497,1.876 4.024,2.728c1.179,0.658 3.578,1.872 5.169,2.297c1.591,-0.425 3.991,-1.639 5.17,-2.297c1.51,-0.843 2.75,-1.684 4.022,-2.728l0.348,-0.284c0.232,-0.19 0.425,-0.346 0.507,-0.429c-0.042,-0.065 -0.125,-0.163 -0.175,-0.222c-0.044,-0.052 -0.087,-0.103 -0.123,-0.15c-0.945,-1.231 -2.214,-3.034 -2.904,-4.638c-0.408,-0.951 -0.916,-2.266 -1.022,-3.128c-0.046,-0.358 -0.003,-0.674 0.13,-0.912c0.056,-0.101 0.137,-0.17 0.232,-0.228c0.136,-0.084 0.284,-0.136 0.284,-0.136l0.1,0.213c0.684,1.439 1.379,2.627 2.257,3.853c1.161,1.62 2.12,2.43 2.479,2.703c0.403,0.307 0.759,0.49 0.951,0.49c0.226,-0.131 0.1,-0.397 -0.224,-0.978c-0.055,-0.098 -0.113,-0.202 -0.171,-0.309c-0.471,-0.869 -0.875,-1.827 -1.107,-2.63c-0.21,-0.736 -0.29,-1.139 -0.295,-1.485c-0.007,-0.394 0.144,-0.751 0.403,-0.956l0.243,-0.192l0.131,0.28c0.257,0.546 0.732,1.266 0.948,1.57c0.245,0.348 1.114,1.481 1.423,1.791c0.212,0.212 0.348,0.354 0.441,0.451c0.159,-0.073 0.338,-0.364 0.581,-0.76c0.806,-1.314 1.513,-2.784 2.09,-4.323c0.56,-1.488 0.947,-2.875 1.15,-5.195c0.12,-1.385 0.208,-2.919 0.031,-4.752c-0.163,-1.803 -0.655,-3.653 -1.315,-4.949c-0.402,-0.79 -0.982,-1.792 -1.902,-2.527c-0.468,-0.37 -1.04,-0.663 -1.7,-0.871c-0.485,-0.153 -0.997,-0.231 -1.522,-0.231c-0.746,0.009 -1.998,0.169 -2.837,1.142c-0.382,0.441 -0.523,1.074 -0.366,1.653c0.131,0.487 0.45,0.846 0.901,1.015c0,0 0.143,0.053 0.369,0.094c-0.065,0.126 -0.221,0.345 -0.221,0.345c-0.289,0.427 -0.935,0.987 -2.708,0.987c-1.041,-0.059 -1.818,-0.304 -2.726,-1.476c-0.563,-0.727 -0.85,-1.946 -0.891,-3.954c-0.036,-1.007 -0.175,-1.879 -0.416,-2.58c-0.161,-0.47 -0.541,-0.962 -0.905,-1.198c-0.314,-0.203 -0.588,-0.368 -1.126,-0.541c-0.607,-0.195 -1.378,-0.224 -1.955,-0.237c-0.804,0.006 -1.181,0.177 -1.426,0.473Z" style="fill:url(#_Linear1);"/>    </g>    <defs>        <linearGradient id="_Linear1" x1="0" y1="0" x2="1" y2="0.00355196" gradientUnits="userSpaceOnUse" gradientTransform="matrix(24.8192,24.1892,-24.1892,24.8192,4.43492,5.9043)"><stop offset="0" style="stop-color:rgb(41,190,241);stop-opacity:1"/><stop offset="1" style="stop-color:rgb(18,125,169);stop-opacity:1"/></linearGradient>    </defs></svg>