<?xml version="1.0" encoding="UTF-8" standalone="no"?><!DOCTYPE svg PUBLIC "-//W3C//DTD SVG 1.1//EN" "http://www.w3.org/Graphics/SVG/1.1/DTD/svg11.dtd"><svg width="100%" height="100%" viewBox="0 0 512 512" version="1.1" xmlns="http://www.w3.org/2000/svg" xmlns:xlink="http://www.w3.org/1999/xlink" xml:space="preserve" style="fill-rule:evenodd;clip-rule:evenodd;stroke-linejoin:round;stroke-miterlimit:2;"><title>Optimalus Kreditas</title><desc>OK.lt is a certified mutual borrowing platform that brings together those who want to borrow and those who want to lend and earn.</desc>    <g transform="matrix(6.20284,0,0,6.20284,-667.962,-2493.03)">        <g transform="matrix(0.545173,0,0,0.545173,79.0254,321.657)">            <path d="M52.868,225.573l68.376,0l0,15.267l-31.863,0c6.302,18.334 22.526,29.762 43.792,29.762l0.122,0l-6.021,10.191l7.502,12.01c-0.47,0.007 -0.944,0.011 -1.421,0.011c-35.47,0 -61.547,-20.192 -68.603,-51.974l-11.884,0l0,-15.267Z" style="fill:rgb(68,178,76);"/>        </g>        <g transform="matrix(0.545173,0,0,0.545173,79.0254,321.657)">            <path d="M143.226,269.707c22.19,-4.09 36.784,-21.896 36.784,-46.856c0,-27.287 -17.454,-45.864 -43.201,-47.456l8.388,-12.032l-6.598,-10.324c38.898,2.249 65.084,29.623 65.084,69.812c0,37.982 -23.388,64.518 -58.793,69.217l-6.93,-11.378l5.266,-10.983Z" style="fill:rgb(30,124,185);"/>        </g>        <g transform="matrix(0.545173,0,0,0.545173,79.0254,321.657)">            <path d="M64.934,204.066c6.953,-29.773 30.729,-49.183 63.271,-51.032l6.749,10.851l-7.436,11.674c-18.159,1.803 -31.939,12.344 -37.843,28.507l31.569,0l0,15.267l-68.376,0l0,-15.267l12.066,0Z" style="fill:rgb(68,178,76);"/>        </g>    </g></svg>