<?xml version="1.0" encoding="UTF-8" standalone="no"?><!DOCTYPE svg PUBLIC "-//W3C//DTD SVG 1.1//EN" "http://www.w3.org/Graphics/SVG/1.1/DTD/svg11.dtd"><svg width="100%" height="100%" viewBox="0 0 512 512" version="1.1" xmlns="http://www.w3.org/2000/svg" xmlns:xlink="http://www.w3.org/1999/xlink" xml:space="preserve" style="fill-rule:evenodd;clip-rule:evenodd;stroke-linejoin:round;stroke-miterlimit:2;"><title>Nucleus</title><desc>Nucleus is an award winning online wrap platform, launched in 2006 by a group of seven financial adviser firms who set out to create a platform with a difference. They created a new model, putting the adviser and client at the heart of the process, focusing on a client-aligned approach rather than a product-led one, to develop a platform that was committed to transparency and banishing complexity.</desc>    <g transform="matrix(16.6092,0,0,16.6092,-7633.98,-3995.95)">        <g transform="matrix(0,1,1,0,476.262,240.731)">            <path d="M14.045,-16.493c-6.123,0.824 -10.623,7.625 -10.623,15.27c0.001,7.645 4.501,14.447 10.624,15.269c6.863,0.923 13.069,-5.866 13.069,-15.269c0,-9.402 -6.206,-16.192 -13.07,-15.269" style="fill:rgb(138,132,115);"/>        </g>        <g transform="matrix(3.21702e-14,8.2101,8.2101,-3.21702e-14,475.058,244.65)">            <path d="M0.401,-1.102c0.28,-0.164 0.599,0.352 0.599,1.097c-0,0.745 -0.323,1.267 -0.599,1.097c-0.227,-0.141 -0.401,-0.587 -0.401,-1.097c0,-0.511 0.166,-0.959 0.401,-1.097Z" style="fill:url(#_Linear1);fill-rule:nonzero;"/>        </g>        <g transform="matrix(0.00246772,0.999997,0.999997,-0.00246772,473.983,241.738)">            <path d="M8.865,-6.921c-1.995,0.468 -4.197,3.55 -4.186,7.913c0.011,4.343 2.16,7.411 4.186,7.891c1.171,-0.542 2.269,-4.329 2.26,-7.93c-0.009,-3.564 -0.927,-7.377 -2.26,-7.874" style="fill:rgb(238,141,48);fill-rule:nonzero;"/>        </g>    </g>    <defs>        <linearGradient id="_Linear1" x1="0" y1="0" x2="1" y2="0" gradientUnits="userSpaceOnUse" gradientTransform="matrix(1,0.000153616,0.000153616,-1,3.25564e-07,-0.00423868)"><stop offset="0" style="stop-color:white;stop-opacity:1"/><stop offset="1" style="stop-color:rgb(158,152,137);stop-opacity:1"/></linearGradient>    </defs></svg>