<?xml version="1.0" encoding="UTF-8" standalone="no"?><!DOCTYPE svg PUBLIC "-//W3C//DTD SVG 1.1//EN" "http://www.w3.org/Graphics/SVG/1.1/DTD/svg11.dtd"><svg width="100%" height="100%" viewBox="0 0 512 512" version="1.1" xmlns="http://www.w3.org/2000/svg" xmlns:xlink="http://www.w3.org/1999/xlink" xml:space="preserve" style="fill-rule:evenodd;clip-rule:evenodd;stroke-linejoin:round;stroke-miterlimit:2;"><title>CrowdAngels</title><desc>CrowdAngels.pl is an internet website and the first platform in Poland offering only equity crowdfunding. Thanks to crowdangels.pl (not necessarily), young and aspiring businessmen can turn to the community of Internet users and crowdangels investors with an offer of capital support for their projects, often in the seed or start up phase, and thus raise capital to start. </desc>    <g transform="matrix(3.27333,0,0,3.27333,-41.927,-16.5018)">        <g>            <g transform="matrix(1,0,0,1,4,4)">                <circle cx="86.938" cy="100.687" r="5.188" style="fill:rgb(245,128,31);"/>            </g>            <path d="M85.285,111.366l11.365,0c1.533,0 3.092,0.547 3.73,1.94l8.568,18.72c0.638,1.394 0.025,3.044 -1.369,3.682c-1.394,0.637 -3.044,0.024 -3.682,-1.37l-4.804,-10.496l0,16.826l-0.168,0l0,17.706c0,1.533 -1.244,2.777 -2.777,2.777c-1.533,0 -2.778,-1.244 -2.778,-2.777l0,-17.706l-4.445,0l0,17.706c0,1.533 -1.244,2.777 -2.777,2.777c-1.533,0 -2.778,-1.244 -2.778,-2.777l0,-17.706l-0.129,0l0,-17.485l-5.105,11.155c-0.638,1.394 -2.288,2.007 -3.682,1.37c-1.394,-0.638 -2.007,-2.288 -1.369,-3.682l8.568,-18.72c0.638,-1.393 2.099,-1.94 3.632,-1.94Z" style="fill:rgb(245,128,31);"/>        </g>        <g transform="matrix(1,0,0,-1,0,166.498)">            <g transform="matrix(1,0,0,1,4,4)">                <circle cx="86.938" cy="100.687" r="5.188" style="fill:rgb(245,128,31);"/>            </g>            <path d="M85.285,111.366l11.365,0c1.533,0 3.092,0.547 3.73,1.94l8.568,18.72c0.638,1.394 0.025,3.044 -1.369,3.682c-1.394,0.637 -3.044,0.024 -3.682,-1.37l-4.804,-10.496l0,16.826l-0.168,0l0,17.706c0,1.533 -1.244,2.777 -2.777,2.777c-1.533,0 -2.778,-1.244 -2.778,-2.777l0,-17.706l-4.445,0l0,17.706c0,1.533 -1.244,2.777 -2.777,2.777c-1.533,0 -2.778,-1.244 -2.778,-2.777l0,-17.706l-0.129,0l0,-17.485l-5.105,11.155c-0.638,1.394 -2.288,2.007 -3.682,1.37c-1.394,-0.638 -2.007,-2.288 -1.369,-3.682l8.568,-18.72c0.638,-1.393 2.099,-1.94 3.632,-1.94Z" style="fill:rgb(245,128,31);"/>        </g>        <g transform="matrix(6.12323e-17,1,-1,6.12323e-17,174.265,-7.76738)">            <g transform="matrix(1,0,0,1,4,4)">                <circle cx="86.938" cy="100.687" r="5.188" style="fill:rgb(245,128,31);"/>            </g>            <path d="M85.285,111.366l11.365,0c1.533,0 3.092,0.547 3.73,1.94l8.568,18.72c0.638,1.394 0.025,3.044 -1.369,3.682c-1.394,0.637 -3.044,0.024 -3.682,-1.37l-4.804,-10.496l0,16.826l-0.168,0l0,17.706c0,1.533 -1.244,2.777 -2.777,2.777c-1.533,0 -2.778,-1.244 -2.778,-2.777l0,-17.706l-4.445,0l0,17.706c0,1.533 -1.244,2.777 -2.777,2.777c-1.533,0 -2.778,-1.244 -2.778,-2.777l0,-17.706l-0.129,0l0,-17.485l-5.105,11.155c-0.638,1.394 -2.288,2.007 -3.682,1.37c-1.394,-0.638 -2.007,-2.288 -1.369,-3.682l8.568,-18.72c0.638,-1.393 2.099,-1.94 3.632,-1.94Z" style="fill:rgb(245,128,31);"/>        </g>        <g transform="matrix(6.12323e-17,1,1,-6.12323e-17,7.76738,-7.76738)">            <g transform="matrix(1,0,0,1,4,4)">                <circle cx="86.938" cy="100.687" r="5.188" style="fill:rgb(245,128,31);"/>            </g>            <path d="M85.285,111.366l11.365,0c1.533,0 3.092,0.547 3.73,1.94l8.568,18.72c0.638,1.394 0.025,3.044 -1.369,3.682c-1.394,0.637 -3.044,0.024 -3.682,-1.37l-4.804,-10.496l0,16.826l-0.168,0l0,17.706c0,1.533 -1.244,2.777 -2.777,2.777c-1.533,0 -2.778,-1.244 -2.778,-2.777l0,-17.706l-4.445,0l0,17.706c0,1.533 -1.244,2.777 -2.777,2.777c-1.533,0 -2.778,-1.244 -2.778,-2.777l0,-17.706l-0.129,0l0,-17.485l-5.105,11.155c-0.638,1.394 -2.288,2.007 -3.682,1.37c-1.394,-0.638 -2.007,-2.288 -1.369,-3.682l8.568,-18.72c0.638,-1.393 2.099,-1.94 3.632,-1.94Z" style="fill:rgb(245,128,31);"/>        </g>        <g transform="matrix(0.707107,0.707107,-0.707107,0.707107,85.524,-39.9752)">            <g transform="matrix(1,0,0,1,4,4)">                <circle cx="86.938" cy="100.687" r="5.188" style="fill:rgb(245,128,31);"/>            </g>            <path d="M85.285,111.366l11.365,0c1.533,0 3.092,0.547 3.73,1.94l8.568,18.72c0.638,1.394 0.025,3.044 -1.369,3.682c-1.394,0.637 -3.044,0.024 -3.682,-1.37l-4.804,-10.496l0,16.826l-0.168,0l0,17.706c0,1.533 -1.244,2.777 -2.777,2.777c-1.533,0 -2.778,-1.244 -2.778,-2.777l0,-17.706l-4.445,0l0,17.706c0,1.533 -1.244,2.777 -2.777,2.777c-1.533,0 -2.778,-1.244 -2.778,-2.777l0,-17.706l-0.129,0l0,-17.485l-5.105,11.155c-0.638,1.394 -2.288,2.007 -3.682,1.37c-1.394,-0.638 -2.007,-2.288 -1.369,-3.682l8.568,-18.72c0.638,-1.393 2.099,-1.94 3.632,-1.94Z" style="fill:rgb(245,128,31);"/>        </g>        <g transform="matrix(0.707107,0.707107,0.707107,-0.707107,-32.2079,77.7566)">            <g transform="matrix(1,0,0,1,4,4)">                <circle cx="86.938" cy="100.687" r="5.188" style="fill:rgb(245,128,31);"/>            </g>            <path d="M85.285,111.366l11.365,0c1.533,0 3.092,0.547 3.73,1.94l8.568,18.72c0.638,1.394 0.025,3.044 -1.369,3.682c-1.394,0.637 -3.044,0.024 -3.682,-1.37l-4.804,-10.496l0,16.826l-0.168,0l0,17.706c0,1.533 -1.244,2.777 -2.777,2.777c-1.533,0 -2.778,-1.244 -2.778,-2.777l0,-17.706l-4.445,0l0,17.706c0,1.533 -1.244,2.777 -2.777,2.777c-1.533,0 -2.778,-1.244 -2.778,-2.777l0,-17.706l-0.129,0l0,-17.485l-5.105,11.155c-0.638,1.394 -2.288,2.007 -3.682,1.37c-1.394,-0.638 -2.007,-2.288 -1.369,-3.682l8.568,-18.72c0.638,-1.393 2.099,-1.94 3.632,-1.94Z" style="fill:rgb(245,128,31);"/>        </g>        <g transform="matrix(-0.707107,0.707107,-0.707107,-0.707107,214.241,77.7566)">            <g transform="matrix(1,0,0,1,4,4)">                <circle cx="86.938" cy="100.687" r="5.188" style="fill:rgb(245,128,31);"/>            </g>            <path d="M85.285,111.366l11.365,0c1.533,0 3.092,0.547 3.73,1.94l8.568,18.72c0.638,1.394 0.025,3.044 -1.369,3.682c-1.394,0.637 -3.044,0.024 -3.682,-1.37l-4.804,-10.496l0,16.826l-0.168,0l0,17.706c0,1.533 -1.244,2.777 -2.777,2.777c-1.533,0 -2.778,-1.244 -2.778,-2.777l0,-17.706l-4.445,0l0,17.706c0,1.533 -1.244,2.777 -2.777,2.777c-1.533,0 -2.778,-1.244 -2.778,-2.777l0,-17.706l-0.129,0l0,-17.485l-5.105,11.155c-0.638,1.394 -2.288,2.007 -3.682,1.37c-1.394,-0.638 -2.007,-2.288 -1.369,-3.682l8.568,-18.72c0.638,-1.393 2.099,-1.94 3.632,-1.94Z" style="fill:rgb(245,128,31);"/>        </g>        <g transform="matrix(-0.707107,0.707107,0.707107,0.707107,96.5088,-39.9752)">            <g transform="matrix(1,0,0,1,4,4)">                <circle cx="86.938" cy="100.687" r="5.188" style="fill:rgb(245,128,31);"/>            </g>            <path d="M85.285,111.366l11.365,0c1.533,0 3.092,0.547 3.73,1.94l8.568,18.72c0.638,1.394 0.025,3.044 -1.369,3.682c-1.394,0.637 -3.044,0.024 -3.682,-1.37l-4.804,-10.496l0,16.826l-0.168,0l0,17.706c0,1.533 -1.244,2.777 -2.777,2.777c-1.533,0 -2.778,-1.244 -2.778,-2.777l0,-17.706l-4.445,0l0,17.706c0,1.533 -1.244,2.777 -2.777,2.777c-1.533,0 -2.778,-1.244 -2.778,-2.777l0,-17.706l-0.129,0l0,-17.485l-5.105,11.155c-0.638,1.394 -2.288,2.007 -3.682,1.37c-1.394,-0.638 -2.007,-2.288 -1.369,-3.682l8.568,-18.72c0.638,-1.393 2.099,-1.94 3.632,-1.94Z" style="fill:rgb(245,128,31);"/>        </g>    </g></svg>