<?xml version="1.0" encoding="UTF-8" standalone="no"?><!DOCTYPE svg PUBLIC "-//W3C//DTD SVG 1.1//EN" "http://www.w3.org/Graphics/SVG/1.1/DTD/svg11.dtd"><svg width="100%" height="100%" viewBox="0 0 512 512" version="1.1" xmlns="http://www.w3.org/2000/svg" xmlns:xlink="http://www.w3.org/1999/xlink" xml:space="preserve" style="fill-rule:evenodd;clip-rule:evenodd;stroke-linejoin:round;stroke-miterlimit:2;"><title>Alfabricks</title><desc>ALFABRICKS is a community that allows you to make investments in real estate without the need to invest large sums and with very high returns. Thanks to the deep knowledge of the sector as well as an efficient management of the processes we are able to offer investment opportunities without wasting time.</desc>    <g transform="matrix(0.545166,0,0,0.544424,0.956409,133)">        <path d="M199.8,450.5c-44.6,-6.1 -97.5,-33.2 -133.2,-68.3c-37.2,-36.5 -58.2,-78.5 -65.2,-130.2c-1.6,-12.4 -1.8,-42 -0.3,-54c7.8,-63 45.9,-122.5 101.9,-159.2c15.2,-10 39.9,-21.9 57.5,-27.7c24.8,-8.2 42.4,-11.1 68.2,-11.1c33.8,0 61,6.6 93.2,22.6c38.5,19 60.1,38 107.1,93.9c20.9,24.8 128,149.5 140.9,164c47.1,52.8 87.3,80.3 129.6,88.6c10.4,2.1 35.9,1.8 46.5,-0.5c52.3,-11.2 93.9,-48.1 109.9,-97.2c6.9,-21.5 8.5,-47.6 4.2,-68.4c-12.9,-61.4 -57.7,-107.2 -118.1,-120.5c-11.5,-2.5 -38.2,-3.1 -50,-1.1c-45,7.9 -88.3,41.2 -109,83.9c-4,8.3 -12,29 -12,31.1c0,0.6 -1,1.7 -2.2,2.5c-1.9,1.2 -2.4,1.1 -3.7,-0.6c-0.9,-1 -41.2,-45.5 -89.6,-98.7c-48.4,-53.3 -88.1,-97.2 -88.3,-97.7c-0.2,-0.5 24.3,-0.9 57.2,-0.9l57.5,0l31.3,38.2c30.9,37.8 31.2,38.1 32.7,35.7c5,-7.5 21,-24.6 31.1,-32.9c58.8,-48.6 144.7,-55.6 220.3,-17.9c20.4,10.2 36.4,21.6 52.2,37.4c34.7,34.6 56.4,79.2 64.2,132c2.5,16.9 2.5,55.5 0,71.5c-6.3,40.9 -20.5,75.7 -42.8,105.2c-8.2,10.9 -26.3,28.8 -36.9,36.7c-30.2,22.3 -73.2,38.7 -113.2,43c-12.2,1.4 -35.5,1.4 -47.3,0.1c-42.7,-4.8 -85.1,-22 -116.5,-47.3c-23.6,-19 -33.2,-29.5 -164.5,-179.2c-15.9,-18.1 -32.6,-37 -37,-42c-4.5,-4.9 -16.3,-18.4 -26.2,-30c-27.5,-32 -41,-44.1 -60.9,-54.2c-19.5,-10 -39.3,-14.5 -63.4,-14.4c-65.1,0.2 -122.4,40.1 -141.5,98.7c-15.8,47.9 -1.2,100.6 38.1,138.4c23.6,22.7 49.3,36.4 80.8,43.2c14.6,3.1 40.7,3.1 55.6,-0.1c20.1,-4.3 36.2,-10.8 51.4,-20.8c9.7,-6.4 26.9,-23.9 33.7,-34.3c10.7,-16.2 19,-35.9 22.1,-52.2c0.7,-3.8 1.5,-6.8 1.8,-6.8c0.6,0 179.4,199.9 179.8,201.1c0.2,0.5 -22.4,0.9 -51.5,0.9l-51.9,0l-28.4,-39c-15.7,-21.4 -28.7,-38.9 -29,-38.9c-0.3,0 -1.8,1.8 -3.5,4.2c-27.1,38.3 -81.1,67.5 -136,73.7c-12.1,1.3 -34.8,1.1 -46.7,-0.5Z" style="fill:rgb(22,37,91);fill-rule:nonzero;"/>    </g></svg>