<?xml version="1.0" encoding="UTF-8" standalone="no"?><!DOCTYPE svg PUBLIC "-//W3C//DTD SVG 1.1//EN" "http://www.w3.org/Graphics/SVG/1.1/DTD/svg11.dtd"><svg width="100%" height="100%" viewBox="0 0 512 512" version="1.1" xmlns="http://www.w3.org/2000/svg" xmlns:xlink="http://www.w3.org/1999/xlink" xml:space="preserve" style="fill-rule:evenodd;clip-rule:evenodd;stroke-linejoin:round;stroke-miterlimit:2;"><title>Monethera</title><desc>Monethera was funded in 2017 as a private investment fund in Estonia, in 2019 Monethera expanded their business to include retail investors around the globe providing an online Crowdlending Platform for invest in High Yielding Business Loans.</desc>    <g id="logo-small" transform="matrix(7.74817,0,0,7.74817,1.00007,100.98)">        <path d="M65.822,33.008c0,-0.001 0,-0.001 0,-0.002c0,-3.835 -3.155,-6.99 -6.99,-6.99l-0.004,0c-3.835,0 -6.99,3.155 -6.99,6.99l0,0.004c0,3.835 3.155,6.99 6.99,6.99c0.001,0 0.001,0 0.002,0c3.835,-0.002 6.99,-3.157 6.992,-6.992Zm-2.07,-20.96l-25.881,25.882c-1.323,1.322 -3.118,2.065 -4.989,2.065c-3.871,0 -7.056,-3.185 -7.056,-7.056c0,-1.872 0.744,-3.669 2.068,-4.992l25.882,-25.881c2.737,-2.735 7.239,-2.735 9.976,0c1.325,1.322 2.07,3.119 2.07,4.991c0,1.872 -0.745,3.669 -2.07,4.991Z" style="fill:rgb(78,216,0);fill-rule:nonzero;"/>        <path d="M14.99,24.957l12.973,12.972c1.323,1.322 3.118,2.066 4.989,2.066c3.871,0 7.056,-3.186 7.056,-7.057c0,-1.871 -0.744,-3.668 -2.068,-4.991l-12.973,-12.972c-1.323,-1.322 -3.118,-2.065 -4.988,-2.065c-3.871,0 -7.056,3.185 -7.056,7.056c0,1.871 0.744,3.668 2.068,4.991l-0.001,0Z" style="fill:rgb(0,185,196);fill-rule:nonzero;"/>        <path d="M25.013,14.975c1.325,1.322 2.068,3.119 2.065,4.99c0,1.806 -0.69,3.606 -2.065,4.986l-12.972,12.973c-2.76,2.76 -7.228,2.76 -9.977,0c-1.324,-1.321 -2.067,-3.116 -2.064,-4.986c0,-1.8 0.69,-3.61 2.064,-4.99l12.973,-12.973c2.748,-2.755 7.216,-2.755 9.976,0Z" style="fill:rgb(0,232,209);fill-rule:nonzero;"/>    </g></svg>