<?xml version="1.0" encoding="UTF-8" standalone="no"?><!DOCTYPE svg PUBLIC "-//W3C//DTD SVG 1.1//EN" "http://www.w3.org/Graphics/SVG/1.1/DTD/svg11.dtd"><svg width="100%" height="100%" viewBox="0 0 512 512" version="1.1" xmlns="http://www.w3.org/2000/svg" xmlns:xlink="http://www.w3.org/1999/xlink" xml:space="preserve" style="fill-rule:evenodd;clip-rule:evenodd;stroke-linejoin:round;stroke-miterlimit:2;"><title>Fundeen</title><desc>Fundeen is the first crowdfunding platform authorized by the CNMV that allows:People to invest in renewable energy projects, until now reserved for large electricity companies and investment funds,Renewable energy projects to get finance without having to go to a bank or an investment fund.</desc>    <g transform="matrix(1.18384,0,0,1.18384,-151.124,-102.527)">        <path d="M284.6,271.2c-20.6,0 -37.5,16.9 -37.5,37.5l0,108.6c0,20.6 16.9,37.5 37.5,37.5c20.6,0 37.5,-16.9 37.5,-37.5l0,-108.6c0,-20.6 -16.9,-37.5 -37.5,-37.5Z" style="fill:rgb(0,153,51);fill-rule:nonzero;"/>        <path d="M166,222.8c-20.6,0 -37.5,16.9 -37.5,37.5l0,108.6c0,20.6 16.9,37.5 37.5,37.5c20.6,0 37.5,-16.9 37.5,-37.5l0,-108.6c0,-20.6 -16.9,-37.5 -37.5,-37.5Z" style="fill:rgb(0,51,51);fill-rule:nonzero;"/>        <path d="M521.8,106.2c-20.6,0 -37.5,16.9 -37.5,37.5l0,225.1c0,20.6 16.9,37.5 37.5,37.5c20.6,0 37.5,-16.9 37.5,-37.5l0,-225.1c0,-20.6 -16.8,-37.5 -37.5,-37.5Z" style="fill:rgb(255,166,0);fill-rule:nonzero;"/>        <path d="M403.2,199.4c-20.6,0 -37.5,16.9 -37.5,37.5l0,225.1c0,20.6 16.9,37.5 37.5,37.5c20.6,0 37.5,-16.9 37.5,-37.5l0,-225.1c0,-20.6 -16.9,-37.5 -37.5,-37.5Z" style="fill:rgb(205,205,205);fill-rule:nonzero;"/>    </g></svg>