<?xml version="1.0" encoding="UTF-8" standalone="no"?><!DOCTYPE svg PUBLIC "-//W3C//DTD SVG 1.1//EN" "http://www.w3.org/Graphics/SVG/1.1/DTD/svg11.dtd"><svg width="100%" height="100%" viewBox="0 0 512 512" version="1.1" xmlns="http://www.w3.org/2000/svg" xmlns:xlink="http://www.w3.org/1999/xlink" xml:space="preserve" style="fill-rule:evenodd;clip-rule:evenodd;stroke-linejoin:round;stroke-miterlimit:2;"><title>Home Rocket</title><desc>HOME ROCKET is the first international crowdfunding platform that specializes in the most popular form of investment, namely real estate. With the increasingly popular financing model "crowdfunding", the professional real estate market at HOME ROCKET is also made available to small investors. With us you will find a selection of exclusive real estate projects that are implemented by renowned property developers.</desc>    <g transform="matrix(1.2439,0,0,1.2439,-67.4118,-54.9742)">        <path d="M322.992,242.298c-1.838,-2.781 -3.577,-5.137 -5.227,-7.118l0,-59.991c0.063,-1.991 0,-4.079 0,-6.269c-0.001,-92.836 -57.765,-118.92 -57.765,-118.92c0,0 -57.764,26.084 -57.764,118.919c0,2.19 -0.063,4.278 0,6.269l0,59.991c-1.65,1.981 -3.389,4.337 -5.227,7.118c-53.356,80.748 5.227,207.703 5.227,207.703l22.919,-45.936l69.691,0l22.918,45.936c0,0 58.583,-126.955 5.228,-207.702Z" style="fill:rgb(37,74,112);fill-rule:nonzero;"/>        <path d="M158.295,307.341c2.473,-28.597 10.704,-53.657 24.466,-74.484c0.797,-1.206 1.595,-2.368 2.39,-3.479l0,-53.937c-0.043,-1.567 -0.028,-3.057 -0.014,-4.502c0.007,-0.663 0.014,-1.336 0.014,-2.02c0,-23.104 3.359,-44.433 9.984,-63.395c5.265,-15.07 12.592,-28.669 21.776,-40.454c-14.391,-5.024 -28.717,-10.047 -42.954,-15.07c-0.769,9.968 -1.476,19.924 -2.131,29.872c-2.653,0.164 -5.306,0.349 -7.959,0.527c0,-0.005 0.001,-0.011 0.001,-0.011c-0.927,0.057 -1.854,0.131 -2.781,0.195c-2.021,0.14 -4.041,0.289 -6.062,0.437c-1.601,0.118 -3.201,0.223 -4.802,0.346l14.752,-14.772l-33.728,-6.542c-0.655,7.723 -1.272,15.416 -1.853,23.081c-4.39,0.401 -8.781,0.823 -13.171,1.265c-1.798,0.179 -3.596,0.364 -5.394,0.551c-1.129,0.118 -2.259,0.228 -3.388,0.349l15.303,-15.324l-33.91,-4.948c-0.795,7.581 -1.544,15.135 -2.248,22.664c-5.766,0.7 -11.532,1.423 -17.297,2.194c-0.446,2.649 -0.871,5.299 -1.296,7.948c-0.002,0.01 -0.003,0.02 -0.005,0.03c-0.45,2.803 -0.884,5.606 -1.311,8.41l0,0.001c-2.659,17.491 -4.865,34.982 -6.616,52.473c-0.001,0.006 -0.002,0.012 -0.002,0.019c-0.575,5.748 -1.11,11.496 -1.587,17.243c-0.16,1.934 -0.307,3.868 -0.458,5.802c-0.529,6.844 -0.987,13.689 -1.377,20.533c0,0.004 0,0.009 -0.001,0.013c-2.184,38.353 -2.184,76.706 0,115.058c0,0.004 0.001,0.008 0.001,0.012c0.397,6.974 0.866,13.948 1.408,20.923c0.141,1.804 0.277,3.608 0.427,5.412c0.478,5.748 1.012,11.496 1.587,17.243c0,0.005 0.001,0.011 0.002,0.016c2.298,22.955 5.364,45.91 9.227,68.865c36.869,4.93 73.738,8.42 110.607,10.487c-5.206,-13.967 -12.263,-35.553 -17.064,-60.733c-4.923,-25.832 -6.45,-50.156 -4.536,-72.298Zm-89.165,-98.621c3.339,-0.097 6.684,-0.18 10.025,-0.271c-0.155,5.427 -0.281,10.85 -0.387,16.27c-3.446,0.095 -6.896,0.181 -10.34,0.282c0.189,-5.436 0.425,-10.863 0.702,-16.281Zm-0.869,21.522c3.463,-0.05 6.94,-0.084 10.405,-0.131c-0.09,5.421 -0.15,10.839 -0.19,16.257c-3.519,0.048 -7.048,0.082 -10.564,0.133c0.072,-5.423 0.19,-10.843 0.349,-16.259Zm-0.404,21.516l10.585,0c-0.024,5.418 -0.019,10.835 0.007,16.252l-10.592,0c-0.044,-5.416 -0.044,-10.835 0,-16.252Zm0.055,21.509c3.517,0.051 7.048,0.085 10.568,0.133c0.042,5.417 0.112,10.836 0.204,16.257c-3.471,-0.047 -6.953,-0.081 -10.422,-0.131c-0.16,-5.415 -0.278,-10.836 -0.35,-16.259Zm1.218,37.781c-0.277,-5.418 -0.514,-10.845 -0.703,-16.279c3.449,0.1 6.903,0.187 10.354,0.282c0.108,5.42 0.243,10.843 0.4,16.27c-3.349,-0.092 -6.703,-0.176 -10.051,-0.273Zm10.191,-107.952c-3.306,0.138 -6.604,0.263 -9.914,0.409c0.003,-0.059 0.006,-0.118 0.009,-0.176l0.005,-0.054l0.012,-0.249c0.301,-5.274 0.647,-10.583 1.029,-15.836c3.152,-0.137 6.293,-0.255 9.441,-0.386c-0.22,5.437 -0.41,10.866 -0.582,16.292Zm0.814,-21.614c-3.095,0.173 -6.183,0.329 -9.281,0.512l0.036,-0.466c0.115,-1.486 0.23,-2.972 0.353,-4.455c0.307,-3.694 0.647,-7.48 1.023,-11.437c2.886,-0.168 5.763,-0.311 8.646,-0.471c-0.286,5.445 -0.541,10.883 -0.777,16.317Zm1.068,-21.577c-2.812,0.198 -5.624,0.395 -8.438,0.603c0.008,-0.079 0.015,-0.155 0.023,-0.234l0.001,-0.005l0.024,-0.243c0.53,-5.294 1.12,-10.613 1.739,-15.939c2.543,-0.185 5.082,-0.359 7.622,-0.536c-0.351,5.46 -0.669,10.91 -0.971,16.354Zm1.317,-21.509c-2.454,0.21 -4.907,0.416 -7.363,0.634c0.667,-5.5 1.367,-11.002 2.123,-16.496c2.137,-0.186 4.271,-0.361 6.406,-0.541c-0.416,5.478 -0.8,10.944 -1.166,16.403Zm1.559,-21.449c-2.031,0.205 -4.061,0.403 -6.094,0.615c0.445,-3.123 0.888,-6.247 1.361,-9.357c0.378,-2.483 0.726,-4.732 1.059,-6.83c1.668,-0.212 3.339,-0.412 5.008,-0.617c-0.469,5.408 -0.912,10.803 -1.334,16.189Zm38.544,128.885c-5.429,0.056 -10.85,0.122 -16.274,0.184c-0.01,-5.416 0.006,-10.834 0.048,-16.254c5.461,-0.063 10.919,-0.129 16.385,-0.185c-0.075,5.421 -0.125,10.839 -0.159,16.255Zm0.248,-22.18c-5.476,0.113 -10.948,0.237 -16.419,0.364c0.061,-5.417 0.141,-10.837 0.255,-16.263c5.492,-0.127 10.984,-0.251 16.48,-0.364c-0.125,5.425 -0.229,10.845 -0.316,16.263Zm0.466,-22.177c-5.492,0.174 -10.992,0.364 -16.493,0.559c0.133,-5.421 0.288,-10.847 0.476,-16.28c5.501,-0.194 11,-0.383 16.492,-0.556c-0.179,5.432 -0.334,10.856 -0.475,16.277Zm0.682,-22.162c-5.491,0.233 -10.989,0.489 -16.489,0.751c0.206,-5.426 0.44,-10.86 0.702,-16.301c5.476,-0.258 10.95,-0.511 16.417,-0.741c-0.231,5.438 -0.437,10.867 -0.63,16.291Zm0.893,-22.12c-5.462,0.293 -10.927,0.597 -16.399,0.925c0.281,-5.434 0.594,-10.878 0.932,-16.331c5.422,-0.321 10.839,-0.62 16.253,-0.907c-0.283,5.448 -0.541,10.883 -0.786,16.313Zm1.099,-22.065c-5.402,0.35 -10.807,0.716 -16.218,1.108c0.357,-5.445 0.75,-10.904 1.165,-16.372c5.336,-0.381 10.667,-0.738 15.995,-1.079c-0.335,5.46 -0.646,10.905 -0.942,16.343Zm1.3,-22.012c-5.308,0.406 -10.619,0.831 -15.935,1.285c0.433,-5.458 0.902,-10.932 1.394,-16.416c5.216,-0.437 10.427,-0.844 15.635,-1.235c-0.385,5.468 -0.748,10.922 -1.094,16.366Zm28.208,-18.203c5.139,-0.307 10.277,-0.604 15.41,-0.867c-0.33,5.442 -0.645,10.882 -0.941,16.319c-5.189,0.27 -10.383,0.573 -15.578,0.89c0.355,-5.438 0.716,-10.879 1.109,-16.342Zm-1.497,22.317c5.218,-0.266 10.433,-0.521 15.645,-0.748c-0.283,5.435 -0.555,10.868 -0.803,16.299c-5.266,0.233 -10.535,0.495 -15.807,0.768c0.303,-5.429 0.623,-10.868 0.965,-16.319Zm-1.292,22.361c5.291,-0.224 10.579,-0.439 15.864,-0.63c-0.236,5.429 -0.459,10.857 -0.66,16.283c-5.338,0.196 -10.679,0.415 -16.023,0.645c0.251,-5.423 0.53,-10.858 0.819,-16.298Zm-1.08,22.411c5.356,-0.181 10.714,-0.368 16.065,-0.523c-0.188,5.425 -0.362,10.849 -0.517,16.272c-5.4,0.158 -10.808,0.349 -16.214,0.534c0.198,-5.42 0.429,-10.851 0.666,-16.283Zm-0.864,22.433c5.416,-0.137 10.833,-0.279 16.243,-0.396c-0.141,5.423 -0.266,10.844 -0.373,16.265c-5.453,0.119 -10.913,0.263 -16.371,0.402c0.144,-5.417 0.318,-10.843 0.501,-16.271Zm-0.643,22.456c5.465,-0.09 10.929,-0.184 16.397,-0.261c-0.093,5.42 -0.169,10.839 -0.228,16.257c-5.503,0.078 -11.003,0.173 -16.503,0.264c0.089,-5.416 0.205,-10.838 0.334,-16.26Z" style="fill:rgb(37,74,112);fill-rule:nonzero;"/>        <path d="M463.362,202.354c0,0 -0.001,-0.008 -0.001,-0.012c-0.414,-7.264 -0.906,-14.527 -1.477,-21.791c-0.12,-1.515 -0.233,-3.029 -0.358,-4.544c-0.477,-5.748 -1.012,-11.496 -1.587,-17.243c0,-0.006 -0.001,-0.011 -0.002,-0.017c-2.032,-20.295 -4.672,-40.59 -7.927,-60.885c-0.002,-0.01 -0.003,-0.02 -0.005,-0.029c-0.425,-2.649 -0.85,-5.299 -1.296,-7.948c-5.766,-0.771 -11.532,-1.493 -17.297,-2.194c-0.704,-7.529 -1.453,-15.083 -2.248,-22.664l-33.91,4.948l15.303,15.324c-1.129,-0.121 -2.258,-0.231 -3.387,-0.348c-1.799,-0.187 -3.598,-0.372 -5.397,-0.551c-4.39,-0.442 -8.78,-0.864 -13.17,-1.265c-0.581,-7.665 -1.198,-15.358 -1.853,-23.081l-33.728,6.542l14.752,14.772c-1.601,-0.123 -3.201,-0.229 -4.802,-0.346c-2.021,-0.148 -4.041,-0.297 -6.062,-0.437c-0.927,-0.064 -1.854,-0.138 -2.781,-0.201c0,0 0.001,0.011 0.001,0.016c-2.653,-0.179 -5.306,-0.363 -7.959,-0.527c-0.656,-9.948 -1.362,-19.904 -2.131,-29.872c-14.236,5.023 -28.563,10.047 -42.953,15.07c9.184,11.785 16.511,25.384 21.776,40.454c6.625,18.962 9.984,40.292 9.984,63.395c0,0.684 0.007,1.357 0.014,2.02c0.014,1.444 0.029,2.934 -0.014,4.5l0,53.939c0.795,1.112 1.593,2.273 2.391,3.48c13.761,20.826 21.993,45.886 24.465,74.483c1.914,22.141 0.388,46.466 -4.537,72.297c-4.801,25.18 -11.858,46.766 -17.064,60.733c36.869,-2.068 73.738,-5.557 110.607,-10.487c3.863,-22.954 6.929,-45.909 9.227,-68.863c0,-0.006 0.001,-0.012 0.002,-0.018c0.575,-5.748 1.11,-11.496 1.587,-17.243c0.136,-1.64 0.259,-3.279 0.388,-4.919c0.558,-7.139 1.04,-14.277 1.447,-21.416c0,-0.005 0,-0.009 0.001,-0.014c2.185,-38.352 2.185,-76.705 0.001,-115.058Zm-114.291,-108.307c5.133,0.262 10.271,0.559 15.41,0.867c0.393,5.462 0.754,10.904 1.109,16.342c-5.195,-0.317 -10.389,-0.619 -15.578,-0.89c-0.296,-5.438 -0.611,-10.877 -0.941,-16.319Zm1.262,22.435c5.212,0.227 10.428,0.481 15.645,0.748c0.342,5.451 0.662,10.889 0.965,16.319c-5.271,-0.274 -10.541,-0.535 -15.807,-0.768c-0.248,-5.431 -0.52,-10.864 -0.803,-16.299Zm1.072,22.479c5.285,0.191 10.574,0.406 15.864,0.63c0.29,5.44 0.568,10.875 0.819,16.298c-5.344,-0.23 -10.685,-0.449 -16.023,-0.645c-0.201,-5.426 -0.424,-10.854 -0.66,-16.283Zm0.88,22.517c5.351,0.155 10.708,0.342 16.065,0.523c0.237,5.433 0.468,10.864 0.666,16.282c-5.406,-0.185 -10.814,-0.376 -16.214,-0.534c-0.154,-5.421 -0.328,-10.845 -0.517,-16.271Zm0.686,22.561c5.41,0.117 10.827,0.259 16.243,0.396c0.183,5.428 0.358,10.854 0.501,16.272c-5.459,-0.139 -10.919,-0.283 -16.371,-0.402c-0.107,-5.421 -0.232,-10.843 -0.373,-16.266Zm0.718,38.847c-0.059,-5.418 -0.135,-10.837 -0.228,-16.257c5.468,0.077 10.932,0.171 16.397,0.261c0.129,5.423 0.245,10.844 0.335,16.26c-5.502,-0.091 -11.001,-0.186 -16.504,-0.264Zm37.907,-126.136c4.493,0.337 8.986,0.676 13.484,1.048c0.495,5.487 0.97,10.962 1.416,16.422c-4.606,-0.388 -9.208,-0.752 -13.807,-1.104c-0.346,-5.444 -0.709,-10.898 -1.093,-16.366Zm1.452,22.036c4.625,0.296 9.253,0.603 13.884,0.929c0.431,5.469 0.843,10.929 1.224,16.376c-4.726,-0.338 -9.447,-0.657 -14.167,-0.962c-0.296,-5.439 -0.607,-10.884 -0.941,-16.343Zm1.254,22.094c4.74,0.251 9.483,0.512 14.229,0.79c0.365,5.455 0.708,10.901 1.022,16.336c-4.825,-0.286 -9.647,-0.555 -14.465,-0.813c-0.245,-5.43 -0.503,-10.865 -0.786,-16.313Zm1.048,22.142c4.836,0.204 9.678,0.426 14.521,0.652c0.298,5.443 0.571,10.878 0.818,16.306c-4.905,-0.231 -9.81,-0.458 -14.708,-0.666c-0.193,-5.425 -0.399,-10.854 -0.631,-16.292Zm0.838,22.176c4.914,0.155 9.835,0.323 14.756,0.495c0.23,5.434 0.432,10.862 0.612,16.285c-4.967,-0.174 -9.933,-0.345 -14.892,-0.502c-0.142,-5.422 -0.297,-10.846 -0.476,-16.278Zm0.624,22.191c4.979,0.103 9.955,0.214 14.931,0.328c0.162,5.426 0.294,10.847 0.405,16.266c-5.005,-0.115 -10.01,-0.228 -15.019,-0.331c-0.087,-5.418 -0.191,-10.838 -0.317,-16.263Zm0.408,22.188c5.017,0.052 10.027,0.111 15.04,0.168c0.094,5.421 0.162,10.839 0.205,16.256c-5.029,-0.058 -10.055,-0.117 -15.087,-0.169c-0.035,-5.416 -0.085,-10.834 -0.158,-16.255Zm54.868,16.925c-3.516,-0.051 -7.046,-0.085 -10.564,-0.133c-0.04,-5.418 -0.101,-10.836 -0.19,-16.257c3.466,0.047 6.942,0.081 10.405,0.131c0.159,5.415 0.277,10.835 0.349,16.259Zm-1.218,-37.782c0.277,5.418 0.514,10.845 0.703,16.28c-3.444,-0.1 -6.894,-0.187 -10.34,-0.282c-0.106,-5.42 -0.232,-10.843 -0.387,-16.27c3.34,0.092 6.685,0.175 10.024,0.272Zm-16.283,-107.962c1.67,0.205 3.34,0.405 5.009,0.617c0.854,5.377 1.663,10.778 2.434,16.188c-2.038,-0.212 -4.073,-0.411 -6.109,-0.616c-0.422,-5.386 -0.865,-10.781 -1.334,-16.189Zm1.728,21.235c2.137,0.18 4.274,0.355 6.413,0.542c0.756,5.495 1.467,10.997 2.133,16.497c-2.462,-0.219 -4.921,-0.425 -7.381,-0.635c-0.366,-5.46 -0.75,-10.926 -1.165,-16.404Zm1.511,21.557c2.544,0.177 5.088,0.352 7.634,0.537c0.612,5.272 1.186,10.537 1.712,15.785l0.003,0.035l0.017,0.161c0.015,0.149 0.028,0.291 0.043,0.439c-2.815,-0.208 -5.626,-0.405 -8.438,-0.603c-0.302,-5.443 -0.62,-10.893 -0.971,-16.354Zm1.262,21.613c2.883,0.16 5.76,0.303 8.646,0.471c0.377,3.965 0.717,7.752 1.023,11.435c0.08,0.962 0.154,1.925 0.229,2.887l0.125,1.601c0.011,0.145 0.021,0.291 0.032,0.435c-3.097,-0.182 -6.184,-0.338 -9.277,-0.511c-0.237,-5.433 -0.492,-10.871 -0.778,-16.318Zm1.008,21.641c3.143,0.13 6.28,0.248 9.428,0.385c0.377,5.18 0.73,10.375 1.025,15.528l0,0.318l0.039,0.363c0.002,0.035 0.004,0.071 0.006,0.106c-3.31,-0.146 -6.609,-0.271 -9.914,-0.409c-0.173,-5.425 -0.363,-10.854 -0.584,-16.291Zm10.774,124.244c-3.348,0.097 -6.702,0.18 -10.052,0.272c0.158,-5.427 0.292,-10.85 0.401,-16.27c3.451,-0.095 6.905,-0.181 10.354,-0.282c-0.19,5.435 -0.426,10.862 -0.703,16.28Zm0.869,-21.522c-3.469,0.05 -6.951,0.084 -10.422,0.131c0.092,-5.421 0.161,-10.84 0.204,-16.257c3.52,-0.048 7.05,-0.082 10.568,-0.133c-0.073,5.423 -0.191,10.844 -0.35,16.259Zm0.404,-21.515l-10.592,0c0.026,-5.418 0.03,-10.835 0.007,-16.252l10.585,0c0.044,5.417 0.044,10.835 0,16.252Z" style="fill:rgb(37,74,112);fill-rule:nonzero;"/>    </g></svg>