<?xml version="1.0" encoding="UTF-8" standalone="no"?><!DOCTYPE svg PUBLIC "-//W3C//DTD SVG 1.1//EN" "http://www.w3.org/Graphics/SVG/1.1/DTD/svg11.dtd"><svg width="100%" height="100%" viewBox="0 0 512 512" version="1.1" xmlns="http://www.w3.org/2000/svg" xmlns:xlink="http://www.w3.org/1999/xlink" xml:space="preserve" style="fill-rule:evenodd;clip-rule:evenodd;stroke-linejoin:round;stroke-miterlimit:2;"><title>Prestiamoci</title><desc>Prestiamoci is the first community of loans between people born in Italy for the Italian market, which allows its members to make investments and obtain loans at an advantageous rate, to achieve common passions and projects. We are a network of people who know each other and lend money, bringing the bank back to its original role as a safe. We guarantee the service to those trustworthy people who want to carry out their life projects and to those small quality businesses that want to grow.</desc>    <g transform="matrix(4.26579,0,0,2.01459,966.807,-86.8067)">        <g transform="matrix(0.952909,0,0,2.01773,-284.659,-605.656)">            <path d="M111.323,337.022c-11.175,-0.642 -25.178,4.612 -36.452,17.135c-15.357,17.057 -14.875,26.881 -12.473,35.5c3.332,11.958 8.162,14.689 8.162,14.689l41.279,-35.851c0,0 8.145,-7.449 19.19,-4.589c11.045,2.861 17.808,10.645 17.808,10.645c0,0 -8.891,-18.418 -15.029,-24.989c-4.638,-4.965 -14.272,-12.068 -22.485,-12.54Z" style="fill:rgb(17,70,136);"/>        </g>        <g transform="matrix(-0.952909,-3.33067e-16,2.77556e-17,-2.01773,-48.6001,945.98)">            <path d="M111.323,337.022c-11.175,-0.642 -25.178,4.612 -36.452,17.135c-15.357,17.057 -14.875,26.881 -12.473,35.5c3.332,11.958 8.162,14.689 8.162,14.689l41.279,-35.851c0,0 8.145,-7.449 19.19,-4.589c11.045,2.861 17.808,10.645 17.808,10.645c0,0 -8.891,-18.418 -15.029,-24.989c-4.638,-4.965 -14.272,-12.068 -22.485,-12.54Z" style="fill:rgb(97,186,216);"/>        </g>    </g></svg>