<?xml version="1.0" encoding="UTF-8" standalone="no"?><!DOCTYPE svg PUBLIC "-//W3C//DTD SVG 1.1//EN" "http://www.w3.org/Graphics/SVG/1.1/DTD/svg11.dtd"><svg width="100%" height="100%" viewBox="0 0 512 512" version="1.1" xmlns="http://www.w3.org/2000/svg" xmlns:xlink="http://www.w3.org/1999/xlink" xml:space="preserve" style="fill-rule:evenodd;clip-rule:evenodd;stroke-linejoin:round;stroke-miterlimit:2;"><title>Receptum</title><desc>Receptum intends to offer a P2P loan channel (from person to person) with a mortgage guarantee before a notary. We make our community available to you by having people who need financing communicate with people who invest their money</desc>    <g transform="matrix(5.3232,0,0,5.3232,-25.616,-10.5171)">        <g transform="matrix(1.19304,0,0,1.19304,55.6204,-11.267)">            <circle cx="25.513" cy="51.184" r="12.362" style="fill:rgb(0,171,222);"/>        </g>        <path d="M77.12,36.23c-4.606,-7.972 -13.242,-13.312 -23.927,-13.312c-3.035,0 -5.5,-2.464 -5.5,-5.5c0,-3.035 2.465,-5.5 5.5,-5.5c16.304,0 29.161,8.911 35.056,21.778c-0.717,-0.097 -1.448,-0.147 -2.19,-0.147c-3.301,0 -6.374,0.987 -8.939,2.681Z" style="fill:rgb(0,171,222);"/>        <path d="M77.343,63.51c2.519,1.606 5.51,2.536 8.716,2.536c0.832,0 1.649,-0.062 2.448,-0.183c-5.232,11.943 -16.401,20.602 -30.768,22.116c1.463,-1.283 2.387,-3.166 2.387,-5.263c0,-2.379 -1.189,-4.483 -3.005,-5.748c9.029,-1.157 16.237,-6.28 20.222,-13.458Z" style="fill:rgb(0,171,222);"/>        <g transform="matrix(1.19304,0,0,1.19304,-10.6897,-11.267)">            <circle cx="25.513" cy="51.184" r="12.362" style="fill:rgb(192,192,192);"/>        </g>        <path d="M28.841,63.263c4.507,8.325 13.316,13.953 24.285,13.953c3.036,0 5.5,2.464 5.5,5.5c0,3.036 -2.464,5.5 -5.5,5.5c-16.516,0 -29.495,-9.145 -35.281,-22.28c0.624,0.073 1.26,0.11 1.903,0.11c3.368,0 6.497,-1.026 9.093,-2.783Z" style="fill:rgb(192,192,192);"/>        <path d="M18.1,33.632c5.526,-12.006 17.126,-20.556 31.932,-21.605c-1.848,1.086 -3.089,3.095 -3.089,5.391c0,2.464 1.429,4.597 3.503,5.614c-9.553,0.823 -17.206,6.021 -21.39,13.449c-2.638,-1.847 -5.847,-2.932 -9.308,-2.932c-0.556,0 -1.107,0.029 -1.648,0.083Z" style="fill:rgb(192,192,192);"/>    </g></svg>