<?xml version="1.0" encoding="UTF-8" standalone="no"?><!DOCTYPE svg PUBLIC "-//W3C//DTD SVG 1.1//EN" "http://www.w3.org/Graphics/SVG/1.1/DTD/svg11.dtd"><svg width="100%" height="100%" viewBox="0 0 512 512" version="1.1" xmlns="http://www.w3.org/2000/svg" xmlns:xlink="http://www.w3.org/1999/xlink" xml:space="preserve" style="fill-rule:evenodd;clip-rule:evenodd;stroke-linejoin:round;stroke-miterlimit:2;"><title>Bestaker</title><desc>Bestaker.com is a showcase for projects of great value creation and high profitability potential in which large and small investors can invest.Bestaker.com will allow you to support entrepreneurs to develop their projects and in return you can get dividends when your company makes a profit.</desc>    <g transform="matrix(21.7503,0,0,21.7503,-273.66,-824.611)">        <g transform="matrix(0.0519646,0,0,0.0519646,10.468,34.9619)">            <circle cx="267.181" cy="283.286" r="225.615" style="fill:rgb(39,39,39);"/>        </g>        <g transform="matrix(12,0,0,12,17.2839,54.0327)">            <path d="M0.068,-0.731c0.024,-0.004 0.047,-0.006 0.07,-0.006c0.023,0 0.047,0.002 0.071,0.006l0,0.264c0.01,-0.018 0.027,-0.033 0.05,-0.045c0.023,-0.011 0.05,-0.017 0.08,-0.017c0.03,0 0.058,0.005 0.083,0.016c0.026,0.011 0.048,0.027 0.067,0.048c0.019,0.022 0.033,0.049 0.044,0.082c0.011,0.033 0.016,0.071 0.016,0.116c0,0.043 -0.007,0.082 -0.02,0.117c-0.013,0.034 -0.033,0.063 -0.058,0.087c-0.025,0.024 -0.056,0.043 -0.093,0.056c-0.037,0.013 -0.078,0.019 -0.124,0.019c-0.015,0 -0.03,-0.001 -0.046,-0.002c-0.017,-0.001 -0.033,-0.003 -0.05,-0.005c-0.017,-0.003 -0.033,-0.006 -0.048,-0.009c-0.015,-0.004 -0.029,-0.008 -0.042,-0.013l0,-0.714Zm0.141,0.619c0.008,0.003 0.016,0.004 0.025,0.005c0.009,0.001 0.019,0.001 0.028,0.001c0.043,0 0.077,-0.013 0.102,-0.038c0.025,-0.025 0.037,-0.065 0.037,-0.119c0,-0.048 -0.008,-0.084 -0.023,-0.109c-0.015,-0.026 -0.041,-0.038 -0.078,-0.038c-0.027,0 -0.049,0.009 -0.066,0.026c-0.017,0.018 -0.025,0.046 -0.025,0.084l0,0.188Z" style="fill:rgb(75,148,218);fill-rule:nonzero;"/>        </g>        <g transform="matrix(12,0,0,12,24.3639,54.0327)">            <path d="M0.183,-0.215c0.003,0.04 0.017,0.069 0.042,0.087c0.025,0.018 0.059,0.027 0.1,0.027c0.023,0 0.046,-0.002 0.07,-0.006c0.023,-0.005 0.046,-0.011 0.067,-0.019c0.007,0.013 0.014,0.029 0.019,0.048c0.005,0.019 0.008,0.039 0.009,0.06c-0.052,0.02 -0.111,0.03 -0.176,0.03c-0.048,0 -0.089,-0.007 -0.124,-0.02c-0.034,-0.013 -0.062,-0.032 -0.084,-0.055c-0.021,-0.024 -0.037,-0.052 -0.048,-0.085c-0.01,-0.033 -0.015,-0.068 -0.015,-0.107c0,-0.038 0.005,-0.074 0.016,-0.107c0.011,-0.033 0.026,-0.062 0.047,-0.087c0.021,-0.025 0.047,-0.044 0.078,-0.059c0.031,-0.014 0.068,-0.021 0.109,-0.021c0.036,0 0.068,0.006 0.096,0.019c0.028,0.013 0.052,0.03 0.072,0.052c0.019,0.022 0.034,0.048 0.044,0.079c0.01,0.03 0.015,0.062 0.015,0.097c0,0.013 -0.001,0.025 -0.002,0.038c-0.001,0.012 -0.002,0.022 -0.003,0.029l-0.332,0Zm0.203,-0.099c-0.001,-0.032 -0.01,-0.058 -0.027,-0.077c-0.016,-0.02 -0.039,-0.03 -0.068,-0.03c-0.033,0 -0.059,0.009 -0.076,0.028c-0.017,0.019 -0.028,0.045 -0.031,0.079l0.202,0Z" style="fill:rgb(75,148,218);fill-rule:nonzero;"/>        </g>    </g></svg>