<?xml version="1.0" encoding="UTF-8" standalone="no"?><!DOCTYPE svg PUBLIC "-//W3C//DTD SVG 1.1//EN" "http://www.w3.org/Graphics/SVG/1.1/DTD/svg11.dtd"><svg width="100%" height="100%" viewBox="0 0 512 512" version="1.1" xmlns="http://www.w3.org/2000/svg" xmlns:xlink="http://www.w3.org/1999/xlink" xml:space="preserve" style="fill-rule:evenodd;clip-rule:evenodd;stroke-linejoin:round;stroke-miterlimit:2;"><title>InvestBook</title><desc>Investbook is a participative loan website dedicated to financing SMEs by issuing unlisted bonds. Approved by the AMF since 2014, Investbook offers a quick and easy participatory loan solution for SMEs wishing to diversify their sources of funding and gain in depth in terms of their financial resources.</desc>    <g transform="matrix(2.65686,0,0,2.65594,-299.324,-22.6158)">        <g transform="matrix(1,0,0,1,-17.505,8.2517)">            <path d="M236.01,86.06c3.73,-1.82 7.25,-2.59 10.91,-2.42c7.99,0.38 13.54,4.38 16.22,11.82c3.33,9.24 2.65,18.24 -4.44,25.51c-5.65,5.8 -12.88,6.43 -20.31,3.43c-1.74,-0.7 -3.03,-0.96 -4.99,-0.12c-3.45,1.48 -6.13,-0.22 -6.17,-3.99c-0.19,-14.8 -0.09,-29.6 -0.07,-44.41c0,-2.79 1.52,-4.39 4.3,-4.4c3.01,-0.01 4.57,1.62 4.55,4.69c-0.01,3.14 0,6.26 0,9.89Zm19.98,18.95c0.05,-7.27 -3.08,-11.75 -8.75,-12.53c-4.81,-0.66 -8.89,2.13 -10.51,7.18c-2.21,6.89 0.08,14.18 5.22,16.63c7.17,3.42 13.98,-2.05 14.04,-11.28Z" style="fill:rgb(179,20,47);fill-rule:nonzero;"/>        </g>        <g transform="matrix(1,0,0,1,164.33,8.2517)">            <path d="M17.01,104.95c0,4.83 -0.06,9.65 0.02,14.48c0.05,3.21 -1.37,5.33 -4.56,5.27c-2.92,-0.05 -4.32,-2.15 -4.32,-5.08c0,-9.98 -0.04,-19.97 0.03,-29.95c0.02,-2.9 1.46,-4.78 4.59,-4.68c3.14,0.1 4.27,2.06 4.26,4.98c-0.04,5 -0.01,9.99 -0.02,14.98Z" style="fill:rgb(179,20,47);fill-rule:nonzero;"/>        </g>        <g transform="matrix(1,0,0,1,164.33,8.2517)">            <path d="M12.79,80.09c-3.9,-0.3 -6.3,-2.19 -6.63,-6.13c-0.31,-3.72 2.62,-6.76 6.35,-6.82c3.77,-0.06 6.76,2.85 6.59,6.59c-0.17,3.97 -2.56,5.89 -6.31,6.36Z" style="fill:rgb(180,23,49);fill-rule:nonzero;"/>        </g>        <g transform="matrix(1,0,0,1,0.32968,0)">            <path d="M133.64,162.36c-1.71,1.35 -1.41,3.1 -1.74,4.66c-0.57,2.61 -2.15,4.23 -4.93,3.87c-3.08,-0.4 -4.23,-2.59 -3.79,-5.42c0.86,-5.58 1.9,-11.14 2.95,-16.68c0.56,-2.96 2.55,-4.28 5.45,-3.83c5.74,0.88 11.47,1.88 17.19,2.94c2.72,0.5 4.1,2.31 3.53,5.04c-0.56,2.66 -2.49,3.85 -5.19,3.48c-1.94,-0.27 -3.84,-0.95 -6.22,0.06c4.38,7.17 10.3,12.63 16.69,17.62c40.58,31.68 100.25,20.33 126.64,-24.04c0.43,-0.72 0.95,-1.38 1.31,-2.13c1.43,-2.94 3.89,-3.92 6.6,-2.46c3.03,1.63 2.37,4.46 0.99,6.97c-2.98,5.41 -6.42,10.55 -10.51,15.16c-20.87,23.51 -47.14,35.06 -78.48,33.1c-28.14,-1.76 -51.24,-14.25 -68.92,-36.42c-0.52,-0.65 -1.03,-1.27 -1.57,-1.92Z" style="fill:rgb(158,157,157);fill-rule:nonzero;"/>        </g>        <g transform="matrix(1,0,0,1,-0.364793,0)">            <path d="M284.75,47.7c1.59,-1.91 1.03,-3.72 1.57,-5.27c0.81,-2.29 2.24,-3.75 4.83,-3.38c2.5,0.36 4.1,1.99 3.74,4.45c-0.89,6.24 -1.96,12.46 -3.3,18.62c-0.53,2.43 -2.8,3.24 -5.18,2.84c-5.73,-0.94 -11.46,-1.92 -17.15,-3.07c-2.75,-0.56 -3.79,-2.64 -3.26,-5.29c0.52,-2.6 2.59,-3.4 4.91,-3.18c1.95,0.18 3.86,0.94 6.58,0.18c-4.03,-6.56 -9.23,-11.64 -14.86,-16.16c-34.59,-27.75 -81.2,-26.19 -114.05,3.79c-6.18,5.63 -11.2,12.3 -15.35,19.56c-1.73,3.03 -3.54,5.76 -7.29,3.45c-3.47,-2.14 -2,-5.19 -0.39,-7.87c15.2,-25.24 37.26,-41.2 66.26,-46.01c32.91,-5.46 61.44,4.39 84.98,28.17c2.79,2.84 5.22,6.01 7.96,9.17Z" style="fill:rgb(158,157,157);fill-rule:nonzero;"/>        </g>    </g></svg>