<?xml version="1.0" encoding="UTF-8" standalone="no"?><!DOCTYPE svg PUBLIC "-//W3C//DTD SVG 1.1//EN" "http://www.w3.org/Graphics/SVG/1.1/DTD/svg11.dtd"><svg width="100%" height="100%" viewBox="0 0 512 512" version="1.1" xmlns="http://www.w3.org/2000/svg" xmlns:xlink="http://www.w3.org/1999/xlink" xml:space="preserve" style="fill-rule:evenodd;clip-rule:evenodd;stroke-linejoin:round;stroke-miterlimit:2;"><title>My Capital Immo</title><desc>My Capital Immo, a crowdfunding platform specializing in real estate, is a brand of Happy Capital, a crowdfunding platform for investing in the capital of SMEs. A team of finance and real estate experts ensures you an optimal selection of real estate projects.</desc>    <g transform="matrix(9.85221,0,0,9.85221,-26.9539,150.12)">        <g transform="matrix(1,0,0,1,0,-13.8761)">            <path d="M2.837,44.683l5.556,-0l-0,-14.93c-0,-0 8.514,-8.515 8.514,-8.515c-0,0 3.559,0 3.559,0c-0,0 -0,23.272 -0,23.272l6.206,-0l-0,-1.2l-5.006,-0c-0,-0 -0,-23.272 -0,-23.272l-5.256,0l-9.217,9.218l-0,14.227c-0,-0 -4.356,-0 -4.356,-0l0,1.2Z" style="fill:rgb(156,134,66);"/>        </g>        <g transform="matrix(1,0,0,1,0,-13.8761)">            <path d="M14.261,44.621l4.339,-0l0,-38.56c0,0 9.671,9.671 9.671,9.671l3.881,0c-0,0 -0,28.712 -0,28.712l5.051,-0l0,-1.2l-3.851,-0c-0,-0 -0,-28.712 -0,-28.712l-4.584,0c0,0 -10.343,-10.344 -10.343,-10.344l-1.025,0.425l0,38.808c0,-0 -3.139,-0 -3.139,-0l-0,1.2Z" style="fill:rgb(156,134,66);"/>        </g>        <g transform="matrix(1,0,0,1,0,-13.8761)">            <path d="M30.219,44.24l-0,-12.503c-0,0 8.89,-6.852 8.89,-6.852c-0,0 9.778,6.843 9.778,6.843c0,-0 0,13.329 0,13.329l5.715,0l0,-1.2l-4.515,0c0,0 0,-12.754 0,-12.754l-11.013,-7.706l-10.055,7.75l-0,13.093l1.2,0Z" style="fill:rgb(156,134,66);"/>        </g>    </g></svg>