<?xml version="1.0" encoding="UTF-8" standalone="no"?><!DOCTYPE svg PUBLIC "-//W3C//DTD SVG 1.1//EN" "http://www.w3.org/Graphics/SVG/1.1/DTD/svg11.dtd"><svg width="100%" height="100%" viewBox="0 0 512 512" version="1.1" xmlns="http://www.w3.org/2000/svg" xmlns:xlink="http://www.w3.org/1999/xlink" xml:space="preserve" style="fill-rule:evenodd;clip-rule:evenodd;stroke-linejoin:round;stroke-miterlimit:2;"><title>Grundag</title><desc>A new real estate crowdfunding platform has launched in Germany. Grundag GmbH &amp; Co., a wholly-owned subsidiary of CrowdDesk, has launched to provide debt based crowdfunding for German real estate projects. The new site was launched in partnership with ERGE Miet- &amp; Finanzvermittlung GmbH &amp; Co. KG.</desc>    <g transform="matrix(1.40143,0,0,1.40143,58.6918,-3.63342)">        <path d="M282.545,45.71l-6.728,-1.084c0,0 -78.449,-12.571 -129.742,-39.484l-3.5,-1.836l-3.585,1.664c-62.545,29.027 -133.144,39.643 -133.144,39.643l-6.81,1.025l0,220.487l0.842,1.687c0,0 39.168,79.016 140.908,99.408l3.265,-0.025c110.437,-23.92 137.998,-100.183 137.998,-100.183l0.496,-1.342l0,-219.96Zm-140.383,-24.598c-51.817,23.393 -107.998,34.754 -127.126,38.173l0,202.941c5.883,10.546 43.112,71.423 127.261,88.97c91.393,-20.41 120.286,-79.425 124.248,-88.542l0,-203.424c-20.02,-3.702 -80.562,-16.134 -124.383,-38.118Z" style="fill:rgb(189,210,220);"/>        <path d="M94.95,153.092l-25.72,-6.597l0,62.147l18.229,10.558l18.653,-4.594l0,-12.545l-17.107,-3.031l0,-44.646l5.945,-1.292Z" style="fill:rgb(87,135,158);"/>        <path d="M106.009,200.298l-17.004,-8.633l0,-3.494l17.049,4.73l-0.045,7.397Z" style="fill:rgb(118,163,188);"/>        <path d="M40.478,250.692l0,-177.401l102.487,-30.526l0.168,76.629l-74.093,14.219l0,74.96l36.945,21.278l-0.12,-41.981l-17.278,-2.967l0,-30.104l53.559,-10.618l0,182.709c0,0 -33.808,-11.678 -55.732,-24.13c-23.164,-13.156 -45.936,-52.068 -45.936,-52.068Z" style="fill:rgb(189,210,220);"/>        <path d="M244.116,163.07l0,87.622c0,0 -22.772,38.912 -45.936,52.068c-21.924,12.452 -55.732,24.13 -55.732,24.13l0,-182.709l101.668,18.889Zm0,-21.053l-102.655,-22.623l0.168,-76.629l102.487,30.526l0,68.726Z" style="fill:rgb(118,163,188);"/>        <path d="M160.732,199.413l83.384,-8.848l-100.695,-20.118l0,25.086l17.311,3.88Z" style="fill:rgb(58,106,125);"/>        <path d="M89.637,184.943l0,2.934l16.461,5.267l0,-4.913l-16.461,-3.288Z" style="fill:rgb(58,106,125);"/>    </g></svg>