<?xml version="1.0" encoding="UTF-8" standalone="no"?><!DOCTYPE svg PUBLIC "-//W3C//DTD SVG 1.1//EN" "http://www.w3.org/Graphics/SVG/1.1/DTD/svg11.dtd"><svg width="100%" height="100%" viewBox="0 0 512 512" version="1.1" xmlns="http://www.w3.org/2000/svg" xmlns:xlink="http://www.w3.org/1999/xlink" xml:space="preserve" style="fill-rule:evenodd;clip-rule:evenodd;stroke-linejoin:round;stroke-miterlimit:2;"><title>ReaCapital</title><desc>We are a young crowdinvesting platform from Hamburg. Since our foundation in 2015, we have always been working on making real estate investments transparent, easy and free of charge for everyone.</desc>    <g transform="matrix(2.26786,0,0,2.26786,-3337.93,-664.706)">        <g id="Blue">            <g transform="matrix(1,0,0,1,-0.248813,0.61794)">                <path d="M1532.02,441.027c0,-1.179 -0.957,-2.137 -2.137,-2.137l-18.346,0c-1.179,0 -2.137,0.958 -2.137,2.137l0,17.75c0,1.18 0.958,2.138 2.137,2.138l18.346,0c1.18,0 2.137,-0.958 2.137,-2.138l0,-17.75Z" style="fill:rgb(0,40,52);"/>            </g>            <g transform="matrix(1,0,0,1,120.234,6.58805)">                <path d="M1532.02,440.998c0,-1.164 -0.944,-2.108 -2.107,-2.108l-18.405,0c-1.164,0 -2.108,0.944 -2.108,2.108l0,17.809c0,1.163 0.944,2.108 2.108,2.108l18.405,0c1.163,0 2.107,-0.945 2.107,-2.108l0,-17.809Z" style="fill:rgb(0,40,52);"/>            </g>            <g transform="matrix(0.942021,0,0,0.942021,112.432,-118.982)">                <path d="M1532.02,440.998c0,-1.164 -0.944,-2.108 -2.107,-2.108l-18.405,0c-1.164,0 -2.108,0.944 -2.108,2.108l0,17.809c0,1.163 0.944,2.108 2.108,2.108l18.405,0c1.163,0 2.107,-0.945 2.107,-2.108l0,-17.809Z" style="fill:rgb(0,40,52);"/>            </g>            <g transform="matrix(0.942021,0,0,0.942021,87.3343,-69.4394)">                <path d="M1532.02,440.998c0,-1.164 -0.944,-2.108 -2.107,-2.108l-18.405,0c-1.164,0 -2.108,0.944 -2.108,2.108l0,17.809c0,1.163 0.944,2.108 2.108,2.108l18.405,0c1.163,0 2.107,-0.945 2.107,-2.108l0,-17.809Z" style="fill:rgb(0,40,52);"/>            </g>            <g transform="matrix(0.913274,0,0,0.913274,237.876,-40.6196)">                <path d="M1532.02,440.998c0,-1.164 -0.944,-2.108 -2.107,-2.108l-18.405,0c-1.164,0 -2.108,0.944 -2.108,2.108l0,17.809c0,1.163 0.944,2.108 2.108,2.108l18.405,0c1.163,0 2.107,-0.945 2.107,-2.108l0,-17.809Z" style="fill:rgb(0,40,52);"/>            </g>            <g transform="matrix(0.741694,0,0,0.741694,535.762,23.0795)">                <path d="M1532.02,440.998c0,-1.164 -0.944,-2.108 -2.107,-2.108l-18.405,0c-1.164,0 -2.108,0.944 -2.108,2.108l0,17.809c0,1.163 0.944,2.108 2.108,2.108l18.405,0c1.163,0 2.107,-0.945 2.107,-2.108l0,-17.809Z" style="fill:rgb(0,40,52);"/>            </g>            <g transform="matrix(0.741694,0,0,0.741694,493.398,83.2292)">                <path d="M1532.02,440.998c0,-1.164 -0.944,-2.108 -2.107,-2.108l-18.405,0c-1.164,0 -2.108,0.944 -2.108,2.108l0,17.809c0,1.163 0.944,2.108 2.108,2.108l18.405,0c1.163,0 2.107,-0.945 2.107,-2.108l0,-17.809Z" style="fill:rgb(0,40,52);"/>            </g>            <g transform="matrix(0.696944,0,0,0.696944,497.333,20.5413)">                <path d="M1532.02,440.998c0,-1.164 -0.944,-2.108 -2.107,-2.108l-18.405,0c-1.164,0 -2.108,0.944 -2.108,2.108l0,17.809c0,1.163 0.944,2.108 2.108,2.108l18.405,0c1.163,0 2.107,-0.945 2.107,-2.108l0,-17.809Z" style="fill:rgb(0,40,52);"/>            </g>            <g transform="matrix(0.541575,0,0,0.541575,735.477,123.879)">                <path d="M1532.02,440.998c0,-1.164 -0.944,-2.108 -2.107,-2.108l-18.405,0c-1.164,0 -2.108,0.944 -2.108,2.108l0,17.809c0,1.163 0.944,2.108 2.108,2.108l18.405,0c1.163,0 2.107,-0.945 2.107,-2.108l0,-17.809Z" style="fill:rgb(0,40,52);"/>            </g>            <g transform="matrix(0.528749,0,0,0.528749,775.542,97.7832)">                <path d="M1532.02,440.998c0,-1.164 -0.944,-2.108 -2.107,-2.108l-18.405,0c-1.164,0 -2.108,0.944 -2.108,2.108l0,17.809c0,1.163 0.944,2.108 2.108,2.108l18.405,0c1.163,0 2.107,-0.945 2.107,-2.108l0,-17.809Z" style="fill:rgb(0,40,52);"/>            </g>            <g transform="matrix(0.528749,0,0,0.528749,733.804,91.2961)">                <path d="M1532.02,440.998c0,-1.164 -0.944,-2.108 -2.107,-2.108l-18.405,0c-1.164,0 -2.108,0.944 -2.108,2.108l0,17.809c0,1.163 0.944,2.108 2.108,2.108l18.405,0c1.163,0 2.107,-0.945 2.107,-2.108l0,-17.809Z" style="fill:rgb(0,40,52);"/>            </g>            <g transform="matrix(0.528749,0,0,0.528749,734.939,133.681)">                <path d="M1532.02,440.998c0,-1.164 -0.944,-2.108 -2.107,-2.108l-18.405,0c-1.164,0 -2.108,0.944 -2.108,2.108l0,17.809c0,1.163 0.944,2.108 2.108,2.108l18.405,0c1.163,0 2.107,-0.945 2.107,-2.108l0,-17.809Z" style="fill:rgb(0,40,52);"/>            </g>            <g transform="matrix(0.528749,0,0,0.528749,735.418,169.859)">                <path d="M1532.02,440.998c0,-1.164 -0.944,-2.108 -2.107,-2.108l-18.405,0c-1.164,0 -2.108,0.944 -2.108,2.108l0,17.809c0,1.163 0.944,2.108 2.108,2.108l18.405,0c1.163,0 2.107,-0.945 2.107,-2.108l0,-17.809Z" style="fill:rgb(0,40,52);"/>            </g>            <g transform="matrix(0.528749,0,0,0.528749,754.611,169.361)">                <path d="M1532.02,440.998c0,-1.164 -0.944,-2.108 -2.107,-2.108l-18.405,0c-1.164,0 -2.108,0.944 -2.108,2.108l0,17.809c0,1.163 0.944,2.108 2.108,2.108l18.405,0c1.163,0 2.107,-0.945 2.107,-2.108l0,-17.809Z" style="fill:rgb(0,40,52);"/>            </g>            <g transform="matrix(0.528749,0,0,0.528749,773.297,165.975)">                <path d="M1532.02,440.998c0,-1.164 -0.944,-2.108 -2.107,-2.108l-18.405,0c-1.164,0 -2.108,0.944 -2.108,2.108l0,17.809c0,1.163 0.944,2.108 2.108,2.108l18.405,0c1.163,0 2.107,-0.945 2.107,-2.108l0,-17.809Z" style="fill:rgb(0,40,52);"/>            </g>            <g transform="matrix(0.528749,0,0,0.528749,814.209,108.259)">                <path d="M1532.02,440.998c0,-1.164 -0.944,-2.108 -2.107,-2.108l-18.405,0c-1.164,0 -2.108,0.944 -2.108,2.108l0,17.809c0,1.163 0.944,2.108 2.108,2.108l18.405,0c1.163,0 2.107,-0.945 2.107,-2.108l0,-17.809Z" style="fill:rgb(0,40,52);"/>            </g>            <g transform="matrix(0.528749,0,0,0.528749,825.713,92.3486)">                <path d="M1532.02,440.998c0,-1.164 -0.944,-2.108 -2.107,-2.108l-18.405,0c-1.164,0 -2.108,0.944 -2.108,2.108l0,17.809c0,1.163 0.944,2.108 2.108,2.108l18.405,0c1.163,0 2.107,-0.945 2.107,-2.108l0,-17.809Z" style="fill:rgb(0,40,52);"/>            </g>            <g transform="matrix(0.528749,0,0,0.528749,788.732,82.9993)">                <path d="M1532.02,440.998c0,-1.164 -0.944,-2.108 -2.107,-2.108l-18.405,0c-1.164,0 -2.108,0.944 -2.108,2.108l0,17.809c0,1.163 0.944,2.108 2.108,2.108l18.405,0c1.163,0 2.107,-0.945 2.107,-2.108l0,-17.809Z" style="fill:rgb(0,40,52);"/>            </g>            <g transform="matrix(0.528749,0,0,0.528749,829.397,158.847)">                <path d="M1532.02,440.998c0,-1.164 -0.944,-2.108 -2.107,-2.108l-18.405,0c-1.164,0 -2.108,0.944 -2.108,2.108l0,17.809c0,1.163 0.944,2.108 2.108,2.108l18.405,0c1.163,0 2.107,-0.945 2.107,-2.108l0,-17.809Z" style="fill:rgb(0,40,52);"/>            </g>            <g transform="matrix(0.528749,0,0,0.528749,837.589,177.32)">                <path d="M1532.02,440.998c0,-1.164 -0.944,-2.108 -2.107,-2.108l-18.405,0c-1.164,0 -2.108,0.944 -2.108,2.108l0,17.809c0,1.163 0.944,2.108 2.108,2.108l18.405,0c1.163,0 2.107,-0.945 2.107,-2.108l0,-17.809Z" style="fill:rgb(0,40,52);"/>            </g>            <g transform="matrix(0.528749,0,0,0.528749,836.253,244.996)">                <path d="M1532.02,440.998c0,-1.164 -0.944,-2.108 -2.107,-2.108l-18.405,0c-1.164,0 -2.108,0.944 -2.108,2.108l0,17.809c0,1.163 0.944,2.108 2.108,2.108l18.405,0c1.163,0 2.107,-0.945 2.107,-2.108l0,-17.809Z" style="fill:rgb(0,40,52);"/>            </g>            <g transform="matrix(0.528749,0,0,0.528749,817.438,249.07)">                <path d="M1532.02,440.998c0,-1.164 -0.944,-2.108 -2.107,-2.108l-18.405,0c-1.164,0 -2.108,0.944 -2.108,2.108l0,17.809c0,1.163 0.944,2.108 2.108,2.108l18.405,0c1.163,0 2.107,-0.945 2.107,-2.108l0,-17.809Z" style="fill:rgb(0,40,52);"/>            </g>            <g transform="matrix(0.528749,0,0,0.528749,754.711,247.935)">                <path d="M1532.02,440.998c0,-1.164 -0.944,-2.108 -2.107,-2.108l-18.405,0c-1.164,0 -2.108,0.944 -2.108,2.108l0,17.809c0,1.163 0.944,2.108 2.108,2.108l18.405,0c1.163,0 2.107,-0.945 2.107,-2.108l0,-17.809Z" style="fill:rgb(0,40,52);"/>            </g>            <g transform="matrix(0.528749,0,0,0.528749,754.948,230.907)">                <path d="M1532.02,440.998c0,-1.164 -0.944,-2.108 -2.107,-2.108l-18.405,0c-1.164,0 -2.108,0.944 -2.108,2.108l0,17.809c0,1.163 0.944,2.108 2.108,2.108l18.405,0c1.163,0 2.107,-0.945 2.107,-2.108l0,-17.809Z" style="fill:rgb(0,40,52);"/>            </g>            <g transform="matrix(0.503069,0,0,0.503069,774.729,243.623)">                <path d="M1532.02,440.998c0,-1.164 -0.944,-2.108 -2.107,-2.108l-18.405,0c-1.164,0 -2.108,0.944 -2.108,2.108l0,17.809c0,1.163 0.944,2.108 2.108,2.108l18.405,0c1.163,0 2.107,-0.945 2.107,-2.108l0,-17.809Z" style="fill:rgb(0,40,52);"/>            </g>            <g transform="matrix(0.503069,0,0,0.503069,769.258,286.049)">                <path d="M1532.02,440.998c0,-1.164 -0.944,-2.108 -2.107,-2.108l-18.405,0c-1.164,0 -2.108,0.944 -2.108,2.108l0,17.809c0,1.163 0.944,2.108 2.108,2.108l18.405,0c1.163,0 2.107,-0.945 2.107,-2.108l0,-17.809Z" style="fill:rgb(0,40,52);"/>            </g>            <g transform="matrix(0.503069,0,0,0.503069,898.244,286.061)">                <path d="M1532.02,440.998c0,-1.164 -0.944,-2.108 -2.107,-2.108l-18.405,0c-1.164,0 -2.108,0.944 -2.108,2.108l0,17.809c0,1.163 0.944,2.108 2.108,2.108l18.405,0c1.163,0 2.107,-0.945 2.107,-2.108l0,-17.809Z" style="fill:rgb(0,40,52);"/>            </g>            <g transform="matrix(0.503069,0,0,0.503069,916.617,286.548)">                <path d="M1532.02,440.998c0,-1.164 -0.944,-2.108 -2.107,-2.108l-18.405,0c-1.164,0 -2.108,0.944 -2.108,2.108l0,17.809c0,1.163 0.944,2.108 2.108,2.108l18.405,0c1.163,0 2.107,-0.945 2.107,-2.108l0,-17.809Z" style="fill:rgb(0,40,52);"/>            </g>            <g transform="matrix(0.457506,0,0,0.457506,970.111,172.684)">                <path d="M1532.02,440.998c0,-1.164 -0.944,-2.108 -2.107,-2.108l-18.405,0c-1.164,0 -2.108,0.944 -2.108,2.108l0,17.809c0,1.163 0.944,2.108 2.108,2.108l18.405,0c1.163,0 2.107,-0.945 2.107,-2.108l0,-17.809Z" style="fill:rgb(0,40,52);"/>            </g>            <g transform="matrix(0.457506,0,0,0.457506,940.705,229.137)">                <path d="M1532.02,440.998c0,-1.164 -0.944,-2.108 -2.107,-2.108l-18.405,0c-1.164,0 -2.108,0.944 -2.108,2.108l0,17.809c0,1.163 0.944,2.108 2.108,2.108l18.405,0c1.163,0 2.107,-0.945 2.107,-2.108l0,-17.809Z" style="fill:rgb(0,40,52);"/>            </g>            <g transform="matrix(0.48182,0,0,0.48182,868.933,232.191)">                <path d="M1532.02,440.998c0,-1.164 -0.944,-2.108 -2.107,-2.108l-18.405,0c-1.164,0 -2.108,0.944 -2.108,2.108l0,17.809c0,1.163 0.944,2.108 2.108,2.108l18.405,0c1.163,0 2.107,-0.945 2.107,-2.108l0,-17.809Z" style="fill:rgb(0,40,52);"/>            </g>            <g transform="matrix(0.48182,0,0,0.48182,840.276,103.429)">                <path d="M1532.02,440.998c0,-1.164 -0.944,-2.108 -2.107,-2.108l-18.405,0c-1.164,0 -2.108,0.944 -2.108,2.108l0,17.809c0,1.163 0.944,2.108 2.108,2.108l18.405,0c1.163,0 2.107,-0.945 2.107,-2.108l0,-17.809Z" style="fill:rgb(0,40,52);"/>            </g>            <g transform="matrix(0.528749,0,0,0.528749,833.76,112.615)">                <path d="M1532.02,440.998c0,-1.164 -0.944,-2.108 -2.107,-2.108l-18.405,0c-1.164,0 -2.108,0.944 -2.108,2.108l0,17.809c0,1.163 0.944,2.108 2.108,2.108l18.405,0c1.163,0 2.107,-0.945 2.107,-2.108l0,-17.809Z" style="fill:rgb(0,40,52);"/>            </g>            <g transform="matrix(0.741694,0,0,0.741694,487.501,133.607)">                <path d="M1532.02,440.998c0,-1.164 -0.944,-2.108 -2.107,-2.108l-18.405,0c-1.164,0 -2.108,0.944 -2.108,2.108l0,17.809c0,1.163 0.944,2.108 2.108,2.108l18.405,0c1.163,0 2.107,-0.945 2.107,-2.108l0,-17.809Z" style="fill:rgb(0,40,52);"/>            </g>            <g transform="matrix(0.741694,0,0,0.741694,390.21,90.4521)">                <path d="M1532.02,440.998c0,-1.164 -0.944,-2.108 -2.107,-2.108l-18.405,0c-1.164,0 -2.108,0.944 -2.108,2.108l0,17.809c0,1.163 0.944,2.108 2.108,2.108l18.405,0c1.163,0 2.107,-0.945 2.107,-2.108l0,-17.809Z" style="fill:rgb(0,40,52);"/>            </g>            <g transform="matrix(0.7137,0,0,0.7137,471.369,105.818)">                <path d="M1532.02,440.998c0,-1.164 -0.944,-2.108 -2.107,-2.108l-18.405,0c-1.164,0 -2.108,0.944 -2.108,2.108l0,17.809c0,1.163 0.944,2.108 2.108,2.108l18.405,0c1.163,0 2.107,-0.945 2.107,-2.108l0,-17.809Z" style="fill:rgb(0,40,52);"/>            </g>            <g transform="matrix(0.7137,0,0,0.7137,432.053,2.69956)">                <path d="M1532.02,440.998c0,-1.164 -0.944,-2.108 -2.107,-2.108l-18.405,0c-1.164,0 -2.108,0.944 -2.108,2.108l0,17.809c0,1.163 0.944,2.108 2.108,2.108l18.405,0c1.163,0 2.107,-0.945 2.107,-2.108l0,-17.809Z" style="fill:rgb(0,40,52);"/>            </g>            <g transform="matrix(0.61978,0,0,0.61978,573.828,232.538)">                <path d="M1532.02,440.998c0,-1.164 -0.944,-2.108 -2.107,-2.108l-18.405,0c-1.164,0 -2.108,0.944 -2.108,2.108l0,17.809c0,1.163 0.944,2.108 2.108,2.108l18.405,0c1.163,0 2.107,-0.945 2.107,-2.108l0,-17.809Z" style="fill:rgb(0,40,52);"/>            </g>            <g transform="matrix(0.570551,0,0,0.570551,729.706,147.939)">                <path d="M1532.02,440.998c0,-1.164 -0.944,-2.108 -2.107,-2.108l-18.405,0c-1.164,0 -2.108,0.944 -2.108,2.108l0,17.809c0,1.163 0.944,2.108 2.108,2.108l18.405,0c1.163,0 2.107,-0.945 2.107,-2.108l0,-17.809Z" style="fill:rgb(0,40,52);"/>            </g>            <g transform="matrix(0.570551,0,0,0.570551,800.282,237.63)">                <path d="M1532.02,440.998c0,-1.164 -0.944,-2.108 -2.107,-2.108l-18.405,0c-1.164,0 -2.108,0.944 -2.108,2.108l0,17.809c0,1.163 0.944,2.108 2.108,2.108l18.405,0c1.163,0 2.107,-0.945 2.107,-2.108l0,-17.809Z" style="fill:rgb(0,40,52);"/>            </g>            <g transform="matrix(0.61978,0,0,0.61978,574.226,99.3736)">                <path d="M1532.02,440.998c0,-1.164 -0.944,-2.108 -2.107,-2.108l-18.405,0c-1.164,0 -2.108,0.944 -2.108,2.108l0,17.809c0,1.163 0.944,2.108 2.108,2.108l18.405,0c1.163,0 2.107,-0.945 2.107,-2.108l0,-17.809Z" style="fill:rgb(0,40,52);"/>            </g>            <g transform="matrix(0.913924,0,0,0.913924,192.141,18.9021)">                <path d="M1532.02,440.998c0,-1.164 -0.944,-2.108 -2.107,-2.108l-18.405,0c-1.164,0 -2.108,0.944 -2.108,2.108l0,17.809c0,1.163 0.944,2.108 2.108,2.108l18.405,0c1.163,0 2.107,-0.945 2.107,-2.108l0,-17.809Z" style="fill:rgb(0,40,52);"/>            </g>            <g transform="matrix(0.737983,0,0,0.737983,474.543,-29.3523)">                <path d="M1532.02,440.998c0,-1.164 -0.944,-2.108 -2.107,-2.108l-18.405,0c-1.164,0 -2.108,0.944 -2.108,2.108l0,17.809c0,1.163 0.944,2.108 2.108,2.108l18.405,0c1.163,0 2.107,-0.945 2.107,-2.108l0,-17.809Z" style="fill:rgb(0,40,52);"/>            </g>            <g transform="matrix(0.913924,0,0,0.913924,250.493,96.301)">                <path d="M1532.02,440.998c0,-1.164 -0.944,-2.108 -2.107,-2.108l-18.405,0c-1.164,0 -2.108,0.944 -2.108,2.108l0,17.809c0,1.163 0.944,2.108 2.108,2.108l18.405,0c1.163,0 2.107,-0.945 2.107,-2.108l0,-17.809Z" style="fill:rgb(0,40,52);"/>            </g>            <g transform="matrix(0.842775,0,0,0.842775,273.255,129.33)">                <path d="M1532.02,440.998c0,-1.164 -0.944,-2.108 -2.107,-2.108l-18.405,0c-1.164,0 -2.108,0.944 -2.108,2.108l0,17.809c0,1.163 0.944,2.108 2.108,2.108l18.405,0c1.163,0 2.107,-0.945 2.107,-2.108l0,-17.809Z" style="fill:rgb(0,40,52);"/>            </g>            <g transform="matrix(0.842775,0,0,0.842775,237.152,109.074)">                <path d="M1532.02,440.998c0,-1.164 -0.944,-2.108 -2.107,-2.108l-18.405,0c-1.164,0 -2.108,0.944 -2.108,2.108l0,17.809c0,1.163 0.944,2.108 2.108,2.108l18.405,0c1.163,0 2.107,-0.945 2.107,-2.108l0,-17.809Z" style="fill:rgb(0,40,52);"/>            </g>            <g transform="matrix(0.842775,0,0,0.842775,371.394,-46.7915)">                <path d="M1532.02,440.998c0,-1.164 -0.944,-2.108 -2.107,-2.108l-18.405,0c-1.164,0 -2.108,0.944 -2.108,2.108l0,17.809c0,1.163 0.944,2.108 2.108,2.108l18.405,0c1.163,0 2.107,-0.945 2.107,-2.108l0,-17.809Z" style="fill:rgb(0,40,52);"/>            </g>        </g>        <g id="Grey-Light" transform="matrix(1,0,0,1,0.0769013,-0.357989)">            <g transform="matrix(0.717648,0,0,0.717648,563.079,73.7562)">                <path d="M1532.02,440.998c0,-1.164 -0.944,-2.108 -2.107,-2.108l-18.405,0c-1.164,0 -2.108,0.944 -2.108,2.108l0,17.809c0,1.163 0.944,2.108 2.108,2.108l18.405,0c1.163,0 2.107,-0.945 2.107,-2.108l0,-17.809Z" style="fill:rgb(201,200,205);"/>            </g>            <g transform="matrix(0.373964,0,0,0.373964,1030.31,320.197)">                <path d="M1532.02,440.998c0,-1.164 -0.944,-2.108 -2.107,-2.108l-18.405,0c-1.164,0 -2.108,0.944 -2.108,2.108l0,17.809c0,1.163 0.944,2.108 2.108,2.108l18.405,0c1.163,0 2.107,-0.945 2.107,-2.108l0,-17.809Z" style="fill:rgb(201,200,205);"/>            </g>            <g transform="matrix(0.373964,0,0,0.373964,1098.39,136.68)">                <path d="M1532.02,440.998c0,-1.164 -0.944,-2.108 -2.107,-2.108l-18.405,0c-1.164,0 -2.108,0.944 -2.108,2.108l0,17.809c0,1.163 0.944,2.108 2.108,2.108l18.405,0c1.163,0 2.107,-0.945 2.107,-2.108l0,-17.809Z" style="fill:rgb(201,200,205);"/>            </g>            <g transform="matrix(0.717648,0,0,0.717648,426.857,77.169)">                <path d="M1532.02,440.998c0,-1.164 -0.944,-2.108 -2.107,-2.108l-18.405,0c-1.164,0 -2.108,0.944 -2.108,2.108l0,17.809c0,1.163 0.944,2.108 2.108,2.108l18.405,0c1.163,0 2.107,-0.945 2.107,-2.108l0,-17.809Z" style="fill:rgb(201,200,205);"/>            </g>            <g transform="matrix(0.62605,0,0,0.62605,686.642,30.0056)">                <path d="M1532.02,440.998c0,-1.164 -0.944,-2.108 -2.107,-2.108l-18.405,0c-1.164,0 -2.108,0.944 -2.108,2.108l0,17.809c0,1.163 0.944,2.108 2.108,2.108l18.405,0c1.163,0 2.107,-0.945 2.107,-2.108l0,-17.809Z" style="fill:rgb(201,200,205);"/>            </g>            <g transform="matrix(0.528095,0,0,0.528095,691.717,219.292)">                <path d="M1532.02,440.998c0,-1.164 -0.944,-2.108 -2.107,-2.108l-18.405,0c-1.164,0 -2.108,0.944 -2.108,2.108l0,17.809c0,1.163 0.944,2.108 2.108,2.108l18.405,0c1.163,0 2.107,-0.945 2.107,-2.108l0,-17.809Z" style="fill:rgb(201,200,205);"/>            </g>        </g>        <g id="Grey" transform="matrix(1,0,0,1,0.0888343,-0.0941378)">            <g transform="matrix(0.739723,0,0,0.739723,446.743,-31.0241)">                <path d="M1532.02,440.998c0,-1.164 -0.944,-2.108 -2.107,-2.108l-18.405,0c-1.164,0 -2.108,0.944 -2.108,2.108l0,17.809c0,1.163 0.944,2.108 2.108,2.108l18.405,0c1.163,0 2.107,-0.945 2.107,-2.108l0,-17.809Z" style="fill:rgb(156,157,159);"/>            </g>            <g transform="matrix(0.739723,0,0,0.739723,529.534,63.3536)">                <path d="M1532.02,440.998c0,-1.164 -0.944,-2.108 -2.107,-2.108l-18.405,0c-1.164,0 -2.108,0.944 -2.108,2.108l0,17.809c0,1.163 0.944,2.108 2.108,2.108l18.405,0c1.163,0 2.107,-0.945 2.107,-2.108l0,-17.809Z" style="fill:rgb(156,157,159);"/>            </g>            <g transform="matrix(0.570754,0,0,0.570754,743.823,64.032)">                <path d="M1532.02,440.998c0,-1.164 -0.944,-2.108 -2.107,-2.108l-18.405,0c-1.164,0 -2.108,0.944 -2.108,2.108l0,17.809c0,1.163 0.944,2.108 2.108,2.108l18.405,0c1.163,0 2.107,-0.945 2.107,-2.108l0,-17.809Z" style="fill:rgb(156,157,159);"/>            </g>            <g transform="matrix(0.376171,0,0,0.376171,914.232,157.911)">                <path d="M1532.02,440.998c0,-1.164 -0.944,-2.108 -2.107,-2.108l-18.405,0c-1.164,0 -2.108,0.944 -2.108,2.108l0,17.809c0,1.163 0.944,2.108 2.108,2.108l18.405,0c1.163,0 2.107,-0.945 2.107,-2.108l0,-17.809Z" style="fill:rgb(156,157,159);"/>            </g>            <g transform="matrix(0.376171,0,0,0.376171,1023.91,189.607)">                <path d="M1532.02,440.998c0,-1.164 -0.944,-2.108 -2.107,-2.108l-18.405,0c-1.164,0 -2.108,0.944 -2.108,2.108l0,17.809c0,1.163 0.944,2.108 2.108,2.108l18.405,0c1.163,0 2.107,-0.945 2.107,-2.108l0,-17.809Z" style="fill:rgb(156,157,159);"/>            </g>            <g transform="matrix(0.441768,0,0,0.441768,943.322,193.608)">                <path d="M1532.02,440.998c0,-1.164 -0.944,-2.108 -2.107,-2.108l-18.405,0c-1.164,0 -2.108,0.944 -2.108,2.108l0,17.809c0,1.163 0.944,2.108 2.108,2.108l18.405,0c1.163,0 2.107,-0.945 2.107,-2.108l0,-17.809Z" style="fill:rgb(156,157,159);"/>            </g>            <g transform="matrix(0.441768,0,0,0.441768,930.713,223.761)">                <path d="M1532.02,440.998c0,-1.164 -0.944,-2.108 -2.107,-2.108l-18.405,0c-1.164,0 -2.108,0.944 -2.108,2.108l0,17.809c0,1.163 0.944,2.108 2.108,2.108l18.405,0c1.163,0 2.107,-0.945 2.107,-2.108l0,-17.809Z" style="fill:rgb(156,157,159);"/>            </g>            <g transform="matrix(0.489701,0,0,0.489701,814.421,131.337)">                <path d="M1532.02,440.998c0,-1.164 -0.944,-2.108 -2.107,-2.108l-18.405,0c-1.164,0 -2.108,0.944 -2.108,2.108l0,17.809c0,1.163 0.944,2.108 2.108,2.108l18.405,0c1.163,0 2.107,-0.945 2.107,-2.108l0,-17.809Z" style="fill:rgb(156,157,159);"/>            </g>        </g>        <g id="Green" transform="matrix(1,0,0,1,-0.205512,-0.731888)">            <g transform="matrix(0.489701,0,0,0.489701,797.525,130.901)">                <path d="M1532.02,440.998c0,-1.164 -0.944,-2.108 -2.107,-2.108l-18.405,0c-1.164,0 -2.108,0.944 -2.108,2.108l0,17.809c0,1.163 0.944,2.108 2.108,2.108l18.405,0c1.163,0 2.107,-0.945 2.107,-2.108l0,-17.809Z" style="fill:rgb(0,172,182);"/>            </g>            <g transform="matrix(0.489701,0,0,0.489701,874.787,82.46)">                <path d="M1532.02,440.998c0,-1.164 -0.944,-2.108 -2.107,-2.108l-18.405,0c-1.164,0 -2.108,0.944 -2.108,2.108l0,17.809c0,1.163 0.944,2.108 2.108,2.108l18.405,0c1.163,0 2.107,-0.945 2.107,-2.108l0,-17.809Z" style="fill:rgb(0,172,182);"/>            </g>            <g transform="matrix(0.489701,0,0,0.489701,856.767,116.362)">                <path d="M1532.02,440.998c0,-1.164 -0.944,-2.108 -2.107,-2.108l-18.405,0c-1.164,0 -2.108,0.944 -2.108,2.108l0,17.809c0,1.163 0.944,2.108 2.108,2.108l18.405,0c1.163,0 2.107,-0.945 2.107,-2.108l0,-17.809Z" style="fill:rgb(0,172,182);"/>            </g>            <g transform="matrix(0.489701,0,0,0.489701,904.397,154.41)">                <path d="M1532.02,440.998c0,-1.164 -0.944,-2.108 -2.107,-2.108l-18.405,0c-1.164,0 -2.108,0.944 -2.108,2.108l0,17.809c0,1.163 0.944,2.108 2.108,2.108l18.405,0c1.163,0 2.107,-0.945 2.107,-2.108l0,-17.809Z" style="fill:rgb(0,172,182);"/>            </g>            <g transform="matrix(0.489701,0,0,0.489701,914.821,255.996)">                <path d="M1532.02,440.998c0,-1.164 -0.944,-2.108 -2.107,-2.108l-18.405,0c-1.164,0 -2.108,0.944 -2.108,2.108l0,17.809c0,1.163 0.944,2.108 2.108,2.108l18.405,0c1.163,0 2.107,-0.945 2.107,-2.108l0,-17.809Z" style="fill:rgb(0,172,182);"/>            </g>            <g transform="matrix(0.489701,0,0,0.489701,874.352,220.691)">                <path d="M1532.02,440.998c0,-1.164 -0.944,-2.108 -2.107,-2.108l-18.405,0c-1.164,0 -2.108,0.944 -2.108,2.108l0,17.809c0,1.163 0.944,2.108 2.108,2.108l18.405,0c1.163,0 2.107,-0.945 2.107,-2.108l0,-17.809Z" style="fill:rgb(0,172,182);"/>            </g>            <g transform="matrix(0.489701,0,0,0.489701,792.166,208.351)">                <path d="M1532.02,440.998c0,-1.164 -0.944,-2.108 -2.107,-2.108l-18.405,0c-1.164,0 -2.108,0.944 -2.108,2.108l0,17.809c0,1.163 0.944,2.108 2.108,2.108l18.405,0c1.163,0 2.107,-0.945 2.107,-2.108l0,-17.809Z" style="fill:rgb(0,172,182);"/>            </g>            <g transform="matrix(0.489701,0,0,0.489701,794.954,268.385)">                <path d="M1532.02,440.998c0,-1.164 -0.944,-2.108 -2.107,-2.108l-18.405,0c-1.164,0 -2.108,0.944 -2.108,2.108l0,17.809c0,1.163 0.944,2.108 2.108,2.108l18.405,0c1.163,0 2.107,-0.945 2.107,-2.108l0,-17.809Z" style="fill:rgb(0,172,182);"/>            </g>            <g transform="matrix(0.728275,0,0,0.728275,448.429,121.737)">                <path d="M1532.02,440.998c0,-1.164 -0.944,-2.108 -2.107,-2.108l-18.405,0c-1.164,0 -2.108,0.944 -2.108,2.108l0,17.809c0,1.163 0.944,2.108 2.108,2.108l18.405,0c1.163,0 2.107,-0.945 2.107,-2.108l0,-17.809Z" style="fill:rgb(0,172,182);"/>            </g>            <g transform="matrix(0.728275,0,0,0.728275,448.429,60.1243)">                <path d="M1532.02,440.998c0,-1.164 -0.944,-2.108 -2.107,-2.108l-18.405,0c-1.164,0 -2.108,0.944 -2.108,2.108l0,17.809c0,1.163 0.944,2.108 2.108,2.108l18.405,0c1.163,0 2.107,-0.945 2.107,-2.108l0,-17.809Z" style="fill:rgb(0,172,182);"/>            </g>            <g transform="matrix(0.728275,0,0,0.728275,410.757,-24.849)">                <path d="M1532.02,440.998c0,-1.164 -0.944,-2.108 -2.107,-2.108l-18.405,0c-1.164,0 -2.108,0.944 -2.108,2.108l0,17.809c0,1.163 0.944,2.108 2.108,2.108l18.405,0c1.163,0 2.107,-0.945 2.107,-2.108l0,-17.809Z" style="fill:rgb(0,172,182);"/>            </g>        </g>    </g></svg>