<?xml version="1.0" encoding="UTF-8" standalone="no"?><!DOCTYPE svg PUBLIC "-//W3C//DTD SVG 1.1//EN" "http://www.w3.org/Graphics/SVG/1.1/DTD/svg11.dtd"><svg width="100%" height="100%" viewBox="0 0 512 512" version="1.1" xmlns="http://www.w3.org/2000/svg" xmlns:xlink="http://www.w3.org/1999/xlink" xml:space="preserve" style="fill-rule:evenodd;clip-rule:evenodd;stroke-linejoin:round;stroke-miterlimit:2;"><title>Brickowner</title><desc>Brickowner is a property investment crowdfunding platform that allows individuals to choose and invest into property using the Brickowner online platform. Whilst invested in the property users will benefit from any income and capital growth generated by the property during the investment period.</desc>    <g transform="matrix(7.61194,0,0,7.61194,-25.0893,-59.8955)">        <path d="M25,25.721l-5.625,0l-13.375,13.279l19,0l0,-13.279Z" style="fill:rgb(255,130,1);"/>        <path d="M54.357,25.721l-23.357,0l0,13.279l38,0l-14.643,-13.279Z" style="fill:rgb(66,177,41);"/>        <g transform="matrix(1,0,0,1,-55,-5)">            <path d="M105.419,26l-26.419,0l13,-13l13.419,13Z" style="fill:rgb(190,106,193);"/>        </g>        <g transform="matrix(0.607783,0,0,0.40625,1.77266,26.125)">            <rect x="6" y="44" width="63" height="32" style="fill:rgb(240,51,65);"/>        </g>        <g transform="matrix(0.607783,0,0,0.40625,27.063,44.125)">            <rect x="6" y="44" width="63" height="32" style="fill:rgb(255,205,1);"/>        </g>        <g transform="matrix(0.337942,0,0,0.40625,45.682,26.125)">            <rect x="6" y="44" width="63" height="32" style="fill:rgb(0,145,216);"/>        </g>        <g transform="matrix(0.337942,0,0,0.40625,2.82719,44.125)">            <rect x="6" y="44" width="63" height="32" style="fill:rgb(221,170,191);"/>        </g>    </g></svg>