<?xml version="1.0" encoding="UTF-8" standalone="no"?><!DOCTYPE svg PUBLIC "-//W3C//DTD SVG 1.1//EN" "http://www.w3.org/Graphics/SVG/1.1/DTD/svg11.dtd"><svg width="100%" height="100%" viewBox="0 0 512 512" version="1.1" xmlns="http://www.w3.org/2000/svg" xmlns:xlink="http://www.w3.org/1999/xlink" xml:space="preserve" style="fill-rule:evenodd;clip-rule:evenodd;stroke-linejoin:round;stroke-miterlimit:2;"><title>Workinvoice</title><desc>Workinvoice is the first Italian platform via the web that allows SMEs to sell their invoices issued to large companies in a more flexible way than using traditional channels (factoring and banks), all thanks to a public auction mechanism involving institutional and professional investors.</desc>    <g transform="matrix(5.34528,0,0,5.34528,-1773.3,-1112.39)">        <g transform="matrix(2.62308,0,0,2.62308,-1738.4,60.1026)">            <path d="M805.234,85.964c0.071,0.203 0.14,0.352 0.202,0.443c0.066,0.093 0.147,0.137 0.247,0.137c0.078,0 0.146,-0.022 0.206,-0.072c0.059,-0.053 0.121,-0.137 0.187,-0.262c0.065,-0.122 0.146,-0.293 0.243,-0.509c0.097,-0.212 0.222,-0.498 0.375,-0.854c0.149,-0.356 0.314,-0.758 0.499,-1.208c0.18,-0.445 0.371,-0.91 0.567,-1.397c0.194,-0.484 0.384,-0.961 0.571,-1.429c0.187,-0.468 0.362,-0.901 0.521,-1.301c0.156,-0.399 0.293,-0.736 0.403,-1.013c0.109,-0.275 0.187,-0.465 0.227,-0.565l0.038,0l3.35,7.842c0.115,0.287 0.215,0.487 0.296,0.602c0.082,0.116 0.178,0.169 0.284,0.166c0.116,0.003 0.212,-0.05 0.284,-0.166c0.072,-0.112 0.153,-0.305 0.241,-0.583c0.136,-0.399 0.293,-0.861 0.467,-1.385c0.175,-0.524 0.365,-1.079 0.565,-1.672c0.2,-0.593 0.402,-1.192 0.611,-1.8c0.206,-0.608 0.409,-1.198 0.606,-1.769c0.199,-0.571 0.383,-1.098 0.555,-1.578c0.171,-0.481 0.324,-0.893 0.452,-1.23c0.11,-0.305 0.212,-0.576 0.3,-0.807c0.09,-0.231 0.184,-0.418 0.28,-0.565c0.097,-0.143 0.21,-0.243 0.337,-0.293c0.097,-0.028 0.197,-0.047 0.297,-0.06c0.103,-0.012 0.199,-0.015 0.284,-0.015c0.075,0 0.131,-0.019 0.168,-0.053c0.038,-0.032 0.056,-0.078 0.056,-0.134c0,-0.047 -0.028,-0.081 -0.078,-0.1c-0.053,-0.022 -0.128,-0.031 -0.221,-0.031c-0.184,0 -0.375,0.003 -0.571,0.009c-0.193,0.006 -0.365,0.013 -0.512,0.019c-0.146,0.006 -0.24,0.009 -0.284,0.009c-0.053,0 -0.162,-0.003 -0.33,-0.009c-0.169,-0.006 -0.374,-0.013 -0.621,-0.019c-0.25,-0.006 -0.518,-0.009 -0.808,-0.009c-0.131,0 -0.228,0.009 -0.293,0.031c-0.066,0.025 -0.1,0.062 -0.1,0.118c0.003,0.047 0.031,0.088 0.084,0.119c0.053,0.031 0.119,0.047 0.197,0.05c0.215,0 0.384,0.019 0.499,0.056c0.118,0.041 0.199,0.094 0.243,0.159c0.044,0.069 0.066,0.147 0.063,0.234c0,0.112 -0.013,0.246 -0.041,0.403c-0.028,0.155 -0.072,0.327 -0.128,0.514c-0.097,0.312 -0.209,0.677 -0.337,1.095c-0.128,0.418 -0.265,0.861 -0.409,1.329c-0.143,0.471 -0.283,0.939 -0.427,1.407c-0.143,0.471 -0.281,0.914 -0.408,1.332c-0.128,0.415 -0.244,0.78 -0.341,1.095c-0.099,0.312 -0.174,0.549 -0.23,0.705l-0.056,0l-3.295,-7.861c-0.1,-0.253 -0.193,-0.44 -0.277,-0.565c-0.085,-0.121 -0.175,-0.184 -0.266,-0.184c-0.074,-0.003 -0.152,0.038 -0.237,0.122c-0.081,0.084 -0.165,0.237 -0.249,0.458l-3.145,8.136l-0.056,0c-0.034,-0.106 -0.094,-0.287 -0.175,-0.54c-0.078,-0.252 -0.174,-0.552 -0.284,-0.904c-0.109,-0.35 -0.224,-0.727 -0.349,-1.129c-0.125,-0.403 -0.25,-0.808 -0.377,-1.217c-0.125,-0.409 -0.244,-0.799 -0.356,-1.17c-0.112,-0.368 -0.209,-0.695 -0.293,-0.98c-0.085,-0.283 -0.147,-0.505 -0.188,-0.658c-0.106,-0.368 -0.19,-0.677 -0.255,-0.926c-0.066,-0.253 -0.097,-0.431 -0.1,-0.537c-0.003,-0.084 0.006,-0.149 0.028,-0.199c0.022,-0.053 0.069,-0.091 0.14,-0.119c0.066,-0.019 0.135,-0.034 0.206,-0.044c0.072,-0.009 0.14,-0.012 0.206,-0.012c0.087,0 0.156,-0.016 0.212,-0.044c0.056,-0.028 0.084,-0.068 0.088,-0.125c0,-0.056 -0.029,-0.093 -0.088,-0.118c-0.056,-0.022 -0.146,-0.031 -0.268,-0.031c-0.322,0 -0.618,0.003 -0.886,0.009c-0.268,0.006 -0.493,0.013 -0.674,0.019c-0.181,0.006 -0.296,0.009 -0.349,0.009c-0.041,0 -0.122,-0.003 -0.244,-0.006c-0.121,-0.003 -0.271,-0.006 -0.452,-0.013c-0.177,-0.006 -0.371,-0.009 -0.58,-0.012c-0.209,-0.003 -0.421,-0.006 -0.633,-0.006c-0.122,0 -0.216,0.009 -0.278,0.031c-0.065,0.025 -0.097,0.062 -0.097,0.118c0,0.057 0.022,0.097 0.069,0.125c0.044,0.028 0.109,0.044 0.194,0.044c0.052,0 0.115,0.003 0.193,0.009c0.078,0.006 0.156,0.019 0.237,0.038c0.078,0.019 0.146,0.046 0.206,0.084c0.119,0.075 0.218,0.206 0.305,0.39c0.085,0.184 0.175,0.424 0.275,0.714l3.482,10.108Z" style="fill:rgb(23,90,148);"/>        </g>        <g transform="matrix(2.62308,0,0,2.62308,-1847.48,59.9547)">            <path d="M863.192,81.771c0,0.515 0,0.992 -0.004,1.435c-0.003,0.443 -0.009,0.836 -0.019,1.179c-0.009,0.347 -0.027,0.628 -0.052,0.849c-0.025,0.231 -0.069,0.408 -0.137,0.53c-0.069,0.122 -0.185,0.203 -0.35,0.237c-0.075,0.019 -0.159,0.034 -0.256,0.044c-0.093,0.009 -0.202,0.013 -0.324,0.013c-0.1,0.002 -0.172,0.021 -0.209,0.056c-0.038,0.034 -0.056,0.072 -0.053,0.112c0,0.056 0.028,0.097 0.081,0.125c0.056,0.028 0.134,0.043 0.237,0.043c0.168,0 0.352,-0.003 0.561,-0.009c0.206,-0.006 0.412,-0.013 0.621,-0.019c0.206,-0.006 0.397,-0.012 0.568,-0.019c0.172,-0.006 0.306,-0.009 0.402,-0.009c0.153,0 0.372,0.007 0.649,0.016c0.278,0.009 0.59,0.016 0.936,0.025c0.35,0.009 0.708,0.015 1.073,0.015c0.097,0 0.172,-0.015 0.228,-0.043c0.059,-0.028 0.087,-0.069 0.09,-0.125c0,-0.04 -0.018,-0.078 -0.062,-0.112c-0.041,-0.035 -0.106,-0.054 -0.199,-0.056c-0.085,0 -0.175,-0.004 -0.278,-0.007c-0.1,-0.003 -0.2,-0.009 -0.3,-0.018c-0.099,-0.01 -0.187,-0.019 -0.265,-0.032c-0.159,-0.025 -0.284,-0.068 -0.374,-0.131c-0.088,-0.062 -0.153,-0.146 -0.193,-0.249c-0.041,-0.103 -0.072,-0.225 -0.088,-0.368c-0.025,-0.228 -0.041,-0.515 -0.053,-0.861c-0.009,-0.347 -0.016,-0.743 -0.019,-1.186c-0.003,-0.443 -0.003,-0.92 -0.003,-1.435l0,-4.037c0,-0.339 0,-0.624 0.003,-0.854c0,-0.231 0.003,-0.425 0.006,-0.577c0,-0.153 0.007,-0.287 0.01,-0.397c0.006,-0.109 0.012,-0.215 0.019,-0.312c0.012,-0.277 0.065,-0.48 0.153,-0.614c0.09,-0.131 0.243,-0.212 0.464,-0.247c0.091,-0.018 0.175,-0.034 0.25,-0.043c0.075,-0.01 0.156,-0.013 0.237,-0.013c0.084,0 0.15,-0.012 0.193,-0.037c0.047,-0.028 0.069,-0.078 0.069,-0.15c0,-0.047 -0.031,-0.081 -0.09,-0.1c-0.06,-0.022 -0.144,-0.031 -0.247,-0.031c-0.162,0 -0.343,0.003 -0.54,0.006c-0.199,0.003 -0.399,0.007 -0.602,0.013c-0.203,0.006 -0.387,0.009 -0.558,0.012c-0.172,0.003 -0.309,0.006 -0.415,0.006c-0.118,0 -0.271,-0.003 -0.455,-0.006c-0.184,-0.003 -0.381,-0.006 -0.593,-0.012c-0.212,-0.006 -0.418,-0.01 -0.621,-0.013c-0.203,-0.003 -0.381,-0.006 -0.54,-0.006c-0.131,0 -0.227,0.009 -0.293,0.031c-0.065,0.019 -0.1,0.053 -0.1,0.1c0,0.072 0.022,0.122 0.069,0.15c0.044,0.025 0.109,0.037 0.193,0.037c0.103,0 0.206,0.003 0.306,0.016c0.103,0.012 0.2,0.031 0.293,0.059c0.119,0.034 0.219,0.084 0.297,0.147c0.078,0.062 0.14,0.15 0.18,0.262c0.044,0.109 0.072,0.253 0.085,0.433c0.003,0.097 0.006,0.203 0.009,0.312c0.003,0.11 0.003,0.244 0.006,0.397c0,0.152 0.004,0.346 0.004,0.577l0,4.891Z" style="fill:rgb(134,181,71);"/>        </g>        <g transform="matrix(2,0,0,2,-1239.76,105.433)">            <path d="M785.85,72.726c1.271,-0.606 2.542,-1.212 3.813,-1.818c5.162,6.16 7.439,11.15 8.778,15.76c-3.097,-5.645 -7.219,-10.36 -12.591,-13.942" style="fill:rgb(134,181,71);"/>        </g>        <g transform="matrix(2,0,0,2,-1239.76,91.4137)">            <path d="M813.984,59.863c-7.706,6.021 -16.331,10.527 -25.702,13.801c9.143,10.478 13.101,20.82 13.212,31.06c1.528,-11.392 -1.755,-22.333 -8.018,-29.662c6.795,-2.704 13.658,-6.422 19.627,-10.646c2.105,2.021 4.138,5.835 6.228,12.568c-0.56,-6.852 -2.271,-11.543 -5.347,-17.121" style="fill:rgb(23,90,148);"/>        </g>        <g transform="matrix(2,0,0,2,-1239.76,125.276)">            <path d="M785.887,68.272c0.763,-0.548 1.525,-1.095 2.288,-1.642c5.249,4.59 8.596,9.409 10.552,14.395c-3.053,-4.68 -6.961,-9.061 -12.84,-12.753" style="fill:rgb(134,181,71);"/>        </g>    </g></svg>