<?xml version="1.0" encoding="UTF-8" standalone="no"?><!DOCTYPE svg PUBLIC "-//W3C//DTD SVG 1.1//EN" "http://www.w3.org/Graphics/SVG/1.1/DTD/svg11.dtd"><svg width="100%" height="100%" viewBox="0 0 512 512" version="1.1" xmlns="http://www.w3.org/2000/svg" xmlns:xlink="http://www.w3.org/1999/xlink" xml:space="preserve" style="fill-rule:evenodd;clip-rule:evenodd;stroke-linejoin:round;stroke-miterlimit:2;"><title>JUMO</title><desc>JUMO is a full technology stack for building and running financial services.We use advanced data science and machine learning to create the fastest and leanest financial services infrastructure.</desc>    <g transform="matrix(1.51333,0,0,1.51333,-1090.03,-133.113)">        <g transform="matrix(7.48899,0,0,7.48899,-269.85,-176.489)">            <path d="M154.8,35.4c-9.8,0 -17.7,7.9 -17.7,17.7c0,9.8 7.9,17.7 17.7,17.7c9.8,0 17.7,-7.9 17.7,-17.7c0,-9.7 -8,-17.7 -17.7,-17.7m0,29c-6.2,0 -11.2,-5 -11.2,-11.2c0,-6.2 5,-11.2 11.2,-11.2c6.2,0 11.2,5 11.2,11.2c0,6.1 -5,11.2 -11.2,11.2" style="fill:rgb(255,230,0);fill-rule:nonzero;"/>        </g>        <g transform="matrix(7.48899,0,0,7.48899,-269.85,-176.489)">            <path d="M167.8,75.5c0,-1.7 -1.4,-3.1 -3.1,-3.1c-0.4,0 -0.7,0.1 -1.1,0.2c-0.2,0.1 -0.4,0.2 -0.6,0.2c-2.6,0.9 -5.3,1.5 -8.2,1.5c-2.8,0 -5.5,-0.5 -8,-1.4c-0.3,-0.1 -0.5,-0.2 -0.8,-0.3c-0.4,-0.1 -0.7,-0.2 -1.1,-0.2c-1.7,0 -3.1,1.4 -3.1,3.1c0,1.3 0.8,2.4 1.9,2.8l0.1,0c0.3,0.1 0.5,0.2 0.8,0.3c3.2,1.2 6.6,1.8 10.2,1.8c3.6,0 7,-0.6 10.2,-1.8c0.3,-0.1 0.6,-0.2 0.9,-0.3c1.1,-0.4 1.9,-1.5 1.9,-2.8" style="fill-rule:nonzero;"/>        </g>    </g></svg>