<?xml version="1.0" encoding="UTF-8" standalone="no"?><!DOCTYPE svg PUBLIC "-//W3C//DTD SVG 1.1//EN" "http://www.w3.org/Graphics/SVG/1.1/DTD/svg11.dtd"><svg width="100%" height="100%" viewBox="0 0 512 512" version="1.1" xmlns="http://www.w3.org/2000/svg" xmlns:xlink="http://www.w3.org/1999/xlink" xml:space="preserve" style="fill-rule:evenodd;clip-rule:evenodd;stroke-linejoin:round;stroke-miterlimit:2;"><title>ViaConto SE</title><desc></desc>    <g transform="matrix(3.20288,0,0,3.20288,27.1799,0.730523)">        <path d="M70.1,64.5l-20.6,39.7l-0.5,0l-21.4,-39.7l10.3,0l11.7,24.6l10.8,-24.6l9.7,0Z" style="fill:rgb(0,58,81);fill-rule:nonzero;"/>        <path d="M80.4,47.2c1.1,-0.9 2.3,-1.4 3.6,-1.4c1.4,0 2.6,0.5 3.6,1.4c1,0.9 1.5,2.1 1.5,3.4c0,1.4 -0.5,2.5 -1.5,3.5c-1,0.9 -2.2,1.4 -3.6,1.4c-1.4,0 -2.6,-0.5 -3.6,-1.4c-1.1,-0.9 -1.6,-2.1 -1.6,-3.5c0,-1.4 0.5,-2.5 1.6,-3.4Zm7.7,17.3l0,38.6l-8.7,0l0,-38.6l8.7,0Z" style="fill:rgb(0,58,81);fill-rule:nonzero;"/>        <path d="M142.8,64.5l0,38.6l-8.7,0l0,-6.3c-1.4,1.8 -3.4,3.5 -6,5c-2.6,1.5 -5.6,2.3 -8.9,2.3c-3.7,0 -7,-0.8 -9.9,-2.4c-3,-1.6 -5.3,-3.9 -7,-6.9c-1.7,-3 -2.6,-6.7 -2.6,-10.9c0,-4.2 0.9,-7.9 2.7,-11c1.8,-3.1 4.2,-5.6 7.2,-7.3c3,-1.7 6.4,-2.6 10,-2.6c3.3,0 6.2,0.7 8.6,2.1c2.4,1.4 4.4,3.3 5.9,5.6l0.7,-6.2l8,0Zm-13,29.7c2.3,-1.8 3.7,-4.2 4.3,-7.2l0,-7.6c-0.7,-2.7 -2.3,-5 -4.7,-6.7c-2.4,-1.7 -5.1,-2.6 -8.1,-2.6c-2.3,0 -4.4,0.6 -6.4,1.7c-2,1.1 -3.5,2.7 -4.7,4.7c-1.2,2 -1.7,4.3 -1.7,6.9c0,2.5 0.6,4.8 1.8,6.8c1.2,2.1 2.8,3.7 4.8,4.9c2,1.2 4.2,1.8 6.5,1.8c3.2,0 6,-0.9 8.2,-2.7Z" style="fill:rgb(0,58,81);fill-rule:nonzero;"/>        <path d="M136.652,124.632c-12.497,15.836 -31.481,26.428 -53.137,27.573c-40.075,2.194 -74.226,-28.624 -76.42,-68.597c-2.194,-39.973 28.624,-74.219 68.597,-76.413c24.325,-1.336 46.551,9.541 60.669,27.284c1.203,1.512 3.407,1.763 4.918,0.56c1.512,-1.203 1.763,-3.407 0.56,-4.918c-15.482,-19.457 -39.856,-31.38 -66.531,-29.916c-43.827,2.406 -77.609,39.96 -75.203,83.787c2.406,43.827 39.855,77.609 83.786,75.203c23.738,-1.255 44.554,-12.863 58.257,-30.227c1.196,-1.516 0.937,-3.719 -0.58,-4.916c-1.516,-1.196 -3.719,-0.937 -4.916,0.58Z" style="fill:url(#_Linear1);"/>    </g>    <defs>        <linearGradient id="_Linear1" x1="0" y1="0" x2="1" y2="0" gradientUnits="userSpaceOnUse" gradientTransform="matrix(142.909,0,0,142.909,0,79.627)"><stop offset="0" style="stop-color:rgb(206,76,113);stop-opacity:1"/><stop offset="1" style="stop-color:rgb(1,58,81);stop-opacity:1"/></linearGradient>    </defs></svg>