<?xml version="1.0" encoding="UTF-8" standalone="no"?><!DOCTYPE svg PUBLIC "-//W3C//DTD SVG 1.1//EN" "http://www.w3.org/Graphics/SVG/1.1/DTD/svg11.dtd"><svg width="100%" height="100%" viewBox="0 0 512 512" version="1.1" xmlns="http://www.w3.org/2000/svg" xmlns:xlink="http://www.w3.org/1999/xlink" xml:space="preserve" style="fill-rule:evenodd;clip-rule:evenodd;stroke-linejoin:round;stroke-miterlimit:2;"><title>VR-Crowd</title><desc></desc>    <g id="_1877683523488" transform="matrix(14.747,0,0,14.747,-4593.49,-441.528)">        <path d="M311.553,58.971l34.583,0l0,-23.343l-34.583,0l0,23.343Z" style="fill:rgb(254,254,254);"/>        <path d="M346.136,58.971l0,-4.106l-13.182,0c-0.359,1.884 -0.664,3.485 -0.782,4.106l13.964,0Z" style="fill:rgb(236,105,31);"/>        <path d="M311.553,54.865l0,4.106l13.865,0l-0.925,-4.106l-12.94,0Z" style="fill:rgb(236,105,31);"/>        <path d="M318.366,45.19l-1.009,-4.248l8.61,0l2.788,12.193l0.119,0l1.757,-7.811c0.886,-3.546 1.219,-4.382 6.207,-4.382l3.588,0c0,0 -0.725,3.269 -1.626,6.817c-0.344,1.353 -3.34,1.192 -3.19,-0.071c0.016,-0.131 0.158,-1.083 0.27,-1.76c0.163,-0.974 -0.973,-1.095 -1.177,-0.132c-0.146,0.69 -0.804,4.117 -1.419,7.339l12.853,0l0,-17.507l-34.583,0l0,17.507l12.55,0l-1.788,-7.94l-3.95,-0.006l0,0.001Z" style="fill:rgb(0,96,170);"/>    </g></svg>