<?xml version="1.0" encoding="UTF-8" standalone="no"?><!DOCTYPE svg PUBLIC "-//W3C//DTD SVG 1.1//EN" "http://www.w3.org/Graphics/SVG/1.1/DTD/svg11.dtd"><svg width="100%" height="100%" viewBox="0 0 512 512" version="1.1" xmlns="http://www.w3.org/2000/svg" xmlns:xlink="http://www.w3.org/1999/xlink" xml:space="preserve" style="fill-rule:evenodd;clip-rule:evenodd;stroke-linejoin:round;stroke-miterlimit:2;"><title>Finexkap</title><desc></desc>    <g transform="matrix(2.08982,0,0,2.08982,-278.994,-6.84558)">        <g transform="matrix(2.06889,0,0,2.06889,-274.694,1.02244)">            <path d="M265.93,103.89l-20.6,-20.58l-25.23,0.11l-18.84,18.76c-1.691,1.688 -2.642,3.981 -2.642,6.37c0,2.389 0.951,4.682 2.642,6.37c3.636,3.479 9.444,3.479 13.08,0l18.28,-19l20.44,20.66c1.722,1.726 4.062,2.698 6.5,2.698c2.438,0 4.778,-0.972 6.5,-2.698c3.472,-3.369 3.558,-8.997 0.19,-12.47l-0.32,-0.22Z" style="fill:rgb(78,229,136);fill-rule:nonzero;"/>        </g>        <g transform="matrix(2.06889,0,0,2.06889,-274.694,1.02244)">            <path d="M230,93.34c0.714,0.59 1.596,0.94 2.52,1c0.984,-0.11 1.936,-0.416 2.8,-0.9l10.16,-10.16l66.26,-66.28c0.18,-0.167 0.353,-0.34 0.52,-0.52c1.542,-1.668 2.4,-3.858 2.4,-6.13c0,-4.953 -4.077,-9.03 -9.03,-9.03c-2.516,0 -4.922,1.052 -6.63,2.9l-66.27,66.33l-19,-19c-1.687,-1.687 -3.979,-2.636 -6.365,-2.636c-4.938,0 -9.001,4.063 -9.001,9.001c0,2.386 0.949,4.678 2.636,6.365l19.1,19.29l9.9,9.77Z" style="fill:rgb(78,229,136);fill-rule:nonzero;"/>        </g>        <g transform="matrix(2.06889,0,0,2.06889,-274.694,1.02244)">            <path d="M245.47,83.32l66.27,-66.32c0.18,-0.167 0.353,-0.34 0.52,-0.52c1.542,-1.668 2.4,-3.858 2.4,-6.13c0,-4.953 -4.077,-9.03 -9.03,-9.03c-2.516,0 -4.922,1.052 -6.63,2.9l-66.27,66.33l-0.22,23.83c0.996,-0.052 1.961,-0.362 2.8,-0.9c0.51,-0.37 10.16,-10.16 10.16,-10.16" style="fill:url(#_Linear1);fill-rule:nonzero;"/>        </g>    </g>    <defs>        <linearGradient id="_Linear1" x1="0" y1="0" x2="1" y2="0" gradientUnits="userSpaceOnUse" gradientTransform="matrix(82.15,0,0,82.15,232.5,47.85)"><stop offset="0" style="stop-color:rgb(69,196,115);stop-opacity:1"/><stop offset="0.4" style="stop-color:rgb(78,229,136);stop-opacity:1"/><stop offset="0.42" style="stop-color:rgb(78,229,136);stop-opacity:1"/><stop offset="1" style="stop-color:rgb(78,229,136);stop-opacity:1"/></linearGradient>    </defs></svg>