<?xml version="1.0" encoding="UTF-8" standalone="no"?><!DOCTYPE svg PUBLIC "-//W3C//DTD SVG 1.1//EN" "http://www.w3.org/Graphics/SVG/1.1/DTD/svg11.dtd"><svg width="100%" height="100%" viewBox="0 0 512 512" version="1.1" xmlns="http://www.w3.org/2000/svg" xmlns:xlink="http://www.w3.org/1999/xlink" xml:space="preserve" style="fill-rule:evenodd;clip-rule:evenodd;stroke-linejoin:round;stroke-miterlimit:2;"><title>Kreddy</title><desc>Kreddy.mk is a non-bank lender that specializes in short term installment consumer loan underwriting in North Macedonia. Launched in 2018, as a part of Digital Finance International, Kreddy has supplied over half million EUR worth of loans. Kreddy.mk provides tailored lending installment products via smart fintech technology to serve remote markets with mobile connectivity for fast and easy access to money.</desc>    <g transform="matrix(2.63706,0,0,2.63706,-4.27412,-452.092)">        <g transform="matrix(0.680128,0,0,0.682734,-32.1991,97.1402)">            <path d="M179.4,294.7c-1.2,-0.7 -17.3,-19.2 -35.8,-41.2c-28.5,-33.9 -33.6,-40.5 -33.6,-43.2c0,-2.6 1.1,-4.1 6.7,-9.2c6.8,-6.1 10.5,-7.5 14.2,-5.2c0.7,0.5 14.7,16.8 31,36.2c16.3,19.4 30.1,35.4 30.6,35.5c0.6,0.2 26.2,-29.9 57,-66.8c30.8,-36.8 58,-69.2 60.6,-71.9c6.1,-6.6 8.2,-6.5 16.9,0.5c7.2,5.9 8.9,9.1 6.8,13c-1.7,3.2 -123.3,148.4 -126.7,151.3c-2.4,2.1 -3.6,2.3 -14.1,2.3c-7.1,-0.1 -12.3,-0.5 -13.6,-1.3Z" style="fill:rgb(15,60,101);fill-rule:nonzero;"/>        </g>        <g id="layer102" transform="matrix(0.680128,0,0,0.682734,-32.1991,97.1402)">            <path d="M170,391.6c-32,-5.8 -58.8,-20 -80.4,-42.7c-27.8,-29.2 -42.6,-71.2 -38.7,-110.1c3.5,-34.8 17.4,-64.2 41.5,-88.3c20.6,-20.6 43.2,-32.8 72.6,-39.1c12.1,-2.7 42.9,-2.7 55,0c18.2,3.9 35.3,10.8 48.7,19.5c9.6,6.2 9.5,9.9 -0.6,20.9c-5.7,6.2 -7.7,6.5 -14.7,2c-5.6,-3.6 -17.1,-9 -23.5,-11.2c-41,-13.7 -84.1,-4.4 -115.6,24.8c-17.1,15.9 -29.7,38.6 -34.4,62.1c-1.8,9.1 -1.8,33.8 0,43c4.3,21.8 15.7,43 31.5,59c22.3,22.3 49.7,33.8 81.1,33.8c19.3,0 38.1,-4.5 53.3,-12.8c48.2,-26.4 71,-79 57.1,-131.8c-2.5,-9.7 -2.1,-11.2 6.2,-21.3c5.6,-6.7 6.6,-7.5 9.3,-7.2c2.7,0.3 3.5,1.1 5.8,6c7.5,15.3 11.8,44.2 9.8,65c-6.1,63.6 -50.4,113.4 -113,127.3c-10.2,2.3 -40.7,2.9 -51,1.1Z" style="fill:rgb(50,200,160);fill-rule:nonzero;"/>        </g>    </g></svg>