<?xml version="1.0" encoding="UTF-8" standalone="no"?><!DOCTYPE svg PUBLIC "-//W3C//DTD SVG 1.1//EN" "http://www.w3.org/Graphics/SVG/1.1/DTD/svg11.dtd"><svg width="100%" height="100%" viewBox="0 0 512 512" version="1.1" xmlns="http://www.w3.org/2000/svg" xmlns:xlink="http://www.w3.org/1999/xlink" xml:space="preserve" style="fill-rule:evenodd;clip-rule:evenodd;stroke-linejoin:round;stroke-miterlimit:2;"><title>Grupeer</title><desc>Grupeer is a human company, it translates to how we are doing business and how we choose our employees.We are working hard to bring you the best service and products possible.Grupeer scouted experienced strategic management team, financial experts, bankers, marketing gurus, IT developers and real estate professionals.</desc>    <g id="_6efd38ee-7b3a-4b0e-8c7d-1bdcc0472a23" transform="matrix(4.45921,0,0,4.45921,-28.5646,-29.9692)">        <path d="M74,84.56l22.51,0c-3.917,6.858 -9.486,12.63 -16.2,16.79c-5.427,3.279 -11.659,4.989 -18,4.94c-8.186,0.025 -16.162,-2.611 -22.72,-7.51c-10.24,-7.51 -16.76,-20.15 -16.76,-34.57c0,-11.65 3.75,-22.12 10.67,-29.83c3.369,-3.833 7.551,-6.867 12.24,-8.88c5.26,-2.427 10.998,-3.644 16.79,-3.56l4.94,0c12.25,0.59 26.27,7.9 34.17,23.31l12.84,-9.09c-10.47,-19 -28.64,-28.25 -47,-29l-5.74,0c-7.182,0.021 -14.293,1.43 -20.94,4.15c-0.4,0.2 -1,0.4 -1.38,0.59c-0.2,0 -0.4,0.2 -0.59,0.2c-19.16,8.9 -32.2,28.61 -32.2,52.11c0,19.95 9.48,37.13 23.9,47.21c0.358,0.151 0.695,0.349 1,0.59l0.2,0.2c8.87,5.793 19.236,8.883 29.83,8.89c8.1,0 16,-1.38 22.72,-4.94l1.19,-0.59l0.2,0c0.2,-0.2 0.59,-0.2 0.79,-0.4c8.253,-4.668 15.082,-11.497 19.75,-19.75l0,23.7l14.79,0l0,-49.38l-47,0l0,14.82Z" style="fill:url(#_Linear1);fill-rule:nonzero;"/>    </g>    <defs>        <linearGradient id="_Linear1" x1="0" y1="0" x2="1" y2="0" gradientUnits="userSpaceOnUse" gradientTransform="matrix(97.63,50.92,-50.92,97.63,6.77,34.39)"><stop offset="0" style="stop-color:rgb(34,206,243);stop-opacity:1"/><stop offset="0.27" style="stop-color:rgb(62,146,244);stop-opacity:1"/><stop offset="0.71" style="stop-color:rgb(54,88,244);stop-opacity:1"/><stop offset="1" style="stop-color:rgb(74,23,249);stop-opacity:1"/></linearGradient>    </defs></svg>