<?xml version="1.0" encoding="UTF-8" standalone="no"?><!DOCTYPE svg PUBLIC "-//W3C//DTD SVG 1.1//EN" "http://www.w3.org/Graphics/SVG/1.1/DTD/svg11.dtd"><svg width="100%" height="100%" viewBox="0 0 512 512" version="1.1" xmlns="http://www.w3.org/2000/svg" xmlns:xlink="http://www.w3.org/1999/xlink" xml:space="preserve" style="fill-rule:evenodd;clip-rule:evenodd;stroke-linejoin:round;stroke-miterlimit:2;"><title>P2PMarketData</title><desc>Performance of P2P Lending &amp; Equity Platforms of the World</desc>    <g id="layer101" transform="matrix(0.85,0,0,0.85,1,1)">        <path d="M600,600l-600,0l0,-0.5l112.2,-112.2l112.3,-112.3l150,150l112.7,-112.7l112.8,-112.8l0,300.5Zm-600,-450.5l74.2,-74.2c40.9,-40.9 74.7,-74.3 75.3,-74.3c0.5,0 51.4,50.4 113,112l112,112l112.5,-112.2c61.8,-61.8 112.6,-112.4 112.9,-112.6c0.2,-0.1 -134.6,-0.2 -299.7,-0.2l299.8,0l0,149.5l-112.8,112.8l-112.7,112.7l-150,-150l-112.2,112.2l-112.3,112.3l0,-300Z" style="fill:rgb(0,162,211);fill-rule:nonzero;"/>    </g></svg>