<?xml version="1.0" encoding="UTF-8" standalone="no"?><!DOCTYPE svg PUBLIC "-//W3C//DTD SVG 1.1//EN" "http://www.w3.org/Graphics/SVG/1.1/DTD/svg11.dtd"><svg width="100%" height="100%" viewBox="0 0 512 512" version="1.1" xmlns="http://www.w3.org/2000/svg" xmlns:xlink="http://www.w3.org/1999/xlink" xml:space="preserve" style="fill-rule:evenodd;clip-rule:evenodd;stroke-linejoin:round;stroke-miterlimit:2;"><title>Bouwanndeel</title><desc>Bouwaandeel offers project developers and other initiators access to private capital. We offer project developers and planners a platform to present their plans to the rest of the Netherlands. Every project is carefully checked by us for quality, financial proposition and feasibility. Our secure digital environment makes it possible for private individuals to invest both small and large amounts in real estate projects. With Bouwaandeel we want to stimulate desired developments in your living environment. By investing through our platform you help with this and you receive a return on your investment.</desc>    <g transform="matrix(480.363,0,0,534.882,61.4531,443.209)">        <path d="M0.59,-0.364c0.039,0.013 0.069,0.034 0.092,0.064c0.023,0.029 0.034,0.066 0.034,0.11c0,0.061 -0.023,0.108 -0.07,0.141c-0.047,0.032 -0.115,0.049 -0.204,0.049l-0.348,0l0,-0.7l0.328,0c0.083,0 0.146,0.016 0.191,0.049c0.045,0.032 0.067,0.076 0.067,0.133c0,0.035 -0.008,0.065 -0.024,0.092c-0.016,0.027 -0.038,0.047 -0.066,0.062Zm-0.366,-0.234l0,0.193l0.184,0c0.045,0 0.08,-0.008 0.105,-0.024c0.024,-0.017 0.036,-0.041 0.036,-0.072c0,-0.032 -0.012,-0.056 -0.036,-0.072c-0.025,-0.017 -0.06,-0.025 -0.105,-0.025l-0.184,0Zm0.21,0.496c0.101,0 0.151,-0.034 0.151,-0.101c0,-0.067 -0.05,-0.101 -0.151,-0.101l-0.21,0l0,0.202l0.21,0Z" style="fill:rgb(31,31,31);fill-rule:nonzero;"/>    </g></svg>