<?xml version="1.0" encoding="UTF-8" standalone="no"?><!DOCTYPE svg PUBLIC "-//W3C//DTD SVG 1.1//EN" "http://www.w3.org/Graphics/SVG/1.1/DTD/svg11.dtd"><svg width="100%" height="100%" viewBox="0 0 512 512" version="1.1" xmlns="http://www.w3.org/2000/svg" xmlns:xlink="http://www.w3.org/1999/xlink" xml:space="preserve" style="fill-rule:evenodd;clip-rule:evenodd;stroke-linejoin:round;stroke-miterlimit:2;"><title>Crowdfunding Bizkaia</title><desc>Crowdfunding Bizkaia is a crowdfunding platform that puts Promoters who need financing for the development of an innovative project in contact with Investors interested in participating in it.A link between Promoters who have innovative projects born and located in Bizkaia, with Investors from all over the world.</desc>    <g transform="matrix(11.8892,0,0,11.8892,350.325,262.814)">        <path d="M0,-1.457c1.429,-1.441 3.178,-3.308 3.72,-4.078c0.416,-0.513 0.646,-1.114 0.488,-1.67c-0.041,-0.501 -0.304,-0.86 -0.719,-1.064c-0.475,-0.24 -1.064,-0.128 -1.707,-0.052c-0.581,0.102 -1.136,0.134 -1.486,-0.052c-0.835,-0.429 -0.931,-1.212 -0.622,-1.773c0.379,-0.681 1.137,-1.247 1.928,-1.883c0.912,-0.731 1.814,-1.475 2.307,-2.425c0.557,-1.081 -0.006,-1.524 -0.397,-1.731c-0.282,-0.139 -0.637,-0.165 -0.983,-0.178c-0.261,-0.059 -0.554,-0.052 -0.72,-0.139c-0.455,-0.232 -0.509,-0.672 -0.207,-1.229c0.105,-0.189 0.325,-0.472 0.591,-0.826c0.286,-0.404 0.577,-0.82 0.772,-1.2c0.263,-0.505 0.207,-1.734 -0.604,-2.156c-0.82,-0.419 -2.059,0.464 -3.104,1.195c-0.891,0.572 -1.613,1.067 -2.053,0.834c-0.383,-0.205 -0.406,-0.532 -0.468,-0.798c-0.063,-0.271 -0.064,-0.507 -0.335,-0.65c-0.658,-0.34 -1.699,0.451 -2.531,1.796c-0.508,0.822 -0.724,1.404 -0.996,1.96c-0.197,0.441 -0.492,0.9 -0.819,1.415c-0.727,1.149 -1.067,1.423 -1.628,1.087c-0.561,-0.335 -0.855,-0.832 -1.136,-1.228c-0.254,-0.307 -0.513,-0.611 -0.736,-0.745c-0.609,-0.36 -1.524,-0.153 -2.204,0.787c-1.616,2.245 -1.716,4.844 -1.742,6.647c-0.055,0.898 -0.055,1.617 -0.284,1.924c-0.23,0.31 -0.663,0.301 -1.17,-0.079c-0.166,-0.129 -0.41,-0.395 -0.656,-0.657c-0.191,-0.225 -0.39,-0.537 -0.618,-0.704c-0.279,-0.216 -1.251,-0.574 -1.666,-0.064c-0.647,0.78 -0.245,4.166 0.16,5.728c0.746,2.879 1.979,5.067 2.766,6.431c0.701,1.129 1.094,1.773 0.836,2.136c-0.282,0.373 -0.715,0.183 -1.115,-0.053c-0.524,-0.346 -1.082,-0.638 -1.539,-0.036c-0.85,1.077 1.533,4.54 4.351,6.616c1.341,0.98 2.841,1.85 4.338,2.544c1.498,0.692 2.916,1.337 4.201,2.014c-7.903,-19.102 3.137,-30.774 2.788,-31.017c0.397,0.084 -10.363,13.057 -0.332,31.74c0.97,1.67 2.818,3.493 3.282,3.965c0.005,-0.008 0.011,-0.015 0.014,-0.021c-0.604,-0.929 -3.401,-6.235 0.237,-13.851c0.751,-1.628 1.565,-3.075 1.268,-3.846c-0.364,-0.956 -1.304,-0.694 -2.283,-0.382c-0.622,0.246 -1.276,0.39 -1.658,0.192c-0.256,-0.129 -0.435,-0.389 -0.486,-0.58c-0.063,-0.6 0.576,-1.298 1.014,-1.792c0.244,-0.28 1.012,-1.081 1.943,-2.052" style="fill:rgb(215,25,32);fill-rule:nonzero;"/>    </g></svg>