<?xml version="1.0" encoding="UTF-8" standalone="no"?><!DOCTYPE svg PUBLIC "-//W3C//DTD SVG 1.1//EN" "http://www.w3.org/Graphics/SVG/1.1/DTD/svg11.dtd"><svg width="100%" height="100%" viewBox="0 0 512 512" version="1.1" xmlns="http://www.w3.org/2000/svg" xmlns:xlink="http://www.w3.org/1999/xlink" xml:space="preserve" style="fill-rule:evenodd;clip-rule:evenodd;stroke-linejoin:round;stroke-miterlimit:2;"><title>B Corporation</title><desc></desc>    <g id="g12" transform="matrix(0.45116,8.65121e-33,-8.65121e-33,-0.45116,37.5159,617.939)">        <path id="path14" d="M355.531,671.094l183.68,0c63.242,0 103.391,38.562 103.391,98.738c0,71.762 -57.872,91.82 -119.629,91.82l-167.442,0l0,-190.558Zm0,252.273l146.66,0c83.289,0 117.274,30.09 117.274,87.973c0,76.38 -53.985,87.16 -117.274,87.16l-146.66,0l0,-175.133Zm-73.261,236.863l199.812,0c48.633,0 112.668,0 145.84,-20.06c36.269,-21.6 64.785,-60.95 64.785,-114.97c0,-58.63 -30.82,-102.602 -81.758,-123.419l0,-1.554c67.93,-13.875 104.934,-64.809 104.934,-132.719c0,-80.977 -57.883,-158.149 -167.422,-158.149l-266.191,0l0,550.871" style="fill:rgb(10,55,52);fill-rule:nonzero;"/>        <path id="path16" d="M484.223,1367.45c-266.524,0 -482.618,-216.09 -482.618,-482.653c0,-266.535 216.094,-482.637 482.618,-482.637c266.609,0 482.715,216.102 482.715,482.637c0,266.563 -216.106,482.653 -482.715,482.653Zm419.062,-482.88c0,-231.425 -187.578,-419.031 -419.062,-419.031c-231.399,0 -418.985,187.606 -418.985,419.031c0,231.39 187.586,418.97 418.985,418.97c231.484,0 419.062,-187.58 419.062,-418.97" style="fill:rgb(10,55,52);fill-rule:nonzero;"/>        <path id="path18" d="M965.93,237.031l-963.328,0l0,63.321l963.328,0l0,-63.321" style="fill:rgb(10,55,52);fill-rule:nonzero;"/>    </g></svg>