<?xml version="1.0" encoding="UTF-8" standalone="no"?><!DOCTYPE svg PUBLIC "-//W3C//DTD SVG 1.1//EN" "http://www.w3.org/Graphics/SVG/1.1/DTD/svg11.dtd"><svg width="100%" height="100%" viewBox="0 0 512 512" version="1.1" xmlns="http://www.w3.org/2000/svg" xmlns:xlink="http://www.w3.org/1999/xlink" xml:space="preserve" style="fill-rule:evenodd;clip-rule:evenodd;stroke-linejoin:round;stroke-miterlimit:2;"><title>Creditfolio</title><desc>Creditfolio is a crowdlending platform active since 2017 with a focus on consumer / consumer lending. The Creditfolio platform enables individuals to borrow quickly and easily on attractive terms - without the intervention of a bank. Investors and lenders can use the website to obtain individual information on current loan projects and to make financing commitments. In addition to fair and attractive returns, we also offer investors the opportunity to optimally diversify their existing portfolio.</desc>    <g transform="matrix(7.62781,0,0,7.62781,65.0096,-21.2781)">        <g transform="matrix(0.300838,0,0,0.477576,-46.2227,-168.529)">            <rect x="125.752" y="359" width="222.248" height="140" style="fill:rgb(88,94,169);"/>        </g>        <g id="XMLID_37_" transform="matrix(2.39723,0,0,2.39723,-125.952,-10.6498)">            <path d="M66.23,19.35l0,-2.44l0,-1.38c0,-0.73 0.08,-1.43 0.24,-2.1c0.16,-0.67 0.43,-1.26 0.82,-1.77c0.38,-0.51 0.89,-0.91 1.51,-1.21c0.63,-0.3 1.42,-0.45 2.37,-0.45c0.34,0 0.62,0.01 0.85,0.04c0.23,0.03 0.46,0.07 0.7,0.14l-0.2,2.6c-0.17,-0.05 -0.35,-0.09 -0.55,-0.13c-0.2,-0.03 -0.4,-0.05 -0.62,-0.05c-0.44,0 -0.8,0.08 -1.07,0.26c-0.27,0.17 -0.48,0.39 -0.62,0.66c-0.14,0.28 -0.24,0.57 -0.29,0.89c-0.05,0.32 -0.08,0.64 -0.08,0.94l0,1.56l2.83,0l0,2.44l-2.83,0l0,9.79l-3.06,0l0,-9.79Z" style="fill:rgb(178,210,53);fill-rule:nonzero;"/>        </g>        <g id="XMLID_31_" transform="matrix(2.39723,0,0,2.39723,1.70604,-10.6498)">            <path d="M1.52,26.95c0.11,0.13 0.23,0.26 0.35,0.39c0.13,0.12 0.26,0.24 0.39,0.35c2.39,2.03 5.91,2.03 8.3,0c0.13,-0.11 0.26,-0.22 0.38,-0.35l-0.01,-0.01c-0.13,-0.13 -0.24,-0.26 -0.35,-0.39c-0.47,-0.55 -0.82,-1.17 -1.07,-1.82l-0.01,0.01c-0.11,0.14 -0.21,0.28 -0.33,0.41c-0.13,0.13 -0.27,0.23 -0.41,0.33c-1.39,1.05 -3.31,1.05 -4.69,0c-0.14,-0.11 -0.28,-0.21 -0.41,-0.33c-0.13,-0.13 -0.23,-0.27 -0.33,-0.41c-1.05,-1.39 -1.05,-3.31 0,-4.69c0.11,-0.14 0.21,-0.28 0.33,-0.41c0.13,-0.13 0.27,-0.23 0.41,-0.33c1.39,-1.05 3.31,-1.05 4.69,0c0.14,0.11 0.28,0.21 0.41,0.33c0.13,0.13 0.23,0.27 0.33,0.41c0,0 0,0.01 0.01,0.01c0.25,-0.65 0.6,-1.26 1.07,-1.82c0.11,-0.13 0.23,-0.26 0.35,-0.39l0.01,-0.01c-0.12,-0.12 -0.25,-0.23 -0.38,-0.35c-2.39,-2.03 -5.91,-2.03 -8.3,0c-0.13,0.14 -0.26,0.25 -0.38,0.38c-0.13,0.12 -0.24,0.26 -0.35,0.39c-2.04,2.39 -2.04,5.91 -0.01,8.3" style="fill:white;fill-rule:nonzero;"/>        </g>    </g></svg>