<?xml version="1.0" encoding="UTF-8" standalone="no"?><!DOCTYPE svg PUBLIC "-//W3C//DTD SVG 1.1//EN" "http://www.w3.org/Graphics/SVG/1.1/DTD/svg11.dtd"><svg width="100%" height="100%" viewBox="0 0 512 512" version="1.1" xmlns="http://www.w3.org/2000/svg" xmlns:xlink="http://www.w3.org/1999/xlink" xml:space="preserve" style="fill-rule:evenodd;clip-rule:evenodd;stroke-linejoin:round;stroke-miterlimit:2;"><title>Finanzarel</title><desc>Finanzarel nace como una iniciativa pionera en la desintermediación bancaria que ofrece nuevas soluciones de financiación a corto plazo para las empresas. Situados dentro del sector FinTech, Finanzarel es una iniciativa encaminada a abrir nuevas vías de financiación a las empresas fuera del tradicional mercado bancario, poniendo en contacto empresas con inversores profesionales. Nuestra amplia experiencia en el sector financiero así como y la solidez financiera de los inversores que operan en nuestro marketplace nos permite ofrecer una nueva alternativa de financiación a las empresas.</desc>    <g transform="matrix(1.1087,0,0,1.1087,-27.8261,-27.8261)">        <g transform="matrix(2.14953,0,0,2.82209,-496.336,-806.515)">            <path d="M457,305.709c0,-5.911 -6.3,-10.709 -14.059,-10.709l-185.882,0c-7.759,0 -14.059,4.798 -14.059,10.709l0,141.582c0,5.911 6.3,10.709 14.059,10.709l185.882,0c7.759,0 14.059,-4.798 14.059,-10.709l0,-141.582Z" style="fill:rgb(96,150,74);"/>        </g>        <g transform="matrix(0.914173,0,0,0.914173,-138.364,63.6244)">            <g transform="matrix(6.26971,0,0,6.26971,435.893,294.16)">                <path d="M0,-35.815c0.554,-0.703 0.832,-1.465 0.832,-2.287c0,-0.821 -0.278,-1.582 -0.832,-2.286c-0.555,-0.703 -1.388,-1.055 -2.495,-1.055c-1.633,0 -3.137,0.308 -4.507,0.923c-1.372,0.615 -2.554,1.451 -3.546,2.506c-0.992,1.055 -1.78,2.287 -2.362,3.694c-0.585,1.407 -0.877,2.901 -0.877,4.484l0,7.035l-1.924,0c-1.109,0 -1.941,0.352 -2.495,1.055c-0.555,0.704 -0.832,1.467 -0.832,2.288c0,0.82 0.277,1.581 0.832,2.285c0.554,0.703 1.386,1.055 2.495,1.055l1.924,0l0,21.746l6.652,0l0,-21.746l13.305,0l0,21.746l6.652,0l0,-25.086c0,-0.881 -0.321,-1.657 -0.961,-2.332c-0.644,-0.673 -1.432,-1.011 -2.364,-1.011l-16.632,0l0,-7.035c0,-1.347 0.423,-2.506 1.271,-3.473c0.846,-0.968 1.968,-1.451 3.369,-1.451c1.107,0 1.94,-0.352 2.495,-1.055Z" style="fill:white;"/>            </g>            <g transform="matrix(6.19779,0,0,6.19779,433.279,296.196)">                <path d="M11.861,-33.661c0.699,-0.557 1.049,-1.391 1.049,-2.506l0,-1.935c0,-1.113 -0.35,-1.947 -1.049,-2.507c-0.702,-0.555 -1.461,-0.834 -2.276,-0.834c-0.819,0 -1.576,0.279 -2.278,0.834c-0.699,0.56 -1.049,1.394 -1.049,2.507l0,1.935c0,1.115 0.35,1.949 1.049,2.506c0.702,0.558 1.459,0.835 2.278,0.835c0.815,0 1.574,-0.277 2.276,-0.835Z" style="fill:white;"/>            </g>            <g transform="matrix(6.26971,0,0,6.26971,331.252,351.455)">                <path d="M0,5.074l32.44,0c0.803,0 1.405,-0.267 1.808,-0.801c0.402,-0.534 0.602,-1.113 0.602,-1.735c0,-0.626 -0.2,-1.202 -0.602,-1.737c-0.403,-0.534 -1.005,-0.801 -1.808,-0.801l-32.44,0c-0.803,0 -1.396,0.267 -1.776,0.801c-0.381,0.535 -0.571,1.111 -0.571,1.737c0,0.622 0.19,1.201 0.571,1.735c0.38,0.534 0.973,0.801 1.776,0.801" style="fill:rgb(88,89,91);fill-rule:nonzero;"/>            </g>        </g>    </g></svg>