<?xml version="1.0" encoding="UTF-8" standalone="no"?><!DOCTYPE svg PUBLIC "-//W3C//DTD SVG 1.1//EN" "http://www.w3.org/Graphics/SVG/1.1/DTD/svg11.dtd"><svg width="100%" height="100%" viewBox="0 0 512 512" version="1.1" xmlns="http://www.w3.org/2000/svg" xmlns:xlink="http://www.w3.org/1999/xlink" xml:space="preserve" style="fill-rule:evenodd;clip-rule:evenodd;stroke-linejoin:round;stroke-miterlimit:2;"><title>Iban Wallet</title><desc>With Iban, you get a completely different experience - Iban aims to provide users with a daily paid fixed interest and immediate access to liquidity - a hassle-free, a simple experience that doesn’t need active management on the user’s end. When you invest with Iban, we take the role of expert and manage your investments for you, selecting the best market opportunities, which often adds far greater protection than when the investor chooses individually the loans to invest in.</desc>    <g transform="matrix(3.9737,0,0,3.9737,-613.621,-11986.8)">        <path d="M176.18,3018.34l-0.739,0.016c-11.538,0.392 -20.769,9.982 -20.769,21.756l0,81.678l0.008,0.743c0.392,11.679 9.871,21.025 21.5,21.025l72.592,0l0.739,-0.008c11.534,-0.4 20.769,-9.99 20.769,-21.764l0,-7.101l0.021,-0.251c0.07,-0.413 0.314,-0.768 0.677,-0.983c7.2,-4.24 12.038,-12.137 12.038,-21.186c0,-9.037 -4.839,-16.939 -12.038,-21.178c-0.434,-0.256 -0.698,-0.731 -0.698,-1.235l0,-29.74l-0.012,-0.747c-0.392,-11.679 -9.867,-21.025 -21.496,-21.025l-72.592,0Zm-0.421,35.367c-6.894,-0.331 -12.628,-5.817 -13.004,-12.847c-0.417,-7.84 5.767,-14.354 13.425,-14.354l72.592,0c7.422,0 13.437,6.089 13.437,13.606l0,10.738l-0.012,0.338c-0.165,1.421 -1.362,2.531 -2.816,2.531l-82.974,0l-0.648,-0.012Zm-0.227,81.669c-7.121,-0.338 -12.793,-6.299 -12.793,-13.586l0,-61.928l0.016,-0.252c0.169,-0.97 1.272,-1.507 2.143,-0.962c3.282,2.048 7.146,3.233 11.282,3.233l83.201,0l0.331,0.016c1.407,0.169 2.497,1.383 2.497,2.853l0,11.043l-0.012,0.334c-0.165,1.425 -1.362,2.535 -2.816,2.535l-33.372,0l-0.698,0.017c-9.801,0.355 -17.942,8.182 -18.375,18.168c-0.479,10.911 8.12,19.911 18.8,19.911l33.348,0l0.256,-0.004c1.577,-0.033 2.869,1.267 2.869,2.865l0,2.167l-0.012,0.661c-0.339,7.212 -6.221,12.946 -13.425,12.946l-72.592,0l-0.648,-0.017Zm49.791,-26.796c-5.276,-0.285 -9.734,-4.343 -10.287,-9.718c-0.665,-6.515 4.392,-12.034 10.7,-12.034l36.564,0l0.859,-0.025c2.852,-0.149 5.569,-1.057 7.922,-2.617c0.714,-0.475 1.66,-0.227 2.052,0.54c1.449,2.812 2.084,6.057 1.721,9.392c-0.92,8.294 -8.025,14.474 -16.273,14.474l-32.667,0l-0.591,-0.012Zm-4.983,-10.858c0,3.006 2.407,5.45 5.38,5.45c2.968,0 5.375,-2.444 5.375,-5.45c0,-3.001 -2.407,-5.441 -5.375,-5.441c-2.973,0 -5.38,2.44 -5.38,5.441Z" style="fill-rule:nonzero;"/>    </g></svg>