<?xml version="1.0" encoding="UTF-8" standalone="no"?><!DOCTYPE svg PUBLIC "-//W3C//DTD SVG 1.1//EN" "http://www.w3.org/Graphics/SVG/1.1/DTD/svg11.dtd"><svg width="100%" height="100%" viewBox="0 0 512 512" version="1.1" xmlns="http://www.w3.org/2000/svg" xmlns:xlink="http://www.w3.org/1999/xlink" xml:space="preserve" style="fill-rule:evenodd;clip-rule:evenodd;stroke-linejoin:round;stroke-miterlimit:2;"><title>RateSetter</title><desc>RateSetter offers people a new, simple and accessible way to put their money to work.We are making investing better by opening the asset class of loans to everyone, giving ordinary investors access to investment choices that were previously only available to professional investors.</desc>    <g transform="matrix(15.2344,0,0,15.2354,-182.887,-329.648)">        <g transform="matrix(0.174359,0,0,0.174118,11.8962,28.2664)">            <circle cx="121.88" cy="81.59" r="6.22" style="fill:rgb(82,0,107);"/>        </g>        <g transform="matrix(0.174359,0,0,0.174118,11.8962,28.2664)">            <path d="M77,39.14c1.168,-1.166 1.825,-2.751 1.825,-4.401c0,-3.413 -2.808,-6.22 -6.22,-6.22c-3.412,0 -6.22,2.807 -6.22,6.22c0,1.65 0.657,3.235 1.825,4.401c1.164,1.167 2.747,1.823 4.395,1.823c1.648,0 3.231,-0.656 4.395,-1.823Z" style="fill:rgb(82,0,107);fill-rule:nonzero;"/>        </g>        <g transform="matrix(0.174359,0,0,0.174118,11.8962,28.2664)">            <path d="M127.44,17.65l10.84,-17.65l-77.52,0l-59.76,99.21l65,0l-10.32,17.65l77.64,0l59.68,-99.21l-65.56,0Zm-71.58,15.57c0.788,-8.587 8.077,-15.237 16.7,-15.237c9.2,0 16.77,7.57 16.77,16.77c0,9.199 -7.57,16.77 -16.77,16.77c-0.521,0 -1.041,-0.025 -1.56,-0.073c-9.15,-0.855 -15.98,-9.079 -15.14,-18.23Zm10.14,65.99l48.91,-81.56l12.58,0l-48.97,81.56l-12.52,0Zm54.41,-0.92c-8.588,-0.786 -15.241,-8.076 -15.241,-16.7c0,-9.2 7.57,-16.77 16.77,-16.77c9.2,0 16.77,7.57 16.77,16.77c0,0.507 -0.023,1.015 -0.069,1.52c-0.78,8.594 -8.072,15.254 -16.701,15.254c-0.527,0 -1.054,-0.024 -1.579,-0.074l0.05,0Z" style="fill:rgb(82,0,107);fill-rule:nonzero;"/>        </g>    </g></svg>