<?xml version="1.0" encoding="UTF-8" standalone="no"?><!DOCTYPE svg PUBLIC "-//W3C//DTD SVG 1.1//EN" "http://www.w3.org/Graphics/SVG/1.1/DTD/svg11.dtd"><svg width="100%" height="100%" viewBox="0 0 512 512" version="1.1" xmlns="http://www.w3.org/2000/svg" xmlns:xlink="http://www.w3.org/1999/xlink" xml:space="preserve" style="fill-rule:evenodd;clip-rule:evenodd;stroke-linejoin:round;stroke-miterlimit:2;"><title>AMF</title><desc>The Financial Markets Authority (AMF) is the independent public authority responsible for protecting savings, informing investors and ensuring the proper functioning of the financial markets. To carry out our missions, we rely on the skills and experience of nearly 470 employees.</desc>    <g transform="matrix(1.44068,0,0,1.44068,-1785.67,-2655.91)">        <g transform="matrix(4.16667,0,0,4.16667,1276.29,2002.56)">            <path d="M0,8.953l4.245,-7.652l4.245,7.652l-8.49,0Zm12.095,6.497l5.441,0l-12.996,-21.947l-0.216,0l-12.995,21.947l5.066,0l1.802,-3.248l12.096,0l1.802,3.248Z" style="fill:rgb(0,56,108);fill-rule:nonzero;"/>        </g>        <g transform="matrix(4.16667,0,0,4.16667,1594.16,2066.93)">            <path d="M0,-21.014l0,3.839l-13.957,0l0,5.153l13.175,0l0,3.436l-13.175,0l0,8.586l-4.715,0l0,-21.014l18.672,0Z" style="fill:rgb(227,27,71);fill-rule:nonzero;"/>        </g>        <g transform="matrix(4.16667,0,0,4.16667,1370.15,2065.09)">            <path d="M0,-20.129c-0.934,-0.201 -1.818,-0.344 -2.657,-0.443l0,21.015l4.39,0l0,-15.504c6.505,2.326 12.212,7.855 16.023,15.504l4.846,0c-4.829,-10.926 -13.114,-18.527 -22.602,-20.572" style="fill:rgb(0,56,108);fill-rule:nonzero;"/>        </g>        <g transform="matrix(4.16667,0,0,4.16667,1478.06,2065.09)">            <path d="M0,-20.129c0.934,-0.201 1.817,-0.344 2.657,-0.443l0,21.015l-4.39,0l0,-15.504c-6.506,2.326 -12.213,7.855 -16.023,15.504l-4.846,0c4.829,-10.926 13.112,-18.527 22.602,-20.572" style="fill:rgb(227,27,71);fill-rule:nonzero;"/>        </g>    </g></svg>