<?xml version="1.0" encoding="UTF-8" standalone="no"?><!DOCTYPE svg PUBLIC "-//W3C//DTD SVG 1.1//EN" "http://www.w3.org/Graphics/SVG/1.1/DTD/svg11.dtd"><svg width="100%" height="100%" viewBox="0 0 512 512" version="1.1" xmlns="http://www.w3.org/2000/svg" xmlns:xlink="http://www.w3.org/1999/xlink" xml:space="preserve" style="fill-rule:evenodd;clip-rule:evenodd;stroke-linejoin:round;stroke-miterlimit:2;"><title>Funders</title><desc>Funders brings together borrowers such as Start-ups, SMEs or self-employed entrepreneurs and private &amp; institutional investors. Funders is the crowdfunding platform for crowdsupporting and crowdlending projects. Starters - inventors, creatives, start-ups, SMEs, associations, organizers and non-profit organizations - can realize projects with the help of numerous funders (supporters).</desc>    <g transform="matrix(7.71429,0,0,7.72727,-183.714,1)">        <path d="M74.5,0c-1.9,0 -3.5,1.6 -3.5,3.5l0,41.5c0,7.7 -6.3,14 -14,14c-7.7,0 -14,-6.3 -14,-14l0,-19.6c0,-1.9 -1.6,-3.5 -3.5,-3.5c-1.9,0 -3.5,1.6 -3.5,3.5l0,19.6c0,11.6 9.4,21 21,21c11.6,0 21,-9.4 21,-21l0,-41.5c0,-1.9 -1.6,-3.5 -3.5,-3.5Z" style="fill:rgb(7,147,209);fill-rule:nonzero;"/>    </g></svg>