<?xml version="1.0" encoding="UTF-8" standalone="no"?><!DOCTYPE svg PUBLIC "-//W3C//DTD SVG 1.1//EN" "http://www.w3.org/Graphics/SVG/1.1/DTD/svg11.dtd"><svg width="100%" height="100%" viewBox="0 0 512 512" version="1.1" xmlns="http://www.w3.org/2000/svg" xmlns:xlink="http://www.w3.org/1999/xlink" xml:space="preserve" style="fill-rule:evenodd;clip-rule:evenodd;stroke-linejoin:round;stroke-miterlimit:2;"><title>Happy Capital</title><desc></desc>    <g transform="matrix(8.97729,0,0,8.97729,-22.7898,-26.2461)">        <path id="path288" d="M34,37.76c-1.138,-1.849 -2.076,-3.813 -2.8,-5.86c-1.749,1.331 -3.624,2.487 -5.6,3.45c-7.95,3.88 -5.42,12.1 -3.87,14.88c2.55,4.61 2.07,6.94 1.6,9.12c0.58,-2 1.68,-4.46 6.09,-6.91c2.76,-1.54 9.21,-7.2 4.58,-14.68Z" style="fill:url(#_Linear1);fill-rule:nonzero;"/>        <path id="path292" d="M37,34.94c-2.017,-0.796 -3.944,-1.801 -5.75,-3c-0.631,2.098 -1.469,4.127 -2.5,6.06c-4.09,7.84 2.82,13 5.72,14.28c4.79,2.19 5.78,4.35 6.7,6.39c-0.73,-2 -1.3,-4.59 0.8,-9.18c1.31,-2.87 3.14,-11.27 -4.97,-14.55Z" style="fill:url(#_Linear2);fill-rule:nonzero;"/>        <path id="path296" d="M37.57,30.58c-2.071,0.659 -4.207,1.098 -6.37,1.31c0.873,2.019 1.543,4.119 2,6.27c1.83,8.65 10.42,8.2 13.49,7.38c5.09,-1.36 7.23,-0.32 9.23,0.67c-1.82,-1.06 -3.92,-2.71 -5.22,-7.59c-0.82,-3.05 -4.7,-10.7 -13.13,-8.04Z" style="fill:url(#_Linear3);fill-rule:nonzero;"/>        <path id="path300" d="M35.39,26.9c-1.216,1.81 -2.621,3.486 -4.19,5c1.931,1.047 3.753,2.283 5.44,3.69c6.8,5.65 13.26,0 15.16,-2.57c3.16,-4.22 5.47,-4.74 7.66,-5.2c-2.08,0.3 -4.76,0.3 -8.8,-2.72c-2.52,-1.91 -10.34,-5.48 -15.27,1.8Z" style="fill:url(#_Linear4);fill-rule:nonzero;"/>        <path id="path304" d="M31.51,25.39c0.123,2.172 0.016,4.351 -0.32,6.5c2.173,-0.338 4.373,-0.459 6.57,-0.36c8.84,0.39 10.54,-8 10.51,-11.23c0,-5.27 1.49,-7.08 2.95,-8.77c-1.48,1.5 -3.61,3.12 -8.65,3.16c-3.16,0.03 -11.57,1.92 -11.06,10.7Z" style="fill:url(#_Linear5);fill-rule:nonzero;"/>        <path id="path308" d="M26.33,27.58c1.771,1.264 3.404,2.712 4.87,4.32c1.086,-1.905 2.359,-3.697 3.8,-5.35c5.83,-6.65 0.31,-13.26 -2.19,-15.23c-4.14,-3.26 -4.6,-5.59 -5,-7.79c0.25,2.09 0.18,4.77 -2.94,8.73c-1.93,2.49 -5.69,10.21 1.46,15.32Z" style="fill:url(#_Linear6);fill-rule:nonzero;"/>        <path id="path312" d="M24.7,32.2c2.15,-0.329 4.329,-0.429 6.5,-0.3c-0.548,-2.128 -0.883,-4.306 -1,-6.5c-0.44,-8.84 -9,-9.73 -12.2,-9.4c-5.25,0.54 -7.19,-0.81 -9,-2.1c1.63,1.33 3.45,3.3 4,8.31c0.32,3.14 3,11.3 11.7,9.99Z" style="fill:url(#_Linear7);fill-rule:nonzero;"/>        <path id="path316" d="M26.2,36.07c1.515,-1.565 3.191,-2.966 5,-4.18c-1.72,-1.364 -3.302,-2.894 -4.72,-4.57c-5.71,-6.75 -13.06,-2.27 -15.38,-0.1c-3.85,3.61 -6.22,3.72 -8.45,3.78c2.1,0.07 4.74,0.53 8.2,4.21c2.15,2.31 9.24,7.17 15.35,0.86Z" style="fill:url(#_Linear8);fill-rule:nonzero;"/>        <path id="path320" d="M30.32,38.34c0.065,-2.175 0.36,-4.337 0.88,-6.45c-2.192,0.147 -4.392,0.077 -6.57,-0.21c-8.78,-1.14 -11.19,7.12 -11.44,10.32c-0.41,5.26 -2.09,6.93 -3.69,8.49c1.6,-1.37 3.86,-2.8 8.89,-2.41c3.14,0.22 11.61,-0.95 11.93,-9.74Z" style="fill:url(#_Linear9);fill-rule:nonzero;"/>    </g>    <defs>        <linearGradient id="_Linear1" x1="0" y1="0" x2="1" y2="0" gradientUnits="userSpaceOnUse" gradientTransform="matrix(-7.91544,27.4412,-27.4412,-7.91544,31.1502,31.887)"><stop offset="0" style="stop-color:rgb(22,5,41);stop-opacity:1"/><stop offset="1" style="stop-color:rgb(113,1,119);stop-opacity:1"/></linearGradient>        <linearGradient id="_Linear2" x1="0" y1="0" x2="1" y2="0" gradientUnits="userSpaceOnUse" gradientTransform="matrix(9.9224,26.781,-26.781,9.9224,31.2334,31.8887)"><stop offset="0" style="stop-color:rgb(70,0,118);stop-opacity:1"/><stop offset="0.63" style="stop-color:rgb(173,9,119);stop-opacity:1"/><stop offset="1" style="stop-color:rgb(234,14,120);stop-opacity:1"/></linearGradient>        <linearGradient id="_Linear3" x1="0" y1="0" x2="1" y2="0" gradientUnits="userSpaceOnUse" gradientTransform="matrix(24.8185,14.3098,-14.3098,24.8185,34.2952,37.9838)"><stop offset="0" style="stop-color:rgb(83,0,11);stop-opacity:1"/><stop offset="0.63" style="stop-color:rgb(186,0,10);stop-opacity:1"/><stop offset="1" style="stop-color:rgb(248,0,10);stop-opacity:1"/></linearGradient>        <linearGradient id="_Linear4" x1="0" y1="0" x2="1" y2="0" gradientUnits="userSpaceOnUse" gradientTransform="matrix(28.2723,-4.04376,4.04376,28.2723,31.3083,31.9988)"><stop offset="0" style="stop-color:rgb(248,0,10);stop-opacity:1"/><stop offset="0.57" style="stop-color:rgb(245,145,25);stop-opacity:1"/><stop offset="1" style="stop-color:rgb(242,249,35);stop-opacity:1"/></linearGradient>        <linearGradient id="_Linear5" x1="0" y1="0" x2="1" y2="0" gradientUnits="userSpaceOnUse" gradientTransform="matrix(20.0204,-20.2496,20.2496,20.0204,28.979,26.9419)"><stop offset="0" style="stop-color:rgb(250,129,10);stop-opacity:1"/><stop offset="0.14" style="stop-color:rgb(249,146,14);stop-opacity:1"/><stop offset="1" style="stop-color:rgb(242,249,35);stop-opacity:1"/></linearGradient>        <linearGradient id="_Linear6" x1="0" y1="0" x2="1" y2="0" gradientUnits="userSpaceOnUse" gradientTransform="matrix(-3.3876,-28.2792,28.2792,-3.3876,34.1243,26.4656)"><stop offset="0" style="stop-color:rgb(66,159,39);stop-opacity:1"/><stop offset="0.73" style="stop-color:rgb(169,209,29);stop-opacity:1"/><stop offset="1" style="stop-color:rgb(207,228,25);stop-opacity:1"/></linearGradient>        <linearGradient id="_Linear7" x1="0" y1="0" x2="1" y2="0" gradientUnits="userSpaceOnUse" gradientTransform="matrix(-22.1481,-18.0315,18.0315,-22.1481,31.167,31.9353)"><stop offset="0" style="stop-color:rgb(19,59,19);stop-opacity:1"/><stop offset="0.77" style="stop-color:rgb(106,162,24);stop-opacity:1"/><stop offset="1" style="stop-color:rgb(132,193,26);stop-opacity:1"/></linearGradient>        <linearGradient id="_Linear8" x1="0" y1="0" x2="1" y2="0" gradientUnits="userSpaceOnUse" gradientTransform="matrix(-28.5451,-0.922125,0.922125,-28.5451,31.1184,31.9143)"><stop offset="0" style="stop-color:rgb(40,91,139);stop-opacity:1"/><stop offset="0.02" style="stop-color:rgb(40,91,139);stop-opacity:1"/><stop offset="0.09" style="stop-color:rgb(48,105,149);stop-opacity:1"/><stop offset="0.25" style="stop-color:rgb(66,137,172);stop-opacity:1"/><stop offset="0.42" style="stop-color:rgb(80,162,190);stop-opacity:1"/><stop offset="0.59" style="stop-color:rgb(90,179,203);stop-opacity:1"/><stop offset="0.78" style="stop-color:rgb(96,190,211);stop-opacity:1"/><stop offset="1" style="stop-color:rgb(98,193,213);stop-opacity:1"/></linearGradient>        <linearGradient id="_Linear9" x1="0" y1="0" x2="1" y2="0" gradientUnits="userSpaceOnUse" gradientTransform="matrix(16.3791,4.69972,-4.69972,16.3791,12.7812,39.0173)"><stop offset="0" style="stop-color:rgb(18,50,90);stop-opacity:1"/><stop offset="0.04" style="stop-color:rgb(23,59,99);stop-opacity:1"/><stop offset="0.21" style="stop-color:rgb(39,88,131);stop-opacity:1"/><stop offset="0.39" style="stop-color:rgb(51,112,156);stop-opacity:1"/><stop offset="0.57" style="stop-color:rgb(60,128,173);stop-opacity:1"/><stop offset="0.77" style="stop-color:rgb(65,138,184);stop-opacity:1"/><stop offset="1" style="stop-color:rgb(67,141,187);stop-opacity:1"/></linearGradient>    </defs></svg>