<?xml version="1.0" encoding="UTF-8" standalone="no"?><!DOCTYPE svg PUBLIC "-//W3C//DTD SVG 1.1//EN" "http://www.w3.org/Graphics/SVG/1.1/DTD/svg11.dtd"><svg width="100%" height="100%" viewBox="0 0 512 512" version="1.1" xmlns="http://www.w3.org/2000/svg" xmlns:xlink="http://www.w3.org/1999/xlink" xml:space="preserve" style="fill-rule:evenodd;clip-rule:evenodd;stroke-linejoin:round;stroke-miterlimit:2;"><title>UKPA</title><desc></desc>    <g id="Group" transform="matrix(9.66845,0,0,9.66845,-61.8437,6.55195)">        <path id="Solid-P1" d="M11.374,31.175l7,4.7c0.1,0 0.1,0.1 0.2,0.199c0.2,0.301 0.1,0.601 -0.2,0.801l-1.5,1c-0.2,0.1 -0.4,0.1 -0.6,0l-9.4,-6.301c-0.1,0 -0.1,-0.099 -0.2,-0.199c-0.3,-0.4 -0.2,-0.9 0.2,-1.2l15.2,-10l0,3.4l-10.7,7.1c-0.1,0 -0.1,0.1 -0.1,0.1c-0.1,0.1 0,0.299 0.1,0.4Z" style="fill:rgb(231,76,60);"/>        <path id="Gradient" d="M58.874,30.175l-15.1,-10l0,-9.6c0,-0.2 -0.1,-0.4 -0.2,-0.5l-10.5,-7c-0.1,-0.1 -0.2,-0.1 -0.3,0l-10.4,7c-0.1,0.1 -0.2,0.3 -0.1,0.4l0.1,0.1l7,4.7l2.6,1.7l0.8,0.6l0.1,0.1l0,19.8c0,0.3 0.2,0.599 0.6,0.599c0.1,0 0.2,0 0.3,-0.099l9.8,-6.5c0.2,-0.1 0.3,-0.3 0.2,-0.5l0,-7.3l10.7,7c0.1,0.1 0.2,0.3 0.1,0.399c0,0 0,0.101 -0.1,0.101l-21.6,14.3l-2.6,1.7l1.8,1.2c0.5,0.3 1.1,0.3 1.6,0l25.2,-16.801c0.4,-0.299 0.5,-0.799 0.2,-1.199c0,0 -0.1,-0.1 -0.2,-0.2" style="fill:url(#_Linear1);"/>    </g>    <defs>        <linearGradient id="_Linear1" x1="0" y1="0" x2="1" y2="0" gradientUnits="userSpaceOnUse" gradientTransform="matrix(-4.14063,15.7949,-15.7949,-4.14063,40.7408,29.3008)"><stop offset="0" style="stop-color:rgb(231,76,60);stop-opacity:1"/><stop offset="1" style="stop-color:rgb(231,76,60);stop-opacity:0"/></linearGradient>    </defs></svg>