<?xml version="1.0" encoding="UTF-8" standalone="no"?><!DOCTYPE svg PUBLIC "-//W3C//DTD SVG 1.1//EN" "http://www.w3.org/Graphics/SVG/1.1/DTD/svg11.dtd"><svg width="100%" height="100%" viewBox="0 0 512 512" version="1.1" xmlns="http://www.w3.org/2000/svg" xmlns:xlink="http://www.w3.org/1999/xlink" xml:space="preserve" style="fill-rule:evenodd;clip-rule:evenodd;stroke-linejoin:round;stroke-miterlimit:2;"><title>Crowdify</title><desc>On the platform crowdify.net Initiators (musicians, artists, designers... you!) present their projects and leave them there for 100 days to be funded by Boosters.</desc>    <g transform="matrix(1.44476,0,0,1.77083,-157.924,-200.875)">        <path d="M463,127.494c0,-7.448 -7.411,-13.494 -16.54,-13.494l-319.92,0c-9.129,0 -16.54,6.046 -16.54,13.494l0,261.012c0,7.448 7.411,13.494 16.54,13.494l319.92,0c9.129,0 16.54,-6.046 16.54,-13.494l0,-261.012Z" style="fill:rgb(244,57,82);"/>    </g>    <g transform="matrix(507.27,0,0,507.27,54.2494,449.931)">        <path d="M0.743,-0.671l-0.068,0.116c-0.039,-0.081 -0.161,-0.116 -0.232,-0.116c-0.077,0 -0.142,0.028 -0.195,0.084c-0.054,0.055 -0.076,0.132 -0.076,0.212c0,0.08 0.027,0.141 0.08,0.196c0.054,0.054 0.114,0.081 0.192,0.081c0.04,0 0.074,-0.006 0.102,-0.019c0.016,-0.007 0.032,-0.011 0.048,-0.022c0.017,-0.011 0.015,-0.005 0.034,-0.02l0,0.137c-0.065,0.037 -0.114,0.036 -0.186,0.036c-0.107,0 -0.199,-0.038 -0.275,-0.113c-0.076,-0.076 -0.114,-0.167 -0.114,-0.275c0,-0.096 0.031,-0.191 0.095,-0.266c0.078,-0.092 0.179,-0.138 0.303,-0.138c0.068,0 0.199,0.011 0.292,0.107Z" style="fill:white;fill-rule:nonzero;"/>    </g></svg>