<?xml version="1.0" encoding="UTF-8" standalone="no"?><!DOCTYPE svg PUBLIC "-//W3C//DTD SVG 1.1//EN" "http://www.w3.org/Graphics/SVG/1.1/DTD/svg11.dtd"><svg width="100%" height="100%" viewBox="0 0 512 512" version="1.1" xmlns="http://www.w3.org/2000/svg" xmlns:xlink="http://www.w3.org/1999/xlink" xml:space="preserve" style="fill-rule:evenodd;clip-rule:evenodd;stroke-linejoin:round;stroke-miterlimit:2;"><title>Lendico</title><desc></desc>    <g transform="matrix(5.19569,0,0,5.19569,-1221.21,-879.782)">        <g transform="matrix(4.16667,0,0,4.16667,315.056,217.359)">            <path d="M0,0.596c-0.077,2.037 -0.943,3.922 -2.438,5.307c-1.415,1.312 -3.256,2.034 -5.184,2.034c-2.15,0 -4.138,-0.867 -5.599,-2.443c-2.86,-3.086 -2.677,-7.923 0.409,-10.783c1.415,-1.312 3.256,-2.034 5.184,-2.034c2.15,0 4.139,0.867 5.599,2.443c1.386,1.495 2.106,3.439 2.029,5.476m4.401,-11.436l-7.244,1.097c-1.507,-0.716 -3.144,-1.079 -4.785,-1.079c-2.707,0 -5.42,0.981 -7.562,2.967c-3.608,3.344 -4.496,8.521 -2.567,12.766l-1.4,6.085l6.171,-0.934c1.661,0.913 3.511,1.374 5.364,1.374c2.707,0 5.42,-0.981 7.562,-2.967c3.44,-3.188 4.408,-8.043 2.818,-12.168l1.643,-7.141Z" style="fill:rgb(71,185,180);fill-rule:nonzero;"/>        </g>        <g transform="matrix(3.05566,-2.83267,-2.83267,-3.05566,290.43,219.102)">            <path d="M-1.156,-0.453c0.939,-0.001 1.701,0.761 1.701,1.7c0,0.939 -0.762,1.7 -1.701,1.701c-0.938,0 -1.7,-0.762 -1.7,-1.701c-0.001,-0.939 0.761,-1.7 1.7,-1.7" style="fill:rgb(71,185,180);fill-rule:nonzero;"/>        </g>    </g></svg>