<?xml version="1.0" encoding="UTF-8" standalone="no"?><!DOCTYPE svg PUBLIC "-//W3C//DTD SVG 1.1//EN" "http://www.w3.org/Graphics/SVG/1.1/DTD/svg11.dtd"><svg width="100%" height="100%" viewBox="0 0 512 512" version="1.1" xmlns="http://www.w3.org/2000/svg" xmlns:xlink="http://www.w3.org/1999/xlink" xml:space="preserve" style="fill-rule:evenodd;clip-rule:evenodd;stroke-linejoin:round;stroke-miterlimit:2;"><title>EuroRaiser</title><desc>EuroRaiser is a crowdfunding company that connects project leaders in the field of real estate transactions. EuroRaiser through its EuroRaiser.com site, allows Investors and Lenders to become members of its community in order to finance projects selected by our committee of experts. The platform offers a space to all its Members and presents the project and the operator who carries it.</desc>    <g transform="matrix(666.519,0,0,718.31,133.805,511)">        <path d="M0.099,-0.068c0,0.048 0.02,0.068 0.068,0.068l0.322,-0c0.047,-0 0.068,-0.02 0.068,-0.068l0,-0.108l-0.119,0l0,0.043c0,0.014 -0.008,0.022 -0.022,0.022l-0.164,-0c-0.014,-0 -0.022,-0.008 -0.022,-0.022l0,-0.102l0.23,-0l0,-0.079l-0.23,0l0,-0.068l0.23,0l0,-0.082l-0.23,-0l0,-0.135l0.16,0c0.014,0 0.022,0.008 0.022,0.022l0,0.043l0.119,-0l0,-0.108c0,-0.047 -0.021,-0.068 -0.068,-0.068l-0.459,0l0,0.111l0.095,-0l0,0.135l-0.289,-0l-0,0.082l0.289,0l0,0.068l-0.289,0l-0,0.079l0.289,-0l0,0.167Z" style="fill:rgb(8,62,90);fill-rule:nonzero;"/>    </g></svg>