<?xml version="1.0" encoding="UTF-8" standalone="no"?><!DOCTYPE svg PUBLIC "-//W3C//DTD SVG 1.1//EN" "http://www.w3.org/Graphics/SVG/1.1/DTD/svg11.dtd"><svg width="100%" height="100%" viewBox="0 0 512 512" version="1.1" xmlns="http://www.w3.org/2000/svg" xmlns:xlink="http://www.w3.org/1999/xlink" xml:space="preserve" style="fill-rule:evenodd;clip-rule:evenodd;stroke-linejoin:round;stroke-miterlimit:2;"><title>AREX</title><desc>On one hand, we partner up with leading accounting &amp; factoring providers, P2P marketplaces and other invoice originators for allowing their clients access to the AREX exchange. On the other hand, we partner up with institutional and professional investors, such as hedge &amp; quant funds, banks and other liquidity providers who are looking to deploy capital over the exchange. We let these two classes of clients meet each other without third-party intervention to directly buy and sell ETRs.</desc>    <g transform="matrix(2.19238,0,0,2.18546,211.469,173.12)">        <g transform="matrix(0.797551,0,0,0.797315,-241.154,-176.517)">            <path d="M196.8,356.6c-8.7,-3.1 -13.8,-9.8 -14.6,-19.1c-0.6,-8.7 1.5,-14.3 7.3,-19c15.2,-12.5 36.4,-2.8 36.5,16.8c0,15.6 -14.8,26.4 -29.2,21.3Z" style="fill:rgb(130,211,242);fill-rule:nonzero;"/>        </g>        <g transform="matrix(0.797551,0,0,0.797315,-241.154,-176.517)">            <path d="M258.7,356.6c-5.6,-2 -10.7,-6.4 -12.8,-11c-2.5,-5.6 -2.5,-15.4 0.1,-20.5c6.8,-13.4 24.5,-16.2 35.4,-5.7c9.3,9.1 8.8,23.8 -1.2,32.8c-6.2,5.6 -13.8,7.1 -21.5,4.4Z" style="fill:rgb(130,211,242);fill-rule:nonzero;"/>        </g>        <g transform="matrix(0.797551,0,0,0.797315,-241.154,-176.517)">            <path d="M320.6,356.5c-5.7,-2 -8.7,-4.5 -12.1,-10c-2.5,-4 -3,-5.9 -3,-10.9c0.1,-12.8 9.4,-22.5 21.7,-22.6c20.6,-0.1 30.6,24.5 15.7,38.7c-6.1,5.7 -14.6,7.6 -22.3,4.8Z" style="fill:rgb(130,211,242);fill-rule:nonzero;"/>        </g>        <g transform="matrix(0.797551,0,0,0.797315,-241.154,-176.517)">            <path d="M196.2,289.7c-8.5,-3.1 -14.1,-11.1 -14.2,-20.2c0,-7.3 1.5,-11.4 5.7,-15.8c5.5,-5.6 8.5,-6.9 16.4,-6.9c5.9,-0.1 7.6,0.3 11.7,2.8c12.5,7.8 13.9,26.9 2.6,36.2c-6.1,5.1 -14.8,6.6 -22.2,3.9Z" style="fill:rgb(130,211,242);fill-rule:nonzero;"/>        </g>        <g transform="matrix(0.797551,0,0,0.797315,-241.154,-176.517)">            <path d="M257.5,289.6c-4.6,-2 -9.4,-6.5 -11.6,-10.9c-1.7,-3.2 -2,-5.4 -1.7,-11.2c0.4,-8.8 3.4,-14 10.4,-18.1c3.8,-2.2 5.7,-2.7 11.3,-2.6c7.9,0 11,1.4 16.2,6.9c8.2,8.7 8,22.2 -0.4,30.7c-6.2,6.2 -16.8,8.5 -24.2,5.2Z" style="fill:rgb(130,211,242);fill-rule:nonzero;"/>        </g>        <g transform="matrix(0.797551,0,0,0.797315,-241.154,-176.517)">            <path d="M317.3,288.5c-20.4,-10.2 -13.2,-41.6 9.6,-41.8c7.6,0 12,1.6 16.4,6.1c7.6,7.8 8.9,18 3.5,27.2c-6.2,10.3 -18.6,13.9 -29.5,8.5Z" style="fill:rgb(130,211,242);fill-rule:nonzero;"/>        </g>        <g transform="matrix(0.797551,0,0,0.797315,-241.154,-176.517)">            <path d="M256.5,222.6c-13.8,-6.1 -17,-26.2 -5.8,-36.8c6.1,-5.8 16.9,-7.5 24.8,-3.9c10.3,4.7 15.4,18.1 11,28.9c-2.2,5.1 -8.2,11 -12.5,12.2c-4.9,1.4 -13.9,1.2 -17.5,-0.4Z" style="fill:rgb(130,211,242);fill-rule:nonzero;"/>        </g>        <g transform="matrix(0.797551,0,0,0.797315,-241.154,-176.517)">            <path d="M317.3,221.9c-8.5,-4.2 -13.4,-14.3 -11.5,-23.6c2.3,-11.2 10.9,-18.3 22.1,-18.3c15.6,0.1 26.3,15.8 20.6,30.5c-2,5.3 -9.1,12 -13.6,12.9c-6.2,1.2 -13.3,0.6 -17.6,-1.5Z" style="fill:rgb(130,211,242);fill-rule:nonzero;"/>        </g>        <g transform="matrix(0.797551,0,0,0.797315,-241.154,-176.517)">            <path d="M379.4,222.1c-11.4,-5.2 -15.7,-20.5 -8.8,-31.8c7.4,-12.2 27.5,-13.7 35.9,-2.7c7.3,9.6 7.3,19.6 0.2,28.8c-4,5.1 -9.6,7.6 -17.2,7.6c-3.7,0 -7.6,-0.8 -10.1,-1.9Z" style="fill:rgb(130,211,242);fill-rule:nonzero;"/>        </g>        <g transform="matrix(0.797551,0,0,0.797315,-241.154,-176.517)">            <path d="M441.5,222.1c-8.7,-3.9 -13.3,-12.8 -12.1,-23.1c1.3,-11 9.1,-18.2 20.6,-18.8c12.1,-0.7 20.4,5.7 23.2,17.7c2.1,9.2 -3,19.9 -11.4,24c-5.6,2.7 -14.7,2.8 -20.3,0.2Z" style="fill:white;fill-rule:nonzero;"/>        </g>    </g></svg>