<?xml version="1.0" encoding="UTF-8" standalone="no"?><!DOCTYPE svg PUBLIC "-//W3C//DTD SVG 1.1//EN" "http://www.w3.org/Graphics/SVG/1.1/DTD/svg11.dtd"><svg width="100%" height="100%" viewBox="0 0 512 512" version="1.1" xmlns="http://www.w3.org/2000/svg" xmlns:xlink="http://www.w3.org/1999/xlink" xml:space="preserve" style="fill-rule:evenodd;clip-rule:evenodd;stroke-linejoin:round;stroke-miterlimit:2;"><title>3CF</title><desc>3CF gives both borrowers and lenders more freedom and control over their loans. 3CF allows borrowers to set loan interest rates and investors to sell loan parts in its secondary market. This makes 3CF one of the few secondary market providers in Switzerland.</desc>    <g transform="matrix(0.497561,0,0,0.497561,63.6927,-28.2292)">        <g transform="matrix(1,0,0,1,-214,31)">            <path d="M863.641,651.676c-10.014,-42.525 -32.685,-93.253 -65.187,-147.516c0.481,-16.571 1.268,-32.876 2.319,-48.874c43.978,73.361 72.541,145.235 83.355,207.42c-6.595,-3.77 -13.432,-7.431 -20.487,-11.03Z" style="fill:rgb(135,136,138);"/>        </g>        <g transform="matrix(1,0,0,1,-214,31)">            <path d="M764.736,905.461c-7.97,-16.378 -15.351,-34.145 -22.136,-53.132c36.071,3.924 67.705,-1.442 92.501,-17.221c4.38,14.632 9.084,28.358 14.115,41.006c-24.376,11.358 -52.836,21.249 -84.48,29.347Z" style="fill:rgb(198,199,200);"/>        </g>        <g transform="matrix(2.38372,0,0,2.38372,-1591.99,-995.523)">            <path d="M870.495,693.989c-19.235,-3.221 -40.262,-4.977 -62.291,-4.977c-3.417,0 -6.809,0.042 -10.137,0.139c-4.202,-4.028 -8.383,-8.207 -12.52,-12.557c6.656,-0.359 13.38,-0.539 20.186,-0.539c22.406,0 43.915,1.944 63.908,5.534l0.564,9.085l0.29,3.315Z" style="fill:rgb(26,23,27);"/>        </g>        <g transform="matrix(2.38372,0,0,2.38372,-1591.99,-995.523)">            <path d="M923.895,846.917c-32.482,12.932 -73.543,20.64 -118.162,20.64c-105.268,0 -190.733,-42.905 -190.733,-95.751c0,-39.825 48.537,-74.004 117.503,-88.416l1.966,2.36l7.815,8.845c-58.218,10.305 -98.954,33.883 -98.954,61.289c0,36.908 73.877,65.115 164.874,65.115c33.49,0 64.662,-3.821 90.695,-10.508l0.622,-0.16c13.035,-3.37 24.765,-7.458 34.818,-12.152l0.565,-0.263c23.822,-11.188 38.173,-25.765 38.173,-42.032c0,-12.266 -8.159,-23.765 -22.382,-33.606c-2.506,-1.744 -5.201,-3.437 -8.074,-5.073l-0.176,-0.1c-7.946,-4.522 -17.244,-8.626 -27.638,-12.18l-0.678,-8.187l-0.221,-3.759c9.512,3.275 18.36,6.978 26.483,11.046l0.278,0.139c2.869,1.443 5.647,2.931 8.317,4.488c29.546,16.824 47.48,38.946 47.48,63.154c0,22.642 -15.689,43.459 -41.935,59.848l-0.309,0.192c-8.666,5.401 -18.476,10.319 -29.279,14.653l-1.048,0.418Z" style="fill:rgb(26,23,27);"/>        </g>        <g transform="matrix(2.38372,0,0,2.38372,-1591.99,-995.523)">            <path d="M870.495,693.989c0,0 -0.29,-3.315 -0.29,-3.315l-0.564,-9.085l-0.047,-0.83c-0.485,-8.584 -0.723,-17.34 -0.723,-26.226c0,-23.804 1.705,-46.677 4.866,-67.971l0.08,-0.547c0.838,-5.647 1.776,-11.183 2.818,-16.598l0.162,-0.845c13.853,-71.698 44.544,-121.572 80.139,-121.572c48.604,0 88.064,92.993 88.064,207.533c0,114.541 -39.46,207.533 -88.064,207.533c-11.684,0 -22.839,-5.373 -33.041,-15.149c11.182,-4.432 21.351,-9.48 30.327,-15.071c5.929,5.932 12.27,9.138 18.855,9.138c33.271,0 60.284,-81.824 60.284,-182.608c0,-100.783 -27.013,-182.607 -60.284,-182.607c-29.004,0 -53.252,62.182 -58.994,144.894l-0.066,0.974c-0.439,6.499 -0.764,13.122 -0.955,19.852l-0.018,0.651c-0.171,5.347 -0.25,10.764 -0.25,16.236c0,11.65 0.361,23.046 1.08,34.078l0.034,0.525l0.221,3.759l0.678,8.187c1.495,17.562 3.866,34.089 6.943,49.167c-11.452,2.617 -26.629,-0.34 -43.83,-7.965c-3.419,-16.289 -5.952,-33.784 -7.425,-52.138l0,0Z" style="fill:rgb(198,199,200);"/>        </g>        <g transform="matrix(2.38372,0,0,2.38372,-1591.99,-995.523)">            <path d="M732.503,683.39c-69.707,-82.878 -95.325,-175.883 -57.116,-208.468c38.572,-32.895 127.677,8.16 198.857,91.624l2.391,2.871c-1.075,5.585 -2.046,11.301 -2.898,17.145c-2.793,-3.464 -5.663,-6.911 -8.598,-10.352c-62.157,-72.884 -134.909,-113.048 -162.363,-89.635c-27.453,23.413 3.357,98.08 65.514,170.964c5.645,6.618 11.399,12.978 17.257,19.055c4.147,4.336 8.326,8.527 12.52,12.557c27.48,26.454 55.67,46.306 79.853,56.976l0.403,0.178c17.041,7.497 32.071,10.395 43.427,7.787l0.207,-0.048c4.347,-1.009 8.159,-2.848 11.331,-5.553c7.776,-6.632 10.666,-17.48 9.333,-31.286c2.878,1.636 5.577,3.327 8.074,5.073c1.823,23.97 -3.672,43.416 -17.369,55.097c-1.504,1.282 -3.084,2.452 -4.747,3.501l-0.161,0.101c-10.407,6.61 -23.677,8.866 -38.805,7.225c-40.469,-4.39 -98.071,-39.005 -147.329,-93.607l-7.815,-8.845l-1.966,-2.36Z" style="fill:rgb(135,136,138);"/>        </g>    </g></svg>