<?xml version="1.0" encoding="UTF-8" standalone="no"?><!DOCTYPE svg PUBLIC "-//W3C//DTD SVG 1.1//EN" "http://www.w3.org/Graphics/SVG/1.1/DTD/svg11.dtd"><svg width="100%" height="100%" viewBox="0 0 512 512" version="1.1" xmlns="http://www.w3.org/2000/svg" xmlns:xlink="http://www.w3.org/1999/xlink" xml:space="preserve" style="fill-rule:evenodd;clip-rule:evenodd;stroke-linejoin:round;stroke-miterlimit:2;"><title>Rendity</title><desc>Rendity gives investors the opportunity to invest in high quality real estate projects in Vienna, the most liveable city in the world.</desc>    <g transform="matrix(4.63536,0,0,4.63536,-40.631,-40.7177)">        <path d="M116.69,115.55l-32,-37.45c21.207,-2.507 31.81,-13.737 31.81,-33.69c0,-12 -3.603,-20.907 -10.81,-26.72c-7.207,-5.813 -18.437,-8.71 -33.69,-8.69l-32,0c-1.773,0 -2.66,0.837 -2.66,2.51l0,28.05l-26.7,0l0,12.38l26.77,0l0,15.2l-26.77,0l0,12.38l26.77,0l0,36.82c-0.016,0.111 -0.024,0.222 -0.024,0.334c0,1.289 1.061,2.35 2.35,2.35c0.112,0 0.223,-0.008 0.334,-0.024l8.15,0c0.111,0.016 0.222,0.024 0.334,0.024c1.289,0 2.35,-1.061 2.35,-2.35c0,-0.112 -0.008,-0.223 -0.024,-0.334l0,-36.82l19.12,0l31.65,37.48c0.932,1.23 2.377,1.968 3.92,2l9.56,0c1.147,0 1.853,-0.367 2.12,-1.1c0.239,-0.826 0.026,-1.72 -0.56,-2.35Zm-65.81,-48.42l0,-15.19l19.32,0l0,-12.38l-19.32,0l0,-18.18l20.84,0c11.073,0 19.04,1.803 23.9,5.41c4.86,3.607 7.29,9.483 7.29,17.63c0,7.94 -2.377,13.71 -7.13,17.31c-4.753,3.6 -12.877,5.4 -24.37,5.4l-20.53,0Z" style="fill:rgb(0,162,166);fill-rule:nonzero;"/>    </g></svg>