<?xml version="1.0" encoding="UTF-8" standalone="no"?><!DOCTYPE svg PUBLIC "-//W3C//DTD SVG 1.1//EN" "http://www.w3.org/Graphics/SVG/1.1/DTD/svg11.dtd"><svg width="100%" height="100%" viewBox="0 0 512 512" version="1.1" xmlns="http://www.w3.org/2000/svg" xmlns:xlink="http://www.w3.org/1999/xlink" xml:space="preserve" style="fill-rule:evenodd;clip-rule:evenodd;stroke-linejoin:round;stroke-miterlimit:2;"><title>Growth Street</title><desc>Ambitious businesses use GrowthLine to manage working capital and cash flow. Businesses of all shapes and sizes have working capital tied up in assets. GrowthLine helps you unlock these funds and put them to work.</desc>    <g id="Growth-Street" transform="matrix(4.63669,0,0,4.63669,-40.7657,-40.6554)">        <path id="_7a5d2bb6-9fc4-4515-b726-41d8fbbc3c83" d="M114.46,34.09l-33.75,0c-2.494,0.003 -4.545,2.056 -4.545,4.55c0,1.208 0.48,2.367 1.335,3.22l1.74,1.74l-20.18,20.23l-18.46,-18.51c-0.85,-0.853 -2.006,-1.334 -3.21,-1.334c-1.204,0 -2.36,0.481 -3.21,1.334l-23.85,23.91c-1.763,1.768 -1.763,4.672 0,6.44l12.08,12.11l0.5,0.48c3.849,3.615 8.94,5.623 14.22,5.61l43.87,0c5.543,0.015 10.867,-2.194 14.77,-6.13l13.79,-13.83l1.74,1.74c0.827,0.846 1.957,1.332 3.14,1.35c2.49,0 4.544,-2.04 4.56,-4.53l0,-33.83c0,-2.492 -2.048,-4.545 -4.54,-4.55Zm-82.64,53.33c-2.216,0.008 -4.357,-0.813 -6,-2.3l-0.39,-0.38l-12.08,-12.11c-0.049,-0.049 -0.077,-0.116 -0.077,-0.185c0,-0.069 0.028,-0.136 0.077,-0.185l23.86,-23.91c0.1,-0.096 0.26,-0.096 0.36,0l18.43,18.51l-17.85,17.93c-1.675,1.689 -3.961,2.637 -6.34,2.63l0.01,0Zm82.9,-14.95c0,0.26 -0.27,0.26 -0.28,0.26c-0.066,0 -0.128,-0.029 -0.17,-0.08l-4.76,-4.78l-16.82,16.87c-3.089,3.119 -7.3,4.877 -11.69,4.88l-13.84,0l5.84,-5.89l-3.45,-3.46l-9.28,9.3l-21.27,0.05c0.802,-0.515 1.546,-1.116 2.22,-1.79l17.84,-17.93l26.24,-26.3l-4.76,-4.78c-0.046,-0.048 -0.072,-0.113 -0.072,-0.18c0,-0.14 0.112,-0.256 0.252,-0.26l33.75,0c0.143,0 0.26,0.117 0.26,0.26l-0.01,33.83Z" style="fill:rgb(104,194,198);fill-rule:nonzero;"/>        <path id="fe268e5b-6925-4142-9888-d34a66e330de" d="M91.75,57.99l3.41,3.42l9.53,-9.56l-3.41,-3.41l-9.53,9.55Z" style="fill:rgb(104,194,198);fill-rule:nonzero;"/>        <path id="_165a81c2-7891-4e73-8ce9-2ff437d87b5a" d="M75.92,73.86l3.41,3.42l9.53,-9.55l-3.41,-3.42l-9.53,9.55Z" style="fill:rgb(104,194,198);fill-rule:nonzero;"/>    </g></svg>