<?xml version="1.0" encoding="UTF-8" standalone="no"?><!DOCTYPE svg PUBLIC "-//W3C//DTD SVG 1.1//EN" "http://www.w3.org/Graphics/SVG/1.1/DTD/svg11.dtd"><svg width="100%" height="100%" viewBox="0 0 512 512" version="1.1" xmlns="http://www.w3.org/2000/svg" xmlns:xlink="http://www.w3.org/1999/xlink" xml:space="preserve" style="fill-rule:evenodd;clip-rule:evenodd;stroke-linejoin:round;stroke-miterlimit:2;"><title>Loanpad</title><desc>A peer-to-peer lending platform with the operational simplicity and control of an online account. Inflation-busting interest paid daily. Watch your money grow with Loanpad.Loanpad changes the landscape for investors. It offers two online lending accounts that are simple and flexible to operate, and with daily interest that beats inflation. Both are also available as an ISA for tax-free returns, and come with some degree of risk.</desc>    <g transform="matrix(6.74894,0,0,6.76836,13.3996,903.841)">        <g transform="matrix(4.16667,0,0,4.16667,63.4854,-64.4041)">            <path d="M0,-11.314l-2.175,0.013c1.972,2.283 1.875,5.736 -0.292,7.903c-1.982,1.981 -5.037,2.233 -7.292,0.756l-2.425,0l0,2.219c3.547,2.814 8.718,2.583 11.996,-0.695c3.465,-3.466 3.528,-9.045 0.188,-12.587l0,2.391Z" style="fill:rgb(114,115,117);fill-rule:nonzero;"/>        </g>        <g transform="matrix(4.16667,0,0,4.16667,8.4075,-127.027)">            <path d="M0,11.314l2.175,-0.013c-1.971,-2.283 -1.875,-5.736 0.292,-7.904c1.982,-1.981 5.037,-2.232 7.292,-0.755l2.425,0l0,-2.219c-3.547,-2.814 -8.717,-2.584 -11.996,0.695c-3.465,3.466 -3.528,9.045 -0.188,12.587l0,-2.391Z" style="fill:rgb(86,152,137);fill-rule:nonzero;"/>        </g>    </g></svg>