<?xml version="1.0" encoding="UTF-8" standalone="no"?><!DOCTYPE svg PUBLIC "-//W3C//DTD SVG 1.1//EN" "http://www.w3.org/Graphics/SVG/1.1/DTD/svg11.dtd"><svg width="100%" height="100%" viewBox="0 0 512 512" version="1.1" xmlns="http://www.w3.org/2000/svg" xmlns:xlink="http://www.w3.org/1999/xlink" xml:space="preserve" style="fill-rule:evenodd;clip-rule:evenodd;stroke-linejoin:round;stroke-miterlimit:2;"><title>The House Crowd</title><desc>The House Crowd offers simple, transparent property investments that remove the uncertainties usually faced by small investors and enabling anybody to build a property based investment portfolio that delivers predictable, consistent returns.</desc>    <g transform="matrix(3.08003,0,0,3.08003,30.0795,370.878)">        <g transform="matrix(0.483308,0,0,0.483308,-19.9233,-132.957)">            <path d="M354.214,45.475c0,-4.842 -3.931,-8.773 -8.773,-8.773l-304.903,0c-4.842,0 -8.773,3.931 -8.773,8.773l0,304.903c0,4.842 3.931,8.774 8.773,8.774l304.903,0c4.842,0 8.773,-3.932 8.773,-8.774l0,-304.903Z" style="fill:rgb(32,54,105);"/>        </g>        <g transform="matrix(0.598665,0,0,0.598665,-1.32451,-57.7329)">            <path d="M0,68.27l81.47,-68.27c0,0 87.39,40.05 168,55.53c0,0 -41,2.73 -167.49,-36l-81.98,48.74Z" style="fill:white;fill-rule:nonzero;"/>        </g>    </g></svg>