<?xml version="1.0" encoding="UTF-8" standalone="no"?><!DOCTYPE svg PUBLIC "-//W3C//DTD SVG 1.1//EN" "http://www.w3.org/Graphics/SVG/1.1/DTD/svg11.dtd"><svg width="100%" height="100%" viewBox="0 0 512 512" version="1.1" xmlns="http://www.w3.org/2000/svg" xmlns:xlink="http://www.w3.org/1999/xlink" xml:space="preserve" style="fill-rule:evenodd;clip-rule:evenodd;stroke-linejoin:round;stroke-miterlimit:2;"><title>Mongoose Crowd</title><desc>Mongoose Crowd offers bond and share investments in renewable energy projects across the UKThe team at Mongoose is now applying their renewable energy finance expertise to crowdfunding. Bonds will typically offer between 4-7% interest</desc>    <g transform="matrix(6.13562,0,0,6.13562,-3587.51,-1439.45)">        <path d="M641.445,291.691c-3.955,7.237 -9.469,11.73 -15.564,11.73c-6.095,0 -11.609,-4.493 -15.564,-11.73c4.678,2.674 9.966,4.181 15.564,4.181c5.598,0 10.886,-1.507 15.564,-4.181Z" style="fill:rgb(134,195,65);"/>        <path d="M626.943,252.325c4.676,3.088 30.189,20.192 30.189,38.143c0,17.951 -12.116,27.422 -30.703,27.422c-18.586,0 -30.178,-9.436 -30.178,-27.387c0,-17.952 26.051,-35.603 30.692,-38.178Zm-0.117,16.312c2.492,1.646 16.088,12.761 16.088,22.327c0,9.566 -6.457,14.613 -16.362,14.613c-9.905,0 -16.082,-5.028 -16.082,-14.594c0,-9.567 13.883,-20.974 16.356,-22.346Z" style="fill:rgb(0,167,227);"/>        <path d="M591.516,291.083c-4.176,-5.699 -6.602,-12.487 -6.602,-19.77c0,-20.17 18.601,-36.545 41.513,-36.545c22.911,0 41.512,16.375 41.512,36.545c0,7.551 -2.607,14.571 -7.073,20.399c-1.271,-8.145 -3.985,-15.544 -7.75,-21.655c-1.257,-11.864 -12.612,-21.163 -26.414,-21.163c-12.908,0 -23.675,8.132 -26.046,18.889c-4.435,6.357 -7.657,14.368 -9.14,23.3Z" style="fill:rgb(134,195,65);"/>    </g></svg>