<?xml version="1.0" encoding="UTF-8" standalone="no"?><!DOCTYPE svg PUBLIC "-//W3C//DTD SVG 1.1//EN" "http://www.w3.org/Graphics/SVG/1.1/DTD/svg11.dtd"><svg width="100%" height="100%" viewBox="0 0 512 512" version="1.1" xmlns="http://www.w3.org/2000/svg" xmlns:xlink="http://www.w3.org/1999/xlink" xml:space="preserve" style="fill-rule:evenodd;clip-rule:evenodd;stroke-linejoin:round;stroke-miterlimit:2;"><title>Lendosphere</title><desc>Lendosphere is the crowdfunding platform for paid loans dedicated to the energy transition.At Lendosphere, individuals lend, with interest, to project owners they believe in. For individuals, it is the opportunity to know where their savings are and what it is for. For project leaders, it's a new and responsive way of funding and a tailor-made communication campaign.</desc>    <g transform="matrix(2.51734,0,0,2.51734,-163.835,-570.039)">        <g transform="matrix(0.12,0,0,0.12,0,0.33397)">            <path d="M1905,3084c15.667,0 -2.788,-151.857 52,-244c66,-111 315,-193 272,-286c-33.829,-73.165 -276,-122 -289,-99c-32.312,57.168 -12,162 -35,162c-24.021,0 4.527,-162.495 -42,-162c-94,1 -281,25 -282,124c-0.798,78.965 243.12,181.343 282,261c41,84 26.333,244 42,244Z"/>        </g>        <g transform="matrix(0.12,0,0,0.12,-63.5998,40.92)">            <path d="M1905,3084c15.667,0 -2.788,-151.857 52,-244c66,-111 315,-193 272,-286c-33.829,-73.165 -276,-122 -289,-99c-32.312,57.168 -12,162 -35,162c-24.021,0 4.527,-162.495 -42,-162c-94,1 -281,25 -282,124c-0.798,78.965 243.12,181.343 282,261c41,84 26.333,244 42,244Z"/>        </g>        <g transform="matrix(0.12,0,0,0.12,-124.24,0.33397)">            <path d="M1905,3084c15.667,0 -2.788,-151.857 52,-244c66,-111 315,-193 272,-286c-33.829,-73.165 -276,-122 -289,-99c-32.312,57.168 -12,162 -35,162c-24.021,0 4.527,-162.495 -42,-162c-94,1 -281,25 -282,124c-0.798,78.965 243.12,181.343 282,261c41,84 26.333,244 42,244Z"/>        </g>        <g transform="matrix(0.12,0,0,0.12,-63.5998,-48.6318)">            <path d="M1905,3084c15.667,0 -2.788,-151.857 52,-244c66,-111 315,-193 272,-286c-33.829,-73.165 -276,-122 -289,-99c-32.312,57.168 -12,162 -35,162c-24.021,0 4.527,-162.495 -42,-162c-94,1 -281,25 -282,124c-0.798,78.965 243.12,181.343 282,261c41,84 26.333,244 42,244Z" style="fill:rgb(205,218,42);"/>        </g>    </g></svg>