<?xml version="1.0" encoding="UTF-8" standalone="no"?><!DOCTYPE svg PUBLIC "-//W3C//DTD SVG 1.1//EN" "http://www.w3.org/Graphics/SVG/1.1/DTD/svg11.dtd"><svg width="100%" height="100%" viewBox="0 0 512 512" version="1.1" xmlns="http://www.w3.org/2000/svg" xmlns:xlink="http://www.w3.org/1999/xlink" xml:space="preserve" style="fill-rule:evenodd;clip-rule:evenodd;stroke-linejoin:round;stroke-miterlimit:2;"><title>Finsputnik Platforma</title><desc>Finsputnik is a provider of revolutionary b2b software that allows to operate the custom-made P2P lending software. Now any business that wants to own and operate a P2P lending platform can get such software designed specifically for their business needs. Finsputnik has proved itself as a frontrunner of developing custom-made P2P investment software solutions.</desc>    <g transform="matrix(1.55474,0,0,1.55474,-321.036,-311.185)">        <g transform="matrix(0.546917,0,0,0.546917,0.0146528,0.000406969)">            <path d="M965.1,464.2c-25.2,-48 -79.1,-71.3 -129.5,-59.7l0.2,1c0.3,1.6 -0.6,3.1 -2.2,3.6c-10.2,3.2 -20.8,6.3 -32.8,9.6c-48.9,29.8 -68.8,90.7 -47.5,143.4c0.8,-0.4 1.7,-0.9 2.5,-1.3c19.1,-9.4 36.2,-17.4 52.3,-24.6c21.2,-9.5 37.7,-16.4 53.6,-22.4c0.4,-0.1 0.7,-0.2 1.1,-0.2c1.2,0 2.3,0.6 2.8,1.7l0.8,1.5c0.7,1.4 0.3,3.2 -1,4.1c-13.9,9.7 -29,19.4 -48.9,31.4c-15.1,9.2 -31.5,18.7 -50,29c-0.8,0.5 -1.7,0.9 -2.5,1.4c31.2,47.6 92.8,65.8 145.1,42.4c9.5,-8 18,-14.9 26.4,-21.4c0.6,-0.4 1.3,-0.7 1.9,-0.7c0.8,0 1.6,0.3 2.3,0.9l0.7,0.7c38.3,-34.8 49.9,-92.3 24.7,-140.4Z" style="fill:rgb(22,44,79);fill-rule:nonzero;"/>        </g>        <g transform="matrix(0.546917,0,0,0.546917,0.0146528,0.000406969)">            <path d="M863.7,518.3c-15.9,11.1 -32.2,21.3 -48.7,31.3c-16.5,10 -33.1,19.6 -49.9,29c-16.8,9.4 -33.8,18.2 -51.1,26.7c-17.3,8.4 -34.6,16.8 -51.8,25.4l-51.6,25.8l-51.7,25.5l-51.8,25.3l-26.1,12.6l-26,12.6l-0.8,-1.5l25.1,-14.2l25.2,-14.1l50.3,-28.2l50.4,-28l50.6,-27.8c16.9,-9.2 33.6,-18.8 50.3,-28.2c16.8,-9.4 33.8,-18.4 51,-26.8c17.3,-8.5 34.6,-16.7 52.2,-24.6c17.6,-7.9 35.3,-15.5 53.4,-22.3l1,1.5Z" style="fill:rgb(22,44,79);fill-rule:nonzero;"/>        </g>        <g transform="matrix(0.546917,0,0,0.546917,0.0146528,0.000406969)">            <path d="M832.6,406.1c-18.5,5.9 -37.1,10.9 -55.8,15.5c-18.7,4.7 -37.4,9 -56.2,13c-18.8,4 -37.7,7.5 -56.7,10.4c-19,3 -38,5.8 -57,9l-56.9,9.4l-57,9.2l-57,8.9l-28.5,4.5l-28.5,4.3l-0.3,-1.7l28.2,-6.2l28.2,-6.1l56.4,-12.1l56.5,-11.9l56.5,-11.6c18.8,-3.9 37.6,-8 56.4,-12.1c18.8,-4 37.7,-7.6 56.7,-10.6c19,-3 38,-5.8 57.2,-8.1c19.1,-2.4 38.3,-4.4 57.6,-5.6l0.2,1.8Z" style="fill:rgb(22,44,79);fill-rule:nonzero;"/>        </g>        <g transform="matrix(1.30752,0,0,1.30752,-1.27518,-79.7249)">            <path d="M308.886,395.31c0,0 47.517,-48.772 47.768,-48.982c5.856,-5.521 11.796,-10.959 17.861,-16.271c6.065,-5.312 12.214,-10.541 18.614,-15.476l0.502,0.502c-5.02,6.358 -10.29,12.464 -15.644,18.488c-2.342,2.635 -4.727,5.228 -7.111,7.822l-4.852,5.186c-1.464,1.59 -74.12,71.444 -74.12,71.444l-17.61,16.522l-8.784,8.282l-8.826,8.198l-0.502,-0.502l8.282,-8.742l8.324,-8.742l16.648,-17.484l19.45,-20.245Z" style="fill:rgb(22,44,79);fill-rule:nonzero;"/>        </g>    </g></svg>