<?xml version="1.0" encoding="UTF-8" standalone="no"?><!DOCTYPE svg PUBLIC "-//W3C//DTD SVG 1.1//EN" "http://www.w3.org/Graphics/SVG/1.1/DTD/svg11.dtd"><svg width="100%" height="100%" viewBox="0 0 512 512" version="1.1" xmlns="http://www.w3.org/2000/svg" xmlns:xlink="http://www.w3.org/1999/xlink" xml:space="preserve" style="fill-rule:evenodd;clip-rule:evenodd;stroke-linejoin:round;stroke-miterlimit:2;"><title>gofingo KZ</title><desc>Gofingo.kz is a part of a private holding company, which successfully operates in the Czech Republic, Denmark, Lithuania and Ukraine since 2015. Established in 2018, Gofingo.kz, has managed to build a well-performing portfolio relatively quickly. Because of the international experience of their specialists, they provide simple, fast and transparent services.  Listed loans on the platform will range from 16 Eur up to 350 Eur. Additionally, some things haven't changed with a new loan originator: all loans are secured with 100% buyback guarantee.</desc>    <g transform="matrix(4.78534,0,0,4.78534,-679.606,15.6715)">        <path d="M218.82,1.145c5.271,-1.4 10.812,-1.435 16.1,-0.1c-1.13,4.33 -2.12,8.7 -3.31,13c-3.64,-1 -7.84,-1.41 -11.15,0.76c-3.94,2.53 -5.56,7.24 -6.46,11.66c-4.45,24.62 -8.62,49.29 -13.08,73.91c-3.55,-4.64 -6.58,-9.65 -10,-14.38c-0.67,-1.08 -1.78,-2.15 -1.47,-3.53c0.65,-4.45 1.56,-8.87 2.17,-13.34c-4.06,-0.14 -8.13,0 -12.19,-0.09c-2.73,-4.09 -5.6,-8.09 -8.21,-12.26c7.56,-0.15 15.11,0 22.67,-0.06c0.49,-3.13 1.09,-6.25 1.54,-9.38c-10,-0.08 -19.92,0 -29.87,0c-0.91,0.12 -1.4,-0.74 -1.87,-1.35c-2.5,-3.673 -5.027,-7.34 -7.58,-11c13.77,-0.1 27.54,0 41.31,0c1.41,-7.27 2.52,-14.8 6.23,-21.34c3.106,-6.085 8.604,-10.615 15.17,-12.5Z" style="fill:rgb(34,34,72);fill-rule:nonzero;"/>    </g></svg>