<?xml version="1.0" encoding="UTF-8" standalone="no"?><!DOCTYPE svg PUBLIC "-//W3C//DTD SVG 1.1//EN" "http://www.w3.org/Graphics/SVG/1.1/DTD/svg11.dtd"><svg width="100%" height="100%" viewBox="0 0 512 512" version="1.1" xmlns="http://www.w3.org/2000/svg" xmlns:xlink="http://www.w3.org/1999/xlink" xml:space="preserve" style="fill-rule:evenodd;clip-rule:evenodd;stroke-linejoin:round;stroke-miterlimit:2;"><title>Orca Money</title><desc>Orca was founded in 2015 with the goal of driving the adoption and growth of an exciting new asset class: Direct Lending. Direct lending has the potential to disintermediate banks and large financial institutions, with the benefits going to both lenders and borrowers.Since inception, Orca has been providing research services, risk management and reporting across the direct lending industry. In 2017, Orca launched the industry-leading Orca Investment Platform, an efficient and cutting-edge way to invest across the P2P market.</desc>    <g transform="matrix(4.4328,0,0,4.4328,-2148.68,-54.7527)">        <path d="M575.258,45.227c-0.153,-1.06 -0.123,-2.138 -0.481,-3.063c-0.757,-2.003 -2.289,-3.394 -4.063,-4.525c-4.74,-3.032 -10.012,-4.603 -15.537,-5.127c-2.155,-0.205 -3.548,-1.122 -4.719,-2.74c-0.297,-0.416 -0.609,-0.831 -0.898,-1.257c-1.334,-1.983 -2.588,-4.025 -4.02,-5.93c-0.69,-0.92 -1.641,-1.649 -2.572,-2.336c-0.687,-0.5 -1.274,-0.233 -1.371,0.673c-0.092,0.794 -0.086,1.59 -0.161,2.387c-0.215,2.426 -0.27,4.878 -0.721,7.256c-0.355,1.896 -1.665,3.122 -3.586,3.79c-2.019,0.693 -4.018,1.551 -5.89,2.592c-7.19,3.999 -12.403,9.693 -14.72,17.814c-0.203,0.738 -0.608,1.461 -1.095,2.053c-1.832,2.255 -3.645,4.502 -4.496,7.722c6.923,-6.923 14.653,-11.946 24.09,-14.496l4.894,-1.021c5.283,-0.959 10.616,-1.178 15.971,-0.401c1.132,0.165 1.769,0.575 2.286,1.641c0.67,1.374 1.565,2.665 2.533,3.848c0.709,0.87 1.749,1.347 2.872,0.676c1.663,-0.995 1.855,-5.59 0.373,-6.821c-0.139,-0.115 -0.276,-0.228 -0.412,-0.343c10.552,0.553 11.723,-2.392 11.723,-2.392" style="fill:rgb(18,34,80);"/>        <path d="M487.259,120.206c-1.264,0 -2.297,-0.986 -2.31,-2.211c-0.017,-1.239 1.002,-2.252 2.283,-2.268c4.949,-0.056 9.92,-1.854 15.649,-5.665c0.953,-0.637 1.815,-0.951 2.627,-0.951c1.085,0 2.055,0.554 2.859,1.095c5.426,3.653 10.504,5.46 15.525,5.521l0.248,0c4.963,-0.067 9.937,-1.865 15.646,-5.665c2.016,-1.337 3.289,-1.351 5.497,0.15c5.437,3.653 10.524,5.459 15.531,5.515l0.237,0c4.968,-0.067 9.942,-1.865 15.652,-5.665c0.986,-0.652 1.82,-0.951 2.633,-0.951c1.104,0 2.112,0.589 2.864,1.103c5.384,3.619 10.466,5.415 15.514,5.476c1.278,0.016 2.302,1.028 2.286,2.265c-0.017,1.228 -1.05,2.211 -2.314,2.211l-0.03,0c-6.004,-0.077 -11.925,-2.129 -18.106,-6.285c-0.082,-0.054 -0.151,-0.099 -0.212,-0.139l-0.022,0.016c-6.488,4.317 -12.275,6.366 -18.205,6.443l-0.294,0.005c-6.021,-0.069 -11.948,-2.139 -18.183,-6.325c-0.08,-0.054 -0.149,-0.099 -0.212,-0.139l-0.011,0.011c-6.5,4.322 -12.289,6.371 -18.213,6.448l-0.309,0.005c-6.031,-0.072 -11.953,-2.142 -18.169,-6.325c-0.077,-0.054 -0.148,-0.099 -0.209,-0.136l-0.006,0.005c-6.521,4.338 -12.308,6.387 -18.218,6.456l-0.028,0Z" style="fill:rgb(18,34,80);"/>        <path d="M487.259,105.361c-1.264,0 -2.297,-0.983 -2.31,-2.211c-0.017,-1.234 1.002,-2.249 2.283,-2.265c4.949,-0.059 9.92,-1.857 15.649,-5.667c0.947,-0.639 1.815,-0.953 2.627,-0.953c1.077,0 2.044,0.551 2.851,1.092c5.436,3.661 10.515,5.469 15.533,5.528l0.248,-0.003c4.96,-0.066 9.934,-1.864 15.646,-5.664c1.997,-1.332 3.267,-1.356 5.489,0.142c5.448,3.66 10.532,5.466 15.539,5.525l0.237,-0.003c4.968,-0.066 9.942,-1.864 15.652,-5.664c2.024,-1.342 3.285,-1.348 5.494,0.144c5.387,3.624 10.466,5.419 15.52,5.483c1.278,0.019 2.299,1.031 2.283,2.27c-0.017,1.225 -1.052,2.206 -2.314,2.206l-0.03,0c-6.007,-0.072 -11.931,-2.131 -18.108,-6.287c-0.08,-0.054 -0.146,-0.099 -0.207,-0.136c0,0 -0.014,0.005 -0.019,0.01c-6.497,4.324 -12.284,6.373 -18.211,6.45l-0.294,0.003c-6.021,-0.067 -11.948,-2.139 -18.183,-6.327c-0.08,-0.054 -0.149,-0.099 -0.209,-0.136l-0.011,0.005c-6.506,4.329 -12.295,6.378 -18.216,6.455l-0.309,0.003c-6.028,-0.072 -11.953,-2.142 -18.169,-6.327c-0.077,-0.054 -0.146,-0.096 -0.209,-0.136l-0.003,0.002c-6.524,4.343 -12.311,6.394 -18.221,6.461l-0.028,0Z" style="fill:rgb(18,34,80);"/>        <path d="M487.259,90.515c-1.264,0 -2.297,-0.983 -2.31,-2.212c-0.017,-1.237 1.002,-2.252 2.283,-2.266c4.949,-0.058 9.92,-1.86 15.646,-5.672c0.972,-0.647 1.81,-0.951 2.63,-0.951c1.088,0 2.055,0.554 2.859,1.095c5.428,3.655 10.507,5.467 15.525,5.528l0.248,-0.002c4.963,-0.067 9.937,-1.866 15.646,-5.67c2.019,-1.332 3.313,-1.335 5.497,0.147c5.437,3.654 10.518,5.464 15.534,5.525l0.234,-0.002c4.968,-0.067 9.945,-1.866 15.652,-5.67c2.04,-1.343 3.332,-1.327 5.497,0.15c5.392,3.622 10.471,5.418 15.514,5.48c1.278,0.016 2.302,1.029 2.286,2.265c-0.017,1.229 -1.05,2.213 -2.314,2.213l-0.03,0c-5.998,-0.072 -11.923,-2.127 -18.106,-6.288c-0.082,-0.056 -0.151,-0.099 -0.212,-0.139l-0.024,0.016c-6.486,4.324 -12.273,6.373 -18.203,6.448l-0.294,0.005c-6.026,-0.072 -11.953,-2.145 -18.183,-6.33c-0.08,-0.056 -0.149,-0.099 -0.212,-0.139c-0.006,0.003 -0.011,0.008 -0.011,0.008c-6.5,4.332 -12.289,6.381 -18.213,6.456l-0.309,0.005c-6.031,-0.077 -11.953,-2.145 -18.169,-6.33c-0.077,-0.053 -0.148,-0.099 -0.209,-0.136l-0.006,0.003c-6.519,4.342 -12.305,6.394 -18.218,6.463l-0.028,0Z" style="fill:rgb(18,34,80);"/>    </g></svg>