<?xml version="1.0" encoding="UTF-8" standalone="no"?><!DOCTYPE svg PUBLIC "-//W3C//DTD SVG 1.1//EN" "http://www.w3.org/Graphics/SVG/1.1/DTD/svg11.dtd"><svg width="100%" height="100%" viewBox="0 0 512 512" version="1.1" xmlns="http://www.w3.org/2000/svg" xmlns:xlink="http://www.w3.org/1999/xlink" xml:space="preserve" style="fill-rule:evenodd;clip-rule:evenodd;stroke-linejoin:round;stroke-miterlimit:2;"><title>Invesdor</title><desc>Invesdor Group offers a variety of investment opportunities from different business sectors, across several European countries and with both equity and bond opportunities. We are MiFID II -licensed investment service, licensed to help companies in 30 countries across the European Economic Area. Currently Invesdor Group actively operates in six countries: Finland, Austria, Sweden, Denmark, Norway and Germany.</desc>    <g transform="matrix(29.0814,0,0,29.0814,-3002.58,1)">        <g transform="matrix(0.13669,0,0,0.13669,-0.27338,-26.2242)">            <path d="M821.591,320.149c39.907,0 62.711,-19.79 62.711,-64.233c0,-44.275 -22.804,-64.065 -62.719,-64.065c-39.754,0 -62.404,19.79 -62.404,64.065c0,44.443 22.65,64.233 62.404,64.233l0.008,0Zm-0.004,-12.247c33.87,-0.001 49.451,-18.108 49.451,-51.818c0,-33.543 -15.582,-51.65 -49.455,-51.65c-33.704,0 -49.14,18.107 -49.14,51.65c0,33.71 15.421,51.817 49.144,51.818l-0.004,0l0.008,0l-0.004,0Z" style="fill:rgb(255,76,136);"/>        </g>        <path d="M112.027,9.793c0.575,0 1.042,-0.466 1.042,-1.04c0,-0.576 -0.468,-1.042 -1.043,-1.042c-0.575,0 -1.04,0.467 -1.04,1.042c0,0.575 0.466,1.04 1.04,1.04" style="fill:rgb(255,76,136);"/>    </g></svg>