<?xml version="1.0" encoding="UTF-8" standalone="no"?><!DOCTYPE svg PUBLIC "-//W3C//DTD SVG 1.1//EN" "http://www.w3.org/Graphics/SVG/1.1/DTD/svg11.dtd"><svg width="100%" height="100%" viewBox="0 0 512 512" version="1.1" xmlns="http://www.w3.org/2000/svg" xmlns:xlink="http://www.w3.org/1999/xlink" xml:space="preserve" style="fill-rule:evenodd;clip-rule:evenodd;stroke-linejoin:round;stroke-miterlimit:2;"><title>Lendify</title><desc>Lendify is building the next-generation bank that, through data and technology, wants to streamline the loan market and improve the economy of Swedish households.Lendify is aimed at Swedish households with high credit ratings, which in many cases already have loans from one of the banks, but can and want to get better terms. Lendify was founded in 2014 and is licensed as a payment institution by Finansinspektionen.</desc>    <g transform="matrix(10.8006,0,0,10.8006,-4375.02,-1930.23)">        <g transform="matrix(1.75813,0,0,1.75813,452.382,194.536)">            <path d="M0,0.003c0,4.94 -4.006,8.946 -8.949,8.946l-0.014,0l0,-4.466l0.015,0c2.475,0 4.482,-2.006 4.482,-4.48c0,-2.477 -2.007,-4.482 -4.482,-4.482c-2.474,0 -4.481,2.005 -4.481,4.482l0,8.946l-4.466,0l0,-4.466l0,-4.466l0,-0.014c0,-4.942 4.007,-8.949 8.946,-8.949c4.943,0 8.949,4.007 8.949,8.949" style="fill:rgb(142,198,199);fill-rule:nonzero;"/>        </g>        <g transform="matrix(1.75813,0,0,1.75813,428.773,210.296)">            <path d="M0,-0.001l0,-0.014l0,-4.466l0,-4.467l4.466,0l0,8.947c0,4.941 -4.007,8.948 -8.946,8.948c-4.942,0 -8.949,-4.007 -8.949,-8.948c0,-4.94 4.007,-8.947 8.949,-8.947l0.014,0l0,4.467l-0.014,0c-2.477,0 -4.483,2.006 -4.483,4.48c0,2.476 2.006,4.482 4.483,4.482c2.473,0 4.48,-2.006 4.48,-4.482" style="fill:rgb(51,168,151);fill-rule:nonzero;"/>        </g>    </g></svg>