<?xml version="1.0" encoding="UTF-8" standalone="no"?><!DOCTYPE svg PUBLIC "-//W3C//DTD SVG 1.1//EN" "http://www.w3.org/Graphics/SVG/1.1/DTD/svg11.dtd"><svg width="100%" height="100%" viewBox="0 0 512 512" version="1.1" xmlns="http://www.w3.org/2000/svg" xmlns:xlink="http://www.w3.org/1999/xlink" xml:space="preserve" style="fill-rule:evenodd;clip-rule:evenodd;stroke-linejoin:round;stroke-miterlimit:2;"><title>CrowdCube</title><desc>Crowdcube is a leading equity crowdfunding platform for entrepreneurs of start-ups and growing businesses to connect with potential investors. Dedicated to helping UK-based entrepreneurs raise finance to start or grow their business, Crowdcube gives investors real equity in the companies they fund. Crowdcube uses the web-based notion of ‘crowdfunding’ where a community of like minded people pool their money and knowledge together to back an idea, business or person.</desc>    <g transform="matrix(13.7947,0,0,13.7555,-47.3088,-330.855)">        <g transform="matrix(0.0724916,0,0,0.0726982,3.42949,24.0526)">            <path d="M409.268,0l102.732,0l0,512l-264.859,0c-136.628,0 -247.141,-109.238 -247.141,-244.29c0,-122.331 91.59,-225.958 214.593,-242.044l194.675,-25.666Z" style="fill:rgb(255,81,0);fill-rule:nonzero;"/>        </g>        <path d="M25.707,47.567c-1.07,1.224 -2.661,1.985 -4.417,1.985c-3.265,0 -5.926,-2.611 -5.926,-5.874c0,-3.237 2.634,-5.875 5.926,-5.875c1.756,0 3.347,0.762 4.417,1.986l4.5,-0.272c-1.564,-3.318 -4.966,-5.63 -8.917,-5.63c-5.432,0 -9.849,4.379 -9.849,9.764c0,5.385 4.417,9.763 9.849,9.763c3.951,0 7.353,-2.311 8.917,-5.629l-4.5,-0.218Z" style="fill:white;fill-rule:nonzero;"/>    </g></svg>