<?xml version="1.0" encoding="UTF-8" standalone="no"?><!DOCTYPE svg PUBLIC "-//W3C//DTD SVG 1.1//EN" "http://www.w3.org/Graphics/SVG/1.1/DTD/svg11.dtd"><svg width="100%" height="100%" viewBox="0 0 512 512" version="1.1" xmlns="http://www.w3.org/2000/svg" xmlns:xlink="http://www.w3.org/1999/xlink" xml:space="preserve" style="fill-rule:evenodd;clip-rule:evenodd;stroke-linejoin:round;stroke-miterlimit:2;"><title>Debitos</title><desc>Debitos is an online marketplace which allows companies, banks and funds to sell their debts (loans, claims and receivables) on the market through its auction-based online transaction platform to specialized investors.</desc>    <g transform="matrix(0.633573,0,0,0.633573,-545.469,-89.6269)">        <g transform="matrix(1,0,0,1,-1.22791,-2)">            <path d="M1067.59,653.658c0,-55.192 -44.809,-100 -100,-100c-55.191,0 -100,44.808 -100,100l0,196.342c0,55.192 44.809,100 100,100c55.191,0 100,-44.808 100,-100l0,-196.342Z" style="fill:rgb(29,210,175);"/>        </g>        <g transform="matrix(1,0,0,1.52223,297.411,-498.115)">            <path d="M1067.59,619.351c0,-36.257 -44.809,-65.693 -100,-65.693c-55.191,0 -100,29.436 -100,65.693l0,264.956c0,36.257 44.809,65.693 100,65.693c55.191,0 100,-29.436 100,-65.693l0,-264.956Z" style="fill:rgb(29,210,175);"/>        </g>        <g transform="matrix(1,0,0,2.03097,596.05,-981.422)">            <path d="M1067.59,602.895c0,-27.174 -44.809,-49.237 -100,-49.237c-55.191,0 -100,22.063 -100,49.237l0,297.868c0,27.174 44.809,49.237 100,49.237c55.191,0 100,-22.063 100,-49.237l0,-297.868Z" style="fill:rgb(29,210,175);"/>        </g>    </g></svg>