<?xml version="1.0" encoding="UTF-8" standalone="no"?><!DOCTYPE svg PUBLIC "-//W3C//DTD SVG 1.1//EN" "http://www.w3.org/Graphics/SVG/1.1/DTD/svg11.dtd"><svg width="100%" height="100%" viewBox="0 0 512 512" version="1.1" xmlns="http://www.w3.org/2000/svg" xmlns:xlink="http://www.w3.org/1999/xlink" xml:space="preserve" style="fill-rule:evenodd;clip-rule:evenodd;stroke-linejoin:round;stroke-miterlimit:2;"><title>AFPI</title><desc>The Indonesian Fintech Lending AssociationAsosiasi Fintech Pendanaan Bersama Indonesia (AFPI) merupakan organisasi yang mewadahi pelaku usaha Fintech Peer to Peer (P2P) Lending atau Fintech Pendanaan Online di Indonesia. AFPI ditunjuk Otoritas Jasa Keuangan (OJK) sebagai asosiasi resmi penyelenggara layanan pinjam meminjam uang berbasis teknologi informasi di Indonesia, berdasarkan surat No. S-5/D.05/2019.</desc>    <g transform="matrix(1.69461,0,0,1.69461,-82.0078,-177.821)">        <g transform="matrix(1,0,0,1,25,92.0047)">            <path d="M145.3,256.3c-6.2,-0.3 -7.3,-0.7 -7.3,-2.2c0,-1 -1.1,-4 -2.5,-6.6l-2.4,-4.9l8.6,-15.8c4.8,-8.7 9,-15.8 9.5,-15.8c2,0 13.6,13 16,18c3.5,7.2 5.8,16.1 5.8,22.7l0,5.3l-10.2,-0.2c-5.7,-0.1 -13.6,-0.4 -17.5,-0.5Z" style="fill:rgb(168,66,66);fill-rule:nonzero;"/>        </g>        <g transform="matrix(1,0,0,1,25,92.0047)">            <path d="M106.1,226.6c-6.1,-11.1 -8.1,-15.5 -7.4,-16.6c0.6,-0.8 3.6,-2.6 6.9,-3.9c5.1,-2.2 7.5,-2.5 17.4,-2.6c8.6,0 12.8,0.5 16.7,1.8c2.9,1 5.5,2.3 5.8,2.8c0.4,0.5 -3.1,7.8 -7.7,16.1l-8.4,15.3l-4.2,-0.3c-2.3,-0.1 -5.6,0.4 -7.4,1.1l-3.3,1.4l-8.4,-15.1Z" style="fill:rgb(168,66,66);fill-rule:nonzero;"/>        </g>        <g transform="matrix(1,0,0,1,25,92.0047)">            <path d="M113.4,124c-4.6,-1 -10.8,-3.4 -14.1,-5.5l-2.2,-1.5l5.3,-9.2c2.9,-5.1 6.9,-12.3 9,-16.1l3.7,-6.7l3.1,1.6c2.3,1.2 4.6,1.5 8.2,1.1l5.1,-0.6l7.8,14.2c4.3,7.8 7.9,15 8,16.1c0.5,4.6 -22.5,9.1 -33.9,6.6Z" style="fill:rgb(84,145,73);fill-rule:nonzero;"/>        </g>        <g transform="matrix(1,0,0,1,25,92.0047)">            <path d="M146.2,104.3c-12.1,-22 -11.5,-20.5 -9.8,-23.8c0.9,-1.7 1.6,-4.5 1.6,-6.2l0,-3.3l35,0l0,5.3c0,7 -2.3,15.7 -6.1,22.7c-3.2,6 -11.7,16 -13.6,16c-0.6,0 -3.8,-4.8 -7.1,-10.7Z" style="fill:rgb(84,145,73);fill-rule:nonzero;"/>        </g>        <g id="layer106" transform="matrix(1,0,0,1,25,92.0047)">            <path d="M90.4,111.8c-27.7,-25.5 -17.4,-71.6 18.5,-82.8c8.9,-2.8 22,-2.7 30.3,0.2c17.5,6 29.7,20.3 33.1,38.6l0.7,3.2l-17.5,0c-17.3,0 -17.6,0 -18.4,-2.2c-1,-2.6 -4.5,-6 -7.8,-7.7c-5.8,-3 -14.2,0.3 -17.6,6.9c-2.2,4.3 -1.7,10.1 1.3,14.2l2.1,2.8l-8.5,15.3c-4.6,8.3 -9.1,15.3 -9.9,15.5c-0.9,0.2 -3.7,-1.6 -6.3,-4Z" style="fill:rgb(136,203,126);fill-rule:nonzero;"/>        </g>        <g transform="matrix(1,0,0,1,25,92.0047)">            <path d="M176.5,255.9c-1,-1.6 0.5,-13.4 2.4,-19.4c1,-2.8 2.9,-7.3 4.4,-9.8c2.9,-4.9 13.3,-15.7 15.1,-15.7c0.6,0 3.5,4.4 6.3,9.8c2.9,5.3 6.7,12.3 8.4,15.4l3.2,5.7l-3.1,3.5c-1.7,2 -3.4,5.1 -3.7,6.9l-0.7,3.4l-8.1,0.7c-12.6,0.9 -23.5,0.7 -24.2,-0.5Z" style="fill:rgb(75,75,160);fill-rule:nonzero;"/>        </g>        <g transform="matrix(1,0,0,1,25,92.0047)">            <path d="M230.7,242.3c-1.5,-0.8 -4.3,-1.5 -6.3,-1.6c-3.5,-0.3 -3.6,-0.5 -12.4,-16.5l-8.8,-16.2l3.6,-1.6c10.8,-4.5 26.2,-4.4 37.5,0.1c3.7,1.5 6.9,3.1 7.2,3.5c0.3,0.6 -16.9,33.1 -17.8,33.6c-0.1,0 -1.4,-0.6 -3,-1.3Z" style="fill:rgb(75,75,160);fill-rule:nonzero;"/>        </g>        <g id="layer108" transform="matrix(1,0,0,1,25,92.0047)">            <path d="M213.5,299.6c-18.1,-4.4 -33.8,-21.2 -36.2,-38.8l-0.6,-3.8l7.9,0c4.4,0 11.5,-0.3 16,-0.6l8.1,-0.7l0.7,2.9c1.8,7 7.5,11.4 14.8,11.4c12.9,0 18.9,-13.9 10.7,-25c-1.6,-2.2 15.4,-33 18.3,-33c1.1,0 4.5,2.5 7.7,5.8c18.6,19.1 18.5,49.6 -0.4,68.6c-12.2,12.3 -30,17.3 -47,13.2Z" style="fill:rgb(131,128,252);fill-rule:nonzero;"/>        </g>        <g transform="matrix(1,0,0,1,25,92.0047)">            <path d="M86.3,194.7l-8.2,-14.2l3.1,-2.4c1.7,-1.3 3.7,-3.9 4.4,-5.8l1.4,-3.3l17.5,0c19.9,0 18.6,-0.8 16,9.3c-2,7.7 -5.4,14.2 -10.5,20c-4.5,5 -12,10.7 -14.2,10.7c-0.7,0 -5,-6.4 -9.5,-14.3Z" style="fill:rgb(160,80,160);fill-rule:nonzero;"/>        </g>        <g transform="matrix(1,0,0,1,25,92.0047)">            <path d="M85.3,160.3c-1,-2.1 -3.2,-4.7 -5,-5.8c-1.8,-1.1 -3.2,-2.3 -3.3,-2.8c0,-0.4 3.9,-7.5 8.6,-15.7l8.6,-14.9l4.7,2.9c12.1,7.5 21.2,21.2 22.7,34.5l0.7,5.5l-17.6,0l-17.5,0l-1.9,-3.7Z" style="fill:rgb(160,80,160);fill-rule:nonzero;"/>        </g>        <g id="layer111" transform="matrix(1,0,0,1,25,92.0047)">            <path d="M61.3,213.6c-8.7,-2.1 -16.3,-6.5 -23.3,-13.6c-5.3,-5.2 -7.3,-8.2 -10,-14.5c-9.4,-22.4 -1.9,-47.4 18.3,-60.8c8.3,-5.5 16,-7.7 26.9,-7.6c10.5,0 20.5,2.6 20,5c-0.2,0.8 -4,7.8 -8.5,15.6l-8.2,14.3l-4.5,0c-5.8,0 -10.3,2.8 -13,7.9c-2.5,5 -2.5,8.6 -0.1,13.1c2.9,5.5 7.6,8.2 13.9,7.9l5.3,-0.3l8.1,13.9c6,10.4 7.8,14.3 7.1,15.4c-2.5,4 -21.5,6.2 -32,3.7Z" style="fill:rgb(237,153,234);fill-rule:nonzero;"/>        </g>        <g id="layer107" transform="matrix(1,0,0,1,25,92.0047)">            <path d="M92.9,290.3c-7.7,-6.6 -11.6,-11.9 -15,-20.5c-6.9,-17.6 -2.6,-38.7 10.6,-52.2c3.9,-4 6.3,-5.6 7.7,-5.4c1.5,0.2 4.2,4.1 9.9,14.3c7.7,13.6 8.9,16.5 7,16.5c-1.9,0 -5.1,6.8 -5.1,10.9c0,4.7 1.1,7.4 4.7,11.2l2.4,2.6l-7.8,13.1c-4.3,7.2 -8.3,13.2 -8.9,13.2c-0.6,0 -3,-1.7 -5.5,-3.7Z" style="fill:rgb(253,128,128);fill-rule:nonzero;"/>        </g>        <g id="layer109" transform="matrix(1,0,0,1,25,92.0047)">            <path d="M264.5,213.6c-19.4,-5 -33.6,-20.6 -37,-40.8l-0.6,-3.8l33.9,0l0.6,3.3c0.8,4.5 5.5,9.3 10.5,10.8c10.6,3.2 21.1,-7.1 18.1,-17.9c-1.1,-4.4 -6.4,-9.8 -10.6,-10.8c-6,-1.5 -13.3,1.5 -16.2,6.7l-1.7,2.9l-17.3,0l-17.3,0l0.7,-5.2c1.8,-14.4 12.6,-29.8 25.3,-36.3c11.7,-5.9 26.2,-7.3 38.3,-3.5c13.4,4.1 25.7,15.6 30.9,28.7c3.1,8 3.8,23.1 1.4,32c-6.6,24.3 -34.2,40.2 -59,33.9Z" style="fill:rgb(109,199,198);fill-rule:nonzero;"/>        </g>        <g transform="matrix(1,0,0,1,25,92.0047)">            <path d="M111.2,299.5c-2.9,-0.8 -6.8,-2.3 -8.7,-3.2l-3.5,-1.8l8.2,-13.7c7,-11.6 8.4,-13.5 9.9,-12.7c2.2,1.1 8.1,1.2 11.1,0c3.5,-1.3 7.9,-6.1 8.5,-9.4l0.6,-2.8l17.6,0.7c9.7,0.3 17.7,0.7 17.8,0.9c0.8,0.5 -3.1,12.4 -5.8,17.7c-9.8,19.3 -34.3,30 -55.7,24.3Z" style="fill:rgb(204,154,154);fill-rule:nonzero;"/>        </g>        <g transform="matrix(1,0,0,1,25,92.0047)">            <path d="M215.2,123.9c-2.4,-0.4 -6.5,-1.8 -9.2,-3.1l-5,-2.3l7.6,-13.8c7.5,-13.5 7.7,-13.8 10.5,-13.2c4.1,0.9 11.3,-2.7 13.9,-7.1c2.8,-4.5 2.9,-11.3 0.1,-15.8c-2.9,-4.6 -8.1,-7 -14.3,-6.4c-7.7,0.8 -12.8,6.7 -12.8,15.1c0,4.1 2.3,8.7 5.3,10.8c0.5,0.3 -2.1,5.9 -5.7,12.4c-3.6,6.5 -6.6,12.2 -6.6,12.5c0,0.4 -0.6,1.3 -1.4,1.9c-1.1,0.9 -2.6,-0.2 -7.2,-5.2c-15.9,-17 -18.5,-39.9 -6.8,-59.3c4.6,-7.6 7.6,-10.8 14.7,-15.5c9.6,-6.2 17,-8.2 29.5,-7.7c9.9,0.3 11.3,0.6 18.5,4.1c21.4,10.1 32.5,32.9 27.2,55.5c-2.8,11.9 -11.7,24.9 -20,29.5c-15.1,8.3 -25,10.3 -38.3,7.6Z" style="fill:rgb(207,186,127);fill-rule:nonzero;"/>        </g>    </g></svg>