<?xml version="1.0" encoding="UTF-8" standalone="no"?><!DOCTYPE svg PUBLIC "-//W3C//DTD SVG 1.1//EN" "http://www.w3.org/Graphics/SVG/1.1/DTD/svg11.dtd"><svg width="100%" height="100%" viewBox="0 0 512 512" version="1.1" xmlns="http://www.w3.org/2000/svg" xmlns:xlink="http://www.w3.org/1999/xlink" xml:space="preserve" style="fill-rule:evenodd;clip-rule:evenodd;stroke-linejoin:round;stroke-miterlimit:2;"><title>GetCash</title><desc></desc>    <g transform="matrix(1,0,0,1,-1,41)">        <g transform="matrix(0.853362,0,0,0.851008,-6.84403,-7.56696)">            <path d="M378.1,369.5l-9.6,-9.5l95.7,-95.7c74.3,-74.3 95.9,-96.5 96.3,-98.8c0.4,-1.9 0,-4.1 -1.2,-6.1c-2,-3.3 -96.2,-96.1 -99.7,-98.1c-2.8,-1.6 -6.1,-1.6 -9.4,0.1c-1.5,0.8 -45.2,44 -97.1,96.1l-94.3,94.7l-9.9,-9.8c-8.6,-8.6 -9.9,-10.3 -9.9,-13.2c0,-3.2 6.4,-9.9 91.9,-96.1c130,-131 122.3,-123.5 126.3,-122.7c2.7,0.5 16.9,14.2 77.1,74.4c69.4,69.4 73.7,73.9 73.7,77.2c0,3.3 -6,9.5 -106.8,110.2c-99.7,99.8 -106.9,106.8 -110.1,106.8c-3,0 -4.7,-1.3 -13,-9.5Z" style="fill:rgb(139,188,9);fill-rule:nonzero;"/>        </g>        <g transform="matrix(0.853362,0,0,0.851008,-6.84403,-7.56696)">            <path d="M313.9,306.6c-26,-25.6 -47.5,-46.9 -47.6,-47.3c-0.2,-0.4 42.2,-43.3 94.2,-95.3l94.5,-94.5l19.2,19c10.6,10.5 32.2,31.7 47.9,47.2l28.7,28l-94.7,94.7l-94.7,94.7l-47.5,-46.5Z" style="fill:rgb(139,188,9);fill-rule:nonzero;"/>        </g>        <g transform="matrix(0.853362,0,0,0.851008,-6.84403,-7.56696)">            <path d="M131.6,391.1c-116.3,-116.3 -121.8,-122 -121.2,-124.7c0.5,-2 18.7,-20.9 60.6,-62.8c53.9,-54 60.1,-59.9 63,-59.9c2.9,0 14.4,11.2 124.6,121.4c93.2,93.2 121.4,122 121.4,123.8c0,1.7 -2.9,5.3 -9.7,12.2c-8.1,8.2 -10.2,9.9 -12.7,9.9c-2.7,0 -9.4,-6.3 -57.6,-54.5c-48,-48 -54.9,-54.5 -57.6,-54.5c-1.6,0 -3.5,0.5 -4.2,1.2c-3.7,3.7 -2.8,4.6 53.8,61.3c41.6,41.6 55,55.6 55,57.4c0,1.7 -3,5.4 -9.7,12.2c-8.1,8.2 -10.2,9.9 -12.7,9.9c-2.7,0 -9.4,-6.3 -57.6,-54.5c-48,-48 -54.9,-54.5 -57.6,-54.5c-1.6,0 -3.5,0.5 -4.2,1.2c-3.7,3.7 -2.8,4.6 53.5,61c48.9,49 54.6,55 54.6,57.8c0,2.6 -1.5,4.7 -9.4,12.6c-7.7,7.7 -9.9,9.4 -12.4,9.4c-2.6,0 -9.6,-6.7 -57.5,-54.5c-48,-48 -54.9,-54.5 -57.6,-54.5c-1.6,0 -3.5,0.5 -4.2,1.2c-3.7,3.7 -2.8,4.6 53.5,61c49.3,49.3 54.6,55 54.6,57.8c0,2.8 -1.5,4.8 -11,14.1c-7.8,7.8 -11.7,10.9 -13.4,10.9c-1.8,0 -29.9,-27.5 -124.3,-121.9Z" style="fill:rgb(0,143,215);fill-rule:nonzero;"/>        </g>    </g></svg>