<?xml version="1.0" encoding="UTF-8" standalone="no"?><!DOCTYPE svg PUBLIC "-//W3C//DTD SVG 1.1//EN" "http://www.w3.org/Graphics/SVG/1.1/DTD/svg11.dtd"><svg width="100%" height="100%" viewBox="0 0 512 512" version="1.1" xmlns="http://www.w3.org/2000/svg" xmlns:xlink="http://www.w3.org/1999/xlink" xml:space="preserve" style="fill-rule:evenodd;clip-rule:evenodd;stroke-linejoin:round;stroke-miterlimit:2;"><title>Omaraha</title><desc>The main activity of the omaraha.ee portal is the brokerage and management of loans from person to person.Borrowing from person to person is a very common way of borrowing. It's like lending to a good friend - the difference is that here you have the opportunity to lend to many good people. And there are also many good people here who want to give you a loan.</desc>    <g transform="matrix(3.75824,0,0,3.75824,1.13778,-214.845)">        <path d="M7.282,120.068l11.043,11.069l16.428,-24.63l-27.471,13.561Z" style="fill:rgb(187,0,1);"/>        <path d="M34.082,174.233l14.2,-3.788l-11.774,-21.55l-2.426,25.338Z" style="fill:rgb(187,0,1);"/>        <path d="M93.802,178.466l3.649,-12.552l-26.322,0.013l22.673,12.539Z" style="fill:rgb(187,0,1);"/>        <path d="M128.65,130.785l-10.574,-11.247l-13.151,22.717l23.725,-11.47Z" style="fill:rgb(187,0,1);"/>        <path d="M102.22,75.295l-14.071,4.642l11.704,22.188l2.367,-26.83Z" style="fill:rgb(187,0,1);"/>        <path d="M41.55,72.092l-3.271,12.616l26.308,0l-23.037,-12.616Z" style="fill:rgb(187,0,1);"/>        <path d="M12.974,85.119l-5.692,34.949l24.868,-11.632l-27.722,45.52l29.654,20.277l2.38,-24.5l24.769,43.402l32.571,-14.669l-21.447,-12.552l53.653,0l2.642,-35.129l-23.182,10.765l25.732,-44.926l-28.98,-21.329l-2.69,25.232l-23.822,-43.094l-34.158,14.659l22.232,12.203l-50.808,0.824Z" style="fill:rgb(254,0,0);"/>        <g transform="matrix(1.06716,0,0,1.06716,-7.16753,-10.9855)">            <circle cx="70.878" cy="127.731" r="23.711" style="fill:white;"/>        </g>    </g></svg>