<?xml version="1.0" encoding="UTF-8" standalone="no"?><!DOCTYPE svg PUBLIC "-//W3C//DTD SVG 1.1//EN" "http://www.w3.org/Graphics/SVG/1.1/DTD/svg11.dtd"><svg width="100%" height="100%" viewBox="0 0 512 512" version="1.1" xmlns="http://www.w3.org/2000/svg" xmlns:xlink="http://www.w3.org/1999/xlink" xml:space="preserve" style="fill-rule:evenodd;clip-rule:evenodd;stroke-linejoin:round;stroke-miterlimit:2;"><title>Property Crowd</title><desc>Property Crowd is the UK’s first crowdfunding platform that allows individuals to invest in property-backed bonds alongside institutional lenders.We are part of Global Alternatives, which will launch a cross-border trading exchange for institutional real estate assets in 2018, enabling real-time asset allocation in the world’s largest asset class.</desc>    <g transform="matrix(1.87475,0,0,1.87927,11.8958,-225.078)">        <path d="M47.309,223.722c0.931,-0.145 1.119,-0.204 1.651,-0.351c5.782,-1.601 10.197,-7.189 10.266,-13.371l0.013,-0.003c-0.008,-0.129 -0.014,-0.257 -0.019,-0.386c-0.126,-2.659 -2.039,-5.123 -4.59,-5.91l-3.773,-1.08l3.784,-1.032c1.38,-0.35 2.83,-0.347 4.203,-0.019c-0.112,-0.568 -0.052,-1.228 0.241,-1.97c0.529,-1.336 1.731,-2.223 3.334,-2.203c2.055,0.079 3.703,2.227 3.298,4.251c0.709,-0.207 1.478,-0.346 2.259,-0.34c0.663,0.017 1.321,0.104 1.964,0.261c0.925,-0.143 1.114,-0.203 1.645,-0.35c5.774,-1.598 10.196,-7.16 10.265,-13.371l0.013,-0.002c-0.008,-0.129 -0.014,-0.258 -0.018,-0.387c-0.126,-2.659 -2.038,-5.122 -4.589,-5.909l-3.768,-1.079l3.779,-1.033c0.763,-0.194 1.223,-0.289 2.309,-0.282c0.643,0.013 1.282,0.097 1.904,0.249c-0.115,-0.566 -0.059,-1.221 0.232,-1.956c0.528,-1.336 1.73,-2.223 3.333,-2.203c2.093,0.079 3.764,2.307 3.274,4.364c1.268,-0.359 2.761,-0.548 4.24,-0.193c0.93,-0.145 1.118,-0.204 1.65,-0.351c5.791,-1.604 10.197,-7.189 10.265,-13.371l0.013,-0.003c-0.007,-0.128 -0.013,-0.256 -0.018,-0.384c-0.126,-2.659 -2.038,-5.123 -4.589,-5.91l-3.767,-1.078l3.778,-1.033c0.763,-0.195 1.223,-0.289 2.309,-0.282c0.638,0.013 1.271,0.096 1.886,0.245c-0.104,-0.564 -0.041,-1.217 0.25,-1.953c0.529,-1.336 1.731,-2.222 3.334,-2.202c2.094,0.079 3.771,2.302 3.275,4.364c1.267,-0.36 2.76,-0.548 4.237,-0.194c0.931,-0.144 1.119,-0.203 1.651,-0.351c5.779,-1.599 10.197,-7.16 10.266,-13.37l0.013,-0.003c-0.008,-0.129 -0.014,-0.258 -0.019,-0.386c-0.126,-2.664 -2.048,-5.126 -4.59,-5.91l-3.774,-1.08l3.785,-1.032c0.762,-0.194 1.224,-0.289 2.31,-0.281c0.644,0.012 1.283,0.097 1.904,0.249c-0.114,-0.566 -0.058,-1.221 0.233,-1.955c0.528,-1.337 1.73,-2.223 3.333,-2.203c2.093,0.08 3.763,2.306 3.274,4.362c1.292,-0.366 2.819,-0.555 4.325,-0.172l3.784,1.032c-2.566,0.734 -5.342,1.227 -6.95,3.23c-4.427,5.514 1.424,16.448 10.504,17.869c1.351,-0.327 2.766,-0.317 4.107,0.003c-0.108,-0.568 -0.047,-1.226 0.247,-1.97c0.528,-1.334 1.708,-2.223 3.333,-2.202c2.057,0.078 3.71,2.222 3.301,4.25c0.708,-0.207 1.477,-0.346 2.257,-0.339c0.689,0.017 1.373,0.11 2.042,0.281l3.777,1.032c-2.56,0.733 -5.334,1.227 -6.942,3.23c-4.417,5.503 1.242,16.413 10.497,17.868c0.713,-0.18 1.18,-0.268 2.225,-0.261c0.643,0.013 1.281,0.097 1.902,0.249c-0.115,-0.567 -0.058,-1.221 0.232,-1.956c0.528,-1.335 1.708,-2.224 3.334,-2.203c2.092,0.079 3.764,2.307 3.273,4.364c1.293,-0.367 2.82,-0.556 4.327,-0.172l3.777,1.033c-2.561,0.733 -5.335,1.226 -6.942,3.229c-4.418,5.504 1.242,16.415 10.496,17.868c0.713,-0.179 1.18,-0.267 2.225,-0.26c0.637,0.012 1.27,0.095 1.885,0.244c-0.105,-0.563 -0.041,-1.216 0.25,-1.952c0.528,-1.337 1.73,-2.223 3.333,-2.203c2.096,0.08 3.772,2.303 3.275,4.364c1.293,-0.367 2.82,-0.555 4.325,-0.171l3.777,1.032c-2.561,0.733 -5.334,1.226 -6.942,3.229c-4.418,5.505 1.244,16.419 10.502,17.869c0.71,-0.178 1.177,-0.266 2.22,-0.259c0.642,0.013 1.279,0.097 1.899,0.248c-0.114,-0.567 -0.058,-1.221 0.233,-1.956c0.528,-1.336 1.709,-2.225 3.336,-2.204c2.096,0.08 3.771,2.316 3.272,4.377c1.3,-0.37 2.832,-0.564 4.327,-0.183l3.777,1.033c-2.56,0.733 -5.334,1.226 -6.942,3.229c-4.413,5.498 1.242,16.414 10.497,17.868c0.713,-0.18 1.18,-0.267 2.225,-0.26c0.641,0.012 1.278,0.096 1.897,0.247c-0.112,-0.565 -0.054,-1.219 0.237,-1.955c0.529,-1.336 1.731,-2.223 3.334,-2.203c2.094,0.079 3.772,2.303 3.275,4.365c1.292,-0.367 2.819,-0.556 4.326,-0.173l3.784,1.032c-2.566,0.734 -5.342,1.227 -6.95,3.23c-4.423,5.509 1.435,16.469 10.53,17.873l7.843,1.113c-5.915,0.777 -12.027,2.073 -17.267,-0.637c-2.267,-1.172 -4.152,-2.906 -5.585,-4.979c-3.495,4.585 -9.07,7.286 -14.865,6.676l-0.096,-0.012c-1.244,0.47 -2.366,1.099 -3.185,2.119c-4.418,5.506 1.256,16.441 10.529,17.874l7.839,1.113c-6.34,0.833 -13.005,2.004 -18.261,-1.2c-1.85,-1.128 -3.398,-2.638 -4.611,-4.394c-3.553,4.6 -9.297,7.262 -14.935,6.641c-1.243,0.468 -2.366,1.097 -3.185,2.118c-4.453,5.548 1.442,16.471 10.529,17.875l7.843,1.115c-6.022,0.789 -12.169,2.054 -17.4,-0.711c-2.211,-1.169 -4.053,-2.872 -5.46,-4.905c-3.559,4.626 -9.307,7.293 -14.95,6.659c-1.244,0.468 -2.367,1.097 -3.186,2.118c-4.419,5.505 1.255,16.44 10.528,17.873l7.841,1.113c-5.913,0.777 -12.022,2.075 -17.263,-0.637c-2.268,-1.173 -4.154,-2.909 -5.588,-4.984c-3.533,4.601 -9.248,7.298 -14.958,6.669c-1.243,0.47 -2.366,1.099 -3.185,2.119c-4.426,5.516 1.256,16.441 10.529,17.874l7.841,1.113c-4.827,0.634 -9.632,1.821 -14.161,0.575c-3.545,-0.975 -6.536,-3.286 -8.626,-6.281c-3.503,4.624 -9.189,7.367 -14.927,6.761l-0.089,-0.011c-1.245,0.468 -2.371,1.097 -3.193,2.121c-4.431,5.52 1.401,16.464 10.53,17.873l7.846,1.112c-6.204,0.816 -12.63,2.06 -17.933,-0.997c-1.99,-1.147 -3.651,-2.737 -4.94,-4.604c-3.591,4.65 -9.42,7.326 -15.118,6.63l-7.783,-1.023l7.82,-1.116c0.959,-0.149 1.145,-0.208 1.683,-0.357c5.78,-1.602 10.198,-7.161 10.267,-13.372l0.013,-0.002c-0.008,-0.128 -0.014,-0.256 -0.019,-0.385c-0.126,-2.659 -2.038,-5.122 -4.59,-5.909l-0.383,-0.11c-3.527,0.133 -6.922,-0.283 -9.911,-2.105c-1.85,-1.128 -3.397,-2.637 -4.61,-4.392c-3.513,4.556 -9.149,7.249 -14.839,6.647l-0.27,-0.032l-7.799,-1.026l7.836,-1.112c0.958,-0.148 1.144,-0.207 1.682,-0.356c5.798,-1.606 10.197,-7.189 10.265,-13.371l0.013,-0.003c-0.007,-0.127 -0.013,-0.254 -0.018,-0.382c-0.126,-2.659 -2.038,-5.123 -4.589,-5.912l-0.19,-0.054c-3.178,0.163 -6.269,-0.131 -9.106,-1.598c-2.267,-1.172 -4.154,-2.908 -5.588,-4.984c-3.569,4.639 -9.373,7.353 -15.13,6.649l-7.805,-1.025l7.842,-1.113c0.897,-0.139 1.037,-0.186 1.516,-0.312c5.841,-1.544 10.361,-7.13 10.431,-13.417l0.013,-0.003c-0.008,-0.128 -0.014,-0.256 -0.018,-0.384c-0.126,-2.663 -2.049,-5.127 -4.589,-5.91l-0.208,-0.06c-3.227,0.161 -6.356,-0.148 -9.222,-1.662c-2.21,-1.168 -4.048,-2.883 -5.45,-4.918c-3.558,4.627 -9.323,7.323 -15.003,6.667l-7.874,-1.052l7.778,-1.103c6.542,-1.01 11.873,-6.918 11.949,-13.727l0.013,-0.003c-0.008,-0.128 -0.014,-0.256 -0.019,-0.384c-0.126,-2.658 -2.039,-5.122 -4.59,-5.909l-0.395,-0.113c-3.49,0.129 -6.849,-0.276 -9.788,-2.035c-1.894,-1.134 -3.477,-2.674 -4.715,-4.468c-3.585,4.647 -9.392,7.326 -15.116,6.628l-7.82,-1.024l7.857,-1.114c0.957,-0.148 1.144,-0.207 1.682,-0.357c5.783,-1.603 10.197,-7.19 10.266,-13.372l0.013,-0.003c-0.007,-0.128 -0.013,-0.256 -0.018,-0.384c-0.127,-2.685 -2.061,-5.158 -4.655,-5.931l-0.107,-0.031c-3.177,0.167 -6.267,-0.125 -9.123,-1.602c-2.264,-1.171 -4.149,-2.905 -5.583,-4.978c-3.471,4.56 -8.995,7.295 -14.866,6.675l-0.27,-0.032l-7.804,-1.025l7.842,-1.114c0.957,-0.148 1.144,-0.207 1.682,-0.356c5.774,-1.599 10.196,-7.16 10.265,-13.37l0.013,-0.003c-0.008,-0.129 -0.014,-0.258 -0.018,-0.386c-0.126,-2.66 -2.038,-5.123 -4.589,-5.91l-3.768,-1.079l3.779,-1.033c1.377,-0.351 2.825,-0.348 4.196,-0.021c-0.109,-0.567 -0.047,-1.225 0.247,-1.968c0.528,-1.336 1.73,-2.223 3.333,-2.203c2.056,0.078 3.71,2.222 3.3,4.25c0.708,-0.207 1.477,-0.346 2.257,-0.339c0.661,0.017 1.317,0.103 1.958,0.26c0.93,-0.144 1.118,-0.204 1.65,-0.351c5.783,-1.6 10.197,-7.189 10.266,-13.371l0.013,-0.003c-0.007,-0.128 -0.013,-0.256 -0.018,-0.384c-0.126,-2.659 -2.039,-5.122 -4.591,-5.91l-3.773,-1.08l3.785,-1.031c0.762,-0.194 1.224,-0.289 2.31,-0.282c0.642,0.013 1.279,0.097 1.899,0.248c-0.114,-0.566 -0.058,-1.221 0.233,-1.956c0.529,-1.336 1.709,-2.225 3.336,-2.204c2.094,0.079 3.766,2.308 3.275,4.366c1.268,-0.359 2.761,-0.548 4.239,-0.193Zm82.936,106.256c-3.532,4.591 -9.248,7.297 -14.956,6.668c-1.245,0.47 -2.368,1.1 -3.186,2.12c-4.418,5.503 1.42,16.441 10.495,17.867c0.713,-0.181 1.182,-0.269 2.226,-0.262c0.681,0.014 1.357,0.107 2.012,0.276c-0.179,-0.661 -0.146,-1.393 0.191,-2.138c0.572,-1.262 1.724,-2.065 3.267,-2.046c2.021,0.076 3.563,2.416 3.207,4.394c1.29,-0.375 2.815,-0.583 4.302,-0.224c0.935,-0.145 1.123,-0.205 1.656,-0.352c5.783,-1.6 10.197,-7.189 10.266,-13.371l0.013,-0.003c-0.007,-0.127 -0.013,-0.254 -0.018,-0.382c-0.128,-2.688 -2.072,-5.162 -4.655,-5.931l-0.139,-0.04c-3.181,0.161 -6.271,-0.133 -9.093,-1.593c-2.268,-1.172 -4.155,-2.908 -5.588,-4.983Zm-22.62,-22.155c-3.527,4.589 -9.234,7.316 -14.959,6.671c-1.244,0.468 -2.368,1.097 -3.188,2.118c-4.418,5.503 1.422,16.444 10.5,17.869c0.713,-0.179 1.179,-0.266 2.222,-0.259c0.643,0.013 1.283,0.098 1.904,0.25c-0.115,-0.567 -0.059,-1.223 0.232,-1.96c0.529,-1.336 1.731,-2.222 3.334,-2.202c2.095,0.079 3.767,2.31 3.272,4.369c1.269,-0.36 2.765,-0.55 4.244,-0.197c0.927,-0.144 1.115,-0.204 1.646,-0.351c5.78,-1.602 10.198,-7.162 10.267,-13.372l0.013,-0.003c-0.008,-0.128 -0.014,-0.256 -0.019,-0.384c-0.126,-2.663 -2.048,-5.127 -4.59,-5.91l-0.221,-0.063c-3.229,0.158 -6.355,-0.152 -9.207,-1.659c-2.21,-1.169 -4.048,-2.883 -5.45,-4.917Zm45.24,0.011c-3.559,4.627 -9.306,7.295 -14.95,6.66c-1.245,0.468 -2.368,1.097 -3.188,2.118c-4.426,5.512 1.421,16.444 10.5,17.869c1.026,-0.254 1.46,-0.269 2.224,-0.259c0.641,0.009 1.279,0.092 1.901,0.243c-0.114,-0.565 -0.057,-1.219 0.233,-1.953c0.528,-1.335 1.708,-2.223 3.333,-2.202c2.056,0.078 3.704,2.227 3.298,4.252c0.709,-0.207 1.479,-0.346 2.26,-0.339c0.661,0.017 1.318,0.103 1.96,0.259c0.928,-0.144 1.116,-0.204 1.647,-0.351c5.783,-1.603 10.197,-7.191 10.267,-13.372l0.012,-0.003c-0.007,-0.128 -0.013,-0.256 -0.018,-0.384c-0.126,-2.662 -2.05,-5.127 -4.591,-5.91l-0.219,-0.063c-3.229,0.159 -6.355,-0.151 -9.209,-1.659c-2.21,-1.169 -4.053,-2.872 -5.46,-4.906Zm22.61,-22.135c-3.553,4.602 -9.298,7.265 -14.937,6.644c-1.243,0.468 -2.365,1.097 -3.185,2.118c-4.447,5.541 1.426,16.441 10.491,17.869c0.716,-0.18 1.183,-0.268 2.231,-0.261c0.643,0.012 1.281,0.096 1.902,0.248c-0.115,-0.567 -0.058,-1.221 0.232,-1.956c0.528,-1.334 1.708,-2.223 3.334,-2.203c2.096,0.08 3.77,2.315 3.271,4.375c1.274,-0.363 2.773,-0.557 4.242,-0.204c6.523,-1.023 11.842,-6.924 11.918,-13.722l0.013,-0.002c-0.008,-0.128 -0.014,-0.256 -0.018,-0.385c-0.126,-2.658 -2.04,-5.122 -4.591,-5.909l-0.367,-0.106c-3.449,0.135 -6.774,-0.254 -9.703,-1.975c-1.945,-1.143 -3.569,-2.703 -4.833,-4.531Zm-90.499,0.002c-3.533,4.576 -9.239,7.271 -14.936,6.642c-1.244,0.469 -2.366,1.097 -3.186,2.118c-4.418,5.502 1.42,16.441 10.493,17.869c0.716,-0.181 1.181,-0.268 2.229,-0.261c0.643,0.012 1.282,0.097 1.904,0.249c-0.115,-0.567 -0.059,-1.222 0.232,-1.957c0.529,-1.336 1.73,-2.223 3.333,-2.203c2.098,0.08 3.771,2.315 3.271,4.375c1.275,-0.363 2.773,-0.556 4.243,-0.204c6.522,-1.024 11.84,-6.923 11.915,-13.722l0.013,-0.003c-0.007,-0.128 -0.013,-0.256 -0.018,-0.384c-0.126,-2.659 -2.038,-5.122 -4.589,-5.909l-0.367,-0.106c-3.45,0.135 -6.776,-0.254 -9.705,-1.975c-1.945,-1.143 -3.568,-2.702 -4.832,-4.529Zm59.809,6.511c-3.408,0.138 -6.698,-0.236 -9.615,-1.917c-1.99,-1.146 -3.651,-2.735 -4.94,-4.602c-3.549,4.598 -9.286,7.272 -14.941,6.65c-1.244,0.469 -2.367,1.097 -3.186,2.118c-4.418,5.502 1.42,16.44 10.491,17.869c0.716,-0.18 1.183,-0.268 2.23,-0.261c0.644,0.012 1.283,0.097 1.904,0.249c-0.114,-0.567 -0.058,-1.222 0.233,-1.957c0.528,-1.336 1.73,-2.223 3.333,-2.203c2.093,0.08 3.764,2.307 3.273,4.364c1.268,-0.359 2.762,-0.547 4.24,-0.193c6.523,-1.023 11.842,-6.924 11.918,-13.722l0.013,-0.002c-0.007,-0.128 -0.013,-0.256 -0.018,-0.385c-0.126,-2.658 -2.039,-5.122 -4.591,-5.909l-0.344,-0.099Zm53.339,-28.687c-3.494,4.586 -9.07,7.288 -14.866,6.677l-0.096,-0.012c-1.243,0.47 -2.366,1.099 -3.184,2.119c-4.414,5.5 1.242,16.415 10.496,17.869c0.713,-0.18 1.18,-0.267 2.225,-0.261c0.645,0.013 1.285,0.098 1.907,0.25c-0.117,-0.568 -0.063,-1.224 0.228,-1.957c0.528,-1.335 1.707,-2.224 3.333,-2.203c2.091,0.079 3.754,2.314 3.271,4.365c1.27,-0.361 2.767,-0.55 4.248,-0.193c0.865,-0.134 1.008,-0.181 1.481,-0.306c5.847,-1.544 10.361,-7.129 10.431,-13.417l0.013,-0.003c-0.007,-0.128 -0.013,-0.256 -0.018,-0.384c-0.127,-2.685 -2.062,-5.158 -4.655,-5.931l-0.107,-0.03c-3.176,0.166 -6.267,-0.125 -9.123,-1.603c-2.264,-1.171 -4.15,-2.906 -5.584,-4.98Zm-82.936,26.654c0.925,-0.144 1.113,-0.203 1.644,-0.351c5.78,-1.602 10.198,-7.162 10.267,-13.372l0.013,-0.003c-0.008,-0.128 -0.014,-0.256 -0.019,-0.384c-0.126,-2.663 -2.048,-5.127 -4.591,-5.912l-0.173,-0.05c-3.176,0.167 -6.265,-0.125 -9.12,-1.602c-2.264,-1.171 -4.15,-2.905 -5.584,-4.978c-3.471,4.56 -8.995,7.295 -14.865,6.675l-0.095,-0.012c-1.245,0.47 -2.368,1.1 -3.187,2.119c-4.425,5.513 1.421,16.443 10.498,17.869c0.714,-0.18 1.179,-0.267 2.224,-0.261c0.645,0.013 1.286,0.098 1.909,0.25c-0.118,-0.568 -0.063,-1.223 0.227,-1.957c0.529,-1.336 1.731,-2.224 3.334,-2.203c2.091,0.079 3.754,2.314 3.27,4.365c1.27,-0.36 2.767,-0.55 4.248,-0.193Zm52.395,-20.071c-3.176,0.167 -6.267,-0.125 -9.124,-1.603c-2.264,-1.171 -4.15,-2.906 -5.584,-4.98c-3.494,4.586 -9.068,7.288 -14.866,6.677l-0.095,-0.012c-1.245,0.47 -2.368,1.1 -3.187,2.119c-4.418,5.505 1.421,16.444 10.499,17.869c1.395,-0.34 2.859,-0.318 4.24,0.032c-0.185,-0.666 -0.155,-1.406 0.185,-2.157c0.573,-1.262 1.726,-2.066 3.267,-2.046c1.979,0.074 3.5,2.321 3.227,4.272c0.728,-0.219 1.524,-0.368 2.331,-0.361c0.661,0.017 1.318,0.103 1.962,0.261c0.926,-0.144 1.114,-0.203 1.645,-0.351c5.783,-1.603 10.197,-7.19 10.267,-13.372l0.012,-0.003c-0.007,-0.128 -0.013,-0.256 -0.018,-0.384c-0.127,-2.685 -2.061,-5.158 -4.655,-5.931l-0.106,-0.03Zm-105.207,-6.582c-3.499,4.586 -9.071,7.288 -14.866,6.676l-0.094,-0.012c-1.245,0.47 -2.368,1.1 -3.186,2.119c-4.419,5.504 1.421,16.443 10.497,17.869c1.399,-0.341 2.867,-0.318 4.25,0.035c-0.198,-0.693 -0.163,-1.462 0.211,-2.237c0.589,-1.219 1.683,-1.989 3.231,-1.969c1.979,0.074 3.499,2.32 3.226,4.272c0.728,-0.219 1.524,-0.368 2.331,-0.361c0.663,0.017 1.321,0.104 1.964,0.261c0.864,-0.134 1.007,-0.181 1.479,-0.306c5.841,-1.543 10.361,-7.129 10.431,-13.417l0.013,-0.003c-0.008,-0.128 -0.014,-0.256 -0.018,-0.384c-0.126,-2.659 -2.038,-5.123 -4.59,-5.912l-0.189,-0.054c-3.178,0.163 -6.269,-0.131 -9.106,-1.598c-2.265,-1.171 -4.151,-2.905 -5.584,-4.979Zm-22.624,-22.152c-3.472,4.561 -8.995,7.293 -14.866,6.674l-0.091,-0.011c-1.245,0.469 -2.37,1.098 -3.19,2.119c-4.426,5.513 1.421,16.443 10.498,17.868c1.713,-0.427 1.573,-0.262 2.224,-0.258c0.643,0.013 1.281,0.097 1.902,0.248c-0.115,-0.566 -0.059,-1.222 0.232,-1.958c0.529,-1.336 1.731,-2.223 3.334,-2.202c2.094,0.079 3.767,2.311 3.271,4.37c1.27,-0.36 2.767,-0.551 4.247,-0.198c0.927,-0.144 1.115,-0.204 1.647,-0.351c5.779,-1.599 10.196,-7.16 10.266,-13.37l0.013,-0.003c-0.008,-0.129 -0.014,-0.258 -0.019,-0.386c-0.126,-2.66 -2.039,-5.123 -4.591,-5.91l-0.173,-0.05c-3.176,0.166 -6.266,-0.126 -9.12,-1.602c-2.265,-1.171 -4.15,-2.906 -5.584,-4.98Zm150.437,6.578c-3.177,0.163 -6.268,-0.13 -9.105,-1.598c-2.265,-1.172 -4.151,-2.907 -5.585,-4.981c-3.468,4.561 -8.993,7.295 -14.865,6.675l-0.093,-0.011c-1.244,0.468 -2.368,1.097 -3.188,2.119c-4.418,5.504 1.242,16.416 10.498,17.868c1.71,-0.426 1.573,-0.262 2.224,-0.258c0.643,0.013 1.281,0.097 1.902,0.248c-0.115,-0.567 -0.059,-1.222 0.232,-1.958c0.528,-1.334 1.708,-2.223 3.334,-2.202c2.093,0.079 3.767,2.311 3.272,4.37c1.27,-0.361 2.766,-0.552 4.246,-0.198c0.927,-0.144 1.115,-0.203 1.647,-0.351c5.788,-1.602 10.197,-7.189 10.266,-13.37l0.013,-0.003c-0.008,-0.129 -0.014,-0.258 -0.018,-0.386c-0.126,-2.659 -2.04,-5.123 -4.591,-5.91l-0.189,-0.054Zm30.559,-6.579c-3.468,4.561 -8.994,7.295 -14.865,6.675l-0.093,-0.011c-1.244,0.468 -2.368,1.097 -3.188,2.119c-4.418,5.504 1.242,16.416 10.498,17.868c1.71,-0.426 1.573,-0.262 2.224,-0.258c0.643,0.013 1.281,0.097 1.902,0.248c-0.115,-0.567 -0.059,-1.222 0.232,-1.958c0.528,-1.334 1.708,-2.223 3.334,-2.202c2.093,0.079 3.767,2.311 3.271,4.37c1.271,-0.361 2.767,-0.552 4.246,-0.198c0.928,-0.144 1.116,-0.203 1.648,-0.351c5.784,-1.601 10.196,-7.16 10.266,-13.37l0.013,-0.003c-0.008,-0.129 -0.014,-0.258 -0.019,-0.386c-0.126,-2.66 -2.039,-5.123 -4.591,-5.91l-0.189,-0.054c-3.176,0.163 -6.267,-0.13 -9.105,-1.598c-2.264,-1.172 -4.15,-2.907 -5.584,-4.981Zm-121.058,6.578c-3.177,0.163 -6.269,-0.13 -9.106,-1.597c-2.266,-1.172 -4.152,-2.908 -5.586,-4.984c-3.511,4.576 -9.16,7.281 -14.863,6.678l-0.091,-0.011c-1.246,0.469 -2.37,1.098 -3.19,2.119c-4.426,5.512 1.421,16.444 10.499,17.868c0.713,-0.178 1.177,-0.265 2.223,-0.258c0.643,0.013 1.282,0.097 1.904,0.249c-0.115,-0.567 -0.059,-1.223 0.232,-1.959c0.529,-1.336 1.73,-2.223 3.333,-2.202c2.095,0.079 3.768,2.311 3.272,4.369c1.27,-0.36 2.766,-0.55 4.246,-0.197c0.926,-0.144 1.115,-0.203 1.646,-0.351c5.778,-1.6 10.197,-7.189 10.265,-13.37l0.013,-0.003c-0.007,-0.129 -0.013,-0.258 -0.018,-0.386c-0.126,-2.66 -2.038,-5.123 -4.589,-5.91l-0.19,-0.055Zm30.558,-6.575c-3.472,4.559 -8.992,7.292 -14.866,6.672l-0.09,-0.011c-1.245,0.469 -2.369,1.098 -3.189,2.119c-4.426,5.512 1.42,16.443 10.498,17.868c0.713,-0.178 1.177,-0.265 2.223,-0.258c0.644,0.013 1.283,0.097 1.905,0.249c-0.116,-0.567 -0.06,-1.223 0.232,-1.959c0.528,-1.336 1.73,-2.223 3.333,-2.202c2.094,0.079 3.767,2.311 3.272,4.369c1.27,-0.36 2.766,-0.55 4.245,-0.197c0.928,-0.144 1.117,-0.203 1.648,-0.351c5.789,-1.602 10.197,-7.189 10.266,-13.37l0.013,-0.003c-0.007,-0.129 -0.013,-0.258 -0.018,-0.386c-0.126,-2.659 -2.039,-5.123 -4.591,-5.91l-0.174,-0.05c-3.176,0.166 -6.267,-0.125 -9.122,-1.602c-2.266,-1.172 -4.152,-2.906 -5.585,-4.978Zm82.575,-15.573c-3.173,0.166 -6.261,-0.126 -9.115,-1.603c-2.263,-1.171 -4.149,-2.905 -5.583,-4.98c-3.495,4.585 -9.07,7.288 -14.867,6.677l-0.092,-0.011c-1.244,0.468 -2.368,1.097 -3.188,2.119c-4.414,5.498 1.242,16.414 10.496,17.868c0.713,-0.18 1.18,-0.267 2.225,-0.26c0.645,0.012 1.284,0.097 1.906,0.249c-0.116,-0.568 -0.061,-1.223 0.229,-1.957c0.528,-1.336 1.73,-2.223 3.333,-2.203c2.091,0.079 3.754,2.315 3.271,4.365c1.269,-0.36 2.764,-0.55 4.243,-0.194c0.931,-0.144 1.119,-0.204 1.651,-0.351c5.779,-1.599 10.197,-7.161 10.266,-13.371l0.013,-0.003c-0.007,-0.128 -0.013,-0.256 -0.018,-0.384c-0.126,-2.658 -2.039,-5.123 -4.591,-5.91l-0.179,-0.051Zm-90.5,0c-3.174,0.166 -6.261,-0.127 -9.114,-1.603c-2.264,-1.17 -4.149,-2.904 -5.583,-4.977c-3.473,4.558 -8.995,7.294 -14.866,6.674l-0.092,-0.011c-1.245,0.468 -2.369,1.097 -3.19,2.119c-4.418,5.503 1.421,16.443 10.498,17.868c0.714,-0.18 1.179,-0.267 2.224,-0.26c0.637,0.012 1.27,0.095 1.886,0.244c-0.104,-0.563 -0.041,-1.216 0.25,-1.952c0.529,-1.336 1.731,-2.223 3.334,-2.203c2.094,0.079 3.771,2.303 3.275,4.364c1.267,-0.359 2.76,-0.548 4.237,-0.193c0.931,-0.144 1.119,-0.204 1.651,-0.351c5.778,-1.599 10.197,-7.16 10.266,-13.371l0.013,-0.003c-0.008,-0.128 -0.014,-0.256 -0.019,-0.384c-0.126,-2.663 -2.048,-5.126 -4.59,-5.91l-0.18,-0.051Zm38.11,20.07c0.93,-0.144 1.118,-0.204 1.651,-0.351c5.782,-1.6 10.196,-7.189 10.266,-13.371l0.012,-0.003c-0.007,-0.128 -0.013,-0.256 -0.018,-0.384c-0.126,-2.658 -2.039,-5.123 -4.591,-5.91l-0.178,-0.051c-3.173,0.166 -6.261,-0.126 -9.116,-1.603c-2.263,-1.171 -4.149,-2.905 -5.583,-4.98c-3.495,4.585 -9.068,7.289 -14.867,6.677l-0.092,-0.011c-1.245,0.468 -2.37,1.097 -3.19,2.119c-4.426,5.512 1.421,16.443 10.499,17.868c1.36,-0.331 2.786,-0.319 4.135,0.006c-0.122,-0.572 -0.069,-1.233 0.224,-1.974c0.528,-1.336 1.73,-2.223 3.333,-2.203c2.052,0.078 3.693,2.233 3.296,4.252c0.709,-0.208 1.48,-0.348 2.262,-0.341c0.659,0.017 1.315,0.103 1.957,0.26Zm-90.498,0c0.93,-0.144 1.118,-0.204 1.65,-0.351c5.774,-1.599 10.196,-7.161 10.265,-13.371l0.013,-0.003c-0.008,-0.128 -0.014,-0.256 -0.018,-0.384c-0.126,-2.659 -2.038,-5.123 -4.589,-5.91l-0.18,-0.051c-3.174,0.166 -6.262,-0.127 -9.116,-1.603c-2.264,-1.17 -4.15,-2.905 -5.584,-4.978c-3.498,4.584 -9.07,7.286 -14.866,6.675l-0.091,-0.011c-1.245,0.468 -2.369,1.097 -3.189,2.119c-4.426,5.512 1.42,16.442 10.497,17.868c1.352,-0.329 2.771,-0.319 4.117,0.002c-0.112,-0.569 -0.052,-1.228 0.241,-1.97c0.529,-1.336 1.731,-2.223 3.334,-2.203c2.054,0.078 3.702,2.226 3.298,4.251c0.708,-0.207 1.478,-0.347 2.259,-0.34c0.661,0.017 1.317,0.103 1.959,0.26Zm113.121,-22.151c0.932,-0.145 1.12,-0.204 1.652,-0.351c5.782,-1.601 10.197,-7.189 10.266,-13.371l0.013,-0.003c-0.008,-0.129 -0.014,-0.257 -0.018,-0.386c-0.126,-2.659 -2.04,-5.123 -4.591,-5.91l-0.189,-0.054c-3.177,0.163 -6.268,-0.13 -9.105,-1.598c-2.264,-1.171 -4.149,-2.905 -5.583,-4.979c-3.468,4.558 -8.992,7.295 -14.867,6.675l-0.097,-0.011c-1.242,0.468 -2.364,1.097 -3.184,2.117c-4.418,5.505 1.244,16.419 10.502,17.869c0.71,-0.178 1.177,-0.266 2.22,-0.259c0.642,0.013 1.279,0.097 1.9,0.248c-0.115,-0.567 -0.058,-1.221 0.232,-1.956c0.529,-1.338 1.732,-2.224 3.336,-2.204c2.098,0.08 3.772,2.316 3.273,4.377c1.274,-0.363 2.772,-0.557 4.24,-0.204Zm-45.249,0c0.932,-0.145 1.12,-0.204 1.652,-0.351c5.783,-1.601 10.197,-7.189 10.266,-13.371l0.013,-0.003c-0.007,-0.129 -0.013,-0.257 -0.018,-0.386c-0.126,-2.659 -2.04,-5.123 -4.591,-5.91l-0.226,-0.065c-3.227,0.158 -6.359,-0.151 -9.205,-1.657c-2.206,-1.168 -4.041,-2.881 -5.444,-4.913c-3.469,4.557 -8.996,7.3 -14.872,6.679l-0.094,-0.011c-1.244,0.468 -2.366,1.097 -3.185,2.117c-4.427,5.513 1.422,16.446 10.502,17.869c0.709,-0.178 1.177,-0.266 2.219,-0.259c0.643,0.013 1.282,0.097 1.903,0.249c-0.115,-0.567 -0.059,-1.222 0.232,-1.957c0.529,-1.338 1.731,-2.224 3.335,-2.204c2.096,0.079 3.764,2.309 3.275,4.365c1.268,-0.359 2.761,-0.547 4.238,-0.192Zm-45.248,0c0.93,-0.145 1.118,-0.204 1.65,-0.351c5.778,-1.6 10.197,-7.189 10.265,-13.371l0.013,-0.003c-0.007,-0.129 -0.013,-0.257 -0.018,-0.386c-0.126,-2.66 -2.038,-5.123 -4.589,-5.91l-0.19,-0.055c-3.177,0.163 -6.269,-0.13 -9.106,-1.597c-2.264,-1.171 -4.149,-2.905 -5.583,-4.978c-3.471,4.558 -8.995,7.294 -14.866,6.674l-0.095,-0.011c-1.244,0.468 -2.367,1.097 -3.186,2.118c-4.427,5.512 1.423,16.446 10.503,17.868c0.71,-0.179 1.176,-0.266 2.219,-0.259c0.642,0.013 1.28,0.097 1.901,0.248c-0.114,-0.566 -0.058,-1.221 0.233,-1.956c0.528,-1.336 1.709,-2.225 3.335,-2.204c2.095,0.079 3.766,2.307 3.276,4.365c1.267,-0.359 2.76,-0.547 4.238,-0.192Zm22.629,-22.153c0.925,-0.143 1.114,-0.203 1.645,-0.35c5.779,-1.599 10.197,-7.16 10.266,-13.371l0.013,-0.002c-0.008,-0.129 -0.014,-0.258 -0.019,-0.387c-0.126,-2.663 -2.048,-5.126 -4.59,-5.909l-0.191,-0.055c-3.177,0.163 -6.267,-0.131 -9.103,-1.597c-2.265,-1.171 -4.15,-2.906 -5.584,-4.979c-3.473,4.558 -8.995,7.294 -14.865,6.673l-0.092,-0.011c-1.245,0.468 -2.369,1.097 -3.19,2.119c-4.418,5.503 1.421,16.443 10.498,17.868c0.714,-0.18 1.179,-0.267 2.224,-0.26c0.638,0.012 1.271,0.095 1.886,0.245c-0.104,-0.564 -0.041,-1.217 0.25,-1.953c0.529,-1.336 1.731,-2.223 3.334,-2.203c2.096,0.08 3.771,2.303 3.275,4.364c1.269,-0.36 2.763,-0.548 4.243,-0.192Zm52.377,-20.073c-3.177,0.163 -6.267,-0.13 -9.106,-1.598c-2.264,-1.172 -4.149,-2.906 -5.583,-4.98c-3.468,4.558 -8.989,7.295 -14.867,6.674l-0.092,-0.011c-1.245,0.468 -2.37,1.097 -3.19,2.119c-4.419,5.504 1.421,16.443 10.499,17.868c1.353,-0.329 2.77,-0.319 4.112,0.001c-0.108,-0.567 -0.047,-1.226 0.247,-1.969c0.528,-1.335 1.708,-2.223 3.333,-2.203c2.058,0.079 3.71,2.222 3.301,4.251c0.708,-0.207 1.477,-0.346 2.257,-0.34c0.661,0.017 1.318,0.104 1.962,0.261c0.926,-0.143 1.114,-0.203 1.646,-0.35c5.782,-1.6 10.196,-7.189 10.266,-13.371l0.013,-0.002c-0.008,-0.129 -0.014,-0.258 -0.019,-0.387c-0.126,-2.658 -2.039,-5.122 -4.591,-5.909l-0.188,-0.054Zm-37.315,-28.73c-3.471,4.559 -8.99,7.295 -14.868,6.675l-0.09,-0.011c-1.245,0.468 -2.369,1.097 -3.189,2.119c-4.418,5.502 1.42,16.441 10.497,17.868c0.712,-0.18 1.179,-0.267 2.224,-0.261c0.644,0.013 1.283,0.097 1.904,0.249c-0.114,-0.566 -0.058,-1.221 0.233,-1.956c0.528,-1.336 1.73,-2.223 3.333,-2.203c2.092,0.079 3.764,2.307 3.273,4.364c1.268,-0.359 2.762,-0.548 4.24,-0.193c0.932,-0.145 1.12,-0.204 1.652,-0.351c5.783,-1.601 10.197,-7.189 10.266,-13.371l0.013,-0.003c-0.007,-0.128 -0.013,-0.256 -0.018,-0.384c-0.126,-2.658 -2.04,-5.123 -4.591,-5.91l-0.18,-0.051c-3.174,0.166 -6.262,-0.127 -9.116,-1.603c-2.263,-1.17 -4.149,-2.904 -5.583,-4.978Z" style="fill:rgb(9,58,98);fill-rule:nonzero;"/>    </g></svg>