<?xml version="1.0" encoding="UTF-8" standalone="no"?><!DOCTYPE svg PUBLIC "-//W3C//DTD SVG 1.1//EN" "http://www.w3.org/Graphics/SVG/1.1/DTD/svg11.dtd"><svg width="100%" height="100%" viewBox="0 0 512 512" version="1.1" xmlns="http://www.w3.org/2000/svg" xmlns:xlink="http://www.w3.org/1999/xlink" xml:space="preserve" style="fill-rule:evenodd;clip-rule:evenodd;stroke-linejoin:round;stroke-miterlimit:2;"><title>Fundwise</title><desc>Fundwise is a crowd investment platform for small to medium businesses in the CEE region. Funding hardware, consumer products, ICT, energy &amp; clean tech and gaming projects. Brought to you by the people who built Hooandja – the CEE region’s first non-profit crowdfunding platform.</desc>    <g transform="matrix(1,0,0,1,1,82.3666)">        <g transform="matrix(2.24588,0,0,2.24621,-751.94,0)">            <path d="M407.856,50.738l30.14,101.044c0.433,1.519 1.951,2.819 3.685,2.819l20.165,0c1.735,0 3.036,-1.084 3.687,-2.603l17.781,-43.583c0.433,-1.084 1.084,-1.084 1.517,-1.084c0.434,0 1.085,0 1.518,1.084l17.78,43.583c0.651,1.519 1.952,2.603 3.688,2.603l19.947,0c1.735,0 3.47,-1.301 3.903,-2.819l30.14,-101.044c0.434,-1.951 -0.867,-3.469 -2.602,-3.469l-20.382,0c-1.952,0 -3.47,1.301 -3.903,3.036l-18.865,70.253c-0.433,1.301 -2.168,1.734 -2.818,0.217l-24.068,-60.496c-0.434,-1.301 -1.951,-2.385 -3.686,-2.385l-1.302,0c-1.518,0 -3.035,1.084 -3.686,2.385l-24.069,60.496c-0.649,1.518 -2.385,1.084 -2.602,-0.217l-19.081,-70.253c-0.433,-1.735 -1.951,-3.036 -4.12,-3.036l-20.165,0c-1.735,0 -3.036,1.518 -2.602,3.469Z" style="fill:rgb(242,108,79);"/>        </g>        <g transform="matrix(2.24588,0,0,2.24621,0,0)">            <path d="M16.696,29.272l0,15.612c0,1.301 -0.867,2.385 -2.385,2.385l-11.059,0c-1.734,0 -3.252,1.301 -3.252,3.036l0,10.841c0,1.735 1.518,3.253 3.252,3.253l11.059,0c1.518,0 2.385,0.867 2.385,2.168l0,84.998c0,1.735 1.518,3.036 3.036,3.036l20.382,0c1.951,0 3.252,-1.301 3.252,-3.036l0,-84.998c0,-1.301 0.868,-2.168 2.169,-2.168l23.201,0c1.518,0 3.035,-1.518 3.035,-3.253l0,-10.841c0,-1.735 -1.517,-3.036 -3.035,-3.036l-23.201,0c-1.301,0 -2.169,-1.084 -2.169,-2.385l0,-12.793c0,-7.156 5.204,-10.408 11.492,-10.408c4.554,0 8.674,1.735 11.276,3.252c1.518,0.868 3.686,0.217 4.336,-1.084l6.939,-12.576c1.084,-1.735 0.434,-3.686 -1.301,-4.554c-4.337,-2.385 -14.094,-6.721 -26.454,-6.721c-21.683,0 -32.958,10.408 -32.958,29.272Z" style="fill:rgb(242,108,79);"/>        </g>    </g></svg>