<?xml version="1.0" encoding="UTF-8" standalone="no"?><!DOCTYPE svg PUBLIC "-//W3C//DTD SVG 1.1//EN" "http://www.w3.org/Graphics/SVG/1.1/DTD/svg11.dtd"><svg width="100%" height="100%" viewBox="0 0 512 512" version="1.1" xmlns="http://www.w3.org/2000/svg" xmlns:xlink="http://www.w3.org/1999/xlink" xml:space="preserve" style="fill-rule:evenodd;clip-rule:evenodd;stroke-linejoin:round;stroke-miterlimit:2;"><title>Crowdestates</title><desc>Crowdestates was set up to help socially responsible and community-led projects get funding. We want to support the building of these projects and want to allow communities and social impact investors to invest in property projects that have a purpose. </desc>    <g transform="matrix(31.0891,0,0,31.0891,-878.983,211.056)">        <g transform="matrix(0.550139,0,0,0.550139,21.4134,-9.81189)">            <circle cx="27.26" cy="20.648" r="4.768" style="fill:rgb(47,54,68);"/>        </g>        <g transform="matrix(0.550139,0,0,0.550139,21.9635,-9.26175)">            <path d="M18.438,34.3c-0.001,-0.056 -0.002,-0.112 -0.002,-0.167c0,-4.303 3.493,-7.797 7.796,-7.797c4.303,0 7.796,3.494 7.796,7.797c0,0.055 0,0.111 -0.002,0.167l-15.588,0Z" style="fill:rgb(47,54,68);"/>        </g>        <g transform="matrix(0.349147,0,0,0.349147,31.7538,-4.11285)">            <circle cx="27.26" cy="20.648" r="4.768" style="fill:rgb(180,180,180);"/>        </g>        <g transform="matrix(0.550139,0,0,0.550139,21.7935,-9.43178)">            <path d="M32.485,27.959c0.815,-0.592 1.819,-0.942 2.903,-0.942c2.731,0 4.948,2.217 4.948,4.948c0,0.036 -0.001,0.071 -0.001,0.106l-5.321,0c-0.448,-1.601 -1.338,-3.018 -2.529,-4.112Z" style="fill:rgb(180,180,180);"/>        </g>        <g transform="matrix(0.349147,0,0,0.349147,21.6629,-4.11285)">            <circle cx="27.26" cy="20.648" r="4.768" style="fill:rgb(180,180,180);"/>        </g>        <g transform="matrix(0.550139,0,0,0.550139,21.7935,-9.43178)">            <path d="M18.069,32.071l-5.97,0c-0.001,-0.035 -0.001,-0.07 -0.001,-0.106c0,-2.731 2.217,-4.948 4.948,-4.948c1.247,0 2.387,0.463 3.257,1.225c-1.044,1.051 -1.824,2.363 -2.234,3.829Z" style="fill:rgb(180,180,180);"/>        </g>        <g transform="matrix(0.95188,0,0,0.368741,20.1799,-8.84088)">            <path d="M17.139,9.464l-7.682,13.11c-0.257,0.488 -0.619,0.346 -0.808,-0.317c-0.19,-0.663 -0.135,-1.597 0.122,-2.086l8.367,-14.41l8.396,14.409c0.257,0.487 0.313,1.421 0.124,2.085c-0.189,0.664 -0.551,0.808 -0.808,0.321l-7.711,-13.112Z" style="fill:rgb(74,179,228);"/>        </g>    </g></svg>