<?xml version="1.0" encoding="UTF-8" standalone="no"?><!DOCTYPE svg PUBLIC "-//W3C//DTD SVG 1.1//EN" "http://www.w3.org/Graphics/SVG/1.1/DTD/svg11.dtd"><svg width="100%" height="100%" viewBox="0 0 512 512" version="1.1" xmlns="http://www.w3.org/2000/svg" xmlns:xlink="http://www.w3.org/1999/xlink" xml:space="preserve" style="fill-rule:evenodd;clip-rule:evenodd;stroke-linejoin:round;stroke-miterlimit:2;"><title>Profitus</title><desc>PROFITUS is one of the most ambitious and fastest growing crowdfunding platforms in the Baltic region. As a crowdlending service, it is as a mediator between those who want to invest and those want to receive funding. "Profitus" carries out risk assessments of the owner and Real Estate projects, administers the financing process, advises on the market. The investment opportunities provided on the PROFITUS platform are always secured by a mortgage.</desc>    <g transform="matrix(8.09678,0,0,8.09678,-2642.29,0.90283)">        <path d="M371.808,0.352l-9.523,14.285c-0.115,0.145 -0.183,0.314 -0.202,0.489c-0.005,0.036 -0.006,0.068 -0.008,0.1c-0.001,0.144 0.029,0.29 0.093,0.425c0.161,0.333 0.498,0.543 0.866,0.543l5.091,0l0,24.814c0,6.839 -5.565,12.405 -12.405,12.405l-0.856,0c-6.842,0 -12.408,-5.566 -12.408,-12.405l0,-21.181l-0.004,-0.014l0,-1.889c0,-1.019 -0.821,-1.841 -1.839,-1.841l-5.9,0c-1.019,0 -1.842,0.822 -1.842,1.841l0,23.084c0,12.125 9.867,21.992 21.993,21.992l0.856,0c12.126,0 21.991,-9.867 21.991,-21.992l0,-24.814l4.37,0c0.37,0 0.703,-0.21 0.865,-0.543c0.066,-0.135 0.095,-0.281 0.094,-0.425c0,-0.032 -0.003,-0.064 -0.006,-0.1c-0.02,-0.175 -0.088,-0.344 -0.205,-0.489l-9.523,-14.285c-0.185,-0.227 -0.467,-0.34 -0.75,-0.34c-0.282,0 -0.565,0.113 -0.748,0.34Z" style="fill:url(#_Linear1);"/>    </g>    <defs>        <linearGradient id="_Linear1" x1="0" y1="0" x2="1" y2="0" gradientUnits="userSpaceOnUse" gradientTransform="matrix(57.7351,-57.6126,57.6126,57.7351,323.418,55.7197)"><stop offset="0" style="stop-color:rgb(14,15,46);stop-opacity:1"/><stop offset="0.1" style="stop-color:rgb(39,42,111);stop-opacity:1"/><stop offset="0.2" style="stop-color:rgb(52,70,157);stop-opacity:1"/><stop offset="0.3" style="stop-color:rgb(63,86,166);stop-opacity:1"/><stop offset="0.5" style="stop-color:rgb(97,89,167);stop-opacity:1"/><stop offset="0.8" style="stop-color:rgb(187,102,169);stop-opacity:1"/><stop offset="1" style="stop-color:rgb(228,179,211);stop-opacity:1"/></linearGradient>    </defs></svg>