<?xml version="1.0" encoding="UTF-8" standalone="no"?><!DOCTYPE svg PUBLIC "-//W3C//DTD SVG 1.1//EN" "http://www.w3.org/Graphics/SVG/1.1/DTD/svg11.dtd"><svg width="100%" height="100%" viewBox="0 0 512 512" version="1.1" xmlns="http://www.w3.org/2000/svg" xmlns:xlink="http://www.w3.org/1999/xlink" xml:space="preserve" style="fill-rule:evenodd;clip-rule:evenodd;stroke-linejoin:round;stroke-miterlimit:2;"><title>Crowdestate</title><desc>Crowdestate is a Crowdfunding marketplace offering high-quality, pre-vetted real estate investment opportunities in Estonia, Finland and Latvia.While our close relationship with local real estate developers gives us access to a large number of pre-market real estate investment opportunities, only about 5% of the best investment opportunities survive our due diligence process and are opened for investing.</desc>    <g transform="matrix(1,0,0,1,191.99,192)">        <g transform="matrix(4.63721,0,0,4.63721,-232.818,-232.781)">            <path d="M15.93,50.76l14.91,0l13.16,42.86l14.19,-43l11.91,0l14.2,43l13.1,-42.86l14.6,0l-21.65,63.76l-12.12,0l-14.28,-41.43l-14.29,41.43l-12.12,0l-21.61,-63.76Z" style="fill:rgb(73,125,234);fill-rule:nonzero;"/>        </g>        <g transform="matrix(4.63721,0,0,4.63721,-232.818,-232.781)">            <path d="M78.43,27.9c0,0.003 0,0.007 0,0.01c0,7.916 -6.514,14.43 -14.43,14.43c-7.916,0 -14.43,-6.514 -14.43,-14.43c0,-7.916 6.514,-14.43 14.43,-14.43c7.912,0 14.425,6.508 14.43,14.42Zm-55,-14.42c-7.907,0.005 -14.41,6.513 -14.41,14.42c0,7.911 6.509,14.42 14.42,14.42c7.911,0 14.42,-6.509 14.42,-14.42c-0.005,-7.912 -6.518,-14.42 -14.43,-14.42Zm81.14,0c-7.907,0.005 -14.41,6.513 -14.41,14.42c0,7.911 6.509,14.42 14.42,14.42c7.911,0 14.42,-6.509 14.42,-14.42l0,0c0,-7.911 -6.509,-14.42 -14.42,-14.42c-0.003,0 -0.007,0 -0.01,0Z" style="fill:rgb(73,125,234);fill-rule:nonzero;"/>        </g>    </g></svg>