<?xml version="1.0" encoding="UTF-8" standalone="no"?><!DOCTYPE svg PUBLIC "-//W3C//DTD SVG 1.1//EN" "http://www.w3.org/Graphics/SVG/1.1/DTD/svg11.dtd"><svg width="100%" height="100%" viewBox="0 0 512 512" version="1.1" xmlns="http://www.w3.org/2000/svg" xmlns:xlink="http://www.w3.org/1999/xlink" xml:space="preserve" style="fill-rule:evenodd;clip-rule:evenodd;stroke-linejoin:round;stroke-miterlimit:2;"><title>Innovestment</title><desc>Innovestment is an equity-based crowdfunding platform that connects emerging technology growth companies with private investors. This gives start-up companies access to venture capital, and investors the ability to invest in a promising asset class beyond traditional stocks and bonds. Since its founding in 2011, Innovestment has helped businesses finance their visions by serving as an investment intermediary.</desc>    <g id="ivmt-logo" transform="matrix(9.21132,0,0,9.21132,-2257,112.123)">        <g id="Fill-24" transform="matrix(1,0,0,1,245.007,0)">            <rect x="0.73" y="10.873" width="5.485" height="20.113" style="fill:rgb(51,73,93);"/>        </g>        <g id="Fill-31" transform="matrix(1,0,0,1,245.027,1.19278)">            <path d="M6.799,3.946c0,-2.469 -0.704,-3.118 -3.347,-3.118c-2.597,0 -3.346,0.649 -3.346,3.118c0,2.424 0.749,3.118 3.346,3.118c2.643,0 3.347,-0.694 3.347,-3.118l0,0Z" style="fill:rgb(174,182,191);"/>        </g>        <path id="Fill-26" d="M276.624,15.559c0,-3.579 -1.023,-4.521 -4.854,-4.521c-3.768,0 -4.854,0.942 -4.854,4.521c0,3.516 1.086,4.522 4.854,4.522c3.831,0 4.854,-1.006 4.854,-4.522l-5.419,-0.323" style="fill:rgb(249,204,153);"/>        <path id="Fill-32" d="M288.562,15.559c0,-3.579 -1.023,-4.521 -4.854,-4.521c-3.769,0 -4.854,0.942 -4.854,4.521c0,3.516 1.085,4.522 4.854,4.522c3.831,0 4.854,-1.006 4.854,-4.522" style="fill:rgb(249,204,153);"/>        <path id="Fill-33" d="M288.562,4.775c0,-3.58 -1.023,-4.521 -4.854,-4.521c-3.769,0 -4.854,0.941 -4.854,4.521c0,3.516 1.085,4.522 4.854,4.522c3.831,0 4.854,-1.006 4.854,-4.522" style="fill:rgb(249,204,153);"/>        <path id="Fill-34" d="M288.562,26.344c0,-3.58 -1.023,-4.522 -4.854,-4.522c-3.769,0 -4.854,0.942 -4.854,4.522c0,3.516 1.085,4.521 4.854,4.521c3.831,0 4.854,-1.005 4.854,-4.521" style="fill:rgb(249,204,153);"/>        <path id="Fill-35" d="M264.799,26.344c0,-3.58 -1.024,-4.522 -4.854,-4.522c-3.769,0 -4.855,0.942 -4.855,4.522c0,3.516 1.086,4.521 4.855,4.521c3.83,0 4.854,-1.005 4.854,-4.521" style="fill:rgb(240,128,0);"/>        <path id="Fill-36" d="M295.646,11.038c-3.768,0 -4.854,0.942 -4.854,4.521c0,3.516 1.086,4.522 4.854,4.522c3.831,0 4.854,-1.006 4.854,-4.522c0,-3.579 -1.023,-4.521 -4.854,-4.521Z" style="fill:rgb(240,128,0);"/>    </g></svg>