<?xml version="1.0" encoding="UTF-8" standalone="no"?><!DOCTYPE svg PUBLIC "-//W3C//DTD SVG 1.1//EN" "http://www.w3.org/Graphics/SVG/1.1/DTD/svg11.dtd"><svg width="100%" height="100%" viewBox="0 0 512 512" version="1.1" xmlns="http://www.w3.org/2000/svg" xmlns:xlink="http://www.w3.org/1999/xlink" xml:space="preserve" style="fill-rule:evenodd;clip-rule:evenodd;stroke-linejoin:round;stroke-miterlimit:2;"><title>Finmar</title><desc>At finmar many private investors jointly finance current SME projects and receive interest in return. Borrowers are campaigning for a crowd loan. Every investor decides who to lend and how much money for a project to be completely self-determined. Once 100% of the amount has been raised, the loan agreement is concluded.</desc>    <g transform="matrix(1,0,0,1,-2.27374e-13,-0.478782)">        <g transform="matrix(6.35464,0,0,6.35464,-645.804,-1118.35)">            <circle cx="141.913" cy="216.351" r="40.128" style="fill:white;"/>        </g>        <path d="M289.085,306.408l217.842,0c-20.734,107.353 -108.501,190.89 -217.842,205.071l0,-205.071Zm199.281,-155.586c12.612,27.487 20.506,57.603 22.634,89.292l-221.915,0l0,-89.292l199.281,0Zm-233.509,-149.313l1.143,-0.03c74.507,0 141.61,32.01 188.354,83.048l-189.497,0l0,-83.018Z" style="fill:rgb(155,212,51);"/>        <path d="M222.915,306.408l0,205.071c-109.341,-14.181 -197.108,-97.718 -217.842,-205.071l217.842,0Zm0,-155.586l0,89.292l-221.915,0c2.128,-31.689 10.022,-61.805 22.634,-89.292l199.281,0Zm31.942,-149.313l0,83.018l-187.211,0c46.506,-50.778 113.163,-82.721 187.211,-83.018Z" style="fill:rgb(0,160,209);"/>    </g></svg>