<?xml version="1.0" encoding="UTF-8" standalone="no"?><!DOCTYPE svg PUBLIC "-//W3C//DTD SVG 1.1//EN" "http://www.w3.org/Graphics/SVG/1.1/DTD/svg11.dtd"><svg width="100%" height="100%" viewBox="0 0 512 512" version="1.1" xmlns="http://www.w3.org/2000/svg" xmlns:xlink="http://www.w3.org/1999/xlink" xml:space="preserve" style="fill-rule:evenodd;clip-rule:evenodd;stroke-linejoin:round;stroke-miterlimit:2;"><title>Code Investment</title><desc>CODE Investing is the UK's leading alternative debt finance marketplace for SMEs, offering businesses an efficient and cost-effective way to get the right business loan. CODE’s secure, encrypted platform has digitised most of the borrowing process, making it more efficient. CODE offer SME borrowers a variety of loan instruments (unsecured and secured loans, term loans, asset backed, real estate and convertible loans), before matching them to potential lenders.</desc>    <g transform="matrix(1.56107,0,0,1.56107,1,7.63453)">        <path d="M243.3,159.1c0,14.2 -3.9,27.5 -10.7,38.9l72.2,40.6c13.9,-23.4 21.9,-50.6 21.9,-79.5c0,-28.9 -8,-56.1 -21.9,-79.5l-72.2,40.6c6.8,11.4 10.7,24.7 10.7,38.9" style="fill:rgb(27,49,68);fill-rule:nonzero;"/>        <path d="M232.6,198c-13.8,23.3 -39.7,38.9 -69.3,38.9c-44.2,0 -80,-34.9 -80,-77.9c0,-43 35.8,-77.9 80,-77.9c29.6,0 55.4,15.7 69.3,38.9l72.2,-40.6c-28.2,-47.4 -81,-79.4 -141.5,-79.4c-90.2,0 -163.3,71.2 -163.3,159.1c0,87.8 73.1,159.1 163.3,159.1c60.5,0 113.2,-32 141.5,-79.5l-72.2,-40.7Z" style="fill:rgb(0,174,254);fill-rule:nonzero;"/>    </g></svg>