<?xml version="1.0" encoding="UTF-8" standalone="no"?><!DOCTYPE svg PUBLIC "-//W3C//DTD SVG 1.1//EN" "http://www.w3.org/Graphics/SVG/1.1/DTD/svg11.dtd"><svg width="100%" height="100%" viewBox="0 0 512 512" version="1.1" xmlns="http://www.w3.org/2000/svg" xmlns:xlink="http://www.w3.org/1999/xlink" xml:space="preserve" style="fill-rule:evenodd;clip-rule:evenodd;stroke-linejoin:round;stroke-miterlimit:2;"><title>Benefi</title><desc></desc>    <g transform="matrix(2.69094,0,0,2.69094,-80.4872,-169.099)">        <path d="M177.646,160.628c-0.351,-12.495 -2.54,-24.103 -8.075,-35.332c-13.64,-27.672 -52.889,-43.37 -82.179,-35.488c-25.419,6.841 -44.577,21.141 -52.392,46.192c1.949,-11.447 1.799,-12.187 7.449,-22.282c16.044,-28.66 48.533,-45.467 80.921,-46.002c18.318,-0.303 29.509,3.254 46.161,10.386c24.452,10.471 42.684,36.455 48.305,61.768l0.054,0.244c0.99,4.455 1.641,11.036 1.917,15.747c-0.799,7.352 -5.674,18.532 -13.547,21.586c-13.148,5.1 -25.761,-3.355 -28.614,-16.819Z" style="fill:rgb(0,197,97);"/>        <g transform="matrix(-1,-1.22465e-16,1.22465e-16,-1,250.089,315.949)">            <path d="M177.646,160.628c-0.351,-12.495 -2.54,-24.103 -8.075,-35.332c-13.64,-27.672 -52.889,-43.37 -82.179,-35.488c-25.419,6.841 -49.303,34.141 -52.303,46.141c1.95,-11.447 4.64,-17.77 8,-23c17.753,-27.635 47.893,-44.698 80.281,-45.233c18.318,-0.303 29.509,3.254 46.161,10.386c24.452,10.471 42.684,36.455 48.305,61.768l0.054,0.244c0.99,4.455 1.641,11.036 1.917,15.747c-0.799,7.352 -5.674,18.532 -13.547,21.586c-13.148,5.1 -25.761,-3.355 -28.614,-16.819Z" style="fill:rgb(0,197,97);"/>        </g>    </g></svg>