<?xml version="1.0" encoding="UTF-8" standalone="no"?><!DOCTYPE svg PUBLIC "-//W3C//DTD SVG 1.1//EN" "http://www.w3.org/Graphics/SVG/1.1/DTD/svg11.dtd"><svg width="100%" height="100%" viewBox="0 0 512 512" version="1.1" xmlns="http://www.w3.org/2000/svg" xmlns:xlink="http://www.w3.org/1999/xlink" xml:space="preserve" style="fill-rule:evenodd;clip-rule:evenodd;stroke-linejoin:round;stroke-miterlimit:2;"><title>Inwise</title><desc>Inwise is a factoring platform, where companies can sell their receivable invoices at the auction to investors with the highest bid. By investing in these invoices investors will obtain via Inwise new short-term investment instruments with a low risk and good return.</desc>    <g id="logoelement" transform="matrix(9.10714,0,0,9.12,-140.161,-122.48)">        <path d="M33.5,42.5c0,-1.6 -1.8,-2 -3,-2l-3,0c-1.1,0 -2,-0.9 -2,-2c0,-1.1 0.9,-2 2,-2l6,0l0,-4l10,0c4.4,0 6,-1.6 6,-6l0,-10l18,0c2.2,0 4,1.8 4,4l0,42c0,2.2 -1.8,4 -4,4l-30,0c-2.2,0 -4,-1.8 -4,-4l0,-6l-16,0c-1.1,0 -2,-0.9 -2,-2c0,-1.1 0.9,-2 2,-2l12.4,0c1.5,0 3.6,-0.1 3.6,-2m0,0c0,-0.3 0,-2.1 -3,-2l-0.3,0l-6.7,0c-1.1,0 -2,-0.9 -2,-2c0,-1.1 0.9,-2 2,-2l6.4,0c1.5,0 3.6,0 3.6,-2m26,-6l-14,0c-1.1,0 -2,0.9 -2,2c0,1.1 0.9,2 2,2l14,0c1.1,0 2,-0.9 2,-2c0,-1.1 -0.9,-2 -2,-2Zm0,8l-14,0c-1.1,0 -2,0.9 -2,2c0,1.1 0.9,2 2,2l14,0c1.1,0 2,-0.9 2,-2c0,-1.1 -0.9,-2 -2,-2Zm0,8l-14,0c-1.1,0 -2,0.9 -2,2c0,1.1 0.9,2 2,2l14,0c1.1,0 2,-0.9 2,-2c0,-1.1 -0.9,-2 -2,-2Zm-15,-24l-11,0l12,-12l0,11c0,0.6 -0.4,1 -1,1Zm-11,8l-3.6,0c2,0 3.6,-1.6 3.6,-3.6l0,3.6Zm-14,4l-2,0c-1.1,0 -2,-0.9 -2,-2c0,-1.1 0.9,-2 2,-2l2,0c1.1,0 2,0.9 2,2c0,1.1 -0.9,2 -2,2Zm14,19.6c0,-2 -1.8,-3.6 -4,-3.6l4,0l0,3.6Z" style="fill:rgb(46,193,159);"/>    </g></svg>