<?xml version="1.0" encoding="UTF-8" standalone="no"?><!DOCTYPE svg PUBLIC "-//W3C//DTD SVG 1.1//EN" "http://www.w3.org/Graphics/SVG/1.1/DTD/svg11.dtd"><svg width="100%" height="100%" viewBox="0 0 512 512" version="1.1" xmlns="http://www.w3.org/2000/svg" xmlns:xlink="http://www.w3.org/1999/xlink" xml:space="preserve" style="fill-rule:evenodd;clip-rule:evenodd;stroke-linejoin:round;stroke-miterlimit:2;"><title>Roger</title><desc>Our business finance system improves the way your business works with invoices. We offer simpler financing by removing long payment terms.Our platform is connected to invoicing systems, making financing seamless and hassle free. Simply let us know which invoices you would like to get paid straight away and we will get it done.</desc>    <g transform="matrix(13.4292,0,0,13.4292,-363.347,-291.561)">        <g transform="matrix(1,0,0,1,9.908,11.161)">            <path d="M35.173,28.843l-2.526,2.347l-2.706,2.61c-0.345,0.311 -0.542,0.753 -0.542,1.217c0,0.465 0.197,0.907 0.542,1.218c0.764,0.692 1.942,0.692 2.706,0l2.706,-2.609l4.149,4l15.698,-15.044l0,-0.435l-6.588,-6.347l-13.439,13.043Z" style="fill:rgb(122,227,250);fill-rule:nonzero;"/>        </g>        <g transform="matrix(1,0,0,1,11.231,10.143)">            <path d="M34.03,34.73l-2.706,2.609c-0.764,0.692 -1.942,0.692 -2.706,0c-0.345,-0.311 -0.542,-0.753 -0.542,-1.218c0,-0.464 0.197,-0.906 0.542,-1.217l2.8,-2.7l-8.934,-8.604l-6.584,6.348l0,0.435l13.981,13.477c0.833,0.779 2.144,0.779 2.977,0l5.322,-5.13l-4.15,-4Z" style="fill:rgb(0,195,98);fill-rule:nonzero;"/>        </g>    </g></svg>