<?xml version="1.0" encoding="UTF-8" standalone="no"?><!DOCTYPE svg PUBLIC "-//W3C//DTD SVG 1.1//EN" "http://www.w3.org/Graphics/SVG/1.1/DTD/svg11.dtd"><svg width="100%" height="100%" viewBox="0 0 512 512" version="1.1" xmlns="http://www.w3.org/2000/svg" xmlns:xlink="http://www.w3.org/1999/xlink" xml:space="preserve" style="fill-rule:evenodd;clip-rule:evenodd;stroke-linejoin:round;stroke-miterlimit:2;"><title>MyTripleA</title><desc>Crowdlending access platform where SMEs, freelancers and entrepreneurs obtain financing in the form of loans or factoring directly from private investors. In a global environment that moves towards the collaborative economy, MytripleA breaks with traditional financing channels and opens new investment-financing channels where both parties receive a better deal.</desc>    <g transform="matrix(1.39837,0,0,1.39837,-32.4536,147.35)">        <path d="M93,121.1c2,-0.5 3.8,-0.9 5.8,-1.3c1.4,-0.3 2.8,-0.3 4.2,-0.5c2.4,-0.3 4.9,-0.6 7.3,-1c2.2,-0.3 4.4,-0.7 6.7,-1c2.3,-0.3 4.6,-0.6 7,-0.9c1.1,-0.1 2.2,-0.2 3.3,-0.2c2.3,0.1 4.4,-0.8 6.6,-1.2c2.1,-0.4 4.3,-0.7 6.5,-1c0.7,-0.1 1.5,0.2 2.2,0.4c1.2,0.4 1.6,2 1.2,3.6c-0.5,1.8 -2,2.5 -3.5,2.8c-1.5,0.3 -3,0.5 -4.5,0.6c-2.8,0.2 -5.7,0.4 -8.5,1c-1.6,0.4 -3.2,0.5 -4.8,0.6c-3.2,0.2 -6.5,0.3 -9.8,0.6c-4.3,0.3 -8.5,1.4 -12.7,2.3c-3.2,0.7 -6.4,1 -9.7,1.6c-0.2,0 -0.5,0.2 -0.7,0.4c-0.5,0.8 -0.8,1.6 -1.3,2.4c-0.9,1.6 -1.9,2.2 -3.9,1.4c-0.4,-1.6 0.8,-2.8 1.1,-4.2c-1.1,0.1 -2.1,0.1 -3.1,0.2c-1.6,0.2 -3.3,0.4 -4.9,0.7c-2.5,0.5 -5,1.1 -7.5,1.7c-3.5,0.8 -7,1.7 -10.5,2.5c-0.5,0.1 -1,0.1 -1.5,0c-1,-0.1 -1.5,-1.2 -1.1,-2.2c0.5,-1.2 1.5,-1.9 2.7,-2.3c3,-1 6,-1.9 9,-2.7c1.8,-0.5 3.6,-0.8 5.3,-1.1c1.7,-0.3 3.4,-0.7 5.1,-1c1.9,-0.3 3.9,-0.6 5.9,-0.8c0.6,-0.1 1.3,-0.1 1.9,-0.2c0.3,-0.1 0.7,-0.2 0.8,-0.5c1.4,-2.6 2.7,-5.2 4,-7.8l0,-0.2l-4.8,0c-1.3,0 -2.6,0.3 -3.9,0.3c-1.7,0.1 -3.3,0.1 -5,0.2c-3,0.2 -6.1,0.5 -9.1,0.7c-2,0.2 -4,0.3 -6,0.6c-1.4,0.2 -2.8,0.3 -4.2,0.6c-0.4,0.1 -0.9,0.5 -1.2,1c-2.5,4.4 -4.5,9 -6.3,13.7c-0.6,1.4 -1.4,2.7 -2.2,3.9c-0.5,0.7 -2.6,0.9 -3.3,0.5c-0.7,-0.4 -1.1,-2.1 -0.6,-3.1c2.1,-4.8 4.1,-9.6 7,-14c0.1,-0.1 0.1,-0.3 0.3,-0.6c-0.9,0.3 -1.5,0.7 -2.3,0.9c-1.1,0.3 -2.1,0.6 -3.2,0.6c-2.5,0.1 -4.8,0.8 -7.2,1.5c-3.2,0.9 -6.3,1.8 -9.5,2.5c-1.7,0.4 -3.6,0.2 -5.3,-0.5c-1.1,-0.5 -1.2,-1.2 -0.1,-1.7c1.5,-0.8 3,-1.5 4.5,-2.2c0.2,-0.1 0.4,-0.2 0.5,-0.4c2.1,-2.9 4.2,-5.9 6.4,-8.7c1.9,-2.4 3.9,-4.7 5.9,-7.1l0,-0.3c-1.3,0.1 -2.5,0.2 -3.8,0.3c-0.1,0 -0.3,0.1 -0.4,0.1c-3.1,0.1 -6.1,0.2 -9.2,0.2c-0.8,0 -1.6,-0.2 -2.4,-0.4c-0.3,-0.1 -0.7,-0.4 -0.7,-0.7c0,-0.3 0.3,-0.8 0.5,-0.9c1.3,-0.4 2.6,-0.9 4,-1.1c3,-0.4 6.1,-0.6 9.1,-0.7c2.6,-0.1 5.3,-0.2 7.9,-0.2c1,0 1.9,0.1 2.9,0.2c0.3,0 0.8,0.3 0.9,0.6c0.2,0.4 0.1,1 -0.5,1.2c-1.2,0.4 -2.4,0.8 -3.6,1.1c-0.7,0.2 -1.4,0.1 -2.1,0.2c-0.4,0.1 -0.8,0.3 -1.1,0.6c-3.1,4.7 -6.2,9.4 -9.2,14c0,0.1 -0.1,0.2 -0.1,0.4c1.2,-0.3 2.4,-0.7 3.6,-1c3.7,-0.8 7.4,-1.6 11.1,-2.3c2,-0.4 4.1,-0.7 6.1,-1.1c0.3,-0.1 0.7,-0.5 0.9,-0.8c0.8,-1.6 1.5,-3.2 2.4,-4.7c1.5,-2.5 3,-5 4.6,-7.5c0.2,-0.3 0.4,-0.5 0.6,-0.9c-0.3,-0.1 -0.5,-0.3 -0.7,-0.4c-0.1,-0.1 -0.2,-0.2 -0.3,-0.3c0.3,-0.2 0.6,-0.4 0.9,-0.5c1.5,-0.3 2.2,-1.5 3,-2.5c1.6,-2 3.2,-3.9 4.8,-5.9c1.3,-1.7 2.5,-3.5 4,-5c1.8,-1.8 3.9,-3.2 5.8,-4.9c1.9,-1.7 3.7,-3.6 5.5,-5.4c0.7,-0.7 1.2,-1.5 1.9,-2.2c2.1,-2.2 4.1,-4.6 6.3,-6.6c2.2,-2.1 4.7,-3.9 7.2,-5.7c3.6,-2.6 7.4,-5.1 11.1,-7.6c2.7,-1.8 5.2,-3.9 8,-5.5c3.3,-1.9 6.7,-3.6 10.2,-5c3.9,-1.6 8,-3.1 12.1,-4.3c5.9,-1.7 11.8,-3.3 17.8,-4.6c3,-0.7 6.2,-0.9 9.3,-1.1c2.4,-0.2 4.8,-0.3 7.2,-0.4c2.8,-0.1 5.6,-0.2 8.4,-0.2c2.2,0 4.4,0.1 6.6,0.2c2.7,0.1 5.5,0.2 8.2,0.4c2.9,0.1 5.7,0.2 8.6,0.4c6.3,0.5 12.4,1.6 18.4,3.4c5.9,1.8 11.8,3.8 17.5,6.2c4.6,1.9 8.8,4.6 12.8,7.6c2.1,1.6 4,3.3 6.1,4.9c0.8,0.6 1.8,1.2 2.7,1.6c1.7,0.8 3.1,2.1 4.3,3.4c1.8,2 4,3.4 6.5,4.3c3.1,1.1 5.9,3 8.6,4.9c3.8,2.7 7.6,5.5 11.4,8.2c0.3,0.2 0.8,0.3 1.1,0.2c2.3,-0.5 4.6,-1.1 7,-1.7c-1.8,-0.9 -2.7,-2.6 -4,-4c-2.6,-2.8 -5.8,-4.8 -8.9,-7c-3.5,-2.4 -7,-4.7 -10.5,-7.1c-4.5,-3.1 -8.9,-6.3 -13.4,-9.4c-4.9,-3.4 -10.2,-6.2 -15.7,-8.4c-4.3,-1.8 -8.6,-3.6 -13.1,-5c-5.4,-1.7 -10.8,-3.1 -16.3,-4.4c-3.7,-0.9 -7.6,-1.4 -11.4,-2c-2.9,-0.5 -5.9,-0.7 -8.8,-1.1c-3,-0.4 -5.9,-0.8 -8.9,-1.1c-2.4,-0.2 -4.7,-0.4 -7.1,-0.6c-3.2,-0.2 -6.4,-0.4 -9.7,-0.5c-3.2,-0.1 -6.5,-0.3 -9.7,-0.2c-3.2,0.1 -6.3,0.3 -9.4,0.8c-4.5,0.7 -8.9,1.5 -13.3,2.5c-5.1,1.2 -10.1,2.4 -15.1,3.9c-4,1.2 -7.6,3.3 -11,5.7c-4.8,3.2 -9.5,6.6 -14.3,9.8c-1.9,1.3 -3.9,2.3 -5.7,3.5c-2,1.4 -3.9,3 -5.8,4.6c-2.2,1.8 -4.4,3.7 -6.6,5.6c-1.4,1.2 -2.9,2.5 -4.3,3.7c-2.1,1.8 -4.2,3.6 -6.3,5.4c-1.5,1.3 -2.9,2.6 -4.4,3.9c-2.4,2 -4.8,4 -7.1,5.9c-1,0.8 -2.1,1.6 -3.2,2.4c-0.2,0.2 -0.5,0.3 -0.8,0.3c-0.3,0 -0.7,0 -0.8,-0.2c-0.1,-0.2 0,-0.6 0.1,-0.8c0.3,-0.4 0.7,-0.7 1.2,-1c1.7,-1.1 2.6,-3 3.9,-4.5c1.5,-1.7 2.9,-3.5 4.3,-5.2c1,-1.2 2,-2.3 3.2,-3.4c3.7,-3.3 7.4,-6.7 11.2,-9.9c4.6,-3.9 9.4,-7.4 14.5,-10.7c5.7,-3.8 11.3,-7.6 17.1,-11.2c4.6,-2.8 9.3,-5.2 14.1,-7.6c4,-2 8.4,-3.1 12.8,-4c5.6,-1.2 11.2,-2.4 16.8,-3.5c3.1,-0.6 6.3,-1.1 9.4,-1.5c2.6,-0.3 5.2,-0.4 7.8,-0.6c1.7,-0.1 3.4,-0.2 5.1,-0.2c2.7,0.1 5.4,0.2 8.2,0.4c2.2,0.1 4.4,0.3 6.7,0.5c2.7,0.3 5.3,0.7 8,1.1c5.5,0.7 10.8,1.9 16.2,3.3c3.3,0.8 6.7,1.5 10.1,2.2c2.3,0.4 4.6,0.8 6.9,0.9c4.1,0.3 7.9,1.3 11.5,3.1c3.2,1.6 6.3,3.2 9.6,4.6c4.8,2 9,5 13.4,7.7c2.9,1.8 6.1,3 9.1,4.7c2.2,1.2 4.4,2.5 6.4,4.1c5.1,3.9 9.9,8.1 15.5,11.1c2.7,1.5 5.4,3.2 7.9,5c1.7,1.2 3.1,2.9 4.5,4.4c1,1 1.8,1.8 3.4,1.7c2.3,-0.1 4.7,0 7.1,0.2c2.3,0.2 4.5,0.6 6.8,0.9c1.5,0.2 3,0.3 4.5,0.4c2.6,0.1 5.1,0.1 7.7,0c2.9,-0.1 5.7,-0.5 8.5,-0.7l0.5,0c5.8,-0.1 11.6,-0.1 17.4,-0.2c1.3,0 2.5,0.2 3.8,0.2c1.6,0 3.2,-0.4 4.8,-0.3c2.2,0.1 4.5,0.4 6.4,1.7c1.2,0.8 1.7,1.9 1.9,3.2c0.5,3.2 -0.5,6.2 -1.4,9.2c-0.4,1.4 -1.6,1.9 -2.9,2.2c-2.4,0.5 -4.5,-0.5 -6.8,-1c-1.6,-0.3 -3.3,-0.5 -5,-0.7c-1.2,-0.1 -2.3,-0.1 -3.5,0c-3.9,0.2 -7.7,0.4 -11.6,0.5c-3,0.1 -6,-0.1 -9.1,0c-4.2,0.2 -8.4,0.4 -12.5,1.6c-0.3,0.1 -0.6,0.2 -0.8,0.3c-0.2,0.1 -0.4,0.2 -0.7,0.4c0.8,0.7 1.5,1.3 2.3,1.9c1.1,0.8 1.7,1.8 2.1,3c0.4,1.2 1,2.4 1.8,3.3c1.4,1.6 3.1,2.9 4.7,4.4c1.5,1.5 3.1,2.9 4.1,4.8c0.7,1.4 1.7,2.6 2.7,3.8c3.4,3.6 6.9,7.1 10.3,10.7c0.8,0.9 1.7,1.8 2.3,2.7c0.9,1.3 0.7,4.3 -0.5,5.4c-2.5,2.3 -5.1,4.6 -7.8,6.8c-1.4,1.2 -2.6,0.7 -3.5,-0.4c-1.2,-1.4 -2.3,-2.9 -3.4,-4.4c-1.9,-2.8 -3.6,-5.7 -5.6,-8.5c-1,-1.4 -2.4,-2.6 -3.5,-4c-1.8,-2.2 -3.5,-4.5 -5.3,-6.7c-1.9,-2.4 -3.7,-4.8 -5.9,-6.9c-2.6,-2.4 -5.4,-4.6 -9,-5.5c-1.7,-0.4 -3.6,-0.2 -5.4,-0.3l-2.8,0c0,0.1 -0.1,0.2 -0.1,0.3c0.9,1.2 1.8,2.5 2.6,3.7c1.7,2.5 4.1,4 6.5,5.7c2.1,1.5 4.2,3 6.2,4.6c0.5,0.4 0.8,0.9 1.2,1.5c0.7,1.1 0.3,1.9 -0.9,2.1c-1.6,0.1 -3.3,0 -5,0.1c-1.7,0 -3.3,-0.3 -4.8,-0.9c-3,-1.1 -5.7,-2.8 -8.2,-4.8c-4,-3.4 -8.1,-6.8 -12.5,-9.7c-0.3,-0.2 -0.9,-0.2 -1.4,-0.1c-3.7,0.6 -7.3,1.4 -11,1.9c-2.2,0.4 -4.5,0.6 -6.7,0.8c-3,0.3 -6,0.5 -9,0.7c-2.4,0.2 -4.7,0.3 -7.1,0.6c-3.1,0.3 -6.3,0.6 -9.4,0.9c-1,0.1 -2,0.2 -3,0.2c-6.8,0.1 -13.6,0.1 -20.4,0.2c-2.8,0 -5.6,0.2 -8.4,0.4c-2.6,0.2 -5.2,0.4 -7.8,0.7c-3.1,0.4 -6.1,0.9 -9.1,1.4c-2.2,0.3 -4.4,0.7 -6.7,1c-2.8,0.4 -5.6,0.7 -8.4,1.1c-2,0.3 -4.1,0.5 -6.1,0.8c-2.9,0.4 -5.8,1 -8.8,1.5c-3.5,0.6 -7,1.5 -10.6,1.9c-3.1,0.4 -6.3,0.6 -9.4,0.7c-1.2,0.1 -2.4,-0.2 -3.5,-0.5c-1.3,-0.3 -1.9,-1.6 -1.2,-2.8c0.4,-0.7 1,-1.4 1.8,-1.9c2,-1.2 4.2,-1.6 6.4,-1.9c3.2,-0.3 6.5,-0.5 9.7,-0.7c4.5,-0.3 9,-1 13.4,-1.9c3.9,-0.8 7.8,-1.6 11.7,-2.2c2.6,-0.4 5.3,-0.4 8,-0.7c-0.7,-0.2 -1.4,-0.4 -2.1,-0.5c-2.3,-0.1 -4.5,-0.1 -6.8,0c-2.6,0.1 -5.2,0.5 -7.8,0.7c-2.6,0.2 -5.2,0.4 -7.8,0.8c-3,0.4 -6.1,0.8 -9.1,1.3c-3.7,0.6 -7.3,1.3 -11,1.8c-1.9,0.3 -3.8,0.4 -5.7,0.6c-3.2,0.2 -6.4,0.4 -9.6,0.6c-1.6,0.1 -3.3,0.1 -4.9,0.2c-3.5,0.1 -7.1,0.2 -10.6,0.4c-2.7,0.1 -5.5,0.3 -8.2,0.5c-2.9,0.2 -5.8,0.5 -8.7,0.7c-2.7,0.2 -5.4,0.5 -8.1,0.7c-0.5,0 -1,0.1 -1.4,0.2c-0.2,0 -0.4,0.2 -0.5,0.4c-2.1,2.5 -3.3,5 -4.5,7.6Zm186.6,-42.2c0.1,-0.2 0.1,-0.3 0.2,-0.5c-3.9,-2.7 -7.8,-5.4 -11.7,-8c-5.2,-3.5 -10.7,-6.5 -16.3,-9.3c-4.4,-2.2 -8.7,-4.2 -13.2,-6.2c-2.7,-1.2 -5.4,-2.2 -8.2,-3.2c-3.6,-1.3 -7.3,-2.6 -11,-3.6c-3.8,-1.1 -7.7,-2.1 -11.7,-2.8c-3.2,-0.6 -6.4,-1 -9.6,-1.2c-4.7,-0.2 -9.5,-0.1 -14.2,0.5c-1.9,0.2 -3.9,0.3 -5.8,0.6c-3.1,0.4 -6.1,1 -9.1,1.4c-0.4,0.1 -0.8,-0.2 -1.1,-0.3c0.1,-0.4 0.2,-0.8 0.4,-1.1c1.6,-1.6 3.6,-2.3 5.7,-2.6c2,-0.3 4.1,-0.1 6.1,-0.3c1.4,-0.1 2.9,-0.3 4.3,-0.8c1.4,-0.5 2.7,-1.4 3.9,-2.2c0.7,-0.5 0.6,-0.8 -0.2,-1.1c-0.5,-0.2 -1.1,-0.3 -1.7,-0.3c-2.1,0 -4.2,0.1 -6.4,0.2c-1.9,0.1 -3.8,0 -5.6,0.2c-3.7,0.4 -7.4,0.6 -11,1.3c-4.7,0.9 -9.3,2 -13.9,3.4c-5.5,1.6 -10.9,3.6 -16.1,6.2c-5.2,2.6 -10.4,5.2 -15.4,8.1c-4.5,2.6 -8.8,5.5 -13,8.5c-4,2.8 -8,5.9 -11.8,9c-3.1,2.6 -6,5.4 -9,8.2c-2.4,2.4 -4.8,4.8 -7.1,7.3c-2.3,2.5 -4.6,5.1 -6.8,7.7c0.2,0.3 0.3,0.5 0.3,0.7c-0.6,0.4 -1.2,0.6 -1.5,1c-0.8,0.9 -1.5,1.9 -2.2,2.9c-2,2.8 -3.9,5.7 -5.9,8.5c-0.1,0.1 -0.1,0.3 -0.1,0.5c0.7,-0.1 1.3,-0.2 1.9,-0.2c1.9,-0.3 3.9,-0.5 5.8,-0.8l12,-1.8c1.8,-0.2 3.7,-0.5 5.5,-0.6c1.8,0 3.5,0.2 5.3,0.3c1.5,0.1 2.6,-0.2 3.3,-1.9c1.5,-3.4 3.3,-6.7 6.4,-9.3c-1.5,0.2 -2.8,0.3 -4,0.4c-2.4,0.2 -4.7,0.4 -7.1,0.5c-2.6,0.2 -5.2,0.3 -7.8,0.3c-2.3,0 -4.5,-0.2 -6.8,-0.4c-0.7,-0.1 -1.9,0 -1.8,-1c0,-0.5 1,-1 1.5,-1.6c0,0 0.1,-0.1 0.2,-0.1c1.9,-0.4 3.9,-0.5 5.8,-0.3c1.4,0.1 2.9,0.1 4.3,0c2.3,-0.2 4.6,-0.5 6.9,-0.8c0.9,-0.1 1.9,-0.1 2.8,-0.2c2.7,-0.3 5.4,-0.6 8.1,-0.9c1.5,-0.2 3,-0.2 4.5,-0.4c2.1,-0.2 4.2,-0.5 6.3,-0.7c1.8,-0.2 3.7,-0.3 5.5,-0.6c2.5,-0.3 5,-0.7 7.6,-1.1c2.8,-0.4 5.5,-0.7 8.3,-1.1c4,-0.5 7.9,-1.1 11.9,-1.6c3.3,-0.4 6.5,-0.7 9.8,-0.9c2.3,-0.2 4.5,-0.3 6.8,-0.4c3.3,-0.1 6.6,-0.2 9.9,-0.4c1.8,-0.1 3.6,-0.1 5.4,-0.2c3,-0.1 6,-0.2 9,-0.4c2.3,-0.1 4.6,-0.2 6.9,-0.4c2.5,-0.1 5,-0.3 7.5,-0.4c3.1,-0.1 6.2,-0.2 9.3,-0.4c2.8,-0.1 5.7,-0.2 8.5,-0.4c2.5,-0.1 5.1,-0.2 7.6,-0.4c0.9,0 1.7,-0.1 2.6,-0.2c2.5,-0.2 5,-0.5 7.5,-0.7c1.3,-0.1 2.5,-0.3 3.8,-0.4c1.9,-0.2 3.8,-0.5 5.7,-0.7c1.8,-0.2 3.5,-0.4 5.3,-0.6c1.9,-0.2 3.8,-0.5 5.6,-0.7c1.4,-0.2 2.8,-0.3 4.5,-0.5c-0.4,-0.3 -0.5,-0.4 -0.8,-0.6c-2,-1.2 -3.9,-2.3 -5.9,-3.5c-5.2,-3.2 -10.5,-6.2 -16,-8.8c-4,-1.9 -8,-3.5 -12.2,-4.7c-7,-2 -14.1,-3.8 -21.3,-4.9c-4.2,-0.7 -8.5,-1.4 -12.8,-1.6c-4.1,-0.2 -8.2,-0.1 -12.2,0.4c-3.2,0.3 -6.4,1.1 -9.4,2.1c-6.3,1.9 -12.6,3.9 -18.8,5.9c-3.9,1.3 -7.6,3.1 -11.1,5.2c-3.3,2 -6.5,4.4 -9.8,6.5c-3.5,2.2 -7.1,4.2 -10.7,6.3c-0.8,0.5 -1.8,0.9 -3.1,0.5c0.3,-0.8 0.4,-1.8 0.8,-2.4c0.6,-0.9 1.5,-1.7 2.4,-2.3c1.3,-0.8 2.8,-1.3 4.1,-2.1c1.7,-1.1 3.4,-2.3 4.6,-3.8c1,-1.2 2,-2.3 3.4,-3c2.5,-1.3 4.8,-2.8 7,-4.5c2.1,-1.6 4.4,-2.8 7,-3.6c1.4,-0.4 2.9,-0.7 4.3,-1.3c4.6,-2.1 9.2,-4.4 13.9,-6.4c2.7,-1.1 5.5,-1.9 8.2,-2.7c2,-0.5 4,-0.8 6.1,-1.1c2.1,-0.4 4.2,-1 6.4,-0.6c1.3,0.2 2.6,0.3 3.9,0.4c2.3,0.1 4.5,-0.1 6.8,0.1c1.3,0.1 2.7,0.4 4,0.9c1.5,0.6 3,1.1 4.7,1.1c1.9,0 3.8,0.2 5.7,0.4c1.2,0.1 2.4,0.5 3.6,0.7c2.3,0.4 4.6,0.8 6.9,1.2c2.2,0.4 4.3,0.9 6.6,0.8c1.8,0 3.5,0.3 5.2,1.2c2.7,1.6 5.5,3 8.3,4.4c1.8,0.9 3.7,1.6 5.7,1.7c1.1,0.1 2.2,0.4 3.2,0.9c2.9,1.5 5.7,3.3 8.6,4.8c2.6,1.4 5,3 7.4,4.8c2.4,1.9 5,3.7 7.4,5.5c0.5,0.3 0.8,1 1.3,1c1,0.6 2.1,0.4 3.2,0.4Zm3.4,15c0.1,-0.2 0.1,-0.3 0.2,-0.5c-0.2,-0.2 -0.5,-0.3 -0.7,-0.5c-3.1,-2.2 -6.2,-4.4 -9.3,-6.6c-0.3,-0.2 -0.7,-0.3 -1.1,-0.3c-2,0.1 -3.9,0.2 -5.9,0.4c-3.1,0.2 -6.2,0.5 -9.3,0.7c-0.9,0.1 -1.8,0.1 -2.7,0.2c-2.6,0.2 -5.3,0.5 -7.9,0.7c-1.3,0.1 -2.7,0.2 -4,0.4c-2.1,0.2 -4.2,0.5 -6.4,0.7c-1.9,0.2 -3.7,0.4 -5.6,0.6c-2.2,0.2 -4.4,0.5 -6.5,0.7c-1.6,0.2 -3.2,0.3 -4.9,0.4c-3.1,0.2 -6.2,0.6 -9.3,0.7c-4.3,0.2 -8.6,0 -13,-0.5c-1.8,-0.2 -3.5,-0.2 -5.3,-0.4c-2.8,-0.2 -5.7,-0.6 -8.5,-0.7c-3,-0.1 -6.1,0.1 -9.1,0.2c-1.6,0 -3.2,0.1 -4.8,0.2c-1,0 -2,0.1 -3,0.2c-2.6,0.2 -5.2,0.5 -7.8,0.7c-1.5,0.1 -3.1,0.2 -4.6,0.4c-2.5,0.3 -5,0.6 -7.5,0.9c-2.3,0.3 -4.6,0.5 -6.9,0.8c-2.7,0.3 -5.3,0.7 -8,1.1c-2.7,0.3 -5.4,0.6 -8,0.9c-3.3,0.4 -6.6,0.8 -9.9,1.1c-2.4,0.2 -4.7,0.4 -7.1,0.6c-0.7,0.1 -1.4,0.2 -2,0.3c0,0.6 0.1,1 0,1.5c-0.3,2.1 -1.4,3.9 -2.4,5.7c-0.5,0.9 -1.1,1.8 -1.7,2.8c0.8,-0.2 1.5,-0.4 2.2,-0.5c2.7,-0.5 5.4,-0.9 8.1,-1.3c1.5,-0.2 2.9,-0.2 4.4,-0.4c2.6,-0.3 5.1,-0.7 7.6,-1.1c2.8,-0.4 5.7,-0.9 8.5,-1.3c2.7,-0.4 5.3,-0.8 8,-1c2.9,-0.2 5.8,-0.3 8.7,-0.2c3.8,0.1 7.5,-0.7 11.2,-1.4c2.9,-0.6 5.8,-1.3 8.8,-1.2c1.3,0 2.7,0 4,-0.2c2.8,-0.4 5.7,-0.9 8.5,-1.2c2.8,-0.3 5.6,-0.6 8.4,-0.7c5.3,-0.1 10.6,0.2 16,0.4c4.1,0.2 8.2,-0.3 12.4,-0.7c2,-0.2 4.1,-0.5 6,-0.9c1.9,-0.4 3.8,-1.2 5.6,-1.8c3.1,-1.1 6.2,-1.3 9.5,-1.1c2.7,0.2 5.4,0.4 8,0.5c2.7,0.2 5.3,0.3 8,0.4c6.2,0.1 12.4,0 18.6,0.5c3.4,0.1 7,-0.2 10.5,-0.2Zm34.6,-7.3c-1.6,-1.6 -3,-3 -4.4,-4.4c-0.1,-0.1 -0.3,-0.3 -0.5,-0.3l-5.2,0c0.7,0.6 1.5,0.9 2.1,1.3c1.9,1.2 3.8,2.3 5.6,3.6c0.7,0.5 1.4,0.2 2.4,-0.2Zm-24.7,4.2c-0.1,-0.3 -0.1,-0.4 -0.2,-0.5c-1.2,-2 -2.7,-3.7 -4.4,-5.3c-0.3,-0.2 -0.7,-0.5 -1,-0.5c-1.2,0.1 -2.4,0.3 -3.8,0.4c3.1,2.3 5.9,4.5 9.4,5.9Zm41,-9.3c-3.1,-0.9 -6.2,-0.5 -9.3,-0.2c0.4,0.5 0.8,0.9 1.1,1.4c0.6,1.1 1.5,1.2 2.6,0.8c1.9,-0.5 3.8,-0.9 5.6,-2Zm-87.2,20.5l0,-0.5c-5.2,-0.9 -10.5,0 -15.7,0.5l15.7,0Zm-27.8,-60.8c5.2,1.6 10.3,3.2 15.5,4.7c-4.7,-3 -10.2,-3.5 -15.5,-4.7Z" style="fill:rgb(51,138,233);"/>    </g></svg>