<?xml version="1.0" encoding="UTF-8" standalone="no"?><!DOCTYPE svg PUBLIC "-//W3C//DTD SVG 1.1//EN" "http://www.w3.org/Graphics/SVG/1.1/DTD/svg11.dtd"><svg width="100%" height="100%" viewBox="0 0 512 512" version="1.1" xmlns="http://www.w3.org/2000/svg" xmlns:xlink="http://www.w3.org/1999/xlink" xml:space="preserve" style="fill-rule:evenodd;clip-rule:evenodd;stroke-linejoin:round;stroke-miterlimit:2;"><title>Angels Den</title><desc>Angels Den Funding is an online investment platform that makes it simple for investors to own shares in early-stage companies with great potential. Using Artificial Intelligence combined with our team’s vast experience, we are constantly improving our start-up selection process. Our mission is to ensure that investors have access to businesses that meet the highest standards.</desc>    <g transform="matrix(3.36817,0,0,3.36817,-5.73633,-606.25)">        <g transform="matrix(4.58491,0,0,4.58491,153.417,259.791)">            <path d="M0,15.686c-8.473,-0.417 -15.268,-7.212 -15.686,-15.686l15.686,0l0,15.686Z" style="fill:rgb(179,178,178);fill-rule:nonzero;"/>        </g>        <g transform="matrix(4.58491,0,0,4.58491,153.418,180.29)">            <path d="M0,15.686c-0.417,-8.473 -7.213,-15.269 -15.686,-15.686l0,15.686l15.686,0Z" style="fill-rule:nonzero;"/>        </g>        <g transform="matrix(4.58491,0,0,4.58491,73.919,180.29)">            <path d="M0,15.686c-8.473,-0.417 -15.269,-7.213 -15.686,-15.686l15.686,0l0,15.686Z" style="fill:rgb(190,159,86);fill-rule:nonzero;"/>        </g>    </g></svg>