<?xml version="1.0" encoding="UTF-8" standalone="no"?><!DOCTYPE svg PUBLIC "-//W3C//DTD SVG 1.1//EN" "http://www.w3.org/Graphics/SVG/1.1/DTD/svg11.dtd"><svg width="100%" height="100%" viewBox="0 0 512 512" version="1.1" xmlns="http://www.w3.org/2000/svg" xmlns:xlink="http://www.w3.org/1999/xlink" xml:space="preserve" style="fill-rule:evenodd;clip-rule:evenodd;stroke-linejoin:round;stroke-miterlimit:2;"><title>Seedrs</title><desc>Seedrs is the world’s leading equity crowdfunding platform. We make it simple for anyone to become investors in ambitious, growth-focused European businesses. You can invest as little or as much as you like, and we handle all of the legal documentation and due diligence to ensure that businesses are set up for success—and investors get their fair share.</desc>    <g id="Seedrs" transform="matrix(4.64167,0,0,4.64167,-40.8298,-40.993)">        <path d="M102.47,25c-10.201,-10.21 -24.057,-15.953 -38.49,-15.953c-14.512,0 -28.436,5.805 -38.65,16.113c-18.985,19.197 -21.256,49.638 -5.33,71.44c-9.458,-14.983 -7.312,-34.675 5.15,-47.27c14.13,-14.21 72.37,-23.59 77.32,-24.33Z" style="fill:rgb(190,214,108);fill-rule:nonzero;"/>        <path d="M78.57,103.09c-12.44,12.548 -32.13,14.714 -47,5.17c21.607,16.042 52.036,13.754 71,-5.34c21.153,-21.342 21.221,-56.227 0.15,-77.65c-0.72,4.99 -10.03,63.61 -24.15,77.82Z" style="fill:rgb(114,147,62);fill-rule:nonzero;"/>        <path d="M85.36,85.84c-11.38,11.45 -30.23,11 -42.12,-0.94c-11.89,-11.94 -12.32,-30.9 -0.94,-42.39c2.66,-2.67 7.41,-5.08 13.12,-7.19c-12.92,3.82 -24.84,8.56 -30.26,14c-14.647,14.79 -14.647,38.97 0,53.76c14.516,14.651 38.517,14.764 53.17,0.25l0.25,-0.25c5.42,-5.44 10.11,-17.43 13.91,-30.41c-2.09,5.73 -4.48,10.5 -7.13,13.17" style="fill:rgb(142,194,64);fill-rule:nonzero;"/>    </g></svg>