<?xml version="1.0" encoding="UTF-8" standalone="no"?><!DOCTYPE svg PUBLIC "-//W3C//DTD SVG 1.1//EN" "http://www.w3.org/Graphics/SVG/1.1/DTD/svg11.dtd"><svg width="100%" height="100%" viewBox="0 0 512 512" version="1.1" xmlns="http://www.w3.org/2000/svg" xmlns:xlink="http://www.w3.org/1999/xlink" xml:space="preserve" style="fill-rule:evenodd;clip-rule:evenodd;stroke-linejoin:round;stroke-miterlimit:2;"><title>OnePlanetCrowd</title><desc>Oneplanetcrowd is a crowdfunding platform on which future-oriented investors lend money to social-innovative companies. They find each other on the platform oneplanetcrowd.com. Via crowdfunding, Oneplanetcrowd offers both an attractive financial return and a positive impact on people and the environment. With this double return, Oneplanetcrowd strives to accelerate the transition to a sustainable economy.</desc>    <g transform="matrix(0.619463,0,0,0.619655,-2.47785,94.4352)">        <g transform="matrix(1.69051,0,0,1.68998,-12.3556,-170.478)">            <path d="M497.64,198.39c0,-103.063 -83.674,-186.738 -186.738,-186.738l-113.534,0c-103.063,0 -186.738,83.675 -186.738,186.738l-0,113.534c-0,103.064 83.675,186.739 186.738,186.739l113.534,-0c103.064,-0 186.738,-83.675 186.738,-186.739l0,-113.534Z" style="fill:rgb(93,42,101);"/>        </g>        <g transform="matrix(1.34484,0,0,1.34484,-162.987,-16.101)">            <path d="M196.219,302.511c22.598,-114.315 101.726,-192.301 235.827,-193.315c117.801,-0.891 209.187,75.605 234.661,193.315l-4.047,0c-28.394,-103.321 -117.035,-168.767 -229.614,-168.563c-100.648,0.182 -200.014,84.709 -231.527,168.563l-5.3,0Z" style="fill:rgb(105,205,207);"/>        </g>    </g></svg>