<?xml version="1.0" encoding="UTF-8" standalone="no"?><!DOCTYPE svg PUBLIC "-//W3C//DTD SVG 1.1//EN" "http://www.w3.org/Graphics/SVG/1.1/DTD/svg11.dtd"><svg width="100%" height="100%" viewBox="0 0 512 512" version="1.1" xmlns="http://www.w3.org/2000/svg" xmlns:xlink="http://www.w3.org/1999/xlink" xml:space="preserve" style="fill-rule:evenodd;clip-rule:evenodd;stroke-linejoin:round;stroke-miterlimit:2;"><title>LC&amp;F</title><desc>Since 2012 London Capital &amp; Finance Plc has become a leading provider of fixed rate bonds giving investors a fixed interest rates of 3.9%, 6.5% or 8.0% over 1, 2 or 3 years respectively. LC&amp;F; has over 8,000 investors, £120 million worth of invested funds and £287 million worth of assets held as a security (as on 31 January 2018). </desc>    <g transform="matrix(5.33473,0,0,5.33473,1,21.272)">        <rect x="0" y="0" width="95.6" height="88" style="fill:rgb(247,80,94);"/>        <path d="M61,59l-0.3,-11l-0.9,0c-0.1,1.3 -0.5,2.6 -1.1,3.8c-0.9,-1.1 -2.2,-2.1 -4,-3c-1.8,-0.9 -3.7,-1.3 -5.9,-1.3c-2.6,0 -5,0.6 -7.2,1.8c-2.2,1.2 -3.9,3.1 -5.1,5.6c-1.2,2.5 -1.8,5.2 -1.8,8.1c0,4.3 1.3,7.8 4,10.5c2.7,2.7 6.1,4 10.3,4c4,0 7.2,-1.4 9.8,-4.3c0.7,0.9 1.1,1.9 1.4,3.1l0.9,0l0,-10.2l-0.9,0c-0.2,1.6 -0.8,3.4 -1.7,5.2c-1,1.8 -2.3,3 -3.9,3.8c-1.6,0.7 -3.2,1.1 -4.8,1.1c-2.9,0 -5.3,-1.2 -7.3,-3.5c-1.921,-2.37 -2.901,-5.645 -3,-9.9c0,-4.6 0.9,-8.1 2.7,-10.6c1.8,-2.5 4.3,-3.7 7.3,-3.7c2.5,0 4.7,0.8 6.7,2.3c1.9,1.6 3.3,4.3 3.9,8.2l0.9,0Z" style="fill:white;"/>        <path d="M21.6,48.8l0,-1l-14,0l0,1l0.6,0c1.5,0 2.5,0.1 2.9,0.4c0.5,0.3 0.8,0.7 0.9,1.4c0.1,0.7 0.2,2.2 0.2,4.5l0,14.2c0,2.4 -0.1,3.9 -0.2,4.6c-0.1,0.7 -0.4,1.2 -0.9,1.5c-0.5,0.3 -1.4,0.5 -2.6,0.5l-0.9,0l0,1l24.7,0l0.3,-8.7l-1,0c-0.6,2.3 -1.3,3.9 -2.1,5c-0.8,1.1 -1.6,1.8 -2.5,2.1c-0.9,0.3 -2.2,0.5 -4,0.5l-2.2,0c-1.7,0 -2.8,-0.1 -3.3,-0.4c-0.5,-0.3 -0.8,-0.7 -0.9,-1.2c-0.1,-0.5 -0.2,-1.8 -0.2,-3.9l0,-15.2c0,-2.4 0.1,-4 0.2,-4.6c0.2,-0.6 0.5,-1.1 0.9,-1.3c0.392,-0.294 1.363,-0.396 2.8,-0.4l1.3,0Z" style="fill:white;"/>        <path d="M87,55.1l0.9,-0.1l-0.2,-7.2l-22.4,0l0,1l0.5,0c1.5,0 2.5,0.1 2.9,0.4c0.5,0.3 0.8,0.7 0.9,1.4c0.1,0.7 0.2,2.2 0.2,4.5l0,14.2c0,2.4 -0.1,3.9 -0.2,4.6c-0.1,0.7 -0.4,1.2 -0.9,1.5c-0.5,0.3 -1.4,0.5 -2.6,0.5l-0.9,0l0,1l13.6,0l0,-1l-1,0c-1.345,-0.01 -2.213,-0.208 -2.7,-0.5c-0.5,-0.4 -0.8,-0.9 -0.9,-1.6c-0.1,-0.7 -0.2,-2.2 -0.2,-4.5l0,-7.2l2.7,0c1.437,0.004 2.409,0.106 2.9,0.4c0.5,0.3 0.8,0.8 1.1,1.5c0.3,0.7 0.4,1.7 0.4,2.9l1.1,0l0,-10.2l-1.1,0c0,1.8 -0.3,3 -0.9,3.6c-0.6,0.6 -1.7,0.9 -3.5,0.9l-2.7,0l0,-12.3l5.7,0c1.845,0.004 3.015,0.106 3.8,0.4c0.8,0.2 1.5,0.9 2.2,1.9c0.7,1 1.1,2.3 1.3,3.9Z" style="fill:white;"/>    </g></svg>