<?xml version="1.0" encoding="UTF-8" standalone="no"?><!DOCTYPE svg PUBLIC "-//W3C//DTD SVG 1.1//EN" "http://www.w3.org/Graphics/SVG/1.1/DTD/svg11.dtd"><svg width="100%" height="100%" viewBox="0 0 512 512" version="1.1" xmlns="http://www.w3.org/2000/svg" xmlns:xlink="http://www.w3.org/1999/xlink" xml:space="preserve" style="fill-rule:evenodd;clip-rule:evenodd;stroke-linejoin:round;stroke-miterlimit:2;"><title>SMLA</title><desc>The Swiss Marketplace Lending Association (SMLA) is an association with a non-commercial and non-profit purpose. It brings together all stakeholders of marketplace lending.The association is a joint initiative of marketplace lending platforms and investors in Switzerland and the Lucerne University of Applied Sciences and Arts.</desc>    <g transform="matrix(1,0,0,1.00156,-851.98,24.1811)">        <g transform="matrix(-6.88187e-16,-11.2384,-11.2389,6.88151e-16,1037.19,241.146)">            <path d="M-0.001,-12.598c-3.478,0 -6.299,2.82 -6.299,6.299c0,3.48 2.821,6.299 6.299,6.299c3.48,0 6.3,-2.819 6.3,-6.299c0,-3.479 -2.82,-6.299 -6.3,-6.299" style="fill:rgb(227,6,19);fill-rule:nonzero;"/>        </g>        <g transform="matrix(6.88187e-16,11.2384,-11.2389,6.88151e-16,1279.16,268.581)">            <path d="M0,-7.257c1.461,0.585 2.174,2.241 1.595,3.701c-0.303,0.767 -0.902,1.318 -1.614,1.594c2.054,0.603 4.292,2.4 4.44,2.54c-4.695,-1.257 -9.715,-1.025 -13.161,-0.319c0.175,-0.168 2.424,-2.334 5.712,-2.82c-0.807,-0.78 -1.11,-1.991 -0.673,-3.095c0.585,-1.467 2.241,-2.179 3.701,-1.601" style="fill:rgb(227,6,19);fill-rule:nonzero;"/>        </g>        <g transform="matrix(6.88187e-16,11.2384,-11.2389,6.88151e-16,1051.9,5.13994)">            <path d="M0,3.934c-0.223,-1.557 0.854,-3.003 2.409,-3.231c0.814,-0.122 1.593,0.121 2.187,0.6c-0.505,-2.079 -0.068,-4.916 -0.02,-5.115c1.258,4.695 3.97,8.927 6.304,11.558c-0.234,-0.067 -3.234,-0.933 -5.299,-3.538c-0.272,1.09 -1.17,1.957 -2.343,2.129c-1.563,0.228 -3.009,-0.849 -3.238,-2.403" style="fill:rgb(156,16,6);fill-rule:nonzero;"/>        </g>        <g transform="matrix(6.88187e-16,11.2384,-11.2389,6.88151e-16,940.43,423.067)">            <path d="M0,-12.803c0.888,2.03 0.094,5.699 -0.511,6.856c1.075,-0.31 2.28,0.041 3.014,0.969c0.975,1.238 0.768,3.028 -0.463,4.004c-1.238,0.974 -3.028,0.766 -4.005,-0.472c-0.511,-0.645 -0.687,-1.44 -0.571,-2.2c-2.273,1.856 -4.377,2.156 -4.348,2.119c4.575,-5.53 5.333,-7.212 6.884,-11.276" style="fill:rgb(192,13,14);fill-rule:nonzero;"/>        </g>        <g transform="matrix(6.88187e-16,11.2384,-11.2389,6.88151e-16,848.698,423.067)">            <path d="M0,-20.965c-0.081,0.154 -0.168,0.309 -0.262,0.463c-1.938,3.406 -5.356,7.772 -8.114,10.585c-0.492,0.498 -0.955,0.942 -1.387,1.325c-1.285,1.144 -2.625,2.12 -4.003,2.712c0.713,0.283 1.311,0.834 1.615,1.602c0.578,1.459 -0.135,3.114 -1.595,3.694c-1.46,0.584 -3.116,-0.136 -3.701,-1.595c-0.437,-1.104 -0.134,-2.322 0.673,-3.096c-1.311,-0.054 -2.65,-0.545 -4.009,-1.656c-0.465,-0.376 -0.869,-0.766 -1.225,-1.156c-0.041,-0.048 -0.082,-0.087 -0.121,-0.135c-0.586,-0.666 -1.037,-1.346 -1.373,-2.011c-1.044,-2.012 -1.117,-3.89 -1.231,-4.845c0,0 1.049,0.585 2.913,1.036c2.341,0.565 5.961,0.915 10.402,-0.39c3.311,-0.969 7.079,-2.853 11.102,-6.265c0.1,-0.086 0.208,-0.174 0.316,-0.268" style="fill:rgb(192,13,14);fill-rule:nonzero;"/>        </g>        <g transform="matrix(6.88187e-16,11.2384,-11.2389,6.88151e-16,1088.27,445.99)">            <path d="M0,-15.01c1.231,0.975 1.438,2.765 0.463,4.003c-0.734,0.929 -1.938,1.272 -3.014,0.969c0.605,1.157 0.847,2.563 0.572,4.299c-0.08,0.505 -0.188,0.975 -0.323,1.42c-0.014,0.067 -0.033,0.128 -0.054,0.195c-0.29,0.915 -0.672,1.696 -1.11,2.368c-1.225,1.919 -2.82,2.927 -3.592,3.506c0,0 -0.022,-1.407 -0.708,-3.506c-0.759,-2.348 -2.361,-5.57 -5.699,-8.639c-2.482,-2.287 -5.927,-4.495 -10.703,-6.203c-0.116,-0.048 -0.238,-0.087 -0.358,-0.128c0.155,-0.007 0.316,-0.007 0.478,-0.007c4.043,-0.027 9.796,0.801 13.645,1.837c0.532,0.142 1.029,0.289 1.48,0.437c1.628,0.545 3.142,1.219 4.347,2.114c-0.115,-0.754 0.06,-1.555 0.571,-2.201c0.977,-1.232 2.767,-1.44 4.005,-0.464" style="fill:rgb(227,6,19);fill-rule:nonzero;"/>        </g>        <g transform="matrix(6.88187e-16,11.2384,-11.2389,6.88151e-16,965.762,159.618)">            <path d="M0,-25.608c2.052,0.182 3.573,0.962 4.401,1.326c0,0 -1.339,0.8 -2.92,2.631c-1.595,1.85 -3.432,4.75 -4.382,8.935c-0.765,3.364 -0.955,7.562 0.022,12.723c0.007,0.027 0.007,0.048 0.013,0.074c-0.013,-0.026 -0.035,-0.053 -0.048,-0.08c-2.038,-3.37 -4.237,-8.774 -5.335,-12.717c-0.181,-0.659 -0.336,-1.278 -0.45,-1.844c-0.343,-1.689 -0.518,-3.33 -0.343,-4.825c-0.6,0.48 -1.38,0.72 -2.194,0.6c-1.555,-0.228 -2.631,-1.668 -2.402,-3.229c0.229,-1.555 1.668,-2.632 3.228,-2.403c1.178,0.169 2.081,1.036 2.349,2.127c0.701,-1.104 1.796,-2.019 3.439,-2.646c0.591,-0.228 1.157,-0.389 1.702,-0.497c0.013,-0.007 0.027,-0.007 0.041,-0.007c1.048,-0.222 2.011,-0.249 2.879,-0.168" style="fill:rgb(156,16,6);fill-rule:nonzero;"/>        </g>    </g></svg>