<?xml version="1.0" encoding="UTF-8" standalone="no"?><!DOCTYPE svg PUBLIC "-//W3C//DTD SVG 1.1//EN" "http://www.w3.org/Graphics/SVG/1.1/DTD/svg11.dtd"><svg width="100%" height="100%" viewBox="0 0 512 512" version="1.1" xmlns="http://www.w3.org/2000/svg" xmlns:xlink="http://www.w3.org/1999/xlink" xml:space="preserve" style="fill-rule:evenodd;clip-rule:evenodd;stroke-linejoin:round;stroke-miterlimit:2;"><title>Colectual</title><desc>We put private investors in contact with productive companies seeking financing and establish transparent and balanced relationships between them. We allocate part of our profit to actions of a social nature.</desc>    <g transform="matrix(5.94567,0,0,5.94567,-838.063,-1069.46)">        <g transform="matrix(5.55556,0,0,5.55556,184.216,232.956)">            <path d="M0,-3.609c0.664,0.664 1.74,0.665 2.405,0c0.664,-0.664 0.664,-1.741 0,-2.405l-0.003,-0.003c-2.325,-2.321 -6.092,-2.321 -8.416,0.003c-2.324,2.324 -2.324,6.094 0,8.419c2.325,2.323 6.093,2.324 8.418,0c0.222,-0.222 0.222,-0.581 0,-0.803c-0.221,-0.221 -0.58,-0.222 -0.801,0l0,0.001c-1.882,1.881 -4.933,1.881 -6.814,0c-1.883,-1.882 -1.883,-4.934 0,-6.816c1.463,-1.464 3.637,-1.788 5.415,-0.973l-0.204,0.172c-0.665,0.664 -0.665,1.741 0,2.405" style="fill:rgb(60,60,60);fill-rule:nonzero;"/>        </g>        <g transform="matrix(5.55556,0,0,5.55556,217.448,196.786)">            <path d="M0,3.402c0.939,0 1.701,-0.762 1.701,-1.701c0,-0.94 -0.762,-1.701 -1.701,-1.701c-0.939,0 -1.701,0.761 -1.701,1.701c0,0.939 0.762,1.701 1.701,1.701" style="fill:rgb(60,60,60);fill-rule:nonzero;"/>        </g>        <g transform="matrix(-5.55556,0,0,5.55556,217.448,249.072)">            <path d="M0,-3.402c0.939,0 1.701,0.761 1.701,1.701c0,0.94 -0.762,1.701 -1.701,1.701c-0.939,0 -1.701,-0.761 -1.701,-1.701c0,-0.94 0.762,-1.701 1.701,-1.701" style="fill:rgb(60,60,60);fill-rule:nonzero;"/>        </g>    </g></svg>