<?xml version="1.0" encoding="UTF-8" standalone="no"?><!DOCTYPE svg PUBLIC "-//W3C//DTD SVG 1.1//EN" "http://www.w3.org/Graphics/SVG/1.1/DTD/svg11.dtd"><svg width="100%" height="100%" viewBox="0 0 512 512" version="1.1" xmlns="http://www.w3.org/2000/svg" xmlns:xlink="http://www.w3.org/1999/xlink" xml:space="preserve" style="fill-rule:evenodd;clip-rule:evenodd;stroke-linejoin:round;stroke-miterlimit:2;"><title>bettervest</title><desc>bettervest is an online investment platform for sustainable investments.Invest comfortably in effective projects that benefit people and the planet.Financing mitigation projects in South America and Africa</desc>    <g transform="matrix(4.02718,0,0,4.02718,-1206.37,-357.108)">        <g transform="matrix(1.29359,0,0,1.29129,174.84,-22.0353)">            <path d="M157.65,101.038l-5.63,0l0,-12.44c0,-1.49 -1.19,-2.67 -2.67,-2.67c-1.48,0 -2.66,1.18 -2.66,2.67l0,12.44l-14.23,0l0,-12.44c0,-1.49 -1.18,-2.67 -2.66,-2.67c-1.48,0 -2.67,1.18 -2.67,2.67l0,12.44l-5.92,0c-2.38,0 -4.45,2.07 -4.45,4.74c0,2.37 2.07,4.44 4.45,4.44l0.59,0c-0.3,3.56 -0.59,11.86 0.59,16l0.3,0.3c1.77,3.56 3.55,4.15 5.03,4.74c0.89,0.3 1.19,0.3 1.49,1.78c0,2.96 0.29,7.7 5.92,9.18l0,6.82l2.08,0c-0.3,3.26 -1.78,22.814 0.59,34.962c1.18,0 4.15,-0.296 5.33,0c-3.85,-17.482 -1.78,-32.292 -1.48,-34.962l1.78,0l0,-6.82c5.33,-1.18 6.22,-5.33 6.52,-9.18c0.29,-1.48 0.59,-1.48 1.48,-1.78c1.18,-0.59 3.26,-1.18 5.03,-4.74l0,-0.3c1.19,-4.14 0.89,-12.44 0.89,-16l0.3,0c2.67,0 4.74,-2.07 4.74,-4.44c0,-2.67 -2.07,-4.74 -4.74,-4.74Zm-4.74,24c-0.89,2.07 -1.78,2.37 -2.67,2.67c-1.78,0.59 -3.26,1.48 -3.85,4.74c-0.3,0 -0.3,0.29 -0.3,0.29c0,3.86 -0.59,6.23 -6.51,6.23l-0.3,0c-5.93,0 -6.22,-2.37 -6.52,-6.23l0,-0.29c-0.89,-3.26 -2.37,-4.15 -3.85,-4.74c-0.89,-0.3 -1.78,-0.6 -2.96,-2.67c-0.89,-3.26 -0.89,-10.96 -0.6,-14.82l28.15,0c0.3,3.86 0.59,11.56 -0.59,14.82Z" style="fill:rgb(62,61,64);"/>        </g>        <g transform="matrix(1.29359,0,0,1.29129,174.84,-60.2988)">            <path d="M139.58,152.3c1.18,0 2.37,-1.19 2.37,-2.67c0,-1.48 -1.19,-2.37 -2.37,-2.37c-1.49,0 -2.67,0.89 -2.67,2.37c0,1.48 1.18,2.67 2.67,2.67Z" style="fill:rgb(62,61,64);"/>        </g>        <g transform="matrix(1.29359,0,0,1.29129,174.84,48.3568)">            <path d="M106.69,93.335c0.29,27.264 24.89,28.745 24.89,28.745c0,0 -1.49,-7.405 0,-21.625c-3.86,-5.34 -8,-5.93 -12.45,-5.93l-3.55,0c-2.67,0 -5.63,-0.3 -8.89,-1.19" style="fill:rgb(156,195,70);fill-rule:nonzero;"/>        </g>        <g transform="matrix(1.29359,0,0,1.29129,174.84,25.4093)">            <path d="M182.83,86.816c-6.22,7.41 -43.55,3.55 -35.55,59.554c46.81,-10.963 36.44,-53.634 35.55,-59.554" style="fill:rgb(156,195,70);fill-rule:nonzero;"/>        </g>    </g></svg>