<?xml version="1.0" encoding="UTF-8" standalone="no"?><!DOCTYPE svg PUBLIC "-//W3C//DTD SVG 1.1//EN" "http://www.w3.org/Graphics/SVG/1.1/DTD/svg11.dtd"><svg width="100%" height="100%" viewBox="0 0 512 512" version="1.1" xmlns="http://www.w3.org/2000/svg" xmlns:xlink="http://www.w3.org/1999/xlink" xml:space="preserve" style="fill-rule:evenodd;clip-rule:evenodd;stroke-linejoin:round;stroke-miterlimit:2;"><title>iCrowdhouse</title><desc>ICrowdHouse is a participatory financing platform based on Investment Crowdfunding (CROWDEQUITY). We connect from small investors to professionals who want to invest in projects with high potential, with promoters seeking financing, all transparently and through our technology platform.</desc>    <g transform="matrix(7.0442,0,0,7.0442,-43.3785,-36.3343)">        <g>            <rect x="23.4" y="33.4" width="1.4" height="18.6" style="fill:rgb(1,68,129);fill-rule:nonzero;"/>            <path d="M34.1,50.9c-1.5,-0.8 -2.6,-1.9 -3.5,-3.4c-0.9,-1.5 -1.3,-3 -1.3,-4.8c0,-1.8 0.4,-3.4 1.3,-4.8c0.9,-1.4 2,-2.6 3.5,-3.4c1.5,-0.8 3.1,-1.2 4.9,-1.2c1.3,0 2.6,0.2 3.7,0.7c1.1,0.4 2.1,1.1 2.9,1.9l-0.8,0.9c-1.5,-1.5 -3.4,-2.2 -5.7,-2.2c-1.6,0 -3,0.4 -4.2,1.1c-1.3,0.7 -2.3,1.7 -3,2.9c-0.7,1.2 -1.1,2.6 -1.1,4.2c0,1.6 0.4,2.9 1.1,4.2c0.7,1.2 1.7,2.2 3,2.9c1.3,0.7 2.7,1.1 4.2,1.1c2.3,0 4.2,-0.7 5.7,-2.2l0.8,0.9c-0.8,0.8 -1.8,1.5 -2.9,1.9c-1.1,0.4 -2.4,0.7 -3.7,0.7c-1.8,-0.2 -3.4,-0.6 -4.9,-1.4Z" style="fill:rgb(1,68,129);fill-rule:nonzero;"/>            <path d="M65.3,33.4l0,18.6l-1.3,0l0,-8.8l-12.4,0l0,8.8l-1.4,0l0,-18.6l1.4,0l0,8.6l12.4,0l0,-8.6l1.3,0Z" style="fill:rgb(1,68,129);fill-rule:nonzero;"/>        </g>        <g>            <path d="M74.6,25c-0.5,0.2 -0.9,0.4 -1.5,0.6c2.5,4.8 3.9,10.2 3.9,16c0,19.1 -15.6,34.7 -34.7,34.7c-19.1,0 -34.5,-15.6 -34.5,-34.7c0,-19.1 15.6,-34.7 34.7,-34.7c8.7,0 16.7,3.3 22.8,8.6c0.3,-0.5 0.6,-0.9 0.9,-1.3c-6.4,-5.5 -14.7,-8.9 -23.7,-8.9c-20,0 -36.2,16.3 -36.2,36.2c0,19.9 16.3,36.2 36.2,36.2c19.9,0 36.2,-16.3 36.2,-36.2c0,-5.9 -1.5,-11.5 -4.1,-16.5Z" style="fill:rgb(1,68,129);fill-rule:nonzero;"/>            <path d="M64.3,18.9c0,3.8 3.1,7 7,7c0.7,0 1.3,-0.1 1.9,-0.3c0.5,-0.1 1,-0.3 1.5,-0.6c2.2,-1.2 3.6,-3.5 3.6,-6.1c0,-3.8 -3.1,-7 -7,-7c-2,0 -3.9,0.9 -5.1,2.3c-0.4,0.4 -0.7,0.8 -0.9,1.3c-0.6,1.1 -1,2.2 -1,3.4Zm7,-5.4c3,0 5.4,2.4 5.4,5.4c0,3 -2.4,5.4 -5.4,5.4c-3,0 -5.4,-2.4 -5.4,-5.4c0,-3 2.4,-5.4 5.4,-5.4Z" style="fill:rgb(1,68,129);fill-rule:nonzero;"/>        </g>    </g></svg>