<?xml version="1.0" encoding="UTF-8" standalone="no"?><!DOCTYPE svg PUBLIC "-//W3C//DTD SVG 1.1//EN" "http://www.w3.org/Graphics/SVG/1.1/DTD/svg11.dtd"><svg width="100%" height="100%" viewBox="0 0 512 512" version="1.1" xmlns="http://www.w3.org/2000/svg" xmlns:xlink="http://www.w3.org/1999/xlink" xml:space="preserve" style="fill-rule:evenodd;clip-rule:evenodd;stroke-linejoin:round;stroke-miterlimit:2;"><title>easyMoney</title><desc>We want everybody to get a better return on their investments, through simple, honest products that offer more value, for less. Apply today.Cut out the banks. Lend directly to property professionals secured by bricks and mortar and receive great rates of return on your capital.</desc>    <g transform="matrix(1.76923,0,0,1.76923,-188.077,-152.692)">        <path d="M381,121.392c0,-11.255 -9.137,-20.392 -20.392,-20.392l-219.216,0c-11.255,0 -20.392,9.137 -20.392,20.392l0,219.216c0,11.255 9.137,20.392 20.392,20.392l219.216,0c11.255,0 20.392,-9.137 20.392,-20.392l0,-219.216Z" style="fill:rgb(235,99,50);"/>    </g>    <g transform="matrix(641.374,0,0,641.374,84.8522,407.731)">        <path d="M0.47,-0.219l-0.23,0c-0.01,0 -0.015,0.005 -0.015,0.013c0,0.022 0.012,0.042 0.035,0.06c0.022,0.019 0.047,0.028 0.073,0.028c0.016,0 0.033,-0.003 0.052,-0.009c0.02,-0.006 0.035,-0.013 0.048,-0.022c0.011,-0.008 0.019,-0.012 0.026,-0.012c0.008,0 0.017,0.006 0.025,0.016c0.008,0.01 0.012,0.021 0.012,0.032c0,0.024 -0.015,0.046 -0.044,0.068c-0.052,0.039 -0.111,0.058 -0.179,0.058c-0.068,0 -0.126,-0.02 -0.172,-0.059c-0.022,-0.02 -0.041,-0.044 -0.056,-0.071c-0.019,-0.037 -0.028,-0.076 -0.028,-0.116c0,-0.055 0.016,-0.104 0.049,-0.148c0.029,-0.038 0.066,-0.066 0.11,-0.084c0.033,-0.014 0.069,-0.021 0.108,-0.021c0.062,0 0.114,0.017 0.157,0.052c0.022,0.018 0.04,0.039 0.053,0.063c0.015,0.027 0.023,0.054 0.023,0.08c0,0.021 -0.004,0.038 -0.013,0.052c-0.009,0.013 -0.02,0.02 -0.034,0.02Zm-0.217,-0.091l0.049,0c0.021,0 0.031,-0.01 0.031,-0.029c0,-0.017 -0.005,-0.032 -0.015,-0.043c-0.01,-0.011 -0.023,-0.016 -0.039,-0.016c-0.018,0 -0.033,0.007 -0.043,0.021c-0.01,0.013 -0.015,0.027 -0.015,0.041c0,0.009 0.003,0.016 0.007,0.02c0.005,0.004 0.013,0.006 0.025,0.006Z" style="fill:white;fill-rule:nonzero;"/>    </g></svg>