<?xml version="1.0" encoding="UTF-8" standalone="no"?><!DOCTYPE svg PUBLIC "-//W3C//DTD SVG 1.1//EN" "http://www.w3.org/Graphics/SVG/1.1/DTD/svg11.dtd"><svg width="100%" height="100%" viewBox="0 0 512 512" version="1.1" xmlns="http://www.w3.org/2000/svg" xmlns:xlink="http://www.w3.org/1999/xlink" xml:space="preserve" style="fill-rule:evenodd;clip-rule:evenodd;stroke-linejoin:round;stroke-miterlimit:2;"><title>Lumo</title><desc>Lumo is a crowdfunding investment platform. It allows individuals and companies to give meaning to their savings by financing projects with a positive impact, useful for the ecological transition.Founded in 2012, Lumo helped create the regulatory framework for crowdfunding dedicated to renewable energies, alongside other pioneers in the sector.</desc>    <g transform="matrix(3.39325,0,0,3.39325,-84.1206,-66.471)">        <g transform="matrix(0.336574,0,0,0.336574,14.792,1.8534)">            <rect x="30.583" y="53.571" width="446.554" height="446.554" style="fill:rgb(255,89,0);"/>        </g>        <g transform="matrix(0.739482,-0.42694,0.5,0.866025,-17.7221,49.8741)">            <rect x="36.236" y="98.022" width="117.462" height="1.978" style="fill:rgb(255,243,235);"/>        </g>        <g transform="matrix(1,0,0,1,0.0327456,-3.93621)">            <path d="M111.161,115.873l22.251,38.54l-1.714,0.989l-22.255,-38.547c0.591,-0.298 1.164,-0.626 1.718,-0.982Zm-9.195,2.961l0,27.993l-1.978,-0l-0,-27.993c0.327,0.017 0.657,0.026 0.989,0.026c0.332,-0 0.662,-0.009 0.989,-0.026Zm-11.225,-2.995c0.504,0.326 1.024,0.63 1.56,0.908l-9.666,16.741l-1.563,-0.903l9.669,-16.746Zm27.212,-7.618l15.459,8.925l-0.99,1.714l-15.426,-8.907c0.348,-0.558 0.668,-1.136 0.957,-1.732Zm1.781,-10.199l33.964,-0l0,1.978l-33.861,-0c-0,-0.668 -0.035,-1.328 -0.103,-1.978Zm-37.514,-0c-0.068,0.65 -0.102,1.31 -0.102,1.978l-45.882,-0l0,-1.978l45.984,-0Zm3.153,-8.611c-0.371,0.544 -0.713,1.109 -1.026,1.692l-16.931,-9.775l0.989,-1.713l16.968,9.796Zm6.948,-6.168c-0.587,0.304 -1.157,0.638 -1.706,1l-15.89,-27.522l1.713,-0.989l15.883,27.511Zm17.256,-0.029l23.485,-40.677l1.563,0.902l-23.484,40.676c-0.505,-0.325 -1.027,-0.626 -1.564,-0.901Zm-7.611,-2.048c-0.327,-0.017 -0.657,-0.026 -0.989,-0.026c-0.332,0 -0.662,0.009 -0.989,0.026l-0,-17.918l1.978,0l0,17.918Z" style="fill:rgb(255,243,235);"/>        </g>    </g></svg>