<?xml version="1.0" encoding="UTF-8" standalone="no"?><!DOCTYPE svg PUBLIC "-//W3C//DTD SVG 1.1//EN" "http://www.w3.org/Graphics/SVG/1.1/DTD/svg11.dtd"><svg width="100%" height="100%" viewBox="0 0 512 512" version="1.1" xmlns="http://www.w3.org/2000/svg" xmlns:xlink="http://www.w3.org/1999/xlink" xml:space="preserve" style="fill-rule:evenodd;clip-rule:evenodd;stroke-linejoin:round;stroke-miterlimit:2;"><title>Simple Crowdfunding</title><desc>Simple Crowdfunding is a property crowdfunding platform that offers both equity finance and peer to peer loans through one platform. We connect Investors with property professionals through property projects in the UK. We first received authorisation in 2013 and have been growing ever since.Investors access property investment opportunities and learn about property through live projects. Fundraisers get projects funded, increase their market presence and build a base of loyal fans.</desc>    <g transform="matrix(2.1993,0,0,2.1993,-21.8131,101.482)">        <g transform="matrix(0.616627,0,0,0.616627,-5.78339,-75.2327)">            <path d="M254.863,47.913c0,0 -71.197,50.898 -71.575,95.447c-0.322,38.056 11.451,45.193 61.073,99.972c26.299,29.032 36.218,58.628 37.151,75.874c1.461,27.01 -5.389,52.371 -5.389,52.371c0,0 18.454,-20.409 16.658,-70.407c-1.109,-30.897 -33.013,-77.13 -33.013,-77.13c0,0 27.858,20.019 37.779,42.586c22.357,50.857 14.416,69.848 14.416,69.848c0,0 28.955,-48.4 33.491,-66.538c5.944,-23.765 24.101,-65.113 -13.642,-120.73c-21.201,-31.241 -59.476,-46.335 -77.554,-51.014c-18.078,-4.679 -6.713,-2.826 -25.357,-6.44c-1.725,-17.079 25.962,-43.839 25.962,-43.839Z" style="fill:rgb(210,76,0);"/>        </g>        <g transform="matrix(-0.616627,-7.5515e-17,7.5515e-17,-0.616627,258.422,215.749)">            <path d="M254.863,47.913c0,0 -71.197,50.898 -71.575,95.447c-0.322,38.056 11.451,45.193 61.073,99.972c26.299,29.032 36.218,58.628 37.151,75.874c1.461,27.01 -5.389,52.371 -5.389,52.371c0,0 18.454,-20.409 16.658,-70.407c-1.109,-30.897 -33.013,-77.13 -33.013,-77.13c0,0 27.858,20.019 37.779,42.586c22.357,50.857 14.416,69.848 14.416,69.848c0,0 28.955,-48.4 33.491,-66.538c5.944,-23.765 24.101,-65.113 -13.642,-120.73c-21.201,-31.241 -59.476,-46.335 -77.554,-51.014c-18.078,-4.679 -6.713,-2.826 -25.357,-6.44c-1.725,-17.079 25.962,-43.839 25.962,-43.839Z"/>        </g>    </g></svg>