<?xml version="1.0" encoding="UTF-8" standalone="no"?><!DOCTYPE svg PUBLIC "-//W3C//DTD SVG 1.1//EN" "http://www.w3.org/Graphics/SVG/1.1/DTD/svg11.dtd"><svg width="100%" height="100%" viewBox="0 0 512 512" version="1.1" xmlns="http://www.w3.org/2000/svg" xmlns:xlink="http://www.w3.org/1999/xlink" xml:space="preserve" style="fill-rule:evenodd;clip-rule:evenodd;stroke-linejoin:round;stroke-miterlimit:2;"><title>CreditOn CZ</title><desc></desc>    <g transform="matrix(14.2933,0,0,14.2757,-1749.87,-421.633)">        <path d="M122.496,46.528l4.021,0c0.229,-0.023 2.012,-0.232 2.448,-2.208l0.002,0.014c1.112,-3.956 4.215,-7.074 8.157,-8.207l-0.006,0c0.021,-0.004 0.04,-0.012 0.062,-0.019c0.037,-0.008 0.079,-0.023 0.116,-0.032c1.793,-0.496 2.007,-2.144 2.03,-2.39l0,-4.044c-9.069,0.536 -16.326,7.808 -16.83,16.886Z" style="fill:rgb(0,157,204);fill-rule:nonzero;"/>        <path d="M154.049,48.448c-0.229,0.019 -2.013,0.229 -2.448,2.207l-0.003,-0.013c-1.111,3.953 -4.214,7.071 -8.156,8.204l0.005,0.003c-0.023,0 -0.039,0.008 -0.061,0.016c-0.039,0.014 -0.076,0.023 -0.116,0.031c-1.793,0.497 -2.01,2.145 -2.03,2.391l0,4.042c9.073,-0.533 16.327,-7.806 16.834,-16.881l-4.025,0Z" style="fill:rgb(255,120,0);fill-rule:nonzero;"/>        <path d="M137.119,58.85l0.014,-0.003c-3.945,-1.133 -7.053,-4.246 -8.17,-8.196l0,0.005c-0.003,-0.023 -0.014,-0.039 -0.016,-0.058c-0.008,-0.034 -0.019,-0.071 -0.029,-0.105c-0.496,-1.822 -2.179,-2.025 -2.4,-2.044l-4.021,0c0.504,9.075 7.761,16.351 16.831,16.881l0,-4.042c-0.024,-0.258 -0.249,-2.011 -2.209,-2.438Z" style="fill:rgb(0,174,18);fill-rule:nonzero;"/>        <path d="M155.969,40.002l0.013,-0.003c-3.942,-1.129 -7.051,-4.247 -8.167,-8.195l0,0.006c-0.006,-0.021 -0.011,-0.04 -0.017,-0.059c-0.013,-0.035 -0.023,-0.068 -0.028,-0.108c-0.502,-1.816 -2.179,-2.022 -2.403,-2.038l-4.021,0c0.507,9.07 7.764,16.346 16.831,16.878l0,-4.043c-0.025,-0.255 -0.246,-2.011 -2.208,-2.438Z" style="fill:rgb(211,0,133);fill-rule:nonzero;"/>    </g></svg>