<?xml version="1.0" encoding="UTF-8" standalone="no"?><!DOCTYPE svg PUBLIC "-//W3C//DTD SVG 1.1//EN" "http://www.w3.org/Graphics/SVG/1.1/DTD/svg11.dtd"><svg width="100%" height="100%" viewBox="0 0 512 512" version="1.1" xmlns="http://www.w3.org/2000/svg" xmlns:xlink="http://www.w3.org/1999/xlink" xml:space="preserve" style="fill-rule:evenodd;clip-rule:evenodd;stroke-linejoin:round;stroke-miterlimit:2;"><title>Housers</title><desc>Housers is the first savings and investment platform that has revolutionized the rules of the game making possible the democratization of investment in real assets. Today, thanks to Housers, thousands of investors can get the most out of their money.Housers allows you to invest in assets that you can see and touch: your investments are always linked to real estate.</desc>    <g transform="matrix(12.0055,0,0,12.0011,55.9945,-11.0011)">        <path d="M8.586,38.328l-0.584,0l4.755,4.754l-6.418,0l-4.755,-4.754l-0.584,0l5.168,5.168l7.587,0l-5.169,-5.168Z" style="fill:rgb(73,61,62);fill-rule:nonzero;"/>        <path d="M26.713,37.915l-6.76,0l0,-11.961l-11.78,0l0,11.961l-6.76,0l0,-28.359l6.76,0l0,11.264l11.78,0l0,-19.405l6.76,0l0,36.5Zm-7.173,-36.915l0,19.406l-10.954,0l0,-11.262l-7.586,0l0,29.184l7.586,0l0,-11.96l10.954,0l0,11.96l7.587,0l0,-37.328l-7.587,0Z" style="fill:rgb(73,61,62);fill-rule:nonzero;"/>        <path d="M24.732,6.158l0,19.406l-10.954,0l0,-11.263l-7.587,0l0,29.183l7.587,0l0,-11.959l10.954,0l0,11.959l7.587,0l0,-37.326l-7.587,0Z" style="fill:rgb(73,61,62);fill-rule:nonzero;"/>        <path d="M20.562,1.414l6.417,0l4.755,4.755l0.585,0l-5.169,-5.169l-7.586,0" style="fill:rgb(73,61,62);fill-rule:nonzero;"/>    </g></svg>