<?xml version="1.0" encoding="UTF-8" standalone="no"?><!DOCTYPE svg PUBLIC "-//W3C//DTD SVG 1.1//EN" "http://www.w3.org/Graphics/SVG/1.1/DTD/svg11.dtd"><svg width="100%" height="100%" viewBox="0 0 512 512" version="1.1" xmlns="http://www.w3.org/2000/svg" xmlns:xlink="http://www.w3.org/1999/xlink" xml:space="preserve" style="fill-rule:evenodd;clip-rule:evenodd;stroke-linejoin:round;stroke-miterlimit:2;"><title>Hyposcout</title><desc>Hyposcout AG is an emerging fintech start-up focused on brokering capital and lenders. As an online brokerage platform, Hyposcout AG brings together investors (investors) and real estate owners (borrowers). Investors include private individuals as well as institutional clients from all over the world who want to hedge their investment through a Swiss property and benefit from attractive interest rates. On the other hand, capital investors have the opportunity to raise capital at a market-oriented interest rate and provide their Swiss property as collateral.</desc>    <g transform="matrix(1.75351,0,0,1.75351,-35.8236,-209.055)">        <g transform="matrix(92.7754,0,0,92.7758,221.558,265.179)">            <path d="M-0.972,-0.272l0.181,1.299l1.583,0l0.181,-1.299l-0.26,-0.202l0,-0.333l-0.235,0l0,0.152l-0.478,-0.371l-0.972,0.754Zm0.377,0.154l0.595,-0.462l0.596,0.462l-0.111,0.792l-0.969,0l-0.111,-0.792Z" style="fill:url(#_Radial1);fill-rule:nonzero;"/>        </g>        <g transform="matrix(74.0008,9.56091,-4.00267,30.9313,174.194,338.51)">            <path d="M0.986,-0.637l-0.856,0.265l-0.016,1.028l0.927,-0.286l-0.055,-1.007Z" style="fill:url(#_Linear2);"/>        </g>        <g transform="matrix(36.9435,69.224,-37.9705,20.2607,136.907,249.435)">            <path d="M0.873,-0.048l-0.867,-0.844l-0.001,1.001l1.158,0.783l-0.29,-0.94Z" style="fill:url(#_Linear3);"/>        </g>        <g transform="matrix(92.7754,0,0,92.7758,111.258,265.179)">            <path d="M-0.973,-0.272l0.181,1.299l1.584,0l0.049,-0.353l0.132,-0.946l-0.091,-0.07l-0.274,0.213l-0.014,0.011l-0.01,0.078l-0.099,0.714l-0.137,0l-0.231,0l0,-0.301l-0.234,0l0,0.301l-0.368,0l-0.11,-0.792l0.595,-0.462l0.307,0.238l0.288,-0.223l-0.278,-0.215l-0.317,-0.246l-0.973,0.754Z" style="fill:url(#_Radial4);fill-rule:nonzero;"/>        </g>        <g transform="matrix(16.8625,22.0107,-47.8083,36.6293,174.354,251.97)">            <path d="M0.253,-0.479l-0.374,0.046l0.004,0.559l0.931,0.42l0.084,-0.724l-0.645,-0.301Z" style="fill:url(#_Linear5);"/>        </g>        <g transform="matrix(13.5163,17.6432,-47.8096,36.6268,137.515,207.561)">            <path d="M0.047,0.317l0.946,-0.088l-0.009,-0.555l-0.976,0.088l0.039,0.555Z" style="fill:url(#_Linear6);fill-rule:nonzero;"/>        </g>    </g>    <defs>        <radialGradient id="_Radial1" cx="0" cy="0" r="1" gradientUnits="userSpaceOnUse" gradientTransform="matrix(1,0,0,-1,0,0.000763489)"><stop offset="0" style="stop-color:rgb(100,143,162);stop-opacity:1"/><stop offset="1" style="stop-color:rgb(20,111,148);stop-opacity:1"/></radialGradient>        <linearGradient id="_Linear2" x1="0" y1="0" x2="1" y2="0" gradientUnits="userSpaceOnUse" gradientTransform="matrix(-1,0.000102232,0.000102232,1,1.17044,-5.98285e-05)"><stop offset="0" style="stop-color:rgb(100,143,162);stop-opacity:1"/><stop offset="1" style="stop-color:rgb(0,70,123);stop-opacity:1"/></linearGradient>        <linearGradient id="_Linear3" x1="0" y1="0" x2="1" y2="1.36883e-06" gradientUnits="userSpaceOnUse" gradientTransform="matrix(1,-5.49154e-05,-5.49154e-05,-1,5.31024e-08,0.00193397)"><stop offset="0" style="stop-color:rgb(100,143,162);stop-opacity:1"/><stop offset="1" style="stop-color:rgb(0,70,123);stop-opacity:1"/></linearGradient>        <radialGradient id="_Radial4" cx="0" cy="0" r="1" gradientUnits="userSpaceOnUse" gradientTransform="matrix(1,0,0,-1,0,0.000763489)"><stop offset="0" style="stop-color:rgb(103,158,97);stop-opacity:1"/><stop offset="1" style="stop-color:rgb(39,138,68);stop-opacity:1"/></radialGradient>        <linearGradient id="_Linear5" x1="0" y1="0" x2="1" y2="0" gradientUnits="userSpaceOnUse" gradientTransform="matrix(-1,2.391e-05,2.391e-05,1,0.877147,-1.04863e-05)"><stop offset="0" style="stop-color:rgb(103,158,97);stop-opacity:1"/><stop offset="1" style="stop-color:rgb(27,102,42);stop-opacity:1"/></linearGradient>        <linearGradient id="_Linear6" x1="0" y1="0" x2="1" y2="1.26437e-06" gradientUnits="userSpaceOnUse" gradientTransform="matrix(1,0,0,-1,0,0.00153637)"><stop offset="0" style="stop-color:rgb(103,158,97);stop-opacity:1"/><stop offset="1" style="stop-color:rgb(27,102,42);stop-opacity:1"/></linearGradient>    </defs></svg>