<?xml version="1.0" encoding="UTF-8" standalone="no"?><!DOCTYPE svg PUBLIC "-//W3C//DTD SVG 1.1//EN" "http://www.w3.org/Graphics/SVG/1.1/DTD/svg11.dtd"><svg width="100%" height="100%" viewBox="0 0 512 512" version="1.1" xmlns="http://www.w3.org/2000/svg" xmlns:xlink="http://www.w3.org/1999/xlink" xml:space="preserve" style="fill-rule:evenodd;clip-rule:evenodd;stroke-linejoin:round;stroke-miterlimit:2;"><title>Daisycon</title><desc></desc>    <g transform="matrix(2.54691,0,0,2.54691,56.4599,1.09383)">        <path d="M133.1,4.2c3.8,1.5 0.7,18.6 -7.1,38.1c-7.7,19.5 -17.1,34.1 -21,32.6c-3.8,-1.5 -0.7,-18.6 7.1,-38.1c7.8,-19.6 17.2,-34.1 21,-32.6" style="fill:rgb(156,209,55);fill-rule:nonzero;"/>        <path d="M85.1,0c4.2,-0.9 9,14.8 10.8,35c1.8,20.2 -0.2,37.4 -4.4,38.3c-4.2,0.9 -9,-14.8 -10.8,-35c-1.7,-20.2 0.2,-37.4 4.4,-38.3" style="fill:rgb(156,209,55);fill-rule:nonzero;"/>        <path d="M39.4,24.1c3.4,-3.1 15,7.1 25.8,22.6c10.8,15.6 16.8,30.7 13.4,33.8c-3.4,3.1 -15,-7.1 -25.8,-22.6c-10.8,-15.6 -16.8,-30.7 -13.4,-33.8" style="fill:rgb(156,209,55);fill-rule:nonzero;"/>        <path d="M8.1,68.5c1.7,-4.4 16.9,-2.6 33.9,4.2c17,6.7 29.3,15.7 27.5,20.1c-1.8,4.4 -16.9,2.5 -33.9,-4.2c-16.9,-6.7 -29.3,-15.7 -27.5,-20.1" style="fill:rgb(156,209,55);fill-rule:nonzero;"/>        <path d="M0,122.1c-0.4,-4.6 14.3,-11.5 32.9,-15.4c18.6,-3.9 33.9,-3.4 34.3,1.2c0.4,4.6 -14.3,11.5 -32.9,15.4c-18.5,3.9 -33.9,3.4 -34.3,-1.2" style="fill:rgb(156,209,55);fill-rule:nonzero;"/>        <path d="M17,170.8c-2.4,-3.5 7.9,-17.3 23.1,-30.9c15.2,-13.5 29.5,-21.6 31.9,-18.1c2.4,3.5 -7.9,17.3 -23.1,30.9c-15.2,13.5 -29.5,21.6 -31.9,18.1" style="fill:rgb(156,209,55);fill-rule:nonzero;"/>        <path d="M55.2,200.1c-3.8,-1.5 -0.7,-18.6 7.1,-38.1c7.7,-19.5 17.1,-34.1 21,-32.6c3.8,1.5 0.7,18.6 -7.1,38.1c-7.8,19.5 -17.2,34.1 -21,32.6" style="fill:rgb(156,209,55);fill-rule:nonzero;"/>        <path d="M133.8,111.4c-2.5,1.5 -5.6,2.5 -8.6,2.5c-7,0 -8.6,-4.3 -7.8,-9.1c1,-5.5 5,-10.1 12.3,-10.1c2.3,0 5.6,0.6 7,2l-2.9,14.7Zm22.9,-42l-15.2,0l-3.4,18.2c-2.8,-1.2 -6.3,-1.9 -10,-1.9c-14.6,0 -24.7,9.1 -26.7,20.3c-1.5,8.8 3.8,18.2 17.6,18.2c5.1,-0.2 9.8,-1.8 13.4,-3.9l-0.4,2.6l14.9,0l9.8,-53.5Z" style="fill-rule:nonzero;"/>    </g></svg>