<?xml version="1.0" encoding="UTF-8" standalone="no"?><!DOCTYPE svg PUBLIC "-//W3C//DTD SVG 1.1//EN" "http://www.w3.org/Graphics/SVG/1.1/DTD/svg11.dtd"><svg width="100%" height="100%" viewBox="0 0 512 512" version="1.1" xmlns="http://www.w3.org/2000/svg" xmlns:xlink="http://www.w3.org/1999/xlink" xml:space="preserve" style="fill-rule:evenodd;clip-rule:evenodd;stroke-linejoin:round;stroke-miterlimit:2;"><title>Revolut</title><desc></desc>    <g transform="matrix(1.29864,0,0,1.29864,-66.1687,-76.3549)">        <g transform="matrix(1.33555,0,0,1.33555,137.429,-42.2735)">            <path d="M171.144,246.545c0.032,0.593 29.452,60.903 32.945,74.876c1.498,5.99 2.995,20.216 -9.683,33.906c-19.227,9.7 -40.463,14.828 -62.031,14.977c-24.667,-0.285 -41.509,-9.915 -52.973,-23.145c-3.459,5.091 -8.251,9.15 -13.862,11.739c-21.124,9.753 -46.492,10.811 -56.419,10.811c-20.948,0 -33.219,-9.228 -39.82,-16.979c-16.373,-19.208 -12.185,-45.162 -10.743,-53.907l22.526,-144.242c2.407,-12.229 3.159,-24.721 2.234,-37.147c-1.234,-16.699 10.107,-31.753 26.594,-35.299c13.839,-3.012 90.598,-5.882 90.598,-5.882c62.677,0 104.177,34.976 107.608,86.322c2.559,38.296 -3.28,48.779 -16.758,65.251c0,0 -20.266,17.438 -20.216,18.719Z" style="fill:url(#_Linear1);"/>        </g>        <g transform="matrix(1.5362,0,0,1.5362,70.4217,-145.834)">            <path d="M92.506,287.043l-6.879,43.141c-0.824,4.821 -1.349,9.688 -1.57,14.575l0,1.321c-0.049,2.776 0.569,5.524 1.803,8.016c0.021,0.039 0.038,0.077 0.057,0.118c-11.74,5.415 -28.057,6.827 -37.509,6.827c-8.16,0 -15.746,-2.646 -16.13,-16.716c-0.046,-3.858 0.272,-7.71 0.948,-11.509l20.042,-128.322c1.762,-9.595 2.679,-19.323 2.74,-29.074c-0.064,9.697 -0.981,19.372 -2.74,28.91c1.76,-9.738 2.677,-19.607 2.74,-29.501c-0.019,-3.357 0.106,-4.751 -0.183,-11.432l0.28,0l0,1.177c6.708,-1.869 29.491,-4.21 50.273,-4.49c1.388,-0.023 2.502,-0.031 3.878,-0.031l19.472,0c13.81,-0.33 27.508,2.519 40.024,8.321c3.486,1.709 6.792,3.759 9.867,6.121c2.913,2.238 5.566,4.79 7.911,7.608c3.439,4.13 6.112,8.834 7.894,13.891c1.844,5.3 2.769,10.873 2.735,16.48c0,1.619 -0.061,3.225 -0.178,4.805l-0.002,0.059c-1.758,23.779 -16.536,43.368 -39.613,55.399l20.613,55.326c6.011,15.123 9.448,21.212 16.317,26.054c-1.625,0.855 -3.305,1.605 -5.029,2.241c-10.363,3.488 -21.248,5.205 -32.19,5.081c-10.596,0 -25.486,-2.46 -34.364,-29.264l-15.748,-45.132l-15.459,0Zm27.198,-96.869l-11.742,0c-1.042,4.722 -1.805,9.498 -2.286,14.308l-8.592,52.521l14.315,0c18.614,0 32.64,-15.738 32.64,-39.121c0,-17.111 -9.445,-27.707 -24.335,-27.708Z" style="fill:white;"/>        </g>    </g>    <defs>        <linearGradient id="_Linear1" x1="0" y1="0" x2="1" y2="0.934852" gradientUnits="userSpaceOnUse" gradientTransform="matrix(801.917,215.954,-633.185,278.915,-331.271,122.252)"><stop offset="0" style="stop-color:rgb(12,236,252);stop-opacity:1"/><stop offset="1" style="stop-color:rgb(13,111,205);stop-opacity:1"/></linearGradient>    </defs></svg>