<?xml version="1.0" encoding="UTF-8" standalone="no"?><!DOCTYPE svg PUBLIC "-//W3C//DTD SVG 1.1//EN" "http://www.w3.org/Graphics/SVG/1.1/DTD/svg11.dtd"><svg width="100%" height="100%" viewBox="0 0 512 512" version="1.1" xmlns="http://www.w3.org/2000/svg" xmlns:xlink="http://www.w3.org/1999/xlink" xml:space="preserve" style="fill-rule:evenodd;clip-rule:evenodd;stroke-linejoin:round;stroke-miterlimit:2;"><title>Reinvest24</title><desc>Real Estate always was and will be a valuable asset, that is why property investments are considered to be the most secure way of investment. Real Estate investments have high requirements for legal paperwork and steep entrance fees, but we are changing this. Reinvest24 helps you to multiply your investments and grow your portfolio.</desc>    <g id="_4724c715-869d-49c6-b8eb-3c67846bf5c8" transform="matrix(5.10714,0,0,5.10714,-70.9396,-70.857)">        <path id="_1dee437a-a9c1-487f-a32a-f743443cfd62" d="M28.43,21.19l-14,66.21c-0.229,1.088 -0.344,2.198 -0.344,3.31c0,8.83 7.264,16.097 16.094,16.1l69.42,0l14,-66.21c0.23,-1.092 0.346,-2.204 0.346,-3.32c0,-8.825 -7.261,-16.088 -16.086,-16.09l-69.43,0Z" style="fill:url(#_Linear1);fill-rule:nonzero;"/>        <g id="d64c693d-7eb6-411a-9008-228309951c4a">            <path id="c24a633e-4514-4550-b77f-3cbe29ebd7b2" d="M83.22,70l-13.07,-19.76c-0.644,-0.995 -1.752,-1.597 -2.938,-1.597c-1.644,0 -3.078,1.159 -3.422,2.767l-1.94,9l-41.76,0l-2.76,13.14l40.21,6.91l-1.48,6.93c-0.052,0.241 -0.078,0.487 -0.078,0.734c0,1.925 1.585,3.51 3.51,3.51c0.677,0 1.34,-0.196 1.908,-0.564l20.8,-16.26c1.582,-1.072 2.029,-3.239 1,-4.85" style="fill-opacity:0.3;fill-rule:nonzero;"/>            <path id="ac3b4d54-587e-4e2f-8d8e-110866012542" d="M61.28,81.46l20.8,-16.27c0.983,-0.647 1.577,-1.748 1.577,-2.925c0,-0.684 -0.201,-1.353 -0.577,-1.925l-13.08,-19.72c-0.644,-0.995 -1.752,-1.597 -2.938,-1.597c-1.644,0 -3.078,1.159 -3.422,2.767l-1.94,9l-40.7,0l-4.25,20l40.67,0l-1.48,6.93c-0.052,0.241 -0.078,0.487 -0.078,0.734c0,1.925 1.585,3.51 3.51,3.51c0.677,0 1.34,-0.196 1.908,-0.564" style="fill:white;fill-rule:nonzero;"/>        </g>    </g>    <defs>        <linearGradient id="_Linear1" x1="0" y1="0" x2="1" y2="0" gradientUnits="userSpaceOnUse" gradientTransform="matrix(-98.5815,1.20728e-14,-1.20728e-14,-98.5815,113.468,63.8692)"><stop offset="0" style="stop-color:rgb(42,163,255);stop-opacity:1"/><stop offset="1" style="stop-color:rgb(58,21,255);stop-opacity:1"/></linearGradient>    </defs></svg>