<?xml version="1.0" encoding="UTF-8" standalone="no"?><!DOCTYPE svg PUBLIC "-//W3C//DTD SVG 1.1//EN" "http://www.w3.org/Graphics/SVG/1.1/DTD/svg11.dtd"><svg width="100%" height="100%" viewBox="0 0 512 512" version="1.1" xmlns="http://www.w3.org/2000/svg" xmlns:xlink="http://www.w3.org/1999/xlink" xml:space="preserve" style="fill-rule:evenodd;clip-rule:evenodd;stroke-linejoin:round;stroke-miterlimit:2;"><title>Formax</title><desc>Formax Credit (UK) Limited is a P2P lending company offering finance up to 5 years to UK Small and Medium Sized Enterprises (SMEs) as well as Investment Products for 12, 36, and 60 months to UK investors. </desc>    <g id="layer104" transform="matrix(1.94104,0,0,1.94104,-82.689,-54.5097)">        <path d="M185.5,274.6c6.5,-3 111.1,-69.9 114.8,-73.4c6.8,-6.4 7.4,-13.8 1.6,-19.8c-1.8,-1.8 -11,-7.7 -20.5,-13.1c-9.4,-5.4 -17,-10.1 -16.8,-10.4c0.2,-0.3 8.2,-5.7 17.9,-11.8c10,-6.5 18.6,-12.7 20.1,-14.6c4.6,-6.1 4.1,-13.9 -1.2,-18.6c-1.1,-0.9 -12.5,-7.7 -25.4,-15.2c-12.9,-7.4 -38.9,-22.5 -57.8,-33.5c-35.9,-21 -38.2,-22 -47.6,-21c-2.3,0.3 -6.7,1.7 -9.7,3.2c-13.3,6.7 -110.8,64.2 -113.9,67.3c-3.3,3.1 -3.5,3.7 -3.5,9.8c0,5.7 0.3,6.7 2.9,9.4c1.6,1.7 7,5.6 12,8.8c5,3.1 12.9,8.1 17.5,11.1l8.3,5.3l-18.3,10.7c-21.2,12.4 -23.3,14.5 -22.7,22.7c0.2,2.8 1.2,6.2 2.2,7.7c1.5,2.4 108,71.2 117.4,75.9c5.6,2.7 16.3,2.5 22.7,-0.5Zm-18,-29.5c-11.3,-6.6 -80.1,-52.4 -80.9,-53.8c-1.1,-2 -0.1,-2.8 12.7,-10.2c6,-3.4 11.3,-5.9 12,-5.5c0.7,0.4 12.1,7.7 25.5,16.2c13.4,8.5 26,16.1 28,16.8c5.3,1.9 13.4,1.7 18.9,-0.4c2.7,-1.1 15.8,-8.9 29.2,-17.5c13.4,-8.7 24.9,-15.7 25.5,-15.7c1.6,0.1 23.9,13.4 24.3,14.5c0.1,0.6 -0.1,1.5 -0.5,2.1c-1.4,2.2 -84.1,55.4 -86.9,55.9c-2,0.4 -4.2,-0.3 -7.8,-2.4Zm-1.6,-68.4c-11.4,-7 -26.9,-17.2 -26.9,-17.9c0,-0.3 5.2,-3.7 11.5,-7.3c12.3,-7.2 14.5,-9.6 14.5,-16c0,-1.9 0.3,-3.5 0.8,-3.4c1.9,0.2 43.6,25.5 43.4,26.4c-0.1,0.6 -7.2,5.6 -15.9,11.3c-17.9,11.7 -19.1,11.9 -27.4,6.9Zm-66.2,-43.2c-6.9,-4.6 -12.9,-8.9 -13.3,-9.6c-0.4,-0.7 0.1,-1.9 1.2,-2.8c1.1,-0.9 18.3,-11 38.2,-22.6c38.9,-22.5 39.2,-22.8 39.2,-30.8l0,-3.5l47.8,28c26.2,15.3 48.3,28.5 49.1,29.3c0.7,0.7 1,1.8 0.6,2.5c-0.4,0.6 -6.5,4.9 -13.6,9.5l-12.9,8.4l-23.3,-13.6c-25.1,-14.8 -32.3,-18.2 -37.8,-18.3c-7.9,0 -10.2,1.1 -51.5,25.3l-11.2,6.5l-12.5,-8.3Z" style="fill:rgb(157,127,71);"/>        <path d="M183.1,208.5c3.7,-1.3 50.5,-30.4 55,-34.2c1.8,-1.5 24.9,-16.3 25.4,-16.3c1.9,0 37.1,-23.9 39.1,-26.6c4.6,-6 4.1,-13.8 -1.2,-18.5c-1.1,-0.9 -12.5,-7.7 -25.4,-15.2c-12.9,-7.4 -38.9,-22.5 -57.8,-33.5c-35.9,-21 -38.2,-22 -47.6,-21c-2.3,0.3 -6.7,1.7 -9.7,3.2c-13.3,6.7 -110.8,64.2 -113.9,67.3c-3.3,3.1 -3.5,3.7 -3.5,9.8c0,6.1 0.2,6.7 3.5,9.9c1.9,1.8 11.1,8.2 20.3,14l16.9,10.7l4.6,-2.7c2.6,-1.5 8.9,-5.2 14,-8.2l9.4,-5.4l-12.5,-8.4c-6.9,-4.5 -12.9,-8.8 -13.3,-9.5c-0.4,-0.7 0.1,-1.9 1.2,-2.8c1.1,-0.9 18.3,-11 38.2,-22.6c38.9,-22.5 39.2,-22.8 39.2,-30.8l0,-3.5l47.8,28c26.2,15.3 48.3,28.5 49.1,29.3c0.7,0.7 1.1,1.8 0.7,2.3c-0.7,1.2 -48,33 -50.9,34.2c-1.2,0.5 -9.4,5.7 -18.1,11.5c-16.3,10.7 -19.1,11.8 -23.9,9.4c-1.2,-0.6 -8.8,-5.4 -16.9,-10.6l-14.7,-9.5l-13.6,7.8c-7.4,4.3 -13.5,8.1 -13.5,8.4c0.1,1 50.3,32.3 53.9,33.6c4.9,1.8 12.9,1.7 18.2,-0.1Z" style="fill:rgb(51,100,173);"/>    </g></svg>