<?xml version="1.0" encoding="UTF-8" standalone="no"?><!DOCTYPE svg PUBLIC "-//W3C//DTD SVG 1.1//EN" "http://www.w3.org/Graphics/SVG/1.1/DTD/svg11.dtd"><svg width="100%" height="100%" viewBox="0 0 512 512" version="1.1" xmlns="http://www.w3.org/2000/svg" xmlns:xlink="http://www.w3.org/1999/xlink" xml:space="preserve" style="fill-rule:evenodd;clip-rule:evenodd;stroke-linejoin:round;stroke-miterlimit:2;"><title>Sourced Capital</title><desc>At Sourced, it is our mission to be the ultimate brand name for investment services and also packaging investment opportunities by developing and converting projects in partnership with investors across the world.</desc>    <g transform="matrix(4.41666,0,0,4.41666,102.832,1.0031)">        <path d="M35,47.24c-14.7,-2.79 -23.26,-6.24 -27.71,-11.19c-0.562,-0.62 -1.067,-1.29 -1.51,-2c4.56,-7.9 15.3,-13 27.41,-13c7.816,-0.03 15.55,1.599 22.69,4.78l0.83,0.35c1.064,0.4 2.191,0.605 3.328,0.605c5.189,0 9.46,-4.271 9.46,-9.46c0,-3.15 -1.573,-6.1 -4.188,-7.855l-0.07,0l-0.34,-0.22c-9.449,-6.091 -20.468,-9.305 -31.71,-9.25c-18.61,0 -33.19,10.93 -33.19,24.88l0,0.26c-0.067,3.075 0.565,6.125 1.85,8.92l0,0.06c-0.043,0.07 -0.079,0.144 -0.11,0.22c-0.322,0.722 -0.6,1.463 -0.83,2.22c-0.232,0.755 -0.419,1.523 -0.56,2.3c-0.226,1.18 -0.343,2.378 -0.35,3.58l0,0.25c0,13.65 9.64,20.8 34.39,25.5c14.73,2.81 23.29,6.24 27.75,11.19c0.559,0.623 1.064,1.292 1.51,2c-4.57,7.9 -15.31,13 -27.42,13c-7.806,0.033 -15.53,-1.593 -22.66,-4.77l-0.85,-0.36c-1.05,-0.387 -2.161,-0.583 -3.28,-0.58c-0.046,-0.001 -0.092,-0.001 -0.139,-0.001c-5.178,0 -9.44,4.261 -9.44,9.44c0,3.177 1.604,6.147 4.259,7.891l0.4,0.26c9.452,6.08 20.472,9.281 31.71,9.21c18.61,0 33.19,-10.93 33.19,-24.88l0,-0.26c0.067,-3.075 -0.565,-6.125 -1.85,-8.92l0,-0.06l0.11,-0.22c0.322,-0.722 0.6,-1.463 0.83,-2.22c0.24,-0.753 0.431,-1.522 0.57,-2.3c0.218,-1.191 0.332,-2.399 0.34,-3.61l0,-0.25c0,-13.65 -9.64,-20.75 -34.42,-25.5m-31.55,-22.37c0,-12 13.07,-21.43 29.74,-21.43c10.565,-0.051 20.921,2.961 29.81,8.67l0.34,0.21c1.623,1.119 2.595,2.969 2.595,4.94c0,3.267 -2.668,5.965 -5.935,6c-0.681,0.003 -1.358,-0.112 -2,-0.34l-0.74,-0.32c-7.576,-3.367 -15.78,-5.092 -24.07,-5.06c-12.27,0 -23.37,4.86 -29.1,12.7c-0.442,-1.667 -0.657,-3.386 -0.64,-5.11l0,-0.26Zm62.55,65.67c0,12 -13.06,21.43 -29.74,21.43c-10.578,0.061 -20.95,-2.951 -29.85,-8.67l-0.41,-0.21c-1.643,-1.116 -2.629,-2.977 -2.629,-4.963c0,-3.292 2.709,-6 6,-6c0.692,0 1.378,0.119 2.029,0.353l0.77,0.33c7.57,3.373 15.772,5.098 24.06,5.06c12.27,0 23.37,-4.86 29.1,-12.7c0.458,1.664 0.683,3.384 0.67,5.11l0,0.26Zm0,-17.55c0,1.006 -0.09,2.01 -0.27,3c-0.109,0.604 -0.253,1.202 -0.43,1.79c-0.18,-0.22 -0.37,-0.45 -0.57,-0.67c-5,-5.54 -14.14,-9.33 -29.67,-12.27c-23.06,-4.42 -31.61,-10.41 -31.61,-22.16l0,-0.25c0,-1.006 0.09,-2.01 0.27,-3c0.109,-0.604 0.253,-1.202 0.43,-1.79l0.57,0.67c5,5.54 14.14,9.33 29.67,12.27c23.02,4.41 31.61,10.41 31.61,22.15l0,0.26Z" style="fill:rgb(42,170,226);fill-rule:nonzero;"/>    </g></svg>