<?xml version="1.0" encoding="UTF-8" standalone="no"?><!DOCTYPE svg PUBLIC "-//W3C//DTD SVG 1.1//EN" "http://www.w3.org/Graphics/SVG/1.1/DTD/svg11.dtd"><svg width="100%" height="100%" viewBox="0 0 512 512" version="1.1" xmlns="http://www.w3.org/2000/svg" xmlns:xlink="http://www.w3.org/1999/xlink" xml:space="preserve" style="fill-rule:evenodd;clip-rule:evenodd;stroke-linejoin:round;stroke-miterlimit:2;"><title>Lendmarket</title><desc>Lendmarket is the first secondary market platform for corporate debt, which brings investors into contact with debt originators that offer holdings of Direct Lending funds or loans on Crowdlending platforms.Our goal is to give investors access to the corporate debt market, until now only accessible to institutional clients and Family Offices, offering a great diversification in high quality loans, with an excellent return-to-risk ratio.</desc>    <g transform="matrix(1.88192,0,0,1.88192,-28.3479,208.011)">        <path d="M151.095,-110c74.784,0 135.5,60.716 135.5,135.5c0,74.784 -60.716,135.5 -135.5,135.5c-74.785,0 -135.5,-60.716 -135.5,-135.5c0,-74.784 60.715,-135.5 135.5,-135.5Zm18,25c60.986,0 110.5,49.513 110.5,110.5c0,60.987 -49.514,110.5 -110.5,110.5c-60.987,0 -110.5,-49.513 -110.5,-110.5c0,-60.987 49.513,-110.5 110.5,-110.5Z" style="fill:rgb(150,0,1);"/>    </g></svg>