<?xml version="1.0" encoding="UTF-8" standalone="no"?><!DOCTYPE svg PUBLIC "-//W3C//DTD SVG 1.1//EN" "http://www.w3.org/Graphics/SVG/1.1/DTD/svg11.dtd"><svg width="100%" height="100%" viewBox="0 0 512 512" version="1.1" xmlns="http://www.w3.org/2000/svg" xmlns:xlink="http://www.w3.org/1999/xlink" xml:space="preserve" style="fill-rule:evenodd;clip-rule:evenodd;stroke-linejoin:round;stroke-miterlimit:2;"><title>LeihDeinerStadtGeld</title><desc></desc>    <g transform="matrix(1.06793,0,0,1.06793,-153.568,137.332)">        <path d="M372.865,126.021l10.542,0l0,14.058l-10.542,0l0,-14.058Zm0,-24.266l10.542,0l0,14.059l-10.542,0l0,-14.059Zm0,-26.472l10.542,0l0,14.059l-10.542,0l0,-14.059Zm0,-25.502l10.542,0l0,14.059l-10.542,0l0,-14.059Zm0,-25.498l10.542,0l0,14.059l-10.542,0l0,-14.059Zm15.818,101.738l10.543,0l0,14.058l-10.543,0l0,-14.058Zm0,-24.266l10.543,0l0,14.059l-10.543,0l0,-14.059Zm0,-26.472l10.543,0l0,14.059l-10.543,0l0,-14.059Zm0,-25.502l10.543,0l0,14.059l-10.543,0l0,-14.059Zm0,-25.498l10.543,0l0,14.059l-10.543,0l0,-14.059Zm-141.559,111.794l10.543,0l0,14.058l-10.543,0l0,-14.058Zm0,-25.498l10.543,0l0,14.058l-10.543,0l0,-14.058Zm0,-25.503l10.543,0l0,14.06l-10.543,0l0,-14.06Zm0,-25.498l10.543,0l0,14.059l-10.543,0l0,-14.059Zm15.817,76.499l10.543,0l0,14.058l-10.543,0l0,-14.058Zm0,-25.498l10.543,0l0,14.058l-10.543,0l0,-14.058Zm0,-25.503l10.543,0l0,14.06l-10.543,0l0,-14.06Zm0,-25.498l10.543,0l0,14.059l-10.543,0l0,-14.059Zm48.157,85.06l10.543,0l0,14.059l-10.543,0l0,-14.059Zm0,-24.266l10.543,0l0,14.058l-10.543,0l0,-14.058Zm15.817,24.266l10.542,0l0,14.059l-10.542,0l0,-14.059Zm0,-24.266l10.542,0l0,14.058l-10.542,0l0,-14.058Zm171.692,29.914l10.543,0l0,14.06l-10.543,0l0,-14.06Zm0,-25.502l10.543,0l0,14.059l-10.543,0l0,-14.059Zm0,-25.498l10.543,0l0,14.059l-10.543,0l0,-14.059Zm15.815,51l10.544,0l0,14.06l-10.544,0l0,-14.06Zm0,-25.502l10.544,0l0,14.059l-10.544,0l0,-14.059Zm0,-25.498l10.544,0l0,14.059l-10.544,0l0,-14.059Zm23.536,88.434l0,-110.23l-53.175,0l0,96.222c-2.633,-0.556 -5.283,-1.101 -7.967,-1.626l0,-54.627l0,-34.588l-8.74,-20.996l-8.168,20.996l-0.002,0l0,34.588l-36.266,0l0,47.054c-3.334,-0.293 -6.683,-0.558 -10.06,-0.782l0,-163.697l-53.177,0l0,163.292c-2.756,0.14 -5.498,0.304 -8.225,0.494l0,-63.785l-53.177,0l0,70.412c-4.084,0.727 -8.115,1.496 -12.087,2.3l0,-139.231l-0.099,0l-24.423,-25.747l-26.974,25.644l0.099,0.103l-0.099,0l0,152.239c-55.238,16.733 -90.682,36.451 -90.682,36.451c0,0 106.906,-26.923 238.781,-26.923c131.873,0 238.779,26.923 238.779,26.923c0,0 -32.75,-18.216 -84.338,-34.486Z" style="fill:rgb(38,54,66);"/>    </g></svg>