<?xml version="1.0" encoding="UTF-8" standalone="no"?><!DOCTYPE svg PUBLIC "-//W3C//DTD SVG 1.1//EN" "http://www.w3.org/Graphics/SVG/1.1/DTD/svg11.dtd"><svg width="100%" height="100%" viewBox="0 0 512 512" version="1.1" xmlns="http://www.w3.org/2000/svg" xmlns:xlink="http://www.w3.org/1999/xlink" xml:space="preserve" style="fill-rule:evenodd;clip-rule:evenodd;stroke-linejoin:round;stroke-miterlimit:2;"><title>Žltý Melón</title><desc>Žltý melón is the first Czech-Slovak portal connecting people who need to borrow money with those who want to invest. Loans on Žltý melón are more accessible and investing is more profitable than with traditional banks. By reducing expenses to the minimum, Žltý melón gives people the maximum in the form of lower loan interest rates and higher returns on their investments.</desc>    <g transform="matrix(1.07525,0,0,1.07525,-2.29192,-66.8075)">        <path d="M188.121,96.949l0,-33.887l74.636,53.592l-74.636,57.549l0,-45.9l-3.233,1.209c-69.703,26.065 -119.386,90.301 -119.386,169.05c0,81.992 53.859,151.504 128.091,175.053l-9.304,27.865c-85.897,-27.46 -148.155,-107.976 -148.155,-202.918c0,-91.339 57.622,-166.326 138.468,-196.558l13.519,-5.055Z" style="fill:rgb(244,201,6);"/>        <g transform="matrix(-1,-1.22465e-16,1.22465e-16,-1,480.405,600.433)">            <path d="M188.121,96.949l0,-33.887l74.636,53.592l-74.636,57.549l0,-45.9c-1.09,0.369 -2.183,0.738 -3.233,1.209c-8.411,3.772 -17.058,7.087 -25.142,11.517c-7.978,4.372 -15.657,9.338 -22.918,14.819c-36.527,27.576 -61.887,68.585 -69.055,113.91c-14.011,88.587 40.29,176.724 125.82,203.857l-9.304,27.865c-21.289,-6.806 -41.244,-16.897 -59.387,-29.939c-17.862,-12.84 -33.798,-28.546 -46.902,-46.214c-13.233,-17.843 -23.736,-37.793 -30.796,-58.867c-7.446,-22.223 -11.469,-44.462 -11.07,-67.898c2.668,-156.948 151.987,-201.613 151.987,-201.613Z" style="fill:rgb(244,201,6);"/>        </g>    </g></svg>