<?xml version="1.0" encoding="UTF-8" standalone="no"?><!DOCTYPE svg PUBLIC "-//W3C//DTD SVG 1.1//EN" "http://www.w3.org/Graphics/SVG/1.1/DTD/svg11.dtd"><svg width="100%" height="100%" viewBox="0 0 512 512" version="1.1" xmlns="http://www.w3.org/2000/svg" xmlns:xlink="http://www.w3.org/1999/xlink" xml:space="preserve" style="fill-rule:evenodd;clip-rule:evenodd;stroke-linejoin:round;stroke-miterlimit:2;"><title>ECrowd!</title><desc>Ecrowd! is a crowdlending platform, and a new, highly efficient and innovative way to finance projects with positive impact in society and the environment, and which also generates a dynamic source of profitable investment, for both individual and corporate investors.</desc>    <g transform="matrix(2.36684,0,0,1.93896,-277.738,-1846.17)">        <g transform="matrix(302.636,0,0,369.421,109.712,1211.25)">            <path d="M0.194,-0.586l0,0.17l0.194,0c0.001,0 0.002,0.001 0.003,0.002c0.001,0.001 0.002,0.002 0.002,0.003l0,0.105c0,0.002 -0.002,0.004 -0.004,0.004l-0.195,0l0,0.188l0.212,0c0.002,0 0.004,0.001 0.005,0.003c0.011,0.015 0.062,0.086 0.076,0.106c0,0.001 0.001,0.002 0,0.003c-0.001,0.001 -0.002,0.002 -0.003,0.002l-0.382,0c-0.008,0 -0.015,-0.003 -0.02,-0.008c-0.005,-0.005 -0.008,-0.012 -0.008,-0.02l0,-0.638c0,-0.019 0.015,-0.034 0.034,-0.034l0.379,0c0.001,0 0.002,0.001 0.002,0.002c0.001,0.001 0.001,0.002 0,0.003c-0.014,0.02 -0.069,0.097 -0.077,0.108c0,0.001 -0.001,0.001 -0.002,0.001l-0.216,0Z" style="fill:url(#_Linear1);fill-rule:nonzero;"/>        </g>        <g transform="matrix(248.377,0,0,303.188,261.282,1212.05)">            <path d="M0.097,-0.011c-0.015,-0.015 -0.023,-0.034 -0.023,-0.056c0,-0.022 0.008,-0.041 0.023,-0.056c0.015,-0.015 0.034,-0.023 0.056,-0.023c0.022,0 0.041,0.008 0.056,0.023c0.015,0.015 0.023,0.034 0.023,0.056c0,0.022 -0.008,0.041 -0.023,0.056c-0.015,0.015 -0.034,0.023 -0.056,0.023c-0.022,0 -0.041,-0.008 -0.056,-0.023Z" style="fill:rgb(253,198,43);"/>        </g>        <g transform="matrix(302.636,0,0,369.421,253.171,1211.25)">            <path d="M0.211,-0.7c0.001,0 0.002,0 0.003,0.001c0.001,0.001 0.001,0.002 0.001,0.003c0,0.046 -0.005,0.485 -0.005,0.526c0,0.001 -0.001,0.002 -0.003,0.002l-0.108,0c-0.001,0 -0.003,-0.001 -0.003,-0.003c0,-0.043 -0.005,-0.481 -0.005,-0.525c0,-0.001 0,-0.002 0.001,-0.003c0.001,-0.001 0.002,-0.001 0.003,-0.001l0.116,0Z" style="fill:url(#_Linear2);"/>        </g>    </g>    <defs>        <linearGradient id="_Linear1" x1="0" y1="0" x2="1" y2="0" gradientUnits="userSpaceOnUse" gradientTransform="matrix(2.92116,0,0,2.92116,0.110676,-0.348448)"><stop offset="0" style="stop-color:rgb(35,194,236);stop-opacity:1"/><stop offset="1" style="stop-color:rgb(98,196,195);stop-opacity:1"/></linearGradient>        <linearGradient id="_Linear2" x1="0" y1="0" x2="1" y2="0" gradientUnits="userSpaceOnUse" gradientTransform="matrix(2.92116,0,0,2.92116,-2.74414,-0.348448)"><stop offset="0" style="stop-color:rgb(35,194,236);stop-opacity:1"/><stop offset="1" style="stop-color:rgb(98,196,195);stop-opacity:1"/></linearGradient>    </defs></svg>