<?xml version="1.0" encoding="UTF-8" standalone="no"?><!DOCTYPE svg PUBLIC "-//W3C//DTD SVG 1.1//EN" "http://www.w3.org/Graphics/SVG/1.1/DTD/svg11.dtd"><svg width="100%" height="100%" viewBox="0 0 512 512" version="1.1" xmlns="http://www.w3.org/2000/svg" xmlns:xlink="http://www.w3.org/1999/xlink" xml:space="preserve" style="fill-rule:evenodd;clip-rule:evenodd;stroke-linejoin:round;stroke-miterlimit:2;"><title>GrowthFunders</title><desc>Property. Clean Energy. Growth SMEs.We focus on originating impact driven investments across property, clean energy and growth SMEs that have the potential to deliver superior investment profit precisely because there’s real purpose underpinning the opportunity.We proactively engage with management teams on social and environmental issues, not just to mitigate risks but to identify opportunities that can create additional value and drive investment growth.</desc>    <g transform="matrix(26.6729,0,0,26.6729,-6598.37,-5381.29)">        <g transform="matrix(0.234117,0,0,0.234117,262.417,217.987)">            <path d="M0,-56.52c-6.968,-6.395 -16.306,-10.231 -26.508,-10.053c-21.108,0.369 -37.92,17.778 -37.551,38.885c0.368,21.107 17.778,37.919 38.885,37.551c9.569,-0.167 18.244,-3.76 24.846,-9.592l-0.232,-13.303l-9.323,0.163c-3.932,3.993 -9.437,6.479 -15.573,6.586c-12.19,0.213 -22.245,-9.497 -22.457,-21.687c-0.213,-12.19 9.496,-22.244 21.686,-22.457c5.396,-0.094 10.373,1.756 14.264,4.904l11.963,-10.997Z" style="fill:url(#_Linear1);fill-rule:nonzero;"/>        </g>        <g transform="matrix(1,0,0,1,258.265,219.05)">            <path d="M0,-8.274l0,3.352l4.922,0l0,4.922l3.352,0l0,-8.274l-8.274,0Z" style="fill:rgb(27,168,192);fill-rule:nonzero;"/>        </g>    </g>    <defs>        <linearGradient id="_Linear1" x1="0" y1="0" x2="1" y2="0" gradientUnits="userSpaceOnUse" gradientTransform="matrix(50.2966,-21.01,21.01,50.2966,-63.4283,-14.5075)"><stop offset="0" style="stop-color:rgb(0,171,196);stop-opacity:1"/><stop offset="0.48" style="stop-color:rgb(0,171,196);stop-opacity:1"/><stop offset="0.63" style="stop-color:rgb(0,171,196);stop-opacity:1"/><stop offset="0.76" style="stop-color:rgb(0,171,196);stop-opacity:1"/><stop offset="1" style="stop-color:rgb(0,171,196);stop-opacity:0"/></linearGradient>    </defs></svg>