<?xml version="1.0" encoding="UTF-8" standalone="no"?><!DOCTYPE svg PUBLIC "-//W3C//DTD SVG 1.1//EN" "http://www.w3.org/Graphics/SVG/1.1/DTD/svg11.dtd"><svg width="100%" height="100%" viewBox="0 0 512 512" version="1.1" xmlns="http://www.w3.org/2000/svg" xmlns:xlink="http://www.w3.org/1999/xlink" xml:space="preserve" style="fill-rule:evenodd;clip-rule:evenodd;stroke-linejoin:round;stroke-miterlimit:2;"><title>Peermatch</title><desc>Peermatch B.V. is a financial technology company ('fintech') based in Amsterdam. Peermatch is a European undertaking privately funded and bank-independent. Peermatch is a peer-to-peer platform for mortgage lending. The Peermatch system facilitates 'match-funding'; using algorithms loan projects and investor profiles are brought together precisely as demanded. That is the revolutiory reformation of the traditional mortgage lending depending on banks and/or securitization structures. </desc>    <g transform="matrix(2.13176,0,0,2.13176,-11.3361,-39.4056)">        <path d="M217.621,138.832c-0.77,11.31 -9.2,19.94 -20.52,20.52c-18,0.93 -125.631,1 -143.521,0c-11.066,-0.488 -20.036,-9.454 -20.53,-20.52c-1,-14.78 0,-86.72 0,-86.72c0,-11.33 9.21,-20 20.53,-20.52c17.94,-0.88 125.611,-0.88 143.521,0c11.08,0.452 20.068,9.44 20.52,20.52c0.92,14.75 1,71.88 0,86.72m11.92,-90.3c-0.82,-15.91 -12.94,-28.19 -28.86,-28.85c-22.42,-0.94 -128.161,-1 -150.681,0c-15.628,0.515 -28.34,13.222 -28.86,28.85c-0.94,19.31 -0.78,74.62 0,93.88c0.64,15.92 12.94,28.09 29,28.86l1.36,0.12l0,76.251c0,7.09 5.74,10.55 12.83,10.55l14.67,0c7.08,0 12.82,-3.46 12.82,-10.55l0,-75.641c38.871,0.23 93.691,0 108.911,-0.69c15.624,-0.534 28.325,-13.236 28.86,-28.86c0.94,-19.28 1,-74.66 0,-93.88" style="fill:rgb(153,0,0);fill-rule:nonzero;"/>    </g></svg>