<?xml version="1.0" encoding="UTF-8" standalone="no"?><!DOCTYPE svg PUBLIC "-//W3C//DTD SVG 1.1//EN" "http://www.w3.org/Graphics/SVG/1.1/DTD/svg11.dtd"><svg width="100%" height="100%" viewBox="0 0 512 512" version="1.1" xmlns="http://www.w3.org/2000/svg" xmlns:xlink="http://www.w3.org/1999/xlink" xml:space="preserve" style="fill-rule:evenodd;clip-rule:evenodd;stroke-linejoin:round;stroke-miterlimit:2;"><title>Borza Terjatev</title><desc>The Invoice Exchange is the first peer-to-peer finance platform for businesses in Slovenia. We connect corporate investors that have surplus liquidity with SMEs who are looking for working capital finance.</desc>    <g transform="matrix(20.3293,0,0,20.3293,-16562.1,-4185.11)">        <g transform="matrix(1,0,0,1,821.011,229.778)">            <path d="M12.544,1.224l-12.538,0c0.193,-0.022 4.856,-0.575 8.377,-3.205c3.122,-2.333 4.095,-4.898 4.161,-5.082l0,8.287Z" style="fill:rgb(26,54,71);"/>        </g>        <g transform="matrix(1,0,0,1,833.559,231.002)">            <path d="M-12.548,-11.265c1.07,-0.789 2.254,-1.224 3.313,-1.224c0.609,0 1.079,0.138 1.963,0.553c1.743,0.802 2.462,1.023 3.595,1.023c1.282,0 2.441,-0.342 3.673,-1.069l0,3.694c-0.066,0.184 -1.039,2.749 -4.161,5.082c-3.521,2.63 -8.184,3.183 -8.377,3.205l-0.006,0l0,-11.264Z" style="fill:url(#_Linear1);"/>        </g>        <g transform="matrix(1,0,0,1,833.555,207.22)">            <path d="M-0.291,-1.305c-1.095,0.16 -5.024,0.876 -8.088,3.165c-3.214,2.402 -4.15,5.049 -4.165,5.092l0,-8.257l12.253,0Z" style="fill:rgb(87,109,122);"/>        </g>        <g transform="matrix(1,0,0,1,833.555,207.22)">            <path d="M-0.291,-1.305l0.291,0l0,11.294c-1.337,0.949 -2.273,1.305 -3.535,1.305c-0.635,0 -1.133,-0.139 -1.963,-0.498l-1.382,-0.608c-0.858,-0.387 -1.66,-0.581 -2.268,-0.581c-1.021,0 -2.228,0.431 -3.396,1.176l0,-3.831c0.015,-0.043 0.951,-2.69 4.165,-5.092c3.064,-2.289 6.993,-3.005 8.088,-3.165Z" style="fill:url(#_Linear2);"/>        </g>    </g>    <defs>        <linearGradient id="_Linear1" x1="0" y1="0" x2="1" y2="0" gradientUnits="userSpaceOnUse" gradientTransform="matrix(-12.5378,-11.2312,11.2312,-12.5378,-0.004,-0.0381)"><stop offset="0" style="stop-color:rgb(114,144,163);stop-opacity:1"/><stop offset="0.49" style="stop-color:rgb(109,136,153);stop-opacity:1"/><stop offset="1" style="stop-color:rgb(93,112,124);stop-opacity:1"/></linearGradient>        <linearGradient id="_Linear2" x1="0" y1="0" x2="1" y2="0" gradientUnits="userSpaceOnUse" gradientTransform="matrix(-12.544,-11.294,11.294,-12.544,0,9.989)"><stop offset="0" style="stop-color:rgb(126,143,153);stop-opacity:1"/><stop offset="1" style="stop-color:rgb(147,161,170);stop-opacity:1"/></linearGradient>    </defs></svg>