<?xml version="1.0" encoding="UTF-8" standalone="no"?><!DOCTYPE svg PUBLIC "-//W3C//DTD SVG 1.1//EN" "http://www.w3.org/Graphics/SVG/1.1/DTD/svg11.dtd"><svg width="100%" height="100%" viewBox="0 0 512 512" version="1.1" xmlns="http://www.w3.org/2000/svg" xmlns:xlink="http://www.w3.org/1999/xlink" xml:space="preserve" style="fill-rule:evenodd;clip-rule:evenodd;stroke-linejoin:round;stroke-miterlimit:2;"><title>Younited Credit</title><desc>Younited Credit is the only personal loan platform in Europe with its own credit institution approval, its innovative refinancing model allows professional investors (individuals, but also legal persons: companies, insurers, foundations, pension funds, etc.) directly finance consumer credit for French, Italian and Spanish households.</desc>    <g transform="matrix(24.4914,0,0,24.4914,42.2881,-159.027)">        <g transform="matrix(1,0,0,1,13.11,21.3055)">            <circle cx="2.171" cy="2.171" r="2.171" style="fill:rgb(235,91,38);"/>        </g>        <g transform="matrix(1,0,0,1,-2.064,-4.216)">            <path d="M6.825,31.572c-0.686,0.01 -1.369,-0.077 -2.031,-0.256c-0.602,-0.171 -1.184,-0.406 -1.736,-0.7l1.235,-2.716c0.331,0.176 0.678,0.322 1.035,0.435c0.356,0.111 0.727,0.167 1.1,0.166c0.465,0.019 0.923,-0.119 1.3,-0.391c0.435,-0.396 0.766,-0.892 0.965,-1.445l-6.629,-15.914l3.891,0l4.518,11.813l4.127,-11.814l3.8,0l-6.336,16.363c-0.272,0.72 -0.604,1.416 -0.994,2.08c-0.304,0.517 -0.69,0.981 -1.145,1.372c-0.408,0.343 -0.879,0.604 -1.386,0.768c-0.556,0.168 -1.134,0.249 -1.714,0.24l0,-0.001Z" style="fill:rgb(81,93,113);fill-rule:nonzero;"/>        </g>    </g></svg>