<?xml version="1.0" encoding="UTF-8" standalone="no"?><!DOCTYPE svg PUBLIC "-//W3C//DTD SVG 1.1//EN" "http://www.w3.org/Graphics/SVG/1.1/DTD/svg11.dtd"><svg width="100%" height="100%" viewBox="0 0 512 512" version="1.1" xmlns="http://www.w3.org/2000/svg" xmlns:xlink="http://www.w3.org/1999/xlink" xml:space="preserve" style="fill-rule:evenodd;clip-rule:evenodd;stroke-linejoin:round;stroke-miterlimit:2;"><title>Inversa</title><desc>Online platform of alternative financing that connects companies that need liquidity with a community of investors through the advance of bills or discount of promissory notes.</desc>    <g transform="matrix(1.76951,0,0,1.7703,-54.5139,-86.6301)">        <g transform="matrix(2.25243,0,0,2.25243,-61.8701,-61.9954)">            <path d="M149,152.7c-6.6,0 -12.3,5.3 -12.3,12.3c0,7.1 5.6,12.4 12.3,12.4c6.7,0 12.3,-5.3 12.3,-12.4c0,-7 -5.6,-12.3 -12.3,-12.3Z" style="fill:rgb(226,0,122);fill-rule:nonzero;"/>        </g>        <g transform="matrix(2.25243,0,0,2.25243,-61.8701,-61.9954)">            <path d="M61.7,74.2c6.6,0 12.3,-5.3 12.3,-12.4c0,-7 -5.6,-12.3 -12.3,-12.3c-6.6,0 -12.3,5.3 -12.3,12.3c0,7.1 5.7,12.4 12.3,12.4Zm76.4,38.7l-0.1,31c0,1.2 0.8,2 1.9,2l15.2,0.1l3.8,0c1.2,0 2.1,-0.8 2.1,-2l0.1,-29.7l0,-2c0,-16.6 -11.1,-32.2 -30.2,-32.2l-1.8,0c-11.2,0 -18.4,5.7 -23.8,13c-10.4,13.2 -14.2,31.8 -24.2,32.7c-5.5,-0.6 -8.5,-6.4 -8.5,-12.9l0,-14.6l0.1,-14.9c0,-1.2 -0.8,-2 -1.9,-2l-15.2,-0.1l-0.1,0l-3.7,0c-1.2,0 -2.1,0.8 -2.1,2l-0.1,15l-0.1,14c0,17.2 10.6,35.5 31.7,35.5l1.7,0c10.3,0 17.3,-4.2 22.4,-10.1c12.2,-13 14.8,-34.2 25.4,-35.5c4,0.3 7.4,3.9 7.4,10.7Z" style="fill:url(#_Linear1);fill-rule:nonzero;"/>        </g>    </g>    <defs>        <linearGradient id="_Linear1" x1="0" y1="0" x2="1" y2="0" gradientUnits="userSpaceOnUse" gradientTransform="matrix(411.195,0,0,411.195,49.4418,98.5444)"><stop offset="0" style="stop-color:rgb(0,163,180);stop-opacity:1"/><stop offset="0.15" style="stop-color:rgb(1,158,178);stop-opacity:1"/><stop offset="0.35" style="stop-color:rgb(4,142,171);stop-opacity:1"/><stop offset="0.56" style="stop-color:rgb(9,117,161);stop-opacity:1"/><stop offset="0.78" style="stop-color:rgb(15,82,147);stop-opacity:1"/><stop offset="1" style="stop-color:rgb(23,41,131);stop-opacity:1"/><stop offset="1" style="stop-color:rgb(28,40,131);stop-opacity:1"/><stop offset="1" style="stop-color:rgb(69,31,129);stop-opacity:1"/><stop offset="1" style="stop-color:rgb(107,24,127);stop-opacity:1"/><stop offset="1" style="stop-color:rgb(140,17,126);stop-opacity:1"/><stop offset="1" style="stop-color:rgb(167,12,125);stop-opacity:1"/><stop offset="1" style="stop-color:rgb(189,8,124);stop-opacity:1"/><stop offset="1" style="stop-color:rgb(206,4,123);stop-opacity:1"/><stop offset="1" style="stop-color:rgb(218,2,122);stop-opacity:1"/><stop offset="1" style="stop-color:rgb(224,0,122);stop-opacity:1"/><stop offset="1" style="stop-color:rgb(226,0,122);stop-opacity:1"/></linearGradient>    </defs></svg>