<?xml version="1.0" encoding="UTF-8" standalone="no"?><!DOCTYPE svg PUBLIC "-//W3C//DTD SVG 1.1//EN" "http://www.w3.org/Graphics/SVG/1.1/DTD/svg11.dtd"><svg width="100%" height="100%" viewBox="0 0 512 512" version="1.1" xmlns="http://www.w3.org/2000/svg" xmlns:xlink="http://www.w3.org/1999/xlink" xml:space="preserve" style="fill-rule:evenodd;clip-rule:evenodd;stroke-linejoin:round;stroke-miterlimit:2;"><title>Lendahand</title><desc>Lendahand is a for-profit company that is on a mission to eradicate poverty all over the world using crowdfunding. We give investors in Europe the chance to invest in people and businesses in emerging markets that don’t have access to the capital they desperately need.</desc>    <g id="g30" transform="matrix(0.589317,0,0,0.589317,-751.242,-225.394)">        <g transform="matrix(4.3852,0,0,10.1372,-1496.41,254.253)">            <path d="M820,20.53c0,-1.948 -3.657,-3.53 -8.161,-3.53l-161.678,0c-4.504,0 -8.161,1.582 -8.161,3.53l0,69.94c0,1.948 3.657,3.53 8.161,3.53l161.678,0c4.504,0 8.161,-1.582 8.161,-3.53l0,-69.94Z" style="fill:rgb(10,55,52);"/>        </g>        <g id="path4" transform="matrix(1.88628,0,0,1.88628,-1336.04,-201.636)">            <path d="M1648.2,567.7l-13.2,-7.7c-2.3,-1.3 -3.1,-4.3 -1.7,-6.6l53.7,-92.5c1.3,-2.3 4.3,-3.1 6.6,-1.7l13.2,7.7c2.3,1.3 3.1,4.3 1.7,6.6l-53.7,92.5c-1.4,2.3 -4.3,3 -6.6,1.7" style="fill:white;fill-rule:nonzero;"/>        </g>        <g id="path6" transform="matrix(1.88628,0,0,1.88628,-1336.04,-201.636)">            <path d="M1605.8,665.2c-12.3,0 -24.5,-3.3 -35.5,-9.6c-19.3,-11.2 -31.9,-30.5 -34.7,-52.4c-0.4,-3.2 2,-6.1 5.2,-6.2l13.9,-0.6c2.8,-0.1 5.2,1.9 5.6,4.7c2,13.8 10.1,25.9 22.3,33c10.7,6.2 23.1,7.9 34.9,4.7c11.8,-3.2 21.8,-10.8 28,-21.4l55.9,-96.6c1.3,-2.3 4.3,-3.1 6.6,-1.8l13.2,7.6c2.3,1.3 3.1,4.3 1.7,6.6l-55.9,96.6c-9.5,16.4 -24.8,28.1 -43.1,33c-5.9,1.6 -12,2.4 -18.1,2.4" style="fill:rgb(0,145,155);fill-rule:nonzero;"/>        </g>        <g id="path8" transform="matrix(1.88628,0,0,1.88628,-1336.04,-201.636)">            <path d="M1599.7,566.7l-13.2,-7.6c-2.3,-1.3 -3.1,-4.3 -1.8,-6.6l74.5,-129c1.3,-2.3 4.3,-3.1 6.6,-1.8l13.2,7.6c2.3,1.3 3.1,4.3 1.8,6.6l-74.5,129c-1.4,2.3 -4.3,3.1 -6.6,1.8" style="fill:white;fill-rule:nonzero;"/>        </g>        <g id="path10" transform="matrix(1.88628,0,0,1.88628,-1336.04,-201.636)">            <path d="M1530.9,565.9l-25,-42c-1.4,-2.3 -0.6,-5.2 1.7,-6.6l13.1,-7.8c2.3,-1.4 5.2,-0.6 6.6,1.7l16.2,27.1l70.4,-121.2c1.3,-2.3 4.3,-3.1 6.6,-1.7l13.2,7.7c2.3,1.3 3.1,4.3 1.7,6.6l-79,136.1c-1.2,2.1 -3.4,3.3 -5.8,3.3l-13.7,0.1c-2.6,0 -4.8,-1.2 -6,-3.3" style="fill:rgb(255,95,90);fill-rule:nonzero;"/>        </g>    </g></svg>