<?xml version="1.0" encoding="UTF-8" standalone="no"?><!DOCTYPE svg PUBLIC "-//W3C//DTD SVG 1.1//EN" "http://www.w3.org/Graphics/SVG/1.1/DTD/svg11.dtd"><svg width="100%" height="100%" viewBox="0 0 512 512" version="1.1" xmlns="http://www.w3.org/2000/svg" xmlns:xlink="http://www.w3.org/1999/xlink" xml:space="preserve" style="fill-rule:evenodd;clip-rule:evenodd;stroke-linejoin:round;stroke-miterlimit:2;"><title>InvoiceFair</title><desc>Leverage your high-quality Receivables as a tradeable asset. Funding is secured on the back of this asset.Receivables are your Purchase Orders, Approved Invoices and Future Recurring Revenue.This source of finance is designed to enable you toWin larger orders, expand into global markets and achieve transformational growth.</desc>    <g transform="matrix(14.7602,0,0,14.7602,-1776.18,-6663.92)">        <g transform="matrix(0.207577,0,0,0.207577,120.402,422.314)">            <path d="M125.27,223.941c-1.638,-1.01 -2.993,-2.259 -3.807,-3.616l-50.896,-73.382c-2.036,-3.4 -0.678,-6.106 3.392,-6.106l26.467,0c4.75,0 10.178,2.706 12.214,6.106l50.896,73.382c0.814,1.357 1.086,2.606 0.859,3.616c0.227,1.141 -0.045,2.499 -0.859,3.857l-50.896,72.703c-2.036,4.075 -7.464,6.792 -12.214,6.792l-26.467,0c-4.07,0 -5.428,-2.717 -3.392,-6.792l50.896,-72.703c0.814,-1.358 2.169,-2.716 3.807,-3.857Z" style="fill:rgb(255,197,0);fill-rule:nonzero;"/>        </g>        <g transform="matrix(0.207577,0,0,0.207577,120.402,422.314)">            <path d="M57.897,223.941c-1.692,-1.01 -3.211,-2.259 -4.297,-3.616l-50.217,-73.382c-2.714,-3.4 -1.357,-6.106 3.394,-6.106l26.467,0c4.07,0 9.5,2.706 12.214,6.106l50.218,73.382c1.085,1.357 1.411,2.606 1.151,3.616c0.26,1.141 -0.066,2.499 -1.151,3.857l-50.218,72.703c-2.714,4.075 -8.144,6.792 -12.214,6.792l-26.467,0c-4.751,0 -6.108,-2.717 -3.394,-6.792l50.217,-72.703c1.086,-1.358 2.605,-2.716 4.297,-3.857Z" style="fill:rgb(255,197,0);fill-rule:nonzero;"/>        </g>    </g></svg>