<?xml version="1.0" encoding="UTF-8" standalone="no"?><!DOCTYPE svg PUBLIC "-//W3C//DTD SVG 1.1//EN" "http://www.w3.org/Graphics/SVG/1.1/DTD/svg11.dtd"><svg width="100%" height="100%" viewBox="0 0 512 512" version="1.1" xmlns="http://www.w3.org/2000/svg" xmlns:xlink="http://www.w3.org/1999/xlink" xml:space="preserve" style="fill-rule:evenodd;clip-rule:evenodd;stroke-linejoin:round;stroke-miterlimit:2;"><title>Acredius</title><desc>Acredius is a Swiss independent crowdlending platform. Private and institutional investors can diversify their portfolios starting from a CHF 200 investment. SMEs and startups get access to fair loans using their traditional and non-traditional data.</desc>    <g transform="matrix(0.998471,0,0,1,11,1)">        <g transform="matrix(5.66667,0,0,5.66667,0,0)">            <path d="M34.641,80l17.32,10l0,-20l-17.32,10Z" style="fill:rgb(48,56,78);fill-rule:nonzero;"/>        </g>        <g transform="matrix(5.66667,0,0,5.66667,0,0)">            <path d="M17.321,90l17.32,-10l-17.32,-10l0,20Z" style="fill:rgb(59,67,88);fill-rule:nonzero;"/>        </g>        <g transform="matrix(5.66667,0,0,5.66667,0,0)">            <path d="M34.641,0l-34.641,20l0,60l17.321,10l0,-20l17.32,10l17.32,-10l0,20l17.321,-10l0,-20l17.321,-10l0,-20l-51.962,-30Z" style="fill:rgb(254,236,181);fill-rule:nonzero;"/>        </g>        <g transform="matrix(5.66667,0,0,5.66667,0,0)">            <path d="M34.641,20l-17.32,10l0,20l17.32,10l17.32,-10l0,-20l-17.32,-10Z" style="fill:rgb(94,100,117);fill-rule:nonzero;"/>            <path d="M34.641,40l17.32,10l-17.32,10l-17.32,-10l17.32,-10Z" style="fill:rgb(186,189,196);fill-rule:nonzero;"/>            <path d="M34.641,40l0,-20l17.32,10l0,20l-17.32,-10Z" style="fill:rgb(71,78,97);fill-rule:nonzero;"/>        </g>        <g transform="matrix(5.66667,0,0,5.66667,0,0)">            <path d="M34.641,60l-17.32,-10l0,-20l-17.321,-10l0,60l17.321,10l0,-20l17.32,10l0,-20Z" style="fill:rgb(253,205,57);fill-rule:nonzero;"/>        </g>        <g transform="matrix(5.66667,0,0,5.66667,0,0)">            <path d="M51.961,50l-17.32,10l0,20l17.32,-10l0,20l17.321,-10l0,-20l17.321,-10l0,-20l-17.321,10l0,-20l-17.321,10l0,20Z" style="fill:rgb(253,223,131);fill-rule:nonzero;"/>        </g>        <g transform="matrix(5.66667,0,0,5.66667,0,0)">            <path d="M69.282,20l0,20l17.321,-10l-17.321,-10Z" style="fill:rgb(254,236,181);fill-rule:nonzero;"/>        </g>        <g transform="matrix(5.66667,0,0,5.66667,0,0)">            <path d="M34.641,20l17.32,10l17.321,-10l-34.641,-20l-34.641,20l17.321,10l17.32,-10Z" style="fill:rgb(254,236,181);fill-rule:nonzero;"/>        </g>    </g></svg>