<?xml version="1.0" encoding="UTF-8" standalone="no"?><!DOCTYPE svg PUBLIC "-//W3C//DTD SVG 1.1//EN" "http://www.w3.org/Graphics/SVG/1.1/DTD/svg11.dtd"><svg width="100%" height="100%" viewBox="0 0 512 512" version="1.1" xmlns="http://www.w3.org/2000/svg" xmlns:xlink="http://www.w3.org/1999/xlink" xml:space="preserve" style="fill-rule:evenodd;clip-rule:evenodd;stroke-linejoin:round;stroke-miterlimit:2;"><title>SFS</title><desc>Swiss Finance Startups (SFS) is a non-profit organisation run and organized by the ventures in- volved. The association wants to foster the common Swiss startup spirit, support the exchange of ideas as well as industry know-how, and help to educate the outside, non-startup world about the brilliant ventures. Startups, as well as supporters are admitted to the association.</desc>    <g transform="matrix(5.0495,0,0,5.0495,-907.911,-1529)">        <g transform="matrix(0.198039,0,0,0.198039,179.802,302.802)">            <rect x="79.267" y="0" width="353.465" height="511" style="fill:white;"/>        </g>        <g transform="matrix(1.01449,0,0,1.01,-4.35507,-4.04)">            <path d="M266,370.202l0,33.798l-56.692,0c5.064,-1.328 10.839,-3.576 17.28,-6.87c2.555,-1.292 5.22,-2.756 7.981,-4.407c1.891,-1.101 3.825,-2.297 5.802,-3.574c10.726,-6.926 19.218,-13.077 25.629,-18.947Z" style="fill:rgb(239,35,34);"/>        </g>        <g transform="matrix(1.01449,0,0,1.01,-4.35507,-4.04)">            <path d="M236.908,346.308c-15.828,9.355 -30.333,20.581 -39.908,30.186l0,-72.494l69,0l0,28.27c-9.652,3.508 -19.596,8.432 -29.092,14.038Z" style="fill:rgb(239,35,34);"/>        </g>        <path d="M204.5,319.5l8.5,0l0,-8.5l8,0l0,8.5l8.5,0l0,8l-8.5,0l0,8.5l-8,0l0,-8.5l-8.5,0l0,-8Z" style="fill:white;"/>    </g></svg>