<?xml version="1.0" encoding="UTF-8" standalone="no"?><!DOCTYPE svg PUBLIC "-//W3C//DTD SVG 1.1//EN" "http://www.w3.org/Graphics/SVG/1.1/DTD/svg11.dtd"><svg width="100%" height="100%" viewBox="0 0 512 512" version="1.1" xmlns="http://www.w3.org/2000/svg" xmlns:xlink="http://www.w3.org/1999/xlink" xml:space="preserve" style="fill-rule:evenodd;clip-rule:evenodd;stroke-linejoin:round;stroke-miterlimit:2;"><title>Capital Cell ES</title><desc>We are Capital Cell, the first online investment platform in Europe specialized in Health and Biotechnology, one of the most profitable sectors in the world.</desc>    <g transform="matrix(27.9641,0,0,27.9641,-11619.8,-38400.4)">        <g transform="matrix(2.66667,0,0,2.66667,-0.24,764.288)">            <path d="M158.83,235.1c-0.785,-0.015 -1.458,-0.225 -2.052,-0.667c-0.245,-0.182 -0.455,-0.397 -0.612,-0.661c-0.117,-0.194 -0.186,-0.407 -0.217,-0.629c-0.018,-0.117 -0.027,-0.236 -0.022,-0.355c0.01,-0.268 0.042,-0.532 0.117,-0.792c0.176,-0.605 0.424,-1.181 0.699,-1.746c0.141,-0.292 0.291,-0.581 0.445,-0.867c0.111,-0.21 0.241,-0.406 0.408,-0.578c0.148,-0.153 0.32,-0.267 0.528,-0.319c0.148,-0.038 0.298,-0.042 0.448,-0.028c0.269,0.027 0.523,0.114 0.776,0.209c0.43,0.162 0.855,0.34 1.271,0.537l0.05,0.025l0.038,0.084l-0.078,0.039l-0.15,-0.023c-0.239,-0.039 -0.478,-0.034 -0.719,-0.002c-0.392,0.054 -0.726,0.23 -1.025,0.482c-0.31,0.263 -0.554,0.581 -0.767,0.924c-0.228,0.371 -0.421,0.759 -0.578,1.165c-0.107,0.275 -0.159,0.561 -0.142,0.856c0.022,0.409 0.17,0.766 0.457,1.063c0.279,0.29 0.624,0.456 1.017,0.534c0.173,0.034 0.348,0.05 0.526,0.046c0.322,-0.008 0.626,-0.087 0.917,-0.225l0.111,-0.056l0.116,0.025l-0.003,0.114c-0.182,0.23 -0.381,0.445 -0.636,0.6c-0.192,0.115 -0.4,0.19 -0.623,0.218c-0.115,0.014 -0.231,0.021 -0.3,0.027" style="fill:rgb(77,178,139);"/>        </g>        <g transform="matrix(2.66667,0,0,2.66667,-0.24,764.795)">            <path d="M160.089,229.312c0.3,0.003 0.578,0.05 0.851,0.124c0.377,0.102 0.736,0.246 1.07,0.449c0.194,0.119 0.373,0.254 0.52,0.429c0.108,0.131 0.19,0.275 0.221,0.443c0.033,0.184 0.005,0.36 -0.067,0.53c-0.075,0.179 -0.181,0.341 -0.301,0.493c-0.246,0.313 -0.52,0.599 -0.809,0.872c-0.308,0.289 -0.623,0.572 -0.964,0.823c-0.221,0.162 -0.451,0.306 -0.708,0.403c-0.357,0.133 -0.721,0.164 -1.097,0.095c-0.261,-0.046 -0.503,-0.134 -0.723,-0.283c-0.177,-0.123 -0.324,-0.275 -0.433,-0.46l-0.014,-0.065l0.063,0.026c0.183,0.16 0.396,0.254 0.635,0.293c0.337,0.055 0.658,-0.009 0.968,-0.14c0.266,-0.112 0.505,-0.268 0.73,-0.443c0.338,-0.265 0.644,-0.56 0.897,-0.907c0.133,-0.18 0.246,-0.37 0.315,-0.582c0.074,-0.221 0.088,-0.443 0.013,-0.665c-0.069,-0.202 -0.192,-0.363 -0.353,-0.501c-0.232,-0.197 -0.502,-0.319 -0.795,-0.393c-0.215,-0.054 -0.434,-0.072 -0.653,-0.054c-0.243,0.02 -0.473,0.087 -0.688,0.202l-0.04,0.018l-0.05,-0.015l-0.003,-0.056l0.017,-0.022c0.214,-0.212 0.452,-0.39 0.736,-0.5c0.218,-0.085 0.446,-0.113 0.662,-0.114" style="fill:rgb(49,41,128);"/>        </g>        <g transform="matrix(2.66667,0,0,2.66667,-0.24,764.616)">            <path d="M159.474,233.113l-0.041,0.03c-0.223,0.125 -0.458,0.215 -0.714,0.244c-0.221,0.027 -0.436,0.008 -0.641,-0.083c-0.305,-0.135 -0.493,-0.366 -0.561,-0.693c-0.045,-0.213 -0.025,-0.423 0.027,-0.631c0.1,-0.404 0.294,-0.762 0.544,-1.092c0.161,-0.212 0.346,-0.401 0.565,-0.553c0.322,-0.224 0.678,-0.328 1.069,-0.299c0.268,0.018 0.522,0.09 0.761,0.213l0.04,0.022l0.025,0.062l-0.061,0.024l-0.103,-0.024c-0.341,-0.073 -0.669,-0.037 -0.987,0.105c-0.388,0.174 -0.687,0.453 -0.921,0.804c-0.15,0.223 -0.266,0.462 -0.324,0.727c-0.04,0.195 -0.043,0.387 0.019,0.578c0.09,0.283 0.279,0.468 0.561,0.555c0.22,0.068 0.44,0.06 0.662,0.007l0.08,0.004" style="fill:rgb(79,178,139);"/>        </g>        <g transform="matrix(2.66667,0,0,2.66667,-0.24,764.84)">            <path d="M159.095,230.873c-0.113,0.055 -0.223,0.115 -0.323,0.193l-0.046,0.012l-0.018,-0.045l0.021,-0.026c0.225,-0.237 0.485,-0.421 0.799,-0.521c0.364,-0.117 0.725,-0.102 1.078,0.05c0.148,0.064 0.279,0.156 0.377,0.286c0.152,0.205 0.176,0.43 0.091,0.668c-0.052,0.144 -0.13,0.271 -0.223,0.39c-0.326,0.416 -0.723,0.741 -1.211,0.949c-0.174,0.074 -0.355,0.121 -0.543,0.139l-0.186,0l0.088,-0.091c0.288,-0.096 0.519,-0.271 0.689,-0.52l0.098,-0.195l0.04,-0.06c0.137,-0.132 0.256,-0.274 0.338,-0.448c0.056,-0.121 0.092,-0.247 0.07,-0.382l-0.045,-0.161l-0.073,-0.104l-0.005,-0.005l-0.015,-0.017l-0.007,-0.007l-0.075,-0.061l-0.004,0l-0.001,-0.002l-0.091,-0.053l-0.025,-0.022c-0.097,-0.042 -0.202,-0.06 -0.309,-0.067c-0.126,-0.012 -0.248,0.015 -0.368,0.049l-0.121,0.051" style="fill:rgb(50,41,127);"/>        </g>        <g transform="matrix(2.66667,0,0,2.66667,-0.24,767.701)">            <path d="M159.314,230.578l0.198,0.038c0.16,0.068 0.232,0.207 0.187,0.375l-0.068,0.16c-0.154,0.249 -0.369,0.423 -0.648,0.514l-0.238,0.021c-0.149,-0.026 -0.238,-0.12 -0.245,-0.272l0.014,-0.15c0.094,-0.321 0.294,-0.543 0.611,-0.656l0.116,-0.025l0.073,-0.005" style="fill:rgb(50,41,127);"/>        </g>    </g></svg>