<?xml version="1.0" encoding="UTF-8" standalone="no"?><!DOCTYPE svg PUBLIC "-//W3C//DTD SVG 1.1//EN" "http://www.w3.org/Graphics/SVG/1.1/DTD/svg11.dtd"><svg width="100%" height="100%" viewBox="0 0 512 512" version="1.1" xmlns="http://www.w3.org/2000/svg" xmlns:xlink="http://www.w3.org/1999/xlink" xml:space="preserve" style="fill-rule:evenodd;clip-rule:evenodd;stroke-linecap:round;stroke-linejoin:round;stroke-miterlimit:1.5;"><title>Peer Funding</title><desc>The PFL trading platform is a multi-asset class service offering catering for short term cash flow to long term growth capital lending. The platform launched with the following products, with more to follow: Business Loans, Secured Business Loans, Selective Invoice Finance, Selective Debtor Finance, Property Bridging Loans, Property Development Loans</desc>    <g transform="matrix(3.94129,0,0,3.94129,-323.281,-495.407)">        <path d="M146.209,153.456c0.401,0.083 1.803,0.083 2.204,0c3.282,-0.679 6.801,-1.508 8.096,-3.394c0.959,-1.396 0.401,-4.695 0.151,-6.893c-0.246,-2.155 -1.654,-4.258 -1.654,-6.295c0,-4.358 2.867,-6.895 6.4,-6.895c3.532,0 6.4,2.537 6.4,6.895c0,2.536 -2.122,5.421 -2.479,7.239c-0.237,1.206 -0.648,2.554 0.337,3.67c0.984,1.116 2.326,1.848 3.997,2.742c1.67,0.895 5.252,2.36 5.252,2.36l0,75.531c0,0 -3.582,1.465 -5.252,2.359c-1.671,0.895 -3.013,1.626 -3.997,2.743c-0.985,1.116 -0.574,2.464 -0.337,3.669c0.357,1.818 2.479,4.704 2.479,7.239c0,4.358 -2.868,6.896 -6.4,6.896c-3.533,0 -6.4,-2.538 -6.4,-6.896c0,-2.036 1.408,-4.139 1.654,-6.295c0.25,-2.198 0.808,-5.496 -0.151,-6.893c-1.295,-1.886 -4.814,-2.714 -8.096,-3.393c-0.401,-0.083 -1.803,-0.083 -2.204,0c-3.282,0.679 -6.802,1.507 -8.096,3.393c-0.959,1.397 -0.401,4.695 -0.151,6.893c0.246,2.156 1.654,4.259 1.654,6.295c0,4.358 -2.868,6.896 -6.4,6.896c-3.532,0 -6.4,-2.538 -6.4,-6.896c0,-2.535 2.122,-5.421 2.479,-7.239c0.237,-1.205 0.647,-2.553 -0.337,-3.669c-0.985,-1.117 -2.326,-1.848 -3.997,-2.743c-1.67,-0.894 -5.252,-2.359 -5.252,-2.359l0,-75.531c0,0 3.582,-1.465 5.252,-2.36c1.671,-0.894 3.012,-1.626 3.997,-2.742c0.984,-1.116 0.574,-2.464 0.337,-3.67c-0.357,-1.818 -2.479,-4.703 -2.479,-7.239c0,-4.358 2.868,-6.895 6.4,-6.895c3.532,0 6.4,2.537 6.4,6.895c0,2.037 -1.408,4.14 -1.654,6.295c-0.25,2.198 -0.808,5.497 0.151,6.893c1.294,1.886 4.814,2.715 8.096,3.394Z" style="fill:rgb(193,226,138);stroke:white;stroke-width:0.34px;"/>        <g>            <path d="M108.015,220.006l0,-58.712c0,0 3.581,-1.465 5.252,-2.359c1.67,-0.894 3.012,-1.626 3.996,-2.742c0.985,-1.116 0.574,-2.465 0.338,-3.67c-0.357,-1.818 -2.48,-4.704 -2.48,-7.239c0,-4.358 2.868,-6.896 6.401,-6.896c3.532,0 6.4,2.538 6.4,6.896c0,2.036 -1.409,4.139 -1.654,6.295c-0.251,2.198 -0.808,5.496 0.15,6.893c1.295,1.886 4.815,2.714 8.096,3.393c3.282,0.679 4.757,3.382 5.437,5.764c2.253,7.89 2.8,15.928 2.58,23.021c0.22,7.094 -0.327,15.132 -2.58,23.021c-0.68,2.382 -2.155,5.085 -5.437,5.764c-3.281,0.679 -6.801,1.508 -8.096,3.394c-0.958,1.396 -0.401,4.695 -0.15,6.893c0.245,2.156 1.654,4.259 1.654,6.295c0,4.358 -2.868,6.896 -6.4,6.896c-3.533,0 -6.401,-2.538 -6.401,-6.896c0,-2.536 2.123,-5.421 2.48,-7.239c0.236,-1.206 0.647,-2.554 -0.338,-3.67c-0.984,-1.116 -2.326,-1.848 -3.996,-2.742c-1.671,-0.895 -5.252,-2.36 -5.252,-2.36Z" style="fill:rgb(150,192,30);"/>            <path d="M143.198,190.65c0.22,7.152 -0.336,15.253 -2.606,23.204c-0.74,2.59 -2.376,5.496 -5.943,6.234c-1.921,0.398 -3.927,0.843 -5.497,1.537c-0.945,0.418 -1.728,0.916 -2.184,1.581c-0.324,0.472 -0.41,1.207 -0.422,2.03c-0.023,1.435 0.237,3.117 0.384,4.41c0.117,1.027 0.518,2.04 0.883,3.04c0.411,1.126 0.775,2.239 0.775,3.331c0,4.794 -3.18,7.562 -7.066,7.562c-3.887,0 -7.067,-2.768 -7.067,-7.562c0,-1.356 0.55,-2.811 1.165,-4.165c0.551,-1.211 1.156,-2.332 1.326,-3.203c0.091,-0.462 0.211,-0.945 0.258,-1.428c0.058,-0.578 0.011,-1.16 -0.441,-1.672c-0.936,-1.062 -2.221,-1.745 -3.811,-2.596c-1.65,-0.883 -5.19,-2.33 -5.19,-2.33c-0.25,-0.102 -0.414,-0.346 -0.414,-0.617l0,-29.356l0.667,0l-0.667,0l0,-29.356c0,-0.27 0.164,-0.514 0.414,-0.617c0,0 3.54,-1.446 5.19,-2.33c1.59,-0.851 2.875,-1.534 3.811,-2.595c0.452,-0.513 0.499,-1.094 0.441,-1.672c-0.047,-0.483 -0.167,-0.967 -0.258,-1.429c-0.17,-0.87 -0.775,-1.991 -1.326,-3.203c-0.615,-1.353 -1.165,-2.808 -1.165,-4.164c0,-4.794 3.18,-7.563 7.067,-7.563c3.886,0 7.066,2.769 7.066,7.563c0,1.092 -0.364,2.205 -0.775,3.331c-0.365,1 -0.766,2.012 -0.883,3.039c-0.147,1.294 -0.407,2.976 -0.384,4.411c0.012,0.823 0.098,1.558 0.422,2.03c0.456,0.664 1.239,1.163 2.184,1.581c1.57,0.694 3.576,1.139 5.497,1.536c3.567,0.739 5.203,3.645 5.943,6.234c2.27,7.952 2.826,16.052 2.606,23.204Zm-34.517,28.911c1,0.416 3.559,1.499 4.9,2.217c1.752,0.938 3.15,1.719 4.182,2.889c0.617,0.699 0.805,1.467 0.794,2.252c-0.01,0.667 -0.176,1.347 -0.302,1.987c-0.186,0.948 -0.821,2.179 -1.421,3.498c-0.535,1.177 -1.046,2.433 -1.046,3.613c0,3.921 2.555,6.229 5.734,6.229c3.178,0 5.733,-2.308 5.733,-6.229c0,-0.944 -0.339,-1.901 -0.694,-2.874c-0.401,-1.1 -0.827,-2.217 -0.956,-3.346c-0.153,-1.343 -0.416,-3.091 -0.393,-4.582c0.018,-1.127 0.213,-2.118 0.657,-2.764c0.579,-0.843 1.544,-1.515 2.744,-2.046c1.647,-0.728 3.75,-1.205 5.766,-1.623c2.996,-0.62 4.31,-3.119 4.931,-5.294c2.233,-7.82 2.773,-15.786 2.555,-22.817l0.666,-0.021l-0.666,-0.02c0.218,-7.031 -0.322,-14.998 -2.555,-22.818c-0.621,-2.175 -1.935,-4.674 -4.931,-5.294c-2.016,-0.417 -4.119,-0.894 -5.766,-1.623c-1.2,-0.53 -2.165,-1.202 -2.744,-2.046c-0.444,-0.646 -0.639,-1.636 -0.657,-2.764c-0.023,-1.49 0.24,-3.238 0.393,-4.582c0.129,-1.129 0.555,-2.246 0.956,-3.345c0.355,-0.973 0.694,-1.93 0.694,-2.874c0,-3.922 -2.555,-6.229 -5.733,-6.229c-3.179,0 -5.734,2.307 -5.734,6.229c0,1.179 0.511,2.435 1.046,3.613c0.6,1.319 1.235,2.55 1.421,3.497c0.126,0.641 0.292,1.321 0.302,1.988c0.011,0.785 -0.177,1.553 -0.794,2.252c-1.032,1.17 -2.43,1.951 -4.182,2.889c-1.341,0.718 -3.9,1.8 -4.9,2.217l0,57.821Z" style="fill:white;"/>        </g>        <g>            <path d="M95.683,170.698c0,0 3.581,-1.465 5.252,-2.359c1.67,-0.894 3.012,-1.626 3.996,-2.742c0.985,-1.116 0.574,-2.465 0.338,-3.67c-0.357,-1.818 -2.48,-4.703 -2.48,-7.239c0,-4.358 2.868,-6.896 6.401,-6.896c3.532,0 6.4,2.538 6.4,6.896c0,2.036 -1.409,4.139 -1.654,6.295c-0.251,2.198 -0.808,5.496 0.15,6.893c1.295,1.886 4.815,2.714 8.096,3.393c3.282,0.679 5.117,2.55 6.24,4.758c2.219,4.361 2.634,9.689 2.322,14.623l0.014,0.232c0.285,4.868 -0.152,10.099 -2.336,14.392c-1.123,2.208 -2.958,4.078 -6.24,4.757c-3.281,0.679 -6.801,1.508 -8.096,3.394c-0.958,1.396 -0.401,4.695 -0.15,6.893c0.245,2.156 1.654,4.259 1.654,6.295c0,4.358 -2.868,6.896 -6.4,6.896c-3.533,0 -6.401,-2.538 -6.401,-6.896c0,-2.536 2.123,-5.421 2.48,-7.239c0.236,-1.206 0.647,-2.554 -0.338,-3.67c-0.984,-1.116 -2.326,-1.848 -3.996,-2.742c-1.671,-0.895 -5.252,-2.36 -5.252,-2.36l0,-39.904Z" style="fill:rgb(5,113,141);"/>            <path d="M131.412,190.65l0.012,0.193c0.291,4.985 -0.172,10.338 -2.407,14.733c-1.206,2.37 -3.177,4.379 -6.7,5.108c-1.921,0.398 -3.927,0.843 -5.497,1.537c-0.945,0.418 -1.728,0.916 -2.184,1.581c-0.324,0.471 -0.41,1.207 -0.422,2.03c-0.023,1.435 0.237,3.117 0.384,4.41c0.117,1.027 0.518,2.04 0.883,3.04c0.411,1.126 0.775,2.239 0.775,3.331c0,4.794 -3.18,7.562 -7.066,7.562c-3.887,0 -7.067,-2.768 -7.067,-7.562c0,-1.356 0.55,-2.811 1.165,-4.165c0.551,-1.211 1.156,-2.332 1.327,-3.203c0.09,-0.462 0.21,-0.945 0.257,-1.428c0.058,-0.578 0.011,-1.16 -0.441,-1.672c-0.936,-1.062 -2.221,-1.745 -3.811,-2.596c-1.65,-0.883 -5.19,-2.33 -5.19,-2.33c-0.25,-0.102 -0.414,-0.346 -0.414,-0.617l0,-39.904c0,-0.27 0.164,-0.514 0.414,-0.617c0,0 3.54,-1.446 5.19,-2.33c1.59,-0.851 2.875,-1.533 3.811,-2.595c0.452,-0.512 0.499,-1.094 0.441,-1.672c-0.047,-0.483 -0.167,-0.967 -0.257,-1.429c-0.171,-0.87 -0.776,-1.991 -1.327,-3.203c-0.615,-1.353 -1.165,-2.808 -1.165,-4.164c0,-4.794 3.18,-7.563 7.067,-7.563c3.886,0 7.066,2.769 7.066,7.563c0,1.092 -0.364,2.205 -0.775,3.331c-0.365,1 -0.766,2.012 -0.883,3.039c-0.147,1.294 -0.407,2.976 -0.384,4.411c0.012,0.823 0.098,1.558 0.422,2.03c0.456,0.664 1.239,1.163 2.184,1.581c1.57,0.694 3.576,1.139 5.497,1.537c3.523,0.729 5.494,2.737 6.7,5.108c2.264,4.451 2.709,9.886 2.395,14.925Zm-35.063,19.507c1,0.416 3.559,1.499 4.9,2.217c1.752,0.938 3.15,1.718 4.182,2.889c0.617,0.699 0.805,1.467 0.794,2.252c-0.01,0.667 -0.176,1.346 -0.302,1.987c-0.186,0.948 -0.821,2.179 -1.421,3.498c-0.535,1.177 -1.046,2.433 -1.046,3.613c0,3.921 2.555,6.229 5.734,6.229c3.178,0 5.733,-2.308 5.733,-6.229c0,-0.944 -0.339,-1.901 -0.694,-2.874c-0.401,-1.1 -0.827,-2.217 -0.956,-3.346c-0.153,-1.343 -0.416,-3.091 -0.393,-4.582c0.018,-1.127 0.213,-2.118 0.657,-2.764c0.579,-0.844 1.544,-1.515 2.744,-2.046c1.647,-0.728 3.75,-1.205 5.766,-1.623c3.04,-0.629 4.741,-2.361 5.781,-4.406c2.132,-4.191 2.542,-9.299 2.265,-14.05l-0.014,-0.314c0.304,-4.817 -0.085,-10.022 -2.251,-14.279c-1.04,-2.045 -2.741,-3.778 -5.781,-4.407c-2.016,-0.417 -4.119,-0.894 -5.766,-1.623c-1.2,-0.53 -2.165,-1.202 -2.744,-2.046c-0.444,-0.646 -0.639,-1.636 -0.657,-2.764c-0.023,-1.49 0.24,-3.238 0.393,-4.582c0.129,-1.128 0.555,-2.246 0.956,-3.345c0.355,-0.973 0.694,-1.93 0.694,-2.874c0,-3.922 -2.555,-6.229 -5.733,-6.229c-3.179,0 -5.734,2.307 -5.734,6.229c0,1.179 0.511,2.435 1.046,3.613c0.6,1.319 1.235,2.55 1.421,3.497c0.126,0.641 0.292,1.321 0.302,1.988c0.011,0.785 -0.177,1.553 -0.794,2.252c-1.032,1.17 -2.43,1.951 -4.182,2.889c-1.341,0.718 -3.9,1.801 -4.9,2.217l0,39.013Z" style="fill:white;"/>        </g>        <g>            <path d="M82.945,200.499l0,-19.697c0,0 3.581,-1.465 5.252,-2.36c1.67,-0.894 3.012,-1.626 3.996,-2.742c0.985,-1.116 0.574,-2.464 0.337,-3.67c-0.357,-1.818 -2.479,-4.703 -2.479,-7.239c0,-4.358 2.868,-6.896 6.4,-6.896c3.533,0 6.401,2.538 6.401,6.896c0,2.036 -1.568,4.193 -1.655,6.295c-0.086,2.102 0.176,4.919 1.135,6.316c1.295,1.886 4.376,2.246 7.657,2.925c3.281,0.679 3.993,2.278 5.037,4.525c0.604,1.299 0.8,3.531 0.801,5.798c0.002,3.553 -0.197,4.5 -0.801,5.799c-1.044,2.246 -1.756,3.845 -5.037,4.525c-3.281,0.679 -6.362,1.039 -7.657,2.924c-0.959,1.397 -1.221,4.215 -1.135,6.317c0.087,2.101 1.655,4.258 1.655,6.295c0,4.357 -2.868,6.895 -6.401,6.895c-3.532,0 -6.4,-2.538 -6.4,-6.895c0,-2.536 2.122,-5.421 2.479,-7.24c0.237,-1.205 0.648,-2.553 -0.337,-3.669c-0.984,-1.116 -2.326,-1.848 -3.996,-2.743c-1.671,-0.894 -5.252,-2.359 -5.252,-2.359Z" style="fill:rgb(8,60,74);"/>            <path d="M82.278,200.499c0,0.271 0.164,0.515 0.414,0.617c0,0 3.539,1.446 5.19,2.33c1.589,0.851 2.875,1.534 3.811,2.596c0.452,0.512 0.498,1.094 0.441,1.672c-0.048,0.482 -0.167,0.966 -0.258,1.428c-0.171,0.87 -0.775,1.991 -1.326,3.203c-0.615,1.354 -1.166,2.808 -1.166,4.165c0,4.794 3.181,7.562 7.067,7.562c3.887,0 7.067,-2.768 7.067,-7.562c0,-1.095 -0.405,-2.225 -0.838,-3.361c-0.377,-0.987 -0.776,-1.979 -0.816,-2.962c-0.081,-1.964 0.121,-4.606 1.018,-5.911c0.569,-0.829 1.548,-1.294 2.729,-1.655c1.324,-0.405 2.894,-0.66 4.513,-0.995c3.571,-0.739 4.37,-2.451 5.507,-4.896c0.634,-1.363 0.865,-2.353 0.863,-6.08c-0.001,-2.379 -0.229,-4.716 -0.863,-6.079c-1.137,-2.445 -1.936,-4.158 -5.507,-4.897c-1.619,-0.335 -3.189,-0.589 -4.513,-0.994c-1.181,-0.361 -2.16,-0.826 -2.729,-1.655c-0.897,-1.306 -1.099,-3.947 -1.018,-5.912c0.04,-0.982 0.439,-1.974 0.816,-2.962c0.433,-1.135 0.838,-2.266 0.838,-3.36c0,-4.794 -3.18,-7.562 -7.067,-7.562c-3.886,0 -7.067,2.768 -7.067,7.562c0,1.356 0.551,2.811 1.166,4.165c0.551,1.211 1.155,2.332 1.326,3.203c0.091,0.462 0.21,0.945 0.258,1.428c0.057,0.578 0.011,1.16 -0.441,1.672c-0.936,1.062 -2.222,1.745 -3.811,2.596c-1.651,0.883 -5.19,2.33 -5.19,2.33c-0.25,0.102 -0.414,0.346 -0.414,0.617l0,19.697Zm1.333,-0.445c0.999,0.416 3.559,1.498 4.9,2.217c1.752,0.937 3.15,1.718 4.182,2.889c0.616,0.698 0.805,1.467 0.793,2.252c-0.009,0.667 -0.176,1.346 -0.301,1.987c-0.186,0.948 -0.821,2.178 -1.421,3.498c-0.535,1.177 -1.046,2.433 -1.046,3.613c0,3.921 2.555,6.229 5.733,6.229c3.179,0 5.734,-2.308 5.734,-6.229c0,-0.942 -0.378,-1.908 -0.751,-2.886c-0.429,-1.125 -0.857,-2.263 -0.903,-3.382c-0.092,-2.239 0.23,-5.233 1.251,-6.721c0.59,-0.859 1.493,-1.455 2.618,-1.893c1.512,-0.587 3.445,-0.892 5.454,-1.307c2.992,-0.619 3.616,-2.105 4.568,-4.153c0.574,-1.236 0.74,-2.139 0.739,-5.517c-0.001,-2.157 -0.165,-4.283 -0.739,-5.518c-0.952,-2.048 -1.576,-3.534 -4.568,-4.153c-2.009,-0.416 -3.942,-0.72 -5.454,-1.308c-1.125,-0.437 -2.028,-1.034 -2.618,-1.893c-1.021,-1.487 -1.343,-4.481 -1.251,-6.72c0.046,-1.12 0.474,-2.257 0.903,-3.382c0.373,-0.978 0.751,-1.944 0.751,-2.886c0,-3.921 -2.555,-6.229 -5.734,-6.229c-3.178,0 -5.733,2.308 -5.733,6.229c0,1.18 0.511,2.435 1.046,3.613c0.6,1.319 1.235,2.55 1.421,3.498c0.125,0.64 0.292,1.32 0.301,1.987c0.012,0.785 -0.177,1.553 -0.793,2.252c-1.032,1.17 -2.43,1.951 -4.182,2.889c-1.341,0.718 -3.901,1.801 -4.9,2.217l0,18.807Z" style="fill:white;"/>        </g>        <g transform="matrix(-1,0,0,1,293.955,0)">            <g>                <path d="M108.015,220.006l0,-58.712c0,0 3.581,-1.465 5.252,-2.359c1.67,-0.894 3.012,-1.626 3.996,-2.742c0.985,-1.116 0.574,-2.465 0.338,-3.67c-0.357,-1.818 -2.48,-4.704 -2.48,-7.239c0,-4.358 2.868,-6.896 6.401,-6.896c3.532,0 6.4,2.538 6.4,6.896c0,2.036 -1.409,4.139 -1.654,6.295c-0.251,2.198 -0.808,5.496 0.15,6.893c1.295,1.886 4.815,2.714 8.096,3.393c3.282,0.679 4.757,3.382 5.437,5.764c2.253,7.89 2.8,15.928 2.58,23.021c0.22,7.094 -0.327,15.132 -2.58,23.021c-0.68,2.382 -2.155,5.085 -5.437,5.764c-3.281,0.679 -6.801,1.508 -8.096,3.394c-0.958,1.396 -0.401,4.695 -0.15,6.893c0.245,2.156 1.654,4.259 1.654,6.295c0,4.358 -2.868,6.896 -6.4,6.896c-3.533,0 -6.401,-2.538 -6.401,-6.896c0,-2.536 2.123,-5.421 2.48,-7.239c0.236,-1.206 0.647,-2.554 -0.338,-3.67c-0.984,-1.116 -2.326,-1.848 -3.996,-2.742c-1.671,-0.895 -5.252,-2.36 -5.252,-2.36Z" style="fill:rgb(150,192,30);"/>                <path d="M143.198,190.65c0.22,7.152 -0.336,15.253 -2.606,23.204c-0.74,2.59 -2.376,5.496 -5.943,6.234c-1.921,0.398 -3.927,0.843 -5.497,1.537c-0.945,0.418 -1.728,0.916 -2.184,1.581c-0.324,0.472 -0.41,1.207 -0.422,2.03c-0.023,1.435 0.237,3.117 0.384,4.41c0.117,1.027 0.518,2.04 0.883,3.04c0.411,1.126 0.775,2.239 0.775,3.331c0,4.794 -3.18,7.562 -7.066,7.562c-3.887,0 -7.067,-2.768 -7.067,-7.562c0,-1.356 0.55,-2.811 1.165,-4.165c0.551,-1.211 1.156,-2.332 1.326,-3.203c0.091,-0.462 0.211,-0.945 0.258,-1.428c0.058,-0.578 0.011,-1.16 -0.441,-1.672c-0.936,-1.062 -2.221,-1.745 -3.811,-2.596c-1.65,-0.883 -5.19,-2.33 -5.19,-2.33c-0.25,-0.102 -0.414,-0.346 -0.414,-0.617l0,-29.356l0.667,0l-0.667,0l0,-29.356c0,-0.27 0.164,-0.514 0.414,-0.617c0,0 3.54,-1.446 5.19,-2.33c1.59,-0.851 2.875,-1.534 3.811,-2.595c0.452,-0.513 0.499,-1.094 0.441,-1.672c-0.047,-0.483 -0.167,-0.967 -0.258,-1.429c-0.17,-0.87 -0.775,-1.991 -1.326,-3.203c-0.615,-1.353 -1.165,-2.808 -1.165,-4.164c0,-4.794 3.18,-7.563 7.067,-7.563c3.886,0 7.066,2.769 7.066,7.563c0,1.092 -0.364,2.205 -0.775,3.331c-0.365,1 -0.766,2.012 -0.883,3.039c-0.147,1.294 -0.407,2.976 -0.384,4.411c0.012,0.823 0.098,1.558 0.422,2.03c0.456,0.664 1.239,1.163 2.184,1.581c1.57,0.694 3.576,1.139 5.497,1.536c3.567,0.739 5.203,3.645 5.943,6.234c2.27,7.952 2.826,16.052 2.606,23.204Zm-34.517,28.911c1,0.416 3.559,1.499 4.9,2.217c1.752,0.938 3.15,1.719 4.182,2.889c0.617,0.699 0.805,1.467 0.794,2.252c-0.01,0.667 -0.176,1.347 -0.302,1.987c-0.186,0.948 -0.821,2.179 -1.421,3.498c-0.535,1.177 -1.046,2.433 -1.046,3.613c0,3.921 2.555,6.229 5.734,6.229c3.178,0 5.733,-2.308 5.733,-6.229c0,-0.944 -0.339,-1.901 -0.694,-2.874c-0.401,-1.1 -0.827,-2.217 -0.956,-3.346c-0.153,-1.343 -0.416,-3.091 -0.393,-4.582c0.018,-1.127 0.213,-2.118 0.657,-2.764c0.579,-0.843 1.544,-1.515 2.744,-2.046c1.647,-0.728 3.75,-1.205 5.766,-1.623c2.996,-0.62 4.31,-3.119 4.931,-5.294c2.233,-7.82 2.773,-15.786 2.555,-22.817l0.666,-0.021l-0.666,-0.02c0.218,-7.031 -0.322,-14.998 -2.555,-22.818c-0.621,-2.175 -1.935,-4.674 -4.931,-5.294c-2.016,-0.417 -4.119,-0.894 -5.766,-1.623c-1.2,-0.53 -2.165,-1.202 -2.744,-2.046c-0.444,-0.646 -0.639,-1.636 -0.657,-2.764c-0.023,-1.49 0.24,-3.238 0.393,-4.582c0.129,-1.129 0.555,-2.246 0.956,-3.345c0.355,-0.973 0.694,-1.93 0.694,-2.874c0,-3.922 -2.555,-6.229 -5.733,-6.229c-3.179,0 -5.734,2.307 -5.734,6.229c0,1.179 0.511,2.435 1.046,3.613c0.6,1.319 1.235,2.55 1.421,3.497c0.126,0.641 0.292,1.321 0.302,1.988c0.011,0.785 -0.177,1.553 -0.794,2.252c-1.032,1.17 -2.43,1.951 -4.182,2.889c-1.341,0.718 -3.9,1.8 -4.9,2.217l0,57.821Z" style="fill:white;"/>            </g>            <g>                <path d="M95.683,170.698c0,0 3.581,-1.465 5.252,-2.359c1.67,-0.894 3.012,-1.626 3.996,-2.742c0.985,-1.116 0.574,-2.465 0.338,-3.67c-0.357,-1.818 -2.48,-4.703 -2.48,-7.239c0,-4.358 2.868,-6.896 6.401,-6.896c3.532,0 6.4,2.538 6.4,6.896c0,2.036 -1.409,4.139 -1.654,6.295c-0.251,2.198 -0.808,5.496 0.15,6.893c1.295,1.886 4.815,2.714 8.096,3.393c3.282,0.679 5.117,2.55 6.24,4.758c2.219,4.361 2.634,9.689 2.322,14.623l0.014,0.232c0.285,4.868 -0.152,10.099 -2.336,14.392c-1.123,2.208 -2.958,4.078 -6.24,4.757c-3.281,0.679 -6.801,1.508 -8.096,3.394c-0.958,1.396 -0.401,4.695 -0.15,6.893c0.245,2.156 1.654,4.259 1.654,6.295c0,4.358 -2.868,6.896 -6.4,6.896c-3.533,0 -6.401,-2.538 -6.401,-6.896c0,-2.536 2.123,-5.421 2.48,-7.239c0.236,-1.206 0.647,-2.554 -0.338,-3.67c-0.984,-1.116 -2.326,-1.848 -3.996,-2.742c-1.671,-0.895 -5.252,-2.36 -5.252,-2.36l0,-39.904Z" style="fill:rgb(5,113,141);"/>                <path d="M131.412,190.65l0.012,0.193c0.291,4.985 -0.172,10.338 -2.407,14.733c-1.206,2.37 -3.177,4.379 -6.7,5.108c-1.921,0.398 -3.927,0.843 -5.497,1.537c-0.945,0.418 -1.728,0.916 -2.184,1.581c-0.324,0.471 -0.41,1.207 -0.422,2.03c-0.023,1.435 0.237,3.117 0.384,4.41c0.117,1.027 0.518,2.04 0.883,3.04c0.411,1.126 0.775,2.239 0.775,3.331c0,4.794 -3.18,7.562 -7.066,7.562c-3.887,0 -7.067,-2.768 -7.067,-7.562c0,-1.356 0.55,-2.811 1.165,-4.165c0.551,-1.211 1.156,-2.332 1.327,-3.203c0.09,-0.462 0.21,-0.945 0.257,-1.428c0.058,-0.578 0.011,-1.16 -0.441,-1.672c-0.936,-1.062 -2.221,-1.745 -3.811,-2.596c-1.65,-0.883 -5.19,-2.33 -5.19,-2.33c-0.25,-0.102 -0.414,-0.346 -0.414,-0.617l0,-39.904c0,-0.27 0.164,-0.514 0.414,-0.617c0,0 3.54,-1.446 5.19,-2.33c1.59,-0.851 2.875,-1.533 3.811,-2.595c0.452,-0.512 0.499,-1.094 0.441,-1.672c-0.047,-0.483 -0.167,-0.967 -0.257,-1.429c-0.171,-0.87 -0.776,-1.991 -1.327,-3.203c-0.615,-1.353 -1.165,-2.808 -1.165,-4.164c0,-4.794 3.18,-7.563 7.067,-7.563c3.886,0 7.066,2.769 7.066,7.563c0,1.092 -0.364,2.205 -0.775,3.331c-0.365,1 -0.766,2.012 -0.883,3.039c-0.147,1.294 -0.407,2.976 -0.384,4.411c0.012,0.823 0.098,1.558 0.422,2.03c0.456,0.664 1.239,1.163 2.184,1.581c1.57,0.694 3.576,1.139 5.497,1.537c3.523,0.729 5.494,2.737 6.7,5.108c2.264,4.451 2.709,9.886 2.395,14.925Zm-35.063,19.507c1,0.416 3.559,1.499 4.9,2.217c1.752,0.938 3.15,1.718 4.182,2.889c0.617,0.699 0.805,1.467 0.794,2.252c-0.01,0.667 -0.176,1.346 -0.302,1.987c-0.186,0.948 -0.821,2.179 -1.421,3.498c-0.535,1.177 -1.046,2.433 -1.046,3.613c0,3.921 2.555,6.229 5.734,6.229c3.178,0 5.733,-2.308 5.733,-6.229c0,-0.944 -0.339,-1.901 -0.694,-2.874c-0.401,-1.1 -0.827,-2.217 -0.956,-3.346c-0.153,-1.343 -0.416,-3.091 -0.393,-4.582c0.018,-1.127 0.213,-2.118 0.657,-2.764c0.579,-0.844 1.544,-1.515 2.744,-2.046c1.647,-0.728 3.75,-1.205 5.766,-1.623c3.04,-0.629 4.741,-2.361 5.781,-4.406c2.132,-4.191 2.542,-9.299 2.265,-14.05l-0.014,-0.314c0.304,-4.817 -0.085,-10.022 -2.251,-14.279c-1.04,-2.045 -2.741,-3.778 -5.781,-4.407c-2.016,-0.417 -4.119,-0.894 -5.766,-1.623c-1.2,-0.53 -2.165,-1.202 -2.744,-2.046c-0.444,-0.646 -0.639,-1.636 -0.657,-2.764c-0.023,-1.49 0.24,-3.238 0.393,-4.582c0.129,-1.128 0.555,-2.246 0.956,-3.345c0.355,-0.973 0.694,-1.93 0.694,-2.874c0,-3.922 -2.555,-6.229 -5.733,-6.229c-3.179,0 -5.734,2.307 -5.734,6.229c0,1.179 0.511,2.435 1.046,3.613c0.6,1.319 1.235,2.55 1.421,3.497c0.126,0.641 0.292,1.321 0.302,1.988c0.011,0.785 -0.177,1.553 -0.794,2.252c-1.032,1.17 -2.43,1.951 -4.182,2.889c-1.341,0.718 -3.9,1.801 -4.9,2.217l0,39.013Z" style="fill:white;"/>            </g>            <g>                <path d="M82.945,200.499l0,-19.697c0,0 3.581,-1.465 5.252,-2.36c1.67,-0.894 3.012,-1.626 3.996,-2.742c0.985,-1.116 0.574,-2.464 0.337,-3.67c-0.357,-1.818 -2.479,-4.703 -2.479,-7.239c0,-4.358 2.868,-6.896 6.4,-6.896c3.533,0 6.401,2.538 6.401,6.896c0,2.036 -1.568,4.193 -1.655,6.295c-0.086,2.102 0.176,4.919 1.135,6.316c1.295,1.886 4.376,2.246 7.657,2.925c3.281,0.679 3.993,2.278 5.037,4.525c0.604,1.299 0.8,3.531 0.801,5.798c0.002,3.553 -0.197,4.5 -0.801,5.799c-1.044,2.246 -1.756,3.845 -5.037,4.525c-3.281,0.679 -6.362,1.039 -7.657,2.924c-0.959,1.397 -1.221,4.215 -1.135,6.317c0.087,2.101 1.655,4.258 1.655,6.295c0,4.357 -2.868,6.895 -6.401,6.895c-3.532,0 -6.4,-2.538 -6.4,-6.895c0,-2.536 2.122,-5.421 2.479,-7.24c0.237,-1.205 0.648,-2.553 -0.337,-3.669c-0.984,-1.116 -2.326,-1.848 -3.996,-2.743c-1.671,-0.894 -5.252,-2.359 -5.252,-2.359Z" style="fill:rgb(8,60,74);"/>                <path d="M82.278,200.499c0,0.271 0.164,0.515 0.414,0.617c0,0 3.539,1.446 5.19,2.33c1.589,0.851 2.875,1.534 3.811,2.596c0.452,0.512 0.498,1.094 0.441,1.672c-0.048,0.482 -0.167,0.966 -0.258,1.428c-0.171,0.87 -0.775,1.991 -1.326,3.203c-0.615,1.354 -1.166,2.808 -1.166,4.165c0,4.794 3.181,7.562 7.067,7.562c3.887,0 7.067,-2.768 7.067,-7.562c0,-1.095 -0.405,-2.225 -0.838,-3.361c-0.377,-0.987 -0.776,-1.979 -0.816,-2.962c-0.081,-1.964 0.121,-4.606 1.018,-5.911c0.569,-0.829 1.548,-1.294 2.729,-1.655c1.324,-0.405 2.894,-0.66 4.513,-0.995c3.571,-0.739 4.37,-2.451 5.507,-4.896c0.634,-1.363 0.865,-2.353 0.863,-6.08c-0.001,-2.379 -0.229,-4.716 -0.863,-6.079c-1.137,-2.445 -1.936,-4.158 -5.507,-4.897c-1.619,-0.335 -3.189,-0.589 -4.513,-0.994c-1.181,-0.361 -2.16,-0.826 -2.729,-1.655c-0.897,-1.306 -1.099,-3.947 -1.018,-5.912c0.04,-0.982 0.439,-1.974 0.816,-2.962c0.433,-1.135 0.838,-2.266 0.838,-3.36c0,-4.794 -3.18,-7.562 -7.067,-7.562c-3.886,0 -7.067,2.768 -7.067,7.562c0,1.356 0.551,2.811 1.166,4.165c0.551,1.211 1.155,2.332 1.326,3.203c0.091,0.462 0.21,0.945 0.258,1.428c0.057,0.578 0.011,1.16 -0.441,1.672c-0.936,1.062 -2.222,1.745 -3.811,2.596c-1.651,0.883 -5.19,2.33 -5.19,2.33c-0.25,0.102 -0.414,0.346 -0.414,0.617l0,19.697Zm1.333,-0.445c0.999,0.416 3.559,1.498 4.9,2.217c1.752,0.937 3.15,1.718 4.182,2.889c0.616,0.698 0.805,1.467 0.793,2.252c-0.009,0.667 -0.176,1.346 -0.301,1.987c-0.186,0.948 -0.821,2.178 -1.421,3.498c-0.535,1.177 -1.046,2.433 -1.046,3.613c0,3.921 2.555,6.229 5.733,6.229c3.179,0 5.734,-2.308 5.734,-6.229c0,-0.942 -0.378,-1.908 -0.751,-2.886c-0.429,-1.125 -0.857,-2.263 -0.903,-3.382c-0.092,-2.239 0.23,-5.233 1.251,-6.721c0.59,-0.859 1.493,-1.455 2.618,-1.893c1.512,-0.587 3.445,-0.892 5.454,-1.307c2.992,-0.619 3.616,-2.105 4.568,-4.153c0.574,-1.236 0.74,-2.139 0.739,-5.517c-0.001,-2.157 -0.165,-4.283 -0.739,-5.518c-0.952,-2.048 -1.576,-3.534 -4.568,-4.153c-2.009,-0.416 -3.942,-0.72 -5.454,-1.308c-1.125,-0.437 -2.028,-1.034 -2.618,-1.893c-1.021,-1.487 -1.343,-4.481 -1.251,-6.72c0.046,-1.12 0.474,-2.257 0.903,-3.382c0.373,-0.978 0.751,-1.944 0.751,-2.886c0,-3.921 -2.555,-6.229 -5.734,-6.229c-3.178,0 -5.733,2.308 -5.733,6.229c0,1.18 0.511,2.435 1.046,3.613c0.6,1.319 1.235,2.55 1.421,3.498c0.125,0.64 0.292,1.32 0.301,1.987c0.012,0.785 -0.177,1.553 -0.793,2.252c-1.032,1.17 -2.43,1.951 -4.182,2.889c-1.341,0.718 -3.901,1.801 -4.9,2.217l0,18.807Z" style="fill:white;"/>            </g>        </g>    </g></svg>