<?xml version="1.0" encoding="UTF-8" standalone="no"?><!DOCTYPE svg PUBLIC "-//W3C//DTD SVG 1.1//EN" "http://www.w3.org/Graphics/SVG/1.1/DTD/svg11.dtd"><svg width="100%" height="100%" viewBox="0 0 512 512" version="1.1" xmlns="http://www.w3.org/2000/svg" xmlns:xlink="http://www.w3.org/1999/xlink" xml:space="preserve" style="fill-rule:evenodd;clip-rule:evenodd;stroke-linejoin:round;stroke-miterlimit:2;"><title>KreditMatch</title><desc>KreditMatch is a direct P2B lending platform. Our platform consists of a network of creditworthy companies and financially strong investors who borrow and grant loans to each other.We offer small companies efficient and easy access to capital and KreditMatch's technology enables companies to get a flexible loan at lower interest rates than traditional banks while investors get access to a new asset class.</desc>    <g transform="matrix(4.65673,0,0,4.65673,-221.476,-175.042)">        <g transform="matrix(1,0,0,1,-28.7203,0)">            <g transform="matrix(1,0,0,1,28.2851,0)">                <path d="M60.816,80.181l15.591,-26.292l27.748,-16.085l10.41,11.985l-53.749,30.392Z" style="fill:rgb(68,149,215);"/>            </g>            <g transform="matrix(1,0,0,1,28.2851,0)">                <path d="M60.816,80.181l11.84,12.268l15.034,-27.464l-26.874,15.196Z" style="fill:url(#_Linear1);"/>            </g>        </g>        <g transform="matrix(6.12323e-17,1,-1,6.12323e-17,194.984,-39.235)">            <g transform="matrix(1,0,0,1,28.2851,0)">                <path d="M60.816,80.181l15.591,-26.292l27.748,-16.085l10.41,11.985l-53.749,30.392Z" style="fill:rgb(51,102,183);"/>            </g>            <g transform="matrix(1,0,0,1,28.2851,0)">                <path d="M60.816,80.181l11.84,12.268l15.034,-27.464l-26.874,15.196Z" style="fill:url(#_Linear2);"/>            </g>        </g>        <g transform="matrix(6.12323e-17,-1,1,6.12323e-17,10.0853,223.979)">            <g transform="matrix(1,0,0,1,28.2851,0)">                <path d="M60.816,80.181l15.591,-26.292l27.748,-16.085l10.41,11.985l-53.749,30.392Z" style="fill:rgb(51,102,183);"/>            </g>            <g transform="matrix(1,0,0,1,28.2851,0)">                <path d="M60.816,80.181l11.84,12.268l15.034,-27.464l-26.874,15.196Z" style="fill:url(#_Linear3);"/>            </g>        </g>        <g transform="matrix(-1,1.22465e-16,-1.22465e-16,-1,234.393,185.127)">            <g transform="matrix(1,0,0,1,28.2851,0)">                <path d="M60.816,80.181l15.591,-26.292l27.748,-16.085l10.41,11.985l-53.749,30.392Z" style="fill:rgb(68,149,215);"/>            </g>            <g transform="matrix(1,0,0,1,28.2851,0)">                <path d="M60.816,80.181l11.84,12.268l15.034,-27.464l-26.874,15.196Z" style="fill:url(#_Linear4);"/>            </g>        </g>    </g>    <defs>        <linearGradient id="_Linear1" x1="0" y1="0" x2="1" y2="0" gradientUnits="userSpaceOnUse" gradientTransform="matrix(1.23913e-15,20.2366,-20.2366,1.23913e-15,74.2533,69.2949)"><stop offset="0" style="stop-color:rgb(6,84,131);stop-opacity:1"/><stop offset="1" style="stop-color:rgb(68,150,213);stop-opacity:1"/></linearGradient>        <linearGradient id="_Linear2" x1="0" y1="0" x2="1" y2="0" gradientUnits="userSpaceOnUse" gradientTransform="matrix(-23.2085,15.8952,-15.8952,-23.2085,86.6079,66.9624)"><stop offset="0" style="stop-color:rgb(32,65,123);stop-opacity:1"/><stop offset="1" style="stop-color:rgb(45,87,158);stop-opacity:1"/></linearGradient>        <linearGradient id="_Linear3" x1="0" y1="0" x2="1" y2="0" gradientUnits="userSpaceOnUse" gradientTransform="matrix(-23.2085,15.8952,-15.8952,-23.2085,86.6079,66.9624)"><stop offset="0" style="stop-color:rgb(32,65,123);stop-opacity:1"/><stop offset="1" style="stop-color:rgb(45,87,158);stop-opacity:1"/></linearGradient>        <linearGradient id="_Linear4" x1="0" y1="0" x2="1" y2="0" gradientUnits="userSpaceOnUse" gradientTransform="matrix(1.23913e-15,20.2366,-20.2366,1.23913e-15,74.2533,69.2949)"><stop offset="0" style="stop-color:rgb(6,84,131);stop-opacity:1"/><stop offset="1" style="stop-color:rgb(68,150,213);stop-opacity:1"/></linearGradient>    </defs></svg>