<?xml version="1.0" encoding="UTF-8" standalone="no"?><!DOCTYPE svg PUBLIC "-//W3C//DTD SVG 1.1//EN" "http://www.w3.org/Graphics/SVG/1.1/DTD/svg11.dtd"><svg width="100%" height="100%" viewBox="0 0 512 512" version="1.1" xmlns="http://www.w3.org/2000/svg" xmlns:xlink="http://www.w3.org/1999/xlink" xml:space="preserve" style="fill-rule:evenodd;clip-rule:evenodd;stroke-linejoin:round;stroke-miterlimit:2;"><title>MAS</title><desc></desc>    <g transform="matrix(6.63458,0,0,6.63458,1,1)">        <rect x="0" y="0" width="76.87" height="76.87" style="fill:rgb(2,15,80);fill-rule:nonzero;"/>        <path d="M10.174,38.435c0,-15.61 12.652,-28.261 28.26,-28.261c15.608,0 28.262,12.65 28.262,28.26c0,15.608 -12.652,28.262 -28.261,28.262c-15.608,0 -28.261,-12.653 -28.261,-28.261Z" style="fill:rgb(167,131,55);fill-rule:nonzero;"/>        <path d="M19.02,47.323l-1.724,0l0,0.964l4.913,0l0,-0.964l-2.26,0l0,-18.488l0.051,0l5.576,19.8l0.683,0l5.337,-19.126l0.049,0l0,17.814l-2.26,0l0,0.964l6.535,0l0,-0.964l-1.917,0l0,-18.74l1.917,0l0,-0.964l-4.692,0l-4.571,16.447l-4.544,-16.447l-4.816,0l0,0.964l1.724,0l-0.001,18.74Z" style="fill:white;fill-rule:nonzero;"/>        <path d="M44.099,40.194l-2.076,-8.908l-2.353,8.908l4.429,0Zm-7.296,7.13l5.263,-20.05l1.627,0l4.668,20.05l1.724,0l0,0.963l-6.596,0l0,-0.964l2.24,0l-1.42,-6.139l-4.918,0l-1.586,6.14l2.24,0l0,0.963l-4.127,0l0,-0.964l0.885,0l0,0.001Zm13.285,-0.001c1.354,0.81 3.682,1.246 5.164,1.246c3.014,0 5.342,-1.536 5.204,-5.937c-0.244,-7.794 -8.582,-5.648 -8.745,-10.832c-0.072,-2.29 1.59,-3.852 3.098,-3.852c2.019,0 3.631,1.766 4.043,5.068l0.683,0l0,-4.546c-1.198,-0.724 -3.215,-1.219 -4.492,-1.219c-2.529,0 -5.181,1.74 -5.058,5.707c0.224,7.154 8.541,5.156 8.716,10.746c0.088,2.783 -1.529,4.171 -3.342,4.171c-2.783,0 -4.294,-2.173 -4.586,-5.821l-0.683,0l-0.002,5.27l0,-0.001Z" style="fill:white;fill-rule:nonzero;"/>    </g></svg>