<?xml version="1.0" encoding="UTF-8" standalone="no"?><!DOCTYPE svg PUBLIC "-//W3C//DTD SVG 1.1//EN" "http://www.w3.org/Graphics/SVG/1.1/DTD/svg11.dtd"><svg width="100%" height="100%" viewBox="0 0 512 512" version="1.1" xmlns="http://www.w3.org/2000/svg" xmlns:xlink="http://www.w3.org/1999/xlink" xml:space="preserve"  style="fill-rule:evenodd;clip-rule:evenodd;stroke-linejoin:round;stroke-miterlimit:2;"><title>Impact</title><desc></desc>    <g id="impact" transform="matrix(4.40282,0,0,4.40282,164.755,1)">        <path d="M20.723,70.31c7.528,0 14.261,3.37 18.808,8.668c1.218,-2.64 1.918,-5.57 1.918,-8.668c-0,-11.441 -9.28,-20.725 -20.726,-20.725c-11.443,0 -20.723,9.284 -20.723,20.725c-0,3.098 0.699,6.028 1.917,8.668c4.549,-5.298 11.279,-8.668 18.806,-8.668" style="fill:rgb(166,180,190);"/>        <path d="M41.448,95.108c0,-11.444 -9.279,-20.726 -20.726,-20.726c-11.443,-0 -20.722,9.282 -20.722,20.726c0,11.442 9.279,20.727 20.722,20.727c11.447,-0 20.726,-9.285 20.726,-20.727" style="fill:rgb(70,95,107);"/>        <path d="M41.448,20.727c0,-11.448 -9.279,-20.727 -20.726,-20.727c-11.443,0 -20.722,9.286 -20.722,20.727c0,11.443 9.279,20.726 20.722,20.726c11.447,0 20.726,-9.283 20.726,-20.726" style="fill:rgb(249,0,64);"/>    </g></svg>