<?xml version="1.0" encoding="UTF-8" standalone="no"?><!DOCTYPE svg PUBLIC "-//W3C//DTD SVG 1.1//EN" "http://www.w3.org/Graphics/SVG/1.1/DTD/svg11.dtd"><svg width="100%" height="100%" viewBox="0 0 512 512" version="1.1" xmlns="http://www.w3.org/2000/svg" xmlns:xlink="http://www.w3.org/1999/xlink" xml:space="preserve" style="fill-rule:evenodd;clip-rule:evenodd;stroke-linejoin:round;stroke-miterlimit:2;"><title>Fintech Belgium</title><desc></desc>    <g transform="matrix(1.29086,0,0,1.29032,-5.148,-113.671)">        <g transform="matrix(1.34311,0,0,1.34411,-120.899,246.575)">            <path d="M223.01,160.53c-0.15,-0.37 -0.37,-0.67 -0.52,-1.05c-0.23,-0.3 -0.38,-0.6 -0.53,-0.97c-0.22,-0.3 -0.3,-0.6 -0.45,-0.83c-0.3,-0.52 -0.45,-0.9 -0.45,-0.9l-1.05,0c-0.67,0 -1.57,-0.08 -2.4,-0.15c-0.9,-0.08 -1.72,-0.08 -2.4,-0.15c-0.68,-0.08 -1.13,-0.08 -1.13,-0.08c0,0 -0.3,0.3 -0.67,0.83c-0.38,0.53 -0.9,1.2 -1.43,1.88c-0.52,0.75 -1.05,1.5 -1.42,2.02c-0.38,0.53 -0.68,0.9 -0.68,0.9c0,0 0.23,0.38 0.53,0.98c0.15,0.3 0.37,0.67 0.6,0.97c0.15,0.38 0.37,0.75 0.6,1.2c0.22,0.38 0.45,0.75 0.6,1.13c0.22,0.3 0.45,0.67 0.6,0.97c0.3,0.53 0.52,0.9 0.52,0.9l1.13,0c0.67,0 1.58,-0.07 2.48,-0.07c0.9,-0.08 1.72,-0.08 2.4,-0.15c0.67,0 1.05,-0.08 1.05,-0.08c0,0 0.22,-0.37 0.6,-0.9c0.3,-0.52 0.75,-1.27 1.2,-2.02c0.45,-0.68 0.9,-1.43 1.2,-1.95c0.37,-0.45 0.6,-0.83 0.6,-0.83c0,0 -0.23,-0.37 -0.53,-0.82c-0.15,-0.23 -0.3,-0.53 -0.45,-0.83Z" style="fill:rgb(235,30,39);fill-rule:nonzero;"/>        </g>        <g transform="matrix(1.34311,0,0,1.34411,-120.899,218.551)">            <path d="M212.96,174.55c0.45,-0.45 0.67,-0.75 0.67,-0.75c0,0 -0.15,-0.37 -0.45,-0.97c-0.22,-0.53 -0.52,-1.28 -0.9,-2.03c-0.37,-0.75 -0.67,-1.5 -0.9,-2.1c-0.22,-0.52 -0.45,-0.9 -0.45,-0.9c0,0 -1.8,-0.37 -3.67,-0.75c-0.9,-0.15 -1.8,-0.37 -2.55,-0.52c-0.68,-0.15 -1.2,-0.23 -1.2,-0.23c0,0 -0.3,0.3 -0.75,0.75c-0.45,0.45 -1.13,1.05 -1.73,1.73c-1.27,1.27 -2.55,2.62 -2.55,2.62c0,0 0.23,0.45 0.45,1.05c0.3,0.68 0.68,1.58 1.05,2.4c0.45,0.83 0.83,1.73 1.13,2.4c0.3,0.6 0.52,1.06 0.52,1.06c0,0 0.45,0.07 1.2,0.15c0.75,0.07 1.73,0.22 2.7,0.3c1.88,0.22 3.75,0.37 3.75,0.37c0,0 1.13,-1.35 2.18,-2.7c0.52,-0.68 1.12,-1.35 1.5,-1.88Z" style="fill:rgb(235,30,39);fill-rule:nonzero;"/>        </g>        <g transform="matrix(1.34311,0,0,1.34411,-120.899,185.983)">            <path d="M200.81,189.26c0.6,-0.6 1.27,-1.2 1.8,-1.65c0.45,-0.38 0.75,-0.68 0.75,-0.68c0,0 -0.08,-0.45 -0.3,-1.05c-0.23,-0.6 -0.53,-1.35 -0.83,-2.17c-0.3,-0.83 -0.52,-1.65 -0.75,-2.25c-0.22,-0.6 -0.37,-0.98 -0.37,-0.98c0,0 -0.45,-0.15 -1.13,-0.37c-0.75,-0.23 -1.72,-0.53 -2.7,-0.9c-0.97,-0.3 -1.95,-0.6 -2.7,-0.91c-0.75,-0.22 -1.2,-0.37 -1.2,-0.37c0,0 -0.37,0.22 -0.97,0.6c-0.53,0.38 -1.28,0.98 -2.03,1.5c-0.75,0.53 -1.5,1.05 -2.02,1.5c-0.53,0.45 -0.98,0.75 -0.98,0.75c0,0 0.23,0.45 0.45,1.13c0.23,0.67 0.53,1.65 0.83,2.55c0.37,0.9 0.67,1.87 0.9,2.55c0.3,0.75 0.45,1.2 0.45,1.2c0,0 0.52,0.07 1.35,0.3c0.75,0.22 1.8,0.52 2.77,0.75c2.1,0.52 4.05,0.97 4.05,0.97c0,0 1.35,-1.27 2.63,-2.47Z" style="fill:rgb(235,30,39);fill-rule:nonzero;"/>        </g>        <g transform="matrix(1.34311,0,0,1.34411,-120.899,149.073)">            <path d="M190.61,203.66c0.75,-0.45 1.5,-0.97 2.1,-1.35c0.52,-0.3 0.9,-0.52 0.9,-0.52c0,0 -0.08,-0.45 -0.23,-1.05c-0.22,-0.68 -0.45,-1.5 -0.6,-2.33c-0.15,-0.45 -0.22,-0.82 -0.3,-1.2c-0.15,-0.45 -0.22,-0.75 -0.3,-1.12c-0.07,-0.6 -0.22,-0.98 -0.22,-0.98c0,0 -1.95,-0.9 -3.9,-1.8c-2.03,-0.97 -4.06,-1.95 -4.06,-1.95c0,0 -1.65,0.75 -3.37,1.65c-1.73,0.83 -3.45,1.73 -3.45,1.73c0,0 0.07,0.45 0.22,1.2c0.15,0.37 0.23,0.82 0.3,1.27c0.15,0.45 0.23,0.9 0.38,1.43c0.22,0.97 0.45,1.95 0.67,2.7c0.15,0.67 0.3,1.2 0.3,1.2c0,0 0.53,0.22 1.35,0.52c0.83,0.3 1.88,0.75 2.93,1.13c2.18,0.82 4.2,1.57 4.2,1.57c0,0 1.58,-1.05 3.08,-2.1Z" style="fill:rgb(235,30,39);fill-rule:nonzero;"/>        </g>        <g transform="matrix(1.34311,0,0,1.34411,-120.899,108.844)">            <path d="M178.9,220.32c0.68,-0.3 1.5,-0.68 2.4,-1.05c0.9,-0.38 1.73,-0.75 2.4,-1.05c0.6,-0.23 1.05,-0.38 1.05,-0.38c0,0 -0.07,-0.45 -0.15,-1.05c-0.07,-0.67 -0.22,-1.57 -0.3,-2.4c-0.15,-0.82 -0.22,-1.65 -0.3,-2.32c-0.07,-0.61 -0.07,-0.98 -0.07,-0.98c0,0 -0.53,-0.3 -1.28,-0.75c-0.67,-0.45 -1.72,-1.05 -2.7,-1.65c-1.95,-1.2 -3.97,-2.48 -3.97,-2.48c0,0 -1.88,0.45 -3.83,1.05c-0.97,0.23 -1.95,0.53 -2.62,0.75c-0.75,0.23 -1.28,0.38 -1.28,0.38c0,0 0.08,0.52 0.15,1.27c0.08,0.68 0.15,1.73 0.3,2.71c0.08,0.97 0.23,1.95 0.3,2.7c0.15,0.75 0.23,1.27 0.23,1.27c0,0 0.52,0.3 1.35,0.75c0.82,0.38 1.87,0.98 3,1.58c1.05,0.52 2.1,1.05 2.92,1.5c0.75,0.37 1.28,0.67 1.28,0.67c0,0 0.45,-0.22 1.12,-0.52Z" style="fill:rgb(235,30,39);fill-rule:nonzero;"/>        </g>        <g transform="matrix(1.34311,0,0,1.34411,-120.899,66.007)">            <path d="M168.18,235.76c0.82,0.52 1.35,0.9 1.35,0.9c0,0 0.45,-0.15 1.2,-0.38c0.75,-0.15 1.72,-0.37 2.7,-0.6c1.95,-0.45 3.82,-0.82 3.82,-0.82l0,-1.05l0,-2.33c0,-0.82 0,-1.65 0.08,-2.25l0,-1.05c0,0 -1.88,-1.35 -3.75,-2.85c-0.9,-0.75 -1.88,-1.5 -2.63,-2.1c-0.67,-0.6 -1.12,-0.97 -1.12,-0.97c0,0 -0.53,0.07 -1.35,0.07c-0.75,0.08 -1.8,0.15 -2.85,0.3c-2.1,0.23 -4.28,0.53 -4.28,0.53c0,0 -0.07,0.45 -0.15,1.12c0,0.75 0,1.73 -0.07,2.7l0,2.7c-0.08,0.68 0,1.2 0,1.2c0,0 2.1,1.5 4.2,2.93c1.05,0.75 2.1,1.42 2.85,1.95Z" style="fill:rgb(235,30,39);fill-rule:nonzero;"/>        </g>        <g transform="matrix(1.34311,0,0,1.34411,-120.899,20.9254)">            <path d="M159.25,250.02c1.95,1.72 3.98,3.3 3.98,3.3c0,0 2.1,-0.15 4.2,-0.23c1.05,-0.07 2.17,-0.15 2.92,-0.15l1.28,0c0,0 0.22,-1.65 0.52,-3.22c0.08,-0.38 0.15,-0.83 0.23,-1.13c0.07,-0.37 0.15,-0.75 0.22,-0.97c0.15,-0.6 0.23,-0.98 0.23,-0.98c0,0 -1.73,-1.72 -3.45,-3.37c-1.73,-1.73 -3.45,-3.53 -3.45,-3.53c0,0 -2.18,-0.22 -4.43,-0.37c-2.32,-0.15 -4.57,-0.23 -4.57,-0.23c0,0 -0.08,0.45 -0.3,1.13c-0.08,0.3 -0.15,0.67 -0.3,1.12c-0.08,0.45 -0.23,0.9 -0.3,1.35c-0.38,1.8 -0.68,3.75 -0.68,3.75c0,0 0.45,0.45 1.2,1.13c0.75,0.67 1.73,1.5 2.7,2.4Z" style="fill:rgb(235,30,39);fill-rule:nonzero;"/>        </g>        <g transform="matrix(1.34311,0,0,1.34411,-120.899,-23.6455)">            <path d="M155.95,265.7c0.9,0.9 1.8,1.88 2.4,2.63c0.3,0.3 0.6,0.6 0.75,0.82c0.23,0.23 0.38,0.3 0.38,0.3c0,0 0.15,0 0.37,0.08c0.23,0 0.6,0 1.05,0.07c0.83,0.08 1.95,0.23 3.08,0.3c1.12,0.15 2.25,0.3 3.07,0.38c0.75,0.07 1.35,0.22 1.35,0.22c0,0 0.08,-0.45 0.3,-0.97c0.23,-0.53 0.53,-1.28 0.83,-2.03c0.3,-0.67 0.6,-1.35 0.82,-1.87c0.15,-0.3 0.23,-0.53 0.3,-0.68c0.08,-0.15 0.08,-0.22 0.08,-0.22c0,0 -1.43,-1.8 -2.93,-3.68c-0.75,-0.98 -1.5,-1.95 -2.02,-2.7c-0.53,-0.68 -0.9,-1.2 -0.9,-1.2c0,0 -0.6,-0.08 -1.43,-0.3c-0.82,-0.23 -2.02,-0.53 -3.15,-0.75c-2.32,-0.53 -4.72,-0.98 -4.72,-0.98c0,0 0,0.15 -0.15,0.3c-0.08,0.15 -0.23,0.38 -0.38,0.68c-0.3,0.6 -0.67,1.42 -1.05,2.25c-0.45,0.82 -0.75,1.65 -1.05,2.32c-0.3,0.6 -0.45,1.05 -0.45,1.05c0,0 0.45,0.53 1.05,1.21c0.68,0.75 1.58,1.8 2.4,2.77Z" style="fill:rgb(235,30,39);fill-rule:nonzero;"/>        </g>        <g transform="matrix(1.34311,0,0,1.34411,-120.899,-65.3802)">            <path d="M153.1,275.75c0,0 0.37,0.52 0.83,1.27c0.6,0.83 1.2,1.88 1.95,2.93c1.42,2.02 2.92,4.05 2.92,4.05c0,0 2.33,0.52 4.65,1.12c1.05,0.3 2.25,0.68 3.08,0.9c0.82,0.23 1.35,0.38 1.35,0.38c0,0 0.22,-0.3 0.6,-0.83c0.3,-0.45 0.75,-1.05 1.2,-1.72c0.45,-0.6 0.9,-1.2 1.27,-1.65c0.3,-0.38 0.6,-0.68 0.6,-0.68c0,0 -0.3,-0.52 -0.75,-1.2c-0.45,-0.75 -1.12,-1.72 -1.65,-2.7c-1.12,-1.95 -2.25,-3.97 -2.25,-3.97c0,0 -2.25,-0.9 -4.57,-1.73c-1.2,-0.45 -2.33,-0.82 -3.23,-1.12c-0.9,-0.3 -1.5,-0.53 -1.5,-0.53c0,0 -0.3,0.38 -0.75,0.83c-0.45,0.45 -0.97,1.12 -1.57,1.8c-0.53,0.75 -1.13,1.35 -1.51,1.95c-0.45,0.52 -0.67,0.9 -0.67,0.9Z" style="fill:rgb(235,30,39);fill-rule:nonzero;"/>        </g>        <g transform="matrix(1.34311,0,0,1.34411,-120.899,149.893)">            <path d="M174.55,198.1c-0.15,-0.52 -0.22,-0.97 -0.37,-1.5c-0.15,-0.45 -0.23,-0.9 -0.3,-1.27c-0.15,-0.75 -0.3,-1.2 -0.3,-1.2c0,0 -2.18,-1.05 -4.43,-2.18c-2.25,-1.12 -4.5,-2.32 -4.5,-2.32c0,0 -1.95,0.97 -3.82,1.95c-2.03,1.05 -3.98,2.17 -3.98,2.17c0,0 0.15,0.6 0.38,1.43c0.07,0.45 0.15,0.9 0.3,1.5c0.07,0.52 0.22,1.12 0.37,1.65c0.3,1.2 0.53,2.32 0.75,3.22c0.23,0.83 0.45,1.43 0.45,1.43c0,0 0.6,0.3 1.5,0.67c0.9,0.38 2.1,0.9 3.38,1.35c2.4,0.98 4.72,1.88 4.72,1.88c0,0 1.73,-1.27 3.45,-2.48c0.83,-0.52 1.73,-1.12 2.33,-1.57c0.67,-0.45 1.05,-0.68 1.05,-0.68c0,0 -0.08,-0.52 -0.3,-1.27c-0.23,-0.75 -0.45,-1.8 -0.68,-2.78Z" style="fill:rgb(235,30,39);fill-rule:nonzero;"/>        </g>        <g transform="matrix(1.34311,0,0,1.34411,-120.899,101.693)">            <path d="M158.88,224.36c0.75,-0.37 1.72,-0.82 2.7,-1.27c0.97,-0.45 1.95,-0.9 2.7,-1.28c0.67,-0.3 1.2,-0.52 1.2,-0.52c0,0 -0.08,-0.53 -0.23,-1.28c-0.07,-0.75 -0.22,-1.8 -0.3,-2.85c-0.15,-0.98 -0.22,-2.03 -0.3,-2.78c-0.07,-0.75 -0.15,-1.27 -0.15,-1.27c0,0 -2.17,-1.35 -4.35,-2.78c-2.25,-1.42 -4.42,-2.92 -4.42,-2.92c0,0 -2.18,0.6 -4.36,1.27c-2.25,0.68 -4.42,1.5 -4.42,1.5c0,0 0,0.53 0.07,1.43c0.08,0.9 0.15,2.1 0.3,3.22c0.08,1.2 0.23,2.41 0.38,3.31c0.07,0.9 0.15,1.5 0.15,1.5c0,0 0.6,0.3 1.57,0.82c0.9,0.53 2.18,1.28 3.38,1.95c1.2,0.6 2.4,1.28 3.3,1.8c0.9,0.45 1.5,0.75 1.5,0.75c0,0 0.53,-0.22 1.28,-0.6Z" style="fill:rgb(235,30,39);fill-rule:nonzero;"/>        </g>        <g transform="matrix(1.34311,0,0,1.34411,-120.899,50.3749)">            <path d="M148.37,243.94c0,0 0.53,-0.15 1.35,-0.45c0.9,-0.23 2.03,-0.53 3.15,-0.83c2.18,-0.52 4.36,-1.05 4.36,-1.05l0,-1.27l0,-2.78c0.07,-1.05 0.15,-2.02 0.15,-2.77c0,-0.75 0.15,-1.2 0.15,-1.2c0,0 -2.1,-1.65 -4.21,-3.46c-2.1,-1.72 -4.12,-3.52 -4.12,-3.52c0,0 -2.48,0.22 -4.8,0.52c-2.48,0.3 -4.95,0.75 -4.95,0.75c0,0 0,0.53 -0.08,1.43c-0.07,0.82 -0.15,1.95 -0.22,3.15c-0.08,1.13 -0.15,2.33 -0.15,3.23c-0.08,0.9 -0.08,1.5 -0.08,1.5c0,0 2.4,1.72 4.8,3.45c1.13,0.82 2.25,1.65 3.15,2.25c0.9,0.6 1.5,1.05 1.5,1.05Z" style="fill:rgb(235,30,39);fill-rule:nonzero;"/>        </g>        <g transform="matrix(1.34311,0,0,1.34411,-120.899,-2.87889)">            <path d="M146.65,263c1.2,-0.07 2.4,-0.15 3.3,-0.22c0.9,-0.08 1.42,-0.08 1.42,-0.08c0,0 0.15,-0.52 0.23,-1.2c0.15,-0.75 0.37,-1.72 0.6,-2.7c0.07,-0.45 0.15,-0.9 0.3,-1.35c0.07,-0.45 0.22,-0.9 0.3,-1.2c0.22,-0.67 0.3,-1.2 0.3,-1.2c0,0 -1.88,-1.87 -3.68,-3.82c-1.87,-2.03 -3.67,-4.06 -3.67,-4.06c0,0 -2.55,-0.15 -5.1,-0.3c-2.63,-0.07 -5.25,-0.15 -5.25,-0.15c0,0 -0.15,0.53 -0.45,1.36c-0.08,0.37 -0.23,0.82 -0.38,1.35c-0.15,0.52 -0.3,1.05 -0.45,1.57c-0.22,1.13 -0.52,2.25 -0.67,3.08c-0.23,0.82 -0.3,1.42 -0.3,1.42c0,0 0.52,0.53 1.27,1.28c0.83,0.75 1.88,1.8 3,2.77c2.18,1.95 4.35,3.9 4.35,3.9c0,0 2.48,-0.22 4.88,-0.45Z" style="fill:rgb(235,30,39);fill-rule:nonzero;"/>        </g>        <g transform="matrix(1.34311,0,0,1.34411,-120.899,-55.3934)">            <path d="M137.35,281.07c0.3,0.37 0.6,0.75 0.82,0.97c0.23,0.23 0.3,0.38 0.3,0.38l0.45,0c0.3,0.07 0.68,0.07 1.2,0.07c0.98,0.08 2.25,0.23 3.6,0.3c2.55,0.23 4.95,0.53 4.95,0.53c0,0 0.23,-0.45 0.53,-1.13c0.3,-0.67 0.67,-1.5 1.05,-2.4c0.45,-0.82 0.82,-1.65 1.12,-2.25c0.15,-0.3 0.3,-0.6 0.45,-0.75c0.08,-0.15 0.15,-0.3 0.15,-0.3c0,0 -1.57,-2.02 -3.07,-4.2c-0.83,-1.05 -1.58,-2.17 -2.1,-2.92c-0.6,-0.83 -0.98,-1.35 -0.98,-1.35c0,0 -0.6,-0.15 -1.65,-0.38c-0.9,-0.22 -2.25,-0.45 -3.6,-0.75c-2.62,-0.45 -5.32,-0.97 -5.32,-0.97c0,0 -0.08,0.15 -0.23,0.3c-0.15,0.22 -0.3,0.52 -0.52,0.82c-0.38,0.75 -0.9,1.65 -1.43,2.63c-0.52,0.9 -0.97,1.95 -1.35,2.7c-0.37,0.67 -0.67,1.2 -0.67,1.2c0,0 1.87,2.25 3.75,4.5c0.9,1.12 1.8,2.17 2.55,3Z" style="fill:rgb(235,30,39);fill-rule:nonzero;"/>        </g>        <g transform="matrix(1.34311,0,0,1.34411,-120.899,-102.894)">            <path d="M136.22,294.13c1.43,2.32 2.93,4.58 2.93,4.58c0,0 2.7,0.52 5.25,1.2c1.27,0.3 2.62,0.6 3.6,0.82c0.9,0.3 1.57,0.45 1.57,0.45c0,0 0.3,-0.37 0.68,-0.97c0.45,-0.53 1.05,-1.2 1.65,-1.95c0.6,-0.68 1.12,-1.43 1.57,-1.88c0.53,-0.45 0.83,-0.83 0.83,-0.83c0,0 -0.3,-0.52 -0.75,-1.27c-0.45,-0.83 -1.05,-1.95 -1.65,-3c-1.13,-2.1 -2.25,-4.28 -2.25,-4.28c0,0 -2.55,-0.97 -5.18,-1.87c-1.35,-0.45 -2.62,-0.9 -3.6,-1.2c-1.05,-0.3 -1.72,-0.53 -1.72,-0.53c0,0 -0.38,0.3 -0.98,0.9c-0.6,0.45 -1.27,1.28 -2.02,2.03c-0.75,0.75 -1.5,1.5 -1.95,2.17c-0.53,0.6 -0.9,0.98 -0.9,0.98c0,0 0.37,0.6 0.9,1.5c0.52,0.82 1.2,2.02 2.02,3.15Z" style="fill:rgb(235,30,39);fill-rule:nonzero;"/>        </g>        <g transform="matrix(1.34311,0,0,1.34411,-120.899,-143.93)">            <path d="M156.78,314.01c0.75,-0.6 1.5,-1.05 2.02,-1.43c0.6,-0.37 0.98,-0.67 0.98,-0.67c0,0 -0.23,-0.53 -0.6,-1.28c-0.3,-0.75 -0.75,-1.8 -1.2,-2.85c-0.83,-2.02 -1.58,-4.13 -1.58,-4.13c0,0 -2.47,-1.2 -4.95,-2.32c-1.28,-0.6 -2.55,-1.2 -3.53,-1.65c-0.9,-0.45 -1.57,-0.75 -1.57,-0.75c0,0 -0.45,0.3 -1.05,0.67c-0.68,0.38 -1.58,0.9 -2.4,1.43c-0.83,0.6 -1.73,1.12 -2.4,1.57c-0.6,0.45 -0.98,0.68 -0.98,0.68c0,0 0.98,2.33 2.03,4.5c0.52,1.13 1.12,2.25 1.5,3.08c0.37,0.9 0.67,1.42 0.67,1.42c0,0 0.68,0.23 1.65,0.6c0.98,0.38 2.25,0.83 3.53,1.35c2.55,0.98 5.03,1.95 5.03,1.95c0,0 0.37,-0.3 0.9,-0.75c0.52,-0.37 1.27,-0.9 1.95,-1.42Z" style="fill:rgb(235,30,39);fill-rule:nonzero;"/>        </g>        <g transform="matrix(1.34311,0,0,1.34411,-120.899,-177.708)">            <path d="M165.55,318.73c-0.22,-0.75 -0.3,-1.2 -0.3,-1.2c0,0 -0.6,-0.37 -1.42,-0.9c-0.9,-0.52 -2.1,-1.2 -3.23,-1.87c-2.4,-1.35 -4.8,-2.7 -4.8,-2.7c0,0 -0.07,0 -0.3,0.07c-0.22,0.08 -0.52,0.15 -0.9,0.3c-0.67,0.23 -1.65,0.6 -2.63,0.98c-0.9,0.3 -1.87,0.75 -2.55,0.97c-0.75,0.3 -1.2,0.53 -1.2,0.53c0,0 0.68,2.1 1.43,4.2c0.37,1.05 0.75,2.1 0.97,2.92c0.15,0.38 0.3,0.75 0.38,0.98c0.07,0.22 0.15,0.3 0.15,0.3c0,0 0.6,0.37 1.57,0.82c0.9,0.45 2.11,1.05 3.38,1.65c2.4,1.2 4.73,2.4 4.73,2.4c0,0 0.45,-0.22 1.05,-0.52c0.6,-0.23 1.42,-0.68 2.25,-1.05c0.82,-0.3 1.65,-0.68 2.25,-0.98c0.3,-0.15 0.52,-0.22 0.75,-0.3c0.15,-0.07 0.22,-0.07 0.22,-0.07c0,0 -0.52,-1.95 -1.12,-3.9c-0.23,-0.98 -0.53,-1.95 -0.68,-2.63Z" style="fill:rgb(235,30,39);fill-rule:nonzero;"/>        </g>        <g transform="matrix(1.34311,0,0,1.34411,-120.899,-204.12)">            <path d="M173.35,336.43c0.9,-0.22 1.8,-0.37 2.48,-0.52c0.3,-0.08 0.6,-0.15 0.75,-0.23l0.37,0c0,0 -0.37,-1.72 -0.6,-3.52c-0.3,-1.73 -0.45,-3.45 -0.45,-3.45c0,0 -2.1,-1.5 -4.27,-3.01c-2.18,-1.5 -4.43,-3.07 -4.43,-3.07c0,0 -0.07,0 -0.3,0.07c-0.22,0 -0.6,0.08 -0.97,0.08c-0.75,0.15 -1.73,0.3 -2.78,0.45c-0.97,0.15 -2.02,0.37 -2.77,0.52c-0.75,0.15 -1.28,0.23 -1.28,0.23c0,0 0.38,1.95 0.75,3.83c0.45,1.95 0.9,3.9 0.9,3.9c0,0 2.33,1.35 4.65,2.77c2.25,1.43 4.43,2.78 4.43,2.78c0,0 0.45,-0.08 1.12,-0.3c0.68,-0.15 1.58,-0.38 2.4,-0.53Z" style="fill:rgb(235,30,39);fill-rule:nonzero;"/>        </g>        <g transform="matrix(1.34311,0,0,1.34411,-120.899,-29.5864)">            <path d="M123.17,255.57c0,0 -2.93,-0.15 -5.85,-0.23c-3.08,-0.07 -6.08,-0.07 -6.08,-0.07c0,0 -0.22,0.67 -0.6,1.57c-0.15,0.45 -0.3,1.05 -0.52,1.58c-0.23,0.6 -0.38,1.27 -0.6,1.87c-0.38,1.35 -0.83,2.55 -1.05,3.6c-0.23,0.98 -0.38,1.65 -0.38,1.65c0,0 0.53,0.6 1.43,1.5c0.9,0.91 2.02,2.03 3.3,3.23c2.4,2.25 4.72,4.5 4.72,4.5c0,0 2.85,-0.37 5.63,-0.67c1.43,-0.08 2.78,-0.23 3.83,-0.3c1.05,-0.08 1.72,-0.15 1.72,-0.15c0,0 0.08,-0.6 0.3,-1.43c0.15,-0.9 0.53,-2.02 0.83,-3.15c0.15,-0.52 0.3,-1.12 0.45,-1.65c0.15,-0.53 0.22,-0.98 0.37,-1.43c0.3,-0.82 0.45,-1.35 0.45,-1.35c0,0 -2.02,-2.17 -3.97,-4.42c-2.03,-2.33 -3.98,-4.65 -3.98,-4.65Z" style="fill:rgb(235,30,39);fill-rule:nonzero;"/>        </g>        <g transform="matrix(1.34311,0,0,1.34411,-120.899,-90.5824)">            <path d="M113.79,295.17c0.38,0.45 0.75,0.83 0.98,1.13c0.15,0.22 0.3,0.37 0.3,0.37c0,0 0.22,0 0.52,0.08c0.38,0 0.83,0 1.43,0.07c1.12,0 2.55,0.15 4.05,0.23c2.93,0.15 5.78,0.45 5.78,0.45c0,0 0.22,-0.53 0.6,-1.28c0.45,-0.75 0.9,-1.8 1.5,-2.77c0.52,-0.98 1.12,-1.95 1.5,-2.63c0.22,-0.37 0.45,-0.67 0.52,-0.9c0.15,-0.15 0.23,-0.3 0.23,-0.3c0,0 -1.65,-2.33 -3.23,-4.73c-0.82,-1.2 -1.57,-2.4 -2.17,-3.3c-0.53,-0.9 -0.98,-1.5 -0.98,-1.5c0,0 -0.67,-0.15 -1.8,-0.37c-1.13,-0.23 -2.63,-0.53 -4.13,-0.75c-3.07,-0.6 -6.22,-1.05 -6.22,-1.05c0,0 -0.15,0.07 -0.3,0.3c-0.15,0.22 -0.38,0.6 -0.68,0.97c-0.52,0.75 -1.2,1.88 -1.87,2.93c-0.75,1.12 -1.35,2.25 -1.88,3.07c-0.45,0.9 -0.75,1.43 -0.75,1.43c0,0 1.95,2.63 3.9,5.1c0.98,1.28 1.95,2.48 2.7,3.45Z" style="fill:rgb(235,30,39);fill-rule:nonzero;"/>        </g>        <g transform="matrix(1.34311,0,0,1.34411,-120.899,-144.024)">            <path d="M117.77,298.77c-0.75,0.6 -1.65,1.43 -2.55,2.25c-0.98,0.83 -1.95,1.65 -2.55,2.4c-0.68,0.68 -1.13,1.13 -1.13,1.13c0,0 0.3,0.6 0.9,1.58c0.53,0.97 1.2,2.25 1.95,3.52c1.58,2.55 3.08,5.1 3.08,5.1c0,0 3.07,0.6 6.08,1.28c1.42,0.3 2.92,0.6 4.05,0.9c1.12,0.3 1.8,0.45 1.8,0.45c0,0 0.37,-0.45 0.9,-1.05c0.52,-0.68 1.35,-1.43 2.1,-2.18c0.75,-0.82 1.5,-1.57 2.1,-2.1c0.6,-0.6 1.05,-0.9 1.05,-0.9c0,0 -0.3,-0.6 -0.75,-1.5c-0.45,-0.9 -1.05,-2.02 -1.58,-3.22c-1.12,-2.33 -2.25,-4.66 -2.25,-4.66c0,0 -2.92,-1.05 -5.92,-2.02c-1.5,-0.53 -2.93,-0.98 -4.13,-1.35c-1.13,-0.38 -1.95,-0.6 -1.95,-0.6c0,0 -0.45,0.37 -1.2,0.97Z" style="fill:rgb(235,30,39);fill-rule:nonzero;"/>        </g>        <g transform="matrix(1.34311,0,0,1.34411,-120.899,-188.084)">            <path d="M127.45,315.43c-0.83,0.37 -1.88,0.9 -2.93,1.5c-0.97,0.52 -2.03,1.12 -2.85,1.5c-0.75,0.45 -1.28,0.82 -1.28,0.82c0,0 0.98,2.4 2.03,4.73c1.05,2.47 2.1,4.87 2.1,4.87c0,0 0.75,0.3 1.88,0.68c1.12,0.37 2.55,0.9 4.05,1.42c2.85,1.13 5.62,2.18 5.62,2.18c0,0 0.45,-0.3 1.05,-0.75c0.68,-0.38 1.58,-0.98 2.48,-1.5c0.82,-0.53 1.72,-1.05 2.47,-1.43c0.6,-0.45 1.05,-0.67 1.05,-0.67c0,0 -0.82,-2.18 -1.65,-4.35c-0.75,-2.25 -1.5,-4.43 -1.5,-4.43c0,0 -2.7,-1.27 -5.55,-2.55c-2.85,-1.35 -5.7,-2.62 -5.7,-2.62c0,0 -0.52,0.22 -1.27,0.6Z" style="fill:rgb(235,30,39);fill-rule:nonzero;"/>        </g>        <g transform="matrix(1.34311,0,0,1.34411,-120.899,-222.776)">            <path d="M140.35,328.56c-0.23,0.07 -0.6,0.15 -1.05,0.22c-0.83,0.23 -1.95,0.6 -3.08,0.9c-1.12,0.3 -2.25,0.68 -3.15,0.98c-0.82,0.22 -1.42,0.45 -1.42,0.45c0,0 0.67,2.25 1.35,4.42c0.3,1.13 0.67,2.25 0.9,3.08c0.3,0.82 0.45,1.35 0.45,1.35c0,0 0.67,0.38 1.72,0.9c1.05,0.45 2.48,1.13 3.83,1.8c2.7,1.35 5.32,2.63 5.32,2.63c0,0 0.45,-0.15 1.2,-0.45c0.75,-0.3 1.73,-0.68 2.7,-1.05c0.98,-0.3 1.95,-0.68 2.7,-0.9c0.38,-0.15 0.68,-0.23 0.9,-0.3c0.23,-0.08 0.38,-0.08 0.38,-0.08c0,0 -0.53,-2.02 -1.05,-4.05c-0.23,-1.05 -0.45,-2.03 -0.6,-2.78c-0.15,-0.75 -0.23,-1.2 -0.23,-1.2c0,0 -0.67,-0.37 -1.57,-0.97c-0.98,-0.53 -2.25,-1.28 -3.6,-2.03c-2.63,-1.5 -5.33,-3 -5.33,-3c0,0 -0.07,0 -0.37,0.08Z" style="fill:rgb(235,30,39);fill-rule:nonzero;"/>        </g>        <g transform="matrix(1.34311,0,0,1.34411,-120.899,-248.489)">            <path d="M159.63,342.29c-2.4,-1.65 -4.88,-3.3 -4.88,-3.3l-0.45,0c-0.22,0 -0.6,0 -1.05,0.07c-0.9,0.08 -2.03,0.15 -3.23,0.3c-1.2,0.08 -2.4,0.23 -3.3,0.3c-0.9,0.15 -1.5,0.23 -1.5,0.23c0,0 0.3,1.95 0.6,3.9c0.3,2.02 0.68,4.05 0.68,4.05c0,0 2.62,1.5 5.1,3c2.55,1.57 4.95,3.07 4.95,3.07c0,0 0.53,-0.07 1.35,-0.22c0.75,-0.15 1.8,-0.3 2.85,-0.53c1.05,-0.15 2.1,-0.3 2.85,-0.37c0.38,-0.08 0.75,-0.08 0.98,-0.15l0.37,0c0,0 -0.22,-1.8 -0.37,-3.6c-0.23,-1.73 -0.3,-3.53 -0.3,-3.53c0,0 -2.33,-1.57 -4.65,-3.22Z" style="fill:rgb(235,30,39);fill-rule:nonzero;"/>        </g>        <g transform="matrix(1.34311,0,0,1.34411,-120.899,-265.828)">            <path d="M177.78,359.61c0.3,0.08 0.37,0.08 0.37,0.08c0,0 0.08,-1.58 0.15,-3.08c0.08,-0.75 0.15,-1.5 0.23,-2.02c0,-0.6 0.07,-0.98 0.07,-0.98c0,0 -0.52,-0.37 -1.35,-1.05c-0.75,-0.6 -1.8,-1.5 -2.92,-2.4c-2.1,-1.72 -4.35,-3.45 -4.35,-3.45c0,0 -0.15,0 -0.38,-0.08c-0.3,0 -0.6,0 -1.12,-0.07c-0.83,-0.08 -2.03,-0.15 -3.23,-0.23c-1.2,-0.07 -2.4,-0.15 -3.3,-0.22l-1.5,0c0,0 -0.07,1.65 -0.07,3.3c0,1.73 0.07,3.53 0.07,3.53c0,0 2.4,1.65 4.65,3.3c2.33,1.65 4.5,3.3 4.5,3.3c0,0 0.6,0 1.35,-0.08c0.83,0 1.88,0.08 2.93,0.08c1.12,0 2.17,0.07 3,0.07l0.9,0Z" style="fill:rgb(235,30,39);fill-rule:nonzero;"/>        </g>        <g transform="matrix(1.34311,0,0,1.34411,-120.899,-274.309)">            <path d="M183.7,361.65c0,0 0.6,0.07 1.36,0.22c0.82,0.08 1.87,0.23 2.92,0.45c1.05,0.15 2.18,0.3 2.93,0.45c0.82,0.15 1.27,0.3 1.27,0.3c0,0 0.15,-0.37 0.23,-0.82c0.07,-0.45 0.22,-1.13 0.37,-1.73c0.15,-0.6 0.3,-1.27 0.38,-1.72c0.15,-0.45 0.22,-0.75 0.22,-0.75c0,0 -0.45,-0.45 -1.12,-1.05c-0.75,-0.68 -1.65,-1.58 -2.55,-2.4c-0.98,-0.91 -1.95,-1.81 -2.63,-2.48c-0.75,-0.68 -1.27,-1.13 -1.27,-1.13c0,0 -0.53,-0.07 -1.43,-0.3c-0.9,-0.22 -2.03,-0.45 -3.23,-0.67c-1.12,-0.3 -2.32,-0.53 -3.22,-0.68c-0.9,-0.15 -1.5,-0.3 -1.5,-0.3c0,0 -0.23,1.43 -0.45,2.85c-0.15,0.68 -0.23,1.43 -0.3,1.95c-0.08,0.53 -0.15,0.91 -0.15,0.91c0,0 0.52,0.45 1.35,1.05c0.75,0.67 1.8,1.57 2.85,2.4c2.02,1.72 3.97,3.45 3.97,3.45Z" style="fill:rgb(235,30,39);fill-rule:nonzero;"/>        </g>        <g transform="matrix(1.34311,0,0,1.34411,-120.899,-275.304)">            <path d="M205.01,355.94c-0.83,-0.9 -1.65,-1.73 -2.33,-2.41c-0.6,-0.67 -1.05,-1.12 -1.05,-1.12c0,0 -2.17,-0.75 -4.42,-1.5c-1.13,-0.38 -2.25,-0.75 -3.08,-1.05c-0.45,-0.08 -0.82,-0.23 -1.05,-0.3c-0.3,-0.08 -0.37,-0.15 -0.37,-0.15c0,0 -0.45,1.12 -0.9,2.25c-0.38,1.2 -0.75,2.32 -0.75,2.32c0,0 1.87,1.81 3.67,3.53c1.8,1.73 3.53,3.45 3.53,3.45c0,0 0.15,0.08 0.37,0.15c0.23,0.08 0.6,0.15 0.98,0.23c0.75,0.22 1.8,0.52 2.85,0.82c2.02,0.6 4.05,1.28 4.05,1.28c0,0 0.07,-0.3 0.22,-0.68c0.23,-0.37 0.38,-0.9 0.6,-1.35c0.23,-0.52 0.45,-1.05 0.6,-1.42c0.23,-0.3 0.3,-0.6 0.3,-0.6c0,0 -0.37,-0.38 -0.97,-1.05c-0.6,-0.68 -1.43,-1.5 -2.25,-2.4Z" style="fill:rgb(235,30,39);fill-rule:nonzero;"/>        </g>        <g transform="matrix(1.34311,0,0,1.34411,-120.899,-235.881)">            <path d="M116.64,351.51c0,0 0.53,-0.3 1.35,-0.75c0.83,-0.45 1.88,-0.97 2.93,-1.58c1.12,-0.52 2.17,-1.05 3,-1.42c0.83,-0.38 1.35,-0.68 1.35,-0.68c0,0 -0.82,-2.32 -1.5,-4.57c-0.75,-2.33 -1.43,-4.65 -1.43,-4.65c0,0 -3.07,-1.5 -6.22,-2.93c-3.23,-1.5 -6.45,-2.92 -6.45,-2.92c0,0 -0.6,0.22 -1.58,0.67c-0.9,0.3 -2.25,0.83 -3.45,1.35c-1.27,0.6 -2.47,1.13 -3.45,1.58c-0.9,0.45 -1.574,0.75 -1.574,0.75l3.974,10.27c0,0 0.83,0.3 2.1,0.75c1.28,0.45 3,0.98 4.58,1.65c3.22,1.21 6.37,2.48 6.37,2.48Z" style="fill:rgb(235,30,39);fill-rule:nonzero;"/>        </g>        <g transform="matrix(1.34311,0,0,1.34411,-120.899,-270.774)">            <path d="M115.89,356.09c0.23,0.9 0.38,1.43 0.38,1.43c0,0 0.82,0.37 1.95,0.97c1.2,0.53 2.77,1.28 4.27,2.03c3.01,1.5 5.93,3 5.93,3c0,0 2.4,-0.75 4.73,-1.43c1.2,-0.3 2.32,-0.6 3.22,-0.82c0.45,-0.15 0.75,-0.23 1.05,-0.3c0.3,-0.08 0.38,-0.08 0.38,-0.08c0,0 -0.38,-2.1 -0.75,-4.12c-0.23,-1.13 -0.38,-2.1 -0.53,-2.85c-0.07,-0.83 -0.15,-1.28 -0.15,-1.28c0,0 -0.75,-0.45 -1.8,-1.05c-1.05,-0.6 -2.47,-1.5 -3.9,-2.25c-2.92,-1.73 -5.92,-3.38 -5.92,-3.38c0,0 -0.15,0 -0.53,0.08c-0.3,0.07 -0.67,0.07 -1.2,0.22c-0.98,0.15 -2.33,0.45 -3.68,0.75c-2.7,0.53 -5.4,1.2 -5.4,1.2c0,0 0.53,2.33 1.13,4.66c0.3,1.2 0.6,2.32 0.82,3.22Z" style="fill:rgb(235,30,39);fill-rule:nonzero;"/>        </g>        <g transform="matrix(1.34311,0,0,1.34411,-120.899,-295.278)">            <path d="M131.42,364.72c0,0 2.85,1.72 5.63,3.37c2.77,1.66 5.47,3.38 5.47,3.38c0,0 0.68,-0.07 1.58,-0.22c0.9,-0.08 2.17,-0.23 3.37,-0.3c1.2,-0.15 2.4,-0.23 3.3,-0.3l1.13,0c0.3,-0.08 0.45,-0.08 0.45,-0.08c0,0 -0.15,-1.8 -0.15,-3.6c-0.08,-1.73 0,-3.53 0,-3.53c0,0 -2.63,-1.8 -5.25,-3.52c-2.55,-1.8 -5.33,-3.68 -5.33,-3.68l-0.45,0l-1.27,0c-0.98,0.08 -2.4,0.08 -3.75,0.08c-1.43,0.07 -2.78,0.15 -3.83,0.22c-1.05,0 -1.72,0.08 -1.72,0.08c0,0 0.15,2.02 0.3,4.05c0.22,2.02 0.52,4.05 0.52,4.05Z" style="fill:rgb(235,30,39);fill-rule:nonzero;"/>        </g>        <g transform="matrix(1.34311,0,0,1.34411,-120.899,-310.291)">            <path d="M158.2,376.04c0,0 0.68,0.07 1.58,0.07c0.9,0.08 2.17,0.15 3.45,0.23c1.2,0.07 2.4,0.22 3.3,0.3c0.9,0.07 1.57,0.15 1.57,0.15c0,0 0.15,-1.5 0.38,-3c0.07,-0.75 0.22,-1.5 0.3,-2.03c0.07,-0.52 0.15,-0.9 0.15,-0.9c0,0 -0.53,-0.45 -1.43,-1.12c-0.82,-0.68 -1.95,-1.65 -3.15,-2.55c-2.32,-1.88 -4.72,-3.83 -4.72,-3.83c0,0 -0.68,-0.07 -1.73,-0.22c-0.97,-0.15 -2.32,-0.3 -3.75,-0.53c-1.35,-0.15 -2.7,-0.3 -3.75,-0.37c-1.05,-0.08 -1.73,-0.15 -1.73,-0.15c0,0 -0.22,1.65 -0.3,3.3c-0.15,1.72 -0.22,3.45 -0.22,3.45c0,0 2.62,1.8 5.1,3.6c2.55,1.8 4.95,3.6 4.95,3.6Z" style="fill:rgb(235,30,39);fill-rule:nonzero;"/>        </g>        <g transform="matrix(1.34311,0,0,1.34411,-120.899,-315.439)">            <path d="M170.35,373.12c2.25,1.8 4.35,3.67 4.35,3.67c0,0 0.15,0 0.45,0.08c0.3,0.07 0.68,0.15 1.13,0.22c0.9,0.15 2.1,0.38 3.3,0.68c1.2,0.22 2.4,0.52 3.22,0.75c0.9,0.22 1.5,0.3 1.5,0.3c0,0 0.08,-0.3 0.23,-0.75c0.15,-0.45 0.38,-1.05 0.53,-1.65c0.22,-0.6 0.45,-1.2 0.6,-1.58c0.15,-0.45 0.3,-0.75 0.3,-0.75c0,0 -0.53,-0.45 -1.28,-1.2c-0.68,-0.67 -1.73,-1.57 -2.7,-2.55c-1.05,-0.9 -2.1,-1.87 -2.85,-2.62c-0.83,-0.68 -1.35,-1.13 -1.35,-1.13c0,0 -0.6,-0.22 -1.58,-0.45c-0.97,-0.3 -2.32,-0.67 -3.6,-0.97c-1.35,-0.38 -2.7,-0.68 -3.67,-0.9c-0.53,-0.15 -0.9,-0.23 -1.2,-0.3c-0.3,-0.08 -0.45,-0.08 -0.45,-0.08c0,0 -0.45,1.28 -0.75,2.7c-0.23,0.68 -0.38,1.35 -0.53,1.88c-0.07,0.52 -0.15,0.9 -0.15,0.9c0,0 0.53,0.45 1.43,1.12c0.82,0.75 1.95,1.65 3.07,2.63Z" style="fill:rgb(235,30,39);fill-rule:nonzero;"/>        </g>        <g transform="matrix(1.34311,0,0,1.34411,-120.899,-312.724)">            <path d="M191.36,374.62c0,0 0.15,0.08 0.37,0.15c0.3,0.08 0.68,0.15 1.05,0.3c0.9,0.3 2.03,0.68 3.23,1.05c2.25,0.75 4.5,1.65 4.5,1.65c0,0 0.07,-0.3 0.3,-0.67c0.22,-0.3 0.45,-0.83 0.75,-1.28c0.22,-0.45 0.52,-0.9 0.75,-1.27c0.15,-0.3 0.3,-0.53 0.3,-0.53c0,0 -0.38,-0.45 -1.05,-1.12c-0.68,-0.68 -1.5,-1.65 -2.4,-2.55c-0.9,-0.9 -1.8,-1.88 -2.48,-2.55c-0.67,-0.68 -1.12,-1.2 -1.12,-1.2c0,0 -2.4,-0.98 -4.88,-1.88c-1.27,-0.45 -2.47,-0.9 -3.45,-1.27c-0.45,-0.15 -0.82,-0.3 -1.12,-0.38c-0.3,-0.15 -0.45,-0.15 -0.45,-0.15c0,0 -0.53,1.05 -1.06,2.1c-0.52,1.05 -1.05,2.18 -1.05,2.18c0,0 2.03,1.87 3.98,3.75c1.95,1.87 3.83,3.67 3.83,3.67Z" style="fill:rgb(235,30,39);fill-rule:nonzero;"/>        </g>        <g transform="matrix(1.34311,0,0,1.34411,-120.899,-303.947)">            <path d="M215.74,367.94c-0.76,-0.9 -1.58,-1.8 -2.18,-2.47c-0.6,-0.68 -0.98,-1.13 -0.98,-1.13c0,0 -0.52,-0.3 -1.42,-0.75c-0.83,-0.37 -1.95,-0.97 -3.08,-1.5c-0.6,-0.3 -1.2,-0.6 -1.72,-0.82c-0.53,-0.3 -1.05,-0.53 -1.5,-0.75c-0.9,-0.38 -1.5,-0.68 -1.5,-0.68c0,0 -0.6,0.83 -1.2,1.58c-0.68,0.82 -1.28,1.72 -1.28,1.72c0,0 1.73,1.8 3.45,3.68c1.65,1.8 3.3,3.52 3.3,3.52c0,0 0.53,0.3 1.35,0.68c0.38,0.15 0.9,0.37 1.35,0.6c0.53,0.22 1.13,0.45 1.65,0.67c1.05,0.53 2.1,0.98 2.93,1.35c0.75,0.38 1.28,0.68 1.28,0.68c0,0 0.15,-0.23 0.37,-0.53c0.23,-0.22 0.53,-0.6 0.9,-0.97c0.3,-0.3 0.6,-0.68 0.83,-0.9c0.22,-0.3 0.45,-0.45 0.45,-0.45c0,0 -0.38,-0.45 -0.98,-1.13c-0.52,-0.6 -1.27,-1.5 -2.02,-2.4Z" style="fill:rgb(235,30,39);fill-rule:nonzero;"/>        </g>        <g transform="matrix(1.34311,0,0,1.34411,-120.899,-290.13)">            <path d="M231.56,363.51c-0.67,-0.82 -1.35,-1.72 -1.8,-2.4c-0.52,-0.6 -0.9,-1.05 -0.9,-1.05c0,0 -2.1,-1.35 -4.27,-2.62c-2.18,-1.28 -4.35,-2.48 -4.35,-2.48c0,0 -0.15,0.15 -0.45,0.3c-0.23,0.23 -0.6,0.53 -0.98,0.83c-0.67,0.6 -1.35,1.2 -1.35,1.2c0,0 1.5,1.8 2.93,3.52c0.75,0.9 1.5,1.8 2.02,2.48c0.53,0.6 0.9,1.05 0.9,1.05c0,0 2.03,1.12 4.05,2.25c2.03,1.13 4.05,2.33 4.05,2.33c0,0 0.15,-0.15 0.38,-0.38c0.3,-0.15 0.6,-0.45 0.97,-0.67c0.68,-0.45 1.43,-0.9 1.43,-0.9c0,0 -0.3,-0.45 -0.83,-1.05c-0.45,-0.68 -1.12,-1.58 -1.8,-2.41Z" style="fill:rgb(235,30,39);fill-rule:nonzero;"/>        </g>        <g transform="matrix(1.34311,0,0,1.34411,-120.899,-271.178)">            <path d="M249.87,360.29c-0.53,-0.67 -1.13,-1.57 -1.88,-2.55c-0.15,-0.22 -0.3,-0.45 -0.52,-0.67c-0.15,-0.23 -0.3,-0.45 -0.45,-0.68c-0.38,-0.37 -0.68,-0.82 -0.91,-1.12c-0.52,-0.68 -0.82,-1.13 -0.82,-1.13c0,0 -0.6,-0.45 -1.5,-1.05c-0.83,-0.6 -1.88,-1.42 -3,-2.18c-1.05,-0.75 -2.1,-1.5 -2.93,-2.02c-0.82,-0.53 -1.35,-0.9 -1.35,-0.9c0,0 -0.15,0.07 -0.45,0.15c-0.37,0.15 -0.75,0.3 -1.12,0.52c-0.38,0.15 -0.83,0.38 -1.05,0.53c-0.3,0.15 -0.53,0.22 -0.53,0.22c0,0 0.38,0.45 0.83,1.05c0.52,0.68 1.12,1.51 1.8,2.41c0.67,0.82 1.27,1.65 1.8,2.32c0.45,0.6 0.75,1.05 0.75,1.05c0,0 0.52,0.3 1.27,0.83c0.75,0.45 1.73,1.12 2.78,1.87c0.97,0.68 2.02,1.35 2.85,1.88c0.75,0.6 1.28,0.97 1.28,0.97c0,0 0.22,-0.07 0.6,-0.15c0.37,0 0.82,-0.07 1.35,-0.07c0.52,-0.08 1.05,-0.08 1.42,-0.15l0.6,0c0,0 -0.3,-0.45 -0.82,-1.13Z" style="fill:rgb(235,30,39);fill-rule:nonzero;"/>        </g>        <g transform="matrix(1.34311,0,0,1.34411,-120.899,-235.989)">            <path d="M370.11,337.41c-0.15,0.3 -0.37,0.6 -0.53,0.9c-0.22,0.38 -0.45,0.68 -0.6,0.98c-0.22,0.3 -0.37,0.6 -0.52,0.82c-0.3,0.53 -0.53,0.83 -0.53,0.83c0,0 0.15,0.37 0.45,0.9c0.3,0.6 0.75,1.35 1.13,2.1c0.38,0.82 0.75,1.57 1.05,2.17c0.3,0.6 0.45,1.05 0.45,1.05c0,0 0.45,0.08 1.13,0.15c0.6,0.08 1.5,0.15 2.32,0.3c0.9,0.08 1.8,0.15 2.4,0.23c0.68,0.07 1.13,0.07 1.13,0.07c0,0 0.22,-0.37 0.6,-0.9c0.15,-0.3 0.37,-0.6 0.6,-0.97c0.22,-0.38 0.45,-0.75 0.67,-1.13c0.23,-0.37 0.45,-0.75 0.68,-1.12c0.22,-0.38 0.37,-0.68 0.52,-0.98c0.38,-0.52 0.6,-0.9 0.6,-0.9c0,0 -0.22,-0.37 -0.6,-0.97c-0.37,-0.6 -0.82,-1.35 -1.35,-2.1c-0.45,-0.75 -0.9,-1.5 -1.27,-2.03c-0.38,-0.52 -0.6,-0.9 -0.6,-0.9l-1.05,0c-0.68,0 -1.5,-0.07 -2.33,-0.07c-0.9,0 -1.72,-0.08 -2.32,-0.08c-0.6,0 -1.05,-0.07 -1.05,-0.07c0,0 -0.15,0.37 -0.45,0.82c-0.15,0.3 -0.3,0.53 -0.53,0.9Z" style="fill:rgb(244,239,20);fill-rule:nonzero;"/>        </g>        <g transform="matrix(1.34311,0,0,1.34411,-120.899,-196.673)">            <path d="M369.28,320.16c-0.6,-0.07 -1.05,-0.15 -1.05,-0.15c0,0 -0.22,0.38 -0.6,0.83c-0.3,0.53 -0.82,1.2 -1.27,1.88c-0.45,0.67 -0.98,1.27 -1.35,1.8c-0.38,0.52 -0.6,0.82 -0.6,0.82c0,0 0.6,1.73 1.2,3.53c0.3,0.9 0.6,1.8 0.82,2.47c0.23,0.75 0.38,1.2 0.38,1.2c0,0 0.45,0.08 1.05,0.3c0.67,0.15 1.5,0.38 2.4,0.6c1.73,0.45 3.53,0.9 3.53,0.9c0,0 0.3,-0.37 0.67,-0.97c0.45,-0.53 0.98,-1.28 1.58,-2.1c0.52,-0.75 1.05,-1.5 1.5,-2.1c0.37,-0.6 0.67,-0.98 0.67,-0.98c0,0 -0.22,-0.45 -0.52,-1.12c-0.3,-0.75 -0.68,-1.65 -1.05,-2.55c-0.75,-1.73 -1.58,-3.45 -1.58,-3.45c0,0 -1.72,-0.23 -3.45,-0.45c-0.82,-0.15 -1.65,-0.3 -2.33,-0.46Z" style="fill:rgb(244,239,20);fill-rule:nonzero;"/>        </g>        <g transform="matrix(1.34311,0,0,1.34411,-120.899,-155.422)">            <path d="M367.11,304.85c-0.83,-0.3 -1.73,-0.52 -2.33,-0.75c-0.6,-0.22 -0.97,-0.37 -0.97,-0.37c0,0 -0.3,0.37 -0.68,0.82c-0.45,0.53 -0.97,1.2 -1.57,1.8c-0.53,0.68 -1.13,1.28 -1.5,1.8c-0.45,0.45 -0.75,0.75 -0.75,0.75c0,0 0.15,0.53 0.3,1.2c0.15,0.83 0.37,1.73 0.6,2.78c0.15,0.98 0.37,2.03 0.52,2.78c0.15,0.75 0.23,1.27 0.23,1.27c0,0 0.45,0.23 1.05,0.53c0.6,0.22 1.42,0.6 2.25,0.97c0.9,0.38 1.72,0.75 2.4,1.05c0.6,0.23 1.05,0.45 1.05,0.45c0,0 0.37,-0.37 0.82,-0.9c0.53,-0.6 1.13,-1.27 1.81,-2.02c0.6,-0.75 1.27,-1.5 1.72,-2.1c0.53,-0.6 0.83,-0.98 0.83,-0.98c0,0 -0.15,-0.52 -0.38,-1.28c-0.22,-0.82 -0.52,-1.8 -0.82,-2.85c-0.53,-2.02 -1.13,-3.97 -1.13,-3.97c0,0 -1.8,-0.45 -3.45,-0.98Z" style="fill:rgb(244,239,20);fill-rule:nonzero;"/>        </g>        <g transform="matrix(1.34311,0,0,1.34411,-120.899,-113.58)">            <path d="M360.96,289.03c-0.83,-0.38 -1.65,-0.83 -2.25,-1.13c-0.6,-0.3 -0.98,-0.52 -0.98,-0.52c0,0 -0.3,0.3 -0.75,0.75c-0.45,0.52 -1.12,1.12 -1.72,1.65c-0.3,0.37 -0.6,0.6 -0.9,0.9c-0.3,0.3 -0.6,0.52 -0.83,0.75c-0.45,0.45 -0.75,0.75 -0.75,0.75c0,0 0.23,2.1 0.38,4.27c0.22,2.18 0.37,4.43 0.37,4.43c0,0 1.5,1.12 3.08,2.17c1.65,1.05 3.3,2.1 3.3,2.1c0,0 0.37,-0.3 0.9,-0.82c0.3,-0.3 0.6,-0.6 0.97,-0.9c0.3,-0.3 0.68,-0.68 1.05,-0.98c0.68,-0.67 1.43,-1.35 1.95,-1.95c0.53,-0.52 0.9,-0.82 0.9,-0.82c0,0 -0.07,-0.6 -0.22,-1.5c-0.08,-0.83 -0.3,-1.95 -0.45,-3.08c-0.38,-2.25 -0.75,-4.42 -0.75,-4.42c0,0 -1.73,-0.83 -3.3,-1.65Z" style="fill:rgb(244,239,20);fill-rule:nonzero;"/>        </g>        <g transform="matrix(1.34311,0,0,1.34411,-120.899,-72.6519)">            <path d="M355.26,275.38c-0.6,-0.45 -1.35,-0.98 -2.18,-1.58c-0.75,-0.52 -1.42,-1.12 -2.02,-1.57c-0.53,-0.38 -0.9,-0.68 -0.9,-0.68c0,0 -0.38,0.3 -0.83,0.68c-0.52,0.37 -1.2,0.97 -1.87,1.42c-0.68,0.53 -1.35,1.05 -1.88,1.43c-0.52,0.37 -0.82,0.6 -0.82,0.6l0,1.43c-0.08,0.82 -0.08,2.02 -0.08,3.15c-0.07,2.32 -0.22,4.72 -0.22,4.72c0,0 1.42,1.35 2.85,2.78c0.75,0.67 1.42,1.35 2.02,1.87c0.53,0.53 0.9,0.9 0.9,0.9c0,0 0.45,-0.3 1.05,-0.67c0.6,-0.45 1.35,-1.05 2.18,-1.65c0.82,-0.6 1.57,-1.2 2.17,-1.65c0.6,-0.45 0.98,-0.75 0.98,-0.75l0,-1.58c-0.08,-0.97 -0.08,-2.17 -0.15,-3.37c0,-1.2 -0.08,-2.4 -0.15,-3.3c-0.08,-0.9 -0.08,-1.5 -0.08,-1.5c0,0 -0.37,-0.23 -0.97,-0.68Z" style="fill:rgb(244,239,20);fill-rule:nonzero;"/>        </g>        <g transform="matrix(1.34311,0,0,1.34411,-120.899,-34.4253)">            <path d="M346.41,264.42c0.07,-0.9 0.07,-1.58 0.07,-1.58c0,0 -0.37,-0.3 -0.9,-0.9c-0.52,-0.52 -1.2,-1.27 -1.87,-2.02c-1.35,-1.43 -2.7,-2.93 -2.7,-2.93c0,0 -0.3,0.23 -0.83,0.6c-0.6,0.3 -1.35,0.75 -2.03,1.13c-0.75,0.37 -1.42,0.82 -1.95,1.12c-0.6,0.3 -0.97,0.45 -0.97,0.45c0,0 -0.23,2.33 -0.6,4.73c-0.15,1.12 -0.38,2.4 -0.53,3.22c-0.07,0.9 -0.22,1.58 -0.22,1.58c0,0 0.3,0.37 0.75,1.05c0.45,0.68 1.05,1.5 1.65,2.4c1.27,1.65 2.55,3.38 2.55,3.38c0,0 0.45,-0.15 1.13,-0.45c0.6,-0.38 1.5,-0.83 2.32,-1.28c0.83,-0.45 1.73,-0.9 2.33,-1.27c0.67,-0.38 1.12,-0.68 1.12,-0.68c0,0 0.23,-2.55 0.45,-5.1c0.08,-1.28 0.15,-2.55 0.23,-3.45Z" style="fill:rgb(244,239,20);fill-rule:nonzero;"/>        </g>        <g transform="matrix(1.34311,0,0,1.34411,-120.899,-0.553576)">            <path d="M334.1,256.62c0.53,-2.55 0.98,-5.1 0.98,-5.1c0,0 -1.28,-1.8 -2.4,-3.52c-0.53,-0.9 -1.13,-1.8 -1.5,-2.48c-0.45,-0.68 -0.68,-1.13 -0.68,-1.13c0,0 -1.57,0.68 -3.07,1.21c-0.38,0.07 -0.75,0.22 -1.13,0.37c-0.3,0.08 -0.67,0.23 -0.97,0.3c-0.53,0.15 -0.9,0.3 -0.9,0.3c0,0 -0.6,2.33 -1.2,4.65c-0.6,2.4 -1.35,4.8 -1.35,4.8c0,0 0.97,1.95 1.95,3.98c0.97,2.1 2.02,4.05 2.02,4.05c0,0 0.45,-0.08 1.13,-0.3c0.37,-0.08 0.75,-0.23 1.2,-0.3c0.37,-0.15 0.82,-0.3 1.27,-0.38c1.8,-0.6 3.6,-1.27 3.6,-1.27c0,0 0.15,-0.68 0.3,-1.65c0.23,-0.98 0.53,-2.25 0.75,-3.53Z" style="fill:rgb(244,239,20);fill-rule:nonzero;"/>        </g>        <g transform="matrix(1.34311,0,0,1.34411,-120.899,26.8798)">            <path d="M320.6,247.76c0.45,-1.2 0.83,-2.4 1.13,-3.37c0.15,-0.45 0.22,-0.83 0.3,-1.05c0.07,-0.3 0.15,-0.45 0.15,-0.45c0,0 -0.08,-0.15 -0.15,-0.38c-0.15,-0.22 -0.3,-0.52 -0.45,-0.9c-0.38,-0.82 -0.83,-1.87 -1.28,-2.85c-0.45,-1.05 -0.9,-2.1 -1.2,-2.85c-0.3,-0.75 -0.52,-1.27 -0.52,-1.27c0,0 -0.38,0.07 -0.98,0.22c-0.6,0 -1.35,0.23 -2.1,0.3c-0.82,0.08 -1.57,0.15 -2.1,0.23c-0.3,0 -0.52,0 -0.67,0.07l-0.3,0c0,0 -0.83,2.18 -1.73,4.43c-0.45,1.12 -0.9,2.25 -1.27,3.07c-0.38,0.83 -0.6,1.35 -0.6,1.35c0,0 0.15,0.6 0.45,1.43c0.22,0.82 0.52,1.95 0.9,3.07c0.75,2.26 1.5,4.58 1.5,4.58l0.3,0c0.22,0 0.52,0 0.82,-0.07c0.68,0 1.58,-0.08 2.48,-0.15c0.9,0 1.8,-0.15 2.55,-0.23c0.67,-0.07 1.12,-0.15 1.12,-0.15c0,0 0.23,-0.6 0.53,-1.57c0.3,-0.9 0.75,-2.18 1.12,-3.46Z" style="fill:rgb(244,239,20);fill-rule:nonzero;"/>        </g>        <g transform="matrix(1.34311,0,0,1.34411,-120.899,46.5308)">            <path d="M303.95,246.12c0,0 0.22,-0.52 0.67,-1.35c0.38,-0.9 0.98,-1.95 1.5,-3.07c1.05,-2.33 2.11,-4.58 2.11,-4.58c0,0 -0.68,-2.32 -1.36,-4.58c-0.3,-1.12 -0.6,-2.32 -0.82,-3.15c-0.23,-0.82 -0.3,-1.42 -0.3,-1.42l-0.98,0c-0.6,0 -1.35,-0.15 -2.1,-0.23c-0.75,-0.07 -1.5,-0.15 -2.1,-0.3c-0.52,-0.07 -0.9,-0.15 -0.9,-0.15c0,0 -0.3,0.53 -0.67,1.28c-0.38,0.75 -0.98,1.8 -1.5,2.77c-1.13,1.95 -2.33,3.91 -2.33,3.91c0,0 0.38,2.4 0.83,4.8c0.22,1.27 0.45,2.47 0.6,3.37c0.22,0.9 0.3,1.58 0.3,1.58c0,0 0.45,0.07 1.12,0.22c0.6,0.15 1.5,0.3 2.33,0.45c0.9,0.15 1.8,0.3 2.47,0.38c0.68,0.07 1.13,0.07 1.13,0.07Z" style="fill:rgb(244,239,20);fill-rule:nonzero;"/>        </g>        <g transform="matrix(1.34311,0,0,1.34411,-120.899,-69.3185)">            <path d="M364.63,272.52c-0.37,0.38 -0.75,0.68 -1.05,1.06c-0.37,0.3 -0.75,0.6 -0.97,0.9c-0.6,0.52 -0.98,0.82 -0.98,0.82c0,0 0.23,2.48 0.38,4.95c0.15,2.48 0.22,5.03 0.22,5.03c0,0 1.8,1.2 3.68,2.4c1.87,1.2 3.75,2.32 3.75,2.32c0,0 0.45,-0.45 1.13,-0.97c0.3,-0.3 0.67,-0.68 1.12,-1.05c0.38,-0.38 0.83,-0.75 1.28,-1.2c0.82,-0.83 1.72,-1.65 2.4,-2.25c0.6,-0.6 1.05,-1.05 1.05,-1.05c0,0 -0.08,-0.68 -0.23,-1.65c-0.15,-0.98 -0.3,-2.33 -0.45,-3.6c-0.37,-2.55 -0.82,-5.1 -0.82,-5.1c0,0 -1.95,-0.83 -3.83,-1.73c-0.9,-0.45 -1.88,-0.9 -2.55,-1.2c-0.68,-0.38 -1.13,-0.6 -1.13,-0.6c0,0 -0.37,0.37 -0.9,0.97c-0.6,0.53 -1.35,1.28 -2.1,1.95Z" style="fill:rgb(244,239,20);fill-rule:nonzero;"/>        </g>        <g transform="matrix(1.34311,0,0,1.34411,-120.899,-21.7234)">            <path d="M364.18,255.49c-0.67,-0.45 -1.57,-1.12 -2.47,-1.72c-0.9,-0.6 -1.8,-1.2 -2.4,-1.73c-0.68,-0.45 -1.05,-0.75 -1.05,-0.75c0,0 -0.45,0.3 -1.05,0.83c-0.6,0.45 -1.43,1.12 -2.25,1.65c-0.83,0.67 -1.65,1.27 -2.33,1.72c-0.6,0.38 -1.05,0.68 -1.05,0.68c0,0 -0.07,2.62 -0.22,5.18c-0.08,2.7 -0.3,5.4 -0.3,5.4c0,0 1.57,1.5 3.3,3.07c1.72,1.58 3.45,3.08 3.45,3.08c0,0 0.52,-0.3 1.27,-0.75c0.68,-0.53 1.65,-1.2 2.63,-1.95c0.97,-0.6 1.95,-1.35 2.62,-1.95c0.75,-0.53 1.2,-0.83 1.2,-0.83l0,-1.8c0,-1.05 0,-2.47 -0.07,-3.9c0,-1.35 -0.08,-2.7 -0.08,-3.75c-0.07,-1.05 -0.07,-1.65 -0.07,-1.65c0,0 -0.45,-0.38 -1.13,-0.83Z" style="fill:rgb(244,239,20);fill-rule:nonzero;"/>        </g>        <g transform="matrix(1.34311,0,0,1.34411,-120.899,22.4442)">            <path d="M353.31,241.01c0,0 -0.45,-0.37 -1.05,-0.97c-0.6,-0.6 -1.43,-1.43 -2.25,-2.25c-1.65,-1.65 -3.15,-3.23 -3.15,-3.23c0,0 -0.45,0.23 -1.13,0.6c-0.67,0.38 -1.5,0.9 -2.4,1.35c-0.9,0.45 -1.8,0.9 -2.47,1.28c-0.68,0.37 -1.13,0.52 -1.13,0.52c0,0 -0.37,2.63 -0.82,5.25c-0.46,2.78 -1.06,5.4 -1.06,5.4c0,0 1.43,2.03 2.93,3.91c1.43,1.95 3,3.9 3,3.9c0,0 0.53,-0.23 1.35,-0.6c0.75,-0.38 1.8,-0.9 2.85,-1.43c1.05,-0.52 2.1,-1.05 2.85,-1.5c0.83,-0.37 1.28,-0.67 1.28,-0.67c0,0 0.37,-2.93 0.67,-5.86c0.15,-1.42 0.3,-2.85 0.38,-3.9c0.07,-1.05 0.15,-1.8 0.15,-1.8Z" style="fill:rgb(244,239,20);fill-rule:nonzero;"/>        </g>        <g transform="matrix(1.34311,0,0,1.34411,-120.899,60.2407)">            <path d="M336.35,224.67c-0.67,-0.98 -1.35,-2.03 -1.8,-2.7c-0.52,-0.75 -0.82,-1.28 -0.82,-1.28c0,0 -0.53,0.15 -1.2,0.38c-0.68,0.3 -1.65,0.6 -2.55,0.9c-0.45,0.15 -0.9,0.3 -1.35,0.45c-0.45,0.07 -0.83,0.22 -1.2,0.3c-0.68,0.15 -1.13,0.3 -1.13,0.3c0,0 -0.75,2.63 -1.57,5.18c-0.75,2.62 -1.58,5.17 -1.58,5.17c0,0 1.05,2.25 2.25,4.58c1.2,2.32 2.48,4.57 2.48,4.57c0,0 0.6,-0.07 1.42,-0.3c0.38,-0.07 0.83,-0.22 1.35,-0.3c0.53,-0.15 1.05,-0.3 1.58,-0.45c1.12,-0.3 2.17,-0.6 3,-0.9c0.82,-0.22 1.42,-0.45 1.42,-0.45c0,0 0.15,-0.67 0.38,-1.8c0.3,-1.05 0.6,-2.47 0.97,-3.97c0.61,-2.85 1.21,-5.7 1.21,-5.7c0,0 -1.43,-1.95 -2.86,-3.98Z" style="fill:rgb(244,239,20);fill-rule:nonzero;"/>        </g>        <g transform="matrix(1.34311,0,0,1.34411,-120.899,89.3946)">            <path d="M322.85,221.51c0.15,-0.45 0.3,-0.9 0.38,-1.2c0.15,-0.3 0.15,-0.45 0.15,-0.45c0,0 0,-0.15 -0.15,-0.45c-0.15,-0.23 -0.3,-0.6 -0.53,-1.05c-0.45,-0.83 -0.97,-2.03 -1.57,-3.23c-1.05,-2.25 -2.1,-4.57 -2.1,-4.57c0,0 -0.45,0.07 -1.13,0.15c-0.75,0.07 -1.65,0.22 -2.62,0.3c-0.9,0 -1.88,0.07 -2.55,0.15l-0.83,0l-0.3,0c0,0 -1.05,2.4 -2.1,4.8c-0.52,1.2 -1.12,2.4 -1.5,3.22c-0.45,0.9 -0.75,1.5 -0.75,1.5c0,0 0.22,0.68 0.52,1.58c0.31,0.97 0.76,2.25 1.21,3.52c0.82,2.56 1.8,5.18 1.8,5.18l4.27,0c1.13,0 2.18,-0.15 3,-0.15c0.83,-0.07 1.43,-0.07 1.43,-0.07c0,0 1.05,-2.78 2.02,-5.48c0.53,-1.35 0.98,-2.7 1.35,-3.75Z" style="fill:rgb(244,239,20);fill-rule:nonzero;"/>        </g>        <g transform="matrix(1.34311,0,0,1.34411,-120.899,108.548)">            <path d="M304.1,219.41c1.27,-2.4 2.47,-4.87 2.47,-4.87c0,0 -0.82,-2.56 -1.57,-5.11c-0.38,-1.27 -0.75,-2.62 -1.05,-3.52c-0.23,-0.98 -0.45,-1.58 -0.45,-1.58c0,0 -0.45,-0.07 -1.13,-0.15c-0.67,-0.07 -1.65,-0.22 -2.47,-0.37c-0.98,-0.23 -1.88,-0.38 -2.48,-0.53c-0.67,-0.15 -1.12,-0.22 -1.12,-0.22c0,0 -0.3,0.45 -0.75,1.27c-0.53,0.83 -1.13,1.88 -1.8,2.85c-1.28,2.1 -2.55,4.13 -2.55,4.13c0,0 0.45,2.7 0.97,5.4c0.3,1.43 0.53,2.78 0.75,3.75c0.23,1.05 0.38,1.8 0.38,1.8c0,0 0.52,0.15 1.27,0.38c0.75,0.22 1.8,0.45 2.78,0.67c1.05,0.3 2.1,0.53 2.85,0.68c0.82,0.15 1.35,0.22 1.35,0.22c0,0 0.3,-0.6 0.82,-1.42c0.45,-0.98 1.13,-2.1 1.73,-3.38Z" style="fill:rgb(244,239,20);fill-rule:nonzero;"/>        </g>        <g transform="matrix(1.34311,0,0,1.34411,-120.899,115.699)">            <path d="M284.52,201.56c-0.82,-0.3 -1.57,-0.67 -2.17,-1.05c-0.6,-0.22 -1.05,-0.45 -1.05,-0.45c0,0 -0.3,0.45 -0.83,1.13c-0.52,0.67 -1.2,1.57 -1.87,2.47c-1.35,1.73 -2.78,3.46 -2.78,3.46c0,0 0.22,2.7 0.45,5.47c0.07,1.35 0.22,2.78 0.3,3.83c0.15,1.05 0.22,1.72 0.22,1.72c0,0 0.46,0.23 1.06,0.6c0.67,0.38 1.57,0.9 2.47,1.35c0.9,0.45 1.8,0.98 2.48,1.28c0.75,0.3 1.2,0.52 1.2,0.52c0,0 1.42,-2.02 2.85,-3.97c0.67,-1.05 1.35,-2.1 1.87,-2.85c0.6,-0.75 0.9,-1.28 0.9,-1.28c0,0 -0.07,-0.75 -0.3,-1.72c-0.15,-1.05 -0.45,-2.4 -0.6,-3.75c-0.45,-2.71 -0.82,-5.33 -0.82,-5.33c0,0 -0.45,-0.15 -1.05,-0.38c-0.6,-0.3 -1.43,-0.67 -2.33,-1.05Z" style="fill:rgb(244,239,20);fill-rule:nonzero;"/>        </g>        <g transform="matrix(1.34311,0,0,1.34411,-120.899,113.79)">            <path d="M262.54,205.61c-0.52,0.52 -0.9,0.9 -0.9,0.9l0,1.65c-0.07,1.05 -0.07,2.4 -0.07,3.75l0,5.48c0,0 0.15,0.07 0.3,0.22c0.15,0.15 0.37,0.38 0.67,0.6c0.6,0.53 1.35,1.13 2.1,1.8c0.83,0.68 1.65,1.28 2.25,1.73c0.6,0.52 0.98,0.82 0.98,0.82c0,0 1.5,-1.65 3,-3.37c0.67,-0.83 1.42,-1.65 1.95,-2.33c0.3,-0.3 0.52,-0.6 0.67,-0.75c0.15,-0.22 0.23,-0.3 0.23,-0.3c0,0 0,-0.67 -0.08,-1.72c-0.07,-1.05 -0.15,-2.4 -0.3,-3.75c-0.15,-2.71 -0.3,-5.33 -0.3,-5.33c0,0 -0.37,-0.3 -0.9,-0.68c-0.6,-0.37 -1.35,-0.9 -2.02,-1.42c-0.75,-0.53 -1.43,-1.05 -2.03,-1.43c-0.22,-0.22 -0.45,-0.37 -0.6,-0.52c-0.15,-0.08 -0.22,-0.15 -0.22,-0.15c0,0 -1.43,1.42 -2.78,2.85c-0.75,0.75 -1.42,1.42 -1.95,1.95Z" style="fill:rgb(244,239,20);fill-rule:nonzero;"/>        </g>        <g transform="matrix(1.34311,0,0,1.34411,-120.899,103.199)">            <path d="M256.92,207.71c-0.68,-0.67 -1.2,-1.35 -1.65,-1.87c-0.23,-0.23 -0.45,-0.45 -0.6,-0.6c-0.08,-0.15 -0.15,-0.23 -0.15,-0.23c0,0 -1.35,1.13 -2.78,2.25c-1.35,1.13 -2.77,2.1 -2.77,2.1c0,0 -0.23,2.63 -0.45,5.25c-0.23,2.63 -0.45,5.33 -0.45,5.33c0,0 0.07,0.08 0.22,0.3c0.15,0.15 0.3,0.38 0.53,0.68c0.52,0.6 1.12,1.42 1.8,2.25c0.67,0.75 1.27,1.57 1.8,2.1c0.52,0.6 0.9,0.97 0.9,0.97c0,0 1.42,-1.27 2.92,-2.55c1.43,-1.35 2.93,-2.7 2.93,-2.7c0,0 0,-2.7 0.07,-5.4c0.08,-2.7 0.23,-5.25 0.23,-5.25c0,0 -0.38,-0.38 -0.83,-0.83c-0.52,-0.52 -1.12,-1.12 -1.72,-1.8Z" style="fill:rgb(244,239,20);fill-rule:nonzero;"/>        </g>        <g transform="matrix(1.34311,0,0,1.34411,-120.899,128.401)">            <path d="M324.5,207.94c0,0 1.28,2.63 2.7,5.18c1.5,2.7 3,5.32 3,5.32c0,0 0.6,-0.15 1.58,-0.3c0.52,-0.15 1.05,-0.22 1.72,-0.3c0.6,-0.15 1.2,-0.3 1.88,-0.45c1.35,-0.3 2.62,-0.6 3.6,-0.9c0.98,-0.22 1.65,-0.45 1.65,-0.45c0,0 0.23,-0.82 0.6,-2.02c0.3,-1.2 0.75,-2.78 1.13,-4.43c0.82,-3.22 1.5,-6.37 1.5,-6.37c0,0 -1.73,-2.33 -3.38,-4.58c-0.75,-1.12 -1.57,-2.33 -2.18,-3.15c-0.52,-0.83 -0.97,-1.43 -0.97,-1.43c0,0 -0.53,0.23 -1.35,0.45c-0.9,0.3 -2.03,0.6 -3.15,0.9c-0.53,0.15 -1.13,0.3 -1.65,0.45c-0.53,0.15 -1.05,0.23 -1.43,0.38c-0.82,0.15 -1.42,0.3 -1.42,0.3c0,0 -0.9,2.85 -1.88,5.7c-0.9,2.85 -1.95,5.7 -1.95,5.7Z" style="fill:rgb(244,239,20);fill-rule:nonzero;"/>        </g>        <g transform="matrix(1.34311,0,0,1.34411,-120.899,159.369)">            <path d="M324.13,195.85c0.22,-0.52 0.37,-0.97 0.52,-1.27c0.08,-0.38 0.15,-0.6 0.15,-0.6c0,0 -0.07,-0.15 -0.22,-0.45c-0.15,-0.23 -0.38,-0.68 -0.6,-1.2c-0.53,-0.98 -1.2,-2.33 -1.88,-3.68c-1.27,-2.62 -2.47,-5.17 -2.47,-5.17c0,0 -0.6,0 -1.43,0.07c-0.9,0 -2.02,0.08 -3.15,0.15c-1.12,0 -2.17,-0.07 -3.07,-0.07l-0.98,0l-0.37,0c0,0 -1.2,2.55 -2.48,5.1c-0.6,1.27 -1.28,2.62 -1.8,3.52c-0.45,0.98 -0.75,1.58 -0.75,1.58c0,0 0.22,0.75 0.6,1.8c0.3,1.12 0.82,2.55 1.35,3.98c1.05,2.92 2.18,5.92 2.18,5.92c0,0 0.15,0 0.45,0.08c0.3,0 0.67,0.07 1.12,0.07c0.98,0.08 2.25,0.15 3.53,0.23c1.35,0.07 2.62,0 3.6,0l1.65,0c0,0 1.27,-3 2.47,-6c0.53,-1.43 1.13,-2.93 1.58,-4.06Z" style="fill:rgb(244,239,20);fill-rule:nonzero;"/>        </g>        <g transform="matrix(1.34311,0,0,1.34411,-120.899,176.305)">            <path d="M290.82,197.96c0.9,0.3 2.1,0.67 3.23,1.12c1.2,0.38 2.4,0.75 3.37,0.98c0.9,0.3 1.5,0.45 1.5,0.45c0,0 0.38,-0.68 0.98,-1.58c0.52,-0.97 1.27,-2.25 2.02,-3.52c1.5,-2.63 2.85,-5.18 2.85,-5.18c0,0 -0.97,-3 -1.87,-5.93c-0.53,-1.42 -0.98,-2.85 -1.28,-3.97c-0.3,-1.05 -0.52,-1.8 -0.52,-1.8c0,0 -0.53,-0.08 -1.35,-0.23c-0.83,-0.15 -1.88,-0.45 -2.93,-0.75c-1.05,-0.22 -2.1,-0.45 -2.92,-0.75c-0.75,-0.22 -1.28,-0.45 -1.28,-0.45c0,0 -0.3,0.6 -0.82,1.43c-0.6,0.82 -1.28,1.87 -2.03,3c-1.42,2.1 -2.92,4.27 -2.92,4.27c0,0 0.52,3.01 1.2,6.08c0.3,1.58 0.6,3.08 0.9,4.28c0.3,1.2 0.45,1.95 0.45,1.95c0,0 0.6,0.22 1.42,0.6Z" style="fill:rgb(244,239,20);fill-rule:nonzero;"/>        </g>        <g transform="matrix(1.34311,0,0,1.34411,-120.899,179.329)">            <path d="M272.07,195.41c0.75,0.45 1.72,1.12 2.7,1.72c0.97,0.6 2.02,1.28 2.78,1.73c0.75,0.45 1.27,0.67 1.27,0.67c0,0 1.58,-2.02 3.15,-4.12c1.58,-2.1 3.15,-4.2 3.15,-4.2c0,0 -0.15,-0.83 -0.37,-1.95c-0.23,-1.2 -0.53,-2.7 -0.75,-4.2c-0.45,-3.01 -0.9,-6.01 -0.9,-6.01c0,0 -0.53,-0.22 -1.2,-0.6c-0.68,-0.37 -1.65,-0.82 -2.55,-1.35c-0.9,-0.45 -1.8,-0.97 -2.48,-1.35c-0.68,-0.37 -1.13,-0.67 -1.13,-0.67c0,0 -1.5,1.87 -3,3.67c-1.5,1.73 -3,3.53 -3,3.53c0,0 0.23,3 0.53,6.08c0.3,3.07 0.6,6.22 0.6,6.22c0,0 0.45,0.3 1.2,0.83Z" style="fill:rgb(244,239,20);fill-rule:nonzero;"/>        </g>        <g transform="matrix(1.34311,0,0,1.34411,-120.899,172.179)">            <path d="M254.59,195.85c0.15,0.23 0.45,0.45 0.75,0.75c0.6,0.6 1.43,1.43 2.33,2.25c0.82,0.83 1.72,1.65 2.4,2.25c0.6,0.6 1.05,0.98 1.05,0.98c0,0 1.65,-1.65 3.22,-3.3c0.83,-0.9 1.58,-1.73 2.18,-2.33c0.6,-0.67 0.97,-1.12 0.97,-1.12c0,0 -0.07,-0.75 -0.15,-1.95c-0.07,-1.13 -0.15,-2.63 -0.3,-4.2c-0.15,-3.01 -0.37,-5.93 -0.37,-5.93c0,0 -0.38,-0.3 -0.98,-0.83c-0.67,-0.45 -1.42,-1.12 -2.25,-1.8c-0.82,-0.67 -1.57,-1.35 -2.17,-1.87c-0.3,-0.23 -0.53,-0.45 -0.68,-0.6c-0.22,-0.15 -0.3,-0.3 -0.3,-0.3c0,0 -1.42,1.5 -3,2.92c-0.75,0.68 -1.5,1.35 -2.02,1.88c-0.6,0.52 -0.98,0.82 -0.98,0.82l0,12.08c0,0 0.15,0.08 0.3,0.3Z" style="fill:rgb(244,239,20);fill-rule:nonzero;"/>        </g>        <g transform="matrix(1.34311,0,0,1.34411,-120.899,155.74)">            <path d="M240.26,194.13c-0.22,2.92 -0.45,5.85 -0.45,5.85c0,0 0.15,0.15 0.23,0.37c0.15,0.23 0.37,0.53 0.6,0.91c0.52,0.67 1.2,1.65 1.87,2.62c0.75,0.98 1.43,1.95 1.95,2.7c0.6,0.68 0.98,1.2 0.98,1.2c0,0 1.58,-1.27 3.08,-2.47c1.57,-1.28 3.15,-2.63 3.15,-2.63c0,0 0,-3 0.07,-5.93c0.08,-3 0.15,-5.85 0.15,-5.85c0,0 -0.37,-0.37 -0.9,-0.97c-0.45,-0.6 -1.12,-1.43 -1.8,-2.25c-0.67,-0.83 -1.35,-1.65 -1.8,-2.33c-0.22,-0.3 -0.45,-0.52 -0.6,-0.67c-0.15,-0.23 -0.22,-0.3 -0.22,-0.3c0,0 -1.43,1.05 -2.86,2.02c-1.5,1.05 -2.92,2.03 -2.92,2.03c0,0 -0.3,2.85 -0.53,5.7Z" style="fill:rgb(244,239,20);fill-rule:nonzero;"/>        </g>        <g transform="matrix(1.34311,0,0,1.34411,-120.899,131.022)">            <path d="M235.09,194.51c-0.15,-0.22 -0.23,-0.3 -0.23,-0.3c0,0 -1.35,0.68 -2.7,1.36c-0.67,0.37 -1.35,0.67 -1.87,0.9c-0.45,0.22 -0.83,0.37 -0.83,0.37c0,0 -0.07,0.68 -0.22,1.65c-0.23,1.05 -0.45,2.4 -0.68,3.75c-0.37,2.7 -0.82,5.48 -0.82,5.48c0,0 0.07,0.15 0.22,0.37c0.08,0.23 0.23,0.6 0.45,0.98c0.38,0.82 0.83,1.95 1.35,3c0.6,1.05 1.13,2.1 1.5,2.92c0.45,0.83 0.75,1.35 0.75,1.35c0,0 1.5,-0.82 2.93,-1.65c1.5,-0.9 2.92,-1.8 2.92,-1.8c0,0 0.3,-2.85 0.6,-5.7c0.3,-2.77 0.6,-5.55 0.6,-5.55c0,0 -0.3,-0.45 -0.75,-1.12c-0.37,-0.75 -0.9,-1.65 -1.42,-2.55c-0.53,-0.98 -1.05,-1.95 -1.43,-2.63c-0.15,-0.3 -0.3,-0.6 -0.37,-0.83Z" style="fill:rgb(244,239,20);fill-rule:nonzero;"/>        </g>        <g transform="matrix(1.34311,0,0,1.34411,-120.899,100.188)">            <path d="M228.34,214.45c0,0 -0.15,-0.45 -0.45,-1.27c-0.3,-0.75 -0.75,-1.73 -1.13,-2.7c-0.37,-1.05 -0.75,-2.03 -0.97,-2.78c-0.3,-0.75 -0.45,-1.27 -0.45,-1.27c0,0 -0.3,0.07 -0.75,0.22c-0.45,0.23 -1.13,0.38 -1.73,0.53c-0.6,0.22 -1.2,0.37 -1.65,0.52c-0.45,0.08 -0.75,0.23 -0.75,0.23c0,0 -0.15,0.6 -0.37,1.5c-0.23,0.9 -0.53,2.17 -0.83,3.45c-0.3,1.2 -0.6,2.47 -0.82,3.45c-0.15,0.97 -0.3,1.65 -0.3,1.65c0,0 0.15,0.53 0.45,1.43c0.22,0.82 0.6,1.95 0.97,3.07c0.38,1.2 0.75,2.33 1.05,3.15c0.3,0.9 0.53,1.43 0.53,1.43c0,0 1.35,-0.45 2.62,-0.98c0.68,-0.22 1.35,-0.52 1.88,-0.67c0.52,-0.23 0.82,-0.38 0.82,-0.38c0,0 0.15,-0.67 0.3,-1.72c0.15,-0.98 0.38,-2.33 0.68,-3.6c0.45,-2.63 0.9,-5.26 0.9,-5.26Z" style="fill:rgb(244,239,20);fill-rule:nonzero;"/>        </g>        <g transform="matrix(1.34311,0,0,1.34411,-120.899,65.093)">            <path d="M212.13,225.41c-0.3,1.13 -0.67,2.25 -0.9,3.15c-0.3,0.9 -0.45,1.5 -0.45,1.5c0,0 0.45,2.33 0.9,4.58c0.23,1.2 0.45,2.32 0.68,3.22c0.07,0.45 0.15,0.75 0.22,1.05c0.08,0.23 0.08,0.38 0.08,0.38c0,0 1.2,-0.15 2.4,-0.38c1.2,-0.22 2.4,-0.52 2.4,-0.52c0,0 0.6,-2.48 1.2,-4.88c0.6,-2.47 1.2,-4.87 1.2,-4.87c0,0 0,-0.08 -0.07,-0.3c-0.08,-0.23 -0.15,-0.6 -0.23,-0.98c-0.22,-0.75 -0.52,-1.8 -0.75,-2.85c-0.52,-2.1 -0.9,-4.2 -0.9,-4.2c0,0 -0.3,0.07 -0.75,0.15c-0.37,0 -0.9,0.07 -1.5,0.15c-0.53,0.08 -1.05,0.15 -1.43,0.15c-0.45,0.08 -0.67,0.08 -0.67,0.08c0,0 -0.23,0.6 -0.45,1.42c-0.3,0.83 -0.6,1.95 -0.98,3.15Z" style="fill:rgb(244,239,20);fill-rule:nonzero;"/>        </g>        <g transform="matrix(1.34311,0,0,1.34411,-120.899,248.296)">            <path d="M277.92,153.17c0,0 -0.6,-0.37 -1.35,-0.82c-0.75,-0.45 -1.8,-1.13 -2.85,-1.8c-0.98,-0.6 -2.03,-1.28 -2.7,-1.8c-0.75,-0.53 -1.28,-0.9 -1.28,-0.9c0,0 -1.57,1.87 -3.22,3.67c-1.65,1.8 -3.3,3.53 -3.3,3.53c0,0 0.3,3.38 0.6,6.83c0.3,3.52 0.67,7.05 0.67,7.05c0,0 0.53,0.45 1.35,1.05c0.75,0.6 1.88,1.5 2.93,2.32c1.12,0.75 2.25,1.58 3.07,2.18c0.83,0.6 1.43,0.97 1.43,0.97l6.98,-8.55c0,0 -0.23,-0.9 -0.45,-2.25c-0.23,-1.27 -0.6,-3 -0.83,-4.72c-0.6,-3.45 -1.05,-6.76 -1.05,-6.76Z" style="fill:rgb(244,239,20);fill-rule:nonzero;"/>        </g>        <g transform="matrix(1.34311,0,0,1.34411,-120.899,234.787)">            <path d="M259.77,174.55c0.6,-0.67 1.05,-1.05 1.05,-1.05c0,0 -0.08,-0.9 -0.15,-2.17c-0.15,-1.35 -0.23,-3 -0.38,-4.73c-0.22,-3.38 -0.45,-6.6 -0.45,-6.6c0,0 -1.8,-1.65 -3.52,-3.38c-0.83,-0.9 -1.73,-1.72 -2.33,-2.4c-0.3,-0.3 -0.6,-0.52 -0.75,-0.75c-0.22,-0.22 -0.3,-0.3 -0.3,-0.3c0,0 -1.57,1.35 -3.22,2.7c-0.83,0.75 -1.58,1.35 -2.18,1.88c-0.6,0.52 -1.05,0.82 -1.05,0.82l0,6.6c0,3.38 0.08,6.83 0.08,6.83c0,0 0.07,0.08 0.3,0.38c0.22,0.22 0.45,0.52 0.82,0.9c0.68,0.82 1.58,1.8 2.48,2.85c1.8,2.02 3.75,4.05 3.75,4.05c0,0 1.72,-1.65 3.45,-3.3c0.9,-0.83 1.72,-1.65 2.4,-2.33Z" style="fill:rgb(244,239,20);fill-rule:nonzero;"/>        </g>        <g transform="matrix(1.34311,0,0,1.34411,-120.899,210.795)">            <path d="M243.71,183.78c0,0 0,-3.31 0.08,-6.61c0.07,-3.22 0.15,-6.45 0.15,-6.45c0,0 -0.38,-0.45 -0.98,-1.2c-0.52,-0.75 -1.2,-1.8 -1.95,-2.77c-0.67,-0.98 -1.35,-2.03 -1.87,-2.78c-0.23,-0.37 -0.45,-0.67 -0.6,-0.9c-0.15,-0.22 -0.23,-0.37 -0.23,-0.37c0,0 -1.5,0.97 -3.07,1.95c-1.5,0.9 -3,1.72 -3,1.72c0,0 -0.3,3.15 -0.53,6.3c-0.22,3.15 -0.45,6.45 -0.45,6.45c0,0 0.08,0.15 0.23,0.45c0.15,0.23 0.37,0.6 0.6,1.05c0.52,0.83 1.2,2.1 1.95,3.23c0.75,1.2 1.5,2.33 2.1,3.23c0.52,0.9 0.97,1.42 0.97,1.42c0,0 1.65,-1.12 3.3,-2.25c1.65,-1.2 3.3,-2.47 3.3,-2.47Z" style="fill:rgb(244,239,20);fill-rule:nonzero;"/>        </g>        <g transform="matrix(1.34311,0,0,1.34411,-120.899,178.63)">            <path d="M230.44,184.38c0,0 -0.3,-0.53 -0.75,-1.36c-0.38,-0.82 -0.98,-1.95 -1.5,-3.07c-0.53,-1.13 -1.05,-2.25 -1.43,-3.08c-0.37,-0.82 -0.6,-1.42 -0.6,-1.42c0,0 -1.42,0.67 -2.85,1.2c-0.67,0.3 -1.35,0.52 -1.87,0.75c-0.53,0.15 -0.83,0.3 -0.83,0.3c0,0 -0.15,0.67 -0.3,1.8c-0.22,1.12 -0.45,2.55 -0.67,4.05c-0.45,2.93 -0.9,6 -0.9,6c0,0 0.3,0.6 0.67,1.58c0.38,0.9 0.9,2.17 1.43,3.45c0.52,1.27 1.12,2.55 1.5,3.52c0.45,0.9 0.75,1.58 0.75,1.58c0,0 1.5,-0.68 3.07,-1.43c1.5,-0.75 3.08,-1.57 3.08,-1.57c0,0 0.22,-3.15 0.52,-6.23c0.3,-3.07 0.68,-6.07 0.68,-6.07Z" style="fill:rgb(244,239,20);fill-rule:nonzero;"/>        </g>        <g transform="matrix(1.34311,0,0,1.34411,-120.899,140.713)">            <path d="M218.51,205.46c0.45,-2.85 0.98,-5.63 0.98,-5.63c0,0 -0.08,-0.15 -0.15,-0.37c-0.08,-0.3 -0.23,-0.6 -0.38,-1.05c-0.3,-0.9 -0.67,-2.03 -1.05,-3.23c-0.37,-1.2 -0.75,-2.32 -0.97,-3.22c-0.3,-0.9 -0.45,-1.43 -0.45,-1.43c0,0 -0.3,0.08 -0.83,0.15c-0.45,0.15 -1.05,0.23 -1.65,0.38c-0.68,0.07 -1.28,0.22 -1.73,0.3c-0.45,0.07 -0.75,0.15 -0.75,0.15c0,0 -0.15,0.6 -0.37,1.65c-0.23,0.97 -0.53,2.32 -0.83,3.67c-0.3,1.35 -0.6,2.7 -0.9,3.75c-0.15,1.05 -0.37,1.73 -0.37,1.73c0,0 0.22,0.67 0.45,1.65c0.22,0.97 0.6,2.25 0.97,3.6c0.38,1.27 0.75,2.55 1.05,3.6c0.15,0.45 0.3,0.9 0.38,1.2c0.07,0.3 0.15,0.45 0.15,0.45c0,0 1.35,-0.3 2.7,-0.75c0.67,-0.15 1.35,-0.38 1.88,-0.53c0.52,-0.15 0.82,-0.3 0.82,-0.3c0,0 0.15,-0.67 0.3,-1.8c0.23,-1.05 0.45,-2.55 0.75,-3.97Z" style="fill:rgb(244,239,20);fill-rule:nonzero;"/>        </g>        <g transform="matrix(1.34311,0,0,1.34411,-120.899,99.0722)">            <path d="M211.01,216.48c0,0 0,-0.15 -0.08,-0.37c-0.07,-0.3 -0.15,-0.68 -0.22,-1.13c-0.15,-0.9 -0.45,-2.02 -0.68,-3.22c-0.45,-2.33 -0.82,-4.73 -0.82,-4.73l-0.75,0c-0.38,0 -0.9,0.08 -1.43,0.08c-0.52,0 -1.12,0 -1.5,-0.08l-0.67,0c0,0 -0.15,0.6 -0.45,1.5c-0.23,0.9 -0.6,2.1 -0.98,3.38c-0.37,1.2 -0.67,2.4 -0.97,3.37c-0.3,0.9 -0.45,1.58 -0.45,1.58c0,0 0.37,2.63 0.82,5.18c0.15,1.35 0.45,2.62 0.6,3.6c0.08,0.52 0.15,0.9 0.23,1.2c0.07,0.3 0.07,0.45 0.07,0.45c0,0 1.2,-0.08 2.4,-0.15c1.13,-0.08 2.4,-0.23 2.4,-0.23c0,0 0.6,-2.62 1.2,-5.25c0.68,-2.63 1.28,-5.18 1.28,-5.18Z" style="fill:rgb(244,239,20);fill-rule:nonzero;"/>        </g>        <g transform="matrix(1.34311,0,0,1.34411,-120.899,55.4153)">            <path d="M198.71,227.96c-0.38,1.13 -0.75,2.25 -1.05,3.08c-0.3,0.9 -0.53,1.42 -0.53,1.42c0,0 0.08,0.6 0.08,1.58c0.07,0.97 0.15,2.25 0.3,3.52c0,0.6 0.07,1.28 0.07,1.88c0.08,0.6 0.15,1.12 0.15,1.57c0.08,1.05 0.15,1.65 0.15,1.65c0,0 1.05,0.23 2.03,0.3c1.05,0.15 2.02,0.23 2.02,0.23c0,0 0.75,-2.4 1.5,-4.8c0.75,-2.33 1.43,-4.65 1.43,-4.65c0,0 0,-0.6 -0.15,-1.5c0,-0.38 -0.08,-0.98 -0.15,-1.5c-0.08,-0.53 -0.08,-1.13 -0.15,-1.73c-0.15,-1.12 -0.23,-2.33 -0.3,-3.23c-0.08,-0.82 -0.15,-1.42 -0.15,-1.42c0,0 -0.23,0 -0.6,-0.08c-0.3,-0.07 -0.75,-0.15 -1.2,-0.22c-0.53,-0.15 -0.98,-0.23 -1.28,-0.3c-0.37,-0.08 -0.6,-0.15 -0.6,-0.15c0,0 -0.15,0.52 -0.45,1.35c-0.3,0.82 -0.67,1.87 -1.12,3Z" style="fill:rgb(244,239,20);fill-rule:nonzero;"/>        </g>        <g transform="matrix(1.34311,0,0,1.34411,-120.899,11.2477)">            <path d="M195.86,244.17c-0.38,0.97 -0.83,2.02 -1.13,2.77c-0.3,0.75 -0.52,1.28 -0.52,1.28c0,0 -0.08,2.55 -0.08,5.02c-0.07,2.48 0,4.95 0,4.95c0,0 0.23,0.15 0.53,0.23c0.3,0.15 0.75,0.3 1.12,0.45c0.9,0.37 1.8,0.6 1.8,0.6c0,0 0.75,-2.18 1.58,-4.35c0.37,-1.05 0.75,-2.1 1.05,-2.93c0.3,-0.75 0.52,-1.27 0.52,-1.27c0,0 -0.07,-2.33 -0.07,-4.65c-0.08,-2.33 0,-4.65 0,-4.65c0,0 -0.23,-0.08 -0.53,-0.15c-0.3,-0.15 -0.67,-0.3 -1.05,-0.53c-0.82,-0.37 -1.57,-0.75 -1.57,-0.75c0,0 -0.15,0.45 -0.53,1.2c-0.3,0.75 -0.67,1.8 -1.12,2.78Z" style="fill:rgb(244,239,20);fill-rule:nonzero;"/>        </g>        <g transform="matrix(1.34311,0,0,1.34411,-120.899,-36.4414)">            <path d="M196.16,258.34c-0.38,0.83 -0.83,1.8 -1.28,2.85c-0.07,0.3 -0.22,0.53 -0.3,0.83c-0.15,0.3 -0.22,0.52 -0.37,0.75c-0.23,0.52 -0.38,0.97 -0.53,1.35c-0.37,0.82 -0.6,1.35 -0.6,1.35c0,0 -0.07,0.67 -0.15,1.72c-0.15,1.05 -0.3,2.4 -0.37,3.68c-0.15,1.35 -0.23,2.63 -0.3,3.6c-0.08,0.98 -0.08,1.58 -0.08,1.58c0,0 0.15,0.15 0.38,0.37c0.3,0.15 0.6,0.45 0.97,0.68c0.38,0.3 0.68,0.52 0.98,0.67c0.3,0.15 0.45,0.3 0.45,0.3c0,0 0.22,-0.52 0.52,-1.27c0.3,-0.75 0.75,-1.73 1.13,-2.7c0.45,-0.98 0.9,-1.96 1.2,-2.71c0.3,-0.75 0.52,-1.2 0.52,-1.2c0,0 0,-0.6 0.08,-1.5c0,-0.9 0.07,-2.1 0.15,-3.3c0.15,-1.27 0.22,-2.47 0.3,-3.45c0.07,-0.97 0.15,-1.65 0.15,-1.65c0,0 -0.15,-0.15 -0.38,-0.45c-0.22,-0.22 -0.52,-0.6 -0.82,-1.05c-0.3,-0.45 -0.6,-0.82 -0.75,-1.2c-0.23,-0.3 -0.38,-0.52 -0.38,-0.52c0,0 -0.22,0.52 -0.52,1.27Z" style="fill:rgb(244,239,20);fill-rule:nonzero;"/>        </g>        <g transform="matrix(1.34311,0,0,1.34411,-120.899,-388.734)">            <path d="M138.85,404.69l2.25,0c0.37,0.08 0.67,0.08 0.97,0.08l0.98,0c0,0 0.22,-0.3 0.52,-0.9c0.38,-0.53 0.83,-1.2 1.28,-1.95c0.52,-0.75 0.97,-1.43 1.35,-2.03c0.37,-0.52 0.67,-0.9 0.67,-0.9c0,0 -0.15,-0.37 -0.45,-0.97c-0.22,-0.6 -0.6,-1.43 -0.9,-2.18c-0.37,-0.82 -0.75,-1.65 -0.97,-2.25c-0.3,-0.6 -0.53,-1.05 -0.53,-1.05l-1.05,0c-0.37,0 -0.75,0 -1.2,-0.07l-4.8,0c0,0 -0.22,0.37 -0.52,0.97c-0.3,0.6 -0.75,1.43 -1.13,2.18c-0.45,0.75 -0.82,1.57 -1.12,2.1c-0.3,0.6 -0.45,0.97 -0.45,0.97c0,0 0.15,0.38 0.52,0.98c0.3,0.52 0.68,1.27 1.13,2.02c0.37,0.75 0.75,1.5 1.05,2.03c0.3,0.6 0.45,0.9 0.45,0.9c0,0 0.37,0 0.97,0.07l0.98,0Z" style="fill:rgb(131,131,131);fill-rule:nonzero;"/>        </g>        <g transform="matrix(1.34311,0,0,1.34411,-120.899,-400.239)">            <path d="M149.72,407.93c0.23,0.6 0.38,0.97 0.38,0.97c0,0 0.37,0 0.97,0.08c0.68,0.07 1.43,0.15 2.25,0.22c0.83,0.08 1.66,0.23 2.26,0.23c0.6,0.07 1.05,0.15 1.05,0.15c0,0 1.2,-1.43 2.4,-2.85c0.67,-0.68 1.27,-1.43 1.8,-1.95c0.45,-0.53 0.82,-0.9 0.82,-0.9c0,0 -0.15,-0.45 -0.3,-1.05c-0.15,-0.68 -0.37,-1.5 -0.6,-2.33c-0.52,-1.73 -0.97,-3.53 -0.97,-3.53c0,0 -0.53,-0.07 -1.2,-0.15c-0.75,-0.07 -1.65,-0.22 -2.63,-0.3c-0.9,-0.07 -1.87,-0.15 -2.63,-0.22c-0.67,-0.08 -1.12,-0.08 -1.12,-0.08c0,0 -0.3,0.38 -0.75,0.98c-0.45,0.6 -1.05,1.35 -1.65,2.17c-1.13,1.58 -2.18,3.08 -2.25,3.08c0,0 0.67,1.65 1.35,3.3c0.3,0.75 0.6,1.58 0.82,2.18Z" style="fill:rgb(131,131,131);fill-rule:nonzero;"/>        </g>        <g transform="matrix(1.34311,0,0,1.34411,-120.899,-408.815)">            <path d="M164.05,408.53c0.23,0.83 0.38,1.73 0.53,2.4c0.15,0.6 0.22,1.05 0.22,1.05c0,0 0.45,0.08 1.05,0.15c0.68,0.08 1.5,0.3 2.33,0.45c0.82,0.15 1.65,0.3 2.32,0.45c0.6,0.08 0.98,0.15 0.98,0.15c0,0 0.37,-0.3 0.97,-0.82c0.53,-0.53 1.28,-1.2 2.03,-1.88c0.82,-0.67 1.57,-1.35 2.17,-1.87c0.6,-0.53 0.98,-0.83 0.98,-0.83c0,0 -0.08,-0.45 -0.08,-1.12c-0.07,-0.68 -0.22,-1.58 -0.22,-2.48c-0.15,-0.98 -0.23,-1.88 -0.3,-2.55c-0.15,-0.75 -0.23,-1.2 -0.23,-1.2c0,0 -0.45,-0.08 -1.2,-0.23c-0.67,-0.15 -1.65,-0.37 -2.62,-0.52c-0.98,-0.15 -1.95,-0.38 -2.63,-0.53c-0.75,-0.07 -1.27,-0.15 -1.27,-0.15c0,0 -0.38,0.38 -0.9,0.9c-0.6,0.6 -1.35,1.35 -2.1,2.1c-1.43,1.58 -2.85,3.08 -2.85,3.08c0,0 0.45,1.73 0.82,3.45Z" style="fill:rgb(131,131,131);fill-rule:nonzero;"/>        </g>        <g transform="matrix(1.34311,0,0,1.34411,-120.899,-413.855)">            <path d="M180.48,409.95c0,0.91 0.07,1.81 0.07,2.48c0.08,0.68 0.08,1.13 0.08,1.13c0,0 0.37,0.07 1.05,0.3c0.6,0.15 1.42,0.37 2.25,0.6c0.45,0.15 0.82,0.3 1.2,0.37c0.45,0.08 0.75,0.23 1.05,0.3c0.6,0.23 1.05,0.3 1.05,0.3c0,0 1.73,-1.27 3.53,-2.47c1.8,-1.28 3.67,-2.55 3.67,-2.55c0,0 0.15,-1.81 0.3,-3.76c0.15,-1.95 0.23,-3.82 0.23,-3.82c0,0 -0.53,-0.15 -1.2,-0.38c-0.38,-0.15 -0.83,-0.3 -1.2,-0.37c-0.45,-0.15 -0.98,-0.3 -1.43,-0.45c-0.97,-0.3 -1.95,-0.6 -2.7,-0.75c-0.67,-0.23 -1.2,-0.38 -1.2,-0.38c0,0 -0.45,0.38 -1.12,0.98c-0.68,0.52 -1.58,1.2 -2.48,1.95c-1.73,1.42 -3.45,2.85 -3.45,2.85c0,0 0.15,1.87 0.3,3.67Z" style="fill:rgb(131,131,131);fill-rule:nonzero;"/>        </g>        <g transform="matrix(1.34311,0,0,1.34411,-120.899,-414.46)">            <path d="M197.81,406.95c-0.08,0.68 -0.15,1.65 -0.3,2.63c-0.08,0.9 -0.15,1.8 -0.3,2.55c-0.08,0.68 -0.15,1.13 -0.15,1.13c0,0 0.45,0.15 0.97,0.37c0.6,0.3 1.43,0.6 2.18,0.9c0.82,0.38 1.57,0.68 2.17,0.9c0.6,0.3 0.98,0.45 0.98,0.45c0,0 0.45,-0.3 1.2,-0.67c0.75,-0.45 1.8,-0.98 2.77,-1.5c2.03,-1.13 4.13,-2.25 4.13,-2.25c0,0 0.6,-1.88 1.05,-3.83c0.22,-0.98 0.45,-1.95 0.67,-2.7c0.15,-0.75 0.23,-1.28 0.23,-1.28c0,0 -0.45,-0.15 -1.05,-0.52c-0.68,-0.3 -1.65,-0.68 -2.48,-1.05c-0.97,-0.45 -1.87,-0.83 -2.55,-1.05c-0.75,-0.3 -1.2,-0.53 -1.2,-0.53c0,0 -0.52,0.38 -1.35,0.83c-0.75,0.52 -1.8,1.12 -2.85,1.8c-0.97,0.67 -2.02,1.27 -2.77,1.8c-0.75,0.45 -1.2,0.82 -1.2,0.82c0,0 -0.08,0.45 -0.15,1.2Z" style="fill:rgb(131,131,131);fill-rule:nonzero;"/>        </g>        <g transform="matrix(1.34311,0,0,1.34411,-120.899,-409.917)">            <path d="M217.39,402.52c-0.83,0.38 -1.35,0.68 -1.35,0.68c0,0 -0.15,0.45 -0.38,1.2c-0.23,0.75 -0.53,1.72 -0.83,2.7c-0.52,1.88 -1.2,3.75 -1.2,3.75c0,0 0.38,0.15 0.98,0.45c0.52,0.3 1.28,0.75 1.95,1.13c0.75,0.45 1.43,0.9 1.95,1.2c0.53,0.3 0.83,0.6 0.83,0.6c0,0 2.17,-0.98 4.42,-1.88c1.13,-0.37 2.25,-0.9 3.08,-1.2c0.9,-0.3 1.42,-0.52 1.42,-0.52c0,0 0.23,-0.45 0.6,-1.2c0.38,-0.68 0.75,-1.65 1.2,-2.63c0.9,-1.95 1.73,-3.9 1.73,-3.9c0,0 -0.38,-0.3 -0.98,-0.68c-0.6,-0.37 -1.42,-0.9 -2.25,-1.42c-0.82,-0.53 -1.65,-1.05 -2.32,-1.43c-0.6,-0.37 -1.05,-0.6 -1.05,-0.6c0,0 -2.4,1.13 -4.65,2.18c-1.2,0.6 -2.33,1.12 -3.15,1.57Z" style="fill:rgb(131,131,131);fill-rule:nonzero;"/>        </g>        <g transform="matrix(1.34311,0,0,1.34411,-120.899,-399.729)">            <path d="M238.61,396.82c-2.47,0.82 -4.87,1.72 -4.87,1.72c0,0 -0.98,1.96 -1.88,3.83c-0.52,0.98 -1.05,1.88 -1.35,2.55c-0.37,0.75 -0.67,1.2 -0.67,1.2c0,0 1.35,0.98 2.55,2.03c0.3,0.3 0.6,0.52 0.9,0.75c0.22,0.3 0.52,0.45 0.75,0.67c0.37,0.45 0.67,0.68 0.67,0.68c0,0 2.33,-0.68 4.65,-1.28c2.4,-0.67 4.8,-1.27 4.8,-1.27c0,0 1.28,-1.73 2.48,-3.68c1.35,-1.87 2.55,-3.75 2.55,-3.75c0,0 -0.37,-0.37 -0.82,-0.83c-0.3,-0.22 -0.6,-0.52 -0.9,-0.82c-0.3,-0.3 -0.6,-0.68 -0.98,-0.98c-1.43,-1.27 -2.85,-2.47 -2.85,-2.47c0,0 -0.68,0.22 -1.65,0.52c-0.9,0.3 -2.18,0.68 -3.38,1.13Z" style="fill:rgb(131,131,131);fill-rule:nonzero;"/>        </g>        <g transform="matrix(1.34311,0,0,1.34411,-120.899,-383.196)">            <path d="M255.42,390.45c-1.28,0.22 -2.55,0.52 -3.53,0.75c-0.45,0.07 -0.82,0.15 -1.12,0.22c-0.23,0.08 -0.45,0.15 -0.45,0.15c0,0 -0.08,0.08 -0.23,0.3c-0.07,0.23 -0.3,0.45 -0.6,0.83c-0.45,0.67 -1.12,1.65 -1.8,2.55c-0.67,0.9 -1.35,1.8 -1.8,2.4c-0.53,0.67 -0.9,1.12 -0.9,1.12c0,0 0.3,0.3 0.67,0.75c0.3,0.45 0.91,1.05 1.36,1.73c0.45,0.6 0.9,1.2 1.2,1.65c0.22,0.22 0.3,0.45 0.45,0.6c0.07,0.15 0.15,0.22 0.15,0.22c0,0 2.32,-0.37 4.65,-0.75c1.2,-0.15 2.4,-0.3 3.3,-0.45c0.9,-0.07 1.5,-0.15 1.5,-0.15c0,0 0.45,-0.45 0.97,-1.05c0.68,-0.6 1.43,-1.5 2.25,-2.4c1.58,-1.72 3.15,-3.6 3.15,-3.6c0,0 0,-0.07 -0.07,-0.22c-0.15,-0.15 -0.3,-0.45 -0.45,-0.68c-0.38,-0.6 -0.9,-1.35 -1.43,-2.1c-0.45,-0.75 -1.05,-1.42 -1.42,-2.02c-0.45,-0.53 -0.75,-0.9 -0.75,-0.9c0,0 -0.6,0.15 -1.58,0.3c-0.97,0.22 -2.32,0.45 -3.52,0.75Z" style="fill:rgb(131,131,131);fill-rule:nonzero;"/>        </g>        <g transform="matrix(1.34311,0,0,1.34411,-120.899,-360.601)">            <path d="M274.99,381.59c0,0 -0.67,0.07 -1.57,0.15c-0.98,0 -2.18,0.07 -3.45,0.22c-2.48,0.23 -4.95,0.45 -4.95,0.45c0,0 -1.73,1.73 -3.38,3.45c-0.75,0.75 -1.65,1.65 -2.25,2.25c-0.6,0.6 -1.05,0.98 -1.05,0.98c0,0 0.15,0.37 0.45,0.9c0.3,0.52 0.53,1.2 0.9,1.87c0.3,0.75 0.6,1.43 0.75,1.95c0.23,0.53 0.3,0.91 0.3,0.91c0,0 0.6,-0.08 1.43,-0.08c0.9,0 2.02,-0.07 3.22,-0.07l4.5,0c0,0 1.88,-1.51 3.75,-3.08c0.98,-0.83 1.88,-1.58 2.63,-2.18c0.67,-0.67 1.2,-1.05 1.2,-1.05c0,0 -0.15,-0.45 -0.37,-1.05c-0.16,-0.67 -0.46,-1.42 -0.76,-2.32c-0.3,-0.83 -0.6,-1.65 -0.9,-2.25c-0.3,-0.6 -0.45,-1.05 -0.45,-1.05Z" style="fill:rgb(131,131,131);fill-rule:nonzero;"/>        </g>        <g transform="matrix(1.34311,0,0,1.34411,-120.899,-458.829)">            <path d="M192.78,432.01c0.53,0.15 0.98,0.3 1.5,0.38c0.45,0.15 0.83,0.3 1.2,0.45c0.75,0.22 1.28,0.37 1.28,0.37c0,0 1.95,-1.42 4.05,-2.77c2.1,-1.35 4.27,-2.78 4.27,-2.78c0,0 0.15,-2.17 0.23,-4.35c0.07,-2.17 0.07,-4.43 0.07,-4.43c0,0 -0.52,-0.15 -1.35,-0.45c-0.45,-0.15 -0.9,-0.3 -1.5,-0.45c-0.45,-0.15 -1.05,-0.37 -1.65,-0.52c-1.12,-0.3 -2.25,-0.68 -3.15,-0.9c-0.82,-0.23 -1.42,-0.38 -1.42,-0.38c0,0 -0.53,0.38 -1.35,0.98c-0.75,0.6 -1.8,1.42 -2.85,2.25c-2.03,1.58 -4.05,3.15 -4.05,3.15c0,0 0.3,2.1 0.45,4.2c0.07,1.05 0.15,2.1 0.22,2.85c0.08,0.75 0.08,1.28 0.08,1.28c0,0 0.52,0.15 1.27,0.3c0.75,0.22 1.73,0.52 2.7,0.82Z" style="fill:rgb(131,131,131);fill-rule:nonzero;"/>        </g>        <g transform="matrix(1.34311,0,0,1.34411,-120.899,-458.319)">            <path d="M208.98,422.86c-0.07,0.82 -0.15,1.87 -0.22,3c-0.15,1.05 -0.23,2.1 -0.3,2.92c-0.08,0.75 -0.15,1.28 -0.15,1.28c0,0 0.45,0.22 1.2,0.52c0.67,0.3 1.65,0.68 2.62,1.13c0.9,0.37 1.88,0.82 2.55,1.12c0.68,0.3 1.13,0.53 1.13,0.53c0,0 2.33,-1.2 4.65,-2.4c2.33,-1.2 4.8,-2.4 4.8,-2.4c0,0 0.53,-2.18 1.05,-4.35c0.45,-2.33 0.9,-4.58 0.9,-4.58c0,0 -0.52,-0.3 -1.27,-0.68c-0.83,-0.37 -1.88,-0.9 -3,-1.35c-1.05,-0.52 -2.18,-0.97 -3,-1.35c-0.83,-0.3 -1.35,-0.6 -1.35,-0.6c0,0 -0.68,0.38 -1.58,0.98c-0.9,0.52 -2.1,1.2 -3.3,1.95c-1.2,0.67 -2.33,1.43 -3.23,1.95c-0.82,0.53 -1.42,0.9 -1.42,0.9c0,0 -0.08,0.6 -0.08,1.43Z" style="fill:rgb(131,131,131);fill-rule:nonzero;"/>        </g>        <g transform="matrix(1.34311,0,0,1.34411,-120.899,-451.06)">            <path d="M230.29,417.68c0,0 -0.08,0.53 -0.3,1.35c-0.23,0.9 -0.53,2.03 -0.83,3.15c-0.6,2.18 -1.27,4.28 -1.27,4.28c0,0 0.45,0.3 1.12,0.67c0.68,0.38 1.5,0.9 2.4,1.43c0.83,0.52 1.65,1.05 2.33,1.5c0.6,0.37 0.97,0.67 0.97,0.67c0,0 2.48,-0.97 5.03,-1.87c2.62,-0.98 5.17,-1.88 5.17,-1.88c0,0 1.05,-2.17 1.96,-4.35c0.9,-2.32 1.8,-4.65 1.8,-4.65c0,0 -0.45,-0.3 -1.13,-0.82c-0.75,-0.45 -1.73,-1.13 -2.63,-1.8c-1.05,-0.6 -2.02,-1.2 -2.77,-1.73c-0.75,-0.45 -1.28,-0.75 -1.28,-0.75c0,0 -2.7,1.2 -5.4,2.4c-1.27,0.53 -2.55,1.13 -3.52,1.65c-0.98,0.45 -1.65,0.75 -1.65,0.75Z" style="fill:rgb(131,131,131);fill-rule:nonzero;"/>        </g>        <g transform="matrix(1.34311,0,0,1.34411,-120.899,-436.436)">            <path d="M248.97,415.58c-0.53,1.05 -1.05,2.17 -1.43,2.92c-0.37,0.83 -0.67,1.35 -0.67,1.35c0,0 0.37,0.3 0.9,0.83c0.6,0.45 1.35,1.12 2.02,1.8c0.38,0.3 0.75,0.6 1.05,0.9c0.38,0.37 0.68,0.67 0.9,0.9c0.53,0.52 0.83,0.82 0.83,0.82c0,0 2.62,-0.67 5.25,-1.27c2.62,-0.6 5.32,-1.13 5.32,-1.13c0,0 1.43,-2.1 2.78,-4.27c1.42,-2.25 2.77,-4.5 2.77,-4.5c0,0 -0.37,-0.38 -0.97,-0.98c-0.3,-0.3 -0.6,-0.67 -0.98,-1.05c-0.37,-0.37 -0.75,-0.75 -1.12,-1.2c-0.83,-0.75 -1.65,-1.57 -2.33,-2.1c-0.6,-0.6 -1.05,-0.97 -1.05,-0.97c0,0 -0.67,0.22 -1.8,0.52c-1.05,0.3 -2.47,0.68 -3.9,1.13c-2.77,0.9 -5.55,1.8 -5.55,1.8c0,0 -0.97,2.25 -2.02,4.5Z" style="fill:rgb(131,131,131);fill-rule:nonzero;"/>        </g>        <g transform="matrix(1.34311,0,0,1.34411,-120.899,-414.151)">            <path d="M271.84,401.4c-0.52,0.07 -0.97,0.22 -1.27,0.22c-0.3,0.08 -0.53,0.15 -0.53,0.15c0,0 -0.07,0.08 -0.22,0.38c-0.15,0.22 -0.38,0.52 -0.68,0.97c-0.52,0.83 -1.27,1.88 -2.02,2.93c-1.43,2.1 -2.93,4.12 -2.93,4.12c0,0 0.3,0.38 0.75,0.98c0.38,0.6 0.98,1.28 1.5,2.1c0.53,0.75 1.05,1.58 1.43,2.1c0.15,0.3 0.3,0.6 0.45,0.75c0.07,0.15 0.15,0.3 0.15,0.3c0,0 2.55,-0.37 5.17,-0.6c1.35,-0.15 2.63,-0.3 3.61,-0.37c0.97,-0.08 1.65,-0.08 1.65,-0.08c0,0 0.45,-0.52 1.12,-1.27c0.6,-0.75 1.5,-1.73 2.4,-2.78c1.8,-2.03 3.53,-4.13 3.53,-4.13c0,0 0,-0.15 -0.15,-0.37c-0.08,-0.15 -0.23,-0.45 -0.45,-0.83c-0.45,-0.67 -0.98,-1.65 -1.5,-2.55c-0.53,-0.9 -1.2,-1.8 -1.65,-2.55c-0.45,-0.67 -0.75,-1.12 -0.75,-1.12c0,0 -2.93,0.45 -5.78,0.97c-1.43,0.23 -2.78,0.53 -3.83,0.68Z" style="fill:rgb(131,131,131);fill-rule:nonzero;"/>        </g>        <g transform="matrix(1.34311,0,0,1.34411,-120.899,-384.5)">            <path d="M291.65,389.47c-2.7,0.15 -5.4,0.3 -5.4,0.3c0,0 -1.8,2.02 -3.68,3.97c-0.9,0.98 -1.87,1.95 -2.55,2.63c-0.67,0.75 -1.12,1.2 -1.12,1.2c0,0 0.22,0.45 0.45,1.05c0.3,0.67 0.6,1.5 0.9,2.4c0.3,0.9 0.67,1.72 0.82,2.32c0.15,0.68 0.3,1.13 0.3,1.13l1.5,0c0.98,0 2.18,0.07 3.38,0.07c2.47,0.08 4.87,0.23 4.87,0.23c0,0 2.1,-1.73 4.2,-3.6c1.05,-0.9 2.1,-1.8 2.85,-2.55c0.83,-0.68 1.35,-1.2 1.35,-1.2c0,0 -0.15,-0.45 -0.3,-1.28c-0.15,-0.75 -0.52,-1.72 -0.75,-2.77c-0.3,-0.98 -0.6,-2.03 -0.9,-2.78c-0.3,-0.75 -0.45,-1.27 -0.45,-1.27c0,0 -0.67,0 -1.65,0.07c-1.05,0 -2.4,0 -3.82,0.08Z" style="fill:rgb(131,131,131);fill-rule:nonzero;"/>        </g>        <g transform="matrix(1.34311,0,0,1.34411,-120.899,-350.023)">            <path d="M290.6,387.07c0.15,0.9 0.22,1.73 0.22,2.48c0.08,0.6 0.08,1.05 0.08,1.05c0,0 0.6,0.07 1.42,0.15c0.83,0.15 1.95,0.3 3.08,0.45c2.17,0.3 4.35,0.67 4.35,0.67c0,0 2.25,-1.57 4.5,-3.15c1.2,-0.75 2.32,-1.57 3.15,-2.17c0.9,-0.61 1.43,-1.06 1.43,-1.06l0,-1.27c0,-0.75 0,-1.73 -0.08,-2.78c0,-0.97 -0.07,-2.02 -0.07,-2.77c-0.15,-0.75 -0.15,-1.28 -0.15,-1.28c0,0 -2.48,-0.22 -4.96,-0.45c-1.2,-0.07 -2.47,-0.22 -3.37,-0.3c-0.98,-0.07 -1.58,-0.07 -1.58,-0.07c0,0 -0.52,0.45 -1.35,1.12c-0.75,0.68 -1.8,1.58 -2.92,2.4c-2.1,1.73 -4.2,3.38 -4.2,3.38c0,0 0.07,0.45 0.22,1.12c0.08,0.68 0.15,1.58 0.23,2.48Z" style="fill:rgb(131,131,131);fill-rule:nonzero;"/>        </g>        <g transform="matrix(1.34311,0,0,1.34411,-120.899,-314.122)">            <path d="M303.87,378.14c0.75,0.15 1.2,0.3 1.2,0.3c0,0 0.6,-0.3 1.5,-0.83c0.9,-0.45 2.11,-1.12 3.23,-1.8c2.4,-1.35 4.8,-2.77 4.8,-2.77c0,0 0,-0.15 0.08,-0.38c0,-0.22 0.07,-0.52 0.15,-0.9c0.15,-0.75 0.3,-1.72 0.45,-2.7c0.22,-1.05 0.3,-2.02 0.45,-2.77c0.07,-0.75 0.15,-1.28 0.15,-1.28c0,0 -2.18,-0.45 -4.35,-0.9c-1.13,-0.22 -2.18,-0.37 -3,-0.6c-0.45,0 -0.83,-0.07 -1.06,-0.15c-0.22,0 -0.37,-0.07 -0.37,-0.07c0,0 -0.6,0.45 -1.43,0.97c-0.82,0.6 -2.02,1.35 -3.15,2.1c-2.25,1.5 -4.42,2.93 -4.42,2.93c0,0 -0.08,0.45 -0.08,1.12c-0.07,0.68 -0.15,1.58 -0.22,2.48c-0.15,0.9 -0.23,1.8 -0.3,2.47c-0.08,0.3 -0.08,0.6 -0.08,0.75c-0.07,0.23 -0.07,0.3 -0.07,0.3c0,0 1.95,0.45 3.9,0.98c0.97,0.22 1.95,0.52 2.62,0.75Z" style="fill:rgb(131,131,131);fill-rule:nonzero;"/>        </g>        <g transform="matrix(1.34311,0,0,1.34411,-120.899,-277.226)">            <path d="M301.7,358.42c-0.23,0.9 -0.6,1.72 -0.75,2.4c-0.15,0.3 -0.23,0.6 -0.3,0.75c-0.08,0.22 -0.08,0.3 -0.08,0.3c0,0 1.65,0.6 3.3,1.27c1.65,0.6 3.23,1.28 3.23,1.28c0,0 2.4,-1.05 4.73,-2.18c2.4,-1.12 4.87,-2.25 4.87,-2.25c0,0 0.08,-0.15 0.15,-0.37c0.08,-0.15 0.15,-0.45 0.3,-0.83c0.3,-0.67 0.68,-1.65 1.05,-2.62c0.38,-0.98 0.68,-1.96 0.98,-2.63c0.22,-0.75 0.37,-1.28 0.37,-1.28c0,0 -1.8,-0.6 -3.67,-1.27c-1.88,-0.6 -3.83,-1.13 -3.83,-1.13c0,0 -2.32,1.28 -4.73,2.63c-2.32,1.2 -4.65,2.47 -4.65,2.47c0,0 -0.07,0.45 -0.3,1.05c-0.15,0.68 -0.45,1.58 -0.67,2.41Z" style="fill:rgb(131,131,131);fill-rule:nonzero;"/>        </g>        <g transform="matrix(1.34311,0,0,1.34411,-120.899,-477.674)">            <path d="M284.37,439.51c0,0 1.58,-2.4 3.08,-4.95c1.57,-2.56 3.07,-5.18 3.07,-5.18c0,0 -0.37,-0.53 -1.05,-1.28c-0.3,-0.37 -0.67,-0.82 -1.05,-1.27c-0.45,-0.45 -0.9,-0.98 -1.35,-1.43c-0.9,-0.97 -1.8,-2.02 -2.55,-2.7c-0.75,-0.75 -1.2,-1.2 -1.2,-1.2c0,0 -0.82,0.23 -2.02,0.53c-1.28,0.3 -2.85,0.75 -4.43,1.2c-3.23,0.9 -6.38,1.87 -6.38,1.87c0,0 -1.05,2.63 -2.25,5.18c-0.52,1.27 -1.12,2.55 -1.57,3.45c-0.45,0.98 -0.75,1.58 -0.75,1.58c0,0 0.45,0.37 1.12,0.97c0.68,0.6 1.43,1.43 2.25,2.33c0.45,0.37 0.9,0.75 1.28,1.2c0.37,0.37 0.67,0.75 0.97,1.05c0.6,0.6 0.98,1.05 0.98,1.05c0,0 2.92,-0.68 5.85,-1.2c3,-0.6 6,-1.2 6,-1.2Z" style="fill:rgb(131,131,131);fill-rule:nonzero;"/>        </g>        <g transform="matrix(1.34311,0,0,1.34411,-120.899,-448.641)">            <path d="M294.05,412.81c-0.6,0.07 -1.13,0.15 -1.43,0.22c-0.37,0 -0.52,0.08 -0.52,0.08c0,0 -0.15,0.15 -0.3,0.45c-0.15,0.22 -0.45,0.67 -0.75,1.12c-0.6,0.98 -1.43,2.18 -2.25,3.45c-1.65,2.4 -3.23,4.73 -3.23,4.73c0,0 0.3,0.52 0.75,1.2c0.45,0.75 1.13,1.65 1.65,2.62c0.6,0.98 1.13,1.95 1.5,2.7c0.23,0.38 0.38,0.68 0.53,0.9c0.07,0.15 0.15,0.3 0.15,0.3c0,0 2.85,-0.22 5.7,-0.45c1.42,-0.07 2.85,-0.15 3.9,-0.22c1.12,0 1.8,-0.08 1.8,-0.08c0,0 0.52,-0.52 1.27,-1.42c0.75,-0.83 1.73,-2.03 2.78,-3.15c1.95,-2.4 3.98,-4.88 3.98,-4.88c0,0 -0.08,-0.15 -0.15,-0.37c-0.15,-0.3 -0.3,-0.68 -0.53,-1.05c-0.37,-0.9 -0.98,-2.03 -1.58,-3.15c-0.6,-1.2 -1.27,-2.25 -1.72,-3.15c-0.53,-0.83 -0.83,-1.43 -0.83,-1.43c0,0 -3.22,0.45 -6.45,0.9c-1.57,0.23 -3.07,0.45 -4.27,0.68Z" style="fill:rgb(131,131,131);fill-rule:nonzero;"/>        </g>        <g transform="matrix(1.34311,0,0,1.34411,-120.899,-410.616)">            <path d="M323.38,405.97c-0.15,-0.9 -0.38,-2.18 -0.68,-3.38c-0.22,-1.2 -0.52,-2.47 -0.75,-3.37c-0.22,-0.9 -0.45,-1.58 -0.45,-1.58l-1.8,0c-1.12,0 -2.55,-0.07 -4.12,0c-2.93,0 -5.85,0.08 -5.85,0.08c0,0 -2.11,2.4 -4.13,4.65c-1.05,1.12 -2.1,2.17 -2.85,3c-0.83,0.82 -1.28,1.35 -1.28,1.35c0,0 0.15,0.6 0.45,1.35c0.3,0.75 0.53,1.8 0.83,2.93c0.3,1.05 0.6,2.02 0.75,2.85c0.15,0.82 0.3,1.35 0.3,1.35c0,0 0.6,0 1.65,0.07c0.97,0.08 2.25,0.08 3.6,0.23c2.55,0.15 5.18,0.45 5.18,0.45c0,0 2.32,-2.03 4.65,-4.13c1.2,-1.05 2.32,-2.1 3.22,-2.92c0.9,-0.83 1.5,-1.36 1.5,-1.36c0,0 -0.07,-0.67 -0.22,-1.57Z" style="fill:rgb(131,131,131);fill-rule:nonzero;"/>        </g>        <g transform="matrix(1.34311,0,0,1.34411,-120.899,-369.486)">            <path d="M332.45,391.8c0.08,-0.9 0.15,-2.1 0.23,-3.23c0,-1.2 0.07,-2.4 0.07,-3.3l0,-1.42c0,0 -2.62,-0.38 -5.17,-0.68c-2.63,-0.3 -5.25,-0.6 -5.25,-0.6c0,0 -0.6,0.53 -1.5,1.28c-0.9,0.75 -2.1,1.8 -3.3,2.77c-2.33,1.95 -4.65,3.75 -4.65,3.75c0,0 0,0.53 0.07,1.35c0,0.75 0.08,1.8 0.08,2.85c0.07,1.05 0.07,2.1 0.07,2.85l0,1.28c0,0 2.33,0.37 4.58,0.82c2.32,0.38 4.57,0.83 4.57,0.83c0,0 2.48,-1.73 5.03,-3.45c2.55,-1.8 5.1,-3.68 5.1,-3.68c0,0 0.07,-0.6 0.07,-1.42Z" style="fill:rgb(131,131,131);fill-rule:nonzero;"/>        </g>        <g transform="matrix(1.34311,0,0,1.34411,-120.899,-327.442)">            <path d="M337.03,378.07c0.07,-0.22 0.15,-0.6 0.3,-1.05c0.22,-0.82 0.52,-1.95 0.82,-3.07c0.23,-1.2 0.46,-2.33 0.68,-3.23c0.23,-0.9 0.38,-1.5 0.38,-1.5c0,0 -2.33,-0.53 -4.58,-1.05c-1.13,-0.3 -2.25,-0.53 -3.08,-0.75c-0.9,-0.15 -1.42,-0.3 -1.42,-0.3c0,0 -0.68,0.45 -1.58,1.12c-0.97,0.6 -2.25,1.51 -3.52,2.33c-2.48,1.73 -4.95,3.3 -4.95,3.3c0,0 -0.08,0.53 -0.23,1.28c-0.07,0.82 -0.22,1.8 -0.45,2.85c-0.15,1.05 -0.37,2.02 -0.52,2.85c-0.08,0.37 -0.15,0.67 -0.23,0.9c0,0.22 -0.07,0.37 -0.07,0.37c0,0 2.02,0.53 3.97,1.13c1.05,0.3 2.03,0.6 2.7,0.82c0.75,0.23 1.2,0.45 1.2,0.45c0,0 0.68,-0.37 1.65,-0.97c0.9,-0.53 2.25,-1.28 3.53,-2.03c2.62,-1.5 5.32,-3.07 5.32,-3.07c0,0 0,-0.15 0.08,-0.38Z" style="fill:rgb(131,131,131);fill-rule:nonzero;"/>        </g>        <g transform="matrix(1.34311,0,0,1.34411,-120.899,-285.089)">            <path d="M332.08,365.92c2.62,-1.28 5.32,-2.55 5.32,-2.55c0,0 0.08,-0.15 0.15,-0.38c0.15,-0.22 0.3,-0.52 0.45,-0.97c0.45,-0.76 0.98,-1.88 1.43,-2.93c0.45,-1.13 0.98,-2.18 1.35,-3c0.3,-0.83 0.53,-1.43 0.53,-1.43c0,0 -1.8,-0.75 -3.68,-1.5c-1.88,-0.67 -3.83,-1.35 -3.83,-1.35c0,0 -2.62,1.43 -5.17,2.85c-2.63,1.5 -5.1,2.78 -5.1,2.78c0,0 -0.15,0.52 -0.45,1.27c-0.3,0.75 -0.68,1.73 -0.98,2.7c-0.37,1.06 -0.82,2.03 -1.12,2.71c-0.15,0.37 -0.3,0.67 -0.38,0.9c-0.07,0.22 -0.15,0.3 -0.15,0.3c0,0 1.65,0.75 3.3,1.5c1.58,0.75 3.15,1.5 3.15,1.5c0,0 2.63,-1.2 5.18,-2.4Z" style="fill:rgb(131,131,131);fill-rule:nonzero;"/>        </g>        <g transform="matrix(1.34311,0,0,1.34411,-120.899,-243.758)">            <path d="M319.1,348.67c-0.15,0.22 -0.15,0.3 -0.15,0.3c0,0 1.28,0.82 2.55,1.65c0.6,0.45 1.2,0.9 1.65,1.2c0.45,0.3 0.75,0.52 0.75,0.52c0,0 0.68,-0.22 1.58,-0.6c0.97,-0.3 2.25,-0.82 3.52,-1.27c2.55,-1.05 5.25,-2.1 5.25,-2.1c0,0 0.08,-0.08 0.23,-0.3c0.15,-0.23 0.37,-0.53 0.6,-0.9c0.52,-0.75 1.2,-1.73 1.87,-2.7c0.6,-0.98 1.28,-2.03 1.81,-2.78c0.45,-0.75 0.82,-1.27 0.82,-1.27c0,0 -1.43,-0.9 -2.93,-1.73c-1.5,-0.82 -3,-1.65 -3,-1.65c0,0 -2.62,1.2 -5.25,2.4c-2.55,1.13 -5.1,2.25 -5.1,2.25c0,0 -0.22,0.45 -0.67,1.13c-0.38,0.75 -0.9,1.65 -1.43,2.55c-0.6,0.97 -1.2,1.87 -1.57,2.55c-0.23,0.3 -0.38,0.6 -0.53,0.75Z" style="fill:rgb(131,131,131);fill-rule:nonzero;"/>        </g>        <g transform="matrix(1.34311,0,0,1.34411,-120.899,-204.63)">            <path d="M319.85,326.91c0,0 -0.3,0.38 -0.82,1.05c-0.45,0.6 -1.13,1.43 -1.8,2.33c-0.75,0.82 -1.43,1.65 -1.95,2.25c-0.53,0.6 -0.83,0.97 -0.83,0.97c0,0 0.23,0.23 0.6,0.53c0.38,0.37 0.83,0.75 1.28,1.2c0.45,0.45 0.9,0.9 1.27,1.2c0.3,0.37 0.6,0.6 0.6,0.6c0,0 0.53,-0.23 1.5,-0.45c0.9,-0.3 2.1,-0.68 3.3,-1.05c1.28,-0.38 2.48,-0.75 3.45,-1.05c0.98,-0.3 1.58,-0.45 1.58,-0.45c0,0 0.37,-0.45 1.05,-1.13c0.6,-0.67 1.35,-1.5 2.17,-2.4c0.83,-0.9 1.58,-1.8 2.18,-2.47c0.6,-0.75 0.97,-1.2 0.97,-1.2c0,0 -1.05,-0.91 -2.17,-1.81c-0.53,-0.45 -1.13,-0.9 -1.58,-1.27c-0.45,-0.3 -0.67,-0.53 -0.67,-0.53c0,0 -0.68,0.23 -1.65,0.6c-0.9,0.38 -2.18,0.83 -3.45,1.28c-2.55,0.9 -5.03,1.8 -5.03,1.8Z" style="fill:rgb(131,131,131);fill-rule:nonzero;"/>        </g>        <g transform="matrix(1.34311,0,0,1.34411,-120.899,-168.743)">            <path d="M314.83,321.81c1.2,-0.3 2.32,-0.52 3.22,-0.75c0.9,-0.22 1.5,-0.37 1.5,-0.37c0,0 1.8,-1.58 3.53,-3.08c0.9,-0.82 1.8,-1.57 2.47,-2.17c0.3,-0.3 0.6,-0.6 0.75,-0.75c0.23,-0.23 0.3,-0.3 0.3,-0.3c0,0 -0.75,-0.9 -1.5,-1.88c-0.82,-0.9 -1.65,-1.8 -1.65,-1.8c0,0 -2.47,0.75 -4.87,1.43c-2.4,0.67 -4.8,1.35 -4.8,1.35c0,0 -0.08,0.07 -0.23,0.22c-0.15,0.23 -0.37,0.45 -0.67,0.75c-0.6,0.53 -1.35,1.28 -2.18,2.03c-1.5,1.42 -3.08,2.85 -3.08,2.85c0,0 0.15,0.22 0.38,0.6c0.3,0.3 0.6,0.75 0.98,1.2c0.3,0.45 0.6,0.82 0.82,1.2c0.23,0.3 0.38,0.52 0.38,0.52c0,0 0.6,-0.15 1.42,-0.3c0.9,-0.22 2.03,-0.45 3.23,-0.75Z" style="fill:rgb(131,131,131);fill-rule:nonzero;"/>        </g>        <g transform="matrix(1.34311,0,0,1.34411,-120.899,-390.656)">            <path d="M337.4,397.95l0,1.5c0,0.97 -0.07,2.17 -0.07,3.37c-0.08,1.2 -0.15,2.4 -0.3,3.3c-0.08,0.9 -0.08,1.5 -0.08,1.5c0,0 2.41,0.45 4.73,0.98c2.4,0.52 4.73,1.05 4.73,1.05c0,0 2.77,-1.88 5.62,-3.9c2.93,-2.03 5.78,-4.13 5.78,-4.13c0,0 0.07,-0.6 0.22,-1.65c0.15,-0.97 0.38,-2.32 0.53,-3.67c0.15,-1.35 0.3,-2.78 0.37,-3.76c0.08,-1.05 0.15,-1.72 0.15,-1.72l-10.95,-1.8c0,0 -0.67,0.6 -1.65,1.5c-1.05,0.9 -2.32,2.1 -3.75,3.15c-2.62,2.18 -5.33,4.28 -5.33,4.28Z" style="fill:rgb(131,131,131);fill-rule:nonzero;"/>        </g>        <g transform="matrix(1.34311,0,0,1.34411,-120.899,-341.757)">            <path d="M356.31,371.62c-0.83,-0.23 -1.43,-0.38 -1.43,-0.38c0,0 -0.75,0.45 -1.8,1.2c-1.05,0.75 -2.47,1.73 -3.9,2.7c-2.77,1.8 -5.55,3.6 -5.55,3.6c0,0 -0.52,2.41 -1.12,4.81c-0.3,1.2 -0.6,2.32 -0.83,3.22c-0.15,0.45 -0.3,0.75 -0.37,1.05c-0.08,0.23 -0.08,0.38 -0.08,0.38c0,0 2.03,0.67 3.98,1.42c0.97,0.3 1.95,0.68 2.7,0.98c0.75,0.3 1.2,0.45 1.2,0.45c0,0 0.75,-0.38 1.8,-0.98c1.05,-0.67 2.47,-1.42 3.9,-2.32c2.92,-1.65 5.92,-3.45 5.92,-3.45c0,0 0,-0.15 0.15,-0.45c0.08,-0.23 0.23,-0.68 0.38,-1.13c0.37,-0.97 0.82,-2.25 1.2,-3.6c0.9,-2.63 1.65,-5.25 1.65,-5.25c0,0 -2.25,-0.75 -4.58,-1.43c-1.2,-0.3 -2.32,-0.6 -3.22,-0.82Z" style="fill:rgb(131,131,131);fill-rule:nonzero;"/>        </g>        <g transform="matrix(1.34311,0,0,1.34411,-120.899,-293.355)">            <path d="M356.91,353.84c0,0 -2.93,1.57 -5.78,3.22c-2.85,1.58 -5.62,3.08 -5.62,3.08c0,0 -0.23,0.52 -0.6,1.42c-0.38,0.83 -0.9,1.95 -1.43,3.08c-0.52,1.12 -1.05,2.17 -1.42,3c-0.23,0.45 -0.38,0.75 -0.53,0.98c-0.15,0.22 -0.15,0.37 -0.15,0.37c0,0 1.58,0.83 3.15,1.73c1.58,0.82 3.08,1.72 3.08,1.72c0,0 2.85,-1.35 5.7,-2.7c2.85,-1.35 5.77,-2.85 5.77,-2.85c0,0 0.08,-0.15 0.23,-0.38c0.15,-0.22 0.37,-0.6 0.6,-1.05c0.52,-0.9 1.27,-2.1 1.87,-3.37c0.6,-1.2 1.28,-2.4 1.8,-3.38c0.45,-0.9 0.75,-1.57 0.75,-1.57c0,0 -1.8,-0.9 -3.67,-1.73c-1.88,-0.82 -3.75,-1.57 -3.75,-1.57Z" style="fill:rgb(131,131,131);fill-rule:nonzero;"/>        </g>        <g transform="matrix(1.34311,0,0,1.34411,-120.899,-247.185)">            <path d="M343.33,342.67c0,0 -0.3,0.52 -0.82,1.27c-0.53,0.75 -1.2,1.8 -1.88,2.85c-0.67,0.98 -1.42,2.03 -1.95,2.78c-0.53,0.75 -0.9,1.2 -0.9,1.2c0,0 1.2,0.9 2.4,1.87c0.6,0.45 1.2,0.9 1.58,1.28c0.45,0.3 0.75,0.52 0.75,0.52c0,0 0.6,-0.22 1.65,-0.6c1.05,-0.37 2.47,-0.9 3.82,-1.5c2.78,-1.05 5.63,-2.17 5.63,-2.17c0,0 0.45,-0.53 1.05,-1.35c0.67,-0.83 1.5,-1.88 2.32,-3c0.83,-1.13 1.65,-2.25 2.25,-3.08c0.6,-0.82 0.98,-1.42 0.98,-1.42c0,0 -1.35,-0.98 -2.7,-1.95c-1.43,-0.9 -2.93,-1.88 -2.93,-1.88c0,0 -2.85,1.35 -5.7,2.63c-2.77,1.27 -5.55,2.55 -5.55,2.55Z" style="fill:rgb(131,131,131);fill-rule:nonzero;"/>        </g>        <g transform="matrix(1.34311,0,0,1.34411,-120.899,-204.133)">            <path d="M343.18,324.51c-2.77,0.98 -5.4,1.96 -5.4,1.96c0,0 -0.08,0.07 -0.3,0.3c-0.15,0.22 -0.45,0.52 -0.75,0.82c-0.6,0.75 -1.35,1.65 -2.25,2.55c-0.83,0.9 -1.58,1.8 -2.25,2.48c-0.6,0.67 -1.05,1.12 -1.05,1.12c0,0 0.22,0.23 0.52,0.53c0.38,0.37 0.75,0.82 1.2,1.35c0.38,0.45 0.83,0.9 1.13,1.27c0.3,0.38 0.45,0.6 0.45,0.6c0,0 0.67,-0.22 1.65,-0.52c0.97,-0.23 2.25,-0.68 3.6,-1.05c1.35,-0.45 2.63,-0.83 3.68,-1.2c0.97,-0.3 1.65,-0.53 1.65,-0.53c0,0 0.52,-0.45 1.2,-1.2c0.75,-0.67 1.72,-1.65 2.62,-2.62c0.98,-0.98 1.95,-1.95 2.63,-2.7c0.37,-0.38 0.67,-0.68 0.9,-0.9c0.15,-0.23 0.3,-0.38 0.3,-0.38c0,0 -0.98,-0.98 -1.95,-1.95c-0.53,-0.53 -1.05,-1.05 -1.43,-1.43c-0.37,-0.3 -0.67,-0.6 -0.67,-0.6c0,0 -0.68,0.3 -1.73,0.68c-1.05,0.37 -2.4,0.9 -3.75,1.42Z" style="fill:rgb(131,131,131);fill-rule:nonzero;"/>        </g>        <g transform="matrix(1.34311,0,0,1.34411,-120.899,-165.194)">            <path d="M329.53,311.97c0,0 -0.08,0.08 -0.23,0.23c-0.22,0.22 -0.52,0.45 -0.82,0.75c-0.75,0.6 -1.58,1.42 -2.55,2.25c-1.8,1.57 -3.6,3.07 -3.6,3.07c0,0 0.15,0.23 0.37,0.6c0.15,0.38 0.45,0.83 0.75,1.28c0.23,0.45 0.53,0.9 0.68,1.28c0.22,0.37 0.3,0.6 0.3,0.6c0,0 0.67,-0.15 1.57,-0.38c0.9,-0.22 2.1,-0.52 3.38,-0.82c1.2,-0.3 2.47,-0.61 3.45,-0.83c0.9,-0.23 1.57,-0.45 1.57,-0.45c0,0 2.1,-1.58 4.05,-3.23c1.06,-0.9 2.11,-1.72 2.86,-2.4c0.37,-0.3 0.67,-0.6 0.9,-0.75c0.22,-0.22 0.37,-0.3 0.37,-0.3c0,0 -0.6,-0.97 -1.27,-2.02c-0.68,-0.98 -1.43,-1.95 -1.43,-1.95c0,0 -2.63,0.82 -5.18,1.57c-2.62,0.75 -5.17,1.5 -5.17,1.5Z" style="fill:rgb(131,131,131);fill-rule:nonzero;"/>        </g>        <g transform="matrix(1.34311,0,0,1.34411,-120.899,-130.624)">            <path d="M317.53,307.41c1.2,-0.23 2.32,-0.45 3.22,-0.6c0.9,-0.23 1.43,-0.3 1.43,-0.3c0,0 0.6,-0.38 1.35,-0.9c0.82,-0.53 1.87,-1.2 2.92,-1.95c0.53,-0.3 1.05,-0.68 1.58,-1.05c0.45,-0.3 0.9,-0.68 1.35,-0.9c0.82,-0.6 1.35,-0.98 1.35,-0.98c0,0 -0.38,-0.9 -0.75,-1.87c-0.38,-0.98 -0.83,-1.88 -0.83,-1.88c0,0 -2.47,0.53 -4.95,1.13c-2.4,0.52 -4.72,1.05 -4.72,1.05c0,0 -0.53,0.37 -1.2,0.9c-0.38,0.22 -0.83,0.52 -1.2,0.9c-0.53,0.3 -0.98,0.67 -1.43,0.97c-0.97,0.68 -1.95,1.35 -2.62,1.88c-0.75,0.52 -1.28,0.82 -1.28,0.82c0,0 0.15,0.23 0.23,0.53c0.15,0.37 0.3,0.82 0.45,1.27c0.15,0.45 0.3,0.9 0.37,1.2c0.08,0.38 0.15,0.6 0.15,0.6c0,0 0.6,-0.15 1.43,-0.3c0.9,-0.15 2.02,-0.37 3.15,-0.52Z" style="fill:rgb(131,131,131);fill-rule:nonzero;"/>        </g>        <g transform="matrix(1.34311,0,0,1.34411,-120.899,-100.26)">            <path d="M304.55,295.62c1.05,-0.15 2.17,-0.3 3,-0.45c0.83,-0.08 1.35,-0.15 1.35,-0.15c0,0 2.18,-1.2 4.35,-2.4c2.18,-1.28 4.35,-2.55 4.35,-2.55c0,0 0,-0.23 -0.07,-0.53c-0.08,-0.37 -0.15,-0.82 -0.23,-1.27c-0.15,-0.9 -0.37,-1.8 -0.37,-1.8c0,0 -2.25,0.45 -4.5,0.82c-1.13,0.15 -2.25,0.38 -3.08,0.53c-0.82,0.07 -1.43,0.22 -1.43,0.22c0,0 -1.95,1.2 -3.97,2.4c-1.95,1.13 -3.98,2.33 -3.98,2.33c0,0 0.08,0.22 0.08,0.52c0.07,0.3 0.07,0.75 0.15,1.2c0.07,0.83 0.07,1.66 0.07,1.66c0,0 0.53,-0.08 1.28,-0.16c0.82,-0.07 1.87,-0.22 3,-0.37Z" style="fill:rgb(131,131,131);fill-rule:nonzero;"/>        </g>        <g transform="matrix(1.34311,0,0,1.34411,-120.899,-72.3293)">            <path d="M285.95,285.27c0.9,-0.15 1.95,-0.23 3.15,-0.38c0.22,-0.07 0.52,-0.07 0.82,-0.07c0.3,-0.08 0.6,-0.08 0.83,-0.15c0.52,-0.08 1.05,-0.15 1.5,-0.15c0.82,-0.15 1.35,-0.23 1.35,-0.23c0,0 0.67,-0.22 1.65,-0.67c0.97,-0.45 2.17,-0.98 3.37,-1.58c1.2,-0.52 2.33,-1.05 3.23,-1.5c0.9,-0.45 1.42,-0.67 1.42,-0.67c0,0 0.08,-0.23 0.08,-0.6c0.07,-0.3 0.15,-0.75 0.15,-1.13c0.07,-0.45 0.07,-0.9 0.07,-1.2c0.08,-0.3 0.08,-0.52 0.08,-0.52c0,0 -0.6,0.07 -1.35,0.15c-0.83,0.15 -1.88,0.22 -2.93,0.37c-1.05,0.15 -2.17,0.23 -2.92,0.38c-0.83,0.07 -1.35,0.15 -1.35,0.15c0,0 -0.53,0.22 -1.28,0.67c-0.82,0.38 -1.87,0.9 -3,1.5c-1.12,0.53 -2.25,1.05 -3.07,1.43c-0.9,0.45 -1.5,0.67 -1.5,0.67c0,0 -0.08,0.23 -0.23,0.6c-0.07,0.3 -0.3,0.75 -0.52,1.28c-0.23,0.45 -0.45,0.9 -0.6,1.2c-0.23,0.37 -0.3,0.6 -0.3,0.6c0,0 0.52,-0.08 1.35,-0.15Z" style="fill:rgb(131,131,131);fill-rule:nonzero;"/>        </g>    </g></svg>