<?xml version="1.0" encoding="UTF-8" standalone="no"?><!DOCTYPE svg PUBLIC "-//W3C//DTD SVG 1.1//EN" "http://www.w3.org/Graphics/SVG/1.1/DTD/svg11.dtd"><svg width="100%" height="100%" viewBox="0 0 512 512" version="1.1" xmlns="http://www.w3.org/2000/svg" xmlns:xlink="http://www.w3.org/1999/xlink" xml:space="preserve" style="fill-rule:evenodd;clip-rule:evenodd;stroke-linejoin:round;stroke-miterlimit:2;"><title>CrowdingLab</title><desc>We are online crowdfunding platform implementing radical changes in real estate investment opportunities where property developers and entrepreneurs can borrow funds from broad international investor base and investors can invest in secured property loans across EU. The platform presents only thoroughly verified and analysed real estate projects. Moreover, CrowdingLab provides all information on the projects, their risks, guarantees, etc. to the investors. </desc>    <g transform="matrix(1.82235,0,0,1.82235,-87.9092,-204.587)">        <g transform="matrix(2.9912,0,0,2.9912,-545.51,7.27574)">            <path d="M272.631,60.65c0,-0.406 -0.328,-0.734 -0.733,-0.734c-2.574,-0 -11.174,-0 -13.741,-0c-0.402,-0 -0.729,0.326 -0.729,0.729c0,5.67 0,42.506 0,42.506l4.056,-0l0,-9.703l7.092,0l-0,9.703l4.055,-0l0,-42.501Zm-4.055,4.492c-0,-0.155 -0.126,-0.281 -0.281,-0.281c-1.142,0 -5.426,0 -6.543,0c-0.071,0 -0.139,0.029 -0.189,0.079c-0.051,0.05 -0.079,0.118 -0.079,0.189l0,22.791l7.092,0l-0,-22.778Z" style="fill:rgb(0,131,63);"/>        </g>        <g transform="matrix(2.9912,0,0,2.9912,-545.51,7.27574)">            <path d="M289.769,73.409l-0,-12.597c-0,-0.405 -0.329,-0.734 -0.734,-0.734c-3.018,0 -14.316,0 -14.316,0l-0,43.073l17.524,-0l-0,-27.392c-0,-0.221 -0.101,-0.431 -0.273,-0.57c-0.643,-0.52 -2.201,-1.78 -2.201,-1.78Zm-9.995,10.302l0,15.384l8.413,-0l-0,-22.156c-0,-0.108 -0.063,-0.206 -0.162,-0.251c-0.098,-0.044 -0.214,-0.027 -0.295,0.044c-1.753,1.538 -7.956,6.979 -7.956,6.979Zm5.939,-13.242l0,-6.335l-5.939,-0l0,12.274l5.939,-5.939Z" style="fill:rgb(0,131,63);"/>        </g>        <g transform="matrix(2.9912,0,0,2.9912,-545.51,7.27574)">            <path d="M244.777,99.095l0,-39.017l-4.056,0l0,43.073l14.196,-0l-0,-4.056l-10.14,-0Z" style="fill:rgb(0,131,63);"/>        </g>        <g transform="matrix(230.549,0,0,230.549,48.7883,310.612)">            <path d="M0.217,-0.288c-0.01,0 -0.015,0.005 -0.015,0.016c0,0.017 0.031,0.04 0.063,0.04c0.034,0 0.067,-0.022 0.098,-0.065c0.031,-0.044 0.047,-0.088 0.047,-0.133c0,-0.063 -0.043,-0.11 -0.119,-0.11c-0.057,0 -0.109,0.019 -0.155,0.056c-0.045,0.037 -0.079,0.082 -0.102,0.135c-0.023,0.053 -0.034,0.108 -0.034,0.163c0,0.065 0.016,0.118 0.049,0.161c0.033,0.042 0.082,0.063 0.147,0.063c0.057,0 0.118,-0.04 0.165,-0.099c0.048,-0.059 0.078,-0.109 0.105,-0.162c0.003,-0.006 0,-0.011 -0.008,-0.016c-0.009,-0.005 -0.014,-0.005 -0.017,0.001c-0.021,0.043 -0.073,0.114 -0.154,0.178c-0.041,0.031 -0.078,0.047 -0.111,0.047c-0.083,0 -0.105,-0.035 -0.105,-0.116c0,-0.09 0.025,-0.173 0.076,-0.249c0.051,-0.076 0.112,-0.114 0.183,-0.114c0.023,0 0.035,0.011 0.035,0.033c0,0.031 -0.017,0.067 -0.051,0.109c-0.034,0.041 -0.066,0.062 -0.097,0.062Z" style="fill:rgb(0,18,2);fill-rule:nonzero;"/>        </g>    </g></svg>