<?xml version="1.0" encoding="UTF-8" standalone="no"?>
<!DOCTYPE svg PUBLIC "-//W3C//DTD SVG 1.1//EN" "http://www.w3.org/Graphics/SVG/1.1/DTD/svg11.dtd">
<svg width="100%" height="100%" viewBox="0 0 32 32" version="1.1" xmlns="http://www.w3.org/2000/svg" xmlns:xlink="http://www.w3.org/1999/xlink" xml:space="preserve" style="fill-rule:evenodd;clip-rule:evenodd;stroke-linejoin:round;stroke-miterlimit:2;">
    <g id="flow" transform="matrix(0.0627898,0,0,0.0627898,-0.0741886,-0.0742316)">
        <path d="M390.71,325.76l-56.06,-32.6l-0,-74.32l56.06,-32.6c2.131,-1.243 3.446,-3.532 3.446,-6c0,-3.811 -3.135,-6.946 -6.946,-6.946c-1.23,-0 -2.438,0.326 -3.5,0.946l-56.11,32.63l-64.69,-37.35l-0,-65c-0,-3.807 -3.133,-6.94 -6.94,-6.94c-3.807,-0 -6.94,3.133 -6.94,6.94l-0,65.71l-64.11,37l-56.68,-33c-1.062,-0.62 -2.27,-0.946 -3.5,-0.946c-3.811,-0 -6.946,3.135 -6.946,6.946c-0,2.468 1.315,4.757 3.446,6l57.22,33.27l-0,73l-57.22,33.27c-2.131,1.243 -3.446,3.532 -3.446,6c-0,3.811 3.135,6.946 6.946,6.946c1.23,0 2.438,-0.326 3.5,-0.946l56.68,-33l64.11,37l-0,65.71c-0,3.807 3.133,6.94 6.94,6.94c3.807,0 6.94,-3.133 6.94,-6.94l-0,-65l64.69,-37.35l56.11,32.63c1.062,0.62 2.27,0.946 3.5,0.946c3.811,0 6.946,-3.135 6.946,-6.946c0,-2.468 -1.315,-4.757 -3.446,-6Zm-198.33,-106.82l64.2,-37.06l63.84,36.86c-0,0.09 0.09,0.18 0.14,0.27c0.05,0.09 0.14,0.21 0.22,0.32l-0,73.34c-0.07,0.11 -0.15,0.22 -0.22,0.33c-0.07,0.11 -0.09,0.18 -0.14,0.28l-63.84,36.86l-64.2,-37.06l-0,-74.14Z" style="fill:url(#_Linear1);fill-rule:nonzero;"/>
        <path d="M256,494c-1.218,0 -2.415,-0.32 -3.47,-0.93l-200.1,-115.53c-2.141,-1.236 -3.466,-3.527 -3.47,-6l-0,-231.07c0.004,-2.473 1.329,-4.764 3.47,-6l200.1,-115.54c2.145,-1.238 4.795,-1.238 6.94,0l200.1,115.53c2.141,1.236 3.466,3.527 3.47,6l0,231.07c-0.004,2.473 -1.329,4.764 -3.47,6l-200.1,115.54c-1.055,0.61 -2.252,0.93 -3.47,0.93Zm-193.16,-126.48l193.16,111.48l193.16,-111.48l0,-223l-193.16,-111.52l-193.16,111.48l0,223.04Z" style="fill:url(#_Linear2);fill-rule:nonzero;"/>
    </g>
    <defs>
        <linearGradient id="_Linear1" x1="0" y1="0" x2="1" y2="0" gradientUnits="userSpaceOnUse" gradientTransform="matrix(138.16,-239.3,239.3,138.16,186.92,375.65)"><stop offset="0" style="stop-color:rgb(255,147,0);stop-opacity:1"/><stop offset="1" style="stop-color:rgb(216,70,98);stop-opacity:1"/></linearGradient>
        <linearGradient id="_Linear2" x1="0" y1="0" x2="1" y2="0" gradientUnits="userSpaceOnUse" gradientTransform="matrix(207.04,-358.62,358.62,207.04,152.48,435.31)"><stop offset="0" style="stop-color:rgb(0,181,112);stop-opacity:1"/><stop offset="1" style="stop-color:rgb(0,172,228);stop-opacity:1"/></linearGradient>
    </defs>
</svg>
