<?xml version="1.0" encoding="UTF-8" standalone="no"?>
<!DOCTYPE svg PUBLIC "-//W3C//DTD SVG 1.1//EN" "http://www.w3.org/Graphics/SVG/1.1/DTD/svg11.dtd">
<svg width="100%" height="100%" viewBox="0 0 64 64" version="1.1" xmlns="http://www.w3.org/2000/svg" xmlns:xlink="http://www.w3.org/1999/xlink" xml:space="preserve" style="fill-rule:evenodd;clip-rule:evenodd;stroke-linejoin:round;stroke-miterlimit:2;">
    <g transform="matrix(0.184712,0,0,0.184712,-45.1453,-22.8721)">
        <g transform="matrix(1,0,0,1,116.867,-5.68434e-14)">
            <g transform="matrix(0.759525,0,0,0.761903,92.4978,111.961)">
                <g transform="matrix(1,0,0,1,15,17.0714)">
                    <path d="M396.528,164.998c7.811,0.251 13.564,11.678 6.045,17.769c-0.035,0.029 -0.232,0.18 -0.491,0.355c0,-0 -15.505,8.999 -30.633,17.78c-17.633,10.235 -28.48,29.043 -28.48,49.384c0,3.848 0,7.774 0,11.619c0,20.196 10.769,38.87 28.277,49.032c15.193,8.818 30.836,17.899 30.836,17.899c0,-0 4.626,2.845 5.556,6.956c1.211,5.356 -2.817,11.392 -8.493,12.121c-2.541,0.326 -5.186,-0.377 -7.259,-1.909c-0,-0 -15.318,-8.9 -30.341,-17.628c-17.709,-10.29 -39.593,-10.323 -57.334,-0.087c-3.324,1.918 -6.713,3.873 -10.034,5.789c-17.538,10.121 -28.343,28.786 -28.359,48.987c0.007,12.457 -0.004,25.936 -0.067,35.435c-0.136,7.107 -9.155,12.552 -15.605,8.128c-2.707,-1.857 -4.398,-5.059 -4.409,-8.369c-0,-0 -0,-18.094 -0,-35.655c0,-20.2 -10.801,-38.869 -28.342,-48.983c-3.264,-1.883 -6.593,-3.803 -9.86,-5.686c-17.634,-10.169 -39.383,-10.13 -56.98,0.103c-15.451,8.985 -31.43,18.277 -31.43,18.277c-0.797,0.453 -0.979,0.512 -1.477,0.699c-6.192,2.334 -14.237,-2.952 -13.445,-10.339c0.342,-3.191 2.285,-6.148 5.072,-7.737c0,0 16.219,-9.423 31.836,-18.497c17.635,-10.247 28.481,-29.063 28.481,-49.412c0,-3.408 0,-6.872 0,-10.279c0,-20.238 -10.789,-38.95 -28.331,-49.137c-15.744,-9.142 -32.188,-18.691 -32.188,-18.691c-6.021,-3.578 -6.45,-13.938 0.421,-17.465c3.048,-1.564 6.885,-1.441 9.835,0.316c0,-0 15.849,9.209 31.218,18.14c17.628,10.243 39.412,10.276 57.071,0.087c3.136,-1.81 6.329,-3.653 9.467,-5.463c17.711,-10.219 28.612,-29.076 28.602,-49.476c-0.023,-11.854 -0.026,-23.708 0.051,-35.561c0.132,-6.881 8.629,-12.41 15.161,-8.416c2.945,1.801 4.84,5.158 4.853,8.657c0,0 0,17.777 0,35.117c-0,20.193 10.784,38.86 28.305,48.993c3.416,1.976 6.907,3.994 10.326,5.972c17.632,10.197 39.399,10.174 57.009,-0.06c15.145,-8.802 30.672,-17.825 30.672,-17.825c-0,-0 2.311,-0.981 4.464,-0.94Zm-177.549,36.422c-17.516,10.119 -28.3,28.773 -28.3,48.955c0,3.684 0,7.439 0,11.123c0,20.168 10.776,38.809 28.28,48.921c3.077,1.778 6.21,3.588 9.291,5.367c17.666,10.206 39.462,10.199 57.121,-0.019c3.038,-1.758 6.127,-3.545 9.163,-5.302c17.593,-10.18 28.421,-28.925 28.421,-49.203c-0,-3.533 -0,-7.129 -0,-10.664c-0,-20.352 -10.881,-39.162 -28.552,-49.356c-2.959,-1.707 -5.967,-3.442 -8.927,-5.15c-17.727,-10.226 -39.586,-10.22 -57.306,0.018c-3.064,1.77 -6.128,3.54 -9.191,5.31Z" style="fill:url(#_Linear1);fill-rule:nonzero;"/>
                </g>
                <g transform="matrix(1,0,0,1,15,17.0714)">
                    <path d="M256.161,-1.499c1.628,0.04 3.232,0.467 4.665,1.247c71.909,40.698 143.141,82.579 214.711,123.869c2.953,1.736 4.871,4.984 4.961,8.421c0.813,82.577 0.002,165.163 0.002,247.744c-0.034,3.43 -1.895,6.707 -4.829,8.5c-71.261,41.911 -143.144,82.756 -214.829,123.939c-2.96,1.636 -6.685,1.655 -9.671,0.028c-71.891,-40.73 -143.139,-82.585 -214.708,-123.878c-2.953,-1.736 -4.87,-4.984 -4.961,-8.421c-0.813,-82.577 -0.002,-165.163 -0.002,-247.745c0.034,-3.428 1.895,-6.707 4.829,-8.499c71.224,-41.887 143.139,-82.588 214.709,-123.881c1.558,-0.882 3.334,-1.338 5.123,-1.324Zm-169.046,118.972c-22.033,12.712 -35.6,36.166 -35.601,61.544c0,43.252 0,110.997 0,154.164c0.001,25.241 13.494,48.569 35.409,61.212c37.368,21.56 95.937,55.351 133.405,76.968c22.067,12.731 49.277,12.731 71.344,0c37.467,-21.616 96.033,-55.406 133.402,-76.966c21.916,-12.645 35.412,-35.974 35.412,-61.218c-0,-43.123 -0,-110.768 -0,-154.024c-0,-25.462 -13.613,-48.994 -35.719,-61.748c-37.388,-21.571 -95.75,-55.243 -133.114,-76.8c-22.055,-12.724 -49.251,-12.724 -71.306,0c-44.411,25.623 -88.821,51.245 -133.232,76.868Z" style="fill:url(#_Linear2);fill-rule:nonzero;"/>
                </g>
            </g>
 
        </g>
    </g>
    <defs>
        <linearGradient id="_Linear1" x1="0" y1="0" x2="1" y2="0.00271143" gradientUnits="userSpaceOnUse" gradientTransform="matrix(138.89,-240.56,240.56,138.89,186.33,376.33)"><stop offset="0" style="stop-color:rgb(255,147,0);stop-opacity:1"/><stop offset="1" style="stop-color:rgb(216,70,98);stop-opacity:1"/></linearGradient>
        <linearGradient id="_Linear2" x1="0" y1="0" x2="1" y2="0.00271139" gradientUnits="userSpaceOnUse" gradientTransform="matrix(207,-358.54,358.54,207,152.5,435.27)"><stop offset="0" style="stop-color:rgb(0,181,112);stop-opacity:1"/><stop offset="1" style="stop-color:rgb(0,172,228);stop-opacity:1"/></linearGradient>
    </defs>
</svg>

