<?xml version="1.0" encoding="UTF-8" standalone="no"?><!DOCTYPE svg PUBLIC "-//W3C//DTD SVG 1.1//EN" "http://www.w3.org/Graphics/SVG/1.1/DTD/svg11.dtd"><svg width="100%" height="100%" viewBox="0 0 1024 512" version="1.1" xmlns="http://www.w3.org/2000/svg" xmlns:xlink="http://www.w3.org/1999/xlink" xml:space="preserve" style="fill-rule:evenodd;clip-rule:evenodd;stroke-linejoin:round;stroke-miterlimit:2;"><title>VIZIA</title><desc>VIZIA is a modern financial services provider, specializing in easy and fast consumer loans for both small and large life situations.VIZIA is operating in a fully online environment.VIZIA webpage offers consumer loans from 50 EUR to 2000 EUR with the term from 4 months to 24 months.VIZIA clients apply for the loan online and receive money in the bank account.</desc>    <g transform="matrix(0.540827,0,0,0.540827,2,118.089)">        <g transform="matrix(16.259,0,0,16.2571,-172.557,-3.42261)">            <path d="M52.208,1.1l-4.84,0c-1.25,0.011 -2.271,1.044 -2.268,2.294l0,27.3l4.84,0c1.25,-0.011 2.271,-1.044 2.268,-2.294l0,-27.3Z" style="fill:rgb(74,194,240);fill-rule:nonzero;"/>        </g>        <g transform="matrix(16.259,0,0,16.2571,0,-3.42261)">            <path d="M32.063,1.1l-6.5,0c-0.854,-0.006 -1.644,0.467 -2.042,1.223l-7.489,14.983l-7.487,-14.906c-0.384,-0.771 -1.184,-1.25 -2.045,-1.224l-6.5,0l14.9,29.66c0.213,0.454 0.671,0.746 1.172,0.746c0.501,0 0.959,-0.292 1.172,-0.746l14.819,-29.736Z" style="fill:rgb(74,194,240);fill-rule:nonzero;"/>        </g>        <g transform="matrix(16.259,0,0,16.2571,-234.748,-3.82903)">            <path d="M80.908,23.835l-8.47,0l3.932,-7.876l6.655,-13.23c0.079,-0.15 0.12,-0.317 0.12,-0.486c0,-0.566 -0.461,-1.034 -1.027,-1.043l-20.418,0l0,4.588c-0.003,1.25 1.019,2.284 2.269,2.294l8.469,0l-3.932,7.876l-6.655,13.229c-0.079,0.15 -0.12,0.317 -0.12,0.486c0,0.566 0.461,1.034 1.027,1.043l20.418,0l0,-4.587c0,-0.018 0.001,-0.035 0.001,-0.053c0,-1.23 -1.012,-2.241 -2.241,-2.241c-0.01,0 -0.019,0 -0.029,0" style="fill:rgb(74,194,240);fill-rule:nonzero;"/>        </g>        <g transform="matrix(16.259,0,0,16.2571,-372.641,-3.42261)">            <path d="M97.4,30.692l4.84,0c1.25,-0.01 2.272,-1.044 2.269,-2.294l0,-27.298l-4.84,0c-1.25,0.01 -2.272,1.044 -2.269,2.294l0,27.298Z" style="fill:rgb(74,194,240);fill-rule:nonzero;"/>        </g>        <g transform="matrix(16.259,0,0,16.2571,-414.004,1.22691)">            <path d="M109.4,30.406l6.5,0c0.854,0.006 1.644,-0.467 2.042,-1.223l7.49,-14.983l7.486,14.982c0.383,0.77 1.183,1.248 2.042,1.223l6.5,0l-14.819,-29.735c-0.213,-0.454 -0.671,-0.746 -1.172,-0.746c-0.501,0 -0.959,0.292 -1.172,0.746l-14.897,29.736Z" style="fill:rgb(74,194,240);fill-rule:nonzero;"/>        </g>    </g></svg>