<?xml version="1.0" encoding="UTF-8" standalone="no"?><!DOCTYPE svg PUBLIC "-//W3C//DTD SVG 1.1//EN" "http://www.w3.org/Graphics/SVG/1.1/DTD/svg11.dtd"><svg width="100%" height="100%" viewBox="0 0 1024 512" version="1.1" xmlns="http://www.w3.org/2000/svg" xmlns:xlink="http://www.w3.org/1999/xlink" xml:space="preserve" style="fill-rule:evenodd;clip-rule:evenodd;stroke-linejoin:round;stroke-miterlimit:2;"><title>Bergfürst</title><desc>BERGFÜRST is a crowdinvesting platform, where private investors can participate in individual real estate and property portfolios starting at 10 euros - with interest rates between 5.0% and 7.5% p.a.Investors benefit from a transparent presentation of the investment opportunities, ongoing information on the real estate and a trading platform on which they can offer their investments for sale even before maturity.</desc>    <g transform="matrix(1.27813,0,0,1.27813,-120.672,84.6705)">        <path d="M144.471,193.476c18.131,0 27.916,-11.08 27.916,-26.045c0,-11.656 -8.202,-21.872 -18.563,-23.455c8.922,-1.871 16.692,-10.073 16.692,-22.016c0,-13.526 -9.641,-24.462 -27.34,-24.462l-47.198,0l0,95.978l48.493,0Zm-4.605,-56.407l-27.052,0l0,-24.75l27.052,0c8.49,0 13.383,5.324 13.383,12.375c0,7.339 -4.893,12.375 -13.383,12.375Zm0.72,41.586l-27.772,0l0,-26.765l27.772,0c9.497,0 14.533,6.188 14.533,13.383c0,8.346 -5.468,13.382 -14.533,13.382Z" style="fill:rgb(56,56,56);fill-rule:nonzero;"/>        <path d="M255.126,193.476l0,-14.821l-48.924,0l0,-26.765l47.917,0l0,-14.821l-47.917,0l0,-24.75l48.924,0l0,-14.821l-65.76,0l0,95.978l65.76,0Z" style="fill:rgb(56,56,56);fill-rule:nonzero;"/>        <path d="M346.788,193.476l-23.599,-37.701c11.655,-1.87 22.879,-11.223 22.879,-28.203c0,-17.843 -12.519,-30.074 -31.513,-30.074l-42.161,0l0,95.978l16.836,0l0,-35.83l16.835,0l21.153,35.83l19.57,0Zm-34.391,-50.651l-23.167,0l0,-30.506l23.167,0c9.497,0 16.404,5.9 16.404,15.109c0,9.353 -6.907,15.397 -16.404,15.397Z" style="fill:rgb(56,56,56);fill-rule:nonzero;"/>        <path d="M409.094,195.347c16.548,0 30.075,-7.051 39.428,-17.556l0,-35.829l-45.471,0l0,14.821l28.779,0l0,14.821c-4.317,4.173 -12.951,8.634 -22.736,8.634c-18.994,0 -33.095,-14.678 -33.095,-34.679c0,-20.289 14.101,-34.679 33.095,-34.679c10.649,0 19.714,5.612 24.894,12.807l13.67,-7.914c-7.626,-10.936 -19.857,-19.858 -38.564,-19.858c-27.915,0 -50.363,19.426 -50.363,49.644c0,30.074 22.448,49.788 50.363,49.788Z" style="fill:rgb(56,56,56);fill-rule:nonzero;"/>        <path d="M482.913,193.476l0,-41.586l47.917,0l0,-14.821l-47.917,0l0,-24.75l48.924,0l0,-14.821l-65.76,0l0,95.978l16.836,0Z" style="fill:rgb(56,56,56);fill-rule:nonzero;"/>        <path d="M612.419,81.238c0,-4.749 -3.742,-8.49 -8.49,-8.49c-4.605,0 -8.346,3.741 -8.346,8.49c0,4.604 3.741,8.346 8.346,8.346c4.748,0 8.49,-3.742 8.49,-8.346Zm-30.075,0c0,-4.749 -3.741,-8.49 -8.489,-8.49c-4.605,0 -8.49,3.741 -8.49,8.49c0,4.604 3.885,8.346 8.49,8.346c4.748,0 8.489,-3.742 8.489,-8.346Zm6.332,113.965c27.916,0 41.586,-15.973 41.586,-39.715l0,-57.99l-17.124,0l0,57.558c0,15.253 -8.49,25.182 -24.462,25.182c-15.973,0 -24.462,-9.929 -24.462,-25.182l0,-57.558l-17.124,0l0,57.99c0,23.742 13.814,39.715 41.586,39.715Z" style="fill:rgb(56,56,56);fill-rule:nonzero;"/>        <path d="M725.089,193.476l-23.599,-37.701c11.655,-1.87 22.879,-11.223 22.879,-28.203c0,-17.843 -12.519,-30.074 -31.513,-30.074l-42.161,0l0,95.978l16.836,0l0,-35.83l16.835,0l21.153,35.83l19.57,0Zm-34.391,-50.651l-23.167,0l0,-30.506l23.167,0c9.497,0 16.404,5.9 16.404,15.109c0,9.353 -6.907,15.397 -16.404,15.397Z" style="fill:rgb(56,56,56);fill-rule:nonzero;"/>        <path d="M774.157,195.203c25.757,0 37.125,-13.814 37.125,-29.787c0,-35.686 -55.831,-24.606 -55.831,-42.593c0,-7.05 6.331,-11.943 16.116,-11.943c10.073,0 20.289,3.454 27.916,11.08l9.497,-12.519c-8.778,-8.634 -21.009,-13.526 -35.83,-13.526c-21.153,0 -34.967,12.231 -34.967,28.204c0,35.254 55.832,22.735 55.832,42.88c0,6.476 -5.325,13.239 -19.139,13.239c-13.382,0 -23.886,-6.332 -30.361,-13.383l-9.498,13.095c8.634,8.921 21.441,15.253 39.14,15.253Z" style="fill:rgb(56,56,56);fill-rule:nonzero;"/>        <path d="M864.955,193.476l0,-81.157l29.067,0l0,-14.821l-74.97,0l0,14.821l29.067,0l0,81.157l16.836,0Z" style="fill:rgb(56,56,56);fill-rule:nonzero;"/>    </g></svg>