<?xml version="1.0" encoding="UTF-8" standalone="no"?><!DOCTYPE svg PUBLIC "-//W3C//DTD SVG 1.1//EN" "http://www.w3.org/Graphics/SVG/1.1/DTD/svg11.dtd"><svg width="100%" height="100%" viewBox="0 0 1024 512" version="1.1" xmlns="http://www.w3.org/2000/svg" xmlns:xlink="http://www.w3.org/1999/xlink" xml:space="preserve" style="fill-rule:evenodd;clip-rule:evenodd;stroke-linejoin:round;stroke-miterlimit:2;"><title>SymCredit</title><desc>Symfonie Capital brings together a multinational team of specialists in finance and investment management. Our team includes professionals with a wealth of knowledge derived from careers that have spanned more than twenty years. Our experience includes working at major international banks in corporate finance, portfolio management and investment analysis, in addition to advising and managing startup and early stage companies.</desc>    <g transform="matrix(4.65753,0,0,4.65753,-12741.7,-1749.21)">        <g transform="matrix(0.432087,0,0,0.432087,1603.14,327.918)">            <g transform="matrix(4.16667,0,0,4.16667,2696.9,258.501)">                <path d="M0,8.807c-9.018,0 -15.116,-2.145 -15.116,-4.791c0,-2.439 5,-4.453 13.035,-4.753c-8.799,0.079 -15.856,2.349 -15.856,5.14c0,2.838 7.31,5.141 16.328,5.141c5.591,0 10.526,-0.885 13.469,-2.235c-2.976,0.922 -7.189,1.498 -11.86,1.498" style="fill:rgb(173,176,175);fill-rule:nonzero;"/>            </g>            <g transform="matrix(4.16667,0,0,4.16667,2706.95,214.905)">                <path d="M0,10.445c-6.377,-6.377 -9.172,-12.205 -7.301,-14.076c1.725,-1.725 6.684,0.386 12.578,5.856c-6.278,-6.167 -12.873,-9.551 -14.846,-7.578c-2.008,2.007 1.533,8.805 7.91,15.181c3.954,3.954 8.069,6.817 11.104,7.943c-2.756,-1.451 -6.142,-4.023 -9.445,-7.326" style="fill:rgb(173,176,175);fill-rule:nonzero;"/>            </g>            <g transform="matrix(4.16667,0,0,4.16667,2740.03,214.178)">                <path d="M0,6.077c0,-9.018 2.145,-15.116 4.791,-15.116c2.439,0 4.453,5 4.753,13.035c-0.079,-8.799 -2.35,-15.856 -5.14,-15.856c-2.839,0 -5.141,7.31 -5.141,16.328c0,5.591 0.886,10.526 2.235,13.469c-0.922,-2.976 -1.498,-7.189 -1.498,-11.86" style="fill:rgb(173,176,175);fill-rule:nonzero;"/>            </g>        </g>        <g transform="matrix(2.40649,0,0,0.737,1674.75,307.589)">            <g transform="matrix(14.7002,0,0,48,469.023,198.841)">                <path d="M0.042,-0.033c0.036,0.024 0.107,0.044 0.172,0.044c0.159,0 0.236,-0.091 0.236,-0.195c0,-0.099 -0.058,-0.154 -0.172,-0.198c-0.093,-0.036 -0.134,-0.067 -0.134,-0.13c0,-0.046 0.035,-0.101 0.127,-0.101c0.061,0 0.106,0.02 0.128,0.032l0.024,-0.071c-0.03,-0.017 -0.08,-0.033 -0.149,-0.033c-0.131,0 -0.218,0.078 -0.218,0.183c0,0.095 0.068,0.152 0.178,0.191c0.091,0.035 0.127,0.071 0.127,0.134c0,0.068 -0.052,0.115 -0.141,0.115c-0.06,0 -0.117,-0.02 -0.156,-0.044l-0.022,0.073Z" style="fill:rgb(0,81,135);fill-rule:nonzero;"/>            </g>            <g transform="matrix(14.7002,0,0,48,476.153,198.841)">                <path d="M0.009,-0.484l0.179,0.446c0.004,0.011 0.006,0.018 0.006,0.023c0,0.005 -0.003,0.012 -0.007,0.021c-0.02,0.045 -0.05,0.079 -0.074,0.098c-0.026,0.022 -0.055,0.036 -0.077,0.043l0.022,0.074c0.022,-0.004 0.065,-0.019 0.108,-0.057c0.06,-0.052 0.103,-0.137 0.166,-0.303l0.132,-0.345l-0.093,0l-0.096,0.284c-0.012,0.035 -0.022,0.072 -0.031,0.101l-0.002,0c-0.008,-0.029 -0.02,-0.067 -0.031,-0.099l-0.106,-0.286l-0.096,0Z" style="fill:rgb(0,81,135);fill-rule:nonzero;"/>            </g>            <g transform="matrix(14.7002,0,0,48,483.076,198.841)">                <path d="M0.073,0l0.086,0l0,-0.292c0,-0.015 0.002,-0.03 0.007,-0.043c0.014,-0.044 0.054,-0.088 0.109,-0.088c0.067,0 0.101,0.056 0.101,0.133l0,0.29l0.086,0l0,-0.299c0,-0.016 0.003,-0.032 0.007,-0.044c0.015,-0.043 0.054,-0.08 0.104,-0.08c0.071,0 0.105,0.056 0.105,0.149l0,0.274l0.086,0l0,-0.285c0,-0.168 -0.095,-0.21 -0.159,-0.21c-0.046,0 -0.078,0.012 -0.107,0.034c-0.02,0.015 -0.039,0.036 -0.054,0.063l-0.002,0c-0.021,-0.057 -0.071,-0.097 -0.137,-0.097c-0.08,0 -0.125,0.043 -0.152,0.089l-0.003,0l-0.004,-0.078l-0.077,0c0.003,0.04 0.004,0.081 0.004,0.131l0,0.353Z" style="fill:rgb(0,81,135);fill-rule:nonzero;"/>            </g>            <g transform="matrix(14.7002,0,0,48,495.336,198.841)">                <path d="M0.529,-0.091c-0.035,0.017 -0.089,0.028 -0.142,0.028c-0.164,0 -0.259,-0.106 -0.259,-0.271c0,-0.177 0.105,-0.278 0.263,-0.278c0.056,0 0.103,0.012 0.136,0.028l0.021,-0.071c-0.023,-0.012 -0.076,-0.03 -0.16,-0.03c-0.209,0 -0.352,0.143 -0.352,0.354c0,0.221 0.143,0.342 0.333,0.342c0.082,0 0.146,-0.017 0.178,-0.033l-0.018,-0.069Z" style="fill:rgb(0,81,135);fill-rule:nonzero;"/>            </g>            <g transform="matrix(14.7002,0,0,48,503.818,198.841)">                <path d="M0.073,0l0.087,0l0,-0.258c0,-0.015 0.002,-0.029 0.004,-0.041c0.012,-0.066 0.056,-0.113 0.118,-0.113c0.012,0 0.021,0.001 0.03,0.003l0,-0.083c-0.008,-0.002 -0.015,-0.003 -0.025,-0.003c-0.059,0 -0.112,0.041 -0.134,0.106l-0.004,0l-0.003,-0.095l-0.077,0c0.003,0.045 0.004,0.094 0.004,0.151l0,0.333Z" style="fill:rgb(0,81,135);fill-rule:nonzero;"/>            </g>            <g transform="matrix(14.7002,0,0,48,508.478,198.841)">                <path d="M0.462,-0.226c0.001,-0.009 0.003,-0.023 0.003,-0.041c0,-0.089 -0.042,-0.228 -0.2,-0.228c-0.141,0 -0.227,0.115 -0.227,0.261c0,0.146 0.089,0.245 0.238,0.245c0.077,0 0.13,-0.017 0.161,-0.031l-0.015,-0.063c-0.033,0.014 -0.071,0.025 -0.134,0.025c-0.088,0 -0.164,-0.049 -0.166,-0.168l0.34,0Zm-0.339,-0.063c0.007,-0.061 0.046,-0.143 0.135,-0.143c0.099,0 0.123,0.087 0.122,0.143l-0.257,0Z" style="fill:rgb(0,81,135);fill-rule:nonzero;"/>            </g>            <g transform="matrix(14.7002,0,0,48,515.843,198.841)">                <path d="M0.403,-0.71l0,0.289l-0.002,0c-0.022,-0.039 -0.072,-0.074 -0.146,-0.074c-0.118,0 -0.218,0.099 -0.217,0.26c0,0.147 0.09,0.246 0.207,0.246c0.079,0 0.138,-0.041 0.165,-0.095l0.002,0l0.004,0.084l0.079,0c-0.003,-0.033 -0.004,-0.082 -0.004,-0.125l0,-0.585l-0.088,0Zm0,0.507c0,0.014 -0.001,0.026 -0.004,0.038c-0.016,0.066 -0.07,0.105 -0.129,0.105c-0.095,0 -0.143,-0.081 -0.143,-0.179c0,-0.107 0.054,-0.187 0.145,-0.187c0.066,0 0.114,0.046 0.127,0.102c0.003,0.011 0.004,0.026 0.004,0.037l0,0.084Z" style="fill:rgb(0,81,135);fill-rule:nonzero;"/>            </g>            <g transform="matrix(14.7002,0,0,48,524.134,198.841)">                <path d="M0.161,0l0,-0.484l-0.088,0l0,0.484l0.088,0Zm-0.044,-0.675c-0.032,0 -0.055,0.024 -0.055,0.055c0,0.03 0.022,0.054 0.053,0.054c0.035,0 0.057,-0.024 0.056,-0.054c0,-0.031 -0.021,-0.055 -0.054,-0.055Z" style="fill:rgb(0,81,135);fill-rule:nonzero;"/>            </g>            <g transform="matrix(14.7002,0,0,48,527.574,198.841)">                <path d="M0.093,-0.573l0,0.089l-0.075,0l0,0.067l0.075,0l0,0.264c0,0.057 0.009,0.1 0.034,0.126c0.021,0.024 0.054,0.038 0.095,0.038c0.034,0 0.061,-0.006 0.078,-0.013l-0.004,-0.066c-0.013,0.004 -0.027,0.006 -0.051,0.006c-0.049,0 -0.066,-0.034 -0.066,-0.094l0,-0.261l0.126,0l0,-0.067l-0.126,0l0,-0.116l-0.086,0.027Z" style="fill:rgb(0,81,135);fill-rule:nonzero;"/>            </g>        </g>    </g></svg>