<?xml version="1.0" encoding="UTF-8" standalone="no"?><!DOCTYPE svg PUBLIC "-//W3C//DTD SVG 1.1//EN" "http://www.w3.org/Graphics/SVG/1.1/DTD/svg11.dtd"><svg width="100%" height="100%" viewBox="0 0 1024 512" version="1.1" xmlns="http://www.w3.org/2000/svg" xmlns:xlink="http://www.w3.org/1999/xlink" xml:space="preserve" style="fill-rule:evenodd;clip-rule:evenodd;stroke-linejoin:round;stroke-miterlimit:2;"><title>Grow.ly</title><desc>Grow.ly is a Spanish crowdlending platform registered with CNMV, where a number of people lend directly to SMEs financing their growth projects, supporting the heart of the economy and collaborating with their development. In Grow.ly a single loan is financed by a multitude of investors and a single investor can finance a multitude of companies deciding which companies to lend, what amount and at what interest rate.</desc>    <g transform="matrix(0.361262,0,0,0.361262,327.034,163.517)">        <g transform="matrix(8.33333,0,0,8.33333,-2527.42,-2830.52)">            <path d="M231.268,368.201l-16.062,0c-1.029,0 -1.865,0.833 -1.865,1.861l0,5.213c0,1.029 0.836,1.861 1.865,1.861l6.983,0l0,9.396c-0.504,0.836 -1.212,1.526 -2.153,2.107c-1.055,0.65 -2.658,0.983 -4.76,0.983c-2.812,0 -4.956,-0.919 -6.552,-2.805c-1.652,-1.952 -2.492,-4.938 -2.492,-8.868l0,-15.417c0,-3.855 0.782,-6.779 2.324,-8.69c1.466,-1.817 3.431,-2.699 6.009,-2.699c2.612,0 4.471,0.635 5.689,1.943c1.254,1.345 1.942,3.427 2.043,6.192c0.037,1.002 0.862,1.795 1.864,1.795l6.823,0c0.802,0 1.513,-0.512 1.767,-1.269l0.072,-0.212c0.072,-0.215 0.106,-0.442 0.098,-0.668c-0.212,-5.277 -1.911,-9.469 -5.056,-12.46c-3.142,-2.99 -7.651,-4.503 -13.405,-4.503c-5.717,0 -10.391,1.85 -13.893,5.502c-3.478,3.628 -5.243,8.74 -5.243,15.189l0,15.319c0,6.561 1.859,11.731 5.526,15.362c3.662,3.629 8.516,5.471 14.426,5.471c4.482,0 8.251,-0.931 11.204,-2.763c2.918,-1.813 5.074,-3.92 6.408,-6.264c0.161,-0.281 0.245,-0.6 0.245,-0.921l0,-18.794c0,-1.029 -0.835,-1.861 -1.865,-1.861" style="fill:rgb(78,78,78);fill-rule:nonzero;"/>        </g>        <g transform="matrix(8.33333,0,0,8.33333,-2527.42,-2830.24)">            <path d="M264.783,351.889l7.02,0c2.181,0 3.721,0.58 4.709,1.773c1.06,1.286 1.599,3.207 1.599,5.71c0,2.411 -0.544,4.252 -1.616,5.47c-1.024,1.163 -2.675,1.728 -5.047,1.728l-6.665,0l0,-14.681Zm24.774,39.82c-0.286,-1.209 -0.431,-2.551 -0.431,-3.991l0,-4.506c0,-3.376 -0.657,-6.284 -1.954,-8.649c-0.832,-1.515 -1.979,-2.769 -3.424,-3.75c1.267,-1.007 2.325,-2.192 3.161,-3.543c1.425,-2.296 2.145,-4.999 2.145,-8.031c0,-5.235 -1.547,-9.35 -4.599,-12.233c-3.023,-2.854 -7.281,-4.3 -12.652,-4.3l-16.099,0c-1.03,0 -1.865,0.832 -1.865,1.861l0,51.595c0,1.03 0.835,1.863 1.865,1.863l7.214,0c1.029,0 1.865,-0.833 1.865,-1.863l0,-20.408l7.908,0c1.731,0 2.985,0.574 3.949,1.807c1.046,1.336 1.577,3.258 1.577,5.708l0,4.372c0,1.835 0.122,3.605 0.356,5.251c0.284,1.982 0.987,3.534 2.092,4.607c0.348,0.338 0.814,0.526 1.3,0.526l7.428,0c1.03,0 1.865,-0.833 1.865,-1.863l0,-0.812c0,-0.496 -0.197,-0.969 -0.545,-1.318c-0.531,-0.528 -0.919,-1.309 -1.157,-2.323" style="fill:rgb(78,78,78);fill-rule:nonzero;"/>        </g>        <g transform="matrix(8.33333,0,0,8.33333,-2527.42,-2830.52)">            <path d="M333.155,386.716c-1.429,1.86 -3.451,2.764 -6.179,2.764c-2.622,0 -4.567,-0.903 -5.947,-2.759c-1.49,-2.004 -2.244,-5.102 -2.244,-9.211l0,-14.291c0,-4.064 0.749,-7.133 2.225,-9.122c1.372,-1.845 3.322,-2.741 5.966,-2.741c2.706,0 4.724,0.905 6.165,2.769c1.534,1.985 2.312,5.045 2.312,9.094l0,14.291c0,4.122 -0.774,7.218 -2.299,9.206m-6.178,-44.754c-5.763,0 -10.443,1.947 -13.912,5.791c-3.418,3.787 -5.153,9.026 -5.153,15.572l0,14.185c0,6.572 1.731,11.807 5.14,15.558c3.456,3.808 8.141,5.735 13.925,5.735c5.845,0 10.599,-1.924 14.124,-5.719c3.492,-3.754 5.261,-8.994 5.261,-15.574l0,-14.185c0,-6.554 -1.775,-11.799 -5.274,-15.587c-3.539,-3.833 -8.286,-5.776 -14.111,-5.776" style="fill:rgb(78,78,78);fill-rule:nonzero;"/>        </g>        <g transform="matrix(8.33333,0,0,8.33333,-2527.42,-2830.53)">            <path d="M415.769,342.706l-7.071,0c-0.897,0 -1.666,0.636 -1.832,1.516l-5.453,28.804l-7.002,-28.896c-0.202,-0.836 -0.952,-1.424 -1.811,-1.424l-5.723,0c-0.864,0 -1.613,0.59 -1.814,1.428l-6.908,28.856l-5.471,-28.769c-0.168,-0.88 -0.938,-1.515 -1.833,-1.515l-7.072,0c-0.559,0 -1.089,0.25 -1.443,0.682c-0.354,0.431 -0.497,0.999 -0.386,1.545l10.411,51.634c0.176,0.869 0.943,1.494 1.83,1.494l6.646,0c0.862,0 1.61,-0.591 1.813,-1.427l7.135,-29.565l7.078,29.562c0.199,0.838 0.95,1.43 1.813,1.43l6.644,0c0.889,0 1.654,-0.625 1.83,-1.494l10.449,-51.633c0.109,-0.546 -0.033,-1.113 -0.386,-1.546c-0.354,-0.432 -0.883,-0.682 -1.444,-0.682" style="fill:rgb(78,78,78);fill-rule:nonzero;"/>        </g>        <g transform="matrix(8.33333,0,0,8.33333,-2527.42,-2916.07)">            <path d="M500.449,384.866l-9.247,0l0,-24.246c0,-1.323 -1.074,-2.395 -2.4,-2.395l-4.163,0c-1.323,0 -2.397,1.072 -2.397,2.395l0,29.792c0,1.322 1.074,2.394 2.397,2.394l15.81,0c1.325,0 2.399,-1.072 2.399,-2.394l0,-3.153c0,-1.322 -1.074,-2.393 -2.399,-2.393" style="fill:rgb(78,78,78);fill-rule:nonzero;"/>        </g>        <g transform="matrix(8.33333,0,0,8.33333,-2527.42,-2916.08)">            <path d="M533.756,359.327c-0.44,-0.685 -1.202,-1.101 -2.019,-1.101l-4.614,0c-0.964,0 -1.835,0.577 -2.211,1.464l-3.957,9.369l-3.942,-9.365c-0.375,-0.89 -1.246,-1.468 -2.212,-1.468l-4.657,0c-0.817,0 -1.58,0.416 -2.02,1.103c-0.441,0.686 -0.501,1.551 -0.158,2.293l8.452,18.326l0,10.465c0,1.321 1.076,2.393 2.401,2.393l4.142,0c1.326,0 2.4,-1.072 2.4,-2.393l0,-10.199l8.556,-18.595c0.34,-0.741 0.282,-1.605 -0.161,-2.292" style="fill:rgb(78,78,78);fill-rule:nonzero;"/>        </g>        <g transform="matrix(8.33333,0,0,8.33333,-2527.42,-2879)">            <path d="M464.213,370.123c-0.064,-0.284 -0.314,-0.486 -0.607,-0.486l-0.007,0l-6.683,0.082l3.575,-5.871c0.145,-0.242 0.111,-0.552 -0.088,-0.756c-0.903,-0.924 -1.882,-1.709 -2.909,-2.332c-1.026,-0.622 -2.16,-1.123 -3.372,-1.49c-0.274,-0.082 -0.564,0.031 -0.713,0.272l-3.578,5.88l-3.02,-5.986c-0.13,-0.26 -0.426,-0.395 -0.714,-0.32c-2.191,0.579 -4.241,1.658 -5.923,3.122c-0.219,0.192 -0.277,0.506 -0.141,0.76l3.536,6.63l-7.437,-0.173c-0.282,-0.009 -0.552,0.193 -0.619,0.478c-0.51,2.155 -0.521,4.444 -0.027,6.621c0.064,0.284 0.283,0.515 0.612,0.481l6.711,-0.081l-3.579,5.878c-0.148,0.243 -0.112,0.554 0.088,0.757c0.892,0.907 1.86,1.677 2.877,2.295c1.038,0.631 2.188,1.135 3.416,1.504c0.272,0.085 0.565,-0.029 0.712,-0.271l3.572,-5.868l3.004,5.952c0.108,0.214 0.326,0.341 0.556,0.341c0.053,0 0.106,-0.006 0.158,-0.022c2.112,-0.553 4.11,-1.595 5.774,-3.01c0.224,-0.188 0.284,-0.506 0.147,-0.762l-3.52,-6.599l7.515,0.172c0.275,0.005 0.548,-0.19 0.618,-0.472c0.54,-2.179 0.56,-4.505 0.066,-6.726" style="fill:rgb(55,173,230);fill-rule:nonzero;"/>        </g>        <g transform="matrix(8.33333,0,0,8.33333,-2527.42,-2420.96)">            <path d="M533.703,345.808l0,-0.001c0,-3.215 -1.243,-3.72 -1.243,-3.72l-103.864,0c0,0 -1.24,0.506 -1.243,3.715l0,0.008c0,3.215 1.243,3.721 1.243,3.721l103.864,0c0,0 1.241,-0.507 1.243,-3.716l0,-0.005l0,-0.002Z" style="fill:rgb(55,173,230);fill-rule:nonzero;"/>        </g>    </g></svg>