<?xml version="1.0" encoding="UTF-8" standalone="no"?><!DOCTYPE svg PUBLIC "-//W3C//DTD SVG 1.1//EN" "http://www.w3.org/Graphics/SVG/1.1/DTD/svg11.dtd"><svg width="100%" height="100%" viewBox="0 0 1024 512" version="1.1" xmlns="http://www.w3.org/2000/svg" xmlns:xlink="http://www.w3.org/1999/xlink" xml:space="preserve" style="fill-rule:evenodd;clip-rule:evenodd;stroke-linejoin:round;stroke-miterlimit:2;"><title>Community Shares</title><desc>The CSU is a joint initiative between Locality and Co-operatives UK. Its objective is to support enterprises, promote good practice and raise awareness of community shares as a sustainable funding mechanism for community enterprises.</desc>    <g transform="matrix(3.84419,0,0,3.84419,-1866.41,-19.406)">        <g transform="matrix(1.33333,0,0,1.33333,503.119,40.1653)">            <path d="M0,15.212c2.706,0 4.918,-1.07 6.636,-3.212l3.53,3.636c-2.801,3.152 -6.102,4.73 -9.901,4.73c-3.8,0 -6.93,-1.201 -9.389,-3.601c-2.459,-2.4 -3.689,-5.429 -3.689,-9.089c0,-3.658 1.254,-6.712 3.76,-9.159c2.506,-2.447 5.57,-3.671 9.194,-3.671c4.048,0 7.436,1.541 10.167,4.625l-3.425,3.882c-1.741,-2.165 -3.907,-3.246 -6.494,-3.246c-2.071,0 -3.842,0.676 -5.312,2.028c-1.471,1.354 -2.207,3.176 -2.207,5.47c0,2.295 0.694,4.137 2.082,5.525c1.388,1.387 3.071,2.082 5.048,2.082" style="fill:rgb(60,83,88);fill-rule:nonzero;"/>        </g>        <g transform="matrix(1.33333,0,0,1.33333,572.207,54.8471)">            <path d="M0,-1.164l0,10.236l-5.33,0l0,-10.377c0,-1.505 -0.229,-2.612 -0.688,-3.318c-0.459,-0.706 -1.2,-1.06 -2.224,-1.06c-1.024,0 -1.929,0.384 -2.717,1.15c-0.789,0.763 -1.184,1.887 -1.184,3.369l0,10.236l-5.293,0l0,-18.99l5.293,0l0,2.153c1.459,-1.647 3.13,-2.471 5.013,-2.471c1.2,0 2.288,0.354 3.265,1.06c0.976,0.704 1.712,1.564 2.206,2.576c0.729,-1.152 1.712,-2.047 2.947,-2.681c1.236,-0.637 2.477,-0.955 3.724,-0.955c2.235,0 4.036,0.666 5.401,1.995c1.364,1.329 2.047,3.253 2.047,5.77l0,11.543l-5.331,0l0,-10.377c0,-2.917 -1.07,-4.378 -3.212,-4.378c-1.058,0 -1.976,0.384 -2.752,1.15c-0.777,0.763 -1.165,1.887 -1.165,3.369" style="fill:rgb(60,83,88);fill-rule:nonzero;"/>        </g>        <g transform="matrix(1.33333,0,0,1.33333,617.292,54.8471)">            <path d="M0,-1.164l0,10.236l-5.33,0l0,-10.377c0,-1.505 -0.229,-2.612 -0.688,-3.318c-0.459,-0.706 -1.2,-1.06 -2.224,-1.06c-1.023,0 -1.93,0.384 -2.718,1.15c-0.788,0.763 -1.183,1.887 -1.183,3.369l0,10.236l-5.294,0l0,-18.99l5.294,0l0,2.153c1.46,-1.647 3.13,-2.471 5.013,-2.471c1.2,0 2.288,0.354 3.265,1.06c0.976,0.704 1.711,1.564 2.205,2.576c0.73,-1.152 1.712,-2.047 2.948,-2.681c1.234,-0.637 2.477,-0.955 3.723,-0.955c2.236,0 4.036,0.666 5.401,1.995c1.364,1.329 2.047,3.253 2.047,5.77l0,11.543l-5.329,0l0,-10.377c0,-2.917 -1.071,-4.378 -3.212,-4.378c-1.06,0 -1.977,0.384 -2.753,1.15c-0.778,0.763 -1.165,1.887 -1.165,3.369" style="fill:rgb(60,83,88);fill-rule:nonzero;"/>        </g>        <g transform="matrix(1.33333,0,0,1.33333,655.458,53.6701)">            <path d="M0,1.201l0,-10.237l5.33,0l0,18.991l-5.33,0l0,-2.507c-1.318,1.86 -3.018,2.789 -5.1,2.789c-2.083,0 -3.83,-0.653 -5.241,-1.959c-1.412,-1.305 -2.119,-3.241 -2.119,-5.807l0,-11.507l5.33,0l0,10.343c0,2.918 1.07,4.377 3.211,4.377c1.06,0 1.978,-0.383 2.754,-1.148c0.777,-0.765 1.165,-1.876 1.165,-3.335" style="fill:rgb(60,83,88);fill-rule:nonzero;"/>        </g>        <g transform="matrix(1.33333,0,0,1.33333,675.13,55.3193)">            <path d="M0,-1.872l0,10.59l-5.295,0l0,-18.99l5.295,0l0,2.118c1.601,-1.624 3.4,-2.436 5.401,-2.436c1.999,0 3.677,0.706 5.029,2.117c1.354,1.413 2.03,3.298 2.03,5.648l0,11.543l-5.294,0l0,-10.73c0,-2.917 -1.071,-4.377 -3.213,-4.377c-1.058,0 -1.983,0.383 -2.77,1.146c-0.789,0.766 -1.183,1.89 -1.183,3.371" style="fill:rgb(60,83,88);fill-rule:nonzero;"/>        </g>        <g transform="matrix(1.33333,0,0,1.33333,0,-1024.26)">            <path d="M528.021,818.402l-5.295,0l0,-18.99l5.295,0l0,18.99Zm-4.854,-21.408c-0.601,-0.599 -0.9,-1.335 -0.9,-2.207c0,-0.868 0.299,-1.605 0.9,-2.204c0.599,-0.601 1.335,-0.9 2.205,-0.9c0.872,0 1.607,0.299 2.208,0.9c0.598,0.599 0.899,1.336 0.899,2.204c0,0.872 -0.301,1.608 -0.899,2.207c-0.601,0.601 -1.336,0.9 -2.208,0.9c-0.87,0 -1.606,-0.299 -2.205,-0.9" style="fill:rgb(60,83,88);fill-rule:nonzero;"/>        </g>        <g transform="matrix(1.33333,0,0,1.33333,716.639,67.3197)">            <path d="M0,-24.955l0,5.682l4.59,0l0,4.13l-4.59,0l0,8.19c0,0.729 0.189,1.299 0.566,1.711c0.376,0.412 0.822,0.619 1.339,0.619c0.989,0 1.824,-0.449 2.507,-1.342l1.977,3.706c-1.647,1.505 -3.384,2.259 -5.206,2.259c-1.823,0 -3.366,-0.601 -4.625,-1.8c-1.259,-1.2 -1.888,-2.836 -1.888,-4.907l0,-18.248l5.33,0Z" style="fill:rgb(60,83,88);fill-rule:nonzero;"/>        </g>        <g transform="matrix(1.33333,0,0,1.33333,737.863,53.4357)">            <path d="M0,8.719c-5.107,0 -7.659,-2.73 -7.659,-8.188l0,-9.391l5.329,0l0,7.695c0,1.883 0.254,3.212 0.759,3.99c0.506,0.774 1.377,1.164 2.612,1.164c1.235,0 2.172,-0.372 2.807,-1.111c0.635,-0.741 0.952,-1.795 0.952,-3.16l0,-8.612l5.33,0l0,15.954c0,3.318 -0.877,5.906 -2.629,7.764c-1.754,1.859 -4.007,2.789 -6.76,2.789c-2.141,0 -4.018,-0.54 -5.63,-1.622c-1.613,-1.083 -2.806,-2.638 -3.583,-4.66l4.554,-1.977c0.916,2.494 2.447,3.741 4.589,3.741c1.342,0 2.411,-0.5 3.212,-1.5c0.8,-1 1.2,-2.265 1.2,-3.794c0,-0.213 -0.013,-0.425 -0.036,-0.636c-1.482,1.036 -3.165,1.554 -5.047,1.554" style="fill:rgb(60,83,88);fill-rule:nonzero;"/>        </g>        <g transform="matrix(1.33333,0,0,1.33333,496.817,104.648)">            <path d="M0,-14.542c-0.529,0.436 -0.794,1.012 -0.794,1.73c0,0.715 0.323,1.287 0.971,1.71c0.646,0.424 2.14,0.925 4.483,1.502c2.341,0.576 4.157,1.44 5.452,2.593c1.295,1.153 1.942,2.836 1.942,5.048c0,2.212 -0.829,4.006 -2.489,5.383c-1.658,1.374 -3.842,2.065 -6.547,2.065c-3.907,0 -7.425,-1.448 -10.554,-4.342l3.283,-4.023c2.658,2.329 5.117,3.492 7.377,3.492c1.012,0 1.806,-0.217 2.382,-0.653c0.577,-0.434 0.865,-1.023 0.865,-1.763c0,-0.742 -0.306,-1.331 -0.918,-1.765c-0.611,-0.436 -1.823,-0.877 -3.635,-1.325c-2.871,-0.682 -4.972,-1.57 -6.301,-2.664c-1.33,-1.094 -1.993,-2.811 -1.993,-5.154c0,-2.341 0.84,-4.147 2.523,-5.418c1.682,-1.27 3.782,-1.905 6.3,-1.905c1.647,0 3.294,0.281 4.942,0.845c1.646,0.566 3.082,1.367 4.306,2.402l-2.789,4.023c-2.141,-1.622 -4.352,-2.435 -6.635,-2.435c-0.919,0 -1.641,0.219 -2.171,0.654" style="fill:rgb(199,52,61);fill-rule:nonzero;"/>        </g>        <g transform="matrix(1.33333,0,0,1.33333,524.324,90.3141)">            <path d="M0,5.721l0,10.235l-5.294,0l0,-26.191l5.294,0l0,9.319c1.599,-1.623 3.394,-2.436 5.383,-2.436c1.988,0 3.665,0.705 5.03,2.119c1.364,1.412 2.047,3.294 2.047,5.647l0,11.542l-5.295,0l0,-10.377c0,-2.917 -1.07,-4.377 -3.211,-4.377c-1.059,0 -1.983,0.383 -2.771,1.147c-0.789,0.764 -1.183,1.888 -1.183,3.372" style="fill:rgb(199,52,61);fill-rule:nonzero;"/>        </g>        <g transform="matrix(1.33333,0,0,1.33333,551.996,98.8355)">            <path d="M0,0.105c0,1.553 0.46,2.82 1.377,3.795c0.918,0.977 1.988,1.466 3.212,1.466c1.223,0 2.259,-0.489 3.106,-1.466c0.847,-0.975 1.271,-2.236 1.271,-3.777c0,-1.541 -0.424,-2.829 -1.271,-3.864c-0.847,-1.037 -1.895,-1.553 -3.141,-1.553c-1.248,0 -2.318,0.511 -3.213,1.534c-0.894,1.024 -1.341,2.313 -1.341,3.865m-2.611,7.025c-1.813,-1.811 -2.718,-4.194 -2.718,-7.149c0,-2.952 0.928,-5.312 2.787,-7.076c1.86,-1.765 4.013,-2.648 6.461,-2.648c1.905,0 3.564,0.636 4.976,1.907l0,-1.588l5.33,0l0,18.989l-5.33,0l0,-1.553c-1.506,1.223 -3.224,1.836 -5.152,1.836c-2.425,0 -4.544,-0.906 -6.354,-2.718" style="fill:rgb(199,52,61);fill-rule:nonzero;"/>        </g>        <g transform="matrix(1.33333,0,0,1.33333,590.024,104.951)">            <path d="M0,-9.351c-1.577,0 -2.754,0.559 -3.53,1.675c-0.777,1.119 -1.165,2.594 -1.165,4.43l0,8.225l-5.294,0l0,-18.99l5.294,0l0,2.506c0.683,-0.776 1.536,-1.435 2.559,-1.978c1.023,-0.541 2.064,-0.822 3.124,-0.847l0.036,4.979l-1.024,0Z" style="fill:rgb(199,52,61);fill-rule:nonzero;"/>        </g>        <g transform="matrix(1.33333,0,0,1.33333,607.06,105.846)">            <path d="M0,-10.411c-1.294,0 -2.442,0.422 -3.441,1.27c-1.001,0.848 -1.501,2.026 -1.501,3.529c0,0.283 0.012,0.496 0.035,0.638l8.26,-3.354c-0.306,-1.389 -1.423,-2.083 -3.353,-2.083m-0.177,10.659c1.012,0 1.995,-0.252 2.947,-0.757c0.953,-0.507 1.712,-1.183 2.277,-2.032l3.036,3.283c-2.424,2.565 -5.16,3.848 -8.207,3.848c-3.047,0 -5.476,-0.93 -7.289,-2.79c-1.812,-1.857 -2.717,-4.229 -2.717,-7.112c0,-2.88 0.994,-5.217 2.984,-7.005c1.987,-1.789 4.275,-2.684 6.863,-2.684c2.589,0 4.753,0.731 6.495,2.19c1.742,1.459 2.683,3.34 2.823,5.647l0,0.671l-12.635,5.223c0.799,1.013 1.94,1.518 3.423,1.518" style="fill:rgb(199,52,61);fill-rule:nonzero;"/>        </g>        <g transform="matrix(1.33333,0,0,1.33333,642.026,94.1045)">            <path d="M0,7.201c0,1.87 -0.689,3.372 -2.065,4.501c-1.376,1.128 -3.124,1.694 -5.242,1.694c-1.412,0 -2.883,-0.253 -4.413,-0.759c-1.528,-0.506 -2.905,-1.254 -4.129,-2.243l2.33,-3.316c1.976,1.531 4.082,2.294 6.319,2.294c0.681,0 1.223,-0.135 1.622,-0.406c0.401,-0.27 0.601,-0.629 0.601,-1.075c0,-0.448 -0.277,-0.861 -0.83,-1.236c-0.553,-0.378 -1.353,-0.729 -2.399,-1.06c-1.049,-0.329 -1.848,-0.612 -2.401,-0.845c-0.552,-0.238 -1.183,-0.578 -1.888,-1.024c-1.436,-0.895 -2.153,-2.22 -2.153,-3.973c0,-1.752 0.705,-3.18 2.117,-4.287c1.413,-1.106 3.235,-1.661 5.471,-1.661c2.236,0 4.471,0.754 6.706,2.261l-1.975,3.53c-1.648,-1.132 -3.289,-1.696 -4.924,-1.696c-1.637,0 -2.453,0.446 -2.453,1.342c0,0.493 0.258,0.882 0.775,1.165c0.518,0.283 1.377,0.611 2.578,0.988c1.2,0.377 2.052,0.666 2.557,0.865c0.507,0.2 1.113,0.512 1.819,0.934c1.317,0.802 1.977,2.136 1.977,4.007" style="fill:rgb(199,52,61);fill-rule:nonzero;"/>        </g>        <g transform="matrix(-1.15467,0.666717,0.666717,1.15467,516,51.6212)">            <path d="M-9.549,7.634l10.151,0c0,-5.607 -4.545,-10.152 -10.152,-10.151c-1.868,0 -3.458,0.427 -5.075,1.36l5.076,8.791Z" style="fill:rgb(133,34,47);fill-rule:nonzero;"/>        </g>        <g transform="matrix(1.15467,0.666717,0.666717,-1.15467,535.981,55.1049)">            <path d="M-2.899,-0.777l10.152,0c0,-5.606 -4.545,-10.15 -10.151,-10.151c-1.867,0 -3.459,0.426 -5.076,1.36l5.075,8.791Z" style="fill:rgb(141,189,188);fill-rule:nonzero;"/>        </g>        <g transform="matrix(0,-1.33333,-1.33333,0,542.266,57.4532)">            <path d="M2.538,7.613l10.151,0c0,-5.606 -4.545,-10.151 -10.151,-10.151c-1.867,0 -3.459,0.426 -5.076,1.36l5.076,8.791Z" style="fill:rgb(199,52,61);fill-rule:nonzero;"/>        </g>    </g></svg>