<?xml version="1.0" encoding="UTF-8" standalone="no"?><!DOCTYPE svg PUBLIC "-//W3C//DTD SVG 1.1//EN" "http://www.w3.org/Graphics/SVG/1.1/DTD/svg11.dtd"><svg width="100%" height="100%" viewBox="0 0 1024 512" version="1.1" xmlns="http://www.w3.org/2000/svg" xmlns:xlink="http://www.w3.org/1999/xlink" xml:space="preserve" style="fill-rule:evenodd;clip-rule:evenodd;stroke-linejoin:round;stroke-miterlimit:2;"><title>Finbc</title><desc>finbc is a B2B platform. Corporates can not only act as customers but also dock on via API and integrate their service  offerings  into  a  joint  service  portfolio  while beneﬁtting  from  the  platform  architecture.  Thus,  the number of services will grow constantly. Furthermore, all ﬁnbc  members  can  become  an  investor  by  allocating liquidity to other members. </desc>    <g transform="matrix(1.00498,0,0,1.00396,2,-1.01308)">        <g transform="matrix(2.6074,0,0,2.6074,289.737,-17.1314)">            <g transform="matrix(1.09201,0,0,1.09201,4.06522,-14.6889)">                <path d="M-90.4,85.314c5.226,-23.073 25.887,-40.304 50.54,-40.304c24.653,-0 45.313,17.231 50.539,40.304c-9.395,-9.473 -22.42,-15.339 -36.804,-15.339c-4.759,0 -9.37,0.642 -13.735,1.9c-4.366,-1.258 -8.977,-1.9 -13.736,-1.9c-14.384,0 -27.409,5.866 -36.804,15.339Z" style="fill:rgb(102,188,255);"/>            </g>            <g transform="matrix(1.09201,0,0,1.09201,19.0647,12.5733)">                <path d="M-16.792,108.476c9.322,-9.376 15.081,-22.294 15.081,-36.546c0,-3.983 -0.45,-7.862 -1.345,-11.581c9.322,9.376 15.081,22.294 15.081,36.546c-0,28.637 -23.249,51.886 -51.885,51.886c-4.756,-0 -9.363,-0.642 -13.736,-1.857c18.314,-5.009 32.586,-19.825 36.804,-38.448Z" style="fill:rgb(143,238,246);"/>            </g>            <g transform="matrix(1.09201,0,0,1.09201,19.0647,12.5733)">                <path d="M-53.596,46.91c4.366,-1.258 8.976,-1.9 13.736,-1.9c14.384,-0 27.408,5.866 36.804,15.339c0.895,3.719 1.345,7.598 1.345,11.581c0,14.252 -5.759,27.17 -15.081,36.546c0.896,-3.718 1.346,-7.597 1.346,-11.581c-0,-23.877 -16.164,-44.008 -38.15,-49.985Z" style="fill:rgb(75,210,245);"/>            </g>            <g transform="matrix(1.09201,0,0,1.09201,-10.9342,12.5733)">                <path d="M-26.125,146.924c-4.373,1.215 -8.98,1.857 -13.735,1.857c-28.637,-0 -51.886,-23.249 -51.886,-51.886c0,-14.252 5.759,-27.17 15.082,-36.546c-0.896,3.719 -1.346,7.598 -1.346,11.581c-0,14.252 5.759,27.17 15.081,36.546c7.047,7.105 16.135,12.181 26.307,14.275c-10.172,-2.094 -19.26,-7.17 -26.307,-14.275c4.219,18.623 18.491,33.439 36.804,38.448Z" style="fill:rgb(92,108,254);"/>            </g>            <g transform="matrix(1.09201,0,0,1.09201,-10.9342,12.5733)">                <path d="M-26.125,146.924c-18.313,-5.009 -32.585,-19.825 -36.804,-38.448c7.047,7.105 16.135,12.181 26.307,14.275l5.171,0.794c1.752,0.179 3.528,0.27 5.326,0.27c1.793,0 3.564,-0.091 5.314,-0.27l0.012,-0l1.669,-0.256l3.457,-0.529l0.024,-0.006l0.022,-0.003l1.82,-0.471l3.104,-0.799l0.037,-0.013l0.03,-0.008l1.695,-0.624l3.004,-1.101l0.051,-0.024l0.034,-0.013l1.438,-0.697l3.012,-1.452l0.067,-0.04l0.033,-0.016l1.105,-0.676l3.073,-1.868l0.084,-0.063l0.028,-0.016l0.732,-0.552l3.151,-2.357l0.103,-0.094l0.016,-0.012l0.354,-0.323l3.213,-2.921l0.122,-0.135c-4.218,18.623 -18.49,33.439 -36.804,38.448Z" style="fill:rgb(73,171,245);"/>            </g>            <g transform="matrix(1.09201,0,0,1.09201,-10.9342,12.5733)">                <path d="M-76.664,60.349c9.395,-9.473 22.42,-15.339 36.804,-15.339c4.759,-0 9.37,0.642 13.735,1.9l-1.686,0.434l-2.031,0.744l-0.334,0.106l-0.375,0.154l-2.026,0.742l-1.246,0.6l-0.253,0.105l-0.665,0.338l-2.371,1.143l-0.66,0.401l-0.038,0.019l-0.455,0.281l-3.125,1.899l-1.937,1.449l-1.388,1.017l-0.181,0.156l-0.489,0.366l-1.253,1.139l-1.219,1.053l-0.527,0.534l-0.686,0.624l-0.829,0.912l-0.873,0.885l-0.844,1.004l-0.804,0.884l-0.489,0.654l-0.535,0.637l-1.182,1.658l-0.782,1.046l-0.216,0.355l-0.235,0.33l-2.04,3.413l-0.109,0.18l-0.128,0.265l-1.719,3.489l-0.168,0.426l-0.171,0.355l-0.397,1.084l-0.814,2.061l-0.279,0.923l-0.256,0.698l-0.255,0.991l-0.443,1.464l-0.321,1.506l-0.26,1.01l-0.112,0.727l-0.206,0.966l-0.292,2.297l-0.177,1.159l-0.02,0.387c-0.171,1.619 -0.248,3.258 -0.248,4.915l0.084,2.967c0.168,2.946 0.589,5.825 1.261,8.614c-9.322,-9.376 -15.081,-22.294 -15.081,-36.546c-0,-3.983 0.45,-7.862 1.346,-11.581Z" style="fill:rgb(70,159,253);"/>            </g>            <g transform="matrix(1.09201,0,0,1.09201,-10.9342,12.5733)">                <path d="M-26.125,46.91c21.987,5.977 38.15,26.108 38.15,49.985c-0,3.984 -0.45,7.863 -1.346,11.581c-9.395,9.473 -22.42,15.339 -36.804,15.339c-14.384,0 -27.408,-5.866 -36.804,-15.339c-0.896,-3.718 -1.345,-7.597 -1.345,-11.581c-0,-23.877 16.163,-44.008 38.149,-49.985Z" style="fill:rgb(60,196,245);"/>            </g>            <g transform="matrix(1.08354,0,0,1.08354,-5.68103,-11.6469)">                <path d="M-31.177,80.815l9.934,19.81l21.91,3.326l-15.771,15.569l3.608,21.866l-19.681,-10.188l-19.681,10.188l3.608,-21.866l-15.771,-15.569l21.91,-3.326l9.934,-19.81Z" style="fill:white;"/>            </g>        </g>        <g transform="matrix(7.73936,0,0,8.14027,-151.609,177.439)">            <g transform="matrix(48,0,0,48,89.0857,25.9884)">                <path d="M0.117,-0.373l0,0.373l-0.044,-0l0,-0.479l0.044,-0l0,0.03c0.04,-0.039 0.087,-0.059 0.14,-0.059c0.056,-0 0.103,0.017 0.138,0.053c0.036,0.035 0.054,0.08 0.055,0.134l-0,0.321l-0.044,0l-0,-0.317c-0,-0.041 -0.015,-0.075 -0.044,-0.104c-0.03,-0.029 -0.065,-0.043 -0.105,-0.043c-0.041,-0 -0.075,0.014 -0.105,0.042c-0.016,0.016 -0.027,0.033 -0.035,0.049Z" style="fill:rgb(65,195,240);fill-rule:nonzero;"/>            </g>            <g transform="matrix(0.336901,0,0,0.320308,57.1867,-18.9)">                <path d="M55.918,68.287l0,-4.108c0.14,-8.097 2.737,-14.805 7.792,-20.122c5.055,-5.317 11.618,-7.976 19.688,-7.976c5.631,0 10.748,1.652 15.349,4.954l-3.224,5.584c-3.552,-2.635 -7.594,-3.952 -12.125,-3.952c-5.751,-0 -10.725,2.158 -14.923,6.476c-4.197,4.317 -6.295,9.524 -6.295,15.622l-0,3.522l34.677,-0l-0,71.854l-6.261,0l-0,-65.269l-28.732,0l0,65.269l-6.261,0l0,-65.269l-6.957,0l0,-6.585l7.272,-0Z" style="fill:rgb(65,195,240);fill-rule:nonzero;"/>            </g>            <g transform="matrix(0.12857,0,0,0.122362,19.5893,-21.7625)">                <path d="M878.86,364.974c-19.416,20.423 -35.149,30.632 -62.764,30.632c-27.587,0 -48.543,-10.279 -68.11,-30.838c-3.888,-4.086 -7.352,-8.3 -10.39,-12.642l-0,38.117l-16.407,0l0,-264.585l16.407,0l-0,102.923c3.038,-4.342 6.502,-8.555 10.39,-12.642c19.567,-20.559 40.523,-30.838 68.11,-30.838c27.615,-0 43.348,10.21 62.764,30.632c18.11,-20.422 39.911,-30.632 65.407,-30.632c25.695,-0 47.615,10.279 65.759,30.838c3.719,4.214 7.044,8.556 9.974,13.025l-16.059,6.704c-1.691,-2.298 -3.494,-4.597 -5.41,-6.895c-14.989,-16.856 -33.077,-25.284 -54.264,-25.284c-21.075,0 -39.106,8.46 -54.095,25.379l-0.294,0.334c12.291,17.721 18.437,38.136 18.437,61.247c-0,22.984 -6.132,43.318 -18.397,61.005l0.254,0.289c14.989,16.983 33.02,25.475 54.095,25.475c21.187,0 39.275,-8.492 54.264,-25.475c1.916,-2.171 3.719,-4.405 5.41,-6.704l16.059,6.512c-2.93,4.598 -6.255,9.003 -9.974,13.217c-18.144,20.559 -40.064,30.838 -65.759,30.838c-25.496,0 -47.297,-10.209 -65.407,-30.632Zm-10.916,-134.734c-0.393,-0.428 -0.79,-0.853 -1.192,-1.276c-16.164,-16.983 -27.808,-25.475 -50.656,-25.475c-22.847,0 -39.732,8.492 -55.896,25.475c-11.91,12.514 -19.445,27.008 -22.604,43.48l-0,36.01c3.159,16.345 10.694,30.775 22.604,43.289c16.164,16.983 33.049,25.475 55.896,25.475c22.848,0 34.492,-8.46 50.656,-25.379c0.417,-0.437 0.828,-0.876 1.233,-1.316c-11.017,-17.49 -16.525,-37.579 -16.525,-60.265c0,-22.558 5.494,-42.563 16.484,-60.018Zm10.918,14.531c-7.449,13.403 -11.173,28.565 -11.173,45.487c-0,16.987 3.752,32.216 11.256,45.684c8.035,-13.404 12.052,-28.568 12.052,-45.493c-0,-16.984 -4.046,-32.211 -12.135,-45.678Z" style="fill:rgb(65,195,240);fill-rule:nonzero;"/>            </g>        </g>    </g></svg>