<?xml version="1.0" encoding="UTF-8" standalone="no"?><!DOCTYPE svg PUBLIC "-//W3C//DTD SVG 1.1//EN" "http://www.w3.org/Graphics/SVG/1.1/DTD/svg11.dtd"><svg width="100%" height="100%" viewBox="0 0 1024 512" version="1.1" xmlns="http://www.w3.org/2000/svg" xmlns:xlink="http://www.w3.org/1999/xlink" xml:space="preserve" style="fill-rule:evenodd;clip-rule:evenodd;stroke-linejoin:round;stroke-miterlimit:2;"><title>Linked Finance</title><desc>At Linked Finance, we work with accountants, financial advisors and business consultants all across Ireland. We understand that financial professionals can be valuable allies in our mission to revolutionise the way SME lending works.On Linked Finance, you can lend to limited companies, sole traders and partnerships, who are looking for loans of between €5,000 and €250,000</desc>    <g transform="matrix(1.2917,0,0,1.2917,-6.29596,-310.785)">        <g transform="matrix(7.6248,0,0,7.6248,64.0584,409.892)">            <path d="M0,8.153l0,1.64l-7.559,0l0,-11.433l2.086,0l0,9.793l5.473,0Z" style="fill:rgb(26,26,26);fill-rule:nonzero;"/>        </g>        <g transform="matrix(7.6248,0,0,7.6248,123.016,474.804)">            <path d="M0,-5.821c0.863,-0.771 1.641,-1.28 2.814,-1.28c1.641,0 3.43,0.956 3.43,3.114l0,5.267l-2.023,0l0,-4.851c0,-1.345 -0.943,-1.902 -1.948,-1.902c-0.692,0 -1.245,0.222 -2.121,1.097l0,5.656l-2.023,0l0,-8.166l1.788,0l0.083,1.065Z" style="fill:rgb(26,26,26);fill-rule:nonzero;"/>        </g>        <g transform="matrix(7.6248,0,0,7.6248,224.655,457.384)">            <path d="M0,-4.602l2.295,0l-3.054,3.342l3.483,4.824l-2.374,0l-2.334,-3.384l-1.021,1.039l0,2.345l-2.023,0l0,-11.73l2.023,0l0,6.782l3.005,-3.218Z" style="fill:rgb(26,26,26);fill-rule:nonzero;"/>        </g>        <g transform="matrix(7.6248,0,0,7.6248,307.396,429.714)">            <path d="M0,6.192c-0.828,0.751 -2.001,1.179 -3.447,1.179c-2.831,0 -4.376,-1.894 -4.376,-4.275c0,-2.345 1.493,-4.275 4.326,-4.275c2.699,0 4.134,1.598 4.134,4.001c0,0.284 -0.026,0.63 -0.085,0.951l-6.368,0c0.197,1.275 1.079,2.036 2.369,2.076c0.847,0.048 1.798,-0.196 2.589,-0.665l0.858,1.008Zm-1.235,-3.572l0.008,-0.239c0,-0.116 -0.006,-0.224 -0.018,-0.312c-0.104,-1.208 -0.905,-1.725 -2.196,-1.725c-1.489,0 -2.277,0.942 -2.361,2.163l-0.005,0.113l4.572,0Z" style="fill:rgb(26,26,26);fill-rule:nonzero;"/>        </g>        <g transform="matrix(7.6248,0,0,7.6248,373.362,396.363)">            <path d="M0,11.567l-0.087,-1.067c-0.71,0.89 -1.809,1.245 -2.83,1.245c-2.14,0 -3.825,-1.436 -3.825,-4.278c0,-2.766 1.622,-4.266 3.802,-4.266c0.904,0 1.695,0.252 2.704,1.111l0,-4.49l2.023,0l0,11.745l-1.787,0Zm-0.236,-5.577c-0.812,-0.915 -1.397,-1.176 -2.184,-1.176c-1.527,0 -2.299,0.954 -2.299,2.662c0,1.656 0.856,2.671 2.399,2.671c0.773,0 1.564,-0.29 2.084,-1.187l0,-2.97Z" style="fill:rgb(26,26,26);fill-rule:nonzero;"/>        </g>        <g transform="matrix(7.6248,0,0,7.6248,478.418,473.305)">            <path d="M0,-5.437c1.097,-0.949 1.896,-1.476 3.154,-1.476c1.664,0 3.469,0.994 3.469,3.029l0,5.36l-0.937,0l0,-5.192c0,-1.624 -1.393,-2.429 -2.748,-2.429c-1.053,0 -1.729,0.41 -2.877,1.447l0,6.174l-0.936,0l0,-8.166l0.841,0l0.034,1.253Z" style="fill:rgb(26,26,26);fill-rule:nonzero;"/>        </g>        <g transform="matrix(7.6248,0,0,7.6248,544.093,479.906)">            <path d="M0,-6.961c0.844,-0.469 1.949,-0.812 3.036,-0.812c1.796,0 3.624,1 3.624,3.029l0,5.354l-0.843,0l-0.033,-1.225c-0.888,1.013 -2.075,1.427 -3.268,1.427c-1.656,0 -3.192,-0.911 -3.192,-2.679c0,-1.896 1.702,-2.694 3.504,-2.694c1.029,0 2.101,0.261 2.896,0.717l0,-0.919c-0.011,-1.535 -1.447,-2.318 -2.843,-2.318c-0.949,0 -1.928,0.32 -2.625,0.711l-0.256,-0.591Zm5.726,3.759c-0.729,-0.471 -1.751,-0.739 -2.747,-0.739c-1.462,0 -2.772,0.6 -2.772,2.026c0,1.326 1.186,2.011 2.526,2.011c1.109,0 2.181,-0.367 2.993,-1.376l0,-1.922Z" style="fill:rgb(26,26,26);fill-rule:nonzero;"/>        </g>        <g transform="matrix(7.6248,0,0,7.6248,615.508,473.305)">            <path d="M0,-5.437c1.097,-0.949 1.896,-1.476 3.154,-1.476c1.665,0 3.469,0.994 3.469,3.029l0,5.36l-0.937,0l0,-5.192c0,-1.624 -1.393,-2.429 -2.748,-2.429c-1.053,0 -1.727,0.41 -2.878,1.447l0,6.174l-0.936,0l0,-8.166l0.842,0l0.034,1.253Z" style="fill:rgb(26,26,26);fill-rule:nonzero;"/>        </g>        <g transform="matrix(7.6248,0,0,7.6248,727.498,425.468)">            <path d="M0,7.327c-0.619,0.415 -1.583,0.635 -2.39,0.635c-2.653,0 -4.278,-1.83 -4.278,-4.297c0,-2.392 1.55,-4.3 4.278,-4.3c1.003,0 1.846,0.261 2.317,0.603l-0.514,0.603c-0.339,-0.257 -0.978,-0.442 -1.747,-0.442c-2.116,0 -3.396,1.485 -3.396,3.536c0,2.122 1.348,3.538 3.397,3.538c0.579,0 1.341,-0.152 1.821,-0.479l0.512,0.603Z" style="fill:rgb(26,26,26);fill-rule:nonzero;"/>        </g>        <g transform="matrix(7.6248,0,0,7.6248,790.788,427.176)">            <path d="M0,6.851c-0.869,0.585 -1.948,0.871 -3.113,0.871c-2.692,0 -4.23,-1.812 -4.23,-4.306c0,-2.419 1.439,-4.287 4.132,-4.287c2.48,0 3.905,1.285 3.905,3.747c0,0.285 -0.026,0.695 -0.094,1.067l-7.003,0c0.174,1.846 1.382,3.028 3.29,3.044c0.913,0.02 1.87,-0.18 2.712,-0.645l0.401,0.509Zm-0.226,-3.488c0.031,-0.229 0.044,-0.463 0.044,-0.652c0,-2.006 -1.113,-2.855 -3.008,-2.855c-2.069,0 -3.183,1.412 -3.217,3.326l0.001,0.181l6.18,0Z" style="fill:rgb(26,26,26);fill-rule:nonzero;"/>        </g>        <g transform="matrix(7.6248,0,0,7.6248,437.257,478.848)">            <path d="M0,-10.751c-1.035,0 -1.856,0.276 -2.448,0.805c-0.651,0.562 -0.938,1.34 -0.939,2.529l2.702,0l0,0.723l-2.702,0l0,7.443l-0.937,0l0,-7.443l-1.496,0l0,-0.723l1.496,0c0.002,-1.456 0.436,-2.459 1.29,-3.142c0.748,-0.621 1.801,-0.941 3.034,-0.907l0,0.715Z" style="fill:rgb(26,26,26);fill-rule:nonzero;"/>        </g>        <g transform="matrix(7.6248,0,0,7.6248,-2041.46,213.286)">            <rect x="277.869" y="27.414" width="2.024" height="8.16" style="fill:rgb(26,26,26);"/>        </g>        <g transform="matrix(-7.6248,0,0,7.6248,2211.4,116.688)">            <rect x="277.872" y="36.818" width="2.022" height="2.021" style="fill:rgb(232,70,36);"/>        </g>        <g transform="matrix(7.6248,0,0,7.6248,-2041.46,213.317)">            <rect x="326.672" y="27.41" width="0.937" height="8.164" style="fill:rgb(26,26,26);"/>        </g>        <g transform="matrix(-7.6248,0,0,7.6248,2947.29,112.691)">            <rect x="326.671" y="37.623" width="0.937" height="0.935" style="fill:rgb(232,70,36);"/>        </g>    </g></svg>