<?xml version="1.0" encoding="UTF-8" standalone="no"?><!DOCTYPE svg PUBLIC "-//W3C//DTD SVG 1.1//EN" "http://www.w3.org/Graphics/SVG/1.1/DTD/svg11.dtd"><svg width="100%" height="100%" viewBox="0 0 1024 512" version="1.1" xmlns="http://www.w3.org/2000/svg" xmlns:xlink="http://www.w3.org/1999/xlink" xml:space="preserve" style="fill-rule:evenodd;clip-rule:evenodd;stroke-linejoin:round;stroke-miterlimit:2;"><title>KNF</title><desc></desc>    <g id="logo" transform="matrix(4.3255,0,0,4.33044,1.64966,143.177)">        <path id="Fill-76" d="M88.393,16.288c7.56,-0.017 7.587,-6.121 7.587,-6.121l-26.745,0l0,31.616l6.939,0l0,-12.515l6.61,0c7.696,0 7.696,-6.118 7.696,-6.118l-0.02,0l0.005,-0.004l-14.291,0l0,-6.858l12.219,0Z" style="fill:rgb(40,40,120);"/>        <path id="Fill-78" d="M17.964,26.243c9.622,-6.133 10.632,-16.076 10.632,-16.076l-7.563,0c0,0 -2.359,11.234 -14.016,13.203l0,-13.203l-6.936,0l0,31.616l6.936,0l0,-11.632c1.489,-0.235 2.967,-0.549 4.383,-0.956c0.333,0.427 9.337,12.583 9.337,12.583l8.548,0c0,0 -10.938,-15 -11.321,-15.535" style="fill:rgb(40,40,120);"/>        <rect id="Fill-80" x="114.307" y="0.652" width="1.784" height="50.803" style="fill:rgb(40,40,120);"/>        <path id="Fill-82" d="M134.385,7.073l1.417,0l0,3.795l3.412,-3.795l1.734,0l-3.117,3.423l3.34,4.337l-1.742,0l-2.573,-3.343l-1.054,1.13l0,2.213l-1.417,0l0,-7.76Z" style="fill:rgb(40,40,120);"/>        <path id="Fill-83" d="M149.536,10.947c0,-1.48 -1.2,-2.722 -2.628,-2.722c-1.442,0 -2.652,1.242 -2.652,2.722c0,1.492 1.21,2.734 2.652,2.734c1.428,0 2.628,-1.242 2.628,-2.734m-6.719,0c0,-2.179 1.87,-4.009 4.091,-4.009c2.21,0 4.08,1.83 4.08,4.009c0,2.18 -1.87,4.021 -4.08,4.021c-2.221,0 -4.091,-1.841 -4.091,-4.021" style="fill:rgb(40,40,120);"/>        <path id="Fill-84" d="M153.741,7.073l1.416,0l2.562,4.733l2.572,-4.733l1.406,0l0,7.76l-1.406,0l0,-5.185l-2.572,4.733l-2.562,-4.733l0,5.185l-1.416,0l0,-7.76Z" style="fill:rgb(40,40,120);"/>        <rect id="Fill-85" x="164.803" y="7.074" width="1.405" height="7.76" style="fill:rgb(40,40,120);"/>        <path id="Fill-86" d="M168.745,13.704l0.816,-1.006c0.714,0.644 1.542,1.05 2.562,1.05c0.964,0 1.462,-0.474 1.462,-1.028c0,-0.643 -0.555,-0.858 -1.803,-1.152c-1.609,-0.372 -2.732,-0.835 -2.732,-2.292c0,-1.356 1.158,-2.35 2.802,-2.35c1.235,0 2.163,0.418 2.945,1.085l-0.77,1.039c-0.68,-0.587 -1.462,-0.914 -2.232,-0.914c-0.783,0 -1.316,0.473 -1.316,1.016c0,0.632 0.578,0.858 1.814,1.14c1.62,0.362 2.709,0.881 2.709,2.294c0,1.389 -1.065,2.371 -2.926,2.371c-1.337,0 -2.469,-0.452 -3.331,-1.253" style="fill:rgb(40,40,120);"/>        <path id="Fill-87" d="M177.041,13.681l0.952,-0.926c0.272,0.542 0.872,0.938 1.462,0.938c0.772,0 1.315,-0.611 1.315,-1.48l0,-5.14l1.405,0l0,5.23c0,1.559 -1.076,2.666 -2.595,2.666c-0.976,0 -2.029,-0.532 -2.539,-1.288" style="fill:rgb(40,40,120);"/>        <path id="Fill-88" d="M189.994,12.212l-1.37,-3.264l-1.372,3.264l2.742,0Zm0.511,1.22l-3.764,0l-0.59,1.401l-1.574,0l3.254,-7.76l1.573,0l3.253,7.76l-1.562,0l-0.59,-1.401Z" style="fill:rgb(40,40,120);"/>        <path id="Fill-89" d="M134.385,22.101l1.416,0l4.113,5.456l0,-5.456l1.407,0l0,7.76l-1.407,0l-4.113,-5.456l0,5.456l-1.416,0l0,-7.76Z" style="fill:rgb(40,40,120);"/>        <path id="Fill-90" d="M149.22,27.24l-1.372,-3.264l-1.371,3.264l2.743,0Zm0.51,1.22l-3.764,0l-0.589,1.4l-1.575,0l3.253,-7.759l1.576,0l3.252,7.759l-1.564,0l-0.589,-1.4Z" style="fill:rgb(40,40,120);"/>        <path id="Fill-91" d="M157.265,28.585c1.643,0 2.798,-1.084 2.798,-2.609c0,-1.525 -1.155,-2.599 -2.798,-2.599l-1.473,0l0,5.208l1.473,0Zm-2.89,-6.484l2.743,0c2.573,0 4.385,1.604 4.385,3.875c0,2.27 -1.812,3.885 -4.385,3.885l-2.743,0l0,-7.76Z" style="fill:rgb(40,40,120);"/>        <path id="Fill-92" d="M164.031,28.788l4.295,-5.4l-4.216,0l0,-1.287l6.143,0l0,1.073l-4.284,5.399l4.34,0l0,1.287l-6.278,0l0,-1.072Z" style="fill:rgb(40,40,120);"/>        <path id="Fill-93" d="M179.443,25.976c0,-1.48 -1.201,-2.723 -2.629,-2.723c-1.439,0 -2.653,1.243 -2.653,2.723c0,1.49 1.214,2.733 2.653,2.733c1.428,0 2.629,-1.243 2.629,-2.733m-6.72,0c0,-2.18 1.87,-4.011 4.091,-4.011c2.21,0 4.081,1.831 4.081,4.011c0,2.18 -1.871,4.02 -4.081,4.02c-2.221,0 -4.091,-1.84 -4.091,-4.02" style="fill:rgb(40,40,120);"/>        <path id="Fill-94" d="M184.973,25.952l1.814,0c0.964,0 1.632,-0.485 1.632,-1.276c0,-0.79 -0.668,-1.276 -1.632,-1.276l-1.814,0l0,2.552Zm3.343,3.908l-1.835,-2.608l-1.508,0l0,2.608l-1.417,0l0,-7.759l3.39,0c1.664,0 2.913,1.062 2.913,2.575c0,1.175 -0.76,2.078 -1.883,2.428l1.95,2.756l-1.61,0Z" style="fill:rgb(40,40,120);"/>        <path id="Fill-95" d="M192.52,26.551l0,-4.45l1.418,0l0,4.406c0,1.287 0.84,2.213 2.017,2.213c1.19,0 2.029,-0.926 2.029,-2.213l0,-4.406l1.405,0l0,4.45c0,2.022 -1.416,3.445 -3.434,3.445c-2.006,0 -3.435,-1.423 -3.435,-3.445" style="fill:rgb(40,40,120);"/>        <path id="Fill-96" d="M135.802,38.412l0,1.965l4.022,0l0,1.287l-4.022,0l0,3.22l-1.417,0l0,-7.76l5.859,0l0,1.288l-4.442,0Z" style="fill:rgb(40,40,120);"/>        <rect id="Fill-97" x="142.863" y="37.124" width="1.405" height="7.76" style="fill:rgb(40,40,120);"/>        <path id="Fill-98" d="M147.36,37.124l1.417,0l4.115,5.456l0,-5.456l1.404,0l0,7.76l-1.404,0l-4.115,-5.456l0,5.456l-1.417,0l0,-7.76Z" style="fill:rgb(40,40,120);"/>        <path id="Fill-99" d="M162.195,42.263l-1.371,-3.265l-1.371,3.265l2.742,0Zm0.511,1.219l-3.764,0l-0.588,1.401l-1.576,0l3.252,-7.759l1.576,0l3.253,7.759l-1.564,0l-0.589,-1.401Z" style="fill:rgb(40,40,120);"/>        <path id="Fill-100" d="M167.352,37.124l1.416,0l4.114,5.456l0,-5.456l1.406,0l0,7.76l-1.406,0l-4.114,-5.456l0,5.456l-1.416,0l0,-7.76Z" style="fill:rgb(40,40,120);"/>        <path id="Fill-101" d="M176.904,43.754l0.817,-1.005c0.713,0.643 1.541,1.05 2.562,1.05c0.963,0 1.461,-0.475 1.461,-1.028c0,-0.643 -0.557,-0.859 -1.801,-1.151c-1.611,-0.373 -2.732,-0.836 -2.732,-2.294c0,-1.355 1.155,-2.35 2.799,-2.35c1.236,0 2.165,0.42 2.947,1.085l-0.771,1.04c-0.68,-0.588 -1.461,-0.915 -2.232,-0.915c-0.783,0 -1.314,0.474 -1.314,1.017c0,0.632 0.577,0.857 1.812,1.14c1.62,0.361 2.71,0.881 2.71,2.293c0,1.389 -1.066,2.371 -2.925,2.371c-1.338,0 -2.47,-0.451 -3.333,-1.253" style="fill:rgb(40,40,120);"/>        <path id="Fill-102" d="M192.237,40.999c0,-1.481 -1.201,-2.724 -2.628,-2.724c-1.44,0 -2.652,1.243 -2.652,2.724c0,1.49 1.212,2.732 2.652,2.732c1.427,0 2.628,-1.242 2.628,-2.732m-6.72,0c0,-2.181 1.871,-4.011 4.092,-4.011c2.21,0 4.079,1.83 4.079,4.011c0,2.179 -1.869,4.02 -4.079,4.02c-2.221,0 -4.092,-1.841 -4.092,-4.02" style="fill:rgb(40,40,120);"/>        <path id="Fill-103" d="M195.557,37.124l1.552,0l1.668,5.556l1.846,-5.556l1.543,0l1.836,5.556l1.666,-5.556l1.553,0l-2.457,7.76l-1.421,0l-1.948,-5.76l-1.961,5.76l-1.405,0l-2.472,-7.76Z" style="fill:rgb(40,40,120);"/>        <path id="Fill-104" d="M211.084,38.412l0,1.875l4.022,0l0,1.287l-4.022,0l0,2.022l4.442,0l0,1.288l-5.859,0l0,-7.76l5.859,0l0,1.288l-4.442,0Z" style="fill:rgb(40,40,120);"/>        <path id="Fill-105" d="M221.84,40.614l3.32,0l0,3.14c-0.749,0.779 -1.963,1.265 -3.095,1.265c-2.232,0 -4.114,-1.841 -4.114,-4.02c0,-2.181 1.882,-4.011 4.114,-4.011c1.132,0 2.346,0.475 3.095,1.254l-1.009,0.937c-0.488,-0.564 -1.326,-0.904 -2.086,-0.904c-1.45,0 -2.674,1.243 -2.674,2.724c0,1.49 1.224,2.732 2.674,2.732c0.59,0 1.225,-0.203 1.712,-0.553l0,-1.411l-1.937,0l0,-1.153Z" style="fill:rgb(40,40,120);"/>        <path id="Fill-106" d="M234.441,40.999c0,-1.481 -1.202,-2.724 -2.629,-2.724c-1.439,0 -2.652,1.243 -2.652,2.724c0,1.49 1.213,2.732 2.652,2.732c1.427,0 2.629,-1.242 2.629,-2.732m-6.721,0c0,-2.181 1.871,-4.011 4.092,-4.011c2.209,0 4.08,1.83 4.08,4.011c0,2.179 -1.871,4.02 -4.08,4.02c-2.221,0 -4.092,-1.841 -4.092,-4.02" style="fill:rgb(40,40,120);"/>        <path id="Fill-75" d="M56.993,30.599l-15.513,-20.432l-6.889,0l0,31.616l6.889,0l0,-20.434l15.513,20.434l6.941,0l0,-31.616l-6.941,0l0,20.432Z" style="fill:rgb(40,40,120);"/>    </g></svg>