<?xml version="1.0" encoding="UTF-8" standalone="no"?><!DOCTYPE svg PUBLIC "-//W3C//DTD SVG 1.1//EN" "http://www.w3.org/Graphics/SVG/1.1/DTD/svg11.dtd"><svg width="100%" height="100%" viewBox="0 0 1024 512" version="1.1" xmlns="http://www.w3.org/2000/svg" xmlns:xlink="http://www.w3.org/1999/xlink" xml:space="preserve" style="fill-rule:evenodd;clip-rule:evenodd;stroke-linejoin:round;stroke-miterlimit:2;"><title>Funding Societies MY</title><desc>Launched in February 2017, Funding Societies is Malaysia’s first peer-to-peer (P2P) financing platform. The Malaysian-founded regional platform offers excellent short term financing solutions to SMEs and investment opportunities to individuals and institutions who wish to invest in Malaysian SMEs.</desc>    <g id="funding-societies512x256.svg" transform="matrix(2.21736,0,0,2.21736,-55.6532,-27.8226)">        <path d="M158.53,129c0.127,1.672 -0.409,3.328 -1.49,4.61c-1.057,1.052 -2.511,1.608 -4,1.53c-1.318,0.064 -2.606,-0.409 -3.57,-1.31c-0.949,-1.024 -1.435,-2.397 -1.34,-3.79l0,-14.41l-13.6,0l0,-0.25c0,-3.073 1.753,-4.477 5.26,-4.21l0,-6.17c-3.867,-0.233 -6.773,0.56 -8.72,2.38c-1.947,1.82 -2.92,4.487 -2.92,8l0,0.25l-3.57,0l0,6.14l3.57,0l0,18.63l6.39,0l0,-18.63l7.21,0l0,9.07c-0.161,2.763 0.794,5.477 2.65,7.53c1.757,1.811 4.197,2.803 6.72,2.73c3.373,0 5.833,-1.157 7.38,-3.47l0,2.78l6.39,0l0,-24.78l-6.39,0l0,13.37l0.03,0Zm25.06,-14.06c-3.373,0 -5.833,1.157 -7.38,3.47l0,-2.77l-6.39,0l0,24.76l6.39,0l0,-13.4c-0.128,-1.672 0.408,-3.329 1.49,-4.61c1.055,-1.055 2.51,-1.615 4,-1.54c1.317,-0.063 2.606,0.41 3.57,1.31c0.947,1.026 1.432,2.397 1.34,3.79l0,14.42l6.39,0l0,-15.19c0.161,-2.763 -0.794,-5.477 -2.65,-7.53c-1.759,-1.808 -4.199,-2.795 -6.72,-2.72m30.74,18.07c-1.285,1.322 -3.067,2.048 -4.91,2c-1.848,0.044 -3.634,-0.681 -4.93,-2c-2.595,-2.827 -2.595,-7.223 0,-10.05c1.296,-1.319 3.082,-2.044 4.93,-2c1.843,-0.049 3.625,0.677 4.91,2c2.563,2.84 2.563,7.21 0,10.05Zm1.93,-14.49c-1.924,-2.426 -4.908,-3.777 -8,-3.62c-3.262,-0.033 -6.384,1.35 -8.55,3.79c-4.706,5.265 -4.706,13.315 0,18.58c2.167,2.439 5.288,3.822 8.55,3.79c3.092,0.155 6.075,-1.195 8,-3.62l0,2.92l6.39,0l0,-34.63l-6.39,0l0,12.83l0,-0.04Zm14.5,-13.77c-1.042,-0.006 -2.041,0.426 -2.75,1.19c-0.747,0.727 -1.167,1.728 -1.16,2.77c0.047,2.127 1.783,3.863 3.91,3.91c1.053,0.016 2.067,-0.404 2.8,-1.16c0.753,-0.715 1.177,-1.712 1.17,-2.75c-0.016,-1.019 -0.437,-1.991 -1.17,-2.7c-0.725,-0.771 -1.742,-1.203 -2.8,-1.19" style="fill:rgb(64,64,65);fill-rule:nonzero;"/>        <path d="M227.63,140.39l6.37,0l0,-24.76l-6.39,0l0.02,24.76Zm25.1,-25.46c-3.373,0 -5.837,1.157 -7.39,3.47l0,-2.77l-6.34,0l0,24.76l6.39,0l0,-13.39c-0.129,-1.672 0.407,-3.329 1.49,-4.61c1.054,-1.056 2.509,-1.617 4,-1.54c1.318,-0.064 2.606,0.409 3.57,1.31c0.948,1.025 1.433,2.397 1.34,3.79l0,14.42l6.39,0l0,-15.19c0.16,-2.762 -0.795,-5.477 -2.65,-7.53c-1.759,-1.808 -4.199,-2.795 -6.72,-2.72m30.93,17.56c-2.826,2.552 -7.174,2.552 -10,0c-2.594,-2.694 -2.594,-7.016 0,-9.71c2.826,-2.552 7.174,-2.552 10,0c2.594,2.694 2.594,7.016 0,9.71Zm2,-13.79c-1.853,-2.491 -4.829,-3.902 -7.93,-3.76c-3.317,-0.061 -6.509,1.292 -8.77,3.72c-4.742,5.023 -4.742,12.977 0,18c2.275,2.423 5.477,3.766 8.8,3.69c3.103,0.141 6.081,-1.274 7.93,-3.77l0,2.68c0.105,1.679 -0.527,3.323 -1.73,4.5c-1.325,1.117 -3.029,1.686 -4.76,1.59c-3.073,0 -5.237,-1.157 -6.49,-3.47l-5.45,3.12c1.057,1.95 2.692,3.526 4.68,4.51c2.2,1.057 4.619,1.581 7.06,1.53c3.302,0.091 6.535,-0.97 9.14,-3c2.527,-2 3.79,-4.923 3.79,-8.77l0,-23.64l-6.25,0l0,3.07l-0.02,0Zm30.18,9l-4.43,-1.17c-1.332,-0.325 -2.602,-0.866 -3.76,-1.6c-0.986,-0.595 -1.579,-1.678 -1.55,-2.83c-0.031,-1.327 0.614,-2.582 1.71,-3.33c1.242,-0.86 2.73,-1.295 4.24,-1.24c1.355,-0.008 2.689,0.337 3.87,1c1.13,0.612 2.009,1.604 2.48,2.8l2.08,-1.19c-0.687,-1.511 -1.822,-2.775 -3.25,-3.62c-1.569,-0.918 -3.363,-1.382 -5.18,-1.34c-2.199,-0.098 -4.36,0.614 -6.07,2c-1.504,1.22 -2.371,3.063 -2.35,5c-0.082,1.489 0.475,2.945 1.53,4c1.055,1.007 2.355,1.72 3.77,2.07l4.43,1.17c1.337,0.327 2.604,0.893 3.74,1.67c0.977,0.645 1.556,1.75 1.53,2.92c0.052,1.385 -0.639,2.698 -1.81,3.44c-1.371,0.853 -2.967,1.275 -4.58,1.21c-1.641,0.056 -3.265,-0.346 -4.69,-1.16c-1.223,-0.719 -2.146,-1.856 -2.6,-3.2l-2.13,1.24c0.647,1.68 1.846,3.091 3.4,4c1.82,1.052 3.899,1.575 6,1.51c2.304,0.101 4.572,-0.607 6.41,-2c1.578,-1.193 2.493,-3.072 2.46,-5.05c0.072,-1.525 -0.476,-3.016 -1.52,-4.13c-1.03,-1.043 -2.328,-1.784 -3.75,-2.14m28.58,7.86c-4.094,4.062 -10.796,4.062 -14.89,0c-4.065,-4.136 -4.065,-10.864 0,-15c4.092,-4.068 10.798,-4.068 14.89,0c4.034,4.15 4.034,10.85 0,15m-7.44,-20.41c-3.46,-0.069 -6.802,1.283 -9.24,3.74c-5.033,5.041 -5.033,13.329 0,18.37c5.102,4.958 13.338,4.958 18.44,0c5.033,-5.041 5.033,-13.329 0,-18.37c-2.423,-2.449 -5.746,-3.801 -9.19,-3.74m34.43,22.09c-1.618,0.938 -3.46,1.418 -5.33,1.39c-2.8,0.08 -5.511,-1.007 -7.48,-3c-4.004,-4.163 -4.004,-10.837 0,-15c1.97,-1.992 4.68,-3.079 7.48,-3c1.87,-0.029 3.712,0.452 5.33,1.39c1.513,0.866 2.716,2.185 3.44,3.77l2,-1.19c-0.898,-1.953 -2.389,-3.573 -4.26,-4.63c-5.14,-2.87 -11.593,-2.056 -15.86,2c-4.927,5.112 -4.927,13.318 0,18.43c2.455,2.386 5.778,3.676 9.2,3.57c2.303,0.028 4.573,-0.562 6.57,-1.71c1.893,-1.063 3.436,-2.655 4.44,-4.58l-2.01,-1.23c-0.813,1.57 -2.059,2.875 -3.59,3.76m9.71,3.22l2.48,0l0,-24.76l-2.48,0l0,24.76Zm1.24,-34.67c-0.52,0.002 -1.018,0.207 -1.39,0.57c-0.381,0.349 -0.595,0.844 -0.59,1.36c-0.012,0.532 0.203,1.045 0.59,1.41c0.769,0.738 2.001,0.738 2.77,0c0.391,-0.363 0.609,-0.876 0.6,-1.41c0.005,-0.516 -0.209,-1.011 -0.59,-1.36c-0.368,-0.369 -0.869,-0.574 -1.39,-0.57m8.44,21.15c0.174,-2.589 1.326,-5.017 3.22,-6.79c1.906,-1.745 4.417,-2.684 7,-2.62c2.414,-0.039 4.751,0.857 6.52,2.5c1.902,1.81 3.032,4.287 3.15,6.91l-19.93,0l0.04,0Zm10.2,-11.78c-3.46,-0.122 -6.816,1.218 -9.24,3.69c-2.397,2.466 -3.693,5.802 -3.59,9.24c-0.118,3.47 1.212,6.838 3.67,9.29c2.492,2.444 5.881,3.761 9.37,3.64c2.239,0.04 4.452,-0.479 6.44,-1.51c1.803,-0.935 3.312,-2.35 4.36,-4.09l-2.18,-1.29c-0.793,1.386 -1.961,2.519 -3.37,3.27c-4.01,2.036 -8.866,1.522 -12.36,-1.31c-1.944,-1.717 -3.146,-4.124 -3.35,-6.71l22.45,0l0,-1.18c0.06,-3.37 -1.151,-6.641 -3.39,-9.16c-2.204,-2.549 -5.442,-3.975 -8.81,-3.88Zm20.78,-6.39l-2.53,0.74l0,6.19l-5.45,0l0,2.43l5.45,0l0,16.1c0,2.74 0.817,4.59 2.45,5.55c1.633,0.96 4.12,1.19 7.46,0.69l0,-2.23c-1.381,0.157 -2.772,0.197 -4.16,0.12c-0.921,-0.003 -1.801,-0.387 -2.43,-1.06c-0.608,-0.902 -0.887,-1.987 -0.79,-3.07l0,-16.1l7.38,0l0,-2.43l-7.36,0l0,-6.93l-0.02,0Zm11.22,31.7l2.48,0l0,-24.77l-2.48,0l0,24.77Zm1.24,-34.67c-0.52,0.002 -1.018,0.207 -1.39,0.57c-0.381,0.349 -0.595,0.844 -0.59,1.36c-0.012,0.532 0.203,1.045 0.59,1.41c0.769,0.738 2.001,0.738 2.77,0c0.387,-0.365 0.602,-0.878 0.59,-1.41c0.005,-0.516 -0.209,-1.011 -0.59,-1.36c-0.368,-0.369 -0.869,-0.574 -1.39,-0.57m8.44,21.15c0.174,-2.589 1.326,-5.017 3.22,-6.79c1.906,-1.745 4.417,-2.684 7,-2.62c2.414,-0.039 4.751,0.857 6.52,2.5c1.902,1.81 3.032,4.287 3.15,6.91l-19.89,0Zm10.33,-11.79c-3.46,-0.121 -6.815,1.219 -9.24,3.69c-2.397,2.466 -3.693,5.802 -3.59,9.24c-0.117,3.47 1.213,6.837 3.67,9.29c2.491,2.445 5.881,3.762 9.37,3.64c2.242,0.042 4.459,-0.477 6.45,-1.51c1.803,-0.935 3.312,-2.35 4.36,-4.09l-2.18,-1.29c-0.793,1.386 -1.961,2.519 -3.37,3.27c-4.01,2.036 -8.866,1.522 -12.36,-1.31c-1.944,-1.717 -3.146,-4.124 -3.35,-6.71l22.45,0l0,-1.18c0.06,-3.37 -1.151,-6.641 -3.39,-9.16c-2.206,-2.551 -5.448,-3.978 -8.82,-3.88Zm31.51,14.68c-1.031,-1.04 -2.329,-1.777 -3.75,-2.13l-4.43,-1.17c-1.332,-0.325 -2.602,-0.865 -3.76,-1.6c-0.986,-0.595 -1.579,-1.678 -1.55,-2.83c-0.031,-1.327 0.614,-2.582 1.71,-3.33c1.242,-0.86 2.73,-1.295 4.24,-1.24c1.355,-0.009 2.689,0.336 3.87,1c1.131,0.611 2.01,1.604 2.48,2.8l2.08,-1.19c-0.686,-1.512 -1.821,-2.776 -3.25,-3.62c-1.569,-0.918 -3.363,-1.382 -5.18,-1.34c-2.199,-0.098 -4.36,0.614 -6.07,2c-1.503,1.221 -2.369,3.064 -2.35,5c-0.08,1.489 0.476,2.945 1.53,4c1.055,1.007 2.354,1.721 3.77,2.07l4.43,1.17c1.337,0.326 2.605,0.892 3.74,1.67c0.981,0.643 1.563,1.748 1.54,2.92c0.052,1.385 -0.639,2.698 -1.81,3.44c-1.371,0.853 -2.967,1.275 -4.58,1.21c-1.637,0.054 -3.258,-0.347 -4.68,-1.16c-1.224,-0.718 -2.147,-1.855 -2.6,-3.2l-2.13,1.24c0.645,1.681 1.845,3.092 3.4,4c1.82,1.053 3.899,1.576 6,1.51c2.307,0.103 4.579,-0.605 6.42,-2c1.565,-1.205 2.464,-3.086 2.42,-5.06c0.073,-1.525 -0.475,-3.016 -1.52,-4.13" style="fill:rgb(64,64,65);fill-rule:nonzero;"/>        <path d="M64.35,112.12l-15.88,15.88l-15.88,-15.88l15.88,-15.87l15.88,15.87Z" style="fill:rgb(255,181,13);fill-rule:nonzero;"/>        <path d="M64.35,143.86l-15.88,-15.86l15.88,-15.87" style="fill:rgb(39,227,204);fill-rule:nonzero;"/>        <path d="M64.35,112.12l15.88,15.88l-15.88,15.86" style="fill:rgb(82,3,233);fill-rule:nonzero;"/>        <path d="M96.11,143.86l-15.88,15.87l-15.88,-15.87l15.88,-15.86l15.88,15.86Z" style="fill:rgb(62,126,255);fill-rule:nonzero;"/>        <path d="M96.1,112.13l-15.88,15.87l15.88,15.87c4.211,-4.206 6.579,-9.919 6.579,-15.87c0,-5.951 -2.368,-11.664 -6.579,-15.87" style="fill:rgb(7,192,166);fill-rule:nonzero;"/>        <path d="M64.34,112.13l15.88,15.87l15.88,-15.87c-8.714,-8.705 -23.046,-8.705 -31.76,0" style="fill:rgb(39,227,204);fill-rule:nonzero;"/>        <path d="M32.58,143.87l15.88,-15.87l-15.88,-15.87c-4.211,4.206 -6.579,9.919 -6.579,15.87c0,5.951 2.368,11.664 6.579,15.87" style="fill:rgb(82,3,233);fill-rule:nonzero;"/>        <path d="M48.46,96.26l15.88,15.87l15.88,-15.87c-8.714,-8.705 -23.046,-8.705 -31.76,0" style="fill:rgb(255,221,15);fill-rule:nonzero;"/>        <path d="M64.34,143.87l-15.88,-15.87l-15.88,15.87c8.712,8.71 23.048,8.71 31.76,0" style="fill:rgb(59,3,168);fill-rule:nonzero;"/>        <path d="M80.22,159.74l-15.88,-15.87l-15.88,15.87c8.714,8.705 23.046,8.705 31.76,0" style="fill:rgb(44,80,255);fill-rule:nonzero;"/>    </g></svg>