<?xml version="1.0" encoding="UTF-8" standalone="no"?><!DOCTYPE svg PUBLIC "-//W3C//DTD SVG 1.1//EN" "http://www.w3.org/Graphics/SVG/1.1/DTD/svg11.dtd"><svg width="100%" height="100%" viewBox="0 0 1024 512" version="1.1" xmlns="http://www.w3.org/2000/svg" xmlns:xlink="http://www.w3.org/1999/xlink" xml:space="preserve" style="fill-rule:evenodd;clip-rule:evenodd;stroke-linejoin:round;stroke-miterlimit:2;"><title>BrickVest</title><desc>BrickVest is an online marketplace for real estate investing for investors and deal sponsors (real estate investment firms, portfolio owners, operators and developers). Professional clients can invest in pre-vetted real estate investment opportunities online through a simple and secure website by creating an account, selecting an investment, signing legal documents and funding their investment.</desc>    <g transform="matrix(1.45375,0,0,1.45375,-314.918,64.4762)">        <g transform="matrix(1.27047,0,0,1.27047,-93.3913,-311.298)">            <g transform="matrix(60,0,0,60,371.426,368.229)">                <path d="M0.235,-0.36c0.059,0 0.101,-0.01 0.126,-0.031c0.026,-0.021 0.039,-0.053 0.039,-0.098c0,-0.041 -0.013,-0.071 -0.038,-0.091c-0.026,-0.019 -0.068,-0.029 -0.127,-0.029l-0.015,0l0,0.249l0.015,0Zm-0.015,0.283c0,0.007 0.002,0.013 0.007,0.018c0.005,0.005 0.011,0.008 0.018,0.011c0.007,0.003 0.014,0.004 0.022,0.005c0.008,0.001 0.016,0.002 0.023,0.002c0.025,0 0.048,-0.002 0.069,-0.006c0.021,-0.004 0.038,-0.011 0.053,-0.021c0.015,-0.01 0.026,-0.024 0.034,-0.041c0.008,-0.017 0.012,-0.038 0.012,-0.064c0,-0.048 -0.017,-0.084 -0.05,-0.109c-0.033,-0.025 -0.078,-0.037 -0.135,-0.037l-0.053,0l0,0.242Zm0.162,-0.27c0.021,0.003 0.043,0.008 0.064,0.014c0.021,0.007 0.041,0.017 0.058,0.03c0.017,0.013 0.031,0.028 0.042,0.047c0.011,0.019 0.016,0.042 0.016,0.068c0,0.029 -0.006,0.056 -0.017,0.079c-0.011,0.023 -0.026,0.043 -0.047,0.059c-0.02,0.016 -0.044,0.028 -0.073,0.037c-0.029,0.009 -0.06,0.013 -0.095,0.013l-0.158,0c-0.011,0 -0.024,0 -0.039,0.001c-0.014,0.001 -0.027,0.001 -0.04,0.002c-0.015,0.001 -0.03,0.001 -0.045,0.002c-0.001,-0.001 -0.001,-0.003 -0.001,-0.006c-0.001,-0.001 -0.001,-0.003 -0.001,-0.005l0,-0.005c0,-0.009 0.004,-0.015 0.011,-0.016c0.026,-0.005 0.044,-0.011 0.054,-0.016c0.01,-0.005 0.015,-0.014 0.015,-0.027l0,-0.509c0,-0.007 -0.001,-0.012 -0.004,-0.017c-0.002,-0.004 -0.006,-0.008 -0.011,-0.011c-0.005,-0.003 -0.012,-0.005 -0.021,-0.008c-0.009,-0.002 -0.02,-0.004 -0.033,-0.007c-0.007,-0.001 -0.011,-0.008 -0.011,-0.019c0,-0.003 0,-0.006 0.001,-0.008c0,-0.002 0,-0.004 0.001,-0.006c0.02,0.001 0.041,0.003 0.064,0.004c0.023,0.001 0.043,0.001 0.059,0.001l0.123,0c0.037,0 0.069,0.004 0.095,0.012c0.027,0.009 0.048,0.02 0.065,0.035c0.017,0.015 0.029,0.031 0.036,0.05c0.008,0.019 0.012,0.039 0.012,0.06c0,0.015 -0.003,0.03 -0.009,0.045c-0.006,0.015 -0.014,0.028 -0.025,0.041c-0.01,0.013 -0.022,0.024 -0.037,0.034c-0.015,0.01 -0.031,0.018 -0.049,0.023l0,0.003Z" style="fill:rgb(107,107,107);fill-rule:nonzero;"/>            </g>            <g transform="matrix(60,0,0,60,421.014,368.229)">                <path d="M0.295,-0.292l-0.074,0l0,0.22c0,0.015 0.007,0.025 0.021,0.03c0.013,0.005 0.034,0.01 0.062,0.013c0.008,0.001 0.012,0.007 0.012,0.017c0,0.005 -0.001,0.01 -0.002,0.017c-0.018,-0.001 -0.04,-0.003 -0.065,-0.004c-0.026,-0.001 -0.051,-0.001 -0.076,-0.001c-0.017,0 -0.037,0 -0.06,0.001c-0.023,0.001 -0.044,0.003 -0.064,0.004c-0.001,-0.007 -0.002,-0.012 -0.002,-0.016c0,-0.009 0.004,-0.015 0.011,-0.016c0.025,-0.004 0.043,-0.009 0.054,-0.015c0.01,-0.005 0.015,-0.015 0.015,-0.028l0,-0.509c0,-0.013 -0.005,-0.022 -0.014,-0.029c-0.01,-0.006 -0.029,-0.011 -0.057,-0.014c-0.007,-0.001 -0.01,-0.006 -0.01,-0.017c0,-0.004 0.001,-0.009 0.002,-0.016c0.02,0.001 0.041,0.003 0.062,0.004c0.021,0.001 0.042,0.001 0.061,0.001l0.135,0c0.072,0 0.126,0.016 0.163,0.047c0.037,0.032 0.055,0.075 0.055,0.129c0,0.015 -0.003,0.03 -0.008,0.046c-0.005,0.016 -0.012,0.032 -0.023,0.047c-0.01,0.015 -0.023,0.03 -0.039,0.042c-0.017,0.014 -0.036,0.024 -0.058,0.032l0.167,0.232c0.013,0.017 0.027,0.029 0.042,0.036c0.015,0.007 0.03,0.012 0.043,0.015c0.006,0.001 0.009,0.006 0.009,0.014c0,0.005 -0.001,0.011 -0.002,0.018c-0.015,-0.001 -0.034,-0.002 -0.056,-0.003c-0.022,-0.001 -0.042,-0.002 -0.061,-0.002c-0.014,0 -0.028,-0.006 -0.043,-0.018c-0.014,-0.012 -0.027,-0.027 -0.04,-0.046l-0.16,-0.231Zm-0.021,-0.041c0.047,0 0.083,-0.01 0.108,-0.029c0.025,-0.02 0.038,-0.055 0.038,-0.104c0,-0.021 -0.003,-0.04 -0.008,-0.057c-0.005,-0.017 -0.014,-0.032 -0.025,-0.045c-0.012,-0.013 -0.027,-0.023 -0.046,-0.03c-0.019,-0.007 -0.043,-0.011 -0.07,-0.011l-0.05,0l0,0.276l0.053,0Z" style="fill:rgb(107,107,107);fill-rule:nonzero;"/>            </g>            <g transform="matrix(60,0,0,60,474.537,368.229)">                <path d="M0.216,-0.07c0,0.013 0.005,0.023 0.014,0.028c0.009,0.005 0.027,0.01 0.052,0.015c0.007,0.001 0.01,0.007 0.01,0.016c0,0.004 -0.001,0.009 -0.002,0.016c-0.021,-0.001 -0.041,-0.002 -0.062,-0.003c-0.021,-0.001 -0.04,-0.002 -0.059,-0.002c-0.018,0 -0.038,0.001 -0.06,0.002c-0.021,0.001 -0.042,0.002 -0.061,0.003c-0.001,-0.007 -0.002,-0.012 -0.002,-0.016c0,-0.009 0.003,-0.015 0.01,-0.016c0.025,-0.005 0.043,-0.01 0.052,-0.015c0.009,-0.005 0.014,-0.015 0.014,-0.028l0,-0.509c0,-0.013 -0.005,-0.023 -0.014,-0.029c-0.009,-0.005 -0.027,-0.01 -0.052,-0.014c-0.004,-0.001 -0.007,-0.003 -0.008,-0.006c-0.001,-0.003 -0.002,-0.007 -0.002,-0.011c0,-0.004 0.001,-0.009 0.002,-0.016c0.02,0.001 0.041,0.003 0.062,0.004c0.022,0.001 0.042,0.001 0.059,0.001c0.017,0 0.036,0 0.057,-0.001c0.022,-0.001 0.043,-0.003 0.064,-0.004c0.001,0.007 0.002,0.012 0.002,0.016c0,0.01 -0.003,0.016 -0.01,0.017c-0.025,0.004 -0.043,0.009 -0.052,0.014c-0.009,0.006 -0.014,0.016 -0.014,0.029l0,0.509Z" style="fill:rgb(107,107,107);fill-rule:nonzero;"/>            </g>            <g transform="matrix(60,0,0,60,510.804,368.229)">                <path d="M0.379,0.012c-0.056,0 -0.105,-0.009 -0.147,-0.026c-0.042,-0.017 -0.077,-0.041 -0.105,-0.072c-0.027,-0.03 -0.048,-0.065 -0.062,-0.107c-0.013,-0.041 -0.02,-0.085 -0.02,-0.132c0,-0.039 0.007,-0.079 0.021,-0.119c0.013,-0.04 0.034,-0.076 0.062,-0.108c0.027,-0.033 0.062,-0.059 0.104,-0.08c0.042,-0.02 0.091,-0.03 0.147,-0.03c0.022,0 0.042,0 0.061,0.002c0.018,0.001 0.035,0.002 0.052,0.005c0.017,0.002 0.033,0.005 0.049,0.009c0.016,0.003 0.033,0.007 0.05,0.012c0.001,0.018 0.003,0.04 0.007,0.066c0.004,0.026 0.009,0.052 0.016,0.079c-0.005,0.003 -0.011,0.004 -0.016,0.004c-0.005,0 -0.01,-0.001 -0.015,-0.002c-0.004,-0.001 -0.007,-0.005 -0.008,-0.011c-0.012,-0.044 -0.031,-0.075 -0.057,-0.094c-0.026,-0.019 -0.064,-0.028 -0.113,-0.028c-0.041,0 -0.078,0.007 -0.11,0.02c-0.031,0.013 -0.058,0.032 -0.08,0.056c-0.021,0.024 -0.038,0.053 -0.049,0.087c-0.011,0.033 -0.016,0.071 -0.016,0.112c0,0.046 0.007,0.088 0.021,0.127c0.014,0.039 0.033,0.072 0.056,0.1c0.024,0.028 0.052,0.05 0.083,0.065c0.032,0.015 0.066,0.023 0.102,0.023c0.029,0 0.053,-0.003 0.072,-0.008c0.02,-0.006 0.037,-0.014 0.049,-0.025c0.013,-0.011 0.024,-0.024 0.033,-0.039c0.009,-0.016 0.018,-0.034 0.026,-0.054c0.005,-0.01 0.013,-0.015 0.024,-0.015c0.003,0 0.007,0.001 0.01,0.002c0.004,0.001 0.007,0.002 0.009,0.003c-0.008,0.023 -0.016,0.049 -0.024,0.077c-0.008,0.028 -0.015,0.056 -0.02,0.084c-0.033,0.005 -0.066,0.01 -0.1,0.013c-0.034,0.003 -0.071,0.004 -0.112,0.004Z" style="fill:rgb(107,107,107);fill-rule:nonzero;"/>            </g>            <g transform="matrix(60,0,0,60,565.842,368.229)">                <path d="M0.216,-0.323l0,0.253c0,0.013 0.004,0.023 0.013,0.028c0.008,0.005 0.023,0.01 0.046,0.015c0.003,0.001 0.006,0.002 0.008,0.004c0.002,0.002 0.003,0.006 0.003,0.011c0,0.005 -0.001,0.01 -0.002,0.017c-0.021,-0.001 -0.042,-0.002 -0.061,-0.003c-0.019,-0.001 -0.037,-0.002 -0.054,-0.002c-0.017,0 -0.037,0.001 -0.059,0.002c-0.021,0.001 -0.042,0.002 -0.062,0.003c-0.001,-0.007 -0.002,-0.012 -0.002,-0.016c0,-0.009 0.003,-0.015 0.01,-0.016c0.025,-0.005 0.043,-0.01 0.052,-0.015c0.009,-0.005 0.014,-0.015 0.014,-0.028l0,-0.509c0,-0.013 -0.005,-0.023 -0.014,-0.029c-0.009,-0.005 -0.027,-0.01 -0.052,-0.014c-0.007,-0.001 -0.01,-0.006 -0.01,-0.017c0,-0.004 0.001,-0.009 0.002,-0.016c0.019,0.001 0.04,0.003 0.062,0.004c0.022,0.001 0.041,0.001 0.058,0.001c0.017,0 0.037,0 0.058,-0.001c0.021,-0.001 0.043,-0.003 0.064,-0.004c0.001,0.007 0.002,0.012 0.002,0.016c0,0.01 -0.003,0.016 -0.01,0.017c-0.025,0.004 -0.043,0.009 -0.052,0.014c-0.009,0.006 -0.014,0.016 -0.014,0.029l0,0.242l0.232,-0.23c0.004,-0.004 0.007,-0.009 0.01,-0.014c0.003,-0.005 0.005,-0.01 0.005,-0.015c0,-0.007 -0.004,-0.013 -0.012,-0.017c-0.007,-0.003 -0.017,-0.006 -0.03,-0.008c-0.007,-0.001 -0.01,-0.007 -0.01,-0.018c0,-0.004 0.001,-0.009 0.002,-0.016c0.019,0.001 0.039,0.003 0.058,0.004c0.019,0.001 0.037,0.001 0.053,0.001c0.015,0 0.03,0 0.046,-0.001c0.017,-0.001 0.032,-0.003 0.045,-0.004c0.001,0.007 0.002,0.012 0.002,0.016c0,0.011 -0.004,0.017 -0.011,0.019c-0.015,0.003 -0.028,0.007 -0.041,0.012c-0.013,0.005 -0.025,0.014 -0.037,0.025l-0.225,0.222l0.273,0.294c0.011,0.012 0.023,0.021 0.034,0.026c0.011,0.005 0.025,0.009 0.041,0.012c0.008,0.001 0.012,0.006 0.012,0.017c0,0.005 -0.001,0.01 -0.002,0.017c-0.021,-0.001 -0.043,-0.003 -0.068,-0.004c-0.025,-0.001 -0.046,-0.001 -0.064,-0.001c-0.019,0 -0.038,0 -0.059,0.001c-0.021,0.001 -0.042,0.003 -0.065,0.004c-0.001,-0.007 -0.002,-0.012 -0.002,-0.016c0,-0.01 0.004,-0.015 0.011,-0.016c0.03,-0.002 0.045,-0.011 0.045,-0.026c0,-0.007 -0.003,-0.013 -0.01,-0.02l-0.233,-0.25Z" style="fill:rgb(107,107,107);fill-rule:nonzero;"/>            </g>            <g transform="matrix(60,0,0,60,615.529,368.229)">                <path d="M0.539,-0.57c0.003,-0.007 0.004,-0.014 0.004,-0.02c0,-0.009 -0.005,-0.016 -0.014,-0.021c-0.009,-0.005 -0.024,-0.008 -0.045,-0.011c-0.008,-0.001 -0.012,-0.006 -0.012,-0.017c0,-0.003 0,-0.006 0.001,-0.009c0,-0.002 0,-0.004 0.001,-0.007l0.039,0.003c0.011,0.001 0.022,0.001 0.034,0.002c0.012,0 0.023,0 0.034,0c0.022,0 0.042,-0.001 0.06,-0.002c0.019,-0.001 0.03,-0.002 0.033,-0.003c0,0.002 0,0.004 0.001,0.007l0.001,0.01c0,0.011 -0.004,0.017 -0.011,0.018c-0.021,0.001 -0.037,0.005 -0.047,0.01c-0.01,0.005 -0.018,0.014 -0.023,0.027l-0.247,0.594l-0.009,0.001c-0.007,0 -0.013,-0.006 -0.018,-0.017l-0.235,-0.583c-0.004,-0.009 -0.011,-0.016 -0.02,-0.021c-0.009,-0.005 -0.026,-0.009 -0.05,-0.012c-0.007,-0.001 -0.011,-0.007 -0.011,-0.018c0,-0.005 0.001,-0.011 0.002,-0.016c0.02,0.001 0.042,0.003 0.065,0.004c0.023,0.001 0.044,0.001 0.061,0.001c0.017,0 0.037,0 0.061,-0.001c0.024,-0.001 0.046,-0.003 0.067,-0.004c0.001,0.007 0.002,0.012 0.002,0.016c0,0.01 -0.004,0.016 -0.012,0.017c-0.039,0.004 -0.059,0.015 -0.059,0.032c0,0.005 0.001,0.009 0.002,0.013l0.17,0.435l0.175,-0.428Z" style="fill:rgb(107,107,107);fill-rule:nonzero;"/>            </g>            <g transform="matrix(52.4741,0,0,60,670.874,368.229)">                <path d="M0.221,-0.609l0,0.256l0.156,0c0.013,0 0.023,-0.007 0.029,-0.02c0.005,-0.013 0.01,-0.028 0.013,-0.047c0.002,-0.009 0.008,-0.013 0.018,-0.013c0.002,0 0.005,0 0.008,0.001c0.003,0.001 0.006,0.001 0.008,0.002c-0.001,0.015 -0.003,0.031 -0.004,0.05c-0.001,0.019 -0.001,0.035 -0.001,0.049c0,0.011 0,0.025 0.001,0.042c0.001,0.016 0.002,0.034 0.004,0.055c-0.005,0.001 -0.01,0.002 -0.015,0.002c-0.011,0 -0.017,-0.004 -0.019,-0.013c-0.003,-0.019 -0.008,-0.034 -0.014,-0.047c-0.005,-0.013 -0.015,-0.02 -0.028,-0.02l-0.156,0l0,0.236c0,0.014 0.009,0.023 0.027,0.028c0.018,0.005 0.048,0.007 0.089,0.007l0.055,0c0.019,0 0.036,-0.003 0.051,-0.008c0.014,-0.006 0.027,-0.014 0.038,-0.023c0.011,-0.01 0.02,-0.022 0.029,-0.035c0.009,-0.013 0.017,-0.028 0.025,-0.044c0.002,-0.005 0.007,-0.007 0.015,-0.007c0.003,0 0.007,0.001 0.011,0.003c0.003,0.002 0.007,0.004 0.01,0.006c-0.006,0.013 -0.011,0.028 -0.015,0.046c-0.005,0.017 -0.009,0.034 -0.013,0.05c-0.004,0.016 -0.008,0.03 -0.012,0.041c-0.005,0.011 -0.01,0.017 -0.017,0.017c-0.005,0 -0.013,0 -0.023,-0.001c-0.01,-0.001 -0.021,-0.001 -0.032,-0.001c-0.012,-0.001 -0.024,-0.001 -0.036,-0.002c-0.012,-0.001 -0.022,-0.001 -0.031,-0.001l-0.219,0c-0.019,0 -0.04,0.001 -0.062,0.002c-0.022,0.001 -0.043,0.002 -0.063,0.003c-0.001,-0.007 -0.002,-0.012 -0.002,-0.016c0,-0.009 0.003,-0.015 0.01,-0.016c0.025,-0.005 0.044,-0.01 0.055,-0.015c0.011,-0.005 0.016,-0.015 0.016,-0.028l0,-0.509c0,-0.013 -0.005,-0.022 -0.014,-0.027c-0.01,-0.005 -0.029,-0.011 -0.057,-0.016c-0.007,-0.001 -0.01,-0.007 -0.01,-0.017c0,-0.003 0,-0.006 0.001,-0.008c0,-0.003 0,-0.005 0.001,-0.008c0.029,0.002 0.053,0.003 0.072,0.004c0.019,0.001 0.037,0.001 0.052,0.001l0.197,0c0.03,0 0.056,-0.001 0.078,-0.003c0.022,-0.002 0.037,-0.003 0.044,-0.003c0.009,0 0.015,0.006 0.018,0.017c0.003,0.011 0.005,0.024 0.007,0.039c0.002,0.015 0.004,0.032 0.007,0.049c0.003,0.017 0.008,0.032 0.015,0.044c-0.005,0.004 -0.011,0.006 -0.018,0.006c-0.009,0 -0.014,-0.003 -0.017,-0.009c-0.008,-0.017 -0.016,-0.032 -0.023,-0.044c-0.007,-0.013 -0.016,-0.023 -0.025,-0.031c-0.01,-0.008 -0.022,-0.014 -0.035,-0.018c-0.014,-0.004 -0.031,-0.006 -0.051,-0.006l-0.148,0Z" style="fill:rgb(107,107,107);fill-rule:nonzero;"/>            </g>            <g transform="matrix(49.8622,0,0,60,717.085,368.229)">                <path d="M0.473,-0.493c-0.007,0.001 -0.012,0.002 -0.015,0.002c-0.009,0 -0.015,-0.002 -0.019,-0.005c-0.004,-0.003 -0.007,-0.007 -0.009,-0.011c-0.017,-0.038 -0.038,-0.066 -0.062,-0.083c-0.024,-0.017 -0.057,-0.026 -0.098,-0.026c-0.016,0 -0.031,0.002 -0.046,0.006c-0.014,0.005 -0.026,0.011 -0.037,0.019c-0.011,0.009 -0.019,0.019 -0.026,0.031c-0.006,0.012 -0.009,0.025 -0.009,0.04c0,0.031 0.013,0.057 0.039,0.077c0.027,0.02 0.066,0.04 0.117,0.061c0.064,0.025 0.111,0.053 0.141,0.084c0.031,0.031 0.046,0.07 0.046,0.115c0,0.027 -0.004,0.053 -0.013,0.076c-0.008,0.024 -0.021,0.045 -0.039,0.062c-0.017,0.018 -0.04,0.032 -0.068,0.042c-0.028,0.01 -0.062,0.015 -0.101,0.015c-0.041,0 -0.079,-0.004 -0.113,-0.013c-0.033,-0.009 -0.062,-0.02 -0.085,-0.034c-0.002,-0.028 -0.005,-0.055 -0.009,-0.081c-0.004,-0.026 -0.009,-0.052 -0.014,-0.078c0.005,-0.002 0.01,-0.003 0.017,-0.003c0.008,0 0.014,0.002 0.018,0.005c0.005,0.004 0.009,0.01 0.012,0.018c0.017,0.048 0.038,0.083 0.064,0.106c0.027,0.023 0.064,0.034 0.111,0.034c0.021,0 0.04,-0.003 0.056,-0.009c0.016,-0.006 0.029,-0.014 0.04,-0.025c0.011,-0.011 0.019,-0.023 0.024,-0.036c0.005,-0.013 0.008,-0.028 0.008,-0.043c0,-0.035 -0.012,-0.062 -0.036,-0.082c-0.023,-0.02 -0.057,-0.038 -0.101,-0.054c-0.029,-0.011 -0.055,-0.022 -0.078,-0.034c-0.023,-0.011 -0.043,-0.025 -0.06,-0.04c-0.017,-0.015 -0.03,-0.033 -0.039,-0.054c-0.008,-0.02 -0.013,-0.044 -0.013,-0.072c0,-0.025 0.005,-0.048 0.013,-0.07c0.009,-0.021 0.023,-0.04 0.04,-0.056c0.016,-0.016 0.037,-0.029 0.061,-0.038c0.024,-0.009 0.051,-0.014 0.081,-0.014c0.031,0 0.061,0.003 0.09,0.009c0.029,0.006 0.061,0.016 0.097,0.03c0.001,0.02 0.003,0.041 0.006,0.064c0.002,0.023 0.005,0.045 0.009,0.065Z" style="fill:rgb(107,107,107);fill-rule:nonzero;"/>            </g>            <g transform="matrix(60,0,0,60,758.783,368.229)">                <path d="M0.371,-0.609l0,0.534c0,0.015 0.006,0.026 0.019,0.032c0.013,0.007 0.034,0.012 0.064,0.015c0.007,0 0.011,0.005 0.011,0.016c0,0.005 -0.001,0.01 -0.002,0.017c-0.021,-0.001 -0.044,-0.003 -0.068,-0.004c-0.023,-0.001 -0.047,-0.001 -0.071,-0.001c-0.023,0 -0.047,0 -0.072,0.001c-0.024,0.001 -0.047,0.003 -0.068,0.004c-0.001,-0.007 -0.002,-0.012 -0.002,-0.017c0,-0.009 0.003,-0.015 0.01,-0.016c0.03,-0.004 0.052,-0.009 0.065,-0.015c0.013,-0.006 0.02,-0.017 0.02,-0.032l0,-0.534l-0.103,0c-0.02,0 -0.037,0.002 -0.051,0.006c-0.013,0.004 -0.025,0.01 -0.035,0.018c-0.01,0.008 -0.019,0.018 -0.026,0.031c-0.007,0.013 -0.015,0.027 -0.023,0.044c-0.001,0.003 -0.004,0.006 -0.007,0.007c-0.003,0.001 -0.005,0.002 -0.008,0.002c-0.007,0 -0.014,-0.002 -0.019,-0.006c0.007,-0.024 0.012,-0.045 0.015,-0.064c0.003,-0.019 0.006,-0.034 0.009,-0.047c0.003,-0.012 0.005,-0.021 0.008,-0.028c0.003,-0.007 0.008,-0.01 0.015,-0.01c0.005,0 0.011,0 0.02,0.001c0.009,0.001 0.018,0.001 0.027,0.002c0.01,0.001 0.02,0.001 0.03,0.002c0.01,0.001 0.019,0.001 0.028,0.001l0.334,0c0.008,0 0.017,0 0.027,-0.001c0.01,-0.001 0.02,-0.001 0.03,-0.002c0.01,-0.001 0.019,-0.001 0.027,-0.002c0.009,-0.001 0.016,-0.001 0.021,-0.001c0.007,0 0.011,0.004 0.014,0.011c0.003,0.007 0.006,0.016 0.009,0.029c0.003,0.013 0.005,0.028 0.008,0.047c0.003,0.019 0.009,0.039 0.016,0.062c-0.003,0.001 -0.007,0.003 -0.01,0.004c-0.003,0.001 -0.006,0.002 -0.01,0.002c-0.003,0 -0.006,-0.001 -0.009,-0.002c-0.003,-0.001 -0.006,-0.004 -0.007,-0.007c-0.007,-0.017 -0.015,-0.031 -0.022,-0.044c-0.007,-0.013 -0.016,-0.023 -0.026,-0.031c-0.009,-0.008 -0.021,-0.014 -0.035,-0.018c-0.013,-0.004 -0.03,-0.006 -0.05,-0.006l-0.103,0Z" style="fill:rgb(107,107,107);fill-rule:nonzero;"/>            </g>        </g>        <g transform="matrix(1,0,0,1,-130.485,0)">            <g transform="matrix(1,0,0,1,130.485,0)">                <path d="M281,172.795l0,-48.795l-50.024,0c-7.162,0 -12.976,5.814 -12.976,12.976l0,48.795l50.024,0c7.162,0 12.976,-5.814 12.976,-12.976Z" style="fill:rgb(180,209,61);"/>            </g>            <g transform="matrix(0.746032,0,0,0.746032,249.85,-14.7897)">                <path d="M281,172.795l0,-48.795l-50.024,0c-7.162,0 -12.976,5.814 -12.976,12.976l0,48.795l50.024,0c7.162,0 12.976,-5.814 12.976,-12.976Z" style="fill:rgb(180,209,61);"/>            </g>            <g transform="matrix(-0.936824,0,0,0.936824,673.712,7.83386)">                <path d="M281,172.795l0,-48.795l-50.024,0c-7.162,0 -12.976,5.814 -12.976,12.976l0,48.795l50.024,0c7.162,0 12.976,-5.814 12.976,-12.976Z" style="fill:rgb(0,173,239);"/>            </g>            <g transform="matrix(-0.698413,0,0,0.698413,564.739,-5.74482)">                <path d="M281,172.795l0,-48.795l-50.024,0c-7.162,0 -12.976,5.814 -12.976,12.976l0,48.795l50.024,0c7.162,0 12.976,-5.814 12.976,-12.976Z" style="fill:rgb(0,173,239);"/>            </g>            <g transform="matrix(1,0,0,1,131.985,0)">                <path d="M281,94l-33,24l8,0l0,36l16,0l0,-26l17,0l0,26l16,0l0,-36l8,0l-32,-24Z" style="fill:white;"/>            </g>        </g>    </g></svg>