<?xml version="1.0" encoding="UTF-8" standalone="no"?><!DOCTYPE svg PUBLIC "-//W3C//DTD SVG 1.1//EN" "http://www.w3.org/Graphics/SVG/1.1/DTD/svg11.dtd"><svg width="100%" height="100%" viewBox="0 0 1024 512" version="1.1" xmlns="http://www.w3.org/2000/svg" xmlns:xlink="http://www.w3.org/1999/xlink" xml:space="preserve" style="fill-rule:evenodd;clip-rule:evenodd;stroke-linejoin:round;stroke-miterlimit:2;"><title>Anaxago</title><desc>Anaxago offers an innovative approach to unlisted investment.  Our mission: to make new, high-potential asset classes accessible to private and institutional investors, in the simplest and most transparent way possible. </desc>    <g id="anaxago-logo-white-copy" transform="matrix(5.2943,0,0,5.2943,2,162.172)">        <path id="Fill-1" d="M14.444,11.069l-1.259,-3.084l-7.576,18.573l2.761,0l0.583,-1.47l0.912,-2.382l3.32,-8.513l1.259,-3.124Z" style="fill:rgb(216,185,122);"/>        <path id="Fill-2" d="M18.862,11.069l-1.259,-3.084l-7.576,18.573l2.761,0l0.583,-1.47l0.912,-2.382l3.32,-8.513l1.259,-3.124Z" style="fill:rgb(216,185,122);"/>        <path id="Fill-3" d="M26.276,25.088l0.558,1.469l2.762,0l-7.576,-18.572l-7.576,18.572l2.762,0l0.583,-1.469l0.912,-2.381l3.319,-8.514l3.319,8.514l0.937,2.381Z" style="fill:rgb(216,185,122);"/>        <path id="Fill-4" d="M0,35.445l35.448,0l0,-35.445l-35.448,0l0,35.445Zm0.877,-0.875l33.695,0l0,-33.696l-33.695,0l0,33.696Z" style="fill:rgb(216,185,122);"/>        <path id="Fill-5" d="M56.249,25.189l0.558,1.469l2.762,0l-7.576,-18.572l-7.576,18.572l2.762,0l0.583,-1.469l0.912,-2.381l3.319,-8.514l3.319,8.514l0.937,2.381Z" style="fill:rgb(216,185,122);"/>        <path id="Fill-6" d="M69.101,26.735l-2.559,0l0,-18.928l12.011,14.367l0,-14.037l2.559,0l0,18.598l-2.485,0l-9.526,-11.732l0,11.732Z" style="fill:rgb(216,185,122);"/>        <path id="Fill-7" d="M92.339,22.808l3.32,-8.514l3.318,8.514l0.937,2.381l0.558,1.47l2.762,0l-7.575,-18.573l-7.576,18.573l2.761,0l0.584,-1.47l0.911,-2.381Z" style="fill:rgb(216,185,122);"/>        <path id="Fill-8" d="M121.796,8.137l0,0.025l-4.662,9.248l4.662,9.301l0,0.024l-2.864,0l-3.244,-6.436l-3.216,6.436l-2.865,0l0,-0.024l4.663,-9.301l-4.663,-9.247l0,-0.026l2.89,0l3.191,6.41l3.219,-6.41l2.889,0Z" style="fill:rgb(216,185,122);"/>        <path id="Fill-9" d="M140.001,25.189l0.556,1.469l2.764,0l-7.576,-18.572l-7.576,18.572l2.762,0l0.583,-1.469l0.912,-2.381l3.319,-8.514l3.317,8.514l0.939,2.381Z" style="fill:rgb(216,185,122);"/>        <path id="Fill-10" d="M167.155,16.904c0.009,0.169 0.012,0.339 0.012,0.507c0,0.236 -0.008,0.464 -0.024,0.684c-0.019,0.219 -0.044,0.439 -0.077,0.659c-0.152,1.114 -0.495,2.158 -1.026,3.128c-0.533,0.972 -1.201,1.812 -2.003,2.521c-0.802,0.71 -1.717,1.268 -2.748,1.673c-1.032,0.405 -2.129,0.608 -3.294,0.608c-1.268,0 -2.464,-0.244 -3.585,-0.734c-1.124,-0.49 -2.1,-1.154 -2.926,-1.99c-0.829,-0.836 -1.483,-1.815 -1.965,-2.939c-0.481,-1.123 -0.722,-2.327 -0.722,-3.61c0,-1.284 0.241,-2.488 0.722,-3.611c0.482,-1.123 1.136,-2.103 1.965,-2.94c0.826,-0.836 1.802,-1.499 2.926,-1.989c1.121,-0.49 2.317,-0.735 3.585,-0.735c0.961,0 1.879,0.14 2.75,0.419c0.869,0.278 1.667,0.671 2.393,1.178c0.726,0.507 1.371,1.111 1.938,1.811c0.566,0.702 1.028,1.466 1.382,2.294l-3.118,0c-0.557,-0.945 -1.305,-1.706 -2.241,-2.281c-0.938,-0.574 -1.973,-0.861 -3.104,-0.861c-0.88,0 -1.707,0.177 -2.484,0.532c-0.778,0.354 -1.452,0.837 -2.027,1.443c-0.573,0.609 -1.029,1.318 -1.367,2.129c-0.338,0.811 -0.507,1.681 -0.507,2.611c0,0.928 0.169,1.798 0.507,2.61c0.338,0.81 0.794,1.52 1.367,2.128c0.575,0.608 1.249,1.089 2.027,1.444c0.777,0.355 1.604,0.532 2.484,0.532c0.759,0 1.485,-0.135 2.178,-0.405c0.693,-0.27 1.313,-0.646 1.862,-1.128c0.55,-0.481 1.015,-1.051 1.394,-1.71c0.381,-0.659 0.647,-1.369 0.797,-2.128l-6.485,0l0,-2.382l9.375,0c0.016,0.186 0.028,0.363 0.039,0.532" style="fill:rgb(216,185,122);"/>        <path id="Fill-12" d="M183.387,24.126c0.878,-0.001 1.711,-0.178 2.495,-0.531c0.786,-0.354 1.47,-0.833 2.054,-1.439c0.582,-0.605 1.041,-1.317 1.379,-2.134c0.338,-0.815 0.507,-1.686 0.507,-2.612c0,-0.926 -0.169,-1.801 -0.507,-2.625c-0.338,-0.825 -0.797,-1.544 -1.379,-2.159c-0.584,-0.614 -1.268,-1.098 -2.054,-1.45c-0.784,-0.354 -1.617,-0.532 -2.495,-0.532c-0.879,0 -1.705,0.178 -2.483,0.532c-0.777,0.352 -1.458,0.836 -2.039,1.45c-0.584,0.615 -1.043,1.334 -1.382,2.159c-0.338,0.824 -0.506,1.699 -0.506,2.625c0,0.926 0.168,1.797 0.506,2.612c0.339,0.817 0.798,1.529 1.382,2.134c0.581,0.606 1.262,1.085 2.039,1.439c0.778,0.353 1.604,0.53 2.483,0.53m0,-16.09c1.284,0 2.491,0.246 3.623,0.735c1.132,0.49 2.116,1.157 2.953,2.001c0.835,0.845 1.495,1.838 1.975,2.978c0.483,1.14 0.722,2.361 0.722,3.661c0,1.284 -0.239,2.492 -0.722,3.624c-0.48,1.131 -1.14,2.12 -1.975,2.964c-0.837,0.845 -1.821,1.512 -2.953,2.001c-1.132,0.491 -2.339,0.735 -3.623,0.735c-1.284,0 -2.486,-0.244 -3.611,-0.735c-1.123,-0.489 -2.103,-1.156 -2.938,-2.001c-0.837,-0.844 -1.495,-1.833 -1.977,-2.964c-0.481,-1.132 -0.722,-2.34 -0.722,-3.624c0,-1.3 0.241,-2.521 0.722,-3.661c0.482,-1.14 1.14,-2.133 1.977,-2.978c0.835,-0.844 1.815,-1.511 2.938,-2.001c1.125,-0.489 2.327,-0.735 3.611,-0.735" style="fill:rgb(216,185,122);"/>        <path id="Fill-15" d="M56.956,23.949l-6.924,0l0.904,-2.339l6.02,0l0,2.339Z" style="fill:rgb(216,185,122);"/>        <path id="Fill-17" d="M100.637,23.949l-6.94,0l0.904,-2.339l6.036,0l0,2.339Z" style="fill:rgb(216,185,122);"/>        <path id="Fill-19" d="M140.128,23.949l-6.343,0l0.766,-2.339l5.577,0l0,2.339Z" style="fill:rgb(216,185,122);"/>    </g></svg>