<?xml version="1.0" encoding="UTF-8" standalone="no"?><!DOCTYPE svg PUBLIC "-//W3C//DTD SVG 1.1//EN" "http://www.w3.org/Graphics/SVG/1.1/DTD/svg11.dtd"><svg width="100%" height="100%" viewBox="0 0 1024 512" version="1.1" xmlns="http://www.w3.org/2000/svg" xmlns:xlink="http://www.w3.org/1999/xlink" xml:space="preserve" style="fill-rule:evenodd;clip-rule:evenodd;stroke-linejoin:round;stroke-miterlimit:2;"><title>Fundimmo</title><desc>Fundimmo is the first crowdfunding platform exclusively dedicated to real estate by regular monitoring of transactions and their timely repayment. Fundimmo allows its investors to invest in a wide range of real estate projects like real estate development and renovation, selected by an advisory committee</desc>    <g transform="matrix(1.0412,0,0,1.0412,-22.7312,136.846)">        <g transform="matrix(3.57222,0,0,3.57222,-624.024,-1341.41)">            <g transform="matrix(0.279938,0,0,0.279938,174.688,375.511)">                <path d="M71.492,129.878l-47.739,39l0,56.517l47.739,0l0,-95.517Z" style="fill:rgb(242,148,0);"/>            </g>            <g transform="matrix(0.279938,0,0,0.279938,203.651,375.511)">                <path d="M71.492,55.878l-47.739,39l0,130.517l47.739,0l0,-169.517Z" style="fill:rgb(59,59,59);"/>            </g>            <g transform="matrix(0.279938,0,0,0.279938,174.688,375.511)">                <path d="M93.141,56.173l0,-16.713l47.74,-39l0,84.027l-39.83,-33.131l0,103.734l-29.534,-25.139l-17.206,15.139l0,-56.517l38.83,-32.4Z" style="fill:rgb(59,59,59);"/>            </g>            <g transform="matrix(-0.279938,0,0,0.279938,253.503,375.511)">                <path d="M93.141,56.173l0,-16.713l47.74,-39l0,84.027l-33.83,-28.131l0,168.734l-52.74,0l0,-136.517l38.83,-32.4Z" style="fill:rgb(242,148,0);"/>            </g>            <g transform="matrix(0.279938,0,0,0.279938,203.749,375.511)">                <path d="M71.492,54.878l-47.739,39l0,131.517l47.739,0l0,-170.517Z" style="fill:rgb(59,59,59);"/>            </g>        </g>        <g transform="matrix(3.57222,0,0,3.57222,-624.024,-1341.41)">            <g transform="matrix(48,0,0,48,249.03,438.751)">                <path d="M0.645,-0.619l-0.425,0l0,0.153l0.235,0l0,0.138l-0.235,0l0,0.328l-0.138,0l0,-0.755l0.563,0l0,0.136Z" style="fill:rgb(59,59,59);fill-rule:nonzero;"/>            </g>            <g transform="matrix(48,0,0,48,269.898,438.751)">                <path d="M0.51,0l-0.127,0l0,-0.043c-0.034,0.034 -0.079,0.051 -0.134,0.051c-0.059,0 -0.108,-0.021 -0.145,-0.061c-0.037,-0.041 -0.056,-0.095 -0.057,-0.16l0,-0.334l0.135,0l0,0.327c0,0.03 0.009,0.054 0.027,0.072c0.018,0.019 0.041,0.029 0.071,0.029c0.027,0 0.051,-0.01 0.072,-0.03c0.021,-0.02 0.031,-0.043 0.031,-0.068l0,-0.33l0.127,0l0,0.547Z" style="fill:rgb(59,59,59);fill-rule:nonzero;"/>            </g>            <g transform="matrix(48,0,0,48,295.815,438.751)">                <path d="M0.047,-0.547l0.128,0l0,0.042c0.033,-0.033 0.078,-0.05 0.134,-0.05c0.059,0 0.107,0.02 0.144,0.061c0.037,0.041 0.056,0.094 0.057,0.16l0,0.334l-0.135,0l0,-0.328c0,-0.029 -0.009,-0.053 -0.026,-0.072c-0.018,-0.019 -0.042,-0.028 -0.072,-0.028c-0.027,0 -0.051,0.01 -0.071,0.03c-0.021,0.02 -0.031,0.043 -0.031,0.068l0,0.33l-0.128,0l0,-0.547Z" style="fill:rgb(59,59,59);fill-rule:nonzero;"/>            </g>            <g transform="matrix(48,0,0,48,320.892,438.751)">                <path d="M0.059,-0.273c0,-0.074 0.019,-0.14 0.059,-0.199c0.039,-0.059 0.094,-0.089 0.164,-0.089c0.042,0.001 0.077,0.012 0.104,0.034l0,-0.172l0.135,-0.068l0,0.767l-0.135,0l0,-0.025c-0.028,0.026 -0.061,0.039 -0.1,0.04c-0.076,-0.001 -0.133,-0.03 -0.171,-0.088c-0.037,-0.057 -0.056,-0.124 -0.056,-0.2Zm0.122,-0.002c0,0.045 0.011,0.081 0.032,0.111c0.022,0.03 0.05,0.045 0.084,0.045c0.042,-0.002 0.071,-0.018 0.089,-0.049l0,-0.209c-0.021,-0.033 -0.051,-0.05 -0.091,-0.052c-0.036,0 -0.064,0.014 -0.084,0.043c-0.02,0.028 -0.03,0.065 -0.03,0.111Z" style="fill:rgb(59,59,59);fill-rule:nonzero;"/>            </g>            <g transform="matrix(48,0,0,48,345.931,438.751)">                <path d="M0.206,-0.557l0,0.557l-0.135,0l0,-0.492l0.135,-0.065Z" style="fill:rgb(242,148,0);fill-rule:nonzero;"/>            </g>            <g transform="matrix(48,0,0,48,345.931,438.751)">                <path d="M0.206,-0.784l0,0.142l-0.135,0.065l0,-0.143l0.135,-0.064Z" style="fill:rgb(242,148,0);fill-rule:nonzero;"/>            </g>            <g transform="matrix(0.279938,0,0,0.279938,174.688,375.511)">                <path d="M785.331,145.86c5.496,-7.289 18.288,-16.941 33.531,-15.667c10.27,0.858 17.922,5.283 23.715,13.65c5.793,-8.625 14.675,-13.001 26.647,-13.13c11.843,0.257 20.983,4.312 27.419,12.165c6.437,7.852 9.655,16.413 9.655,25.681l0,57.349l-23.171,0l0,-56.19c0,-5.278 -1.449,-9.494 -4.345,-12.648c-2.896,-3.154 -6.855,-4.731 -11.875,-4.731c-4.506,0 -8.368,1.642 -11.586,4.924c-3.218,3.283 -4.827,7.112 -4.827,11.489l0,57.156l-22.206,0l0,-56.19c0,-5.021 -1.673,-9.172 -5.02,-12.455c-3.347,-3.282 -7.402,-4.924 -12.165,-4.924c-4.506,0 -8.207,1.609 -11.103,4.828c-2.896,3.218 -4.345,7.208 -4.345,11.971l0,56.77l-26.106,0l0,-56.19c0,-5.278 -1.449,-9.494 -4.345,-12.648c-2.896,-3.154 -6.855,-4.731 -11.875,-4.731c-4.506,0 -8.368,1.642 -11.586,4.924c-3.218,3.283 -4.827,7.112 -4.827,11.489l0,57.156l-22.206,0l0,-56.19c0,-5.021 -1.673,-9.172 -5.02,-12.455c-3.347,-3.282 -7.402,-4.924 -12.165,-4.924c-4.506,0 -8.207,1.609 -11.103,4.828c-2.896,3.218 -4.345,7.208 -4.345,11.971l0,56.77l-23.171,0l0,-94.423l23.171,0l0,7.724c4.892,-5.535 12.487,-8.367 22.785,-8.496c10.299,0.386 18.344,4.763 24.137,13.13c5.793,-8.625 14.675,-13.001 26.647,-13.13c6.412,0.139 12.031,1.392 16.838,3.801c4.109,1.96 7.629,4.763 10.581,8.364c0.806,0.983 1.561,1.977 2.266,2.982Z" style="fill:rgb(242,148,0);"/>            </g>            <g transform="matrix(48,0,0,48,430.602,438.751)">                <path d="M0.52,-0.275c0,0.08 -0.023,0.148 -0.07,0.204c-0.047,0.056 -0.104,0.085 -0.171,0.085c-0.067,0 -0.124,-0.029 -0.171,-0.085c-0.046,-0.056 -0.07,-0.124 -0.07,-0.204c0,-0.08 0.024,-0.148 0.07,-0.205c0.047,-0.056 0.104,-0.084 0.171,-0.084c0.067,0 0.124,0.028 0.171,0.084c0.047,0.057 0.07,0.125 0.07,0.205Zm-0.13,0c0,-0.045 -0.01,-0.082 -0.031,-0.111c-0.02,-0.029 -0.046,-0.043 -0.079,-0.043c-0.033,0 -0.06,0.015 -0.081,0.044c-0.02,0.029 -0.03,0.066 -0.03,0.11c0,0.045 0.01,0.081 0.03,0.111c0.021,0.03 0.048,0.045 0.081,0.045c0.033,0 0.059,-0.015 0.079,-0.045c0.021,-0.03 0.031,-0.066 0.031,-0.111Z" style="fill:rgb(242,148,0);fill-rule:nonzero;"/>            </g>        </g>    </g></svg>