<?xml version="1.0" encoding="UTF-8" standalone="no"?><!DOCTYPE svg PUBLIC "-//W3C//DTD SVG 1.1//EN" "http://www.w3.org/Graphics/SVG/1.1/DTD/svg11.dtd"><svg width="100%" height="100%" viewBox="0 0 1024 512" version="1.1" xmlns="http://www.w3.org/2000/svg" xmlns:xlink="http://www.w3.org/1999/xlink" xml:space="preserve" style="fill-rule:evenodd;clip-rule:evenodd;stroke-linejoin:round;stroke-miterlimit:2;"><title>Go2</title><desc>Go2 is a money market place for Southern English businesses.We give companies a forum to request loan funding and we give investors an opportunity to lend to them. Do a great thing for Southern business and earn a great rate of return!</desc>    <g transform="matrix(5.79424,0,0,5.79424,-1487.12,-1392.22)">        <g transform="matrix(1.33333,0,0,1.33333,226.764,240.273)">            <rect x="22.684" y="33.105" width="42.679" height="0.152" style="fill:rgb(49,142,205);"/>        </g>        <g transform="matrix(1.33333,0,0,1.33333,311.98,260.035)">            <path d="M0,14.807l-16.381,-16.379c-1.939,-1.939 -5.082,-1.939 -7.02,0l-16.382,16.379c-0.969,0.97 -1.453,2.241 -1.452,3.511l42.688,0c0,-1.27 -0.484,-2.541 -1.453,-3.511" style="fill:rgb(57,150,211);fill-rule:nonzero;"/>        </g>        <g transform="matrix(1.33333,0,0,1.33333,280.779,287.045)">            <path d="M0,17.951c1.938,1.939 5.081,1.939 7.021,0l16.38,-16.38c0.969,-0.97 1.453,-2.24 1.453,-3.51l-42.688,0c0,1.27 0.484,2.54 1.452,3.51l16.382,16.38Z" style="fill:rgb(49,142,205);fill-rule:nonzero;"/>        </g>        <g transform="matrix(1.33333,0,0,1.33333,299.591,292.737)">            <path d="M0,-13.267c-2.28,-2.892 -6.486,-3.392 -9.378,-1.112c-0.435,0.34 -0.822,0.731 -1.153,1.16c-0.195,0.253 -0.15,0.618 0.105,0.812c0.252,0.196 0.615,0.15 0.812,-0.105c0.271,-0.353 0.592,-0.675 0.951,-0.957c2.391,-1.884 5.869,-1.471 7.753,0.919c1.881,2.391 1.47,5.868 -0.922,7.751c-2.391,1.88 -5.869,1.468 -7.75,-0.922c-0.197,-0.251 -0.371,-0.513 -0.516,-0.778c-0.002,-0.006 -0.005,-0.008 -0.008,-0.012c-0.174,-0.313 -0.374,-0.617 -0.6,-0.905c-2.28,-2.893 -6.488,-3.392 -9.379,-1.115c-2.891,2.28 -3.39,6.486 -1.113,9.377c1.104,1.401 2.687,2.289 4.458,2.499c0.269,0.032 0.534,0.047 0.802,0.047c1.489,0 2.929,-0.496 4.118,-1.433c1.337,-1.053 2.212,-2.558 2.468,-4.237c0.037,-0.248 -0.091,-0.482 -0.299,-0.593c-0.092,-0.068 -0.205,-0.107 -0.327,-0.11l-3.16,-0.046l-0.01,0c-0.316,0 -0.575,0.253 -0.579,0.569c-0.005,0.322 0.251,0.584 0.572,0.589l2.524,0.038c-0.31,1.135 -0.969,2.143 -1.906,2.88c-1.158,0.913 -2.605,1.321 -4.067,1.145c-1.465,-0.174 -2.772,-0.907 -3.685,-2.065c-1.88,-2.39 -1.469,-5.867 0.921,-7.75c2.391,-1.881 5.867,-1.47 7.75,0.918c0.189,0.242 0.358,0.497 0.502,0.759c0.005,0.008 0.011,0.012 0.014,0.02c0.175,0.314 0.378,0.624 0.609,0.919c1.317,1.671 3.276,2.544 5.253,2.544c1.446,0 2.903,-0.468 4.125,-1.428c2.893,-2.279 3.394,-6.484 1.115,-9.378" style="fill:white;fill-rule:nonzero;"/>        </g>        <g transform="matrix(1.33333,0,0,1.33333,333.326,270.349)">            <path d="M0,9.754c-2.714,0 -4.442,-2.046 -4.442,-4.848c0,-2.874 1.974,-4.906 4.819,-4.906c2.279,0 3.556,1.22 3.556,1.945c0,0.683 -0.769,0.828 -0.813,0.77c-0.58,-0.929 -1.669,-1.423 -2.714,-1.423c-1.945,0 -3.309,1.481 -3.309,3.629c0,2.104 1.205,3.628 3.193,3.628c1.51,0 2.627,-0.856 2.816,-2.09l0,-0.609l-2.206,0c-0.508,0 -0.755,-0.16 -0.755,-0.566l0,-0.073c0,-0.421 0.247,-0.58 0.755,-0.58l2.728,0c0.537,0 0.799,0.333 0.799,0.856l0,4.006c0,0.043 -0.218,0.145 -0.494,0.145c-0.435,0 -0.813,-0.218 -0.813,-1.205l0,-0.174c-0.58,0.929 -1.669,1.495 -3.12,1.495" style="fill:rgb(53,73,94);fill-rule:nonzero;"/>        </g>        <g transform="matrix(1.33333,0,0,1.33333,352.795,276.832)">            <path d="M0,0.044c0,-2.09 -1.35,-3.585 -3.251,-3.585c-1.902,0 -3.237,1.451 -3.237,3.556c0,2.09 1.35,3.571 3.251,3.571c1.902,0 3.237,-1.452 3.237,-3.542m-7.997,0c0,-2.874 1.988,-4.906 4.76,-4.906c2.802,0 4.747,2.003 4.747,4.877c0,2.874 -1.974,4.891 -4.761,4.891c-2.801,0 -4.746,-2.003 -4.746,-4.862" style="fill:rgb(53,73,94);fill-rule:nonzero;"/>        </g>        <g transform="matrix(1.33333,0,0,1.33333,365.548,272.052)">            <path d="M0,7.025c0.494,0 0.711,0.203 0.711,0.581l0,0.087c0,0.392 -0.217,0.609 -0.711,0.609l-5.225,0c-0.653,0 -0.929,-0.217 -0.929,-0.813l0,-0.362c0,-1.931 1.495,-2.787 2.903,-3.484c1.233,-0.609 2.337,-1.074 2.337,-2.09c0,-0.972 -0.711,-1.553 -1.916,-1.553c-1.379,0 -2.032,0.842 -2.293,1.8c0,0.043 -0.987,0.058 -0.987,-0.726c0,-0.972 1.161,-2.351 3.381,-2.351c2.047,0 3.281,1.059 3.281,2.801c0,1.684 -1.336,2.351 -2.758,3.005c-1.393,0.624 -2.511,1.19 -2.555,2.496l4.761,0Z" style="fill:rgb(53,73,94);fill-rule:nonzero;"/>        </g>        <g transform="matrix(1.33333,0,0,1.33333,331.354,290.817)">            <path d="M0,5.781c1.278,0 1.806,-0.385 1.806,-1.332c0,-0.848 -0.595,-1.278 -1.762,-1.278l-2.048,0l0,2.61l2.004,0Zm-0.022,-3.271c0.914,0 1.52,-0.506 1.52,-1.277c0,-0.815 -0.518,-1.233 -1.553,-1.233l-1.949,0l0,2.51l1.982,0Zm-2.731,3.525l0,-6.289c0,-0.231 0.187,-0.418 0.418,-0.418l2.28,0c1.509,0 2.324,0.661 2.324,1.872c0,0.749 -0.43,1.288 -1.234,1.553c1.057,0.231 1.542,0.903 1.542,1.729c0,1.299 -0.826,1.971 -2.566,1.971l-2.346,0c-0.231,0 -0.418,-0.187 -0.418,-0.418" style="fill:rgb(112,130,149);fill-rule:nonzero;"/>        </g>        <g transform="matrix(1.33333,0,0,1.33333,339.942,292.373)">            <path d="M0,5.418c-1.388,0 -2.082,-0.925 -2.082,-2.313l0,-2.764c0,-0.264 0.133,-0.341 0.32,-0.341l0.077,0c0.187,0 0.319,0.077 0.319,0.341l0,2.72c0,1.058 0.529,1.685 1.465,1.685c0.76,0 1.365,-0.451 1.674,-1.112l0,-3.293c0,-0.264 0.132,-0.341 0.319,-0.341l0.077,0c0.188,0 0.32,0.077 0.32,0.341l0,4.912c0,0.022 -0.11,0.077 -0.243,0.077c-0.242,0 -0.462,-0.121 -0.462,-0.694l0,-0.165c-0.363,0.551 -0.969,0.947 -1.784,0.947" style="fill:rgb(112,130,149);fill-rule:nonzero;"/>        </g>        <g transform="matrix(1.33333,0,0,1.33333,345.535,293.679)">            <path d="M0,3.37c0,-0.298 0.364,-0.407 0.385,-0.385c0.353,0.484 0.926,0.847 1.795,0.847c0.871,0 1.355,-0.352 1.355,-0.88c0,-0.628 -0.55,-0.76 -1.542,-0.97c-0.815,-0.176 -1.839,-0.407 -1.839,-1.464c0,-0.937 0.793,-1.586 2.004,-1.586c1.278,0 1.939,0.605 1.939,1.002c0,0.275 -0.375,0.407 -0.396,0.374c-0.298,-0.451 -0.827,-0.771 -1.543,-0.771c-0.858,0 -1.321,0.364 -1.321,0.881c0,0.562 0.496,0.716 1.465,0.925c0.848,0.188 1.927,0.419 1.927,1.498c0,0.969 -0.793,1.597 -2.071,1.597c-1.398,0 -2.158,-0.672 -2.158,-1.068" style="fill:rgb(112,130,149);fill-rule:nonzero;"/>        </g>        <g transform="matrix(1.33333,0,0,1.33333,353.64,289.875)">            <path d="M0,6.862l0,-4.648c0,-0.264 0.132,-0.341 0.319,-0.341l0.077,0c0.188,0 0.32,0.077 0.32,0.341l0,4.648c0,0.264 -0.132,0.341 -0.32,0.341l-0.077,0c-0.187,0 -0.319,-0.077 -0.319,-0.341m-0.11,-6.729c0,-0.319 0.165,-0.474 0.484,-0.474c0.308,0 0.463,0.155 0.463,0.474c0,0.319 -0.166,0.473 -0.485,0.473c-0.297,0 -0.462,-0.165 -0.462,-0.473" style="fill:rgb(112,130,149);fill-rule:nonzero;"/>        </g>        <g transform="matrix(1.33333,0,0,1.33333,360.79,299.48)">            <path d="M0,-5.419c1.388,0 2.082,0.925 2.082,2.313l0,2.764c0,0.264 -0.133,0.342 -0.32,0.342l-0.077,0c-0.187,0 -0.319,-0.078 -0.319,-0.342l0,-2.72c0,-1.046 -0.518,-1.685 -1.41,-1.685c-0.815,0 -1.42,0.451 -1.729,1.112l0,3.293c0,0.264 -0.132,0.342 -0.319,0.342l-0.077,0c-0.188,0 -0.32,-0.078 -0.32,-0.342l0,-4.912c0,-0.022 0.11,-0.077 0.243,-0.077c0.242,0 0.462,0.121 0.462,0.694l0,0.165c0.363,-0.551 0.969,-0.947 1.784,-0.947" style="fill:rgb(112,130,149);fill-rule:nonzero;"/>        </g>        <g transform="matrix(1.33333,0,0,1.33333,371.611,296.483)">            <path d="M0,-0.836c-0.066,-1.035 -0.705,-1.707 -1.685,-1.707c-0.991,0 -1.74,0.705 -1.894,1.707l3.579,0Zm-1.619,2.533c1.024,0 1.487,-0.441 1.795,-0.936c0.022,-0.033 0.419,0.066 0.419,0.407c0,0.363 -0.793,1.167 -2.214,1.167c-1.597,0 -2.709,-1.123 -2.709,-2.731c0,-1.597 1.123,-2.775 2.643,-2.775c1.476,0 2.445,1.046 2.445,2.643l0,0.066c0,0.199 -0.077,0.243 -0.298,0.243l-4.074,0c0.055,1.112 0.881,1.916 1.993,1.916" style="fill:rgb(112,130,149);fill-rule:nonzero;"/>        </g>        <g transform="matrix(1.33333,0,0,1.33333,374.413,293.679)">            <path d="M0,3.37c0,-0.298 0.363,-0.407 0.385,-0.385c0.353,0.484 0.926,0.847 1.795,0.847c0.871,0 1.355,-0.352 1.355,-0.88c0,-0.628 -0.55,-0.76 -1.542,-0.97c-0.815,-0.176 -1.839,-0.407 -1.839,-1.464c0,-0.937 0.793,-1.586 2.004,-1.586c1.278,0 1.939,0.605 1.939,1.002c0,0.275 -0.375,0.407 -0.397,0.374c-0.297,-0.451 -0.826,-0.771 -1.542,-0.771c-0.858,0 -1.321,0.364 -1.321,0.881c0,0.562 0.496,0.716 1.465,0.925c0.848,0.188 1.927,0.419 1.927,1.498c0,0.969 -0.793,1.597 -2.071,1.597c-1.398,0 -2.158,-0.672 -2.158,-1.068" style="fill:rgb(112,130,149);fill-rule:nonzero;"/>        </g>        <g transform="matrix(1.33333,0,0,1.33333,381.916,293.679)">            <path d="M0,3.37c0,-0.298 0.363,-0.407 0.385,-0.385c0.353,0.484 0.925,0.847 1.795,0.847c0.87,0 1.355,-0.352 1.355,-0.88c0,-0.628 -0.55,-0.76 -1.542,-0.97c-0.815,-0.176 -1.839,-0.407 -1.839,-1.464c0,-0.937 0.793,-1.586 2.004,-1.586c1.278,0 1.939,0.605 1.939,1.002c0,0.275 -0.375,0.407 -0.397,0.374c-0.297,-0.451 -0.826,-0.771 -1.542,-0.771c-0.859,0 -1.321,0.364 -1.321,0.881c0,0.562 0.496,0.716 1.465,0.925c0.848,0.188 1.927,0.419 1.927,1.498c0,0.969 -0.793,1.597 -2.071,1.597c-1.398,0 -2.158,-0.672 -2.158,-1.068" style="fill:rgb(112,130,149);fill-rule:nonzero;"/>        </g>        <g transform="matrix(1.33333,0,0,1.33333,393.426,290.419)">            <path d="M0,6.333l0,-6.409c0,-0.232 0.11,-0.342 0.319,-0.342l0.099,0c0.221,0 0.331,0.11 0.331,0.342l0,6.134l3.436,0c0.22,0 0.341,0.11 0.341,0.319l0,0.055c0,0.199 -0.121,0.319 -0.341,0.319l-3.767,0c-0.231,0 -0.418,-0.187 -0.418,-0.418" style="fill:rgb(112,130,149);fill-rule:nonzero;"/>        </g>        <g transform="matrix(1.33333,0,0,1.33333,407.521,295.911)">            <path d="M0,0.022c0,-1.222 -0.837,-2.136 -1.971,-2.136c-1.135,0 -1.983,0.892 -1.983,2.114c0,1.222 0.848,2.137 1.983,2.137c1.123,0 1.971,-0.893 1.971,-2.115m-4.68,-0.022c0,-1.586 1.134,-2.742 2.709,-2.742c1.563,0 2.698,1.167 2.698,2.764c0,1.586 -1.135,2.742 -2.698,2.742c-1.575,0 -2.709,-1.167 -2.709,-2.764" style="fill:rgb(112,130,149);fill-rule:nonzero;"/>        </g>        <g transform="matrix(1.33333,0,0,1.33333,415.405,295.191)">            <path d="M0,1.091l0,-0.484l-0.308,0.011c-1.795,0.066 -2.721,0.385 -2.721,1.211c0,0.529 0.43,0.87 1.146,0.87c1.079,0 1.883,-0.672 1.883,-1.608m0,-1.234c0,-0.902 -0.529,-1.398 -1.476,-1.398c-0.848,0 -1.387,0.43 -1.674,0.969c0,0.011 -0.407,-0.033 -0.407,-0.418c0,-0.375 0.749,-1.212 2.136,-1.212c1.333,0 2.126,0.771 2.126,2.037l0,3.304c0,0.022 -0.11,0.078 -0.243,0.078c-0.242,0 -0.451,-0.122 -0.451,-0.694l0,-0.199c-0.408,0.606 -1.123,0.969 -1.96,0.969c-1.146,0 -1.807,-0.583 -1.807,-1.464c0,-1.222 1.223,-1.729 3.646,-1.784l0.11,0l0,-0.188Z" style="fill:rgb(112,130,149);fill-rule:nonzero;"/>        </g>        <g transform="matrix(1.33333,0,0,1.33333,422.407,299.48)">            <path d="M0,-5.419c1.388,0 2.082,0.925 2.082,2.313l0,2.764c0,0.264 -0.133,0.342 -0.32,0.342l-0.077,0c-0.187,0 -0.319,-0.078 -0.319,-0.342l0,-2.72c0,-1.046 -0.518,-1.685 -1.41,-1.685c-0.815,0 -1.42,0.451 -1.729,1.112l0,3.293c0,0.264 -0.132,0.342 -0.319,0.342l-0.077,0c-0.188,0 -0.32,-0.078 -0.32,-0.342l0,-4.912c0,-0.022 0.11,-0.077 0.243,-0.077c0.242,0 0.462,0.121 0.462,0.694l0,0.165c0.364,-0.551 0.969,-0.947 1.784,-0.947" style="fill:rgb(112,130,149);fill-rule:nonzero;"/>        </g>        <g transform="matrix(1.33333,0,0,1.33333,427.398,293.679)">            <path d="M0,3.37c0,-0.298 0.363,-0.407 0.385,-0.385c0.353,0.484 0.926,0.847 1.795,0.847c0.871,0 1.355,-0.352 1.355,-0.88c0,-0.628 -0.55,-0.76 -1.542,-0.97c-0.815,-0.176 -1.839,-0.407 -1.839,-1.464c0,-0.937 0.793,-1.586 2.004,-1.586c1.278,0 1.939,0.605 1.939,1.002c0,0.275 -0.375,0.407 -0.397,0.374c-0.297,-0.451 -0.826,-0.771 -1.542,-0.771c-0.858,0 -1.321,0.364 -1.321,0.881c0,0.562 0.496,0.716 1.465,0.925c0.848,0.188 1.927,0.419 1.927,1.498c0,0.969 -0.793,1.597 -2.071,1.597c-1.398,0 -2.158,-0.672 -2.158,-1.068" style="fill:rgb(112,130,149);fill-rule:nonzero;"/>        </g>    </g></svg>