<?xml version="1.0" encoding="UTF-8" standalone="no"?><!DOCTYPE svg PUBLIC "-//W3C//DTD SVG 1.1//EN" "http://www.w3.org/Graphics/SVG/1.1/DTD/svg11.dtd"><svg width="100%" height="100%" viewBox="0 0 1024 512" version="1.1" xmlns="http://www.w3.org/2000/svg" xmlns:xlink="http://www.w3.org/1999/xlink" xml:space="preserve" style="fill-rule:evenodd;clip-rule:evenodd;stroke-linejoin:round;stroke-miterlimit:2;"><title>Vauraus</title><desc>Vauraus was founded to boost the funding and growth of SMEs in Finland. We also offer investors a transparent investment option with stable earnings that doesn’t correlate with the stock market.Vauraus has intermediated crowdfunded corporate loans in Finland since 2013. We aspire to support entrepreneurship and the economic growth of SMEs.</desc>    <g transform="matrix(1.62628,0,0,0.543549,343.953,191.695)">        <g transform="matrix(0.362553,0,0,1.08475,-468.451,-660.947)">            <path d="M958.692,803.088l-204.945,-312.523c-6.86,-10.462 -20.923,-13.385 -31.384,-6.525c-10.462,6.86 -13.385,20.923 -6.525,31.385l215.709,328.937l-50.35,76.557c-6.874,10.452 -3.969,24.519 6.483,31.393c10.453,6.874 24.519,3.969 31.394,-6.483l39.563,-60.157l39.679,60.507c6.86,10.461 20.923,13.385 31.384,6.524c10.462,-6.86 13.385,-20.923 6.525,-31.384l-50.443,-76.921l216.34,-328.948c6.874,-10.453 3.969,-24.519 -6.483,-31.393c-10.452,-6.875 -24.519,-3.97 -31.393,6.483l-205.554,312.548Z" style="fill:rgb(246,49,62);"/>        </g>        <g transform="matrix(79.9618,0,0,239.243,0,178.731)">            <path d="M0.415,-0l0.306,-0.68l-0.08,0l-0.261,0.586l-0.259,-0.586l-0.082,0l0.307,0.68l0.069,-0Z" style="fill:rgb(246,49,62);fill-rule:nonzero;"/>        </g>        <g transform="matrix(79.9618,0,0,239.243,53.8448,178.731)">            <path d="M0.19,-0.166l0.38,0l0.074,0.166l0.079,-0l-0.309,-0.685l-0.068,0l-0.309,0.685l0.08,-0l0.073,-0.166Zm0.19,-0.428l0.161,0.364l-0.323,-0l0.162,-0.364Z" style="fill:rgb(246,49,62);fill-rule:nonzero;"/>        </g>        <g transform="matrix(79.9618,0,0,239.243,117.91,178.731)">            <path d="M0.673,-0.68l-0.071,0l-0,0.407c-0,0.136 -0.088,0.222 -0.221,0.222c-0.132,0 -0.22,-0.086 -0.22,-0.222l-0,-0.407l-0.071,0l-0,0.407c-0,0.176 0.117,0.288 0.291,0.288c0.175,-0 0.292,-0.112 0.292,-0.288l0,-0.407Z" style="fill:rgb(246,49,62);fill-rule:nonzero;"/>        </g>        <g transform="matrix(79.9618,0,0,239.243,185.305,178.731)">            <path d="M0.541,-0l0.086,-0l-0.196,-0.264c0.096,-0.031 0.156,-0.103 0.156,-0.206c0,-0.142 -0.106,-0.217 -0.263,-0.217c-0.079,0 -0.157,0.004 -0.224,0.007l0,0.68l0.071,-0l0,-0.245l0.136,0c0.018,0 0.036,-0.001 0.053,-0.002l0.181,0.247Zm-0.37,-0.308l0,-0.311c0.057,-0.002 0.102,-0.003 0.155,-0.003c0.114,0 0.191,0.048 0.191,0.152c0,0.102 -0.077,0.162 -0.187,0.162l-0.159,-0Z" style="fill:rgb(246,49,62);fill-rule:nonzero;"/>        </g>        <g transform="matrix(79.9618,0,0,239.243,242.244,178.731)">            <path d="M0.19,-0.166l0.38,0l0.074,0.166l0.079,-0l-0.309,-0.685l-0.068,0l-0.309,0.685l0.08,-0l0.073,-0.166Zm0.19,-0.428l0.161,0.364l-0.323,-0l0.162,-0.364Z" style="fill:rgb(246,49,62);fill-rule:nonzero;"/>        </g>        <g transform="matrix(79.9618,0,0,239.243,305.279,178.731)">            <path d="M0.673,-0.68l-0.071,0l-0,0.407c-0,0.136 -0.088,0.222 -0.221,0.222c-0.132,0 -0.22,-0.086 -0.22,-0.222l-0,-0.407l-0.071,0l-0,0.407c-0,0.176 0.117,0.288 0.291,0.288c0.175,-0 0.292,-0.112 0.292,-0.288l0,-0.407Z" style="fill:rgb(246,49,62);fill-rule:nonzero;"/>        </g>        <g transform="matrix(79.9618,0,0,239.243,368.554,178.731)">            <path d="M0.584,-0.651c-0.064,-0.023 -0.16,-0.041 -0.246,-0.041c-0.144,0 -0.24,0.073 -0.24,0.192c0,0.101 0.057,0.145 0.208,0.176c0.11,0.023 0.227,0.04 0.227,0.144c0,0.083 -0.073,0.129 -0.178,0.129c-0.079,-0 -0.177,-0.02 -0.267,-0.057l-0.019,0.066c0.089,0.036 0.195,0.057 0.283,0.057c0.148,-0 0.253,-0.071 0.253,-0.201c0,-0.133 -0.108,-0.167 -0.259,-0.199c-0.121,-0.025 -0.173,-0.049 -0.173,-0.118c0,-0.08 0.065,-0.125 0.163,-0.125c0.065,0 0.152,0.015 0.229,0.038l0.019,-0.061Z" style="fill:rgb(246,49,62);fill-rule:nonzero;"/>        </g>    </g></svg>