<?xml version="1.0" encoding="UTF-8" standalone="no"?><!DOCTYPE svg PUBLIC "-//W3C//DTD SVG 1.1//EN" "http://www.w3.org/Graphics/SVG/1.1/DTD/svg11.dtd"><svg width="100%" height="100%" viewBox="0 0 1024 512" version="1.1" xmlns="http://www.w3.org/2000/svg" xmlns:xlink="http://www.w3.org/1999/xlink" xml:space="preserve" style="fill-rule:evenodd;clip-rule:evenodd;stroke-linejoin:round;stroke-miterlimit:2;"><title>LandlordInvest</title><desc>We are an online marketplace which matches professional landlords looking for financing with investors that are looking to invest in asset-backed products with a monthly income.</desc>    <g transform="matrix(0.700397,0,0,0.699547,-33.2534,133.526)">        <rect x="88" y="195" width="30" height="83" style="fill:rgb(39,44,124);"/>        <g transform="matrix(0.30755,0.532692,-2.1675,1.25141,625.834,-218.749)">            <rect x="88" y="195" width="30" height="83" style="fill:rgb(16,117,188);"/>        </g>        <g transform="matrix(1.61983,0,0,1.57478,-179.161,-0.606381)">            <g transform="matrix(144,0,0,144,265,175.231)">                <path d="M0.059,0l0,-0.716l0.077,0l0,0.632l0.289,0l0,0.084l-0.366,0Z" style="fill:rgb(16,117,188);fill-rule:nonzero;"/>            </g>            <g transform="matrix(144,0,0,144,330.672,175.231)">                <path d="M0.33,-0.064c-0.024,0.025 -0.049,0.044 -0.075,0.057c-0.026,0.012 -0.053,0.019 -0.081,0.019c-0.044,0 -0.08,-0.014 -0.106,-0.04c-0.026,-0.027 -0.04,-0.063 -0.04,-0.108c0,-0.03 0.007,-0.057 0.019,-0.08c0.012,-0.023 0.029,-0.041 0.051,-0.054c0.021,-0.013 0.054,-0.023 0.097,-0.029c0.059,-0.008 0.102,-0.018 0.129,-0.03l0.001,-0.023c0,-0.035 -0.007,-0.06 -0.019,-0.074c-0.018,-0.021 -0.046,-0.032 -0.083,-0.032c-0.033,0 -0.058,0.007 -0.075,0.021c-0.017,0.014 -0.029,0.04 -0.037,0.078l-0.07,-0.012c0.01,-0.055 0.03,-0.096 0.061,-0.121c0.031,-0.026 0.075,-0.038 0.132,-0.038c0.044,0 0.079,0.008 0.105,0.025c0.025,0.017 0.041,0.037 0.048,0.062c0.007,0.025 0.01,0.061 0.01,0.109l0,0.117c0,0.082 0.002,0.133 0.005,0.155c0.003,0.021 0.009,0.042 0.018,0.062l-0.075,0c-0.008,-0.018 -0.013,-0.039 -0.015,-0.064Zm-0.006,-0.196c-0.026,0.013 -0.065,0.024 -0.117,0.033c-0.031,0.005 -0.052,0.011 -0.064,0.018c-0.012,0.006 -0.021,0.016 -0.028,0.028c-0.007,0.012 -0.01,0.026 -0.01,0.042c0,0.025 0.008,0.045 0.023,0.06c0.015,0.014 0.036,0.022 0.063,0.022c0.026,0 0.049,-0.007 0.07,-0.02c0.021,-0.013 0.037,-0.031 0.048,-0.054c0.01,-0.022 0.015,-0.054 0.015,-0.097l0,-0.032Z" style="fill:rgb(16,117,188);fill-rule:nonzero;"/>            </g>            <g transform="matrix(144,0,0,144,396.344,175.231)">                <path d="M0.053,0l0,-0.519l0.065,0l0,0.074c0.015,-0.028 0.034,-0.05 0.057,-0.064c0.023,-0.014 0.049,-0.021 0.078,-0.021c0.023,0 0.044,0.004 0.063,0.013c0.02,0.009 0.035,0.021 0.047,0.035c0.012,0.015 0.021,0.034 0.027,0.057c0.006,0.023 0.008,0.058 0.008,0.106l0,0.319l-0.072,0l0,-0.315c0,-0.039 -0.003,-0.066 -0.01,-0.084c-0.006,-0.018 -0.016,-0.031 -0.03,-0.041c-0.014,-0.009 -0.03,-0.014 -0.048,-0.014c-0.035,0 -0.062,0.013 -0.083,0.038c-0.02,0.026 -0.03,0.07 -0.03,0.133l0,0.283l-0.072,0Z" style="fill:rgb(16,117,188);fill-rule:nonzero;"/>            </g>            <g transform="matrix(144,0,0,144,462.016,175.231)">                <path d="M0.329,0l0,-0.065c-0.013,0.025 -0.03,0.044 -0.051,0.057c-0.02,0.013 -0.042,0.02 -0.066,0.02c-0.05,0 -0.094,-0.024 -0.13,-0.071c-0.037,-0.048 -0.055,-0.114 -0.055,-0.2c0,-0.059 0.008,-0.109 0.024,-0.15c0.017,-0.041 0.038,-0.072 0.065,-0.091c0.028,-0.02 0.058,-0.03 0.091,-0.03c0.024,0 0.046,0.006 0.066,0.019c0.021,0.012 0.037,0.03 0.051,0.052l0,-0.257l0.072,0l0,0.716l-0.067,0Zm-0.228,-0.259c0,0.067 0.011,0.117 0.034,0.15c0.024,0.032 0.051,0.048 0.082,0.048c0.03,0 0.057,-0.015 0.079,-0.046c0.023,-0.032 0.034,-0.079 0.034,-0.142c0,-0.073 -0.011,-0.126 -0.034,-0.159c-0.022,-0.033 -0.05,-0.05 -0.085,-0.05c-0.03,0 -0.056,0.016 -0.078,0.048c-0.022,0.032 -0.032,0.083 -0.032,0.151Z" style="fill:rgb(16,117,188);fill-rule:nonzero;"/>            </g>            <g transform="matrix(144,0,0,144,527.688,175.231)">                <rect x="0.051" y="-0.716" width="0.072" height="0.716" style="fill:rgb(16,117,188);fill-rule:nonzero;"/>            </g>            <g transform="matrix(144,0,0,144,553.914,175.231)">                <path d="M0.026,-0.259c0,-0.09 0.019,-0.157 0.056,-0.203c0.038,-0.045 0.085,-0.068 0.143,-0.068c0.057,0 0.104,0.023 0.142,0.068c0.038,0.046 0.057,0.111 0.057,0.197c0,0.093 -0.018,0.163 -0.056,0.208c-0.037,0.046 -0.085,0.069 -0.143,0.069c-0.057,0 -0.104,-0.023 -0.142,-0.069c-0.038,-0.046 -0.057,-0.113 -0.057,-0.202Zm0.074,0c0,0.067 0.012,0.117 0.036,0.149c0.025,0.033 0.055,0.049 0.091,0.049c0.034,0 0.063,-0.016 0.087,-0.049c0.024,-0.033 0.037,-0.083 0.037,-0.149c0,-0.067 -0.013,-0.117 -0.037,-0.149c-0.024,-0.033 -0.055,-0.05 -0.091,-0.05c-0.034,0 -0.063,0.017 -0.087,0.05c-0.024,0.033 -0.036,0.082 -0.036,0.149Z" style="fill:rgb(16,117,188);fill-rule:nonzero;"/>            </g>            <g transform="matrix(144,0,0,144,619.586,175.231)">                <path d="M0.053,0l0,-0.519l0.065,0l0,0.079c0.016,-0.036 0.031,-0.061 0.045,-0.072c0.014,-0.012 0.03,-0.018 0.047,-0.018c0.024,0 0.049,0.009 0.074,0.028l-0.025,0.082c-0.018,-0.013 -0.035,-0.019 -0.052,-0.019c-0.015,0 -0.029,0.005 -0.042,0.016c-0.013,0.01 -0.022,0.025 -0.027,0.045c-0.009,0.033 -0.013,0.069 -0.013,0.107l0,0.271l-0.072,0Z" style="fill:rgb(16,117,188);fill-rule:nonzero;"/>            </g>            <g transform="matrix(144,0,0,144,658.891,175.231)">                <path d="M0.329,0l0,-0.065c-0.013,0.025 -0.03,0.044 -0.051,0.057c-0.02,0.013 -0.042,0.02 -0.066,0.02c-0.05,0 -0.094,-0.024 -0.13,-0.071c-0.037,-0.048 -0.055,-0.114 -0.055,-0.2c0,-0.059 0.008,-0.109 0.024,-0.15c0.017,-0.041 0.038,-0.072 0.065,-0.091c0.028,-0.02 0.058,-0.03 0.091,-0.03c0.024,0 0.046,0.006 0.066,0.019c0.021,0.012 0.037,0.03 0.051,0.052l0,-0.257l0.072,0l0,0.716l-0.067,0Zm-0.228,-0.259c0,0.067 0.011,0.117 0.034,0.15c0.024,0.032 0.051,0.048 0.082,0.048c0.03,0 0.057,-0.015 0.079,-0.046c0.023,-0.032 0.034,-0.079 0.034,-0.142c0,-0.073 -0.011,-0.126 -0.034,-0.159c-0.022,-0.033 -0.05,-0.05 -0.085,-0.05c-0.03,0 -0.056,0.016 -0.078,0.048c-0.022,0.032 -0.032,0.083 -0.032,0.151Z" style="fill:rgb(16,117,188);fill-rule:nonzero;"/>            </g>        </g>        <g transform="matrix(1.59769,0,0,1.56471,580.888,0.120094)">            <g transform="matrix(144,0,0,144,265,175.231)">                <rect x="0.078" y="-0.716" width="0.078" height="0.716" style="fill:rgb(39,44,124);fill-rule:nonzero;"/>            </g>            <g transform="matrix(144,0,0,144,297.836,175.231)">                <path d="M0.053,0l0,-0.519l0.065,0l0,0.074c0.015,-0.028 0.034,-0.05 0.057,-0.064c0.023,-0.014 0.049,-0.021 0.078,-0.021c0.023,0 0.044,0.004 0.063,0.013c0.02,0.009 0.035,0.021 0.047,0.035c0.012,0.015 0.021,0.034 0.027,0.057c0.006,0.023 0.008,0.058 0.008,0.106l0,0.319l-0.072,0l0,-0.315c0,-0.039 -0.003,-0.066 -0.01,-0.084c-0.006,-0.018 -0.016,-0.031 -0.03,-0.041c-0.014,-0.009 -0.03,-0.014 -0.048,-0.014c-0.035,0 -0.062,0.013 -0.083,0.038c-0.02,0.026 -0.03,0.07 -0.03,0.133l0,0.283l-0.072,0Z" style="fill:rgb(39,44,124);fill-rule:nonzero;"/>            </g>            <g transform="matrix(144,0,0,144,363.508,175.231)">                <path d="M0.172,0l-0.162,-0.519l0.076,0l0.092,0.311c0.01,0.035 0.019,0.07 0.027,0.104c0.006,-0.027 0.015,-0.06 0.026,-0.098l0.095,-0.317l0.074,0l-0.161,0.519l-0.067,0Z" style="fill:rgb(39,44,124);fill-rule:nonzero;"/>            </g>            <g transform="matrix(144,0,0,144,422.57,175.231)">                <path d="M0.344,-0.167l0.074,0.011c-0.012,0.056 -0.035,0.097 -0.067,0.125c-0.033,0.029 -0.073,0.043 -0.121,0.043c-0.06,0 -0.108,-0.023 -0.146,-0.069c-0.037,-0.046 -0.056,-0.112 -0.056,-0.198c0,-0.089 0.019,-0.158 0.057,-0.205c0.037,-0.047 0.085,-0.07 0.143,-0.07c0.055,0 0.1,0.023 0.137,0.069c0.037,0.046 0.055,0.113 0.055,0.201l0,0.023l-0.317,0c0.002,0.058 0.016,0.102 0.04,0.132c0.024,0.03 0.053,0.044 0.088,0.044c0.054,0 0.092,-0.035 0.113,-0.106Zm-0.237,-0.142l0.237,0c-0.003,-0.045 -0.013,-0.079 -0.029,-0.101c-0.023,-0.032 -0.052,-0.048 -0.088,-0.048c-0.032,0 -0.06,0.013 -0.082,0.04c-0.023,0.027 -0.036,0.063 -0.038,0.109Z" style="fill:rgb(39,44,124);fill-rule:nonzero;"/>            </g>            <g transform="matrix(144,0,0,144,488.242,175.231)">                <path d="M0.025,-0.155l0.072,-0.013c0.004,0.036 0.015,0.063 0.034,0.081c0.019,0.018 0.044,0.026 0.076,0.026c0.031,0 0.055,-0.007 0.072,-0.023c0.017,-0.015 0.026,-0.035 0.026,-0.059c0,-0.02 -0.008,-0.036 -0.022,-0.047c-0.01,-0.008 -0.035,-0.018 -0.074,-0.03c-0.056,-0.017 -0.093,-0.032 -0.112,-0.044c-0.019,-0.012 -0.033,-0.028 -0.044,-0.048c-0.01,-0.02 -0.015,-0.043 -0.015,-0.069c0,-0.044 0.014,-0.08 0.042,-0.108c0.028,-0.027 0.068,-0.041 0.118,-0.041c0.031,0 0.059,0.005 0.083,0.017c0.024,0.011 0.042,0.027 0.055,0.046c0.013,0.019 0.021,0.046 0.026,0.082l-0.07,0.012c-0.007,-0.057 -0.037,-0.085 -0.092,-0.085c-0.032,0 -0.055,0.006 -0.07,0.019c-0.015,0.012 -0.023,0.028 -0.023,0.048c0,0.019 0.007,0.034 0.022,0.045c0.009,0.007 0.035,0.017 0.078,0.032c0.06,0.019 0.098,0.034 0.116,0.045c0.017,0.011 0.031,0.027 0.041,0.046c0.01,0.019 0.014,0.042 0.014,0.069c0,0.05 -0.015,0.09 -0.047,0.12c-0.031,0.031 -0.074,0.046 -0.128,0.046c-0.102,0 -0.161,-0.055 -0.178,-0.167Z" style="fill:rgb(39,44,124);fill-rule:nonzero;"/>            </g>            <g transform="matrix(144,0,0,144,547.305,175.231)">                <path d="M0.213,-0.079l0.01,0.078c-0.02,0.005 -0.038,0.008 -0.054,0.008c-0.025,0 -0.045,-0.005 -0.06,-0.015c-0.015,-0.01 -0.026,-0.024 -0.032,-0.041c-0.005,-0.017 -0.008,-0.051 -0.008,-0.103l0,-0.298l-0.053,0l0,-0.069l0.053,0l0,-0.128l0.072,0l0,0.128l0.072,0l0,0.069l-0.072,0l0,0.303c0,0.028 0.002,0.046 0.006,0.054c0.006,0.012 0.018,0.018 0.035,0.018c0.008,0 0.018,-0.001 0.031,-0.004Z" style="fill:rgb(39,44,124);fill-rule:nonzero;"/>            </g>        </g>        <g transform="matrix(1,0,0,1.37349,56.516,-103.831)">            <rect x="88" y="195" width="30" height="83" style="fill:rgb(39,44,124);"/>        </g>        <g transform="matrix(1,0,0,1.73494,109.516,-204.313)">            <rect x="88" y="195" width="30" height="83" style="fill:rgb(39,44,124);"/>        </g>    </g></svg>