<?xml version="1.0" encoding="UTF-8" standalone="no"?><!DOCTYPE svg PUBLIC "-//W3C//DTD SVG 1.1//EN" "http://www.w3.org/Graphics/SVG/1.1/DTD/svg11.dtd"><svg width="100%" height="100%" viewBox="0 0 1024 512" version="1.1" xmlns="http://www.w3.org/2000/svg" xmlns:xlink="http://www.w3.org/1999/xlink" xml:space="preserve" style="fill-rule:evenodd;clip-rule:evenodd;stroke-linejoin:round;stroke-miterlimit:2;"><title>Reyker</title><desc>Established in 1983, Reyker offers a range of bespoke financial services for a wide variety of client types. We specialise in providing dealing, management, custody and administration services.</desc>    <g transform="matrix(6.46757,0,0,6.46296,-1.23378,78.2685)">        <path d="M138.718,12.905l0.01,-0.039c-4.765,-0.519 -9.587,0.089 -14.074,1.775l0,26.809l5.658,0l0,-22.012c0,-1.492 -0.011,-1.6 1.428,-1.75c1.288,-0.135 2.587,-0.189 3.914,-0.239l3.064,-4.544Z" style="fill:rgb(154,213,228);fill-rule:nonzero;"/>        <path d="M103.073,19.449c2.344,-3.133 7.438,-3.487 9.946,-0.744c1.238,1.551 1.83,3.523 1.649,5.5l-13.484,1.867c-0.163,-2.361 0.506,-4.706 1.889,-6.627m14.737,16.57l-0.115,0.041c-1.436,0.442 -2.896,0.805 -4.372,1.085c-1.549,0.232 -3.118,0.303 -4.682,0.21c-3.939,-0.255 -7.047,-3.559 -7.061,-7.506l18.686,-2.618c-0,-1 0.042,-1.923 -0.008,-2.838c-0.165,-3.027 -0.859,-5.879 -2.968,-8.2c-2.548,-2.8 -5.833,-3.632 -9.47,-3.456c-3.948,0.013 -7.604,2.122 -9.592,5.533c-2.769,4.645 -2.984,9.648 -1.534,14.734c1.063,4.245 4.441,7.541 8.71,8.5c2.377,0.6 4.848,0.736 7.276,0.4c2.65,-0.289 5.232,-1.019 7.642,-2.158l-2.512,-3.727Z" style="fill:rgb(154,213,228);fill-rule:nonzero;"/>        <path d="M93.908,13.251l-5.756,0l-9.44,14.113l9.405,14.077l5.826,0l-9.44,-14.112l9.405,-14.078Z" style="fill:rgb(60,50,105);fill-rule:nonzero;"/>        <rect x="69.936" y="0.5" width="5.501" height="40.926" style="fill:rgb(60,50,105);"/>        <path d="M14.573,12.866c-4.765,-0.519 -9.586,0.089 -14.073,1.775l0,26.808l5.658,0l0,-22.011c0,-1.492 -0.011,-1.6 1.428,-1.75c1.288,-0.135 2.586,-0.188 3.913,-0.24l3.065,-4.543c0,-0.013 0.006,-0.026 0.009,-0.039" style="fill:rgb(60,50,105);fill-rule:nonzero;"/>        <path d="M21.026,19.536c2.343,-3.133 7.438,-3.487 9.945,-0.744c1.238,1.551 1.83,3.523 1.65,5.5l-13.484,1.872c-0.164,-2.362 0.505,-4.708 1.889,-6.628m14.621,16.611c-1.436,0.442 -2.895,0.805 -4.371,1.086c-1.55,0.232 -3.119,0.302 -4.683,0.21c-3.939,-0.256 -7.047,-3.56 -7.061,-7.507l18.687,-2.617c0,-1 0.042,-1.923 -0.009,-2.839c-0.164,-3.026 -0.858,-5.879 -2.968,-8.2c-2.547,-2.8 -5.832,-3.632 -9.47,-3.456c-3.947,0.013 -7.604,2.122 -9.591,5.533c-2.77,4.643 -2.981,9.643 -1.534,14.73c1.063,4.245 4.441,7.541 8.71,8.5c2.377,0.601 4.848,0.737 7.276,0.4c2.649,-0.289 5.232,-1.018 7.641,-2.157l-2.512,-3.726c-0.039,0.014 -0.076,0.029 -0.115,0.041" style="fill:rgb(60,50,105);fill-rule:nonzero;"/>        <path d="M60.069,13.259l-7.581,20.829l-7.58,-20.829l-5.594,0l10.378,28.512l-0.019,0.05l-4.614,12.679l5.593,0l15.011,-41.241l-5.594,0Z" style="fill:rgb(60,50,105);fill-rule:nonzero;"/>        <path d="M142.979,13.388l9.44,14.113l-9.405,14.077l5.755,0.001l9.441,-14.113l-9.406,-14.078l-5.825,0Z" style="fill:rgb(60,50,105);fill-rule:nonzero;"/>    </g></svg>