<?xml version="1.0" encoding="UTF-8" standalone="no"?><!DOCTYPE svg PUBLIC "-//W3C//DTD SVG 1.1//EN" "http://www.w3.org/Graphics/SVG/1.1/DTD/svg11.dtd"><svg width="100%" height="100%" viewBox="0 0 1024 512" version="1.1" xmlns="http://www.w3.org/2000/svg" xmlns:xlink="http://www.w3.org/1999/xlink" xml:space="preserve" style="fill-rule:evenodd;clip-rule:evenodd;stroke-linejoin:round;stroke-miterlimit:2;"><title>Zonky</title><desc>Zonky.cz is a unique Czech peer-to-peer (P2P) service that connects people who want the best loan on the market with people who want to cleverly evaluate their savings.The Zonky service is operated by Benxy, which has a license from the Czech National Bank for payment institutions and a license for a non-bank consumer credit provider.</desc>    <g transform="matrix(6.29946,0,0,6.29946,-2309.9,-418.042)">        <g transform="matrix(1,0,0,1,0,-326.784)">            <path d="M433.255,435.403c1.223,-0.434 2.503,-0.839 3.859,-1.208c2.834,-0.764 5.863,-1.338 9.067,-1.729c0.078,-0.088 0.096,-0.186 0.018,-0.317c-0.152,-0.249 -0.268,-0.507 -0.358,-0.768c-2.328,0.276 -4.595,0.64 -6.787,1.109c-2.073,0.445 -4.015,0.957 -5.837,1.532c0.003,0.078 0,0.158 0.011,0.239c0.052,0.383 0.054,0.758 0.027,1.142" style="fill-rule:nonzero;"/>        </g>        <g transform="matrix(1,0,0,1,0,-330.08)">            <path d="M444.708,434.56c0.359,-0.043 0.719,-0.071 1.08,-0.106c-0.103,-0.369 -0.15,-0.743 -0.138,-1.115c-0.127,0.01 -0.258,0.018 -0.388,0.028c-4.189,0.373 -8.05,1.084 -11.708,1.991l0,0.025c-0.013,0.15 -0.061,0.299 -0.098,0.444c-0.071,0.304 -0.153,0.609 -0.201,0.914c0.83,-0.229 1.671,-0.449 2.548,-0.65c2.829,-0.656 5.775,-1.168 8.905,-1.531" style="fill-rule:nonzero;"/>        </g>        <g transform="matrix(1,0,0,1,0,-312.771)">            <path d="M429.094,420.087c-0.023,0.002 -0.046,0.005 -0.071,0.005c-0.043,-0.065 -0.12,-0.133 -0.12,-0.201c-0.003,-0.06 0.08,-0.123 0.125,-0.186c0.058,0.058 0.156,0.104 0.166,0.169c0.01,0.063 -0.063,0.143 -0.1,0.213m1.267,-0.841c0.033,-0.138 -0.017,-0.223 -0.117,-0.296c-2.914,0.886 -5.518,1.91 -7.873,3.05c-2.307,1.115 -4.373,2.31 -6.038,3.606c-2.06,1.593 -4.027,3.214 -5.878,4.851c-0.956,0.845 -1.88,1.694 -2.845,2.535c0.116,0.05 0.226,0.123 0.337,0.244c0.044,0.05 0.142,0.085 0.209,0.077c0.191,-0.017 0.387,-0.002 0.497,0.159c0.206,0.304 0.506,0.323 0.817,0.346c0.022,0.003 0.04,0 0.06,0c1,-0.841 1.929,-1.7 2.889,-2.553c1.29,-1.14 2.553,-2.29 3.931,-3.415c1.644,-1.338 3.485,-2.634 5.637,-3.851c1.862,-1.057 3.912,-2.044 6.232,-2.928c0.619,-0.236 1.257,-0.462 1.907,-0.683c0.092,-0.377 0.158,-0.76 0.235,-1.142" style="fill-rule:nonzero;"/>        </g>        <g transform="matrix(1,0,0,1,0,-309.111)">            <path d="M412.383,431.07c-0.075,0.163 -0.184,0.228 -0.37,0.178c-0.313,-0.08 -0.411,-0.168 -0.419,-0.394c-0.002,-0.249 0.143,-0.371 0.383,-0.317c0.098,0.026 0.198,0.063 0.287,0.113c0.162,0.096 0.198,0.241 0.119,0.42m15.786,-12.833c0.035,0.021 0.068,0.048 0.103,0.066c-0.002,0.024 -0.002,0.047 -0.002,0.073c-0.061,0.03 -0.131,0.098 -0.179,0.082c-0.058,-0.017 -0.108,-0.068 -0.158,-0.117c-0.077,0.037 -0.16,0.07 -0.238,0.102c-2.478,1.125 -4.665,2.335 -6.419,3.666c-1.639,1.245 -3.17,2.513 -4.613,3.799c-1.198,1.069 -2.305,2.152 -3.443,3.229c0.008,0.027 0.023,0.055 0.018,0.085c-0.005,0.143 -0.121,0.235 -0.295,0.233c-0.018,0 -0.033,-0.004 -0.049,-0.007c-0.397,0.376 -0.798,0.751 -1.21,1.125c-0.185,0.165 -0.372,0.334 -0.563,0.497c0.073,0.037 0.145,0.078 0.228,0.1c0.09,0.023 0.172,0.088 0.24,0.153c0.13,0.133 0.273,0.156 0.444,0.093c0.082,-0.03 0.178,-0.062 0.26,-0.055c0.521,0.051 0.963,-0.171 1.388,-0.419c0.131,-0.078 0.231,-0.096 0.364,-0.038c0.15,-0.125 0.313,-0.25 0.458,-0.373c1.306,-1.11 2.391,-2.26 3.631,-3.385c1.208,-1.09 2.446,-2.174 3.741,-3.249c0.815,-0.673 1.723,-1.318 2.696,-1.949c-0.085,-0.055 -0.141,-0.142 -0.143,-0.253c-0.007,-0.233 0.165,-0.465 0.349,-0.465c0.155,0 0.26,0.103 0.265,0.25c0,0.057 -0.007,0.112 -0.021,0.17c1.048,-0.656 2.198,-1.283 3.426,-1.889c-0.003,-0.009 -0.01,-0.017 -0.01,-0.025c0,-0.095 -0.01,-0.222 0.045,-0.274c0.05,-0.046 0.183,-0.027 0.276,-0.004c0.042,0.007 0.075,0.058 0.112,0.09c0.133,-0.063 0.255,-0.13 0.388,-0.195c0.096,-0.043 0.196,-0.084 0.291,-0.126c0.03,-0.086 0.051,-0.174 0.043,-0.269c-0.013,-0.223 -0.065,-0.447 -0.125,-0.665c-0.065,-0.254 0,-0.463 0.15,-0.661c-0.492,0.198 -0.975,0.399 -1.448,0.605" style="fill-rule:nonzero;"/>        </g>        <g transform="matrix(1,0,0,1,0,-334.946)">            <path d="M433.891,439.001c2.689,-0.617 5.498,-1.129 8.459,-1.504c1.153,-0.146 2.325,-0.264 3.496,-0.382c0.135,-0.409 0.331,-0.803 0.611,-1.169c-4.222,0.479 -8.358,1.064 -12.257,1.887c-0.126,0.028 -0.246,0.055 -0.371,0.083c-0.007,0.151 -0.018,0.299 -0.068,0.432c-0.1,0.261 -0.1,0.452 0.123,0.642c0.005,0.003 0.005,0.008 0.007,0.01" style="fill-rule:nonzero;"/>        </g>        <g transform="matrix(1,0,0,1,0,-308.614)">            <path d="M406.278,426.859c-0.101,0.139 -0.231,0.158 -0.362,0.033c-0.092,-0.088 -0.182,-0.186 -0.242,-0.296c-0.078,-0.159 0.019,-0.281 0.253,-0.279c0.075,0.03 0.208,0.068 0.323,0.13c0.128,0.076 0.133,0.272 0.028,0.412m6.031,-6.081c-0.221,-0.01 -0.449,-0.01 -0.669,-0.043c-0.522,0.38 -1.02,0.764 -1.491,1.156c-1.815,1.493 -3.498,3.015 -5.267,4.519c-0.098,0.088 -0.201,0.175 -0.301,0.261c0.02,0.038 0.043,0.068 0.063,0.115c0.054,0.131 0.151,0.249 0.243,0.361c0.145,0.179 0.308,0.343 0.456,0.515c0.058,0.071 0.09,0.159 0.145,0.232c0.103,0.127 0.163,0.171 0.258,0.153c0.963,-0.853 1.897,-1.71 2.894,-2.556c1.674,-1.421 3.383,-2.837 5.131,-4.241c0.294,-0.236 0.617,-0.467 0.935,-0.695c-0.007,0 -0.012,-0.006 -0.02,-0.003c-0.456,0.076 -0.915,0.161 -1.373,0.228c-0.158,0.023 -0.321,0.018 -0.481,0.018c-0.173,-0.002 -0.348,-0.012 -0.523,-0.02" style="fill-rule:nonzero;"/>        </g>        <g transform="matrix(1,0,0,1,0,-326.874)">            <path d="M423.476,433.889c-0.052,-0.038 -0.068,-0.133 -0.103,-0.201c0.02,-0.017 0.041,-0.035 0.058,-0.055c0.065,0.03 0.15,0.043 0.192,0.091c0.053,0.065 0.071,0.155 0.104,0.233c-0.083,-0.02 -0.186,-0.02 -0.251,-0.068m6.745,-3.186c-1.448,0.379 -2.856,0.788 -4.207,1.233c-2.02,0.66 -3.886,1.381 -5.64,2.143l0,0.026c-0.04,0.163 -0.101,0.322 -0.153,0.482c-0.063,0.203 -0.185,0.362 -0.383,0.439c-0.271,0.109 -0.414,0.315 -0.494,0.583c-0.037,0.11 -0.08,0.223 -0.143,0.319c-0.049,0.078 -0.077,0.163 -0.11,0.243c0.088,-0.045 0.17,-0.093 0.259,-0.138c0.275,-0.143 0.575,-0.276 0.856,-0.414c0.05,-0.068 0.115,-0.113 0.186,-0.115c0.014,-0.003 0.025,0.005 0.039,0.007c2.75,-1.336 5.846,-2.526 9.362,-3.535c-0.076,-0.018 -0.148,-0.043 -0.18,-0.091c-0.054,-0.072 -0.043,-0.251 0.014,-0.331c0.1,-0.143 0.255,-0.251 0.393,-0.364c0.056,-0.048 0.128,-0.063 0.188,-0.1c0.171,-0.109 0.178,-0.193 0.045,-0.344c-0.014,-0.015 -0.019,-0.028 -0.032,-0.043" style="fill-rule:nonzero;"/>        </g>        <g transform="matrix(1,0,0,1,0,-309.209)">            <path d="M444.255,423.226c-0.213,-0.017 -0.318,-0.168 -0.291,-0.411c0.032,-0.241 0.198,-0.429 0.361,-0.407c0.175,0.025 0.403,0.344 0.381,0.535c-0.023,0.196 -0.201,0.308 -0.451,0.283m-3.938,1.261c-0.058,0.002 -0.119,-0.073 -0.179,-0.113c0,-0.028 0.005,-0.054 0.005,-0.079c0.068,-0.029 0.143,-0.097 0.195,-0.08c0.065,0.018 0.111,0.104 0.163,0.161c-0.059,0.041 -0.12,0.111 -0.185,0.111m5.44,-1.574c0.055,-0.094 0.11,-0.193 0.14,-0.294c0.07,-0.29 -0.053,-0.5 -0.273,-0.683c-0.125,-0.103 -0.186,-0.211 -0.215,-0.327c-1.266,0.352 -2.487,0.734 -3.644,1.158c-2.688,0.987 -4.893,2.121 -6.816,3.347c-0.001,0.007 0,0.017 -0.001,0.025c-0.091,0.314 -0.018,0.572 0.18,0.803c0.103,0.123 0.22,0.229 0.333,0.339c0.101,-0.133 0.195,-0.266 0.301,-0.392c0.072,-0.09 0.158,-0.167 0.238,-0.248c0.075,0.091 0.2,0.171 0.218,0.269c0.039,0.225 0.053,0.459 0.07,0.69c1.518,-1.02 3.194,-1.994 5.164,-2.877c1.27,-0.57 2.656,-1.088 4.131,-1.56c0.058,-0.083 0.121,-0.165 0.174,-0.25" style="fill-rule:nonzero;"/>        </g>        <g transform="matrix(1,0,0,1,0,-315.202)">            <path d="M433.907,430.376c0.017,0.041 0.035,0.081 0.052,0.123c1.128,-0.664 2.358,-1.298 3.711,-1.893c2.357,-1.036 5.041,-1.931 8.118,-2.563c-0.05,-0.249 -0.037,-0.495 0.021,-0.739c0.054,-0.236 0.032,-0.424 -0.123,-0.602c-1.547,0.299 -3.037,0.645 -4.47,1.044c-2.662,0.741 -5.002,1.628 -7.016,2.642c-0.236,0.118 -0.462,0.243 -0.692,0.364c-0.01,0.073 -0.017,0.143 -0.042,0.219c-0.048,0.145 -0.078,0.338 -0.028,0.474c0.13,0.321 0.316,0.621 0.469,0.931" style="fill-rule:nonzero;"/>        </g>        <g transform="matrix(1,0,0,1,0,-305.234)">            <path d="M423.947,421.647c-0.168,-0.003 -0.313,-0.12 -0.304,-0.264c0.014,-0.174 0.147,-0.213 0.284,-0.215c0.172,-0.01 0.323,0.109 0.321,0.24c0,0.128 -0.141,0.239 -0.301,0.239m-2.175,0.919c0.007,0.007 0.012,0.007 0.02,0.012c0.111,0.091 0.125,0.246 0.03,0.332c-0.158,0.148 -0.35,0.258 -0.556,0.402c-0.068,-0.061 -0.125,-0.106 -0.172,-0.151c-0.344,0.304 -0.69,0.605 -1.036,0.906c-0.268,0.239 -0.534,0.477 -0.801,0.715c0.045,0.031 0.097,0.056 0.127,0.114c0.071,0.143 0.101,0.301 0.147,0.455c-0.027,0.33 -0.194,0.476 -0.507,0.391c-0.154,-0.043 -0.354,-0.061 -0.376,-0.279c-0.005,-0.047 0,-0.093 0.002,-0.138c-0.072,0.062 -0.143,0.128 -0.213,0.193c0.083,0.011 0.15,0.048 0.158,0.174c0.005,0.16 -0.15,0.25 -0.396,0.25c-0.073,0 -0.136,-0.014 -0.183,-0.047c-0.125,0.113 -0.25,0.229 -0.38,0.341c0.132,-0.11 0.255,-0.098 0.375,0.026c0.201,0.201 0.421,0.386 0.511,0.672c0.03,0.098 0.111,0.216 0.223,0.146c0.058,-0.035 0.068,-0.178 0.06,-0.268c-0.007,-0.093 -0.089,-0.186 -0.085,-0.275c0.01,-0.14 0.03,-0.308 0.116,-0.411c0.1,-0.123 0.272,-0.083 0.413,-0.008c0.12,0.063 0.23,0.144 0.351,0.204c0.245,0.128 0.406,0.045 0.476,-0.221c0.037,-0.159 0.06,-0.339 0.155,-0.453c0.226,-0.268 0.339,-0.672 0.789,-0.697c0.056,-0.003 0.115,-0.083 0.154,-0.141c0.125,-0.21 0.084,-0.283 -0.121,-0.417c-0.102,-0.067 -0.225,-0.198 -0.223,-0.298c0.002,-0.104 0.121,-0.242 0.229,-0.302c0.307,-0.172 0.613,-0.09 0.901,0.073c0.228,0.128 0.243,0.176 0.143,0.408c-0.053,0.119 -0.045,0.243 0.075,0.28c0.081,0.025 0.21,-0.022 0.278,-0.085c0.042,-0.032 0.03,-0.176 -0.013,-0.239c-0.11,-0.173 -0.049,-0.271 0.101,-0.364c0.105,-0.065 0.213,-0.133 0.3,-0.218c0.113,-0.108 0.088,-0.206 -0.062,-0.261c-0.106,-0.043 -0.228,-0.063 -0.329,-0.118c-0.152,-0.08 -0.157,-0.211 -0.034,-0.332c0.157,-0.148 0.353,-0.183 0.54,-0.098c0.469,0.208 0.907,0.091 1.329,-0.11c0.138,-0.062 0.27,-0.218 0.318,-0.362c0.077,-0.223 0.19,-0.377 0.411,-0.451c0.163,-0.056 0.213,-0.169 0.173,-0.337c-0.053,-0.239 -0.023,-0.313 0.209,-0.402c0.255,-0.096 0.429,-0.235 0.47,-0.515c0.022,-0.165 0.113,-0.208 0.275,-0.13c0.273,0.123 0.366,0.038 0.336,-0.267c-0.01,-0.115 0,-0.243 0.04,-0.353c0.055,-0.151 0.148,-0.286 0.22,-0.432c0.096,-0.194 0.222,-0.347 0.421,-0.441c0.173,-0.079 0.301,-0.214 0.323,-0.41c0.026,-0.214 0.1,-0.392 0.247,-0.545c-1.208,0.713 -2.316,1.454 -3.287,2.23c-0.928,0.742 -1.808,1.496 -2.672,2.252" style="fill-rule:nonzero;"/>        </g>        <g transform="matrix(1,0,0,1,0,-321.283)">            <path d="M445.695,428.212c-1.601,0.231 -3.149,0.525 -4.655,0.859c-2.844,0.625 -5.377,1.406 -7.66,2.304c-0.004,0.098 -0.012,0.194 -0.018,0.292c-0.039,0.464 -0.044,0.934 -0.047,1.403c2.16,-0.991 4.598,-1.853 7.349,-2.571c1.644,-0.432 3.388,-0.783 5.194,-1.072c-0.022,-0.118 -0.055,-0.231 -0.1,-0.333c-0.113,-0.259 -0.182,-0.503 -0.092,-0.779c0.01,-0.035 0.019,-0.067 0.029,-0.103" style="fill-rule:nonzero;"/>        </g>        <g transform="matrix(1,0,0,1,0,-312.463)">            <path d="M408.5,423.015c-0.401,0.269 -0.804,0.533 -1.203,0.801c-1.099,0.733 -2.037,1.506 -2.969,2.283c-0.797,0.662 -1.564,1.336 -2.332,2.005c0.037,0.016 0.08,0.021 0.11,0.043c0.16,0.133 0.338,0.169 0.541,0.169c0.267,0 0.626,0.439 0.596,0.704c-0.002,0.046 -0.023,0.088 -0.045,0.129c-0.09,0.161 -0.138,0.236 -0.118,0.299c0.607,-0.53 1.215,-1.06 1.847,-1.587c1.586,-1.318 3.172,-2.641 4.948,-3.916c-0.21,-0.116 -0.395,-0.277 -0.574,-0.44c-0.242,-0.221 -0.497,-0.39 -0.801,-0.49" style="fill-rule:nonzero;"/>        </g>        <g transform="matrix(1,0,0,1,0,-332.556)">            <path d="M420.158,437.183c-0.059,0.337 -0.035,0.67 0.18,0.971c0.043,0.058 0.106,0.106 0.166,0.154c1.248,-0.492 2.564,-0.954 3.951,-1.38c0.054,-0.079 0.13,-0.142 0.236,-0.136c0.03,0 0.045,0.024 0.073,0.034c0.042,-0.012 0.085,-0.029 0.13,-0.042c1.751,-0.522 3.53,-1.032 5.367,-1.504c0.123,-0.246 0.108,-0.376 -0.115,-0.577c-0.153,-0.133 -0.192,-0.279 -0.186,-0.455c-3.37,0.811 -6.544,1.74 -9.471,2.81c-0.112,0.04 -0.216,0.085 -0.331,0.125" style="fill-rule:nonzero;"/>        </g>        <g transform="matrix(1,0,0,1,0,-304.147)">            <path d="M443.857,420.856c0.089,-0.005 0.192,0.015 0.28,0.048c0.183,0.069 0.336,0.04 0.503,-0.068c0.108,-0.073 0.259,-0.106 0.396,-0.108c0.173,-0.005 0.336,0 0.414,-0.188c0.087,-0.201 -0.048,-0.304 -0.183,-0.41c-0.04,-0.032 -0.059,-0.071 -0.091,-0.103c-1.778,0.714 -3.382,1.479 -4.791,2.317c-0.834,0.495 -1.625,1.003 -2.397,1.515c0.311,0.002 0.622,0.035 0.93,0.146c0.318,0.115 0.641,0.109 0.964,-0.038c0.086,-0.045 0.213,-0.016 0.321,-0.003c0.211,0.028 0.416,0.09 0.627,0.098c0.29,0.015 0.345,-0.06 0.282,-0.344c-0.049,-0.213 0.016,-0.379 0.186,-0.507c0.121,-0.091 0.243,-0.178 0.381,-0.241c0.305,-0.143 0.629,-0.098 0.947,-0.023c0.15,0.033 0.223,0.134 0.281,0.244c0.183,-0.105 0.361,-0.211 0.546,-0.314c0.02,-0.095 0.05,-0.208 0.116,-0.261c0.157,-0.13 0.147,-0.239 0.065,-0.412c-0.051,-0.103 -0.038,-0.287 0.022,-0.379c0.057,-0.08 0.223,-0.09 0.341,-0.112c0.075,-0.014 0.152,0.011 0.228,0.014c0.155,0.005 0.275,-0.053 0.278,-0.228c0.002,-0.189 -0.118,-0.294 -0.305,-0.271c-0.104,0.01 -0.204,0.047 -0.304,0.055c-0.143,0.013 -0.25,-0.055 -0.258,-0.204c-0.01,-0.141 0.09,-0.218 0.221,-0.223" style="fill-rule:nonzero;"/>        </g>        <g transform="matrix(1,0,0,1,0,-317.148)">            <path d="M401.013,430.673c-0.07,-0.015 -0.165,-0.1 -0.18,-0.171c-0.028,-0.171 0.145,-0.331 0.388,-0.331c0.028,0.029 0.121,0.08 0.143,0.154c0.037,0.11 -0.223,0.373 -0.351,0.348m6.272,-4.895c-0.186,-0.098 -0.253,-0.254 -0.271,-0.46c-0.005,-0.055 -0.022,-0.113 -0.037,-0.168c-1.146,0.671 -2.218,1.361 -3.21,2.069c-1.399,1.004 -2.706,2.029 -3.991,3.057c0.004,0.106 -0.086,0.161 -0.323,0.264l-0.004,0c-0.037,0.033 -0.08,0.066 -0.119,0.095c-0.03,0.054 -0.028,0.104 0.037,0.152c0.048,0.033 0.105,0.065 0.158,0.072c0.331,0.048 0.533,0.254 0.711,0.517c0.078,0.121 0.126,0.216 0.069,0.355c-0.041,0.1 -0.031,0.185 0.004,0.268c1.519,-1.245 3.035,-2.49 4.638,-3.716c0.847,-0.648 1.752,-1.28 2.716,-1.896c-0.024,-0.054 -0.049,-0.107 -0.065,-0.165c-0.05,-0.191 -0.135,-0.349 -0.313,-0.444" style="fill-rule:nonzero;"/>        </g>        <g transform="matrix(1,0,0,1,0,-336.936)">            <path d="M419.494,439.36c0.011,0.007 0.02,0.014 0.033,0.021c0.22,0.124 0.328,0.292 0.31,0.553c-0.012,0.173 0.061,0.322 0.171,0.45c2.513,-0.924 5.257,-1.732 8.173,-2.428c0.499,-0.118 1.02,-0.226 1.526,-0.342c-0.053,-0.202 -0.077,-0.414 -0.09,-0.624c-0.02,-0.262 -0.047,-0.329 -0.303,-0.405c-0.023,-0.008 -0.038,-0.022 -0.06,-0.033c-3.075,0.738 -6.016,1.56 -8.802,2.476c-0.326,0.108 -0.637,0.22 -0.958,0.332" style="fill-rule:nonzero;"/>        </g>        <g transform="matrix(1,0,0,1,0,-302.858)">            <path d="M394.489,421.49c-0.206,0.005 -0.278,-0.09 -0.281,-0.366c0,-0.239 0.1,-0.367 0.278,-0.37c0.198,-0.004 0.401,0.229 0.397,0.45c-0.006,0.164 -0.171,0.286 -0.394,0.286m-0.817,0.449c-0.046,-0.049 -0.171,-0.12 -0.18,-0.203c-0.018,-0.161 0.137,-0.186 0.263,-0.18c0.112,0.002 0.261,0.007 0.258,0.163c0,0.163 -0.143,0.193 -0.341,0.22m0.378,-1.195c-1.355,1.132 -2.846,2.24 -4.542,3.292c0.383,-0.055 0.759,-0.06 1.102,0.228c0.236,0.199 0.543,0.116 0.679,-0.16c0.138,-0.274 0.152,-0.274 0.428,-0.146c0.191,0.09 0.378,0.141 0.567,0.153c0.496,-0.32 0.964,-0.65 1.42,-0.979c-0.046,-0.02 -0.092,-0.038 -0.135,-0.058c0.006,-0.033 0.01,-0.065 0.013,-0.096c0.083,-0.009 0.17,-0.019 0.253,-0.025c0.03,-0.002 0.067,0.003 0.1,0.006c0.201,-0.151 0.408,-0.296 0.599,-0.449c1.12,-0.879 2.17,-1.774 3.222,-2.667c-0.02,-0.045 -0.024,-0.096 -0.002,-0.155c0.05,-0.159 -0.01,-0.249 -0.108,-0.363c-0.071,-0.08 -0.136,-0.192 -0.147,-0.296c-0.024,-0.21 -0.122,-0.338 -0.312,-0.404c-0.14,-0.05 -0.25,-0.135 -0.35,-0.23c-0.93,0.783 -1.85,1.566 -2.787,2.349" style="fill-rule:nonzero;"/>        </g>        <g transform="matrix(1,0,0,1,0,-305.559)">            <path d="M394.82,419.38c-0.05,-0.012 -0.108,-0.04 -0.171,-0.042c-0.103,-0.007 -0.205,0.002 -0.308,0.002c-0.088,0.002 -0.178,0.018 -0.258,-0.002c-0.038,-0.01 -0.081,-0.096 -0.071,-0.133c0.011,-0.036 0.083,-0.075 0.134,-0.078c0.057,0 0.13,0.02 0.177,0.058c0.153,0.115 0.243,0.07 0.311,-0.093c0.01,-0.03 0.03,-0.058 0.047,-0.083c0.086,-0.108 0.19,-0.256 0.327,-0.173c0.085,0.049 0.135,0.226 0.132,0.346c-0.003,0.174 -0.171,0.182 -0.32,0.198m0.45,-1.315c0.018,0.048 0.075,0.085 0.113,0.13c0.038,0.051 0.113,0.125 0.098,0.149c-0.035,0.065 -0.108,0.113 -0.168,0.165c-0.04,-0.042 -0.078,-0.088 -0.115,-0.13c-0.043,-0.051 -0.08,-0.108 -0.121,-0.156c-1.132,0.924 -2.202,1.86 -3.354,2.779c-1.732,1.381 -3.446,2.767 -5.332,4.11c-1.165,0.832 -2.634,1.59 -3.979,2.381c-0.058,0.035 -0.115,0.068 -0.176,0.102c0.153,-0.002 0.309,-0.004 0.461,-0.002c0.143,0.002 0.281,0.035 0.424,0.031c0.401,-0.016 0.535,-0.163 0.543,-0.533c0,-0.07 0.081,-0.193 0.118,-0.193c0.123,-0.003 0.221,0.08 0.219,0.221c0,0.251 0.075,0.331 0.317,0.248c0.218,-0.075 0.439,-0.161 0.637,-0.281c0.323,-0.191 0.639,-0.221 0.977,-0.063c0.027,0.013 0.052,0.01 0.08,0.02c1.191,-0.695 2.383,-1.391 3.39,-2.129c1.807,-1.323 3.421,-2.691 5.109,-4.04c0.747,-0.597 1.488,-1.198 2.232,-1.795c-0.127,-0.033 -0.255,-0.023 -0.395,0.065c-0.04,0.025 -0.143,0.028 -0.151,0.014c-0.027,-0.059 -0.053,-0.149 -0.027,-0.194c0.035,-0.068 0.117,-0.116 0.183,-0.161c0.13,-0.085 0.273,-0.153 0.39,-0.254c0.176,-0.15 0.151,-0.263 -0.075,-0.319c-0.2,-0.044 -0.41,-0.049 -0.616,-0.074c-0.196,-0.021 -0.403,0.009 -0.546,-0.187c-0.01,-0.017 -0.038,-0.027 -0.067,-0.037c-0.053,0.047 -0.115,0.09 -0.169,0.133" style="fill-rule:nonzero;"/>        </g>        <g transform="matrix(1,0,0,1,0,-341.255)">            <path d="M419.582,441.531c0.111,-0.03 0.304,0.164 0.269,0.272c-0.021,0.075 -0.108,0.128 -0.144,0.168c-0.205,-0.028 -0.318,-0.098 -0.295,-0.256c0.01,-0.07 0.098,-0.168 0.17,-0.184m-1.188,0.405c-0.02,0.229 0.059,0.356 0.276,0.444c0.11,0.046 0.193,0.148 0.276,0.249c3.062,-1.02 6.296,-1.941 9.661,-2.787c0.018,-0.005 0.035,-0.008 0.053,-0.013c-0.045,-0.082 -0.105,-0.158 -0.196,-0.223c-0.391,-0.277 -0.392,-0.365 -0.052,-0.693c0.105,-0.104 0.11,-0.196 0.01,-0.286c-3.468,0.944 -6.905,1.905 -10.14,2.987c0.082,0.064 0.125,0.166 0.112,0.322" style="fill-rule:nonzero;"/>        </g>        <g transform="matrix(1,0,0,1,0,-323.006)">            <path d="M399.014,434.663c-0.088,0.041 -0.121,0.098 -0.133,0.161c0.546,-0.435 1.087,-0.871 1.644,-1.303c1.708,-1.328 3.723,-2.581 5.913,-3.781c0,-0.078 0.012,-0.161 0.048,-0.214c0.147,-0.223 0.185,-0.419 0.015,-0.643c-0.105,-0.138 -0.091,-0.293 -0.015,-0.442c0.042,-0.085 0.065,-0.172 0.097,-0.259c-1.593,0.83 -3.126,1.678 -4.548,2.552c-1.067,0.655 -2.077,1.329 -3.046,2.008c0.05,0.094 0.117,0.182 0.193,0.272c0.168,0.191 0.128,0.422 -0.028,0.559c-0.251,0.219 -0.257,0.342 -0.042,0.591c0.23,0.265 0.217,0.361 -0.098,0.499" style="fill-rule:nonzero;"/>        </g>        <g transform="matrix(1,0,0,1,0,-340.768)">            <path d="M412.965,440.399c0.027,0.007 0.058,0.015 0.078,0.007c0.017,-0.004 0.03,-0.027 0.042,-0.052c-0.04,0.012 -0.079,0.03 -0.12,0.045" style="fill-rule:nonzero;"/>        </g>        <g transform="matrix(1,0,0,1,0,-306.512)">            <path d="M376.717,428.737c0.293,-0.213 0.596,-0.246 0.947,-0.096c0.26,0.111 0.563,0.128 0.847,0.177c0.055,0.009 0.125,-0.028 0.18,-0.061c0.183,-0.108 0.363,-0.221 0.541,-0.341c0.201,-0.136 0.389,-0.161 0.573,-0.093c1.517,-0.89 3.146,-1.756 4.476,-2.689c2.075,-1.462 3.939,-2.971 5.843,-4.467c0.824,-0.65 1.573,-1.316 2.36,-1.971c-0.052,0.04 -0.117,0.073 -0.202,0.073c-0.214,0 -0.357,-0.116 -0.361,-0.299c-0.006,-0.196 0.167,-0.364 0.375,-0.367c0.198,-0.003 0.329,0.128 0.326,0.329c0,0.093 -0.038,0.161 -0.08,0.219c0.3,-0.254 0.609,-0.5 0.927,-0.746c0.002,-0.077 0.022,-0.161 0.081,-0.243c0.035,-0.048 0.144,-0.095 0.195,-0.078c0.032,0.01 0.063,0.027 0.095,0.04c0.16,-0.123 0.321,-0.246 0.481,-0.367c-0.035,-0.007 -0.068,-0.02 -0.106,-0.028c-0.207,-0.059 -0.391,-0.027 -0.548,0.142c-0.035,0.037 -0.115,0.072 -0.16,0.058c-0.221,-0.074 -0.431,-0.169 -0.649,-0.242c-0.151,-0.048 -0.309,-0.11 -0.461,-0.101c-0.159,0.011 -0.313,0.041 -0.469,0.076c-0.536,0.419 -1.07,0.838 -1.601,1.258c-0.002,0.002 0,0.002 0,0.005c-0.023,0.058 -0.098,0.103 -0.173,0.13c-0.115,0.093 -0.233,0.184 -0.35,0.277c-0.863,0.675 -1.612,1.375 -2.478,2.05c-1.351,1.053 -2.644,2.122 -4.168,3.134c-1.593,1.057 -3.299,2.089 -5.003,3.119c0.125,0.045 0.223,0.165 0.22,0.296c-0.005,0.145 -0.158,0.259 -0.356,0.256c-0.16,-0.003 -0.252,-0.095 -0.252,-0.253c0.002,-0.026 0.009,-0.048 0.014,-0.073c-0.359,0.218 -0.722,0.436 -1.08,0.653c-0.148,0.094 -0.303,0.185 -0.456,0.278c0.186,0.143 0.226,0.124 0.472,-0.055" style="fill-rule:nonzero;"/>        </g>        <g transform="matrix(1,0,0,1,0,-345.243)">            <path d="M426.969,440.121c-1.905,0.628 -3.816,1.248 -5.713,1.876c0.02,-0.003 0.04,-0.003 0.063,-0.003c0.025,0.047 0.09,0.103 0.08,0.143c-0.02,0.067 -0.078,0.128 -0.12,0.19c-0.032,-0.047 -0.091,-0.095 -0.093,-0.142c0,-0.063 0.043,-0.126 0.067,-0.188c-0.459,0.15 -0.921,0.298 -1.375,0.454c-0.436,0.145 -0.872,0.294 -1.31,0.442c0.172,0.06 0.32,0.11 0.451,0.178c0.176,0.087 0.165,0.203 -0.006,0.291c-0.215,0.118 -0.345,0.08 -0.443,-0.146c-0.035,-0.085 -0.062,-0.178 -0.103,-0.291c-1.365,0.462 -2.721,0.927 -4.044,1.406c0,0.083 -0.008,0.166 -0.043,0.242c-0.052,0.1 -0.076,0.213 -0.115,0.323c0.031,0.015 0.063,0.03 0.096,0.045c0.043,-0.057 0.079,-0.12 0.127,-0.17c0.093,-0.103 0.176,-0.219 0.291,-0.289c0.128,-0.083 0.278,-0.135 0.429,-0.176c0.11,-0.03 0.23,-0.04 0.34,-0.02c0.233,0.043 0.306,0.198 0.208,0.42c-0.013,0.03 -0.027,0.057 -0.043,0.088c-0.082,0.188 -0.035,0.301 0.168,0.308c0.036,0.002 0.063,0.015 0.098,0.02c0.361,-0.13 0.722,-0.263 1.088,-0.391c0.04,-0.016 0.085,-0.028 0.127,-0.043c-0.035,-0.015 -0.069,-0.031 -0.108,-0.058c-0.17,-0.136 -0.217,-0.344 -0.117,-0.54c0.15,0.091 0.301,0.249 0.479,0.111c0.069,-0.05 0.112,-0.241 0.072,-0.289c-0.08,-0.093 -0.225,-0.13 -0.371,-0.206c0.025,-0.03 0.058,-0.11 0.111,-0.126c0.057,-0.019 0.138,0.008 0.195,0.041c0.13,0.065 0.25,0.15 0.375,0.218c0.131,0.063 0.251,0.133 0.255,0.291c0,0.156 -0.122,0.214 -0.241,0.277c-0.061,0.032 -0.114,0.075 -0.166,0.118c2.127,-0.724 4.385,-1.386 6.595,-2.069c1.022,-0.319 2.049,-0.633 3.076,-0.947c-0.044,-0.067 -0.09,-0.132 -0.14,-0.197c-0.11,-0.164 -0.173,-0.363 -0.283,-0.528c-0.117,-0.179 -0.135,-0.324 -0.015,-0.515c0.025,-0.038 0.042,-0.096 0.058,-0.148" style="fill-rule:nonzero;"/>        </g>        <g transform="matrix(1,0,0,1,0,-360.357)">            <path d="M440.281,452.019c0.092,0.057 0.195,0.095 0.293,0.148c0.017,0.01 0.035,0.02 0.05,0.032c1.005,-0.449 1.956,-0.925 2.814,-1.428c0.608,-0.354 1.193,-0.713 1.761,-1.077c-0.04,-0.066 -0.115,-0.1 -0.228,-0.095c-0.271,0.007 -0.551,0.037 -0.807,0.12c-0.2,0.065 -0.343,0.061 -0.481,-0.088c-0.052,-0.052 -0.1,-0.128 -0.162,-0.156c-0.449,-0.165 -0.586,-0.526 -0.651,-0.956c-0.026,-0.175 -0.143,-0.302 -0.309,-0.361c-0.108,0.08 -0.215,0.157 -0.329,0.238l0,0.006c0.016,0.084 0.051,0.172 0.093,0.247c0.093,0.161 0.141,0.322 0.116,0.512c-0.008,0.076 0.047,0.189 0.11,0.242c0.29,0.233 0.295,0.682 0,0.921c-0.205,0.163 -0.303,0.166 -0.496,-0.007c-0.08,-0.068 -0.133,-0.171 -0.221,-0.214c-0.095,-0.045 -0.231,-0.077 -0.318,-0.042c-0.078,0.03 -0.13,0.155 -0.168,0.248c-0.019,0.051 0.008,0.124 0.025,0.181c0.073,0.229 0.021,0.411 -0.15,0.582c-0.085,0.09 -0.16,0.206 -0.21,0.322c-0.089,0.198 -0.221,0.326 -0.444,0.347c-0.09,0.009 -0.178,0.027 -0.264,0.057c-0.135,0.053 -0.149,0.14 -0.024,0.221" style="fill-rule:nonzero;"/>        </g>        <g transform="matrix(1,0,0,1,0,-353.903)">            <path d="M436.422,447.344c-0.01,-0.017 -0.022,-0.037 -0.032,-0.057c-0.076,-0.153 -0.071,-0.286 0.06,-0.412c0.145,-0.143 0.208,-0.324 0.195,-0.525c-0.015,-0.208 -0.155,-0.289 -0.343,-0.203c-0.281,0.123 -0.373,0.299 -0.281,0.595c0.053,0.168 -0.005,0.249 -0.14,0.312c-0.218,0.105 -0.426,0.188 -0.681,0.062c-0.226,-0.115 -0.387,0.003 -0.344,0.246c0.028,0.168 0.016,0.324 -0.017,0.479c0.524,-0.165 1.059,-0.328 1.583,-0.497" style="fill-rule:nonzero;"/>        </g>        <g transform="matrix(1,0,0,1,0,-330.562)">            <path d="M397.097,438.468c0.12,-0.087 0.211,-0.233 0.341,-0.281c0.255,-0.094 0.46,-0.236 0.656,-0.426c0.195,-0.189 0.386,-0.149 0.531,0.085c0.06,0.095 0.111,0.215 0.111,0.323c-0.005,0.161 0.002,0.32 0.042,0.473c1.413,-0.926 2.901,-1.838 4.526,-2.704c1.265,-0.678 2.595,-1.341 3.973,-1.984c0,-0.003 0.003,-0.005 0.003,-0.007c0.155,-0.364 0.32,-0.711 0.661,-0.961c0.271,-0.2 0.529,-0.43 0.602,-0.802c0.02,-0.095 0.082,-0.181 0.153,-0.264c-0.765,0.326 -1.531,0.656 -2.263,0.992c-2.173,1.007 -4.282,2.042 -6.184,3.136c-0.386,0.221 -0.759,0.447 -1.135,0.673c0.075,0.108 0.155,0.216 0.208,0.336c0.031,0.071 0.013,0.198 -0.038,0.261c-0.035,0.051 -0.158,0.053 -0.238,0.049c-0.172,-0.014 -0.34,-0.056 -0.513,-0.071c-0.106,-0.01 -0.143,-0.052 -0.148,-0.125c-0.526,0.329 -1.043,0.662 -1.546,0.998c-0.01,0.063 -0.019,0.131 -0.023,0.199c-0.002,0.058 0.043,0.121 0.066,0.183c0.072,-0.025 0.157,-0.04 0.215,-0.083" style="fill-rule:nonzero;"/>        </g>        <g transform="matrix(1,0,0,1,0,-342.566)">            <path d="M422.13,436.465c0.05,-0.029 0.123,-0.025 0.16,-0.033c0.269,0 0.644,0.342 0.647,0.585c0.003,0.066 -0.073,0.164 -0.138,0.186c-0.074,0.028 -0.19,0.02 -0.258,-0.02c-0.165,-0.098 -0.318,-0.218 -0.468,-0.343c-0.063,-0.053 -0.16,-0.151 -0.146,-0.198c0.026,-0.074 0.123,-0.131 0.203,-0.177m0.689,-0.9c0.146,0.004 0.276,0.039 0.288,0.218c0.011,0.141 -0.127,0.253 -0.303,0.255c-0.163,0 -0.291,-0.11 -0.291,-0.245c0.003,-0.128 0.128,-0.228 0.306,-0.228m1.331,-0.493c0.108,0.039 0.185,0.175 0.233,0.228c0.002,0.241 -0.127,0.365 -0.301,0.367c-0.157,0.002 -0.323,-0.141 -0.321,-0.273c0.006,-0.114 0.269,-0.365 0.389,-0.322m-26.224,12.734c0.256,-0.154 0.504,-0.301 0.762,-0.454c-0.02,-0.033 -0.04,-0.068 -0.07,-0.106c-0.175,-0.214 -0.045,-0.442 0.228,-0.457c0.083,-0.004 0.168,0.008 0.248,0.033c0.118,0.04 0.188,0.098 0.205,0.171c0.773,-0.442 1.563,-0.876 2.388,-1.3c1.754,-0.9 3.638,-1.763 5.58,-2.594c2.273,-0.977 4.638,-1.915 7.031,-2.843c0.288,-0.11 0.581,-0.218 0.877,-0.323c0.004,-0.005 0.01,-0.011 0.015,-0.013c0.003,0 0.003,0.002 0.005,0.005c1.255,-0.457 2.568,-0.889 3.831,-1.343c2.127,-0.766 4.294,-1.514 6.359,-2.307c-0.085,-0.046 -0.173,-0.076 -0.253,-0.133c-0.293,-0.209 -0.348,-0.334 -0.153,-0.636c0.08,-0.126 0.093,-0.238 0.007,-0.359c-0.049,-0.07 -0.087,-0.143 -0.134,-0.213c-0.083,-0.131 -0.198,-0.174 -0.349,-0.138c-0.171,0.04 -0.247,0.051 -0.308,0.01c-0.108,0.047 -0.211,0.092 -0.319,0.141c-2.926,1.249 -6.056,2.422 -9.1,3.632c-2.147,0.849 -4.357,1.675 -6.432,2.556c-1.941,0.824 -3.798,1.678 -5.584,2.556c-0.837,0.412 -1.654,0.826 -2.463,1.248c-0.02,0.03 -0.038,0.063 -0.057,0.093c-0.026,-0.007 -0.053,-0.015 -0.078,-0.025c-0.554,0.291 -1.089,0.585 -1.627,0.876c-0.005,0.06 -0.018,0.118 -0.045,0.158c-0.153,0.214 -0.348,0.397 -0.519,0.6c-0.059,0.07 -0.138,0.163 -0.138,0.246c0,0.236 0.011,0.479 0.063,0.708c0.016,0.073 0.026,0.144 0.031,0.211" style="fill-rule:nonzero;"/>        </g>        <g transform="matrix(1,0,0,1,0,-306.824)">            <path d="M373.091,428.761c0.288,-0.294 0.527,-0.31 0.812,-0.021c0.048,0.048 0.103,0.068 0.155,0.096c1.11,-0.676 2.217,-1.352 3.313,-2.037c1.395,-0.871 2.809,-1.74 4.106,-2.636c1.168,-0.806 2.207,-1.639 3.263,-2.468c1.35,-1.062 2.65,-2.139 3.996,-3.201c0.215,-0.169 0.431,-0.341 0.643,-0.512c-0.38,0.042 -0.761,-0.01 -1.147,-0.136c-0.213,-0.068 -0.468,-0.02 -0.703,-0.014c-0.139,0.002 -0.278,0.029 -0.421,0.035l-0.036,0c-0.403,0.316 -0.801,0.635 -1.207,0.951c-1.629,1.28 -3.185,2.576 -4.906,3.836c-1.527,1.118 -3.198,2.2 -4.869,3.281c-1.346,0.877 -2.754,1.733 -4.144,2.597c0.13,0.033 0.25,0.092 0.364,0.223c0.247,0.291 0.513,0.277 0.781,0.006" style="fill-rule:nonzero;"/>        </g>        <g transform="matrix(1,0,0,1,0,-349.011)">            <path d="M401.783,448.087c0.129,-0.01 0.26,0.053 0.252,0.196c-0.002,0.067 -0.115,0.171 -0.19,0.185c-0.148,0.028 -0.21,-0.088 -0.238,-0.281c0.045,-0.025 0.108,-0.095 0.176,-0.1m12.567,-6.4c0.05,-0.005 0.106,0.073 0.193,0.138c-0.087,0.083 -0.135,0.131 -0.188,0.178c-0.057,-0.062 -0.107,-0.125 -0.163,-0.188c0.053,-0.045 0.1,-0.123 0.158,-0.128m2.253,-1.047c0.038,0.027 0.165,0.075 0.186,0.155c0.022,0.076 -0.038,0.214 -0.108,0.269c-0.155,0.129 -0.336,0.221 -0.511,0.322c-0.113,0.065 -0.218,0 -0.225,-0.134c-0.01,-0.245 0.338,-0.61 0.658,-0.612m-16.667,9.164c0.101,0.026 0.216,0.056 0.263,0.133c1.038,-0.539 2.095,-1.069 3.209,-1.581c3.507,-1.61 7.152,-3.168 10.732,-4.754c2.588,-1.144 5.231,-2.269 7.728,-3.446c0.13,-0.058 0.25,-0.123 0.377,-0.184c-0.115,-0.075 -0.255,-0.138 -0.385,-0.14c-0.261,-0.01 -0.494,-0.068 -0.707,-0.226c-0.153,-0.11 -0.32,-0.158 -0.511,-0.098c-0.338,0.113 -0.593,-0.027 -0.844,-0.251c-0.086,-0.075 -0.194,-0.131 -0.303,-0.183c-0.787,0.426 -1.594,0.85 -2.443,1.262c-2.231,1.083 -4.477,2.154 -6.735,3.227c-2.734,1.298 -5.545,2.568 -8.214,3.887c-0.271,0.135 -0.532,0.273 -0.799,0.408c-0.042,0.043 -0.105,0.076 -0.175,0.101c-0.041,0.017 -0.08,0.033 -0.121,0.047c-0.08,0.044 -0.157,0.081 -0.238,0.124c-0.147,0.101 -0.212,0.221 -0.162,0.449c0.04,0.174 -0.048,0.274 -0.233,0.304c-0.164,0.027 -0.329,0.083 -0.476,0.153c-0.211,0.101 -0.188,0.309 -0.176,0.497c0.01,0.134 0.078,0.229 0.213,0.271" style="fill-rule:nonzero;"/>        </g>        <g transform="matrix(1,0,0,1,0,-309.743)">            <path d="M369.561,430.921c0.16,0.025 0.323,0.052 0.473,0.106c0.063,-0.041 0.126,-0.081 0.185,-0.122c1.348,-0.861 2.699,-1.724 4.014,-2.598c1.887,-1.248 3.842,-2.485 5.588,-3.769c1.621,-1.186 3.109,-2.405 4.636,-3.615c0.004,-0.06 -0.004,-0.125 0.01,-0.183c0.054,-0.214 0.022,-0.385 -0.171,-0.51c-0.055,-0.035 -0.103,-0.08 -0.145,-0.128c-0.164,-0.175 -0.151,-0.439 0.055,-0.552c0.275,-0.153 0.433,-0.379 0.516,-0.67c0.015,-0.053 0.033,-0.108 0.044,-0.164c-0.894,0.686 -1.743,1.378 -2.642,2.064c-2.116,1.607 -4.15,3.232 -6.41,4.801c-2.245,1.561 -4.625,3.09 -6.987,4.627c0.114,0.366 0.443,0.648 0.834,0.713" style="fill-rule:nonzero;"/>        </g>        <g transform="matrix(1,0,0,1,0,-337.502)">            <path d="M399.214,438.943c0.183,-0.095 0.369,-0.19 0.552,-0.288c-0.276,-0.096 -0.411,0.095 -0.552,0.288" style="fill-rule:nonzero;"/>        </g>        <g transform="matrix(1,0,0,1,0,-353.116)">            <path d="M411.795,445.006c1.373,-0.72 2.711,-1.458 3.989,-2.211c-0.106,0.03 -0.208,0.074 -0.301,0.153c-0.108,0.082 -0.248,0.128 -0.379,0.165c-0.205,0.058 -0.424,0.068 -0.616,0.151c-0.208,0.088 -0.411,0.133 -0.636,0.125c-0.25,-0.007 -0.519,-0.037 -0.746,0.035c-0.469,0.16 -0.935,0.119 -1.406,0.103c-0.331,-0.009 -0.386,-0.132 -0.263,-0.433c0.03,-0.079 0.037,-0.138 0.034,-0.189c-1.49,0.907 -3.061,1.788 -4.627,2.674c-1.328,0.748 -2.701,1.487 -4.074,2.22c-0.025,0.054 -0.071,0.099 -0.146,0.11c-0.047,0.007 -0.09,0.022 -0.133,0.038c-0.109,0.057 -0.223,0.12 -0.335,0.18c-0.091,0.071 -0.178,0.151 -0.263,0.231c-0.161,0.151 -0.171,0.291 -0.03,0.462c0.072,0.089 0.163,0.171 0.228,0.263c0.144,0.212 0.1,0.381 -0.133,0.49c-0.075,0.038 -0.168,0.051 -0.226,0.106c-0.083,0.073 -0.151,0.168 -0.205,0.266c-0.071,0.121 -0.126,0.254 -0.196,0.376c1.599,-0.808 3.212,-1.611 4.809,-2.423c1.896,-0.961 3.803,-1.917 5.655,-2.892" style="fill-rule:nonzero;"/>        </g>        <g transform="matrix(1,0,0,1,0,-318.174)">            <path d="M380.978,426.929c0.115,-0.025 0.248,0.033 0.233,0.179c-0.007,0.07 -0.115,0.13 -0.212,0.233c-0.113,-0.103 -0.186,-0.173 -0.264,-0.247c0.08,-0.057 0.153,-0.148 0.243,-0.165m-13.678,9.19c-0.2,0.16 -0.223,0.338 -0.06,0.537c0.056,0.069 0.126,0.132 0.189,0.198c0.18,0.191 0.331,0.391 0.403,0.638c0.683,-0.465 1.365,-0.926 2.054,-1.387c1.584,-1.052 3.232,-2.086 4.751,-3.152c1.44,-1.012 2.756,-2.055 4.114,-3.084c2.105,-1.602 4.114,-3.221 6.324,-4.795c0.459,-0.329 0.927,-0.656 1.396,-0.982c0.055,-0.086 0.128,-0.155 0.227,-0.214c0.138,-0.08 0.273,-0.17 0.399,-0.273c0.213,-0.178 0.353,-0.394 0.313,-0.693c-0.007,-0.052 -0.002,-0.136 0.036,-0.166c0.253,-0.233 0.416,-0.569 0.766,-0.695c0.206,-0.073 0.329,-0.205 0.334,-0.43c0.007,-0.2 0.092,-0.356 0.26,-0.472c0.115,-0.08 0.158,-0.196 0.125,-0.339c-0.01,-0.055 -0.015,-0.09 -0.022,-0.128c-0.086,0.053 -0.173,0.106 -0.258,0.159c-2.054,1.303 -3.976,2.643 -5.836,3.994c-2.037,1.479 -3.879,3.003 -5.898,4.484c-2.28,1.675 -4.648,3.327 -7.001,4.984c-0.819,0.576 -1.659,1.142 -2.503,1.712c-0.037,0.036 -0.06,0.063 -0.113,0.104" style="fill-rule:nonzero;"/>        </g>        <g transform="matrix(1,0,0,1,0,-362.081)">            <path d="M416.836,451.114c-0.005,0.003 -0.005,0.01 -0.007,0.016c0.077,-0.049 0.155,-0.097 0.23,-0.141c-0.09,-0.038 -0.171,0.004 -0.223,0.125" style="fill-rule:nonzero;"/>        </g>        <g transform="matrix(1,0,0,1,0,-361.904)">            <path d="M408.878,450.686c-0.168,0.012 -0.29,0.087 -0.383,0.228c-0.06,0.085 -0.123,0.168 -0.2,0.233c-0.041,0.031 -0.071,0.058 -0.09,0.088c0.288,-0.188 0.568,-0.378 0.852,-0.567c-0.061,0.005 -0.122,0.012 -0.179,0.018" style="fill-rule:nonzero;"/>        </g>        <g transform="matrix(1,0,0,1,0,-328.102)">            <path d="M391.028,425.996c0.05,-0.01 0.125,0.068 0.243,0.138c-0.12,0.085 -0.183,0.158 -0.253,0.166c-0.039,0.005 -0.142,-0.098 -0.135,-0.141c0.01,-0.063 0.086,-0.151 0.145,-0.163m-23.464,18.054c1.157,-0.783 2.312,-1.566 3.425,-2.36c1.629,-1.165 3.164,-2.354 4.73,-3.534c2.077,-1.565 4.094,-3.141 6.236,-4.691c1.824,-1.318 3.704,-2.625 5.719,-3.894c1.022,-0.65 2.081,-1.288 3.142,-1.928c0.002,-0.075 -0.005,-0.148 0.002,-0.224c0.035,-0.341 0.116,-0.403 0.446,-0.384c0.191,0.013 0.293,-0.073 0.373,-0.24c0.193,-0.403 0.431,-0.777 0.824,-1.027c0.261,-0.166 0.452,-0.392 0.6,-0.673c0.14,-0.277 0.313,-0.538 0.493,-0.788c0.06,-0.087 0.105,-0.167 0.135,-0.255c-1.483,0.884 -2.978,1.767 -4.412,2.664c-1.679,1.048 -3.283,2.112 -4.883,3.182c-1.401,0.936 -2.771,1.88 -4.112,2.829c-1.042,0.738 -2.024,1.491 -3.014,2.242c-2.052,1.559 -4.065,3.126 -6.144,4.678c-0.879,0.653 -1.796,1.297 -2.718,1.943c0.045,0.17 0.115,0.321 0.278,0.434c0.057,0.038 0.08,0.206 0.045,0.274c-0.038,0.065 -0.169,0.096 -0.261,0.106c-0.06,0.004 -0.13,-0.051 -0.185,-0.091c-0.206,-0.145 -0.336,-0.128 -0.521,0.07c-0.155,0.163 -0.166,0.364 -0.033,0.522c0.238,0.287 0.242,0.633 0.015,0.922c-0.06,0.075 -0.12,0.15 -0.18,0.223" style="fill-rule:nonzero;"/>        </g>        <g transform="matrix(0.615211,-0.788362,-0.788362,-0.615211,514.066,689.267)">            <path d="M410.029,451.818c0.004,0.058 0.005,0.108 0.021,0.166c0.022,0.074 -0.008,0.162 -0.021,0.292c-0.145,-0.129 -0.259,-0.235 -0.374,-0.333c0.125,-0.037 0.25,-0.085 0.374,-0.125" style="fill-rule:nonzero;"/>        </g>        <g transform="matrix(1,0,0,1,0,-337.916)">            <path d="M386.266,434.473c-1.66,1.118 -3.306,2.237 -4.919,3.367c-1.624,1.135 -3.235,2.272 -4.788,3.425c-0.93,0.687 -1.835,1.383 -2.734,2.078c0.028,0.106 -0.04,0.171 -0.258,0.314c-0.028,0.018 -0.053,0.036 -0.083,0.053c-0.108,0.066 -0.173,0.088 -0.223,0.068c-0.418,0.318 -0.834,0.642 -1.253,0.962c0.048,0.057 0.116,0.105 0.216,0.12c0.103,0.02 0.207,0.025 0.305,0.052c0.154,0.054 0.224,0.196 0.131,0.297c-0.158,0.181 -0.329,0.349 -0.516,0.497c-0.065,0.051 -0.188,0.051 -0.281,0.036c-0.474,-0.069 -0.641,0.04 -0.806,0.504c-0.043,0.126 -0.126,0.246 -0.216,0.336c-0.286,0.285 -0.299,0.379 -0.042,0.671c0.009,0.012 0.017,0.035 0.027,0.052c-0.01,0.015 -0.016,0.033 -0.02,0.051c-0.071,-0.023 -0.148,-0.036 -0.215,-0.068c-0.149,-0.078 -0.294,-0.06 -0.345,0.088c-0.082,0.269 -0.201,0.539 -0.109,0.829c0.068,-0.048 0.141,-0.098 0.207,-0.149c1.178,-0.863 2.285,-1.747 3.436,-2.616c1.333,-1.02 2.661,-2.034 4.027,-3.043c1.505,-1.11 3.011,-2.223 4.582,-3.314c1.383,-0.962 2.853,-1.901 4.302,-2.847c1.3,-0.843 2.614,-1.685 3.939,-2.527c1.431,-0.906 2.891,-1.806 4.315,-2.716c0.075,-0.156 0.147,-0.316 0.228,-0.472c0.037,-0.078 0.102,-0.145 0.165,-0.211c0.233,-0.256 0.173,-0.491 -0.165,-0.562c-0.116,-0.025 -0.249,0.025 -0.369,0.043c-0.138,0.022 -0.275,0.077 -0.41,0.067c-0.29,-0.022 -0.586,-0.082 -0.877,-0.117c-0.048,-0.006 -0.083,-0.018 -0.121,-0.03c-0.802,0.544 -1.61,1.091 -2.42,1.637c-1.554,1.044 -3.158,2.078 -4.71,3.125" style="fill-rule:nonzero;"/>        </g>        <g transform="matrix(-0.846722,-0.532035,-0.532035,0.846722,924.23,-68.171)">            <path d="M374.58,437.186c0.037,0.049 0.053,0.16 0.022,0.209c-0.004,0.006 -0.016,0.01 -0.022,0.016c-0.047,-0.13 -0.102,-0.26 -0.151,-0.388c0.051,0.053 0.106,0.102 0.151,0.163" style="fill-rule:nonzero;"/>        </g>        <g transform="matrix(1,0,0,1,0,-349.506)">            <path d="M382.123,444.564c-1.335,0.975 -2.71,1.939 -4.035,2.913c-0.65,0.477 -1.284,0.957 -1.913,1.433c-0.13,0.188 -0.15,0.417 -0.037,0.683c0.055,0.123 0.068,0.194 -0.063,0.286c-0.102,0.073 -0.151,0.221 -0.24,0.319c-0.238,0.26 -0.482,0.507 -0.727,0.754c-0.04,0.037 -0.125,0.035 -0.188,0.045c-0.255,0.032 -0.315,0.144 -0.176,0.367c0.088,0.143 0.203,0.266 0.301,0.404c0.028,0.035 0.041,0.063 0.053,0.093c1.105,-0.814 2.21,-1.627 3.325,-2.439c1.331,-0.963 2.661,-1.931 4.027,-2.889c1.886,-1.323 3.813,-2.641 5.712,-3.964c1.411,-0.985 2.816,-1.976 4.197,-2.973c0.115,-0.083 0.225,-0.166 0.343,-0.251c-0.01,-0.021 -0.022,-0.035 -0.03,-0.058c-0.113,-0.287 -0.023,-0.469 0.258,-0.585c0.085,-0.035 0.189,-0.055 0.243,-0.118c0.068,-0.08 0.136,-0.204 0.122,-0.294c-0.009,-0.065 -0.152,-0.12 -0.244,-0.158c-0.138,-0.06 -0.294,-0.083 -0.421,-0.156c-0.151,-0.083 -0.255,-0.072 -0.349,0.066c-0.053,0.083 -0.105,0.168 -0.17,0.238c-0.141,0.151 -0.346,0.171 -0.533,0.061c-0.176,-0.104 -0.204,-0.254 -0.141,-0.437c0.027,-0.079 0.053,-0.163 0.053,-0.247c0,-0.004 -0.005,-0.007 -0.005,-0.012c-1.531,1.14 -3.065,2.279 -4.604,3.419c-1.58,1.171 -3.162,2.339 -4.757,3.5" style="fill-rule:nonzero;"/>        </g>        <g transform="matrix(1,0,0,1,0,-355.165)">            <path d="M373.364,452.145c0.662,0 1.318,0 1.977,-0.003c0.333,0 0.677,-0.045 1.005,-0.01c0.027,0.002 0.045,0.013 0.067,0.018c0.363,-0.277 0.725,-0.555 1.088,-0.829c1.323,-1.009 2.656,-2.013 3.982,-3.02c1.081,-0.824 2.156,-1.65 3.241,-2.474c1.047,-0.792 2.098,-1.589 3.15,-2.382c0.038,-0.04 0.076,-0.082 0.109,-0.126c0.059,-0.077 0.094,-0.17 0.139,-0.256c-0.017,-0.015 -0.035,-0.027 -0.052,-0.045c-0.04,0.005 -0.096,-0.003 -0.128,0.023c-0.171,0.12 -0.354,0.123 -0.556,0.1c-0.133,-0.018 -0.286,0 -0.419,0.045c-0.173,0.06 -0.325,0.06 -0.479,-0.045c-0.145,-0.105 -0.302,-0.095 -0.478,-0.058c-0.19,0.04 -0.404,0.068 -0.589,0.025c-0.168,-0.034 -0.32,-0.028 -0.474,0.005c-0.989,0.782 -1.98,1.568 -2.981,2.346c-1.827,1.423 -3.681,2.837 -5.507,4.26c-1.038,0.807 -2.063,1.617 -3.095,2.426" style="fill-rule:nonzero;"/>        </g>        <g transform="matrix(1,0,0,1,0,-355.666)">            <path d="M371.169,449.502c-0.526,0.432 -1.058,0.864 -1.586,1.295c0.1,0.028 0.205,0.061 0.305,0.098c0.284,0.098 0.331,0.177 0.289,0.478c-0.028,0.218 0.034,0.329 0.218,0.367c0.078,0.015 0.155,0.033 0.231,0.03c0.218,-0.011 0.388,0.079 0.553,0.195c0.824,-0.67 1.641,-1.34 2.479,-2.008c1.342,-1.072 2.715,-2.142 4.063,-3.214c1.265,-1.007 2.505,-2.019 3.776,-3.025c-0.433,0.057 -0.864,0.155 -1.303,-0.008c-0.03,-0.009 -0.062,-0.005 -0.095,-0.005c-0.543,0.015 -1.087,0.013 -1.631,0.053c-0.095,0.005 -0.178,0 -0.258,-0.016c-0.122,0.101 -0.245,0.199 -0.366,0.3c-1.336,1.087 -2.674,2.174 -4.007,3.263c-0.891,0.734 -1.773,1.467 -2.668,2.197" style="fill-rule:nonzero;"/>        </g>        <g transform="matrix(1,0,0,1,0,-357.926)">            <path d="M370.485,448.594c0.106,-0.053 0.206,-0.041 0.266,0.096c-0.09,0.084 -0.185,0.148 -0.291,0.045c-0.025,-0.018 0,-0.129 0.025,-0.141m-2.195,2.592c-0.002,0.087 0.038,0.192 0.091,0.265c0.012,0.018 0.012,0.037 0.022,0.055c0.391,-0.331 0.784,-0.66 1.172,-0.991c0.898,-0.762 1.779,-1.524 2.687,-2.282c0.674,-0.561 1.356,-1.123 2.029,-1.685c-0.438,-0.073 -0.896,0.092 -1.325,-0.103c-0.053,-0.025 -0.133,-0.015 -0.19,-0.003c-0.151,0.031 -0.258,0.104 -0.221,0.282c0.045,0.206 -0.051,0.326 -0.221,0.426c-0.391,0.231 -0.386,0.236 -0.042,0.528c0.05,0.04 0.112,0.13 0.098,0.168c-0.026,0.055 -0.111,0.111 -0.174,0.118c-0.28,0.04 -0.553,0.02 -0.801,-0.145c-0.096,-0.063 -0.208,-0.112 -0.321,-0.134c-0.298,-0.062 -0.593,-0.113 -0.897,-0.152c-0.068,-0.011 -0.125,-0.036 -0.184,-0.056c-0.413,0.359 -0.826,0.712 -1.237,1.069c-0.012,0.209 -0.125,0.304 -0.313,0.276c-0.488,0.422 -0.977,0.847 -1.463,1.271c0.206,0.19 0.413,0.377 0.727,0.404c0.508,0.047 0.589,0.171 0.563,0.689" style="fill-rule:nonzero;"/>        </g>        <g transform="matrix(-0.218427,0.975853,0.975853,0.218427,71.3602,-355.889)">            <path d="M394.332,418.982c0.187,0.104 0.31,0.468 0.205,0.611c-0.044,0.057 -0.138,0.074 -0.205,0.111c-0.038,-0.071 -0.112,-0.146 -0.106,-0.219c0.013,-0.161 0.066,-0.324 0.106,-0.503" style="fill-rule:nonzero;"/>        </g>        <g transform="matrix(1,0,0,1,0,-318.567)">            <path d="M398.611,429.156c-0.251,-0.222 -0.521,-0.424 -0.79,-0.622c-0.065,-0.047 -0.17,-0.065 -0.253,-0.06c-0.14,0.005 -0.333,0.258 -0.323,0.414c0.01,0.174 0.166,0.093 0.253,0.136c0.216,0.11 0.444,0.211 0.639,0.349c0.161,0.115 0.03,0.301 0.03,0.456c-0.002,0.176 0.085,0.233 0.336,0.257c0.175,0.012 0.238,-0.075 0.235,-0.228c0,-0.129 -0.019,-0.257 -0.033,-0.388c0.016,-0.004 0.031,-0.01 0.041,-0.014c-0.043,-0.101 -0.06,-0.232 -0.135,-0.3" style="fill-rule:nonzero;"/>        </g>        <g transform="matrix(1,0,0,1,0,-298.369)">            <path d="M407.989,419.193c0.013,-0.043 -0.02,-0.096 -0.033,-0.147c-0.017,-0.001 -0.037,-0.004 -0.052,-0.006c-0.04,0.052 -0.093,0.103 -0.108,0.163c-0.008,0.032 0.052,0.082 0.08,0.126c0.04,-0.046 0.097,-0.084 0.113,-0.136" style="fill-rule:nonzero;"/>        </g>        <g transform="matrix(1,0,0,1,0,-322.787)">            <path d="M397.31,431.01c-0.055,-0.008 -0.155,0.052 -0.173,0.102c-0.093,0.277 0.191,0.646 0.493,0.673c0.093,-0.035 0.209,-0.049 0.274,-0.112c0.057,-0.051 0.1,-0.194 0.065,-0.237c-0.16,-0.225 -0.374,-0.394 -0.659,-0.426" style="fill-rule:nonzero;"/>        </g>        <g transform="matrix(0.141008,-0.990008,-0.990008,-0.141008,787.015,568.095)">            <path d="M409.698,439.31c0.051,0.119 0.088,0.182 0.098,0.249c0.002,0.026 -0.06,0.057 -0.098,0.09c-0.036,-0.053 -0.093,-0.102 -0.106,-0.156c-0.006,-0.037 0.046,-0.088 0.106,-0.183" style="fill-rule:nonzero;"/>        </g>        <g transform="matrix(0.936378,-0.350993,-0.350993,-0.936378,181.399,640.668)">            <path d="M368.427,449.815c0.043,0.016 0.132,0.018 0.16,0.058c0.076,0.116 -0.012,0.308 -0.16,0.363c-0.104,0.039 -0.237,0.083 -0.28,-0.058c-0.06,-0.2 0.131,-0.248 0.28,-0.363" style="fill-rule:nonzero;"/>        </g>        <g transform="matrix(1,0,0,1,0,-330.624)">            <path d="M453.809,421.031c-3.267,0 -6.206,1.272 -7.734,3.449l-0.141,-0.226l0.006,-0.065c0.084,-0.441 -0.158,-0.878 0.095,-1.298c0.126,-0.204 0.098,-0.367 0.012,-0.565c-0.043,0.018 -0.072,0.038 -0.102,0.045c-0.06,0.006 -0.15,0.026 -0.178,-0.002c-0.015,0.008 -0.03,0.016 -0.043,0.022c-2.157,1.02 -4.18,1.928 -6.841,2.717c-1.609,0.477 -3.255,0.93 -4.911,1.376c0.015,0.136 0.025,0.269 0.042,0.402c0.018,0.136 0.025,0.278 0.075,0.401c0.079,0.199 0.066,0.385 0.017,0.581c1.069,-0.255 2.136,-0.508 3.198,-0.769c2.888,-0.703 5.984,-1.495 8.625,-2.365l0,1.694c-2.061,0.524 -4.686,1.171 -6.612,1.582c-1.772,0.377 -3.541,0.757 -5.303,1.145l0,0.003c0.024,0.106 -0.007,0.233 -0.047,0.337c-0.062,0.168 -0.076,0.316 0.042,0.465c0.098,0.117 0.126,0.237 0.126,0.365c1.242,-0.261 2.485,-0.522 3.733,-0.778c2.362,-0.485 5.51,-0.952 8.061,-1.413l0,1.198c-1.656,0.273 -3.317,0.544 -4.972,0.821c-2.353,0.394 -4.683,0.81 -6.96,1.273c-0.035,0.359 -0.067,0.718 -0.098,1.077c2.872,-0.591 5.874,-1.068 8.91,-1.507c1.295,-0.19 2.593,-0.377 3.891,-0.56c-0.002,-0.123 -0.002,-0.246 -0.005,-0.369c0.161,-0.24 0.369,-0.439 0.567,-0.648c1.227,-0.71 2.649,-1.069 3.89,-1.069c3.262,0 5.089,2.001 5.089,5.27l0,15.973l8.246,0l0,-16.97c0,-7.264 -3.874,-11.592 -10.678,-11.592" style="fill-rule:nonzero;"/>        </g>        <g transform="matrix(1,0,0,1,0,-338.032)">            <path d="M477.997,449.176l2.329,-2.49l8.08,10.314l9.295,0l-12.066,-15.305l11.124,-12.644l-9.576,0l-9.186,10.645l0,-18.664l-8.243,0l0,35.968l8.243,0l0,-7.824Z" style="fill-rule:nonzero;"/>        </g>        <g transform="matrix(1,0,0,1,0,-317.981)">            <path d="M509.107,439.5c-0.218,0.829 -0.606,1.386 -1.16,1.776c-0.553,0.386 -1.329,0.607 -2.38,0.607c-1.386,0 -2.491,-0.163 -3.378,-0.442l0,7.153c1.163,0.277 2.38,0.387 3.653,0.387c3.155,0 5.645,-0.831 7.472,-2.44c1.218,-1.055 2.267,-2.772 3.209,-5.155l12.396,-32.386l-8.412,0l-6.862,19.411l-7.583,-19.411l-8.409,0l11.897,29.277l-0.443,1.223Z" style="fill-rule:nonzero;"/>        </g>    </g></svg>