<?xml version="1.0" encoding="UTF-8" standalone="no"?><!DOCTYPE svg PUBLIC "-//W3C//DTD SVG 1.1//EN" "http://www.w3.org/Graphics/SVG/1.1/DTD/svg11.dtd"><svg width="100%" height="100%" viewBox="0 0 1024 512" version="1.1" xmlns="http://www.w3.org/2000/svg" xmlns:xlink="http://www.w3.org/1999/xlink" xml:space="preserve" style="fill-rule:evenodd;clip-rule:evenodd;stroke-linejoin:round;stroke-miterlimit:2;"><title>Landbay</title><desc>We are a lending platform for specialist buy-to-let mortgages, providing an easy and flexible solution for brokers.  </desc>    <g id="landbay-512x256.svg" transform="matrix(2.21739,0,0,2.21739,-55.6522,-27.8261)">        <path d="M40.77,62l430.46,0l0,132l-430.46,0l0,-132Zm-14.77,146.74l460,0l0,-161.48l-460,0l0,161.48Z" style="fill:rgb(27,23,26);fill-rule:nonzero;"/>        <path d="M95.42,100.67l0,53.84l29.69,0l0,-12.08l-15.94,0l0,-41.76l-13.75,0Z" style="fill:rgb(27,23,26);fill-rule:nonzero;"/>        <path d="M155.37,117.4l0.22,0l5.53,18.4l-11.28,0l5.53,-18.4Zm-5.31,-16.73l-21.61,53.84l14.77,0l2.84,-7.79l18.7,0l2.62,7.79l14.91,0l-21.39,-53.84l-10.84,0Z" style="fill:rgb(27,23,26);fill-rule:nonzero;"/>        <path d="M216.72,100.67l0.58,33.68l-0.15,0.15l-20.81,-33.83l-11.85,0l0,53.84l13.16,0l-0.36,-32.67l0.15,-0.07l20.51,32.74l11.93,0l0,-53.84l-13.16,0Z" style="fill:rgb(27,23,26);fill-rule:nonzero;"/>        <path d="M247.63,142.43l5.89,0c10.26,0 13.17,-7.13 13.17,-14.77c0.068,-3.511 -0.839,-6.973 -2.62,-10c-1.6,-2.4 -4.36,-4.95 -10.48,-4.95l-6,0l0.04,29.72Zm-13.75,-41.76l17.82,0c6,0 16.81,0 23.79,10c3.71,5.09 4.95,10.84 4.95,16.73c0,14.69 -7.28,27.06 -27.72,27.06l-18.84,0l0,-53.79Z" style="fill:rgb(27,23,26);fill-rule:nonzero;"/>        <path d="M296.66,142.43l6.47,0c1.75,0 6.84,0 6.84,-5.17c0,-4.65 -4.65,-4.65 -6.84,-4.65l-6.47,0l0,9.82Zm0,-21.32l4.88,0c1.89,0 5.82,0 5.82,-4.29c0,-4.07 -3.71,-4.07 -5.82,-4.07l-4.88,0l0,8.36Zm-13.17,-20.44l16.59,0c9.1,0 13.31,0.87 17.24,5.24c2.19,2.42 3.341,5.609 3.2,8.87c0.078,4.487 -2.335,8.665 -6.26,10.84c8.66,3.06 8.88,10.26 8.88,12.52c0,4.29 -1.67,9 -4.95,11.71c-4.95,4.15 -8.51,4.66 -17.6,4.66l-17.1,0l0,-53.84Z" style="fill:rgb(27,23,26);fill-rule:nonzero;"/>        <path d="M348.16,117.4l0.22,0l5.53,18.4l-11.28,0l5.53,-18.4Zm-5.31,-16.73l-21.61,53.84l14.76,0l2.84,-7.79l18.7,0l2.62,7.79l14.91,0l-21.38,-53.84l-10.84,0Z" style="fill:rgb(27,23,26);fill-rule:nonzero;"/>        <path d="M394.73,101.08l-8.07,21.61l-8.01,-21.61l-14.91,0l16.08,34.27l0,19.57l13.75,0l0,-19.57l15.93,-34.27l-14.77,0Z" style="fill:rgb(27,23,26);fill-rule:nonzero;"/>        <path d="M429,108.15c-6.987,-0.011 -12.73,-5.763 -12.73,-12.75c0,-6.994 5.756,-12.75 12.75,-12.75c6.994,0 12.75,5.756 12.75,12.75c-0.011,6.998 -5.772,12.75 -12.77,12.75m0,-22.55c-0.003,0 -0.007,0 -0.01,0c-5.376,0 -9.8,4.424 -9.8,9.8c0,5.376 4.424,9.8 9.8,9.8c5.376,0 9.8,-4.424 9.8,-9.8c-0.005,-5.37 -4.42,-9.789 -9.79,-9.8" style="fill:rgb(27,23,26);fill-rule:nonzero;"/>        <path d="M425.22,90.08l3.36,0c1.87,0 2.59,0.23 3.28,0.76c0.848,0.721 1.326,1.787 1.3,2.9c0.086,1.612 -1.052,3.052 -2.64,3.34l2.88,3.62l-3.1,0l-2.46,-3.43l0,3.43l-2.6,0l-0.02,-10.62Zm2.6,5.34l1,0c1.59,0 1.78,-1 1.78,-1.52c0,-1 -0.7,-1.44 -1.75,-1.44l-1,0l-0.03,2.96Z" style="fill:rgb(27,23,26);fill-rule:nonzero;"/>    </g></svg>