<?xml version="1.0" encoding="UTF-8" standalone="no"?><!DOCTYPE svg PUBLIC "-//W3C//DTD SVG 1.1//EN" "http://www.w3.org/Graphics/SVG/1.1/DTD/svg11.dtd"><svg width="100%" height="100%" viewBox="0 0 1024 512" version="1.1" xmlns="http://www.w3.org/2000/svg" xmlns:xlink="http://www.w3.org/1999/xlink" xml:space="preserve" style="fill-rule:evenodd;clip-rule:evenodd;stroke-linejoin:round;stroke-miterlimit:2;"><title>Geldwerk1</title><desc>On Geldwerk1 you can invest in companies with good growth opportunities online. The corresponding investments are brokered by crowdinvesting platforms over the Internet. </desc>    <g transform="matrix(4.56375,0,0,4.56375,100.463,-249.925)">        <g>            <g transform="matrix(74.7138,0,0,74.7138,8.03518,141.755)">                <path d="M0.78,-0.598l-0.055,0.053c-0.04,-0.039 -0.084,-0.069 -0.132,-0.09c-0.048,-0.02 -0.094,-0.03 -0.139,-0.03c-0.057,0 -0.11,0.014 -0.161,0.041c-0.051,0.028 -0.091,0.066 -0.119,0.113c-0.028,0.047 -0.042,0.097 -0.042,0.15c0,0.054 0.015,0.106 0.044,0.154c0.029,0.049 0.069,0.087 0.12,0.115c0.051,0.028 0.107,0.042 0.168,0.042c0.074,0 0.136,-0.021 0.187,-0.063c0.051,-0.041 0.082,-0.095 0.091,-0.162l-0.229,0l0,-0.069l0.31,0c-0.001,0.111 -0.034,0.199 -0.099,0.264c-0.065,0.065 -0.153,0.098 -0.262,0.098c-0.133,0 -0.238,-0.045 -0.316,-0.136c-0.059,-0.069 -0.089,-0.15 -0.089,-0.241c0,-0.068 0.017,-0.132 0.051,-0.19c0.035,-0.059 0.081,-0.105 0.141,-0.138c0.06,-0.033 0.127,-0.049 0.202,-0.049c0.061,0 0.118,0.011 0.172,0.033c0.054,0.022 0.106,0.057 0.157,0.105Z" style="fill:rgb(246,204,43);fill-rule:nonzero;"/>            </g>            <path d="M69.996,126.126l0,12.05l-6.405,0l0,-1.874c0.178,-0.168 0.354,-0.338 0.528,-0.512c2.698,-2.698 4.657,-5.919 5.877,-9.664Zm-6.405,-32.979l0,-38.165l26.889,0l0,58.194l-7.197,0l0,-50.964l-13.287,0l0,50.964l-6.405,0c0,0 0.39,-12.324 0.582,-12.134l4.159,-3.94c-1.564,-1.485 -3.144,-2.803 -4.741,-3.955Z"/>            <g transform="matrix(1,0,0,1,98.0507,-0.821951)">                <path d="M69.996,138.176l-7.405,0l0,-24.8l-8.925,0l8.925,-7.881l7.405,0l0,32.681Z"/>            </g>            <path d="M121.924,103.946l7.181,0l0,25.333l19.255,-15.126l10.219,0l-28.615,23.215l-7.314,0l0,-24.675l-32.17,24.756l-7.029,0l0,-22.305l7.029,0l0,14.524l31.444,-25.722Z" style="fill:rgb(246,204,43);"/>        </g>        <g transform="matrix(9.13959,0,0,9.76075,-350.265,-143.506)">            <g transform="matrix(2.18828,0,0,2.04902,39.6368,31.7472)">                <path d="M0.78,-0.598l-0.055,0.053c-0.04,-0.039 -0.084,-0.069 -0.132,-0.09c-0.048,-0.02 -0.094,-0.03 -0.139,-0.03c-0.057,0 -0.11,0.014 -0.161,0.041c-0.051,0.028 -0.091,0.066 -0.119,0.113c-0.028,0.047 -0.042,0.097 -0.042,0.15c0,0.054 0.015,0.106 0.044,0.154c0.029,0.049 0.069,0.087 0.12,0.115c0.051,0.028 0.107,0.042 0.168,0.042c0.074,0 0.136,-0.021 0.187,-0.063c0.051,-0.041 0.082,-0.095 0.091,-0.162l-0.229,0l0,-0.069l0.31,0c-0.001,0.111 -0.034,0.199 -0.099,0.264c-0.065,0.065 -0.153,0.098 -0.262,0.098c-0.133,0 -0.238,-0.045 -0.316,-0.136c-0.059,-0.069 -0.089,-0.15 -0.089,-0.241c0,-0.068 0.017,-0.132 0.051,-0.19c0.035,-0.059 0.081,-0.105 0.141,-0.138c0.06,-0.033 0.127,-0.049 0.202,-0.049c0.061,0 0.118,0.011 0.172,0.033c0.054,0.022 0.106,0.057 0.157,0.105Z" style="fill:rgb(1,1,1);fill-rule:nonzero;"/>            </g>            <g transform="matrix(2.18828,0,0,2.04902,42.0922,31.7472)">                <path d="M0.088,-0.718l0.412,0l0,0.071l-0.34,0l0,0.224l0.337,0l0,0.07l-0.337,0l0,0.282l0.337,0l0,0.071l-0.409,0l0,-0.718Z" style="fill:rgb(1,1,1);fill-rule:nonzero;"/>            </g>            <g transform="matrix(2.18828,0,0,2.04902,43.9219,31.7472)">                <path d="M0.087,-0.718l0.073,0l0,0.649l0.276,0l0,0.069l-0.349,0l0,-0.718Z" style="fill:rgb(1,1,1);fill-rule:nonzero;"/>            </g>            <g transform="matrix(2.18828,0,0,2.04902,45.261,31.7472)">                <path d="M0.087,0l0,-0.718l0.149,0c0.108,0 0.186,0.008 0.234,0.026c0.07,0.024 0.124,0.066 0.164,0.127c0.039,0.06 0.058,0.132 0.058,0.215c0,0.072 -0.015,0.135 -0.046,0.19c-0.031,0.055 -0.072,0.095 -0.121,0.121c-0.05,0.026 -0.12,0.039 -0.209,0.039l-0.229,0Zm0.069,-0.068l0.083,0c0.1,0 0.168,-0.006 0.207,-0.018c0.054,-0.018 0.096,-0.05 0.127,-0.095c0.031,-0.046 0.047,-0.102 0.047,-0.168c0,-0.069 -0.017,-0.129 -0.051,-0.178c-0.033,-0.049 -0.08,-0.083 -0.14,-0.101c-0.045,-0.014 -0.119,-0.02 -0.222,-0.02l-0.051,0l0,0.58Z" style="fill:rgb(1,1,1);fill-rule:nonzero;"/>            </g>            <g transform="matrix(2.18828,0,0,2.04902,47.5458,31.7472)">                <path d="M0.047,-0.718l0.074,0l0.146,0.517l0.206,-0.517l0.014,0l0.204,0.517l0.149,-0.517l0.073,0l-0.206,0.718l-0.014,0l-0.213,-0.543l-0.217,0.543l-0.013,0l-0.203,-0.718Z" style="fill:rgb(1,1,1);fill-rule:nonzero;"/>            </g>            <g transform="matrix(2.18828,0,0,2.04902,50.4124,31.7472)">                <path d="M0.088,-0.718l0.412,0l0,0.071l-0.34,0l0,0.224l0.337,0l0,0.07l-0.337,0l0,0.282l0.337,0l0,0.071l-0.409,0l0,-0.718Z" style="fill:rgb(1,1,1);fill-rule:nonzero;"/>            </g>            <g transform="matrix(2.18828,0,0,2.04902,52.1327,31.7472)">                <path d="M0.091,-0.718l0.143,0c0.08,0 0.134,0.003 0.162,0.01c0.043,0.009 0.078,0.03 0.104,0.062c0.027,0.032 0.041,0.072 0.041,0.119c0,0.039 -0.01,0.073 -0.028,0.103c-0.018,0.029 -0.045,0.052 -0.079,0.067c-0.034,0.015 -0.081,0.023 -0.142,0.023l0.259,0.334l-0.089,0l-0.258,-0.334l-0.041,0l0,0.334l-0.072,0l0,-0.718Zm0.072,0.07l0,0.244l0.124,0.001c0.047,0 0.083,-0.004 0.106,-0.014c0.023,-0.009 0.041,-0.023 0.054,-0.043c0.012,-0.02 0.019,-0.043 0.019,-0.067c0,-0.024 -0.007,-0.046 -0.02,-0.066c-0.013,-0.02 -0.03,-0.034 -0.051,-0.042c-0.021,-0.009 -0.056,-0.013 -0.105,-0.013l-0.127,0Z" style="fill:rgb(1,1,1);fill-rule:nonzero;"/>            </g>            <g transform="matrix(2.18828,0,0,2.04902,53.8985,31.7472)">                <path d="M0.087,-0.718l0.074,0l0,0.269l0.286,-0.269l0.097,0l-0.345,0.322l0.372,0.396l-0.095,0l-0.315,-0.335l0,0.335l-0.074,0l0,-0.718Z" style="fill:rgb(1,1,1);fill-rule:nonzero;"/>            </g>            <g transform="matrix(2.18828,0,0,2.04902,55.8478,31.7472)">                <path d="M0.185,-0.718l0.141,0l0,0.718l-0.071,0l0,-0.648l-0.113,0l0.043,-0.07Z" style="fill:rgb(1,1,1);fill-rule:nonzero;"/>            </g>        </g>    </g></svg>