<?xml version="1.0" encoding="UTF-8" standalone="no"?><!DOCTYPE svg PUBLIC "-//W3C//DTD SVG 1.1//EN" "http://www.w3.org/Graphics/SVG/1.1/DTD/svg11.dtd"><svg width="100%" height="100%" viewBox="0 0 1024 512" version="1.1" xmlns="http://www.w3.org/2000/svg" xmlns:xlink="http://www.w3.org/1999/xlink" xml:space="preserve" style="fill-rule:evenodd;clip-rule:evenodd;stroke-linecap:round;stroke-linejoin:round;"><title>Kuflink</title><desc>Invest in UK property loans and earn up to 7.2% with our innovative FCA regulated platform.At Kuflink we specialise in Bridging Loans for residential and commercial property. We also provide Property-Backed Peer-to-Peer Investment opportunities via an online platform</desc>    <g id="kuflink-512x256.svg" transform="matrix(2.21744,0,0,2.21744,-55.6782,-27.775)">        <path d="M248.27,156.49l-7.41,0l-22.95,-27l0,27.13l-5.86,0l0,-52.48l5.86,0l0,24.5l22.35,-24.5l7.05,0l-22.95,24.62l23.91,27.73Z" style="fill-rule:nonzero;"/>        <path d="M290.22,142.51c0,5.14 -1.08,9 -3.11,11.35c-2.03,2.35 -5.38,3.59 -9.8,3.59c-4.42,0 -7.77,-1.2 -9.8,-3.59c-2.03,-2.39 -3.11,-6.22 -3.11,-11.35l0,-18.41l5.6,0l0,18.29c0,3.47 0.6,6 1.67,7.53c1.07,1.53 3,2.39 5.74,2.39c2.74,0 4.59,-0.72 5.59,-2.31c1,-1.59 1.67,-4.06 1.67,-7.53l0,-18.37l5.62,0l0,18.41l-0.07,0Z" style="fill-rule:nonzero;"/>        <path d="M327.27,103.9c-0.407,-0.231 -0.85,-0.393 -1.31,-0.48c-0.47,-0.099 -0.95,-0.139 -1.43,-0.12c-1.376,-0.152 -2.711,0.562 -3.35,1.79c-0.6,1.2 -0.84,3.35 -0.84,6.57l0,12.44l6.57,0l0,5l-6.57,0l0,27.49l-5.62,0l0,-27.47l-3.82,0l0,-5l3.82,0l0,-12.57c0,-4.66 0.72,-8.13 2,-10c1.28,-1.87 3.71,-3 6.93,-3c0.639,-0.023 1.279,0.017 1.91,0.12c0.6,0.12 1.08,0.24 1.55,0.36l0,4.9l0.16,-0.03Z" style="fill-rule:nonzero;"/>        <rect x="346.27" y="99.12" width="5.5" height="57.37" style="fill-rule:nonzero;"/>        <path d="M383.69,111.31c0.036,1.016 -0.409,1.992 -1.2,2.63c-0.733,0.717 -1.725,1.107 -2.75,1.08c-0.989,0.027 -1.945,-0.366 -2.63,-1.08c-0.695,-0.698 -1.084,-1.645 -1.08,-2.63c-0.004,-1.021 0.382,-2.005 1.08,-2.75c0.687,-0.727 1.631,-1.158 2.63,-1.2c2.131,0.077 3.863,1.809 3.94,3.94l0.01,0.01Zm-1,45.18l-5.62,0l0,-32.39l5.62,0l0,32.39Z" style="fill-rule:nonzero;"/>        <path d="M434.72,156.49l-5.62,0l0,-19.36c0,-3.11 -0.6,-5.5 -1.67,-6.93c-1.07,-1.43 -2.87,-2.15 -5.38,-2.15c-2.561,-0.129 -4.996,1.16 -6.33,3.35c-1.433,2.153 -2.15,5.38 -2.15,9.68l0,15.54l-5.5,0l0,-32.52l5.5,0l0,4.78c0.859,-1.83 2.283,-3.337 4.06,-4.3c1.956,-1.002 4.133,-1.494 6.33,-1.43c3.005,-0.166 5.922,1.073 7.89,3.35c1.91,2.15 2.87,5.26 2.87,9.2l0,20.79Z" style="fill-rule:nonzero;"/>        <path d="M486,156.49l-6.81,0l-14.94,-17.09l0,17.09l-5.5,0l0,-57.37l5.5,0l0,39.32l13.86,-14.34l6.57,0l-14.58,14.7l15.9,17.69Z" style="fill-rule:nonzero;"/>        <path d="M172.49,128c0.03,-1.901 -0.381,-3.784 -1.2,-5.5c-0.697,-1.72 -1.758,-3.269 -3.11,-4.54l-31.67,-31.87l-0.24,-0.24c-5.682,-4.563 -13.988,-4.094 -19.12,1.08c-0.432,0.406 -0.833,0.844 -1.2,1.31c-0.667,0.789 -1.648,1.245 -2.681,1.245c-0.92,0 -1.803,-0.361 -2.459,-1.005l-8.61,-8.61c-1.666,-1.601 -4.334,-1.601 -6,0c-1.664,1.677 -1.664,4.423 0,6.1l19.72,19.72c0.13,0.223 0.291,0.425 0.48,0.6c0.24,0.24 0.48,0.6 0.72,0.84l4.18,4.18l10.28,10.16l4.9,4.9c0.461,0.459 0.72,1.084 0.72,1.735c0,0.651 -0.259,1.276 -0.72,1.735l-6,5.62l-14.1,14c-0.829,0.858 -1.972,1.343 -3.165,1.343c-1.193,0 -2.336,-0.485 -3.165,-1.343l-1.39,-1.46c-1.162,-1.2 -1.577,-2.945 -1.08,-4.54c0.27,-0.646 0.634,-1.25 1.08,-1.79l4.9,-4.9c4.42,-4.42 5.86,-12 1.91,-16.37l-8.61,-8.61l-0.72,-0.72l-24.37,-24.38c-2.668,-2.696 -6.307,-4.214 -10.1,-4.214c-3.793,0 -7.432,1.518 -10.1,4.214l-3.7,3.71c-0.12,0.12 -0.36,0.36 -0.36,0.48l-0.36,0.36l-26.54,26.41l-0.48,0.48c-2.276,2.239 -3.711,5.197 -4.06,8.37c-0.207,2.395 0.135,4.807 1,7.05c0.767,1.717 1.819,3.293 3.11,4.66l3.82,3.79l27.84,27.84c5.686,4.793 14.199,4.425 19.45,-0.84c0.471,-0.487 0.908,-1.005 1.31,-1.55c0.628,-0.841 1.619,-1.338 2.669,-1.338c0.941,0 1.84,0.399 2.471,1.098l8.73,8.79c0.804,0.817 1.904,1.278 3.05,1.278c2.347,0 4.278,-1.931 4.278,-4.278c0,-1.122 -0.441,-2.2 -1.228,-3l-26.3,-26.41l-9.32,-9l-4.66,-4.59c-0.461,-0.459 -0.72,-1.084 -0.72,-1.735c0,-0.651 0.259,-1.276 0.72,-1.735l4.9,-4.9l1.31,-1.31l13.15,-13.15c0.24,-0.24 0.36,-0.48 0.6,-0.6c0.214,-0.229 0.456,-0.431 0.72,-0.6c1.776,-1.136 4.123,-0.886 5.62,0.6l1.41,1.43c1.298,1.224 1.699,3.138 1,4.78c-0.107,0.356 -0.269,0.694 -0.48,1c-0.12,0.24 -0.36,0.36 -0.48,0.6l-5.26,5.26c-4.219,5.234 -3.856,12.88 0.84,17.69l4.54,4.54l24.62,24.86c6.885,6.884 18.215,6.884 25.1,0l0.84,-0.84c0.24,-0.24 0.36,-0.48 0.6,-0.6l26.89,-26.89c2.745,-2.715 4.294,-6.419 4.3,-10.28l-0.02,-0.12Zm-97.29,-27l-13,13l-7.92,8l-4.18,4.18c-0.461,0.459 -0.72,1.084 -0.72,1.735c0,0.651 0.259,1.276 0.72,1.735l25.34,25.34c1.033,1.028 1.615,2.427 1.615,3.885c0,1.458 -0.582,2.857 -1.615,3.885l-0.72,0.72c-0.738,0.715 -1.697,1.159 -2.72,1.26l-0.12,0c-1.43,0.275 -2.907,-0.175 -3.94,-1.2l-13.39,-14.1l-7.77,-7.77l-0.78,-0.67l-9.68,-9.56c-0.415,-0.414 -0.753,-0.898 -1,-1.43c-0.365,-0.703 -0.57,-1.478 -0.6,-2.27l0,-1.74c0,-0.12 0,-0.12 0.12,-0.24c0.12,-0.12 0,-0.12 0.12,-0.24c0.12,-0.12 0,-0.12 0.12,-0.24c0.12,-0.12 0.24,-0.36 0.36,-0.48l0.12,-0.12l0.12,-0.12c0,-0.066 0.054,-0.12 0.12,-0.12l0.12,-0.12l19.12,-18.77l12.39,-12.28c1.028,-1.033 2.427,-1.615 3.885,-1.615c1.458,0 2.857,0.582 3.885,1.615c0.998,1.02 1.556,2.393 1.55,3.82c0.022,1.457 -0.536,2.864 -1.55,3.91Zm31.2,26.89l0,0.6c-0.113,1.227 -0.663,2.374 -1.55,3.23l-2,1.79c-0.209,0.235 -0.452,0.437 -0.72,0.6c-2.076,1.43 -4.902,1.176 -6.69,-0.6l-1.79,-1.67c-1.882,-1.861 -2.039,-4.884 -0.36,-6.93c0,-0.066 0.054,-0.12 0.12,-0.12l0.36,-0.36l1.91,-1.91c0.506,-0.466 1.067,-0.869 1.67,-1.2c1.103,-0.44 2.317,-0.524 3.47,-0.24c0.497,0.149 0.976,0.35 1.43,0.6c0.36,0.24 0.6,0.48 1,0.72l1.75,1.7c0.309,0.277 0.555,0.619 0.72,1c0.455,0.724 0.742,1.541 0.84,2.39l0,0.12c-0.092,0.096 -0.136,0.228 -0.12,0.36l-0.04,-0.08Zm57.13,2.27c-0.209,0.445 -0.493,0.851 -0.84,1.2l-31.32,31.32c-1.028,1.033 -2.427,1.615 -3.885,1.615c-1.458,0 -2.857,-0.582 -3.885,-1.615c-0.998,-1.02 -1.556,-2.393 -1.55,-3.82c-0.028,-1.431 0.533,-2.813 1.55,-3.82l20.56,-20.56l4.54,-4.48c0.461,-0.459 0.72,-1.084 0.72,-1.735c0,-0.651 -0.259,-1.276 -0.72,-1.735l-13.26,-13.53l-12.67,-12.67c-0.817,-0.787 -1.288,-1.866 -1.31,-3c-0.096,-1.292 0.384,-2.563 1.31,-3.47l0.72,-0.72c1.028,-1.033 2.427,-1.615 3.885,-1.615c1.458,0 2.857,0.582 3.885,1.615l31.32,31.32c0.415,0.414 0.753,0.898 1,1.43c0.64,1.369 0.618,2.959 -0.06,4.31l0.01,-0.04Z" style="fill:url(#_Linear1);fill-rule:nonzero;stroke:url(#_Linear2);stroke-width:0.19px;"/>    </g>    <defs>        <linearGradient id="_Linear1" x1="0" y1="0" x2="1" y2="0" gradientUnits="userSpaceOnUse" gradientTransform="matrix(146.49,0,0,146.49,26,128)"><stop offset="0" style="stop-color:rgb(76,54,110);stop-opacity:1"/><stop offset="1" style="stop-color:rgb(0,158,212);stop-opacity:1"/></linearGradient>        <linearGradient id="_Linear2" x1="0" y1="0" x2="1" y2="0" gradientUnits="userSpaceOnUse" gradientTransform="matrix(146.69,0,0,146.69,25.9,1485.74)"><stop offset="0" style="stop-color:rgb(76,54,110);stop-opacity:1"/><stop offset="1" style="stop-color:rgb(0,158,212);stop-opacity:1"/></linearGradient>    </defs></svg>