<?xml version="1.0" encoding="UTF-8" standalone="no"?><!DOCTYPE svg PUBLIC "-//W3C//DTD SVG 1.1//EN" "http://www.w3.org/Graphics/SVG/1.1/DTD/svg11.dtd"><svg width="100%" height="100%" viewBox="0 0 1024 512" version="1.1" xmlns="http://www.w3.org/2000/svg" xmlns:xlink="http://www.w3.org/1999/xlink" xml:space="preserve" style="fill-rule:evenodd;clip-rule:evenodd;stroke-linejoin:round;stroke-miterlimit:2;"><title>GwenneG</title><desc>GwenneG (or "little penny" in Breton) responds to this desire for proximity and allows everyone to support Breton projects whether in the form of a loan or a capital investment. This is a unique offer in the crowdfunding industry. With one key objective: to support development and employment in Brittany for future generations.</desc>    <g transform="matrix(0.137645,0,0,0.137645,1.73847,173.051)">        <path d="M7039.8,950.5c-172.8,-32.3 -288.7,-202.9 -253.5,-373.1c46.6,-224.9 301.2,-327.6 491.6,-198.5c36.7,24.9 80.7,75.9 102.7,118.9c24.6,48.8 36.7,118.5 29.7,175.7c-8.8,74.5 -37.8,134.6 -89.9,187.1c-37.8,38.5 -74.1,60.5 -127.7,78.9c-30.1,10.3 -39.3,11.7 -85.1,12.8c-28.2,0.4 -58.7,-0.4 -67.9,-1.8l0.1,0Z" style="fill:rgb(225,7,26);fill-rule:nonzero;"/>        <path d="M383.4,1204.7c-195.2,-29.7 -330.2,-159.6 -373.1,-359.1c-8.4,-39.6 -8.4,-44.4 -8.4,-240.3c-0,-179.4 0.7,-203.2 6.6,-231.1c21.6,-101.6 65.3,-183.8 131.3,-247.6c59.8,-58 121.8,-92.8 201.8,-113.4c109.3,-28.6 248,-11.7 352.5,42.6c41.5,21.6 102,67.5 119.6,91c11.4,14.7 12.5,18 11,36c-1.8,19.4 -2.2,20.2 -41.1,59.1c-45.5,45.5 -55.8,51 -78.5,40.7c-8.1,-3.7 -20.9,-12.5 -28.6,-19.4c-34.5,-30.4 -80.7,-58.3 -118.5,-71.2c-37.1,-12.5 -119.6,-15.8 -161.8,-7c-102,21.6 -176.8,102.7 -199.9,217.2c-5.1,25.7 -5.9,54.3 -4.4,218.3c1.5,214.2 1.1,210.2 33.8,277.7c13.6,28.6 22,40 45.5,63.8c47.3,47 97.6,65.3 179.8,65.3c87.7,0 148.6,-22.4 197,-71.9c41.5,-42.6 64.9,-102 69.7,-176.1l2.6,-38.2l-104.2,0c-97.6,0 -104.9,-0.4 -116.3,-7.3c-22.7,-13.9 -26.4,-25.3 -26.4,-80.7c-0,-56.9 4,-69.7 25.7,-82.5c12.5,-7.3 18,-7.3 301.5,-7.3l289.1,0l-0,-115.6c-0,-113 0.4,-115.9 8.4,-130.2c13.2,-23.5 25.3,-27.5 82.5,-27.5c54.3,0 64.2,2.9 78.5,22.7l8.4,12.1l1.8,291.6c1.5,228.9 3.3,294.9 7,306.3c24.6,73.7 81.4,115.6 157.4,115.6c49.9,0 84.7,-13.9 117,-46.2c22,-22 39.3,-54.7 45.1,-85.5c2.2,-12.5 3.7,-123.6 3.7,-297.1c-0,-309.3 -1.1,-293.5 25.3,-311.1c11.4,-7.7 16.5,-8.4 64.2,-8.4c49.5,0 52.5,0.4 65.7,9.5c7.7,5.1 15.8,13.6 18.3,19.1c3.3,7.3 4.8,86.2 6.2,301.5l1.8,291.6l8.4,23.8c23.5,64.9 80.3,102.7 155.2,102.7c62.7,0 117,-31.2 143.4,-82.2c19.8,-38.5 19.1,-25.7 21.3,-339.7c2.2,-324.7 0.4,-303 26.8,-319.2c10.3,-6.2 18.7,-7.3 61.3,-7.3c56.5,0 69.7,4 82.5,26c7,12.1 7.3,20.2 8.4,283.9c0.7,174.3 -0.4,284.7 -2.9,308.2c-15.4,144.9 -105.3,250.6 -245.8,288.3c-27.1,7.3 -40,8.4 -97.2,8.8c-57.6,-0 -69.7,-1.1 -94.3,-8.1c-50.3,-14.7 -90.6,-36.3 -132.4,-71.2c-11.7,-9.9 -24.2,-18 -27.5,-18c-3.7,-0 -19.4,10.3 -35.6,22.4c-33.4,25.3 -98.3,58.3 -133.9,68.2c-18.7,5.1 -37.4,6.6 -86.2,6.6c-75.9,-0.4 -104.6,-6.6 -165.8,-36.7c-76.7,-38.2 -132.4,-103.1 -158.5,-185.3c-14.7,-45.1 -18.7,-81.8 -18.7,-164l-0,-78.1l-178.6,-0l-2.6,36c-5.9,82.9 -17.2,130.2 -45.5,189.7c-56.5,119.6 -162.1,199.9 -301.5,230c-25.7,5.5 -51.7,7.7 -100.9,8.4c-36.3,0.7 -70.8,0.4 -77,-0.4l-0,0.2Z" style="fill:rgb(3,3,4);fill-rule:nonzero;"/>        <path d="M2692.7,1201.4c-114.5,-21.6 -209.1,-92.8 -253.5,-191.1c-30.8,-67.5 -32.6,-84 -32.6,-272.9c-0,-144.5 0.7,-164 7,-195.2c25.7,-124.4 96.1,-209.1 209.8,-252c37.1,-14.3 75.6,-20.2 131.7,-20.2c105.7,0 182.3,29 252.4,95c48.8,46.2 75.9,91.7 95,161.4c9.9,36 10.3,38.9 10.3,138.3c-0,96.8 -0.4,102 -7.7,111.5c-4,5.5 -12.1,13.6 -17.6,17.6c-9.9,7.7 -14.3,7.7 -247.3,8.4c-130.6,0.7 -241,1.8 -245.4,2.9c-8.1,1.8 -8.4,3.3 -8.4,44.4c-0,47.3 5.5,74.5 20.9,104.6c12.8,24.6 38.2,49.9 62,62.7c51.4,27.5 153.3,28.2 206.5,1.1c20.9,-10.3 57.6,-37.8 80,-59.8c29.3,-28.2 51,-25.7 93.9,12.1c34.9,30.4 44.8,46.6 41.1,67.9c-8.8,52.5 -114.8,131.7 -209.8,156.6c-30.1,7.7 -45.9,9.5 -98.3,10.6c-43.3,0.7 -70.8,-0.4 -89.9,-4l-0.1,0.1Zm235.1,-552.1c5.9,-3.3 7,-8.1 7,-30.4c-0,-55 -18,-101.3 -53.2,-136.5c-26,-26.4 -48.4,-36.3 -97.2,-42.6c-41.1,-5.1 -93.5,2.2 -121.8,17.6c-32.6,17.6 -58.3,55 -70.4,102.7c-7,26.8 -7.7,82.2 -1.5,88.4c5.9,5.9 326.1,6.2 337.1,0.7l-0,0.1Z" style="fill:rgb(3,3,4);fill-rule:nonzero;"/>        <path d="M5271.6,1204.7c-30.8,-5.1 -52.1,-10.3 -72.3,-16.5c-121.8,-39.3 -207.6,-140.1 -230.4,-270.4c-8.1,-45.1 -7.7,-314.8 0,-362.1c20.5,-121.4 88.4,-212 192.6,-257.2c50.3,-22 85.5,-28.6 152.2,-28.2c51,0 63.5,1.1 95.4,9.2c128,33 213.9,116.7 251.7,245.1c7,24.6 8.1,38.5 9.5,131c1.8,116.3 1.1,122.2 -24.2,137.6l-13.2,8.4l-239.9,1.1c-165.4,0.7 -241.8,2.2 -245.1,5.1c-5.9,4.8 -6.2,56.5 -0.7,91c7.7,48.8 43.7,100.9 82.2,119.2c42.2,19.8 106.4,26 158.5,15c44,-9.5 64.2,-20.9 117.8,-66.8c43.3,-37.8 59.1,-36 108.6,10.6c28.2,26.4 32.3,31.9 34.1,45.1c2.9,22.4 -4.4,39.3 -27.5,64.6c-43.7,47.3 -115.6,90.2 -180.5,107.9c-29.7,8.1 -44.4,9.5 -97.2,10.6c-34.1,0.7 -66.4,0.7 -71.5,-0.4l-0.1,0.1Zm215.7,-556.1c6.2,-6.2 5.5,-58 -1.5,-85.1c-7.7,-29.3 -24.9,-61.6 -43.7,-80.7c-22.4,-22.7 -47,-34.1 -88.4,-41.1c-49.9,-8.4 -91,-3.7 -129.9,16.1c-24.6,12.1 -29.3,16.1 -44.4,38.5c-24.2,36.3 -36.3,77.8 -36.3,124c-0,34.9 -12.5,32.6 175.7,32.6c122.5,0 165.1,-1.1 168.4,-4.4l0.1,0.1Z" style="fill:rgb(3,3,4);fill-rule:nonzero;"/>        <path d="M6159.4,1203.3c-168,-27.5 -293.1,-133.9 -346.7,-294.6c-24.9,-75.6 -24.9,-73.7 -26.4,-279.5c-1.8,-227.4 -0,-251.7 29,-332c41.5,-114.8 114.5,-197.7 221.9,-250.9c145.6,-72.6 343,-59.1 481.7,32.6c31.9,21.3 71.2,55.8 82.5,72.3c10.3,15.4 12.1,34.9 4,49.9c-8.4,15.4 -72.3,77 -86.2,82.5c-17.2,7.3 -29,3.3 -58.3,-20.5c-50.6,-40.7 -90.2,-63.8 -129.5,-74.5c-18.3,-5.5 -37.1,-6.6 -87.7,-6.6c-63.1,0 -64.6,0 -94.6,11.4c-97.2,37.4 -156.3,118.1 -173.2,237.7c-6.6,45.9 -2.9,351.4 4.8,385.6c23.8,108.6 86.6,180.1 177.6,203.2c32.6,8.1 108.2,9.9 141.2,3.3c96.1,-19.4 155.5,-69.3 186.7,-157.4c9.2,-26 18,-80 18,-111.9l-0,-12.8l-102.7,-0c-93.9,-0 -104.2,-0.7 -116.7,-7c-24.2,-12.5 -28.2,-24.2 -28.2,-81.1c-0,-51.7 2.9,-63.1 19.1,-77.8c13.9,-12.5 36.3,-13.9 277.3,-13.9c208.4,-0 237.4,-0.7 237.4,-5.5c-0,-2.9 2.6,-5.5 5.9,-5.5c6.6,-0 6.6,1.8 -2.6,61.3c-4.4,27.9 -4,33.8 3.3,71.5c12.1,59.4 13.2,69 8.4,69c-2.6,-0 -5.1,-2.6 -6.2,-5.5c-1.8,-4.4 -11.4,-5.5 -54.7,-5.5l-52.1,-0l-2.2,48.8c-5.5,136.1 -65.7,253.1 -169.1,330.5c-45.1,33.4 -106.8,60.5 -174.3,75.9c-36,8.4 -152.6,12.5 -187.5,7l0.1,-0Z" style="fill:rgb(3,3,4);fill-rule:nonzero;"/>        <path d="M3280.4,1185.3c-14.3,-3.7 -24.9,-12.5 -33.4,-27.9c-5.1,-9.9 -5.9,-37.4 -7,-264.1c-1.1,-266 0.4,-310.7 14.3,-361.3c33,-120 124.7,-213.1 243.6,-247.6c80.3,-23.1 173.5,-20.2 249.5,7.7c111.9,41.8 188.6,127.7 222.7,249.8c7.7,27.9 8.1,34.1 9.2,312.9c1.5,319.2 2.6,307.1 -23.8,323.6c-12.5,7.7 -17.6,8.4 -65.3,8.4c-48.8,0 -52.1,-0.4 -64.9,-9.2c-25.3,-17.2 -24.6,-6.2 -24.6,-307.4c0,-296 0.4,-290.9 -22,-336.4c-24.6,-50.6 -66,-81.4 -123.3,-91.7c-37.4,-6.6 -48.8,-6.6 -87.7,0c-34.1,5.9 -65.7,20.2 -85.5,38.2c-15.8,13.9 -39.6,49.9 -49.2,73.4l-8.4,20.5l-1.8,286.1c-1.8,277.7 -2.2,286.5 -9.2,298.6c-14.3,24.6 -22.4,27.5 -74.5,28.6c-25.7,0.4 -52.1,-0.7 -58.7,-2.2Z" style="fill:rgb(3,3,4);fill-rule:nonzero;"/>        <path d="M4143.5,1183.1c-16.9,-5.9 -30.1,-20.9 -33,-36.7c-1.1,-5.9 -1.5,-139.8 -1.1,-297.1c1.5,-275.5 1.8,-287.2 8.8,-311.8c38.9,-133.2 132.1,-224.5 261.9,-257.5c33.4,-8.4 46.2,-9.5 95.4,-9.9c74.1,-0 112.6,8.4 174.3,38.2c91.3,44 159.6,130.2 187.8,236.6c6.2,23.8 6.6,45.5 6.6,317.3l0,291.6l-8.1,11.4c-13.2,18.3 -26,21.6 -82.5,21.6c-54.7,-0 -60.5,-1.8 -77.8,-25.3c-7.7,-9.9 -7.7,-14.3 -9.5,-294.9c-1.8,-283.2 -1.8,-285 -9.9,-306.3c-26.8,-70.1 -68.2,-106.4 -136.1,-118.5c-36.7,-6.2 -48.1,-6.2 -86.9,0.4c-65.3,11.4 -107.5,46.6 -133.2,110.8l-9.9,24.9l-1.8,284.3c-1.8,275.9 -2.2,284.7 -9.2,296.8c-14.7,24.6 -22.7,27.9 -74.5,29c-33.8,0.4 -50.6,-0.7 -61.3,-4.8l0,-0.1Z" style="fill:rgb(3,3,4);fill-rule:nonzero;"/>    </g></svg>