<?xml version="1.0" encoding="UTF-8" standalone="no"?><!DOCTYPE svg PUBLIC "-//W3C//DTD SVG 1.1//EN" "http://www.w3.org/Graphics/SVG/1.1/DTD/svg11.dtd"><svg width="100%" height="100%" viewBox="0 0 1024 512" version="1.1" xmlns="http://www.w3.org/2000/svg" xmlns:xlink="http://www.w3.org/1999/xlink" xml:space="preserve" style="fill-rule:evenodd;clip-rule:evenodd;stroke-linejoin:round;stroke-miterlimit:2;"><title>GRID Finance</title><desc>We are Ireland’s business finance specialists for the retail, hospitality and services sectorsGRID operates a business financing platform aiming to help small and medium sized Irish companies access the finance they need for their continued development and expansion. The Platform is an online community putting Lenders and Borrowers (SME and social enterprises) in touch with each other.</desc>    <g transform="matrix(1.52745,0,0,1.52745,-270.053,-88.5967)">        <g transform="matrix(4.97724,0,0,5.10455,-2288.6,-1994.31)">            <path d="M531.478,411.068l0,7.428l-4.645,0c-1.065,-2.339 -2.746,-4.21 -5.045,-5.613c-2.298,-1.403 -4.714,-2.105 -7.246,-2.105c-2.516,0 -4.758,0.593 -6.726,1.778c-1.968,1.186 -3.496,2.819 -4.585,4.9c-1.089,2.081 -1.633,4.444 -1.633,7.089c0,2.774 0.572,5.234 1.718,7.379c1.145,2.146 2.738,3.815 4.778,5.009c2.04,1.193 4.367,1.79 6.98,1.79c1.984,0 3.827,-0.363 5.529,-1.089c1.701,-0.725 3.113,-1.758 4.234,-3.097c1.121,-1.338 1.818,-2.871 2.093,-4.597l-6.702,0l0,-4.597l13.282,0l0,1.186c0,3.468 -0.79,6.492 -2.371,9.073c-1.58,2.581 -3.762,4.557 -6.544,5.928c-2.783,1.371 -5.908,2.056 -9.376,2.056c-3.951,0 -7.415,-0.794 -10.391,-2.383c-2.976,-1.589 -5.259,-3.811 -6.847,-6.666c-1.589,-2.855 -2.384,-6.169 -2.384,-9.944c0,-3.597 0.795,-6.815 2.384,-9.653c1.588,-2.839 3.778,-5.053 6.568,-6.642c2.791,-1.589 5.952,-2.383 9.485,-2.383c5,0 9.266,1.54 12.799,4.621l0,-4.016l27.683,0c4.693,0 8.081,0.766 10.161,2.298c2.081,1.533 3.122,3.952 3.122,7.259c0,2.339 -0.662,4.302 -1.984,5.891c-1.323,1.589 -3.17,2.682 -5.541,3.279l6.436,13.186l12.48,0l0,-27.365l-3.943,0l0,-4.548l13.428,0l0,4.548l-3.968,0l0,27.365l13.87,0l0,-27.365l-4.887,0l0,-4.548l13.864,0c7.468,0 13.036,1.411 16.706,4.234c3.67,2.823 5.504,7.307 5.504,13.452c0,6.243 -1.883,10.932 -5.649,14.07c-3.766,3.137 -9.368,4.706 -16.803,4.706l-44.328,0l-8.057,-16.985l-5.105,0l0,12.436l4.645,0l0,4.549l-15.097,0l0,-4.549l4.936,0l0,-27.365l-12.828,0Zm92.286,13.38c0,-3.097 -0.544,-5.621 -1.633,-7.573c-1.089,-1.952 -2.815,-3.407 -5.178,-4.367c-2.363,-0.96 -5.48,-1.44 -9.351,-1.44l-3.508,0l0,27.365l3.46,0c5.613,0 9.718,-1.125 12.315,-3.375c2.597,-2.25 3.895,-5.787 3.895,-10.61Zm-61.651,-8.468c0,-1.694 -0.533,-2.936 -1.597,-3.726c-1.065,-0.79 -2.75,-1.186 -5.057,-1.186l-5.637,0l0,10.356l5.299,0c2.371,0 4.129,-0.411 5.274,-1.234c1.145,-0.823 1.718,-2.226 1.718,-4.21Z" style="fill:rgb(6,69,103);fill-rule:nonzero;"/>        </g>        <g transform="matrix(1.18813,0,0,0.95266,-111.464,-65.8917)">            <g transform="matrix(58.9832,0,0,73.5623,359.807,460.498)">                <path d="M0.224,-0.591l0,0.213l0.338,0l0,0.11l-0.338,0l0,0.268l-0.13,0l0,-0.7l0.511,0l0,0.109l-0.381,0Z" style="fill:rgb(37,173,148);fill-rule:nonzero;"/>            </g>            <g transform="matrix(58.9832,0,0,73.5623,404.113,460.498)">                <rect x="0.094" y="-0.7" width="0.13" height="0.7" style="fill:rgb(37,173,148);fill-rule:nonzero;"/>            </g>            <g transform="matrix(58.9832,0,0,73.5623,431.345,460.498)">                <path d="M0.716,-0.7l0,0.7l-0.107,0l-0.386,-0.474l0,0.474l-0.129,0l0,-0.7l0.107,0l0.386,0.474l0,-0.474l0.129,0Z" style="fill:rgb(37,173,148);fill-rule:nonzero;"/>            </g>            <g transform="matrix(58.9832,0,0,73.5623,487.538,460.498)">                <path d="M0.548,-0.162l-0.35,0l-0.069,0.162l-0.134,0l0.315,-0.7l0.128,0l0.316,0.7l-0.136,0l-0.07,-0.162Zm-0.043,-0.102l-0.132,-0.306l-0.131,0.306l0.263,0Z" style="fill:rgb(37,173,148);fill-rule:nonzero;"/>            </g>            <g transform="matrix(58.9832,0,0,73.5623,540.133,460.498)">                <path d="M0.716,-0.7l0,0.7l-0.107,0l-0.386,-0.474l0,0.474l-0.129,0l0,-0.7l0.107,0l0.386,0.474l0,-0.474l0.129,0Z" style="fill:rgb(37,173,148);fill-rule:nonzero;"/>            </g>            <g transform="matrix(58.9832,0,0,73.5623,596.326,460.498)">                <path d="M0.418,0.01c-0.071,0 -0.134,-0.016 -0.191,-0.047c-0.057,-0.031 -0.102,-0.073 -0.134,-0.128c-0.033,-0.055 -0.049,-0.116 -0.049,-0.185c0,-0.069 0.016,-0.13 0.049,-0.185c0.033,-0.055 0.078,-0.098 0.135,-0.129c0.057,-0.031 0.12,-0.046 0.191,-0.046c0.057,0 0.11,0.01 0.157,0.03c0.047,0.02 0.087,0.049 0.12,0.087l-0.084,0.079c-0.051,-0.055 -0.113,-0.082 -0.187,-0.082c-0.048,0 -0.091,0.01 -0.129,0.031c-0.038,0.021 -0.068,0.051 -0.089,0.088c-0.021,0.037 -0.032,0.08 -0.032,0.127c0,0.047 0.011,0.09 0.032,0.127c0.021,0.037 0.051,0.066 0.089,0.087c0.038,0.021 0.081,0.032 0.129,0.032c0.074,0 0.136,-0.028 0.187,-0.083l0.084,0.08c-0.033,0.038 -0.073,0.067 -0.12,0.087c-0.048,0.02 -0.101,0.03 -0.158,0.03Z" style="fill:rgb(37,173,148);fill-rule:nonzero;"/>            </g>            <g transform="matrix(58.9832,0,0,73.5623,647.623,460.498)">                <path d="M0.619,-0.109l0,0.109l-0.525,0l0,-0.7l0.511,0l0,0.109l-0.381,0l0,0.182l0.338,0l0,0.107l-0.338,0l0,0.193l0.395,0Z" style="fill:rgb(37,173,148);fill-rule:nonzero;"/>            </g>        </g>    </g></svg>