<?xml version="1.0" encoding="UTF-8" standalone="no"?><!DOCTYPE svg PUBLIC "-//W3C//DTD SVG 1.1//EN" "http://www.w3.org/Graphics/SVG/1.1/DTD/svg11.dtd"><svg width="100%" height="100%" viewBox="0 0 1024 512" version="1.1" xmlns="http://www.w3.org/2000/svg" xmlns:xlink="http://www.w3.org/1999/xlink" xml:space="preserve" style="fill-rule:evenodd;clip-rule:evenodd;stroke-linejoin:round;stroke-miterlimit:2;"><title>MoneyThing</title><desc>MoneyThing was a lending platform and part of the fastest growing sector in the alternative banking sector. They arrange secure lending of money to British businesses, funded by individuals and businesses that are looking for a better return on capital.</desc>    <g id="moneything-512x256.svg" transform="matrix(2.21758,0,0,2.21758,-55.6572,-27.8729)">        <path d="M69.14,132.68c-0.19,-1.82 -0.38,-4.59 -0.69,-8.23c-0.472,2.948 -1.14,5.861 -2,8.72l-5.15,17.29l-9.64,0l-5.15,-17.29c-0.86,-2.859 -1.528,-5.772 -2,-8.72c-0.25,3.08 -0.44,5.84 -0.69,8.23l-1.94,17.79l-15.88,0l7.7,-44.94l16.65,0l3.17,11.1c1.408,4.277 2.413,8.676 3,13.14l0.25,0c0.679,-4.515 1.726,-8.966 3.13,-13.31l3.33,-10.94l16.62,0l7.15,44.95l-15.87,0l-1.99,-17.79Z" style="fill:rgb(140,191,68);fill-rule:nonzero;"/>        <path d="M120.14,128c0,-5.22 -3.17,-8.55 -7.54,-8.55c-4.37,0 -7.6,3.32 -7.6,8.55c0,5.23 3.17,8.49 7.61,8.49c4.44,0 7.54,-3.27 7.54,-8.49m9.59,16.79c-9.618,9.022 -24.793,8.995 -34.38,-0.06c-8.995,-9.275 -8.995,-24.225 0,-33.5c9.643,-8.999 24.797,-8.999 34.44,0c9.022,9.296 8.995,24.296 -0.06,33.56" style="fill:rgb(140,191,68);fill-rule:nonzero;"/>        <path d="M140.86,105.53l15.86,0l14,23.51c-0.354,-2.363 -0.521,-4.751 -0.5,-7.14l0,-16.37l15.58,0l0,44.94l-16,0l-13.83,-23.32c0.352,2.363 0.519,4.751 0.5,7.14l0,16.19l-15.61,0l0,-44.95Z" style="fill:rgb(140,191,68);fill-rule:nonzero;"/>        <path d="M192.72,105.53l30.04,0l0,12.19l-14.2,0l0,4.34l12.88,0l0,11.5l-12.88,0l0,4.71l14.58,0l0,12.2l-30.42,0l0,-44.94Z" style="fill:rgb(140,191,68);fill-rule:nonzero;"/>        <path d="M242,130.62l-15,-25.08l18.41,0l3.77,8.72c0.508,1.211 0.949,2.45 1.32,3.71c0.391,-1.261 0.852,-2.5 1.38,-3.71l3.71,-8.72l18.3,0l-15.6,25.08l0,19.83l-16.29,0l0,-19.83Z" style="fill:rgb(140,191,68);fill-rule:nonzero;"/>        <path d="M285.94,119.17l-9.62,0l2.57,-13.64l35.33,0l-2.51,13.64l-9.31,0l-5.78,31.3l-16.47,0l5.79,-31.3Z" style="fill:rgb(28,117,187);fill-rule:nonzero;"/>        <path d="M320.44,105.53l16.28,0l-2.83,15.52l8.87,0l2.83,-15.52l16.33,0l-8.36,44.94l-16.27,0l3.02,-16.15l-8.87,0l-3.01,16.15l-16.28,0l8.29,-44.94Z" style="fill:rgb(28,117,187);fill-rule:nonzero;"/>        <path d="M369.28,105.53l16.53,0l-8.3,44.94l-16.52,0l8.29,-44.94Z" style="fill:rgb(28,117,187);fill-rule:nonzero;"/>        <path d="M393.17,105.53l16.42,0l5.15,14.27c1.163,2.956 2.092,5.999 2.78,9.1l4.34,-23.38l16.28,0l-8.27,44.94l-16.46,0l-8.3,-23.2c-0.243,3.568 -0.724,7.116 -1.44,10.62l-2.32,12.57l-16.48,0l8.3,-44.92Z" style="fill:rgb(28,117,187);fill-rule:nonzero;"/>        <path d="M462,151.55c-13.7,0 -22.56,-8.72 -22.56,-21.05c-0.132,-6.339 2.06,-12.513 6.16,-17.35c4.76,-5.65 11.9,-8.72 20,-8.72c9.62,0 16.4,3.89 20.36,11.5l-14.55,5.39c-1.381,-2.068 -3.746,-3.272 -6.23,-3.17c-5.72,0 -9.68,4.65 -9.68,11.25c0,5.55 3.52,9.18 8.92,9.18c0.777,-0.003 1.553,-0.067 2.32,-0.19l0.79,-4.4l-5.84,0l1.89,-10.18l21.42,0l-3.89,21.36c-6.16,4.27 -12.44,6.42 -19.1,6.42" style="fill:rgb(28,117,187);fill-rule:nonzero;"/>    </g></svg>