<?xml version="1.0" encoding="UTF-8" standalone="no"?><!DOCTYPE svg PUBLIC "-//W3C//DTD SVG 1.1//EN" "http://www.w3.org/Graphics/SVG/1.1/DTD/svg11.dtd"><svg width="100%" height="100%" viewBox="0 0 1024 512" version="1.1" xmlns="http://www.w3.org/2000/svg" xmlns:xlink="http://www.w3.org/1999/xlink" xml:space="preserve" style="fill-rule:evenodd;clip-rule:evenodd;stroke-linejoin:round;stroke-miterlimit:2;"><title>Viventor</title><desc>In Viventor, we believe everyone should be given access to invest their money in the financial products of today. Our mission is to enable cross-border investing for every European by building a remarkable platform for investors that lets you invest in different countries, loan types and Loan Originators.</desc>    <g id="viventor-512x256.svg" transform="matrix(2.21753,0,0,2.21753,-55.7215,-27.9772)">        <path d="M277.08,149.36c-0.338,-1.391 -0.496,-2.819 -0.47,-4.25l27.19,0c1.405,0.097 2.798,-0.326 3.91,-1.19c1.11,-1 1.65,-2.51 1.65,-4.75c0,-4.77 -2.06,-8.19 -5.63,-10.14c-2.35,-1.29 -9.33,-1.72 -12.9,-1.72c-6.69,0 -12.72,0.1 -15.54,2.65c-1.867,1.657 -3.171,3.857 -3.73,6.29c-0.439,2.199 -0.633,4.439 -0.58,6.68c-0.042,2.042 0.072,4.085 0.34,6.11c0.288,1.99 1.069,3.877 2.27,5.49c2.056,2.685 5.301,4.203 8.68,4.06l27.2,0l0,-5.17l-27.2,0c-2.75,0 -4.4,-1.29 -5.19,-4.07m0.79,-14.33c0.68,-1.13 1.27,-1.57 3,-2.22c0.37,-0.14 2.18,-0.59 10,-0.59c3.35,0 9.7,0.16 11.16,2.06c1.118,1.441 1.702,3.227 1.65,5.05c0.002,0.205 -0.018,0.409 -0.06,0.61l-27,0c0.022,-1.704 0.425,-3.382 1.18,-4.91" style="fill:rgb(23,28,31);fill-rule:nonzero;"/>        <path d="M352.65,127.06l-23.38,0c-1.459,-0.109 -2.888,0.477 -3.85,1.58c-0.705,1.021 -1.041,2.253 -0.95,3.49l0,26.47l5.44,0l0,-26.37l22.89,0c1.78,0 3,0.43 3.68,1.31c0.44,0.56 1,1.77 1,4.38l0,20.68l5.44,0l0,-21.4c0,-3.33 -0.86,-5.87 -2.57,-7.58c-1.71,-1.71 -4.29,-2.56 -7.69,-2.56" style="fill:rgb(23,28,31);fill-rule:nonzero;"/>        <path d="M383.07,152.95c-0.578,-0.587 -0.908,-1.376 -0.92,-2.2c-0.137,-1.245 -0.187,-2.498 -0.15,-3.75l0,-14.77l21,0l0,-5.17l-21,0l0,-9.28l-5.44,0l0,29.8c0,4.48 0.77,7.41 2.35,8.94c1.096,1.045 2.498,1.711 4,1.9c1.298,0.147 2.604,0.208 3.91,0.18l16.51,0l0,-5.16l-15.86,0c-3.59,0 -4.32,-0.43 -4.4,-0.49" style="fill:rgb(23,28,31);fill-rule:nonzero;"/>        <path d="M435,126.41c-3.94,0 -12.24,0.75 -15.08,3.54c-2.65,2.61 -4,6.78 -4,12.39c0,5.61 1.34,10 4,12.61c2.93,2.88 11.18,3.65 15.08,3.65c3.9,0 12.15,-0.77 15.08,-3.65c2.65,-2.61 4,-6.85 4,-12.61c0,-5.76 -1.34,-9.78 -4,-12.39c-2.84,-2.79 -11.14,-3.54 -15.08,-3.54m-11.4,7.35c1.06,-1.19 6.75,-2.19 11.4,-2.19c4.65,0 10.33,1 11.4,2.19c1.32,1.47 2,4.53 2,8.85c0,4.16 -0.68,7 -2,8.45c-1.32,1.45 -6.8,2.37 -11.41,2.37c-4.61,0 -10.21,-1.06 -11.41,-2.36c-1.34,-1.46 -2,-4.3 -2,-8.46c0,-4.32 0.7,-7.38 2,-8.85" style="fill:rgb(23,28,31);fill-rule:nonzero;"/>        <path d="M482.06,127.06c-3.32,0 -7.8,0.86 -9.78,2.77c-1.98,1.91 -2.91,4.69 -2.91,8.47l0,20.3l5.44,0l0,-19.6c0,-3.13 0.64,-4.54 1.17,-5.17c0.7,-0.83 3.64,-1.56 6.31,-1.56l3.71,0l0,-5.16l-3.94,-0.05Z" style="fill:rgb(23,28,31);fill-rule:nonzero;"/>        <rect x="195.54" y="126.56" width="5.22" height="31.89" style="fill:rgb(23,28,31);"/>        <path d="M218.36,127.04l-5.93,0l18.41,27.58l2.99,-4.54l-15.47,-23.04Z" style="fill:rgb(23,28,31);fill-rule:nonzero;"/>        <path d="M254.09,127l-8.37,12.47l-12.14,18.13c1.158,0.756 2.587,0.979 3.92,0.61c1.509,-0.474 2.792,-1.49 3.6,-2.85l18.9,-28.36l-5.91,0Z" style="fill:rgb(23,28,31);fill-rule:nonzero;"/>        <path d="M142.15,127.04l-5.92,0l18.4,27.58l3,-4.54l-15.48,-23.04Z" style="fill:rgb(23,28,31);fill-rule:nonzero;"/>        <path d="M177.89,127l-8.37,12.47l-12.14,18.13c0.423,0.266 0.88,0.471 1.36,0.61c0.84,0.209 1.72,0.209 2.56,0c1.509,-0.474 2.792,-1.49 3.6,-2.85l18.91,-28.36l-5.92,0Z" style="fill:rgb(23,28,31);fill-rule:nonzero;"/>        <path d="M79.19,152.15c-2.053,-0.022 -3.73,-1.717 -3.73,-3.77c0,-0.802 0.256,-1.583 0.73,-2.23l40.71,-55c0.716,-0.861 1.779,-1.36 2.899,-1.36c2.068,0 3.77,1.702 3.77,3.77c0,0.735 -0.215,1.455 -0.619,2.07l-40.73,55c-0.703,0.952 -1.816,1.52 -3,1.53" style="fill:rgb(255,214,33);fill-rule:nonzero;"/>        <path d="M51.51,163.32c-2.053,-0.022 -3.73,-1.717 -3.73,-3.77c0,-0.802 0.256,-1.583 0.73,-2.23l26,-35.08c0.716,-0.861 1.779,-1.36 2.899,-1.36c2.068,0 3.77,1.702 3.77,3.77c0,0.735 -0.215,1.455 -0.619,2.07l-26,35.08c-0.705,0.95 -1.817,1.514 -3,1.52" style="fill:rgb(23,28,31);fill-rule:nonzero;"/>        <path d="M29.76,166.33c-2.053,-0.022 -3.73,-1.717 -3.73,-3.77c0,-0.802 0.256,-1.583 0.73,-2.23l18.93,-25.26c0.696,-1.06 1.883,-1.7 3.151,-1.7c2.068,0 3.77,1.702 3.77,3.77c0,0.88 -0.308,1.733 -0.871,2.41l-18.95,25.25c-0.701,0.955 -1.815,1.523 -3,1.53" style="fill:rgb(255,214,33);fill-rule:nonzero;"/>    </g></svg>