<?xml version="1.0" encoding="UTF-8" standalone="no"?><!DOCTYPE svg PUBLIC "-//W3C//DTD SVG 1.1//EN" "http://www.w3.org/Graphics/SVG/1.1/DTD/svg11.dtd"><svg width="100%" height="100%" viewBox="0 0 1024 512" version="1.1" xmlns="http://www.w3.org/2000/svg" xmlns:xlink="http://www.w3.org/1999/xlink" xml:space="preserve" style="fill-rule:evenodd;clip-rule:evenodd;stroke-linejoin:round;stroke-miterlimit:2;"><title>ZAAR</title><desc>ZAAR is a donation/reward-based crowdfunding platform,to promote entrepreneurship in Malta and support local start-ups. ZAAR offers an alternative to raise finance for their projects and business ideas. Local platform available worldwide.</desc>    <g transform="matrix(1.53535,0,0,1.53535,-206.025,-182.909)">        <g transform="matrix(4.93689,0,0,4.93689,504.272,364.951)">            <path d="M0,-32.037l0.091,7.082c0,0 0.004,0.392 -0.085,0.612c-0.171,0.427 -0.899,0.448 -0.899,0.448c0,0 -1.692,0.18 -3.132,0.329c-1.754,0.21 -3.988,0.463 -3.988,0.463c0,-0 1.624,-0.227 2.718,-0.909c1.141,-0.711 1.621,-1.77 1.621,-1.77l3.674,-6.255Zm-26.707,8.356c0,0 -0.466,1.289 0.424,1.993c0.853,0.675 2.29,0.422 2.29,0.422l-7.364,0.858l5.676,-6.218l-1.026,2.945Zm61.456,-1.524c-0.719,0.778 -1.627,1.515 -2.704,2.176c-0.811,0.499 -1.685,0.893 -2.565,1.204l0.228,-4.567c0,-0 3.476,-0.224 5.041,1.187m0.637,-8.942c-3.745,-2.904 -11.666,-2.234 -11.666,-2.234l-1.572,17.086c0,-0 6.081,0.206 10.59,-2.565c6.042,-3.714 6.702,-9.143 2.648,-12.287m10.838,9.553c-2.276,3.557 -6.544,6.583 -6.544,6.583l11.781,12.644c-0,-0 -2.962,1.667 -7.413,1.589c-5.187,-0.09 -7.545,-3.177 -7.545,-3.177l-6.024,-7.678c0,-0 -2.382,0.464 -4.037,0.662c-1.654,0.198 -4.832,0.264 -4.832,0.264l-0.592,7.646c-0.013,0.134 -0.019,0.27 -0.019,0.408c-0,0.29 0.036,0.635 0.09,0.909c-0,-0 -4.939,0.106 -9.771,0.271c-4.832,0.166 -11.339,0.512 -11.339,0.512c0.167,-0.462 0.258,-0.96 0.258,-1.477l-0.072,-11.717c-0,-0 0.02,-0.642 -0.258,-0.887c-0.227,-0.201 -0.57,-0.198 -0.57,-0.198c-0,-0 -2.144,0.178 -5.023,0.344c-2.879,0.166 -6.758,0.484 -6.758,0.484c0,-0 1.406,0.075 2.07,1.224c0.545,0.943 -0.051,1.986 -0.051,1.986l-5.263,9.059c-0.392,0.652 -0.618,1.414 -0.618,2.228c-0,-0 -1.598,0.097 -4.609,0.362c-3.012,0.264 -7.248,0.728 -7.248,0.728l8.29,-12.999c-0,-0 0.623,-0.94 1.44,-1.496c0.728,-0.497 1.96,-0.745 1.96,-0.745l-0.993,0.082l-6.122,0.563c-0,-0 0.488,-0.017 0.966,0.05c0.478,0.065 0.846,0.165 0.846,0.165l-0.937,3.064l-7.635,0.791l0.313,-0.761c0.776,-1.983 2.51,-2.873 4.616,-3.101c-0,-0 -0.163,0.007 -4.266,0.47c-4.104,0.464 -5.974,0.679 -5.974,0.679l-3.322,3.697l-9.079,1.312l21.469,-22.805c2.116,-2.335 2.265,-2.894 2.265,-3.669l4.066,-0.335c-0,-0 2.157,-0.153 3.375,1.091c1.071,1.094 0.629,2.35 0.629,2.35l-3.737,11.66l3.508,-0.415l1.444,-0.176l11.384,-17.944c0.45,-0.688 0.742,-1.499 0.742,-2.38c-0,-0.128 -0.006,-0.255 -0.017,-0.381l5.612,0.03c-0,-0 2.821,-0.009 4.75,1.407c1.869,1.373 1.869,3.16 1.869,3.16l1.159,28.808c-0,-0 0.098,2.434 0.116,2.715c0.033,0.528 0.281,1.091 0.281,1.091c-0,-0 0.133,-0.346 0.232,-0.761c0.072,-0.305 0.181,-0.942 0.181,-0.942l3.152,-34.124c0.012,-0.135 0.018,-0.272 0.018,-0.409c-0,-0.29 -0.028,-0.573 -0.082,-0.848l19.499,0.367c-0,-0 7.943,-0.107 12.312,5.03c3.069,3.611 2.504,9.115 0.057,12.94m-71.028,-15.221c-0.533,2.155 -2.11,3.765 -2.11,3.765l-27.675,28.544c0,-0 7.364,-1.282 14.354,-2.276c6.992,-0.992 16.61,-1.881 16.61,-1.881l-5.544,8.687c0,-0 -7.334,0.756 -20.042,2.668c-11.663,1.754 -21.759,4.427 -21.759,4.427c0,-0 -2.762,-1.961 -2.366,-6.14c0.297,-3.143 3.317,-5.981 3.317,-5.981l28.089,-24.664c0,-0 -3.707,0.464 -10.061,1.291c-6.354,0.828 -9.597,1.589 -9.597,1.589c0,-0 -1.009,0.198 -1.523,-0.431c-0.415,-0.509 -0.165,-1.058 -0.165,-1.058l2.546,-7.902c0.142,-0.455 0.218,-0.94 0.218,-1.441c0,-0.389 -0.046,-0.767 -0.133,-1.13c0,-0 10.399,-0.466 17.639,-0.673c7.24,-0.206 18.285,-0.454 18.285,-0.454c0,-0 0.347,1.324 -0.083,3.06m79.25,18.193c1.338,-4.12 0.533,-7.874 -1.874,-10.702l-5.398,-6.067l0,-0.001c-4.542,-5.343 -12.4,-5.496 -13.281,-5.496l-0.027,-0l-21.704,-0.407c0.587,0.555 0.953,1.34 0.953,2.212c0,0.097 -0.005,0.193 -0.014,0.287l-0.003,0.024l-0.32,3.482l-3.434,-3.333c-0.307,-0.371 -0.679,-0.733 -1.131,-1.065c-2.201,-1.617 -5.196,-1.663 -5.527,-1.663l-7.448,-0.034c0.329,0.487 0.523,1.075 0.523,1.708c0,0.579 -0.161,1.119 -0.442,1.579l-5.945,9.344l-13.08,-12.468l-1.045,0.023c-0.111,0.003 -11.132,0.251 -18.292,0.456c-7.168,0.204 -19.543,0.786 -19.654,0.791c0.548,0.623 0.88,1.439 0.88,2.334c0,0.366 -0.056,0.72 -0.159,1.052l-2.543,7.833c-0.239,0.605 -0.274,1.548 0.383,2.353c0.061,0.075 0.126,0.146 0.196,0.212c0.068,0.065 0.141,0.127 0.217,0.185l0.002,0.002l0.001,-0l-0.001,-0l7.445,7.15l-14.633,12.849l-0.017,0.016c-0.137,0.129 -3.387,3.221 -3.728,6.821c-0.463,4.883 2.779,7.245 2.918,7.343l0.505,0.359l8.874,6.791c2.401,-0.608 10.992,-2.709 20.569,-4.148c8.457,-1.273 14.029,-1.972 16.716,-2.288l1.046,1.093c0.073,-0.008 5.353,-0.606 10.522,-1.052c2.886,-0.249 5.317,-0.432 5.378,-0.437c-0.151,-0.357 -0.235,-0.751 -0.235,-1.164c0,-0.562 0.156,-1.087 0.427,-1.538l0.005,0.004l5.173,-11.555c0.087,-0.152 0.76,-1.399 0.276,-2.753l1.356,-0.097l0.037,6.149c0,1.458 -1.026,2.678 -2.396,2.976l6.417,7.26c0.111,-0.006 9.903,-0.515 14.582,-0.676c4.683,-0.161 9.367,-0.265 9.415,-0.266l1.548,-0.033l-0.3,-1.519c-0.039,-0.197 -0.064,-0.448 -0.064,-0.641c0,-0.093 0.004,-0.187 0.013,-0.28l0.002,-0.021l0.459,-8.91c2.13,-0.098 3.783,-0.465 5.064,-0.894l2.103,2.708l5.429,6.92c0.205,0.264 2.864,3.522 8.412,3.619c0.107,0.002 0.215,0.003 0.321,0.003c4.493,-0 7.492,-1.658 7.621,-1.73l1.44,-0.811l0.889,-0.571l-12.756,-13.682c3.506,-2.674 6.157,-6.014 7.334,-9.636" style="fill:rgb(35,39,33);fill-rule:nonzero;"/>        </g>        <g transform="matrix(4.93689,0,0,4.93689,381.816,370.17)">            <path d="M0,-40.871c-0.533,2.154 -2.11,3.764 -2.11,3.764l-27.675,28.544c0,-0 7.364,-1.283 14.355,-2.275c6.991,-0.994 16.609,-1.883 16.609,-1.883l-5.544,8.687c-0,-0 -7.333,0.758 -20.041,2.669c-11.664,1.753 -21.76,4.426 -21.76,4.426c-0,0 -2.762,-1.961 -2.367,-6.138c0.299,-3.145 3.318,-5.983 3.318,-5.983l28.089,-24.664c-0,0 -3.706,0.464 -10.061,1.292c-6.354,0.827 -9.597,1.588 -9.597,1.588c-0,0 -1.01,0.199 -1.523,-0.43c-0.415,-0.509 -0.165,-1.06 -0.165,-1.06l2.546,-7.901c0.142,-0.455 0.219,-0.938 0.219,-1.44c-0,-0.39 -0.046,-0.768 -0.134,-1.131c0,-0 10.4,-0.464 17.64,-0.672c7.238,-0.206 18.284,-0.454 18.284,-0.454c-0,-0 0.348,1.323 -0.083,3.061" style="fill:rgb(252,181,21);fill-rule:nonzero;"/>        </g>        <g transform="matrix(4.93689,0,0,4.93689,665.894,251.299)">            <path d="M0,1.16c-4.508,2.772 -10.589,2.565 -10.589,2.565l1.571,-17.085c0,-0 7.921,-0.67 11.666,2.234c4.055,3.144 3.394,8.573 -2.648,12.286m-32.647,-3.094c0,-0 0.004,0.392 -0.084,0.612c-0.172,0.427 -0.901,0.447 -0.901,0.447c0,-0 -1.691,0.181 -3.131,0.33c-1.754,0.21 -3.987,0.463 -3.987,0.463c0,-0 1.623,-0.227 2.717,-0.909c1.142,-0.711 1.622,-1.771 1.622,-1.771l3.673,-6.254l0.091,7.082Zm-24.083,3.69c0,-0 -0.102,0.017 -0.264,0.031l-7.102,0.826l5.677,-6.218l-1.026,2.945c0,-0 -0.466,1.289 0.424,1.993c0.629,0.497 1.573,0.491 2.027,0.454l0.264,-0.031Zm70.217,-3.329c2.446,-3.825 3.011,-9.33 -0.058,-12.94c-4.369,-5.138 -12.312,-5.031 -12.312,-5.031l-19.499,-0.366c0.055,0.274 0.083,0.558 0.083,0.848c0,0.137 -0.006,0.274 -0.02,0.409l-3.15,34.124c0,-0 -0.109,0.637 -0.183,0.942c-0.099,0.414 -0.231,0.761 -0.231,0.761c0,0 -0.248,-0.562 -0.281,-1.091c-0.018,-0.281 -0.116,-2.714 -0.116,-2.714l-1.158,-28.808c0,-0 0,-1.788 -1.87,-3.161c-1.929,-1.417 -4.749,-1.407 -4.749,-1.407l-5.612,-0.029c0.01,0.125 0.016,0.252 0.016,0.38c0,0.881 -0.291,1.692 -0.742,2.379l-11.384,17.945l-1.444,0.177l-3.507,0.413l3.736,-11.659c0,-0 0.442,-1.255 -0.629,-2.35c-1.218,-1.244 -3.376,-1.092 -3.376,-1.092l-4.065,0.335c0,0.776 -0.149,1.334 -2.264,3.67l-21.47,22.806l9.079,-1.313l3.322,-3.697c-0,-0 1.87,-0.215 5.973,-0.679c4.105,-0.462 4.267,-0.471 4.267,-0.471c-2.106,0.228 -3.84,1.119 -4.617,3.102l-0.311,0.761l7.633,-0.791l0.938,-3.063c-0,-0 -0.368,-0.1 -0.846,-0.166c-0.478,-0.066 -0.965,-0.05 -0.965,-0.05l6.122,-0.562l0.992,-0.083c-0,0 -1.232,0.247 -1.96,0.744c-0.818,0.558 -1.44,1.498 -1.44,1.498l-8.29,12.998c-0,0 4.236,-0.464 7.248,-0.729c3.012,-0.264 4.609,-0.362 4.609,-0.362c-0,-0.813 0.226,-1.576 0.619,-2.227l5.262,-9.06c-0,-0 0.596,-1.043 0.051,-1.985c-0.663,-1.149 -2.069,-1.225 -2.069,-1.225c-0,-0 3.879,-0.317 6.758,-0.483c2.879,-0.166 5.023,-0.344 5.023,-0.344c-0,-0 0.341,-0.003 0.569,0.198c0.278,0.245 0.259,0.887 0.259,0.887l0.07,11.716c-0,0.519 -0.09,1.015 -0.257,1.477c-0,-0 6.508,-0.345 11.339,-0.511c4.832,-0.166 9.771,-0.271 9.771,-0.271c-0.053,-0.275 -0.09,-0.618 -0.09,-0.909c-0,-0.138 0.007,-0.274 0.019,-0.409l0.592,-7.644c-0,-0 3.178,-0.066 4.832,-0.265c1.655,-0.199 4.038,-0.662 4.038,-0.662l6.023,7.677c-0,-0 2.358,3.087 7.546,3.178c4.451,0.078 7.413,-1.589 7.413,-1.589l-11.782,-12.644c-0,-0 4.269,-3.025 6.545,-6.583" style="fill:rgb(252,181,21);fill-rule:nonzero;"/>        </g>    </g></svg>