<?xml version="1.0" encoding="UTF-8" standalone="no"?><!DOCTYPE svg PUBLIC "-//W3C//DTD SVG 1.1//EN" "http://www.w3.org/Graphics/SVG/1.1/DTD/svg11.dtd"><svg width="100%" height="100%" viewBox="0 0 1024 512" version="1.1" xmlns="http://www.w3.org/2000/svg" xmlns:xlink="http://www.w3.org/1999/xlink" xml:space="preserve" style="fill-rule:evenodd;clip-rule:evenodd;stroke-linejoin:round;stroke-miterlimit:2;"><title>Crowd For Angels</title><desc>Established in 2014, Crowd for Angels is a leading UK crowdfunding platform that raises funds for companies through the issue of shares (equity), crowd bonds (debt) and digitalised assets (cryptocurrency) to investors. Based in the heart of the City of London, we are authorised and regulated by the Financial Conduct Authority (FCA).</desc>    <g id="Layer-1" transform="matrix(4.0159,0,0,4.0159,-126.794,-136.225)">        <g transform="matrix(1,0,0,1,218.342,60.8657)">            <path d="M0,59.223c1.221,-7.193 4.35,-13.434 9.354,-18.734c5.053,-5.347 11.243,-9.071 17.758,-12.298c5.612,-2.78 11.318,-5.38 16.895,-8.223c9.45,-4.815 18.076,-10.608 23.118,-20.581c0.272,1.217 0.196,1.701 -0.584,3.787c-2.993,8.014 -8.358,14.12 -15.25,19.013c-6.208,4.404 -13.059,7.631 -19.845,10.981c-7.537,3.722 -15.028,7.501 -21.351,13.192c-4.219,3.801 -7.526,8.259 -9.817,13.463c-0.548,0.013 -0.357,-0.319 -0.278,-0.6" style="fill:rgb(27,121,166);"/>        </g>        <g transform="matrix(1,0,0,1,99.7783,61.0563)">            <path d="M0,61.071c-3.992,-9.289 -11.094,-15.615 -19.583,-20.65c-6.15,-3.646 -12.666,-6.575 -19.021,-9.816c-6.766,-3.456 -13.369,-7.174 -18.785,-12.629c-4.813,-4.847 -8.428,-10.409 -9.875,-17.2c-0.041,-0.184 -0.047,-0.378 0.159,-0.776c0.06,0.15 0.106,0.303 0.179,0.446c3.918,7.863 10.3,13.265 17.696,17.632c6.403,3.787 13.246,6.699 19.91,9.965c6.467,3.169 12.787,6.581 18.141,11.517c6.169,5.688 10.044,12.629 11.424,20.931c0.09,0.265 0.262,0.565 -0.245,0.58" style="fill:rgb(27,121,166);"/>        </g>        <g transform="matrix(1,0,0,1,138.056,114.953)">            <path d="M0,14.863l0,-13.152c0,-1.933 0.049,-3.872 -0.019,-5.803c-0.041,-1.137 0.561,-1.232 1.448,-1.223c0.899,0 1.604,-0.006 1.599,1.233c-0.028,7.492 -0.015,14.987 -0.014,22.481c0,0.729 -0.149,1.498 -0.994,1.494c-1.212,-0.008 -2.638,0.618 -3.461,-0.988c-1.649,-3.222 -3.354,-6.408 -5.037,-9.612c-1.572,-2.986 -3.14,-5.971 -4.721,-8.952c-0.122,-0.228 -0.169,-0.557 -0.544,-0.633c-0.334,0.438 -0.156,0.932 -0.16,1.377c-0.016,5.8 -0.036,11.602 0.015,17.402c0.011,1.15 -0.328,1.51 -1.481,1.502c-1.113,-0.01 -1.506,-0.268 -1.501,-1.464c0.057,-7.297 0.028,-14.597 0.035,-21.9c0,-0.749 -0.192,-1.609 0.857,-1.894c1.385,-0.379 3.019,0.014 3.489,0.898c1.932,3.616 3.839,7.243 5.75,10.869c1.48,2.809 2.947,5.621 4.421,8.434c0.106,-0.022 0.212,-0.046 0.318,-0.069" style="fill:rgb(27,121,166);"/>        </g>        <g transform="matrix(1,0,0,1,285.641,102.977)">            <path d="M0,-32.066c-2.513,8.243 -6.718,15.477 -13.037,21.407c-7.808,7.328 -17.47,10.659 -29.022,9.942c17.403,-5.902 31.431,-16.276 42.059,-31.349" style="fill:rgb(27,121,166);"/>        </g>        <g transform="matrix(1,0,0,1,74.9141,73.8469)">            <path d="M0,29.608c-20.009,2.115 -36.776,-12.151 -42.356,-31.723c10.47,15.249 24.495,25.78 42.356,31.723" style="fill:rgb(27,121,166);"/>        </g>        <g transform="matrix(1,0,0,1,241.661,91.6062)">            <path d="M0,17.255c16.402,-2.444 30.225,-9.497 40.724,-23.001c-2.907,12.326 -20.049,28.747 -40.724,23.001" style="fill:rgb(27,121,166);"/>        </g>        <g transform="matrix(0.471819,-0.881695,-0.881695,-0.471819,73.8047,87.3786)">            <path d="M-18.506,-13.465c-11.372,10.743 -12.708,32.331 0.117,46.545c0.665,-0.563 0.07,-1.078 -0.117,-1.536c-3.019,-7.381 -4.525,-15.052 -4.379,-23.021c0.138,-7.488 1.717,-14.709 4.379,-21.988" style="fill:rgb(27,121,166);"/>        </g>        <g transform="matrix(1,0,0,1,161.801,116.243)">            <path d="M0,12c0,1.691 -0.014,3.38 0.01,5.069c0.009,0.645 -0.094,1.18 -0.842,1.275c-2.78,0.359 -5.599,0.776 -8.36,0.241c-3.582,-0.692 -5.726,-3.111 -6.459,-6.619c-0.778,-3.711 -0.731,-7.518 -0.138,-11.232c0.956,-5.995 5.177,-7.854 10.651,-7.493c1.251,0.085 2.494,0.305 3.742,0.335c1.392,0.035 1.497,0.859 1.382,1.915c-0.131,1.19 -1.017,0.594 -1.561,0.606c-1.495,0.035 -2.992,-0.052 -4.487,-0.072c-4.388,-0.067 -6.451,1.497 -6.871,5.817c-0.296,3.054 -0.398,6.175 0.153,9.236c0.62,3.44 2.531,4.985 5.995,4.985c3.816,0.002 3.816,0.002 3.816,-3.795c0,-1.885 0.043,-3.77 -0.017,-5.651c-0.038,-1.163 0.694,-1.06 1.433,-1.038c0.743,0.025 1.611,-0.23 1.569,1.058c-0.058,1.787 -0.016,3.575 -0.016,5.363" style="fill:rgb(27,121,166);"/>        </g>        <g transform="matrix(1,0,0,1,167.297,122.365)">            <path d="M0,-0.198c0,-2.461 -0.086,-4.93 0.024,-7.383c0.127,-2.825 1.733,-4.54 4.475,-5.069c2.932,-0.559 5.868,-0.129 8.799,-0.028c1.246,0.039 0.542,1.099 0.679,1.692c0.165,0.698 -0.237,0.899 -0.909,0.891c-2.271,-0.024 -4.541,-0.022 -6.814,0.015c-2.45,0.043 -3.31,0.888 -3.29,3.347c0.013,1.576 -0.7,3.682 0.289,4.57c0.864,0.781 2.937,0.234 4.473,0.25c1.545,0.013 3.092,0.017 4.637,-0.003c0.915,-0.016 1.665,-0.088 1.681,1.282c0.014,1.325 -0.626,1.356 -1.601,1.346c-2.755,-0.039 -5.51,0.034 -8.26,-0.041c-1.05,-0.026 -1.312,0.312 -1.259,1.303c0.08,1.543 0.002,3.094 0.028,4.639c0.032,2.338 0.88,3.24 3.234,3.302c2.315,0.06 4.637,0.036 6.954,0.016c0.595,-0.006 0.993,0.145 0.839,0.793c-0.143,0.62 0.517,1.744 -0.569,1.783c-3.077,0.101 -6.181,0.504 -9.228,-0.187c-2.707,-0.617 -4.043,-2.2 -4.161,-4.989c-0.107,-2.506 -0.024,-5.02 -0.021,-7.529" style="fill:rgb(27,121,166);"/>        </g>        <g transform="matrix(1,0,0,1,212.558,131.836)">            <path d="M0,-19.448c-1.446,0 -2.902,-0.097 -4.338,0.028c-1.212,0.108 -2.229,0.718 -2.539,2.026c-0.314,1.333 0.026,2.483 1.097,3.383c1.527,1.285 3.313,2.152 4.991,3.194c1.021,0.638 2.06,1.262 3.016,1.99c2.741,2.083 3.565,4.446 2.692,7.467c-0.726,2.494 -3.018,4.164 -6.169,4.445c-2.418,0.218 -4.816,0.015 -7.219,-0.286c-1.194,-0.149 -1.002,-0.956 -0.986,-1.709c0.017,-0.952 0.705,-0.886 1.35,-0.821c2.398,0.242 4.803,0.393 7.195,-0.05c1.45,-0.268 2.472,-1.037 2.829,-2.54c0.366,-1.545 0.031,-2.869 -1.235,-3.893c-1.806,-1.463 -3.872,-2.532 -5.842,-3.748c-1.111,-0.685 -2.211,-1.384 -3.134,-2.319c-3.258,-3.303 -1.927,-8.337 2.538,-9.594c3.102,-0.876 6.222,-0.386 9.336,-0.121c1.179,0.101 0.944,0.989 0.954,1.731c0.01,0.877 -0.593,0.815 -1.205,0.803c-1.107,-0.024 -2.221,-0.008 -3.331,-0.008l0,0.022Z" style="fill:rgb(27,121,166);"/>        </g>        <g transform="matrix(1,0,0,1,77.7144,110.143)">            <path d="M0,6.558c-12.596,6.257 -28.993,-1.56 -35.728,-12.431c0.649,-0.384 1.109,0.126 1.579,0.379c4.227,2.319 8.399,4.738 12.666,6.984c6.507,3.424 13.392,5.425 20.839,5.034c0.171,-0.009 0.344,0.017 0.644,0.034" style="fill:rgb(27,121,166);"/>        </g>        <g transform="matrix(1,0,0,1,242.186,105.427)">            <path d="M0,10.024c6.607,0.139 12.763,-1.598 18.663,-4.441c4.53,-2.179 8.717,-4.956 13.164,-7.275c0.8,-0.42 1.629,-0.794 2.521,-1.227c-1.58,4.18 -9.091,10.407 -15.585,13.029c-6.695,2.702 -13.401,2.833 -20.144,0.193c0.322,-0.783 0.906,-0.256 1.381,-0.279" style="fill:rgb(27,121,166);"/>        </g>        <g transform="matrix(1,0,0,1,189.004,124.641)">            <path d="M0,-4.365c0,2.945 -0.03,5.89 0.011,8.836c0.036,2.284 0.861,3.106 3.177,3.167c2.22,0.061 4.443,0.017 6.664,0.031c0.544,0.003 1.271,-0.192 1.188,0.765c-0.059,0.68 0.406,1.623 -0.904,1.706c-3.075,0.186 -6.156,0.534 -9.215,-0.103c-2.173,-0.449 -3.407,-1.845 -3.815,-4.018c-0.177,-0.955 -0.231,-1.913 -0.231,-2.881c0.006,-5.505 0.025,-11.01 -0.014,-16.515c-0.007,-1.128 0.234,-1.647 1.514,-1.654c1.302,-0.008 1.662,0.441 1.632,1.683c-0.073,2.991 -0.023,5.987 -0.023,8.983l0.016,0Z" style="fill:rgb(27,121,166);"/>        </g>        <g transform="matrix(1,0,0,1,147.64,98.5021)">            <path d="M0,-2.074c-0.637,2.417 -1.308,4.828 -1.903,7.258c-0.28,1.145 -0.798,1.739 -2.095,1.68c-1.315,-0.053 -1.41,-0.93 -1.561,-1.847c-0.687,-4.184 -1.345,-8.377 -2.055,-12.553c-0.165,-0.976 -0.012,-1.459 1.112,-1.336c0.735,0.08 0.647,0.602 0.714,1.044c0.565,3.623 1.115,7.242 1.674,10.864c0.094,0.62 0.202,1.234 0.343,2.106c0.759,-1.473 0.866,-2.902 1.295,-4.221c0.343,-1.052 0.63,-2.131 0.829,-3.218c0.198,-1.08 0.685,-1.546 1.844,-1.548c1.189,0 1.563,0.568 1.807,1.596c0.538,2.273 1.184,4.518 1.896,7.191c0.713,-1.686 0.715,-3.069 0.934,-4.39c0.458,-2.757 0.842,-5.528 1.22,-8.298c0.119,-0.895 0.539,-1.251 1.436,-1.114c1.035,0.164 0.511,0.863 0.438,1.334c-0.687,4.285 -1.418,8.561 -2.099,12.846c-0.148,0.927 -0.435,1.497 -1.513,1.54c-1.096,0.043 -1.741,-0.335 -2.014,-1.4c-0.576,-2.24 -1.176,-4.471 -1.756,-6.711c-0.081,-0.323 -0.048,-0.693 -0.546,-0.823" style="fill:rgb(27,121,166);"/>        </g>        <g transform="matrix(-0.758819,0.651301,0.651301,0.758819,80.6427,124.658)">            <path d="M8.516,-13.315c-2.003,10.551 -2.783,12.013 -6.896,13.034c2.313,2.188 5.043,1.948 6.896,-0.599c1.459,-2 2.243,-4.283 2.519,-6.696c0.264,-2.262 -0.757,-4.109 -2.519,-5.739" style="fill:rgb(27,121,166);"/>        </g>        <g transform="matrix(1,0,0,1,252.876,129.146)">            <path d="M0,-10.422c0.284,3.226 -0.72,5.604 -3.316,7.262c-1.305,0.836 -2.621,1.614 -4.11,2.084c-3.422,1.076 -5.571,-0.151 -6.441,-3.831c3.923,2.092 6.953,0.115 9.884,-2.086c1.34,-1.004 2.547,-2.184 3.983,-3.429" style="fill:rgb(27,121,166);"/>        </g>        <g transform="matrix(1,0,0,1,176.873,95.9336)">            <path d="M0,2.577c0,-1.692 -0.008,-3.383 0.003,-5.074c0.021,-2.413 0.872,-3.395 3.219,-3.854c1.592,-0.309 3.169,-0.09 4.753,0.017c0.555,0.038 0.755,0.232 0.757,0.786c0.001,0.58 -0.243,0.759 -0.78,0.751c-1.211,-0.02 -2.419,-0.021 -3.628,-0.002c-2.003,0.031 -2.466,0.501 -2.528,2.48c-0.077,2.575 -0.077,2.575 2.434,2.575c1.208,0 2.417,0.007 3.625,-0.005c0.579,-0.004 0.881,0.173 0.878,0.833c-0.001,0.69 -0.354,0.787 -0.912,0.78c-1.693,-0.015 -3.384,0.034 -5.077,-0.02c-0.783,-0.026 -0.985,0.251 -0.961,0.995c0.046,1.788 0.005,3.578 0.02,5.368c0.003,0.574 0.003,1.03 -0.804,1.024c-0.738,-0.008 -1.029,-0.22 -1.013,-0.998c0.046,-1.882 0.014,-3.771 0.014,-5.656" style="fill:rgb(27,121,166);"/>        </g>        <g transform="matrix(1,0,0,1,103.786,97.9428)">            <path d="M0,-0.567c0.012,1.202 -0.187,2.411 0.188,3.601c0.584,1.869 1.523,2.629 3.46,2.656c1.013,0.012 2.028,-0.049 3.042,-0.069c0.39,-0.007 0.804,-0.063 0.798,0.535c-0.002,0.457 0.006,0.857 -0.599,0.973c-4.33,0.805 -8.646,0.29 -8.814,-5.992c-0.041,-1.591 -0.112,-3.189 0.125,-4.78c0.464,-3.108 2.36,-4.841 5.467,-4.853c1.007,-0.005 2.017,0.183 3.022,0.272c0.614,0.049 0.825,0.37 0.793,0.959c-0.031,0.66 -0.436,0.624 -0.904,0.589c-0.87,-0.061 -1.738,-0.126 -2.606,-0.128c-2.398,-0.008 -3.689,1.105 -3.953,3.486c-0.105,0.906 -0.019,1.834 -0.019,2.751" style="fill:rgb(27,121,166);"/>        </g>        <g transform="matrix(1,0,0,1,106.086,120.999)">            <path d="M0,2.856c1.017,-3.691 2.008,-7.298 3.008,-10.903c0.105,-0.377 0.267,-0.785 0.704,-0.824c0.548,-0.043 0.702,0.443 0.816,0.855c1.002,3.603 1.987,7.214 2.994,10.872l-7.522,0Zm13.208,9.326c-1.985,-6.99 -3.966,-13.981 -5.958,-20.97c-0.512,-1.792 -1.717,-2.738 -3.441,-2.758c-1.606,-0.016 -2.934,0.839 -3.39,2.41c-2.112,7.307 -4.168,14.631 -6.26,21.942c-0.114,0.404 -0.217,0.762 0.191,1.02c0.932,0.592 2.712,-0.086 3.015,-1.154c0.578,-2.04 1.18,-4.07 1.695,-6.127c0.18,-0.719 0.416,-1.054 1.231,-1.031c2.318,0.055 4.636,0.04 6.955,0.008c0.685,-0.011 1.015,0.171 1.199,0.892c0.515,2.052 1.159,4.072 1.701,6.119c0.25,0.944 0.591,1.657 1.636,1.368c1.807,0.009 1.887,-0.095 1.426,-1.719" style="fill:rgb(27,121,166);"/>        </g>        <g transform="matrix(1,0,0,1,207.258,97.7773)">            <path d="M0,-0.817c-3.03,0.051 -3.03,0.053 -3.03,-2.964c0,-3.036 0,-3.036 3.047,-2.858c2.596,0.148 3.487,1.086 3.334,3.447c-0.065,1.032 -0.565,1.69 -1.511,2.076c-0.596,0.242 -1.211,0.287 -1.84,0.299m2.536,2.331c-0.366,-0.602 -0.617,-0.938 0.327,-1.363c1.934,-0.866 2.694,-2.618 2.354,-4.793c-0.298,-1.897 -1.63,-3.087 -3.724,-3.49c-1.829,-0.348 -3.639,-0.133 -5.464,-0.031c-0.729,0.044 -0.861,0.394 -0.859,1.019c0.017,4.537 0.02,9.074 -0.003,13.608c-0.004,0.714 0.281,0.898 0.942,0.92c0.736,0.024 0.883,-0.307 0.87,-0.953c-0.036,-1.493 0.04,-2.994 -0.03,-4.486c-0.046,-0.953 0.226,-1.089 1.196,-1.154c1.519,-0.109 2.261,0.527 2.877,1.757c0.603,1.199 1.436,2.288 2.032,3.493c0.591,1.194 1.405,1.622 2.858,1.15c-1.167,-1.967 -2.256,-3.833 -3.376,-5.677" style="fill:rgb(27,121,166);"/>        </g>        <g transform="matrix(1,0,0,1,119.044,97.7932)">            <path d="M0,-0.849c-0.192,0.014 -0.383,0.01 -0.577,0.014c-2.961,0.048 -2.961,0.048 -2.961,-2.881c0,-3.207 0,-3.207 3.238,-2.927c2.178,0.189 3.071,0.933 3.145,2.624c0.089,2.064 -0.772,3.024 -2.845,3.17m1.901,2.186c-0.329,-0.54 -0.426,-0.789 0.326,-1.141c2.037,-0.949 2.867,-2.794 2.45,-5.018c-0.344,-1.813 -1.751,-2.961 -3.875,-3.347c-1.786,-0.325 -3.545,-0.092 -5.322,-0.006c-0.74,0.04 -0.849,0.431 -0.848,1.04c0.01,4.489 0.017,8.978 -0.007,13.463c-0.001,0.733 0.215,1.024 0.983,1.042c0.912,0.021 0.854,-0.525 0.849,-1.129c-0.008,-1.497 -0.008,-2.991 0.003,-4.488c0.002,-0.359 -0.155,-0.799 0.345,-0.996c0.924,-0.357 2.784,0.325 3.319,1.215c0.82,1.362 1.719,2.681 2.432,4.095c0.613,1.213 1.423,1.578 2.811,1.092c-1.167,-1.963 -2.304,-3.9 -3.466,-5.822" style="fill:rgb(27,121,166);"/>        </g>        <g transform="matrix(1,0,0,1,166.874,95.4305)">            <path d="M0,4.166c-0.425,3.129 -1.63,4.14 -4.783,4.148c-2.012,0.008 -2.012,0.008 -2.015,-1.981c0,-1.492 0,-2.984 0.003,-4.478c0,-1.734 0.027,-3.467 -0.017,-5.202c-0.022,-0.737 0.168,-1.06 0.956,-0.988c0.669,0.055 1.349,-0.013 2.022,0.013c2.091,0.092 3.377,1.241 3.732,3.314c0.298,1.721 0.335,3.454 0.102,5.174m1.701,-5.559c-0.486,-2.647 -2.028,-3.95 -4.658,-4.441c-1.558,-0.289 -3.068,-0.02 -4.605,0.011c-0.895,0.018 -1.163,0.377 -1.147,1.231c0.04,2.169 0.014,4.344 0.014,6.516l0,3.478c0,4.855 0.033,4.887 4.961,4.493c3.054,-0.241 4.927,-1.752 5.445,-4.659c0.388,-2.188 0.388,-4.437 -0.01,-6.629" style="fill:rgb(27,121,166);"/>        </g>        <g transform="matrix(1,0,0,1,197.307,93.8732)">            <path d="M0,7.132c-0.422,1.895 -1.742,2.72 -3.77,2.629c-1.79,-0.079 -2.915,-1.058 -3.302,-2.87c-0.245,-1.142 -0.327,-2.293 -0.253,-3.457c-0.086,-1.116 0.025,-2.222 0.262,-3.311c0.397,-1.82 1.635,-2.83 3.48,-2.866c1.903,-0.04 3.187,0.825 3.589,2.688c0.516,2.378 0.519,4.81 -0.006,7.187m2.063,-6.442c-0.507,-4.028 -3.02,-5.198 -5.826,-5.1c-3.424,0.115 -5.299,2.348 -5.365,6.068c-0.011,0.578 -0.002,1.16 -0.002,1.737l0.023,0c0,0.918 -0.065,1.841 0.009,2.751c0.254,3.201 2.197,5.15 5.228,5.317c3.202,0.177 5.267,-1.478 5.861,-4.727c0.364,-2.008 0.325,-4.034 0.072,-6.046" style="fill:rgb(27,121,166);"/>        </g>        <g transform="matrix(1,0,0,1,135.798,94.0214)">            <path d="M0,6.958c-0.412,1.911 -1.727,2.739 -3.75,2.655c-1.85,-0.073 -2.962,-1.071 -3.352,-2.987c-0.228,-1.097 -0.289,-2.199 -0.232,-3.313c-0.074,-1.116 0.021,-2.221 0.255,-3.313c0.4,-1.827 1.619,-2.843 3.458,-2.891c1.91,-0.05 3.197,0.805 3.61,2.662c0.531,2.378 0.523,4.814 0.011,7.187m1.653,-8.058c-0.703,-2.3 -2.726,-3.56 -5.246,-3.488c-2.634,0.071 -4.52,1.45 -5.218,3.781c-0.409,1.37 -0.322,2.77 -0.298,4.166c0,0.918 -0.069,1.843 0.016,2.75c0.284,3.029 2.044,4.866 4.892,5.184c2.907,0.325 5.24,-1.026 5.941,-3.692c0.752,-2.879 0.791,-5.83 -0.087,-8.701" style="fill:rgb(27,121,166);"/>        </g>    </g></svg>