<?xml version="1.0" encoding="UTF-8" standalone="no"?><!DOCTYPE svg PUBLIC "-//W3C//DTD SVG 1.1//EN" "http://www.w3.org/Graphics/SVG/1.1/DTD/svg11.dtd"><svg width="100%" height="100%" viewBox="0 0 1024 512" version="1.1" xmlns="http://www.w3.org/2000/svg" xmlns:xlink="http://www.w3.org/1999/xlink" xml:space="preserve" style="fill-rule:evenodd;clip-rule:evenodd;stroke-linejoin:round;stroke-miterlimit:2;"><title>Sowefund</title><desc>A long-standing player in participatory investment in startups, Sowefund is a leading platform specializing in financing innovation. In four years of activity, we have supported 35 companies, for more than 17 million euros raised. Our team, specialized in venture capital, analyzes the files and supports startups in their fundraising efforts.</desc>    <g transform="matrix(2.30666,0,0,2.30666,-1013.4,-262.417)">        <g>            <g transform="matrix(124.198,0,0,99.6429,528.752,255.071)">                <path d="M0.31,-0.398c-0.02,-0.043 -0.071,-0.074 -0.118,-0.074c-0.067,0 -0.126,0.047 -0.126,0.117c0,0.078 0.072,0.105 0.135,0.128c0.046,0.016 0.09,0.034 0.09,0.091c0,0.058 -0.046,0.104 -0.104,0.104c-0.061,0 -0.098,-0.039 -0.115,-0.094l-0.044,0.014c0.019,0.075 0.082,0.122 0.159,0.122c0.083,0 0.149,-0.059 0.149,-0.144c0,-0.167 -0.225,-0.113 -0.225,-0.224c0,-0.04 0.04,-0.072 0.079,-0.072c0.036,0 0.066,0.02 0.081,0.052l0.039,-0.02Z" style="fill:rgb(119,165,173);fill-rule:nonzero;"/>            </g>            <g transform="matrix(100.382,0,0,99.6429,568.933,255.071)">                <path d="M0.272,-0.472c-0.134,0 -0.24,0.109 -0.24,0.242c0,0.131 0.107,0.24 0.24,0.24c0.136,0 0.243,-0.104 0.243,-0.241c0,-0.137 -0.107,-0.241 -0.243,-0.241Zm-0.003,0.042c0.114,0 0.201,0.086 0.201,0.2c0,0.112 -0.088,0.198 -0.201,0.198c-0.109,0 -0.192,-0.093 -0.192,-0.198c0,-0.107 0.082,-0.2 0.192,-0.2Z" style="fill:rgb(119,165,173);fill-rule:nonzero;"/>            </g>            <g transform="matrix(99.2275,0,0,96,618.406,252.505)">                <path d="M0.051,-0.462l-0.046,0l0.208,0.487l0.162,-0.399l0.163,0.399l0.209,-0.487l-0.046,0l-0.16,0.379l-0.164,-0.404l-0.163,0.404l-0.163,-0.379Z" style="fill:rgb(249,157,28);fill-rule:nonzero;"/>            </g>            <g transform="matrix(99.1651,0,0,99.6429,688.083,255.071)">                <path d="M0.478,-0.227c0.001,-0.133 -0.082,-0.245 -0.222,-0.245c-0.135,0 -0.224,0.111 -0.224,0.24c0,0.131 0.087,0.242 0.224,0.242c0.091,0 0.165,-0.045 0.207,-0.125l-0.038,-0.022c-0.033,0.062 -0.091,0.105 -0.163,0.105c-0.107,0 -0.188,-0.078 -0.185,-0.195l0.401,0Zm-0.401,-0.042c0.008,-0.087 0.086,-0.161 0.18,-0.161c0.095,0 0.165,0.076 0.176,0.161l-0.356,0Z" style="fill:rgb(249,157,28);fill-rule:nonzero;"/>            </g>            <g transform="matrix(96.9707,0,0,99.6429,734.09,254.789)">                <path d="M0.122,-0.42l0.116,0l0,-0.042l-0.116,0l0,-0.198c0,-0.058 0.001,-0.136 0.079,-0.136c0.013,0 0.025,0.004 0.037,0.006l0,-0.041c-0.013,-0.005 -0.026,-0.007 -0.04,-0.007c-0.042,0 -0.082,0.019 -0.103,0.056c-0.017,0.03 -0.018,0.079 -0.018,0.113l0,0.207l-0.051,0l0,0.042l0.051,0l0,0.42l0.045,0l0,-0.42Z" style="fill:rgb(119,165,173);fill-rule:nonzero;"/>            </g>            <g transform="matrix(96.9707,0,0,99.6429,754.254,254.83)">                <path d="M0.357,-0.462l0,0.261c0,0.089 -0.01,0.169 -0.121,0.169c-0.111,0 -0.121,-0.08 -0.121,-0.169l0,-0.261l-0.045,0l0,0.277c0,0.047 -0.001,0.094 0.028,0.133c0.032,0.042 0.086,0.062 0.138,0.062c0.052,0 0.106,-0.02 0.138,-0.062c0.029,-0.039 0.028,-0.086 0.028,-0.133l0,-0.277l-0.045,0Z" style="fill:rgb(119,165,173);fill-rule:nonzero;"/>            </g>            <g transform="matrix(96.9707,0,0,99.6429,790.504,255.071)">                <path d="M0.122,-0.462l-0.045,0l0,0.462l0.045,0l0,-0.228c0,-0.094 0.019,-0.202 0.135,-0.202c0.101,0 0.111,0.068 0.111,0.151l0,0.279l0.045,0l0,-0.279c0,-0.119 -0.033,-0.193 -0.152,-0.193c-0.06,0 -0.11,0.031 -0.137,0.082l-0.002,0l0,-0.072Z" style="fill:rgb(119,165,173);fill-rule:nonzero;"/>            </g>            <g transform="matrix(98.0884,0,0,103.122,835.028,255.037)">                <path d="M0.259,-0.032c-0.112,0 -0.182,-0.096 -0.182,-0.202c0,-0.1 0.073,-0.196 0.179,-0.196c0.112,0 0.185,0.084 0.185,0.191c0,0.111 -0.064,0.207 -0.182,0.207Zm0.179,0.032l0.045,0l0,-0.825l-0.045,0l0,0.443l-0.002,0c-0.039,-0.058 -0.107,-0.09 -0.178,-0.09c-0.139,0 -0.226,0.103 -0.226,0.238c0,0.135 0.088,0.244 0.228,0.244c0.068,0 0.142,-0.034 0.176,-0.093l0.002,0l0,0.083Z" style="fill:rgb(119,165,173);fill-rule:nonzero;"/>            </g>        </g>        <g transform="matrix(0.263606,0,0,0.263606,407.898,149.935)">            <g transform="matrix(1,0,0,1,0.125309,0)">                <path d="M301.422,491.526c-20.136,1.168 -43.563,-6.589 -43.289,-6.478c-97.24,-31.093 -154.992,-128.869 -129.794,-222.908c17.93,-66.918 74.63,-124.652 165.117,-136.118c-53.156,11.851 -71.945,39.108 -79.427,67.029c-13.004,48.534 18.18,99.058 69.653,112.85c2.844,0.762 31.243,3.353 31.243,3.353c45.804,7.912 80.544,45.603 80.544,90.842c0,51.002 -46.716,88.685 -94.047,91.43Zm1.997,-137.138c-19.471,0.465 -37.19,13.849 -42.56,33.893c-5.374,20.053 3.29,40.513 19.939,50.647l0.331,0.205c3.437,2.095 7.228,3.723 11.304,4.815c23.956,6.419 48.66,-8.097 55.177,-32.422c6.518,-24.325 -7.618,-49.249 -31.574,-55.667c-4.084,-1.095 -8.191,-1.581 -12.227,-1.483l-0.39,0.012Z" style="fill:rgb(119,165,173);"/>            </g>            <g transform="matrix(0.97869,0,0,0.97869,4.14906,5.6048)">                <path d="M307.077,170.123c-25.652,0 -46.447,20.795 -46.447,46.447c0,25.635 20.812,46.448 46.447,46.448c25.653,0 46.448,-20.795 46.448,-46.448l-46.448,0l0,-46.447Z" style="fill:rgb(249,157,28);"/>            </g>        </g>    </g></svg>