<?xml version="1.0" encoding="UTF-8" standalone="no"?><!DOCTYPE svg PUBLIC "-//W3C//DTD SVG 1.1//EN" "http://www.w3.org/Graphics/SVG/1.1/DTD/svg11.dtd"><svg width="100%" height="100%" viewBox="0 0 1024 512" version="1.1" xmlns="http://www.w3.org/2000/svg" xmlns:xlink="http://www.w3.org/1999/xlink" xml:space="preserve"  style="fill-rule:evenodd;clip-rule:evenodd;stroke-linecap:round;stroke-linejoin:round;stroke-miterlimit:4.9;"><title>BrikkApp</title><desc>BrikkApp is an online platform for anyone interested in investing in real estate. At BrikkApp, we provide not only knowledge about the real estate crowdfunding market, but also the ability to invest and diversify your portfolio with property projects from across the globe.</desc>    <g transform="matrix(0.392365,0,0,0.392365,1.99999,150.76)">        <g id="g841" transform="matrix(1,0,0,1,-221.347,-45.9548)">            <path id="path835" d="M297.979,281.968l119.074,0c31.831,0 77.221,19.453 77.221,56.59c-0,38.905 -45.39,49.516 -77.221,49.516l-119.074,-0l-0,-106.106Zm-0,-163.284l119.074,0c49.515,0 64.842,31.832 64.842,50.695c-0,23.579 -15.916,44.21 -64.842,44.21l-119.074,0l-0,-94.905Zm119.074,-70.737l-195.706,0l0,412.632l195.706,-0c85.473,-0 154.442,-29.474 154.442,-121.432c-0,-25.936 -17.684,-77.221 -66.021,-91.958c38.315,-17.094 53.642,-47.747 53.642,-79.578c-0,-83.116 -60.716,-119.664 -142.063,-119.664Z" style="fill:rgb(0,55,72);fill-rule:nonzero;"/>            <path id="path837" d="M621.358,169.968l-0,290.611l71.916,-0l-0,-153.263c-0,-53.642 34.779,-73.684 72.505,-73.684c23.579,-0 37.137,6.484 51.874,18.863l32.421,-62.484c-15.916,-15.916 -44.8,-27.706 -74.863,-27.706c-29.474,0 -59.537,5.306 -81.937,41.263l-5.306,-33.6l-66.61,0Z" style="fill:rgb(0,55,72);fill-rule:nonzero;"/>            <path id="path839" d="M948.863,168.789l0,291.79l-71.916,-0l0,-291.79l71.916,0Zm-78.4,-80.757c0,56 84.884,56 84.884,-0c0,-56 -84.884,-56 -84.884,-0Z" style="fill:rgb(0,55,72);fill-rule:nonzero;"/>        </g>        <g id="g849" transform="matrix(1,0,0,1,-221.347,-45.9548)">            <path id="path843" d="M2029.26,460.884l84.884,0l-185.094,-412.631l-84.885,-0l-185.094,412.631l84.294,0l35.369,-77.81l215.747,-0l34.779,77.81Zm-66.021,-150.316l-153.263,0l76.632,-175.663l76.631,175.663Z" style="fill:rgb(0,55,72);fill-rule:nonzero;"/>            <path id="path845" d="M2298.11,398.4c-48.926,-0 -82.526,-37.137 -82.526,-82.526c-0,-45.39 30.653,-82.527 82.526,-82.527c51.874,0 82.527,37.137 82.527,82.527c-0,45.389 -33.6,82.526 -82.527,82.526Zm-89.01,183.916l-0,-155.621c20.631,31.831 66.021,41.263 96.673,41.263c93.137,-0 146.779,-67.2 146.779,-152.084c0,-85.474 -59.536,-152.085 -149.136,-152.085c-33.011,0 -71.916,14.148 -94.316,46.569l-4.716,-40.084l-67.2,-0l-0,412.042l71.916,-0Z" style="fill:rgb(0,55,72);fill-rule:nonzero;"/>            <path id="path847" d="M2666.53,398.4c-48.926,-0 -82.526,-37.137 -82.526,-82.526c0,-45.39 30.653,-82.527 82.526,-82.527c51.874,0 82.527,37.137 82.527,82.527c-0,45.389 -33.6,82.526 -82.527,82.526Zm-89.01,183.916l-0,-155.621c20.631,31.831 66.021,41.263 96.673,41.263c93.137,-0 146.779,-67.2 146.779,-152.084c0,-85.474 -59.536,-152.085 -149.136,-152.085c-33.011,0 -71.916,14.148 -94.316,46.569l-4.716,-40.084l-67.2,-0l0,412.042l71.916,-0Z" style="fill:rgb(0,55,72);fill-rule:nonzero;"/>        </g>        <g id="g983" transform="matrix(1,0,0,1,-221.347,-45.9548)">            <g id="g889">                <g id="rect851" transform="matrix(-1,0,0,1,0,0)">                    <rect x="-1400.74" y="48.947" width="15.778" height="24.402" style="fill:rgb(255,75,0);stroke:rgb(255,75,0);stroke-width:4.72px;"/>                </g>                <g id="rect853" transform="matrix(-1,0,0,1,0,0)">                    <rect x="-1375.47" y="48.947" width="42.076" height="24.045" style="fill:rgb(255,75,0);stroke:rgb(255,75,0);stroke-width:5.84px;"/>                </g>                <g id="rect855" transform="matrix(-1,0,0,1,0,0)">                    <rect x="-1400.11" y="84.209" width="42.094" height="33.565" style="fill:rgb(255,75,0);stroke:rgb(255,75,0);stroke-width:6.9px;"/>                </g>                <g id="rect857" transform="matrix(-1,0,0,1,0,0)">                    <rect x="-1348.53" y="83.681" width="15.784" height="34.683" style="fill:rgb(255,75,0);stroke:rgb(255,75,0);stroke-width:5.63px;"/>                </g>                <g id="rect859" transform="matrix(-1,0,0,1,0,0)">                    <rect x="-1400.84" y="128.463" width="15.8" height="34.955" style="fill:rgb(255,75,0);stroke:rgb(255,75,0);stroke-width:5.65px;"/>                </g>                <g id="rect861" transform="matrix(-1,0,0,1,0,0)">                    <rect x="-1375.47" y="129.2" width="42.107" height="33.825" style="fill:rgb(255,75,0);stroke:rgb(255,75,0);stroke-width:6.93px;"/>                </g>                <rect id="rect863" x="1332.74" y="174.368" width="15.777" height="35.762" style="fill:rgb(255,75,0);stroke:rgb(255,75,0);stroke-width:5.71px;"/>                <rect id="rect865" x="1358.11" y="175.126" width="42.075" height="34.608" style="fill:rgb(255,75,0);stroke:rgb(255,75,0);stroke-width:7.01px;"/>                <rect id="rect867" x="1333.37" y="225.063" width="42.074" height="34.608" style="fill:rgb(255,75,0);stroke:rgb(255,75,0);stroke-width:7.01px;"/>                <rect id="rect869" x="1384.95" y="224.537" width="15.752" height="36.137" style="fill:rgb(255,75,0);stroke:rgb(255,75,0);stroke-width:5.74px;"/>                <rect id="rect871" x="1332.74" y="272.821" width="15.778" height="35.515" style="fill:rgb(255,75,0);stroke:rgb(255,75,0);stroke-width:5.69px;"/>                <rect id="rect873" x="1357.68" y="273.568" width="42.076" height="34.369" style="fill:rgb(255,75,0);stroke:rgb(255,75,0);stroke-width:6.98px;"/>                <rect id="rect875" x="1333.37" y="323.011" width="42.075" height="34.369" style="fill:rgb(255,75,0);stroke:rgb(255,75,0);stroke-width:6.98px;"/>                <rect id="rect877" x="1358.53" y="372.074" width="41.945" height="34.263" style="fill:rgb(255,75,0);stroke:rgb(255,75,0);stroke-width:6.96px;"/>                <rect id="rect879" x="1333.68" y="371.705" width="15.932" height="35.862" style="fill:rgb(255,75,0);stroke:rgb(255,75,0);stroke-width:5.75px;"/>                <rect id="rect881" x="1385.05" y="422.158" width="15.774" height="36.143" style="fill:rgb(255,75,0);stroke:rgb(255,75,0);stroke-width:5.74px;"/>                <rect id="rect883" x="1333.89" y="422.821" width="42.064" height="34.978" style="fill:rgb(255,75,0);stroke:rgb(255,75,0);stroke-width:7.04px;"/>                <rect id="rect885" x="1402" y="272.926" width="15.778" height="35.515" style="fill:rgb(255,75,0);stroke:rgb(255,75,0);stroke-width:5.69px;"/>                <rect id="rect887" x="1458.74" y="224.737" width="15.777" height="35.762" style="fill:rgb(255,75,0);stroke:rgb(255,75,0);stroke-width:5.71px;"/>            </g>            <g id="g915">                <path id="path891" d="M1397.16,260.884l52.029,0l0,-37.099l-6.503,0l-45.526,37.099Z" style="fill:rgb(255,75,0);fill-rule:nonzero;stroke:rgb(255,75,0);stroke-width:5.14px;stroke-miterlimit:4;"/>                <path id="path893" d="M1583.47,171.863l-28.435,0l-0,25.743l28.201,-22.867l0.234,-2.876Z" style="fill:rgb(255,75,0);fill-rule:nonzero;stroke:rgb(255,75,0);stroke-width:4.11px;stroke-miterlimit:4;"/>                <path id="path895" d="M1426.63,273.032l55.204,-0l-18.401,15.157l13.801,20.211l-50.603,-0l-0.001,-35.368Z" style="fill:rgb(255,75,0);fill-rule:nonzero;stroke:rgb(255,75,0);stroke-width:5.18px;stroke-miterlimit:4;"/>                <path id="path897" d="M1529.16,224.905l-44.824,0l-0,34.255l5.846,-0l38.978,-34.255Z" style="fill:rgb(255,75,0);fill-rule:nonzero;stroke:rgb(255,75,0);stroke-width:4.67px;stroke-miterlimit:4;"/>                <path id="path899" d="M1545.37,173.221l-42.104,0l0,37.099l36.841,-0l5.263,-5.3l0,-31.799Z" style="fill:rgb(255,75,0);fill-rule:nonzero;stroke:rgb(255,75,0);stroke-width:6.65px;stroke-miterlimit:4;"/>                <path id="path901" d="M1449.89,210.411l43.563,-0l-0,-37.855l-5.445,-0l-38.118,37.855Z" style="fill:rgb(255,75,0);fill-rule:nonzero;stroke:rgb(255,75,0);stroke-width:4.75px;stroke-miterlimit:4;"/>                <path id="path903" d="M1384.53,321.758l73.685,-0l-0,36.842l-34.387,-0l-24.561,-26.316l0,26.316l-14.737,-0l0,-36.842Z" style="fill:rgb(255,75,0);fill-rule:nonzero;stroke:rgb(255,75,0);stroke-width:4.2px;stroke-miterlimit:4;"/>                <path id="path905" d="M1468,323.568l0,33.55l47.358,0.096l-28.458,-33.645l-18.9,-0.001Z" style="fill:rgb(255,75,0);fill-rule:nonzero;stroke:rgb(255,75,0);stroke-width:7.25px;stroke-miterlimit:4;"/>                <path id="path907" d="M1551.37,421.242l0,37.881l48.749,0l-32.499,-37.881l-16.25,0Z" style="fill:rgb(255,75,0);fill-rule:nonzero;stroke:rgb(255,75,0);stroke-width:4.36px;stroke-miterlimit:4;"/>                <path id="path909" d="M1434.74,370.274l52.631,-0l0,37.588l-17.544,0l-35.087,-37.588Z" style="fill:rgb(255,75,0);fill-rule:nonzero;stroke:rgb(255,75,0);stroke-width:5.36px;stroke-miterlimit:4;"/>                <path id="path911" d="M1482.32,423.547l59.221,0l-0,33.242l-32.302,0l-26.919,-33.242Z" style="fill:rgb(255,75,0);fill-rule:nonzero;stroke:rgb(255,75,0);stroke-width:8.94px;stroke-miterlimit:4;"/>                <path id="path913" d="M1498.95,371.421l0,34.641l54.899,0l-32,-34.618l-22.899,-0.023Z" style="fill:rgb(255,75,0);fill-rule:nonzero;stroke:rgb(255,75,0);stroke-width:7.94px;stroke-miterlimit:4;"/>            </g>            <g id="g955">                <rect id="rect917" x="1221.05" y="48.947" width="15.778" height="25.604" style="fill:rgb(255,75,0);stroke:rgb(255,75,0);stroke-width:4.83px;"/>                <rect id="rect919" x="1246.32" y="48.947" width="42.076" height="25.247" style="fill:rgb(255,75,0);stroke:rgb(255,75,0);stroke-width:5.99px;"/>                <rect id="rect921" x="1221.68" y="85.383" width="42.094" height="33.565" style="fill:rgb(255,75,0);stroke:rgb(255,75,0);stroke-width:6.9px;"/>                <rect id="rect923" x="1273.26" y="84.855" width="15.784" height="34.683" style="fill:rgb(255,75,0);stroke:rgb(255,75,0);stroke-width:5.63px;"/>                <rect id="rect925" x="1220.95" y="129.632" width="15.84" height="34.367" style="fill:rgb(255,75,0);stroke:rgb(255,75,0);stroke-width:5.61px;"/>                <rect id="rect927" x="1246.32" y="130.368" width="42.162" height="33.253" style="fill:rgb(255,75,0);stroke:rgb(255,75,0);stroke-width:6.88px;"/>                <g id="rect929" transform="matrix(-1,0,0,1,0,0)">                    <rect x="-1289.05" y="175.579" width="15.777" height="35.762" style="fill:rgb(255,75,0);stroke:rgb(255,75,0);stroke-width:5.71px;"/>                </g>                <g id="rect931" transform="matrix(-1,0,0,1,0,0)">                    <rect x="-1263.68" y="176.337" width="42.075" height="34.608" style="fill:rgb(255,75,0);stroke:rgb(255,75,0);stroke-width:7.01px;"/>                </g>                <g id="rect933" transform="matrix(-1,0,0,1,0,0)">                    <rect x="-1288.42" y="224.895" width="42.074" height="34.608" style="fill:rgb(255,75,0);stroke:rgb(255,75,0);stroke-width:7.01px;"/>                </g>                <g id="rect935" transform="matrix(-1,0,0,1,0,0)">                    <rect x="-1236.84" y="224.368" width="15.752" height="36.137" style="fill:rgb(255,75,0);stroke:rgb(255,75,0);stroke-width:5.74px;"/>                </g>                <g id="rect937" transform="matrix(-1,0,0,1,0,0)">                    <rect x="-1289.05" y="274.021" width="15.778" height="35.515" style="fill:rgb(255,75,0);stroke:rgb(255,75,0);stroke-width:5.69px;"/>                </g>                <g id="rect939" transform="matrix(-1,0,0,1,0,0)">                    <rect x="-1264.11" y="274.779" width="42.076" height="34.369" style="fill:rgb(255,75,0);stroke:rgb(255,75,0);stroke-width:6.98px;"/>                </g>                <g id="rect941" transform="matrix(-1,0,0,1,0,0)">                    <rect x="-1288.42" y="323.368" width="42.075" height="34.369" style="fill:rgb(255,75,0);stroke:rgb(255,75,0);stroke-width:6.98px;"/>                </g>                <g id="rect943" transform="matrix(-1,0,0,1,0,0)">                    <rect x="-1264.53" y="372.632" width="42.808" height="34.967" style="fill:rgb(255,75,0);stroke:rgb(255,75,0);stroke-width:7.1px;"/>                </g>                <g id="rect945" transform="matrix(-1,0,0,1,0,0)">                    <rect x="-1289.58" y="371.989" width="16.053" height="36.134" style="fill:rgb(255,75,0);stroke:rgb(255,75,0);stroke-width:5.79px;"/>                </g>                <g id="rect947" transform="matrix(-1,0,0,1,0,0)">                    <rect x="-1236.74" y="422.179" width="15.672" height="36.118" style="fill:rgb(255,75,0);stroke:rgb(255,75,0);stroke-width:5.72px;"/>                </g>                <g id="rect949" transform="matrix(-1,0,0,1,0,0)">                    <rect x="-1287.89" y="422.968" width="42.064" height="34.978" style="fill:rgb(255,75,0);stroke:rgb(255,75,0);stroke-width:7.04px;"/>                </g>                <g id="rect951" transform="matrix(-1,0,0,1,0,0)">                    <rect x="-1219.79" y="274.126" width="15.778" height="35.515" style="fill:rgb(255,75,0);stroke:rgb(255,75,0);stroke-width:5.69px;"/>                </g>                <g id="rect953" transform="matrix(-1,0,0,1,0,0)">                    <rect x="-1163.05" y="224.568" width="15.777" height="35.762" style="fill:rgb(255,75,0);stroke:rgb(255,75,0);stroke-width:5.71px;"/>                </g>            </g>            <g id="g981">                <path id="path957" d="M1224.63,260.821l-52.03,0l0,-37.099l6.503,0l45.527,37.099Z" style="fill:rgb(255,75,0);fill-rule:nonzero;stroke:rgb(255,75,0);stroke-width:5.14px;stroke-miterlimit:4;"/>                <path id="path959" d="M1038.25,172.432l28.434,-0l0,25.743l-28.201,-22.868l-0.233,-2.875Z" style="fill:rgb(255,75,0);fill-rule:nonzero;stroke:rgb(255,75,0);stroke-width:4.11px;stroke-miterlimit:4;"/>                <path id="path961" d="M1195.16,274.232l-55.204,-0l18.401,15.157l-13.801,20.211l50.603,-0l0.001,-35.368Z" style="fill:rgb(255,75,0);fill-rule:nonzero;stroke:rgb(255,75,0);stroke-width:5.18px;stroke-miterlimit:4;"/>                <path id="path963" d="M1092.63,224.411l44.824,-0l-0,34.254l-5.847,0l-38.977,-34.254Z" style="fill:rgb(255,75,0);fill-rule:nonzero;stroke:rgb(255,75,0);stroke-width:4.67px;stroke-miterlimit:4;"/>                <path id="path965" d="M1076.42,173.8l42.104,-0l0,37.099l-36.841,-0l-5.262,-5.3l-0.001,-31.799Z" style="fill:rgb(255,75,0);fill-rule:nonzero;stroke:rgb(255,75,0);stroke-width:6.65px;stroke-miterlimit:4;"/>                <path id="path967" d="M1171.89,210.989l-43.563,0l-0,-37.854l5.444,-0l38.119,37.854Z" style="fill:rgb(255,75,0);fill-rule:nonzero;stroke:rgb(255,75,0);stroke-width:4.75px;stroke-miterlimit:4;"/>                <path id="path969" d="M1237.26,322.116l-73.684,-0l-0,36.842l34.386,-0l24.561,-26.316l0,26.316l14.737,-0l0,-36.842Z" style="fill:rgb(255,75,0);fill-rule:nonzero;stroke:rgb(255,75,0);stroke-width:4.2px;stroke-miterlimit:4;"/>                <path id="path971" d="M1153.79,323.926l0,33.55l-47.357,0.096l28.457,-33.647l18.9,0.001Z" style="fill:rgb(255,75,0);fill-rule:nonzero;stroke:rgb(255,75,0);stroke-width:7.25px;stroke-miterlimit:4;"/>                <path id="path973" d="M1069.79,421.389l0,37.869l-49.05,-0l32.701,-37.869l16.349,0Z" style="fill:rgb(255,75,0);fill-rule:nonzero;stroke:rgb(255,75,0);stroke-width:4.37px;stroke-miterlimit:4;"/>                <path id="path975" d="M1186.95,371.474l-52.631,-0l-0,37.588l17.544,0l35.087,-37.588Z" style="fill:rgb(255,75,0);fill-rule:nonzero;stroke:rgb(255,75,0);stroke-width:5.36px;stroke-miterlimit:4;"/>                <path id="path977" d="M1138.74,423.695l-59.221,-0l-0,33.242l32.302,-0l26.919,-33.242Z" style="fill:rgb(255,75,0);fill-rule:nonzero;stroke:rgb(255,75,0);stroke-width:8.94px;stroke-miterlimit:4;"/>                <path id="path979" d="M1122.53,372.621l0,34.641l-54.899,0l32,-34.618l22.899,-0.023Z" style="fill:rgb(255,75,0);fill-rule:nonzero;stroke:rgb(255,75,0);stroke-width:7.94px;stroke-miterlimit:4;"/>            </g>        </g>    </g></svg>