<?xml version="1.0" encoding="UTF-8" standalone="no"?><!DOCTYPE svg PUBLIC "-//W3C//DTD SVG 1.1//EN" "http://www.w3.org/Graphics/SVG/1.1/DTD/svg11.dtd"><svg width="100%" height="100%" viewBox="0 0 1024 512" version="1.1" xmlns="http://www.w3.org/2000/svg" xmlns:xlink="http://www.w3.org/1999/xlink" xml:space="preserve" style="fill-rule:evenodd;clip-rule:evenodd;stroke-linejoin:round;stroke-miterlimit:2;"><title>Lendable</title><desc>Lendable allows qualified investors to invest in consumer loans originated through the platform.Unlike traditional retail lending platforms, Lendable exclusively works with selected institutional and sophisticated investors to build a better, more streamlined customer experience for a wider audience of borrowers.</desc>    <g transform="matrix(1.0326,0,0,1.0326,2,142.259)">        <path d="M703.9,67.3l-25.2,0l0,-67.3l-22.2,0l0,210.4c8.9,5.6 28.3,9.9 46.4,9.9c41,0 74.5,-25 74.5,-74.4c0,-47.4 -32.8,-78.6 -73.5,-78.6Zm-1.8,133.5c-7.5,0 -18.9,-1.5 -23.4,-4l0,-110l23.7,0c28.3,0 52.1,21 52.1,58.4c0,33.9 -19.6,55.6 -52.4,55.6Z" style="fill-rule:nonzero;"/>        <path d="M987.8,142.4c0,-46 -19.3,-75.1 -55.5,-75.1c-34.7,0 -57.9,30.6 -57.9,75.1c0,42.6 22.3,77.8 67.2,77.8c16,0 33.3,-4.6 45.7,-13l-7.2,-16.1c-9.6,5.6 -21.7,10.4 -34.9,10.4c-30.4,0 -47,-21.5 -47.6,-52.6l90.1,0l0,-6.5l0.1,0Zm-89.8,-9c0.3,-24.5 13.9,-44.5 35.6,-44.5c22.6,0 33.2,20 33.5,44.5l-69.1,0Z" style="fill-rule:nonzero;"/>        <path d="M616.4,117.1c0,-34.9 -19.3,-48.2 -48.9,-48.2l-93.6,0l0,-68.9l-22.2,0l0,66.1l-22.5,0c-40.7,0 -72.7,31.2 -72.7,78.5c0,49.4 32.3,74.4 73.3,74.4c18.1,0 35.2,-4.3 44.1,-9.9l0,-123.4l89,0.6c17.8,0 31.3,9.9 31.3,32.1l0,9.3l-26.3,0.9c-14.5,0.6 -25.5,2.2 -35.2,7.1c-14.5,6.8 -23.9,20.1 -23.9,39.5c0,28.1 19.4,45.1 45.4,45.1c17.8,0 31.8,-7.1 42.9,-17.9l4.3,17.8l19.6,0c-1.8,-6.6 -4.6,-24 -4.6,-52.7l0,-50.4Zm-164.6,78.5c-6.7,2.5 -13.1,4 -20.7,4c-32.9,0 -51.6,-21.6 -51.6,-55.6c0,-37.4 22.6,-58.4 50.9,-58.4l21.4,0l0,110Zm142.4,-13.7c-6.7,7.1 -19.1,19.1 -36.9,19.1c-16.3,0 -26.1,-11.1 -26.1,-27.2c0,-9.6 4.4,-17.9 12.6,-22.5c6.3,-3.4 13.7,-5.3 26.1,-5.6l24.3,-0.9l0,37.1Z" style="fill-rule:nonzero;"/>        <path d="M34.8,200c-7.5,0 -12.6,-3.4 -12.6,-15.4l0,-184.6l-22.2,0l0,191.7c0,17.6 10.2,28.4 28.3,28.4c6.6,0 14.9,-1.5 20.7,-4.3l-5.2,-18c-2.1,1 -6.6,2.2 -9,2.2Z" style="fill-rule:nonzero;"/>        <path d="M127.7,66.1c-34.7,0 -57.9,30.6 -57.9,75.1c0,42.6 22.3,77.8 67.2,77.8c16,0 33.3,-4.6 45.7,-13l-7.2,-16.1c-9.6,5.6 -21.7,11 -34.9,11c-30.4,0 -47,-20.9 -47.6,-52l90.3,0l0,-7.7c0,-46 -19.4,-75.1 -55.6,-75.1Zm-34.4,67.3c0.3,-24.5 13.9,-44.5 35.6,-44.5c22.6,0 33.2,20 33.5,44.5l-69.1,0Z" style="fill-rule:nonzero;"/>        <path d="M287.2,68.3c-18.4,0 -33.5,10.7 -49.2,24.3l-1.9,-17.1l-21.7,0l0,144.5l22.3,0l0,-109.4c13.3,-12 29.3,-21.9 45.3,-21.9c20.2,0 26.5,17.2 26.5,39.1l0.7,92.3l18.7,0l0,-100.5c-0.1,-36.8 -18.4,-51.3 -40.7,-51.3Z" style="fill-rule:nonzero;"/>        <path d="M846.4,198.9c-7.5,0 -12,-3.4 -12,-15.4l0,-183.5l-20.2,0l0,191.9c0,17.6 8.7,27.8 26.8,27.8c6.6,0 14.2,-1.9 19.9,-4.6l-5.2,-18.1c-2.1,0.8 -6.9,1.9 -9.3,1.9Z" style="fill-rule:nonzero;"/>    </g></svg>