<?xml version="1.0" encoding="UTF-8" standalone="no"?><!DOCTYPE svg PUBLIC "-//W3C//DTD SVG 1.1//EN" "http://www.w3.org/Graphics/SVG/1.1/DTD/svg11.dtd"><svg width="100%" height="100%" viewBox="0 0 1024 512" version="1.1" xmlns="http://www.w3.org/2000/svg" xmlns:xlink="http://www.w3.org/1999/xlink" xml:space="preserve" style="fill-rule:evenodd;clip-rule:evenodd;stroke-linejoin:round;stroke-miterlimit:2;"><title>FinanceAds</title><desc></desc>    <g transform="matrix(3.6309,0,0,0.107557,35.8759,81.694)">        <g transform="matrix(44.7389,0,0,1510.3,-10.7498,2593.17)">            <path d="M0.105,0l0,-0.446l-0.073,0l0,-0.09l0.073,0l0,-0.039c0,-0.139 0.066,-0.208 0.198,-0.208c0.043,0 0.087,0.006 0.132,0.018l0,0.098c-0.041,-0.017 -0.078,-0.026 -0.11,-0.026c-0.05,0 -0.075,0.038 -0.075,0.113l0,0.044l0.136,0l0,0.09l-0.136,0l0,0.446l-0.145,0Z" style="fill:rgb(212,14,49);fill-rule:nonzero;"/>        </g>        <g transform="matrix(44.7389,0,0,1510.3,6.62901,2593.17)">            <path d="M0.09,0l0,-0.536l0.145,0l0,0.536l-0.145,0Zm0,-0.626l0,-0.121l0.145,0l0,0.121l-0.145,0Z" style="fill:rgb(212,14,49);fill-rule:nonzero;"/>        </g>        <g transform="matrix(44.7389,0,0,1510.3,19.2423,2593.17)">            <path d="M0.09,0l0,-0.536l0.145,0l0,0.101c0.047,-0.076 0.108,-0.113 0.182,-0.113c0.048,0 0.086,0.015 0.114,0.045c0.027,0.03 0.041,0.072 0.041,0.124l0,0.379l-0.144,0l0,-0.343c0,-0.061 -0.02,-0.092 -0.061,-0.092c-0.046,0 -0.09,0.033 -0.132,0.098l0,0.337l-0.145,0Z" style="fill:rgb(212,14,49);fill-rule:nonzero;"/>        </g>        <g transform="matrix(44.7389,0,0,1510.3,49.7599,2593.17)">            <path d="M0.353,-0.058c-0.048,0.047 -0.1,0.07 -0.155,0.07c-0.047,0 -0.085,-0.014 -0.114,-0.043c-0.029,-0.028 -0.044,-0.066 -0.044,-0.111c0,-0.059 0.024,-0.105 0.071,-0.137c0.047,-0.032 0.115,-0.048 0.203,-0.048l0.039,0l0,-0.049c0,-0.056 -0.032,-0.083 -0.095,-0.083c-0.057,0 -0.113,0.015 -0.171,0.047l0,-0.099c0.065,-0.025 0.13,-0.037 0.194,-0.037c0.141,0 0.211,0.055 0.211,0.167l0,0.237c0,0.042 0.013,0.063 0.04,0.063c0.005,0 0.011,0 0.019,-0.002l0.004,0.082c-0.031,0.009 -0.058,0.013 -0.081,0.013c-0.06,0 -0.098,-0.023 -0.115,-0.07l-0.006,0Zm0,-0.077l0,-0.109l-0.034,0c-0.094,0 -0.14,0.029 -0.14,0.088c0,0.02 0.006,0.036 0.02,0.05c0.013,0.013 0.03,0.02 0.05,0.02c0.034,0 0.069,-0.016 0.104,-0.049Z" style="fill:rgb(212,14,49);fill-rule:nonzero;"/>        </g>        <g transform="matrix(44.7389,0,0,1510.3,74.126,2593.17)">            <path d="M0.09,0l0,-0.536l0.145,0l0,0.101c0.047,-0.076 0.108,-0.113 0.182,-0.113c0.048,0 0.086,0.015 0.114,0.045c0.027,0.03 0.041,0.072 0.041,0.124l0,0.379l-0.144,0l0,-0.343c0,-0.061 -0.02,-0.092 -0.061,-0.092c-0.046,0 -0.09,0.033 -0.132,0.098l0,0.337l-0.145,0Z" style="fill:rgb(212,14,49);fill-rule:nonzero;"/>        </g>        <g transform="matrix(44.7389,0,0,1510.3,103.108,2593.17)">            <path d="M0.486,-0.012c-0.06,0.016 -0.116,0.024 -0.167,0.024c-0.085,0 -0.153,-0.025 -0.203,-0.075c-0.049,-0.051 -0.074,-0.119 -0.074,-0.206c0,-0.087 0.026,-0.156 0.077,-0.205c0.051,-0.05 0.121,-0.074 0.212,-0.074c0.043,0 0.093,0.007 0.15,0.021l0,0.104c-0.059,-0.019 -0.106,-0.029 -0.142,-0.029c-0.043,0 -0.078,0.017 -0.104,0.05c-0.027,0.033 -0.04,0.077 -0.04,0.132c0,0.057 0.015,0.102 0.043,0.136c0.029,0.034 0.067,0.051 0.114,0.051c0.043,0 0.088,-0.01 0.134,-0.029l0,0.1Z" style="fill:rgb(212,14,49);fill-rule:nonzero;"/>        </g>        <g transform="matrix(44.7389,0,0,1510.3,124.216,2593.17)">            <path d="M0.527,-0.018c-0.069,0.02 -0.134,0.03 -0.195,0.03c-0.09,0 -0.161,-0.025 -0.212,-0.076c-0.052,-0.051 -0.078,-0.12 -0.078,-0.208c0,-0.083 0.024,-0.15 0.071,-0.2c0.047,-0.051 0.11,-0.076 0.188,-0.076c0.078,0 0.136,0.024 0.172,0.074c0.036,0.049 0.054,0.128 0.054,0.235l-0.333,0c0.01,0.102 0.066,0.153 0.169,0.153c0.048,0 0.103,-0.011 0.164,-0.034l0,0.102Zm-0.335,-0.303l0.193,0c0,-0.091 -0.03,-0.137 -0.089,-0.137c-0.06,0 -0.094,0.046 -0.104,0.137Z" style="fill:rgb(212,14,49);fill-rule:nonzero;"/>        </g>        <g transform="matrix(44.7389,0,0,1510.3,150.798,2593.17)">            <path d="M0.011,0l0.281,-0.723l0.151,0l0.281,0.723l-0.154,0l-0.075,-0.193l-0.299,0l-0.075,0.193l-0.11,0Zm0.222,-0.289l0.225,0l-0.113,-0.288l-0.112,0.288Z" style="fill:rgb(87,90,95);fill-rule:nonzero;"/>        </g>        <g transform="matrix(44.7389,0,0,1510.3,182.573,2593.17)">            <path d="M0.428,0l0,-0.101c-0.037,0.075 -0.096,0.113 -0.176,0.113c-0.064,0 -0.115,-0.023 -0.151,-0.071c-0.037,-0.047 -0.056,-0.112 -0.056,-0.194c0,-0.09 0.021,-0.162 0.063,-0.215c0.041,-0.054 0.097,-0.08 0.167,-0.08c0.056,0 0.107,0.022 0.153,0.066l0,-0.289l0.145,0l0,0.771l-0.145,0Zm0,-0.396c-0.035,-0.039 -0.072,-0.059 -0.112,-0.059c-0.036,0 -0.064,0.017 -0.085,0.052c-0.021,0.034 -0.032,0.08 -0.032,0.137c0,0.11 0.035,0.165 0.106,0.165c0.043,0 0.084,-0.028 0.123,-0.083l0,-0.212Z" style="fill:rgb(87,90,95);fill-rule:nonzero;"/>        </g>        <g transform="matrix(44.7389,0,0,1510.3,209.513,2593.17)">            <path d="M0.076,-0.017l0,-0.106c0.072,0.03 0.133,0.045 0.184,0.045c0.059,0 0.089,-0.02 0.089,-0.061c0,-0.026 -0.025,-0.048 -0.074,-0.068l-0.048,-0.02c-0.053,-0.021 -0.091,-0.044 -0.114,-0.069c-0.023,-0.025 -0.034,-0.055 -0.034,-0.092c0,-0.05 0.019,-0.09 0.058,-0.118c0.038,-0.028 0.093,-0.042 0.162,-0.042c0.044,0 0.096,0.006 0.156,0.019l0,0.101c-0.058,-0.02 -0.106,-0.03 -0.144,-0.03c-0.06,0 -0.09,0.019 -0.09,0.056c0,0.024 0.022,0.045 0.067,0.062l0.042,0.016c0.062,0.024 0.106,0.048 0.131,0.072c0.024,0.024 0.037,0.056 0.037,0.094c0,0.051 -0.021,0.092 -0.063,0.123c-0.042,0.032 -0.096,0.047 -0.164,0.047c-0.064,0 -0.129,-0.01 -0.195,-0.029Z" style="fill:rgb(87,90,95);fill-rule:nonzero;"/>        </g>        <g transform="matrix(0.767845,0,0,25.9209,-1397.59,-7350.96)">            <path d="M2170.98,307.886c1.474,0.171 1.679,0.589 2.093,1.066c1.029,1.185 1.106,2.878 -0.11,4.217l-26.711,27.711c-1.729,1.69 -2.387,1.144 -3.414,0.731c-1.881,-0.755 -2.561,-3.444 -1.086,-5.068l26.711,-27.712c0.666,-0.651 1.553,-0.998 2.517,-0.945Z" style="fill:rgb(87,90,95);"/>        </g>        <g transform="matrix(0.767845,0,0,25.9209,-1397.59,-7350.96)">            <path d="M2169.92,321.394c0.12,0.614 0.19,1.243 0.202,1.883c0.036,6.113 0.613,12.319 -0.074,18.321c-0.628,5.483 -5.555,10.116 -11.326,10.227c-5.816,0.036 -11.632,0.037 -17.447,0c-5.947,-0.114 -11.279,-5.171 -11.401,-11.401c-0.034,-5.716 -0.034,-11.432 0,-17.147c0.117,-5.963 5.266,-11.286 11.401,-11.401c5.815,-0.037 11.631,-0.037 17.446,0c0.484,0.009 0.963,0.051 1.436,0.125l-5.889,6.109c-4.278,-0.005 -8.557,0.015 -12.835,0.015c-2.769,0.018 -5.255,2.435 -5.31,5.231c-0.033,5.686 -0.11,11.372 0.002,17.057c0.085,2.713 2.486,5.11 5.229,5.162c5.786,0.037 11.572,0.109 17.357,-0.001c2.714,-0.086 5.108,-2.489 5.162,-5.23c0.024,-4.243 0.073,-8.486 0.05,-12.729l5.997,-6.221Z" style="fill:rgb(212,14,49);"/>        </g>    </g></svg>