<?xml version="1.0" encoding="UTF-8" standalone="no"?><!DOCTYPE svg PUBLIC "-//W3C//DTD SVG 1.1//EN" "http://www.w3.org/Graphics/SVG/1.1/DTD/svg11.dtd"><svg width="100%" height="100%" viewBox="0 0 1024 512" version="1.1" xmlns="http://www.w3.org/2000/svg" xmlns:xlink="http://www.w3.org/1999/xlink" xml:space="preserve" style="fill-rule:evenodd;clip-rule:evenodd;stroke-linejoin:round;stroke-miterlimit:2;"><title>More Lending</title><desc>More Lending is bringing transparency and openness to business lending, and giving UK businesses access to credit when traditional financial institutions so often don’t. This requirement for credit gives consumers an opportunity to invest in UK businesses by lending to them in a simple and easy to use online platform.</desc>    <g transform="matrix(0.815185,0,0,0.815185,-210.31,-189.206)">        <g transform="matrix(0.710264,0,0,0.710264,-480.512,191.86)">            <g transform="matrix(1,0,0,1,363.642,0)">                <path d="M978.544,564.011c-23.76,-42.708 -93.095,-161.661 -99.329,-172.594c-18.729,-32.848 -32.124,-57.284 -80.232,-57.284c-19.118,0 -35.072,7.911 -49.446,18.362c32.599,-25.876 72.083,-43.078 116.884,-43.078c102.672,0 186.531,81.19 190.823,182.826c-6.743,41.419 -35.389,71.768 -78.7,71.768Z" style="fill:url(#_Linear1);"/>            </g>            <g transform="matrix(1.72713,0,0,1.72713,1039.76,56.6579)">                <path d="M47.953,292.747c28.293,0.45 107.128,0.25 114.415,0.289c21.893,0.119 38.024,0.476 51.951,-23.646c5.534,-9.587 5.811,-21.327 4.731,-31.559c3.538,23.837 1.108,50.065 -11.862,72.529c-29.723,51.482 -94.711,70.027 -146.916,42.756c-18.816,-15.372 -24.858,-38.651 -12.319,-60.369Z" style="fill:url(#_Linear2);"/>            </g>            <g transform="matrix(1.74604,0,0,1.74604,1011.1,113.583)">                <path d="M126.897,148.927c-14.379,24.014 -53.202,91.235 -56.84,97.457c-10.929,18.696 -19.213,32.338 -5.437,56.199c5.475,9.482 10.032,13.733 19.331,17.869c-22.169,-8.759 -38.072,-22.019 -50.901,-44.24c-29.402,-50.925 -13.146,-115.768 36.036,-147.002c22.474,-8.516 47.643,-3.068 57.811,19.717Z" style="fill:url(#_Linear3);"/>            </g>        </g>        <g transform="matrix(0.522179,0,0,0.522179,380.546,36.078)">            <g transform="matrix(150,0,0,150,368.606,1032.59)">                <path d="M0.074,0l0,-0.716l0.143,0l0.169,0.507c0.016,0.047 0.027,0.083 0.034,0.106c0.009,-0.026 0.021,-0.064 0.038,-0.115l0.172,-0.498l0.127,0l0,0.716l-0.091,0l0,-0.599l-0.208,0.599l-0.085,0l-0.207,-0.609l0,0.609l-0.092,0Z" style="fill:rgb(233,88,12);fill-rule:nonzero;"/>            </g>            <g transform="matrix(150,0,0,150,581.732,1032.59)">                <path d="M0.048,-0.349c0,-0.118 0.032,-0.211 0.096,-0.279c0.064,-0.067 0.146,-0.101 0.247,-0.101c0.066,0 0.126,0.016 0.179,0.048c0.053,0.031 0.093,0.075 0.121,0.132c0.028,0.056 0.042,0.12 0.042,0.192c0,0.073 -0.015,0.138 -0.044,0.195c-0.029,0.057 -0.071,0.101 -0.125,0.13c-0.053,0.029 -0.111,0.044 -0.173,0.044c-0.068,0 -0.128,-0.016 -0.181,-0.049c-0.053,-0.032 -0.093,-0.077 -0.121,-0.133c-0.027,-0.056 -0.041,-0.116 -0.041,-0.179Zm0.098,0.002c0,0.086 0.023,0.154 0.07,0.204c0.046,0.049 0.104,0.074 0.174,0.074c0.071,0 0.13,-0.025 0.176,-0.075c0.046,-0.05 0.069,-0.121 0.069,-0.213c0,-0.059 -0.01,-0.11 -0.029,-0.153c-0.02,-0.043 -0.049,-0.077 -0.087,-0.101c-0.038,-0.024 -0.08,-0.036 -0.127,-0.036c-0.067,0 -0.125,0.023 -0.173,0.069c-0.049,0.046 -0.073,0.123 -0.073,0.231Z" style="fill:rgb(233,88,12);fill-rule:nonzero;"/>            </g>            <g transform="matrix(124.004,0,0,150,773.102,1032.59)">                <path d="M0.079,0l0,-0.716l0.317,0c0.064,0 0.112,0.007 0.146,0.019c0.033,0.013 0.059,0.036 0.079,0.069c0.02,0.032 0.03,0.068 0.03,0.107c0,0.051 -0.017,0.094 -0.049,0.129c-0.033,0.035 -0.084,0.057 -0.153,0.066c0.025,0.012 0.044,0.024 0.057,0.036c0.028,0.025 0.054,0.057 0.079,0.095l0.124,0.195l-0.119,0l-0.094,-0.149c-0.028,-0.043 -0.051,-0.076 -0.069,-0.099c-0.018,-0.022 -0.034,-0.038 -0.048,-0.047c-0.014,-0.01 -0.028,-0.016 -0.043,-0.019c-0.011,-0.003 -0.028,-0.004 -0.053,-0.004l-0.11,0l0,0.318l-0.094,0Zm0.094,-0.4l0.204,0c0.043,0 0.077,-0.004 0.102,-0.013c0.024,-0.009 0.042,-0.024 0.055,-0.043c0.013,-0.02 0.019,-0.041 0.019,-0.065c0,-0.033 -0.012,-0.061 -0.037,-0.083c-0.024,-0.022 -0.063,-0.033 -0.116,-0.033l-0.227,0l0,0.237Z" style="fill:rgb(233,88,12);fill-rule:nonzero;"/>            </g>            <g transform="matrix(150,0,0,150,934.38,1032.59)">                <path d="M0.079,0l0,-0.716l0.518,0l0,0.085l-0.423,0l0,0.219l0.396,0l0,0.084l-0.396,0l0,0.244l0.439,0l0,0.084l-0.534,0Z" style="fill:rgb(233,88,12);fill-rule:nonzero;"/>            </g>            <g transform="matrix(150,0,0,150,1090.7,1032.59)">                <path d="M0.073,0l0,-0.716l0.095,0l0,0.632l0.353,0l0,0.084l-0.448,0Z" style="fill:rgb(52,62,101);fill-rule:nonzero;"/>            </g>            <g transform="matrix(150,0,0,150,1239.31,1032.59)">                <path d="M0.079,0l0,-0.716l0.518,0l0,0.085l-0.423,0l0,0.219l0.396,0l0,0.084l-0.396,0l0,0.244l0.439,0l0,0.084l-0.534,0Z" style="fill:rgb(52,62,101);fill-rule:nonzero;"/>            </g>            <g transform="matrix(150,0,0,150,1402.75,1032.59)">                <path d="M0.076,0l0,-0.716l0.097,0l0.376,0.562l0,-0.562l0.091,0l0,0.716l-0.097,0l-0.376,-0.563l0,0.563l-0.091,0Z" style="fill:rgb(52,62,101);fill-rule:nonzero;"/>            </g>            <g transform="matrix(150,0,0,150,1588.13,1032.59)">                <path d="M0.077,0l0,-0.716l0.247,0c0.055,0 0.098,0.004 0.127,0.01c0.041,0.01 0.076,0.027 0.105,0.052c0.038,0.032 0.066,0.072 0.085,0.122c0.019,0.05 0.028,0.106 0.028,0.17c0,0.055 -0.006,0.103 -0.019,0.145c-0.013,0.042 -0.029,0.076 -0.049,0.104c-0.02,0.027 -0.042,0.049 -0.065,0.065c-0.024,0.016 -0.052,0.028 -0.086,0.036c-0.033,0.008 -0.071,0.012 -0.115,0.012l-0.258,0Zm0.095,-0.084l0.153,0c0.047,0 0.084,-0.005 0.111,-0.014c0.027,-0.008 0.048,-0.021 0.064,-0.037c0.022,-0.022 0.04,-0.052 0.052,-0.09c0.013,-0.038 0.019,-0.084 0.019,-0.138c0,-0.075 -0.012,-0.133 -0.037,-0.173c-0.024,-0.04 -0.054,-0.067 -0.089,-0.081c-0.026,-0.009 -0.066,-0.014 -0.123,-0.014l-0.15,0l0,0.547Z" style="fill:rgb(52,62,101);fill-rule:nonzero;"/>            </g>            <g transform="matrix(150,0,0,150,1770.73,1032.59)">                <rect x="0.093" y="-0.716" width="0.095" height="0.716" style="fill:rgb(52,62,101);fill-rule:nonzero;"/>            </g>            <g transform="matrix(150,0,0,150,1887.77,1032.59)">                <path d="M0.076,0l0,-0.716l0.097,0l0.376,0.562l0,-0.562l0.091,0l0,0.716l-0.097,0l-0.376,-0.563l0,0.563l-0.091,0Z" style="fill:rgb(52,62,101);fill-rule:nonzero;"/>            </g>            <g transform="matrix(150,0,0,150,2058.91,1032.59)">                <path d="M0.412,-0.281l0,-0.084l0.303,0l0,0.265c-0.046,0.038 -0.094,0.065 -0.144,0.084c-0.049,0.019 -0.1,0.028 -0.152,0.028c-0.07,0 -0.134,-0.015 -0.192,-0.045c-0.057,-0.03 -0.101,-0.074 -0.13,-0.131c-0.029,-0.057 -0.044,-0.12 -0.044,-0.19c0,-0.07 0.015,-0.135 0.044,-0.196c0.029,-0.06 0.071,-0.105 0.126,-0.134c0.054,-0.029 0.117,-0.044 0.189,-0.044c0.051,0 0.098,0.008 0.14,0.025c0.042,0.017 0.075,0.04 0.098,0.07c0.024,0.03 0.042,0.069 0.055,0.117l-0.086,0.024c-0.011,-0.037 -0.024,-0.065 -0.04,-0.086c-0.016,-0.021 -0.039,-0.038 -0.068,-0.05c-0.03,-0.013 -0.063,-0.019 -0.099,-0.019c-0.043,0 -0.081,0.007 -0.112,0.02c-0.032,0.013 -0.057,0.03 -0.077,0.052c-0.019,0.021 -0.034,0.045 -0.045,0.071c-0.018,0.044 -0.027,0.092 -0.027,0.144c0,0.063 0.011,0.117 0.033,0.16c0.022,0.043 0.054,0.075 0.096,0.096c0.042,0.02 0.086,0.031 0.134,0.031c0.041,0 0.081,-0.008 0.12,-0.024c0.039,-0.016 0.068,-0.033 0.089,-0.05l0,-0.134l-0.211,0Z" style="fill:rgb(52,62,101);fill-rule:nonzero;"/>            </g>        </g>    </g>    <defs>        <linearGradient id="_Linear1" x1="0" y1="0" x2="1" y2="0" gradientUnits="userSpaceOnUse" gradientTransform="matrix(138.483,202.984,-202.984,138.483,879.411,336.395)"><stop offset="0" style="stop-color:rgb(227,238,249);stop-opacity:1"/><stop offset="1" style="stop-color:rgb(139,146,152);stop-opacity:1"/></linearGradient>        <linearGradient id="_Linear2" x1="0" y1="0" x2="1" y2="0" gradientUnits="userSpaceOnUse" gradientTransform="matrix(131.475,0,0,131.475,55.7598,325.158)"><stop offset="0" style="stop-color:rgb(12,15,24);stop-opacity:1"/><stop offset="1" style="stop-color:rgb(52,62,102);stop-opacity:1"/></linearGradient>        <linearGradient id="_Linear3" x1="0" y1="0" x2="1" y2="-0.421088" gradientUnits="userSpaceOnUse" gradientTransform="matrix(-53.6663,144.93,-207.611,58.1957,99.9615,146.272)"><stop offset="0" style="stop-color:rgb(141,54,7);stop-opacity:1"/><stop offset="1" style="stop-color:rgb(234,89,13);stop-opacity:1"/></linearGradient>    </defs></svg>