<?xml version="1.0" encoding="UTF-8" standalone="no"?><!DOCTYPE svg PUBLIC "-//W3C//DTD SVG 1.1//EN" "http://www.w3.org/Graphics/SVG/1.1/DTD/svg11.dtd"><svg width="100%" height="100%" viewBox="0 0 1024 512" version="1.1" xmlns="http://www.w3.org/2000/svg" xmlns:xlink="http://www.w3.org/1999/xlink" xml:space="preserve" style="fill-rule:evenodd;clip-rule:evenodd;stroke-linejoin:round;stroke-miterlimit:2;"><title>Invest &amp; Fund</title><desc>We are a peer-to-peer marketplace helping individuals, high net worth lenders, private banks, family offices and institutions achieve attractive, risk-adjusted returns from residential development projects.Invest &amp; Fund was founded in November 2012 by David Turner, a former city trader with 30+ years’ experience and Mark Hawkins, a financial chartered accountant with 35 years’ accounting and directorship experience.</desc>    <g transform="matrix(2.25116,0,0,2.25116,2,150.196)">        <path d="M67.8,45.3l15.1,0l0,12.6l11.1,-11.1l-46.8,-46.8l-28.4,28.4l0,12.4l12.1,0l16.2,-16.2l20.7,20.7Z" style="fill:rgb(0,129,140);fill-rule:nonzero;"/>        <path d="M75.7,65.2l0,-12.6l-12,0l-16.8,16.8l-21.3,-21.3l-14.1,0l0,-12.4l-11.5,11.5l46.8,46.8l28.9,-28.8Z" style="fill:rgb(30,54,66);fill-rule:nonzero;"/>        <g>            <path d="M120.1,70.5l-4.8,0l0,-31.8l-4.4,-0.4l0,-4.2l10.2,0l0,35.3c0,0.5 -0.5,1.1 -1,1.1Zm-2,-43.4c-2.2,0 -4,-1.8 -4,-3.9c0,-2.2 1.8,-4 3.9,-4c2.3,0 4,1.8 4,4c0.1,2.1 -1.7,3.9 -3.9,3.9Z" style="fill:rgb(30,54,66);fill-rule:nonzero;"/>            <path d="M157.1,70.5l-4.8,0l0,-23.1c0,-4.6 -1.3,-8.4 -6.6,-8.4c-3.2,0 -7.1,1.4 -8.9,2.3l0,29.2l-5.9,0l0,-36.4l4.9,0l0.4,2.4c2.9,-1.4 6.3,-2.9 9.5,-2.9c8.1,0 12.4,5.9 12.4,13.2l0,22.7c0,0.4 -0.4,1 -1,1Z" style="fill:rgb(30,54,66);fill-rule:nonzero;"/>            <path d="M180.8,70.5l-6.3,0l-12.3,-36.4l6.1,0l7.3,22.5l2,7.2l2,-7.2l7.3,-22.5l6.2,0l-12.3,36.4Z" style="fill:rgb(30,54,66);fill-rule:nonzero;"/>            <path d="M223.3,53.8l-20.8,0l0,2.7c0,4.1 2.2,9.1 8.9,9.1c3.3,0 7.3,-1.2 10.5,-2.1l1.4,5.2c-2.7,0.9 -7.7,2.4 -11.9,2.4c-9.7,0 -14.7,-7.1 -14.7,-14.5l0,-8.4c0,-7.6 5.3,-14.5 14,-14.5c8.8,0 14,7.2 14,14.5l0,4.4c-0.1,0.6 -0.6,1.2 -1.4,1.2Zm-4.5,-5.7c0,-4.6 -2.3,-9.1 -8.1,-9.1c-5.7,0 -8.1,4.5 -8.1,9.1l0,1l16.2,0l0,-1Z" style="fill:rgb(30,54,66);fill-rule:nonzero;"/>            <path d="M242.2,71c-3.6,0 -7.4,-1 -10.5,-2l1,-5.3c3.1,0.9 6.2,1.9 9.5,1.9c4.6,0 6,-2.3 6,-5c0,-7.4 -15.8,-4.7 -15.8,-16.9c0,-6.3 4.9,-10.1 11.4,-10.1c3.1,0 5.3,0.4 8.9,1.8l-1.4,5.1c-2.7,-0.9 -4.8,-1.4 -7.5,-1.4c-4.1,0 -5.7,2.1 -5.7,4.6c0,7.1 15.9,4 15.9,16.9c0,6.3 -4.6,10.4 -11.8,10.4Z" style="fill:rgb(30,54,66);fill-rule:nonzero;"/>            <path d="M273.6,71c-7.3,0 -10.4,-5.3 -10.4,-10.3l0,-22.1l-5.1,0l0,-4.5l5.3,0l0.9,-11l4.8,0l0,11l8.1,0l0,4.5l-8.2,0l0,21.4c0,3.5 1.2,5.5 4.6,5.5c1.4,0 2.6,-0.1 4.4,-0.5l0.6,5.2c-1.6,0.5 -3.5,0.8 -5,0.8Z" style="fill:rgb(30,54,66);fill-rule:nonzero;"/>            <path d="M313.3,63.6c-3.6,3.8 -7.9,7.6 -14.8,7.6c-7,0 -12.8,-5.7 -12.8,-12.8c0,-2.6 0.8,-5.2 2.2,-7.4c2.1,-3.2 5.3,-5.5 7.7,-7l-2.2,-2.5c-2.6,-2.9 -3.9,-5.8 -3.9,-8.9c0,-5.9 4.8,-10.7 10.7,-10.7c5.9,0 10.7,4.8 10.7,10.7c0,1.3 -1,2.3 -2.3,2.3c-1.3,0 -2.3,-1 -2.3,-2.3c0,-3.5 -2.7,-6.3 -6.1,-6.3c-3.3,0 -6.1,2.9 -6.1,6.3c0,1.8 0.9,3.8 2.7,5.7l16.4,18.2l6.1,-7.4c0.5,-0.6 1.2,-0.9 1.8,-0.9c1.2,0 2.3,1 2.3,2.3c0,0.5 -0.1,1 -0.5,1.4l-6.6,8l6.5,7.2c0.4,0.4 0.5,1 0.5,1.5c0,1.2 -0.9,2.4 -2.3,2.4c-0.6,0 -1.3,-0.3 -1.8,-0.8l-5.9,-6.6Zm-14.7,-16.3c-2.1,1.3 -5.1,3.3 -6.8,6.1c-1,1.4 -1.4,3.3 -1.4,5c0,4.4 3.6,8.5 8.1,8.5c4.9,0 8,-2.8 11.7,-6.8l-11.6,-12.8Z" style="fill:rgb(0,129,140);fill-rule:nonzero;"/>            <path d="M348.6,24.9c-2.3,-0.5 -3.8,-0.6 -4.7,-0.6c-3.4,0 -5.2,1.4 -5.2,6.3l0,3.5l9.2,0l0,4.5l-9.1,0l0,30.8c0,0.5 -0.5,1.1 -1,1.1l-4.8,0l0,-31.8l-5.8,-0.4l0,-4.2l5.7,0l0,-3.9c0,-6.9 4,-11.3 11,-11.3c1.9,0 3.8,0.3 5.7,0.8l-1,5.2Z" style="fill:rgb(30,54,66);fill-rule:nonzero;"/>            <path d="M377.9,70.5l-0.4,-2.4c-2.9,1.4 -6.3,2.9 -9.5,2.9c-8.1,0 -12.4,-5.9 -12.4,-13.2l0,-22.4c0,-0.7 0.5,-1.4 1.2,-1.4l4.6,0l0,23.1c0,4.6 1.3,8.4 6.5,8.4c3.2,0 7.1,-1.4 8.9,-2.3l0,-29.1l5.9,0l0,36.4l-4.8,0Z" style="fill:rgb(30,54,66);fill-rule:nonzero;"/>            <path d="M417.1,70.5l-4.8,0l0,-23.1c0,-4.6 -1.3,-8.4 -6.6,-8.4c-3.2,0 -7.1,1.4 -8.9,2.3l0,29.2l-5.9,0l0,-36.4l4.9,0l0.4,2.4c2.9,-1.4 6.3,-2.9 9.5,-2.9c8.1,0 12.4,5.9 12.4,13.2l0,22.7c0,0.4 -0.4,1 -1,1Z" style="fill:rgb(30,54,66);fill-rule:nonzero;"/>            <path d="M448.2,70.5l-0.4,-2.4c-2.9,1.4 -6.2,2.9 -9.4,2.9c-8.4,0 -13.5,-6 -13.5,-13.3l0,-10.8c0,-7.4 5.1,-13.4 13.5,-13.4c3,0 6.3,1.3 9.1,2.5c-0.3,-3.8 -0.3,-7.9 -0.3,-7.9l0,-8.7l5.9,0l0,51.1l-4.9,0Zm-1.1,-29.4c-1.8,-0.9 -5.5,-2.1 -8.7,-2.1c-5.4,0 -7.6,3.6 -7.6,8.9l0,8.9c0,5.3 2.5,8.7 7.6,8.7c2.9,0 6.8,-1.4 8.7,-2.4l0,-22Z" style="fill:rgb(30,54,66);fill-rule:nonzero;"/>        </g>    </g></svg>