<?xml version="1.0" encoding="UTF-8" standalone="no"?><!DOCTYPE svg PUBLIC "-//W3C//DTD SVG 1.1//EN" "http://www.w3.org/Graphics/SVG/1.1/DTD/svg11.dtd"><svg width="100%" height="100%" viewBox="0 0 1024 512" version="1.1" xmlns="http://www.w3.org/2000/svg" xmlns:xlink="http://www.w3.org/1999/xlink" xml:space="preserve" style="fill-rule:evenodd;clip-rule:evenodd;stroke-linejoin:round;stroke-miterlimit:2;"><title>Downing</title><desc>At Downing, we aim to make a difference in the lives of our investment community. We design investment products that help investors look after their financial wellbeing, while our investment partnerships support businesses in their ambitions.In uniting the two, we build lasting relationships that become the foundation of our investment community. And in our openness to learn how to develop these we continue to evolve. We value flexibility, transparency and integrity in everything we do.</desc>    <g id="LogoAW" transform="matrix(2.19096,0,0,2.19096,2,46.4569)">        <path d="M0,95.55l25.42,0c4.751,0.009 9.483,0.62 14.08,1.82c4.606,1.144 8.941,3.183 12.76,6c3.879,2.908 7.035,6.673 9.22,11c2.36,4.547 3.54,10.213 3.54,17c0.15,5.61 -1.065,11.173 -3.54,16.21c-2.219,4.344 -5.367,8.148 -9.22,11.14c-3.814,2.921 -8.142,5.103 -12.76,6.43c-4.57,1.36 -9.312,2.061 -14.08,2.08l-25.42,0l0,-71.68Zm23.4,60.56c3.338,0.015 6.667,-0.357 9.92,-1.11c3.224,-0.731 6.279,-2.071 9,-3.95c2.75,-1.957 4.989,-4.547 6.53,-7.55c1.808,-3.734 2.677,-7.854 2.53,-12c0,-5.133 -0.843,-9.32 -2.53,-12.56c-1.515,-3.034 -3.759,-5.645 -6.53,-7.6c-2.717,-1.841 -5.778,-3.113 -9,-3.74c-3.264,-0.668 -6.588,-1.003 -9.92,-1l-10.64,0l0,49.63l10.64,-0.12Z" style="fill-rule:nonzero;"/>        <path d="M69.92,142.49c-0.048,-3.604 0.661,-7.177 2.08,-10.49c1.318,-3.016 3.229,-5.737 5.62,-8c2.418,-2.278 5.267,-4.049 8.38,-5.21c6.671,-2.426 13.989,-2.426 20.66,0c3.12,1.145 5.98,2.903 8.41,5.17c2.394,2.26 4.306,4.982 5.62,8c1.418,3.309 2.127,6.88 2.08,10.48c0.054,3.625 -0.648,7.221 -2.06,10.56c-1.307,3.069 -3.218,5.845 -5.62,8.16c-2.434,2.3 -5.29,4.106 -8.41,5.32c-6.647,2.559 -14.013,2.559 -20.66,0c-3.12,-1.214 -5.976,-3.02 -8.41,-5.32c-2.395,-2.319 -4.303,-5.093 -5.61,-8.16c-1.412,-3.322 -2.121,-6.901 -2.08,-10.51Zm12.35,0c0.007,1.922 0.296,3.833 0.86,5.67c0.549,1.833 1.427,3.551 2.59,5.07c1.173,1.511 2.656,2.752 4.35,3.64c3.97,1.892 8.59,1.892 12.56,0c1.695,-0.89 3.181,-2.131 4.36,-3.64c1.156,-1.522 2.03,-3.239 2.58,-5.07c0.564,-1.837 0.853,-3.748 0.86,-5.67c-0.004,-1.906 -0.294,-3.8 -0.86,-5.62c-0.556,-1.807 -1.429,-3.5 -2.58,-5c-1.169,-1.507 -2.659,-2.737 -4.36,-3.6c-3.985,-1.825 -8.575,-1.825 -12.56,0c-1.7,0.861 -3.187,2.091 -4.35,3.6c-1.158,1.497 -2.035,3.191 -2.59,5c-0.566,1.82 -0.856,3.714 -0.86,5.62Z" style="fill-rule:nonzero;"/>        <path d="M122.79,118.39l13.21,0l10.13,34.84l0.2,0l10.44,-34.84l13,0l10.53,34.84l0.21,0l10.33,-34.84l12.66,0l-16.9,48.61l-12.36,0l-11,-34l-0.24,0l-10.94,34l-12.36,0l-16.91,-48.61Z" style="fill-rule:nonzero;"/>        <path d="M207.84,118.39l11.55,0l0,7.79l0.2,0c1.244,-2.621 3.189,-4.847 5.62,-6.43c2.79,-1.889 6.102,-2.861 9.47,-2.78c2.809,-0.08 5.599,0.492 8.15,1.67c2.164,1.034 4.067,2.541 5.57,4.41c1.472,1.856 2.556,3.988 3.19,6.27c0.674,2.374 1.011,4.832 1,7.3l0,30.38l-12.14,0l0,-26.94c-0.005,-1.492 -0.105,-2.981 -0.3,-4.46c-0.175,-1.47 -0.622,-2.894 -1.32,-4.2c-0.663,-1.24 -1.617,-2.3 -2.78,-3.09c-1.412,-0.868 -3.054,-1.29 -4.71,-1.21c-1.76,-0.045 -3.504,0.354 -5.07,1.16c-1.365,0.738 -2.556,1.761 -3.49,3c-0.938,1.265 -1.643,2.687 -2.08,4.2c-0.468,1.561 -0.707,3.181 -0.71,4.81l0,26.73l-12.15,0l0,-48.61Z" style="fill-rule:nonzero;"/>        <path d="M259.7,101.88c-0.012,-1.934 0.778,-3.789 2.18,-5.12c1.46,-1.456 3.459,-2.246 5.52,-2.18c2.064,-0.051 4.07,0.695 5.6,2.08c1.454,1.343 2.282,3.235 2.282,5.215c0,1.98 -0.828,3.872 -2.282,5.215c-1.533,1.395 -3.549,2.141 -5.62,2.08c-2.061,0.066 -4.06,-0.724 -5.52,-2.18c-1.392,-1.333 -2.175,-3.183 -2.16,-5.11Zm1.72,16.51l12.16,0l0,48.61l-12.16,0l0,-48.61Z" style="fill-rule:nonzero;"/>        <path d="M283.12,118.39l11.55,0l0,7.79l0.2,0c1.244,-2.621 3.189,-4.847 5.62,-6.43c2.805,-1.886 6.131,-2.848 9.51,-2.75c2.809,-0.08 5.599,0.492 8.15,1.67c2.164,1.034 4.067,2.541 5.57,4.41c1.475,1.853 2.56,3.986 3.19,6.27c0.674,2.374 1.011,4.832 1,7.3l0,30.35l-12.18,0l0,-26.94c-0.005,-1.492 -0.105,-2.981 -0.3,-4.46c-0.175,-1.47 -0.622,-2.894 -1.32,-4.2c-0.663,-1.24 -1.617,-2.3 -2.78,-3.09c-1.411,-0.871 -3.054,-1.293 -4.71,-1.21c-1.76,-0.045 -3.504,0.354 -5.07,1.16c-1.365,0.738 -2.556,1.761 -3.49,3c-0.934,1.267 -1.638,2.689 -2.08,4.2c-0.464,1.561 -0.7,3.181 -0.7,4.81l0,26.73l-12.16,0l0,-48.61Z" style="fill-rule:nonzero;"/>        <path d="M387.42,118.39l0,44.26c0.05,4.025 -0.496,8.035 -1.62,11.9c-0.971,3.337 -2.68,6.413 -5,9c-2.372,2.543 -5.303,4.502 -8.56,5.72c-3.923,1.424 -8.078,2.102 -12.25,2c-2.087,-0.01 -4.169,-0.181 -6.23,-0.51c-2.197,-0.331 -4.365,-0.839 -6.48,-1.52c-2.113,-0.662 -4.165,-1.509 -6.13,-2.53c-1.875,-0.955 -3.642,-2.108 -5.27,-3.44l7,-9.42c2.316,2.199 5.032,3.933 8,5.11c2.858,1.165 5.914,1.769 9,1.78c2.507,0.068 5.002,-0.364 7.34,-1.27c1.86,-0.736 3.504,-1.929 4.78,-3.47c1.217,-1.559 2.081,-3.364 2.53,-5.29c0.528,-2.197 0.783,-4.451 0.76,-6.71l0,-3.55l-0.2,0c-1.741,2.37 -4.062,4.254 -6.74,5.47c-2.879,1.29 -6.005,1.936 -9.16,1.89c-3.415,0.056 -6.803,-0.626 -9.93,-2c-2.866,-1.279 -5.434,-3.142 -7.54,-5.47c-2.092,-2.342 -3.727,-5.056 -4.82,-8c-1.153,-3.131 -1.736,-6.443 -1.72,-9.78c-0.021,-3.378 0.544,-6.735 1.67,-9.92c1.049,-2.985 2.665,-5.739 4.76,-8.11c2.097,-2.32 4.65,-4.183 7.5,-5.47c3.109,-1.377 6.481,-2.059 9.88,-2c3.325,-0.024 6.613,0.701 9.62,2.12c2.975,1.428 5.448,3.727 7.09,6.59l0.2,0l0,-7.29l11.52,-0.09Zm-25.93,8.5c-2.043,-0.038 -4.068,0.379 -5.93,1.22c-1.67,0.766 -3.154,1.885 -4.35,3.28c-1.221,1.438 -2.151,3.098 -2.74,4.89c-0.664,1.951 -1.002,3.999 -1,6.06c0.008,1.927 0.346,3.838 1,5.65c0.617,1.782 1.545,3.441 2.74,4.9c1.187,1.455 2.67,2.642 4.35,3.48c1.81,0.898 3.81,1.347 5.83,1.31c4.05,0.072 7.933,-1.641 10.61,-4.68c1.265,-1.436 2.245,-3.099 2.89,-4.9c0.67,-1.86 1.009,-3.823 1,-5.8c0.016,-2.043 -0.323,-4.073 -1,-6c-0.64,-1.816 -1.621,-3.493 -2.89,-4.94c-1.248,-1.42 -2.786,-2.555 -4.51,-3.33c-1.892,-0.815 -3.941,-1.204 -6,-1.14Z" style="fill-rule:nonzero;"/>        <path d="M465.55,107.12l0,35.71l-30.92,-17.85l-30.93,-17.86l30.93,-17.85l30.92,-17.85l0,35.7Z" style="fill:url(#_Linear1);fill-rule:nonzero;"/>        <path d="M465.55,121.41l0,7.14l-6.18,-3.57l-6.19,-3.57l6.19,-3.57l6.18,-3.57l0,7.14Z" style="fill:rgb(41,177,155);fill-rule:nonzero;"/>        <path d="M465.55,107.12l0,7.15l-6.18,-3.58l-6.19,-3.57l6.19,-3.57l6.18,-3.57l0,7.14Z" style="fill:rgb(59,176,140);fill-rule:nonzero;"/>        <path d="M465.55,92.84l0,7.14l-6.18,-3.57l-6.19,-3.57l6.19,-3.57l6.18,-3.57l0,7.14Z" style="fill:rgb(94,181,118);fill-rule:nonzero;"/>        <path d="M465.55,78.56l0,7.14l-6.18,-3.57l-6.19,-3.57l6.19,-3.57l6.18,-3.57l0,7.14Z" style="fill:rgb(110,183,94);fill-rule:nonzero;"/>        <path d="M453.18,128.55l0,7.14l-6.18,-3.57l-6.19,-3.57l6.19,-3.57l6.18,-3.57l0,7.14Z" style="fill:rgb(32,175,152);fill-rule:nonzero;"/>        <path d="M453.18,114.27l0,7.14l-6.18,-3.57l-6.19,-3.57l6.19,-3.58l6.18,-3.57l0,7.15Z" style="fill:rgb(52,177,144);fill-rule:nonzero;"/>        <path d="M453.18,99.98l0,7.14l-6.18,-3.57l-6.19,-3.57l6.19,-3.57l6.18,-3.57l0,7.14Z" style="fill:rgb(76,178,123);fill-rule:nonzero;"/>        <path d="M453.18,85.7l0,7.14l-6.18,-3.57l-6.19,-3.57l6.19,-3.57l6.18,-3.57l0,7.14Z" style="fill:rgb(97,180,90);fill-rule:nonzero;"/>        <path d="M453.18,85.7l0,-7.14l6.19,3.57l6.18,3.57l-6.18,3.57l-6.19,3.57l0,-7.14Z" style="fill:rgb(114,185,108);fill-rule:nonzero;"/>        <path d="M453.18,99.98l0,-7.14l6.19,3.57l6.18,3.57l-6.18,3.57l-6.19,3.57l0,-7.14Z" style="fill:rgb(96,182,128);fill-rule:nonzero;"/>        <path d="M453.18,114.27l0,-7.15l6.19,3.57l6.18,3.58l-6.18,3.57l-6.19,3.57l0,-7.14Z" style="fill:rgb(71,178,138);fill-rule:nonzero;"/>        <path d="M453.18,128.55l0,-7.14l6.19,3.57l6.18,3.57l-6.18,3.57l-6.19,3.57l0,-7.14Z" style="fill:rgb(58,178,148);fill-rule:nonzero;"/>        <path d="M440.81,121.41l0,7.14l-6.18,-3.57l-6.19,-3.57l6.19,-3.57l6.18,-3.57l0,7.14Z" style="fill:rgb(64,178,145);fill-rule:nonzero;"/>        <path d="M440.81,107.12l0,7.15l-6.18,-3.58l-6.19,-3.57l6.19,-3.57l6.18,-3.57l0,7.14Z" style="fill:rgb(79,179,122);fill-rule:nonzero;"/>        <path d="M440.81,92.84l0,7.14l-6.18,-3.57l-6.19,-3.57l6.19,-3.57l6.18,-3.57l0,7.14Z" style="fill:rgb(95,179,100);fill-rule:nonzero;"/>        <path d="M440.81,92.84l0,-7.14l6.19,3.57l6.18,3.57l-6.18,3.57l-6.19,3.57l0,-7.14Z" style="fill:rgb(107,183,108);fill-rule:nonzero;"/>        <path d="M440.81,107.12l0,-7.14l6.19,3.57l6.18,3.57l-6.18,3.57l-6.19,3.58l0,-7.15Z" style="fill:rgb(91,181,126);fill-rule:nonzero;"/>        <path d="M440.81,121.41l0,-7.14l6.19,3.57l6.18,3.57l-6.18,3.57l-6.19,3.57l0,-7.14Z" style="fill:rgb(74,179,141);fill-rule:nonzero;"/>        <path d="M428.44,114.27l0,7.14l-6.18,-3.57l-6.19,-3.57l6.19,-3.58l6.18,-3.57l0,7.15Z" style="fill:rgb(81,178,118);fill-rule:nonzero;"/>        <path d="M428.44,99.98l0,7.14l-6.18,-3.57l-6.19,-3.57l6.19,-3.57l6.18,-3.57l0,7.14Z" style="fill:rgb(87,177,101);fill-rule:nonzero;"/>        <path d="M428.44,99.98l0,-7.14l6.19,3.57l6.18,3.57l-6.18,3.57l-6.19,3.57l0,-7.14Z" style="fill:rgb(105,183,115);fill-rule:nonzero;"/>        <path d="M428.44,114.27l0,-7.15l6.19,3.57l6.18,3.58l-6.18,3.57l-6.19,3.57l0,-7.14Z" style="fill:rgb(95,183,131);fill-rule:nonzero;"/>        <path d="M416.07,107.12l0,7.15l-6.18,-3.58l-6.19,-3.57l6.19,-3.57l6.18,-3.57l0,7.14Z" style="fill:rgb(71,174,97);fill-rule:nonzero;"/>        <path d="M416.07,107.12l0,-7.14l6.19,3.57l6.18,3.57l-6.18,3.57l-6.19,3.58l0,-7.15Z" style="fill:rgb(98,181,111);fill-rule:nonzero;"/>        <path d="M465.55,135.69l0,7.14l-6.18,-3.57l-6.19,-3.57l6.19,-3.57l6.18,-3.57l0,7.14Z" style="fill:rgb(0,172,169);fill-rule:nonzero;"/>        <path d="M403.7,71.41l0,35.71l30.93,-17.85l30.92,-17.86l-30.92,-17.85l-30.93,-17.86l0,35.71Z" style="fill:url(#_Linear2);fill-rule:nonzero;"/>        <path d="M403.7,99.98l0,7.14l6.19,-3.57l6.18,-3.57l-6.18,-3.57l-6.19,-3.57l0,7.14Z" style="fill:rgb(0,90,77);fill-rule:nonzero;"/>        <path d="M403.7,85.7l0,7.14l6.19,-3.57l6.18,-3.57l-6.18,-3.57l-6.19,-3.57l0,7.14Z" style="fill:rgb(10,102,79);fill-rule:nonzero;"/>        <path d="M403.7,71.42l0,7.14l6.19,-3.57l6.18,-3.57l-6.18,-3.58l-6.19,-3.57l0,7.15Z" style="fill:rgb(25,130,74);fill-rule:nonzero;"/>        <path d="M403.7,57.13l0,7.14l6.19,-3.57l6.18,-3.57l-6.18,-3.57l-6.19,-3.57l0,7.14Z" style="fill:rgb(52,151,63);fill-rule:nonzero;"/>        <path d="M403.7,42.85l0,7.14l6.19,-3.57l6.18,-3.57l-6.18,-3.57l-6.19,-3.57l0,7.14Z" style="fill:rgb(87,173,50);fill-rule:nonzero;"/>        <path d="M416.07,92.84l0,7.14l6.19,-3.57l6.18,-3.57l-6.18,-3.57l-6.19,-3.57l0,7.14Z" style="fill:rgb(10,102,79);fill-rule:nonzero;"/>        <path d="M416.07,78.56l0,7.14l6.19,-3.57l6.18,-3.57l-6.18,-3.57l-6.19,-3.57l0,7.14Z" style="fill:rgb(26,130,74);fill-rule:nonzero;"/>        <path d="M416.07,64.27l0,7.15l6.19,-3.58l6.18,-3.57l-6.18,-3.57l-6.19,-3.57l0,7.14Z" style="fill:rgb(52,151,63);fill-rule:nonzero;"/>        <path d="M416.07,49.99l0,7.14l6.19,-3.57l6.18,-3.57l-6.18,-3.57l-6.19,-3.57l0,7.14Z" style="fill:rgb(87,173,50);fill-rule:nonzero;"/>        <path d="M416.07,49.99l0,-7.14l-6.18,3.57l-6.19,3.57l6.19,3.57l6.18,3.57l0,-7.14Z" style="fill:rgb(65,168,55);fill-rule:nonzero;"/>        <path d="M416.07,64.27l0,-7.14l-6.18,3.57l-6.19,3.57l6.19,3.57l6.18,3.58l0,-7.15Z" style="fill:rgb(44,144,66);fill-rule:nonzero;"/>        <path d="M416.07,78.56l0,-7.14l-6.18,3.57l-6.19,3.57l6.19,3.57l6.18,3.57l0,-7.14Z" style="fill:rgb(12,123,76);fill-rule:nonzero;"/>        <path d="M416.07,92.84l0,-7.14l-6.18,3.57l-6.19,3.57l6.19,3.57l6.18,3.57l0,-7.14Z" style="fill:rgb(9,107,78);fill-rule:nonzero;"/>        <path d="M428.44,85.7l0,7.14l6.19,-3.57l6.18,-3.57l-6.18,-3.57l-6.19,-3.57l0,7.14Z" style="fill:rgb(28,130,75);fill-rule:nonzero;"/>        <path d="M428.44,71.42l0,7.14l6.19,-3.57l6.18,-3.57l-6.18,-3.58l-6.19,-3.57l0,7.15Z" style="fill:rgb(52,151,63);fill-rule:nonzero;"/>        <path d="M428.44,57.13l0,7.14l6.19,-3.57l6.18,-3.57l-6.18,-3.57l-6.19,-3.57l0,7.14Z" style="fill:rgb(87,173,50);fill-rule:nonzero;"/>        <path d="M428.44,57.13l0,-7.14l-6.18,3.57l-6.19,3.57l6.19,3.57l6.18,3.57l0,-7.14Z" style="fill:rgb(65,168,55);fill-rule:nonzero;"/>        <path d="M428.44,71.42l0,-7.15l-6.18,3.57l-6.19,3.58l6.19,3.57l6.18,3.57l0,-7.14Z" style="fill:rgb(44,144,66);fill-rule:nonzero;"/>        <path d="M428.44,85.7l0,-7.14l-6.18,3.57l-6.19,3.57l6.19,3.57l6.18,3.57l0,-7.14Z" style="fill:rgb(21,127,77);fill-rule:nonzero;"/>        <path d="M440.81,78.56l0,7.14l6.19,-3.57l6.18,-3.57l-6.18,-3.57l-6.19,-3.57l0,7.14Z" style="fill:rgb(52,151,63);fill-rule:nonzero;"/>        <path d="M440.81,64.27l0,7.15l6.19,-3.58l6.18,-3.57l-6.18,-3.57l-6.19,-3.57l0,7.14Z" style="fill:rgb(71,171,54);fill-rule:nonzero;"/>        <path d="M440.81,64.27l0,-7.14l-6.18,3.57l-6.19,3.57l6.19,3.57l6.18,3.58l0,-7.15Z" style="fill:rgb(65,168,55);fill-rule:nonzero;"/>        <path d="M440.81,78.56l0,-7.14l-6.18,3.57l-6.19,3.57l6.19,3.57l6.18,3.57l0,-7.14Z" style="fill:rgb(44,144,66);fill-rule:nonzero;"/>        <path d="M453.18,71.42l0,7.14l6.19,-3.57l6.18,-3.57l-6.18,-3.58l-6.19,-3.57l0,7.15Z" style="fill:rgb(63,157,54);fill-rule:nonzero;"/>        <path d="M453.18,71.42l0,-7.15l-6.18,3.57l-6.19,3.58l6.19,3.57l6.18,3.57l0,-7.14Z" style="fill:rgb(66,164,54);fill-rule:nonzero;"/>        <path d="M465.55,35.71l0,35.71l-30.92,-17.86l-30.93,-17.85l30.93,-17.86l30.92,-17.85l0,35.71Z" style="fill:url(#_Linear3);fill-rule:nonzero;"/>        <path d="M465.55,64.27l0,7.15l-6.18,-3.58l-6.19,-3.57l6.19,-3.57l6.18,-3.57l0,7.14Z" style="fill:rgb(124,184,63);fill-rule:nonzero;"/>        <path d="M465.55,49.99l0,7.14l-6.18,-3.57l-6.19,-3.57l6.19,-3.57l6.18,-3.57l0,7.14Z" style="fill:rgb(123,184,59);fill-rule:nonzero;"/>        <path d="M465.55,35.71l0,7.14l-6.18,-3.57l-6.19,-3.57l6.19,-3.57l6.18,-3.57l0,7.14Z" style="fill:rgb(123,184,56);fill-rule:nonzero;"/>        <path d="M465.55,21.43l0,7.14l-6.18,-3.57l-6.19,-3.57l6.19,-3.58l6.18,-3.57l0,7.15Z" style="fill:rgb(125,184,48);fill-rule:nonzero;"/>        <path d="M465.55,7.14l0,7.14l-6.18,-3.57l-6.19,-3.57l6.19,-3.57l6.18,-3.57l0,7.14Z" style="fill:rgb(127,185,46);fill-rule:nonzero;"/>        <path d="M453.18,57.13l0,7.14l-6.18,-3.57l-6.19,-3.57l6.19,-3.57l6.18,-3.57l0,7.14Z" style="fill:rgb(146,190,48);fill-rule:nonzero;"/>        <path d="M453.18,42.85l0,7.14l-6.18,-3.57l-6.19,-3.57l6.19,-3.57l6.18,-3.57l0,7.14Z" style="fill:rgb(150,190,49);fill-rule:nonzero;"/>        <path d="M453.18,28.57l0,7.14l-6.18,-3.57l-6.19,-3.57l6.19,-3.57l6.18,-3.57l0,7.14Z" style="fill:rgb(146,190,48);fill-rule:nonzero;"/>        <path d="M453.18,14.28l0,7.15l-6.18,-3.58l-6.19,-3.57l6.19,-3.57l6.18,-3.57l0,7.14Z" style="fill:rgb(160,194,45);fill-rule:nonzero;"/>        <path d="M453.18,14.28l0,-7.14l6.19,3.57l6.18,3.57l-6.18,3.57l-6.19,3.58l0,-7.15Z" style="fill:rgb(139,189,55);fill-rule:nonzero;"/>        <path d="M453.18,28.57l0,-7.14l6.19,3.57l6.18,3.57l-6.18,3.57l-6.19,3.57l0,-7.14Z" style="fill:rgb(140,188,49);fill-rule:nonzero;"/>        <path d="M453.18,42.85l0,-7.14l6.19,3.57l6.18,3.57l-6.18,3.57l-6.19,3.57l0,-7.14Z" style="fill:rgb(135,186,49);fill-rule:nonzero;"/>        <path d="M453.18,57.13l0,-7.14l6.19,3.57l6.18,3.57l-6.18,3.57l-6.19,3.57l0,-7.14Z" style="fill:rgb(138,188,61);fill-rule:nonzero;"/>        <path d="M440.81,49.99l0,7.14l-6.18,-3.57l-6.19,-3.57l6.19,-3.57l6.18,-3.57l0,7.14Z" style="fill:rgb(177,200,55);fill-rule:nonzero;"/>        <path d="M440.81,35.71l0,7.14l-6.18,-3.57l-6.19,-3.57l6.19,-3.57l6.18,-3.57l0,7.14Z" style="fill:rgb(188,203,53);fill-rule:nonzero;"/>        <path d="M440.81,21.43l0,7.14l-6.18,-3.57l-6.19,-3.57l6.19,-3.58l6.18,-3.57l0,7.15Z" style="fill:rgb(179,201,55);fill-rule:nonzero;"/>        <path d="M440.81,21.43l0,-7.15l6.19,3.57l6.18,3.58l-6.18,3.57l-6.19,3.57l0,-7.14Z" style="fill:rgb(160,195,53);fill-rule:nonzero;"/>        <path d="M440.81,35.71l0,-7.14l6.19,3.57l6.18,3.57l-6.18,3.57l-6.19,3.57l0,-7.14Z" style="fill:rgb(165,195,53);fill-rule:nonzero;"/>        <path d="M440.81,49.99l0,-7.14l6.19,3.57l6.18,3.57l-6.18,3.57l-6.19,3.57l0,-7.14Z" style="fill:rgb(167,196,53);fill-rule:nonzero;"/>        <path d="M428.44,42.85l0,7.14l-6.18,-3.57l-6.19,-3.57l6.19,-3.57l6.18,-3.57l0,7.14Z" style="fill:rgb(213,210,48);fill-rule:nonzero;"/>        <path d="M428.44,28.57l0,7.14l-6.18,-3.57l-6.19,-3.57l6.19,-3.57l6.18,-3.57l0,7.14Z" style="fill:rgb(214,210,48);fill-rule:nonzero;"/>        <path d="M428.44,28.57l0,-7.14l6.19,3.57l6.18,3.57l-6.18,3.57l-6.19,3.57l0,-7.14Z" style="fill:rgb(199,207,54);fill-rule:nonzero;"/>        <path d="M428.44,42.85l0,-7.14l6.19,3.57l6.18,3.57l-6.18,3.57l-6.19,3.57l0,-7.14Z" style="fill:rgb(204,209,58);fill-rule:nonzero;"/>        <path d="M416.07,35.71l0,7.14l-6.18,-3.57l-6.19,-3.57l6.19,-3.57l6.18,-3.57l0,7.14Z" style="fill:rgb(242,225,65);fill-rule:nonzero;"/>        <path d="M416.07,35.71l0,-7.14l6.19,3.57l6.18,3.57l-6.18,3.57l-6.19,3.57l0,-7.14Z" style="fill:rgb(218,213,59);fill-rule:nonzero;"/>    </g>    <defs>        <linearGradient id="_Linear1" x1="0" y1="0" x2="1" y2="0" gradientUnits="userSpaceOnUse" gradientTransform="matrix(-34.54,-57.99,57.99,-34.54,461.65,134.64)"><stop offset="0" style="stop-color:rgb(0,169,166);stop-opacity:1"/><stop offset="1" style="stop-color:rgb(71,171,53);stop-opacity:1"/></linearGradient>        <linearGradient id="_Linear2" x1="0" y1="0" x2="1" y2="0" gradientUnits="userSpaceOnUse" gradientTransform="matrix(24.35,-36.39,36.39,24.35,408.66,92.37)"><stop offset="0" style="stop-color:rgb(0,90,77);stop-opacity:1"/><stop offset="0.26" style="stop-color:rgb(27,121,68);stop-opacity:1"/><stop offset="0.55" style="stop-color:rgb(51,149,60);stop-opacity:1"/><stop offset="0.81" style="stop-color:rgb(66,165,55);stop-opacity:1"/><stop offset="1" style="stop-color:rgb(71,171,53);stop-opacity:1"/></linearGradient>        <linearGradient id="_Linear3" x1="0" y1="0" x2="1" y2="0" gradientUnits="userSpaceOnUse" gradientTransform="matrix(61.85,0,0,61.85,403.7,35.71)"><stop offset="0" style="stop-color:rgb(250,226,66);stop-opacity:1"/><stop offset="0.14" style="stop-color:rgb(241,223,64);stop-opacity:1"/><stop offset="0.36" style="stop-color:rgb(217,215,60);stop-opacity:1"/><stop offset="0.65" style="stop-color:rgb(178,202,53);stop-opacity:1"/><stop offset="0.97" style="stop-color:rgb(125,184,44);stop-opacity:1"/><stop offset="1" style="stop-color:rgb(120,182,43);stop-opacity:1"/></linearGradient>    </defs></svg>