<?xml version="1.0" encoding="UTF-8" standalone="no"?><!DOCTYPE svg PUBLIC "-//W3C//DTD SVG 1.1//EN" "http://www.w3.org/Graphics/SVG/1.1/DTD/svg11.dtd"><svg width="100%" height="100%" viewBox="0 0 1024 512" version="1.1" xmlns="http://www.w3.org/2000/svg" xmlns:xlink="http://www.w3.org/1999/xlink" xml:space="preserve" style="fill-rule:evenodd;clip-rule:evenodd;stroke-linejoin:round;stroke-miterlimit:2;"><title>Trufis</title><desc>Trufis is a peer-to-peer lending and borrowing marketplace where individual and institutional investors can lend money to individuals and business borrowers through our highly automated proprietary technology platform. At Trufis we are committed to provide highly competitive consumer finance and commercial products to our lenders and borrowers.Trufis technology platform aims to provide fast, secure and resilient marketplace to our customers so that they can lend and borrow through efficient use of technology.</desc>    <g transform="matrix(1.3826,0,0,1.3826,-535.674,-294.947)">        <path d="M389.009,364.69l-0.122,28.909l37.029,-2.381l3.946,-19.841l0,96.877l26.275,0c0,0 5.542,-0.71 7.708,-5.961c2.165,-5.25 2.335,-6.744 2.335,-6.744l0,-68.705l39.139,-2.581l1.902,-28.859c0,0 -37.567,-1.556 -67.203,2.042c-11.503,1.396 -51.009,7.244 -51.009,7.244Z" style="fill:rgb(50,55,113);"/>        <path d="M516.537,364.515l-0.079,103.821l25.169,-0.717c0,0 5.6,-0.91 8.949,-4.565c2.259,-2.465 2.55,-5.996 2.55,-5.996l0.282,-23.486l-16.354,-3.216c0,0 23.468,-2.254 33.5,3.355c10.033,5.609 14.815,30.088 23.234,32.065c8.42,1.977 38.945,1.167 38.945,1.167c0,0 -5.268,-8.715 -8.885,-15.612c-3.618,-6.896 -10.393,-22.073 -15.08,-23.293c-4.688,-1.221 -9.068,-1.796 -9.068,-1.796c0,0 14.287,-1.6 18.267,-4.501c3.98,-2.902 16.31,-15.231 14.654,-33.121c-0.791,-8.544 -0.164,-28.423 -35.04,-32.833c-26.142,-3.306 -81.044,8.728 -81.044,8.728Zm37.028,25.95l-0.137,10.294c0,0 28.925,0.377 33.871,-0.363c4.946,-0.741 8.357,-3.145 8.034,-6.318c-0.324,-3.174 -1.261,-6.954 -7.306,-7.529c-9.428,-0.897 -34.462,3.916 -34.462,3.916Z" style="fill:rgb(50,55,113);"/>        <path d="M642.979,370.791l1.069,70.381c0,0 1.235,13.457 11.092,19.782c9.856,6.325 17.851,6.699 17.851,6.699l56.73,0.176c0,0 13.249,-4.262 19.489,-10.163c6.24,-5.901 10.328,-16.014 10.328,-16.014l0.66,-87.138c0,0 -34.684,7.122 -37.327,9.647c-0.536,3.788 -0.139,65.477 -0.139,65.477c0,0 -0.481,6.726 -7.898,8.358c-7.417,1.632 -30.773,1.08 -30.773,1.08l-3.721,16.316c0,0 -0.361,-78.548 -0.361,-94.524c-13.933,1.483 -37,9.923 -37,9.923Z" style="fill:rgb(50,55,113);"/>        <path d="M770.534,364.685l0,103.144l24.7,-0.52c0,0 4.741,0.31 9.12,-4.946c2.962,-3.557 2.659,-10.066 2.659,-10.066l0.909,-18.689l78.9,-6.04l0.025,-30.404l-79.265,5.584l-0.309,-29.785l3.896,17.045l75.035,-5.12l-0.194,-29.443c0,0 -49.125,0.835 -73.395,1.947c-14.075,0.645 -42.081,7.293 -42.081,7.293Z" style="fill:rgb(50,55,113);"/>        <path d="M896.897,365.113l0,102.811l26.237,0.47c0,0 4.72,-0.027 8.07,-5.167c2.97,-4.558 3.47,-7.827 3.47,-7.827l0.463,-100.66c0,0 -16.469,0.767 -22.046,2.721c-5.576,1.954 -16.194,7.652 -16.194,7.652Z" style="fill:rgb(50,55,113);"/>        <path d="M1061.25,354.833l-85.126,6.515c0,0 -11.961,2.332 -23.031,11.989c-17.013,14.841 -5.924,43.393 7.215,46.582c12.534,3.043 51.199,5.317 63.617,7.815c4.261,0.857 10.889,7.172 10.889,7.172c0,0 -4.356,-1.54 -9.959,-3.292c-5.229,3.839 -14.641,3.617 -20.551,3.617c-5.911,0 -39.556,2.478 -39.556,2.478c0,0 -14.343,-0.429 -17.304,13.71c-2.961,14.138 -2.871,15.866 -2.871,15.866l83.824,-3.203c0,0 31.261,-4.545 32.898,-23.477c0.877,-10.143 5.314,-28.338 -15.888,-35.903c-11.879,-4.239 -55.565,-5.442 -59.397,-6.769c-3.306,-1.144 -5.477,-6.834 4.366,-7.915c9.842,-1.081 47.907,-2.593 57.61,-5.358c9.704,-2.766 13.538,-8.836 13.538,-13.579c0,-4.743 -0.274,-16.248 -0.274,-16.248Z" style="fill:rgb(50,55,113);"/>        <g transform="matrix(0.152844,0,0,0.152844,1064.58,326.522)">            <path d="M89.464,180.541c0,0 9.934,67.113 -9.208,114.283c-20.753,51.14 -57.599,76.288 -57.599,76.288c0,0 183.897,12.539 275.266,-47.563c66.105,-43.482 95.606,-72.318 107.178,-169.825c8.888,-74.891 -55.335,-140.264 -55.335,-140.264c0,0 26.639,31.597 2.548,68.954c-9.49,14.716 -38.601,42.58 -129.915,71.994c-63.198,20.357 -132.935,26.133 -132.935,26.133Z" style="fill:url(#_Linear1);"/>        </g>        <g transform="matrix(0.152844,0,0,0.152844,1064.58,326.522)">            <path d="M346.97,20.885l-19.632,74.184c0,0 20.209,-13.107 25.647,-30.202c6.938,-21.815 -6.015,-43.982 -6.015,-43.982Z" style="fill:url(#_Linear2);"/>        </g>    </g>    <defs>        <linearGradient id="_Linear1" x1="0" y1="0" x2="1" y2="0" gradientUnits="userSpaceOnUse" gradientTransform="matrix(290.473,-312.426,312.426,290.473,73.9843,353.536)"><stop offset="0" style="stop-color:rgb(219,37,50);stop-opacity:1"/><stop offset="0.53" style="stop-color:rgb(144,29,33);stop-opacity:1"/><stop offset="1" style="stop-color:rgb(87,19,18);stop-opacity:1"/></linearGradient>        <linearGradient id="_Linear2" x1="0" y1="0" x2="1" y2="0" gradientUnits="userSpaceOnUse" gradientTransform="matrix(290.473,-312.426,312.426,290.473,73.9843,353.536)"><stop offset="0" style="stop-color:rgb(219,37,50);stop-opacity:1"/><stop offset="0.53" style="stop-color:rgb(144,29,33);stop-opacity:1"/><stop offset="1" style="stop-color:rgb(87,19,18);stop-opacity:1"/></linearGradient>    </defs></svg>