<?xml version="1.0" encoding="UTF-8" standalone="no"?><!DOCTYPE svg PUBLIC "-//W3C//DTD SVG 1.1//EN" "http://www.w3.org/Graphics/SVG/1.1/DTD/svg11.dtd"><svg width="100%" height="100%" viewBox="0 0 1024 512" version="1.1" xmlns="http://www.w3.org/2000/svg" xmlns:xlink="http://www.w3.org/1999/xlink" xml:space="preserve" style="fill-rule:evenodd;clip-rule:evenodd;stroke-linejoin:round;stroke-miterlimit:2;"><title>Coinmerce</title><desc>Coinmerce is a European, euro ⇄ cryptocurrency trading platform that focuses entirely on usability and simplicity to offer its users a safe, educational, enjoyable and straightforward experience. The Coinmerce platform is connected to various external exchanges and bundles liquidity through its smart order system to offer the best prices to its users automatically. In short, we are an all-in-one platform where everyone can easily buy, sell and store over 140 cryptocurrencies.</desc>    <g transform="matrix(7.38381,0,0,7.38381,-4.42392,149.553)">        <path d="M8.31,13.95c-0.26,3.77 2.73,6.92 6.44,6.92c1.91,0 3.71,-0.85 4.93,-2.29c0.17,-0.2 0.48,-0.22 0.66,-0.03c0.17,0.17 0.18,0.43 0.02,0.62c-1.39,1.64 -3.45,2.61 -5.61,2.61c-4.06,0 -7.36,-3.3 -7.36,-7.36c0,-4.06 3.3,-7.36 7.36,-7.36c2.16,0 4.22,0.97 5.61,2.61c0.15,0.18 0.15,0.45 -0.02,0.62c-0.19,0.19 -0.49,0.17 -0.66,-0.03c-1.5,-1.77 -3.85,-2.64 -6.23,-2.16c-2.82,0.55 -4.94,2.98 -5.14,5.85Zm-2.72,1.07l-0.03,0c-0.26,0 -0.45,0.23 -0.43,0.48c0.54,4.86 4.64,8.58 9.61,8.58c2.11,0 4.15,-0.69 5.83,-1.96c0.21,-0.16 0.23,-0.46 0.05,-0.65l-0.03,-0.03c-0.15,-0.15 -0.4,-0.16 -0.57,-0.03c-1.52,1.15 -3.37,1.77 -5.28,1.77c-4.5,0 -8.22,-3.37 -8.72,-7.78c-0.02,-0.22 -0.21,-0.38 -0.43,-0.38Zm19.25,-9.4l-8.74,-5.04c-1.33,-0.77 -2.99,-0.77 -4.32,0l-8.74,5.04c-1.34,0.78 -2.16,2.2 -2.16,3.74l0,4.03c0,0.23 0.19,0.42 0.42,0.42l4.33,0c0.15,0 0.28,-0.08 0.35,-0.2c0.01,-0.01 0.02,-0.02 0.02,-0.03c0,-0.04 0,-0.06 0.01,-0.09c0.01,-0.02 0.02,-0.04 0.02,-0.07c0.49,-4.41 4.22,-7.78 8.72,-7.78c1.91,0 3.76,0.63 5.28,1.77c0.17,0.13 0.41,0.12 0.57,-0.03l0.03,-0.03c0.19,-0.19 0.16,-0.49 -0.05,-0.65c-1.68,-1.27 -3.72,-1.96 -5.83,-1.96c-4.85,0 -8.86,3.54 -9.56,8.23l-3.48,0l0,-3.61c0,-1.25 0.66,-2.4 1.74,-3.02l8.75,-5.04c0.54,-0.31 1.14,-0.47 1.74,-0.47c0.6,0 1.2,0.16 1.74,0.47l8.74,5.05c1.08,0.62 1.74,1.77 1.74,3.02l0,10.09c0,1.25 -0.66,2.4 -1.74,3.02l-8.74,5.05c-1.08,0.62 -2.41,0.62 -3.49,0l-8.74,-5.05c-1.08,-0.62 -1.74,-1.77 -1.74,-3.02l0,-4.02c0,-0.23 -0.19,-0.42 -0.42,-0.42c-0.23,0 -0.42,0.19 -0.42,0.42l0,4.02c0,1.54 0.82,2.97 2.16,3.74l8.74,5.05c0.67,0.38 1.41,0.58 2.16,0.58c0.75,0 1.49,-0.19 2.16,-0.58l8.74,-5.05c1.35,-0.77 2.17,-2.2 2.17,-3.74l0,-10.1c0,-1.54 -0.82,-2.96 -2.16,-3.74Z" style="fill:rgb(102,202,226);fill-rule:nonzero;"/>        <g>            <path d="M38.44,18.7c-0.76,-0.45 -1.35,-1.07 -1.79,-1.86c-0.43,-0.78 -0.65,-1.65 -0.65,-2.6c0,-0.94 0.22,-1.8 0.65,-2.58c0.44,-0.78 1.04,-1.4 1.79,-1.86c0.76,-0.45 1.59,-0.68 2.5,-0.68c0.65,0 1.21,0.09 1.69,0.25c0.48,0.17 0.96,0.45 1.44,0.85c0.1,0.08 0.17,0.16 0.2,0.24c0.03,0.08 0.05,0.18 0.05,0.29c0,0.17 -0.06,0.31 -0.18,0.43c-0.13,0.11 -0.27,0.17 -0.43,0.17c-0.16,0 -0.31,-0.06 -0.45,-0.17c-0.35,-0.3 -0.69,-0.52 -1.02,-0.65c-0.33,-0.13 -0.77,-0.2 -1.3,-0.2c-0.66,0 -1.28,0.18 -1.84,0.53c-0.56,0.35 -1.01,0.83 -1.34,1.43c-0.33,0.61 -0.49,1.26 -0.49,1.97c0,0.72 0.16,1.38 0.49,1.97c0.33,0.6 0.77,1.07 1.34,1.42c0.56,0.35 1.17,0.53 1.84,0.53c0.82,0 1.61,-0.28 2.36,-0.85c0.14,-0.1 0.28,-0.15 0.42,-0.15c0.16,0 0.3,0.06 0.4,0.18c0.1,0.11 0.16,0.27 0.16,0.45c0,0.18 -0.07,0.34 -0.2,0.47c-0.92,0.75 -1.97,1.12 -3.14,1.12c-0.91,-0.02 -1.74,-0.25 -2.5,-0.7Z" style="fill:rgb(16,34,35);fill-rule:nonzero;"/>            <path d="M50.84,18.73c-0.78,-0.43 -1.37,-1.04 -1.8,-1.83c-0.43,-0.78 -0.64,-1.67 -0.64,-2.66c0,-0.99 0.21,-1.88 0.64,-2.65c0.43,-0.78 1.03,-1.39 1.8,-1.82c0.77,-0.44 1.66,-0.66 2.65,-0.66c0.98,0 1.86,0.22 2.63,0.66c0.78,0.43 1.38,1.04 1.81,1.82c0.43,0.78 0.65,1.66 0.65,2.65c0,0.99 -0.22,1.88 -0.65,2.66c-0.43,0.78 -1.04,1.39 -1.8,1.83c-0.77,0.43 -1.65,0.66 -2.64,0.66c-0.99,-0.01 -1.88,-0.23 -2.65,-0.66Zm4.61,-1.07c0.58,-0.35 1.04,-0.82 1.36,-1.42c0.33,-0.6 0.49,-1.26 0.49,-2c0,-0.74 -0.16,-1.4 -0.49,-2c-0.33,-0.6 -0.78,-1.07 -1.35,-1.41c-0.58,-0.34 -1.24,-0.51 -1.97,-0.51c-0.73,0 -1.39,0.17 -1.97,0.51c-0.58,0.34 -1.03,0.81 -1.35,1.41c-0.33,0.6 -0.49,1.26 -0.49,2c0,0.74 0.16,1.4 0.49,2c0.32,0.6 0.78,1.07 1.36,1.42c0.58,0.34 1.24,0.52 1.96,0.52c0.72,-0.01 1.38,-0.18 1.96,-0.52Z" style="fill:rgb(16,34,35);fill-rule:nonzero;"/>            <path d="M63.29,19.06c-0.13,-0.13 -0.19,-0.29 -0.19,-0.48l0,-8.67c0,-0.2 0.07,-0.36 0.19,-0.48c0.13,-0.12 0.29,-0.18 0.48,-0.18c0.2,0 0.35,0.06 0.48,0.18c0.13,0.13 0.19,0.28 0.19,0.48l0,8.68c0,0.19 -0.06,0.35 -0.19,0.48c-0.13,0.13 -0.28,0.19 -0.48,0.19c-0.19,-0.01 -0.35,-0.07 -0.48,-0.2Z" style="fill:rgb(16,34,35);fill-rule:nonzero;"/>            <path d="M69.62,19.06c-0.13,-0.12 -0.19,-0.28 -0.19,-0.48l0,-8.67c0,-0.2 0.06,-0.36 0.19,-0.48c0.12,-0.12 0.28,-0.18 0.47,-0.18c0.09,0 0.19,0.02 0.28,0.07c0.1,0.05 0.17,0.1 0.23,0.17l5.59,7.44l0,-7.02c0,-0.2 0.07,-0.36 0.19,-0.48c0.13,-0.12 0.29,-0.18 0.48,-0.18c0.19,0 0.34,0.06 0.47,0.18c0.13,0.13 0.19,0.28 0.19,0.48l0,8.68c0,0.2 -0.06,0.36 -0.19,0.48c-0.13,0.13 -0.28,0.19 -0.47,0.19c-0.1,0 -0.19,-0.02 -0.29,-0.06c-0.1,-0.04 -0.18,-0.1 -0.23,-0.17l-5.59,-7.44l0,7c0,0.19 -0.06,0.35 -0.19,0.48c-0.13,0.13 -0.28,0.19 -0.48,0.19c-0.18,-0.01 -0.34,-0.07 -0.46,-0.2Z" style="fill:rgb(16,34,35);fill-rule:nonzero;"/>            <path d="M92.34,9.43c0.13,0.13 0.2,0.28 0.2,0.48l0,8.68c0,0.19 -0.07,0.35 -0.2,0.48c-0.13,0.13 -0.29,0.19 -0.47,0.19c-0.19,0 -0.35,-0.06 -0.48,-0.19c-0.13,-0.13 -0.19,-0.29 -0.19,-0.48l0,-6.37l-3.1,6.32c-0.15,0.22 -0.34,0.33 -0.58,0.33c-0.28,0 -0.48,-0.13 -0.61,-0.4l-3.06,-6.14l0,6.26c0,0.19 -0.07,0.35 -0.19,0.48c-0.13,0.13 -0.29,0.19 -0.48,0.19c-0.19,0 -0.35,-0.06 -0.48,-0.19c-0.13,-0.13 -0.19,-0.29 -0.19,-0.48l0,-8.68c0,-0.19 0.07,-0.35 0.19,-0.48c0.13,-0.13 0.29,-0.19 0.48,-0.19c0.25,0 0.45,0.12 0.59,0.36l3.81,7.63l3.7,-7.63c0.14,-0.24 0.33,-0.36 0.59,-0.36c0.19,0 0.35,0.06 0.47,0.19Z" style="fill:rgb(16,34,35);fill-rule:nonzero;"/>            <path d="M97.73,19.06c-0.13,-0.13 -0.19,-0.29 -0.19,-0.48l0,-8.67c0,-0.2 0.07,-0.36 0.19,-0.48c0.13,-0.12 0.29,-0.18 0.48,-0.18l5.79,0c0.2,0 0.35,0.06 0.48,0.17c0.12,0.12 0.18,0.27 0.18,0.45c0,0.18 -0.06,0.33 -0.18,0.44c-0.12,0.11 -0.28,0.17 -0.48,0.17l-5.12,0l0,3.11l3.68,0c0.19,0 0.35,0.06 0.47,0.18c0.13,0.11 0.19,0.26 0.19,0.44c0,0.18 -0.06,0.33 -0.19,0.44c-0.12,0.11 -0.28,0.17 -0.47,0.17l-3.68,0l0,3.21l5.12,0c0.2,0 0.35,0.05 0.48,0.17c0.12,0.11 0.18,0.25 0.18,0.43c0,0.19 -0.06,0.34 -0.18,0.46c-0.12,0.11 -0.28,0.17 -0.48,0.17l-5.8,0c-0.18,-0.01 -0.34,-0.07 -0.47,-0.2Z" style="fill:rgb(16,34,35);fill-rule:nonzero;"/>            <path d="M115.57,18.65c0,0.17 -0.05,0.31 -0.17,0.43c-0.12,0.11 -0.27,0.17 -0.47,0.17c-0.25,0 -0.44,-0.11 -0.58,-0.32l-2.21,-3.54l-0.23,0l-1.64,0l0,3.19c0,0.19 -0.06,0.35 -0.19,0.48c-0.13,0.13 -0.28,0.19 -0.48,0.19c-0.19,0 -0.35,-0.06 -0.48,-0.19c-0.13,-0.13 -0.19,-0.29 -0.19,-0.48l0,-8.67c0,-0.2 0.07,-0.36 0.19,-0.48c0.13,-0.12 0.29,-0.18 0.48,-0.18l2.31,0c0.63,0 1.2,0.13 1.7,0.4c0.5,0.27 0.89,0.64 1.16,1.11c0.28,0.48 0.42,1.03 0.42,1.64c0,0.61 -0.15,1.15 -0.46,1.62c-0.31,0.47 -0.73,0.82 -1.26,1.06l1.96,3.15c0.1,0.13 0.14,0.27 0.14,0.42Zm-3.65,-4.49c0.58,0 1.06,-0.16 1.44,-0.49c0.38,-0.33 0.56,-0.76 0.56,-1.28c0,-0.56 -0.19,-1.02 -0.56,-1.38c-0.38,-0.36 -0.86,-0.54 -1.44,-0.54l-1.64,0l0,3.69l1.64,0Z" style="fill:rgb(16,34,35);fill-rule:nonzero;"/>            <path d="M121.47,18.7c-0.76,-0.45 -1.35,-1.07 -1.79,-1.86c-0.43,-0.78 -0.65,-1.65 -0.65,-2.6c0,-0.94 0.22,-1.8 0.65,-2.58c0.44,-0.78 1.04,-1.4 1.79,-1.86c0.76,-0.45 1.59,-0.68 2.5,-0.68c0.65,0 1.21,0.09 1.69,0.25c0.48,0.17 0.96,0.45 1.44,0.85c0.1,0.08 0.17,0.16 0.2,0.24c0.03,0.08 0.05,0.18 0.05,0.29c0,0.17 -0.06,0.31 -0.18,0.43c-0.13,0.11 -0.27,0.17 -0.43,0.17c-0.16,0 -0.31,-0.06 -0.45,-0.17c-0.35,-0.3 -0.69,-0.52 -1.02,-0.65c-0.33,-0.13 -0.77,-0.2 -1.3,-0.2c-0.66,0 -1.28,0.18 -1.84,0.53c-0.56,0.35 -1.01,0.83 -1.34,1.43c-0.33,0.61 -0.49,1.26 -0.49,1.97c0,0.72 0.16,1.38 0.49,1.97c0.33,0.6 0.77,1.07 1.34,1.42c0.56,0.35 1.17,0.53 1.84,0.53c0.82,0 1.61,-0.28 2.36,-0.85c0.14,-0.1 0.28,-0.15 0.42,-0.15c0.16,0 0.3,0.06 0.4,0.18c0.1,0.11 0.16,0.27 0.16,0.45c0,0.18 -0.07,0.34 -0.2,0.47c-0.92,0.75 -1.97,1.12 -3.14,1.12c-0.91,-0.02 -1.75,-0.25 -2.5,-0.7Z" style="fill:rgb(16,34,35);fill-rule:nonzero;"/>            <path d="M132.08,19.06c-0.13,-0.13 -0.19,-0.29 -0.19,-0.48l0,-8.67c0,-0.2 0.07,-0.36 0.19,-0.48c0.13,-0.12 0.29,-0.18 0.48,-0.18l5.79,0c0.2,0 0.35,0.06 0.48,0.17c0.12,0.12 0.18,0.27 0.18,0.45c0,0.18 -0.06,0.33 -0.18,0.44c-0.12,0.11 -0.28,0.17 -0.48,0.17l-5.12,0l0,3.11l3.68,0c0.19,0 0.35,0.06 0.47,0.18c0.13,0.11 0.19,0.26 0.19,0.44c0,0.18 -0.06,0.33 -0.19,0.44c-0.12,0.11 -0.28,0.17 -0.47,0.17l-3.68,0l0,3.21l5.12,0c0.2,0 0.35,0.05 0.48,0.17c0.13,0.12 0.18,0.25 0.18,0.43c0,0.19 -0.06,0.34 -0.18,0.46c-0.12,0.11 -0.28,0.17 -0.48,0.17l-5.79,0c-0.2,-0.01 -0.35,-0.07 -0.48,-0.2Z" style="fill:rgb(16,34,35);fill-rule:nonzero;"/>        </g>    </g></svg>