<?xml version="1.0" encoding="UTF-8" standalone="no"?><!DOCTYPE svg PUBLIC "-//W3C//DTD SVG 1.1//EN" "http://www.w3.org/Graphics/SVG/1.1/DTD/svg11.dtd"><svg width="100%" height="100%" viewBox="0 0 1024 512" version="1.1" xmlns="http://www.w3.org/2000/svg" xmlns:xlink="http://www.w3.org/1999/xlink" xml:space="preserve" style="fill-rule:evenodd;clip-rule:evenodd;stroke-linejoin:round;stroke-miterlimit:2;"><title>Triple Point Advancr</title><desc>Triple Point is an independently owned alternative investment manager established in 2004 and currently managing over £1.4 billion of private and institutional capital with a staff of over 110.The Group offers a range of investment strategies in asset classes such as real estate, infrastructure, venture capital, and private debt (direct lending).</desc>    <g transform="matrix(2.06985,0,0,2.06898,2,124.237)">        <path d="M0,0l0,127.37l106.19,0l31.74,-127.37l-137.93,0Z" style="fill:url(#_Linear1);fill-rule:nonzero;"/>        <path d="M78.64,25.13l-33.87,0c-7.159,0.011 -13.045,5.901 -13.05,13.06c0,36 25.31,60.38 26.39,61.4l3.6,3.41l3.59,-3.41c1.07,-1 26.32,-25.38 26.39,-61.26l0,-0.14c-0.005,-7.159 -5.891,-13.049 -13.05,-13.06m13,13.57l0,0.34c0,-0.24 0,-0.46 0.06,-0.69l-0.06,0.35Z" style="fill:white;fill-rule:nonzero;"/>        <path d="M79.76,28.93l-15.27,0c-0.753,0.016 -1.365,0.637 -1.37,1.39l1.39,32c0,0.763 0.627,1.39 1.39,1.39c0.514,0.009 0.995,-0.263 1.25,-0.71l8.55,-23.33c0.177,-0.584 0.72,-0.986 1.33,-0.986c0.763,0 1.39,0.627 1.39,1.39c0,0.005 0,0.011 0,0.016c-0.004,0.129 -0.024,0.256 -0.06,0.38l-11,43c-3.655,-1.513 -7.765,-1.513 -11.42,0l-11,-43c0.001,-0.135 0.022,-0.27 0.06,-0.4c0.008,-0.757 0.633,-1.375 1.39,-1.375c0.598,0 1.133,0.387 1.32,0.955l8.57,23.35c0.236,0.467 0.717,0.762 1.24,0.762c0.76,0 1.386,-0.623 1.39,-1.382l1.39,-32c0.034,-0.752 -0.549,-1.402 -1.3,-1.45l-15.39,0c-4.586,0 -8.36,3.774 -8.36,8.36c0,36.41 26.43,61.47 26.43,61.47c0,0 26.38,-25 26.43,-61.38l0,-0.09c0,-4.586 -3.774,-8.36 -8.36,-8.36" style="fill:rgb(44,85,155);fill-rule:nonzero;"/>        <path d="M137.23,0l-33.56,127.37l8.57,0l33.56,-127.37l-8.57,0Z" style="fill:rgb(15,162,74);fill-rule:nonzero;"/>        <path d="M244.6,17l11.32,0l0,84.63l-11.32,0l0,-5.13c-4.447,4.333 -9.477,6.5 -15.09,6.5c-6.35,0.141 -12.446,-2.542 -16.63,-7.32c-4.373,-4.973 -6.56,-11.187 -6.56,-18.64c0,-7.28 2.187,-13.36 6.56,-18.24c4.08,-4.779 10.097,-7.483 16.38,-7.36c5.713,0 10.823,2.333 15.33,7l0,-41.44l0.01,0Zm-26.76,60.06c0,4.667 1.253,8.473 3.76,11.42c2.39,2.888 5.972,4.532 9.72,4.46c3.844,0.141 7.558,-1.44 10.12,-4.31c2.641,-3.166 4.017,-7.2 3.86,-11.32c0.153,-4.116 -1.222,-8.147 -3.86,-11.31c-2.511,-2.875 -6.184,-4.477 -10,-4.36c-3.734,-0.079 -7.312,1.522 -9.74,4.36c-2.615,3.078 -3.992,7.023 -3.86,11.06Z" style="fill:rgb(20,20,20);fill-rule:nonzero;"/>        <path d="M273.09,52.8l12.63,27.41l12.58,-27.41l12.67,0l-25.35,52.17l-25.15,-52.17l12.62,0Z" style="fill:rgb(20,20,20);fill-rule:nonzero;"/>        <path d="M189,52.81l11.32,0l0,48.8l-11.32,0l0,-5.11c-4.667,4.333 -9.667,6.5 -15,6.5c-6.385,0.159 -12.522,-2.525 -16.74,-7.32c-4.373,-4.973 -6.56,-11.187 -6.56,-18.64c0,-7.333 2.187,-13.43 6.56,-18.29c4.115,-4.756 10.143,-7.437 16.43,-7.31c5.68,0 10.773,2.333 15.28,7l0,-5.63l0.03,0Zm-26.79,24.25c0,4.667 1.253,8.473 3.76,11.42c2.39,2.888 5.972,4.532 9.72,4.46c3.844,0.141 7.558,-1.44 10.12,-4.31c2.641,-3.166 4.017,-7.2 3.86,-11.32c0.151,-4.117 -1.229,-8.148 -3.87,-11.31c-2.511,-2.875 -6.184,-4.477 -10,-4.36c-3.734,-0.079 -7.312,1.522 -9.74,4.36c-2.612,3.08 -3.985,7.024 -3.85,11.06Z" style="fill:rgb(20,20,20);fill-rule:nonzero;"/>        <path d="M366.45,52.81l11.32,0l0,4.51c3.94,-3.907 8.383,-5.86 13.33,-5.86c5.68,0 10.107,1.787 13.28,5.36c2.74,3.04 4.11,8 4.11,14.88l0,29.91l-11.32,0l0,-27.22c0,-4.8 -0.667,-8.133 -2,-10c-1.333,-1.867 -3.703,-2.8 -7.11,-2.8c-3.74,0 -6.407,1.233 -8,3.7c-1.593,2.467 -2.36,6.72 -2.3,12.76l0,23.52l-11.3,0l0,-48.76l-0.01,0Z" style="fill:rgb(20,20,20);fill-rule:nonzero;"/>        <path d="M347.68,52.81l11.32,0l0,48.8l-11.32,0l0,-5.11c-4.667,4.34 -9.667,6.51 -15,6.51c-6.362,0.144 -12.473,-2.535 -16.68,-7.31c-4.373,-4.973 -6.56,-11.187 -6.56,-18.64c0,-7.333 2.187,-13.43 6.56,-18.29c4.115,-4.756 10.143,-7.437 16.43,-7.31c5.68,0 10.773,2.333 15.28,7l0,-5.65l-0.03,0Zm-26.76,24.25c0,4.667 1.253,8.473 3.76,11.42c2.39,2.888 5.972,4.532 9.72,4.46c3.844,0.141 7.558,-1.44 10.12,-4.31c2.641,-3.166 4.017,-7.2 3.86,-11.32c0.153,-4.116 -1.222,-8.147 -3.86,-11.31c-2.511,-2.875 -6.184,-4.477 -10,-4.36c-3.734,-0.079 -7.312,1.522 -9.74,4.36c-2.615,3.078 -3.992,7.023 -3.86,11.06Z" style="fill:rgb(20,20,20);fill-rule:nonzero;"/>        <path d="M454.33,54.91l0,15c-1.915,-2.538 -4.257,-4.724 -6.92,-6.46c-2.146,-1.239 -4.593,-1.862 -7.07,-1.8c-3.998,-0.101 -7.852,1.526 -10.57,4.46c-2.824,3.019 -4.339,7.038 -4.21,11.17c-0.157,4.139 1.299,8.182 4.06,11.27c2.685,2.915 6.508,4.526 10.47,4.41c2.502,0.053 4.974,-0.55 7.17,-1.75c2,-1.133 4.357,-3.337 7.07,-6.61l0,14.85c-4.221,2.278 -8.934,3.496 -13.73,3.55c-7.036,0.197 -13.865,-2.442 -18.94,-7.32c-5.018,-4.731 -7.804,-11.374 -7.66,-18.27c-0.116,-6.951 2.703,-13.639 7.76,-18.41c5.033,-4.964 11.873,-7.676 18.94,-7.51c4.758,-0.024 9.447,1.152 13.63,3.42Z" style="fill:rgb(20,20,20);fill-rule:nonzero;"/>        <path d="M460.88,52.81l11.27,0l0,4.36c1.578,-1.781 3.44,-3.288 5.51,-4.46c1.81,-0.872 3.802,-1.301 5.81,-1.25c3.312,0.101 6.535,1.104 9.32,2.9l-5.16,10.32c-1.789,-1.413 -3.982,-2.222 -6.26,-2.31c-6.147,0 -9.22,4.643 -9.22,13.93l0,25.3l-11.26,0l0,-48.79l-0.01,0Z" style="fill:rgb(20,20,20);fill-rule:nonzero;"/>        <path d="M288,12.19c-0.303,0.04 -0.555,0.256 -0.64,0.55c-0.39,0.8 -0.6,1.23 -0.64,1.28c-0.122,0.128 -0.293,0.198 -0.47,0.19c-0.21,0 -0.75,0 -1.63,-0.12c-0.163,-0.01 -0.327,-0.01 -0.49,0l-3,0.06l-1.6,0l-5.44,0l-4.6,-0.06l-0.8,-0.09l-0.2,0c-0.223,-0.024 -0.436,-0.103 -0.62,-0.23c-0.229,-0.22 -0.416,-0.482 -0.55,-0.77c-0.118,-0.388 -0.416,-0.697 -0.8,-0.83c-0.124,0.007 -0.238,0.069 -0.31,0.17c-0.128,0.227 -0.2,0.48 -0.21,0.74l-0.81,2.92c-0.053,0.347 -0.213,1.013 -0.48,2c-0.142,0.457 -0.245,0.926 -0.31,1.4l0.08,0.21l0.17,0c0.503,-0.147 0.912,-0.515 1.11,-1c0.761,-1.19 1.726,-2.236 2.85,-3.09c1.108,-0.273 2.256,-0.348 3.39,-0.22l3.14,0l0,5.2l0.07,1.56l0.07,7.23l0,3.31c0.036,1.129 -0.021,2.26 -0.17,3.38c-0.028,0.216 -0.122,0.419 -0.27,0.58c-0.445,0.3 -0.945,0.51 -1.47,0.62c-0.638,0.177 -1.286,0.317 -1.94,0.42c-0.256,0.008 -0.506,0.076 -0.73,0.2c-0.122,0.168 -0.186,0.372 -0.18,0.58l0.27,0.12c0.36,0.021 0.72,0.021 1.08,0l2.09,-0.11l2.85,-0.13c0.77,0 1.91,0.07 3.44,0.08l2.77,0.06l0,-0.58c-0.191,-0.093 -0.398,-0.151 -0.61,-0.17c-0.4,-0.06 -1.21,-0.25 -2.4,-0.54c-0.466,-0.074 -0.905,-0.271 -1.27,-0.57c-0.188,-0.297 -0.269,-0.65 -0.23,-1l0,-1.44l0,-2.59c0.05,-1.33 0.08,-2.24 0.08,-2.72l-0.15,-12.09l0,-1.42l3.3,0c1.168,-0.051 2.338,0.023 3.49,0.22c0.44,0.104 0.836,0.346 1.13,0.69c0.503,0.751 0.843,1.6 1,2.49c0.05,0.314 0.151,0.619 0.3,0.9c0.064,0.092 0.168,0.148 0.28,0.15c0.134,-0.013 0.261,-0.061 0.37,-0.14c0.054,-0.119 0.081,-0.249 0.08,-0.38c0.07,-2.17 0.1,-3.45 0.1,-3.85l0,-1.64l0,-0.77c-0.005,-0.233 -0.038,-0.465 -0.1,-0.69c-0.129,-0.045 -0.264,-0.072 -0.4,-0.08" style="fill:rgb(141,141,140);fill-rule:nonzero;"/>        <path d="M292.73,21.19c-0.396,0.869 -0.96,1.65 -1.66,2.3c-0.841,0.607 -1.763,1.092 -2.74,1.44l-0.08,0.59c0.323,0.119 0.659,0.203 1,0.25c0.497,0.014 0.981,0.163 1.4,0.43c0.249,0.39 0.375,0.847 0.36,1.31c0,0.69 0.08,3.25 0.08,7.71c0.032,0.51 -0.008,1.022 -0.12,1.52c-0.055,0.122 -0.15,0.221 -0.27,0.28l-1.63,0.29l-1.16,0.24c-0.094,0.119 -0.156,0.26 -0.18,0.41l0.08,0.26l3.29,-0.07l1.08,-0.07l6.19,0c0.085,-0.084 0.141,-0.192 0.16,-0.31c0.009,-0.125 -0.058,-0.244 -0.17,-0.3c-0.363,-0.179 -0.766,-0.261 -1.17,-0.24l-0.41,0c-0.26,0 -1.1,-0.14 -2.51,-0.26c-0.153,-0.08 -0.286,-0.193 -0.39,-0.33c-0.096,-0.28 -0.15,-0.574 -0.16,-0.87l0,-3.9l-0.1,-3.25c0.032,-0.66 0.243,-1.3 0.61,-1.85c0.342,-0.66 0.791,-1.258 1.33,-1.77c0.23,-0.144 0.501,-0.207 0.77,-0.18c0.416,0.057 0.823,0.168 1.21,0.33c0.393,0.166 0.807,0.277 1.23,0.33c0.456,0.004 0.897,-0.168 1.23,-0.48c0.263,-0.265 0.404,-0.627 0.39,-1c0.008,-0.524 -0.189,-1.03 -0.55,-1.41c-0.369,-0.38 -0.881,-0.587 -1.41,-0.57c-0.721,0.114 -1.406,0.395 -2,0.82c-0.194,0.143 -0.372,0.307 -0.53,0.49l-0.45,0.45c-0.729,0.735 -1.355,1.566 -1.86,2.47c-0.009,-0.12 -0.009,-0.24 0,-0.36l0,-0.33c0,-2.22 0,-3.67 -0.12,-4.31l-0.68,0" style="fill:rgb(141,141,140);fill-rule:nonzero;"/>        <path d="M307.11,20.75l-0.38,0c-0.366,0.543 -0.811,1.028 -1.32,1.44c-0.45,0.403 -0.955,0.739 -1.5,1c-0.456,0.168 -0.919,0.311 -1.39,0.43l0,0.59c0.628,0.103 1.236,0.306 1.8,0.6c0.213,0.133 0.392,0.314 0.52,0.53c0.108,0.546 0.148,1.104 0.12,1.66l0,8.14c0.041,0.455 -0.076,0.91 -0.33,1.29c-0.218,0.23 -0.514,0.369 -0.83,0.39c-1.29,0.27 -2,0.42 -2,0.44c-0.211,0.067 -0.359,0.259 -0.37,0.48c0.008,0.094 0.043,0.185 0.1,0.26c0.103,0.038 0.211,0.062 0.32,0.07c0.36,0 0.74,-0.06 1.14,-0.07l3.16,-0.07c0.35,0 1.08,0 2.17,0.14c0.8,0 1.46,0.08 2,0.1c0.056,-0.087 0.091,-0.187 0.1,-0.29c-0.004,-0.08 -0.024,-0.158 -0.06,-0.23c-0.26,-0.1 -0.65,-0.22 -1.17,-0.37c-0.541,-0.096 -1.053,-0.311 -1.5,-0.63c-0.199,-0.293 -0.284,-0.649 -0.24,-1l0.06,-6l0,-5.62l0,-1.03l0,-0.88c0,-0.29 0,-0.74 -0.08,-1.37l-0.24,0" style="fill:rgb(141,141,140);fill-rule:nonzero;"/>        <path d="M337,12.14l-0.92,0l-2.9,0.95l-1.22,0.37l0,0.43c0.27,0.13 0.75,0.34 1.46,0.62c0.353,0.114 0.67,0.317 0.92,0.59c0.173,0.303 0.249,0.652 0.22,1l-0.06,2.28l0,4.64l-0.06,4.64l0,4.48c0,2.17 0,3.49 -0.08,4c0,0.238 -0.085,0.469 -0.24,0.65c-0.467,0.19 -0.959,0.311 -1.46,0.36c-0.479,0.049 -0.952,0.15 -1.41,0.3c-0.086,0.074 -0.131,0.187 -0.12,0.3c-0.006,0.11 0.038,0.217 0.12,0.29c0.109,0.09 0.248,0.137 0.39,0.13l0.07,0l3.29,-0.17l2.55,0.08l2,0.06c0.114,0.011 0.228,-0.021 0.32,-0.09c0.07,-0.084 0.102,-0.192 0.09,-0.3c0.013,-0.115 -0.047,-0.227 -0.15,-0.28c-0.448,-0.156 -0.916,-0.247 -1.39,-0.27c-0.511,0.014 -1.01,-0.16 -1.4,-0.49c-0.174,-0.801 -0.231,-1.623 -0.17,-2.44l0,-1.94c0.06,-2.06 0.09,-8.43 0.09,-19.11l0,-1.08" style="fill:rgb(141,141,140);fill-rule:nonzero;"/>        <path d="M321.36,37.41c-1.294,0.083 -2.579,-0.269 -3.65,-1c-0.626,-0.559 -1.019,-1.334 -1.1,-2.17c-0.093,-0.56 -0.14,-3.167 -0.14,-7.82c-0.012,-0.17 -0.012,-0.34 0,-0.51c0.548,-0.526 1.194,-0.94 1.9,-1.22c0.726,-0.272 1.495,-0.407 2.27,-0.4c1.764,-0.071 3.476,0.618 4.7,1.89c1.243,1.414 1.883,3.26 1.78,5.14c0.066,1.633 -0.546,3.223 -1.69,4.39c-1.083,1.111 -2.579,1.723 -4.13,1.69m-5.23,-16.74l-0.26,0.06c-0.366,0.535 -0.819,1.005 -1.34,1.39c-0.887,0.548 -1.82,1.017 -2.79,1.4l-0.12,0.59c0.683,0.069 1.344,0.28 1.94,0.62c0.13,0.093 0.231,0.221 0.29,0.37c0.163,0.705 0.233,1.427 0.21,2.15l0.06,7.14c0.107,5.633 0.16,9.45 0.16,11.45c0,0.237 -0.034,0.472 -0.1,0.7c-0.218,0.234 -0.48,0.425 -0.77,0.56l-2,0.39c-0.012,0.116 -0.012,0.234 0,0.35c-0.008,0.137 -0.008,0.273 0,0.41l9.14,0c-0.024,-0.281 -0.166,-0.539 -0.39,-0.71c-0.652,-0.301 -1.362,-0.458 -2.08,-0.46c-0.423,0.042 -0.838,-0.135 -1.1,-0.47c-0.22,-0.48 -0.33,-2.733 -0.33,-6.76l0,-2.78l0.67,0.27c1.259,0.572 2.618,0.895 4,0.95c1.434,-0.018 2.846,-0.36 4.13,-1c1.345,-0.634 2.465,-1.663 3.21,-2.95c0.821,-1.298 1.278,-2.794 1.32,-4.33c0.078,-2.02 -0.666,-3.987 -2.06,-5.45c-1.312,-1.387 -3.151,-2.158 -5.06,-2.12c-1.099,-0.002 -2.191,0.18 -3.23,0.54c-1.079,0.378 -2.092,0.925 -3,1.62l0,-2.16l0,-1.63c-0.138,-0.068 -0.287,-0.109 -0.44,-0.12" style="fill:rgb(141,141,140);fill-rule:nonzero;"/>        <path d="M372.31,12.77c-1.16,0 -2.16,0.04 -3,0.12l-3.32,0.2c-0.93,0.06 -1.53,0.08 -1.82,0.08l-1.09,0c-1,-0.07 -1.75,-0.12 -2.19,-0.12l-0.45,0.06c-0.146,0.225 -0.146,0.515 0,0.74c2,0.28 3.17,0.63 3.66,1.06c0.373,0.513 0.531,1.152 0.44,1.78l0,0.31c0,2.427 0.023,4.81 0.07,7.15c0.107,5.013 0.163,8.287 0.17,9.82l0,1.89c0.039,0.371 -0.027,0.745 -0.19,1.08c-0.219,0.181 -0.481,0.301 -0.76,0.35l-2.54,0.49l0,0.53l1.13,0l2,0.07l3.42,-0.16c0.879,0.015 1.757,0.076 2.63,0.18c0.57,0.07 0.93,0.1 1.09,0.1c0.169,0.013 0.339,-0.022 0.49,-0.1c0.108,-0.104 0.178,-0.242 0.2,-0.39c-0.058,-0.115 -0.153,-0.206 -0.27,-0.26c-0.07,0 -0.45,-0.13 -1.15,-0.3c-1.5,-0.34 -2.41,-0.55 -2.72,-0.65c-0.121,-0.463 -0.175,-0.941 -0.16,-1.42c0,-0.26 0,-0.56 0.05,-0.92c0.05,-0.36 0,-0.59 0,-0.72l-0.26,-8.91l0,-1.12c-0.08,-0.667 -0.12,-2.333 -0.12,-5l0,-1.61l0,-0.39l-0.06,-2.2l0,-0.28c0.915,-0.329 1.893,-0.448 2.86,-0.35c0.74,0.031 1.474,0.142 2.19,0.33c0.744,0.139 1.456,0.413 2.1,0.81c1.661,1.233 2.656,3.172 2.69,5.24c0.01,1.042 -0.23,2.07 -0.7,3c-0.456,0.916 -1.182,1.67 -2.08,2.16c-0.893,0.498 -1.898,0.76 -2.92,0.76c-0.568,0.017 -1.135,-0.057 -1.68,-0.22c-0.182,-0.071 -0.375,-0.109 -0.57,-0.11c-0.089,0.038 -0.163,0.105 -0.21,0.19c0.084,0.221 0.243,0.405 0.45,0.52c0.479,0.335 1.005,0.597 1.56,0.78c0.554,0.146 1.127,0.214 1.7,0.2c2.152,0.108 4.253,-0.699 5.78,-2.22c1.452,-1.387 2.273,-3.312 2.27,-5.32c-0.022,-1.294 -0.365,-2.562 -1,-3.69c-0.61,-1.189 -1.594,-2.145 -2.8,-2.72c-1.548,-0.64 -3.216,-0.937 -4.89,-0.87" style="fill:rgb(141,141,140);fill-rule:nonzero;"/>        <path d="M344.66,27.18c0.058,-0.921 0.432,-1.794 1.06,-2.47c0.869,-1.119 2.224,-1.755 3.64,-1.71c0.656,-0.014 1.305,0.134 1.89,0.43c0.524,0.261 0.949,0.686 1.21,1.21c0.236,0.43 0.369,0.91 0.39,1.4c-0.031,0.258 -0.156,0.497 -0.35,0.67c-0.319,0.121 -0.659,0.175 -1,0.16c-3.333,0.22 -5.333,0.33 -6,0.33l-0.92,0m4.85,-5.09c-1.008,-0.021 -2.01,0.156 -2.95,0.52c-0.738,0.345 -1.427,0.786 -2.05,1.31c-0.569,0.467 -1.042,1.041 -1.39,1.69c-0.469,0.897 -0.819,1.852 -1.04,2.84c-0.194,0.718 -0.304,1.456 -0.33,2.2c-0.046,1.61 0.352,3.201 1.15,4.6c0.715,1.218 1.802,2.175 3.1,2.73c0.866,0.369 1.798,0.56 2.74,0.56c0.734,0.027 1.469,-0.03 2.19,-0.17c0.967,-0.278 1.89,-0.692 2.74,-1.23c0.854,-0.532 1.609,-1.209 2.23,-2c0.006,-0.097 0.006,-0.193 0,-0.29l-0.12,-0.77l-1.41,1.14c-0.588,0.407 -1.223,0.743 -1.89,1c-0.583,0.163 -1.185,0.254 -1.79,0.27c-1.236,-0.007 -2.447,-0.353 -3.5,-1c-0.932,-0.615 -1.665,-1.487 -2.11,-2.51c-0.446,-0.902 -0.705,-1.885 -0.76,-2.89l0,-0.95l0,-0.16l0,-0.19c0.02,-0.276 0.073,-0.548 0.16,-0.81c0.64,0 1.26,-0.07 1.87,-0.07l1.49,0l7.83,-0.09l0,-0.27c-0.038,-0.898 -0.303,-1.772 -0.77,-2.54c-1.074,-1.897 -3.132,-3.032 -5.31,-2.93" style="fill:rgb(141,141,140);fill-rule:nonzero;"/>        <path d="M406,20.75c-0.126,-0.009 -0.254,-0.009 -0.38,0c-0.366,0.543 -0.811,1.028 -1.32,1.44c-0.451,0.402 -0.956,0.739 -1.5,1c-0.07,0 -0.54,0.18 -1.39,0.43l0,0.59c0.628,0.102 1.236,0.305 1.8,0.6c0.217,0.132 0.398,0.313 0.53,0.53c0.086,0.549 0.106,1.106 0.06,1.66l0,8.14c0.041,0.455 -0.076,0.91 -0.33,1.29c-0.214,0.229 -0.507,0.368 -0.82,0.39c-1.29,0.27 -2,0.42 -2,0.44c-0.213,0.066 -0.365,0.257 -0.38,0.48c0.009,0.094 0.043,0.184 0.1,0.26c0.1,0.037 0.204,0.06 0.31,0.07c0.37,0 0.75,-0.06 1.15,-0.07l3.15,-0.07c0.36,0 1.08,0 2.17,0.14c0.8,0 1.46,0.08 2,0.1c0.056,-0.087 0.091,-0.187 0.1,-0.29c-0.004,-0.08 -0.025,-0.158 -0.06,-0.23c-0.26,-0.1 -0.65,-0.22 -1.17,-0.37c-0.54,-0.098 -1.052,-0.313 -1.5,-0.63c-0.197,-0.294 -0.279,-0.65 -0.23,-1l0.06,-6l0,-5.62l0,-1.03l0,-0.88c0,-0.29 0,-0.74 -0.08,-1.37l-0.24,0" style="fill:rgb(141,141,140);fill-rule:nonzero;"/>        <path d="M389.9,37.84c-1.538,0.025 -3.009,-0.644 -4,-1.82c-1.174,-1.533 -1.747,-3.444 -1.61,-5.37c-0.087,-1.674 0.232,-3.345 0.93,-4.87c0.478,-1 1.273,-1.816 2.26,-2.32c0.817,-0.384 1.707,-0.588 2.61,-0.6c1.11,-0.025 2.196,0.328 3.08,1c0.948,0.771 1.63,1.821 1.95,3c0.385,1.135 0.597,2.322 0.63,3.52c0.03,1.407 -0.25,2.803 -0.82,4.09c-0.448,1.048 -1.21,1.932 -2.18,2.53c-0.861,0.517 -1.846,0.793 -2.85,0.8m0.34,-15.75c-1.482,-0.042 -2.956,0.238 -4.32,0.82c-1.877,0.928 -3.336,2.533 -4.08,4.49c-0.351,0.903 -0.541,1.861 -0.56,2.83c-0.024,1.5 0.375,2.976 1.15,4.26c0.672,1.151 1.616,2.119 2.75,2.82c1.375,0.833 2.952,1.273 4.56,1.27c2.398,0.083 4.733,-0.796 6.48,-2.44c1.608,-1.402 2.544,-3.426 2.57,-5.56c0.032,-2.249 -0.853,-4.417 -2.45,-6c-1.592,-1.644 -3.802,-2.548 -6.09,-2.49" style="fill:rgb(141,141,140);fill-rule:nonzero;"/>        <path d="M415,21.61c-0.44,0.927 -1.078,1.747 -1.87,2.4c-0.65,0.479 -1.392,0.82 -2.18,1l0,0.68c0.73,0.038 1.429,0.304 2,0.76c0.27,0.469 0.382,1.012 0.32,1.55l0,7.7c0.051,0.374 -0.034,0.754 -0.24,1.07c-0.448,0.248 -0.948,0.389 -1.46,0.41c-0.377,0.056 -0.751,0.133 -1.12,0.23c-0.032,0.131 -0.052,0.265 -0.06,0.4l0,0.26l8.54,0l0,-0.4c-0.105,-0.208 -0.301,-0.356 -0.53,-0.4c-0.13,0 -0.41,-0.1 -0.82,-0.22c-0.41,-0.12 -0.78,-0.21 -1.1,-0.27c-0.225,-0.029 -0.438,-0.115 -0.62,-0.25c-0.085,-0.128 -0.133,-0.277 -0.14,-0.43c-0.07,-0.51 -0.1,-1.88 -0.1,-4.14l-0.06,-4.31l0,-1.6c0.697,-0.712 1.513,-1.297 2.41,-1.73c0.793,-0.379 1.661,-0.577 2.54,-0.58c0.996,-0.037 1.968,0.323 2.7,1c0.778,0.979 1.138,2.227 1,3.47l0,2.55c0,2.38 0,3.87 0.08,4.46l0,0.55c-0.019,0.274 -0.097,0.54 -0.23,0.78c-0.16,0.13 -0.338,0.235 -0.53,0.31c-0.251,0.073 -0.509,0.113 -0.77,0.12c-0.507,0.023 -1.007,0.127 -1.48,0.31c-0.076,0.102 -0.125,0.223 -0.14,0.35l0.12,0.45l2.62,0l2.56,-0.06l2.98,0c0.071,-0.158 0.112,-0.327 0.12,-0.5l0,-0.08c-0.671,-0.381 -1.428,-0.588 -2.2,-0.6c-0.219,-0.113 -0.397,-0.291 -0.51,-0.51c-0.101,-0.574 -0.138,-1.158 -0.11,-1.74l0,-2.32l0,-3c0.065,-1.552 -0.053,-3.106 -0.35,-4.63c-0.266,-0.813 -0.794,-1.517 -1.5,-2c-0.796,-0.584 -1.764,-0.886 -2.75,-0.86c-0.462,-0.008 -0.922,0.046 -1.37,0.16c-0.756,0.182 -1.49,0.443 -2.19,0.78c-0.851,0.394 -1.656,0.88 -2.4,1.45c-0.21,0.16 -0.39,0.3 -0.55,0.4l0,-0.35l0,-1.29c0,-0.26 0,-0.7 -0.06,-1.31l-0.65,0" style="fill:rgb(141,141,140);fill-rule:nonzero;"/>        <path d="M435.8,18.79c-0.1,0.22 -0.26,0.59 -0.47,1.12c-0.185,0.505 -0.405,0.996 -0.66,1.47c-0.319,0.486 -0.703,0.927 -1.14,1.31c-0.349,0.327 -0.747,0.597 -1.18,0.8c-0.316,0.114 -0.615,0.268 -0.89,0.46c-0.099,0.105 -0.153,0.245 -0.15,0.39c0,0.092 0.041,0.18 0.11,0.24c0.091,0.072 0.205,0.107 0.32,0.1l0.16,0l1.62,-0.06l0.33,0l0,3.99l-0.02,4.39c-0.052,1.172 0.025,2.345 0.23,3.5c0.184,0.571 0.558,1.062 1.06,1.39c0.62,0.413 1.355,0.62 2.1,0.59c0.974,0.031 1.946,-0.111 2.87,-0.42c0.73,-0.281 1.385,-0.73 1.91,-1.31l0,-0.13c0.003,-0.104 -0.036,-0.206 -0.11,-0.28c-0.08,-0.071 -0.184,-0.107 -0.29,-0.1l-0.17,0c-0.343,0.282 -0.736,0.496 -1.16,0.63c-0.63,0.158 -1.272,0.261 -1.92,0.31c-0.592,0.038 -1.166,-0.221 -1.53,-0.69c-0.443,-0.83 -0.627,-1.774 -0.53,-2.71l0,-5.18l-0.06,-2.94c-0.007,-0.386 0.047,-0.771 0.16,-1.14l1.87,0l3,-0.1l0.33,0c0.065,-0.259 0.105,-0.523 0.12,-0.79l0,-0.62l-1.18,0c-0.57,0 -1.16,0 -1.77,0.06c-1,0.06 -1.61,0.08 -2,0.08l-0.47,0l0,-2.39l-0.08,-1.84l-0.58,0" style="fill:rgb(141,141,140);fill-rule:nonzero;"/>    </g>    <defs>        <linearGradient id="_Linear1" x1="0" y1="0" x2="1" y2="0" gradientUnits="userSpaceOnUse" gradientTransform="matrix(137.93,0,0,137.93,0,63.68)"><stop offset="0" style="stop-color:rgb(32,38,62);stop-opacity:1"/><stop offset="0.18" style="stop-color:rgb(33,43,72);stop-opacity:1"/><stop offset="0.49" style="stop-color:rgb(38,57,99);stop-opacity:1"/><stop offset="0.89" style="stop-color:rgb(44,78,142);stop-opacity:1"/><stop offset="1" style="stop-color:rgb(46,85,155);stop-opacity:1"/></linearGradient>    </defs></svg>