<?xml version="1.0" encoding="UTF-8" standalone="no"?><!DOCTYPE svg PUBLIC "-//W3C//DTD SVG 1.1//EN" "http://www.w3.org/Graphics/SVG/1.1/DTD/svg11.dtd"><svg width="100%" height="100%" viewBox="0 0 1024 512" version="1.1" xmlns="http://www.w3.org/2000/svg" xmlns:xlink="http://www.w3.org/1999/xlink" xml:space="preserve" style="fill-rule:evenodd;clip-rule:evenodd;stroke-linejoin:round;stroke-miterlimit:2;"><title>FT</title><desc></desc>    <g transform="matrix(2.55,0,0,2.55387,2,96)">        <g transform="matrix(1,0,0,1,0,-137.3)">            <path d="M52.2,234.5l0,27.8l6.6,0l0,-11.6l11.1,0l0,-4.4l-11.1,0l0,-7.5l11.6,0l0,-4.4c-1,0.1 -17.2,0.1 -18.2,0.1Z" style="fill:rgb(168,4,50);fill-rule:nonzero;"/>        </g>        <g transform="matrix(1,0,0,1,0,-137.3)">            <rect x="76.2" y="240.9" width="5.7" height="21.4" style="fill:rgb(168,4,50);"/>        </g>        <g transform="matrix(1,0,0,1,0,-137.3)">            <path d="M88.5,240.9l7.3,0l7.2,14.5l0,-14.5l5.2,0l0,21.4l-7.1,0l-7.5,-14.7l-0.1,0l0.2,14.7l-5.2,0l0,-21.4Z" style="fill:rgb(168,4,50);fill-rule:nonzero;"/>        </g>        <g transform="matrix(1,0,0,1,0,-137.3)">            <path d="M124.6,245.3l-2.8,8.4l5.4,0l-2.6,-8.4Zm-3.5,-4.4l7,0l8.3,21.4l-6.3,0l-1.6,-4.6l-8,0l-1.7,4.6l-5.8,0l8.1,-21.4Z" style="fill:rgb(168,4,50);fill-rule:nonzero;"/>        </g>        <g transform="matrix(1,0,0,1,0,-137.3)">            <path d="M141.2,240.9l7.2,0l7.3,14.5l-0.1,-14.5l5.2,0l0,21.4l-7,0l-7.5,-14.7l-0.1,0l0.2,14.7l-5.2,0l0,-21.4Z" style="fill:rgb(168,4,50);fill-rule:nonzero;"/>        </g>        <g transform="matrix(1,0,0,1,0,-137.3)">            <path d="M167.4,257c1.5,0.8 3.5,1.4 5.9,1.4c1.8,0 3.5,-0.4 3.5,-2.1c0,-4 -10.1,-1.5 -10.1,-9.3c0,-5.1 5,-6.6 9.3,-6.6c2.1,0 4.1,0.3 5.5,0.8l-0.4,4.4c-1.5,-0.7 -3.1,-1 -4.8,-1c-1.4,0 -3.8,0.1 -3.8,2c0,3.5 10.1,1.1 10.1,8.9c0,5.5 -4.7,7.1 -9.4,7.1c-2,0 -4.5,-0.3 -6.4,-0.9l0.6,-4.7Z" style="fill:rgb(168,4,50);fill-rule:nonzero;"/>        </g>        <g transform="matrix(1,0,0,1,0,-137.3)">            <path d="M192.3,245.1l-5.3,0l0,-4.2l16.3,0l0,4.2l-5.3,0l0,17.2l-5.7,0l0,-17.2Z" style="fill:rgb(168,4,50);fill-rule:nonzero;"/>        </g>        <g transform="matrix(1,0,0,1,0,-137.3)">            <rect x="208.7" y="240.9" width="5.7" height="21.4" style="fill:rgb(168,4,50);"/>        </g>        <g transform="matrix(1,0,0,1,0,-137.3)">            <path d="M221.1,240.9l5.7,0l0,17.1l8.8,0l0,4.3l-14.5,0l0,-21.4Z" style="fill:rgb(168,4,50);fill-rule:nonzero;"/>        </g>        <g transform="matrix(1,0,0,1,0,-137.3)">            <path d="M240.9,257c1.5,0.8 3.5,1.4 5.9,1.4c1.8,0 3.5,-0.4 3.5,-2.1c0,-4 -10.1,-1.5 -10.1,-9.3c0,-5.1 5,-6.6 9.3,-6.6c2,0 4.1,0.3 5.5,0.8l-0.4,4.4c-1.5,-0.7 -3.1,-1 -4.8,-1c-1.4,0 -3.8,0.1 -3.8,2c0,3.5 10.1,1.1 10.1,8.9c0,5.5 -4.7,7.1 -9.4,7.1c-2,0 -4.5,-0.3 -6.4,-0.9l0.6,-4.7Z" style="fill:rgb(168,4,50);fill-rule:nonzero;"/>        </g>        <g transform="matrix(1,0,0,1,0,-137.3)">            <path d="M267.1,254.2l-7.9,-13.3l6.6,0l4.2,8.5l4.1,-8.5l6.6,0l-7.9,13.3l0,8.1l-5.7,0l0,-8.1Z" style="fill:rgb(168,4,50);fill-rule:nonzero;"/>        </g>        <g transform="matrix(1,0,0,1,0,-137.3)">            <path d="M285,240.9l7.3,0l7.2,14.5l0.1,0l-0.1,-14.5l5.2,0l0,21.4l-7.1,0l-7.4,-14.7l-0.1,0l0.2,14.7l-5.3,0l0,-21.4Z" style="fill:rgb(168,4,50);fill-rule:nonzero;"/>        </g>        <g transform="matrix(1,0,0,1,0,-137.3)">            <path d="M311,240.9l15.1,0l0,4l-9.4,0l0,4.4l8.9,0l0,4.1l-8.9,0l0,4.8l9.8,0l0,4.1l-15.5,0l0,-21.4Z" style="fill:rgb(168,4,50);fill-rule:nonzero;"/>        </g>        <g transform="matrix(1,0,0,1,0,-137.3)">            <path d="M336.8,245.1l-5.2,0l0,-4.2l16.2,0l0,4.2l-5.3,0l0,17.2l-5.7,0l0,-17.2Z" style="fill:rgb(168,4,50);fill-rule:nonzero;"/>        </g>        <g transform="matrix(1,0,0,1,0,-137.3)">            <path d="M172.1,194.4c-62,1.5 -120.9,8 -172.1,18.7l0,3.7c50,-10.4 108.8,-17.1 172.1,-18.7l0,-3.7Z" style="fill:rgb(168,4,50);fill-rule:nonzero;"/>        </g>        <g transform="matrix(1,0,0,1,0,-137.3)">            <path d="M227.9,194.4c62,1.5 120.9,8 172.1,18.7l0,3.7c-50,-10.4 -108.8,-17.1 -172.1,-18.7l0,-3.7Z" style="fill:rgb(168,4,50);fill-rule:nonzero;"/>        </g>        <g transform="matrix(1,0,0,1,0,-137.3)">            <rect x="180.6" y="187.5" width="38.9" height="4" style="fill:rgb(248,152,56);"/>        </g>        <g transform="matrix(1,0,0,1,0,-137.3)">            <path d="M194.1,179.7c0,2.1 -1.7,3.7 -3.7,3.7c-2.1,0 -3.7,-1.7 -3.7,-3.7c0,-2.1 1.7,-3.7 3.7,-3.7c2,0 3.7,1.6 3.7,3.7Z" style="fill:rgb(248,152,56);fill-rule:nonzero;"/>        </g>        <g transform="matrix(1,0,0,1,0,-137.3)">            <path d="M213.5,179.7c0,2.1 -1.7,3.7 -3.7,3.7c-2.1,0 -3.7,-1.7 -3.7,-3.7c0,-2.1 1.7,-3.7 3.7,-3.7c2,0 3.7,1.6 3.7,3.7Z" style="fill:rgb(255,214,41);fill-rule:nonzero;"/>        </g>        <g transform="matrix(1,0,0,1,0,-137.3)">            <path d="M213.5,179.7c0,2.1 -1.7,3.7 -3.7,3.7c-2.1,0 -3.7,-1.7 -3.7,-3.7c0,-2.1 1.7,-3.7 3.7,-3.7c2,0 3.7,1.6 3.7,3.7Z" style="fill:rgb(248,152,56);fill-rule:nonzero;"/>        </g>        <g transform="matrix(1,0,0,1,0,-137.3)">            <path d="M223.2,179.7c0,2.1 -1.7,3.7 -3.7,3.7c-2.1,0 -3.7,-1.7 -3.7,-3.7c0,-2.1 1.7,-3.7 3.7,-3.7c2,0 3.7,1.6 3.7,3.7Z" style="fill:rgb(248,152,56);fill-rule:nonzero;"/>        </g>        <g transform="matrix(1,0,0,1,0,-137.3)">            <path d="M176.9,179.7c0,2.1 1.7,3.7 3.7,3.7c2.1,0 3.7,-1.7 3.7,-3.7c0,-2.1 -1.7,-3.7 -3.7,-3.7c-2.1,0 -3.7,1.6 -3.7,3.7Z" style="fill:rgb(248,152,56);fill-rule:nonzero;"/>        </g>        <g transform="matrix(1,0,0,1,0,-137.3)">            <path d="M204.9,143.3l0,-2.5l-3.6,0l0,-3.5l-2.5,0l0,3.5l-3.6,0l0,2.5l3.6,0l0,3.8c-2,0.5 -3.5,2.4 -3.5,4.5c0,2.6 2.1,4.7 4.7,4.7c2.6,0 4.7,-2.1 4.7,-4.7c0,-2.2 -1.5,-4 -3.5,-4.5l0,-3.8l3.7,0Z" style="fill:rgb(248,152,56);fill-rule:nonzero;"/>        </g>        <g transform="matrix(1,0,0,1,0,-137.3)">            <rect x="180.6" y="194" width="38.9" height="4" style="fill:rgb(248,152,56);"/>        </g>        <g transform="matrix(1,0,0,1,0,-137.3)">            <path d="M203.8,179.7c0,2.1 -1.7,3.7 -3.7,3.7c-2.1,0 -3.7,-1.7 -3.7,-3.7c0,-2.1 1.7,-3.7 3.7,-3.7c2,0 3.7,1.6 3.7,3.7Z" style="fill:rgb(248,152,56);fill-rule:nonzero;"/>        </g>        <g transform="matrix(1,0,0,1,0,-137.3)">            <path d="M229.1,162.1c-2.6,-2.5 -7.2,-2.5 -11.9,-1.1c-0.1,-0.6 -0.3,-1.2 -0.5,-1.7c-0.6,-1.3 -2.1,-2.9 -5.4,-3.2c-3.6,-0.3 -8.3,1.7 -11.2,4.4c-2.9,-2.7 -7.6,-4.7 -11.2,-4.4c-3.3,0.3 -4.7,1.9 -5.4,3.2c-0.2,0.5 -0.4,1.1 -0.5,1.7c-4.7,-1.4 -9.3,-1.4 -11.9,1.1c-1.2,1.1 -1.8,2.6 -1.8,4.1c0,3.3 3,6.8 6.7,10.3c0.2,-0.3 0.4,-0.6 0.7,-0.8c0.9,-0.9 2,-1.4 3.2,-1.6c-3.1,-2.9 -6.2,-6.1 -6.2,-8c0,-0.3 0.1,-0.5 0.4,-0.9c1.4,-1.4 5.2,-1 9.4,0.5c0.7,2.5 2.1,5.4 4.3,8.9c0.8,-0.4 1.7,-0.6 2.6,-0.6c0.9,0 1.8,0.2 2.5,0.6c-0.5,-0.9 -0.8,-1.4 -0.8,-1.4c-4,-6.4 -4.7,-9.6 -4.7,-11.1c0,-0.6 0.1,-0.9 0.2,-1c0.2,-0.4 0.8,-0.7 1.8,-0.8c2.7,-0.2 7,1.9 8.6,4.1l0,9.9c0.7,-0.3 1.4,-0.4 2.2,-0.4c0.8,0 1.5,0.2 2.2,0.4l0,-9.9c1.6,-2.3 5.9,-4.4 8.6,-4.1c1,0.1 1.6,0.3 1.8,0.8c0.1,0.1 0.2,0.4 0.2,1c0,1.4 -0.7,4.6 -4.8,11.1c0,0 -0.3,0.6 -0.8,1.4c0.8,-0.4 1.6,-0.6 2.5,-0.6c0.9,0 1.8,0.2 2.6,0.6c2.1,-3.5 3.5,-6.4 4.3,-8.9c4.1,-1.5 7.9,-1.8 9.4,-0.5c0.3,0.3 0.4,0.6 0.4,0.9c0,1.9 -3.1,5.1 -6.2,8c1.2,0.2 2.3,0.7 3.2,1.6c0.3,0.3 0.5,0.5 0.7,0.8c3.7,-3.5 6.7,-7 6.7,-10.3c-0.1,-1.6 -0.7,-3 -1.9,-4.1Z" style="fill:rgb(248,152,56);fill-rule:nonzero;"/>        </g>    </g></svg>