<?xml version="1.0" encoding="UTF-8" standalone="no"?><!DOCTYPE svg PUBLIC "-//W3C//DTD SVG 1.1//EN" "http://www.w3.org/Graphics/SVG/1.1/DTD/svg11.dtd"><svg width="100%" height="100%" viewBox="0 0 1024 512" version="1.1" xmlns="http://www.w3.org/2000/svg" xmlns:xlink="http://www.w3.org/1999/xlink" xml:space="preserve" style="fill-rule:evenodd;clip-rule:evenodd;stroke-linejoin:round;stroke-miterlimit:2;"><title>BitOfProperty</title><desc>BitOfProperty is a blockchain based real estate crowdinvestment platform, making property investing affordable and increasing liquidity of the investments. The company is headquartered in Singapore and has a subsidiary in Estonia.</desc>    <g id="Ebene-2" transform="matrix(0.790969,0,0,0.790969,-14.4937,137.947)">        <g transform="matrix(839.696,0,0,-839.696,470.713,154.592)">            <path d="M0.099,0.072l0,-0.005c0,-0.005 0.004,-0.009 0.009,-0.009c0.006,0 0.01,0.004 0.01,0.009l0,0.005c0,0.005 -0.004,0.009 -0.01,0.009c-0.005,0 -0.009,-0.004 -0.009,-0.009Zm-0.099,-0.001l0,-0.082c0,-0.025 0.015,-0.04 0.039,-0.04c0.025,0 0.04,0.015 0.04,0.04l0,0.017c0,0.024 -0.014,0.039 -0.037,0.039c-0.011,0 -0.02,-0.004 -0.025,-0.011l-0.001,0l0,0.037c0,0.005 -0.003,0.008 -0.008,0.008c-0.005,0 -0.008,-0.003 -0.008,-0.008Zm0.016,-0.081l0,0.015c0,0.016 0.009,0.026 0.023,0.026c0.015,0 0.023,-0.01 0.023,-0.026l0,-0.015c0,-0.017 -0.008,-0.026 -0.023,-0.026c-0.015,0 -0.023,0.009 -0.023,0.026Zm0.843,0.071l0,-0.018l-0.008,0c-0.005,0 -0.007,-0.002 -0.007,-0.007c0,-0.004 0.002,-0.007 0.007,-0.007l0.008,0l0,-0.052c0,-0.018 0.01,-0.028 0.027,-0.028c0.011,0 0.019,0.004 0.024,0.011c0.001,0.002 0.001,0.004 0.001,0.006c0,0.004 -0.002,0.007 -0.007,0.007c-0.003,0 -0.005,-0.001 -0.006,-0.003c-0.003,-0.004 -0.006,-0.006 -0.011,-0.006c-0.008,0 -0.012,0.004 -0.012,0.013l0,0.052l0.027,0c0.005,0 0.008,0.003 0.008,0.007c0,0.005 -0.003,0.007 -0.008,0.007l-0.027,0l0,0.018c0,0.005 -0.003,0.008 -0.008,0.008c-0.005,0 -0.008,-0.003 -0.008,-0.008Zm-0.715,0l0,-0.018l-0.007,0c-0.005,0 -0.008,-0.002 -0.008,-0.007c0,-0.004 0.003,-0.007 0.008,-0.007l0.007,0l0,-0.052c0,-0.018 0.01,-0.028 0.028,-0.028c0.011,0 0.019,0.004 0.024,0.011c0,0.002 0.001,0.004 0.001,0.006c0,0.004 -0.003,0.007 -0.007,0.007c-0.003,0 -0.005,-0.001 -0.007,-0.003c-0.002,-0.004 -0.006,-0.006 -0.011,-0.006c-0.007,0 -0.011,0.004 -0.011,0.013l0,0.052l0.027,0c0.004,0 0.007,0.003 0.007,0.007c0,0.005 -0.003,0.007 -0.007,0.007l-0.027,0l0,0.018c0,0.005 -0.003,0.008 -0.008,0.008c-0.006,0 -0.009,-0.003 -0.009,-0.008Zm0.632,-0.049l0,-0.053c0,-0.006 0.003,-0.009 0.009,-0.009c0.004,0 0.008,0.003 0.008,0.009l0,0.053c0,0.012 0.006,0.019 0.016,0.019c0.008,0 0.012,-0.004 0.015,-0.01c0.002,-0.003 0.004,-0.004 0.007,-0.004c0.005,0 0.008,0.003 0.008,0.008c0,0.001 0,0.002 -0.001,0.003c-0.004,0.011 -0.015,0.017 -0.029,0.017c-0.02,0 -0.033,-0.012 -0.033,-0.033Zm-0.095,-0.007l0,-0.016c0,-0.025 0.015,-0.04 0.039,-0.04c0.016,0 0.027,0.006 0.034,0.017c0.001,0.002 0.001,0.003 0.001,0.005c0,0.005 -0.003,0.008 -0.008,0.008c-0.003,0 -0.005,-0.002 -0.007,-0.004c-0.004,-0.007 -0.01,-0.011 -0.02,-0.011c-0.014,0 -0.022,0.009 -0.022,0.026l0,0.001l0.052,0c0.005,0 0.008,0.003 0.008,0.008l0,0.006c0,0.025 -0.015,0.04 -0.038,0.04c-0.024,0 -0.039,-0.015 -0.039,-0.04Zm0.039,0.026c0.013,0 0.022,-0.01 0.022,-0.026l-0.044,0c0,0.016 0.008,0.026 0.022,0.026Zm-0.136,-0.026l0,-0.077c0,-0.005 0.003,-0.009 0.008,-0.009c0.005,0 0.008,0.004 0.008,0.009l0,0.032l0.001,0c0.006,-0.007 0.014,-0.011 0.025,-0.011c0.023,0 0.037,0.015 0.037,0.04l0,0.016c0,0.025 -0.015,0.04 -0.04,0.04c-0.024,0 -0.039,-0.015 -0.039,-0.04Zm0.016,-0.016l0,0.015c0,0.017 0.009,0.027 0.023,0.027c0.015,0 0.023,-0.01 0.023,-0.027l0,-0.015c0,-0.016 -0.008,-0.025 -0.023,-0.025c-0.014,0 -0.023,0.009 -0.023,0.025Zm-0.114,0.016l0,-0.016c0,-0.025 0.014,-0.04 0.039,-0.04c0.024,0 0.039,0.015 0.039,0.04l0,0.016c0,0.025 -0.015,0.04 -0.039,0.04c-0.025,0 -0.039,-0.015 -0.039,-0.04Zm0.016,-0.015l0,0.014c0,0.017 0.008,0.027 0.023,0.027c0.015,0 0.023,-0.01 0.023,-0.027l0,-0.014c0,-0.017 -0.008,-0.026 -0.023,-0.026c-0.015,0 -0.023,0.009 -0.023,0.026Zm-0.09,0.022l0,-0.053c0,-0.006 0.003,-0.009 0.008,-0.009c0.005,0 0.009,0.003 0.009,0.009l0,0.053c0,0.012 0.006,0.019 0.016,0.019c0.007,0 0.012,-0.004 0.015,-0.01c0.002,-0.003 0.004,-0.004 0.007,-0.004c0.004,0 0.008,0.003 0.008,0.008c0,0.001 0,0.002 -0.001,0.003c-0.004,0.011 -0.015,0.017 -0.029,0.017c-0.02,0 -0.033,-0.012 -0.033,-0.033Zm-0.098,-0.007l0,-0.077c0,-0.005 0.003,-0.009 0.008,-0.009c0.005,0 0.008,0.004 0.008,0.009l0,0.032l0,0c0.006,-0.007 0.015,-0.011 0.026,-0.011c0.022,0 0.036,0.015 0.036,0.04l0,0.016c0,0.025 -0.014,0.04 -0.039,0.04c-0.024,0 -0.039,-0.015 -0.039,-0.04Zm0.016,-0.016l0,0.015c0,0.017 0.008,0.027 0.023,0.027c0.015,0 0.023,-0.01 0.023,-0.027l0,-0.015c0,-0.016 -0.008,-0.025 -0.023,-0.025c-0.015,0 -0.023,0.009 -0.023,0.025Zm0.655,0.051l-0.027,-0.063l0,0l-0.026,0.062c-0.001,0.003 -0.003,0.005 -0.007,0.005c-0.005,0 -0.008,-0.003 -0.008,-0.007c0,-0.002 0,-0.003 0,-0.005l0.033,-0.074l-0.013,-0.026c-0.001,-0.001 -0.001,-0.003 -0.001,-0.004c0,-0.005 0.003,-0.009 0.008,-0.009c0.003,0 0.006,0.002 0.007,0.005l0.048,0.108c0,0.001 0.001,0.002 0.001,0.005c0,0.004 -0.003,0.007 -0.008,0.007c-0.004,0 -0.006,-0.001 -0.007,-0.004Zm-0.885,-0.004l0,-0.077c0,-0.006 0.003,-0.009 0.008,-0.009c0.005,0 0.008,0.003 0.008,0.009l0,0.077c0,0.005 -0.003,0.008 -0.008,0.008c-0.005,0 -0.008,-0.003 -0.008,-0.008Z" style="fill:url(#_Linear1);fill-rule:nonzero;"/>        </g>        <g transform="matrix(1,0,0,1,659.06,180.65)">            <path d="M0,-5.704l0,5.704c0,6.816 3.259,10.742 9.334,10.742c6,0 9.333,-3.926 9.333,-10.742l0,-5.704c0,-6.888 -3.333,-10.74 -9.333,-10.74c-6.075,0 -9.334,3.852 -9.334,10.74m25.26,-0.295l0,6.296c0,10.223 -6,16.37 -15.926,16.37c-10.001,0 -15.927,-6.147 -15.927,-16.37l0,-6.296c0,-10.223 5.926,-16.372 15.927,-16.372c9.926,0 15.926,6.149 15.926,16.372" style="fill:rgb(23,109,157);fill-rule:nonzero;"/>        </g>        <g transform="matrix(1,0,0,1,701.206,183.983)">            <path d="M0,-26.963l0,2.149l10.963,0c1.852,0 3.037,1.036 3.037,2.888c0,1.853 -1.185,2.889 -3.037,2.889l-10.963,0l0,28.445c0,2.149 -1.259,3.482 -3.334,3.482c-2.073,0 -3.259,-1.333 -3.259,-3.482l0,-28.445l-3.111,0c-1.852,0 -3.037,-1.036 -3.037,-2.889c0,-1.852 1.185,-2.888 3.037,-2.888l3.111,0l0,-2.223c0,-8.074 4.445,-12.816 12.446,-12.816c3.481,0 6.667,1.037 8.888,3.187c0.519,0.517 0.889,1.259 0.889,2.147c0,2 -1.333,3.259 -3.037,3.259c-0.963,0 -1.778,-0.444 -2.37,-1.037c-1.186,-1.185 -2.593,-1.629 -4.297,-1.629c-3.852,0 -5.926,2.518 -5.926,6.963" style="fill:rgb(23,109,157);fill-rule:nonzero;"/>        </g>        <g transform="matrix(1,0,0,1,191.533,269.837)">            <path d="M0,-72.274l-149.509,0l-21.172,72.274l170.681,-72.274Z" style="fill:rgb(52,96,172);fill-rule:nonzero;"/>        </g>        <g transform="matrix(-1,0,0,1,258.201,97.0414)">            <path d="M-150.61,-68.376l141.718,0l8.892,68.376l-115.45,-52.414l-35.16,-15.962Z" style="fill:rgb(109,190,78);fill-rule:nonzero;"/>        </g>        <g transform="matrix(236.991,-282.435,-282.435,-236.991,101.442,247.058)">            <path d="M0.01,0.205l0.271,-0.322l0.073,-0.088l0.22,0.14l-0.564,0.27Z" style="fill:url(#_Linear2);fill-rule:nonzero;"/>        </g>        <g transform="matrix(-47.5462,365.614,365.614,47.5462,362.537,-132.899)">            <path d="M0.661,-0.2l0.263,0l-0.035,0.273l-0.469,0.116l0.241,-0.389Z" style="fill:url(#_Linear3);fill-rule:nonzero;"/>        </g>    </g>    <defs>        <linearGradient id="_Linear1" x1="0" y1="0" x2="1" y2="0" gradientUnits="userSpaceOnUse" gradientTransform="matrix(1,0,0,-1,0,-3.7585e-07)"><stop offset="0" style="stop-color:rgb(44,92,170);stop-opacity:1"/><stop offset="1" style="stop-color:rgb(106,190,83);stop-opacity:1"/></linearGradient>        <linearGradient id="_Linear2" x1="0" y1="0" x2="1" y2="0" gradientUnits="userSpaceOnUse" gradientTransform="matrix(1,0,0,-1,0,3.65923e-06)"><stop offset="0" style="stop-color:rgb(53,96,172);stop-opacity:1"/><stop offset="0.27" style="stop-color:rgb(53,96,172);stop-opacity:1"/><stop offset="0.93" style="stop-color:rgb(109,190,78);stop-opacity:1"/><stop offset="1" style="stop-color:rgb(109,190,78);stop-opacity:1"/></linearGradient>        <linearGradient id="_Linear3" x1="0" y1="0" x2="1" y2="0" gradientUnits="userSpaceOnUse" gradientTransform="matrix(-0.842541,0.538632,0.538632,0.842541,1.24465,-0.36385)"><stop offset="0" style="stop-color:rgb(53,96,172);stop-opacity:1"/><stop offset="0.25" style="stop-color:rgb(53,96,172);stop-opacity:1"/><stop offset="0.81" style="stop-color:rgb(109,190,78);stop-opacity:1"/><stop offset="1" style="stop-color:rgb(109,190,78);stop-opacity:1"/></linearGradient>    </defs></svg>