<?xml version="1.0" encoding="UTF-8" standalone="no"?><!DOCTYPE svg PUBLIC "-//W3C//DTD SVG 1.1//EN" "http://www.w3.org/Graphics/SVG/1.1/DTD/svg11.dtd"><svg width="100%" height="100%" viewBox="0 0 1024 512" version="1.1" xmlns="http://www.w3.org/2000/svg" xmlns:xlink="http://www.w3.org/1999/xlink" xml:space="preserve" style="fill-rule:evenodd;clip-rule:evenodd;stroke-linejoin:round;stroke-miterlimit:2;"><title>Circulantis</title><desc>Circulantis es el marketplace en el que las empresas que utilizan para financiar su capital circulante el descuento de pagarés cambiarios de medianos y grandes emisores solventes, contactan directamente con ahorradores que buscan una interesante rentabilidad con un riesgo muy controlado en un entorno de absoluta transparencia.</desc>    <g transform="matrix(0.637486,0,0,0.637486,2,173.087)">        <path d="M63,230.9c-4.1,-0.4 -9.1,-1.1 -11,-1.7c-6.2,-1.6 -18,-7.1 -20,-9.2c-0.3,-0.3 -2.3,-1.8 -4.5,-3.5c-5.9,-4.3 -15.5,-14.6 -15.5,-16.5c0,-0.5 -0.3,-1 -0.8,-1c-1.3,0 -5.5,-9.1 -8.8,-18.9c-2.1,-6.4 -2.4,-9.2 -2.4,-21.2c0,-18.2 2.2,-26.5 10.5,-39.5c8.3,-12.9 20.2,-22.7 35.5,-29.2c14.9,-6.3 44.6,-5.3 57.3,1.9c1,0.5 3.6,1.9 5.8,3.1c2.1,1.1 3.9,2.4 3.9,2.9c0,0.5 0.6,0.9 1.3,0.9c1.5,0 8,6.5 9.6,9.7c2.6,5.2 0.3,13.6 -4.7,17.2c-4.9,3.4 -14.7,2.7 -18.7,-1.5c-1.4,-1.4 -8.5,-5.9 -11,-6.8c-14.9,-5.8 -27.3,-4.5 -42.6,4.6c-4.3,2.6 -11.6,10.8 -14.1,16c-1.4,2.9 -3.4,8.6 -4.3,12.6c-1.7,6.9 -1.7,7.8 -0.1,15.1c1.7,8.2 5,15.6 8.5,19.7c1.2,1.3 2.1,2.9 2.1,3.4c0,0.6 0.4,1 0.9,1c0.4,0 1.9,1.1 3.2,2.4c3.9,3.9 15.8,9.3 22.7,10.3c7.1,1.1 16.6,0.1 22.7,-2.4c2.2,-0.9 6.8,-3.6 10.2,-6c5.6,-3.9 6.7,-4.3 12,-4.3c5.1,0 6.4,0.4 9,2.8c1.7,1.5 3.6,4.4 4.3,6.5c3.1,9.5 -3.6,17.8 -21,25.9c-11.6,5.4 -24.2,7.2 -40,5.7Z" style="fill:rgb(102,102,100);fill-rule:nonzero;"/>        <path d="M157.5,231.2c-4.5,-0.6 -9,-4.5 -10.3,-9c-1.7,-5.6 -1.7,-122.5 0,-127.3c2.1,-6.1 6.4,-8.9 13.8,-8.9c5,0 5.9,0.3 8.7,3.2c1.7,1.8 3.6,4.3 4.2,5.5c0.8,1.5 1.1,20.3 1.1,63.8c0,54.9 -0.2,62.1 -1.6,65.1c-2.8,5.8 -8.6,8.6 -15.9,7.6Z" style="fill:rgb(102,102,100);fill-rule:nonzero;"/>        <path d="M206,231.2c-1.4,-0.2 -3.7,-1.3 -5.3,-2.4c-5.8,-4.1 -5.7,-3.4 -5.7,-70.4c0,-61.7 0.1,-64.5 3.5,-67.9c3.2,-3.3 6.3,-4.5 11.6,-4.5c5.4,0 5.9,0.2 9.3,4c2,2.3 3.9,5.4 4.3,7c0.5,2.6 0.8,2.8 2.7,1.8c1.1,-0.6 2.3,-1.4 2.6,-1.8c0.7,-1.1 15.6,-8 17.2,-8c0.7,0 3.1,-0.7 5.3,-1.5c6.3,-2.2 29.6,-2 37.1,0.4c7.5,2.4 11.4,4.2 11.4,5.3c0,0.4 0.6,0.8 1.3,0.8c3.3,0 5.6,9.6 3.7,15.4c-0.6,1.9 -2.5,4.7 -4.2,6.1c-2.8,2.4 -3.8,2.6 -9.2,2.2c-3.4,-0.2 -8.8,-1.1 -12.1,-2c-10.3,-2.8 -20,-1.8 -30.5,3.1c-6.6,3.1 -17,13.1 -20,19.2c-4.8,10 -5,11.5 -5,48.3c0,37.3 -0.1,37.8 -5.2,42.3c-2.6,2.2 -8.5,3.4 -12.8,2.6Z" style="fill:rgb(102,102,100);fill-rule:nonzero;"/>        <path d="M362.5,231.3c-16,-0.9 -34.5,-9.6 -45.3,-21.3c-1.8,-1.9 -4.1,-4.4 -5.2,-5.6c-1,-1.1 -2.4,-3.3 -3.1,-4.7c-0.7,-1.5 -1.5,-2.7 -1.8,-2.7c-0.6,0 -2.3,-3.2 -4.9,-9c-4.8,-10.6 -6.9,-26.5 -5.3,-38.2c2.1,-14.3 5.4,-23.1 12.5,-32.8c10.9,-14.9 23.6,-24 40.7,-29c6.7,-1.9 9.3,-2.1 21.5,-1.8c14.9,0.5 23.8,2.6 31.6,7.5c2.1,1.3 4,2.3 4.3,2.3c1.1,0 8,5.5 10.7,8.5c5.2,5.8 4.8,14.9 -0.8,20.3c-3,2.8 -4.1,3.2 -8.9,3.2c-5,0 -6.3,-0.5 -12.8,-4.8c-7.8,-5.3 -8.6,-5.7 -16.5,-7.8c-14.2,-3.8 -29.2,0.6 -40.8,12.1c-9.4,9.2 -13.4,18.5 -13.4,31.5c0,12.3 3.8,21.4 12.6,30.7c2.8,2.9 5.7,5.3 6.3,5.3c0.6,0 1.1,0.3 1.1,0.8c0,1.5 10.7,5.6 17.5,6.7c12.5,2 23.3,-0.9 34.6,-9.1c4.1,-3 5.4,-3.4 10.7,-3.4c5.5,0 6.3,0.3 9.6,3.5c3.4,3.3 3.6,3.8 3.6,9.9c0,5.8 -0.3,6.6 -3.2,9.8c-6.7,7 -18.5,13.6 -29.3,16.3c-5.5,1.4 -18.1,2.3 -26,1.8Z" style="fill:rgb(102,102,100);fill-rule:nonzero;"/>        <path d="M495.5,231c-19.3,-2.1 -35.9,-12.3 -47.4,-29c-3.5,-5.1 -4.5,-7 -8.1,-15.5c-3.4,-8.2 -4,-15.7 -4,-53.1c0,-40.6 0,-40.8 5.9,-45.2c2.2,-1.6 4.4,-2.2 8.4,-2.2c6.6,0 11.9,3.5 13.6,9.1c0.7,2.4 1.1,16.5 1.1,40.3l0,36.6l2.7,6.6c3.2,8 11.3,16.8 18.8,20.4c22.6,10.8 48.7,-0.8 56.1,-25c1.1,-3.5 1.4,-12.8 1.4,-41.3c0,-40.2 0,-40.1 5.9,-44.4c2.2,-1.7 4.4,-2.3 8.2,-2.3c6.3,0 10.3,2.2 12.6,7c1.7,3.2 1.8,8.5 2.1,63c0.4,66.5 0.2,68.3 -5.3,72.6c-2.9,2.2 -4.5,2.6 -9.7,2.6c-6.1,0 -6.4,-0.1 -10,-4.2c-2.1,-2.4 -3.8,-4.8 -3.8,-5.6c0,-0.8 -3,0.3 -8.4,3c-11.7,6 -24.9,8.2 -40.1,6.6Z" style="fill:rgb(102,102,100);fill-rule:nonzero;"/>        <path d="M605,231c-2.1,-0.5 -4.6,-2.2 -6.2,-4.1l-2.8,-3.3l0,-96.1l0,-96.1l3.1,-3.5c2.9,-3.3 3.3,-3.4 10.4,-3.4c7.1,0 7.4,0.1 10.3,3.4c1.9,2.3 3.2,5 3.6,7.9c0.3,2.5 0.6,41.3 0.6,86.3l0,81.9l5.8,0c5.1,0 6.2,0.4 9,3.1c3.4,3.3 4.9,9.3 3.7,14.8c-1,4.8 -5.6,8.7 -11.1,9.5c-6.3,0.8 -22.1,0.6 -26.4,-0.4Z" style="fill:rgb(102,102,100);fill-rule:nonzero;"/>        <path d="M712,231c-7.5,-0.7 -11.8,-1.5 -15.5,-2.9c-4.3,-1.7 -14.1,-6.7 -15.3,-7.8c-0.7,-0.7 -1.6,-1.3 -2,-1.3c-1.4,0 -13.9,-12.7 -17.8,-18c-3.7,-5 -7.1,-11.5 -9.6,-17.9c-1.6,-4.3 -3.8,-18.3 -3.8,-24.6c0,-6.8 2.1,-19.1 4.2,-25.1c1.9,-5.4 8.3,-16.7 11.4,-20.2c12.4,-13.8 21.6,-20 36.8,-24.6c8.2,-2.5 9.9,-2.7 22.5,-2.3c17.7,0.6 25.3,2.8 38.9,11.5c9.2,5.8 20,17.9 25.2,28.1c6.4,12.8 7.9,24.2 8,61.6c0,18.5 -0.4,31.5 -1.1,34c-1.3,4.9 -6.3,9.4 -10.4,9.6c-5.1,0.3 -8.9,-0.1 -11.1,-1.2c-2.6,-1.3 -6.4,-7.8 -6.4,-10.9l0,-2.2l-3.2,2.4c-5.3,3.9 -16.9,9 -24.3,10.6c-7,1.5 -17.7,2 -26.5,1.2Zm28.5,-32.5c4.7,-2.2 8.8,-5.2 12.3,-8.8c2.8,-3.1 5.2,-5.9 5.2,-6.3c0,-0.4 0.7,-1.5 1.5,-2.4c3.1,-3.5 6.5,-15 6.5,-22.1c0,-12 -6.6,-26 -15.9,-33.8c-18.7,-15.7 -43.7,-14.4 -61.1,3.1c-8,8.1 -12,18.1 -12,30.2c0,8.7 1.4,14.4 5.1,21.6c2.6,4.9 11.8,15 13.7,15c0.7,0 1.2,0.4 1.2,0.9c0,1.5 10.3,5.4 17.5,6.6c9.2,1.4 17.1,0.2 26,-4Z" style="fill:rgb(102,102,100);fill-rule:nonzero;"/>        <path d="M819.5,231c-5.9,-1.3 -7.2,-2.2 -9.4,-6c-2.1,-3.7 -2.1,-4.3 -2.1,-65.8c0,-67.1 -0.1,-65.3 5.5,-70.4c2.6,-2.4 3.9,-2.8 9.1,-2.8c5.8,0 6.4,0.2 9,3.3c1.6,1.8 3.6,4.3 4.5,5.7l1.6,2.4l4.9,-3.1c9.6,-5.9 19.3,-8.3 33.4,-8.3c10.2,0 13,0.4 20.2,2.7c7.8,2.5 20.9,9.5 21.6,11.4c0.2,0.5 0.8,0.9 1.3,0.9c1.9,0 11.5,10.7 14.5,16.1c1,1.9 2.2,3.6 2.5,3.9c0.4,0.3 1.9,3.4 3.4,7c4.8,11.7 5.5,19.3 5.5,57.1c0,38.2 -0.2,39.8 -6.1,44c-4.5,3.2 -13.5,3.1 -17.4,-0.2c-5.5,-4.8 -5.5,-4.7 -5.5,-45.1l0,-37.3l-2.7,-6.5c-3.2,-7.7 -3.5,-8 -9.3,-13.9c-6.9,-7 -18.4,-12.1 -27.5,-12.1c-4.7,0 -12.5,2 -18,4.6c-4.9,2.2 -15.4,12.7 -17.6,17.4c-3.7,8.1 -3.9,10.3 -3.9,47.4c0,31.9 -0.2,37.3 -1.6,40.2c-2.8,5.9 -9.2,8.9 -15.9,7.4Z" style="fill:rgb(102,102,100);fill-rule:nonzero;"/>        <path d="M1013,231.3c-11.4,-0.6 -24.5,-4.6 -28.5,-8.7c-0.7,-0.7 -2.6,-2.4 -4.3,-3.7c-4.3,-3.7 -7.8,-9.5 -10.8,-17.9l-2.7,-7.5l-0.5,-39.7l-0.4,-39.8l-2.8,0c-8.9,0 -14.4,-4.1 -15.5,-11.4c-1.5,-9.6 4.2,-16.6 13.4,-16.6l5,0l0.3,-26.8c0.3,-24.8 0.4,-26.9 2.3,-29.4c4,-5.4 12,-7.3 18.8,-4.4c6.5,2.7 6.7,3.5 6.7,33.6l0,27l22.3,0l3.9,4c3.4,3.7 3.8,4.6 3.8,9.3c0,6.5 -2.7,11.3 -7.5,13.3c-2.2,0.9 -6.9,1.4 -13,1.4l-9.6,0l0.3,35.3c0.4,38.5 0.9,41.5 6.6,47.2c4.1,4.1 7.3,5.4 17.4,6.9c8.8,1.3 9.4,1.5 12.5,5.1c2.8,3.3 3.3,4.6 3.3,9.1c0,4.8 -0.4,5.7 -3.8,9.4c-2.2,2.2 -4.7,4 -5.8,4c-1,0 -2.8,0.2 -3.9,0.3c-1.1,0.2 -4.5,0.2 -7.5,0Z" style="fill:rgb(102,102,100);fill-rule:nonzero;"/>        <path d="M1058.3,231.3c-4.1,-0.5 -9,-5.3 -9.8,-9.6c-0.3,-1.8 -0.5,-31.5 -0.3,-66l0.3,-62.8l3.9,-3.5c3.4,-3 4.5,-3.4 9.2,-3.4c6.3,0 9.4,1.7 12.4,6.5c2,3.2 2,4.8 2,66.8l0,63.6l-3.8,4.1c-2.2,2.2 -4.8,4 -6,4c-1.1,0 -2.6,0.2 -3.4,0.3c-0.7,0.2 -2.8,0.2 -4.5,0Z" style="fill:rgb(102,102,100);fill-rule:nonzero;"/>        <path d="M1149.5,231.3c-16.1,-0.9 -32.4,-8.6 -45,-21.1c-2.2,-2.1 -4.6,-4.9 -5.2,-6c-1.5,-2.6 -1.7,-14.2 -0.3,-14.2c0.6,0 1,-0.6 1,-1.3c0,-2.1 7.3,-5.7 11.5,-5.7c4.4,0 6.7,1.2 12,6.1c2.2,2 5.1,4.6 6.5,5.7c11.8,9.1 31.9,10.9 46.1,4c6.3,-3.1 10.9,-7.8 10.9,-11.2c0,-2.5 -2.8,-5.6 -5.1,-5.6c-0.8,0 -3.9,-0.9 -6.9,-2.1c-3,-1.1 -8.2,-2.9 -11.5,-3.9c-11.2,-3.5 -19,-6.1 -22.5,-7.5c-1.9,-0.7 -7.3,-2.5 -12,-4c-11.9,-3.8 -17.8,-6.9 -22.9,-12.2c-6.8,-7.1 -8.6,-12 -8.5,-23.3c0.1,-11.9 2,-16.6 9.9,-24.5c7.3,-7.2 14.8,-11.8 23.5,-14.4c2.5,-0.7 6.5,-2 8.9,-2.7c7,-2.2 27,-1.9 35.6,0.6c6.1,1.7 19.1,7.4 20.5,9c0.3,0.3 2.3,1.8 4.5,3.4c7.1,5.3 13.4,12.4 14.5,16.7c2,7.4 -1.8,14.4 -9.3,16.8c-6.3,2.1 -10.2,0.4 -20.1,-8.6c-6.7,-6.1 -9.7,-7.7 -18.6,-9.9c-13.9,-3.4 -29.1,0.1 -38,8.7c-4.3,4.2 -5,6.8 -2.2,9.1c0.9,0.8 12.5,4.9 25.7,9.2c13.2,4.3 25.6,8.4 27.5,9.1c1.9,0.8 5.9,2.1 8.7,3c2.9,0.9 5.5,2.1 5.8,2.6c0.4,0.5 1.5,0.9 2.6,0.9c1,0 1.9,0.5 1.9,1c0,0.6 0.6,1 1.4,1c1.6,0 10.6,8.8 10.6,10.4c0,0.7 0.5,1.7 1.2,2.4c3.7,3.7 5,18.5 2.3,26.1c-2,5.7 -7.9,14 -12.7,17.6c-2.1,1.7 -4.5,3.5 -5.2,4.2c-1.4,1.3 -9.7,5.1 -15.1,7.1c-7.4,2.6 -21.2,4.2 -32,3.5Z" style="fill:rgb(102,102,100);fill-rule:nonzero;"/>        <path d="M153.5,75.6c-1.6,-0.8 -4.3,-2.8 -6,-4.5c-2.8,-3 -3,-3.8 -3,-10.4c0,-6.2 0.3,-7.6 2.5,-10c4.1,-4.7 8.3,-6.7 13.7,-6.7c13.2,0 20.8,14.6 13.6,25.8c-4.2,6.5 -13.4,9.1 -20.8,5.8Z" style="fill:rgb(102,102,100);fill-rule:nonzero;"/>        <path d="M1056.2,76.3c-3.7,-0.7 -9.9,-7.7 -10.5,-12.1c-1.8,-10.9 5.4,-20.2 15.6,-20.2c6.8,0 12.8,3.4 15.6,8.7c1.4,2.8 1.4,12.8 0,15.5c-3.8,7 -11.2,9.9 -20.7,8.1Z" style="fill:rgb(102,102,100);fill-rule:nonzero;"/>        <g transform="matrix(0.603592,0,0,0.604138,1292.84,-24.1382)">            <path d="M450.799,260.117c-1.378,56.098 -24.433,111.884 -64.264,152.433c-51.13,52.053 -128.355,76.932 -201.164,63.44c-65.33,-12.107 -124.244,-54.824 -156.252,-113.713c-28.245,-51.967 -34.694,-115.485 -17.419,-172.272c19.373,-63.683 68.355,-117.361 130.167,-142.591l0.472,-0.192c4.411,-1.27 4.428,-1.273 9.007,-1.599c1.519,0.212 3.037,0.423 4.555,0.635c1.442,0.523 2.945,0.897 4.324,1.568c8.314,4.043 13.446,13.651 12.169,22.821c-0.854,6.13 -4.406,11.766 -9.466,15.188c-4.023,2.72 -8.723,4.052 -13.134,6.12c-49.419,23.171 -87.486,70.122 -99.502,124.187c-10.283,46.268 -1.518,96.633 24.432,136.827c32.71,50.664 91.419,83.166 152.884,82.776c50.478,-0.321 100.27,-22.95 133.823,-60.76c28.261,-31.846 44.451,-74.125 45.373,-116.575l-18.218,35.61c-5.248,9.698 -17.607,14.466 -27.756,10.407c-11.289,-4.515 -16.871,-19.148 -11.416,-30.447l60.879,-119c1.487,-2.748 1.889,-3.128 2.814,-4.218c3.731,-4.394 9.233,-7.219 14.98,-7.689c1.454,-0.119 2.082,-0.094 2.563,-0.064c0.648,-0.017 1.297,0.008 1.946,0.032c3.16,0.268 3.676,0.49 5.064,0.913c5.264,1.603 9.872,5.258 12.629,10.019c0.46,0.794 0.547,1.008 0.949,1.831l55.871,121.432c3.613,8.363 1.805,18.549 -4.468,24.791c-7.281,7.245 -19.866,8.38 -28.368,2.262c-3.072,-2.211 -5.476,-5.267 -7.136,-8.662l-16.338,-35.51Z" style="fill:rgb(0,177,225);"/>            <g transform="matrix(0.91435,0,0,0.877274,0.548599,3.21992)">                <ellipse cx="286.97" cy="55.072" rx="12.03" ry="12.539" style="fill:rgb(0,177,225);"/>            </g>            <g transform="matrix(0.664982,0,0,0.638017,129.11,29.4739)">                <ellipse cx="286.97" cy="55.072" rx="12.03" ry="12.539" style="fill:rgb(0,177,225);"/>            </g>            <g transform="matrix(1.66245,0,0,1.59504,-273.634,-36.9721)">                <ellipse cx="286.97" cy="55.072" rx="12.03" ry="12.539" style="fill:rgb(0,177,225);"/>            </g>        </g>    </g></svg>