<?xml version="1.0" encoding="UTF-8" standalone="no"?><!DOCTYPE svg PUBLIC "-//W3C//DTD SVG 1.1//EN" "http://www.w3.org/Graphics/SVG/1.1/DTD/svg11.dtd"><svg width="100%" height="100%" viewBox="0 0 1024 512" version="1.1" xmlns="http://www.w3.org/2000/svg" xmlns:xlink="http://www.w3.org/1999/xlink" xml:space="preserve" style="fill-rule:evenodd;clip-rule:evenodd;stroke-linejoin:round;stroke-miterlimit:2;"><title>Transcendent Real Estate</title><desc>Transcendent Real Estate (TRE) is the first Commercial Property Crowd Funding Platform in the UK to allow direct equity investment in specific real estate investments. We seek to offer returns secured against real estate with strong fundamentals secured on long term leases, targeting minimum returns of 5% per annum upwards*. TRE invest its own capital into each investment alongside your money.</desc>    <g transform="matrix(1.02149,0,0,1.02149,-9.51419,-5.50075)">        <g transform="matrix(0.604146,0,0,0.604146,4.46206,97.539)">            <g transform="matrix(-508.928,0,0,508.928,293.727,493.357)">                <path d="M0.074,0l0,-0.7l0.23,0c0.069,0 0.125,0.02 0.168,0.061c0.043,0.041 0.064,0.093 0.064,0.157c0,0.053 -0.014,0.098 -0.041,0.135c-0.027,0.037 -0.066,0.062 -0.115,0.075l0.175,0.272l-0.14,0l-0.166,-0.264l-0.055,0l0,0.264l-0.12,0Zm0.215,-0.378c0.039,0 0.07,-0.009 0.092,-0.027c0.022,-0.017 0.033,-0.043 0.033,-0.077c0,-0.034 -0.011,-0.06 -0.033,-0.078c-0.022,-0.017 -0.053,-0.026 -0.092,-0.026l-0.095,0l0,0.208l0.095,0Z" style="fill:rgb(57,57,57);fill-rule:nonzero;"/>            </g>            <g transform="matrix(3.50368,0,0,3.50368,-28.2214,-78.1675)">                <path d="M125.648,61.443l0,101.678l57.458,0l0,-14.436l-40.137,0l0,-31.28l37.344,0l0,-13.941l-37.612,0l0,-27.721l40.887,0l0,-14.3l-57.94,0Z" style="fill:rgb(57,57,57);"/>            </g>            <g transform="matrix(3.50368,0,0,3.50368,-28.2214,-78.1675)">                <path d="M23.6,31.221l0,16.616l71.277,0l0,115.284l17.236,0l0,-115l71.475,0l0,-16.656l-159.988,-0.244Z" style="fill:rgb(255,194,17);"/>            </g>        </g>        <g transform="matrix(3.53892,0,0,3.53892,-1999.95,-229.989)">            <g transform="matrix(28,0,0,28,681.16,133.743)">                <path d="M0.207,0l0,-0.586l-0.193,0l0,-0.114l0.506,0l0,0.114l-0.193,0l0,0.586l-0.12,0Z" style="fill:rgb(57,57,57);fill-rule:nonzero;"/>            </g>            <g transform="matrix(28,0,0,28,694.264,133.743)">                <path d="M0.303,-0.486c0.013,0 0.026,0.001 0.04,0.004c0.013,0.003 0.024,0.005 0.031,0.008l0.011,0.003l-0.042,0.108c-0.015,-0.007 -0.034,-0.011 -0.057,-0.011c-0.021,0 -0.041,0.005 -0.059,0.016c-0.017,0.011 -0.03,0.021 -0.037,0.032l-0.01,0.016l0,0.31l-0.12,0l0,-0.474l0.114,0l0,0.069c0.001,-0.002 0.003,-0.005 0.005,-0.009c0.002,-0.003 0.007,-0.01 0.015,-0.019c0.008,-0.009 0.016,-0.018 0.025,-0.025c0.009,-0.006 0.021,-0.013 0.036,-0.019c0.015,-0.006 0.031,-0.009 0.048,-0.009Z" style="fill:rgb(57,57,57);fill-rule:nonzero;"/>            </g>            <g transform="matrix(28,0,0,28,704.764,133.743)">                <path d="M0.246,-0.088c0.021,0 0.041,-0.005 0.059,-0.014c0.019,-0.009 0.032,-0.019 0.039,-0.028l0.012,-0.013l0,-0.049c-0.029,-0.016 -0.065,-0.024 -0.108,-0.024c-0.023,0 -0.043,0.005 -0.061,0.016c-0.018,0.011 -0.027,0.028 -0.027,0.051c0,0.041 0.029,0.061 0.086,0.061Zm0.014,-0.398c0.067,0 0.12,0.016 0.158,0.048c0.039,0.031 0.058,0.074 0.058,0.129l0,0.309l-0.111,0l0,-0.06c-0.004,0.005 -0.01,0.012 -0.017,0.02c-0.007,0.008 -0.024,0.019 -0.051,0.032c-0.027,0.013 -0.056,0.02 -0.088,0.02c-0.047,0 -0.087,-0.014 -0.121,-0.043c-0.033,-0.029 -0.05,-0.067 -0.05,-0.116c0,-0.045 0.018,-0.083 0.054,-0.112c0.036,-0.03 0.08,-0.045 0.132,-0.045c0.026,0 0.05,0.003 0.072,0.009c0.022,0.005 0.037,0.011 0.046,0.017l0.014,0.008l0,-0.027c0,-0.028 -0.011,-0.049 -0.032,-0.062c-0.021,-0.013 -0.044,-0.02 -0.07,-0.02c-0.021,0 -0.043,0.003 -0.067,0.009c-0.023,0.005 -0.042,0.011 -0.055,0.017l-0.02,0.009l-0.039,-0.099c0.059,-0.029 0.121,-0.043 0.187,-0.043Z" style="fill:rgb(57,57,57);fill-rule:nonzero;"/>            </g>            <g transform="matrix(28,0,0,28,719.772,133.743)">                <path d="M0.314,-0.486c0.048,0 0.089,0.016 0.123,0.048c0.034,0.033 0.051,0.076 0.051,0.131l0,0.307l-0.12,0l0,-0.277c0,-0.033 -0.009,-0.057 -0.026,-0.073c-0.017,-0.016 -0.04,-0.024 -0.068,-0.024c-0.011,0 -0.022,0.002 -0.033,0.007c-0.011,0.004 -0.02,0.009 -0.027,0.015c-0.007,0.005 -0.014,0.011 -0.019,0.017c-0.005,0.006 -0.009,0.011 -0.011,0.015l-0.004,0.007l0,0.313l-0.12,0l0,-0.474l0.112,0l0,0.069c0.001,-0.002 0.003,-0.005 0.006,-0.009c0.002,-0.003 0.007,-0.01 0.016,-0.019c0.008,-0.009 0.017,-0.018 0.027,-0.024c0.01,-0.007 0.023,-0.014 0.04,-0.02c0.017,-0.006 0.034,-0.009 0.053,-0.009Z" style="fill:rgb(57,57,57);fill-rule:nonzero;"/>            </g>            <g transform="matrix(28,0,0,28,735.116,133.743)">                <path d="M0.03,-0.074l0.067,-0.087c0.005,0.005 0.011,0.012 0.02,0.019c0.008,0.007 0.024,0.017 0.05,0.03c0.024,0.013 0.049,0.019 0.073,0.019c0.026,0 0.048,-0.004 0.065,-0.011c0.017,-0.007 0.025,-0.018 0.025,-0.032c0,-0.015 -0.006,-0.025 -0.018,-0.031c-0.012,-0.006 -0.037,-0.013 -0.076,-0.021c-0.117,-0.025 -0.176,-0.075 -0.176,-0.15c0,-0.039 0.019,-0.074 0.056,-0.104c0.037,-0.029 0.086,-0.044 0.148,-0.044c0.032,0 0.063,0.005 0.092,0.014c0.03,0.01 0.052,0.02 0.066,0.03l0.02,0.014l-0.06,0.088c-0.036,-0.027 -0.075,-0.041 -0.118,-0.041c-0.024,0 -0.044,0.004 -0.061,0.012c-0.017,0.008 -0.025,0.019 -0.025,0.033c0,0.013 0.007,0.023 0.022,0.029c0.015,0.007 0.045,0.015 0.09,0.024c0.053,0.011 0.093,0.028 0.121,0.049c0.026,0.021 0.04,0.055 0.04,0.1c0,0.041 -0.02,0.076 -0.058,0.104c-0.04,0.028 -0.089,0.042 -0.149,0.042c-0.026,0 -0.051,-0.003 -0.076,-0.009c-0.024,-0.006 -0.044,-0.013 -0.06,-0.022c-0.016,-0.008 -0.03,-0.016 -0.043,-0.025c-0.012,-0.008 -0.021,-0.015 -0.027,-0.021l-0.008,-0.009Z" style="fill:rgb(57,57,57);fill-rule:nonzero;"/>            </g>            <g transform="matrix(28,0,0,28,748.64,133.743)">                <path d="M0.283,-0.1c0.015,0 0.03,-0.002 0.043,-0.006c0.013,-0.004 0.024,-0.009 0.033,-0.014c0.009,-0.006 0.016,-0.012 0.023,-0.018c0.007,-0.005 0.011,-0.01 0.014,-0.014l0.004,-0.006l0.079,0.08c-0.002,0.003 -0.005,0.006 -0.008,0.01c-0.003,0.004 -0.011,0.011 -0.024,0.022c-0.013,0.01 -0.026,0.019 -0.04,0.027c-0.014,0.008 -0.032,0.015 -0.055,0.022c-0.022,0.006 -0.045,0.009 -0.069,0.009c-0.071,0 -0.132,-0.024 -0.181,-0.072c-0.049,-0.049 -0.074,-0.108 -0.074,-0.177c0,-0.07 0.025,-0.129 0.074,-0.177c0.049,-0.048 0.11,-0.072 0.181,-0.072c0.037,0 0.072,0.007 0.104,0.022c0.033,0.015 0.056,0.029 0.069,0.044l0.021,0.022l-0.083,0.074c-0.003,-0.004 -0.007,-0.009 -0.013,-0.014c-0.005,-0.005 -0.018,-0.013 -0.037,-0.022c-0.019,-0.009 -0.04,-0.014 -0.061,-0.014c-0.039,0 -0.071,0.013 -0.096,0.04c-0.025,0.027 -0.037,0.059 -0.037,0.097c0,0.038 0.012,0.07 0.037,0.097c0.025,0.027 0.057,0.04 0.096,0.04Z" style="fill:rgb(57,57,57);fill-rule:nonzero;"/>            </g>            <g transform="matrix(28,0,0,28,762.556,133.743)">                <path d="M0.266,-0.486c0.067,0 0.123,0.023 0.169,0.07c0.047,0.047 0.07,0.106 0.07,0.177c0,0.018 0,0.033 -0.001,0.045l-0.354,0c0.005,0.024 0.02,0.046 0.044,0.066c0.025,0.02 0.054,0.03 0.089,0.03c0.025,0 0.048,-0.004 0.069,-0.012c0.022,-0.008 0.038,-0.016 0.047,-0.024l0.014,-0.012l0.06,0.09c-0.005,0.005 -0.013,0.012 -0.024,0.019c-0.011,0.007 -0.033,0.017 -0.066,0.03c-0.033,0.013 -0.066,0.019 -0.1,0.019c-0.072,0 -0.133,-0.024 -0.182,-0.072c-0.049,-0.048 -0.073,-0.107 -0.073,-0.177c0,-0.07 0.023,-0.129 0.068,-0.177c0.045,-0.048 0.102,-0.072 0.17,-0.072Zm-0.116,0.205l0.235,0c-0.001,-0.024 -0.013,-0.046 -0.034,-0.066c-0.021,-0.02 -0.049,-0.03 -0.085,-0.03c-0.035,0 -0.063,0.01 -0.083,0.029c-0.019,0.02 -0.03,0.042 -0.033,0.067Z" style="fill:rgb(57,57,57);fill-rule:nonzero;"/>            </g>            <g transform="matrix(28,0,0,28,777.48,133.743)">                <path d="M0.314,-0.486c0.048,0 0.089,0.016 0.123,0.048c0.034,0.033 0.051,0.076 0.051,0.131l0,0.307l-0.12,0l0,-0.277c0,-0.033 -0.009,-0.057 -0.026,-0.073c-0.017,-0.016 -0.04,-0.024 -0.068,-0.024c-0.011,0 -0.022,0.002 -0.033,0.007c-0.011,0.004 -0.02,0.009 -0.027,0.015c-0.007,0.005 -0.014,0.011 -0.019,0.017c-0.005,0.006 -0.009,0.011 -0.011,0.015l-0.004,0.007l0,0.313l-0.12,0l0,-0.474l0.112,0l0,0.069c0.001,-0.002 0.003,-0.005 0.006,-0.009c0.002,-0.003 0.007,-0.01 0.016,-0.019c0.008,-0.009 0.017,-0.018 0.027,-0.024c0.01,-0.007 0.023,-0.014 0.04,-0.02c0.017,-0.006 0.034,-0.009 0.053,-0.009Z" style="fill:rgb(57,57,57);fill-rule:nonzero;"/>            </g>            <g transform="matrix(28,0,0,28,792.824,133.743)">                <path d="M0.513,-0.756l0,0.756l-0.111,0l0,-0.062c-0.001,0.002 -0.003,0.005 -0.005,0.008c-0.002,0.003 -0.007,0.009 -0.016,0.018c-0.009,0.009 -0.018,0.016 -0.028,0.023c-0.01,0.006 -0.023,0.012 -0.04,0.017c-0.017,0.005 -0.035,0.008 -0.054,0.008c-0.063,0 -0.117,-0.024 -0.163,-0.071c-0.045,-0.047 -0.068,-0.107 -0.068,-0.178c0,-0.071 0.023,-0.131 0.069,-0.178c0.045,-0.047 0.099,-0.071 0.162,-0.071c0.027,0 0.051,0.005 0.074,0.015c0.022,0.011 0.038,0.021 0.047,0.031l0.013,0.016l0,-0.332l0.12,0Zm-0.12,0.59l0,-0.142c-0.003,-0.005 -0.007,-0.011 -0.012,-0.018c-0.005,-0.007 -0.017,-0.017 -0.036,-0.029c-0.02,-0.013 -0.042,-0.019 -0.065,-0.019c-0.04,0 -0.072,0.013 -0.095,0.039c-0.023,0.025 -0.035,0.058 -0.035,0.098c0,0.04 0.012,0.073 0.035,0.099c0.023,0.025 0.055,0.038 0.095,0.038c0.015,0 0.029,-0.002 0.042,-0.007c0.013,-0.005 0.024,-0.01 0.033,-0.016c0.008,-0.007 0.015,-0.013 0.021,-0.019c0.006,-0.007 0.01,-0.012 0.013,-0.017l0.004,-0.007Z" style="fill:rgb(57,57,57);fill-rule:nonzero;"/>            </g>            <g transform="matrix(28,0,0,28,809.26,133.743)">                <path d="M0.266,-0.486c0.067,0 0.123,0.023 0.169,0.07c0.047,0.047 0.07,0.106 0.07,0.177c0,0.018 0,0.033 -0.001,0.045l-0.354,0c0.005,0.024 0.02,0.046 0.044,0.066c0.025,0.02 0.054,0.03 0.089,0.03c0.025,0 0.048,-0.004 0.069,-0.012c0.022,-0.008 0.038,-0.016 0.047,-0.024l0.014,-0.012l0.06,0.09c-0.005,0.005 -0.013,0.012 -0.024,0.019c-0.011,0.007 -0.033,0.017 -0.066,0.03c-0.033,0.013 -0.066,0.019 -0.1,0.019c-0.072,0 -0.133,-0.024 -0.182,-0.072c-0.049,-0.048 -0.073,-0.107 -0.073,-0.177c0,-0.07 0.023,-0.129 0.068,-0.177c0.045,-0.048 0.102,-0.072 0.17,-0.072Zm-0.116,0.205l0.235,0c-0.001,-0.024 -0.013,-0.046 -0.034,-0.066c-0.021,-0.02 -0.049,-0.03 -0.085,-0.03c-0.035,0 -0.063,0.01 -0.083,0.029c-0.019,0.02 -0.03,0.042 -0.033,0.067Z" style="fill:rgb(57,57,57);fill-rule:nonzero;"/>            </g>            <g transform="matrix(28,0,0,28,824.184,133.743)">                <path d="M0.314,-0.486c0.048,0 0.089,0.016 0.123,0.048c0.034,0.033 0.051,0.076 0.051,0.131l0,0.307l-0.12,0l0,-0.277c0,-0.033 -0.009,-0.057 -0.026,-0.073c-0.017,-0.016 -0.04,-0.024 -0.068,-0.024c-0.011,0 -0.022,0.002 -0.033,0.007c-0.011,0.004 -0.02,0.009 -0.027,0.015c-0.007,0.005 -0.014,0.011 -0.019,0.017c-0.005,0.006 -0.009,0.011 -0.011,0.015l-0.004,0.007l0,0.313l-0.12,0l0,-0.474l0.112,0l0,0.069c0.001,-0.002 0.003,-0.005 0.006,-0.009c0.002,-0.003 0.007,-0.01 0.016,-0.019c0.008,-0.009 0.017,-0.018 0.027,-0.024c0.01,-0.007 0.023,-0.014 0.04,-0.02c0.017,-0.006 0.034,-0.009 0.053,-0.009Z" style="fill:rgb(57,57,57);fill-rule:nonzero;"/>            </g>            <g transform="matrix(28,0,0,28,839.528,133.743)">                <path d="M0.022,-0.366l0,-0.108l0.093,0l0,-0.141l0.12,0l0,0.141l0.143,0l0,0.108l-0.143,0l0,0.191c0,0.05 0.021,0.075 0.062,0.075c0.008,0 0.016,-0.001 0.025,-0.004c0.008,-0.003 0.014,-0.005 0.018,-0.008l0.007,-0.005l0.044,0.098c-0.03,0.021 -0.068,0.031 -0.114,0.031c-0.047,0 -0.085,-0.016 -0.116,-0.047c-0.031,-0.031 -0.046,-0.071 -0.046,-0.121l0,-0.21l-0.093,0Z" style="fill:rgb(57,57,57);fill-rule:nonzero;"/>            </g>            <g transform="matrix(28,0,0,28,681.16,161.743)">                <path d="M0.074,0l0,-0.7l0.23,0c0.069,0 0.125,0.02 0.168,0.061c0.043,0.041 0.064,0.093 0.064,0.157c0,0.053 -0.014,0.098 -0.041,0.135c-0.027,0.037 -0.066,0.062 -0.115,0.075l0.175,0.272l-0.14,0l-0.166,-0.264l-0.055,0l0,0.264l-0.12,0Zm0.215,-0.378c0.039,0 0.07,-0.009 0.092,-0.027c0.022,-0.017 0.033,-0.043 0.033,-0.077c0,-0.034 -0.011,-0.06 -0.033,-0.078c-0.022,-0.017 -0.053,-0.026 -0.092,-0.026l-0.095,0l0,0.208l0.095,0Z" style="fill:rgb(57,57,57);fill-rule:nonzero;"/>            </g>            <g transform="matrix(28,0,0,28,697.484,161.743)">                <path d="M0.266,-0.486c0.067,0 0.123,0.023 0.169,0.07c0.047,0.047 0.07,0.106 0.07,0.177c0,0.018 0,0.033 -0.001,0.045l-0.354,0c0.005,0.024 0.02,0.046 0.044,0.066c0.025,0.02 0.054,0.03 0.089,0.03c0.025,0 0.048,-0.004 0.069,-0.012c0.022,-0.008 0.038,-0.016 0.047,-0.024l0.014,-0.012l0.06,0.09c-0.005,0.005 -0.013,0.012 -0.024,0.019c-0.011,0.007 -0.033,0.017 -0.066,0.03c-0.033,0.013 -0.066,0.019 -0.1,0.019c-0.072,0 -0.133,-0.024 -0.182,-0.072c-0.049,-0.048 -0.073,-0.107 -0.073,-0.177c0,-0.07 0.023,-0.129 0.068,-0.177c0.045,-0.048 0.102,-0.072 0.17,-0.072Zm-0.116,0.205l0.235,0c-0.001,-0.024 -0.013,-0.046 -0.034,-0.066c-0.021,-0.02 -0.049,-0.03 -0.085,-0.03c-0.035,0 -0.063,0.01 -0.083,0.029c-0.019,0.02 -0.03,0.042 -0.033,0.067Z" style="fill:rgb(57,57,57);fill-rule:nonzero;"/>            </g>            <g transform="matrix(28,0,0,28,712.408,161.743)">                <path d="M0.246,-0.088c0.021,0 0.041,-0.005 0.059,-0.014c0.019,-0.009 0.032,-0.019 0.039,-0.028l0.012,-0.013l0,-0.049c-0.029,-0.016 -0.065,-0.024 -0.108,-0.024c-0.023,0 -0.043,0.005 -0.061,0.016c-0.018,0.011 -0.027,0.028 -0.027,0.051c0,0.041 0.029,0.061 0.086,0.061Zm0.014,-0.398c0.067,0 0.12,0.016 0.158,0.048c0.039,0.031 0.058,0.074 0.058,0.129l0,0.309l-0.111,0l0,-0.06c-0.004,0.005 -0.01,0.012 -0.017,0.02c-0.007,0.008 -0.024,0.019 -0.051,0.032c-0.027,0.013 -0.056,0.02 -0.088,0.02c-0.047,0 -0.087,-0.014 -0.121,-0.043c-0.033,-0.029 -0.05,-0.067 -0.05,-0.116c0,-0.045 0.018,-0.083 0.054,-0.112c0.036,-0.03 0.08,-0.045 0.132,-0.045c0.026,0 0.05,0.003 0.072,0.009c0.022,0.005 0.037,0.011 0.046,0.017l0.014,0.008l0,-0.027c0,-0.028 -0.011,-0.049 -0.032,-0.062c-0.021,-0.013 -0.044,-0.02 -0.07,-0.02c-0.021,0 -0.043,0.003 -0.067,0.009c-0.023,0.005 -0.042,0.011 -0.055,0.017l-0.02,0.009l-0.039,-0.099c0.059,-0.029 0.121,-0.043 0.187,-0.043Z" style="fill:rgb(57,57,57);fill-rule:nonzero;"/>            </g>            <g transform="matrix(28,0,0,28,727.416,161.743)">                <rect x="0.074" y="-0.756" width="0.12" height="0.756" style="fill:rgb(57,57,57);fill-rule:nonzero;"/>            </g>            <g transform="matrix(28,0,0,28,743.152,161.743)">                <path d="M0.194,-0.586l0,0.17l0.28,0l0,0.114l-0.28,0l0,0.188l0.31,0l0,0.114l-0.43,0l0,-0.7l0.424,0l0,0.114l-0.304,0Z" style="fill:rgb(57,57,57);fill-rule:nonzero;"/>            </g>            <g transform="matrix(28,0,0,28,758.44,161.743)">                <path d="M0.03,-0.074l0.067,-0.087c0.005,0.005 0.011,0.012 0.02,0.019c0.008,0.007 0.024,0.017 0.05,0.03c0.024,0.013 0.049,0.019 0.073,0.019c0.026,0 0.048,-0.004 0.065,-0.011c0.017,-0.007 0.025,-0.018 0.025,-0.032c0,-0.015 -0.006,-0.025 -0.018,-0.031c-0.012,-0.006 -0.037,-0.013 -0.076,-0.021c-0.117,-0.025 -0.176,-0.075 -0.176,-0.15c0,-0.039 0.019,-0.074 0.056,-0.104c0.037,-0.029 0.086,-0.044 0.148,-0.044c0.032,0 0.063,0.005 0.092,0.014c0.03,0.01 0.052,0.02 0.066,0.03l0.02,0.014l-0.06,0.088c-0.036,-0.027 -0.075,-0.041 -0.118,-0.041c-0.024,0 -0.044,0.004 -0.061,0.012c-0.017,0.008 -0.025,0.019 -0.025,0.033c0,0.013 0.007,0.023 0.022,0.029c0.015,0.007 0.045,0.015 0.09,0.024c0.053,0.011 0.093,0.028 0.121,0.049c0.026,0.021 0.04,0.055 0.04,0.1c0,0.041 -0.02,0.076 -0.058,0.104c-0.04,0.028 -0.089,0.042 -0.149,0.042c-0.026,0 -0.051,-0.003 -0.076,-0.009c-0.024,-0.006 -0.044,-0.013 -0.06,-0.022c-0.016,-0.008 -0.03,-0.016 -0.043,-0.025c-0.012,-0.008 -0.021,-0.015 -0.027,-0.021l-0.008,-0.009Z" style="fill:rgb(57,57,57);fill-rule:nonzero;"/>            </g>            <g transform="matrix(28,0,0,28,771.964,161.743)">                <path d="M0.022,-0.366l0,-0.108l0.093,0l0,-0.141l0.12,0l0,0.141l0.143,0l0,0.108l-0.143,0l0,0.191c0,0.05 0.021,0.075 0.062,0.075c0.008,0 0.016,-0.001 0.025,-0.004c0.008,-0.003 0.014,-0.005 0.018,-0.008l0.007,-0.005l0.044,0.098c-0.03,0.021 -0.068,0.031 -0.114,0.031c-0.047,0 -0.085,-0.016 -0.116,-0.047c-0.031,-0.031 -0.046,-0.071 -0.046,-0.121l0,-0.21l-0.093,0Z" style="fill:rgb(57,57,57);fill-rule:nonzero;"/>            </g>            <g transform="matrix(28,0,0,28,783.612,161.743)">                <path d="M0.246,-0.088c0.021,0 0.041,-0.005 0.059,-0.014c0.019,-0.009 0.032,-0.019 0.039,-0.028l0.012,-0.013l0,-0.049c-0.029,-0.016 -0.065,-0.024 -0.108,-0.024c-0.023,0 -0.043,0.005 -0.061,0.016c-0.018,0.011 -0.027,0.028 -0.027,0.051c0,0.041 0.029,0.061 0.086,0.061Zm0.014,-0.398c0.067,0 0.12,0.016 0.158,0.048c0.039,0.031 0.058,0.074 0.058,0.129l0,0.309l-0.111,0l0,-0.06c-0.004,0.005 -0.01,0.012 -0.017,0.02c-0.007,0.008 -0.024,0.019 -0.051,0.032c-0.027,0.013 -0.056,0.02 -0.088,0.02c-0.047,0 -0.087,-0.014 -0.121,-0.043c-0.033,-0.029 -0.05,-0.067 -0.05,-0.116c0,-0.045 0.018,-0.083 0.054,-0.112c0.036,-0.03 0.08,-0.045 0.132,-0.045c0.026,0 0.05,0.003 0.072,0.009c0.022,0.005 0.037,0.011 0.046,0.017l0.014,0.008l0,-0.027c0,-0.028 -0.011,-0.049 -0.032,-0.062c-0.021,-0.013 -0.044,-0.02 -0.07,-0.02c-0.021,0 -0.043,0.003 -0.067,0.009c-0.023,0.005 -0.042,0.011 -0.055,0.017l-0.02,0.009l-0.039,-0.099c0.059,-0.029 0.121,-0.043 0.187,-0.043Z" style="fill:rgb(57,57,57);fill-rule:nonzero;"/>            </g>            <g transform="matrix(28,0,0,28,798.62,161.743)">                <path d="M0.022,-0.366l0,-0.108l0.093,0l0,-0.141l0.12,0l0,0.141l0.143,0l0,0.108l-0.143,0l0,0.191c0,0.05 0.021,0.075 0.062,0.075c0.008,0 0.016,-0.001 0.025,-0.004c0.008,-0.003 0.014,-0.005 0.018,-0.008l0.007,-0.005l0.044,0.098c-0.03,0.021 -0.068,0.031 -0.114,0.031c-0.047,0 -0.085,-0.016 -0.116,-0.047c-0.031,-0.031 -0.046,-0.071 -0.046,-0.121l0,-0.21l-0.093,0Z" style="fill:rgb(57,57,57);fill-rule:nonzero;"/>            </g>            <g transform="matrix(28,0,0,28,810.268,161.743)">                <path d="M0.266,-0.486c0.067,0 0.123,0.023 0.169,0.07c0.047,0.047 0.07,0.106 0.07,0.177c0,0.018 0,0.033 -0.001,0.045l-0.354,0c0.005,0.024 0.02,0.046 0.044,0.066c0.025,0.02 0.054,0.03 0.089,0.03c0.025,0 0.048,-0.004 0.069,-0.012c0.022,-0.008 0.038,-0.016 0.047,-0.024l0.014,-0.012l0.06,0.09c-0.005,0.005 -0.013,0.012 -0.024,0.019c-0.011,0.007 -0.033,0.017 -0.066,0.03c-0.033,0.013 -0.066,0.019 -0.1,0.019c-0.072,0 -0.133,-0.024 -0.182,-0.072c-0.049,-0.048 -0.073,-0.107 -0.073,-0.177c0,-0.07 0.023,-0.129 0.068,-0.177c0.045,-0.048 0.102,-0.072 0.17,-0.072Zm-0.116,0.205l0.235,0c-0.001,-0.024 -0.013,-0.046 -0.034,-0.066c-0.021,-0.02 -0.049,-0.03 -0.085,-0.03c-0.035,0 -0.063,0.01 -0.083,0.029c-0.019,0.02 -0.03,0.042 -0.033,0.067Z" style="fill:rgb(57,57,57);fill-rule:nonzero;"/>            </g>        </g>    </g></svg>