<?xml version="1.0" encoding="UTF-8" standalone="no"?><!DOCTYPE svg PUBLIC "-//W3C//DTD SVG 1.1//EN" "http://www.w3.org/Graphics/SVG/1.1/DTD/svg11.dtd"><svg width="100%" height="100%" viewBox="0 0 1024 512" version="1.1" xmlns="http://www.w3.org/2000/svg" xmlns:xlink="http://www.w3.org/1999/xlink" xml:space="preserve" style="fill-rule:evenodd;clip-rule:evenodd;stroke-linejoin:round;stroke-miterlimit:2;"><title>SaveLend</title><desc>Savelend Sweden AB is a loan broker based on a peer-to-peer model. Invested funds are converted into the loan business Loanstep and provide a return based on the interest from repaid loans. As a borrower, there is also the opportunity to become an investor, partly through repayment of loans, and partly by taking part in the loan school. The expected return on invested capital is 7 - 9%.</desc>    <g transform="matrix(9.95183,0,0,9.95183,1.81434,136.578)">        <path d="M31.61,14.6c0.043,0.964 -0.382,1.892 -1.14,2.49c-0.917,0.657 -2.034,0.979 -3.16,0.91c-1.142,0.025 -2.275,-0.215 -3.31,-0.7l0,-2.3c0.646,0.3 1.314,0.548 2,0.74c0.489,0.135 0.993,0.209 1.5,0.22c0.438,0.024 0.874,-0.084 1.25,-0.31c0.292,-0.217 0.454,-0.567 0.43,-0.93c0.005,-0.219 -0.062,-0.433 -0.19,-0.61c-0.157,-0.202 -0.346,-0.378 -0.56,-0.52c-0.25,-0.16 -0.76,-0.42 -1.52,-0.79c-0.576,-0.26 -1.114,-0.596 -1.6,-1c-0.351,-0.303 -0.643,-0.67 -0.86,-1.08c-0.217,-0.448 -0.323,-0.942 -0.31,-1.44c-0.046,-0.928 0.343,-1.827 1.05,-2.43c0.833,-0.622 1.863,-0.924 2.9,-0.85c0.584,-0.004 1.166,0.07 1.73,0.22c0.592,0.154 1.17,0.354 1.73,0.6l-0.8,1.93c-0.499,-0.219 -1.014,-0.399 -1.54,-0.54c-0.396,-0.099 -0.802,-0.149 -1.21,-0.15c-0.388,-0.026 -0.773,0.092 -1.08,0.33c-0.248,0.211 -0.388,0.524 -0.38,0.85c-0.002,0.201 0.054,0.399 0.16,0.57c0.123,0.19 0.287,0.351 0.48,0.47c0.503,0.311 1.028,0.585 1.57,0.82c0.857,0.349 1.626,0.886 2.25,1.57c0.421,0.553 0.636,1.236 0.61,1.93" style="fill:rgb(46,134,171);fill-rule:nonzero;"/>        <path d="M40.58,17.84l-0.84,-2.78l-4.26,0l-0.84,2.78l-2.64,0l4.09,-11.72l3,0l4.13,11.72l-2.64,0Zm-1.43,-4.84c-0.78,-2.52 -1.23,-3.94 -1.32,-4.27c-0.09,-0.33 -0.17,-0.6 -0.22,-0.79c-0.173,0.667 -0.673,2.353 -1.5,5.06l3.04,0Z" style="fill:rgb(46,134,171);fill-rule:nonzero;"/>        <path d="M50.31,6.17l2.5,0l-4,11.67l-2.7,0l-4,-11.67l2.5,0l2.19,6.94c0.12,0.41 0.25,0.89 0.38,1.44c0.13,0.55 0.21,0.92 0.24,1.13c0.146,-0.868 0.347,-1.727 0.6,-2.57l2.29,-6.94Z" style="fill:rgb(46,134,171);fill-rule:nonzero;"/>        <path d="M60.71,17.84l-6.72,0l0,-11.67l6.72,0l0,2.03l-4.25,0l0,2.56l3.96,0l0,2.03l-3.96,0l0,3.01l4.25,0l0,2.04Z" style="fill:rgb(46,134,171);fill-rule:nonzero;"/>        <path d="M62.7,17.84l0,-11.67l2.47,0l0,9.63l4.74,0l0,2.04l-7.21,0Z" style="fill:rgb(46,134,171);fill-rule:nonzero;"/>        <path d="M78.08,17.84l-6.72,0l0,-11.67l6.72,0l0,2.03l-4.24,0l0,2.56l3.95,0l0,2.03l-3.95,0l0,3.01l4.24,0l0,2.04Z" style="fill:rgb(46,134,171);fill-rule:nonzero;"/>        <path d="M90.43,17.84l-3.15,0l-5.08,-8.84l-0.07,0c0.1,1.56 0.15,2.67 0.15,3.34l0,5.49l-2.21,0l0,-11.66l3.12,0l5.07,8.74l0.06,0c-0.08,-1.52 -0.12,-2.59 -0.12,-3.22l0,-5.52l2.23,0l0,11.67Z" style="fill:rgb(46,134,171);fill-rule:nonzero;"/>        <path d="M102.5,11.89c0.108,1.639 -0.489,3.248 -1.64,4.42c-1.325,1.098 -3.023,1.646 -4.74,1.53l-3.31,0l0,-11.67l3.67,0c1.62,-0.1 3.216,0.443 4.44,1.51c1.097,1.117 1.671,2.647 1.58,4.21m-2.57,0.11c0,-2.513 -1.107,-3.767 -3.32,-3.76l-1.32,0l0,7.6l1.06,0c2.38,0 3.58,-1.28 3.58,-3.84" style="fill:rgb(46,134,171);fill-rule:nonzero;"/>        <path d="M13.17,12.11l-4.37,1.89c-0.931,0.459 -1.963,0.676 -3,0.63c-0.842,-0.095 -1.605,-0.542 -2.1,-1.23c-1.647,-2.18 -0.88,-4.477 2.3,-6.89c0.982,-0.756 2.057,-1.381 3.2,-1.86c0.961,-0.418 1.968,-0.724 3,-0.91l0.56,1.53l2.94,-3.89l-4.7,-1.38l0.43,1.39c-1.162,0.137 -2.296,0.454 -3.36,0.94c-1.27,0.566 -2.468,1.281 -3.57,2.13c-1.934,1.305 -3.416,3.178 -4.24,5.36c-0.574,1.939 -0.108,4.044 1.23,5.56c1.84,2.407 4.507,2.86 8,1.36l4.6,-2c0,0 1,-0.34 0.5,-1.58c-0.5,-1.24 -1.45,-1.08 -1.45,-1.08" style="fill:rgb(46,134,171);fill-rule:nonzero;"/>        <path d="M7.33,11.89l4.37,-1.89c0.931,-0.459 1.963,-0.676 3,-0.63c0.842,0.095 1.605,0.542 2.1,1.23c1.673,2.2 0.923,4.507 -2.25,6.92c-0.988,0.758 -2.07,1.383 -3.22,1.86c-0.961,0.418 -1.968,0.724 -3,0.91l-0.56,-1.53l-2.97,3.87l4.69,1.37l-0.43,-1.39c1.162,-0.137 2.296,-0.454 3.36,-0.94c1.275,-0.562 2.478,-1.277 3.58,-2.13c1.934,-1.305 3.416,-3.178 4.24,-5.36c0.571,-1.941 0.102,-4.046 -1.24,-5.56c-1.833,-2.413 -4.5,-2.867 -8,-1.36l-4.6,2c0,0 -1,0.34 -0.5,1.58c0.5,1.24 1.45,1.08 1.45,1.08" style="fill:rgb(46,134,171);fill-rule:nonzero;"/>    </g></svg>