<?xml version="1.0" encoding="UTF-8" standalone="no"?><!DOCTYPE svg PUBLIC "-//W3C//DTD SVG 1.1//EN" "http://www.w3.org/Graphics/SVG/1.1/DTD/svg11.dtd"><svg width="100%" height="100%" viewBox="0 0 1024 512" version="1.1" xmlns="http://www.w3.org/2000/svg" xmlns:xlink="http://www.w3.org/1999/xlink" xml:space="preserve" style="fill-rule:evenodd;clip-rule:evenodd;stroke-linejoin:round;stroke-miterlimit:2;"><title>Sancus</title><desc>Our range of solutions for both Borrowers and Co-Funders offer both parties options to manage their financing or funds according to their own specific profiles.Borrowers may be driven by speed and growth opportunities, whilst Co-Funders by the level of risk/return they feel comfortable with.Our range of asset backed lending opportunities allow you to decide what works best for you.</desc>    <g transform="matrix(0.537804,0,0,0.537804,264.315,102.813)">        <g transform="matrix(1,0,0,1,-504.652,73.3875)">            <path d="M16.9,381.9l13.6,-18.3c26.2,20.1 55.2,31.4 85.6,31.4c32.3,0 57.5,-17.8 57.5,-45.4l0,-0.9c0,-28.1 -29.9,-38.3 -63.1,-47.7c-38.8,-11.2 -81.8,-22.9 -81.8,-65.5l0,-0.9c0,-38.3 32.2,-65.9 78.6,-65.9c28.5,0 60.8,10.3 84.6,26.2l-12.2,19.2c-22,-14.5 -48.1,-23.9 -73.4,-23.9c-32.8,0 -54.3,17.8 -54.3,41.6l0,1c0,26.6 32.3,36.4 66.4,46.2c38.3,10.7 78.5,24.8 78.5,66.9l0,0.9c0,42.5 -36.5,69.7 -82.3,69.7c-34.5,0 -72.4,-14 -97.7,-34.6Z" style="fill:rgb(85,85,85);fill-rule:nonzero;"/>            <path d="M255.9,342.7l0,-0.9c0,-49.6 42.5,-77.6 104.2,-77.6c33.2,0 56.1,4.2 79,10.3l0,-10.3c0,-48.2 -29.5,-72.9 -78.6,-72.9c-29,0 -52.8,8 -74.8,19.2l-8.4,-20.1c26.2,-12.1 51.9,-20.6 84.7,-20.6c32.2,0 58,8.8 75.2,26.2c15.9,15.9 24.3,37.9 24.3,67.3l0,148.7l-22.4,0l0,-39.8c-16.4,22.9 -45.8,45.3 -91.2,45.3c-44.4,-0.1 -92,-25.3 -92,-74.8Zm183.7,-20.2l0,-27.1c-20.1,-5.1 -46.7,-10.7 -80.9,-10.7c-50.5,0 -78.6,22.4 -78.6,55.6l0,1c0,34.6 32.7,54.7 69.2,54.7c48.7,-0.1 90.3,-30 90.3,-73.5Z" style="fill:rgb(85,85,85);fill-rule:nonzero;"/>            <path d="M546.2,173.4l22.9,0l0,44.4c15.9,-28 42.6,-50 86,-50c60.3,0 95.4,41.1 95.4,98.2l0,145.9l-22.9,0l0,-141.7c0,-49.1 -27.6,-81.4 -75.7,-81.4c-46.7,0 -82.7,35.5 -82.7,85.1l0,137.9l-22.9,0l0,-238.4l-0.1,0Z" style="fill:rgb(85,85,85);fill-rule:nonzero;"/>            <path d="M812.7,293.5l0,-0.9c0,-66.9 53.3,-124.8 121.6,-124.8c44.9,0 72.9,20.6 95.4,43.9l-16.4,16.8c-20.6,-21.1 -44,-39.3 -79.5,-39.3c-54.2,0 -96.3,45.4 -96.3,102.4l0,1c0,57.5 43.5,103.3 98.2,103.3c33.6,0 59.8,-17.3 80,-39.7l15.9,14c-24.3,27.6 -53.3,47.2 -97.2,47.2c-68.9,0 -121.7,-57 -121.7,-123.9Z" style="fill:rgb(85,85,85);fill-rule:nonzero;"/>            <path d="M1091.8,319.3l0,-145.9l22.9,0l0,141.6c0,49.1 27.6,81.4 75.7,81.4c46.8,0 82.8,-35.5 82.8,-85.1l0,-137.9l22.9,0l0,238.4l-22.9,0l0,-44.4c-15.9,28 -42.5,50 -86,50c-60.3,0 -95.4,-41.1 -95.4,-98.1Z" style="fill:rgb(85,85,85);fill-rule:nonzero;"/>            <path d="M1364.9,381.9l13.6,-18.3c26.2,20.1 55.1,31.4 85.5,31.4c32.2,0 57.5,-17.8 57.5,-45.4l0,-0.9c0,-28.1 -29.9,-38.3 -63.1,-47.7c-38.8,-11.2 -81.8,-22.9 -81.8,-65.5l0,-0.9c0,-38.3 32.3,-65.9 78.5,-65.9c28.5,0 60.8,10.3 84.7,26.2l-12.2,19.2c-22,-14.5 -48.2,-23.9 -73.4,-23.9c-32.7,0 -54.2,17.8 -54.2,41.6l0,1c0,26.6 32.3,36.4 66.4,46.2c38.3,10.7 78.5,24.8 78.5,66.9l0,0.9c0,42.5 -36.5,69.7 -82.3,69.7c-34.7,0 -72.5,-14 -97.7,-34.6Z" style="fill:rgb(85,85,85);fill-rule:nonzero;"/>        </g>        <g transform="matrix(1,0,0,1,-504.652,73.3875)">            <path d="M1913.5,227.9l-268.6,-103.6l268.6,-96.9l0,-22l-294.1,106l0,25.3l294.1,113.4l0,-22.2Z" style="fill:rgb(234,91,12);fill-rule:nonzero;"/>            <path d="M1913.5,283.3l-294.1,-113.4l0,22.2l268.3,103.4l-268.3,96.8l0,22l294.1,-106l0,-25Z" style="fill:rgb(234,91,12);fill-rule:nonzero;"/>        </g>    </g></svg>