<?xml version="1.0" encoding="UTF-8" standalone="no"?><!DOCTYPE svg PUBLIC "-//W3C//DTD SVG 1.1//EN" "http://www.w3.org/Graphics/SVG/1.1/DTD/svg11.dtd"><svg width="100%" height="100%" viewBox="0 0 1024 512" version="1.1" xmlns="http://www.w3.org/2000/svg" xmlns:xlink="http://www.w3.org/1999/xlink" xml:space="preserve" style="fill-rule:evenodd;clip-rule:evenodd;stroke-linejoin:round;stroke-miterlimit:2;"><title>Spreds</title><desc>Spreds is an investment platform that allows growing start-ups and companies to receive financing from a unique crowd of investors, from private individuals to industryprofessionals. Spreds also enables investors to partner up with professionals to support entrepreneurship thanks to minimum investments of €100.</desc>    <g transform="matrix(1.21156,0,0,1.21156,2,115.332)">        <path d="M840.67,71c0,0.003 0,0.007 0,0.01c0,10.237 -8.423,18.66 -18.66,18.66c-10.237,0 -18.66,-8.423 -18.66,-18.66c0,-10.233 8.417,-18.655 18.65,-18.66c10.235,0 18.659,8.416 18.67,18.65Zm-90.5,71.48c-0.003,0 -0.007,0 -0.01,0c-10.237,0 -18.66,8.423 -18.66,18.66c0,10.237 8.423,18.66 18.66,18.66c10.237,0 18.66,-8.423 18.66,-18.66c-0.005,-10.229 -8.421,-18.645 -18.65,-18.65l0,-0.01Zm64.46,35.62c0,0.439 0.361,0.8 0.8,0.8c0.083,0.007 0.167,0.007 0.25,0c7.08,-2.39 26.21,-10.8 26.21,-32c0,-21 -9.84,-30.9 -43.22,-45.19c-24.93,-10.71 -48.81,-17.2 -48.81,-32.71c0,-8.65 3.25,-12.53 5.38,-14.31c0.182,-0.156 0.291,-0.381 0.3,-0.62c0,-0.003 0,-0.007 0,-0.01c0,-0.428 -0.352,-0.78 -0.78,-0.78c0,0 0,0 0,0c-0.128,-0.002 -0.254,0.025 -0.37,0.08c-6.78,2.69 -22.88,11.1 -22.88,30.48c0,25.08 17.84,33 45,44.81c21.06,9.16 45.9,19.31 45.9,32.73c0,9.45 -4.25,14.13 -7.4,16.08c-0.227,0.14 -0.37,0.384 -0.38,0.65l0,-0.01Z" style="fill-rule:nonzero;"/>        <path d="M608.3,116.11c0,48.43 26.59,58.8 38.79,61.28c0.34,0.091 0.566,0.419 0.53,0.77c-0.015,0.429 -0.361,0.78 -0.79,0.8c-22.05,0.14 -73.2,-2.65 -73.2,-62.85c0,-60.2 51.15,-63 73.2,-62.85c0.427,0.015 0.775,0.363 0.79,0.79c0.036,0.351 -0.19,0.679 -0.53,0.77c-12.2,2.48 -38.79,12.85 -38.79,61.29Zm86.84,-116.11l-33,0l0,178.94l33,0l0,-178.94Z" style="fill-rule:nonzero;"/>        <path d="M545.6,117.32l-98,0c0.31,42.56 16.48,57.66 24.87,60.05c0,0 0.7,0.16 0.7,0.79c0,0.007 0,0.015 0,0.022c0,0.423 -0.347,0.77 -0.77,0.77c-0.02,0 -0.04,0 -0.06,-0.002c-19.93,-0.18 -58.53,-10.19 -58.53,-62.85c0,-52.66 38.6,-62.66 58.53,-62.84c0.02,-0.002 0.04,-0.002 0.06,-0.002c0.423,0 0.77,0.347 0.77,0.77c0,0.007 0,0.015 0,0.022c0,0.63 -0.7,0.78 -0.7,0.78c-7.55,2.17 -21.47,14.69 -24.33,48.42l63.18,0c-2.86,-33.74 -16.79,-46.25 -24.32,-48.42c0,0 -0.7,-0.15 -0.7,-0.78c0,-0.008 0,-0.015 0,-0.023c0,-0.423 0.347,-0.77 0.77,-0.77c0.023,0 0.047,0.001 0.07,0.003c19.92,0.18 58.52,10.19 58.52,62.84c-0.05,0.41 -0.05,0.82 -0.06,1.22Zm-30.86,25.17c-10.237,0 -18.66,8.423 -18.66,18.66c0,10.237 8.423,18.66 18.66,18.66c10.237,0 18.66,-8.423 18.66,-18.66c-0.005,-10.235 -8.425,-18.655 -18.66,-18.66Z" style="fill-rule:nonzero;"/>        <path d="M400.61,71c0,0.003 0,0.007 0,0.01c0,10.237 -8.423,18.66 -18.66,18.66c-10.237,0 -18.66,-8.423 -18.66,-18.66c0,-10.237 8.423,-18.66 18.66,-18.66c0.017,0 0.033,0 0.05,0c10.214,0.027 18.605,8.436 18.61,18.65Zm-45.92,-16.93c0,-0.439 -0.361,-0.8 -0.8,-0.8l-53.34,0l0,125.73l33,0l0,-74.45c0,-38 14.18,-47.53 20.57,-49.72c0.333,-0.103 0.564,-0.411 0.57,-0.76Z" style="fill-rule:nonzero;"/>        <path d="M233.67,116.11c0,-48.44 -26.59,-58.81 -38.79,-61.29c-0.34,-0.091 -0.566,-0.419 -0.53,-0.77c0.015,-0.427 0.363,-0.775 0.79,-0.79c22.05,-0.15 73.2,2.64 73.2,62.85c0,60.21 -51.15,63 -73.2,62.85c-0.429,-0.02 -0.775,-0.371 -0.79,-0.8c-0.036,-0.351 0.19,-0.679 0.53,-0.77c12.2,-2.48 38.79,-12.85 38.79,-61.28Zm-86.83,116.1l33,0l0,-178.94l-33,0l0,178.94Z" style="fill-rule:nonzero;"/>        <path d="M109.16,71c0,0.003 0,0.007 0,0.01c0,10.237 -8.423,18.66 -18.66,18.66c-10.237,0 -18.66,-8.423 -18.66,-18.66c0,-10.237 8.423,-18.66 18.66,-18.66c10.231,0.005 18.649,8.419 18.66,18.65Zm-90.5,71.48c-10.237,0 -18.66,8.423 -18.66,18.66c0,10.237 8.423,18.66 18.66,18.66c10.237,0 18.66,-8.423 18.66,-18.66c-0.005,-10.233 -8.427,-18.65 -18.66,-18.65l0,-0.01Zm64.46,35.62c0,0.439 0.361,0.8 0.8,0.8c0.083,0.007 0.167,0.007 0.25,0c7.09,-2.39 26.21,-10.8 26.21,-32c0,-21 -9.84,-30.9 -43.22,-45.19c-24.93,-10.71 -48.81,-17.2 -48.81,-32.71c0,-8.65 3.25,-12.53 5.39,-14.31c0.175,-0.16 0.28,-0.383 0.29,-0.62c0,-0.003 0,-0.007 0,-0.01c0,-0.428 -0.352,-0.78 -0.78,-0.78c0,0 0,0 0,0c-0.128,-0.002 -0.254,0.025 -0.37,0.08c-6.78,2.64 -22.88,11.08 -22.88,30.46c0,25.08 17.84,33 45,44.81c21.06,9.16 45.9,19.31 45.9,32.73c0,9.45 -4.26,14.13 -7.41,16.08c-0.229,0.146 -0.368,0.399 -0.37,0.67l0,-0.01Z" style="fill-rule:nonzero;"/>    </g></svg>