<?xml version="1.0" encoding="UTF-8" standalone="no"?><!DOCTYPE svg PUBLIC "-//W3C//DTD SVG 1.1//EN" "http://www.w3.org/Graphics/SVG/1.1/DTD/svg11.dtd"><svg width="100%" height="100%" viewBox="0 0 1024 512" version="1.1" xmlns="http://www.w3.org/2000/svg" xmlns:xlink="http://www.w3.org/1999/xlink" xml:space="preserve" style="fill-rule:evenodd;clip-rule:evenodd;stroke-linejoin:round;stroke-miterlimit:2;"><title>Renditefokus</title><desc>Our crowdfunding platform allows you to invest in real estate projects from experienced property developers free of charge from €500.We are a fintech startup from Munich and bring together private investors and property developers online.</desc>    <g transform="matrix(5.95584,0,0,2.89191,-977.704,149.39)">        <g transform="matrix(25.811,0,0,53.1574,247.528,61.7467)">            <path d="M0.011,-0.018c0.04,-0.004 0.064,-0.012 0.074,-0.022c0.009,-0.01 0.014,-0.037 0.014,-0.08l0,-0.433c0,-0.036 -0.005,-0.059 -0.016,-0.07c-0.011,-0.011 -0.035,-0.017 -0.072,-0.02l0,-0.019l0.533,0l0.003,0.144l-0.027,0c-0.007,-0.046 -0.02,-0.075 -0.039,-0.087c-0.019,-0.012 -0.056,-0.019 -0.112,-0.019l-0.137,0c-0.013,0 -0.021,0.003 -0.025,0.007c-0.004,0.005 -0.006,0.014 -0.006,0.027l0,0.223l0.145,0c0.042,0 0.07,-0.006 0.081,-0.019c0.012,-0.012 0.021,-0.038 0.029,-0.077l0.023,0l0,0.232l-0.023,0c-0.008,-0.039 -0.018,-0.065 -0.029,-0.077c-0.012,-0.013 -0.039,-0.019 -0.081,-0.019l-0.145,0l0,0.219c0,0.036 0.006,0.06 0.017,0.07c0.011,0.01 0.036,0.017 0.074,0.02l0,0.018l-0.281,0l0,-0.018Z" style="fill:rgb(120,120,123);fill-rule:nonzero;"/>        </g>        <g transform="matrix(25.811,0,0,53.1574,262.995,61.7467)">            <path d="M0.143,-0.331c0,0.106 0.021,0.183 0.062,0.234c0.041,0.05 0.125,0.075 0.185,0.075c0.059,0 0.141,-0.024 0.183,-0.073c0.042,-0.049 0.063,-0.128 0.063,-0.236c0,-0.109 -0.021,-0.187 -0.064,-0.236c-0.042,-0.048 -0.124,-0.073 -0.182,-0.073c-0.06,0 -0.143,0.025 -0.185,0.076c-0.041,0.05 -0.062,0.128 -0.062,0.233Zm-0.113,0c0,-0.106 0.033,-0.192 0.1,-0.256c0.062,-0.059 0.17,-0.089 0.26,-0.089c0.09,0 0.198,0.03 0.26,0.089c0.066,0.064 0.1,0.15 0.1,0.256c0,0.109 -0.035,0.195 -0.104,0.259c-0.062,0.058 -0.169,0.086 -0.256,0.086c-0.094,0 -0.204,-0.032 -0.266,-0.095c-0.063,-0.065 -0.094,-0.148 -0.094,-0.25Z" style="fill:rgb(120,120,123);fill-rule:nonzero;"/>        </g>        <g transform="matrix(25.811,0,0,53.1574,283.861,61.7467)">            <path d="M0.018,-0.018c0.041,-0.003 0.066,-0.011 0.076,-0.022c0.01,-0.011 0.014,-0.038 0.014,-0.08l0,-0.433c0,-0.036 -0.005,-0.06 -0.016,-0.07c-0.011,-0.011 -0.036,-0.017 -0.074,-0.02l0,-0.019l0.285,0l0,0.019c-0.039,0.002 -0.064,0.008 -0.075,0.019c-0.012,0.012 -0.018,0.035 -0.018,0.071l0,0.205c0.062,-0.053 0.31,-0.243 0.31,-0.262c0,-0.014 -0.006,-0.022 -0.018,-0.027c-0.011,-0.004 -0.028,-0.006 -0.05,-0.006l0,-0.019l0.262,0l0,0.016c-0.032,0.004 -0.057,0.01 -0.076,0.02c-0.018,0.009 -0.044,0.03 -0.076,0.062l-0.244,0.186l0.297,0.251c0.044,0.047 0.073,0.076 0.089,0.087c0.015,0.012 0.038,0.019 0.069,0.023l0,0.017l-0.306,0l0,-0.018c0.028,-0.001 0.046,-0.003 0.056,-0.007c0.01,-0.003 0.015,-0.01 0.015,-0.02c0,-0.005 -0.003,-0.014 -0.01,-0.025c-0.006,-0.012 -0.016,-0.025 -0.03,-0.04l-0.254,-0.208l-0.034,0.029l0,0.181c0,0.037 0.006,0.06 0.017,0.07c0.012,0.01 0.036,0.017 0.074,0.02l0,0.018l-0.283,0l0,-0.018Z" style="fill:rgb(120,120,123);fill-rule:nonzero;"/>        </g>        <g transform="matrix(25.811,0,0,53.1574,304.171,61.7467)">            <path d="M0.297,-0.662l0,0.019c-0.038,0.003 -0.063,0.009 -0.074,0.019c-0.012,0.01 -0.017,0.034 -0.017,0.071l0,0.32c0,0.052 0.007,0.093 0.021,0.122c0.027,0.054 0.077,0.08 0.152,0.08c0.082,0 0.158,-0.027 0.186,-0.082c0.016,-0.03 0.023,-0.078 0.023,-0.141l0,-0.261c0,-0.054 -0.006,-0.088 -0.019,-0.102c-0.013,-0.014 -0.038,-0.022 -0.074,-0.026l0,-0.019l0.231,0l0,0.019c-0.039,0.004 -0.064,0.014 -0.076,0.028c-0.012,0.014 -0.018,0.048 -0.018,0.1l0,0.261c0,0.069 -0.01,0.122 -0.031,0.161c-0.039,0.072 -0.135,0.107 -0.245,0.107c-0.108,0 -0.181,-0.035 -0.22,-0.105c-0.021,-0.038 -0.032,-0.088 -0.032,-0.15l0,-0.312c0,-0.037 -0.006,-0.06 -0.017,-0.07c-0.011,-0.011 -0.036,-0.017 -0.073,-0.02l0,-0.019l0.283,0Z" style="fill:rgb(120,120,123);fill-rule:nonzero;"/>        </g>        <g transform="matrix(25.811,0,0,53.1574,323.089,61.7467)">            <path d="M0.086,-0.19c0.017,0.045 0.015,0.07 0.038,0.096c0.04,0.047 0.089,0.07 0.148,0.07c0.032,0 0.059,-0.01 0.083,-0.03c0.023,-0.02 0.035,-0.049 0.035,-0.085c0,-0.032 -0.012,-0.061 -0.036,-0.085c-0.015,-0.015 -0.047,-0.038 -0.096,-0.068l-0.086,-0.054c-0.025,-0.016 -0.046,-0.032 -0.061,-0.049c-0.028,-0.032 -0.043,-0.066 -0.043,-0.105c0,-0.05 0.017,-0.092 0.051,-0.125c0.033,-0.034 0.078,-0.045 0.133,-0.051c0.079,-0.008 0.189,0.036 0.189,0.036l0.006,0.123l-0.024,0c-0.008,-0.031 -0.021,-0.055 -0.057,-0.08c-0.036,-0.026 -0.072,-0.038 -0.107,-0.038c-0.027,0 -0.051,0.008 -0.071,0.024c-0.021,0.016 -0.031,0.038 -0.031,0.067c0,0.026 0.008,0.048 0.024,0.066c0.015,0.019 0.04,0.038 0.072,0.058l0.088,0.054c0.055,0.034 0.094,0.065 0.117,0.094c0.022,0.028 0.033,0.062 0.033,0.101c0,0.053 -0.02,0.096 -0.06,0.131c-0.039,0.036 -0.09,0.053 -0.151,0.053c-0.031,0 -0.095,-0.003 -0.129,-0.015c-0.034,-0.011 -0.086,-0.025 -0.086,-0.025l-0.002,-0.163l0.023,0Z" style="fill:rgb(120,120,123);fill-rule:nonzero;"/>        </g>        <g transform="matrix(24.2779,0,0,50,162.041,62.046)">            <path d="M0.151,-0.311l0,0.311l-0.05,0l0,-0.714l0.055,0c0.089,0 0.154,0.016 0.197,0.049c0.042,0.033 0.063,0.082 0.063,0.148c0,0.048 -0.012,0.089 -0.038,0.121c-0.059,0.074 -0.098,0.056 -0.149,0.071l0.228,0.325l-0.059,0l-0.219,-0.311l-0.028,0Zm0,-0.066l0.021,0c0.061,0 0.107,0.01 0.141,-0.017c0.033,-0.027 0.049,-0.067 0.049,-0.119c0,-0.055 -0.016,-0.094 -0.048,-0.119c-0.033,-0.025 -0.086,-0.037 -0.16,-0.037l-0.003,0l0,0.292Z" style="fill:rgb(120,120,123);fill-rule:nonzero;"/>        </g>        <g transform="matrix(24.2779,0,0,50,172.85,62.046)">            <path d="M0.457,0l-0.356,0l0,-0.714l0.356,0l0,0.046l-0.306,0l0,0.27l0.287,0l0,0.046l-0.287,0l0,0.306l0.306,0l0,0.046Z" style="fill:rgb(120,120,123);fill-rule:nonzero;"/>        </g>        <g transform="matrix(24.2779,0,0,50,233.86,62.046)">            <path d="M0.457,0l-0.356,0l0,-0.714l0.356,0l0,0.046l-0.306,0l0,0.27l0.287,0l0,0.046l-0.287,0l0,0.306l0.306,0l0,0.046Z" style="fill:rgb(120,120,123);fill-rule:nonzero;"/>        </g>        <g transform="matrix(24.2779,0,0,50,184.576,62.046)">            <path d="M0.746,0.034l-0.599,-0.622l0.002,0.588l-0.048,0l0,-0.714l0.601,0.621c-0.003,-0.058 -0.004,-0.518 -0.004,-0.518l0.048,-0.057l0,0.702Z" style="fill:rgb(120,120,123);fill-rule:nonzero;"/>        </g>        <g transform="matrix(0.278271,0,0,0.573095,164.339,10.0623)">            <path d="M83.436,26.11l4.41,4.41l42.259,0l-20.343,23.894l3.018,3.319l25.33,-28.826l-28.158,-29.077l-26.516,26.28Zm5.686,0.068l39.708,0l-18.884,-19.936l-20.824,19.936Z" style="fill:rgb(255,99,124);"/>        </g>        <g transform="matrix(0.278271,0,0,0.573095,164.339,10.0623)">            <path d="M105.062,60.791l2.841,3.247l-19.467,21.702l0,-6.347l16.626,-18.602Z" style="fill:rgb(255,99,124);"/>        </g>        <g transform="matrix(0.278271,0,0,0.573095,164.339,10.0623)">            <path d="M88.44,86.961l0,3.746l44.631,0l-3.785,-3.746l-40.846,0Z" style="fill:rgb(255,99,124);"/>        </g>        <g transform="matrix(24.2779,0,0,50,203.755,62.046)">            <path d="M0.62,-0.364c0,0.12 -0.031,0.211 -0.094,0.272c-0.063,0.061 -0.155,0.092 -0.277,0.092l-0.148,0l0,-0.714l0.17,0c0.114,0 0.201,0.03 0.26,0.089c0.059,0.06 0.089,0.147 0.089,0.261Zm-0.054,0.002c0,-0.102 -0.026,-0.179 -0.078,-0.231c-0.052,-0.051 -0.128,-0.077 -0.229,-0.077l-0.108,0l0,0.626l0.095,0c0.213,0 0.32,-0.106 0.32,-0.318Z" style="fill:rgb(120,120,123);fill-rule:nonzero;"/>        </g>        <g transform="matrix(24.2779,0,0,50,218.948,62.046)">            <rect x="0.101" y="-0.714" width="0.05" height="0.714" style="fill:rgb(120,120,123);fill-rule:nonzero;"/>        </g>        <g transform="matrix(24.2779,0,0,50,224.23,62.046)">            <path d="M0.241,0l-0.05,0l0,-0.667l-0.186,0l0,-0.047l0.422,0l0,0.047l-0.186,0l0,0.667Z" style="fill:rgb(120,120,123);fill-rule:nonzero;"/>        </g>    </g></svg>