<?xml version="1.0" encoding="UTF-8" standalone="no"?><!DOCTYPE svg PUBLIC "-//W3C//DTD SVG 1.1//EN" "http://www.w3.org/Graphics/SVG/1.1/DTD/svg11.dtd"><svg width="100%" height="100%" viewBox="0 0 1024 512" version="1.1" xmlns="http://www.w3.org/2000/svg" xmlns:xlink="http://www.w3.org/1999/xlink" xml:space="preserve" style="fill-rule:evenodd;clip-rule:evenodd;stroke-linejoin:round;stroke-miterlimit:2;"><title>ClubFunding</title><desc>ClubFunding is a crowdfunding platform that offers investors, individuals and institutions, bonds issued by French SMEs.</desc>    <g transform="matrix(1,0,0,1,-266.517,-39.77)">        <g transform="matrix(1.56,0,0,1.56,-286.53,-237.213)">            <g transform="matrix(0.24,0,0,0.24,-1215.72,-877.296)">                <path d="M6735,4897.03l2.507,-1.47l41.604,24.267l50.271,0l24.815,43.797l40.927,23.873l-0,48.363l24.429,43.116l-0.175,0.308l2.757,1.417l-4.95,2.455l-22.061,38.933l-0,49.215l-41.462,23.958l-24.28,42.851l-49.877,0l-41.998,24.268l-0.583,-0.339l-1.557,2.991l-2.691,-5.459l-36.937,-21.461l-48.418,0l-24.092,-42.128l-42.488,-24.685l0,-49.608l-21.944,-38.372l-5.067,-2.619l2.732,-1.464l-0.15,-0.261l24.429,-42.72l0,-48.755l41.95,-24.603l24.63,-43.071l48.809,0l33.098,-19.411l3.579,-7.509l2.193,4.123Zm14.376,341.083l-8.654,16.631l28.78,-16.631l-20.126,0Zm-5.642,0l-16.055,0l7.809,15.846l8.246,-15.846Zm-38.034,0l22.979,13.351l-6.579,-13.351l-16.4,0Zm82.465,-5.004l30.664,-0l-14.546,-9.314l-16.118,9.314Zm-19.478,-32.105l-16.707,32.105l26.183,-0l21.375,-12.352l-30.851,-19.753Zm-61.038,-3.535l17.564,35.64l21.126,-0l18.116,-34.814l-30.536,-19.552l-26.27,18.726Zm-4.129,2.943l-28.16,20.074l21.727,12.623l22.547,-0l-16.114,-32.697Zm-32.633,23.263l-13.235,9.434l29.473,-0l-16.238,-9.434Zm-21.008,8.829l16.258,-11.589l-34.275,-19.914l18.017,31.503Zm159.282,-11.527l17.742,11.359l18.207,-32.132l-35.949,20.773Zm-9.455,-79.58l-28.7,55.15l33.41,21.392l45.563,-26.328l22.429,-39.584l-22.972,-35.284l-49.73,24.654Zm-124.15,2.274l-53.094,-27.444l-21.158,31.34l25.601,44.767l43.705,25.392l30.669,-21.862l-25.723,-52.193Zm116.547,1.495l-51.668,25.615l-0,0.33l-0.666,0l-4.784,2.372l31.79,20.355l25.328,-48.672Zm-109.061,2.374l22.365,45.381l27.503,-19.605l-49.868,-25.776Zm-84.859,4.65l-11.375,16.848l31.464,18.28l-20.089,-35.128Zm280.08,-0.343l10.561,16.221l-4.194,2.73l-9.146,-14.047l-16.953,29.918l31.588,-18.253l0,-37.495l-11.856,20.926Zm-198.946,-11.865l54.821,28.335l1.292,-0.64l0,-86.205l-84.948,0l28.835,58.51Zm145.931,-58.51l-84.813,0l-0,83.724l55.585,-27.557l29.228,-56.167Zm-239.502,80.195l9.667,-14.319l-9.667,-16.905l-0,31.224Zm268.204,-47.162l21.237,32.618l14.932,-26.353l0,-24.197l-36.169,17.932Zm-235.965,-0.591l-32.239,-16.665l-0,23.113l12.789,22.363l19.45,-28.811Zm7.296,-1.863l46.55,24.061l-26.497,-53.764l-20.053,29.703Zm203.647,-26.808l-25.305,48.626l43.064,-21.349l-17.759,-27.277Zm80.258,1.878l-14.062,6.971l-0,17.846l14.062,-24.817Zm-328.445,24.491l0,-16.949l-13.76,-7.113l13.76,24.062Zm250.588,-33.427l0.642,1.209l-0.391,0.751l19.621,30.137l38.918,-19.294l0,-21.121l-39.989,-20.561l-18.801,28.879Zm-207.514,-29.377l-38.069,20.408l-0,22.4l35.059,18.121l22.699,-33.622l-19.689,-27.307Zm-59.342,31.812l16.268,8.409l0,-17.13l-16.268,8.721Zm330.651,-8.18l-0,16.067l15.908,-7.887l-15.908,-8.18Zm-99.806,-51.317l-54.883,-28.219l-0,83.564l84.313,0l-29.43,-55.345Zm-117.479,-1.276l-26.992,56.621l84.583,0l0,-86.137l-1.292,-0.665l-56.299,30.181Zm217.285,46.966l16.631,8.551l-16.631,-29.353l-0,20.802Zm-330.779,8.198l16.396,-8.79l0,-19.883l-16.396,28.673Zm238.774,-49.877l25.525,48.002l17.012,-26.131l-42.537,-21.871Zm-174.854,21.289l18.879,26.183l23.247,-48.766l-42.126,22.583Zm246.92,-35.602l-22.31,34.269l37.244,19.15l0,-27.061l-14.934,-26.358Zm-276.18,3.579l-13.259,23.186l-0,25.952l35.116,-18.825l-21.857,-30.313Zm171.625,-50.364l28.371,53.353l49.4,25.4l24.006,-36.873l-21.899,-38.649l-45.206,-26.369l-34.672,23.138Zm-71.276,-0.952l-29.605,-21.983l-43.376,25.439l-24.639,43.088l23.578,32.7l48.715,-26.116l25.327,-53.128Zm-113.608,64.421l10.044,-17.564l-10.044,-13.93l-0,31.494Zm303.078,-37.633l-10.563,16.225l11.858,20.93l0,-36.655l-5.085,-2.967l3.79,2.467Zm-122.377,-23.044l-28.626,19.104l1.744,0.897l0.87,0l-0,0.447l50.765,26.102l-24.753,-46.55Zm-62.999,-0.703l-21.973,46.095l48.811,-26.167l-26.838,-19.928Zm-116.226,23.377l11.297,15.667l19.18,-33.542l-30.477,17.875Zm288.26,11.691l9.135,-14.031l-25.517,-14.884l16.382,28.915Zm-111.396,-38.805l-19.971,-37.556l-20.982,-0l-17.49,36.689l28.277,20.998l30.166,-20.131Zm-14.303,-37.556l18.486,34.764l32.222,-21.504l-22.733,-13.26l-27.975,-0Zm77.481,1.409l-17.33,11.565l35.672,20.807l-18.342,-32.372Zm-109.675,-1.409l-20.1,-0l-23.05,13.518l27.109,20.131l16.041,-33.649Zm-86.224,32.979l34.019,-19.952l-15.87,-11.785l-18.149,31.737Zm24.869,-32.979l13.84,10.277l17.523,-10.277l-31.363,-0Zm148.89,10.168l15.237,-10.168l-32.67,-0l17.433,10.168Zm-99.102,-15.173l13.952,0l5.415,-11.358l-19.367,11.358Zm19.496,0l15.936,0l-8.403,-15.802l-7.533,15.802Zm11.834,-18.374l9.77,18.374l22.057,0l-31.665,-18.47l-0.162,0.096Z" style="fill:rgb(31,25,85);"/>            </g>            <g>                <g transform="matrix(0,-2.67581,-2.65298,0,405.648,344.468)">                    <path d="M1.164,16.388c-0.677,0 -1.203,0.526 -1.203,1.201c-0,0.675 0.526,1.201 1.203,1.201c0.676,-0 1.277,-0.526 1.277,-1.201c-0,-0.675 -0.601,-1.201 -1.277,-1.201Z" style="fill:rgb(173,0,29);fill-rule:nonzero;"/>                </g>                <g transform="matrix(0,-2.67581,-2.65298,0,448.147,387.333)">                    <path d="M17.183,16.351c-0.677,0 -1.203,0.525 -1.203,1.2c0,0.676 0.526,1.276 1.203,1.276c0.676,0 1.277,-0.6 1.277,-1.276c0,-0.675 -0.601,-1.2 -1.277,-1.2Z" style="fill:rgb(173,0,29);fill-rule:nonzero;"/>                </g>                <g transform="matrix(0,-2.67581,-2.65298,0,470.045,409.419)">                    <path d="M25.437,16.351c-0.677,0 -1.203,0.6 -1.203,1.276c0,0.6 0.526,1.2 1.203,1.2c0.676,0 1.277,-0.6 1.277,-1.2c0,-0.676 -0.601,-1.276 -1.277,-1.276Z" style="fill:rgb(173,0,29);fill-rule:nonzero;"/>                </g>                <g transform="matrix(0,-2.67581,-2.65298,0,426.023,409.045)">                    <ellipse cx="17.108" cy="9.362" rx="1.202" ry="1.2" style="fill:rgb(173,0,29);"/>                </g>                <g transform="matrix(0,-2.67581,-2.65298,0,425.952,364.946)">                    <path d="M8.817,16.389c-0.677,-0 -1.203,0.524 -1.203,1.2c-0,0.675 0.526,1.2 1.203,1.2c0.676,0 1.277,-0.525 1.277,-1.2c-0,-0.675 -0.601,-1.2 -1.277,-1.2Z" style="fill:rgb(173,0,29);fill-rule:nonzero;"/>                </g>                <g transform="matrix(0,-2.67581,-2.65298,0,490.704,343.808)">                    <path d="M17.145,32.542c-0.676,0 -1.202,0.525 -1.202,1.2c0,0.676 0.526,1.201 1.202,1.201c0.676,-0 1.127,-0.525 1.127,-1.201c0,-0.675 -0.451,-1.2 -1.127,-1.2Z" style="fill:rgb(173,0,29);fill-rule:nonzero;"/>                </g>                <g transform="matrix(0,-2.67581,-2.65298,0,490.448,429.997)">                    <path d="M33.128,16.389c-0.677,-0 -1.203,0.525 -1.203,1.199c-0,0.677 0.526,1.202 1.203,1.202c0.675,-0 1.277,-0.525 1.277,-1.202c-0,-0.674 -0.602,-1.2 -1.277,-1.2Z" style="fill:rgb(173,0,29);fill-rule:nonzero;"/>                </g>                <g transform="matrix(0,-2.67581,-2.65298,0,404.696,431.158)">                    <path d="M17.258,-0.027c-0.677,-0 -1.278,0.525 -1.278,1.2c0,0.676 0.601,1.276 1.278,1.276c0.676,-0 1.202,-0.6 1.202,-1.276c-0,-0.675 -0.526,-1.2 -1.202,-1.2Z" style="fill:rgb(173,0,29);fill-rule:nonzero;"/>                </g>                <g transform="matrix(0,-2.67581,-2.65298,0,449.678,332.384)">                    <path d="M7.241,26.907c-0.676,-0 -1.202,0.525 -1.202,1.201c-0,0.675 0.526,1.275 1.202,1.275c0.676,0 1.202,-0.6 1.202,-1.275c-0,-0.676 -0.526,-1.201 -1.202,-1.201Z" style="fill:rgb(173,0,29);fill-rule:nonzero;"/>                </g>                <g transform="matrix(0,-2.67581,-2.65298,0,466.452,423.886)">                    <path d="M27.462,12.971c-0.601,-0 -1.201,0.6 -1.201,1.276c-0,0.675 0.601,1.2 1.201,1.2c0.677,-0 1.277,-0.525 1.277,-1.2c0,-0.676 -0.601,-1.276 -1.277,-1.276Z" style="fill:rgb(173,0,29);fill-rule:nonzero;"/>                </g>                <g transform="matrix(0,-2.67581,-2.65298,0,469.675,365.62)">                    <path d="M17.183,24.466c-0.678,-0.001 -1.203,0.524 -1.203,1.199c0,0.676 0.525,1.276 1.203,1.276c0.675,0 1.276,-0.6 1.276,-1.276c0,-0.675 -0.601,-1.2 -1.276,-1.2Z" style="fill:rgb(173,0,29);fill-rule:nonzero;"/>                </g>            </g>        </g>        <g transform="matrix(4.30206,0,0,3.47218,-3976.04,-4510.98)">            <g transform="matrix(32.4473,0,0,58.3333,1022.99,1404.78)">                <path d="M0.08,-0.204c0,0.136 0.075,0.214 0.199,0.214c0.124,0 0.199,-0.08 0.199,-0.216l0,-0.013c0,-0.014 -0.006,-0.021 -0.019,-0.021c-0.013,0 -0.019,0.007 -0.019,0.021c0,0.127 -0.057,0.192 -0.16,0.192c-0.101,0 -0.16,-0.068 -0.16,-0.183l-0,-0.28c-0,-0.115 0.059,-0.183 0.16,-0.183c0.101,0 0.16,0.069 0.16,0.182c-0,0.014 0.006,0.021 0.019,0.021c0.013,0 0.019,-0.007 0.019,-0.021l-0,-0.005c-0,-0.136 -0.073,-0.214 -0.197,-0.214c-0.124,0 -0.201,0.08 -0.201,0.216l-0,0.29Z" style="fill:rgb(173,0,29);fill-rule:nonzero;"/>            </g>            <g transform="matrix(32.4473,0,0,58.3333,1041.1,1404.78)">                <path d="M0.398,-0c0.011,-0 0.017,-0.006 0.017,-0.018c0,-0.011 -0.006,-0.017 -0.017,-0.017l-0.268,0l0,-0.65c0,-0.013 -0.007,-0.02 -0.02,-0.02c-0.013,0 -0.02,0.007 -0.02,0.02l0,0.665c0,0.013 0.007,0.02 0.02,0.02l0.288,0Z" style="fill:rgb(173,0,29);fill-rule:nonzero;"/>            </g>            <g transform="matrix(32.4473,0,0,58.3333,1054.73,1404.78)">                <path d="M0.466,-0.705c-0.013,0 -0.02,0.006 -0.02,0.019l0,0.476c0,0.115 -0.059,0.183 -0.16,0.183c-0.101,-0 -0.16,-0.068 -0.16,-0.183l-0,-0.475c-0,-0.013 -0.007,-0.02 -0.02,-0.02c-0.014,0 -0.021,0.007 -0.021,0.02l-0,0.481c-0,0.136 0.075,0.214 0.199,0.214c0.124,-0 0.201,-0.08 0.201,-0.216l-0,-0.48c-0,-0.013 -0.006,-0.019 -0.019,-0.019Z" style="fill:rgb(173,0,29);fill-rule:nonzero;"/>            </g>            <g transform="matrix(32.4473,0,0,58.3333,1073.22,1404.78)">                <path d="M0.09,-0.02c0,0.013 0.007,0.02 0.02,0.02l0.172,-0c0.062,-0 0.113,-0.018 0.153,-0.054c0.04,-0.036 0.06,-0.081 0.06,-0.136c-0,-0.087 -0.052,-0.154 -0.135,-0.178c0.073,-0.023 0.12,-0.084 0.12,-0.161c-0,-0.05 -0.018,-0.091 -0.054,-0.123c-0.036,-0.032 -0.083,-0.048 -0.14,-0.048l-0.176,0c-0.013,0 -0.02,0.006 -0.02,0.019l-0,0.661Zm0.04,-0.645l0.154,0c0.092,0 0.156,0.06 0.156,0.141c-0,0.081 -0.064,0.14 -0.156,0.14l-0.154,0l-0,-0.281Zm-0,0.314l0.152,0c0.051,0 0.092,0.015 0.124,0.045c0.033,0.03 0.049,0.068 0.049,0.113c0,0.045 -0.016,0.083 -0.049,0.113c-0.032,0.03 -0.073,0.045 -0.124,0.045l-0.152,0l-0,-0.316Z" style="fill:rgb(173,0,29);fill-rule:nonzero;"/>            </g>            <g transform="matrix(35.6433,0,0,58.3333,1097.34,1404.78)">                <path d="M0.388,-0.605c0.028,0 0.047,-0.02 0.047,-0.048c0,-0.028 -0.019,-0.047 -0.047,-0.047l-0.264,0c-0.032,0 -0.054,0.022 -0.054,0.053l0,0.598c0,0.032 0.022,0.054 0.054,0.054c0.031,0 0.053,-0.022 0.053,-0.054l0,-0.234l0.172,0c0.06,0.005 0.06,-0.097 0,-0.092l-0.172,0l0,-0.23l0.211,0Z" style="fill:rgb(31,25,85);fill-rule:nonzero;"/>            </g>            <g transform="matrix(35.6433,0,0,58.3333,1113.56,1404.78)">                <path d="M0.505,-0.652c0,-0.031 -0.022,-0.053 -0.053,-0.053c-0.031,0 -0.053,0.022 -0.053,0.053l0,0.437c0,0.081 -0.042,0.129 -0.113,0.129c-0.071,0 -0.113,-0.048 -0.113,-0.129l-0,-0.436c-0,-0.032 -0.022,-0.054 -0.054,-0.054c-0.032,0 -0.054,0.022 -0.054,0.054l-0,0.438c-0,0.139 0.087,0.223 0.219,0.223c0.066,0 0.119,-0.02 0.16,-0.061c0.041,-0.041 0.061,-0.096 0.061,-0.165l-0,-0.436Z" style="fill:rgb(31,25,85);fill-rule:nonzero;"/>            </g>            <g transform="matrix(35.6433,0,0,58.3333,1133.87,1404.78)">                <path d="M0.07,-0.044c0,0.029 0.021,0.049 0.049,0.049c0.029,-0 0.05,-0.02 0.05,-0.049l0,-0.462l0.235,0.468c0.014,0.029 0.033,0.043 0.058,0.043c0.035,-0 0.058,-0.024 0.058,-0.061l0,-0.6c0,-0.029 -0.021,-0.049 -0.049,-0.049c-0.029,0 -0.05,0.02 -0.05,0.049l-0,0.45l-0.229,-0.457c-0.014,-0.029 -0.034,-0.043 -0.061,-0.043c-0.036,0 -0.061,0.027 -0.061,0.064l-0,0.598Z" style="fill:rgb(31,25,85);fill-rule:nonzero;"/>            </g>            <g transform="matrix(35.6433,0,0,58.3333,1154.9,1404.78)">                <path d="M0.07,-0.054c0,0.032 0.022,0.054 0.054,0.054l0.152,-0c0.145,-0 0.234,-0.089 0.234,-0.241l0,-0.221c0,-0.152 -0.086,-0.238 -0.231,-0.238l-0.155,-0c-0.032,-0 -0.054,0.022 -0.054,0.053l-0,0.593Zm0.107,-0.551l0.098,0c0.083,0 0.128,0.052 0.128,0.145l0,0.22c0,0.093 -0.045,0.145 -0.128,0.145l-0.098,-0l-0,-0.51Z" style="fill:rgb(31,25,85);fill-rule:nonzero;"/>            </g>            <g transform="matrix(35.6433,0,0,58.3333,1175.22,1404.78)">                <path d="M0.13,-0.705c-0.032,0 -0.055,0.022 -0.055,0.055l-0,0.6c-0,0.033 0.023,0.055 0.055,0.055c0.033,-0 0.056,-0.022 0.056,-0.055l0,-0.6c0,-0.033 -0.023,-0.055 -0.056,-0.055Z" style="fill:rgb(31,25,85);fill-rule:nonzero;"/>            </g>            <g transform="matrix(35.6433,0,0,58.3333,1184.52,1404.78)">                <path d="M0.07,-0.044c0,0.029 0.021,0.049 0.049,0.049c0.029,-0 0.05,-0.02 0.05,-0.049l0,-0.462l0.235,0.468c0.014,0.029 0.033,0.043 0.058,0.043c0.035,-0 0.058,-0.024 0.058,-0.061l0,-0.6c0,-0.029 -0.021,-0.049 -0.049,-0.049c-0.029,0 -0.05,0.02 -0.05,0.049l-0,0.45l-0.229,-0.457c-0.014,-0.029 -0.034,-0.043 -0.061,-0.043c-0.036,0 -0.061,0.027 -0.061,0.064l-0,0.598Z" style="fill:rgb(31,25,85);fill-rule:nonzero;"/>            </g>            <g transform="matrix(35.6433,0,0,58.3333,1205.55,1404.78)">                <path d="M0.06,-0.218c0,0.141 0.088,0.228 0.224,0.228c0.067,-0 0.122,-0.021 0.163,-0.062c0.042,-0.042 0.063,-0.098 0.063,-0.169l0,-0.096c0,-0.031 -0.02,-0.05 -0.051,-0.05l-0.134,0c-0.052,-0.004 -0.052,0.082 0,0.079l0.083,-0l0,0.066c0,0.088 -0.045,0.139 -0.121,0.139c-0.075,-0 -0.12,-0.051 -0.12,-0.139l-0,-0.258c-0,-0.084 0.045,-0.134 0.118,-0.134c0.069,0 0.111,0.044 0.118,0.119c0.007,0.028 0.023,0.042 0.05,0.042c0.031,0 0.052,-0.021 0.052,-0.053c0,-0.061 -0.02,-0.11 -0.061,-0.147c-0.041,-0.038 -0.093,-0.057 -0.158,-0.057c-0.067,0 -0.122,0.021 -0.164,0.063c-0.041,0.041 -0.062,0.097 -0.062,0.168l-0,0.261Z" style="fill:rgb(31,25,85);fill-rule:nonzero;"/>            </g>        </g>    </g></svg>