<?xml version="1.0" encoding="UTF-8" standalone="no"?><!DOCTYPE svg PUBLIC "-//W3C//DTD SVG 1.1//EN" "http://www.w3.org/Graphics/SVG/1.1/DTD/svg11.dtd"><svg width="100%" height="100%" viewBox="0 0 1024 512" version="1.1" xmlns="http://www.w3.org/2000/svg" xmlns:xlink="http://www.w3.org/1999/xlink" xml:space="preserve" style="fill-rule:evenodd;clip-rule:evenodd;stroke-linejoin:round;stroke-miterlimit:2;"><title>BitBond</title><desc>Bitbond has delivered blockchain powered financial technology since 2013. We pioneered financial markets with Germany’s first Security Token Offering (STO) by receiving BaFin approval for our tokenized bond in January 2019. Benefit from our bank-grade technology and expertise to serve your clients and raise capital in the most efficient way possible.</desc>    <g transform="matrix(0.219546,0,0,0.219546,2,163.242)">        <g id="XMLID_11_">            <rect id="XMLID_5_" x="566.929" y="41.989" width="226.772" height="226.772" style="fill:rgb(3,169,244);"/>            <rect id="XMLID_6_" x="566.929" y="325.454" width="226.772" height="226.772" style="fill:rgb(3,169,244);"/>            <rect id="XMLID_7_" x="566.929" y="608.918" width="226.772" height="226.772" style="fill:rgb(3,169,244);"/>            <rect id="XMLID_9_" x="283.465" y="325.454" width="226.772" height="226.772" style="fill:rgb(3,169,244);"/>            <rect id="XMLID_8_" x="283.465" y="608.918" width="226.772" height="226.772" style="fill:rgb(3,169,244);"/>            <rect id="XMLID_10_" x="0" y="608.918" width="226.772" height="226.772" style="fill:rgb(3,169,244);"/>        </g>        <g id="XMLID_2_">            <path id="XMLID_3_" d="M893.309,834l0,-791l276.906,0c95.922,0 168.672,18.359 218.266,55.078c49.594,36.719 74.391,90.531 74.391,161.422c0,38.719 -9.953,72.812 -29.859,102.281c-19.906,29.484 -47.609,51.094 -83.078,64.844c40.531,10.156 72.484,30.656 95.828,61.469c23.344,30.813 35.031,68.531 35.031,113.125c0,76.156 -24.266,133.797 -72.766,172.953c-48.5,39.156 -117.641,59.109 -207.407,59.828l-307.312,0Zm162.891,-460l120.531,0c82.156,-1.438 123.25,-34.156 123.25,-98.141c0,-35.781 -10.406,-61.547 -31.219,-77.266c-20.813,-15.719 -53.672,-23.593 -98.547,-23.593l-114.015,0l0,199Zm0,115l0,214l139.531,0c38.375,0 68.328,-9.156 89.859,-27.5c21.531,-18.328 32.312,-43.641 32.312,-75.953c0,-72.594 -37.469,-109.453 -112.391,-110.547l-149.311,0Z" style="fill-rule:nonzero;"/>            <path id="XMLID_14_" d="M1591.52,93.734c0,-23.469 7.859,-42.797 23.609,-57.969c15.75,-15.172 37.188,-22.765 64.344,-22.765c26.781,0 48.141,7.594 64.078,22.766c15.922,15.172 23.891,34.5 23.891,57.969c0,23.844 -8.062,43.344 -24.172,58.516c-16.11,15.172 -37.375,22.749 -63.797,22.749c-26.422,0 -47.688,-7.578 -63.797,-22.75c-16.109,-15.172 -24.156,-34.672 -24.156,-58.516Zm166.687,740.266l-157.453,0l0,-588l157.453,0l0,588Z" style="fill-rule:nonzero;"/>            <path id="XMLID_17_" d="M2075.4,102l0,144l100.453,0l0,115l-100.453,0l0,294.016c0,21.781 4.156,37.391 12.484,46.828c8.312,9.438 24.25,14.156 47.781,14.156c17.375,0 32.75,-1.266 46.156,-3.797l0,118.703c-30.781,9.391 -62.453,14.094 -95.016,14.094c-110.047,0 -166.156,-55.641 -168.328,-166.953l0,-317.047l-85.781,0l0,-115l85.781,0l0,-144l156.923,0Z" style="fill-rule:nonzero;"/>            <path id="XMLID_19_" d="M2792.5,545.922c0,94.094 -20.094,167.453 -60.281,220.109c-40.187,52.656 -96.281,78.969 -168.312,78.969c-63.719,0 -114.578,-24.469 -152.578,-73.406l-7.063,62.406l-141.172,0l0,-834l156.922,0l0,299.484c36.188,-42.312 83.797,-63.484 142.797,-63.484c71.672,0 127.875,26.328 168.594,78.984c40.719,52.656 61.094,126.734 61.094,222.266l0,8.672l-0.001,0Zm-156.937,-11.938c0,-59.344 -9.422,-102.672 -28.234,-130c-18.828,-27.312 -46.875,-40.984 -84.156,-40.984c-49.969,0 -84.359,20.453 -103.172,61.344l0,231.781c19.188,41.25 53.938,61.875 104.25,61.875c50.672,0 83.969,-24.969 99.906,-74.906c7.593,-23.875 11.406,-60.25 11.406,-109.11Z" style="fill-rule:nonzero;"/>            <path id="XMLID_22_" d="M2864.88,535.078c0,-58.25 11.219,-110.188 33.656,-155.781c22.437,-45.593 54.75,-80.875 96.922,-105.844c42.156,-24.969 91.125,-37.453 146.875,-37.453c79.266,0 143.969,24.25 194.109,72.734c50.125,48.5 78.094,114.359 83.891,197.578l1.078,40.156c0,90.109 -25.156,162.391 -75.469,216.844c-50.312,54.469 -117.828,81.688 -202.531,81.688c-84.703,0 -152.297,-27.125 -202.797,-81.406c-50.5,-54.281 -75.734,-128.094 -75.734,-221.469l0,-7.047Zm156.906,11.11c0,55.656 10.484,98.203 31.484,127.641c21,29.453 51.047,44.172 90.141,44.172c38,0 67.688,-14.531 89.047,-43.625c21.359,-29.094 32.047,-75.609 32.047,-139.562c0,-54.562 -10.688,-96.828 -32.047,-126.828c-21.359,-29.986 -51.406,-44.986 -90.125,-44.986c-38.375,0 -68.062,14.906 -89.062,44.719c-21,29.813 -31.485,75.969 -31.485,138.469Z" style="fill-rule:nonzero;"/>            <path id="XMLID_25_" d="M3662.52,246l4.891,67.938c41.984,-51.953 98.266,-77.938 168.859,-77.938c62.25,0 108.594,18.281 139,54.812c30.406,36.531 45.969,91.156 46.688,163.875l0,379.313l-156.906,0l0,-375.938c0,-33.312 -7.25,-57.484 -21.719,-72.516c-14.484,-15.031 -38.562,-22.547 -72.219,-22.547c-44.172,0 -77.297,18.844 -99.359,56.5l0,414.501l-156.923,0l0,-588l147.688,0Z" style="fill-rule:nonzero;"/>            <path id="XMLID_27_" d="M4116.57,536.156c0,-91.547 20.531,-164.453 61.625,-218.734c41.078,-54.281 97.281,-81.422 168.594,-81.422c57.188,0 104.422,21.344 141.703,64.031l0,-300.031l157.469,0l0,834l-141.719,0l-7.594,-62.406c-39.094,48.937 -89.422,73.406 -150.953,73.406c-69.141,0 -124.609,-27.219 -166.422,-81.688c-41.813,-54.453 -62.703,-130.171 -62.703,-227.156Zm156.906,11.141c0,55.094 9.594,97.312 28.781,126.672c19.187,29.36 47.063,44.031 83.625,44.031c48.5,0 82.703,-20.469 102.609,-61.438l0,-232.124c-19.546,-40.954 -53.39,-61.438 -101.531,-61.438c-75.656,0 -113.484,61.438 -113.484,184.297Z" style="fill-rule:nonzero;"/>        </g>    </g></svg>