<?xml version="1.0" encoding="UTF-8" standalone="no"?><!DOCTYPE svg PUBLIC "-//W3C//DTD SVG 1.1//EN" "http://www.w3.org/Graphics/SVG/1.1/DTD/svg11.dtd"><svg width="100%" height="100%" viewBox="0 0 1024 512" version="1.1" xmlns="http://www.w3.org/2000/svg" xmlns:xlink="http://www.w3.org/1999/xlink" xml:space="preserve" style="fill-rule:evenodd;clip-rule:evenodd;stroke-linejoin:round;stroke-miterlimit:2;"><title>Crowd2Fund</title><desc>Crowd2Fund is an alternative solution to an out-of-date financial system, for private businesses and investors. We allow investors to choose their own investments and invest directly into fast growing, carefully selected businesses. Businesses choose Crowd2Fund to raise funds but also build a network of private investors to help them grow.</desc>    <g transform="matrix(2.46659,0,0,2.46659,-438.257,-449.184)">        <g transform="matrix(2,0,0,2,278.222,304.529)">            <path d="M0,-17.94c4.114,0 6.195,2.181 6.195,2.181l-0.644,0.793c0,0 -2.057,-1.958 -5.526,-1.958c-4.262,0 -7.508,3.346 -7.508,7.83c0,4.512 3.221,8.079 7.582,8.079c3.717,0 5.873,-2.355 5.873,-2.355l0.669,0.744c0,0 -2.329,2.626 -6.542,2.626c-5.055,0 -8.697,-4.063 -8.697,-9.094c0,-5.03 3.717,-8.846 8.598,-8.846" style="fill:rgb(99,101,105);fill-rule:nonzero;"/>        </g>        <g transform="matrix(2,0,0,2,309.35,286.591)">            <path d="M0,-0.001c2.279,0 3.717,-1.635 3.717,-3.989c0,-1.536 -0.769,-2.776 -2.032,-3.345c-0.496,-0.224 -1.041,-0.347 -2.429,-0.347l-3.964,0l0,7.681l4.708,0Zm-5.774,-8.672l5.08,0c1.611,0 2.428,0.173 3.122,0.52c1.437,0.718 2.404,2.18 2.404,4.163c0,2.478 -1.437,4.336 -3.469,4.782l0,0.05c0,0 0.174,0.198 0.396,0.619l3.891,7.211l-1.264,0l-4.114,-7.681l-4.98,0l0,7.681l-1.066,0l0,-17.345Z" style="fill:rgb(99,101,105);fill-rule:nonzero;"/>        </g>        <g transform="matrix(2,0,0,2,341.765,270.679)">            <path d="M0,15.91c4.238,0 7.657,-3.52 7.657,-8.079c0,-4.435 -3.419,-7.83 -7.657,-7.83c-4.237,0 -7.656,3.395 -7.656,7.83c0,4.559 3.419,8.079 7.656,8.079m0,-16.925c4.832,0 8.772,3.866 8.772,8.846c0,5.106 -3.94,9.094 -8.772,9.094c-4.831,0 -8.772,-3.988 -8.772,-9.094c0,-4.98 3.941,-8.846 8.772,-8.846" style="fill:rgb(99,101,105);fill-rule:nonzero;"/>        </g>        <g transform="matrix(2,0,0,2,382.757,300.913)">            <path d="M0,-14.323c0,0 -0.347,1.636 -0.67,2.751l-3.667,13.083l-1.337,0l-4.56,-17.345l1.114,0l3.668,14.124c0.223,0.842 0.421,1.859 0.421,1.859l0.05,0c0.025,0 0.223,-0.991 0.471,-1.859l3.964,-14.124l1.19,0l3.965,14.124c0.247,0.868 0.446,1.859 0.471,1.859l0.047,0c0,0 0.202,-1.017 0.423,-1.859l3.792,-14.124l1.114,0l-4.683,17.345l-1.337,0l-3.668,-13.083c-0.322,-1.115 -0.669,-2.751 -0.669,-2.751l-0.099,0Z" style="fill:rgb(99,101,105);fill-rule:nonzero;"/>        </g>        <g transform="matrix(2,0,0,2,419.684,271.228)">            <path d="M0,15.362c4.608,0 7.707,-2.7 7.707,-7.682c0,-4.955 -3.099,-7.681 -7.707,-7.681l-4.213,0l0,15.363l4.213,0Zm-5.277,-16.354l5.45,0c5.155,0 8.649,3.172 8.649,8.672c0,5.526 -3.494,8.674 -8.649,8.674l-5.45,0l0,-17.346Z" style="fill:rgb(99,101,105);fill-rule:nonzero;"/>        </g>        <g transform="matrix(2,0,0,2,441.547,270.73)">            <path d="M0,15.489c0,-6.122 8.921,-6.915 8.921,-11.622c0,-1.909 -1.438,-3.346 -3.62,-3.346c-2.551,0 -3.888,2.379 -3.888,2.379l-1.29,-0.867c0,0 1.585,-3.147 5.278,-3.147c3.319,0 5.302,2.155 5.302,4.881c0,5.847 -8.794,6.665 -8.82,11.299l9.093,0l0,1.537l-10.877,0c-0.075,-0.397 -0.099,-0.768 -0.099,-1.114" style="fill:rgb(99,101,105);fill-rule:nonzero;"/>        </g>        <g transform="matrix(2,0,0,2,469.403,303.935)">            <path d="M0,-17.493l9.639,0l0,2.131l-7.186,0l0,5.748l6.12,0l0,2.131l-6.12,0l0,7.483l-2.453,0l0,-17.493Z" style="fill:rgb(16,24,32);fill-rule:nonzero;"/>        </g>        <g transform="matrix(2,0,0,2,492.253,304.533)">            <path d="M0,-17.792l2.452,0l0,11.299c0,2.676 1.736,4.238 4.412,4.238c2.701,0 4.46,-1.562 4.46,-4.287l0,-11.25l2.453,0l0,11.299c0,3.892 -2.801,6.493 -6.889,6.493c-4.089,0 -6.888,-2.601 -6.888,-6.493l0,-11.299Z" style="fill:rgb(16,24,32);fill-rule:nonzero;"/>        </g>        <g transform="matrix(2,0,0,2,526.355,303.935)">            <path d="M0,-17.493l2.429,0l7.779,11.374c0.646,0.94 1.464,2.526 1.464,2.526l0.049,0c0,0 -0.174,-1.56 -0.174,-2.526l0,-11.374l2.454,0l0,17.493l-2.404,0l-7.805,-11.348c-0.644,-0.966 -1.462,-2.552 -1.462,-2.552l-0.051,0c0,0 0.175,1.561 0.175,2.552l0,11.348l-2.454,0l0,-17.493Z" style="fill:rgb(16,24,32);fill-rule:nonzero;"/>        </g>        <g transform="matrix(2,0,0,2,572.695,273.207)">            <path d="M0,13.235c3.939,0 6.518,-2.329 6.518,-6.641c0,-4.288 -2.602,-6.592 -6.518,-6.592l-3.171,0l0,13.233l3.171,0Zm-5.623,-15.364l5.796,0c5.352,0 8.872,3.197 8.872,8.723c0,5.551 -3.52,8.77 -8.872,8.77l-5.796,0l0,-17.493Z" style="fill:rgb(16,24,32);fill-rule:nonzero;"/>        </g>        <g transform="matrix(0.000188875,-2,-2,-0.000188875,200.887,275.307)">            <path d="M-5.293,-5.295c0.9,1.557 1.419,3.365 1.419,5.294c-0.002,1.931 -0.52,3.735 -1.419,5.295c-0.904,-1.561 -1.422,-3.369 -1.42,-5.296c0,-1.929 0.52,-3.735 1.42,-5.293" style="fill:rgb(207,51,57);fill-rule:nonzero;"/>        </g>        <g transform="matrix(-1.73202,-1.00006,-1.00006,1.73202,197.017,300.353)">            <path d="M-2.647,-9.876c0.901,1.559 1.419,3.364 1.418,5.295c0.001,1.928 -0.516,3.733 -1.417,5.29c-0.905,-1.555 -1.422,-3.362 -1.42,-5.288c0.001,-1.932 0.518,-3.739 1.42,-5.297" style="fill:rgb(207,51,57);fill-rule:nonzero;"/>        </g>        <g transform="matrix(0.000377786,2,2,-0.000377786,190.302,293.644)">            <path d="M5.294,-5.294c0.902,1.561 1.418,3.366 1.417,5.293c0,1.931 -0.516,3.738 -1.417,5.296c-0.903,-1.557 -1.418,-3.365 -1.418,-5.293c0,-1.93 0.516,-3.736 1.418,-5.295" style="fill:rgb(207,51,57);fill-rule:nonzero;"/>        </g>        <g transform="matrix(1.73229,0.999592,0.999592,-1.73229,175.842,300.359)">            <path d="M2.646,-0.709c0.901,1.561 1.42,3.365 1.42,5.294c0.001,1.93 -0.518,3.737 -1.42,5.294c-0.901,-1.558 -1.418,-3.365 -1.416,-5.293c-0.003,-1.929 0.515,-3.735 1.416,-5.295" style="fill:rgb(207,51,57);fill-rule:nonzero;"/>        </g>        <g transform="matrix(1.73208,0.999957,0.999957,-1.73208,207.602,318.694)">            <path d="M2.647,-0.71c0.902,1.56 1.422,3.367 1.42,5.295c-0.001,1.93 -0.519,3.737 -1.42,5.294c-0.901,-1.558 -1.418,-3.365 -1.415,-5.295c-0.003,-1.929 0.516,-3.734 1.415,-5.294" style="fill:rgb(207,51,57);fill-rule:nonzero;"/>        </g>        <g transform="matrix(1.73219,-0.999756,-0.999756,-1.73219,215.352,318.697)">            <path d="M-2.646,-0.709c0.902,1.558 1.421,3.365 1.419,5.293c0,1.929 -0.519,3.737 -1.419,5.294c-0.902,-1.558 -1.419,-3.367 -1.418,-5.293c0,-1.928 0.519,-3.735 1.418,-5.294" style="fill:rgb(207,51,57);fill-rule:nonzero;"/>        </g>        <g transform="matrix(1.73198,-1.00012,-1.00012,-1.73198,247.116,300.355)">            <path d="M-2.647,-0.71c0.901,1.56 1.419,3.366 1.42,5.294c-0.001,1.931 -0.517,3.737 -1.42,5.293c-0.902,-1.556 -1.42,-3.365 -1.418,-5.294c0,-1.927 0.518,-3.736 1.418,-5.293" style="fill:rgb(207,51,57);fill-rule:nonzero;"/>        </g>        <g transform="matrix(0.000188893,-2,-2,-0.000188893,232.656,293.642)">            <path d="M-5.294,-5.293c0.901,1.56 1.417,3.365 1.419,5.294c-0.001,1.93 -0.52,3.734 -1.419,5.294c-0.903,-1.559 -1.418,-3.367 -1.419,-5.294c0,-1.929 0.518,-3.735 1.419,-5.294" style="fill:rgb(207,51,57);fill-rule:nonzero;"/>        </g>        <g transform="matrix(-0.000188893,-2,-2,0.000188893,232.652,256.969)">            <path d="M-5.295,-5.293c0.902,1.558 1.418,3.364 1.42,5.292c-0.001,1.931 -0.516,3.736 -1.42,5.296c-0.901,-1.559 -1.418,-3.366 -1.417,-5.293c0.001,-1.93 0.517,-3.736 1.417,-5.295" style="fill:rgb(207,51,57);fill-rule:nonzero;"/>        </g>        <g transform="matrix(-1.73211,-0.999897,-0.999897,1.73211,228.775,282.02)">            <path d="M-2.648,-9.879c0.9,1.558 1.419,3.365 1.419,5.293c-0.001,1.929 -0.518,3.737 -1.419,5.295c-0.901,-1.558 -1.42,-3.366 -1.418,-5.295c0,-1.929 0.518,-3.734 1.418,-5.293" style="fill:rgb(207,51,57);fill-rule:nonzero;"/>        </g>        <g transform="matrix(-1.73208,-0.999957,-0.999957,1.73208,197.014,263.682)">            <path d="M-2.647,-9.879c0.901,1.558 1.417,3.365 1.417,5.294c0,1.929 -0.516,3.736 -1.417,5.294c-0.902,-1.558 -1.42,-3.364 -1.421,-5.293c0.002,-1.929 0.52,-3.737 1.421,-5.295" style="fill:rgb(207,51,57);fill-rule:nonzero;"/>        </g>        <g transform="matrix(-1.73212,0.999875,0.999875,1.73212,225.949,263.683)">            <path d="M2.651,-9.881c0.899,1.559 1.42,3.367 1.417,5.294c0.001,1.932 -0.518,3.738 -1.417,5.295c-0.904,-1.558 -1.42,-3.365 -1.418,-5.295c-0.001,-1.928 0.518,-3.734 1.418,-5.294" style="fill:rgb(207,51,57);fill-rule:nonzero;"/>        </g>        <g transform="matrix(-1.73198,1.00012,1.00012,1.73198,194.181,282.02)">            <path d="M2.647,-9.877c0.902,1.558 1.42,3.362 1.42,5.292c-0.004,1.932 -0.519,3.736 -1.42,5.294c-0.902,-1.557 -1.417,-3.366 -1.42,-5.293c0.002,-1.932 0.52,-3.737 1.42,-5.293" style="fill:rgb(207,51,57);fill-rule:nonzero;"/>        </g>        <g transform="matrix(0.000188947,2,2,-0.000188947,190.299,256.972)">            <path d="M5.293,-5.291c0.902,1.559 1.42,3.365 1.418,5.292c0.001,1.932 -0.517,3.737 -1.418,5.293c-0.901,-1.556 -1.421,-3.364 -1.418,-5.293c-0.001,-1.927 0.516,-3.734 1.418,-5.292" style="fill:rgb(207,51,57);fill-rule:nonzero;"/>        </g>        <g transform="matrix(-1.73216,0.999816,0.999816,1.73216,225.948,300.357)">            <path d="M2.651,-9.88c0.9,1.559 1.419,3.365 1.418,5.297c-0.001,1.929 -0.519,3.733 -1.418,5.291c-0.904,-1.557 -1.422,-3.366 -1.42,-5.293c0.001,-1.931 0.521,-3.737 1.42,-5.295" style="fill:rgb(207,51,57);fill-rule:nonzero;"/>        </g>        <g transform="matrix(-0.000188911,2,2,0.000188911,222.066,275.308)">            <path d="M5.294,-5.294c0.9,1.56 1.418,3.365 1.419,5.295c0,1.929 -0.519,3.737 -1.42,5.292c-0.903,-1.557 -1.418,-3.365 -1.419,-5.293c0.001,-1.927 0.519,-3.734 1.419,-5.294" style="fill:rgb(207,51,57);fill-rule:nonzero;"/>        </g>        <g transform="matrix(1.73193,1.0002,1.0002,-1.73193,207.602,282.017)">            <path d="M2.647,-0.71c0.902,1.559 1.42,3.365 1.42,5.294c-0.001,1.93 -0.52,3.736 -1.42,5.292c-0.903,-1.557 -1.421,-3.363 -1.42,-5.293c0.002,-1.929 0.52,-3.734 1.42,-5.293" style="fill:rgb(207,51,57);fill-rule:nonzero;"/>        </g>        <g transform="matrix(1.73198,-1.00012,-1.00012,-1.73198,215.352,282.017)">            <path d="M-2.647,-0.71c0.901,1.559 1.42,3.366 1.42,5.294c0,1.928 -0.518,3.734 -1.42,5.293c-0.902,-1.558 -1.42,-3.366 -1.418,-5.292c-0.001,-1.93 0.517,-3.736 1.418,-5.295" style="fill:rgb(207,51,57);fill-rule:nonzero;"/>        </g>    </g></svg>