<?xml version="1.0" encoding="UTF-8" standalone="no"?><!DOCTYPE svg PUBLIC "-//W3C//DTD SVG 1.1//EN" "http://www.w3.org/Graphics/SVG/1.1/DTD/svg11.dtd"><svg width="100%" height="100%" viewBox="0 0 1024 512" version="1.1" xmlns="http://www.w3.org/2000/svg" xmlns:xlink="http://www.w3.org/1999/xlink" xml:space="preserve"  style="fill-rule:evenodd;clip-rule:evenodd;stroke-linejoin:round;stroke-miterlimit:2;"><title>Lignum Capital</title><desc>We are a web platform that facilitates financing and allows you to invest in innovative companies and projects in the creation and growth phase.</desc>    <g transform="matrix(0.89371,0,0,0.89371,65.3114,-25.9871)">        <g transform="matrix(2.13878,0,0,1.57495,-337.885,-80.3643)">            <g transform="matrix(72.1855,0,0,98.0279,213.331,322.805)">                <path d="M0.035,-0.607l0,0.607l0.471,-0l0,-0.125l-0.332,0l0,-0.555l-0.069,0c-0.039,0 -0.07,0.034 -0.07,0.073Z" style="fill:rgb(2,101,124);fill-rule:nonzero;"/>            </g>            <g transform="matrix(72.1855,0,0,98.0279,251.517,322.805)">                <path d="M0.035,-0.529l0,0.529l0.133,-0l0,-0.465c0,-0.043 -0.021,-0.064 -0.064,-0.064l-0.069,0Z" style="fill:rgb(2,101,124);fill-rule:nonzero;"/>            </g>            <g transform="matrix(72.1855,0,0,98.0279,266.532,322.805)">                <path d="M0.275,-0.107c-0.072,0 -0.108,-0.051 -0.111,-0.153c-0,-0.107 0.037,-0.16 0.113,-0.16c0.076,0 0.113,0.053 0.112,0.16c-0.004,0.102 -0.042,0.153 -0.114,0.153Zm-0.037,0.117c0.066,0 0.117,-0.026 0.151,-0.078c0,0.055 0,0.054 0,0.054c0,0.082 -0.036,0.123 -0.106,0.123c-0.055,0 -0.086,-0.018 -0.095,-0.056l-0.147,0c0.031,0.112 0.107,0.168 0.227,0.168c0.169,-0.003 0.253,-0.07 0.253,-0.203l0,-0.313c0,-0.159 -0.083,-0.237 -0.248,-0.236c-0.164,0.003 -0.246,0.091 -0.246,0.267c-0,0.182 0.07,0.274 0.211,0.274Z" style="fill:rgb(2,101,124);fill-rule:nonzero;"/>            </g>            <g transform="matrix(72.1855,0,0,98.0279,306.09,322.805)">                <path d="M0.486,-0l0,-0.311c0.001,-0.151 -0.073,-0.226 -0.224,-0.226c-0.151,0 -0.227,0.075 -0.227,0.226l0,0.311l0.135,0l0,-0.338c0.001,-0.055 0.031,-0.082 0.09,-0.082c0.059,0 0.089,0.027 0.092,0.082l0,0.272c0,0.042 0.022,0.063 0.066,0.066l0.068,0Z" style="fill:rgb(2,101,124);fill-rule:nonzero;"/>            </g>            <g transform="matrix(72.1855,0,0,98.0279,344.42,322.805)">                <path d="M0.48,-0.529l-0.068,0c-0.044,0 -0.065,0.022 -0.064,0.066l0,0.279c0,0.059 -0.03,0.088 -0.09,0.088c-0.06,0 -0.09,-0.029 -0.09,-0.088l0,-0.345l-0.133,0l0,0.318c0,0.089 0.023,0.147 0.069,0.176c0.046,0.03 0.095,0.045 0.15,0.045c0.057,0 0.109,-0.014 0.156,-0.041c0.047,-0.029 0.07,-0.089 0.07,-0.18l-0,-0.318Z" style="fill:rgb(2,101,124);fill-rule:nonzero;"/>            </g>            <g transform="matrix(72.1855,0,0,98.0279,380.73,322.805)">                <path d="M0.26,-0.42c0.059,0 0.089,0.027 0.092,0.082l0,0.338l0.134,-0l0,-0.336c0.001,-0.055 0.031,-0.082 0.09,-0.082c0.059,0 0.089,0.027 0.092,0.082l0,0.272c0,0.042 0.022,0.063 0.066,0.066l0.069,-0l0,-0.311c0.001,-0.151 -0.074,-0.226 -0.225,-0.226c-0.068,-0 -0.12,0.014 -0.158,0.043c-0.038,-0.03 -0.09,-0.045 -0.158,-0.045c-0.151,-0 -0.227,0.075 -0.227,0.226l0,0.311l0.135,-0l0,-0.338c0.001,-0.055 0.031,-0.082 0.09,-0.082Z" style="fill:rgb(2,101,124);fill-rule:nonzero;"/>            </g>            <g transform="matrix(80.8076,0,0,109.737,310.975,409.816)">                <path d="M0.637,-0.236l-0.135,0c-0.015,0.075 -0.065,0.123 -0.152,0.123c-0.127,0 -0.182,-0.094 -0.182,-0.227c0,-0.137 0.057,-0.228 0.186,-0.228c0.066,0 0.111,0.025 0.134,0.074c0.013,0.027 0.035,0.041 0.065,0.041l0.084,0c-0.007,-0.074 -0.034,-0.133 -0.082,-0.176c-0.051,-0.042 -0.118,-0.062 -0.201,-0.062c-0.215,0 -0.325,0.132 -0.325,0.351c0,0.212 0.104,0.35 0.313,0.35c0.172,-0 0.282,-0.089 0.295,-0.246Z" style="fill:rgb(2,101,124);fill-rule:nonzero;"/>            </g>            <g transform="matrix(80.8076,0,0,109.737,365.035,409.816)">                <path d="M0.221,-0.098c-0.042,0 -0.064,-0.02 -0.067,-0.062c0,-0.039 0.027,-0.064 0.08,-0.074c0.039,-0.008 0.075,-0.019 0.106,-0.032l0,0.049c0,0.075 -0.045,0.119 -0.119,0.119Zm0.031,-0.33c0.055,0 0.083,0.015 0.086,0.045c0,0.029 -0.029,0.046 -0.086,0.053c-0.134,0.013 -0.226,0.047 -0.229,0.174c0,0.117 0.088,0.176 0.215,0.166c0.143,-0.01 0.231,-0.075 0.231,-0.221l0,-0.18c-0.003,-0.098 -0.077,-0.146 -0.223,-0.146c-0.122,0 -0.191,0.048 -0.207,0.146l0.133,0c0.007,-0.025 0.033,-0.037 0.08,-0.037Z" style="fill:rgb(2,101,124);fill-rule:nonzero;"/>            </g>            <g transform="matrix(80.8076,0,0,109.737,405.277,409.816)">                <path d="M0.168,0.141c0,0.044 -0.022,0.066 -0.066,0.066l-0.067,0l0,-0.506c0.007,-0.158 0.089,-0.236 0.248,-0.236c0.164,0 0.246,0.089 0.246,0.267c0,0.18 -0.07,0.273 -0.211,0.278c-0.066,-0 -0.116,-0.027 -0.15,-0.082l-0,0.213Zm0.113,-0.25c0.072,-0 0.109,-0.051 0.112,-0.153c-0,-0.107 -0.038,-0.16 -0.114,-0.16c-0.076,0 -0.112,0.053 -0.111,0.16c0.004,0.102 0.041,0.153 0.113,0.153Z" style="fill:rgb(2,101,124);fill-rule:nonzero;"/>            </g>            <g transform="matrix(80.8076,0,0,109.737,450.206,409.816)">                <path d="M0.035,-0.529l0,0.529l0.133,-0l0,-0.465c0,-0.043 -0.021,-0.064 -0.064,-0.064l-0.069,0Z" style="fill:rgb(2,101,124);fill-rule:nonzero;"/>            </g>            <g transform="matrix(80.8076,0,0,109.737,499.533,409.816)">                <path d="M0.221,-0.098c-0.042,0 -0.064,-0.02 -0.067,-0.062c0,-0.039 0.027,-0.064 0.08,-0.074c0.039,-0.008 0.075,-0.019 0.106,-0.032l0,0.049c0,0.075 -0.045,0.119 -0.119,0.119Zm0.031,-0.33c0.055,0 0.083,0.015 0.086,0.045c0,0.029 -0.029,0.046 -0.086,0.053c-0.134,0.013 -0.226,0.047 -0.229,0.174c0,0.117 0.088,0.176 0.215,0.166c0.143,-0.01 0.231,-0.075 0.231,-0.221l0,-0.18c-0.003,-0.098 -0.077,-0.146 -0.223,-0.146c-0.122,0 -0.191,0.048 -0.207,0.146l0.133,0c0.007,-0.025 0.033,-0.037 0.08,-0.037Z" style="fill:rgb(2,101,124);fill-rule:nonzero;"/>            </g>            <g transform="matrix(80.8076,0,0,109.737,541.392,409.816)">                <path d="M0.104,-0.68l-0.069,0l0,0.68l0.133,-0l0,-0.615c0,-0.035 -0.029,-0.065 -0.064,-0.065Z" style="fill:rgb(2,101,124);fill-rule:nonzero;"/>            </g>            <g transform="matrix(0.467556,0,0,0.634941,157.98,51.0266)">                <path d="M212.697,339.403c0,0 3.793,-8.468 10.206,-9.723c6.413,-1.255 20.125,-6.679 22.781,-14.058c2.446,-6.796 0.569,-15.066 -2.556,-16.743c-3.125,-1.678 -10.977,0.632 -17.759,5.733c-6.204,4.665 -12.032,24.474 -12.032,24.474c-0,0 4.112,-21.562 11.594,-26.813c10.043,-7.048 14.703,-6.226 14.703,-6.226c0,0 -7.776,-4.007 -13.066,-2.281c-5.289,1.725 -12.611,6.542 -16.959,21.675c-2.095,7.294 3.088,23.962 3.088,23.962Z" style="fill:rgb(99,178,193);"/>            </g>            <g transform="matrix(0.467556,0,0,0.634941,355.696,131.75)">                <path d="M212.697,339.403c0,0 3.793,-8.468 10.206,-9.723c6.413,-1.255 20.125,-6.679 22.781,-14.058c2.446,-6.796 0.569,-15.066 -2.556,-16.743c-3.125,-1.678 -10.977,0.632 -17.759,5.733c-6.204,4.665 -12.032,24.474 -12.032,24.474c-0,0 4.112,-21.562 11.594,-26.813c10.043,-7.048 14.703,-6.226 14.703,-6.226c0,0 -7.776,-4.007 -13.066,-2.281c-5.289,1.725 -12.611,6.542 -16.959,21.675c-2.095,7.294 3.088,23.962 3.088,23.962Z" style="fill:rgb(99,178,193);"/>            </g>        </g>        <g>            <path d="M681.292,89.808c0.713,2.702 0.961,4.334 0.961,4.334c-0,-0 -0.381,-1.699 -0.961,-4.334c-1.851,-7.023 -6.84,-21.278 -18.774,-32.895c-16.525,-16.085 -48.154,-21.18 -48.154,-21.18c-0,-0 -0.225,33.883 9.577,44.742c9.802,10.859 36.197,31.391 45.397,36.37c9.2,4.979 24.376,15.209 28.402,25.313c4.026,10.103 11.249,45.892 11.249,45.892c0,0 -11.098,-30.676 -18.481,-38.309c-7.384,-7.633 -23.967,-17.591 -28.865,-18.524c-4.899,-0.933 -3.971,-3.88 -3.971,-3.88c-0,0 -9.976,-16.219 -10.897,-18.259c-0.921,-2.039 -14.26,5.498 -16.514,11.759c-2.253,6.26 -4.254,14.565 -4.254,14.565l-1.389,-26.188c-0,0 -16.456,6.416 -20.523,14.748c-4.067,8.332 -5.806,16.377 -5.806,16.377c0,0 -3.369,-9.67 -1.22,-16.008c2.148,-6.337 8.097,-17.048 13.928,-19.038c5.832,-1.989 16,-3.738 16,-3.738l1.526,-4.424l-6.486,-0.824c-0,-0 -11.929,2.486 -14.381,3.572c-2.452,1.087 2.972,-3.749 4.506,-8.009c1.534,-4.26 -1.704,-17.978 -3.974,-18.373c-2.269,-0.394 -4.964,0.761 -8.145,7.306c-3.182,6.545 -3.7,17.359 -1.584,20.539c2.116,3.181 1.918,4.036 1.918,4.036c0,0 -3.488,3.918 -5.133,7.438c-0.956,2.047 -1.223,3.171 -1.279,3.753c0.021,0.364 0.029,0.557 0.029,0.557c0,0 -0.069,-0.138 -0.029,-0.557c-0.088,-1.56 -0.411,-6.263 -1.35,-12.427c-1.157,-7.602 -19.542,-39.968 -19.542,-39.968c0,-0 -13.835,15.068 -11.824,27.002c1.787,10.604 5.078,19.775 8.415,24.018c1.732,1.671 2.694,2.634 1.256,1.358c-0.418,-0.371 -0.837,-0.826 -1.256,-1.358c-2.772,-2.677 -7.517,-7.168 -7.517,-7.168c-0,-0 -9.715,-10.883 -10.993,-16.926c-1.277,-6.043 -4.228,-6.273 -4.228,-6.273l-2.469,2.138l1.205,8.656l6.282,9.719c-0,-0 -4.079,-1.887 -8.303,-2.392c-4.223,-0.505 -19.684,-0.013 -22.534,1.942c-2.85,1.955 -3.977,5.38 -0.201,8.397c3.776,3.017 22.355,9.858 28.75,10.277c6.394,0.419 19.456,2.271 19.456,2.271l7.882,7.414l11.012,11.514l-0.728,6.473c0,0 -15.653,-8.672 -29.658,-12.502c-14.006,-3.83 -31.539,-4.817 -31.539,-4.817c-0,0 2.547,20.292 8.107,27.191c5.561,6.899 8.441,11.24 8.441,11.24c-0,0 -5.14,0.882 -5.745,4.882c-0.606,3.999 -1.825,9.137 -0.316,14.633c1.509,5.495 4.239,16.688 4.239,16.688c-0,-0 -5.063,-9.953 -9.635,-12.629c-4.572,-2.675 -12.537,-3.805 -12.537,-3.805c-0,0 -2.114,12.262 -0.55,15.734c1.564,3.472 4.135,11.591 7.665,15.163c3.531,3.571 5.849,8.213 17.191,14.213c11.341,6.001 18.121,8.736 18.121,8.736l1.741,5.245l-13.004,-4.039c-0,0 -35.238,-6.559 -41.485,-5.866c-6.247,0.694 -8.01,0.756 -8.01,0.756c0,-0 0.892,9.676 10.258,15.197c9.367,5.521 32.698,20.645 42.059,22.217c9.361,1.571 18.95,4.55 25.186,4.102c6.235,-0.448 7.158,0.112 7.158,0.112l8.303,11.279c2.839,0.519 0.665,0.903 0.665,0.903l-0.665,-0.903c-1.303,-0.239 -3.664,-0.506 -7.777,-0.778c-13.07,-0.863 -28.96,0.804 -34.095,2.186c-5.136,1.383 -11.331,4.284 -11.331,4.284c-0,-0 6.159,14.859 19.529,20.568c13.369,5.709 31.339,10.961 45.636,11.264c14.297,0.304 29.761,-3.404 29.761,-3.404l17.238,9.978c-0,-0 -21.092,-1.597 -26.216,-1.64c-5.124,-0.043 -24.751,3.896 -24.751,3.896c-0,-0 9.437,12.321 21.584,18.325c12.146,6.005 19.499,11.185 27.228,12.046c7.729,0.862 13.57,2.144 22.523,0.644c8.952,-1.5 15.286,-4.704 15.286,-4.704l18.708,10.44c0,-0 35.075,-8.03 45.866,-25.246c10.791,-17.215 3.331,-4.703 3.331,-4.703c-0,0 -1.957,7.272 11.318,6.928c13.275,-0.343 29.72,-2.644 39.582,-9.61c9.863,-6.966 18.328,-13.638 22.277,-14.823c3.95,-1.185 3.23,-2.205 3.23,-2.205c-0,-0 -9.444,-9.344 -22.154,-7.537c-12.709,1.807 -12.329,0.291 -23.403,5.534c-11.073,5.244 -16.461,7.338 -16.461,7.338c-0,0 31.023,-16.798 39.978,-23.828c8.955,-7.031 20.703,-16.851 20.703,-16.851c-0,-0 1.298,-1.417 8.495,-1.067c7.196,0.35 11.674,-1.713 16.262,-4.403c4.588,-2.69 11.9,-7.212 15.124,-11.787c3.224,-4.574 6.089,-10.423 4.773,-11.344c-1.316,-0.921 -10.843,0.239 -16.309,2.524c-5.467,2.284 -13.827,7.648 -13.827,7.648c0,0 14.115,-26.164 14.665,-35.92c0.55,-9.755 -2.027,-15.503 -2.685,-15.339c-0.658,0.165 -1.908,0.362 -2.336,2.533c-0.428,2.172 0.696,11.257 -1.87,13.626c-2.566,2.369 -8.666,25.688 -14.676,31.932c-6.009,6.244 -8.148,8.645 -8.148,8.645c0,0 3.674,-8.08 3.573,-17.416c-0.102,-9.335 -3.193,-12.523 -2.107,-16.01c1.085,-3.487 -20.198,4.995 -24.05,19.344c-3.853,14.349 -6.585,35.185 -6.663,36.917c-0.078,1.731 -25.736,15.54 -25.736,15.54c0,-0 11.234,-11.318 20.982,-36.076c9.749,-24.758 4.446,-25.268 15.207,-31.595c10.761,-6.327 25.784,-14.066 35.58,-23.422c9.797,-9.355 13.941,-19.02 13.698,-25.648c-0.242,-6.629 -1.098,-7.715 -1.098,-7.715c0,0 -15.726,1.335 -21.423,5.468c-0.894,0.648 -2.123,1.693 -3.562,3.003c-0.352,0.46 -0.787,0.852 -1.285,1.186c-7.392,6.92 -18.757,19.005 -20.525,21.927c-0.216,0.569 -0.305,0.767 -0.222,0.455c0.03,-0.109 0.105,-0.262 0.222,-0.455c1.306,-3.45 7.235,-20.539 7.235,-20.539c-0,-0 8.984,1.504 13.29,-1.388l0.867,-0.804l0.418,-0.382c3.397,-4.446 16.382,-13.82 17.569,-18.27c1.187,-4.45 -4.216,-7.948 -10.38,-5.577c-6.163,2.372 -14.561,8.452 -14.561,8.452c0,0 14.035,-18.855 20.886,-22.94c6.851,-4.084 12.956,-7.212 12.956,-7.212l-3.774,-3.624l-12.634,5.077c-0,0 1.688,-3.074 -1.155,-8.096c-2.844,-5.022 -5.881,-5.019 -5.881,-5.019c0,-0 -9.158,23.112 -8.572,26.8c0.587,3.688 -5.652,11.257 -5.652,11.257c0,0 1.547,-15.609 0.344,-28.827c-1.203,-13.218 -2.224,-16.525 -2.224,-16.525c0,0 6.634,-7.788 7.869,-15.894c1.235,-8.105 1.153,-19.278 1.153,-19.278c-0,-0 -8.834,-1.491 -10.346,4.174c-1.512,5.665 -0.89,22.015 -0.89,22.015c-0,0 -8.648,-24.076 -18.452,-29.155c-9.804,-5.079 -3.558,-0.038 -3.558,-0.038c-0,0 -4.597,15.027 0.189,24.211c4.785,9.184 8.502,16.529 14.388,22.676c5.887,6.147 5.803,3.222 5.757,10.257c-0.046,7.035 0.053,9.21 0.053,9.21c-0,0 -8.771,-19.301 -14.021,-24.129c-5.25,-4.828 -12.031,-5.954 -12.031,-5.954c0,0 -10.292,15.996 -6.175,39.43c4.117,23.435 8.252,28.478 13.762,32.269c5.51,3.79 8.184,5.571 8.184,5.571l-10.543,34.247c-0,-0 1.044,-25.704 -5.137,-39.204c-6.18,-13.501 -24.739,-28.722 -24.739,-28.722c-0,-0 -7.155,13.726 -7.462,17.452c-0.306,3.726 -1.752,3.792 -1.752,3.792c-0,-0 -17.033,11.202 -19.464,18.759c-2.43,7.556 -3.417,9.3 -3.417,9.3l2.769,-19.818c-0,-0 -0.548,-1.738 9.965,-12.422c10.514,-10.684 20.261,-23.583 25.074,-33.688c4.813,-10.106 10.337,-34.801 7.605,-55.154c-2.732,-20.354 -9.081,-33.054 -9.081,-33.054c0,0 -26.61,13.03 -32.827,46.931c-0.513,2.8 -0.948,5.2 -1.312,7.243l-0.64,4.367l-1.853,-13.816c0,-0 2.975,-7.649 6.612,-20.25c3.636,-12.602 2.259,-30.871 -0.671,-39.434c-2.929,-8.562 -4.35,-11.288 -4.35,-11.288c-0,-0 -12.891,4.435 -13.675,12.79c-0.784,8.355 -1.554,12.867 -1.554,12.867c-0,0 -1.546,-6.765 -6.605,-12.613c-5.059,-5.848 -11.701,-11.832 -16.702,-11.939c-5.001,-0.108 -4.258,-1.964 -4.258,-1.964c-0,-0 -8.333,-15.621 -12.744,-17.467c-4.41,-1.847 -6.067,26.954 -4.226,36.781c1.264,6.743 3.481,16.983 4.748,22.745Zm-46.173,205.058c-0,-0 11.525,10.7 12.179,17.181c0.655,6.482 1.012,15.431 1.012,15.431l12.066,5.966c-0,-0 -3.061,-12.765 -3.953,-17.747c-0.893,-4.981 -1.608,-6.619 -1.608,-6.619l-8.572,-12.882l-11.124,-1.33Zm110.951,-42.976c-0,-0 16.831,-8.157 18.472,-12.353c1.641,-4.197 1.01,7.1 7.35,14.409c6.339,7.31 16.96,20.767 16.96,20.767l-4.872,13.917c-0,0 -1.61,-13.444 -4.194,-18.301c-2.584,-4.857 -3.638,-6.109 -3.638,-6.109c0,-0 -16.109,11.854 -16.435,19.89c-0.325,8.036 -1.062,13.941 -1.062,13.941c-0,0 -10.233,0.869 -17.997,8.969c-7.763,8.1 -16.689,20.404 -16.689,20.404l-2.539,-11.67c0,0 20.975,-15.507 27.916,-23.723c6.941,-8.217 18.47,-28.963 18.536,-31.167c0.066,-2.205 1.029,-6.033 -1.756,-10.194c-5.584,-0.938 -20.052,1.22 -20.052,1.22Zm-69.17,-5.563c0,0 2.997,9.214 2.288,14.386c-0.708,5.171 -1.797,9.652 -1.797,9.652l4.386,13.795c-0,-0 1.524,-12.913 4.66,-12.166c3.136,0.747 7.155,2.882 7.478,11.577c0.324,8.695 -4.938,23.356 -4.938,23.356l3.494,15.285c-0,0 3.972,-23.343 5.131,-27.603c1.159,-4.26 1.696,-11.229 1.696,-11.229c0,0 -0.567,-8.358 -6.416,-14.28c-5.849,-5.922 -15.982,-22.773 -15.982,-22.773Zm-90.463,27.015c-0,-0 9.904,12.269 18.051,19.808c8.147,7.538 19.236,16.64 19.236,16.64c-0,0 -7.034,-7.304 -6.823,-13.146c0.211,-5.841 0.926,-7.539 0.926,-7.539l-31.39,-15.763Zm49.676,-9.251l17.968,28.118c-0,-0 -6.234,-13.225 -7.657,-26.27c-1.423,-13.044 0.059,-23.091 0.685,-29.909c0.627,-6.818 1.64,-7.741 1.64,-7.741c-0,0 -13.675,-30.482 -23.295,-38.362c-9.619,-7.879 -13.465,-18.452 -13.465,-18.452l-2.928,0.76c-0,0 -1.035,1.653 5.784,10.597c6.82,8.945 8.88,7.091 13.25,15.014c4.37,7.922 5.636,4.969 9.987,20.254c4.352,15.286 3.883,16.594 2.92,24.802c-0.963,8.207 -4.085,16.67 -4.085,16.67l-0.804,4.519Zm76.794,-11.854c-0,0 -1.315,21.114 -3.069,24.058c-1.755,2.945 -1.636,3.004 -1.636,3.004c0,0 7.384,-10.445 9.661,-11.729c2.276,-1.284 -4.956,-15.333 -4.956,-15.333Zm-125.201,-26.71c0,-0 0.579,4.042 -0.255,7.587c-0.834,3.544 -2.018,7.317 -2.018,7.317c-0,-0 11.921,0.888 17.292,3.7c5.37,2.812 15.245,10.31 15.245,10.31l-6.329,-12.664c0,-0 -7.081,-2.682 -12.843,-6.248c-5.761,-3.566 -11.092,-10.002 -11.092,-10.002Zm138.465,-1.613l-8.846,8.463l8.196,8.549l0.65,-17.012Zm-166.722,-39.216c-0,0 4.82,9.099 2.927,17.417c-1.893,8.317 -6.883,19.602 -6.883,19.602l7.479,15.624c-0,0 -3.484,-12.15 -0.69,-20.552c2.795,-8.402 6.511,-19.944 9.998,-19.617c3.486,0.328 6.384,4.171 6.384,4.171c-0,-0 1.7,-1.692 5.727,-0.481c4.026,1.212 8.837,4.344 11.291,8.486c2.455,4.142 4.528,7.821 4.528,7.821l-5.843,-18.637c-0,0 -9.739,-1.121 -17.335,-4.173c-7.595,-3.051 -17.583,-9.661 -17.583,-9.661Zm97.569,-1.508c0,0 -5.312,11.148 -5.662,17.645c-0.349,6.497 2.243,15.009 2.243,15.009l4.098,-4.824c0,-0 12.105,6.333 12.621,11.743c0.516,5.409 0.903,6.542 0.903,6.542l3.551,-13.815c-0,0 12.273,2.638 16.988,8.211c4.715,5.573 8.136,11.093 8.136,11.093c-0,-0 -4.821,-14.794 -18.064,-24.84c-13.243,-10.046 -13.673,-9.073 -17.202,-14.344c-3.529,-5.272 -7.612,-12.42 -7.612,-12.42Zm-51.474,17.095c0,0 8.127,26.882 12.2,31.943c4.073,5.061 -2.678,-5.614 -0.049,-16.093c2.629,-10.479 3.823,-13.609 7.106,-14.713c3.283,-1.104 2.419,-2.385 2.419,-2.385c-0,0 -8.067,0.877 -13.298,0.731c-5.23,-0.145 -8.378,0.517 -8.378,0.517Zm-57.186,-23.821l4.685,4.106c-0,0 -3.478,4.166 -4.321,9.581c-0.844,5.416 -0.689,18.397 -0.689,18.397c-0,0 -3.973,-8.231 -4.737,-17.421c-0.765,-9.19 -3.362,-10.965 0.533,-13.262c3.894,-2.297 4.529,-1.401 4.529,-1.401Zm158.446,-66.302c-0,0 -0.902,11.993 -2.176,14.295c-1.274,2.301 9.915,0.593 14.077,7.601c4.162,7.008 11.722,30.191 11.983,35.861c0.261,5.67 -1.806,5.401 -1.806,5.401l-17.089,-14.367l6.228,37.435c0,-0 2.432,-15.618 8.568,-18.65c6.135,-3.032 5.862,-9.813 5.862,-9.813l2.379,-8.624l-4.594,-26.45c0,0 -4.825,-6.83 -8.89,-10.582c-4.065,-3.752 -14.542,-12.107 -14.542,-12.107Zm-81.334,38.603c0,0 -2.232,8.453 -0.802,15.999c1.43,7.546 7.469,19.352 7.469,19.352l-16.412,-18.933l9.745,-16.418Zm71.327,-92.826c0,0 6.27,11.887 6.562,16.827c0.293,4.941 -0.032,12.242 -0.032,12.242c-0,-0 12.004,3.023 14.082,7.629c2.078,4.607 8.059,15.149 8.059,15.149c0,0 -3.325,-22.665 -9.798,-31.704c-6.473,-9.04 -18.873,-20.143 -18.873,-20.143Z" style="fill:rgb(99,178,193);"/>            <path d="M697.301,348.887l9.113,-6.106l8.638,5.468l0.849,64.214c0,0 9.942,0.616 13.946,0.589c4.003,-0.026 17.869,1.428 19.349,-0.513c1.481,-1.941 4.345,7.393 4.345,7.393l0.678,3.446c-0,0 -11.152,4.615 -16.678,4.326c-5.525,-0.29 -9.302,-1.873 -15.22,-0.053c-5.918,1.821 -7.464,3.663 -7.464,3.663l5.523,103.579c-0,-0 0.879,14.542 5.949,18.611c5.07,4.068 13.343,12.742 13.343,12.742l5.275,4.744c0,0 -5.925,-3.344 -24.137,0.846c-18.212,4.191 -31.325,9.428 -34.342,5.929c-3.017,-3.498 2.209,-7.43 -3.208,-7.616c-5.417,-0.186 -21.459,4.927 -20.544,1.078c0.915,-3.85 13.244,-8.338 16.349,-14.199c3.105,-5.861 16.096,-112.917 13.211,-118.404c-2.885,-5.487 2.031,-8.155 -5.57,-10.389c-7.601,-2.235 -32.745,-11.134 -36.37,-15.334c-3.625,-4.2 -7.547,-6.749 -7.547,-6.749l2.922,-7.76c0,0 28.473,15.755 33.532,14.49c5.06,-1.264 12.084,-2.447 13.907,-5.32c1.822,-2.873 4.151,-58.675 4.151,-58.675Z" style="fill:rgb(2,101,124);"/>        </g>    </g></svg>