<?xml version="1.0" encoding="UTF-8" standalone="no"?><!DOCTYPE svg PUBLIC "-//W3C//DTD SVG 1.1//EN" "http://www.w3.org/Graphics/SVG/1.1/DTD/svg11.dtd"><svg width="100%" height="100%" viewBox="0 0 1024 512" version="1.1" xmlns="http://www.w3.org/2000/svg" xmlns:xlink="http://www.w3.org/1999/xlink" xml:space="preserve" style="fill-rule:evenodd;clip-rule:evenodd;stroke-linejoin:round;stroke-miterlimit:2;"><title>Ethic Investors</title><desc>Ethic Investors is a real estate investment company whose purpose is to offer the maximum profitability of the market through the purchase, reform and subsequent sale of real estate throughout the national territory.</desc>    <g id="Group-4-Copy" transform="matrix(1.90705,0,0,1.90666,1.64682,114.794)">        <g id="Group-6-Copy" transform="matrix(1,0,0,1,0.043588,0.024256)">            <path id="Combined-Shape" d="M95.281,100.649l10.332,-7.182l16.533,11.843l-59.672,42.624l-62.332,-44.439l0,-61.676l61.915,-41.683l59.983,42.871l-59.588,43.124l-27.441,-19.631l10.441,-7.453l16.606,12.032l39.618,-27.846l-39.708,-28.293l-49.296,34.763l0,48.109l49.75,35.527l38.861,-28.481l-6.002,-4.209Z" style="fill:rgb(51,51,51);fill-rule:nonzero;"/>            <path id="Path-7-Copy" d="M93.957,69.847l10.267,-7.627l17.816,12.776l-59.581,42.311l-28.129,-19.703l10.346,-7.506l17.761,12.572l39.201,-27.674l-7.681,-5.149Z" style="fill:rgb(17,183,132);"/>        </g>        <g transform="matrix(1,0,0,1,164.801,100.944)">            <g id="Group-3">                <g id="Group-11">                    <g id="Combined-Shape1" transform="matrix(1,0,0,1,-164.801,-100.944)">                        <path d="M205.987,39.742l-28.6,0l0,10.587l23.493,0l0,12.127l-23.493,0l0,10.635l28.6,0l0,12.127l-40.858,0l0,-57.602l40.858,0l0,12.126Zm89.007,0l-16.343,0l0,45.476l-12.258,0l0,-45.476l-17.364,0l0,-12.126l45.965,0l0,12.126Zm240.048,33.83c-2.647,3.567 -5.968,6.4 -9.964,8.498c-3.996,2.099 -8.403,3.148 -13.219,3.148c-3.97,0 -7.701,-0.761 -11.195,-2.282c-3.493,-1.522 -6.536,-3.581 -9.13,-6.177c-2.593,-2.597 -4.644,-5.64 -6.153,-9.129c-1.508,-3.488 -2.263,-7.226 -2.263,-11.213c0,-3.987 0.755,-7.725 2.263,-11.214c1.509,-3.489 3.56,-6.531 6.153,-9.128c2.594,-2.597 5.637,-4.656 9.13,-6.177c3.494,-1.522 7.225,-2.282 11.195,-2.282c4.816,0 9.223,1.049 13.219,3.147c3.996,2.099 7.317,4.932 9.964,8.499l-10.361,7.297c-1.474,-2.19 -3.37,-3.941 -5.688,-5.251c-2.318,-1.31 -4.864,-1.965 -7.638,-1.965c-2.253,0 -4.366,0.451 -6.338,1.353c-1.971,0.902 -3.694,2.126 -5.167,3.673c-1.474,1.546 -2.644,3.35 -3.511,5.412c-0.866,2.061 -1.3,4.273 -1.3,6.636c0,2.362 0.434,4.574 1.3,6.636c0.867,2.062 2.037,3.866 3.511,5.412c1.473,1.546 3.196,2.77 5.167,3.672c1.972,0.902 4.085,1.353 6.338,1.353c2.774,0 5.32,-0.655 7.638,-1.965c2.318,-1.31 4.214,-3.06 5.688,-5.251l10.361,7.298Zm-184.825,-23.243l22.39,0l0,-22.713l12.213,0l0,57.602l-12.213,0l0,-22.762l-22.39,0l0,22.762l-12.213,0l0,-57.602l12.213,0l0,22.713Zm89.694,34.889l-11.917,0l0,-48.975l11.917,-8.627l0,57.602Z" style="fill:rgb(51,51,51);"/>                    </g>                    <rect id="investors" x="0.18" y="0.47" width="2.827" height="20.976" style="fill:rgb(51,51,51);"/>                    <path id="Path" d="M46.297,21.446l-10.651,-16.222l0,16.222l-2.826,0l0,-20.976l2.826,0l10.695,16.265l0,-16.265l2.797,0l0,20.976l-2.841,0Z" style="fill:rgb(51,51,51);"/>                    <path id="Path1"  d="M97.369,0.47l-7.854,20.976l-2.506,0l-7.839,-20.976l3.075,0l6.003,17.288l6.046,-17.288l3.075,0Z" style="fill:rgb(51,51,51);"/>                    <path id="Path2"  d="M140.639,19.198l0,2.248l-13.477,0l0,-20.976l13.331,0l0,2.261l-10.505,0l0,6.757l9.165,0l0,2.248l-9.165,0l0,7.462l10.651,0Z" style="fill:rgb(51,51,51);"/>                    <path id="Path3"  d="M178.174,12.067c-2.244,-0.644 -3.949,-1.448 -5.114,-2.413c-1.166,-0.965 -1.749,-2.221 -1.749,-3.768c0,-1.085 0.299,-2.06 0.896,-2.924c0.598,-0.864 1.443,-1.544 2.535,-2.039c1.093,-0.494 2.349,-0.742 3.767,-0.742c1.544,0 2.882,0.293 4.014,0.879c1.132,0.586 1.996,1.364 2.593,2.334c0.598,0.97 0.896,2.012 0.896,3.126l-2.841,0c0,-1.229 -0.393,-2.216 -1.18,-2.96c-0.787,-0.745 -1.947,-1.117 -3.482,-1.117c-1.428,0 -2.511,0.312 -3.249,0.937c-0.739,0.624 -1.108,1.445 -1.108,2.463c0,0.596 0.17,1.119 0.51,1.571c0.34,0.451 0.87,0.859 1.588,1.224c0.719,0.365 1.666,0.711 2.842,1.037c1.632,0.452 2.955,0.97 3.97,1.556c1.015,0.586 1.768,1.275 2.258,2.068c0.491,0.792 0.736,1.731 0.736,2.816c0,1.124 -0.303,2.111 -0.91,2.961c-0.608,0.85 -1.47,1.505 -2.587,1.966c-1.117,0.461 -2.418,0.692 -3.904,0.692c-1.351,0 -2.64,-0.247 -3.869,-0.742c-1.229,-0.495 -2.227,-1.222 -2.994,-2.183c-0.767,-0.96 -1.151,-2.108 -1.151,-3.443l2.827,0c0,0.922 0.235,1.69 0.706,2.305c0.471,0.615 1.098,1.071 1.88,1.369c0.782,0.298 1.649,0.446 2.601,0.446c1.447,0 2.569,-0.297 3.365,-0.893c0.797,-0.595 1.195,-1.412 1.195,-2.449c0,-0.682 -0.143,-1.251 -0.43,-1.707c-0.286,-0.456 -0.789,-0.869 -1.508,-1.239c-0.719,-0.37 -1.753,-0.747 -3.103,-1.131Z" style="fill:rgb(51,51,51);"/>                    <path id="Path4"  d="M232.152,2.731l-6.804,0l0,18.715l-2.797,0l0,-18.715l-6.79,0l0,-2.261l16.391,0l0,2.261Z" style="fill:rgb(51,51,51);"/>                    <path id="Path5"  d="M361.935,12.067c-2.244,-0.644 -3.948,-1.448 -5.114,-2.413c-1.166,-0.965 -1.748,-2.221 -1.748,-3.768c0,-1.085 0.298,-2.06 0.896,-2.924c0.597,-0.864 1.442,-1.544 2.535,-2.039c1.093,-0.494 2.348,-0.742 3.766,-0.742c1.545,0 2.883,0.293 4.014,0.879c1.132,0.586 1.996,1.364 2.594,2.334c0.597,0.97 0.896,2.012 0.896,3.126l-2.841,0c0,-1.229 -0.394,-2.216 -1.18,-2.96c-0.787,-0.745 -1.948,-1.117 -3.483,-1.117c-1.428,0 -2.511,0.312 -3.249,0.937c-0.738,0.624 -1.107,1.445 -1.107,2.463c0,0.596 0.17,1.119 0.51,1.571c0.34,0.451 0.869,0.859 1.588,1.224c0.719,0.365 1.666,0.711 2.841,1.037c1.632,0.452 2.955,0.97 3.97,1.556c1.016,0.586 1.768,1.275 2.259,2.068c0.49,0.792 0.736,1.731 0.736,2.816c0,1.124 -0.304,2.111 -0.911,2.961c-0.607,0.85 -1.469,1.505 -2.586,1.966c-1.117,0.461 -2.419,0.692 -3.905,0.692c-1.35,0 -2.64,-0.247 -3.868,-0.742c-1.229,-0.495 -2.227,-1.222 -2.995,-2.183c-0.767,-0.96 -1.151,-2.108 -1.151,-3.443l2.827,0c0,0.922 0.236,1.69 0.707,2.305c0.471,0.615 1.097,1.071 1.879,1.369c0.782,0.298 1.649,0.446 2.601,0.446c1.447,0 2.569,-0.297 3.366,-0.893c0.796,-0.595 1.194,-1.412 1.194,-2.449c0,-0.682 -0.143,-1.251 -0.429,-1.707c-0.287,-0.456 -0.79,-0.869 -1.508,-1.239c-0.719,-0.37 -1.754,-0.747 -3.104,-1.131Z" style="fill:rgb(51,51,51);"/>                    <path id="Combined-Shape2"  d="M279.188,11.635c0,2.074 -0.348,3.87 -1.042,5.388c-0.695,1.517 -1.683,2.682 -2.965,3.493c-1.282,0.812 -2.783,1.218 -4.502,1.218c-1.671,0 -3.155,-0.408 -4.451,-1.225c-1.297,-0.816 -2.307,-1.985 -3.031,-3.508c-0.724,-1.522 -1.086,-3.311 -1.086,-5.366l0,-1.34c0,-2.055 0.36,-3.847 1.079,-5.374c0.718,-1.527 1.724,-2.699 3.016,-3.515c1.292,-0.816 2.773,-1.225 4.444,-1.225c1.719,0 3.222,0.409 4.509,1.225c1.287,0.816 2.28,1.986 2.98,3.508c0.699,1.522 1.049,3.316 1.049,5.381l0,1.34Zm-2.798,-1.369c0,-1.652 -0.226,-3.057 -0.677,-4.214c-0.452,-1.157 -1.108,-2.034 -1.967,-2.629c-0.86,-0.596 -1.892,-0.893 -3.096,-0.893c-1.156,0 -2.166,0.3 -3.031,0.9c-0.864,0.6 -1.53,1.479 -1.996,2.637c-0.466,1.157 -0.699,2.557 -0.699,4.199l0,1.369c0,1.652 0.235,3.059 0.706,4.221c0.471,1.162 1.139,2.043 2.004,2.644c0.864,0.6 1.879,0.9 3.045,0.9c1.826,0 3.234,-0.668 4.225,-2.003c0.991,-1.335 1.486,-3.255 1.486,-5.762l0,-1.369Z" style="fill:rgb(51,51,51);"/>                    <path id="Combined-Shape3"  d="M324.478,21.273l0,0.173l-3.031,0l-4.604,-8.5l-4.939,0l0,8.5l-2.827,0l0,-20.976l7.023,0c2.399,0 4.24,0.54 5.522,1.62c1.282,1.081 1.923,2.639 1.923,4.675c0,1.297 -0.356,2.433 -1.07,3.407c-0.714,0.975 -1.708,1.708 -2.98,2.197l4.983,8.904Zm-8.305,-10.575c0.971,0 1.797,-0.173 2.477,-0.518c0.68,-0.346 1.192,-0.817 1.537,-1.412c0.345,-0.596 0.517,-1.263 0.517,-2.003c0,-1.268 -0.379,-2.257 -1.136,-2.968c-0.758,-0.71 -1.914,-1.066 -3.468,-1.066l-4.196,0l0,7.967l4.269,0Z" style="fill:rgb(51,51,51);"/>                </g>            </g>        </g>    </g></svg>