<?xml version="1.0" encoding="UTF-8" standalone="no"?><!DOCTYPE svg PUBLIC "-//W3C//DTD SVG 1.1//EN" "http://www.w3.org/Graphics/SVG/1.1/DTD/svg11.dtd"><svg width="100%" height="100%" viewBox="0 0 1024 512" version="1.1" xmlns="http://www.w3.org/2000/svg" xmlns:xlink="http://www.w3.org/1999/xlink" xml:space="preserve" style="fill-rule:evenodd;clip-rule:evenodd;stroke-linejoin:round;stroke-miterlimit:2;"><title>LendingWorks</title><desc>Lending Works is the UK’s leading disrupter in providing of personal loans through partnerships. Using innovative technology, Lending Works enables partner firms to provide their customers with access to credit products quickly and simply, resulting in game-changing customer experience. Current partners include leading FinTechs, retailers and intermediaries including Revolut, Asda Money, Moneysupermarket, Clearscore, Experian and many others.</desc>    <g id="lendingworks-512x256.svg" transform="matrix(2.21764,0,0,2.21764,-55.7738,-27.8692)">        <path d="M85.79,93.75c6.127,-0.027 12.252,0.26 18.35,0.86c3.3,0.37 6.12,2.94 6.36,5.75c1.1,15.17 -0.73,41.22 -24.58,48.44c-23.85,-7.22 -25.69,-33.27 -24.71,-48.44c0.24,-2.81 3.06,-5.5 6.24,-5.75c6.098,-0.597 12.223,-0.884 18.35,-0.86m0,-5.14c-6.36,0 -12.72,0.37 -18.84,1c-5.63,0.61 -10.4,5 -10.76,10.4c-1.1,15.66 0.73,46.23 29.6,53.94l0.12,0c29,-7.83 30.7,-38.28 29.6,-53.94c-0.37,-5.5 -5.26,-9.91 -10.89,-10.4c-6.259,-0.651 -12.547,-0.985 -18.84,-1l0.01,0Z" style="fill:rgb(117,168,219);fill-rule:nonzero;"/>        <path d="M70.87,152.71c-3.957,4.493 -9.117,7.762 -14.87,9.42c-23.85,-7.22 -25.69,-33.27 -24.71,-48.44c0.24,-2.81 3.06,-5.5 6.24,-5.75c4.28,-0.49 8.81,-0.73 13.33,-0.86c0,-1.71 0,-3.3 0.12,-5c-4.77,0.12 -9.42,0.37 -13.94,0.86c-5.63,0.61 -10.4,5 -10.76,10.4c-1.1,15.78 0.73,46.23 29.6,54.06l0.12,0c7.55,-1.854 14.32,-6.056 19.33,-12c-1.546,-0.794 -3.036,-1.693 -4.46,-2.69Z" style="fill:rgb(159,187,78);fill-rule:nonzero;"/>        <path d="M408.82,133.26c0.013,1.85 -0.361,3.683 -1.1,5.38c-0.689,1.642 -1.687,3.135 -2.94,4.4c-2.741,2.589 -6.379,4.023 -10.15,4c-1.928,0.045 -3.845,-0.309 -5.63,-1.04c-1.666,-0.716 -3.198,-1.71 -4.53,-2.94c-1.253,-1.265 -2.251,-2.758 -2.94,-4.4c-0.739,-1.697 -1.113,-3.53 -1.1,-5.38c-0.029,-3.701 1.41,-7.267 4,-9.91c2.741,-2.589 6.379,-4.023 10.15,-4c1.932,-0.026 3.849,0.349 5.63,1.1c1.666,0.716 3.198,1.71 4.53,2.94c2.59,2.643 4.029,6.209 4,9.91l0.08,-0.06Zm-3.79,0c0.006,-1.458 -0.241,-2.906 -0.73,-4.28c-0.472,-1.261 -1.178,-2.421 -2.08,-3.42c-0.966,-0.948 -2.081,-1.732 -3.3,-2.32c-1.359,-0.555 -2.812,-0.847 -4.28,-0.86c-1.473,-0.034 -2.935,0.259 -4.28,0.86c-1.244,0.545 -2.366,1.334 -3.3,2.32c-0.914,0.994 -1.615,2.165 -2.06,3.44c-0.978,2.769 -0.978,5.791 0,8.56c0.446,1.262 1.124,2.428 2,3.44c0.92,1.002 2.046,1.793 3.3,2.32c1.341,0.613 2.806,0.907 4.28,0.86c1.473,0.034 2.935,-0.259 4.28,-0.86c1.219,-0.588 2.334,-1.372 3.3,-2.32c0.944,-0.967 1.655,-2.137 2.08,-3.42c0.494,-1.387 0.751,-2.848 0.76,-4.32l0.03,0Z" style="fill:rgb(77,77,79);fill-rule:nonzero;"/>        <path d="M430.84,122.25c-0.24,0.24 -0.37,0.49 -0.61,0.73c-0.288,0.367 -0.777,0.515 -1.22,0.37c-0.49,-0.12 -1,-0.37 -1.59,-0.49c-1.081,-0.257 -2.189,-0.382 -3.3,-0.37c-1.243,-0.052 -2.485,0.114 -3.67,0.49c-0.941,0.307 -1.786,0.856 -2.45,1.59c-0.639,0.743 -1.1,1.622 -1.35,2.57c-0.257,1.166 -0.381,2.356 -0.37,3.55l0,15.17c0,0.549 -0.451,1 -1,1l-1.47,0c-0.549,0 -1,-0.451 -1,-1l0,-16.76c-0.158,-2.699 0.869,-5.338 2.81,-7.22c1.83,-1.71 4.65,-2.57 8.19,-2.57c1.65,-0.017 3.295,0.188 4.89,0.61l1.83,0.73c0.338,0.186 0.549,0.543 0.549,0.929c0,0.245 -0.084,0.482 -0.239,0.671Z" style="fill:rgb(77,77,79);fill-rule:nonzero;"/>        <path d="M133.13,147.08l23.48,0c0.549,0 1,-0.451 1,-1l0,-4.89c0,-0.549 -0.451,-1 -1,-1l-16,0l0,-30.05c0,-0.549 -0.451,-1 -1,-1l-5.38,0c-0.549,0 -1,0.451 -1,1l0,36.94l-0.1,0Z" style="fill:rgb(77,77,79);fill-rule:nonzero;"/>        <path d="M204.31,125.8c1.59,-0.122 3.155,0.46 4.28,1.59c1.059,1.355 1.583,3.054 1.47,4.77l0,13.94c0,0.549 0.451,1 1,1l5.14,0c0.549,0 1,-0.451 1,-1l0,-15.9c0.001,-1.603 -0.34,-3.189 -1,-4.65c-0.647,-1.316 -1.564,-2.481 -2.69,-3.42c-1.253,-0.933 -2.662,-1.637 -4.16,-2.08c-3.312,-0.978 -6.838,-0.978 -10.15,0c-1.488,0.468 -2.892,1.171 -4.16,2.08c-1.154,0.912 -2.075,2.084 -2.69,3.42c-0.66,1.461 -1.001,3.047 -1,4.65l0,15.9c0,0.549 0.451,1 1,1l5.14,0c0.549,0 1,-0.451 1,-1l0,-13.94c-0.05,-5.26 3.13,-6.36 5.82,-6.36Z" style="fill:rgb(77,77,79);fill-rule:nonzero;"/>        <path d="M253.73,116c0.789,0.752 1.852,1.149 2.94,1.1c1.085,0.03 2.141,-0.365 2.94,-1.1c0.791,-0.772 1.232,-1.835 1.22,-2.94c0.044,-1.111 -0.402,-2.187 -1.22,-2.94c-0.786,-0.77 -1.84,-1.207 -2.94,-1.22c-1.111,-0.044 -2.187,0.402 -2.94,1.22c-1.462,1.673 -1.462,4.197 0,5.87l0,0.01Z" style="fill:rgb(77,77,79);fill-rule:nonzero;"/>        <path d="M253.12,120.42l0,25.68c0,0.549 0.451,1 1,1l5.14,0c0.549,0 1,-0.451 1,-1l0,-25.68c0,-0.549 -0.451,-1 -1,-1l-5.16,0c-0.49,-0.1 -0.98,0.39 -0.98,1Z" style="fill:rgb(77,77,79);fill-rule:nonzero;"/>        <path d="M277.34,125.8c1.59,-0.122 3.155,0.46 4.28,1.59c1.059,1.355 1.583,3.054 1.47,4.77l0,13.94c0,0.549 0.451,1 1,1l5.14,0c0.549,0 1,-0.451 1,-1l0,-15.9c0.001,-1.603 -0.34,-3.189 -1,-4.65c-0.647,-1.316 -1.564,-2.481 -2.69,-3.42c-1.253,-0.933 -2.662,-1.637 -4.16,-2.08c-3.312,-0.978 -6.838,-0.978 -10.15,0c-1.488,0.468 -2.892,1.171 -4.16,2.08c-1.154,0.912 -2.075,2.084 -2.69,3.42c-0.66,1.461 -1.001,3.047 -1,4.65l0,15.9c0,0.549 0.451,1 1,1l5.14,0c0.549,0 1,-0.451 1,-1l0,-13.94c0.07,-5.26 3.25,-6.36 5.82,-6.36Z" style="fill:rgb(77,77,79);fill-rule:nonzero;"/>        <path d="M453,140c-3.11,-2.845 -6.422,-5.462 -9.91,-7.83c0.24,-0.12 0.86,-0.49 1.59,-0.86c0.73,-0.37 1.59,-1 2.57,-1.71c0.98,-0.71 2.08,-1.35 3.18,-2.08l3.3,-2.2c1.1,-0.73 2.08,-1.47 3.06,-2.08c0.49,-0.37 1,-0.73 1.35,-1c0.435,-0.359 0.539,-0.991 0.24,-1.47l-0.73,-1c-0.184,-0.287 -0.502,-0.461 -0.843,-0.461c-0.228,0 -0.449,0.078 -0.627,0.221c-0.889,0.731 -1.828,1.399 -2.81,2c-1.71,1.1 -3.3,2.2 -4.89,3.3c-1.59,1.1 -3.18,2.08 -4.53,2.94c-1.35,0.86 -2.45,1.59 -3.42,2.2c-0.58,0.414 -1.192,0.782 -1.83,1.1l0,-20.93c0,-0.549 -0.451,-1 -1,-1l-1.47,0c-0.549,0 -1,0.451 -1,1l0,35.86c0,0.549 0.451,1 1,1l1.47,0c0.549,0 1,-0.451 1,-1l0,-10.54c-0.001,-0.018 -0.001,-0.036 -0.001,-0.054c0,-0.548 0.451,-1 1,-1c0.212,0 0.419,0.068 0.591,0.194c1,0.61 2,1.35 3.06,2.08c1.541,1.042 3.011,2.184 4.4,3.42c1.47,1.22 2.69,2.32 3.91,3.55c1.22,1.23 2.08,2.08 2.94,3.06c0.184,0.216 0.447,0.349 0.73,0.37l1.83,0c0.586,-0.009 1.063,-0.494 1.063,-1.08c0,-0.226 -0.071,-0.446 -0.203,-0.63c-1.533,-1.917 -3.211,-3.712 -5.02,-5.37Z" style="fill:rgb(77,77,79);fill-rule:nonzero;"/>        <path d="M249,110.14c0,-0.002 0,-0.003 0,-0.005c0,-0.549 -0.451,-1 -1,-1c-0.033,0 -0.067,0.002 -0.1,0.005l-5.38,0c-0.549,0 -1,0.451 -1,1l0,10.76c-2.67,-1.38 -5.717,-1.854 -8.68,-1.35c-5.997,1.149 -10.605,6.054 -11.38,12.11c-0.057,0.511 -0.086,1.025 -0.086,1.54c0,7.558 6.208,13.781 13.766,13.8c2.311,0.014 4.586,-0.575 6.6,-1.71l0,0.71c0,0.549 0.451,1 1,1l5.14,0c0.549,0 1,-0.451 1,-1l0.12,-35.86Zm-7.58,24.58c-0.579,2.349 -2.421,4.191 -4.77,4.77c-0.471,0.11 -0.952,0.165 -1.435,0.165c-3.462,0 -6.31,-2.848 -6.31,-6.31c0,-0.483 0.055,-0.964 0.165,-1.435c0.579,-2.349 2.421,-4.191 4.77,-4.77c0.458,-0.104 0.926,-0.156 1.396,-0.156c3.461,0 6.31,2.848 6.31,6.31c0,0.483 -0.056,0.965 -0.166,1.436l0.04,-0.01Z" style="fill:rgb(77,77,79);fill-rule:nonzero;"/>        <path d="M322.1,142.68l0,-22.26c0,-0.549 -0.451,-1 -1,-1l-5.1,0c-0.549,0 -1,0.451 -1,1l0,0.73c-2.019,-1.12 -4.291,-1.709 -6.6,-1.71c-0.025,0 -0.05,0 -0.075,0c-7.582,0 -13.82,6.238 -13.82,13.82c0,7.581 6.238,13.82 13.82,13.82c2.242,0 4.451,-0.546 6.435,-1.59l0,1c-0.022,0.931 -0.419,1.815 -1.1,2.45c-0.571,0.627 -1.356,1.02 -2.2,1.1l-0.24,0c-0.24,0 -7.83,-0.12 -10.64,-0.12c-0.555,0.031 -1.016,0.451 -1.1,1l0,5.38c0.031,0.555 0.451,1.016 1,1.1c2.81,0 10.64,0.12 10.64,0.12l0.24,0c2.853,-0.096 5.566,-1.277 7.58,-3.3c2.12,-2.051 3.313,-4.881 3.3,-7.83l-0.14,-3.71Zm-13.82,-3.18c-3.489,0 -6.36,-2.871 -6.36,-6.36c0,-3.489 2.871,-6.36 6.36,-6.36c3.348,0.019 6.146,2.659 6.36,6l0,0.61c-0.211,3.361 -2.993,6.034 -6.36,6.11Z" style="fill:rgb(77,77,79);fill-rule:nonzero;"/>        <path d="M381.67,109l-1.59,0c-0.468,-0.046 -0.901,0.27 -1,0.73l-10.64,32l-10.26,-20.33c-0.13,-0.363 -0.475,-0.607 -0.86,-0.61l-1.83,0c-0.385,0.003 -0.73,0.247 -0.86,0.61l-10.27,20.43l-10.76,-32c-0.144,-0.43 -0.547,-0.724 -1,-0.73l-1.6,0c-0.021,-0.001 -0.043,-0.002 -0.064,-0.002c-0.549,0 -1,0.451 -1,1c0,0.12 0.022,0.239 0.064,0.352l11.86,36c0.144,0.43 0.547,0.724 1,0.73l2,0c0.413,-0.025 0.789,-0.254 1,-0.61l10.64,-21.28l10.64,21.28c0.166,0.397 0.571,0.644 1,0.61l2,0c0.468,0.046 0.901,-0.27 1,-0.73l11.86,-36c0.004,-0.04 0.005,-0.08 0.005,-0.12c0,-0.73 -0.6,-1.33 -1.33,-1.33c-0.001,0 -0.003,0 -0.005,0Z" style="fill:rgb(77,77,79);fill-rule:nonzero;"/>        <path d="M184.62,137.91l-5.87,0c-0.258,0.025 -0.508,0.107 -0.73,0.24c-1.282,1.22 -3,1.879 -4.77,1.83c-2.688,0.035 -5.15,-1.543 -6.24,-4l19.08,0c0.603,0 1.1,-0.497 1.1,-1.1l0,-1.88c0,-7.581 -6.239,-13.82 -13.82,-13.82c-7.581,0 -13.82,6.239 -13.82,13.82c0.002,7.585 6.245,13.826 13.83,13.826c5.206,0 9.989,-2.94 12.34,-7.586c0.28,-0.48 -0.24,-1.33 -1.1,-1.33Zm-11.38,-11.62c2.972,0.059 5.611,1.966 6.6,4.77l-13.21,0.12c0.936,-2.868 3.604,-4.839 6.62,-4.89l-0.01,0Z" style="fill:rgb(77,77,79);fill-rule:nonzero;"/>        <path d="M486,139.25c-0.059,-1.821 -0.853,-3.543 -2.2,-4.77c-1.912,-1.428 -4.215,-2.237 -6.6,-2.32l-5.63,-0.61c-1.822,-0.077 -3.593,-0.625 -5.14,-1.59c-0.507,-0.346 -0.864,-0.871 -1,-1.47c-0.251,-0.535 -0.377,-1.119 -0.37,-1.71c-0.022,-0.74 0.192,-1.469 0.61,-2.08c0.484,-0.582 1.062,-1.079 1.71,-1.47c0.823,-0.378 1.685,-0.666 2.57,-0.86c1.054,-0.145 2.116,-0.226 3.18,-0.24c0.985,0.009 1.967,0.089 2.94,0.24c0.49,0 0.86,0.12 1.22,0.12c1.16,0.2 2.303,0.487 3.42,0.86c0.8,0.266 1.577,0.601 2.32,1c0.12,0.12 0.24,0.12 0.37,0.24c0.13,0.12 0.24,0.12 0.37,0.24c0.268,0.111 0.58,0.008 0.73,-0.24l1,-1.83c0.111,-0.268 0.008,-0.58 -0.24,-0.73l-0.73,-0.37c-0.851,-0.446 -1.755,-0.782 -2.69,-1c-1.1,-0.37 -2.45,-0.61 -3.91,-1l-0.12,0c-0.658,-0.143 -1.327,-0.223 -2,-0.24l-0.61,0c-0.61,0 -1.35,-0.12 -2,-0.12l-0.49,0c-1.894,-0.013 -3.783,0.192 -5.63,0.61c-1.325,0.319 -2.573,0.901 -3.67,1.71c-0.867,0.63 -1.556,1.474 -2,2.45c-0.389,0.887 -0.596,1.842 -0.61,2.81l0,0.24c0.059,1.821 0.853,3.543 2.2,4.77c1.912,1.428 4.215,2.237 6.6,2.32l5.63,0.61c1.822,0.077 3.593,0.625 5.14,1.59c0.507,0.346 0.864,0.871 1,1.47c0.251,0.535 0.377,1.119 0.37,1.71c0.022,0.74 -0.192,1.469 -0.61,2.08c-0.484,0.582 -1.062,1.079 -1.71,1.47c-0.823,0.378 -1.685,0.666 -2.57,0.86c-1.054,0.145 -2.116,0.226 -3.18,0.24c-0.985,-0.009 -1.967,-0.089 -2.94,-0.24c-0.37,0 -0.86,-0.12 -1.22,-0.12c-1.16,-0.2 -2.303,-0.487 -3.42,-0.86c-0.8,-0.266 -1.577,-0.601 -2.32,-1c-0.12,-0.12 -0.24,-0.12 -0.37,-0.24c-0.13,-0.12 -0.24,-0.12 -0.37,-0.24c-0.268,-0.111 -0.58,-0.008 -0.73,0.24l-1,1.83c-0.111,0.268 -0.008,0.58 0.24,0.73l0.73,0.37c0.851,0.446 1.755,0.782 2.69,1c1.1,0.37 2.45,0.61 3.91,1l0.12,0c0.658,0.143 1.327,0.223 2,0.24l0.61,0c0.61,0 1.35,0.12 2,0.12l0.49,0c1.894,0.013 3.783,-0.192 5.63,-0.61c1.325,-0.319 2.573,-0.901 3.67,-1.71c0.867,-0.63 1.556,-1.474 2,-2.45c0.389,-0.887 0.596,-1.842 0.61,-2.81l0,-0.24Z" style="fill:rgb(77,77,79);fill-rule:nonzero;"/>    </g></svg>