<?xml version="1.0" encoding="UTF-8" standalone="no"?><!DOCTYPE svg PUBLIC "-//W3C//DTD SVG 1.1//EN" "http://www.w3.org/Graphics/SVG/1.1/DTD/svg11.dtd"><svg width="100%" height="100%" viewBox="0 0 1024 512" version="1.1" xmlns="http://www.w3.org/2000/svg" xmlns:xlink="http://www.w3.org/1999/xlink" xml:space="preserve" style="fill-rule:evenodd;clip-rule:evenodd;stroke-linejoin:round;stroke-miterlimit:2;"><title>Bricklane</title><desc>Bricklane enables investors to efficiently and flexibly access the UK’s largest asset class – residential property. Since 2016, Bricklane has enabled thousands of customers to invest in diversified, geographically focused residential property portfolios, tax-efficiently in their ISAs and pensions.</desc>    <g transform="matrix(1.67006,0,0,1.67006,-117.676,54.0176)">        <path d="M294.4,157.221l-12.822,0l0,-71.958l13.02,0l0,28.425c2.187,-3.479 7.554,-6.659 14.81,-6.659c14.312,0 22.561,11.032 22.561,25.543c0,14.809 -9.144,25.841 -23.058,25.841c-6.759,0 -11.927,-2.981 -14.511,-7.156l0,5.964Zm24.35,-24.55c0,-8.945 -5.367,-13.815 -12.125,-13.815c-6.66,0 -12.225,4.87 -12.225,13.815c0,8.846 5.565,13.915 12.225,13.915c6.758,0 12.125,-4.97 12.125,-13.915Zm51.165,-24.549c-0.994,-0.099 -1.988,-0.199 -3.081,-0.199c-4.175,0 -10.933,1.193 -13.915,7.653l0,-7.255l-12.821,0l0,48.9l13.219,0l0,-22.363c0,-10.535 5.864,-13.815 12.622,-13.815c1.193,0 2.485,0.099 3.976,0.397l0,-13.318Zm20.254,49.099l0,-48.9l-13.219,0l0,48.9l13.219,0Zm-14.809,-64.901c0,4.373 3.677,8.05 8.15,8.05c4.572,0 8.15,-3.677 8.15,-8.05c0,-4.572 -3.578,-8.25 -8.15,-8.25c-4.473,0 -8.15,3.678 -8.15,8.25Zm48.58,26.735c6.56,0 9.641,4.174 10.834,8.249l11.827,-3.975c-2.087,-8.25 -9.641,-16.499 -22.959,-16.499c-14.213,0 -25.344,10.833 -25.344,25.941c0,15.008 11.33,25.941 25.742,25.941c13.02,0 20.673,-8.349 22.859,-16.499l-11.628,-3.876c-1.094,3.776 -4.473,8.249 -11.231,8.249c-6.759,0 -12.523,-4.97 -12.523,-13.815c0,-8.846 5.665,-13.716 12.423,-13.716Zm77.801,-10.734l-17.294,0l-16.896,18.188l0,-41.246l-13.219,0l0,71.958l13.219,0l0,-12.921l5.467,-5.765l12.92,18.686l16.201,0l-19.978,-28.325l19.58,-20.575Zm19.061,48.9l0,-71.958l-13.218,0l0,71.958l13.218,0Zm8.527,-13.319c0,-8.746 6.46,-13.616 14.61,-14.809l12.026,-1.789c2.783,-0.397 3.678,-1.789 3.678,-3.478c0,-3.479 -2.684,-6.361 -8.25,-6.361c-5.764,0 -8.945,3.677 -9.342,7.951l-11.728,-2.485c0.795,-7.653 7.852,-16.101 20.971,-16.101c15.505,0 21.269,8.746 21.269,18.586l0,24.052c0,2.584 0.299,6.063 0.597,7.753l-12.126,0c-0.298,-1.292 -0.497,-3.976 -0.497,-5.864c-2.484,3.876 -7.156,7.255 -14.411,7.255c-10.436,0 -16.797,-7.057 -16.797,-14.71Zm19.58,4.871c5.565,0 10.734,-2.684 10.734,-11.331l0,-2.187l-11.033,1.69c-3.379,0.497 -6.062,2.385 -6.062,6.162c0,2.883 2.087,5.666 6.361,5.666Zm46.464,-19.68c0,-5.665 3.38,-10.137 9.144,-10.137c6.361,0 9.045,4.273 9.045,9.74l0,28.525l13.219,0l0,-30.811c0,-10.734 -5.566,-19.381 -17.692,-19.381c-5.267,0 -11.131,2.286 -14.113,7.355l0,-6.063l-12.821,0l0,48.9l13.218,0l0,-28.128Zm52.159,-1.888l21.866,0c-0.199,-4.87 -3.38,-9.641 -10.933,-9.641c-6.858,0 -10.635,5.168 -10.933,9.641Zm23.158,12.722l11.032,3.28c-2.485,8.448 -10.237,15.505 -22.263,15.505c-13.418,0 -25.245,-9.641 -25.245,-26.14c0,-15.604 11.529,-25.742 24.052,-25.742c15.107,0 24.152,9.641 24.152,25.344c0,1.889 -0.199,3.877 -0.199,4.075l-34.985,0c0.298,6.461 5.764,11.132 12.324,11.132c6.162,0 9.541,-3.081 11.132,-7.454Zm-465.741,-81.457l2.84,0l0,124.947l-2.84,0l0,-124.947Zm-133.214,69.141l15.158,0l0,7.579l-15.158,0l0,-7.579Zm55.582,0l15.158,0l0,7.579l-15.158,0l0,-7.579Zm-24.002,-16.675l0,-15.158l7.58,0l0,15.158l-7.58,0Zm0,55.835l0,-15.159l7.58,0l0,15.159l-7.58,0Zm-28.672,-20.984l13.127,-7.579l3.79,6.564l-13.128,7.579l-3.789,-6.564Zm48.134,-27.79l13.127,-7.58l3.79,6.564l-13.128,7.579l-3.789,-6.563Zm-1.206,45.912l-7.579,-13.127l6.564,-3.79l7.578,13.128l-6.563,3.789Zm-35.323,-3.836l7.579,-13.127l6.564,3.789l-7.58,13.128l-6.563,-3.79Zm27.791,-48.134l7.579,-13.126l6.564,3.789l-7.579,13.127l-6.564,-3.79Zm21.912,40.365l-13.128,-7.579l3.79,-6.564l13.127,7.58l-3.789,6.563Zm-64.216,-38.588l15.158,0l0,7.579l-15.158,0l0,-7.579Zm-0.075,-13.895l15.159,0l0,7.578l-15.159,0l0,-7.578Zm0,-13.896l15.159,0l0,7.579l-15.159,0l0,-7.579Zm0,-13.895l15.159,0l0,7.579l-15.159,0l0,-7.579Z" style="fill:rgb(76,175,80);fill-rule:nonzero;"/>    </g></svg>