<?xml version="1.0" encoding="UTF-8" standalone="no"?><!DOCTYPE svg PUBLIC "-//W3C//DTD SVG 1.1//EN" "http://www.w3.org/Graphics/SVG/1.1/DTD/svg11.dtd"><svg width="100%" height="100%" viewBox="0 0 1024 512" version="1.1" xmlns="http://www.w3.org/2000/svg" xmlns:xlink="http://www.w3.org/1999/xlink" xml:space="preserve" style="fill-rule:evenodd;clip-rule:evenodd;stroke-linejoin:round;stroke-miterlimit:2;"><title>SPEAR</title><desc>SPEAR is a cooperative that allows companies and associations wishing to carry out a responsible project to benefit from a full range of services. In particular, SPEAR offers them access to an advantageous bank loan thanks to the support of a community of spaniards in solidarity.</desc>    <g transform="matrix(3.13316,0,0,2.95651,-185.148,141.234)">        <g>            <g transform="matrix(83.3162,0,0,83.3162,129.561,67.8204)">                <path d="M0.522,-0.184c0,0.027 -0.005,0.053 -0.015,0.077c-0.011,0.024 -0.026,0.045 -0.046,0.062c-0.02,0.017 -0.044,0.031 -0.073,0.041c-0.029,0.01 -0.061,0.015 -0.098,0.015c-0.048,0 -0.092,-0.009 -0.133,-0.028c-0.04,-0.018 -0.074,-0.041 -0.102,-0.069l0.052,-0.058c0.027,0.025 0.055,0.046 0.086,0.061c0.031,0.015 0.064,0.023 0.1,0.023c0.047,0 0.083,-0.011 0.11,-0.032c0.028,-0.021 0.041,-0.051 0.041,-0.088c0,-0.016 -0.003,-0.031 -0.008,-0.044c-0.005,-0.013 -0.015,-0.026 -0.027,-0.037c-0.013,-0.011 -0.031,-0.023 -0.052,-0.033c-0.021,-0.011 -0.048,-0.023 -0.08,-0.034c-0.038,-0.013 -0.07,-0.027 -0.095,-0.04c-0.026,-0.014 -0.047,-0.029 -0.062,-0.044c-0.016,-0.016 -0.027,-0.034 -0.034,-0.053c-0.007,-0.019 -0.011,-0.042 -0.011,-0.067c0,-0.028 0.005,-0.053 0.016,-0.075c0.011,-0.022 0.026,-0.041 0.045,-0.056c0.019,-0.016 0.042,-0.028 0.069,-0.036c0.027,-0.008 0.056,-0.012 0.089,-0.012c0.047,0 0.087,0.007 0.12,0.02c0.033,0.013 0.064,0.032 0.093,0.055l-0.05,0.061c-0.025,-0.021 -0.051,-0.037 -0.076,-0.049c-0.026,-0.011 -0.057,-0.016 -0.092,-0.016c-0.024,0 -0.045,0.003 -0.062,0.008c-0.017,0.006 -0.031,0.014 -0.042,0.023c-0.011,0.009 -0.019,0.02 -0.024,0.032c-0.005,0.013 -0.008,0.026 -0.008,0.04c0,0.015 0.002,0.028 0.006,0.039c0.004,0.012 0.012,0.023 0.024,0.034c0.012,0.012 0.029,0.022 0.051,0.033c0.021,0.011 0.05,0.022 0.085,0.035c0.039,0.014 0.071,0.028 0.097,0.042c0.026,0.014 0.047,0.029 0.063,0.046c0.015,0.017 0.026,0.035 0.033,0.055c0.007,0.02 0.01,0.043 0.01,0.069Z" style="fill:rgb(38,36,91);fill-rule:nonzero;"/>            </g>            <g transform="matrix(83.3162,0,0,83.3162,176.46,67.8204)">                <path d="M0.577,-0.491c0,0.035 -0.006,0.066 -0.017,0.092c-0.012,0.028 -0.028,0.05 -0.049,0.069c-0.021,0.018 -0.046,0.032 -0.075,0.041c-0.029,0.009 -0.061,0.014 -0.096,0.014l-0.17,0l0,0.275l-0.078,0l0,-0.7l0.262,0c0.032,0 0.062,0.004 0.089,0.013c0.027,0.008 0.05,0.021 0.07,0.038c0.02,0.017 0.036,0.039 0.047,0.066c0.011,0.026 0.017,0.057 0.017,0.092Zm-0.078,0.003c0,-0.045 -0.013,-0.08 -0.038,-0.105c-0.025,-0.024 -0.062,-0.036 -0.11,-0.036l-0.181,0l0,0.283l0.171,0c0.105,0 0.158,-0.047 0.158,-0.142Z" style="fill:rgb(38,36,91);fill-rule:nonzero;"/>            </g>            <g transform="matrix(83.3162,0,0,83.3162,227.949,67.8204)">                <path d="M0.092,0l0,-0.7l0.423,0l0,0.071l-0.345,0l0,0.22l0.2,0l0,0.071l-0.2,0l0,0.267l0.36,0l0,0.071l-0.438,0Z" style="fill:rgb(38,36,91);fill-rule:nonzero;"/>            </g>            <g transform="matrix(83.3162,0,0,83.3162,280.493,67.8204)">                <path d="M0.543,0l-0.06,-0.178l-0.289,0l-0.061,0.178l-0.08,0l0.243,-0.7l0.086,0l0.243,0.7l-0.082,0Zm-0.161,-0.479c-0.004,-0.011 -0.008,-0.024 -0.013,-0.037c-0.004,-0.013 -0.008,-0.026 -0.012,-0.038c-0.004,-0.013 -0.007,-0.024 -0.01,-0.035c-0.004,-0.011 -0.006,-0.021 -0.008,-0.028c-0.002,0.007 -0.004,0.016 -0.007,0.027c-0.003,0.011 -0.007,0.022 -0.011,0.035c-0.004,0.013 -0.008,0.026 -0.013,0.04l-0.09,0.266l0.241,0l-0.077,-0.23Z" style="fill:rgb(38,36,91);fill-rule:nonzero;"/>            </g>            <g transform="matrix(83.3162,0,0,83.3162,336.375,67.8204)">                <path d="M0.587,-0.502c0,0.055 -0.015,0.099 -0.045,0.132c-0.03,0.033 -0.07,0.055 -0.12,0.066l0.154,0.304l-0.09,0l-0.15,-0.298l-0.166,0l0,0.298l-0.078,0l0,-0.7l0.277,0c0.031,0 0.059,0.004 0.086,0.012c0.027,0.008 0.05,0.02 0.069,0.037c0.019,0.016 0.035,0.036 0.046,0.061c0.011,0.025 0.017,0.054 0.017,0.088Zm-0.078,0.003c0,-0.043 -0.012,-0.076 -0.037,-0.097c-0.024,-0.022 -0.059,-0.033 -0.106,-0.033l-0.196,0l0,0.261l0.186,0c0.052,0 0.09,-0.011 0.115,-0.032c0.025,-0.022 0.038,-0.055 0.038,-0.099Z" style="fill:rgb(38,36,91);fill-rule:nonzero;"/>            </g>        </g>        <g>            <g transform="matrix(0.606104,0,0,0.642319,59.8264,4.83245)">                <path d="M105.459,17.192c0,-6.505 -5.281,-11.786 -11.786,-11.786l-82.043,0c-6.505,0 -11.786,5.281 -11.786,11.786l0,71.438c0,6.505 5.281,11.786 11.786,11.786l82.043,0c6.505,0 11.786,-5.281 11.786,-11.786l0,-71.438Z" style="fill:rgb(38,36,91);"/>            </g>            <g transform="matrix(0.606104,0,0,0.642319,59.8264,4.83245)">                <path d="M56.763,56.154c-2.508,-0.484 -4.685,-1.131 -6.862,-1.816l0,14.05c0,0 -4.395,2 -9.796,2c-5.946,0 -9.912,-2 -9.912,-2l0,-16.458c-1.713,0.461 -3.413,1.117 -5.007,1.818c-5.435,2.392 -9.71,5.534 -9.71,5.534l-6.179,-8.383c0,0 11.677,-8.34 22.499,-9.813l0,-0.747c0,-4.17 3.386,-7.555 7.555,-7.555c4.17,0 7.555,3.385 7.555,7.555l0,2.241c2.084,0.536 3.945,1.136 5.792,1.72c1.928,0.61 3.837,1.198 6.077,1.625l0,-1.437c0,-4.17 3.385,-7.555 7.555,-7.555c4.169,0 7.555,3.385 7.555,7.555l0,0.74c8.495,-2.822 15.215,-9.082 15.215,-9.082l7.009,7.704c0,0 -8.687,7.76 -19.638,11.356l0,15.233c0,0 -4.396,2 -9.796,2c-5.947,0 -9.912,-2 -9.912,-2l0,-14.285Z" style="fill:rgb(235,235,235);"/>            </g>        </g>    </g></svg>