<?xml version="1.0" encoding="UTF-8" standalone="no"?><!DOCTYPE svg PUBLIC "-//W3C//DTD SVG 1.1//EN" "http://www.w3.org/Graphics/SVG/1.1/DTD/svg11.dtd"><svg width="100%" height="100%" viewBox="0 0 1024 512" version="1.1" xmlns="http://www.w3.org/2000/svg" xmlns:xlink="http://www.w3.org/1999/xlink" xml:space="preserve" style="fill-rule:evenodd;clip-rule:evenodd;stroke-linejoin:round;stroke-miterlimit:2;"><title>Edebex</title><desc>Edebex is an online marketplace where companies can quickly and easily sell their client invoices to investors. This means that they will receive their money in a few days, without waiting for the due date of the invoice. Also investors are making a good deal as this investment provides them with a significant higher return than other investments on the market with a limited risk.And now, thanks to our great group of members, we have already pre-financed more than 300 million € of invoices in 6 years of activity.</desc>    <g transform="matrix(2.16761,0,0,2.16761,-597.814,-298.907)">        <path d="M741.245,324.592l-39.266,0l-10.313,-30.859l7.367,-21.941l7.437,18.908c3.217,0.533 6.384,0.808 9.5,0.808c3.117,0 6.413,-0.275 9.892,-0.808l-15.913,-35.692l13.371,-33.421c-3.212,-0.529 -6.462,-0.804 -9.754,-0.804c-3.571,0 -6.992,0.275 -10.296,0.804l-4.825,15.266l0.004,0.014l-5.87,18.541l5.866,-18.555l-6.766,-19.561l10.3,-29.875l32.021,-0.007l7.395,-0.002c3.271,0 5.888,2.709 5.888,5.975l-0.021,125.292c0,3.262 -2.746,5.917 -6.017,5.917Z" style="fill:rgb(145,200,78);"/>        <g transform="matrix(0.980132,0,0,1.06681,12.6225,-21.6871)">            <path d="M686.437,241.052l13.287,1.296l0.005,0.013l-0.005,-0.013l4.923,-14.309c3.371,-0.496 6.862,-0.754 10.505,-0.754c3.358,0 6.674,0.258 9.952,0.754l-13.642,31.327l16.235,33.457c-3.55,0.5 -6.912,0.757 -10.092,0.757c-3.18,0 -6.411,-0.257 -9.693,-0.757l-7.588,-17.725l-14.565,1.191l-0.002,-0.008l0.002,0.008l-7.021,16.537c-3.278,0.496 -6.5,0.754 -9.688,0.754c-3.176,0 -6.539,-0.258 -10.088,-0.754l16.094,-33.461l-13.501,-31.327c2.997,-0.496 6.313,-0.754 9.948,-0.754c3.46,0 6.963,0.258 10.504,0.754l4.43,13.014Z" style="fill:white;"/>        </g>        <g transform="matrix(4.16667,0,0,4.16667,691.677,293.731)">            <path d="M0,-18.345l-1.502,4.362l0.385,1.234l1.108,3.552l-1.652,4.234l0,0.002l1.658,4.961l0.745,-2.216l1.023,-3.049l-1.548,-3.932l1.408,-4.451l-0.001,-0.003l0,0.004l-1.407,4.45l1.407,-4.453l-1.624,-4.695Z" style="fill:rgb(56,161,72);fill-rule:nonzero;"/>        </g>        <path d="M521.609,187.408l18.871,0l-0.025,40.874c1.337,-2.42 3.562,-4.404 6.679,-5.954c3.121,-1.571 6.692,-2.337 10.696,-2.337c4.012,0 7.729,0.704 11.162,2.129c3.429,1.425 6.4,3.592 8.9,6.483c2.484,2.904 4.45,6.525 5.871,10.9c1.429,4.367 2.138,9.529 2.138,15.505c0,5.799 -0.888,10.987 -2.667,15.574c-1.783,4.592 -4.371,8.488 -7.754,11.701c-3.4,3.208 -7.529,5.674 -12.434,7.416c-4.912,1.738 -10.425,2.6 -16.579,2.6c-1.954,0 -4.029,-0.087 -6.208,-0.258c-2.188,-0.192 -4.396,-0.425 -6.621,-0.746c-2.233,-0.312 -4.367,-0.704 -6.425,-1.196c-2.046,-0.487 -3.917,-1.042 -5.604,-1.675l0,-101.016Z" style="fill:white;"/>        <path d="M436.451,187.416l0,101.008c-4.188,1.254 -8.442,2.213 -12.767,2.871c-4.325,0.679 -9.554,1.004 -15.704,1.004c-4.725,0 -9.25,-0.637 -13.567,-1.933c-4.329,-1.292 -8.137,-3.346 -11.429,-6.146c-3.3,-2.808 -5.908,-6.442 -7.825,-10.892c-1.913,-4.458 -2.871,-9.9 -2.871,-16.32c0,-5.08 0.821,-9.867 2.471,-14.371c1.646,-4.488 4.012,-8.396 7.087,-11.692c3.075,-3.296 6.796,-5.896 11.163,-7.821c4.358,-1.916 9.225,-2.875 14.567,-2.875c1.608,0 3.279,0.063 5.016,0.204c1.738,0.134 3.404,0.425 5.013,0.875l0,-33.912l18.846,0Z" style="fill:white;"/>        <g transform="matrix(0.980132,0,0,1.06681,12.6225,-21.6871)">            <path d="M396.616,242.141c-2.227,1.121 -4.072,2.629 -5.522,4.507c-1.458,1.875 -2.525,4.086 -3.201,6.64c-0.685,2.551 -1.025,5.199 -1.025,7.952c0,3.426 0.451,6.335 1.361,8.71c0.91,2.39 2.159,4.285 3.749,5.71c1.59,1.418 3.478,2.437 5.663,3.07c2.181,0.625 4.544,0.937 7.095,0.937c1.547,0 2.95,-0.058 4.221,-0.195c1.276,-0.117 2.683,-0.383 4.234,-0.812l0,-37.21c-1.823,-0.418 -3.298,-0.699 -4.434,-0.816c-1.139,-0.125 -2.571,-0.188 -4.297,-0.188c-2.997,0 -5.616,0.563 -7.844,1.695Z" style="fill:white;"/>        </g>        <g transform="matrix(0.980132,0,0,1.06681,12.6225,-21.6871)">            <path d="M550.945,241.45c-3.639,0 -6.619,1.109 -8.936,3.32c-2.321,2.214 -3.477,5.702 -3.477,10.463l0,23.56c1.088,0.335 2.248,0.538 3.477,0.621c1.224,0.078 2.474,0.124 3.754,0.124c5.909,0 10.543,-1.577 13.909,-4.753c3.363,-3.183 5.047,-8.147 5.047,-14.92c0,-6.018 -1.051,-10.584 -3.138,-13.716c-2.091,-3.129 -5.641,-4.699 -10.636,-4.699Z" style="fill:white;"/>        </g>        <path d="M284.605,324.587c-4.354,0 -7.888,-3.529 -7.888,-7.884l0.221,-121.396c0,-4.354 3.533,-7.887 7.888,-7.887l132.779,0l0,33.908c-1.609,-0.45 -3.275,-0.741 -5.013,-0.875c-1.737,-0.141 -3.408,-0.204 -5.016,-0.204c-5.342,0 -10.209,0.959 -14.567,2.875c-4.367,1.925 -8.088,4.525 -11.163,7.821c-3.075,3.296 -5.441,7.204 -7.087,11.692c-1.65,4.504 -2.471,9.291 -2.471,14.371c0,6.42 0.958,11.862 2.871,16.32c1.917,4.45 4.525,8.084 7.825,10.892c3.292,2.8 7.1,4.854 11.429,6.146c4.317,1.296 8.842,1.933 13.567,1.933c6.15,0 11.379,-0.325 15.704,-1.004c4.325,-0.658 8.579,-1.617 12.767,-2.871l0,-101.004l85.254,-0.004l-0.096,0.008l0,101c1.687,0.633 3.558,1.188 5.604,1.675c2.058,0.492 4.192,0.883 6.425,1.196c2.225,0.321 4.433,0.554 6.621,0.746c2.179,0.171 4.254,0.258 6.208,0.258c6.154,0 11.667,-0.862 16.579,-2.6c4.905,-1.742 9.034,-4.208 12.434,-7.416c3.383,-3.213 5.971,-7.109 7.754,-11.7c1.779,-4.588 2.667,-9.776 2.667,-15.576c0,-5.975 -0.709,-11.137 -2.138,-15.504c-1.421,-4.375 -3.387,-7.996 -5.871,-10.9c-2.5,-2.891 -5.471,-5.058 -8.9,-6.483c-3.433,-1.425 -7.15,-2.129 -11.162,-2.129c-4.004,0 -7.575,0.766 -10.696,2.337c-3.117,1.55 -5.342,3.534 -6.679,5.954l0.025,-40.866l140.879,0l10.32,29.873l0,0.003l0,0.001l-6.258,18.177l-4.341,-13.883c-3.471,-0.529 -6.904,-0.804 -10.296,-0.804c-3.563,0 -6.813,0.275 -9.75,0.804l13.233,33.421l-15.775,35.695c3.479,0.529 6.775,0.804 9.888,0.804c3.125,0 6.283,-0.274 9.496,-0.804l6.881,-17.642l-0.002,-0.008l6.887,-17.641l-6.885,17.649l6.91,20.67l-0.001,0.002l0.001,0.002l-10.358,30.856l-391.309,-0.004l-5.395,0Z" style="fill:rgb(47,197,244);"/>        <g transform="matrix(4.16667,0,0,4.16667,489.459,273.645)">            <path d="M-21.144,-8.883c-0.524,0.287 -0.958,0.673 -1.299,1.154c-0.343,0.48 -0.594,1.046 -0.753,1.7c-0.161,0.653 -0.241,1.331 -0.241,2.036c0,0.877 0.106,1.622 0.32,2.23c0.214,0.612 0.508,1.097 0.882,1.462c0.374,0.363 0.818,0.624 1.332,0.786c0.513,0.16 1.069,0.24 1.669,0.24c0.364,0 0.694,-0.015 0.993,-0.05c0.3,-0.03 0.631,-0.098 0.996,-0.208l0,-9.527c-0.429,-0.107 -0.776,-0.179 -1.043,-0.209c-0.268,-0.032 -0.605,-0.048 -1.011,-0.048c-0.705,0 -1.321,0.144 -1.845,0.434Z" style="fill:rgb(47,197,244);"/>        </g>        <g transform="matrix(4.16667,0,0,4.16667,489.459,273.645)">            <path d="M15.159,-9.06c-0.856,0 -1.557,0.284 -2.102,0.85c-0.546,0.567 -0.818,1.46 -0.818,2.679l0,6.032c0.256,0.086 0.529,0.138 0.818,0.159c0.288,0.02 0.582,0.032 0.883,0.032c1.39,0 2.48,-0.404 3.272,-1.217c0.791,-0.815 1.187,-2.086 1.187,-3.82c0,-1.541 -0.247,-2.71 -0.738,-3.512c-0.492,-0.801 -1.327,-1.203 -2.502,-1.203Z" style="fill:rgb(47,197,244);"/>        </g>        <path d="M510.917,253.003c0,-4.633 -0.671,-8.971 -2.004,-13.029c-1.342,-4.058 -3.325,-7.558 -5.954,-10.496c-2.629,-2.937 -5.813,-5.258 -9.554,-6.954c-3.746,-1.687 -8.021,-2.533 -12.838,-2.533c-5.525,0 -10.358,0.954 -14.504,2.866c-4.142,1.917 -7.621,4.525 -10.425,7.83c-2.808,3.291 -4.925,7.166 -6.35,11.629c-1.425,4.446 -2.142,9.225 -2.142,14.3c0,5.162 0.688,9.929 2.075,14.296c1.384,4.37 3.521,8.137 6.417,11.304c2.896,3.166 6.638,5.633 11.229,7.421c4.588,1.77 10.092,2.662 16.509,2.662c8.729,0 16.575,-1.325 23.525,-4c-0.088,-2.854 -0.488,-5.533 -1.2,-8.021c-0.717,-2.5 -1.563,-4.633 -2.546,-6.412c-2.846,1.058 -5.854,1.887 -9.017,2.466c-3.171,0.575 -6.262,0.867 -9.292,0.867c-5.529,0 -9.983,-1.208 -13.362,-3.608c-3.396,-2.404 -5.263,-6.275 -5.621,-11.634l44.383,0c0.18,-0.975 0.334,-2.295 0.471,-3.933c0.125,-1.658 0.2,-3.333 0.2,-5.021Zm-17.921,-4.275c-0.193,-4.324 -1.375,-7.745 -3.537,-10.366c-2.192,-2.621 -5.238,-3.938 -9.154,-3.938c-4.463,0 -7.846,1.25 -10.163,3.742c-2.321,2.496 -3.7,6.016 -4.141,10.562l26.995,0Z" style="fill:white;"/>        <path d="M656.892,253.003c0,-4.633 -0.666,-8.971 -2.008,-13.029c-1.333,-4.058 -3.321,-7.558 -5.95,-10.496c-2.629,-2.937 -5.813,-5.258 -9.558,-6.954c-3.742,-1.687 -8.017,-2.533 -12.83,-2.533c-5.525,0 -10.358,0.954 -14.504,2.866c-4.15,1.917 -7.625,4.525 -10.429,7.83c-2.804,3.291 -4.929,7.166 -6.354,11.629c-1.417,4.446 -2.129,9.225 -2.129,14.3c0,5.162 0.683,9.929 2.066,14.296c1.384,4.37 3.525,8.137 6.417,11.304c2.9,3.166 6.642,5.633 11.233,7.421c4.588,1.77 10.088,2.662 16.505,2.662c8.737,0 16.579,-1.325 23.525,-4c-0.084,-2.854 -0.488,-5.533 -1.2,-8.021c-0.713,-2.5 -1.563,-4.633 -2.538,-6.412c-2.854,1.058 -5.858,1.887 -9.025,2.466c-3.171,0.575 -6.258,0.867 -9.296,0.867c-5.521,0 -9.979,-1.208 -13.358,-3.608c-3.388,-2.404 -5.258,-6.275 -5.621,-11.634l44.388,0c0.175,-0.975 0.329,-2.295 0.462,-3.933c0.133,-1.658 0.204,-3.333 0.204,-5.021Zm-30.612,-18.579c-4.459,0 -7.842,1.25 -10.163,3.742c-2.312,2.496 -3.696,6.016 -4.146,10.562l27.005,0c-0.175,-4.283 -1.363,-7.729 -3.542,-10.366c-2.179,-2.621 -5.238,-3.938 -9.154,-3.938Z" style="fill:white;"/>        <path d="M365.205,253.003c0,-4.633 -0.663,-8.971 -2.009,-13.029c-1.333,-4.058 -3.32,-7.558 -5.95,-10.496c-2.625,-2.937 -5.812,-5.258 -9.554,-6.954c-3.741,-1.687 -8.021,-2.533 -12.829,-2.533c-5.529,0 -10.362,0.954 -14.508,2.866c-4.15,1.917 -7.617,4.525 -10.429,7.83c-2.8,3.291 -4.921,7.166 -6.346,11.629c-1.429,4.446 -2.134,9.225 -2.134,14.3c0,5.162 0.68,9.929 2.067,14.296c1.379,4.37 3.521,8.137 6.413,11.304c2.895,3.166 6.645,5.633 11.233,7.421c4.583,1.77 10.087,2.662 16.512,2.662c8.725,0 16.575,-1.325 23.521,-4c-0.087,-2.854 -0.487,-5.533 -1.2,-8.021c-0.712,-2.5 -1.566,-4.633 -2.541,-6.412c-2.855,1.058 -5.859,1.887 -9.021,2.466c-3.171,0.575 -6.263,0.867 -9.296,0.867c-5.525,0 -9.979,-1.208 -13.358,-3.608c-3.392,-2.404 -5.267,-6.275 -5.625,-11.634l44.391,0c0.167,-0.975 0.325,-2.295 0.467,-3.933c0.125,-1.658 0.196,-3.333 0.196,-5.021Zm-30.613,-18.579c-4.458,0 -7.841,1.25 -10.162,3.742c-2.313,2.496 -3.696,6.016 -4.146,10.562l27.004,0c-0.179,-4.283 -1.358,-7.729 -3.542,-10.366c-2.183,-2.621 -5.237,-3.938 -9.154,-3.938Z" style="fill:white;"/>    </g></svg>