<?xml version="1.0" encoding="UTF-8" standalone="no"?><!DOCTYPE svg PUBLIC "-//W3C//DTD SVG 1.1//EN" "http://www.w3.org/Graphics/SVG/1.1/DTD/svg11.dtd"><svg width="100%" height="100%" viewBox="0 0 1024 512" version="1.1" xmlns="http://www.w3.org/2000/svg" xmlns:xlink="http://www.w3.org/1999/xlink" xml:space="preserve" style="fill-rule:evenodd;clip-rule:evenodd;stroke-linecap:round;stroke-linejoin:round;stroke-miterlimit:1.5;"><title>Guarantor My Loan</title><desc>We are looking to challenge the exisiting banking systems by offering various lending solutions to customers and a return to investors. Guarantor Loans are loans requiring a customers to have a guarantor, normally a friend or family member to support their application.We believe that it is important to reward a Guarantor for helping someone get a loan , and therefore we offer a cash back reward to the guarantor after a customer has made 12 payments ,on time and in full, equivalent to one month's instalment.</desc>    <g transform="matrix(1.00533,0,0,1.00533,-7.77092,-12.8293)">        <g transform="matrix(1,0,0,1,-70.3125,76.8971)">            <g transform="matrix(109.333,0,0,109.333,241,218)">                <path d="M0.635,-0.295c-0.02,0.1 -0.063,0.179 -0.127,0.239c-0.065,0.06 -0.141,0.09 -0.229,0.09c-0.08,0 -0.14,-0.023 -0.18,-0.067c-0.04,-0.045 -0.06,-0.112 -0.06,-0.202c0,-0.084 0.02,-0.171 0.059,-0.26c0.04,-0.09 0.091,-0.162 0.154,-0.217c0.042,-0.037 0.086,-0.055 0.132,-0.055c0.03,0 0.069,0.01 0.117,0.029c0.06,0.024 0.089,0.05 0.089,0.078c0,0.013 -0.005,0.025 -0.014,0.035c-0.01,0.011 -0.022,0.016 -0.035,0.016c-0.008,0 -0.018,-0.004 -0.031,-0.012c-0.05,-0.03 -0.092,-0.046 -0.126,-0.046c-0.024,0 -0.05,0.013 -0.076,0.039c-0.014,0.012 -0.033,0.035 -0.058,0.069c-0.075,0.1 -0.113,0.208 -0.113,0.324c0,0.061 0.01,0.104 0.029,0.129c0.02,0.026 0.058,0.04 0.113,0.04c0.058,0 0.109,-0.019 0.152,-0.056c0.045,-0.039 0.076,-0.094 0.094,-0.167c-0.09,0.004 -0.167,0.022 -0.232,0.052c-0.007,0.004 -0.014,0.006 -0.022,0.006c-0.014,0 -0.026,-0.006 -0.035,-0.017c-0.009,-0.01 -0.013,-0.022 -0.013,-0.035c0,-0.018 0.008,-0.032 0.026,-0.043c0.07,-0.043 0.191,-0.065 0.363,-0.065c0.014,0 0.026,0.005 0.035,0.015c0.01,0.009 0.015,0.021 0.015,0.035c0,0.021 -0.009,0.036 -0.027,0.046Z" style="fill:rgb(44,24,68);fill-rule:nonzero;"/>            </g>            <g transform="matrix(109.333,0,0,109.333,315.312,218)">                <path d="M0.466,-0.285c0,0.023 0,0.058 0.001,0.105c0,0.047 0,0.082 0,0.106c0,0.007 0.001,0.018 0.002,0.032c0.001,0.015 0.002,0.026 0.002,0.033c0,0.014 -0.005,0.026 -0.014,0.035c-0.01,0.009 -0.021,0.013 -0.035,0.013c-0.025,0 -0.041,-0.015 -0.048,-0.046c-0.041,0.021 -0.088,0.031 -0.141,0.031c-0.042,0 -0.078,-0.009 -0.106,-0.028c-0.03,-0.021 -0.049,-0.051 -0.055,-0.091c-0.012,-0.086 -0.019,-0.163 -0.019,-0.231c0,-0.044 0.005,-0.095 0.015,-0.152c0.004,-0.028 0.02,-0.043 0.046,-0.043c0.014,0 0.026,0.005 0.035,0.014c0.01,0.009 0.015,0.02 0.015,0.034c0,0.015 -0.003,0.039 -0.008,0.072c-0.004,0.033 -0.007,0.058 -0.007,0.075c0,0.055 0.002,0.101 0.006,0.14c0.003,0.039 0.009,0.07 0.016,0.093c0.011,0.006 0.021,0.011 0.032,0.014c0.01,0.003 0.02,0.004 0.03,0.004c0.044,0 0.09,-0.007 0.139,-0.021l-0.001,-0.099l-0.001,-0.095c0,-0.07 0.003,-0.131 0.009,-0.183c0.004,-0.03 0.02,-0.045 0.048,-0.045c0.014,0 0.025,0.005 0.035,0.014c0.009,0.009 0.014,0.021 0.013,0.034l-0.009,0.185Z" style="fill:rgb(44,24,68);fill-rule:nonzero;"/>            </g>            <g transform="matrix(109.333,0,0,109.333,372.168,218)">                <path d="M0.449,0.032c-0.006,0 -0.017,-0.007 -0.033,-0.021c-0.015,-0.014 -0.026,-0.025 -0.033,-0.036c-0.031,0.017 -0.059,0.03 -0.083,0.038c-0.023,0.009 -0.043,0.013 -0.059,0.013c-0.076,0 -0.132,-0.021 -0.167,-0.064c-0.033,-0.04 -0.049,-0.102 -0.049,-0.186c0,-0.078 0.027,-0.146 0.081,-0.202c0.054,-0.056 0.119,-0.084 0.194,-0.084c0.029,0 0.06,0.008 0.096,0.022c0.044,0.018 0.066,0.04 0.066,0.066c0,0.009 -0.003,0.017 -0.01,0.024c-0.003,0.012 -0.006,0.032 -0.007,0.061c-0.002,0.028 -0.003,0.064 -0.004,0.108c0,0.041 0.003,0.073 0.009,0.096c0.003,0.015 0.013,0.043 0.03,0.086c0.003,0.006 0.006,0.015 0.012,0.026l0.003,0.008c0,0.013 -0.005,0.024 -0.014,0.033c-0.009,0.008 -0.02,0.012 -0.032,0.012Zm-0.101,-0.339c0,-0.014 0.001,-0.029 0.002,-0.046c0.002,-0.016 0.005,-0.034 0.008,-0.052c-0.012,-0.006 -0.022,-0.011 -0.031,-0.014c-0.008,-0.003 -0.015,-0.004 -0.02,-0.004c-0.051,0 -0.094,0.02 -0.131,0.061c-0.037,0.042 -0.055,0.089 -0.055,0.143c0,0.053 0.01,0.093 0.028,0.12c0.019,0.027 0.048,0.04 0.085,0.04c0.032,0 0.058,-0.006 0.08,-0.017c0.012,-0.006 0.028,-0.019 0.049,-0.037c-0.01,-0.087 -0.015,-0.151 -0.015,-0.194Z" style="fill:rgb(44,24,68);fill-rule:nonzero;"/>            </g>            <g transform="matrix(109.333,0,0,109.333,428.116,218)">                <path d="M0.448,-0.361c-0.003,0.041 -0.019,0.061 -0.049,0.061c-0.028,0 -0.042,-0.016 -0.042,-0.048c0,-0.006 -0.001,-0.018 -0.002,-0.034l-0.001,-0.041c-0.051,0.006 -0.093,0.02 -0.124,0.043c-0.029,0.021 -0.053,0.053 -0.072,0.096l0.001,0.267c0,0.033 -0.016,0.05 -0.048,0.05c-0.029,0 -0.043,-0.017 -0.043,-0.05l0,-0.342c0,-0.011 0,-0.027 0.001,-0.049c0.001,-0.021 0.001,-0.037 0.001,-0.048c0,-0.033 0.015,-0.049 0.043,-0.049c0.032,0 0.048,0.027 0.049,0.081c0.062,-0.061 0.131,-0.091 0.208,-0.091c0.026,0 0.046,0.01 0.059,0.03c0.013,0.02 0.019,0.05 0.019,0.09c0,0.017 0,0.028 0,0.034Z" style="fill:rgb(44,24,68);fill-rule:nonzero;"/>            </g>            <g transform="matrix(109.333,0,0,109.333,480.647,218)">                <path d="M0.449,0.032c-0.006,0 -0.017,-0.007 -0.033,-0.021c-0.015,-0.014 -0.026,-0.025 -0.033,-0.036c-0.031,0.017 -0.059,0.03 -0.083,0.038c-0.023,0.009 -0.043,0.013 -0.059,0.013c-0.076,0 -0.132,-0.021 -0.167,-0.064c-0.033,-0.04 -0.049,-0.102 -0.049,-0.186c0,-0.078 0.027,-0.146 0.081,-0.202c0.054,-0.056 0.119,-0.084 0.194,-0.084c0.029,0 0.06,0.008 0.096,0.022c0.044,0.018 0.066,0.04 0.066,0.066c0,0.009 -0.003,0.017 -0.01,0.024c-0.003,0.012 -0.006,0.032 -0.007,0.061c-0.002,0.028 -0.003,0.064 -0.004,0.108c0,0.041 0.003,0.073 0.009,0.096c0.003,0.015 0.013,0.043 0.03,0.086c0.003,0.006 0.006,0.015 0.012,0.026l0.003,0.008c0,0.013 -0.005,0.024 -0.014,0.033c-0.009,0.008 -0.02,0.012 -0.032,0.012Zm-0.101,-0.339c0,-0.014 0.001,-0.029 0.002,-0.046c0.002,-0.016 0.005,-0.034 0.008,-0.052c-0.012,-0.006 -0.022,-0.011 -0.031,-0.014c-0.008,-0.003 -0.015,-0.004 -0.02,-0.004c-0.051,0 -0.094,0.02 -0.131,0.061c-0.037,0.042 -0.055,0.089 -0.055,0.143c0,0.053 0.01,0.093 0.028,0.12c0.019,0.027 0.048,0.04 0.085,0.04c0.032,0 0.058,-0.006 0.08,-0.017c0.012,-0.006 0.028,-0.019 0.049,-0.037c-0.01,-0.087 -0.015,-0.151 -0.015,-0.194Z" style="fill:rgb(44,24,68);fill-rule:nonzero;"/>            </g>            <g transform="matrix(109.333,0,0,109.333,536.595,218)">                <path d="M0.442,0.035c-0.028,0 -0.043,-0.016 -0.047,-0.046l-0.014,-0.107c-0.004,-0.038 -0.006,-0.074 -0.006,-0.107c0,-0.009 0,-0.025 0.001,-0.046c0.001,-0.022 0.002,-0.038 0.002,-0.047c0,-0.07 -0.013,-0.105 -0.039,-0.105c-0.037,0 -0.071,0.021 -0.105,0.065c-0.03,0.039 -0.053,0.089 -0.07,0.149c-0.001,0.013 -0.002,0.029 -0.004,0.048c-0.002,0.016 -0.003,0.032 -0.003,0.047c0,0.01 0.001,0.025 0.003,0.044c0.002,0.02 0.003,0.034 0.003,0.044c0,0.015 -0.005,0.027 -0.014,0.036c-0.009,0.009 -0.02,0.013 -0.034,0.013c-0.015,0 -0.026,-0.004 -0.035,-0.013c-0.009,-0.009 -0.013,-0.021 -0.013,-0.036c0,-0.01 -0.001,-0.024 -0.003,-0.044c-0.002,-0.019 -0.003,-0.034 -0.003,-0.044c0,-0.033 0.002,-0.08 0.007,-0.139c0.004,-0.06 0.007,-0.106 0.007,-0.14c0,-0.01 -0.001,-0.025 -0.002,-0.046c-0.001,-0.02 -0.002,-0.036 -0.002,-0.046c0,-0.014 0.005,-0.026 0.014,-0.035c0.009,-0.009 0.021,-0.013 0.035,-0.013c0.03,0 0.046,0.021 0.049,0.063l0.001,0.057c0.055,-0.073 0.111,-0.109 0.169,-0.109c0.052,0 0.088,0.023 0.109,0.069c0.014,0.03 0.021,0.076 0.023,0.136l0,0.049l-0.001,0.045c0,0.027 0.004,0.062 0.011,0.105c0.007,0.043 0.01,0.078 0.01,0.104c0,0.015 -0.004,0.026 -0.014,0.035c-0.009,0.009 -0.021,0.014 -0.035,0.014Z" style="fill:rgb(44,24,68);fill-rule:nonzero;"/>            </g>            <g transform="matrix(109.333,0,0,109.333,593.824,218)">                <path d="M0.395,-0.416c-0.007,0 -0.015,0 -0.025,-0.001c-0.009,-0.001 -0.017,-0.001 -0.024,-0.001c-0.007,0 -0.029,0.002 -0.066,0.007l0.009,0.289l0.001,0.046c0.001,0.072 -0.016,0.107 -0.051,0.107c-0.013,0 -0.025,-0.004 -0.034,-0.012c-0.01,-0.009 -0.015,-0.019 -0.015,-0.032c0,-0.013 0.001,-0.031 0.002,-0.056c0.001,-0.025 0.001,-0.043 0.001,-0.056l-0.009,-0.285c-0.024,-0.001 -0.06,-0.003 -0.109,-0.008c-0.029,-0.004 -0.043,-0.02 -0.043,-0.048c0,-0.015 0.004,-0.027 0.013,-0.036c0.009,-0.009 0.02,-0.014 0.034,-0.014l0.102,0.008c0,-0.016 -0.001,-0.039 -0.002,-0.066c-0.002,-0.028 -0.002,-0.048 -0.002,-0.061c0,-0.013 0.004,-0.025 0.014,-0.034c0.009,-0.009 0.021,-0.013 0.035,-0.013c0.029,0 0.046,0.024 0.051,0.072c0.001,0.012 0.001,0.026 0.001,0.043l-0.001,0.028l0,0.031c0.04,-0.006 0.063,-0.008 0.069,-0.008c0.034,0 0.056,0.002 0.067,0.005c0.019,0.006 0.029,0.022 0.029,0.046c0,0.014 -0.004,0.026 -0.013,0.035c-0.009,0.009 -0.02,0.014 -0.034,0.014Z" style="fill:rgb(44,24,68);fill-rule:nonzero;"/>            </g>            <g transform="matrix(109.333,0,0,109.333,645.341,218)">                <path d="M0.251,0.029c-0.055,0 -0.102,-0.02 -0.141,-0.061c-0.044,-0.045 -0.067,-0.105 -0.069,-0.181c-0.002,-0.073 0.016,-0.138 0.055,-0.194c0.046,-0.066 0.109,-0.099 0.191,-0.099c0.065,0 0.114,0.029 0.148,0.089c0.026,0.048 0.039,0.106 0.038,0.174c-0.001,0.072 -0.02,0.134 -0.056,0.185c-0.042,0.058 -0.097,0.087 -0.166,0.087Zm0.029,-0.436c-0.048,-0.001 -0.085,0.022 -0.112,0.068c-0.021,0.037 -0.031,0.079 -0.031,0.126c0,0.047 0.013,0.084 0.038,0.11c0.022,0.022 0.047,0.033 0.076,0.033c0.034,0 0.063,-0.012 0.087,-0.037c0.028,-0.027 0.043,-0.064 0.044,-0.111c0.005,-0.126 -0.029,-0.189 -0.102,-0.189Z" style="fill:rgb(44,24,68);fill-rule:nonzero;"/>            </g>            <g transform="matrix(109.333,0,0,109.333,702.837,218)">                <path d="M0.448,-0.361c-0.003,0.041 -0.019,0.061 -0.049,0.061c-0.028,0 -0.042,-0.016 -0.042,-0.048c0,-0.006 -0.001,-0.018 -0.002,-0.034l-0.001,-0.041c-0.051,0.006 -0.093,0.02 -0.124,0.043c-0.029,0.021 -0.053,0.053 -0.072,0.096l0.001,0.267c0,0.033 -0.016,0.05 -0.048,0.05c-0.029,0 -0.043,-0.017 -0.043,-0.05l0,-0.342c0,-0.011 0,-0.027 0.001,-0.049c0.001,-0.021 0.001,-0.037 0.001,-0.048c0,-0.033 0.015,-0.049 0.043,-0.049c0.032,0 0.048,0.027 0.049,0.081c0.062,-0.061 0.131,-0.091 0.208,-0.091c0.026,0 0.046,0.01 0.059,0.03c0.013,0.02 0.019,0.05 0.019,0.09c0,0.017 0,0.028 0,0.034Z" style="fill:rgb(44,24,68);fill-rule:nonzero;"/>            </g>            <g transform="matrix(109.333,0,0,109.333,755.368,218)">                <path d="M0.688,0.041c-0.027,0 -0.042,-0.015 -0.047,-0.043c-0.006,-0.036 -0.012,-0.086 -0.017,-0.151l-0.017,-0.152c-0.003,-0.022 -0.009,-0.044 -0.017,-0.066c-0.011,-0.029 -0.023,-0.044 -0.036,-0.044c-0.012,0 -0.034,0.011 -0.067,0.031c-0.031,0.019 -0.052,0.034 -0.062,0.046c0,0.03 0.001,0.061 0.003,0.091l0.014,0.131c0.007,0.051 0.01,0.094 0.01,0.127c0,0.015 -0.005,0.026 -0.014,0.036c-0.009,0.009 -0.02,0.014 -0.034,0.014c-0.014,0 -0.026,-0.005 -0.035,-0.014c-0.009,-0.01 -0.013,-0.021 -0.013,-0.036c0,-0.039 -0.004,-0.097 -0.012,-0.174c-0.008,-0.077 -0.012,-0.136 -0.012,-0.175c0,-0.034 -0.005,-0.061 -0.015,-0.08c-0.022,0.01 -0.046,0.027 -0.069,0.05l-0.058,0.065c-0.005,0.008 -0.013,0.018 -0.024,0.031c0,0.019 -0.002,0.048 -0.006,0.086c-0.003,0.038 -0.005,0.066 -0.005,0.084c0,0.01 0.001,0.024 0.004,0.041c0.004,0.018 0.005,0.031 0.005,0.039c0,0.013 -0.005,0.024 -0.015,0.033c-0.01,0.009 -0.021,0.014 -0.035,0.014c-0.037,0 -0.055,-0.042 -0.055,-0.126c0,-0.019 0.002,-0.048 0.005,-0.087c0.004,-0.039 0.006,-0.068 0.006,-0.087c0,-0.018 -0.002,-0.044 -0.005,-0.078c-0.003,-0.035 -0.004,-0.061 -0.004,-0.078c0,-0.074 0.016,-0.111 0.049,-0.111c0.013,0 0.025,0.006 0.035,0.017c0.011,0.011 0.016,0.023 0.016,0.036c0,0.006 -0.001,0.016 -0.002,0.029c-0.002,0.013 -0.003,0.023 -0.003,0.029l0.001,0.052c0.017,-0.035 0.042,-0.067 0.075,-0.095c0.033,-0.028 0.061,-0.042 0.084,-0.042c0.051,0 0.086,0.025 0.105,0.076c0.018,-0.024 0.04,-0.042 0.064,-0.053c0.025,-0.012 0.053,-0.018 0.085,-0.018c0.055,0 0.092,0.029 0.112,0.088c0.004,0.011 0.01,0.057 0.02,0.137c0.009,0.056 0.02,0.149 0.035,0.28c0.001,0.013 -0.004,0.024 -0.013,0.033c-0.01,0.009 -0.022,0.014 -0.036,0.014Z" style="fill:rgb(4,169,159);fill-rule:nonzero;"/>            </g>            <g transform="matrix(109.333,0,0,109.333,840.305,218)">                <path d="M0.494,-0.436l-0.169,0.366c-0.042,0.089 -0.074,0.163 -0.096,0.223l-0.032,0.095c-0.009,0.023 -0.023,0.035 -0.044,0.035c-0.014,0 -0.026,-0.005 -0.036,-0.014c-0.009,-0.009 -0.014,-0.02 -0.014,-0.033c0,-0.033 0.035,-0.127 0.105,-0.283l-0.175,-0.336l-0.022,-0.036c-0.009,-0.015 -0.013,-0.027 -0.013,-0.038c0,-0.013 0.005,-0.025 0.015,-0.035c0.011,-0.01 0.022,-0.015 0.035,-0.015c0.015,0 0.026,0.006 0.035,0.017c0.055,0.077 0.114,0.186 0.178,0.328l0.072,-0.168c0.026,-0.058 0.051,-0.108 0.075,-0.15c0.011,-0.019 0.024,-0.028 0.041,-0.028c0.014,0 0.025,0.005 0.036,0.014c0.01,0.01 0.015,0.021 0.015,0.034c0,0.007 -0.002,0.015 -0.006,0.024Z" style="fill:rgb(4,169,159);fill-rule:nonzero;"/>            </g>            <g transform="matrix(109.333,0,0,109.333,897.214,218)">                <path d="M0.192,-0.384l-0.007,0.243c0,0.026 -0.002,0.063 -0.004,0.113c-0.004,0.033 -0.02,0.049 -0.048,0.049c-0.032,0 -0.048,-0.017 -0.048,-0.05c0,-0.039 0.002,-0.098 0.005,-0.177c0.004,-0.079 0.006,-0.138 0.006,-0.178c0,-0.051 0.001,-0.11 0.002,-0.176c0.002,-0.067 0.003,-0.125 0.003,-0.177c0,-0.032 0.016,-0.049 0.047,-0.049c0.033,0 0.049,0.017 0.049,0.049c0,0.052 -0.001,0.11 -0.003,0.177c-0.001,0.066 -0.002,0.125 -0.002,0.176Z" style="fill:rgb(44,24,68);fill-rule:nonzero;"/>            </g>            <g transform="matrix(109.333,0,0,109.333,927.163,218)">                <path d="M0.251,0.029c-0.055,0 -0.102,-0.02 -0.141,-0.061c-0.044,-0.045 -0.067,-0.105 -0.069,-0.181c-0.002,-0.073 0.016,-0.138 0.055,-0.194c0.046,-0.066 0.109,-0.099 0.191,-0.099c0.065,0 0.114,0.029 0.148,0.089c0.026,0.048 0.039,0.106 0.038,0.174c-0.001,0.072 -0.02,0.134 -0.056,0.185c-0.042,0.058 -0.097,0.087 -0.166,0.087Zm0.029,-0.436c-0.048,-0.001 -0.085,0.022 -0.112,0.068c-0.021,0.037 -0.031,0.079 -0.031,0.126c0,0.047 0.013,0.084 0.038,0.11c0.022,0.022 0.047,0.033 0.076,0.033c0.034,0 0.063,-0.012 0.087,-0.037c0.028,-0.027 0.043,-0.064 0.044,-0.111c0.005,-0.126 -0.029,-0.189 -0.102,-0.189Z" style="fill:rgb(44,24,68);fill-rule:nonzero;"/>            </g>            <g transform="matrix(109.333,0,0,109.333,984.659,218)">                <path d="M0.449,0.032c-0.006,0 -0.017,-0.007 -0.033,-0.021c-0.015,-0.014 -0.026,-0.025 -0.033,-0.036c-0.031,0.017 -0.059,0.03 -0.083,0.038c-0.023,0.009 -0.043,0.013 -0.059,0.013c-0.076,0 -0.132,-0.021 -0.167,-0.064c-0.033,-0.04 -0.049,-0.102 -0.049,-0.186c0,-0.078 0.027,-0.146 0.081,-0.202c0.054,-0.056 0.119,-0.084 0.194,-0.084c0.029,0 0.06,0.008 0.096,0.022c0.044,0.018 0.066,0.04 0.066,0.066c0,0.009 -0.003,0.017 -0.01,0.024c-0.003,0.012 -0.006,0.032 -0.007,0.061c-0.002,0.028 -0.003,0.064 -0.004,0.108c0,0.041 0.003,0.073 0.009,0.096c0.003,0.015 0.013,0.043 0.03,0.086c0.003,0.006 0.006,0.015 0.012,0.026l0.003,0.008c0,0.013 -0.005,0.024 -0.014,0.033c-0.009,0.008 -0.02,0.012 -0.032,0.012Zm-0.101,-0.339c0,-0.014 0.001,-0.029 0.002,-0.046c0.002,-0.016 0.005,-0.034 0.008,-0.052c-0.012,-0.006 -0.022,-0.011 -0.031,-0.014c-0.008,-0.003 -0.015,-0.004 -0.02,-0.004c-0.051,0 -0.094,0.02 -0.131,0.061c-0.037,0.042 -0.055,0.089 -0.055,0.143c0,0.053 0.01,0.093 0.028,0.12c0.019,0.027 0.048,0.04 0.085,0.04c0.032,0 0.058,-0.006 0.08,-0.017c0.012,-0.006 0.028,-0.019 0.049,-0.037c-0.01,-0.087 -0.015,-0.151 -0.015,-0.194Z" style="fill:rgb(44,24,68);fill-rule:nonzero;"/>            </g>            <g transform="matrix(109.333,0,0,109.333,1040.61,218)">                <path d="M0.442,0.035c-0.028,0 -0.043,-0.016 -0.047,-0.046l-0.014,-0.107c-0.004,-0.038 -0.006,-0.074 -0.006,-0.107c0,-0.009 0,-0.025 0.001,-0.046c0.001,-0.022 0.002,-0.038 0.002,-0.047c0,-0.07 -0.013,-0.105 -0.039,-0.105c-0.037,0 -0.071,0.021 -0.105,0.065c-0.03,0.039 -0.053,0.089 -0.07,0.149c-0.001,0.013 -0.002,0.029 -0.004,0.048c-0.002,0.016 -0.003,0.032 -0.003,0.047c0,0.01 0.001,0.025 0.003,0.044c0.002,0.02 0.003,0.034 0.003,0.044c0,0.015 -0.005,0.027 -0.014,0.036c-0.009,0.009 -0.02,0.013 -0.034,0.013c-0.015,0 -0.026,-0.004 -0.035,-0.013c-0.009,-0.009 -0.013,-0.021 -0.013,-0.036c0,-0.01 -0.001,-0.024 -0.003,-0.044c-0.002,-0.019 -0.003,-0.034 -0.003,-0.044c0,-0.033 0.002,-0.08 0.007,-0.139c0.004,-0.06 0.007,-0.106 0.007,-0.14c0,-0.01 -0.001,-0.025 -0.002,-0.046c-0.001,-0.02 -0.002,-0.036 -0.002,-0.046c0,-0.014 0.005,-0.026 0.014,-0.035c0.009,-0.009 0.021,-0.013 0.035,-0.013c0.03,0 0.046,0.021 0.049,0.063l0.001,0.057c0.055,-0.073 0.111,-0.109 0.169,-0.109c0.052,0 0.088,0.023 0.109,0.069c0.014,0.03 0.021,0.076 0.023,0.136l0,0.049l-0.001,0.045c0,0.027 0.004,0.062 0.011,0.105c0.007,0.043 0.01,0.078 0.01,0.104c0,0.015 -0.004,0.026 -0.014,0.035c-0.009,0.009 -0.021,0.014 -0.035,0.014Z" style="fill:rgb(44,24,68);fill-rule:nonzero;"/>            </g>        </g>        <g transform="matrix(0.475532,0,0,0.475532,-150.08,226.806)">            <g transform="matrix(0.508118,0,0,0.500999,247.835,-204.972)">                <circle cx="328.954" cy="503.665" r="142.546" style="fill:rgb(7,150,131);"/>            </g>            <g transform="matrix(0.508118,0,0,0.500999,247.835,-204.972)">                <path d="M329.949,349.146c68.645,0.653 134.939,51.095 150.018,122.427c11.602,54.882 -9.285,115.35 -52.909,151.359c-41.759,34.47 -101.665,44.711 -152.875,25.227c-45.331,-17.248 -81.876,-57.275 -94.467,-104.935c-15.793,-59.778 7.913,-128.103 59.208,-165.056c25.819,-18.601 57.247,-28.72 89.035,-29.022c0.663,-0.002 1.327,-0.002 1.99,0Zm-1.842,23.952c-35.597,0.338 -70.556,15.551 -94.906,41.706c-36.133,38.812 -45.243,101.052 -20.349,148.911c25.527,49.072 83.47,78.452 139.271,68.473c48.372,-8.65 90.46,-46.727 103.258,-95.163c15.403,-58.299 -14.886,-125.836 -71.874,-152.039c-17.313,-7.96 -36.569,-11.948 -55.4,-11.888Z" style="fill:rgb(41,25,66);"/>            </g>            <g transform="matrix(0.508118,0,0,0.500999,397.974,-208.939)">                <circle cx="328.954" cy="503.665" r="142.546" style="fill:rgb(7,150,131);"/>            </g>            <g transform="matrix(0.508118,0,0,0.500999,397.974,-208.939)">                <path d="M329.949,349.146c68.378,0.651 134.346,50.495 149.816,121.486c11.989,55.017 -8.717,115.99 -52.707,152.3c-41.759,34.47 -101.665,44.711 -152.875,25.227c-45.474,-17.302 -81.927,-57.471 -94.467,-104.935c-15.789,-59.76 7.913,-128.103 59.208,-165.056c25.819,-18.601 57.247,-28.72 89.035,-29.022c0.663,-0.002 1.327,-0.002 1.99,0Zm-1.842,23.952c-64.815,0.616 -126.181,54.122 -129.721,123.852c-2.05,40.394 15.958,81.162 46.767,106.903c35.855,29.956 87.986,38.579 131.766,21.303c37.796,-14.916 67.996,-48.52 78.462,-88.131c15.502,-58.673 -15.321,-126.035 -71.875,-152.039c-17.312,-7.96 -36.567,-11.948 -55.399,-11.888Z" style="fill:rgb(41,25,66);"/>            </g>            <g transform="matrix(0.43572,0,0,0.43572,276.323,-158.72)">                <path d="M470.388,451.601c2.45,10.544 3.743,21.513 3.743,32.773c0,81.856 -68.34,148.312 -152.515,148.312c-39.84,0 -76.132,-14.886 -103.31,-39.246c25.63,17.766 56.279,28.103 89.195,28.103c89.222,0 161.788,-75.949 162.887,-169.942Z" style="fill:rgb(87,109,104);stroke:rgb(79,47,219);stroke-width:1.92px;"/>            </g>            <g transform="matrix(0.0900719,0.426308,-0.426308,0.0900719,736.295,-135.287)">                <path d="M470.388,451.601c2.45,10.544 3.743,21.513 3.743,32.773c0,81.856 -68.34,148.312 -152.515,148.312c-39.84,0 -76.132,-14.886 -103.31,-39.246c25.63,17.766 56.279,28.103 89.195,28.103c89.222,0 161.788,-75.949 162.887,-169.942Z" style="fill:rgb(87,109,104);stroke:rgb(79,47,219);stroke-width:1.92px;"/>            </g>            <g transform="matrix(-0.0495656,-0.438374,0.458916,-0.0518882,354.96,209.811)">                <path d="M470.388,451.601c2.45,10.544 3.743,21.513 3.743,32.773c0,81.856 -68.34,148.312 -152.515,148.312c-39.84,0 -76.132,-14.886 -103.31,-39.246c25.63,17.766 56.279,28.103 89.195,28.103c89.222,0 161.788,-75.949 162.887,-169.942Z" style="fill:white;stroke:rgb(79,47,219);stroke-width:1.85px;"/>            </g>            <g transform="matrix(-0.448663,0.0792273,-0.0751222,-0.425416,595.644,226.471)">                <path d="M470.388,451.601c2.45,10.544 3.743,21.513 3.743,32.773c0,81.856 -68.34,148.312 -152.515,148.312c-39.84,0 -76.132,-14.886 -103.31,-39.246c25.63,17.766 56.279,28.103 89.195,28.103c89.222,0 161.788,-75.949 162.887,-169.942Z" style="fill:white;stroke:rgb(79,47,219);stroke-width:1.88px;"/>            </g>            <g transform="matrix(103.059,20.1898,-21.0214,107.303,376.816,81.9926)">                <path d="M0.609,-0.633c0,0.015 -0.004,0.028 -0.012,0.038c-0.009,0.011 -0.021,0.016 -0.036,0.016c-0.02,0 -0.036,-0.012 -0.047,-0.036c-0.01,-0.022 -0.019,-0.036 -0.027,-0.04c-0.007,-0.004 -0.023,-0.006 -0.049,-0.006c-0.065,0 -0.127,0.053 -0.187,0.159l0.219,0c0.012,0 0.023,0.004 0.031,0.012c0.008,0.008 0.012,0.019 0.012,0.032c0,0.012 -0.004,0.022 -0.012,0.031c-0.008,0.008 -0.019,0.012 -0.031,0.012l-0.257,0c-0.012,0.035 -0.019,0.063 -0.021,0.083l0.173,0.002c0.013,0 0.023,0.004 0.031,0.012c0.009,0.008 0.013,0.019 0.013,0.031c0,0.013 -0.004,0.023 -0.013,0.032c-0.008,0.008 -0.018,0.012 -0.031,0.012c-0.014,0 -0.074,-0.001 -0.18,-0.002c0.002,0.055 0.012,0.094 0.031,0.12c0.021,0.028 0.056,0.042 0.104,0.042c0.031,0 0.059,-0.009 0.085,-0.025c0.009,-0.005 0.027,-0.02 0.056,-0.045c0.019,-0.016 0.035,-0.024 0.048,-0.024c0.013,0 0.025,0.005 0.034,0.015c0.01,0.011 0.015,0.023 0.015,0.036c0,0.014 -0.006,0.027 -0.018,0.039c-0.04,0.036 -0.073,0.061 -0.099,0.075c-0.036,0.019 -0.076,0.029 -0.121,0.029c-0.074,0 -0.132,-0.025 -0.174,-0.076c-0.04,-0.046 -0.059,-0.109 -0.059,-0.187c-0.005,0.001 -0.016,0.001 -0.032,0.002c-0.013,0.001 -0.024,0.002 -0.032,0.002c-0.03,0 -0.045,-0.015 -0.045,-0.044c0,-0.023 0.015,-0.038 0.043,-0.044c0.008,-0.001 0.032,-0.002 0.072,-0.003c0.004,-0.027 0.011,-0.055 0.018,-0.082c-0.06,0.001 -0.09,0.002 -0.09,0.002c-0.013,0 -0.023,-0.004 -0.031,-0.013c-0.008,-0.008 -0.012,-0.019 -0.012,-0.031c0,-0.023 0.016,-0.038 0.049,-0.043c0.008,-0.002 0.047,-0.002 0.116,-0.002c0.076,-0.17 0.175,-0.255 0.295,-0.255c0.031,0 0.057,0.003 0.076,0.009c0.012,-0.017 0.027,-0.025 0.045,-0.025c0.023,0 0.038,0.019 0.045,0.056c0.003,0.017 0.005,0.045 0.005,0.084Z" style="fill:rgb(44,24,68);fill-rule:nonzero;"/>            </g>            <g transform="matrix(104.042,-14.2806,14.8688,108.327,537.492,87.8614)">                <path d="M0.609,-0.633c0,0.015 -0.004,0.028 -0.012,0.038c-0.009,0.011 -0.021,0.016 -0.036,0.016c-0.02,0 -0.036,-0.012 -0.047,-0.036c-0.01,-0.022 -0.019,-0.036 -0.027,-0.04c-0.007,-0.004 -0.023,-0.006 -0.049,-0.006c-0.065,0 -0.127,0.053 -0.187,0.159l0.219,0c0.012,0 0.023,0.004 0.031,0.012c0.008,0.008 0.012,0.019 0.012,0.032c0,0.012 -0.004,0.022 -0.012,0.031c-0.008,0.008 -0.019,0.012 -0.031,0.012l-0.257,0c-0.012,0.035 -0.019,0.063 -0.021,0.083l0.173,0.002c0.013,0 0.023,0.004 0.031,0.012c0.009,0.008 0.013,0.019 0.013,0.031c0,0.013 -0.004,0.023 -0.013,0.032c-0.008,0.008 -0.018,0.012 -0.031,0.012c-0.014,0 -0.074,-0.001 -0.18,-0.002c0.002,0.055 0.012,0.094 0.031,0.12c0.021,0.028 0.056,0.042 0.104,0.042c0.031,0 0.059,-0.009 0.085,-0.025c0.009,-0.005 0.027,-0.02 0.056,-0.045c0.019,-0.016 0.035,-0.024 0.048,-0.024c0.013,0 0.025,0.005 0.034,0.015c0.01,0.011 0.015,0.023 0.015,0.036c0,0.014 -0.006,0.027 -0.018,0.039c-0.04,0.036 -0.073,0.061 -0.099,0.075c-0.036,0.019 -0.076,0.029 -0.121,0.029c-0.074,0 -0.132,-0.025 -0.174,-0.076c-0.04,-0.046 -0.059,-0.109 -0.059,-0.187c-0.005,0.001 -0.016,0.001 -0.032,0.002c-0.013,0.001 -0.024,0.002 -0.032,0.002c-0.03,0 -0.045,-0.015 -0.045,-0.044c0,-0.023 0.015,-0.038 0.043,-0.044c0.008,-0.001 0.032,-0.002 0.072,-0.003c0.004,-0.027 0.011,-0.055 0.018,-0.082c-0.06,0.001 -0.09,0.002 -0.09,0.002c-0.013,0 -0.023,-0.004 -0.031,-0.013c-0.008,-0.008 -0.012,-0.019 -0.012,-0.031c0,-0.023 0.016,-0.038 0.049,-0.043c0.008,-0.002 0.047,-0.002 0.116,-0.002c0.076,-0.17 0.175,-0.255 0.295,-0.255c0.031,0 0.057,0.003 0.076,0.009c0.012,-0.017 0.027,-0.025 0.045,-0.025c0.023,0 0.038,0.019 0.045,0.056c0.003,0.017 0.005,0.045 0.005,0.084Z" style="fill:rgb(44,24,68);fill-rule:nonzero;"/>            </g>        </g>    </g></svg>