<?xml version="1.0" encoding="UTF-8" standalone="no"?><!DOCTYPE svg PUBLIC "-//W3C//DTD SVG 1.1//EN" "http://www.w3.org/Graphics/SVG/1.1/DTD/svg11.dtd"><svg width="100%" height="100%" viewBox="0 0 1024 512" version="1.1" xmlns="http://www.w3.org/2000/svg" xmlns:xlink="http://www.w3.org/1999/xlink" xml:space="preserve" style="fill-rule:evenodd;clip-rule:evenodd;stroke-linejoin:round;stroke-miterlimit:2;"><title>Dinero</title><desc>Dinero was established in 2017. The main goal of Dinero is to provide customers with immediate assistance in the event of unforeseen financial situations. The way the company assesses the creditworthiness of its clients is by using various scoring models, depending on the clients' sociodemographic parameters such as age, credit history and other factors.The typical borrowers of loans issued by Dinero are aged 18 to 75 years, who usually take loans for personal unforeseen expenses. The company charges its borrowers an annual percentage rate (APR) of 270%.</desc>    <g transform="matrix(4.14634,0,0,4.14634,2,152.134)">        <path d="M230.7,18l-15.7,0c-8.8,0 -16,6.8 -16,15.8c0,0.5 0,1 0.1,1.5l-0.3,0c-0.5,4.1 -2.1,8.2 -4.7,11.1c-1.4,1.6 -2.9,2.8 -4.5,3.6l41,0c8.5,-0.3 15.4,-7.4 15.4,-16.2c0,-8.8 -6.8,-15.5 -15.3,-15.8Z" style="fill:rgb(255,205,5);"/>        <path d="M208,36.2c-1.1,0 -2,0.9 -2,2c0,1.1 0.9,2 2,2c1.1,0 2,-0.9 2,-2c0,-1.1 -0.9,-2 -2,-2Zm11.4,-0.9c-0.1,1.1 -0.5,1.6 -0.6,1.7c-0.3,0.4 -0.9,0.5 -1.4,0.5c-0.5,0 -1,-0.2 -1.3,-0.4c-0.2,-0.2 -0.4,-0.5 -0.4,-1.1c0,-0.2 0,-0.5 0.1,-1.1l0.6,-4.8l-3.1,0l-0.6,4.9c0,0.3 -0.1,1 -0.1,1.4c0,1 0.4,2 1,2.6c1.1,1 2.8,1.1 3.8,1.1c1.1,0 2.6,-0.1 3.8,-1.2c1.1,-1 1.3,-2.4 1.4,-3.5l0.6,-5.2l-3.1,0l-0.7,5.1Zm13.5,-5.1l-0.1,1.2c-0.4,-0.6 -1,-1 -1.3,-1.1c-0.6,-0.3 -1.3,-0.4 -1.9,-0.4c-1.3,0 -2.5,0.4 -3.5,1.4c-0.9,1 -1.6,2.4 -1.6,4.2c0,1.7 0.6,2.8 1.3,3.5c0.8,0.9 1.8,1.2 3,1.2c0.4,0 1.1,0 1.8,-0.3c0.5,-0.2 1,-0.7 1.4,-1.1l-0.2,1.1l3.1,0l1.2,-9.6l-3.2,0l0,-0.1Zm-1.1,6.6c-0.3,0.3 -0.9,0.6 -1.8,0.6c-0.6,0 -1.2,-0.2 -1.6,-0.6c-0.3,-0.3 -0.6,-0.8 -0.6,-1.6c0,-0.8 0.3,-1.5 0.7,-1.9c0.5,-0.5 1.1,-0.7 1.8,-0.7c0.8,0 1.3,0.3 1.6,0.5c0.4,0.4 0.7,1 0.7,1.7c0,0.7 -0.3,1.5 -0.8,2Z" style="fill:rgb(28,28,28);"/>        <path d="M18.8,3.6l-13.2,0l-5.6,45.4l13.9,0c8.2,0 15.3,-1.3 20.5,-6.3c2.3,-2.2 7,-7.8 7,-18.2c0,-7.1 -2.4,-12.1 -5.4,-15.1c-5.1,-5.1 -12.6,-5.8 -17.2,-5.8Zm7.4,33.1c-3.7,3.3 -8.5,3.5 -11.5,3.5l-3.2,0l3.4,-27.7l3.2,0c3.5,0 7.2,1.1 9.4,3.2c2,1.9 3.2,5.1 3.2,9.1c0,5.3 -1.9,9.6 -4.5,11.9Zm28,-36.7c-3.2,0 -5.7,2.5 -5.7,5.7c0,3.2 2.5,5.7 5.7,5.7c3.2,0 5.7,-2.5 5.7,-5.7c0,-3.2 -2.5,-5.7 -5.7,-5.7Zm-9.9,49l9.7,0l3.7,-30.3l-9.7,0l-3.7,30.3Zm39,-31.2c-2.1,0 -3.8,0.1 -6,1.3c-1.3,0.7 -2.6,1.6 -3.7,2.9l0.5,-3.3l-9.7,0l-3.7,30.3l9.7,0l1.8,-15c0.2,-1.6 0.6,-4.6 2.4,-6.4c1.2,-1.2 2.7,-1.6 4.4,-1.6c1,0 2.5,0.2 3.6,1.3c1,1.1 1.2,2.5 1.2,3.7c0,0.5 0,1.8 -0.4,4.9l-1.7,13.1l9.7,0l1.8,-15.6c0.4,-3.3 0.5,-4.8 0.5,-5.8c0,-1.8 -0.2,-4.9 -2.6,-7.2c-2.2,-2.2 -5.2,-2.6 -7.8,-2.6Zm30.1,-0.2c-3.8,0 -8.3,0.7 -12,4.2c-2.5,2.4 -5.2,6.8 -5.2,13.5c0,4.1 0.9,7.7 3.8,10.6c3.6,3.6 8,4.1 11.8,4.1c2.8,0 6.9,-0.3 10.3,-2.9c2.2,-1.6 4.3,-4.5 5.5,-7.5l-9.8,-0.8c-0.4,1 -1.2,2.1 -2.1,2.7c-1.2,0.8 -2.7,0.9 -3.9,0.9c-1.6,0 -3.4,-0.3 -4.7,-2.1c-0.8,-1.2 -1.3,-3.1 -1.2,-4.6l22.5,0c0.4,-3.6 0.3,-10.2 -3.8,-14.2c-2.2,-2.2 -6,-3.9 -11.2,-3.9Zm-6.4,12.1c0.3,-1.4 0.9,-2.5 1.7,-3.3c0.8,-0.8 2.2,-1.8 4.6,-1.8c1.2,0 2.9,0.3 4,1.2c1.1,0.9 1.8,2.5 2,3.9l-12.3,0Zm40.3,-10.6c-1.4,0.8 -2.8,2.1 -3.8,4l0.9,-4.5l-9.7,0l-3.7,30.4l9.7,0l1.6,-12.9c0.4,-3.3 1.2,-6.1 2.9,-7.8c0.9,-0.9 2.6,-1.8 5,-1.8c1.9,0 3.3,0.5 4.3,1l1.9,-9.1c-1,-0.3 -2.4,-0.5 -4,-0.5c-1.1,0 -3.2,0.2 -5.1,1.2Zm41.6,3.2c-3,-3 -7.8,-4.7 -12.6,-4.7c-5.5,0 -10.6,1.9 -13.9,5.2c-3.2,3.1 -4.9,7.5 -4.9,12c0,4.5 1.8,8.2 4.1,10.7c3.9,4 8.7,4.6 12.6,4.6c4.4,0 9.6,-0.6 13.9,-5c3.2,-3.3 4.9,-8 4.9,-12.4c0,-4.5 -1.8,-8.1 -4.1,-10.4Zm-8.4,17.2c-1.3,1.2 -3.2,2.2 -5.7,2.2c-2.6,0 -4.3,-1 -5.3,-2c-1.1,-1.2 -2,-3.1 -2,-5.2c0,-2.3 0.9,-4.8 2.7,-6.5c1.6,-1.4 3.6,-2.1 5.4,-2.1c1.8,0 4,0.7 5.3,1.9c1.1,1.1 2,2.9 2,5.2c0,2.3 -0.7,4.9 -2.4,6.5Z" style="fill:rgb(255,73,51);"/>    </g></svg>