<?xml version="1.0" encoding="UTF-8" standalone="no"?><!DOCTYPE svg PUBLIC "-//W3C//DTD SVG 1.1//EN" "http://www.w3.org/Graphics/SVG/1.1/DTD/svg11.dtd"><svg width="100%" height="100%" viewBox="0 0 1024 512" version="1.1" xmlns="http://www.w3.org/2000/svg" xmlns:xlink="http://www.w3.org/1999/xlink" xml:space="preserve" style="fill-rule:evenodd;clip-rule:evenodd;stroke-linejoin:round;stroke-miterlimit:2;"><title>EvoEstate</title><desc>We aggregate and source deals from major European real estate crowdfunding platformsEvery project listed in skin in the game section is a project that company's founders invest in as well. That way, you know that only the best projects are sourced, because we're putting our money on the line, too. In other words - we put our money where our mouth is.</desc>    <g transform="matrix(1.41066,0,0,1.41066,-17.7605,-9.99293)">        <g>            <path d="M113.777,189.328l74.231,74.231l23.885,-23.885l-49.116,-49.114l26.731,-26.732l49.115,49.115l23.615,-23.615l-74.23,-74.231l-74.231,74.231Z" style="fill:rgb(55,125,255);fill-rule:nonzero;"/>            <path d="M188.008,14.559l-174,174l174,174l24.5,-24.5l-149.25,-149.25l123.75,-123.75l149.25,149.25l25.75,-25.75l-174,-174Z" style="fill:rgb(55,125,255);fill-rule:nonzero;"/>        </g>        <g>            <path d="M296.896,318.051l-44.34,0l0,-67.313l44.34,0l0,11.723l-31.198,0l0,15.789l26.565,0l0,11.723l-26.565,0l0,16.355l31.198,0l0,11.723Z" style="fill:rgb(29,36,53);fill-rule:nonzero;"/>            <path d="M356.551,250.738l-22.312,67.313l-9.832,0l-22.218,-67.313l13.614,0l13.52,43.867l13.519,-43.867l13.709,0Z" style="fill:rgb(29,36,53);fill-rule:nonzero;"/>            <path d="M410.061,267.473c0.756,3.719 1.133,9.359 1.133,16.922c0,7.563 -0.377,13.205 -1.133,16.924c-0.758,3.719 -2.68,7.122 -5.768,10.209c-4.727,4.728 -10.715,7.092 -17.963,7.092c-7.313,0 -13.33,-2.364 -18.057,-7.092c-3.09,-3.087 -4.996,-6.476 -5.721,-10.162c-0.725,-3.688 -1.086,-9.344 -1.086,-16.971c0,-7.625 0.361,-13.283 1.086,-16.97c0.725,-3.687 2.631,-7.074 5.721,-10.163c4.727,-4.727 10.744,-7.09 18.057,-7.09c7.248,0 13.236,2.363 17.963,7.09c3.088,3.089 5.01,6.492 5.768,10.211Zm-12.008,16.922c0,-6.239 -0.236,-10.588 -0.709,-13.047c-0.473,-2.457 -1.34,-4.41 -2.6,-5.861c-2.08,-2.395 -4.885,-3.592 -8.414,-3.592c-3.467,0 -6.303,1.197 -8.508,3.592c-1.262,1.451 -2.113,3.404 -2.553,5.861c-0.441,2.459 -0.662,6.808 -0.662,13.047c0,6.24 0.221,10.574 0.662,13c0.439,2.427 1.291,4.365 2.553,5.814c2.268,2.457 5.104,3.687 8.508,3.687c3.465,0 6.271,-1.229 8.414,-3.687c1.26,-1.514 2.127,-3.482 2.6,-5.909c0.473,-2.426 0.709,-6.728 0.709,-12.905Z" style="fill:rgb(29,36,53);fill-rule:nonzero;"/>            <path d="M468.959,318.051l-44.34,0l0,-67.313l44.34,0l0,11.723l-31.199,0l0,15.789l26.566,0l0,11.723l-26.566,0l0,16.355l31.199,0l0,11.723Z" style="fill:rgb(29,36,53);fill-rule:nonzero;"/>            <path d="M525.303,298.197c0,6.367 -2.332,11.361 -6.994,14.985c-4.666,3.625 -10.652,5.437 -17.963,5.437c-5.359,0 -9.99,-0.678 -13.898,-2.033c-3.908,-1.354 -7.469,-3.64 -10.684,-6.854l8.51,-8.51c3.781,3.782 9.17,5.673 16.166,5.673c3.908,0 6.885,-0.724 8.934,-2.175c2.049,-1.449 3.072,-3.529 3.072,-6.239c0,-2.331 -0.693,-4.19 -2.078,-5.578c-1.199,-1.134 -3.215,-1.891 -6.051,-2.269l-8.037,-1.229c-5.672,-0.818 -10.021,-2.679 -13.047,-5.578c-3.213,-3.151 -4.82,-7.563 -4.82,-13.236c0,-6.112 2.111,-11.045 6.334,-14.795c4.221,-3.75 9.926,-5.625 17.111,-5.625c9.076,0 16.322,2.615 21.744,7.846l-8.318,8.226c-3.152,-3.087 -7.754,-4.632 -13.805,-4.632c-3.34,0 -5.893,0.803 -7.656,2.41c-1.766,1.607 -2.648,3.64 -2.648,6.098c0,2.018 0.631,3.625 1.891,4.822c1.449,1.323 3.498,2.174 6.146,2.553l8.035,1.229c5.734,0.82 10.021,2.585 12.857,5.294c3.467,3.213 5.199,7.941 5.199,14.18Z" style="fill:rgb(29,36,53);fill-rule:nonzero;"/>            <path d="M580.987,262.461l-17.584,0l0,55.59l-13.141,0l0,-55.59l-17.586,0l0,-11.723l48.311,0l0,11.723Z" style="fill:rgb(29,36,53);fill-rule:nonzero;"/>            <path d="M637.049,318.051l-13.707,0l-3.971,-11.912l-23.92,0l-4.064,11.912l-13.709,0l24.486,-67.313l10.305,0l24.58,67.313Zm-21.175,-22.973l-8.225,-24.486l-8.51,24.486l16.735,0Z" style="fill:rgb(29,36,53);fill-rule:nonzero;"/>            <path d="M682.051,262.461l-17.586,0l0,55.59l-13.141,0l0,-55.59l-17.584,0l0,-11.723l48.311,0l0,11.723Z" style="fill:rgb(29,36,53);fill-rule:nonzero;"/>            <path d="M737.073,318.051l-44.34,0l0,-67.313l44.34,0l0,11.723l-31.197,0l0,15.789l26.564,0l0,11.723l-26.564,0l0,16.355l31.197,0l0,11.723Z" style="fill:rgb(29,36,53);fill-rule:nonzero;"/>        </g>    </g></svg>