<?xml version="1.0" encoding="UTF-8" standalone="no"?><!DOCTYPE svg PUBLIC "-//W3C//DTD SVG 1.1//EN" "http://www.w3.org/Graphics/SVG/1.1/DTD/svg11.dtd"><svg width="100%" height="100%" viewBox="0 0 1024 512" version="1.1" xmlns="http://www.w3.org/2000/svg" xmlns:xlink="http://www.w3.org/1999/xlink" xml:space="preserve" style="fill-rule:evenodd;clip-rule:evenodd;stroke-linejoin:round;stroke-miterlimit:2;"><title>FPF</title><desc>The French Crowdfunding Association</desc>    <g transform="matrix(2.19565,0,0,2.19468,-50.087,-24.9192)">        <g id="_4fbe28be-2993-4a8a-9999-310dca638263">            <path d="M294.35,71c-0.006,1.707 -1.413,3.108 -3.12,3.108c-0.077,0 -0.153,-0.002 -0.23,-0.008c-1.712,0 -3.12,-1.408 -3.12,-3.12c0,-1.712 1.408,-3.12 3.12,-3.12c0.063,-0.004 0.127,-0.006 0.19,-0.006c1.706,0 3.11,1.404 3.11,3.11c0,0.012 0,0.024 0,0.036m-6.41,5.54l6.2,0l0,19.92l-6.2,0l0,-19.92Z" style="fill:rgb(26,29,86);fill-rule:nonzero;"/>            <path d="M297.53,82.88c0,-2.49 -0.08,-4.61 -0.16,-6.36l5.38,0l0.29,2.73l0.12,0c1.386,-2.028 3.705,-3.225 6.16,-3.18c4.08,0 7.14,2.69 7.14,8.56l0,11.83l-6.2,0l0,-11.06c0,-2.57 -0.9,-4.32 -3.14,-4.32c-1.431,0.018 -2.696,0.963 -3.12,2.33c-0.175,0.497 -0.256,1.023 -0.24,1.55l0,11.5l-6.2,0l-0.03,-13.58Z" style="fill:rgb(26,29,86);fill-rule:nonzero;"/>            <path d="M331.19,96.45l-0.37,-2l-0.12,0c-1.432,1.634 -3.529,2.536 -5.7,2.45c-0.11,0.006 -0.22,0.009 -0.33,0.009c-3.357,0 -6.12,-2.763 -6.12,-6.12c0,-0.003 0,-0.006 0,-0.009c0,-5.18 4.65,-7.67 11.71,-7.62l0,-0.28c0,-1.06 -0.57,-2.58 -3.63,-2.58c-1.936,0.02 -3.834,0.54 -5.51,1.51l-1.14,-4c2.401,-1.21 5.062,-1.815 7.75,-1.76c6.65,0 8.77,3.92 8.77,8.61l0,6.94c-0.033,1.622 0.064,3.244 0.29,4.85l-5.6,0Zm-0.73,-9.45c-3.26,0 -5.79,0.73 -5.79,3.14c-0.003,0.051 -0.005,0.102 -0.005,0.152c0,1.224 1.006,2.23 2.23,2.23c0.078,0 0.157,-0.004 0.235,-0.012c1.447,0.007 2.746,-0.913 3.22,-2.28c0.079,-0.348 0.119,-0.703 0.12,-1.06l-0.01,-2.17Z" style="fill:rgb(26,29,86);fill-rule:nonzero;"/>            <path d="M339.79,82.88c0,-2.49 -0.08,-4.61 -0.16,-6.36l5.37,0l0.29,2.73l0.12,0c1.386,-2.028 3.705,-3.225 6.16,-3.18c4.08,0 7.14,2.69 7.14,8.56l0,11.83l-6.2,0l0,-11.06c0,-2.57 -0.9,-4.32 -3.14,-4.32c-1.436,0.008 -2.711,0.95 -3.14,2.32c-0.178,0.514 -0.256,1.057 -0.23,1.6l0,11.5l-6.2,0l-0.01,-13.62Z" style="fill:rgb(26,29,86);fill-rule:nonzero;"/>            <path d="M377.07,96c-1.777,0.647 -3.66,0.953 -5.55,0.9c-6.44,0 -10.56,-3.92 -10.56,-10.2c0,-5.83 4,-10.6 11.42,-10.6c1.609,-0.01 3.208,0.25 4.73,0.77l-1,4.61c-1.101,-0.445 -2.283,-0.653 -3.47,-0.61c-2.827,0.302 -4.997,2.715 -4.997,5.558c0,2.896 2.251,5.337 5.137,5.572c1.215,0.025 2.423,-0.182 3.56,-0.61l0.73,4.61Z" style="fill:rgb(26,29,86);fill-rule:nonzero;"/>            <path d="M383.46,88.46c0.2,2.57 2.73,3.8 5.63,3.8c1.869,0.021 3.729,-0.256 5.51,-0.82l0.82,4.2c-2.309,0.853 -4.758,1.267 -7.22,1.22c-6.77,0 -10.65,-3.91 -10.65,-10.15c0,-5.06 3.14,-10.64 10.08,-10.64c6.45,0 8.89,5 8.89,9.95c0.001,0.821 -0.07,1.641 -0.21,2.45l-12.85,-0.01Zm7.3,-4.24c0,-1.51 -0.66,-4 -3.51,-4c-2.61,0 -3.66,2.36 -3.84,4l7.35,0Z" style="fill:rgb(26,29,86);fill-rule:nonzero;"/>            <path d="M398.86,82.88c0,-2.49 -0.08,-4.61 -0.16,-6.36l5.22,0l0.29,2.69l0.12,0c1.32,-2.012 3.595,-3.198 6,-3.13c2.341,-0.12 4.524,1.231 5.46,3.38l0.08,0c0.691,-0.961 1.564,-1.777 2.57,-2.4c1.145,-0.68 2.458,-1.026 3.79,-1c3.83,0 6.73,2.69 6.73,8.64l0,11.76l-6,0l0,-10.86c0.04,-2.89 -0.96,-4.6 -2.96,-4.6c-1.318,0.013 -2.481,0.894 -2.85,2.16c-0.165,0.514 -0.25,1.05 -0.25,1.59l0,11.71l-6,0l0,-11.18c0,-2.53 -0.9,-4.24 -2.86,-4.24c-1.339,0.054 -2.504,0.957 -2.89,2.24c-0.183,0.496 -0.268,1.022 -0.25,1.55l0,11.63l-6,0l-0.04,-13.58Z" style="fill:rgb(26,29,86);fill-rule:nonzero;"/>            <path d="M437.18,88.46c0.21,2.57 2.74,3.8 5.63,3.8c1.869,0.021 3.729,-0.256 5.51,-0.82l0.82,4.2c-2.313,0.854 -4.765,1.268 -7.23,1.22c-6.77,0 -10.64,-3.91 -10.64,-10.15c0,-5.06 3.14,-10.64 10.08,-10.64c6.45,0 8.89,5 8.89,9.95c0.001,0.821 -0.07,1.641 -0.21,2.45l-12.85,-0.01Zm7.31,-4.24c0,-1.51 -0.66,-4 -3.51,-4c-2.61,0 -3.66,2.36 -3.84,4l7.35,0Z" style="fill:rgb(26,29,86);fill-rule:nonzero;"/>            <path d="M452.58,82.88c0,-2.49 -0.08,-4.61 -0.16,-6.36l5.38,0l0.28,2.73l0.12,0c1.386,-2.028 3.705,-3.225 6.16,-3.18c4.08,0 7.14,2.69 7.14,8.56l0,11.83l-6.2,0l0,-11.06c0,-2.57 -0.9,-4.32 -3.14,-4.32c-1.446,0.001 -2.732,0.949 -3.16,2.33c-0.173,0.498 -0.254,1.023 -0.24,1.55l0,11.5l-6.2,0l0.02,-13.58Z" style="fill:rgb(26,29,86);fill-rule:nonzero;"/>            <path d="M481.55,70.8l0,5.71l4.45,0l0,4.56l-4.45,0l0,7.23c0,2.41 0.57,3.51 2.45,3.51c0.617,0.001 1.233,-0.052 1.84,-0.16l0,4.69c-1.294,0.4 -2.646,0.579 -4,0.53c-1.715,0.073 -3.391,-0.543 -4.65,-1.71c-1.14,-1.18 -1.72,-3.1 -1.72,-5.91l0,-8.17l-2.65,0l0,-4.56l2.65,0l0,-4.33l6.08,-1.39Z" style="fill:rgb(26,29,86);fill-rule:nonzero;"/>            <path d="M269,117.7c2.78,-0.421 5.589,-0.611 8.4,-0.57c3.84,0 6.57,0.74 8.4,2.2c1.898,1.559 2.982,3.904 2.94,6.36c0.095,2.43 -0.826,4.794 -2.54,6.52c-2.12,2 -5.26,2.9 -8.93,2.9c-0.709,0.01 -1.417,-0.031 -2.12,-0.12l0,9.83l-6.15,0l0,-27.12Zm6.16,12.48c0.685,0.13 1.383,0.183 2.08,0.16c3.3,0 5.34,-1.67 5.34,-4.49c0,-2.53 -1.76,-4 -4.85,-4c-0.864,-0.022 -1.727,0.062 -2.57,0.25l0,8.08Z" style="fill:rgb(2,169,205);fill-rule:nonzero;"/>            <path d="M302.12,144.82l-0.37,-2l-0.12,0c-1.434,1.637 -3.535,2.539 -5.71,2.45c-0.113,0.006 -0.227,0.009 -0.34,0.009c-3.352,0 -6.11,-2.758 -6.11,-6.11c0,-0.006 0,-0.013 0,-0.019c0,-5.18 4.65,-7.67 11.71,-7.62l0,-0.28c0,-1.06 -0.57,-2.57 -3.63,-2.57c-1.936,0.02 -3.834,0.54 -5.51,1.51l-1.14,-4c2.401,-1.209 5.062,-1.813 7.75,-1.76c6.65,0 8.77,3.92 8.77,8.61l0,6.96c-0.033,1.622 0.064,3.244 0.29,4.85l-5.59,-0.03Zm-0.73,-9.42c-3.26,0 -5.79,0.73 -5.79,3.14c-0.003,0.05 -0.005,0.101 -0.005,0.151c0,1.224 1.007,2.23 2.23,2.23c0.075,0 0.15,-0.003 0.225,-0.011c1.45,0.008 2.752,-0.911 3.23,-2.28c0.079,-0.348 0.119,-0.703 0.12,-1.06l-0.01,-2.17Z" style="fill:rgb(26,29,86);fill-rule:nonzero;"/>            <path d="M311.13,131.45c0,-2.93 -0.08,-4.85 -0.16,-6.56l5.34,0l0.21,3.67l0.16,0c0.736,-2.374 2.906,-4.032 5.39,-4.12c0.435,-0.017 0.87,0.01 1.3,0.08l0,5.83c-0.551,-0.105 -1.11,-0.158 -1.67,-0.16c-1.992,-0.165 -3.817,1.187 -4.24,3.14c-0.091,0.454 -0.135,0.917 -0.13,1.38l0,10.12l-6.2,0l0,-13.38Z" style="fill:rgb(26,29,86);fill-rule:nonzero;"/>            <path d="M333.08,119.17l0,5.71l4.45,0l0,4.56l-4.45,0l0,7.22c0,2.4 0.57,3.51 2.45,3.51c0.617,0.001 1.233,-0.052 1.84,-0.16l0,4.69c-1.294,0.399 -2.646,0.578 -4,0.53c-1.712,0.072 -3.384,-0.544 -4.64,-1.71c-1.15,-1.18 -1.72,-3.1 -1.72,-5.91l0,-8.16l-2.65,0l0,-4.56l2.64,0l0,-4.33l6.08,-1.39Z" style="fill:rgb(26,29,86);fill-rule:nonzero;"/>            <path d="M346.62,119.34c0,1.7 -1.4,3.099 -3.1,3.099c-0.08,0 -0.16,-0.003 -0.24,-0.009c-1.712,0 -3.12,-1.408 -3.12,-3.12c0,-1.712 1.408,-3.12 3.12,-3.12c0.067,-0.004 0.134,-0.006 0.2,-0.006c1.701,0 3.1,1.399 3.1,3.1c0,0.015 0,0.031 0,0.046m-6.4,5.54l6.2,0l0,19.94l-6.2,0l0,-19.94Z" style="fill:rgb(26,29,86);fill-rule:nonzero;"/>            <path d="M365.18,144.33c-1.777,0.647 -3.66,0.953 -5.55,0.9c-6.44,0 -10.56,-3.92 -10.56,-10.2c0,-5.83 4,-10.6 11.42,-10.6c1.609,-0.009 3.207,0.251 4.73,0.77l-1,4.61c-1.101,-0.445 -2.283,-0.653 -3.47,-0.61c-3.044,0.033 -5.53,2.546 -5.53,5.59c0,3.067 2.523,5.59 5.59,5.59c0.02,0 0.04,0 0.06,0c1.211,0.022 2.416,-0.185 3.55,-0.61l0.76,4.56Z" style="fill:rgb(26,29,86);fill-rule:nonzero;"/>            <path d="M373.94,119.34c-0.006,1.702 -1.408,3.099 -3.11,3.099c-0.08,0 -0.16,-0.003 -0.24,-0.009c-1.712,0 -3.12,-1.408 -3.12,-3.12c0,-1.712 1.408,-3.12 3.12,-3.12c0.063,-0.004 0.127,-0.006 0.19,-0.006c1.706,0 3.11,1.404 3.11,3.11c0,0.012 0,0.024 0,0.036m-6.4,5.54l6.2,0l0,19.94l-6.2,0l0,-19.94Z" style="fill:rgb(26,29,86);fill-rule:nonzero;"/>            <path d="M268.99,68.97l16.8,0l0,5.1l-10.57,0l0,6.28l9.88,0l0,5.06l-9.88,0l0,11.05l-6.23,0l0,-27.49Z" style="fill:rgb(2,169,205);fill-rule:nonzero;"/>            <path d="M377.52,131.57c0,-2.61 -0.08,-4.85 -0.16,-6.69l5.38,0l0.28,2.78l0.08,0c1.514,-2.138 4.024,-3.356 6.64,-3.22c4.36,0 8.29,3.8 8.29,10.15c0,7.26 -4.61,10.68 -9.06,10.68c-1.988,0.117 -3.915,-0.733 -5.17,-2.28l-0.09,0l0,9.91l-6.2,0l0.01,-21.33Zm6.2,4.69c-0.003,0.44 0.037,0.878 0.12,1.31c0.38,1.696 1.892,2.916 3.63,2.93c2.69,0 4.29,-2.24 4.29,-5.63c0,-3.18 -1.43,-5.59 -4.2,-5.59c-1.815,0.049 -3.367,1.359 -3.72,3.14c-0.079,0.361 -0.12,0.73 -0.12,1.1l0,2.74Z" style="fill:rgb(26,29,86);fill-rule:nonzero;"/>            <path d="M412.07,144.82l-0.37,-2l-0.12,0c-1.434,1.637 -3.535,2.539 -5.71,2.45c-0.11,0.006 -0.22,0.009 -0.33,0.009c-3.352,0 -6.11,-2.758 -6.11,-6.11c0,-0.006 0,-0.013 0,-0.019c0,-5.18 4.65,-7.67 11.71,-7.62l0,-0.28c0,-1.06 -0.57,-2.57 -3.63,-2.57c-1.936,0.02 -3.834,0.54 -5.51,1.51l-1.14,-4c2.401,-1.21 5.062,-1.815 7.75,-1.76c6.65,0 8.77,3.92 8.77,8.61l0,6.96c-0.033,1.622 0.064,3.244 0.29,4.85l-5.6,-0.03Zm-0.74,-9.42c-3.26,0 -5.79,0.73 -5.79,3.14c-0.003,0.051 -0.005,0.102 -0.005,0.152c0,1.224 1.006,2.23 2.23,2.23c0.078,0 0.157,-0.004 0.235,-0.012c1.447,0.007 2.746,-0.913 3.22,-2.28c0.079,-0.348 0.119,-0.703 0.12,-1.06l-0.01,-2.17Z" style="fill:rgb(26,29,86);fill-rule:nonzero;"/>            <path d="M427.83,119.17l0,5.71l4.45,0l0,4.56l-4.45,0l0,7.22c0,2.4 0.57,3.51 2.45,3.51c0.617,0.001 1.233,-0.052 1.84,-0.16l0,4.69c-1.294,0.4 -2.646,0.579 -4,0.53c-1.712,0.072 -3.384,-0.544 -4.64,-1.71c-1.15,-1.18 -1.72,-3.1 -1.72,-5.91l0,-8.16l-2.65,0l0,-4.56l2.65,0l0,-4.33l6.07,-1.39Z" style="fill:rgb(26,29,86);fill-rule:nonzero;"/>            <path d="M441.37,119.34c0,1.7 -1.4,3.099 -3.1,3.099c-0.08,0 -0.16,-0.003 -0.24,-0.009c-1.712,0 -3.12,-1.408 -3.12,-3.12c0,-1.712 1.408,-3.12 3.12,-3.12c0.063,-0.004 0.127,-0.006 0.19,-0.006c1.706,0 3.11,1.404 3.11,3.11c0,0.012 0,0.024 0,0.036m-6.4,5.54l6.2,0l0,19.94l-6.13,0l-0.07,-19.94Z" style="fill:rgb(26,29,86);fill-rule:nonzero;"/>            <path d="M445.9,144.82l0,-15.37l-2.61,0l0,-4.57l2.61,0l0,-0.77c-0.109,-2.481 0.807,-4.901 2.53,-6.69c1.521,-1.333 3.488,-2.048 5.51,-2c1.117,-0.018 2.231,0.12 3.31,0.41l-0.25,4.77c-0.649,-0.194 -1.323,-0.288 -2,-0.28c-2,0 -2.9,1.59 -2.9,3.54l0,1l4,0l0,4.57l-4,0l0,15.37l-6.2,0.02Z" style="fill:rgb(26,29,86);fill-rule:nonzero;"/>            <path d="M287.52,179.82c0,-2.93 -0.09,-4.85 -0.16,-6.56l5.34,0l0.21,3.67l0.16,0c0.736,-2.374 2.906,-4.032 5.39,-4.12c0.435,-0.017 0.87,0.01 1.3,0.08l0,5.83c-0.551,-0.105 -1.11,-0.158 -1.67,-0.16c-1.995,-0.17 -3.827,1.183 -4.25,3.14c-0.086,0.455 -0.126,0.917 -0.12,1.38l0,10.12l-6.2,0l0,-13.38Z" style="fill:rgb(26,29,86);fill-rule:nonzero;"/>            <path d="M312.47,193.2l-0.37,-2l-0.1,0c-1.434,1.637 -3.535,2.539 -5.71,2.45c-0.113,0.006 -0.227,0.009 -0.34,0.009c-3.352,0 -6.11,-2.758 -6.11,-6.11c0,-0.006 0,-0.013 0,-0.019c0,-5.18 4.65,-7.67 11.71,-7.62l0,-0.28c0,-1.06 -0.57,-2.57 -3.63,-2.57c-1.936,0.02 -3.834,0.54 -5.51,1.51l-1.14,-4c2.394,-1.211 5.048,-1.818 7.73,-1.77c6.65,0 8.77,3.92 8.77,8.61l0,6.94c-0.032,1.622 0.065,3.244 0.29,4.85l-5.59,0Zm-0.74,-9.42c-3.26,0 -5.79,0.73 -5.79,3.14c-0.003,0.051 -0.005,0.102 -0.005,0.152c0,1.224 1.006,2.23 2.23,2.23c0.078,0 0.157,-0.004 0.235,-0.012c1.449,0.003 2.747,-0.921 3.22,-2.29c0.079,-0.348 0.119,-0.703 0.12,-1.06l-0.01,-2.16Z" style="fill:rgb(26,29,86);fill-rule:nonzero;"/>            <path d="M321.07,179.61c0,-2.49 -0.08,-4.61 -0.16,-6.36l5.38,0l0.29,2.73l0.12,0c1.384,-2.029 3.704,-3.227 6.16,-3.18c4.08,0 7.14,2.69 7.14,8.56l0,11.84l-6.2,0l0,-11.06c0,-2.57 -0.9,-4.32 -3.14,-4.32c-1.436,0.008 -2.711,0.95 -3.14,2.32c-0.175,0.497 -0.256,1.023 -0.24,1.55l0,11.5l-6.2,0l-0.01,-13.58Z" style="fill:rgb(26,29,86);fill-rule:nonzero;"/>            <path d="M358.35,192.7c-1.777,0.647 -3.66,0.953 -5.55,0.9c-6.44,0 -10.56,-3.92 -10.56,-10.2c0,-5.83 4,-10.6 11.42,-10.6c1.609,-0.01 3.208,0.25 4.73,0.77l-1,4.61c-1.102,-0.442 -2.284,-0.65 -3.47,-0.61c-3.044,0.033 -5.53,2.546 -5.53,5.59c0,3.067 2.523,5.59 5.59,5.59c0.02,0 0.04,0 0.06,0c1.215,0.025 2.423,-0.182 3.56,-0.61l0.75,4.56Z" style="fill:rgb(26,29,86);fill-rule:nonzero;"/>            <path d="M364.74,185.2c0.21,2.57 2.74,3.79 5.63,3.79c1.869,0.024 3.729,-0.253 5.51,-0.82l0.82,4.2c-2.313,0.854 -4.765,1.268 -7.23,1.22c-6.77,0 -10.64,-3.91 -10.64,-10.15c0,-5.06 3.14,-10.64 10.08,-10.64c6.45,0 8.89,5 8.89,9.95c0,0.821 -0.066,1.64 -0.2,2.45l-12.86,0Zm7.26,-4.2c0,-1.51 -0.66,-4 -3.51,-4c-2.61,0 -3.66,2.37 -3.84,4l7.35,0Z" style="fill:rgb(26,29,86);fill-rule:nonzero;"/>            <path d="M268.99,165.7l16.8,0l0,5.1l-10.57,0l0,6.29l9.88,0l0,5.05l-9.88,0l0,11.06l-6.23,0l0,-27.5Z" style="fill:rgb(2,169,205);fill-rule:nonzero;"/>            <path d="M258.38,128c0,63.74 -52.45,116.19 -116.19,116.19c-63.74,0 -116.19,-52.45 -116.19,-116.19c0,-63.74 52.45,-116.19 116.19,-116.19c63.74,0 116.19,52.45 116.19,116.19" style="fill:white;fill-rule:nonzero;"/>            <path d="M201.39,201.81c-8.114,0 -14.79,-6.676 -14.79,-14.79c0,-8.114 6.676,-14.79 14.79,-14.79c8.106,0 14.779,6.664 14.79,14.77c0,8.114 -6.676,14.79 -14.79,14.79m31.55,-42c-0.005,-7.364 -6.066,-13.42 -13.43,-13.42c-7.367,0 -13.43,6.063 -13.43,13.43c0,7.367 6.063,13.43 13.43,13.43l0,0c7.367,0 13.43,-6.063 13.43,-13.43c0,-0.003 0,-0.007 0,-0.01m4.46,-31.17c0,-6.523 -5.367,-11.89 -11.89,-11.89c-6.523,0 -11.89,5.367 -11.89,11.89c0,6.523 5.367,11.89 11.89,11.89c6.523,0 11.89,-5.367 11.89,-11.89m-7.48,-31.48c-0.005,-5.701 -4.699,-10.39 -10.4,-10.39c-5.705,0 -10.4,4.695 -10.4,10.4c0,5.705 4.695,10.4 10.4,10.4c0,0 0,0 0,0c5.705,0 10.4,-4.695 10.4,-10.4c0,-0.003 0,-0.007 0,-0.01m-19.47,-27c0,-4.937 -4.063,-9 -9,-9c-4.937,0 -9,4.063 -9,9c0,4.937 4.063,9 9,9c4.937,0 9,-4.063 9,-9m-28.67,-18c-0.005,-4.056 -3.344,-7.39 -7.4,-7.39c-4.06,0 -7.4,3.34 -7.4,7.4c0,4.06 3.34,7.4 7.4,7.4c0,0 0,0 0,0c4.06,0 7.4,-3.34 7.4,-7.4c0,-0.003 0,-0.007 0,-0.01m-33,-6.08c-0.005,-3.249 -2.681,-5.92 -5.93,-5.92c-3.253,0 -5.93,2.677 -5.93,5.93c0,3.253 2.677,5.93 5.93,5.93c0.003,0 0.007,0 0.01,0c3.253,0 5.93,-2.677 5.93,-5.93m-32.62,6.06c0,-2.436 -2.004,-4.44 -4.44,-4.44c-2.436,0 -4.44,2.004 -4.44,4.44c0,2.432 1.998,4.435 4.43,4.44c2.437,0 4.445,-2.003 4.45,-4.44m33.92,139.77c1.866,-1.874 2.915,-4.413 2.915,-7.057c0,-5.486 -4.514,-10 -10,-10c-5.486,0 -10,4.514 -10,10c0,2.644 1.049,5.183 2.915,7.057c1.876,1.883 4.427,2.943 7.085,2.943c2.658,0 5.209,-1.06 7.085,-2.943m21.05,-4.9c1.709,-1.706 2.67,-4.025 2.67,-6.439c0,-4.992 -4.108,-9.1 -9.1,-9.1c-4.992,0 -9.1,4.108 -9.1,9.1c0,2.414 0.961,4.733 2.67,6.439c3.531,3.519 9.329,3.519 12.86,0m17.1,-12.76c1.507,-1.509 2.355,-3.557 2.355,-5.689c0,-4.417 -3.634,-8.05 -8.05,-8.05c-4.416,0 -8.05,3.633 -8.05,8.05c0,2.132 0.848,4.18 2.355,5.689c1.503,1.523 3.555,2.382 5.695,2.382c2.14,0 4.192,-0.859 5.695,-2.382m11.55,-18.63c1.282,-1.308 2,-3.068 2,-4.899c0,-3.84 -3.16,-7 -7,-7c-3.84,0 -7,3.16 -7,7c0,1.831 0.718,3.591 2,4.899c1.323,1.331 3.124,2.08 5,2.08c1.876,0 3.677,-0.749 5,-2.08m3.67,-22.25c1.142,-1.142 1.785,-2.692 1.785,-4.308c0,-3.34 -2.749,-6.09 -6.09,-6.09c-3.341,0 -6.09,2.75 -6.09,6.09c0,1.616 0.643,3.166 1.785,4.308c1.14,1.143 2.69,1.787 4.305,1.787c1.615,0 3.165,-0.644 4.305,-1.787m-5.05,-22.36c0.932,-0.937 1.455,-2.205 1.455,-3.526c0,-2.743 -2.257,-5 -5,-5c-2.743,0 -5,2.257 -5,5c0,1.321 0.523,2.589 1.455,3.526c0.938,0.943 2.215,1.474 3.545,1.474c1.33,0 2.607,-0.531 3.545,-1.474m-12.83,-18.77c0.743,-0.749 1.16,-1.762 1.16,-2.817c0,-2.194 -1.806,-4 -4,-4c-2.194,0 -4,1.806 -4,4c0,1.055 0.417,2.068 1.16,2.817c0.751,0.757 1.774,1.183 2.84,1.183c1.066,0 2.089,-0.426 2.84,-1.183m-18.5,-12.77c0.557,-0.562 0.87,-1.322 0.87,-2.113c0,-1.645 -1.354,-3 -3,-3c-1.646,0 -3,1.355 -3,3c0,0.791 0.313,1.551 0.87,2.113c0.563,0.568 1.33,0.887 2.13,0.887c0.8,0 1.567,-0.319 2.13,-0.887m-49.87,81.63c0.007,0 0.013,0 0.02,0c3.615,0 6.59,-2.975 6.59,-6.59c0,-3.615 -2.975,-6.59 -6.59,-6.59c-3.608,0 -6.579,2.962 -6.59,6.57c0,0.01 0,0.02 0,0.03c0,3.606 2.964,6.575 6.57,6.58m12.07,7.5c3.292,0 6,-2.708 6,-6c0,-3.292 -2.708,-6 -6,-6c-3.292,0 -6,2.708 -6,6c0,3.292 2.708,6 6,6m13.88,2c0.007,0 0.013,0 0.02,0c2.907,0 5.3,-2.392 5.3,-5.3c0,-2.907 -2.393,-5.3 -5.3,-5.3c-2.904,0 -5.295,2.386 -5.3,5.29c-0.005,2.904 2.376,5.299 5.28,5.31m14,-3.29c0.003,0 0.007,0 0.01,0c2.54,0 4.63,-2.09 4.63,-4.63c0,-2.54 -2.09,-4.63 -4.63,-4.63c-2.532,0 -4.619,2.078 -4.63,4.61c0,0.007 0,0.013 0,0.02c0,2.536 2.084,4.625 4.62,4.63m12.06,-8.63c2.194,0 4,-1.806 4,-4c0,-2.194 -1.806,-4 -4,-4c-2.194,0 -4,1.806 -4,4c0,2.194 1.806,4 4,4m8.08,-12.67c0.007,0 0.013,0 0.02,0c1.81,0 3.3,-1.49 3.3,-3.3c0,-1.81 -1.49,-3.3 -3.3,-3.3c-1.81,0 -3.3,1.49 -3.3,3.3c0,1.803 1.477,3.289 3.28,3.3m2.76,-14.68c0.003,0 0.007,0 0.01,0c1.448,0 2.64,-1.192 2.64,-2.64c0,-1.448 -1.192,-2.64 -2.64,-2.64c-1.444,0 -2.635,1.186 -2.64,2.63c0,0.003 0,0.007 0,0.01c0,1.445 1.186,2.635 2.63,2.64m-2.65,-14.54c1.097,0 2,-0.903 2,-2c0,-1.097 -0.903,-2 -2,-2c-1.097,0 -2,0.903 -2,2c0,1.097 0.903,2 2,2" style="fill:rgb(26,29,86);fill-rule:nonzero;"/>            <path d="M66.9,150c0.003,0 0.007,0 0.01,0c5.705,0 10.4,4.695 10.4,10.4c0,5.705 -4.695,10.4 -10.4,10.4c-5.705,0 -10.4,-4.695 -10.4,-10.4c0,-5.701 4.689,-10.395 10.39,-10.4m3.27,-79.42c0.005,8.11 6.68,14.78 14.79,14.78c8.114,0 14.79,-6.676 14.79,-14.79c0,-8.114 -6.676,-14.79 -14.79,-14.79l-0.01,0c-8.108,0 -14.78,6.672 -14.78,14.78c0,0.007 0,0.013 0,0.02m-16.74,27.17c0.005,7.364 6.066,13.42 13.43,13.42c7.367,0 13.43,-6.063 13.43,-13.43c0,-7.367 -6.063,-13.43 -13.43,-13.43c-0.003,0 -0.007,0 -0.01,0c-7.364,0.005 -13.42,6.066 -13.42,13.43c0,0.003 0,0.007 0,0.01m-4.43,31.18c0.022,6.508 5.382,11.85 11.89,11.85c6.523,0 11.89,-5.367 11.89,-11.89c0,-6.523 -5.367,-11.89 -11.89,-11.89c-0.003,0 -0.007,0 -0.01,0c-6.519,0.005 -11.88,5.371 -11.88,11.89c0,0.013 0,0.027 0,0.04m27,58.48c0,4.937 4.063,9 9,9c4.937,0 9,-4.063 9,-9c0,-4.937 -4.063,-9 -9,-9c-4.937,0 -9,4.063 -9,9m28.68,18c0,4.065 3.345,7.41 7.41,7.41c4.065,0 7.41,-3.345 7.41,-7.41c0,-4.065 -3.345,-7.41 -7.41,-7.41c-0.003,0 -0.007,0 -0.01,0c-4.061,0.005 -7.4,3.349 -7.4,7.41m33,6.05c0,3.253 2.677,5.93 5.93,5.93c3.253,0 5.93,-2.677 5.93,-5.93c0,-3.253 -2.677,-5.93 -5.93,-5.93c-3.253,0 -5.93,2.677 -5.93,5.93m32.62,-6.09c0.005,2.432 2.008,4.43 4.44,4.43c2.436,0 4.44,-2.004 4.44,-4.44c0,-2.436 -2.004,-4.44 -4.44,-4.44c-2.435,0.011 -4.435,2.015 -4.44,4.45m-34,-139.19c-1.866,1.874 -2.915,4.413 -2.915,7.057c0,5.486 4.514,10 10,10c5.486,0 10,-4.514 10,-10c0,-2.644 -1.049,-5.183 -2.915,-7.057c-1.876,-1.883 -4.427,-2.943 -7.085,-2.943c-2.658,0 -5.209,1.06 -7.085,2.943m-21,4.95c-1.706,1.706 -2.665,4.022 -2.665,6.434c0,4.992 4.108,9.1 9.1,9.1c4.992,0 9.1,-4.108 9.1,-9.1c0,-2.412 -0.959,-4.728 -2.665,-6.434c-1.706,-1.706 -4.022,-2.666 -6.435,-2.666c-2.413,0 -4.729,0.96 -6.435,2.666m-17.17,12.73c-1.514,1.511 -2.365,3.565 -2.365,5.704c0,4.421 3.638,8.06 8.06,8.06c4.422,0 8.06,-3.639 8.06,-8.06c0,-2.139 -0.851,-4.193 -2.365,-5.704c-1.503,-1.523 -3.555,-2.382 -5.695,-2.382c-2.14,0 -4.192,0.859 -5.695,2.382m-11.53,18.63c-1.282,1.308 -2,3.068 -2,4.899c0,3.84 3.16,7 7,7c3.84,0 7,-3.16 7,-7c0,-1.831 -0.718,-3.591 -2,-4.899c-1.316,-1.343 -3.119,-2.101 -5,-2.101c-1.881,0 -3.684,0.758 -5,2.101m-3.66,22.26c-1.142,1.142 -1.785,2.692 -1.785,4.308c0,3.34 2.749,6.09 6.09,6.09c3.341,0 6.09,-2.75 6.09,-6.09c0,-1.616 -0.643,-3.166 -1.785,-4.308c-2.364,-2.355 -6.246,-2.355 -8.61,0m5.06,22.37c-0.932,0.937 -1.455,2.205 -1.455,3.526c0,2.743 2.257,5 5,5c2.743,0 5,-2.257 5,-5c0,-1.321 -0.523,-2.589 -1.455,-3.526c-0.938,-0.943 -2.215,-1.474 -3.545,-1.474c-1.33,0 -2.607,0.531 -3.545,1.474m12.84,18.73c-0.74,0.748 -1.155,1.759 -1.155,2.812c0,2.194 1.806,4 4,4c2.194,0 4,-1.806 4,-4c0,-1.053 -0.415,-2.064 -1.155,-2.812c-0.751,-0.76 -1.776,-1.188 -2.845,-1.188c-1.069,0 -2.094,0.428 -2.845,1.188m18.51,12.76c-0.56,0.562 -0.875,1.324 -0.875,2.118c0,1.645 1.354,3 3,3c1.646,0 3,-1.355 3,-3c0,-0.794 -0.315,-1.556 -0.875,-2.118c-0.563,-0.565 -1.328,-0.882 -2.125,-0.882c-0.797,0 -1.562,0.317 -2.125,0.882m49.92,-82.37c-0.007,0 -0.013,0 -0.02,0c-3.615,0 -6.59,2.975 -6.59,6.59c0,3.615 2.975,6.59 6.59,6.59c3.611,0 6.585,-2.969 6.59,-6.58c0.005,-3.611 -2.959,-6.589 -6.57,-6.6m-12.08,-7.49c-3.292,0 -6,2.708 -6,6c0,3.292 2.708,6 6,6c3.292,0 6,-2.708 6,-6c0,-3.292 -2.708,-6 -6,-6m-13.88,-2c-2.907,0 -5.3,2.393 -5.3,5.3c0,2.907 2.393,5.3 5.3,5.3c2.908,0 5.3,-2.393 5.3,-5.3c0,-0.017 0,-0.033 0,-0.05c0,-0.007 0,-0.013 0,-0.02c0,-2.898 -2.382,-5.285 -5.28,-5.29m-14.03,3.31c-2.54,0 -4.63,2.09 -4.63,4.63c0,2.54 2.09,4.63 4.63,4.63c2.532,0 4.619,-2.078 4.63,-4.61c0,-0.003 0,-0.007 0,-0.01c0,-2.542 -2.088,-4.635 -4.63,-4.64m-12.06,8.64c-2.194,0 -4,1.806 -4,4c0,2.194 1.806,4 4,4c2.194,0 4,-1.806 4,-4c0,-2.194 -1.806,-4 -4,-4m-8,12.75c-0.007,0 -0.013,0 -0.02,0c-1.81,0 -3.3,1.49 -3.3,3.3c0,1.81 1.49,3.3 3.3,3.3c1.81,0 3.3,-1.49 3.3,-3.3c0,-1.803 -1.477,-3.289 -3.28,-3.3m-2.75,14.68c-0.003,0 -0.007,0 -0.01,0c-1.448,0 -2.64,1.192 -2.64,2.64c0,1.448 1.192,2.64 2.64,2.64c1.444,0 2.635,-1.186 2.64,-2.63c0,-0.003 0,-0.007 0,-0.01c0,-1.445 -1.186,-2.635 -2.63,-2.64m2.66,14.54c-1.097,0 -2,0.903 -2,2c0,1.097 0.903,2 2,2c1.097,0 2,-0.903 2,-2c0,-1.097 -0.903,-2 -2,-2" style="fill:rgb(2,169,205);fill-rule:nonzero;"/>        </g>    </g></svg>