<?xml version="1.0" encoding="UTF-8" standalone="no"?><!DOCTYPE svg PUBLIC "-//W3C//DTD SVG 1.1//EN" "http://www.w3.org/Graphics/SVG/1.1/DTD/svg11.dtd"><svg width="100%" height="100%" viewBox="0 0 1024 512" version="1.1" xmlns="http://www.w3.org/2000/svg" xmlns:xlink="http://www.w3.org/1999/xlink" xml:space="preserve" style="fill-rule:evenodd;clip-rule:evenodd;stroke-linejoin:round;stroke-miterlimit:2;"><title>Target Circle</title><desc></desc>    <g id="TargetCircle" transform="matrix(0.570378,0,0,0.570378,-16.948,99.9723)">        <g>            <path d="M279.83,408.356c-11.92,0 -23.263,-1.115 -33.056,-3.242l0,-24.008l0.054,-0.008l0,-279.37l-5.505,1.262c-46.286,10.61 -86.662,40.043 -111.167,80.934l-75.283,0c17.35,-43.56 46.717,-80.903 85.244,-108.294c41.192,-29.287 89.705,-44.767 140.294,-44.767c50.586,0 99.099,15.479 140.287,44.766c38.525,27.391 67.895,64.734 85.241,108.294l-75.276,0c-24.726,-41.276 -65.508,-70.802 -112.286,-81.193l-5.476,-1.216l0,278.389l0.007,0.004l0,25.219c-9.777,2.117 -21.128,3.23 -33.078,3.23Z" style="fill:rgb(0,180,255);fill-rule:nonzero;"/>            <path d="M280.41,35.363c49.646,0 97.255,15.192 137.68,43.933c19.472,13.843 36.727,30.473 51.286,49.427c12.041,15.672 22.04,32.68 29.82,50.699l-66.006,0c-25.478,-41.186 -66.688,-70.612 -113.839,-81.086l-10.951,-2.433l0,286.733l0.007,0.004l0,18.789c-8.629,1.576 -18.526,2.426 -28.577,2.426c-10.187,0 -19.918,-0.834 -28.556,-2.43l0,-16.381l0.054,-0.006l0,-7.902l0,-269.76l0,-11.295l-11.011,2.524c-46.648,10.693 -87.44,40.021 -112.69,80.82l-66.013,0c7.781,-18.019 17.78,-35.027 29.821,-50.699c14.562,-18.955 31.818,-35.584 51.288,-49.427c40.426,-28.744 88.037,-43.936 137.687,-43.936m0,-9c-106.399,0 -197.312,67.575 -232.08,162.06l84.396,0c23.389,-40.38 62.867,-70.334 109.602,-81.047l0,269.762c-0.022,0.002 -0.039,0.01 -0.054,0.016l0,31.527c10.394,2.609 23.394,4.176 37.556,4.176c14.156,0 27.187,-1.555 37.577,-4.16l0,-31.533c-0.002,-0.002 -0.005,-0.002 -0.007,-0.002l0,-270.038c47.215,10.488 87.123,40.6 110.689,81.3l84.391,0c-34.767,-94.485 -125.678,-162.061 -232.07,-162.061Z" style="fill:rgb(0,180,255);fill-rule:nonzero;"/>        </g>        <g>            <path d="M280.41,516.237c-133.819,0 -242.689,-108.869 -242.689,-242.688c0,-16.868 1.75,-33.702 5.204,-50.097l69.778,-0.002c-4.856,16.205 -7.314,33.027 -7.314,50.099c0,96.506 78.515,175.022 175.022,175.022c96.502,0 175.013,-78.518 175.013,-175.022c0,-17.063 -2.459,-33.888 -7.313,-50.097l69.777,0c3.453,16.396 5.203,33.229 5.203,50.097c-0.001,133.819 -108.867,242.688 -242.681,242.688Z" style="fill:rgb(171,195,45);fill-rule:nonzero;"/>            <path d="M106.762,227.952c-3.902,14.827 -5.875,30.114 -5.875,45.599c0,98.988 80.533,179.521 179.522,179.521c98.983,0 179.513,-80.533 179.513,-179.521c0,-15.479 -1.973,-30.766 -5.875,-45.597l60.158,0c2.911,14.96 4.386,30.265 4.386,45.597c0,131.337 -106.849,238.189 -238.182,238.189c-131.338,0 -238.189,-106.854 -238.189,-238.189c0,-15.334 1.473,-30.638 4.383,-45.597l60.159,-0.002m12.1,-9.001l-79.561,0.003c-3.978,17.569 -6.081,35.842 -6.081,54.597c0,136.298 110.89,247.189 247.189,247.189c136.291,0 247.181,-110.891 247.181,-247.189c0,-18.755 -2.104,-37.027 -6.08,-54.597l-79.563,0c5.815,17.147 8.975,35.509 8.975,54.597c0,94.023 -76.492,170.521 -170.513,170.521c-94.021,0 -170.522,-76.498 -170.522,-170.521c0,-19.092 3.158,-37.454 8.975,-54.6Z" style="fill:rgb(171,195,45);fill-rule:nonzero;"/>        </g>        <g>            <path d="M604.242,224.607l134.074,0l0,28.526l-49.446,0l0,86.213l-35.181,0l0,-86.213l-49.447,0l0,-28.526Z" style="fill:rgb(49,49,49);fill-rule:nonzero;"/>            <path d="M724.588,310.979c0,-22.029 15.217,-23.297 44.692,-23.297c16.64,0 25.834,0.479 31.695,6.496l0,-7.131c0,-7.922 -2.376,-10.775 -14.263,-10.775l-17.908,0c-8.875,0 -11.411,0.791 -11.729,6.496l-29.478,0c0,-21.869 10.774,-25.514 36.446,-25.514l35.344,0c20.92,0 32.015,9.983 32.015,29.002l0,53.09l-28.845,0l0,-9.191c-8.399,8.719 -11.567,10.461 -26.783,10.461l-20.761,0c-18.541,0.156 -30.431,-3.963 -30.431,-22.98l0,-6.656l0.006,0l0,-0.001Zm54.2,10.62c20.92,0 22.822,-3.172 22.822,-8.561c0,-6.021 -1.743,-8.24 -18.542,-8.24l-13.472,0c-12.835,0 -15.531,2.854 -15.531,9.508c0,5.23 4.121,7.293 16.006,7.293l8.717,0Z" style="fill:rgb(49,49,49);fill-rule:nonzero;"/>            <path d="M844.478,258.521l28.525,0l0,15.373l0.316,0c3.486,-12.837 15.85,-16.64 29.637,-16.64c22.188,0 30.903,9.508 30.903,31.854c0,2.061 -0.158,4.279 -0.318,7.131l-26.307,0c0,-10.301 -2.375,-15.213 -14.58,-15.213c-10.459,0 -17.748,3.961 -17.748,13.629l0,44.689l-30.428,0l0,-80.823Z" style="fill:rgb(49,49,49);fill-rule:nonzero;"/>            <path d="M944.914,288.948c0,-25.038 12.836,-31.694 37.084,-31.694l17.75,0c15.373,0 19.02,1.901 26.625,12.36l0.316,0l0,-11.096l28.525,0l0,75.755c0,16.801 -5.391,33.281 -43.582,33.281l-33.6,0c-20.441,0 -32.012,-4.914 -32.012,-25.197l31.377,0c0,3.803 2.537,6.18 7.449,6.18l22.029,0c13.313,0 19.811,-4.277 19.811,-17.908l0,-5.387c-6.021,6.02 -11.094,8.396 -27.258,8.396l-16.008,0c-29.479,0 -38.512,-11.727 -38.512,-33.598l0,-11.096l0.004,0l0,0.004l0.002,0Zm62.916,22.823c15.059,0 18.543,-3.961 18.543,-16.164c0,-12.359 -3.484,-16.479 -18.543,-16.479l-14.896,0c-15.057,0 -18.543,4.12 -18.543,16.479c0,12.203 3.486,16.164 18.543,16.164l14.896,0Z" style="fill:rgb(49,49,49);fill-rule:nonzero;"/>            <path d="M1069.12,294.497c0,-30.586 15.215,-37.243 37.402,-37.243l21.234,0c32.328,0 45.645,6.813 45.645,34.864l0,13.631l-73.854,0l0,4.912c0,8.559 6.021,10.938 18.701,10.938l9.352,0c16.48,0 17.273,-4.438 17.273,-9.193l28.527,0l0,3.486c0,20.285 -18.068,24.723 -40.096,24.723l-22.824,0c-20.125,0 -41.363,-3.803 -41.363,-38.354l0.003,-7.764Zm74.803,-6.814c0,-9.667 -4.438,-11.41 -22.188,-11.41c-19.809,0 -22.188,1.742 -22.188,11.41l44.376,0Z" style="fill:rgb(49,49,49);fill-rule:nonzero;"/>            <path d="M1199.41,280.392l-15.213,0l0,-21.871l15.213,0l0,-19.017l30.428,0l0,19.017l47.23,0l0,21.871l-47.23,0l0,31.064c0,6.02 4.439,7.289 11.729,7.289c9.826,0 12.52,-2.221 12.52,-9.668l0,-5.391l26.623,0l0,9.828c0,15.371 -10.143,27.1 -34.391,27.1l-12.041,0c-18.701,0 -34.867,-5.863 -34.867,-28.209l0,-32.013l-0.001,0Z" style="fill:rgb(49,49,49);fill-rule:nonzero;"/>            <path d="M1302.81,267.894c0,-7.289 0.658,-13.604 1.979,-18.938c1.318,-5.333 3.566,-9.798 6.736,-13.392c3.17,-3.59 7.367,-6.259 12.598,-8.002c5.23,-1.744 11.754,-2.615 19.574,-2.615l59.426,0c7.08,0 12.916,0.769 17.516,2.299c4.596,1.533 8.266,3.593 11.014,6.181c2.748,2.591 4.676,5.626 5.785,9.113c1.107,3.485 1.662,7.131 1.662,10.934l0,9.826l-13.627,0l0,-5.229c0,-4.856 -0.715,-8.66 -2.141,-11.409c-1.428,-2.747 -3.326,-4.779 -5.705,-6.103c-2.381,-1.32 -5.15,-2.139 -8.318,-2.457c-3.172,-0.315 -6.551,-0.475 -10.145,-0.475l-53.883,0c-3.699,0 -7.188,0.345 -10.461,1.029c-3.275,0.689 -6.127,1.931 -8.559,3.726c-2.432,1.797 -4.357,4.279 -5.783,7.448c-1.426,3.17 -2.143,7.236 -2.143,12.203l0,43.103c0,4.969 0.717,9.035 2.143,12.203c1.426,3.17 3.354,5.654 5.783,7.449c2.432,1.799 5.281,3.039 8.559,3.723c3.273,0.691 6.762,1.031 10.461,1.031l54.357,0c5.174,0 9.508,-0.316 12.994,-0.951c3.484,-0.635 6.262,-1.715 8.318,-3.248c2.064,-1.531 3.516,-3.564 4.359,-6.102c0.843,-2.538 1.27,-5.758 1.27,-9.668l0,-7.133l14.578,0l0,7.768c0,5.178 -0.504,9.771 -1.506,13.787c-1.006,4.018 -2.934,7.369 -5.785,10.063c-2.852,2.691 -6.813,4.73 -11.885,6.102c-5.072,1.373 -11.625,2.061 -19.652,2.061l-58.635,0c-7.82,0 -14.344,-0.871 -19.574,-2.615c-5.229,-1.74 -9.428,-4.408 -12.598,-8.002c-3.17,-3.59 -5.418,-8.057 -6.736,-13.393c-1.32,-5.332 -1.979,-11.648 -1.979,-18.938l0.003,-31.379Z" style="fill:rgb(49,49,49);fill-rule:nonzero;"/>            <path d="M1456.22,226.212l13.631,0l0,14.896l-13.631,0l0,-14.896Zm0,33.915l13.631,0l0,80.823l-13.631,0l0,-80.823Z" style="fill:rgb(49,49,49);fill-rule:nonzero;"/>            <path d="M1484.21,260.127l12.68,0l0,11.728l0.316,0c1.27,-2.641 2.826,-4.807 4.676,-6.498c1.85,-1.688 3.883,-3.012 6.104,-3.963c2.219,-0.949 4.516,-1.607 6.893,-1.979c2.379,-0.369 4.729,-0.557 7.055,-0.557l12.836,0c6.338,0 11.674,0.529 16.006,1.584c4.332,1.059 7.816,2.723 10.461,4.992c2.639,2.273 4.541,5.18 5.705,8.717c1.16,3.541 1.744,7.792 1.744,12.757l0,9.668l-12.682,0l0,-3.486c0,-4.965 -0.344,-8.979 -1.027,-12.043c-0.689,-3.064 -2.037,-5.415 -4.041,-7.054c-2.012,-1.637 -4.891,-2.717 -8.639,-3.248c-3.752,-0.526 -8.639,-0.792 -14.66,-0.792l-8.396,0c-3.594,0 -6.736,0.53 -9.432,1.585c-2.693,1.058 -4.912,2.484 -6.654,4.277c-1.742,1.8 -3.064,3.884 -3.963,6.261c-0.898,2.377 -1.348,4.889 -1.348,7.527l0,51.348l-13.631,0l-0.003,-80.824Z" style="fill:rgb(49,49,49);fill-rule:nonzero;"/>            <path d="M1578.11,291.507c0,-7.291 1.188,-13.099 3.564,-17.433c2.377,-4.332 5.469,-7.635 9.271,-9.904c3.801,-2.271 8.133,-3.727 12.996,-4.359c4.854,-0.634 9.77,-0.949 14.734,-0.949l22.822,0c12.678,0 21.736,2.433 27.178,7.289c5.441,4.86 8.162,11.567 8.162,20.128l0,2.219l-12.68,0l0,-1.902c0,-3.381 -0.529,-6.152 -1.584,-8.32c-1.059,-2.164 -2.563,-3.854 -4.518,-5.07c-1.953,-1.213 -4.334,-2.063 -7.131,-2.535c-2.803,-0.479 -5.891,-0.713 -9.271,-0.713l-25.037,0c-3.17,0 -6.262,0.214 -9.273,0.634c-3.012,0.424 -5.678,1.374 -8.002,2.853c-2.322,1.48 -4.174,3.674 -5.547,6.578c-1.375,2.908 -2.059,6.895 -2.059,11.965l0,16.957c0,4.543 0.656,8.24 1.979,11.096c1.32,2.852 3.193,5.098 5.625,6.732c2.432,1.643 5.334,2.773 8.719,3.406c3.379,0.635 7.131,0.951 11.25,0.951l22.979,0c3.17,0 6.154,-0.262 8.953,-0.791c2.799,-0.527 5.283,-1.453 7.449,-2.775c2.166,-1.316 3.855,-3.063 5.07,-5.229c1.215,-2.164 1.822,-4.887 1.822,-8.16l0,-2.695l12.682,0l0,2.379c0,5.068 -0.662,9.402 -1.982,12.994c-1.322,3.592 -3.408,6.525 -6.26,8.795c-2.855,2.273 -6.525,3.938 -11.016,4.992c-4.491,1.054 -9.904,1.584 -16.246,1.584l-30.742,0c-3.064,0 -6.553,-0.314 -10.459,-0.951c-3.91,-0.633 -7.607,-2.084 -11.096,-4.354c-3.484,-2.271 -6.418,-5.572 -8.795,-9.908c-2.377,-4.328 -3.563,-10.143 -3.563,-17.432l0,-18.068l0.004,0l0,-0.004l0.002,0Z" style="fill:rgb(49,49,49);fill-rule:nonzero;"/>            <rect x="1689.97" y="226.212" width="13.629" height="114.738" style="fill:rgb(49,49,49);fill-rule:nonzero;"/>            <path d="M1718.02,291.507c0,-7.291 1.16,-13.099 3.486,-17.433c2.322,-4.332 5.359,-7.635 9.113,-9.904c3.748,-2.271 7.975,-3.727 12.678,-4.359c4.699,-0.634 9.48,-0.949 14.342,-0.949l21.871,0c6.125,0 11.752,0.476 16.875,1.426c5.123,0.951 9.535,2.722 13.234,5.31c3.695,2.591 6.6,6.156 8.715,10.698c2.111,4.542 3.172,10.406 3.172,17.591l0,9.033l-89.857,0l0,5.068c0,4.65 0.578,8.455 1.744,11.41c1.162,2.959 3.033,5.313 5.625,7.055c2.588,1.742 5.969,2.959 10.141,3.645c4.174,0.688 9.219,1.029 15.137,1.029l18.701,0c4.227,0 7.869,-0.186 10.934,-0.555c3.065,-0.369 5.6,-1.082 7.607,-2.141c2.006,-1.055 3.51,-2.535 4.518,-4.438c1.004,-1.898 1.607,-4.383 1.82,-7.447l13.631,0l0,1.586c0,4.648 -0.928,8.504 -2.771,11.568c-1.854,3.064 -4.543,5.521 -8.082,7.369c-3.541,1.85 -7.82,3.17 -12.838,3.961c-5.021,0.793 -10.697,1.189 -17.037,1.189l-24.721,0c-4.439,0 -8.932,-0.314 -13.475,-0.953c-4.543,-0.631 -8.635,-2.109 -12.281,-4.436c-3.645,-2.324 -6.604,-5.65 -8.875,-9.984c-2.27,-4.33 -3.404,-10.246 -3.404,-17.75l-0.003,-17.589Zm89.856,-5.072c0,-2.006 -0.449,-4.014 -1.346,-6.02c-0.898,-2.005 -2.404,-3.777 -4.518,-5.31c-2.113,-1.531 -5.02,-2.773 -8.717,-3.727c-3.699,-0.951 -8.297,-1.426 -13.785,-1.426l-19.971,0c-5.389,0 -9.826,0.292 -13.313,0.871c-3.486,0.582 -6.26,1.664 -8.32,3.25c-2.059,1.584 -3.541,3.802 -4.439,6.654c-0.896,2.854 -1.506,6.553 -1.82,11.094l76.227,0l0.002,-5.386Z" style="fill:rgb(49,49,49);fill-rule:nonzero;"/>        </g>    </g></svg>