<?xml version="1.0" encoding="UTF-8" standalone="no"?><!DOCTYPE svg PUBLIC "-//W3C//DTD SVG 1.1//EN" "http://www.w3.org/Graphics/SVG/1.1/DTD/svg11.dtd"><svg width="100%" height="100%" viewBox="0 0 1024 512" version="1.1" xmlns="http://www.w3.org/2000/svg" xmlns:xlink="http://www.w3.org/1999/xlink" xml:space="preserve" style="fill-rule:evenodd;clip-rule:evenodd;stroke-linejoin:round;stroke-miterlimit:2;"><title>MiCrowd</title><desc>Microwd is a fintech that connects women entrepreneurs in Latin America who want a microloan with investors looking for economic profitability and social impact. We are not an NGO, we are a company. We are competitive with the stock market and we create WIN-WIN situations.  Our mission is to accelerate the development of communities through financial services.</desc>    <g transform="matrix(2.18354,0,0,1.21646,-10.9108,183.849)">        <g transform="matrix(62.7252,0,0,138.403,1.52203,97.2341)">            <rect x="0.07" y="-0.742" width="0.174" height="0.936" style="fill:rgb(0,255,168);fill-rule:nonzero;"/>        </g>        <g transform="matrix(77.0806,0,0,144,24.2033,106.848)">            <path d="M0.702,0l-0.002,-0.371l-0.18,0.302l-0.088,0l-0.179,-0.292l0,0.361l-0.183,0l0,-0.7l0.163,0l0.246,0.404l0.24,-0.404l0.163,0l0.002,0.7l-0.182,0Z" style="fill:rgb(0,255,168);fill-rule:nonzero;"/>        </g>        <g transform="matrix(77.0806,0,0,144,97.7382,106.848)">            <rect x="0.07" y="-0.7" width="0.198" height="0.7" style="fill:rgb(0,255,168);fill-rule:nonzero;"/>        </g>        <g transform="matrix(77.0806,0,0,144,123.868,106.848)">            <path d="M0.419,0.014c-0.073,0 -0.139,-0.016 -0.197,-0.047c-0.059,-0.031 -0.105,-0.074 -0.138,-0.129c-0.033,-0.055 -0.05,-0.118 -0.05,-0.188c0,-0.07 0.017,-0.133 0.05,-0.188c0.033,-0.055 0.079,-0.098 0.138,-0.129c0.058,-0.031 0.124,-0.047 0.197,-0.047c0.064,0 0.122,0.011 0.173,0.034c0.051,0.023 0.094,0.055 0.128,0.098l-0.126,0.114c-0.045,-0.055 -0.1,-0.082 -0.165,-0.082c-0.038,0 -0.072,0.008 -0.101,0.025c-0.03,0.017 -0.053,0.04 -0.069,0.071c-0.017,0.03 -0.025,0.065 -0.025,0.104c0,0.039 0.008,0.074 0.025,0.104c0.016,0.031 0.039,0.054 0.069,0.071c0.029,0.017 0.063,0.025 0.101,0.025c0.065,0 0.12,-0.027 0.165,-0.082l0.126,0.114c-0.034,0.043 -0.077,0.075 -0.128,0.098c-0.051,0.023 -0.109,0.034 -0.173,0.034Z" style="fill:rgb(0,255,168);fill-rule:nonzero;"/>        </g>        <g transform="matrix(77.0806,0,0,144,180.754,106.848)">            <path d="M0.376,-0.186l-0.108,0l0,0.186l-0.198,0l0,-0.7l0.32,0c0.063,0 0.118,0.01 0.165,0.032c0.047,0.021 0.083,0.05 0.108,0.09c0.025,0.039 0.038,0.084 0.038,0.137c0,0.051 -0.012,0.095 -0.036,0.133c-0.023,0.037 -0.057,0.067 -0.101,0.088l0.151,0.22l-0.212,0l-0.127,-0.186Zm0.125,-0.255c0,-0.033 -0.01,-0.058 -0.031,-0.076c-0.021,-0.018 -0.051,-0.027 -0.092,-0.027l-0.11,0l0,0.205l0.11,0c0.041,0 0.071,-0.009 0.092,-0.026c0.021,-0.018 0.031,-0.043 0.031,-0.076Z" style="fill:rgb(0,255,168);fill-rule:nonzero;"/>        </g>        <g transform="matrix(77.0806,0,0,144,237.794,106.848)">            <path d="M0.423,0.014c-0.074,0 -0.14,-0.016 -0.199,-0.047c-0.059,-0.031 -0.106,-0.075 -0.139,-0.13c-0.034,-0.055 -0.051,-0.118 -0.051,-0.187c0,-0.069 0.017,-0.132 0.051,-0.187c0.033,-0.055 0.08,-0.099 0.139,-0.13c0.059,-0.031 0.125,-0.047 0.199,-0.047c0.074,0 0.141,0.016 0.2,0.047c0.059,0.031 0.105,0.075 0.139,0.13c0.033,0.055 0.05,0.118 0.05,0.187c0,0.069 -0.017,0.132 -0.05,0.187c-0.034,0.055 -0.08,0.099 -0.139,0.13c-0.059,0.031 -0.126,0.047 -0.2,0.047Zm0,-0.164c0.035,0 0.067,-0.008 0.096,-0.025c0.029,-0.017 0.051,-0.04 0.068,-0.071c0.017,-0.03 0.025,-0.065 0.025,-0.104c0,-0.039 -0.008,-0.074 -0.025,-0.105c-0.017,-0.03 -0.039,-0.053 -0.068,-0.07c-0.029,-0.017 -0.061,-0.025 -0.096,-0.025c-0.035,0 -0.067,0.008 -0.096,0.025c-0.029,0.017 -0.051,0.04 -0.068,0.07c-0.017,0.031 -0.025,0.066 -0.025,0.105c0,0.039 0.008,0.074 0.025,0.104c0.017,0.031 0.039,0.054 0.068,0.071c0.029,0.017 0.061,0.025 0.096,0.025Z" style="fill:rgb(0,255,168);fill-rule:nonzero;"/>        </g>        <g transform="matrix(77.0806,0,0,144,301.154,106.848)">            <path d="M1.168,-0.7l-0.227,0.7l-0.212,0l-0.134,-0.426l-0.14,0.426l-0.212,0l-0.227,-0.7l0.204,0l0.141,0.447l0.148,-0.447l0.182,0l0.141,0.451l0.147,-0.451l0.189,0Z" style="fill:rgb(0,255,168);fill-rule:nonzero;"/>        </g>        <g transform="matrix(77.0806,0,0,144,391.261,106.848)">            <path d="M0.07,-0.7l0.331,0c0.077,0 0.145,0.014 0.204,0.043c0.059,0.029 0.105,0.069 0.138,0.122c0.033,0.053 0.049,0.114 0.049,0.185c0,0.071 -0.016,0.132 -0.049,0.185c-0.033,0.053 -0.079,0.093 -0.138,0.122c-0.059,0.029 -0.127,0.043 -0.204,0.043l-0.331,0l0,-0.7Zm0.323,0.542c0.06,0 0.108,-0.017 0.145,-0.051c0.036,-0.034 0.054,-0.081 0.054,-0.141c0,-0.06 -0.018,-0.107 -0.054,-0.141c-0.037,-0.034 -0.085,-0.051 -0.145,-0.051l-0.125,0l0,0.384l0.125,0Z" style="fill:rgb(0,255,168);fill-rule:nonzero;"/>        </g>        <g transform="matrix(77.0806,0,0,144,453.388,106.848)">            <path d="M0.141,0.009c-0.032,0 -0.059,-0.011 -0.081,-0.032c-0.022,-0.021 -0.033,-0.048 -0.033,-0.081c0,-0.033 0.011,-0.06 0.032,-0.081c0.022,-0.021 0.049,-0.031 0.082,-0.031c0.033,0 0.061,0.01 0.082,0.031c0.021,0.021 0.032,0.048 0.032,0.081c0,0.033 -0.011,0.06 -0.033,0.081c-0.021,0.021 -0.048,0.032 -0.081,0.032Z" style="fill:rgb(0,255,168);fill-rule:nonzero;"/>        </g>    </g></svg>