<?xml version="1.0" encoding="UTF-8" standalone="no"?><!DOCTYPE svg PUBLIC "-//W3C//DTD SVG 1.1//EN" "http://www.w3.org/Graphics/SVG/1.1/DTD/svg11.dtd"><svg width="100%" height="100%" viewBox="0 0 1024 512" version="1.1" xmlns="http://www.w3.org/2000/svg" xmlns:xlink="http://www.w3.org/1999/xlink" xml:space="preserve" style="fill-rule:evenodd;clip-rule:evenodd;stroke-linejoin:round;stroke-miterlimit:2;"><title>Platform One</title><desc>Platform One was launched in 2011 by a group of established financial services firms, who shared the vision of creating a premium online platform designed for advised high net worth clients.Platform One is a UK and International platform service. It has been designed with UK HNW clients in mind, and also to meet the growing needs of the international market-place. Advisers and their clients from around the world can now access the benefits of a UK regulated wrap platform with exceptional service standards.</desc>    <g transform="matrix(20.2754,0,0,4.84478,-2086.87,92.9529)">        <g transform="matrix(7.94785,0,0,36,102.671,48.7416)">            <path d="M0.578,-0.522c0,0.036 -0.007,0.068 -0.021,0.096c-0.014,0.028 -0.034,0.051 -0.059,0.069c-0.025,0.018 -0.052,0.032 -0.081,0.04c-0.03,0.009 -0.062,0.013 -0.095,0.013l-0.077,-0l-0,0.21c-0,0.011 0.002,0.021 0.005,0.03c0.004,0.008 0.012,0.015 0.023,0.02c0.006,0.002 0.017,0.004 0.031,0.006c0.015,0.002 0.029,0.003 0.041,0.003l0,0.035l-0.297,0l-0,-0.035c0.008,-0 0.019,-0.001 0.034,-0.003c0.015,-0.002 0.025,-0.004 0.031,-0.006c0.01,-0.005 0.017,-0.011 0.021,-0.019c0.004,-0.008 0.007,-0.019 0.007,-0.031l-0,-0.5c-0,-0.012 -0.002,-0.022 -0.005,-0.031c-0.004,-0.009 -0.011,-0.016 -0.023,-0.021c-0.013,-0.004 -0.025,-0.007 -0.037,-0.009c-0.012,-0.001 -0.023,-0.003 -0.032,-0.003l0,-0.035l0.317,0c0.064,0 0.117,0.016 0.157,0.047c0.04,0.031 0.06,0.072 0.06,0.124Zm-0.148,0.118c0.011,-0.015 0.018,-0.032 0.022,-0.048c0.003,-0.017 0.005,-0.032 0.005,-0.046c0,-0.018 -0.002,-0.037 -0.007,-0.056c-0.004,-0.019 -0.012,-0.036 -0.022,-0.05c-0.012,-0.016 -0.027,-0.028 -0.045,-0.036c-0.019,-0.009 -0.042,-0.013 -0.07,-0.013l-0.068,0l-0,0.306l0.049,0c0.036,0 0.064,-0.005 0.086,-0.016c0.022,-0.011 0.039,-0.025 0.05,-0.041Z" style="fill:rgb(154,114,0);fill-rule:nonzero;"/>        </g>        <g transform="matrix(7.94785,0,0,36,107.519,48.7416)">            <path d="M0.261,-0l-0.235,-0l-0,-0.032c0.007,-0.001 0.015,-0.002 0.024,-0.002c0.008,-0.001 0.015,-0.002 0.021,-0.004c0.009,-0.003 0.016,-0.008 0.02,-0.015c0.005,-0.008 0.007,-0.017 0.007,-0.029l0,-0.558c0,-0.011 -0.002,-0.022 -0.007,-0.033c-0.005,-0.01 -0.012,-0.018 -0.02,-0.024c-0.006,-0.004 -0.017,-0.007 -0.032,-0.011c-0.016,-0.003 -0.029,-0.005 -0.038,-0.005l-0,-0.032l0.181,-0.011l0.007,0.007l-0,0.661c-0,0.012 0.002,0.021 0.006,0.028c0.005,0.008 0.011,0.013 0.021,0.017c0.007,0.003 0.014,0.006 0.021,0.007c0.007,0.002 0.015,0.003 0.024,0.004l-0,0.032Z" style="fill:rgb(154,114,0);fill-rule:nonzero;"/>        </g>        <g transform="matrix(7.94785,0,0,36,109.793,48.7416)">            <path d="M0.491,-0.009c-0.015,0.006 -0.029,0.01 -0.04,0.014c-0.012,0.003 -0.025,0.005 -0.039,0.005c-0.026,-0 -0.046,-0.006 -0.061,-0.018c-0.015,-0.012 -0.025,-0.029 -0.029,-0.052l-0.003,-0c-0.021,0.023 -0.044,0.041 -0.068,0.054c-0.025,0.012 -0.054,0.018 -0.088,0.018c-0.036,0 -0.066,-0.011 -0.089,-0.033c-0.023,-0.022 -0.035,-0.051 -0.035,-0.087c0,-0.018 0.003,-0.035 0.008,-0.05c0.005,-0.014 0.013,-0.028 0.023,-0.039c0.008,-0.01 0.019,-0.019 0.033,-0.026c0.013,-0.008 0.025,-0.014 0.037,-0.019c0.015,-0.005 0.044,-0.015 0.089,-0.03c0.045,-0.015 0.075,-0.027 0.091,-0.036l-0,-0.048c-0,-0.004 -0.001,-0.012 -0.003,-0.024c-0.002,-0.012 -0.005,-0.024 -0.011,-0.035c-0.007,-0.012 -0.016,-0.022 -0.028,-0.031c-0.012,-0.009 -0.029,-0.013 -0.05,-0.013c-0.015,-0 -0.029,0.002 -0.042,0.007c-0.013,0.005 -0.022,0.01 -0.027,0.016c-0,0.006 0.001,0.016 0.004,0.029c0.003,0.012 0.005,0.024 0.005,0.035c-0,0.011 -0.005,0.022 -0.015,0.031c-0.011,0.01 -0.025,0.014 -0.043,0.014c-0.016,0 -0.028,-0.005 -0.036,-0.017c-0.008,-0.012 -0.011,-0.024 -0.011,-0.039c-0,-0.015 0.005,-0.029 0.015,-0.043c0.011,-0.013 0.025,-0.026 0.042,-0.036c0.014,-0.01 0.032,-0.017 0.053,-0.024c0.021,-0.006 0.041,-0.009 0.061,-0.009c0.027,-0 0.051,0.002 0.071,0.005c0.021,0.004 0.039,0.012 0.056,0.025c0.016,0.012 0.029,0.028 0.038,0.049c0.008,0.02 0.013,0.047 0.013,0.08c-0,0.046 -0.001,0.087 -0.002,0.123c-0.001,0.036 -0.001,0.076 -0.001,0.118c-0,0.013 0.002,0.023 0.006,0.031c0.005,0.007 0.011,0.013 0.021,0.019c0.004,0.003 0.012,0.004 0.023,0.004c0.01,0.001 0.021,0.001 0.032,0.001l0,0.031Zm-0.17,-0.258c-0.028,0.009 -0.052,0.017 -0.073,0.024c-0.021,0.008 -0.04,0.018 -0.058,0.03c-0.016,0.011 -0.029,0.024 -0.039,0.039c-0.009,0.015 -0.014,0.033 -0.014,0.054c0,0.027 0.007,0.047 0.021,0.059c0.015,0.013 0.033,0.019 0.054,0.019c0.024,0 0.044,-0.005 0.061,-0.016c0.018,-0.012 0.033,-0.025 0.045,-0.04l0.003,-0.169Z" style="fill:rgb(154,114,0);fill-rule:nonzero;"/>        </g>        <g transform="matrix(7.94785,0,0,36,113.614,48.7416)">            <path d="M0.333,-0.021c-0.022,0.009 -0.042,0.016 -0.061,0.022c-0.018,0.006 -0.042,0.009 -0.069,0.009c-0.04,0 -0.069,-0.01 -0.085,-0.03c-0.017,-0.021 -0.025,-0.049 -0.025,-0.086l0,-0.327l-0.087,0l0,-0.046l0.089,-0l0,-0.15l0.089,-0l0,0.15l0.138,-0l0,0.046l-0.137,0l0,0.269c0,0.021 0.001,0.037 0.002,0.051c0.002,0.013 0.005,0.025 0.011,0.035c0.005,0.01 0.013,0.017 0.023,0.022c0.011,0.005 0.025,0.007 0.042,0.007c0.008,0 0.02,-0.001 0.036,-0.002c0.016,-0.001 0.027,-0.003 0.034,-0.006l-0,0.036Z" style="fill:rgb(154,114,0);fill-rule:nonzero;"/>        </g>        <g transform="matrix(7.94785,0,0,36,116.358,48.7416)">            <path d="M0.394,-0.698c-0,0.015 -0.004,0.027 -0.012,0.037c-0.008,0.01 -0.02,0.015 -0.036,0.015c-0.01,0 -0.019,-0.002 -0.026,-0.006c-0.008,-0.004 -0.015,-0.01 -0.022,-0.017c-0.006,-0.007 -0.012,-0.015 -0.018,-0.024c-0.005,-0.009 -0.01,-0.017 -0.014,-0.022c-0.022,0.001 -0.039,0.016 -0.05,0.045c-0.012,0.03 -0.018,0.077 -0.018,0.141l-0,0.05l0.124,-0l-0,0.046l-0.124,0l-0,0.346c-0,0.011 0.002,0.021 0.006,0.028c0.005,0.007 0.012,0.012 0.021,0.016c0.008,0.003 0.018,0.005 0.031,0.007c0.013,0.002 0.025,0.003 0.034,0.004l0,0.032l-0.254,0l0,-0.032c0.008,-0.001 0.015,-0.002 0.023,-0.002c0.008,-0.001 0.015,-0.002 0.021,-0.004c0.009,-0.003 0.016,-0.008 0.02,-0.015c0.005,-0.008 0.007,-0.017 0.007,-0.029l-0,-0.351l-0.095,0l-0,-0.046l0.095,-0l-0,-0.031c-0,-0.073 0.019,-0.133 0.057,-0.178c0.038,-0.046 0.085,-0.068 0.142,-0.068c0.029,-0 0.051,0.005 0.066,0.017c0.014,0.011 0.022,0.025 0.022,0.041Z" style="fill:rgb(154,114,0);fill-rule:nonzero;"/>        </g>        <g transform="matrix(7.94785,0,0,36,118.942,48.7416)">            <path d="M0.504,-0.246c0,0.034 -0.005,0.068 -0.016,0.1c-0.01,0.033 -0.026,0.061 -0.046,0.083c-0.022,0.027 -0.048,0.046 -0.078,0.059c-0.029,0.012 -0.063,0.019 -0.099,0.019c-0.031,-0 -0.06,-0.006 -0.088,-0.018c-0.027,-0.011 -0.052,-0.028 -0.073,-0.05c-0.022,-0.022 -0.038,-0.049 -0.051,-0.08c-0.013,-0.031 -0.019,-0.067 -0.019,-0.106c0,-0.075 0.022,-0.136 0.066,-0.184c0.044,-0.048 0.101,-0.072 0.172,-0.072c0.067,-0 0.123,0.023 0.167,0.068c0.044,0.045 0.065,0.106 0.065,0.181Zm-0.101,0.001c0,-0.024 -0.002,-0.05 -0.007,-0.077c-0.005,-0.027 -0.012,-0.05 -0.022,-0.069c-0.01,-0.02 -0.024,-0.036 -0.041,-0.049c-0.017,-0.012 -0.038,-0.018 -0.062,-0.018c-0.025,-0 -0.046,0.006 -0.064,0.019c-0.018,0.012 -0.032,0.029 -0.043,0.05c-0.011,0.02 -0.018,0.043 -0.022,0.068c-0.005,0.026 -0.007,0.05 -0.007,0.074c0,0.031 0.003,0.06 0.008,0.087c0.005,0.026 0.013,0.05 0.024,0.071c0.011,0.02 0.025,0.037 0.042,0.049c0.017,0.012 0.037,0.018 0.062,0.018c0.041,-0 0.073,-0.02 0.097,-0.06c0.023,-0.039 0.035,-0.093 0.035,-0.163Z" style="fill:rgb(154,114,0);fill-rule:nonzero;"/>        </g>        <g transform="matrix(7.94785,0,0,36,123.043,48.7416)">            <path d="M0.404,-0.419c-0,0.016 -0.004,0.031 -0.012,0.044c-0.009,0.013 -0.021,0.019 -0.038,0.019c-0.018,0 -0.032,-0.005 -0.042,-0.014c-0.009,-0.01 -0.014,-0.02 -0.014,-0.031c-0,-0.008 0,-0.014 0.002,-0.02c0.001,-0.006 0.002,-0.012 0.003,-0.017c-0.016,-0 -0.033,0.006 -0.054,0.018c-0.02,0.012 -0.038,0.03 -0.052,0.053l-0,0.28c-0,0.011 0.002,0.021 0.006,0.028c0.005,0.007 0.012,0.012 0.021,0.016c0.008,0.003 0.019,0.006 0.032,0.007c0.012,0.002 0.024,0.003 0.033,0.004l0,0.032l-0.254,0l0,-0.032c0.008,-0.001 0.015,-0.002 0.023,-0.002c0.008,-0.001 0.015,-0.002 0.021,-0.004c0.009,-0.003 0.016,-0.008 0.02,-0.015c0.005,-0.008 0.007,-0.017 0.007,-0.029l-0,-0.297c-0,-0.01 -0.002,-0.02 -0.007,-0.03c-0.005,-0.01 -0.011,-0.018 -0.02,-0.024c-0.006,-0.004 -0.013,-0.006 -0.022,-0.008c-0.008,-0.002 -0.017,-0.003 -0.027,-0.004l-0,-0.032l0.16,-0.01l0.007,0.007l-0,0.067l0.002,0c0.02,-0.026 0.043,-0.046 0.068,-0.06c0.024,-0.013 0.047,-0.02 0.067,-0.02c0.021,-0 0.038,0.007 0.051,0.02c0.012,0.013 0.019,0.031 0.019,0.054Z" style="fill:rgb(154,114,0);fill-rule:nonzero;"/>        </g>        <g transform="matrix(7.94785,0,0,36,126.299,48.7416)">            <path d="M0.86,-0l-0.235,-0l0,-0.032c0.007,-0.001 0.015,-0.002 0.023,-0.002c0.007,-0.001 0.014,-0.002 0.02,-0.004c0.009,-0.003 0.016,-0.008 0.02,-0.015c0.005,-0.008 0.007,-0.017 0.007,-0.029l-0,-0.249c-0,-0.033 -0.008,-0.06 -0.023,-0.078c-0.016,-0.018 -0.035,-0.028 -0.058,-0.028c-0.016,0 -0.031,0.003 -0.045,0.008c-0.014,0.005 -0.027,0.012 -0.039,0.02c-0.009,0.007 -0.017,0.015 -0.023,0.024c-0.007,0.008 -0.012,0.015 -0.015,0.02l0,0.278c0,0.011 0.002,0.021 0.006,0.028c0.004,0.007 0.011,0.013 0.02,0.017c0.008,0.003 0.014,0.005 0.02,0.007c0.006,0.001 0.014,0.002 0.024,0.003l0,0.032l-0.23,-0l0,-0.032c0.008,-0.001 0.015,-0.002 0.022,-0.002c0.007,-0.001 0.013,-0.002 0.019,-0.004c0.009,-0.003 0.016,-0.008 0.02,-0.015c0.005,-0.008 0.007,-0.017 0.007,-0.029l-0,-0.249c-0,-0.033 -0.008,-0.06 -0.023,-0.078c-0.016,-0.018 -0.035,-0.028 -0.058,-0.028c-0.016,0 -0.031,0.003 -0.045,0.008c-0.014,0.005 -0.027,0.012 -0.039,0.021c-0.009,0.007 -0.017,0.015 -0.024,0.024c-0.006,0.009 -0.011,0.016 -0.014,0.02l-0,0.276c-0,0.011 0.002,0.02 0.007,0.028c0.004,0.007 0.011,0.013 0.02,0.017c0.007,0.003 0.014,0.006 0.021,0.007c0.007,0.002 0.015,0.003 0.024,0.004l0,0.032l-0.234,-0l0,-0.032c0.008,-0.001 0.015,-0.002 0.023,-0.002c0.008,-0.001 0.015,-0.002 0.021,-0.004c0.009,-0.003 0.016,-0.008 0.02,-0.015c0.005,-0.008 0.007,-0.017 0.007,-0.029l-0,-0.299c-0,-0.011 -0.002,-0.02 -0.007,-0.028c-0.005,-0.009 -0.011,-0.016 -0.02,-0.022c-0.006,-0.004 -0.014,-0.007 -0.023,-0.009c-0.009,-0.003 -0.018,-0.004 -0.028,-0.005l-0,-0.032l0.161,-0.01l0.007,0.007l-0,0.068l0.003,0c0.008,-0.008 0.018,-0.017 0.03,-0.028c0.012,-0.011 0.023,-0.02 0.033,-0.027c0.011,-0.008 0.025,-0.015 0.042,-0.02c0.018,-0.005 0.036,-0.008 0.056,-0.008c0.031,0 0.058,0.009 0.08,0.026c0.023,0.016 0.039,0.037 0.049,0.06c0.011,-0.011 0.022,-0.021 0.031,-0.03c0.009,-0.008 0.021,-0.018 0.035,-0.027c0.013,-0.009 0.027,-0.016 0.044,-0.021c0.017,-0.005 0.035,-0.008 0.056,-0.008c0.04,0 0.073,0.014 0.096,0.04c0.024,0.027 0.036,0.068 0.036,0.123l0,0.245c0,0.011 0.002,0.021 0.006,0.028c0.004,0.007 0.011,0.013 0.02,0.017c0.007,0.003 0.015,0.005 0.022,0.007c0.008,0.001 0.016,0.002 0.025,0.003l-0,0.032Z" style="fill:rgb(154,114,0);fill-rule:nonzero;"/>        </g>        <g transform="matrix(7.94785,0,0,36,135.584,48.7416)">            <path d="M0.607,-0.611c0.031,0.032 0.055,0.071 0.072,0.116c0.017,0.045 0.026,0.095 0.026,0.149c0,0.055 -0.009,0.105 -0.026,0.15c-0.018,0.045 -0.042,0.083 -0.074,0.115c-0.03,0.031 -0.065,0.055 -0.105,0.072c-0.04,0.017 -0.083,0.026 -0.128,0.026c-0.048,-0 -0.093,-0.009 -0.133,-0.027c-0.041,-0.019 -0.076,-0.044 -0.106,-0.076c-0.029,-0.032 -0.052,-0.07 -0.069,-0.115c-0.017,-0.045 -0.025,-0.093 -0.025,-0.145c0,-0.056 0.009,-0.106 0.026,-0.15c0.018,-0.044 0.042,-0.083 0.073,-0.115c0.031,-0.032 0.066,-0.056 0.107,-0.073c0.04,-0.017 0.083,-0.025 0.127,-0.025c0.046,-0 0.089,0.008 0.13,0.025c0.041,0.018 0.076,0.042 0.105,0.073Zm-0.072,0.491c0.018,-0.029 0.031,-0.063 0.039,-0.1c0.009,-0.038 0.013,-0.079 0.013,-0.126c-0,-0.047 -0.005,-0.091 -0.014,-0.131c-0.009,-0.039 -0.023,-0.073 -0.041,-0.101c-0.018,-0.028 -0.04,-0.049 -0.067,-0.065c-0.027,-0.015 -0.058,-0.023 -0.093,-0.023c-0.039,-0 -0.072,0.009 -0.1,0.027c-0.027,0.018 -0.049,0.042 -0.066,0.072c-0.017,0.028 -0.029,0.062 -0.037,0.1c-0.008,0.039 -0.012,0.079 -0.012,0.121c0,0.047 0.004,0.089 0.013,0.127c0.008,0.038 0.022,0.072 0.04,0.101c0.018,0.028 0.04,0.051 0.066,0.067c0.027,0.016 0.059,0.024 0.096,0.024c0.035,0 0.066,-0.008 0.094,-0.024c0.028,-0.017 0.051,-0.039 0.069,-0.069Z" style="fill:rgb(154,114,0);fill-rule:nonzero;"/>        </g>        <g transform="matrix(7.94785,0,0,36,141.499,48.7416)">            <path d="M0.567,-0l-0.236,-0l0,-0.032c0.008,-0.001 0.016,-0.002 0.025,-0.002c0.009,-0.001 0.016,-0.002 0.022,-0.004c0.009,-0.003 0.016,-0.008 0.02,-0.015c0.005,-0.008 0.007,-0.017 0.007,-0.029l-0,-0.248c-0,-0.034 -0.008,-0.06 -0.024,-0.079c-0.016,-0.018 -0.036,-0.028 -0.059,-0.028c-0.017,0 -0.033,0.003 -0.048,0.009c-0.014,0.005 -0.027,0.011 -0.038,0.019c-0.01,0.008 -0.019,0.016 -0.025,0.024c-0.007,0.009 -0.011,0.016 -0.014,0.021l-0,0.277c-0,0.011 0.002,0.02 0.007,0.027c0.004,0.008 0.011,0.013 0.02,0.017c0.007,0.003 0.014,0.006 0.022,0.007c0.008,0.002 0.017,0.003 0.025,0.004l-0,0.032l-0.236,-0l0,-0.032c0.008,-0.001 0.015,-0.002 0.023,-0.002c0.008,-0.001 0.015,-0.002 0.021,-0.004c0.009,-0.003 0.016,-0.008 0.02,-0.015c0.005,-0.008 0.007,-0.017 0.007,-0.029l-0,-0.297c-0,-0.011 -0.002,-0.022 -0.007,-0.031c-0.005,-0.009 -0.011,-0.017 -0.02,-0.023c-0.006,-0.004 -0.013,-0.006 -0.022,-0.008c-0.008,-0.002 -0.017,-0.003 -0.027,-0.004l-0,-0.032l0.16,-0.01l0.007,0.007l-0,0.067l0.002,0c0.008,-0.007 0.018,-0.017 0.03,-0.028c0.011,-0.011 0.022,-0.019 0.033,-0.026c0.012,-0.008 0.026,-0.015 0.043,-0.02c0.016,-0.005 0.035,-0.008 0.056,-0.008c0.046,0 0.08,0.015 0.103,0.044c0.022,0.028 0.033,0.067 0.033,0.115l0,0.25c0,0.011 0.002,0.021 0.006,0.028c0.004,0.007 0.011,0.012 0.02,0.016c0.008,0.003 0.015,0.006 0.02,0.007c0.006,0.001 0.014,0.002 0.024,0.003l-0,0.032Z" style="fill:rgb(154,114,0);fill-rule:nonzero;"/>        </g>        <g transform="matrix(7.94785,0,0,36,146.011,48.7416)">            <path d="M0.463,-0.113c-0.02,0.038 -0.047,0.069 -0.081,0.092c-0.034,0.022 -0.073,0.034 -0.117,0.034c-0.039,-0 -0.073,-0.007 -0.102,-0.021c-0.029,-0.013 -0.053,-0.032 -0.072,-0.055c-0.019,-0.024 -0.033,-0.051 -0.042,-0.083c-0.009,-0.031 -0.014,-0.064 -0.014,-0.099c0,-0.031 0.005,-0.062 0.015,-0.092c0.01,-0.03 0.025,-0.057 0.044,-0.081c0.018,-0.023 0.041,-0.042 0.069,-0.056c0.027,-0.014 0.058,-0.021 0.092,-0.021c0.036,-0 0.066,0.005 0.091,0.016c0.025,0.012 0.045,0.027 0.061,0.046c0.015,0.018 0.026,0.04 0.033,0.064c0.008,0.025 0.011,0.052 0.011,0.081l0,0.032l-0.319,0c0,0.032 0.003,0.06 0.009,0.086c0.006,0.026 0.016,0.048 0.029,0.068c0.013,0.019 0.029,0.034 0.05,0.045c0.02,0.011 0.045,0.016 0.073,0.016c0.029,-0 0.054,-0.007 0.075,-0.02c0.021,-0.014 0.041,-0.038 0.061,-0.073l0.034,0.021Zm-0.108,-0.184c-0,-0.018 -0.002,-0.038 -0.005,-0.058c-0.003,-0.021 -0.008,-0.039 -0.015,-0.053c-0.007,-0.015 -0.017,-0.027 -0.03,-0.036c-0.013,-0.01 -0.03,-0.014 -0.051,-0.014c-0.034,-0 -0.062,0.014 -0.085,0.042c-0.022,0.029 -0.035,0.068 -0.037,0.119l0.223,0Z" style="fill:rgb(154,114,0);fill-rule:nonzero;"/>        </g>        <g transform="matrix(0.183547,0,0,0.768145,102.303,13.7302)">            <path d="M264.088,5.518c1.134,2.168 7.195,10.679 6.985,12.32c-0.218,1.71 -0.517,3.081 -3.788,3.717c-3.271,0.636 -5.478,0.82 -5.478,0.82l2.555,1.022l-1.459,2.11c-0,0 3.702,-2.056 5.042,-2.335c1.278,-0.266 2.728,-0.527 2.613,0.73c-0.14,1.518 -5.555,10.373 -5.555,10.373c0,-0 11.218,-10.148 10.667,-11.9c-0.551,-1.752 -0.467,-1.944 -0.467,-1.944c0,-0 2.778,-0.333 2.81,-0.734c0.032,-0.4 -2.617,-1.67 -2.617,-1.67c-0,0 0.573,-2.046 -0.601,-3.354c-1.173,-1.307 -0.76,-2.116 -10.707,-9.155Z" style="fill:rgb(154,114,0);"/>        </g>    </g></svg>