<?xml version="1.0" encoding="UTF-8" standalone="no"?><!DOCTYPE svg PUBLIC "-//W3C//DTD SVG 1.1//EN" "http://www.w3.org/Graphics/SVG/1.1/DTD/svg11.dtd"><svg width="100%" height="100%" viewBox="0 0 1024 512" version="1.1" xmlns="http://www.w3.org/2000/svg" xmlns:xlink="http://www.w3.org/1999/xlink" xml:space="preserve" style="fill-rule:evenodd;clip-rule:evenodd;stroke-linejoin:round;stroke-miterlimit:2;"><title>Twino</title><desc>TWINO is an international financial technology company that has issued more than EUR 950 million in loans since its inception in 2009. TWINO Investment Platform was launched in 2015 and since then the platform provides European investors a chance to earn premium returns by investing in consumer loans issued by TWINO Group subsidiaries in Poland, Russia, Latvia, and Kazakhstan.</desc>    <g transform="matrix(9.65909,0,0,9.65909,-13.4545,135.386)">        <path d="M95.5,24.9c-3.1,0 -6,-1.2 -8.2,-3.4c-2.2,-2.2 -3.4,-5.1 -3.4,-8.3c0,-3.2 1.2,-6.1 3.4,-8.3c2.2,-2.2 5.1,-3.4 8.2,-3.4c3.1,0 6.1,1.2 8.3,3.4c2.2,2.2 3.4,5.2 3.4,8.3c0,3.1 -1.2,6.1 -3.4,8.3c-2.2,2.2 -5.1,3.4 -8.3,3.4Zm0,-17.9c-1.6,0 -3.1,0.6 -4.3,1.8c-1.1,1.2 -1.7,2.7 -1.7,4.4c0,3.4 2.6,6.2 6,6.2c1.6,0 3.1,-0.6 4.3,-1.8c1.1,-1.2 1.8,-2.7 1.8,-4.4c0,-1.7 -0.6,-3.2 -1.8,-4.4c-1.1,-1.2 -2.6,-1.8 -4.3,-1.8Zm-40.8,17.8c-0.2,0 -0.3,-0.1 -0.3,-0.3l0,-22.6c0,-0.2 0.2,-0.3 0.3,-0.3l4.9,0c0.1,0 0.3,0.1 0.3,0.2l0,22.7c0,0.2 -0.2,0.3 -0.3,0.3l-4.9,0Zm-13.7,0c-0.1,0 -0.3,-0.1 -0.3,-0.2l-3.1,-10.8l0,-0.1c-0.1,-0.2 -0.3,-0.4 -0.5,-0.4c-0.3,0 -0.5,0.2 -0.5,0.4l-3.1,10.7l0,0.1c-0.1,0.1 -0.2,0.2 -0.3,0.2l-4.4,0c-0.2,0 -0.3,-0.1 -0.3,-0.3l-6.4,-22.7l0,-0.1c0,-0.2 0.2,-0.3 0.3,-0.3l5.1,0c0.1,0 0.2,0.1 0.3,0.2l2.8,11c0,0.3 0.3,0.5 0.5,0.5c0.2,0 0.4,-0.2 0.5,-0.4l3.1,-11.1c0,-0.1 0.2,-0.2 0.3,-0.2l4.2,0c0.1,0 0.3,0.1 0.3,0.2l3.1,11.1c0,0.3 0.3,0.5 0.5,0.5c0.2,0 0.5,-0.2 0.5,-0.4l2.8,-11l0,-0.1c0,-0.1 0.2,-0.2 0.3,-0.2l5,0c0.1,0 0.3,0.1 0.3,0.2l0,0.3l-6.4,22.6l0,0.1c-0.1,0.1 -0.2,0.2 -0.3,0.2l-4.3,0Zm36.2,-0.1c-0.1,0 -0.2,-0.1 -0.3,-0.1l-7,-10.6c-0.1,-0.2 -0.3,-0.3 -0.5,-0.3c-0.3,0 -0.5,0.2 -0.6,0.5l0,10.1c0,0.2 -0.2,0.3 -0.3,0.3l-4.8,0c-0.2,0 -0.3,-0.1 -0.3,-0.3l0,-22.6c0,-0.2 0.2,-0.3 0.3,-0.3l4.4,0c0.1,0 0.2,0 0.3,0.1l0,0.1l6.6,10.1c0.1,0.2 0.3,0.3 0.5,0.3c0.3,0 0.6,-0.2 0.6,-0.6l0,-9.5c0,-0.2 0.2,-0.3 0.3,-0.3l4.8,0c0.1,0 0.3,0.1 0.3,0.2l0,22.8c0,0.2 -0.2,0.3 -0.3,0.3l-4,-0.2Zm-68.7,0.1c-0.2,0 -0.3,-0.1 -0.3,-0.3l0,-17.3c0,-0.3 -0.2,-0.5 -0.5,-0.5l-5.8,0c-0.2,0 -0.3,-0.2 -0.3,-0.3l0,-4.6c0,-0.2 0.2,-0.3 0.3,-0.3l18.1,0c0.2,0 0.3,0.2 0.3,0.3l0,4.6c0,0.2 -0.2,0.3 -0.3,0.3l-5.8,0c-0.3,0 -0.5,0.2 -0.5,0.5l0,17.3c0,0.2 -0.2,0.4 -0.3,0.4l-4.9,0l0,-0.1Z" style="fill:rgb(0,181,234);fill-rule:nonzero;"/>    </g></svg>