<?xml version="1.0" encoding="UTF-8" standalone="no"?><!DOCTYPE svg PUBLIC "-//W3C//DTD SVG 1.1//EN" "http://www.w3.org/Graphics/SVG/1.1/DTD/svg11.dtd"><svg width="100%" height="100%" viewBox="0 0 1024 512" version="1.1" xmlns="http://www.w3.org/2000/svg" xmlns:xlink="http://www.w3.org/1999/xlink" xml:space="preserve" style="fill-rule:evenodd;clip-rule:evenodd;"><title>Tessin</title><desc>Tessin is a service for those who want to place capital directly in real estate without any complicated fee structures and intermediaries. In Tessin, investors, along with others, invest in different types of real estate projects and at the same time receive a good return on their capital.</desc>    <g id="Tessin-Original-Logo" transform="matrix(6.75295,0,0,6.75295,-7.62486,72.614)">        <path d="M2.851,26.34c-0,-12.376 7.96,-22.423 17.763,-22.423c9.804,0 17.764,10.047 17.764,22.423c0,12.375 -7.96,22.422 -17.764,22.422c-9.803,-0 -17.763,-10.047 -17.763,-22.422" style="fill:rgb(0,176,138);fill-rule:nonzero;"/>        <path id="Stroke-2" d="M1.425,26.513c0,-13.071 8.587,-23.673 19.189,-23.673c10.603,-0 19.19,10.602 19.19,23.673c-0,13.071 -8.587,23.674 -19.19,23.674c-10.602,-0 -19.189,-10.603 -19.189,-23.674Z" style="fill:none;fill-rule:nonzero;stroke:rgb(0,176,138);stroke-width:1px;"/>        <path id="Fill-4" d="M28.123,13.686c0,-0 1.634,1.703 2.399,2.989c0.591,1.009 1.217,1.599 1.217,2.781c-0,0.522 -0.348,0.8 -0.209,1.287c0.139,0.521 0.626,0.625 0.939,1.043c0.347,0.451 0.556,0.695 0.799,1.251c0.487,1.147 1.808,2.955 0.104,3.163c-0.243,0.035 -0.973,-0.034 -1.147,0.418c-0.104,0.243 -0.034,0.452 0.035,0.73c0.035,0.278 0.278,0.417 0.174,0.695c-0.104,0.278 -0.626,0.417 -0.626,0.417c0,0 0.417,0.313 0.417,0.591c-0.034,0.348 -0.66,0.209 -0.695,0.556c-0.035,0.174 0.035,0.244 0.07,0.417c0.069,0.278 0.243,0.418 0.312,0.696c0.105,0.521 0.07,0.903 -0.173,1.39c-0.487,0.904 -1.634,0.243 -2.538,0.8c-0.348,0.208 -0.522,0.347 -0.8,0.625c-0.556,0.557 -1.008,1.808 -1.008,1.808c0,0 1.634,5.91 0.869,5.458c0,-0 -2.572,-1.53 -5.145,-2.99c-1.39,-0.799 -2.19,-1.112 -3.441,-0.591c-1.113,0.452 -1.008,1.634 -1.947,2.364c-0.799,0.626 -1.251,1.078 -2.259,1.217c-1.252,0.174 -1.878,-0.626 -3.094,-0.973c-1.391,-0.383 -2.712,0.208 -3.616,-0.904c-1.008,-1.287 0.348,-2.538 0.383,-4.172c-0,-1.182 -0.174,-1.877 -0.139,-3.059c0.069,-1.46 0.208,-2.294 0.625,-3.685c0.278,-0.973 -0.313,-1.634 -0.347,-2.711c-0.035,-1.565 0.452,-2.712 0.486,-3.929c0.105,-1.946 -0.243,-2.746 0.452,-4.275c0.73,-1.6 1.947,-1.982 3.129,-3.303c1.112,-1.251 1.321,-2.364 2.711,-3.268c1.113,-0.695 1.947,-0.66 3.164,-1.077c1.182,-0.417 1.773,-1.043 3.024,-1.113c1.043,-0.069 1.599,0.209 2.608,0.452c0.799,0.209 1.39,0.139 2.051,0.626c1.147,0.799 1.494,1.877 1.46,3.268c-0.035,0.382 -0.244,1.008 -0.244,1.008" style="fill:white;fill-rule:nonzero;"/>        <path id="Fill-5" d="M54.926,19.387l-0,14.253c-0,0.417 0.173,0.765 0.451,1.077c0.313,0.278 0.661,0.452 1.078,0.452l0.278,0l0.035,0.244l-7.37,-0l0,-0.244l0.313,0c0.417,0 0.765,-0.139 1.043,-0.452c0.313,-0.278 0.487,-0.625 0.521,-1.043l0,-14.287l-3.267,-0c-0.73,-0 -1.321,0.243 -1.773,0.695c-0.452,0.452 -0.661,1.043 -0.661,1.773l0,0.278l-0.243,0l-0,-4.171c0.243,0.104 0.626,0.208 1.217,0.278c0.591,0.104 1.147,0.139 1.668,0.139l9.803,-0c0.8,-0 1.426,-0.07 1.947,-0.209c0.487,-0.104 0.8,-0.208 0.939,-0.243l-0,4.241l-0.244,-0l0,-0.278c0,-0.73 -0.208,-1.321 -0.66,-1.773c-0.452,-0.452 -1.043,-0.695 -1.773,-0.695l-3.302,-0" style="fill-rule:nonzero;"/>        <path id="Fill-6" d="M66.154,35.169c0.417,0 0.765,-0.139 1.078,-0.452c0.312,-0.312 0.486,-0.66 0.486,-1.077l0,-13.523c-0.034,-0.556 -0.313,-0.973 -0.799,-1.252c-0.244,-0.139 -0.487,-0.208 -0.765,-0.208l-0.313,-0l0,-0.243l9.317,-0c0.486,-0 1.042,-0.035 1.668,-0.14c0.591,-0.104 1.008,-0.208 1.252,-0.278l-0,4.241l-0.244,0l0,-0.278c0,-0.73 -0.208,-1.321 -0.66,-1.738c-0.417,-0.452 -1.008,-0.695 -1.738,-0.73l-4.068,0l0,7.057l3.199,0c0.591,0 1.077,-0.208 1.494,-0.591c0.383,-0.417 0.591,-0.904 0.591,-1.495l0,-0.208l0.244,-0l-0,5.597l-0.244,-0l0,-0.209c0,-0.8 -0.312,-1.425 -0.973,-1.808c-0.313,-0.174 -0.695,-0.278 -1.078,-0.278l-3.233,0l0,6.814l3.199,-0c1.182,-0 2.155,-0.348 2.954,-1.008c0.8,-0.696 1.426,-1.634 1.808,-2.886l0.243,0l-1.112,4.971l-12.584,0l-0,-0.243l0.278,0" style="fill-rule:nonzero;"/>        <path id="Fill-7" d="M84.995,33.153c0,-1.182 0.244,-2.155 0.765,-2.99l0.209,0c-0,0.139 -0.035,0.244 -0.035,0.383c0,1.112 0.382,2.086 1.182,2.955c0.8,0.834 1.912,1.251 3.303,1.251c1.077,0 1.911,-0.243 2.537,-0.765c0.626,-0.521 0.939,-1.182 0.939,-1.981c-0,-0.939 -0.661,-1.773 -1.947,-2.503l-4.241,-2.781c-0.834,-0.487 -1.46,-1.078 -1.808,-1.738c-0.347,-0.696 -0.521,-1.391 -0.521,-2.121c-0,-1.529 0.487,-2.711 1.425,-3.511c0.974,-0.834 2.225,-1.251 3.72,-1.251c0.904,-0 1.981,0.069 3.302,0.243l1.53,0l-0.313,3.581l-0.243,-0c-0,-0.835 -0.313,-1.53 -0.939,-2.017c-0.626,-0.521 -1.425,-0.764 -2.468,-0.764c-1.252,-0 -2.19,0.382 -2.746,1.182c-0.279,0.382 -0.452,0.799 -0.452,1.251c-0,0.765 0.556,1.495 1.703,2.155l4.624,3.025c1.46,0.834 2.19,2.085 2.19,3.719c-0,1.738 -0.591,3.059 -1.773,3.998c-1.182,0.904 -2.712,1.356 -4.659,1.356c-1.112,-0 -2.12,-0.139 -3.059,-0.383c-0.938,-0.278 -1.599,-0.625 -2.051,-1.077c-0.104,-0.417 -0.174,-0.8 -0.174,-1.217l6.466,18.32" style="fill-rule:nonzero;"/>        <path id="Fill-8" d="M102.69,33.153c-0,-1.182 0.243,-2.155 0.765,-2.99l0.208,0c0,0.139 -0.035,0.244 -0.035,0.383c0,1.112 0.383,2.086 1.182,2.955c0.8,0.834 1.912,1.251 3.303,1.251c1.078,0 1.912,-0.243 2.538,-0.765c0.625,-0.521 0.938,-1.182 0.938,-1.981c0,-0.939 -0.66,-1.773 -1.947,-2.503l-4.241,-2.781c-0.834,-0.487 -1.46,-1.078 -1.807,-1.738c-0.348,-0.696 -0.522,-1.391 -0.522,-2.121c0,-1.529 0.487,-2.711 1.426,-3.511c0.973,-0.834 2.224,-1.251 3.719,-1.251c0.904,-0 1.982,0.069 3.303,0.243l1.529,0l-0.313,3.581l-0.243,-0c0,-0.835 -0.313,-1.53 -0.939,-2.017c-0.625,-0.521 -1.425,-0.764 -2.468,-0.764c-1.251,-0 -2.19,0.382 -2.746,1.182c-0.278,0.382 -0.452,0.799 -0.452,1.251c0,0.765 0.556,1.495 1.703,2.155l4.624,3.025c1.46,0.834 2.19,2.085 2.19,3.719c-0,1.738 -0.591,3.059 -1.773,3.998c-1.182,0.904 -2.711,1.356 -4.658,1.356c-1.113,-0 -2.121,-0.139 -3.059,-0.383c-0.939,-0.278 -1.599,-0.625 -2.051,-1.077c-0.139,-0.417 -0.174,-0.8 -0.174,-1.217" style="fill-rule:nonzero;"/>        <path id="Fill-9" d="M120.488,35.169c0.418,0 0.765,-0.139 1.078,-0.452c0.313,-0.312 0.487,-0.66 0.487,-1.077l-0,-13.488c-0,-0.417 -0.174,-0.765 -0.487,-1.078c-0.278,-0.278 -0.66,-0.452 -1.078,-0.452l-0.312,0l-0,-0.243l7.369,-0l-0.034,0.243l-0.278,0c-0.418,0 -0.8,0.139 -1.078,0.452c-0.313,0.278 -0.452,0.661 -0.452,1.078l-0,13.488c-0,0.417 0.139,0.799 0.452,1.077c0.313,0.278 0.66,0.452 1.078,0.452l0.278,0l0.034,0.244l-7.369,-0l-0,-0.244l0.312,0" style="fill-rule:nonzero;"/>        <path id="Fill-10" d="M152.019,18.657c-0.418,-0 -0.765,0.139 -1.043,0.452c-0.278,0.278 -0.452,0.626 -0.452,1.008l-0,12.549c-0,1.078 0.069,2.017 0.208,2.747l0.07,0.347l-0.209,0l-12.271,-11.68l-0,9.629c-0,0.417 0.139,0.765 0.452,1.043c0.278,0.278 0.626,0.417 1.043,0.417l0.452,0l-0,0.244l-7.37,-0l-0,-0.244l0.452,0c0.417,0 0.765,-0.139 1.077,-0.417c0.279,-0.278 0.452,-0.66 0.452,-1.078l0,-12.584c0,-1.077 -0.069,-1.946 -0.208,-2.676l-0.035,-0.348l0.209,-0l12.201,11.646l0,-9.595c0,-0.417 -0.173,-0.765 -0.452,-1.043c-0.278,-0.278 -0.625,-0.452 -1.042,-0.452l-0.452,0l-0,-0.243l7.369,-0l0,0.243l-0.451,0" style="fill-rule:nonzero;"/>    </g></svg>