<?xml version="1.0" encoding="UTF-8" standalone="no"?><!DOCTYPE svg PUBLIC "-//W3C//DTD SVG 1.1//EN" "http://www.w3.org/Graphics/SVG/1.1/DTD/svg11.dtd"><svg width="100%" height="100%" viewBox="0 0 1024 512" version="1.1" xmlns="http://www.w3.org/2000/svg" xmlns:xlink="http://www.w3.org/1999/xlink" xml:space="preserve" style="fill-rule:evenodd;clip-rule:evenodd;stroke-miterlimit:10;"><title>Assetz Capital</title><desc>Lend to UK businesses with strong security through Assetz Capital and earn from 4.1% pa. All loans are secured by tangible assets and we don’t charge any investor fees.</desc>    <g id="assetz-capital-512x256.svg" transform="matrix(2.21734,0,0,2.21734,-55.6509,-27.8199)">        <path d="M205.8,56.71l0,-12.25c-27.458,-0.096 -53.813,10.948 -73,30.59c-18.964,-19.257 -44.903,-30.093 -71.93,-30.05l0,12.24c24.06,0.068 47.088,9.913 63.76,27.26c-2.107,2.77 -4.07,5.647 -5.88,8.62c-14.816,-16.291 -35.859,-25.569 -57.88,-25.52l0,12.26c20.131,0.119 39.163,9.343 51.73,25.07c-1.7,3.867 -3.153,7.839 -4.35,11.89c-10.048,-16.508 -28.054,-26.587 -47.38,-26.52l0,12.25c24,0 43.25,20 43.25,42.89l12.25,0c0,-9.362 1.503,-18.664 4.45,-27.55c4.291,8.863 6.52,18.583 6.52,28.43l0,65.59l12,0l0,-65.59c0,-1.74 -0.08,-3.46 -0.19,-5.17c0.494,-8.047 2.464,-15.935 5.81,-23.27c2.97,8.885 4.483,18.192 4.48,27.56l12.25,0c0,-25.06 20.14,-43.41 44.12,-43.41l0,-12.26c-20.81,0 -38.65,10.44 -48.41,26.58c-1.219,-3.992 -2.689,-7.903 -4.4,-11.71c12.758,-16.102 32.257,-25.449 52.8,-25.31l0,-12.26c-22.441,-0.185 -43.898,9.35 -58.8,26.13c-1.845,-3.017 -3.848,-5.934 -6,-8.74c16.893,-17.709 40.326,-27.745 64.8,-27.75Zm-66.8,47.29c-2.256,3.665 -4.21,7.507 -5.84,11.49c-1.733,-4.092 -3.811,-8.029 -6.21,-11.77c1.776,-3.278 3.756,-6.441 5.93,-9.47c2.25,3.114 4.294,6.37 6.12,9.75Z" style="fill:rgb(10,4,68);fill-rule:nonzero;stroke:black;stroke-width:0.25px;"/>        <path d="M480.22,95.48c-1.36,8.11 -4,10.17 -13.32,10.17l-9.79,0c8.25,-12.22 16.59,-24.84 25,-37.35l-0.71,-1.3l-33.4,0l0,13.28l2.85,0c1.09,-7.74 2.9,-10 12,-10l8.88,0c-7.89,11.85 -16.59,25 -25.56,37.25l0.72,1.27l34.71,0l1.63,-13.34l-3.01,0.02Z" style="fill:rgb(10,4,68);fill-rule:nonzero;stroke:black;stroke-width:0.25px;"/>        <path d="M341.19,91.32c-2.03,-2.244 -4.444,-4.107 -7.13,-5.5l-5.21,-2.92c-1.791,-0.997 -3.485,-2.159 -5.06,-3.47c-1.518,-1.211 -2.393,-3.058 -2.37,-5c-0.026,-1.691 0.709,-3.308 2,-4.4c1.42,-1.204 3.239,-1.835 5.1,-1.77c2.86,0 5,0.64 6.36,1.94c1.36,1.3 2.34,3.49 2.81,6.38l2.89,0l0,-8.38c-3.846,-1.314 -7.86,-2.072 -11.92,-2.25c-4.287,0 -7.647,1 -10.08,3c-4.224,3.559 -4.821,9.94 -1.33,14.22c1.866,2.172 4.122,3.976 6.65,5.32l5.21,2.88c2.101,1.094 4.061,2.437 5.84,4c1.175,1.025 1.862,2.501 1.89,4.06c0.011,2.235 -0.999,4.358 -2.74,5.76c-1.831,1.583 -4.191,2.422 -6.61,2.35c-6,0 -9.49,-3.54 -10.6,-10.72l-2.89,0l0.85,10.28c3.027,1.827 7.25,2.74 12.67,2.74c4.707,0 8.51,-1.083 11.41,-3.25c2.854,-2.062 4.492,-5.422 4.36,-8.94c0.074,-2.312 -0.674,-4.577 -2.11,-6.39" style="fill:rgb(10,4,68);fill-rule:nonzero;stroke:black;stroke-width:0.25px;"/>        <path d="M374.1,91.32c-2.03,-2.244 -4.444,-4.107 -7.13,-5.5l-5.21,-2.92c-1.791,-0.997 -3.485,-2.159 -5.06,-3.47c-1.518,-1.211 -2.393,-3.058 -2.37,-5c-0.026,-1.691 0.709,-3.308 2,-4.4c1.42,-1.204 3.239,-1.835 5.1,-1.77c2.86,0 5,0.64 6.36,1.94c1.36,1.3 2.34,3.49 2.81,6.38l2.9,0l0,-8.38c-3.848,-1.306 -7.861,-2.063 -11.92,-2.25c-4.287,0 -7.647,1 -10.08,3c-4.224,3.559 -4.821,9.94 -1.33,14.22c1.866,2.172 4.122,3.976 6.65,5.32l5.18,2.91c2.1,1.094 4.061,2.437 5.84,4c1.175,1.025 1.862,2.501 1.89,4.06c0.011,2.235 -0.999,4.358 -2.74,5.76c-1.831,1.583 -4.191,2.422 -6.61,2.35c-6,0 -9.49,-3.54 -10.6,-10.72l-2.88,0l0.85,10.28c3.027,1.827 7.25,2.74 12.67,2.74c4.707,0 8.51,-1.083 11.41,-3.25c2.854,-2.062 4.492,-5.422 4.36,-8.94c0.074,-2.312 -0.674,-4.577 -2.11,-6.39" style="fill:rgb(10,4,68);fill-rule:nonzero;stroke:black;stroke-width:0.25px;"/>        <path d="M441.77,103.92c-1.692,0.795 -3.552,1.169 -5.42,1.09c-2.9,0 -5.6,-2 -5.6,-8.43l0,-25.72l10.73,0l0,-3.86l-10.72,0l0,-10.64l-14.46,14.5l6.06,0l0,29.26c0,8.61 6.53,9.79 9.61,9.79c4.26,0 7.62,-1.81 10.51,-3.62l-0.71,-2.37Z" style="fill:rgb(10,4,68);fill-rule:nonzero;stroke:black;stroke-width:0.25px;"/>        <path d="M415.46,102.16c-5.44,3.08 -13.25,4.52 -19.14,1.86c-6.88,-3.11 -8.3,-10.68 -8.16,-17.4l27.32,0c0,-10.26 -4.17,-20.09 -15.48,-20.64c-10.58,-0.51 -18.65,5.86 -20.48,16.29c-1.87,10.69 2.28,22.39 13.14,26.36c5.56,2 12.15,1.4 17.68,-0.52c1.27,-0.44 4,-1.13 4.83,-2.26c0.17,-0.207 0.268,-0.463 0.28,-0.73l0,-2.49l0,-0.49m-17.24,-33c4.24,0 7,2.75 8.12,6.68c0.82,3 1.55,7 -2.43,7.36c-5.14,0.44 -10.5,0 -15.66,0c0,-6.08 2.73,-14 10,-14" style="fill:rgb(10,4,68);fill-rule:nonzero;stroke:black;stroke-width:0.25px;"/>        <path d="M312.25,105l-0.31,0.08c-1.31,0.29 -6.25,0.87 -6.25,-6.6l0,-21.28c0,0 0.3,-10.89 -12.3,-11c-12.6,-0.11 -15.39,6.52 -15.39,6.52c-0.572,1.054 -0.935,2.208 -1.07,3.4c-0.2,1.53 -0.29,3.43 -0.3,3.75l7.64,-2.67c0.036,-0.641 0.133,-1.277 0.29,-1.9c0.437,-2.681 2.422,-4.863 5.05,-5.55c0.735,-0.188 1.491,-0.282 2.25,-0.28c3.82,0 7,2.08 7,8.79l0,2.9c-1.87,2.27 -9.68,4.44 -16,6.53c-5.68,1.91 -7.42,6.35 -7.42,10.42c0,6.35 4,12.05 11.64,12.05c2.292,-0.061 4.539,-0.657 6.56,-1.74c2.231,-1.267 4.186,-2.967 5.75,-5c0,0.2 0.62,6.46 6,6.67c0.115,0.028 0.235,0.028 0.35,0c1.477,-0.085 2.924,-0.455 4.26,-1.09c0.902,-0.331 1.761,-0.767 2.56,-1.3l-0.31,-2.7Zm-13.47,-10.3c0.117,3.023 -0.961,5.975 -3,8.21c-1.753,2.038 -4.312,3.211 -7,3.21c-1.75,0.048 -3.433,-0.686 -4.59,-2c-1.218,-1.376 -1.876,-3.162 -1.84,-5c-0.128,-2.26 0.683,-4.477 2.24,-6.12c1.5,-1.52 4.12,-3 7.9,-4.29l6.28,-2.24l0.01,8.23Z" style="fill:rgb(10,4,68);fill-rule:nonzero;stroke:black;stroke-width:0.25px;"/>        <path d="M307.37,178.35c-3.765,3.208 -8.574,4.937 -13.52,4.86c-11.55,0 -18.45,-6.93 -18.45,-21.68c0,-14.75 6.9,-21.59 18.45,-21.59c8,0 12.36,4.23 13.79,6.21l-4.12,3.24c-1.34,-1.53 -3.76,-4.23 -9.67,-4.23c-8.24,0 -12.63,5.31 -12.63,16.37c0,11.25 4.39,16.47 12.63,16.47c3.809,-0.034 7.487,-1.404 10.39,-3.87l3.13,4.22Z" style="fill:rgb(10,4,68);fill-rule:nonzero;stroke:black;stroke-width:0.25px;"/>        <path d="M340.77,183.21l0,-6.48c-2.24,4.23 -7.43,6.48 -12.81,6.48c-9.49,0 -15.49,-4.59 -15.49,-12.86c0,-7.92 6,-12.69 15.67,-12.69l12.63,0l0,-2.43c0,-6.12 -4,-9.9 -10.57,-9.9c-4.75,0 -7.61,1.44 -10.39,4.59l-4.47,-2.92c2.51,-4 7.34,-7.11 14.87,-7.11c10.39,0 16.12,6.12 16.12,15.29l0,28l-5.56,0.03Zm0,-16.74l0,-3.78l-12.62,0c-5.82,0 -9.85,2.43 -9.85,7.65c0,4.67 3.23,7.64 10.21,7.64c6.27,0 12.27,-3.87 12.27,-11.52" style="fill:rgb(10,4,68);fill-rule:nonzero;stroke:black;stroke-width:0.25px;"/>        <path d="M354.74,201.29l0,-61.36l5.73,0l0,6.29c1.7,-3.06 6.18,-6.29 12.18,-6.29c11.64,0 18.71,6.84 18.71,21.59c0,14.75 -7.07,21.68 -18.71,21.68c-4.862,0.116 -9.46,-2.258 -12.18,-6.29l0,24.38l-5.73,0Zm17.91,-23.29c8.24,0 12.89,-5.22 12.89,-16.46c0,-11.24 -4.83,-16.38 -13.07,-16.38c-6.63,0 -12.18,4.68 -12.18,16.38c0,11.7 5.38,16.46 12.36,16.46" style="fill:rgb(10,4,68);fill-rule:nonzero;stroke:black;stroke-width:0.25px;"/>        <path d="M397.36,128.59c0,-2.61 1.25,-3.6 3.4,-3.6c2.15,0 3.4,1 3.4,3.6c0,1.868 -1.537,3.405 -3.405,3.405c-1.868,0 -3.405,-1.537 -3.405,-3.405m6.27,55.33l-5.72,0l0,-43.12l5.73,0l-0.01,43.12Z" style="fill:rgb(10,4,68);fill-rule:nonzero;stroke:black;stroke-width:0.25px;"/>        <path d="M426.11,182.76c-7.07,0 -10.93,-4.77 -10.93,-11.34l0,-24.83l-6.18,0l0,-5.4l6.18,0l0,-12l5.73,0l0,12l8.51,0l0,5.4l-8.51,0l0,24.83c0,3.87 2.15,5.94 5.19,5.94l0.01,5.4Z" style="fill:rgb(10,4,68);fill-rule:nonzero;stroke:black;stroke-width:0.25px;"/>        <path d="M435.69,147c2.51,-4 7.34,-7.11 14.87,-7.11c10.39,0 16.12,6.12 16.12,15.29l0,28l-5.55,0l0,-6.48c-2.24,4.23 -7.43,6.48 -12.81,6.48c-9.49,0 -15.49,-4.59 -15.49,-12.86c0,-7.92 6,-12.69 15.67,-12.69l12.63,0l0,-2.43c0,-6.12 -4,-9.9 -10.57,-9.9c-4.75,0 -7.61,1.44 -10.39,4.59l-4.48,-2.89Zm25.43,19.44l0,-3.78l-12.63,0c-5.82,0 -9.85,2.43 -9.85,7.65c0,4.67 3.23,7.64 10.21,7.64c6.27,0 12.27,-3.87 12.27,-11.52" style="fill:rgb(10,4,68);fill-rule:nonzero;stroke:black;stroke-width:0.25px;"/>        <path d="M480.81,171.78l0,-13.69l0,-39.78l-5.73,0l0,53.48c0,6.57 3.85,11.34 10.93,11.34l0,-5.4c-3,0 -5.19,-2.07 -5.19,-5.94" style="fill:rgb(10,4,68);fill-rule:nonzero;stroke:black;stroke-width:0.25px;"/>        <path d="M155,21.21l-129,0l0,213.58l214.67,0l0,-213.58l-85.67,0Zm-17.83,12l91.55,0l0,189.59l-190.72,0l0,-189.6l99.17,0.01Z" style="fill:rgb(10,4,68);fill-rule:nonzero;stroke:black;stroke-width:0.25px;"/>    </g></svg>