<?xml version="1.0" encoding="UTF-8" standalone="no"?><!DOCTYPE svg PUBLIC "-//W3C//DTD SVG 1.1//EN" "http://www.w3.org/Graphics/SVG/1.1/DTD/svg11.dtd"><svg width="100%" height="100%" viewBox="0 0 1024 512" version="1.1" xmlns="http://www.w3.org/2000/svg" xmlns:xlink="http://www.w3.org/1999/xlink" xml:space="preserve" style="fill-rule:evenodd;clip-rule:evenodd;stroke-linejoin:round;stroke-miterlimit:2;"><title>Noviti Finance</title><desc>Noviti Finance has been successfully disbursing loans to Lithuanian business since 2016. They already funded over 1000 small medium businesses and lent over 10 million euros since they started to grow their business. Team of Noviti Finance is focusing on good customer experience, transparent pricing, flexible risk scoring and fast financing.</desc>    <g transform="matrix(0.733336,0,0,0.733336,-59.6736,78.6426)">        <g>            <path d="M725.5,158.7c-12.4,-10.4 -30.9,-15.8 -55,-16.2c-13.8,-0.3 -26.5,1.2 -37.6,4.3c-11.1,3 -20.3,7.1 -27.4,11.9c-3.8,2.6 -6.8,5.4 -8.9,8.4c-1.7,2.4 -2.6,5.9 -2.7,10.3l-1.6,105c-0.1,5.8 0.7,9 1.4,10.7c0.9,2.2 2,3.8 3.5,4.9c1.6,1.3 3.8,2.1 6.4,2.6c3.6,0.7 7.7,1 12.3,1.1c4.9,0.1 9.7,-0.2 14.4,-0.7c1.2,-0.2 2.3,-0.3 3.3,-0.4l1.8,-118.8l3.8,-2.6c4.2,-2.9 9.2,-5.1 14.8,-6.4c5,-1.2 10,-1.8 15.1,-1.8l1,0c9.1,0.1 16.6,2.7 22.2,7.5c6.1,5.3 9.2,13 9,23l-1.3,82.6c-0.1,5.8 0.7,9 1.4,10.7c0.9,2.2 2,3.8 3.5,5c1.6,1.3 3.7,2.1 6.4,2.6c3.6,0.7 7.7,1 12.3,1.1c4.9,0.1 9.7,-0.2 14.4,-0.7c1.2,-0.2 2.3,-0.3 3.3,-0.4l1.6,-102.3c0.2,-17.8 -5.4,-31.4 -17.4,-41.4Z" style="fill:rgb(65,64,66);fill-rule:nonzero;"/>            <path d="M933.6,163.6c-7,-7 -15.6,-12.6 -25.6,-16.7c-10,-4.1 -21.5,-6.2 -34.1,-6.4l-1.9,0c-11.9,0 -22.8,1.8 -32.5,5.2c-10,3.6 -18.8,8.9 -26,15.7c-7.2,6.8 -12.9,15.2 -17,25.1c-4.2,10 -6.3,21.5 -6.5,34.1c-0.2,12.8 1.6,24.4 5.5,34.6c3.8,10 9.3,18.7 16.2,25.7c7,7 15.6,12.6 25.5,16.5c10,3.9 21.5,6 34.2,6.3c12.6,0.2 24.3,-1.5 34.5,-4.9c10,-3.4 18.7,-8.4 25.9,-15.1c7.2,-6.6 12.9,-15.1 17,-25.1c4.2,-10.2 6.4,-22.1 6.6,-35.3c0.2,-12.3 -1.7,-23.7 -5.5,-33.9c-3.9,-10.2 -9.3,-18.8 -16.3,-25.8Zm-31.3,96.3c-6.9,9.8 -17.1,15 -29.5,15l-0.7,0c-12.6,-0.2 -23,-5.6 -30,-15.6c-6.4,-9.2 -9.6,-22 -9.3,-38.1c0.2,-15.8 3.7,-28.4 10.3,-37.4c7.2,-9.8 17.3,-14.7 30.3,-14.7c12.7,0.2 23,5.6 29.8,15.6c6.3,9.2 9.4,21.9 9.1,37.7c-0.2,16.1 -3.5,28.4 -10,37.5Z" style="fill:rgb(65,64,66);fill-rule:nonzero;"/>            <path d="M1140.9,149c-4.1,-2.6 -9.4,-4 -15.8,-4.1c-4,-0.1 -8.2,0.4 -12.5,1.3c-2.7,0.6 -5.3,1.3 -7.6,2.3c-4.1,19 -8.6,38.3 -13.4,57.6c-5.2,20.8 -10.2,40.1 -14.9,57.4l-1.8,6.7l-15.7,-0.2l-1.6,-6.8c-1.1,-4.6 -2.7,-11.2 -4.9,-19.7c-2.2,-8.6 -4.5,-18.2 -7,-28.9l-12.8,-53.7c-1.8,-6.9 -4.5,-11.7 -7.7,-13.9c-3.7,-2.5 -8.8,-3.8 -15.2,-3.9c-5.4,-0.2 -10,0.8 -14.4,2.7c-2.6,1.1 -4.9,2.3 -6.8,3.6c1.3,5.6 2.8,11.7 4.6,18.5c2.4,9 5.1,18.4 8,28.2c3,9.8 6.1,19.7 9.5,29.7c3.3,10 6.5,19.4 9.6,28.2c3.1,8.7 6,16.6 8.8,23.7c2.7,6.8 5,12.2 6.9,15.9c1.5,3.2 4.4,5.5 8.8,7.1c5.6,2.1 12.6,3.2 20.6,3.3c7,0.1 13.6,-0.5 19.1,-1.9c4.8,-1.2 7.8,-2.5 9.7,-3.6c2.5,-4.8 5.3,-10.6 8.6,-17.9c3.7,-8.1 7.5,-16.9 11.3,-26.3c3.9,-9.4 7.6,-19.1 11.4,-29c3.7,-9.8 7,-19.2 9.7,-27.9c2.8,-9 5.1,-16.7 6.9,-23.6c2.1,-7.9 2.6,-12 2.6,-14.1c0.2,-8 -2.8,-9.9 -4,-10.7Z" style="fill:rgb(65,64,66);fill-rule:nonzero;"/>            <path d="M1208.7,149c-4.6,-0.1 -9.3,0.2 -13.8,0.9c-1.4,0.2 -2.7,0.4 -3.8,0.6l-2.1,134.9c-0.1,5.8 0.7,9 1.4,10.7c0.9,2.2 2,3.8 3.5,5c1.6,1.3 3.7,2.1 6.4,2.6c3.6,0.7 7.7,1 12.3,1.1c4.6,0.1 9.3,-0.2 13.8,-0.9c1.4,-0.2 2.7,-0.4 3.9,-0.6l2.1,-134.9c0.1,-5.7 -0.7,-9 -1.4,-10.7c-0.9,-2.2 -2,-3.8 -3.5,-4.9c-1.6,-1.3 -3.8,-2.2 -6.4,-2.7c-3.6,-0.7 -7.8,-1 -12.4,-1.1Z" style="fill:rgb(65,64,66);fill-rule:nonzero;"/>            <path d="M1213.1,71c-7.4,0.1 -13,1.9 -17.3,6.1c-4.3,4.3 -6.5,9.5 -6.6,16c-0.1,6.5 1.9,11.8 6.1,16.2c4.2,4.4 9.8,6.6 17.1,6.7c7.2,0.1 13,-1.9 17.3,-6.1c4.4,-4.3 6.5,-9.5 6.6,-16c0.1,-6.5 -1.9,-11.8 -6.1,-16.2c-4.2,-4.4 -9.8,-6.6 -17.1,-6.7Z" style="fill:rgb(65,64,66);fill-rule:nonzero;"/>            <path d="M1370.1,188.6c5.1,-0.1 7,-1.5 8.2,-2.7c1.8,-1.8 2.9,-5.8 3,-11.3c0.1,-3.7 -0.4,-7 -1.3,-10c-0.4,-1.3 -0.8,-2.4 -1.2,-3.5l-49.1,-0.8l0.5,-31.4c0.1,-8.1 -1.3,-13.6 -4.2,-15.4c-4.2,-2.7 -10.6,-4.2 -19.1,-4.3c-4.8,-0.1 -9.4,0.2 -13.7,0.9c-1.3,0.2 -2.5,0.4 -3.6,0.6l-2.2,142.6c-0.3,18.1 4,31.2 12.9,38.9c9.2,8 23.2,12.3 41.5,12.5c18,0.3 26,-3 29.5,-5.8c4.7,-3.8 6.9,-8.5 7,-14.7c0.1,-3 -0.4,-5.6 -1.3,-7.5c-0.3,-0.7 -0.7,-1.5 -1.1,-2.2c-1.5,0.3 -3,0.6 -4.7,0.8c-4.1,0.6 -8.2,0.9 -12.2,0.8c-8.9,-0.1 -15.8,-2 -21.2,-5.7c-4.4,-3 -9.6,-9 -9.4,-20.5l1,-61.8l40.7,0.5Z" style="fill:rgb(65,64,66);fill-rule:nonzero;"/>            <path d="M1466.2,152.6c-1.6,-1.3 -3.8,-2.2 -6.4,-2.7c-3.6,-0.7 -7.7,-1 -12.3,-1.1c-4.5,-0.1 -9.3,0.2 -13.8,0.9c-1.4,0.2 -2.7,0.4 -3.9,0.6l-2.1,134.9c-0.1,5.8 0.7,9 1.4,10.7c0.9,2.1 2,3.8 3.5,4.9c1.6,1.3 3.8,2.1 6.4,2.7c3.5,0.7 7.7,1 12.3,1.1c4.6,0.1 9.2,-0.2 13.8,-0.9c1.4,-0.2 2.7,-0.4 3.9,-0.6l2.1,-134.9c0.1,-5.7 -0.7,-9 -1.4,-10.8c-0.9,-2.1 -2,-3.7 -3.5,-4.8Z" style="fill:rgb(65,64,66);fill-rule:nonzero;"/>            <path d="M1468.4,109.9c4.3,-4.3 6.5,-9.5 6.6,-16c0.1,-6.5 -1.9,-11.8 -6.1,-16.2c-4.2,-4.4 -9.8,-6.6 -17.1,-6.7l-0.6,0c-7.1,0 -12.6,2 -16.7,6.2c-4.4,4.3 -6.5,9.6 -6.6,16c-0.1,6.5 1.9,11.8 6.1,16.2c4.2,4.4 9.8,6.6 17.1,6.7c7.2,-0.1 13,-1.9 17.3,-6.2Z" style="fill:rgb(65,64,66);fill-rule:nonzero;"/>            <g>                <path d="M593.2,355.1l42.4,0l-0.1,11.8l-27.5,0l0,12.6l25.4,0l0,11.8l-25.4,0l0,20.4l-14.8,0l0,-56.6Z" style="fill:rgb(65,64,66);fill-rule:nonzero;"/>                <rect x="727.3" y="355.1" width="14.8" height="56.7" style="fill:rgb(65,64,66);fill-rule:nonzero;"/>                <path d="M876.8,355.1l13.7,0l0,56.7l-12.9,0l-25.7,-33.9l0,33.9l-13.8,0l0,-56.7l13,0l25.8,34.1l-0.1,-34.1Z" style="fill:rgb(65,64,66);fill-rule:nonzero;"/>                <path d="M1028.3,411.8l-3.9,-10l-24.5,0l-4,10l-15.2,0l24.3,-56.7l15.2,0l23.8,56.7l-15.7,0Zm-23.9,-21.4l15.7,0l-7.8,-20.2l-7.9,20.2Z" style="fill:rgb(65,64,66);fill-rule:nonzero;"/>                <path d="M1172.9,355.1l13.7,0l0,56.7l-12.9,0l-25.7,-33.9l0,33.9l-13.8,0l0,-56.7l13,0l25.8,34.1l-0.1,-34.1Z" style="fill:rgb(65,64,66);fill-rule:nonzero;"/>                <path d="M1317.2,368.8c-2.5,-1.4 -5,-2.1 -7.5,-2.1c-2.9,0 -5.5,0.7 -7.8,2.1c-2.3,1.4 -4.2,3.4 -5.5,5.9c-1.3,2.5 -2,5.3 -2,8.4c0,3.1 0.7,5.9 2,8.4c1.3,2.5 3.2,4.5 5.5,5.9c2.3,1.4 4.9,2.1 7.8,2.1c2.3,0 4.7,-0.6 7.3,-1.8c2.5,-1.2 4.8,-2.8 6.8,-4.9l8.6,9.3c-3.1,3.2 -6.7,5.8 -10.9,7.7c-4.2,1.9 -8.4,2.9 -12.6,2.9c-5.6,0 -10.7,-1.3 -15.2,-3.9c-4.5,-2.6 -8.1,-6.1 -10.7,-10.6c-2.6,-4.5 -3.9,-9.5 -3.9,-15c0,-5.5 1.3,-10.5 4,-14.9c2.6,-4.4 6.3,-7.9 10.9,-10.4c4.6,-2.5 9.8,-3.8 15.5,-3.8c4.2,0 8.4,0.9 12.4,2.6c4.1,1.8 7.6,4.1 10.4,7.2l-8.6,10.3c-1.8,-2.2 -4,-4 -6.5,-5.4Z" style="fill:rgb(65,64,66);fill-rule:nonzero;"/>                <path d="M1423.7,355.1l44.7,0l0,11.8l-29.9,0l0,10.6l27,0l0,11.7l-27,0.1l0,10.7l30.7,0l0,11.8l-45.5,0l0,-56.7Z" style="fill:rgb(65,64,66);fill-rule:nonzero;"/>            </g>        </g>        <g>            <path d="M309.8,191.1c-9.2,-6.4 -19.5,-10.7 -30.7,-12.8c-12.5,-2.3 -24.9,-1.9 -36.9,1.3c-20.4,5.4 -36.2,16.4 -48.4,33.8c-9.5,13.6 -14.4,27.7 -14.5,42c-0.1,8.5 -0.2,99.8 -0.3,153.5c0.6,0.3 1.3,0.7 1.9,1l82.4,-92l82.4,92c0.5,-0.3 1.1,-0.5 1.6,-0.8c0.2,-47 0.3,-123.5 -0.3,-151.1c-0.7,-27.6 -13.2,-50.1 -37.2,-66.9Z" style="fill:url(#_Linear1);fill-rule:nonzero;"/>            <path d="M129.1,258.6c0.6,-45.1 20.2,-81.7 58.1,-108.8c14.1,-10 30.1,-17 47.8,-20.8c17.2,-3.7 34.6,-3.9 51.7,-0.8c29.5,5.4 54.9,19.2 75.6,41.2c15.2,16.1 25.6,35.1 31.2,56.5c2.7,10.5 4.2,21.6 4.3,31.9c0.2,25.1 0.2,70.7 0.2,111.2c27.8,-31.6 44.7,-73 44.7,-118.4c0,-99 -80.3,-179.3 -179.3,-179.3c-99,0 -179.3,80.3 -179.3,179.3c0,45.4 16.9,86.8 44.7,118.4c-0.1,-40.7 -0.1,-85.6 0.3,-110.4Z" style="fill:url(#_Linear2);fill-rule:nonzero;"/>        </g>    </g>    <defs>        <linearGradient id="_Linear1" x1="0" y1="0" x2="1" y2="0" gradientUnits="userSpaceOnUse" gradientTransform="matrix(329.55,-403.86,403.86,329.55,136.185,475.565)"><stop offset="0" style="stop-color:rgb(0,112,123);stop-opacity:1"/><stop offset="0.11" style="stop-color:rgb(0,117,128);stop-opacity:1"/><stop offset="0.27" style="stop-color:rgb(0,129,142);stop-opacity:1"/><stop offset="0.49" style="stop-color:rgb(0,150,165);stop-opacity:1"/><stop offset="0.7" style="stop-color:rgb(0,174,192);stop-opacity:1"/><stop offset="1" style="stop-color:rgb(0,174,192);stop-opacity:1"/></linearGradient>        <linearGradient id="_Linear2" x1="0" y1="0" x2="1" y2="0" gradientUnits="userSpaceOnUse" gradientTransform="matrix(329.55,-403.86,403.86,329.55,102.286,447.904)"><stop offset="0" style="stop-color:rgb(0,112,123);stop-opacity:1"/><stop offset="0.11" style="stop-color:rgb(0,117,128);stop-opacity:1"/><stop offset="0.27" style="stop-color:rgb(0,129,142);stop-opacity:1"/><stop offset="0.49" style="stop-color:rgb(0,150,165);stop-opacity:1"/><stop offset="0.7" style="stop-color:rgb(0,174,192);stop-opacity:1"/><stop offset="1" style="stop-color:rgb(0,174,192);stop-opacity:1"/></linearGradient>    </defs></svg>