<?xml version="1.0" encoding="UTF-8" standalone="no"?><!DOCTYPE svg PUBLIC "-//W3C//DTD SVG 1.1//EN" "http://www.w3.org/Graphics/SVG/1.1/DTD/svg11.dtd"><svg width="100%" height="100%" viewBox="0 0 1024 512" version="1.1" xmlns="http://www.w3.org/2000/svg" xmlns:xlink="http://www.w3.org/1999/xlink" xml:space="preserve" style="fill-rule:evenodd;clip-rule:evenodd;stroke-linejoin:round;stroke-miterlimit:2;"><title>LoanBook</title><desc>Launched in late 2013, with offices in Barcelona and Madrid, LoanBook is Spain’s leading marketplace lending platform, offering working capital loans of up to €200k to Spanish SMEs. With near a 40% market share, LoanBook has lent nearly €40m to date and has doubled its volumes in each of the last 3 years.</desc>    <g transform="matrix(3.80724,0,0,3.80724,-70.9138,70.5515)">        <g transform="matrix(2.88695,0,0,1.32921,-204.963,-17.4014)">            <g transform="matrix(36.0221,0,0,67.2148,74.3762,75.0739)">                <path d="M0.185,-0.754l0,0.647l0.241,0l0,0.107l-0.336,0l0,-0.754l0.095,0Z" style="fill:rgb(83,138,165);fill-rule:nonzero;"/>            </g>            <g transform="matrix(22.1002,0,0,48,82.2062,57.6955)">                <path d="M0.047,-0.241c0,-0.069 0.024,-0.127 0.074,-0.176c0.049,-0.048 0.109,-0.072 0.179,-0.072c0.071,0 0.131,0.024 0.181,0.073c0.049,0.048 0.073,0.108 0.073,0.179c0,0.071 -0.024,0.131 -0.074,0.179c-0.049,0.048 -0.11,0.072 -0.182,0.072c-0.071,0 -0.131,-0.025 -0.179,-0.074c-0.048,-0.048 -0.072,-0.108 -0.072,-0.181Zm0.112,0.002c0,0.047 0.013,0.085 0.038,0.113c0.026,0.028 0.061,0.042 0.103,0.042c0.043,0 0.078,-0.014 0.103,-0.042c0.026,-0.028 0.039,-0.065 0.039,-0.111c0,-0.046 -0.013,-0.083 -0.039,-0.111c-0.026,-0.028 -0.06,-0.042 -0.103,-0.042c-0.042,0 -0.076,0.014 -0.102,0.042c-0.026,0.028 -0.039,0.064 -0.039,0.109Z" style="fill:rgb(83,138,165);fill-rule:nonzero;"/>            </g>            <g transform="matrix(22.1002,0,0,48,95.8364,57.6955)">                <path d="M0.42,-0.476l0.11,0l0,0.476l-0.11,0l0,-0.05c-0.045,0.043 -0.094,0.064 -0.146,0.064c-0.066,0 -0.12,-0.024 -0.163,-0.072c-0.043,-0.048 -0.064,-0.109 -0.064,-0.181c0,-0.072 0.021,-0.131 0.064,-0.178c0.042,-0.048 0.096,-0.072 0.16,-0.072c0.055,0 0.105,0.023 0.149,0.069l0,-0.056Zm-0.261,0.237c0,0.045 0.012,0.082 0.037,0.111c0.025,0.029 0.056,0.044 0.095,0.044c0.04,0 0.073,-0.014 0.098,-0.042c0.025,-0.029 0.038,-0.066 0.038,-0.111c0,-0.044 -0.013,-0.081 -0.038,-0.11c-0.025,-0.028 -0.057,-0.043 -0.097,-0.043c-0.038,0 -0.07,0.015 -0.095,0.043c-0.025,0.029 -0.038,0.065 -0.038,0.108Z" style="fill:rgb(83,138,165);fill-rule:nonzero;"/>            </g>            <g transform="matrix(22.1002,0,0,48,109.088,57.6955)">                <path d="M0.069,-0.476l0.111,0l0,0.044c0.038,-0.038 0.081,-0.057 0.13,-0.057c0.055,0 0.098,0.018 0.129,0.052c0.027,0.03 0.04,0.078 0.04,0.145l0,0.292l-0.11,0l0,-0.266c0,-0.046 -0.007,-0.079 -0.02,-0.097c-0.013,-0.018 -0.036,-0.027 -0.069,-0.027c-0.037,0 -0.063,0.012 -0.078,0.036c-0.015,0.024 -0.022,0.065 -0.022,0.125l0,0.229l-0.111,0l0,-0.476Z" style="fill:rgb(83,138,165);fill-rule:nonzero;"/>            </g>            <g transform="matrix(21.9904,0,0,43.7376,120.523,57.6955)">                <path d="M0.09,0l0,-0.754l0.114,0c0.05,0 0.09,0.004 0.12,0.012c0.03,0.008 0.056,0.021 0.077,0.039c0.021,0.02 0.038,0.043 0.05,0.072c0.013,0.029 0.019,0.058 0.019,0.088c0,0.054 -0.02,0.1 -0.062,0.137c0.04,0.014 0.072,0.038 0.095,0.072c0.023,0.034 0.035,0.073 0.035,0.118c0,0.059 -0.021,0.109 -0.062,0.15c-0.025,0.025 -0.054,0.042 -0.085,0.052c-0.034,0.009 -0.077,0.014 -0.128,0.014l-0.173,0Zm0.114,-0.43l0.036,0c0.042,0 0.073,-0.01 0.093,-0.028c0.019,-0.019 0.029,-0.047 0.029,-0.083c0,-0.035 -0.01,-0.062 -0.03,-0.081c-0.02,-0.018 -0.049,-0.027 -0.088,-0.027l-0.04,0l0,0.219Zm0,0.323l0.07,0c0.052,0 0.09,-0.01 0.114,-0.03c0.025,-0.022 0.038,-0.05 0.038,-0.083c0,-0.033 -0.012,-0.06 -0.037,-0.082c-0.024,-0.022 -0.066,-0.033 -0.127,-0.033l-0.058,0l0,0.228Z" style="fill:rgb(83,138,165);fill-rule:nonzero;"/>            </g>            <g transform="matrix(22.1002,0,0,48,132.889,57.6955)">                <path d="M0.047,-0.241c0,-0.069 0.024,-0.127 0.074,-0.176c0.049,-0.048 0.109,-0.072 0.179,-0.072c0.071,0 0.131,0.024 0.181,0.073c0.049,0.048 0.073,0.108 0.073,0.179c0,0.071 -0.024,0.131 -0.074,0.179c-0.049,0.048 -0.11,0.072 -0.182,0.072c-0.071,0 -0.131,-0.025 -0.179,-0.074c-0.048,-0.048 -0.072,-0.108 -0.072,-0.181Zm0.112,0.002c0,0.047 0.013,0.085 0.038,0.113c0.026,0.028 0.061,0.042 0.103,0.042c0.043,0 0.078,-0.014 0.103,-0.042c0.026,-0.028 0.039,-0.065 0.039,-0.111c0,-0.046 -0.013,-0.083 -0.039,-0.111c-0.026,-0.028 -0.06,-0.042 -0.103,-0.042c-0.042,0 -0.076,0.014 -0.102,0.042c-0.026,0.028 -0.039,0.064 -0.039,0.109Z" style="fill:rgb(83,138,165);fill-rule:nonzero;"/>            </g>            <g transform="matrix(22.1002,0,0,48,146.519,57.6955)">                <path d="M0.047,-0.241c0,-0.069 0.024,-0.127 0.074,-0.176c0.049,-0.048 0.109,-0.072 0.179,-0.072c0.071,0 0.131,0.024 0.181,0.073c0.049,0.048 0.073,0.108 0.073,0.179c0,0.071 -0.024,0.131 -0.074,0.179c-0.049,0.048 -0.11,0.072 -0.182,0.072c-0.071,0 -0.131,-0.025 -0.179,-0.074c-0.048,-0.048 -0.072,-0.108 -0.072,-0.181Zm0.112,0.002c0,0.047 0.013,0.085 0.038,0.113c0.026,0.028 0.061,0.042 0.103,0.042c0.043,0 0.078,-0.014 0.103,-0.042c0.026,-0.028 0.039,-0.065 0.039,-0.111c0,-0.046 -0.013,-0.083 -0.039,-0.111c-0.026,-0.028 -0.06,-0.042 -0.103,-0.042c-0.042,0 -0.076,0.014 -0.102,0.042c-0.026,0.028 -0.039,0.064 -0.039,0.109Z" style="fill:rgb(83,138,165);fill-rule:nonzero;"/>            </g>            <g transform="matrix(22.1002,0,0,48,159.456,57.6955)">                <path d="M0.179,-0.668l0,0.346l0.155,-0.169l0.147,0l-0.206,0.215l0.222,0.276l-0.143,0l-0.157,-0.201l-0.018,0.018l0,0.183l-0.11,0l0,-0.668l0.11,0Z" style="fill:rgb(83,138,165);fill-rule:nonzero;"/>            </g>        </g>        <g transform="matrix(1.27655,0,0,1,-162.555,1.28875)">            <g transform="matrix(18,0,0,18,173.553,78.791)">                <path d="M0.174,-0.35c0,0.047 0.006,0.087 0.018,0.121c0.011,0.035 0.026,0.063 0.045,0.085c0.019,0.022 0.041,0.039 0.065,0.05c0.023,0.011 0.048,0.016 0.072,0.016c0.025,0 0.048,-0.005 0.068,-0.015c0.021,-0.01 0.039,-0.024 0.054,-0.041c0.016,-0.017 0.029,-0.036 0.039,-0.058c0.01,-0.021 0.017,-0.044 0.022,-0.066l0.117,0c-0.008,0.038 -0.02,0.074 -0.036,0.108c-0.016,0.033 -0.037,0.062 -0.063,0.087c-0.025,0.025 -0.054,0.045 -0.088,0.059c-0.034,0.014 -0.071,0.021 -0.113,0.021c-0.048,0 -0.092,-0.008 -0.13,-0.025c-0.039,-0.016 -0.072,-0.04 -0.099,-0.071c-0.028,-0.032 -0.049,-0.07 -0.064,-0.116c-0.015,-0.045 -0.022,-0.097 -0.022,-0.156c0,-0.045 0.007,-0.088 0.021,-0.13c0.014,-0.042 0.035,-0.079 0.061,-0.111c0.027,-0.033 0.06,-0.058 0.099,-0.077c0.039,-0.02 0.083,-0.029 0.133,-0.029c0.042,0 0.08,0.006 0.113,0.018c0.034,0.012 0.063,0.029 0.088,0.05c0.025,0.021 0.046,0.047 0.063,0.076c0.017,0.029 0.031,0.061 0.041,0.096l-0.12,0c-0.017,-0.049 -0.041,-0.085 -0.071,-0.109c-0.03,-0.024 -0.068,-0.036 -0.114,-0.036c-0.029,0 -0.056,0.007 -0.08,0.02c-0.025,0.014 -0.045,0.032 -0.063,0.055c-0.018,0.023 -0.031,0.05 -0.041,0.08c-0.01,0.031 -0.015,0.063 -0.015,0.098Z" style="fill:rgb(117,117,119);fill-rule:nonzero;"/>            </g>            <g transform="matrix(18,0,0,18,187.098,78.791)">                <path d="M0.425,-0.681l0.249,0.681l-0.121,0l-0.073,-0.199l-0.245,0c-0.012,0.033 -0.024,0.066 -0.037,0.099c-0.012,0.034 -0.024,0.067 -0.036,0.1l-0.119,0l0.249,-0.681l0.133,0Zm-0.068,0.143l-0.086,0.242l0.173,0l-0.087,-0.242Z" style="fill:rgb(117,117,119);fill-rule:nonzero;"/>            </g>            <g transform="matrix(18,0,0,18,200.018,78.791)">                <path d="M0.086,-0.681l0.269,0c0.036,0 0.067,0.006 0.094,0.018c0.027,0.012 0.049,0.028 0.068,0.047c0.018,0.019 0.032,0.041 0.042,0.065c0.009,0.024 0.014,0.049 0.014,0.073c0,0.026 -0.005,0.051 -0.014,0.075c-0.01,0.025 -0.024,0.047 -0.042,0.066c-0.019,0.019 -0.042,0.034 -0.069,0.046c-0.027,0.011 -0.058,0.017 -0.093,0.017l-0.154,0l0,0.274l-0.115,0l0,-0.681Zm0.115,0.31l0.13,0c0.024,0 0.044,-0.002 0.06,-0.008c0.016,-0.006 0.029,-0.014 0.039,-0.023c0.01,-0.01 0.017,-0.022 0.021,-0.035c0.005,-0.013 0.007,-0.027 0.007,-0.042c0,-0.015 -0.003,-0.029 -0.008,-0.042c-0.006,-0.013 -0.014,-0.024 -0.025,-0.033c-0.01,-0.01 -0.024,-0.017 -0.04,-0.022c-0.015,-0.005 -0.033,-0.008 -0.054,-0.008l-0.13,0l0,0.213Z" style="fill:rgb(117,117,119);fill-rule:nonzero;"/>            </g>            <g transform="matrix(18,0,0,18,211.946,78.791)">                <rect x="0.086" y="-0.681" width="0.115" height="0.681" style="fill:rgb(117,117,119);fill-rule:nonzero;"/>            </g>            <g transform="matrix(18,0,0,18,216.348,78.791)">                <path d="M0.587,-0.681l0,0.097l-0.215,0l0,0.584l-0.115,0l0,-0.584l-0.216,0l0,-0.097l0.546,0Z" style="fill:rgb(117,117,119);fill-rule:nonzero;"/>            </g>            <g transform="matrix(18,0,0,18,226.867,78.791)">                <path d="M0.425,-0.681l0.249,0.681l-0.121,0l-0.073,-0.199l-0.245,0c-0.012,0.033 -0.024,0.066 -0.037,0.099c-0.012,0.034 -0.024,0.067 -0.036,0.1l-0.119,0l0.249,-0.681l0.133,0Zm-0.068,0.143l-0.086,0.242l0.173,0l-0.087,-0.242Z" style="fill:rgb(117,117,119);fill-rule:nonzero;"/>            </g>            <g transform="matrix(18,0,0,18,239.787,78.791)">                <path d="M0.201,-0.681l0,0.582l0.328,0l0,0.099l-0.443,0l0,-0.681l0.115,0Z" style="fill:rgb(117,117,119);fill-rule:nonzero;"/>            </g>        </g>    </g></svg>