<?xml version="1.0" encoding="UTF-8" standalone="no"?><!DOCTYPE svg PUBLIC "-//W3C//DTD SVG 1.1//EN" "http://www.w3.org/Graphics/SVG/1.1/DTD/svg11.dtd"><svg width="100%" height="100%" viewBox="0 0 1024 512" version="1.1" xmlns="http://www.w3.org/2000/svg" xmlns:xlink="http://www.w3.org/1999/xlink" xml:space="preserve" style="fill-rule:evenodd;clip-rule:evenodd;stroke-linejoin:round;stroke-miterlimit:2;"><title>Walliance</title><desc>Our purpose is to build a better world through sustainable real estate developments, for an healthy financial and green planetWe stand up for equality and we stand for causes that reflect our values. We seek to encourage people to help shape a better future and create a world where architecture and real estate investments are safe.</desc>    <g transform="matrix(2.26034,0,0,2.26034,-439.307,-416.676)">        <path d="M396.8,251.6l-11.4,80.3l12.4,0l11.5,-80.7l-12.5,0.4Z" style="fill:rgb(228,6,72);fill-rule:nonzero;"/>        <path d="M361.6,331.9l12.4,-0l11.2,-79.9l-12.3,0.5l-11.3,79.4Z" style="fill:rgb(228,6,72);fill-rule:nonzero;"/>        <path d="M275,302.2c-6.3,15 -9.8,17.5 -11.9,17.5c-4.3,0 -2,-11.5 0,-26.7c2.3,-17 4.6,-33.5 -11.8,-33.5c-17.6,0 -22.4,19.2 -28.3,39.7c-6.9,24.3 -9.7,31.6 -12.3,31.6c-5.6,0 -0.8,-33.3 -0.2,-60.5l-13.2,0c-1.1,45.2 -8.1,73.7 12.1,73.7c14.2,0 18.7,-14.3 26.4,-41.4c2.9,-10.3 8.4,-30 13.4,-30c2.8,0 2.8,6.5 0.9,19.1c-2.5,16.3 -7,41.2 12.2,41.2c11,0 17.1,-7.2 24.9,-25.8c4.3,-10.2 7.6,-20.3 16.6,-28.5c10.6,-9.6 24.9,-13 55.9,-13.7l1.6,-12.2c-26.3,0.9 -50.5,2.1 -66.2,15.9c-11.1,9.9 -16.3,24.4 -20.1,33.6Z" style="fill:rgb(228,6,72);fill-rule:nonzero;"/>        <path d="M409.3,331.9l12.3,-0l7.2,-51.3l-12.3,0l-7.2,51.3Z" style="fill:rgb(228,6,72);fill-rule:nonzero;"/>        <path d="M344.2,286.4c-3.1,-4.2 -7.4,-6.6 -13.8,-6.6c-15.1,-0 -27.8,12.8 -27.8,30.2c0,14.5 8.7,22.6 20.4,22.6c6.4,-0 11.4,-2.4 15.7,-6.7l-0.8,5.9l12.3,-0l7.2,-51.2l-12.4,-0l-0.8,5.8Zm-18.5,35.7c-6.4,0 -10.7,-4.4 -10.7,-12.6c0,-10.3 7,-19.2 15.2,-19.2c5.8,0 10.9,4.5 10.9,13.3c0,10 -6.5,18.5 -15.4,18.5Z" style="fill:rgb(228,6,72);fill-rule:nonzero;"/>        <path d="M425.9,255.9c-4.9,0 -9.2,4.2 -9.2,8.9c-0,3.7 2.9,6.8 7,6.8c4.9,0 9.2,-4.3 9.2,-8.9c-0,-3.8 -3.1,-6.8 -7,-6.8Z" style="fill:rgb(228,6,72);fill-rule:nonzero;"/>        <path d="M646.5,300.6c0,-12.5 -7.9,-20.8 -20.8,-20.8c-16.1,0 -27.7,13.2 -27.7,30.1c0,16.9 11.6,22.7 23.5,22.7c7.1,0 14.6,-1.9 21.8,-6.3l-2.9,-9.8c-3.9,2.4 -9.9,5.7 -16.3,5.7c-6.4,0 -12.7,-3.2 -13.2,-11.4l33.9,0c0.7,-2.1 1.7,-5.7 1.7,-10.2Zm-21.8,-10.5c5.8,0 9.1,3.6 9.1,9.7l0,1l-21.6,0c2.2,-6.8 6.5,-10.7 12.5,-10.7Z" style="fill:rgb(228,6,72);fill-rule:nonzero;"/>        <path d="M576.3,290.4c6.6,-0 11.7,4.2 14,6.7c1.6,-3.3 3.4,-6.6 5.6,-9.8c-3.3,-3.7 -9.2,-7.5 -18.5,-7.5c-17.6,-0 -30.2,13.2 -30.2,30c-0,15.6 10.7,22.8 22.9,22.8c8.7,-0 17.6,-3.8 22.5,-9.2c-1.1,-3.5 -2.1,-7.2 -2.9,-10.9c-4.4,5.4 -10.6,9.6 -17.5,9.6c-6.3,-0 -11.8,-4.2 -11.8,-13.1c-0.1,-10 6.9,-18.6 15.9,-18.6Z" style="fill:rgb(228,6,72);fill-rule:nonzero;"/>        <path d="M525.8,279.2c-8.6,0 -13.7,4.6 -15.9,7.3l0.8,-5.8l-12.4,0l-7.2,51.1l12.4,0l4.1,-28.8c1,-7.2 6.9,-12.5 13.2,-12.5c5.3,0 8,3.9 7.2,9.2l-4.8,32l12.4,0.1l4.9,-33c1.2,-8.3 -1.2,-19.6 -14.7,-19.6Z" style="fill:rgb(228,6,72);fill-rule:nonzero;"/>        <path d="M475.3,286.4c-3.2,-4.2 -7.5,-6.6 -13.8,-6.6c-15.5,-0 -27.8,14 -27.8,31c0,14.4 8.7,21.8 20.2,21.8c6.6,-0 11.6,-2.4 16,-6.8l-0.8,5.9l12.3,-0l7.2,-51.2l-12.4,-0l-0.9,5.9Zm-17.7,35.7c-6.4,0 -10.7,-4.4 -10.7,-12.6c0,-10.3 6.8,-19.2 15.6,-19.2c5.9,0 10.5,4.1 10.5,12.9c-0,10.5 -6.6,18.9 -15.4,18.9Z" style="fill:rgb(228,6,72);fill-rule:nonzero;"/>    </g></svg>