<?xml version="1.0" encoding="UTF-8" standalone="no"?><!DOCTYPE svg PUBLIC "-//W3C//DTD SVG 1.1//EN" "http://www.w3.org/Graphics/SVG/1.1/DTD/svg11.dtd"><svg width="100%" height="100%" viewBox="0 0 1024 512" version="1.1" xmlns="http://www.w3.org/2000/svg" xmlns:xlink="http://www.w3.org/1999/xlink" xml:space="preserve" style="fill-rule:evenodd;clip-rule:evenodd;stroke-linejoin:round;stroke-miterlimit:2;"><title>Lymo</title><desc>Lymo allows individuals to finance real estate projects rigorously selected, audited and developed by its teams.</desc>    <g transform="matrix(6.18006,0,0,2.64844,-1075.47,-744.116)">        <g transform="matrix(82.2808,0,0,192,169.08,420.921)">            <rect x="0.064" y="-0.714" width="0.131" height="0.714" style="fill:rgb(51,49,52);fill-rule:nonzero;"/>        </g>        <g transform="matrix(82.2808,0,0,192,188.436,420.921)">            <path d="M0.007,-0.477l0.145,0l0.085,0.227l0.032,0.116l0.004,0l0.031,-0.117l0.074,-0.226l0.136,-0l-0.175,0.494c-0.01,0.027 -0.021,0.053 -0.033,0.078c-0.013,0.025 -0.028,0.049 -0.045,0.07c-0.018,0.021 -0.039,0.04 -0.063,0.057c-0.024,0.017 -0.052,0.03 -0.085,0.041l-0.055,-0.103c0.037,-0.013 0.069,-0.033 0.094,-0.058c0.025,-0.025 0.043,-0.056 0.052,-0.091l0.004,-0.013l-0.201,-0.475Z" style="fill:rgb(255,192,0);fill-rule:nonzero;"/>        </g>        <g transform="matrix(82.2808,0,0,192,229.267,420.921)">            <path d="M0.193,-0l-0.133,-0l0,-0.477l0.104,0l0.016,0.061c0.021,-0.022 0.045,-0.039 0.07,-0.052c0.025,-0.013 0.054,-0.019 0.086,-0.019c0.068,0 0.114,0.025 0.139,0.074c0.021,-0.023 0.046,-0.042 0.073,-0.054c0.027,-0.013 0.057,-0.02 0.088,-0.02c0.051,0 0.089,0.014 0.117,0.041c0.027,0.027 0.04,0.067 0.04,0.119l0,0.327l-0.133,0l0,-0.312c0,-0.023 -0.006,-0.04 -0.017,-0.053c-0.011,-0.013 -0.027,-0.02 -0.048,-0.02c-0.018,0 -0.036,0.004 -0.054,0.013c-0.019,0.009 -0.035,0.021 -0.048,0.037l0,0.335l-0.133,0l0,-0.312c0,-0.023 -0.005,-0.04 -0.016,-0.053c-0.011,-0.013 -0.028,-0.02 -0.049,-0.02c-0.018,0 -0.036,0.005 -0.054,0.015c-0.019,0.009 -0.035,0.022 -0.048,0.039l0,0.331Z" style="fill:rgb(51,49,52);fill-rule:nonzero;"/>        </g>        <g transform="matrix(82.2808,0,0,192,296.278,420.921)">            <path d="M0.524,-0.242c0,0.039 -0.006,0.075 -0.019,0.106c-0.013,0.031 -0.03,0.058 -0.052,0.08c-0.023,0.021 -0.049,0.038 -0.079,0.05c-0.03,0.011 -0.062,0.017 -0.097,0.017c-0.035,0 -0.067,-0.005 -0.097,-0.016c-0.029,-0.011 -0.055,-0.026 -0.077,-0.047c-0.021,-0.021 -0.038,-0.046 -0.051,-0.077c-0.012,-0.03 -0.018,-0.064 -0.018,-0.103c-0,-0.041 0.006,-0.077 0.019,-0.109c0.013,-0.031 0.03,-0.058 0.052,-0.079c0.023,-0.022 0.049,-0.039 0.079,-0.05c0.03,-0.011 0.062,-0.017 0.097,-0.017c0.035,0 0.067,0.005 0.096,0.016c0.03,0.011 0.056,0.026 0.078,0.047c0.021,0.02 0.038,0.045 0.051,0.076c0.012,0.031 0.018,0.066 0.018,0.106Zm-0.137,0.005c0,-0.027 -0.003,-0.051 -0.009,-0.07c-0.006,-0.019 -0.014,-0.035 -0.024,-0.047c-0.01,-0.012 -0.022,-0.021 -0.035,-0.026c-0.013,-0.006 -0.027,-0.009 -0.041,-0.009c-0.014,0 -0.027,0.003 -0.04,0.008c-0.013,0.005 -0.024,0.013 -0.034,0.025c-0.01,0.011 -0.018,0.027 -0.024,0.046c-0.006,0.019 -0.009,0.044 -0.009,0.073c0,0.026 0.003,0.049 0.009,0.068c0.006,0.019 0.014,0.034 0.025,0.046c0.01,0.012 0.022,0.021 0.035,0.027c0.013,0.006 0.026,0.009 0.04,0.009c0.014,0 0.027,-0.002 0.04,-0.007c0.013,-0.005 0.024,-0.014 0.034,-0.026c0.01,-0.012 0.018,-0.027 0.024,-0.046c0.006,-0.019 0.009,-0.043 0.009,-0.071Z" style="fill:rgb(51,49,52);fill-rule:nonzero;"/>        </g>    </g></svg>