<?xml version="1.0" encoding="UTF-8" standalone="no"?><!DOCTYPE svg PUBLIC "-//W3C//DTD SVG 1.1//EN" "http://www.w3.org/Graphics/SVG/1.1/DTD/svg11.dtd"><svg width="100%" height="100%" viewBox="0 0 1024 512" version="1.1" xmlns="http://www.w3.org/2000/svg" xmlns:xlink="http://www.w3.org/1999/xlink" xml:space="preserve" style="fill-rule:evenodd;clip-rule:evenodd;stroke-linejoin:round;stroke-miterlimit:2;"><title>1741 Group</title><desc>The 1741 Diversified (P2P Multi-Platform) Lending Fund provides institutional-grade access to the Swiss market place lending opportunity. We structure, manage, represent and distribute our clients fund ideas in Switzerland or the EU.</desc>    <g id="_1741" transform="matrix(7.13284,0,0,7.13284,2.00374,69.1551)">        <g>            <path id="Fill-1" d="M10.17,0.618c0.008,0.046 0.014,0.956 0.014,1.118l0,22.932c0,1.386 0.363,2.267 1.092,2.644c0.728,0.378 1.22,0.275 3.21,0.347l0,1.084l-13.395,0l0,-1.138c2.139,-0.108 2.816,-0.077 3.47,-0.563c0.654,-0.485 0.982,-1.538 0.982,-3.157l0,-15.43c0,-0.863 -0.107,-1.52 -0.319,-1.97c-0.212,-0.449 -0.672,-0.674 -1.379,-0.674c-0.46,0 -1.056,0.131 -1.79,0.391c-0.733,0.261 -1.419,0.536 -2.056,0.823l0,-1.563l9.739,-5.006c0,0 0.186,-0.117 0.313,-0.04c0.111,0.068 0.11,0.158 0.119,0.202" style="fill:rgb(27,25,23);"/>            <g id="Fill-4" transform="matrix(1,0,0,1,68,0)">                <path d="M10.383,0.618c0.008,0.046 0.013,0.956 0.013,1.118l0,22.932c0,1.386 0.364,2.267 1.093,2.644c0.728,0.378 1.22,0.275 3.21,0.347l0,1.084l-13.396,0l0,-1.138c2.139,-0.108 2.817,-0.077 3.471,-0.563c0.654,-0.485 0.981,-1.538 0.981,-3.157l0,-15.43c0,-0.863 -0.106,-1.52 -0.318,-1.97c-0.212,-0.449 -0.672,-0.674 -1.379,-0.674c-0.46,0 -1.057,0.131 -1.79,0.391c-0.734,0.261 -1.418,0.536 -2.055,0.823l0,-1.563l9.738,-5.006c0,0 0.186,-0.117 0.313,-0.04c0.111,0.068 0.11,0.158 0.119,0.202" style="fill:rgb(27,25,23);"/>            </g>            <path id="Fill-7" d="M38,1l0,0.887l-12,37.113l-3.536,0l11.198,-33.942l-11.736,0c-1.74,0 -2.993,0.287 -3.754,0.861c-0.763,0.573 -1.728,1.774 -2.894,3.601l-1.278,-0.43c1.166,-2.867 1.888,-4.637 2.167,-5.308c0.278,-0.673 0.642,-1.599 1.09,-2.782l20.743,0Z" style="fill:rgb(27,25,23);"/>            <path id="Fill-9" d="M52.809,6.548l-13.516,18.64l13.516,0l0,-18.64Zm1.817,-5.548l2.618,0l0,24.188l5.756,0l0,3.575l-5.756,0l0,10.237l-4.379,0l0,-10.237l-15.865,0l0,-3.575l17.626,-24.188Z" style="fill:rgb(27,25,23);"/>        </g>        <g>            <g id="Fill-11" transform="matrix(1,0,0,1,68,36)">                <path d="M12.817,7.383l0,7.272c-0.961,0.471 -1.861,0.813 -2.7,1.026c-0.838,0.212 -1.754,0.319 -2.746,0.319c-1.661,0 -3.019,-0.327 -4.072,-0.98c-1.052,-0.653 -1.823,-1.546 -2.311,-2.679c-0.488,-1.132 -0.731,-2.458 -0.731,-3.977c0,-1.779 0.324,-3.245 0.972,-4.4c0.648,-1.155 1.514,-1.998 2.596,-2.531c1.083,-0.531 2.296,-0.797 3.638,-0.797c1.877,0 3.538,0.456 4.988,1.367l-1.101,1.916c-1.146,-0.73 -2.386,-1.094 -3.715,-1.094c-1.606,0 -2.787,0.478 -3.544,1.435c-0.757,0.958 -1.135,2.287 -1.135,3.989c0,1.809 0.356,3.181 1.067,4.115c0.712,0.935 1.863,1.402 3.455,1.402c0.933,0 1.843,-0.16 2.73,-0.479l0,-3.761l-3.523,0l0.298,-2.143l5.834,0Z" style="fill:rgb(26,208,179);"/>            </g>            <path id="Fill-14" d="M87.528,44.246l1.907,0c1.006,0 1.774,-0.22 2.307,-0.66c0.532,-0.44 0.798,-1.092 0.798,-1.956c0,-0.802 -0.24,-1.412 -0.721,-1.829c-0.48,-0.416 -1.179,-0.625 -2.095,-0.625l-2.196,0l0,5.07Zm8.472,7.592l0,0.162l-2.861,0l-3.881,-5.671l-1.73,0l0,5.671l-2.528,0l0,-15l4.745,0c1.183,0 2.177,0.193 2.984,0.579c0.806,0.386 1.411,0.918 1.818,1.597c0.406,0.68 0.609,1.467 0.609,2.362c0,1.064 -0.276,1.994 -0.83,2.788c-0.555,0.796 -1.365,1.355 -2.429,1.678l4.103,5.834Z" style="fill:rgb(26,208,179);"/>            <path id="Fill-16" d="M107.386,49.218c0.668,-0.445 1.166,-1.065 1.493,-1.858c0.327,-0.794 0.491,-1.724 0.491,-2.793c0,-1.098 -0.156,-2.055 -0.468,-2.871c-0.313,-0.816 -0.788,-1.451 -1.427,-1.903c-0.639,-0.452 -1.435,-0.679 -2.386,-0.679c-0.98,0 -1.805,0.222 -2.474,0.668c-0.669,0.445 -1.167,1.065 -1.494,1.858c-0.327,0.794 -0.49,1.725 -0.49,2.793c0,1.677 0.364,3.005 1.092,3.984c0.728,0.979 1.798,1.469 3.211,1.469c0.965,0 1.784,-0.222 2.452,-0.668m-6.243,1.836c-1.039,-0.63 -1.824,-1.513 -2.352,-2.648c-0.527,-1.135 -0.791,-2.452 -0.791,-3.95c0,-1.662 0.32,-3.053 0.958,-4.173c0.64,-1.121 1.494,-1.948 2.564,-2.482c1.07,-0.534 2.26,-0.801 3.567,-0.801c1.486,0 2.749,0.315 3.79,0.946c1.041,0.63 1.821,1.513 2.342,2.648c0.52,1.135 0.779,2.452 0.779,3.95c0,1.663 -0.319,3.053 -0.958,4.173c-0.639,1.121 -1.491,1.948 -2.553,2.482c-1.062,0.534 -2.248,0.801 -3.555,0.801c-1.487,0 -2.75,-0.315 -3.791,-0.946" style="fill:rgb(26,208,179);"/>            <path id="Fill-18" d="M117.795,51.183c-0.96,-0.544 -1.665,-1.282 -2.117,-2.212c-0.452,-0.931 -0.678,-1.994 -0.678,-3.189l0,-8.782l2.666,0l0,8.351c0,1.407 0.304,2.5 0.912,3.279c0.607,0.78 1.605,1.169 2.992,1.169c2.509,0 3.764,-1.422 3.764,-4.267l0,-8.532l2.666,0l0,8.714c0,1.468 -0.289,2.666 -0.865,3.597c-0.577,0.93 -1.356,1.611 -2.338,2.042c-0.983,0.431 -2.113,0.647 -3.39,0.647c-1.45,0 -2.654,-0.272 -3.612,-0.817" style="fill:rgb(26,208,179);"/>            <path id="Fill-20" d="M140.221,41.768c0,-0.848 -0.259,-1.493 -0.777,-1.932c-0.519,-0.44 -1.281,-0.66 -2.286,-0.66l-2.472,0l0,5.348l2.142,0c2.262,0 3.393,-0.919 3.393,-2.756m0.188,-4.178c0.864,0.393 1.512,0.942 1.944,1.644c0.431,0.702 0.647,1.516 0.647,2.442c0,0.957 -0.22,1.814 -0.66,2.57c-0.439,0.756 -1.107,1.354 -2.002,1.793c-0.894,0.44 -1.986,0.66 -3.274,0.66l-2.378,0l0,5.301l-2.686,0l0,-15l5.206,0c1.271,0 2.34,0.197 3.203,0.59" style="fill:rgb(26,208,179);"/>        </g>    </g></svg>