<?xml version="1.0" encoding="UTF-8" standalone="no"?><!DOCTYPE svg PUBLIC "-//W3C//DTD SVG 1.1//EN" "http://www.w3.org/Graphics/SVG/1.1/DTD/svg11.dtd"><svg width="100%" height="100%" viewBox="0 0 1024 512" version="1.1" xmlns="http://www.w3.org/2000/svg" xmlns:xlink="http://www.w3.org/1999/xlink" xml:space="preserve" style="fill-rule:evenodd;clip-rule:evenodd;stroke-linejoin:round;stroke-miterlimit:2;"><title>Innovate Finance</title><desc>Innovate Finance is the independent industry body that represents and advances the global FinTech community in the UK. Our mission is to accelerate the UK’s leading role in the financial services sector by directly supporting the next generation of technology-led innovators.</desc>    <g transform="matrix(3.57178,0,0,3.57178,-768.036,-711.382)">        <g transform="matrix(2,0,0,2,255.054,314.081)">            <path d="M0,-18.316c-0.139,0.078 -0.251,0.109 -0.397,0.109l-7.063,0c-0.329,0 -0.63,0.023 -0.904,0.069c-0.274,0.046 -0.511,0.137 -0.712,0.274c-0.201,0.137 -0.374,0.333 -0.52,0.589c-0.146,0.255 -0.256,0.593 -0.329,1.013l-1.067,6.023l9.172,0c0.31,0 0.508,0.159 0.465,0.41c-0.028,0.166 -0.066,0.356 -0.066,0.356c-0.055,0.274 -0.282,0.411 -0.591,0.411l-9.172,0l-1.697,9.555c-0.037,0.146 -0.101,0.27 -0.192,0.37c-0.091,0.1 -0.21,0.15 -0.356,0.15l-0.274,0c-0.128,0 -0.223,-0.041 -0.287,-0.123c-0.064,-0.082 -0.096,-0.178 -0.096,-0.287l0,-0.11l2.957,-16.755c0.201,-1.15 0.607,-1.949 1.218,-2.396c0.612,-0.447 1.492,-0.671 2.642,-0.671l7.03,0c0.146,0 0.251,0.015 0.341,0.078c0.061,0.045 0.121,0.12 0.131,0.279c0.004,0.065 -0.017,0.24 -0.034,0.366c-0.02,0.15 -0.14,0.257 -0.199,0.29" style="fill:rgb(53,53,53);fill-rule:nonzero;"/>        </g>        <g transform="matrix(2,0,0,2,265.048,315.067)">            <path d="M0,-19.302l-3.422,19.302c-0.037,0.146 -0.101,0.27 -0.192,0.37c-0.091,0.1 -0.21,0.15 -0.356,0.15l-0.274,0c-0.128,0 -0.223,-0.041 -0.287,-0.123c-0.064,-0.082 -0.096,-0.178 -0.096,-0.287l0,-0.11l3.422,-19.302c0.037,-0.145 0.1,-0.269 0.192,-0.369c0.091,-0.101 0.209,-0.151 0.356,-0.151l0.274,0c0.127,0 0.223,0.041 0.287,0.123c0.064,0.082 0.096,0.178 0.096,0.288l0,0.109Z" style="fill:rgb(53,53,53);fill-rule:nonzero;"/>        </g>        <g transform="matrix(2,0,0,2,329.196,275.314)">            <path d="M0,20.233c-0.082,0.109 -0.215,0.164 -0.397,0.164l-0.274,0c-0.201,0 -0.32,-0.118 -0.356,-0.356l-0.986,-7.419l-7.884,0l-3.56,7.419c-0.036,0.092 -0.109,0.174 -0.219,0.247c-0.109,0.072 -0.21,0.109 -0.301,0.109l-0.41,0c-0.238,0 -0.356,-0.109 -0.356,-0.328c0,-0.055 0.009,-0.11 0.027,-0.165c0.018,-0.054 0.045,-0.119 0.082,-0.191l8.871,-18.536c0.438,-0.894 1.113,-1.341 2.026,-1.341c0.438,0 0.784,0.114 1.04,0.342c0.256,0.228 0.411,0.552 0.466,0.972l2.354,18.563l0,0.109c0,0.165 -0.041,0.301 -0.123,0.411m-3.354,-18.727c-0.018,-0.146 -0.073,-0.274 -0.165,-0.383c-0.091,-0.11 -0.209,-0.165 -0.355,-0.165c-0.164,0 -0.311,0.051 -0.438,0.151c-0.128,0.1 -0.229,0.224 -0.301,0.37l-4.764,9.938l7.255,0l-1.232,-9.911Z" style="fill:rgb(53,53,53);fill-rule:nonzero;"/>        </g>        <g transform="matrix(2,0,0,2,399.96,314.023)">            <path d="M0,-18.559c-0.037,0.145 -0.086,0.236 -0.15,0.272c-0.065,0.037 -0.247,0.08 -0.425,0.055c-0.178,-0.025 -0.539,-0.069 -0.903,-0.096c-0.366,-0.027 -0.758,-0.05 -1.177,-0.068c-0.421,-0.019 -0.859,-0.037 -1.315,-0.055c-0.456,-0.018 -0.895,-0.027 -1.314,-0.027c-0.803,0 -1.565,0.128 -2.286,0.384c-0.721,0.257 -1.374,0.673 -1.957,1.249c-0.585,0.577 -1.096,1.337 -1.534,2.279c-0.438,0.944 -0.776,2.101 -1.012,3.474l-0.631,3.625c-0.164,0.989 -0.246,1.849 -0.246,2.582c0,0.897 0.11,1.651 0.328,2.265c0.219,0.613 0.525,1.108 0.918,1.483c0.392,0.375 0.858,0.645 1.396,0.811c0.538,0.164 1.136,0.246 1.793,0.246c0.42,0 0.858,-0.009 1.315,-0.028c0.455,-0.017 0.899,-0.035 1.328,-0.054c0.428,-0.018 0.83,-0.046 1.204,-0.083c0.374,-0.036 0.689,-0.064 0.945,-0.081l0.164,0c0.2,0 0.301,0.073 0.301,0.218l0,0.107l-0.055,0.322c-0.037,0.142 -0.114,0.249 -0.232,0.321c-0.119,0.071 -0.242,0.116 -0.37,0.133c-0.365,0.036 -0.94,0.089 -1.725,0.16c-0.785,0.072 -1.807,0.107 -3.066,0.107c-0.712,0 -1.396,-0.105 -2.054,-0.314c-0.657,-0.21 -1.236,-0.547 -1.738,-1.013c-0.502,-0.466 -0.903,-1.082 -1.205,-1.849c-0.301,-0.766 -0.451,-1.697 -0.451,-2.792c0,-0.767 0.082,-1.615 0.246,-2.547l0.629,-3.614c0.292,-1.66 0.708,-3.038 1.246,-4.134c0.539,-1.095 1.173,-1.966 1.903,-2.614c0.73,-0.647 1.524,-1.104 2.382,-1.369c0.858,-0.264 1.752,-0.397 2.683,-0.397c1.259,0 2.263,0.035 3.012,0.107c0.748,0.072 1.281,0.121 1.646,0.158c0.138,0.014 0.233,0.06 0.325,0.122c0.091,0.063 0.143,0.173 0.137,0.281c-0.005,0.108 -0.055,0.374 -0.055,0.374" style="fill:rgb(53,53,53);fill-rule:nonzero;"/>        </g>        <g transform="matrix(2,0,0,2,428.434,315.178)">            <path d="M0,-19.412l-0.027,0.219c-0.019,0.146 -0.087,0.256 -0.206,0.329c-0.119,0.073 -0.251,0.109 -0.397,0.109l-7.064,0c-0.346,0 -0.656,0.023 -0.931,0.069c-0.273,0.045 -0.511,0.136 -0.711,0.274c-0.201,0.136 -0.37,0.333 -0.506,0.589c-0.138,0.255 -0.243,0.592 -0.316,1.012l-1.067,6.023l9.172,0c0.127,0 0.236,0.028 0.328,0.083c0.091,0.054 0.137,0.146 0.137,0.273l0,0.083l-0.055,0.274c-0.055,0.31 -0.256,0.465 -0.602,0.465l-9.172,0l-1.232,7.009c-0.037,0.128 -0.055,0.246 -0.055,0.356l0,0.301c0,0.547 0.16,0.899 0.479,1.054c0.32,0.155 0.762,0.233 1.328,0.233l7.064,0c0.292,0 0.438,0.118 0.438,0.355l0,0.082l-0.027,0.22c-0.019,0.146 -0.087,0.26 -0.206,0.342c-0.119,0.082 -0.251,0.123 -0.397,0.123l-7.063,0c-0.895,0 -1.588,-0.187 -2.081,-0.561c-0.493,-0.374 -0.74,-0.963 -0.74,-1.766c0,-0.219 0.027,-0.466 0.081,-0.739l2.466,-14.21c0.201,-1.186 0.616,-1.994 1.245,-2.423c0.63,-0.428 1.502,-0.643 2.615,-0.643l7.064,0c0.292,0 0.438,0.128 0.438,0.383l0,0.082Z" style="fill:rgb(53,53,53);fill-rule:nonzero;"/>        </g>        <g transform="matrix(2,0,0,2,274.864,315.188)">            <path d="M0,-19.379c-0.193,0.128 -0.409,0.504 -0.466,0.832c-0.058,0.328 -3.261,18.469 -3.261,18.469c0,0 -0.072,0.533 0.394,0.533l0.283,0c0.368,0 0.498,-0.407 0.535,-0.551c-0.001,0.001 2.987,-16.906 3.131,-17.743c0.096,-0.552 0.254,-0.642 1.076,-0.682c0.59,-0.029 3.024,-0.125 4.057,-0.121c1.24,0 2.295,0.045 3.257,0.825c0.709,0.574 1.301,1.575 1.402,2.892c0.063,0.832 -0.112,1.987 -0.189,2.4l-0.826,4.687c0,0 -1.367,7.679 -1.383,7.771c-0.022,0.136 0.007,0.527 0.378,0.527l0.278,0c0.144,0 0.277,-0.054 0.375,-0.172c0.102,-0.124 0.158,-0.262 0.183,-0.405c0.012,-0.072 2.018,-11.382 2.215,-12.498c0.362,-2.038 0.175,-3.679 -0.685,-5.018c-0.659,-1.026 -1.469,-1.515 -2.26,-1.835c-0.727,-0.293 -1.589,-0.371 -2.533,-0.371c-1.833,0 -3.026,0.063 -3.809,0.097c-1.239,0.053 -1.702,0.065 -2.152,0.363" style="fill:rgb(53,53,53);fill-rule:nonzero;"/>        </g>        <g transform="matrix(2,0,0,2,343.314,315.188)">            <path d="M0,-19.379c-0.192,0.128 -0.409,0.504 -0.466,0.832c-0.058,0.328 -3.261,18.469 -3.261,18.469c0,0 -0.072,0.533 0.394,0.533l0.283,0c0.368,0 0.499,-0.407 0.535,-0.551c-0.001,0.001 2.986,-16.906 3.131,-17.743c0.096,-0.552 0.255,-0.642 1.076,-0.682c0.59,-0.029 3.024,-0.125 4.057,-0.121c1.24,0 2.295,0.045 3.257,0.825c0.709,0.574 1.301,1.575 1.401,2.892c0.064,0.832 -0.111,1.987 -0.188,2.4l-0.825,4.687c0,0 -1.368,7.679 -1.384,7.771c-0.022,0.136 0.008,0.527 0.378,0.527l0.278,0c0.145,0 0.277,-0.054 0.375,-0.172c0.103,-0.124 0.158,-0.262 0.183,-0.405c0.012,-0.072 2.018,-11.382 2.216,-12.498c0.361,-2.038 0.175,-3.679 -0.686,-5.018c-0.659,-1.026 -1.468,-1.515 -2.26,-1.835c-0.727,-0.293 -1.589,-0.371 -2.533,-0.371c-1.833,0 -3.026,0.063 -3.809,0.097c-1.238,0.053 -1.701,0.065 -2.152,0.363" style="fill:rgb(53,53,53);fill-rule:nonzero;"/>        </g>        <g transform="matrix(2,0,0,2,237.254,261.708)">            <path d="M0,-19.302l-3.422,19.302c-0.037,0.146 -0.101,0.27 -0.192,0.37c-0.092,0.1 -0.21,0.15 -0.356,0.15l-0.274,0c-0.128,0 -0.223,-0.041 -0.287,-0.123c-0.064,-0.082 -0.096,-0.178 -0.096,-0.287l0,-0.11l3.422,-19.302c0.037,-0.145 0.1,-0.269 0.192,-0.369c0.091,-0.101 0.209,-0.151 0.356,-0.151l0.273,0c0.128,0 0.224,0.041 0.288,0.123c0.064,0.082 0.096,0.178 0.096,0.288l0,0.109Z" style="fill:rgb(53,53,53);fill-rule:nonzero;"/>        </g>        <g transform="matrix(2,0,0,2,340.482,250.537)">            <path d="M0,-8.432c0,0.749 -0.082,1.588 -0.247,2.519l-0.602,3.395c-0.274,1.57 -0.68,2.902 -1.218,3.997c-0.539,1.095 -1.178,1.985 -1.917,2.67c-0.739,0.684 -1.565,1.181 -2.478,1.492c-0.912,0.31 -1.88,0.465 -2.902,0.465c-0.839,0 -1.615,-0.119 -2.327,-0.356c-0.712,-0.237 -1.319,-0.603 -1.821,-1.095c-0.502,-0.493 -0.894,-1.122 -1.177,-1.889c-0.283,-0.767 -0.424,-1.679 -0.424,-2.738c0,-0.767 0.082,-1.615 0.246,-2.546l0.602,-3.395c0.292,-1.625 0.708,-2.989 1.246,-4.093c0.538,-1.105 1.178,-1.989 1.917,-2.655c0.739,-0.667 1.565,-1.146 2.477,-1.438c0.913,-0.292 1.88,-0.439 2.903,-0.439c0.857,0 1.638,0.124 2.341,0.371c0.702,0.246 1.304,0.62 1.806,1.122c0.503,0.502 0.89,1.136 1.164,1.903c0.274,0.766 0.411,1.669 0.411,2.71m-1.205,-0.068c0,-0.933 -0.119,-1.716 -0.356,-2.347c-0.237,-0.631 -0.566,-1.135 -0.985,-1.511c-0.421,-0.375 -0.918,-0.645 -1.492,-0.81c-0.575,-0.164 -1.21,-0.246 -1.903,-0.246c-0.84,0 -1.634,0.123 -2.382,0.37c-0.749,0.247 -1.433,0.664 -2.054,1.249c-0.62,0.586 -1.159,1.355 -1.615,2.307c-0.456,0.952 -0.812,2.142 -1.068,3.57l-0.602,3.405c-0.165,0.988 -0.247,1.858 -0.247,2.609c0,0.915 0.114,1.684 0.343,2.307c0.228,0.622 0.547,1.126 0.958,1.509c0.41,0.385 0.908,0.66 1.492,0.825c0.584,0.164 1.232,0.247 1.944,0.247c0.858,0 1.665,-0.138 2.423,-0.413c0.757,-0.274 1.442,-0.714 2.053,-1.317c0.612,-0.604 1.145,-1.382 1.602,-2.335c0.456,-0.951 0.803,-2.096 1.04,-3.432l0.603,-3.405c0.164,-0.97 0.246,-1.83 0.246,-2.582" style="fill:rgb(53,53,53);fill-rule:nonzero;"/>        </g>        <g transform="matrix(2,0,0,2,377.554,261.983)">            <path d="M0,-19.74c0,0.092 -0.028,0.191 -0.082,0.301l-8.871,18.48c-0.42,0.895 -1.077,1.342 -1.971,1.342c-0.438,0 -0.799,-0.105 -1.082,-0.315c-0.283,-0.209 -0.451,-0.551 -0.506,-1.027l-2.355,-18.48l0,-0.137c0,-0.146 0.037,-0.273 0.11,-0.383c0.073,-0.11 0.182,-0.164 0.328,-0.164l0.329,0c0.219,0 0.346,0.128 0.383,0.383l2.328,18.426c0.036,0.219 0.1,0.369 0.191,0.451c0.091,0.082 0.21,0.124 0.356,0.124c0.146,0 0.287,-0.042 0.424,-0.124c0.137,-0.082 0.26,-0.232 0.37,-0.451l8.816,-18.426c0.127,-0.255 0.292,-0.383 0.493,-0.383l0.328,0c0.274,0 0.411,0.128 0.411,0.383" style="fill:rgb(53,53,53);fill-rule:nonzero;"/>        </g>        <g transform="matrix(2,0,0,2,401.098,221.955)">            <path d="M0,20.233c-0.082,0.109 -0.215,0.164 -0.397,0.164l-0.274,0c-0.201,0 -0.319,-0.118 -0.356,-0.356l-0.986,-7.419l-7.884,0l-3.559,7.419c-0.037,0.092 -0.11,0.174 -0.22,0.247c-0.109,0.072 -0.21,0.109 -0.301,0.109l-0.411,0c-0.237,0 -0.355,-0.109 -0.355,-0.328c0,-0.055 0.009,-0.11 0.027,-0.165c0.018,-0.054 0.045,-0.119 0.082,-0.191l8.871,-18.536c0.438,-0.894 1.113,-1.341 2.026,-1.341c0.438,0 0.784,0.114 1.04,0.342c0.256,0.228 0.411,0.552 0.465,0.972l2.355,18.563l0,0.109c0,0.165 -0.041,0.301 -0.123,0.411m-3.354,-18.727c-0.018,-0.146 -0.073,-0.274 -0.164,-0.383c-0.092,-0.11 -0.21,-0.165 -0.356,-0.165c-0.164,0 -0.311,0.051 -0.438,0.151c-0.128,0.1 -0.229,0.224 -0.301,0.37l-4.764,9.938l7.255,0l-1.232,-9.911Z" style="fill:rgb(53,53,53);fill-rule:nonzero;"/>        </g>        <g transform="matrix(2,0,0,2,434.666,261.764)">            <path d="M0,-19.357l-0.055,0.247c-0.054,0.255 -0.246,0.383 -0.575,0.383l-5.859,0l-3.313,18.699c-0.036,0.146 -0.1,0.27 -0.191,0.37c-0.092,0.1 -0.21,0.151 -0.356,0.151l-0.274,0c-0.128,0 -0.223,-0.042 -0.287,-0.123c-0.064,-0.083 -0.096,-0.179 -0.096,-0.288l0,-0.11l3.313,-18.699l-5.887,0c-0.31,0 -0.465,-0.128 -0.465,-0.383l0,-0.082l0.054,-0.247c0.055,-0.274 0.256,-0.411 0.603,-0.411l12.95,0c0.292,0 0.438,0.128 0.438,0.383l0,0.11Z" style="fill:rgb(53,53,53);fill-rule:nonzero;"/>        </g>        <g transform="matrix(2,0,0,2,462.428,261.819)">            <path d="M0,-19.412l-0.027,0.219c-0.019,0.146 -0.087,0.256 -0.206,0.329c-0.119,0.073 -0.251,0.109 -0.397,0.109l-7.063,0c-0.347,0 -0.657,0.023 -0.931,0.069c-0.274,0.045 -0.511,0.136 -0.712,0.274c-0.201,0.136 -0.369,0.333 -0.506,0.589c-0.137,0.255 -0.243,0.592 -0.315,1.012l-1.068,6.023l9.172,0c0.127,0 0.237,0.028 0.328,0.083c0.091,0.054 0.137,0.146 0.137,0.273l0,0.083l-0.055,0.274c-0.054,0.31 -0.256,0.465 -0.602,0.465l-9.172,0l-1.232,7.009c-0.037,0.128 -0.055,0.246 -0.055,0.356l0,0.301c0,0.547 0.16,0.899 0.479,1.054c0.32,0.155 0.763,0.233 1.328,0.233l7.064,0c0.292,0 0.438,0.118 0.438,0.355l0,0.082l-0.028,0.22c-0.018,0.146 -0.086,0.26 -0.205,0.342c-0.119,0.082 -0.251,0.123 -0.397,0.123l-7.063,0c-0.895,0 -1.588,-0.187 -2.081,-0.561c-0.493,-0.374 -0.739,-0.963 -0.739,-1.766c0,-0.219 0.026,-0.466 0.08,-0.739l2.466,-14.21c0.201,-1.186 0.616,-1.994 1.245,-2.423c0.63,-0.428 1.502,-0.643 2.615,-0.643l7.064,0c0.292,0 0.438,0.128 0.438,0.383l0,0.082Z" style="fill:rgb(53,53,53);fill-rule:nonzero;"/>        </g>        <g transform="matrix(2,0,0,2,247.16,261.829)">            <path d="M0,-19.379c-0.192,0.128 -0.408,0.504 -0.466,0.832c-0.058,0.328 -3.261,18.469 -3.261,18.469c0,0 -0.072,0.533 0.394,0.533l0.283,0c0.368,0 0.499,-0.407 0.535,-0.551c0,0.001 2.987,-16.906 3.131,-17.743c0.096,-0.552 0.255,-0.642 1.077,-0.682c0.589,-0.029 3.023,-0.125 4.056,-0.121c1.24,0 2.295,0.045 3.258,0.825c0.708,0.574 1.301,1.575 1.401,2.892c0.063,0.832 -0.112,1.987 -0.189,2.4l-0.825,4.687c0,0 -1.368,7.679 -1.383,7.771c-0.023,0.136 0.007,0.527 0.377,0.527l0.278,0c0.145,0 0.278,-0.054 0.375,-0.172c0.103,-0.124 0.158,-0.262 0.183,-0.405c0.013,-0.072 2.018,-11.382 2.216,-12.498c0.361,-2.038 0.175,-3.679 -0.686,-5.018c-0.659,-1.026 -1.469,-1.515 -2.26,-1.835c-0.727,-0.293 -1.589,-0.371 -2.533,-0.371c-1.833,0 -3.026,0.063 -3.808,0.097c-1.239,0.053 -1.702,0.065 -2.153,0.363" style="fill:rgb(53,53,53);fill-rule:nonzero;"/>        </g>        <g transform="matrix(2,0,0,2,281.774,261.829)">            <path d="M0,-19.379c-0.193,0.128 -0.408,0.504 -0.466,0.832c-0.058,0.328 -3.261,18.469 -3.261,18.469c0,0 -0.072,0.533 0.394,0.533l0.283,0c0.368,0 0.499,-0.407 0.535,-0.551c-0.001,0.001 2.986,-16.906 3.131,-17.743c0.096,-0.552 0.254,-0.642 1.076,-0.682c0.59,-0.029 3.024,-0.125 4.057,-0.121c1.24,0 2.295,0.045 3.257,0.825c0.709,0.574 1.301,1.575 1.402,2.892c0.063,0.832 -0.112,1.987 -0.189,2.4l-0.825,4.687c0,0 -1.368,7.679 -1.384,7.771c-0.022,0.136 0.007,0.527 0.378,0.527l0.278,0c0.144,0 0.277,-0.054 0.375,-0.172c0.103,-0.124 0.158,-0.262 0.183,-0.405c0.012,-0.072 2.018,-11.382 2.216,-12.498c0.361,-2.038 0.175,-3.679 -0.686,-5.018c-0.659,-1.026 -1.469,-1.515 -2.26,-1.835c-0.727,-0.293 -1.589,-0.371 -2.533,-0.371c-1.833,0 -3.026,0.063 -3.809,0.097c-1.239,0.053 -1.702,0.065 -2.152,0.363" style="fill:rgb(53,53,53);fill-rule:nonzero;"/>        </g>        <g transform="matrix(3.74973,0,0,3.74973,483.235,342.234)">            <path d="M0,-38.079l-0.084,0.458c-0.012,0.04 -0.019,0.075 -0.023,0.096l-0.004,0.022l-6.554,36.416l-0.201,1.087l0.567,0l0,-0.001l0.726,0c0.011,0 0.018,-0.001 0.028,-0.002l0.013,0.003l0.435,0l0.09,-0.489c0.006,-0.021 0.014,-0.043 0.017,-0.062c0,-0.001 0.004,-0.028 0.004,-0.028l6.664,-36.929c0,0 0.005,-0.03 0.005,-0.031c0.004,-0.023 0.014,-0.077 0.013,-0.143l0.073,-0.397l-1.769,0Z" style="fill:rgb(83,182,135);fill-rule:nonzero;"/>        </g>    </g></svg>