<?xml version="1.0" encoding="UTF-8" standalone="no"?><!DOCTYPE svg PUBLIC "-//W3C//DTD SVG 1.1//EN" "http://www.w3.org/Graphics/SVG/1.1/DTD/svg11.dtd"><svg width="100%" height="100%" viewBox="0 0 1024 512" version="1.1" xmlns="http://www.w3.org/2000/svg" xmlns:xlink="http://www.w3.org/1999/xlink" xml:space="preserve" style="fill-rule:evenodd;clip-rule:evenodd;stroke-linejoin:round;stroke-miterlimit:2;"><title>Mozzeno</title><desc>mozzeno.com is the first Belgian platform allowing investors to indirectly invest in the funding of consumer loans.After a positive assessment of their application, individual borrowers can be granted a loan from mozzeno, authorized lender.To indirectly invest in the funding of these loans, investors subscribe to financial instruments issued by mozzeno (Notes).</desc>    <g transform="matrix(1.88076,0,0,1.88076,-24.0794,152.934)">        <path d="M26.3,20.3c0.2,-0.8 1,-1.5 1.8,-1.5l1.6,0c0.6,0 1.5,0.5 1.7,1.1l20.9,51.1l0.4,0l20.8,-51.1c0.2,-0.6 1,-1.1 1.7,-1.1l1.6,0c0.8,0 1.6,0.7 1.8,1.5l12.3,67.2c0.3,1.4 -0.4,2.3 -1.8,2.3l-6.5,0c-0.9,0 -1.7,-0.7 -1.9,-1.4l-7.4,-44.7l-0.3,0l-18,46c-0.2,0.6 -0.8,1.1 -1.7,1.1l-1.8,0c-0.8,0 -1.5,-0.5 -1.7,-1.1l-18.1,-46l-0.4,0l-7.2,44.7c-0.1,0.7 -1,1.4 -1.8,1.4l-6.5,0c-1.4,0 -2.1,-0.9 -1.9,-2.3l12.4,-67.2Z" style="fill-rule:nonzero;"/>        <path d="M146.4,18.8c20,0 36,16.1 36,36.1c0,20 -16,35.9 -36,35.9c-20,0 -35.9,-15.9 -35.9,-35.9c0,-20 15.9,-36.1 35.9,-36.1Zm0,62c14.3,0 26,-11.6 26,-25.9c0,-14.2 -11.7,-26.1 -26,-26.1c-14.2,0 -25.9,11.9 -25.9,26.1c0,14.3 11.7,25.9 25.9,25.9Z" style="fill-rule:nonzero;"/>        <path d="M199,86.1l33,-56.3l0,-0.4l-28.2,0c-1,0 -1.9,-0.9 -1.9,-1.9l0,-5.8c0,-1 0.9,-1.9 1.9,-1.9l41.1,0c1,0 1.9,0.9 1.9,1.9l0,1.3l-33.1,57.2l0,0.1l29.2,0c1.1,0 1.9,0.9 1.9,1.9l0,5.7c0,1 -0.8,1.9 -1.9,1.9l-42,0c-1,0 -1.9,-0.9 -1.9,-1.9l0,-1.8Z" style="fill:rgb(0,197,194);fill-rule:nonzero;"/>        <path d="M262.5,86.1l33,-56.3l0,-0.4l-28.2,0c-1,0 -1.9,-0.9 -1.9,-1.9l0,-5.8c0,-1 0.9,-1.9 1.9,-1.9l41.1,0c1,0 1.9,0.9 1.9,1.9l0,1.3l-33.1,57.2l0,0.1l29.2,0c1.1,0 1.9,0.9 1.9,1.9l0,5.7c0,1 -0.8,1.9 -1.9,1.9l-42,0c-1,0 -1.9,-0.9 -1.9,-1.9l0,-1.8Z" style="fill:rgb(0,197,194);fill-rule:nonzero;"/>        <path d="M333,21.7c0,-1 0.8,-1.9 1.9,-1.9l40,0c1.1,0 1.9,0.9 1.9,1.9l0,5.6c0,1 -0.8,1.9 -1.9,1.9l-31.6,0l0,20.4l26.7,0c1,0 1.9,0.9 1.9,1.9l0,5.6c0,1.1 -0.9,1.9 -1.9,1.9l-26.7,0l0,21.5l31.6,0c1.1,0 1.9,0.9 1.9,1.9l0,5.5c0,1 -0.8,1.9 -1.9,1.9l-40,0c-1.1,0 -1.9,-0.9 -1.9,-1.9l0,-66.2Z" style="fill-rule:nonzero;"/>        <path d="M401.9,20.6c0,-1 0.9,-1.8 1.9,-1.8l2.5,0l43.4,50.2l0.1,0l0,-47.3c0,-1 0.8,-1.9 1.9,-1.9l6.4,0c1,0 1.9,0.9 1.9,1.9l0,67.3c0,1 -0.9,1.8 -1.9,1.8l-2.6,0l-43.4,-51.6l-0.1,0l0,48.7c0,1 -0.8,1.9 -1.9,1.9l-6.3,0c-1,0 -1.9,-0.9 -1.9,-1.9l0,-67.3Z" style="fill-rule:nonzero;"/>        <path d="M520.2,18.8c20,0 36,16.1 36,36.1c0,20 -16,35.9 -36,35.9c-20,0 -35.9,-15.9 -35.9,-35.9c0,-20 15.9,-36.1 35.9,-36.1Zm0,62c14.3,0 26,-11.6 26,-25.9c0,-14.2 -11.7,-26.1 -26,-26.1c-14.2,0 -25.9,11.9 -25.9,26.1c0,14.3 11.7,25.9 25.9,25.9Z" style="fill-rule:nonzero;"/>    </g></svg>