<?xml version="1.0" encoding="UTF-8" standalone="no"?><!DOCTYPE svg PUBLIC "-//W3C//DTD SVG 1.1//EN" "http://www.w3.org/Graphics/SVG/1.1/DTD/svg11.dtd"><svg width="100%" height="100%" viewBox="0 0 1024 512" version="1.1" xmlns="http://www.w3.org/2000/svg" xmlns:xlink="http://www.w3.org/1999/xlink" xml:space="preserve" style="fill-rule:evenodd;clip-rule:evenodd;stroke-linejoin:round;stroke-miterlimit:2;"><title>Bez Banky</title><desc></desc>    <g transform="matrix(1.1866,0,0,1.1866,159.58,-8.61145)">        <path d="M137.9,84.8c0,-42.4 -23.9,-76.7 -53.3,-76.7c-1.1,0 -2.2,0.1 -3.3,0.2l0,227.7c0,42.4 23.9,76.7 53.3,76.7c1.1,0 2.2,-0.1 3.3,-0.2l0,-153.2l0,-74.5Z" style="fill:rgb(0,199,177);fill-rule:nonzero;"/>        <path d="M197.1,160.4l-19.3,0l0,152.3l19.3,0c39.2,0 71,-34.1 71,-76.1c0,-42.1 -31.8,-76.2 -71,-76.2" style="fill:rgb(0,199,177);fill-rule:nonzero;"/>        <path d="M258.3,76c0,-37.5 -28.3,-67.9 -63.3,-67.9l-17.2,0l0,135.8l17.2,0c35,-0.1 63.3,-30.5 63.3,-67.9" style="fill:rgb(0,199,177);fill-rule:nonzero;"/>        <path d="M375.5,84.8c0,-42.4 -23.9,-76.7 -53.3,-76.7c-1.1,0 -2.2,0.1 -3.3,0.2l0,227.7c0,42.4 23.9,76.7 53.3,76.7c1.1,0 2.2,-0.1 3.3,-0.2l0,-153.2l0,-74.5Z" style="fill:rgb(0,199,177);fill-rule:nonzero;"/>        <path d="M434.8,160.4l-19.3,0l0,152.3l19.3,0c39.2,0 71,-34.1 71,-76.1c0,-42.1 -31.8,-76.2 -71,-76.2" style="fill:rgb(0,199,177);fill-rule:nonzero;"/>        <g>            <path d="M37.9,432.9c-3,2.5 -6.2,3.7 -9.8,3.7l-1.1,0l-0.9,0c-0.2,0 -0.4,-0.1 -0.8,-0.1l-4.6,-0.3l-12.7,0l1.3,-0.5c0.2,-0.1 0.4,-0.2 0.7,-0.3c0.1,0 0.3,-0.1 0.6,-0.2c0.1,0 0.1,-0.1 0.2,-0.1c0.5,-0.1 1,-0.3 1.5,-0.6c1.1,-0.4 1.9,-0.9 2.3,-1.4c0.3,-0.5 0.6,-0.9 0.8,-1.3c0.1,-0.5 0.2,-1 0.2,-1.6l0,-33.6l0,-0.8c0,-0.1 -0.1,-0.2 -0.1,-0.4c0,-0.2 0,-0.3 -0.1,-0.4c0,-0.1 -0.1,-0.2 -0.1,-0.4c0,-0.1 -0.1,-0.2 -0.1,-0.3c-0.1,-0.3 -0.3,-0.5 -0.4,-0.7c-0.3,-0.4 -1.1,-0.8 -2.5,-1.4l-3.1,-1.2l-1.2,-0.4l20,0c3,0 5.6,0.9 7.7,2.6c2.3,1.9 3.5,4.4 3.5,7.4c0,2.3 -0.5,4.3 -1.6,6c-1.1,1.7 -2.7,3.2 -4.9,4.3l-1.9,1l3.5,1.3c2.5,0.8 4.4,2.1 5.7,3.7c1.5,1.8 2.3,3.9 2.3,6.4c0.2,3.8 -1.4,6.9 -4.4,9.6Zm-6.1,-37.7c-1.3,-1 -3.1,-1.6 -5.4,-1.6l-1.3,0c-0.3,0 -0.6,0 -0.9,0.1l-0.9,0.1c-0.6,0 -1,0 -1.1,0.1l-0.1,0.1c-0.3,0.1 -0.5,0.2 -0.7,0.3c-0.3,0.3 -0.5,0.5 -0.6,0.8c-0.1,0.6 -0.1,1 -0.1,1.4l0,15.1l2.8,0c2.9,0 5.4,-0.8 7.6,-2.5c2.6,-1.8 3.8,-4 3.8,-6.7l0,-0.6l-0.1,-0.3c-0.3,-2.9 -1.3,-4.9 -3,-6.3Zm1.1,21c-2.2,-1.3 -5,-1.9 -8.3,-1.9l-4,0l0,16.1c0,0.5 0.1,1.1 0.3,1.6c0.2,0.4 0.5,0.8 0.9,1.1c0.9,0.5 2.3,0.8 4.2,0.8c1,0 2,-0.1 3,-0.3c3,-0.7 5.1,-1.9 6.4,-3.5c1.3,-1.6 2,-3.6 2,-5.9l0,-0.9l-0.1,-0.6c-0.3,-2.8 -1.7,-5 -4.4,-6.5Z" style="fill:rgb(128,130,133);fill-rule:nonzero;"/>            <path d="M110,436.3l-31.7,0l1.3,-0.4l3.2,-0.9c1.2,-0.5 2,-0.9 2.3,-1.2c0.3,-0.3 0.5,-0.7 0.6,-1.2l0.1,-1.5l0,-0.9l0,-33.4l0,-0.6l0,-0.6c0,-0.6 0,-0.9 -0.1,-1.1c-0.1,-0.3 -0.1,-0.5 -0.2,-0.6c-0.2,-0.2 -0.3,-0.4 -0.4,-0.4c-0.3,-0.4 -1.4,-0.9 -3.2,-1.5l-2.4,-0.7l-1.3,-0.4l29.9,0l0,10.1l-0.9,-2.4l-0.8,-2.3c-0.3,-0.6 -0.6,-1.1 -1.1,-1.5c-0.6,-0.3 -1.2,-0.6 -1.7,-0.7c-0.7,-0.1 -1.4,-0.2 -2.1,-0.2l-7.4,0l-1.1,0c-0.7,0 -1.1,0 -1.2,0.1c-0.3,0 -0.5,0.2 -0.6,0.4c-0.2,0.2 -0.3,0.4 -0.4,0.8l-0.1,1.1l0,15.6l10.1,0l1.4,-0.1c0.4,-0.1 0.7,-0.3 1.1,-0.5c0,0 0.1,-0.1 0.2,-0.2c0.1,-0.1 0.2,-0.2 0.3,-0.3l0.3,-0.3c0.2,-0.2 0.3,-0.5 0.4,-0.9l1.3,-2.6l0,14.5l-0.5,-1.4l-0.9,-2.7c-0.4,-1 -0.8,-1.7 -1.3,-2c-0.5,-0.3 -1,-0.4 -1.4,-0.4c-0.8,-0.1 -1.4,-0.1 -2,-0.1l-8.8,0l0,15.2c0,0.8 0.1,1.4 0.3,2c0.1,0.7 0.4,1.1 0.8,1.3l0.8,0.3l0.8,0.1l11.8,0l0.6,0.1l0.6,-0.1c0.2,0 0.4,-0.1 0.6,-0.2c0.4,-0.2 0.8,-0.8 1.2,-1.8c0.1,-0.5 0.3,-1 0.5,-1.5c0.2,-0.7 0.4,-1.2 0.6,-1.5l0.8,-2l-0.3,9.5Z" style="fill:rgb(128,130,133);fill-rule:nonzero;"/>            <path d="M177.8,400l-0.8,1l-1.8,2.5c-0.5,0.8 -1.4,2.1 -2.6,3.8c-0.4,0.6 -0.9,1.3 -1.4,2c-0.8,1.2 -1.3,1.9 -1.5,2.1l-7,10.3l-7.9,11.6l19.8,0c0.3,0 0.8,0 1.5,-0.1c0.1,0 0.3,-0.1 0.4,-0.1c0.3,0 0.4,0 0.4,-0.1l0.1,-0.1c0.3,-0.2 0.7,-0.3 0.9,-0.4c0.6,-0.2 1.1,-0.5 1.4,-0.9c0.5,-0.4 1,-0.9 1.4,-1.5l1.6,-2.6l1.6,-2.2l-3.9,11.8l-1.6,-0.8l-31.8,0l29.4,-42.5l-20.8,0l-1.1,0c-0.1,0 -0.3,0 -0.5,0.1c-0.2,0 -0.5,0.1 -0.8,0.1c-0.2,0 -0.4,0.1 -0.5,0.1c-1,0.2 -1.6,0.3 -1.9,0.5c-0.5,0.3 -0.9,1.4 -1.4,3.2l-0.6,2.2l-0.9,2.9l-0.1,-13l2.3,0.6l34.9,0l-6.8,9.5Z" style="fill:rgb(128,130,133);fill-rule:nonzero;"/>            <path d="M250.2,432.9c-3,2.5 -6.2,3.7 -9.8,3.7l-1.1,0l-0.9,0c-0.2,0 -0.4,-0.1 -0.8,-0.1l-4.6,-0.3l-12.7,0l1.3,-0.5c0.2,-0.1 0.4,-0.2 0.7,-0.3c0.1,0 0.3,-0.1 0.6,-0.2c0.1,0 0.1,-0.1 0.2,-0.1c0.5,-0.1 1,-0.3 1.5,-0.6c1.1,-0.4 1.9,-0.9 2.3,-1.4c0.3,-0.5 0.6,-0.9 0.8,-1.3c0.1,-0.5 0.2,-1 0.2,-1.6l0,-33.6l0,-0.8c0,-0.1 -0.1,-0.2 -0.1,-0.4c0,-0.2 0,-0.3 -0.1,-0.4c0,-0.1 -0.1,-0.2 -0.1,-0.4c0,-0.1 -0.1,-0.2 -0.1,-0.3c-0.1,-0.3 -0.3,-0.5 -0.4,-0.7c-0.3,-0.4 -1.1,-0.8 -2.5,-1.4l-3.1,-1.2l-1.2,-0.6l19.9,0c3,0 5.6,0.9 7.7,2.6c2.3,1.9 3.5,4.4 3.5,7.4c0,2.3 -0.5,4.3 -1.6,6c-1.1,1.7 -2.7,3.2 -4.9,4.3l-1.9,1l3.5,1.3c2.5,0.8 4.4,2.1 5.7,3.7c1.5,1.8 2.3,3.9 2.3,6.4c0.3,4 -1.3,7.1 -4.3,9.8Zm-6.1,-37.7c-1.3,-1 -3.1,-1.6 -5.4,-1.6l-1.3,0c-0.3,0 -0.6,0 -0.9,0.1l-0.9,0.1c-0.6,0 -1,0 -1.1,0.1l-0.1,0.1c-0.3,0.1 -0.5,0.2 -0.7,0.3c-0.3,0.3 -0.5,0.5 -0.6,0.8c-0.1,0.6 -0.1,1 -0.1,1.4l0,15.1l2.8,0c2.9,0 5.4,-0.8 7.6,-2.5c2.6,-1.8 3.8,-4 3.8,-6.7l0,-0.6l-0.1,-0.3c-0.3,-2.9 -1.3,-4.9 -3,-6.3Zm1.1,21c-2.2,-1.3 -5,-1.9 -8.3,-1.9l-4,0l0,16.1c0,0.5 0.1,1.1 0.3,1.6c0.2,0.4 0.5,0.8 0.9,1.1c0.9,0.5 2.3,0.8 4.2,0.8c1,0 2,-0.1 3,-0.3c3,-0.7 5.1,-1.9 6.4,-3.5c1.3,-1.6 2,-3.6 2,-5.9l0,-0.9l-0.1,-0.6c-0.3,-2.8 -1.7,-5 -4.4,-6.5Z" style="fill:rgb(128,130,133);fill-rule:nonzero;"/>            <path d="M320.4,436.3l1.6,-0.6c0.3,-0.1 0.7,-0.3 1.1,-0.4c0.1,0 0.2,-0.1 0.3,-0.1c0.1,0 0.2,-0.1 0.3,-0.1c0.1,0 0.2,-0.1 0.3,-0.1c0.1,0 0.2,-0.1 0.3,-0.1c1,-0.5 1.5,-1 1.7,-1.5c0,0 0.1,-0.1 0.1,-0.3c0,-0.5 -0.1,-0.9 -0.3,-1.4l-0.7,-2l-4,-11.6l-14.7,0l-4.2,11.6l-0.7,2.5c-0.1,0.5 -0.2,1 -0.2,1.3l0,0.3c0.1,0.3 0.6,0.7 1.4,1.1l2.5,0.9l1.6,0.7l-16.3,0l1.3,-0.5l3.6,-1.4c0.1,-0.1 0.4,-0.2 0.7,-0.4c0.4,-0.4 0.6,-0.7 0.8,-0.8l0.8,-1.8l0.5,-1.2c1.7,-4.1 3.6,-8.9 5.7,-14.2l5,-13.3l0.6,-1.7c1.1,-3.2 1.8,-5.3 2.1,-6.2l0.1,-0.1c0.1,-0.3 0.1,-0.6 0.2,-0.7l0.1,-0.2c0,-0.2 0.1,-0.5 0.2,-0.9l0.1,-0.2l0.5,-2.1l4,0l0.9,3.3l0.9,2.8c0.1,0.4 0.3,0.9 0.4,1.3l0.3,0.8c0,0.1 0.2,0.5 0.4,1.1c0.4,1.2 0.8,2.2 1.1,3c0.3,0.7 0.6,1.6 0.9,2.6c0.1,0.2 0.1,0.3 0.1,0.4l5.4,14.9c0,0.1 0.1,0.2 0.2,0.4c0,0.1 0.1,0.2 0.1,0.3c1.7,4.5 2.8,7.4 3.3,8.4c0.1,0.6 0.3,1.1 0.6,1.6l0.7,1.5c0.3,0.5 1.1,1.1 2.6,1.7l2.2,0.9l1.3,0.6l-17.8,0l0,-0.1Zm-6.7,-37.7l-6,16.2l12.1,0l-6.1,-16.2Z" style="fill:rgb(128,130,133);fill-rule:nonzero;"/>            <path d="M426.9,391.2c-1.2,0.5 -2,0.8 -2.2,1c-0.7,0.4 -1.2,0.8 -1.4,1.1c-0.2,0.2 -0.4,0.6 -0.5,1.1c-0.1,0.5 -0.2,1.2 -0.2,2.1l-0.1,3.5l0,1.4l0.1,35l-2.9,0l-7.2,-8.4l-3,-3.3c-3.5,-3.8 -8.3,-9 -14.5,-15.5c-5.6,-5.8 -9.1,-9.4 -10.4,-10.6l0,31.5l0.2,1.7c0.1,0.6 0.2,1.1 0.4,1.4c0.2,0.4 0.5,0.8 1,1.1l0.2,0.1c0.4,0.2 1.1,0.5 2.3,0.9l0.6,0.3l1.7,0.6l-15.6,0l1,-0.5l2.5,-1.1c1,-0.5 1.6,-0.9 1.8,-1.4c0.1,-0.3 0.3,-0.7 0.4,-1.3l0,-0.2c0.1,-0.9 0.1,-1.5 0.1,-1.8l0.1,-4.5l0,-34.8l3.5,0l1.1,1.4c0.2,0.3 0.4,0.6 0.8,1c0.2,0.3 0.4,0.5 0.6,0.8c0.2,0.2 0.6,0.6 1.1,1.3l0.4,0.4c0.3,0.3 0.6,0.6 0.9,1c0.9,1 1.6,1.6 1.9,2c2,2.1 3.3,3.5 3.9,4.2c2.3,2.4 4,4.3 5.1,5.5l11.8,12.6c4,4.2 6.2,6.6 6.7,7.1l0,-26.3l0,-1.9l0,-2l-0.1,-2.6c0,-0.6 -0.1,-1.1 -0.3,-1.4c-0.2,-0.5 -0.8,-0.9 -1.8,-1.3l-0.4,-0.2c-0.2,-0.1 -0.5,-0.2 -0.8,-0.3l-0.4,-0.1c-0.1,0 -0.3,-0.1 -0.6,-0.2c-0.1,0 -0.2,-0.1 -0.3,-0.1l-0.1,-0.1c-0.1,0 -0.1,-0.1 -0.2,-0.1l-1,-0.5l15.6,0l-1.8,0.4Z" style="fill:rgb(128,130,133);fill-rule:nonzero;"/>            <path d="M507.1,437.9l-0.6,0c-0.9,0 -1.5,0 -1.8,-0.1c-0.4,0 -1,-0.2 -1.9,-0.4l-0.3,-0.1c-1.6,-0.3 -2.8,-0.6 -3.5,-1.1c-0.2,-0.1 -0.4,-0.3 -0.6,-0.4c-1.4,-0.9 -2.4,-1.5 -2.9,-2c-0.8,-0.6 -1.5,-1.1 -2,-1.6l-0.6,-0.6c0,0 -0.2,-0.2 -0.6,-0.6c-0.3,-0.3 -0.5,-0.5 -0.6,-0.6l-15.2,-16.9l0,17.6c0,0.1 0,0.3 0.1,0.6c0,0.1 0.1,0.3 0.1,0.4c0.1,0.5 0.3,0.9 0.6,1.4c0.2,0.2 0.5,0.4 0.9,0.6c0.5,0.2 1,0.4 1.6,0.6l3.1,0.9l1.3,0.6l-20.3,0l1.3,-0.4l3.2,-0.9c1.3,-0.5 2.1,-0.9 2.4,-1.2c0.2,-0.4 0.4,-0.7 0.4,-1c0.1,-0.5 0.1,-0.7 0.2,-0.8l0,-0.6l0,-0.7l0,-0.6l0,-33.2l0,-0.5l0,-0.6c0,-0.3 0,-0.7 -0.1,-1.2l0,-0.2c0,-0.3 -0.2,-0.7 -0.4,-1.1c-0.2,-0.2 -0.8,-0.5 -1.6,-0.9c-0.3,-0.1 -0.6,-0.2 -0.9,-0.4c-0.1,0 -0.2,-0.1 -0.3,-0.1c-0.1,0 -0.2,-0.1 -0.3,-0.1l-0.9,-0.3l-0.6,-0.2c-0.5,-0.1 -0.8,-0.2 -0.9,-0.3l-1.3,-0.4l20.3,0l-1.3,0.6l-2.3,0.7c-1.7,0.5 -2.8,1 -3.3,1.4c-0.3,0.3 -0.5,0.8 -0.7,1.4l-0.1,2l0,15.1l10.3,-10.1l1.3,-1.3c0.2,-0.2 0.4,-0.4 0.7,-0.6c0.3,-0.3 0.4,-0.4 0.6,-0.6l2.1,-2.1c1.3,-1.5 2,-2.5 2,-3.1c0,-0.1 0,-0.2 -0.1,-0.3c-0.2,-0.4 -0.8,-0.8 -1.8,-1.3l-1.8,-0.7l-1.8,-0.8l17.3,0l-1.8,0.9l-1.8,0.7c-0.6,0.2 -1.3,0.5 -2.1,1c-0.9,0.5 -2.3,1.7 -4.1,3.5l-5,4.9l-9.9,9.5l12,13.4c1.8,2 3.6,3.9 5.4,5.7c0.3,0.3 0.8,0.7 1.5,1.3c0.3,0.2 0.5,0.4 0.6,0.6l2.1,1.7c0.8,0.6 1.9,1.2 3.3,1.6l2.3,0.9l2.1,0.8l-3,0.6Z" style="fill:rgb(128,130,133);fill-rule:nonzero;"/>            <path d="M584.6,391.3c-0.5,0.2 -1,0.3 -1.6,0.5l-0.1,0c-0.3,0.1 -0.6,0.3 -1,0.4c-1.1,0.4 -2,1 -2.8,1.7l-0.1,0.1l-0.2,0.3c-0.2,0.2 -0.3,0.3 -0.3,0.4l-0.2,0.3l-0.1,0.1c-0.1,0.2 -0.2,0.4 -0.4,0.6c-0.1,0.1 -0.1,0.2 -0.1,0.3l-0.8,1.6l-8.9,15.6l-0.1,17.4l0,1c0,0.1 0,0.3 0.1,0.6l0.1,0.2l0,0.1c0,0.4 0.3,0.9 0.8,1.4c0.3,0.4 1.1,0.8 2.5,1.2c2,0.5 3,0.9 3.1,0.9l1.3,0.6l-20.3,0l1.4,-0.4l3.2,-0.9c1.2,-0.5 2,-0.9 2.3,-1.2c0.3,-0.3 0.4,-0.7 0.6,-1.2c0.1,-0.5 0.1,-0.7 0.2,-0.8l0,-0.5l-0.1,-0.7l0,-0.5l0,-15.4l-3.8,-7.6c-0.6,-1.3 -1.7,-3.1 -3.1,-5.3c-0.6,-0.9 -1.1,-1.7 -1.5,-2.4c-0.2,-0.4 -0.7,-1 -1.4,-2c-0.1,-0.1 -0.2,-0.3 -0.3,-0.4c-0.8,-1.1 -1.8,-2.2 -3.2,-3.3c-1.3,-0.9 -2.5,-1.6 -3.5,-2l-2.4,-1.1l2.1,-0.5l0.9,-0.1c1.3,0 2.7,0.3 4.2,0.8c1,0.3 1.8,0.7 2.5,1.1c0.9,0.5 1.5,1 1.9,1.4c1,0.9 2.4,2.6 4.1,5c0.2,0.3 0.6,0.9 1.2,2l0.3,0.4c0.3,0.6 0.6,1 0.8,1.4c0.2,0.3 0.5,0.8 0.8,1.4l3.5,6.6l6.9,-12.4c0.5,-1 0.9,-1.8 1.1,-2.4c0.3,-0.6 0.4,-1.1 0.4,-1.4c0,0 0,-0.1 -0.1,-0.1c-0.2,-0.6 -1.7,-1.5 -4.5,-2.6l-1,-0.4l17,0l-1.4,0.2Z" style="fill:rgb(128,130,133);fill-rule:nonzero;"/>        </g>    </g></svg>