<?xml version="1.0" encoding="UTF-8" standalone="no"?><!DOCTYPE svg PUBLIC "-//W3C//DTD SVG 1.1//EN" "http://www.w3.org/Graphics/SVG/1.1/DTD/svg11.dtd"><svg width="100%" height="100%" viewBox="0 0 1024 512" version="1.1" xmlns="http://www.w3.org/2000/svg" xmlns:xlink="http://www.w3.org/1999/xlink" xml:space="preserve" style="fill-rule:evenodd;clip-rule:evenodd;stroke-linejoin:round;stroke-miterlimit:2;"><title>Wisefund</title><desc>A better way to grow your savings. A better place to get funded.Wisefund builds secure bridges between lenders and borrowers. Mediating and monitoring investments presents valuable opportunities, secure transactions, and profitable returns. Our team’s vision will create a mutually favourable environment that benefits all parties.</desc>    <g transform="matrix(7.08043,0,0,7.08043,1.27929,171.241)">        <g transform="matrix(-1,0,0,1,31.104,0)">            <g transform="matrix(-1,0,0,1,31.232,0)">                <path d="M0.23,6.239l0,15.82c0,1.04 0.822,1.883 1.837,1.883l27.096,0c1.885,0 2.547,-2.563 0.909,-3.519l-27.096,-15.82c-1.225,-0.715 -2.746,0.192 -2.746,1.636Zm21.914,13.972l-18.184,0l0,-10.727l18.184,10.727Z" style="fill:url(#_Linear1);fill-rule:nonzero;"/>            </g>            <path d="M0,1.869l0,20.178c0,1.031 0.835,1.866 1.865,1.866l27.129,0c1.713,0 2.52,-2.116 1.242,-3.257l-27.129,-20.179c-1.202,-1.073 -3.107,-0.219 -3.107,1.392Zm24.104,18.313l-20.374,0l0,-14.147l20.374,14.147Z" style="fill:url(#_Linear2);fill-rule:nonzero;"/>        </g>        <g transform="matrix(1,0,0,1,40.66,3.825)">            <path d="M45.687,18.605c-3.917,0 -6.875,-2.639 -6.875,-6.77c0,-3.732 2.745,-6.744 6.662,-6.744c3.837,0 6.449,2.879 6.449,7.09l0,0.746l-9.567,0c0.214,1.626 1.519,2.986 3.704,2.986c1.093,0 2.612,-0.48 3.438,-1.28l1.492,2.186c-1.279,1.173 -3.304,1.786 -5.303,1.786Zm2.958,-7.97c-0.08,-1.226 -0.933,-2.852 -3.171,-2.852c-2.105,0 -3.011,1.573 -3.171,2.852l6.342,0Z" style="fill:rgb(31,23,82);fill-rule:nonzero;"/>            <path d="M103.501,18.285l-3.411,0l0,-1.653c-1.013,1.28 -2.425,1.973 -3.97,1.973c-3.251,0 -5.703,-2.452 -5.703,-6.744c0,-4.211 2.425,-6.77 5.703,-6.77c1.519,0 2.957,0.666 3.97,1.972l0,-6.557l3.411,0l0,17.779Zm-6.342,-2.692c1.146,0 2.371,-0.613 2.931,-1.466l0,-4.558c-0.56,-0.853 -1.785,-1.466 -2.931,-1.466c-1.919,0 -3.251,1.519 -3.251,3.758c0,2.213 1.332,3.732 3.251,3.732Zm-7.994,2.692l-3.384,0l0,-7.783c0,-1.786 -0.933,-2.399 -2.372,-2.399c-1.332,0 -2.372,0.746 -2.931,1.519l0,8.663l-3.384,0l0,-12.874l3.384,0l0,1.679c0.826,-0.986 2.398,-1.999 4.503,-1.999c2.825,0 4.184,1.599 4.184,4.105l0,9.089Zm-14.482,0l-3.385,0l0,-1.626c-0.879,0.986 -2.425,1.946 -4.53,1.946c-2.824,0 -4.157,-1.546 -4.157,-4.052l0,-9.142l3.385,0l0,7.81c0,1.786 0.932,2.372 2.371,2.372c1.306,0 2.345,-0.72 2.931,-1.466l0,-8.716l3.385,0l0,12.874Zm-16.377,0l-3.411,0l0,-9.915l-2.132,0l0,-2.959l2.132,0l0,-0.693c0,-2.746 1.759,-4.478 4.344,-4.478c1.225,0 2.531,0.32 3.357,1.199l-1.279,1.999c-0.346,-0.346 -0.799,-0.533 -1.412,-0.533c-0.933,0 -1.599,0.613 -1.599,1.813l0,0.693l2.611,0l0,2.959l-2.611,0l0,9.915Zm-25.916,0.32c-2.238,0 -4.397,-0.746 -5.756,-1.999l1.466,-2.372c0.933,0.879 2.851,1.759 4.45,1.759c1.466,0 2.159,-0.587 2.159,-1.386c0,-2.133 -7.648,-0.4 -7.648,-5.464c0,-2.16 1.892,-4.052 5.276,-4.052c2.185,0 3.917,0.746 5.196,1.759l-1.359,2.319c-0.773,-0.826 -2.238,-1.492 -3.81,-1.492c-1.226,0 -2.026,0.559 -2.026,1.279c0,1.919 7.622,0.32 7.622,5.517c0,2.346 -1.999,4.132 -5.57,4.132Zm-9.12,-14.58c-1.093,0 -2.025,-0.906 -2.025,-2.026c0,-1.119 0.932,-1.999 2.025,-1.999c1.119,0 2.025,0.88 2.025,1.999c0,1.12 -0.906,2.026 -2.025,2.026Zm1.705,14.26l-3.384,0l0,-12.874l3.384,0l0,12.874Z" style="fill:rgb(31,23,82);"/>            <path d="M16.575,18.285l-3.598,0l-2.718,-8.769l-2.718,8.769l-3.624,0l-3.917,-12.874l3.517,0l2.399,8.663l2.824,-8.663l3.011,0l2.825,8.663l2.398,-8.663l3.518,0l-3.917,12.874Z" style="fill:rgb(31,23,82);"/>        </g>    </g>    <defs>        <linearGradient id="_Linear1" x1="0" y1="0" x2="1" y2="0" gradientUnits="userSpaceOnUse" gradientTransform="matrix(28.9945,7.34849,-7.34849,28.9945,2.00815,10.1793)"><stop offset="0" style="stop-color:rgb(131,141,254);stop-opacity:1"/><stop offset="1" style="stop-color:rgb(215,197,253);stop-opacity:1"/></linearGradient>        <linearGradient id="_Linear2" x1="0" y1="0" x2="1" y2="0" gradientUnits="userSpaceOnUse" gradientTransform="matrix(28.7093,14.3559,-14.3559,28.7093,2.15328,4.77853)"><stop offset="0" style="stop-color:rgb(0,255,212);stop-opacity:0.6"/><stop offset="1" style="stop-color:rgb(131,219,255);stop-opacity:0.6"/></linearGradient>    </defs></svg>