<?xml version="1.0" encoding="UTF-8" standalone="no"?><!DOCTYPE svg PUBLIC "-//W3C//DTD SVG 1.1//EN" "http://www.w3.org/Graphics/SVG/1.1/DTD/svg11.dtd"><svg width="100%" height="100%" viewBox="0 0 1024 512" version="1.1" xmlns="http://www.w3.org/2000/svg" xmlns:xlink="http://www.w3.org/1999/xlink" xml:space="preserve" style="fill-rule:evenodd;clip-rule:evenodd;stroke-linejoin:round;stroke-miterlimit:2;"><title>Kameo</title><desc>Kameo operates a digital marketplace for crowdfunded loans to small businesses and property developers. Our ambition is to provide Scandinavian investors with a new and attractive asset class, as well as Scandinavian small businesses and property developers with a new and attractive funding source.</desc>    <g transform="matrix(8.20173,0,0,8.20038,2,129.245)">        <path id="Fill-1" d="M15.553,8.271c-2.699,1.938 -3.564,5.605 -1.923,8.557l0.035,0.066l0.009,0.073l0.102,0.904l0.097,0.863l-0.699,-0.516l-0.737,-0.548l-0.066,-0.046l-0.04,-0.073c-0.434,-0.779 -0.723,-1.6 -0.879,-2.432c-1.373,1.082 -2.301,2.697 -2.484,4.53c3.044,1.368 6.682,0.267 8.419,-2.65l0.036,-0.066l0.062,-0.043l0.737,-0.55l0.7,-0.523l-0.098,0.869l-0.106,0.916l-0.011,0.08l-0.04,0.069c-0.464,0.781 -1.042,1.454 -1.698,2.015c1.625,0.643 3.49,0.634 5.174,-0.124c-0.33,-3.292 -3.067,-5.866 -6.441,-5.938l-0.077,-0.004l-0.069,-0.029l-0.894,-0.396l-0.799,-0.356l0.806,-0.335l0.806,-0.338l0.073,-0.033l0.077,0c0.932,0.008 1.826,0.175 2.659,0.472c-0.014,-0.006 -0.028,-0.011 -0.042,-0.016c-0.255,-1.723 -1.19,-3.324 -2.689,-4.398" style="fill:rgb(46,192,208);"/>        <path id="Fill-3" d="M24.807,23.287c-0.863,-0.497 -1.159,-1.597 -0.66,-2.458c0.498,-0.861 1.602,-1.156 2.465,-0.659c0.863,0.497 1.159,1.598 0.661,2.458c-0.498,0.861 -1.602,1.156 -2.466,0.659Zm-1.132,-2.761l-0.19,0.109c-2.535,1.459 -5.534,1.401 -7.934,0.104c-2.399,1.292 -5.394,1.353 -7.925,-0.104l-0.19,-0.109l0,-0.218c0,-2.918 1.552,-5.476 3.879,-6.899c0.074,-2.717 1.518,-5.335 4.05,-6.792l0.19,-0.109l0.191,0.109c2.532,1.457 3.978,4.073 4.054,6.791c-0.03,-0.019 -0.062,-0.035 -0.092,-0.053c2.374,1.413 3.967,3.999 3.967,6.953l0,0.218Zm-17.474,2.761c-0.863,0.497 -1.967,0.202 -2.465,-0.659c-0.499,-0.86 -0.203,-1.961 0.66,-2.458c0.864,-0.497 1.968,-0.202 2.466,0.659c0.498,0.861 0.203,1.961 -0.661,2.458Zm9.303,-20.98c0.997,0 1.805,0.805 1.805,1.799c0,0.994 -0.808,1.799 -1.805,1.799c-0.996,0 -1.805,-0.805 -1.805,-1.799c0,-0.994 0.809,-1.799 1.805,-1.799Zm0,-2.307c-8.562,0 -15.504,6.921 -15.504,15.457c0,8.537 6.942,15.457 15.504,15.457c8.563,0 15.505,-6.92 15.505,-15.457c0,-8.536 -6.942,-15.457 -15.505,-15.457Z" style="fill:rgb(46,192,208);"/>        <path id="Fill-5" d="M50.425,24.43l-5.99,-7.347l5.156,-7.035l-4.14,0l-4.609,6.776l0,-11.579l-3.464,0l0,19.185l3.464,0l0,-6.724l4.921,6.724l4.662,0Z" style="fill:rgb(46,192,208);"/>        <path id="Fill-7" d="M62.642,17.343c0,2.388 -1.563,4.258 -4.193,4.258c-2.526,0 -4.271,-1.714 -4.271,-4.232c0,-2.622 1.745,-4.491 4.219,-4.491c2.474,0 4.245,1.843 4.245,4.465m3.281,7.087l0,-14.382l-3.177,0l0,1.921c-1.198,-1.584 -2.63,-2.259 -4.714,-2.259c-4.27,0 -7.343,3.193 -7.343,7.581c0,4.335 3.047,7.477 7.265,7.477c2.031,0 3.412,-0.649 4.792,-2.207l0,1.869l3.177,0" style="fill:rgb(46,192,208);"/>        <path id="Fill-9" d="M90.145,24.43l0,-8.307c0,-4.31 -2.031,-6.413 -5.833,-6.413c-2.032,0 -3.464,0.675 -4.636,2.233c-0.989,-1.558 -2.265,-2.233 -4.244,-2.233c-1.693,0 -2.734,0.467 -3.75,1.688l0,-1.35l-3.177,0l0,14.382l3.463,0l0,-7.087c0,-3.401 0.808,-4.465 2.813,-4.465c1.822,0 2.812,0.83 2.812,3.66l0,7.892l3.463,0l0,-7.087c0,-3.427 0.99,-4.465 2.917,-4.465c1.615,0 2.708,0.778 2.708,3.66l0,7.892l3.464,0" style="fill:rgb(46,192,208);"/>        <path id="Fill-11" d="M103.984,15.733l-7.994,0c0.546,-1.843 1.953,-2.855 4.01,-2.855c2.135,0 3.541,1.012 3.984,2.855m3.411,1.714c0,-4.466 -3.151,-7.737 -7.447,-7.737c-4.245,0 -7.604,3.349 -7.604,7.581c0,4.206 3.411,7.477 7.812,7.477c2.917,0 5.911,-1.636 6.875,-4.595l-3.776,0c-0.886,1.038 -1.745,1.428 -3.177,1.428c-2.057,0 -3.568,-1.091 -3.984,-2.83l11.171,0c0.104,-0.494 0.13,-0.805 0.13,-1.324" style="fill:rgb(46,192,208);"/>        <g id="Fill-13" transform="matrix(1,0,0,1,108.996,9.64314)">            <path d="M11.878,7.596c0,2.414 -1.875,4.361 -4.166,4.361c-2.344,0 -4.193,-1.947 -4.193,-4.413c0,-2.363 1.901,-4.31 4.167,-4.31c2.317,0 4.192,1.973 4.192,4.362m3.49,0.104c0,-4.284 -3.359,-7.633 -7.708,-7.633c-4.193,0 -7.63,3.401 -7.63,7.529c0,4.154 3.437,7.529 7.656,7.529c4.192,0 7.682,-3.375 7.682,-7.425" style="fill:rgb(46,192,208);"/>        </g>    </g></svg>