<?xml version="1.0" encoding="UTF-8" standalone="no"?><!DOCTYPE svg PUBLIC "-//W3C//DTD SVG 1.1//EN" "http://www.w3.org/Graphics/SVG/1.1/DTD/svg11.dtd"><svg width="100%" height="100%" viewBox="0 0 1024 512" version="1.1" xmlns="http://www.w3.org/2000/svg" xmlns:xlink="http://www.w3.org/1999/xlink" xml:space="preserve" style="fill-rule:evenodd;clip-rule:evenodd;stroke-linejoin:round;stroke-miterlimit:2;"><title>Envestio</title><desc>Envestio is an Estonian Crowdfunding platform focused on companies, the projects ratings are between BB and BBB with high returns.</desc>    <g transform="matrix(1,0,0,1,1,-86)">        <g id="_8635e219-ac35-44ec-8f27-b1edc0061a5c" transform="matrix(2.19828,0,0,2.20362,-51.7586,59.9224)">            <path d="M220.31,54c1.174,-0.01 2.304,0.455 3.13,1.29l23.19,22.9c0.828,0.814 1.293,1.929 1.29,3.09c0.002,1.173 -0.462,2.3 -1.29,3.13l-23.19,22.9c-0.829,0.831 -1.956,1.299 -3.13,1.299c-2.425,0 -4.42,-1.995 -4.42,-4.42c0,-0.003 0,-0.006 0,-0.009c0.032,-1.162 0.508,-2.268 1.33,-3.09l13.06,-12.56c1.911,-1.793 2.998,-4.299 3,-6.92c0.04,-2.628 -1.002,-5.161 -2.88,-7l-13.3,-13.08c-0.814,-0.814 -1.272,-1.919 -1.272,-3.07c0,-1.151 0.458,-2.256 1.272,-3.07l0.13,-0.12c0.821,-0.809 1.927,-1.265 3.08,-1.27Zm7.18,23.53c1.073,1.064 1.678,2.515 1.678,4.026c0,1.55 -0.636,3.034 -1.758,4.104l-13,12.51c-1.659,1.574 -2.599,3.763 -2.599,6.05c0,2.14 0.823,4.2 2.299,5.75l0.22,0.22c3.323,3.275 8.737,3.275 12.06,0l23.19,-22.94c1.593,-1.567 2.491,-3.71 2.491,-5.945c0,-2.19 -0.863,-4.295 -2.401,-5.855l-0.09,-0.09l-23.22,-22.97c-3.334,-3.249 -8.726,-3.249 -12.06,0l-0.08,0.08c-1.605,1.569 -2.511,3.721 -2.511,5.965c0,2.181 0.855,4.277 2.381,5.835l0.13,0.13l13.27,13.13Z" style="fill:rgb(16,16,16);fill-rule:nonzero;"/>        </g>        <g id="_9ecaebeb-3c8d-4398-9a95-9e39547a061e" transform="matrix(2.19828,0,0,2.20362,-51.7586,59.9224)">            <path d="M299.53,110.17c1.583,-1.579 2.473,-3.725 2.473,-5.961c0,-2.274 -0.922,-4.454 -2.553,-6.039l-13.06,-12.53c-2.229,-2.156 -2.297,-5.762 -0.15,-8l0.11,-0.11l13.27,-13.1c1.605,-1.569 2.511,-3.721 2.511,-5.965c0,-2.181 -0.855,-4.277 -2.381,-5.835l-0.13,-0.13l-0.08,-0.08c-3.323,-3.275 -8.737,-3.275 -12.06,0l-23.2,22.92c-1.593,1.567 -2.491,3.71 -2.491,5.945c0,2.19 0.863,4.295 2.401,5.855l0.09,0.09l23.19,22.94c3.323,3.275 8.737,3.275 12.06,0" style="fill:rgb(16,16,16);fill-rule:nonzero;"/>        </g>        <g id="bb22e0f4-dfeb-4822-835f-915dc5cabf13" transform="matrix(2.19828,0,0,2.20362,-51.7586,59.9224)">            <path d="M58.33,168.45l-21.86,0l0,-5.13c0,-6 4.3,-10.68 10.93,-10.68c6.63,0 10.93,4.63 10.93,10.68l0,5.13Zm-34.33,-5.13l0,20.07c0,12.84 10.55,21.61 23.69,21.61c10.51,0 19.65,-5.92 22.61,-15.06l-12.1,-3.59c-1.26,4.699 -5.649,7.923 -10.51,7.72c-6.63,0 -11.22,-4.63 -11.22,-10.68l0,-4.13l34.38,0l0,-15.94c0,-13 -10.43,-21.61 -23.44,-21.61c-13.01,0 -23.41,8.63 -23.41,21.61Z" style="fill:rgb(16,16,16);fill-rule:nonzero;"/>        </g>        <g id="_7176e932-5ae1-4806-91fd-c80538aa4714" transform="matrix(2.19828,0,0,2.20362,-51.7586,59.9224)">            <path d="M113.65,141.71c-6.051,-0.045 -11.67,3.204 -14.65,8.47l0,-6.92l-12.43,0l0,60.2l12.43,0l0,-43.9c2.257,-3.893 6.43,-6.298 10.93,-6.3c6.51,0 10.93,4.25 10.93,11.6l0,38.59l12.51,0l0,-39.88c0,-12.35 -7.8,-21.86 -19.77,-21.86" style="fill:rgb(16,16,16);fill-rule:nonzero;"/>        </g>        <g id="_63f4a28f-8fa8-4e30-a599-6da7acc923aa" transform="matrix(2.19828,0,0,2.20362,-51.7586,59.9224)">            <path d="M172.55,191l-14.81,-45.14l-12.74,0l20.57,60.2l13.77,0l20.57,-60.2l-12.51,0l-14.85,45.14Z" style="fill:rgb(16,16,16);fill-rule:nonzero;"/>        </g>        <g id="_687cad5a-3de8-4d23-bdfa-66993e718cb8" transform="matrix(2.19828,0,0,2.20362,-51.7586,59.9224)">            <path d="M241.88,168.45l-21.88,0l0,-5.13c0,-6 4.3,-10.68 10.93,-10.68c6.63,0 10.93,4.63 10.93,10.68l0.02,5.13Zm-34.33,-5.13l0,20.07c0,12.85 10.55,21.61 23.69,21.61c10.51,0 19.61,-5.92 22.61,-15.06l-12.1,-3.59c-1.26,4.699 -5.649,7.923 -10.51,7.72c-6.63,0 -11.22,-4.63 -11.22,-10.68l0,-4.13l34.37,0l0,-15.94c0,-13 -10.43,-21.61 -23.44,-21.61c-13.01,0 -23.4,8.63 -23.4,21.61Z" style="fill:rgb(16,16,16);fill-rule:nonzero;"/>        </g>        <g id="f598b6a4-0421-41b1-80c9-73bb6e49ae2e" transform="matrix(2.19828,0,0,2.20362,-51.7586,59.9224)">            <path d="M291.56,167.57c-7,-1.29 -13.14,-2.09 -13.14,-6.84c0,-4.75 4.3,-8.22 10.93,-8.22c5.713,-0.275 10.641,4.197 10.92,9.91l0,0.9l12.53,0c0,-12.72 -10.55,-21.61 -23.44,-21.61c-14.18,0 -23.15,8.64 -23.15,18.4c0,14.52 11.72,16.44 21.48,18.4c7,1.42 13.14,2.17 13.14,7.43c0,6.3 -5.21,8.26 -11.47,8.26c-0.153,0.007 -0.307,0.01 -0.46,0.01c-5.57,0 -10.215,-4.445 -10.46,-10.01l0,-0.81l-12.49,0c0,12.72 10.55,21.61 23.4,21.61c12.85,0 23.65,-7.35 23.65,-18.41c0,-14.27 -11.72,-17.23 -21.48,-19" style="fill:rgb(16,16,16);fill-rule:nonzero;"/>        </g>        <g id="ef58f533-e424-414c-94ff-5a1aa315b2ef" transform="matrix(2.19828,0,0,2.20362,-51.7586,59.9224)">            <path d="M350.09,129.19l-12.47,0l0,14.64l-13.27,0l0,11.6l13.27,0l0,31.62c0,11.05 8.34,18.52 19.52,18.52c5.187,0.121 10.226,-1.764 14.06,-5.26l-7,-8.76c-1.74,2.055 -4.307,3.233 -7,3.21c-4.3,0 -7,-3.34 -7,-7.72l0,-31.61l21,0l0,-11.6l-21.11,0l0,-14.64Z" style="fill:rgb(16,16,16);fill-rule:nonzero;"/>        </g>        <g id="b3f67429-83e2-4489-94b5-36a449ec1d4c" transform="matrix(2.19828,0,0,2.20362,-51.7586,59.9224)">            <path d="M412.41,145.88l-29.66,0l0,11.56l17.19,0l0,37l-17.19,0l0,11.6l46.85,0l0,-11.6l-17.19,0l0,-48.56Z" style="fill:rgb(16,16,16);fill-rule:nonzero;"/>        </g>        <g id="_918e56e4-eaa5-4b79-9210-685b7d2e7924" transform="matrix(2.19828,0,0,2.20362,-51.7586,59.9224)">            <path d="M406.86,131.49c4.05,-0.034 7.401,-3.292 7.55,-7.34c-0.121,-4.081 -3.468,-7.392 -7.55,-7.47c-4.064,0.07 -7.382,3.405 -7.43,7.47c0.075,4.032 3.398,7.314 7.43,7.34" style="fill:rgb(16,16,16);fill-rule:nonzero;"/>        </g>        <g id="_6bbd0036-f6f9-43d8-a22c-f824da066a04" transform="matrix(2.19828,0,0,2.20362,-51.7586,59.9224)">            <path d="M475.49,183.38c0.213,5.705 -4.296,10.579 -10,10.81l-0.9,0c-5.713,0.275 -10.641,-4.197 -10.92,-9.91l0,-0.9l0,-20.06c-0.003,-0.101 -0.004,-0.203 -0.004,-0.304c0,-5.654 4.562,-10.347 10.214,-10.506l0.72,0c0.143,-0.006 0.286,-0.009 0.428,-0.009c5.607,0 10.277,4.487 10.502,10.089l0,0.72l-0.04,20.07Zm-34.33,-20.07l0,20.07c0,12.85 10.55,21.61 23.4,21.61c12.85,0 23.44,-8.76 23.44,-21.61l0,-20.06c0,-12.72 -10.55,-21.61 -23.44,-21.61c-12.73,0 -23.41,8.88 -23.41,21.61l0.01,-0.01Z" style="fill:rgb(16,16,16);fill-rule:nonzero;"/>        </g>    </g></svg>