<?xml version="1.0" encoding="UTF-8" standalone="no"?><!DOCTYPE svg PUBLIC "-//W3C//DTD SVG 1.1//EN" "http://www.w3.org/Graphics/SVG/1.1/DTD/svg11.dtd"><svg width="100%" height="100%" viewBox="0 0 1024 512" version="1.1" xmlns="http://www.w3.org/2000/svg" xmlns:xlink="http://www.w3.org/1999/xlink" xml:space="preserve"  style="fill-rule:evenodd;clip-rule:evenodd;stroke-linejoin:round;stroke-miterlimit:2;"><title>Proptech Zone</title><desc>Proptech Zone is an innovation and knowledge center based in Tel Aviv, the heart of the startup nation. We empower both startups and real estate players to meet today’s needs and challenges of the industry, facilitating growth opportunities through technology. </desc>    <g id="Layer_1-2" transform="matrix(9.19685,0,0,9.19685,0.160629,26.0787)">        <path d="M17.1,0.1c-6.7,0 -12.9,3.4 -16.4,9c-0.3,0.5 -0.2,1.1 0.3,1.4c0.5,0.3 1.1,0.2 1.4,-0.3c5.1,-8.1 15.9,-10.6 24,-5.4c8.1,5.2 10.6,15.9 5.4,24c-0.7,1.1 -1.5,2.1 -2.4,3c-1.2,1.3 -2.6,2.3 -4.2,3.1l0.1,-23.4c-0,-0.6 -0.4,-1 -1,-1l-0.2,0l-14.6,2.2c-0.5,0.1 -0.9,0.5 -0.9,1l-0,7.3l-7.2,1c-0.5,0.1 -0.9,0.5 -0.9,1l-0.3,25.9c-0,0.6 0.4,1 1,1l0.2,0l8.1,-1.3c0.5,-0.1 0.9,-0.5 0.8,-1l0.2,-24.8l5.5,-0.7l-0,15.5c-0,0.1 -0,0.2 0.1,0.3l-0,0.1c-0,0.6 0.5,1 1,1c5.2,0 10.1,-2.1 13.7,-5.8c3.6,-3.7 5.7,-8.6 5.7,-13.8c-0,-10.6 -8.7,-19.3 -19.4,-19.3Zm-8.8,46.6l-6.1,1l0.3,-23.9l6,-0.8l-0.2,23.7Zm2.3,-25.9l0.1,-6.1l12.6,-1.9l-0.1,23.2c-1.6,0.6 -3.4,1 -5.1,1.1l0.1,-16c-0,-0.6 -0.4,-1 -1,-1l-0.1,0l-6.5,0.7Z" style="fill:rgb(12,0,237);fill-rule:nonzero;"/>        <path d="M47.3,20l-0,-4.8c0.7,0.7 1.7,1.1 2.7,1.1c2.2,0 3.8,-1.7 3.8,-4.2c-0,-2.4 -1.6,-4.1 -3.8,-4.1c-1.1,-0 -2.2,0.5 -2.9,1.4l-0.4,-1.2l-1.3,-0l-0,11.8l1.9,-0Zm2.3,-10.3c1.3,-0 2.2,1 2.2,2.5c-0,1.5 -0.9,2.5 -2.2,2.5c-1.3,-0 -2.3,-1 -2.3,-2.5c-0,-1.5 0.9,-2.5 2.3,-2.5Z" style="fill:rgb(12,0,237);fill-rule:nonzero;"/>        <path d="M57.1,9.3l-0.4,-1.2l-1.3,0l0,7.9l1.9,0l0,-4.3c0,-1.3 0.8,-2 1.9,-2c0.4,0 0.7,0.1 1,0.2l0.5,-1.6c-0.4,-0.2 -0.8,-0.3 -1.3,-0.3c-1,-0.1 -1.9,0.5 -2.3,1.3Z" style="fill:rgb(12,0,237);fill-rule:nonzero;"/>        <path d="M65.2,7.9c-2.5,0 -4.3,1.7 -4.3,4.2c0,2.5 1.8,4.2 4.3,4.2c2.5,0 4.3,-1.7 4.3,-4.2c0,-2.5 -1.8,-4.2 -4.3,-4.2Zm0,6.7c-1.4,-0 -2.3,-1 -2.3,-2.5c0,-1.5 0.9,-2.5 2.3,-2.5c1.4,-0 2.3,1 2.3,2.5c0,1.5 -0.9,2.5 -2.3,2.5Z" style="fill:rgb(12,0,237);fill-rule:nonzero;"/>        <path d="M75.7,8c-1.1,0 -2.2,0.5 -2.9,1.4l-0.4,-1.2l-1.3,0l0,11.8l1.9,0l0,-4.8c0.7,0.7 1.7,1.1 2.7,1.1c2.2,0 3.8,-1.7 3.8,-4.2c0,-2.4 -1.6,-4.1 -3.8,-4.1Zm-0.4,6.6c-1.4,-0 -2.3,-1 -2.3,-2.5c0,-1.5 0.9,-2.4 2.3,-2.4c1.4,-0 2.2,1 2.2,2.5c0,1.5 -0.9,2.4 -2.2,2.4Z" style="fill:rgb(12,0,237);fill-rule:nonzero;"/>        <path d="M84.3,14.5c-0.5,0 -0.9,-0.2 -0.9,-1l0,-3.7l2.5,0l0,-1.6l-2.5,-0l0,-2.6l-1.9,-0l-0.1,2.5l-1.4,-0l0,1.5l1.4,0.1l0,3.9c0,1.8 0.9,2.6 2.4,2.6c0.9,-0 1.7,-0.3 2.4,-0.7l-0.6,-1.5c-0.3,0.4 -0.8,0.5 -1.3,0.5Z" style="fill:rgb(12,0,237);fill-rule:nonzero;"/>        <path d="M90.8,7.9c-2.4,0 -4.1,1.8 -4.1,4.2c0,2.5 1.7,4.2 4.3,4.2c1.1,0 2.2,-0.4 3.1,-1.1l-0.8,-1.2c-0.6,0.5 -1.3,0.8 -2.1,0.7c-1.3,-0 -2.3,-0.7 -2.5,-2l5.7,-0c0,-0.3 0.1,-0.6 0.1,-0.9c-0.1,-2.3 -1.4,-3.9 -3.7,-3.9Zm-2.1,3.6c0.2,-1.2 1,-1.9 2.1,-1.9c1,0 1.8,0.7 1.8,1.9l-3.9,0Z" style="fill:rgb(12,0,237);fill-rule:nonzero;"/>        <path d="M99.8,14.6c-1.3,0 -2.3,-0.9 -2.3,-2.5c0,-1.5 1,-2.5 2.4,-2.5c0.7,0 1.4,0.2 1.9,0.7l0.9,-1.3c-0.8,-0.7 -1.9,-1.1 -3,-1.1c-2.3,0 -4.2,1.6 -4.2,4.2c0,2.8 2.1,4.2 4.1,4.2c1.2,0.1 2.4,-0.4 3.2,-1.2l-1,-1.3c-0.5,0.5 -1.3,0.8 -2,0.8Z" style="fill:rgb(12,0,237);fill-rule:nonzero;"/>        <path d="M108.4,7.9c-1,0 -1.9,0.4 -2.4,1.3l0,-5.9l-2,-0l0,12.8l1.9,0l0,-4.1c0,-1.3 0.7,-2.3 1.9,-2.3c1,-0 1.4,0.6 1.4,1.6l0,4.8l1.9,-0l0,-5c0.1,-1.9 -0.8,-3.2 -2.7,-3.2Z" style="fill:rgb(12,0,237);fill-rule:nonzero;"/>        <path d="M47.6,30.4c0.3,-0.4 0.5,-0.8 0.7,-1.2l2.8,-4.6l0,-0.6l-6.1,0l0,1.7l3.4,0c-0.2,0.3 -0.4,0.6 -0.5,0.9l-3,4.9l0,0.6l6.3,0l0,-1.7l-3.6,-0Z" style="fill:rgb(12,0,237);fill-rule:nonzero;"/>        <path d="M56.1,23.9c-2.5,-0 -4.3,1.7 -4.3,4.2c0,2.5 1.8,4.2 4.3,4.2c2.5,-0 4.3,-1.7 4.3,-4.2c0,-2.5 -1.8,-4.2 -4.3,-4.2Zm0,6.7c-1.4,-0 -2.3,-1 -2.3,-2.5c0,-1.5 0.9,-2.5 2.3,-2.5c1.4,-0 2.3,1 2.3,2.5c0,1.5 -0.9,2.5 -2.3,2.5Z" style="fill:rgb(12,0,237);fill-rule:nonzero;"/>        <path d="M66.4,23.9c-1.1,-0 -2.1,0.5 -2.7,1.5l-0.4,-1.2l-1.3,-0l-0,7.9l1.9,0l-0,-4.4c-0,-1.2 0.7,-2.1 1.9,-2.1c1,0 1.4,0.6 1.4,1.6l-0,4.8l1.9,0l-0,-5c0.1,-1.9 -0.9,-3.1 -2.7,-3.1Z" style="fill:rgb(12,0,237);fill-rule:nonzero;"/>        <path d="M74.8,23.9c-2.4,-0 -4.1,1.8 -4.1,4.2c0,2.5 1.7,4.2 4.3,4.2c1.1,-0 2.2,-0.4 3.1,-1.1l-0.9,-1.2c-0.6,0.5 -1.3,0.8 -2.1,0.7c-1.3,-0 -2.3,-0.7 -2.5,-2l5.7,-0c0,-0.3 0.1,-0.6 0.1,-0.9c0,-2.3 -1.4,-3.9 -3.6,-3.9Zm-2.2,3.6c0.2,-1.2 1,-1.9 2.1,-1.9c1,-0 1.8,0.7 1.8,1.9l-3.9,-0Z" style="fill:rgb(12,0,237);fill-rule:nonzero;"/>    </g></svg>