<?xml version="1.0" encoding="UTF-8" standalone="no"?><!DOCTYPE svg PUBLIC "-//W3C//DTD SVG 1.1//EN" "http://www.w3.org/Graphics/SVG/1.1/DTD/svg11.dtd"><svg width="100%" height="100%" viewBox="0 0 1024 512" version="1.1" xmlns="http://www.w3.org/2000/svg" xmlns:xlink="http://www.w3.org/1999/xlink" xml:space="preserve" style="fill-rule:evenodd;clip-rule:evenodd;stroke-linejoin:round;stroke-miterlimit:2;"><title>BLender Global</title><desc>Blender is a global e-lending platform that provides cross-border lending services. Blender operates as a direct lender or as a cross-border marketplace.Blender aims to become vastly common global consumer lending channel, where people across the globe will be able to apply for a loan through one single mobile app. </desc>    <g transform="matrix(1.07053,0,0,1.07053,-36.0292,-18.056)">        <g transform="matrix(0.873959,0,0,0.873959,121.013,-420.192)">            <g>                <g transform="matrix(192,0,0,192,287.391,844.526)">                    <path d="M0.096,0.006l0.025,-0.756l0.096,0l-0.014,0.221c0.039,-0.075 0.431,-0.089 0.422,0.216c-0.009,0.303 -0.208,0.325 -0.276,0.325c-0.063,0 -0.115,-0.041 -0.157,-0.09l-0.011,0.084l-0.085,0Zm0.111,-0.466c0,0 -0.067,0.28 0.085,0.383c0.111,0.076 0.233,-0.019 0.243,-0.208c0.015,-0.298 -0.276,-0.233 -0.328,-0.175Z" style="fill:rgb(46,46,46);fill-rule:nonzero;"/>                </g>                <g transform="matrix(192,0,0,192,408.235,844.526)">                    <path d="M0.096,0l0.032,-0.75l0.096,0l-0.032,0.75l-0.096,0Z" style="fill:rgb(46,46,46);fill-rule:nonzero;"/>                </g>                <g transform="matrix(0.676435,0,0,0.676435,155.521,185.827)">                    <path d="M588.642,972.18c-14.645,3.376 -27.565,5.065 -38.761,5.065c-25.009,0 -47.61,-1.872 -63.397,-17.331c-15.788,-15.459 -21.479,-41.356 -21.479,-65.975c0,-23.94 6.956,-43.567 20.868,-58.881c13.911,-15.313 31.704,-22.97 53.379,-22.97c20.528,0 36.394,6.784 47.596,20.353c11.202,13.57 16.803,32.857 16.803,57.864l-111.228,-0.132c-5.805,22.521 -2.007,44.188 19.529,57.91c29.789,18.982 65.31,5.436 78.734,1.601l-2.044,22.496Zm-94.812,-98.524l82.872,0c0,-29.368 -15.775,-40.051 -39.326,-40.051c-23.654,0 -40.836,10.683 -43.546,40.051Z" style="fill:rgb(46,46,46);fill-rule:nonzero;"/>                </g>                <g transform="matrix(0.676435,0,0,0.676435,508.123,185.827)">                    <path d="M588.642,972.18c-14.645,3.376 -27.565,5.065 -38.761,5.065c-25.009,0 -47.61,-1.872 -63.397,-17.331c-15.788,-15.459 -21.479,-41.356 -21.479,-65.975c0,-23.94 6.956,-43.567 20.868,-58.881c13.911,-15.313 31.704,-22.97 53.379,-22.97c20.528,0 36.394,6.784 47.596,20.353c11.202,13.57 16.803,32.857 16.803,57.864l-111.228,-0.132c-5.805,22.521 -2.007,44.188 19.529,57.91c29.789,18.982 65.31,5.436 78.734,1.601l-2.044,22.496Zm-94.812,-98.524l82.872,0c0,-29.368 -15.775,-40.051 -39.326,-40.051c-23.654,0 -40.836,10.683 -43.546,40.051Z" style="fill:rgb(46,46,46);fill-rule:nonzero;"/>                </g>                <g transform="matrix(192,0,0,192,570.704,844.526)">                    <path d="M0.057,0l0.018,-0.555l0.096,0l-0.006,0.098c0.051,-0.074 0.157,-0.114 0.23,-0.114c0.046,0 0.118,0.034 0.145,0.063c0.028,0.029 0.029,0.067 0.029,0.117l-0.011,0.391l-0.096,0l0.01,-0.36c0,-0.04 -0.015,-0.141 -0.135,-0.124c-0.106,0.015 -0.142,0.076 -0.17,0.129l-0.013,0.355l-0.097,0Z" style="fill:rgb(46,46,46);fill-rule:nonzero;"/>                </g>                <g transform="matrix(192,0,0,192,689.86,844.526)">                    <path d="M0.465,0l0.008,-0.092c-0.039,0.075 -0.134,0.104 -0.213,0.104c-0.064,0 -0.114,-0.023 -0.151,-0.07c-0.036,-0.046 -0.055,-0.11 -0.055,-0.191c0,-0.088 0.017,-0.162 0.062,-0.212c0.116,-0.13 0.335,-0.134 0.376,-0.086l-0.006,-0.199l0.097,0l-0.022,0.746l-0.096,0Zm0.022,-0.487c-0.05,-0.044 -0.337,-0.036 -0.33,0.229c0.005,0.219 0.124,0.224 0.201,0.196c0.169,-0.062 0.129,-0.425 0.129,-0.425Z" style="fill:rgb(46,46,46);fill-rule:nonzero;"/>                </g>                <g transform="matrix(192,0,0,192,917.672,844.526)">                    <path d="M0.075,0l0.021,-0.555l0.096,0l-0.014,0.075c0.091,-0.126 0.2,-0.089 0.211,-0.088l0,0.09c-0.016,-0.005 -0.183,-0.029 -0.197,0.128l-0.021,0.35l-0.096,0Z" style="fill:rgb(46,46,46);fill-rule:nonzero;"/>                </g>            </g>        </g>        <g transform="matrix(0.660107,0,0,0.660107,-282.915,-88.3691)">            <g transform="matrix(1.06347,0,0,1.06347,-30.294,-47.5372)">                <circle cx="695.77" cy="535.249" r="213.673" style="fill:rgb(0,169,236);"/>            </g>            <g transform="matrix(1,0,0,1,-0.796844,4.19888)">                <path d="M705.332,507.047c-2.678,-0.657 -2.05,-15.053 -1.549,-15.338c3.02,-1.72 32.837,-25.577 66.081,11.123c13.728,15.155 13.203,33.547 12.835,47.719c-0.608,23.384 -14.816,41.887 -24.611,47.419c-14.709,8.308 -27.71,14.05 -40.955,14.05c-10.109,0 -19.752,-2.664 -28.931,-7.991c-9.178,-5.327 -22.829,-20.245 -30.099,-41.552c0,0 -0.512,-127.765 -0.512,-129.521c0,-3.161 -1.191,-5.883 -3.573,-8.166c-2.382,-2.283 -5.257,-3.425 -8.627,-3.425c-6.158,0 -49.595,2.356 -67.004,52.392c-5.764,16.566 -5.909,58.172 -1.753,75.375c6.631,27.452 15.119,38.673 25.052,55.649c9.934,16.976 29.259,31.045 48.953,41.231c19.693,10.185 33.601,13.715 57.419,13.715c27.187,0 51.405,-7.93 73.886,-20.75c22.482,-12.82 37.933,-31.775 50.306,-55.717c12.374,-23.943 15.939,-49.039 15.939,-76.435c0,-28.685 -5.932,-48.796 -18.306,-69.518c-12.373,-20.723 -32.278,-42.391 -52.6,-52.379c-34.496,-16.953 -51.889,-21.329 -84.967,-16.144c-3.514,0.55 -28.762,-0.608 -14.712,-13.761c11.756,-11.006 65.837,-5.694 89.319,3.722c21.147,8.48 42.633,21.68 57.969,35.085c15.337,13.406 29.036,32.909 36.821,50.354c9.759,22.127 15.166,41.384 15.166,67.024c0,28.568 -4.09,54.064 -15.709,79.938c-14.174,31.729 -39.269,54.138 -65.352,70.997c-26.084,16.859 -50.268,23.966 -87.448,23.966c-28.814,0 -57.594,-8.692 -80.541,-20.575c-22.947,-11.884 -49.261,-40.206 -62.506,-63.738c-11.27,-20.255 -21.329,-50.119 -21.329,-73.886c0,-33.952 1.975,-48.79 22.309,-77.812c22.36,-31.914 65.956,-50.15 91.052,-50.15c8.017,0 14.494,0.229 19.432,2.688c4.938,2.458 8.569,7.971 10.893,12.537c1.51,2.927 2.585,147.307 2.585,147.307c0,0 -3.061,28.519 24.067,35.289c7.215,1.8 36.523,-7.065 34.027,-47.501c-3.282,-53.149 -35.061,-41.267 -43.027,-43.221Z" style="fill:white;fill-rule:nonzero;"/>            </g>        </g>    </g></svg>