<?xml version="1.0" encoding="UTF-8" standalone="no"?><!DOCTYPE svg PUBLIC "-//W3C//DTD SVG 1.1//EN" "http://www.w3.org/Graphics/SVG/1.1/DTD/svg11.dtd"><svg width="100%" height="100%" viewBox="0 0 1024 512" version="1.1" xmlns="http://www.w3.org/2000/svg" xmlns:xlink="http://www.w3.org/1999/xlink" xml:space="preserve" style="fill-rule:evenodd;clip-rule:evenodd;stroke-linejoin:round;stroke-miterlimit:2;"><title>Find &amp; Fund</title><desc>Find and Fund is a real estate crowdfunding platform. Crowdfunding is an emerging form of real estate investment. Since 2013, the funds collected through this have doubled from year to year.</desc>    <g transform="matrix(5.65003,0,0,5.65003,-1169.68,-49.6891)">        <g transform="matrix(1,0,0,1,0,-733.651)">            <rect x="225.714" y="776.202" width="3.419" height="23.137" style="fill:rgb(42,45,66);"/>        </g>        <g transform="matrix(1,0,0,1,247.099,65.6875)">            <path d="M0,-23.137l0,14.25l-14.288,-13.276l0,22.163l3.419,0l0,-14.319l14.357,13.344l0,-22.162l-3.488,0Z" style="fill:rgb(42,45,66);fill-rule:nonzero;"/>        </g>        <g transform="matrix(1,0,0,1,254.287,42.5505)">            <path d="M0,23.137l9.141,0c1.914,0 3.86,-0.484 5.786,-1.44c3.881,-1.962 5.771,-5.287 5.771,-10.163c0,-4.872 -1.887,-8.174 -5.77,-10.093c-1.927,-0.956 -3.873,-1.441 -5.787,-1.441l-9.141,0l0,23.137Zm9.141,-3.396l-5.722,0l0,-16.322l5.722,0c1.307,0 2.65,0.336 3.991,0.998c2.753,1.376 4.148,3.77 4.148,7.117c0,3.393 -1.395,5.81 -4.144,7.184c-1.339,0.679 -2.684,1.023 -3.995,1.023" style="fill:rgb(42,45,66);fill-rule:nonzero;"/>        </g>        <g transform="matrix(1,0,0,1,296.221,42.5505)">            <path d="M0,23.137l4.298,0c-1.76,-2.117 -3.085,-3.72 -3.948,-4.777l-0.275,-0.337l0.155,-0.407c0.466,-1.222 0.801,-2.648 0.998,-4.247l-3.477,-0.192l0,1.771l-1.324,-1.543c-0.293,-0.343 -0.544,-0.669 -0.745,-0.97c-0.458,-0.665 -0.92,-1.294 -1.368,-1.861l-0.423,-0.746l0.876,-0.473c1.067,-0.64 1.853,-1.237 2.34,-1.777c0.881,-0.921 1.301,-1.85 1.301,-2.855c0,-0.533 -0.122,-1.124 -0.364,-1.755c-0.579,-1.462 -1.797,-2.389 -3.72,-2.825c-0.431,-0.095 -0.896,-0.143 -1.375,-0.143c-0.848,0 -1.704,0.175 -2.545,0.519c-1.855,0.829 -2.77,2.163 -2.777,4.069c0.045,0.744 0.317,1.676 0.809,2.773c0.152,0.319 0.353,0.697 0.588,1.108l0.317,0.555l-0.497,0.403c-0.244,0.198 -0.496,0.397 -0.755,0.595c-1.905,1.688 -2.832,3.711 -2.832,6.183l0,0.161c0,1.893 0.715,3.448 2.186,4.752c1.529,1.359 3.352,2.019 5.575,2.019c1.491,0 2.944,-0.526 4.318,-1.563l0.865,-0.721l0.477,0.624c0.339,0.444 0.783,1.001 1.322,1.66m-7.258,-2.889c-0.62,0 -1.24,-0.18 -1.842,-0.534c-1.339,-0.721 -2.075,-1.868 -2.131,-3.319c-0.001,-1.37 0.382,-2.565 1.136,-3.584l0.046,-0.056c0.148,-0.163 0.286,-0.31 0.418,-0.442l0.62,-0.619l0.519,0.706c1.143,1.556 2.533,3.385 4.128,5.436l0.353,0.454l-0.344,0.459c-0.181,0.242 -0.419,0.473 -0.709,0.685c-0.703,0.537 -1.445,0.814 -2.194,0.814m-0.426,-12.94l-0.411,-0.714c-0.485,-0.845 -0.721,-1.532 -0.721,-2.101c0,-0.358 0.086,-0.661 0.256,-0.898c0.226,-0.32 0.673,-0.705 1.509,-0.705l0.272,0.002c1.15,0.099 1.497,0.729 1.602,1.096l0.029,0.101l0,0.289c0,0.785 -0.591,1.566 -1.862,2.457l-0.674,0.473Z" style="fill:rgb(42,45,66);fill-rule:nonzero;"/>        </g>        <g transform="matrix(1,0,0,1,324.228,65.6655)">            <path d="M0,-23.137l0,14.019c0,1.513 0.398,3.054 1.182,4.58c1.521,3.056 4.116,4.538 7.936,4.538c3.793,0 6.396,-1.484 7.958,-4.537c0.737,-1.516 1.114,-3.062 1.114,-4.581l0,-14.019l-3.419,0l0,14.019c0,0.952 -0.218,1.89 -0.649,2.788c-0.988,1.923 -2.669,2.888 -5.004,2.888c-2.368,0 -4.041,-0.966 -4.973,-2.871c-0.482,-0.9 -0.727,-1.844 -0.727,-2.805l0,-14.019l-3.418,0Z" style="fill:rgb(42,45,66);fill-rule:nonzero;"/>        </g>        <g transform="matrix(1,0,0,1,360.062,65.6655)">            <path d="M0,-23.137l0,14.25l-14.288,-13.276l0,22.163l3.419,0l0,-14.319l14.357,13.345l0,-22.163l-3.488,0Z" style="fill:rgb(42,45,66);fill-rule:nonzero;"/>        </g>        <g transform="matrix(1,0,0,1,367.207,42.5288)">            <path d="M0,23.137l9.141,0c1.914,0 3.86,-0.484 5.786,-1.44c3.881,-1.963 5.771,-5.288 5.771,-10.163c0,-4.872 -1.888,-8.174 -5.771,-10.094c-1.926,-0.956 -3.872,-1.44 -5.786,-1.44l-9.141,0l0,23.137Zm9.141,-3.396l-5.723,0l0,-16.322l5.723,0c1.307,0 2.65,0.335 3.991,0.997c2.753,1.377 4.147,3.771 4.147,7.118c0,3.393 -1.394,5.81 -4.143,7.184c-1.339,0.678 -2.684,1.023 -3.995,1.023" style="fill:rgb(42,45,66);fill-rule:nonzero;"/>        </g>        <g transform="matrix(1,0,0,1,207.375,65.6569)">            <path d="M0,-23.137l0,23.137l3.419,0l0,-9.894l10.354,0l0,-3.418l-10.354,0l0,-6.406l12.356,0l0,-3.419l-15.775,0Z" style="fill:rgb(0,154,169);fill-rule:nonzero;"/>        </g>        <g transform="matrix(1,0,0,1,306.168,65.6714)">            <path d="M0,-23.137l0,23.137l3.419,0l0,-9.894l10.354,0l0,-3.418l-10.354,0l0,-6.407l12.356,0l0,-3.418l-15.775,0Z" style="fill:rgb(0,154,169);fill-rule:nonzero;"/>        </g>    </g></svg>