<?xml version="1.0" encoding="UTF-8" standalone="no"?><!DOCTYPE svg PUBLIC "-//W3C//DTD SVG 1.1//EN" "http://www.w3.org/Graphics/SVG/1.1/DTD/svg11.dtd"><svg width="100%" height="100%" viewBox="0 0 1024 512" version="1.1" xmlns="http://www.w3.org/2000/svg" xmlns:xlink="http://www.w3.org/1999/xlink" xml:space="preserve" style="fill-rule:evenodd;clip-rule:evenodd;stroke-linejoin:round;stroke-miterlimit:2;"><title>WeShareBonds</title><desc>WeShareBonds is a french P2P lending platform funded in 2016 dedicated to SMEs who are looking for loans or equity.</desc>    <g id="wesharebonds-512x256.svg" transform="matrix(2.21742,0,0,2.21742,-55.6507,-27.8355)">        <path d="M56.81,126.86c-6.91,-3.36 -13.55,-6.82 -20.37,-10c-1,-0.47 -2.06,-1 -3,-1.49c-1.31,-0.65 -1.49,-1.31 -0.84,-2.62c1.496,-3.008 3.382,-5.805 5.61,-8.32c3.022,-3.373 6.692,-6.103 10.79,-8.03c4.262,-2.047 8.913,-3.162 13.64,-3.27c4.406,-0.205 8.812,0.398 13,1.78c4.399,1.497 8.428,3.914 11.82,7.09c0.785,0.645 1.505,1.365 2.15,2.15c0.65,0.93 0.56,1.68 -0.37,2.24c-1.031,0.593 -2.092,1.13 -3.18,1.61c-0.597,0.278 -1.314,0.077 -1.68,-0.47c-8.218,-8.231 -20.683,-10.646 -31.38,-6.08c-3.745,1.588 -7.118,3.942 -9.9,6.91c-0.84,0.93 -1.49,2 -2.34,2.8c-0.65,0.75 -0.28,1 0.47,1.4l21.3,10.65c1.4,0.75 2.8,1.49 4.11,2.15c0.564,0.198 0.958,0.714 1,1.31c-0.012,0.627 -0.411,1.186 -1,1.4c-8.5,4.48 -17.1,8.6 -25.7,13c-0.306,0.209 -0.644,0.368 -1,0.47c-0.75,0.28 -0.75,0.65 -0.37,1.21c5.457,8.827 15.226,14.104 25.6,13.83c6.421,-0.177 12.59,-2.554 17.47,-6.73c1.12,-0.93 2.15,-2 3.18,-3c0.551,-0.647 1.476,-0.841 2.24,-0.47c0.931,0.41 1.836,0.878 2.71,1.4c0.547,0.25 0.899,0.799 0.899,1.4c0,0.228 -0.051,0.454 -0.149,0.66c-0.091,0.206 -0.216,0.396 -0.37,0.56c-5.335,6.5 -12.895,10.796 -21.21,12.05c-10.32,1.55 -19.85,-0.74 -27.94,-7.45c-4.412,-3.647 -7.849,-8.335 -10,-13.64c-0.503,-0.822 -0.252,-1.911 0.56,-2.43c0.128,-0.119 0.295,-0.187 0.47,-0.19c6.35,-3.08 12.61,-6.26 19,-9.25l4.78,-2.63Z" style="fill:rgb(4,154,233);fill-rule:nonzero;"/>        <path d="M146.51,138.63c2.24,-6 4.48,-11.68 6.73,-17.47c0.178,-0.309 0.178,-0.691 0,-1c-1,-2.9 -2.06,-5.79 -3.08,-8.78c-0.082,-0.535 -0.584,-0.911 -1.12,-0.84c-0.93,-0.09 -1.87,-0.28 -2.9,-0.47c-0.37,0 -0.65,-0.19 -0.65,-0.56l0,-0.19c0,-0.56 0.37,-0.47 0.65,-0.47l12.8,0c0.28,0 0.65,-0.09 0.65,0.47c0.007,0.034 0.01,0.069 0.01,0.104c0,0.276 -0.207,0.511 -0.48,0.546l-0.19,0c-0.833,0.169 -1.674,0.292 -2.52,0.37c-0.84,0 -0.84,0.37 -0.56,1l4.48,12.05l5.14,14c0.09,0.28 0.19,0.56 0.37,1c0.65,-1.68 1.21,-3.08 1.78,-4.58c2.71,-6.91 5.33,-13.92 8,-20.84c0.37,-0.84 0.28,-1.21 -0.65,-1.49c-1.31,-0.47 -2.52,-0.93 -3.74,-1.4c-0.381,-0.051 -0.668,-0.379 -0.668,-0.763c0,-0.056 0.006,-0.112 0.018,-0.167c0.09,-0.65 0.56,-0.37 0.84,-0.37l8.6,0c0.28,0 0.75,-0.19 0.84,0.28c0.12,0.402 -0.084,0.835 -0.47,1c-0.09,0 -0.19,0.09 -0.28,0.19c-2.34,0.84 -3.36,2.62 -4.2,4.86c-3.91,10.72 -7.91,21.38 -11.91,31.89c-0.09,0.28 -0.09,0.84 -0.56,0.84c-0.47,0 -0.37,-0.56 -0.56,-0.93c-2.8,-7.85 -5.7,-15.6 -8.5,-23.45c-0.09,-0.28 -0.28,-0.65 -0.37,-0.93c-0.353,0.173 -0.572,0.538 -0.56,0.93l-8.69,23.27c-0.09,0.19 -0.09,0.28 -0.19,0.47c-0.1,0.19 -0.09,0.75 -0.56,0.75c-0.305,-0.118 -0.497,-0.424 -0.47,-0.75l-3.18,-8.69c-3.27,-9 -6.45,-18 -9.72,-27c-0.095,-0.645 -0.658,-1.127 -1.31,-1.12c-0.6,-0.088 -1.195,-0.211 -1.78,-0.37c-0.65,-0.09 -0.47,-0.37 -0.47,-0.75c0,-0.38 0.19,-0.47 0.56,-0.47l12.24,0c0.23,-0.073 0.48,0.052 0.56,0.28l0,0.19c0.09,0.28 -0.09,0.56 -0.47,0.65l-0.09,0c-0.93,0.09 -1.78,0.37 -2.62,0.37c-0.84,0 -1.12,0.37 -0.75,1.21c1.49,4 2.9,7.94 4.3,12l5.19,14.39c0.277,0.152 0.467,0.427 0.51,0.74Z" style="fill:rgb(41,50,60);fill-rule:nonzero;"/>        <path d="M362.72,126.58c2.087,0.395 4.123,1.022 6.07,1.87c3.112,1.422 5.086,4.579 5,8c0,3.64 -1.21,6.54 -4.58,8.41c-2.619,1.38 -5.54,2.088 -8.5,2.06l-17,0c-0.37,0 -0.84,0.28 -0.93,-0.37c-0.09,-0.65 0.37,-0.65 0.84,-0.75c0.771,-0.176 1.553,-0.3 2.34,-0.37c1,0 1.21,-0.47 1.21,-1.4l0,-32.21c0,-0.93 -0.19,-1.4 -1.21,-1.4c-0.846,-0.078 -1.687,-0.201 -2.52,-0.37c-0.007,0 -0.014,0 -0.02,0c-0.297,0 -0.54,-0.243 -0.54,-0.54c0,-0.006 0,-0.013 0,-0.02l0,-0.09c0,-0.47 0.28,-0.56 0.65,-0.56c6.73,0.19 13.55,-0.47 20.28,0.47c2.8,0.47 5.42,1.4 6.82,4.11c0.683,1.247 1.042,2.645 1.042,4.067c0,3.089 -1.692,5.941 -4.402,7.423c-0.19,0.09 -0.47,0.19 -0.65,0.28c-1.264,0.56 -2.567,1.024 -3.9,1.39Zm-10.37,10.09l0,8.22c-0.018,0.065 -0.027,0.131 -0.027,0.198c0,0.35 0.245,0.656 0.587,0.732l6.54,0c4.39,-0.09 7.29,-2.15 8.22,-5.79c0.374,-1.717 0.469,-3.483 0.28,-5.23c-0.033,-3.456 -2.641,-6.387 -6.07,-6.82c-3,-0.56 -6.07,-0.19 -9.06,-0.28c-0.65,0 -0.56,0.47 -0.56,0.84c0.09,2.71 0.09,5.46 0.09,8.13Zm0,-18.41l0,7.19c0,0.65 0.09,0.93 0.84,0.93c1.68,-0.09 3.46,0 5.14,0c3.258,0.038 6.121,-2.237 6.82,-5.42c0.371,-1.463 0.466,-2.982 0.28,-4.48c-0.47,-3.74 -2.34,-5.7 -6.07,-6.26c-2.15,-0.19 -4.2,-0.19 -6.35,-0.19c-0.75,0 -0.65,0.47 -0.65,0.93c-0.01,2.54 -0.01,4.88 -0.01,7.31l0,-0.01Z" style="fill:rgb(3,155,233);fill-rule:nonzero;"/>        <path d="M246.21,127.24c0.83,-1.032 1.736,-2.002 2.71,-2.9c2.384,-2.065 5.605,-2.895 8.69,-2.24c3.46,0.65 5.23,2.9 5.33,6.45l0,15.79c0,0.93 0.09,1.49 1.21,1.4c0.564,0.017 1.126,0.081 1.68,0.19c0.01,-0.001 0.021,-0.001 0.031,-0.001c0.241,0 0.44,0.199 0.44,0.44c0,0.01 0,0.021 -0.001,0.031l0,0.09c0.09,0.19 -0.09,0.47 -0.28,0.56l-10.19,0c-0.37,0 -0.56,0 -0.56,-0.47c-0.076,-0.28 0.091,-0.573 0.37,-0.65l0.09,0c0.75,-0.09 1.87,0.09 2.24,-0.47c0.37,-0.56 0.09,-1.68 0.09,-2.52l0,-13.84c0.017,-0.625 -0.013,-1.25 -0.09,-1.87c-0.47,-2.9 -2.43,-4.2 -5.23,-3.46c-2.8,0.74 -4.77,2.9 -6.35,5.33c-0.121,0.294 -0.152,0.618 -0.09,0.93l0,14.48c0,0.84 0.19,1.21 1,1.21c0.472,0.017 0.941,0.081 1.4,0.19c0.47,0.09 0.37,0.37 0.37,0.65c0.001,0.01 0.001,0.021 0.001,0.031c0,0.241 -0.199,0.44 -0.44,0.44c-0.01,0 -0.021,0 -0.031,-0.001l-10,0c-0.28,0 -0.56,0 -0.47,-0.47c0.09,-0.47 -0.09,-0.65 0.37,-0.65l0.37,0c2.52,-0.37 2.52,-0.37 2.52,-2.9l0,-31.38c0,-0.93 -0.09,-1.49 -1.21,-1.4c-0.535,-0.017 -1.067,-0.081 -1.59,-0.19c-0.47,0 -0.47,-0.37 -0.47,-0.75c0,-0.38 0.28,-0.47 0.56,-0.47l6.82,0c0.84,0 0.65,0.47 0.65,0.93l0,17.47l0.06,0.02Z" style="fill:rgb(41,50,60);fill-rule:nonzero;"/>        <path d="M456.16,142.56c-0.09,0 -0.19,0.09 -0.28,0.19c-3.36,7.29 -13.92,5.51 -17.29,-0.47c-2.9,-5 -2.43,-13 1.4,-17c2.736,-2.99 6.941,-4.184 10.84,-3.08c2.52,0.56 4,2.43 5.14,4.67c0.37,-0.09 0.19,-0.37 0.19,-0.56l0,-15c0,-0.75 -0.09,-1.12 -0.93,-1.12c-0.65,0 -1.31,-0.19 -1.87,-0.19c-0.282,0.023 -0.534,-0.188 -0.56,-0.47l0,-0.19c0,-0.47 0.28,-0.47 0.56,-0.47l7,0c0.048,-0.019 0.099,-0.028 0.15,-0.028c0.221,0 0.404,0.178 0.41,0.398l0,34.95c0,1 0.09,1.68 1.4,1.49c0.443,0.01 0.883,0.074 1.31,0.19c0.28,-0.09 0.56,0.19 0.65,0.47l0,0.19c0,0.47 -0.28,0.56 -0.65,0.56l-6.82,0c-0.56,0 -0.65,-0.28 -0.65,-0.75l0,-3.78Zm0,-7.94l0,-3c-0.069,-2.191 -0.856,-4.3 -2.24,-6c-1.666,-2.148 -4.483,-3.077 -7.1,-2.34c-2.62,0.65 -3.83,2.62 -4.3,5c-0.75,3.64 -0.47,7.29 -0.28,10.93c0.09,1.191 0.374,2.36 0.84,3.46c1.026,2.503 3.691,3.955 6.35,3.46c3.55,-0.56 5.33,-2.9 6.35,-6.07c0.358,-1.813 0.483,-3.665 0.37,-5.51l0.01,0.07Z" style="fill:rgb(3,154,233);fill-rule:nonzero;"/>        <path d="M209.21,141.34l0,-5.23c0,-0.37 -0.19,-0.75 0.47,-0.84c0.404,-0.07 0.803,0.17 0.93,0.56c1.12,2.52 2.34,5 3.46,7.47c0.194,0.48 0.516,0.899 0.93,1.21c3.725,2.459 8.391,3.048 12.61,1.59c3.975,-1.211 6.279,-5.444 5.14,-9.44c-0.383,-1.733 -1.563,-3.188 -3.18,-3.92c-2.8,-1.4 -5.89,-1.87 -8.88,-2.71c-1.77,-0.398 -3.516,-0.895 -5.23,-1.49c-4.58,-2 -6.91,-6.17 -6.17,-11.4c0.74,-5.23 4.11,-8.6 9,-9.16c3.066,-0.38 6.179,0.005 9.06,1.12c0.533,0.238 1.15,0.2 1.65,-0.1c0.75,-0.37 1.59,-0.75 2.43,-1.12c0.84,-0.37 1.31,-0.28 1.21,0.84c-0.09,2.71 0,5.42 0,8c0,0.37 0.28,0.84 -0.47,0.93c-0.457,-0.015 -0.858,-0.316 -1,-0.75c-0.93,-1.87 -1.87,-3.74 -2.71,-5.61c-0.108,-0.401 -0.381,-0.739 -0.75,-0.93c-3.427,-1.56 -7.289,-1.889 -10.93,-0.93c-3.694,0.973 -5.944,4.799 -5,8.5c-0.014,0.102 0.019,0.205 0.09,0.28c0.368,1.39 1.326,2.553 2.62,3.18c2.24,1.31 4.67,1.68 7.1,2.34c2.06,0.56 4.2,1 6.26,1.68c4.86,1.49 6.91,4.3 7.19,10.09c0.37,6.35 -3.18,11.21 -9.06,12.15c-3.72,0.66 -7.556,-0.002 -10.84,-1.87c-0.633,-0.38 -1.427,-0.38 -2.06,0c-0.84,0.47 -1.78,0.93 -2.71,1.4c-0.93,0.47 -1.31,0.28 -1.31,-0.84c0.142,-1.663 0.192,-3.332 0.15,-5Z" style="fill:rgb(41,50,60);fill-rule:nonzero;"/>        <path d="M26.07,126.86c-0.173,-3.544 0.637,-7.067 2.34,-10.18c0.47,-0.84 0.75,-1.21 1.87,-0.65c6.73,3.46 13.55,6.73 20.28,10.18c0.381,0.038 0.708,0.291 0.84,0.65c-0.108,0.375 -0.449,0.639 -0.84,0.65c-6.73,3.36 -13.55,6.73 -20.28,10.18c-1,0.56 -1.4,0.28 -1.87,-0.65c-1.59,-3.26 -2.71,-6.63 -2.34,-10.18Z" style="fill:rgb(41,50,60);fill-rule:nonzero;"/>        <path d="M414,127.14c0.837,-1.055 1.775,-2.026 2.8,-2.9c2.381,-2.07 5.619,-2.872 8.69,-2.15c3.55,0.75 5.23,3 5.33,6.82l0,15.51c0,0.93 0.09,1.4 1.21,1.31c0.535,0.017 1.067,0.081 1.59,0.19c0.47,0 0.56,0.28 0.56,0.65c0,0.37 -0.28,0.47 -0.56,0.47l-9.9,0c-0.37,0 -0.56,0 -0.56,-0.47c-0.09,-0.28 0.09,-0.56 0.47,-0.65l0.09,0c0.75,-0.09 1.87,0.09 2.24,-0.47c0.37,-0.56 0.09,-1.59 0.09,-2.43l0,-14.38c0,-4.58 -3.18,-6.35 -7.19,-4.2c-1.778,1.141 -3.303,2.636 -4.48,4.39c-0.19,0.375 -0.286,0.79 -0.28,1.21l0,14.58c0,0.84 0.19,1.12 1,1.12c0.37,0 0.84,0.19 1.21,0.19c0.37,0 0.56,0.19 0.65,0.47l0,0.19c0,0.56 -0.37,0.47 -0.75,0.47l-9.81,0c-0.37,0 -0.56,0 -0.56,-0.47c-0.076,-0.28 0.091,-0.573 0.37,-0.65l0.19,0c0.56,0 1.21,-0.19 1.78,-0.19c0.84,0 0.93,-0.37 0.93,-1.12l0,-20c0,-0.75 -0.19,-1 -0.93,-1c-0.564,-0.017 -1.126,-0.081 -1.68,-0.19c-0.37,-0.09 -0.75,-0.09 -0.75,-0.65c0,-0.56 0.47,-0.47 0.75,-0.47l6.73,0c0.05,-0.013 0.101,-0.019 0.152,-0.019c0.289,0 0.541,0.205 0.598,0.489l0,0.21c0.02,1.25 0.02,2.46 0.02,4.14Z" style="fill:rgb(5,155,233);fill-rule:nonzero;"/>        <path d="M284.24,142.65c-1.404,2.547 -3.938,4.281 -6.82,4.67c-1.146,0.187 -2.314,0.187 -3.46,0c-2.34,-0.47 -4.3,-1.49 -5,-4c-0.7,-2.51 -0.47,-5.14 1.59,-7.19c2.06,-2.05 4.67,-2.71 7.38,-3.08c1.822,-0.282 3.669,-0.375 5.51,-0.28c0.37,0 0.84,0.09 0.84,-0.47c-0.09,-2 0.28,-4 -0.19,-5.89c-0.56,-2.71 -2.9,-4 -6,-3.36c-1.067,0.189 -2.047,0.711 -2.8,1.49c-0.812,0.72 -0.897,1.977 -0.19,2.8l0.37,0.37c0.278,0.22 0.39,0.593 0.28,0.93c-0.414,1.585 -2.053,2.553 -3.64,2.15c-1.315,-0.344 -2.239,-1.541 -2.24,-2.9c-0.019,-1.404 0.6,-2.743 1.68,-3.64c0.909,-0.851 1.995,-1.49 3.18,-1.87c3.189,-1.027 6.621,-1.027 9.81,0c2.863,0.707 4.812,3.41 4.58,6.35l0,14.2c-0.016,0.468 0.014,0.937 0.09,1.4c0.116,0.775 0.807,1.344 1.59,1.31c0.815,0.13 1.601,-0.404 1.78,-1.21c0,-0.19 0.09,-0.28 0.09,-0.47c0.09,-0.47 0.47,-0.37 0.75,-0.37c0.28,0 0.28,0.37 0.28,0.56c-0.208,1.587 -1.488,2.834 -3.08,3c-3.46,0.47 -6,-1.31 -6.26,-4.2c0.06,0.05 -0.03,-0.11 -0.12,-0.3Zm0.09,-5.33l0,-2.52c0.079,-0.306 -0.079,-0.627 -0.37,-0.75l-0.28,0c-1.12,0 -2.34,0.09 -3.46,0.19c-3.83,0.75 -6.17,3.08 -6.26,6.45c-0.09,3.64 2.62,5.51 6.07,4.11c0.422,-0.18 0.827,-0.398 1.21,-0.65c2.283,-1.459 3.495,-4.142 3.08,-6.82l0.01,-0.01Z" style="fill:rgb(41,50,60);fill-rule:nonzero;"/>        <path d="M390.47,147.42c-7.29,0 -12.52,-5.33 -12.52,-12.71c0,-7.38 5,-12.89 12.24,-12.89c6.608,-0.241 12.251,4.983 12.52,11.59l0,0.75c0.01,7.84 -4.95,13.26 -12.24,13.26Zm6.91,-13.17c0.079,-1.669 0.016,-3.342 -0.19,-5c-0.56,-2.8 -1.68,-5.33 -4.86,-6.07c-4.2,-1 -7.66,1 -8.6,5.42c-0.67,3.702 -0.734,7.488 -0.19,11.21c0.193,2.076 1.2,3.993 2.8,5.33c3.92,2.9 9.16,0.93 10.56,-4.11c0.459,-2.232 0.624,-4.515 0.49,-6.79l-0.01,0.01Z" style="fill:rgb(5,155,233);fill-rule:nonzero;"/>        <path d="M476.72,147.51c-2.326,0.1 -4.648,-0.281 -6.82,-1.12c-1.966,-0.742 -3.144,-2.787 -2.8,-4.86c0.186,-1.279 1.102,-2.339 2.34,-2.71c1.174,-0.25 2.39,0.228 3.08,1.21c0.257,0.353 0.292,0.823 0.09,1.21c-0.998,1.41 -0.659,3.391 0.75,4.39c0.336,0.234 0.718,0.395 1.12,0.47c2.492,0.867 5.258,0.447 7.38,-1.12c2.52,-1.78 2.34,-4.77 -0.47,-6.17c-2.932,-1.295 -5.961,-2.359 -9.06,-3.18c-2.62,-0.75 -4.3,-2.24 -4.67,-5c-0.634,-2.813 0.57,-5.738 3,-7.29c2.62,-1.78 5.51,-1.78 8.5,-1.4c1.705,0.145 3.315,0.848 4.58,2c0.801,0.651 1.267,1.63 1.267,2.662c0,0.803 -0.282,1.581 -0.797,2.198l-0.21,0.2c-0.896,0.825 -2.247,0.941 -3.27,0.28c-0.442,-0.213 -0.724,-0.662 -0.724,-1.153c0,-0.22 0.056,-0.436 0.164,-0.627c0.09,-0.09 0.09,-0.19 0.19,-0.28c0.832,-1.025 0.749,-2.532 -0.19,-3.46c-0.259,-0.192 -0.541,-0.35 -0.84,-0.47c-2.666,-0.963 -5.644,-0.543 -7.94,1.12c-0.853,0.612 -1.36,1.599 -1.36,2.649c0,1.354 0.843,2.574 2.11,3.051c2.43,0.84 5,1.59 7.38,2.34l1.68,0.56c3.55,1.31 5,3.83 4.77,7.57c-0.27,3.302 -2.741,6.033 -6,6.63c-1.074,0.18 -2.161,0.28 -3.25,0.3Z" style="fill:rgb(6,155,233);fill-rule:nonzero;"/>        <path d="M330.49,132.28l-7.94,0c-0.47,0 -0.93,-0.09 -0.93,0.65c-0.107,2.363 0.02,4.732 0.38,7.07c1.31,6.54 6.82,7.47 11.4,5.23c2.097,-0.953 3.672,-2.784 4.3,-5c0.039,-0.155 0.069,-0.312 0.09,-0.47c0.193,-0.314 0.596,-0.436 0.93,-0.28c0.47,0.09 0.19,0.47 0.19,0.75c-0.75,3.55 -3.74,6.17 -7.66,6.91c-5.7,1 -11.49,-1.78 -13.64,-6.82c-2.43,-5.42 -1.59,-14 5.7,-17.57c6,-2.9 13.08,-0.47 15.23,5.33c0.392,1.052 0.644,2.152 0.75,3.27c0.09,0.65 -0.19,0.84 -0.75,0.84l-8.05,0.09Zm-2.49,-1.21l3.18,0c3.08,0 3.08,0 2.62,-3.08c-0.65,-4 -3.36,-5.89 -7.1,-4.77c-2.71,0.84 -5,4.48 -4.77,7.38c0.09,0.65 0.47,0.47 0.75,0.47l5.32,0Z" style="fill:rgb(41,50,60);fill-rule:nonzero;"/>        <path d="M195.75,132.28l-7.75,0c-0.84,0 -1,0.28 -1,1c-0.077,2.119 -0.013,4.24 0.19,6.35c1.21,6.82 6.73,7.94 11.4,5.61c2.127,-0.913 3.716,-2.76 4.3,-5c0.024,-0.402 0.348,-0.726 0.75,-0.75c0.102,-0.014 0.205,0.019 0.28,0.09c0.65,0.19 0.19,0.65 0.09,1c-1.31,4.3 -5.23,6.91 -10.18,6.73c-7.94,-0.28 -13.17,-6.54 -12.24,-14.39c0.65,-5.42 3.36,-9.25 8.69,-10.75c5.7,-1.68 11.31,0.84 13.36,5.89c0.402,0.984 0.655,2.022 0.75,3.08c0.09,0.84 -0.09,1.21 -1,1.12c-2.5,-0.07 -5.02,0.02 -7.64,0.02Zm-2.62,-1.21l5.42,0c0.47,0 0.84,0 0.84,-0.56c0.002,-1.671 -0.338,-3.325 -1,-4.86c-0.638,-1.399 -1.941,-2.385 -3.46,-2.62c-2.73,-0.479 -5.462,0.946 -6.63,3.46c-0.56,1.207 -0.898,2.504 -1,3.83c-0.09,0.65 0.09,0.75 0.65,0.75l5.18,0Z" style="fill:rgb(41,50,60);fill-rule:nonzero;"/>        <path d="M302.92,125.74c2.06,-2.52 4.2,-4.11 7.38,-3.92c1.17,0.096 2.282,0.554 3.18,1.31c1.06,1.122 1.178,2.854 0.28,4.11c-1.019,1.102 -2.651,1.408 -4,0.75c-0.56,-0.37 -1,-0.65 -0.56,-1.49c0.359,-0.689 0.206,-1.539 -0.37,-2.06c-0.557,-0.571 -1.405,-0.757 -2.15,-0.47c-2.064,0.915 -3.475,2.882 -3.68,5.13l0,15.32c0,0.75 0.09,1.21 1,1.12c0.72,0.017 1.438,0.08 2.15,0.19c0.049,-0.015 0.099,-0.023 0.15,-0.023c0.272,0 0.496,0.221 0.5,0.493l0,0.19c0,0.56 -0.37,0.47 -0.65,0.47l-10.61,0c-0.37,0 -0.65,0 -0.65,-0.47c-0.09,-0.28 0.19,-0.56 0.47,-0.65l0.19,0c0.84,-0.09 2.15,0.09 2.52,-0.47c0.37,-0.56 0.19,-1.87 0.19,-2.8l0,-17.76c0,-0.93 -0.19,-1.31 -1.12,-1.31c-0.564,-0.017 -1.126,-0.081 -1.68,-0.19c-0.007,0 -0.014,0 -0.02,0c-0.297,0 -0.54,-0.243 -0.54,-0.54c0,-0.006 0,-0.013 0,-0.02l0,-0.19c0,-0.47 0.37,-0.37 0.65,-0.37l6.82,0c0.56,0 0.75,0.09 0.75,0.65c-0.163,0.991 -0.23,1.996 -0.2,3Z" style="fill:rgb(41,50,60);fill-rule:nonzero;"/>    </g></svg>