<?xml version="1.0" encoding="UTF-8" standalone="no"?><!DOCTYPE svg PUBLIC "-//W3C//DTD SVG 1.1//EN" "http://www.w3.org/Graphics/SVG/1.1/DTD/svg11.dtd"><svg width="100%" height="100%" viewBox="0 0 1024 512" version="1.1" xmlns="http://www.w3.org/2000/svg" xmlns:xlink="http://www.w3.org/1999/xlink" xml:space="preserve" style="fill-rule:evenodd;clip-rule:evenodd;stroke-linejoin:round;stroke-miterlimit:2;"><title>Perks</title><desc></desc>    <g transform="matrix(10.1241,0,0,10.1241,-1958.04,-1337.16)">        <g transform="matrix(40,0,0,40,192,171.094)">            <path d="M0.549,-0.516c-0.001,0.005 -0.002,0.008 -0.001,0.009c0.001,0.001 0.001,0.003 0.001,0.004c-0.001,0.003 -0.001,0.006 -0.002,0.009c0,0.003 -0.001,0.006 -0.002,0.01c-0.002,0.009 -0.004,0.019 -0.007,0.029c-0.003,0.01 -0.006,0.019 -0.012,0.027c-0.004,0.005 -0.006,0.009 -0.007,0.012c-0.002,0.003 -0.003,0.005 -0.004,0.007c-0.009,0.012 -0.015,0.021 -0.016,0.027c-0.003,0.003 -0.007,0.007 -0.011,0.01c-0.004,0.004 -0.008,0.007 -0.013,0.011c-0.007,0.004 -0.013,0.008 -0.017,0.012c-0.005,0.003 -0.011,0.004 -0.019,0.002c-0.003,0.004 -0.006,0.006 -0.01,0.007c-0.004,0.001 -0.008,0.002 -0.011,0.003c-0.005,0.003 -0.009,0.005 -0.012,0.006c-0.003,0.001 -0.006,0.003 -0.009,0.004l-0.012,0.004c-0.003,0.004 -0.007,0.006 -0.01,0.006c-0.007,0.003 -0.013,0.005 -0.019,0.007c-0.005,0.002 -0.01,0.003 -0.015,0.002c-0.006,0 -0.01,0 -0.012,0c-0.002,0.001 -0.003,0.002 -0.005,0.002c-0.009,0.001 -0.016,0.002 -0.02,0.003c-0.005,0.001 -0.009,0.001 -0.014,-0.001c-0.003,0.002 -0.005,0.003 -0.008,0.004c-0.002,0.001 -0.005,0.001 -0.009,0.002c-0.003,0.001 -0.006,0.002 -0.008,0.001c-0.003,-0.001 -0.007,-0.001 -0.011,-0.001c-0.009,0.002 -0.015,0.003 -0.02,0.003c-0.004,-0.001 -0.008,-0.001 -0.011,-0.001c-0.008,0 -0.016,0 -0.025,0.001c-0.01,0.001 -0.017,0.003 -0.023,0.006c0,0.012 0.001,0.024 0.002,0.036c0.001,0.012 0.001,0.024 0.001,0.035c0,0.003 -0.001,0.006 -0.001,0.009c-0.001,0.002 -0.001,0.004 -0.001,0.007c0,0.008 0,0.015 0.001,0.022c0,0.007 0.001,0.013 0.001,0.02c0,0.003 -0.001,0.007 -0.001,0.01c-0.001,0.004 -0.001,0.007 -0.001,0.011c0,0.004 0,0.007 0.001,0.01c0.001,0.003 0.001,0.007 -0.001,0.01c0.004,0.008 0.005,0.017 0.004,0.027c-0.002,0.01 -0.002,0.019 -0.001,0.029c0,0.003 0.001,0.005 0.002,0.007c0,0.001 0.001,0.003 0.001,0.005c0.001,0.005 0.001,0.011 0,0.016c-0.001,0.005 -0.001,0.011 0,0.016c-0.006,0.002 -0.012,0.004 -0.018,0.007c-0.007,0.003 -0.014,0.003 -0.021,0c-0.01,-0.001 -0.018,-0.001 -0.024,0.001c-0.007,0.002 -0.014,0.004 -0.02,0.005c-0.01,0.001 -0.02,0.001 -0.03,-0.001c-0.009,-0.003 -0.018,-0.006 -0.026,-0.01c0.001,-0.004 0,-0.007 -0.001,-0.01c-0.001,-0.003 -0.002,-0.006 -0.002,-0.008c0.001,-0.003 0.001,-0.006 0.002,-0.007c0.001,-0.001 0.002,-0.003 0.003,-0.006c-0.001,-0.002 -0.001,-0.004 0,-0.005c0.001,-0.002 0.002,-0.004 0.002,-0.006c0.001,-0.003 0.001,-0.006 0,-0.01c-0.001,-0.003 -0.001,-0.007 -0.001,-0.01l0.003,-0.016c0,-0.006 -0.001,-0.011 -0.002,-0.017c-0.001,-0.006 -0.002,-0.012 -0.002,-0.018l0.004,-0.02c0,-0.002 0,-0.003 0,-0.005c-0.001,-0.002 -0.001,-0.004 0,-0.006c0.002,-0.005 0.003,-0.009 0.002,-0.011c0,-0.002 0,-0.003 0,-0.005l0.001,-0.019c-0.001,-0.009 0,-0.015 0.001,-0.018c0.002,-0.004 0.003,-0.007 0.003,-0.011c0,-0.003 -0.001,-0.006 -0.002,-0.008c-0.001,-0.003 -0.002,-0.006 -0.003,-0.008c-0.001,-0.002 -0.002,-0.006 -0.002,-0.01c-0.001,-0.005 -0.001,-0.009 -0.001,-0.013c0,-0.004 0.001,-0.007 0.002,-0.01c0.001,-0.003 0.002,-0.006 0.002,-0.009c-0.002,-0.005 -0.002,-0.009 -0.002,-0.01c0.001,-0.002 0.001,-0.004 0.001,-0.005c-0.002,-0.004 -0.002,-0.006 -0.001,-0.007c0,-0.001 0.001,-0.002 0.001,-0.004c-0.001,-0.005 -0.001,-0.009 0,-0.011c0,-0.002 0.001,-0.005 0.002,-0.007l0.002,-0.013c-0.001,-0.004 -0.001,-0.008 0,-0.014c0,-0.005 0,-0.009 0,-0.012c0,-0.002 -0.001,-0.003 -0.001,-0.005c-0.001,-0.002 -0.002,-0.004 -0.002,-0.006c-0.001,-0.003 -0.002,-0.009 -0.002,-0.018c-0.001,-0.009 -0.001,-0.016 0,-0.022c-0.001,-0.007 -0.001,-0.011 0,-0.014c0.001,-0.003 0.002,-0.006 0.002,-0.009c0,-0.003 -0.001,-0.006 -0.001,-0.009c-0.001,-0.003 -0.002,-0.006 -0.002,-0.009c-0.001,-0.005 -0.001,-0.01 -0.001,-0.016c0,-0.005 0.001,-0.01 0.002,-0.016c-0.001,-0.007 -0.002,-0.013 -0.001,-0.018c0.001,-0.004 0.002,-0.009 0.003,-0.014c0,-0.004 0,-0.008 -0.001,-0.013c-0.002,-0.005 -0.001,-0.01 0.002,-0.013c-0.004,-0.006 -0.005,-0.014 -0.006,-0.024c-0.001,-0.01 0,-0.018 0.002,-0.023c-0.003,-0.003 -0.004,-0.007 -0.004,-0.011l0,-0.018c0,-0.006 0,-0.013 -0.001,-0.021c0,-0.007 0.002,-0.014 0.005,-0.019c-0.003,-0.008 -0.006,-0.017 -0.007,-0.027c0,-0.011 0.001,-0.021 0.004,-0.03c0.006,-0.002 0.012,-0.002 0.02,-0.002c0.007,0.001 0.016,0.001 0.025,0c0.012,-0.001 0.024,-0.003 0.036,-0.006c0.012,-0.002 0.024,-0.004 0.037,-0.005c0.007,-0.001 0.013,-0.001 0.019,-0.001c0.006,0 0.013,-0.001 0.019,-0.002c0.009,-0.002 0.017,-0.003 0.024,-0.004c0.008,-0.001 0.017,-0.001 0.028,0.001c0.005,0 0.008,0 0.009,0.001c0,0.001 0.001,0.002 0.002,0.002c0.001,0 0.003,0 0.006,-0.001c0.004,-0.001 0.007,-0.001 0.01,0c0.013,0.001 0.026,0.003 0.038,0.006c0.012,0.002 0.023,0.006 0.035,0.01c0.004,0.002 0.007,0.003 0.009,0.004c0.002,0 0.004,0.001 0.005,0.001c0.006,0.002 0.012,0.003 0.017,0.004c0.005,0.001 0.008,0.002 0.01,0.003c0.009,0.003 0.016,0.006 0.02,0.009c0.004,0.002 0.008,0.005 0.012,0.008c0.004,0.002 0.007,0.004 0.009,0.005c0.002,0.001 0.004,0.002 0.006,0.003l0.012,0.01c0.005,0.003 0.009,0.007 0.013,0.009c0.004,0.003 0.008,0.006 0.013,0.01c0.002,0.001 0.005,0.002 0.007,0.004c0.002,0.001 0.004,0.002 0.005,0.004c0.003,0.004 0.006,0.007 0.007,0.007c0.001,0 0.002,0.001 0.003,0.001c0.003,0.003 0.006,0.006 0.009,0.011c0.004,0.004 0.006,0.008 0.008,0.011c0.002,0.005 0.004,0.008 0.005,0.01c0.001,0.002 0.002,0.003 0.003,0.004c0.004,0.006 0.006,0.011 0.006,0.015c0.001,0.004 0.002,0.008 0.003,0.011c0.001,0.003 0.003,0.006 0.004,0.009c0.001,0.002 0.001,0.005 0.002,0.008c0.001,0.004 0.002,0.008 0.002,0.012c0,0.004 0,0.008 0.001,0.012c0.001,0.003 0.001,0.007 0.002,0.01c0.001,0.004 0.002,0.007 0.002,0.011Zm-0.124,-0.004c0,-0.007 -0.001,-0.014 -0.003,-0.019c-0.003,-0.005 -0.004,-0.011 -0.004,-0.017l-0.011,-0.013c-0.003,-0.006 -0.006,-0.01 -0.01,-0.013c-0.004,-0.003 -0.007,-0.007 -0.009,-0.012c-0.004,-0.002 -0.007,-0.007 -0.009,-0.013c-0.005,0 -0.009,-0.001 -0.011,-0.003c-0.003,-0.003 -0.006,-0.004 -0.012,-0.002c-0.003,-0.004 -0.006,-0.006 -0.01,-0.008c-0.004,-0.002 -0.008,-0.004 -0.011,-0.006c-0.007,-0.003 -0.013,-0.004 -0.019,-0.003c-0.005,0 -0.009,0 -0.013,-0.001l-0.032,0c-0.005,0 -0.009,0 -0.013,-0.001c-0.004,-0.001 -0.008,-0.001 -0.013,-0.001l-0.01,0c-0.003,0 -0.006,0 -0.009,0.001c-0.009,0.001 -0.015,0.002 -0.019,0.002l-0.012,0c-0.004,0.003 -0.009,0.006 -0.014,0.007c-0.005,0.001 -0.01,0.003 -0.015,0.004c0.001,0.016 0.002,0.034 0.003,0.053c0.001,0.019 0.002,0.037 0.003,0.054l0,0.009c0,0.003 0.001,0.005 0.002,0.008c0,0.008 0,0.014 -0.001,0.018c-0.001,0.004 -0.002,0.007 -0.001,0.01c0.001,0.002 0.001,0.004 0.002,0.006c0.001,0.002 0.002,0.004 0.003,0.007c0,0.002 0.001,0.005 0,0.008c0,0.002 0,0.005 0.001,0.008c0.002,0.004 0.003,0.007 0.002,0.01c0,0.002 0,0.004 0.001,0.005c0,0.002 0.001,0.004 0.002,0.006c0.001,0.002 0.002,0.004 0.002,0.007c0,0.006 0.001,0.012 0.003,0.016c0.008,0.001 0.016,0.001 0.022,-0.001c0.007,-0.001 0.013,-0.002 0.017,-0.003c0.007,-0.002 0.012,-0.003 0.014,-0.004c0.003,-0.002 0.005,-0.003 0.007,-0.004c0.005,-0.002 0.009,-0.002 0.013,-0.002c0.004,0 0.009,-0.001 0.013,-0.002c0.008,-0.003 0.013,-0.006 0.018,-0.007c0.004,-0.001 0.008,-0.001 0.013,-0.001c0.005,-0.002 0.01,-0.004 0.014,-0.005c0.005,-0.002 0.009,-0.003 0.014,-0.005c0.002,0 0.004,-0.001 0.005,-0.001c0.002,0 0.004,0 0.006,-0.001c0.004,-0.002 0.008,-0.003 0.01,-0.003c0.002,0 0.004,0 0.005,-0.001c0.006,-0.002 0.01,-0.004 0.013,-0.006c0.003,-0.003 0.006,-0.004 0.009,-0.003l0.009,-0.015c0.001,-0.001 0.003,-0.002 0.006,-0.001c0.002,0 0.004,-0.001 0.005,-0.002c0.002,-0.005 0.005,-0.01 0.007,-0.014c0.003,-0.004 0.005,-0.008 0.008,-0.013c-0.001,-0.006 0.001,-0.012 0.003,-0.017c0.003,-0.005 0.005,-0.01 0.006,-0.016Z" style="fill:rgb(69,186,1);fill-rule:nonzero;"/>        </g>        <g transform="matrix(40,0,0,40,214.148,171.094)">            <path d="M0.597,-0.267c-0.001,0.01 -0.001,0.016 0,0.019c0,0.003 0,0.007 -0.002,0.011c-0.002,0.002 -0.004,0.004 -0.008,0.006c-0.003,0.001 -0.006,0.003 -0.007,0.005c-0.004,-0.001 -0.008,-0.001 -0.013,-0.001c-0.004,0 -0.008,0.001 -0.011,0.002c-0.005,-0.004 -0.011,-0.005 -0.019,-0.004c-0.009,0 -0.015,-0.001 -0.02,-0.005c-0.004,0.002 -0.008,0.003 -0.011,0.003c-0.009,0.001 -0.019,0.001 -0.029,-0.001c-0.01,-0.002 -0.02,-0.004 -0.031,-0.005c-0.007,-0.001 -0.014,-0.001 -0.022,-0.001l-0.021,0c-0.006,0.001 -0.011,0.002 -0.015,0.002c-0.006,-0.001 -0.01,-0.002 -0.014,-0.004c-0.005,-0.002 -0.009,-0.003 -0.015,-0.003c-0.004,-0.001 -0.008,-0.001 -0.012,0c-0.004,0.001 -0.008,0.002 -0.012,0.002c-0.004,0 -0.009,-0.001 -0.016,-0.002c-0.005,0 -0.008,0.001 -0.01,0c-0.002,0 -0.004,0 -0.005,0c-0.005,0 -0.009,0 -0.013,0.001c-0.005,0 -0.008,-0.001 -0.012,-0.005c-0.002,0.002 -0.005,0.003 -0.007,0.004c-0.001,0 -0.005,0.001 -0.01,0.001c-0.004,-0.001 -0.006,-0.001 -0.008,-0.002c-0.001,0 -0.003,0 -0.004,0c-0.005,0.001 -0.008,0.001 -0.011,0.001c-0.003,-0.001 -0.006,0 -0.009,0.003c-0.001,-0.002 -0.003,-0.002 -0.006,-0.002c-0.004,0.001 -0.006,0 -0.007,-0.001c-0.009,-0.001 -0.016,-0.001 -0.021,0c-0.005,0.001 -0.01,0.002 -0.016,0.002c-0.006,0 -0.011,-0.001 -0.015,-0.002c-0.005,-0.001 -0.011,-0.001 -0.019,0c-0.003,0.006 -0.004,0.013 -0.003,0.022c0.001,0.009 0.003,0.016 0.007,0.021c0.001,0.003 0.001,0.006 0,0.008c-0.001,0.002 -0.002,0.004 -0.002,0.007c0.006,0.008 0.01,0.013 0.014,0.016c0.003,0.003 0.006,0.007 0.008,0.01c0.003,0.005 0.007,0.01 0.012,0.014c0.004,0.005 0.008,0.01 0.012,0.016c0.002,0.003 0.003,0.006 0.006,0.008c0.002,0.002 0.004,0.004 0.006,0.008c0.005,0.001 0.01,0.003 0.013,0.006c0.004,0.002 0.008,0.005 0.013,0.008c0.008,0.004 0.013,0.008 0.016,0.011c0.002,0.003 0.006,0.005 0.011,0.007c0.003,0.001 0.006,0.002 0.008,0.001c0.002,0 0.004,0 0.005,0.001c0.004,0.001 0.007,0.003 0.011,0.007c0.004,0.003 0.008,0.005 0.013,0.006c0.007,-0.001 0.012,-0.001 0.016,-0.001c0.003,0 0.006,0.001 0.008,0.002c0.009,0 0.017,-0.002 0.024,-0.006l0.008,0c0.002,0 0.004,-0.001 0.007,-0.001c0.006,-0.004 0.011,-0.006 0.014,-0.006c0.002,0 0.005,-0.001 0.007,-0.002c0.002,-0.002 0.004,-0.003 0.005,-0.003c0.002,-0.001 0.003,-0.001 0.005,-0.002c0.004,-0.001 0.007,-0.003 0.01,-0.005c0.003,-0.002 0.006,-0.004 0.009,-0.007c0.005,-0.002 0.009,-0.005 0.013,-0.008c0.006,-0.004 0.012,-0.01 0.017,-0.017c0.005,-0.007 0.01,-0.013 0.016,-0.019c0.001,-0.007 0.002,-0.014 0.004,-0.019c0.002,-0.005 0.005,-0.01 0.008,-0.015c0,-0.007 0.001,-0.013 0.002,-0.017c0.002,-0.004 0.004,-0.008 0.007,-0.012c0.003,-0.001 0.006,-0.001 0.008,-0.002c0.003,-0.001 0.006,0 0.01,0.001c0.002,0.001 0.004,0.002 0.006,0.003c0.001,0.001 0.004,0.002 0.007,0.004c0.002,0.001 0.004,0.002 0.006,0.002c0.002,0.001 0.006,0.001 0.01,0.003c0.005,0.002 0.008,0.003 0.01,0.003c0.002,0 0.004,0 0.006,0.001c0.005,0.002 0.01,0.003 0.014,0.002c0.004,0 0.008,0 0.011,0.001c0.008,0.006 0.012,0.01 0.013,0.012c0,0.008 -0.002,0.015 -0.007,0.022c-0.003,0.007 -0.004,0.011 -0.004,0.013c0,0.001 0,0.004 -0.001,0.007c0,0.002 -0.001,0.004 -0.002,0.005c-0.002,0.001 -0.003,0.003 -0.003,0.006c-0.002,0.004 -0.003,0.008 -0.003,0.011c-0.001,0.004 -0.002,0.007 -0.004,0.011c-0.005,0.007 -0.01,0.012 -0.012,0.015c-0.003,0.002 -0.006,0.005 -0.01,0.006c0.002,0.003 0.001,0.006 -0.002,0.007c-0.002,0.002 -0.004,0.003 -0.006,0.005c-0.002,0.004 -0.004,0.008 -0.008,0.01c-0.003,0.003 -0.008,0.006 -0.012,0.009c-0.005,0.005 -0.011,0.009 -0.016,0.012c-0.006,0.003 -0.011,0.006 -0.016,0.01c-0.007,0.005 -0.012,0.01 -0.015,0.012c-0.003,0.002 -0.006,0.004 -0.01,0.005l-0.01,0.005c-0.004,0.001 -0.007,0.002 -0.011,0.002c-0.004,0 -0.008,0.001 -0.012,0.002c-0.007,0.003 -0.013,0.004 -0.018,0.005c-0.006,0.001 -0.011,0.002 -0.016,0.004c-0.003,0.001 -0.006,0.002 -0.009,0.003c-0.002,0 -0.006,0 -0.012,0c-0.006,-0.002 -0.011,-0.001 -0.014,0.001c-0.004,0.002 -0.007,0.001 -0.01,-0.001c-0.007,0.001 -0.013,0.002 -0.018,0.004c-0.005,0.001 -0.009,0.001 -0.013,0.001c-0.002,0 -0.004,-0.001 -0.006,-0.001c-0.002,-0.001 -0.004,-0.002 -0.006,-0.002c-0.012,-0.002 -0.022,-0.004 -0.03,-0.004c-0.007,-0.001 -0.014,-0.002 -0.02,-0.004c-0.002,-0.001 -0.004,-0.001 -0.006,-0.001c-0.002,0 -0.003,-0.001 -0.005,-0.004c-0.006,0.001 -0.012,0 -0.018,-0.002c-0.005,-0.003 -0.01,-0.007 -0.013,-0.01c-0.002,0 -0.004,0 -0.005,-0.001c-0.002,0 -0.004,-0.001 -0.006,-0.002c-0.004,-0.002 -0.009,-0.004 -0.013,-0.006c-0.005,-0.002 -0.008,-0.006 -0.011,-0.011c-0.005,0 -0.009,-0.002 -0.011,-0.004c-0.002,-0.003 -0.005,-0.005 -0.008,-0.008c-0.006,0 -0.01,-0.001 -0.015,-0.004c-0.004,-0.003 -0.007,-0.007 -0.01,-0.011c-0.005,-0.006 -0.01,-0.011 -0.015,-0.015c-0.007,-0.007 -0.012,-0.013 -0.016,-0.018c-0.004,-0.005 -0.009,-0.009 -0.015,-0.011c-0.001,-0.003 -0.003,-0.007 -0.006,-0.009c-0.002,-0.003 -0.005,-0.006 -0.007,-0.009c-0.004,-0.007 -0.006,-0.011 -0.007,-0.013c-0.002,-0.002 -0.003,-0.003 -0.004,-0.005l-0.007,-0.03c-0.002,-0.007 -0.003,-0.012 -0.003,-0.016c0,-0.003 0,-0.006 -0.001,-0.009l-0.005,-0.012c0,-0.003 -0.001,-0.007 0,-0.01c0,-0.003 0,-0.007 -0.001,-0.011c0,-0.003 -0.001,-0.006 -0.002,-0.009c0,-0.003 -0.001,-0.006 -0.001,-0.009l0.002,-0.029c0,-0.002 0,-0.004 0,-0.006c-0.001,-0.002 -0.001,-0.004 -0.001,-0.005l0.007,-0.021c-0.001,-0.006 -0.001,-0.01 0,-0.012c0.001,-0.003 0,-0.005 -0.001,-0.006c0.001,-0.002 0.002,-0.003 0.003,-0.006c0.001,-0.002 0.001,-0.004 0.002,-0.005c0.001,-0.002 0.001,-0.004 0.001,-0.007c0,-0.002 0.001,-0.005 0.002,-0.009c0.003,-0.005 0.005,-0.008 0.006,-0.009c0.001,-0.001 0.002,-0.002 0.003,-0.002c0,-0.005 0.001,-0.008 0.002,-0.01c0,-0.001 0.001,-0.003 0.003,-0.004c0.003,-0.007 0.005,-0.01 0.006,-0.012c0.001,-0.001 0.002,-0.002 0.002,-0.004c0.001,-0.005 0.002,-0.008 0.002,-0.008c0.001,-0.001 0.002,-0.002 0.002,-0.003c0.002,-0.004 0.002,-0.008 0.003,-0.011c0,-0.003 0.001,-0.006 0.002,-0.009c0.001,-0.003 0.003,-0.007 0.005,-0.01c0.002,-0.004 0.005,-0.007 0.008,-0.009c0.003,-0.008 0.006,-0.015 0.009,-0.02c0.002,-0.006 0.005,-0.011 0.007,-0.017c0.006,-0.004 0.011,-0.009 0.016,-0.015c0.004,-0.006 0.009,-0.011 0.015,-0.016c0.001,-0.001 0.003,-0.002 0.004,-0.002c0.002,-0.001 0.004,-0.001 0.006,-0.003c0.008,-0.005 0.013,-0.009 0.016,-0.012c0.003,-0.003 0.007,-0.005 0.012,-0.007c0.004,-0.002 0.01,-0.002 0.018,-0.003c0.008,0 0.014,-0.002 0.017,-0.007c0.004,0 0.008,-0.001 0.012,-0.002c0.004,-0.002 0.008,-0.004 0.011,-0.006c0.003,-0.001 0.006,-0.003 0.009,-0.004c0.003,-0.002 0.008,-0.002 0.014,-0.002c0.004,0.001 0.009,0.001 0.013,0.001c0.004,-0.001 0.009,-0.001 0.014,-0.003c0.003,0 0.006,-0.001 0.009,-0.002c0.003,0 0.007,-0.001 0.011,-0.001c0.01,0.002 0.017,0.002 0.023,0.002c0.005,0 0.012,0.001 0.019,0.001c0.003,0 0.006,0 0.01,-0.001c0.004,-0.001 0.007,-0.002 0.011,-0.002l0.019,0.002c0.004,0.002 0.007,0.002 0.008,0.002l0.003,0c0.003,0.001 0.006,0.002 0.008,0.004c0.002,0.001 0.005,0.003 0.008,0.004l0.011,0.004c0.002,0.001 0.006,0.002 0.012,0.005c0.004,0.001 0.008,0.003 0.012,0.004c0.004,0.001 0.007,0.004 0.008,0.009c0.007,0.002 0.013,0.004 0.016,0.007c0.004,0.004 0.007,0.006 0.01,0.008c0.003,0.002 0.006,0.005 0.008,0.009c0.003,0.003 0.006,0.006 0.009,0.008c0.001,0.002 0.002,0.003 0.003,0.005c0,0.001 0.001,0.003 0.002,0.006c0.005,0.003 0.01,0.007 0.014,0.012c0.004,0.005 0.009,0.008 0.016,0.011c0.002,0.005 0.004,0.009 0.007,0.012c0.003,0.003 0.004,0.008 0.005,0.013c0.001,0.002 0.003,0.005 0.004,0.007c0.002,0.002 0.004,0.005 0.006,0.008c0,0.001 0.002,0.003 0.003,0.005c0.002,0.002 0.003,0.004 0.004,0.006c0.003,0.007 0.006,0.014 0.01,0.02c0.002,0.002 0.003,0.005 0.006,0.007c0.002,0.003 0.004,0.006 0.005,0.009l0.002,0.016l0.005,0.013c0.001,0.005 0.001,0.011 0.001,0.015c-0.001,0.005 -0.001,0.01 0,0.016l0.003,0.024c0,0.005 0,0.009 0.001,0.013l0.003,0.01Zm-0.14,-0.078c0.001,-0.001 0.001,-0.003 0.001,-0.007c-0.001,-0.003 -0.003,-0.005 -0.006,-0.006c-0.001,-0.005 -0.003,-0.008 -0.005,-0.009c-0.003,-0.001 -0.003,-0.002 -0.001,-0.005c-0.002,-0.002 -0.004,-0.004 -0.008,-0.005c-0.003,-0.001 -0.004,-0.004 -0.003,-0.008c-0.004,0.001 -0.006,0 -0.007,-0.002c-0.001,-0.002 -0.002,-0.004 -0.003,-0.005c-0.005,-0.003 -0.008,-0.006 -0.009,-0.009c-0.001,-0.004 -0.003,-0.006 -0.006,-0.008c-0.002,-0.001 -0.004,-0.002 -0.006,-0.001c-0.002,0.001 -0.004,0 -0.004,-0.004c-0.01,0.001 -0.018,-0.001 -0.024,-0.005c-0.005,-0.005 -0.01,-0.009 -0.016,-0.015c-0.006,0.002 -0.012,0.002 -0.019,0.001c-0.007,0 -0.014,0 -0.021,0c-0.005,-0.003 -0.01,-0.004 -0.014,-0.004c-0.004,0 -0.009,0 -0.015,-0.002c-0.003,-0.001 -0.004,-0.003 -0.004,-0.005c-0.001,-0.002 -0.002,-0.003 -0.006,-0.003c-0.004,0.002 -0.009,0.002 -0.013,0c-0.004,-0.002 -0.009,-0.004 -0.014,-0.004c-0.005,0.003 -0.011,0.005 -0.017,0.006c-0.006,0.001 -0.011,0.003 -0.017,0.005c-0.004,0.001 -0.007,0.004 -0.011,0.009c-0.004,0.005 -0.007,0.008 -0.009,0.01c-0.004,0.005 -0.009,0.011 -0.013,0.016c-0.005,0.005 -0.009,0.01 -0.013,0.015c0,0.004 0,0.007 -0.001,0.01c-0.001,0.002 -0.002,0.005 -0.001,0.008c-0.005,0.003 -0.008,0.008 -0.009,0.015c-0.002,0.007 -0.003,0.014 -0.005,0.02c0.005,0.001 0.01,0.001 0.016,0c0.006,-0.001 0.012,-0.001 0.018,-0.002c0.002,-0.001 0.004,-0.001 0.007,-0.001l0.006,0c0.01,-0.002 0.018,-0.003 0.025,-0.002c0.008,0 0.014,0 0.02,-0.001c0.007,0 0.013,0 0.019,-0.001c0.006,-0.001 0.012,0 0.017,0.002c0.007,-0.003 0.016,-0.004 0.025,-0.004c0.009,0.001 0.017,0.002 0.023,0.002c0.005,0 0.008,0 0.009,-0.001c0,0 0.001,0 0.002,0c0.019,-0.001 0.037,-0.001 0.056,0.002c0.018,0.002 0.037,0.002 0.056,-0.002Z" style="fill:rgb(69,186,1);fill-rule:nonzero;"/>        </g>        <g transform="matrix(40,0,0,40,239.227,171.094)">            <path d="M0.412,-0.433c-0.004,0.005 -0.006,0.007 -0.007,0.007c-0.001,0 -0.002,0.001 -0.004,0.002c-0.007,0.005 -0.012,0.007 -0.012,0.006c-0.006,-0.001 -0.009,-0.003 -0.011,-0.008c-0.002,-0.004 -0.006,-0.008 -0.011,-0.011c-0.003,0.002 -0.006,0.002 -0.01,0.001c-0.003,0 -0.006,0 -0.009,0c-0.004,0.001 -0.007,0.002 -0.009,0.003c-0.003,0.002 -0.006,0.003 -0.009,0.004c-0.009,0.004 -0.015,0.006 -0.018,0.008c-0.004,0.001 -0.007,0.003 -0.01,0.005l-0.013,0.016c-0.004,0.003 -0.008,0.006 -0.013,0.009c-0.005,0.003 -0.009,0.006 -0.012,0.009c-0.002,0.002 -0.003,0.005 -0.003,0.007c-0.001,0.003 -0.002,0.006 -0.004,0.009c-0.005,0.004 -0.007,0.006 -0.008,0.008c-0.001,0.001 -0.001,0.002 -0.002,0.003c-0.002,0.003 -0.003,0.005 -0.002,0.007c0,0.002 0,0.004 -0.001,0.005c-0.001,0.002 -0.002,0.004 -0.004,0.007c-0.002,0.003 -0.002,0.006 -0.001,0.01c-0.004,0.005 -0.006,0.009 -0.006,0.011c0,0.002 0,0.004 -0.001,0.005c-0.003,0.004 -0.005,0.006 -0.005,0.009c0,0.002 -0.001,0.004 -0.002,0.006c-0.004,0.006 -0.005,0.01 -0.005,0.013c0.001,0.003 0,0.006 0,0.009c-0.002,0.007 -0.003,0.012 -0.003,0.016c0,0.003 -0.001,0.007 -0.001,0.01c-0.001,0.004 -0.002,0.009 -0.003,0.013c-0.001,0.004 -0.003,0.009 -0.004,0.014c-0.001,0.004 -0.001,0.007 0,0.011c0.001,0.003 0,0.007 -0.001,0.012c0,0.002 0,0.004 -0.001,0.006c-0.001,0.002 -0.002,0.004 -0.002,0.007c-0.001,0.006 0,0.01 0.001,0.015c0.001,0.005 0,0.009 -0.005,0.013c0.002,0.004 0.003,0.009 0.004,0.017c0,0.007 -0.002,0.013 -0.005,0.016c0.003,0.007 0.004,0.015 0.004,0.023l-0.003,0.053c-0.001,0.008 0,0.017 0.002,0.025c0.001,0.004 0.004,0.007 0.009,0.007c0.004,0 0.008,0.002 0.012,0.004c0,0.002 0,0.004 0.002,0.006c0.002,0.001 0.003,0.004 0.004,0.007c0.001,0.005 0,0.009 -0.003,0.014c-0.004,0.004 -0.007,0.007 -0.01,0.008c-0.003,0.002 -0.005,0.002 -0.008,0.001c-0.003,-0.001 -0.007,-0.001 -0.012,0c-0.002,0.001 -0.005,0.002 -0.009,0.004c-0.003,0.001 -0.006,0.003 -0.009,0.004c-0.005,0.002 -0.012,0.004 -0.019,0.006c-0.007,0.001 -0.014,0.003 -0.021,0.004l-0.02,0.003c-0.004,0.001 -0.008,0.003 -0.012,0.004c-0.003,0.002 -0.007,0.002 -0.01,0.002c-0.007,-0.002 -0.011,-0.005 -0.014,-0.011c-0.003,-0.006 -0.004,-0.012 -0.004,-0.02c0,-0.003 0.001,-0.006 0.002,-0.009c0.001,-0.003 0.001,-0.006 0,-0.009c0,-0.003 0,-0.006 -0.001,-0.009c-0.001,-0.003 -0.002,-0.006 -0.003,-0.01c-0.001,-0.008 -0.001,-0.017 -0.001,-0.026c0.001,-0.008 0.001,-0.017 0.001,-0.026l0.002,-0.014c-0.001,-0.003 -0.001,-0.005 -0.002,-0.007c-0.001,-0.003 -0.001,-0.005 -0.001,-0.008c-0.001,-0.005 -0.002,-0.009 -0.003,-0.013c0,-0.004 -0.001,-0.009 -0.002,-0.015c0,-0.002 0,-0.004 0,-0.007c-0.001,-0.002 -0.001,-0.005 -0.001,-0.007c0,-0.004 0.001,-0.008 0.002,-0.012c0.001,-0.003 0.002,-0.007 0.002,-0.011c-0.001,-0.007 -0.001,-0.014 0,-0.02c0.001,-0.006 0.001,-0.011 0.001,-0.015l-0.005,-0.024l0.001,-0.012c-0.002,-0.009 -0.003,-0.016 -0.003,-0.021c0,-0.005 -0.001,-0.009 -0.002,-0.013c0,-0.007 0,-0.012 0.001,-0.015c0.001,-0.003 0.002,-0.006 0.002,-0.009c0.002,-0.007 0.002,-0.013 0.001,-0.02c-0.001,-0.007 -0.001,-0.014 -0.001,-0.02c0.001,-0.005 0.002,-0.01 0.004,-0.015c0.001,-0.004 0.002,-0.009 0.002,-0.014c0,-0.002 0,-0.004 0,-0.007c-0.001,-0.002 -0.001,-0.004 -0.001,-0.006l0.002,-0.013c0,-0.001 -0.001,-0.003 -0.002,-0.005c0,-0.002 -0.001,-0.005 -0.001,-0.006c-0.001,-0.005 -0.001,-0.009 0,-0.014c0.002,-0.004 0.002,-0.009 0.002,-0.014c0,-0.003 0,-0.006 -0.001,-0.01c0,-0.003 -0.001,-0.006 -0.002,-0.009c0,-0.002 0,-0.003 0.001,-0.006c0,-0.002 0,-0.004 -0.001,-0.005c-0.001,-0.007 -0.001,-0.012 0,-0.016c0.001,-0.004 0.001,-0.008 0.001,-0.012c0,-0.006 0,-0.01 -0.001,-0.015c0,-0.005 0.001,-0.009 0.003,-0.015c0,-0.003 -0.001,-0.006 -0.003,-0.008c-0.002,-0.002 -0.003,-0.005 -0.005,-0.007c0.003,-0.006 0.003,-0.011 0.002,-0.016c-0.002,-0.005 -0.002,-0.01 -0.001,-0.016c0.006,-0.005 0.011,-0.007 0.016,-0.006c0.005,0 0.009,0.001 0.011,0.004c0.002,0.003 0.004,0.005 0.007,0.007c0.007,0.002 0.013,0.003 0.019,0.002c0.006,-0.001 0.012,-0.002 0.02,-0.002l0.021,0.002c0.005,0 0.01,-0.002 0.014,-0.004c0.005,-0.002 0.011,-0.002 0.018,0c0.003,0.002 0.004,0.003 0.005,0.006c0,0.002 0.001,0.005 0.003,0.008c0.001,0.005 0.001,0.008 0.002,0.009c0.001,0.001 0.001,0.002 0.001,0.004c-0.001,0.006 -0.003,0.011 -0.004,0.016c-0.001,0.006 -0.001,0.011 0.001,0.018c0.004,0 0.007,-0.001 0.009,-0.004l0.017,-0.016c0.005,-0.004 0.008,-0.008 0.011,-0.01c0.002,-0.003 0.004,-0.005 0.006,-0.006c0.002,-0.002 0.004,-0.004 0.007,-0.005c0.003,-0.001 0.005,-0.003 0.006,-0.006c0.006,-0.001 0.012,-0.004 0.017,-0.007c0.006,-0.004 0.013,-0.004 0.02,-0.002c0.003,-0.003 0.008,-0.006 0.015,-0.008c0.007,-0.002 0.012,-0.002 0.016,0.002c0.013,0 0.023,-0.002 0.032,-0.005c0.01,-0.004 0.018,-0.005 0.026,-0.003c0.003,0 0.005,0.001 0.007,0.003c0.002,0.002 0.004,0.003 0.006,0.004c0.002,0.001 0.005,0.002 0.007,0.002c0.002,0.001 0.004,0.002 0.006,0.003c0.005,0.007 0.006,0.015 0.005,0.023c-0.002,0.008 -0.003,0.017 -0.004,0.025c0.001,0.008 0.001,0.014 0,0.018c-0.001,0.004 -0.001,0.007 -0.001,0.01c0,0.008 0,0.015 0.001,0.022c0.001,0.008 0.001,0.016 0.001,0.023Z" style="fill:rgb(69,186,1);fill-rule:nonzero;"/>        </g>        <g transform="matrix(40,0,0,40,256.375,171.094)">            <path d="M0.557,0.026c0,0.005 -0.002,0.009 -0.004,0.012c-0.003,0.003 -0.005,0.007 -0.006,0.01c-0.003,0.001 -0.007,0.001 -0.01,0.001c-0.003,0.001 -0.006,0 -0.01,0c-0.002,0 -0.005,-0.001 -0.007,-0.002c-0.002,-0.001 -0.005,-0.002 -0.007,-0.003c-0.004,-0.001 -0.006,-0.001 -0.009,-0.002c-0.002,0 -0.004,-0.001 -0.006,-0.003c-0.004,0.002 -0.007,0.003 -0.011,0.002c-0.003,-0.001 -0.007,0 -0.01,0.001l-0.019,0.009c-0.001,0.001 -0.004,0.002 -0.007,0.002c-0.008,0 -0.014,-0.003 -0.018,-0.008c-0.004,-0.005 -0.01,-0.009 -0.018,-0.011c-0.003,-0.004 -0.007,-0.007 -0.011,-0.011c-0.004,-0.004 -0.008,-0.007 -0.013,-0.01l-0.005,-0.01c-0.01,-0.009 -0.018,-0.017 -0.026,-0.024c-0.007,-0.007 -0.014,-0.013 -0.02,-0.019c-0.005,-0.005 -0.009,-0.01 -0.013,-0.015c-0.005,-0.004 -0.009,-0.01 -0.013,-0.016c-0.001,-0.002 -0.004,-0.004 -0.006,-0.005c-0.002,-0.001 -0.003,-0.004 -0.001,-0.007c-0.004,0 -0.006,-0.001 -0.008,-0.003c-0.001,-0.003 -0.003,-0.005 -0.006,-0.007c-0.003,-0.004 -0.006,-0.006 -0.009,-0.008c-0.002,-0.002 -0.003,-0.004 -0.003,-0.007c-0.007,-0.003 -0.012,-0.007 -0.016,-0.013c-0.003,-0.005 -0.008,-0.01 -0.015,-0.013c-0.001,-0.002 -0.001,-0.004 -0.002,-0.006c-0.001,-0.001 -0.003,-0.003 -0.004,-0.006c-0.003,-0.001 -0.006,-0.002 -0.007,-0.004c-0.002,-0.002 -0.005,-0.004 -0.009,-0.004c0,-0.004 -0.002,-0.006 -0.004,-0.007c-0.002,-0.001 -0.004,-0.003 -0.005,-0.004c-0.002,-0.001 -0.003,-0.003 -0.005,-0.005c-0.002,-0.002 -0.004,-0.003 -0.006,-0.004c-0.003,0.002 -0.004,0.005 -0.003,0.008c0.001,0.003 0.001,0.006 0.001,0.01c-0.001,0.008 -0.002,0.015 -0.001,0.019c0.001,0.005 -0.001,0.008 -0.005,0.01c0.001,0.009 0.003,0.019 0.004,0.03c0.001,0.011 0.001,0.023 0,0.036c-0.001,0.006 -0.001,0.011 0,0.014c0.001,0.003 0.001,0.005 0.001,0.007c-0.001,0.005 -0.001,0.009 0,0.011c0.001,0.002 0.001,0.003 0.001,0.004c0,0.004 0.001,0.007 0.002,0.009c0,0.002 0.001,0.004 0.001,0.004c0,0.005 0,0.008 0.001,0.011c0.001,0.002 0.002,0.004 0.003,0.006c-0.001,0.003 -0.003,0.006 -0.005,0.007c-0.002,0.002 -0.004,0.004 -0.005,0.008c0,0.003 0.001,0.006 0.003,0.007c0.002,0.002 0.004,0.003 0.005,0.004c0.003,0.007 0.003,0.014 0,0.019c-0.003,0.006 -0.007,0.01 -0.012,0.013c-0.011,0 -0.02,-0.001 -0.026,-0.005c-0.007,-0.004 -0.014,-0.008 -0.022,-0.01l-0.03,0c-0.009,0 -0.019,-0.001 -0.029,-0.003c-0.002,-0.003 -0.003,-0.006 -0.005,-0.008c-0.002,-0.003 -0.002,-0.006 -0.001,-0.012c0.001,-0.002 0.001,-0.004 0,-0.005c0,-0.002 0,-0.005 0,-0.008c0.001,-0.005 0.001,-0.008 0,-0.01c-0.001,-0.001 -0.001,-0.003 -0.001,-0.004c-0.002,-0.011 -0.002,-0.021 -0.001,-0.03c0.001,-0.009 0.003,-0.018 0.004,-0.03c0.001,-0.007 0.001,-0.012 0,-0.016c-0.001,-0.003 -0.001,-0.007 -0.002,-0.01l0.001,-0.019c-0.001,-0.004 -0.001,-0.007 0,-0.01c0.001,-0.002 0.002,-0.004 0.002,-0.005c0,-0.003 -0.001,-0.005 -0.002,-0.008c-0.001,-0.002 -0.002,-0.005 -0.003,-0.009c0,-0.002 0,-0.005 -0.001,-0.008c0,-0.004 0,-0.007 0,-0.009c0,-0.005 0,-0.011 0,-0.015c-0.001,-0.005 -0.001,-0.01 -0.001,-0.015c0,-0.007 0,-0.016 0.001,-0.027c0.001,-0.01 0.001,-0.02 0,-0.03c-0.001,-0.005 -0.002,-0.008 -0.001,-0.01c0,-0.002 0,-0.004 0,-0.006c0,-0.004 0,-0.009 -0.001,-0.015c-0.001,-0.007 0,-0.012 0.003,-0.015c0.001,-0.002 0,-0.004 -0.001,-0.006c0,-0.002 -0.001,-0.004 -0.001,-0.006c-0.001,-0.002 -0.001,-0.005 0,-0.009c0.001,-0.004 0.001,-0.007 0.002,-0.01c0,-0.002 0,-0.004 -0.001,-0.007c0,-0.002 0,-0.004 0.001,-0.006c-0.001,-0.005 0,-0.009 0.001,-0.013c0.001,-0.003 0.002,-0.007 0.003,-0.011c0,-0.004 0,-0.007 -0.001,-0.009c-0.001,-0.003 -0.001,-0.006 -0.001,-0.009l0.002,-0.014c0.001,-0.006 0.002,-0.011 0.002,-0.015c0,-0.004 -0.001,-0.007 -0.002,-0.01c-0.001,-0.003 -0.001,-0.006 -0.001,-0.009c0.001,-0.005 0.002,-0.009 0.002,-0.012c-0.001,-0.007 -0.002,-0.012 -0.002,-0.014l0,-0.007c-0.001,-0.001 -0.002,-0.003 -0.003,-0.005c-0.001,-0.003 -0.002,-0.005 -0.002,-0.008c0.001,-0.003 0.002,-0.008 0.001,-0.014c0,-0.006 -0.001,-0.01 -0.002,-0.011l0,-0.018c0,-0.004 0,-0.008 0.001,-0.012c0,-0.004 0,-0.006 0,-0.007l0.001,-0.038c-0.001,-0.007 -0.002,-0.013 -0.003,-0.019c-0.002,-0.007 -0.003,-0.013 -0.003,-0.019c0,-0.004 0.001,-0.008 0.002,-0.013c0.001,-0.004 0.001,-0.008 0.002,-0.012c0,-0.006 0,-0.01 -0.001,-0.012c-0.001,-0.002 -0.002,-0.004 -0.002,-0.005c-0.001,-0.003 -0.001,-0.006 -0.001,-0.009l0,-0.009c-0.001,-0.003 -0.001,-0.006 -0.002,-0.008c0,-0.003 -0.001,-0.005 -0.001,-0.008c0.002,-0.005 0.002,-0.011 0.001,-0.015c0,-0.004 0,-0.008 0.001,-0.011c-0.001,-0.003 -0.003,-0.003 -0.005,-0.001c-0.002,0.002 -0.004,0.002 -0.006,-0.001c-0.003,-0.008 -0.003,-0.014 -0.001,-0.017c0.002,-0.002 0.003,-0.006 0.001,-0.012c0.006,-0.002 0.011,-0.003 0.016,-0.003c0.004,-0.001 0.009,0 0.015,0.004c0.005,-0.002 0.01,-0.004 0.015,-0.006c0.006,-0.001 0.012,-0.001 0.019,0c0.001,-0.001 0.003,-0.001 0.004,-0.002c0.002,-0.001 0.004,-0.002 0.006,-0.003c0.009,0.001 0.017,0.002 0.024,0.002c0.007,0.001 0.016,0.001 0.027,0.001c0.003,0.001 0.005,0.003 0.006,0.006c0.002,0.002 0.003,0.005 0.005,0.007c-0.001,0.004 -0.001,0.008 -0.001,0.012c0.001,0.003 0.001,0.008 0.002,0.013c0.001,0.005 0.002,0.01 0.002,0.016c-0.003,0.007 -0.004,0.013 -0.004,0.018l0,0.011c-0.001,0.015 -0.001,0.027 0,0.037c0.001,0.01 0.002,0.02 0.003,0.029c0.001,0.004 0.002,0.008 0.003,0.015c0,0.006 0,0.011 0,0.017c0,0.004 0,0.007 -0.001,0.011c-0.001,0.003 -0.002,0.007 -0.001,0.01c0.001,0.007 0.003,0.013 0.005,0.02c0.003,0.006 0.003,0.012 0,0.017c0.002,0.005 0.004,0.01 0.006,0.017c0.002,0.006 0.001,0.012 -0.002,0.017c0.003,0.008 0.004,0.012 0.003,0.013c-0.001,0.001 -0.001,0.002 -0.001,0.003c0.003,0.004 0.004,0.01 0.003,0.018c-0.002,0.007 -0.003,0.015 -0.003,0.021c0.001,0.005 0.001,0.009 0.001,0.01c-0.001,0.002 -0.001,0.003 -0.001,0.005c0,0.003 0.001,0.006 0.002,0.01c0.002,0.004 0.002,0.007 0.001,0.011c0.004,-0.002 0.008,-0.005 0.011,-0.011c0.007,-0.005 0.013,-0.01 0.018,-0.016c0.004,-0.005 0.009,-0.011 0.014,-0.017c0.005,-0.003 0.009,-0.006 0.011,-0.008c0.002,-0.002 0.004,-0.004 0.005,-0.005c0.004,-0.005 0.007,-0.008 0.009,-0.008c0.001,-0.001 0.003,-0.002 0.004,-0.003c0.002,-0.001 0.003,-0.003 0.004,-0.004c0.001,-0.001 0.004,-0.001 0.008,-0.001c0.006,-0.004 0.011,-0.007 0.013,-0.01c0.002,-0.003 0.006,-0.005 0.01,-0.005c0.001,-0.005 0.004,-0.008 0.007,-0.01c0.002,-0.002 0.005,-0.005 0.006,-0.009c0.001,-0.002 0.002,-0.003 0.004,-0.004c0.001,-0.001 0.003,-0.001 0.006,-0.001c0.002,-0.003 0.006,-0.007 0.01,-0.011c0.004,-0.004 0.009,-0.008 0.013,-0.014c0.005,-0.005 0.009,-0.009 0.011,-0.012c0.002,-0.003 0.004,-0.005 0.007,-0.007c0.004,-0.003 0.007,-0.006 0.007,-0.007c0.001,-0.001 0.002,-0.003 0.003,-0.004c0.004,-0.003 0.008,-0.006 0.014,-0.01c0.006,-0.004 0.012,-0.002 0.02,0.004c0.005,-0.001 0.01,-0.001 0.017,0.001c0.006,0.002 0.012,0.004 0.017,0.005c0.004,0.001 0.009,0.002 0.013,0.003c0.004,0.001 0.007,0.003 0.009,0.007c0.011,-0.005 0.023,-0.004 0.036,0.001c0.002,0.003 0.003,0.007 0.005,0.01c0.001,0.004 0.002,0.009 0,0.016c-0.002,0.002 -0.003,0.003 -0.005,0.006c-0.002,0.002 -0.005,0.003 -0.009,0.003l-0.01,0.011c-0.004,0.002 -0.007,0.004 -0.009,0.006c-0.002,0.002 -0.004,0.005 -0.006,0.007l-0.013,0.007c-0.004,0.004 -0.007,0.007 -0.008,0.008c-0.001,0.001 -0.002,0.002 -0.002,0.003c-0.004,0.004 -0.006,0.006 -0.008,0.006c-0.002,0.001 -0.003,0.001 -0.003,0.002c-0.003,0.006 -0.007,0.012 -0.011,0.017c-0.004,0.005 -0.009,0.008 -0.014,0.01c-0.003,0.003 -0.006,0.007 -0.008,0.01c-0.003,0.004 -0.006,0.007 -0.009,0.009c-0.001,0.001 -0.003,0.002 -0.005,0.003c-0.002,0.001 -0.003,0.003 -0.005,0.007c-0.006,0.007 -0.011,0.012 -0.016,0.014c-0.005,0.003 -0.008,0.007 -0.01,0.012c-0.005,0.005 -0.009,0.009 -0.013,0.011c-0.005,0.002 -0.008,0.004 -0.012,0.007c-0.003,0.008 -0.007,0.014 -0.013,0.018c-0.006,0.005 -0.011,0.01 -0.016,0.015c-0.007,0.002 -0.011,0.005 -0.012,0.008c0,0.003 -0.001,0.006 -0.003,0.009c-0.002,0.002 -0.004,0.004 -0.006,0.006c-0.003,0.001 -0.005,0.003 -0.007,0.005l-0.009,0.01c0.003,0.008 0.007,0.014 0.012,0.018c0.005,0.005 0.009,0.011 0.012,0.018c0.006,0.005 0.013,0.01 0.019,0.014c0.007,0.004 0.013,0.008 0.02,0.014c0.005,0.003 0.009,0.006 0.013,0.01c0.003,0.003 0.005,0.006 0.007,0.009c0.001,0.003 0.003,0.006 0.006,0.009c0.002,0.003 0.004,0.006 0.006,0.008c0.003,0.002 0.004,0.005 0.006,0.008c0.005,0.003 0.009,0.007 0.013,0.011c0.004,0.004 0.008,0.008 0.012,0.013c0.003,0.002 0.007,0.005 0.01,0.009c0.003,0.003 0.006,0.008 0.008,0.012c0.005,0.003 0.011,0.006 0.015,0.01c0.004,0.005 0.008,0.009 0.012,0.014c0.004,0.004 0.008,0.009 0.012,0.013c0.004,0.005 0.008,0.008 0.014,0.011c0.002,0.006 0.004,0.011 0.008,0.015c0.004,0.003 0.008,0.006 0.013,0.01c0,0.005 0.002,0.009 0.004,0.013c0.002,0.003 0.003,0.007 0.005,0.011c0.007,0.004 0.012,0.009 0.014,0.013c0.003,0.004 0.006,0.007 0.011,0.008c0.001,0.005 0.003,0.008 0.007,0.01c-0.001,0.003 -0.001,0.006 -0.001,0.007c0.001,0.002 0.001,0.004 0.002,0.006c0.001,0.003 0.003,0.006 0.004,0.008c0.002,0.002 0.003,0.004 0.004,0.007Z" style="fill:rgb(69,186,1);fill-rule:nonzero;"/>        </g>        <g transform="matrix(40,0,0,40,278.836,171.094)">            <path d="M0.387,-0.155c-0.002,0.006 -0.003,0.011 -0.002,0.016c0,0.006 0,0.011 -0.001,0.016c-0.002,0.008 -0.003,0.013 -0.005,0.017c-0.001,0.004 -0.003,0.007 -0.005,0.01c-0.003,0.006 -0.005,0.011 -0.008,0.017c-0.002,0.007 -0.004,0.013 -0.006,0.02c-0.002,0.002 -0.004,0.003 -0.006,0.006c-0.002,0.002 -0.003,0.004 -0.005,0.007c-0.002,0.003 -0.003,0.005 -0.006,0.006c-0.002,0.002 -0.003,0.005 -0.004,0.008c-0.003,0 -0.006,0.002 -0.007,0.004c-0.002,0.002 -0.004,0.005 -0.006,0.007c-0.004,0.004 -0.008,0.007 -0.01,0.008c-0.002,0.001 -0.003,0.001 -0.005,0.001c-0.002,0.004 -0.004,0.006 -0.006,0.007c-0.002,0.001 -0.005,0.003 -0.007,0.004l-0.015,0.01c-0.001,0 -0.003,0.001 -0.005,0c-0.002,0 -0.004,0 -0.006,0.001c-0.007,0.003 -0.012,0.005 -0.017,0.005c-0.004,0 -0.008,0.001 -0.011,0.002c-0.005,0.001 -0.01,0.002 -0.015,0.003c-0.005,0.001 -0.011,0.001 -0.017,0c-0.009,-0.003 -0.015,-0.005 -0.018,-0.005c-0.002,0 -0.005,-0.001 -0.008,-0.002c-0.006,-0.002 -0.011,-0.004 -0.015,-0.006c-0.003,-0.001 -0.007,-0.002 -0.01,-0.003c-0.004,0.001 -0.006,0.001 -0.008,0c-0.001,-0.001 -0.002,-0.001 -0.004,-0.002c-0.003,-0.001 -0.006,-0.001 -0.009,-0.002l-0.016,-0.005c-0.002,-0.001 -0.004,-0.001 -0.007,-0.001c-0.002,-0.005 -0.008,-0.008 -0.017,-0.01c-0.002,-0.002 -0.003,-0.004 -0.005,-0.006c-0.001,-0.003 -0.003,-0.005 -0.005,-0.006c-0.001,-0.002 -0.003,-0.002 -0.006,-0.003c-0.003,0 -0.004,-0.002 -0.005,-0.005c-0.003,0.001 -0.004,0.001 -0.006,0c-0.001,-0.001 -0.003,-0.001 -0.005,-0.002c-0.002,-0.002 -0.005,-0.004 -0.006,-0.007c-0.002,-0.003 -0.006,-0.004 -0.01,-0.005c-0.002,-0.006 -0.004,-0.009 -0.008,-0.011c-0.003,-0.001 -0.006,-0.004 -0.008,-0.008c-0.001,-0.002 -0.001,-0.005 -0.001,-0.009l0,-0.008c0.001,-0.006 0.004,-0.013 0.01,-0.02l0.014,-0.016c0.003,-0.005 0.006,-0.009 0.008,-0.011c0.002,-0.002 0.004,-0.003 0.005,-0.005c0.002,-0.003 0.004,-0.006 0.004,-0.01c0.001,-0.004 0.002,-0.007 0.003,-0.009c0.003,-0.006 0.005,-0.01 0.004,-0.013c0,-0.003 0.001,-0.004 0.003,-0.006c0.006,-0.005 0.012,-0.008 0.017,-0.008c0.007,0 0.013,0.003 0.017,0.008c0.005,0.005 0.009,0.008 0.014,0.01c0.003,0.007 0.005,0.012 0.005,0.015c0,0.002 0,0.005 0.002,0.006c0.004,0.006 0.008,0.011 0.014,0.014c0.005,0.003 0.01,0.008 0.015,0.013c0.007,0.002 0.015,0.004 0.024,0.006c0.009,0.001 0.018,0.001 0.027,0c0.002,-0.001 0.005,-0.001 0.008,-0.001l0.005,0c0.005,-0.002 0.009,-0.004 0.012,-0.007c0.003,-0.003 0.006,-0.005 0.009,-0.006c0.001,-0.004 0.002,-0.007 0.003,-0.011c0.001,-0.003 0.002,-0.007 0.004,-0.01l0.002,-0.011c0.001,-0.005 0.002,-0.009 0.002,-0.012c0,-0.004 -0.001,-0.008 -0.003,-0.014c-0.004,-0.005 -0.006,-0.008 -0.006,-0.009c-0.001,-0.001 -0.001,-0.002 -0.002,-0.002c-0.005,-0.007 -0.011,-0.013 -0.017,-0.017c-0.006,-0.005 -0.011,-0.011 -0.014,-0.018c-0.004,-0.002 -0.007,-0.003 -0.011,-0.004c-0.003,-0.002 -0.006,-0.004 -0.007,-0.008c-0.007,-0.001 -0.014,-0.003 -0.02,-0.006c-0.006,-0.002 -0.013,-0.005 -0.02,-0.007c-0.002,-0.001 -0.004,-0.002 -0.006,-0.002c-0.003,0 -0.004,0 -0.006,-0.002c-0.002,-0.001 -0.003,-0.003 -0.005,-0.005c-0.002,-0.002 -0.004,-0.002 -0.007,-0.002c-0.002,-0.004 -0.004,-0.008 -0.008,-0.01c-0.004,-0.002 -0.007,-0.005 -0.009,-0.009c-0.003,0 -0.007,-0.001 -0.011,-0.002c-0.006,-0.002 -0.009,-0.004 -0.01,-0.005c-0.002,-0.001 -0.002,-0.001 -0.001,-0.002c-0.004,-0.001 -0.008,-0.004 -0.012,-0.007c-0.004,-0.003 -0.007,-0.006 -0.009,-0.009c-0.001,-0.005 -0.003,-0.009 -0.006,-0.012c-0.002,-0.003 -0.004,-0.005 -0.006,-0.008c-0.001,-0.003 -0.002,-0.007 -0.002,-0.01c0,-0.004 -0.003,-0.007 -0.006,-0.01c0.001,-0.003 0.001,-0.006 0,-0.009c-0.001,-0.004 -0.002,-0.007 -0.003,-0.01c-0.001,-0.003 -0.002,-0.005 -0.003,-0.008c-0.001,-0.003 -0.001,-0.005 -0.001,-0.008l0.003,-0.021c0,-0.005 0,-0.009 0,-0.014c0,-0.004 0,-0.009 0.001,-0.014c0,-0.005 0.001,-0.008 0.002,-0.01c0,-0.001 0.001,-0.003 0.002,-0.004c0.001,-0.006 0.001,-0.011 0.001,-0.014c0,-0.003 0.001,-0.007 0.002,-0.012c0.002,-0.003 0.003,-0.005 0.004,-0.007c0.002,-0.002 0.003,-0.004 0.005,-0.007c0.003,-0.005 0.006,-0.01 0.009,-0.016c0.004,-0.006 0.008,-0.01 0.014,-0.013c0.002,-0.007 0.005,-0.013 0.01,-0.017c0.006,-0.004 0.01,-0.009 0.013,-0.016c0.003,0 0.006,0 0.009,-0.002c0.002,-0.001 0.005,-0.002 0.008,-0.004c0.002,-0.002 0.006,-0.003 0.011,-0.004c0.005,-0.001 0.01,-0.002 0.014,-0.002c0.003,-0.001 0.006,-0.002 0.008,-0.004c0.002,-0.002 0.004,-0.003 0.006,-0.004c0.007,-0.002 0.011,-0.002 0.013,-0.002l0.006,0c0.008,-0.003 0.015,-0.005 0.022,-0.006c0.006,-0.001 0.013,-0.001 0.02,0c0.006,0.003 0.01,0.005 0.012,0.004c0.002,0 0.004,0 0.007,0.001l0.016,0.009c0.002,0.001 0.004,0.002 0.005,0.003c0.002,0.002 0.003,0.003 0.005,0.003l0.014,0.006c0.002,0.002 0.004,0.004 0.008,0.007c0.003,0.003 0.007,0.005 0.01,0.007c0.004,0.002 0.006,0.004 0.007,0.006c0.001,0.002 0.002,0.003 0.002,0.004c0.002,0.001 0.003,0.002 0.004,0.004c0.001,0.001 0.003,0.003 0.004,0.006c0.001,0.003 0.002,0.006 0.003,0.009c0.001,0.003 0.003,0.006 0.005,0.007c0.004,0.001 0.009,0.003 0.014,0.004c0.005,0.001 0.008,0.004 0.01,0.008c0.001,0.002 0.001,0.004 0,0.006c0,0.002 -0.001,0.004 -0.002,0.007c-0.002,0.008 -0.007,0.014 -0.014,0.021l-0.013,0.016c-0.006,0.008 -0.011,0.014 -0.015,0.019c-0.004,0.004 -0.008,0.008 -0.011,0.012c-0.01,0.005 -0.017,0.007 -0.02,0.005c-0.004,-0.001 -0.007,-0.004 -0.009,-0.007c-0.001,-0.003 -0.003,-0.005 -0.006,-0.006c-0.002,0 -0.003,-0.003 -0.002,-0.007c-0.003,0 -0.007,-0.002 -0.009,-0.004c-0.002,-0.003 -0.005,-0.005 -0.007,-0.008c-0.004,-0.003 -0.007,-0.006 -0.008,-0.006c-0.001,-0.001 -0.002,-0.002 -0.003,-0.002c-0.002,-0.002 -0.004,-0.003 -0.006,-0.004c-0.003,-0.001 -0.005,-0.002 -0.009,-0.003c-0.008,-0.003 -0.015,-0.006 -0.02,-0.007c-0.004,0 -0.009,-0.002 -0.012,-0.005c-0.004,0.003 -0.008,0.005 -0.011,0.005c-0.004,0.001 -0.008,0.002 -0.011,0.004c-0.002,0.001 -0.003,0.004 -0.006,0.008c-0.002,0.004 -0.004,0.008 -0.005,0.013c-0.001,0.005 -0.002,0.01 -0.002,0.015c-0.001,0.004 0,0.009 0.002,0.013c0.003,0.006 0.005,0.009 0.006,0.011c0.001,0.002 0.003,0.004 0.006,0.007c0.009,0.005 0.017,0.01 0.024,0.014c0.007,0.005 0.014,0.008 0.019,0.011c0,0.003 0.002,0.006 0.004,0.008c0.002,0.002 0.004,0.005 0.004,0.008c0.006,0.004 0.011,0.006 0.013,0.007c0.003,0.001 0.005,0.002 0.008,0.003c0.006,0.003 0.01,0.007 0.012,0.01c0.003,0.004 0.005,0.006 0.008,0.008c0.002,0.001 0.005,0.002 0.007,0.003c0.002,0 0.004,0.002 0.006,0.003c0.009,0.005 0.018,0.013 0.027,0.023c0.003,-0.001 0.005,0 0.007,0.001c0.002,0.002 0.003,0.003 0.004,0.005c0.004,0.002 0.006,0.003 0.008,0.005c0.002,0.001 0.004,0.003 0.007,0.007c0.002,0.003 0.006,0.007 0.014,0.01c0.003,0.007 0.007,0.013 0.011,0.018c0.005,0.005 0.009,0.011 0.012,0.016l0,0.007c0,0.002 -0.001,0.004 -0.002,0.005c0.005,0.003 0.007,0.008 0.007,0.013c0,0.005 0.001,0.011 0.002,0.016c0.001,0.005 0.003,0.009 0.006,0.014c0.003,0.004 0.004,0.01 0.002,0.017Z" style="fill:rgb(69,186,1);fill-rule:nonzero;"/>        </g>    </g></svg>