<?xml version="1.0" encoding="UTF-8" standalone="no"?><!DOCTYPE svg PUBLIC "-//W3C//DTD SVG 1.1//EN" "http://www.w3.org/Graphics/SVG/1.1/DTD/svg11.dtd"><svg width="100%" height="100%" viewBox="0 0 1024 512" version="1.1" xmlns="http://www.w3.org/2000/svg" xmlns:xlink="http://www.w3.org/1999/xlink" xml:space="preserve" style="fill-rule:evenodd;clip-rule:evenodd;stroke-linejoin:round;stroke-miterlimit:2;"><title>VentureFounders</title><desc>VentureFounders is one of the UK's leading Venture Capital platforms for HNW, UHNW and Family offices to access B2B and B2B2C scale-up technology businesses.VentureFounders is a UK-based equity investment platform designed to make angel and venture capital-style investing more accessible, affordable and transparent. We believe that this market should be open to all who can afford it, as long as they understand the risks associated with early-stage investment.</desc>    <g transform="matrix(8.7438,0,0,8.7438,-6017.1,-567.094)">        <g transform="matrix(1,0,0,1,694.869,103.271)">            <path d="M0,-8.135l-2.626,6.414l-2.638,-6.414l-1.22,0l3.405,8.135l0.906,0l3.393,-8.135l-1.22,0Z" style="fill:rgb(169,148,122);fill-rule:nonzero;"/>        </g>        <g transform="matrix(1,0,0,1,701.948,98.8192)">            <path d="M0,0.768l-3.824,0l0,2.637l4.777,0l0,1.047l-5.904,0l0,-8.136l5.799,0l0,1.058l-4.672,0l0,2.336l3.824,0l0,1.058Z" style="fill:rgb(169,148,122);fill-rule:nonzero;"/>        </g>        <g transform="matrix(1,0,0,1,709.897,95.135)">            <path d="M0,8.136l-4.998,-6.252l0,6.252l-1.127,0l0,-8.136l1.034,0l4.951,6.184l0,-6.184l1.116,0l0,8.136l-0.976,0Z" style="fill:rgb(169,148,122);fill-rule:nonzero;"/>        </g>        <g transform="matrix(1,0,0,1,714.697,95.135)">            <path d="M0,8.136l0,-7.078l-2.964,0l0,-1.058l7.032,0l0,1.058l-2.941,0l0,7.078l-1.127,0Z" style="fill:rgb(169,148,122);fill-rule:nonzero;"/>        </g>        <g transform="matrix(1,0,0,1,726.389,97.6349)">            <path d="M0,3.254c0,1.487 -1,2.499 -2.546,2.499l-1.568,0c-1.406,0 -2.662,-0.872 -2.662,-2.499l0,-5.753l1.127,0l0,5.753c0,0.93 0.686,1.441 1.535,1.441l1.568,0c0.896,0 1.407,-0.582 1.407,-1.441l0,-5.753l1.139,0l0,5.753Z" style="fill:rgb(169,148,122);fill-rule:nonzero;"/>        </g>        <g transform="matrix(1,0,0,1,728.644,102.214)">            <path d="M0,-6.021l0,2.511l2.881,0c0.849,0 1.314,-0.419 1.314,-1.024l0,-0.429c0,-0.766 -0.5,-1.058 -1.314,-1.058l-2.881,0Zm5.543,7.078l-1.314,0l-2.289,-3.523l-1.94,0l0,3.523l-1.105,0l0,-8.135l3.986,0c1.488,0 2.418,0.616 2.418,2.115l0,0.429c0,1.222 -0.941,2.034 -2.127,2.034c0.79,1.186 1.593,2.37 2.371,3.557" style="fill:rgb(169,148,122);fill-rule:nonzero;"/>        </g>        <g transform="matrix(1,0,0,1,739.905,98.8192)">            <path d="M0,0.768l-3.823,0l0,2.637l4.776,0l0,1.047l-5.904,0l0,-8.136l5.799,0l0,1.058l-4.671,0l0,2.336l3.823,0l0,1.058Z" style="fill:rgb(169,148,122);fill-rule:nonzero;"/>        </g>        <g transform="matrix(1,0,0,1,689.385,104.654)">            <path d="M0,8.137l0,-8.137l5.707,0l0,1.059l-4.568,0l0,2.336l3.812,0l0,1.057l-3.812,0l0,3.685l-1.139,0Z" style="fill:rgb(40,40,39);fill-rule:nonzero;"/>        </g>        <g transform="matrix(1,0,0,1,698.973,111.839)">            <path d="M0,-6.243c-1.372,0 -2.208,0.511 -2.208,1.837l0,2.626c0,1.046 0.79,1.778 2.208,1.778l0.605,0c1.417,0 2.196,-0.732 2.196,-1.778l0,-2.626c0,-1.326 -0.826,-1.837 -2.196,-1.837l-0.605,0Zm0.605,-1.056c2.033,0 3.335,0.8 3.335,2.893l0,2.626c0,1.685 -1.233,2.836 -3.335,2.836l-0.605,0c-2.115,0 -3.336,-1.151 -3.336,-2.836l0,-2.626c0,-2.093 1.29,-2.893 3.336,-2.893l0.605,0Z" style="fill:rgb(40,40,39);fill-rule:nonzero;"/>        </g>        <g transform="matrix(1,0,0,1,710.734,107.152)">            <path d="M0,3.256c0,1.487 -0.999,2.498 -2.545,2.498l-1.569,0c-1.406,0 -2.661,-0.871 -2.661,-2.498l0,-5.754l1.127,0l0,5.754c0,0.931 0.686,1.44 1.534,1.44l1.569,0c0.895,0 1.406,-0.581 1.406,-1.44l0,-5.754l1.139,0l0,5.754Z" style="fill:rgb(40,40,39);fill-rule:nonzero;"/>        </g>        <g transform="matrix(1,0,0,1,718.009,104.654)">            <path d="M0,8.137l-4.998,-6.253l0,6.253l-1.126,0l0,-8.137l1.034,0l4.951,6.183l0,-6.183l1.115,0l0,8.137l-0.976,0Z" style="fill:rgb(40,40,39);fill-rule:nonzero;"/>        </g>        <g transform="matrix(1,0,0,1,721.299,105.702)">            <path d="M0,6.041l2.244,0c1.417,0 2.196,-0.721 2.196,-1.777l0,-2.429c0,-1.325 -0.826,-1.825 -2.196,-1.825l-2.244,0l0,6.031Zm-1.127,-7.089l3.371,0c2.033,0 3.334,0.803 3.334,2.883l0,2.429c0,1.685 -1.232,2.825 -3.334,2.825l-3.371,0l0,-8.137Z" style="fill:rgb(40,40,39);fill-rule:nonzero;"/>        </g>        <g transform="matrix(1,0,0,1,732.897,108.339)">            <path d="M0,0.767l-3.823,0l0,2.637l4.776,0l0,1.048l-5.904,0l0,-8.137l5.799,0l0,1.059l-4.671,0l0,2.336l3.823,0l0,1.057Z" style="fill:rgb(40,40,39);fill-rule:nonzero;"/>        </g>        <g transform="matrix(1,0,0,1,735.826,111.733)">            <path d="M0,-6.02l0,2.511l2.882,0c0.848,0 1.313,-0.42 1.313,-1.024l0,-0.43c0,-0.767 -0.499,-1.057 -1.313,-1.057l-2.882,0Zm5.543,7.078l-1.313,0l-2.29,-3.523l-1.94,0l0,3.523l-1.105,0l0,-8.136l3.987,0c1.488,0 2.418,0.616 2.418,2.115l0,0.43c0,1.22 -0.942,2.034 -2.128,2.034c0.791,1.186 1.593,2.371 2.371,3.557" style="fill:rgb(40,40,39);fill-rule:nonzero;"/>        </g>        <g transform="matrix(1,0,0,1,742.95,107.211)">            <path d="M0,3.023c0,1.196 0.802,1.614 2.115,1.614l0.267,0c1.361,0 2.057,-0.441 2.057,-1.532c0,-1.779 -5.369,-0.442 -5.369,-3.558c0,-1.544 1.139,-2.208 2.963,-2.208l0.28,0c1.778,0 2.917,0.756 2.975,2.511l-1.128,0c-0.046,-1.046 -0.766,-1.465 -1.859,-1.465l-0.268,0c-1.138,0 -1.824,0.302 -1.824,1.162c0,0.953 1.058,1.093 2.302,1.29c1.94,0.326 3.068,0.686 3.068,2.268c0,1.847 -1.104,2.579 -3.197,2.579l-0.267,0c-1.975,-0.012 -3.22,-0.674 -3.22,-2.661l1.105,0Z" style="fill:rgb(40,40,39);fill-rule:nonzero;"/>        </g>        <g transform="matrix(0.114367,0,0,0.114367,688.047,60.0583)">            <path d="M844.925,462.095l-178.609,-328.277l-57.779,0l178.233,328.277l58.155,0Z" style="fill:rgb(169,148,122);fill-rule:nonzero;"/>        </g>        <g transform="matrix(0.114367,0,0,0.114367,688.047,60.0583)">            <path d="M995.163,184.908l27.797,-51.09l-271.775,0l27.796,51.09l216.182,0Z" style="fill:rgb(40,40,39);fill-rule:nonzero;"/>        </g>        <g transform="matrix(0.477914,-0.878406,-0.878406,-0.477914,793.931,91.7874)">            <path d="M-4.606,-1.907l6.652,0l-6.773,12.449l-3.613,-5.585l3.734,-6.864Z" style="fill:rgb(40,40,39);fill-rule:nonzero;"/>        </g>    </g></svg>