<?xml version="1.0" encoding="UTF-8" standalone="no"?><!DOCTYPE svg PUBLIC "-//W3C//DTD SVG 1.1//EN" "http://www.w3.org/Graphics/SVG/1.1/DTD/svg11.dtd"><svg width="100%" height="100%" viewBox="0 0 1024 512" version="1.1" xmlns="http://www.w3.org/2000/svg" xmlns:xlink="http://www.w3.org/1999/xlink" xml:space="preserve" style="fill-rule:evenodd;clip-rule:evenodd;stroke-linejoin:round;stroke-miterlimit:2;"><title>Blockimmo</title><desc>Blockimmo is a blockchain powered platform, our ecosystem enables shared property investments and ownership. Properties are officially and legally represented as asset-backed tokens on the Ethereum blockchain. Their legitimacy is guaranteed by our legal framework which works in-sync with our technology.</desc>    <g id="Ebene-1" transform="matrix(2.3669,0,0,2.3669,-40.1041,116.166)">        <g transform="matrix(1,0,0,1,110.016,51.0252)">            <path d="M0,21.159c3.347,0 5.364,-1.181 5.364,-3.74l0,-0.098c0,-2.313 -1.722,-3.74 -5.61,-3.74l-8.758,0l0,7.578l9.004,0Zm-2.018,-13.876c3.347,0 5.463,-1.082 5.463,-3.642l0,-0.099c0,-2.262 -1.771,-3.541 -4.969,-3.541l-7.48,0l0,7.282l6.986,0Zm-14.368,-13.926l15.992,0c3.938,0 7.038,1.084 9.005,3.051c1.576,1.576 2.363,3.495 2.363,5.856l0,0.099c0,3.886 -2.068,6.051 -4.528,7.43c3.986,1.525 6.447,3.838 6.447,8.462l0,0.099c0,6.298 -5.118,9.448 -12.893,9.448l-16.386,0l0,-34.445Z" style="fill:rgb(11,134,135);fill-rule:nonzero;"/>        </g>        <g transform="matrix(1,0,0,1,134.001,78.7884)">            <path d="M0,-34.406l7.428,4.237l0.15,23.318l17.173,0l0.001,6.851l-24.752,0l0,-34.406Z" style="fill:rgb(11,134,135);fill-rule:nonzero;"/>        </g>        <g transform="matrix(1,0,0,1,194.033,61.5042)">            <path d="M0,0.2l0,-0.099c0,-5.904 -4.33,-10.826 -10.432,-10.826c-6.101,0 -10.334,4.823 -10.334,10.728l0,0.098c0,5.905 4.331,10.824 10.433,10.824c6.102,0 10.333,-4.821 10.333,-10.725m-28.687,0l0,-0.099c0,-9.793 7.725,-17.814 18.354,-17.814c10.628,0 18.255,7.923 18.255,17.716l0,0.098c0,9.791 -7.726,17.812 -18.354,17.812c-10.628,0 -18.255,-7.922 -18.255,-17.713" style="fill:rgb(11,134,135);fill-rule:nonzero;"/>        </g>        <g transform="matrix(1,0,0,1,235.962,70.1092)">            <path d="M0,-17.01l-0.064,-0.047c-1.856,-1.36 -4.339,-2.273 -6.746,-2.273c-5.805,0 -9.989,4.823 -9.989,10.728l0,0.098c0,5.905 4.085,10.824 9.989,10.824c3.936,0 6.348,-1.573 9.054,-4.033l4.822,4.872c-3.543,3.788 -7.479,6.149 -14.122,6.149c-10.135,0 -17.665,-7.823 -17.665,-17.713l0,-0.099c0,-9.793 7.381,-17.814 17.96,-17.814c6.496,0 10.382,2.167 13.581,5.316l-6.82,3.992Z" style="fill:rgb(11,134,135);fill-rule:nonzero;"/>        </g>        <g transform="matrix(1,0,0,1,253.812,78.8264)">            <path d="M0,-34.444l7.506,4.388l0.072,10.669l13.975,-15.057l9.152,0l-14.023,14.615l14.662,19.829l-9.103,0l-10.678,-14.662l-3.985,4.134l0,10.528l-7.578,0l0,-34.444Z" style="fill:rgb(11,134,135);fill-rule:nonzero;"/>        </g>        <g transform="matrix(1,0,0,1,295.518,78.8264)">            <rect x="0" y="-34.444" width="7.531" height="34.412" style="fill:rgb(199,188,139);"/>        </g>        <g transform="matrix(1,0,0,1,334.019,52.1813)">            <path d="M0,18.872l-9.596,-14.566l-0.013,22.307l-7.417,0.032l0,-34.444l8.169,0l9.053,14.567l9.055,-14.567l8.167,0l-0.029,34.47l-7.499,-0.026l0,-22.486l-9.89,14.713Z" style="fill:rgb(199,188,139);fill-rule:nonzero;"/>        </g>        <g transform="matrix(1,0,0,1,365.651,78.8524)">            <path d="M0,-34.47l8.168,0l9.054,14.566l9.054,-14.566l8.169,0l0.08,34.47l-7.609,-0.026l0,-22.486l-9.694,14.713l-0.196,0l-9.595,-14.567l0.006,22.25l-7.437,0.09l0,-34.444Z" style="fill:rgb(199,188,139);fill-rule:nonzero;"/>        </g>        <g transform="matrix(1,0,0,1,440.809,61.5042)">            <path d="M0,0.2l0,-0.099c0,-5.904 -4.33,-10.826 -10.432,-10.826c-6.1,0 -10.333,4.823 -10.333,10.728l0,0.098c0,5.905 4.33,10.824 10.432,10.824c6.102,0 10.333,-4.821 10.333,-10.725m-28.687,0l0,-0.099c0,-9.793 7.725,-17.814 18.354,-17.814c10.629,0 18.255,7.923 18.255,17.716l0,0.098c0,9.791 -7.725,17.812 -18.354,17.812c-10.629,0 -18.255,-7.922 -18.255,-17.713" style="fill:rgb(199,188,139);fill-rule:nonzero;"/>        </g>        <g transform="matrix(1,0,0,1,32.9794,76.5045)">            <path d="M0,-45.001l-9.577,5.162l0.004,34.87l9.571,4.969l8.724,-3.109l0.004,-38.105l-8.726,-3.787Zm0.035,0.833l7.941,3.446l-0.004,37.084l-7.918,2.822l-8.877,-4.609l-0.004,-33.966l8.862,-4.777Z" style="fill:rgb(66,185,190);fill-rule:nonzero;"/>        </g>        <g transform="matrix(1,0,0,1,24.6937,86.9037)">            <path d="M0,-45.908l-6.905,3.464l0.002,37.376l6.903,5.068l9.073,-3.774l-0.001,-38.837l-9.072,-3.297Zm0.047,0.815l8.275,3.008l0.001,37.811l-8.22,3.419l-6.256,-4.593l-0.002,-36.533l6.202,-3.112Z" style="fill:rgb(66,185,190);fill-rule:nonzero;"/>        </g>        <g transform="matrix(1,0,0,1,65.0077,85.6608)">            <path d="M0,-47.379l-7.869,3.132l0,40.708l7.869,3.539l10.484,-6.485l0,-35.852l-10.484,-5.042Zm-0.028,0.818l9.762,4.695l0,34.963l-9.79,6.055l-7.063,-3.177l0,-39.713l7.091,-2.823Z" style="fill:rgb(66,185,190);fill-rule:nonzero;"/>        </g>        <g transform="matrix(1,0,0,1,67.9481,76.7264)">            <path d="M0,-47.698l-6.059,2.681l0,42.842l6.058,2.175l9.946,-5.202l-0.002,-36.944l-9.943,-5.552Zm-0.038,0.837l9.231,5.155l0.002,36.05l-9.253,4.838l-5.251,-1.885l0,-41.826l5.271,-2.332Z" style="fill:rgb(66,185,190);fill-rule:nonzero;"/>        </g>        <g transform="matrix(1,0,0,1,43.5663,86.2474)">            <path d="M0,-38.388l-8.256,3.275l-0.005,30.412l8.263,4.701l3.903,-1.922l0,-35.047l-3.905,-1.419Zm0.012,0.802l3.143,1.143l0,34.055l-3.128,1.54l-7.538,-4.29l0.005,-29.466l7.518,-2.982Z" style="fill:rgb(66,185,190);fill-rule:nonzero;"/>        </g>        <g transform="matrix(1,0,0,1,55.2626,98.1548)">            <path d="M0,-77.809l-9.263,4.949l0.014,67.112l9.249,5.748l7.372,-5.1l0,-68.521l-7.372,-4.188Zm-0.011,0.856l6.633,3.769l0,67.691l-6.643,4.597l-8.478,-5.269l-0.014,-66.246l8.502,-4.542Z" style="fill:rgb(66,185,190);fill-rule:nonzero;"/>        </g>        <g transform="matrix(1,0,0,1,49.2411,86.5633)">            <path d="M0,-76.884l-9.963,6.2l-0.003,65.328l9.966,5.356l9.744,-5.117l-0.001,-65.775l-9.743,-5.992Zm0.002,0.882l8.991,5.529l0.001,64.902l-8.99,4.721l-9.22,-4.954l0.003,-64.463l9.215,-5.735Z" style="fill:rgb(66,185,190);fill-rule:nonzero;"/>        </g>        <g transform="matrix(1,0,0,1,50.3402,108.478)">            <path d="M0,-80.759l-11.065,5.584l0,66.756l11.013,8.419l7.09,-5.427l0,-71.758l-7.038,-3.574Zm-0.001,0.84l6.289,3.194l0,70.928l-6.341,4.853l-10.262,-7.845l0,-65.924l10.314,-5.206Z" style="fill:rgb(66,185,190);fill-rule:nonzero;"/>        </g>        <g transform="matrix(40.3785,-14.3852,-14.3852,-40.3785,17.1021,61.1206)">            <path d="M0.228,-0.462l0.216,0l0.299,0.837l-0.162,0.152l-0.353,-0.989Z" style="fill:url(#_Linear1);fill-rule:nonzero;"/>        </g>        <g transform="matrix(33.2844,-16.3992,-16.3992,-33.2844,28.9468,75.2193)">            <path d="M0.222,-0.441l0.117,0l0.418,0.847l-0.078,0.081l-0.457,-0.928Z" style="fill:url(#_Linear2);fill-rule:nonzero;"/>        </g>        <g transform="matrix(61.9489,-42.8566,-42.8566,-61.9489,30.3557,79.0311)">            <path d="M0.127,-0.397l0.119,0l0.518,0.748l-0.049,0.102l-0.588,-0.85Z" style="fill:url(#_Linear3);fill-rule:nonzero;"/>        </g>        <g transform="matrix(47.9306,-29.6526,-29.6526,-47.9306,42.8881,78.899)">            <path d="M0.271,-0.309l0.218,0l0.335,0.541l-0.111,0.174l-0.442,-0.715Z" style="fill:url(#_Linear4);fill-rule:nonzero;"/>        </g>    </g>    <defs>        <linearGradient id="_Linear1" x1="0" y1="0" x2="1" y2="0" gradientUnits="userSpaceOnUse" gradientTransform="matrix(-0.318098,-0.948058,-0.948058,0.318098,0.659476,0.474336)"><stop offset="0" style="stop-color:rgb(210,203,140);stop-opacity:1"/><stop offset="1" style="stop-color:rgb(67,182,163);stop-opacity:1"/></linearGradient>        <linearGradient id="_Linear2" x1="0" y1="0" x2="1" y2="0" gradientUnits="userSpaceOnUse" gradientTransform="matrix(-0.441966,-0.897032,-0.897032,0.441966,0.717969,0.446641)"><stop offset="0" style="stop-color:rgb(210,203,140);stop-opacity:1"/><stop offset="1" style="stop-color:rgb(197,155,108);stop-opacity:1"/></linearGradient>        <linearGradient id="_Linear3" x1="0" y1="0" x2="1" y2="0" gradientUnits="userSpaceOnUse" gradientTransform="matrix(-0.568932,-0.822385,-0.822385,0.568932,0.724152,0.379578)"><stop offset="0" style="stop-color:rgb(0,154,139);stop-opacity:1"/><stop offset="1" style="stop-color:rgb(1,104,102);stop-opacity:1"/></linearGradient>        <linearGradient id="_Linear4" x1="0" y1="0" x2="1" y2="0" gradientUnits="userSpaceOnUse" gradientTransform="matrix(-0.526114,-0.850414,-0.850414,0.526114,0.871201,0.485469)"><stop offset="0" style="stop-color:rgb(210,203,140);stop-opacity:1"/><stop offset="1" style="stop-color:rgb(197,155,108);stop-opacity:1"/></linearGradient>    </defs></svg>