<?xml version="1.0" encoding="UTF-8" standalone="no"?><!DOCTYPE svg PUBLIC "-//W3C//DTD SVG 1.1//EN" "http://www.w3.org/Graphics/SVG/1.1/DTD/svg11.dtd"><svg width="100%" height="100%" viewBox="0 0 1024 512" version="1.1" xmlns="http://www.w3.org/2000/svg" xmlns:xlink="http://www.w3.org/1999/xlink" xml:space="preserve" style="fill-rule:evenodd;clip-rule:evenodd;stroke-linejoin:round;stroke-miterlimit:2;"><title>CrowdProperty</title><desc>CrowdProperty is the UK's leading specialist property project online lending platform, exceptionally efficiently matching the demand and supply of capital for value-creating property projects, delivering a better deal for all – borrowers, lenders, the under-supplied UK housing environment and spend in the UK economy.CrowdProperty funds property professionals undertaking any sort of property project (including auction purchases and bridging), structuring the perfect funding product and doing so with greater speed, ease, certainty and expertise than anyone in the market. As property people providing property finance, we intimately understand the market needs. </desc>    <g transform="matrix(0.963534,0,0,0.963534,-38.6257,29.1782)">        <g transform="matrix(1.64308,0,0,1.64308,-27.6392,-52.9921)">            <g transform="matrix(60,0,0,60,119.101,208.86)">                <path d="M0.406,0.012c0.104,0 0.2,-0.045 0.267,-0.115l-0.107,-0.096c-0.04,0.046 -0.097,0.077 -0.16,0.077c-0.115,0 -0.213,-0.102 -0.213,-0.222c0,-0.119 0.098,-0.221 0.213,-0.221c0.063,0 0.12,0.031 0.16,0.077l0.107,-0.096c-0.067,-0.071 -0.163,-0.115 -0.267,-0.115c-0.197,0 -0.365,0.162 -0.365,0.355c0,0.193 0.168,0.356 0.365,0.356Z" style="fill:rgb(21,35,41);fill-rule:nonzero;"/>            </g>            <g transform="matrix(60,0,0,60,160.861,208.86)">                <path d="M0.649,0l-0.169,-0.24c0.094,-0.033 0.156,-0.113 0.156,-0.215c0,-0.136 -0.11,-0.232 -0.259,-0.232l-0.309,0l0,0.687l0.147,0l0,-0.223l0.109,0l0.157,0.223l0.168,0Zm-0.434,-0.552l0.146,0c0.073,0 0.123,0.038 0.123,0.097c0,0.059 -0.05,0.097 -0.123,0.097l-0.146,0l0,-0.194Z" style="fill:rgb(21,35,41);fill-rule:nonzero;"/>            </g>            <g transform="matrix(60,0,0,60,201.541,208.86)">                <path d="M0.406,0.012c0.199,0 0.365,-0.163 0.365,-0.356c0,-0.193 -0.166,-0.355 -0.365,-0.355c-0.197,0 -0.365,0.162 -0.365,0.355c0,0.193 0.168,0.356 0.365,0.356Zm0,-0.134c-0.115,0 -0.213,-0.102 -0.213,-0.222c0,-0.119 0.098,-0.221 0.213,-0.221c0.116,0 0.214,0.102 0.214,0.221c0,0.12 -0.098,0.222 -0.214,0.222Z" style="fill:rgb(21,35,41);fill-rule:nonzero;"/>            </g>            <g transform="matrix(60,0,0,60,248.941,208.86)">                <path d="M0.228,0l0.149,0l0.163,-0.472l0.162,0.472l0.148,0l0.208,-0.687l-0.16,0l-0.127,0.461l-0.152,-0.461l-0.16,0l-0.152,0.461l-0.127,-0.461l-0.16,0l0.208,0.687Z" style="fill:rgb(21,35,41);fill-rule:nonzero;"/>            </g>            <g transform="matrix(60,0,0,60,313.621,208.86)">                <path d="M0.074,0l0.246,0c0.231,0 0.395,-0.143 0.395,-0.344c0,-0.201 -0.164,-0.343 -0.395,-0.343l-0.246,0l0,0.687Zm0.147,-0.134l0,-0.419l0.118,0c0.131,0 0.224,0.087 0.224,0.209c0,0.123 -0.093,0.21 -0.224,0.21l-0.118,0Z" style="fill:rgb(21,35,41);fill-rule:nonzero;"/>            </g>            <g transform="matrix(60,0,0,60,359.281,208.86)">                <path d="M0.068,0l0.147,0l0,-0.223l0.162,0c0.149,0 0.259,-0.096 0.259,-0.232c0,-0.136 -0.11,-0.232 -0.259,-0.232l-0.309,0l0,0.687Zm0.147,-0.358l0,-0.194l0.146,0c0.073,0 0.123,0.038 0.123,0.097c0,0.059 -0.05,0.097 -0.123,0.097l-0.146,0Z" style="fill:rgb(86,183,147);fill-rule:nonzero;"/>            </g>            <g transform="matrix(60,0,0,60,398.881,208.86)">                <path d="M0.649,0l-0.169,-0.24c0.094,-0.033 0.156,-0.113 0.156,-0.215c0,-0.136 -0.11,-0.232 -0.259,-0.232l-0.309,0l0,0.687l0.147,0l0,-0.223l0.109,0l0.157,0.223l0.168,0Zm-0.434,-0.552l0.146,0c0.073,0 0.123,0.038 0.123,0.097c0,0.059 -0.05,0.097 -0.123,0.097l-0.146,0l0,-0.194Z" style="fill:rgb(86,183,147);fill-rule:nonzero;"/>            </g>            <g transform="matrix(60,0,0,60,439.561,208.86)">                <path d="M0.406,0.012c0.199,0 0.365,-0.163 0.365,-0.356c0,-0.193 -0.166,-0.355 -0.365,-0.355c-0.197,0 -0.365,0.162 -0.365,0.355c0,0.193 0.168,0.356 0.365,0.356Zm0,-0.134c-0.115,0 -0.213,-0.102 -0.213,-0.222c0,-0.119 0.098,-0.221 0.213,-0.221c0.116,0 0.214,0.102 0.214,0.221c0,0.12 -0.098,0.222 -0.214,0.222Z" style="fill:rgb(86,183,147);fill-rule:nonzero;"/>            </g>            <g transform="matrix(60,0,0,60,488.281,208.86)">                <path d="M0.068,0l0.147,0l0,-0.223l0.162,0c0.149,0 0.259,-0.096 0.259,-0.232c0,-0.136 -0.11,-0.232 -0.259,-0.232l-0.309,0l0,0.687Zm0.147,-0.358l0,-0.194l0.146,0c0.073,0 0.123,0.038 0.123,0.097c0,0.059 -0.05,0.097 -0.123,0.097l-0.146,0Z" style="fill:rgb(86,183,147);fill-rule:nonzero;"/>            </g>            <g transform="matrix(60,0,0,60,527.881,208.86)">                <path d="M0.597,-0.554l0,-0.133l-0.529,0l0,0.687l0.529,0l0,-0.133l-0.381,0l0,-0.151l0.345,0l0,-0.133l-0.345,0l0,-0.137l0.381,0Z" style="fill:rgb(86,183,147);fill-rule:nonzero;"/>            </g>            <g transform="matrix(60,0,0,60,566.341,208.86)">                <path d="M0.649,0l-0.169,-0.24c0.094,-0.033 0.156,-0.113 0.156,-0.215c0,-0.136 -0.11,-0.232 -0.259,-0.232l-0.309,0l0,0.687l0.147,0l0,-0.223l0.109,0l0.157,0.223l0.168,0Zm-0.434,-0.552l0.146,0c0.073,0 0.123,0.038 0.123,0.097c0,0.059 -0.05,0.097 -0.123,0.097l-0.146,0l0,-0.194Z" style="fill:rgb(86,183,147);fill-rule:nonzero;"/>            </g>            <g transform="matrix(60,0,0,60,607.021,208.86)">                <path d="M0.246,0l0.148,0l0,-0.554l0.214,0l0,-0.133l-0.576,0l0,0.133l0.214,0l0,0.554Z" style="fill:rgb(86,183,147);fill-rule:nonzero;"/>            </g>            <g transform="matrix(60,0,0,60,645.361,208.86)">                <path d="M0.273,0l0.149,0l0,-0.248l0.268,-0.439l-0.165,0l-0.178,0.301l-0.171,-0.301l-0.172,0l0.269,0.439l0,0.248Z" style="fill:rgb(86,183,147);fill-rule:nonzero;"/>            </g>        </g>        <g>            <g transform="matrix(1.06561,0,0,1.06561,-11.2309,-16.15)">                <circle cx="94.12" cy="188.813" r="6.259" style="fill:rgb(86,183,147);"/>            </g>            <g transform="matrix(1.06561,0,0,1.06561,-11.2309,3.99224)">                <circle cx="94.12" cy="188.813" r="6.259" style="fill:rgb(86,183,147);"/>            </g>            <g transform="matrix(1.06561,0,0,1.06561,-11.2309,24.1345)">                <circle cx="94.12" cy="188.813" r="6.259" style="fill:rgb(86,183,147);"/>            </g>            <g transform="matrix(1.06561,0,0,1.06561,-11.2309,44.2768)">                <circle cx="94.12" cy="188.813" r="6.259" style="fill:rgb(86,183,147);"/>            </g>            <g transform="matrix(1.06561,0,0,1.06561,-11.2309,64.4191)">                <circle cx="94.12" cy="188.813" r="6.259" style="fill:rgb(86,183,147);"/>            </g>            <g transform="matrix(1.06561,0,0,1.06561,-11.2309,84.5614)">                <circle cx="94.12" cy="188.813" r="6.259" style="fill:rgb(86,183,147);"/>            </g>            <g transform="matrix(1.06561,0,0,1.06561,9.44441,3.99224)">                <circle cx="94.12" cy="188.813" r="6.259" style="fill:rgb(86,183,147);"/>            </g>            <g transform="matrix(1.06561,0,0,1.06561,9.44441,24.1345)">                <circle cx="94.12" cy="188.813" r="6.259" style="fill:rgb(86,183,147);"/>            </g>            <g transform="matrix(1.06561,0,0,1.06561,9.44441,44.2768)">                <circle cx="94.12" cy="188.813" r="6.259" style="fill:rgb(86,183,147);"/>            </g>            <g transform="matrix(1.06561,0,0,1.06561,9.44441,64.4191)">                <circle cx="94.12" cy="188.813" r="6.259" style="fill:rgb(86,183,147);"/>            </g>            <g transform="matrix(1.06561,0,0,1.06561,9.44441,84.5614)">                <circle cx="94.12" cy="188.813" r="6.259" style="fill:rgb(86,183,147);"/>            </g>            <g transform="matrix(1.06561,0,0,1.06561,-31.4954,3.99224)">                <circle cx="94.12" cy="188.813" r="6.259" style="fill:rgb(86,183,147);"/>            </g>            <g transform="matrix(1.06561,0,0,1.06561,-31.4954,24.1345)">                <circle cx="94.12" cy="188.813" r="6.259" style="fill:rgb(86,183,147);"/>            </g>            <g transform="matrix(1.06561,0,0,1.06561,-31.4954,44.2768)">                <circle cx="94.12" cy="188.813" r="6.259" style="fill:rgb(86,183,147);"/>            </g>            <g transform="matrix(1.06561,0,0,1.06561,-31.4954,64.4191)">                <circle cx="94.12" cy="188.813" r="6.259" style="fill:rgb(86,183,147);"/>            </g>            <g transform="matrix(1.06561,0,0,1.06561,-31.4954,84.5614)">                <circle cx="94.12" cy="188.813" r="6.259" style="fill:rgb(86,183,147);"/>            </g>            <g transform="matrix(1.06561,0,0,1.06561,-51.4625,24.1345)">                <circle cx="94.12" cy="188.813" r="6.259" style="fill:rgb(86,183,147);"/>            </g>            <g transform="matrix(1.06561,0,0,1.06561,-51.4625,44.2768)">                <circle cx="94.12" cy="188.813" r="6.259" style="fill:rgb(86,183,147);"/>            </g>            <g transform="matrix(1.06561,0,0,1.06561,-51.4625,64.4191)">                <circle cx="94.12" cy="188.813" r="6.259" style="fill:rgb(86,183,147);"/>            </g>            <g transform="matrix(1.06561,0,0,1.06561,-51.4625,84.5614)">                <circle cx="94.12" cy="188.813" r="6.259" style="fill:rgb(86,183,147);"/>            </g>            <g transform="matrix(1.06561,0,0,1.06561,29.4603,24.1345)">                <circle cx="94.12" cy="188.813" r="6.259" style="fill:rgb(86,183,147);"/>            </g>            <g transform="matrix(1.06561,0,0,1.06561,29.4603,44.2768)">                <circle cx="94.12" cy="188.813" r="6.259" style="fill:rgb(86,183,147);"/>            </g>            <g transform="matrix(1.06561,0,0,1.06561,29.4603,64.4191)">                <circle cx="94.12" cy="188.813" r="6.259" style="fill:rgb(86,183,147);"/>            </g>            <g transform="matrix(1.06561,0,0,1.06561,29.4603,84.5614)">                <circle cx="94.12" cy="188.813" r="6.259" style="fill:rgb(86,183,147);"/>            </g>        </g>    </g></svg>