<?xml version="1.0" encoding="UTF-8" standalone="no"?><!DOCTYPE svg PUBLIC "-//W3C//DTD SVG 1.1//EN" "http://www.w3.org/Graphics/SVG/1.1/DTD/svg11.dtd"><svg width="100%" height="100%" viewBox="0 0 1024 512" version="1.1" xmlns="http://www.w3.org/2000/svg" xmlns:xlink="http://www.w3.org/1999/xlink" xml:space="preserve" style="fill-rule:evenodd;clip-rule:evenodd;stroke-linejoin:round;stroke-miterlimit:2;"><title>StoneRaise</title><desc>STONERAISE is a crowdfunding platform specializing in the real estate sector. Our services are designed to meet the financing needs of real estate professionals while offering savers innovative solutions for the use of their savings.</desc>    <g transform="matrix(4.43409,0,0,3.05576,-2581.89,-653.413)">        <g transform="matrix(39.84,0,0,57.8102,581,318.057)">            <path d="M0.447,-0.622c-0.003,0.006 -0.007,0.009 -0.013,0.009c-0.004,0 -0.01,-0.003 -0.017,-0.009c-0.007,-0.006 -0.016,-0.013 -0.027,-0.021c-0.012,-0.007 -0.027,-0.014 -0.044,-0.02c-0.018,-0.007 -0.039,-0.01 -0.065,-0.01c-0.026,0 -0.048,0.004 -0.068,0.011c-0.019,0.007 -0.036,0.017 -0.049,0.03c-0.013,0.013 -0.023,0.027 -0.03,0.044c-0.007,0.017 -0.01,0.034 -0.01,0.052c0,0.024 0.005,0.044 0.015,0.06c0.01,0.016 0.024,0.029 0.041,0.04c0.016,0.011 0.035,0.02 0.056,0.028c0.021,0.007 0.043,0.015 0.066,0.022c0.022,0.007 0.044,0.015 0.065,0.024c0.021,0.009 0.04,0.02 0.056,0.033c0.017,0.014 0.031,0.03 0.041,0.05c0.01,0.019 0.015,0.043 0.015,0.072c0,0.03 -0.005,0.058 -0.015,0.084c-0.01,0.026 -0.025,0.049 -0.044,0.068c-0.02,0.02 -0.043,0.035 -0.071,0.046c-0.028,0.011 -0.061,0.017 -0.096,0.017c-0.047,0 -0.087,-0.008 -0.121,-0.025c-0.034,-0.016 -0.063,-0.039 -0.089,-0.068l0.014,-0.022c0.004,-0.005 0.009,-0.007 0.014,-0.007c0.003,0 0.007,0.002 0.012,0.006c0.005,0.004 0.01,0.009 0.017,0.015c0.007,0.006 0.015,0.012 0.024,0.019c0.009,0.007 0.02,0.013 0.033,0.019c0.012,0.006 0.026,0.01 0.042,0.014c0.016,0.004 0.034,0.006 0.054,0.006c0.029,0 0.053,-0.004 0.076,-0.012c0.021,-0.009 0.04,-0.02 0.055,-0.035c0.015,-0.015 0.027,-0.032 0.035,-0.052c0.008,-0.02 0.012,-0.042 0.012,-0.065c0,-0.025 -0.005,-0.046 -0.015,-0.062c-0.01,-0.016 -0.024,-0.029 -0.041,-0.04c-0.016,-0.011 -0.035,-0.02 -0.056,-0.028c-0.021,-0.007 -0.043,-0.014 -0.066,-0.021c-0.022,-0.007 -0.044,-0.015 -0.065,-0.024c-0.021,-0.008 -0.04,-0.019 -0.057,-0.033c-0.016,-0.013 -0.03,-0.03 -0.04,-0.05c-0.01,-0.02 -0.015,-0.046 -0.015,-0.076c0,-0.024 0.004,-0.047 0.013,-0.069c0.009,-0.022 0.023,-0.041 0.04,-0.058c0.017,-0.017 0.039,-0.03 0.064,-0.04c0.026,-0.01 0.055,-0.016 0.087,-0.016c0.037,0 0.07,0.006 0.099,0.018c0.029,0.012 0.056,0.029 0.08,0.053l-0.012,0.023Z" style="fill:rgb(15,16,31);fill-rule:nonzero;"/>        </g>        <g transform="matrix(39.84,0,0,57.8102,601.816,318.057)">            <path d="M0.567,-0.708l0,0.044l-0.249,0l0,0.664l-0.051,0l0,-0.664l-0.25,0l0,-0.044l0.55,0Z" style="fill:rgb(15,16,31);fill-rule:nonzero;"/>        </g>        <g transform="matrix(39.84,0,0,57.8102,622.712,318.057)">            <path d="M0.736,-0.354c0,0.055 -0.008,0.104 -0.024,0.149c-0.017,0.044 -0.04,0.082 -0.07,0.114c-0.029,0.031 -0.065,0.056 -0.106,0.073c-0.041,0.017 -0.087,0.025 -0.137,0.025c-0.05,0 -0.096,-0.008 -0.137,-0.025c-0.041,-0.017 -0.077,-0.042 -0.106,-0.073c-0.03,-0.032 -0.053,-0.07 -0.07,-0.114c-0.016,-0.045 -0.024,-0.094 -0.024,-0.149c0,-0.054 0.008,-0.104 0.024,-0.148c0.017,-0.045 0.04,-0.083 0.07,-0.114c0.029,-0.032 0.065,-0.056 0.106,-0.074c0.041,-0.017 0.087,-0.026 0.137,-0.026c0.05,0 0.096,0.009 0.137,0.026c0.041,0.017 0.077,0.042 0.107,0.073c0.029,0.032 0.052,0.07 0.069,0.115c0.016,0.044 0.024,0.094 0.024,0.148Zm-0.053,0c0,-0.049 -0.007,-0.094 -0.02,-0.133c-0.014,-0.039 -0.033,-0.073 -0.058,-0.1c-0.025,-0.027 -0.055,-0.048 -0.09,-0.063c-0.035,-0.014 -0.074,-0.022 -0.116,-0.022c-0.042,0 -0.081,0.008 -0.116,0.022c-0.035,0.015 -0.065,0.036 -0.09,0.063c-0.025,0.027 -0.044,0.061 -0.058,0.1c-0.014,0.039 -0.021,0.084 -0.021,0.133c0,0.05 0.007,0.094 0.021,0.133c0.014,0.039 0.033,0.073 0.058,0.1c0.025,0.027 0.055,0.048 0.09,0.062c0.035,0.015 0.074,0.022 0.116,0.022c0.042,0 0.081,-0.007 0.116,-0.022c0.035,-0.014 0.065,-0.035 0.09,-0.062c0.025,-0.027 0.044,-0.061 0.058,-0.1c0.013,-0.039 0.02,-0.083 0.02,-0.133Z" style="fill:rgb(15,16,31);fill-rule:nonzero;"/>        </g>        <g transform="matrix(39.84,0,0,57.8102,654.485,318.057)">            <path d="M0.13,-0.708c0.005,0 0.008,0.001 0.011,0.002c0.003,0.001 0.005,0.004 0.008,0.008l0.459,0.613c-0.002,-0.01 -0.002,-0.02 -0.002,-0.029l0,-0.594l0.045,0l0,0.708l-0.025,0c-0.007,0 -0.013,-0.003 -0.018,-0.01l-0.46,-0.614c0.001,0.01 0.001,0.02 0.001,0.028l0,0.596l-0.044,0l0,-0.708l0.025,0Z" style="fill:rgb(15,16,31);fill-rule:nonzero;"/>        </g>        <g transform="matrix(39.84,0,0,57.8102,684.604,318.057)">            <path d="M0.529,-0.708l0,0.043l-0.373,0l0,0.286l0.311,0l-0.001,0.041l-0.31,0l0,0.295l0.373,0l0,0.043l-0.424,0l0,-0.708l0.424,0Z" style="fill:rgb(15,16,31);fill-rule:nonzero;"/>        </g>        <g transform="matrix(39.84,0,0,57.8102,708.149,318.057)">            <path d="M0.171,-0.32l0,0.32l-0.051,0l0,-0.708l0.181,0c0.081,0 0.142,0.016 0.183,0.048c0.04,0.031 0.06,0.077 0.06,0.138c0,0.027 -0.005,0.052 -0.014,0.074c-0.009,0.023 -0.023,0.042 -0.04,0.059c-0.018,0.017 -0.039,0.031 -0.064,0.042c-0.024,0.011 -0.052,0.018 -0.083,0.021c0.008,0.005 0.015,0.012 0.021,0.02l0.244,0.306l-0.045,0c-0.005,0 -0.009,-0.001 -0.013,-0.003c-0.004,-0.002 -0.008,-0.005 -0.012,-0.01l-0.226,-0.287c-0.006,-0.007 -0.012,-0.013 -0.018,-0.016c-0.007,-0.003 -0.017,-0.004 -0.031,-0.004l-0.092,0Zm0,-0.038l0.123,0c0.031,0 0.059,-0.004 0.084,-0.011c0.025,-0.008 0.046,-0.019 0.063,-0.033c0.017,-0.014 0.03,-0.03 0.039,-0.05c0.009,-0.02 0.014,-0.042 0.014,-0.067c0,-0.05 -0.017,-0.087 -0.05,-0.112c-0.033,-0.024 -0.081,-0.036 -0.144,-0.036l-0.129,0l0,0.309Z" style="fill:rgb(15,16,31);fill-rule:nonzero;"/>        </g>        <g transform="matrix(39.84,0,0,57.8102,733.288,318.057)">            <path d="M0.638,0l-0.04,0c-0.005,0 -0.008,-0.001 -0.011,-0.004c-0.003,-0.002 -0.006,-0.006 -0.007,-0.01l-0.084,-0.205l-0.347,0l-0.083,0.206c-0.002,0.003 -0.004,0.006 -0.007,0.009c-0.004,0.003 -0.008,0.004 -0.012,0.004l-0.039,0l0.289,-0.708l0.051,0l0.29,0.708Zm-0.474,-0.257l0.317,0l-0.144,-0.358c-0.003,-0.005 -0.005,-0.012 -0.007,-0.019c-0.003,-0.007 -0.005,-0.014 -0.007,-0.022c-0.003,0.008 -0.005,0.015 -0.007,0.022c-0.003,0.007 -0.005,0.014 -0.007,0.02l-0.145,0.357Z" style="fill:rgb(15,16,31);fill-rule:nonzero;"/>        </g>        <g transform="matrix(39.84,0,0,57.8102,758.965,318.057)">            <rect x="0.124" y="-0.708" width="0.052" height="0.708" style="fill:rgb(15,16,31);fill-rule:nonzero;"/>        </g>        <g transform="matrix(39.84,0,0,57.8102,770.877,318.057)">            <path d="M0.447,-0.622c-0.003,0.006 -0.007,0.009 -0.013,0.009c-0.004,0 -0.01,-0.003 -0.017,-0.009c-0.007,-0.006 -0.016,-0.013 -0.027,-0.021c-0.012,-0.007 -0.027,-0.014 -0.044,-0.02c-0.018,-0.007 -0.039,-0.01 -0.065,-0.01c-0.026,0 -0.048,0.004 -0.068,0.011c-0.019,0.007 -0.036,0.017 -0.049,0.03c-0.013,0.013 -0.023,0.027 -0.03,0.044c-0.007,0.017 -0.01,0.034 -0.01,0.052c0,0.024 0.005,0.044 0.015,0.06c0.01,0.016 0.024,0.029 0.041,0.04c0.016,0.011 0.035,0.02 0.056,0.028c0.021,0.007 0.043,0.015 0.066,0.022c0.022,0.007 0.044,0.015 0.065,0.024c0.021,0.009 0.04,0.02 0.056,0.033c0.017,0.014 0.031,0.03 0.041,0.05c0.01,0.019 0.015,0.043 0.015,0.072c0,0.03 -0.005,0.058 -0.015,0.084c-0.01,0.026 -0.025,0.049 -0.044,0.068c-0.02,0.02 -0.043,0.035 -0.071,0.046c-0.028,0.011 -0.061,0.017 -0.096,0.017c-0.047,0 -0.087,-0.008 -0.121,-0.025c-0.034,-0.016 -0.063,-0.039 -0.089,-0.068l0.014,-0.022c0.004,-0.005 0.009,-0.007 0.014,-0.007c0.003,0 0.007,0.002 0.012,0.006c0.005,0.004 0.01,0.009 0.017,0.015c0.007,0.006 0.015,0.012 0.024,0.019c0.009,0.007 0.02,0.013 0.033,0.019c0.012,0.006 0.026,0.01 0.042,0.014c0.016,0.004 0.034,0.006 0.054,0.006c0.029,0 0.053,-0.004 0.076,-0.012c0.021,-0.009 0.04,-0.02 0.055,-0.035c0.015,-0.015 0.027,-0.032 0.035,-0.052c0.008,-0.02 0.012,-0.042 0.012,-0.065c0,-0.025 -0.005,-0.046 -0.015,-0.062c-0.01,-0.016 -0.024,-0.029 -0.041,-0.04c-0.016,-0.011 -0.035,-0.02 -0.056,-0.028c-0.021,-0.007 -0.043,-0.014 -0.066,-0.021c-0.022,-0.007 -0.044,-0.015 -0.065,-0.024c-0.021,-0.008 -0.04,-0.019 -0.057,-0.033c-0.016,-0.013 -0.03,-0.03 -0.04,-0.05c-0.01,-0.02 -0.015,-0.046 -0.015,-0.076c0,-0.024 0.004,-0.047 0.013,-0.069c0.009,-0.022 0.023,-0.041 0.04,-0.058c0.017,-0.017 0.039,-0.03 0.064,-0.04c0.026,-0.01 0.055,-0.016 0.087,-0.016c0.037,0 0.07,0.006 0.099,0.018c0.029,0.012 0.056,0.029 0.08,0.053l-0.012,0.023Z" style="fill:rgb(15,16,31);fill-rule:nonzero;"/>        </g>        <g transform="matrix(39.84,0,0,57.8102,791.694,318.057)">            <path d="M0.529,-0.708l0,0.043l-0.373,0l0,0.286l0.311,0l-0.001,0.041l-0.31,0l0,0.295l0.373,0l0,0.043l-0.424,0l0,-0.708l0.424,0Z" style="fill:rgb(15,16,31);fill-rule:nonzero;"/>        </g>    </g></svg>