<?xml version="1.0" encoding="UTF-8" standalone="no"?><!DOCTYPE svg PUBLIC "-//W3C//DTD SVG 1.1//EN" "http://www.w3.org/Graphics/SVG/1.1/DTD/svg11.dtd"><svg width="100%" height="100%" viewBox="0 0 1024 512" version="1.1" xmlns="http://www.w3.org/2000/svg" xmlns:xlink="http://www.w3.org/1999/xlink" xml:space="preserve" style="fill-rule:evenodd;clip-rule:evenodd;stroke-linejoin:round;stroke-miterlimit:2;"><title>Flex Funding</title><desc>Flex Funding offers corporate loans on simple and competitive terms to healthy Danish companies.Flex Funding is the leading marketplace lender for SMEs in Denmark and the Faroe Islands.</desc>    <g id="Logo" transform="matrix(1,0,0,1,-1.37175,113.248)">        <g id="Group" transform="matrix(2.006,0,0,2.006,-6.60815,-7.27464)">            <g id="Rectangle-path" transform="matrix(0.866025,-0.5,0.5,0.866025,-55.7904,48.444)">                <path d="M77.125,121.069c0,-3.982 -3.233,-7.215 -7.216,-7.215l-14.813,0c-3.982,0 -7.216,3.233 -7.216,7.215l0,14.518c0,3.983 3.234,7.216 7.216,7.216l14.813,0c3.983,0 7.216,-3.233 7.216,-7.216l0,-14.518Z" style="fill:url(#_Linear1);"/>            </g>            <g id="Rectangle-path1" transform="matrix(0.866025,-0.5,0.5,0.866025,-33.5359,41.0155)">                <path d="M94.86,75.828c0,-3.983 -3.233,-7.216 -7.216,-7.216l-55.752,0c-3.983,0 -7.216,3.233 -7.216,7.216l0,14.518c0,3.982 3.233,7.215 7.216,7.215l55.752,0c3.983,0 7.216,-3.233 7.216,-7.215l0,-14.518Z" style="fill:url(#_Linear2);"/>            </g>            <g id="Rectangle-path2" transform="matrix(0.866025,-0.5,0.5,0.866025,-13.4247,31.4331)">                <path d="M101.649,32.059c0,-4.778 -3.879,-8.657 -8.656,-8.657l-82.1,0c-4.778,0 -8.657,3.879 -8.657,8.657l0,17.417c0,4.777 3.879,8.656 8.657,8.656l82.1,0c4.777,0 8.656,-3.879 8.656,-8.656l0,-17.417Z" style="fill:url(#_Linear3);"/>            </g>        </g>        <g id="Group1"  transform="matrix(2.006,0,0,2.006,240.144,83.7724)">            <path id="Shape" d="M8.227,29.361l-7.987,0l0,-6.027l7.987,0l0,-8.193c0,-4.948 0.951,-8.6 2.853,-10.955c1.902,-2.355 5.175,-3.553 9.819,-3.592c0.781,0 1.606,0 2.462,0.074c0.938,0.069 1.868,0.223 2.778,0.46l-0.781,6.19c-0.631,-0.241 -1.285,-0.42 -1.952,-0.534c-0.675,-0.111 -1.358,-0.165 -2.042,-0.164c-1.073,-0.049 -2.144,0.155 -3.122,0.594c-0.766,0.379 -1.407,0.966 -1.847,1.692c-0.463,0.793 -0.754,1.673 -0.856,2.583c-0.137,1.113 -0.202,2.233 -0.195,3.355l0,8.431l8.378,0l0,6.026l-8.453,0l0,30.697l-7.042,0l0,-30.637Z" style="fill:rgb(33,33,33);fill-rule:nonzero;"/>            <path id="Shape1" d="M32.084,1.484l7.041,0l0,58.514l-7.041,0l0,-58.514Z" style="fill:rgb(33,33,33);fill-rule:nonzero;"/>            <path id="Shape2" d="M55.64,44.219c-0.022,1.519 0.339,3.019 1.051,4.364c0.687,1.297 1.631,2.444 2.778,3.37c1.188,0.954 2.541,1.688 3.994,2.167c1.506,0.516 3.09,0.777 4.684,0.772c2.011,0.057 3.996,-0.459 5.72,-1.485c1.711,-1.074 3.232,-2.417 4.504,-3.978l5.27,4.008c-3.904,5.007 -9.379,7.511 -16.425,7.511c-2.72,0.027 -5.419,-0.478 -7.942,-1.484c-2.271,-0.92 -4.318,-2.306 -6.006,-4.068c-1.672,-1.762 -2.965,-3.843 -3.798,-6.115c-0.905,-2.438 -1.358,-5.018 -1.336,-7.615c-0.005,-2.61 0.505,-5.197 1.501,-7.615c0.919,-2.274 2.275,-4.351 3.994,-6.115c1.704,-1.738 3.747,-3.116 6.005,-4.053c2.43,-1.001 5.04,-1.506 7.672,-1.484c2.873,-0.087 5.727,0.492 8.333,1.692c2.173,1.063 4.084,2.583 5.6,4.453c1.459,1.837 2.535,3.94 3.168,6.19c0.646,2.276 0.974,4.628 0.975,6.991l0,2.479l-29.742,0.015Zm22.221,-5.626c-0.039,-1.448 -0.292,-2.883 -0.751,-4.26c-0.846,-2.554 -2.792,-4.608 -5.315,-5.611c-1.485,-0.561 -3.065,-0.833 -4.654,-0.801c-1.634,-0.024 -3.253,0.306 -4.744,0.965c-1.363,0.597 -2.597,1.449 -3.634,2.508c-0.968,1.006 -1.751,2.171 -2.312,3.444c-0.524,1.185 -0.8,2.462 -0.811,3.755l22.221,0Z" style="fill:rgb(33,33,33);fill-rule:nonzero;"/>            <path id="Shape3" d="M103.984,40.434l-13.137,-17.1l9.009,0l9.008,12.988l8.843,-12.988l8.527,0l-12.671,17.1l15.014,19.564l-9.009,0l-10.96,-15.393l-11.02,15.393l-8.677,0l15.073,-19.564Z" style="fill:rgb(33,33,33);fill-rule:nonzero;"/>            <path id="Shape4" d="M138.02,28.44l-7.507,0l0,-4.171l7.507,0l0,-11.682c-0.069,-1.976 0.289,-3.945 1.051,-5.774c0.613,-1.387 1.507,-2.634 2.627,-3.666c0.997,-0.909 2.187,-1.584 3.484,-1.974c1.175,-0.371 2.399,-0.566 3.633,-0.579c1.843,-0.064 3.679,0.254 5.39,0.935l-0.931,4.023c-1.327,-0.578 -2.77,-0.848 -4.219,-0.787c-4.234,0 -6.351,3.171 -6.351,9.515l0,9.989l8.453,0l0,4.171l-8.453,0l0,31.558l-4.684,0l0,-31.558Z" style="fill:rgb(33,33,33);fill-rule:nonzero;"/>            <path id="Shape5" d="M189.172,49.949c0,0.668 0,1.484 0.09,2.434c0.09,0.95 0.09,1.915 0.105,2.969c0.015,1.054 0,1.9 0.12,2.746c0.12,0.846 0.09,1.484 0.09,1.974l-4.699,0c0,-1.336 -0.09,-2.627 -0.12,-3.874c0.013,-0.801 -0.052,-1.601 -0.196,-2.39l-0.24,0c-1.047,2.091 -2.671,3.845 -4.684,5.062c-2.285,1.452 -4.956,2.196 -7.672,2.137c-2.379,0.086 -4.746,-0.366 -6.921,-1.321c-1.683,-0.776 -3.14,-1.96 -4.234,-3.443c-1.032,-1.476 -1.738,-3.15 -2.072,-4.914c-0.363,-1.883 -0.544,-3.797 -0.541,-5.714l0,-21.346l4.7,0l0,21.034c-0.008,1.414 0.123,2.826 0.39,4.215c0.227,1.294 0.69,2.537 1.366,3.667c0.656,1.095 1.6,1.993 2.733,2.597c1.418,0.703 2.994,1.035 4.579,0.965c1.673,0.009 3.334,-0.293 4.894,-0.89c1.526,-0.581 2.893,-1.507 3.994,-2.702c1.184,-1.334 2.088,-2.888 2.657,-4.572c0.689,-2.083 1.019,-4.266 0.976,-6.457l0,-17.812l4.685,0l0,25.635Z" style="fill:rgb(33,33,33);fill-rule:nonzero;"/>            <path id="Shape6" d="M202.008,34.319c0,-0.668 0,-1.485 -0.075,-2.435c-0.075,-0.95 -0.09,-1.93 -0.12,-2.969c-0.03,-1.039 0,-1.885 -0.12,-2.746c-0.12,-0.861 -0.075,-1.484 -0.075,-1.959l4.699,0c0,1.336 0.09,2.627 0.12,3.859c-0.02,0.806 0.045,1.612 0.195,2.405l0.226,0c1.061,-2.089 2.688,-3.846 4.699,-5.077c2.287,-1.414 4.945,-2.132 7.642,-2.063c2.364,-0.087 4.717,0.365 6.876,1.321c1.661,0.785 3.1,1.963 4.189,3.429c1.043,1.475 1.764,3.148 2.117,4.913c0.393,1.885 0.589,3.805 0.585,5.73l0,21.271l-4.699,0l0,-21.033c0.001,-1.414 -0.13,-2.826 -0.39,-4.216c-0.234,-1.297 -0.697,-2.543 -1.367,-3.681c-0.659,-1.088 -1.603,-1.98 -2.732,-2.583c-1.395,-0.694 -2.944,-1.031 -4.504,-0.98c-1.674,-0.01 -3.334,0.292 -4.895,0.891c-1.549,0.596 -2.933,1.548 -4.038,2.776c-1.177,1.295 -2.08,2.808 -2.658,4.453c-0.686,2.083 -1.016,4.266 -0.976,6.457l0,17.812l-4.699,0l0,-25.575Z" style="fill:rgb(33,33,33);fill-rule:nonzero;"/>            <path id="Shape7" d="M277.121,53.734l-0.165,0c-0.711,1.221 -1.636,2.306 -2.732,3.206c-1.084,0.895 -2.28,1.649 -3.559,2.242c-1.283,0.597 -2.634,1.04 -4.023,1.321c-1.369,0.28 -2.762,0.424 -4.159,0.43c-2.619,0.022 -5.218,-0.452 -7.657,-1.395c-2.253,-0.878 -4.297,-2.207 -6.005,-3.904c-1.688,-1.702 -3.016,-3.721 -3.904,-5.937c-1.881,-4.855 -1.881,-10.227 0,-15.082c0.891,-2.215 2.217,-4.233 3.904,-5.937c1.704,-1.702 3.749,-3.032 6.005,-3.904c2.437,-0.95 5.037,-1.424 7.657,-1.395c1.397,0.006 2.79,0.15 4.159,0.43c1.389,0.276 2.74,0.714 4.023,1.306c1.276,0.599 2.471,1.352 3.559,2.242c1.098,0.903 2.024,1.994 2.732,3.221l0.165,0l0,-29.094l4.685,0l0,58.514l-4.685,0l0,-6.264Zm0.466,-11.608c0.031,-3.909 -1.553,-7.662 -4.384,-10.39c-1.376,-1.335 -2.996,-2.398 -4.775,-3.132c-1.896,-0.805 -3.942,-1.204 -6.005,-1.173c-2.064,-0.041 -4.112,0.359 -6.006,1.173c-1.699,0.734 -3.231,1.799 -4.504,3.132c-1.266,1.331 -2.237,2.908 -2.852,4.631c-1.301,3.681 -1.301,7.689 0,11.37c0.619,1.726 1.59,3.307 2.852,4.646c1.273,1.333 2.805,2.398 4.504,3.132c1.897,0.801 3.944,1.196 6.006,1.158c2.061,0.029 4.106,-0.365 6.005,-1.158c1.789,-0.707 3.425,-1.745 4.82,-3.058c1.368,-1.325 2.46,-2.904 3.213,-4.646c0.768,-1.797 1.152,-3.733 1.126,-5.685Z" style="fill:rgb(33,33,33);fill-rule:nonzero;"/>            <path id="Shape8" d="M293.006,10.109c0.036,-1.615 1.216,-2.981 2.823,-3.269c1.606,-0.289 3.197,0.58 3.805,2.078c0.608,1.499 0.066,3.214 -1.297,4.103c-1.363,0.889 -3.171,0.708 -4.325,-0.434c-0.667,-0.654 -1.031,-1.55 -1.006,-2.478Zm1.171,14.16l4.684,0l0,35.729l-4.684,0l0,-35.729Z" style="fill:rgb(33,33,33);fill-rule:nonzero;"/>            <path id="Shape9" d="M312.163,34.319c0,-0.668 0,-1.485 -0.075,-2.435c-0.075,-0.95 -0.09,-1.93 -0.12,-2.969c-0.03,-1.039 0,-1.885 -0.12,-2.746c-0.12,-0.861 0,-1.484 0,-1.959l4.699,0c0,1.336 0.09,2.627 0.12,3.859c-0.02,0.806 0.045,1.612 0.195,2.405l0.225,0c1.062,-2.089 2.689,-3.846 4.7,-5.077c2.289,-1.441 4.958,-2.179 7.672,-2.122c2.364,-0.088 4.717,0.364 6.876,1.321c1.661,0.784 3.1,1.962 4.189,3.429c1.043,1.474 1.764,3.148 2.117,4.913c0.393,1.885 0.589,3.805 0.585,5.73l0,21.33l-4.699,0l0,-21.033c0.001,-1.414 -0.13,-2.826 -0.39,-4.216c-0.234,-1.297 -0.697,-2.543 -1.367,-3.681c-0.661,-1.092 -1.611,-1.985 -2.747,-2.583c-1.393,-0.699 -2.943,-1.036 -4.504,-0.98c-1.674,-0.01 -3.334,0.292 -4.895,0.891c-1.581,0.584 -2.998,1.536 -4.128,2.776c-1.182,1.291 -2.086,2.806 -2.658,4.453c-0.694,2.082 -1.024,4.265 -0.976,6.457l0,17.812l-4.699,0l0,-25.575Z" style="fill:rgb(33,33,33);fill-rule:nonzero;"/>            <path id="Shape10" d="M391.96,57.682c0.147,3.68 -0.52,7.347 -1.951,10.747c-1.094,2.471 -2.773,4.645 -4.895,6.338c-1.855,1.428 -4.001,2.441 -6.291,2.969c-2.001,0.48 -4.051,0.739 -6.11,0.772c-1.794,-0.002 -3.583,-0.171 -5.345,-0.505c-1.702,-0.33 -3.367,-0.827 -4.969,-1.484c-1.507,-0.6 -2.938,-1.372 -4.264,-2.301c-1.253,-0.903 -2.374,-1.972 -3.333,-3.176l3.678,-3.4c1.575,2.233 3.741,3.994 6.261,5.092c2.514,1.082 5.23,1.634 7.972,1.618c2.041,0.045 4.074,-0.267 6.005,-0.92c2.868,-1 5.227,-3.066 6.576,-5.76c0.575,-1.162 1.023,-2.381 1.337,-3.637c0.273,-1.13 0.439,-2.283 0.495,-3.443c0.06,-1.079 0.09,-1.955 0.09,-2.628l0,-4.928l-0.165,0c-1.343,2.158 -3.246,3.921 -5.51,5.107c-2.529,1.282 -5.341,1.92 -8.182,1.855c-2.577,-0.002 -5.128,-0.507 -7.507,-1.484c-4.581,-1.828 -8.267,-5.339 -10.285,-9.797c-2.041,-4.525 -2.041,-9.695 0,-14.22c0.99,-2.181 2.397,-4.152 4.144,-5.804c1.786,-1.676 3.867,-3.014 6.141,-3.949c2.375,-0.991 4.929,-1.496 7.507,-1.484c2.871,-0.039 5.706,0.64 8.242,1.974c2.264,1.186 4.167,2.949 5.51,5.106l0.24,0l0,-6.071l4.684,0l-0.075,33.413Zm-4.504,-16.016c0.011,-1.902 -0.372,-3.786 -1.126,-5.537c-0.714,-1.655 -1.732,-3.164 -3.002,-4.453c-1.299,-1.261 -2.827,-2.269 -4.505,-2.968c-3.573,-1.504 -7.611,-1.504 -11.185,0c-1.677,0.699 -3.205,1.707 -4.504,2.968c-1.27,1.289 -2.288,2.798 -3.002,4.453c-1.502,3.542 -1.502,7.532 0,11.074c0.714,1.655 1.732,3.165 3.002,4.453c1.299,1.262 2.827,2.269 4.504,2.969c3.574,1.504 7.612,1.504 11.185,0c1.678,-0.7 3.206,-1.707 4.505,-2.969c1.27,-1.288 2.288,-2.798 3.002,-4.453c0.744,-1.752 1.117,-3.637 1.096,-5.537l0.03,0Z" style="fill:rgb(33,33,33);fill-rule:nonzero;"/>        </g>    </g>    <defs>        <linearGradient id="_Linear1" x1="0" y1="0" x2="1" y2="0" gradientUnits="userSpaceOnUse" gradientTransform="matrix(-29.2446,3.58142e-15,-3.58142e-15,-29.2446,77.1248,128.328)"><stop offset="0" style="stop-color:rgb(66,165,245);stop-opacity:1"/><stop offset="1" style="stop-color:rgb(21,101,192);stop-opacity:1"/></linearGradient>        <linearGradient id="_Linear2" x1="0" y1="0" x2="1" y2="0" gradientUnits="userSpaceOnUse" gradientTransform="matrix(-70.1839,8.59505e-15,-8.59505e-15,-70.1839,94.8599,83.0866)"><stop offset="0" style="stop-color:rgb(66,165,245);stop-opacity:1"/><stop offset="1" style="stop-color:rgb(21,101,192);stop-opacity:1"/></linearGradient>        <linearGradient id="_Linear3" x1="0" y1="0" x2="1" y2="0" gradientUnits="userSpaceOnUse" gradientTransform="matrix(-99.4133,1.21746e-14,-1.21746e-14,-99.4133,101.649,40.7673)"><stop offset="0" style="stop-color:rgb(66,165,245);stop-opacity:1"/><stop offset="1" style="stop-color:rgb(21,101,192);stop-opacity:1"/></linearGradient>    </defs></svg>