<?xml version="1.0" encoding="UTF-8" standalone="no"?><!DOCTYPE svg PUBLIC "-//W3C//DTD SVG 1.1//EN" "http://www.w3.org/Graphics/SVG/1.1/DTD/svg11.dtd"><svg width="100%" height="100%" viewBox="0 0 1024 512" version="1.1" xmlns="http://www.w3.org/2000/svg" xmlns:xlink="http://www.w3.org/1999/xlink" xml:space="preserve" style="fill-rule:evenodd;clip-rule:evenodd;stroke-linejoin:round;stroke-miterlimit:2;"><title>Immofunding</title><desc>IMMOFUNDING is a Vienna-based fintech company offering investors the opportunity to invest in attractive real estate projects through crowdinvesting. The management of IMMOFUNDING has many years of experience in the field of structured real estate financing and asset-backed investment in real estate projects.</desc>    <g transform="matrix(1.48896,0,0,1.48896,-2460.65,123.376)">        <g transform="matrix(4.16667,0,0,4.16667,1960.92,121.337)">            <path d="M0,-10.491l0,3.957l6.354,0l0,2.803l-6.354,0l0,6.535l-3.143,0l0,-16.099l10.604,0l0,2.804l-7.461,0Z" style="fill:rgb(16,71,123);fill-rule:nonzero;"/>        </g>        <g transform="matrix(4.16667,0,0,4.16667,2051.83,89.4906)">            <path d="M0,4.93c0,0.859 -0.155,1.636 -0.465,2.329c-0.309,0.693 -0.732,1.285 -1.268,1.775c-0.536,0.49 -1.163,0.87 -1.88,1.141c-0.718,0.272 -1.492,0.407 -2.322,0.407c-0.831,0 -1.605,-0.135 -2.322,-0.407c-0.717,-0.271 -1.344,-0.651 -1.881,-1.141c-0.536,-0.49 -0.958,-1.082 -1.268,-1.775c-0.31,-0.693 -0.464,-1.47 -0.464,-2.329l0,-10.582l3.143,0l0,10.469c0,0.949 0.248,1.681 0.746,2.193c0.497,0.513 1.175,0.769 2.035,0.769c0.859,0 1.541,-0.256 2.046,-0.769c0.505,-0.512 0.757,-1.244 0.757,-2.193l0,-10.469l3.143,0l0,10.582Z" style="fill:rgb(16,71,123);fill-rule:nonzero;"/>        </g>        <g transform="matrix(4.16667,0,0,4.16667,2106,65.9402)">            <path d="M0,16.099l-6.376,-9.881l0,9.881l-3.143,0l0,-16.099l2.804,0l6.376,9.858l0,-9.858l3.143,0l0,16.099l-2.804,0Z" style="fill:rgb(16,71,123);fill-rule:nonzero;"/>        </g>        <g transform="matrix(4.16667,0,0,4.16667,2168.94,99.7605)">            <path d="M0,-0.135c0,-0.603 -0.008,-1.127 -0.022,-1.572c-0.016,-0.444 -0.046,-0.828 -0.091,-1.152c-0.045,-0.324 -0.113,-0.603 -0.203,-0.837c-0.091,-0.234 -0.212,-0.441 -0.362,-0.622c-0.272,-0.331 -0.596,-0.58 -0.973,-0.746c-0.376,-0.166 -0.836,-0.249 -1.379,-0.249l-2.374,0l0,10.491l2.374,0c0.543,0 1.003,-0.082 1.379,-0.248c0.377,-0.166 0.701,-0.415 0.973,-0.746c0.286,-0.362 0.471,-0.867 0.554,-1.515c0.082,-0.648 0.124,-1.583 0.124,-2.804m3.143,-1.764l0,3.573c0,0.874 -0.106,1.722 -0.317,2.543c-0.211,0.822 -0.648,1.564 -1.311,2.228c-0.528,0.527 -1.153,0.915 -1.877,1.164c-0.723,0.249 -1.514,0.373 -2.374,0.373l-5.811,0l0,-16.099l5.811,0c0.86,0 1.651,0.125 2.374,0.374c0.724,0.249 1.349,0.637 1.877,1.164c0.663,0.664 1.1,1.391 1.311,2.182c0.211,0.791 0.317,1.624 0.317,2.498Z" style="fill:rgb(16,71,123);fill-rule:nonzero;"/>        </g>        <g transform="matrix(4.16667,0,0,4.16667,0.398127,-3246.99)">            <rect x="526.802" y="795.104" width="3.143" height="16.099" style="fill:rgb(16,71,123);"/>        </g>        <g transform="matrix(4.16667,0,0,4.16667,2263.8,65.9402)">            <path d="M0,16.099l-6.376,-9.881l0,9.881l-3.143,0l0,-16.099l2.804,0l6.376,9.858l0,-9.858l3.143,0l0,16.099l-2.804,0Z" style="fill:rgb(16,71,123);fill-rule:nonzero;"/>        </g>        <g transform="matrix(4.16667,0,0,4.16667,2338.98,93.4518)">            <path d="M0,2.894c0,1.161 -0.117,2.122 -0.351,2.883c-0.234,0.761 -0.631,1.435 -1.189,2.023c-0.65,0.679 -1.356,1.154 -2.118,1.425c-0.763,0.271 -1.575,0.407 -2.435,0.407c-0.907,0 -1.715,-0.151 -2.425,-0.452c-0.709,-0.302 -1.351,-0.739 -1.925,-1.312c-0.408,-0.407 -0.721,-0.84 -0.94,-1.3c-0.219,-0.46 -0.374,-0.953 -0.464,-1.481c-0.091,-0.527 -0.144,-1.093 -0.159,-1.696c-0.015,-0.602 -0.022,-1.251 -0.022,-1.944c0,-0.693 0.007,-1.341 0.022,-1.944c0.015,-0.603 0.068,-1.169 0.158,-1.696c0.091,-0.528 0.245,-1.021 0.464,-1.481c0.218,-0.46 0.531,-0.893 0.938,-1.3c0.573,-0.573 1.214,-1.01 1.922,-1.312c0.708,-0.301 1.515,-0.452 2.419,-0.452c0.935,0 1.756,0.143 2.465,0.43c0.708,0.286 1.311,0.667 1.809,1.141c0.497,0.475 0.893,1.022 1.187,1.64c0.294,0.618 0.493,1.266 0.599,1.944l-3.165,0c-0.181,-0.769 -0.506,-1.353 -0.973,-1.752c-0.467,-0.399 -1.108,-0.599 -1.922,-0.599c-0.437,0 -0.825,0.079 -1.164,0.237c-0.339,0.159 -0.622,0.366 -0.848,0.622c-0.151,0.166 -0.275,0.35 -0.373,0.554c-0.098,0.203 -0.177,0.471 -0.237,0.802c-0.061,0.332 -0.102,0.751 -0.125,1.255c-0.022,0.506 -0.034,1.142 -0.034,1.911c0,0.769 0.012,1.41 0.034,1.922c0.023,0.512 0.064,0.935 0.125,1.266c0.06,0.332 0.139,0.599 0.237,0.803c0.098,0.203 0.222,0.388 0.373,0.553c0.226,0.257 0.509,0.46 0.848,0.611c0.339,0.151 0.727,0.226 1.164,0.226c0.483,0 0.912,-0.079 1.289,-0.237c0.377,-0.158 0.693,-0.381 0.95,-0.667c0.256,-0.301 0.441,-0.63 0.554,-0.984c0.113,-0.354 0.169,-0.742 0.169,-1.164l0,-0.611l-2.962,0l0,-2.623l6.105,0l0,2.352Z" style="fill:rgb(16,71,123);fill-rule:nonzero;"/>        </g>        <g transform="matrix(4.16667,0,0,4.16667,0.398127,-3246.99)">            <rect x="396.85" y="795.104" width="3.143" height="16.099" style="fill:rgb(16,71,123);"/>        </g>        <g transform="matrix(4.16667,0,0,4.16667,1730.34,65.9402)">            <path d="M0,16.099l0,-9.383l-3.075,6.104l-2.125,0l-3.098,-6.104l0,9.383l-3.143,0l0,-16.099l3.098,0l4.205,8.705l4.183,-8.705l3.098,0l0,16.099l-3.143,0Z" style="fill:rgb(16,71,123);fill-rule:nonzero;"/>        </g>        <g transform="matrix(4.16667,0,0,4.16667,1806.75,65.9402)">            <path d="M0,16.099l0,-9.383l-3.075,6.104l-2.125,0l-3.098,-6.104l0,9.383l-3.143,0l0,-16.099l3.098,0l4.205,8.705l4.183,-8.705l3.098,0l0,16.099l-3.143,0Z" style="fill:rgb(16,71,123);fill-rule:nonzero;"/>        </g>        <g transform="matrix(4.16667,0,0,4.16667,1869.35,98.0827)">            <path d="M0,-6.286c0.001,-3.636 -0.001,-7.272 0.001,-10.908c2.535,1.017 5.069,2.037 7.601,3.06c-0.001,4.069 0.002,8.139 -0.001,12.209c-0.454,-0.168 -0.898,-0.36 -1.349,-0.537c-0.159,-0.058 -0.31,-0.138 -0.475,-0.179c-0.002,2.024 -0.001,4.049 -0.001,6.073c-0.003,1.682 0.007,3.364 -0.007,5.045c0,0.676 0,1.352 0.001,2.029c-1.914,0.402 -3.942,0.246 -5.77,-0.448c-0.012,-5.448 0.005,-10.896 0,-16.344" style="fill:rgb(16,71,123);fill-rule:nonzero;"/>        </g>        <g transform="matrix(4.16667,0,0,4.16667,1837.25,125.54)">            <path d="M0,-11.391c1.318,-2.897 3.785,-5.249 6.746,-6.418c0,0.506 0.003,1.013 -0.002,1.519c-1.568,0.708 -2.955,1.803 -4.033,3.141c-1.202,1.491 -2.008,3.297 -2.308,5.188c-0.251,1.585 -0.159,3.224 0.278,4.769c0.703,2.51 2.331,4.743 4.497,6.192c1.007,0.68 2.128,1.192 3.301,1.507c2.216,0.597 4.617,0.487 6.765,-0.323c1.684,-0.63 3.209,-1.679 4.402,-3.023c1.75,-1.956 2.78,-4.553 2.8,-7.181c0.002,-0.083 0.017,-0.165 0.01,-0.247c-0.024,-0.28 -0.005,-0.564 -0.039,-0.844c-0.101,-1.253 -0.418,-2.488 -0.935,-3.634c-1.034,-2.312 -2.887,-4.247 -5.153,-5.377c-0.038,-0.02 -0.096,-0.041 -0.087,-0.095c-0.003,-0.489 -0.001,-0.979 -0.001,-1.468c0.121,0.029 0.231,0.088 0.344,0.139c2.468,1.137 4.543,3.102 5.811,5.505c1.204,2.252 1.677,4.882 1.35,7.414c-0.22,1.762 -0.83,3.473 -1.767,4.981c-0.857,1.383 -1.986,2.597 -3.304,3.551c-1.326,0.965 -2.846,1.664 -4.442,2.04c-1.998,0.473 -4.113,0.443 -6.097,-0.088c-2.406,-0.639 -4.606,-2.026 -6.228,-3.914c-1.746,-2.009 -2.824,-4.593 -3.002,-7.251c-0.045,-0.532 -0.038,-1.067 -0.018,-1.601c0.092,-1.544 0.463,-3.075 1.112,-4.482" style="fill:rgb(16,71,123);fill-rule:nonzero;"/>        </g>        <g transform="matrix(4.16667,0,0,4.16667,1854.45,134.727)">            <path d="M0,-10.384c0.861,-0.289 1.733,-0.547 2.595,-0.834c0.013,1.781 0.002,3.563 0.006,5.344c-0.002,2.236 0.005,4.472 -0.009,6.708c-0.946,-0.489 -1.832,-1.105 -2.587,-1.859c0.007,-2.015 -0.006,-4.029 -0.004,-6.043c-0.001,-1.105 0.001,-2.211 -0.001,-3.316" style="fill:rgb(16,71,123);fill-rule:nonzero;"/>        </g>        <g transform="matrix(4.16667,0,0,4.16667,1897.11,140.908)">            <path d="M0,-11.815c1.67,0.597 3.339,1.197 5.006,1.8c-0.001,0.688 0.002,1.375 -0.001,2.062c-0.548,-0.155 -1.096,-0.31 -1.647,-0.455c-0.001,2.218 -0.003,4.435 0,6.653c-0.988,0.791 -2.136,1.371 -3.339,1.755c-0.016,-0.065 -0.022,-0.132 -0.013,-0.199c-0.013,-3.87 -0.007,-7.744 -0.006,-11.616" style="fill:rgb(16,71,123);fill-rule:nonzero;"/>        </g>        <g transform="matrix(4.16667,0,0,4.16667,1848.87,125.499)">            <path d="M0,-4.434c0.124,-0.041 0.245,-0.089 0.374,-0.111c0.001,1.551 -0.003,3.104 0.002,4.656c-0.896,-1.175 -1.56,-2.537 -1.88,-3.982c-0.008,-0.009 -0.025,-0.026 -0.034,-0.034c0.066,-0.034 0.134,-0.061 0.204,-0.083c0.445,-0.148 0.89,-0.297 1.334,-0.446" style="fill:rgb(16,71,123);fill-rule:nonzero;"/>        </g>        <g transform="matrix(4.16667,0,0,4.16667,1914.93,130.242)">            <path d="M0,-4.87c0.664,0.183 1.322,0.39 1.986,0.575c0.182,0.047 0.359,0.116 0.546,0.145c0.001,0.032 -0.001,0.064 -0.007,0.096c-0.509,1.524 -1.388,2.916 -2.52,4.054c0.003,-1.624 -0.006,-3.247 -0.005,-4.87" style="fill:rgb(16,71,123);fill-rule:nonzero;"/>        </g>    </g></svg>