<?xml version="1.0" encoding="UTF-8" standalone="no"?><!DOCTYPE svg PUBLIC "-//W3C//DTD SVG 1.1//EN" "http://www.w3.org/Graphics/SVG/1.1/DTD/svg11.dtd"><svg width="100%" height="100%" viewBox="0 0 1024 512" version="1.1" xmlns="http://www.w3.org/2000/svg" xmlns:xlink="http://www.w3.org/1999/xlink" xml:space="preserve" style="fill-rule:evenodd;clip-rule:evenodd;stroke-linejoin:round;stroke-miterlimit:2;"><title>AEFI</title><desc></desc>    <g transform="matrix(2.31343,0,0,2.31343,-409.228,-336.238)">        <g transform="matrix(-2,0,0,2,493.136,-749.564)">            <rect x="104.821" y="529.042" width="14.426" height="14.426" style="fill:rgb(76,12,69);"/>        </g>        <g transform="matrix(-2,0,0,2,550.844,-691.856)">            <rect x="119.248" y="514.615" width="14.426" height="14.426" style="fill:rgb(190,211,58);"/>        </g>        <g transform="matrix(-2,0,0,2,435.432,-807.268)">            <rect x="90.395" y="543.468" width="14.426" height="14.426" style="fill:rgb(1,45,54);"/>        </g>        <g transform="matrix(-2,0,0,2,550.844,-807.268)">            <rect x="119.248" y="543.468" width="14.426" height="14.426" style="fill:rgb(14,178,173);"/>        </g>        <g transform="matrix(-2,0,0,2,597.632,-1017.35)">            <rect x="130.945" y="595.989" width="14.426" height="14.426" style="fill:rgb(14,178,173);"/>        </g>        <g transform="matrix(-2,0,0,2,539.924,-1075.06)">            <rect x="116.518" y="610.415" width="14.426" height="14.426" style="fill:rgb(190,211,58);"/>        </g>        <g transform="matrix(-2,0,0,2,516.53,-913.664)">            <rect x="90.395" y="560.825" width="54.975" height="32.91" style="fill:rgb(76,12,69);"/>        </g>        <g transform="matrix(2,0,0,2,349.958,268.363)">            <path d="M0,-8.165l0,3.15l6.105,0l0,2.721l-6.105,0l0,5.016l-3.46,0l0,-13.609l10.089,0l0,2.722l-6.629,0Z" style="fill:rgb(1,45,54);fill-rule:nonzero;"/>        </g>        <g transform="matrix(2,0,0,2,45,-875.062)">            <rect x="160.762" y="560.825" width="3.46" height="13.609" style="fill:rgb(1,45,54);"/>        </g>        <g transform="matrix(2,0,0,2,397.902,246.589)">            <path d="M0,13.609l-6.26,-8.379l0,8.379l-3.247,0l0,-13.609l3.053,0l6.279,8.399l0,-8.399l3.227,0l0,13.609l-3.052,0Z" style="fill:rgb(1,45,54);fill-rule:nonzero;"/>        </g>        <g transform="matrix(2,0,0,2,422.05,268.21)">            <path d="M0,-8.03l0,10.829l-3.46,0l0,-10.829l-4.064,0l0,-2.799l11.626,0l0,2.799l-4.102,0Z" style="fill:rgb(1,45,54);fill-rule:nonzero;"/>        </g>        <g transform="matrix(2,0,0,2,440.132,268.363)">            <path d="M0,-8.165l0,2.703l6.493,0l0,2.721l-6.493,0l0,2.741l7.407,0l0,2.722l-10.867,0l0,-13.609l10.653,0l0,2.722l-7.193,0Z" style="fill:rgb(1,45,54);fill-rule:nonzero;"/>        </g>        <g transform="matrix(2,0,0,2,483.138,269.531)">            <path d="M0,-9.293l-2.003,2.372c-0.894,-1.089 -2.216,-1.769 -3.422,-1.769c-2.157,0 -3.79,1.711 -3.79,3.946c0,2.275 1.633,4.005 3.79,4.005c1.148,0 2.47,-0.622 3.422,-1.594l2.022,2.139c-1.458,1.497 -3.616,2.488 -5.618,2.488c-4.103,0 -7.155,-3.014 -7.155,-6.999c0,-3.927 3.131,-6.882 7.271,-6.882c2.023,0 4.122,0.894 5.483,2.294" style="fill:rgb(1,45,54);fill-rule:nonzero;"/>        </g>        <g transform="matrix(2,0,0,2,504.524,246.589)">            <path d="M0,13.609l0,-5.288l-5.638,0l0,5.288l-3.461,0l0,-13.609l3.461,0l0,5.599l5.638,0l0,-5.599l3.46,0l0,13.609l-3.46,0Z" style="fill:rgb(1,45,54);fill-rule:nonzero;"/>        </g>        <g transform="matrix(2,0,0,2,539.171,265.138)">            <path d="M0,-1.809c0,-1.283 -0.817,-2.119 -2.021,-2.119c-1.167,0 -1.965,0.855 -2.179,2.119l4.2,0Zm3.227,1.808l-7.368,0c0.33,1.244 1.225,1.945 2.469,1.945c0.913,0 1.808,-0.37 2.508,-1.07l1.769,1.731c-1.069,1.166 -2.644,1.847 -4.568,1.847c-3.422,0 -5.561,-2.14 -5.561,-5.327c0,-3.248 2.216,-5.386 5.463,-5.386c3.694,0 5.521,2.431 5.288,6.26" style="fill:rgb(1,45,54);fill-rule:nonzero;"/>        </g>        <g transform="matrix(2,0,0,2,45,-809.378)">            <rect x="149.018" y="544.404" width="3.46" height="13.609" style="fill:rgb(1,45,54);"/>        </g>        <g transform="matrix(2,0,0,2,374.416,279.431)">            <path d="M0,13.609l-6.26,-8.379l0,8.379l-3.247,0l0,-13.609l3.053,0l6.279,8.399l0,-8.399l3.227,0l0,13.609l-3.052,0Z" style="fill:rgb(1,45,54);fill-rule:nonzero;"/>        </g>        <g transform="matrix(2,0,0,2,407.157,303.851)">            <path d="M0,-10.849l-1.302,2.703c-1.439,-0.836 -3.247,-1.42 -4.355,-1.42c-0.895,0 -1.497,0.331 -1.497,0.992c0,2.352 7.193,1.01 7.193,5.929c0,2.722 -2.411,4.161 -5.444,4.161c-2.274,0 -4.607,-0.856 -6.22,-2.177l1.341,-2.665c1.399,1.226 3.499,2.042 4.918,2.042c1.089,0 1.769,-0.408 1.769,-1.186c0,-2.41 -7.192,-0.972 -7.192,-5.793c0,-2.509 2.157,-4.102 5.423,-4.102c1.964,0 3.967,0.603 5.366,1.516" style="fill:rgb(1,45,54);fill-rule:nonzero;"/>        </g>        <g transform="matrix(2,0,0,2,435.504,291.173)">            <path d="M0,2.022c0,3.597 -2.391,5.871 -6.202,5.871c-3.83,0 -6.279,-2.274 -6.279,-5.871l0,-7.893l3.46,0l0,7.893c0,1.847 1.187,2.975 2.839,2.975c1.633,0 2.741,-1.128 2.741,-2.975l0,-7.893l3.441,0l0,7.893Z" style="fill:rgb(1,45,54);fill-rule:nonzero;"/>        </g>        <g transform="matrix(2,0,0,2,452.653,292.536)">            <path d="M0,0.505c1.497,0 2.372,-0.759 2.372,-2.198c0,-1.418 -0.875,-2.138 -2.372,-2.138l-2.624,0l0,4.336l2.624,0Zm0.097,2.721l-0.097,0l-2.624,0l0,3.831l-3.461,0l0,-13.609l6.085,0c3.597,0 5.657,1.711 5.657,4.743c0,2.081 -0.874,3.578 -2.469,4.374l2.858,4.492l-3.927,0l-2.022,-3.831Z" style="fill:rgb(1,45,54);fill-rule:nonzero;"/>        </g>        <g transform="matrix(2,0,0,2,481.233,301.051)">            <path d="M0,-8.03l0,10.829l-3.46,0l0,-10.829l-4.064,0l0,-2.799l11.626,0l0,2.799l-4.102,0Z" style="fill:rgb(1,45,54);fill-rule:nonzero;"/>        </g>        <g transform="matrix(2,0,0,2,499.315,301.204)">            <path d="M0,-8.165l0,2.703l6.493,0l0,2.721l-6.493,0l0,2.741l7.407,0l0,2.722l-10.867,0l0,-13.609l10.654,0l0,2.722l-7.194,0Z" style="fill:rgb(1,45,54);fill-rule:nonzero;"/>        </g>        <g transform="matrix(2,0,0,2,542.321,302.372)">            <path d="M0,-9.293l-2.003,2.372c-0.894,-1.089 -2.216,-1.769 -3.421,-1.769c-2.158,0 -3.791,1.711 -3.791,3.946c0,2.275 1.633,4.005 3.791,4.005c1.147,0 2.469,-0.622 3.421,-1.594l2.022,2.139c-1.458,1.497 -3.616,2.488 -5.618,2.488c-4.102,0 -7.154,-3.014 -7.154,-6.999c0,-3.927 3.13,-6.882 7.27,-6.882c2.023,0 4.122,0.894 5.483,2.294" style="fill:rgb(1,45,54);fill-rule:nonzero;"/>        </g>        <g transform="matrix(2,0,0,2,563.708,279.431)">            <path d="M0,13.609l0,-5.288l-5.639,0l0,5.288l-3.46,0l0,-13.609l3.46,0l0,5.599l5.639,0l0,-5.599l3.46,0l0,13.609l-3.46,0Z" style="fill:rgb(1,45,54);fill-rule:nonzero;"/>        </g>        <g transform="matrix(2,0,0,2,243.786,243.914)">            <path d="M0,0.992l-0.583,-1.687c-0.122,-0.382 -0.208,-0.731 -0.296,-1.07l-0.025,0c-0.079,0.339 -0.174,0.704 -0.287,1.061l-0.575,1.696l1.766,0Zm-1.922,0.592l-0.609,1.843l-0.783,0l1.992,-5.862l0.914,0l2,5.862l-0.809,0l-0.626,-1.843l-2.079,0Z" style="fill:rgb(190,211,58);fill-rule:nonzero;"/>        </g>        <g transform="matrix(2,0,0,2,248.498,240.89)">            <path d="M0,4.017c0.339,0.209 0.826,0.374 1.348,0.374c0.774,0 1.226,-0.4 1.226,-0.991c0,-0.549 -0.313,-0.87 -1.105,-1.166c-0.956,-0.33 -1.547,-0.834 -1.547,-1.652c0,-0.913 0.756,-1.591 1.896,-1.591c0.591,0 1.034,0.139 1.287,0.278l-0.209,0.626c-0.183,-0.113 -0.574,-0.278 -1.105,-0.278c-0.8,0 -1.104,0.478 -1.104,0.878c0,0.539 0.357,0.808 1.165,1.122c0.991,0.391 1.487,0.861 1.487,1.722c0,0.895 -0.661,1.687 -2.044,1.687c-0.565,0 -1.182,-0.174 -1.496,-0.383l0.201,-0.626Z" style="fill:rgb(190,211,58);fill-rule:nonzero;"/>        </g>        <g transform="matrix(2,0,0,2,261.923,240.09)">            <path d="M0,4.817c1.2,0 1.879,-1.104 1.879,-2.435c0,-1.166 -0.609,-2.383 -1.871,-2.383c-1.261,0 -1.887,1.174 -1.887,2.444c0,1.235 0.678,2.374 1.87,2.374l0.009,0Zm-0.044,0.618c-1.556,0 -2.634,-1.2 -2.634,-2.974c0,-1.862 1.147,-3.079 2.713,-3.079c1.609,0 2.643,1.226 2.643,2.966c0,2.009 -1.226,3.087 -2.713,3.087l-0.009,0Z" style="fill:rgb(190,211,58);fill-rule:nonzero;"/>        </g>        <g transform="matrix(2,0,0,2,277.418,239.427)">            <path d="M0,5.479c-0.27,0.14 -0.835,0.278 -1.548,0.278c-1.653,0 -2.887,-1.043 -2.887,-2.965c0,-1.835 1.244,-3.07 3.061,-3.07c0.721,0 1.192,0.156 1.391,0.252l-0.191,0.626c-0.278,-0.138 -0.688,-0.243 -1.174,-0.243c-1.374,0 -2.287,0.879 -2.287,2.409c0,1.435 0.825,2.347 2.244,2.347c0.469,0 0.939,-0.094 1.243,-0.243l0.148,0.609Z" style="fill:rgb(190,211,58);fill-rule:nonzero;"/>        </g>        <g transform="matrix(-2,0,0,2,515.152,-905.644)">            <rect x="117.155" y="572.344" width="0.766" height="5.862" style="fill:rgb(190,211,58);"/>        </g>        <g transform="matrix(2,0,0,2,289.224,243.914)">            <path d="M0,0.992l-0.582,-1.687c-0.123,-0.382 -0.209,-0.731 -0.297,-1.07l-0.025,0c-0.079,0.339 -0.174,0.704 -0.287,1.061l-0.575,1.696l1.766,0Zm-1.922,0.592l-0.609,1.843l-0.783,0l1.992,-5.862l0.914,0l2,5.862l-0.81,0l-0.625,-1.843l-2.079,0Z" style="fill:rgb(190,211,58);fill-rule:nonzero;"/>        </g>        <g transform="matrix(2,0,0,2,302.041,239.427)">            <path d="M0,5.479c-0.27,0.14 -0.835,0.278 -1.548,0.278c-1.653,0 -2.887,-1.043 -2.887,-2.965c0,-1.835 1.244,-3.07 3.061,-3.07c0.721,0 1.192,0.156 1.391,0.252l-0.191,0.626c-0.278,-0.138 -0.688,-0.243 -1.174,-0.243c-1.374,0 -2.287,0.879 -2.287,2.409c0,1.435 0.825,2.347 2.244,2.347c0.469,0 0.939,-0.094 1.243,-0.243l0.148,0.609Z" style="fill:rgb(190,211,58);fill-rule:nonzero;"/>        </g>        <g transform="matrix(-2,0,0,2,564.396,-905.644)">            <rect x="129.466" y="572.344" width="0.766" height="5.862" style="fill:rgb(190,211,58);"/>        </g>        <g transform="matrix(2,0,0,2,315.326,250.96)">            <path d="M0,-7.314l-1.113,1.017l-0.618,0l0.809,-1.017l0.922,0Zm-1.278,6.697c1.2,0 1.878,-1.105 1.878,-2.435c0,-1.166 -0.609,-2.384 -1.87,-2.384c-1.261,0 -1.887,1.175 -1.887,2.444c0,1.235 0.678,2.375 1.87,2.375l0.009,0Zm-0.044,0.617c-1.557,0 -2.635,-1.2 -2.635,-2.975c0,-1.86 1.147,-3.078 2.714,-3.078c1.609,0 2.643,1.226 2.643,2.965c0,2.009 -1.226,3.088 -2.714,3.088l-0.008,0Z" style="fill:rgb(190,211,58);fill-rule:nonzero;"/>        </g>        <g transform="matrix(2,0,0,2,320.088,239.044)">            <path d="M0,5.862l0,-5.862l0.835,0l1.87,2.966c0.426,0.687 0.774,1.304 1.044,1.905l0.025,-0.009c-0.069,-0.783 -0.087,-1.496 -0.087,-2.4l0,-2.462l0.713,0l0,5.862l-0.765,0l-1.861,-2.975c-0.408,-0.651 -0.799,-1.321 -1.087,-1.956l-0.026,0.008c0.044,0.74 0.052,1.444 0.052,2.419l0,2.504l-0.713,0Z" style="fill:rgb(190,211,58);fill-rule:nonzero;"/>        </g>        <g transform="matrix(2,0,0,2,259.75,261.001)">            <path d="M0,0.364l-2.27,0l0,2.113l2.54,0l0,0.636l-3.305,0l0,-5.862l3.175,0l0,0.634l-2.41,0l0,1.853l2.27,0l0,0.626Z" style="fill:rgb(190,211,58);fill-rule:nonzero;"/>        </g>        <g transform="matrix(2,0,0,2,262.061,257.346)">            <path d="M0,4.018c0.339,0.209 0.826,0.374 1.348,0.374c0.774,0 1.226,-0.4 1.226,-0.991c0,-0.549 -0.313,-0.87 -1.105,-1.166c-0.956,-0.33 -1.547,-0.834 -1.547,-1.652c0,-0.913 0.756,-1.592 1.896,-1.592c0.591,0 1.034,0.14 1.287,0.278l-0.209,0.627c-0.183,-0.113 -0.574,-0.278 -1.105,-0.278c-0.8,0 -1.104,0.478 -1.104,0.878c0,0.539 0.357,0.808 1.165,1.122c0.991,0.391 1.487,0.861 1.487,1.722c0,0.895 -0.661,1.687 -2.044,1.687c-0.565,0 -1.182,-0.174 -1.496,-0.383l0.201,-0.626Z" style="fill:rgb(190,211,58);fill-rule:nonzero;"/>        </g>        <g transform="matrix(2,0,0,2,272.338,261.364)">            <path d="M0,-0.044c0.165,0.044 0.374,0.061 0.626,0.061c0.914,0 1.47,-0.443 1.47,-1.243c0,-0.774 -0.548,-1.149 -1.383,-1.149c-0.33,0 -0.583,0.027 -0.713,0.061l0,2.27Zm-0.757,-2.809c0.366,-0.07 0.844,-0.122 1.453,-0.122c0.748,0 1.296,0.174 1.643,0.487c0.322,0.279 0.523,0.705 0.523,1.218c0,0.531 -0.157,0.948 -0.462,1.252c-0.4,0.426 -1.052,0.644 -1.791,0.644c-0.226,0 -0.435,-0.009 -0.609,-0.052l0,2.357l-0.757,0l0,-5.784Z" style="fill:rgb(190,211,58);fill-rule:nonzero;"/>        </g>        <g transform="matrix(2,0,0,2,284.356,260.371)">            <path d="M0,0.992l-0.582,-1.687c-0.123,-0.382 -0.209,-0.73 -0.297,-1.07l-0.025,0c-0.079,0.34 -0.174,0.704 -0.287,1.062l-0.575,1.695l1.766,0Zm-1.922,0.592l-0.609,1.843l-0.783,0l1.992,-5.862l0.914,0l2,5.862l-0.809,0l-0.626,-1.843l-2.079,0Z" style="fill:rgb(190,211,58);fill-rule:nonzero;"/>        </g>        <g transform="matrix(2,0,0,2,291.588,265.433)">            <path d="M0,-5.322c-0.009,-0.531 0.217,-0.887 0.592,-0.887c0.19,0 0.33,0.078 0.512,0.174c0.139,0.079 0.279,0.156 0.418,0.156c0.13,0 0.208,-0.061 0.235,-0.339l0.4,0c0.008,0.548 -0.183,0.844 -0.583,0.844c-0.183,0 -0.339,-0.07 -0.53,-0.165c-0.166,-0.087 -0.279,-0.166 -0.41,-0.166c-0.138,0 -0.199,0.148 -0.226,0.383l-0.408,0Zm-1.166,6.218l0,-5.862l0.835,0l1.871,2.966c0.425,0.687 0.774,1.304 1.043,1.905l0.026,-0.009c-0.069,-0.783 -0.087,-1.496 -0.087,-2.4l0,-2.462l0.713,0l0,5.862l-0.766,0l-1.86,-2.975c-0.409,-0.651 -0.8,-1.321 -1.088,-1.956l-0.025,0.008c0.043,0.74 0.052,1.444 0.052,2.419l0,2.504l-0.714,0Z" style="fill:rgb(190,211,58);fill-rule:nonzero;"/>        </g>        <g transform="matrix(2,0,0,2,305.361,256.547)">            <path d="M0,4.817c1.2,0 1.878,-1.105 1.878,-2.435c0,-1.166 -0.608,-2.383 -1.87,-2.383c-1.261,0 -1.887,1.174 -1.887,2.444c0,1.235 0.678,2.374 1.87,2.374l0.009,0Zm-0.044,0.618c-1.556,0 -2.634,-1.2 -2.634,-2.974c0,-1.862 1.147,-3.079 2.713,-3.079c1.609,0 2.643,1.226 2.643,2.966c0,2.009 -1.226,3.087 -2.713,3.087l-0.009,0Z" style="fill:rgb(190,211,58);fill-rule:nonzero;"/>        </g>        <g transform="matrix(2,0,0,2,312.663,267.226)">            <path d="M0,-5.862l0.766,0l0,5.227l2.504,0l0,0.635l-3.27,0l0,-5.862Z" style="fill:rgb(190,211,58);fill-rule:nonzero;"/>        </g>        <g transform="matrix(2,0,0,2,326.628,260.371)">            <path d="M0,0.992l-0.583,-1.687c-0.122,-0.382 -0.208,-0.73 -0.296,-1.07l-0.025,0c-0.079,0.34 -0.174,0.704 -0.287,1.062l-0.575,1.695l1.766,0Zm-1.922,0.592l-0.609,1.843l-0.783,0l1.992,-5.862l0.914,0l2,5.862l-0.809,0l-0.626,-1.843l-2.079,0Z" style="fill:rgb(190,211,58);fill-rule:nonzero;"/>        </g>    </g></svg>