<?xml version="1.0" encoding="UTF-8" standalone="no"?><!DOCTYPE svg PUBLIC "-//W3C//DTD SVG 1.1//EN" "http://www.w3.org/Graphics/SVG/1.1/DTD/svg11.dtd"><svg width="100%" height="100%" viewBox="0 0 1024 512" version="1.1" xmlns="http://www.w3.org/2000/svg" xmlns:xlink="http://www.w3.org/1999/xlink" xml:space="preserve" style="fill-rule:evenodd;clip-rule:evenodd;stroke-linejoin:round;stroke-miterlimit:2;"><title>Lendermarket</title><desc>Lendermarket is the provider of lending marketplace platform that connects investors with borrowers. At Lendermarket, both retail and institutional investors can invest in consumer loans originated across Europe.Lendermarket is a sister company of Creditstar Group AS, which is the parent company of Creditstar’s operational subsidiaries.Lendermarket is a P2P crowdfunding marketplace that brings you investment opportunities from Creditstar Group’s companies across different European markets. Creditstar Group is a leading digital consumer finance company in Europe.</desc>    <g transform="matrix(1.03125,0,0,1.03125,2,25.7898)">        <g transform="matrix(5.27803,0,0,5.27803,180.189,146.793)">            <path d="M1.706,21l0,-13.095l3.375,0l0,10.056l5.818,0l0,3.039l-9.193,0Zm11.006,0l0,-13.095l9.125,0l0,2.752l-5.751,0l0,2.415l4.994,0l0,2.761l-4.994,0l0,2.397l5.751,0l0,2.77l-9.125,0Zm11.312,0l0,-13.095l3.374,0l5.32,7.851l0,-7.851l3.384,0l0,13.095l-3.336,0l-5.368,-7.793l0,7.793l-3.374,0Zm14.878,0l0,-13.095l4.716,0c2.026,0 3.569,0.556 4.63,1.668c1.061,1.112 1.591,2.742 1.591,4.889c0,2.135 -0.53,3.758 -1.591,4.87c-1.061,1.112 -2.604,1.668 -4.63,1.668l-4.716,0Zm3.374,-2.77l1.342,0c1.898,0 2.847,-1.256 2.847,-3.768c0,-2.537 -0.949,-3.805 -2.847,-3.805l-1.342,0l0,7.573Zm9.817,2.77l0,-13.095l9.125,0l0,2.752l-5.751,0l0,2.415l4.994,0l0,2.761l-4.994,0l0,2.397l5.751,0l0,2.77l-9.125,0Zm11.369,0l0,-13.095l5.167,0c1.598,0 2.876,0.374 3.834,1.122c0.965,0.741 1.448,1.786 1.448,3.135c0,1.035 -0.24,1.888 -0.719,2.559c-0.479,0.665 -1.118,1.128 -1.917,1.39l3.163,4.889l-3.767,0l-2.435,-4.381l-1.4,0l0,4.381l-3.374,0Zm3.374,-6.912l2.004,0c0.46,0 0.856,-0.159 1.189,-0.479c0.332,-0.319 0.498,-0.728 0.498,-1.227c0,-0.511 -0.166,-0.926 -0.498,-1.246c-0.333,-0.32 -0.729,-0.479 -1.189,-0.479l-2.004,0l0,3.431Z" style="fill:rgb(236,46,14);fill-rule:nonzero;"/>        </g>        <g transform="matrix(5.27803,0,0,5.27803,180.189,146.793)">            <path d="M76.385,21l0,-13.095l3.316,0l3.087,4.458l3.077,-4.458l3.327,0l0,13.095l-3.384,0l0,-8.11l-3.02,4.343l-3.029,-4.343l0,8.11l-3.374,0Zm14.465,0l5.206,-13.095l3.182,0l5.196,13.095l-3.633,0l-1.016,-3.144l-4.285,0l-1.016,3.144l-3.634,0Zm5.455,-5.637l2.655,0l-1.313,-4.064l-1.342,4.064Zm9.682,5.637l0,-13.095l5.167,0c1.598,0 2.876,0.374 3.835,1.122c0.965,0.741 1.447,1.786 1.447,3.135c0,1.035 -0.239,1.888 -0.719,2.559c-0.479,0.665 -1.118,1.128 -1.917,1.39l3.163,4.889l-3.767,0l-2.435,-4.381l-1.399,0l0,4.381l-3.375,0Zm3.375,-6.912l2.003,0c0.46,0 0.856,-0.159 1.189,-0.479c0.332,-0.319 0.498,-0.728 0.498,-1.227c0,-0.511 -0.166,-0.927 -0.498,-1.246c-0.333,-0.32 -0.729,-0.479 -1.189,-0.479l-2.003,0l0,3.431Zm9.433,6.912l0,-13.095l3.374,0l0,4.611l3.595,-4.611l4.553,0l-5.138,5.695l5.512,7.4l-4.256,0l-3.336,-5.1l-0.93,1.036l0,4.064l-3.374,0Zm13.497,0l0,-13.095l9.126,0l0,2.752l-5.751,0l0,2.415l4.994,0l0,2.761l-4.994,0l0,2.397l5.751,0l0,2.77l-9.126,0Zm10.018,-10.037l0,-3.058l10.948,0l0,3.058l-3.806,0l0,10.037l-3.374,0l0,-10.037l-3.768,0Z" style="fill:rgb(255,210,108);fill-rule:nonzero;"/>        </g>        <g transform="matrix(2.02073e-15,5.27803,5.27803,-2.02073e-15,-0.00088143,152.357)">            <path d="M11.31,4.266c0.87,-1.751 3.368,-1.751 4.238,0l9.611,19.35c0.781,1.573 -0.363,3.419 -2.119,3.419l-19.223,0c-1.756,0 -2.9,-1.846 -2.119,-3.419l9.612,-19.35Z" style="fill:rgb(236,46,14);"/>        </g>        <g transform="matrix(-2.02073e-15,5.27803,-5.27803,-2.02073e-15,142.689,152.357)">            <path d="M11.31,4.266c0.87,-1.751 3.368,-1.751 4.238,0l9.611,19.35c0.781,1.573 -0.363,3.419 -2.119,3.419l-19.223,0c-1.756,0 -2.9,-1.846 -2.119,-3.419l9.612,-19.35Z" style="fill:rgb(255,175,0);fill-opacity:0.7;"/>        </g>    </g></svg>