<?xml version="1.0" encoding="UTF-8" standalone="no"?><!DOCTYPE svg PUBLIC "-//W3C//DTD SVG 1.1//EN" "http://www.w3.org/Graphics/SVG/1.1/DTD/svg11.dtd"><svg width="100%" height="100%" viewBox="0 0 1024 512" version="1.1" xmlns="http://www.w3.org/2000/svg" xmlns:xlink="http://www.w3.org/1999/xlink" xml:space="preserve" style="fill-rule:evenodd;clip-rule:evenodd;stroke-linejoin:round;stroke-miterlimit:2;"><title>GoFundMe</title><desc></desc>    <g transform="matrix(0.323921,0,0,0.323921,2.00527,106.999)">        <path d="M3089.71,416c4,-9.11 7.49,-17.47 11.28,-25.7c1.63,-3.55 7.41,-5.29 10.89,-3.83c2,0.82 1.39,2.46 1.39,3.83c0,16 0,32 0.09,47.95c0,3 -0.94,4 -4,4c-3.06,0 -4,-1.05 -4,-4.05c0.12,-11.32 0.07,-22.65 0,-34c0,-1.75 0.39,-3.58 -0.74,-5.85c-3.55,8.59 -8.11,16.24 -10.83,24.71c-0.65,2 -1.24,3.65 -3.79,3.86c-2.55,0.21 -3.8,-0.92 -4.77,-3.25c-2.79,-6.71 -5.82,-13.33 -8.84,-19.95c-0.58,-1.28 -0.84,-2.89 -2.77,-3.63c-1.06,2 -0.56,4.18 -0.57,6.22c-0.06,10.48 -0.11,21 0,31.46c0,3.08 -0.66,4.48 -4.12,4.47c-3.46,-0.01 -3.59,-1.9 -3.59,-4.46c0.05,-15.32 0,-30.64 0.08,-45.95c0,-2 -1.32,-5.41 2.4,-5.41c3.28,0 7.4,-2.09 9.53,2.83c3.47,8 7.21,15.93 10.85,23.87c0.39,0.78 0.8,1.49 1.51,2.88Z" style="fill:rgb(0,188,90);fill-rule:nonzero;"/>        <path d="M3032.23,418c0,-6.15 -0.32,-12.32 0.11,-18.44c0.35,-5 -1.56,-6.5 -6.23,-5.95c-2.62,0.31 -5.32,-0.07 -8,0.09c-2.81,0.16 -4.21,-0.49 -4.23,-3.78c0,-3.49 1.76,-3.65 4.37,-3.63c12.14,0.07 24.28,0.09 36.42,0c2.91,0 4.22,0.8 4.18,4c-0.04,3.2 -1.64,3.54 -4.14,3.47c-3.16,-0.1 -6.34,0.2 -9.47,-0.08c-3.87,-0.36 -5.18,0.93 -5.1,4.95c0.24,12.8 0,25.61 0.12,38.41c0,3.1 0.06,5.35 -4.29,5.27c-4.35,-0.08 -3.77,-2.63 -3.77,-5.28c0.033,-6.36 0.043,-12.703 0.03,-19.03Z" style="fill:rgb(0,188,90);fill-rule:nonzero;"/>        <path d="M2321,539.12c8.54,-7.44 16.29,-14.2 25.06,-19.62c25.18,-15.57 52.67,-20.37 81.84,-17.84c13.613,1.063 26.954,4.392 39.47,9.85c18,8 31.38,21 42.31,37c1.82,2.65 2.75,3.17 4.79,0.12c18.67,-27.91 45.38,-43.2 78.19,-47.22c32.5,-4 62.74,2.37 87.81,25c12.64,11.43 19.71,26.15 22.7,42.89c1.905,11.148 2.832,22.441 2.77,33.75c0.13,57.32 0,114.65 0.18,172c0,4.89 -1.36,6 -6.11,6c-30.16,-0.22 -60.323,-0.22 -90.49,0c-4.38,0 -5.58,-1.06 -5.56,-5.51c0.173,-45.16 0.193,-90.32 0.06,-135.48c0.109,-10.818 -1.032,-21.613 -3.4,-32.17c-8.72,-37 -50.71,-37.23 -69.43,-19.72c-11.51,10.77 -15.33,24.51 -17,39.35c-1.44,12.62 -0.88,25.28 -0.9,37.93c-0.06,36.833 -0.043,73.66 0.05,110.48c0,3.81 -0.84,5.14 -4.93,5.11c-30.667,-0.167 -61.333,-0.167 -92,0c-4.29,0 -5.19,-1.33 -5.18,-5.37c0.14,-45.66 0.08,-91.32 0.09,-137c0,-9.33 -0.32,-18.63 -2.12,-27.82c-3.34,-17.11 -13.57,-27.79 -30.37,-32c-19.81,-4.93 -39.38,2.53 -49.78,18.81c-6.25,9.77 -7.6,21 -7.68,32.12c-0.353,48.333 -0.423,96.667 -0.21,145c0,5.18 -1.4,6.29 -6.36,6.25c-30.16,-0.24 -60.323,-0.24 -90.49,0c-4.22,0 -5.23,-1.19 -5.22,-5.3c0.107,-88.493 0.107,-176.983 0,-265.47c0,-4.34 1.39,-5.16 5.38,-5.14c30.5,0.16 60.997,0.16 91.49,0c4.31,0 5.29,1.35 5.17,5.38c-0.3,9.12 -0.13,18.29 -0.13,28.62Z" style="fill:rgb(0,188,90);fill-rule:nonzero;"/>        <path d="M2014.39,753c-6.27,6.09 -12.32,12 -19.15,16.93c-15.55,11.29 -33.15,17 -52.14,19.16c-29.4,3.33 -57.42,-1.37 -83.33,-15.5c-41.18,-22.45 -67.92,-56.2 -75.28,-103.19c-6,-38.51 -1.58,-75.78 20.64,-108.91c23.87,-35.49 57.08,-57.21 99.87,-63.49c31.48,-4.64 61.12,0.38 88.54,16.89c7.29,4.38 13.46,10.26 20.15,16c1.24,-2 0.71,-4 0.71,-5.83c0,-61.48 -0.03,-122.963 -0.09,-184.45c0,-5.07 1.34,-6.46 6.42,-6.42c30.49,0.24 61,0.18 91.47,0c3.84,0 5.1,0.9 5.1,5c-0.107,145.633 -0.107,291.263 0,436.89c0,3.75 -0.73,5.13 -4.87,5.11c-30.987,-0.187 -61.987,-0.187 -93,0c-4,0 -5.2,-1.26 -5.08,-5.14c0.21,-7.69 0.04,-15.35 0.04,-23.05Zm-61.26,-48c3.66,0 7.37,0.38 11,-0.06c37.2,-4.54 62.31,-43 51.3,-79.13c-12.87,-42.17 -62.82,-57.2 -97.4,-34.89c-25.18,16.25 -32.21,39.34 -28.39,62.91c4.69,29.04 31.93,53.17 63.49,51.17Z" style="fill:rgb(0,188,90);fill-rule:nonzero;"/>        <path d="M560.47,494.93c36.65,-0.06 67.18,4.87 95.22,20c39,21.12 66.53,52 76.37,96.15c15,67.37 -17.49,132.39 -80.13,162.06c-22.24,10.53 -45.81,15.46 -70.28,17.15c-26.1,1.8 -51.9,0.36 -77.19,-6.34c-46.31,-12.26 -81.84,-38.65 -101.48,-83c-21.81,-49.22 -16.31,-109.35 24.39,-153c25.46,-27.3 56.76,-42.72 93.06,-49.16c14.95,-2.58 29.97,-3.97 40.04,-3.86Zm2.77,84c-4.994,-0.102 -9.985,0.293 -14.9,1.18c-37.41,7.32 -65.87,50.33 -45.38,90.76c13.82,27.27 42.55,40.83 74.33,35.13c35.93,-6.46 59.09,-42.12 51.16,-77.66c-5.62,-25.19 -32.37,-50.67 -65.21,-49.43l0,0.02Z" style="fill:rgb(0,188,90);fill-rule:nonzero;"/>        <path d="M1524.25,539.31c7.004,-8.365 15.018,-15.829 23.86,-22.22c14.73,-10.48 31.46,-15.38 49.28,-17.18c22.76,-2.29 45.2,-1.43 66.74,7c32.74,12.87 51.9,36.92 58.14,71.48c1.7,9.39 2,18.81 2,28.3c-0.04,56.32 -0.01,112.637 0.09,168.95c0,4.45 -1.17,5.51 -5.54,5.48c-30.32,-0.2 -60.653,-0.2 -91,0c-5.06,0 -5.89,-1.56 -5.88,-6.17c0.173,-46.32 0.173,-92.637 0,-138.95c0.025,-9.638 -0.951,-19.253 -2.91,-28.69c-3.51,-16.21 -13.76,-26.26 -29.46,-29.74c-20.71,-4.6 -39.33,-0.08 -53.88,16.4c-7,7.93 -9.35,17.75 -10.61,28c-1.46,11.78 -0.81,23.61 -0.83,35.41c-0.087,39.493 -0.067,78.983 0.06,118.47c0,4.12 -1,5.3 -5.23,5.28c-30.667,-0.187 -61.333,-0.187 -92,0c-4.28,0 -5.17,-1.29 -5.16,-5.34c0.107,-88.473 0.107,-176.947 0,-265.42c0,-4.49 1.23,-5.48 5.56,-5.45c30.487,0.193 60.977,0.193 91.47,0c4,0 5.51,0.83 5.36,5.15c-0.31,9.33 -0.06,18.64 -0.06,29.24Z" style="fill:rgb(0,188,90);fill-rule:nonzero;"/>        <path d="M1356.18,600.64c0,29 0.62,58 -0.16,87c-1,37.47 -17.66,66.15 -50.9,84.48c-20.09,11.07 -41.86,16.37 -64.49,19.09c-17.531,2.009 -35.197,2.568 -52.82,1.67c-32.3,-1.44 -63.8,-6.76 -91.8,-24.47c-26.713,-16.887 -41.713,-41.117 -45,-72.69c-0.659,-7.458 -0.929,-14.944 -0.81,-22.43c0,-54.16 0,-108.33 -0.12,-162.49c0,-4.41 0.91,-5.9 5.66,-5.86c30.5,0.233 61,0.233 91.5,0c4.51,0 5.88,1 5.86,5.74c-0.18,50.83 -0.08,101.66 -0.14,152.49c0,8.24 0.88,16.25 4.19,23.86c5.89,13.55 16.95,20.77 30.77,23.68c12.48,2.62 25.16,2.46 37.4,-1.84c16.76,-5.9 25.56,-18.15 27.86,-35.53c1,-7.62 0.95,-15.26 0.95,-22.91c0,-46.67 0.06,-93.33 -0.11,-140c0,-4.42 1.11,-5.53 5.51,-5.5c30.5,0.2 61,0.2 91.5,0c4.08,0 5.34,0.94 5.31,5.19c-0.19,30.16 -0.1,60.33 -0.1,90.5l-0.06,0.02Z" style="fill:rgb(0,188,90);fill-rule:nonzero;"/>        <path d="M2974.56,661.27l-100.48,0c-5.79,0 -6.27,0.59 -5.51,6.36c0.75,5.59 1.11,11.23 2.59,16.73c4.69,17.38 15.11,29.41 32.53,34.78c15.1,4.66 30.34,5.59 45.69,1c11.12,-3.3 19.87,-10 26.71,-19.15c2,-2.64 3.95,-3.92 7.39,-3.91c29.333,0.14 58.667,0.14 88,0c4.83,0 5.09,1.44 3.73,5.47c-15.47,45.76 -48.2,72 -94.07,83.48c-14.91,3.71 -30.09,5.06 -45.47,5.32c-26.64,0.46 -52.88,-1.9 -77.91,-11.4c-49.1,-18.64 -80.2,-53.27 -89.55,-105.42c-7.13,-39.76 -1.94,-78 20.07,-112.72c16.84,-26.58 40.53,-45 70.4,-54.6c40.42,-13 81.58,-14 122.37,-2.4c50.48,14.3 80.37,49.19 94.09,98.9c4.88,17.65 5.57,35.75 5.33,53.95c0,4 -2.36,3.6 -4.91,3.6l-101,0.01Zm-46.34,-55.22l53,0c2.08,0 4.8,0.59 3.8,-3.12c-3.71,-13.82 -9.85,-26.11 -21.94,-34.66c-12.09,-8.55 -25.78,-9.88 -40,-9.32c-26,1 -45.63,17.58 -51.19,43c-0.8,3.67 0.18,4.16 3.42,4.14c17.6,-0.09 35.26,-0.04 52.91,-0.04Z" style="fill:rgb(0,188,90);fill-rule:nonzero;"/>        <path d="M835.21,683.17c0,-30.65 -0.08,-61.31 0.09,-92c0,-4.11 -1,-5.45 -5.21,-5.29c-9,0.32 -18,0 -27,0.15c-3.05,0.06 -4,-0.92 -4,-4c0.1,-24.32 0.1,-48.653 0,-73c0,-3.43 1.21,-4.18 4.34,-4.12c8.83,0.18 17.68,-0.23 26.49,0.19c4.63,0.21 5.49,-1.4 5.4,-5.63c-0.28,-12.16 -0.41,-24.33 0,-36.48c0.79,-25.36 5.06,-50.08 19.37,-71.58c19.05,-28.61 45.82,-46.77 79.41,-54.37c23.54,-5.33 46.73,-4.26 69.4,4.78c4.27,1.7 5.63,3.82 5.58,8.39c-0.25,24.15 -0.11,48.32 -0.11,72.48c0,6.95 0,7 -6,4c-10.7,-5.4 -21.83,-8.64 -34,-7.95c-16.81,0.95 -28.23,12.27 -29.79,29c-1.64,17.62 -0.82,35.26 -1.24,52.88c-0.09,3.58 1.13,4.47 4.55,4.45c20.5,-0.15 41,0 61.48,-0.16c3.83,0 5.16,0.88 5.13,5c-0.187,23.487 -0.187,46.98 0,70.48c0,4.27 -1,5.78 -5.55,5.72c-19.66,-0.24 -39.32,-0.13 -59,-0.09c-7.34,0 -6.53,-0.79 -6.53,6.81l0,181.45c0,6.78 0,6.78 -6.77,6.78c-30.32,0 -60.65,-0.07 -91,0.09c-3.91,0 -5.07,-1 -5,-5c0.03,-30.99 -0.04,-61.98 -0.04,-92.98Z" style="fill:rgb(0,188,90);fill-rule:nonzero;"/>        <path d="M3136.1,79.42c-19.53,-23.49 -65.56,-29.28 -94.05,-15.89c-6,2.82 -12.26,5.1 -17.65,9l-170.92,124c-12.17,10.62 -23.19,22.69 -24.92,38.37c-1.58,14.3 0,26.13 12.51,38.9c28.3,28.82 78.26,29 102.08,14.48c21.88,-13.29 166.42,-120.11 190,-137.52l6.12,-6.13c6.99,-9.63 19.1,-38.42 -3.17,-65.21Z" style="fill:rgb(0,188,90);fill-rule:nonzero;"/>        <path d="M2417.1,269.41c12.53,-12.77 14.09,-24.6 12.51,-38.9c-1.73,-15.68 -12.75,-27.75 -24.92,-38.37l-170.92,-124c-5.39,-3.91 -11.64,-6.19 -17.65,-9c-28.49,-13.39 -74.52,-7.6 -94,15.89c-22.27,26.79 -10.16,55.57 -3.12,65.18l6.12,6.13c23.48,17.44 168.02,124.26 189.92,137.55c23.8,14.49 73.76,14.34 102.06,-14.48Z" style="fill:rgb(0,188,90);fill-rule:nonzero;"/>        <path d="M2630.32,237c36.49,0 67.07,-16.61 75.76,-47.45c1.129,-4.241 1.697,-8.611 1.69,-13l0.82,-111.18c0,-0.94 0.07,-1.88 0.07,-2.81c0,-42.74 -34.45,-62.6 -77.71,-62.6c-43,0 -77.95,23.07 -78.3,65.41l-0.08,112.08c-0.07,4.368 0.363,8.731 1.29,13c7.43,32.07 38.82,46.55 76.46,46.55Z" style="fill:rgb(0,188,90);fill-rule:nonzero;"/>        <path d="M2855.9,320.61c-58,-28.86 -134.66,-47 -234.76,-47c-167.72,0 -280.19,52.93 -337.33,129.86l0.86,0l-0.24,0.31l675,-0.06c-24.61,-31.88 -58.43,-60.72 -103.53,-83.11Z" style="fill:rgb(0,188,90);fill-rule:nonzero;"/>        <path d="M230.85,749.65c-5,4.13 -9.07,7.65 -13.29,11c-18.3,14.71 -39.21,22.59 -62.61,24.66c-33.35,3 -64.7,-2.82 -93.23,-20.75c-34.41,-21.56 -53.66,-53.28 -59.58,-93.14c-5,-33.38 -1.71,-66 14.15,-96.12c22.72,-43.1 58.31,-69.19 107,-76.37c25.52,-3.77 50.4,-1.59 74.17,9.17c10.63,4.81 19.56,12 27.67,20.22c1.57,1.6 2.91,3.43 4.36,5.16l1.51,-0.94c0,-7.42 0.17,-14.85 -0.08,-22.26c-0.12,-3.75 0.76,-5.21 4.91,-5.19c30.667,0.18 61.333,0.18 92,0c3.43,0 4.56,0.89 4.56,4.45c-0.12,90.32 0.14,180.64 -0.36,271c-0.12,20.92 -2.56,41.87 -12.44,61.05c-14.62,28.41 -37.45,48.1 -66,61.47c-22.27,10.44 -46,14.82 -70.47,16.35c-30.38,1.9 -60.26,-0.38 -89,-10.46c-36.48,-12.76 -65.12,-35.17 -83.41,-69.77c-3.36,-6.36 -5.2,-13.26 -6.59,-20.32c-0.72,-3.64 -0.14,-4.8 3.93,-4.77c25.49,0.2 51,0.1 76.48,0.1l29,0c2.07,0 3.79,0 4.73,2.54c6.13,16.42 19.24,23.82 35.55,25.88c16.07,2 31.94,0.73 46.56,-7.37c18.6,-10.3 27.81,-26.56 29.73,-47.34c1.15,-12.39 0.9,-24.8 0.75,-38.25Zm-60.44,-43.65c34.78,0.9 65.42,-27.52 65.44,-63.84c0,-35.21 -27.51,-64.76 -65.18,-64.77c-39.91,0 -64.75,33.14 -64.93,64.47c-0.2,33.21 28.55,64.71 64.67,64.14Z" style="fill:rgb(0,188,90);fill-rule:nonzero;"/>    </g></svg>