<?xml version="1.0" encoding="UTF-8" standalone="no"?><!DOCTYPE svg PUBLIC "-//W3C//DTD SVG 1.1//EN" "http://www.w3.org/Graphics/SVG/1.1/DTD/svg11.dtd"><svg width="100%" height="100%" viewBox="0 0 1024 512" version="1.1" xmlns="http://www.w3.org/2000/svg" xmlns:xlink="http://www.w3.org/1999/xlink" xml:space="preserve" style="fill-rule:evenodd;clip-rule:evenodd;stroke-linejoin:round;stroke-miterlimit:2;"><title>ACLE</title><desc></desc>    <g transform="matrix(3.69565,0,0,3.69358,-42.3478,112.677)">        <g transform="matrix(70.467,0,0,73.7366,12.9865,65.6065)">            <path d="M0.553,0l-0.055,-0.139l-0.274,0l-0.052,0.139l-0.186,0l0.297,-0.708l0.166,0l0.294,0.708l-0.19,0Zm-0.19,-0.519l-0.09,0.243l0.178,0l-0.088,-0.243Z" style="fill:rgb(33,31,30);fill-rule:nonzero;"/>        </g>        <g transform="matrix(70.467,0,0,73.7366,172.98,65.6065)">            <path d="M0.073,0l0,-0.708l0.172,0l0,0.559l0.345,0l0,0.149l-0.517,0Z" style="fill:rgb(33,31,30);fill-rule:nonzero;"/>        </g>        <g transform="matrix(70.467,0,0,73.7366,248.045,65.6065)">            <path d="M0.073,0l0,-0.708l0.476,0l0,0.145l-0.311,0l0,0.133l0.294,0l0,0.137l-0.294,0l0,0.147l0.329,0l0,0.146l-0.494,0Z" style="fill:rgb(33,31,30);fill-rule:nonzero;"/>        </g>        <path d="M142.854,52.807c-4.717,7.676 -13.192,12.8 -22.854,12.8c-14.793,0 -26.803,-12.011 -26.803,-26.804c0,-14.793 12.01,-26.803 26.803,-26.803c9.747,0 18.286,5.214 22.977,13.003l-8.657,9.761c-1.761,-6.25 -7.509,-10.837 -14.32,-10.837c-8.21,0 -14.876,6.666 -14.876,14.876c0,8.211 6.666,14.876 14.876,14.876c5.935,0 11.063,-3.483 13.449,-8.514l9.405,7.642Z" style="fill:rgb(173,25,23);"/>    </g></svg>