<?xml version="1.0" encoding="UTF-8" standalone="no"?><!DOCTYPE svg PUBLIC "-//W3C//DTD SVG 1.1//EN" "http://www.w3.org/Graphics/SVG/1.1/DTD/svg11.dtd"><svg width="100%" height="100%" viewBox="0 0 1024 512" version="1.1" xmlns="http://www.w3.org/2000/svg" xmlns:xlink="http://www.w3.org/1999/xlink" xml:space="preserve" style="fill-rule:evenodd;clip-rule:evenodd;stroke-linejoin:round;stroke-miterlimit:2;"><title>EdAid</title><desc>EdAid is a peer-to-peer lending and crowdfunding platform for higher education that allows students to crowdfund their student loans for university from the community at zero interest. We add the Consumer Price Index on to all loans so that lenders receive their money back in real terms over the life of the loan.</desc>    <g id="logo-13" transform="matrix(9.391,0,0,9.391,1.79156,106.518)">        <path id="Fill-1" d="M39.744,7.909l0,16.755l13.461,0l0,-3.45l-9.713,0l0,-4.858l5.281,0c1.341,0 1.997,-0.635 1.97,-1.933l0,-1.242l-7.251,0l0,-4.03l9.713,0l0,-3.257l-11.546,0c-1.286,0.027 -1.915,0.717 -1.915,2.015" style="fill:rgb(28,67,76);"/>        <path id="Fill-2" d="M61.687,21.766c-2.079,0 -3.064,-1.491 -3.037,-4.444c0.109,-2.816 1.122,-4.196 3.092,-4.196c1.97,0 2.982,1.38 3.064,4.196c0,2.953 -1.04,4.444 -3.119,4.444Zm4.925,-15.872l-1.806,0l0,6.211c-0.93,-1.518 -2.326,-2.264 -4.131,-2.264c-3.858,0.138 -5.773,2.678 -5.773,7.646c0,4.859 2.243,7.316 6.73,7.398c4.515,0.028 6.786,-2.153 6.786,-6.542l0,-10.6c0,-0.994 -0.821,-1.849 -1.806,-1.849Z" style="fill:rgb(28,67,76);"/>        <path id="Fill-3" d="M76.325,17.653l2.544,-7.977l2.572,7.977l-5.116,0Zm1.696,-11.759c-0.93,0 -1.532,0.414 -1.806,1.242l-6.211,17.528l4.077,0l1.231,-3.837l7.196,0l1.231,3.837l4.022,0l-6.676,-18.77l-3.064,0Z" style="fill:rgb(28,67,76);"/>        <path id="Fill-4" d="M91.482,5.894l-1.888,0l0,2.87l3.639,0l0,-1.076c0.027,-1.187 -0.547,-1.794 -1.751,-1.794" style="fill:rgb(28,67,76);"/>        <path id="Fill-5" d="M91.482,10.062l-1.888,0l0,14.602l3.639,0l0,-12.835c0,-1.187 -0.575,-1.767 -1.751,-1.767" style="fill:rgb(28,67,76);"/>        <path id="Fill-6" d="M101.906,21.766c-2.079,0 -3.064,-1.491 -3.037,-4.444c0.109,-2.816 1.122,-4.196 3.092,-4.196c1.97,0 2.982,1.38 3.064,4.196c0,2.953 -1.04,4.444 -3.119,4.444Zm4.925,-15.872l-1.806,0l0,6.211c-0.93,-1.518 -2.326,-2.264 -4.131,-2.264c-3.858,0.138 -5.773,2.678 -5.773,7.646c0,4.859 2.243,7.316 6.73,7.398c4.515,0.028 6.786,-2.153 6.786,-6.542l0,-10.6c0,-0.994 -0.821,-1.849 -1.806,-1.849Z" style="fill:rgb(28,67,76);"/>        <path id="Fill-7" d="M18.905,19.445l-14.041,-8.002l14.041,-7.749l13.914,7.876l-13.914,7.875Zm9.84,3.052l-9.932,5.698l-9.955,-5.739l0,-5.006l8.995,5.06c1.251,0.704 2.158,-0.094 2.158,-0.094l8.734,-4.966l0,5.047Zm8.088,-12.515l-16.694,-9.34c0,0 -1.19,-0.977 -2.515,0l-16.693,9.34c0,0 -0.908,0.531 -0.908,1.598l0,10.883c0,0 -0.098,1.546 1.61,1.679c0,0 1.531,0.002 1.618,-1.632l0,-8.187l2.359,1.31l0,7.624c0,0 -0.087,1.014 0.867,1.611l11.632,6.597c0,0 0.679,0.366 1.459,0l11.678,-6.638c0,0 0.756,-0.515 0.766,-1.504l0,-7.63l4.901,-2.74c0,0 0.767,-0.365 0.767,-1.373c0,0 0.202,-0.886 -0.847,-1.598Z" style="fill:rgb(28,67,76);"/>    </g></svg>