<?xml version="1.0" encoding="UTF-8" standalone="no"?><!DOCTYPE svg PUBLIC "-//W3C//DTD SVG 1.1//EN" "http://www.w3.org/Graphics/SVG/1.1/DTD/svg11.dtd"><svg width="100%" height="100%" viewBox="0 0 1024 512" version="1.1" xmlns="http://www.w3.org/2000/svg" xmlns:xlink="http://www.w3.org/1999/xlink" xml:space="preserve" style="fill-rule:evenodd;clip-rule:evenodd;stroke-linejoin:round;stroke-miterlimit:2;"><title>Kickstarter</title><desc>Kickstarter campaigns make ideas into reality. It’s where creators share new visions for creative work with the communities that will come together to fund them.</desc>    <g transform="matrix(1.77391,0,0,1.77391,2,201.896)">        <path d="M523,15.9l0,31.4c0,7.5 6.047,13.7 13.403,13.7c6.047,0 10.783,-3.7 12.496,-9l1.411,2.5c2.519,4.2 6.954,6.5 11.488,6.5c7.357,0 13.202,-5.8 13.202,-13.2c0,-2.5 -0.605,-4.9 -2.016,-7.1l-5.24,-8.3c3.83,-2.9 6.147,-7.5 6.147,-13.1c0,-10.3 -8.263,-18.3 -18.844,-18.3l-17.435,0c-9.472,0 -14.612,5.1 -14.612,14.9" style="fill:rgb(0,210,111);fill-rule:nonzero;"/>        <path d="M519,49.503c0,-5.748 -3.677,-10.084 -8.744,-11.092c2.285,-1.513 3.676,-4.034 3.676,-7.361c0,-3.328 -1.291,-5.849 -3.676,-7.361c5.167,-1.009 8.744,-5.244 8.744,-11.093c0,-6.453 -5.167,-11.596 -11.427,-11.596l-20.867,0c-9.539,0 -14.706,5.143 -14.706,14.924l0,30.151c0,9.882 5.167,14.924 14.706,14.924l20.867,0c6.26,0.1 11.427,-5.042 11.427,-11.496" style="fill:rgb(0,210,111);fill-rule:nonzero;"/>        <path d="M455.8,47.5l0,-20.7c6.7,-0.3 12.2,-5.9 12.2,-12.9c0,-7.2 -5.8,-12.9 -12.9,-12.9l-27.2,0c-7.1,0 -12.9,5.6 -12.9,12.9c0,7 5.5,12.5 12.2,12.9l0,20.7c0,7.4 6.3,13.5 14.1,13.5c8.3,0 14.5,-6.1 14.5,-13.5" style="fill:rgb(0,210,111);fill-rule:nonzero;"/>        <path d="M362,15.9l0,31.4c0,7.5 6.047,13.7 13.403,13.7c6.047,0 10.783,-3.7 12.496,-9l1.411,2.5c2.519,4.2 6.954,6.5 11.488,6.5c7.357,0 13.202,-5.8 13.202,-13.2c0,-2.5 -0.605,-4.9 -2.016,-7.1l-5.24,-8.3c3.83,-2.9 6.147,-7.5 6.147,-13.1c0,-10.3 -8.263,-18.3 -18.844,-18.3l-17.435,0c-9.372,0 -14.612,5.1 -14.612,14.9" style="fill:rgb(0,210,111);fill-rule:nonzero;"/>        <path d="M328.92,49.57c3.411,7.053 8.228,10.43 14.148,10.43c10.636,0 18.162,-9.636 13.546,-20.464l-12.342,-28.609c-3.01,-7.053 -7.526,-10.927 -15.252,-10.927c-7.626,0 -12.141,3.874 -15.252,10.927l-12.342,28.609c-4.716,10.828 2.91,20.464 13.446,20.464c5.82,0 10.636,-3.377 14.048,-10.43" style="fill:rgb(0,210,111);fill-rule:nonzero;"/>        <path d="M293.777,47.5l0,-20.7c6.713,-0.3 12.223,-5.9 12.223,-12.9c0,-7.2 -5.811,-12.9 -12.924,-12.9l-27.152,0c-7.113,0 -12.924,5.6 -12.924,12.9c0,7 5.51,12.5 12.223,12.9l0,20.7c0,7.4 6.312,13.5 14.127,13.5c8.115,0 14.427,-6.1 14.427,-13.5" style="fill:rgb(0,210,111);fill-rule:nonzero;"/>        <path id="Shape-Copy-7" d="M253,41.536c0,-6.02 -3.006,-10.233 -7.516,-14.247l-3.707,-3.31c5.411,-0.803 9.018,-4.415 9.018,-9.732c0,-8.93 -7.114,-14.247 -22.146,-14.247c-14.73,0 -23.348,7.424 -23.348,19.163c0,6.02 3.106,10.133 7.615,14.247l3.608,3.31l-0.1,0c-6.714,0 -11.424,3.913 -11.424,10.033c0,8.829 7.415,14.247 23.248,14.247c15.533,0 24.752,-7.525 24.752,-19.464" style="fill:rgb(0,210,111);fill-rule:nonzero;"/>        <path d="M202,46.566c0,-2.786 -0.807,-5.472 -2.523,-7.86l-6.46,-8.856l6.46,-8.855c1.716,-2.289 2.523,-5.075 2.523,-7.861c0,-7.363 -6.157,-13.034 -13.424,-13.034c-4.24,0 -8.479,2.089 -11.103,5.671l-3.129,4.378c-1.211,-5.87 -6.359,-10.149 -12.92,-10.149c-7.57,0 -13.424,5.97 -13.424,13.333l0,33.333c0,7.363 5.955,13.333 13.424,13.333c6.46,0 11.507,-3.98 12.819,-9.751l2.826,3.98c2.624,3.781 6.965,5.771 11.204,5.771c7.57,0.099 13.727,-6.07 13.727,-13.433" style="fill:rgb(0,210,111);fill-rule:nonzero;"/>        <path d="M143,43.51c0,-6.358 -3.181,-10.828 -9.544,-13.51c6.363,-2.682 9.544,-7.053 9.544,-13.51c0,-9.636 -8.053,-16.49 -20.977,-16.49c-17.298,0 -30.023,12.815 -30.023,30c0,17.185 12.725,30 30.023,30c12.924,0 20.977,-6.854 20.977,-16.49" style="fill:rgb(0,210,111);fill-rule:nonzero;"/>        <path d="M72.55,0c-8.083,0 -14.55,6.578 -14.55,14.352l0,31.296c0,7.874 6.467,14.352 14.449,14.352c8.184,0 14.55,-6.578 14.55,-14.352l0,-31.296c0.101,-7.774 -6.366,-14.352 -14.449,-14.352" style="fill:rgb(0,210,111);fill-rule:nonzero;"/>        <path d="M54,46.566c0,-2.786 -0.806,-5.472 -2.519,-7.86l-6.447,-8.856l6.447,-8.855c1.713,-2.289 2.519,-5.075 2.519,-7.861c0,-7.363 -6.146,-13.034 -13.399,-13.034c-4.232,0 -8.463,2.089 -11.082,5.671l-3.224,4.378c-1.209,-5.87 -6.347,-10.149 -12.896,-10.149c-7.556,0 -13.399,5.97 -13.399,13.333l0,33.333c0,7.363 5.944,13.333 13.399,13.333c6.448,0 11.485,-3.98 12.795,-9.751l2.821,3.98c2.619,3.781 6.951,5.771 11.183,5.771c7.656,0.099 13.802,-6.07 13.802,-13.433" style="fill:rgb(0,210,111);fill-rule:nonzero;"/>    </g></svg>