<?xml version="1.0" encoding="UTF-8" standalone="no"?><!DOCTYPE svg PUBLIC "-//W3C//DTD SVG 1.1//EN" "http://www.w3.org/Graphics/SVG/1.1/DTD/svg11.dtd"><svg width="100%" height="100%" viewBox="0 0 1024 512" version="1.1" xmlns="http://www.w3.org/2000/svg" xmlns:xlink="http://www.w3.org/1999/xlink" xml:space="preserve" style="fill-rule:evenodd;clip-rule:evenodd;stroke-linejoin:round;stroke-miterlimit:2;"><title>Moncera</title><desc>We contribute to the new financial era by providing a trustworthy peer-to-peer lending platform. Our team has more than 15 years of experience in the financial field and we take great pride in offering safe and easy marketplace of consumer loans. That is why Moncera is one of the few platforms with attractive returns, Buyback Guarantee, Instant Moneyback Guarantee and no fees or charges for our investors.</desc>    <g transform="matrix(7.18285,0,0,7.18285,-12905.6,-4208.13)">        <g transform="matrix(1,0,0,1,-49.461,-17.311)">            <path d="M1872.04,625.3l3.2,-0.034l0,10.3c1.511,-1.206 3.385,-1.867 5.318,-1.875c2.27,-0.06 4.464,0.83 6.051,2.454c1.619,1.609 2.531,3.799 2.531,6.082c0,4.654 -3.79,8.502 -8.444,8.573c-2.264,0.054 -4.451,-0.835 -6.034,-2.454c-1.645,-1.573 -2.571,-3.758 -2.557,-6.034l-0.065,-17.012Zm8.557,11.625c-1.42,-0.002 -2.782,0.577 -3.767,1.6c-1.008,0.982 -1.559,2.343 -1.517,3.75c0.005,1.414 0.582,2.768 1.6,3.75c0.977,1.017 2.34,1.575 3.75,1.534c1.418,-0.007 2.773,-0.592 3.75,-1.619c1.016,-0.985 1.573,-2.353 1.534,-3.767c0.003,-1.416 -0.576,-2.773 -1.6,-3.75c-0.987,-0.999 -2.347,-1.543 -3.751,-1.5l0.001,0.002Z" style="fill:rgb(57,74,82);fill-rule:nonzero;"/>        </g>        <g transform="matrix(1,0,0,1,-83.866,-33.722)">            <path d="M1941.29,658.721l0,8.557l-3.2,0l0,-1.841c-1.512,1.199 -3.388,1.849 -5.318,1.841c-0.012,0 -0.024,0 -0.036,0c-4.695,0 -8.558,-3.863 -8.558,-8.558c0,-4.695 3.863,-8.558 8.558,-8.558c4.695,0 8.558,3.863 8.558,8.558c0,0 0,0.001 0,0.001l-0.004,0Zm-12.29,3.75c0.991,0.99 2.336,1.547 3.737,1.547c2.901,0 5.288,-2.387 5.288,-5.288c0,-2.901 -2.387,-5.288 -5.288,-5.288c-2.898,0 -5.283,2.381 -5.288,5.279c-0.023,1.41 0.539,2.769 1.553,3.75l-0.002,0Z" style="fill:rgb(57,74,82);fill-rule:nonzero;"/>        </g>        <g transform="matrix(1,0,0,1,-120.115,-33.655)">            <path d="M1981.77,652.569c3.327,-3.313 8.783,-3.32 12.119,-0.017c1.636,1.576 2.544,3.763 2.506,6.034l0,8.591l-3.273,0l0,-8.591c0,-0.006 0,-0.012 0,-0.018c0,-2.901 -2.383,-5.291 -5.284,-5.3c-1.42,-0.023 -2.789,0.538 -3.784,1.551c-1.024,0.982 -1.592,2.349 -1.568,3.767l0,8.591l-3.239,0l0,-8.591c-0.03,-2.268 0.884,-4.449 2.523,-6.017Z" style="fill:rgb(57,74,82);fill-rule:nonzero;"/>        </g>        <g transform="matrix(1,0,0,1,-155.575,-33.655)">            <path d="M2035.55,664.688c-3.313,-3.327 -3.32,-8.783 -0.017,-12.119c1.576,-1.636 3.763,-2.544 6.034,-2.506l8.591,0l0,3.273l-8.591,0c-0.006,0 -0.012,0 -0.018,0c-2.901,0 -5.291,2.383 -5.3,5.284c-0.023,1.42 0.538,2.789 1.552,3.784c0.982,1.024 2.349,1.592 3.767,1.568l8.591,0l0,3.239l-8.591,0c-2.268,0.031 -4.45,-0.884 -6.018,-2.523Z" style="fill:rgb(57,74,82);fill-rule:nonzero;"/>        </g>        <g transform="matrix(1,0,0,1,-189.32,-33.722)">            <path d="M2092.73,657.118l4.261,0l0,3.2l-4.261,0c-0.878,0 -1.6,-0.722 -1.6,-1.6c0,-0.878 0.722,-1.6 1.6,-1.6Zm-6.017,-4.38c-3.274,3.306 -3.274,8.711 0,12.017c1.573,1.628 3.754,2.53 6.017,2.489l8.489,0l0,-3.244l-8.489,0c-1.401,0.022 -2.752,-0.533 -3.733,-1.534c-0.992,-0.985 -1.551,-2.326 -1.551,-3.724c0,-1.39 0.552,-2.725 1.534,-3.708c0.984,-1.007 2.342,-1.562 3.75,-1.534l8.489,0l0,-3.273l-8.489,0c-2.267,-0.039 -4.45,0.872 -6.017,2.511Zm24.733,-2.54c-2.247,-0.038 -4.415,0.843 -6,2.437c-1.626,1.548 -2.54,3.704 -2.522,5.949l0,8.659l3.2,0l0,-8.523c0.02,-2.91 2.409,-5.299 5.319,-5.318l0.003,-3.204Zm16.875,8.523l0,8.557l-3.2,0l0,-1.841c-1.512,1.199 -3.388,1.849 -5.318,1.841c-0.011,0 -0.023,0 -0.034,0c-4.694,0 -8.557,-3.863 -8.557,-8.557c0,-4.694 3.863,-8.557 8.557,-8.557c4.694,0 8.557,3.863 8.557,8.557l-0.005,0Zm-3.2,0c0,-0.002 0,-0.004 0,-0.007c0,-2.921 -2.404,-5.325 -5.325,-5.325c-2.921,0 -5.325,2.404 -5.325,5.325c0,2.922 2.404,5.325 5.325,5.325c1.416,0 2.775,-0.564 3.774,-1.568c1.009,-0.984 1.569,-2.341 1.546,-3.75l0.005,0Z" style="fill:rgb(135,163,48);fill-rule:nonzero;"/>        </g>        <g transform="matrix(1,0,0,1,0,-29.308)">            <path d="M1801.43,665.125l0,-21.658l-4.432,3.25l0,26.59l10.227,-7.5l0,-4.932l-5.795,4.25Z" style="fill:url(#_Linear1);fill-rule:nonzero;"/>        </g>        <g transform="matrix(1,0,0,1,-11.205,0)">            <path d="M1824.23,625.59l-10.227,7.5l0,-26.59l10.227,-7.5l0,26.59Z" style="fill:rgb(57,74,82);fill-rule:nonzero;"/>        </g>    </g>    <defs>        <linearGradient id="_Linear1" x1="0" y1="0" x2="1" y2="0" gradientUnits="userSpaceOnUse" gradientTransform="matrix(17.1302,-17.1282,17.1282,17.1302,1791.04,667.339)"><stop offset="0" style="stop-color:rgb(135,163,48);stop-opacity:1"/><stop offset="0.18" style="stop-color:rgb(138,166,48);stop-opacity:1"/><stop offset="0.35" style="stop-color:rgb(149,176,50);stop-opacity:1"/><stop offset="0.51" style="stop-color:rgb(167,193,54);stop-opacity:1"/><stop offset="0.65" style="stop-color:rgb(150,177,50);stop-opacity:1"/><stop offset="0.82" style="stop-color:rgb(138,166,48);stop-opacity:1"/><stop offset="1" style="stop-color:rgb(135,163,48);stop-opacity:1"/><stop offset="1" style="stop-color:rgb(135,163,48);stop-opacity:1"/></linearGradient>    </defs></svg>