<?xml version="1.0" encoding="UTF-8" standalone="no"?><!DOCTYPE svg PUBLIC "-//W3C//DTD SVG 1.1//EN" "http://www.w3.org/Graphics/SVG/1.1/DTD/svg11.dtd"><svg width="100%" height="100%" viewBox="0 0 1024 512" version="1.1" xmlns="http://www.w3.org/2000/svg" xmlns:xlink="http://www.w3.org/1999/xlink" xml:space="preserve" style="fill-rule:evenodd;clip-rule:evenodd;stroke-linejoin:round;stroke-miterlimit:2;"><title>AxiaFunder</title><desc>AxiaFunder is an innovative litigation crowdfunding platform which connects investors with carefully pre-vetted commercial litigation opportunities. AxiaFunder invests in legal cases where there is a high probability of winning at court with potential returns of 20%-30% pa. Capital is at risk and projected returns are not guaranteed. Investors have a significant risk of losing all of their investment if the case fails and could lose double their investment in the unlikely event that the insurer also defaults. </desc>    <g transform="matrix(1.74254,0,0,1.74254,1.86757,154.433)">        <path d="M27.978,22.785l21.501,0l27.902,70.004l-23.502,0l-3.3,-10.301l-23.802,0l-3.2,10.301l-23.501,0l27.902,-70.004Zm16.501,43.202l-5.601,-18.301l-0.3,0l-5.601,18.301l11.502,0Z" style="fill:rgb(14,36,78);fill-rule:nonzero;"/>        <path d="M99.815,58.287l-21.901,-35.502l26.302,0l10.2,18.9l10.101,-18.9l40.041,-22.359l-35.54,57.661l21.901,34.702l-25.102,0l-11.301,-19.102l-11.601,19.102l-40.191,23.359l37.091,-57.861Z" style="fill:rgb(14,36,78);fill-rule:nonzero;"/>        <path d="M156.222,22.785l22.101,0l0,70.004l-22.101,0l0,-70.004Zm55.299,0l21.502,0l27.901,70.004l-23.501,0l-3.301,-10.301l-23.801,0l-3.201,10.301l-23.501,0l27.902,-70.004Zm16.5,43.202l-5.6,-18.301l-0.301,0l-5.6,18.301l11.501,0Zm53.201,-0.5l0,27.302l-15.001,0l0,-68.004l39.402,0l0,13.601l-24.401,0l0,13.501l24.401,0l0,13.601l-24.401,0l0,-0.001Zm85.902,-40.702l0,41.502c0,18.102 -10.401,27.502 -28.103,27.502c-17.7,0 -28.102,-9.4 -28.102,-27.502l0,-41.502l15.001,0l0,39.302c0,9.401 2.9,14.701 13.101,14.701c10.301,0 13.102,-5.3 13.102,-14.701l0,-39.302l15.001,0Zm43.699,68.004l-23.401,-42.402l0,42.402l-15.001,0l0,-68.004l15.001,0l23.401,42.402l0,-42.402l15.001,0l0,68.004l-15.001,0Zm40.499,-68.004c19.201,0 33.803,14.801 33.803,34.002c0,19.201 -14.501,34.002 -33.803,34.002l-20.201,0l0,-68.004l20.201,0Zm-0.899,54.203c11.5,0 19.401,-8.9 19.401,-20.201c0,-11.301 -7.801,-20.102 -19.401,-20.102l-4.5,0l0,40.303l4.5,0Zm79.401,13.801l-39.402,0l0,-68.004l39.402,0l0,13.601l-24.401,0l0,13.501l24.401,0l0,13.601l-24.401,0l0,13.701l24.401,0l0,13.6Zm20.302,0l-15.001,0l0,-68.004l25.502,0c11.001,0 20.801,8.9 20.801,21.801c0,11.501 -6.9,19.102 -15.501,21.201l19.502,25.002l-19.001,0l-16.201,-24.302l-0.101,0l0,24.302Zm0,-56.203l0,20.101l8.001,0c4.4,0 9,-3.6 9,-10.101c0,-6.2 -4.6,-10 -9,-10l-8.001,0Z" style="fill:rgb(14,36,78);fill-rule:nonzero;"/>    </g></svg>