<?xml version="1.0" encoding="UTF-8" standalone="no"?><!DOCTYPE svg PUBLIC "-//W3C//DTD SVG 1.1//EN" "http://www.w3.org/Graphics/SVG/1.1/DTD/svg11.dtd"><svg width="100%" height="100%" viewBox="0 0 1024 512" version="1.1" xmlns="http://www.w3.org/2000/svg" xmlns:xlink="http://www.w3.org/1999/xlink" xml:space="preserve" style="fill-rule:evenodd;clip-rule:evenodd;stroke-linejoin:round;stroke-miterlimit:2;"><title>RoboCash</title><desc>Robo.cash is a fully automated investment platform operating within an international financial group comprising loan originators from Spain, Russia, Kazakhstan, Indonesia, Vietnam and India. The platform works according to the “peer-to-portfolio” model which involves an opportunity to invest in the loan portfolio of the affiliated lenders with higher returns and a complete buyback guarantee on assets. </desc>    <g transform="matrix(2.21739,0,0,2.21739,-55.6522,-27.815)">        <path d="M377.68,145.76c4,0 7.4,1.82 7.4,6.23c0.13,2.357 -1.28,4.545 -3.48,5.4c2.44,0.49 3.05,3 3.24,5.12c0.12,1.39 0.18,4.4 1,5.21l-5,0c-0.55,-1.1 -0.55,-3.3 -0.68,-4.5c-0.31,-3 -1.23,-4.1 -4.38,-4.1l-4.29,0l0,8.6l-4.78,0l0,-22l10.97,0.04Zm-6.14,9.87l4.56,0c2.25,0 4.25,-0.4 4.25,-3.11c0,-2.53 -2,-3 -4,-3l-4.78,0l-0.03,6.11Zm40.75,1.14c0,6.84 -4.35,11.47 -10.79,11.47c-6.44,0 -10.85,-4.59 -10.85,-11.47c0,-6.88 4.32,-11.53 10.88,-11.53c6.47,0 10.77,4.65 10.77,11.53l-0.01,0Zm-16.77,-0.09c0,4.72 2.28,7.55 6,7.58c3.72,0.03 5.89,-2.9 5.89,-7.58c0,-4.68 -2.28,-7.49 -5.95,-7.49c-3.67,0 -5.93,2.92 -5.93,7.48l-0.01,0.01Zm33.2,-10.91c3.85,0 7,1.63 7,5.52c0.022,1.978 -1.171,3.778 -3,4.53c2.455,0.565 4.157,2.846 4,5.36c0,4.29 -3.3,6.54 -7.43,6.54l-11,0l0,-22l10.43,0.05Zm-5.7,8.88l4.38,0c1.76,0 3.64,-0.34 3.64,-2.56c0,-2.22 -1.79,-2.59 -3.64,-2.59l-4.4,0l0.02,5.15Zm0,9.25l4.84,0c2.07,0 4.07,-0.4 4.07,-3c0,-2.6 -2.16,-3 -4.32,-3l-4.61,0l0.02,6Zm40.51,-7.12c0,6.84 -4.35,11.47 -10.79,11.47c-6.44,0 -10.85,-4.59 -10.85,-11.47c0,-6.88 4.32,-11.53 10.88,-11.53c6.42,-0.01 10.77,4.64 10.77,11.52l-0.01,0.01Zm-16.77,-0.09c0,4.72 2.28,7.55 6,7.58c3.72,0.03 5.89,-2.9 5.89,-7.58c0,-4.68 -2.28,-7.49 -5.95,-7.49c-3.67,0 -5.94,2.91 -5.94,7.47l0,0.02Zm39.15,-6.81l-6.61,0l0,17.85l-4.84,0l0,-17.87l-6.61,0l0,-4.1l18,0l0.06,4.12Zm-355.44,17.83l-4.84,0l0,-22l4.84,0l0,22Zm7,-22l4.9,0l9,14.71l0,-14.66l4.62,0l0,22l-4.81,0l-9.03,-14.76l0,14.74l-4.65,0l-0.03,-22.03Zm28.27,0l4.93,15.41l5,-15.41l5,0l-7.31,22l-5.46,0l-7.18,-22l5.02,0Zm36,3.95l-11.65,0l0,4.78l10.73,0l0,3.79l-10.73,0l0,5.4l11.91,0l0,4l-16.69,0l0,-22l16.46,0l-0.03,4.03Zm18,2.59c-0.18,-2.13 -1.6,-3.27 -4.16,-3.27c-2.22,0 -3.55,0.92 -3.55,2.5c0,1.91 2.34,2.07 6.72,3.3c3.92,1.1 6.41,2.62 6.41,6.29c0,5.18 -4.56,7.09 -9,7.09c-5.95,0 -9.47,-2.86 -9.53,-7.83l4.78,0c0.09,3 2,4.13 5,4.13c2.53,0 4.07,-1.1 4.07,-2.93c0,-1.83 -1.48,-2 -6,-3.33c-3.58,-1 -7,-1.91 -7,-6.39c0,-4 3.33,-6.57 8.45,-6.57c4.62,0 8.35,2.1 8.45,7l-4.64,0.01Zm27.41,-2.43l-6.61,0l0,17.85l-4.84,0l0,-17.81l-6.6,0l0,-4.1l18,0l0.05,4.06Zm5.3,-4.1l6.87,0l5.12,15.08l5,-15.08l6.71,0l0,22l-4.53,0l0,-15.6l-5.38,15.6l-3.74,0l-5.46,-15.45l0,15.45l-4.59,0l0,-22Zm47.2,3.95l-11.65,0l0,4.78l10.73,0l0,3.79l-10.73,0l0,5.4l11.89,0l0,4l-16.68,0l0,-22l16.46,0l-0.02,4.03Zm6.29,-3.95l4.9,0l9,14.71l0,-14.67l4.62,0l0,22l-4.76,0l-9.1,-14.76l0,14.74l-4.66,0l0,-22.02Zm41.93,4.1l-6.61,0l0,17.85l-4.84,0l0,-17.81l-6.61,0l0,-4.1l18,0l0.06,4.06Z" style="fill:rgb(175,182,185);fill-rule:nonzero;"/>        <path d="M149,88.93c6.79,0 15.53,2.75 15.53,12.84c0.128,4.49 -2.388,8.66 -6.42,10.64c4.4,1.1 6,6.91 6.36,10.76l0.43,4.59c0.12,1.53 0.24,3.42 1.1,4.71l-13.2,0c-0.479,-1.316 -0.746,-2.7 -0.79,-4.1l-0.18,-2.45c-0.37,-5 -1.16,-8.81 -7.4,-8.81l-5.62,0l0,15.35l-13.21,0l0,-43.53l23.4,0Zm-10.21,19l7.34,0c3.06,0 5.44,-1.1 5.44,-4.53c0,-2.94 -2.08,-4.4 -6.17,-4.4l-6.61,0l0,8.93Zm75.27,2.75c0,13.64 -8.81,22.81 -21.89,22.81c-13.33,0 -22.26,-9.11 -22.26,-22.87c0,-13.76 8.87,-22.87 22.38,-22.87c13,0 21.77,9.23 21.77,22.93Zm-30.57,-0.25c0,7.77 3.18,12.23 8.68,12.23c5.5,0 8.37,-4.34 8.37,-12.6c0,-7.27 -3.12,-11.62 -8.44,-11.62c-5.32,0 -8.61,4.53 -8.61,12l0,-0.01Zm58.64,-21.52c7.22,0 15.47,1.9 15.47,10.89c0,4.28 -2.14,6.79 -5.44,8.74c4.89,1.71 7.58,5.06 7.58,10.7c0,10.21 -8.19,13.21 -16.69,13.21l-22.86,0l0,-43.52l21.94,-0.02Zm-9,16.63l7.52,0c2.51,0 4,-1.22 4,-3.3c0,-2.26 -1.53,-3.42 -4.65,-3.42l-6.91,0l0.04,6.72Zm0,16.57l8.25,0c3.36,0 5.06,-1.35 5.06,-4c0,-2.65 -1.77,-4.16 -5.06,-4.16l-8.25,0l0,8.16Zm75.39,-11.44c0,13.64 -8.81,22.81 -21.89,22.81c-13.33,0 -22.26,-9.11 -22.26,-22.87c0,-13.76 8.87,-22.87 22.38,-22.87c13.06,0.02 21.8,9.26 21.8,22.95l-0.03,-0.02Zm-30.52,-0.22c0,7.77 3.18,12.23 8.68,12.23c5.5,0 8.37,-4.34 8.37,-12.6c0,-7.27 -3.12,-11.62 -8.44,-11.62c-5.32,0 -8.61,4.54 -8.61,11.99Zm57.36,23.06c-13.33,0 -21.83,-10 -21.83,-22.93c0,-12.93 8.87,-22.75 22.07,-22.75c10.64,0 19.14,7.4 19.75,17.18l-13,0c-0.73,-3.91 -3.24,-6.12 -7,-6.12c-6.3,0 -8.37,6.3 -8.37,11.67c0,7.22 3.18,11.67 8.37,11.67c3.91,0 6.36,-2.45 7,-7l13.15,0c-0.78,12.1 -9.59,18.27 -20.17,18.27l0.03,0.01Zm67.08,-1l-13.5,0l-2.14,-6.17l-14,0l-2.14,6.17l-13.55,0l16.08,-43.54l13.21,0l16.04,43.54Zm-20.92,-23c-0.68,-2.169 -1.23,-4.376 -1.65,-6.61c-0.73,3 -1,4 -1.83,6.67c0,0 -0.92,3 -2.38,7.4l8.19,0c-0.79,-2.51 -2.31,-7.46 -2.31,-7.46l-0.02,0Zm45.81,-7.34c-0.06,-2.63 -2.14,-4.16 -5.56,-4.16c-2.81,0 -4.4,1 -4.4,2.69c0,2.69 7.46,3.73 9.3,4.22c7.27,1.9 15,4.71 15,13.76c0,9.05 -7.4,14.8 -19,14.8c-12.17,0 -19.63,-5.93 -19.75,-15.65l13.39,0c0.24,4.22 2.87,5.63 6.79,5.63c3.36,0 5.44,-1.41 5.44,-3.61c-0.001,-0.69 -0.318,-1.343 -0.86,-1.77c-1.77,-1.47 -9.3,-3.3 -12.29,-4.34c-6.23,-2.15 -10.76,-4.59 -10.76,-12.06c0,-8.19 7.09,-13.64 17.62,-13.64c11.13,0 17.55,5.14 17.67,14.12l-12.59,0.01Zm58.67,30.3l-13.33,0l0,-17.18l-12.6,0l0,17.18l-13.39,0l0,-43.54l13.39,0l0,14.61l12.6,0l0,-14.61l13.33,0l0,43.54Z" style="fill:rgb(75,89,89);fill-rule:nonzero;"/>        <rect x="26" y="141.16" width="26.7" height="26.7" style="fill:rgb(255,137,0);fill-rule:nonzero;"/>        <path d="M52.7,141.16l-26.7,26.7l0,-26.7l26.7,0Z" style="fill:rgb(255,167,0);fill-rule:nonzero;"/>        <rect x="52.7" y="141.16" width="26.7" height="26.7" style="fill:rgb(255,184,58);fill-rule:nonzero;"/>        <path d="M79.4,141.16l-26.7,26.7l0,-26.7l26.7,0Z" style="fill:rgb(255,202,73);fill-rule:nonzero;"/>        <rect x="52.7" y="114.46" width="26.7" height="26.7" style="fill:rgb(184,186,60);fill-rule:nonzero;"/>        <path d="M79.4,114.46l-26.7,26.7l0,-26.7l26.7,0Z" style="fill:rgb(202,203,75);fill-rule:nonzero;"/>        <rect x="79.4" y="114.46" width="26.7" height="26.7" style="fill:rgb(113,187,62);fill-rule:nonzero;"/>        <path d="M106.09,114.46l-26.7,26.7l0,-26.7l26.7,0Z" style="fill:rgb(141,204,78);fill-rule:nonzero;"/>        <rect x="79.4" y="87.76" width="26.7" height="26.7" style="fill:rgb(76,157,51);fill-rule:nonzero;"/>        <path d="M106.09,87.76l-26.7,26.7l0,-26.7l26.7,0Z" style="fill:rgb(95,182,64);fill-rule:nonzero;"/>    </g></svg>