<?xml version="1.0" encoding="UTF-8" standalone="no"?><!DOCTYPE svg PUBLIC "-//W3C//DTD SVG 1.1//EN" "http://www.w3.org/Graphics/SVG/1.1/DTD/svg11.dtd"><svg width="100%" height="100%" viewBox="0 0 1024 512" version="1.1" xmlns="http://www.w3.org/2000/svg" xmlns:xlink="http://www.w3.org/1999/xlink" xml:space="preserve" style="fill-rule:evenodd;clip-rule:evenodd;stroke-linejoin:round;stroke-miterlimit:2;"><title>RebuildingSociety</title><desc>Based in Leeds city centre, rebuildingsociety.com is the peer-to-peer lending platform that brings ethically-minded people together for a better deal. Whereas many platforms encourage passive transactions, with limited information, we invite you to become a ‘financial activist’, because purposeful lending serves our society better.</desc>    <g transform="matrix(1.36595,0,0,1.36595,-78.872,-173.182)">        <g transform="matrix(0.51,0,0,0.51,10.3192,-18.0267)">            <g transform="matrix(0.917488,0,0,0.917488,-218.349,277.681)">                <g transform="matrix(1,0,0,1,245.534,-245.534)">                    <path d="M96.928,385.009l115.417,115.418l-115.294,115.295l-0.123,0l0,-230.713Z" style="fill:rgb(176,226,250);"/>                </g>                <g transform="matrix(8.28335e-17,1.35277,-1.35277,8.28335e-17,1131.46,-35.7484)">                    <path d="M129.529,583.243l-0.028,0l0,-170.576l0.091,0l85.257,85.257l-85.32,85.319Z" style="fill:rgb(0,78,116);"/>                </g>            </g>            <g transform="matrix(5.618e-17,-0.917488,0.917488,5.618e-17,233.081,931.529)">                <g transform="matrix(1,0,0,1,245.534,-245.534)">                    <path d="M96.928,385.009l115.417,115.418l-115.294,115.295l-0.123,0l0,-230.713Z" style="fill:rgb(176,226,250);"/>                </g>                <g transform="matrix(8.28335e-17,1.35277,-1.35277,8.28335e-17,1131.46,-35.7484)">                    <path d="M129.529,583.243l-0.028,0l0,-170.576l0.091,0l85.257,85.257l-85.32,85.319Z" style="fill:rgb(0,78,116);"/>                </g>            </g>            <g transform="matrix(0.917488,0,0,0.917488,7.9092,51.0453)">                <path d="M907.707,499.033l0,119.611l-233.628,0l0,-5.527l233.628,-114.084Z" style="fill:rgb(0,78,116);"/>                <path d="M907.707,387.125l-233.628,114.084l0,-116.193l233.628,0l0,2.109Z" style="fill:rgb(176,226,250);"/>            </g>        </g>        <g transform="matrix(0.550626,0,0,0.550626,-186.281,238.886)">            <g transform="matrix(144,0,0,144,437.183,308.476)">                <path d="M0.321,-0.465c0.016,0 0.031,0.004 0.047,0.011c0.015,0.007 0.033,0.019 0.054,0.036l-0.043,0.105c-0.035,-0.026 -0.063,-0.039 -0.084,-0.039c-0.019,0 -0.037,0.007 -0.055,0.021c-0.018,0.014 -0.033,0.032 -0.043,0.055c-0.011,0.022 -0.017,0.045 -0.017,0.068l0,0.208l-0.12,0l0,-0.456l0.12,0l0,0.116l0.002,0c0.022,-0.044 0.044,-0.076 0.066,-0.095c0.022,-0.02 0.046,-0.03 0.073,-0.03Z" style="fill:rgb(0,78,116);fill-rule:nonzero;"/>            </g>            <g transform="matrix(144,0,0,144,494.488,308.476)">                <path d="M0.264,-0.465c0.067,0 0.12,0.022 0.159,0.065c0.039,0.043 0.059,0.102 0.059,0.178l0,0.018l-0.323,0c0.005,0.041 0.02,0.072 0.046,0.094c0.025,0.022 0.06,0.033 0.105,0.033c0.029,0 0.056,-0.005 0.083,-0.015c0.026,-0.01 0.054,-0.025 0.082,-0.045l0,0.089c-0.053,0.038 -0.118,0.057 -0.194,0.057c-0.072,0 -0.131,-0.022 -0.177,-0.065c-0.045,-0.043 -0.068,-0.101 -0.068,-0.173c0,-0.069 0.021,-0.126 0.063,-0.17c0.043,-0.044 0.097,-0.066 0.165,-0.066Zm0.105,0.188c-0.003,-0.033 -0.013,-0.059 -0.03,-0.078c-0.017,-0.018 -0.04,-0.028 -0.07,-0.028c-0.03,0 -0.055,0.009 -0.073,0.027c-0.018,0.018 -0.03,0.044 -0.035,0.079l0.208,0Z" style="fill:rgb(0,78,116);fill-rule:nonzero;"/>            </g>            <g transform="matrix(144,0,0,144,564.457,308.476)">                <path d="M0.18,-0.791l0,0.364c0.036,-0.025 0.076,-0.038 0.121,-0.038c0.04,0 0.076,0.01 0.109,0.03c0.033,0.019 0.058,0.047 0.076,0.083c0.018,0.035 0.027,0.075 0.027,0.119c0,0.075 -0.022,0.134 -0.067,0.177c-0.044,0.043 -0.105,0.065 -0.183,0.065c-0.069,0 -0.137,-0.013 -0.203,-0.039l0,-0.761l0.12,0Zm0,0.696c0.026,0.009 0.056,0.013 0.09,0.013c0.037,0 0.066,-0.013 0.088,-0.04c0.021,-0.027 0.032,-0.064 0.032,-0.112c0,-0.043 -0.011,-0.077 -0.033,-0.103c-0.021,-0.025 -0.05,-0.038 -0.086,-0.038c-0.017,0 -0.032,0.003 -0.046,0.009c-0.014,0.006 -0.029,0.016 -0.045,0.029l0,0.242Z" style="fill:rgb(0,78,116);fill-rule:nonzero;"/>            </g>            <g transform="matrix(144,0,0,144,647.839,308.476)">                <path d="M0.176,-0.456l0,0.282c0,0.03 0.007,0.052 0.022,0.068c0.015,0.015 0.034,0.023 0.059,0.023c0.02,0 0.039,-0.006 0.058,-0.019c0.018,-0.012 0.033,-0.029 0.045,-0.052l0,-0.302l0.12,0l0,0.456l-0.12,0l0,-0.062c-0.043,0.047 -0.09,0.071 -0.141,0.071c-0.049,0 -0.088,-0.016 -0.118,-0.048c-0.03,-0.032 -0.045,-0.074 -0.045,-0.125l0,-0.292l0.12,0Z" style="fill:rgb(0,78,116);fill-rule:nonzero;"/>            </g>            <g transform="matrix(144,0,0,144,725.605,308.476)">                <path d="M0.124,-0.788c0.019,0 0.035,0.007 0.048,0.02c0.013,0.014 0.02,0.029 0.02,0.048c0,0.018 -0.007,0.034 -0.02,0.048c-0.013,0.013 -0.029,0.02 -0.048,0.02c-0.018,0 -0.034,-0.007 -0.048,-0.02c-0.013,-0.014 -0.02,-0.03 -0.02,-0.048c0,-0.019 0.007,-0.035 0.021,-0.048c0.013,-0.013 0.029,-0.02 0.047,-0.02Zm0.06,0.332l0,0.456l-0.12,0l0,-0.456l0.12,0Z" style="fill:rgb(0,78,116);fill-rule:nonzero;"/>            </g>            <g transform="matrix(144,0,0,144,756.102,308.476)">                <rect x="0.064" y="-0.791" width="0.12" height="0.791" style="fill:rgb(0,78,116);fill-rule:nonzero;"/>            </g>            <g transform="matrix(144,0,0,144,790.951,308.476)">                <path d="M0.368,-0.446l0,-0.345l0.12,0l0,0.791l-0.211,0c-0.073,0 -0.131,-0.021 -0.175,-0.063c-0.044,-0.042 -0.066,-0.099 -0.066,-0.172c0,-0.043 0.01,-0.082 0.031,-0.117c0.02,-0.035 0.048,-0.063 0.084,-0.083c0.035,-0.02 0.074,-0.03 0.115,-0.03c0.032,0 0.066,0.007 0.102,0.019Zm-0.063,0.354l0.063,0l0,-0.264c-0.025,-0.013 -0.05,-0.019 -0.077,-0.019c-0.04,0 -0.072,0.013 -0.096,0.038c-0.024,0.025 -0.036,0.058 -0.036,0.098c0,0.098 0.049,0.147 0.146,0.147Z" style="fill:rgb(0,78,116);fill-rule:nonzero;"/>            </g>            <g transform="matrix(144,0,0,144,869.842,308.476)">                <path d="M0.124,-0.794c0.019,0 0.035,0.007 0.048,0.02c0.013,0.013 0.02,0.029 0.02,0.048c0,0.018 -0.007,0.034 -0.02,0.048c-0.013,0.013 -0.029,0.02 -0.048,0.02c-0.018,0 -0.034,-0.007 -0.048,-0.02c-0.013,-0.014 -0.02,-0.03 -0.02,-0.048c0,-0.019 0.007,-0.035 0.021,-0.048c0.013,-0.013 0.029,-0.02 0.047,-0.02Zm0.06,0.338l0,0.456l-0.12,0l0,-0.456l0.12,0Z" style="fill:rgb(0,78,116);fill-rule:nonzero;"/>            </g>            <g transform="matrix(144,0,0,144,907.301,308.476)">                <path d="M0.324,-0.465c0.049,0 0.088,0.016 0.117,0.048c0.029,0.032 0.044,0.075 0.044,0.127l0,0.29l-0.12,0l0,-0.278c0,-0.029 -0.007,-0.053 -0.021,-0.07c-0.014,-0.017 -0.033,-0.026 -0.058,-0.026c-0.018,0 -0.036,0.005 -0.052,0.016c-0.016,0.011 -0.034,0.029 -0.054,0.055l0,0.303l-0.12,0l0,-0.456l0.12,0l0,0.064c0.022,-0.026 0.045,-0.045 0.068,-0.056c0.024,-0.011 0.049,-0.017 0.076,-0.017Z" style="fill:rgb(0,78,116);fill-rule:nonzero;"/>            </g>            <g transform="matrix(144,0,0,179.102,986.947,324.485)">                <path d="M0.481,-0.456l0,0.085l-0.078,0c0.013,0.016 0.021,0.03 0.026,0.043c0.005,0.013 0.008,0.028 0.008,0.043c0,0.036 -0.014,0.07 -0.041,0.1c-0.024,0.026 -0.065,0.043 -0.124,0.051c-0.032,0.004 -0.053,0.009 -0.063,0.014c-0.01,0.005 -0.015,0.012 -0.015,0.023c0,0.009 0.006,0.017 0.019,0.022c0.012,0.005 0.032,0.009 0.06,0.014c0.069,0.011 0.119,0.028 0.152,0.051c0.032,0.023 0.048,0.053 0.048,0.09c0,0.048 -0.02,0.085 -0.059,0.111c-0.039,0.026 -0.096,0.039 -0.17,0.039c-0.07,0 -0.126,-0.012 -0.167,-0.037c-0.041,-0.024 -0.062,-0.057 -0.062,-0.098c0,-0.058 0.04,-0.098 0.12,-0.12c-0.035,-0.015 -0.052,-0.035 -0.052,-0.059c0,-0.032 0.026,-0.054 0.078,-0.066l0,-0.002c-0.035,-0.01 -0.064,-0.027 -0.085,-0.052c-0.021,-0.025 -0.031,-0.054 -0.031,-0.088c0,-0.049 0.018,-0.089 0.056,-0.119c0.037,-0.03 0.085,-0.045 0.145,-0.045l0.235,0Zm-0.325,0.165c0,0.024 0.008,0.044 0.025,0.059c0.017,0.016 0.037,0.024 0.061,0.024c0.025,0 0.045,-0.008 0.061,-0.025c0.016,-0.016 0.024,-0.037 0.024,-0.062c0,-0.022 -0.008,-0.041 -0.025,-0.056c-0.016,-0.015 -0.036,-0.023 -0.06,-0.023c-0.024,0 -0.044,0.008 -0.061,0.025c-0.017,0.016 -0.025,0.036 -0.025,0.058Zm-0.029,0.381c0,0.041 0.041,0.061 0.122,0.061c0.035,0 0.063,-0.006 0.083,-0.017c0.02,-0.011 0.03,-0.026 0.03,-0.044c0,-0.02 -0.011,-0.036 -0.034,-0.046c-0.023,-0.01 -0.055,-0.015 -0.096,-0.015c-0.031,0 -0.056,0.006 -0.076,0.017c-0.019,0.012 -0.029,0.026 -0.029,0.044Z" style="fill:rgb(0,78,116);fill-rule:nonzero;"/>            </g>            <g transform="matrix(144,0,0,144,1058.41,308.476)">                <path d="M0.208,-0.465c0.025,0 0.049,0.003 0.071,0.009c0.022,0.005 0.045,0.014 0.07,0.027l0,0.096c-0.023,-0.015 -0.047,-0.026 -0.073,-0.035c-0.026,-0.009 -0.049,-0.014 -0.07,-0.014c-0.017,0 -0.031,0.003 -0.04,0.01c-0.01,0.006 -0.015,0.016 -0.015,0.028c0,0.007 0.004,0.013 0.012,0.02c0.008,0.007 0.031,0.02 0.067,0.038c0.052,0.026 0.089,0.051 0.11,0.073c0.021,0.022 0.031,0.049 0.031,0.08c0,0.044 -0.015,0.079 -0.046,0.104c-0.03,0.025 -0.072,0.038 -0.124,0.038c-0.032,0 -0.063,-0.004 -0.091,-0.011c-0.028,-0.007 -0.051,-0.016 -0.07,-0.026l0,-0.1c0.059,0.033 0.108,0.049 0.148,0.049c0.02,0 0.037,-0.004 0.05,-0.011c0.012,-0.007 0.019,-0.017 0.019,-0.029c0,-0.007 -0.002,-0.014 -0.007,-0.02c-0.005,-0.006 -0.011,-0.012 -0.021,-0.018c-0.009,-0.006 -0.037,-0.021 -0.085,-0.044c-0.037,-0.018 -0.064,-0.037 -0.082,-0.058c-0.017,-0.02 -0.026,-0.045 -0.026,-0.073c0,-0.04 0.016,-0.073 0.047,-0.097c0.032,-0.024 0.074,-0.036 0.125,-0.036Z" style="fill:rgb(0,78,116);fill-rule:nonzero;"/>            </g>            <g transform="matrix(144,0,0,144,1113.95,308.476)">                <path d="M0.286,-0.465c0.048,0 0.091,0.01 0.13,0.03c0.038,0.02 0.068,0.048 0.089,0.083c0.022,0.036 0.032,0.077 0.032,0.122c0,0.047 -0.01,0.089 -0.03,0.124c-0.021,0.036 -0.051,0.064 -0.09,0.084c-0.04,0.021 -0.083,0.031 -0.131,0.031c-0.048,0 -0.091,-0.01 -0.13,-0.031c-0.039,-0.02 -0.069,-0.048 -0.089,-0.084c-0.021,-0.035 -0.031,-0.077 -0.031,-0.124c0,-0.046 0.011,-0.087 0.032,-0.122c0.022,-0.036 0.052,-0.064 0.09,-0.083c0.039,-0.02 0.081,-0.03 0.128,-0.03Zm-0.124,0.235c0,0.046 0.011,0.082 0.034,0.109c0.022,0.027 0.052,0.041 0.089,0.041c0.039,0 0.07,-0.013 0.092,-0.039c0.023,-0.026 0.034,-0.063 0.034,-0.112c0,-0.046 -0.011,-0.082 -0.034,-0.107c-0.022,-0.025 -0.053,-0.038 -0.092,-0.038c-0.036,0 -0.066,0.013 -0.089,0.04c-0.022,0.027 -0.034,0.062 -0.034,0.106Z" style="fill:rgb(0,78,116);fill-rule:nonzero;"/>            </g>            <g transform="matrix(144,0,0,144,1193.02,308.476)">                <path d="M0.279,-0.465c0.053,0 0.101,0.01 0.144,0.031l0,0.102c-0.043,-0.025 -0.083,-0.037 -0.121,-0.037c-0.041,0 -0.075,0.013 -0.101,0.038c-0.026,0.026 -0.039,0.06 -0.039,0.104c0,0.043 0.013,0.077 0.039,0.103c0.027,0.026 0.062,0.039 0.105,0.039c0.033,0 0.074,-0.011 0.125,-0.032l0,0.097c-0.047,0.019 -0.096,0.029 -0.146,0.029c-0.074,0 -0.134,-0.021 -0.18,-0.064c-0.046,-0.042 -0.069,-0.098 -0.069,-0.168c0,-0.073 0.023,-0.131 0.068,-0.175c0.045,-0.045 0.103,-0.067 0.175,-0.067Z" style="fill:rgb(0,78,116);fill-rule:nonzero;"/>            </g>            <g transform="matrix(144,0,0,144,1262,308.476)">                <path d="M0.124,-0.782c0.019,0 0.035,0.007 0.048,0.02c0.013,0.014 0.02,0.03 0.02,0.048c0,0.018 -0.007,0.034 -0.02,0.048c-0.013,0.014 -0.029,0.02 -0.048,0.02c-0.018,0 -0.034,-0.006 -0.048,-0.02c-0.013,-0.014 -0.02,-0.03 -0.02,-0.048c0,-0.019 0.007,-0.035 0.021,-0.048c0.013,-0.013 0.029,-0.02 0.047,-0.02Zm0.06,0.326l0,0.456l-0.12,0l0,-0.456l0.12,0Z" style="fill:rgb(0,78,116);fill-rule:nonzero;"/>            </g>            <g transform="matrix(144,0,0,144,1295.98,308.476)">                <path d="M0.264,-0.465c0.067,0 0.12,0.022 0.159,0.065c0.039,0.043 0.059,0.102 0.059,0.178l0,0.018l-0.323,0c0.005,0.041 0.02,0.072 0.046,0.094c0.025,0.022 0.06,0.033 0.105,0.033c0.029,0 0.056,-0.005 0.083,-0.015c0.026,-0.01 0.054,-0.025 0.082,-0.045l0,0.089c-0.053,0.038 -0.118,0.057 -0.194,0.057c-0.072,0 -0.131,-0.022 -0.177,-0.065c-0.045,-0.043 -0.068,-0.101 -0.068,-0.173c0,-0.069 0.021,-0.126 0.063,-0.17c0.043,-0.044 0.097,-0.066 0.165,-0.066Zm0.105,0.188c-0.003,-0.033 -0.013,-0.059 -0.03,-0.078c-0.017,-0.018 -0.04,-0.028 -0.07,-0.028c-0.03,0 -0.055,0.009 -0.073,0.027c-0.018,0.018 -0.03,0.044 -0.035,0.079l0.208,0Z" style="fill:rgb(0,78,116);fill-rule:nonzero;"/>            </g>            <g transform="matrix(144,0,0,144,1370.3,308.476)">                <path d="M0.185,-0.577l0.01,0l0,0.121l0.156,0l0,0.091l-0.156,0l0,0.21c0,0.021 0.006,0.037 0.018,0.05c0.013,0.013 0.03,0.019 0.051,0.019c0.028,0 0.06,-0.01 0.097,-0.03l0,0.096c-0.043,0.019 -0.084,0.029 -0.122,0.029c-0.052,0 -0.092,-0.014 -0.121,-0.042c-0.028,-0.028 -0.043,-0.066 -0.043,-0.114l0,-0.218l-0.071,0l0,-0.02l0.181,-0.192Z" style="fill:rgb(0,78,116);fill-rule:nonzero;"/>            </g>            <g transform="matrix(144,0,0,144,1426.07,308.476)">                <path d="M0.131,-0.456l0.108,0.245l0.109,-0.245l0.129,0l-0.315,0.795l-0.129,0l0.145,-0.423l-0.177,-0.372l0.13,0Z" style="fill:rgb(0,78,116);fill-rule:nonzero;"/>            </g>            <g transform="matrix(144,0,0,144,1499.25,308.476)">                <path d="M0.109,-0.109c0.016,0 0.031,0.006 0.042,0.017c0.012,0.012 0.018,0.026 0.018,0.042c0,0.016 -0.006,0.03 -0.017,0.041c-0.012,0.011 -0.026,0.017 -0.043,0.017c-0.017,0 -0.031,-0.006 -0.042,-0.017c-0.011,-0.011 -0.017,-0.025 -0.017,-0.041c0,-0.016 0.006,-0.03 0.017,-0.042c0.011,-0.011 0.025,-0.017 0.042,-0.017Z" style="fill:rgb(176,226,250);fill-rule:nonzero;"/>            </g>            <g transform="matrix(144,0,0,144,1530.82,308.476)">                <path d="M0.379,-0.436l0,0.053c-0.043,-0.019 -0.082,-0.028 -0.117,-0.028c-0.05,0 -0.091,0.017 -0.122,0.052c-0.032,0.035 -0.047,0.08 -0.047,0.136c0,0.056 0.015,0.101 0.047,0.135c0.031,0.033 0.073,0.05 0.126,0.05c0.039,0 0.079,-0.009 0.121,-0.026l0,0.05c-0.045,0.015 -0.086,0.023 -0.125,0.023c-0.066,0 -0.119,-0.021 -0.159,-0.063c-0.041,-0.041 -0.061,-0.096 -0.061,-0.164c0,-0.07 0.02,-0.128 0.061,-0.173c0.041,-0.045 0.093,-0.067 0.157,-0.067c0.035,0 0.074,0.007 0.119,0.022Z" style="fill:rgb(0,78,116);fill-rule:nonzero;"/>            </g>            <g transform="matrix(144,0,0,144,1603.05,308.476)">                <path d="M0.271,-0.458c0.065,0 0.119,0.022 0.163,0.067c0.043,0.044 0.065,0.1 0.065,0.167c0,0.066 -0.022,0.122 -0.065,0.166c-0.044,0.045 -0.098,0.067 -0.163,0.067c-0.065,0 -0.12,-0.022 -0.163,-0.067c-0.044,-0.044 -0.066,-0.1 -0.066,-0.166c0,-0.067 0.022,-0.123 0.066,-0.167c0.043,-0.045 0.098,-0.067 0.163,-0.067Zm0,0.42c0.05,0 0.093,-0.018 0.126,-0.053c0.034,-0.035 0.051,-0.08 0.051,-0.133c0,-0.053 -0.017,-0.098 -0.051,-0.133c-0.034,-0.036 -0.076,-0.054 -0.126,-0.054c-0.051,0 -0.093,0.018 -0.127,0.053c-0.034,0.036 -0.051,0.08 -0.051,0.134c0,0.053 0.017,0.098 0.051,0.133c0.034,0.035 0.076,0.053 0.127,0.053Z" style="fill:rgb(0,78,116);fill-rule:nonzero;"/>            </g>            <g transform="matrix(160.641,0,0,144,1687.93,308.476)">                <path d="M0.108,-0.449l0,0.079l0.002,0c0.036,-0.059 0.084,-0.088 0.143,-0.088c0.069,0 0.117,0.036 0.145,0.108c0.042,-0.072 0.094,-0.108 0.156,-0.108c0.047,0 0.084,0.017 0.113,0.05c0.029,0.033 0.043,0.077 0.043,0.132l0,0.276l-0.048,0l0,-0.255c0,-0.048 -0.01,-0.087 -0.031,-0.114c-0.02,-0.028 -0.049,-0.042 -0.086,-0.042c-0.028,0 -0.052,0.008 -0.072,0.025c-0.021,0.016 -0.042,0.043 -0.064,0.08l0,0.306l-0.048,0l0,-0.256c0,-0.05 -0.011,-0.088 -0.032,-0.115c-0.021,-0.027 -0.05,-0.04 -0.086,-0.04c-0.052,0 -0.097,0.032 -0.135,0.096l0,0.315l-0.048,0l0,-0.449l0.048,0Z" style="fill:rgb(0,78,116);fill-rule:nonzero;"/>            </g>        </g>    </g></svg>