<?xml version="1.0" encoding="UTF-8" standalone="no"?><!DOCTYPE svg PUBLIC "-//W3C//DTD SVG 1.1//EN" "http://www.w3.org/Graphics/SVG/1.1/DTD/svg11.dtd"><svg width="100%" height="100%" viewBox="0 0 1024 512" version="1.1" xmlns="http://www.w3.org/2000/svg" xmlns:xlink="http://www.w3.org/1999/xlink" xml:space="preserve" style="fill-rule:evenodd;clip-rule:evenodd;stroke-linejoin:round;stroke-miterlimit:2;"><title>Cashare</title><desc>Cashare is the first disruptive FinTech company in Switzerland, established in January 2008 and has been running the biggest and fastest growing crowdlending platform in this country since then.</desc>    <g transform="matrix(6.32655,0,0,6.32655,2.00172,102.715)">        <g transform="matrix(1,0,0,1,-0.05,-14.3)">            <path d="M53.54,48c-1.316,0.018 -2.624,-0.22 -3.85,-0.7c-1.064,-0.451 -2.014,-1.135 -2.78,-2c-0.768,-0.87 -1.344,-1.892 -1.69,-3c-0.378,-1.234 -0.563,-2.519 -0.55,-3.81c-0.012,-1.301 0.191,-2.595 0.6,-3.83c0.381,-1.101 0.968,-2.119 1.73,-3c0.753,-0.858 1.685,-1.541 2.73,-2c1.138,-0.483 2.364,-0.725 3.6,-0.71c0.818,0 1.634,0.07 2.44,0.21c0.797,0.139 1.578,0.36 2.33,0.66l-0.73,2.75c-0.541,-0.251 -1.108,-0.442 -1.69,-0.57c-0.657,-0.141 -1.328,-0.211 -2,-0.21c-1.572,-0.099 -3.104,0.533 -4.15,1.71c-1.063,1.441 -1.577,3.214 -1.45,5c0,0.903 0.11,1.804 0.33,2.68c0.182,0.756 0.523,1.465 1,2.08c0.479,0.595 1.097,1.062 1.8,1.36c0.865,0.34 1.791,0.5 2.72,0.47c0.783,0.011 1.565,-0.07 2.33,-0.24c0.56,-0.117 1.106,-0.291 1.63,-0.52l0.49,2.67c-0.251,0.145 -0.52,0.256 -0.8,0.33c-0.39,0.119 -0.788,0.213 -1.19,0.28c-0.44,0.08 -0.91,0.15 -1.41,0.21c-0.476,0.091 -0.957,0.151 -1.44,0.18Z" style="fill:rgb(0,115,153);fill-rule:nonzero;"/>        </g>        <g transform="matrix(1,0,0,1,-0.05,-14.3)">            <path d="M68.61,29.48c1.061,-0.031 2.118,0.131 3.12,0.48c1.561,0.536 2.749,1.829 3.15,3.43c0.229,0.851 0.341,1.729 0.33,2.61l0,10.75l-1.11,0.19l-1.59,0.21c-0.6,0.07 -1.24,0.13 -1.93,0.18c-0.69,0.05 -1.38,0.08 -2.06,0.08c-0.898,0.008 -1.794,-0.089 -2.67,-0.29c-0.758,-0.174 -1.474,-0.493 -2.11,-0.94c-0.601,-0.438 -1.08,-1.024 -1.39,-1.7c-0.342,-0.802 -0.509,-1.668 -0.49,-2.54c-0.02,-0.848 0.176,-1.688 0.57,-2.44c0.379,-0.671 0.919,-1.238 1.57,-1.65c0.716,-0.428 1.496,-0.739 2.31,-0.92c0.91,-0.2 1.839,-0.3 2.77,-0.3l1,0l0.94,0.13l0.78,0.15l0.46,0.1l0,-0.81c-0.031,-0.508 -0.118,-1.011 -0.26,-1.5c-0.101,-0.474 -0.302,-0.921 -0.59,-1.31c-0.305,-0.404 -0.708,-0.724 -1.17,-0.93c-0.611,-0.252 -1.27,-0.368 -1.93,-0.34c-0.888,-0.01 -1.775,0.061 -2.65,0.21c-0.581,0.09 -1.151,0.241 -1.7,0.45l-0.36,-2.54c0.644,-0.248 1.316,-0.419 2,-0.51c0.994,-0.175 2.001,-0.259 3.01,-0.25Zm0.08,15.72c0.77,0 1.45,0 2,-0.05c0.51,-0.01 1.018,-0.06 1.52,-0.15l0,-5.44c-0.362,-0.15 -0.742,-0.251 -1.13,-0.3c-0.629,-0.09 -1.264,-0.13 -1.9,-0.12c-0.519,0.002 -1.036,0.039 -1.55,0.11c-0.516,0.063 -1.019,0.208 -1.49,0.43c-0.443,0.21 -0.83,0.522 -1.13,0.91c-0.32,0.437 -0.482,0.969 -0.46,1.51c-0.1,0.95 0.331,1.882 1.12,2.42c0.926,0.497 1.97,0.732 3.02,0.68Z" style="fill:rgb(0,115,153);fill-rule:nonzero;"/>        </g>        <g transform="matrix(1,0,0,1,-0.05,-14.3)">            <path d="M84.43,45.2c1.007,0.06 2.014,-0.118 2.94,-0.52c0.638,-0.304 1.033,-0.964 1,-1.67c0.031,-0.746 -0.324,-1.457 -0.94,-1.88c-0.967,-0.645 -2.008,-1.172 -3.1,-1.57c-0.69,-0.28 -1.36,-0.56 -2,-0.85c-0.595,-0.253 -1.15,-0.59 -1.65,-1c-0.47,-0.392 -0.852,-0.88 -1.12,-1.43c-0.867,-2.036 -0.315,-4.414 1.36,-5.86c1.395,-0.999 3.086,-1.499 4.8,-1.42c0.511,-0.001 1.022,0.03 1.53,0.09c0.51,0.06 1,0.13 1.43,0.21c0.43,0.08 0.83,0.17 1.16,0.26c0.33,0.09 0.53,0.15 0.78,0.24l-0.62,2.79c-0.51,-0.255 -1.046,-0.453 -1.6,-0.59c-0.877,-0.212 -1.778,-0.31 -2.68,-0.29c-0.822,-0.021 -1.636,0.161 -2.37,0.53c-0.634,0.319 -1.025,0.981 -1,1.69c0.005,0.346 0.083,0.687 0.23,1c0.169,0.32 0.408,0.597 0.7,0.81c0.359,0.27 0.749,0.499 1.16,0.68c0.46,0.21 1,0.43 1.67,0.66c0.784,0.292 1.552,0.625 2.3,1c0.626,0.277 1.206,0.648 1.72,1.1c0.481,0.409 0.858,0.927 1.1,1.51c0.27,0.694 0.4,1.435 0.38,2.18c0.087,1.5 -0.62,2.941 -1.86,3.79c-1.597,0.973 -3.452,1.44 -5.32,1.34c-1.266,0.037 -2.531,-0.097 -3.76,-0.4c-0.9,-0.27 -1.52,-0.47 -1.84,-0.61l0.59,-2.79l1.77,0.63c1.053,0.297 2.147,0.422 3.24,0.37Z" style="fill:rgb(0,115,153);fill-rule:nonzero;"/>        </g>        <g transform="matrix(1,0,0,1,-0.05,-14.3)">            <path d="M96.21,47.28l0,-26.45l3,-0.56l0,9.26c0.605,-0.238 1.231,-0.418 1.87,-0.54c0.659,-0.128 1.329,-0.192 2,-0.19c1.186,-0.039 2.368,0.168 3.47,0.61c0.871,0.362 1.63,0.949 2.2,1.7c0.577,0.78 0.973,1.678 1.16,2.63c0.243,1.107 0.357,2.237 0.34,3.37l0,10.17l-3,0l0,-9.47c0,-0.942 -0.084,-1.883 -0.25,-2.81c-0.126,-0.718 -0.406,-1.4 -0.82,-2c-0.333,-0.459 -0.797,-0.808 -1.33,-1c-0.68,-0.239 -1.399,-0.351 -2.12,-0.33c-0.355,-0.001 -0.709,0.022 -1.06,0.07l-1,0.16c-0.3,0.05 -0.59,0.11 -0.89,0.19l-0.56,0.17l0,15l-3.01,0.02Z" style="fill:rgb(0,115,153);fill-rule:nonzero;"/>        </g>        <g transform="matrix(1,0,0,1,-0.05,-14.3)">            <path d="M121.61,29.48c1.061,-0.031 2.118,0.131 3.12,0.48c0.769,0.276 1.456,0.74 2,1.35c0.529,0.592 0.91,1.302 1.11,2.07c0.243,0.852 0.368,1.734 0.37,2.62l0,10.76l-1.11,0.18c-0.47,0.07 -1,0.15 -1.6,0.21c-0.6,0.06 -1.23,0.13 -1.92,0.18c-0.69,0.05 -1.38,0.09 -2.07,0.09c-0.899,0.009 -1.796,-0.091 -2.67,-0.3c-0.756,-0.177 -1.472,-0.496 -2.11,-0.94c-0.593,-0.444 -1.068,-1.028 -1.38,-1.7c-0.349,-0.8 -0.52,-1.667 -0.5,-2.54c-0.01,-0.849 0.189,-1.687 0.58,-2.44c0.379,-0.671 0.919,-1.238 1.57,-1.65c0.716,-0.428 1.496,-0.739 2.31,-0.92c0.91,-0.2 1.839,-0.3 2.77,-0.3l1,0l0.94,0.13l0.78,0.15l0.46,0.1l0,-0.81c-0.002,-0.505 -0.059,-1.008 -0.17,-1.5c-0.098,-0.478 -0.3,-0.928 -0.59,-1.32c-0.309,-0.397 -0.711,-0.713 -1.17,-0.92c-0.611,-0.252 -1.27,-0.368 -1.93,-0.34c-0.888,-0.01 -1.775,0.061 -2.65,0.21c-0.579,0.092 -1.149,0.24 -1.7,0.44l-0.37,-2.53c0.645,-0.247 1.316,-0.421 2,-0.52c0.969,-0.157 1.949,-0.237 2.93,-0.24Zm0.08,15.72c0.77,0 1.45,0 2,-0.05c0.51,-0.01 1.018,-0.06 1.52,-0.15l0,-5.44c-0.362,-0.15 -0.742,-0.251 -1.13,-0.3c-0.629,-0.09 -1.264,-0.13 -1.9,-0.12c-0.519,0.002 -1.036,0.039 -1.55,0.11c-0.519,0.064 -1.026,0.209 -1.5,0.43c-0.441,0.213 -0.828,0.524 -1.13,0.91c-0.311,0.44 -0.47,0.971 -0.45,1.51c-0.1,0.95 0.331,1.882 1.12,2.42c0.926,0.497 1.97,0.732 3.02,0.68Z" style="fill:rgb(0,115,153);fill-rule:nonzero;"/>        </g>        <g transform="matrix(1,0,0,1,-0.05,-14.3)">            <path d="M139.4,28.8c0.297,0.001 0.594,0.018 0.89,0.05c0.337,0.018 0.671,0.065 1,0.14l0.89,0.17c0.204,0.037 0.405,0.09 0.6,0.16l-0.57,2.82c-0.384,-0.142 -0.778,-0.252 -1.18,-0.33c-0.628,-0.129 -1.268,-0.193 -1.91,-0.19c-0.673,-0.006 -1.344,0.067 -2,0.22l-0.92,0.23l0,15.21l-3,0l0,-17.34c0.862,-0.318 1.744,-0.578 2.64,-0.78c1.17,-0.249 2.364,-0.37 3.56,-0.36Z" style="fill:rgb(0,115,153);fill-rule:nonzero;"/>        </g>        <g transform="matrix(1,0,0,1,-0.05,-14.3)">            <path d="M145.41,38.44c-0.029,-1.428 0.208,-2.849 0.7,-4.19c0.4,-1.116 1.026,-2.138 1.84,-3c0.745,-0.77 1.645,-1.373 2.64,-1.77c0.975,-0.397 2.017,-0.601 3.07,-0.6c2.114,-0.127 4.176,0.712 5.6,2.28c1.333,1.52 2,3.853 2,7l0,0.54c0.02,0.203 0.02,0.407 0,0.61l-12.47,0c0.02,1.574 0.598,3.091 1.63,4.28c1.232,1.051 2.838,1.56 4.45,1.41c0.969,0.021 1.936,-0.08 2.88,-0.3c0.599,-0.139 1.184,-0.329 1.75,-0.57l0.45,2.71c-0.662,0.301 -1.356,0.522 -2.07,0.66c-1.1,0.241 -2.224,0.359 -3.35,0.35c-1.396,0.03 -2.785,-0.212 -4.09,-0.71c-1.087,-0.44 -2.059,-1.124 -2.84,-2c-0.756,-0.872 -1.318,-1.895 -1.65,-3c-0.359,-1.201 -0.541,-2.447 -0.54,-3.7Zm12.43,-2.16c0.085,-1.295 -0.302,-2.578 -1.09,-3.61c-0.755,-0.94 -1.916,-1.465 -3.12,-1.41c-0.693,-0.02 -1.38,0.131 -2,0.44c-0.54,0.284 -1.022,0.668 -1.42,1.13c-0.394,0.478 -0.705,1.019 -0.92,1.6c-0.213,0.598 -0.357,1.219 -0.43,1.85l8.98,0Z" style="fill:rgb(0,115,153);fill-rule:nonzero;"/>        </g>        <g transform="matrix(1,0,0,1,-0.05,-14.3)">            <path d="M3.53,31c0.006,6.208 4.344,11.632 10.4,13c0.45,0.09 0.91,0.17 1.37,0.23c0.46,0.06 1,0.08 1.49,0.08c0.96,0 1.75,0.79 1.75,1.75c0,0.96 -0.79,1.75 -1.75,1.75c-0.797,0 -1.592,-0.06 -2.38,-0.18c-0.42,-0.025 -0.835,-0.096 -1.24,-0.21c-7.639,-1.7 -13.12,-8.534 -13.12,-16.36c0,-9.187 7.553,-16.749 16.74,-16.76c2.076,-0.011 4.135,0.369 6.07,1.12l-0.86,3.42c-1.642,-0.697 -3.407,-1.056 -5.19,-1.056c-7.261,0 -13.245,5.955 -13.28,13.216Z" style="fill:rgb(0,181,206);fill-rule:nonzero;"/>        </g>        <g transform="matrix(1,0,0,1,-0.05,-14.3)">            <path d="M33.55,46c-0.001,9.193 -7.567,16.758 -16.76,16.758c-2.076,0 -4.135,-0.386 -6.07,-1.138l0.9,-3.4c1.63,0.687 3.381,1.041 5.15,1.041c7.275,0 13.261,-5.986 13.261,-13.261c0,-5.323 -3.206,-10.153 -8.111,-12.22c-0.743,-0.314 -1.512,-0.558 -2.3,-0.73c-0.45,-0.09 -0.91,-0.17 -1.37,-0.23c-0.495,-0.052 -0.992,-0.079 -1.49,-0.08c-0.96,0 -1.75,-0.79 -1.75,-1.75c0,-0.96 0.79,-1.75 1.75,-1.75c0.797,-0.001 1.592,0.06 2.38,0.18c0.42,0.029 0.836,0.102 1.24,0.22c7.646,1.7 13.142,8.527 13.17,16.36Z" style="fill:rgb(0,115,153);fill-rule:nonzero;"/>        </g>    </g></svg>