<?xml version="1.0" encoding="UTF-8" standalone="no"?><!DOCTYPE svg PUBLIC "-//W3C//DTD SVG 1.1//EN" "http://www.w3.org/Graphics/SVG/1.1/DTD/svg11.dtd"><svg width="100%" height="100%" viewBox="0 0 1024 512" version="1.1" xmlns="http://www.w3.org/2000/svg" xmlns:xlink="http://www.w3.org/1999/xlink" xml:space="preserve" style="fill-rule:evenodd;clip-rule:evenodd;stroke-linejoin:round;stroke-miterlimit:2;"><title>Soisy</title><desc>We want people to lend, borrow and exchange their money easily, with a platform available on desktop and mobile devices.We think it’s time to build “a bank without the bank”. We think it’s time to bank different.</desc>    <g transform="matrix(11.3333,0,0,11.3333,-2883.9,-7885.05)">        <g transform="matrix(1,0,0,1,255.329,712.275)">            <path d="M0,15.639c-0.404,-0.286 -0.691,-0.778 -0.691,-1.353c0,-0.921 0.746,-1.637 1.666,-1.637c0.49,0 0.806,0.144 1.037,0.316c1.667,1.321 3.448,2.072 5.634,2.072c2.184,0 3.565,-1.034 3.565,-2.532l0,-0.058c0,-1.438 -0.806,-2.215 -4.543,-3.076c-4.283,-1.036 -6.699,-2.297 -6.699,-6.009l0,-0.058c0,-3.449 2.876,-5.834 6.874,-5.834c2.53,0 4.569,0.66 6.38,1.868c0.403,0.229 0.777,0.717 0.777,1.408c0,0.921 -0.748,1.639 -1.666,1.639c-0.346,0 -0.632,-0.086 -0.922,-0.259c-1.553,-1.004 -3.047,-1.522 -4.628,-1.522c-2.07,0 -3.276,1.063 -3.276,2.386l0,0.056c0,1.551 0.92,2.242 4.801,3.165c4.253,1.034 6.441,2.557 6.441,5.891l0,0.058c0,3.765 -2.963,6.009 -7.192,6.009c-2.728,0 -5.316,-0.863 -7.558,-2.53" style="fill:rgb(75,79,84);fill-rule:nonzero;"/>        </g>        <g transform="matrix(1,0,0,1,300.283,728.759)">            <path d="M0,-17.273c0,-0.979 0.779,-1.755 1.786,-1.755c0.974,0 1.751,0.776 1.751,1.755l0,17.275c0,0.977 -0.777,1.753 -1.751,1.753c-1.007,0 -1.786,-0.776 -1.786,-1.753l0,-17.275Z" style="fill:rgb(75,79,84);fill-rule:nonzero;"/>        </g>        <g transform="matrix(1,0,0,1,309.121,712.275)">            <path d="M0,15.639c-0.402,-0.286 -0.69,-0.778 -0.69,-1.353c0,-0.921 0.747,-1.637 1.669,-1.637c0.486,0 0.802,0.144 1.035,0.316c1.667,1.321 3.448,2.072 5.633,2.072c2.185,0 3.564,-1.034 3.564,-2.532l0,-0.058c0,-1.438 -0.806,-2.215 -4.541,-3.076c-4.283,-1.036 -6.701,-2.297 -6.701,-6.009l0,-0.058c0,-3.449 2.877,-5.834 6.874,-5.834c2.53,0 4.57,0.66 6.381,1.868c0.403,0.229 0.777,0.717 0.777,1.408c0,0.921 -0.748,1.639 -1.666,1.639c-0.346,0 -0.633,-0.086 -0.922,-0.259c-1.551,-1.004 -3.049,-1.522 -4.629,-1.522c-2.07,0 -3.276,1.063 -3.276,2.386l0,0.056c0,1.551 0.919,2.242 4.799,3.165c4.255,1.034 6.442,2.557 6.442,5.891l0,0.058c0,3.765 -2.963,6.009 -7.188,6.009c-2.731,0 -5.32,-0.863 -7.561,-2.53" style="fill:rgb(75,79,84);fill-rule:nonzero;"/>        </g>        <g transform="matrix(1,0,0,1,333.742,718.036)">            <path d="M0,4.147l-6.928,-9.516c-0.232,-0.345 -0.404,-0.749 -0.404,-1.237c0,-0.946 0.777,-1.695 1.783,-1.695c0.776,0 1.294,0.43 1.725,1.065l5.607,8.074l5.693,-8.105c0.431,-0.631 0.947,-1.064 1.697,-1.064c1.035,0 1.723,0.779 1.723,1.725c0,0.488 -0.231,0.921 -0.489,1.264l-6.868,9.404l0,6.662c0,0.979 -0.779,1.754 -1.785,1.754c-0.977,0 -1.754,-0.775 -1.754,-1.754l0,-6.577Z" style="fill:rgb(75,79,84);fill-rule:nonzero;"/>        </g>        <g transform="matrix(1,0,0,1,290.56,723.024)">            <path d="M0,-5.86c0.375,0.899 0.581,1.887 0.581,2.928l0,0.061c0,3.909 -2.789,7.072 -6.786,7.072c-3.996,0 -6.844,-3.22 -6.844,-7.133l0,-0.058c0,-3.905 2.788,-7.1 6.785,-7.1c0.76,0 1.479,0.12 2.144,0.339c0.751,-0.922 1.549,-1.812 2.382,-2.661c-1.328,-0.589 -2.831,-0.926 -4.467,-0.926c-6.183,0 -10.553,4.746 -10.553,10.406l0,0.061c0,5.664 4.314,10.349 10.494,10.349c6.182,0 10.553,-4.745 10.553,-10.41l0,-0.058c0,-2.128 -0.612,-4.121 -1.704,-5.776c-0.92,0.91 -1.779,1.885 -2.585,2.906" style="fill:rgb(75,79,84);fill-rule:nonzero;"/>        </g>        <g transform="matrix(1,0,0,1,298.009,722.499)">            <path d="M0,-15.582c-0.519,-0.792 -1.583,-1.014 -2.375,-0.493c-4.618,3.035 -8.482,7.066 -11.308,11.771c-0.757,-1.258 -1.597,-2.466 -2.503,-3.631c-1.069,0.51 -1.927,1.34 -2.497,2.377c1.323,1.734 2.476,3.593 3.435,5.556c0.136,0.306 0.364,0.579 0.669,0.761c0.276,0.175 0.586,0.255 0.898,0.255c0.415,0 0.825,-0.147 1.151,-0.44c0.202,-0.18 0.347,-0.4 0.443,-0.637c2.616,-5.33 6.621,-9.873 11.598,-13.143c0.791,-0.521 1.009,-1.583 0.489,-2.376" style="fill:rgb(0,183,79);fill-rule:nonzero;"/>        </g>    </g></svg>