<?xml version="1.0" encoding="UTF-8" standalone="no"?><!DOCTYPE svg PUBLIC "-//W3C//DTD SVG 1.1//EN" "http://www.w3.org/Graphics/SVG/1.1/DTD/svg11.dtd"><svg width="100%" height="100%" viewBox="0 0 1024 512" version="1.1" xmlns="http://www.w3.org/2000/svg" xmlns:xlink="http://www.w3.org/1999/xlink" xml:space="preserve" style="fill-rule:evenodd;clip-rule:evenodd;stroke-linejoin:round;stroke-miterlimit:2;"><title>Blend</title><desc>BLEND is a peer-to-peer property lending platform that lends to established businesses (mostly property developers) with loans secured against property. BLENDs loan-based crowdfunding platform was founded by a team of professionals with substantial experience in real estate and finance.</desc>    <g id="Layer-1" transform="matrix(1.71041,0,0,1.71041,-228.582,-198.617)">        <g id="path64" transform="matrix(71.6121,0,-3.73281,71.612,537.526,336.951)">            <path d="M0.591,-2.008l1.055,0c0.185,0 0.375,0.025 0.488,0.076c0.113,0.048 0.207,0.119 0.281,0.213c0.073,0.093 0.127,0.201 0.158,0.326c0.034,0.124 0.051,0.255 0.051,0.394c0,0.215 -0.025,0.382 -0.073,0.504c-0.051,0.119 -0.119,0.219 -0.207,0.301c-0.088,0.079 -0.224,0.133 -0.323,0.158c-0.139,0.037 -0.264,0.057 -0.375,0.057l-1.055,0l0,-2.029Zm0.749,0.459l0,1.108l0.156,0c0.131,0 0.212,-0.035 0.266,-0.064c0.057,-0.028 0.099,-0.079 0.131,-0.153c0.031,-0.071 0.06,-0.168 0.06,-0.33c0,-0.215 -0.058,-0.342 -0.126,-0.421c-0.07,-0.079 -0.166,-0.14 -0.328,-0.14l-0.159,0Z" style="fill:url(#_Linear1);fill-rule:nonzero;"/>        </g>        <g id="path60" transform="matrix(71.6121,0,-3.73281,71.612,443.873,338.466)">            <path d="M0.213,-2.03l0.765,0l0.74,1.251l-0.018,-1.251l0.622,0l0.011,2.03l-0.803,0l-0.717,-1.114l0,1.114l-0.6,0l0,-2.03Z" style="fill:url(#_Linear2);fill-rule:nonzero;"/>        </g>        <g id="path56" transform="matrix(71.6121,0,-3.73281,71.612,349.238,338.466)">            <path d="M0.207,-2.03l1.681,0l0.001,0.455l-1.033,0l-0.001,0.313l0.875,0l0.002,0.446l-0.875,0l-0.002,0.357l1.037,0l0,0.459l-1.685,0l0,-2.03Z" style="fill:url(#_Linear3);fill-rule:nonzero;"/>        </g>        <g id="path52" transform="matrix(71.6121,0,-3.73281,71.612,267.069,338.466)">            <path d="M0.186,-2.03l0.669,0l0.001,1.552l0.959,0l-0.001,0.478l-1.628,0l0,-2.03Z" style="fill:url(#_Linear4);fill-rule:nonzero;"/>        </g>        <g transform="matrix(0.939923,0,1.05859e-17,0.939923,9.62512,48.9698)">            <path d="M306.799,264.447l-43.553,0l-3.246,43.553l43.553,0l3.246,-43.553Z" style="fill:url(#_Linear5);"/>        </g>        <g id="path48" transform="matrix(71.6121,0,-3.73281,71.612,121.592,338.466)">            <path d="M0.21,-2.03l1.173,0c0.196,0 0.346,0.049 0.451,0.145c0.105,0.099 0.156,0.218 0.156,0.36c0,0.122 -0.037,0.224 -0.111,0.309c-0.051,0.057 -0.124,0.102 -0.221,0.136c0.148,0.037 0.255,0.096 0.323,0.181c0.068,0.085 0.102,0.193 0.102,0.321c0,0.105 -0.022,0.201 -0.073,0.283c-0.048,0.085 -0.114,0.153 -0.199,0.201c-0.054,0.032 -0.133,0.051 -0.238,0.066c-0.142,0.019 -0.235,0.028 -0.28,0.028l-1.083,0l0,-2.03Zm0.632,0.797l0.272,0c0.099,0 0.167,-0.017 0.204,-0.051c0.04,-0.034 0.057,-0.082 0.057,-0.145c0,-0.059 -0.017,-0.107 -0.057,-0.139c-0.037,-0.034 -0.105,-0.051 -0.198,-0.051l-0.278,0l0,0.386Zm0,0.796l0.32,0c0.108,0 0.184,-0.019 0.227,-0.056c0.045,-0.04 0.068,-0.091 0.068,-0.156c0,-0.06 -0.023,-0.108 -0.068,-0.145c-0.043,-0.034 -0.119,-0.054 -0.23,-0.054l-0.317,0l0,0.411Z" style="fill:url(#_Linear6);fill-rule:nonzero;"/>        </g>    </g>    <defs>        <linearGradient id="_Linear1" x1="0" y1="0" x2="1" y2="0.063594" gradientUnits="userSpaceOnUse" gradientTransform="matrix(2.17764,0.702874,-0.792358,2.2404,0.867974,-2.0083)"><stop offset="0" style="stop-color:rgb(255,0,0);stop-opacity:0.9"/><stop offset="0.18" style="stop-color:rgb(225,225,0);stop-opacity:0.9"/><stop offset="0.29" style="stop-color:rgb(106,209,47);stop-opacity:0.9"/><stop offset="0.41" style="stop-color:rgb(70,204,61);stop-opacity:0.9"/><stop offset="0.65" style="stop-color:rgb(76,227,227);stop-opacity:0.9"/><stop offset="0.83" style="stop-color:rgb(0,162,241);stop-opacity:0.9"/><stop offset="1" style="stop-color:rgb(168,20,168);stop-opacity:0.9"/></linearGradient>        <linearGradient id="_Linear2" x1="0" y1="0" x2="1" y2="0.246249" gradientUnits="userSpaceOnUse" gradientTransform="matrix(2.62258,0.411024,-0.680093,2.06301,0.212598,-2.02961)"><stop offset="0" style="stop-color:rgb(255,0,0);stop-opacity:0.9"/><stop offset="0.18" style="stop-color:rgb(236,236,18);stop-opacity:0.9"/><stop offset="0.29" style="stop-color:rgb(100,198,42);stop-opacity:0.9"/><stop offset="0.41" style="stop-color:rgb(58,187,49);stop-opacity:0.9"/><stop offset="0.67" style="stop-color:rgb(83,208,208);stop-opacity:0.9"/><stop offset="0.83" style="stop-color:rgb(35,93,216);stop-opacity:0.9"/><stop offset="1" style="stop-color:rgb(139,0,139);stop-opacity:0.9"/></linearGradient>        <linearGradient id="_Linear3" x1="0" y1="0" x2="1" y2="0" gradientUnits="userSpaceOnUse" gradientTransform="matrix(2.14838,0.796535,-0.774707,2.37684,0.206929,-2.02961)"><stop offset="0" style="stop-color:rgb(218,64,33);stop-opacity:0.9"/><stop offset="0.18" style="stop-color:rgb(220,220,0);stop-opacity:0.9"/><stop offset="0.29" style="stop-color:rgb(80,202,23);stop-opacity:0.9"/><stop offset="0.41" style="stop-color:rgb(37,197,30);stop-opacity:0.9"/><stop offset="0.65" style="stop-color:rgb(65,215,215);stop-opacity:0.9"/><stop offset="0.83" style="stop-color:rgb(94,94,221);stop-opacity:0.9"/><stop offset="1" style="stop-color:rgb(121,52,177);stop-opacity:0.9"/></linearGradient>        <linearGradient id="_Linear4" x1="0" y1="0" x2="1" y2="-0.0547263" gradientUnits="userSpaceOnUse" gradientTransform="matrix(1.9331,1.0148,-0.926917,2.27522,0.185626,-2.02961)"><stop offset="0" style="stop-color:rgb(255,0,0);stop-opacity:0.9"/><stop offset="0.18" style="stop-color:rgb(226,226,51);stop-opacity:0.9"/><stop offset="0.29" style="stop-color:rgb(127,208,79);stop-opacity:0.9"/><stop offset="0.41" style="stop-color:rgb(97,202,87);stop-opacity:0.9"/><stop offset="0.67" style="stop-color:rgb(46,198,198);stop-opacity:0.9"/><stop offset="0.85" style="stop-color:rgb(99,99,216);stop-opacity:0.9"/><stop offset="1" style="stop-color:rgb(99,62,151);stop-opacity:0.9"/></linearGradient>        <linearGradient id="_Linear5" x1="0" y1="0" x2="1" y2="0.0555575" gradientUnits="userSpaceOnUse" gradientTransform="matrix(41.9298,33.2593,-105.462,98.2509,264.869,273.285)"><stop offset="0" style="stop-color:rgb(83,204,255);stop-opacity:1"/><stop offset="0.67" style="stop-color:rgb(48,72,188);stop-opacity:1"/><stop offset="1" style="stop-color:rgb(139,0,139);stop-opacity:1"/></linearGradient>        <linearGradient id="_Linear6" x1="0" y1="0" x2="1" y2="0.0479912" gradientUnits="userSpaceOnUse" gradientTransform="matrix(1.94791,0.889899,-0.966562,2.0095,0.209764,-2.02961)"><stop offset="0" style="stop-color:rgb(186,61,55);stop-opacity:1"/><stop offset="0.2" style="stop-color:rgb(219,219,0);stop-opacity:1"/><stop offset="0.3" style="stop-color:rgb(118,211,59);stop-opacity:1"/><stop offset="0.41" style="stop-color:rgb(87,209,77);stop-opacity:1"/><stop offset="0.64" style="stop-color:rgb(91,221,221);stop-opacity:1"/><stop offset="0.83" style="stop-color:rgb(86,86,235);stop-opacity:1"/><stop offset="1" style="stop-color:rgb(174,100,172);stop-opacity:1"/></linearGradient>    </defs></svg>