<?xml version="1.0" encoding="UTF-8" standalone="no"?><!DOCTYPE svg PUBLIC "-//W3C//DTD SVG 1.1//EN" "http://www.w3.org/Graphics/SVG/1.1/DTD/svg11.dtd"><svg width="100%" height="100%" viewBox="0 0 1024 512" version="1.1" xmlns="http://www.w3.org/2000/svg" xmlns:xlink="http://www.w3.org/1999/xlink" xml:space="preserve" style="fill-rule:evenodd;clip-rule:evenodd;stroke-linejoin:round;stroke-miterlimit:2;"><title>Aescuvest</title><desc>aescuvest enables great health innovations through equity crowdfunding. It is the leading platform to foster and fund smart healthcare ideas. This independent launch pad offers financing strategies to companies &amp; an above-average profit share to investors.</desc>    <g transform="matrix(6.2119,0,0,6.2119,2,88.3122)">        <g transform="matrix(1,0,0,1,0,0.989)">            <path d="M0,14.577c0,-1.011 0.716,-2.252 1.592,-2.758l19.795,-11.428c0.876,-0.506 2.309,-0.506 3.185,0l19.794,11.428c0.876,0.506 1.593,1.747 1.593,2.758l0,22.858c0,1.011 -0.717,2.252 -1.593,2.757l-19.795,11.429c-0.875,0.506 -2.308,0.506 -3.185,0l-19.794,-11.429c-0.876,-0.505 -1.592,-1.746 -1.592,-2.757l0,-22.858Z" style="fill:rgb(64,240,33);"/>        </g>        <path d="M5.129,16.345c0,-0.429 0.35,-0.777 0.784,-0.777l4.084,0c0.308,0 0.576,0.177 0.701,0.436l1.982,4.674l-1.695,3.998l-2.441,-5.765c-0.058,-0.138 -0.197,-0.236 -0.359,-0.236l-2.273,0c-0.434,0 -0.784,-0.348 -0.784,-0.776c0.001,-0.239 0.001,-1.316 0.001,-1.554Z" style="fill:rgb(0,41,79);"/>        <path d="M9.997,38.42l-4.084,0c-0.434,0 -0.784,-0.347 -0.784,-0.776l0,-1.554c0,-0.428 0.35,-0.778 0.784,-0.778l2.273,0c0.161,0 0.3,-0.097 0.359,-0.236l11.235,-26.524c0.13,-0.257 0.394,-0.434 0.702,-0.434l4.993,0c0.311,0 0.574,0.177 0.705,0.433l5.134,12.127l-1.694,3.998l-5.595,-13.213c-0.058,-0.14 -0.199,-0.237 -0.359,-0.237l-1.373,0c-0.162,0 -0.298,0.097 -0.359,0.237l-5.92,13.976l13.283,0l-1.316,3.109l-13.283,0l-4,9.436c-0.125,0.258 -0.393,0.436 -0.701,0.436Z" style="fill:rgb(0,41,79);"/>        <path d="M40.829,37.644c0,0.429 -0.353,0.776 -0.784,0.776l-4.086,0c-0.309,0 -0.574,-0.178 -0.703,-0.434l-1.977,-4.677l1.692,-3.999l2.444,5.766c0.057,0.139 0.199,0.236 0.359,0.236l2.273,0c0.434,0 0.784,0.35 0.784,0.778c-0.002,0.237 -0.002,1.316 -0.002,1.554Z" style="fill:rgb(0,41,79);"/>        <path d="M40.829,17.899c0,0.428 -0.35,0.776 -0.784,0.776l-2.273,0c-0.159,0 -0.3,0.098 -0.359,0.236l-11.233,26.526c-0.131,0.257 -0.394,0.433 -0.705,0.433l-4.993,0c-0.308,0 -0.572,-0.176 -0.702,-0.433l-5.134,-12.128l1.242,-2.932l0.903,0l5.145,12.149c0.06,0.139 0.199,0.235 0.359,0.236l1.373,0c0.159,-0.001 0.3,-0.097 0.359,-0.236l11.231,-26.521c0.13,-0.258 0.394,-0.436 0.703,-0.436l4.087,0c0.431,0 0.783,0.348 0.783,0.778c-0.002,0.236 -0.002,1.313 -0.002,1.552Z" style="fill:rgb(0,41,79);"/>        <g transform="matrix(1,0,0,1,0,7.74375)">            <path d="M61.616,18.466c0,0.419 -0.345,0.419 -0.567,0.419l-1.111,0c-0.37,0 -0.494,-0.198 -0.494,-0.493c0,-2.296 2.37,-3.457 4.468,-3.457c2.789,0 4.517,1.21 4.517,3.95l0,8.146c0,0.272 -0.222,0.494 -0.494,0.494l-0.838,0c-0.148,0 -0.248,-0.049 -0.346,-0.173c-0.148,-0.197 -0.247,-0.518 -0.494,-0.518c-0.445,0 -1.061,0.937 -2.888,0.937c-3.036,0 -4.492,-1.851 -4.492,-3.949c0,-2.048 1.481,-3.752 4.072,-3.752l3.012,0c0.148,0 0.247,-0.099 0.247,-0.247l0,-0.938c0,-1.333 -0.913,-1.975 -2.296,-1.975c-0.864,0 -2.296,0.37 -2.296,1.555Zm1.333,3.629c-1.259,0 -1.851,0.666 -1.851,1.703c0,1.21 0.765,1.926 2.197,1.926c2.271,0 3.111,-0.913 3.111,-2.592l0,-0.79c0,-0.148 -0.1,-0.247 -0.248,-0.247l-3.209,0Zm10.84,-0.024c-0.148,0 -0.246,0.099 -0.246,0.247c0,2.246 1.159,3.234 2.863,3.234c1.283,0 2.246,-0.642 2.542,-1.555c0.098,-0.321 0.346,-0.421 0.568,-0.421l1.259,0c0.246,0 0.469,0.149 0.419,0.494c-0.296,2.149 -2.221,3.703 -4.788,3.703c-2.963,0 -4.864,-2.097 -5.061,-4.689c-0.074,-0.988 -0.074,-2.469 0,-3.457c0.197,-2.591 2.098,-4.69 5.061,-4.69c2.986,0 4.936,1.852 4.936,4.937l0,1.703c0,0.272 -0.222,0.494 -0.494,0.494l-7.059,0Zm-0.197,-2.221c0,0.147 0.098,0.246 0.246,0.246l5.135,0c0.148,0 0.246,-0.099 0.246,-0.246c0,-1.704 -1.259,-2.691 -2.788,-2.691c-1.704,0 -2.839,1.185 -2.839,2.691Zm18.885,-0.716l-1.233,0c-0.272,0 -0.495,-0.223 -0.495,-0.494c0,-0.864 -0.666,-1.604 -2.294,-1.604c-1.532,0 -2.173,0.765 -2.173,1.48c0,0.963 0.963,1.284 2.173,1.506c2.073,0.37 4.862,0.79 4.862,3.802c0,2.64 -2.296,3.95 -4.862,3.95c-2.469,0 -4.889,-1.235 -4.889,-3.95l0,-0.322c0,-0.271 0.223,-0.492 0.494,-0.492l1.234,0c0.271,0 0.495,0.221 0.495,0.492l0,0.322c0,1.48 1.53,1.826 2.666,1.826c1.333,0 2.64,-0.346 2.64,-1.826c0,-1.012 -1.209,-1.284 -2.64,-1.581c-2.026,-0.419 -4.468,-0.938 -4.468,-3.727c0,-2.221 2.22,-3.579 4.468,-3.579c2.294,0.001 4.516,1.358 4.516,3.703c0,0.271 -0.223,0.494 -0.494,0.494m11.063,3.95l1.283,0c0.272,0 0.493,0.221 0.493,0.493c0,2.396 -1.999,4.197 -4.763,4.197c-2.962,0 -4.74,-2.098 -4.937,-4.69c-0.074,-0.988 -0.074,-2.469 0,-3.456c0.197,-2.592 1.975,-4.691 4.937,-4.691c2.764,0 4.763,1.803 4.763,4.197c0,0.271 -0.147,0.494 -0.419,0.494l-1.334,0c-0.22,0 -0.468,-0.124 -0.468,-0.396c0,-1.159 -1.011,-2.073 -2.542,-2.073c-1.703,0 -2.617,1.16 -2.715,2.469c-0.074,1.011 -0.074,2.443 0,3.456c0.098,1.308 1.012,2.468 2.715,2.468c1.506,0 2.517,-0.888 2.517,-2.049c0,-0.32 0.247,-0.419 0.47,-0.419m4.52,-7.406c0,-0.273 0.222,-0.494 0.493,-0.494l1.235,0c0.271,0 0.493,0.221 0.493,0.494l0,7.405c0,1.431 1.011,2.469 2.716,2.469c1.53,0 2.714,-0.914 2.714,-2.346l0,-7.528c0,-0.273 0.223,-0.494 0.494,-0.494l1.234,0c0.271,0 0.494,0.221 0.494,0.494l0,11.355c0,0.271 -0.223,0.494 -0.494,0.494l-1.086,0c-0.148,0 -0.246,-0.075 -0.346,-0.173c-0.147,-0.173 -0.371,-0.395 -0.616,-0.395c-0.717,0 -0.815,0.814 -2.642,0.814c-2.789,0 -4.689,-1.974 -4.689,-4.69l0.001,-7.405Zm20.588,-0.124c0.099,-0.272 0.246,-0.37 0.469,-0.37l1.53,0c0.395,0 0.567,0.321 0.469,0.567l-4.345,11.405c-0.099,0.247 -0.246,0.37 -0.468,0.37l-1.358,0c-0.222,0 -0.37,-0.123 -0.469,-0.37l-4.369,-11.405c-0.1,-0.246 0.074,-0.567 0.469,-0.567l1.53,0c0.223,0 0.371,0.098 0.469,0.37l2.864,8.22c0.049,0.173 0.296,0.173 0.345,0l2.864,-8.22Zm6.199,6.517c-0.148,0 -0.247,0.099 -0.247,0.247c0,2.246 1.16,3.234 2.864,3.234c1.283,0 2.245,-0.642 2.542,-1.555c0.098,-0.321 0.346,-0.421 0.569,-0.421l1.258,0c0.246,0 0.469,0.149 0.419,0.494c-0.296,2.149 -2.22,3.703 -4.788,3.703c-2.963,0 -4.864,-2.097 -5.06,-4.689c-0.075,-0.988 -0.075,-2.469 0,-3.457c0.196,-2.591 2.097,-4.69 5.06,-4.69c2.987,0 4.937,1.852 4.937,4.937l0,1.703c0,0.272 -0.223,0.494 -0.494,0.494l-7.06,0Zm-0.197,-2.221c0,0.147 0.098,0.246 0.246,0.246l5.136,0c0.147,0 0.246,-0.099 0.246,-0.246c0,-1.704 -1.26,-2.691 -2.789,-2.691c-1.704,0 -2.839,1.185 -2.839,2.691Zm18.884,-0.716l-1.233,0c-0.272,0 -0.495,-0.222 -0.495,-0.494c0,-0.864 -0.666,-1.604 -2.294,-1.604c-1.532,0 -2.173,0.766 -2.173,1.481c0,0.963 0.963,1.284 2.173,1.506c2.072,0.37 4.862,0.789 4.862,3.801c0,2.641 -2.296,3.95 -4.862,3.95c-2.47,0 -4.889,-1.234 -4.889,-3.95l0,-0.321c0,-0.271 0.222,-0.493 0.493,-0.493l1.235,0c0.271,0 0.495,0.222 0.495,0.493l0,0.321c0,1.481 1.529,1.827 2.666,1.827c1.332,0 2.639,-0.346 2.639,-1.827c0,-1.011 -1.208,-1.283 -2.639,-1.58c-2.026,-0.419 -4.468,-0.938 -4.468,-3.727c0,-2.222 2.22,-3.579 4.468,-3.579c2.294,0 4.516,1.357 4.516,3.702c0,0.272 -0.222,0.494 -0.494,0.494m9.926,-3.827c0.271,0 0.494,0.222 0.494,0.494l0,1.235c0,0.271 -0.223,0.493 -0.494,0.493l-2.839,0c-0.148,0 -0.246,0.099 -0.246,0.247l0,5.8c0,1.087 0.468,1.803 1.974,1.803l1.357,0c0.273,0 0.494,0.222 0.494,0.494l0,1.16c0,0.272 -0.221,0.494 -0.494,0.494l-1.357,0c-2.567,0 -4.197,-1.111 -4.197,-3.951l0,-5.8c0,-0.148 -0.098,-0.247 -0.246,-0.247l-1.728,0c-0.271,0 -0.492,-0.222 -0.492,-0.493l0,-1.235c0,-0.272 0.221,-0.494 0.492,-0.494l1.728,0c0.148,0 0.246,-0.099 0.246,-0.246l0,-3.827c0,-0.271 0.223,-0.493 0.495,-0.493l1.234,0c0.271,0 0.494,0.222 0.494,0.493l0,3.827c0,0.147 0.098,0.246 0.246,0.246l2.839,0Z" style="fill:rgb(0,41,79);"/>        </g>    </g></svg>