<?xml version="1.0" encoding="UTF-8" standalone="no"?><!DOCTYPE svg PUBLIC "-//W3C//DTD SVG 1.1//EN" "http://www.w3.org/Graphics/SVG/1.1/DTD/svg11.dtd"><svg width="100%" height="100%" viewBox="0 0 1024 512" version="1.1" xmlns="http://www.w3.org/2000/svg" xmlns:xlink="http://www.w3.org/1999/xlink" xml:space="preserve" style="fill-rule:evenodd;clip-rule:evenodd;stroke-linejoin:round;stroke-miterlimit:2;"><title>The Software House</title><desc></desc>    <g transform="matrix(10.5155,0,0,10.5155,2,24.6598)">        <path d="M39.1,6.9l-2.3,0l0,9l-2.2,0l0,-9l-2.3,0l0,-1.8l6.8,0l0,1.8Zm3.1,-1.8l0,4.1l2.5,0l0,-4.1l2.2,0l0,10.7l-2.2,0l0,-4.8l-2.5,0l0,4.8l-2.2,0l0,-10.7l2.2,0Zm12.1,1.8l-3.8,0l0,2.5l3.6,0l0,1.8l-3.6,0l0,2.9l4,0l0,1.8l-6.1,0l0,-10.8l6,0l0,1.8l-0.1,0Zm-19.8,19.8c0,0.3 0,0.5 0.1,0.7c0,0.2 0.1,0.4 0.2,0.5c0.1,0.1 0.3,0.3 0.4,0.3c0.2,0.1 0.4,0.1 0.7,0.1c0.3,0 0.6,-0.1 0.9,-0.3c0.3,-0.2 0.4,-0.5 0.4,-1c0,-0.2 0,-0.4 -0.1,-0.6c-0.1,-0.2 -0.2,-0.3 -0.3,-0.5c-0.1,-0.1 -0.3,-0.3 -0.6,-0.4c-0.2,-0.1 -0.5,-0.2 -0.9,-0.4c-0.5,-0.2 -0.9,-0.3 -1.2,-0.5c-0.4,-0.2 -0.6,-0.4 -0.9,-0.7c-0.2,-0.3 -0.4,-0.6 -0.5,-0.9c-0.1,-0.3 -0.2,-0.7 -0.2,-1.2c0,-1.1 0.3,-1.9 0.9,-2.4c0.6,-0.5 1.4,-0.8 2.4,-0.8c0.5,0 0.9,0.1 1.3,0.2c0.4,0.1 0.8,0.3 1,0.5c0.3,0.2 0.5,0.5 0.7,0.9c0.2,0.4 0.2,0.8 0.2,1.3l0,0.3l-2.1,0c0,-0.5 -0.1,-0.9 -0.3,-1.2c-0.2,-0.3 -0.5,-0.4 -0.9,-0.4c-0.2,0 -0.4,0 -0.6,0.1c-0.2,0.1 -0.3,0.2 -0.4,0.3c-0.1,0.1 -0.2,0.2 -0.2,0.4c0,0.2 -0.1,0.3 -0.1,0.5c0,0.3 0.1,0.6 0.2,0.8c0.1,0.2 0.4,0.4 0.9,0.6l1.7,0.7c0.4,0.2 0.7,0.4 1,0.6c0.3,0.2 0.5,0.4 0.6,0.6c0.2,0.2 0.3,0.5 0.3,0.7c0.1,0.3 0.1,0.6 0.1,0.9c0,1.1 -0.3,2 -1,2.5c-0.7,0.5 -1.6,0.8 -2.7,0.8c-1.2,0 -2.1,-0.3 -2.6,-0.8c-0.5,-0.5 -0.8,-1.3 -0.8,-2.3l0,-0.4l2.2,0l0,0.5l0.2,0Zm6,-4.6c0.1,-0.7 0.2,-1.3 0.5,-1.8c0.3,-0.5 0.6,-0.9 1.1,-1.1c0.5,-0.3 1.1,-0.4 1.9,-0.4c0.8,0 1.5,0.1 1.9,0.4c0.5,0.3 0.8,0.7 1.1,1.1c0.3,0.5 0.4,1.1 0.5,1.8c0.1,0.7 0.1,1.4 0.1,2.2c0,0.8 0,1.6 -0.1,2.3c-0.1,0.7 -0.2,1.3 -0.5,1.8c-0.3,0.5 -0.6,0.9 -1.1,1.1c-0.5,0.3 -1.1,0.4 -1.9,0.4c-0.8,0 -1.5,-0.1 -1.9,-0.4c-0.5,-0.3 -0.8,-0.6 -1.1,-1.1c-0.3,-0.5 -0.4,-1.1 -0.5,-1.8c-0.1,-0.7 -0.1,-1.4 -0.1,-2.3c0,-0.8 0,-1.5 0.1,-2.2Zm2.1,4.1c0,0.5 0.1,0.9 0.2,1.2c0.1,0.3 0.3,0.5 0.4,0.7c0.2,0.1 0.5,0.2 0.8,0.2c0.3,0 0.6,-0.1 0.8,-0.2c0.2,-0.1 0.3,-0.4 0.4,-0.7c0.1,-0.3 0.2,-0.7 0.2,-1.2c0,-0.5 0.1,-1.1 0.1,-1.8c0,-0.7 0,-1.3 -0.1,-1.8c0,-0.5 -0.1,-0.9 -0.2,-1.2c-0.1,-0.3 -0.3,-0.6 -0.4,-0.7c-0.2,-0.1 -0.5,-0.2 -0.8,-0.2c-0.3,0 -0.6,0.1 -0.8,0.2c-0.2,0.1 -0.3,0.4 -0.4,0.7c-0.1,0.3 -0.2,0.7 -0.2,1.2c0,0.5 -0.1,1.1 -0.1,1.8c0,0.7 0,1.3 0.1,1.8Zm12.3,-7.2l0,1.8l-3.8,0l0,2.5l3.6,0l0,1.7l-3.6,0l0,4.7l-2.2,0l0,-10.7l6,0Zm7.2,1.7l-2.3,0l0,9l-2.2,0l0,-9l-2.3,0l0,-1.7l6.8,0l0,1.7Zm2.4,-1.7l1.2,7.9l1.3,-7.9l2,0l1.3,7.9l1.2,-7.9l2.1,0l-1.9,10.7l-2.4,0l-1.3,-7.8l-1.2,7.8l-2.4,0l-2,-10.7l2.1,0Zm14.4,0l2.8,10.7l-2.2,0l-0.5,-2.3l-2.8,0l-0.5,2.3l-2.2,0l2.8,-10.7l2.6,0Zm-0.2,6.7l-1,-4.8l-1,4.8l2,0Zm7.8,-6.7c0.9,0 1.6,0.2 2.1,0.7c0.5,0.5 0.7,1.1 0.7,2.1c0,0.7 -0.1,1.3 -0.4,1.8c-0.3,0.5 -0.7,0.7 -1.3,0.9c0.5,0.1 0.9,0.3 1.2,0.5c0.2,0.3 0.4,0.7 0.5,1.3l0,1.5c0,0.6 0,1 0.1,1.3c0.1,0.3 0.2,0.5 0.4,0.6l0,0.1l-2.3,0c-0.1,-0.2 -0.2,-0.3 -0.2,-0.5c0,-0.2 -0.1,-0.4 -0.1,-0.6l-0.1,-2.1c0,-0.4 -0.1,-0.8 -0.3,-1c-0.2,-0.2 -0.5,-0.4 -1,-0.4l-1.2,0l0,4.5l-2.2,0l0,-10.7l4.1,0Zm-0.9,4.7c0.5,0 0.9,-0.1 1.2,-0.4c0.3,-0.2 0.4,-0.7 0.4,-1.2c0,-1 -0.5,-1.5 -1.5,-1.5l-1,0l0,3.1l0.9,0Zm11.3,-3l-3.9,0l0,2.5l3.6,0l0,1.8l-3.6,0l0,2.9l4,0l0,1.8l-6.1,0l0,-10.7l6,0l0,1.7Zm-61.9,12.1l0,4.1l2.5,0l0,-4.1l2.2,0l0,10.7l-2.2,0l0,-4.8l-2.5,0l0,4.8l-2.2,0l0,-10.7l2.2,0Zm6,3.2c0.1,-0.7 0.2,-1.3 0.5,-1.8c0.3,-0.5 0.6,-0.9 1.1,-1.1c0.5,-0.3 1.1,-0.4 1.9,-0.4c0.8,0 1.5,0.1 1.9,0.4c0.5,0.3 0.8,0.7 1.1,1.1c0.3,0.5 0.4,1.1 0.5,1.8c0.1,0.7 0.1,1.4 0.1,2.2c0,0.8 0,1.6 -0.1,2.3c-0.1,0.7 -0.2,1.3 -0.5,1.8c-0.3,0.5 -0.6,0.9 -1.1,1.1c-0.5,0.3 -1.1,0.4 -1.9,0.4c-0.8,0 -1.5,-0.1 -1.9,-0.4c-0.5,-0.3 -0.8,-0.6 -1.1,-1.1c-0.3,-0.5 -0.4,-1.1 -0.5,-1.8c-0.1,-0.7 -0.1,-1.4 -0.1,-2.3c0,-0.8 0.1,-1.5 0.1,-2.2Zm2.1,4.1c0,0.5 0.1,0.9 0.2,1.2c0.1,0.3 0.3,0.5 0.4,0.7c0.2,0.1 0.5,0.2 0.8,0.2c0.3,0 0.6,-0.1 0.8,-0.2c0.2,-0.1 0.3,-0.4 0.4,-0.7c0.1,-0.3 0.2,-0.7 0.2,-1.2c0,-0.5 0.1,-1.1 0.1,-1.8c0,-0.7 0,-1.3 -0.1,-1.8c0,-0.5 -0.1,-0.9 -0.2,-1.2c-0.1,-0.3 -0.3,-0.6 -0.4,-0.7c-0.2,-0.1 -0.5,-0.2 -0.8,-0.2c-0.3,0 -0.6,0.1 -0.8,0.2c-0.2,0.1 -0.3,0.4 -0.4,0.7c-0.1,0.3 -0.2,0.7 -0.2,1.2c0,0.5 -0.1,1.1 -0.1,1.8c0.1,0.6 0.1,1.2 0.1,1.8Zm8.4,0.2c0,0.3 0,0.5 0.1,0.7c0,0.2 0.1,0.4 0.2,0.6c0.1,0.2 0.2,0.3 0.4,0.4c0.2,0.1 0.4,0.1 0.6,0.1c0.3,0 0.5,0 0.6,-0.1c0.2,-0.1 0.3,-0.2 0.4,-0.4c0.1,-0.2 0.2,-0.4 0.2,-0.6c0,-0.2 0.1,-0.5 0.1,-0.7l0,-7.5l2.2,0l0,7.5c0,0.7 -0.1,1.2 -0.3,1.7c-0.2,0.4 -0.4,0.8 -0.8,1.1c-0.3,0.3 -0.7,0.4 -1.1,0.5c-0.4,0.1 -0.8,0.1 -1.3,0.1c-0.4,0 -0.9,0 -1.3,-0.1c-0.4,-0.1 -0.8,-0.2 -1.1,-0.5c-0.3,-0.2 -0.6,-0.6 -0.8,-1c-0.2,-0.5 -0.3,-1 -0.3,-1.8l0,-7.5l2.2,0l0,7.5Zm7.8,0.2c0,0.3 0,0.5 0.1,0.7c0,0.2 0.1,0.4 0.2,0.5c0.1,0.1 0.3,0.3 0.4,0.3c0.2,0.1 0.4,0.1 0.7,0.1c0.3,0 0.6,-0.1 0.9,-0.3c0.3,-0.2 0.4,-0.5 0.4,-1c0,-0.2 0,-0.4 -0.1,-0.6c-0.1,-0.2 -0.2,-0.3 -0.3,-0.5c-0.1,-0.1 -0.3,-0.3 -0.6,-0.4c-0.2,-0.1 -0.5,-0.2 -0.9,-0.4c-0.5,-0.2 -0.9,-0.3 -1.2,-0.5c-0.4,-0.2 -0.6,-0.4 -0.9,-0.7c-0.2,-0.3 -0.4,-0.6 -0.5,-0.9c-0.1,-0.3 -0.2,-0.7 -0.2,-1.2c0,-1.1 0.3,-1.9 0.9,-2.4c0.6,-0.5 1.4,-0.8 2.4,-0.8c0.5,0 0.9,0.1 1.3,0.2c0.4,0.1 0.8,0.3 1,0.5c0.3,0.2 0.5,0.5 0.7,0.9c0.2,0.4 0.2,0.8 0.2,1.3l0,0.3l-2.1,0c0,-0.5 -0.1,-0.9 -0.3,-1.2c-0.2,-0.3 -0.5,-0.4 -0.9,-0.4c-0.2,0 -0.4,0 -0.6,0.1c-0.2,0.1 -0.3,0.2 -0.4,0.3c-0.1,0.1 -0.2,0.2 -0.2,0.4c0,0.2 -0.1,0.3 -0.1,0.5c0,0.3 0.1,0.6 0.2,0.8c0.1,0.2 0.4,0.4 0.9,0.6l1.7,0.7c0.4,0.2 0.7,0.4 1,0.6c0.3,0.2 0.5,0.4 0.6,0.6c0.2,0.2 0.3,0.5 0.3,0.7c0.1,0.3 0.1,0.6 0.1,0.9c0,1.1 -0.3,2 -1,2.5c-0.7,0.5 -1.6,0.8 -2.7,0.8c-1.2,0 -2.1,-0.3 -2.6,-0.8c-0.5,-0.5 -0.8,-1.3 -0.8,-2.3l0,-0.4l2.2,0l0,0.5l0.2,0Zm12,-5.9l-3.8,0l0,2.5l3.6,0l0,1.8l-3.6,0l0,2.9l4,0l0,1.8l-6.1,0l0,-10.8l6,0l0,1.8l-0.1,0Zm-41.2,9.4l-0.1,-39.4l-30,-4.6l0,34.8l10.2,3.1l0,-16.3l8.5,1.9l0,11.1l-8.7,3.3l8.7,2.6l11.4,3.5Z" style="fill-rule:nonzero;"/>    </g></svg>