<?xml version="1.0" encoding="UTF-8" standalone="no"?><!DOCTYPE svg PUBLIC "-//W3C//DTD SVG 1.1//EN" "http://www.w3.org/Graphics/SVG/1.1/DTD/svg11.dtd"><svg width="100%" height="100%" viewBox="0 0 1024 512" version="1.1" xmlns="http://www.w3.org/2000/svg" xmlns:xlink="http://www.w3.org/1999/xlink" xml:space="preserve" style="fill-rule:evenodd;clip-rule:evenodd;stroke-linejoin:round;stroke-miterlimit:2;"><title>Vialet</title><desc></desc>    <g id="Fill-1-Copy-4" transform="matrix(8.5,0,0,8.5,-3313,-1393.22)">        <path d="M493.949,186l0,3.524l5.873,0l0,12.527l4.305,0l0,-12.527l5.873,0l0,-3.524l-16.051,0Zm-21.401,0l0,16.051l16.051,0l0,-3.524l-11.744,0l0,-2.74l7.831,0l0,-3.523l-7.831,0l0,-2.74l11.744,0l0,-3.524l-16.051,0Zm-21.402,0l0,16.051l16.051,0l0,-3.327l-11.743,0l0,-12.724l-4.308,0Zm-17.315,0l-7.143,16.051l4.057,0l1.306,-2.936l7.62,0l1.308,2.936l4.053,0l-7.143,-16.051l-4.058,0Zm2.03,4.586l2.292,5.35l-4.586,0l2.294,-5.35Zm-17.146,-4.586l-7.314,16.051l4.152,0l7.313,-16.051l-4.151,0Zm-14.425,0l-5.118,11.495l-5.119,-11.495l-4.053,0l7.144,16.051l4.058,0l7.142,-16.051l-4.054,0Z" style="fill:rgb(0,44,193);"/>    </g></svg>