<?xml version="1.0" encoding="UTF-8" standalone="no"?><!DOCTYPE svg PUBLIC "-//W3C//DTD SVG 1.1//EN" "http://www.w3.org/Graphics/SVG/1.1/DTD/svg11.dtd"><svg width="100%" height="100%" viewBox="0 0 1024 512" version="1.1" xmlns="http://www.w3.org/2000/svg" xmlns:xlink="http://www.w3.org/1999/xlink" xml:space="preserve" style="fill-rule:evenodd;clip-rule:evenodd;stroke-linejoin:round;stroke-miterlimit:2;"><title>FCA</title><desc></desc>    <g transform="matrix(2.21739,0,0,2.21545,-55.6522,-27.578)">        <path d="M169.81,165c-2.191,2.143 -4.62,4.029 -7.24,5.62c-3.083,1.875 -6.38,3.372 -9.82,4.46c-3.972,1.246 -8.117,1.857 -12.28,1.81c-5.988,0.091 -11.933,-1.038 -17.47,-3.32c-5.122,-2.151 -9.743,-5.342 -13.57,-9.37c-3.85,-4.108 -6.853,-8.933 -8.84,-14.2c-4.218,-11.492 -4.218,-24.118 0,-35.61c2.006,-5.344 5.009,-10.258 8.85,-14.48c3.825,-4.158 8.47,-7.481 13.64,-9.76c5.561,-2.425 11.574,-3.639 17.64,-3.56c4.154,-0.061 8.293,0.502 12.28,1.67c3.332,0.992 6.524,2.403 9.5,4.2c2.547,1.54 4.898,3.383 7,5.49c1.746,1.747 3.326,3.652 4.72,5.69l-8.79,7.49c-1.141,-1.597 -2.369,-3.129 -3.68,-4.59c-1.504,-1.663 -3.223,-3.119 -5.11,-4.33c-2.144,-1.358 -4.453,-2.437 -6.87,-3.21c-2.885,-0.905 -5.897,-1.341 -8.92,-1.29c-8.569,-0.183 -16.776,3.526 -22.3,10.08c-2.679,3.201 -4.716,6.888 -6,10.86c-1.398,4.252 -2.097,8.704 -2.07,13.18c-0.03,4.463 0.693,8.898 2.14,13.12c1.309,3.9 3.345,7.517 6,10.66c2.595,3.025 5.816,5.451 9.44,7.11c3.892,1.766 8.126,2.651 12.4,2.59c3.394,0.073 6.775,-0.431 10,-1.49c2.523,-0.848 4.916,-2.043 7.11,-3.55c1.749,-1.212 3.353,-2.622 4.78,-4.2c1.247,-1.42 2.3,-2.603 3.16,-3.55l8.66,7.24c-1.26,1.929 -2.736,3.707 -4.4,5.3m-57.49,-109.28l-55.4,144.44l114.51,0l55.41,-144.44l-114.52,0Z" style="fill:rgb(112,27,69);fill-rule:nonzero;"/>        <path d="M71.95,125.94l-32.72,0l0,-28.12l43.51,0l4.53,-11.85l-61.27,0.01l0,91.91l13.23,0l0,-40.24l28.22,0l4.5,-11.71Z" style="fill:rgb(112,27,69);fill-rule:nonzero;"/>        <path d="M248.88,141.08l-14.14,-40.37l-14.23,40.37l28.37,0Zm-20.48,-55.08l12.71,0l36,91.9l-14.73,0l-9.51,-25.63l-36.22,0l-9.51,25.63l-13.91,0l35.17,-91.9Z" style="fill:rgb(112,27,69);fill-rule:nonzero;"/>        <path d="M303.08,85.94l13.79,0l0,3.56l-9.76,0l0,5.53l7.3,0l0,3.59l-7.3,0l0,8.68l-4.03,0l0,-21.36Z" style="fill:rgb(112,27,69);fill-rule:nonzero;"/>        <rect x="322.15" y="85.94" width="4.03" height="21.35" style="fill:rgb(112,27,69);"/>        <path d="M332.42,85.94l4.07,0l10.34,15.18l0,-15.18l3.94,0l0,21.36l-3.97,0l-10.44,-15.38l0,15.38l-3.94,0l0,-21.36Z" style="fill:rgb(112,27,69);fill-rule:nonzero;"/>        <path d="M368.21,98.56l-2.82,-8.29l-2.85,8.29l5.67,0Zm-4.77,-12.61l4.16,0l8.1,21.35l-4.48,0l-1.86,-5.41l-7.94,0l-1.86,5.41l-4.23,0l8.11,-21.35Z" style="fill:rgb(112,27,69);fill-rule:nonzero;"/>        <path d="M380.07,85.94l4.06,0l10.35,15.18l0,-15.18l3.93,0l0,21.36l-3.97,0l-10.44,-15.38l0,15.38l-3.93,0l0,-21.36Z" style="fill:rgb(112,27,69);fill-rule:nonzero;"/>        <path d="M422.81,103.39c-0.378,0.555 -0.825,1.059 -1.33,1.5c-0.613,0.545 -1.283,1.021 -2,1.42c-0.8,0.454 -1.649,0.816 -2.53,1.08c-0.945,0.278 -1.925,0.416 -2.91,0.41c-1.504,0.021 -2.997,-0.262 -4.39,-0.83c-1.286,-0.532 -2.45,-1.321 -3.42,-2.32c-0.972,-1.01 -1.733,-2.203 -2.24,-3.51c-1.065,-2.836 -1.065,-5.964 0,-8.8c0.512,-1.333 1.28,-2.552 2.26,-3.59c2.059,-2.165 4.933,-3.373 7.92,-3.33c0.97,-0.007 1.938,0.108 2.88,0.34c0.827,0.205 1.627,0.511 2.38,0.91c0.693,0.357 1.335,0.804 1.91,1.33c0.543,0.512 1.035,1.074 1.47,1.68l-2.81,2.57c-0.638,-0.936 -1.449,-1.74 -2.39,-2.37c-1.023,-0.628 -2.21,-0.938 -3.41,-0.89c-0.976,-0.017 -1.942,0.195 -2.82,0.62c-0.816,0.402 -1.541,0.967 -2.13,1.66c-0.599,0.72 -1.054,1.548 -1.34,2.44c-0.315,0.945 -0.474,1.934 -0.47,2.93c-0.006,0.98 0.153,1.953 0.47,2.88c0.286,0.859 0.738,1.654 1.33,2.34c0.575,0.66 1.279,1.194 2.07,1.57c0.843,0.389 1.762,0.584 2.69,0.57c0.795,0.018 1.589,-0.09 2.35,-0.32c0.593,-0.182 1.156,-0.452 1.67,-0.8c0.422,-0.286 0.808,-0.622 1.15,-1c0.31,-0.35 0.59,-0.65 0.85,-0.91l2.79,2.42Z" style="fill:rgb(112,27,69);fill-rule:nonzero;"/>        <rect x="427.54" y="85.94" width="4.03" height="21.35" style="fill:rgb(112,27,69);"/>        <path d="M448.82,98.56l-2.82,-8.3l-2.85,8.29l5.67,0.01Zm-4.82,-12.62l4.16,0l8.1,21.35l-4.48,0l-1.78,-5.41l-8,0l-1.86,5.41l-4.23,0l8.09,-21.35Z" style="fill:rgb(112,27,69);fill-rule:nonzero;"/>        <path d="M459.8,85.94l4.04,0l0,17.77l10.53,0l0,3.59l-14.57,0l0,-21.36Z" style="fill:rgb(112,27,69);fill-rule:nonzero;"/>        <path d="M321.2,138.89c-0.378,0.555 -0.825,1.059 -1.33,1.5c-0.613,0.545 -1.283,1.021 -2,1.42c-0.8,0.454 -1.649,0.816 -2.53,1.08c-0.945,0.278 -1.925,0.416 -2.91,0.41c-1.504,0.019 -2.997,-0.263 -4.39,-0.83c-1.287,-0.531 -2.451,-1.321 -3.42,-2.32c-0.972,-1.01 -1.733,-2.203 -2.24,-3.51c-1.065,-2.836 -1.065,-5.964 0,-8.8c0.512,-1.333 1.28,-2.552 2.26,-3.59c0.987,-1.033 2.17,-1.859 3.48,-2.43c1.404,-0.607 2.921,-0.91 4.45,-0.89c0.97,-0.007 1.938,0.107 2.88,0.34c0.831,0.204 1.634,0.51 2.39,0.91c0.694,0.366 1.337,0.824 1.91,1.36c0.543,0.512 1.035,1.074 1.47,1.68l-2.85,2.53c-0.638,-0.935 -1.449,-1.74 -2.39,-2.37c-1.023,-0.628 -2.21,-0.938 -3.41,-0.89c-0.976,-0.017 -1.942,0.195 -2.82,0.62c-0.816,0.402 -1.541,0.967 -2.13,1.66c-0.599,0.72 -1.054,1.548 -1.34,2.44c-0.315,0.945 -0.474,1.934 -0.47,2.93c-0.006,0.98 0.153,1.953 0.47,2.88c0.286,0.859 0.738,1.654 1.33,2.34c0.574,0.661 1.279,1.195 2.07,1.57c0.848,0.396 1.774,0.594 2.71,0.58c0.795,0.018 1.589,-0.09 2.35,-0.32c0.593,-0.182 1.156,-0.452 1.67,-0.8c0.421,-0.287 0.807,-0.623 1.15,-1c0.31,-0.35 0.59,-0.65 0.85,-0.91l2.79,2.41Z" style="fill:rgb(112,27,69);fill-rule:nonzero;"/>        <path d="M335.15,139.56c1.917,0.02 3.748,-0.808 5,-2.26c0.608,-0.713 1.076,-1.534 1.38,-2.42c0.639,-1.873 0.639,-3.907 0,-5.78c-0.302,-0.878 -0.771,-1.689 -1.38,-2.39c-0.596,-0.681 -1.329,-1.23 -2.15,-1.61c-1.821,-0.787 -3.889,-0.787 -5.71,0c-0.825,0.383 -1.561,0.935 -2.16,1.62c-0.609,0.701 -1.078,1.512 -1.38,2.39c-0.639,1.873 -0.639,3.907 0,5.78c0.304,0.886 0.772,1.707 1.38,2.42c0.598,0.693 1.334,1.255 2.16,1.65c0.898,0.418 1.879,0.627 2.87,0.61m0,3.81c-1.495,0.012 -2.977,-0.288 -4.35,-0.88c-1.319,-0.571 -2.514,-1.393 -3.52,-2.42c-1.01,-1.036 -1.814,-2.254 -2.37,-3.59c-1.152,-2.809 -1.152,-5.961 0,-8.77c0.551,-1.328 1.348,-2.539 2.35,-3.57c3.207,-3.213 8.068,-4.165 12.25,-2.4c5.6,2.488 8.234,9.078 5.89,14.74c-0.556,1.336 -1.36,2.554 -2.37,3.59c-1.006,1.026 -2.201,1.848 -3.52,2.42c-1.376,0.593 -2.861,0.893 -4.36,0.88" style="fill:rgb(112,27,69);fill-rule:nonzero;"/>        <path d="M350.54,121.44l4.07,0l10.34,15.17l0,-15.17l3.93,0l0,21.35l-3.96,0l-10.44,-15.37l0,15.37l-3.94,0l0,-21.35Z" style="fill:rgb(112,27,69);fill-rule:nonzero;"/>        <path d="M382.47,139.21c2.012,0.136 4.002,-0.493 5.57,-1.76c1.352,-1.359 2.052,-3.238 1.92,-5.15c0.106,-1.935 -0.531,-3.839 -1.78,-5.32c-1.187,-1.333 -3.09,-1.983 -5.71,-1.95l-3.55,0l0,14.18l3.55,0Zm-7.59,-17.77l8,0c1.55,-0.017 3.094,0.198 4.58,0.64c1.322,0.403 2.543,1.085 3.58,2c1.036,0.918 1.838,2.07 2.34,3.36c0.586,1.541 0.868,3.182 0.83,4.83c0.035,1.582 -0.255,3.154 -0.85,4.62c-0.53,1.265 -1.34,2.394 -2.37,3.3c-1.047,0.911 -2.273,1.593 -3.6,2c-1.474,0.453 -3.008,0.675 -4.55,0.66l-7.94,0l-0.02,-21.41Z" style="fill:rgb(112,27,69);fill-rule:nonzero;"/>        <path d="M398.75,121.44l4,0l0,12.77c-0.009,0.737 0.071,1.472 0.24,2.19c0.136,0.607 0.402,1.176 0.78,1.67c0.379,0.473 0.876,0.838 1.44,1.06c1.432,0.492 2.988,0.492 4.42,0c0.564,-0.222 1.06,-0.588 1.44,-1.06c0.381,-0.493 0.651,-1.063 0.79,-1.67c0.168,-0.718 0.248,-1.453 0.24,-2.19l0,-12.77l4,0l0,13.48c0.013,1.135 -0.18,2.264 -0.57,3.33c-0.371,1 -0.951,1.91 -1.7,2.67c-0.781,0.778 -1.714,1.387 -2.74,1.79c-2.388,0.879 -5.012,0.879 -7.4,0c-1.026,-0.403 -1.958,-1.013 -2.74,-1.79c-0.749,-0.76 -1.329,-1.67 -1.7,-2.67c-0.39,-1.066 -0.583,-2.195 -0.57,-3.33l0.07,-13.48Z" style="fill:rgb(112,27,69);fill-rule:nonzero;"/>        <path d="M440.37,138.89c-0.378,0.555 -0.825,1.059 -1.33,1.5c-0.613,0.545 -1.283,1.021 -2,1.42c-0.8,0.454 -1.649,0.816 -2.53,1.08c-0.945,0.278 -1.925,0.416 -2.91,0.41c-1.504,0.019 -2.997,-0.263 -4.39,-0.83c-1.286,-0.532 -2.45,-1.321 -3.42,-2.32c-0.972,-1.01 -1.733,-2.203 -2.24,-3.51c-1.065,-2.836 -1.065,-5.964 0,-8.8c0.512,-1.333 1.28,-2.552 2.26,-3.59c0.987,-1.033 2.17,-1.859 3.48,-2.43c1.404,-0.607 2.921,-0.91 4.45,-0.89c0.97,-0.007 1.938,0.108 2.88,0.34c0.827,0.205 1.627,0.511 2.38,0.91c0.694,0.366 1.337,0.824 1.91,1.36c0.543,0.512 1.035,1.074 1.47,1.68l-2.85,2.53c-0.638,-0.936 -1.449,-1.74 -2.39,-2.37c-1.023,-0.628 -2.21,-0.938 -3.41,-0.89c-0.976,-0.017 -1.942,0.195 -2.82,0.62c-0.816,0.402 -1.541,0.967 -2.13,1.66c-0.599,0.72 -1.054,1.548 -1.34,2.44c-0.315,0.945 -0.474,1.934 -0.47,2.93c-0.006,0.98 0.153,1.953 0.47,2.88c0.286,0.859 0.738,1.654 1.33,2.34c0.575,0.66 1.279,1.195 2.07,1.57c0.848,0.396 1.774,0.594 2.71,0.58c0.795,0.018 1.589,-0.09 2.35,-0.32c0.593,-0.182 1.156,-0.452 1.67,-0.8c0.422,-0.286 0.808,-0.622 1.15,-1c0.31,-0.35 0.59,-0.65 0.85,-0.91l2.8,2.41Z" style="fill:rgb(112,27,69);fill-rule:nonzero;"/>        <path d="M451.26,124.99l-7.24,0l0,-3.55l18.51,0l0,3.55l-7.24,0l0,17.8l-4.03,0l0,-17.8Z" style="fill:rgb(112,27,69);fill-rule:nonzero;"/>        <path d="M313.2,169.06l-2.82,-8.29l-2.85,8.29l5.67,0Zm-4.77,-12.61l4.16,0l8.1,21.35l-4.49,0l-1.86,-5.41l-7.94,0l-1.86,5.41l-4.23,0l8.12,-21.35Z" style="fill:rgb(112,27,69);fill-rule:nonzero;"/>        <path d="M323.5,156.44l4,0l0,12.77c-0.009,0.737 0.071,1.472 0.24,2.19c0.136,0.607 0.402,1.176 0.78,1.67c0.379,0.473 0.876,0.838 1.44,1.06c1.432,0.492 2.988,0.492 4.42,0c0.564,-0.222 1.06,-0.588 1.44,-1.06c0.381,-0.493 0.651,-1.063 0.79,-1.67c0.168,-0.718 0.248,-1.453 0.24,-2.19l0,-12.77l4,0l0,13.48c0.013,1.135 -0.18,2.264 -0.57,3.33c-0.371,1.001 -0.95,1.911 -1.7,2.67c-0.781,0.778 -1.714,1.387 -2.74,1.79c-2.388,0.879 -5.012,0.879 -7.4,0c-1.026,-0.403 -1.958,-1.013 -2.74,-1.79c-0.749,-0.76 -1.329,-1.67 -1.7,-2.67c-0.389,-1.067 -0.582,-2.195 -0.57,-3.33l0.07,-13.48Z" style="fill:rgb(112,27,69);fill-rule:nonzero;"/>        <path d="M352.28,160l-7.24,0l0,-3.56l18.51,0l0,3.56l-7.24,0l0,17.8l-4.03,0l0,-17.8Z" style="fill:rgb(112,27,69);fill-rule:nonzero;"/>        <path d="M367.13,156.44l4.03,0l0,8.58l10.6,0l0,-8.58l4.03,0l0,21.36l-4.03,0l0,-9.19l-10.6,0l0,9.19l-4.03,0l0,-21.36Z" style="fill:rgb(112,27,69);fill-rule:nonzero;"/>        <path d="M401.49,174.56c1.917,0.02 3.748,-0.808 5,-2.26c0.608,-0.713 1.076,-1.534 1.38,-2.42c0.639,-1.873 0.639,-3.907 0,-5.78c-0.302,-0.878 -0.771,-1.689 -1.38,-2.39c-0.604,-0.688 -1.347,-1.24 -2.18,-1.62c-1.821,-0.787 -3.889,-0.787 -5.71,0c-0.825,0.383 -1.561,0.935 -2.16,1.62c-0.609,0.701 -1.078,1.512 -1.38,2.39c-0.639,1.873 -0.639,3.907 0,5.78c0.304,0.886 0.772,1.707 1.38,2.42c0.598,0.693 1.334,1.255 2.16,1.65c0.898,0.418 1.879,0.627 2.87,0.61m0,3.81c-1.495,0.012 -2.977,-0.288 -4.35,-0.88c-1.319,-0.571 -2.514,-1.393 -3.52,-2.42c-1.01,-1.036 -1.814,-2.254 -2.37,-3.59c-1.152,-2.809 -1.152,-5.961 0,-8.77c0.551,-1.328 1.348,-2.539 2.35,-3.57c3.207,-3.213 8.068,-4.165 12.25,-2.4c5.6,2.488 8.234,9.078 5.89,14.74c-0.556,1.336 -1.36,2.554 -2.37,3.59c-1.006,1.026 -2.201,1.848 -3.52,2.42c-1.376,0.593 -2.861,0.893 -4.36,0.88" style="fill:rgb(112,27,69);fill-rule:nonzero;"/>        <path d="M424.25,166c0.883,0.054 1.749,-0.269 2.38,-0.89c0.561,-0.585 0.867,-1.37 0.85,-2.18c0.027,-0.839 -0.3,-1.653 -0.9,-2.24c-0.633,-0.589 -1.477,-0.899 -2.34,-0.86l-3.24,0l0,6.17l3.25,0Zm-7.11,-9.6l7.08,0c1.169,-0.03 2.333,0.178 3.42,0.61c0.858,0.35 1.632,0.879 2.27,1.55c0.553,0.596 0.981,1.296 1.26,2.06c0.256,0.688 0.391,1.416 0.4,2.15c0.025,1.247 -0.278,2.478 -0.88,3.57c-0.633,1.077 -1.574,1.94 -2.7,2.48l4.93,8.93l-4.55,0l-4.32,-8.42l-3,0l0,8.42l-3.87,0l-0.04,-21.35Z" style="fill:rgb(112,27,69);fill-rule:nonzero;"/>        <rect x="437.61" y="156.44" width="4.03" height="21.35" style="fill:rgb(112,27,69);"/>        <path d="M453.33,160l-7.24,0l0,-3.56l18.51,0l0,3.56l-7.24,0l0,17.8l-4.03,0l0,-17.8Z" style="fill:rgb(112,27,69);fill-rule:nonzero;"/>        <path d="M474.51,168.41l-7.4,-11.97l4.42,0l5.12,8.52l5.12,-8.52l4.23,0l-7.4,11.97l0,9.39l-4.09,0l0,-9.39Z" style="fill:rgb(112,27,69);fill-rule:nonzero;"/>    </g></svg>