<?xml version="1.0" encoding="UTF-8" standalone="no"?><!DOCTYPE svg PUBLIC "-//W3C//DTD SVG 1.1//EN" "http://www.w3.org/Graphics/SVG/1.1/DTD/svg11.dtd"><svg width="100%" height="100%" viewBox="0 0 1024 512" version="1.1" xmlns="http://www.w3.org/2000/svg" xmlns:xlink="http://www.w3.org/1999/xlink" xml:space="preserve" style="fill-rule:evenodd;clip-rule:evenodd;stroke-linejoin:round;stroke-miterlimit:2;"><title>Enerfip</title><desc>Enerfip was founded in 2014 by renewable energy professionals with experience in financing.Our dynamic team selects solid projects developed by the most reliable companies in the sector. You invest part of your savings in the projects of your choice for 2 to 6 years with an interest rate of up to 7%.</desc>    <g id="enerfip" transform="matrix(1.03818,0,0,1.03818,2.01495,146.387)">        <path d="M92.21,15.72c0.847,2.443 1.822,4.839 2.92,7.18c2.037,4.28 4.467,8.361 7.26,12.19c5.199,7.056 11.528,13.205 18.73,18.2c7.16,5.052 15.108,8.884 23.52,11.34c4.547,1.32 9.207,2.214 13.92,2.67c2.26,0.21 4.55,0.32 6.82,0.32l0.89,0c2.9,-0.024 5.793,-0.288 8.65,-0.79l1.93,-0.35c1.114,-0.207 1.867,-1.283 1.68,-2.4l-0.33,-1.93c-0.501,-2.849 -1.237,-5.652 -2.2,-8.38c-0.849,-2.437 -1.827,-4.827 -2.93,-7.16c-2.037,-4.276 -4.467,-8.354 -7.26,-12.18c-10.476,-14.186 -25.283,-24.592 -42.18,-29.64c-4.553,-1.324 -9.22,-2.214 -13.94,-2.66c-2.19,-0.2 -4.43,-0.31 -6.66,-0.3l-1.03,0c-2.908,0.037 -5.807,0.311 -8.67,0.82l-1.95,0.35c-1.108,0.207 -1.857,1.278 -1.67,2.39l0.29,1.92c0.507,2.859 1.247,5.671 2.21,8.41Z" style="fill:rgb(255,212,31);fill-rule:nonzero;"/>        <path d="M206.64,82.49c-0.474,-2.491 -1.082,-4.954 -1.82,-7.38c-0.828,-2.749 -1.882,-5.425 -3.15,-8l-0.88,-1.74c-0.506,-1.007 -1.744,-1.429 -2.76,-0.94l-1.75,0.84c-2.569,1.252 -5.031,2.714 -7.36,4.37c-2.084,1.464 -4.087,3.039 -6,4.72c-3.497,3.092 -6.695,6.507 -9.55,10.2c-10.511,13.825 -16.257,30.694 -16.37,48.06c-0.007,4.66 0.425,9.311 1.29,13.89c0.472,2.49 1.076,4.954 1.81,7.38c0.816,2.749 1.859,5.425 3.12,8l0.87,1.76c0.507,1.013 1.752,1.435 2.77,0.94l1.77,-0.85c2.557,-1.254 5.006,-2.719 7.32,-4.38c2.085,-1.465 4.089,-3.044 6,-4.73c3.489,-3.097 6.683,-6.512 9.54,-10.2c10.556,-13.798 16.352,-30.658 16.51,-48.03c-0.016,-4.669 -0.471,-9.326 -1.36,-13.91Z" style="fill:rgb(132,154,207);fill-rule:nonzero;"/>        <path d="M168.9,179.15c-2.065,-1.487 -4.208,-2.862 -6.42,-4.12c-4.063,-2.293 -8.332,-4.202 -12.75,-5.7c-8.101,-2.686 -16.585,-4.037 -25.12,-4l-0.28,0c-8.617,-0.005 -17.176,1.414 -25.33,4.2c-4.412,1.512 -8.671,3.437 -12.72,5.75c-2.198,1.259 -4.328,2.635 -6.38,4.12c-2.332,1.686 -4.522,3.559 -6.55,5.6l-1.35,1.35c-0.793,0.805 -0.793,2.115 -0,2.92l1.38,1.39c2.017,2.015 4.202,3.854 6.53,5.5c2.066,1.479 4.209,2.848 6.42,4.1c4.061,2.291 8.33,4.193 12.75,5.68c16.477,5.467 34.291,5.439 50.75,-0.08c4.416,-1.516 8.679,-3.448 12.73,-5.77c2.201,-1.261 4.331,-2.643 6.38,-4.14c2.324,-1.676 4.505,-3.543 6.52,-5.58l1.36,-1.39c0.788,-0.807 0.788,-2.113 -0,-2.92l-1.37,-1.38c-2.026,-2.022 -4.217,-3.872 -6.55,-5.53Z" style="fill:rgb(168,200,19);fill-rule:nonzero;"/>        <path d="M45.35,123.4c-2.84,-3.696 -6.021,-7.118 -9.5,-10.22c-1.894,-1.684 -3.877,-3.267 -5.94,-4.74c-2.315,-1.682 -4.767,-3.167 -7.33,-4.44l-1.77,-0.86c-1.018,-0.495 -2.263,-0.073 -2.77,0.94l-0.88,1.75c-1.27,2.566 -2.326,5.231 -3.16,7.97c-0.742,2.429 -1.357,4.896 -1.84,7.39c-0.875,4.582 -1.32,9.235 -1.33,13.9c0.071,17.36 5.775,34.236 16.25,48.08c2.844,3.702 6.032,7.127 9.52,10.23c1.896,1.683 3.883,3.262 5.95,4.73c2.33,1.669 4.795,3.141 7.37,4.4l1.75,0.85c1.016,0.489 2.254,0.067 2.76,-0.94l0.88,-1.74c1.276,-2.553 2.333,-5.209 3.16,-7.94c0.756,-2.43 1.377,-4.901 1.86,-7.4c0.887,-4.584 1.336,-9.241 1.34,-13.91c-0.022,-8.63 -1.465,-17.198 -4.27,-25.36c-2.742,-8.174 -6.813,-15.841 -12.05,-22.69Z" style="fill:rgb(243,146,5);fill-rule:nonzero;"/>        <path d="M81.27,46.43c1.038,-2.312 1.949,-4.679 2.73,-7.09c0.894,-2.72 1.563,-5.51 2,-8.34l0.28,-1.94c0.172,-1.122 -0.608,-2.187 -1.73,-2.36l-1.93,-0.31c-2.802,-0.432 -5.635,-0.633 -8.47,-0.6l-0.07,-0c-2.533,0.021 -5.064,0.178 -7.58,0.47c-4.63,0.545 -9.2,1.52 -13.65,2.91c-16.553,5.294 -30.946,15.825 -41,30c-2.656,3.825 -4.949,7.889 -6.85,12.14c-1.034,2.315 -1.939,4.685 -2.71,7.1c-0.897,2.723 -1.566,5.516 -2,8.35l-0.29,1.93c-0.131,1.108 0.648,2.136 1.75,2.31l1.92,0.31c2.819,0.465 5.672,0.696 8.53,0.69c2.543,-0.017 5.083,-0.17 7.61,-0.46c4.638,-0.536 9.216,-1.51 13.67,-2.91c8.22,-2.618 15.953,-6.571 22.89,-11.7c6.969,-5.084 13.051,-11.285 18,-18.35c2.674,-3.826 4.984,-7.894 6.9,-12.15Z" style="fill:rgb(0,181,236);fill-rule:nonzero;"/>        <path d="M582,63c-18.43,0 -36.85,14 -39.76,34.18c-0.014,0.096 -0.021,0.193 -0.021,0.29c-0,1.097 0.903,2 2,2c0.007,0 0.014,0 0.021,0l76,0c0.007,0 0.014,0 0.021,0c1.097,0 2,-0.903 2,-2c0,-0.097 -0.007,-0.194 -0.021,-0.29c-2.88,-20.01 -20.93,-34.18 -40.24,-34.18Z" style="fill:none;fill-rule:nonzero;"/>        <path d="M301.67,63.18c-18.44,0 -36.86,14 -39.77,34.18c-0.014,0.096 -0.021,0.193 -0.021,0.29c-0,1.097 0.903,2 2,2c0.007,0 0.014,0 0.021,0l76.05,0c0.008,0 0.015,0 0.023,0c1.097,0 2,-0.903 2,-2c-0,-0.1 -0.008,-0.201 -0.023,-0.3c-2.95,-19.99 -20.95,-34.18 -40.28,-34.17Z" style="fill:none;fill-rule:nonzero;"/>        <path d="M814.18,59.28l-0.09,0c-1.23,0.26 -2.29,0.43 -3.12,0.55c-1.22,0.16 -2.19,0.24 -3,0.29l-0.26,0c-1.044,0.073 -1.863,0.954 -1.86,2l0.15,105.38c0,1.097 0.903,2 2,2l19.4,0c1.097,0 2,-0.903 2,-2l-0.07,-110.57c-0.003,-1.095 -0.905,-1.994 -2,-1.994c-0.305,-0 -0.606,0.07 -0.88,0.204c-2.113,0.996 -4.283,1.864 -6.5,2.6c-1.894,0.617 -3.82,1.131 -5.77,1.54Z" style="fill:rgb(1,37,83);fill-rule:nonzero;"/>        <path d="M581.32,41.62c-33.07,0 -62.75,27.49 -62.73,66.87c0,33.3 28.39,64.33 63.5,64.31c25.79,0 48.44,-15.48 58.7,-39.55c0.107,-0.25 0.163,-0.518 0.163,-0.79c-0,-1.097 -0.903,-2 -2,-2c-0.005,-0 -0.009,-0 -0.013,0l-19.27,0c-0.713,0.001 -1.374,0.383 -1.73,1c-7.245,12.418 -20.624,20.036 -35,19.93c-18.31,0 -34.15,-12.14 -40.22,-31.34c-0.063,-0.197 -0.095,-0.403 -0.095,-0.61c-0,-1.097 0.903,-2 2,-2c0.001,-0 0.003,-0 0.005,0l98.87,-0.06c1.019,0.006 1.888,-0.767 2,-1.78c0.355,-3.297 0.495,-6.614 0.42,-9.93c0,-35.74 -27.92,-64.07 -64.6,-64.05Zm39,57.8l-76,-0c-0.007,0 -0.014,0 -0.021,0c-1.097,0 -2,-0.903 -2,-2c-0,-0.097 0.007,-0.194 0.021,-0.29c2.84,-20.13 21.26,-34.13 39.68,-34.13c19.3,-0 37.35,14.17 40.26,34.13c0.014,0.096 0.021,0.193 0.021,0.29c0,1.094 -0.897,1.995 -1.991,2l0.03,-0Z" style="fill:rgb(1,37,83);fill-rule:nonzero;"/>        <path d="M301,41.8c-33.08,-0 -62.76,27.5 -62.74,66.87c0,33.3 28.4,64.33 63.5,64.31c25.79,0 48.44,-15.48 58.7,-39.55c0.107,-0.25 0.163,-0.518 0.163,-0.79c-0,-1.097 -0.903,-2 -2,-2c-0.005,-0 -0.009,-0 -0.013,0l-19.27,0c-0.713,0.001 -1.374,0.383 -1.73,1c-7.241,12.423 -20.621,20.046 -35,19.94c-18.31,0 -34.15,-12.15 -40.22,-31.35c-0.063,-0.197 -0.095,-0.403 -0.095,-0.61c-0,-1.097 0.903,-2 2,-2c0.001,-0 0.003,-0 0.005,0l98.88,-0.06c1.019,0.006 1.888,-0.767 2,-1.78c0.353,-3.294 0.496,-6.608 0.43,-9.92c-0.04,-35.75 -27.96,-64.08 -64.61,-64.06Zm39,57.81l-76.05,-0c-0.007,0 -0.014,0 -0.021,0c-1.097,0 -2,-0.903 -2,-2c-0,-0.097 0.007,-0.194 0.021,-0.29c2.91,-20.15 21.33,-34.17 39.77,-34.18c19.29,-0 37.34,14.18 40.26,34.13c0.02,0.113 0.029,0.227 0.029,0.341c0,1.097 -0.903,2 -2,2c-0.023,0 -0.046,-0 -0.069,-0.001l0.06,0Z" style="fill:rgb(1,37,83);fill-rule:nonzero;"/>        <path d="M917.82,41.4c-10.442,-0.171 -20.711,2.699 -29.55,8.26c-4.395,2.839 -8.336,6.325 -11.69,10.34c-0.38,0.451 -0.94,0.712 -1.53,0.712c-1.097,-0 -2,-0.903 -2,-2c-0,-0.001 -0,-0.001 0,-0.002l0,-11.91c0,-1.097 -0.903,-2 -2,-2l-17.38,0c-1.097,0 -2,0.903 -2,2l0.1,162.28c-0,1.097 0.903,2 2,2l19.4,0c1.097,0 2,-0.903 2,-2l-0,-52.09c-0,-0.001 -0,-0.003 -0,-0.004c-0,-1.097 0.903,-2 2,-2c0.595,0 1.16,0.266 1.54,0.724c1.202,1.478 2.502,2.875 3.89,4.18c13.48,12.65 31.2,12.68 36.91,12.69c9.729,0.006 19.33,-2.225 28.06,-6.52c21,-10.44 34.91,-32.33 34.9,-57.43c-0.06,-38.47 -27.53,-67.25 -64.65,-67.23Zm-0.82,109.8c-24.3,0 -42.31,-20 -42.33,-44.29c0,-23.18 18,-44.12 41.37,-44.13c25,0 43,21.79 43,44.52c0.01,23.85 -17.97,43.89 -42.04,43.9Z" style="fill:rgb(1,37,83);fill-rule:nonzero;"/>        <path d="M445.2,41.71c-5.11,0 -15.72,0.21 -26.2,7.12c-2.635,1.74 -5.067,3.769 -7.25,6.05c-0.377,0.391 -0.897,0.612 -1.44,0.612c-1.087,0 -1.985,-0.885 -2,-1.972l0,-6.41c0,-1.097 -0.903,-2 -2,-2l-17.83,0c-1.097,0 -2,0.903 -2,2l0.08,120.66c0,1.097 0.903,2 2,2l19.44,0c1.097,0 2,-0.903 2,-2l0,-66.18c0,-23.4 12.36,-38.48 32.83,-38.49c20.7,0 31.06,12.35 31.08,38.68l0,66c0,1.097 0.903,2 2,2l19.4,0c1.097,0 2,-0.903 2,-2l-0.1,-72.78c-0.02,-34.42 -22.08,-53.31 -52.01,-53.29Z" style="fill:rgb(1,37,83);fill-rule:nonzero;"/>        <path d="M718.88,41.68c-5.56,0.46 -11.64,1 -18.43,4.73c-2.982,1.514 -5.701,3.499 -8.05,5.88l0,0.05c-0.38,0.444 -0.936,0.701 -1.52,0.701c-1.098,-0 -2,-0.903 -2,-2c-0,-0.014 -0,-0.027 0,-0.041l-0,-4.07c-0,-1.097 -0.903,-2 -2,-2l-17.83,0c-1.097,0 -2,0.903 -2,2l0.08,120.65c-0,1.097 0.903,2 2,2l19.4,0c1.097,0 2,-0.903 2,-2l-0,-68c-0,-20.28 9.7,-32.54 28.74,-33.9c1.032,-0.088 1.834,-0.964 1.83,-2l-0,-20c0,-0.004 0,-0.008 0,-0.012c0,-1.097 -0.903,-2 -2,-2c-0.073,-0 -0.147,0.004 -0.22,0.012Z" style="fill:rgb(1,37,83);fill-rule:nonzero;"/>        <path d="M788.55,3l-3.18,0c-23.17,0 -40,12.4 -40,36.25l-0,3.63c-0,1.097 -0.903,2 -2,2l-7,0c-1.097,0 -2,0.903 -2,2l-0,17.37c-0,1.097 0.903,2 2,2l7,0c1.097,0 2,0.903 2,2l0.07,99.28c-0,1.097 0.903,2 2,2l19.4,0c1.097,0 2,-0.903 2,-2l-0.07,-99.28c-0,-1.097 0.903,-2 2,-2l17.83,0c1.097,0 2,-0.903 2,-2l-0,-17.39c-0,-1.097 -0.903,-2 -2,-2l-17.85,0c-1.097,0 -2,-0.903 -2,-2l-0,-3.86c-0,-8.83 6,-14.16 19.89,-14.61c1.067,-0.043 1.921,-0.932 1.92,-2l0,-17.39c0,-1.097 -0.903,-2 -2,-2c-0.003,-0 -0.007,-0 -0.01,0Z" style="fill:rgb(1,37,83);fill-rule:nonzero;"/>        <path d="M847,2.32l-0.06,-1.16c-0.014,-0.159 -0.054,-0.315 -0.12,-0.46c-0.066,-0.145 -0.07,-0.08 -0.1,-0.13c-0.048,-0.089 -0.108,-0.17 -0.18,-0.24c-0.046,-0.039 -0.096,-0.073 -0.15,-0.1c-0.074,-0.056 -0.155,-0.103 -0.24,-0.14c-0.066,-0.01 -0.134,-0.01 -0.2,0c-0.08,-0.01 -0.16,-0.01 -0.24,0l-1.22,0c-0.5,0 -1,0.06 -1.43,0.11c-0.92,0.09 -1.77,0.22 -2.51,0.36l-1,0.2c-1,0.21 -1.94,0.47 -2.9,0.75l-1.44,0.43c-1.32,0.44 -2.61,0.94 -3.88,1.5c-0.63,0.28 -1.25,0.57 -1.87,0.87c-0.62,0.3 -1.22,0.63 -1.82,1c-1.107,0.62 -2.187,1.287 -3.24,2c-0.82,0.55 -1.61,1.14 -2.39,1.74c-0.78,0.6 -1.43,1.12 -2.12,1.72c-1,0.83 -1.89,1.71 -2.8,2.64c-0.46,0.47 -0.91,0.94 -1.35,1.43c-0.44,0.49 -0.86,1 -1.28,1.47c-0.83,1 -1.61,2 -2.35,3.06c-1.834,2.587 -3.392,5.359 -4.65,8.27c-0.55,1.26 -1,2.55 -1.46,3.87c-0.46,1.32 -0.78,2.65 -1.08,4c-0.08,0.36 -0.14,0.74 -0.21,1.11c-0.21,1.1 -0.4,2.22 -0.52,3.34c0,0.33 -0.06,0.69 -0.09,1.07c-0.112,1.33 -0.133,2.667 -0.06,4l0.07,1.15c0.013,0.162 0.053,0.321 0.12,0.47c0,0.05 0.07,0.08 0.1,0.13c0.051,0.086 0.111,0.167 0.18,0.24l0.16,0.1c0.072,0.055 0.149,0.102 0.23,0.14l0.2,0c0.08,0.005 0.16,0.005 0.24,0l1.21,0l1.43,-0.1c0.91,-0.09 1.75,-0.22 2.51,-0.36l1.08,-0.21c0.75,-0.16 1.48,-0.33 2.21,-0.53c0.73,-0.2 1.45,-0.41 2.16,-0.65c0.51,-0.17 1,-0.35 1.52,-0.54c0.8,-0.3 1.59,-0.61 2.36,-1c0.77,-0.39 1.26,-0.57 1.88,-0.87c0.62,-0.3 1.22,-0.63 1.82,-1c0.6,-0.37 1.1,-0.63 1.63,-1c0.53,-0.37 1.07,-0.67 1.6,-1c1,-0.71 2.06,-1.46 3.06,-2.26c1,-0.8 1.95,-1.63 2.89,-2.52c0.46,-0.44 0.92,-0.89 1.37,-1.35c0.45,-0.46 0.9,-0.94 1.34,-1.42c1.258,-1.417 2.437,-2.902 3.53,-4.45c0.73,-1 1.42,-2.1 2,-3.18c0.96,-1.636 1.818,-3.329 2.57,-5.07c0.799,-1.902 1.467,-3.857 2,-5.85c0.18,-0.67 0.35,-1.35 0.5,-2c0.15,-0.65 0.3,-1.46 0.42,-2.2c0.12,-0.74 0.23,-1.49 0.31,-2.24c0,-0.26 0.06,-0.54 0.08,-0.82c0.07,-0.85 0.13,-1.8 0.13,-2.82c0.05,-0.53 0.05,-1.01 0.05,-1.5Z" style="fill:rgb(0,181,236);fill-rule:nonzero;"/>    </g></svg>