<?xml version="1.0" encoding="UTF-8" standalone="no"?><!DOCTYPE svg PUBLIC "-//W3C//DTD SVG 1.1//EN" "http://www.w3.org/Graphics/SVG/1.1/DTD/svg11.dtd"><svg width="100%" height="100%" viewBox="0 0 1024 512" version="1.1" xmlns="http://www.w3.org/2000/svg" xmlns:xlink="http://www.w3.org/1999/xlink" xml:space="preserve" style="fill-rule:evenodd;clip-rule:evenodd;stroke-linejoin:round;stroke-miterlimit:2;"><title>Klear</title><desc>KLEAR is a FinTech company building a unique combination of Peer-to-Peer lending platform and a whole range of financial education tools.We are based in Bulgaria. We launched the Peer-to-Peer platform in November 2016, lending to Bulgarian citizens and accepting investments from any individual from the EU.</desc>    <g transform="matrix(0.602018,0,0,0.602018,74.3015,441.336)">        <g>            <g transform="matrix(18.2794,0,0,18.2794,-1082.9,-14958.1)">                <rect x="95.542" y="790.795" width="3.582" height="21.045" style="fill:rgb(191,192,192);"/>            </g>            <g transform="matrix(18.2794,0,0,18.2794,813.191,-229.999)">                <path d="M0,-4.133c0.353,-1.112 1.449,-3.177 4.714,-3.177c2.323,0 4.004,1.178 4.578,3.177l-9.292,0Zm4.714,-6.411c-4.104,0 -8.522,2.648 -8.522,8.463c0,2.609 0.92,4.808 2.659,6.36c1.54,1.375 3.601,2.132 5.805,2.132c3.71,0 6.842,-2.113 7.978,-5.383l0.17,-0.491l-3.673,0l-0.103,0.198c-0.805,1.534 -2.388,2.413 -4.343,2.413c-1.921,0 -4.664,-1.489 -4.895,-4.192l13.2,0l0.062,-0.293c0.101,-0.473 0.124,-1.001 0.066,-1.464c-0.345,-5.32 -4.598,-7.743 -8.404,-7.743" style="fill:rgb(191,192,192);fill-rule:nonzero;"/>            </g>            <g transform="matrix(18.2794,0,0,18.2794,1316.79,-268.039)">                <path d="M0,-0.029c0,3.357 -2.577,5.172 -5.123,5.229c-0.052,0.001 -0.105,0.002 -0.157,0.002c-3.4,0 -5.178,-2.661 -5.178,-5.289c0,-3.041 2.057,-5.119 5.117,-5.171l0.057,0c2.562,0 5.284,1.833 5.284,5.229m0.015,-6.722c-1.536,-1.418 -3.673,-1.741 -5.303,-1.741c-5.746,0 -8.752,4.229 -8.752,8.405c0,4.118 2.757,8.55 8.811,8.55l0.005,0c1.732,-0.026 3.869,-0.514 5.224,-1.756l0,1.495l3.582,0l0,-16.433l-3.587,0l0.02,1.48Z" style="fill:rgb(191,192,192);fill-rule:nonzero;"/>            </g>            <g transform="matrix(18.2794,0,0,18.2794,657.478,-502.803)">                <path d="M0,21.045l-0.568,-0.757l-7.176,-8.525l7.258,-7.151l-4.517,0l-6.42,6.291l0,-10.903l-3.582,0l0,21.045l3.582,0l0,-8.543l6.992,8.543l4.431,0Z" style="fill:rgb(191,192,192);fill-rule:nonzero;"/>            </g>            <g transform="matrix(18.2794,0,0,18.2794,1570.62,-119.263)">                <path d="M0,-16.564c-2.147,-0.063 -4.215,0.261 -5.46,1.5l0,-1.276l-3.553,0l0,16.403l3.553,0l0,-8.869c0,-2.597 1.963,-4.632 4.47,-4.632l0.99,-0.006l0,-3.12Z" style="fill:rgb(191,192,192);fill-rule:nonzero;"/>            </g>        </g>        <g transform="matrix(1,0,0,1,-436.66,-7.5529)">            <g transform="matrix(1,0,0,1,-230.485,-949.21)">                <path d="M892.9,739.675l-243.771,-267.378c-21.092,-23.093 -56.964,-24.717 -80.057,-3.626c-23.093,21.092 -24.718,56.964 -3.626,80.057l243.771,267.377c21.092,23.093 56.964,24.718 80.057,3.626c23.093,-21.091 24.717,-56.963 3.626,-80.056Z" style="fill:url(#_Linear1);"/>            </g>            <g transform="matrix(1,0,0,1,-224.033,-948.023)">                <path d="M657.872,776.178l-0.36,-266.919c-0.043,-31.275 -25.468,-56.632 -56.744,-56.59c-31.275,0.043 -56.632,25.468 -56.59,56.744l0.361,266.918c0.042,31.276 25.468,56.633 56.743,56.591c31.275,-0.043 56.632,-25.468 56.59,-56.744Z" style="fill:url(#_Linear2);"/>            </g>            <g transform="matrix(1.02337,-0.0232208,0.023466,1.03418,206.496,-966.512)">                <path d="M188.067,810.36l251.353,-251.354c21.491,-21.49 21.307,-56.203 -0.411,-77.469c-21.717,-21.266 -56.796,-21.084 -78.287,0.407l-251.353,251.353c-21.49,21.491 -21.306,56.203 0.411,77.469c21.718,21.266 56.797,21.084 78.287,-0.406Z" style="fill:url(#_Linear3);"/>            </g>        </g>    </g>    <defs>        <linearGradient id="_Linear1" x1="0" y1="0" x2="1" y2="0" gradientUnits="userSpaceOnUse" gradientTransform="matrix(280.946,280.946,-280.946,280.946,582.063,506.983)"><stop offset="0" style="stop-color:rgb(240,108,85);stop-opacity:1"/><stop offset="1" style="stop-color:rgb(234,30,93);stop-opacity:1"/></linearGradient>        <linearGradient id="_Linear2" x1="0" y1="0" x2="1" y2="-0.0027008" gradientUnits="userSpaceOnUse" gradientTransform="matrix(-251.936,251.257,-251.936,-251.257,386.33,512.227)"><stop offset="0" style="stop-color:rgb(241,106,84);stop-opacity:1"/><stop offset="1" style="stop-color:rgb(243,142,62);stop-opacity:1"/></linearGradient>        <linearGradient id="_Linear3" x1="0" y1="0" x2="1" y2="0" gradientUnits="userSpaceOnUse" gradientTransform="matrix(256.684,-242.731,245.294,254.002,137.59,780.522)"><stop offset="0" style="stop-color:rgb(249,137,63);stop-opacity:1"/><stop offset="1" style="stop-color:rgb(253,184,19);stop-opacity:1"/></linearGradient>    </defs></svg>