<?xml version="1.0" encoding="UTF-8" standalone="no"?><!DOCTYPE svg PUBLIC "-//W3C//DTD SVG 1.1//EN" "http://www.w3.org/Graphics/SVG/1.1/DTD/svg11.dtd"><svg width="100%" height="100%" viewBox="0 0 1024 512" version="1.1" xmlns="http://www.w3.org/2000/svg" xmlns:xlink="http://www.w3.org/1999/xlink" xml:space="preserve" style="fill-rule:evenodd;clip-rule:evenodd;stroke-linejoin:round;stroke-miterlimit:2;"><title>Prexem</title><desc>Prexem is the loan platform between individuals and French companies. Individuals lend directly to companies rigorously selected by Prexem and in exchange earn up to 10% interest every month.</desc>    <g transform="matrix(1.27756,0,0,1.27731,-12.0531,118.689)">        <g>            <g>                <g>                    <path d="M577.6,107.5l-51.6,-40.2l0,29.3l14,10.9l-14,10.9l0,29.3l32.8,-25.6l18.8,-14.6Z" style="fill:rgb(64,216,170);fill-rule:nonzero;"/>                    <path d="M591.5,118.4l-14,-10.9l14,-10.9l0,-29.3l-51.6,40.2l18.8,14.6l32.8,25.6l0,-29.3Z" style="fill:rgb(12,166,239);fill-rule:nonzero;"/>                    <path d="M283.5,68.9c-3.2,-0.8 -9.3,-1.2 -18.3,-1.2l-16.2,0l0,79.6l8.9,0l0,-36.6l5.1,0c9.8,0 16.5,-0.4 20.1,-1.3c5,-1.2 8.9,-3.6 11.8,-7c2.8,-3.5 4.3,-7.9 4.3,-13.3c0,-5.3 -1.5,-9.8 -4.4,-13.3c-3,-3.4 -6.8,-5.8 -11.3,-6.9Zm-12.8,33.3l-12.8,-0.2l0,-25.6l13.4,0c5.2,0 9,0.5 11.3,1.4c2.2,0.9 4,2.4 5.4,4.5c1.4,2.1 2.1,4.4 2.1,7c0,2.6 -0.7,5 -2.1,7.1c-1.4,2.1 -3.3,3.6 -5.6,4.6c-2.5,0.7 -6.4,1.2 -11.7,1.2Z" style="fill:rgb(140,140,140);fill-rule:nonzero;"/>                    <path d="M381.2,108.2c3.8,-1.7 6.8,-4.2 8.9,-7.6c2.1,-3.3 3.1,-7.2 3.1,-11.6c0,-5.2 -1.5,-9.7 -4.5,-13.3c-3,-3.6 -6.9,-6 -11.7,-7c-3.1,-0.7 -9.1,-1.1 -17.9,-1.1l-16.1,0l0,79.6l8.9,0l0,-36.5l3.7,0l28.3,36.5l11,0l-28.3,-36.5c6,0 11,-0.9 14.6,-2.5Zm-4.9,-7.4c-2.4,1 -6.3,1.5 -11.5,1.5l-13,-0.1l0,-25.8l13.4,0c5.3,0 9.1,0.5 11.4,1.4c2.2,0.9 4,2.4 5.4,4.4c1.4,2.1 2.1,4.4 2.1,6.9c0,2.6 -0.7,5 -2,7.1c-1.5,2.1 -3.4,3.6 -5.8,4.6Z" style="fill:rgb(140,140,140);fill-rule:nonzero;"/>                    <path d="M483.7,76.4l0,-8.7l-46,0l0,79.6l45.7,0l0,-8.7l-36.9,0l0,-29.9l36.9,0l0,-8.7l-36.9,0l0,-23.6l37.2,0Z" style="fill:rgb(140,140,140);fill-rule:nonzero;"/>                    <path d="M635.9,147.3l45.7,0l0,-8.7l-36.9,0l0,-29.9l36.9,0l0,-8.7l-36.9,0l0,-23.6l37.2,0l0,-8.7l-46,0l0,79.6Z" style="fill:rgb(140,140,140);fill-rule:nonzero;"/>                    <path d="M797.9,67.7l-2,0l-31.3,63.9l-31.7,-63.9l-2,0l-11.4,79.6l8.6,0l7.6,-55.5l27.4,55.2l0.1,0.3l2.6,0l27.2,-55l7.7,55l8.7,0l-11.5,-79.6Z" style="fill:rgb(140,140,140);fill-rule:nonzero;"/>                </g>            </g>            <g>                <g>                    <path d="M181.5,107.5c0,41.8 -33.9,75.7 -75.7,75.7c-41.1,0 -61.9,-31 -61.9,-31c18.8,28.1 50,45.2 60.1,50.1l1.8,0c52.4,0 94.8,-42.4 94.8,-94.8c0,-51.9 -41.8,-94.1 -93.5,-94.8c-0.1,0 74.4,33.9 74.4,94.8" style="fill:rgb(12,166,239);fill-rule:nonzero;"/>                    <path d="M30.1,107.5c0,-41.8 33.9,-75.7 75.7,-75.7c41.2,-0.9 63.2,32.9 63.2,32.9c-13.4,-27.1 -53,-52 -61.5,-52l-1.8,0c-52.3,0 -94.7,42.4 -94.7,94.8c0,51.9 41.8,94.1 93.5,94.8c0,0 -74.4,-33.9 -74.4,-94.8" style="fill:rgb(64,216,170);fill-rule:nonzero;"/>                    <path d="M140.4,107.5l-25.8,-20.1l-14.7,11.5l40.5,31.6l0,-23Z" style="fill:rgb(12,166,239);fill-rule:nonzero;"/>                    <path d="M99.9,98.9l40.5,-31.5l0,23l-25.8,20.1l-14.7,-11.6Z" style="fill:rgb(12,166,239);fill-rule:nonzero;"/>                    <path d="M70.1,106.4l25.8,20l14.8,-11.5l-40.6,-31.6l0,23.1Z" style="fill:rgb(64,216,170);fill-rule:nonzero;"/>                    <path d="M110.7,114.9l-40.6,31.6l0,-23l25.8,-20.1l14.8,11.5Z" style="fill:rgb(64,216,170);fill-rule:nonzero;"/>                </g>            </g>        </g>    </g></svg>