<?xml version="1.0" encoding="UTF-8" standalone="no"?><!DOCTYPE svg PUBLIC "-//W3C//DTD SVG 1.1//EN" "http://www.w3.org/Graphics/SVG/1.1/DTD/svg11.dtd"><svg width="100%" height="100%" viewBox="0 0 1024 512" version="1.1" xmlns="http://www.w3.org/2000/svg" xmlns:xlink="http://www.w3.org/1999/xlink" xml:space="preserve" style="fill-rule:evenodd;clip-rule:evenodd;stroke-linejoin:round;stroke-miterlimit:2;"><title>Aztec Money</title><desc>Aztec Money is an open access global marketplace offering export trade finance that YOU control.</desc>    <g transform="matrix(1.15228,0,0,1.15263,262.449,47.252)">        <g transform="matrix(4.16667,0,0,4.16667,108.858,122.326)">            <path d="M0,20.709l3.388,11.266l10.745,0l-13.678,-43.894l-13.024,0l-13.351,43.894l10.225,0l3.126,-11.266l12.569,0Zm-11.137,-7.424l2.606,-9.313c0.238,-0.858 0.466,-1.769 0.694,-2.746c0.228,-0.977 0.456,-1.953 0.673,-2.931c0.217,-0.987 0.434,-1.911 0.652,-2.79l0.129,0c0.218,0.879 0.446,1.803 0.696,2.768c0.238,0.977 0.488,1.954 0.749,2.92c0.249,0.977 0.51,1.9 0.77,2.779l2.735,9.313l-9.704,0Zm28.201,18.69l27.677,0l0,-7.88l-15.304,0l0,-0.129c0.901,-0.879 1.781,-1.814 2.627,-2.801c0.847,-0.988 1.715,-1.986 2.584,-2.996l9.572,-12.048l0,-5.992l-26.05,0l0,7.881l13.938,0l0,0.131c-0.868,0.922 -1.695,1.834 -2.487,2.724c-0.792,0.889 -1.627,1.845 -2.528,2.876l-10.029,12.569l0,5.665Zm34.451,-37.773l0,5.927l-4.234,0l0,7.294l4.234,0l0,13.026c0,2.246 0.229,4.144 0.684,5.698c0.456,1.552 1.138,2.801 2.052,3.746c0.824,0.822 1.877,1.485 3.159,1.974c1.28,0.499 2.724,0.749 4.329,0.761c1.392,-0.012 2.638,-0.089 3.756,-0.251c1.118,-0.163 1.986,-0.358 2.627,-0.596l-0.065,-7.491c-0.294,0.065 -0.586,0.12 -0.859,0.153c-0.279,0.044 -0.585,0.065 -0.91,0.087c-0.325,0.01 -0.717,0.022 -1.161,0.022c-0.967,0 -1.749,-0.197 -2.314,-0.597c-0.573,-0.401 -0.985,-1.021 -1.235,-1.846c-0.239,-0.823 -0.371,-1.877 -0.359,-3.159l0,-11.527l7.1,0l0,-7.294l-7.1,0l0,-8.596l-9.704,2.669Zm50.342,25.009c0.076,-0.369 0.141,-0.902 0.219,-1.585c0.064,-0.694 0.108,-1.465 0.108,-2.322c0,-1.585 -0.165,-3.148 -0.488,-4.678c-0.326,-1.531 -0.847,-2.974 -1.541,-4.321c-0.706,-1.346 -1.606,-2.54 -2.727,-3.571c-1.117,-1.031 -2.452,-1.834 -4.014,-2.42c-1.564,-0.596 -3.377,-0.89 -5.429,-0.902c-2.215,0.012 -4.188,0.349 -5.926,0.99c-1.735,0.65 -3.245,1.54 -4.515,2.669c-1.279,1.129 -2.335,2.42 -3.17,3.864c-0.835,1.455 -1.453,2.984 -1.867,4.603c-0.401,1.616 -0.607,3.244 -0.607,4.873c0.009,3.332 0.683,6.219 2.009,8.629c1.324,2.421 3.244,4.288 5.773,5.599c2.53,1.303 5.6,1.965 9.215,1.989c2.161,0 4.212,-0.165 6.155,-0.5c1.944,-0.327 3.735,-0.836 5.373,-1.521l-1.303,-6.707c-1.324,0.455 -2.703,0.804 -4.123,1.031c-1.435,0.23 -2.985,0.336 -4.668,0.336c-1.161,0 -2.27,-0.118 -3.323,-0.368c-1.04,-0.251 -1.985,-0.618 -2.81,-1.118c-0.825,-0.5 -1.487,-1.128 -1.986,-1.889c-0.512,-0.759 -0.792,-1.66 -0.868,-2.681l20.513,0Zm-20.581,-6.773c0.068,-0.662 0.218,-1.368 0.48,-2.106c0.261,-0.738 0.629,-1.443 1.117,-2.094c0.488,-0.663 1.107,-1.194 1.847,-1.607c0.747,-0.412 1.638,-0.63 2.679,-0.64c1.13,0.01 2.063,0.238 2.801,0.661c0.726,0.435 1.303,0.989 1.714,1.661c0.403,0.662 0.697,1.368 0.858,2.096c0.163,0.738 0.239,1.411 0.228,2.029l-11.724,0Zm49.562,11.397c-0.75,0.325 -1.585,0.587 -2.517,0.77c-0.935,0.174 -1.977,0.273 -3.15,0.273c-1.214,0 -2.344,-0.196 -3.395,-0.576c-1.055,-0.391 -1.976,-0.955 -2.781,-1.715c-0.792,-0.75 -1.409,-1.682 -1.865,-2.79c-0.445,-1.117 -0.673,-2.387 -0.685,-3.842c-0.009,-1.747 0.326,-3.289 1.022,-4.635c0.695,-1.335 1.681,-2.378 2.972,-3.136c1.282,-0.75 2.79,-1.14 4.538,-1.151c1.293,0.011 2.399,0.108 3.3,0.293c0.911,0.184 1.65,0.412 2.235,0.684l1.564,-7.36c-0.706,-0.26 -1.467,-0.488 -2.3,-0.673c-0.846,-0.184 -1.706,-0.325 -2.605,-0.412c-0.891,-0.097 -1.771,-0.153 -2.649,-0.153c-2.963,0.012 -5.58,0.456 -7.848,1.336c-2.27,0.879 -4.179,2.085 -5.711,3.636c-1.541,1.552 -2.712,3.344 -3.494,5.385c-0.782,2.04 -1.182,4.232 -1.182,6.576c0.021,3.332 0.714,6.22 2.082,8.651c1.379,2.433 3.323,4.3 5.841,5.623c2.517,1.323 5.49,1.985 8.944,2.009c1.27,0 2.463,-0.065 3.582,-0.207c1.128,-0.131 2.138,-0.304 3.04,-0.532c0.899,-0.217 1.639,-0.479 2.235,-0.761l-1.173,-7.293Z" style="fill:rgb(3,4,4);fill-rule:nonzero;"/>        </g>        <g transform="matrix(4.16667,0,0,4.16667,-21.3129,169.313)">            <path d="M0,13.953l0,-0.685l0.274,0l0,0.685l0.684,6.294c0.618,-0.454 5.329,-13.128 5.947,-14.992c0.625,-1.882 2.485,-6.042 2.547,-7.989c0.092,-2.885 1.092,-6.71 1.092,-9.443l0.105,0.005l0.659,4.948l5.809,-16.171c-2.327,0.62 -10.971,11.166 -12.817,13.598c-1.869,2.461 -9.879,13.589 -10.451,16.132l6.151,-1.548c-1.857,1.612 -6.943,2.352 -7.824,4.632c-0.993,2.576 -2.856,6.177 -2.856,9.732l0,3.146c0,5.407 1.916,9.306 1.916,15.051c1.555,-1.041 5.282,-7.544 6.346,-9.668c1.411,-2.819 0.963,-3.122 1.541,-6.531c0.309,-1.821 0.877,-5.477 0.877,-7.196" style="fill:rgb(245,165,41);fill-rule:nonzero;"/>        </g>        <g transform="matrix(4.16667,0,0,4.16667,-84.2108,138.988)">            <path d="M0,9.368l0.299,-0.614l0.246,0.119l-0.299,0.615l-2.128,5.961c0.753,-0.137 10.521,-9.487 11.889,-10.894c1.383,-1.422 4.872,-4.354 5.777,-6.079c1.341,-2.557 3.91,-5.562 5.101,-8.021l0.092,0.048l-1.564,4.742l12.28,-12.019c-2.364,-0.455 -14.743,5.263 -17.465,6.646c-2.755,1.4 -14.816,7.92 -16.44,9.959l6.21,1.289c-2.373,0.642 -7.274,-0.912 -9.061,0.758c-2.018,1.882 -5.264,4.31 -6.816,7.51l-1.372,2.831c-2.358,4.865 -2.335,9.211 -4.838,14.378c1.851,-0.257 8.042,-4.485 9.925,-5.931c2.499,-1.922 2.229,-2.389 4.236,-5.205c1.071,-1.502 3.179,-4.546 3.928,-6.093" style="fill:rgb(223,35,44);fill-rule:nonzero;"/>        </g>        <g transform="matrix(4.16667,0,0,4.16667,-118.969,97.7659)">            <path d="M0,3.556l0.521,-0.444l0.177,0.21l-0.521,0.443l-4.345,4.603c0.745,0.177 13.446,-4.46 15.266,-5.198c1.838,-0.746 6.21,-2.028 7.733,-3.246c2.254,-1.802 5.813,-3.522 7.894,-5.295l0.064,0.082l-3.337,3.713l16.073,-6.071c-1.98,-1.368 -15.614,-1.105 -18.662,-0.931c-3.086,0.174 -16.751,1.298 -19.057,2.511l5.169,3.677c-2.432,-0.366 -6.294,-3.758 -8.6,-2.948c-2.607,0.914 -6.555,1.832 -9.261,4.139l-2.394,2.041c-4.115,3.508 -5.839,7.497 -10.208,11.222c1.8,0.507 9.165,-0.875 11.473,-1.443c3.06,-0.755 3,-1.292 5.97,-3.064c1.585,-0.945 4.737,-2.885 6.045,-4.001" style="fill:rgb(23,69,157);fill-rule:nonzero;"/>        </g>        <g transform="matrix(4.16667,0,0,4.16667,-122.155,21.0864)">            <path d="M0,4.19l0.655,-0.199l0.08,0.263l-0.656,0.198l-5.823,2.479c0.611,0.459 14.106,1.296 16.069,1.347c1.982,0.052 6.503,0.627 8.385,0.123c2.788,-0.749 6.739,-0.901 9.354,-1.692l0.027,0.101l-4.546,2.065l17.161,0.872c-1.268,-2.046 -13.867,-7.263 -16.729,-8.326c-2.897,-1.074 -15.87,-5.515 -18.468,-5.326l3.264,5.437c-2.082,-1.309 -4.264,-5.963 -6.702,-6.144c-2.752,-0.205 -6.74,-0.945 -10.142,0.087l-3.011,0.911c-5.175,1.567 -8.352,4.532 -13.848,6.196c1.446,1.186 8.749,2.869 11.091,3.271c3.108,0.533 3.268,0.017 6.698,-0.417c1.83,-0.231 5.496,-0.748 7.141,-1.246" style="fill:rgb(92,183,72);fill-rule:nonzero;"/>        </g>        <g transform="matrix(4.16667,0,0,4.16667,21.1588,346.161)">            <path d="M0,-13.536c1.781,0 2.892,0.694 3.332,2.082c0.092,0.371 0.139,0.741 0.139,1.111c0.589,-0.521 1.214,-1.238 1.874,-2.152c1.076,-0.648 1.839,-0.972 2.29,-0.972c1.805,0.278 2.707,0.556 2.707,0.833c0.579,0.371 1.065,1.157 1.458,2.36l0,0.07l0.069,0c1.447,-1.389 2.511,-2.083 3.194,-2.083c0.242,-0.138 0.567,-0.208 0.971,-0.208c0.926,0 1.828,0.486 2.707,1.458c0.602,0.231 0.902,1.134 0.902,2.707c0.047,1.134 0.116,1.851 0.209,2.152c0.046,1.943 0.069,3.216 0.069,3.818c0.128,0 0.22,0.231 0.278,0.694l0,0.277c-0.185,0.926 -0.648,1.389 -1.388,1.389l-0.07,0c-0.752,0 -1.191,-0.51 -1.319,-1.528c-0.092,-0.347 -0.138,-0.671 -0.138,-0.971c0,-0.694 -0.093,-2.892 -0.278,-6.595c-0.509,-0.439 -0.833,-0.694 -0.972,-0.763c-0.532,0.069 -1.296,0.579 -2.29,1.527c-0.463,0.347 -0.926,1.319 -1.389,2.915c-0.173,0.22 -0.474,1.169 -0.902,2.846c-0.463,1.296 -1.041,1.944 -1.735,1.944l-0.07,0c-0.648,0 -1.087,-0.417 -1.319,-1.25l0,-0.069c0,-1.376 0.301,-3.459 0.903,-6.247l0,-1.319c-0.208,-0.74 -0.44,-1.111 -0.694,-1.111l-0.972,-0.139c-0.417,0.313 -0.625,0.498 -0.625,0.556l-2.638,2.984c-1.203,1.701 -1.851,3.02 -1.943,3.957c-0.683,1.573 -1.169,2.384 -1.458,2.43l-0.486,0.069l-0.138,0c-0.648,0 -1.088,-0.416 -1.319,-1.249l0,-0.07c0.231,-0.717 0.509,-1.828 0.833,-3.332c0.74,-1.666 1.11,-3.146 1.11,-4.442c0,-0.694 -0.162,-1.041 -0.486,-1.041l-0.347,0c-0.497,0 -1.353,0.416 -2.568,1.249c-0.521,0.972 -1.076,1.458 -1.666,1.458l-0.069,0c-0.729,0 -1.146,-0.44 -1.25,-1.319c0,-0.497 0.463,-1.238 1.388,-2.221c1.678,-1.203 3.043,-1.805 4.096,-1.805" style="fill:rgb(105,106,106);fill-rule:nonzero;"/>        </g>        <g transform="matrix(4.16667,0,0,4.16667,223.163,345.436)">            <path d="M0,-12.911c0.717,0 1.365,0.185 1.944,0.556c1.503,0.983 2.36,1.955 2.568,2.915c0.323,0.544 0.486,1.145 0.486,1.805l0,0.555c0,2.21 -0.44,3.76 -1.319,4.65c-0.544,1.053 -1.169,1.701 -1.875,1.944c-0.797,0.324 -1.515,0.486 -2.151,0.486c-2.106,0 -3.702,-0.509 -4.79,-1.527c-1.712,-1.689 -2.568,-2.846 -2.568,-3.471c-0.046,-0.243 -0.069,-0.474 -0.069,-0.694c0.161,-1.677 0.439,-2.857 0.833,-3.54c0.809,-0.972 1.781,-1.805 2.915,-2.499c0.787,-0.74 1.805,-1.11 3.054,-1.11c0.428,0 0.752,-0.023 0.972,-0.07m-0.903,2.846c-0.058,0 -0.289,-0.023 -0.694,-0.069c-0.335,0.034 -1.377,0.798 -3.123,2.29c-0.278,0.914 -0.417,1.678 -0.417,2.291l0,0.069c1.365,1.713 2.314,2.569 2.846,2.569c0,0.185 0.718,0.277 2.152,0.277c0.949,0 1.758,-0.925 2.429,-2.776c0.047,-0.567 0.069,-1.122 0.069,-1.666l0,-0.555c-0.37,-1.25 -0.74,-1.875 -1.11,-1.875c-0.486,-0.509 -0.926,-0.763 -1.319,-0.763c-0.416,0.139 -0.694,0.208 -0.833,0.208" style="fill:rgb(105,106,106);fill-rule:nonzero;"/>        </g>        <g transform="matrix(4.16667,0,0,4.16667,373.29,345.362)">            <path d="M0,-14.854c0.74,0 1.504,0.509 2.29,1.527c0.417,1.122 0.741,2.441 0.973,3.957c0,0.648 0.022,2.383 0.069,5.205c-0.047,1.435 -0.069,2.384 -0.069,2.847c-0.348,0.879 -0.833,1.318 -1.458,1.318l-0.07,0c-0.833,-0.127 -1.249,-0.543 -1.249,-1.249c0.093,-0.602 0.162,-1.388 0.208,-2.36l-0.07,-0.347l0.07,-0.139c0,-0.046 -0.023,-0.116 -0.07,-0.208c0.047,-0.313 0.07,-0.567 0.07,-0.764l0,-0.208c0,-0.104 -0.023,-0.197 -0.07,-0.278c0,-0.046 0.024,-0.069 0.07,-0.069c-0.046,-0.856 -0.07,-1.481 -0.07,-1.874l0,-1.458c0,-0.671 -0.254,-1.735 -0.763,-3.193c-0.821,0.706 -1.492,1.655 -2.013,2.846c-0.359,0.393 -0.798,1.481 -1.319,3.262c-0.416,0.926 -0.717,2.013 -0.902,3.263l-0.555,1.805c-0.312,0.509 -0.706,0.763 -1.181,0.763l-0.069,0c-0.648,0 -1.087,-0.416 -1.319,-1.249l0,-0.07c0.602,-2.395 1.065,-4.986 1.388,-7.774l0,-0.625c0,-0.393 -0.023,-1.017 -0.069,-1.874c-0.092,-0.046 -0.162,-0.069 -0.208,-0.069c-0.926,0.416 -1.389,0.694 -1.389,0.833c-0.277,0.451 -0.508,0.983 -0.693,1.596c-0.29,0.371 -0.637,0.555 -1.042,0.555l-0.138,0c-0.833,-0.127 -1.25,-0.543 -1.25,-1.249l0,-0.069c0.081,-0.718 0.405,-1.551 0.972,-2.499c0.289,-0.452 0.89,-0.891 1.805,-1.319c0.358,-0.185 1.03,-0.37 2.012,-0.555c0.775,0 1.493,0.439 2.153,1.318c0.231,0.44 0.347,0.81 0.347,1.111l0.069,0c1.064,-1.805 2.244,-2.707 3.54,-2.707" style="fill:rgb(105,106,106);fill-rule:nonzero;"/>        </g>        <g transform="matrix(4.16667,0,0,4.16667,504.628,345.507)">            <path d="M0,-13.813l0.416,0c1.493,0 2.534,0.532 3.124,1.596c0.37,0.811 0.555,1.482 0.555,2.013c0,1.285 -0.926,2.442 -2.776,3.471c-2.476,1.157 -4.165,1.736 -5.067,1.736c0,0.185 0.509,0.809 1.527,1.874c0.763,0.324 1.273,0.486 1.527,0.486l0.555,0c0.926,0 1.735,-0.764 2.43,-2.291c0.416,-0.417 0.809,-0.625 1.18,-0.625l0.069,0c0.833,0.128 1.25,0.544 1.25,1.25l0,0.138c-0.221,0.903 -0.706,1.759 -1.458,2.569c-1.007,0.96 -2.048,1.492 -3.124,1.596l-1.111,0c-1.018,-0.081 -2.128,-0.52 -3.331,-1.319c-1.354,-1.469 -2.048,-2.44 -2.083,-2.915c-0.335,-0.555 -0.52,-1.157 -0.555,-1.805c0.335,-2.175 0.613,-3.262 0.833,-3.262c1.446,-2.418 2.811,-3.783 4.095,-4.096c0.845,-0.277 1.493,-0.416 1.944,-0.416m-3.887,6.039l0,0.139l0.139,0c0.52,0 2.001,-0.579 4.442,-1.735c0.509,-0.533 0.764,-0.834 0.764,-0.903c0,-0.532 -0.255,-0.833 -0.764,-0.902l-0.764,0c-0.659,0 -1.377,0.347 -2.151,1.041c-0.498,0.59 -1.053,1.377 -1.666,2.36" style="fill:rgb(105,106,106);fill-rule:nonzero;"/>        </g>        <g transform="matrix(4.16667,0,0,4.16667,615.184,362.213)">            <path d="M0,-17.354c0.636,0 1.029,0.417 1.18,1.25l0,0.069c0,0.232 -0.255,0.787 -0.764,1.666c-0.277,1.562 -0.416,2.372 -0.416,2.429c0.139,0.429 0.301,1.076 0.486,1.944c0.069,0 0.208,0.278 0.416,0.833c0.625,0.833 1.226,1.249 1.805,1.249l0.139,0c0.543,0 1.284,-0.509 2.221,-1.527c0.787,-1.92 1.18,-3.077 1.18,-3.47l0,-1.18l-0.278,-1.666c0.139,-0.972 0.579,-1.458 1.319,-1.458l0.07,0c0.937,0 1.584,1.134 1.943,3.401c0.695,2.083 1.042,3.494 1.042,4.234c0.046,0 0.069,0.139 0.069,0.417c0,2.314 -0.139,3.47 -0.416,3.47c-0.244,0.348 -0.591,1.204 -1.042,2.569c-0.52,1.145 -1.307,1.955 -2.36,2.429c-0.486,0.266 -1.295,0.498 -2.429,0.695l-0.139,0c-1.805,-0.232 -2.707,-0.811 -2.707,-1.736l0,-0.069c0,-0.741 0.462,-1.18 1.388,-1.319l0,-0.069c0.474,0.092 0.845,0.254 1.111,0.486c1.156,0 2.013,-0.394 2.568,-1.181c0.601,-1.747 1.041,-2.765 1.319,-3.054c0.046,-0.937 0.069,-1.585 0.069,-1.943l-0.833,1.388c-1.504,1.481 -2.823,2.221 -3.956,2.221c-1.239,0 -2.21,-0.324 -2.916,-0.972c-0.497,-0.323 -1.006,-0.879 -1.526,-1.666l-0.625,-1.457c-0.139,-0.498 -0.325,-1.307 -0.556,-2.43c0.289,-3.702 1.169,-5.553 2.638,-5.553" style="fill:rgb(105,106,106);fill-rule:nonzero;"/>        </g>    </g></svg>