<?xml version="1.0" encoding="UTF-8" standalone="no"?><!DOCTYPE svg PUBLIC "-//W3C//DTD SVG 1.1//EN" "http://www.w3.org/Graphics/SVG/1.1/DTD/svg11.dtd"><svg width="100%" height="100%" viewBox="0 0 1024 512" version="1.1" xmlns="http://www.w3.org/2000/svg" xmlns:xlink="http://www.w3.org/1999/xlink" xml:space="preserve" style="fill-rule:evenodd;clip-rule:evenodd;stroke-linejoin:round;stroke-miterlimit:2;"><title>Wealth Migrate</title><desc>Wealth Migrate is a leading Fintech real estate investment platform established in 2010. We make investing in high yield, institutional quality, first world real estate accessible, safe and affordable for anyone online. They can earn US dollar based income AND capital growth. We do this by leveraging big data technology, global teams on the ground, and the social power of collective buying through crowdfunding. Wealth Migrate is in the process of becoming the global capital raising venue and secondary market for all online property investments. </desc>    <g transform="matrix(2.89605,0,0,2.89605,3.25637,130.525)">        <path d="M31.68,19.72c-0.054,-0.051 -0.098,-0.112 -0.13,-0.18l-1.55,-3.3l-3.53,-7.46c-0.07,-0.142 -0.07,-0.308 0,-0.45c0.067,-0.138 0.191,-0.24 0.34,-0.28l4.3,-1.12l-1.47,-4.85c-0.046,-0.152 -0.024,-0.316 0.06,-0.45c0.085,-0.131 0.225,-0.215 0.38,-0.23l14.92,-1.85c0.149,-0.024 0.302,0.025 0.41,0.13c0.118,0.098 0.185,0.246 0.18,0.4l0,6.18l8.77,8.53l-0.74,0.76l-8,-7.82l0,4.51c-0,0.253 -0.182,0.472 -0.43,0.52l-4.88,0.94c-0.281,0.05 -0.556,-0.132 -0.62,-0.41l-0.26,-1.22l-2.58,2.21l0.84,3.13c0.078,0.263 -0.069,0.545 -0.33,0.63l-5.16,1.77c-0.176,0.069 -0.377,0.034 -0.52,-0.09m-0.29,-3l0.91,1.93l4.17,-1.45l-0.79,-3c-0.057,-0.195 0.006,-0.407 0.16,-0.54l3.27,-2.81l-1,-4.7l-5.67,1.52l2.12,7c0.075,0.244 -0.041,0.509 -0.27,0.62l-2.9,1.43Zm-3.69,-7.81l3.24,6.86l2.48,-1.22l-2,-6.61l-3.72,0.97Zm3.13,-6.54l1.3,4.29l6.25,-1.66c0.139,-0.042 0.289,-0.02 0.41,0.06c0.123,0.076 0.21,0.199 0.24,0.34l1,4.67l4.48,-3.86l0,-5.57l-13.68,1.73Zm9.45,8.91l0.27,1.28l3.94,-0.76l0,-4.16l-4.21,3.64Z" style="fill:rgb(24,34,59);fill-rule:nonzero;"/>        <path d="M52.05,18.11c-0.176,-0.145 -0.237,-0.389 -0.15,-0.6l1.34,-3.39l3,-7.66c0.059,-0.144 0.181,-0.255 0.33,-0.3c0.143,-0.064 0.307,-0.064 0.45,0l3.74,2.38l2.61,-4.34c0.087,-0.113 0.218,-0.186 0.36,-0.2c0.156,-0.031 0.317,0.009 0.44,0.11l11.53,9.6c0.107,0.103 0.171,0.242 0.18,0.39c0.012,0.153 -0.051,0.303 -0.17,0.4l-4.54,4.21l-0.25,12.23l-1.06,0l0.24,-11.21l-3.32,3.06c-0.194,0.158 -0.476,0.158 -0.67,0l-4,-2.93c-0.23,-0.169 -0.284,-0.496 -0.12,-0.73l0.72,-1l-3.38,-0.37l-1.73,2.74c-0.142,0.235 -0.447,0.319 -0.69,0.19l-4.77,-2.52c-0.034,-0.013 -0.065,-0.033 -0.09,-0.06m1.8,-2.63l-0.79,2l3.94,2.04l1.62,-2.61c0.111,-0.169 0.309,-0.262 0.51,-0.24l4.29,0.47l2.75,-3.93l-5,-3.14l-3.66,6.33c-0.129,0.221 -0.4,0.318 -0.64,0.23l-3.02,-1.15Zm3.2,-8l-2.81,7.02l2.58,1l3.47,-6l-3.24,-2.02Zm6.85,10.78l-0.76,1.07l3.25,2.37l3,-2.83l-5.49,-0.61Zm3.33,-5.61c0.093,0.076 0.156,0.182 0.18,0.3c0.03,0.143 -0.003,0.293 -0.09,0.41l-2.73,3.91l5.88,0.65l4.09,-3.78l-10.56,-8.86l-2.28,3.87l5.45,3.46l0.06,0" style="fill:rgb(24,34,59);fill-rule:nonzero;"/>        <path d="M67,31.38c0.048,-0.06 0.11,-0.108 0.18,-0.14l3.3,-1.56l7.46,-3.51c0.142,-0.07 0.308,-0.07 0.45,0c0.143,0.064 0.249,0.189 0.29,0.34l1.12,4.29l4.85,-1.47c0.15,-0.042 0.311,-0.017 0.44,0.07c0.131,0.082 0.219,0.217 0.24,0.37l1.84,14.92c0.022,0.151 -0.022,0.304 -0.12,0.42c-0.104,0.111 -0.248,0.176 -0.4,0.18l-6.19,0l-8.55,8.71l-0.76,-0.74l7.82,-8l-4.51,0c-0.253,-0 -0.472,-0.182 -0.52,-0.43l-0.94,-4.89c-0.055,-0.282 0.129,-0.56 0.41,-0.62l1.23,-0.26l-2.22,-2.58l-3.12,0.84c-0.268,0.068 -0.546,-0.08 -0.64,-0.34l-1.77,-5.09c-0.063,-0.174 -0.028,-0.368 0.09,-0.51m3,-0.29l-1.98,0.91l1.46,4.17l3,-0.8c0.194,-0.053 0.403,0.014 0.53,0.17l2.82,3.27l4.69,-1l-1.5,-5.68l-7,2.13c-0.235,0.062 -0.484,-0.046 -0.6,-0.26l-1.42,-2.91Zm7.82,-3.7l-6.86,3.24l1.22,2.48l6.61,-2l-0.97,-3.72Zm6.54,3.14l-4.34,1.3l1.64,6.25c0.032,0.14 0.007,0.288 -0.07,0.41c-0.073,0.126 -0.197,0.213 -0.34,0.24l-4.67,1l3.86,4.49l5.57,0l-1.65,-13.69Zm-8.92,9.47l-1.28,0.28l0.76,3.94l4.16,0l-3.64,-4.22Z" style="fill:rgb(24,34,59);fill-rule:nonzero;"/>        <path d="M68.59,51.74c0.147,-0.172 0.391,-0.229 0.6,-0.14l3.4,1.34l7.66,3c0.147,0.058 0.261,0.179 0.31,0.33c0.047,0.148 0.025,0.31 -0.06,0.44l-2.37,3.75l4.38,2.54c0.133,0.083 0.227,0.217 0.26,0.37c0.021,0.154 -0.022,0.31 -0.12,0.43l-9.65,11.59c-0.099,0.115 -0.243,0.182 -0.395,0.182c-0.152,-0 -0.296,-0.067 -0.395,-0.182l-4.21,-4.52l-12.23,-0.25l-0,-1.06l11.23,0.23l-3.07,-3.31c-0.158,-0.194 -0.158,-0.476 -0,-0.67l2.93,-4c0.169,-0.23 0.496,-0.284 0.73,-0.12l1,0.71l0.41,-3.4l-2.8,-1.7c-0.228,-0.148 -0.306,-0.449 -0.18,-0.69l2.51,-4.77l0.06,-0.1Zm2.63,1.8l-2,-0.79l-2.06,3.91l2.61,1.63c0.173,0.108 0.267,0.308 0.24,0.51l-0.47,4.28l3.94,2.76l3.14,-5l-6.33,-3.67c-0.225,-0.13 -0.324,-0.407 -0.23,-0.65l1.16,-2.98Zm8,3.2l-7.05,-2.8l-1,2.58l6,3.47l2.05,-3.25Zm-10.78,6.85l-1.07,-0.75l-2.37,3.24l2.83,3.06l0.61,-5.55Zm5.61,3.34c-0.079,0.089 -0.184,0.152 -0.3,0.18c-0.143,0.02 -0.289,-0.012 -0.41,-0.09l-3.91,-2.74l-0.65,5.88l3.79,4.09l8.86,-10.59l-3.88,-2.25l-3.46,5.46l0,0.06" style="fill:rgb(24,34,59);fill-rule:nonzero;"/>        <path d="M54.89,67c0.054,0.051 0.098,0.112 0.13,0.18l1.55,3.31l3.43,7.51c0.07,0.142 0.07,0.308 0,0.45c-0.068,0.143 -0.196,0.25 -0.35,0.29l-4.26,1.06l1.44,4.86c0.042,0.15 0.017,0.311 -0.07,0.44c-0.086,0.131 -0.225,0.219 -0.38,0.24l-14.93,1.75c-0.156,0.043 -0.323,0.01 -0.45,-0.09c-0.11,-0.104 -0.172,-0.249 -0.17,-0.4l0.06,-6.18l-8.69,-8.63l0.74,-0.75l8,7.87l0,-4.52c0.001,-0.251 0.183,-0.467 0.43,-0.51l4.92,-0.88c0.282,-0.055 0.56,0.129 0.62,0.41l0.25,1.23l2.59,-2.2l-0.82,-3.13c-0.068,-0.268 0.08,-0.546 0.34,-0.64l5.1,-1.73c0.177,-0.064 0.375,-0.03 0.52,0.09m0.27,3l-0.89,-1.94l-4.19,1.43l0.78,3c0.055,0.197 -0.012,0.41 -0.17,0.54l-3.28,2.79l1,4.7l5.68,-1.44l-2.09,-7.11c-0.074,-0.249 0.045,-0.518 0.28,-0.63l2.88,-1.34Zm3.65,7.84l-3.2,-6.87l-2.49,1.2l2,6.63l3.69,-0.96Zm-3.18,6.52l-1.27,-4.3l-6.26,1.6c-0.14,0.032 -0.288,0.007 -0.41,-0.07c-0.123,-0.076 -0.21,-0.199 -0.24,-0.34l-1,-4.68l-4.45,3.8l-0.08,5.6l13.71,-1.61Zm-9.39,-9l-0.24,-1.28l-4,0.73l0,4.16l4.24,-3.61Z" style="fill:rgb(24,34,59);fill-rule:nonzero;"/>        <path d="M34.51,68.49c0.176,0.145 0.237,0.389 0.15,0.6l-1.37,3.38l-3.1,7.64c-0.059,0.144 -0.181,0.255 -0.33,0.3c-0.143,0.064 -0.307,0.064 -0.45,0l-3.73,-2.41l-2.57,4.37c-0.084,0.13 -0.218,0.22 -0.37,0.25c-0.154,0.027 -0.312,-0.017 -0.43,-0.12l-11.47,-9.76c-0.111,-0.1 -0.18,-0.24 -0.19,-0.39c-0.002,-0.153 0.064,-0.3 0.18,-0.4l4.56,-4.18l0.33,-12.23l1.06,0l-0.3,11.21l3.33,-3c0.194,-0.158 0.476,-0.158 0.67,0l4,3c0.225,0.172 0.278,0.495 0.12,0.73l-0.73,1l3.38,0.4l1.75,-2.82c0.152,-0.229 0.456,-0.307 0.7,-0.18l4.75,2.54l0.09,0.07m-1.84,2.62l0.8,-2l-3.9,-2.08l-1.6,2.61c-0.107,0.175 -0.306,0.272 -0.51,0.25l-4.28,-0.5l-2.78,3.92l4.94,3.16l3.63,-6.3c0.126,-0.224 0.4,-0.322 0.64,-0.23l3.06,1.17Zm-3.25,8l2.85,-7l-2.58,-1l-3.5,6l3.23,2Zm-6.78,-10.84l0.76,-1.07l-3.23,-2.39l-3.07,2.81l5.54,0.65Zm-3.37,5.58c-0.095,-0.074 -0.159,-0.181 -0.18,-0.3c-0.031,-0.14 0.002,-0.287 0.09,-0.4l2.79,-3.9l-5.88,-0.68l-4.12,3.75l10.54,8.93l2.27,-3.86l-5.46,-3.49l-0.05,-0.05" style="fill:rgb(24,34,59);fill-rule:nonzero;"/>        <path d="M19.66,55.13c-0.048,0.057 -0.11,0.102 -0.18,0.13l-3.31,1.55l-7.48,3.46c-0.142,0.07 -0.308,0.07 -0.45,0c-0.126,-0.077 -0.213,-0.205 -0.24,-0.35l-1.1,-4.29l-4.9,1.44c-0.047,0.013 -0.095,0.02 -0.143,0.02c-0.269,-0 -0.497,-0.204 -0.527,-0.47l-1.76,-14.93c-0.018,-0.152 0.029,-0.305 0.13,-0.42c0.104,-0.11 0.249,-0.172 0.4,-0.17l6.19,0.06l8.58,-8.72l0.76,0.74l-7.87,8l4.51,-0c0.251,0.001 0.467,0.183 0.51,0.43l0.91,4.88c0.055,0.282 -0.129,0.56 -0.41,0.62l-1.23,0.25l2.21,2.64l3.12,-0.82c0.268,-0.068 0.546,0.08 0.64,0.34l1.74,5.1c0.06,0.179 0.022,0.376 -0.1,0.52m-3,0.27l1.93,-0.89l-1.42,-4.19l-3,0.78c-0.197,0.05 -0.407,-0.016 -0.54,-0.17l-2.79,-3.28l-4.7,1l1.48,5.64l7,-2.08c0.249,-0.074 0.518,0.045 0.63,0.28l1.41,2.91Zm-7.83,3.64l6.88,-3.2l-1.21,-2.49l-6.62,2l0.95,3.69Zm-6.52,-3.18l4.29,-1.27l-1.6,-6.26c-0.036,-0.139 -0.015,-0.287 0.06,-0.41c0.077,-0.121 0.2,-0.208 0.34,-0.24l4.68,-1l-3.82,-4.47l-5.57,-0.06l1.62,13.71Zm9,-9.39l1.29,-0.26l-0.74,-3.95l-4.16,-0l3.61,4.21Z" style="fill:rgb(24,34,59);fill-rule:nonzero;"/>        <path d="M18.18,34.75c-0.147,0.173 -0.389,0.234 -0.6,0.15l-3.39,-1.37l-7.64,-3.1c-0.142,-0.063 -0.251,-0.183 -0.3,-0.33c-0.05,-0.151 -0.028,-0.317 0.06,-0.45l2.39,-3.73l-4.36,-2.57c-0.133,-0.074 -0.228,-0.202 -0.26,-0.35c-0.021,-0.154 0.022,-0.31 0.12,-0.43l9.72,-11.47c0.102,-0.11 0.241,-0.178 0.39,-0.19c0.154,-0.005 0.302,0.062 0.4,0.18l4.18,4.56l12.23,0.35l0,1.06l-11.21,-0.3l3.05,3.33c0.158,0.194 0.158,0.476 0,0.67l-2.95,4c-0.172,0.225 -0.495,0.278 -0.73,0.12l-1,-0.73l-0.39,3.38l2.73,1.73c0.229,0.152 0.307,0.456 0.18,0.7l-2.54,4.75l-0.06,0.09m-2.63,-1.81l2,0.8l2.09,-3.9l-2.66,-1.69c-0.173,-0.108 -0.267,-0.308 -0.24,-0.51l0.49,-4.28l-3.91,-2.78l-3.17,4.94l6.3,3.71c0.224,0.126 0.322,0.4 0.23,0.64l-1.13,3.07Zm-8,-3.25l7,2.85l1,-2.58l-6,-3.5l-2,3.23Zm10.83,-6.83l1.07,0.76l2.38,-3.23l-2.85,-3.07l-0.6,5.54Zm-5.59,-3.37c0.076,-0.093 0.182,-0.156 0.3,-0.18c0.143,-0.03 0.293,0.003 0.41,0.09l3.89,2.76l0.69,-5.88l-3.76,-4.11l-8.93,10.54l3.87,2.24l3.49,-5.44c-0.004,-0.016 -0.004,-0.034 0,-0.05" style="fill:rgb(24,34,59);fill-rule:nonzero;"/>        <path d="M38.69,27.41c1.91,1.05 4.13,3.8 6.19,7.24c1.499,-0.853 2.927,-1.826 4.27,-2.91c-3.19,-3.17 -7,-4.83 -10.46,-4.33" style="fill:rgb(24,34,59);fill-rule:nonzero;"/>        <path d="M30.9,40.8c0.23,2.484 0.858,4.915 1.86,7.2c0.335,0.775 0.709,1.533 1.12,2.27c2.111,-0.344 4.19,-0.856 6.22,-1.53c-0.52,-1 -1,-2.08 -1.47,-3.14c-0.85,-1.96 -1.598,-3.962 -2.24,-6c-1.791,0.562 -3.628,0.963 -5.49,1.2" style="fill:rgb(24,34,59);fill-rule:nonzero;"/>        <path d="M40.88,57.79c1.32,-0.35 2.67,-0.78 4,-1.27c-1.628,-2.096 -3.057,-4.339 -4.27,-6.7c-2,0.665 -4.045,1.183 -6.12,1.55c1.6,2.599 3.776,4.796 6.36,6.42" style="fill:rgb(24,34,59);fill-rule:nonzero;"/>        <path d="M37.49,39.23c0.625,2.019 1.359,4.002 2.2,5.94c0.5,1.15 1,2.22 1.51,3.23c1.18,-0.41 2.38,-0.87 3.58,-1.39c1.2,-0.52 2.6,-1.19 3.81,-1.83c-0.39,-1.06 -0.82,-2.15 -1.31,-3.29c-0.839,-1.944 -1.783,-3.84 -2.83,-5.68c-1.1,0.59 -2.26,1.16 -3.47,1.68c-1.21,0.52 -2.34,1 -3.49,1.34" style="fill:rgb(24,34,59);fill-rule:nonzero;"/>        <path d="M55.06,53c-0.94,0.56 -1.93,1.1 -3,1.62c0.106,0.999 0.079,2.008 -0.08,3c1.401,-1.251 2.438,-2.858 3,-4.65" style="fill:rgb(24,34,59);fill-rule:nonzero;"/>        <path d="M48,59.49c-0.856,-0.56 -1.633,-1.233 -2.31,-2c-1.12,0.41 -2.24,0.79 -3.34,1.12c1.757,0.838 3.719,1.154 5.65,0.91" style="fill:rgb(24,34,59);fill-rule:nonzero;"/>        <path d="M55.15,42.39c-1.631,1.24 -3.353,2.356 -5.15,3.34c0.907,2.498 1.577,5.076 2,7.7c1.24,-0.65 2.42,-1.32 3.53,-2c0.576,-2.987 0.456,-6.067 -0.35,-9" style="fill:rgb(24,34,59);fill-rule:nonzero;"/>        <path d="M59.33,48.72c1.135,-3.425 1.135,-7.125 0,-10.55c-0.899,1.289 -1.976,2.444 -3.2,3.43c0.85,2.92 1.082,5.985 0.68,9c0.9,-0.62 1.75,-1.24 2.52,-1.86" style="fill:rgb(24,34,59);fill-rule:nonzero;"/>        <path d="M30.84,39.64c1.769,-0.243 3.515,-0.631 5.22,-1.16c-1.06,-3.91 -1.6,-7.48 -1.06,-9.56c-2.85,2.13 -4.33,6.13 -4.2,10.72" style="fill:rgb(24,34,59);fill-rule:nonzero;"/>        <path d="M52.84,29.55c-0.577,0.834 -1.248,1.599 -2,2.28c1.733,1.954 3.138,4.176 4.16,6.58c0.29,0.66 0.54,1.33 0.76,2c1.221,-1.005 2.239,-2.234 3,-3.62c-1.272,-2.928 -3.354,-5.433 -6,-7.22" style="fill:rgb(24,34,59);fill-rule:nonzero;"/>        <path d="M53.93,38.87c-0.987,-2.298 -2.337,-4.422 -4,-6.29c-1.406,1.15 -2.908,2.178 -4.49,3.07c1.065,1.872 2.027,3.802 2.88,5.78c0.45,1 0.88,2.12 1.27,3.19c1.825,-0.999 3.568,-2.143 5.21,-3.42c-0.244,-0.793 -0.535,-1.571 -0.87,-2.33" style="fill:rgb(24,34,59);fill-rule:nonzero;"/>        <path d="M51,55.21c-0.73,0.36 -1.48,0.71 -2.24,1l-1.87,0.79c1.42,1.48 2.58,2.14 3.22,1.87c0.64,-0.29 1,-1.59 0.84,-3.66" style="fill:rgb(24,34,59);fill-rule:nonzero;"/>        <path d="M36.31,58.77c1,-0.14 2,-0.35 3.07,-0.6c-2.478,-1.751 -4.557,-4.008 -6.1,-6.62c-1.561,0.22 -3.144,0.237 -4.71,0.05c1.746,3.156 4.46,5.67 7.74,7.17" style="fill:rgb(24,34,59);fill-rule:nonzero;"/>        <path d="M50.87,54c-0.358,-2.63 -0.985,-5.217 -1.87,-7.72c-1.19,0.62 -2.44,1.22 -3.74,1.79c-1.3,0.57 -2.35,1 -3.5,1.37c1.21,2.358 2.658,4.586 4.32,6.65c0.74,-0.29 1.49,-0.59 2.22,-0.9c0.73,-0.31 1.7,-0.79 2.57,-1.19" style="fill:rgb(24,34,59);fill-rule:nonzero;"/>        <path d="M56.5,52.16c-0.265,1.081 -0.655,2.128 -1.16,3.12c1.282,-1.31 2.343,-2.819 3.14,-4.47c-0.63,0.45 -1.29,0.91 -2,1.35" style="fill:rgb(24,34,59);fill-rule:nonzero;"/>        <path d="M40.75,59c-0.8,0.21 -1.58,0.38 -2.34,0.54c1.749,0.534 3.572,0.78 5.4,0.73c-1.066,-0.301 -2.094,-0.728 -3.06,-1.27" style="fill:rgb(24,34,59);fill-rule:nonzero;"/>        <path d="M27.86,50.15c0,0.05 0.05,0.09 0.07,0.14c1.555,0.331 3.155,0.389 4.73,0.17c-0.34,-0.64 -0.66,-1.29 -1,-2c-1.047,-2.403 -1.702,-4.959 -1.94,-7.57c-1.021,0.079 -2.047,0.042 -3.06,-0.11c-0.518,3.16 -0.116,6.403 1.16,9.34" style="fill:rgb(24,34,59);fill-rule:nonzero;"/>        <path d="M37.16,38.12c1.11,-0.37 2.24,-0.8 3.36,-1.29c1.12,-0.49 2.29,-1 3.35,-1.62c-3,-5.06 -5.88,-7.54 -7,-7c-1.12,0.54 -1.29,4.27 0.32,9.95" style="fill:rgb(24,34,59);fill-rule:nonzero;"/>        <path d="M50,31c0.691,-0.614 1.308,-1.305 1.84,-2.06c-2.706,-1.582 -5.797,-2.385 -8.93,-2.32c2.695,0.838 5.135,2.345 7.09,4.38" style="fill:rgb(24,34,59);fill-rule:nonzero;"/>        <path d="M29.7,39.76c-0.145,-2.825 0.433,-5.641 1.68,-8.18c-2.211,2.232 -3.756,5.038 -4.46,8.1c0.92,0.136 1.853,0.163 2.78,0.08" style="fill:rgb(24,34,59);fill-rule:nonzero;"/>        <path d="M118.42,54.47l-1.49,0l-4.54,-16.78l-4.55,16.78l-1.49,0l-4.81,-19.27l1.54,0l4.06,16.8l4.49,-16.75l1.51,0l4.5,16.75l4.06,-16.8l1.54,0l-4.82,19.27Z" style="fill:rgb(24,34,59);fill-rule:nonzero;"/>        <path d="M130.05,54.47l0,-19.27l11.69,0l0,1.3l-10.23,0l0,7.61l8.71,0l0,1.3l-8.71,0l0,7.76l10.23,0l0,1.3l-11.69,0Z" style="fill:rgb(24,34,59);fill-rule:nonzero;"/>        <path d="M169.19,54.47l0,-19.27l1.46,0l0,18l10.23,0l0,1.3l-11.69,-0.03Z" style="fill:rgb(24,34,59);fill-rule:nonzero;"/>        <path d="M190.9,36.5l0,18l-1.46,0l0,-18l-5.74,0l0,-1.3l13,0l0,1.3l-5.8,0Z" style="fill:rgb(24,34,59);fill-rule:nonzero;"/>        <path d="M214.9,54.47l0,-9.06l-10,0l0,9.06l-1.5,0l0,-19.27l1.46,0l0,8.91l10,0l0,-8.91l1.46,0l0,19.27l-1.42,0Z" style="fill:rgb(24,34,59);fill-rule:nonzero;"/>        <path d="M233.02,48.75l-6.11,-13.54l-2.11,0l0,19.24l2.26,0l0,-13.57l4.97,10.99l1.95,0l4.86,-10.96l0,13.54l2.26,0l0,-19.24l-2.11,0l-5.97,13.54Z" style="fill:rgb(24,34,59);fill-rule:nonzero;"/>        <rect x="249.62" y="35.21" width="2.26" height="19.24" style="fill:rgb(24,34,59);fill-rule:nonzero;"/>        <path d="M294.45,40.57c0,-3.26 -2.24,-5.36 -5.7,-5.36l-7.43,0l0,19.24l2.26,0l0,-8.45l4.42,0l4.38,8.47l2.61,0l-4.51,-8.62c2.426,-0.551 4.114,-2.797 3.97,-5.28Zm-10.87,-3.26l5,0c1.35,0 3.62,0.43 3.62,3.29c-0,2.86 -2.27,3.28 -3.62,3.28l-5,0l-0,-6.57Z" style="fill:rgb(24,34,59);fill-rule:nonzero;"/>        <path d="M319.55,37.31l5.47,0l0,17.14l2.26,0l0,-17.14l5.5,0l0,-2.1l-13.23,0l0,2.1Z" style="fill:rgb(24,34,59);fill-rule:nonzero;"/>        <path d="M351.77,37.31l0,-2.1l-12.02,0l0,19.24l12.02,0l0,-2.11l-9.76,0l0,-6.54l8.31,0l0,-2.1l-8.31,0l0,-6.39l9.76,0Z" style="fill:rgb(24,34,59);fill-rule:nonzero;"/>        <path d="M160.88,54.38l0.03,0.09l1.57,0l-7.09,-19.27l-1.3,0l-7.09,19.27l1.57,0l0.49,-1.37l4.25,-11.64l1.43,-3.94" style="fill:rgb(24,34,59);fill-rule:nonzero;"/>        <path d="M267.17,46.29l4,0l0,1.22c0.098,1.208 -0.259,2.411 -1,3.37c-0.866,1.025 -2.142,1.618 -3.484,1.618c-1.185,-0 -2.325,-0.462 -3.176,-1.288c-1.19,-1.2 -1.29,-2.54 -1.29,-6.38c-0,-3.84 0.1,-5.19 1.29,-6.38c0.845,-0.837 1.991,-1.301 3.18,-1.29c1.883,-0.012 3.587,1.151 4.26,2.91l2,-0.9c-1.002,-2.541 -3.5,-4.193 -6.23,-4.12c-1.834,-0.013 -3.599,0.707 -4.9,2c-1.83,1.83 -1.83,3.69 -1.83,7.77c-0,4.08 -0,5.93 1.83,7.76c1.298,1.297 3.065,2.018 4.9,2c1.953,0.007 3.82,-0.811 5.14,-2.25c1.148,-1.297 1.728,-3.002 1.61,-4.73l-0,-3.41l-6.23,0l-0.07,2.1Z" style="fill:rgb(24,34,59);fill-rule:nonzero;"/>        <path d="M309.52,35.21l-1.84,0l-7.08,19.24l2.42,0l5.58,-15.66l5.58,15.66l2.42,0l-7.08,-19.24Z" style="fill:rgb(24,34,59);fill-rule:nonzero;"/>    </g></svg>