<?xml version="1.0" encoding="UTF-8" standalone="no"?><!DOCTYPE svg PUBLIC "-//W3C//DTD SVG 1.1//EN" "http://www.w3.org/Graphics/SVG/1.1/DTD/svg11.dtd"><svg width="100%" height="100%" viewBox="0 0 1024 512" version="1.1" xmlns="http://www.w3.org/2000/svg" xmlns:xlink="http://www.w3.org/1999/xlink" xml:space="preserve" style="fill-rule:evenodd;clip-rule:evenodd;stroke-linejoin:round;stroke-miterlimit:2;"><title>Cogress</title><desc>Cogress is a leading property investment company. Founded in 2014, our aim was to connect investors with rigorously vetted property development investment opportunities, those normally reserved for the super-wealthy.</desc>    <g transform="matrix(3.38949,0,0,3.38949,2,139.076)">        <path d="M61.64,43.18c-2,2.5 -4.84,3.74 -8.58,3.74c-3.266,0.169 -6.426,-1.22 -8.51,-3.74c-2,-2.493 -3,-6.847 -3,-13.06c0,-6.213 1,-10.61 3,-13.19c2.02,-2.623 5.204,-4.093 8.51,-3.93c3.767,0 6.633,1.313 8.6,3.94c1.967,2.627 2.967,7.017 3,13.17c0,6.207 -1,10.56 -3,13.06m4.72,-26.7c-3.486,-3.576 -8.308,-5.544 -13.3,-5.43c-4.984,-0.111 -9.797,1.853 -13.28,5.42c-3.566,3.55 -5.514,8.42 -5.38,13.45c-0.015,1.962 0.224,3.919 0.71,5.82c-1.94,4.63 -8.25,10.9 -15.54,10.9c-4.187,0 -7.317,-1.553 -9.39,-4.66c-2.073,-3.107 -3.107,-7.413 -3.1,-12.92c0,-5.333 0.96,-9.333 2.88,-12c1.92,-2.667 4.797,-4 8.63,-4c2.13,0 3.57,0.33 4.31,1c0.868,0.965 1.419,2.172 1.58,3.46c0.43,2.2 1.59,3.29 3.47,3.29c0.78,0.034 1.528,-0.318 2,-0.94c0.45,-0.571 0.699,-1.274 0.71,-2c0.02,-1.907 -1.24,-3.527 -3.78,-4.86c-2.574,-1.34 -5.438,-2.027 -8.34,-2c-4.875,-0.041 -9.566,1.889 -13,5.35c-3.707,3.593 -5.56,8.257 -5.56,13.99c0,5.58 1.7,10.08 5.11,13.46c3.316,3.362 7.88,5.205 12.6,5.09c8.63,0 14.65,-4.6 18.21,-10.84c0.919,2.159 2.282,4.102 4,5.7c3.536,3.392 8.281,5.243 13.18,5.14c4.896,0.1 9.642,-1.717 13.22,-5.06c3.653,-3.38 5.477,-8.02 5.47,-13.92c0.126,-5.025 -1.825,-9.886 -5.39,-13.43m14.77,8.38c0,3.68 0.757,6.373 2.27,8.08c1.438,1.624 3.506,2.555 5.675,2.555c2.169,0 4.237,-0.931 5.675,-2.555c1.553,-1.7 2.33,-4.647 2.33,-8.84c0,-4.22 -0.82,-7.12 -2.47,-8.72c-1.467,-1.52 -3.487,-2.385 -5.6,-2.4c-2.361,-0.127 -4.619,1.019 -5.91,3c-1.31,2 -2,4.93 -2,8.89m19.25,-9.32c2.42,-2.74 4.873,-4.11 7.36,-4.11c1.189,-0.094 2.366,0.308 3.25,1.11c0.693,0.626 1.092,1.516 1.1,2.45c0,1.88 -0.86,2.82 -2.57,2.82c-1.073,-0.086 -2.014,-0.761 -2.44,-1.75c-0.63,-1.08 -1.28,-1.63 -2,-1.63c-1.09,0 -2.29,0.75 -3.6,2.23c1.445,2.213 2.22,4.797 2.23,7.44c0.01,3.388 -1.312,6.647 -3.68,9.07c-2.46,2.667 -6.593,4.093 -12.4,4.28c-6.053,0.193 -9.077,1.417 -9.07,3.67c0,1.06 0.68,1.8 2,2.22c2.777,0.648 5.618,0.984 8.47,1c3.686,0.093 7.356,0.532 10.96,1.31c2.409,0.558 4.555,1.924 6.08,3.87c1.519,1.986 2.316,4.431 2.26,6.93c0.075,3.614 -1.66,7.035 -4.62,9.11c-3.087,2.287 -7.523,3.43 -13.31,3.43c-5.333,0 -9.58,-1.03 -12.74,-3.09c-3.16,-2.06 -4.757,-4.653 -4.79,-7.78c-0.067,-1.544 0.419,-3.062 1.37,-4.28c0.963,-1.134 2.406,-1.749 3.89,-1.66c0.423,-0.006 0.843,0.065 1.24,0.21c-1.643,1.635 -2.593,3.843 -2.65,6.16c0.015,2.543 1.354,4.903 3.53,6.22c2.34,1.64 5.853,2.46 10.54,2.46c4.16,0 7.403,-0.833 9.73,-2.5c2.155,-1.391 3.464,-3.785 3.47,-6.35c0,-2.853 -1.04,-4.853 -3.12,-6c-2.08,-1.15 -5.79,-1.82 -11.12,-2c-6.12,-0.313 -10.093,-1.11 -11.92,-2.39c-1.689,-0.984 -2.733,-2.795 -2.74,-4.75c0,-3.727 2.61,-6.08 7.83,-7.06c-2.427,-1.337 -4.52,-3.208 -6.12,-5.47c-1.34,-2.041 -2.037,-4.438 -2,-6.88c-0.022,-3.488 1.516,-6.81 4.19,-9.05c2.738,-2.468 6.314,-3.806 10,-3.74c4.76,0 8.58,1.497 11.46,4.49m25.9,4.46c0.954,-2.521 2.592,-4.727 4.73,-6.37c1.774,-1.56 4.03,-2.467 6.39,-2.57c1.666,-0.086 3.289,0.552 4.45,1.75c0.982,0.947 1.563,2.237 1.62,3.6c0.015,0.791 -0.283,1.558 -0.83,2.13c-0.507,0.572 -1.236,0.9 -2,0.9c-1.433,0 -2.517,-1.057 -3.25,-3.17c-0.51,-1.42 -1.29,-2.13 -2.31,-2.13c-1.227,0 -2.697,0.833 -4.41,2.5c-1.544,1.402 -2.681,3.195 -3.29,5.19c-0.551,2.427 -0.796,4.913 -0.73,7.4l0,7.67c0,3.733 0.053,6.083 0.16,7.05c0.054,0.885 0.497,1.703 1.21,2.23c1.171,0.613 2.494,0.877 3.81,0.76l1.2,0l0,2l-18.64,0l0,-2l0.9,0c1.261,0.098 2.525,-0.144 3.66,-0.7c0.709,-0.441 1.189,-1.174 1.31,-2c0.13,-0.86 0.2,-3.3 0.2,-7.35l0,-11.3c0,-3.77 0,-6.13 -0.15,-7.08c-0.057,-0.882 -0.5,-1.695 -1.21,-2.22c-1.164,-0.635 -2.49,-0.91 -3.81,-0.79l-0.9,0l0,-1.93c3.579,-0.522 7.103,-1.365 10.53,-2.52c0.933,2.89 1.392,5.913 1.36,8.95m41.46,2.35c0.084,-0.499 0.124,-1.004 0.12,-1.51c0.015,-0.191 0.023,-0.383 0.023,-0.575c0,-4.033 -3.318,-7.35 -7.35,-7.35c-0.095,0 -0.189,0.001 -0.283,0.005c-5.19,0 -8.28,3.23 -9.28,9.43l16.77,0Zm7.48,1.95l-24.42,0c-0.11,1.68 -0.17,2.94 -0.17,3.77c0,6.153 0.963,10.78 2.89,13.88c1.786,3.018 5.107,4.807 8.61,4.64c5.187,0 8.853,-2.333 11,-7l2.06,0c-0.897,2.87 -2.834,5.303 -5.43,6.82c-5.284,3.186 -11.9,3.266 -17.26,0.21c-2.667,-1.529 -4.898,-3.715 -6.48,-6.35c-1.76,-3.031 -2.633,-6.497 -2.52,-10c-0.17,-5.043 1.574,-9.968 4.88,-13.78c3.035,-3.571 7.524,-5.59 12.21,-5.49c4.593,0 8.143,1.4 10.65,4.2c2.367,2.448 3.786,5.661 4,9.06m31.48,24.34l0,-11.51l1.9,0c2.23,6.65 6.17,10 11.86,10c2.48,0 4.33,-0.667 5.55,-2c1.146,-1.149 1.802,-2.698 1.83,-4.32c0.036,-1.722 -0.698,-3.373 -2,-4.5c-2.384,-1.751 -4.995,-3.17 -7.76,-4.22c-3.162,-1.218 -6.099,-2.955 -8.69,-5.14c-1.711,-1.564 -2.666,-3.792 -2.62,-6.11c0.068,-2.48 1.077,-4.844 2.82,-6.61c1.89,-2.1 4.54,-3.14 8,-3.14c3.285,-0.088 6.447,1.273 8.64,3.72c0.81,-0.925 1.453,-1.984 1.9,-3.13l1.77,0l0,10.83l-1.81,0c-0.617,-2.539 -1.926,-4.859 -3.78,-6.7c-1.719,-1.809 -4.115,-2.824 -6.61,-2.8c-1.719,-0.08 -3.408,0.488 -4.73,1.59c-1.122,0.889 -1.784,2.239 -1.8,3.67c0,1.573 0.742,3.056 2,4c1.3,1.14 3.78,2.43 7.46,3.89c5.533,2.187 8.917,4.323 10.15,6.41c1.155,1.822 1.798,3.923 1.86,6.08c0.068,2.859 -1.197,5.592 -3.42,7.39c-2.448,1.965 -5.523,2.985 -8.66,2.87c-3.663,0.001 -7.184,-1.436 -9.8,-4c-0.995,1.043 -1.735,2.303 -2.16,3.68l-1.9,0.05Zm-28.7,0l0,-11.51l1.9,0c2.22,6.667 6.173,10 11.86,10c2.046,0.148 4.061,-0.579 5.54,-2c1.143,-1.15 1.796,-2.699 1.82,-4.32c0.05,-1.712 -0.661,-3.361 -1.94,-4.5c-2.386,-1.748 -4.996,-3.167 -7.76,-4.22c-3.165,-1.213 -6.103,-2.951 -8.69,-5.14c-1.713,-1.563 -2.673,-3.791 -2.63,-6.11c0.06,-2.478 1.061,-4.843 2.8,-6.61c1.89,-2.1 4.53,-3.14 7.95,-3.14c3.284,-0.084 6.444,1.277 8.64,3.72c0.803,-0.931 1.445,-1.988 1.9,-3.13l1.8,0l0,10.83l-1.8,0c-0.617,-2.539 -1.926,-4.859 -3.78,-6.7c-1.725,-1.806 -4.123,-2.821 -6.62,-2.8c-1.716,-0.08 -3.402,0.488 -4.72,1.59c-1.128,0.885 -1.794,2.236 -1.81,3.67c0,1.573 0.742,3.056 2,4c1.3,1.14 3.79,2.43 7.47,3.89c5.533,2.187 8.913,4.323 10.14,6.41c1.152,1.823 1.791,3.924 1.85,6.08c0.072,2.855 -1.185,5.587 -3.4,7.39c-2.433,1.967 -5.493,2.996 -8.62,2.9c-3.666,0.003 -7.191,-1.434 -9.81,-4c-1.012,1.043 -1.763,2.311 -2.19,3.7l-1.9,0Z" style="fill:rgb(64,64,64);fill-rule:nonzero;"/>        <path d="M257,59.6l-2.72,0c-2.652,-0.036 -4.814,-2.227 -4.814,-4.88c0,-0.772 0.183,-1.533 0.534,-2.22c0.029,-0.062 0.063,-0.122 0.1,-0.18l14.1,-24.23c0.612,-1.032 1.726,-1.667 2.925,-1.667c1.199,0 2.313,0.635 2.925,1.667l15.44,25.91c0.312,0.525 0.476,1.125 0.476,1.735c0,1.2 -0.634,2.313 -1.666,2.925c-0.889,0.512 -1.878,0.826 -2.9,0.92l-24.4,0l0,0.02Z" style="fill:rgb(255,147,59);fill-rule:nonzero;"/>        <path d="M282.58,59.13c-1.197,0.004 -2.311,-0.629 -2.92,-1.66l-15.44,-25.93c-0.314,-0.526 -0.481,-1.127 -0.481,-1.74c0,-1.86 1.531,-3.39 3.39,-3.39l30.401,0c1.867,0.005 3.4,1.543 3.4,3.41c0,0.013 0,0.027 0,0.04c-0.02,1.215 -0.347,2.405 -0.95,3.46l-1.42,2.48l-11.75,20.35l-0.05,0.08c-0.61,1.002 -1.458,1.837 -2.47,2.43c-0.517,0.308 -1.108,0.47 -1.71,0.47Z" style="fill:rgb(230,32,88);fill-rule:nonzero;"/>        <path d="M267.13,33.19c0,0 0,0 -0.001,0c-1.859,0 -3.39,-1.53 -3.39,-3.39c0,-0.613 0.167,-1.214 0.481,-1.74l15.45,-25.95c0.951,-1.594 3.043,-2.126 4.64,-1.18c0.95,0.563 1.755,1.34 2.35,2.27l0.09,0.15l13.38,23.18c0.059,0.104 0.113,0.21 0.16,0.32c0.432,0.94 0.651,1.965 0.64,3c-0.038,1.839 -1.561,3.33 -3.4,3.33l-30.4,0.01Z" style="fill:rgb(212,17,83);fill-rule:nonzero;"/>        <path d="M267.13,33.19c-1.201,0 -2.316,-0.642 -2.92,-1.68l-14.11,-24.2c-0.431,-0.744 -0.658,-1.588 -0.658,-2.447c0,-2.522 1.955,-4.65 4.468,-4.863l27.28,0c0.146,-0.01 0.294,-0.01 0.44,0c0.955,0.112 1.877,0.419 2.71,0.9c1.027,0.61 1.658,1.72 1.658,2.914c0,0.611 -0.165,1.211 -0.478,1.736l-15.44,26c-0.623,1.029 -1.747,1.654 -2.95,1.64Z" style="fill:rgb(169,24,83);fill-rule:nonzero;"/>    </g></svg>