<?xml version="1.0" encoding="UTF-8" standalone="no"?><!DOCTYPE svg PUBLIC "-//W3C//DTD SVG 1.1//EN" "http://www.w3.org/Graphics/SVG/1.1/DTD/svg11.dtd"><svg width="100%" height="100%" viewBox="0 0 1024 512" version="1.1" xmlns="http://www.w3.org/2000/svg" xmlns:xlink="http://www.w3.org/1999/xlink" xml:space="preserve" style="fill-rule:evenodd;clip-rule:evenodd;stroke-linejoin:round;stroke-miterlimit:2;"><title>Finnest</title><desc>Thousands of private investors from Germany, Austria, Switzerland and Slovakia have already registered with Finnest. At Finnest you can do what professional investors have been doing for decades: invest seriously in established medium-sized companies. Simple and with maximum interest.Private investors appreciate our platform, that they can invest in successful companies with history. They prefer to invest their money cautiously and in the traditional values of domestic companies with good credit ratings.</desc>    <g id="Finnest" transform="matrix(0.421836,0,0,0.421836,2,148.432)">        <g transform="matrix(8.47232,0,0,8.47176,0,0)">            <path d="M285.4,31l-5.4,0l0,-8.1l-8.8,0l0,8.1l-4.4,0l0,5.7l4.4,0l0,11.9c0,7.3 1.9,9.4 9.4,9.4c1.6,0 3.2,-0.2 4.8,-0.3l0,-6.4c-0.8,0 -1.5,0.1 -2.3,0.1c-1.9,0 -3.1,-0.5 -3.1,-2.6l0,-12.1l5.4,0l0,-5.7Zm-47.2,17.9c0.3,7.5 6.7,9.6 13.1,9.6c6,0 12.8,-2.4 12.8,-9.5c0,-2.2 -1.4,-6.1 -6.8,-7.2c-4,-0.9 -9.9,-1.3 -9.9,-3.9c0,-1.9 2.3,-2 3.8,-2c1.1,0 2.1,0.2 2.8,0.7c0.7,0.5 1.1,1.2 1.1,2.3l8.1,0c-0.3,-7 -6.4,-8.7 -12.3,-8.7c-5.3,0 -12.2,1.8 -12.2,8.2c0,7.2 6.9,7.4 12.4,8.8c1.5,0.4 4.3,0.8 4.3,2.8c0,2.1 -2.4,2.8 -4.1,2.8c-1.2,0 -2.4,-0.3 -3.2,-0.9c-0.9,-0.7 -1.4,-1.6 -1.4,-3l-8.5,0Zm-4.1,-2.4c0.4,-9.1 -4.4,-16.3 -14,-16.3c-7.9,0 -14.4,5.9 -14.4,14.1c0,9 5.9,14.2 14.6,14.2c6,0 11.7,-2.7 13.3,-8.9l-8.2,0c-0.8,2 -2.9,2.9 -5,2.9c-3.7,0 -5.8,-2.4 -6,-6.1l19.7,0l0,0.1Zm-19.7,-4.9c0.5,-3.2 2.6,-5.5 5.7,-5.5c2.9,0 5,2.5 5.2,5.5l-10.9,0Zm-40,16.2l8.8,0l0,-14.6c0,-2.9 1.4,-5.7 4.7,-5.7c4.8,0 4.4,3.7 4.4,7.4l0,12.9l8.8,0l0,-17.2c0,-3.9 -0.7,-10.4 -9.6,-10.4c-3.2,0 -6.8,1.7 -8.4,4.4l-0.1,0l0,-3.6l-8.5,0l0,26.8l-0.1,0Zm-32.6,0l8.8,0l0,-14.6c0,-2.9 1.4,-5.7 4.7,-5.7c4.8,0 4.4,3.7 4.4,7.4l0,12.9l8.8,0l0,-17.2c0,-3.9 -0.7,-10.4 -9.6,-10.4c-3.2,0 -6.8,1.7 -8.4,4.4l-0.1,0l0,-3.6l-8.5,0l0,26.8l-0.1,0Zm-5.9,-36.8l-8.8,0l0,6.7l8.8,0l0,-6.7Zm-8.7,36.8l8.8,0l0,-26.8l-8.8,0l0,26.8Zm-32,0l9.6,0l0,-14.2l15.1,0l0,-7.4l-15.1,0l0,-7.5l16.7,0l0,-7.7l-26.3,0l0,36.8Z" style="fill:rgb(27,23,27);fill-rule:nonzero;"/>        </g>        <g transform="matrix(8.47232,0,0,8.47176,0,0)">            <path d="M40.2,0l-40.2,40.2l20,20l20.2,-20.3l20.3,20.3l20,-19.9l-40.3,-40.3Z" style="fill:rgb(27,185,232);fill-rule:nonzero;"/>        </g>    </g></svg>