<?xml version="1.0" encoding="UTF-8" standalone="no"?><!DOCTYPE svg PUBLIC "-//W3C//DTD SVG 1.1//EN" "http://www.w3.org/Graphics/SVG/1.1/DTD/svg11.dtd"><svg width="100%" height="100%" viewBox="0 0 1024 512" version="1.1" xmlns="http://www.w3.org/2000/svg" xmlns:xlink="http://www.w3.org/1999/xlink" xml:space="preserve" style="fill-rule:evenodd;clip-rule:evenodd;stroke-linejoin:round;stroke-miterlimit:2;"><title>PolyReg</title><desc>PolyReg is a self-regulatory body recognised by the Swiss Federal Money Laundering Control Authority. It is established according to Article 24 of the Swiss Money laundering act (MLA) and acts as regulatory and supervising Organisation for its members.PolyReg is incorporated as an association and is listed in the register of commerce of the Canton of Zurich. Being independent from all trade organisations PolyReg accepts financial intermediaries from all fields of business.</desc>    <g transform="matrix(1.37933,0,0,1.37933,-1660.49,-224.566)">        <g transform="matrix(0.528191,-1.69449e-17,1.69506e-17,-0.66678,250.198,-3821.07)">            <path d="M3093.53,-6452.04l0,83.66l104.226,0l0,72.485l10.518,0l0,-80.817l-104.226,0l0,-83.66l-122.287,0l0,83.66l-1173.53,0l0,8.332l1184.05,0l0,-83.66l101.251,0Z" style="fill:rgb(167,169,172);"/>        </g>        <g transform="matrix(0.666667,0,0,0.666667,0,-4037.11)">            <path d="M1843.66,6530.88c12.95,0 24.58,-1.22 34.88,-8.34c8.72,-6.09 12.95,-14.03 12.95,-22.97c0,-9.56 -5.03,-19.11 -15.06,-24.81c-10.04,-5.89 -22.73,-6.09 -34.88,-6.09l-20.87,0l0,62.21l22.98,0Zm-22.98,81.93l-12.68,0l0,-153.29l35.14,0c15.59,0 30.65,0.81 43.06,8.94c12.16,7.93 17.97,19.52 17.97,31.52c0,10.98 -5.55,23.18 -16.65,30.29c-12.15,8.13 -28.79,9.76 -44.38,9.76l-22.46,0l0,72.78" style="fill:rgb(35,31,32);fill-rule:nonzero;"/>        </g>        <g transform="matrix(0.666667,0,0,0.666667,0,-4037.11)">            <path d="M1935.27,6536.17c0,37.81 40.95,69.53 90.62,69.53c49.41,0 90.63,-31.92 90.63,-69.53c0,-37.82 -41.22,-69.54 -90.63,-69.54c-49.67,0 -90.62,31.72 -90.62,69.54Zm193.93,0c0,43.1 -47.3,78.68 -103.31,78.68c-56.01,0 -103.3,-35.58 -103.3,-78.68c0,-43.11 47.03,-78.69 103.3,-78.69c56.01,0 103.31,35.58 103.31,78.69" style="fill:rgb(35,31,32);fill-rule:nonzero;"/>        </g>        <g transform="matrix(0.666667,0,0,0.666667,0,-4037.11)">            <path d="M2170.92,6603.66l50.73,0l0,9.15l-63.41,0l0,-153.29l12.68,0l0,144.14" style="fill:rgb(35,31,32);fill-rule:nonzero;"/>        </g>        <g transform="matrix(0.666667,0,0,0.666667,0,-4037.11)">            <path d="M2213.75,6459.52l14,0l58.66,77.66l58.65,-77.66l14,0l-66.31,87.83l0,65.46l-12.68,0l0,-65.46l-66.32,-87.83" style="fill:rgb(35,31,32);fill-rule:nonzero;"/>        </g>        <g transform="matrix(0.666667,0,0,0.666667,-155.853,-4037.18)">            <path d="M2749.06,6468.73l0,64.64l80.31,0l0,9.15l-80.31,0l0,61.19l82.42,0l0,9.16l-95.07,0l0,-153.3l95.07,0l0,9.16l-82.42,0" style="fill:rgb(35,31,32);fill-rule:nonzero;"/>        </g>        <path d="M1828.39,326.267l0,-6.851c0,0 56.592,0.158 56.592,0.158c0.022,16.426 -3.298,27.426 -10.407,35.153c-19.571,21.273 -50.329,23.955 -75.686,17.305c-19.983,-5.24 -42.073,-22.37 -46.77,-41.03c-3.679,-14.614 3.706,-34.203 14.98,-44.022c14.866,-12.946 28.969,-18.663 48.839,-18.782c7.956,-0.016 22.066,-0.198 39.185,7.023c17.184,7.249 18.733,12.255 24.881,16.779l-7.429,5c-7.571,-9 -17.824,-14.736 -28.571,-18.039c-17.039,-5.237 -38.06,-3.65 -51.231,1c-22.769,8.039 -35.986,30.893 -32.141,49.442c3.511,16.937 25.66,29.613 42.633,34.791c21.822,6.657 52.551,1.203 65.544,-17.719c3.229,-4.702 5.586,-9.74 6.159,-19.674c-4.964,0.199 -46.578,-0.534 -46.578,-0.534Z" style="fill:rgb(35,31,32);"/>        <g transform="matrix(0.666667,0,0,0.666667,-0.56,-4165.75)">            <path d="M2414.62,6805.72l-13.78,0l0,-155.74l13.86,0c0,0 -0.213,11.114 1.8,9.603c3.676,-2.773 74.353,-68.972 159,-88.5c90.837,-20.955 200.769,6.365 258.47,56.657l11.31,12.94c-119.78,-60.597 -157.694,-67.004 -220.28,-62.097c-130.864,10.262 -210.77,100.737 -210.77,100.737" style="fill:rgb(238,34,44);fill-rule:nonzero;"/>        </g>    </g></svg>