<?xml version="1.0" encoding="UTF-8" standalone="no"?><!DOCTYPE svg PUBLIC "-//W3C//DTD SVG 1.1//EN" "http://www.w3.org/Graphics/SVG/1.1/DTD/svg11.dtd"><svg width="100%" height="100%" viewBox="0 0 1024 512" version="1.1" xmlns="http://www.w3.org/2000/svg" xmlns:xlink="http://www.w3.org/1999/xlink" xml:space="preserve" style="fill-rule:evenodd;clip-rule:evenodd;stroke-linejoin:round;stroke-miterlimit:2;"><title>Socilen</title><desc>Participatory financing or crowdlending platform authorized by the CNMV with registration number 9, which connects individuals and companies with investors willing to finance them, thus opening an alternative way to traditional financing.</desc>    <g id="layer102" transform="matrix(0.782809,0,0,0.782809,-106.81,131.865)">        <path d="M282.8,271.6c-3,-2.8 -12.8,-11.8 -21.6,-19.9l-16,-14.9l3.5,-5.5c13.7,-21.5 12.6,-50.1 -2.9,-69.6c-2.1,-2.7 -5.1,-5.9 -6.6,-7.1c-1.5,-1.1 -3.3,-2.6 -4.1,-3.4c-1.8,-1.7 -11.6,-6.6 -16.4,-8.2c-2.9,-0.9 -3.7,-1.6 -3.2,-2.9c0.4,-0.9 1.3,-4.1 2.1,-7.1c0.8,-3 2.8,-9.6 4.5,-14.6l3,-9.2l6.2,1.4c9.3,2.2 12.4,3.3 21.7,7.7c42.5,20.3 63.8,65.1 54.5,114.3c-0.9,4.4 -2.3,10.2 -3.2,12.9c-2.5,7.6 -9.6,22.6 -12.9,27.2l-3,4l-5.6,-5.1Z" style="fill:rgb(16,52,108);fill-rule:nonzero;"/>        <path d="M465,220.4c-1.4,-0.2 -5.9,-0.9 -10,-1.5c-27.3,-3.8 -46,-17.1 -51.3,-36.4c-0.9,-3.3 -1.9,-8.6 -2.3,-11.7l-0.7,-5.8l34,0l0.7,5.8c0.8,7.4 4.4,14.9 8.8,18.8c7.5,6.6 25.1,10 46.3,9.1c20,-0.9 31.3,-4.7 34.2,-11.4c4.1,-9.9 -7.7,-15.2 -41.7,-18.8c-35.3,-3.7 -42.9,-5.2 -54.8,-10.6c-8.6,-3.9 -13.3,-7.8 -16.7,-14.1c-4,-7.2 -4.2,-16.9 -0.5,-24.2c5.8,-11.3 20.4,-19.6 42.9,-24.1c6.8,-1.4 12.3,-1.6 30.4,-1.3c19.8,0.5 23.2,0.8 31.7,3.1c15,4 22.2,7.7 30,15.5c7.8,7.8 10.9,14.6 11.8,25.5l0.5,6.7l-17,0l-17,0l-0.6,-5.4c-1.6,-15.8 -11.8,-22.2 -36.9,-23.3c-20.6,-0.9 -35.7,2.5 -41.7,9.3c-3.6,4.1 -3.8,6.2 -1,9.7c3.6,4.7 18.7,7.8 61.3,12.6c26.9,3.1 45.9,11.9 51.4,24c5,10.9 2.3,24.3 -6.5,32.1c-7.6,6.6 -20,11.9 -34.1,14.6c-8.3,1.5 -45.2,2.9 -51.2,1.8Z" style="fill:rgb(16,52,108);fill-rule:nonzero;"/>        <path d="M659,220.4c-1.9,-0.2 -8.4,-0.9 -14.5,-1.5c-34.5,-3.6 -61.6,-22.1 -68.9,-46.8c-2,-6.8 -2.1,-21.7 -0.2,-28.8c6.2,-23.4 32.2,-42 66.5,-47.7c12.5,-2.1 41.3,-2.1 54,-0.1c13.9,2.3 29.4,7.8 39,13.8c20.1,12.6 30.1,30.1 28.8,50.7c-0.9,14.7 -5.4,24.8 -15.7,35.1c-3.8,3.8 -16.2,12.9 -17.5,12.9c-0.3,0 -2.8,1.1 -5.7,2.4c-8.9,4.1 -17.8,6.6 -28.3,8.1c-10.6,1.5 -31.7,2.6 -37.5,1.9Zm27.5,-22.9c20.1,-3.5 34.8,-12.7 40.9,-25.4c2.7,-5.8 3.1,-7.6 3.1,-15.1c0,-7.6 -0.4,-9.3 -3.3,-15.2c-5.4,-11 -16,-18.8 -30.7,-22.8c-11.4,-3.1 -35.9,-3.9 -47.5,-1.6c-11.7,2.4 -16.6,4.2 -23.5,8.6c-6.1,4 -12,10.2 -14.7,15.5c-0.9,1.7 -2.1,6 -2.7,9.7c-2.1,12.1 1.8,23.8 10.6,31.9c13.7,12.8 42.1,18.8 67.8,14.4Z" style="fill:rgb(16,52,108);fill-rule:nonzero;"/>        <path d="M854.5,220.4c-25.8,-2 -44.6,-7.7 -59,-17.9c-16.2,-11.6 -23.5,-25.1 -23.5,-43.4c0.1,-31.3 22.6,-53.4 64,-62.6c11.2,-2.5 45.7,-3.2 57.5,-1.1c26.3,4.5 44.9,15.8 53.8,32.4c2,3.9 3.7,7.7 3.7,8.4c-0.1,1 -18.9,8 -28.6,10.6c-0.6,0.2 -2.3,-2.2 -3.8,-5.3c-9.3,-18.8 -22.3,-25.5 -50.1,-25.5c-30.2,0 -50.3,8.9 -58.9,26c-4.1,8.3 -5.3,15.9 -3.7,23.8c3.9,19.6 23.6,31.4 54.6,32.9c18.4,0.8 38.2,-3.4 47.1,-10.2c4.3,-3.3 11.2,-13.8 12.5,-19.1c0.6,-2.4 1.6,-4.4 2.1,-4.4c1,0 31.1,9 31.5,9.4c0.7,0.6 -8.4,16.5 -11.5,20.3c-7.3,8.8 -21.6,17.3 -35.7,21.2c-11,3.1 -39,5.5 -52,4.5Z" style="fill:rgb(16,52,108);fill-rule:nonzero;"/>        <path d="M971,155l0,-63l33,0l0,126l-16.5,0l-16.5,0l0,-63Z" style="fill:rgb(16,52,108);fill-rule:nonzero;"/>        <path d="M186.7,135.8c-6,-1.3 -18.6,-6.8 -24.7,-10.7c-7.5,-4.9 -13,-10.6 -17.3,-17.9c-4.6,-7.9 -5.7,-11.9 -5.7,-21.8c0,-9.5 2.1,-16.5 7.7,-25.7c4.8,-8.1 16.8,-20.1 19.1,-19.2c2.7,1 19.2,10.9 19.2,11.5c0,0.3 -1.7,2.3 -3.6,4.5c-6,6.6 -8.4,12.4 -8.4,20.3c0,5.8 0.4,7.5 2.8,11.3c5,7.8 11.7,12.7 21.4,15.6c4,1.1 4.8,1.8 4.3,3.1c-0.4,0.9 -1.1,2.9 -1.5,4.4c-0.5,1.4 -2.6,7.3 -4.8,13c-2.2,5.7 -4.2,10.8 -4.4,11.4c-0.2,0.7 -1.6,0.7 -4.1,0.2Z" style="fill:rgb(16,52,108);fill-rule:nonzero;"/>        <path d="M979.5,83.5c-2.2,-0.8 -5,-2.7 -6.2,-4.2c-2.1,-2.5 -2.3,-3.9 -2.3,-13.4c0,-10.2 0.1,-10.6 2.8,-13.1c3.5,-3.4 7.2,-4.8 12.7,-4.8c5.2,0 8.7,1.2 13.8,4.7l3.7,2.6l0,21.5l-3.6,2.7c-3.7,2.8 -11.1,5.5 -14.8,5.5c-1.2,-0.1 -3.9,-0.7 -6.1,-1.5Z" style="fill:rgb(16,52,108);fill-rule:nonzero;"/>        <g transform="matrix(1.04428,-0.282813,0.29254,1.0802,-61.1376,56.855)">            <ellipse cx="195.5" cy="182" rx="38.5" ry="34" style="fill:rgb(195,40,39);"/>        </g>        <g transform="matrix(0.771512,-0.146396,0.113775,0.599595,47.7549,-11.2558)">            <ellipse cx="195.5" cy="182" rx="38.5" ry="34" style="fill:rgb(16,52,108);"/>        </g>        <path d="M1158,220.4c-34.8,-2.6 -57.8,-12.7 -70.2,-30.9c-7.4,-10.8 -8.3,-14.4 -8.3,-32c0.1,-13.1 0.4,-15.6 2.2,-19.7c9.1,-19.8 27.3,-33.1 55.2,-40.5c8.4,-2.2 12.3,-2.6 30.2,-3c24.2,-0.6 34.9,0.7 51.9,6.3c24.2,7.9 39.8,22 44.5,39.9c0.9,3.5 1.5,10.2 1.5,16.2l0,10.3l-76,0c-86.1,0 -78,-0.9 -73.6,8.5c6.4,13.9 23.1,21.8 48.6,23.2c28.9,1.5 51.2,-6.5 62.1,-22.4l3,-4.3l16.9,0c9.4,0 17,0.2 17,0.5c0,3.3 -16.5,27.5 -18.8,27.5c-0.4,0 -2.3,1.4 -4.2,3c-7.6,6.6 -25.1,13.2 -41.1,15.4c-11.4,1.6 -32.2,2.6 -40.9,2Zm70,-78c-1.8,-4.7 -7.3,-11.4 -12.1,-14.9c-12.2,-8.7 -21.4,-11 -44.4,-11c-14.9,0 -18.1,0.3 -25.9,2.4c-9.9,2.7 -18.9,8 -24.9,14.5c-3.1,3.3 -6.7,9.4 -6.7,11.2c0,0.2 25.9,0.4 57.5,0.4l57.5,0l-1,-2.6Z" style="fill:rgb(16,52,108);fill-rule:nonzero;"/>        <path d="M1030,134l0,-84l33,0l0,168l-16.5,0l-16.5,0l0,-84Z" style="fill:rgb(16,52,108);fill-rule:nonzero;"/>        <path d="M1279,157l0,-61l33,0l0,7.9l9.6,-3.5c15.2,-5.5 24.6,-6.7 47.9,-6.1c17.3,0.4 21.3,0.8 29.7,3c21.5,5.7 36.1,15.7 40.6,28c2.1,5.6 2.2,7.2 2.2,49.2l0,43.5l-16.5,0l-16.5,0l0,-41.2c0,-39.8 -0.1,-41.3 -2.1,-45.5c-3.3,-6.8 -9.1,-10.6 -20.3,-13.3c-16.3,-3.9 -43.6,-1.9 -54.7,4.1c-10.3,5.5 -17.3,14.5 -18.9,24.5c-0.6,3.2 -1,20.6 -1,38.7l0,32.7l-16.5,0l-16.5,0l0,-61Z" style="fill:rgb(16,52,108);fill-rule:nonzero;"/>    </g></svg>