<?xml version="1.0" encoding="UTF-8" standalone="no"?><!DOCTYPE svg PUBLIC "-//W3C//DTD SVG 1.1//EN" "http://www.w3.org/Graphics/SVG/1.1/DTD/svg11.dtd"><svg width="100%" height="100%" viewBox="0 0 1024 512" version="1.1" xmlns="http://www.w3.org/2000/svg" xmlns:xlink="http://www.w3.org/1999/xlink" xml:space="preserve" style="fill-rule:evenodd;clip-rule:evenodd;stroke-linejoin:round;stroke-miterlimit:2;"><title>Moneyfarm</title><desc>Moneyfarm launched in 2012 to bring together the worlds of technology and finance to deliver an investment service that protects and increases an individual’s wealth over time. Moneyfarm now has three offices in London, Milan and Cagliari and all share a passion for providing a better investment experience.</desc>    <g transform="matrix(5.10224,0,0,5.10224,1.9986,164.342)">        <g id="Group-2" transform="matrix(1,0,0,1,52.2936,5.9633)">            <path id="Fill-1" d="M97.168,6.878l-4.732,0l0,-1.166l0.01,0c0,-0.926 0.75,-1.677 1.677,-1.677c0.251,0 0.488,0.06 0.701,0.159l1.427,-3.2c-0.65,-0.293 -1.37,-0.461 -2.128,-0.461c-2.861,0 -5.18,2.319 -5.18,5.179l0.004,0l0,1.166l-0.004,0l0.004,2.857l0,10.469l3.489,0l0,-10.469l3.244,0l1.488,-2.857Z" style="fill:rgb(38,47,58);"/>            <path id="Fill-3" d="M104.648,17.339c-2.093,0 -3.789,-1.696 -3.789,-3.789c0,-2.092 1.696,-3.789 3.789,-3.789c2.092,0 3.789,1.697 3.789,3.789c0,2.093 -1.697,3.789 -3.789,3.789Zm3.789,-9.695c-1.094,-0.703 -2.392,-1.116 -3.789,-1.116c-3.878,0 -7.022,3.144 -7.022,7.022c0,3.878 3.144,7.022 7.022,7.022c1.397,0 2.695,-0.413 3.789,-1.116l0,0.77l3.49,0l0,-13.352l-3.49,0l0,0.77Z" style="fill:rgb(38,47,58);"/>            <path id="Fill-5" d="M17.234,6.528c-1.971,0 -3.685,1.095 -4.568,2.71c-0.001,0.001 -0.002,0.003 -0.003,0.004c-0.883,-1.617 -2.596,-2.714 -4.569,-2.714c-1.575,0 -2.979,0.707 -3.934,1.814l0,-0.008l0,-1.46l-3.489,0l0,13.352l3.489,0l0,-5.093l0,-2.534l0,-0.912c0,0.001 0.001,0.003 0.001,0.003l0.002,0l0,0.813c0.051,-1.516 1.293,-2.73 2.821,-2.73c1.562,0 2.827,1.265 2.827,2.826l0,7.627l3.491,0l0,-5.088l0,-2.443l0,-0.192c0.051,-1.516 1.293,-2.73 2.822,-2.73c1.56,0 2.825,1.265 2.825,2.826l0,7.627l3.49,0l0,-8.492c0,-0.015 -0.003,-0.029 -0.003,-0.044c-0.023,-2.855 -2.342,-5.162 -5.202,-5.162" style="fill:rgb(38,47,58);"/>            <path id="Fill-7" d="M147.617,11.691c-0.023,-2.855 -2.343,-5.163 -5.203,-5.163c-1.97,0 -3.684,1.096 -4.568,2.71c-0.001,0.001 -0.001,0.003 -0.002,0.004c-0.883,-1.616 -2.598,-2.714 -4.569,-2.714c-1.576,0 -2.98,0.708 -3.934,1.814l0,-0.008l0,-1.46l-3.489,0l0,13.352l3.489,0l0,-5.093l0,-2.534l0,-0.912l0,0.004l0.003,-0.001l0,0.813c0.05,-1.516 1.292,-2.73 2.821,-2.73c1.56,0 2.825,1.265 2.825,2.826l0,7.627l3.492,0l0,-5.088l0,-2.443l0,-0.192c0.052,-1.516 1.294,-2.73 2.822,-2.73c1.561,0 2.826,1.265 2.826,2.826l0,7.627l3.489,0l0,-8.492c0,-0.015 -0.002,-0.029 -0.002,-0.043" style="fill:rgb(38,47,58);"/>            <path id="Fill-9" d="M54.317,11.489c-0.005,-0.125 -0.012,-0.249 -0.026,-0.371c-0.011,-0.096 -0.029,-0.19 -0.045,-0.284c-0.017,-0.096 -0.035,-0.193 -0.057,-0.287c-0.022,-0.097 -0.048,-0.193 -0.076,-0.288c-0.026,-0.088 -0.055,-0.176 -0.086,-0.262c-0.034,-0.093 -0.066,-0.187 -0.104,-0.279c-0.037,-0.088 -0.08,-0.172 -0.121,-0.257c-0.036,-0.075 -0.066,-0.152 -0.105,-0.223c-0.001,0.001 -0.002,0.002 -0.002,0.004c-0.883,-1.616 -2.597,-2.714 -4.57,-2.714c-1.575,0 -2.978,0.708 -3.933,1.814l0,-0.008l0,-1.46l-3.49,0l0,13.352l3.49,0l0,-5.093l0,-2.534l0,-0.913l0,0.005l0.002,-0.001l0,0.813c0.052,-1.516 1.293,-2.73 2.821,-2.73c1.562,0 2.827,1.266 2.827,2.826l0,7.627l3.492,0l0,-5.088l0,-2.443l0,-0.192l0,-0.77l0,-0.043l-0.003,0.001c0,-0.069 -0.011,-0.134 -0.014,-0.202" style="fill:rgb(38,47,58);"/>            <path id="Fill-11" d="M32.071,17.339c-2.093,0 -3.789,-1.696 -3.789,-3.789c0,-2.092 1.696,-3.789 3.789,-3.789c2.092,0 3.789,1.697 3.789,3.789c0,2.093 -1.697,3.789 -3.789,3.789m0,-10.811c-3.878,0 -7.022,3.144 -7.022,7.022c0,3.878 3.144,7.022 7.022,7.022c3.878,0 7.022,-3.144 7.022,-7.022c0,-3.878 -3.144,-7.022 -7.022,-7.022" style="fill:rgb(38,47,58);"/>            <path id="Fill-13" d="M60.37,12.38c0.494,-1.519 1.919,-2.619 3.603,-2.619c1.684,0 3.11,1.1 3.604,2.619l-7.207,0Zm3.603,-5.852c-3.878,0 -7.022,3.144 -7.022,7.022c0,3.878 3.144,7.022 7.022,7.022c2.887,0 5.364,-1.743 6.443,-4.232l-3.339,-0.621c-0.685,0.979 -1.819,1.62 -3.104,1.62c-1.684,0 -3.109,-1.099 -3.603,-2.619l10.52,0c0.064,-0.381 0.105,-0.77 0.105,-1.17c0,-0.399 -0.041,-0.788 -0.105,-1.17c-0.558,-3.32 -3.438,-5.852 -6.917,-5.852Z" style="fill:rgb(38,47,58);"/>            <path id="Fill-15" d="M79.218,15.537l-3.86,-8.662l-3.729,0l5.725,12.845l-2.123,4.763l3.728,0l0.259,-0.581l1.864,-4.182l5.725,-12.845l-3.728,0l-3.861,8.662Z" style="fill:rgb(38,47,58);"/>            <path id="Fill-17" d="M121.529,6.9c-1.433,0 -2.847,0.87 -3.463,2.11l0,-2.136l-0.904,0l-2.585,0l0,13.352l3.489,0l0,-6.565c0.096,-1.832 1.607,-3.29 3.463,-3.29l2.254,0l0,-3.471l-2.254,0Z" style="fill:rgb(38,47,58);"/>        </g>        <g id="Group-3">            <path id="Fill-19" d="M41.29,5.852c-0.911,0 -1.651,0.74 -1.651,1.652c0,0.201 0.041,0.392 0.107,0.57l-5.247,5.052l-0.422,0.407l-7.02,6.76c-0.194,-0.081 -0.408,-0.126 -0.632,-0.126c-0.284,0 -0.549,0.079 -0.782,0.205l-7.531,-5.857c0.032,-0.13 0.055,-0.264 0.055,-0.405c0,-0.911 -0.739,-1.652 -1.652,-1.652c-0.91,0 -1.651,0.741 -1.651,1.652c0,0.202 0.042,0.391 0.108,0.57l-12.689,12.22c-0.195,-0.082 -0.408,-0.127 -0.632,-0.127c-0.911,0 -1.651,0.74 -1.651,1.651c0,0.912 0.74,1.653 1.651,1.653c0.913,0 1.652,-0.741 1.652,-1.653c0,-0.201 -0.041,-0.391 -0.107,-0.569l2.13,-2.052l3.538,-3.407l7.021,-6.76c0.194,0.081 0.407,0.126 0.63,0.126c0.285,0 0.549,-0.078 0.783,-0.205l7.532,5.856c-0.033,0.131 -0.056,0.265 -0.056,0.404c0,0.914 0.74,1.652 1.651,1.652c0.913,0 1.651,-0.738 1.651,-1.652c0,-0.2 -0.04,-0.39 -0.106,-0.568l12.689,-12.219c0.194,0.081 0.407,0.126 0.631,0.126c0.914,0 1.652,-0.739 1.652,-1.652c0,-0.912 -0.738,-1.652 -1.652,-1.652" style="fill:rgb(38,47,58);"/>            <path id="Fill-21" d="M34.81,17.21c0.014,0.251 0.038,0.5 0.038,0.754c0,7.376 -6,13.377 -13.377,13.377c-5.127,0 -9.583,-2.902 -11.828,-7.147l-3.397,3.272c3.174,5.075 8.797,8.462 15.225,8.462c9.921,0 17.965,-8.042 17.965,-17.964c0,-1.597 -0.23,-3.138 -0.621,-4.611l-4.005,3.857Z" style="fill:rgb(38,47,58);"/>            <path id="Fill-23" d="M8.132,18.72c-0.013,-0.252 -0.038,-0.5 -0.038,-0.755c0,-7.377 6.001,-13.377 13.377,-13.377c5.127,0 9.583,2.901 11.828,7.146l3.398,-3.271c-3.174,-5.075 -8.798,-8.463 -15.226,-8.463c-9.921,0 -17.964,8.043 -17.964,17.965c0,1.597 0.229,3.137 0.62,4.612l4.005,-3.857Z" style="fill:rgb(38,47,58);"/>        </g>    </g></svg>