<?xml version="1.0" encoding="UTF-8" standalone="no"?><!DOCTYPE svg PUBLIC "-//W3C//DTD SVG 1.1//EN" "http://www.w3.org/Graphics/SVG/1.1/DTD/svg11.dtd"><svg width="100%" height="100%" viewBox="0 0 1024 512" version="1.1" xmlns="http://www.w3.org/2000/svg" xmlns:xlink="http://www.w3.org/1999/xlink" xml:space="preserve" style="fill-rule:evenodd;clip-rule:evenodd;stroke-linejoin:round;stroke-miterlimit:2;"><title>Kviku</title><desc>Kviku - an online B2B / B2C credit platform providing instant credit solutions;Countries of presence - Russia, Kazakhstan, Spain. In 2019 plan - Poland, Vietnam, Philippines;Main products - new customers: POS and virtual credit cards, repeat customers: installment loans (cash loans).--Kviku is a point of sale loan provider with operations in Russia, Kazakhstan and Spain. The company offers loans from EUR 15 to EUR 1500 with a term of up to 12 months. Since incorporation the company has issued and serviced more than 400’000 loans, worth more than EUR 20 million. Kviku loan portfolio has grown to EUR 8.5 million while the revenue has exceeded EUR 13 million in 2018.</desc>    <g id="Kviku" transform="matrix(2.46253,0,0,2.54738,-113.339,157.338)">        <g transform="matrix(0.391871,0,0,0.391871,-0.382944,-88.8189)">            <g transform="matrix(1,0,0,1,0,-1.23007)">                <path d="M165.5,345.616l0,67.384c-0.249,9.334 -6.298,18.076 -14.867,21.166c-10.516,3.792 -23.481,-1.64 -28.122,-11.869c-0.991,-2.182 -1.629,-4.522 -1.884,-6.905c-0.113,-1.06 -0.099,-1.328 -0.127,-2.392l0,-163.514c0.028,-1.064 0.014,-1.332 0.127,-2.391c1.1,-10.283 10.045,-19.194 20.578,-20.037c2.314,-0.185 2.853,-0.039 3.59,0c1.058,0.113 1.327,0.121 2.374,0.318c9.398,1.772 17.168,10.033 18.204,19.719c0.113,1.059 0.099,1.327 0.127,2.391l0,64.456c0.573,-1.03 1.243,-2.027 2.014,-2.98c0.173,-0.213 0.353,-0.419 0.529,-0.629l65.967,-75.636c1.696,-1.874 2.063,-2.115 2.969,-2.834c3.436,-2.727 7.678,-4.414 12.046,-4.793c1.593,-0.138 1.958,-0.08 2.463,-0.078c13.796,0.572 25.003,15.091 21.11,28.688c-0.905,3.161 -2.55,6.069 -4.674,8.596l-56.615,64.913l68.901,68.901c6.304,6.544 8.281,16.728 4.713,24.908c-5.654,12.959 -24.711,17.902 -35.927,7.496c-0.206,-0.191 -0.404,-0.39 -0.606,-0.584l-79.3,-79.3c-1.445,-1.5 -2.642,-3.186 -3.59,-4.994Z" style="fill:rgb(65,122,189);"/>            </g>            <g transform="matrix(1,0,0,1,0,0.795864)">                <path d="M364.676,356.422l26.023,-66.234c0.342,-0.816 0.414,-1.026 0.809,-1.818c3.402,-6.817 10.419,-11.667 18.105,-12.362c1.925,-0.175 2.372,-0.084 2.984,-0.072c13.945,0.903 25.11,15.818 20.329,29.774c-0.108,0.313 -0.229,0.622 -0.344,0.934l-44.464,113.17c-3.511,8.387 -11.997,14.257 -20.902,14.272c-1.492,0.003 -2.96,-0.168 -4.388,-0.492c-8.227,-0.211 -16.459,-4.511 -20.184,-12.531c-0.14,-0.301 -0.266,-0.608 -0.399,-0.912l-46.282,-112.439c-5.139,-13.312 4.076,-30.121 19.487,-31.026c0.663,-0.039 1.327,-0.034 1.991,-0.029c3.057,0.16 3.562,0.348 4.919,0.696c6.109,1.567 11.463,5.815 14.377,11.425c0.408,0.785 0.483,0.995 0.838,1.805l27.101,65.839Z" style="fill:rgb(65,122,189);"/>            </g>            <g transform="matrix(0.685858,-1.11022e-16,1.11022e-16,0.74362,378.727,109.939)">                <path d="M146.515,213.261c1.343,0.086 1.683,0.086 3.017,0.258c14.484,1.864 26.763,13.528 28.134,27.176c0.124,1.237 0.109,1.55 0.14,2.791l0,163.514c-0.284,11.334 -7.371,22.12 -18.183,27.085c-15.326,7.039 -36.254,0.73 -43.989,-13.598c-1.577,-2.921 -2.636,-6.075 -3.125,-9.307c-0.209,-1.384 -0.28,-2.781 -0.315,-4.18l0,-163.514c0.031,-1.241 0.016,-1.554 0.14,-2.791c1.395,-13.878 14.301,-26.026 29.639,-27.337c2.93,-0.25 3.61,-0.117 4.542,-0.097Z" style="fill:rgb(223,153,40);"/>            </g>            <g transform="matrix(0.0789691,-1.82615e-18,1.2783e-17,0.0122314,466.726,226.698)">                <path d="M146.789,-1800.4c163.381,8.94 312.363,920.622 314.77,2020.79c0.94,716.422 -43.42,1432.78 -130.768,1841.53c-118.296,553.578 -296.855,479.653 -403.234,-169.404c-128.18,-782.078 -132.187,-2273.09 -7.674,-3086.11c58.286,-380.584 139.999,-602.247 223.328,-606.807c1.193,-0.022 2.385,-0.022 3.578,0Z" style="fill:rgb(223,153,40);"/>            </g>            <g transform="matrix(1,0,0,1,0,-1.38596)">                <path d="M774.243,387.698c2.221,-2.238 4.074,-11.676 4,-13.72c-0.009,-0.27 -0.009,-0.541 -0.014,-0.812l0,-74.35c0.212,-11.765 10.057,-22.279 22.094,-22.497c0.541,-0.009 1.083,0.01 1.624,0.03c11.205,0.81 20.86,10.376 21.267,21.655c0.01,0.27 0.01,0.541 0.015,0.812l0,54.475c0.899,2.611 0.238,12.728 0.178,13.975c-1.055,21.963 -8.342,42.252 -25.404,55.345c-27.869,21.387 -73.697,17.273 -96.697,-9.656c-12.276,-14.372 -16.467,-34.295 -16.546,-52.885c-0.014,-3.199 0.302,-61.254 0.302,-61.254c0.213,-11.765 10.058,-22.279 22.094,-22.497c0.542,-0.009 1.083,0.01 1.624,0.03c11.206,0.81 20.86,10.376 21.268,21.655c0.009,0.27 0.009,0.541 0.014,0.812l0,74.35c-0.035,1.967 3.575,13.8 7.699,16.486c6.757,4.401 15.423,5.021 23.197,3.975c4.861,-0.655 9.767,-2.386 13.285,-5.929Z" style="fill:rgb(65,122,189);"/>            </g>            <g transform="matrix(1,0,0,1,0,-0.616762)">                <path d="M575.518,361.773l0,51.227c-0.347,12.124 -10.961,22.839 -23.143,22.491c-10.683,-0.305 -20.479,-9.193 -21.711,-19.926c-0.13,-1.136 -0.114,-1.424 -0.146,-2.565l0,-185.184c0.032,-1.141 0.016,-1.429 0.146,-2.565c1.17,-10.193 10.017,-18.958 20.428,-19.853c2.476,-0.212 3.059,-0.045 3.851,0c1.134,0.131 1.423,0.139 2.543,0.366c9.216,1.867 16.792,9.958 17.885,19.487c0.13,1.136 0.114,1.424 0.147,2.565l0,103.478c0.485,-0.789 1.027,-1.551 1.626,-2.28c0.139,-0.168 0.282,-0.333 0.423,-0.499l41.559,-47.651c1.424,-1.585 1.892,-1.966 2.826,-2.72c4.074,-3.287 9.24,-5.011 14.561,-4.987c2.011,0.068 2.347,0.149 3.255,0.3c12.555,2.085 21.826,16.311 17.743,29.06c-0.666,2.078 -1.635,4.057 -2.869,5.857c-0.493,0.72 -1.038,1.403 -1.602,2.068l-32.042,36.738l40.223,51.596c6.754,8.965 5.797,22.732 -2.493,30.375c-8.905,8.211 -24.451,7.555 -32.53,-2.129c-0.158,-0.19 -0.311,-0.386 -0.467,-0.579l-48.952,-62.794c-0.456,-0.604 -0.876,-1.231 -1.261,-1.876Z" style="fill:rgb(65,122,189);"/>            </g>        </g>        <g transform="matrix(0.391871,0,0,0.391871,-0.382944,-88.8189)">            <path d="M906.48,472.014c-1.21,-0.453 -2.396,-0.868 -3.48,-1.214c-26.5,-9.1 -52.8,-27.9 -68.8,-49.3c-9.224,-12.265 -17.388,-30.885 -21.449,-48.5l-0.251,-1c-2.6,-11.5 -3.1,-43.3 -1.1,-58.5c5.6,-40.1 17.9,-73.9 35.1,-96.1l4.4,-5.6l-3.4,-4.4c-10.3,-13.4 -5.1,-31.3 11.5,-39.9c5.4,-2.9 15.1,-2.5 22.3,0.8c3.2,1.4 7.7,4 10,5.7l4.3,3.1l10.5,-3.5c13.6,-4.6 28,-6.9 38.6,-6.3c8,0.5 8.2,0.4 11,-2.5c8.7,-9.3 24.6,-8.8 32,0.9c3.8,5 4.3,13.1 1.3,19.6c-1.2,2.6 -2.6,5 -3.1,5.3c-0.5,0.3 3.5,5.5 8.7,11.7c15.1,17.7 23.4,33 23.4,43.2c0,6 -3.8,15.9 -9.1,23.5c-5,7.3 -7.4,14 -5,14c0.6,0 4,-1.4 7.4,-3.2c5,-2.5 7.5,-3.2 12.7,-3.2c8.8,-0.1 14.4,3.1 18.6,10.6c2.7,5 2.9,6 2.9,16.3c0,8.9 -0.5,12.3 -2.3,17.5c-2.8,7.9 -8.6,17.8 -14.8,25.4l-4.6,5.8l1.6,3.6c1.6,3.6 1.8,3.7 6.3,3.3c5.6,-0.4 14.3,1.4 19.8,4.1c5.4,2.7 12.8,8.3 25.7,19.5c14.1,12.1 17.2,13.7 25.6,12.9c8.4,-0.9 11.2,0.7 11.2,6.3c0,6.8 -9,21.3 -22.9,37.2c-5.467,6.163 -13.404,10.844 -18.6,10.9l-3.2,0l-0.6,7.3c-1.3,15.6 -7.2,25 -19,30.6c-12.1,5.6 -31.8,8 -53.7,6.4c-31.6,-2.2 -61.5,-8.9 -78.2,-17.4c-2.577,-1.325 -6.835,-3.193 -10.8,-4.689l-0.52,-0.197Z" style="fill:rgb(10,2,5);"/>            <path d="M1037,423.9c3.6,-0.5 7.6,-1.6 9,-2.2c2.3,-1.2 2.5,-1.8 2.4,-7.2c-0.1,-7.9 -1.7,-10.8 -12.6,-22.3c-11.6,-12.3 -17.7,-21 -24.4,-34.6c-3,-6 -5.6,-11.2 -5.9,-11.4c-0.2,-0.2 -1.8,2.5 -3.6,5.9c-9.9,19.8 -26.7,37.3 -46.9,49l-7.9,4.6l6.7,2.6c3.7,1.4 11,4.3 16.2,6.5c5.2,2.1 12.6,4.7 16.4,5.6c16.1,4.1 38,5.6 50.6,3.5Z" style="fill:white;"/>            <path d="M867.1,218c-6.705,0.004 -7.235,0.454 -15.1,12.5c-9.6,14.8 -19.1,37.7 -23.1,55.8l-1.2,5.8l3.9,4.1c13.9,14.5 33.9,26.2 51.9,30.4c9.2,2.1 24.4,1.3 32.7,-1.8c3.6,-1.4 10.2,-4.7 14.5,-7.4l7.8,-4.9l-7,-0.8c-13.3,-1.5 -21.6,-3.6 -29.3,-7.3c-12.5,-6 -22.8,-17.3 -24.8,-27.2c-1,-5 1.9,-4.1 6.4,2.1c6.2,8.4 12.2,13.5 20.2,17.5l7.4,3.7l14.1,0c12.7,0 15.1,-0.3 25.9,-3.3c6.6,-1.8 12.9,-3.8 14,-4.4c1.9,-1 1.8,-1.2 -1.7,-2.4c-2.1,-0.7 -5.2,-2.3 -6.8,-3.5c-4.9,-3.5 -2.4,-4.4 8,-2.9c9.7,1.4 20,1 24.2,-1c1.4,-0.6 3.3,-2.4 4.2,-4l1.7,-2.8l-5.4,-0.4c-6.9,-0.6 -10.6,-2.9 -10.6,-6.6c0,-6.2 10.9,-11.9 20.1,-10.7l4.6,0.6l1,-4l1.1,-4l-4.4,-2.2c-5.3,-2.5 -10.6,-8.4 -14.5,-16.1c-4,-7.9 -4.6,-12.7 -2.1,-15.8c2,-2.5 2.1,-2.5 6.6,-0.9l4.6,1.6l-2.9,-3.6c-1.6,-2 -9,-9.5 -16.3,-16.8c-15.2,-15 -19.8,-17.7 -31.3,-18.8c-13.3,-1.3 -33.8,3.3 -48.2,10.8c-6.4,3.3 -9.9,7.2 -20.2,22.5l-4.2,6.2l-5.8,0Z" style="fill:white;"/>            <g transform="matrix(0.462046,0,0,0.303763,412.611,338.371)">                <path d="M1028.88,337.2c0,-18.106 6.492,-44.442 15.15,-60.903c5.627,-10.863 5.41,-14.155 -0.433,-12.18c-9.956,2.963 -47.831,-5.926 -64.496,-14.814c-22.509,-12.181 -38.741,-27.324 -56.921,-53.002c-13.635,-19.423 -14.717,-20.411 -11.254,-9.876c13.635,40.492 42.204,92.506 66.876,121.476c12.337,14.485 46.316,46.418 49.346,46.418c0.866,0 1.732,-7.901 1.732,-17.119Z" style="fill:white;"/>            </g>            <path d="M931.5,265.7c-9.9,-3.9 -12,-10.9 -6.7,-22.2c5,-10.6 19.2,-23.5 25.7,-23.5c6.3,0 9.6,8.2 7.6,19.4c-2.1,12.7 -7.9,22.3 -15.6,25.7c-4.6,2.1 -6.8,2.2 -11,0.6Z" style="fill:rgb(10,2,5);fill-rule:nonzero;"/>        </g>        <g transform="matrix(0.391871,0,0,0.391871,-0.382944,-88.8189)">            <path d="M1108,233.9c-15.3,-11.4 -13,-10.8 -20.2,-5c-3.4,2.8 -6.5,5.1 -6.8,5.1c-0.3,0 -1.8,-6.1 -3.4,-13.5c-1.6,-7.5 -3.4,-14.2 -4,-14.9c-0.6,-0.7 -4.8,-4.1 -9.3,-7.5c-4.6,-3.4 -8.3,-6.5 -8.3,-6.9c0,-0.8 120.9,-35.6 121.5,-35c0.1,0.1 -2.5,4.2 -5.9,9c-3.3,4.7 -16.4,23.7 -29.1,42.2c-12.6,18.4 -23.4,33.5 -24,33.5c-0.5,0 -5.3,-3.2 -10.5,-7Z"/>            <path d="M1141.5,196.6c14.5,-18.2 26.3,-33.1 26.1,-33.3c-0.2,-0.3 -55.2,30.1 -74.8,41.3c-4.2,2.4 -8.4,4.4 -9.3,4.4c-1.3,0 -1.5,1.6 -1.4,9.8l0.1,9.7l2.1,-7.7c1.2,-4.3 2.4,-7.8 2.7,-7.8c0.3,0 6.1,3.8 13,8.5c6.9,4.6 13.1,8.3 13.8,8.2c0.7,-0.1 13.1,-15 27.7,-33.1Z" style="fill:white;"/>        </g>    </g></svg>