<?xml version="1.0" encoding="UTF-8" standalone="no"?><!DOCTYPE svg PUBLIC "-//W3C//DTD SVG 1.1//EN" "http://www.w3.org/Graphics/SVG/1.1/DTD/svg11.dtd"><svg width="100%" height="100%" viewBox="0 0 1024 512" version="1.1" xmlns="http://www.w3.org/2000/svg" xmlns:xlink="http://www.w3.org/1999/xlink" xml:space="preserve" style="fill-rule:evenodd;clip-rule:evenodd;stroke-linejoin:round;stroke-miterlimit:2;"><title>The Crowd Angel</title><desc>The Crowd Angel is the leading investment vehicle for early-stage startupsOur mission is to apply the risk capital methodology to equity crowdfunding. And allow private investors to participate in financing rounds of the best Spanish startups, investing from € 3,000.</desc>    <g transform="matrix(2.63695,0,0,2.63695,-120.36,-880.604)">        <g transform="matrix(2,0,0,2,65.5541,450.517)">            <path d="M0,-25.182c0,2.645 -2.144,4.788 -4.788,4.788c-2.645,0 -4.788,-2.143 -4.788,-4.788c0,-2.643 2.143,-4.788 4.788,-4.788c2.644,0 4.788,2.145 4.788,4.788m-4.788,7.803c-2.645,0 -4.788,2.143 -4.788,4.788c0,2.644 2.143,4.788 4.788,4.788c2.644,0 4.788,-2.144 4.788,-4.788c0,-2.645 -2.144,-4.788 -4.788,-4.788m0,12.591c-2.645,0 -4.788,2.143 -4.788,4.788c0,2.644 2.143,4.788 4.788,4.788c2.644,0 4.788,-2.144 4.788,-4.788c0,-2.645 -2.144,-4.788 -4.788,-4.788m12.591,-25.182c-2.645,0 -4.788,2.145 -4.788,4.788c0,2.645 2.143,4.788 4.788,4.788c2.644,0 4.787,-2.143 4.787,-4.788c0,-2.643 -2.143,-4.788 -4.787,-4.788m0,12.591c-2.645,0 -4.788,2.143 -4.788,4.788c0,2.644 2.143,4.788 4.788,4.788c2.644,0 4.787,-2.144 4.787,-4.788c0,-2.645 -2.143,-4.788 -4.787,-4.788m0,12.591c-2.645,0 -4.788,2.143 -4.788,4.788c0,2.644 2.143,4.788 4.788,4.788c2.644,0 4.787,-2.144 4.787,-4.788c0,-2.645 -2.143,-4.788 -4.787,-4.788m12.59,-12.591c-2.644,0 -4.788,2.143 -4.788,4.788c0,2.644 2.144,4.788 4.788,4.788c2.645,0 4.788,-2.144 4.788,-4.788c0,-2.645 -2.143,-4.788 -4.788,-4.788m0,12.591c-2.644,0 -4.788,2.143 -4.788,4.788c0,2.644 2.144,4.788 4.788,4.788c2.645,0 4.788,-2.144 4.788,-4.788c0,-2.645 -2.143,-4.788 -4.788,-4.788m12.9,-22.618l2.221,0l0,7.442l2.404,0l0,-7.442l2.221,0l0,-2.367l-6.846,0l0,2.367Zm11.179,0.028c-0.806,0 -1.358,0.404 -1.74,0.952l0,-3.49l-2.305,0l0,9.952l2.305,0l0,-4.154c0.029,-0.621 0.396,-0.966 0.948,-0.966c0.552,0 0.92,0.403 0.92,1.053l0,4.067l2.305,0l0,-4.76c0,-1.515 -0.962,-2.654 -2.433,-2.654m9.606,4.486l-4.413,0c0.169,0.62 0.763,0.981 1.598,0.981c0.834,0 1.669,-0.188 2.348,-0.578l0,2.208c-0.651,0.317 -1.556,0.476 -2.546,0.476c-2.136,0 -3.706,-1.501 -3.706,-3.794c0,-2.135 1.499,-3.779 3.564,-3.779c2.079,0 3.282,1.587 3.282,3.404c0,0.36 -0.057,0.822 -0.127,1.082m-2.065,-1.746c-0.043,-0.476 -0.467,-0.808 -1.104,-0.808c-0.651,0 -1.145,0.375 -1.259,0.808l2.363,0Z" style="fill:rgb(58,58,58);fill-rule:nonzero;"/>        </g>        <g transform="matrix(2,0,0,2,115.916,461.905)">            <path d="M0,-30.876c0,2.645 -2.143,4.788 -4.788,4.788c-2.644,0 -4.788,-2.143 -4.788,-4.788c0,-2.643 2.144,-4.788 4.788,-4.788c2.645,0 4.788,2.145 4.788,4.788m8.607,19.652c0,5.742 4.271,10.126 9.9,10.126c1.443,0 2.829,-0.288 4.045,-0.807l0,-5.568c-0.876,0.836 -2.347,1.471 -4.045,1.471c-2.828,0 -4.95,-2.336 -4.95,-5.222c0,-2.855 2.122,-5.22 4.95,-5.22c1.698,0 3.112,0.635 4.045,1.528l0,-5.625c-1.216,-0.52 -2.602,-0.808 -4.045,-0.808c-5.629,0 -9.9,4.385 -9.9,10.125m24.627,-4.932c-0.311,-0.058 -0.792,-0.087 -1.075,-0.087c-1.499,0 -2.546,0.722 -3.225,1.674l0,-1.385l-4.611,0l0,14.539l4.611,0l0,-8.308c0.085,-1.241 0.962,-1.933 2.037,-1.933c0.933,0 1.669,0.202 2.263,0.462l0,-4.962Zm14.721,7.472c0,4.269 -3.225,7.586 -7.412,7.586c-4.186,0 -7.411,-3.317 -7.411,-7.586c0,-4.27 3.225,-7.559 7.411,-7.559c4.187,0 7.412,3.289 7.412,7.559m-4.667,0c0,-1.616 -1.132,-2.972 -2.745,-2.972c-1.583,0 -2.743,1.356 -2.743,2.972c0,1.615 1.16,3 2.743,3c1.613,0 2.745,-1.385 2.745,-3m21.43,-7.27l-2.036,8.827l-2.744,-8.827l-3.203,0l-2.737,8.827l-2.122,-8.827l-4.781,0l4.13,14.539l4.838,0l2.206,-7.067l2.263,7.067l4.808,0l4.159,-14.539l-4.781,0Zm14.549,-5.366l4.611,0l0,19.905l-4.611,0l0,-1.355c-0.99,1.067 -2.319,1.672 -3.876,1.672c-3.988,0 -6.619,-3.317 -6.619,-7.586c0,-4.27 2.631,-7.559 6.647,-7.559c1.557,0 2.858,0.577 3.848,1.674l0,-6.751Zm0,12.636c0,-1.587 -1.188,-2.943 -2.857,-2.943c-1.669,0 -2.885,1.356 -2.885,2.943c0,1.586 1.216,2.971 2.885,2.971c1.669,0 2.857,-1.385 2.857,-2.971m22.602,-12.347l7.072,19.616l-5.375,0l-1.188,-3.548l-6.421,0l-1.16,3.548l-5.375,0l7.072,-19.616l5.375,0Zm-1.047,11.337l-1.641,-4.933l-1.64,4.933l3.281,0Zm16.396,-6.549c-1.64,0 -2.744,0.807 -3.479,1.904l0,-1.615l-4.611,0l0,14.539l4.611,0l0,-8.308c0.056,-1.241 0.792,-1.933 1.867,-1.933c1.131,0 1.866,0.808 1.866,2.106l0,8.135l4.611,0l0,-9.519c0,-3.03 -1.923,-5.309 -4.865,-5.309m16.421,0.289l4.611,0l0,12.462c0,5.654 -2.999,8.28 -8.175,8.28c-1.951,0 -3.79,-0.519 -4.667,-1.01l0,-4.789c1.244,0.808 3.111,1.413 4.667,1.413c2.094,0 3.564,-1.153 3.564,-3.23l0,-0.375c-0.962,0.98 -2.319,1.673 -4.073,1.673c-3.876,0 -6.563,-3.145 -6.563,-7.327c0,-4.184 2.687,-7.386 6.535,-7.386c1.782,0 3.139,0.692 4.101,1.76l0,-1.471Zm-0.283,7.067c0,-1.5 -1.131,-2.769 -2.715,-2.769c-1.556,0 -2.716,1.269 -2.716,2.769c0,1.53 1.16,2.77 2.716,2.77c1.584,0 2.715,-1.24 2.715,-2.77m19.623,-0.547c0,0.72 -0.112,1.644 -0.254,2.164l-8.826,0c0.34,1.24 1.527,1.961 3.196,1.961c1.669,0 3.338,-0.375 4.697,-1.154l0,4.413c-1.302,0.635 -3.112,0.952 -5.092,0.952c-4.272,0 -7.411,-3 -7.411,-7.586c0,-4.27 2.998,-7.559 7.128,-7.559c4.158,0 6.562,3.174 6.562,6.809m-4.384,-1.328c-0.085,-0.952 -0.933,-1.615 -2.207,-1.615c-1.301,0 -2.291,0.75 -2.517,1.615l4.724,0Zm5.443,9.347l4.61,0l0,-19.905l-4.61,0l0,19.905Z" style="fill:rgb(150,191,45);fill-rule:nonzero;"/>        </g>    </g></svg>