<?xml version="1.0" encoding="UTF-8" standalone="no"?><!DOCTYPE svg PUBLIC "-//W3C//DTD SVG 1.1//EN" "http://www.w3.org/Graphics/SVG/1.1/DTD/svg11.dtd"><svg width="100%" height="100%" viewBox="0 0 1024 512" version="1.1" xmlns="http://www.w3.org/2000/svg" xmlns:xlink="http://www.w3.org/1999/xlink" xml:space="preserve" style="fill-rule:evenodd;clip-rule:evenodd;stroke-linejoin:round;stroke-miterlimit:2;"><title>Kapitalfreunde</title><desc>Kapitalfreunde.de is a real estate investment platform that uses crowdfunding to make private real estate investing simple. Private investors can select and make direct investments in institutional quality real estate assets directly on our website</desc>    <g transform="matrix(3.66581,0,0,3.66581,2.90912,162.269)">        <path d="M8.558,21.491l-2.36,0l0,12.379c0,0.578 -0.47,1.047 -1.048,1.047l-4.355,0c-0.578,0 -1.043,-0.469 -1.043,-1.047l0,-30.063c0,-0.578 0.465,-1.045 1.043,-1.045l4.355,0c0.578,0 1.048,0.467 1.048,1.045l0,12.094l1.812,0l8.229,-12.273c0.363,-0.539 0.978,-0.865 1.63,-0.865l5.881,0c0.435,0 0.68,0.494 0.423,0.838l-10.51,14.114l11.395,16.347c0.252,0.358 -0.007,0.854 -0.448,0.854l-6.124,0c-0.65,0 -1.264,-0.328 -1.621,-0.869l-8.307,-12.556Z" style="fill:rgb(17,38,83);fill-rule:nonzero;"/>        <path d="M42.09,34.917c-0.657,0 -1.239,-0.43 -1.449,-1.057c-0.073,-0.221 -0.141,-0.439 -0.205,-0.664c-0.17,-0.604 -0.289,-1.225 -0.361,-1.857c-0.662,1.164 -1.54,2.129 -2.632,2.896c-1.087,0.767 -2.384,1.151 -3.885,1.151c-2.504,0 -4.433,-0.645 -5.786,-1.938c-1.354,-1.289 -2.028,-3.045 -2.028,-5.267c0,-2.345 0.896,-4.154 2.704,-5.447c1.804,-1.284 4.436,-1.93 7.896,-1.93l3.619,0l0,-1.9c0,-1.146 -0.3,-2.039 -0.901,-2.67c-0.604,-0.635 -1.503,-0.951 -2.697,-0.951c-1.044,0 -1.852,0.254 -2.417,0.762c-0.318,0.287 -0.549,0.633 -0.688,1.037c-0.191,0.555 -0.621,1.053 -1.207,1.053l-5.092,0c-0.041,0 -0.079,-0.029 -0.092,-0.068c-0.019,-0.051 -0.023,-0.105 -0.025,-0.16c-0.073,-1.979 0.81,-3.688 2.642,-5.129c1.862,-1.465 4.297,-2.197 7.302,-2.197c2.87,0 5.191,0.723 6.968,2.162c1.771,1.445 2.66,3.512 2.66,6.209l0,9.873c0,1.117 0.087,2.172 0.257,3.156c0.115,0.678 0.276,1.352 0.488,2.021c0.146,0.471 -0.239,0.914 -0.729,0.914l-4.342,0l0,0.001Zm-6.944,-4.307c1.118,0 2.122,-0.279 3.003,-0.838c0.887,-0.561 1.489,-1.21 1.812,-1.941l0,-3.379l-3.619,0c-1.369,0 -2.404,0.338 -3.104,1.014c-0.697,0.676 -1.049,1.51 -1.049,2.494c0,0.812 0.262,1.455 0.785,1.937c0.522,0.478 1.245,0.713 2.172,0.713Z" style="fill:rgb(17,38,83);fill-rule:nonzero;"/>        <path d="M71.672,23.631c0,3.537 -0.818,6.373 -2.451,8.523c-1.636,2.152 -3.916,3.23 -6.846,3.23c-1.25,0 -2.364,-0.236 -3.334,-0.697c-0.977,-0.465 -1.806,-1.148 -2.496,-2.043l0,17.449c0,0.578 -0.467,1.045 -1.046,1.045l-4.334,0c-0.58,0 -1.046,-0.467 -1.046,-1.045l0,-38.027c0,-0.578 0.466,-1.047 1.046,-1.047l3.718,0c0.597,0 1.102,0.447 1.182,1.035l0.236,1.795c0.708,-1.047 1.556,-1.852 2.551,-2.418c0.994,-0.568 2.154,-0.852 3.481,-0.852c2.958,0 5.252,1.158 6.889,3.467c1.633,2.311 2.451,5.352 2.451,9.121l-0.001,0.464Zm-6.449,-0.463c0,-2.252 -0.375,-4.079 -1.125,-5.478c-0.752,-1.398 -1.9,-2.1 -3.443,-2.1c-0.975,0 -1.804,0.199 -2.486,0.598c-0.687,0.398 -1.229,0.965 -1.623,1.701l0,10.467c0.396,0.677 0.938,1.19 1.623,1.546c0.684,0.355 1.528,0.533 2.528,0.533c1.562,0 2.705,-0.613 3.436,-1.833c0.728,-1.224 1.092,-2.881 1.092,-4.974l-0.002,-0.46Z" style="fill:rgb(17,38,83);fill-rule:nonzero;"/>        <path d="M81.297,6.186c0,0.576 -0.465,1.043 -1.045,1.043l-4.357,0c-0.578,0 -1.046,-0.467 -1.046,-1.043l0,-2.746c0,-0.576 0.468,-1.047 1.046,-1.047l4.357,0c0.58,0 1.045,0.471 1.045,1.047l0,2.746Zm0,27.684c0,0.578 -0.465,1.047 -1.045,1.047l-4.357,0c-0.578,0 -1.046,-0.469 -1.046,-1.047l0,-21.804c0,-0.578 0.468,-1.047 1.046,-1.047l4.357,0c0.58,0 1.045,0.469 1.045,1.047l0,21.804Z" style="fill:rgb(17,38,83);fill-rule:nonzero;"/>        <path d="M92.152,5.17c0.575,0 1.046,0.467 1.046,1.043l0,4.807l2.994,0c0.579,0 1.048,0.469 1.048,1.047l0,2.438c0,0.578 -0.469,1.047 -1.048,1.047l-2.994,0l0,12.166c0,0.929 0.192,1.59 0.584,1.99c0.392,0.396 0.899,0.594 1.532,0.594c0.255,0 0.486,-0.008 0.688,-0.028c0.558,-0.062 1.115,0.271 1.178,0.826l0.292,2.582c0.067,0.596 -0.263,1.18 -0.838,1.329c-0.315,0.082 -0.625,0.148 -0.931,0.205c-0.613,0.111 -1.277,0.17 -2,0.17c-2.225,0 -3.936,-0.612 -5.137,-1.834c-1.196,-1.223 -1.796,-3.159 -1.796,-5.807l0,-12.194l-2.445,0c-0.576,0 -1.046,-0.469 -1.046,-1.047l0,-2.438c0,-0.578 0.471,-1.047 1.046,-1.047l2.445,0l0,-4.807c0,-0.576 0.467,-1.043 1.044,-1.043l4.338,0.001Z" style="fill:rgb(17,38,83);fill-rule:nonzero;"/>        <path d="M115.218,34.917c-0.659,0 -1.24,-0.43 -1.448,-1.057c-0.072,-0.221 -0.139,-0.439 -0.202,-0.664c-0.17,-0.604 -0.294,-1.225 -0.367,-1.857c-0.659,1.164 -1.537,2.129 -2.626,2.896c-1.089,0.767 -2.387,1.151 -3.888,1.151c-2.504,0 -4.432,-0.645 -5.788,-1.938c-1.354,-1.289 -2.026,-3.045 -2.026,-5.267c0,-2.345 0.899,-4.154 2.704,-5.447c1.804,-1.284 4.438,-1.93 7.896,-1.93l3.619,0l0,-1.9c0,-1.146 -0.301,-2.039 -0.907,-2.67c-0.601,-0.635 -1.495,-0.951 -2.688,-0.951c-1.046,0 -1.855,0.254 -2.417,0.762c-0.325,0.287 -0.553,0.633 -0.691,1.037c-0.193,0.555 -0.622,1.053 -1.208,1.053l-5.09,0c-0.04,0 -0.078,-0.029 -0.093,-0.068c-0.016,-0.051 -0.023,-0.105 -0.024,-0.16c-0.072,-1.979 0.81,-3.688 2.645,-5.129c1.86,-1.465 4.298,-2.197 7.297,-2.197c2.874,0 5.192,0.723 6.97,2.162c1.771,1.445 2.659,3.512 2.659,6.209l0,9.873c0,1.117 0.087,2.172 0.254,3.156c0.119,0.678 0.277,1.352 0.492,2.021c0.145,0.471 -0.24,0.914 -0.729,0.914l-4.344,0l0,0.001Zm-6.942,-4.307c1.12,0 2.121,-0.279 3.004,-0.838c0.886,-0.561 1.486,-1.21 1.812,-1.941l0,-3.379l-3.619,0c-1.374,0 -2.407,0.338 -3.102,1.014c-0.701,0.676 -1.054,1.51 -1.054,2.494c0,0.812 0.263,1.455 0.783,1.937c0.523,0.478 1.248,0.713 2.176,0.713Z" style="fill:rgb(17,38,83);fill-rule:nonzero;"/>        <path d="M130.026,33.87c0,0.578 -0.466,1.047 -1.049,1.047l-4.354,0c-0.577,0 -1.047,-0.469 -1.047,-1.047l0,-32.36c0,-0.574 0.47,-1.047 1.047,-1.047l4.354,0c0.583,0 1.049,0.473 1.049,1.047l0,32.36Z" style="fill:rgb(17,38,83);fill-rule:nonzero;"/>        <path d="M137.738,34.917c-0.577,0 -1.05,-0.469 -1.05,-1.047l0,-19.624l-2.687,0c-0.578,0 -1.044,-0.467 -1.044,-1.047l0,-1.133c0,-0.578 0.466,-1.047 1.044,-1.047l2.687,0l0,-3.025c0,-2.547 0.669,-4.516 2.002,-5.906c1.333,-1.393 3.198,-2.088 5.582,-2.088c0.498,0 1.001,0.041 1.508,0.125c0.194,0.029 0.393,0.064 0.601,0.1c0.598,0.117 1.026,0.672 0.93,1.273l-0.203,1.248c-0.086,0.547 -0.573,0.941 -1.126,0.877c-0.373,-0.043 -0.769,-0.068 -1.182,-0.068c-1.262,0 -2.205,0.385 -2.823,1.137c-0.619,0.76 -0.931,1.863 -0.931,3.303l0,3.025l3.288,0c0.576,0 1.045,0.469 1.045,1.047l0,1.133c0,0.58 -0.469,1.047 -1.045,1.047l-3.288,0l0,19.625c0,0.578 -0.47,1.047 -1.047,1.047l-2.262,0l0.001,-0.002Z" style="fill:rgb(17,38,83);fill-rule:nonzero;"/>        <path d="M160.102,13.83c-0.086,0.584 -0.606,1.006 -1.201,0.973l-1.188,-0.072c-1.146,0 -2.112,0.273 -2.902,0.82c-0.787,0.543 -1.394,1.307 -1.818,2.295l0,16.024c0,0.578 -0.469,1.047 -1.043,1.047l-2.265,0c-0.576,0 -1.044,-0.469 -1.044,-1.047l0,-21.804c0,-0.578 0.468,-1.047 1.044,-1.047l1.794,0c0.603,0 1.103,0.447 1.172,1.041l0.299,2.449c0.677,-1.236 1.512,-2.199 2.507,-2.891c0.99,-0.693 2.138,-1.039 3.435,-1.039c0.239,0 0.479,0.014 0.704,0.045c0.572,0.072 0.881,0.662 0.799,1.232l-0.293,1.974Z" style="fill:rgb(17,38,83);fill-rule:nonzero;"/>        <path d="M172.823,35.385c-3.438,0 -6.107,-1.104 -8.031,-3.293c-1.917,-2.192 -2.88,-5.082 -2.88,-8.66l0,-0.969c0,-3.432 0.987,-6.271 2.971,-8.514c1.979,-2.246 4.396,-3.369 7.252,-3.369c3.199,0 5.593,0.992 7.19,2.98c1.598,1.99 2.395,4.629 2.395,7.931l0,1.256c0,0.571 -0.467,1.041 -1.045,1.041l-14.24,0l-0.062,0.11c0,2.396 0.531,4.349 1.592,5.839c1.061,1.496 2.677,2.242 4.859,2.242c1.473,0 2.763,-0.209 3.869,-0.629c0.769,-0.291 1.455,-0.65 2.073,-1.092c0.438,-0.311 1.049,-0.207 1.325,0.254l0.623,1.035c0.33,0.549 0.181,1.256 -0.34,1.629c-0.703,0.514 -1.538,0.961 -2.499,1.355c-1.395,0.568 -3.084,0.854 -5.052,0.854Zm-0.689,-21.383c-1.517,0 -2.77,0.586 -3.764,1.756c-0.995,1.174 -1.602,2.67 -1.827,4.496l0.051,0.109l10.776,0l0,-0.354c0,-1.736 -0.427,-3.172 -1.283,-4.309c-0.854,-1.132 -2.167,-1.698 -3.953,-1.698Z" style="fill:rgb(17,38,83);fill-rule:nonzero;"/>        <path d="M200.639,31.385c-0.746,1.277 -1.713,2.271 -2.889,2.957c-1.186,0.691 -2.54,1.043 -4.087,1.043c-2.607,0 -4.642,-0.838 -6.101,-2.495c-1.45,-1.664 -2.184,-4.261 -2.184,-7.778l0,-13.046c0,-0.578 0.469,-1.047 1.047,-1.047l2.258,0c0.575,0 1.044,0.469 1.044,1.047l0,13.088c0,2.552 0.38,4.302 1.127,5.257c0.758,0.957 1.926,1.438 3.518,1.438c1.545,0 2.819,-0.313 3.829,-0.938c1.012,-0.625 1.771,-1.515 2.282,-2.66l0,-16.185c0,-0.578 0.473,-1.047 1.049,-1.047l2.262,0c0.577,0 1.042,0.469 1.042,1.047l0,21.804c0,0.578 -0.465,1.047 -1.042,1.047l-1.817,0c-0.592,0 -1.084,-0.455 -1.131,-1.041l-0.207,-2.491Z" style="fill:rgb(17,38,83);fill-rule:nonzero;"/>        <path d="M212.89,11.02c0.588,0 1.083,0.453 1.131,1.043l0.225,2.514c0.795,-1.268 1.791,-2.25 2.993,-2.947c1.198,-0.699 2.562,-1.049 4.097,-1.049c2.573,0 4.566,0.754 5.98,2.264c1.413,1.508 2.122,3.838 2.122,6.988l0,14.039c0,0.578 -0.469,1.047 -1.049,1.047l-2.258,0c-0.575,0 -1.044,-0.469 -1.044,-1.047l0,-13.95c0,-2.104 -0.414,-3.6 -1.248,-4.484c-0.834,-0.881 -2.1,-1.326 -3.812,-1.326c-1.34,0 -2.479,0.273 -3.409,0.809c-0.936,0.537 -1.677,1.293 -2.22,2.266l0,16.685c0,0.578 -0.472,1.047 -1.047,1.047l-2.262,0c-0.578,0 -1.043,-0.469 -1.043,-1.047l0,-21.806c0,-0.578 0.465,-1.047 1.043,-1.047l1.801,0.001Z" style="fill:rgb(17,38,83);fill-rule:nonzero;"/>        <path d="M233.63,23.413c0,-3.845 0.821,-6.946 2.461,-9.302c1.646,-2.354 3.947,-3.531 6.907,-3.531c1.396,0 2.635,0.258 3.721,0.771c1.079,0.514 2.001,1.268 2.771,2.252l0,-12.093c0,-0.574 0.465,-1.047 1.047,-1.047l2.258,0c0.579,0 1.044,0.473 1.044,1.047l0,32.36c0,0.578 -0.465,1.047 -1.044,1.047l-1.242,0c-0.612,0 -1.137,-0.424 -1.27,-1.02l-0.44,-2.004c-0.78,1.148 -1.741,2.018 -2.893,2.604c-1.152,0.588 -2.483,0.889 -4.001,0.889c-2.909,0 -5.197,-1.061 -6.845,-3.172c-1.646,-2.112 -2.475,-4.895 -2.475,-8.336l0,-0.465l0.001,0Zm4.349,0.464c0,2.412 0.497,4.344 1.48,5.793c0.99,1.451 2.521,2.179 4.596,2.179c1.297,0 2.384,-0.291 3.265,-0.886c0.89,-0.588 1.61,-1.416 2.17,-2.469l0,-11.158c-0.56,-0.984 -1.284,-1.768 -2.18,-2.352c-0.887,-0.582 -1.958,-0.873 -3.212,-0.873c-2.092,0 -3.633,0.863 -4.626,2.586c-0.996,1.725 -1.493,3.961 -1.493,6.715l0,0.465Z" style="fill:rgb(17,38,83);fill-rule:nonzero;"/>        <path d="M269.097,35.385c-3.436,0 -6.105,-1.104 -8.031,-3.293c-1.921,-2.192 -2.884,-5.082 -2.884,-8.66l0,-0.969c0,-3.432 0.989,-6.271 2.977,-8.514c1.975,-2.246 4.396,-3.369 7.254,-3.369c3.191,0 5.591,0.992 7.188,2.98c1.594,1.99 2.398,4.629 2.398,7.931l0,1.256c0,0.571 -0.469,1.041 -1.049,1.041l-14.24,0l-0.063,0.11c0,2.396 0.53,4.349 1.596,5.839c1.055,1.496 2.676,2.242 4.855,2.242c1.473,0 2.764,-0.209 3.873,-0.629c0.763,-0.291 1.453,-0.65 2.069,-1.092c0.438,-0.311 1.053,-0.207 1.33,0.254l0.62,1.035c0.328,0.549 0.177,1.256 -0.34,1.629c-0.707,0.514 -1.538,0.961 -2.499,1.355c-1.399,0.568 -3.076,0.854 -5.054,0.854Zm-0.685,-21.383c-1.518,0 -2.771,0.586 -3.768,1.756c-0.993,1.174 -1.6,2.67 -1.817,4.496l0.041,0.109l10.774,0l0,-0.354c0,-1.736 -0.423,-3.172 -1.274,-4.309c-0.859,-1.132 -2.177,-1.698 -3.956,-1.698Z" style="fill:rgb(17,38,83);fill-rule:nonzero;"/>    </g></svg>