<?xml version="1.0" encoding="UTF-8" standalone="no"?><!DOCTYPE svg PUBLIC "-//W3C//DTD SVG 1.1//EN" "http://www.w3.org/Graphics/SVG/1.1/DTD/svg11.dtd"><svg width="100%" height="100%" viewBox="0 0 1024 512" version="1.1" xmlns="http://www.w3.org/2000/svg" xmlns:xlink="http://www.w3.org/1999/xlink" xml:space="preserve" style="fill-rule:evenodd;clip-rule:evenodd;stroke-linejoin:round;stroke-miterlimit:2;"><title>Yielders</title><desc>Yielders is a crowdinvesting property platform that gives you easy access to the UK property market and allows you to earn competitive returns. With our ethical investment model, there is no mortgage, interest, debt or hidden fees, which means you can grow your wealth without compromising on your values. </desc>    <g transform="matrix(3.74505,0,0,3.74505,-278.879,-115.238)">        <g transform="matrix(1,0,0,1,137.981,112.495)">            <path d="M0,-41.805c0,2.651 -1.971,4.622 -4.554,4.622c-2.583,-0 -4.555,-1.971 -4.555,-4.622c0,-2.719 1.972,-4.69 4.555,-4.69c2.583,-0 4.554,1.971 4.554,4.69m-0.68,46.495l-7.749,0l0,-36.163l7.749,0l-0,36.163Z" style="fill:rgb(38,38,54);fill-rule:nonzero;"/>        </g>        <g transform="matrix(1,0,0,1,175.547,92.1706)">            <path d="M0,13.731l4.554,4.214c-4.078,4.963 -9.38,7.342 -15.634,7.342c-11.148,0 -18.829,-7.41 -18.829,-18.354c0,-10.604 7.001,-18.217 18.149,-18.353c9.857,-0.136 16.45,5.914 17.062,15.77l-26.306,7.886c1.767,4.214 5.506,6.797 10.4,6.797c4.01,0 7.681,-1.835 10.604,-5.302m-22.092,-7.205l-0,0.068l19.849,-5.914c-1.7,-4.079 -4.758,-5.778 -9.041,-5.778c-6.593,0 -10.808,4.078 -10.808,11.624" style="fill:rgb(38,38,54);fill-rule:nonzero;"/>        </g>        <g transform="matrix(-0.00106505,-0.999999,-0.999999,0.00106505,218.183,88.17)">            <rect x="-29.257" y="21.476" width="50.71" height="7.75" style="fill:rgb(38,38,54);"/>        </g>        <g transform="matrix(1,0,0,1,242.302,117.887)">            <path d="M0,-50.777l0,50.438l-7.817,0l0,-6.186c-2.583,4.214 -6.934,6.525 -12.712,6.525c-10.4,-0 -17.333,-7.545 -17.333,-18.557c0,-10.876 7.001,-18.285 17.197,-18.285c5.846,0 10.197,2.379 12.848,6.593l0,-20.528l7.817,0Zm-7.817,32.492c0,-7.001 -4.555,-11.895 -11.08,-11.895c-6.526,0 -11.08,4.962 -11.148,11.895c0.068,6.866 4.554,11.76 11.148,11.76c6.525,0 11.08,-4.894 11.08,-11.76" style="fill:rgb(38,38,54);fill-rule:nonzero;"/>        </g>        <g transform="matrix(1,0,0,1,280.707,92.5322)">            <path d="M0,13.731l4.554,4.214c-4.078,4.963 -9.38,7.342 -15.634,7.342c-11.148,0 -18.829,-7.41 -18.829,-18.354c0,-10.604 7.001,-18.217 18.149,-18.353c9.857,-0.136 16.45,5.914 17.062,15.77l-26.306,7.886c1.767,4.214 5.506,6.797 10.4,6.797c4.01,0 7.681,-1.835 10.604,-5.302m-22.092,-7.205l-0,0.068l19.849,-5.914c-1.7,-4.079 -4.758,-5.778 -9.041,-5.778c-6.594,0 -10.808,4.078 -10.808,11.624" style="fill:rgb(38,38,54);fill-rule:nonzero;"/>        </g>        <g transform="matrix(1,0,0,1,314.488,117.547)">            <path d="M0,-36.435l0,7.477c-7.273,-0.408 -11.896,3.875 -12.507,10.061l0,18.897l-7.818,0l0,-36.163l7.818,0l-0,7.205c2.447,-4.894 6.797,-7.477 12.507,-7.477" style="fill:rgb(38,38,54);fill-rule:nonzero;"/>        </g>        <g transform="matrix(1,0,0,1,119.913,132.782)">            <path d="M0,-51.857l-9.788,0c-1.519,4.037 -2.943,8.109 -4.358,12.183c-1.375,3.957 -2.734,7.919 -4.165,11.856c-1.065,2.929 -2.258,5.816 -3.507,8.671c-0.836,1.909 -1.707,3.803 -2.645,5.664c-0.909,1.804 -1.746,3.653 -3.079,5.199c-0.565,0.655 -1.191,1.257 -1.87,1.793c-1.361,1.074 -2.929,1.883 -4.591,2.376c-0.811,0.241 -1.563,0.355 -2.393,0.381c-0.647,0.019 -1.356,0.165 -1.586,0.854c-0.073,0.22 0.715,0.764 1.434,1.11c3.68,1.77 8.01,1.548 11.785,-0.019c5.997,-2.489 8.181,-7.823 10.818,-14.085c2.893,-6.871 13.945,-35.983 13.945,-35.983" style="fill:rgb(38,38,54);fill-rule:nonzero;"/>        </g>        <g transform="matrix(1,0,0,1,328.191,107.963)">            <path d="M0,-17.062c0,-2.583 2.243,-3.603 5.302,-3.603c2.364,0 4.692,0.617 6.894,1.437c0.613,0.228 1.216,0.485 1.793,0.793c0.548,0.292 1.073,0.631 1.554,1.025c0.529,0.433 0.915,0.95 1.337,1.486c0.076,0.097 0.159,0.199 0.277,0.236c0.201,0.062 0.406,-0.095 0.522,-0.27c0.334,-0.508 0.615,-1.017 0.795,-1.604c0.658,-2.141 -0.043,-4.367 -1.677,-5.853c-0.165,-0.151 -0.337,-0.294 -0.515,-0.43c-1.815,-1.392 -4.005,-2.233 -6.233,-2.677c-1.36,-0.271 -2.749,-0.396 -4.135,-0.396c-6.934,0 -13.323,3.127 -13.323,10.468c-0.068,13.051 18.965,8.905 18.965,16.314c-0,2.719 -2.583,3.875 -5.914,3.875c-3.943,0 -8.973,-1.7 -12.1,-4.487l-2.787,5.574c3.603,3.263 9.245,5.03 14.547,5.03c7.273,0 13.867,-3.33 13.867,-10.74c0.068,-13.119 -19.169,-9.516 -19.169,-16.178" style="fill:rgb(38,38,54);fill-rule:nonzero;"/>        </g>        <g transform="matrix(0.275515,0,0,0.275515,59.5858,28.5959)">            <path d="M56.226,166.765c-0.312,0.613 -0.326,1.342 -0.218,2.021c0.465,2.882 2.744,4.955 3.924,7.524c1.372,2.991 2.417,6.232 3.285,9.404c1.865,6.81 2.787,13.826 4.036,20.762c2.958,16.471 5.909,33.214 12.838,48.527c7.516,16.591 17.853,24.18 34.604,31.196c2.297,0.958 15.27,5.43 20.017,4.036c1.136,-0.334 1.797,-0.998 1.739,-2.13c-0.062,-1.155 -0.799,-2.153 -1.478,-3.093c-3.829,-5.31 -6.7,-11.313 -8.442,-17.625c-1.456,-5.292 -1.71,-10.522 -2.457,-15.93c-0.069,-0.494 -0.142,-0.987 -0.218,-1.477c-2.588,-16.395 -4.864,-33.302 -12.765,-48.085c-9.855,-18.427 -27.501,-29.352 -46.941,-35.047c-1.42,-0.417 -2.846,-0.806 -4.28,-1.176c-0.301,-0.011 -0.635,-0.029 -0.976,-0.029c-1.049,-0 -2.174,0.16 -2.668,1.122Z" style="fill:url(#_Radial1);fill-rule:nonzero;"/>        </g>    </g>    <defs>        <radialGradient id="_Radial1" cx="0" cy="0" r="1" gradientUnits="userSpaceOnUse" gradientTransform="matrix(1,0,5.55112e-17,-1,0,14.0962)"><stop offset="0" style="stop-color:rgb(139,205,200);stop-opacity:1"/><stop offset="1" style="stop-color:rgb(67,147,140);stop-opacity:1"/></radialGradient>    </defs></svg>