<?xml version="1.0" encoding="UTF-8" standalone="no"?><!DOCTYPE svg PUBLIC "-//W3C//DTD SVG 1.1//EN" "http://www.w3.org/Graphics/SVG/1.1/DTD/svg11.dtd"><svg width="100%" height="100%" viewBox="0 0 1024 512" version="1.1" xmlns="http://www.w3.org/2000/svg" xmlns:xlink="http://www.w3.org/1999/xlink" xml:space="preserve" style="fill-rule:evenodd;clip-rule:evenodd;stroke-linejoin:round;stroke-miterlimit:2;"><title>Prêtgo</title><desc>Prêtgo is a web crowdfunding platform via personal to business lending. Prêtgo aims to connect VSEs-SMEs with projects and individuals wishing to invest in the local economy.Investing, earning money, while remaining united, is the conviction of Prêtgo.</desc>    <g transform="matrix(4.6479,0,0,4.6479,-4.67239,118.607)">        <g transform="matrix(3.62809,0,0,3.62809,-199.886,-148.101)">            <g transform="matrix(12,0,0,12,78.2087,54.2424)">                <path d="M0.481,-0.491c0,-0.037 -0.009,-0.064 -0.029,-0.08c-0.02,-0.016 -0.047,-0.024 -0.083,-0.024l-0.14,0l0,0.212l0.14,0c0.036,0 0.063,-0.008 0.083,-0.026c0.02,-0.017 0.029,-0.044 0.029,-0.082Zm0.149,-0.001c0,0.085 -0.021,0.145 -0.064,0.18c-0.043,0.036 -0.104,0.053 -0.184,0.053l-0.153,0l0,0.19l-0.149,0l0,-0.651l0.313,0c0.072,0 0.13,0.019 0.173,0.056c0.043,0.037 0.064,0.095 0.064,0.172Z" style="fill:rgb(75,63,76);fill-rule:nonzero;"/>            </g>            <g transform="matrix(12,0,0,12,85.8406,53.5554)">                <path d="M0.377,-0.545l0.019,0.001l0,0.143c-0.009,-0.001 -0.017,-0.002 -0.024,-0.002c-0.007,-0.001 -0.012,-0.001 -0.017,-0.001c-0.056,0 -0.093,0.018 -0.112,0.055c-0.011,0.02 -0.016,0.052 -0.016,0.095l0,0.254l-0.164,0l0,-0.532l0.156,0l0,0.093c0.022,-0.036 0.04,-0.06 0.056,-0.073c0.026,-0.022 0.06,-0.033 0.102,-0.033Z" style="fill:rgb(75,63,76);fill-rule:nonzero;"/>            </g>            <g transform="matrix(12,0,0,12,90.7862,53.5554)">                <path d="M0.275,-0.432c-0.032,0 -0.057,0.01 -0.075,0.031c-0.018,0.02 -0.029,0.047 -0.033,0.082l0.216,0c-0.002,-0.037 -0.014,-0.065 -0.034,-0.084c-0.02,-0.019 -0.044,-0.029 -0.074,-0.029Zm0,-0.114c0.044,0 0.084,0.008 0.12,0.025c0.035,0.016 0.064,0.042 0.087,0.078c0.021,0.032 0.035,0.068 0.041,0.11c0.004,0.024 0.005,0.06 0.004,0.105l-0.364,0c0.002,0.054 0.019,0.091 0.05,0.113c0.02,0.013 0.043,0.02 0.07,0.02c0.094,0 0.188,-0.055 0.195,-0.071l0.068,0.081c-0.004,0.032 -0.155,0.103 -0.266,0.103c-0.068,0 -0.128,-0.022 -0.179,-0.066c-0.052,-0.043 -0.078,-0.114 -0.078,-0.213c0,-0.092 0.023,-0.163 0.07,-0.212c0.047,-0.049 0.107,-0.073 0.182,-0.073Zm0.186,-0.058l-0.113,0l-0.063,-0.082l-0.064,0.082l-0.114,0l0.115,-0.146l0.125,0l0.114,0.146Z" style="fill:rgb(75,63,76);fill-rule:nonzero;"/>            </g>            <g transform="matrix(12,0,0,12,97.46,53.5554)">                <path d="M0.01,-0.405l0,-0.122l0.074,0l0,-0.126l0.161,0l0,0.126l0.133,0l0,0.122l-0.133,0l0,0.258c0,0.022 0.151,0.025 0.155,0.025l0,0.127l-0.134,0.002c-0.066,0.003 -0.134,-0.009 -0.158,-0.034c-0.016,-0.016 -0.024,-0.04 -0.024,-0.074l0,-0.304l-0.074,0Z" style="fill:rgb(75,63,76);fill-rule:nonzero;"/>            </g>            <g transform="matrix(12,0,0,12,102.834,53.5554)">                <path d="M0.249,-0.532c0.041,0 0.077,0.01 0.107,0.03c0.017,0.011 0.034,0.028 0.051,0.05l0,-0.066l0.081,0l0,0.476c0,0.066 -0.002,0.099 -0.021,0.137c-0.037,0.071 -0.099,0.099 -0.2,0.099c-0.057,0 -0.216,-0.019 -0.22,-0.072l0.039,-0.07c0.004,0.024 0.137,0.045 0.18,0.042c0.149,-0.01 0.139,-0.095 0.138,-0.167c-0.018,0.027 -0.039,0.047 -0.064,0.06c-0.024,0.013 -0.057,0.019 -0.098,0.019c-0.056,0 -0.106,-0.02 -0.148,-0.06c-0.043,-0.04 -0.064,-0.107 -0.064,-0.199c0,-0.088 0.021,-0.156 0.064,-0.205c0.043,-0.05 0.094,-0.074 0.155,-0.074Zm0.158,0.268c0,-0.064 -0.013,-0.112 -0.04,-0.144c-0.027,-0.031 -0.061,-0.047 -0.102,-0.047c-0.062,0 -0.104,0.029 -0.127,0.087c-0.012,0.031 -0.018,0.072 -0.018,0.122c0,0.059 0.012,0.104 0.036,0.134c0.024,0.031 0.056,0.047 0.096,0.047c0.064,0 0.108,-0.029 0.134,-0.086c0.014,-0.032 0.021,-0.07 0.021,-0.113Z" style="fill:rgb(75,63,76);fill-rule:nonzero;"/>            </g>            <g transform="matrix(12,0,0,12,109.784,53.5554)">                <path d="M0.272,-0.057c0.058,0 0.098,-0.022 0.12,-0.066c0.021,-0.044 0.032,-0.093 0.032,-0.147c0,-0.049 -0.007,-0.089 -0.023,-0.119c-0.025,-0.048 -0.068,-0.072 -0.128,-0.072c-0.054,0 -0.093,0.02 -0.117,0.061c-0.025,0.041 -0.037,0.091 -0.037,0.149c0,0.055 0.012,0.102 0.037,0.139c0.024,0.037 0.063,0.055 0.116,0.055Zm0.003,-0.481c0.068,0 0.125,0.022 0.171,0.067c0.047,0.045 0.07,0.111 0.07,0.199c0,0.084 -0.02,0.154 -0.061,0.209c-0.041,0.055 -0.105,0.082 -0.191,0.082c-0.072,0 -0.129,-0.024 -0.172,-0.073c-0.042,-0.049 -0.063,-0.114 -0.063,-0.196c0,-0.088 0.022,-0.158 0.067,-0.21c0.044,-0.052 0.104,-0.078 0.179,-0.078Z" style="fill:rgb(75,63,76);fill-rule:nonzero;"/>            </g>        </g>        <g>            <g transform="matrix(1,0,0,1,0.58902,0)">                <path d="M20.831,12.22l31.945,31.945l0,10.527c0,2.106 -1.709,3.816 -3.815,3.816l-44.299,0c-2.106,0 -3.815,-1.71 -3.815,-3.816l0,-38.656c0,-2.106 1.709,-3.816 3.815,-3.816l16.169,0Z" style="fill:rgb(0,120,190);"/>            </g>            <path d="M19.303,6.104l0,-1.676c0,-2.106 1.709,-3.816 3.815,-3.816l44.299,0c2.106,0 3.815,1.71 3.815,3.816l0,38.657c0,2.106 -1.709,3.816 -3.815,3.816l-4.461,0l0,-8.176l-32.085,-32.621l-11.568,0Z" style="fill:rgb(75,63,76);"/>        </g>    </g></svg>