<?xml version="1.0" encoding="UTF-8" standalone="no"?><!DOCTYPE svg PUBLIC "-//W3C//DTD SVG 1.1//EN" "http://www.w3.org/Graphics/SVG/1.1/DTD/svg11.dtd"><svg width="100%" height="100%" viewBox="0 0 1024 512" version="1.1" xmlns="http://www.w3.org/2000/svg" xmlns:xlink="http://www.w3.org/1999/xlink" xml:space="preserve" style="fill-rule:evenodd;clip-rule:evenodd;stroke-linejoin:round;stroke-miterlimit:2;"><title>CNMV</title><desc></desc>    <g transform="matrix(1.30038,0,0,1.30233,157.691,-3.21576)">        <g transform="matrix(6.38729,0,0,7.83213,-618.561,-3286.26)">            <rect x="97" y="420" width="85" height="50" style="fill:white;"/>        </g>        <g transform="matrix(3.17646,0,0,3.17646,-2.19169,3.38004)">            <path d="M171.927,39.201l0,84.038l-123.283,0l0,-66.194c1.646,6.657 6.347,11.91 14.231,11.91c4.976,0 8.274,-3.048 11.349,-7.128l1.655,-0.002l10.406,0l0,-1.332c-3.808,0 -4.405,-0.78 -4.405,-5.368l0,-11.84l18.994,22.672l1.147,0l0,-21.616c0,-4.547 0.542,-5.354 4.304,-5.368l0.868,0.001c3.597,0.033 4.125,0.875 4.125,5.367l0,14.131c0,4.588 -0.55,5.367 -4.358,5.367l0,1.332l10.827,0l0,-1.332c-3.808,0 -4.404,-0.779 -4.404,-5.367l0,-13.214l9.222,20.7l1.009,0l8.993,-20.747l0,13.26c0,4.588 -0.597,5.367 -4.404,5.367l0,1.332l14.314,0l0,-1.332c-3.854,0 -4.404,-0.779 -4.404,-5.367l0,-14.13c0,-4.474 0.524,-5.327 4.123,-5.366c3.474,0.045 4.104,1.122 5.374,4.035l10.002,22.949l0.963,0l9.956,-22.949c1.017,-2.331 1.846,-3.393 3.396,-3.809Zm-34.531,73.315l0,0.005c-0.001,0.548 -0.219,1.007 -0.565,1.329c-0.347,0.323 -0.822,0.507 -1.336,0.507l-0.002,0c-0.346,0 -0.659,-0.082 -0.915,-0.186c-0.223,-0.09 -0.404,-0.197 -0.526,-0.274c-0.031,0.038 -0.064,0.085 -0.096,0.141c-0.043,0.075 -0.083,0.167 -0.102,0.269l-0.009,0.051l-0.052,0l-0.233,0l-0.062,0l0,-0.061l0,-2.232l0,-0.061l0.377,0l0.005,0.055c0.072,0.766 0.439,1.291 0.986,1.527c0.107,0.046 0.221,0.08 0.341,0.104c0.121,0.025 0.248,0.038 0.378,0.038l0.014,0c0.263,0 0.498,-0.074 0.666,-0.213c0.166,-0.136 0.267,-0.336 0.268,-0.593l0,-0.002c0,-0.21 -0.085,-0.396 -0.252,-0.572c-0.173,-0.183 -0.434,-0.355 -0.777,-0.527l-0.882,-0.452c-0.355,-0.187 -0.659,-0.439 -0.857,-0.757c-0.039,-0.062 -0.073,-0.127 -0.104,-0.192c-0.094,-0.206 -0.147,-0.436 -0.147,-0.686l0,-0.002l0,-0.002c0,-0.428 0.18,-0.813 0.479,-1.09c0.299,-0.276 0.719,-0.448 1.201,-0.451l0.002,0c0.402,0 0.736,0.105 0.997,0.236c0.051,0.027 0.099,0.053 0.144,0.081c0.027,0.017 0.054,0.034 0.08,0.051c0.057,-0.069 0.125,-0.171 0.145,-0.325l0.006,-0.056l0.377,0l0,2.316l-0.063,0l-0.259,0l-0.056,0l-0.005,-0.058c-0.054,-0.541 -0.243,-1.152 -0.674,-1.454c-0.083,-0.058 -0.175,-0.104 -0.276,-0.136c-0.102,-0.032 -0.214,-0.051 -0.337,-0.051l-0.013,0l-0.003,0c-0.238,0 -0.457,0.063 -0.616,0.182c-0.154,0.117 -0.252,0.287 -0.252,0.506l0,0.002c0,0.208 0.078,0.369 0.248,0.526c0.178,0.166 0.457,0.329 0.847,0.533l0.869,0.454c0.317,0.162 0.552,0.362 0.717,0.576c0.033,0.043 0.062,0.085 0.089,0.13c0.164,0.266 0.235,0.551 0.235,0.814Zm-7.232,1.015l0.155,0c0.578,0 0.905,-0.051 1.104,-0.177c0.19,-0.12 0.267,-0.315 0.341,-0.606l0.064,-0.26l0.012,-0.046l0.373,0l-0.004,0.065l-0.104,1.569l-0.004,0.058l-0.058,0l-4.85,0l-0.063,0l0,-0.062l0,-0.26l0,-0.062l0.063,0c0.413,0 0.654,-0.049 0.787,-0.244c0.139,-0.206 0.176,-0.576 0.176,-1.21l0,-2.075c0,-0.637 -0.037,-1.003 -0.176,-1.204c-0.132,-0.191 -0.374,-0.238 -0.787,-0.238l-0.063,0l0,-0.063l0,-0.259l0,-0.062l4.659,0l0.004,0.058l0.104,1.556l0.004,0.066l-0.066,0l-0.272,0l-0.048,0l-0.012,-0.047l-0.064,-0.26c-0.068,-0.283 -0.141,-0.479 -0.33,-0.601c-0.196,-0.127 -0.524,-0.182 -1.101,-0.182l-0.807,0l0,1.809l0.015,0c0.634,0 0.974,-0.035 1.148,-0.174c0.167,-0.13 0.19,-0.374 0.19,-0.788l0,-0.064l0.383,0l0,2.653l-0.062,0l-0.259,0l-0.062,0l0,-0.062c0,-0.408 -0.023,-0.652 -0.19,-0.784c-0.175,-0.138 -0.515,-0.179 -1.148,-0.179l-0.015,0l0,0.69l-0.001,0c0,0.635 0.038,1.003 0.176,1.205c0.133,0.193 0.375,0.24 0.788,0.24Zm-5.659,-1.922c-0.093,0.027 -0.191,0.053 -0.293,0.069l0.735,0.891c0.256,0.299 0.532,0.575 0.819,0.785c0.284,0.208 0.579,0.354 0.88,0.397l0.053,0.008l0,0.376l-0.062,0l-1.66,0l-0.031,0l-0.019,-0.026l-1.745,-2.385l-0.27,0l0,0.574c0,0.634 0.037,1.004 0.177,1.21c0.132,0.195 0.374,0.244 0.786,0.244l0.063,0l0,0.384l-0.063,0l-2.97,0l-0.062,0l0,-0.062l0,-0.26l0,-0.062l0.062,0c0.413,0 0.655,-0.049 0.788,-0.244c0.139,-0.206 0.175,-0.576 0.175,-1.21l0,-2.075c0,-0.637 -0.036,-1.003 -0.175,-1.204c-0.133,-0.191 -0.375,-0.238 -0.788,-0.238l-0.062,0l0,-0.063l0,-0.259l0,-0.062l2.751,0c0.681,0 1.211,0.178 1.573,0.471c0.367,0.3 0.56,0.719 0.56,1.197c0,0.593 -0.32,1.107 -0.874,1.4c-0.107,0.056 -0.223,0.104 -0.348,0.144Zm0.085,-1.541l0,-0.004l0,-0.002c0,-0.295 -0.08,-0.564 -0.244,-0.76c-0.164,-0.193 -0.413,-0.315 -0.755,-0.315l-0.002,0l-0.677,0l0,2.132l0.68,0c0.342,0 0.59,-0.118 0.754,-0.306c0.165,-0.191 0.244,-0.455 0.244,-0.745Zm-5.856,1.194l0,-0.003l0,-0.004c0,-0.547 -0.14,-1.164 -0.465,-1.645c-0.323,-0.475 -0.831,-0.816 -1.571,-0.816l-0.002,0l-0.003,0c-0.739,0 -1.247,0.342 -1.57,0.816c-0.326,0.48 -0.466,1.102 -0.466,1.646l0,0.007c0,0.552 0.14,1.169 0.466,1.647c0.322,0.476 0.831,0.813 1.57,0.815l0.005,0c0.74,-0.002 1.247,-0.34 1.57,-0.813c0.327,-0.479 0.466,-1.099 0.466,-1.65Zm1.187,-0.003l0.001,0.003l-0.001,0c0,0.853 -0.364,1.626 -0.948,2.187c-0.585,0.561 -1.391,0.908 -2.275,0.908l-0.001,0l-0.003,0c-0.884,0 -1.688,-0.348 -2.273,-0.906c-0.585,-0.56 -0.949,-1.336 -0.95,-2.188l0,-0.003l0,-0.002c0,-0.839 0.364,-1.609 0.949,-2.17c0.584,-0.56 1.391,-0.912 2.275,-0.912l0.003,0c0.884,0.002 1.689,0.351 2.273,0.912c0.586,0.559 0.95,1.33 0.95,2.171Zm-11.604,1.039l0,-2.075c0,-0.637 -0.037,-1.003 -0.175,-1.204c-0.133,-0.191 -0.375,-0.238 -0.787,-0.238l-0.063,0l0,-0.063l0,-0.259l0,-0.062l3.094,0l0,0.384l-0.062,0c-0.413,0 -0.654,0.047 -0.787,0.238c-0.138,0.201 -0.176,0.567 -0.176,1.204l0,1.866c0,0.635 0.038,1.003 0.176,1.205c0.133,0.19 0.374,0.237 0.787,0.237l0.454,0c0.584,0 0.912,-0.053 1.108,-0.177c0.189,-0.118 0.262,-0.315 0.336,-0.606l0.065,-0.26l0.011,-0.046l0.386,0l-0.004,0.065l-0.09,1.569l-0.003,0.058l-0.059,0l-5.173,0l-0.063,0l0,-0.062l0,-0.26l0,-0.062l0.063,0c0.412,0 0.653,-0.049 0.786,-0.244c0.139,-0.204 0.176,-0.574 0.176,-1.208Zm-5.825,-0.621l1.523,0l-0.762,-1.765l-0.761,1.765Zm1.784,0.603l-2.045,0l-0.244,0.562c-0.155,0.362 -0.233,0.594 -0.159,0.721c0.074,0.13 0.315,0.177 0.802,0.177l0.062,0l0,0.396l-0.062,0l-2.427,0l-0.062,0l0,-0.062l0,-0.272l0,-0.062l0.062,0c0.379,0 0.572,-0.036 0.739,-0.185c0.172,-0.151 0.306,-0.43 0.516,-0.906l1.906,-4.435l0.016,-0.039l0.264,0l0.016,0.039l1.906,4.435c0.21,0.477 0.353,0.755 0.523,0.908c0.164,0.146 0.363,0.183 0.691,0.183l-0.011,0l0,0.396l0.011,0l-2.905,0l-0.062,0l0,-0.062l0,-0.272l0,-0.062l0.062,0c0.444,0 0.685,-0.049 0.77,-0.179c0.085,-0.129 0.027,-0.358 -0.126,-0.719l-0.243,-0.562Zm-2.149,-5.986l0,0.333l-0.062,0c-1.011,0 -1.094,0.191 -1.459,1.028l-0.027,0.063l-2.829,6.603l-0.016,0.035l-0.041,0l-0.169,0l-0.041,0l-0.016,-0.035l-2.865,-6.603l-0.027,-0.063c-0.365,-0.837 -0.448,-1.028 -1.461,-1.028l-0.063,0l0,-0.061l0,-0.272l0,-0.063l3.719,0l0,0.396l-0.063,0c-0.521,0 -0.838,0.063 -0.982,0.206l0,0.002c-0.135,0.135 -0.116,0.358 0.028,0.69l2.147,4.915l2.122,-4.915c0.145,-0.324 0.164,-0.55 0.027,-0.686c-0.144,-0.147 -0.46,-0.213 -0.981,-0.213l-0.063,0l0,-0.061l0,-0.272l0,-0.063l3.122,0l0,0.064Zm-14.133,7.237l0.156,0c0.578,0 0.904,-0.051 1.103,-0.177c0.191,-0.12 0.267,-0.315 0.341,-0.606l0.065,-0.26l0.012,-0.046l0.373,0l-0.004,0.065l-0.103,1.569l-0.004,0.058l-0.058,0l-4.85,0l-0.062,0l0,-0.062l0,-0.26l0,-0.062l0.062,0c0.413,0 0.654,-0.049 0.787,-0.244c0.14,-0.206 0.176,-0.576 0.176,-1.21l0,-2.075c0,-0.637 -0.036,-1.003 -0.176,-1.204c-0.132,-0.191 -0.374,-0.238 -0.787,-0.238l-0.062,0l0,-0.063l0,-0.259l0,-0.062l4.658,0l0.004,0.058l0.104,1.556l0.004,0.066l-0.066,0l-0.272,0l-0.049,0l-0.011,-0.047l-0.064,-0.26c-0.068,-0.283 -0.141,-0.479 -0.33,-0.601c-0.196,-0.127 -0.524,-0.182 -1.101,-0.182l-0.807,0l0,1.809l0.016,0c0.633,0 0.974,-0.035 1.148,-0.174c0.167,-0.13 0.189,-0.374 0.189,-0.788l0,-0.064l0.385,0l0,2.653l-0.063,0l-0.259,0l-0.063,0l0,-0.062c0,-0.408 -0.022,-0.652 -0.19,-0.784c-0.174,-0.138 -0.515,-0.179 -1.148,-0.179l-0.016,0l0,0.69c0,0.635 0.037,1.003 0.176,1.205c0.132,0.193 0.374,0.24 0.786,0.24Zm-7.456,0.604l-2.749,0l-0.062,0l0,-0.062l0,-0.26l0,-0.062l0.062,0c0.413,0 0.654,-0.049 0.787,-0.244c0.139,-0.206 0.175,-0.576 0.175,-1.21l0,-2.075c0,-0.637 -0.036,-1.003 -0.175,-1.204c-0.132,-0.191 -0.374,-0.238 -0.787,-0.238l-0.062,0l0,-0.063l0,-0.259l0,-0.062l2.814,0c1.118,0 1.922,0.324 2.449,0.843c0.527,0.522 0.773,1.238 0.774,2.018l0,0.007c0,0.785 -0.247,1.503 -0.773,2.025c-0.526,0.52 -1.332,0.846 -2.45,0.846l-0.003,0Zm1.654,-1.354c0.29,-0.442 0.372,-1.013 0.372,-1.522l0,-0.007c0,-0.499 -0.084,-1.067 -0.373,-1.51c-0.288,-0.439 -0.782,-0.753 -1.61,-0.755l-0.004,0l-0.781,0l0,3.62c0,0.407 0.021,0.646 0.114,0.773c0.089,0.12 0.26,0.15 0.563,0.15l0.104,0c0.831,0.001 1.327,-0.311 1.615,-0.749Zm66.854,-13.38l0,-0.003l0,-0.004c0,-0.547 -0.14,-1.164 -0.465,-1.645c-0.323,-0.475 -0.831,-0.816 -1.57,-0.818l-0.002,0l-0.003,0c-0.738,0.002 -1.247,0.344 -1.569,0.816c-0.326,0.482 -0.466,1.103 -0.466,1.648l0,0.007c0,0.552 0.14,1.169 0.466,1.647c0.322,0.474 0.831,0.813 1.57,0.813l0.005,0c0.739,0 1.247,-0.338 1.57,-0.813c0.324,-0.477 0.464,-1.096 0.464,-1.648Zm1.188,-0.005l0,0.005c-0.001,0.853 -0.365,1.626 -0.949,2.187c-0.585,0.561 -1.392,0.908 -2.276,0.908l-0.001,0l-0.003,0c-0.883,0 -1.688,-0.348 -2.273,-0.908c-0.584,-0.561 -0.949,-1.336 -0.949,-2.189l0,-0.002c0,-0.841 0.364,-1.609 0.948,-2.17c0.585,-0.562 1.392,-0.912 2.276,-0.912l0.004,0c0.883,0 1.689,0.351 2.273,0.91c0.584,0.559 0.949,1.333 0.95,2.171Zm-11.019,2.878l-2.749,0l-0.063,0l0,-0.062l0,-0.26l0,-0.062l0.063,0c0.413,0 0.654,-0.051 0.787,-0.246c0.139,-0.204 0.176,-0.573 0.176,-1.21l0,-2.074c0,-0.635 -0.037,-1.001 -0.175,-1.202c-0.133,-0.193 -0.375,-0.24 -0.788,-0.24l-0.063,0l0,-0.062l0,-0.259l0,-0.062l2.815,0c1.118,0 1.922,0.324 2.447,0.843c0.529,0.52 0.774,1.238 0.775,2.018l0,0.005c-0.001,0.787 -0.247,1.505 -0.774,2.027c-0.526,0.52 -1.331,0.846 -2.45,0.846l-0.001,0Zm1.653,-1.353c0.291,-0.441 0.372,-1.015 0.372,-1.522l0,-0.006c-0.001,-0.502 -0.083,-1.07 -0.373,-1.513c-0.287,-0.438 -0.782,-0.753 -1.609,-0.753l-0.005,0l-0.781,0l0,3.62c0,0.407 0.021,0.646 0.115,0.773c0.088,0.118 0.259,0.15 0.563,0.15l0.104,0c0.831,0.001 1.327,-0.312 1.614,-0.749Zm-9.313,-1.105l1.523,0l-0.761,-1.767l-0.762,1.767Zm1.783,0.604l-2.045,0l-0.243,0.559c-0.154,0.365 -0.233,0.597 -0.159,0.724c0.074,0.128 0.315,0.175 0.802,0.175l0.062,0l0,0.397l-0.062,0l-2.45,0l-0.063,0l0,-0.062l0,-0.272l0,-0.063l0.063,0c0.379,0 0.596,-0.034 0.763,-0.183c0.172,-0.153 0.306,-0.43 0.516,-0.907l1.906,-4.434l0.016,-0.039l0.264,0l0.016,0.039l1.907,4.434c0.21,0.478 0.353,0.754 0.522,0.907c0.164,0.148 0.364,0.185 0.691,0.185l0.062,0l0,0.396l-0.062,0l-2.905,0l-0.062,0l0,-0.062l0,-0.272l0,-0.063l0.062,0c0.444,0 0.685,-0.047 0.77,-0.177c0.085,-0.129 0.026,-0.358 -0.126,-0.722l-0.001,0l-0.244,-0.56Zm-4.915,-0.465l0,2.32l-0.063,0l-0.246,0l-0.049,0l-0.011,-0.049c-0.036,-0.164 -0.092,-0.366 -0.153,-0.497c-0.007,-0.02 -0.017,-0.036 -0.025,-0.051c-0.159,0.182 -0.362,0.346 -0.586,0.479c-0.047,0.03 -0.097,0.059 -0.148,0.084c-0.31,0.158 -0.65,0.256 -0.971,0.256l-0.001,0l-0.003,0c-0.826,0 -1.574,-0.348 -2.115,-0.908c-0.54,-0.561 -0.875,-1.336 -0.875,-2.187l0,-0.003l0,-0.002c0,-0.839 0.335,-1.609 0.875,-2.168c0.54,-0.562 1.29,-0.914 2.117,-0.914l0.001,0c0.46,0 0.962,0.193 1.355,0.489c0.077,0.059 0.15,0.121 0.217,0.185c0.047,0.045 0.091,0.092 0.133,0.141c0.026,-0.051 0.054,-0.12 0.079,-0.193c0.04,-0.12 0.076,-0.251 0.101,-0.353l0.012,-0.047l0.357,0l0,2.368l-0.063,0l-0.259,0l-0.051,0l-0.01,-0.051c-0.168,-0.822 -0.543,-1.434 -1.082,-1.727c-0.104,-0.059 -0.214,-0.103 -0.33,-0.135c-0.143,-0.04 -0.295,-0.061 -0.456,-0.061l-0.004,0l-0.004,0c-0.696,0.002 -1.149,0.348 -1.427,0.822c-0.282,0.487 -0.387,1.107 -0.388,1.643l0,0.007c0.001,0.541 0.106,1.159 0.387,1.641c0.278,0.477 0.73,0.82 1.428,0.82l0.004,0c0.691,0 1.23,-0.382 1.567,-1.032c0.065,-0.126 0.125,-0.264 0.175,-0.412c0.051,-0.149 0.094,-0.306 0.128,-0.471l0.001,-0.005l0.01,-0.051l0.372,0l0.001,0.062Zm-8.014,-0.208c-0.094,0.029 -0.192,0.053 -0.294,0.071l0.735,0.888c0.256,0.302 0.532,0.578 0.819,0.788c0.284,0.208 0.58,0.353 0.88,0.397l0.053,0.008l0,0.376l-0.062,0l-1.66,0l-0.031,0l-0.019,-0.026l-1.744,-2.387l-0.27,0l0,0.574c0,0.637 0.037,1.006 0.176,1.21c0.132,0.195 0.374,0.246 0.787,0.246l0.062,-0.002l0,0.385l-0.062,0l-2.97,0l-0.062,0l0,-0.062l0,-0.26l0,-0.062l0.062,0c0.413,0 0.654,-0.051 0.787,-0.246c0.139,-0.204 0.176,-0.573 0.176,-1.21l0,-2.075c0,-0.635 -0.037,-1.001 -0.176,-1.202c-0.132,-0.193 -0.374,-0.24 -0.787,-0.24l-0.062,0l0,-0.062l0,-0.259l0,-0.062l2.751,0c0.68,0 1.211,0.176 1.572,0.471c0.367,0.3 0.56,0.719 0.56,1.195l0,0.002c0,0.591 -0.32,1.107 -0.874,1.398c-0.108,0.059 -0.224,0.108 -0.347,0.146Zm0.084,-1.539l0,-0.004l0,-0.004c0,-0.295 -0.081,-0.564 -0.245,-0.76c-0.163,-0.193 -0.413,-0.313 -0.755,-0.313l-0.002,0l-0.677,0l0,2.132l0.679,0c0.342,0 0.591,-0.12 0.754,-0.308c0.166,-0.189 0.246,-0.456 0.246,-0.743Zm-6.876,3.463l0.156,0c0.577,0 0.904,-0.053 1.103,-0.177c0.191,-0.12 0.267,-0.317 0.341,-0.606l0.065,-0.26l0.012,-0.046l0.373,0l-0.004,0.065l-0.103,1.569l-0.004,0.058l-0.058,0l-4.85,0l-0.062,0l0,-0.062l0,-0.26l0,-0.062l0.062,0c0.413,0 0.655,-0.051 0.787,-0.246c0.14,-0.204 0.176,-0.573 0.176,-1.21l0,-2.074c0,-0.635 -0.036,-1.001 -0.175,-1.202c-0.132,-0.193 -0.374,-0.24 -0.787,-0.24l-0.062,0l0,-0.062l0,-0.259l0,-0.062l4.659,0l0.003,0.058l0.104,1.556l0.003,0.066l-0.066,0l-0.271,0l-0.049,0l-0.012,-0.047l-0.065,-0.259l0,-0.003c-0.067,-0.281 -0.14,-0.479 -0.329,-0.601c-0.197,-0.125 -0.524,-0.18 -1.102,-0.18l-0.807,0l0,1.807l0.016,0c0.634,0 0.974,-0.036 1.148,-0.172c0.167,-0.132 0.189,-0.374 0.189,-0.79l0,-0.06l0.385,0l0,2.653l-0.063,0l-0.259,0l-0.063,0l0,-0.062c0,-0.41 -0.023,-0.652 -0.189,-0.786c-0.175,-0.139 -0.515,-0.177 -1.148,-0.177l-0.016,0l0,0.69c0,0.635 0.037,1.001 0.175,1.202c0.133,0.194 0.375,0.241 0.787,0.241Zm-9.237,0.788l-2.76,-6.354l0,4.317c0,0.635 0.039,1.003 0.205,1.207c0.162,0.199 0.46,0.248 0.978,0.248l0.062,0l0,0.397l-0.062,0l-2.957,0l-0.062,0l0,-0.062l0,-0.272l0,-0.063l0.062,0c0.518,0 0.813,-0.049 0.971,-0.248c0.162,-0.202 0.199,-0.572 0.199,-1.207l0,-4.213c0,-0.636 -0.037,-1 -0.199,-1.2c-0.158,-0.195 -0.453,-0.242 -0.971,-0.242l-0.062,0l0,-0.063l0,-0.271l0,-0.063l2.308,0l0.017,0.036l2.692,6.186l2.679,-6.184l0.017,-0.038l2.139,0l0,0.396l-0.062,0c-0.525,0 -0.823,0.047 -0.982,0.242c-0.165,0.2 -0.201,0.564 -0.201,1.2l0,4.213c0,0.635 0.037,1.003 0.201,1.207c0.16,0.199 0.458,0.25 0.982,0.25l0.062,0l0,0.396l-0.062,0l-3.501,0l-0.062,0l0,-0.062l0,-0.272l0,-0.063l0.062,0c0.519,0 0.813,-0.049 0.971,-0.248c0.162,-0.202 0.198,-0.572 0.198,-1.207l0,-3.929l-2.578,5.966l-0.017,0.037l-0.04,0l-0.168,0l-0.041,0l-0.018,-0.037Zm-12.233,-2.023l0,-2.076c0,-0.635 -0.037,-1.001 -0.176,-1.202c-0.133,-0.193 -0.375,-0.24 -0.787,-0.24l-0.062,0l0,-0.062l0,-0.259l0,-0.062l3.093,0l0,0.383l-0.062,0c-0.413,0 -0.655,0.047 -0.787,0.24c-0.139,0.201 -0.175,0.567 -0.175,1.202l0,1.868c0,0.635 0.037,1.001 0.175,1.202c0.132,0.193 0.374,0.24 0.787,0.24l0.454,0c0.584,0 0.912,-0.053 1.108,-0.177c0.189,-0.12 0.261,-0.317 0.336,-0.606l0.064,-0.26l0.012,-0.046l0.385,0l-0.003,0.065l-0.091,1.567l-0.003,0.06l-0.058,0l-5.174,0l-0.062,0l0,-0.062l0,-0.26l0,-0.063l0.062,0.002c0.412,0 0.654,-0.051 0.786,-0.246c0.141,-0.203 0.178,-0.572 0.178,-1.208Zm-4.153,1.235l0.156,0c0.578,0 0.904,-0.053 1.103,-0.177c0.191,-0.12 0.267,-0.317 0.341,-0.606l0.065,-0.26l0.012,-0.046l0.373,0l-0.004,0.065l-0.103,1.569l-0.004,0.058l-0.058,0l-4.85,0l-0.062,0l0,-0.062l0,-0.26l0,-0.062l0.062,0c0.413,0 0.654,-0.051 0.787,-0.246c0.14,-0.204 0.176,-0.573 0.176,-1.21l0,-2.074c0,-0.635 -0.036,-1.001 -0.176,-1.202c-0.132,-0.193 -0.374,-0.24 -0.787,-0.24l-0.062,0l0,-0.062l0,-0.259l0,-0.062l4.658,0l0.004,0.058l0.104,1.556l0.004,0.066l-0.066,0l-0.272,0l-0.049,0l-0.011,-0.047l-0.065,-0.258l0,-0.003c-0.068,-0.281 -0.141,-0.478 -0.33,-0.601c-0.196,-0.125 -0.524,-0.18 -1.101,-0.18l-0.807,0l0,1.807l0.016,0c0.633,0 0.974,-0.036 1.148,-0.172c0.167,-0.132 0.189,-0.374 0.189,-0.79l0,-0.061l0.385,0l0,2.653l-0.063,0l-0.259,0l-0.063,0l0,-0.062c0,-0.41 -0.023,-0.652 -0.19,-0.786c-0.174,-0.139 -0.515,-0.177 -1.148,-0.177l-0.016,0l0,0.69c0,0.635 0.037,1.001 0.176,1.202c0.133,0.194 0.375,0.241 0.787,0.241Zm-7.456,0.603l-2.749,0l-0.062,0l0,-0.062l0,-0.26l0,-0.062l0.062,0c0.413,0 0.654,-0.051 0.787,-0.246c0.139,-0.204 0.175,-0.573 0.175,-1.21l0,-2.074c0,-0.635 -0.036,-1.001 -0.175,-1.202c-0.132,-0.193 -0.374,-0.24 -0.787,-0.24l-0.062,0l0,-0.062l0,-0.259l0,-0.062l2.814,0c1.118,0 1.922,0.324 2.449,0.843c0.527,0.52 0.773,1.238 0.774,2.018l0,0.005c0,0.787 -0.247,1.505 -0.773,2.027c-0.526,0.52 -1.332,0.846 -2.45,0.846l-0.003,0Zm1.654,-1.353c0.29,-0.441 0.372,-1.015 0.372,-1.522l0,-0.006c0,-0.502 -0.084,-1.07 -0.373,-1.513c-0.288,-0.438 -0.782,-0.753 -1.61,-0.753l-0.004,0l-0.781,0l0,3.62c0,0.407 0.021,0.646 0.114,0.773c0.089,0.118 0.26,0.15 0.563,0.15l0.104,0c0.831,0.001 1.327,-0.312 1.615,-0.749Zm45.174,-12.346l0,-2.075c0,-0.635 -0.037,-1.003 -0.175,-1.205c-0.133,-0.191 -0.375,-0.237 -0.787,-0.237l-0.063,0l0,-0.062l0,-0.259l0,-0.063l3.094,0l0,0.384l-0.062,0c-0.413,0 -0.655,0.046 -0.787,0.237c-0.139,0.202 -0.176,0.57 -0.176,1.205l0,1.866c0,0.637 0.037,1.003 0.176,1.204c0.132,0.191 0.375,0.238 0.787,0.238l0.454,0l0,0.002c0.584,0 0.912,-0.053 1.108,-0.179c0.189,-0.118 0.262,-0.315 0.336,-0.604l0.064,-0.259l0.012,-0.049l0.386,0l-0.003,0.065l-0.09,1.569l-0.004,0.06l-0.059,0l-5.173,0l-0.063,0l0,-0.062l0,-0.262l0,-0.062l0.063,0c0.412,0 0.654,-0.049 0.787,-0.244c0.138,-0.202 0.175,-0.574 0.175,-1.208Zm-5.874,-0.621l1.523,0l-0.762,-1.765l-0.761,1.765Zm1.784,0.606l-2.045,0l-0.243,0.559c-0.154,0.363 -0.232,0.597 -0.159,0.724c0.074,0.128 0.315,0.175 0.803,0.175l0.062,0l0,0.398l-0.062,0l-2.452,0l-0.062,0l0,-0.062l0,-0.274l0,-0.062l0.062,0c0.38,0 0.597,-0.036 0.764,-0.183c0.172,-0.153 0.306,-0.43 0.516,-0.909l1.906,-4.435l0.017,-0.036l0.263,0l0.016,0.036l1.906,4.435c0.21,0.479 0.354,0.756 0.523,0.909c0.164,0.146 0.363,0.183 0.691,0.183l0.062,0l0,0.398l-0.062,0l-2.906,0l-0.062,0l0.001,-0.062l0,-0.274l0,-0.062l0.061,0c0.444,0 0.685,-0.047 0.771,-0.179c0.084,-0.129 0.026,-0.356 -0.126,-0.72l-0.245,-0.559Zm-9.993,0.015l0,-2.075c0,-0.635 -0.037,-1.003 -0.175,-1.205c-0.133,-0.191 -0.374,-0.237 -0.787,-0.237l-0.063,0l0,-0.062l0,-0.259l0,-0.063l1.686,0l0.019,0.022l3.34,3.967l0,-2.163c0,-0.635 -0.037,-1.003 -0.176,-1.205c-0.132,-0.191 -0.374,-0.237 -0.787,-0.237l-0.063,0l0,-0.062l0,-0.259l0,-0.063l2.653,0l0,0.384l-0.062,0c-0.413,0 -0.655,0.046 -0.787,0.237c-0.139,0.202 -0.175,0.57 -0.175,1.205l0,4.124l-0.063,0l-0.247,0l-0.029,0l-0.019,-0.023l-3.664,-4.396l0,2.37c0,0.634 0.038,1.006 0.176,1.21c0.133,0.195 0.374,0.244 0.787,0.244l0.062,0l0,0.386l-0.062,0l-2.528,0l-0.063,0l0,-0.062l0,-0.262l0,-0.062l0.063,0c0.413,0 0.654,-0.049 0.787,-0.244c0.141,-0.204 0.177,-0.576 0.177,-1.21Zm-3.423,-1.037l0,-0.002l0,-0.002c0,-0.546 -0.14,-1.164 -0.466,-1.645c-0.322,-0.477 -0.831,-0.819 -1.569,-0.819l-0.003,0l-0.003,0c-0.739,0 -1.247,0.343 -1.569,0.817c-0.327,0.482 -0.467,1.101 -0.467,1.646l0,0.007c0,0.552 0.14,1.169 0.465,1.649c0.323,0.474 0.831,0.813 1.571,0.813l0.006,0c0.739,0 1.247,-0.34 1.569,-0.813c0.326,-0.479 0.465,-1.096 0.466,-1.651Zm1.186,-0.002l0,0.005c0,0.851 -0.364,1.626 -0.948,2.187c-0.585,0.559 -1.391,0.906 -2.276,0.906l0,0.002l-0.001,0l-0.003,0l0,-0.002c-0.883,0 -1.689,-0.346 -2.273,-0.906c-0.585,-0.561 -0.949,-1.336 -0.95,-2.189l0,-0.002l0,-0.002c0.001,-0.839 0.364,-1.61 0.949,-2.168c0.584,-0.562 1.391,-0.912 2.275,-0.912l0.003,0c0.884,0 1.689,0.351 2.274,0.91c0.587,0.559 0.95,1.33 0.95,2.171Zm-7.675,2.555l0,0.324l-0.063,0l-2.969,0l-0.063,0l0,-0.062l0,-0.262l0,-0.062l0.063,0c0.413,0 0.655,-0.049 0.788,-0.244c0.138,-0.204 0.175,-0.576 0.175,-1.21l0,-2.075c0,-0.635 -0.037,-1.003 -0.175,-1.205c-0.132,-0.191 -0.375,-0.237 -0.788,-0.237l-0.063,0l0,-0.062l0,-0.259l0,-0.063l3.095,0l0,0.384l-0.063,0c-0.413,0 -0.654,0.046 -0.787,0.237c-0.139,0.202 -0.176,0.57 -0.176,1.205l0,2.075c0,0.634 0.037,1.006 0.176,1.21c0.133,0.195 0.375,0.244 0.787,0.244l0.063,0l0,0.062Zm-4.41,-1.996l0,2.32l-0.061,0l-0.247,0l-0.049,0l-0.011,-0.049c-0.037,-0.164 -0.092,-0.366 -0.153,-0.499c-0.008,-0.018 -0.016,-0.034 -0.025,-0.052c-0.16,0.183 -0.362,0.349 -0.587,0.481c-0.047,0.028 -0.097,0.059 -0.148,0.083c-0.31,0.157 -0.65,0.255 -0.971,0.255l0,0.002l-0.002,0l-0.002,0l0,-0.002c-0.827,0 -1.575,-0.348 -2.115,-0.908c-0.54,-0.561 -0.875,-1.334 -0.875,-2.188l0,-0.002l0,-0.002c0,-0.839 0.335,-1.608 0.874,-2.168c0.541,-0.562 1.29,-0.912 2.117,-0.912l0.001,0c0.461,0 0.962,0.191 1.356,0.489c0.077,0.057 0.149,0.119 0.217,0.185c0.046,0.045 0.09,0.092 0.132,0.139c0.027,-0.052 0.054,-0.12 0.079,-0.193c0.04,-0.118 0.075,-0.249 0.101,-0.351l0.012,-0.049l0.358,0l0,2.368l-0.062,0l-0.259,0l-0.051,0l-0.01,-0.049c-0.168,-0.822 -0.542,-1.434 -1.082,-1.727c-0.104,-0.059 -0.215,-0.103 -0.331,-0.135c-0.143,-0.04 -0.295,-0.062 -0.456,-0.062l-0.004,0l-0.003,0c-0.697,0.003 -1.15,0.349 -1.427,0.823c-0.282,0.485 -0.388,1.105 -0.388,1.641l0,0.009c0,0.539 0.105,1.158 0.387,1.641c0.277,0.477 0.729,0.82 1.428,0.82l0.003,0c0.693,0 1.231,-0.383 1.568,-1.032c0.065,-0.128 0.125,-0.266 0.175,-0.412c0.051,-0.151 0.094,-0.308 0.127,-0.472l0.001,-0.006l0.01,-0.049l0.374,0l0,0.063l-0.001,0Zm-10.017,-0.141l1.523,0l-0.762,-1.765l-0.761,1.765Zm1.785,0.606l-2.045,0l-0.243,0.559c-0.154,0.363 -0.232,0.597 -0.159,0.724c0.075,0.128 0.316,0.175 0.803,0.175l0.063,0l0,0.398l-0.062,0l-2.451,0l-0.065,0l0.001,-0.062l0,-0.274l0,-0.062l0.061,0c0.38,0 0.596,-0.036 0.763,-0.183c0.172,-0.153 0.306,-0.43 0.516,-0.909l1.906,-4.435l0.016,-0.036l0.265,0l0.016,0.036l1.906,4.435c0.21,0.479 0.354,0.756 0.522,0.909c0.164,0.146 0.364,0.183 0.691,0.183l0.062,0l0,0.398l-0.062,0l-2.905,0l-0.063,0l0,-0.062l0,-0.274l0,-0.062l0.063,0c0.444,0 0.685,-0.047 0.771,-0.179c0.084,-0.129 0.026,-0.356 -0.126,-0.72l-0.244,-0.559Zm-11.167,-6.03l4.869,6.037l0,-4.221c0,-0.634 -0.036,-0.998 -0.198,-1.198c-0.159,-0.195 -0.453,-0.244 -0.972,-0.244l-0.062,0l0,-0.062l0,-0.272l0,-0.06l3.081,0l0,0.395l-0.062,0c-0.519,0 -0.816,0.049 -0.979,0.244c-0.165,0.2 -0.205,0.564 -0.205,1.198l0,6.289l-0.063,0l-0.298,0l-0.029,0l-0.02,-0.022l-5.167,-6.39l0,4.338c0,0.633 0.04,1.003 0.205,1.207c0.162,0.197 0.46,0.248 0.979,0.248l0.062,0l0,0.398l-0.062,0l-2.957,0l-0.063,0l0,-0.062l0,-0.274l0,-0.062l0.063,0c0.518,0 0.813,-0.051 0.971,-0.248c0.162,-0.204 0.199,-0.574 0.199,-1.207l0,-4.215c0,-0.634 -0.036,-0.998 -0.198,-1.198c-0.159,-0.195 -0.454,-0.244 -0.972,-0.244l-0.062,0l0,-0.062l0,-0.273l0,-0.06l1.919,0l0.021,0.02Zm46.079,-5.815l0,-2.075c0,-0.638 -0.037,-1.003 -0.176,-1.205c-0.132,-0.191 -0.374,-0.237 -0.787,-0.237l-0.063,0l0,-0.063l0,-0.259l0,-0.062l1.686,0l0.018,0.021l3.341,3.969l0,-2.164c0,-0.638 -0.037,-1.003 -0.176,-1.205c-0.133,-0.191 -0.375,-0.237 -0.787,-0.237l-0.062,0l0,-0.063l0,-0.259l0,-0.062l2.653,0l0,0.384l-0.062,0c-0.414,0 -0.654,0.046 -0.788,0.237c-0.138,0.202 -0.175,0.567 -0.175,1.205l0,4.121l-0.062,0l-0.247,0l-0.03,0l-0.018,-0.021l-3.665,-4.397l0,2.372c0,0.635 0.037,1.004 0.176,1.21c0.132,0.193 0.374,0.244 0.787,0.244l0.062,0l0,0.383l-0.062,0l-2.528,0l-0.063,0l0,-0.062l0,-0.26l0,-0.062l0.063,0c0.413,0 0.654,-0.051 0.787,-0.244c0.141,-0.205 0.178,-0.574 0.178,-1.209Zm-3.423,-1.037l0,-0.002l0,-0.004c0,-0.547 -0.141,-1.164 -0.466,-1.645c-0.322,-0.475 -0.831,-0.817 -1.57,-0.817l-0.003,0l-0.002,0c-0.739,0 -1.247,0.343 -1.57,0.817c-0.326,0.48 -0.467,1.101 -0.467,1.646l0,0.006c0.001,0.553 0.141,1.17 0.466,1.648c0.322,0.476 0.831,0.813 1.57,0.815l0.005,0c0.739,-0.002 1.247,-0.34 1.57,-0.813c0.327,-0.479 0.466,-1.099 0.467,-1.651Zm1.187,-0.002l0,0.002c-0.001,0.854 -0.364,1.627 -0.949,2.188c-0.584,0.561 -1.39,0.908 -2.275,0.908l-0.001,0l-0.002,0c-0.884,0 -1.689,-0.348 -2.273,-0.906c-0.585,-0.561 -0.95,-1.336 -0.95,-2.189l0,-0.002l0,-0.002c0,-0.839 0.364,-1.61 0.95,-2.17c0.583,-0.56 1.39,-0.912 2.275,-0.912l0.004,0c0.884,0.002 1.689,0.353 2.273,0.912c0.584,0.557 0.947,1.33 0.948,2.171Zm-1.776,-4.929l0,0.002c0,0.161 -0.112,0.291 -0.218,0.371c-0.019,0.016 -0.04,0.028 -0.06,0.04c-0.018,0.014 -0.036,0.024 -0.052,0.03l-0.002,0.002l-0.003,0.003l-1.776,0.764l-0.046,0.02l-0.028,-0.04l-0.065,-0.092l-0.031,-0.043l0.04,-0.037l1.206,-1.128l0.001,-0.002l0.008,-0.006c0.226,-0.2 0.363,-0.321 0.603,-0.321l0.002,0l0,0.002c0.144,0 0.25,0.063 0.32,0.15c0.066,0.085 0.1,0.195 0.101,0.285Zm-5.9,7.483l0,0.321l-0.063,0l-2.969,0l-0.062,0l0,-0.061l0,-0.26l0,-0.062l0.062,0c0.413,0 0.655,-0.051 0.787,-0.244c0.14,-0.206 0.176,-0.575 0.176,-1.21l0,-2.074c0,-0.638 -0.037,-1.003 -0.176,-1.205c-0.132,-0.191 -0.374,-0.237 -0.787,-0.237l-0.062,0l0,-0.063l0,-0.259l0,-0.062l3.094,0l0,0.384l-0.063,0c-0.412,0 -0.654,0.046 -0.787,0.237c-0.138,0.202 -0.176,0.567 -0.176,1.205l0.001,0l0,2.075l-0.001,0c0,0.635 0.038,1.004 0.176,1.21c0.133,0.193 0.375,0.244 0.787,0.244l0.063,0l0,0.061Zm-4.15,-1.297l0,0.004c0,0.548 -0.219,1.008 -0.565,1.33c-0.347,0.323 -0.822,0.507 -1.336,0.507l-0.001,0c-0.346,0 -0.659,-0.082 -0.914,-0.186c-0.224,-0.09 -0.405,-0.198 -0.526,-0.276c-0.031,0.04 -0.064,0.087 -0.096,0.142c-0.044,0.074 -0.083,0.168 -0.101,0.27l-0.01,0.051l-0.051,0l-0.233,0l-0.063,0l0,-0.062l0,-2.233l0,-0.063l0.378,0l0.006,0.058c0.071,0.766 0.439,1.291 0.986,1.526c0.106,0.047 0.22,0.08 0.34,0.104c0.121,0.024 0.248,0.038 0.379,0.038l0.014,0c0.263,-0.002 0.497,-0.075 0.665,-0.213c0.166,-0.136 0.267,-0.336 0.268,-0.593l0,-0.002c0,-0.21 -0.085,-0.397 -0.252,-0.572c-0.173,-0.184 -0.434,-0.355 -0.777,-0.527l-0.001,0l-0.882,-0.454c-0.356,-0.186 -0.659,-0.438 -0.858,-0.754c-0.039,-0.063 -0.074,-0.128 -0.104,-0.195c-0.094,-0.205 -0.146,-0.434 -0.147,-0.684l0,-0.003l0,-0.004c0,-0.425 0.179,-0.81 0.479,-1.087c0.299,-0.278 0.719,-0.448 1.202,-0.45l0.001,0c0.402,0 0.736,0.104 0.996,0.234c0.051,0.028 0.099,0.054 0.144,0.082c0.028,0.017 0.054,0.034 0.08,0.051c0.057,-0.07 0.125,-0.17 0.145,-0.326l0.006,-0.055l0.378,0l0,2.317l-0.063,0l-0.26,0l-0.056,0l-0.005,-0.058c-0.054,-0.541 -0.243,-1.152 -0.674,-1.454c-0.083,-0.059 -0.174,-0.104 -0.276,-0.136c-0.103,-0.032 -0.215,-0.052 -0.338,-0.052l-0.013,0l-0.004,0c-0.238,0 -0.457,0.063 -0.615,0.183c-0.155,0.117 -0.252,0.286 -0.252,0.506l0,0.003c0,0.208 0.078,0.369 0.248,0.526c0.178,0.166 0.457,0.327 0.847,0.533l0.869,0.454c0.317,0.162 0.552,0.361 0.717,0.576c0.032,0.042 0.061,0.085 0.089,0.13c0.164,0.266 0.235,0.551 0.236,0.814Zm-5.187,1.297l0,0.321l-0.062,0l-2.97,0l-0.062,0l0,-0.061l0,-0.26l0,-0.062l0.062,0c0.413,0 0.655,-0.051 0.787,-0.244c0.139,-0.206 0.175,-0.575 0.175,-1.21l0,-2.074c0,-0.638 -0.037,-1.003 -0.175,-1.205c-0.132,-0.191 -0.374,-0.237 -0.787,-0.237l-0.062,0l0,-0.063l0,-0.259l0,-0.062l3.094,0l0,0.384l-0.062,0c-0.413,0 -0.655,0.046 -0.787,0.237c-0.139,0.202 -0.176,0.567 -0.176,1.205l0.001,0l0,2.075l-0.001,0c0,0.635 0.038,1.004 0.177,1.21c0.132,0.193 0.375,0.244 0.787,0.244l0.062,0l0,0.061l-0.001,0Zm-8.353,0.508l-1.904,-4.324l0,2.301c0,0.635 0.036,1.004 0.176,1.21c0.132,0.193 0.374,0.244 0.787,0.244l0.062,0l0,0.383l-0.062,0l-2.528,0l-0.063,0l0,-0.062l0,-0.26l0,-0.062l0.063,0c0.412,0 0.654,-0.051 0.786,-0.244c0.14,-0.206 0.176,-0.575 0.176,-1.21l0,-2.074c0,-0.638 -0.036,-1.003 -0.176,-1.205c-0.132,-0.191 -0.374,-0.237 -0.786,-0.237l-0.063,0l0,-0.063l0,-0.259l0,-0.062l2.047,0l0.017,0.035l1.875,4.206l1.863,-4.206l0.016,-0.035l1.919,0l0,0.384l-0.062,0c-0.413,0 -0.658,0.046 -0.794,0.237c-0.142,0.202 -0.182,0.57 -0.182,1.205l0,2.075c0,0.635 0.041,1.004 0.182,1.207c0.136,0.196 0.381,0.247 0.794,0.247l0.062,0l0,0.383l-0.062,0l-2.97,0l-0.062,0l0,-0.062l0,-0.26l0,-0.062l0.062,0c0.413,0 0.654,-0.051 0.787,-0.244c0.139,-0.206 0.176,-0.575 0.176,-1.21l-0.001,0l0,-2.133l-1.838,4.156l-0.017,0.035l-0.04,0l-0.182,0l-0.04,0l-0.018,-0.034Zm-5.737,-3.06l0,-0.002l0,-0.004c0,-0.547 -0.141,-1.164 -0.466,-1.645c-0.323,-0.475 -0.831,-0.817 -1.571,-0.817l-0.002,0l-0.003,0c-0.739,0 -1.247,0.343 -1.57,0.817c-0.326,0.48 -0.466,1.101 -0.466,1.646l0,0.006c0.001,0.553 0.14,1.17 0.466,1.648c0.322,0.476 0.83,0.813 1.57,0.815l0.004,0c0.739,-0.002 1.248,-0.34 1.57,-0.813c0.327,-0.479 0.468,-1.099 0.468,-1.651Zm1.187,-0.002l0,0.002c0,0.854 -0.364,1.627 -0.949,2.188c-0.584,0.561 -1.391,0.908 -2.276,0.908l-0.001,0l-0.003,0c-0.884,0 -1.689,-0.348 -2.273,-0.906c-0.585,-0.561 -0.949,-1.336 -0.95,-2.189l0,-0.002l0,-0.002c0,-0.839 0.364,-1.61 0.949,-2.17c0.584,-0.56 1.39,-0.912 2.275,-0.912l0.003,0c0.884,0.002 1.69,0.353 2.273,0.912c0.587,0.557 0.951,1.33 0.952,2.171Zm-8.221,-0.181l0,2.915l-0.062,0l-0.26,0l-0.05,0l-0.01,-0.049c-0.044,-0.213 -0.159,-0.426 -0.279,-0.57c-0.023,-0.029 -0.047,-0.055 -0.068,-0.075l-0.027,-0.024c-0.271,0.274 -0.571,0.506 -0.892,0.682c-0.064,0.037 -0.132,0.071 -0.2,0.101c-0.414,0.195 -0.861,0.301 -1.323,0.301l-0.002,0l-0.002,0c-1.111,0 -2.122,-0.471 -2.854,-1.229c-0.732,-0.756 -1.186,-1.798 -1.186,-2.942l-0.001,0l0,-0.003l0,-0.002l0.001,0c0,-1.142 0.454,-2.185 1.185,-2.941c0.733,-0.756 1.744,-1.228 2.856,-1.229l0.001,0c0.666,0 1.297,0.213 1.85,0.597c0.106,0.074 0.211,0.158 0.313,0.244c0.086,0.075 0.171,0.156 0.253,0.24c0.104,-0.094 0.216,-0.24 0.295,-0.414c0.017,-0.038 0.033,-0.079 0.046,-0.121c0.014,-0.042 0.025,-0.085 0.035,-0.127l0.001,-0.004l0.009,-0.052l0.373,0l0,2.978l-0.062,0l-0.26,0l-0.05,0l-0.01,-0.049c-0.245,-1.134 -0.78,-1.965 -1.544,-2.374c-0.147,-0.079 -0.304,-0.143 -0.47,-0.189c-0.226,-0.063 -0.467,-0.098 -0.722,-0.098l-0.004,0l-0.003,0c-1.011,0 -1.7,0.488 -2.136,1.17c-0.441,0.688 -0.626,1.578 -0.626,2.37l0,0.007c0,0.792 0.186,1.678 0.626,2.361c0.436,0.679 1.125,1.163 2.137,1.165l0.003,0c1.01,0 1.799,-0.523 2.295,-1.425c0.097,-0.174 0.183,-0.365 0.256,-0.568c0.075,-0.204 0.137,-0.421 0.188,-0.65l0.001,-0.006l0.01,-0.049l0.372,0l0,0.059l-0.003,0Zm-36.624,-75.54l123.283,0l0,37.688l-8.855,0l0,1.331c3.808,0 4.496,1.01 3.441,3.487l-6.469,14.912l-6.423,-14.912c-1.055,-2.431 -0.597,-3.487 3.441,-3.487l0,-1.331l-23.49,0l-8.579,19.867l-8.855,-19.867l-20.583,0l0,1.331c3.808,0 4.405,0.781 4.405,5.368l0,11.561l-15.324,-18.26l-9.176,0l0,1.331c3.808,0 4.359,0.781 4.359,5.368l0,10.785c0,4.587 -0.551,5.368 -4.359,5.368l0,0.001l-1.267,-0.001c-3.602,4.646 -7.448,6.312 -10.141,6.25c-7.841,-0.177 -9.88,-9.649 -9.88,-15.337c0,-5.689 1.789,-12.342 8.075,-12.342c3.579,0 6.646,1.995 8.391,5.76l2.437,0l0,-7.236l-1.093,0c-0.275,1.148 -0.597,3.225 -1.193,3.685c-1.958,-2.924 -5.513,-4.41 -8.725,-4.41c-6.263,0 -11.597,4.281 -13.417,10.134l0,-47.044l-0.003,0Z" style="fill:rgb(173,33,68);"/>        </g>        <g transform="matrix(3.17646,0,0,3.05952,-2.19169,7.81414)">            <rect x="1.007" y="-1.496" width="35.498" height="127.996" style="fill:rgb(26,58,141);"/>        </g>        <g transform="matrix(3.17646,0,0,3.17646,-2.19169,3.38004)">            <path d="M16.759,79.657l1.794,5.529l5.808,0l-4.696,3.417l1.793,5.526l-4.699,-3.416l-4.697,3.416l1.794,-5.526l-4.699,-3.417l5.807,0l1.795,-5.529Z" style="fill:rgb(254,205,15);fill-rule:nonzero;"/>        </g>        <g transform="matrix(3.17646,0,0,3.17646,-2.19169,3.38004)">            <path d="M10.457,56.129l1.795,5.524l5.808,0l-4.7,3.416l1.795,5.527l-4.698,-3.414l-4.699,3.414l1.795,-5.527l-4.698,-3.416l5.808,0l1.794,-5.524Z" style="fill:rgb(254,205,15);fill-rule:nonzero;"/>        </g>        <g transform="matrix(3.17646,0,0,3.17646,-2.19169,3.38004)">            <path d="M16.759,32.598l1.794,5.526l5.808,0l-4.696,3.415l1.793,5.525l-4.699,-3.414l-4.697,3.414l1.794,-5.525l-4.699,-3.415l5.807,0l1.795,-5.526Z" style="fill:rgb(254,205,15);fill-rule:nonzero;"/>        </g>        <g transform="matrix(3.17646,0,0,3.0756,-2.19169,8.0135)">            <rect x="24.826" y="-1.553" width="23.809" height="127.327" style="fill:rgb(227,22,30);fill-rule:nonzero;"/>        </g>        <g transform="matrix(3.17646,0,0,3.17646,-2.19169,3.38004)">            <rect x="24.826" y="30.775" width="23.809" height="61.643" style="fill:rgb(248,232,37);fill-rule:nonzero;"/>        </g>    </g></svg>