<?xml version="1.0" encoding="UTF-8" standalone="no"?><!DOCTYPE svg PUBLIC "-//W3C//DTD SVG 1.1//EN" "http://www.w3.org/Graphics/SVG/1.1/DTD/svg11.dtd"><svg width="100%" height="100%" viewBox="0 0 1024 512" version="1.1" xmlns="http://www.w3.org/2000/svg" xmlns:xlink="http://www.w3.org/1999/xlink" xml:space="preserve" style="fill-rule:evenodd;clip-rule:evenodd;stroke-linejoin:round;stroke-miterlimit:2;"><title>iuvo</title><desc>We, at iuvo, are a group of young entrepreneurs who wish to re-define the way people manage their money, invest and get access to credit.Our team consists of experts in the financial services, consulting and IT industries with great passion for innovation. We have been following the fintech and crowdfunding industries very closely in the past few years and decided it’s time to join the game and offer our take on a successful business model which adds value for both investors and lenders.</desc>    <g transform="matrix(2.60269,0,0,2.60269,-134.797,-79.1297)">        <path d="M303.51,152.88c-3.43,4 -6.6,8.12 -10.85,11.24c-3.465,2.716 -7.623,4.407 -12,4.88c-8.21,0.71 -13,-3.35 -13.38,-11.63c-0.33,-6.45 1.72,-12.6 2.71,-18.88c0.77,-4.89 1.69,-9.78 2.89,-14.58c0.78,-3.13 -0.21,-3.63 -3.06,-3.3c-2,0.23 -4.7,1.45 -5.5,-2c-0.67,-2.89 -1,-5.1 3.26,-5.51c4.225,-0.549 8.327,-1.81 12.13,-3.73c0.874,-0.463 1.792,-0.838 2.74,-1.12c5,-1.2 6.19,-0.15 5.27,4.78c-2.1,11.27 -4.33,22.52 -6.35,33.81c-0.69,3.83 -2,8.26 2.3,10.76c4.3,2.5 8.31,-0.07 11.46,-3c8.09,-7.6 11.58,-17.6 13.8,-28.13c1.02,-4.847 1.923,-9.717 2.71,-14.61c0.39,-2.38 1.4,-3.2 3.91,-3.22c9.52,-0.07 9.61,-0.16 7.88,9.25c-2.3,12.53 -4.73,25 -7.13,37.55c-0.35,1.82 -1,3.77 0.58,5.21c1.76,1.61 3.79,0.84 5.51,-0.21c2,-1.25 2.47,-0.17 2.48,1.5c-0.017,0.853 -0.229,1.691 -0.62,2.45c-1.55,3.09 -8.74,5.37 -13.87,4.47c-4.45,-0.79 -6.69,-3.32 -7.23,-8.14c-0.35,-2.62 0.19,-5.12 0.36,-7.84Z" style="fill:rgb(47,60,63);fill-rule:nonzero;"/>        <path d="M352,158.83c6.926,-4.528 12.675,-10.64 16.77,-17.83c3.469,-5.849 6.018,-12.197 7.56,-18.82c1.26,-5.33 1.25,-5.25 -3.95,-6.23c-1.22,-0.23 -3.92,0.77 -3.39,-1.49c0.53,-2.26 0.94,-5.5 4.11,-5.71c4.66,-0.31 9.36,0 14,-0.11c2.65,-0.05 2.07,1.7 1.95,3.17c-0.966,9.752 -3.927,19.201 -8.7,27.76c-5.72,10.65 -13.31,19.63 -23.66,26.18c-4.63,2.93 -9.64,2.89 -14.75,2.93c-2.28,0 -1.92,-1.57 -1.95,-2.93c-0.29,-13.32 -0.65,-26.63 -0.81,-39.95c0,-3.53 -0.12,-6.21 -4.93,-5c-1.87,0.45 -4.07,0.28 -4.1,-2.79c0,-2.56 -0.14,-4.48 3.46,-4.85c4.78,-0.48 9.3,-2.34 13.75,-4.22c3.88,-1.64 4.46,-1.25 4.5,2.77c0.23,15.38 0.9,30.82 0.14,47.12Z" style="fill:rgb(47,60,63);fill-rule:nonzero;"/>        <path d="M243.93,168.53c-7.57,0 -11.17,-4.92 -9.66,-13.41c1.37,-7.66 2.93,-15.29 4.4,-22.94c0.32,-1.67 0.69,-3.33 1,-5c0.35,-2.08 1.5,-4.64 0.71,-6.13c-0.79,-1.49 -3.61,-0.14 -5.54,-0.17c-2.76,0 -3.2,-1.71 -3.35,-3.89c-0.13,-2 -0.15,-3.44 2.59,-3.75c4.908,-0.717 9.679,-2.173 14.15,-4.32c0.754,-0.373 1.554,-0.642 2.38,-0.8c5.15,-0.73 5.6,-0.29 4.65,4.69c-2.667,14.047 -5.357,28.087 -8.07,42.12c-0.35,1.83 -0.88,3.69 0.7,5.2c1.58,1.51 3.52,0.78 5.11,-0.12c2.82,-1.6 2.74,0.21 2.67,2.08c-0.092,1.593 -1.038,3.017 -2.47,3.72c-2.774,1.756 -5.987,2.699 -9.27,2.72Z" style="fill:rgb(47,60,63);fill-rule:nonzero;"/>        <path d="M262.8,93.27c0,4.27 -4.18,8.19 -8.65,8.11c-0.05,0.001 -0.101,0.002 -0.151,0.002c-3.506,0 -6.39,-2.885 -6.39,-6.39c0,-0.128 0.003,-0.255 0.011,-0.382c0.09,-4.21 3.9,-7.77 8.39,-7.82c0.15,-0.011 0.301,-0.016 0.452,-0.016c3.478,0 6.34,2.862 6.34,6.34c0,0.052 -0.001,0.104 -0.002,0.156Z" style="fill:rgb(48,61,64);fill-rule:nonzero;"/>        <path d="M444,125.24c-2,-11.89 -9.39,-18 -21.5,-17.74c-18.94,0.37 -34.63,17.75 -34.75,38.5c-0.11,17.09 10.85,26.06 27.36,22.41c18.57,-4.12 32.06,-24.28 28.89,-43.17Zm-20.11,27.88c-4.82,5.73 -11,7.76 -16.09,5.71c-4.51,-1.83 -6.92,-6.86 -6.86,-16c0.42,-6.89 2.28,-14.89 8.75,-21.07c4,-3.83 8.71,-6.17 14.23,-4c5.1,2 6.65,6.6 7,11.66c0.59,8.74 -1.31,16.86 -7.06,23.7l0.03,0Z" style="fill:rgb(47,60,63);fill-rule:nonzero;"/>        <path d="M52.56,98.2l33.66,20.23l37,-21.36l-34.55,-19.95l-36.11,20.84l0,0.24Z" style="fill:rgb(155,202,80);fill-rule:nonzero;"/>        <path d="M123.22,57.05l-34.55,19.95l34.55,19.95l34.56,-19.95l-34.56,-19.95Z" style="fill:rgb(177,209,71);fill-rule:nonzero;"/>        <path d="M52.56,137.75l33.66,-19.44l-33.66,-20.23l0,39.67Z" style="fill:rgb(129,197,84);fill-rule:nonzero;"/>        <path d="M193.88,98.2l-33.66,20.23l-37,-21.36l34.56,-19.95l36.1,20.84l0,0.24Z" style="fill:rgb(155,202,80);fill-rule:nonzero;"/>        <path d="M193.88,137.98l-33.66,-19.44l33.66,-20.23l0,39.67Z" style="fill:rgb(129,197,84);fill-rule:nonzero;"/>        <path d="M52.56,178.72l33.66,20.23l37,-21.36l-34.55,-19.95l-36.11,20.85l0,0.23Z" style="fill:rgb(0,165,88);fill-rule:nonzero;"/>        <path d="M123.22,137.57l-34.55,19.95l34.55,19.95l34.56,-19.95l-34.56,-19.95Z" style="fill:rgb(7,178,91);fill-rule:nonzero;"/>        <path d="M193.88,178.72l-33.66,20.23l-37,-21.36l34.56,-19.95l36.1,20.85l0,0.23Z" style="fill:rgb(0,165,88);fill-rule:nonzero;"/>        <path d="M241.52,178.75l-0.34,1.27l-2.92,0c0.198,0.446 0.317,0.923 0.35,1.41c0.043,0.521 -0.005,1.045 -0.14,1.55c-0.212,0.797 -0.591,1.54 -1.11,2.18c-0.544,0.668 -1.196,1.239 -1.93,1.69c-0.792,0.486 -1.651,0.853 -2.55,1.09c-0.978,0.264 -1.987,0.395 -3,0.39c-0.385,-0.001 -0.77,-0.034 -1.15,-0.1c-0.339,-0.052 -0.674,-0.132 -1,-0.24c-0.367,0.233 -0.704,0.512 -1,0.83c-0.266,0.282 -0.458,0.626 -0.56,1c-0.087,0.288 0.044,0.6 0.31,0.74c0.411,0.221 0.874,0.328 1.34,0.31l5.63,0.24c0.737,0.014 1.47,0.121 2.18,0.32c0.471,0.127 0.903,0.368 1.26,0.7c0.278,0.283 0.448,0.655 0.48,1.05c0.034,0.458 -0.013,0.918 -0.14,1.36c-0.223,0.901 -0.643,1.741 -1.23,2.46c-0.645,0.754 -1.425,1.381 -2.3,1.85c-1.003,0.54 -2.077,0.937 -3.19,1.18c-1.29,0.288 -2.608,0.429 -3.93,0.42c-1.861,0.12 -3.726,-0.174 -5.46,-0.86c-1.1,-0.573 -1.523,-1.333 -1.27,-2.28c0.125,-0.447 0.343,-0.863 0.64,-1.22c0.333,-0.408 0.705,-0.783 1.11,-1.12c0.439,-0.357 0.896,-0.691 1.37,-1l1.44,-1c-0.247,-0.077 -0.485,-0.181 -0.71,-0.31c-0.196,-0.11 -0.371,-0.252 -0.52,-0.42c-0.129,-0.151 -0.225,-0.329 -0.28,-0.52c-0.058,-0.199 -0.058,-0.411 0,-0.61c0.098,-0.363 0.268,-0.703 0.5,-1c0.27,-0.369 0.582,-0.704 0.93,-1c0.381,-0.315 0.789,-0.596 1.22,-0.84c0.44,-0.249 0.902,-0.457 1.38,-0.62c-1.784,-0.716 -2.709,-2.73 -2.09,-4.55c0.24,-0.772 0.634,-1.486 1.16,-2.1c0.538,-0.682 1.179,-1.276 1.9,-1.76c0.762,-0.512 1.594,-0.913 2.47,-1.19c0.895,-0.291 1.829,-0.439 2.77,-0.44c0.851,0.001 1.699,0.116 2.52,0.34c0.324,0.086 0.639,0.203 0.94,0.35c0.221,0.101 0.419,0.247 0.58,0.43l4.34,0.02Zm-16.21,14.44c-0.267,0.166 -0.518,0.357 -0.75,0.57c-0.222,0.206 -0.426,0.43 -0.61,0.67c-0.173,0.22 -0.327,0.454 -0.46,0.7c-0.115,0.212 -0.206,0.437 -0.27,0.67c-0.097,0.334 -0.061,0.692 0.1,1c0.201,0.357 0.504,0.646 0.87,0.83c0.521,0.274 1.081,0.466 1.66,0.57c0.817,0.154 1.648,0.224 2.48,0.21c0.942,0.008 1.883,-0.073 2.81,-0.24c0.764,-0.135 1.511,-0.35 2.23,-0.64c0.553,-0.217 1.069,-0.517 1.53,-0.89c0.332,-0.254 0.579,-0.603 0.71,-1c0.223,-0.582 -0.051,-1.246 -0.62,-1.5c-0.842,-0.361 -1.756,-0.522 -2.67,-0.47c-0.733,0 -1.473,-0.017 -2.22,-0.05c-0.747,-0.033 -1.44,-0.073 -2.08,-0.12l-1.68,-0.15c-0.487,-0.067 -0.83,-0.12 -1.03,-0.16Zm5.32,-5.65c0.455,-0.005 0.904,-0.104 1.32,-0.29c0.466,-0.203 0.898,-0.476 1.28,-0.81c0.403,-0.35 0.756,-0.754 1.05,-1.2c0.302,-0.45 0.528,-0.947 0.67,-1.47c0.192,-0.683 0.277,-1.391 0.25,-2.1c-0.019,-0.58 -0.152,-1.151 -0.39,-1.68c-0.204,-0.45 -0.525,-0.837 -0.93,-1.12c-0.406,-0.276 -0.889,-0.42 -1.38,-0.41c-0.492,-0.005 -0.978,0.105 -1.42,0.32c-0.441,0.219 -0.837,0.517 -1.17,0.88c-0.367,0.4 -0.674,0.851 -0.91,1.34c-0.257,0.522 -0.461,1.068 -0.61,1.63c-0.177,0.635 -0.265,1.291 -0.26,1.95c-0.003,0.538 0.099,1.071 0.3,1.57c0.181,0.405 0.472,0.752 0.84,1c0.404,0.272 0.884,0.408 1.37,0.39l-0.01,0Z" style="fill:rgb(105,105,106);fill-rule:nonzero;"/>        <path d="M244.6,178l3,0l-0.78,2.91c0.413,-0.427 0.843,-0.837 1.29,-1.23c0.427,-0.363 0.878,-0.698 1.35,-1c0.421,-0.279 0.87,-0.514 1.34,-0.7c0.407,-0.166 0.841,-0.254 1.28,-0.26c0.303,-0.005 0.605,0.046 0.89,0.15c0.238,0.088 0.456,0.224 0.64,0.4c0.351,0.333 0.486,0.836 0.35,1.3c-0.108,0.456 -0.383,0.856 -0.77,1.12c-0.418,0.264 -0.906,0.397 -1.4,0.38c-0.268,0.01 -0.535,-0.028 -0.79,-0.11c-0.171,-0.064 -0.335,-0.144 -0.49,-0.24c-0.142,-0.089 -0.288,-0.169 -0.44,-0.24c-0.413,-0.166 -0.878,-0.14 -1.27,0.07c-0.267,0.139 -0.519,0.307 -0.75,0.5c-0.29,0.239 -0.567,0.492 -0.83,0.76c-0.287,0.293 -0.58,0.627 -0.88,1l-2.85,10.65l-3,0l4.11,-15.46Z" style="fill:rgb(105,105,106);fill-rule:nonzero;"/>        <path d="M259.28,193.65c-1.063,0.021 -2.117,-0.191 -3.09,-0.62c-1.704,-0.739 -2.901,-2.32 -3.15,-4.16c-0.14,-1.004 -0.069,-2.026 0.21,-3c0.308,-1.141 0.805,-2.223 1.47,-3.2c0.661,-0.982 1.467,-1.858 2.39,-2.6c0.904,-0.734 1.916,-1.324 3,-1.75c1.094,-0.424 2.257,-0.641 3.43,-0.64c1.057,-0.021 2.106,0.18 3.08,0.59c0.834,0.354 1.569,0.906 2.14,1.61c0.548,0.698 0.91,1.524 1.05,2.4c0.163,1.001 0.101,2.026 -0.18,3c-0.314,1.171 -0.817,2.282 -1.49,3.29c-0.669,1.012 -1.484,1.918 -2.42,2.69c-0.919,0.762 -1.952,1.376 -3.06,1.82c-1.08,0.402 -2.227,0.596 -3.38,0.57Zm0.88,-1.13c0.623,-0.006 1.235,-0.168 1.78,-0.47c0.609,-0.328 1.162,-0.75 1.64,-1.25c0.525,-0.545 0.976,-1.157 1.34,-1.82c0.386,-0.694 0.685,-1.433 0.89,-2.2c0.282,-1.023 0.467,-2.072 0.55,-3.13c0.08,-0.855 -0.005,-1.717 -0.25,-2.54c-0.209,-0.688 -0.638,-1.289 -1.22,-1.71c-0.706,-0.449 -1.535,-0.666 -2.37,-0.62c-0.565,0.012 -1.118,0.163 -1.61,0.44c-0.589,0.323 -1.126,0.734 -1.59,1.22c-0.525,0.542 -0.982,1.147 -1.36,1.8c-0.404,0.685 -0.714,1.422 -0.92,2.19c-0.287,1.027 -0.451,2.084 -0.49,3.15c-0.041,0.87 0.074,1.741 0.34,2.57c0.221,0.682 0.638,1.284 1.2,1.73c0.596,0.444 1.327,0.67 2.07,0.64Z" style="fill:rgb(105,105,106);fill-rule:nonzero;"/>        <path d="M277.59,178l-2.93,10.93c-0.094,0.354 -0.094,0.726 0,1.08c0.083,0.332 0.252,0.635 0.49,0.88c0.258,0.259 0.568,0.461 0.91,0.59c0.402,0.153 0.83,0.228 1.26,0.22c0.341,-0.01 0.679,-0.074 1,-0.19c0.4,-0.141 0.786,-0.322 1.15,-0.54c0.399,-0.235 0.78,-0.499 1.14,-0.79c0.367,-0.298 0.702,-0.633 1,-1l3,-11.22l3,0l-4.12,15.37l-3,0l0.77,-2.88c-0.404,0.46 -0.853,0.878 -1.34,1.25c-0.501,0.377 -1.033,0.711 -1.59,1c-0.524,0.281 -1.073,0.512 -1.64,0.69c-0.482,0.156 -0.984,0.241 -1.49,0.25c-0.618,0.011 -1.23,-0.119 -1.79,-0.38c-1.018,-0.469 -1.734,-1.422 -1.9,-2.53c-0.094,-0.618 -0.053,-1.249 0.12,-1.85l2.91,-10.88l3.05,0Z" style="fill:rgb(105,105,106);fill-rule:nonzero;"/>        <path d="M291.23,178l3,0l-0.84,3.13c0.407,-0.393 0.853,-0.793 1.34,-1.2c0.488,-0.408 1.007,-0.779 1.55,-1.11c0.547,-0.332 1.126,-0.607 1.73,-0.82c0.61,-0.215 1.253,-0.323 1.9,-0.32c0.811,-0.024 1.613,0.173 2.32,0.57c0.631,0.369 1.147,0.905 1.49,1.55c0.365,0.714 0.57,1.499 0.6,2.3c0.045,0.948 -0.063,1.897 -0.32,2.81c-0.325,1.232 -0.82,2.414 -1.47,3.51c-0.609,1.032 -1.367,1.969 -2.25,2.78c-0.838,0.769 -1.802,1.388 -2.85,1.83c-1.044,0.44 -2.167,0.664 -3.3,0.66c-0.391,0.004 -0.782,-0.017 -1.17,-0.06c-0.338,-0.038 -0.673,-0.105 -1,-0.2c-0.298,-0.087 -0.586,-0.204 -0.86,-0.35c-0.277,-0.152 -0.541,-0.326 -0.79,-0.52l-2,7.29l-3,0l5.92,-21.85Zm0,11.22c-0.105,0.427 -0.105,0.873 0,1.3c0.085,0.401 0.278,0.772 0.56,1.07c0.31,0.321 0.69,0.567 1.11,0.72c0.51,0.184 1.049,0.272 1.59,0.26c0.603,-0.008 1.196,-0.159 1.73,-0.44c0.615,-0.318 1.173,-0.737 1.65,-1.24c0.549,-0.572 1.019,-1.214 1.4,-1.91c0.434,-0.779 0.77,-1.608 1,-2.47c0.281,-0.978 0.449,-1.984 0.5,-3c0.044,-0.714 -0.048,-1.43 -0.27,-2.11c-0.166,-0.509 -0.493,-0.951 -0.93,-1.26c-0.443,-0.287 -0.962,-0.433 -1.49,-0.42c-0.455,0.001 -0.907,0.072 -1.34,0.21c-0.447,0.14 -0.879,0.325 -1.29,0.55c-0.424,0.23 -0.829,0.494 -1.21,0.79c-0.376,0.291 -0.733,0.605 -1.07,0.94l-1.94,7.01Z" style="fill:rgb(105,105,106);fill-rule:nonzero;"/>    </g></svg>