<?xml version="1.0" encoding="UTF-8" standalone="no"?><!DOCTYPE svg PUBLIC "-//W3C//DTD SVG 1.1//EN" "http://www.w3.org/Graphics/SVG/1.1/DTD/svg11.dtd"><svg width="100%" height="100%" viewBox="0 0 1024 512" version="1.1" xmlns="http://www.w3.org/2000/svg" xmlns:xlink="http://www.w3.org/1999/xlink" xml:space="preserve" style="fill-rule:evenodd;clip-rule:evenodd;stroke-linejoin:round;stroke-miterlimit:2;"><title>Foxstone</title><desc>Specializing in real estate crowdfunding, Foxstone offers a direct access to the Swiss real estate market from CHF 25’000 to democratize investments in Switzerland.Focused on simplicity and transparency, the intuitive platform allows investors to become co-owners of a yield building and benefit from rental income.Foxstone offers a turnkey service where every procedure is done online. From the selection to the management of the building, Foxstone takes care of all the formalities on behalf of the investors.</desc>    <g transform="matrix(2.9986,0,0,2.9986,-2208,-79.0245)">        <g transform="matrix(2,0,0,2,1074.87,148.377)">            <path d="M0,-1.894c0,-4.63 -2.301,-6.876 -5.753,-6.876c-3.298,0 -6.289,2.596 -6.673,6.876l12.426,0Zm-13.653,0.983c0,-5.472 3.834,-8.841 7.9,-8.841c4.219,0 6.903,2.737 6.903,7.717c0,0.352 0,0.702 -0.077,1.124l-13.499,0c0,4.489 2.838,7.786 7.21,7.786c2.071,0 3.682,-0.631 5.062,-1.542l0.538,0.911c-1.381,0.772 -2.915,1.614 -5.676,1.614c-4.603,0 -8.361,-3.298 -8.361,-8.769" style="fill:rgb(244,117,60);fill-rule:nonzero;"/>        </g>        <g transform="matrix(2,0,0,2,1006.6,162.406)">            <path d="M0,-16.345l0.997,0l0.155,2.666l0.076,0c1.917,-1.755 3.833,-3.088 6.366,-3.088c3.759,0 5.522,2.036 5.522,6.385l0,10.804l-1.15,0l0,-10.663c0,-3.72 -1.304,-5.543 -4.449,-5.543c-2.301,0 -3.988,1.122 -6.365,3.368l0,12.838l-1.152,0l0,-16.767Z" style="fill:rgb(244,117,60);fill-rule:nonzero;"/>        </g>        <g transform="matrix(2,0,0,2,988.807,146.411)">            <path d="M0,0.071c0,-4.63 -2.991,-7.858 -6.903,-7.858c-3.912,0 -6.904,3.228 -6.904,7.858c0,4.63 2.992,7.787 6.904,7.787c3.912,0 6.903,-3.157 6.903,-7.787m-15.034,0c0,-5.613 3.759,-8.84 8.131,-8.84c4.372,0 8.131,3.227 8.131,8.84c0,5.543 -3.759,8.769 -8.131,8.769c-4.372,0 -8.131,-3.226 -8.131,-8.769" style="fill:rgb(244,117,60);fill-rule:nonzero;"/>        </g>        <g transform="matrix(2,0,0,2,936.498,129.573)">            <path d="M0,12.419l0,-11.365l-2.915,0l0,-0.842l2.915,-0.141l0.153,-4.911l0.999,0l0,4.911l5.444,0l0,0.983l-5.444,0l0,11.506c0,2.175 0.536,3.719 3.22,3.719c0.69,0 1.688,-0.282 2.377,-0.563l0.384,0.913c-1.073,0.35 -2.225,0.63 -2.838,0.63c-3.374,0 -4.295,-1.964 -4.295,-4.84" style="fill:rgb(244,117,60);fill-rule:nonzero;"/>        </g>        <g transform="matrix(2,0,0,2,897.994,133.504)">            <path d="M0,12.979l0.766,-0.842c1.535,1.193 3.222,2.175 5.983,2.175c3.069,0 4.679,-1.683 4.679,-3.579c0,-2.243 -2.454,-3.226 -4.602,-3.928c-2.838,-0.911 -5.983,-1.894 -5.983,-4.77c0,-2.315 1.995,-4.351 5.753,-4.351c1.841,0 3.759,0.704 5.062,1.684l-0.69,0.843c-1.226,-0.843 -2.531,-1.544 -4.448,-1.544c-3.068,0 -4.449,1.65 -4.449,3.297c0,2.035 2.224,2.806 4.449,3.579c2.913,1.018 6.135,1.823 6.135,5.121c0,2.456 -2.147,4.631 -5.983,4.631c-2.761,0 -5.061,-1.053 -6.672,-2.316" style="fill:rgb(244,117,60);fill-rule:nonzero;"/>        </g>        <g transform="matrix(2,0,0,2,875.136,147.255)">            <path d="M0,-0.772l-5.753,-7.997l1.304,0l3.145,4.489c0.614,0.912 1.304,1.825 1.994,2.736l0.154,0c0.69,-0.911 1.304,-1.824 1.994,-2.736l3.068,-4.489l1.227,0l-5.751,8.067l6.288,8.699l-1.303,0l-3.453,-4.84c-0.69,-1.053 -1.457,-2.105 -2.224,-3.087l-0.154,0c-0.766,0.982 -1.456,2.034 -2.224,3.087l-3.373,4.84l-1.229,0l6.29,-8.769Z" style="fill:rgb(244,117,60);fill-rule:nonzero;"/>        </g>        <g transform="matrix(2,0,0,2,851.819,146.411)">            <path d="M0,0.071c0,-4.63 -2.991,-7.858 -6.903,-7.858c-3.912,0 -6.904,3.228 -6.904,7.858c0,4.63 2.992,7.787 6.904,7.787c3.912,0 6.903,-3.157 6.903,-7.787m-15.034,0c0,-5.613 3.759,-8.84 8.131,-8.84c4.372,0 8.131,3.227 8.131,8.84c0,5.543 -3.759,8.769 -8.131,8.769c-4.372,0 -8.131,-3.226 -8.131,-8.769" style="fill:rgb(244,117,60);fill-rule:nonzero;"/>        </g>        <g transform="matrix(2,0,0,2,802.883,143.33)">            <path d="M0,-5.825l-2.531,0l0,-0.842l2.531,-0.141l0,-4.139c0,-3.297 1.611,-4.839 4.218,-4.839c0.767,0 1.688,0.209 2.531,0.56l-0.382,0.911c-0.767,-0.35 -1.535,-0.49 -2.225,-0.49c-2.071,0 -2.99,1.474 -2.99,3.999l0,3.998l4.371,0l0,0.983l-4.371,0l0,15.786l-1.152,0l0,-15.786Z" style="fill:rgb(244,117,60);fill-rule:nonzero;"/>        </g>        <g transform="matrix(3.67419,12.4035,-12.4035,3.67419,830.831,62.2339)">            <path d="M-0.184,0.312l1.524,0l-0.226,-0.974l-1.32,0.94l0.022,0.034Z" style="fill:url(#_Linear1);fill-rule:nonzero;"/>        </g>        <g transform="matrix(13.345,13.9069,-13.9069,13.345,767.986,129.204)">            <path d="M0.35,0.585l0.281,0l0.137,-1.057l-0.562,0.057l0.144,1Z" style="fill:url(#_Linear2);fill-rule:nonzero;"/>        </g>        <g transform="matrix(28.2537,-6.90754,6.90754,28.2537,753.639,151.582)">            <path d="M0.442,-0.235c-0.05,0.233 -0.1,0.465 -0.15,0.699l0.15,-0.042c0.096,-0.293 0.19,-0.587 0.285,-0.881c-0.095,0.075 -0.189,0.15 -0.285,0.224Z" style="fill:url(#_Linear3);fill-rule:nonzero;"/>        </g>        <g transform="matrix(4.30652,18.8508,-18.8508,4.30652,777.394,114.491)">            <path d="M0.084,0.396l0.638,0l0.326,-0.549l-0.929,-0.425l-0.035,0.974Z" style="fill:url(#_Linear4);fill-rule:nonzero;"/>        </g>        <g transform="matrix(21.6149,7.78797,-7.78797,21.6149,750.066,102.424)">            <path d="M-0.303,0.175l1.442,0l-0.112,-0.48l-0.853,-0.067l-0.477,0.547Z" style="fill:url(#_Linear5);fill-rule:nonzero;"/>        </g>        <g transform="matrix(0,-38.6128,38.6128,0,754.167,114.249)">            <path d="M0.892,-0.444l-0.19,0.041l-0.441,0.099l-0.261,0.748l1,-0.786l-0.108,-0.102Z" style="fill:url(#_Linear6);fill-rule:nonzero;"/>        </g>        <g transform="matrix(16.4065,5.41512,-5.41512,16.4065,811.613,93.6429)">            <path d="M-0.059,0.172l0.956,0l0.224,-0.288l-0.73,-0.378l-0.45,0.666Z" style="fill:url(#_Linear7);fill-rule:nonzero;"/>        </g>        <g transform="matrix(47.8939,-27.6516,27.6516,47.8939,766.72,106.265)">            <path d="M0.152,-0.022l-0.152,0.189l0.814,0.091l0.186,-0.023l-0.142,-0.493l-0.706,0.236Z" style="fill:url(#_Linear8);fill-rule:nonzero;"/>        </g>        <g transform="matrix(18.7166,18.1477,-18.1477,18.7166,809.56,66.6791)">            <path d="M-0.151,0.335l1.111,0l-0.081,-0.611l-0.648,-0.32l-0.382,0.931Z" style="fill:url(#_Linear9);fill-rule:nonzero;"/>        </g>        <g transform="matrix(1.70322,10.5726,-10.5726,1.70322,841.691,73.6529)">            <path d="M0.09,0.18l0.889,0l-0.405,-0.414l-0.567,0.15l0.083,0.264Z" style="fill:url(#_Linear10);fill-rule:nonzero;"/>        </g>        <g transform="matrix(6.15973,10.1051,-10.1051,6.15973,836.288,79.3753)">            <path d="M-0.153,0.485l1.183,0l0.237,-0.39l-1.524,-0.613l0.104,1.003Z" style="fill:url(#_Linear11);fill-rule:nonzero;"/>        </g>        <g transform="matrix(15.0783,11.5974,-11.5974,15.0783,831.781,60.1976)">            <path d="M-0.311,0.206l1.197,0l0.393,-0.335l0.005,-0.088l-1.595,0.423Z" style="fill:url(#_Linear12);fill-rule:nonzero;"/>        </g>        <g transform="matrix(3.97209,13.6362,-13.6362,3.97209,829.249,61.1566)">            <path d="M-0.189,0.306l1.541,0l-0.237,-0.971l-1.326,0.937l0.022,0.034Z" style="fill:url(#_Linear13);fill-rule:nonzero;"/>        </g>        <g transform="matrix(9.63208,-5.56109,5.56109,9.63208,821.623,104.493)">            <path d="M0,0.554l0,0l0.326,0.123l0.676,-0.792l-0.144,-0.562l-0.858,1.231Z" style="fill:url(#_Linear14);fill-rule:nonzero;"/>        </g>        <g transform="matrix(25.0458,-14.4602,14.4602,25.0458,767.416,113.663)">            <path d="M0.398,-0.276c-0.133,0.155 -0.265,0.312 -0.398,0.468l0.595,0.285l0.337,-0.294c0.023,-0.22 0.045,-0.44 0.068,-0.66c-0.2,0.067 -0.401,0.133 -0.602,0.201Z" style="fill:url(#_Linear15);fill-rule:nonzero;"/>        </g>        <g transform="matrix(0,-24.1974,24.1974,0,743.491,90.2116)">            <path d="M0.428,-0.268l-0.428,0.093c-0.004,0.007 0.33,0.156 1,0.443c-0.192,-0.179 -0.382,-0.357 -0.572,-0.536Z" style="fill:url(#_Linear16);fill-rule:nonzero;"/>        </g>    </g>    <defs>        <linearGradient id="_Linear1" x1="0" y1="0" x2="1" y2="0" gradientUnits="userSpaceOnUse" gradientTransform="matrix(-0.233438,-0.972372,-0.972372,0.233438,0.61665,0.486132)"><stop offset="0" style="stop-color:rgb(238,113,51);stop-opacity:1"/><stop offset="1" style="stop-color:rgb(199,95,40);stop-opacity:1"/></linearGradient>        <linearGradient id="_Linear2" x1="0" y1="0" x2="1" y2="0" gradientUnits="userSpaceOnUse" gradientTransform="matrix(-0.721535,-0.692378,-0.692378,0.721535,0.860721,0.34617)"><stop offset="0" style="stop-color:rgb(238,113,51);stop-opacity:1"/><stop offset="0.26" style="stop-color:rgb(235,112,50);stop-opacity:1"/><stop offset="0.5" style="stop-color:rgb(226,108,45);stop-opacity:1"/><stop offset="0.73" style="stop-color:rgb(214,103,44);stop-opacity:1"/><stop offset="0.96" style="stop-color:rgb(195,93,40);stop-opacity:1"/><stop offset="0.96" style="stop-color:rgb(195,93,40);stop-opacity:1"/><stop offset="1" style="stop-color:rgb(195,93,40);stop-opacity:1"/></linearGradient>        <linearGradient id="_Linear3" x1="0" y1="0" x2="1" y2="0" gradientUnits="userSpaceOnUse" gradientTransform="matrix(0.237488,-0.97139,-0.97139,-0.237488,0.381244,0.48568)"><stop offset="0" style="stop-color:rgb(238,113,51);stop-opacity:1"/><stop offset="0.26" style="stop-color:rgb(235,112,50);stop-opacity:1"/><stop offset="0.5" style="stop-color:rgb(226,108,45);stop-opacity:1"/><stop offset="0.73" style="stop-color:rgb(214,103,44);stop-opacity:1"/><stop offset="0.96" style="stop-color:rgb(195,93,40);stop-opacity:1"/><stop offset="0.96" style="stop-color:rgb(195,93,40);stop-opacity:1"/><stop offset="1" style="stop-color:rgb(195,93,40);stop-opacity:1"/></linearGradient>        <linearGradient id="_Linear4" x1="0" y1="0" x2="1" y2="0" gradientUnits="userSpaceOnUse" gradientTransform="matrix(-0.974884,-0.222715,-0.222715,0.974884,0.987463,0.11136)"><stop offset="0" style="stop-color:rgb(238,113,51);stop-opacity:1"/><stop offset="0.26" style="stop-color:rgb(235,112,50);stop-opacity:1"/><stop offset="0.5" style="stop-color:rgb(226,108,45);stop-opacity:1"/><stop offset="0.73" style="stop-color:rgb(214,103,44);stop-opacity:1"/><stop offset="0.96" style="stop-color:rgb(195,93,40);stop-opacity:1"/><stop offset="0.96" style="stop-color:rgb(195,93,40);stop-opacity:1"/><stop offset="1" style="stop-color:rgb(195,93,40);stop-opacity:1"/></linearGradient>        <linearGradient id="_Linear5" x1="0" y1="0" x2="1" y2="0" gradientUnits="userSpaceOnUse" gradientTransform="matrix(0.425552,-0.904934,-0.904934,-0.425552,0.287138,0.452331)"><stop offset="0" style="stop-color:rgb(238,113,51);stop-opacity:1"/><stop offset="0.26" style="stop-color:rgb(235,112,50);stop-opacity:1"/><stop offset="0.5" style="stop-color:rgb(226,108,45);stop-opacity:1"/><stop offset="0.73" style="stop-color:rgb(214,103,44);stop-opacity:1"/><stop offset="0.96" style="stop-color:rgb(195,93,40);stop-opacity:1"/><stop offset="0.96" style="stop-color:rgb(195,93,40);stop-opacity:1"/><stop offset="1" style="stop-color:rgb(195,93,40);stop-opacity:1"/></linearGradient>        <linearGradient id="_Linear6" x1="0" y1="0" x2="1" y2="0" gradientUnits="userSpaceOnUse" gradientTransform="matrix(1,0,0,-1,0,4.2877e-05)"><stop offset="0" style="stop-color:rgb(238,113,51);stop-opacity:1"/><stop offset="0.26" style="stop-color:rgb(235,112,50);stop-opacity:1"/><stop offset="0.5" style="stop-color:rgb(226,108,45);stop-opacity:1"/><stop offset="0.73" style="stop-color:rgb(214,103,44);stop-opacity:1"/><stop offset="0.96" style="stop-color:rgb(195,93,40);stop-opacity:1"/><stop offset="0.96" style="stop-color:rgb(195,93,40);stop-opacity:1"/><stop offset="1" style="stop-color:rgb(195,93,40);stop-opacity:1"/></linearGradient>        <linearGradient id="_Linear7" x1="0" y1="0" x2="1" y2="0" gradientUnits="userSpaceOnUse" gradientTransform="matrix(0.665674,-0.746242,-0.746242,-0.665674,0.167171,0.373139)"><stop offset="0" style="stop-color:rgb(209,102,44);stop-opacity:1"/><stop offset="0.14" style="stop-color:rgb(221,106,43);stop-opacity:1"/><stop offset="0.32" style="stop-color:rgb(232,109,48);stop-opacity:1"/><stop offset="0.55" style="stop-color:rgb(236,110,50);stop-opacity:1"/><stop offset="1" style="stop-color:rgb(237,111,51);stop-opacity:1"/></linearGradient>        <linearGradient id="_Linear8" x1="0" y1="0" x2="1" y2="0" gradientUnits="userSpaceOnUse" gradientTransform="matrix(1,5.55112e-17,5.55112e-17,-1,0,-3.55465e-06)"><stop offset="0" style="stop-color:rgb(238,113,51);stop-opacity:1"/><stop offset="0.42" style="stop-color:rgb(236,112,51);stop-opacity:1"/><stop offset="0.57" style="stop-color:rgb(233,110,48);stop-opacity:1"/><stop offset="0.68" style="stop-color:rgb(224,108,44);stop-opacity:1"/><stop offset="0.72" style="stop-color:rgb(218,106,43);stop-opacity:1"/><stop offset="0.85" style="stop-color:rgb(217,105,44);stop-opacity:1"/><stop offset="0.9" style="stop-color:rgb(214,103,43);stop-opacity:1"/><stop offset="0.94" style="stop-color:rgb(204,98,42);stop-opacity:1"/><stop offset="0.96" style="stop-color:rgb(195,93,40);stop-opacity:1"/><stop offset="1" style="stop-color:rgb(195,93,40);stop-opacity:1"/></linearGradient>        <linearGradient id="_Linear9" x1="0" y1="0" x2="1" y2="0" gradientUnits="userSpaceOnUse" gradientTransform="matrix(0.273695,-0.961817,-0.961817,-0.273695,0.36315,0.480905)"><stop offset="0" style="stop-color:rgb(239,126,48);stop-opacity:1"/><stop offset="0.32" style="stop-color:rgb(237,125,49);stop-opacity:1"/><stop offset="0.56" style="stop-color:rgb(231,119,49);stop-opacity:1"/><stop offset="0.77" style="stop-color:rgb(220,111,42);stop-opacity:1"/><stop offset="0.96" style="stop-color:rgb(203,98,42);stop-opacity:1"/><stop offset="1" style="stop-color:rgb(199,95,40);stop-opacity:1"/></linearGradient>        <linearGradient id="_Linear10" x1="0" y1="0" x2="1" y2="0" gradientUnits="userSpaceOnUse" gradientTransform="matrix(-0.987271,-0.159047,-0.159047,0.987271,0.995281,0.0796554)"><stop offset="0" style="stop-color:rgb(238,113,51);stop-opacity:1"/><stop offset="0.24" style="stop-color:rgb(236,112,51);stop-opacity:1"/><stop offset="0.42" style="stop-color:rgb(229,109,46);stop-opacity:1"/><stop offset="0.59" style="stop-color:rgb(217,105,43);stop-opacity:1"/><stop offset="0.74" style="stop-color:rgb(201,97,42);stop-opacity:1"/><stop offset="0.89" style="stop-color:rgb(178,88,39);stop-opacity:1"/><stop offset="1" style="stop-color:rgb(158,77,35);stop-opacity:1"/></linearGradient>        <linearGradient id="_Linear11" x1="0" y1="0" x2="1" y2="0" gradientUnits="userSpaceOnUse" gradientTransform="matrix(0.0238244,-0.999716,-0.999716,-0.0238244,0.488015,0.499783)"><stop offset="0" style="stop-color:rgb(238,113,51);stop-opacity:1"/><stop offset="0.94" style="stop-color:rgb(201,96,40);stop-opacity:1"/><stop offset="1" style="stop-color:rgb(123,56,11);stop-opacity:1"/></linearGradient>        <linearGradient id="_Linear12" x1="0" y1="0" x2="1" y2="0" gradientUnits="userSpaceOnUse" gradientTransform="matrix(0.381625,-0.924317,-0.924317,-0.381625,0.309183,0.462152)"><stop offset="0" style="stop-color:rgb(238,113,51);stop-opacity:1"/><stop offset="1" style="stop-color:rgb(199,95,40);stop-opacity:1"/></linearGradient>        <linearGradient id="_Linear13" x1="0" y1="0" x2="1" y2="0" gradientUnits="userSpaceOnUse" gradientTransform="matrix(-0.23785,-0.971302,-0.971302,0.23785,0.618833,0.485579)"><stop offset="0" style="stop-color:rgb(238,113,51);stop-opacity:1"/><stop offset="1" style="stop-color:rgb(199,95,40);stop-opacity:1"/></linearGradient>        <linearGradient id="_Linear14" x1="0" y1="0" x2="1" y2="0" gradientUnits="userSpaceOnUse" gradientTransform="matrix(1,0,0,-1,0,4.70727e-05)"><stop offset="0" style="stop-color:rgb(238,113,51);stop-opacity:1"/><stop offset="0.97" style="stop-color:rgb(215,98,49);stop-opacity:1"/><stop offset="1" style="stop-color:rgb(215,98,49);stop-opacity:1"/></linearGradient>        <linearGradient id="_Linear15" x1="0" y1="0" x2="1" y2="0" gradientUnits="userSpaceOnUse" gradientTransform="matrix(1,-5.55112e-17,-5.55112e-17,-1,0,2.52219e-05)"><stop offset="0" style="stop-color:rgb(238,113,51);stop-opacity:1"/><stop offset="0.35" style="stop-color:rgb(229,109,46);stop-opacity:1"/><stop offset="0.95" style="stop-color:rgb(210,100,43);stop-opacity:1"/><stop offset="0.96" style="stop-color:rgb(210,100,43);stop-opacity:1"/><stop offset="1" style="stop-color:rgb(210,100,43);stop-opacity:1"/></linearGradient>        <linearGradient id="_Linear16" x1="0" y1="0" x2="1" y2="0" gradientUnits="userSpaceOnUse" gradientTransform="matrix(1,0,0,-1,0,-3.92604e-05)"><stop offset="0" style="stop-color:rgb(238,113,51);stop-opacity:1"/><stop offset="0.26" style="stop-color:rgb(235,112,50);stop-opacity:1"/><stop offset="0.5" style="stop-color:rgb(226,108,45);stop-opacity:1"/><stop offset="0.73" style="stop-color:rgb(214,103,44);stop-opacity:1"/><stop offset="0.96" style="stop-color:rgb(195,93,40);stop-opacity:1"/><stop offset="0.96" style="stop-color:rgb(195,93,40);stop-opacity:1"/><stop offset="1" style="stop-color:rgb(195,93,40);stop-opacity:1"/></linearGradient>    </defs></svg>