<?xml version="1.0" encoding="UTF-8" standalone="no"?><!DOCTYPE svg PUBLIC "-//W3C//DTD SVG 1.1//EN" "http://www.w3.org/Graphics/SVG/1.1/DTD/svg11.dtd"><svg width="100%" height="100%" viewBox="0 0 1024 512" version="1.1" xmlns="http://www.w3.org/2000/svg" xmlns:xlink="http://www.w3.org/1999/xlink" xml:space="preserve" style="fill-rule:evenodd;clip-rule:evenodd;stroke-linejoin:round;stroke-miterlimit:2;"><title>Folk2Folk</title><desc>FOLK2FOLK introduces credit-worthy businesses looking for interest-only finance to grow, develop or diversify to individuals seeking a great return on their capital secured against property.</desc>    <g transform="matrix(3.01049,0,0,2.20062,-599.22,-844.805)">        <g transform="matrix(2.94489,0,0,4.04808,199.708,520.993)">            <path d="M0,-10.261c0,-0.846 0.454,-1.269 1.362,-1.269l6.623,0c0.746,0 1.119,0.336 1.119,1.008c0,0.236 -0.037,0.451 -0.112,0.643c-0.074,0.193 -0.13,0.321 -0.168,0.383l-6.567,0l0,3.395l5.187,0c0.746,0 1.119,0.336 1.119,1.008c0,0.236 -0.037,0.451 -0.112,0.643c-0.074,0.193 -0.13,0.321 -0.168,0.383l-6.026,0l0,5.336l-2.257,0l0,-11.53Z" style="fill:rgb(11,51,97);fill-rule:nonzero;"/>        </g>        <g transform="matrix(2.94489,0,0,4.04808,249.97,481.196)">            <path d="M0,9.402c0.646,0 1.243,-0.118 1.791,-0.354c0.547,-0.237 1.02,-0.563 1.418,-0.98c0.398,-0.417 0.712,-0.911 0.942,-1.483c0.23,-0.572 0.345,-1.2 0.345,-1.884c0,-0.684 -0.115,-1.316 -0.345,-1.894c-0.23,-0.578 -0.544,-1.076 -0.942,-1.493c-0.398,-0.416 -0.871,-0.739 -1.418,-0.97c-0.548,-0.23 -1.145,-0.345 -1.791,-0.345c-0.647,0 -1.244,0.115 -1.791,0.345c-0.548,0.231 -1.023,0.554 -1.427,0.97c-0.405,0.417 -0.719,0.915 -0.942,1.493c-0.224,0.578 -0.336,1.21 -0.336,1.894c0,0.684 0.112,1.312 0.336,1.884c0.223,0.572 0.537,1.066 0.942,1.483c0.404,0.417 0.879,0.743 1.427,0.98c0.547,0.236 1.144,0.354 1.791,0.354m0,-11.436c0.97,0 1.869,0.171 2.696,0.513c0.827,0.342 1.548,0.814 2.164,1.418c0.616,0.603 1.097,1.315 1.446,2.136c0.348,0.821 0.522,1.71 0.522,2.668c0,0.957 -0.174,1.847 -0.522,2.667c-0.349,0.821 -0.83,1.533 -1.446,2.137c-0.616,0.603 -1.337,1.075 -2.164,1.417c-0.827,0.343 -1.726,0.514 -2.696,0.514c-0.97,0 -1.869,-0.171 -2.696,-0.514c-0.827,-0.342 -1.548,-0.814 -2.164,-1.417c-0.616,-0.604 -1.098,-1.316 -1.446,-2.137c-0.348,-0.82 -0.522,-1.71 -0.522,-2.667c0,-0.958 0.174,-1.847 0.522,-2.668c0.348,-0.821 0.83,-1.533 1.446,-2.136c0.616,-0.604 1.337,-1.076 2.164,-1.418c0.827,-0.342 1.726,-0.513 2.696,-0.513" style="fill:rgb(11,51,97);fill-rule:nonzero;"/>        </g>        <g transform="matrix(2.94489,0,0,4.04808,277.33,521.975)">            <path d="M0,-10.746c0,-0.348 0.106,-0.606 0.317,-0.774c0.212,-0.168 0.497,-0.252 0.858,-0.252c0.237,0 0.454,0.031 0.653,0.093c0.199,0.063 0.33,0.106 0.392,0.131l0,10.541l6.586,0l0,2.033l-8.806,0l0,-11.772Z" style="fill:rgb(11,51,97);fill-rule:nonzero;"/>        </g>        <g transform="matrix(2.94489,0,0,4.04808,308.37,521.975)">            <path d="M0,-10.746c0,-0.348 0.106,-0.606 0.317,-0.774c0.212,-0.168 0.497,-0.252 0.858,-0.252c0.237,0 0.454,0.031 0.653,0.093c0.199,0.063 0.33,0.106 0.392,0.131l0,5.196c0.311,-0.298 0.703,-0.667 1.175,-1.108c0.473,-0.441 0.955,-0.885 1.446,-1.331c0.492,-0.447 0.955,-0.863 1.39,-1.248c0.436,-0.385 0.771,-0.676 1.008,-0.875c0.311,-0.249 0.594,-0.454 0.848,-0.616c0.255,-0.161 0.563,-0.242 0.924,-0.242c0.398,0 0.721,0.084 0.97,0.252c0.249,0.168 0.411,0.301 0.485,0.401c-0.062,0.062 -0.224,0.208 -0.485,0.437c-0.261,0.23 -0.572,0.506 -0.933,0.829c-0.361,0.323 -0.758,0.677 -1.194,1.062c-0.435,0.385 -0.864,0.764 -1.287,1.136c-0.423,0.373 -0.818,0.726 -1.185,1.061c-0.367,0.336 -0.668,0.609 -0.904,0.82c1.243,1.096 2.406,2.205 3.488,3.325c1.082,1.122 2.071,2.28 2.967,3.475l-2.743,0c-0.323,-0.386 -0.715,-0.831 -1.175,-1.336c-0.46,-0.504 -0.955,-1.024 -1.483,-1.56c-0.529,-0.536 -1.08,-1.062 -1.652,-1.579c-0.572,-0.517 -1.125,-0.987 -1.66,-1.411l0,5.886l-2.22,0l0,-11.772Z" style="fill:rgb(11,51,97);fill-rule:nonzero;"/>        </g>        <g transform="matrix(2.94489,0,0,4.04808,354.141,480.586)">            <path d="M0,9.366c0.174,-0.112 0.454,-0.301 0.84,-0.569c0.385,-0.267 0.805,-0.566 1.259,-0.896c0.454,-0.329 0.905,-0.665 1.352,-1.007c0.448,-0.342 0.821,-0.65 1.12,-0.924c0.721,-0.646 1.275,-1.252 1.66,-1.818c0.385,-0.566 0.579,-1.197 0.579,-1.894c0,-0.299 -0.054,-0.581 -0.159,-0.849c-0.106,-0.267 -0.267,-0.507 -0.485,-0.718c-0.218,-0.211 -0.498,-0.379 -0.839,-0.504c-0.343,-0.124 -0.75,-0.186 -1.223,-0.186c-0.472,0 -0.88,0.068 -1.222,0.205c-0.342,0.137 -0.628,0.298 -0.858,0.485c-0.23,0.186 -0.41,0.379 -0.541,0.578c-0.13,0.199 -0.221,0.355 -0.27,0.467c-0.112,-0.025 -0.234,-0.069 -0.364,-0.131c-0.131,-0.062 -0.255,-0.143 -0.373,-0.243c-0.118,-0.099 -0.218,-0.214 -0.299,-0.345c-0.081,-0.13 -0.121,-0.276 -0.121,-0.438c0,-0.187 0.034,-0.364 0.103,-0.532c0.068,-0.168 0.152,-0.32 0.251,-0.457c0.063,-0.087 0.184,-0.214 0.364,-0.382c0.18,-0.168 0.429,-0.333 0.746,-0.495c0.318,-0.161 0.703,-0.301 1.157,-0.419c0.454,-0.119 0.992,-0.178 1.614,-0.178c0.783,0 1.474,0.103 2.071,0.308c0.597,0.205 1.097,0.485 1.502,0.84c0.404,0.354 0.709,0.774 0.914,1.259c0.205,0.485 0.308,1.007 0.308,1.567c0,0.436 -0.05,0.84 -0.15,1.213c-0.099,0.373 -0.23,0.715 -0.391,1.026c-0.162,0.311 -0.345,0.6 -0.551,0.867c-0.205,0.268 -0.413,0.52 -0.625,0.756c-0.211,0.236 -0.504,0.519 -0.876,0.849c-0.374,0.329 -0.759,0.656 -1.157,0.979c-0.398,0.324 -0.778,0.622 -1.138,0.896c-0.361,0.273 -0.628,0.472 -0.803,0.597l5.784,0l0,1.977l-9.179,0l0,-1.884Z" style="fill:rgb(11,51,97);fill-rule:nonzero;"/>        </g>        <g transform="matrix(2.94489,0,0,4.04808,397.659,520.993)">            <path d="M0,-10.261c0,-0.846 0.454,-1.269 1.362,-1.269l6.623,0c0.746,0 1.119,0.336 1.119,1.008c0,0.236 -0.037,0.451 -0.112,0.643c-0.074,0.193 -0.13,0.321 -0.168,0.383l-6.567,0l0,3.395l5.187,0c0.746,0 1.119,0.336 1.119,1.008c0,0.236 -0.037,0.451 -0.112,0.643c-0.074,0.193 -0.13,0.321 -0.168,0.383l-6.026,0l0,5.336l-2.257,0l0,-11.53Z" style="fill:rgb(11,51,97);fill-rule:nonzero;"/>        </g>        <g transform="matrix(2.94489,0,0,4.04808,447.927,481.196)">            <path d="M0,9.402c0.646,0 1.243,-0.118 1.791,-0.354c0.547,-0.237 1.02,-0.563 1.418,-0.98c0.398,-0.417 0.712,-0.911 0.942,-1.483c0.23,-0.572 0.345,-1.2 0.345,-1.884c0,-0.684 -0.115,-1.316 -0.345,-1.894c-0.23,-0.578 -0.544,-1.076 -0.942,-1.493c-0.398,-0.416 -0.871,-0.739 -1.418,-0.97c-0.548,-0.23 -1.145,-0.345 -1.791,-0.345c-0.647,0 -1.244,0.115 -1.791,0.345c-0.548,0.231 -1.023,0.554 -1.427,0.97c-0.405,0.417 -0.718,0.915 -0.942,1.493c-0.224,0.578 -0.336,1.21 -0.336,1.894c0,0.684 0.112,1.312 0.336,1.884c0.224,0.572 0.537,1.066 0.942,1.483c0.404,0.417 0.879,0.743 1.427,0.98c0.547,0.236 1.144,0.354 1.791,0.354m0,-11.436c0.97,0 1.868,0.171 2.696,0.513c0.827,0.342 1.548,0.814 2.164,1.418c0.616,0.603 1.097,1.315 1.446,2.136c0.348,0.821 0.522,1.71 0.522,2.668c0,0.957 -0.174,1.847 -0.522,2.667c-0.349,0.821 -0.83,1.533 -1.446,2.137c-0.616,0.603 -1.337,1.075 -2.164,1.417c-0.828,0.343 -1.726,0.514 -2.696,0.514c-0.97,0 -1.869,-0.171 -2.696,-0.514c-0.827,-0.342 -1.549,-0.814 -2.164,-1.417c-0.616,-0.604 -1.098,-1.316 -1.446,-2.137c-0.348,-0.82 -0.522,-1.71 -0.522,-2.667c0,-0.958 0.174,-1.847 0.522,-2.668c0.348,-0.821 0.83,-1.533 1.446,-2.136c0.615,-0.604 1.337,-1.076 2.164,-1.418c0.827,-0.342 1.726,-0.513 2.696,-0.513" style="fill:rgb(11,51,97);fill-rule:nonzero;"/>        </g>        <g transform="matrix(2.94489,0,0,4.04808,475.287,521.975)">            <path d="M0,-10.746c0,-0.348 0.105,-0.606 0.317,-0.774c0.211,-0.168 0.497,-0.252 0.858,-0.252c0.236,0 0.454,0.031 0.653,0.093c0.199,0.063 0.33,0.106 0.392,0.131l0,10.541l6.585,0l0,2.033l-8.805,0l0,-11.772Z" style="fill:rgb(11,51,97);fill-rule:nonzero;"/>        </g>        <g transform="matrix(2.94489,0,0,4.04808,506.327,521.975)">            <path d="M0,-10.746c0,-0.348 0.105,-0.606 0.317,-0.774c0.211,-0.168 0.497,-0.252 0.858,-0.252c0.236,0 0.454,0.031 0.653,0.093c0.199,0.063 0.33,0.106 0.392,0.131l0,5.196c0.311,-0.298 0.703,-0.667 1.175,-1.108c0.473,-0.441 0.955,-0.885 1.446,-1.331c0.491,-0.447 0.955,-0.863 1.39,-1.248c0.435,-0.385 0.771,-0.676 1.008,-0.875c0.31,-0.249 0.593,-0.454 0.848,-0.616c0.255,-0.161 0.563,-0.242 0.924,-0.242c0.398,0 0.721,0.084 0.97,0.252c0.249,0.168 0.411,0.301 0.485,0.401c-0.062,0.062 -0.224,0.208 -0.485,0.437c-0.261,0.23 -0.572,0.506 -0.933,0.829c-0.36,0.323 -0.759,0.677 -1.194,1.062c-0.435,0.385 -0.864,0.764 -1.287,1.136c-0.423,0.373 -0.818,0.726 -1.185,1.061c-0.367,0.336 -0.668,0.609 -0.905,0.82c1.244,1.096 2.407,2.205 3.489,3.325c1.082,1.122 2.071,2.28 2.967,3.475l-2.743,0c-0.324,-0.386 -0.715,-0.831 -1.175,-1.336c-0.46,-0.504 -0.955,-1.024 -1.483,-1.56c-0.529,-0.536 -1.08,-1.062 -1.652,-1.579c-0.572,-0.517 -1.125,-0.987 -1.66,-1.411l0,5.886l-2.22,0l0,-11.772Z" style="fill:rgb(11,51,97);fill-rule:nonzero;"/>        </g>    </g></svg>