<?xml version="1.0" encoding="UTF-8" standalone="no"?><!DOCTYPE svg PUBLIC "-//W3C//DTD SVG 1.1//EN" "http://www.w3.org/Graphics/SVG/1.1/DTD/svg11.dtd"><svg width="100%" height="100%" viewBox="0 0 1024 512" version="1.1" xmlns="http://www.w3.org/2000/svg" xmlns:xlink="http://www.w3.org/1999/xlink" xml:space="preserve" style="fill-rule:evenodd;clip-rule:evenodd;stroke-linejoin:round;stroke-miterlimit:2;"><title>Cashlend</title><desc>Cashlend is a Bulgarian peer-to-peer lending platform through which investors can invest in the loans granted by our originators and receive a monthly return of 1.5% on their investment.</desc>    <g transform="matrix(15.1795,0,0,7.87983,-1399.52,91.0021)">        <g transform="matrix(17.3119,0,0,36,91.5507,33.5483)">            <path d="M0.708,-0.179c-0.012,0.053 -0.024,0.11 -0.035,0.17c-0.019,-0 -0.054,0.004 -0.104,0.013c-0.064,0.012 -0.111,0.018 -0.142,0.018c-0.076,-0 -0.143,-0.015 -0.2,-0.045c-0.057,-0.03 -0.102,-0.073 -0.134,-0.129c-0.032,-0.056 -0.048,-0.118 -0.048,-0.186c0,-0.067 0.017,-0.129 0.051,-0.186c0.034,-0.057 0.08,-0.101 0.14,-0.133c0.059,-0.032 0.126,-0.047 0.2,-0.047c0.031,-0 0.073,0.003 0.126,0.01c0.041,0.005 0.071,0.008 0.09,0.008c0.004,0.046 0.012,0.103 0.023,0.17c-0,0.005 -0.006,0.007 -0.016,0.007c-0.007,0 -0.011,-0.002 -0.012,-0.007c-0.012,-0.046 -0.038,-0.083 -0.078,-0.113c-0.04,-0.029 -0.085,-0.043 -0.137,-0.043c-0.078,-0 -0.144,0.032 -0.197,0.097c-0.053,0.064 -0.08,0.143 -0.08,0.237c0,0.091 0.026,0.168 0.079,0.232c0.053,0.064 0.117,0.096 0.193,0.096c0.119,0 0.203,-0.056 0.253,-0.169c0.002,-0.005 0.007,-0.008 0.014,-0.008c0.009,0 0.014,0.003 0.014,0.008Z" style="fill:rgb(55,73,109);fill-rule:nonzero;"/>        </g>        <g transform="matrix(17.3119,0,0,36,104.258,33.5483)">            <path d="M0.357,0.017c-0.019,0 -0.035,-0.005 -0.049,-0.014c-0.014,-0.009 -0.023,-0.021 -0.028,-0.037c-0.036,0.037 -0.082,0.055 -0.14,0.055c-0.03,-0 -0.054,-0.009 -0.073,-0.028c-0.019,-0.018 -0.029,-0.041 -0.029,-0.069c0,-0.068 0.081,-0.124 0.243,-0.166l0.003,-0.078l0,-0.003c0,-0.023 -0.006,-0.043 -0.018,-0.057c-0.012,-0.014 -0.027,-0.021 -0.047,-0.021c-0.02,0 -0.036,0.005 -0.05,0.014c-0.014,0.01 -0.021,0.022 -0.021,0.036c-0,0.021 -0.006,0.038 -0.017,0.05c-0.011,0.012 -0.025,0.018 -0.043,0.018c-0.011,-0 -0.019,-0.003 -0.026,-0.01c-0.007,-0.006 -0.01,-0.014 -0.01,-0.025c0,-0.026 0.023,-0.053 0.07,-0.081c0.047,-0.028 0.09,-0.042 0.13,-0.042c0.036,0 0.065,0.011 0.088,0.032c0.022,0.021 0.033,0.05 0.033,0.086l0,0.006l-0.007,0.226l0,0.003c-0,0.035 0.011,0.053 0.034,0.053c0.011,-0 0.024,-0.007 0.038,-0.02l0.004,-0.001c0.003,-0 0.005,0.002 0.008,0.005c0.002,0.004 0.003,0.007 0.003,0.011c0,0.01 -0.01,0.022 -0.03,0.036c-0.02,0.014 -0.042,0.021 -0.066,0.021Zm-0.077,-0.225c-0.097,0.022 -0.146,0.058 -0.146,0.109c-0,0.047 0.018,0.071 0.055,0.071c0.018,-0 0.035,-0.004 0.052,-0.013c0.017,-0.009 0.029,-0.02 0.035,-0.033l0.004,-0.134Z" style="fill:rgb(55,73,109);fill-rule:nonzero;"/>        </g>        <g transform="matrix(17.3119,0,0,36,111.979,33.5483)">            <path d="M0.35,-0.123c0,0.041 -0.016,0.075 -0.048,0.102c-0.032,0.028 -0.071,0.042 -0.116,0.042c-0.016,-0 -0.041,-0.004 -0.074,-0.011c-0.025,-0.005 -0.042,-0.007 -0.051,-0.007c-0.003,-0.023 -0.009,-0.059 -0.019,-0.107c0,-0.005 0.005,-0.007 0.015,-0.007c0.008,-0 0.013,0.003 0.014,0.008c0.008,0.025 0.023,0.046 0.046,0.064c0.023,0.019 0.046,0.028 0.07,0.028c0.025,-0 0.044,-0.007 0.058,-0.021c0.014,-0.013 0.021,-0.032 0.021,-0.057c-0,-0.016 -0.006,-0.03 -0.017,-0.042c-0.012,-0.012 -0.037,-0.026 -0.075,-0.044c-0.05,-0.023 -0.084,-0.045 -0.1,-0.065c-0.016,-0.02 -0.024,-0.045 -0.024,-0.073c-0,-0.035 0.015,-0.065 0.045,-0.09c0.031,-0.025 0.067,-0.038 0.108,-0.038c0.017,0 0.042,0.003 0.073,0.009c0.017,0.003 0.029,0.005 0.034,0.005c0.001,0.039 0.003,0.073 0.006,0.1c0,0.005 -0.004,0.008 -0.014,0.008c-0.008,-0 -0.013,-0.003 -0.014,-0.008c-0.004,-0.024 -0.013,-0.044 -0.028,-0.059c-0.014,-0.015 -0.032,-0.023 -0.052,-0.023c-0.052,-0 -0.078,0.023 -0.078,0.068c0,0.015 0.006,0.029 0.018,0.042c0.013,0.013 0.04,0.03 0.081,0.051c0.049,0.025 0.082,0.046 0.097,0.064c0.016,0.018 0.024,0.038 0.024,0.061Z" style="fill:rgb(55,73,109);fill-rule:nonzero;"/>        </g>        <g transform="matrix(17.3119,0,0,36,118.592,33.5483)">            <path d="M0.55,-0.008c-0.001,0.009 -0.003,0.014 -0.009,0.014c-0.013,0 -0.029,-0.001 -0.049,-0.003c-0.021,-0.002 -0.04,-0.003 -0.056,-0.003c-0.017,-0 -0.036,0.001 -0.058,0.003c-0.019,0.002 -0.036,0.003 -0.049,0.003c-0.005,0 -0.008,-0.005 -0.008,-0.014c-0,-0.008 0.003,-0.013 0.008,-0.014c0.023,-0.002 0.038,-0.009 0.045,-0.019c0.007,-0.01 0.011,-0.032 0.011,-0.065l-0,-0.167c-0,-0.072 -0.033,-0.108 -0.098,-0.108c-0.041,0 -0.077,0.017 -0.107,0.05l-0,0.225c-0,0.03 0.004,0.051 0.013,0.063c0.009,0.011 0.026,0.019 0.051,0.022c0.005,0 0.008,0.005 0.008,0.013c-0,0.009 -0.003,0.014 -0.008,0.014c-0.014,0 -0.032,-0.001 -0.054,-0.003c-0.024,-0.002 -0.045,-0.003 -0.061,-0.003c-0.017,0 -0.036,0.001 -0.057,0.003c-0.019,0.002 -0.035,0.003 -0.049,0.003c-0.005,0 -0.008,-0.005 -0.008,-0.014c-0,-0.008 0.003,-0.013 0.008,-0.013c0.028,-0.003 0.046,-0.01 0.054,-0.02c0.009,-0.01 0.013,-0.032 0.013,-0.065l-0,-0.465c-0,-0.026 -0.003,-0.044 -0.01,-0.052c-0.006,-0.009 -0.021,-0.014 -0.045,-0.017c-0.005,-0.001 -0.008,-0.005 -0.008,-0.012c-0,-0.009 0.003,-0.013 0.008,-0.013c0.057,-0.014 0.099,-0.031 0.126,-0.053c0.005,-0.004 0.01,-0.006 0.013,-0.006c0.009,-0 0.014,0.002 0.014,0.008c-0.005,0.054 -0.008,0.112 -0.008,0.174l-0,0.169c0.048,-0.045 0.095,-0.068 0.141,-0.068c0.047,0 0.085,0.013 0.112,0.039c0.027,0.026 0.04,0.061 0.04,0.105l0,0.191c0,0.033 0.005,0.054 0.013,0.064c0.009,0.01 0.027,0.017 0.055,0.021c0.006,0 0.008,0.005 0.008,0.013Z" style="fill:rgb(55,73,109);fill-rule:nonzero;"/>        </g>        <g transform="matrix(17.3119,0,0,36,128.183,33.5483)">            <path d="M0.255,-0.009c0,0.009 -0.003,0.014 -0.008,0.014c-0.014,0 -0.031,-0.001 -0.052,-0.002c-0.024,-0.002 -0.045,-0.003 -0.061,-0.003c-0.016,0 -0.036,0.001 -0.06,0.003c-0.021,0.001 -0.038,0.002 -0.052,0.002c-0.005,0 -0.008,-0.005 -0.008,-0.014c-0,-0.008 0.003,-0.013 0.008,-0.013c0.028,-0.004 0.047,-0.011 0.055,-0.021c0.009,-0.01 0.013,-0.031 0.013,-0.064l-0,-0.465c0,-0.026 -0.003,-0.044 -0.01,-0.052c-0.007,-0.009 -0.022,-0.014 -0.046,-0.017c-0.005,-0.001 -0.008,-0.005 -0.008,-0.012c-0,-0.008 0.003,-0.012 0.008,-0.012c0.035,-0.009 0.064,-0.019 0.086,-0.029c0.022,-0.01 0.036,-0.019 0.042,-0.026c0.003,-0.004 0.007,-0.005 0.011,-0.005c0.009,-0 0.014,0.002 0.014,0.008c-0.005,0.074 -0.008,0.132 -0.008,0.174l-0,0.436c-0,0.033 0.004,0.054 0.012,0.064c0.009,0.01 0.027,0.017 0.056,0.021c0.005,0 0.008,0.005 0.008,0.013Z" style="fill:rgb(40,40,40);fill-rule:nonzero;"/>        </g>        <g transform="matrix(17.3119,0,0,36,132.666,33.5483)">            <path d="M0.431,-0.278c0,0.009 -0.006,0.014 -0.018,0.014l-0.274,0c-0.002,0.018 -0.003,0.037 -0.003,0.056c0,0.054 0.013,0.095 0.038,0.124c0.026,0.029 0.062,0.043 0.109,0.043c0.024,0 0.048,-0.006 0.072,-0.019c0.024,-0.013 0.043,-0.029 0.058,-0.048l0.002,-0.001c0.003,-0 0.006,0.001 0.009,0.005c0.003,0.004 0.004,0.008 0.004,0.013c0,0.007 -0.011,0.022 -0.032,0.044c-0.021,0.022 -0.045,0.039 -0.07,0.051c-0.025,0.011 -0.051,0.017 -0.078,0.017c-0.06,0 -0.111,-0.022 -0.152,-0.066c-0.041,-0.044 -0.061,-0.098 -0.061,-0.162c0,-0.065 0.02,-0.121 0.06,-0.166c0.04,-0.045 0.091,-0.068 0.153,-0.068c0.052,0 0.095,0.017 0.13,0.051c0.035,0.034 0.053,0.071 0.053,0.112Zm-0.091,-0.044c0,-0.025 -0.009,-0.046 -0.026,-0.062c-0.017,-0.017 -0.039,-0.025 -0.066,-0.025c-0.026,0 -0.048,0.011 -0.067,0.032c-0.019,0.022 -0.031,0.05 -0.038,0.085l0.139,-0.004c0.021,-0 0.036,-0.002 0.045,-0.006c0.009,-0.004 0.013,-0.01 0.013,-0.02Z" style="fill:rgb(40,40,40);fill-rule:nonzero;"/>        </g>        <g transform="matrix(17.3119,0,0,36,140.768,33.5483)">            <path d="M0.543,-0.008c-0.001,0.009 -0.003,0.014 -0.009,0.014c-0.013,0 -0.029,-0.001 -0.049,-0.003c-0.021,-0.002 -0.04,-0.003 -0.056,-0.003c-0.017,-0 -0.036,0.001 -0.058,0.003c-0.019,0.002 -0.036,0.003 -0.049,0.003c-0.005,0 -0.008,-0.005 -0.008,-0.014c-0,-0.008 0.003,-0.013 0.008,-0.014c0.023,-0.002 0.038,-0.009 0.045,-0.019c0.007,-0.01 0.011,-0.032 0.011,-0.065l-0,-0.167c-0,-0.037 -0.007,-0.065 -0.022,-0.082c-0.015,-0.017 -0.037,-0.026 -0.068,-0.026c-0.019,0 -0.036,0.004 -0.051,0.011c-0.015,0.007 -0.031,0.02 -0.048,0.039l-0,0.225c-0,0.033 0.004,0.055 0.011,0.065c0.007,0.01 0.022,0.017 0.045,0.02c0.005,0 0.008,0.005 0.008,0.013c-0,0.009 -0.003,0.014 -0.008,0.014c-0.014,0 -0.03,-0.001 -0.05,-0.003c-0.022,-0.002 -0.041,-0.003 -0.057,-0.003c-0.016,0 -0.035,0.001 -0.056,0.003c-0.02,0.002 -0.036,0.003 -0.05,0.003c-0.005,0 -0.008,-0.005 -0.008,-0.014c-0,-0.008 0.003,-0.013 0.008,-0.013c0.029,-0.004 0.047,-0.011 0.055,-0.021c0.009,-0.01 0.013,-0.032 0.013,-0.064l-0,-0.185c-0,-0.027 -0.003,-0.044 -0.01,-0.052c-0.007,-0.009 -0.022,-0.014 -0.046,-0.017c-0.005,0 -0.008,-0.004 -0.008,-0.013c-0,-0.008 0.003,-0.012 0.008,-0.012c0.033,-0.008 0.06,-0.018 0.082,-0.028c0.022,-0.011 0.036,-0.019 0.042,-0.026c0.003,-0.004 0.007,-0.006 0.011,-0.006c0.009,0 0.014,0.003 0.014,0.008l-0.004,0.063c0.048,-0.045 0.093,-0.067 0.134,-0.067c0.045,0 0.081,0.013 0.106,0.039c0.026,0.026 0.038,0.061 0.038,0.105l0,0.191c0,0.033 0.005,0.054 0.013,0.064c0.008,0.01 0.026,0.017 0.054,0.021c0.006,0 0.008,0.005 0.008,0.013Z" style="fill:rgb(40,40,40);fill-rule:nonzero;"/>        </g>        <g transform="matrix(17.3119,0,0,36,150.255,33.5483)">            <path d="M0.536,-0.027c-0.001,0.007 -0.003,0.011 -0.009,0.012c-0.018,0.002 -0.041,0.006 -0.066,0.014c-0.025,0.007 -0.044,0.014 -0.058,0.02c-0.007,0.004 -0.013,0.006 -0.016,0.006c-0.005,0 -0.008,-0.003 -0.008,-0.008l0.004,-0.054c-0.035,0.039 -0.08,0.058 -0.135,0.058c-0.058,-0 -0.107,-0.022 -0.147,-0.067c-0.041,-0.044 -0.061,-0.097 -0.061,-0.159c-0,-0.07 0.022,-0.127 0.067,-0.171c0.045,-0.043 0.101,-0.065 0.169,-0.065c0.039,0 0.074,0.012 0.107,0.036l0,-0.166c0,-0.027 -0.003,-0.045 -0.01,-0.053c-0.007,-0.009 -0.022,-0.014 -0.046,-0.017c-0.005,-0.001 -0.008,-0.005 -0.008,-0.012c0,-0.009 0.003,-0.013 0.008,-0.013c0.031,-0.008 0.058,-0.017 0.082,-0.027c0.022,-0.01 0.038,-0.019 0.046,-0.027c0.003,-0.004 0.007,-0.005 0.011,-0.005c0.009,-0 0.014,0.002 0.014,0.008c-0.006,0.072 -0.009,0.13 -0.009,0.174l0.001,0.44c-0.001,0.023 0.003,0.038 0.009,0.046c0.007,0.008 0.022,0.014 0.046,0.017c0.006,0 0.008,0.004 0.008,0.013Zm-0.152,-0.054l0,-0.256c0,-0.017 -0.01,-0.034 -0.03,-0.049c-0.02,-0.015 -0.042,-0.023 -0.066,-0.023c-0.097,0 -0.146,0.068 -0.146,0.205c0,0.054 0.012,0.099 0.035,0.135c0.023,0.035 0.054,0.053 0.092,0.053c0.022,0 0.041,-0.005 0.059,-0.015c0.018,-0.01 0.036,-0.026 0.056,-0.05Z" style="fill:rgb(40,40,40);fill-rule:nonzero;"/>        </g>    </g></svg>