<?xml version="1.0" encoding="UTF-8" standalone="no"?><!DOCTYPE svg PUBLIC "-//W3C//DTD SVG 1.1//EN" "http://www.w3.org/Graphics/SVG/1.1/DTD/svg11.dtd"><svg width="100%" height="100%" viewBox="0 0 1024 512" version="1.1" xmlns="http://www.w3.org/2000/svg" xmlns:xlink="http://www.w3.org/1999/xlink" xml:space="preserve" style="fill-rule:evenodd;clip-rule:evenodd;stroke-linejoin:round;stroke-miterlimit:2;"><title>Bricks</title><desc>Bricks Finance is a privately owned investment company based in Exeter. Founded in 2014 by Will Michelmore, Jerry Rihll and Clive Banks, our goal is to provide a better rate of return for our investors.We specialise in asset-backed business and bridging loans – helping local people to access finance easily and quickly by offering bespoke lending using our own funds as well as those from investors.</desc>    <g transform="matrix(4.1869,0,0,4.1869,-38.902,-37.2654)">        <g transform="matrix(1.4323,0,0,0.695028,-161.479,46.9272)">            <g transform="matrix(37.1218,0,0,67.9167,148.286,60.7096)">                <path d="M0.078,0l0,-0.023c0.017,-0.01 0.032,-0.02 0.043,-0.03c0.002,-0.016 0.003,-0.036 0.004,-0.059c0.001,-0.047 0.002,-0.134 0.002,-0.259c0,-0.034 -0.001,-0.086 -0.002,-0.157c-0.001,-0.055 -0.003,-0.086 -0.006,-0.094c-0.001,-0.004 -0.004,-0.008 -0.007,-0.01c-0.007,-0.004 -0.031,-0.008 -0.073,-0.011l0,-0.04c0.007,0 0.014,0 0.022,0l0.067,0.002c0.023,0.001 0.05,0.001 0.083,0.001c0.032,0 0.058,-0.001 0.077,-0.001c0.046,-0.002 0.077,-0.003 0.091,-0.003c0.054,0 0.096,0.005 0.125,0.017c0.029,0.011 0.05,0.027 0.064,0.048c0.013,0.021 0.02,0.044 0.02,0.07c0,0.028 -0.008,0.054 -0.023,0.078c-0.016,0.024 -0.036,0.043 -0.06,0.056c-0.014,0.009 -0.046,0.019 -0.095,0.033c0.059,0.007 0.1,0.017 0.123,0.028c0.024,0.012 0.042,0.031 0.056,0.055c0.014,0.025 0.021,0.053 0.021,0.084c0,0.032 -0.007,0.061 -0.021,0.087c-0.014,0.027 -0.033,0.049 -0.056,0.067c-0.022,0.019 -0.048,0.034 -0.077,0.045c-0.03,0.011 -0.066,0.016 -0.11,0.016l-0.164,-0.003c-0.027,0 -0.061,0.001 -0.104,0.003Zm0.185,-0.401l0.029,0c0.022,0 0.042,-0.002 0.061,-0.005c0.019,-0.004 0.034,-0.01 0.046,-0.019c0.012,-0.009 0.021,-0.022 0.029,-0.04c0.008,-0.018 0.012,-0.038 0.012,-0.061c0,-0.024 -0.004,-0.044 -0.013,-0.06c-0.009,-0.017 -0.021,-0.028 -0.036,-0.035c-0.015,-0.007 -0.037,-0.011 -0.066,-0.011c-0.021,0 -0.04,0.001 -0.057,0.004c-0.002,0.024 -0.004,0.051 -0.004,0.081l-0.001,0.076l0,0.07Zm0.002,0.346c0.011,0.003 0.031,0.004 0.061,0.004c0.04,0 0.073,-0.014 0.098,-0.04c0.024,-0.027 0.037,-0.065 0.037,-0.114c0,-0.035 -0.007,-0.064 -0.02,-0.086c-0.013,-0.021 -0.03,-0.037 -0.051,-0.046c-0.022,-0.009 -0.051,-0.013 -0.089,-0.013c-0.014,0 -0.026,0.001 -0.038,0.002l0,0.223l0.001,0.058c0,0.001 0,0.005 0.001,0.012Z" style="fill:rgb(236,0,140);fill-rule:nonzero;"/>            </g>            <g transform="matrix(37.1218,0,0,67.9167,173.745,60.7096)">                <path d="M0.04,-0.643l0,-0.04c0.008,0 0.034,0.001 0.078,0.002c0.022,0.001 0.053,0.001 0.093,0.001c0.034,0 0.063,0 0.088,-0.002c0.04,-0.001 0.074,-0.002 0.1,-0.002c0.051,0 0.089,0.004 0.115,0.011c0.025,0.007 0.047,0.022 0.065,0.046c0.018,0.023 0.026,0.051 0.026,0.084c0,0.039 -0.012,0.075 -0.036,0.107c-0.025,0.033 -0.062,0.058 -0.113,0.077c0.008,0.015 0.017,0.03 0.028,0.045c0.01,0.015 0.016,0.025 0.018,0.028c0.002,0.003 0.004,0.006 0.006,0.009l0.075,0.114c0.021,0.03 0.032,0.046 0.033,0.049c0.025,0.032 0.04,0.052 0.045,0.057c0.006,0.006 0.011,0.01 0.016,0.013c0.005,0.002 0.016,0.003 0.031,0.003l0,0.041c-0.05,-0.001 -0.086,-0.002 -0.109,-0.002c-0.026,0 -0.052,0.001 -0.078,0.002c-0.001,-0.007 -0.005,-0.016 -0.011,-0.028l-0.105,-0.172c-0.03,-0.05 -0.055,-0.089 -0.076,-0.117c-0.01,-0.014 -0.02,-0.025 -0.03,-0.032l0.005,-0.016c0.039,0.001 0.069,-0.003 0.089,-0.012c0.019,-0.009 0.036,-0.026 0.05,-0.05c0.014,-0.024 0.02,-0.051 0.02,-0.08c0,-0.03 -0.007,-0.055 -0.021,-0.075c-0.014,-0.02 -0.032,-0.034 -0.053,-0.042c-0.014,-0.004 -0.038,-0.007 -0.074,-0.007c-0.015,0 -0.031,0.001 -0.046,0.004c-0.001,0.012 -0.002,0.038 -0.003,0.079c-0.002,0.092 -0.003,0.154 -0.003,0.185c0,0.049 0.001,0.1 0.002,0.155c0.001,0.067 0.002,0.105 0.003,0.114c0.001,0.018 0.002,0.03 0.005,0.036c0.001,0.002 0.003,0.005 0.006,0.007c0.003,0.002 0.008,0.004 0.014,0.005c0.007,0.001 0.026,0.002 0.057,0.003l0,0.043c-0.056,-0.002 -0.112,-0.003 -0.169,-0.003c-0.051,0 -0.098,0.001 -0.141,0.003l0,-0.043c0.037,-0.001 0.059,-0.003 0.066,-0.005c0.004,-0.001 0.007,-0.003 0.009,-0.005c0.001,-0.003 0.003,-0.007 0.004,-0.014c0.002,-0.013 0.004,-0.032 0.005,-0.058l0.003,-0.142l0,-0.181l-0.002,-0.103c0,-0.041 -0.002,-0.065 -0.005,-0.074c-0.002,-0.003 -0.004,-0.006 -0.008,-0.008c-0.008,-0.004 -0.032,-0.007 -0.072,-0.01Z" style="fill:rgb(236,0,140);fill-rule:nonzero;"/>            </g>            <g transform="matrix(37.1218,0,0,67.9167,201.949,60.7096)">                <path d="M0.357,-0.683l0,0.043c-0.032,0.001 -0.052,0.002 -0.058,0.004c-0.006,0.001 -0.011,0.003 -0.013,0.005c-0.003,0.002 -0.005,0.005 -0.006,0.008c-0.002,0.005 -0.004,0.016 -0.005,0.032c0,0.008 -0.001,0.024 -0.001,0.048c-0.001,0.08 -0.002,0.123 -0.002,0.129l0,0.197l0.001,0.089c0,0.034 0.002,0.055 0.005,0.065c0.002,0.005 0.004,0.009 0.007,0.011c0.003,0.002 0.008,0.004 0.015,0.006c0.006,0.001 0.026,0.002 0.057,0.003l0,0.043c-0.053,-0.002 -0.109,-0.003 -0.169,-0.003c-0.053,0 -0.1,0.001 -0.141,0.003l0,-0.043c0.034,-0.001 0.054,-0.002 0.059,-0.003c0.007,-0.002 0.011,-0.003 0.014,-0.006c0.002,-0.002 0.004,-0.005 0.005,-0.008c0,-0.003 0.002,-0.019 0.003,-0.045c0.003,-0.04 0.004,-0.076 0.004,-0.109l0,-0.204c0,-0.065 0,-0.106 -0.001,-0.125c-0.001,-0.041 -0.003,-0.067 -0.006,-0.078c0,-0.004 -0.002,-0.007 -0.004,-0.009c-0.002,-0.003 -0.006,-0.005 -0.012,-0.006c-0.006,-0.001 -0.026,-0.003 -0.062,-0.004l0,-0.043c0.041,0.002 0.088,0.003 0.141,0.003c0.06,0 0.116,-0.001 0.169,-0.003Z" style="fill:rgb(236,0,140);fill-rule:nonzero;"/>            </g>            <g transform="matrix(27.4402,0,0,67.9167,221.086,60.7096)">                <path d="M0.697,-0.088l-0.023,0.049c-0.04,0.021 -0.077,0.036 -0.109,0.044c-0.033,0.008 -0.073,0.012 -0.122,0.012c-0.069,0 -0.13,-0.011 -0.183,-0.033c-0.041,-0.017 -0.077,-0.04 -0.106,-0.069c-0.029,-0.029 -0.051,-0.061 -0.067,-0.095c-0.023,-0.051 -0.035,-0.106 -0.035,-0.166c0,-0.103 0.035,-0.186 0.105,-0.251c0.07,-0.065 0.169,-0.098 0.297,-0.098c0.044,0 0.084,0.003 0.119,0.01c0.035,0.006 0.075,0.018 0.121,0.035l0.003,0.006c-0.005,0.015 -0.01,0.034 -0.012,0.058c-0.005,0.036 -0.008,0.07 -0.01,0.102l-0.038,0c0,-0.036 -0.002,-0.065 -0.005,-0.086c-0.021,-0.023 -0.046,-0.04 -0.073,-0.051c-0.027,-0.012 -0.062,-0.017 -0.104,-0.017c-0.077,0 -0.138,0.024 -0.184,0.072c-0.046,0.049 -0.069,0.116 -0.069,0.203c0,0.052 0.008,0.098 0.023,0.137c0.016,0.039 0.036,0.071 0.062,0.097c0.026,0.025 0.052,0.044 0.078,0.056c0.035,0.015 0.078,0.023 0.129,0.023c0.033,0 0.064,-0.004 0.094,-0.011c0.03,-0.008 0.062,-0.02 0.097,-0.039l0.012,0.012Z" style="fill:rgb(236,0,140);fill-rule:nonzero;"/>            </g>            <g transform="matrix(32.644,0,0,67.9167,244.775,60.7096)">                <path d="M0.761,-0.042l0,0.042c-0.047,-0.001 -0.088,-0.002 -0.122,-0.002c-0.026,0 -0.052,0.001 -0.076,0.002c-0.008,-0.017 -0.021,-0.035 -0.038,-0.056l-0.095,-0.109c-0.072,-0.085 -0.111,-0.13 -0.115,-0.134c-0.012,-0.014 -0.022,-0.022 -0.028,-0.025c-0.005,-0.002 -0.009,-0.004 -0.012,-0.004c-0.003,0 -0.005,0.001 -0.007,0.002c-0.002,0.001 -0.003,0.002 -0.003,0.004c-0.001,0.001 -0.001,0.005 -0.001,0.011l0,0.11l0.002,0.097c0,0.025 0.002,0.041 0.006,0.047c0.002,0.004 0.007,0.007 0.013,0.009c0.007,0.002 0.028,0.004 0.064,0.006l0,0.042c-0.053,-0.002 -0.11,-0.003 -0.169,-0.003c-0.053,0 -0.1,0.001 -0.141,0.003l0,-0.042c0.034,-0.002 0.056,-0.004 0.065,-0.007c0.004,-0.002 0.007,-0.004 0.01,-0.007c0.002,-0.003 0.004,-0.007 0.005,-0.013c0.002,-0.006 0.003,-0.019 0.004,-0.039c0.003,-0.048 0.004,-0.083 0.004,-0.104l0,-0.178l-0.003,-0.151c-0.001,-0.037 -0.002,-0.062 -0.004,-0.074c-0.002,-0.007 -0.004,-0.012 -0.006,-0.014c-0.002,-0.002 -0.005,-0.004 -0.01,-0.005c-0.007,-0.002 -0.029,-0.004 -0.065,-0.006l0,-0.043c0.041,0.002 0.089,0.003 0.142,0.003c0.059,0 0.115,-0.001 0.168,-0.003l0,0.043c-0.038,0.001 -0.061,0.003 -0.069,0.008c-0.005,0.003 -0.008,0.009 -0.01,0.018c-0.004,0.021 -0.006,0.062 -0.006,0.121l0,0.135l0.008,0.003c0.031,-0.024 0.073,-0.064 0.126,-0.119l0.069,-0.071c0.023,-0.023 0.039,-0.04 0.048,-0.05l0.043,-0.05c0,-0.007 -0.001,-0.02 -0.002,-0.038c0.033,0.001 0.055,0.001 0.067,0.001l0.114,-0.001l0,0.039c-0.03,0.001 -0.052,0.003 -0.066,0.008c-0.013,0.004 -0.03,0.014 -0.05,0.03c-0.021,0.016 -0.062,0.052 -0.124,0.108l-0.093,0.093c0.015,0.019 0.039,0.047 0.07,0.083l0.107,0.126c0.049,0.058 0.083,0.096 0.1,0.115c0.018,0.019 0.031,0.03 0.039,0.033c0.008,0.004 0.022,0.006 0.041,0.006Z" style="fill:rgb(236,0,140);fill-rule:nonzero;"/>            </g>            <g transform="matrix(29.4265,0,0,67.9167,273.212,60.7096)">                <path d="M0.503,-0.504l-0.041,0c0,-0.038 -0.002,-0.065 -0.004,-0.08c-0.011,-0.015 -0.028,-0.027 -0.053,-0.039c-0.025,-0.011 -0.053,-0.016 -0.084,-0.016c-0.044,0 -0.078,0.011 -0.102,0.033c-0.025,0.023 -0.037,0.049 -0.037,0.079c0,0.021 0.004,0.039 0.011,0.052c0.007,0.013 0.016,0.024 0.029,0.032c0.013,0.007 0.032,0.015 0.056,0.021c0.019,0.004 0.045,0.009 0.079,0.015c0.034,0.006 0.056,0.01 0.066,0.012c0.026,0.007 0.048,0.015 0.064,0.025c0.016,0.009 0.029,0.02 0.039,0.033c0.009,0.012 0.017,0.028 0.023,0.047c0.007,0.019 0.01,0.041 0.01,0.064c0,0.042 -0.009,0.079 -0.026,0.11c-0.013,0.024 -0.031,0.046 -0.054,0.065c-0.024,0.02 -0.047,0.035 -0.072,0.045c-0.039,0.015 -0.086,0.023 -0.14,0.023c-0.04,0 -0.076,-0.004 -0.107,-0.011c-0.032,-0.008 -0.066,-0.02 -0.103,-0.039c0.01,-0.037 0.015,-0.093 0.015,-0.169l0.041,0c0,0.023 0.001,0.052 0.006,0.087c0.012,0.02 0.033,0.038 0.063,0.053c0.03,0.016 0.063,0.023 0.098,0.023c0.031,0 0.059,-0.005 0.083,-0.016c0.024,-0.011 0.042,-0.026 0.053,-0.045c0.011,-0.019 0.016,-0.041 0.016,-0.066c0,-0.02 -0.004,-0.038 -0.011,-0.052c-0.008,-0.015 -0.02,-0.027 -0.036,-0.035c-0.017,-0.009 -0.045,-0.018 -0.086,-0.028c-0.059,-0.012 -0.098,-0.021 -0.116,-0.027c-0.028,-0.008 -0.051,-0.02 -0.068,-0.036c-0.017,-0.016 -0.03,-0.035 -0.038,-0.058c-0.009,-0.023 -0.013,-0.047 -0.013,-0.073c0,-0.037 0.008,-0.07 0.023,-0.101c0.015,-0.031 0.035,-0.055 0.06,-0.071c0.026,-0.017 0.054,-0.03 0.085,-0.037c0.032,-0.007 0.064,-0.011 0.098,-0.011c0.034,0 0.068,0.003 0.1,0.009c0.032,0.007 0.06,0.016 0.084,0.027l0.004,0.012c-0.004,0.021 -0.008,0.042 -0.01,0.062c-0.002,0.021 -0.004,0.047 -0.005,0.081Z" style="fill:rgb(236,0,140);fill-rule:nonzero;"/>            </g>        </g>        <g>            <g transform="matrix(1,0,0,1.28748,0,-32.5766)">                <rect x="60.952" y="113.316" width="10.33" height="9.689" style="fill:rgb(168,169,171);"/>            </g>            <g transform="matrix(0.987655,-0.479331,0.56214,1.15828,-46.2454,9.98289)">                <rect x="60.952" y="113.316" width="10.33" height="9.689" style="fill:rgb(168,169,171);"/>            </g>            <g transform="matrix(0.927117,0.374772,-0.482513,1.19365,42.4768,-49.8055)">                <rect x="60.952" y="113.316" width="10.33" height="9.689" style="fill:rgb(168,169,171);"/>            </g>            <g transform="matrix(0.538286,0.694929,-1.01785,0.788417,115.678,-33.3851)">                <rect x="60.952" y="113.316" width="10.33" height="9.689" style="fill:rgb(168,169,171);"/>            </g>            <g transform="matrix(0.326785,0.647443,-1.14938,0.580127,134.396,-21.7605)">                <rect x="60.952" y="113.316" width="10.33" height="9.689" style="fill:rgb(168,169,171);"/>            </g>            <g transform="matrix(-0.00506309,0.725221,-1.28745,-0.0089883,168.494,22.8481)">                <rect x="60.952" y="113.316" width="10.33" height="9.689" style="fill:rgb(168,169,171);"/>            </g>            <g transform="matrix(-0.197404,0.453357,-1.18044,-0.513993,172.057,83.0604)">                <rect x="60.952" y="113.316" width="10.33" height="9.689" style="fill:rgb(168,169,171);"/>            </g>            <g transform="matrix(-0.343081,0.356085,-0.927161,-0.893302,163.161,117.196)">                <rect x="60.952" y="113.316" width="10.33" height="9.689" style="fill:rgb(168,169,171);"/>            </g>            <g transform="matrix(-0.414729,0.181341,-0.515802,-1.17965,134.869,151.774)">                <rect x="60.952" y="113.316" width="10.33" height="9.689" style="fill:rgb(168,169,171);"/>            </g>            <g transform="matrix(-0.360572,1.05911e-16,-2.35636e-16,-1.28748,90.4412,172.664)">                <rect x="60.952" y="113.316" width="10.33" height="9.689" style="fill:rgb(168,169,171);"/>            </g>            <g transform="matrix(-0.25253,-0.109607,0.512612,-1.18104,40.6617,171.201)">                <rect x="60.952" y="113.316" width="10.33" height="9.689" style="fill:rgb(168,169,171);"/>            </g>            <g transform="matrix(-0.157868,-0.146077,0.874414,-0.944996,8.52429,156.468)">                <rect x="60.952" y="113.316" width="10.33" height="9.689" style="fill:rgb(168,169,171);"/>            </g>        </g>    </g></svg>