<?xml version="1.0" encoding="UTF-8" standalone="no"?><!DOCTYPE svg PUBLIC "-//W3C//DTD SVG 1.1//EN" "http://www.w3.org/Graphics/SVG/1.1/DTD/svg11.dtd"><svg width="100%" height="100%" viewBox="0 0 1024 512" version="1.1" xmlns="http://www.w3.org/2000/svg" xmlns:xlink="http://www.w3.org/1999/xlink" xml:space="preserve" style="fill-rule:evenodd;clip-rule:evenodd;stroke-linejoin:round;stroke-miterlimit:2;"><title>Unilend</title><desc>Unilend is the leader in crowdfunding for SMEs in France. We are the first French site allowing everyone to lend their money directly to French SMEs and receive interest. VSEs / SMEs find it a complement to bank financing, faster and more flexible. As for savers, this is an opportunity to set your own interest rate and know what your money is used for.</desc>    <g transform="matrix(16.1905,0,0,16.1905,-937.05,-8826.87)">        <g transform="matrix(1,0,0,1,0,529.993)">            <path d="M73.226,29.334c0,-0.298 0.105,-0.548 0.314,-0.753c0.209,-0.203 0.466,-0.305 0.771,-0.305c0.139,0 0.276,0.028 0.411,0.083c0.135,0.055 0.251,0.132 0.347,0.229c0.095,0.098 0.174,0.21 0.235,0.338c0.061,0.127 0.091,0.263 0.091,0.408l0,4.474c0,0.152 0.031,0.295 0.092,0.426c0.061,0.132 0.144,0.247 0.248,0.345c0.105,0.097 0.224,0.176 0.359,0.236c0.135,0.059 0.282,0.089 0.438,0.089c0.157,0 0.303,-0.03 0.438,-0.089c0.135,-0.06 0.255,-0.139 0.359,-0.236c0.105,-0.098 0.185,-0.213 0.242,-0.345c0.057,-0.131 0.085,-0.274 0.085,-0.426l0,-4.474c0,-0.298 0.107,-0.548 0.32,-0.753c0.213,-0.203 0.468,-0.305 0.764,-0.305c0.14,0 0.277,0.028 0.412,0.083c0.135,0.055 0.25,0.132 0.346,0.229c0.096,0.098 0.174,0.21 0.235,0.338c0.061,0.127 0.092,0.263 0.092,0.408l0,4.474c0,0.441 -0.087,0.856 -0.261,1.242c-0.175,0.387 -0.41,0.725 -0.706,1.014c-0.296,0.289 -0.645,0.518 -1.045,0.688c-0.401,0.17 -0.828,0.255 -1.281,0.255c-0.453,0 -0.88,-0.085 -1.281,-0.255c-0.4,-0.17 -0.751,-0.399 -1.051,-0.688c-0.301,-0.289 -0.538,-0.627 -0.712,-1.014c-0.175,-0.386 -0.262,-0.801 -0.262,-1.242l0,-4.474Z" style="fill:rgb(175,0,110);fill-rule:nonzero;"/>        </g>        <g transform="matrix(1,0,0,1,0,529.609)">            <path d="M80.83,31.692c0,-0.441 0.087,-0.855 0.261,-1.242c0.174,-0.387 0.409,-0.724 0.706,-1.013c0.296,-0.289 0.644,-0.519 1.045,-0.689c0.401,-0.17 0.827,-0.255 1.28,-0.255c0.453,0 0.88,0.085 1.281,0.255c0.4,0.17 0.751,0.4 1.052,0.689c0.3,0.289 0.538,0.626 0.712,1.013c0.174,0.387 0.261,0.801 0.261,1.242l0,4.424c0,0.297 -0.104,0.548 -0.313,0.752c-0.209,0.204 -0.466,0.306 -0.771,0.306c-0.149,0 -0.288,-0.028 -0.418,-0.083c-0.131,-0.055 -0.244,-0.129 -0.34,-0.223c-0.096,-0.094 -0.174,-0.206 -0.235,-0.338c-0.061,-0.132 -0.092,-0.27 -0.092,-0.414l0,-4.424c0,-0.152 -0.03,-0.295 -0.091,-0.427c-0.061,-0.131 -0.142,-0.246 -0.242,-0.344c-0.1,-0.097 -0.22,-0.176 -0.359,-0.235c-0.14,-0.06 -0.288,-0.09 -0.445,-0.09c-0.156,0 -0.303,0.03 -0.437,0.09c-0.135,0.059 -0.255,0.138 -0.36,0.235c-0.104,0.098 -0.185,0.213 -0.241,0.344c-0.057,0.132 -0.085,0.275 -0.085,0.427l0,4.424c0,0.297 -0.105,0.548 -0.314,0.752c-0.209,0.204 -0.466,0.306 -0.771,0.306c-0.148,0 -0.287,-0.028 -0.418,-0.083c-0.131,-0.055 -0.244,-0.129 -0.339,-0.223c-0.097,-0.094 -0.175,-0.206 -0.236,-0.338c-0.061,-0.132 -0.091,-0.27 -0.091,-0.414l0,-4.424Z" style="fill:rgb(175,0,110);fill-rule:nonzero;"/>        </g>        <g transform="matrix(1,0,0,1,0,529.725)">            <path d="M92.644,29.601c0,-0.297 0.104,-0.547 0.314,-0.752c0.209,-0.203 0.466,-0.306 0.771,-0.306c0.139,0 0.276,0.028 0.411,0.083c0.135,0.056 0.251,0.133 0.346,0.23c0.096,0.098 0.174,0.21 0.236,0.338c0.061,0.127 0.091,0.263 0.091,0.407l0,5.29l2.411,0c0.305,0 0.562,0.102 0.771,0.306c0.209,0.204 0.314,0.455 0.314,0.752c0,0.145 -0.029,0.281 -0.085,0.408c-0.057,0.127 -0.135,0.238 -0.235,0.331c-0.1,0.095 -0.216,0.171 -0.347,0.23c-0.13,0.059 -0.27,0.089 -0.418,0.089l-3.495,0c-0.148,0 -0.288,-0.027 -0.418,-0.083c-0.131,-0.055 -0.244,-0.129 -0.34,-0.223c-0.096,-0.093 -0.175,-0.206 -0.235,-0.338c-0.062,-0.131 -0.092,-0.269 -0.092,-0.414l0,-6.348Z" style="fill:rgb(175,0,110);fill-rule:nonzero;"/>        </g>        <g transform="matrix(1,0,0,1,0,529.609)">            <path d="M106.737,31.692c0,-0.441 0.087,-0.855 0.261,-1.242c0.174,-0.387 0.409,-0.724 0.706,-1.013c0.296,-0.289 0.644,-0.519 1.045,-0.689c0.4,-0.17 0.828,-0.255 1.281,-0.255c0.452,0 0.879,0.085 1.28,0.255c0.4,0.17 0.751,0.4 1.052,0.689c0.3,0.289 0.538,0.626 0.712,1.013c0.174,0.387 0.261,0.801 0.261,1.242l0,4.424c0,0.297 -0.104,0.548 -0.313,0.752c-0.209,0.204 -0.466,0.306 -0.771,0.306c-0.148,0 -0.288,-0.028 -0.418,-0.083c-0.131,-0.055 -0.244,-0.129 -0.34,-0.223c-0.096,-0.094 -0.174,-0.206 -0.235,-0.338c-0.061,-0.132 -0.092,-0.27 -0.092,-0.414l0,-4.424c0,-0.152 -0.03,-0.295 -0.091,-0.427c-0.061,-0.131 -0.142,-0.246 -0.242,-0.344c-0.1,-0.097 -0.22,-0.176 -0.359,-0.235c-0.14,-0.06 -0.288,-0.09 -0.444,-0.09c-0.157,0 -0.303,0.03 -0.438,0.09c-0.135,0.059 -0.255,0.138 -0.359,0.235c-0.105,0.098 -0.186,0.213 -0.242,0.344c-0.057,0.132 -0.085,0.275 -0.085,0.427l0,4.424c0,0.297 -0.105,0.548 -0.314,0.752c-0.209,0.204 -0.466,0.306 -0.771,0.306c-0.148,0 -0.287,-0.028 -0.418,-0.083c-0.13,-0.055 -0.244,-0.129 -0.34,-0.223c-0.095,-0.094 -0.174,-0.206 -0.235,-0.338c-0.061,-0.132 -0.091,-0.27 -0.091,-0.414l0,-4.424Z" style="fill:rgb(175,0,110);fill-rule:nonzero;"/>        </g>        <g transform="matrix(1,0,0,1,0,529.776)">            <path d="M116.57,30.659l0,4.181l1.137,0c0.314,0 0.579,-0.104 0.797,-0.312c0.218,-0.209 0.327,-0.461 0.327,-0.759l0,-2.039c0,-0.297 -0.109,-0.55 -0.327,-0.758c-0.218,-0.208 -0.487,-0.313 -0.81,-0.313l-1.124,0Zm-2.169,-1.057c0,-0.298 0.105,-0.549 0.314,-0.753c0.209,-0.204 0.466,-0.305 0.771,-0.305l2.208,0c0.453,0 0.882,0.083 1.287,0.248c0.405,0.166 0.756,0.393 1.052,0.682c0.296,0.289 0.531,0.627 0.705,1.013c0.175,0.387 0.262,0.801 0.262,1.243l0,2.039c0,0.442 -0.087,0.856 -0.262,1.243c-0.174,0.387 -0.409,0.725 -0.705,1.013c-0.296,0.289 -0.645,0.517 -1.045,0.683c-0.401,0.165 -0.828,0.248 -1.281,0.248l-2.221,0c-0.148,0 -0.288,-0.028 -0.418,-0.083c-0.131,-0.055 -0.244,-0.129 -0.34,-0.223c-0.096,-0.093 -0.174,-0.206 -0.235,-0.338c-0.061,-0.132 -0.092,-0.27 -0.092,-0.414l0,-6.296Z" style="fill:rgb(175,0,110);fill-rule:nonzero;"/>        </g>        <g transform="matrix(1,0,0,1,0,517.296)">            <path d="M90.348,40.276c0.728,0 1.318,-0.576 1.318,-1.286c0,-0.71 -0.59,-1.286 -1.318,-1.286c-0.728,0 -1.318,0.576 -1.318,1.286c0,0.71 0.59,1.286 1.318,1.286" style="fill:rgb(148,156,161);fill-rule:nonzero;"/>        </g>        <g transform="matrix(1,0,0,1,0,529.775)">            <path d="M90.348,28.493l-1.37,0c-0.148,0 -0.287,0.03 -0.418,0.089c-0.13,0.06 -0.246,0.137 -0.346,0.23c-0.1,0.093 -0.178,0.206 -0.235,0.338c-0.057,0.132 -0.085,0.266 -0.085,0.401c0,0.289 0.104,0.538 0.313,0.746c0.209,0.208 0.467,0.312 0.772,0.312l0.284,0l0,5.341c0,0.144 0.031,0.282 0.092,0.414c0.061,0.132 0.139,0.244 0.235,0.338c0.096,0.093 0.209,0.168 0.34,0.223c0.131,0.055 0.27,0.082 0.418,0.082c0.305,0 0.562,-0.101 0.771,-0.305c0.209,-0.204 0.314,-0.455 0.314,-0.752l0,-6.399c0,-0.297 -0.105,-0.548 -0.314,-0.752c-0.209,-0.204 -0.466,-0.306 -0.771,-0.306" style="fill:rgb(148,156,161);fill-rule:nonzero;"/>        </g>        <g transform="matrix(1,0,0,1,0,529.852)">            <path d="M102.622,33.77c-0.305,0 -0.562,-0.104 -0.771,-0.313c-0.209,-0.208 -0.313,-0.456 -0.313,-0.745c0,-0.136 0.028,-0.27 0.084,-0.402c0.057,-0.132 0.136,-0.244 0.236,-0.338c0.1,-0.093 0.215,-0.17 0.346,-0.229c0.131,-0.059 0.27,-0.089 0.418,-0.089l0.956,0c0.306,0 0.562,0.102 0.771,0.306c0.209,0.204 0.314,0.455 0.314,0.752c0,0.144 -0.029,0.28 -0.085,0.407c-0.057,0.128 -0.133,0.238 -0.229,0.332c-0.095,0.094 -0.211,0.17 -0.346,0.229c-0.135,0.06 -0.276,0.09 -0.425,0.09l-0.956,0Z" style="fill:rgb(175,0,110);fill-rule:nonzero;"/>        </g>        <g transform="matrix(1,0,0,1,0,529.788)">            <path d="M101.313,34.834l3.345,0c0.305,0 0.562,0.102 0.771,0.306c0.209,0.204 0.313,0.455 0.313,0.752c0,0.145 -0.028,0.281 -0.085,0.408c-0.056,0.127 -0.135,0.238 -0.235,0.331c-0.1,0.094 -0.215,0.171 -0.346,0.23c-0.13,0.059 -0.27,0.089 -0.418,0.089l-4.429,0c-0.149,0 -0.288,-0.027 -0.418,-0.083c-0.132,-0.055 -0.244,-0.129 -0.34,-0.223c-0.096,-0.094 -0.175,-0.206 -0.235,-0.338c-0.062,-0.131 -0.092,-0.269 -0.092,-0.414l0,-6.296c0,-0.298 0.105,-0.549 0.314,-0.752c0.209,-0.204 0.465,-0.306 0.771,-0.306l4.429,0c0.305,0 0.562,0.102 0.771,0.306c0.209,0.203 0.313,0.454 0.313,0.752c0,0.144 -0.028,0.28 -0.084,0.408c-0.057,0.127 -0.136,0.237 -0.236,0.331c-0.1,0.093 -0.215,0.17 -0.346,0.229c-0.13,0.06 -0.27,0.09 -0.418,0.09l-3.345,0l0,4.18Z" style="fill:rgb(175,0,110);fill-rule:nonzero;"/>        </g>        <g transform="matrix(1,0,0,1,0,526.584)">            <path d="M70.05,38.713c0,0.834 -0.694,1.51 -1.548,1.51l-8.953,0c-0.856,0 -1.549,-0.676 -1.549,-1.51l0,-8.734c0,-0.834 0.693,-1.51 1.549,-1.51l8.953,0c0.854,0 1.548,0.676 1.548,1.51l0,8.734Z" style="fill:rgb(175,0,110);fill-rule:nonzero;"/>        </g>        <g transform="matrix(1,0,0,1,0,526.784)">            <path d="M61.939,37.313l0,0c0.296,0 0.59,-0.054 0.875,-0.163c0.284,-0.108 0.541,-0.274 0.766,-0.494l2.115,-2.062c0.062,-0.061 0.109,-0.132 0.138,-0.21c0.031,-0.084 0.048,-0.17 0.05,-0.255c0.002,-0.081 -0.014,-0.163 -0.047,-0.243c-0.034,-0.081 -0.082,-0.151 -0.141,-0.209c-0.13,-0.127 -0.283,-0.19 -0.469,-0.191l-0.001,0c-0.189,0 -0.34,0.062 -0.471,0.191l-2.114,2.062c-0.098,0.095 -0.209,0.168 -0.329,0.216c-0.116,0.046 -0.236,0.069 -0.358,0.069l-0.019,0c-0.128,-0.003 -0.253,-0.027 -0.373,-0.071c-0.124,-0.046 -0.237,-0.118 -0.336,-0.214c-0.099,-0.097 -0.173,-0.207 -0.22,-0.328c-0.045,-0.117 -0.07,-0.239 -0.073,-0.362c-0.002,-0.126 0.02,-0.25 0.066,-0.369c0.047,-0.122 0.121,-0.232 0.22,-0.328l2.114,-2.062c0.063,-0.062 0.11,-0.133 0.139,-0.211c0.031,-0.084 0.048,-0.17 0.05,-0.255c0.002,-0.081 -0.015,-0.162 -0.048,-0.243c-0.034,-0.081 -0.082,-0.151 -0.141,-0.209c-0.134,-0.131 -0.288,-0.194 -0.47,-0.194c-0.183,0 -0.337,0.063 -0.471,0.194l-2.114,2.062c-0.226,0.22 -0.396,0.472 -0.506,0.748c-0.111,0.277 -0.166,0.565 -0.164,0.856c0.002,0.29 0.061,0.58 0.174,0.86c0.113,0.279 0.284,0.532 0.51,0.752c0.226,0.221 0.485,0.388 0.77,0.497c0.287,0.11 0.583,0.166 0.878,0.166" style="fill:white;fill-rule:nonzero;"/>        </g>        <g transform="matrix(1,0,0,1,0,526.328)">            <path d="M66.097,32.722c0.008,0 0.016,0 0.024,0c0.123,0.003 0.248,0.026 0.368,0.071c0.124,0.046 0.237,0.117 0.336,0.214c0.099,0.096 0.173,0.207 0.22,0.328c0.045,0.117 0.07,0.239 0.072,0.362c0.003,0.126 -0.019,0.25 -0.066,0.369c-0.046,0.121 -0.12,0.231 -0.219,0.328l-2.114,2.062c-0.063,0.061 -0.11,0.132 -0.139,0.211c-0.031,0.083 -0.048,0.169 -0.05,0.255c-0.002,0.081 0.014,0.163 0.048,0.243c0.034,0.08 0.081,0.151 0.141,0.209c0.134,0.131 0.288,0.194 0.47,0.194c0.183,0 0.337,-0.063 0.471,-0.194l2.114,-2.062c0.225,-0.22 0.396,-0.471 0.506,-0.748c0.111,-0.278 0.166,-0.566 0.163,-0.856c-0.002,-0.291 -0.06,-0.581 -0.174,-0.861c-0.112,-0.278 -0.283,-0.531 -0.509,-0.751c-0.225,-0.22 -0.484,-0.388 -0.77,-0.497c-0.57,-0.219 -1.183,-0.22 -1.754,-0.003c-0.283,0.107 -0.541,0.273 -0.765,0.493l-2.115,2.062c-0.062,0.061 -0.109,0.132 -0.139,0.211c-0.031,0.084 -0.048,0.17 -0.05,0.255c-0.001,0.081 0.015,0.162 0.048,0.243c0.034,0.081 0.082,0.151 0.141,0.209c0.13,0.127 0.283,0.189 0.469,0.191c0.189,0 0.341,-0.062 0.472,-0.191l2.114,-2.062c0.098,-0.096 0.209,-0.168 0.329,-0.216c0.115,-0.046 0.236,-0.069 0.358,-0.069" style="fill:white;fill-rule:nonzero;"/>        </g>    </g></svg>