<?xml version="1.0" encoding="UTF-8" standalone="no"?><!DOCTYPE svg PUBLIC "-//W3C//DTD SVG 1.1//EN" "http://www.w3.org/Graphics/SVG/1.1/DTD/svg11.dtd"><svg width="100%" height="100%" viewBox="0 0 1024 512" version="1.1" xmlns="http://www.w3.org/2000/svg" xmlns:xlink="http://www.w3.org/1999/xlink" xml:space="preserve" style="fill-rule:evenodd;clip-rule:evenodd;stroke-linejoin:round;stroke-miterlimit:2;"><title>AdService</title><desc></desc>    <g transform="matrix(1.43129,0,0,1.43129,1.97137,137.225)">        <g transform="matrix(1,0,0,1,-24.93,-24.93)">            <path d="M270.87,133.45l18.07,0c-0.086,3.953 1.653,7.733 4.71,10.24c3.312,2.736 7.517,4.16 11.81,4c3.888,0.165 7.734,-0.884 11,-3c2.69,-1.698 4.326,-4.666 4.326,-7.847c0,-2.627 -1.115,-5.134 -3.066,-6.893c-2.04,-1.9 -5.327,-3.517 -9.86,-4.85c-1.553,-0.473 -3.757,-1.09 -6.61,-1.85c-7.58,-2.093 -12.407,-3.76 -14.48,-5c-3.378,-1.829 -6.274,-4.434 -8.45,-7.6c-1.843,-2.935 -2.789,-6.345 -2.72,-9.81c0,-6.373 3.03,-11.797 9.09,-16.27c6.06,-4.473 13.46,-6.71 22.2,-6.71c9.133,0 16.39,1.963 21.77,5.89c5.38,3.927 8.327,9.433 8.84,16.52l-18.43,0c-0.224,-2.724 -1.651,-5.212 -3.89,-6.78c-2.267,-1.62 -5.31,-2.43 -9.13,-2.43c-3.076,-0.109 -6.103,0.81 -8.6,2.61c-2.148,1.447 -3.442,3.87 -3.45,6.46c0,4.373 5.183,7.963 15.55,10.77l6.9,1.93c8.16,2.427 13.973,5.447 17.44,9.06c3.467,3.613 5.2,8.44 5.2,14.48c0,7.04 -3.24,12.89 -9.72,17.55c-6.48,4.66 -14.643,6.993 -24.49,7c-9.913,0 -17.913,-2.45 -24,-7.35c-6.087,-4.9 -9.423,-11.607 -10.01,-20.12Z" style="fill:rgb(0,34,84);fill-rule:nonzero;"/>        </g>        <g transform="matrix(1,0,0,1,-24.93,-24.93)">            <path d="M356.3,124.81c0.981,6.198 4.129,11.851 8.88,15.95c4.676,4.051 10.694,6.226 16.88,6.1c9.127,0.144 17.606,-4.826 21.94,-12.86l15.91,0c-3.613,8.707 -8.667,15.373 -15.16,20c-6.622,4.654 -14.558,7.078 -22.65,6.92c-5.457,0.066 -10.87,-0.978 -15.91,-3.07c-4.94,-2.135 -9.386,-5.267 -13.06,-9.2c-3.694,-3.897 -6.613,-8.462 -8.6,-13.45c-2.039,-4.969 -3.092,-10.288 -3.1,-15.66c-0.042,-5.291 0.915,-10.543 2.82,-15.48c1.914,-4.863 4.734,-9.318 8.31,-13.13c7.37,-8.374 18.056,-13.104 29.21,-12.93c6.715,-0.043 13.332,1.619 19.23,4.83c5.919,3.208 10.955,7.829 14.66,13.45c2.304,3.612 4.015,7.568 5.07,11.72c1.155,4.775 1.706,9.677 1.64,14.59l0,2.21l-66.07,0.01Zm50.59,-12.7c-1.76,-6.473 -4.803,-11.473 -9.13,-15c-4.386,-3.563 -9.901,-5.45 -15.55,-5.32c-5.835,-0.114 -11.53,1.818 -16.09,5.46c-4.653,3.814 -7.946,9.037 -9.38,14.88l50.15,-0.02Z" style="fill:rgb(0,34,84);fill-rule:nonzero;"/>        </g>        <g transform="matrix(1,0,0,1,-24.93,-24.93)">            <path d="M519.25,158.85l-10.63,0l-29.83,-78.49l15.21,0l20.62,57.29l21.18,-57.29l14.91,0l-31.46,78.49Z" style="fill:rgb(0,34,84);fill-rule:nonzero;"/>        </g>        <g transform="matrix(1,0,0,1,-24.93,-24.93)">            <path d="M569,71.16l-14,0l0,-15.16l14,0l0,15.16Zm-14,87.69l0,-78.49l14,0l0,78.49l-14,0Z" style="fill:rgb(0,34,84);fill-rule:nonzero;"/>        </g>        <g transform="matrix(1,0,0,1,-24.93,-24.93)">            <path d="M653.66,132.09c-3.28,9.467 -8.157,16.637 -14.63,21.51c-6.473,4.873 -14.347,7.31 -23.62,7.31c-5.452,0.087 -10.864,-0.934 -15.91,-3c-4.887,-2.112 -9.285,-5.21 -12.92,-9.1c-3.694,-3.897 -6.613,-8.462 -8.6,-13.45c-8.385,-20.771 1.246,-44.781 21.66,-54c5.102,-2.251 10.624,-3.396 16.2,-3.36c8.414,-0.186 16.655,2.44 23.41,7.46c6.613,4.973 11.417,11.953 14.41,20.94l-15.48,0c-4.173,-9.124 -13.528,-14.821 -23.55,-14.34c-6.801,-0.084 -13.309,2.812 -17.8,7.92c-4.88,5.28 -7.317,11.797 -7.31,19.55c0.007,7.753 2.48,14.293 7.42,19.62c4.743,5.143 11.476,8.005 18.47,7.85c4.759,0.056 9.429,-1.297 13.42,-3.89c4.095,-2.707 7.339,-6.522 9.35,-11l15.48,-0.02Z" style="fill:rgb(0,34,84);fill-rule:nonzero;"/>        </g>        <g transform="matrix(1,0,0,1,-24.93,-24.93)">            <path d="M671.52,124.81c0.982,6.197 4.13,11.851 8.88,15.95c4.676,4.051 10.694,6.226 16.88,6.1c9.113,0.131 17.575,-4.838 21.9,-12.86l15.91,0c-3.613,8.707 -8.667,15.373 -15.16,20c-6.622,4.654 -14.558,7.078 -22.65,6.92c-5.456,0.066 -10.87,-0.979 -15.91,-3.07c-4.936,-2.137 -9.379,-5.269 -13.05,-9.2c-3.693,-3.898 -6.612,-8.462 -8.6,-13.45c-2.038,-4.97 -3.091,-10.289 -3.1,-15.66c-0.044,-5.291 0.909,-10.542 2.81,-15.48c1.914,-4.863 4.734,-9.319 8.31,-13.13c7.381,-8.387 18.089,-13.119 29.26,-12.93c6.714,-0.045 13.331,1.613 19.23,4.82c5.919,3.208 10.955,7.828 14.66,13.45c2.303,3.614 4.012,7.575 5.06,11.73c1.153,4.776 1.704,9.677 1.64,14.59l0,2.21l-66.07,0.01Zm50.59,-12.7c-1.76,-6.473 -4.803,-11.473 -9.13,-15c-4.385,-3.564 -9.901,-5.451 -15.55,-5.32c-5.835,-0.114 -11.53,1.818 -16.09,5.46c-4.654,3.813 -7.947,9.037 -9.38,14.88l50.15,-0.02Z" style="fill:rgb(0,34,84);fill-rule:nonzero;"/>        </g>        <g transform="matrix(1,0,0,1,-24.93,-24.93)">            <path d="M463.85,78.87c-2.265,-0.105 -4.534,-0.001 -6.78,0.31c-3.017,0.207 -5.954,1.063 -8.61,2.51c-3.242,1.91 -5.984,4.563 -8,7.74l0,-9.07l-13.3,0l0,78.49l14.13,0l0,-43.67c-0.017,-2.314 0.157,-4.625 0.52,-6.91c0.363,-2.285 -0.22,-20.45 32.47,-14.41l0,-12.59c-3.321,-1.368 -6.845,-2.179 -10.43,-2.4Z" style="fill:rgb(0,34,84);fill-rule:nonzero;"/>        </g>        <g transform="matrix(1,0,0,1,-24.93,-24.93)">            <path d="M258.24,107.9l0,-0.63l0,-2.52c0,-3.907 -0.1,-7.84 -0.3,-11.8c0,-0.53 0,-1.06 -0.06,-1.6c-0.51,-12.75 -1.7,-29.9 -4.49,-40.49c-2.632,-10.168 -10.511,-18.187 -20.63,-21c-1.977,-0.509 -3.98,-0.909 -6,-1.2c-1.3,-0.21 -6.61,-0.87 -8,-1c-27.61,-2.77 -77.17,-2.78 -77.17,-2.78c-0.31,0 -49.57,0 -77.11,2.77c-1.37,0.11 -6.75,0.77 -8.06,1c-2.02,0.287 -4.023,0.684 -6,1.19c-10.119,2.813 -17.998,10.832 -20.63,21c-2.79,10.5 -3.95,27.47 -4.47,40.16c0,0.58 0,1.15 -0.07,1.72c-0.187,4 -0.287,7.963 -0.3,11.89l0,6.6c0,3.94 0.1,7.91 0.3,11.91c0,0.58 0,1.17 0.07,1.77c0.52,12.7 1.72,29.62 4.48,40.1c2.632,10.168 10.511,18.187 20.63,21c1.862,0.48 3.748,0.86 5.65,1.14c1.42,0.25 7.85,1 9.65,1.17c27.75,2.64 75.54,2.65 75.84,2.65c0.3,0 48.09,0 75.92,-2.65c1.77,-0.13 8.13,-0.91 9.52,-1.15c1.922,-0.282 3.828,-0.665 5.71,-1.15c10.119,-2.813 17.998,-10.832 20.63,-21c2.78,-10.56 4,-27.68 4.49,-40.41c0,-0.55 0,-1.09 0.06,-1.62c0.187,-4 0.287,-7.95 0.3,-11.85l0,-3.15c0,-0.06 0,0 0,0c0,0 0.04,-0.06 0.04,-0.07Z" style="fill:white;fill-rule:nonzero;"/>        </g>        <g transform="matrix(1,0,0,1,-24.93,-24.93)">            <path d="M186,96.71c-5.968,-0.079 -11.701,2.363 -15.78,6.72c-4.253,4.227 -6.614,10.004 -6.54,16c-0.163,6.079 2.224,11.957 6.58,16.2c4.415,4.326 10.412,6.665 16.59,6.47c5.682,0.082 11.131,-2.293 14.94,-6.51c4.057,-4.279 6.259,-9.995 6.12,-15.89c0.187,-6.096 -2.068,-12.021 -6.26,-16.45c-4.042,-4.312 -9.742,-6.694 -15.65,-6.54Z" style="fill:rgb(5,155,240);fill-rule:nonzero;"/>        </g>        <g transform="matrix(1,0,0,1,-24.93,-24.93)">            <path d="M258.24,107.9l0,-0.63l0,-2.52c0,-3.907 -0.1,-7.84 -0.3,-11.8c0,-0.53 0,-1.06 -0.06,-1.6c-0.51,-12.75 -1.7,-29.9 -4.49,-40.49c-2.632,-10.168 -10.511,-18.187 -20.63,-21c-1.977,-0.509 -3.98,-0.909 -6,-1.2c-1.3,-0.21 -6.61,-0.87 -8,-1c-27.61,-2.77 -77.17,-2.78 -77.17,-2.78c-0.31,0 -49.57,0 -77.11,2.77c-1.37,0.11 -6.75,0.77 -8.06,1c-2.02,0.287 -4.023,0.684 -6,1.19c-10.119,2.813 -17.998,10.832 -20.63,21c-2.79,10.5 -3.95,27.47 -4.47,40.16c0,0.58 0,1.15 -0.07,1.72c-0.187,4 -0.287,7.963 -0.3,11.89l0,6.6c0,3.94 0.1,7.91 0.3,11.91c0,0.58 0,1.17 0.07,1.77c0.52,12.7 1.72,29.62 4.48,40.1c2.632,10.168 10.511,18.187 20.63,21c1.862,0.48 3.748,0.86 5.65,1.14c1.42,0.25 7.85,1 9.65,1.17c27.75,2.64 75.54,2.65 75.84,2.65c0.3,0 48.09,0 75.92,-2.65c1.77,-0.13 8.13,-0.91 9.52,-1.15c1.922,-0.282 3.828,-0.665 5.71,-1.15c10.119,-2.813 17.998,-10.832 20.63,-21c2.78,-10.56 4,-27.68 4.49,-40.41c0,-0.55 0,-1.09 0.06,-1.62c0.187,-4 0.287,-7.95 0.3,-11.85l0,-3.15c0,-0.06 0,0 0,0c0,0 0.04,-0.06 0.04,-0.07Zm-134,51l-8.66,-22.32l-37.82,0l-8.26,22.27l-20.65,0l39.9,-102.85l17.25,0l39.76,102.87l-21.52,0.03Zm84.83,0l-0.41,-7.28c-3.36,2.694 -7.145,4.81 -11.2,6.26c-4.098,1.408 -8.407,2.108 -12.74,2.07c-4.675,0.014 -9.318,-0.784 -13.72,-2.36c-4.233,-1.504 -8.15,-3.783 -11.55,-6.72c-4.581,-3.901 -8.248,-8.763 -10.74,-14.24c-2.494,-5.481 -3.77,-11.438 -3.74,-17.46c-0.002,-11.409 4.804,-22.308 13.23,-30c3.459,-3.291 7.538,-5.861 12,-7.56c4.63,-1.745 9.542,-2.623 14.49,-2.59c4.465,-0.055 8.909,0.614 13.16,1.98c3.929,1.326 7.583,3.359 10.78,6l0,-31l17.64,0l0.41,102.87l-17.61,0.03Z" style="fill:rgb(5,155,240);fill-rule:nonzero;"/>        </g>        <path d="M59.69,92.7l24.36,0l-12.04,-32.82l-12.32,32.82Z" style="fill:rgb(5,155,240);fill-rule:nonzero;"/>    </g></svg>