<?xml version="1.0" encoding="UTF-8" standalone="no"?><!DOCTYPE svg PUBLIC "-//W3C//DTD SVG 1.1//EN" "http://www.w3.org/Graphics/SVG/1.1/DTD/svg11.dtd"><svg width="100%" height="100%" viewBox="0 0 1024 512" version="1.1" xmlns="http://www.w3.org/2000/svg" xmlns:xlink="http://www.w3.org/1999/xlink" xml:space="preserve" style="fill-rule:evenodd;clip-rule:evenodd;stroke-linejoin:round;stroke-miterlimit:2;"><title>Comunitae</title><desc>Comunitae.com is the pioneer platform in Spain to offer individuals a new way to save more profitably than traditional financial products.Comunitae is the first crowd lending platform in Spain. They have been true pioneers in the field and we wanted to communicate this spirit of innovation, introducing them as an alternative to conventional banks.</desc>    <g transform="matrix(2.35023,0,0,2.35023,-1170.76,-542.974)">        <g transform="matrix(1.81915,0,0,1.1305,-508.673,-126.886)">            <g transform="matrix(39.7724,0,0,64,600,435.384)">                <path d="M0.4,-0.347c-0.009,-0.013 -0.023,-0.024 -0.042,-0.033c-0.019,-0.01 -0.038,-0.014 -0.057,-0.014c-0.022,0 -0.041,0.005 -0.058,0.014c-0.017,0.009 -0.031,0.02 -0.042,0.035c-0.011,0.015 -0.019,0.031 -0.024,0.049c-0.005,0.019 -0.008,0.037 -0.008,0.056c0,0.019 0.003,0.037 0.008,0.055c0.006,0.019 0.015,0.035 0.026,0.05c0.011,0.015 0.025,0.027 0.042,0.036c0.017,0.008 0.037,0.013 0.06,0.013c0.019,0 0.037,-0.004 0.056,-0.011c0.019,-0.007 0.034,-0.018 0.045,-0.032l0.075,0.076c-0.02,0.021 -0.046,0.038 -0.077,0.05c-0.031,0.011 -0.064,0.017 -0.1,0.017c-0.035,0 -0.069,-0.006 -0.101,-0.017c-0.031,-0.011 -0.059,-0.028 -0.083,-0.05c-0.023,-0.022 -0.042,-0.049 -0.056,-0.08c-0.013,-0.031 -0.02,-0.067 -0.02,-0.107c0,-0.039 0.007,-0.074 0.02,-0.105c0.014,-0.031 0.033,-0.058 0.056,-0.08c0.023,-0.022 0.05,-0.039 0.081,-0.051c0.032,-0.012 0.065,-0.018 0.1,-0.018c0.035,0 0.069,0.007 0.102,0.02c0.034,0.013 0.06,0.032 0.079,0.055l-0.082,0.072Z" style="fill:rgb(2,58,81);fill-rule:nonzero;"/>            </g>            <g transform="matrix(39.7724,0,0,64,619.409,435.384)">                <path d="M0.044,-0.242c0,-0.038 0.007,-0.073 0.021,-0.104c0.013,-0.031 0.032,-0.057 0.055,-0.079c0.023,-0.022 0.051,-0.039 0.083,-0.051c0.032,-0.012 0.066,-0.018 0.102,-0.018c0.036,0 0.07,0.006 0.102,0.018c0.032,0.012 0.06,0.029 0.083,0.051c0.023,0.022 0.042,0.048 0.055,0.079c0.014,0.031 0.021,0.066 0.021,0.104c0,0.038 -0.007,0.073 -0.021,0.104c-0.013,0.031 -0.032,0.058 -0.055,0.08c-0.023,0.023 -0.051,0.04 -0.083,0.053c-0.032,0.013 -0.066,0.019 -0.102,0.019c-0.036,0 -0.07,-0.006 -0.102,-0.019c-0.032,-0.013 -0.06,-0.03 -0.083,-0.053c-0.023,-0.022 -0.042,-0.049 -0.056,-0.08c-0.013,-0.031 -0.02,-0.066 -0.02,-0.104Zm0.122,0c0,0.019 0.003,0.037 0.008,0.056c0.006,0.019 0.015,0.035 0.026,0.05c0.011,0.015 0.026,0.027 0.043,0.036c0.017,0.009 0.038,0.014 0.062,0.014c0.024,0 0.045,-0.005 0.062,-0.014c0.017,-0.009 0.032,-0.021 0.043,-0.036c0.011,-0.015 0.02,-0.031 0.025,-0.05c0.006,-0.019 0.009,-0.037 0.009,-0.056c0,-0.019 -0.003,-0.037 -0.009,-0.056c-0.005,-0.018 -0.014,-0.034 -0.025,-0.049c-0.011,-0.015 -0.026,-0.027 -0.043,-0.036c-0.017,-0.009 -0.038,-0.013 -0.062,-0.013c-0.024,0 -0.045,0.004 -0.062,0.013c-0.017,0.009 -0.032,0.021 -0.043,0.036c-0.011,0.015 -0.02,0.031 -0.026,0.049c-0.005,0.019 -0.008,0.037 -0.008,0.056Z" style="fill:rgb(2,58,81);fill-rule:nonzero;"/>            </g>            <g transform="matrix(39.7724,0,0,64,643.67,435.384)">                <path d="M0.645,-0.494c0.031,0 0.058,0.006 0.081,0.016c0.022,0.011 0.04,0.026 0.054,0.044c0.015,0.018 0.025,0.039 0.032,0.062c0.007,0.023 0.01,0.047 0.01,0.072l0,0.3l-0.12,0l0,-0.266c0,-0.014 -0.001,-0.029 -0.003,-0.044c-0.002,-0.015 -0.006,-0.029 -0.013,-0.042c-0.007,-0.012 -0.016,-0.022 -0.028,-0.03c-0.011,-0.008 -0.027,-0.012 -0.046,-0.012c-0.019,0 -0.035,0.004 -0.048,0.012c-0.013,0.008 -0.024,0.018 -0.033,0.031c-0.009,0.013 -0.015,0.027 -0.019,0.042c-0.004,0.016 -0.006,0.032 -0.006,0.047l0,0.262l-0.12,0l0,-0.29c0,-0.03 -0.007,-0.055 -0.021,-0.075c-0.015,-0.019 -0.037,-0.029 -0.068,-0.029c-0.018,0 -0.034,0.004 -0.047,0.012c-0.013,0.007 -0.024,0.017 -0.032,0.029c-0.009,0.012 -0.015,0.026 -0.019,0.041c-0.005,0.016 -0.007,0.032 -0.007,0.048l0,0.264l-0.12,0l0,-0.48l0.114,0l0,0.077l0.002,0c0.005,-0.012 0.013,-0.023 0.022,-0.034c0.009,-0.011 0.019,-0.02 0.032,-0.029c0.012,-0.009 0.026,-0.016 0.042,-0.021c0.016,-0.005 0.034,-0.007 0.053,-0.007c0.037,0 0.068,0.008 0.093,0.025c0.025,0.017 0.044,0.039 0.057,0.066c0.016,-0.029 0.037,-0.052 0.064,-0.068c0.027,-0.015 0.058,-0.023 0.094,-0.023Z" style="fill:rgb(2,58,81);fill-rule:nonzero;"/>            </g>            <g transform="matrix(39.7724,0,0,64,679.068,435.384)">                <path d="M0.51,0l-0.114,0l0,-0.077l-0.002,0c-0.011,0.024 -0.029,0.045 -0.055,0.064c-0.027,0.018 -0.058,0.027 -0.094,0.027c-0.031,0 -0.058,-0.006 -0.081,-0.017c-0.022,-0.011 -0.04,-0.025 -0.055,-0.043c-0.014,-0.018 -0.024,-0.039 -0.031,-0.062c-0.007,-0.023 -0.01,-0.047 -0.01,-0.072l0,-0.3l0.12,0l0,0.266c0,0.014 0.001,0.029 0.003,0.044c0.002,0.015 0.006,0.029 0.013,0.041c0.007,0.013 0.016,0.023 0.027,0.031c0.012,0.008 0.028,0.012 0.047,0.012c0.019,0 0.035,-0.004 0.049,-0.012c0.015,-0.007 0.026,-0.017 0.035,-0.029c0.009,-0.012 0.016,-0.026 0.021,-0.042c0.005,-0.015 0.007,-0.031 0.007,-0.047l0,-0.264l0.12,0l0,0.48Z" style="fill:rgb(2,58,81);fill-rule:nonzero;"/>            </g>            <g transform="matrix(39.7724,0,0,64,702.215,435.384)">                <path d="M0.072,-0.48l0.114,0l0,0.077l0.002,0c0.011,-0.024 0.029,-0.045 0.055,-0.064c0.027,-0.018 0.058,-0.027 0.094,-0.027c0.031,0 0.058,0.006 0.081,0.016c0.022,0.011 0.04,0.026 0.055,0.044c0.014,0.018 0.024,0.039 0.031,0.062c0.007,0.023 0.01,0.047 0.01,0.072l0,0.3l-0.12,0l0,-0.266c0,-0.014 -0.001,-0.029 -0.003,-0.044c-0.002,-0.015 -0.006,-0.029 -0.013,-0.042c-0.007,-0.012 -0.016,-0.022 -0.027,-0.03c-0.012,-0.008 -0.028,-0.012 -0.047,-0.012c-0.019,0 -0.036,0.004 -0.05,0.012c-0.014,0.007 -0.025,0.017 -0.035,0.029c-0.008,0.012 -0.015,0.026 -0.02,0.041c-0.005,0.016 -0.007,0.032 -0.007,0.048l0,0.264l-0.12,0l0,-0.48Z" style="fill:rgb(2,58,81);fill-rule:nonzero;"/>            </g>            <g transform="matrix(39.7724,0,0,64,725.363,435.384)">                <rect x="0.074" y="-0.48" width="0.12" height="0.48" style="fill:rgb(2,58,81);"/>            </g>            <g transform="matrix(39.7724,0,0,64,725.363,435.384)">                <path d="M0.057,-0.643c0,-0.019 0.007,-0.036 0.022,-0.051c0.014,-0.014 0.032,-0.021 0.054,-0.021c0.022,0 0.041,0.007 0.055,0.021c0.016,0.013 0.023,0.03 0.023,0.051c0,0.021 -0.007,0.038 -0.023,0.052c-0.014,0.013 -0.033,0.02 -0.055,0.02c-0.022,0 -0.04,-0.007 -0.054,-0.022c-0.015,-0.014 -0.022,-0.031 -0.022,-0.05Z" style="fill:rgb(54,183,184);"/>            </g>            <g transform="matrix(39.7724,0,0,64,736.022,435.384)">                <path d="M0.003,-0.384l0,-0.096l0.084,0l0,-0.139l0.118,0l0,0.139l0.12,0l0,0.096l-0.12,0l0,0.223c0,0.021 0.004,0.039 0.011,0.053c0.008,0.014 0.025,0.021 0.052,0.021c0.008,0 0.017,-0.001 0.026,-0.002c0.009,-0.002 0.018,-0.005 0.025,-0.008l0.004,0.094c-0.011,0.004 -0.023,0.007 -0.038,0.01c-0.015,0.002 -0.029,0.003 -0.042,0.003c-0.032,0 -0.058,-0.004 -0.078,-0.013c-0.02,-0.01 -0.036,-0.022 -0.048,-0.038c-0.011,-0.015 -0.019,-0.033 -0.024,-0.054c-0.004,-0.02 -0.006,-0.042 -0.006,-0.065l0,-0.224l-0.084,0Z" style="fill:rgb(2,58,81);fill-rule:nonzero;"/>            </g>            <g transform="matrix(39.7724,0,0,64,749.544,435.384)">                <path d="M0.37,-0.061l-0.003,0c-0.012,0.021 -0.031,0.039 -0.058,0.053c-0.027,0.013 -0.057,0.02 -0.091,0.02c-0.019,0 -0.04,-0.003 -0.061,-0.008c-0.021,-0.005 -0.04,-0.013 -0.057,-0.025c-0.018,-0.011 -0.033,-0.027 -0.045,-0.046c-0.011,-0.019 -0.017,-0.042 -0.017,-0.07c0,-0.036 0.01,-0.065 0.031,-0.086c0.02,-0.021 0.046,-0.038 0.078,-0.049c0.032,-0.011 0.067,-0.019 0.106,-0.022c0.039,-0.004 0.078,-0.006 0.115,-0.006l0,-0.012c0,-0.03 -0.011,-0.052 -0.032,-0.066c-0.022,-0.015 -0.048,-0.022 -0.078,-0.022c-0.025,0 -0.05,0.005 -0.073,0.016c-0.023,0.011 -0.043,0.024 -0.058,0.039l-0.062,-0.073c0.027,-0.025 0.059,-0.044 0.095,-0.057c0.035,-0.013 0.071,-0.019 0.108,-0.019c0.043,0 0.078,0.006 0.106,0.018c0.027,0.012 0.049,0.028 0.065,0.047c0.016,0.019 0.027,0.041 0.034,0.065c0.006,0.024 0.009,0.048 0.009,0.072l0,0.292l-0.112,0l0,-0.061Zm-0.002,-0.158l-0.027,0c-0.019,0 -0.04,0.001 -0.061,0.003c-0.021,0.001 -0.041,0.005 -0.059,0.011c-0.018,0.005 -0.033,0.013 -0.045,0.024c-0.012,0.01 -0.018,0.024 -0.018,0.042c0,0.011 0.003,0.021 0.008,0.029c0.005,0.007 0.011,0.013 0.019,0.018c0.008,0.005 0.017,0.008 0.027,0.01c0.01,0.002 0.02,0.003 0.03,0.003c0.041,0 0.073,-0.011 0.094,-0.033c0.021,-0.022 0.032,-0.052 0.032,-0.09l0,-0.017Z" style="fill:rgb(2,58,81);fill-rule:nonzero;"/>            </g>            <g transform="matrix(39.7724,0,0,64,771.419,435.384)">                <path d="M0.41,-0.288c0,-0.015 -0.002,-0.03 -0.007,-0.044c-0.004,-0.014 -0.011,-0.026 -0.02,-0.037c-0.009,-0.011 -0.021,-0.019 -0.035,-0.026c-0.015,-0.006 -0.032,-0.009 -0.051,-0.009c-0.036,0 -0.066,0.011 -0.091,0.033c-0.025,0.021 -0.039,0.049 -0.042,0.083l0.246,0Zm0.12,0.054l0,0.016c0,0.005 0,0.011 -0.001,0.016l-0.365,0c0.001,0.017 0.006,0.033 0.013,0.047c0.008,0.015 0.018,0.027 0.031,0.037c0.013,0.011 0.027,0.019 0.043,0.025c0.016,0.006 0.033,0.009 0.05,0.009c0.03,0 0.055,-0.006 0.076,-0.017c0.021,-0.011 0.038,-0.026 0.051,-0.045l0.08,0.064c-0.047,0.064 -0.116,0.096 -0.206,0.096c-0.037,0 -0.072,-0.006 -0.103,-0.018c-0.031,-0.011 -0.058,-0.028 -0.081,-0.049c-0.023,-0.021 -0.041,-0.048 -0.054,-0.079c-0.013,-0.031 -0.02,-0.066 -0.02,-0.105c0,-0.039 0.007,-0.074 0.02,-0.106c0.013,-0.031 0.03,-0.058 0.053,-0.081c0.023,-0.022 0.05,-0.039 0.081,-0.052c0.031,-0.012 0.064,-0.018 0.1,-0.018c0.033,0 0.064,0.005 0.093,0.016c0.028,0.011 0.052,0.028 0.073,0.049c0.021,0.022 0.037,0.049 0.049,0.081c0.011,0.033 0.017,0.071 0.017,0.114Z" style="fill:rgb(2,58,81);fill-rule:nonzero;"/>            </g>        </g>        <g>            <g transform="matrix(64.9351,0,0,69.4444,537.299,363.236)">                <path d="M0.057,-0.643c0,-0.019 0.007,-0.036 0.022,-0.051c0.014,-0.014 0.032,-0.021 0.054,-0.021c0.022,0 0.041,0.007 0.055,0.021c0.016,0.013 0.023,0.03 0.023,0.051c0,0.021 -0.007,0.038 -0.023,0.052c-0.014,0.013 -0.033,0.02 -0.055,0.02c-0.022,0 -0.04,-0.007 -0.054,-0.022c-0.015,-0.014 -0.022,-0.031 -0.022,-0.05Z" style="fill:rgb(54,183,184);"/>            </g>            <g transform="matrix(64.9351,0,0,69.4444,537.299,377.653)">                <path d="M0.057,-0.643c0,-0.019 0.007,-0.036 0.022,-0.051c0.014,-0.014 0.032,-0.021 0.054,-0.021c0.022,0 0.041,0.007 0.055,0.021c0.016,0.013 0.023,0.03 0.023,0.051c0,0.021 -0.007,0.038 -0.023,0.052c-0.014,0.013 -0.033,0.02 -0.055,0.02c-0.022,0 -0.04,-0.007 -0.054,-0.022c-0.015,-0.014 -0.022,-0.031 -0.022,-0.05Z" style="fill:rgb(54,183,184);"/>            </g>            <g transform="matrix(64.9351,0,0,69.4444,537.299,391.653)">                <path d="M0.057,-0.643c0,-0.019 0.007,-0.036 0.022,-0.051c0.014,-0.014 0.032,-0.021 0.054,-0.021c0.022,0 0.041,0.007 0.055,0.021c0.016,0.013 0.023,0.03 0.023,0.051c0,0.021 -0.007,0.038 -0.023,0.052c-0.014,0.013 -0.033,0.02 -0.055,0.02c-0.022,0 -0.04,-0.007 -0.054,-0.022c-0.015,-0.014 -0.022,-0.031 -0.022,-0.05Z" style="fill:rgb(54,183,184);"/>            </g>            <g transform="matrix(64.9351,0,0,69.4444,537.299,405.981)">                <path d="M0.057,-0.643c0,-0.019 0.007,-0.036 0.022,-0.051c0.014,-0.014 0.032,-0.021 0.054,-0.021c0.022,0 0.041,0.007 0.055,0.021c0.016,0.013 0.023,0.03 0.023,0.051c0,0.021 -0.007,0.038 -0.023,0.052c-0.014,0.013 -0.033,0.02 -0.055,0.02c-0.022,0 -0.04,-0.007 -0.054,-0.022c-0.015,-0.014 -0.022,-0.031 -0.022,-0.05Z" style="fill:rgb(54,183,184);"/>            </g>            <g transform="matrix(64.9351,0,0,69.4444,523.299,363.236)">                <path d="M0.057,-0.643c0,-0.019 0.007,-0.036 0.022,-0.051c0.014,-0.014 0.032,-0.021 0.054,-0.021c0.022,0 0.041,0.007 0.055,0.021c0.016,0.013 0.023,0.03 0.023,0.051c0,0.021 -0.007,0.038 -0.023,0.052c-0.014,0.013 -0.033,0.02 -0.055,0.02c-0.022,0 -0.04,-0.007 -0.054,-0.022c-0.015,-0.014 -0.022,-0.031 -0.022,-0.05Z" style="fill:rgb(54,183,184);"/>            </g>            <g transform="matrix(64.9351,0,0,69.4444,523.299,377.653)">                <path d="M0.057,-0.643c0,-0.019 0.007,-0.036 0.022,-0.051c0.014,-0.014 0.032,-0.021 0.054,-0.021c0.022,0 0.041,0.007 0.055,0.021c0.016,0.013 0.023,0.03 0.023,0.051c0,0.021 -0.007,0.038 -0.023,0.052c-0.014,0.013 -0.033,0.02 -0.055,0.02c-0.022,0 -0.04,-0.007 -0.054,-0.022c-0.015,-0.014 -0.022,-0.031 -0.022,-0.05Z" style="fill:rgb(54,183,184);"/>            </g>            <g transform="matrix(64.9351,0,0,69.4444,523.299,391.653)">                <path d="M0.057,-0.643c0,-0.019 0.007,-0.036 0.022,-0.051c0.014,-0.014 0.032,-0.021 0.054,-0.021c0.022,0 0.041,0.007 0.055,0.021c0.016,0.013 0.023,0.03 0.023,0.051c0,0.021 -0.007,0.038 -0.023,0.052c-0.014,0.013 -0.033,0.02 -0.055,0.02c-0.022,0 -0.04,-0.007 -0.054,-0.022c-0.015,-0.014 -0.022,-0.031 -0.022,-0.05Z" style="fill:rgb(54,183,184);"/>            </g>            <g transform="matrix(64.9351,0,0,69.4444,523.299,405.981)">                <path d="M0.057,-0.643c0,-0.019 0.007,-0.036 0.022,-0.051c0.014,-0.014 0.032,-0.021 0.054,-0.021c0.022,0 0.041,0.007 0.055,0.021c0.016,0.013 0.023,0.03 0.023,0.051c0,0.021 -0.007,0.038 -0.023,0.052c-0.014,0.013 -0.033,0.02 -0.055,0.02c-0.022,0 -0.04,-0.007 -0.054,-0.022c-0.015,-0.014 -0.022,-0.031 -0.022,-0.05Z" style="fill:rgb(54,183,184);"/>            </g>            <g transform="matrix(64.9351,0,0,69.4444,509.299,363.236)">                <path d="M0.057,-0.643c0,-0.019 0.007,-0.036 0.022,-0.051c0.014,-0.014 0.032,-0.021 0.054,-0.021c0.022,0 0.041,0.007 0.055,0.021c0.016,0.013 0.023,0.03 0.023,0.051c0,0.021 -0.007,0.038 -0.023,0.052c-0.014,0.013 -0.033,0.02 -0.055,0.02c-0.022,0 -0.04,-0.007 -0.054,-0.022c-0.015,-0.014 -0.022,-0.031 -0.022,-0.05Z" style="fill:rgb(54,183,184);"/>            </g>            <g transform="matrix(64.9351,0,0,69.4444,495.299,363.236)">                <path d="M0.057,-0.643c0,-0.019 0.007,-0.036 0.022,-0.051c0.014,-0.014 0.032,-0.021 0.054,-0.021c0.022,0 0.041,0.007 0.055,0.021c0.016,0.013 0.023,0.03 0.023,0.051c0,0.021 -0.007,0.038 -0.023,0.052c-0.014,0.013 -0.033,0.02 -0.055,0.02c-0.022,0 -0.04,-0.007 -0.054,-0.022c-0.015,-0.014 -0.022,-0.031 -0.022,-0.05Z" style="fill:rgb(2,58,81);"/>            </g>            <path d="M503.935,328l14,0c1.429,0 2.63,0.475 3.604,1.424c0.974,0.949 1.461,2.141 1.461,3.576c0,1.435 -0.487,2.627 -1.461,3.576c-0.974,0.949 -2.175,1.424 -3.604,1.424c-1.429,0 -8.371,-0.237 -8.935,0l0,23.328c0,1.435 -0.487,2.627 -1.461,3.576c-0.974,0.949 -2.175,1.424 -3.604,1.424c-1.429,0 -2.608,-0.498 -3.539,-1.493c-0.931,-0.995 -1.396,-2.164 -1.396,-3.507l0,-28.328c0,-1.343 0.465,-2.512 1.396,-3.507c0.931,-0.995 2.11,-1.493 3.539,-1.493Z" style="fill:rgb(2,58,81);"/>            <g transform="matrix(64.9351,0,0,69.4444,509.299,391.653)">                <path d="M0.057,-0.643c0,-0.019 0.007,-0.036 0.022,-0.051c0.014,-0.014 0.032,-0.021 0.054,-0.021c0.022,0 0.041,0.007 0.055,0.021c0.016,0.013 0.023,0.03 0.023,0.051c0,0.021 -0.007,0.038 -0.023,0.052c-0.014,0.013 -0.033,0.02 -0.055,0.02c-0.022,0 -0.04,-0.007 -0.054,-0.022c-0.015,-0.014 -0.022,-0.031 -0.022,-0.05Z" style="fill:rgb(54,183,184);"/>            </g>            <g transform="matrix(64.9351,0,0,69.4444,509.299,405.981)">                <path d="M0.057,-0.643c0,-0.019 0.007,-0.036 0.022,-0.051c0.014,-0.014 0.032,-0.021 0.054,-0.021c0.022,0 0.041,0.007 0.055,0.021c0.016,0.013 0.023,0.03 0.023,0.051c0,0.021 -0.007,0.038 -0.023,0.052c-0.014,0.013 -0.033,0.02 -0.055,0.02c-0.022,0 -0.04,-0.007 -0.054,-0.022c-0.015,-0.014 -0.022,-0.031 -0.022,-0.05Z" style="fill:rgb(54,183,184);"/>            </g>        </g>    </g></svg>