<?xml version="1.0" encoding="UTF-8" standalone="no"?><!DOCTYPE svg PUBLIC "-//W3C//DTD SVG 1.1//EN" "http://www.w3.org/Graphics/SVG/1.1/DTD/svg11.dtd"><svg width="100%" height="100%" viewBox="0 0 1024 512" version="1.1" xmlns="http://www.w3.org/2000/svg" xmlns:xlink="http://www.w3.org/1999/xlink" xml:space="preserve" style="fill-rule:evenodd;clip-rule:evenodd;stroke-linejoin:round;stroke-miterlimit:2;"><title>CoFunder</title><desc>CoFunder is a crowdfunding platform that connects lenders with businesses with the sole intention of helping both achieve their objectives.</desc>    <g transform="matrix(4.69453,0,0,3.9456,-635.974,122.228)">        <g transform="matrix(53.7899,0,0,64,199.408,54.9013)">            <path d="M0.438,-0.371l0,-0.045l-0.266,0l0,-0.146l0.355,0l0,-0.118l-0.422,0c-0.039,0 -0.07,0.034 -0.07,0.073l0,0.607l0.137,0l0,-0.301l0.193,0c0.039,0 0.073,-0.031 0.073,-0.07Z" style="fill:rgb(113,191,69);fill-rule:nonzero;"/>        </g>        <g transform="matrix(53.7899,0,0,64,228.521,54.9013)">            <path d="M0.48,-0.529l-0.068,0c-0.044,0 -0.065,0.022 -0.064,0.066l0,0.279c0,0.059 -0.03,0.088 -0.09,0.088c-0.06,0 -0.09,-0.029 -0.09,-0.088l0,-0.345l-0.133,0l0,0.318c0,0.089 0.023,0.147 0.069,0.176c0.046,0.03 0.095,0.045 0.15,0.045c0.057,0 0.109,-0.014 0.156,-0.041c0.047,-0.029 0.07,-0.089 0.07,-0.18l0,-0.318Z" style="fill:rgb(113,191,69);fill-rule:nonzero;"/>        </g>        <g transform="matrix(53.7899,0,0,64,254.999,54.9013)">            <path d="M0.486,0l0,-0.311c0.001,-0.151 -0.073,-0.226 -0.224,-0.226c-0.151,0 -0.227,0.075 -0.227,0.226l0,0.311l0.135,0l0,-0.338c0.001,-0.055 0.031,-0.082 0.09,-0.082c0.059,0 0.089,0.027 0.092,0.082l0,0.272c0,0.042 0.022,0.063 0.066,0.066l0.068,0Z" style="fill:rgb(113,191,69);fill-rule:nonzero;"/>        </g>        <g transform="matrix(53.7899,0,0,64,280.169,54.9013)">            <path d="M0.279,-0.418c0.072,0 0.109,0.05 0.112,0.152c0,0.107 -0.038,0.161 -0.114,0.161c-0.076,0 -0.112,-0.054 -0.111,-0.161c0.004,-0.102 0.041,-0.152 0.113,-0.152Zm0.178,-0.262l-0.066,0l0,0.225c-0.034,-0.055 -0.085,-0.082 -0.151,-0.082c-0.141,0.005 -0.211,0.097 -0.211,0.277c0,0.176 0.082,0.265 0.246,0.268c0.165,0.001 0.248,-0.078 0.248,-0.237l0,-0.384c0,-0.036 -0.03,-0.067 -0.066,-0.067Z" style="fill:rgb(113,191,69);fill-rule:nonzero;"/>        </g>        <g transform="matrix(53.7899,0,0,64,307.909,54.9013)">            <path d="M0.502,-0.162l-0.098,0c-0.018,0 -0.033,0.006 -0.045,0.019c-0.026,0.025 -0.055,0.038 -0.086,0.038c-0.065,0 -0.1,-0.041 -0.105,-0.122l0.342,0c0.01,-0.207 -0.069,-0.31 -0.237,-0.31c-0.161,0.001 -0.242,0.091 -0.242,0.271c0,0.18 0.08,0.273 0.24,0.278c0.13,0 0.202,-0.062 0.231,-0.174Zm-0.231,-0.266c0.057,0 0.09,0.036 0.098,0.106l-0.199,0c0.01,-0.07 0.044,-0.106 0.101,-0.106Z" style="fill:rgb(113,191,69);fill-rule:nonzero;"/>        </g>        <g transform="matrix(53.7899,0,0,64,335.636,54.9013)">            <path d="M0.035,0l0.135,0l0,-0.275c0,-0.077 0.037,-0.116 0.111,-0.116l0.045,0l0,-0.138l-0.019,0c-0.177,0 -0.268,0.085 -0.272,0.256l0,0.273Z" style="fill:rgb(113,191,69);fill-rule:nonzero;"/>        </g>        <g transform="matrix(0.57902,0,0,0.688925,130.107,8.82239)">            <path d="M113.496,21.112l-3.249,6.01c5.927,4.284 8.585,13.242 8.585,17.95c0,13.404 -9.882,24.286 -23.286,24.286c-13.404,0 -24.286,-10.882 -24.286,-24.286c0,-13.404 10.489,-24.286 25.286,-24.286l-0.345,2.754l-2.76,0.388l2.178,4.27l-0.073,0.588c-8.989,0 -16.286,7.298 -16.286,16.286c0,8.989 7.297,16.286 16.286,16.286c8.988,0 15.342,-6.49 15.342,-15.478c0,-2.755 -2.198,-7.875 -4.72,-11.215l-3.73,6.9l-4.009,-16.32l15.067,-4.133Z" style="fill:rgb(10,148,249);"/>        </g>        <g transform="matrix(54.7174,0,0,65.6633,134.311,56.2625)">            <path d="M0.637,-0.236l-0.135,0c-0.015,0.075 -0.065,0.123 -0.152,0.123c-0.127,0 -0.182,-0.094 -0.182,-0.227c0,-0.137 0.057,-0.228 0.186,-0.228c0.066,0 0.111,0.025 0.134,0.074c0.013,0.027 0.035,0.041 0.065,0.041l0.084,0c-0.007,-0.074 -0.034,-0.133 -0.082,-0.176c-0.051,-0.042 -0.118,-0.062 -0.201,-0.062c-0.215,0 -0.325,0.132 -0.325,0.351c0,0.212 0.104,0.35 0.313,0.35c0.172,0 0.282,-0.089 0.295,-0.246Z" style="fill:rgb(10,148,249);fill-rule:nonzero;"/>        </g>    </g></svg>