<?xml version="1.0" encoding="UTF-8" standalone="no"?><!DOCTYPE svg PUBLIC "-//W3C//DTD SVG 1.1//EN" "http://www.w3.org/Graphics/SVG/1.1/DTD/svg11.dtd"><svg width="100%" height="100%" viewBox="0 0 1024 512" version="1.1" xmlns="http://www.w3.org/2000/svg" xmlns:xlink="http://www.w3.org/1999/xlink" xml:space="preserve" style="fill-rule:evenodd;clip-rule:evenodd;stroke-linejoin:round;stroke-miterlimit:2;"><title>Crowdahouse</title><desc>We launched our platform in 2012 as an equity fund for investors in UK property. Since then, most of the property crowdfunding platforms have been started by people who joined Crowdahouse as Members and who saw the model we designed as a dynamic new way of financing property</desc>    <g transform="matrix(3.76561,0,0,4.06936,-524.18,-52.2802)">        <g transform="matrix(48,0,0,48,145.14,106.029)">            <path d="M0.295,-0.222l0.155,0l0.001,0.022c0,0.072 -0.017,0.126 -0.05,0.162c-0.034,0.035 -0.085,0.053 -0.153,0.053c-0.077,0 -0.131,-0.022 -0.163,-0.066c-0.031,-0.043 -0.047,-0.121 -0.047,-0.231c0,-0.111 0.016,-0.188 0.047,-0.232c0.032,-0.044 0.086,-0.066 0.163,-0.066c0.069,0 0.12,0.018 0.152,0.053c0.033,0.035 0.049,0.09 0.049,0.165l0,0.01l-0.152,0l0,-0.016c0,-0.034 -0.004,-0.058 -0.011,-0.072c-0.007,-0.015 -0.02,-0.022 -0.037,-0.022c-0.02,0 -0.033,0.01 -0.04,0.029c-0.007,0.019 -0.011,0.069 -0.011,0.151c0,0.078 0.004,0.128 0.011,0.149c0.007,0.021 0.02,0.032 0.039,0.032c0.017,0 0.029,-0.008 0.036,-0.023c0.008,-0.015 0.012,-0.039 0.012,-0.072l-0.001,-0.026Z" style="fill:rgb(29,29,29);fill-rule:nonzero;"/>        </g>        <g transform="matrix(48,0,0,48,167.949,106.029)">            <path d="M0.05,0l0,-0.565l0.145,0l0,0.079c0.017,-0.028 0.036,-0.05 0.057,-0.064c0.02,-0.015 0.044,-0.024 0.07,-0.026l0,0.179c-0.009,-0.002 -0.017,-0.003 -0.025,-0.004c-0.008,-0.001 -0.016,-0.002 -0.022,-0.002c-0.025,0 -0.043,0.009 -0.053,0.027c-0.01,0.018 -0.015,0.053 -0.015,0.105l0,0.271l-0.157,0Z" style="fill:rgb(29,29,29);fill-rule:nonzero;"/>        </g>        <g transform="matrix(48,0,0,48,184.566,106.029)">            <path d="M0.198,-0.282c0,0.079 0.004,0.129 0.011,0.149c0.007,0.02 0.02,0.03 0.039,0.03c0.019,0 0.032,-0.01 0.039,-0.029c0.007,-0.019 0.011,-0.069 0.011,-0.15c0,-0.081 -0.004,-0.131 -0.011,-0.151c-0.007,-0.019 -0.02,-0.029 -0.039,-0.029c-0.019,0 -0.032,0.01 -0.039,0.03c-0.007,0.021 -0.011,0.07 -0.011,0.15Zm-0.16,0c0,-0.11 0.016,-0.187 0.047,-0.232c0.032,-0.044 0.086,-0.066 0.163,-0.066c0.077,0 0.131,0.022 0.163,0.066c0.031,0.044 0.047,0.121 0.047,0.232c0,0.11 -0.016,0.187 -0.047,0.231c-0.032,0.044 -0.086,0.066 -0.163,0.066c-0.077,0 -0.131,-0.022 -0.163,-0.066c-0.031,-0.043 -0.047,-0.121 -0.047,-0.231Z" style="fill:rgb(29,29,29);fill-rule:nonzero;"/>        </g>        <g transform="matrix(50.7519,0,0,48,208.401,106.029)">            <path d="M0.118,0l-0.109,-0.565l0.153,0l0.044,0.393l0.06,-0.393l0.132,0l0.059,0.393l0.045,-0.393l0.153,0l-0.11,0.565l-0.164,0l-0.05,-0.311l-0.049,0.311l-0.164,0Z" style="fill:rgb(29,29,29);fill-rule:nonzero;"/>        </g>        <g transform="matrix(48,0,0,48,242.797,106.029)">            <path d="M0.254,-0.444c-0.02,0 -0.034,0.01 -0.041,0.031c-0.007,0.02 -0.011,0.066 -0.011,0.136c0,0.073 0.004,0.119 0.01,0.137c0.007,0.018 0.02,0.027 0.038,0.027c0.021,0 0.035,-0.011 0.043,-0.033c0.008,-0.021 0.012,-0.079 0.012,-0.172c0,-0.048 -0.004,-0.081 -0.011,-0.099c-0.008,-0.018 -0.021,-0.027 -0.04,-0.027Zm0.205,-0.308l0,0.752l-0.145,0l0,-0.062c-0.015,0.025 -0.033,0.045 -0.055,0.058c-0.022,0.013 -0.046,0.02 -0.072,0.02c-0.022,0 -0.042,-0.004 -0.06,-0.012c-0.018,-0.008 -0.034,-0.019 -0.046,-0.034c-0.014,-0.017 -0.024,-0.041 -0.029,-0.07c-0.006,-0.03 -0.009,-0.085 -0.009,-0.166c0,-0.128 0.011,-0.212 0.032,-0.252c0.022,-0.04 0.06,-0.06 0.116,-0.06c0.024,0 0.045,0.005 0.062,0.016c0.018,0.01 0.034,0.027 0.049,0.049l0,-0.239l0.157,0Z" style="fill:rgb(29,29,29);fill-rule:nonzero;"/>        </g>        <g transform="matrix(48,0,0,48,265.609,106.029)">            <path d="M0.306,-0.272c-0.041,0.011 -0.07,0.026 -0.089,0.043c-0.019,0.016 -0.028,0.038 -0.028,0.063c0,0.018 0.005,0.032 0.014,0.043c0.009,0.011 0.022,0.016 0.037,0.016c0.023,0 0.04,-0.008 0.051,-0.023c0.01,-0.016 0.015,-0.042 0.015,-0.079l0,-0.063Zm0.02,0.272l-0.009,-0.052c-0.02,0.021 -0.042,0.037 -0.065,0.047c-0.024,0.011 -0.05,0.016 -0.077,0.016c-0.044,0 -0.08,-0.014 -0.105,-0.043c-0.026,-0.028 -0.039,-0.067 -0.039,-0.116c0,-0.043 0.011,-0.078 0.033,-0.105c0.022,-0.028 0.058,-0.052 0.108,-0.072c0.012,-0.005 0.028,-0.011 0.049,-0.018c0.059,-0.022 0.088,-0.046 0.088,-0.073c0,-0.017 -0.004,-0.029 -0.013,-0.038c-0.008,-0.008 -0.02,-0.013 -0.036,-0.013c-0.019,0 -0.034,0.006 -0.043,0.018c-0.009,0.011 -0.014,0.029 -0.014,0.053l0,0.004l-0.158,0c0,-0.064 0.018,-0.111 0.053,-0.142c0.036,-0.032 0.09,-0.047 0.162,-0.047c0.032,0 0.061,0.003 0.087,0.009c0.025,0.006 0.047,0.015 0.064,0.026c0.022,0.015 0.038,0.033 0.047,0.054c0.009,0.021 0.013,0.06 0.013,0.116l0,0.218c0,0.044 0.002,0.078 0.005,0.101c0.003,0.023 0.008,0.042 0.015,0.057l-0.165,0Z" style="fill:rgb(29,29,29);fill-rule:nonzero;"/>        </g>        <g transform="matrix(48,0,0,48,290.664,106.029)">            <path d="M0.05,0l0,-0.752l0.157,0l0,0.247c0.013,-0.024 0.031,-0.041 0.052,-0.053c0.021,-0.012 0.046,-0.018 0.075,-0.018c0.044,0 0.076,0.014 0.096,0.044c0.02,0.029 0.03,0.075 0.03,0.138l0,0.394l-0.157,0l0,-0.349c0,-0.045 -0.003,-0.074 -0.009,-0.085c-0.005,-0.011 -0.016,-0.016 -0.031,-0.016c-0.017,0 -0.031,0.008 -0.041,0.025c-0.01,0.018 -0.015,0.041 -0.015,0.072l0,0.353l-0.157,0Z" style="fill:rgb(29,29,29);fill-rule:nonzero;"/>        </g>        <g transform="matrix(48,0,0,48,314.898,106.029)">            <path d="M0.198,-0.282c0,0.079 0.004,0.129 0.011,0.149c0.007,0.02 0.02,0.03 0.039,0.03c0.019,0 0.032,-0.01 0.039,-0.029c0.007,-0.019 0.011,-0.069 0.011,-0.15c0,-0.081 -0.004,-0.131 -0.011,-0.151c-0.007,-0.019 -0.02,-0.029 -0.039,-0.029c-0.019,0 -0.032,0.01 -0.039,0.03c-0.007,0.021 -0.011,0.07 -0.011,0.15Zm-0.16,0c0,-0.11 0.016,-0.187 0.047,-0.232c0.032,-0.044 0.086,-0.066 0.163,-0.066c0.077,0 0.131,0.022 0.163,0.066c0.031,0.044 0.047,0.121 0.047,0.232c0,0.11 -0.016,0.187 -0.047,0.231c-0.032,0.044 -0.086,0.066 -0.163,0.066c-0.077,0 -0.131,-0.022 -0.163,-0.066c-0.031,-0.043 -0.047,-0.121 -0.047,-0.231Z" style="fill:rgb(29,29,29);fill-rule:nonzero;"/>        </g>        <g transform="matrix(48,0,0,48,338.757,106.029)">            <path d="M0.461,-0.565l0,0.565l-0.148,0l0,-0.067c-0.018,0.027 -0.037,0.047 -0.059,0.059c-0.022,0.013 -0.048,0.019 -0.077,0.019c-0.044,0 -0.076,-0.014 -0.096,-0.044c-0.021,-0.029 -0.031,-0.075 -0.031,-0.138l0,-0.394l0.158,0l0,0.349c0,0.045 0.003,0.074 0.009,0.084c0.006,0.011 0.016,0.017 0.031,0.017c0.018,0 0.031,-0.009 0.041,-0.026c0.01,-0.017 0.015,-0.04 0.015,-0.071l0,-0.353l0.157,0Z" style="fill:rgb(29,29,29);fill-rule:nonzero;"/>        </g>        <g transform="matrix(48,0,0,48,363.578,106.029)">            <path d="M0.019,-0.179l0.141,0c0.002,0.03 0.007,0.051 0.017,0.064c0.01,0.014 0.025,0.021 0.044,0.021c0.016,0 0.029,-0.005 0.039,-0.014c0.01,-0.009 0.015,-0.021 0.015,-0.036c0,-0.013 -0.004,-0.023 -0.011,-0.032c-0.007,-0.008 -0.022,-0.018 -0.046,-0.029c-0.005,-0.003 -0.014,-0.007 -0.025,-0.012c-0.057,-0.026 -0.096,-0.051 -0.119,-0.074c-0.016,-0.016 -0.028,-0.034 -0.036,-0.055c-0.009,-0.021 -0.013,-0.042 -0.013,-0.065c0,-0.052 0.017,-0.093 0.052,-0.123c0.035,-0.031 0.083,-0.046 0.142,-0.046c0.062,0 0.11,0.015 0.143,0.044c0.033,0.03 0.05,0.072 0.05,0.127l0,0.01l-0.138,0c-0.001,-0.029 -0.005,-0.049 -0.013,-0.061c-0.008,-0.012 -0.021,-0.018 -0.039,-0.018c-0.016,0 -0.028,0.004 -0.038,0.013c-0.009,0.009 -0.014,0.02 -0.014,0.034c0,0.025 0.024,0.047 0.071,0.068c0.006,0.003 0.011,0.005 0.015,0.007c0.064,0.029 0.107,0.057 0.129,0.085c0.022,0.027 0.033,0.063 0.033,0.107c0,0.057 -0.018,0.101 -0.053,0.132c-0.035,0.032 -0.085,0.047 -0.15,0.047c-0.062,0 -0.11,-0.016 -0.144,-0.047c-0.035,-0.032 -0.052,-0.076 -0.052,-0.133l0,-0.014Z" style="fill:rgb(29,29,29);fill-rule:nonzero;"/>        </g>        <g transform="matrix(48,0,0,48,384.648,106.029)">            <path d="M0.305,-0.198l0.148,0l0,0.014c0,0.066 -0.017,0.116 -0.052,0.149c-0.034,0.033 -0.086,0.05 -0.154,0.05c-0.034,0 -0.066,-0.005 -0.094,-0.015c-0.028,-0.009 -0.049,-0.023 -0.065,-0.04c-0.018,-0.02 -0.03,-0.046 -0.038,-0.079c-0.007,-0.033 -0.011,-0.086 -0.011,-0.158c0,-0.08 0.004,-0.135 0.012,-0.167c0.007,-0.031 0.02,-0.057 0.039,-0.078c0.018,-0.019 0.04,-0.034 0.068,-0.043c0.027,-0.01 0.059,-0.015 0.096,-0.015c0.037,0 0.069,0.005 0.096,0.016c0.027,0.01 0.049,0.026 0.066,0.047c0.014,0.017 0.025,0.038 0.031,0.063c0.006,0.024 0.009,0.066 0.009,0.125l0,0.068l-0.257,0c0,0.001 0,0.004 0,0.006c-0.002,0.024 -0.002,0.04 -0.002,0.05c0,0.04 0.004,0.067 0.012,0.083c0.009,0.015 0.023,0.023 0.044,0.023c0.018,0 0.031,-0.006 0.04,-0.018c0.01,-0.012 0.014,-0.03 0.014,-0.054c0,-0.005 0,-0.012 -0.001,-0.022c-0.001,-0.002 -0.001,-0.004 -0.001,-0.005Zm-0.102,-0.161l0.106,0l0,-0.003c0.001,-0.014 0.002,-0.024 0.002,-0.03c0,-0.028 -0.004,-0.048 -0.013,-0.061c-0.009,-0.014 -0.023,-0.02 -0.042,-0.02c-0.019,0 -0.033,0.006 -0.041,0.019c-0.009,0.013 -0.013,0.034 -0.013,0.064c0,0.008 0,0.014 0,0.019c0.001,0.004 0.001,0.009 0.001,0.012Z" style="fill:rgb(29,29,29);fill-rule:nonzero;"/>        </g>        <g transform="matrix(0.266743,0,0,0.246832,139.199,12.5674)">            <path d="M1012.64,269.201c-1.704,0.379 -3.519,0.388 -5.332,-0.041l-484.957,-114.738l-515.136,115.14l-5.211,-23.312l517.818,-115.739c1.765,-0.394 3.596,-0.383 5.355,0.033l309.737,73.282l0,-41.087l23.887,0l0,46.738l154.007,36.437c1.765,0.418 3.346,1.208 4.678,2.267l-4.846,21.02Z" style="fill:rgb(29,29,29);"/>        </g>    </g></svg>