<?xml version="1.0" encoding="UTF-8" standalone="no"?><!DOCTYPE svg PUBLIC "-//W3C//DTD SVG 1.1//EN" "http://www.w3.org/Graphics/SVG/1.1/DTD/svg11.dtd"><svg width="100%" height="100%" viewBox="0 0 1024 512" version="1.1" xmlns="http://www.w3.org/2000/svg" xmlns:xlink="http://www.w3.org/1999/xlink" xml:space="preserve" style="fill-rule:evenodd;clip-rule:evenodd;stroke-linejoin:round;stroke-miterlimit:2;"><title>Digital Finance International</title><desc>Global leader in digital lendingEstablished financial technology companies in emerging markets. Modern and demanding financial products for millions of underservedand underbanked customers globally.DFI applies flexible fin-tech solutions, and extensive usage of the most advanced digital marketing technology to approach different markets worldwide with tailored loan solutions that fit the needs of individual customers. DFI’s development strategy combines green-field investments (start-ups) with M&amp;A and partnerships to secure access to local market and to capitalize on its competitive advantages.</desc>    <g transform="matrix(7.84906,0,0,7.84571,-1484.56,-2287.26)">        <g transform="matrix(1,0,0,1,201.369,291.659)">            <rect x="0" y="59.966" width="0.848" height="4.963" style="fill:rgb(0,48,140);fill-rule:nonzero;"/>        </g>        <g transform="matrix(1,0,0,1,201.369,291.659)">            <path d="M6.968,61.179l0,3.75l-0.803,0l0,-4.963l0.854,0l2.691,3.687l0,-3.687l0.796,0l0,4.963l-0.798,0l-2.74,-3.75Z" style="fill:rgb(0,48,140);fill-rule:nonzero;"/>        </g>        <g transform="matrix(1,0,0,1,201.369,291.659)">            <path d="M17.652,60.675l0,4.254l-0.819,0l0,-4.254l-1.544,0l0,-0.709l3.917,0l0,0.709l-1.554,0Z" style="fill:rgb(0,48,140);fill-rule:nonzero;"/>        </g>        <g transform="matrix(1,0,0,1,201.369,291.659)">            <path d="M23.988,64.929l0,-4.963l3.561,0l0,0.709l-2.742,0l0,1.36l2.384,0l0,0.666l-2.384,0l0,1.524l2.811,0l0,0.709l-3.63,-0.005Z" style="fill:rgb(0,48,140);fill-rule:nonzero;"/>        </g>        <g transform="matrix(1,0,0,1,201.369,291.659)">            <path d="M32.615,59.966l2.149,0c0.457,-0.019 0.903,0.137 1.247,0.436c0.157,0.142 0.282,0.315 0.365,0.509c0.083,0.194 0.122,0.404 0.115,0.615c0.006,0.337 -0.103,0.665 -0.309,0.932c-0.21,0.269 -0.505,0.461 -0.837,0.543l1.358,1.928l-0.961,0l-1.256,-1.831l-1.052,0l0,1.822l-0.819,0l0,-4.954Zm0.819,0.695l0,1.808l1.231,0c0.269,0.013 0.533,-0.079 0.735,-0.257c0.09,-0.083 0.161,-0.184 0.208,-0.297c0.047,-0.112 0.07,-0.233 0.066,-0.355c0.004,-0.122 -0.018,-0.243 -0.066,-0.355c-0.047,-0.112 -0.118,-0.212 -0.208,-0.294c-0.204,-0.176 -0.468,-0.266 -0.737,-0.252l-1.229,0.002Z" style="fill:rgb(0,48,140);fill-rule:nonzero;"/>        </g>        <g transform="matrix(1,0,0,1,201.369,291.659)">            <path d="M42.366,61.179l0,3.75l-0.805,0l0,-4.963l0.855,0l2.69,3.687l0,-3.687l0.798,0l0,4.963l-0.798,0l-2.74,-3.75Z" style="fill:rgb(0,48,140);fill-rule:nonzero;"/>        </g>        <g transform="matrix(1,0,0,1,201.369,291.659)">            <path d="M55.557,64.929l-0.89,0l-0.506,-1.241l-2.215,0l-0.506,1.241l-0.869,0l2.086,-4.963l0.819,0l2.081,4.963Zm-3.383,-1.886l1.743,0l-0.869,-2.141l-0.874,2.141Z" style="fill:rgb(0,48,140);fill-rule:nonzero;"/>        </g>        <g transform="matrix(1,0,0,1,201.369,291.659)">            <path d="M61.464,60.675l0,4.254l-0.82,0l0,-4.254l-1.543,0l0,-0.709l3.917,0l0,0.709l-1.554,0Z" style="fill:rgb(0,48,140);fill-rule:nonzero;"/>        </g>        <g transform="matrix(1,0,0,1,201.369,291.659)">            <rect x="67.833" y="59.966" width="0.848" height="4.963" style="fill:rgb(0,48,140);fill-rule:nonzero;"/>        </g>        <g transform="matrix(1,0,0,1,201.369,291.659)">            <path d="M78.172,60.626c0.477,0.485 0.743,1.138 0.74,1.817c-0.003,0.68 -0.274,1.331 -0.755,1.813c-0.495,0.476 -1.156,0.743 -1.845,0.746c-0.689,0.003 -1.352,-0.26 -1.851,-0.732c-0.48,-0.485 -0.747,-1.138 -0.744,-1.818c0.002,-0.68 0.275,-1.331 0.758,-1.812c0.242,-0.243 0.532,-0.434 0.85,-0.562c0.319,-0.128 0.66,-0.19 1.004,-0.183c0.341,-0.009 0.68,0.051 0.997,0.177c0.316,0.125 0.604,0.314 0.846,0.554Zm-0.588,3.105c0.327,-0.348 0.509,-0.807 0.509,-1.283c0,-0.477 -0.182,-0.935 -0.509,-1.284c-0.338,-0.331 -0.794,-0.517 -1.269,-0.517c-0.474,0 -0.93,0.186 -1.269,0.517c-0.329,0.347 -0.512,0.806 -0.512,1.284c0,0.477 0.183,0.936 0.513,1.283c0.338,0.332 0.794,0.518 1.268,0.518c0.475,0 0.931,-0.186 1.269,-0.518Z" style="fill:rgb(0,48,140);fill-rule:nonzero;"/>        </g>        <g transform="matrix(1,0,0,1,201.369,291.659)">            <path d="M84.71,61.179l0,3.75l-0.805,0l0.001,-4.963l0.854,0l2.691,3.687l0,-3.687l0.798,0l0,4.963l-0.798,0l-2.741,-3.75Z" style="fill:rgb(0,48,140);fill-rule:nonzero;"/>        </g>        <g transform="matrix(1,0,0,1,201.369,291.659)">            <path d="M97.907,64.929l-0.891,0l-0.505,-1.241l-2.221,0l-0.506,1.241l-0.861,0l2.085,-4.963l0.819,0l2.08,4.963Zm-3.384,-1.886l1.744,0l-0.869,-2.141l-0.875,2.141Z" style="fill:rgb(0,48,140);fill-rule:nonzero;"/>        </g>        <g transform="matrix(1,0,0,1,201.369,291.659)">            <path d="M102.583,64.929l0,-4.963l0.819,0l0,4.24l2.598,0l0,0.723l-3.417,0Z" style="fill:rgb(0,48,140);fill-rule:nonzero;"/>        </g>        <g transform="matrix(1,0,0,1,201.369,291.659)">            <path d="M0,48.758l3.091,-0.001c1.324,0 2.413,0.385 3.268,1.153c0.414,0.362 0.743,0.81 0.965,1.312c0.221,0.503 0.329,1.048 0.315,1.596c0.01,0.556 -0.103,1.108 -0.33,1.616c-0.228,0.509 -0.564,0.961 -0.986,1.326c-0.877,0.792 -1.978,1.188 -3.303,1.188l-3.02,0l0,-8.191Zm2.233,1.934l0,4.325l0.881,0c0.607,0.023 1.199,-0.193 1.646,-0.603c0.413,-0.413 0.645,-0.972 0.645,-1.555c0,-0.583 -0.232,-1.142 -0.645,-1.555c-0.446,-0.413 -1.037,-0.633 -1.646,-0.612l-0.881,0Z" style="fill:rgb(0,48,140);fill-rule:nonzero;"/>        </g>        <g transform="matrix(1,0,0,1,201.369,291.659)">            <rect x="9.366" y="48.758" width="2.292" height="8.189" style="fill:rgb(0,48,140);fill-rule:nonzero;"/>        </g>        <g transform="matrix(1,0,0,1,201.369,291.659)">            <path d="M21.742,52.325c0.094,0.636 0.045,1.285 -0.143,1.899c-0.188,0.615 -0.51,1.181 -0.943,1.657c-0.753,0.788 -1.74,1.182 -2.961,1.182c-0.569,0.017 -1.135,-0.08 -1.665,-0.286c-0.53,-0.206 -1.013,-0.516 -1.42,-0.912c-0.4,-0.385 -0.716,-0.848 -0.928,-1.361c-0.211,-0.512 -0.314,-1.063 -0.3,-1.617c-0.011,-0.562 0.097,-1.12 0.314,-1.638c0.218,-0.519 0.541,-0.987 0.95,-1.375c0.409,-0.406 0.896,-0.725 1.432,-0.938c0.537,-0.213 1.111,-0.316 1.688,-0.303c0.403,-0.002 0.805,0.043 1.198,0.135c0.321,0.07 0.631,0.18 0.923,0.328c0.216,0.115 0.424,0.244 0.623,0.386c0.135,0.093 0.26,0.2 0.37,0.321l0.118,0.14l-1.564,1.567c-0.015,-0.024 -0.037,-0.053 -0.064,-0.089c-0.062,-0.07 -0.129,-0.136 -0.199,-0.198c-0.105,-0.097 -0.219,-0.183 -0.34,-0.257c-0.15,-0.086 -0.309,-0.153 -0.476,-0.199c-0.202,-0.059 -0.412,-0.089 -0.623,-0.088c-0.283,-0.01 -0.566,0.041 -0.828,0.148c-0.262,0.107 -0.499,0.268 -0.695,0.472c-0.384,0.434 -0.596,0.992 -0.596,1.571c0,0.578 0.212,1.136 0.596,1.57c0.195,0.205 0.43,0.366 0.691,0.474c0.261,0.108 0.542,0.159 0.825,0.152c0.956,0 1.539,-0.39 1.75,-1.17l-1.857,0l0,-1.579l4.124,0.008Z" style="fill:rgb(0,48,140);fill-rule:nonzero;"/>        </g>        <g transform="matrix(1,0,0,1,201.369,291.659)">            <rect x="23.517" y="48.758" width="2.292" height="8.189" style="fill:rgb(0,48,140);fill-rule:nonzero;"/>        </g>        <g transform="matrix(1,0,0,1,201.369,291.659)">            <path d="M31.65,50.691l0,6.259l-2.233,0l0,-6.259l-2.233,0l0,-1.934l6.699,0l0,1.934l-2.233,0Z" style="fill:rgb(0,48,140);fill-rule:nonzero;"/>        </g>        <g transform="matrix(1,0,0,1,201.369,291.659)">            <path d="M42.024,56.946l-2.475,0l-0.483,-1.404l-2.919,0l-0.482,1.404l-2.351,0l3.232,-8.188l2.233,0l3.245,8.188Zm-4.407,-5.626l-0.859,2.468l1.704,0l-0.845,-2.468Z" style="fill:rgb(0,48,140);fill-rule:nonzero;"/>        </g>        <g transform="matrix(1,0,0,1,201.369,291.659)">            <path d="M43.215,56.946l0,-8.188l2.233,0l0,6.203l3.761,0l0,1.989l-5.994,-0.004Z" style="fill:rgb(0,48,140);fill-rule:nonzero;"/>        </g>        <g transform="matrix(1,0,0,1,201.369,291.659)">            <path d="M52.758,54.08l0,2.866l-2.231,0l0,-8.188l6.111,0l0,1.933l-3.88,0l0,1.521l3.291,0l0,1.872l-3.291,-0.004Z" style="fill:rgb(0,177,0);fill-rule:nonzero;"/>        </g>        <g transform="matrix(1,0,0,1,201.369,291.659)">            <rect x="58.13" y="48.758" width="2.292" height="8.189" style="fill:rgb(0,177,0);fill-rule:nonzero;"/>        </g>        <g transform="matrix(1,0,0,1,201.369,291.659)">            <path d="M64.676,52.092l0,4.854l-2.174,0l0,-8.188l2.291,0l3.174,4.689l0,-4.689l2.174,0l0,8.188l-2.174,0l-3.291,-4.854Z" style="fill:rgb(0,177,0);fill-rule:nonzero;"/>        </g>        <g transform="matrix(1,0,0,1,201.369,291.659)">            <path d="M80.038,56.946l-2.468,0l-0.483,-1.404l-2.915,0l-0.482,1.404l-2.351,0l3.232,-8.188l2.233,0l3.234,8.188Zm-4.407,-5.626l-0.858,2.468l1.704,0l-0.846,-2.468Z" style="fill:rgb(0,177,0);fill-rule:nonzero;"/>        </g>        <g transform="matrix(1,0,0,1,201.369,291.659)">            <path d="M83.41,52.092l0,4.854l-2.174,0l0,-8.188l2.292,0l3.173,4.689l0,-4.689l2.174,0l0,8.188l-2.174,0l-3.291,-4.854Z" style="fill:rgb(0,177,0);fill-rule:nonzero;"/>        </g>        <g transform="matrix(1,0,0,1,201.369,291.659)">            <path d="M98.218,55.542c-0.036,0.057 -0.075,0.111 -0.117,0.163c-0.118,0.133 -0.245,0.256 -0.381,0.369c-0.203,0.177 -0.423,0.333 -0.659,0.463c-0.303,0.154 -0.622,0.273 -0.953,0.354c-0.406,0.11 -0.825,0.165 -1.246,0.163c-0.569,0.017 -1.135,-0.08 -1.665,-0.286c-0.53,-0.206 -1.013,-0.516 -1.419,-0.912c-0.401,-0.384 -0.717,-0.848 -0.929,-1.36c-0.211,-0.513 -0.313,-1.064 -0.3,-1.618c-0.01,-0.562 0.097,-1.12 0.314,-1.638c0.218,-0.519 0.541,-0.987 0.95,-1.375c0.409,-0.406 0.896,-0.725 1.433,-0.938c0.536,-0.213 1.11,-0.316 1.687,-0.302c0.404,-0.003 0.806,0.044 1.198,0.14c0.321,0.072 0.631,0.186 0.923,0.338c0.218,0.119 0.426,0.254 0.623,0.404c0.137,0.1 0.262,0.216 0.37,0.346l0.118,0.14l-1.658,1.427c-0.016,-0.023 -0.035,-0.052 -0.059,-0.082c-0.055,-0.063 -0.114,-0.122 -0.178,-0.177c-0.095,-0.087 -0.2,-0.164 -0.311,-0.229c-0.145,-0.077 -0.299,-0.137 -0.458,-0.177c-0.197,-0.055 -0.401,-0.083 -0.605,-0.081c-0.282,-0.008 -0.563,0.043 -0.824,0.15c-0.261,0.106 -0.497,0.267 -0.692,0.47c-0.384,0.423 -0.596,0.973 -0.596,1.544c0,0.57 0.212,1.12 0.596,1.543c0.195,0.204 0.431,0.364 0.692,0.471c0.261,0.107 0.542,0.158 0.824,0.15c0.218,0.001 0.436,-0.029 0.646,-0.089c0.175,-0.046 0.341,-0.118 0.493,-0.216c0.117,-0.079 0.227,-0.167 0.33,-0.264c0.072,-0.066 0.139,-0.139 0.199,-0.216l0.071,-0.094l1.583,1.419Z" style="fill:rgb(0,177,0);fill-rule:nonzero;"/>        </g>        <g transform="matrix(1,0,0,1,201.369,291.659)">            <path d="M99.654,56.946l0,-8.188l6.232,0l0,1.933l-3.999,0l0,1.17l3.408,0l0,1.813l-3.408,0l0,1.346l4.113,0l0,1.93l-6.346,-0.004Z" style="fill:rgb(0,177,0);fill-rule:nonzero;"/>        </g>        <g transform="matrix(1,0,0,1,201.369,291.659)">            <path d="M88.911,12.939l-9.457,-9.412l-0.812,-0.808c-1.76,-1.741 -4.14,-2.719 -6.621,-2.719c-2.481,0 -4.861,0.978 -6.62,2.719l-0.442,0.439l-10.592,10.543l-1.246,1.24l-5.627,5.601l-1.405,1.399l-0.062,0.062l-10.196,10.149l-0.111,0.11c-0.44,0.435 -1.036,0.679 -1.656,0.679c-0.621,-0.001 -1.216,-0.247 -1.656,-0.683l-10.372,-10.324c-0.438,-0.438 -0.683,-1.03 -0.683,-1.648c0,-0.617 0.245,-1.21 0.683,-1.647l10.372,-10.319c0.44,-0.436 1.035,-0.68 1.655,-0.68c0.621,0 1.216,0.244 1.655,0.68l10.264,10.216l5.301,-5.273l-10.595,-10.546c-1.759,-1.741 -4.139,-2.719 -6.62,-2.719c-2.481,0 -4.861,0.978 -6.621,2.719l-11.04,10.989c-1.749,1.751 -2.731,4.12 -2.731,6.59c0,2.469 0.982,4.839 2.731,6.59l11.04,10.989c1.76,1.741 4.14,2.719 6.621,2.719c2.481,0 4.861,-0.978 6.62,-2.719l0.442,-0.44l10.591,-10.542l1.459,-1.452l6.816,-6.785l0.458,-0.455l9.804,-9.759l0.111,-0.11c0.439,-0.435 1.034,-0.68 1.655,-0.68c0.62,0 1.215,0.245 1.655,0.68l9.938,9.892l3.408,3.392l5.296,-5.271l-3.41,-3.406Z" style="fill:rgb(0,48,140);fill-rule:nonzero;"/>        </g>        <g transform="matrix(1,0,0,1,201.369,291.659)">            <path d="M60.107,22.049l-5.296,5.271l13.234,13.173l5.295,-5.272l-13.233,-13.172Z" style="fill:rgb(0,177,0);fill-rule:nonzero;"/>        </g>    </g></svg>