<?xml version="1.0" encoding="UTF-8" standalone="no"?><!DOCTYPE svg PUBLIC "-//W3C//DTD SVG 1.1//EN" "http://www.w3.org/Graphics/SVG/1.1/DTD/svg11.dtd"><svg width="100%" height="100%" viewBox="0 0 1024 512" version="1.1" xmlns="http://www.w3.org/2000/svg" xmlns:xlink="http://www.w3.org/1999/xlink" xml:space="preserve" style="fill-rule:evenodd;clip-rule:evenodd;stroke-linejoin:round;stroke-miterlimit:2;"><title>HelloCrowdfunding</title><desc>Real estate crowdfunding aggregatorOur tool is based on regular and factual monitoring of projects proposed by crowdfunding platforms. You will find there information on the projects in collection and especially on the projects already financed, all confused platforms.</desc>    <g transform="matrix(1.63323,0,0,1.63323,-20.8653,175.952)">        <g transform="matrix(1.89259,0,0,1.16812,-114.19,-12.4412)">            <g transform="matrix(22.2194,0,0,36,109.943,65.216)">                <path d="M0.564,-0.415l-0.299,0l0,-0.285l-0.191,0l0,0.7l0.191,0l0,-0.253l0.299,0l0,0.253l0.168,0l0,-0.7l-0.168,0l0,0.285Z" style="fill:rgb(52,52,52);fill-rule:nonzero;"/>            </g>            <g transform="matrix(22.2194,0,0,36,127.908,65.216)">                <path d="M0.242,-0.562l0.399,0l0,-0.138l-0.567,0l0,0.7l0.573,0l0,-0.138l-0.405,0l0,-0.14l0.375,0l0,-0.138l-0.375,0l0,-0.146Z" style="fill:rgb(52,52,52);fill-rule:nonzero;"/>            </g>            <g transform="matrix(22.2194,0,0,36,142.703,65.216)">                <path d="M0.074,0l0.561,0l0,-0.162l-0.37,0l0,-0.538l-0.191,0l0,0.7Z" style="fill:rgb(52,52,52);fill-rule:nonzero;"/>            </g>            <g transform="matrix(22.2194,0,0,36,157.497,65.216)">                <path d="M0.074,0l0.561,0l0,-0.162l-0.37,0l0,-0.538l-0.191,0l0,0.7Z" style="fill:rgb(52,52,52);fill-rule:nonzero;"/>            </g>            <g transform="matrix(0.528375,0,0,0.856078,60.3351,10.6506)">                <path d="M229.099,32.799c6.051,0.108 11.861,3.788 14.258,9.259c3.603,8.226 -0.289,19.288 -9.058,22.302c-6.4,2.199 -14.15,0.058 -18.146,-5.366c-6.917,-9.388 -1.12,-25.952 12.521,-26.195c0.212,-0.001 0.212,-0.001 0.425,0Zm-0.339,6.793c-4.399,0.083 -8.192,3.799 -8.589,8.461c-0.42,4.936 3.31,10.396 8.715,10.396c2.662,0 5.289,-1.217 6.896,-3.419c4.037,-5.531 1.049,-15.29 -6.769,-15.438c-0.127,0 -0.127,0 -0.253,0Z" style="fill:rgb(52,52,52);fill-rule:nonzero;"/>            </g>            <g transform="matrix(0.528375,0,0,0.856078,113.054,10.6506)">                <path d="M229.099,32.799c6.051,0.108 11.861,3.788 14.258,9.259c3.603,8.226 -0.289,19.288 -9.058,22.302c-6.4,2.199 -14.15,0.058 -18.146,-5.366c-6.917,-9.388 -1.12,-25.952 12.521,-26.195c0.212,-0.001 0.212,-0.001 0.425,0Zm-0.339,6.793c-4.399,0.083 -8.192,3.799 -8.589,8.461c-0.42,4.936 3.31,10.396 8.715,10.396c2.662,0 5.289,-1.217 6.896,-3.419c4.037,-5.531 1.049,-15.29 -6.769,-15.438c-0.127,0 -0.127,0 -0.253,0Z" style="fill:rgb(52,52,52);fill-rule:nonzero;"/>            </g>            <g transform="matrix(0.528375,0,0,0.856078,60.3351,10.6506)">                <path d="M265.359,32.298c4.489,0.069 8.997,1.828 11.972,5.16l0.973,1.132l-5.621,5.482c-3.438,-4.04 -9.89,-5.519 -13.653,-1.226c-4.775,5.445 -1.383,17.663 8.293,15.366c1.815,-0.431 3.516,-1.407 4.711,-2.804l1.089,-1.363l5.561,5.491c-6.101,7.736 -12.963,7.828 -18.944,5.853c-7.492,-2.474 -12.284,-10.767 -11.025,-18.967c1.185,-7.714 8.115,-13.977 16.241,-14.123c0.202,-0.001 0.201,-0.002 0.403,-0.001Z" style="fill:rgb(52,52,52);"/>            </g>            <g transform="matrix(29.6593,0,0,36,207.142,65.216)">                <path d="M0.074,0l0.138,0l0,-0.216l0.073,0l0.112,0.216l0.158,0l-0.122,-0.224c0.1,-0.025 0.103,-0.153 0.103,-0.258c0,-0.128 -0.093,-0.218 -0.232,-0.218l-0.23,0l0,0.7Zm0.215,-0.354l-0.077,0l0,-0.184l0.077,0c0.077,0 0.107,0.011 0.107,0.08c0,0.069 -0.001,0.108 -0.107,0.104Z" style="fill:rgb(52,52,52);fill-rule:nonzero;"/>            </g>            <g transform="matrix(22.2194,0,0,36,245.706,65.216)">                <path d="M1.074,-0.7l-0.22,0l-0.152,0.42l-0.108,-0.42l-0.195,0l-0.111,0.42l-0.148,-0.42l-0.231,0l0.261,0.724l0.181,0l0.142,-0.406l0.139,0.406l0.181,0l0.261,-0.724Z" style="fill:rgb(52,52,52);fill-rule:nonzero;"/>            </g>            <g transform="matrix(22.2194,0,0,36,270.569,65.216)">                <path d="M0.324,-0.7l-0.298,0l0,0.7l0.298,0c0.204,0 0.37,-0.148 0.37,-0.35c0,-0.202 -0.166,-0.35 -0.37,-0.35Zm0.002,0.562l-0.108,0l0,-0.4l0.108,0c0.136,0 0.173,0.116 0.174,0.188c0.002,0.095 -0.038,0.212 -0.174,0.212Z" style="fill:rgb(52,52,52);fill-rule:nonzero;"/>            </g>            <g transform="matrix(22.2194,0,0,36,338.73,65.216)">                <path d="M0.324,-0.7l-0.298,0l0,0.7l0.298,0c0.204,0 0.37,-0.148 0.37,-0.35c0,-0.202 -0.166,-0.35 -0.37,-0.35Zm0.002,0.562l-0.108,0l0,-0.4l0.108,0c0.136,0 0.173,0.116 0.174,0.188c0.002,0.095 -0.038,0.212 -0.174,0.212Z" style="fill:rgb(52,52,52);fill-rule:nonzero;"/>            </g>            <g transform="matrix(22.2194,0,0,36,286.949,65.216)">                <path d="M0.289,-0.538l0.366,0l0,-0.162l-0.581,0l0,0.7l0.215,0l0,-0.23l0.346,0l0,-0.161l-0.346,0l0,-0.147Z" style="fill:rgb(52,52,52);fill-rule:nonzero;"/>            </g>            <g transform="matrix(0.528375,0,0,0.856078,60.3351,10.6506)">                <path d="M469.546,52.419c0.008,1.254 0.439,2.513 1.371,3.349c2.707,2.43 8.22,0.987 8.245,-3.349l0,-18.617l10.046,0c0,6.48 0.04,12.96 -0.001,19.439c-0.173,8.777 -10.175,15.462 -19.387,12.893c-5.742,-1.601 -10.281,-6.884 -10.32,-13.069l0,-19.263l10.046,0l0,18.617Z" style="fill:rgb(52,52,52);"/>            </g>            <g transform="matrix(22.2194,0,0,36,321.293,65.216)">                <path d="M0.003,-0.7l0,0.7l0.191,0l0,-0.362l0.302,0.362l0.18,0l0,-0.7l-0.192,0l0,0.387l-0.302,-0.387l-0.179,0Z" style="fill:rgb(52,52,52);fill-rule:nonzero;"/>            </g>            <g transform="matrix(22.2194,0,0,36,364.62,65.216)">                <path d="M0.003,-0.7l0,0.7l0.191,0l0,-0.362l0.302,0.362l0.18,0l0,-0.7l-0.192,0l0,0.387l-0.302,-0.387l-0.179,0Z" style="fill:rgb(52,52,52);fill-rule:nonzero;"/>            </g>            <g transform="matrix(35.225,0,0,36,354.182,65.216)">                <rect x="0.088" y="-0.7" width="0.12" height="0.7" style="fill:rgb(52,52,52);fill-rule:nonzero;"/>            </g>            <g transform="matrix(0.528375,0,0,0.856078,60.3351,10.6506)">                <path d="M638.005,61.316c-6.37,5.822 -18.219,5.15 -24.133,-1.696c-5.298,-6.132 -4.964,-16.442 0.823,-22.185c5.975,-5.929 17.048,-6.518 23.103,-0.006l0.73,0.843l-4.898,4.778c-4.268,-5.148 -13.468,-3.962 -15.859,2.402c-2.405,6.401 3.343,14.097 10.963,12.918c0.921,-0.143 1.84,-0.385 2.671,-0.816l0,-4.674l-6.687,0l0,-6.71l13.649,0l0,14.802c-0.121,0.115 -0.242,0.229 -0.362,0.344Z" style="fill:rgb(52,52,52);"/>            </g>        </g>        <g transform="matrix(1,0,0,1,-113,68.0119)">            <path d="M162,-62l0,29l-9,4l0,-33l-26,8l0,32l7,-3l0,-23l11,-4l0,27l-18,7.5l0,32.5l26,9l0,-28l9,-6l0,34l25,-9l0,-30.5l-7,2.5l0,24l-12,4l0,-28l19,-9l0,-32l-25,-8Zm-28,49.5l0,22l12,4l0,-24l34,-16l0,-22l-12,-3l0,22l-34,17Z" style="fill:rgb(52,52,52);"/>        </g>    </g></svg>