<?xml version="1.0" encoding="UTF-8" standalone="no"?><!DOCTYPE svg PUBLIC "-//W3C//DTD SVG 1.1//EN" "http://www.w3.org/Graphics/SVG/1.1/DTD/svg11.dtd"><svg width="100%" height="100%" viewBox="0 0 1024 512" version="1.1" xmlns="http://www.w3.org/2000/svg" xmlns:xlink="http://www.w3.org/1999/xlink" xml:space="preserve" style="fill-rule:evenodd;clip-rule:evenodd;stroke-linejoin:round;stroke-miterlimit:2;"><title>VdK</title><desc>Credit platforms allow private and institutional investors to invest directly in personal or corporate loans. Businesses and consumers thus gain new access to finance. Thus, credit platforms improve the credit supply, promote financial participation and make a positive contribution to the economy.The Association of German Credit Platforms is committed to the professional, honest and transparent structuring of the lending platform business as well as to the adherence to the highest quality standards by all market participants.</desc>    <g transform="matrix(0.910794,0,0,0.910794,1.81972,142.151)">        <g id="layer101">            <path d="M75.7,246.3c-61.4,-96.9 -75.7,-120 -75.5,-121.4c0.2,-0.8 17.8,-29.3 39.3,-63.2l39,-61.7l36.1,0l2.3,4c1.2,2.2 2.6,4 3.1,4c0.5,0 2,-1.8 3.2,-4l2.3,-4l36.3,0l2.7,4.6l2.7,4.7l2.9,-4.7l2.9,-4.6l18.1,0.2l18.1,0.3l39.4,62.4c21.7,34.3 39.4,62.6 39.2,63c-0.2,0.4 -17.8,28.5 -39.3,62.4l-39,61.7l-18.5,0l-18.5,0l-2.6,-4.1l-2.7,-4.2l-2.3,4.2l-2.4,4.1l-18.7,0l-18.6,0l-2.2,-3.5c-1.2,-1.9 -2.5,-3.5 -3,-3.5c-0.5,0 -1.8,1.6 -3,3.5l-2.2,3.5l-18.4,0l-18.4,0l-2.3,-3.7Zm25.3,-33.7c0,-0.5 -12.2,-20.2 -27.1,-43.7c-15.6,-24.8 -26.9,-43.5 -26.6,-44.3c0.3,-0.8 12.5,-20.4 27.1,-43.4c14.7,-23.1 26.6,-42.5 26.6,-43.2c0,-0.6 -1,-2.6 -2.3,-4.5l-2.3,-3.3l-29.9,47.3c-16.4,26 -29.9,47.5 -29.9,47.8c-0.1,0.4 13.4,22 29.9,48.1l30,47.4l2.2,-3.6c1.3,-2 2.3,-4.1 2.3,-4.6Zm45.7,3.5l2.2,-3.8l-2.5,-3.7c-1.4,-2 -2.8,-3.5 -3.2,-3.2c-0.4,0.2 -1.5,2 -2.6,4c-1.8,3.4 -1.8,3.5 0.4,7c1.2,2 2.5,3.6 2.8,3.6c0.4,0 1.7,-1.7 2.9,-3.9Zm74.3,-42.8c16.2,-25.7 29.5,-47.2 29.5,-47.8c0,-1.5 -58.7,-94.5 -59.6,-94.5c-1.3,0 -4.9,7.2 -4.2,8.3c0.3,0.7 12.6,20.1 27.1,43.1c14.6,23.1 26.5,42.4 26.5,43c0,0.6 -11.4,19.1 -25.3,41.1c-13.9,22 -26.2,41.4 -27.2,43.2c-1.9,3.1 -1.9,3.2 0.4,6.7c1.3,2 2.5,3.6 2.8,3.6c0.3,0 13.8,-21 30,-46.7Zm-97.4,4.4c1.4,-2.7 1.2,-3.1 -14.1,-27.3c-8.5,-13.5 -15.5,-24.7 -15.5,-25c0,-0.2 7,-11.5 15.6,-25.1c13.8,-21.8 15.5,-24.8 14.4,-26.7c-2,-3.7 -4.2,-6.1 -4.7,-5.1c-0.2,0.6 -8.4,13.6 -18.1,29l-17.8,27.9l17.4,27.6c9.6,15.1 17.9,28.1 18.5,28.8c1.1,1.4 1.5,1.1 4.3,-4.1Zm62.4,-23.7c9.5,-15.1 17.3,-28 17.3,-28.6c0,-0.6 -8,-13.7 -17.8,-29.2c-12.2,-19.3 -18.1,-27.9 -18.9,-27.3c-0.6,0.5 -1.9,2.2 -2.8,3.8l-1.6,2.8l15.4,24.5c9.1,14.3 15.3,25.2 15.1,26.2c-0.3,0.9 -7,12 -15.1,24.7c-8,12.6 -14.7,23.3 -14.8,23.8c-0.5,1.4 4.3,8.6 5.1,7.7c0.4,-0.5 8.6,-13.3 18.1,-28.4Zm-34.3,-20.5l5.1,-8.2l-6.5,-10.2l-6.6,-10.3l-6.3,9.9c-3.5,5.4 -6.4,10.1 -6.4,10.6c0,0.4 2.8,5.2 6.3,10.7c7.1,11.5 5.4,11.8 14.4,-2.5Zm-4.9,-91.8l1.9,-3.4l-2.5,-4.2l-2.5,-4.2l-2.3,3.8c-2.9,4.7 -2.9,4.6 -0.2,8.7c2.6,3.9 2.9,3.9 5.6,-0.7Z" style="fill:rgb(23,78,112);fill-rule:nonzero;"/>            <path d="M589,225.1c0,-2.5 0.4,-3 2.8,-3.3l2.7,-0.3l0.3,-27.8l0.2,-27.7l-3,-0.6c-2.7,-0.6 -3,-1 -3,-4.4l0,-3.8l7.9,-0.7c8.7,-0.8 10.1,-0.4 10.1,2.6c0,2 0,2 2.9,0c6,-4.3 15.1,-4.6 21.8,-0.6c11.5,6.8 12.4,31.2 1.5,42.1c-4.9,5 -9.8,6.8 -17.9,6.9l-7.3,0l0,6.6c0,7.3 0.5,7.9 6.1,7.9c2.6,0 2.9,0.4 2.9,3l0,3l-14,0l-14,0l0,-2.9Zm31.7,-25.8c3.5,-2.3 5.8,-9.7 5.7,-18.3c-0.1,-13.7 -6.5,-20.1 -15.4,-15.5l-3,1.6l0,32.8l3.3,0.9c3.6,1 6.2,0.5 9.4,-1.5Z" style="fill:rgb(23,78,112);fill-rule:nonzero;"/>            <path d="M433.5,206.6c-5.1,-1.9 -11,-8.2 -12.4,-13.2c-0.6,-2.2 -1.1,-7.5 -1.1,-11.9c0,-16.7 8.4,-25.7 24,-25.8c13.5,0 19.9,7.5 18.8,22.3l-0.3,4.5l-14.2,0.3l-14.3,0.3l0,2.5c0,4 3,9.4 6.4,11.6c3.6,2.3 11.4,2 16.4,-0.6c2.9,-1.5 3.2,-1.5 4.2,0.3c1.9,3.6 1.1,5 -4.2,7.7c-6.5,3.3 -17.2,4.2 -23.3,2Zm16.2,-34.8c-1.3,-10.6 -10.5,-13.3 -14.3,-4.3c-0.8,1.9 -1.4,4.8 -1.4,6.5l0,3l16.3,0l-0.6,-5.2Z" style="fill:rgb(23,78,112);fill-rule:nonzero;"/>            <path d="M479.3,206.1c-13.7,-6.3 -15,-33.8 -2.1,-44.6c4.9,-4.1 9.4,-5.7 17,-5.8l6.8,-0.1l0,-6.7l0,-6.7l-4.5,-0.6c-4.2,-0.7 -4.5,-0.9 -4.5,-3.7c0,-2.1 0.5,-2.9 1.8,-3c0.9,0 5.3,-0.4 9.7,-0.9c5.2,-0.5 8.4,-0.4 9.3,0.2c0.9,0.8 1.2,8.8 1.2,33.9l0,32.9l2.5,0c2.1,0 2.5,0.5 2.5,2.9c0,2.5 -0.4,2.9 -3.7,3.5c-7.9,1.3 -11.3,0.8 -12.4,-1.8l-1.1,-2.4l-4.6,2.4c-5.5,2.9 -12,3.1 -17.9,0.5Zm19.5,-8.7c2.2,-1.5 2.2,-1.8 2,-17.7l-0.3,-16.1l-3.3,-1c-4.9,-1.4 -9.8,1.3 -12.2,6.7c-2.8,6 -2.8,19.3 0,24.6c2.9,5.9 8,7.1 13.8,3.5Z" style="fill:rgb(23,78,112);fill-rule:nonzero;"/>            <path d="M564,207.4c-0.8,-0.4 -2.5,-1.6 -3.7,-2.7c-2.2,-2 -2.3,-2.6 -2.3,-20.9l0,-18.8l-3,0c-2.7,0 -3,-0.3 -3,-3c0,-2.4 0.6,-3.2 3.4,-4.4c2.8,-1.2 3.7,-2.3 5.3,-7.3c1.9,-5.7 2,-5.8 6.1,-6.1l4.2,-0.3l0,13.1l14,0l0,8l-7,0l-7,0l0,14.3c0,20 0.3,20.5 8.7,18.7c2.5,-0.6 4.7,-0.9 4.9,-0.8c0.1,0.2 0.5,1.5 0.9,3.1c0.7,2.5 0.4,2.9 -4,4.8c-4.8,2.1 -14.7,3.4 -17.5,2.3Z" style="fill:rgb(23,78,112);fill-rule:nonzero;"/>            <path d="M682.2,206.4c-5.1,-2.6 -7.6,-6.9 -7.7,-13c0,-3.8 0.6,-6.1 2,-8.1c3.1,-4.2 11.9,-8.2 19.8,-9l6.7,-0.6l0,-3.2c0,-1.7 -0.6,-3.9 -1.3,-4.9c-2.1,-2.8 -9.2,-3.2 -16.2,-0.7c-3.2,1.2 -6,2.1 -6.2,2.1c-0.1,0 -1,-1.4 -1.9,-3.1c-1.8,-3.6 -1.7,-3.7 5.6,-7.2c6.4,-3 21.1,-3.6 26,-1c6.1,3.2 7,6.4 7,26.1l0,17.2l2.5,0c2.1,0 2.5,0.5 2.5,2.9c0,2.8 -0.3,3 -5.3,3.6c-8.6,1.1 -9.7,0.7 -12.4,-4.4c-0.1,-0.2 -1.6,0.7 -3.4,2c-4.3,3 -13,3.7 -17.7,1.3Zm16.8,-8l4,-1.6l0,-7.5c0,-7.3 -0.1,-7.5 -2.2,-6.9c-1.3,0.3 -3.1,0.6 -4,0.6c-0.9,0 -3,1.2 -4.7,2.6c-4.2,3.5 -4.4,9.2 -0.5,12.3c3.2,2.5 2.5,2.5 7.4,0.5Z" style="fill:rgb(23,78,112);fill-rule:nonzero;"/>            <path d="M733,206.8c-4.4,-2.4 -5,-5 -5,-24l0,-17.8l-3,0c-2.6,0 -3,-0.3 -3,-2.9c0,-2.4 0.7,-3.3 3.7,-4.8c3.1,-1.5 4,-2.7 5.6,-7.5c1.9,-5.7 1.9,-5.8 5.8,-5.8c3.8,0 3.9,0.1 3.9,3.4c0,1.8 0.3,4.8 0.6,6.5c0.6,3.1 0.7,3.1 7,3.1l6.4,0l0,8l-6.5,0l-6.5,0l0,15.9c0,18.6 0.2,19 7.7,17.2c5,-1.3 6.3,-0.6 6.3,3.5c0,4.2 -17.4,8.1 -23,5.2Z" style="fill:rgb(23,78,112);fill-rule:nonzero;"/>            <path d="M770.4,206.6c-4.6,-2.1 -5.4,-5.6 -5.4,-24.7l0,-16.9l-2.5,0c-2.1,0 -2.5,-0.5 -2.5,-2.9c0,-2.2 0.8,-3.4 3.4,-4.9c2.7,-1.6 3.8,-3.2 5.2,-7.6l1.8,-5.6l8.6,0l0,13l13,0l0,8l-6.5,0l-6.5,0l0,16c0,14.8 0.1,16 2,17c1.3,0.7 3.3,0.7 6.2,0.1c4.6,-1.1 5.2,-0.8 6.3,2.7c0.6,1.9 0.1,2.5 -3.8,4.2c-6.1,2.7 -15.3,3.5 -19.3,1.6Z" style="fill:rgb(23,78,112);fill-rule:nonzero;"/>            <path d="M848,206.9c-9.6,-2.9 -15,-11.5 -15,-23.9c0,-9.8 1.3,-14.3 5.8,-19.2c4.9,-5.5 10.9,-8 18.7,-8c8.2,0 12.4,1.4 16.8,6c4.8,4.9 6.7,10.7 6.7,20.1c-0.1,15.9 -8.2,25 -23,25.7c-3.6,0.2 -8.1,-0.1 -10,-0.7Zm13.7,-7.4c3.3,-2.3 4.8,-8 4.7,-18.1c-0.1,-10.3 -2.1,-15.9 -6.6,-18.4c-2.5,-1.3 -3.1,-1.3 -5.5,0c-1.5,0.8 -3.6,3.1 -4.7,5c-4.2,7.1 -2,28.9 3.2,32c2.5,1.4 6.5,1.2 8.9,-0.5Z" style="fill:rgb(23,78,112);fill-rule:nonzero;"/>            <path d="M1030,206.7c-9.2,-3 -14.7,-14 -13.7,-27.4c0.8,-10.1 4.4,-16.5 11.5,-20.6c9.3,-5.2 23.4,-3.6 28.4,3.3c2.3,3.2 3.7,10.8 3,16.5l-0.5,4.5l-14.3,0c-10.1,0 -14.4,0.3 -14.4,1.1c0,3.6 2.8,9.4 5.7,11.9c4.1,3.6 9.6,4 16.2,1c2.4,-1.1 4.5,-1.9 4.6,-1.8c0.1,0.2 0.8,1.4 1.5,2.7c1.1,2.2 1,2.7 -1.4,4.8c-5.4,4.6 -18.4,6.6 -26.6,4Zm16,-33.6c0,-5.5 -1.5,-8.9 -4.5,-10.3c-5,-2.2 -9.8,2.1 -11.1,10l-0.7,4.2l16.3,0l0,-3.9Z" style="fill:rgb(23,78,112);fill-rule:nonzero;"/>            <path d="M311,204.1c0,-2.9 1.4,-4.1 5.1,-4.1c1.9,0 1.9,-0.9 1.7,-26.2l-0.3,-26.3l-2.7,-0.3c-2.5,-0.3 -2.8,-0.8 -2.8,-3.8l0,-3.4l27,0l0,3.5c0,3 -0.3,3.5 -2.2,3.5c-4.6,0 -4.9,0.9 -4.6,14.5l0.3,12.9l9.8,-12.2c11.7,-14.6 12,-15.2 7.8,-15.2c-2.9,0 -3.1,-0.3 -3.1,-3.5l0,-3.5l25,0l0,3.3c0,3 -0.4,3.4 -3.8,4.3c-3.1,0.7 -5.5,2.8 -11.9,9.8l-7.9,9l4.4,6c2.5,3.4 7.2,10.6 10.6,16.1c3.9,6.4 7.1,10.4 8.9,11.3c2,1 2.7,2 2.7,4.3l0,2.9l-8.9,0l-9,0l-3.4,-5.7c-1.9,-3.2 -5.1,-8.9 -7,-12.8c-1.9,-3.8 -4.3,-8.1 -5.4,-9.4l-1.9,-2.4l-3.7,4.5c-3.5,4.3 -3.7,4.9 -3.7,11.7c0,6.8 0.1,7.1 2.4,7.1c4.2,0 5.6,1.1 5.6,4.1l0,2.9l-14.5,0l-14.5,0l0,-2.9Z" style="fill:rgb(23,78,112);fill-rule:nonzero;"/>            <path d="M379,204c0,-2.6 0.5,-3.1 3,-3.6l3,-0.6l0,-16.8l0,-16.8l-3,-0.7c-2.7,-0.6 -3,-1 -3,-4.5l0,-3.8l7.4,-0.7c4.1,-0.4 7.9,-0.4 8.5,-0.1c0.6,0.4 1.1,2.3 1.1,4.3l0,3.5l4,-3.6c3.8,-3.4 6,-4.4 10.5,-4.8c5.4,-0.4 5.5,-0.2 5.5,7.3l0,7.1l-2.7,-0.8c-3.8,-1 -9,-0.7 -12.2,0.9l-2.6,1.2l-0.3,14.3l-0.3,14.2l2.8,0c5.5,0 7.3,1 7.3,4.1l0,2.9l-14.5,0l-14.5,0l0,-3Z" style="fill:rgb(23,78,112);fill-rule:nonzero;"/>            <path d="M524,204.1c0,-2.9 1.4,-4.1 5.1,-4.1c1.8,0 1.9,-0.9 1.9,-17l0,-16.9l-3.5,-0.7c-3.3,-0.6 -3.5,-0.9 -3.5,-4.4l0,-3.8l8.9,-0.7c4.9,-0.4 9.4,-0.4 10,0c0.7,0.4 1.1,7.9 1.1,22l0,21.4l2.8,0.3c2.2,0.2 2.8,0.8 3,3.6l0.3,3.2l-13,0l-13.1,0l0,-2.9Z" style="fill:rgb(23,78,112);fill-rule:nonzero;"/>            <path d="M644,204c0,-2.6 0.5,-3.1 3,-3.6l3,-0.6l0,-28.8l0,-28.7l-3,-0.6c-2.5,-0.6 -3,-1.1 -3,-3.7c0,-2.2 0.5,-3 1.8,-3c0.9,-0.1 4.8,-0.5 8.7,-1c4.7,-0.6 7.4,-0.5 8.2,0.2c1,0.8 1.3,8.5 1.3,33.4l0,32.3l2.8,0.3c2.2,0.2 2.8,0.8 3,3.6l0.3,3.2l-13,0l-13.1,0l0,-3Z" style="fill:rgb(23,78,112);fill-rule:nonzero;"/>            <path d="M798,204.1c0,-2.9 1.4,-4.1 5.1,-4.1c1.8,0 1.9,-0.9 1.9,-17.5l0,-17.5l-3.5,0c-3.3,0 -3.5,-0.2 -3.5,-3.4c0,-3 0.3,-3.4 3.4,-4c3.2,-0.6 3.4,-0.8 3.8,-6.1c0.6,-6.8 4.2,-12.5 10.1,-15.9c4.7,-2.8 12,-4.2 16.1,-3.2c2.4,0.6 2.6,1 2.6,6.7c0,5.4 -0.2,6 -1.7,5.4c-1,-0.4 -3.8,-1 -6.3,-1.2c-5.7,-0.6 -6.9,0.6 -7.7,8.1l-0.6,5.6l12.3,0l0,8l-6,0l-6,0l0,35l2.8,0c5.4,0 7.2,1 7.2,4.1l0,2.9l-15,0l-15,0l0,-2.9Z" style="fill:rgb(23,78,112);fill-rule:nonzero;"/>            <path d="M886,204c0,-2.6 0.5,-3.1 3,-3.6l3,-0.6l0,-16.8l0,-16.8l-3,-0.7c-2.7,-0.6 -3,-1 -3,-4.5l0,-3.8l7.4,-0.7c4.1,-0.4 7.9,-0.4 8.5,-0.1c0.6,0.4 1.1,2.3 1.1,4.3l0,3.5l4,-3.6c3.8,-3.4 6,-4.4 10.5,-4.8c5.4,-0.4 5.5,-0.2 5.5,7.3c0,6.9 -0.1,7 -2.2,6.3c-3.3,-1.1 -9.4,-0.7 -12.6,0.8l-2.7,1.3l-0.3,14.3l-0.3,14.2l2.8,0c5.5,0 7.3,1 7.3,4.1l0,2.9l-14.5,0l-14.5,0l0,-3Z" style="fill:rgb(23,78,112);fill-rule:nonzero;"/>            <path d="M928.2,203.8c0.2,-2.5 0.8,-3.4 2.6,-3.6c2.2,-0.3 2.2,-0.5 2.2,-17.3l0,-16.9l-2.5,-0.6c-2.1,-0.5 -2.5,-1.2 -2.5,-4.4l0,-3.7l5.3,-0.7c8.1,-0.9 11.7,-0.7 11.7,0.7c0.1,3.5 1.6,3.8 7.4,1.1c4.9,-2.2 6.8,-2.6 12.3,-2.2c5.5,0.3 6.9,0.8 8.7,2.9l2,2.4l5.5,-2.7c7.1,-3.7 16.4,-3.9 20.6,-0.6c4.7,3.7 5.5,7.2 5.5,25.2l0,16.5l2.8,0.3c2.2,0.2 2.8,0.8 3,3.6l0.3,3.2l-12.1,0l-12.1,0l0.3,-3.2c0.2,-2.5 0.8,-3.4 2.6,-3.6c2.2,-0.3 2.2,-0.6 2.1,-14c0,-15.7 -1.1,-20.1 -5.1,-21.4c-3.7,-1.3 -12.3,2.4 -11.4,4.8c0.3,0.8 0.6,8 0.6,15.9c0,14.1 0,14.4 2.3,14.7c1.7,0.2 2.3,1.1 2.5,3.6l0.3,3.2l-12.1,0l-12.1,0l0.3,-3.2c0.2,-2.5 0.8,-3.4 2.6,-3.6c2.2,-0.3 2.2,-0.6 2.2,-15c0,-16 -0.8,-19 -5.1,-20.6c-2,-0.7 -3.7,-0.4 -7.3,1.3l-4.6,2.3l0,15.8c0,15.7 0,15.9 2.3,16.2c1.7,0.2 2.3,1.1 2.5,3.6l0.3,3.2l-12.1,0l-12.1,0l0.3,-3.2Z" style="fill:rgb(23,78,112);fill-rule:nonzero;"/>            <path d="M1065.2,203.8c0.2,-2.5 0.8,-3.4 2.6,-3.6c2.2,-0.3 2.2,-0.5 2.2,-17.3l0,-16.9l-3,-0.6c-2.7,-0.6 -3,-1 -3,-4.4l0,-3.8l7.9,-0.7c8.9,-0.8 10.1,-0.4 10.1,2.9l0,2.3l5.6,-2.9c4.4,-2.2 7,-2.8 11.8,-2.8c12.9,0 14.9,3.6 15.4,27.2c0.4,16.1 0.5,16.7 2.6,17c1.6,0.2 2.2,1.1 2.4,3.6l0.3,3.2l-12.1,0l-12.1,0l0.3,-3.2c0.2,-2.5 0.8,-3.4 2.6,-3.6c2.2,-0.3 2.2,-0.6 2.2,-15c0,-16 -0.8,-19.1 -5.1,-20.6c-1.9,-0.6 -3.7,-0.3 -7.2,1.2l-4.7,2.1l0,16c0,15.8 0,16 2.3,16.3c1.7,0.2 2.3,1.1 2.5,3.6l0.3,3.2l-12.1,0l-12.1,0l0.3,-3.2Z" style="fill:rgb(23,78,112);fill-rule:nonzero;"/>            <path d="M532,148.8c-3.4,-1.8 -4.7,-5.8 -3.1,-9.6c2,-4.9 8.5,-6.7 12.9,-3.6c2.9,2 3.1,9.3 0.4,11.7c-2.6,2.3 -7.2,3 -10.2,1.5Z" style="fill:rgb(23,78,112);fill-rule:nonzero;"/>            <path d="M334.1,111.8c-0.5,-1.3 -4.7,-12.6 -9.4,-25.3c-4.7,-12.6 -9.5,-25.6 -10.7,-28.7c-1.8,-4.9 -2.5,-5.8 -4.6,-5.8c-1.9,0 -2.4,-0.5 -2.4,-2.5l0,-2.5l11.1,0c10.9,0 11,0 10.7,2.3c-0.2,1.7 -1,2.3 -4,2.5l-3.7,0.3l3.6,9.7c1.9,5.3 6.1,17.1 9.3,26.1l5.7,16.4l1.1,-4.4c0.9,-3.7 13.3,-42.5 14.8,-46.4c0.4,-0.9 -0.5,-1.5 -2.8,-1.7c-2.5,-0.2 -3.4,-0.8 -3.6,-2.6c-0.3,-2.2 -0.1,-2.2 9.8,-2.2c9.9,0 10.1,0 9.8,2.3c-0.2,1.5 -1.1,2.3 -2.9,2.5c-2.5,0.3 -3.1,1.5 -9.4,20c-3.7,10.8 -8.6,24.8 -10.7,31l-4,11.2l-3.4,0c-2.7,0 -3.6,-0.5 -4.3,-2.2Z" style="fill:rgb(23,78,112);fill-rule:nonzero;"/>            <path d="M377.5,112.4c-8,-4.1 -11.6,-11.5 -11.6,-23.7c-0.1,-4.5 0.5,-9.5 1.1,-11.2c4.8,-12.9 19,-19.1 30.6,-13.4c5.8,2.7 8.4,8.1 8.4,17.2l0,6.7l-16.1,0l-16.2,0l0.7,4.1c0.9,5.9 4.2,11.7 7.9,13.9c4.1,2.6 10.9,2.5 16.6,0c4.7,-2.2 6.1,-1.9 6.1,1.1c0,1.4 -1.5,2.7 -5.2,4.4c-6.4,3 -17.5,3.4 -22.3,0.9Zm19.5,-33.9c0,-6.4 -4,-10.8 -9.8,-10.8c-6.9,0 -10.5,3.6 -12.6,12.6l-0.6,2.7l23,0l0,-4.5Z" style="fill:rgb(23,78,112);fill-rule:nonzero;"/>            <path d="M460,112.7l-3.5,-1.2l-0.3,-32.7l-0.2,-32.8l-3.5,0c-3,0 -3.5,-0.3 -3.5,-2.4c0,-2.2 0.5,-2.4 6.9,-3.1c3.9,-0.4 7.5,-0.4 8,0c0.7,0.4 1.1,5.4 1.1,13.1c0,6.8 0.2,12.4 0.4,12.4c0.2,0 2.3,-0.9 4.7,-2c5.9,-2.6 12.4,-2.5 17.9,0.3c16.5,8.3 14.1,39.8 -3.5,47.8c-4.7,2.2 -18.9,2.5 -24.5,0.6Zm20.4,-5.7c6.7,-3.4 9.4,-8.9 9.5,-19.4c0.1,-9.6 -2.5,-15.1 -8.5,-17.8c-3.6,-1.6 -5,-1.7 -8.3,-0.8c-8.1,2.2 -8.2,2.3 -7.9,21.5l0.3,16.9l2.5,0.7c4.5,1.3 8.5,0.9 12.4,-1.1Z" style="fill:rgb(23,78,112);fill-rule:nonzero;"/>            <path d="M511.9,111.7c-2.3,-1.5 -3.8,-3.7 -4.8,-6.5c-3.8,-12 4.6,-19.9 23.2,-21.9c5.4,-0.6 5.7,-0.7 5.7,-3.3c0,-10.4 -7.5,-13.7 -20,-8.6c-5.9,2.4 -6,2.4 -7.1,0.5c-1.4,-2.7 -0.1,-4.1 6.4,-7c7.1,-3.1 17.7,-3.3 22.7,-0.4c5.1,3.1 5.9,6.4 5.9,26.8l0.1,17.7l3,0c2.3,0 3,0.5 3,1.9c0,2.2 -2.6,3.1 -8.7,3.1c-4.1,0 -4.3,-0.1 -4.3,-3l0,-3l-4.7,3c-6.2,3.9 -15.1,4.3 -20.4,0.7Zm19.1,-5.9l4.5,-2.3l0.3,-7.7c0.3,-8.9 0.6,-8.7 -9,-6.7c-3.7,0.8 -6.3,2.2 -8.5,4.4c-3.5,3.5 -4.1,6.2 -2.1,9.8c2.7,5.2 7.7,6 14.8,2.5Z" style="fill:rgb(23,78,112);fill-rule:nonzero;"/>            <path d="M624,112c-7.1,-4.2 -10,-11 -10,-23c0,-9.3 2.8,-16 8.9,-21.2c5.1,-4.4 10.9,-6.1 19,-5.6l6.1,0.3l0,-8.2l0,-8.3l-4.5,0c-4.1,0 -4.5,-0.2 -4.5,-2.4c0,-2.1 0.5,-2.4 6.1,-3c3.4,-0.3 7.3,-0.6 8.5,-0.6l2.4,0l0,68l3,0c2.5,0 3,0.4 3,2.4c0,2.7 -2.1,3.6 -8.7,3.6c-4.1,0 -4.3,-0.1 -4.3,-3.1l0,-3l-3.7,2.8c-3,2.3 -4.7,2.8 -10.7,3.1c-5.8,0.2 -7.8,-0.1 -10.6,-1.8Zm19,-6.2l4.5,-2.3l0.3,-16.7c0.2,-16.5 0.2,-16.7 -2,-17.9c-3.5,-1.9 -11,-1.6 -14.8,0.7c-6.5,3.8 -9.9,14.1 -8,24.4c1.2,6.5 3.4,9.9 8.1,12.2c4.5,2.3 6.6,2.3 11.9,-0.4Z" style="fill:rgb(23,78,112);fill-rule:nonzero;"/>            <path d="M702.5,111.7c-3,-1.6 -4.8,-3.7 -6.9,-8.1c-2.6,-5.1 -3,-7 -3,-14c0,-9.4 2.1,-15.2 7.3,-20.4c5.6,-5.5 8.6,-6.6 18.3,-6.7l8.8,0l0,-8.2l0,-8.3l-4.5,0c-4.1,0 -4.5,-0.2 -4.5,-2.4c0,-2.2 0.5,-2.4 7.5,-3.1c4.1,-0.3 7.9,-0.4 8.5,0c0.6,0.4 1,12 1,34.1l0,33.4l3,0c2.5,0 3,0.4 3,2.4c0,2.7 -2.1,3.6 -8.7,3.6c-3.7,0 -4.3,-0.3 -4.9,-2.4l-0.6,-2.4l-4.1,2.4c-5.7,3.2 -14.5,3.3 -20.2,0.1Zm21,-6.7l3.5,-2.2l-0.2,-16.6l-0.3,-16.7l-4.2,-1.3c-9.2,-2.9 -18.2,3 -20.3,13.4c-4,18.9 7.9,31.8 21.5,23.4Z" style="fill:rgb(23,78,112);fill-rule:nonzero;"/>            <path d="M758.5,112.4c-8,-4.1 -11.7,-11.7 -11.7,-23.9c-0.1,-12.8 4.9,-21.3 14.7,-25c5.7,-2.2 14.5,-1.6 18.2,1.1c5.4,4.1 6.8,7 7.2,15.5l0.3,7.9l-16.2,0l-16.3,0l0.7,4.1c0.9,5.9 4.2,11.7 7.9,13.9c4.1,2.6 10.9,2.5 16.6,0c4.7,-2.2 6.1,-1.9 6.1,1.1c0,1.4 -1.5,2.7 -5.2,4.4c-6.4,3 -17.5,3.4 -22.3,0.9Zm19.5,-33.9c0,-6.4 -4,-10.8 -9.8,-10.8c-6.9,0 -10.5,3.6 -12.6,12.6l-0.6,2.7l23,0l0,-4.5Z" style="fill:rgb(23,78,112);fill-rule:nonzero;"/>            <path d="M805.1,112.7c-1.4,-0.6 -3.4,-2.8 -4.5,-4.7c-1.9,-3.1 -2.1,-5.5 -2.4,-21.3l-0.4,-17.7l-2.4,-0.6c-1.6,-0.4 -2.4,-1.3 -2.4,-2.9c0,-2 0.6,-2.3 5.7,-2.8c3.1,-0.3 6,-0.4 6.5,-0.1c0.4,0.3 0.8,8 0.8,17.2c0,9.2 0.5,18.5 1,20.7c1.8,7.7 7.7,9.5 16.8,4.9l5.2,-2.6l0,-16.8l0,-16.9l-3.5,-0.7c-2.8,-0.5 -3.5,-1.1 -3.5,-2.9c0,-2 0.6,-2.3 6.1,-2.8c3.4,-0.3 6.8,-0.3 7.5,0c1.1,0.4 1.4,5 1.4,23.4l0,22.9l2.5,0c1.8,0 2.5,0.5 2.5,2c0,2.3 -3,3.3 -8.1,2.8c-2.9,-0.2 -3.5,-0.7 -3.7,-3l-0.3,-2.7l-5.3,2.9c-4.2,2.4 -6.4,3 -11.2,3c-3.2,0 -7,-0.6 -8.3,-1.3Z" style="fill:rgb(23,78,112);fill-rule:nonzero;"/>            <path d="M855.9,112.1c-2.4,-1.9 -2.4,-2.3 -2.7,-22.5l-0.3,-20.6l-3,0c-4.1,0 -4,-3.4 0.1,-4.8c2.5,-0.9 3.2,-2 4.7,-7.1c1.6,-5.5 2,-6.1 4.6,-6.1c2.6,0 2.7,0.1 2.7,6l0,6l15,0l0,6l-7.5,0l-7.5,0l0,18.4c0,21.8 -0.2,21.5 9.2,19.7c5,-1 6.2,-1 6.9,0.1c1.4,2.1 0.5,3.2 -4.2,5c-6.2,2.4 -15,2.3 -18,-0.1Z" style="fill:rgb(23,78,112);fill-rule:nonzero;"/>            <path d="M890.3,112.3l-4.3,-1.5l0,-5.9c0,-5.8 0,-5.9 2.9,-5.9c2.5,0 3,0.5 3.5,3.5c0.8,4.2 4.5,6.5 10.5,6.5c7.7,0 11.2,-3.4 9.7,-9.6c-0.5,-2 -2.8,-3.5 -11.3,-7.7c-12.3,-6 -14.5,-8.3 -14.6,-15.3c-0.1,-9.5 5.7,-13.9 18.3,-13.8c4.1,0 8.7,0.5 10.3,1.2c2.5,1.1 2.7,1.6 2.7,6.7c0,5.5 0,5.6 -2.7,5.3c-2.2,-0.2 -2.9,-0.9 -3.3,-3.3c-0.4,-2.3 -1.3,-3.2 -4.4,-4.4c-5.2,-2 -11.6,0 -13,4.1c-1.5,4.4 1.3,7.2 12.7,12.7c11.4,5.5 13.7,8 13.7,15.1c0,9.2 -6.6,14.1 -19.1,13.9c-4.1,0 -9.3,-0.7 -11.6,-1.6Z" style="fill:rgb(23,78,112);fill-rule:nonzero;"/>            <path d="M939.7,111.9c-5.1,-2.7 -9.3,-8.9 -10.8,-15.7c-2.8,-13.6 2.3,-26.7 12.5,-31.9c4.1,-2.1 13.4,-2.8 19.5,-1.3l5.1,1.2l0,13.8l-2.9,0c-2.6,0 -3,-0.4 -3.6,-3.8c-0.9,-5.5 -1.8,-6.4 -6.6,-6.9c-5.7,-0.6 -10.5,2.4 -13.7,8.7c-2,3.9 -2.3,5.6 -2,12.6c0.5,9.2 2.4,13.6 7.8,17.1c4.2,2.9 10.6,3 16.2,0.3c3.2,-1.5 4.4,-1.7 5,-0.8c1.6,2.6 0.7,4 -4.4,6.3c-6.8,3.2 -16.5,3.4 -22.1,0.4Z" style="fill:rgb(23,78,112);fill-rule:nonzero;"/>            <path d="M1042.5,111.8c-2.2,-1.3 -5.2,-4.4 -6.9,-7.1c-2.5,-4.1 -3,-6.1 -3.4,-13.3c-0.6,-10.4 0.9,-16 5.6,-21.5c4.5,-5.2 10.1,-7.8 17,-7.9c11.5,0 17.1,6.3 17.2,19.3l0,6.7l-16,0l-16.1,0l0.7,3.8c1,5.9 4.4,12.2 7.8,14.4c3.8,2.3 12.3,2.1 17.5,-0.5c6.6,-3.3 7.1,2.3 0.6,5.7c-2.9,1.5 -6.2,2.2 -12,2.4c-6.8,0.2 -8.6,-0.1 -12,-2Zm21.1,-30.2c0.8,-2.2 -1.5,-9.4 -3.7,-11.5c-6.6,-6.2 -17.3,-1.1 -18.6,8.9l-0.6,4l11.2,0c8.6,0 11.3,-0.3 11.7,-1.4Z" style="fill:rgb(23,78,112);fill-rule:nonzero;"/>            <path d="M413,111.1c0,-1.5 1,-2.1 4,-2.6l4,-0.7l0,-18.8l0,-18.9l-3.6,-0.7c-3.1,-0.6 -3.5,-1 -3.2,-3.3c0.3,-2.4 0.8,-2.7 5.8,-3.3c7.2,-0.9 8,-0.6 8,3.8l0,3.6l3.3,-2.8c4.2,-3.5 8.8,-5.4 13.2,-5.4c3.5,0 3.5,0 3.5,4.3l0,4.3l-5.2,0c-3.5,0 -6.8,0.8 -9.5,2.2l-4.3,2.2l0,32.8l6,0.7c5,0.6 6,1 6,2.6c0,1.8 -0.9,1.9 -14,1.9c-13.1,0 -14,-0.1 -14,-1.9Z" style="fill:rgb(23,78,112);fill-rule:nonzero;"/>            <path d="M556,111c0,-1.5 0.9,-2.2 3,-2.6l3,-0.6l0,-18.9l0,-19l-3,-0.5c-2.5,-0.5 -3,-1.1 -3,-3.4c0,-2.6 0.3,-2.8 5.6,-3.3c6.9,-0.7 8.4,-0.2 8.4,3c0,1.4 0.3,2.3 0.8,2.1c9,-4.7 11.1,-5.3 17.3,-5.3c12,0 13.8,3.6 14.6,28.1l0.6,17.3l2.6,0.3c1.8,0.2 2.7,1 2.9,2.6c0.3,2.2 0.2,2.2 -10.2,2.2c-10,0 -10.6,-0.1 -10.6,-2c0,-1.5 0.9,-2.2 3.1,-2.7l3,-0.6l-0.3,-17.4c-0.3,-17 -0.4,-17.5 -2.7,-19.4c-3.2,-2.6 -9.6,-2.5 -15.1,0.3l-4.5,2.3l-0.3,17.2l-0.2,17.2l2.7,0.3c2,0.2 2.9,0.9 3.1,2.6c0.3,2.2 0.2,2.2 -10.2,2.2c-10,0 -10.6,-0.1 -10.6,-2Z" style="fill:rgb(23,78,112);fill-rule:nonzero;"/>            <path d="M975.2,110.8c0.2,-1.5 1.1,-2.4 2.6,-2.6l2.2,-0.3l0,-31l0,-30.9l-4,0c-3.5,0 -4,-0.3 -4,-2.4c0,-2.1 0.5,-2.4 6.1,-3c10.9,-1.1 9.9,-2.5 9.9,13.5c0,7.7 0.3,13.9 0.8,13.7c9,-4.7 11.1,-5.3 17.3,-5.3c12,0 13.8,3.6 14.6,28.1l0.6,17.3l2.6,0.3c1.8,0.2 2.7,1 2.9,2.6c0.3,2.2 0.2,2.2 -10.3,2.2c-10.5,0 -10.6,0 -10.3,-2.2c0.2,-1.7 1.1,-2.4 3.1,-2.6l2.8,-0.3l-0.3,-17.6c-0.3,-17 -0.4,-17.5 -2.7,-19.4c-3.3,-2.7 -9.6,-2.5 -15.9,0.7l-5.2,2.6l0,33.7l3.3,0.3c2.4,0.2 3.3,0.8 3.5,2.6c0.3,2.2 0.1,2.2 -9.8,2.2c-9.9,0 -10.1,0 -9.8,-2.2Z" style="fill:rgb(23,78,112);fill-rule:nonzero;"/>            <path d="M1080,111c0,-1.4 0.9,-2.1 3.5,-2.6l3.5,-0.6l0,-18.9l0,-18.8l-3.6,-0.7c-3.1,-0.6 -3.5,-1 -3.2,-3.3c0.3,-2.4 0.8,-2.7 5.8,-3.3c7.2,-0.9 8,-0.6 8,3.8l0,3.6l3.3,-2.8c4.2,-3.5 8.8,-5.4 13.2,-5.4c3.5,0 3.5,0 3.5,4.3l0,4.3l-5.3,0c-3.3,0.1 -6.8,0.9 -9.5,2.3l-4.2,2.1l0,32.8l6,0.7c5,0.6 6,1 6,2.6c0,1.8 -0.9,1.9 -13.5,1.9c-12.7,0 -13.5,-0.1 -13.5,-2Z" style="fill:rgb(23,78,112);fill-rule:nonzero;"/>        </g>        <g id="layer102">            <path d="M86.8,237.8c4.3,-6.8 9.1,-14.8 10.6,-17.8c1.5,-3 3.3,-6 4,-6.5c1.8,-1.4 16.7,-24.9 19.6,-30.9c1.3,-2.7 3.2,-5.8 4.3,-6.9c2.3,-2.3 16.4,-24.3 19.3,-30.2c1.1,-2.2 4.3,-7.6 7.1,-12.1l5.1,-8.1l-6.4,-9.9c-3.5,-5.4 -6.2,-10.6 -6,-11.6c0.5,-2.1 16.7,-27.8 17.5,-27.8c0.8,0 30.2,46.6 30.7,48.8c0.5,1.6 -28.3,48.3 -31.1,50.7c-1.8,1.5 -14.9,22.4 -18.1,29c-1.5,3.1 -3.7,6.6 -4.9,7.8c-2.6,2.6 -18.5,27.4 -18.5,28.8c0,0.5 -1.2,2.7 -2.6,4.9l-2.7,4l-17.8,0l-17.9,0l7.8,-12.2Z" style="fill:rgb(32,180,228);fill-rule:nonzero;"/>            <path d="M127,249.4c0,-0.4 3.7,-6.6 8.3,-13.8c4.5,-7.2 9.3,-15.2 10.6,-17.8c1.3,-2.7 2.7,-4.8 3.1,-4.8c0.8,0 16.6,-24.7 17.7,-27.6c0.3,-1.1 8.8,-14.7 18.6,-30.4c9.9,-15.7 18,-29 18,-29.6c0,-0.6 -8.1,-14 -18.1,-29.7l-18.1,-28.7l9.1,-14.5c5,-8 9.5,-14.2 9.8,-13.8c2,2.2 54.3,85.8 54.3,86.7c0,1.3 -53.1,85.7 -54.8,87.1c-1.8,1.5 -16.6,25.1 -20,31.8l-2.8,5.7l-17.9,0c-9.8,0 -17.8,-0.3 -17.8,-0.6Z" style="fill:rgb(32,180,228);fill-rule:nonzero;"/>            <path d="M174,249.6c0,-0.2 3.6,-6.2 8.1,-13.2c4.4,-7 8.4,-13.7 8.9,-14.9c0.4,-1.2 14.1,-23.2 30.4,-48.9c16.3,-25.7 29.6,-46.9 29.6,-47.1c0,-0.3 -13.5,-21.8 -30.1,-48c-16.5,-26.1 -29.9,-47.9 -29.7,-48.3c0.7,-1.9 17.3,-28.1 17.8,-28.2c0.8,0 78.5,123.2 78.5,124.4c0,0.6 -17.5,28.9 -39,62.9l-39,61.7l-17.7,0c-9.8,0 -17.8,-0.2 -17.8,-0.4Z" style="fill:rgb(32,180,228);fill-rule:nonzero;"/>            <path d="M122.6,71.4l-2.8,-4.4l9.2,-14.6l9.3,-14.5l2.9,4.4l2.9,4.5l-9.1,14.2c-4.9,7.9 -9.1,14.5 -9.3,14.6c-0.1,0.2 -1.5,-1.7 -3.1,-4.2Z" style="fill:rgb(32,180,228);fill-rule:nonzero;"/>            <path d="M99.3,34.5c-1.3,-1.9 -2.3,-4.1 -2.3,-4.8c0,-0.7 3.8,-7.3 8.5,-14.7c4.7,-7.4 8.5,-13.9 8.5,-14.4c0,-0.6 1.4,1.1 3.1,3.7c1.6,2.7 2.9,5.2 2.7,5.7c-0.7,1.8 -17.3,28 -17.8,28c-0.3,0 -1.5,-1.6 -2.7,-3.5Z" style="fill:rgb(32,180,228);fill-rule:nonzero;"/>            <path d="M146,33.6l-2.4,-4.3l9,-14.2c4.9,-7.7 9.1,-14.1 9.4,-14.1c0.3,0 1.6,2 2.9,4.4l2.5,4.4l-8.9,14.1c-4.8,7.8 -9.1,14.1 -9.5,14.1c-0.4,0 -1.8,-2 -3,-4.4Z" style="fill:rgb(32,180,228);fill-rule:nonzero;"/>        </g>    </g></svg>