<?xml version="1.0" encoding="UTF-8" standalone="no"?><!DOCTYPE svg PUBLIC "-//W3C//DTD SVG 1.1//EN" "http://www.w3.org/Graphics/SVG/1.1/DTD/svg11.dtd"><svg width="100%" height="100%" viewBox="0 0 1024 512" version="1.1" xmlns="http://www.w3.org/2000/svg" xmlns:xlink="http://www.w3.org/1999/xlink" xml:space="preserve" style="fill-rule:evenodd;clip-rule:evenodd;stroke-linejoin:round;stroke-miterlimit:2;"><title>FSCS</title><desc></desc>    <g transform="matrix(1.44706,0,0,1.4474,419.388,163.266)">        <g transform="matrix(4.63636,0,0,4.63636,-232.727,-232.979)">            <path d="M9,88.59c1.302,0.549 2.708,0.808 4.12,0.76c8.26,0 14.78,-5.27 19.41,-15.65l5.27,-12.82l8.36,0l1.84,-3.61l-8.9,0l0.34,-0.81c3,-7.26 6.92,-10.95 11.59,-10.95c1.308,0.073 2.59,0.392 3.78,0.94l2.76,-4.2c-1.517,-0.641 -3.144,-0.981 -4.79,-1c-8.26,0 -14.79,5.27 -19.41,15.66l-0.15,0.35l-15.22,0l-1.9,3.62l15.63,0l-2,4.8l-18.12,0l-1.85,3.58l18.64,0l-2,4.89c-3,7.27 -6.9,11 -11.5,11c-1.287,-0.07 -2.549,-0.382 -3.72,-0.92l-2.18,4.36Z" style="fill:rgb(81,1,105);fill-rule:nonzero;"/>        </g>        <g transform="matrix(4.63636,0,0,4.63636,-232.727,-232.979)">            <path d="M102.34,62.3c-1.15,-1.21 -2.741,-1.906 -4.41,-1.93c-1.002,-0.023 -1.987,0.264 -2.82,0.82c-0.761,0.466 -1.244,1.279 -1.29,2.17c-0.052,0.618 0.154,1.23 0.57,1.69c0.646,0.639 1.388,1.172 2.2,1.58l2.91,1.62c1.668,0.851 2.662,2.634 2.51,4.5c-0.057,2.295 -1.164,4.442 -3,5.82c-1.993,1.469 -4.425,2.224 -6.9,2.14c-2.26,0.042 -4.484,-0.584 -6.39,-1.8l2.34,-3.86c0.667,0.651 1.45,1.17 2.31,1.53c0.821,0.416 1.721,0.654 2.64,0.7c1.153,0.047 2.288,-0.306 3.21,-1c0.859,-0.67 1.373,-1.691 1.4,-2.78c0.039,-0.587 -0.163,-1.165 -0.56,-1.6c-0.639,-0.645 -1.37,-1.191 -2.17,-1.62l-2.89,-1.69c-0.845,-0.46 -1.54,-1.155 -2,-2c-0.419,-0.796 -0.609,-1.693 -0.55,-2.59c0.076,-2.043 1.101,-3.939 2.77,-5.12c1.798,-1.316 3.983,-1.998 6.21,-1.94c2.073,0.104 4.101,0.646 5.95,1.59l-2.04,3.77Z" style="fill:rgb(81,1,105);fill-rule:nonzero;"/>        </g>        <g transform="matrix(4.63636,0,0,4.63636,-232.727,-232.979)">            <path d="M84.39,61.56c-1.182,-0.855 -2.624,-1.275 -4.08,-1.19c-2.549,-0.039 -4.977,1.112 -6.56,3.11c-1.778,2.165 -2.787,4.86 -2.87,7.66c-0.187,1.598 0.29,3.204 1.32,4.44c0.861,1.045 2.145,1.654 3.5,1.66c2.172,-0.026 4.288,-0.694 6.08,-1.92l-0.69,4.16c-1.963,0.835 -4.077,1.257 -6.21,1.24c-2.827,0 -4.953,-0.81 -6.38,-2.43c-1.481,-1.803 -2.171,-4.131 -1.91,-6.45c0.082,-3.961 1.571,-7.766 4.2,-10.73c2.374,-2.698 5.816,-4.224 9.41,-4.17c1.779,-0.099 3.551,0.295 5.12,1.14l-0.93,3.48Z" style="fill:rgb(81,1,105);fill-rule:nonzero;"/>        </g>        <g transform="matrix(4.63636,0,0,4.63636,-232.727,-232.979)">            <path d="M62.54,62.3c-1.15,-1.211 -2.741,-1.907 -4.41,-1.93c-1.002,-0.023 -1.987,0.264 -2.82,0.82c-0.77,0.465 -1.261,1.282 -1.31,2.18c-0.052,0.618 0.154,1.23 0.57,1.69c0.645,0.64 1.387,1.174 2.2,1.58l2.91,1.62c1.668,0.851 2.662,2.634 2.51,4.5c-0.056,2.296 -1.162,4.443 -3,5.82c-1.993,1.469 -4.425,2.224 -6.9,2.14c-2.261,0.042 -4.484,-0.584 -6.39,-1.8l2.34,-3.86c0.666,0.651 1.45,1.17 2.31,1.53c0.824,0.417 1.727,0.655 2.65,0.7c1.153,0.047 2.288,-0.306 3.21,-1c0.86,-0.669 1.374,-1.691 1.4,-2.78c0.036,-0.587 -0.166,-1.164 -0.56,-1.6c-0.638,-0.645 -1.37,-1.191 -2.17,-1.62l-2.93,-1.67c-0.845,-0.46 -1.54,-1.155 -2,-2c-0.406,-0.81 -0.579,-1.717 -0.5,-2.62c0.076,-2.043 1.101,-3.939 2.77,-5.12c1.798,-1.315 3.983,-1.997 6.21,-1.94c2.073,0.104 4.101,0.646 5.95,1.59l-2.04,3.77Z" style="fill:rgb(81,1,105);fill-rule:nonzero;"/>        </g>        <g transform="matrix(4.63636,0,0,4.63636,-232.727,-232.979)">            <path d="M69.67,26.1c-1.54,0 -3.08,0 -4.62,0.11c-4.484,0.184 -8.948,0.689 -13.36,1.51c-4.48,0.804 -8.862,2.085 -13.07,3.82c-2.158,0.895 -4.224,1.997 -6.17,3.29c-1.002,0.652 -1.955,1.378 -2.85,2.17c-0.922,0.834 -1.748,1.77 -2.46,2.79c-0.745,1.065 -1.313,2.243 -1.68,3.49c-0.372,1.271 -0.487,2.604 -0.34,3.92c0.135,1.259 0.473,2.489 1,3.64l0.18,0.35c0.1,0.131 0.255,0.209 0.42,0.21c0.003,0 0.007,0 0.01,0c0.282,0 0.515,-0.229 0.52,-0.51c0.014,-0.066 0.014,-0.134 0,-0.2l-0.15,-0.36c-0.42,-1.054 -0.669,-2.168 -0.74,-3.3c-0.06,-1.112 0.093,-2.225 0.45,-3.28c0.366,-1.043 0.899,-2.019 1.58,-2.89c1.393,-1.727 3.087,-3.187 5,-4.31c1.887,-1.141 3.871,-2.112 5.93,-2.9c2.054,-0.785 4.15,-1.453 6.28,-2c2.12,-0.56 4.28,-1 6.44,-1.38c4.318,-0.701 8.677,-1.126 13.05,-1.27c4.37,-0.15 8.77,-0.12 13.14,0.07c2.19,0.09 4.37,0.27 6.54,0.48c2.17,0.21 4.34,0.51 6.49,0.9c4.324,0.709 8.539,1.973 12.54,3.76c2.006,0.932 3.907,2.075 5.67,3.41c0.892,0.675 1.738,1.41 2.53,2.2c0.789,0.813 1.515,1.685 2.17,2.61c1.346,1.895 2.361,4.005 3,6.24c0.626,2.28 0.929,4.636 0.9,7c-0.115,4.764 -1.197,9.456 -3.18,13.79c-0.953,2.134 -2.066,4.194 -3.33,6.16c-1.249,1.926 -2.629,3.763 -4.13,5.5c-1.471,1.704 -3.058,3.305 -4.75,4.79c-0.83,0.74 -1.68,1.45 -2.56,2.11c-0.88,0.66 -1.81,1.36 -2.72,1.98c-3.521,2.397 -7.399,4.223 -11.49,5.41l-0.74,0.2l-0.76,0.19c-0.49,0.11 -1,0.21 -1.49,0.3c-0.992,0.175 -1.994,0.289 -3,0.34c-0.999,0.051 -2.001,0.051 -3,0c-1,-0.06 -2,-0.18 -3,-0.34c-4.195,-0.737 -8.25,-2.12 -12.02,-4.1c-3.92,-2.029 -7.643,-4.42 -11.12,-7.14l-0.05,0c-0.071,-0.058 -0.159,-0.089 -0.25,-0.09c-0.216,0 -0.395,0.174 -0.4,0.39c0,0.088 0.032,0.173 0.09,0.24c3.384,4.265 7.413,7.976 11.94,11c3.294,2.259 6.965,3.912 10.84,4.88c1.155,0.286 2.327,0.493 3.51,0.62c1.188,0.137 2.384,0.19 3.58,0.16c1.206,-0.029 2.408,-0.136 3.6,-0.32c0.6,-0.1 1.193,-0.22 1.78,-0.36l0.86,-0.21l0.88,-0.24c4.631,-1.388 8.958,-3.641 12.75,-6.64c3.85,-3.035 7.221,-6.632 10,-10.67c1.41,-2.024 2.68,-4.142 3.8,-6.34c1.133,-2.204 2.106,-4.486 2.91,-6.83c1.548,-4.427 2.352,-9.08 2.38,-13.77l0,-0.18l0,-0.83c-0.046,-2.464 -0.416,-4.912 -1.1,-7.28c-0.685,-2.315 -1.735,-4.506 -3.11,-6.49c-1.351,-1.915 -2.963,-3.632 -4.79,-5.1c-1.765,-1.463 -3.679,-2.737 -5.71,-3.8c-4.01,-2.05 -8.259,-3.595 -12.65,-4.6c-2.18,-0.52 -4.37,-0.93 -6.58,-1.27c-2.21,-0.34 -4.43,-0.57 -6.65,-0.75c-2.22,-0.18 -4.45,-0.27 -6.68,-0.31l-2.06,0l0,0.03Z" style="fill:url(#_Linear1);fill-rule:nonzero;"/>        </g>    </g>    <defs>        <linearGradient id="_Linear1" x1="0" y1="0" x2="1" y2="0.000152795" gradientUnits="userSpaceOnUse" gradientTransform="matrix(81.87,-29.8,29.8,81.87,35.32,76.17)"><stop offset="0" style="stop-color:rgb(81,1,105);stop-opacity:1"/><stop offset="0.11" style="stop-color:rgb(81,1,105);stop-opacity:1"/><stop offset="0.43" style="stop-color:rgb(11,24,93);stop-opacity:1"/><stop offset="0.72" style="stop-color:rgb(148,205,23);stop-opacity:1"/><stop offset="0.96" style="stop-color:rgb(81,1,105);stop-opacity:1"/><stop offset="1" style="stop-color:rgb(81,1,105);stop-opacity:1"/></linearGradient>    </defs></svg>