<?xml version="1.0" encoding="UTF-8" standalone="no"?><!DOCTYPE svg PUBLIC "-//W3C//DTD SVG 1.1//EN" "http://www.w3.org/Graphics/SVG/1.1/DTD/svg11.dtd"><svg width="100%" height="100%" viewBox="0 0 1024 512" version="1.1" xmlns="http://www.w3.org/2000/svg" xmlns:xlink="http://www.w3.org/1999/xlink" xml:space="preserve" style="fill-rule:evenodd;clip-rule:evenodd;stroke-miterlimit:10;"><title>FinBee CZ</title><desc>P2P loans on the FinBee.cz portal are operated by FinBee CZ Lending s.r.o., which was founded in 2015. It belongs to the Lithuanian FinBee platform, which is currently one of the fastest growing P2P loan intermediaries in Europe.</desc>    <g transform="matrix(2.22198,0,0,2.22198,-56.7935,13.7919)">        <path d="M459.56,92.63l0,0.07l0,-0.07Z" style="fill:rgb(1,2,2);fill-rule:nonzero;"/>        <path d="M472.63,106.58c-9.79,-10.63 -52.26,-5 -60.61,17.15c-6,-19 -50.39,-25.25 -59.31,-16.49c0,0 15.11,-27 59.31,-27.75c41.39,-0.68 58.98,23.78 60.61,27.09Z" style="fill:rgb(1,2,2);fill-rule:nonzero;"/>        <path d="M429.07,81.94c0,0 8.43,-64.94 22.31,-44.94" style="fill:none;fill-rule:nonzero;stroke:black;stroke-width:1px;"/>        <path d="M460.93,36.66c0,5.393 -4.437,9.83 -9.83,9.83c-5.393,0 -9.83,-4.437 -9.83,-9.83c0,-5.393 4.437,-9.83 9.83,-9.83c5.393,0 9.83,4.437 9.83,9.83Z" style="fill-rule:nonzero;"/>        <path d="M395.29,81.94c0,0 -8.42,-64.94 -22.29,-44.94" style="fill:none;fill-rule:nonzero;stroke:black;stroke-width:1px;"/>        <path d="M383.1,36.66c0,5.393 -4.437,9.83 -9.83,9.83c-5.393,0 -9.83,-4.437 -9.83,-9.83c0,-5.393 4.437,-9.83 9.83,-9.83c5.393,0 9.83,4.437 9.83,9.83Z" style="fill-rule:nonzero;"/>        <path d="M451.45,134.91c-3.39,0 -5.76,2.5 -6.21,6.33l11.7,0c0.13,-3.96 -2.05,-6.33 -5.49,-6.33Z" style="fill-rule:nonzero;"/>        <path d="M374.13,134.91c-3.38,0 -5.76,2.5 -6.2,6.33l11.7,0c0.13,-3.96 -2.04,-6.33 -5.5,-6.33Z" style="fill-rule:nonzero;"/>        <path d="M80.22,115.09c-0.59,-3.41 -1.19,-6.69 -1.48,-10.25l-20.06,0l0,27.62l16.78,0c0.3,-2.766 0.845,-5.5 1.63,-8.17l12.33,0l0,31l-12.33,0c-0.805,-2.665 -1.351,-5.401 -1.63,-8.17l-16.78,0l0,28.66c4.339,0.338 8.653,0.935 12.92,1.79l0,12l-45.14,0l0,-12c4.267,-0.855 8.581,-1.453 12.92,-1.79l0,-72.57c-4.338,-0.337 -8.652,-0.931 -12.92,-1.78l0,-12l68.16,0l0,25.7l-14.4,-0.04Z" style="fill-rule:nonzero;"/>        <path d="M102.71,189.64l0,-12.43c4.413,-0.877 8.874,-1.492 13.36,-1.84l0,-47c-3.68,-0.61 -8.9,-1.22 -13.36,-1.53l0,-12.27c10.902,-1.261 21.881,-1.722 32.85,-1.38l0,62.17c4.182,0.346 8.338,0.964 12.44,1.85l0,12.44l-45.29,-0.01Zm23,-86.12c-6.387,-0.204 -11.53,-5.514 -11.53,-11.904c0,-6.534 5.377,-11.91 11.91,-11.91c6.498,0 11.858,5.317 11.91,11.814c-0.087,6.648 -5.612,12.055 -12.26,12l-0.03,0Z" style="fill-rule:nonzero;"/>        <path d="M215.23,140.83c0,-8 -2.15,-12.74 -9.36,-12.74c-10,0 -17.81,11.36 -17.81,24.72l0,22.57c3.778,0.237 7.528,0.8 11.21,1.68l0,12.59l-44.05,0l0,-12.45c4.413,-0.878 8.874,-1.492 13.36,-1.84l0,-47c-3.69,-0.61 -8.91,-1.22 -13.36,-1.53l0,-12.26c10.545,-1.238 21.167,-1.699 31.78,-1.38c0.006,4.574 -0.352,9.142 -1.07,13.66l0.15,0.15c4.61,-9.05 13.51,-15.35 25.94,-15.35c17.19,0 22.72,11 22.72,24.41l0,39.3c4.233,0.332 8.439,0.947 12.59,1.84l0,12.44l-32.1,0l0,-48.81Z" style="fill-rule:nonzero;"/>        <path d="M288.51,190c-6.3,0 -17.19,-0.31 -30.24,-0.31l0,-103.51c8.75,-0.46 22.26,-0.76 35,-0.76c22.41,0 34.85,9.06 34.85,25.63c0,10.29 -6.6,19.34 -16.43,23.18l0,0.31c12.28,2.61 18.41,12.74 18.41,23.18c0,15.04 -10.28,32.28 -41.59,32.28Zm1.38,-88.42c-4.14,0 -8.14,0.15 -11.67,0.31l0,27c2.46,0.15 4.91,0.15 8.14,0.15c13.66,0 20.72,-5.52 20.72,-14.73c0,-7.72 -4.61,-12.78 -17.2,-12.78l0.01,0.05Zm-2.89,42.32c-1.53,0 -6.6,0 -8.75,0.15l0,29c3.618,0.421 7.258,0.625 10.9,0.61c13,0 19.65,-6.14 19.65,-15.51c-0.03,-10.15 -8.8,-14.25 -21.8,-14.25Z" style="fill:rgb(255,222,0);fill-rule:nonzero;"/>        <path d="M407.47,154.64l-47.28,0c-0.15,14.28 6.91,21.19 21,21.19c7.672,-0.007 15.256,-1.629 22.26,-4.76l1.85,15.2c-8.721,3.3 -17.976,4.964 -27.3,4.91c-24.25,0 -37.76,-12.12 -37.76,-39c0,-23.33 12.9,-40.52 35.76,-40.52c22.26,0 32.09,15.2 32.09,34.08c0.002,2.978 -0.205,5.952 -0.62,8.9Zm-32.08,-28.55c-8.14,0 -13.82,6 -14.89,15.2l28.1,0c0.3,-9.52 -4.92,-15.2 -13.21,-15.2Z" style="fill:rgb(255,222,0);fill-rule:nonzero;"/>        <path d="M484.93,154.64l-47.28,0c-0.15,14.28 6.91,21.19 21,21.19c7.675,-0.007 15.263,-1.629 22.27,-4.76l1.84,15.2c-8.727,3.303 -17.989,4.968 -27.32,4.91c-24.26,0 -37.77,-12.12 -37.77,-39c0,-23.33 12.9,-40.52 35.76,-40.52c22.26,0 32.08,15.2 32.08,34.08c0.016,2.977 -0.178,5.951 -0.58,8.9Zm-32.08,-28.55c-8.13,0 -13.82,6 -14.89,15.2l28.04,0c0.36,-9.52 -4.86,-15.2 -13.15,-15.2Z" style="fill:rgb(255,222,0);fill-rule:nonzero;"/>    </g></svg>