<?xml version="1.0" encoding="UTF-8" standalone="no"?><!DOCTYPE svg PUBLIC "-//W3C//DTD SVG 1.1//EN" "http://www.w3.org/Graphics/SVG/1.1/DTD/svg11.dtd"><svg width="100%" height="100%" viewBox="0 0 1024 512" version="1.1" xmlns="http://www.w3.org/2000/svg" xmlns:xlink="http://www.w3.org/1999/xlink" xml:space="preserve" style="fill-rule:evenodd;clip-rule:evenodd;stroke-linejoin:round;stroke-miterlimit:2;"><title>Swisspeers</title><desc>Swisspeers is an independent online platform that allows businesses to source capital directly from investors without intermediaries such as financial institutions.</desc>    <g transform="matrix(3.34265,0,0,3.34361,-3846.06,-224.501)">        <g transform="matrix(2,0,0,2,1173.88,142.468)">            <path d="M0,0.438c-0.685,-0.642 -1.531,-1.055 -2.513,-1.226l-2.844,-0.433l-0.004,0c-0.92,-0.12 -1.709,-0.322 -2.346,-0.6c-0.584,-0.293 -0.868,-0.716 -0.868,-1.293c0,-0.719 0.275,-1.27 0.843,-1.686c0.618,-0.464 1.49,-0.699 2.591,-0.699c1.017,0 1.824,0.234 2.401,0.695l0.005,0.004c0.616,0.462 0.953,1.021 1.029,1.709l0.021,0.184l2.313,0l-0.007,-0.214c-0.043,-1.331 -0.587,-2.441 -1.621,-3.303c-1.061,-0.849 -2.475,-1.279 -4.203,-1.279c-1.729,0 -3.144,0.452 -4.206,1.344c-1.032,0.86 -1.556,2.014 -1.556,3.43c0,0.989 0.244,1.801 0.723,2.412l0.006,0.007c0.521,0.607 1.16,1.003 1.9,1.177l2.357,0.373l2.283,0.432c0.667,0.118 1.241,0.335 1.708,0.645c0.397,0.29 0.59,0.679 0.59,1.188c0,0.8 -0.315,1.411 -0.962,1.867l-0.006,0.005c-0.659,0.504 -1.614,0.759 -2.837,0.759c-1.142,0 -2.034,-0.235 -2.653,-0.699l-0.005,-0.004c-0.65,-0.458 -0.985,-1.052 -1.023,-1.815l-0.01,-0.197l-2.448,0l0.007,0.214c0.043,1.375 0.63,2.507 1.745,3.365c1.103,0.89 2.599,1.341 4.449,1.341c1.851,0 3.348,-0.452 4.448,-1.34c1.159,-0.901 1.746,-2.077 1.746,-3.496c0,-1.247 -0.354,-2.212 -1.053,-2.867" style="fill-rule:nonzero;"/>        </g>        <g transform="matrix(2,0,0,2,1220.71,141.053)">            <path d="M0,2.222c0,1.418 -0.354,2.511 -1.052,3.25c-0.738,0.736 -1.705,1.11 -2.876,1.11c-1.17,0 -2.116,-0.373 -2.812,-1.108c-0.74,-0.779 -1.116,-1.873 -1.116,-3.252l0,-8.848l-2.389,0l0,8.848c0,1.378 -0.376,2.473 -1.116,3.252c-0.697,0.735 -1.643,1.108 -2.812,1.108c-1.17,0 -2.116,-0.373 -2.812,-1.108c-0.7,-0.739 -1.055,-1.833 -1.055,-3.252l0,-8.848l-2.389,0l0,8.786c0,2.144 0.559,3.812 1.665,4.961c1.146,1.146 2.649,1.727 4.467,1.727c1.226,0 2.321,-0.3 3.255,-0.893c0.89,-0.505 1.561,-1.23 1.997,-2.157c0.466,0.928 1.133,1.653 1.985,2.156c0.975,0.593 2.091,0.894 3.317,0.894c1.818,0 3.321,-0.581 4.47,-1.73c1.103,-1.146 1.663,-2.814 1.663,-4.958l0,-8.786l-2.39,0l0,8.848Z" style="fill-rule:nonzero;"/>        </g>        <g transform="matrix(2,0,0,2,0,-904.74)">            <rect x="615.544" y="516.271" width="2.39" height="15.104"/>        </g>        <g transform="matrix(2,0,0,2,1233.35,123.692)">            <path d="M0,-3.377c-0.467,0 -0.869,0.166 -1.196,0.493c-0.327,0.327 -0.493,0.729 -0.493,1.196c0,0.466 0.166,0.868 0.493,1.196c0.327,0.327 0.73,0.492 1.196,0.492c0.507,0 0.93,-0.165 1.258,-0.492c0.327,-0.328 0.492,-0.73 0.492,-1.196c0,-0.467 -0.165,-0.869 -0.492,-1.196c-0.327,-0.327 -0.751,-0.493 -1.258,-0.493" style="fill-rule:nonzero;"/>        </g>        <g transform="matrix(2,0,0,2,1263.53,142.468)">            <path d="M0,0.438c-0.685,-0.642 -1.531,-1.055 -2.513,-1.226l-2.844,-0.433l-0.004,0c-0.921,-0.121 -1.71,-0.322 -2.346,-0.6c-0.584,-0.293 -0.868,-0.716 -0.868,-1.293c0,-0.719 0.275,-1.27 0.843,-1.686c0.618,-0.464 1.49,-0.699 2.591,-0.699c1.016,0 1.824,0.234 2.401,0.695l0.005,0.004c0.616,0.462 0.953,1.021 1.029,1.709l0.021,0.184l2.313,0l-0.007,-0.214c-0.043,-1.331 -0.588,-2.442 -1.621,-3.303c-1.061,-0.849 -2.475,-1.279 -4.203,-1.279c-1.729,0 -3.144,0.452 -4.206,1.344c-1.032,0.86 -1.556,2.014 -1.556,3.43c0,0.99 0.243,1.801 0.723,2.412l0.006,0.006c0.52,0.608 1.159,1.004 1.9,1.178l2.357,0.373l2.283,0.432c0.667,0.118 1.241,0.335 1.707,0.645c0.398,0.29 0.591,0.679 0.591,1.188c0,0.8 -0.315,1.411 -0.962,1.867l-0.006,0.005c-0.66,0.504 -1.614,0.759 -2.837,0.759c-1.142,0 -2.035,-0.235 -2.653,-0.699l-0.005,-0.004c-0.65,-0.458 -0.985,-1.052 -1.023,-1.815l-0.01,-0.197l-2.448,0l0.007,0.214c0.043,1.375 0.63,2.507 1.745,3.365c1.102,0.89 2.599,1.341 4.449,1.341c1.851,0 3.348,-0.452 4.447,-1.34c1.159,-0.901 1.747,-2.077 1.747,-3.496c0,-1.247 -0.354,-2.212 -1.053,-2.867" style="fill-rule:nonzero;"/>        </g>        <g transform="matrix(2,0,0,2,1291.5,142.468)">            <path d="M0,0.438c-0.685,-0.642 -1.53,-1.055 -2.513,-1.226l-2.844,-0.433l-0.004,0c-0.92,-0.12 -1.71,-0.322 -2.346,-0.6c-0.584,-0.293 -0.868,-0.716 -0.868,-1.293c0,-0.719 0.275,-1.27 0.842,-1.686c0.619,-0.464 1.491,-0.699 2.592,-0.699c1.016,0 1.824,0.234 2.4,0.695l0.005,0.004c0.617,0.462 0.954,1.021 1.03,1.709l0.02,0.184l2.314,0l-0.007,-0.214c-0.043,-1.331 -0.587,-2.442 -1.618,-3.3l-0.003,-0.003c-1.062,-0.849 -2.476,-1.279 -4.203,-1.279c-1.729,0 -3.144,0.452 -4.206,1.344c-1.033,0.86 -1.556,2.014 -1.556,3.43c0,0.989 0.243,1.801 0.723,2.412l0.006,0.006c0.52,0.608 1.159,1.004 1.9,1.178l2.357,0.373l2.283,0.432c0.666,0.118 1.241,0.335 1.707,0.645c0.397,0.29 0.59,0.679 0.59,1.188c0,0.8 -0.314,1.411 -0.961,1.867l-0.006,0.005c-0.66,0.504 -1.614,0.759 -2.837,0.759c-1.142,0 -2.035,-0.235 -2.653,-0.699l-0.005,-0.004c-0.65,-0.458 -0.985,-1.052 -1.023,-1.815l-0.01,-0.197l-2.448,0l0.007,0.214c0.043,1.375 0.63,2.507 1.745,3.365c1.103,0.89 2.599,1.341 4.449,1.341c1.851,0 3.348,-0.452 4.447,-1.34c1.159,-0.901 1.747,-2.077 1.747,-3.496c0,-1.247 -0.355,-2.212 -1.053,-2.867" style="fill-rule:nonzero;"/>        </g>        <g transform="matrix(2,0,0,2,1325.14,165.91)">            <path d="M0,-17.142c-1.515,-1.515 -3.474,-2.283 -5.825,-2.283c-2.349,0 -4.308,0.747 -5.823,2.219l-0.004,0.005c-1.472,1.514 -2.218,3.473 -2.218,5.822l0,13.662l2.389,0l0,-8.792c0.536,0.829 1.26,1.492 2.161,1.976c1.096,0.632 2.376,0.953 3.804,0.953c2.145,0 4,-0.747 5.512,-2.217c1.517,-1.433 2.287,-3.353 2.287,-5.705c0,-2.27 -0.769,-4.168 -2.283,-5.64m-0.169,5.64c0,1.661 -0.539,3.023 -1.603,4.048l-0.005,0.005c-1.024,1.063 -2.386,1.602 -4.048,1.602c-1.661,0 -3.023,-0.539 -4.047,-1.602l-0.005,-0.006c-1.064,-1.024 -1.604,-2.386 -1.604,-4.047c0,-1.622 0.541,-2.985 1.609,-4.054c1.024,-1.063 2.386,-1.602 4.047,-1.602c1.662,0 3.024,0.539 4.051,1.605c1.065,1.066 1.605,2.429 1.605,4.051" style="fill-rule:nonzero;"/>        </g>        <g transform="matrix(2,0,0,2,1360.23,154.184)">            <path d="M0,-11.279c-1.474,-1.515 -3.413,-2.283 -5.763,-2.283c-2.35,0 -4.31,0.768 -5.825,2.283c-1.474,1.473 -2.221,3.371 -2.221,5.64c0,2.269 0.747,4.166 2.221,5.639c1.514,1.515 3.474,2.283 5.825,2.283c1.719,0 3.251,-0.426 4.554,-1.266c1.307,-0.802 2.269,-1.935 2.859,-3.368l0.118,-0.286l-2.592,0l-0.059,0.106c-0.472,0.845 -1.118,1.487 -1.921,1.908c-0.81,0.424 -1.805,0.639 -2.959,0.639c-1.545,0 -2.848,-0.459 -3.873,-1.365c-0.973,-0.9 -1.563,-2.065 -1.757,-3.466l13.676,0l0,-0.824c0,-2.269 -0.768,-4.166 -2.283,-5.64m-11.27,4.321c0.223,-1.261 0.811,-2.3 1.749,-3.087c1.027,-0.83 2.292,-1.25 3.758,-1.25c1.465,0 2.707,0.419 3.693,1.247c0.941,0.791 1.548,1.829 1.808,3.09l-11.008,0Z" style="fill:rgb(183,30,30);fill-rule:nonzero;"/>        </g>        <g transform="matrix(2,0,0,2,1395.89,154.06)">            <path d="M0,-11.278c-1.515,-1.515 -3.475,-2.283 -5.825,-2.283c-2.35,0 -4.289,0.768 -5.763,2.283c-1.515,1.474 -2.283,3.371 -2.283,5.64l0,0.824l13.676,0c-0.194,1.402 -0.784,2.567 -1.757,3.465c-1.025,0.907 -2.328,1.366 -3.873,1.366c-1.154,0 -2.149,-0.215 -2.959,-0.639c-0.803,-0.421 -1.449,-1.063 -1.921,-1.908l-0.059,-0.106l-2.591,0l0.117,0.286c0.59,1.434 1.552,2.567 2.859,3.367c1.302,0.84 2.834,1.266 4.554,1.266c2.35,0 4.31,-0.767 5.825,-2.281c1.474,-1.474 2.221,-3.372 2.221,-5.64c0,-2.269 -0.747,-4.167 -2.221,-5.64m-11.326,4.321c0.26,-1.261 0.867,-2.3 1.808,-3.09c0.986,-0.828 2.228,-1.247 3.693,-1.247c1.467,0 2.731,0.42 3.755,1.247c0.941,0.79 1.529,1.829 1.752,3.09l-11.008,0Z" style="fill:rgb(183,30,30);fill-rule:nonzero;"/>        </g>        <g transform="matrix(2,0,0,2,1425.78,154.684)">            <path d="M0,-12.149c-1.146,-1.103 -2.69,-1.663 -4.588,-1.663c-1.939,0 -3.503,0.56 -4.649,1.663c-1.148,1.106 -1.73,2.713 -1.73,4.778l0,9.034l2.389,0l0,-9.034c0,-1.415 0.352,-2.464 1.047,-3.12l0.004,-0.004c0.697,-0.697 1.685,-1.05 2.939,-1.05c1.251,0 2.218,0.351 2.874,1.045l0.012,0.013c0.733,0.655 1.104,1.704 1.104,3.116l0,0.454l2.39,0l0,-0.392c0,-2.107 -0.604,-3.737 -1.792,-4.84" style="fill-rule:nonzero;"/>        </g>        <g transform="matrix(2,0,0,2,1454.24,142.468)">            <path d="M0,0.438c-0.685,-0.642 -1.531,-1.055 -2.514,-1.226l-2.843,-0.433l-0.005,0c-0.92,-0.121 -1.709,-0.322 -2.345,-0.599c-0.584,-0.294 -0.868,-0.717 -0.868,-1.294c0,-0.719 0.275,-1.27 0.842,-1.686c0.619,-0.464 1.491,-0.699 2.592,-0.699c1.017,0 1.824,0.234 2.4,0.695l0.006,0.004c0.616,0.462 0.953,1.021 1.029,1.709l0.02,0.184l2.314,0l-0.007,-0.214c-0.043,-1.331 -0.588,-2.442 -1.621,-3.303c-1.061,-0.849 -2.475,-1.279 -4.203,-1.279c-1.729,0 -3.144,0.452 -4.206,1.344c-1.032,0.86 -1.556,2.014 -1.556,3.43c0,0.989 0.243,1.801 0.723,2.412l0.006,0.007c0.52,0.607 1.159,1.003 1.9,1.177l2.357,0.373l2.283,0.432c0.666,0.118 1.241,0.335 1.707,0.645c0.398,0.291 0.591,0.679 0.591,1.188c0,0.8 -0.315,1.411 -0.962,1.867l-0.007,0.005c-0.659,0.504 -1.613,0.759 -2.836,0.759c-1.142,0 -2.035,-0.235 -2.653,-0.699l-0.005,-0.004c-0.65,-0.458 -0.985,-1.052 -1.024,-1.815l-0.009,-0.197l-2.448,0l0.007,0.214c0.043,1.374 0.63,2.507 1.745,3.365c1.102,0.89 2.599,1.341 4.449,1.341c1.851,0 3.348,-0.452 4.447,-1.34c1.159,-0.901 1.747,-2.077 1.747,-3.496c0,-1.247 -0.354,-2.212 -1.053,-2.867" style="fill-rule:nonzero;"/>        </g>    </g></svg>