<?xml version="1.0" encoding="UTF-8" standalone="no"?><!DOCTYPE svg PUBLIC "-//W3C//DTD SVG 1.1//EN" "http://www.w3.org/Graphics/SVG/1.1/DTD/svg11.dtd"><svg width="100%" height="100%" viewBox="0 0 1024 512" version="1.1" xmlns="http://www.w3.org/2000/svg" xmlns:xlink="http://www.w3.org/1999/xlink" xml:space="preserve" style="fill-rule:evenodd;clip-rule:evenodd;stroke-linejoin:round;stroke-miterlimit:2;"><title>urbanitae</title><desc>Our platform allows investors to acquire participations in real estate projects previously studied by our team of experts, and manage their investments through its control panel.The platform also allows accredited property developers to offer their projects on our marketplace. Once studied and authorized by our team of analysts, developers will have the facility to develop their real estate projects reliably and quickly with our network of investors.</desc>    <g id="Capa-1" transform="matrix(0.807447,0,0,0.807447,-163.48,-151.923)">        <g transform="matrix(1,0,0,1,484.503,452.893)">            <path d="M0,66.191c0,32.112 17.915,49.588 51.336,49.588c21.19,0 38.448,-5.898 46.966,-12.015c4.151,-2.841 6.117,-6.771 6.117,-12.233l0,-77.768c0,-10.486 -7.863,-18.787 -18.13,-18.787c-10.268,0 -17.913,8.301 -17.913,18.787l0,62.477c-4.368,2.84 -9.831,4.15 -16.166,4.15c-9.612,0 -16.165,-5.462 -16.165,-15.729l0,-50.461c0,-10.704 -8.082,-19.224 -18.569,-19.224c-11.14,0 -17.476,7.865 -17.476,19.224l0,51.991Zm190.052,-69.904c-6.335,-1.748 -13.543,-2.622 -21.844,-2.622c-25.997,0 -40.197,14.636 -40.197,38.884l0,64.88c0,9.83 8.301,18.131 18.132,18.131c10.269,0 18.131,-7.863 18.131,-18.131l0,-57.234c0,-7.427 3.059,-11.141 8.957,-11.141c2.403,0 5.025,0.22 8.301,0.874c3.277,0.656 5.462,0.875 6.116,0.875c10.267,0 16.166,-8.738 16.166,-17.478c0,-8.955 -4.587,-14.635 -13.762,-17.038m134.783,42.379c-2.621,-27.307 -20.096,-45.001 -48.714,-45.001c-8.519,0 -15.947,1.528 -22.5,4.369l0,-22.937c0,-10.267 -8.301,-18.568 -18.132,-18.568c-10.267,0 -17.913,8.082 -17.913,18.568l0,115.56c0,5.242 1.967,9.175 6.117,12.015c13.107,9.393 28.836,13.981 47.404,13.981c15.072,0 27.525,-4.369 37.355,-13.108c9.83,-8.956 15.292,-20.096 16.383,-33.641c0.875,-10.267 0.875,-20.752 0,-31.238m-35.826,24.685c-0.654,11.36 -7.426,17.913 -18.785,17.913c-6.336,0 -12.016,-1.748 -16.603,-5.461l0,-43.254c4.805,-3.058 10.923,-4.587 18.132,-4.587c10.703,0 16.602,5.898 17.256,17.476c0.22,5.243 0.22,11.141 0,17.913m155.318,-23.375c0,-30.802 -17.038,-46.311 -51.336,-46.311c-11.139,0 -21.19,1.749 -29.927,5.242c-8.52,3.278 -12.671,8.738 -12.671,15.947c0,10.706 9.832,17.04 24.466,13.546c7.866,-1.967 13.983,-3.06 18.132,-3.06c12.452,0 17.039,4.588 17.039,12.672l0,7.426c-6.116,-1.966 -13.544,-2.839 -22.499,-2.839c-29.711,0 -43.908,15.291 -43.908,35.606c0,21.845 16.164,38.448 47.622,38.448c19.005,0 34.732,-3.932 46.966,-11.795c4.15,-2.842 6.116,-6.773 6.116,-12.017l0,-52.865Zm-51.553,48.934c-8.957,0 -15.293,-3.932 -15.293,-11.797c0,-6.772 5.244,-11.796 15.075,-11.796c6.115,0 12.014,0.874 17.474,2.621l0,16.166c-4.804,3.276 -10.484,4.806 -17.256,4.806m180.44,-45.656c0,-32.112 -17.476,-49.589 -51.336,-49.589c-19.879,0 -35.608,3.934 -47.186,12.016c-4.149,2.839 -6.117,6.99 -6.117,12.233l0,79.079c0,10.266 8.521,18.567 18.132,18.567c10.269,0 18.132,-8.301 18.132,-18.567l0,-63.788c4.149,-2.841 9.392,-4.151 16.165,-4.151c9.392,0 16.165,5.461 16.165,15.947l0,51.992c0,10.266 8.302,18.567 17.913,18.567c10.485,0 18.132,-8.082 18.132,-18.567l0,-53.739Zm44.127,-57.016c9.829,0 18.348,-8.519 18.348,-18.786c0,-10.268 -8.082,-18.35 -18.348,-18.35c-10.486,0 -18.351,8.082 -18.351,18.35c0,10.267 8.082,18.786 18.351,18.786m0,8.738c-10.486,0 -17.914,8.082 -17.914,18.568l0,83.449c0,10.266 8.302,18.567 17.914,18.567c10.266,0 18.13,-8.301 18.13,-18.567l0,-83.449c0,-10.486 -7.864,-18.568 -18.13,-18.568m116.432,117.089c6.336,-3.058 9.394,-8.082 9.394,-15.072c0,-10.486 -8.52,-17.913 -20.971,-15.074c-5.243,1.31 -8.956,1.966 -11.36,1.966c-8.518,0 -12.669,-4.805 -12.669,-14.636l0,-35.826l24.903,0c8.956,0 16.821,-7.209 16.821,-15.947c0,-9.611 -7.428,-16.602 -16.821,-16.602l-24.903,0l0,-13.326c0,-10.267 -8.301,-18.787 -18.132,-18.787c-10.266,0 -17.913,8.302 -17.913,18.787l0,82.575c0,27.962 14.637,46.966 42.817,46.966c12.452,0 22.063,-1.748 28.834,-5.024m121.022,-72.089c0,-30.802 -17.038,-46.311 -51.336,-46.311c-11.141,0 -21.188,1.749 -29.927,5.242c-8.52,3.278 -12.67,8.738 -12.67,15.947c0,10.706 9.829,17.04 24.466,13.546c7.863,-1.967 13.981,-3.06 18.131,-3.06c12.451,0 17.04,4.588 17.04,12.672l0,7.426c-6.117,-1.966 -13.545,-2.839 -22.5,-2.839c-29.71,0 -43.909,15.291 -43.909,35.606c0,21.845 16.164,38.448 47.623,38.448c19.005,0 34.733,-3.932 46.966,-11.795c4.151,-2.842 6.116,-6.773 6.116,-12.017l0,-52.865Zm-51.554,48.934c-8.956,0 -15.292,-3.932 -15.292,-11.797c0,-6.772 5.242,-11.796 15.073,-11.796c6.117,0 12.015,0.874 17.477,2.621l0,16.166c-4.806,3.276 -10.485,4.806 -17.258,4.806m180.44,-42.816c0,-15.947 -4.806,-28.836 -14.418,-38.229c-9.611,-9.394 -22.063,-14.2 -37.573,-14.2c-14.636,0 -26.87,4.369 -36.699,12.888c-9.612,8.52 -15.074,20.099 -16.385,34.298c-0.873,8.737 -0.873,18.568 0,29.49c1.311,13.327 6.991,24.467 16.822,33.204c10.047,8.52 22.499,12.889 37.354,12.889c15.072,0 27.089,-2.621 35.608,-7.645c6.99,-4.152 10.485,-9.174 10.485,-15.291c0,-5.462 -2.402,-9.83 -6.99,-13.108c-4.587,-3.277 -9.831,-3.494 -16.165,-0.655c-8.083,3.714 -15.291,5.462 -21.627,5.462c-12.233,0 -21.409,-5.681 -21.409,-15.948l0,-1.311l54.832,-0.219c10.704,0 16.165,-6.771 16.165,-16.601l0,-5.024Zm-70.997,-1.529c0,-13.327 6.554,-21.846 19.661,-21.846c12.014,0 19.223,7.865 19.007,19.223c0,1.748 -0.657,2.623 -2.186,2.623l-36.482,0Z" style="fill:rgb(136,175,68);fill-rule:nonzero;"/>        </g>        <g transform="matrix(1,0,0,1,317.754,385.247)">            <path d="M0,239.902c-0.864,-2.177 -3.302,-5.798 -4.568,-7.854c-1.596,-2.597 -3.07,-5.015 -4.608,-7.509c-11.846,-19.216 -5.31,-12.591 -18.419,-17.971c-2.996,-1.23 -5.404,-2.412 -8.255,-3.867c-24.064,-12.279 -45.496,-38.755 -48.85,-72.45c-5.579,-56.034 38.81,-101.669 91.954,-101.676c53.095,-0.007 97.264,45.479 91.991,101.311c-3.17,33.552 -24.789,60.625 -48.624,72.682c-9.935,5.025 -9.396,3.829 -17.2,7.049c-1.891,0.779 -12.276,19.079 -14.195,22.189c-1.313,2.127 -3.831,5.863 -4.719,8.096c24.309,-1.098 46.842,-10.396 64.858,-23.843l8.156,-6.71c6.532,-5.287 15.865,-16.884 20.389,-23.837c51.342,-78.903 -4.661,-185.498 -100.656,-185.506c-65.36,-0.006 -118.084,52.114 -120.009,116.156c-0.759,25.165 6.158,49.213 19.199,69.114c4.392,6.701 8.359,11.458 12.966,16.786l11.348,10.557c1.497,1.284 2.67,2.155 4.164,3.271c18.156,13.551 40.566,22.909 65.078,24.012" style="fill:rgb(136,175,68);"/>        </g>        <g transform="matrix(1,0,0,1,319.029,551.516)">            <path d="M0,-112.143c-9.55,0.917 -18.529,3.632 -25.708,7.658c-23.891,13.394 -37.795,37.854 -35.137,65.722c1.535,16.084 8.957,30.954 20.341,41.945c9.58,-10.047 20.276,-17.046 31.676,-20.26c-9.253,-4.908 -15.667,-14.217 -16.812,-24.477c-2.111,-18.936 11.659,-33.331 28.068,-35.327c18.503,-2.252 33.418,11.905 35.179,27.991c1.575,14.38 -6.209,26.371 -17.288,31.997c11.37,3.352 22.03,10.467 31.565,20.617c14.253,-13.295 22.909,-32.836 20.983,-54.999c-3.021,-34.717 -34.026,-64.59 -72.867,-60.867" style="fill:rgb(136,175,68);"/>        </g>    </g></svg>