<?xml version="1.0" encoding="UTF-8" standalone="no"?><!DOCTYPE svg PUBLIC "-//W3C//DTD SVG 1.1//EN" "http://www.w3.org/Graphics/SVG/1.1/DTD/svg11.dtd"><svg width="100%" height="100%" viewBox="0 0 1024 512" version="1.1" xmlns="http://www.w3.org/2000/svg" xmlns:xlink="http://www.w3.org/1999/xlink" xml:space="preserve" style="fill-rule:evenodd;clip-rule:evenodd;stroke-linejoin:round;stroke-miterlimit:2;"><title>Wallrise</title><desc>Wallrise.com is an online marketplace that connects real estate developers seeking funds for their projects with investors who are looking for new investment opportunities.The platform operates in main metropolitan markets, providing investors with the opportunity to invest directly in real estate developments without financial intermediaries and unnecessary costs.</desc>    <g transform="matrix(2.54514,0,0,2.54514,2,144.216)">        <g transform="matrix(1,0,0,1,0,0.59232)">            <path d="M44.626,0l-44.626,43.436l0,43.22l44.082,0l0,-43.22l43.115,43.116l0,-43.116l-42.571,-43.436Z" style="fill:rgb(36,110,175);"/>        </g>        <g transform="matrix(2.91017,0,0,1.3662,-245.081,30.7752)">            <g transform="matrix(22.5339,0,0,48,125.707,42.7762)">                <path d="M0.196,-0.042l0.078,0l0.154,-0.537l0.002,0l0.15,0.537l0.077,0l0.167,-0.671l-0.072,0l-0.132,0.547l-0.001,0l-0.156,-0.547l-0.064,0l-0.157,0.547l-0.003,0l-0.132,-0.547l-0.079,0l0.168,0.671Z" style="fill:rgb(15,48,73);fill-rule:nonzero;"/>            </g>            <g transform="matrix(22.5339,0,0,48,144.32,42.7762)">                <path d="M0.019,-0.042l0.076,0l0.069,-0.196l0.269,0l0.071,0.196l0.083,0l-0.245,-0.671l-0.077,0l-0.246,0.671Zm0.278,-0.565l0.002,0l0.109,0.302l-0.221,0l0.11,-0.302Z" style="fill:rgb(15,48,73);fill-rule:nonzero;"/>            </g>            <g transform="matrix(22.5339,0,0,48,157.953,42.7762)">                <path d="M0.086,-0.042l0.383,0l0,-0.067l-0.303,0l0,-0.604l-0.08,0l0,0.671Z" style="fill:rgb(15,48,73);fill-rule:nonzero;"/>            </g>            <g transform="matrix(22.5339,0,0,48,169.333,42.7762)">                <path d="M0.086,-0.042l0.383,0l0,-0.067l-0.303,0l0,-0.604l-0.08,0l0,0.671Z" style="fill:rgb(15,48,73);fill-rule:nonzero;"/>            </g>            <g transform="matrix(22.5339,0,0,48,180.712,42.7762)">                <path d="M0.086,-0.042l0.079,0l0,-0.288l0.128,0l0.167,0.288l0.09,0l-0.178,-0.302l0,-0.005c0.083,-0.026 0.131,-0.08 0.131,-0.176c0,-0.121 -0.074,-0.188 -0.222,-0.188l-0.195,0l0,0.671Zm0.079,-0.35l0,-0.254l0.11,0c0.103,0 0.144,0.039 0.144,0.122c0,0.087 -0.038,0.132 -0.143,0.132l-0.111,0Z" style="fill:rgb(15,48,73);fill-rule:nonzero;"/>            </g>            <g transform="matrix(22.5339,0,0,48,193.737,42.7762)">                <rect x="0.09" y="-0.713" width="0.079" height="0.671" style="fill:rgb(15,48,73);fill-rule:nonzero;"/>            </g>            <g transform="matrix(22.5339,0,0,48,199.573,42.7762)">                <path d="M0.23,-0.03c0.157,0 0.225,-0.078 0.225,-0.195c0,-0.113 -0.063,-0.155 -0.162,-0.189l-0.066,-0.021c-0.076,-0.026 -0.1,-0.054 -0.1,-0.118c0,-0.064 0.046,-0.104 0.128,-0.104c0.074,0 0.127,0.019 0.166,0.037l0,-0.067c-0.037,-0.018 -0.084,-0.037 -0.163,-0.037c-0.14,0 -0.209,0.074 -0.209,0.178c0,0.102 0.053,0.15 0.147,0.181l0.065,0.023c0.081,0.026 0.114,0.054 0.114,0.123c0,0.073 -0.045,0.121 -0.148,0.121c-0.071,0 -0.137,-0.018 -0.188,-0.044l0,0.067c0.045,0.025 0.109,0.045 0.191,0.045Z" style="fill:rgb(15,48,73);fill-rule:nonzero;"/>            </g>            <g transform="matrix(22.5339,0,0,48,210.93,42.7762)">                <path d="M0.087,-0.042l0.401,0l0,-0.067l-0.322,0l0,-0.245l0.246,0l0,-0.067l-0.246,0l0,-0.225l0.319,0l0,-0.067l-0.398,0l0,0.671Z" style="fill:rgb(15,48,73);fill-rule:nonzero;"/>            </g>        </g>    </g></svg>