<?xml version="1.0" encoding="UTF-8" standalone="no"?><!DOCTYPE svg PUBLIC "-//W3C//DTD SVG 1.1//EN" "http://www.w3.org/Graphics/SVG/1.1/DTD/svg11.dtd"><svg width="100%" height="100%" viewBox="0 0 1024 512" version="1.1" xmlns="http://www.w3.org/2000/svg" xmlns:xlink="http://www.w3.org/1999/xlink" xml:space="preserve" style="fill-rule:evenodd;clip-rule:evenodd;stroke-linejoin:round;stroke-miterlimit:2;"><title>InvoiceMarket</title><desc>Invoice Market is Russia's first online auction of receivables. Now, entrepreneurs working with receivables will be able to sell it quickly and profitably and receive money for business development. Invoice Market is an electronic trading platform for attracting financing to a business. Suppliers get the opportunity to auction invoices for which payment from buyers has not yet passed. These invoices are funded by investors who make online offers.</desc>    <g transform="matrix(0.600543,0,0,0.600543,-96.7765,196.039)">        <g>            <g transform="matrix(1.6764,0,0,1.6764,146.314,-329.312)">                <path d="M90.354,226.358c5.154,-8.927 2.091,-20.359 -6.836,-25.513c-8.927,-5.154 -20.359,-2.091 -25.513,6.836l-44.667,77.365c-5.154,8.927 -2.09,20.359 6.837,25.513c8.927,5.154 20.359,2.091 25.513,-6.836l44.666,-77.365Z" style="fill:rgb(255,192,20);"/>            </g>            <g transform="matrix(1.03157,0.595577,-0.55967,0.969377,-6.30318,-272.933)">                <path d="M462.653,49.044c0,-15.438 -11.778,-27.972 -26.286,-27.972c-14.507,0 -26.285,12.534 -26.285,27.972l0,133.791c0,15.438 11.778,27.971 26.285,27.971c14.508,0 26.286,-12.533 26.286,-27.971l0,-133.791Z" style="fill:rgb(255,192,20);"/>            </g>            <g transform="matrix(1.03157,0.595577,-0.55967,0.969377,141.261,-272.933)">                <path d="M462.653,49.044c0,-15.438 -11.778,-27.972 -26.286,-27.972c-14.507,0 -26.285,12.534 -26.285,27.972l0,133.791c0,15.438 11.778,27.971 26.285,27.971c14.508,0 26.286,-12.533 26.286,-27.971l0,-133.791Z" style="fill:rgb(255,192,20);"/>            </g>            <path d="M599.763,43.061l61.475,106.477c8.64,14.965 3.505,34.129 -11.461,42.77c-14.965,8.64 -34.129,3.505 -42.769,-11.461l-42.521,-73.648l31.347,-54.296c1.822,-3.154 3.122,-6.468 3.929,-9.842Z" style="fill:rgb(88,88,90);"/>            <path d="M485.716,96.41l-28.508,49.378c-3.27,5.663 -4.861,11.838 -4.929,17.946l-32.641,-56.535l31.348,-54.296c1.821,-3.154 3.122,-6.468 3.929,-9.842l30.801,53.349Z" style="fill:rgb(88,88,90);"/>        </g>        <g transform="matrix(1.80007,0,0,1.80007,-886.655,-247.048)">            <g transform="matrix(72,0,0,72,889.211,244.655)">                <rect x="0.091" y="-0.7" width="0.154" height="0.7" style="fill:rgb(253,195,10);fill-rule:nonzero;"/>            </g>            <g transform="matrix(72,0,0,72,913.403,244.655)">                <path d="M0.706,0l0,-0.7l-0.152,0l0,0.431l-0.328,-0.431l-0.142,0l0,0.7l0.152,0l0,-0.445l0.339,0.445l0.131,0Z" style="fill:rgb(253,195,10);fill-rule:nonzero;"/>            </g>            <g transform="matrix(72,0,0,72,970.283,244.655)">                <path d="M0.726,-0.7l-0.166,0l-0.183,0.493l-0.183,-0.493l-0.17,0l0.283,0.705l0.136,0l0.283,-0.705Z" style="fill:rgb(253,195,10);fill-rule:nonzero;"/>            </g>            <g transform="matrix(72,0,0,72,1024.28,244.655)">                <path d="M0.797,-0.35l0,-0.002c0,-0.05 -0.009,-0.097 -0.028,-0.14c-0.018,-0.044 -0.044,-0.082 -0.077,-0.114c-0.033,-0.033 -0.072,-0.058 -0.117,-0.077c-0.045,-0.019 -0.095,-0.029 -0.149,-0.029c-0.054,0 -0.104,0.01 -0.15,0.029c-0.045,0.019 -0.085,0.044 -0.118,0.078c-0.033,0.032 -0.058,0.071 -0.077,0.115c-0.019,0.043 -0.028,0.09 -0.028,0.14l0,0.002c0,0.05 0.009,0.097 0.027,0.141c0.019,0.043 0.044,0.081 0.077,0.114c0.033,0.032 0.073,0.058 0.118,0.077c0.045,0.019 0.095,0.028 0.149,0.028c0.054,0 0.104,-0.009 0.149,-0.028c0.046,-0.019 0.085,-0.045 0.118,-0.078c0.033,-0.033 0.059,-0.072 0.078,-0.115c0.019,-0.044 0.028,-0.091 0.028,-0.141Zm-0.161,0.002c0,0.03 -0.005,0.058 -0.015,0.085c-0.011,0.026 -0.025,0.049 -0.043,0.069c-0.019,0.02 -0.041,0.036 -0.067,0.047c-0.026,0.011 -0.054,0.017 -0.085,0.017c-0.031,0 -0.06,-0.006 -0.085,-0.017c-0.026,-0.012 -0.048,-0.028 -0.067,-0.048c-0.019,-0.02 -0.034,-0.043 -0.044,-0.07c-0.011,-0.027 -0.016,-0.055 -0.016,-0.085l0,-0.002c0,-0.03 0.005,-0.058 0.016,-0.084c0.01,-0.027 0.024,-0.05 0.043,-0.07c0.018,-0.02 0.04,-0.036 0.066,-0.047c0.025,-0.011 0.054,-0.017 0.085,-0.017c0.031,0 0.059,0.006 0.085,0.018c0.026,0.011 0.049,0.027 0.068,0.047c0.019,0.02 0.033,0.043 0.044,0.07c0.01,0.027 0.015,0.055 0.015,0.085l0,0.002Z" style="fill:rgb(253,195,10);fill-rule:nonzero;"/>            </g>            <g transform="matrix(72,0,0,72,1085.48,244.655)">                <rect x="0.091" y="-0.7" width="0.154" height="0.7" style="fill:rgb(253,195,10);fill-rule:nonzero;"/>            </g>            <g transform="matrix(72,0,0,72,1109.68,244.655)">                <path d="M0.699,-0.113l-0.098,-0.099c-0.027,0.025 -0.055,0.045 -0.083,0.06c-0.027,0.015 -0.061,0.022 -0.101,0.022c-0.03,0 -0.058,-0.006 -0.083,-0.017c-0.025,-0.012 -0.046,-0.028 -0.064,-0.048c-0.017,-0.02 -0.031,-0.043 -0.041,-0.07c-0.01,-0.027 -0.015,-0.055 -0.015,-0.085l0,-0.002c0,-0.03 0.005,-0.058 0.015,-0.084c0.01,-0.027 0.024,-0.05 0.042,-0.07c0.018,-0.02 0.039,-0.036 0.064,-0.047c0.025,-0.011 0.053,-0.017 0.082,-0.017c0.035,0 0.067,0.007 0.095,0.021c0.029,0.014 0.057,0.033 0.084,0.058l0.098,-0.113c-0.016,-0.016 -0.033,-0.031 -0.052,-0.044c-0.019,-0.013 -0.039,-0.025 -0.061,-0.034c-0.022,-0.009 -0.046,-0.017 -0.073,-0.022c-0.028,-0.005 -0.057,-0.008 -0.09,-0.008c-0.054,0 -0.103,0.01 -0.148,0.029c-0.045,0.019 -0.083,0.045 -0.115,0.078c-0.032,0.033 -0.057,0.071 -0.075,0.115c-0.018,0.043 -0.027,0.09 -0.027,0.14l0,0.002c0,0.05 0.009,0.097 0.027,0.141c0.018,0.044 0.043,0.082 0.075,0.115c0.032,0.032 0.07,0.057 0.114,0.076c0.044,0.019 0.092,0.028 0.143,0.028c0.034,0 0.065,-0.003 0.092,-0.008c0.027,-0.006 0.053,-0.014 0.076,-0.025c0.023,-0.011 0.044,-0.025 0.063,-0.04c0.019,-0.015 0.038,-0.033 0.056,-0.052Z" style="fill:rgb(253,195,10);fill-rule:nonzero;"/>            </g>            <g transform="matrix(72,0,0,72,1162.81,244.655)">                <path d="M0.617,0l0,-0.137l-0.38,0l0,-0.147l0.33,0l0,-0.137l-0.33,0l0,-0.142l0.375,0l0,-0.137l-0.528,0l0,0.7l0.533,0Z" style="fill:rgb(253,195,10);fill-rule:nonzero;"/>            </g>            <g transform="matrix(72,0,0,72,1211.05,244.655)">                <path d="M0.784,0l0,-0.7l-0.166,0l-0.184,0.296l-0.184,-0.296l-0.166,0l0,0.7l0.151,0l0,-0.454l0.195,0.296l0.004,0l0.197,-0.299l0,0.457l0.153,0Z" style="fill:rgb(89,88,91);fill-rule:nonzero;"/>            </g>            <g transform="matrix(72,0,0,72,1273.55,244.655)">                <path d="M0.766,0l-0.3,-0.705l-0.142,0l-0.3,0.705l0.157,0l0.064,-0.157l0.296,0l0.064,0.157l0.161,0Zm-0.28,-0.293l-0.186,0l0.093,-0.227l0.093,0.227Z" style="fill:rgb(89,88,91);fill-rule:nonzero;"/>            </g>            <g transform="matrix(72,0,0,72,1330.43,244.655)">                <path d="M0.689,0l-0.171,-0.25c0.045,-0.017 0.081,-0.043 0.109,-0.079c0.027,-0.035 0.041,-0.081 0.041,-0.138l0,-0.002c0,-0.073 -0.023,-0.129 -0.07,-0.17c-0.046,-0.041 -0.111,-0.061 -0.194,-0.061l-0.32,0l0,0.7l0.154,0l0,-0.224l0.121,0l0.15,0.224l0.18,0Zm-0.177,-0.459c0,0.03 -0.01,0.054 -0.031,0.072c-0.02,0.018 -0.049,0.027 -0.087,0.027l-0.156,0l0,-0.201l0.153,0c0.038,0 0.068,0.008 0.089,0.025c0.021,0.017 0.032,0.042 0.032,0.075l0,0.002Z" style="fill:rgb(89,88,91);fill-rule:nonzero;"/>            </g>            <g transform="matrix(72,0,0,72,1382.48,244.655)">                <path d="M0.721,0l-0.298,-0.403l0.285,-0.297l-0.186,0l-0.284,0.306l0,-0.306l-0.154,0l0,0.7l0.154,0l0,-0.214l0.081,-0.084l0.217,0.298l0.185,0Z" style="fill:rgb(89,88,91);fill-rule:nonzero;"/>            </g>            <g transform="matrix(72,0,0,72,1435.04,244.655)">                <path d="M0.617,0l0,-0.137l-0.38,0l0,-0.147l0.33,0l0,-0.137l-0.33,0l0,-0.142l0.375,0l0,-0.137l-0.528,0l0,0.7l0.533,0Z" style="fill:rgb(89,88,91);fill-rule:nonzero;"/>            </g>            <g transform="matrix(72,0,0,72,1483.28,244.655)">                <path d="M0.614,-0.558l0,-0.142l-0.58,0l0,0.142l0.213,0l0,0.558l0.154,0l0,-0.558l0.213,0Z" style="fill:rgb(89,88,91);fill-rule:nonzero;"/>            </g>        </g>    </g></svg>