<?xml version="1.0" encoding="UTF-8" standalone="no"?><!DOCTYPE svg PUBLIC "-//W3C//DTD SVG 1.1//EN" "http://www.w3.org/Graphics/SVG/1.1/DTD/svg11.dtd"><svg width="100%" height="100%" viewBox="0 0 1024 512" version="1.1" xmlns="http://www.w3.org/2000/svg" xmlns:xlink="http://www.w3.org/1999/xlink" xml:space="preserve" style="fill-rule:evenodd;clip-rule:evenodd;stroke-linejoin:round;stroke-miterlimit:2;"><title>Kokos</title><desc>The Blue Services company is part of the Blue Media group, providing solutions for handling electronic transactions and supporting online sales, especially for the banking industry. We automate payments, design and implement extensive online banking services, and create dedicated solutions to improve the sale of banking products.</desc>    <g transform="matrix(1.67987,0,0,1.67987,-142.469,-8.76848)">        <path d="M88.5,226.5l-2.5,-2.4l0,-66.4c0,-64 0.1,-66.6 1.9,-68.8c2.8,-3.4 10.4,-3.4 13.2,0c1.8,2.2 1.9,4.3 1.9,29.5l0.1,27.1l28.7,-29.1c18.7,-19 29.6,-29.4 31.4,-29.8c3.5,-0.8 7.3,0.7 9.3,3.8c3.6,5.5 2.9,6.5 -27.9,38.1l-28.9,29.6l29.1,29.3c27.5,27.5 29.2,29.4 29.2,32.8c0,2.8 -0.7,4.2 -3.1,6.2c-3.3,2.8 -5.8,3.2 -9.2,1.5c-1.2,-0.6 -14.9,-13.8 -30.4,-29.2l-28.3,-28.2l0,54.4l-2.6,2c-3.7,2.9 -8.9,2.7 -11.9,-0.4Z" style="fill:rgb(43,128,25);fill-rule:nonzero;"/>        <path d="M338.2,228.3c-0.7,-0.3 -1.9,-1.8 -2.7,-3.3c-1.3,-2.5 -1.5,-12.4 -1.5,-66.8c0,-42.6 0.4,-64.9 1.1,-67c1.9,-5.5 10.3,-6.7 14.5,-2c1.7,1.8 1.9,4.4 2.2,28.6l0.3,26.6l28.7,-28.7c31.6,-31.6 32.3,-32 38,-27.2c2.6,2.2 3.2,3.4 3.2,6.8c0,4.1 -0.4,4.5 -29.2,33.4l-29.3,29.3l29.3,29.3c28,28 29.2,29.4 29.2,33c0,6.5 -6.5,10.6 -12.1,7.6c-1.2,-0.6 -14.6,-13.7 -29.9,-29.2l-27.9,-28.2l-0.1,25.1c0,27 -0.6,30.9 -4.7,32.5c-2.6,1 -7,1.1 -9.1,0.2Z" style="fill:rgb(43,128,25);fill-rule:nonzero;"/>        <path d="M569,227c-2.6,-2.6 -2.8,-10 -0.2,-12.3c0.9,-0.8 4.8,-2.6 8.6,-3.8c9.9,-3.3 19.9,-10.7 26.2,-19.6c7,-9.8 9.3,-16.9 10.5,-32.7c1.5,-21 5.3,-31.6 15.8,-44.9c9.6,-12 22.6,-20.6 36.9,-24.2c5.7,-1.5 6.6,-1.5 8.6,-0.1c2.6,1.6 3.7,5.6 2.9,9.9c-0.6,3 -5.3,6.7 -8.4,6.7c-2.8,0 -15.2,6.8 -20.1,11c-6.1,5.3 -13.1,15.8 -15.8,23.9c-1.5,4.4 -2.4,10.7 -3,20c-1.2,18.8 -4.1,27.3 -13.5,40.6c-8.3,11.7 -20.6,20.9 -33.7,25c-9.6,3 -12.2,3.1 -14.8,0.5Z" style="fill:rgb(43,128,25);fill-rule:nonzero;"/>        <path d="M677.2,226.5c-7.7,-6.5 -3.3,-17.5 6.8,-17.5c2.1,0 4.1,0.9 6.1,2.9c8.9,9 -3.3,22.7 -12.9,14.6Z" style="fill:rgb(43,128,25);fill-rule:nonzero;"/>        <path d="M232.2,228c-14,-2.6 -26.8,-9.4 -37.2,-19.9c-10.3,-10.5 -17.1,-22.9 -19.4,-35.3c-0.9,-5 1.8,-7.8 7.5,-7.8c6.1,0 7.5,1.2 9.8,8.8c5.1,17 21.1,32.1 38.6,36.7c7.6,1.9 20.4,1.9 28,0c8.6,-2.3 15,-6.1 23.2,-13.9c23.5,-22.2 22.7,-58 -1.6,-79.7c-9.4,-8.4 -23.6,-13.9 -36.1,-13.9c-22.4,0 -45,16.7 -51.5,37.9c-2.7,9.1 -7.8,12.2 -14.9,9c-3.3,-1.5 -3.8,-4.3 -2,-11.4c4.8,-18.9 19.2,-36.1 37.7,-44.9c11.1,-5.4 19,-6.9 33.7,-6.4c10.7,0.4 13.8,0.9 21.1,3.5c35.2,12.3 54.6,49.1 45.3,85.8c-5.9,23.1 -26.4,43.6 -50,50c-7.1,2 -24.9,2.8 -32.2,1.5Z" style="fill:rgb(145,191,40);fill-rule:nonzero;"/>        <path d="M480.8,228c-17,-3.1 -33.1,-12.7 -43.2,-25.9c-7.4,-9.7 -13.6,-23.8 -13.6,-31.2c0,-4.6 1.9,-5.9 8.3,-5.9c5.2,0 6.8,1.5 8.6,8c4.4,15.4 17.1,29 33.3,35.7c7.6,3.1 22.1,4.2 31.1,2.3c19.6,-4 37.5,-22 41.6,-41.8c3.8,-18.6 -1.3,-35.6 -15,-49.4c-12.1,-12.3 -26.8,-17.9 -43.1,-16.4c-22.6,2.1 -39.6,16.4 -48.2,40.7c-1.3,3.5 -2.5,5 -4.6,5.9c-3.2,1.3 -8.4,0.8 -10.7,-1.1c-1.7,-1.5 -1.7,-6.3 0.3,-13c5.8,-19.7 23.4,-37.8 43.9,-45.2c6.8,-2.5 9.9,-3 21,-3.4c9.9,-0.4 14.7,-0.1 20,1.1c22.7,5.3 43.5,24.4 50.9,46.6c12.5,37.7 -8.3,78.6 -45.9,90.6c-8.8,2.8 -26,4 -34.7,2.4Z" style="fill:rgb(145,191,40);fill-rule:nonzero;"/>    </g></svg>