<?xml version="1.0" encoding="UTF-8" standalone="no"?><!DOCTYPE svg PUBLIC "-//W3C//DTD SVG 1.1//EN" "http://www.w3.org/Graphics/SVG/1.1/DTD/svg11.dtd"><svg width="100%" height="100%" viewBox="0 0 1024 512" version="1.1" xmlns="http://www.w3.org/2000/svg" xmlns:xlink="http://www.w3.org/1999/xlink" xml:space="preserve" style="fill-rule:evenodd;clip-rule:evenodd;stroke-linejoin:round;stroke-miterlimit:2;"><title>Faktorama</title><desc>Faktorama is a company founded in April 2013. We provide services as a financial broker - helping small and medium companies obtain funding secured with future cashflows (i.e. invoices) by creating virtual marketplace. We match sme companies with enterpreneurships or investors who are looking for alternate investment opportunities. </desc>    <g transform="matrix(0.912506,0,0,0.912506,-73.5736,-73.6155)">        <g transform="matrix(1.45353,0,0,1.08561,-143.489,-226.082)">            <g transform="matrix(107.551,0,0,144,367.396,578.98)">                <path d="M0.181,0l0,-0.259l0.351,0l0,-0.122l-0.351,0l0,-0.191l0.371,0l0,-0.127l-0.503,0l0,0.699l0.132,0Z" style="fill:rgb(33,42,59);fill-rule:nonzero;"/>            </g>            <g transform="matrix(107.551,0,0,144,431.281,578.98)">                <path d="M0.427,-0.425c-0.028,-0.049 -0.091,-0.08 -0.157,-0.08c-0.144,-0.001 -0.257,0.088 -0.257,0.258c0,0.173 0.108,0.263 0.254,0.262c0.055,-0.001 0.132,-0.029 0.16,-0.087l0.006,0.072l0.115,0l0,-0.493l-0.117,0l-0.004,0.068Zm-0.146,0.029c0.192,0 0.192,0.299 0,0.299c-0.081,0 -0.146,-0.056 -0.146,-0.15c0,-0.094 0.065,-0.149 0.146,-0.149Z" style="fill:rgb(33,42,59);fill-rule:nonzero;"/>            </g>            <g transform="matrix(107.551,0,0,144,496.994,578.98)">                <path d="M0.037,-0.699l0,0.699l0.122,0l0,-0.223l0.193,0.223l0.147,0l0,-0.009l-0.229,-0.252l0.201,-0.225l0,-0.007l-0.146,0l-0.166,0.198l0,-0.404l-0.122,0Z" style="fill:rgb(33,42,59);fill-rule:nonzero;"/>            </g>            <g transform="matrix(107.551,0,0,144,552.383,578.98)">                <path d="M0.09,-0.619l0,0.127l-0.092,0l0,0.105l0.092,0l0,0.213c0,0.123 0.07,0.184 0.177,0.18c0.037,-0.001 0.066,-0.007 0.101,-0.021l-0.034,-0.104c-0.018,0.009 -0.04,0.015 -0.059,0.015c-0.038,0 -0.064,-0.023 -0.064,-0.07l0,-0.213l0.137,0l0,-0.105l-0.136,0l0,-0.14l-0.122,0.013Z" style="fill:rgb(33,42,59);fill-rule:nonzero;"/>            </g>            <g transform="matrix(107.551,0,0,144,595.295,578.98)">                <path d="M0.272,-0.503c-0.157,0 -0.255,0.116 -0.255,0.257c0,0.142 0.096,0.257 0.256,0.257c0.16,0 0.257,-0.115 0.257,-0.257c0,-0.141 -0.101,-0.257 -0.258,-0.257Zm0.001,0.111c0.082,0 0.134,0.072 0.134,0.146c0,0.075 -0.045,0.145 -0.134,0.145c-0.089,0 -0.134,-0.07 -0.134,-0.145c0,-0.074 0.046,-0.146 0.134,-0.146Z" style="fill:rgb(33,42,59);fill-rule:nonzero;"/>            </g>            <g transform="matrix(107.551,0,0,144,657.029,578.98)">                <path d="M0.04,-0.493l0,0.493l0.122,0l0,-0.26c0,-0.091 0.059,-0.125 0.123,-0.125c0.04,0 0.063,0.011 0.088,0.032l0.055,-0.106c-0.027,-0.027 -0.076,-0.047 -0.127,-0.047c-0.05,0 -0.101,0.009 -0.139,0.07l-0.009,-0.057l-0.113,0Z" style="fill:rgb(33,42,59);fill-rule:nonzero;"/>            </g>            <g transform="matrix(107.551,0,0,144,703.706,578.98)">                <path d="M0.427,-0.425c-0.028,-0.049 -0.091,-0.08 -0.157,-0.08c-0.144,-0.001 -0.257,0.088 -0.257,0.258c0,0.173 0.108,0.263 0.254,0.262c0.055,-0.001 0.132,-0.029 0.16,-0.087l0.006,0.072l0.115,0l0,-0.493l-0.117,0l-0.004,0.068Zm-0.146,0.029c0.192,0 0.192,0.299 0,0.299c-0.081,0 -0.146,-0.056 -0.146,-0.15c0,-0.094 0.065,-0.149 0.146,-0.149Z" style="fill:rgb(33,42,59);fill-rule:nonzero;"/>            </g>            <g transform="matrix(107.551,0,0,144,769.42,578.98)">                <path d="M0.49,0l0,-0.264c0,-0.065 0.041,-0.122 0.107,-0.122c0.066,0 0.093,0.055 0.093,0.12l0,0.266l0.122,0l0,-0.266c0,-0.148 -0.069,-0.234 -0.209,-0.234c-0.064,0 -0.121,0.02 -0.165,0.09c-0.028,-0.068 -0.087,-0.092 -0.146,-0.092c-0.047,0 -0.104,0.018 -0.13,0.068l-0.009,-0.06l-0.113,0l0,0.494l0.122,0l0,-0.264c0,-0.065 0.039,-0.124 0.105,-0.124c0.067,0 0.101,0.059 0.101,0.124l0,0.264l0.122,0Z" style="fill:rgb(33,42,59);fill-rule:nonzero;"/>            </g>            <g transform="matrix(107.551,0,0,144,865.785,578.98)">                <path d="M0.427,-0.425c-0.028,-0.049 -0.091,-0.08 -0.157,-0.08c-0.144,-0.001 -0.257,0.088 -0.257,0.258c0,0.173 0.108,0.263 0.254,0.262c0.055,-0.001 0.132,-0.029 0.16,-0.087l0.006,0.072l0.115,0l0,-0.493l-0.117,0l-0.004,0.068Zm-0.146,0.029c0.192,0 0.192,0.299 0,0.299c-0.081,0 -0.146,-0.056 -0.146,-0.15c0,-0.094 0.065,-0.149 0.146,-0.149Z" style="fill:rgb(33,42,59);fill-rule:nonzero;"/>            </g>        </g>        <g>            <g transform="matrix(1,0,0,1,0.202189,1.17835)">                <path d="M116.219,281.501c-8.26,14.761 -12.945,31.63 -12.945,49.541c0,57.945 49.044,104.988 109.453,104.988c60.408,0 109.453,-47.043 109.453,-104.988c0,-9.213 -1.24,-18.151 -3.57,-26.672c10.393,17.759 16.331,38.29 16.331,60.155c0,67.462 -56.531,122.233 -126.161,122.233c-69.631,0 -126.162,-54.771 -126.162,-122.233c0,-32.038 12.749,-61.214 33.601,-83.024Z" style="fill:url(#_Linear1);"/>            </g>            <g transform="matrix(1,0,0,1,-1.08704,2.10668)">                <path d="M299.032,354.031c-12.214,36.475 -46.497,62.771 -86.834,62.771c-50.56,0 -91.608,-41.314 -91.608,-92.202c0,-50.888 41.048,-92.203 91.608,-92.203c9.784,0 19.211,1.547 28.058,4.413c-2.687,-0.274 -5.407,-0.413 -8.16,-0.413c-43.355,0 -78.554,34.602 -78.554,77.221c0,42.619 35.199,77.221 78.554,77.221c28.29,0 53.106,-14.732 66.936,-36.808Z" style="fill:url(#_Linear2);"/>            </g>            <g transform="matrix(1,0,0,1,-0.673965,-0.445686)">                <path d="M224.896,374.029c-28.267,-7.163 -49.234,-33.103 -49.234,-63.968c0,-36.389 29.143,-65.933 65.04,-65.933c31.204,0 57.306,22.326 63.595,52.064c-10.118,-16.782 -28.818,-28.053 -50.196,-28.053c-32.117,0 -58.192,25.442 -58.192,56.779c0,20.955 11.66,39.274 28.987,49.111Z" style="fill:url(#_Linear3);"/>            </g>        </g>    </g>    <defs>        <linearGradient id="_Linear1" x1="0" y1="0" x2="1" y2="0" gradientUnits="userSpaceOnUse" gradientTransform="matrix(-85.7044,164.508,-164.508,-85.7044,278.254,317.088)"><stop offset="0" style="stop-color:rgb(171,16,4);stop-opacity:1"/><stop offset="1" style="stop-color:rgb(243,41,21);stop-opacity:1"/></linearGradient>        <linearGradient id="_Linear2" x1="0" y1="0" x2="1" y2="0" gradientUnits="userSpaceOnUse" gradientTransform="matrix(-119.807,101.382,-101.382,-119.807,264.066,275.698)"><stop offset="0" style="stop-color:rgb(163,17,0);stop-opacity:1"/><stop offset="1" style="stop-color:rgb(238,38,14);stop-opacity:1"/></linearGradient>        <linearGradient id="_Linear3" x1="0" y1="0" x2="1" y2="0" gradientUnits="userSpaceOnUse" gradientTransform="matrix(-78.9495,96.9792,-96.9792,-78.9495,273.43,255.481)"><stop offset="0" style="stop-color:rgb(152,9,4);stop-opacity:1"/><stop offset="1" style="stop-color:rgb(205,35,17);stop-opacity:1"/></linearGradient>    </defs></svg>