<?xml version="1.0" encoding="UTF-8" standalone="no"?><!DOCTYPE svg PUBLIC "-//W3C//DTD SVG 1.1//EN" "http://www.w3.org/Graphics/SVG/1.1/DTD/svg11.dtd"><svg width="100%" height="100%" viewBox="0 0 1024 512" version="1.1" xmlns="http://www.w3.org/2000/svg" xmlns:xlink="http://www.w3.org/1999/xlink" xml:space="preserve" style="fill-rule:evenodd;clip-rule:evenodd;stroke-linejoin:round;stroke-miterlimit:2;"><title>eMONERO</title><desc>Did you know that the new eMONERO social loans platform gives you the opportunity to earn money on loans granted? Earn more than on bank deposits or investing in currencies or playing on the stock exchange. The expected rate of return is around 9% per annum. The eMONERO system will select the most suitable borrowers for you and grant them a loan by diversifying your funds into small amounts to increase your security.</desc>    <g transform="matrix(1.03666,0,0,1.03666,-1.55572,135.333)">        <g transform="matrix(1,0,0,1,0,1.53341)">            <g transform="matrix(1,0,0,1,-260.26,-114.73)">                <path d="M570.71,269.21l0,-79.34l70.82,0l0,13.86l-57.07,0l0,51.62l57.18,0l0,13.86l-70.93,0Zm23.9,-34.48l0,-11.73l44,0l0,11.68l-44,0l0,0.05Z" style="fill:rgb(47,180,222);fill-rule:nonzero;"/>            </g>            <g transform="matrix(1,0,0,1,-260.26,-114.73)">                <path d="M971.74,269.21l0,-79.34l70.82,0l0,13.86l-57.07,0l0,51.62l57.18,0l0,13.86l-70.93,0Zm23.9,-34.48l0,-11.73l44,0l0,11.68l-44,0l0,0.05Z" style="fill:rgb(140,204,233);fill-rule:nonzero;"/>            </g>            <g transform="matrix(1,0,0,1,-260.26,-114.73)">                <path d="M1128.22,269.21l-20.08,-22l-29.68,0l0,-12.27l33.06,0c5.02,0 8.803,-1.363 11.35,-4.09c2.547,-2.727 3.823,-6.677 3.83,-11.85c0,-5.167 -1.333,-9.003 -4,-11.51c-2.667,-2.507 -6.397,-3.763 -11.19,-3.77l-43.21,0l0,65.47l-13.75,0l0,-79.32l57,0c4.124,-0.07 8.227,0.608 12.11,2c3.405,1.244 6.497,3.217 9.06,5.78c2.524,2.596 4.458,5.707 5.67,9.12c1.371,3.85 2.048,7.913 2,12c0,6.62 -1.437,12.167 -4.31,16.64c-2.851,4.455 -7.09,7.851 -12.06,9.66l23.9,24.12l-19.64,0l-0.06,0.02Z" style="fill:rgb(140,204,233);fill-rule:nonzero;"/>            </g>            <g transform="matrix(1,0,0,1,0,14.4696)">                <path d="M615.89,84.8l0,55.21l13.2,0l0,-41.69l-13.2,-13.52Z" style="fill:rgb(140,204,233);fill-rule:nonzero;"/>            </g>            <g transform="matrix(1,0,0,1,-260.26,-114.73)">                <path d="M945.12,189.22l0,58.05l-56,-55.54c-0.849,-0.893 -1.847,-1.631 -2.95,-2.18c-0.923,-0.432 -1.93,-0.657 -2.95,-0.66c-1.977,-0.085 -3.888,0.741 -5.18,2.24c-1.352,1.72 -2.031,3.876 -1.91,6.06l0,0.25l23.4,24l45.56,45.83c1.616,1.808 3.906,2.875 6.33,2.95c1.91,0.071 3.752,-0.732 5,-2.18c1.364,-1.733 2.044,-3.909 1.91,-6.11l0,-72.71l-13.2,0l-0.01,0Z" style="fill:rgb(140,204,233);fill-rule:nonzero;"/>            </g>            <g transform="matrix(1,0,0,1,-260.26,-114.73)">                <path d="M862.4,213c-3.565,-9.31 -10.93,-16.675 -20.24,-20.24c-5.028,-1.942 -10.381,-2.906 -15.77,-2.84l-19.31,0c-5.24,-0.054 -10.443,0.889 -15.33,2.78c-4.56,1.772 -8.716,4.446 -12.22,7.86c-3.522,3.482 -6.271,7.666 -8.07,12.28c-1.317,3.353 -2.174,6.868 -2.55,10.45l14.1,0.17c0.29,-1.505 0.715,-2.981 1.27,-4.41c1.157,-3.007 2.901,-5.753 5.13,-8.08c2.214,-2.274 4.868,-4.074 7.8,-5.29c3.131,-1.295 6.492,-1.945 9.88,-1.91l19.31,0c3.427,-0.032 6.826,0.617 10,1.91c6.043,2.447 10.794,7.317 13.09,13.42c1.257,3.29 1.885,6.788 1.85,10.31c0.032,3.541 -0.595,7.058 -1.85,10.37c-2.283,6.162 -7.027,11.106 -13.09,13.64c-3.162,1.341 -6.565,2.022 -10,2l-19.32,0c-3.396,0.025 -6.761,-0.657 -9.88,-2c-2.938,-1.254 -5.592,-3.091 -7.8,-5.4c-2.238,-2.38 -3.982,-5.181 -5.13,-8.24c-0.591,-1.542 -1.04,-3.136 -1.34,-4.76l-13.93,-0.21c0.41,3.422 1.239,6.781 2.47,10c3.601,9.56 10.93,17.261 20.3,21.33c4.834,2.103 10.058,3.163 15.33,3.11l19.31,0c5.359,0.049 10.67,-1.024 15.59,-3.15c4.617,-1.994 8.792,-4.887 12.28,-8.51c3.517,-3.695 6.264,-8.053 8.08,-12.82c1.953,-5.106 2.933,-10.533 2.89,-16c0.061,-5.39 -0.907,-10.742 -2.85,-15.77Z" style="fill:rgb(140,204,233);fill-rule:nonzero;"/>            </g>            <g transform="matrix(1,0,0,1,0,14.4696)">                <path d="M405,81.53l-15.98,58.48l13.64,0l10.56,-38.83l-8.22,-19.65Z" style="fill:rgb(140,204,233);fill-rule:nonzero;"/>            </g>            <g transform="matrix(1,0,0,1,-260.26,-114.73)">                <path d="M745.75,194.56c-1.093,-3.78 -3.313,-5.67 -6.66,-5.67c-3.127,0 -5.347,1.567 -6.66,4.7l-24.43,56.08l-24.44,-56.09c-0.579,-1.434 -1.589,-2.654 -2.89,-3.49c-1.22,-0.783 -2.64,-1.199 -4.09,-1.2c-2.713,-0.151 -5.232,1.469 -6.22,4l30.12,72.18c1.453,3.493 3.817,5.24 7.09,5.24c1.516,0.051 3.002,-0.43 4.2,-1.36c1.238,-1.06 2.225,-2.382 2.89,-3.87l22.48,-51.62l15.17,55.76l13.69,0l-20.25,-74.66Z" style="fill:rgb(140,204,233);fill-rule:nonzero;"/>            </g>            <g transform="matrix(1,0,0,1,-260.26,-114.73)">                <path d="M1244.77,213c-3.565,-9.31 -10.93,-16.675 -20.24,-20.24c-5.028,-1.942 -10.381,-2.906 -15.77,-2.84l-19.31,0c-5.24,-0.054 -10.443,0.889 -15.33,2.78c-4.56,1.772 -8.716,4.446 -12.22,7.86c-3.521,3.482 -6.271,7.666 -8.07,12.28c-1.315,3.346 -2.173,6.855 -2.55,10.43l14.1,0.17c0.292,-1.495 0.717,-2.961 1.27,-4.38c1.157,-3.007 2.901,-5.753 5.13,-8.08c2.214,-2.274 4.868,-4.074 7.8,-5.29c3.131,-1.295 6.492,-1.945 9.88,-1.91l19.31,0c3.427,-0.032 6.826,0.617 10,1.91c6.047,2.445 10.802,7.315 13.1,13.42c1.257,3.29 1.885,6.788 1.85,10.31c0.032,3.541 -0.595,7.058 -1.85,10.37c-2.285,6.164 -7.033,11.108 -13.1,13.64c-3.162,1.341 -6.565,2.022 -10,2l-19.31,0c-3.396,0.025 -6.761,-0.657 -9.88,-2c-2.938,-1.254 -5.592,-3.091 -7.8,-5.4c-2.238,-2.38 -3.982,-5.181 -5.13,-8.24c-0.593,-1.549 -1.041,-3.149 -1.34,-4.78l-13.95,-0.17c0.41,3.422 1.239,6.781 2.47,10c3.601,9.56 10.93,17.261 20.3,21.33c4.834,2.103 10.058,3.163 15.33,3.11l19.31,0c5.36,0.063 10.674,-0.996 15.6,-3.11c4.617,-1.994 8.792,-4.887 12.28,-8.51c3.517,-3.695 6.264,-8.053 8.08,-12.82c1.953,-5.106 2.933,-10.533 2.89,-16c0.07,-5.413 -0.898,-10.79 -2.85,-15.84Z" style="fill:rgb(140,204,233);fill-rule:nonzero;"/>            </g>        </g>        <g>            <g transform="matrix(1,0,0,1,-260.26,-129.2)">                <path d="M389.33,169.84l125.56,65.16l0,-24c0.001,-6.001 -3.354,-11.524 -8.68,-14.29l-109.5,-56.83c-4.645,-2.41 -10.185,-2.41 -14.83,0l-109.51,56.82c-5.329,2.767 -8.684,8.295 -8.68,14.3l0,69.2c-0.001,6.001 3.354,11.524 8.68,14.29l109.5,56.83c4.645,2.41 10.185,2.41 14.83,0l26.53,-14.32l-70,-36.31l13.22,-7.31l70.39,36.53l27,-13.42l-71.17,-36.93l13.22,-7.31l71.61,37.16l28.68,-14.88c1.477,-0.764 2.826,-1.752 4,-2.93l-120.92,-62.79l-81.53,41.34l0,-59l81.6,-41.31Z" style="fill:rgb(38,140,179);fill-rule:nonzero;"/>            </g>            <path d="M60.04,89.66l0,30.81l69.02,-35l125.57,65.17l0,-30.66l-125.64,-65.2l-68.95,34.88Z" style="fill:rgb(38,140,179);fill-rule:nonzero;"/>        </g>    </g></svg>