<?xml version="1.0" encoding="UTF-8" standalone="no"?><!DOCTYPE svg PUBLIC "-//W3C//DTD SVG 1.1//EN" "http://www.w3.org/Graphics/SVG/1.1/DTD/svg11.dtd"><svg width="100%" height="100%" viewBox="0 0 1024 512" version="1.1" xmlns="http://www.w3.org/2000/svg" xmlns:xlink="http://www.w3.org/1999/xlink" xml:space="preserve" style="fill-rule:evenodd;clip-rule:evenodd;stroke-linejoin:round;stroke-miterlimit:2;"><title>Gallium</title><desc>Gallium’s primary objective is to enable its clients to create exciting investment opportunities, by utilising its client’s in-depth knowledge and management capabilities, together with Gallium’s long established fund creation experience and expertise.The Gallium team has launched over 150 funds with gross assets of over £14.5 billion, primarily investing in commercial property. Other asset classes include, residential property, land, UK and overseas hotels, student accommodation, PFI projects, traded endowment policies, contemporary art, mezzanine finance, bridging loans, bio energy and solar panels.</desc>    <g transform="matrix(3.43434,0,0,3.43434,-650.525,-742.222)">        <g transform="matrix(0.229156,0,0,0.229156,173.502,240.24)">            <path d="M769.4,397c9.9,-2.5 19.6,-7.7 30.3,-16.3c4.7,-3.7 8.6,-6.7 8.8,-6.5c0.1,0.2 1.2,2.4 2.3,5c4.5,10.3 15.3,18 27.4,19.4c7,0.8 11.3,-0.6 16.2,-5.4c6.8,-6.6 8.8,-10.3 8.4,-16.2l-0.3,-5.3l-4.7,-1.4c-2.6,-0.7 -6,-2.6 -7.6,-4.2c-5.5,-5.5 -5.5,-6.2 -5,-77.5l0.4,-65.4l-7.5,0.4c-28,1.7 -32.9,3 -34.2,9c-0.4,1.6 -0.7,28.4 -0.8,59.6l-0.1,56.6l-5.2,4.7c-18.1,16.2 -42.5,15.8 -51,-1c-4.1,-7.8 -4.2,-9.1 -4.8,-66.5c-0.4,-31.1 -1.1,-57.5 -1.5,-58.8c-0.4,-1.3 -1.8,-2.7 -3,-3.2c-2.5,-0.9 -22.9,0.5 -31.9,2.3l-5.9,1.2l0.2,58c0.3,67.6 0.8,74.2 7.8,87.9c10,19.7 36.9,30 61.7,23.6Z" style="fill:rgb(135,162,181);"/>        </g>        <g transform="matrix(0.229156,0,0,0.229156,173.502,240.24)">            <path d="M927.5,394.9c11.5,-1.6 10.5,4.4 10.5,-62l0,-57.7l5.8,-5.9c10.6,-10.7 19.9,-15.3 31.2,-15.3c10.8,0 18.8,6.2 22.8,17.7c1.5,4.3 1.7,11.2 1.7,64.5c0,32.8 0.3,59.9 0.6,60.2c0.9,0.9 31.7,-1.2 35.8,-2.4c1.9,-0.5 3.8,-1.5 4.3,-2.2c0.4,-0.7 0.8,-27.4 0.8,-59.4l0,-58.1l6.9,-6.6c18.1,-17.5 40.2,-18.3 49.8,-2c5,8.5 5.3,12.3 5.3,71.9c0,46 0.2,55.3 1.4,57c1.3,1.7 2.5,1.9 11.8,1.6c5.7,-0.2 14.6,-0.9 19.8,-1.5l9.5,-1.2l-0.2,-3c-0.1,-1.7 -0.5,-29.5 -0.8,-62c-0.8,-65.1 -1,-67.7 -7,-80.3c-4.2,-8.9 -12.6,-17.6 -20.5,-21.5c-11,-5.4 -25.4,-7 -38.4,-4.2c-11.1,2.4 -26.9,11.9 -37.1,22.4c-2.1,2.3 -4.4,4.1 -5,4.1c-0.5,0 -2.1,-1.9 -3.4,-4.2c-7.7,-13.5 -21.8,-22 -39,-23.4c-18,-1.5 -34.4,5.1 -51.5,20.7c-3.1,2.8 -5.8,5 -5.9,4.8c-0.2,-0.2 -1.1,-2.9 -2,-6c-3.8,-12.6 -12.1,-18.9 -24.7,-18.9c-6.9,0 -7.2,0.1 -11.5,4.1c-9.7,9 -13.3,18.8 -8,22.3c1.3,0.9 3.3,3.1 4.2,4.9c1.7,3 1.8,8 1.7,73.5l-0.2,70.3l12.2,-0.6c6.6,-0.3 15.2,-1.1 19.1,-1.6Z" style="fill:rgb(135,162,181);"/>        </g>        <g transform="matrix(0.229156,0,0,0.229156,173.502,240.24)">            <path d="M471.2,395.1c3.2,-0.4 6,-1 6.2,-1.2c0.2,-0.2 0,-12.1 -0.5,-26.4c-0.4,-14.3 -0.8,-71.4 -0.9,-127c0,-79.1 -0.3,-101.5 -1.3,-103.5c-1.1,-2.2 -2,-2.5 -7.2,-2.8c-6.3,-0.3 -23.1,2.1 -29.2,4.2l-3.5,1.2l0.1,127.4c0.2,96.5 0.5,127.8 1.4,128.9c1,1.1 3.7,1.3 15.2,0.7c7.7,-0.4 16.6,-1 19.7,-1.5Z" style="fill:rgb(135,162,181);"/>        </g>        <g transform="matrix(0.229156,0,0,0.229156,173.502,240.24)">            <path d="M550.9,396c15.2,-1.4 16.5,-1.7 15.5,-4.4c-0.4,-1.1 -1,-58.8 -1.3,-128.2c-0.5,-109.5 -0.8,-126.3 -2.1,-127.9c-1.3,-1.6 -2.6,-1.7 -11.5,-1.2c-9.8,0.7 -27.2,4 -28.6,5.5c-0.4,0.4 -0.3,6.8 0.2,14.2c0.4,7.4 0.8,64.9 0.8,127.7c0.1,90.3 0.4,114.2 1.4,114.6c2.1,0.9 13.7,0.7 25.6,-0.3Z" style="fill:rgb(135,162,181);"/>        </g>        <g transform="matrix(0.229156,0,0,0.229156,173.502,240.24)">            <path d="M642.5,394.9c5.6,-0.7 7.5,-1.5 9.3,-3.5l2.3,-2.6l-0.3,-80.1c-0.2,-44.1 -0.7,-81 -1.2,-82c-0.4,-1 -1.6,-2.2 -2.5,-2.6c-1.9,-1 -21.8,0.4 -32.1,2.3l-6.5,1.1l0.5,19c0.6,21.9 0.7,83.9 0.2,122.5c-0.2,14.6 -0.3,26.8 -0.3,27.2c0.1,0.8 21.5,0 30.6,-1.3Z" style="fill:rgb(135,162,181);"/>        </g>        <g transform="matrix(0.229156,0,0,0.229156,173.502,240.24)">            <path d="M642.7,183.5c8.2,-4.1 12.3,-11.6 12.3,-22.5c-0.1,-18.8 -19.5,-28.1 -35.1,-16.8c-10.6,7.7 -12.1,26.6 -2.7,36c6.3,6.3 16.7,7.7 25.5,3.3Z" style="fill:rgb(135,162,181);"/>        </g>        <g transform="matrix(0.229156,0,0,0.229156,173.502,240.24)">            <path d="M163.5,474.9c39.5,-4.8 66,-23.6 73.1,-51.8c1.1,-4.6 1.5,-9.5 1.2,-17c-0.3,-9 -0.8,-11.5 -3.1,-16.6c-5.8,-12.4 -18,-21 -34.4,-24c-4.8,-1 -19.3,-1.8 -38.3,-2.4c-33.1,-0.9 -36.8,-1.5 -41,-6.9c-2.9,-3.6 -2.5,-5.6 2.3,-10.1c7.2,-6.8 7.3,-6.9 15.7,-6c15.4,1.7 35.3,-2.6 47.2,-10.3c11.6,-7.5 19.5,-18 23.4,-31.3c2.3,-7.8 2.3,-24.9 0,-32c-2.5,-7.8 -2.8,-7.5 8.7,-7.5c11.4,0 13.1,-0.8 16.3,-7c1.4,-2.7 1.8,-5.8 1.9,-13.2c0,-5.3 -0.3,-9.9 -0.6,-10.2c-0.3,-0.3 -5.4,0.1 -11.2,0.9c-5.8,0.8 -15.8,1.8 -22.1,2.1c-10.6,0.6 -11.6,0.5 -14.9,-1.5c-9.8,-6 -28.9,-9.8 -44.2,-8.7c-19.4,1.3 -33.5,7.5 -46,20.1c-9,9 -13.4,16.5 -16.1,28.1c-2.2,9.3 -1.5,24.6 1.5,32.9c3.7,10.5 12.1,21.1 21.5,27.4l3.9,2.5l-4.9,4.4c-2.7,2.4 -9.5,7.5 -15.2,11.3l-10.2,7l0,4.3c0,9.6 11,23.9 21.7,28.3c2.3,1 4.3,2 4.3,2.3c0,0.3 -1.9,1.6 -4.3,2.9c-12.7,7.1 -23.2,17.5 -26.2,26.1c-4.1,11.7 0.4,27.6 10.7,37.7c15.5,15.1 46.4,22.2 79.3,18.2Zm-18.7,-25.9c-20.2,-2.4 -32.9,-12.6 -33,-26.6c-0.1,-8.6 5.6,-16.5 15.6,-21.6c3.5,-1.8 6.3,-2.2 19.6,-2.6c28.9,-0.8 44.3,2.5 49.8,10.7c3,4.5 3.1,13.7 0.2,19.7c-7,14.4 -29.2,23 -52.2,20.4Zm-4.6,-134.8c-7.5,-2.7 -12.2,-6.9 -16,-14.3c-6.1,-11.9 -6.3,-25.8 -0.6,-37.5c9.5,-19.9 34.9,-21.5 46.4,-2.9c5.2,8.4 6.6,29.5 2.6,39c-5.9,14 -19.1,20.4 -32.4,15.7Z" style="fill:rgb(135,162,181);"/>        </g>        <g transform="matrix(0.229156,0,0,0.229156,173.502,240.24)">            <path d="M310.4,397c9.9,-2.5 21.7,-8.7 28.9,-15l5.6,-5.1l1.9,4.4c8.3,18.8 33.6,23.3 52.5,9.3c5.2,-3.8 6.7,-7.5 6.7,-16.6c0,-8.1 0,-8.2 -2.2,-7.5c-4.9,1.4 -11.9,1.7 -14.7,0.5c-6.1,-2.5 -6.2,-3.4 -5.1,-48.4c1.3,-49.6 0.6,-56.7 -7,-71.6c-3.5,-6.9 -13.8,-16.5 -21.4,-20.1c-7.1,-3.3 -18.8,-5.8 -27.7,-5.9c-17,-0.1 -41.6,8 -58.6,19.3c-11.8,7.9 -11.1,6.6 -8.4,15c2.8,8.6 5.4,12.5 9.4,14.2c4,1.7 8.3,0.6 16.7,-4.4c22.8,-13.6 38.3,-14.7 49.6,-3.7c6,5.8 7.2,9.2 8.1,21.3c0.6,8 0.5,8.2 -1.8,8.7c-1.3,0.3 -8,1.6 -14.9,3c-34.5,7 -59.4,20.5 -69.3,37.7c-12.4,21.5 -4,50.7 17.6,61.4c11.8,5.8 21.4,6.8 34.1,3.5Zm-4.9,-31.7c-3.1,-0.8 -8.4,-5.1 -9.9,-8.2c-0.8,-1.5 -1.8,-5.1 -2.2,-7.9c-2,-15.3 16.4,-28.7 46.4,-33.7l4.2,-0.7l0,15.6c0,11.2 -0.4,16.6 -1.4,19c-1.6,3.9 -9.8,10.5 -17.1,13.6c-4.9,2.2 -15.9,3.5 -20,2.3Z" style="fill:rgb(135,162,181);"/>        </g>        <g transform="matrix(0.812789,0,0,0.812789,-43.5454,135.926)">            <g transform="matrix(1,0,0,1,-97,0.203325)">                <path d="M722,130c9.659,0 21,16 16,30c-4.064,11.379 -20.341,9 -30,9c-9.659,0 -10,-15.169 -10,-24c0,-8.831 14.341,-15 24,-15Z" style="fill:rgb(166,189,204);"/>            </g>            <g transform="matrix(1,0,0,1,-97,0.203325)">                <path d="M716,118c8.133,0 23.787,3.538 31,15c5.159,8.198 2.012,23.619 -1,33c-5.87,18.285 -31,15 -42,13c-13.726,-2.496 -17,-22.81 -17,-37c0,-14.19 15.049,-24 29,-24Zm0,5c7.294,1.823 21.242,2.405 27.91,13c4.769,7.578 2.74,21.657 -0.91,30c-7,16 -24.502,11 -32,10c-12.782,-1.705 -21,-16 -21,-32c0,-13.116 14,-24 26,-21Z" style="fill:rgb(76,35,49);"/>            </g>            <g transform="matrix(1,0,0,1.02923,-105,-9.71386)">                <path d="M726.613,134.001c7.957,0.116 13.125,9.372 13.067,16.908c-0.009,1.166 -0.102,2.332 -0.27,3.487c-0.777,5.339 -2.425,11.074 -7.686,13.121c-6.439,2.504 -14.106,-0.701 -18.356,-2.345c-4.95,-1.914 -8.663,-6.354 -9.656,-11.503c-1.04,-5.393 -0.759,-11.77 2.657,-15.241c4.651,-4.725 12.991,-4.463 20.244,-4.427Zm-0.564,1.651c-8.747,0.019 -19.062,-0.298 -20.587,8.785c-1.135,6.761 0.124,14.471 6.094,18.023c4.483,2.666 10.125,3.761 15.134,4.066c3.174,0.194 6.503,-1.176 8.191,-3.861c5.658,-8.997 4.304,-23.41 -5.444,-26.554c-1.09,-0.352 -2.235,-0.46 -3.388,-0.459Z" style="fill:rgb(76,35,49);"/>            </g>        </g>    </g></svg>