<?xml version="1.0" encoding="UTF-8" standalone="no"?><!DOCTYPE svg PUBLIC "-//W3C//DTD SVG 1.1//EN" "http://www.w3.org/Graphics/SVG/1.1/DTD/svg11.dtd"><svg width="100%" height="100%" viewBox="0 0 1024 512" version="1.1" xmlns="http://www.w3.org/2000/svg" xmlns:xlink="http://www.w3.org/1999/xlink" xml:space="preserve" style="fill-rule:evenodd;clip-rule:evenodd;stroke-linejoin:round;stroke-miterlimit:2;"><title>Quanloop</title><desc>Quanloop is an investment fund dedicated to wholesale funding. We attract capital from investors like you and act as the main source of financing for our commercial finance intermediary partners, such as leasing or factoring companies, crowdfunding platforms, etc.Quanloop applies a unique business model by sourcing money for only 24 hours and splitting the capital in need into a myriad of tiny credit agreements, each valued at €1.</desc>    <g id="quanloop" transform="matrix(6.62569,0,0,6.62569,2.00049,151.081)">        <g id="Fill-16" transform="matrix(1,0,0,1,136.471,6.73469)">            <path d="M8.74,15.453c1.21,0 2.296,-0.285 3.256,-0.856c0.96,-0.571 1.717,-1.358 2.27,-2.362c0.553,-1.004 0.83,-2.13 0.83,-3.378c0,-1.268 -0.277,-2.399 -0.83,-3.393c-0.553,-0.994 -1.31,-1.781 -2.27,-2.363c-0.96,-0.581 -2.046,-0.872 -3.256,-0.872c-1.19,0 -2.265,0.291 -3.225,0.872c-0.96,0.582 -1.711,1.369 -2.254,2.363c-0.543,0.994 -0.814,2.125 -0.814,3.393c0,1.248 0.271,2.374 0.814,3.378c0.543,1.004 1.294,1.791 2.254,2.362c0.96,0.571 2.035,0.856 3.225,0.856m-7.451,9.483c-0.376,0 -0.674,-0.111 -0.893,-0.333c-0.219,-0.222 -0.328,-0.524 -0.328,-0.904l0,-14.969c0.02,-1.649 0.411,-3.134 1.173,-4.455c0.762,-1.321 1.795,-2.363 3.1,-3.124c1.304,-0.761 2.771,-1.142 4.399,-1.142c1.67,0 3.162,0.386 4.477,1.158c1.315,0.772 2.354,1.823 3.116,3.155c0.762,1.332 1.143,2.844 1.143,4.535c0,1.671 -0.371,3.171 -1.112,4.503c-0.741,1.332 -1.748,2.384 -3.021,3.156c-1.274,0.772 -2.714,1.157 -4.321,1.157c-1.399,0 -2.667,-0.301 -3.804,-0.903c-1.138,-0.603 -2.051,-1.401 -2.74,-2.395l0,9.324c0,0.38 -0.109,0.682 -0.329,0.904c-0.219,0.222 -0.506,0.333 -0.86,0.333" style="fill:rgb(38,91,123);"/>        </g>        <path id="Fill-4" d="M35.299,23.088c-0.542,0.644 -1.193,1.178 -1.952,1.601c-1.078,0.602 -2.277,0.903 -3.599,0.903c-1.444,0 -2.735,-0.311 -3.873,-0.934c-1.139,-0.623 -2.039,-1.536 -2.699,-2.739c-0.661,-1.203 -0.991,-2.67 -0.991,-4.401l0,-8.233c0,-0.338 0.111,-0.623 0.335,-0.855c0.224,-0.232 0.498,-0.348 0.824,-0.348c0.345,0 0.63,0.116 0.854,0.348c0.223,0.232 0.335,0.517 0.335,0.855l0,8.233c0,1.309 0.239,2.385 0.717,3.229c0.477,0.845 1.128,1.478 1.952,1.9c0.823,0.423 1.753,0.633 2.79,0.633c0.996,0 1.896,-0.2 2.699,-0.601c0.803,-0.401 1.438,-0.95 1.906,-1.647c0.468,-0.696 0.702,-1.488 0.702,-2.375l0,-9.372c0,-0.359 0.107,-0.649 0.32,-0.871c0.214,-0.222 0.493,-0.332 0.839,-0.332c0.345,0 0.63,0.11 0.854,0.332c0.223,0.222 0.335,0.512 0.335,0.871l0,14.882c0,0.38 -0.112,0.681 -0.335,0.902c-0.224,0.222 -0.509,0.333 -0.854,0.333c-0.346,0 -0.625,-0.111 -0.839,-0.333c-0.213,-0.221 -0.32,-0.522 -0.32,-0.902l0,-1.079Z" style="fill:rgb(38,91,123);"/>        <path id="Fill-6" d="M61.176,16.852l0,7.388c0,0.357 -0.115,0.645 -0.345,0.865c-0.231,0.22 -0.524,0.33 -0.881,0.33c-0.356,0 -0.649,-0.11 -0.88,-0.33c-0.231,-0.22 -0.346,-0.508 -0.346,-0.865l0,-1.907c-0.646,0.901 -1.459,1.636 -2.436,2.206c-1.206,0.702 -2.573,1.053 -4.102,1.053c-1.615,0 -3.061,-0.382 -4.339,-1.148c-1.278,-0.764 -2.29,-1.807 -3.034,-3.128c-0.744,-1.32 -1.116,-2.808 -1.116,-4.464c0,-1.676 0.383,-3.175 1.148,-4.495c0.765,-1.32 1.808,-2.363 3.128,-3.128c1.32,-0.765 2.808,-1.147 4.464,-1.147c1.655,0 3.138,0.382 4.448,1.147c1.31,0.765 2.347,1.808 3.113,3.128c0.764,1.32 1.157,2.819 1.178,4.495Zm-8.739,6.539c1.215,0 2.3,-0.283 3.254,-0.849c0.953,-0.565 1.708,-1.346 2.263,-2.342c0.555,-0.995 0.833,-2.111 0.833,-3.348c0,-1.257 -0.278,-2.378 -0.833,-3.363c-0.555,-0.985 -1.31,-1.766 -2.263,-2.342c-0.954,-0.577 -2.039,-0.865 -3.254,-0.865c-1.195,0 -2.274,0.288 -3.238,0.865c-0.964,0.576 -1.729,1.357 -2.295,2.342c-0.566,0.985 -0.849,2.106 -0.849,3.363c0,1.237 0.283,2.353 0.849,3.348c0.566,0.996 1.331,1.777 2.295,2.342c0.964,0.566 2.043,0.849 3.238,0.849Z" style="fill:rgb(38,91,123);"/>        <path id="Fill-8" d="M67.558,15.016l0,9.373c0,0.359 -0.106,0.649 -0.32,0.87c-0.213,0.222 -0.493,0.333 -0.839,0.333c-0.366,0 -0.655,-0.111 -0.869,-0.333c-0.213,-0.221 -0.32,-0.511 -0.32,-0.87l0,-14.883c0,-0.379 0.107,-0.68 0.32,-0.902c0.214,-0.222 0.503,-0.332 0.869,-0.332c0.346,0 0.626,0.11 0.839,0.332c0.214,0.222 0.32,0.523 0.32,0.902l0,1.07c0.546,-0.639 1.197,-1.17 1.952,-1.592c1.078,-0.602 2.277,-0.902 3.599,-0.902c1.443,0 2.734,0.311 3.873,0.934c1.138,0.623 2.038,1.535 2.699,2.739c0.661,1.203 0.991,2.67 0.991,4.401l0,8.233c0,0.338 -0.112,0.622 -0.335,0.855c-0.224,0.232 -0.499,0.348 -0.824,0.348c-0.346,0 -0.63,-0.116 -0.854,-0.348c-0.224,-0.233 -0.335,-0.517 -0.335,-0.855l0,-8.233c0,-1.309 -0.239,-2.385 -0.717,-3.23c-0.478,-0.844 -1.128,-1.477 -1.952,-1.9c-0.823,-0.422 -1.753,-0.633 -2.79,-0.633c-0.997,0 -1.896,0.201 -2.699,0.602c-0.803,0.401 -1.439,0.95 -1.906,1.646c-0.468,0.697 -0.702,1.488 -0.702,2.375Z" style="fill:rgb(38,91,123);"/>        <path id="Fill-10" d="M90.31,24.918c-0.823,0 -1.559,-0.233 -2.207,-0.702c-0.648,-0.467 -1.153,-1.116 -1.512,-1.946c-0.361,-0.829 -0.541,-1.787 -0.541,-2.871l0,-18.187c0,-0.361 0.109,-0.654 0.324,-0.877c0.217,-0.223 0.499,-0.335 0.85,-0.335c0.349,0 0.632,0.112 0.848,0.335c0.217,0.223 0.325,0.516 0.325,0.877l0,18.187c0,0.914 0.18,1.659 0.54,2.233c0.36,0.574 0.818,0.862 1.373,0.862l0.772,0c0.309,0 0.556,0.111 0.741,0.334c0.185,0.224 0.278,0.517 0.278,0.878c0,0.362 -0.129,0.654 -0.386,0.877c-0.258,0.224 -0.592,0.335 -1.003,0.335l-0.402,0Z" style="fill:rgb(38,91,123);"/>        <path id="Fill-12" d="M101.512,23.391c1.216,0 2.306,-0.283 3.27,-0.849c0.964,-0.565 1.718,-1.341 2.263,-2.326c0.545,-0.985 0.818,-2.106 0.818,-3.364c0,-1.257 -0.273,-2.383 -0.818,-3.379c-0.545,-0.995 -1.299,-1.776 -2.263,-2.342c-0.964,-0.566 -2.054,-0.849 -3.27,-0.849c-1.215,0 -2.305,0.283 -3.269,0.849c-0.964,0.566 -1.724,1.347 -2.279,2.342c-0.556,0.996 -0.833,2.122 -0.833,3.379c0,1.258 0.277,2.379 0.833,3.364c0.555,0.985 1.315,1.761 2.279,2.326c0.964,0.566 2.054,0.849 3.269,0.849m0,2.201c-1.676,0 -3.174,-0.377 -4.495,-1.132c-1.32,-0.754 -2.358,-1.792 -3.112,-3.112c-0.755,-1.321 -1.132,-2.819 -1.132,-4.496c0,-1.697 0.377,-3.206 1.132,-4.527c0.754,-1.32 1.792,-2.357 3.112,-3.112c1.321,-0.754 2.819,-1.131 4.495,-1.131c1.677,0 3.17,0.377 4.48,1.131c1.31,0.755 2.342,1.792 3.097,3.112c0.754,1.321 1.142,2.83 1.163,4.527c0,1.677 -0.383,3.175 -1.147,4.496c-0.766,1.32 -1.803,2.358 -3.113,3.112c-1.31,0.755 -2.803,1.132 -4.48,1.132" style="fill:rgb(38,91,123);"/>        <g id="Fill-1" transform="matrix(1,0,0,1,0,6.73469)">            <path d="M8.704,15.453c1.21,0 2.29,-0.285 3.241,-0.856c0.949,-0.571 1.701,-1.358 2.254,-2.362c0.553,-1.004 0.83,-2.13 0.83,-3.378c0,-1.268 -0.277,-2.399 -0.83,-3.393c-0.553,-0.994 -1.305,-1.781 -2.254,-2.363c-0.951,-0.581 -2.031,-0.872 -3.241,-0.872c-1.19,0 -2.265,0.291 -3.225,0.872c-0.96,0.582 -1.722,1.369 -2.285,2.363c-0.564,0.994 -0.846,2.125 -0.846,3.393c0,1.248 0.282,2.374 0.846,3.378c0.563,1.004 1.325,1.791 2.285,2.362c0.96,0.571 2.035,0.856 3.225,0.856m7.483,9.483c-0.355,0 -0.647,-0.111 -0.877,-0.333c-0.23,-0.222 -0.344,-0.524 -0.344,-0.904l0,-9.324c-0.689,0.994 -1.597,1.792 -2.724,2.395c-1.127,0.602 -2.39,0.903 -3.788,0.903c-1.608,0 -3.048,-0.385 -4.321,-1.157c-1.274,-0.772 -2.281,-1.824 -3.021,-3.156c-0.742,-1.332 -1.112,-2.832 -1.112,-4.503c0,-1.691 0.381,-3.203 1.143,-4.535c0.762,-1.332 1.8,-2.383 3.115,-3.155c1.315,-0.772 2.797,-1.158 4.446,-1.158c1.628,0 3.094,0.381 4.399,1.142c1.304,0.761 2.338,1.803 3.1,3.124c0.761,1.321 1.163,2.806 1.205,4.455l0,14.969c0,0.38 -0.115,0.682 -0.344,0.904c-0.23,0.222 -0.522,0.333 -0.877,0.333" style="fill:rgb(38,91,123);"/>        </g>        <path id="Fill-14" d="M123.698,23.391c1.215,0 2.305,-0.283 3.269,-0.849c0.964,-0.565 1.718,-1.341 2.264,-2.326c0.544,-0.985 0.817,-2.106 0.817,-3.364c0,-1.257 -0.273,-2.383 -0.817,-3.379c-0.546,-0.995 -1.3,-1.776 -2.264,-2.342c-0.964,-0.566 -2.054,-0.849 -3.269,-0.849c-1.216,0 -2.306,0.283 -3.27,0.849c-0.964,0.566 -1.724,1.347 -2.279,2.342c-0.556,0.996 -0.833,2.122 -0.833,3.379c0,1.258 0.277,2.379 0.833,3.364c0.555,0.985 1.315,1.761 2.279,2.326c0.964,0.566 2.054,0.849 3.27,0.849m0,2.201c-1.677,0 -3.176,-0.377 -4.496,-1.132c-1.32,-0.754 -2.358,-1.792 -3.112,-3.112c-0.755,-1.321 -1.132,-2.819 -1.132,-4.496c0,-1.697 0.377,-3.206 1.132,-4.527c0.754,-1.32 1.792,-2.357 3.112,-3.112c1.32,-0.754 2.819,-1.131 4.496,-1.131c1.676,0 3.169,0.377 4.479,1.131c1.31,0.755 2.342,1.792 3.097,3.112c0.754,1.321 1.142,2.83 1.163,4.527c0,1.677 -0.383,3.175 -1.147,4.496c-0.766,1.32 -1.803,2.358 -3.113,3.112c-1.31,0.755 -2.803,1.132 -4.479,1.132" style="fill:rgb(38,91,123);"/>    </g></svg>