<?xml version="1.0" encoding="UTF-8" standalone="no"?><!DOCTYPE svg PUBLIC "-//W3C//DTD SVG 1.1//EN" "http://www.w3.org/Graphics/SVG/1.1/DTD/svg11.dtd"><svg width="100%" height="100%" viewBox="0 0 1024 512" version="1.1" xmlns="http://www.w3.org/2000/svg" xmlns:xlink="http://www.w3.org/1999/xlink" xml:space="preserve" style="fill-rule:evenodd;clip-rule:evenodd;stroke-linejoin:round;stroke-miterlimit:2;"><title>Bondora</title><desc>Bondora was founded over 10 years ago in the height of the global financial crisis. This was a time when the world was in need of fair finance and a technological revolution. Today, Bondora has served over 80,000 customers who’ve earned more than €33M in interest. We make sure everyone can access the world of investing and earn a reliable net return, without all the complexities. </desc>    <g transform="matrix(34.5717,0,0,34.5717,-2705.78,812.306)">        <g transform="matrix(0.173472,0,0,0.173472,78.3237,-19.9064)">            <path d="M9.105,18.578l6.79,3.414l6.79,-3.414c5.008,-2.892 5.008,-7.623 0,-10.514l-13.58,-6.83c-5.008,-2.891 -9.105,-0.526 -9.105,5.257l0,13.659c-0.002,0.618 0.051,1.234 0.158,1.842c0.792,-4.409 4.511,-5.976 8.947,-3.414Z" style="fill:rgb(130,225,0);fill-rule:nonzero;"/>        </g>        <g transform="matrix(0.173472,0,0,0.173472,78.3237,-19.9064)">            <path d="M22.686,25.407l-6.79,-3.415l-6.79,3.415c-4.437,2.561 -8.156,0.995 -8.948,-3.415c-0.107,0.608 -0.16,1.225 -0.158,1.842l0,13.66c0,5.782 4.097,8.148 9.105,5.257l13.581,-6.83c5.008,-2.891 5.008,-7.623 0,-10.514Z" style="fill:rgb(110,193,237);fill-rule:nonzero;"/>        </g>        <g transform="matrix(0.173472,0,0,0.173472,78.3237,-19.9064)">            <path d="M9.105,25.407l6.79,-3.415l-6.79,-3.415c-4.436,-2.561 -8.155,-0.995 -8.947,3.415c0.792,4.41 4.511,5.976 8.947,3.415Z" style="fill:rgb(19,170,0);fill-rule:nonzero;"/>        </g>        <g transform="matrix(0.173472,0,0,0.173472,78.3237,-19.9064)">            <path d="M49.42,9.302c5.047,0 7.968,2.92 7.968,6.85c0.046,2.433 -1.465,4.642 -3.75,5.48c2.724,0.675 4.625,3.18 4.542,5.985c0,4.181 -3.172,7.245 -8.003,7.245l-8.809,0c-0.823,0 -1.502,-0.678 -1.502,-1.502l0,-22.556c0,-0.824 0.679,-1.502 1.502,-1.502l8.052,0Zm-0.901,10.238c1.982,0 3.28,-1.044 3.28,-2.775c0,-1.659 -1.118,-2.74 -3.353,-2.74l-3.028,0l0,5.515l3.101,0Zm0.469,10.671c2.198,0 3.532,-1.153 3.532,-2.992c0,-1.766 -1.298,-2.992 -3.532,-2.992l-3.57,0l0,5.984l3.57,0Z" style="fill-rule:nonzero;"/>            <path d="M78.46,25.886c0,0.01 0,0.02 0,0.031c0,5.221 -4.296,9.517 -9.517,9.517c-5.221,0 -9.518,-4.296 -9.518,-9.517c0,-0.011 0,-0.021 0,-0.031c0.017,-5.21 4.308,-9.487 9.518,-9.487c5.209,0 9.5,4.277 9.517,9.487Zm-5.479,0c0,-3.029 -1.947,-4.434 -4.038,-4.434c-2.055,0 -4.038,1.405 -4.038,4.434c0,2.992 1.983,4.471 4.038,4.471c2.09,0 4.038,-1.442 4.038,-4.471l0,0Z" style="fill-rule:nonzero;"/>            <path d="M84.603,34.863l-2.476,0c-0.824,0 -1.502,-0.678 -1.502,-1.502l0,-14.913c0,-0.824 0.678,-1.502 1.502,-1.502l2.295,0c0.824,0 1.502,0.678 1.502,1.502l0,0.553c1.133,-1.636 3.023,-2.588 5.012,-2.525c4.506,0 6.525,3.21 6.525,7.139l0,9.746c0,0.823 -0.678,1.502 -1.502,1.502l-2.476,0c-0.824,0 -1.502,-0.679 -1.502,-1.502l0,-8.808c0.014,-0.11 0.02,-0.22 0.02,-0.33c0,-1.487 -1.198,-2.72 -2.684,-2.764c-0.04,-0.001 -0.079,-0.002 -0.119,-0.002c-1.697,0 -3.093,1.397 -3.093,3.094c0,0.012 0,0.024 0,0.037l0,8.773c0,0.824 -0.678,1.502 -1.502,1.502Z" style="fill-rule:nonzero;"/>            <path d="M118.387,31.655c0,0.616 0.015,1.17 0.037,1.642c0,0.022 0.001,0.045 0.001,0.067c0,0.822 -0.676,1.499 -1.499,1.499c-0.001,0 -0.002,0 -0.003,0l-2.294,0c-0.799,0.003 -1.466,-0.634 -1.501,-1.432c-0.003,-0.1 -0.005,-0.2 -0.005,-0.3c-1.165,1.435 -2.95,2.226 -4.795,2.127c-5.047,0 -8.868,-3.893 -8.868,-9.409c0,-5.335 3.604,-9.336 8.687,-9.336c3.065,0 4.399,1.153 4.831,1.838l0,-8.088c0,-0.824 0.678,-1.502 1.502,-1.502l2.404,0c0.824,0 1.502,0.678 1.502,1.502l0.001,21.392Zm-9.374,-1.298c2.127,0 4.038,-1.516 4.038,-4.471c0,-2.992 -1.911,-4.434 -4.038,-4.434c-2.127,0 -4.037,1.442 -4.037,4.434c0,2.955 1.91,4.471 4.037,4.471Z" style="fill-rule:nonzero;"/>            <path d="M139.589,25.886c0,0.01 0,0.02 0,0.031c0,5.221 -4.296,9.517 -9.517,9.517c-5.221,0 -9.518,-4.296 -9.518,-9.517c0,-0.011 0,-0.021 0.001,-0.031c0.016,-5.21 4.307,-9.487 9.517,-9.487c5.209,0 9.5,4.277 9.517,9.487Zm-5.479,0c0,-3.029 -1.947,-4.434 -4.038,-4.434c-2.055,0 -4.038,1.405 -4.038,4.434c0,2.992 1.983,4.471 4.038,4.471c2.091,0 4.038,-1.442 4.038,-4.471l0,0Z" style="fill-rule:nonzero;"/>            <path d="M153.147,20.673c0,0 0,0.001 0,0.001c0,0.822 -0.678,1.5 -1.5,1.5c-0.009,0 -0.018,0 -0.026,-0.001c-0.069,-0.001 -0.137,-0.002 -0.205,-0.002c-2.199,0 -4.182,1.299 -4.182,4.869l0,6.32c0,0.824 -0.678,1.502 -1.502,1.502l-2.476,0c-0.824,0 -1.502,-0.678 -1.502,-1.502l0,-14.912c0,-0.824 0.678,-1.502 1.502,-1.502l2.296,0c0.824,0 1.502,0.678 1.502,1.502l0,0.912c0.931,-1.674 2.737,-2.681 4.651,-2.595l0.016,0c0.782,0.001 1.426,0.645 1.426,1.428l0,2.48Z" style="fill-rule:nonzero;"/>            <path d="M159.184,24.516l4.218,-0.649c0.973,-0.145 1.298,-0.613 1.298,-1.226c0,-1.046 -0.902,-1.946 -2.633,-1.946c-1.152,-0.063 -2.24,0.558 -2.772,1.583c-0.302,0.594 -0.971,0.913 -1.623,0.776l-1.88,-0.385c-0.7,-0.145 -1.207,-0.767 -1.207,-1.482c0,-0.215 0.046,-0.428 0.135,-0.625c0.946,-2.112 3.295,-4.157 7.383,-4.157c5.806,0 7.933,3.244 7.933,6.921l0,8.76c0,0.42 0.016,0.822 0.04,1.182c0.002,0.032 0.003,0.064 0.003,0.097c0,0.822 -0.677,1.498 -1.499,1.498c0,0 -0.001,0 -0.002,0l-1.933,0c-0.797,0.003 -1.463,-0.631 -1.5,-1.427c-0.008,-0.18 -0.012,-0.376 -0.012,-0.591c-1.111,1.678 -3.038,2.641 -5.047,2.523c-3.93,0 -6.201,-2.597 -6.201,-5.444c-0.001,-3.173 2.343,-4.976 5.299,-5.408Zm5.516,3.316l0,-0.792l-3.389,0.54c-1.154,0.18 -2.019,0.722 -2.019,1.983c0,0.937 0.613,1.838 2.127,1.838c1.622,0 3.281,-0.792 3.281,-3.569Z" style="fill-rule:nonzero;"/>        </g>    </g></svg>