<?xml version="1.0" encoding="UTF-8" standalone="no"?><!DOCTYPE svg PUBLIC "-//W3C//DTD SVG 1.1//EN" "http://www.w3.org/Graphics/SVG/1.1/DTD/svg11.dtd"><svg width="100%" height="100%" viewBox="0 0 1024 512" version="1.1" xmlns="http://www.w3.org/2000/svg" xmlns:xlink="http://www.w3.org/1999/xlink" xml:space="preserve" style="fill-rule:evenodd;clip-rule:evenodd;stroke-linejoin:round;stroke-miterlimit:2;"><title>Arboribus</title><desc>Arboribus is the pioneering crowdlending platform in Spain with a non-bank financing business model for SMEs. In just over 4 years, since 2013, it has become a benchmark within the sector, a clear and solid alternative to bank loans and ahead of other platforms.</desc>    <g id="layer101" transform="matrix(0.347293,0,0,0.347293,1.64274,-44.7773)">        <g transform="matrix(0.615141,0,0,0.615686,-86.3951,380.694)">            <path d="M567.2,1557c0.3,-1.6 0.2,-3 -0.2,-3c-0.4,0 0.2,-2.6 1.3,-5.7c1.1,-3.2 2.6,-8.3 3.3,-11.3c1.7,-7 3.5,-13.8 7.4,-27.5c13.8,-48.2 16.3,-62 15.7,-89c-1.4,-67.7 -4.1,-114.5 -8.1,-140c-2.7,-16.9 -6.2,-35.6 -9.1,-48.5c-2.3,-10.8 -4.6,-21.2 -5.6,-25.9c-0.5,-2.4 -1.1,-4.6 -1.3,-4.8c-0.5,-0.5 -6.8,8.2 -10,14c-1.4,2.6 -3.7,6.6 -5,9c-8.9,16.1 -15,44.5 -17.6,82.1c-0.5,7.7 -1.4,15.4 -1.9,17c-0.5,1.7 -1.2,5.8 -1.6,9.1c-0.6,6.3 -1.1,8.8 -4.5,24.5c-2.9,12.8 -4.5,17.8 -8.8,27l-2.2,4.5l0.4,-56.5c0.3,-52.4 0.5,-57.3 2.5,-67.5c2.6,-14 6.4,-29.9 9.6,-40.5c0.9,-3 2.2,-7.7 2.9,-10.5c0.8,-2.7 2.8,-9.5 4.6,-15c1.8,-5.5 3.8,-12 4.6,-14.5c0.7,-2.5 2.3,-7.6 3.4,-11.5c1.2,-3.8 2.8,-9 3.5,-11.5c0.7,-2.5 2.8,-9.2 4.5,-15c4.5,-14.5 4.9,-17.4 4.9,-34.3c0.1,-14.9 -0.3,-16.8 -4.7,-23.7c-0.6,-0.9 -7.6,7.3 -12.8,15.3c-6,9 -16.1,28.3 -18.9,36.2c-1,2.8 -2.2,5.5 -2.6,6c-1.6,2.2 -12.5,36.2 -16.6,51.5c-1.8,6.8 -3.9,14.8 -5.9,22c-0.8,3 -2.1,8 -2.9,11c-4.1,16.6 -9.9,38.3 -11.5,43c-0.5,1.4 -1.8,5.9 -3,10c-1.3,4.1 -2.6,7.9 -3.1,8.4c-0.5,0.6 -0.9,1.6 -0.9,2.4c0,3.9 -12.8,29.5 -17.5,34.9c-1.9,2.3 -3.1,3.8 -5.5,7.3c-1.3,1.9 -2.7,3.7 -3,4c-0.3,0.3 -3,3.6 -6,7.5c-3,3.8 -6.2,7.7 -7,8.6c-6.3,6.7 -21.5,26.6 -29.8,39c-6.5,9.7 -17.2,30 -17.2,32.5c0,0.6 -0.7,2.9 -1.6,4.9c-1.2,2.9 -1.8,3.5 -2.5,2.4c-1.3,-2.1 -1.1,-7.2 0.7,-16.8c2.3,-12.6 3.9,-17.1 13.4,-36.6c3.2,-6.6 6.8,-14.2 8.1,-17c3.5,-7.8 19.5,-40.3 23.3,-47.5c6.8,-12.7 22.3,-45.4 27,-57c1.5,-3.6 3.1,-7.4 3.6,-8.5c2.7,-6 7,-22.1 7.9,-29.5c0.6,-4.7 1.7,-11.9 2.5,-16c0.8,-4.1 2.1,-11.1 2.9,-15.5c0.9,-4.4 2.2,-10.7 3,-14c0.8,-3.3 2.2,-9.3 3.1,-13.4c1.5,-6.8 5.6,-20 7.6,-24.6c0.5,-1.1 2.3,-5.4 4.1,-9.5c3.8,-9.1 9.7,-20.6 16.3,-32c2.7,-4.7 5.4,-9.5 6,-10.7c0.6,-1.3 1.4,-2.3 1.9,-2.3c0.4,0 0.7,-0.4 0.7,-0.9c0,-0.6 1.3,-2.9 2.8,-5.3c1.6,-2.4 5.2,-7.9 8,-12.3c2.8,-4.4 5.5,-8.4 5.9,-9c0.5,-0.5 2,-2.8 3.3,-5c1.3,-2.2 2.6,-4.2 3,-4.5c2.6,-2.4 11.5,-18.6 12.6,-23c1.9,-7.9 1.8,-33.7 -0.1,-40.5c-2.1,-7.1 -4.2,-8.8 -11.6,-9.3l-6,-0.4l-17.2,17.3c-9.5,9.6 -19.7,20.3 -22.7,23.9c-3,3.6 -5.7,6.7 -6,7c-1.5,1.3 -12.1,15.2 -15.7,20.5c-7.5,11.1 -12,24 -13.8,39.5c-1.1,9.6 -4.2,20.8 -13,47.5c-4.7,14.3 -8.9,26.9 -9.4,28c-0.5,1.1 -2.3,5.9 -4,10.6c-2.7,7.8 -6.7,18 -9.1,23.4c-0.5,1.1 -1.9,4.3 -3.1,7c-6.2,14.3 -16.6,35.5 -23.3,47.5c-7.4,13.3 -13.6,27 -13.6,30.1c0,2.3 -6.7,9.9 -8.6,9.9c-0.8,0 -1.4,0.4 -1.4,0.9c0,0.5 -1,1.2 -2.2,1.5c-1.3,0.3 -4.1,3 -6.3,5.9c-9.2,12.1 -34.9,34.7 -39.4,34.7c-0.6,0 -1.1,0.5 -1.1,1c0,0.6 -0.6,1 -1.2,1c-0.7,0 -2.6,0.7 -4.1,1.5c-4.9,2.5 -14.1,4.6 -18.7,4.3l-4.5,-0.3l3,-1.5c3.6,-1.7 11.2,-6.7 14,-9.1c1.1,-1 5,-4.3 8.7,-7.4c3.7,-3.1 7.3,-6.4 8.1,-7.5c0.7,-1.1 3.6,-4.3 6.3,-7.3c12.8,-13.9 27.2,-34.2 41,-57.7c10.3,-17.4 27.5,-52.3 31.9,-64.5c1,-2.7 2.2,-5.4 2.5,-6c2.2,-3.1 9.9,-28.9 10.4,-34.9c0.6,-6.2 4.5,-22.3 9.1,-37.6c0.9,-3 2.1,-7.7 2.7,-10.5c1,-5.2 0.8,-25.9 -0.4,-27c-1.3,-1.4 -10,0.9 -14.3,3.7c-9.5,6.3 -21,26.1 -30.5,52.3c-1.8,5 -3.9,10.4 -4.6,12.2c-0.8,1.7 -1.4,3.4 -1.4,3.8c0,1.5 -12.3,36.2 -14.1,39.7c-0.5,1 -0.9,2.3 -0.9,2.9c0,4.6 -17,36.2 -18.7,34.6c-0.3,-0.3 0.9,-4.5 2.5,-9.4c4.6,-13.3 9.2,-32.5 13.2,-54.3c1,-5.6 3.1,-16.2 5.5,-28c2.2,-10.7 6.2,-26.3 7.5,-29.5c0.5,-1.1 1.4,-3.8 2.1,-6c3.1,-10.2 16.3,-31.6 25,-40.6c7.9,-8 26.3,-24.9 34.9,-31.9c4.1,-3.4 8.6,-7.1 9.9,-8.3c1.4,-1.1 3.9,-3 5.7,-4.2l3.2,-2.1l-5.4,0.4c-5.6,0.5 -11.4,-1.2 -11.4,-3.2c0,-0.6 1.7,-2.1 3.8,-3.4c2,-1.3 5.5,-3.9 7.7,-5.8c5.4,-4.7 13.8,-9.5 20,-11.5l5,-1.6l-5.9,-0.8c-7.3,-1 -31.2,-0.1 -34.6,1.3c-1.4,0.5 -4.5,1.8 -7,2.8c-5.3,2.1 -16.8,8.7 -19.6,11.2c-1,0.9 -4.1,3.4 -6.7,5.5c-6,4.9 -17.9,16.8 -27.7,27.8c-10.5,11.7 -10.8,12.1 -13.9,17.2c-1.2,2 -2.8,3.7 -3.5,3.7c-0.7,0 -5.5,4.2 -10.7,9.3c-7.9,7.9 -11.7,11.2 -22.4,19.6c-3.9,3 -15.8,9.4 -21.4,11.5c-11.5,4.3 -18.6,5.6 -30.4,5.6c-10.1,-0.1 -11,-0.2 -9.3,-1.5c1.1,-0.8 2.9,-1.5 4,-1.5c1.2,0 3.3,-0.6 4.7,-1.4c1.4,-0.7 3.7,-1.6 5.2,-1.9c1.4,-0.4 5.5,-2.1 9,-3.7c3.6,-1.7 7,-3 7.6,-3c0.6,0 1.1,-0.4 1.1,-1c0,-0.5 0.5,-1 1.1,-1c1.1,0 12.8,-6.7 13.9,-7.9c0.3,-0.4 3.7,-3.1 7.6,-6.3c3.9,-3.1 9.5,-8.4 12.5,-11.8c3,-3.5 5.9,-6.8 6.4,-7.4c5.5,-6.2 11.5,-15.8 11.5,-18.2c0,-1.9 -8.2,-0.5 -23.5,3.8c-13.6,3.8 -20.7,5.8 -28.9,7.9c-7.5,1.9 -8.3,0.7 -2.1,-3.1c3.1,-1.9 6.6,-4.3 7.8,-5.2c1.2,-1 2.7,-2.1 3.2,-2.5c0.6,-0.5 5.3,-3.7 10.5,-7.2c5.2,-3.6 11.4,-7.9 13.6,-9.5c2.3,-1.7 5.2,-3.8 6.4,-4.6c1.2,-0.8 4.1,-2.9 6.4,-4.6c5.8,-4.4 47.9,-32.3 55.3,-36.8c3.5,-2.1 8.9,-5 12,-6.7l5.8,-2.9l35.8,0c20.3,0 36.5,-0.4 37.5,-0.9c0.9,-0.6 4,-2 6.7,-3.3c2.8,-1.3 5.2,-2.6 5.5,-2.9c0.3,-0.3 1.2,-0.8 2.1,-1.2c3.1,-1.1 20,-11.9 26.7,-17c14.2,-10.8 28.9,-28.1 40.5,-47.7c10.5,-17.8 13.2,-28.4 13.1,-51.5c0,-17.5 -0.1,-17.7 -5.7,-37c-2,-6.8 -8.5,-25.1 -10.6,-30c-1,-2.2 -2.4,-5.6 -3.1,-7.5c-2.1,-5.5 -4.6,-11.4 -9.9,-23.3c-1.7,-3.8 -3.1,-7.1 -3.1,-7.4c0,-0.2 -1.4,-3.5 -3.1,-7.1c-3.8,-8.2 -10.9,-24.9 -10.9,-25.6c0,-1.1 -17.7,-29.8 -26.2,-42.4c-9.5,-14.2 -23.6,-33.3 -28.8,-39.2c-0.8,-0.9 -4,-4.5 -7,-8.1c-13,-15.1 -35.8,-36 -47.5,-43.4c-1.6,-1.1 -3.2,-2.3 -3.5,-2.7c-0.6,-0.8 -17.7,-9.6 -22.8,-11.7c-3.4,-1.4 -7.5,-2.5 -14.7,-4.1c-2.2,-0.5 -7.5,-0.9 -11.8,-1l-7.9,0l0.5,-6.7c0.3,-3.8 1.2,-9.8 2.2,-13.5l1.7,-6.8l11.3,0c6.2,0 12,-0.3 12.9,-0.6c3.5,-1.4 0.9,-17.3 -3.3,-19.9c-1.7,-1 -12.1,-17.3 -12.1,-19c0,-0.3 1.1,-0.3 2.5,0.1c2.3,0.6 2.5,0.3 2.5,-2.5c0,-1.9 0.5,-3.1 1.3,-3c0.6,0 5.7,5 11.2,11c5.5,6 12.5,12.7 15.5,15.1c3,2.3 5.7,4.4 6,4.7c0.3,0.3 2.8,2.4 5.5,4.6c2.8,2.1 5.2,4.2 5.5,4.5c0.3,0.3 2.7,2.4 5.5,4.5c2.7,2.2 6.1,5 7.5,6.2c8.3,7.1 38.7,29.4 37.7,27.6c-0.4,-0.7 -19.1,-32 -22,-36.8c-0.7,-1 -1.6,-2.5 -2.2,-3.2c-4.6,-5.7 -9.5,-13.1 -9.5,-14.1c0,-1.2 7.5,-0.4 10.3,1c2.8,1.4 2,-0.2 -2.4,-4.5c-5.9,-6 -8.2,-10.9 -8.3,-18.7c-0.1,-6.7 1.1,-10.4 6,-18.2c5,-7.9 15.1,-12 23.7,-9.7c5.5,1.5 13,8.8 16.7,16.3c2.5,5.2 3,7.5 3,13.4c0,6.5 -0.2,7.3 -3.1,10.1c-1.6,1.7 -5.5,4.5 -8.5,6.3c-2.9,1.8 -5.4,3.7 -5.4,4.2c0,0.5 0.9,1.9 1.9,3c1,1.2 6.2,8 11.5,15.1c5.3,7.2 9.9,13.5 10.4,14c4.1,5.2 19.2,32.7 19.2,35.1c0,0.3 0.6,2 1.4,3.7c2.1,4.5 5.2,16.6 7.1,27.7c3.4,19.3 6.6,30 12.3,41.5c4,8 13.2,21.5 14.7,21.5c2.3,0 7,-6.7 8.7,-12.3c0.9,-2.8 1.9,-8.2 2.3,-12c0.6,-6.2 0.5,-6.9 -1.6,-8.6l-2.2,-1.8l1,-21c0.6,-11.6 1.4,-21.6 1.7,-22.2c0.4,-0.6 2.6,-1.1 4.9,-1.1c5.9,0 16.5,-1.8 18.7,-3.2c2.8,-1.8 3.2,-0.6 1.9,4.7c-2.6,10.2 0.7,27 6.9,35.4c5.7,7.8 17.8,17.6 24,19.5c1.6,0.5 2.2,1.5 2.2,3.5c0,4.1 -4.9,9.2 -11.2,11.5c-3.1,1.2 -5.6,2.6 -5.6,3.1c-0.2,1.6 13.7,1 18.9,-0.8c6.5,-2.2 17,-8.4 19.9,-11.7c0.3,-0.3 3,-2.5 6,-5c3,-2.5 5.7,-4.7 6,-5c1.9,-2.2 16,-12.4 21.3,-15.5c6.8,-4 7.7,-5.1 9.9,-12.5l1.3,-4.5l13.5,-0.6c10.5,-0.4 14.8,-1.1 19.4,-2.8c3.2,-1.2 6.2,-2.1 6.7,-1.9c1.1,0.4 -4.6,11.8 -9.9,19.5c-2.3,3.4 -4.2,6.5 -4.2,6.9c0,0.3 -2.1,3.5 -4.7,7c-4.5,6.1 -6.3,7.7 -6.3,5.3c0,-0.5 -2.8,1.4 -6.3,4.3c-3.5,2.9 -7.6,6.2 -9.1,7.3c-1.6,1.1 -3.3,2.5 -4,3c-0.6,0.6 -2.7,2.2 -4.6,3.5c-1.9,1.3 -4.1,2.9 -4.9,3.5c-0.8,0.5 -5.5,5.1 -10.5,10c-11.1,10.9 -14.8,17.7 -17.4,31.5c-1.9,10.3 -2.1,8.7 2.9,31c1.2,5.2 2.5,10 2.8,10.5c0.3,0.6 1.1,3.7 1.7,7c0.6,3.3 2.3,10.5 3.8,16c3.9,14.3 6.5,24.1 8.2,31c0.9,3.3 2.2,8.5 2.9,11.5c6.4,25 6.8,28.1 6.2,43.5c-0.3,7.7 -1,16.3 -1.6,19c-3.4,16.4 -4.1,25.4 -4.1,53.4c0,26.5 0.2,29.2 2.1,34.9l2.1,6.2l59.3,0l5.6,2.9c7.3,3.6 10.7,5.5 20.5,11.3c4.5,2.7 8.4,4.8 8.8,4.8c0.3,0 3.7,2 7.5,4.5c3.8,2.5 7.2,4.5 7.4,4.5c0.3,0 6.3,3.7 13.4,8.1c7,4.5 15.1,9.6 17.8,11.2c2.8,1.7 5.2,3.4 5.5,3.7c0.3,0.3 3.4,2.4 7,4.5c3.6,2.1 6.7,4.2 7,4.5c0.3,0.3 2.3,1.7 4.5,3c2.2,1.3 4.2,2.6 4.5,2.9c0.3,0.4 3.2,2.4 6.5,4.6c3.3,2.2 6.2,4.2 6.5,4.5c0.3,0.3 2.5,1.9 5,3.5c2.5,1.7 5,3.3 5.5,3.7c0.6,0.5 6,4.4 12,8.9c13.1,9.7 12,8.8 11.2,9.6c-0.9,0.9 -19,-5.2 -30.7,-10.3c-1.9,-0.8 -4.4,-1.9 -5.5,-2.4c-1.1,-0.4 -4.9,-2.2 -8.5,-3.8c-18,-8.3 -37.9,-16.5 -47.5,-19.6c-13.4,-4.2 -29.5,-7.4 -29.5,-5.8c0,2.9 7.5,14.4 12.4,19.1c6,5.7 9.5,11.6 9.6,16c0,2.3 3.2,7.3 7.1,11.2c2.7,2.7 42,25.9 54.9,32.4c8.8,4.5 14.9,6.7 26.5,9.7c34.1,8.8 53.9,17.6 70,31.2l3,2.5l-3.2,0.1c-3.9,0 -19.2,-4.9 -28.3,-9.2c-13.1,-6 -18.7,-8.1 -28.5,-10.4c-5.5,-1.3 -11.4,-2.8 -13.1,-3.4c-4.3,-1.4 -5.7,-1.3 -7.6,0.9c-3.6,4.2 -3.3,5.7 3.7,16.2c7.2,11 16.1,25.5 18.7,30.9c11.4,23.5 17.1,36 17.5,39l0.5,3.5l-1.6,-2.9c-5.8,-10.4 -24.3,-38.9 -28.8,-44.2c-13.6,-16.3 -25,-27.7 -41.9,-41.9c-1.3,-1.1 -11.8,-9.2 -23.4,-18c-23.2,-17.5 -28.1,-21.3 -34,-26.5c-10.3,-9 -22.4,-21.3 -29.3,-30c-4.3,-5.2 -8.1,-10 -8.7,-10.6c-0.5,-0.6 -1.7,-2.2 -2.5,-3.4c-0.8,-1.2 -2.2,-3.2 -3.1,-4.4c-3.5,-4.6 -16.2,-26.1 -20.9,-35.6l-5.1,-10l-17.3,0l-17.3,0l0.8,4.8c0.5,2.6 1.3,6.3 1.8,8.2c4.3,15.2 5.6,19.3 7.8,25.5c5.5,14.9 15.8,37.6 17.5,38.3c0.5,0.2 0.8,0.8 0.8,1.3c0,1.3 11.2,18 17.4,25.9c6.8,8.6 11.8,14.5 24.5,28.5c5.1,5.7 16.3,18.5 19.2,21.9c1.3,1.6 3.1,3.7 3.9,4.5c0.8,0.9 2.6,3.2 4,5.1c1.3,1.9 3.3,4.4 4.3,5.5c2.2,2.4 15.7,22.1 15.7,22.9c0,0.4 1.2,2.5 2.7,4.9c2.7,4.3 12.3,23.1 12.3,24.2c0,0.5 2.6,6.6 5,12c1.7,3.6 7,17.9 7,18.8c0,0.5 0.6,2.3 1.4,4c0.8,1.8 3,8.6 5.1,15.2c2,6.6 4,13.1 4.5,14.5c0.5,1.4 1.8,5.9 3,10c1.2,4.1 2.5,8.6 3,10c0.5,1.4 1.8,5.9 3,10c1.2,4.1 2.5,8.6 3,10c0.4,1.4 1.5,4.8 2.3,7.5c3.6,12.2 9.2,29.9 12.9,40.5c2.1,6.3 4.4,13.1 4.9,15c0.6,1.9 1.6,4.9 2.3,6.5c0.7,1.7 1.9,4.6 2.6,6.5c3.2,8.4 11.3,27.9 13.7,32.8c1.5,2.8 2.3,5.5 1.9,5.9c-1,1 -11.9,-11 -17.4,-19.2c-2.6,-3.8 -4.9,-7.2 -5.3,-7.5c-2.5,-2.3 -14.6,-25.1 -20.9,-39.5c-4.3,-9.9 -4.8,-11.1 -6.5,-16c-1,-2.7 -2.1,-5.4 -2.5,-6c-0.4,-0.5 -1.7,-3.9 -3,-7.5c-1.2,-3.6 -2.8,-7.8 -3.5,-9.5c-0.7,-1.6 -2.2,-5.7 -3.3,-9c-1.1,-3.3 -4.4,-12.5 -7.2,-20.5c-2.8,-8 -6.3,-17.9 -7.7,-22c-1.4,-4.1 -2.9,-7.9 -3.3,-8.5c-0.4,-0.5 -1.7,-3.9 -3,-7.5c-1.3,-3.6 -3,-7.6 -3.7,-9c-0.7,-1.4 -1.3,-2.8 -1.3,-3.3c0,-0.6 -8,-18.1 -9.9,-21.7c-6.6,-12.3 -9.3,-16.9 -14.5,-24.5c-3.3,-4.9 -7,-10 -8.2,-11.3l-2.1,-2.3l-3.1,8.3c-2.9,7.9 -13.9,41.4 -16.7,50.8c-11.4,38.7 -14.1,51.3 -13.1,60.8c0.7,6 4,25 5.6,31.7c0.5,2.2 1.8,8.5 3,14c1.2,5.5 2.5,11.8 3,14c0.6,2.2 1.9,8.1 3,13c3.3,14.4 10.3,43.7 12.6,53c3.7,14.8 6.4,24.7 6.9,25.5c0.3,0.6 0,1 -0.7,1c-3,0 -23.2,-34.6 -28.3,-48.5c-1,-2.7 -2.1,-5.4 -2.5,-6c-1.7,-2.6 -6.5,-18 -8,-26.2c-1.3,-6.3 -2.3,-7.3 -3.3,-3.1c-0.3,1.3 -1.4,5.5 -2.5,9.3c-6.7,23.9 -6.7,42.3 0.2,85.5c0.8,5.2 2,12.7 2.5,16.5c0.6,3.9 1.6,9.3 2.2,12c0.5,2.8 1.2,6 1.5,7.3c0.9,4.4 -1.4,2.1 -4.4,-4.5c-4.9,-10.9 -8.9,-21.8 -11.7,-31.8c-0.9,-3.3 -2.3,-8.1 -3.1,-10.7c-0.8,-2.6 -1.9,-8.2 -2.5,-12.5c-0.6,-4.3 -1.5,-10.3 -2.1,-13.3c-1.5,-7.9 -2.2,-59.3 -1,-73.5c2,-23.7 5.3,-54.2 6.7,-62.5c4.2,-23.7 6.5,-35.2 7.3,-36.3c1.3,-1.8 5,-12.3 7.3,-21.2c3.6,-14 8.4,-31.1 12.5,-45c2.5,-8.2 4.4,-15.7 5.6,-21c1.1,-5.4 0.6,-14.1 -1,-17.1c-6.2,-11.4 -19,-30 -25,-36.2c-0.9,-1 -2.6,-3 -3.7,-4.3c-1.1,-1.3 -3.2,-3.9 -4.7,-5.6l-2.6,-3.3l-0.6,2.8c-0.3,1.5 -1,7.2 -1.6,12.7c-1.1,9.5 -3,21.1 -5,30c-2.4,10.6 -5.3,22.5 -6.7,27c-2.7,8.6 -6.5,19.9 -7.3,21.3c-0.4,0.8 -1,-12.7 -1.3,-30c-0.7,-31 -1.2,-39 -4.1,-64.3c-2.8,-24.6 -7.2,-49.9 -11.1,-63.5c-4.9,-17.1 -6.7,-20.9 -15.2,-32.1c-5.6,-7.4 -16.7,-17.7 -19.9,-18.5c-3.3,-0.9 -16.4,0.2 -17.6,1.4c-0.6,0.6 0.4,3.3 2.3,6.8c6.5,12 17.5,34 19.2,38.4c0.9,2.5 1.7,6.6 1.7,9c0,2.5 0.7,7.5 1.4,11.1c0.8,3.6 2,11 2.6,16.5c0.7,5.4 1.4,10.3 1.7,10.7c0.3,0.4 0.9,25.2 1.3,55c1,57.7 1.6,68.1 5.6,90.2c1.4,7.7 3.2,17.6 3.9,22c0.8,4.4 1.7,9 2.1,10.3c0.3,1.2 0.2,2.2 -0.3,2.2c-1.1,0 -6.1,-12 -9.5,-22.5c-1.1,-3.3 -3.2,-8.7 -4.8,-12c-1.6,-3.3 -3.8,-8.5 -5,-11.5c-1.1,-3 -2.5,-6.4 -3,-7.5c-0.8,-1.8 -3.2,-10.1 -6,-20.5c-1.6,-5.8 -4.8,-23.7 -8,-44.5c-1.3,-8.8 -2,-18.5 -2,-30c-0.2,-25.5 -3,-49 -8.2,-68c-0.6,-2.2 -4.4,-10.7 -8.4,-19c-6.9,-14.2 -9.9,-19.8 -17.1,-32.3l-3,-5.3l-1.9,2.8c-1.5,2.3 -1.9,4.6 -1.9,12.3c0,5.2 0.6,12 1.3,15c4.7,20.8 4.5,17.1 5.2,89c0.8,75 0.5,71.1 8.4,106c8.2,36.2 10.4,48.5 12.6,70c0.6,5.8 1.5,14.6 2.1,19.5c1.6,13.1 2.4,140.3 1,153.5c-2.6,24.6 -3.1,28.8 -4.6,34c-0.9,3 -2,6.3 -2.6,7.2c-0.5,1 -0.9,2.3 -0.9,2.9c0,0.6 -0.6,2.5 -1.4,4.2c-0.7,1.8 -2.4,6.1 -3.6,9.7c-2,5.7 -6.4,15.6 -11.9,27c-4.5,9.1 -17.9,32 -18.8,32c-0.3,0 -0.3,-1.3 -0.1,-3Z" style="fill:rgb(0,137,203);fill-rule:nonzero;"/>            <path d="M802.5,665.4c-4.7,-1.2 -11.3,-4 -15,-6.2c-9.2,-5.6 -20.8,-19.1 -25.4,-29.7c-1.2,-2.7 -2.7,-6.1 -3.4,-7.4c-0.7,-1.5 -1.2,-6.9 -1.1,-14c0.1,-10.1 0.4,-12.6 2.9,-19.1c6.4,-17.1 17,-26.8 34.2,-31.1c13.2,-3.3 32,-2.1 41,2.7c1.6,0.7 3.4,1.4 4.1,1.4c0.6,0 1.2,0.5 1.2,1c0,0.6 0.6,1 1.3,1c3.7,0 13.9,10.7 18.6,19.3c10.8,20.2 6.9,47.1 -9.3,64c-7.8,8.2 -19.2,15.7 -23.8,15.7c-0.8,0 -1.9,0.5 -2.5,1.1c-1.1,1.1 -19.4,2.2 -22.8,1.3Z" style="fill:rgb(0,137,203);fill-rule:nonzero;"/>            <path d="M611.2,610c-6.4,-3.7 -11.5,-10.5 -13.7,-18.3c-1.5,-5.3 -1.5,-6.2 -0.1,-11.2c1.9,-6.3 6.2,-11.3 12.6,-14.6c6.2,-3.2 16.9,-3.2 23.1,0c11.7,6 16.6,17 12.4,27.7c-5.4,13.6 -12.2,19.4 -22.7,19.4c-5.2,0 -7.3,-0.6 -11.6,-3Z" style="fill:rgb(0,137,203);fill-rule:nonzero;"/>            <path d="M884.9,592.1c-7.3,-2.4 -12.7,-7.4 -16.9,-15.8c-6.3,-12.3 -1.9,-23.2 12.3,-30.3c11.2,-5.6 22.2,-3.6 30.5,5.5c6.2,6.6 8.6,12 8.6,19c0.1,9.7 -3.5,15.1 -13.4,19.9c-4,1.9 -17.2,3 -21.1,1.7Z" style="fill:rgb(0,137,203);fill-rule:nonzero;"/>            <path d="M710.5,586.3c-5.9,-0.8 -15.1,-4.7 -17.5,-7.3c-0.3,-0.3 -1.7,-1.3 -3.2,-2.3c-4.5,-2.8 -13.2,-14.2 -17.4,-22.5c-3.5,-6.9 -3.9,-8.5 -3.9,-15.2c0,-8.4 1.4,-12.1 7.6,-20.6c4,-5.5 14.7,-15.4 16.6,-15.4c0.6,0 1.3,-0.3 1.5,-0.7c0.6,-1.6 7.5,-4.3 13,-5.3c16.2,-3 32.7,6.4 43.4,24.5c6.4,10.9 7.7,15.3 7.2,23.7c-0.7,10.4 -5.1,18.9 -14.4,27.8c-10.7,10.1 -22.2,14.8 -32.9,13.3Z" style="fill:rgb(0,137,203);fill-rule:nonzero;"/>            <path d="M289.5,567.1c-6.8,-1.1 -12.8,-2.8 -16.2,-4.6c-1.5,-0.8 -3.4,-1.5 -4,-1.5c-0.7,0 -1.3,-0.4 -1.3,-1c0,-0.5 -0.6,-1 -1.3,-1c-3.1,0 -13.3,-9.8 -18.1,-17.3c-2,-3.1 -3.6,-5.9 -3.6,-6.3c0,-0.3 -0.7,-2 -1.5,-3.7c-4.4,-9.7 -5.9,-30 -2.9,-41.9c3,-12.4 7.8,-22.5 14,-29.6l4.4,-5.1l-3.2,-0.4c-2.9,-0.3 -2.8,-0.4 0.9,-0.5c2.8,-0.1 5,-0.9 6.6,-2.5c3.4,-3.1 14,-8.3 20.9,-10.1c8.3,-2.3 25,-2.1 32.1,0.3c8.5,3 15.5,6.7 22.2,11.9c13.1,10.2 19.8,19.4 26.6,36.2c1.8,4.6 2,27.3 0.2,29.2c-0.7,0.6 -1.3,1.8 -1.3,2.6c0,2.3 -4.1,10.4 -8,15.7c-8.8,11.9 -24.7,22.9 -40.5,28c-6,1.9 -19.1,2.7 -26,1.6Z" style="fill:rgb(0,137,203);fill-rule:nonzero;"/>            <path d="M565.5,561.4c-1.1,-0.2 -4,-1 -6.5,-1.6c-13.7,-3.4 -26.6,-13.2 -34.4,-26.2c-10.6,-17.6 -10.9,-39.7 -0.8,-56.7c7.5,-12.8 20.9,-22.3 37,-26.3c8.2,-2.1 26.1,-2.1 33.9,-0.1c17.6,4.5 30,16 36.3,33.5c2,5.5 2.3,8.5 2.4,20c0,11.7 -0.3,14.3 -2.3,20c-6.1,16.7 -20.5,30 -38.6,35.6c-5,1.5 -23.2,2.7 -27,1.8Z" style="fill:rgb(0,137,203);fill-rule:nonzero;"/>            <path d="M939.5,561.3c-13.9,-3.8 -26.1,-16.1 -31.9,-32.1c-3.2,-9 -3.6,-22.2 -0.9,-30.5c5.3,-16.5 18.1,-25.1 39.3,-26.4c16.4,-1 27.9,2.3 36.3,10.2c9.1,8.7 14.1,26.7 11.7,42.2c-2.2,13.8 -11.5,25.1 -26.6,32.4c-8.1,3.9 -9.7,4.3 -17.4,4.5c-4.7,0.2 -9.4,0 -10.5,-0.3Z" style="fill:rgb(0,137,203);fill-rule:nonzero;"/>            <path d="M785,544.1c-7.2,-3.9 -10,-9.6 -10,-20.7c0,-11.7 3.8,-19.4 11.8,-24.1c4.1,-2.5 5.7,-2.8 12.7,-2.7c9.3,0 13.4,1.6 18.7,7.2c4.6,4.8 6.8,10.8 6.8,18.1c0,10.3 -4.6,17.8 -13.5,22c-6.1,2.9 -21.3,2.9 -26.5,0.2Z" style="fill:rgb(0,137,203);fill-rule:nonzero;"/>            <path d="M849.3,532.2c-2.3,-0.9 -5.8,-3 -7.8,-4.7c-3.2,-2.7 -3.5,-3.5 -3.5,-8.3c0,-5.5 2,-9.8 7.4,-15.5c4.1,-4.4 13.3,-8.7 18.7,-8.7c7.8,0 11.7,2.9 14.4,10.6c1.6,4.6 1.6,5.2 0.1,10.6c-2.1,7 -7.4,12.9 -14.1,15.8c-5.6,2.4 -9.6,2.5 -15.2,0.2Z" style="fill:rgb(0,137,203);fill-rule:nonzero;"/>            <path d="M747.3,501c-8,-1.7 -14.5,-7.1 -18.4,-15.5c-2.1,-4.3 -2.4,-6.5 -2.4,-15.5c0,-9.7 0.3,-10.9 2.9,-15.5c6.3,-11.3 13.6,-15.7 25.5,-15.8c12.7,0 20.1,4.8 26.8,17.3c2.9,5.5 3.3,7.2 3.3,13.4c0,4 -0.8,9.4 -1.8,12.4c-2.2,6.6 -8.5,14 -14.3,16.9c-5.1,2.5 -15.4,3.6 -21.6,2.3Z" style="fill:rgb(0,137,203);fill-rule:nonzero;"/>            <path d="M662.7,491.9c-12.3,-2.4 -22.2,-13.8 -24.8,-28.5c-2.4,-13.7 0.6,-28.8 6.5,-32.8c1.2,-0.8 3.9,-3.1 6.1,-5.1c6.5,-5.9 13.8,-8.9 22.7,-9.4c11.6,-0.5 20.7,3.5 30.3,13.3c8.9,9.1 9,9.4 9,24.1c0,12.9 0,13 -3.4,19c-8.7,15.5 -26.8,23.1 -46.4,19.4Z" style="fill:rgb(0,137,203);fill-rule:nonzero;"/>            <path d="M819.5,477.1c-11.4,-2.9 -24.5,-17.1 -24.5,-26.6c0,-7.3 10.3,-21 18.8,-25.1c5.4,-2.5 14.7,-2.3 20.6,0.6c8.4,4.2 16.3,13.2 19,21.7c1.6,4.7 1.6,5.7 0.2,10.1c-1.6,5.7 -4.4,9.2 -10.1,13.1c-7.6,5.2 -17.7,7.8 -24,6.2Z" style="fill:rgb(0,137,203);fill-rule:nonzero;"/>            <path d="M418.6,472.3c-2.2,-7.8 -2.5,-13.1 -1.2,-18.2c0.8,-2.9 1.7,-5.6 2,-5.9c0.6,-0.5 4.5,0.2 16.4,2.9l5.2,1.2l0,17.2l-6.2,2.3c-7.8,2.7 -15.4,3 -16.2,0.5Z" style="fill:rgb(0,137,203);fill-rule:nonzero;"/>            <path d="M881.2,472.1c-17.4,-6.5 -26.5,-24 -23.3,-44.8c2.6,-16.7 12.7,-26.4 30.6,-29.3c16.5,-2.6 33.8,5.4 40.8,19.1c3.2,6.1 5.1,16.5 4.2,23.4c-1.4,11.3 -10.6,23.9 -21.7,30c-4.7,2.6 -6.5,3 -15.3,3.2c-8,0.3 -11.1,-0.1 -15.3,-1.6Z" style="fill:rgb(0,137,203);fill-rule:nonzero;"/>            <path d="M371,461.4c-2.9,-0.6 -4.3,-1.1 -12.3,-5c-4.9,-2.3 -11.4,-8.2 -14.5,-13c-4.8,-7.3 -6.7,-17.1 -5.8,-29.2c0.7,-9.4 2.8,-15.1 7.8,-21.5c9.3,-11.8 18.8,-16.7 32.8,-16.7c8.9,0 15.4,1.9 22.5,6.7c2.8,1.8 7.8,5.2 11.2,7.4c8.9,5.9 11.3,11.1 11.3,24.9c0,15.2 -3.3,25 -11.3,33.7c-8,8.7 -15.8,12 -29.7,12.7c-5.2,0.3 -10.6,0.2 -12,0Z" style="fill:rgb(0,137,203);fill-rule:nonzero;"/>            <path d="M550.2,437.5c-6.4,-2.8 -9.2,-7.5 -9.2,-15.3c0,-6.4 1.5,-11 5,-15.4c1.9,-2.5 2.8,-2.8 8,-2.8c5.7,0 16.5,2.2 20.5,4.2c3.3,1.7 5.5,5.1 5.5,8.5c0,8.1 -7.9,17.7 -17.1,20.6c-6.6,2 -8.4,2.1 -12.7,0.2Z" style="fill:rgb(0,137,203);fill-rule:nonzero;"/>            <path d="M441.2,436.1c-1.9,-0.5 -3.8,-1.3 -4.4,-1.9c-1.7,-1.7 -2.1,-9.6 -0.8,-18.6l1.2,-8.6l21.8,0l0,2.5c0,2 0.5,2.5 2.5,2.5l2.5,0l0,21.6l-3.4,1.2c-4.5,1.6 -15.2,2.3 -19.4,1.3Z" style="fill:rgb(0,137,203);fill-rule:nonzero;"/>            <path d="M593.2,432.5c-2.6,-2.2 -3.2,-3.4 -3.2,-6.5c0,-8.6 10.3,-13.2 16.5,-7.4c2.4,2.2 2.7,3.1 2.2,7.1c-0.6,5.6 -3.1,8.3 -8.4,9c-3.2,0.4 -4.4,0.1 -7.1,-2.2Z" style="fill:rgb(0,137,203);fill-rule:nonzero;"/>            <path d="M290,428c-8.9,-4.8 -17.4,-16.1 -18.6,-24.8c-0.9,-7 1,-12.5 6.4,-18.6c6,-6.8 10,-8.6 19,-8.6c11.9,0 20.2,5.9 26.3,18.6c3.5,7.5 3.6,10 0.4,16.7c-3.4,7.2 -9.6,13.6 -16.5,17c-4.4,2.3 -12.6,2.1 -17,-0.3Z" style="fill:rgb(0,137,203);fill-rule:nonzero;"/>            <path d="M499.4,428c-14,-6.2 -18,-30.9 -6.9,-42.3c3.6,-3.7 10.8,-6.7 16,-6.7c4.6,0 11.7,2.7 14.9,5.7c9.7,8.9 10.1,27.7 0.8,36.8c-8.5,8.3 -16.2,10.4 -24.8,6.5Z" style="fill:rgb(0,137,203);fill-rule:nonzero;"/>            <path d="M740,421.3c-5.8,-1.1 -17.2,-5.5 -19,-7.3c-0.3,-0.3 -2.5,-1.9 -4.9,-3.5c-9.4,-6.3 -18.2,-20.1 -21.7,-33.5c-1.9,-7.4 -1.6,-28.9 0.4,-32.5c0.6,-1.1 2.1,-4.4 3.3,-7.2c1.2,-2.9 2.5,-5.3 3,-5.3c0.4,0 1,-0.8 1.3,-1.7c1.5,-4.5 12.3,-13.8 21.2,-18.2c10.3,-5 16.8,-6.4 29.4,-6.5c12.2,0 16.6,1 26.9,6.1c6.9,3.4 16.6,13.1 21.4,21.3c6,10.3 8.1,18.6 8.1,31.5c-0.1,13.2 -2.4,22.1 -8.3,31.2c-7.5,11.7 -14.6,17.1 -31.6,24.3c-3,1.3 -24.8,2.3 -29.5,1.3Z" style="fill:rgb(0,137,203);fill-rule:nonzero;"/>            <path d="M216.2,419.4c-6.1,-1.7 -11.7,-4.9 -14.9,-8.7c-6.4,-7.5 -8.2,-19.6 -4.2,-27.2c2.4,-4.6 12.2,-14.5 14.3,-14.5c0.8,0 1.6,-0.6 1.9,-1.2c0.2,-0.9 2.9,-1.3 8.8,-1.3c8,0 8.6,0.2 13.2,3.4c16.5,11.9 18.2,36.8 3.2,46.1c-3.7,2.3 -12,5 -15,4.9c-1.1,0 -4.4,-0.7 -7.3,-1.5Z" style="fill:rgb(0,137,203);fill-rule:nonzero;"/>            <path d="M636.5,415.7c-2.7,-0.7 -5.8,-2.8 -9.6,-6.6c-6.6,-6.6 -8.6,-12.5 -7.5,-21.9c1.5,-12.8 11.1,-20.2 26.4,-20.2c15.5,0 23.2,7.6 23.2,22.7c0,20.8 -13,31.2 -32.5,26Z" style="fill:rgb(0,137,203);fill-rule:nonzero;"/>            <path d="M945.8,415.7c-13.8,-4.4 -22.5,-21.3 -18,-34.8c2.9,-8.5 12.8,-13.9 25.6,-13.9c11.8,0 17.7,3.5 21.7,12.8c2.3,5.3 2.4,12.6 0.3,19.8c-2.1,7.3 -9.2,14.6 -15.7,16.3c-5.6,1.4 -9.1,1.3 -13.9,-0.2Z" style="fill:rgb(0,137,203);fill-rule:nonzero;"/>            <path d="M850.2,386.3c-4.5,-2.2 -11.7,-9.6 -13.9,-14.1c-2.6,-5.3 -2.3,-15.5 0.4,-20.7c4.7,-8.9 12.3,-13 23.8,-12.9c9.8,0.1 15.4,2.7 20,9.2c2.8,4.1 3,4.9 3,14.1c0,6.6 -0.5,10.8 -1.5,12.7c-2.3,4.6 -7.1,9.4 -11.7,11.5c-5.3,2.4 -15.4,2.5 -20.1,0.2Z" style="fill:rgb(0,137,203);fill-rule:nonzero;"/>            <path d="M434.5,382.9c-22.8,-8.2 -35.3,-30 -31.7,-55.3c0.7,-4.6 1.9,-9.7 2.7,-11.3c0.8,-1.5 1.5,-3.4 1.5,-4c0,-0.7 0.5,-1.3 1,-1.3c0.6,0 1,-0.6 1,-1.3c0,-1.3 3.8,-6.4 7.1,-9.6c10.8,-10.7 26.3,-15.3 44.1,-13.1c26.1,3.1 40.8,20.8 40.8,49c0,9.8 -1.7,18.3 -5.3,25.9c-2.8,6.1 -13,16.2 -18.7,18.5c-2.5,1 -5.4,2.3 -6.5,2.9c-1.1,0.6 -8.2,1.3 -16,1.4c-12.3,0.3 -14.7,0.1 -20,-1.8Z" style="fill:rgb(0,137,203);fill-rule:nonzero;"/>            <path d="M592,381.1c-18.3,-4 -30,-24.7 -27.1,-48.1c1.2,-9.5 4.6,-17.3 9.7,-22.7c14.7,-15.1 43.2,-13.1 54.4,4c5.4,8.3 7.3,14.9 7.3,26.3c0.1,9.5 -0.1,10.5 -3.2,16.9c-6.2,12.6 -20.6,23.3 -32.1,24.1c-3,0.1 -7.1,-0.1 -9,-0.5Z" style="fill:rgb(0,137,203);fill-rule:nonzero;"/>            <path d="M532.7,376c-4.7,-1.2 -8.3,-3.5 -12.5,-8c-5.6,-6 -5.5,-8.3 0.9,-21.9c4.6,-10 10.4,-16.1 15,-16.1c1.6,0 4.7,0.9 6.7,1.9c8.6,4.4 13.1,12.1 13.9,23.8c0.6,8.5 -1.6,14.4 -6.9,18c-3.8,2.5 -11.7,3.6 -17.1,2.3Z" style="fill:rgb(0,137,203);fill-rule:nonzero;"/>            <path d="M271,372.3c-7.9,-1.2 -15.3,-6.6 -19.1,-14c-2,-4 -2.4,-6.2 -2.4,-13.8c0,-11.7 2.2,-16.1 9.9,-19.5c7.4,-3.2 21.9,-3.3 29.3,0c4.6,1.9 5.6,2.9 7.8,7.6c4.2,8.8 3,24.6 -2.5,32c-3.9,5.4 -14.7,9 -23,7.7Z" style="fill:rgb(0,137,203);fill-rule:nonzero;"/>            <path d="M347,363.3c-9.9,-3.3 -17,-11.5 -17,-19.3c0.1,-10.7 8.9,-20.6 19.3,-21.7c10.5,-1.1 18.1,3.3 21,12.1c2.1,6.2 2.1,8.5 0.1,14.6c-3.2,9.9 -15.1,17.2 -23.4,14.3Z" style="fill:rgb(0,137,203);fill-rule:nonzero;"/>            <path d="M918.4,349c-10.7,-2.3 -23.6,-12.4 -28.3,-22.2c-4.4,-9.2 -5,-24.1 -1.4,-35.3c4.3,-13.2 16.1,-25.6 28.4,-29.9c5.8,-2.1 17.7,-2 24.2,0c14.7,4.7 29.7,20.2 34.3,35.4c1.8,6 1.8,11 -0.2,17.8c-3.8,13.1 -14.1,23.5 -30.7,31.2c-7.3,3.5 -18.3,4.7 -26.3,3Z" style="fill:rgb(0,137,203);fill-rule:nonzero;"/>            <path d="M179.1,335.9c-10.1,-2 -18.5,-8.2 -27,-19.8c-6.5,-9 -9.1,-14.8 -9.8,-22.5c-0.8,-8.9 1,-15.3 6.7,-23.3c4.1,-5.9 15.2,-17.3 16.8,-17.3c0.3,0 3.4,-1.4 6.9,-3.1c6.3,-3.1 6.7,-3.1 18.1,-2.7c6.4,0.2 12.6,0.9 13.7,1.6c1.1,0.6 3.6,1.8 5.6,2.7c5,2.2 14.2,10.7 17.1,15.7c3.9,6.8 5,12.3 4.5,23.8c-0.5,12.8 -1.7,17.5 -6.3,24.8c-4.8,7.4 -10.3,12.4 -17.8,16c-9.4,4.7 -18.9,6 -28.5,4.1Z" style="fill:rgb(0,137,203);fill-rule:nonzero;"/>            <path d="M667.3,329.4c-4.9,-2.9 -8.9,-9 -9.9,-15c-0.8,-5.1 1.2,-8.2 10.1,-15.5c6.2,-5.1 12.1,-7.5 15.6,-6.4c2.8,0.9 6.3,4.5 8.2,8.4c3.2,6.5 1.4,21.3 -3.2,26.1c-5.5,5.7 -13.7,6.7 -20.8,2.4Z" style="fill:rgb(0,137,203);fill-rule:nonzero;"/>            <path d="M296,314c-7.9,-0.8 -13.4,-2.2 -18.7,-4.6c-1.7,-0.8 -3.4,-1.4 -3.8,-1.4c-2.8,0 -17.4,-12.1 -23,-19c-6.1,-7.6 -8.5,-11.1 -11.3,-16.2c-11.7,-22.1 -10.7,-44.4 3,-67.1c3.7,-6.2 17.9,-21.7 19.9,-21.7c0.4,0 1.4,-0.6 2.2,-1.4c0.7,-0.8 4.1,-2.8 7.4,-4.5c23.1,-11.6 54.6,-9.1 77.3,6.2c7.7,5.2 22.3,20.7 24.6,26.2c4.4,10 4.9,13.4 4.8,30.5c0,15.7 -0.2,16.9 -3,25.1c-4.5,12.6 -13,24.8 -22.4,31.8c-1.9,1.4 -4,3.1 -4.6,3.7c-1.1,1 -12.5,6.7 -16.9,8.5c-8.2,3.3 -23.9,5 -35.5,3.9Z" style="fill:rgb(0,137,203);fill-rule:nonzero;"/>            <path d="M806,305c-20.8,-2.6 -37.2,-13 -49.7,-31.5c-8.6,-12.7 -12.3,-24.9 -12.3,-40.8c0,-8 1.8,-20.8 3.1,-22.2c0.5,-0.5 0.9,-1.5 0.9,-2.3c0,-4.7 8.9,-19.1 16.7,-26.9c4.8,-4.8 16.9,-13.3 19,-13.3c0.3,0 1.9,-0.6 3.6,-1.4c6.7,-3 15.9,-4.6 27.2,-4.6c17.1,0 29.2,3.2 43.9,11.5c8.2,4.6 9.6,5.9 14.3,12.5c2.9,4.1 5.2,8 5.3,8.7c0,0.6 0.4,1.3 0.9,1.5c0.4,0.2 2.3,4.6 4.2,9.8c3.1,8.8 3.3,10.6 3.7,24.6c0.4,16.1 -0.6,22.6 -4.9,32.2c-5,11.1 -14.9,23 -23.9,28.8c-2.5,1.6 -4.7,3.1 -5,3.4c-0.6,0.6 -5.9,3.2 -11,5.3c-10,4.3 -24.2,6.1 -36,4.7Z" style="fill:rgb(0,137,203);fill-rule:nonzero;"/>            <path d="M516,303.2c-10,-3.7 -15.4,-8.8 -20.3,-19.4c-7.3,-15.4 -4.7,-39.6 5.3,-49.8c4.4,-4.5 10.1,-7.7 16.9,-9.4c7.8,-2 11.7,-2 19.4,0c16.8,4.3 25.9,18 26,39c0.1,9.4 -0.1,10.5 -3.1,16.6c-4.9,10 -12.4,17.2 -22.9,21.9c-7.3,3.4 -14.2,3.7 -21.3,1.1Z" style="fill:rgb(0,137,203);fill-rule:nonzero;"/>            <path d="M601.5,282.6c-6.3,-2.8 -11.5,-9.8 -11.5,-15.4c0,-3.2 2.4,-8.6 4.9,-11.1c3.9,-3.8 7.1,-5.1 12.8,-5.1c10.1,0 15.3,5.2 15.3,15.5c0,6.6 -4.1,12.7 -10.3,15.6c-4.9,2.2 -7.1,2.3 -11.2,0.5Z" style="fill:rgb(0,137,203);fill-rule:nonzero;"/>            <path d="M402.3,281.4c-4.3,-1.8 -9.4,-7.1 -12.2,-12.5c-6.8,-13 -1.4,-31.6 11.1,-38c5,-2.6 15.8,-2.5 21.4,0c4.4,2 9.1,7.2 12.4,13.6c2.7,5.3 2.7,17.3 0.1,23.1c-1.9,4.1 -8.7,10.1 -15.8,13.7c-3.9,2 -12.5,2.1 -17,0.1Z" style="fill:rgb(0,137,203);fill-rule:nonzero;"/>            <path d="M672.5,277.9c-7.6,-1.2 -14.9,-5.5 -21.4,-12.4c-22.1,-23.6 -17.3,-60 9.7,-73.2c5.3,-2.6 6.5,-2.8 18.3,-2.8c7.8,0 13.1,0.4 14,1.1c0.8,0.6 2.5,1.5 3.9,1.9c9.5,2.9 24.1,18.1 28.3,29.5c3.4,9.1 1.3,26 -4.5,36.8c-8.2,15.3 -26.8,22.7 -48.3,19.1Z" style="fill:rgb(0,137,203);fill-rule:nonzero;"/>            <path d="M573.5,235.4c-4.9,-0.8 -13.4,-5.4 -16.4,-9.1c-4.4,-5.3 -6.4,-13.6 -5.9,-23.6c0.6,-11.3 3.7,-18 10.5,-22.1c4.3,-2.7 5.8,-3 15.4,-3.4c9.2,-0.4 11.2,-0.1 15.7,1.8c6,2.6 11.1,7.8 14.4,14.7c1.9,4 2.2,6.5 2.3,14.8c0,8.9 -0.3,10.4 -2.5,14c-2.5,4.2 -7.8,9.5 -9.5,9.5c-0.5,0 -2.3,0.7 -3.9,1.5c-3,1.6 -14.8,2.7 -20.1,1.9Z" style="fill:rgb(0,137,203);fill-rule:nonzero;"/>            <path d="M469.8,232.9c-6.9,-1.6 -13,-9.1 -14.4,-17.6c-0.6,-3.9 -0.4,-4.2 6.1,-10.6c11.5,-11.4 18.3,-13.3 24.5,-6.9c5.2,5.5 6.7,12.7 4.5,21.2c-2,7.6 -3.1,9.6 -7,11.9c-3.9,2.4 -9,3.1 -13.7,2Z" style="fill:rgb(0,137,203);fill-rule:nonzero;"/>            <path d="M412,207.3c-3.2,-0.4 -7,-1.7 -12.9,-4.6c-5.1,-2.5 -11.4,-11.2 -14.9,-20.7c-2.5,-6.7 -2.4,-26.7 0.2,-33.5c2.9,-7.5 11.1,-17.5 14.4,-17.5c0.6,0 1.2,-0.4 1.2,-0.8c0,-1.5 11.8,-4.2 18.2,-4.2c18.7,0 31.5,11.3 34.9,30.5c2.7,15.9 -0.9,28.6 -10.9,38.4c-9.7,9.4 -20,13.7 -30.2,12.4Z" style="fill:rgb(0,137,203);fill-rule:nonzero;"/>            <path d="M490.5,180c-14.6,-4 -25.8,-14.8 -33,-32c-6.6,-15.6 -2.9,-36.3 8.2,-46.5c2,-1.8 6.5,-4.8 10.1,-6.6l6.5,-3.4l15.1,0c15.5,0 20.2,0.9 27.6,5.4c5.5,3.3 12.1,11 15.2,17.7c3.1,6.5 3.2,7.5 3.3,18.9c0,11.1 -0.2,12.4 -2.7,17.5c-8.6,17.5 -35.7,33.1 -50.3,29Z" style="fill:rgb(0,137,203);fill-rule:nonzero;"/>            <path d="M619.5,176.4c-6.7,-3.5 -11.5,-10.9 -11.5,-17.9c0,-3.5 0.7,-4.6 6.5,-10.1c6.4,-6.1 13.6,-10.4 17.4,-10.4c3,0 8.1,4.9 10.2,9.8c4.5,10.4 -0.2,26 -8.9,29.3c-3.6,1.4 -10.4,1.1 -13.7,-0.7Z" style="fill:rgb(0,137,203);fill-rule:nonzero;"/>        </g>        <g transform="matrix(2.04635,0,0,2.04817,615.208,628.023)">            <path d="M1018,220l-20.982,0c-0.937,-0.07 -1.52,-0.169 -1.618,-0.3c-0.163,-0.163 -0.326,-1.421 -0.441,-3.275l-0.059,-5.125c0,-3.265 -0.04,-5.31 -0.174,-6.421c-0.065,-0.95 -0.188,-1.246 -0.422,-1.059c-0.158,0.016 -0.356,0.259 -0.604,0.68c-4.097,6.92 -14.082,13.84 -23.686,16.684c-1.084,0.184 -2.284,0.395 -3.514,0.616c-2.66,0.454 -6.035,0.845 -9.324,1.131c-8.458,0.084 -17.245,-1.627 -23.38,-4.732c-0.675,-0.541 -1.554,-1.055 -2.409,-1.395c-5.042,-3.339 -10.681,-9.585 -13.287,-14.704c-1.19,-2.306 -2.104,-4.256 -2.805,-6.57c-0.185,-0.762 -0.41,-1.649 -0.677,-2.673c-0.904,-4.34 -1.307,-10.329 -1.483,-21.065c-0.099,-6.735 -0.135,-15.623 -0.135,-27.492l0,-42.3l10.9,0c7.8,0 11,0.4 11.3,1.3c0.135,0.27 0.27,3.969 0.387,9.834l0.213,27.566c0.192,30.57 0.477,39.053 1.654,43.217c0.672,3.285 1.643,5.394 3.049,7.298c0.607,0.999 1.204,1.713 1.769,2.104c0.415,0.447 0.857,0.903 1.328,1.381c0.304,0.304 0.616,0.599 0.936,0.883c0.259,0.49 0.749,0.982 1.364,1.317c0.373,0.209 0.71,0.386 1.011,0.533c1.627,1.104 3.388,2.001 5.241,2.695c1.311,0.579 3.082,1.061 5.102,1.375c5.757,0.996 11.954,0.323 17.507,-1.88c1.333,-0.477 2.469,-0.994 3.27,-1.517c1.45,-0.777 2.834,-1.668 4.129,-2.671c1.131,-0.394 2.827,-2.03 4.84,-4.735c0.772,-1.041 1.33,-1.879 1.697,-2.571c2.298,-3.57 3.675,-6.197 4.529,-10.942c1.292,-4.315 1.774,-16.742 1.774,-41.587c0,-24.488 0.268,-32.617 1.143,-33.6l18.457,0l3.4,0.1l0,117.9Zm-687,0l-22.811,0c-0.121,-0.088 -0.189,-0.19 -0.189,-0.3l0,-187.7l23,0l0,42.1c-0.1,23.2 0.1,42.3 0.3,42.5c0.023,0.023 0.074,0.017 0.151,-0.015c0.016,0.126 0.033,0.199 0.049,0.215c0.222,0.222 0.389,0.006 0.461,-0.527c0.432,-0.307 1.048,-0.807 1.778,-1.442c0.101,0.002 0.16,-0.05 0.181,-0.158c0.799,-0.701 1.72,-1.549 2.68,-2.473c2.981,-2.859 6.451,-5.282 10.276,-7.239c8.174,-4.116 17.947,-6.125 27.765,-5.906c4.598,0.138 9.26,0.777 13.859,1.945c23.552,6.013 39.152,24.512 42.606,49.205c0.434,3.434 0.672,7.577 0.719,11.646c-0.015,1.206 -0.056,2.422 -0.125,3.649c-0.443,8.182 -2.204,15.815 -5.112,22.673c-0.487,1.031 -1.025,2.126 -1.588,3.227c-0.335,0.702 -0.657,1.391 -0.961,2.056c-2.758,5.064 -6.2,9.611 -10.241,13.533c-0.587,0.526 -1.182,1.078 -1.758,1.633c-5.656,5.027 -12.374,8.896 -19.953,11.343c-1.146,0.285 -2.366,0.602 -3.587,0.935c-5.8,1.6 -10.5,2.1 -16.8,2c-0.852,-0.018 -1.684,-0.026 -2.48,-0.025c-12.401,-0.755 -24.043,-5.325 -32.92,-13.275c-0.494,-0.441 -0.979,-0.87 -1.443,-1.277c-1.593,-1.785 -3.278,-3.323 -3.957,-3.323c-0.01,0 -0.021,0.009 -0.03,0.028c-0.033,-0.019 -0.057,-0.028 -0.07,-0.028c-0.187,0 -0.199,2.988 -0.118,6.74l0.018,0.76l0.3,7.5Zm441,0l-11,0l0,-188l23.1,0c0,0 -0.147,72.379 -0.144,79.731c0.001,3.462 0.012,5.511 0.044,5.669c0,0.6 0.6,0.1 1.4,-0.9c0.211,-0.29 0.394,-0.587 0.545,-0.874c0.918,-0.814 2.089,-1.903 3.355,-3.126c4.069,-3.946 8.679,-7.013 13.822,-9.209c0.52,-0.188 1.047,-0.386 1.578,-0.591c0.486,-0.197 0.945,-0.382 1.382,-0.555c3.493,-1.222 7.214,-2.071 11.16,-2.55c2.306,-0.125 5.22,-0.165 9.258,-0.195c1.845,0 3.621,0.011 5.259,0.033c5.287,0.504 10.28,1.595 14.93,3.221c0.817,0.318 1.674,0.64 2.538,0.953c7.21,2.9 13.529,7.129 18.762,12.462c5.116,5.441 9.027,11.373 11.789,17.946c1.699,4.088 2.991,8.461 3.842,13.078c0.487,2.676 0.83,5.448 1.031,8.321c0.206,3.109 0.226,6.308 0.049,9.586c-0.764,14.524 -5.345,27.05 -13.139,36.781c-0.121,0.136 -0.242,0.276 -0.361,0.419c-1.244,1.492 -3.243,3.672 -4.916,5.285c-4.477,4.196 -9.701,7.677 -15.601,10.346c-2.775,1.15 -6.254,2.39 -9.115,3.179c-4.377,1.03 -9.478,1.644 -14.472,1.803c-1.107,0.025 -2.275,0.037 -3.51,0.036c-4.578,-0.054 -8.891,-0.515 -12.26,-1.414l0.174,-0.035l-1.834,-0.458c-8.511,-2.695 -15.345,-6.615 -20.866,-11.942c-0.774,-0.748 -1.513,-1.452 -2.182,-2.084c-1.148,-1.521 -2.469,-2.916 -3.018,-2.916c-0.026,0 -0.051,0.03 -0.075,0.087c-0.071,-0.057 -0.113,-0.087 -0.125,-0.087c-0.2,0 -0.3,3 -0.2,6.8c0,3.7 0,7.3 -0.1,8c-0.1,0.9 -2.999,1.2 -11.1,1.2Zm-235.964,-118.461c-4.507,-1.209 -9.32,-1.942 -14.536,-2.239c-3.198,-0.162 -6.263,-0.151 -9.211,0.038c-1.743,0.139 -3.409,0.304 -4.875,0.49c-1.167,0.162 -2.317,0.354 -3.449,0.579c-5.497,1.181 -11.285,3.319 -16.629,6.228c-4.834,2.791 -9.4,6.396 -13.836,10.865c-9.445,9.566 -15.335,20.526 -17.512,32.479c-0.296,2.692 -0.388,6.026 -0.388,11.021c0,4.451 0.051,7.526 0.265,10.038c0.182,1.148 0.393,2.302 0.635,3.462c4.192,19.959 20.595,38.008 40.199,45.137c1.536,0.365 3.22,0.805 4.801,1.263c8.6,2.4 21.2,2.6 31,0.5c1.122,-0.259 2.261,-0.501 3.343,-0.715c14.799,-4.267 28.554,-14.957 36.692,-28.527c4.052,-7.001 6.565,-14.811 7.594,-23.456c1.068,-9.346 0.278,-19.062 -2.529,-27.202c-3.3,-9.7 -9.8,-19.7 -17.1,-26.4c-4.241,-3.821 -8.629,-6.897 -13.312,-9.29c-2.915,-1.382 -6.754,-2.907 -9.688,-3.81c-0.488,-0.154 -0.978,-0.308 -1.464,-0.461Zm551.712,-2.402c-17.004,1.103 -30.749,8.84 -37.38,21.05l-0.168,0.313c-2.4,4.5 -2.7,6.1 -2.7,15c0,5.67 0.369,9.539 1.585,12.749c0.261,0.557 0.564,1.128 0.915,1.751c0.275,0.529 0.537,1.054 0.777,1.557c1.359,2.065 3.242,4.006 5.823,6.243c5.5,4.9 11.3,7.2 29.1,11.7c1.346,0.349 2.595,0.677 3.756,0.989c4.754,1.014 8.703,2.281 11.865,3.811c2.221,0.997 3.75,2.036 5.279,3.4c3.268,2.838 4.668,6.36 4.392,9.819c-0.14,3.268 -2.394,7.221 -4.254,8.256c-0.782,0.731 -1.666,1.414 -2.65,2.036c-0.357,0.369 -0.873,0.663 -1.45,0.836c-0.368,0.192 -0.747,0.377 -1.138,0.553c-1.129,0.505 -2.205,0.904 -3.33,1.216c-1.911,0.699 -5.77,1.084 -11.17,1.084c-1.039,0 -2.052,-0.039 -3.043,-0.12c-3.477,-0.117 -5.476,-0.576 -8.16,-1.776c-4.116,-1.527 -8.04,-4.033 -12.197,-7.704l-4.6,-4l-1.509,1.154l-5.591,4.646l-1.28,1.049c-0.196,0.484 -0.611,0.815 -1.124,0.921c-1.909,1.562 -3.638,2.973 -4.817,3.926c-0.208,0.271 -0.566,0.552 -1.079,0.904c-0.743,0.557 -1.141,0.92 -1.204,1.38c-0.016,0.147 -0.002,0.305 0.043,0.484c0.126,0.458 0.482,1.048 1.061,1.936l0.086,0.148c0.098,0.144 0.203,0.294 0.314,0.452c1.241,1.737 2.731,3.403 4.426,4.972c0.914,0.652 1.899,1.41 2.874,2.228c0.8,0.671 1.634,1.329 2.451,1.942c4.671,3.116 10.202,5.604 16.07,7.163c0.799,0.114 1.673,0.322 2.445,0.575c3.665,0.687 9.55,0.954 15.573,0.861c0.449,-0.015 0.904,-0.028 1.361,-0.041c1.94,-0.057 3.678,-0.124 5.253,-0.206c3.603,-0.217 6.967,-0.562 9.605,-1.022c1.726,-0.333 3.269,-0.748 4.833,-1.269c7.254,-2.542 13.433,-6.559 18.209,-11.803c0.503,-0.552 0.979,-1.099 1.428,-1.644c1.708,-2.35 3.309,-4.865 4.311,-6.89c0.473,-1.101 0.866,-2.242 1.188,-3.445c0.501,-2.411 0.913,-6.021 1.166,-9.551c0.011,-0.639 0.013,-1.295 0.007,-1.97c0,-6.7 -0.5,-9.1 -2.6,-13.5c-0.858,-1.731 -1.817,-3.318 -2.923,-4.785c-0.337,-0.354 -0.696,-0.725 -1.077,-1.115c-3.156,-3.156 -6.5,-5.723 -10.211,-7.798c-5.446,-2.68 -12.628,-4.916 -22.334,-7.129c-1.597,-0.27 -3.404,-0.674 -5.253,-1.168c-6.262,-1.489 -11.129,-3.641 -14.435,-6.328c-4.221,-3.292 -5.886,-7.126 -4.932,-11.437c0.478,-3.499 1.397,-5.296 4.175,-7.12c1.53,-1.262 3.473,-2.217 5.838,-2.867c4.768,-1.657 10.096,-1.877 15.191,-0.77c2.34,0.298 3.929,0.862 5.661,1.817l0.095,0.055c1.985,0.876 3.877,1.973 5.619,3.281c0.838,0.497 1.844,1.322 2.986,2.464l1.096,1.067l2.704,2.433l8.6,-6.6c4.8,-3.6 8.7,-6.9 8.7,-7.3c0,-0.225 -0.662,-1.143 -1.703,-2.401c-0.902,-1.003 -1.92,-2.093 -2.997,-3.199c-0.779,-0.8 -1.523,-1.578 -2.211,-2.311c-3.262,-2.87 -7.066,-5.221 -11.318,-7.007c-1.065,-0.351 -2.189,-0.756 -3.271,-1.182c-0.412,-0.158 -0.817,-0.305 -1.218,-0.443c-1.682,-0.518 -3.421,-0.955 -5.213,-1.312c-2.79,-0.459 -6.124,-0.682 -10.969,-0.845c-1.914,-0.03 -3.735,-0.088 -5.352,-0.163Zm-467.848,120.863l-8.2,0l-2.7,-0.1l0,-117.5c0,-0.173 1.668,-0.313 4.274,-0.4l6.726,0c6.101,0 11,0.3 11.1,0.8c0,0.4 0.1,4 0.2,8c0,0.817 0.013,1.609 0.037,2.349c0.066,2.865 0.214,4.851 0.363,4.851c0.02,0 0.045,-0.006 0.075,-0.017c0.008,0.011 0.017,0.017 0.025,0.017c0.046,0 0.202,-0.121 0.445,-0.341c0.923,-0.765 2.765,-2.723 4.636,-4.849c4.24,-4.687 9.189,-8.255 14.632,-10.588c0.501,-0.21 1.005,-0.414 1.496,-0.606c4.117,-1.57 8.496,-2.45 13.051,-2.595c1.328,0.066 2.734,0.126 4.14,0.179c1.524,0.026 2.882,0.08 4.04,0.155c2.804,0.721 2.76,2.91 2.76,9.545c0,4.699 -0.3,10.198 -0.6,12.2c-0.6,3.6 -0.6,3.6 -4.3,2.8c-5.362,-1.291 -10.921,-1.103 -17.46,0.564c-1.457,0.321 -2.855,0.701 -4.14,1.136c-2.105,0.73 -4.116,1.798 -5.979,3.146c-1.086,0.705 -1.948,1.408 -2.5,2.058c-1.246,1.159 -2.401,2.451 -3.444,3.853c-1.441,1.171 -2.861,3.902 -4.311,8.143c-0.06,0.176 -0.12,0.353 -0.178,0.53c-0.067,0.202 -0.135,0.408 -0.202,0.617c-1.307,3.962 -1.794,6.338 -1.952,15.116c-0.132,5.728 -0.12,14.122 -0.034,27.237c0,13.348 -0.098,24.938 -0.293,30.674c-0.034,0.552 -0.07,0.902 -0.107,1.026c-0.6,1.8 -1.6,2 -11.6,2Zm-392.9,0l-11,0l0,-118l3.733,0l18.667,0.5l-0.3,5.3c-0.1,2.9 0,6.6 0.4,8.3l0.7,3l0.303,-0.412c0.246,0.275 0.426,-0.098 0.791,-1.073l1.706,-2.315c0.965,-1.338 1.892,-2.523 2.831,-3.593c0.32,-0.125 0.537,-0.381 0.639,-0.711c1.977,-2.134 4.052,-3.81 6.679,-5.395c1.311,-0.639 2.807,-1.364 4.351,-2.101c4.137,-2.069 6.289,-3.07 8.843,-3.554c2.149,-0.38 4.621,-0.446 8.657,-0.446l9.5,0l0.3,7.5c0.2,4.1 0,9.9 -0.3,12.8c-0.431,3.666 -0.604,4.748 -1.633,4.807l-0.068,0.003c-0.394,0.005 -0.908,-0.124 -1.599,-0.31c-4.7,-1.4 -16.5,-0.8 -21.8,1c-6.9,2.4 -12.7,7.6 -15.8,14.2c-3.6,7.5 -4.7,19.5 -4.6,51.5l0,27.8c0,0.872 -2.722,1.181 -10.256,1.199l-0.744,0.001Zm498,0l-11.5,0c-11.4,0 -11.5,0 -11.1,-2.2c0.3,-1.3 0.6,-115.8 0.6,-115.8l12.8,0c4.414,0.049 7.415,0.121 9.2,0.274l0,117.726Zm-686.7,0l-14.2,0l8.1,-18.2c3.156,-7.244 7.494,-17.11 11.061,-25.247c0.498,-0.98 0.989,-2.1 1.393,-3.181c0.863,-1.973 1.657,-3.789 2.346,-5.372c3.675,-8.22 14.269,-32.243 24.007,-54.256c0.235,-0.474 0.497,-1.053 0.793,-1.744c1.735,-3.937 7.744,-17.624 13.273,-30.248c4.958,-11.261 9.016,-20.477 10.727,-24.452l2.817,-6.573c0.821,-1.399 1.695,-3.422 2.217,-5.172l0.666,-1.555l22.2,0l1.381,3.213c0.035,0.088 0.073,0.176 0.113,0.265l2.282,5.31c0.08,0.25 0.183,0.488 0.308,0.717l7.038,16.382c0.314,0.778 0.669,1.602 1.043,2.427l4.935,11.486c1.219,2.858 2.568,6.012 4.015,9.393c0.722,1.839 1.541,3.753 2.35,5.487c2.24,5.227 4.657,10.858 7.158,16.683c0.107,0.408 0.301,0.855 0.59,1.375l3.675,8.555c0.444,1.148 0.998,2.431 1.584,3.688l8.641,20.111l0.967,2.253c0.105,0.25 0.212,0.502 0.32,0.755l0.257,0.589c2.718,6.329 5.307,12.36 7.643,17.811l3.49,8.143c0.748,1.809 1.505,3.577 2.23,5.204l12.315,28.734c0.01,0.036 0.024,0.068 0.04,0.094l1.367,3.189c0.018,0.081 0.037,0.159 0.058,0.236c0.178,0.533 0.355,0.914 0.533,1.144l0.667,1.556c0.4,1 -2.5,1.2 -13.7,1l-14.2,-0.3l-6.839,-17.098c-0.283,-0.73 -0.58,-1.471 -0.884,-2.208l-0.877,-2.194l-4.203,-10.386c0.002,-0.037 0.003,-0.075 0.003,-0.114c0,-0.491 -0.263,-1.056 -0.652,-1.49l-3.848,-9.51l-0.186,0l-0.214,-0.5l-41.7,0.2l-41.8,0.3l-3.3,8c-0.675,1.651 -1.28,3.301 -1.762,4.772l-2.333,5.889c-0.105,0.035 -0.149,0.151 -0.137,0.344l-1.068,2.695l-1.717,4.384c-0.798,1.765 -1.69,3.895 -2.583,6.216c-2.027,5.189 -4.054,9.655 -5.068,11.106l-13.332,0.094Zm469.166,-98.477c2.721,-0.787 6.666,-1.523 9.034,-1.523c0.95,0 1.953,0.267 2.542,0.606c1.527,0.018 2.964,0.075 4.323,0.177c0.774,0.021 1.714,0.121 2.742,0.282c3.122,0.417 5.834,1.135 8.353,2.237c0.644,0.258 1.233,0.526 1.74,0.798c0.38,0.201 0.68,0.378 0.905,0.539c1.703,0.981 3.351,2.169 5.019,3.594c2.585,1.796 5.296,4.545 6.033,6.294c0.831,1.088 1.598,2.214 2.303,3.374c1.658,1.596 3.164,5.175 4.247,9.604c3.132,10.458 2.339,22.095 -1.872,31.848c-1.141,2.853 -2.378,5.219 -3.387,6.31c-0.622,0.947 -1.282,1.865 -1.981,2.747c-0.469,1.112 -1.774,2.507 -3.217,3.554c-1.862,1.798 -3.924,3.382 -6.177,4.706c-0.816,0.679 -2.342,1.404 -4.773,2.33c-0.622,0.232 -1.325,0.457 -2.089,0.672c-2.042,0.618 -4.306,1.098 -6.648,1.429c-5.451,0.891 -10.951,1.211 -11.763,0.399c-0.01,-0.01 -0.022,-0.021 -0.034,-0.031c-2.032,-0.18 -3.926,-0.5 -5.566,-0.969c-0.582,-0.165 -1.155,-0.339 -1.719,-0.523c-1.683,-0.395 -3.113,-0.948 -4.008,-1.536c-2.38,-1.058 -4.577,-2.318 -6.588,-3.774c-1.105,-0.765 -2.282,-1.735 -3.46,-2.87c-3.136,-2.976 -5.693,-6.55 -7.654,-10.7c-2.021,-4.232 -3.393,-8.958 -4.029,-13.84c-1.242,-8.919 0.205,-18.064 3.765,-25.727c0.795,-2.513 3.337,-6.524 5.207,-8.327c1.11,-1.34 2.307,-2.581 3.586,-3.703c4.951,-4.299 9.435,-6.774 15.166,-7.977Zm-151.03,0.729c-7.034,2.026 -12.829,5.925 -17.436,11.748c-0.316,0.396 -0.623,0.807 -0.921,1.23c-0.929,1.118 -1.798,2.562 -2.328,3.897c-0.931,1.837 -1.735,3.823 -2.408,5.911c-0.476,1.068 -0.9,2.707 -1.252,4.686c-1.139,5.269 -1.508,10.937 -1.035,16.401c0.127,3.264 0.49,6.139 1.144,7.975c0.408,1.157 0.678,1.921 0.887,2.326c0.162,0.498 0.333,0.989 0.513,1.474c0.456,1.229 0.956,2.413 1.502,3.552c0.574,1.89 1.432,3.51 2.287,4.11c0.711,1.106 1.475,2.159 2.291,3.16c0.592,1.044 1.627,2.153 2.672,2.909c0.846,0.818 1.736,1.592 2.669,2.321c0.178,0.648 1.435,1.429 2.791,1.963c1.159,0.733 2.374,1.409 3.647,2.026c0.439,0.713 2.224,1.336 6.641,2.559c0.17,0.046 0.343,0.091 0.52,0.134c3.978,1.1 9.667,1.3 15.154,0.703c4.387,-0.356 8.215,-1.117 9.84,-2.12c0.198,-0.071 0.394,-0.143 0.586,-0.217c2.367,-0.887 4.582,-2.04 6.633,-3.42c0.743,-0.191 1.407,-0.652 1.696,-1.22c1.068,-0.82 2.086,-1.705 3.053,-2.648c1.484,-1.043 3.07,-2.699 3.368,-3.78c0.469,-0.605 0.92,-1.226 1.354,-1.861c1.093,-1.082 2.296,-3.169 2.918,-5.014c1.273,-2.593 2.295,-5.348 3.048,-8.209c1.2,-2.628 1.693,-6.989 1.534,-11.849c0.007,-4.935 -0.758,-9.95 -2.372,-14.803c-0.476,-1.565 -1.021,-3.046 -1.632,-4.396c-0.491,-1.062 -1.057,-2.122 -1.682,-3.165c-4.378,-7.842 -10.647,-13.152 -18.731,-15.88c-0.39,-0.18 -0.854,-0.325 -1.339,-0.424c-1.335,-0.395 -2.717,-0.722 -4.146,-0.982c-1.907,-1.017 -8.281,-1.587 -13.702,-0.949c-2.429,0.282 -5.218,0.985 -7.764,1.852Zm457.889,-1.495c-2.782,0.304 -4.679,1.085 -8.395,2.963c-1.352,0.16 -1.763,0.398 -1.649,0.841c-0.606,0.312 -1.198,0.63 -1.775,0.956c-1.999,0.668 -5.42,3.183 -7.389,5.293c-7.618,6.981 -11.117,16.525 -11.117,29.79c0,0.426 0.004,0.849 0.012,1.27c-0.013,4.699 0.465,9.219 1.488,12.63c0.398,1.541 0.894,2.859 1.342,3.759c0.436,1.194 0.922,2.348 1.458,3.461c0.264,1.484 1.748,3.793 3.812,6.2c4.619,5.979 11.166,10.266 19.523,12.703c0.09,0.027 0.179,0.053 0.265,0.077c0.258,0.076 0.537,0.148 0.835,0.216c2.372,0.554 5.389,0.792 8.591,0.744c0.9,0 1.799,-0.02 2.674,-0.06c1.963,-0.099 4.044,-0.366 6.056,-0.739c2.63,-0.446 5.1,-1.073 7.144,-1.861c3.377,-1.272 6.477,-3.091 9.241,-5.353c0.705,-0.555 1.467,-1.21 2.259,-1.947c2.486,-2.365 3.612,-3.59 3.867,-4.5c1.256,-1.689 2.384,-3.497 3.373,-5.403c0.995,-1.288 1.783,-2.9 1.869,-4.142c0.519,-1.339 0.975,-2.714 1.364,-4.121c0.372,-0.594 0.551,-1.361 0.538,-2.155c0.363,-1.621 0.638,-3.277 0.822,-4.96c0.6,-2.375 0.574,-8.036 -0.233,-12.719c-0.169,-1.14 -0.356,-1.941 -0.56,-2.411c-0.5,-2.387 -1.173,-4.68 -2.005,-6.862c-1.673,-4.87 -5.202,-10.9 -7.666,-12.618c-3.432,-3.768 -7.573,-6.727 -12.254,-8.662c-0.031,-0.084 -0.119,-0.119 -0.266,-0.108c-0.116,-0.047 -0.232,-0.093 -0.349,-0.139c-2.026,-0.829 -3.84,-1.382 -5.94,-1.738c-1.754,-0.433 -3.73,-0.66 -4.861,-0.477c-1.107,-0.049 -2.316,-0.075 -3.663,-0.083c-1.584,-0.546 -5.301,-0.391 -8.411,0.155Zm-703.325,34.243l0.067,0c20.94,0 28.666,-0.047 31.38,-0.573c1.009,-0.074 1.553,-0.15 1.553,-0.227c0,-0.063 -0.062,-0.277 -0.178,-0.621c0.006,-0.088 -0.004,-0.181 -0.022,-0.279c-0.064,-0.355 -0.202,-0.657 -0.399,-0.898c-0.437,-1.186 -1.094,-2.887 -1.897,-4.907c-0.196,-0.646 -0.524,-1.436 -0.987,-2.458c-0.653,-1.611 -1.367,-3.347 -2.117,-5.137c-0.473,-1.114 -1.019,-2.415 -1.62,-3.86c-0.555,-1.662 -1.314,-3.492 -2.073,-5.014c-1.076,-2.616 -2.241,-5.464 -3.435,-8.39c-0.082,-0.249 -0.173,-0.495 -0.272,-0.736c-0.102,-0.234 -0.198,-0.449 -0.291,-0.644c-2.121,-5.203 -4.303,-10.573 -6.209,-15.256c-4.6,-11.3 -9.3,-22.7 -10.5,-25.5l-2.2,-5l-1.3,2.5c-1.888,3.628 -5.975,13.406 -9.559,22.472c-1.649,3.956 -3.421,8.226 -5.241,12.628c-7.5,17.8 -14.4,34.5 -15.6,37.2l-2,4.7l32.9,0Zm603.38,-111.857c-2.341,-0.107 -4.564,0.264 -6.581,1.033c-0.693,0.324 -1.443,0.728 -2.299,1.224c-0.916,0.549 -1.764,1.125 -2.471,1.66c-0.747,0.659 -1.43,1.39 -2.042,2.185c-0.04,0.229 -0.176,0.4 -0.364,0.494c-1.386,1.953 -2.353,4.256 -2.779,6.796c-0.072,0.7 -0.144,1.348 -0.216,1.948c-0.019,0.336 -0.028,0.675 -0.028,1.017c0,6.3 2.5,10.8 7.9,14.1c3.3,2 5,2.4 9.3,2.1c0.549,-0.034 1.095,-0.092 1.632,-0.171c2.839,-0.561 5.198,-1.396 6.587,-2.394c3.479,-2.655 5.685,-6.093 6.603,-9.735c0.366,-2.112 0.458,-4.524 0.262,-6.63c-0.706,-4.147 -3.061,-8.114 -7.084,-11.07c-1.306,-1.026 -4.439,-2.052 -7.045,-2.429c-0.243,-0.019 -0.495,-0.043 -0.755,-0.071c-0.213,-0.021 -0.42,-0.04 -0.62,-0.057Z" style="fill:rgb(0,137,203);fill-rule:nonzero;"/>        </g>    </g></svg>