<?xml version="1.0" encoding="UTF-8" standalone="no"?><!DOCTYPE svg PUBLIC "-//W3C//DTD SVG 1.1//EN" "http://www.w3.org/Graphics/SVG/1.1/DTD/svg11.dtd"><svg width="100%" height="100%" viewBox="0 0 1024 512" version="1.1" xmlns="http://www.w3.org/2000/svg" xmlns:xlink="http://www.w3.org/1999/xlink" xml:space="preserve" style="fill-rule:evenodd;clip-rule:evenodd;stroke-linejoin:round;stroke-miterlimit:2;"><title>CrowdHouse</title><desc>Today, with 700 million Swiss francs worth of property placed, around 1,000 satisfied customers and numerous awards behind us, we are well on the way to implementing this idea – and getting a little closer to doing so every day.We have created an ecosystem that supports our clients at every stage of their investment strategy: Sole proprietorship, co-ownership, mortgage solutions, property management, portfolio planning and property sales. So you can concentrate on the essentials.</desc>    <g>        <g transform="matrix(7.58929,0,0,7.58929,2,164.929)">            <rect x="0" y="0" width="7.68" height="10.08" style="fill:rgb(0,138,156);"/>        </g>        <g transform="matrix(7.58929,0,0,7.58929,2,164.929)">            <rect x="9.12" y="16.32" width="5.76" height="7.68" style="fill:rgb(0,138,156);"/>        </g>        <g transform="matrix(7.58929,0,0,7.58929,2,164.929)">            <rect x="16.32" y="16.32" width="7.68" height="7.68" style="fill:rgb(0,138,156);"/>        </g>        <g transform="matrix(7.58929,0,0,7.58929,2,164.929)">            <rect x="0" y="11.52" width="7.68" height="12.48" style="fill:rgb(0,138,156);"/>        </g>        <g transform="matrix(7.58929,0,0,7.58929,2,164.929)">            <rect x="9.12" y="0" width="14.88" height="14.88" style="fill:rgb(0,138,156);"/>        </g>        <g transform="matrix(7.58929,0,0,7.58929,2,164.929)">            <path d="M35.581,10.654c-0.671,0 -1.217,0.217 -1.72,0.652c-0.462,0.435 -0.714,1.088 -0.714,1.871c0,0.783 0.252,1.435 0.714,1.87c0.461,0.435 1.007,0.697 1.636,0.697c0.839,0 1.595,-0.435 2.266,-1.306l1.51,1.741c-1.174,1.261 -2.433,1.87 -3.776,1.87c-1.343,0 -2.518,-0.435 -3.441,-1.349c-0.923,-0.87 -1.384,-2.044 -1.384,-3.48c0,-1.435 0.461,-2.61 1.426,-3.523c0.966,-0.914 2.056,-1.349 3.357,-1.349c0.629,0 1.301,0.115 1.972,0.42c0.668,0.332 1.259,0.711 1.763,1.233l-1.301,1.784c-0.294,-0.348 -0.645,-0.654 -1.049,-0.852c-0.404,-0.199 -0.839,-0.279 -1.259,-0.279Z" style="fill:rgb(0,138,156);"/>        </g>        <g transform="matrix(7.58929,0,0,7.58929,2,164.929)">            <path d="M40.952,17.875l0,-9.309l2.518,0l0,1.218c0.336,-0.392 0.713,-0.696 1.216,-0.957c0.504,-0.261 0.966,-0.391 1.469,-0.435l0,2.436l-0.461,0c-0.755,0 -1.301,0.261 -1.679,0.826c-0.378,0.566 -0.545,1.262 -0.545,2.176l0,4.045l-2.518,0Z" style="fill:rgb(0,138,156);"/>        </g>        <g transform="matrix(7.58929,0,0,7.58929,2,164.929)">            <path d="M66.506,17.918l-1.678,-5.089l-1.678,5.089l-2.602,0l-3.063,-9.352l2.601,0l1.763,5.655l1.762,-5.655l2.434,0l1.762,5.655l1.763,-5.655l2.601,0l-3.063,9.352l-2.602,0Z" style="fill:rgb(0,138,156);"/>        </g>        <g transform="matrix(7.58929,0,0,7.58929,2,164.929)">            <path d="M84.676,17.918l0,-12.919l2.517,0l0,4.611c0.756,-0.783 1.637,-1.218 2.56,-1.218c0.965,0 1.762,0.348 2.392,1.044c0.629,0.696 0.965,1.609 0.965,2.784l0,5.698l-2.517,0l0,-5.133c0,-1.435 -0.504,-2.175 -1.511,-2.175c-0.504,0 -0.924,0.174 -1.301,0.566c-0.42,0.392 -0.588,0.957 -0.588,1.696l0,5.046l-2.517,0Z" style="fill:rgb(0,138,156);"/>        </g>        <g transform="matrix(7.58929,0,0,7.58929,2,164.929)">            <path d="M106.201,14.265l0,-5.699l2.518,0l0,5.089c0,1.436 0.504,2.175 1.511,2.175c0.504,0 0.949,-0.161 1.327,-0.553c0.477,-0.542 0.561,-0.969 0.561,-1.665l0,-5.046l2.518,0l0,9.352l-2.518,0l0,-1.218c-0.629,0.914 -1.426,1.392 -2.433,1.392c-1.007,0 -1.805,-0.304 -2.476,-0.957c-0.671,-0.652 -1.008,-1.609 -1.008,-2.87Z" style="fill:rgb(0,138,156);"/>        </g>        <g transform="matrix(7.58929,0,0,7.58929,2,164.929)">            <path d="M120.469,16.048c0.335,0 0.587,-0.087 0.755,-0.218c0.21,-0.13 0.293,-0.304 0.293,-0.521c0,-0.218 -0.125,-0.435 -0.377,-0.609c-0.252,-0.174 -0.623,-0.322 -1.133,-0.546c-0.509,-0.223 -0.529,-0.23 -1.03,-0.437c-0.501,-0.208 -0.649,-0.279 -0.984,-0.497c-0.672,-0.435 -1.007,-1.087 -1.007,-1.957c0,-0.87 0.335,-1.566 1.007,-2.132c0.671,-0.565 1.553,-0.826 2.602,-0.826c1.049,0 2.14,0.391 3.189,1.131l-0.924,1.74c-0.797,-0.566 -1.553,-0.826 -2.35,-0.826c-0.797,0 -1.174,0.217 -1.174,0.652c0,0.261 0.125,0.435 0.377,0.566c0.252,0.13 0.665,0.281 1.217,0.478c0.587,0.213 0.942,0.324 1.217,0.435c0.275,0.111 0.564,0.242 0.874,0.486c0.624,0.455 0.847,1.101 0.847,2.014c0,0.914 -0.336,1.676 -0.966,2.242c-0.671,0.565 -1.468,0.826 -2.475,0.826c-0.672,0 -1.385,-0.131 -2.099,-0.392c-0.713,-0.26 -1.384,-0.609 -1.972,-1.087l1.091,-1.653c0.924,0.74 1.93,1.131 3.022,1.131Z" style="fill:rgb(0,138,156);"/>        </g>        <path d="M972,272.195c0.637,3.961 2.55,6.933 5.732,9.572c3.186,2.313 7.006,3.634 11.148,3.634c6.686,0 12.101,-2.31 16.557,-6.936l10.831,12.218c-7.645,7.592 -16.88,11.226 -27.388,11.226c-10.508,0 -19.109,-3.302 -25.795,-9.905c-6.691,-6.603 -10.191,-15.516 -10.191,-26.742c0,-11.226 3.5,-20.138 10.508,-26.742c7.008,-6.603 14.97,-9.904 24.519,-9.904c9.554,0 17.516,2.972 24.205,8.913c6.688,5.947 9.874,13.868 9.874,24.432l0,10.234l-50,0Zm0.317,-13.865l30.257,0c-0.64,-4.294 -2.23,-7.595 -4.779,-9.905c-2.549,-2.31 -5.732,-3.301 -9.552,-3.301c-3.822,0 -7.342,0.991 -10.528,3.301c-3.186,2.31 -5.078,5.944 -5.398,9.905Z" style="fill:rgb(0,138,156);"/>        <path d="M784.369,291.202c-6.692,6.932 -15.923,10.563 -26.115,10.563c-10.511,0 -19.106,-3.631 -26.114,-10.563c-7.006,-6.933 -10.192,-15.846 -10.192,-26.083c0,-10.231 3.506,-19.147 10.192,-26.08c7.008,-6.932 15.603,-10.563 26.114,-10.563c10.508,0 19.107,3.631 26.115,10.563c6.686,7.262 10.188,15.849 10.188,26.08c0,10.237 -3.502,19.15 -10.188,26.083Zm-38.535,-40.278c-3.183,3.631 -4.776,8.583 -4.776,14.195c0,5.947 1.593,10.567 4.776,14.198c3.185,3.631 7.325,5.611 12.101,5.611c4.778,0 8.918,-1.98 12.103,-5.611c3.183,-3.631 4.776,-8.251 4.776,-14.198c0,-5.941 -1.593,-10.564 -4.776,-14.195c-3.185,-3.631 -7.325,-5.611 -12.103,-5.611c-4.776,0 -8.916,1.98 -12.101,5.611Z" style="fill:rgb(0,138,156);"/>        <path d="M626.158,300.917l-19.109,0l0,-9.245c-5.095,6.935 -11.781,10.237 -20.06,10.237c-8.281,0 -15.286,-3.634 -21.655,-10.567c-6.369,-6.93 -9.555,-15.846 -9.555,-26.742c0,-10.564 3.186,-19.147 9.235,-26.08c6.052,-6.932 13.374,-10.234 21.656,-10.234c8.278,0 15.284,2.972 20.379,9.243l0,-34.663l19.109,0l0,98.051Zm-23.565,-21.127c3.183,-3.634 4.776,-8.254 4.776,-14.195c0,-5.947 -1.593,-10.567 -4.776,-14.527c-3.186,-3.964 -7.008,-5.615 -11.464,-5.615c-4.459,0 -8.282,1.98 -11.468,5.944c-3.185,3.631 -4.773,8.251 -4.773,14.198c0,5.608 1.588,10.561 5.093,14.195c3.503,3.628 7.325,5.611 11.465,5.611c4.459,0 8.278,-1.983 11.147,-5.611Z" style="fill:rgb(0,138,156);"/>        <path d="M422.753,291.421c-6.688,6.936 -15.923,10.564 -26.114,10.564c-10.508,0 -19.107,-3.628 -26.112,-10.564c-7.005,-6.932 -10.191,-15.845 -10.191,-26.079c0,-10.235 3.502,-19.15 10.191,-26.08c7.005,-6.936 15.604,-10.564 26.112,-10.564c10.511,0 19.106,3.628 26.114,10.564c6.686,7.262 10.192,15.845 10.192,26.08c0,10.234 -3.506,19.147 -10.192,26.079Zm-38.532,-40.277c-3.186,3.634 -4.779,8.586 -4.779,14.198c0,5.944 1.593,10.563 4.779,14.194c3.183,3.631 7.322,5.615 12.101,5.615c4.776,0 8.915,-1.984 12.101,-5.615c3.183,-3.631 4.776,-8.25 4.776,-14.194c0,-5.944 -1.593,-10.564 -4.776,-14.198c-3.186,-3.628 -7.325,-5.612 -12.101,-5.612c-4.779,0 -8.918,1.984 -12.101,5.612Z" style="fill:rgb(0,138,156);"/>    </g></svg>