<?xml version="1.0" encoding="UTF-8" standalone="no"?><!DOCTYPE svg PUBLIC "-//W3C//DTD SVG 1.1//EN" "http://www.w3.org/Graphics/SVG/1.1/DTD/svg11.dtd"><svg width="100%" height="100%" viewBox="0 0 1024 512" version="1.1" xmlns="http://www.w3.org/2000/svg" xmlns:xlink="http://www.w3.org/1999/xlink" xml:space="preserve" style="fill-rule:evenodd;clip-rule:evenodd;stroke-linejoin:round;stroke-miterlimit:2;"><title>UK Bond Network</title><desc>UK Bond Network is a platform that links institutional investors, wealth managers and high net worth and sophisticated individuals with carefully-assessed, UK business borrowers through an innovative online bond auction.</desc>    <g transform="matrix(3.45579,0,0,3.45579,-1241.84,-630.622)">        <g transform="matrix(1,0,0,1,359.509,239.056)">            <path d="M47.338,22.725c-1.288,-0.727 -2.944,-0.279 -3.69,0.997c-0.714,1.264 -0.264,2.892 0.997,3.61c1.288,0.727 2.944,0.279 3.69,-0.997c0.714,-1.264 0.264,-2.892 -0.997,-3.61Zm-3.7,-11.138c0.746,1.277 2.402,1.724 3.69,0.997c0.829,-0.47 1.344,-1.354 1.344,-2.307c0,-0.461 -0.12,-0.913 -0.347,-1.313c-0.746,-1.276 -2.402,-1.724 -3.69,-0.997c-0.831,0.467 -1.348,1.35 -1.348,2.304c0,0.462 0.121,0.915 0.351,1.316Zm44.084,-0.539l0,-0.139l-3.071,0l-7.788,7.548l0,-14.887l-2.383,0l0,24.939l2.383,0l0,-8.446l8.805,8.446l3.101,0l0,-0.14l-9.602,-9.164l8.555,-8.157m-38.35,4.258c-1.288,-0.727 -2.944,-0.279 -3.69,0.997c-0.714,1.264 -0.264,2.892 0.997,3.61c1.288,0.727 2.944,0.28 3.69,-0.997c0.714,-1.264 0.264,-2.891 -0.997,-3.61Zm19.903,5.185l0,0.32c-0.038,3.14 -2.632,5.704 -5.773,5.704c-0.027,0 -0.054,0 -0.08,-0.001c-3.61,0 -5.844,-2.064 -5.844,-5.733l0,-9.872l-2.403,0l0,9.912c0,4.985 3.251,7.977 7.868,7.977c2.516,0.068 4.901,-1.156 6.312,-3.241l0.07,2.991l2.233,0l0,-17.639l-2.383,0l0,9.582Zm-50.605,2.224c-0.83,0.47 -1.345,1.354 -1.345,2.308c0,0.46 0.12,0.912 0.347,1.312c0.746,1.276 2.403,1.724 3.69,0.997c0.836,-0.466 1.357,-1.351 1.357,-2.309c0,-0.467 -0.124,-0.927 -0.36,-1.331c-0.752,-1.269 -2.407,-1.707 -3.689,-0.977Zm-0.519,-2.513c1.455,-0.037 2.632,-1.245 2.632,-2.701c0,-1.483 -1.22,-2.702 -2.702,-2.702c-1.483,0 -2.702,1.219 -2.702,2.702c0,0.013 0,0.026 0,0.039c0.016,1.471 1.231,2.673 2.702,2.673c0.013,0 0.027,-0.001 0.04,-0.001l0.03,-0.01Zm3.211,-12.275c-1.287,-0.727 -2.944,-0.279 -3.69,0.998c-0.713,1.26 -0.263,2.885 0.998,3.599c1.287,0.727 2.943,0.28 3.689,-0.997c0.707,-1.262 0.259,-2.882 -0.997,-3.6Zm17.779,20.213c-0.832,0.469 -1.349,1.354 -1.349,2.31c0,0.463 0.122,0.918 0.352,1.319c0.746,1.277 2.402,1.725 3.689,0.997c0.83,-0.47 1.345,-1.353 1.345,-2.307c0,-0.46 -0.12,-0.912 -0.348,-1.312c-0.742,-1.28 -2.399,-1.733 -3.689,-1.007Zm-6.083,1.455c-1.482,0 -2.702,1.22 -2.702,2.703c0,1.482 1.22,2.702 2.702,2.702c1.483,0 2.703,-1.22 2.703,-2.702c0,-1.483 -1.22,-2.703 -2.703,-2.703l0,0Zm8.805,-27.072c-1.287,-0.727 -2.943,-0.28 -3.689,0.997c-0.714,1.264 -0.265,2.891 0.997,3.61c1.287,0.727 2.944,0.279 3.689,-0.998c0.714,-1.264 0.265,-2.891 -0.997,-3.609Zm-8.795,-2.513c-1.482,0 -2.702,1.22 -2.702,2.702c0,1.483 1.22,2.703 2.702,2.703c1.483,0 2.703,-1.22 2.703,-2.703c0,-1.482 -1.22,-2.702 -2.703,-2.702Zm85.965,10.63c-4.995,0 -9.104,4.109 -9.104,9.104c0,4.994 4.109,9.104 9.104,9.104c4.994,0 9.104,-4.11 9.104,-9.104c-0.054,-4.974 -4.13,-9.051 -9.104,-9.104Zm-0.13,14.807c-3.39,0 -5.444,-2.562 -5.444,-5.703c0,-3.141 2.054,-5.774 5.444,-5.774l0.18,0c3.04,0.123 5.442,2.723 5.324,5.764l0,0.468c-0.063,2.898 -2.464,5.247 -5.363,5.247c-0.047,0 -0.094,0 -0.141,-0.002Zm44.712,-11.756c-1.156,-2.064 -4.078,-3.131 -6.242,-3.131c-5.165,0 -8.974,3.171 -8.974,9.154c0,5.813 3.939,9.154 9.094,9.154c2.463,0.121 4.815,-1.072 6.172,-3.132l0.22,2.783l3.5,0l0,-24.929l-3.72,0l0,10.101l-0.05,0Zm-5.923,11.756l-0.478,0c-2.877,-0.148 -5.164,-2.556 -5.164,-5.437c0,-0.099 0.003,-0.198 0.008,-0.296c-0.005,-0.102 -0.008,-0.204 -0.008,-0.306c0,-2.954 2.43,-5.384 5.384,-5.384c0.086,0 0.172,0.002 0.258,0.006c3.042,0.127 5.475,2.664 5.475,5.709c0,3.044 -2.433,5.581 -5.475,5.708Zm-18.666,-14.787c-2.312,0.001 -4.507,1.032 -5.983,2.812l-0.22,-2.563l-3.39,0l0,17.6l3.719,0l0,-9.194l0,-0.22c0,-0.02 0,-0.039 0,-0.059c0,-2.735 2.251,-4.986 4.986,-4.986c0,0 0,0 0,0c3.071,0 4.796,1.994 4.796,5.055l0,9.404l3.75,0l0,-9.443c0,-5.375 -3.321,-8.406 -7.658,-8.406Zm45.45,17.849l0,-0.01l0,0.01m-84.658,-17.959c-2.164,0 -5.086,1.067 -6.243,3.131l0,-10.071l-3.719,0l0,24.928l3.5,0l0.219,-2.782c1.358,2.06 3.709,3.253 6.173,3.131c5.155,0 9.094,-3.35 9.094,-9.153c0,-6.013 -3.899,-9.184 -9.024,-9.184Zm-0.329,14.897l-0.349,0c-2.97,-0.099 -5.358,-2.57 -5.358,-5.541c0,-0.064 0.001,-0.128 0.003,-0.192l0,-0.24c0.076,-3.056 2.647,-5.511 5.704,-5.444l0.548,0c2.955,0.17 5.249,2.738 5.086,5.694l0,0.438c-0.097,2.995 -2.64,5.38 -5.634,5.285Zm-76.312,-19.285c-0.231,-0.401 -0.352,-0.856 -0.352,-1.319c0,-0.956 0.517,-1.841 1.349,-2.31c1.287,-0.727 2.944,-0.28 3.689,0.997c0.231,0.402 0.352,0.857 0.352,1.32c0,0.955 -0.517,1.84 -1.349,2.31c-1.287,0.727 -2.944,0.279 -3.689,-0.998" style="fill:rgb(112,98,88);fill-rule:nonzero;"/>        </g>        <g transform="matrix(1,0,0,1,359.509,239.056)">            <path d="M216.275,26.584c-2.413,0 -2.992,-1.466 -2.992,-3.669l0,-9.972l5.774,0l0,-1.994l-5.774,0l0,-5.235l-2.462,0.249l0,4.986l-3.65,0l0,1.994l3.65,0l0,9.972c0,3.669 1.555,5.883 5.374,5.843c1.193,-0.031 2.364,-0.324 3.43,-0.858l-0.757,-1.994c-0.809,0.402 -1.691,0.633 -2.593,0.678Zm23.343,-0.678l-5.055,-14.997l-1.915,0l-5.045,14.997l-5.056,-14.997l-2.672,0l6.312,17.639l2.752,0l2.632,-7.059l2.054,-6.701l2.025,6.671l2.632,7.089l2.742,0l6.282,-17.639l-2.672,0l-5.016,14.997m16.952,-15.227c-0.034,0 -0.067,0 -0.1,0c-4.994,0 -9.115,4.081 -9.164,9.075c0,5.454 3.989,9.054 9.164,9.054c5.175,0 9.194,-3.61 9.194,-9.064c-0.054,-4.964 -4.131,-9.027 -9.094,-9.065Zm6.651,9.234c-0.089,3.644 -3.11,6.593 -6.755,6.593c-3.707,0 -6.757,-3.05 -6.757,-6.757c0,-0.002 0,-0.004 0,-0.005l0,-0.439c0.19,-3.564 3.173,-6.393 6.742,-6.393c3.703,0 6.75,3.047 6.75,6.751c0,0.027 0,0.054 0,0.081c0.013,0.059 0.02,0.116 0.02,0.169Zm7.219,-6.112l-0.149,-2.882l-2.274,0l0,17.59l2.413,0l0,-9.972l0,-0.15c0.033,-2.975 2.489,-5.404 5.464,-5.404c0.02,0 0.04,0 0.06,0c1.095,-0.011 2.166,0.313 3.072,0.927l1.116,-1.994c-1.168,-0.855 -2.591,-1.294 -4.038,-1.246c-2.334,-0.156 -4.554,1.071 -5.664,3.131Zm15.536,5.404l8.555,-8.157l0,-0.139l-3.071,0l-7.788,7.548l0,-14.887l-2.383,0l0,24.939l2.383,0l0,-8.446l8.805,8.446l3.101,0l0,-0.14l-9.602,-9.164m-87.839,-8.615l-0.628,0c-4.822,0.161 -8.658,4.262 -8.496,9.084c0,5.634 3.939,9.154 9.233,9.154c2.903,0.065 5.696,-1.133 7.649,-3.281l-1.626,-1.426c-1.266,1.566 -3.859,2.423 -5.983,2.423c-3.54,0 -6.421,-2.174 -6.75,-5.843l15.515,0c0.648,-6.94 -3.609,-10.111 -8.914,-10.111Zm-6.631,8.087c0.197,-3.471 3.209,-6.169 6.681,-5.983c3.579,0 6.491,2.104 6.571,5.983l-13.252,0Zm-12.515,-8.057c-2.486,-0.065 -4.835,1.163 -6.202,3.24l-0.07,-2.991l-2.313,0l0,17.64l2.413,0l0,-9.583l0,-0.299c0.022,-3.169 2.635,-5.764 5.803,-5.764c0.017,0 0.034,0 0.05,0c3.57,0 5.814,1.995 5.814,5.774l0,9.872l2.403,0l0,-9.912c0,-5.265 -3.281,-7.977 -7.898,-7.977Zm-169.804,22.136c-1.262,-0.718 -1.712,-2.345 -0.998,-3.609c0.746,-1.277 2.403,-1.725 3.69,-0.997c1.262,0.718 1.711,2.345 0.997,3.609c-0.746,1.277 -2.402,1.725 -3.689,0.997m6.192,-30.014c0,-0.01 0,-0.02 0,-0.029c0,-1.483 1.22,-2.703 2.702,-2.703c1.482,0 2.702,1.22 2.702,2.703c0,1.467 -1.195,2.68 -2.662,2.702c-0.02,0 -0.04,0 -0.06,0c-1.468,0 -2.677,-1.205 -2.682,-2.673m-7.2,3.42c-0.227,-0.399 -0.347,-0.852 -0.347,-1.312c0,-0.954 0.515,-1.837 1.345,-2.307c1.287,-0.727 2.943,-0.28 3.689,0.997c0.23,0.402 0.352,0.857 0.352,1.32c0,0.955 -0.517,1.84 -1.349,2.31c-1.287,0.727 -2.944,0.279 -3.69,-0.998m-4.477,6.372c-1.26,-0.714 -1.71,-2.339 -0.997,-3.6c0.746,-1.276 2.402,-1.724 3.69,-0.997c1.26,0.715 1.71,2.339 0.997,3.6c-0.746,1.277 -2.402,1.724 -3.69,0.997m-3.28,4.986c0,-0.01 -0.001,-0.02 -0.001,-0.03c0,-1.482 1.22,-2.702 2.703,-2.702c1.482,0 2.702,1.22 2.702,2.702c0,1.468 -1.195,2.681 -2.662,2.702c-0.02,0.001 -0.04,0.001 -0.06,0.001c-1.464,0 -2.672,-1.199 -2.682,-2.663m2.273,8.825c-0.23,-0.402 -0.351,-0.857 -0.351,-1.32c0,-0.956 0.516,-1.84 1.348,-2.31c1.288,-0.727 2.944,-0.279 3.69,0.997c0.227,0.4 0.347,0.852 0.347,1.312c0,0.954 -0.515,1.837 -1.344,2.308c-1.288,0.727 -2.944,0.279 -3.69,-0.997m12.684,5.973c-0.001,-0.02 -0.001,-0.04 -0.001,-0.06c0,-1.482 1.22,-2.702 2.703,-2.702c1.482,0 2.702,1.22 2.702,2.702c0,1.464 -1.189,2.675 -2.652,2.702c-0.023,0.001 -0.047,0.001 -0.07,0.001c-1.457,0 -2.661,-1.187 -2.682,-2.643m7.778,-0.539c-0.228,-0.4 -0.348,-0.852 -0.348,-1.312c0,-0.954 0.515,-1.837 1.345,-2.307c1.287,-0.728 2.944,-0.28 3.689,0.997c0.228,0.399 0.348,0.852 0.348,1.312c0,0.954 -0.515,1.837 -1.345,2.307c-1.287,0.727 -2.944,0.28 -3.689,-0.997m6.501,-4.437c-1.262,-0.718 -1.711,-2.346 -0.997,-3.61c0.746,-1.276 2.402,-1.724 3.689,-0.997c1.262,0.718 1.712,2.346 0.998,3.61c-0.746,1.276 -2.403,1.724 -3.69,0.997m0.728,-9.802c0,-0.013 0,-0.027 0,-0.04c0,-1.482 1.22,-2.702 2.702,-2.702c1.482,0 2.702,1.22 2.702,2.702c0,1.468 -1.195,2.68 -2.662,2.702c-1.473,0.006 -2.691,-1.199 -2.702,-2.672m-1.775,-5.953c-0.228,-0.4 -0.347,-0.852 -0.347,-1.312c0,-0.954 0.514,-1.837 1.344,-2.308c1.287,-0.727 2.944,-0.279 3.69,0.997c0.227,0.4 0.347,0.852 0.347,1.313c0,0.953 -0.515,1.837 -1.345,2.307c-1.287,0.727 -2.943,0.28 -3.689,-0.997" style="fill:rgb(255,102,0);fill-rule:nonzero;"/>        </g>    </g></svg>