<?xml version="1.0" encoding="UTF-8" standalone="no"?><!DOCTYPE svg PUBLIC "-//W3C//DTD SVG 1.1//EN" "http://www.w3.org/Graphics/SVG/1.1/DTD/svg11.dtd"><svg width="100%" height="100%" viewBox="0 0 1024 512" version="1.1" xmlns="http://www.w3.org/2000/svg" xmlns:xlink="http://www.w3.org/1999/xlink" xml:space="preserve" style="fill-rule:evenodd;clip-rule:evenodd;stroke-linejoin:round;stroke-miterlimit:2;"><title>Crowdimo</title><desc>Crowdimo Invest is a Real Estate Crowdfunding platform that offers everyone the opportunity to become an investor, from 1000 €. Invest according to your budget in real estate renovation projects or real estate development and build today your heritage tomorrow.</desc>    <g transform="matrix(0.972167,0,0,0.972167,2.19686,55.9098)">        <path d="M383.2,162.2l0.3,-107.7l4.7,-1c2.6,-0.5 5.2,-1.5 5.8,-2.1c0.7,-0.7 5.6,-2.7 11.1,-4.5l9.9,-3.4l0,-21.8c0,-21.7 0,-21.8 2.1,-21.5c2.1,0.3 2.1,0.6 2,20.7c-0.2,19.3 -0.1,20.3 1.6,19.6c1,-0.4 2.6,-1 3.6,-1.2c1.5,-0.5 1.7,-2.1 1.7,-15.5c0,-11.5 0.3,-14.9 1.3,-14.6c0.9,0.3 1.3,4.3 1.5,14.2l0.3,13.8l2.5,-0.6c1.5,-0.4 3.9,-1 5.5,-1.3l2.9,-0.5l0,235.2l-28.5,0l-28.5,0l0.2,-107.8Z" style="fill:rgb(48,46,51);fill-rule:nonzero;"/>        <path d="M304.7,233.3c-0.4,-0.3 -0.7,-15.6 -0.7,-34l0,-33.3l6,0l0,68l-2.3,0c-1.3,0 -2.7,-0.3 -3,-0.7Z" style="fill:rgb(48,46,51);fill-rule:nonzero;"/>        <g id="layer103">            <path d="M54.8,411.3c-3.2,-0.2 -5.8,-0.8 -5.8,-1.3c0,-0.4 -1.9,-1.3 -4.2,-1.9c-10,-2.3 -12.5,-3.1 -15.5,-4.6c-1.8,-0.9 -3.3,-2 -3.3,-2.5c0,-0.4 -1.3,-1.3 -2.9,-2c-3.4,-1.4 -12.8,-10.5 -13.7,-13.2c-0.3,-1 -1.6,-2.9 -2.8,-4.3c-1.2,-1.3 -3.2,-5.4 -4.4,-9.2c-3.1,-9.4 -3.2,-35.2 -0.3,-45.9c2.4,-8.5 4.3,-13.7 5.8,-15.5c0.6,-0.8 1.4,-2.5 1.8,-3.9c0.8,-2.6 6.5,-11.3 7.8,-11.8c0.4,-0.2 0.7,-0.7 0.7,-1.2c0,-1.3 5.3,-9 6.2,-9c0.4,0 1.9,-1.8 3.4,-4.1c1.4,-2.2 3.8,-4.8 5.5,-5.7c1.6,-1 2.9,-2.3 2.9,-3c0,-0.6 2.2,-2.8 4.9,-4.7c2.7,-2 5.1,-3.9 5.3,-4.3c0.2,-0.5 4.3,-3.5 9.2,-6.8c11.5,-7.6 10.6,-7.1 14.1,-8.7c1.7,-0.7 3.9,-1.8 5,-2.4c3.2,-1.8 11.4,-5.3 12.4,-5.3c0.4,0 4.1,-1.1 8.2,-2.3c11.5,-3.7 22,-5 35.4,-4.4c16.6,0.7 19.9,1.5 20.3,4.9c0.2,1.5 -0.4,3.9 -1.4,5.3c-2.9,4.4 -6.4,5.5 -17.1,5.5c-20.4,0 -31.5,2.5 -48.8,11.1c-13.1,6.6 -20.4,11.7 -29.5,20.9c-9.8,10 -16.4,19.9 -21.6,32.9c-10.9,26.9 -9.5,56.3 3.4,68.8c4.7,4.6 6.3,5.4 16.6,8.7c6.7,2.2 9.6,2.6 20.2,2.6c8.2,0 14.2,-0.5 18.1,-1.6c3.2,-0.9 8.3,-2.2 11.3,-2.9c9.3,-2.2 15.5,-4.5 17,-6.4c0.9,-1.1 5,-3.1 6.3,-3.1c2.1,0 6.8,-2.6 10.7,-6c1.9,-1.6 4,-3 4.5,-3c1.3,0 6.5,-4.5 6.5,-5.6c0,-0.5 1.6,-2 3.5,-3.3c1.9,-1.3 3.5,-2.7 3.5,-3.2c0,-0.5 1.8,-2.8 4,-5.1c2.2,-2.4 4,-4.7 4,-5.2c0,-0.4 1.2,-2.5 2.8,-4.5c2.6,-3.4 4.1,-5.9 6.1,-9.8c0.5,-1 1.8,-3.6 3,-5.9c2,-4.1 2,-4.1 0.1,-5.9c-4.6,-4.2 -5.4,-18.1 -1.2,-21.1c1.1,-0.8 2.8,-2.1 3.6,-2.9c2.6,-2.6 8.7,-1.9 12.4,1.4c1.7,1.7 3.2,3.7 3.2,4.6c0,2.8 3.2,8.8 5.9,11.2c4.2,3.7 17.1,2.7 17.1,-1.3c0,-1.6 6.4,-5.2 10.3,-5.9c2,-0.4 4,-1.1 4.3,-1.6c0.3,-0.5 3.8,-0.9 7.7,-0.9c5.3,0 7.8,0.5 9.4,1.8l2.3,1.7l-5.9,7.6c-3.2,4.2 -7.6,10.7 -9.9,14.5c-4.9,8.5 -13.2,25.8 -13.2,27.6c0,0.8 -0.4,1.8 -0.8,2.4c-1.4,1.5 -4.3,13.7 -4.4,18.3c0,5 1.4,6.4 5.7,5.5c4.1,-0.9 7.3,-3.4 18.1,-14c6.5,-6.5 10.2,-11 12.4,-15.5c1.8,-3.5 4.1,-7.6 5.1,-9.1c1.1,-1.4 1.9,-3.3 1.9,-4.2c0,-0.9 1.8,-3.6 4,-5.8c2.2,-2.3 4,-4.6 4,-5c0,-1.7 10.6,-12 14.1,-13.8c2,-1.1 3.9,-2.6 4.2,-3.4c0.8,-2 8.4,-5.6 11.8,-5.6c1.5,0 3.4,-0.6 4.1,-1.3c1.8,-1.7 5.7,-2.2 17.2,-2.1c7.4,0.1 10.2,0.6 11,1.6c0.6,0.8 2.8,1.8 4.8,2.2c2.1,0.4 4.4,1.3 5.2,2.1c0.8,0.8 1.9,1.5 2.5,1.5c0.6,0 1.1,0.7 1.1,1.5c0,0.8 0.4,1.5 0.8,1.5c0.4,0 1.7,1.5 2.7,3.3c2.9,4.6 2.7,26.3 -0.3,35.5l-2,6.3l2.1,1.4c6.6,4.2 18.7,2 24.8,-4.6c2,-2.1 4.1,-5.6 4.7,-7.7c1.7,-5.6 9.7,-20.7 12.6,-23.9c1.4,-1.5 2.6,-3.2 2.6,-3.8c0,-0.6 0.9,-1.7 2.1,-2.5c1.2,-0.8 3.9,-3.1 6.1,-5c5.5,-4.8 8.9,-5.8 19,-5.9c8.8,-0.1 11.8,0.4 11.8,2c0,0.5 -2.8,4.6 -6.3,9.1c-8.9,11.6 -12.3,17.6 -19,32.8c-2.8,6.4 -5.5,15.4 -6.7,22.2c-1,5.8 -1,7.1 0.5,10.2c1.3,2.6 2.4,3.6 4.1,3.6c1.2,0 2.6,-0.4 2.9,-1c0.3,-0.5 1.2,-1 2,-1c0.7,0 2.9,-1.5 4.8,-3.2c1.9,-1.8 4.7,-4.4 6.1,-5.7c1.4,-1.3 2.6,-2.8 2.6,-3.5c0,-0.6 1.4,-2.2 3.1,-3.6c1.7,-1.4 3.6,-3.8 4.3,-5.5c0.7,-1.6 2.9,-5.1 5,-7.8c2,-2.6 3.6,-5.1 3.6,-5.5c0,-1 5.1,-10.6 6,-11.2c0.5,-0.3 1.9,-3 3.3,-6c1.4,-3 3.7,-6.5 5.1,-7.7c1.4,-1.2 2.8,-3.3 3.1,-4.6c0.4,-1.4 1.9,-3 3.3,-3.8c1.5,-0.7 4.2,-2.3 5.9,-3.6c3,-2.2 4.1,-2.3 14,-2.1c12.7,0.3 13.8,1.4 7.9,7.5c-1.9,2 -3.8,4.9 -4.1,6.4c-0.4,1.6 -1.5,3.9 -2.5,5.2c-1,1.3 -3,5 -4.5,8.3c-1.5,3.2 -3.7,8.2 -5,10.9c-5.1,10.7 -6.8,17.5 -6.9,27.2c-0.1,11 0.4,11.7 7.8,10.8c5.7,-0.7 8.9,-2.2 13.3,-6.4c1.8,-1.7 3.6,-3.1 4.2,-3.1c0.5,0 1.9,-1.6 3.1,-3.5c1.2,-1.9 3,-4 4,-4.5c1,-0.5 2.8,-3.2 4.1,-6c1.2,-2.7 2.6,-5 3,-5c0.4,0 2,-2.1 3.5,-4.7c2.7,-4.7 2.8,-5.2 2.5,-18.1c-0.2,-12.7 0.9,-20.2 2.9,-20.2c0.5,0 1.1,-0.9 1.5,-1.9c0.3,-1 1.7,-3.1 3.2,-4.5c2.3,-2.3 3.3,-2.6 9.9,-2.6c9.4,0 9.9,0.8 9.1,13.6c-0.6,9.2 -1.8,12.7 -7.7,23.4c-1.2,2 -2,5.4 -2,8c0,4.5 2.4,9.5 4,8.5c0.5,-0.3 1.1,-0.1 1.5,0.5c1.6,2.6 17.7,-0.3 20.8,-3.8c0.8,-0.9 2.6,-3.8 4,-6.4c4.2,-8 8,-13.8 11.9,-18.1c2.1,-2.3 3.8,-4.7 3.8,-5.4c0,-0.6 0.8,-1.4 1.8,-1.7c1,-0.3 2.6,-2 3.5,-3.6c1,-1.7 3.5,-3.9 5.6,-5c2.1,-1 5.2,-3.1 6.9,-4.5c3.9,-3.3 9.3,-5.5 13.4,-5.5c1.9,0 4.2,-0.6 5.3,-1.4c2.7,-1.8 16.8,-1.9 20.3,0c1.5,0.8 3.7,1.4 5,1.4c2.3,0 6.2,1.8 7.5,3.5c0.8,1.2 4.6,-3.2 4.7,-5.4c0,-0.8 1.1,-2.9 2.5,-4.7c1.4,-1.8 2.5,-3.9 2.5,-4.7c0,-2.1 4,-10.9 6,-13.2c1,-1.1 2.6,-4.6 3.5,-7.9c1,-3.2 2.8,-7.2 4,-9c1.1,-1.7 2.7,-4.7 3.5,-6.6c2.2,-5.5 3.8,-7.6 8.1,-10.6c3.9,-2.6 4.6,-2.8 16.2,-2.8c14.7,-0.1 15,0.2 7.7,9.3c-2.7,3.4 -5.3,7.3 -5.6,8.7c-0.3,1.3 -1,2.4 -1.5,2.4c-1.3,0 -6.9,9.1 -6.9,11.2c0,0.9 -0.6,2.1 -1.3,2.5c-1.6,1 -7.7,11.8 -7.7,13.7c0,0.7 -0.6,1.8 -1.3,2.5c-1.3,1 -10.7,21.1 -14.2,30.1c-0.9,2.5 -2.3,5.6 -3,7c-1.1,2.2 -5,13.6 -9,26c-0.8,2.5 -1.9,7.2 -2.6,10.6c-0.9,5.2 -0.9,6.6 0.6,9.3c2.2,4.4 3.6,4.7 9.2,1.5c2.6,-1.5 5.9,-3.3 7.3,-4.1c5.1,-2.7 23,-25.8 23,-29.7c0,-1.2 0.9,-3.7 1.9,-5.6c1,-1.9 3.6,-6.8 5.6,-10.7c2,-4 4.1,-7.3 4.6,-7.3c0.5,0 0.9,-0.6 0.9,-1.4c0,-0.8 2.8,-4.3 6.3,-7.9c6.2,-6.4 6.3,-6.5 13,-7.2c3.7,-0.4 6.7,-1.1 6.7,-1.6c0,-0.5 1.4,-0.9 3,-0.9c1.7,0 3,0.5 3,1c0,0.6 1.4,1 3,1c1.7,0 3.3,0.6 3.6,1.4c0.5,1.4 -3.3,8.6 -4.6,8.6c-0.4,0 -2.2,2.5 -3.9,5.5c-1.7,3 -3.5,5.5 -4,5.5c-0.5,0 -2.6,3.6 -4.7,8c-2.1,4.4 -4.1,8 -4.5,8c-0.4,0 -1.7,2.6 -2.9,5.8c-1.2,3.1 -3.2,7.5 -4.5,9.8c-3.3,5.7 -5.5,12.2 -5.5,16.6c0,6.1 4.7,9.8 8.2,6.6c2.1,-2 5.6,-3.8 7.3,-3.8c0.8,0 1.9,-0.9 2.5,-2c0.6,-1.1 1.7,-2 2.5,-2c0.8,0 1.5,-0.5 1.5,-1.1c0,-1.4 2.5,-3.9 3.9,-3.9c0.6,0 1.1,-0.7 1.1,-1.5c0,-0.9 0.7,-1.8 1.5,-2.1c0.8,-0.4 1.5,-1.2 1.5,-1.8c0,-0.7 1.4,-2.5 3,-4.1c1.7,-1.6 3,-3.4 3,-4c0,-0.6 1.1,-2.1 2.3,-3.4c2.1,-1.9 3.5,-4.6 8.4,-15.9c3.4,-7.9 5.4,-15.2 6,-22c0.5,-5.5 1,-7.5 2.2,-7.9c0.9,-0.2 2.4,-0.9 3.3,-1.4c1,-0.5 4.6,-0.9 8.1,-0.9c6.8,0 12.5,2.1 13.3,4.9c0.3,0.9 1,2.4 1.5,3.3c1.2,2.3 1.2,4.8 -0.1,4.8c-0.5,0 -1,0.6 -1,1.4c0,1.1 0.8,1 3.7,-0.5c2.1,-1 4.2,-1.9 4.9,-1.9c0.6,0 2.2,-1 3.5,-2.3c2.9,-2.8 11,-6.7 14,-6.7c1.1,0 3,-0.5 4.2,-1.2c6.6,-3.7 17.5,-5 21.9,-2.7c5.2,2.8 6.8,5.9 6.8,12.7l0,6.6l2.8,-2.6c1.5,-1.4 3.8,-2.9 5.2,-3.3c1.4,-0.4 3.6,-1.8 5,-3c2.9,-2.8 11.2,-6.5 14.4,-6.5c1.2,0 3,-0.6 4.1,-1.3c3.2,-2.2 15.4,-3.8 20.3,-2.6c4.9,1.1 9.2,5.1 9.2,8.5c0,1.3 0.5,2.4 1,2.4c0.6,0 1,1.4 1,3c0,1.7 -0.4,3 -1,3c-0.5,0 -1,0.9 -1,2c0,1.2 -0.8,3.7 -1.9,5.8c-1,2 -2.1,4.9 -2.5,6.4c-0.3,1.4 -1.8,4 -3.2,5.7c-1.4,1.7 -3.7,6.5 -5.1,10.8c-1.3,4.3 -3.1,8.5 -3.8,9.3c-1.7,2 -4.5,12 -4.5,16c0,4.7 1.6,7 5,7c1.6,0 3.2,-0.5 3.5,-1c0.3,-0.6 2.5,-1.9 4.8,-2.9c4.5,-2.1 9,-6.1 14.7,-13c1.9,-2.4 4.3,-5.2 5.3,-6.3c0.9,-1.2 1.7,-2.9 1.7,-3.9c0,-0.9 1,-3 2.3,-4.6c1.2,-1.5 2.8,-3.9 3.5,-5.3c1.7,-3.5 3.2,-5.9 7,-10.7c1.7,-2.3 3.2,-4.4 3.2,-4.8c0,-1.6 11.2,-13.2 14.5,-14.9c1.9,-1.1 3.5,-2.2 3.5,-2.6c0,-1.5 8.1,-6 10.8,-6c1.5,0 3.9,-0.8 5.2,-1.7c3.6,-2.6 25.4,-2.6 29,-0.1c1.3,1 3.4,1.8 4.5,1.8c3.4,0 11,8 12.6,13.3c1.5,5.1 1.2,22.5 -0.5,30c-2.1,9.1 -2.1,9.3 1.5,10.6c7.1,2.5 16,0 21.2,-5.8c1.5,-1.7 3.4,-3.1 4.2,-3.1c0.8,0 1.5,-0.5 1.5,-1c0,-1.1 1,-2.4 4.2,-6c2.7,-3 4.8,-1.5 4.8,3.5c0,2.4 -0.4,4.7 -1,5c-0.5,0.3 -1,1.7 -1,2.9c0,1.4 -1,3 -2.2,3.8c-1.3,0.9 -3.9,3.1 -5.8,5c-2.8,2.9 -5.2,4 -12.4,5.9c-9,2.3 -11.4,2.2 -22.3,-0.7c-1.8,-0.5 -2.5,0 -3.5,2.2c-1.3,3.2 -2.6,4.7 -11.9,14.5c-3.5,3.7 -8.3,7.6 -10.6,8.8c-2.4,1.2 -4.3,2.5 -4.3,2.9c0,0.8 -4.8,2.6 -11.5,4.4c-4.7,1.2 -25.4,1.6 -30.7,0.5c-6.9,-1.4 -15.3,-11.5 -16.4,-19.8c-1.2,-9.5 -1.4,-9.6 -6.2,-4.7c-6.6,6.6 -13.3,12.6 -19.7,17.3c-6.1,4.6 -11.4,6.7 -18.4,7.3c-11.8,1 -16.1,-3.7 -16.1,-17.5c0,-7.6 2.5,-21.3 4,-21.3c0.4,0 1.3,-2.1 2,-4.7c1.6,-6.3 6.2,-18.7 7.2,-19.3c0.8,-0.6 4.8,-15.5 4.8,-18.1c0,-0.8 -0.6,-2.3 -1.3,-3.3c-1.2,-1.7 -1.9,-1.8 -6.3,-0.7c-5.1,1.2 -9.5,4.4 -17.1,12.1c-4.8,4.9 -13.3,16.9 -13.3,18.8c0,0.7 -0.4,1.2 -0.9,1.2c-0.5,0 -1.6,1.9 -2.6,4.2c-0.9,2.4 -2,4.5 -2.5,4.8c-1.5,0.9 -14.5,31.1 -17.1,39.8l-1,3.2l-13.9,0c-11.4,0 -14,-0.3 -14,-1.4c0,-1.3 11,-28.1 13,-31.8c0.6,-1 1,-2.3 1,-2.8c0,-0.6 0.8,-3 1.9,-5.3c1.9,-4.3 5,-11.7 7.1,-17.4c0.7,-1.8 1.6,-3.3 2,-3.3c0.4,0 1,-1.2 1.3,-2.7c0.3,-1.6 1.5,-5.5 2.6,-8.7c2.3,-6.4 2,-9 -0.9,-10.6c-2.9,-1.5 -16,1.8 -16,4.1c0,0.4 -0.9,1.1 -2,1.4c-3,0.9 -11,8.1 -14.5,12.9c-1.6,2.3 -3.5,4.5 -4.2,4.9c-0.7,0.4 -1.3,1.2 -1.3,1.8c0,1.5 -7.1,15.9 -7.9,15.9c-0.3,0 -1.1,1.9 -1.8,4.3c-1.4,5.6 -3.5,10.6 -5.5,13.7c-0.8,1.4 -2.1,4.9 -2.8,7.9c-0.7,3 -2.3,8 -3.6,11l-2.2,5.6l-12.8,0.3c-12.8,0.3 -15.8,-0.4 -13.7,-3c0.6,-0.7 2.2,-4.7 3.6,-9l2.5,-7.6l-3.7,2.5c-2,1.3 -4.6,3.7 -5.9,5.4c-1.3,1.6 -2.8,2.9 -3.4,2.9c-0.6,0 -2.7,1.2 -4.7,2.8c-5.8,4.4 -11.2,6.4 -18.8,6.9c-7.2,0.6 -7.3,0.5 -10.6,-2.8c-3.8,-3.8 -5.7,-10.2 -5.7,-19.5l0,-5.5l-3.2,3.6c-9,9.7 -14.7,14.9 -18,16.6c-2.1,1.1 -3.8,2.3 -3.8,2.7c0,2.2 -8.8,4.7 -16.3,4.7c-7.1,0 -8.1,-0.2 -9.8,-2.4c-1.1,-1.3 -2.2,-3.5 -2.5,-5c-0.3,-1.4 -0.9,-3.4 -1.5,-4.3c-1.3,-2.5 -1.2,-18.5 0.2,-19c0.6,-0.2 0.9,-2.4 0.7,-5.3c-0.3,-4.8 -0.4,-4.9 -1.5,-2.4c-0.6,1.5 -1.6,2.8 -2,3c-0.5,0.2 -2.4,2.4 -4.3,4.8c-10.5,13.2 -25.1,25.4 -34.9,28.9c-6.8,2.4 -20.2,2.3 -23,-0.2c-5.5,-5 -6.6,-8.4 -6.6,-20.3l0,-11.3l-3.5,0.6c-1.9,0.4 -4.3,1.1 -5.2,1.5c-2.7,1.4 -7.1,1.1 -14.1,-1.1c-6.2,-1.9 -9.7,-4.6 -12.6,-9.7c-1.1,-2.1 -2.6,-0.8 -6.6,6c-1.5,2.7 -3.4,5.1 -4.1,5.4c-0.8,0.3 -1.4,1.1 -1.4,1.8c0,0.8 -1.1,2.2 -2.5,3.3c-1.4,1.1 -2.5,2.4 -2.5,3c0,1.9 -16.1,15.5 -19.7,16.6c-1.3,0.4 -2.3,1.1 -2.3,1.5c0,0.5 -2.4,1.9 -5.2,3.1c-7.2,3.1 -26.8,3.5 -31.1,0.7c-1.5,-0.9 -2.7,-2.4 -2.7,-3.2c0,-0.7 -0.6,-2 -1.3,-2.7c-2.8,-2.7 -3.7,-5.8 -3.7,-12.2c0,-4.1 -0.4,-6.6 -1.1,-6.6c-0.6,0 -2.5,1.5 -4.2,3.2c-1.8,1.8 -5.1,4.5 -7.4,6c-2.4,1.5 -4.3,3.1 -4.3,3.6c0,0.4 -2.8,2.3 -6.2,4.2c-3.5,1.8 -6.5,3.6 -6.8,4c-3.1,4.2 -23.6,6.8 -28.5,3.6c-5.6,-3.7 -7.9,-15.4 -5.5,-27.6c0.4,-2.5 0.7,-4.6 0.5,-4.8c-0.2,-0.2 -3.9,0.4 -8.2,1.2c-7.1,1.5 -8.3,1.5 -13.8,0.1c-5.7,-1.5 -6.1,-1.5 -7,0.2c-0.5,1 -3.1,3.9 -5.7,6.5c-2.7,2.6 -4.8,5.1 -4.8,5.6c0,0.5 -1.6,1.7 -3.5,2.8c-2,1 -4.3,2.9 -5.1,4.2c-1.2,1.9 -4.3,3.7 -7.4,4.5c-0.3,0 -1.5,1 -2.8,2.2c-4.4,4.1 -15.4,6.9 -27.7,6.9c-15.4,0.1 -17.8,-0.6 -23.7,-6.5c-5.3,-5.3 -7.1,-9.3 -8.2,-18.1l-0.7,-5.7l-3,3.3c-1.6,1.9 -2.9,3.7 -2.9,4c0,1.8 -11.3,13.2 -14.8,15c-1.8,0.9 -3.2,2 -3.2,2.4c0,0.4 -1.7,1.6 -3.7,2.6c-4.9,2.4 -24.5,3.4 -28.3,1.4c-1.4,-0.7 -3.5,-3.3 -4.7,-5.8c-3,-5.8 -3,-14.2 -0.2,-26.3c2.3,-9.6 11.6,-34.1 14.8,-38.6c1,-1.4 2,-3.5 2.3,-4.7c0.5,-1.9 0.3,-2 -3.6,-1.3c-2.2,0.5 -6.4,0.8 -9.2,0.9c-5,0 -5.1,0.1 -7,4.3c-1,2.3 -2.9,6 -4.3,8.2c-1.4,2.2 -3.4,5.6 -4.4,7.5c-1.1,1.9 -3.2,4.7 -4.8,6.3c-1.6,1.5 -2.9,3.1 -2.9,3.5c-0.1,1.2 -5.9,7.2 -7,7.2c-0.5,0 -1,0.6 -1,1.4c0,0.8 -1.5,2.6 -3.2,4.1c-1.8,1.4 -5.2,4.4 -7.5,6.6c-2.3,2.1 -4.9,3.9 -5.8,3.9c-0.8,0 -1.5,0.5 -1.5,1.1c0,1.5 -3.6,4.7 -6.3,5.5c-1.1,0.3 -4.1,2.1 -6.6,3.9c-5.1,3.5 -6.8,4.4 -12.3,5.9c-1.5,0.4 -2.9,1.4 -3.2,2.1c-0.2,0.7 -2,1.6 -3.8,2c-1.8,0.4 -3.7,1.1 -4.3,1.5c-0.5,0.4 -2.6,1.1 -4.5,1.4c-8.7,1.7 -17.5,4 -18,4.7c-0.6,0.9 -21.6,1.8 -29.2,1.2Zm246.7,-19.1c2.5,-1.8 5,-3.2 5.5,-3.2c0.5,0 2.3,-2 3.9,-4.4c1.7,-2.4 3.7,-4.6 4.6,-5c0.9,-0.3 2.3,-2.2 3.1,-4.1c0.8,-2 2.3,-4.4 3.3,-5.4c2.3,-2.3 5.2,-8.1 4.1,-8.1c-0.5,0 -1.2,-1 -1.6,-2.2c-0.4,-1.3 -1.5,-3.4 -2.4,-4.8c-1,-1.4 -2.1,-4.9 -2.5,-7.8c-1.1,-9.7 2.8,-16.4 10.5,-17.6c4.3,-0.7 4.6,-1.2 2.9,-4.9c-1.5,-3.3 -6,-5.7 -10.6,-5.7c-4,0 -14.3,4.4 -14.3,6.1c0,0.5 -0.6,0.9 -1.2,0.9c-1.7,0 -13,12.6 -14.5,16.2c-0.7,1.5 -1.7,2.8 -2.2,2.8c-1.3,0 -5.8,9.4 -6.7,13.8c-0.4,1.8 -1,3.2 -1.4,3.2c-1.2,0 -4.2,13.5 -4.4,19.4c-0.1,5.6 2.7,12.6 5.1,12.6c0.7,0 1.3,0.5 1.3,1.1c0,0.8 2.1,1 6.5,0.7c5.3,-0.3 7.3,-1 11,-3.6Zm663.1,2c10.7,-5.8 20.2,-15.9 25.9,-27.6l2,-4.1l-2.9,-6c-4,-8 -4.8,-17.9 -1.7,-21.2c1.2,-1.2 2.1,-2.7 2.1,-3.2c0,-1 6,-3.1 8.8,-3.1c2.3,0 1.2,-4.2 -1.9,-7.1c-2.4,-2.3 -4.1,-2.9 -7.4,-2.9c-5.1,0 -12.2,2.9 -15.5,6.4c-1.3,1.5 -2.9,2.6 -3.7,2.6c-0.7,0 -1.3,0.4 -1.3,0.9c0,0.5 -1.7,2.7 -3.7,4.9c-9,9.4 -15.8,22.4 -18.8,36c-0.3,1.7 -1.1,3.2 -1.6,3.2c-0.5,0 -0.9,3.4 -0.9,7.5c0,4.3 0.4,7.5 1,7.5c0.6,0 1,0.6 1,1.4c0,0.7 1.2,2.5 2.6,4c2.2,2.1 3.6,2.6 7.8,2.6c2.8,-0.1 6.5,-0.9 8.2,-1.8Zm-374.6,-13.2c1.1,-0.5 2.5,-1 3.2,-1c0.7,0 4.2,-2.8 7.8,-6.3c7.4,-7.1 9.2,-9.3 13.9,-16.1c1.9,-2.7 4.1,-5.6 5,-6.6c0.9,-0.9 2.8,-4.1 4.3,-7.1c1.5,-3 3.6,-6.4 4.6,-7.5c1.1,-1.1 2.3,-3.1 2.7,-4.5c0.4,-1.3 1.6,-3.5 2.6,-4.9c1,-1.4 2,-3.6 2.1,-4.9c0.3,-2.1 -0.3,-2.6 -3.2,-3.2c-6.2,-1.4 -17,1.1 -23.5,5.5c-3.4,2.2 -14.4,12.8 -14.5,13.7c0,0.4 -1.7,3.6 -3.8,7c-10.5,17.4 -15.2,29.4 -13.3,34.3c0.9,2.4 6.1,4.5 8.4,3.4c0.9,-0.4 2.6,-1.2 3.7,-1.8Z" style="fill:rgb(43,157,192);fill-rule:nonzero;"/>            <path d="M732.6,286.7c-1.9,-2.5 -2.6,-4.6 -2.6,-8c0,-2.6 0.4,-4.7 0.9,-4.7c0.5,0 1.2,-1.1 1.5,-2.4c0.8,-3.1 6.2,-8.4 10.5,-10.2c1.8,-0.8 6.2,-1.4 9.8,-1.4c5.5,0 6.7,0.4 8.8,2.5c2,1.9 2.5,3.4 2.5,7.4c0,6 -2.6,9.1 -7.6,9.1c-3.4,0 -10.4,2.5 -10.4,3.8c0,0.4 -1.3,2.2 -2.9,4c-4,4.3 -7.2,4.2 -10.5,-0.1Z" style="fill:rgb(43,157,192);fill-rule:nonzero;"/>            <path d="M318,190.8c0,-43.6 0.4,-79.9 0.9,-80.6c0.4,-0.8 4,-2.2 7.9,-3.2c12.1,-3.2 11.2,-1.4 11.2,-22c0,-16.7 0.1,-18 1.8,-18c3.8,0 4.2,1.9 4.2,17.7l0,15.3l3.3,-1.3c1.8,-0.8 5.4,-1.7 8,-2.1l4.7,-0.7l0,174.1l-6.5,0l-6.5,0l0,-19.5c0,-16.7 -0.2,-19.5 -1.5,-19.5c-1.3,0 -1.5,2.8 -1.5,19.5l0,19.5l-13,0l-13,0l0,-79.2Z" style="fill:rgb(43,157,192);fill-rule:nonzero;"/>            <path d="M365,183l0,-87l4.3,0.6c8.5,1.3 7.7,-8.2 7.7,87.9l0,85.5l-6,0l-6,0l0,-87Z" style="fill:rgb(43,157,192);fill-rule:nonzero;"/>            <path d="M383.2,162.2l0.3,-107.7l4.6,-1c2.5,-0.5 5.2,-1.5 6,-2.1c1.8,-1.5 18.5,-7.4 20.9,-7.4c1,0 2.5,-0.6 3.2,-1.3c2.1,-2.1 5.7,-3.8 7.4,-3.5c1.4,0.3 1.6,-1.4 1.4,-13.5c0,-7.6 -0.4,-14.5 -0.7,-15.4c-0.4,-1.1 -0.2,-1.4 0.8,-1.1c1.1,0.4 1.5,3.5 1.7,14.2l0.3,13.8l2.5,-0.6c1.5,-0.4 3.9,-1 5.5,-1.3l2.9,-0.5l0,235.2l-28.5,0l-28.5,0l0.2,-107.8Z" style="fill:rgb(43,157,192);fill-rule:nonzero;"/>            <path d="M447,152.5c0,-104.9 0.2,-117.5 1.5,-117.5c2.3,0 13.3,3.7 19,6.5c2.8,1.3 5.8,2.6 6.8,2.9c1.6,0.5 1.7,6.8 1.7,113.1l0,112.5l-14.5,0l-14.5,0l0,-117.5Z" style="fill:rgb(43,157,192);fill-rule:nonzero;"/>            <path d="M499,202.5l0,-65.5l9,0l0,131l-4.5,0l-4.5,0l0,-65.5Z" style="fill:rgb(43,157,192);fill-rule:nonzero;"/>            <path d="M554.7,263.3c-0.4,-0.3 -0.7,-10.9 -0.7,-23.5l0,-22.8l7,0l0,47l-2.8,0c-1.6,0 -3.2,-0.3 -3.5,-0.7Z" style="fill:rgb(43,157,192);fill-rule:nonzero;"/>            <path d="M240,247.5l0,-11.5l6,0l0,23l-3,0l-3,0l0,-11.5Z" style="fill:rgb(43,157,192);fill-rule:nonzero;"/>            <path d="M275.2,220.8l0.3,-27.3l9,0l0.3,27.3l0.2,27.2l-5,0l-5,0l0.2,-27.2Z" style="fill:rgb(43,157,192);fill-rule:nonzero;"/>        </g>        <g id="layer104">            <path d="M937.5,406.4c-8.2,-1.2 -9.6,-1.7 -13.2,-5.2c-6.1,-5.9 -8.1,-9.4 -8.9,-15.3c-1.2,-9.5 -1.4,-9.6 -6.2,-4.7c-6.6,6.6 -13.3,12.6 -19.7,17.3c-6.1,4.6 -11.4,6.7 -18.4,7.3c-11.8,1 -16.1,-3.7 -16.1,-17.5c0,-7.6 2.5,-21.3 4,-21.3c0.4,0 1.3,-2.1 2,-4.7c1.6,-6.3 6.2,-18.7 7.2,-19.3c0.8,-0.6 4.8,-15.5 4.8,-18.1c0,-0.8 -0.6,-2.3 -1.3,-3.3c-1.2,-1.7 -1.9,-1.8 -6.3,-0.7c-5.1,1.2 -9.5,4.4 -17.1,12.1c-4.8,4.9 -13.3,16.9 -13.3,18.8c0,0.7 -0.4,1.2 -0.9,1.2c-0.5,0 -1.6,1.9 -2.6,4.2c-0.9,2.4 -2,4.5 -2.5,4.8c-1.5,0.9 -14.5,31.1 -17.1,39.8l-1,3.2l-13.9,0c-11.4,0 -14,-0.3 -14,-1.4c0,-1.3 11,-28.1 13,-31.8c0.6,-1 1,-2.3 1,-2.8c0,-0.6 0.8,-3 1.9,-5.3c1.9,-4.3 5,-11.7 7.1,-17.4c0.7,-1.8 1.6,-3.3 2,-3.3c0.4,0 1,-1.2 1.3,-2.7c0.3,-1.6 1.5,-5.5 2.6,-8.7c2.3,-6.4 2,-9 -0.9,-10.6c-2.9,-1.5 -16,1.8 -16,4.1c0,0.4 -0.9,1.1 -2,1.4c-3,0.9 -11,8.1 -14.5,12.9c-1.6,2.3 -3.5,4.5 -4.2,4.9c-0.7,0.4 -1.3,1.2 -1.3,1.8c0,1.5 -7.1,15.9 -7.9,15.9c-0.3,0 -1.1,1.9 -1.8,4.3c-1.4,5.6 -3.5,10.6 -5.5,13.7c-0.8,1.4 -2.1,4.9 -2.8,7.9c-0.7,3 -2.3,8 -3.6,11l-2.2,5.6l-12.8,0.3c-12.8,0.3 -15.8,-0.4 -13.7,-3c0.6,-0.7 2.2,-4.7 3.6,-9l2.5,-7.6l-3.7,2.5c-2,1.3 -4.6,3.7 -5.9,5.4c-1.3,1.6 -2.8,2.9 -3.4,2.9c-0.6,0 -2.7,1.2 -4.7,2.8c-5.8,4.4 -11.2,6.4 -18.8,6.9c-7.2,0.6 -7.3,0.5 -10.6,-2.8c-3.8,-3.8 -5.7,-10.2 -5.7,-19.5l0,-5.5l-3.2,3.4c-1.8,1.8 -3.9,4.3 -4.7,5.4c-1.7,2.5 -8.1,3 -8.1,0.7c0,-0.8 0.6,-1.7 1.4,-2c1.2,-0.5 1.2,-0.9 0.1,-3.1c-1.5,-2.8 -1.2,-4.3 0.8,-4.3c2.9,0 22.7,-25.6 22.7,-29.4c0,-1.2 0.9,-3.7 1.9,-5.6c1,-1.9 3.6,-6.8 5.6,-10.7c2,-4 4.1,-7.3 4.6,-7.3c0.5,0 0.9,-0.6 0.9,-1.4c0,-0.8 2.8,-4.3 6.3,-7.9c6.2,-6.4 6.3,-6.5 13,-7.2c3.7,-0.4 6.7,-1.1 6.7,-1.6c0,-0.5 1.4,-0.9 3,-0.9c1.7,0 3,0.5 3,1c0,0.6 1.4,1 3,1c1.7,0 3.3,0.6 3.6,1.4c0.5,1.4 -3.3,8.6 -4.6,8.6c-0.4,0 -2.2,2.5 -3.9,5.5c-1.7,3 -3.5,5.5 -4,5.5c-0.5,0 -2.6,3.6 -4.7,8c-2.1,4.4 -4.1,8 -4.5,8c-0.4,0 -1.7,2.6 -2.9,5.8c-1.2,3.1 -3.2,7.5 -4.5,9.8c-3.3,5.7 -5.5,12.2 -5.5,16.6c0,6.1 4.7,9.8 8.2,6.6c2.1,-2 5.6,-3.8 7.3,-3.8c0.8,0 1.9,-0.9 2.5,-2c0.6,-1.1 1.7,-2 2.5,-2c0.8,0 1.5,-0.5 1.5,-1.1c0,-1.4 2.5,-3.9 3.9,-3.9c0.6,0 1.1,-0.7 1.1,-1.5c0,-0.9 0.7,-1.8 1.5,-2.1c0.8,-0.4 1.5,-1.2 1.5,-1.8c0,-0.7 1.4,-2.5 3,-4.1c1.7,-1.6 3,-3.4 3,-4c0,-0.6 1.1,-2.1 2.3,-3.4c2.1,-1.9 3.5,-4.6 8.4,-15.9c3.4,-7.9 5.4,-15.2 6,-22c0.5,-5.5 1,-7.5 2.2,-7.9c0.9,-0.2 2.4,-0.9 3.3,-1.4c1,-0.5 4.6,-0.9 8.1,-0.9c6.8,0 12.5,2.1 13.3,4.9c0.3,0.9 1,2.4 1.5,3.3c1.2,2.3 1.2,4.8 -0.1,4.8c-0.5,0 -1,0.6 -1,1.4c0,1.1 0.8,1 3.7,-0.5c2.1,-1 4.2,-1.9 4.9,-1.9c0.6,0 2.2,-1 3.5,-2.3c2.9,-2.8 11,-6.7 14,-6.7c1.1,0 3,-0.5 4.2,-1.2c6.6,-3.7 17.5,-5 21.9,-2.7c5.2,2.8 6.8,5.9 6.8,12.7l0,6.6l2.8,-2.6c1.5,-1.4 3.8,-2.9 5.2,-3.3c1.4,-0.4 3.6,-1.8 5,-3c2.9,-2.8 11.2,-6.5 14.4,-6.5c1.2,0 3,-0.6 4.1,-1.3c3.2,-2.2 15.4,-3.8 20.3,-2.6c4.9,1.1 9.2,5.1 9.2,8.5c0,1.3 0.5,2.4 1,2.4c0.6,0 1,1.4 1,3c0,1.7 -0.4,3 -1,3c-0.5,0 -1,0.9 -1,2c0,1.2 -0.8,3.7 -1.9,5.8c-1,2 -2.1,4.9 -2.5,6.4c-0.3,1.4 -1.8,4 -3.2,5.7c-1.4,1.7 -3.7,6.5 -5.1,10.8c-1.3,4.3 -3.1,8.5 -3.8,9.3c-1.7,2 -4.5,12 -4.5,16c0,4.7 1.6,7 5,7c1.6,0 3.2,-0.5 3.5,-1c0.3,-0.6 2.5,-1.9 4.8,-2.9c4.5,-2.1 9,-6.1 14.7,-13c1.9,-2.4 4.3,-5.2 5.3,-6.3c0.9,-1.2 1.7,-2.9 1.7,-3.9c0,-0.9 1,-3 2.3,-4.6c1.2,-1.5 2.8,-3.9 3.5,-5.3c1.7,-3.5 3.2,-5.9 7,-10.7c1.7,-2.3 3.2,-4.4 3.2,-4.8c0,-1.6 11.2,-13.2 14.5,-14.9c1.9,-1.1 3.5,-2.2 3.5,-2.6c0,-1.5 8.1,-6 10.8,-6c1.5,0 3.9,-0.8 5.2,-1.7c2.1,-1.5 4.7,-1.8 14.5,-1.8c9.8,0 12.4,0.3 14.5,1.8c1.3,0.9 3.4,1.7 4.5,1.7c3.4,0 11,8 12.6,13.3c1.5,5.1 1.2,22.5 -0.5,30c-2.1,9.1 -2.1,9.3 1.5,10.6c7.1,2.5 16,0 21.2,-5.8c1.5,-1.7 3.4,-3.1 4.2,-3.1c0.8,0 1.5,-0.5 1.5,-1c0,-1.1 1,-2.4 4.2,-6c2.7,-3 4.8,-1.5 4.8,3.5c0,2.4 -0.4,4.7 -1,5c-0.5,0.3 -1,1.7 -1,2.9c0,1.4 -1,3 -2.2,3.8c-1.3,0.9 -3.9,3.1 -5.8,5c-2.8,2.9 -5.2,4 -12.4,5.9c-9,2.3 -11.4,2.2 -22.3,-0.7c-1.8,-0.5 -2.5,0 -3.5,2.2c-1.3,3.2 -2.6,4.7 -11.9,14.5c-3.5,3.7 -8.3,7.6 -10.6,8.8c-2.4,1.2 -4.3,2.5 -4.3,2.9c0,0.7 -4.9,2.6 -10.9,4.2c-4.1,1 -21.4,2 -25.6,1.4Zm27.1,-12.2c10.7,-5.8 20.2,-15.9 25.9,-27.6l2,-4.1l-2.9,-6c-4,-8 -4.8,-17.9 -1.7,-21.2c1.2,-1.2 2.1,-2.7 2.1,-3.2c0,-1 6,-3.1 8.8,-3.1c2.3,0 1.2,-4.2 -1.9,-7.1c-2.4,-2.3 -4.1,-2.9 -7.4,-2.9c-5.1,0 -12.2,2.9 -15.5,6.4c-1.3,1.5 -2.9,2.6 -3.7,2.6c-0.7,0 -1.3,0.4 -1.3,0.9c0,0.5 -1.7,2.7 -3.7,4.9c-9,9.4 -15.8,22.4 -18.8,36c-0.3,1.7 -1.1,3.2 -1.6,3.2c-0.5,0 -0.9,3.4 -0.9,7.5c0,4.3 0.4,7.5 1,7.5c0.6,0 1,0.6 1,1.4c0,0.7 1.2,2.5 2.6,4c2.2,2.1 3.6,2.6 7.8,2.6c2.8,-0.1 6.5,-0.9 8.2,-1.8Z" style="fill:rgb(141,173,184);fill-rule:nonzero;"/>            <path d="M233.8,306.3c1.7,-0.2 4.7,-0.2 6.5,0c1.7,0.2 0.3,0.4 -3.3,0.4c-3.6,0 -5,-0.2 -3.2,-0.4Z" style="fill:rgb(141,173,184);fill-rule:nonzero;"/>            <path d="M732.6,286.7c-1.9,-2.5 -2.6,-4.6 -2.6,-8c0,-2.6 0.4,-4.7 0.9,-4.7c0.5,0 1.2,-1.1 1.5,-2.4c0.8,-3.1 6.2,-8.4 10.5,-10.2c1.8,-0.8 6.2,-1.4 9.8,-1.4c5.5,0 6.7,0.4 8.8,2.5c2,1.9 2.5,3.4 2.5,7.4c0,6 -2.6,9.1 -7.6,9.1c-3.4,0 -10.4,2.5 -10.4,3.8c0,0.4 -1.3,2.2 -2.9,4c-4,4.3 -7.2,4.2 -10.5,-0.1Z" style="fill:rgb(141,173,184);fill-rule:nonzero;"/>            <path d="M365,183l0,-87l4.3,0.6c8.5,1.3 7.7,-8.2 7.7,87.9l0,85.5l-6,0l-6,0l0,-87Z" style="fill:rgb(141,173,184);fill-rule:nonzero;"/>            <path d="M383.5,163c0,-59.1 0.1,-83.3 0.2,-53.7c0.2,29.5 0.2,77.9 0,107.5c-0.1,29.5 -0.2,5.3 -0.2,-53.8Z" style="fill:rgb(141,173,184);fill-rule:nonzero;"/>            <path d="M408,268.5c0,-0.8 0.7,-1.5 1.5,-1.5c0.8,0 1.5,0.4 1.5,0.9c0,0.5 -0.7,1.1 -1.5,1.5c-0.9,0.3 -1.5,0 -1.5,-0.9Z" style="fill:rgb(141,173,184);fill-rule:nonzero;"/>            <path d="M439.5,154c0,-64.1 0.1,-90.3 0.2,-58.3c0.2,32.1 0.2,84.5 0,116.5c-0.1,32.1 -0.2,5.9 -0.2,-58.2Z" style="fill:rgb(141,173,184);fill-rule:nonzero;"/>            <path d="M447,152.5c0,-104.9 0.2,-117.5 1.5,-117.5c2.3,0 13.3,3.7 19,6.5c2.8,1.3 5.8,2.6 6.8,2.9c1.6,0.5 1.7,6.8 1.7,113.1l0,112.5l-14.5,0l-14.5,0l0,-117.5Z" style="fill:rgb(141,173,184);fill-rule:nonzero;"/>            <path d="M409.3,265.3c-1,-0.4 -1.3,-10.4 -1.3,-45.4c0,-39.5 0.2,-44.9 1.5,-44.9c1.4,0 1.5,5.5 1.5,45.5c0,25 -0.2,45.5 -0.3,45.4c-0.1,0 -0.8,-0.3 -1.4,-0.6Z" style="fill:rgb(141,173,184);fill-rule:nonzero;"/>            <path d="M240,247.5l0,-11.5l6,0l0,23l-3,0l-3,0l0,-11.5Z" style="fill:rgb(141,173,184);fill-rule:nonzero;"/>            <path d="M304.7,233c-0.4,-0.8 -0.6,-16.1 -0.5,-34l0.3,-32.5l2.8,-0.3c1.5,-0.2 2.7,0.1 2.7,0.6c0,0.6 -0.9,0.8 -2,0.5c-1.9,-0.5 -2,0.1 -2.2,33.3c-0.2,18.7 -0.6,33.2 -1.1,32.4Z" style="fill:rgb(141,173,184);fill-rule:nonzero;"/>            <path d="M394,160.1c0,-65.3 0.2,-74.1 1.5,-74.1c1.3,0 1.5,8.6 1.3,73.7c-0.2,57.8 -0.6,73.7 -1.5,74.1c-1,0.3 -1.3,-14.9 -1.3,-73.7Z" style="fill:rgb(141,173,184);fill-rule:nonzero;"/>            <path d="M524,204.5l0,-29.5l8,0l0,59l-4,0l-4,0l0,-29.5Z" style="fill:rgb(141,173,184);fill-rule:nonzero;"/>            <path d="M596,192.5l0,-25.5l12.5,0l31,34.4l0.3,-17.2l0.2,-17.2l11,0l0,51l-5.5,0c-5.2,0 -5.7,-0.2 -10.2,-4.9c-9.7,-9.9 -16.3,-16.9 -16.3,-17.3c0,-0.3 -2.7,-3.4 -6,-6.9l-6,-6.4l0,35.5l-5.5,0l-5.5,0l0,-25.5Z" style="fill:rgb(141,173,184);fill-rule:nonzero;"/>            <path d="M679.7,214.8c-1.5,-1.8 -3.2,-5.2 -3.8,-7.5c-0.6,-2.3 -2,-5.1 -3.2,-6.4c-2.6,-2.8 -5.4,-8.2 -6.2,-12c-0.4,-1.6 -1.4,-3.5 -2.4,-4.1c-2.1,-1.6 -8.1,-14.5 -8.1,-17.4c0,-0.2 2.7,-0.4 6,-0.4l5.9,0l2,4.5c1.1,2.5 2.7,5.2 3.6,6.1c0.8,0.8 1.5,2.2 1.5,3c0,2.1 5.9,13.4 6.9,13.4c0.6,0 1.3,1 1.6,2.3c0.3,1.2 1.1,3.5 1.7,5l1.1,2.9l2.2,-2.7c1.3,-1.4 2.8,-4 3.5,-5.8c2.6,-7 4.3,-10.7 5,-10.7c0.6,0 2.4,-3.8 6.5,-13.7l1.8,-4.3l6.9,0c3.7,0 6.8,0.4 6.8,0.9c0,2.1 -2.1,6.4 -3.9,8c-1,0.9 -2.9,4.3 -4.1,7.6c-1.3,3.3 -3.3,7 -4.4,8.1c-1.2,1.2 -2.7,3.7 -3.4,5.6c-0.7,1.9 -3.2,7 -5.7,11.4c-2.5,4.3 -4.5,8.2 -4.5,8.6c0,0.5 -2.4,0.8 -5.3,0.8c-4.8,0 -5.6,-0.3 -8,-3.2Z" style="fill:rgb(141,173,184);fill-rule:nonzero;"/>            <path d="M724,192.5l0,-25.5l49,0l0,9l-18.5,0l-18.5,0l0,10l17.8,0.2l17.7,0.3l0.3,4.3l0.3,4.2l-18,0l-18.1,0l0,14l40,0l0,9l-26,0l-26,0l0,-25.5Z" style="fill:rgb(141,173,184);fill-rule:nonzero;"/>            <path d="M795.9,217.1c-7.7,-2.4 -13.9,-8.4 -13.9,-13.6l0,-3.5l5.5,0c4.9,0 5.7,0.3 6.7,2.5c1.7,3.8 8.3,6.5 16.1,6.5c3.6,0 7.6,-0.4 8.9,-0.9c2.7,-1.1 6.8,-4.5 6.8,-5.7c0,-0.5 -1,-1.6 -2.2,-2.4c-6.1,-3.8 -10,-5.1 -17.9,-6c-9.7,-1 -18.5,-4.2 -19.4,-7.1c-0.4,-1 -1.1,-1.9 -1.6,-1.9c-1.5,0 -1,-8.8 0.6,-12c2.7,-5.3 8.5,-7.4 21.4,-7.8c14.8,-0.5 21.8,1.3 25.6,6.8c1.4,2 2.5,5 2.5,6.8l0,3.2l-5.4,0c-4.8,0 -5.4,-0.2 -6,-2.4c-0.8,-3.2 -7,-5.6 -14.7,-5.6c-9.8,0 -15.9,4.2 -11.5,7.9c1.8,1.5 13.9,4.1 19.2,4.1c2.2,0 4.4,0.4 5,0.8c0.5,0.5 3,1.7 5.6,2.6c6.5,2.4 9.8,6.5 9.8,12.2c0,5 -2.3,10.4 -4.4,10.4c-0.8,0 -1.6,0.6 -1.9,1.4c-1.1,2.8 -9.6,4.6 -21.1,4.5c-6.1,0 -12.3,-0.4 -13.7,-0.8Z" style="fill:rgb(141,173,184);fill-rule:nonzero;"/>            <path d="M862,197l0,-21l-10.5,0l-10.5,0l0,-4.5l0,-4.5l56,0l0,9l-11.5,0l-11.5,0l0,42l-6,0l-6,0l0,-21Z" style="fill:rgb(141,173,184);fill-rule:nonzero;"/>            <path d="M571,192l0,-25l12,0l0,50l-6,0l-6,0l0,-25Z" style="fill:rgb(141,173,184);fill-rule:nonzero;"/>            <path d="M480.7,210.4c-0.4,-0.4 -0.7,-23.6 -0.7,-51.4c0,-42.6 0.2,-50.9 1.4,-51.9c0.9,-0.7 3.8,-1.1 7.3,-0.9l5.8,0.3l0,104l-6.5,0.3c-3.6,0.2 -6.9,0 -7.3,-0.4Z" style="fill:rgb(141,173,184);fill-rule:nonzero;"/>            <path d="M426,110.1c0,-45.6 0.3,-70.2 1,-70.6c0.7,-0.4 1,23.2 1,69.9c0,46.4 -0.3,70.6 -1,70.6c-0.7,0 -1,-24 -1,-69.9Z" style="fill:rgb(141,173,184);fill-rule:nonzero;"/>            <path d="M337.8,133.3c-0.2,-16.4 -0.2,-38 0,-48c0.2,-17.1 0.4,-18.3 2.1,-18.3c4.1,0 4.1,0.8 3.4,49.4l-0.6,46.6l-2.3,0l-2.3,0l-0.3,-29.7Z" style="fill:rgb(141,173,184);fill-rule:nonzero;"/>            <path d="M416,107.3c0,-0.4 -0.1,-14.4 -0.3,-31.1c-0.2,-25.6 -0.4,-30.4 -1.7,-31.2c-1.3,-0.8 -1.3,-1 0.2,-1c0.9,0 2.4,-0.3 3.2,-0.6c1.5,-0.6 1.6,2.4 1.4,31.7c-0.2,24.7 -0.6,32.3 -1.5,32.7c-0.7,0.2 -1.3,0 -1.3,-0.5Z" style="fill:rgb(141,173,184);fill-rule:nonzero;"/>            <path d="M426.8,23.8c-0.2,-7.9 -0.2,-14.5 -0.1,-14.7c0.1,-0.1 0.6,0 1.2,0.4c1.4,0.8 1.5,28.5 0.2,28.5c-0.6,0 -1.1,-6.2 -1.3,-14.2Z" style="fill:rgb(141,173,184);fill-rule:nonzero;"/>        </g>    </g></svg>