<?xml version="1.0" encoding="UTF-8" standalone="no"?><!DOCTYPE svg PUBLIC "-//W3C//DTD SVG 1.1//EN" "http://www.w3.org/Graphics/SVG/1.1/DTD/svg11.dtd"><svg width="100%" height="100%" viewBox="0 0 1024 512" version="1.1" xmlns="http://www.w3.org/2000/svg" xmlns:xlink="http://www.w3.org/1999/xlink" xml:space="preserve" style="fill-rule:evenodd;clip-rule:evenodd;stroke-linejoin:round;stroke-miterlimit:2;"><title>PRI</title><desc>The PRI is the world’s leading proponent of responsible investment.It works to understand the investment implications of environmental, social and governance (ESG) factors and to support its international network of investor signatories in incorporating these factors into their investment and ownership decisions. The PRI acts in the long-term interests of its signatories, of the financial markets and economies in which they operate and ultimately of the environment and society as a whole.</desc>    <g transform="matrix(2.77853,0,0,2.77853,2,160.002)">        <path d="M230.2,9.4c3.2,0 4.5,-2.1 4.5,-4c0,-2 -1.2,-3.9 -4.4,-3.9l-5.8,0l0,7.9l5.7,0Zm-7.2,-9.1l7.2,0c4.3,0 5.9,2.6 5.9,5.1c0,2.1 -1.2,4.4 -4,5c0,0 -0.8,0.2 -1.8,0.2l-5.8,0l0,7l-1.5,0l0,-17.3Z" style="fill:rgb(35,31,32);fill-rule:nonzero;"/>        <rect x="49" y="0.1" width="19.5" height="19.5" style="fill:rgb(0,174,239);fill-rule:nonzero;"/>        <rect x="49" y="24.7" width="19.5" height="19.5" style="fill:rgb(0,135,205);fill-rule:nonzero;"/>        <rect x="49" y="49.2" width="19.5" height="19.5" style="fill:rgb(0,84,166);fill-rule:nonzero;"/>        <rect x="24.5" y="24.7" width="19.5" height="19.5" style="fill:rgb(0,174,239);fill-rule:nonzero;"/>        <rect x="24.5" y="49.2" width="19.5" height="19.5" style="fill:rgb(0,135,205);fill-rule:nonzero;"/>        <rect x="0" y="49.2" width="19.5" height="19.5" style="fill:rgb(0,174,239);fill-rule:nonzero;"/>        <path d="M88.4,33.1l17,0c8.5,0 12.9,-6.3 12.9,-12.5c0,-4.6 -1.7,-8.1 -5,-10.3c-2.7,-1.8 -5.2,-2.2 -8.2,-2.2l-16.7,0l0,25Zm-8.5,35.6l0,-68.5l24.5,0c5.7,0 10.2,0.8 15.2,4.7c4.5,3.5 7.2,9.5 7.2,16c0,9.8 -7.4,20.2 -21,20.2l-17.4,0l0,27.6l-8.5,0Zm62.2,-37.5l17.3,0c9,0 13.1,-6.2 13.1,-12.3c0,-3.9 -1.4,-7 -4,-8.9c-2.3,-1.7 -4.7,-2.4 -8.5,-2.4l-17.8,0l0,23.6l-0.1,0Zm30,37.5l-14.6,-30.2l-15.5,0l0,30.2l-8.6,0l0,-68.5l26.6,0c5.9,0 10.2,1.4 13.7,4.4c4.2,3.6 6.7,8.8 6.7,14.3c0,8.8 -4.8,15.7 -13,18.5l-1.2,0.4l15.6,30.9l-9.7,0Zm18.4,-68.5l8.6,0l0,68.5l-8.6,0l0,-68.5Zm19.9,-0.1l1.4,0l0,68.5l-1.4,0l0,-68.5Zm28.5,4.9l1.2,0l0.1,2.2c1,-1.7 2.4,-2.5 4,-2.5c0.6,0 1.1,0.1 1.5,0.2l-0.3,1.3c-0.4,-0.1 -0.9,-0.2 -1.4,-0.2c-1.5,0 -2.8,0.9 -3.8,2.7l0,9l-1.4,0l0,-12.7l0.1,0Zm9.6,0l1.4,0l0,12.6l-1.4,0l0,-12.6Zm0,-4.7l1.4,0l0,1.5l-1.4,0l0,-1.5Zm5.7,4.7l1.2,0l0.1,1.9c1.1,-1.2 2.7,-2.2 4.6,-2.2c2.9,0 3.9,1.7 3.9,4.2l0,8.7l-1.4,0l0,-8.7c0,-1.8 -0.7,-3.1 -2.8,-3.1c-1.8,0 -3.2,0.9 -4.4,2.3l0,9.5l-1.4,0l0,-12.6l0.2,0Zm19.2,-0.3c1.7,0 3,0.6 3.9,1.2l-0.7,1c-0.7,-0.5 -1.7,-1 -3.2,-1c-2.6,0 -4.5,2 -4.5,5.3c0,3.5 1.8,5.6 4.5,5.6c1.5,0 2.5,-0.5 3.4,-1.3l0.8,0.9c-1.1,1 -2.4,1.5 -4.2,1.5c-3.5,0 -5.8,-2.6 -5.8,-6.8c-0.1,-3.9 2.4,-6.4 5.8,-6.4m7.5,0.3l1.4,0l0,12.6l-1.4,0l0,-12.6Zm0,-4.7l1.4,0l0,1.5l-1.4,0l0,-1.5Zm11.1,16.5c2.6,0 4.1,-2.2 4.1,-5.7c0,-3.3 -1.6,-5.3 -4.1,-5.3c-1.6,0 -2.9,0.9 -3.9,2.1l0,6.7c1,1.4 2.3,2.2 3.9,2.2m-4,5.8l-1.4,0l0,-17.6l1.2,0l0.1,1.8c1.1,-1.2 2.4,-2.1 4.2,-2.1c3.2,0 5.2,2.4 5.2,6.5c0,4.2 -1.9,6.8 -5.2,6.8c-1.7,0 -3.1,-0.8 -4.2,-2.1l0,6.7l0.1,0Zm13,-22.5l1.4,0l0,17.5l-1.4,0l0,-17.5Zm6.4,10l8.1,0c0,-2.4 -1,-4.3 -3.6,-4.3c-2.3,0 -4.1,1.6 -4.5,4.3m4.5,-5.4c3.5,0 5,2.4 5,5.5l0,0.9l-9.5,0c0,3.5 1.5,5.6 4.6,5.6c1.4,0 2.9,-0.5 3.8,-1.2l0.7,1c-1.2,0.8 -2.9,1.4 -4.5,1.4c-3.9,0 -5.9,-2.6 -5.9,-6.8c-0.1,-3.9 2.4,-6.4 5.8,-6.4m8.2,11c0.9,0.6 2.4,1.1 4,1.1c2.1,0 3.2,-0.9 3.2,-2.3c0,-3.7 -7.6,-1.4 -7.6,-6.3c0,-2.1 1.8,-3.5 4.4,-3.5c1.5,0 3,0.4 4.1,0.9l-0.5,1.1c-0.9,-0.5 -2.3,-0.9 -3.5,-0.9c-1.8,0 -3,1 -3,2.3c0,3.7 7.6,1.3 7.6,6.3c0,2.2 -1.6,3.5 -4.6,3.5c-1.9,0 -3.5,-0.5 -4.6,-1.2l0.5,-1Zm18,-9.6l-2.4,0l0,-1.1l2.4,0l0,-0.1c0,-3.7 1.9,-4.9 4.7,-4.9c0.5,0 1.3,0.1 1.6,0.2l-0.3,1.1c-0.3,-0.1 -0.9,-0.2 -1.3,-0.2c-2.1,0 -3.4,1 -3.4,3.7l0,0.2l3.6,0l0,1.1l-3.6,0l0,11.5l-1.4,0l0,-11.5l0.1,0Zm12.5,10.7c2.7,0 4.5,-2.2 4.5,-5.7c0,-3.2 -1.9,-5.3 -4.5,-5.3c-2.7,0 -4.6,2.1 -4.6,5.3c0,3.5 1.8,5.7 4.6,5.7m0,-12.1c3.4,0 5.9,2.6 5.9,6.5c0,4.2 -2.4,6.8 -5.9,6.8c-3.6,0 -6,-2.6 -6,-6.8c0,-4 2.6,-6.5 6,-6.5m9.4,0.3l1.2,0l0.1,2.2c1,-1.7 2.4,-2.5 4,-2.5c0.6,0 1.1,0.1 1.5,0.2l-0.3,1.3c-0.4,-0.1 -0.9,-0.2 -1.4,-0.2c-1.5,0 -2.8,0.9 -3.8,2.7l0,9l-1.3,0l0,-12.7Zm-129.8,29.2c3.2,0 4.5,-2.1 4.5,-4c0,-2 -1.2,-3.9 -4.4,-3.9l-5.8,0l0,7.9l5.7,0Zm-7.1,-9.2l7.2,0c4.3,0 5.9,2.6 5.9,5.1c0,2.1 -1.2,4.4 -4,5l4,7.6l-1.6,0l-3.7,-7.4l-6.2,0l0,7.4l-1.4,0l0,-17.7l-0.2,0Zm18.2,10.1l8.3,0c0.1,-2.4 -1,-4.4 -3.7,-4.4c-2.4,-0.1 -4.2,1.6 -4.6,4.4m4.6,-5.6c3.6,0 5.1,2.4 5.1,5.7c0,0.3 0,0.7 -0.1,0.9l-9.7,0l0,0.1c0,3.6 1.5,5.7 4.7,5.7c1.5,0 2.9,-0.6 3.9,-1.2l0.7,1c-1.2,0.8 -2.9,1.4 -4.6,1.4c-4,0 -6.1,-2.6 -6.1,-7c0.1,-4 2.6,-6.6 6.1,-6.6m27.5,12.4c2.7,0 4.2,-2.3 4.2,-5.8c0,-3.3 -1.6,-5.4 -4.2,-5.4c-1.6,0 -2.9,0.9 -4,2.2l0,6.9c1,1.3 2.4,2.1 4,2.1m-4.1,6l-1.4,0l0,-18l1.2,0l0.2,1.9c1.1,-1.2 2.5,-2.2 4.3,-2.2c3.2,0 5.3,2.5 5.3,6.6c0,4.3 -2,7 -5.3,7c-1.8,0 -3.2,-0.9 -4.3,-2.1l0,6.8Zm-13.2,-7.1c0.9,0.6 2.4,1.1 4.1,1.1c2.2,0 3.3,-0.9 3.3,-2.4c0,-3.8 -7.8,-1.4 -7.8,-6.4c0,-2.2 1.8,-3.6 4.5,-3.6c1.5,0 3,0.4 4.2,1l-0.6,1.1c-1,-0.5 -2.4,-0.9 -3.6,-0.9c-1.9,0 -3.1,1 -3.1,2.4c0,3.8 7.8,1.3 7.8,6.4c0,2.2 -1.7,3.6 -4.7,3.6c-1.9,0 -3.6,-0.6 -4.7,-1.2l0.6,-1.1Zm32.6,1.2c2.8,0 4.6,-2.3 4.6,-5.8c0,-3.3 -1.9,-5.5 -4.6,-5.5c-2.7,0 -4.7,2.2 -4.7,5.5c0,3.5 1.9,5.8 4.7,5.8m0,-12.5c3.5,0 6.1,2.6 6.1,6.6c0,4.3 -2.5,7 -6.1,7c-3.7,0 -6.1,-2.7 -6.1,-7c0,-4 2.6,-6.6 6.1,-6.6m10.4,0.3l1.3,0l0.1,1.9c1.2,-1.2 2.8,-2.2 4.7,-2.2c2.9,0 4,1.8 4,4.3l0,8.9l-1.4,0l0,-9c0,-1.9 -0.7,-3.1 -2.9,-3.1c-1.8,0 -3.3,0.9 -4.5,2.4l0,9.7l-1.4,0l0,-12.9l0.1,0Zm14.8,11c0.9,0.6 2.4,1.1 4.1,1.1c2.2,0 3.3,-0.9 3.3,-2.4c0,-3.8 -7.8,-1.4 -7.8,-6.4c0,-2.2 1.8,-3.6 4.5,-3.6c1.5,0 3,0.4 4.2,1l-0.6,1.1c-1,-0.5 -2.4,-0.9 -3.6,-0.9c-1.9,0 -3.1,1 -3.1,2.4c0,3.8 7.8,1.3 7.8,6.4c0,2.2 -1.7,3.6 -4.7,3.6c-1.9,0 -3.6,-0.6 -4.7,-1.2l0.6,-1.1Zm24.9,1.1c2.7,0 4.1,-2.3 4.1,-5.8c0,-3.3 -1.6,-5.4 -4.2,-5.4c-1.6,0 -2.9,0.9 -4,2.2l0,6.9c1.2,1.3 2.6,2.1 4.1,2.1m-5.4,-16.9l1.4,0l0,6.6c1.1,-1.1 2.5,-2.1 4.3,-2.1c3.2,0 5.3,2.5 5.3,6.6c0,4.3 -2,7 -5.3,7c-1.7,0 -3.2,-0.9 -4.3,-2.2l-0.2,1.9l-1.2,0l0,-17.8Zm15.5,0l1.4,0l0,17.8l-1.4,0l0,-17.8Z" style="fill:rgb(35,31,32);fill-rule:nonzero;"/>        <path d="M356.3,35.1l8.3,0c0.1,-2.4 -1,-4.4 -3.7,-4.4c-2.5,-0.1 -4.3,1.6 -4.6,4.4m4.5,-5.6c3.6,0 5.1,2.4 5.1,5.7c0,0.3 0,0.7 -0.1,0.9l-9.7,0l0,0.1c0,3.6 1.5,5.7 4.7,5.7c1.5,0 2.9,-0.6 3.9,-1.2l0.7,1c-1.2,0.8 -2.9,1.4 -4.6,1.4c-4,0 -6.1,-2.6 -6.1,-7c0.1,-4 2.7,-6.6 6.1,-6.6" style="fill:rgb(35,31,32);fill-rule:nonzero;"/>        <rect x="223.2" y="50.2" width="1.5" height="18.5" style="fill:rgb(35,31,32);fill-rule:nonzero;"/>        <path d="M230.8,55.2l1.3,0l0.1,2c1.2,-1.3 2.9,-2.3 4.9,-2.3c3.1,0 4.2,1.8 4.2,4.5l0,9.3l-1.5,0l0,-9.3c0,-2 -0.8,-3.3 -3,-3.3c-1.9,0 -3.4,0.9 -4.7,2.5l0,10.1l-1.5,0l0,-13.5l0.2,0Z" style="fill:rgb(35,31,32);fill-rule:nonzero;"/>        <path d="M245.5,55.2l1.5,0l4.2,11.8l0.1,0l4.1,-11.8l1.5,0l-4.9,13.5l-1.6,0l-4.9,-13.5Z" style="fill:rgb(35,31,32);fill-rule:nonzero;"/>        <path d="M262,60.7l8.7,0c0.1,-2.5 -1,-4.6 -3.9,-4.6c-2.5,-0.1 -4.4,1.7 -4.8,4.6m4.8,-5.8c3.7,0 5.3,2.5 5.3,5.9c0,0.3 0,0.7 -0.1,1l-10.1,0l0,0.1c0,3.8 1.6,6 4.9,6c1.5,0 3,-0.6 4.1,-1.3l0.7,1c-1.2,0.9 -3,1.5 -4.8,1.5c-4.1,0 -6.3,-2.7 -6.3,-7.2c0,-4.3 2.6,-7 6.3,-7m10.2,11.7c0.9,0.6 2.5,1.2 4.2,1.2c2.2,0 3.4,-1 3.4,-2.5c0,-4 -8.1,-1.5 -8.1,-6.7c0,-2.2 1.9,-3.8 4.6,-3.8c1.6,0 3.1,0.4 4.4,1l-0.5,1.2c-1,-0.5 -2.5,-0.9 -3.8,-0.9c-2,0 -3.2,1 -3.2,2.5c0,4 8.1,1.4 8.1,6.7c0,2.3 -1.7,3.8 -4.9,3.8c-2,0 -3.8,-0.6 -4.9,-1.3l0.7,-1.2Zm15,-10.2l-2.5,0l0,-1.2l2.5,0l0,-4.2l1.5,0l0,4.2l4,0l0,1.2l-4,0l0,8.9c0,1.6 0.6,2.5 2.1,2.5c0.7,0 1.4,-0.2 2,-0.6l0.6,1c-0.7,0.5 -1.7,0.8 -2.7,0.8c-2.4,0 -3.4,-1.3 -3.4,-3.8l0,-8.8l-0.1,0Zm10.3,-1.2l1.3,0l0.1,1.9c1.2,-1.2 2.8,-2.2 4.7,-2.2c2,0 3.2,0.9 3.7,2.3c1.3,-1.3 3,-2.3 5,-2.3c2.9,0 4,1.8 4,4.5l0,9.3l-1.5,0l0,-9.3c0,-2 -0.7,-3.3 -2.8,-3.3c-1.7,0 -3.2,0.9 -4.4,2.2c0.1,0.4 0.1,0.7 0.1,1.1l0,9.2l-1.5,0l0,-9.3c0,-2 -0.7,-3.3 -2.8,-3.3c-1.8,0 -3.3,0.9 -4.5,2.3l0,10.3l-1.5,0l0,-13.4l0.1,0Zm25.7,5.5l8.7,0c0.1,-2.5 -1,-4.6 -3.9,-4.6c-2.5,-0.1 -4.4,1.7 -4.8,4.6m4.7,-5.8c3.7,0 5.3,2.5 5.3,5.9c0,0.3 0,0.7 -0.1,1l-10.1,0l0,0.1c0,3.8 1.6,6 4.9,6c1.5,0 3,-0.6 4.1,-1.3l0.7,1c-1.2,0.9 -3,1.5 -4.8,1.5c-4.1,0 -6.3,-2.7 -6.3,-7.2c0.1,-4.3 2.7,-7 6.3,-7m10.8,0.3l1.3,0l0.1,2c1.2,-1.3 2.9,-2.3 4.9,-2.3c3.1,0 4.2,1.8 4.2,4.5l0,9.3l-1.5,0l0,-9.3c0,-2 -0.8,-3.3 -3,-3.3c-1.9,0 -3.4,0.9 -4.7,2.5l0,10.1l-1.5,0l0,-13.5l0.2,0Zm17.4,1.2l-2.5,0l0,-1.2l2.5,0l0,-4.2l1.5,0l0,4.2l4,0l0,1.2l-4,0l0,8.9c0,1.6 0.6,2.5 2.1,2.5c0.7,0 1.4,-0.2 2,-0.6l0.6,1c-0.7,0.5 -1.7,0.8 -2.7,0.8c-2.4,0 -3.4,-1.3 -3.4,-3.8l0,-8.8l-0.1,0Z" style="fill:rgb(35,31,32);fill-rule:nonzero;"/>        <path d="M326.7,29.9l1.4,0l0,12.9l-1.4,0l0,-12.9Zm0,-4.8l1.4,0l0,1.5l-1.4,0l0,-1.5Z" style="fill:rgb(35,31,32);fill-rule:nonzero;"/>    </g></svg>