<?xml version="1.0" encoding="UTF-8" standalone="no"?><!DOCTYPE svg PUBLIC "-//W3C//DTD SVG 1.1//EN" "http://www.w3.org/Graphics/SVG/1.1/DTD/svg11.dtd"><svg width="100%" height="100%" viewBox="0 0 1024 512" version="1.1" xmlns="http://www.w3.org/2000/svg" xmlns:xlink="http://www.w3.org/1999/xlink" xml:space="preserve" style="fill-rule:evenodd;clip-rule:evenodd;stroke-linejoin:round;stroke-miterlimit:2;"><title>smava</title><desc></desc>    <g id="smava" transform="matrix(6.94783,0,0,6.94783,1.27123,144.559)">        <path id="Path" d="M55.906,19.25c0,-3.642 -2.834,-5.108 -5.335,-6.069l-2,-0.754c-1.672,-0.628 -2.75,-1.005 -2.75,-2.591c0,-1.047 0.959,-1.842 2.874,-1.842c1.876,0 3.711,0.544 4.836,1.423l2.042,-3.098c-1.911,-1.428 -4.459,-1.93 -7.002,-1.93c-3.918,0 -6.96,2.261 -6.96,5.694c0,3.81 2.877,5.149 4.794,5.736l1.999,0.71c1.459,0.503 3.251,1.255 3.251,3.057c0,1.801 -1.833,2.052 -3.291,2.052c-1.71,0 -4.085,-0.963 -5.793,-2.051l-1.543,3.642c2.292,1.297 5.001,2.008 7.336,2.008c4.541,0 7.542,-1.967 7.542,-5.985l0,-0.002Z" style="fill:rgb(57,169,73);fill-rule:nonzero;"/>        <path id="Path1" d="M81.817,4.614c-2.546,0 -5.342,1.048 -6.719,2.895c-1.045,-1.885 -2.922,-2.895 -5.509,-2.895c-1.002,0 -4.508,0.252 -6.469,2.641l0,-2.226l-4.34,0l0,19.623l4.34,0l0,-11.395c0,-2.767 1.712,-4.612 4.508,-4.612c2.584,0 4.172,1.383 4.172,3.809l0,12.2l3.965,0l0,-11.397c0,-2.767 1.712,-4.612 4.507,-4.612c2.585,0 4.173,1.383 4.173,3.809l0,12.2l4.34,0l0,-13.073c0,-4.619 -2.712,-6.967 -6.968,-6.967Z" style="fill:rgb(57,169,73);fill-rule:nonzero;"/>        <path id="Shape" d="M101.383,4.614c-2.3,0 -5.102,0.337 -7.861,1.765l1.631,3.526c2.174,-1.303 3.554,-1.638 5.227,-1.638c3.052,0 4.683,0.923 4.683,3.443l0,0.38c-1.245,-0.191 -2.504,-0.29 -3.764,-0.294c-5.644,0 -9.784,3.023 -9.784,7.18c0,3.657 2.889,6.258 6.942,6.258c1.672,0 3.678,-0.503 5.56,-1.595c0.251,-0.127 0.586,-0.335 1.046,-0.629l0,1.636l4.348,0l0,-13.647c0,-4.62 -3.387,-6.385 -8.028,-6.385Zm3.68,15.121c-1.638,1.085 -3.556,1.668 -5.52,1.676c-2.216,0 -3.637,-1.176 -3.637,-2.984c0,-2.392 3.219,-3.485 6.146,-3.485c0.585,0 2.259,0 3.011,0.168l0,4.625Z" style="fill:rgb(57,169,73);fill-rule:nonzero;"/>        <path id="Shape1" d="M138.885,4.614c-2.3,0 -5.101,0.337 -7.86,1.765l1.629,3.526c2.174,-1.303 3.556,-1.638 5.227,-1.638c3.054,0 4.685,0.923 4.685,3.443l0,0.38c-1.246,-0.191 -2.504,-0.289 -3.764,-0.294c-5.646,0 -9.786,3.023 -9.786,7.18c0,3.657 2.889,6.258 6.942,6.258c1.672,0 3.68,-0.503 5.56,-1.595c0.253,-0.127 0.586,-0.335 1.048,-0.629l0,1.636l4.347,0l0,-13.647c0,-4.62 -3.387,-6.385 -8.028,-6.385Zm3.681,15.121c-1.639,1.085 -3.558,1.668 -5.522,1.676c-2.216,0 -3.636,-1.176 -3.636,-2.984c0,-2.392 3.22,-3.485 6.148,-3.485c0.583,0 2.257,0 3.01,0.168l0,4.625Z" style="fill:rgb(57,169,73);fill-rule:nonzero;"/>        <path id="Path2" d="M124.631,5.01l4.454,0l-6.788,19.638l-4.484,0l-6.788,-19.638l4.454,0l4.576,13.242l4.576,-13.242Z" style="fill:rgb(57,169,73);fill-rule:nonzero;"/>        <path id="Path3" d="M14.787,14.338l14.68,-8.56l0,-5.691l-14.682,8.561l-14.68,-8.561l0,14.519l14.682,8.559l9.548,-5.568l0,3.137l-9.548,5.567l-14.682,-8.559l0,5.691l14.68,8.559l14.682,-8.559l0,-14.519l-14.68,8.561l-9.515,-5.537l0,-3.147l9.515,5.547Z" style="fill:rgb(57,169,73);fill-rule:nonzero;"/>    </g></svg>