<?xml version="1.0" encoding="UTF-8" standalone="no"?><!DOCTYPE svg PUBLIC "-//W3C//DTD SVG 1.1//EN" "http://www.w3.org/Graphics/SVG/1.1/DTD/svg11.dtd"><svg width="100%" height="100%" viewBox="0 0 1024 512" version="1.1" xmlns="http://www.w3.org/2000/svg" xmlns:xlink="http://www.w3.org/1999/xlink" xml:space="preserve" style="fill-rule:evenodd;clip-rule:evenodd;stroke-linejoin:round;stroke-miterlimit:2;"><title>October</title><desc>Lend directly to SMEs with the 1 European platform.We combine the best of technology and financial analysis to select the right SMEs.October's management team personally lends to each project on the platform to align their interests with yours.Only 1 out of 100 projects we receive is selected and proposed to lenders.</desc>    <g id="october-512x256.svg" transform="matrix(2.21739,0,0,2.21739,-55.6522,-27.8261)">        <g id="_26723995-4c19-4527-882a-a7b7754cd4cb">            <path d="M33.08,166.63l14.01,3.18l42.91,-24.48l7.08,-23.16l-5.31,-22.26l-58.69,66.72Z" style="fill:url(#_Linear1);fill-rule:nonzero;"/>            <path d="M44.51,86.19l45.49,59.14l-42.91,24.48l-21.09,-37.46l0,-20.94l18.51,-25.22Z" style="fill:url(#_Linear2);fill-rule:nonzero;"/>        </g>        <path d="M168.74,114.29c3.878,2.009 7.084,5.111 9.22,8.92c4.42,8.495 4.42,18.635 0,27.13c-2.136,3.809 -5.342,6.911 -9.22,8.92c-4.1,2.11 -8.659,3.175 -13.27,3.1c-4.636,0.069 -9.219,-0.996 -13.35,-3.1c-3.878,-2.009 -7.084,-5.111 -9.22,-8.92c-4.42,-8.495 -4.42,-18.635 0,-27.13c2.136,-3.809 5.342,-6.911 9.22,-8.92c4.128,-2.113 8.713,-3.177 13.35,-3.1c4.611,-0.075 9.17,0.99 13.27,3.1Zm-20.64,13.34c-2,2.14 -3,5.16 -3,9.14c0,3.98 1,7 3,9.14c1.903,2.033 4.586,3.161 7.37,3.1c2.767,0.076 5.434,-1.056 7.3,-3.1c2,-2.06 2.95,-5.09 2.95,-9.14c0,-4.05 -1,-7.08 -2.95,-9.14c-1.902,-2.022 -4.559,-3.171 -7.335,-3.171c-2.776,0 -5.433,1.149 -7.335,3.171Z" style="fill:rgb(0,5,69);fill-rule:nonzero;"/>        <path d="M227.95,116.5c4.35,3.54 7.08,8.41 8.26,14.6l-16.15,0c-0.361,-1.963 -1.407,-3.735 -2.95,-5c-1.608,-1.215 -3.586,-1.84 -5.6,-1.77c-2.587,-0.047 -5.05,1.129 -6.64,3.17c-1.7,2.14 -2.58,5.23 -2.58,9.22c0,3.99 0.88,7.15 2.58,9.22c1.566,2.07 4.045,3.254 6.64,3.17c2.016,0.082 3.998,-0.544 5.6,-1.77c1.543,-1.265 2.589,-3.037 2.95,-5l16.07,0c-0.859,5.717 -3.802,10.919 -8.26,14.6c-4.353,3.54 -9.737,5.31 -16.15,5.31c-4.526,0.09 -9.002,-0.977 -13,-3.1c-3.776,-2.044 -6.876,-5.144 -8.92,-8.92c-4.297,-8.548 -4.323,-18.64 -0.07,-27.21c2.046,-3.756 5.148,-6.833 8.92,-8.85c4.021,-2.111 8.509,-3.177 13.05,-3.1c6.51,0.12 11.9,1.93 16.25,5.43Z" style="fill:rgb(0,5,69);fill-rule:nonzero;"/>        <path d="M273.58,148.57l0,13.12l-6.86,0c-5.82,0 -10.4,-1.47 -13.64,-4.35c-3.24,-2.88 -4.87,-7.67 -4.87,-14.38l0,-18.28l-6.71,0l0,-12.83l6.71,0l0,-12.24l15.26,0l0,12.24l10,0l0,12.83l-10,0l0,18.58c0,2 0.37,3.32 1.18,4.13c0.81,0.81 2.14,1.18 4.06,1.18l4.87,0Z" style="fill:rgb(0,5,69);fill-rule:nonzero;"/>        <path d="M318.26,114.29c3.878,2.009 7.084,5.111 9.22,8.92c4.42,8.495 4.42,18.635 0,27.13c-2.136,3.809 -5.342,6.911 -9.22,8.92c-4.1,2.11 -8.659,3.175 -13.27,3.1c-4.636,0.069 -9.219,-0.996 -13.35,-3.1c-3.878,-2.009 -7.084,-5.111 -9.22,-8.92c-4.42,-8.495 -4.42,-18.635 0,-27.13c2.136,-3.809 5.342,-6.911 9.22,-8.92c4.128,-2.113 8.713,-3.177 13.35,-3.1c4.611,-0.075 9.17,0.99 13.27,3.1Zm-20.64,13.35c-2,2.14 -3,5.16 -3,9.14c0,3.98 1,7 3,9.14c1.909,2.028 4.595,3.149 7.38,3.08c2.767,0.076 5.434,-1.056 7.3,-3.1c2,-2.06 2.95,-5.09 2.95,-9.14c0,-4.05 -1,-7.08 -2.95,-9.14c-1.902,-2.022 -4.559,-3.171 -7.335,-3.171c-2.776,0 -5.433,1.149 -7.335,3.171l-0.01,0.02Z" style="fill:rgb(0,5,69);fill-rule:nonzero;"/>        <path d="M379,114.29c3.344,2.163 6.004,5.233 7.67,8.85c3.736,8.681 3.736,18.529 0,27.21c-1.644,3.65 -4.308,6.748 -7.67,8.92c-3.308,2.084 -7.151,3.161 -11.06,3.1c-3.448,0.089 -6.852,-0.806 -9.81,-2.58c-2.707,-1.655 -4.812,-4.138 -6,-7.08l0,9l-15.21,0l0,-66.15l15.26,0l0,25.29c1.23,-2.917 3.324,-5.388 6,-7.08c2.962,-1.765 6.363,-2.659 9.81,-2.58c3.892,-0.051 7.717,1.026 11.01,3.1Zm-23.89,13.57c-2.06,2.21 -3.1,5.16 -3.1,8.92c-0.16,3.24 0.954,6.418 3.1,8.85c2.091,2.12 4.947,3.315 7.925,3.315c2.943,0 5.77,-1.168 7.855,-3.245c2,-2.14 3,-5.09 3,-8.92c0,-3.83 -1,-6.78 -3,-8.92c-2.039,-2.165 -4.918,-3.347 -7.89,-3.24c-2.959,-0.074 -5.817,1.099 -7.87,3.23l-0.02,0.01Z" style="fill:rgb(0,5,69);fill-rule:nonzero;"/>        <path d="M476.19,114c2.969,-1.757 6.36,-2.674 9.81,-2.65l0,16.29l-4.35,0c-4.06,0 -7.23,0.88 -9.44,2.58c-2.21,1.7 -3.32,4.64 -3.32,8.77l0,22.71l-15.26,0l0,-49.85l15.26,0l0,9.36c1.792,-2.976 4.302,-5.455 7.3,-7.21Z" style="fill:rgb(0,5,69);fill-rule:nonzero;"/>        <path d="M420.45,162.43c-7.3,0 -13.273,-2.36 -17.92,-7.08c-4.64,-4.72 -7,-10.91 -7,-18.73c0,-7.82 2.29,-13.93 6.93,-18.58c4.64,-4.65 10.62,-6.93 18,-6.93c7.38,0 13.49,2.29 18.28,6.78c4.79,4.49 7.3,10.84 7.3,18.95c-0.005,1.63 -0.128,3.258 -0.37,4.87l-34.43,0c0.233,2.134 1.292,4.095 2.95,5.46c1.502,1.348 3.442,2.108 5.46,2.14c1.473,0.055 2.945,-0.144 4.35,-0.59c0.77,-0.28 1.492,-0.678 2.14,-1.18c0.64,-0.592 1.231,-1.234 1.77,-1.92l16.59,0c-1.352,4.946 -4.409,9.258 -8.63,12.17c-4.512,3.154 -9.917,4.78 -15.42,4.64Zm6.55,-35.9c-1.779,-1.473 -4.031,-2.258 -6.34,-2.21c-2.266,-0.059 -4.474,0.729 -6.19,2.21c-1.676,1.474 -2.796,3.48 -3.17,5.68l18.7,0c-0.171,-2.226 -1.258,-4.284 -3,-5.68Z" style="fill:rgb(0,5,69);fill-rule:nonzero;"/>    </g>    <defs>        <linearGradient id="_Linear1" x1="0" y1="0" x2="1" y2="0" gradientUnits="userSpaceOnUse" gradientTransform="matrix(43.92,-43.46,43.46,43.92,43.78,169.23)"><stop offset="0" style="stop-color:rgb(82,51,255);stop-opacity:1"/><stop offset="0.21" style="stop-color:rgb(82,51,255);stop-opacity:1"/><stop offset="1" style="stop-color:rgb(6,191,211);stop-opacity:1"/></linearGradient>        <linearGradient id="_Linear2" x1="0" y1="0" x2="1" y2="0" gradientUnits="userSpaceOnUse" gradientTransform="matrix(31.21,52.14,-52.14,31.21,37.03,104.92)"><stop offset="0" style="stop-color:rgb(71,204,111);stop-opacity:1"/><stop offset="0.29" style="stop-color:rgb(76,210,129);stop-opacity:0.94"/><stop offset="0.87" style="stop-color:rgb(88,226,177);stop-opacity:0.83"/><stop offset="1" style="stop-color:rgb(91,230,189);stop-opacity:0.8"/></linearGradient>    </defs></svg>