<?xml version="1.0" encoding="UTF-8" standalone="no"?><!DOCTYPE svg PUBLIC "-//W3C//DTD SVG 1.1//EN" "http://www.w3.org/Graphics/SVG/1.1/DTD/svg11.dtd"><svg width="100%" height="100%" viewBox="0 0 1024 512" version="1.1" xmlns="http://www.w3.org/2000/svg" xmlns:xlink="http://www.w3.org/1999/xlink" xml:space="preserve" style="fill-rule:evenodd;clip-rule:evenodd;stroke-linejoin:round;stroke-miterlimit:2;"><title>BacktoWork</title><desc>BacktoWork is the main equity crowdfunding platform in Italy that favors the investment in startups, SMEs and real estate projects by private and professional investors.</desc>    <g id="Logo" transform="matrix(1.38776,0,0,1.38776,2,136.508)">        <path d="M39.7,92.8l-39.6,0l0,21.9l38.9,0c6,0.2 11.1,-4.6 11.3,-10.6c0.2,-6 -4.6,-11.1 -10.6,-11.3Z" style="fill:rgb(255,60,77);fill-rule:nonzero;"/>        <path d="M48.6,61.8c-2,-3.4 -5.6,-5.5 -9.6,-5.4l-38.9,0l0,21.9l38.9,0c6,0.1 11,-4.8 11,-10.8c0.1,-2.1 -0.4,-4 -1.4,-5.7Z" style="fill:rgb(255,60,77);fill-rule:nonzero;"/>        <path d="M147.6,127.2c-9.4,4 -20.3,2.1 -27.7,-4.9l-0.7,-0.7l-0.7,0.7c-10.2,9.7 -26.4,9.3 -36.1,-1c-4.5,-4.7 -7,-11 -7,-17.6l0,-62l14.6,0l0,62c0.2,6 5.2,10.8 11.3,10.6c5.8,-0.2 10.4,-4.8 10.6,-10.6l0,-62l14.6,0l0,62c-0.2,6 4.6,11.1 10.6,11.3c6,0.2 11.1,-4.6 11.3,-10.6l0,-62.4c-24.3,-40.8 -77.2,-54.2 -118.1,-29.8c-12.1,7.2 -22.3,17.4 -29.6,29.5l38.3,0c14.1,0 25.5,11.4 25.6,25.5c0,6.5 -2.5,12.8 -7,17.6l-0.7,0.7l0.7,0.7c9.7,10.2 9.3,26.4 -1,36.1c-4.8,4.5 -11.1,7 -17.6,7l-39,0c23.9,41.1 76.6,55.1 117.7,31.3c14.3,-8.3 25.9,-20.5 33.4,-35.2c-1.1,0.7 -2.3,1.3 -3.5,1.8Z" style="fill:rgb(255,60,77);fill-rule:nonzero;"/>        <path d="M188.6,64.2l25.4,0c4.8,0 8.5,1.1 11,3.3c2.5,2.2 3.9,5.4 3.8,8.7c0,1.1 -0.2,2.1 -0.5,3.1c-0.3,0.9 -0.8,1.7 -1.4,2.5c-1.1,1.4 -2.6,2.5 -4.3,3.2c1,0.3 1.9,0.8 2.8,1.4c0.9,0.6 1.7,1.4 2.4,2.2c0.7,0.9 1.2,2 1.6,3.1c0.4,1.3 0.6,2.6 0.6,3.9c0.1,3.5 -1.3,6.8 -3.9,9.1c-2.6,2.3 -6.5,3.4 -11.6,3.4l-25.8,0l0,-43.9l-0.1,0Zm10.3,8.4l0,8.7l13.4,0c1.5,0.1 2.9,-0.2 4.2,-1c1.8,-1.6 2,-4.4 0.3,-6.3c-0.1,-0.1 -0.2,-0.2 -0.3,-0.3c-1.3,-0.8 -2.8,-1.1 -4.2,-1l-13.4,-0.1Zm0,17.1l0,9.8l13.6,0c4.4,0 6.6,-1.6 6.6,-4.9c0,-3.3 -2.2,-4.9 -6.6,-4.9l-13.6,0Z" style="fill:rgb(30,45,100);fill-rule:nonzero;"/>        <path d="M270.9,100.3l-20.9,0l-3.3,7.7l-10.6,0l19.2,-43.9l10.8,0l19.2,44l-11.1,0l-3.3,-7.8Zm-3.8,-8.6l-6.7,-15.5l-6.7,15.5l13.4,0Z" style="fill:rgb(30,45,100);fill-rule:nonzero;"/>        <path d="M313,108.8c-3.1,0 -6.2,-0.5 -9.1,-1.7c-2.7,-1.1 -5.1,-2.7 -7.1,-4.7c-2,-2.1 -3.6,-4.5 -4.6,-7.2c-2.2,-5.8 -2.2,-12.3 0,-18.1c1.1,-2.7 2.6,-5.1 4.6,-7.2c2,-2 4.4,-3.7 7.1,-4.7c2.9,-1.2 6,-1.7 9.1,-1.7c3.1,-0.1 6.2,0.5 9.1,1.6c2.3,0.9 4.4,2.3 6.2,3.9c1.5,1.4 2.8,3.1 3.8,4.9c0.7,1.4 1.3,2.9 1.7,4.4l-10.8,0c-0.3,-0.5 -0.7,-1.1 -1.1,-1.6c-0.6,-0.7 -1.3,-1.3 -2,-1.8c-0.9,-0.6 -1.9,-1.1 -2.9,-1.4c-1.3,-0.4 -2.6,-0.6 -4,-0.6c-1.7,0 -3.4,0.3 -4.9,1c-1.4,0.7 -2.7,1.6 -3.7,2.8c-1.1,1.3 -1.9,2.7 -2.4,4.3c-1.1,3.3 -1.1,6.9 0,10.3c0.5,1.5 1.3,3 2.3,4.2c1,1.2 2.3,2.2 3.7,2.8c1.5,0.7 3.2,1 4.9,1c1.4,0 2.8,-0.2 4.2,-0.6c1.1,-0.3 2.1,-0.8 3,-1.4c0.7,-0.5 1.4,-1.1 1.9,-1.7c0.4,-0.5 0.8,-1 1.1,-1.6l10.6,0c-0.8,3.5 -2.6,6.6 -5.2,9.1c-1.8,1.7 -3.9,3.1 -6.3,4.1c-2.8,1.1 -6,1.7 -9.2,1.6Z" style="fill:rgb(30,45,100);fill-rule:nonzero;"/>        <path d="M355.5,88.3l0,19.7l-10.5,0l0,-43.8l10.5,0l0,19l20.1,-19l13.7,0l-22.3,21.1l23.3,22.7l-14.3,0l-20.5,-19.7Z" style="fill:rgb(30,45,100);fill-rule:nonzero;"/>        <path d="M558.6,64.2l0,27c0.1,2.2 -0.6,4.3 -2,6c-1.4,1.6 -3.5,2.4 -5.6,2.3c-2.2,0.2 -4.3,-0.7 -5.8,-2.3c-1.4,-1.7 -2,-3.8 -2,-6l0,-27l-10.2,0l0,28.3c-0.1,1.7 -0.8,3.4 -1.9,4.7c-1.5,1.6 -3.5,2.4 -5.7,2.3c-2.2,0.2 -4.3,-0.7 -5.8,-2.3c-1.4,-1.7 -2,-3.8 -2,-6l0,-27l-10.3,0l0,27.6c0,2.3 0.4,4.6 1.1,6.7c0.7,2 1.9,3.8 3.4,5.3c1.6,1.6 3.5,2.8 5.6,3.6c2.5,0.9 5.2,1.4 7.9,1.3c2.6,0 5.2,-0.4 7.7,-1.3c1.8,-0.7 3.5,-1.7 5,-3c1.5,1.3 3.2,2.3 5,3c2.5,0.9 5.2,1.4 7.9,1.3c2.6,0 5.2,-0.4 7.7,-1.3c2.1,-0.8 4,-2 5.6,-3.6c1.5,-1.5 2.7,-3.4 3.4,-5.4c0.8,-2.1 1.2,-4.4 1.1,-6.7l0,-27.5l-10.1,0Z" style="fill:rgb(30,45,100);fill-rule:nonzero;"/>        <path d="M602.6,108.8c-3.1,0 -6.3,-0.5 -9.2,-1.7c-2.7,-1 -5.3,-2.6 -7.4,-4.7c-2.1,-2 -3.8,-4.5 -4.9,-7.2c-1.2,-2.9 -1.8,-6 -1.8,-9.2c0,-3.2 0.6,-6.3 1.8,-9.3c1.1,-2.7 2.8,-5.1 4.9,-7.2c2.1,-2 4.6,-3.6 7.4,-4.6c5.9,-2.2 12.4,-2.2 18.3,0c2.8,1 5.3,2.6 7.4,4.6c2.1,2 3.7,4.5 4.9,7.2c1.2,2.9 1.8,6.1 1.8,9.3c0,3.1 -0.6,6.3 -1.8,9.2c-1.1,2.7 -2.8,5.1 -4.9,7.2c-2.1,2 -4.6,3.6 -7.4,4.7c-2.9,1.1 -6,1.7 -9.1,1.7Zm0,-9.5c1.8,0 3.6,-0.3 5.2,-1c1.5,-0.6 2.9,-1.6 4,-2.8c1.1,-1.2 1.9,-2.7 2.5,-4.2c1.2,-3.3 1.2,-7 0,-10.3c-0.5,-1.5 -1.4,-3 -2.5,-4.2c-1.1,-1.2 -2.5,-2.2 -4,-2.8c-1.7,-0.7 -3.4,-1 -5.2,-1c-1.8,0 -3.6,0.3 -5.2,1c-1.5,0.6 -2.9,1.6 -4,2.8c-1.1,1.2 -2,2.7 -2.5,4.2c-0.6,1.6 -0.9,3.4 -0.8,5.1c0,1.8 0.3,3.5 0.9,5.2c0.6,1.6 1.4,3 2.5,4.2c1.1,1.2 2.5,2.2 4,2.8c1.6,0.7 3.3,1 5.1,1Z" style="fill:rgb(30,45,100);fill-rule:nonzero;"/>        <path d="M636.4,64.2l25.7,0c4.9,0 8.7,1.2 11.5,3.5c2.8,2.3 4.2,5.8 4.2,10.3c0.1,2.7 -0.7,5.4 -2.2,7.7c-1.5,2.1 -3.7,3.7 -6.1,4.5l9.9,17.8l-11.1,0l-9.3,-16.7l-12.1,0l0,16.7l-10.5,0l0,-43.8Zm10.5,9l0,9.3l14.1,0c4,0 6,-1.5 6,-4.6c0.1,-1.4 -0.4,-2.8 -1.5,-3.7c-1.3,-0.8 -2.9,-1.2 -4.5,-1.1l-14.1,0.1Z" style="fill:rgb(30,45,100);fill-rule:nonzero;"/>        <path d="M700.3,88.3l0,19.7l-10.5,0l0,-43.8l10.5,0l0,19l20.1,-19l13.6,0l-22.3,21.1l23.3,22.7l-14.3,0l-20.4,-19.7Z" style="fill:rgb(30,45,100);fill-rule:nonzero;"/>        <path d="M398.5,64.2l0,4.2l19,0l0,39.6l4.5,0l0,-39.6l18.9,0l0,-4.2l-42.4,0Z" style="fill:rgb(30,45,100);fill-rule:nonzero;"/>        <path d="M490.5,77.2c-3.4,-8.4 -11.6,-13.9 -20.7,-13.8c-3.1,0 -6.1,0.6 -8.9,1.8c-2.7,1.1 -5.1,2.8 -7.1,4.8c-2,2.1 -3.6,4.5 -4.7,7.2c-2.3,5.7 -2.3,12.1 0,17.8c1.1,2.7 2.7,5.1 4.7,7.2c2,2.1 4.4,3.7 7.1,4.8c5.7,2.3 12.1,2.3 17.8,0c2.7,-1.1 5.1,-2.8 7.1,-4.8c2,-2.1 3.6,-4.5 4.7,-7.2c2.2,-5.7 2.2,-12.1 0,-17.8Zm-2.9,8.9c0,2.4 -0.4,4.9 -1.3,7.1c-2.5,6.9 -9.2,11.5 -16.6,11.4c-2.5,0 -5,-0.5 -7.3,-1.4c-2.1,-0.9 -4,-2.3 -5.6,-4c-1.6,-1.7 -2.8,-3.7 -3.6,-5.9c-1.7,-4.6 -1.7,-9.7 0,-14.3c0.8,-2.2 2,-4.2 3.6,-5.9c1.6,-1.7 3.5,-3.1 5.6,-4c4.7,-2 9.9,-2 14.6,0c2.1,0.9 4.1,2.3 5.6,4c1.6,1.7 2.8,3.8 3.6,6c1,2.2 1.4,4.6 1.4,7Z" style="fill:rgb(30,45,100);fill-rule:nonzero;"/>    </g></svg>