<?xml version="1.0" encoding="UTF-8" standalone="no"?><!DOCTYPE svg PUBLIC "-//W3C//DTD SVG 1.1//EN" "http://www.w3.org/Graphics/SVG/1.1/DTD/svg11.dtd"><svg width="100%" height="100%" viewBox="0 0 1024 512" version="1.1" xmlns="http://www.w3.org/2000/svg" xmlns:xlink="http://www.w3.org/1999/xlink" xml:space="preserve" style="fill-rule:evenodd;clip-rule:evenodd;stroke-linejoin:round;stroke-miterlimit:2;"><title>Funderbeam</title><desc>Funderbeam is a global funding and trading platform. We connect a diverse investor network with highly vetted growth companies across international markets and, through ‘The Marketplace’, allow private investments to be traded.We’re on a mission to shake up traditional models of funding &amp; trading of private companies.</desc>    <g id="Lager_1" transform="matrix(5.76274,0,0,5.76274,-79.7627,205.865)">        <g id="Fill-1" transform="matrix(1.71014,0,0,1.71014,-119.202,-153.506)">            <path d="M180.8,81.3l-40.9,13.9l40.9,-8l0,-5.9" style="fill:rgb(236,30,121);fill-rule:nonzero;"/>        </g>        <g id="Fill-2" transform="matrix(1.71014,0,0,1.71014,-119.202,-153.506)">            <path d="M78.1,106.8l1.4,0l0,-6.3l-1.5,0l0,-1.3l1.5,0l0,-0.4c0,-2.9 2.1,-3.2 3.2,-3.2l0.9,0l0,1.4c0,0 -0.2,-0.1 -0.6,-0.1c-0.5,0 -1.7,0.1 -1.7,1.8l0,0.4l2.1,0l0,1.3l-2.1,0l0,6.3l1.6,0l0,1.3l-4.7,0l-0.1,-1.2" style="fill:rgb(102,102,102);fill-rule:nonzero;"/>        </g>        <g id="Fill-3" transform="matrix(1.71014,0,0,1.71014,-119.202,-153.506)">            <path d="M85.9,100.4l-1.5,0l0,-1.3l3.2,0l0,5.4c0,1.3 0.2,2.2 1.7,2.2c1.7,0 2.9,-1.7 2.9,-3.5l0,-2.8l-1.5,0l0,-1.3l3.2,0l0,7.2c0,0.2 0.1,0.4 0.4,0.4l1,0l0,1.3l-1.8,0c-0.7,0 -1.1,-0.3 -1.1,-1l0,-0.5l0,-0.5c-0.2,0.4 -1.2,2.1 -3.4,2.1c-1.9,0 -2.9,-1.1 -2.9,-3.4l0,-4.5" style="fill:rgb(102,102,102);fill-rule:nonzero;"/>        </g>        <g id="Fill-4" transform="matrix(1.71014,0,0,1.71014,-119.202,-153.506)">            <path d="M96.4,106.8l1.4,0l0,-5.8c0,-0.3 -0.1,-0.4 -0.4,-0.4l-1.1,0l0,-1.3l2,0c0.7,0 1.1,0.3 1.1,1l0,0.9c0.2,-0.4 1.2,-2.1 3.4,-2.1c2,0 2.9,1.2 2.9,3.4l0,4.4l1.4,0l0,1.3l-3.1,0l0,-5.3c0,-1.3 -0.2,-2.2 -1.7,-2.2c-1.8,0 -3,1.6 -3,3.4l0,2.9l1.4,0l0,1.3l-4.5,0l0,-1.3" style="fill:rgb(102,102,102);fill-rule:nonzero;"/>        </g>        <g id="Fill-5" transform="matrix(1.71014,0,0,1.71014,-119.202,-153.506)">            <path d="M112.1,98.9c2,0 2.7,1.5 2.7,1.5l0,-3.5l-1.5,0l0,-1.3l3.2,0l0,10.7c0,0.2 0.1,0.4 0.4,0.4l0.9,0l0,1.3l-1.8,0c-0.7,0 -1.1,-0.4 -1.1,-1l0,-0.4c0,0 -0.7,1.8 -3,1.8c-2.3,0 -3.8,-1.9 -3.8,-4.7c-0.1,-3 1.6,-4.8 4,-4.8Zm0.2,7.9c1.3,0 2.6,-1 2.6,-3.2c0,-1.6 -0.9,-3.2 -2.4,-3.2c-1.4,0 -2.6,1.2 -2.6,3.2c-0.1,1.9 0.9,3.2 2.4,3.2Z" style="fill:rgb(102,102,102);fill-rule:nonzero;"/>        </g>        <g id="Fill-6" transform="matrix(1.71014,0,0,1.71014,-119.202,-153.506)">            <path d="M123.1,98.9c2.6,0 3.8,1.9 3.8,4.1l0,0.6l-6.4,0c0.1,2 1.5,3.1 3.1,3.1c1.5,0 2.7,-1 2.7,-1l0.7,1.3c0,0 -1.3,1.3 -3.4,1.3c-2.8,0 -4.7,-2 -4.7,-4.7c-0.1,-2.9 1.8,-4.7 4.2,-4.7Zm2.1,3.8c0,-1.6 -1,-2.3 -2.1,-2.3c-1.3,0 -2.3,0.9 -2.6,2.3l4.7,0Z" style="fill:rgb(102,102,102);fill-rule:nonzero;"/>        </g>        <g id="Fill-7" transform="matrix(1.71014,0,0,1.71014,-119.202,-153.506)">            <path d="M128.3,106.8l1.3,0l0,-5.8c0,-0.3 -0.1,-0.4 -0.4,-0.4l-1.1,0l0,-1.3l2,0c0.7,0 1.2,0.3 1.2,1.1l0,1.1c0.4,-1.3 1.4,-2.3 2.8,-2.3l0.4,0l0,1.7c0,0 -0.2,-0.1 -0.5,-0.1c-1.9,0 -2.7,1.9 -2.7,3.7l0,2.3l1.3,0l0,1.3l-4.4,0l0,-1.3" style="fill:rgb(102,102,102);fill-rule:nonzero;"/>        </g>        <g id="Fill-8" transform="matrix(1.71014,0,0,1.71014,-119.202,-153.506)">            <path d="M136.1,96.9l-1.5,0l0,-1.3l3.2,0l0,4.8c0,0 0.7,-1.6 2.9,-1.6c2.3,0 3.8,1.9 3.8,4.7c0,2.9 -1.7,4.7 -4,4.7c-2,0 -2.8,-1.6 -2.8,-1.6l0,1.4l-1.6,0l0,-11.1Zm4.1,9.9c1.4,0 2.6,-1.2 2.6,-3.2c0,-1.9 -1.1,-3.2 -2.4,-3.2c-1.3,0 -2.6,1 -2.6,3.2c-0.1,1.6 0.7,3.2 2.4,3.2Z" style="fill:rgb(102,102,102);fill-rule:nonzero;"/>        </g>        <g id="Fill-9" transform="matrix(1.71014,0,0,1.71014,-119.202,-153.506)">            <path d="M150.3,98.9c2.6,0 3.8,1.9 3.8,4.1l0,0.6l-6.4,0c0.1,2 1.5,3.1 3.1,3.1c1.5,0 2.7,-1 2.7,-1l0.7,1.3c0,0 -1.3,1.3 -3.4,1.3c-2.8,0 -4.7,-2 -4.7,-4.7c-0.1,-2.9 1.8,-4.7 4.2,-4.7Zm2.2,3.8c0,-1.6 -1,-2.3 -2.1,-2.3c-1.3,0 -2.3,0.9 -2.6,2.3l4.7,0Z" style="fill:rgb(102,102,102);fill-rule:nonzero;"/>        </g>        <g id="Fill-10" transform="matrix(1.71014,0,0,1.71014,-119.202,-153.506)">            <path d="M160.5,102.5l0.5,0l0,-0.3c0,-1.4 -0.9,-1.9 -1.9,-1.9c-1.4,0 -2.6,0.9 -2.6,0.9l-0.6,-1.2c0,0 1.3,-1.1 3.3,-1.1c2.2,0 3.4,1.2 3.4,3.4l0,4c0,0.2 0.1,0.4 0.4,0.4l0.9,0l0,1.3l-1.7,0c-0.7,0 -1.1,-0.4 -1.1,-1c0,-0.3 0.1,-0.5 0.1,-0.5c0,0 -0.7,1.9 -2.9,1.9c-1.5,0 -2.9,-0.9 -2.9,-2.7c0,-2.9 3.6,-3.2 5.1,-3.2Zm-1.8,4.5c1.5,0 2.4,-1.6 2.4,-2.9l0,-0.3l-0.4,0c-0.9,0 -3.5,0 -3.5,1.7c-0.1,0.8 0.5,1.5 1.5,1.5Z" style="fill:rgb(102,102,102);fill-rule:nonzero;"/>        </g>        <g id="Fill-11" transform="matrix(1.71014,0,0,1.71014,-119.202,-153.506)">            <path d="M165.3,106.8l1.4,0l0,-6c0,-0.2 -0.1,-0.3 -0.4,-0.3l-1.1,0l0,-1.3l2,0c0.7,0 1.1,0.3 1.1,1l0,0.9c0.4,-1.1 1.7,-2.1 3.1,-2.1c1.4,0 2.2,0.6 2.6,2.1c0.5,-1.1 1.7,-2.1 3.2,-2.1c1.9,0 2.9,1.2 2.9,3.4l0,4.4l1.4,0l0,1.3l-3.2,0l0,-5.3c0,-1.3 -0.2,-2.2 -1.6,-2.2c-1.7,0 -2.6,1.7 -2.6,3.5l0,2.8l1.4,0l0,1.3l-3.1,0l0,-5.3c0,-1.2 -0.2,-2.2 -1.5,-2.2c-1.7,0 -2.7,1.8 -2.7,3.5l0,2.8l1.4,0l0,1.3l-4.5,0l0,-1.3" style="fill:rgb(102,102,102);fill-rule:nonzero;"/>        </g>    </g></svg>