<?xml version="1.0" encoding="UTF-8" standalone="no"?><!DOCTYPE svg PUBLIC "-//W3C//DTD SVG 1.1//EN" "http://www.w3.org/Graphics/SVG/1.1/DTD/svg11.dtd"><svg width="100%" height="100%" viewBox="0 0 1024 512" version="1.1" xmlns="http://www.w3.org/2000/svg" xmlns:xlink="http://www.w3.org/1999/xlink" xml:space="preserve" style="fill-rule:evenodd;clip-rule:evenodd;stroke-linejoin:round;stroke-miterlimit:2;"><title>WiSEED</title><desc>WiSEED has been the French leader in crowdfunding since 2008. Specialist in unlisted investment, WiSEED offers individuals to build a diversified portfolio in the real economy, and offers businesses quick financing solutions to support their growth.</desc>    <g transform="matrix(0.373693,0,0,0.373693,2.00752,108.86)">        <path d="M198.4,745.87l3.22,36.04c-9.01,3.72 -20.31,5.58 -33.89,5.58c-13.59,0 -24.49,-1.43 -32.71,-4.29c-8.22,-2.86 -14.69,-7.36 -19.41,-13.51c-4.72,-6.15 -8.01,-13.37 -9.87,-21.66c-1.86,-8.29 -2.79,-18.52 -2.79,-30.67c0,-12.15 0.93,-22.41 2.79,-30.78c1.86,-8.36 5.15,-15.62 9.87,-21.77c9.15,-11.87 25.95,-17.8 50.41,-17.8c5.43,0 11.83,0.54 19.2,1.61c7.37,1.07 12.83,2.4 16.41,3.97l-6.44,32.82c-9.3,-2 -17.8,-3 -25.53,-3c-7.72,0 -13.08,0.72 -16.09,2.14c-3,1.43 -4.5,4.29 -4.5,8.58l0,56.2c5.574,1.143 11.25,1.719 16.94,1.72c12.15,-0.03 22.95,-1.75 32.39,-5.18Zm11.8,-28.53c0,-24.45 4.57,-42.29 13.73,-53.51c9.15,-11.23 25.67,-16.84 49.55,-16.84c23.88,-0 40.4,5.61 49.55,16.84c9.15,11.23 13.73,29.06 13.73,53.51c0,12.16 -0.97,22.38 -2.9,30.67c-1.93,8.29 -5.26,15.52 -9.97,21.66c-4.72,6.15 -11.23,10.66 -19.52,13.51c-8.3,2.86 -18.59,4.29 -30.89,4.29c-12.3,-0 -22.6,-1.43 -30.89,-4.29c-8.29,-2.86 -14.8,-7.36 -19.52,-13.51c-4.72,-6.15 -8.04,-13.37 -9.97,-21.66c-1.94,-8.29 -2.9,-18.51 -2.9,-30.67Zm46.11,-22.31l0,55.77l17.8,-0c5.86,-0 10.12,-0.68 12.76,-2.04c2.64,-1.35 3.97,-4.46 3.97,-9.33l0,-55.77l-18.02,-0c-5.72,-0 -9.9,0.68 -12.55,2.04c-2.63,1.36 -3.96,4.47 -3.96,9.33Zm174.17,89.23l-32.82,-47.62c-1.14,-1.57 -1.86,-5 -2.14,-10.3l-0.86,-0l-0,57.92l-42.9,-0l-0,-134.06l40.32,-0l32.82,47.62c1.14,1.58 1.86,5.01 2.15,10.3l0.86,-0l-0,-57.92l42.9,-0l-0,134.06l-40.33,-0Zm140.5,-0l-32.82,-47.62c-1.14,-1.57 -1.86,-5 -2.14,-10.3l-0.86,-0l0,57.92l-42.9,-0l0,-134.06l40.32,-0l32.82,47.62c1.14,1.58 1.86,5.01 2.15,10.3l0.86,-0l0,-57.92l42.9,-0l0,134.06l-40.33,-0Zm147.58,-50.62l-42.9,-0l0,16.3l52.55,-0l0,34.32l-95.45,-0l0,-134.06l94.38,-0l-5.36,34.32l-46.12,-0l0,18.02l42.9,-0l0,31.1Zm116.9,12.23l3.22,36.04c-9.01,3.72 -20.31,5.58 -33.89,5.58c-13.59,-0 -24.49,-1.43 -32.71,-4.29c-8.22,-2.86 -14.69,-7.36 -19.41,-13.51c-4.72,-6.15 -8.01,-13.37 -9.87,-21.66c-1.86,-8.29 -2.79,-18.52 -2.79,-30.67c0,-12.15 0.93,-22.41 2.79,-30.78c1.86,-8.36 5.15,-15.62 9.87,-21.77c9.15,-11.87 25.95,-17.8 50.41,-17.8c5.43,-0 11.83,0.54 19.2,1.61c7.36,1.07 12.83,2.4 16.41,3.97l-6.44,32.82c-9.3,-2 -17.8,-3 -25.53,-3c-7.72,-0 -13.08,0.72 -16.09,2.14c-3,1.43 -4.5,4.29 -4.5,8.58l0,56.2c5.574,1.143 11.25,1.719 16.94,1.72c12.15,-0.03 22.95,-1.75 32.39,-5.18Zm113.68,-61.35l-31.1,-0l0,99.74l-42.9,-0l0,-99.74l-31.1,-0l0,-34.32l105.1,-0l0,34.32Zm12.23,96.1c-3.15,-3.29 -4.72,-9.15 -4.72,-17.59c0,-8.43 1.57,-14.37 4.72,-17.8c3.14,-3.43 9.33,-5.14 18.56,-5.14c9.22,-0 15.41,1.72 18.55,5.14c3.14,3.43 4.72,9.37 4.72,17.8c0,8.44 -1.57,14.3 -4.72,17.59c-3.15,3.29 -9.33,4.93 -18.55,4.93c-9.23,-0 -15.42,-1.64 -18.56,-4.93Zm89.02,3.64l0,-134.06l42.9,-0l0,134.06l-42.9,-0Zm143.06,-0l-32.82,-47.62c-1.14,-1.57 -1.86,-5 -2.14,-10.3l-0.86,-0l0,57.92l-42.9,-0l0,-134.06l40.32,-0l32.82,47.62c1.14,1.58 1.86,5.01 2.15,10.3l0.86,-0l0,-57.92l42.9,-0l0,134.06l-40.33,-0Zm134.92,-134.06l45.26,-0l-33.25,134.06l-62.63,-0l-33.25,-134.06l45.26,-0l18.23,85.16l1.93,-0l18.45,-85.16Zm141.79,83.44l-42.9,-0l0,16.3l52.55,-0l0,34.32l-95.45,-0l0,-134.06l94.38,-0l-5.36,34.32l-46.12,-0l0,18.02l42.9,-0l0,31.1Zm22.52,48.27l6.01,-35.39c13.15,3.29 24.99,4.93 35.5,4.93c10.51,-0 18.99,-0.43 25.42,-1.29l0,-10.73l-19.31,-1.72c-17.45,-1.57 -29.42,-5.75 -35.92,-12.55c-6.51,-6.79 -9.76,-16.84 -9.76,-30.13c0,-18.3 3.97,-30.89 11.91,-37.75c7.93,-6.87 21.41,-10.3 40.43,-10.3c19.02,-0 36.18,1.79 51.48,5.36l-5.36,34.32c-13.3,-2.14 -23.96,-3.22 -31.96,-3.22c-8.01,-0 -14.8,0.36 -20.38,1.07l0,10.51l15.44,1.5c18.73,1.86 31.67,6.33 38.83,13.4c7.15,7.08 10.73,16.91 10.73,29.49c0,9.01 -1.22,16.62 -3.65,22.85c-2.44,6.22 -5.33,10.94 -8.69,14.16c-3.36,3.21 -8.12,5.68 -14.26,7.4c-6.15,1.72 -11.55,2.75 -16.2,3.11c-4.65,0.36 -10.83,0.54 -18.55,0.54c-18.61,0.01 -35.84,-1.85 -51.71,-5.56Zm224.58,-97.39l-31.1,-0l0,99.74l-42.9,-0l0,-99.74l-31.1,-0l0,-34.32l105.1,-0l0,34.32Zm12.22,96.1c-3.14,-3.29 -4.72,-9.15 -4.72,-17.59c0,-8.43 1.57,-14.37 4.72,-17.8c3.14,-3.43 9.34,-5.14 18.56,-5.14c9.22,-0 15.4,1.72 18.55,5.14c3.14,3.43 4.72,9.37 4.72,17.8c0,8.44 -1.57,14.3 -4.72,17.59c-3.15,3.29 -9.33,4.93 -18.55,4.93c-9.22,-0 -15.42,-1.64 -18.56,-4.93Zm178.03,-34.75l3.22,36.04c-9.01,3.72 -20.31,5.58 -33.89,5.58c-13.58,-0 -24.49,-1.43 -32.71,-4.29c-8.22,-2.86 -14.69,-7.36 -19.41,-13.51c-4.72,-6.15 -8.01,-13.37 -9.87,-21.66c-1.86,-8.29 -2.79,-18.52 -2.79,-30.67c0,-12.15 0.92,-22.41 2.79,-30.78c1.86,-8.36 5.15,-15.62 9.87,-21.77c9.15,-11.87 25.95,-17.8 50.4,-17.8c5.43,-0 11.83,0.54 19.2,1.61c7.36,1.07 12.83,2.4 16.41,3.97l-6.44,32.82c-9.29,-2 -17.8,-3 -25.53,-3c-7.72,-0 -13.08,0.72 -16.08,2.14c-3,1.43 -4.51,4.29 -4.51,8.58l0,56.2c5.574,1.143 11.25,1.719 16.94,1.72c12.17,-0.03 22.97,-1.75 32.4,-5.18Zm11.8,-28.53c-0,-24.45 4.58,-42.29 13.73,-53.51c9.15,-11.23 25.66,-16.84 49.55,-16.84c23.88,-0 40.39,5.61 49.55,16.84c9.15,11.23 13.73,29.06 13.73,53.51c-0,12.16 -0.97,22.38 -2.9,30.67c-1.93,8.29 -5.26,15.52 -9.97,21.66c-4.72,6.15 -11.23,10.66 -19.52,13.51c-8.29,2.86 -18.59,4.29 -30.89,4.29c-12.3,-0 -22.6,-1.43 -30.89,-4.29c-8.29,-2.86 -14.8,-7.36 -19.52,-13.51c-4.72,-6.15 -8.04,-13.37 -9.97,-21.66c-1.93,-8.29 -2.9,-18.51 -2.9,-30.67Zm46.12,-22.31l0,55.77l17.8,-0c5.87,-0 10.12,-0.68 12.76,-2.04c2.65,-1.35 3.97,-4.46 3.97,-9.33l0,-55.77l-18.02,-0c-5.72,-0 -9.91,0.68 -12.55,2.04c-2.64,1.36 -3.96,4.47 -3.96,9.33Zm181.25,89.23l-85.8,-0l0,-134.06l42.9,-0l0,99.74l42.9,-0l0,34.32Zm97.59,-0l-85.8,-0l0,-134.06l42.9,-0l0,99.74l42.9,-0l0,34.32Zm97.61,-50.62l-42.91,-0l0,16.3l52.55,-0l0,34.32l-95.45,-0l0,-134.06l94.38,-0l-5.36,34.32l-46.11,-0l0,18.02l42.9,-0l0,31.1Zm116.89,12.23l3.22,36.04c-9.01,3.72 -20.31,5.58 -33.89,5.58c-13.59,-0 -24.49,-1.43 -32.71,-4.29c-8.22,-2.86 -14.69,-7.36 -19.41,-13.51c-4.72,-6.15 -8.01,-13.37 -9.86,-21.66c-1.86,-8.29 -2.79,-18.52 -2.79,-30.67c0,-12.15 0.93,-22.41 2.79,-30.78c1.86,-8.36 5.14,-15.62 9.86,-21.77c9.15,-11.87 25.95,-17.8 50.41,-17.8c5.43,-0 11.83,0.54 19.19,1.61c7.37,1.07 12.84,2.4 16.41,3.97l-6.44,32.82c-9.3,-2 -17.8,-3 -25.52,-3c-7.72,-0 -13.08,0.72 -16.09,2.14c-3,1.43 -4.5,4.29 -4.5,8.58l0,56.2c5.574,1.143 11.25,1.719 16.94,1.72c12.15,-0.03 22.95,-1.75 32.39,-5.18Zm113.68,-61.35l-31.1,-0l0,99.74l-42.9,-0l0,-99.74l-31.1,-0l0,-34.32l105.1,-0l0,34.32Zm12.23,96.1c-3.15,-3.29 -4.72,-9.15 -4.72,-17.59c0,-8.43 1.57,-14.37 4.72,-17.8c3.14,-3.43 9.33,-5.14 18.55,-5.14c9.22,-0 15.41,1.72 18.55,5.14c3.14,3.43 4.72,9.37 4.72,17.8c0,8.44 -1.58,14.3 -4.72,17.59c-3.14,3.29 -9.33,4.93 -18.55,4.93c-9.22,-0 -15.41,-1.64 -18.55,-4.93Zm-2083.37,-768.33l171.2,-0l-80.27,511.95l-213.8,-0l-37.68,-188.4l-9.83,-0l-36.86,188.4l-213.8,-0l-80.27,-511.95l171.2,-0l38.5,285.87l4.92,-0l58.98,-285.87l125.33,-0l58.16,285.87l4.91,-0l39.31,-285.87Zm218.09,106.28c-11.44,-8.64 -17.16,-24.4 -17.16,-47.28c0,-22.88 5.72,-38.89 17.16,-48.04c11.44,-9.15 34.05,-13.72 67.87,-13.72c33.8,-0 56.43,4.57 67.87,13.72c11.44,9.15 17.16,25.16 17.16,48.04c0,22.88 -5.72,38.64 -17.16,47.28c-11.44,8.65 -34.06,12.96 -67.87,12.96c-33.82,-0 -56.43,-4.31 -67.87,-12.96Zm-8.77,405.68l0,-362.21l152.51,-19.06l0,381.27l-152.51,-0Zm211.01,-9.02l22.94,-135.16c50.23,12.58 95.43,18.84 135.57,18.84c40.14,-0 72.49,-1.64 97.07,-4.91l0,-40.96l-73.73,-6.55c-66.63,-6.01 -112.36,-21.98 -137.21,-47.92c-24.85,-25.93 -37.27,-64.3 -37.27,-115.09c0,-69.89 15.15,-117.96 45.46,-144.17c30.31,-26.21 81.78,-39.31 154.41,-39.31c72.62,-0 138.15,6.83 196.59,20.48l-20.48,131.06c-50.78,-8.19 -91.47,-12.29 -122.05,-12.29c-30.59,-0 -56.52,1.37 -77.82,4.1l0,40.14l58.98,5.73c71.53,7.1 120.95,24.16 148.26,51.2c27.3,27.03 40.96,64.58 40.96,112.63c0,34.41 -4.65,63.48 -13.92,87.24c-9.29,23.76 -20.35,41.77 -33.18,54.06c-12.84,12.29 -31,21.71 -54.47,28.26c-23.49,6.55 -44.1,10.51 -61.84,11.88c-17.75,1.36 -41.37,2.04 -70.85,2.04c-71,-0 -136.8,-7.11 -197.42,-21.3Zm812.58,-184.31l-163.83,-0l0,62.26l200.69,-0l0,131.06l-364.51,-0l0,-511.95l360.42,-0l-20.48,131.06l-176.11,-0l0,68.81l163.82,-0l0,118.76Zm425.95,-0l-163.83,-0l-0,62.26l200.69,-0l-0,131.06l-364.51,-0l-0,-511.95l360.42,-0l-20.48,131.06l-176.11,-0l-0,68.81l163.82,-0l-0,118.76Zm98.29,193.32l0,-511.95l229.36,-0c92.28,-0 155.64,19.66 190.04,58.98c34.41,39.32 51.61,104.99 51.61,197c0,92.03 -17.2,157.68 -51.61,197c-34.4,39.32 -97.76,58.97 -190.04,58.97l-229.36,-0Zm231.81,-380.89l-67.99,-0l0,249.83l67.99,-0c22.38,-0 38.62,-2.59 48.73,-7.78c10.1,-5.18 15.16,-17.06 15.16,-35.63l0,-163c0,-18.56 -5.06,-30.44 -15.16,-35.63c-10.1,-5.19 -26.35,-7.79 -48.73,-7.79Z" style="fill:rgb(231,62,17);fill-rule:nonzero;"/>    </g></svg>