<?xml version="1.0" encoding="UTF-8" standalone="no"?><!DOCTYPE svg PUBLIC "-//W3C//DTD SVG 1.1//EN" "http://www.w3.org/Graphics/SVG/1.1/DTD/svg11.dtd"><svg width="100%" height="100%" viewBox="0 0 1024 512" version="1.1" xmlns="http://www.w3.org/2000/svg" xmlns:xlink="http://www.w3.org/1999/xlink" xml:space="preserve" style="fill-rule:evenodd;clip-rule:evenodd;stroke-linejoin:round;stroke-miterlimit:2;"><title>Debitum Network</title><desc>Debitum Network is a P2B platform which allows anyone to invest in business loans from as little as €10 and earn interest from 9 to 11 %. All investments carry an additional guarantee for all investors. Loans are assessed by independent 3rd party risk assessors. There are 0% fees on the platform. All investments are accepted instantaneously. Debitum Network allows depositing of EUR, GBP and USD, as well as cryptocurrencies of ETH and DEB tokens.</desc>    <g id="debitum-512x256.svg" transform="matrix(2.21712,0,0,2.21712,-55.5179,-27.7236)">        <rect x="206.88" y="121.73" width="279.12" height="64.58" style="fill:rgb(91,65,154);fill-rule:nonzero;"/>        <path d="M246.34,135.17l0,32.88l-0.27,0l-22,-32.88l-2.57,0l0,37.58l2.58,0l0,-32.82l0.18,0l21.91,32.82l2.64,0l0,-37.58l-2.47,0Zm11.76,0l0,37.58l21.9,0l0,-2.52l-19.08,0l0,-15.54l18,0l0,-2.41l-18,0l0,-14.64l18.76,0l0,-2.46l-21.58,-0.01Zm26.88,0l0,2.53l12.16,0l0,35.05l3,0l0,-35.05l12.11,0l0,-2.53l-27.27,0Zm78.09,0l-9,34.6l-0.3,0l-11.3,-34l-2.13,0l-11.24,34l-0.29,0l-9.08,-34.59l-3,0l9.87,37.58l3.89,0l10.71,-31.42l0.12,0l10.58,31.43l3.84,0l9.79,-37.58l-2.46,-0.02Z" style="fill:white;fill-rule:nonzero;"/>        <clipPath id="_clip1">            <path d="M376.23,166.13c-2.447,-3.08 -3.67,-7.08 -3.67,-12c0,-5.16 1.26,-9.233 3.78,-12.22c2.515,-2.974 6.268,-4.625 10.16,-4.47c4.473,0 7.923,1.55 10.35,4.65c2.427,3.1 3.64,7.1 3.64,12c0,5.047 -1.263,9.083 -3.79,12.11c-2.512,3.014 -6.29,4.69 -10.21,4.53c-4.4,0 -7.823,-1.537 -10.27,-4.61m-2.22,-26.12c-3.007,3.42 -4.51,8.133 -4.51,14.14c0,6.007 1.53,10.74 4.59,14.2c3.053,3.387 7.203,5.08 12.45,5.08c5.427,0 9.623,-1.76 12.59,-5.28c2.967,-3.52 4.45,-8.187 4.45,-14c0,-6.193 -1.52,-10.957 -4.56,-14.29c-3.04,-3.333 -7.197,-5 -12.47,-5c-5.333,0 -9.513,1.713 -12.54,5.14"/>        </clipPath>        <g clip-path="url(#_clip1)">            <rect x="361.35" y="126.72" width="50.29" height="54.77" style="fill:white;fill-rule:nonzero;"/>        </g>        <clipPath id="_clip2">            <path d="M414.1,137.3c2.927,-0.093 5.85,-0.133 8.77,-0.12c3.447,0 6.173,0.727 8.18,2.18c1.987,1.421 3.119,3.76 3,6.2c-0.032,2.175 -0.907,4.256 -2.44,5.8c-1.437,1.635 -3.294,2.845 -5.37,3.5l-12.14,0l0,-17.56Zm-2.81,-2.41l0,37.86l2.81,0l0,-15.43l12,0l10.19,15.44l3.44,0l-11,-16.35c2.325,-0.984 4.345,-2.572 5.85,-4.6c1.514,-1.848 2.363,-4.152 2.41,-6.54c0,-3.48 -1.217,-6.117 -3.65,-7.91c-2.433,-1.793 -5.88,-2.693 -10.34,-2.7c-4.627,0 -8.547,0.077 -11.76,0.23"/>        </clipPath>        <g clip-path="url(#_clip2)">            <rect x="403.18" y="126.55" width="44.61" height="54.31" style="fill:white;fill-rule:nonzero;"/>        </g>        <path d="M468.09,135.17l-12.09,17.45l-7.34,0l0,-17.45l-3,0l0,37.58l3,0l0,-17.55l7.34,0l13.91,17.55l3.45,0l-15.26,-19l13.54,-18.53l-3.55,-0.05Z" style="fill:white;fill-rule:nonzero;"/>        <path d="M221.21,65.78c-5.14,0 -9.917,0.167 -14.33,0.5l0,47.38l14.33,0c8.353,0.047 14.75,-2.137 19.19,-6.55c4.44,-4.413 6.66,-10.247 6.66,-17.5c0,-15.887 -8.617,-23.83 -25.85,-23.83Zm12.17,34.85c-2.84,2.88 -6.703,4.297 -11.59,4.25l-5.69,0l0,-30.24c1.893,-0.093 3.79,-0.14 5.69,-0.14c5.04,0 8.94,1.283 11.7,3.85c2.76,2.567 4.14,6.323 4.14,11.27c0.14,4.094 -1.396,8.072 -4.25,11.01Z" style="fill:rgb(74,45,135);fill-rule:nonzero;"/>        <path d="M253.7,66.5l0,47.16l30.67,0l0,-8.06l-21.46,0l0,-12l20.09,0l0,-7.66l-20.09,0l0,-11.67l21,0l0,-7.77l-30.21,0Z" style="fill:rgb(74,45,135);fill-rule:nonzero;"/>        <path d="M317.91,89c2.063,-0.663 3.831,-2.025 5,-3.85c1.239,-1.996 1.865,-4.312 1.8,-6.66c0.123,-3.416 -1.322,-6.708 -3.92,-8.93c-2.613,-2.26 -6.537,-3.39 -11.77,-3.39c-4.707,0 -10.49,0.12 -17.35,0.36l0,47.09l16.55,0c5.233,0 9.47,-1.2 12.71,-3.6c3.24,-2.4 4.86,-5.973 4.86,-10.72c-0.02,-5.167 -2.647,-8.6 -7.88,-10.3Zm-17.65,-14.72l8.71,0c1.758,-0.089 3.485,0.502 4.82,1.65c1.223,1.155 1.881,2.79 1.8,4.47c0,3.12 -1.703,5.087 -5.11,5.9l-10.22,0l0,-12.02Zm13.93,29.72c-1.838,1.083 -3.948,1.621 -6.08,1.55l-7.84,0l0,-12.77l10.44,0c4,0.82 6,2.86 6,6.12c-0.02,2.4 -0.86,4.1 -2.52,5.1Z" style="fill:rgb(74,45,135);fill-rule:nonzero;"/>        <path d="M333.64,66.5l9.86,0l0,47.16l-9.86,0l0,-47.16Zm15.62,0l0,8l13.68,0l0,39.16l9.87,0l0,-39.17l13.68,0l0,-8l-37.23,0.01Z" style="fill:rgb(74,45,135);fill-rule:nonzero;"/>        <path d="M428.87,66.5l-9.66,0c0.1,8.207 0.15,18.407 0.15,30.6c0.121,2.32 -0.774,4.581 -2.45,6.19c-1.816,1.557 -4.161,2.359 -6.55,2.24c-2.362,0.109 -4.682,-0.661 -6.51,-2.16c-1.728,-1.605 -2.643,-3.907 -2.49,-6.26c0,-3.693 0.097,-13.893 0.29,-30.6l-9.79,0c-0.207,10.34 -0.327,20.673 -0.36,31c0,5.333 1.707,9.473 5.12,12.42c3.413,2.947 7.9,4.423 13.46,4.43c5.807,0 10.413,-1.537 13.82,-4.61c3.42,-3.118 5.289,-7.596 5.1,-12.22c0,-2.88 -0.027,-7.667 -0.08,-14.36c-0.027,-5.56 -0.043,-11.117 -0.05,-16.67Z" style="fill:rgb(74,45,135);fill-rule:nonzero;"/>        <path d="M474.26,66.5l-11.93,35l-11.87,-35l-12.63,0l0,47.16l8.79,0l0,-31.55l0.23,0l11.15,31.54l7.12,0l11.26,-31.65l0.7,0.16l0,31.54l8.92,0l0,-47.2l-11.74,0Z" style="fill:rgb(74,45,135);fill-rule:nonzero;"/>        <path d="M134.26,123.92c-1.883,-14.305 -5.324,-28.362 -10.26,-41.92c-2.4,-6.852 -5.542,-13.421 -9.37,-19.59c-1.95,-3.178 -4.337,-6.066 -7.09,-8.58c-1.469,-1.302 -3.124,-2.377 -4.91,-3.19c-1.529,-0.686 -3.184,-1.047 -4.86,-1.06c-0.431,0 -0.862,0.027 -1.29,0.08c-2.109,0.286 -4.104,1.129 -5.78,2.44c-1.587,1.226 -2.985,2.678 -4.15,4.31c-2.188,3.119 -3.943,6.52 -5.22,10.11c-0.73,1.94 -1.37,3.91 -1.94,5.89l5.74,0.89c0.32,-1.74 0.69,-3.46 1.14,-5.16c0.825,-3.266 2.111,-6.397 3.82,-9.3c1.74,-2.72 4.07,-5.05 6.92,-5.53c2.85,-0.48 5.94,0.94 8.53,3c2.639,2.229 4.951,4.818 6.87,7.69c3.887,5.89 7.104,12.196 9.59,18.8c4.886,13.389 8.296,27.271 10.17,41.4c1.966,14.108 2.302,28.395 1,42.58c-0.439,4.187 -1.107,8.346 -2,12.46l3.49,0.6c0.729,-4.237 1.23,-8.509 1.5,-12.8c0.482,-7.204 0.526,-14.431 0.13,-21.64c-0.32,-7.187 -0.997,-14.347 -2.03,-21.48Z" style="fill:rgb(99,52,147);fill-rule:nonzero;"/>        <path d="M122.4,104.23c0.097,-0.443 0.147,-0.896 0.147,-1.35c0,-3.451 -2.84,-6.29 -6.29,-6.29c-2.288,0 -4.402,1.248 -5.507,3.25c-12.19,-4.361 -24.786,-7.49 -37.6,-9.34c-5.221,-0.785 -10.491,-1.199 -15.77,-1.24c-2,0 -3.95,0.07 -5.93,0.22c-3.721,0.214 -7.394,0.951 -10.91,2.19c-1.839,0.678 -3.568,1.625 -5.13,2.81c-1.684,1.296 -2.987,3.024 -3.77,5c-0.205,0.506 -0.369,1.028 -0.49,1.56l3.66,0.62c0.053,-0.312 0.13,-0.62 0.23,-0.92c0.9,-2.76 3.64,-4.78 6.69,-6.09c3.203,-1.273 6.569,-2.091 10,-2.43c7.044,-0.647 14.138,-0.503 21.15,0.43c12.647,1.792 25.083,4.847 37.12,9.12c-0.077,0.379 -0.117,0.764 -0.12,1.15c0,0.008 0,0.017 0,0.025c0,3.45 2.839,6.29 6.29,6.29c2.191,0 4.229,-1.145 5.37,-3.015c9.922,4.112 19.456,9.101 28.49,14.91l1.88,-2.23c-5.549,-3.387 -11.278,-6.471 -17.16,-9.24c-4.04,-1.947 -8.157,-3.757 -12.35,-5.43Z" style="fill:rgb(153,66,153);fill-rule:nonzero;"/>        <path d="M167.57,79c-1.421,-1.711 -3.276,-3.01 -5.37,-3.76c-1.91,-0.684 -3.913,-1.075 -5.94,-1.16l-1.42,0c-3.317,0.019 -6.62,0.431 -9.84,1.23c-7.067,1.83 -13.909,4.439 -20.4,7.78c-6.466,3.207 -12.731,6.803 -18.76,10.77c-6.04,3.913 -11.883,8.11 -17.53,12.59c-11.406,8.808 -21.818,18.834 -31.05,29.9c-2.727,3.279 -5.277,6.7 -7.64,10.25l2.06,1.29c2.23,-3.524 4.646,-6.925 7.24,-10.19c9.118,-10.963 19.406,-20.899 30.68,-29.63c11.2,-8.803 23.377,-16.286 36.29,-22.3c6.401,-2.937 13.109,-5.154 20,-6.61c3.31,-0.706 6.704,-0.942 10.08,-0.7c3.22,0.31 6.25,1.39 7.76,3.54c1.51,2.15 1.65,5.2 1,8.29c-0.769,3.22 -1.992,6.314 -3.63,9.19c-3.438,5.982 -7.529,11.563 -12.2,16.64c-0.49,0.54 -1,1.07 -1.49,1.61l7.24,4.61c0.24,-0.32 0.5,-0.63 0.74,-0.95c4.501,-5.938 8.341,-12.349 11.45,-19.12c1.617,-3.497 2.751,-7.197 3.37,-11c0.303,-2.049 0.303,-4.131 0,-6.18c-0.323,-2.228 -1.235,-4.331 -2.64,-6.09Z" style="fill:rgb(189,96,165);fill-rule:nonzero;"/>        <path d="M178,142.25c-1.885,-3.283 -4.225,-6.283 -6.95,-8.91c-5.247,-5.071 -11.039,-9.545 -17.27,-13.34c-0.6,-0.38 -1.22,-0.74 -1.83,-1.11l-1.87,2.23c0.7,0.46 1.4,0.89 2.09,1.36c5.842,3.915 11.235,8.462 16.08,13.56c2.331,2.456 4.306,5.227 5.87,8.23c1.41,2.91 2.08,6.06 1,8.47c-1.08,2.41 -3.57,4.13 -6.53,5.21c-3.146,1.027 -6.422,1.603 -9.73,1.71c-6.88,0.206 -13.762,-0.35 -20.52,-1.66c-13.711,-2.701 -27.177,-6.528 -40.26,-11.44c-13.174,-4.719 -25.943,-10.502 -38.18,-17.29c-6.069,-3.384 -11.738,-7.439 -16.9,-12.09c-2.49,-2.272 -4.641,-4.889 -6.39,-7.77c-0.313,-0.562 -0.596,-1.139 -0.85,-1.73c2.537,-1.115 4.183,-3.637 4.183,-6.408c0,-3.84 -3.16,-7 -7,-7c-3.84,0 -7,3.16 -7,7c0,3.313 2.351,6.194 5.597,6.858c0.342,1.112 0.763,2.198 1.26,3.25c1.712,3.404 3.878,6.559 6.44,9.38c4.956,5.512 10.495,10.471 16.52,14.79c11.907,8.612 24.925,15.572 38.7,20.69c13.741,5.232 28.123,8.596 42.76,10c7.414,0.726 14.884,0.642 22.28,-0.25c3.842,-0.448 7.604,-1.424 11.18,-2.9c1.905,-0.805 3.681,-1.886 5.27,-3.21c1.724,-1.44 3.033,-3.315 3.79,-5.43c0.717,-2.105 0.855,-4.364 0.4,-6.54c-0.425,-1.983 -1.146,-3.892 -2.14,-5.66Z" style="fill:rgb(153,66,153);fill-rule:nonzero;"/>        <path d="M133,174c-3.028,0.024 -5.505,2.522 -5.505,5.55c0,1.868 0.943,3.615 2.505,4.64c-0.32,1.08 -0.64,2.17 -1,3.23c-1.062,3.218 -2.57,6.271 -4.48,9.07c-1.89,2.62 -4.35,4.7 -7,4.92c-2.65,0.22 -5.33,-1.19 -7.68,-3.28c-2.392,-2.286 -4.448,-4.899 -6.11,-7.76c-3.439,-5.982 -6.203,-12.328 -8.24,-18.92c-4.122,-13.352 -7.132,-27.022 -9,-40.87c-2.089,-13.839 -3.049,-27.825 -2.87,-41.82c0.073,-2.153 0.2,-4.303 0.38,-6.45c4.575,-0.785 7.951,-4.791 7.951,-9.432c0,-5.25 -4.32,-9.57 -9.57,-9.57c-5.25,0 -9.57,4.32 -9.57,9.57c0,3.3 1.708,6.376 4.509,8.122c-0.46,2.34 -0.86,4.673 -1.2,7c-1.953,14.563 -1.923,29.325 0.09,43.88c1.89,14.584 5.731,28.849 11.42,42.41c2.862,6.898 6.474,13.461 10.77,19.57c2.218,3.168 4.859,6.018 7.85,8.47c1.614,1.295 3.41,2.346 5.33,3.12c2.086,0.837 4.357,1.103 6.58,0.77c2.192,-0.365 4.247,-1.311 5.95,-2.74c1.551,-1.31 2.899,-2.844 4,-4.55c1.998,-3.216 3.533,-6.696 4.56,-10.34c0.35,-1.2 0.66,-2.4 0.95,-3.61c2.705,-0.394 4.733,-2.738 4.733,-5.472c0,-2.975 -2.4,-5.443 -5.373,-5.528l0.02,0.02Z" style="fill:rgb(99,52,147);fill-rule:nonzero;"/>        <path d="M151.08,107.88c-6.675,0.002 -12.167,5.495 -12.167,12.17c0,1.798 0.399,3.574 1.167,5.2c-7.001,6.765 -14.344,13.167 -22,19.18c-10.912,8.762 -22.517,16.624 -34.7,23.51c-6.057,3.391 -12.473,6.094 -19.13,8.06c-3.251,0.933 -6.618,1.398 -10,1.38c-3.23,-0.13 -6.41,-1 -8.26,-3.21c-1.85,-2.21 -2.17,-5.6 -1.69,-8.88c0.593,-3.391 1.657,-6.683 3.16,-9.78c0.58,-1.23 1.2,-2.42 1.85,-3.61c0.42,0.119 0.854,0.183 1.29,0.19c0.003,0 0.007,0 0.01,0c2.628,0 4.79,-2.162 4.79,-4.79c0,-2.628 -2.162,-4.79 -4.79,-4.79c-2.628,0 -4.79,2.162 -4.79,4.79c0,1.214 0.461,2.383 1.29,3.27c-0.73,1.23 -1.44,2.47 -2.09,3.75c-1.766,3.282 -3.058,6.796 -3.84,10.44c-0.389,1.925 -0.486,3.896 -0.29,5.85c0.212,2.099 0.986,4.103 2.24,5.8c1.296,1.699 3.022,3.021 5,3.83c1.877,0.756 3.855,1.232 5.87,1.41c3.795,0.319 7.617,0.124 11.36,-0.58c7.292,-1.337 14.417,-3.463 21.25,-6.34c13.565,-5.644 26.305,-13.098 37.87,-22.16c8.127,-6.314 15.674,-13.342 22.55,-21c1.307,0.463 2.684,0.7 4.071,0.7c6.688,0 12.19,-5.503 12.19,-12.19c0,-6.687 -5.502,-12.19 -12.19,-12.19c-0.003,0 -0.007,0 -0.011,0l-0.01,-0.01Z" style="fill:rgb(189,96,165);fill-rule:nonzero;"/>    </g></svg>