<?xml version="1.0" encoding="UTF-8" standalone="no"?><!DOCTYPE svg PUBLIC "-//W3C//DTD SVG 1.1//EN" "http://www.w3.org/Graphics/SVG/1.1/DTD/svg11.dtd"><svg width="100%" height="100%" viewBox="0 0 1024 512" version="1.1" xmlns="http://www.w3.org/2000/svg" xmlns:xlink="http://www.w3.org/1999/xlink" xml:space="preserve" style="fill-rule:evenodd;clip-rule:evenodd;stroke-linejoin:round;stroke-miterlimit:2;"><title>NordCard</title><desc>Latvia-based fintech NordCard offers short-term loans. NordCard was among the first company in Latvia to offer a service of Credit Line. When clients apply for a loan, the company decides how much they are eligible for, but not more than Eur 3,000. Then, they have a freedom to choose how to use the approved funds- he or she may not use it all, use it for short period of time and repay before the end of the month benefitting from zero interest rate, or use it as a long-term loan for up to 50 months. </desc>    <g transform="matrix(6.75497,0,0,6.75497,-10.1049,168.185)">        <g>            <path d="M48.149,1.518l3.36,0l0,17.841l-2.087,0l0,0.025l-9.366,-12.038l0,12.013l-3.359,0l0,-17.816l2.723,0l8.729,11.045l0,-11.07Z" style="fill:rgb(94,94,94);fill-rule:nonzero;"/>            <path d="M66.831,13.098c0,3.614 -2.468,6.541 -6.541,6.541c-4.072,0 -6.516,-2.927 -6.516,-6.541c0,-3.589 2.495,-6.541 6.49,-6.541c3.995,0 6.567,2.952 6.567,6.541Zm-9.952,0c0,1.909 1.145,3.69 3.41,3.69c2.266,0 3.411,-1.781 3.411,-3.69c0,-1.883 -1.323,-3.716 -3.411,-3.716c-2.239,0 -3.41,1.833 -3.41,3.716Z" style="fill:rgb(94,94,94);fill-rule:nonzero;"/>            <path d="M71.59,6.812l0.229,1.451c0.967,-1.552 2.265,-1.782 3.538,-1.782c1.298,0 2.545,0.509 3.232,1.196l-1.4,2.698c-0.636,-0.535 -1.222,-0.815 -2.239,-0.815c-1.629,0 -3.131,0.866 -3.131,3.182l0,6.617l-3.104,0l0,-12.547l2.875,0Z" style="fill:rgb(94,94,94);fill-rule:nonzero;"/>            <path d="M92.536,1.569l0,17.79l-2.901,0l-0.204,-1.73c-0.967,1.501 -2.52,2.01 -4.047,2.01c-3.69,0 -6.465,-2.443 -6.465,-6.566c0,-4.327 2.724,-6.566 6.389,-6.566c1.323,0 3.385,0.713 4.123,2.011l0,-6.949l3.105,0Zm-10.511,11.503c0,2.189 1.578,3.69 3.563,3.69c1.959,0 3.64,-1.425 3.64,-3.69c0,-2.189 -1.68,-3.665 -3.64,-3.665c-1.985,0 -3.563,1.4 -3.563,3.665Z" style="fill:rgb(94,94,94);fill-rule:nonzero;"/>            <path d="M112.045,17.119c-1.833,1.807 -4.199,2.647 -6.77,2.647c-6.617,0 -9.417,-4.555 -9.442,-9.188c-0.025,-4.657 3.003,-9.391 9.442,-9.391c2.417,0 4.708,0.916 6.541,2.723l-2.239,2.164c-1.171,-1.146 -2.749,-1.68 -4.301,-1.68c-4.302,0 -6.16,3.207 -6.134,6.184c0.025,2.952 1.73,6.032 6.134,6.032c1.552,0 3.309,-0.636 4.479,-1.807l2.29,2.316Z" style="fill:rgb(94,94,94);fill-rule:nonzero;"/>            <path d="M123.116,6.812l2.978,0l0,12.547l-2.927,0l-0.153,-1.833c-0.713,1.477 -2.672,2.189 -4.072,2.214c-3.715,0.025 -6.464,-2.265 -6.464,-6.668c0,-4.326 2.875,-6.592 6.541,-6.566c1.68,0 3.283,0.789 3.996,2.037l0.101,-1.731Zm-7.533,6.26c0,2.393 1.654,3.818 3.716,3.818c4.887,0 4.887,-7.61 0,-7.61c-2.062,0 -3.716,1.4 -3.716,3.792Z" style="fill:rgb(94,94,94);fill-rule:nonzero;"/>            <path d="M131.592,6.812l0.229,1.451c0.967,-1.552 2.265,-1.782 3.538,-1.782c1.297,0 2.544,0.509 3.232,1.196l-1.4,2.698c-0.637,-0.535 -1.222,-0.815 -2.24,-0.815c-1.628,0 -3.13,0.866 -3.13,3.182l0,6.617l-3.105,0l0,-12.547l2.876,0Z" style="fill:rgb(94,94,94);fill-rule:nonzero;"/>            <path d="M152.792,1.569l0,17.79l-2.901,0l-0.204,-1.73c-0.967,1.501 -2.52,2.01 -4.046,2.01c-3.69,0 -6.465,-2.443 -6.465,-6.566c0,-4.327 2.723,-6.566 6.388,-6.566c1.324,0 3.385,0.713 4.123,2.011l0,-6.949l3.105,0Zm-10.511,11.503c0,2.189 1.578,3.69 3.563,3.69c1.96,0 3.639,-1.425 3.639,-3.69c0,-2.189 -1.679,-3.665 -3.639,-3.665c-1.985,0 -3.563,1.4 -3.563,3.665Z" style="fill:rgb(94,94,94);fill-rule:nonzero;"/>        </g>        <g>            <path d="M28.945,1.527l-25.295,0c-1.026,0 -1.858,0.836 -1.858,1.868l0,1.84l29.012,0l0,-1.84c0,-1.031 -0.832,-1.868 -1.859,-1.868Z" style="fill:rgb(94,94,94);fill-rule:nonzero;"/>            <path d="M1.792,17.511c0,1.032 0.832,1.868 1.858,1.868l9.062,0c6.933,0.277 10.942,5.434 10.942,5.434l-0.001,-0.544l0,-4.889l5.293,0c1.026,0 1.858,-0.836 1.858,-1.868l0,-7.668l-29.012,0l0,7.667Z" style="fill:rgb(94,94,94);fill-rule:nonzero;"/>        </g>    </g></svg>