<?xml version="1.0" encoding="UTF-8" standalone="no"?><!DOCTYPE svg PUBLIC "-//W3C//DTD SVG 1.1//EN" "http://www.w3.org/Graphics/SVG/1.1/DTD/svg11.dtd"><svg width="100%" height="100%" viewBox="0 0 1024 512" version="1.1" xmlns="http://www.w3.org/2000/svg" xmlns:xlink="http://www.w3.org/1999/xlink" xml:space="preserve" style="fill-rule:evenodd;clip-rule:evenodd;stroke-linejoin:round;stroke-miterlimit:2;"><title>Proplat</title><desc></desc>    <g transform="matrix(4.30625,0,0,4.30625,2,161.435)">        <path d="M62.955,38.48l0,-25.635l4.65,0l0.325,2.271c1.404,-1.808 3.632,-2.788 5.913,-2.6c5.228,0 8.8,3.678 8.8,9.23c0,5.768 -3.642,9.266 -8.869,9.266c-2.148,0.052 -4.207,-0.878 -5.588,-2.524l0,9.987l-5.231,0.005Zm14.458,-16.729c0.188,-2.318 -1.565,-4.379 -3.883,-4.567c-0.16,-0.013 -0.32,-0.017 -0.48,-0.012c-2.344,0 -4.8,1.19 -4.8,4.579l0,0.028c0,2.49 2.04,4.543 4.53,4.558c0.09,0 0.18,0 0.27,-0.007c2.324,0.074 4.297,-1.776 4.373,-4.1c0.005,-0.159 0.001,-0.318 -0.011,-0.476l0.001,-0.003Z" style="fill:rgb(18,23,48);fill-rule:nonzero;"/>        <path d="M90.863,12.846l0.4,1.946c1.068,-1.56 2.87,-2.461 4.759,-2.379c1.608,-0.041 3.172,0.541 4.363,1.623l-2.164,4.11c-0.826,-0.601 -1.826,-0.917 -2.848,-0.9c-0.076,-0.004 -0.152,-0.007 -0.228,-0.007c-2.066,0 -3.796,1.633 -3.916,3.696c-0.008,0.14 -0.008,0.281 0,0.421l0,9.266l-5.192,0l0,-17.776l4.826,0Z" style="fill:rgb(18,23,48);fill-rule:nonzero;"/>        <path d="M100.875,21.751c0,-5.372 3.822,-9.338 9.735,-9.338c5.949,0 9.771,3.966 9.771,9.338c0,5.372 -3.714,9.266 -9.771,9.266c-6.016,0 -9.735,-3.894 -9.735,-9.266Zm14.241,0c0.104,-2.463 -1.837,-4.574 -4.3,-4.678c-0.063,-0.003 -0.127,-0.004 -0.19,-0.004c-2.393,0 -4.388,1.913 -4.488,4.304c-0.006,0.126 -0.006,0.253 0,0.379c-0.007,0.103 -0.011,0.206 -0.011,0.309c0,2.268 1.775,4.173 4.037,4.334c0.148,0.01 0.297,0.013 0.445,0.008c3.178,0 4.512,-2.3 4.512,-4.651l-0.005,-0.001Z" style="fill:rgb(18,23,48);fill-rule:nonzero;"/>        <path d="M123.736,38.48l0,-25.635l4.651,0l0.324,2.271c1.404,-1.808 3.632,-2.788 5.913,-2.6c5.228,0 8.8,3.678 8.8,9.23c0,5.768 -3.642,9.266 -8.87,9.266c-2.148,0.051 -4.206,-0.879 -5.588,-2.524l0,9.987l-5.23,0.005Zm14.458,-16.729c0.188,-2.318 -1.565,-4.379 -3.883,-4.567c-0.16,-0.013 -0.32,-0.017 -0.48,-0.012c-2.344,0 -4.8,1.19 -4.8,4.579l0,0.027c0,2.491 2.041,4.544 4.532,4.559c0.089,0 0.179,0 0.268,-0.007c2.324,0.075 4.298,-1.776 4.374,-4.1c0.005,-0.159 0.002,-0.318 -0.011,-0.477l0,-0.002Z" style="fill:rgb(18,23,48);fill-rule:nonzero;"/>        <rect x="146.881" y="5.418" width="5.156" height="25.2" style="fill:rgb(18,23,48);fill-rule:nonzero;"/>        <path d="M170.278,12.809l4.867,0l0,17.811l-4.687,0l-0.288,-2.235c-1.19,1.875 -3.75,2.6 -5.48,2.632c-5.336,0.036 -9.194,-3.425 -9.194,-9.3c0,-5.913 4.074,-9.374 9.338,-9.3c2.235,0 4.327,0.865 5.264,2.451l0.18,-2.059Zm-9.591,8.906c-0.004,0.076 -0.006,0.152 -0.006,0.229c0,2.363 1.877,4.338 4.237,4.458c0.152,0.008 0.304,0.008 0.456,0c2.581,0 4.705,-2.124 4.705,-4.705c-0.001,-2.581 -2.124,-4.704 -4.705,-4.705c-0.066,-0.003 -0.133,-0.004 -0.199,-0.004c-2.391,0 -4.384,1.907 -4.49,4.295c-0.006,0.144 -0.006,0.288 0.002,0.432Z" style="fill:rgb(18,23,48);fill-rule:nonzero;"/>        <path d="M186.609,7.946l0,4.975l4.507,0l0,4.325l-4.543,0l0,6.7c0,1.875 1.046,2.379 2.019,2.379c0.742,0 1.477,-0.147 2.163,-0.432l1.19,4.327c-1.194,0.481 -2.463,0.749 -3.75,0.793c-3.857,0.18 -6.778,-1.514 -6.778,-7.067l0,-6.7l-3.173,0l0,-4.327l3.173,0l0,-4.4l5.192,-0.573Z" style="fill:rgb(18,23,48);fill-rule:nonzero;"/>        <path d="M200.161,27.988c0,3.894 -5.913,3.894 -5.913,0c0,-3.894 5.913,-3.893 5.913,0Z" style="fill:rgb(226,56,37);fill-rule:nonzero;"/>        <path d="M210.366,7.946l0,4.975l4.507,0l0,4.325l-4.546,0l0,6.7c0,1.875 1.046,2.379 2.019,2.379c0.742,0 1.477,-0.147 2.163,-0.432l1.19,4.327c-1.194,0.48 -2.463,0.749 -3.75,0.793c-3.858,0.18 -6.779,-1.514 -6.779,-7.067l0,-6.7l-3.173,0l0,-4.327l3.173,0l0,-4.4l5.196,-0.573Z" style="fill:rgb(226,56,37);fill-rule:nonzero;"/>        <path d="M217.359,21.751c0,-5.372 3.822,-9.338 9.735,-9.338c5.949,0 9.771,3.966 9.771,9.338c0,5.372 -3.714,9.266 -9.771,9.266c-6.017,0 -9.735,-3.894 -9.735,-9.266Zm14.242,0c0.103,-2.462 -1.838,-4.574 -4.3,-4.678c-2.463,-0.104 -4.574,1.837 -4.678,4.3c-0.006,0.126 -0.006,0.252 0,0.378c-0.007,0.103 -0.011,0.206 -0.011,0.309c0,2.268 1.775,4.173 4.037,4.334c0.148,0.01 0.297,0.013 0.445,0.008c3.172,0 4.506,-2.3 4.506,-4.651l0.001,0Z" style="fill:rgb(226,56,37);fill-rule:nonzero;"/>        <path d="M0,0l0,26.587l23.255,-13.123l-23.255,-13.464Z" style="fill:rgb(175,176,178);fill-rule:nonzero;"/>        <path d="M1.768,30.871l23.038,13.048l0,-26.618l-23.038,13.57Z" style="fill:rgb(163,11,24);fill-rule:nonzero;"/>        <path d="M24.806,17.295l0,26.618l0.013,0.007l22.554,-12.925l0.225,-0.129l0,-26.99l-22.792,13.419Z" style="fill:rgb(226,56,37);fill-rule:nonzero;"/>    </g></svg>