<?xml version="1.0" encoding="UTF-8" standalone="no"?><!DOCTYPE svg PUBLIC "-//W3C//DTD SVG 1.1//EN" "http://www.w3.org/Graphics/SVG/1.1/DTD/svg11.dtd"><svg width="100%" height="100%" viewBox="0 0 1024 512" version="1.1" xmlns="http://www.w3.org/2000/svg" xmlns:xlink="http://www.w3.org/1999/xlink" xml:space="preserve" style="fill-rule:evenodd;clip-rule:evenodd;stroke-linejoin:round;stroke-miterlimit:2;"><title>Canberra Immo</title><desc>Canberra immo is a crowdfunding and real estate crowdfunding platform. It brings together individuals wishing to invest and entrepreneurs with projects. Investments are made in the form of the issue of financial securities (stocks or bonds).We are professionals in real estate promotion and building rehabilitation. Our founders are also graduates in wealth management.</desc>    <g transform="matrix(0.442384,0,0,0.442384,-25.5038,142.75)">        <g transform="matrix(1,0,0,1,0,-915.286)">            <path d="M394.898,942.014c80.232,37.403 135.906,118.815 135.906,213.129c0,55.776 -19.471,107.04 -51.991,147.37c-2.956,2.708 -4.511,4.097 -4.248,3.973c-42.751,49.825 -108.6,81.442 -179.343,81.442c-128.624,0 -233.05,-104.427 -233.05,-233.05c0,-93.188 57.987,-173.514 137.107,-210.791c-34.986,40.775 -59.306,93.594 -59.306,151.475c0,127.029 96.482,220.525 222.789,222.824c-81.928,-32.358 -143.617,-104.637 -143.617,-184.414c0,-92.482 74.792,-170.24 175.753,-191.958Z" style="fill:rgb(44,80,114);"/>        </g>        <g transform="matrix(1,0,0,1,0,-915.286)">            <rect x="603.425" y="953.302" width="6.563" height="445.449" style="fill:rgb(44,80,114);"/>        </g>        <g transform="matrix(340.402,0,0,340.402,675.356,258.008)">            <path d="M0.66,-0.097c-0.016,0.017 -0.034,0.032 -0.053,0.045c-0.019,0.013 -0.04,0.024 -0.062,0.033c-0.022,0.009 -0.045,0.017 -0.068,0.022c-0.024,0.005 -0.048,0.007 -0.073,0.007c-0.049,0 -0.095,-0.009 -0.139,-0.028c-0.044,-0.019 -0.082,-0.045 -0.115,-0.078c-0.033,-0.032 -0.059,-0.071 -0.078,-0.115c-0.019,-0.044 -0.028,-0.09 -0.028,-0.139c0,-0.049 0.009,-0.095 0.028,-0.138c0.019,-0.044 0.045,-0.083 0.078,-0.116c0.033,-0.033 0.071,-0.059 0.115,-0.078c0.044,-0.019 0.09,-0.028 0.139,-0.028c0.025,0 0.049,0.002 0.072,0.007c0.023,0.005 0.046,0.012 0.068,0.021c0.021,0.009 0.042,0.02 0.061,0.034c0.019,0.013 0.037,0.027 0.053,0.043l-0.049,0.05c-0.013,-0.013 -0.028,-0.025 -0.043,-0.036c-0.015,-0.011 -0.032,-0.02 -0.049,-0.028c-0.018,-0.008 -0.036,-0.014 -0.055,-0.019c-0.019,-0.004 -0.039,-0.006 -0.058,-0.006c-0.039,0 -0.077,0.008 -0.112,0.023c-0.035,0.015 -0.066,0.037 -0.093,0.064c-0.027,0.027 -0.047,0.059 -0.062,0.094c-0.015,0.036 -0.023,0.074 -0.023,0.113c0,0.039 0.008,0.077 0.023,0.113c0.015,0.036 0.035,0.068 0.062,0.094c0.027,0.027 0.058,0.049 0.093,0.064c0.035,0.015 0.073,0.023 0.112,0.023c0.02,0 0.04,-0.002 0.059,-0.007c0.019,-0.004 0.037,-0.01 0.055,-0.018c0.017,-0.008 0.034,-0.018 0.05,-0.029c0.015,-0.011 0.03,-0.023 0.043,-0.037l0.049,0.05Z" style="fill:rgb(44,80,114);fill-rule:nonzero;"/>        </g>        <g transform="matrix(340.402,0,0,340.402,924.999,258.008)">            <path d="M0.459,0l-0.069,-0.223l-0.231,0l-0.068,0.223l-0.076,0l0.226,-0.7l0.067,0l0.226,0.7l-0.075,0Zm-0.202,-0.544l-0.08,0.261l0.195,0l-0.08,-0.261c-0.002,-0.006 -0.004,-0.013 -0.006,-0.02c-0.002,-0.007 -0.004,-0.014 -0.005,-0.021c-0.002,-0.007 -0.003,-0.012 -0.004,-0.017c-0.001,-0.005 -0.002,-0.007 -0.002,-0.008c0,0.001 -0.001,0.005 -0.003,0.013c-0.002,0.007 -0.003,0.013 -0.004,0.017c-0.001,0.004 -0.003,0.01 -0.005,0.017c-0.002,0.006 -0.004,0.013 -0.006,0.019Z" style="fill:rgb(44,80,114);fill-rule:nonzero;"/>        </g>        <g transform="matrix(340.402,0,0,340.402,1124.88,258.008)">            <path d="M0.53,-0.7l0,0.7l-0.07,0l0,-0.19l-0.274,-0.373c-0.002,-0.003 -0.004,-0.005 -0.007,-0.008c-0.002,-0.003 -0.004,-0.005 -0.005,-0.008l-0.006,-0.011l0.001,0.014l0.001,0.02l0,0.556l-0.07,0l0,-0.7l0.075,0l0.269,0.37c0.002,0.003 0.004,0.006 0.006,0.009c0.002,0.003 0.002,0.004 0.001,0.001c-0.001,-0.002 0,0.001 0.005,0.008c0.004,0.007 0.006,0.011 0.006,0.011l-0.001,-0.014l-0.001,-0.021l0,-0.364l0.07,0Z" style="fill:rgb(44,80,114);fill-rule:nonzero;"/>        </g>        <g transform="matrix(340.402,0,0,340.402,1351.33,258.008)">            <path d="M0.247,0l-0.147,0l0,-0.7l0.161,0c0.027,0 0.051,0.004 0.072,0.012c0.021,0.008 0.039,0.02 0.054,0.035c0.016,0.015 0.027,0.034 0.035,0.055c0.008,0.021 0.012,0.045 0.012,0.071c0,0.013 -0.002,0.026 -0.005,0.037c-0.003,0.012 -0.007,0.023 -0.012,0.032c-0.005,0.01 -0.012,0.019 -0.02,0.027c-0.007,0.008 -0.016,0.015 -0.026,0.022c0.021,0.008 0.04,0.018 0.057,0.031c0.017,0.013 0.032,0.028 0.044,0.045c0.012,0.017 0.021,0.036 0.028,0.056c0.007,0.021 0.01,0.042 0.01,0.065c0,0.03 -0.005,0.058 -0.016,0.083c-0.011,0.026 -0.027,0.049 -0.048,0.068c-0.022,0.019 -0.05,0.034 -0.083,0.045c-0.033,0.011 -0.072,0.016 -0.116,0.016Zm0.036,-0.365l-0.113,0l0,0.301l0.112,0c0.024,0 0.046,-0.004 0.066,-0.012c0.02,-0.007 0.037,-0.018 0.05,-0.032c0.014,-0.014 0.025,-0.03 0.031,-0.048c0.007,-0.017 0.011,-0.036 0.011,-0.056c0,-0.02 -0.004,-0.039 -0.011,-0.058c-0.007,-0.018 -0.017,-0.034 -0.031,-0.049c-0.013,-0.014 -0.03,-0.025 -0.049,-0.034c-0.02,-0.008 -0.042,-0.012 -0.066,-0.012Zm-0.113,-0.06l0.091,0c0.017,0 0.032,-0.003 0.044,-0.008c0.014,-0.005 0.024,-0.013 0.033,-0.022c0.009,-0.009 0.015,-0.02 0.02,-0.033c0.004,-0.012 0.006,-0.025 0.006,-0.039c0,-0.015 -0.002,-0.029 -0.006,-0.042c-0.004,-0.013 -0.01,-0.024 -0.019,-0.035c-0.009,-0.01 -0.019,-0.018 -0.032,-0.024c-0.013,-0.005 -0.029,-0.008 -0.046,-0.008l-0.091,0l0,0.211Z" style="fill:rgb(44,80,114);fill-rule:nonzero;"/>        </g>        <g transform="matrix(340.402,0,0,340.402,1556.36,258.008)">            <path d="M0.474,-0.066l0,0.066l-0.374,0l0,-0.7l0.374,0l0,0.066l-0.304,0l0,0.236l0.243,0l0,0.066l-0.243,0l0,0.266l0.304,0Z" style="fill:rgb(44,80,114);fill-rule:nonzero;"/>        </g>        <g transform="matrix(340.402,0,0,340.402,1754.54,258.008)">            <path d="M0.17,0l-0.07,0l0,-0.7l0.203,0c0.035,0 0.067,0.005 0.094,0.016c0.027,0.011 0.05,0.025 0.069,0.044c0.018,0.02 0.032,0.042 0.041,0.067c0.009,0.025 0.014,0.052 0.014,0.081c0,0.021 -0.003,0.042 -0.008,0.061c-0.005,0.02 -0.013,0.038 -0.024,0.054c-0.011,0.017 -0.023,0.031 -0.038,0.043c-0.016,0.013 -0.032,0.023 -0.051,0.031l0.132,0.303l-0.076,0l-0.125,-0.286l-0.014,0.001l-0.147,0l0,0.285Zm0,-0.351l0.133,0c0.025,0 0.047,-0.004 0.066,-0.011c0.019,-0.007 0.035,-0.016 0.047,-0.029c0.012,-0.013 0.021,-0.028 0.026,-0.044c0.006,-0.017 0.009,-0.036 0.009,-0.057c0,-0.021 -0.003,-0.041 -0.009,-0.058c-0.006,-0.017 -0.015,-0.032 -0.028,-0.045c-0.012,-0.013 -0.027,-0.022 -0.046,-0.029c-0.019,-0.007 -0.04,-0.01 -0.065,-0.01l-0.133,0l0,0.283Z" style="fill:rgb(44,80,114);fill-rule:nonzero;"/>        </g>        <g transform="matrix(340.402,0,0,340.402,1968.06,258.008)">            <path d="M0.17,0l-0.07,0l0,-0.7l0.203,0c0.035,0 0.067,0.005 0.094,0.016c0.027,0.011 0.05,0.025 0.069,0.044c0.018,0.02 0.032,0.042 0.041,0.067c0.009,0.025 0.014,0.052 0.014,0.081c0,0.021 -0.003,0.042 -0.008,0.061c-0.005,0.02 -0.013,0.038 -0.024,0.054c-0.011,0.017 -0.023,0.031 -0.038,0.043c-0.016,0.013 -0.032,0.023 -0.051,0.031l0.132,0.303l-0.076,0l-0.125,-0.286l-0.014,0.001l-0.147,0l0,0.285Zm0,-0.351l0.133,0c0.025,0 0.047,-0.004 0.066,-0.011c0.019,-0.007 0.035,-0.016 0.047,-0.029c0.012,-0.013 0.021,-0.028 0.026,-0.044c0.006,-0.017 0.009,-0.036 0.009,-0.057c0,-0.021 -0.003,-0.041 -0.009,-0.058c-0.006,-0.017 -0.015,-0.032 -0.028,-0.045c-0.012,-0.013 -0.027,-0.022 -0.046,-0.029c-0.019,-0.007 -0.04,-0.01 -0.065,-0.01l-0.133,0l0,0.283Z" style="fill:rgb(44,80,114);fill-rule:nonzero;"/>        </g>        <g transform="matrix(292.742,0,0,292.742,1530.91,492.749)">            <rect x="0.214" y="-0.7" width="0.07" height="0.7" style="fill:rgb(44,80,114);fill-rule:nonzero;"/>        </g>        <g transform="matrix(292.742,0,0,292.742,1630.15,492.749)">            <path d="M0.722,-0.7l0.096,0.7l-0.074,0l-0.065,-0.549c-0.001,-0.005 -0.001,-0.009 -0.002,-0.014c-0.001,-0.006 -0.001,-0.01 -0.002,-0.014l-0.001,-0.017c-0.001,0.001 -0.002,0.006 -0.004,0.013c-0.002,0.007 -0.004,0.013 -0.005,0.018c-0.001,0.004 -0.003,0.008 -0.004,0.012l-0.195,0.551l-0.044,0l-0.196,-0.551c-0.001,-0.004 -0.003,-0.008 -0.005,-0.012c-0.001,-0.005 -0.003,-0.009 -0.004,-0.013c-0.001,-0.005 -0.003,-0.008 -0.004,-0.011c-0.001,-0.003 -0.001,-0.006 -0.001,-0.007l-0.002,0.018c0,0.004 0,0.008 -0.001,0.013c0,0.005 0,0.009 -0.001,0.014l-0.064,0.549l-0.074,0l0.096,-0.7l0.074,0l0.193,0.531l0.01,0.035c0.001,-0.007 0.002,-0.012 0.003,-0.015c0.001,-0.003 0.002,-0.007 0.003,-0.01c0.002,-0.004 0.003,-0.007 0.004,-0.01l0.195,-0.531l0.074,0Z" style="fill:rgb(44,80,114);fill-rule:nonzero;"/>        </g>        <g transform="matrix(292.742,0,0,292.742,1890.11,492.749)">            <path d="M0.722,-0.7l0.096,0.7l-0.074,0l-0.065,-0.549c-0.001,-0.005 -0.001,-0.009 -0.002,-0.014c-0.001,-0.006 -0.001,-0.01 -0.002,-0.014l-0.001,-0.017c-0.001,0.001 -0.002,0.006 -0.004,0.013c-0.002,0.007 -0.004,0.013 -0.005,0.018c-0.001,0.004 -0.003,0.008 -0.004,0.012l-0.195,0.551l-0.044,0l-0.196,-0.551c-0.001,-0.004 -0.003,-0.008 -0.005,-0.012c-0.001,-0.005 -0.003,-0.009 -0.004,-0.013c-0.001,-0.005 -0.003,-0.008 -0.004,-0.011c-0.001,-0.003 -0.001,-0.006 -0.001,-0.007l-0.002,0.018c0,0.004 0,0.008 -0.001,0.013c0,0.005 0,0.009 -0.001,0.014l-0.064,0.549l-0.074,0l0.096,-0.7l0.074,0l0.193,0.531l0.01,0.035c0.001,-0.007 0.002,-0.012 0.003,-0.015c0.001,-0.003 0.002,-0.007 0.003,-0.01c0.002,-0.004 0.003,-0.007 0.004,-0.01l0.195,-0.531l0.074,0Z" style="fill:rgb(44,80,114);fill-rule:nonzero;"/>        </g>        <g transform="matrix(292.742,0,0,292.742,2144.21,492.749)">            <path d="M0.404,0.01c-0.049,0 -0.095,-0.009 -0.139,-0.028c-0.044,-0.019 -0.083,-0.045 -0.116,-0.078c-0.033,-0.032 -0.058,-0.071 -0.077,-0.115c-0.019,-0.044 -0.028,-0.09 -0.028,-0.139c0,-0.049 0.009,-0.095 0.028,-0.138c0.019,-0.044 0.044,-0.083 0.077,-0.116c0.033,-0.033 0.072,-0.059 0.116,-0.078c0.044,-0.019 0.09,-0.028 0.139,-0.028c0.049,0 0.095,0.009 0.138,0.028c0.044,0.019 0.083,0.045 0.116,0.078c0.033,0.033 0.059,0.072 0.078,0.116c0.019,0.043 0.028,0.089 0.028,0.138c0,0.049 -0.009,0.095 -0.028,0.139c-0.019,0.044 -0.045,0.083 -0.078,0.116c-0.033,0.033 -0.072,0.058 -0.116,0.077c-0.043,0.019 -0.089,0.028 -0.138,0.028Zm0,-0.066c0.041,0 0.079,-0.007 0.114,-0.022c0.036,-0.015 0.067,-0.035 0.094,-0.062c0.026,-0.027 0.046,-0.059 0.061,-0.095c0.014,-0.036 0.021,-0.074 0.021,-0.115c0,-0.041 -0.007,-0.08 -0.022,-0.116c-0.014,-0.036 -0.034,-0.067 -0.061,-0.094c-0.026,-0.027 -0.057,-0.047 -0.092,-0.062c-0.035,-0.015 -0.074,-0.022 -0.115,-0.022c-0.041,0 -0.08,0.007 -0.115,0.022c-0.035,0.015 -0.066,0.036 -0.093,0.063c-0.026,0.027 -0.046,0.058 -0.061,0.094c-0.014,0.036 -0.021,0.074 -0.021,0.115c0,0.041 0.007,0.08 0.021,0.116c0.015,0.036 0.035,0.067 0.061,0.094c0.027,0.027 0.058,0.047 0.093,0.062c0.036,0.015 0.074,0.022 0.115,0.022Z" style="fill:rgb(44,80,114);fill-rule:nonzero;"/>        </g>        <g transform="matrix(340.402,0,0,340.402,2168.32,258.008)">            <path d="M0.459,0l-0.069,-0.223l-0.231,0l-0.068,0.223l-0.076,0l0.226,-0.7l0.067,0l0.226,0.7l-0.075,0Zm-0.202,-0.544l-0.08,0.261l0.195,0l-0.08,-0.261c-0.002,-0.006 -0.004,-0.013 -0.006,-0.02c-0.002,-0.007 -0.004,-0.014 -0.005,-0.021c-0.002,-0.007 -0.003,-0.012 -0.004,-0.017c-0.001,-0.005 -0.002,-0.007 -0.002,-0.008c0,0.001 -0.001,0.005 -0.003,0.013c-0.002,0.007 -0.003,0.013 -0.004,0.017c-0.001,0.004 -0.003,0.01 -0.005,0.017c-0.002,0.006 -0.004,0.013 -0.006,0.019Z" style="fill:rgb(44,80,114);fill-rule:nonzero;"/>        </g>    </g></svg>