<?xml version="1.0" encoding="UTF-8" standalone="no"?><!DOCTYPE svg PUBLIC "-//W3C//DTD SVG 1.1//EN" "http://www.w3.org/Graphics/SVG/1.1/DTD/svg11.dtd"><svg width="100%" height="100%" viewBox="0 0 1024 512" version="1.1" xmlns="http://www.w3.org/2000/svg" xmlns:xlink="http://www.w3.org/1999/xlink" xml:space="preserve" style="fill-rule:evenodd;clip-rule:evenodd;stroke-linejoin:round;stroke-miterlimit:2;"><title>Coinbase</title><desc>We are building the cryptoeconomy – a more fair, accessible, efficient, and transparent financial system enabled by crypto.</desc>    <g transform="matrix(0.925892,0,0,0.925892,2,164.897)">        <path d="M222.34,54.94c-40.02,0 -71.29,30.38 -71.29,71.05c0,40.67 30.48,70.79 71.29,70.79c40.81,0 71.82,-30.64 71.82,-71.05c0,-40.15 -30.48,-70.79 -71.82,-70.79Zm0.27,112.53c-22.79,0 -39.49,-17.7 -39.49,-41.47c-0,-24.04 16.43,-41.73 39.22,-41.73c23.06,0 39.75,17.96 39.75,41.73c0,23.77 -16.69,41.47 -39.48,41.47Zm80.29,-81.62l19.88,0l-0,108.3l31.8,0l-0,-136.57l-51.68,0l-0,28.27Zm-231.88,-1.59c16.7,0 29.95,10.3 34.98,25.62l33.66,0c-6.1,-32.75 -33.13,-54.94 -68.37,-54.94c-40.02,0 -71.29,30.38 -71.29,71.06c-0,40.68 30.48,70.79 71.29,70.79c34.45,0 62.01,-22.19 68.11,-55.21l-33.4,0c-4.77,15.32 -18.02,25.89 -34.72,25.89c-23.06,0 -39.22,-17.7 -39.22,-41.47c0.01,-24.04 15.91,-41.74 38.96,-41.74Zm836.1,28.53l-23.32,-3.43c-11.13,-1.58 -19.08,-5.28 -19.08,-14c-0,-9.51 10.34,-14.26 24.38,-14.26c15.37,0 25.18,6.6 27.3,17.43l30.74,0c-3.45,-27.47 -24.65,-43.58 -57.24,-43.58c-33.66,0 -55.92,17.17 -55.92,41.47c-0,23.24 14.58,36.72 43.99,40.94l23.32,3.43c11.4,1.58 17.76,6.08 17.76,14.53c-0,10.83 -11.13,15.32 -26.5,15.32c-18.82,0 -29.42,-7.66 -31.01,-19.28l-31.27,0c2.92,26.68 23.85,45.43 62.01,45.43c34.72,0 57.77,-15.85 57.77,-43.06c-0,-24.3 -16.69,-36.98 -42.93,-40.94Zm-568.44,-111.47c-11.66,0 -20.41,8.45 -20.41,20.07c-0,11.62 8.74,20.07 20.41,20.07c11.66,0 20.41,-8.45 20.41,-20.07c-0,-11.62 -8.75,-20.07 -20.41,-20.07Zm466.68,103.02c-0,-29.58 -18.02,-49.39 -56.18,-49.39c-36.04,0 -56.18,18.23 -60.16,46.23l31.54,0c1.59,-10.83 10.07,-19.81 28.09,-19.81c16.17,0 24.12,7.13 24.12,15.85c-0,11.36 -14.58,14.26 -32.6,16.11c-24.38,2.64 -54.59,11.09 -54.59,42.79c-0,24.57 18.29,40.41 47.44,40.41c22.79,0 37.1,-9.51 44.26,-24.57c1.06,13.47 11.13,22.19 25.18,22.19l18.55,0l-0,-28.26l-15.64,0l-0,-61.55l-0.01,0Zm-31.27,34.34c-0,18.23 -15.9,31.7 -35.25,31.7c-11.93,0 -22,-5.02 -22,-15.58c-0,-13.47 16.17,-17.17 31.01,-18.75c14.31,-1.32 22.26,-4.49 26.24,-10.57l-0,13.2Zm-168.81,-83.74c-17.76,0 -32.6,7.4 -43.2,19.81l-0,-74.75l-31.8,0l-0,194.15l31.27,0l-0,-17.96c10.6,12.94 25.71,20.6 43.73,20.6c38.16,0 67.05,-30.11 67.05,-70.79c-0,-40.68 -29.42,-71.06 -67.05,-71.06Zm-4.77,112.53c-22.79,0 -39.49,-17.7 -39.49,-41.47c-0,-23.77 16.96,-41.73 39.75,-41.73c23.06,0 39.22,17.7 39.22,41.73c-0,23.77 -16.69,41.47 -39.48,41.47Zm-146.29,-112.53c-20.67,0 -34.19,8.45 -42.14,20.34l-0,-17.7l-31.54,0l-0,136.56l31.8,0l-0,-74.22c-0,-20.87 13.25,-35.66 32.86,-35.66c18.29,0 29.68,12.94 29.68,31.7l-0,78.19l31.8,0l-0,-80.56c0.01,-34.35 -17.74,-58.65 -52.46,-58.65Zm647.42,66.57c-0,-39.09 -28.62,-66.56 -67.05,-66.56c-40.81,0 -70.76,30.64 -70.76,71.05c-0,42.53 32.07,70.79 71.29,70.79c33.13,0 59.1,-19.55 65.72,-47.28l-33.13,0c-4.77,12.15 -16.43,19.02 -32.07,19.02c-20.41,0 -35.78,-12.68 -39.22,-34.87l105.21,0l-0,-12.15l0.01,0Zm-103.36,-10.57c5.04,-19.02 19.35,-28.26 35.78,-28.26c18.02,0 31.8,10.3 34.98,28.26l-70.76,0Z" style="fill:rgb(0,82,255);fill-rule:nonzero;"/>    </g></svg>