<?xml version="1.0" encoding="UTF-8" standalone="no"?><!DOCTYPE svg PUBLIC "-//W3C//DTD SVG 1.1//EN" "http://www.w3.org/Graphics/SVG/1.1/DTD/svg11.dtd"><svg width="100%" height="100%" viewBox="0 0 1024 512" version="1.1" xmlns="http://www.w3.org/2000/svg" xmlns:xlink="http://www.w3.org/1999/xlink" xml:space="preserve" style="fill-rule:evenodd;clip-rule:evenodd;stroke-linejoin:round;stroke-miterlimit:2;"><title>Monestro</title><desc>Monestro is a P2P consumer loans marketplace for Monestro is Cost-efficient highly automated P2P algorithmic lending platform to capitalize on the inefficiency of the lending markets as loans are offered with much higher interests rates compared to what investors are able to receive on deposits or investment products with similar risk levels Our mission is to find risks which are over rated by the market and based on those offer diversified, easy to buy, correctly scored and well managed products resulting in improved borrowing rates for borrowers and more appealing returns for our investors. Our core business is to automatically assess the credit risk and offer efficient, and correctly priced possibilities for convenient borrowing and investing</desc>    <g id="monestro-512x256.svg" transform="matrix(2.21743,0,0,2.21743,-55.6484,-27.833)">        <path d="M190.08,116.47c0.79,-1.17 1.39,-2.16 2.08,-3.09c3.761,-4.929 10.128,-7.154 16.14,-5.64c5.92,1.51 10,6.23 10.86,12.6c0.61,4.38 0.32,8.78 0.35,13.17c0,5.84 -0.15,11.68 0,17.52c0.07,2.36 -1.2,2 -2.68,2.12c-1.72,0.12 -2.35,-0.28 -2.33,-2.21c0.11,-8.11 0,-16.21 0,-24.32c0.07,-2.336 -0.231,-4.668 -0.89,-6.91c-1.5,-4.49 -5,-7.17 -9.48,-7.2c-4.669,-0.206 -8.969,2.628 -10.62,7c-1.47,4.1 -1.15,8.4 -1.19,12.64c-0.07,6.39 -0.11,12.78 0,19.17c0.05,2.24 -1.28,1.77 -2.51,1.77c-1.23,0 -2.53,0.4 -2.49,-1.82c0.12,-7.69 0,-15.39 0,-23.09c0.045,-2.472 -0.234,-4.94 -0.83,-7.34c-1.58,-5.91 -5.81,-8.89 -11.72,-8.29c-5.34,0.54 -9.11,4.75 -9.34,10.56c-0.37,9.2 -0.35,18.4 -0.34,27.6c0,0.76 0.47,2 -0.44,2.23c-1.328,0.368 -2.732,0.368 -4.06,0c-0.42,-0.11 -0.35,-0.7 -0.35,-1.1c0,-10.09 -0.59,-20.21 0.28,-30.27c0.66,-7.7 4.82,-12.34 11.48,-13.77c7.29,-1.56 13.17,1 17.23,7.43c0.24,0.33 0.47,0.67 0.85,1.24Z" style="fill:rgb(141,104,169);fill-rule:nonzero;"/>        <path d="M370,106.86c4.361,-0.151 8.682,0.886 12.5,3c2.53,1.38 3.21,3.49 2.05,5.63c-0.61,1.13 -1.11,1.39 -2.32,0.51c-5.8,-4.23 -12.21,-5 -19,-2.78c-3.88,1.26 -5.4,4.25 -4.51,8.24c0.326,1.93 1.758,3.499 3.65,4c5,1.58 10.13,2.41 15.19,3.63c8.8,2.12 12.49,9.74 8.61,18c-2.11,4.48 -6.37,6.2 -10.77,7.13c-7.3,1.54 -14.16,-0.2 -20.58,-3.83c-2.28,-1.29 -0.18,-2.57 0.08,-3.82c0.26,-1.25 1.2,-1 2.18,-0.66c3.76,1.47 7.45,3.15 11.53,3.65c3.004,0.395 6.059,0.052 8.9,-1c3.125,-1.007 5.142,-4.083 4.82,-7.35c-0.42,-4.05 -2.08,-5.91 -6,-6.67c-5.31,-1 -10.67,-1.75 -15.82,-3.6c-4.88,-1.75 -6.72,-5.46 -6.84,-10.19c-0.12,-4.73 1,-9 5.88,-11.3c3.204,-1.743 6.803,-2.634 10.45,-2.59Z" style="fill:rgb(141,104,169);fill-rule:nonzero;"/>        <path d="M307.32,137.69c0,4.54 -0.06,9.07 0,13.61c0,1.47 -0.46,2 -1.87,1.81c-0.408,-0.057 -0.822,-0.057 -1.23,0c-1.43,0.21 -1.86,-0.36 -1.85,-1.81c0.07,-7.83 0,-15.67 0,-23.5c0.017,-2.131 -0.242,-4.255 -0.77,-6.32c-1.76,-6.75 -6.15,-9.63 -13.41,-8.83c-5.6,0.62 -9.51,5.21 -9.79,11.46c-0.4,8.93 -0.31,17.86 -0.29,26.79c0,1.34 0.08,2.49 -1.86,2.23c-1.44,-0.19 -3.21,0.61 -3.13,-2.1c0.27,-9.41 -0.44,-18.83 0.4,-28.23c0.7,-7.78 5.68,-13.5 12.84,-15c7.87,-1.67 15.06,1.44 18.79,8.19c1.443,2.752 2.169,5.823 2.11,8.93c0.09,4.25 0.06,8.51 0.06,12.77Z" style="fill:rgb(142,104,169);fill-rule:nonzero;"/>        <path d="M394,121.08l0,-21.63c0,-1.68 0.31,-3.2 2.46,-3.36c1.71,-0.13 2.38,0.82 2.41,2.35c0.05,2.54 0.2,5.09 0,7.62c-0.13,1.92 0.59,2.29 2.33,2.22c3.29,-0.13 6.59,0 9.89,0c1.57,0 2.86,0.45 3.34,2.13c0.132,0.308 0.2,0.639 0.2,0.974c0,1.355 -1.115,2.47 -2.47,2.47c-0.087,0 -0.174,-0.005 -0.26,-0.014c-3.71,0.05 -7.42,0.1 -11.12,0c-1.37,0 -1.91,0.25 -1.89,1.77c0.08,8.17 0,16.34 0.06,24.52c0.022,1.233 0.193,2.458 0.51,3.65c1.33,5.23 5.28,7.14 10.45,5.12c0.45,-0.17 0.87,-0.39 1.31,-0.6c2.44,-1.2 3.3,-0.8 4.18,1.86c0.209,0.439 0.069,0.971 -0.33,1.25c-4.63,4.16 -15.51,5.14 -19.24,-1.81c-1.238,-2.308 -1.877,-4.891 -1.86,-7.51c0.02,-7.007 0.03,-14.01 0.03,-21.01Z" style="fill:rgb(141,104,169);fill-rule:nonzero;"/>        <path d="M420,135.47c0.26,-4.5 -0.55,-10.09 0.27,-15.61c1.48,-9.89 8.07,-14.4 17.94,-12.45c1.279,0.257 2.541,0.591 3.78,1c1.355,0.364 2.304,1.601 2.304,3.004c0,0.339 -0.055,0.675 -0.164,0.996c-0.4,1.46 -1.1,2.06 -2.69,1.33c-3.379,-1.658 -7.319,-1.76 -10.78,-0.28c-3.4,1.41 -5,4.11 -5.39,7.65c-0.374,4.657 -0.501,9.33 -0.38,14c0,5.5 -0.08,11 0,16.49c0,1.85 -0.94,1.83 -2.16,1.71c-1.22,-0.12 -2.86,0.7 -2.81,-1.75c0.19,-5.01 0.08,-10.02 0.08,-16.09Z" style="fill:rgb(142,104,169);fill-rule:nonzero;"/>        <path d="M122.25,94.38c-1.356,-1.899 -2.968,-3.602 -4.79,-5.06c1,4.9 -0.09,9.19 -2.19,13.26c-3.41,6.59 -8.87,11.26 -14.76,15.5c-0.8,0.57 -1.1,0.43 -1.47,-0.42c-0.72,-1.62 -0.39,-3.23 -0.14,-4.85c0.28,-1.9 0.74,-3.79 -0.22,-5.64c-1.488,-2.588 -4.254,-4.189 -7.239,-4.189c-4.317,0 -7.959,3.347 -8.321,7.649c-0.38,3.401 1.653,6.642 4.88,7.78c1.33,0.53 2.74,0.87 4.1,1.34c0.938,0.317 1.635,1.117 1.82,2.09c0.19,1 -0.94,1 -1.49,1.4c-0.684,0.46 -1.395,0.878 -2.13,1.25c-5.6,3.15 -11.35,6 -17.43,9c2.548,0.725 4.803,2.237 6.44,4.32c2.49,7.19 1.58,10.5 -4.07,14.8c-2.583,1.186 -5.497,1.448 -8.25,0.74c-6.13,-2.6 -7.91,-7.26 -5.89,-14c-6.27,3.33 -12.08,6.06 -17,10.24c-1.639,1.237 -2.985,2.822 -3.94,4.64c-0.706,0.775 -1.174,1.737 -1.35,2.77c-0.51,2.27 -1,4.65 0.6,6.63c2.103,2.589 4.545,4.882 7.26,6.82c0.614,0.733 1.378,1.327 2.24,1.74c19.81,13.79 46.31,13 64.19,-1.83c6.171,-4.346 11.128,-10.199 14.4,-17c2.834,-4.748 4.704,-10.008 5.5,-15.48c0.107,-0.175 0.191,-0.363 0.25,-0.56c2.42,-15.87 -1.1,-30.23 -11,-42.94Z" style="fill:rgb(235,99,37);fill-rule:nonzero;"/>        <path d="M114.8,91.07c0.078,-0.084 0.078,-0.216 0,-0.3c0.297,-2.551 -0.864,-5.064 -3,-6.49c-12.47,-8.75 -26.2,-12 -41.17,-9.48c-11.22,1.803 -21.534,7.272 -29.32,15.55c-2.571,2.425 -4.78,5.207 -6.56,8.26c-2.507,3.512 -4.432,7.405 -5.7,11.53c-1.614,4.227 -2.575,8.674 -2.85,13.19c-0.23,4.71 -0.51,9.43 0.7,14.07c0.398,3.569 1.37,7.051 2.88,10.31c1.16,3.88 3.3,7.25 5.61,10.85c1.028,-4.274 3.398,-8.109 6.76,-10.94c0.753,-0.311 1.434,-0.774 2,-1.36c5.054,-3.781 10.455,-7.076 16.13,-9.84c1.34,-0.67 2.2,0.08 3,1c0.8,0.92 0.31,2.12 0.46,3.18c-0.18,1.08 -0.37,2.15 -0.52,3.23c-0.263,1.574 0.201,3.186 1.26,4.38c2.747,3.082 7.509,3.434 10.68,0.79c3.043,-2.632 3.42,-7.283 0.84,-10.37c-0.197,-0.273 -0.425,-0.521 -0.68,-0.74c-1.713,-1.009 -3.572,-1.747 -5.51,-2.19c-1.016,-0.302 -1.763,-1.179 -1.9,-2.23c-0.22,-1.18 1,-1.15 1.62,-1.5c5.18,-2.77 10.38,-5.5 15.58,-8.23c1.43,-0.13 2.42,-1.1 3.64,-1.78c-7.13,-3.52 -8.44,-5.41 -8.54,-12.19c0.14,-0.45 0.27,-0.9 0.42,-1.35c1.69,-5.23 5.85,-9.1 12.37,-8.19c3.51,0.49 6,2.42 8.09,5c1.38,2.45 1.25,5.06 0.66,8.32c3.3,-2.72 6.37,-4.88 8.18,-8.34c1.5,-1.38 2.21,-3.28 3.24,-5c1.123,-1.995 1.699,-4.251 1.67,-6.54c0.245,-0.851 0.231,-1.757 -0.04,-2.6Z" style="fill:rgb(140,97,165);fill-rule:nonzero;"/>        <path d="M114.79,93.72l0,-2.65c0.371,0.844 0.371,1.806 0,2.65Z" style="fill:rgb(140,101,168);fill-rule:nonzero;"/>        <path d="M343.44,147c-2.814,1.904 -6.193,2.796 -9.58,2.53c-7.57,-0.75 -12.1,-5.22 -13.51,-12.74c-0.33,-1.77 0.12,-2.18 1.81,-2c6.072,0.764 12.238,0.25 18.1,-1.51c6.26,-2 8.82,-5.26 8.83,-11.89c0,-7.67 -3.75,-12.34 -11.11,-13.82c-8.71,-1.76 -17.7,3.35 -21.13,12c-1.308,3.397 -2.061,6.983 -2.23,10.62c-0.45,7.52 1.21,14.4 6.93,19.68c6.12,5.65 15.62,6.34 23.43,2c2.56,-1.42 2.43,-1.36 1.29,-4.07c-0.74,-1.7 -1.44,-1.65 -2.83,-0.8Zm-16.63,-32.59c4.27,-3.54 11,-2.57 14.14,-0.5c3.14,2.07 3.46,5.12 3.12,8.4c-0.154,2.676 -1.898,5.012 -4.42,5.92c-4.204,1.748 -8.758,2.494 -13.3,2.18l-4.89,0c-1,0 -1.49,-0.3 -1.46,-1.41c0.21,-5.8 2.23,-10.76 6.81,-14.55l0,-0.04Z" style="fill:rgb(141,104,169);fill-rule:nonzero;"/>        <path d="M481.43,115.53c-6.66,-9.78 -20.2,-11 -28,-2.64c-8.34,9 -9,24.72 -1.4,34.44c6.88,8.82 18.53,10 26.57,2.35c5.26,-5 7.33,-11.44 7.38,-18.6c0.149,-5.531 -1.443,-10.972 -4.55,-15.55Zm-4.23,27.94c-5.48,8.1 -16,8.12 -21.52,0.07c-4.88,-7.13 -4.78,-18.43 0.21,-25.47c2.348,-3.503 6.298,-5.611 10.516,-5.611c4.111,0 7.974,2.002 10.344,5.361c2.89,3.9 4,8.38 3.93,13.52c0.126,4.309 -1.09,8.552 -3.48,12.14l0,-0.01Z" style="fill:rgb(141,104,169);fill-rule:nonzero;"/>        <path d="M261.3,115.52c-7.42,-10.46 -21.13,-11.06 -29.18,-1.19c-3.487,4.45 -5.429,9.918 -5.53,15.57c-0.144,5.335 1.181,10.607 3.83,15.24c7.2,12.12 22.59,12.83 30.78,1.41c6.18,-8.61 6.23,-22.4 0.1,-31.03Zm-4.59,28.54c-5.8,7.77 -16.35,7.28 -21.54,-1c-2.232,-3.728 -3.356,-8.016 -3.24,-12.36c-0.074,-4.71 1.375,-9.319 4.13,-13.14c2.391,-3.229 6.18,-5.137 10.197,-5.137c3.877,0 7.548,1.777 9.953,4.817c5.66,7 5.9,19.6 0.51,26.82l-0.01,0Z" style="fill:rgb(141,104,169);fill-rule:nonzero;"/>    </g></svg>