<?xml version="1.0" encoding="UTF-8" standalone="no"?><!DOCTYPE svg PUBLIC "-//W3C//DTD SVG 1.1//EN" "http://www.w3.org/Graphics/SVG/1.1/DTD/svg11.dtd"><svg width="100%" height="100%" viewBox="0 0 1024 512" version="1.1" xmlns="http://www.w3.org/2000/svg" xmlns:xlink="http://www.w3.org/1999/xlink" xml:space="preserve" style="fill-rule:evenodd;clip-rule:evenodd;stroke-linejoin:round;stroke-miterlimit:2;"><title>Upstone</title><desc></desc>    <g transform="matrix(3.80047,0,0,3.80047,-1321.05,-499.286)">        <g transform="matrix(1.47365,0,0,1.11631,309.032,-152.841)">            <g transform="matrix(40,0,0,40,85.1805,330.085)">                <path d="M0.171,-0.757l0.02,0l0,0.569c-0,0.025 -0,0.046 -0.001,0.063c-0.001,0.017 -0.002,0.032 -0.003,0.043c-0.001,0.011 -0.002,0.021 -0.004,0.028c-0.001,0.008 -0.003,0.015 -0.006,0.022c-0.006,0.017 -0.014,0.029 -0.025,0.035c-0.011,0.007 -0.025,0.01 -0.042,0.01c-0.017,-0 -0.031,-0.003 -0.042,-0.01c-0.011,-0.006 -0.019,-0.018 -0.025,-0.035c-0.003,-0.007 -0.005,-0.014 -0.006,-0.022c-0.002,-0.007 -0.004,-0.017 -0.005,-0.028c-0.001,-0.011 -0.002,-0.026 -0.003,-0.043c-0.001,-0.017 -0.001,-0.038 -0.001,-0.063l0,-0.569l0.02,0l0,0.569c0,0.025 0,0.045 0.001,0.061c0.001,0.016 0.002,0.029 0.003,0.04c0.001,0.011 0.002,0.02 0.004,0.027c0.002,0.007 0.004,0.014 0.006,0.021c0.004,0.012 0.01,0.02 0.018,0.025c0.007,0.005 0.017,0.007 0.03,0.007c0.013,-0 0.023,-0.002 0.031,-0.007c0.007,-0.005 0.013,-0.013 0.017,-0.025c0.002,-0.007 0.004,-0.014 0.006,-0.021c0.001,-0.007 0.003,-0.015 0.004,-0.026c0.001,-0.011 0.001,-0.024 0.002,-0.041c0.001,-0.016 0.001,-0.036 0.001,-0.061l0,-0.569Z" style="fill:rgb(61,97,169);fill-rule:nonzero;"/>            </g>            <g transform="matrix(40,0,0,40,104.369,330.085)">                <path d="M0.032,-0l0,-0.757l0.087,0c0.015,0 0.027,0.004 0.036,0.012c0.009,0.008 0.016,0.021 0.021,0.039c0.003,0.009 0.005,0.02 0.007,0.031c0.002,0.012 0.003,0.025 0.004,0.04c0.001,0.015 0.002,0.033 0.003,0.052c0.001,0.02 0.001,0.043 0.001,0.069c-0,0.043 -0.001,0.079 -0.003,0.109c-0.001,0.031 -0.004,0.056 -0.009,0.076c-0.005,0.023 -0.013,0.04 -0.022,0.051c-0.009,0.011 -0.023,0.016 -0.04,0.016l-0.065,-0l-0,0.262l-0.02,-0Zm0.085,-0.282c0.011,-0 0.02,-0.004 0.026,-0.012c0.007,-0.008 0.012,-0.021 0.016,-0.039c0.005,-0.02 0.008,-0.045 0.009,-0.075c0.002,-0.029 0.003,-0.065 0.003,-0.106c-0,-0.051 -0.001,-0.091 -0.004,-0.119c-0.002,-0.027 -0.005,-0.05 -0.01,-0.067c-0.004,-0.013 -0.009,-0.023 -0.015,-0.029c-0.005,-0.005 -0.013,-0.008 -0.023,-0.008l-0.067,-0l-0,0.455l0.065,-0Z" style="fill:rgb(61,97,169);fill-rule:nonzero;"/>            </g>            <g transform="matrix(40,0,0,40,125.052,330.085)">                <path d="M0.048,-0.253c-0.001,0.009 -0.002,0.021 -0.003,0.036c0,0.015 0,0.033 0,0.055c0,0.029 0.001,0.052 0.003,0.07c0.001,0.018 0.004,0.034 0.008,0.047c0.005,0.013 0.01,0.023 0.016,0.029c0.006,0.006 0.014,0.009 0.025,0.009c0.021,-0 0.036,-0.012 0.045,-0.035c0.005,-0.014 0.009,-0.032 0.011,-0.055c0.003,-0.022 0.004,-0.053 0.004,-0.093c-0,-0.026 -0,-0.048 -0.001,-0.065c-0.001,-0.017 -0.002,-0.031 -0.003,-0.041c-0.001,-0.012 -0.004,-0.021 -0.007,-0.028c-0.003,-0.007 -0.006,-0.013 -0.01,-0.019c-0.008,-0.012 -0.019,-0.023 -0.032,-0.032c-0.012,-0.01 -0.025,-0.021 -0.036,-0.032c-0.006,-0.006 -0.012,-0.012 -0.017,-0.018c-0.005,-0.007 -0.01,-0.015 -0.014,-0.024c-0.003,-0.006 -0.005,-0.012 -0.007,-0.019c-0.001,-0.007 -0.003,-0.017 -0.004,-0.028c-0.001,-0.011 -0.001,-0.026 -0.002,-0.043c0,-0.018 -0,-0.041 -0,-0.069c-0,-0.032 0.001,-0.058 0.003,-0.077c0.003,-0.02 0.007,-0.036 0.013,-0.049c0.011,-0.024 0.031,-0.036 0.058,-0.036c0.015,0 0.026,0.003 0.036,0.009c0.008,0.005 0.016,0.014 0.023,0.025c0.007,0.012 0.011,0.027 0.014,0.045c0.003,0.018 0.004,0.044 0.004,0.077c0,0.023 -0,0.042 -0.001,0.057c-0.001,0.015 -0.002,0.027 -0.003,0.035l-0.02,0c0.001,-0.008 0.002,-0.02 0.003,-0.035c0.001,-0.015 0.001,-0.034 0.001,-0.057c-0,-0.03 -0.001,-0.053 -0.004,-0.07c-0.003,-0.017 -0.007,-0.031 -0.012,-0.042c-0.009,-0.016 -0.022,-0.024 -0.041,-0.024c-0.019,0 -0.033,0.008 -0.04,0.024c-0.005,0.011 -0.009,0.026 -0.011,0.044c-0.002,0.018 -0.003,0.043 -0.003,0.074c0,0.028 0,0.051 0.001,0.068c-0,0.017 0,0.03 0.001,0.041c0.001,0.011 0.002,0.019 0.004,0.025c0.001,0.006 0.003,0.012 0.005,0.017c0.003,0.007 0.008,0.013 0.013,0.02c0.004,0.006 0.009,0.011 0.014,0.016c0.011,0.011 0.023,0.022 0.037,0.032c0.013,0.01 0.024,0.021 0.033,0.034c0.005,0.007 0.009,0.015 0.012,0.022c0.003,0.007 0.006,0.017 0.008,0.029c0.002,0.012 0.003,0.027 0.004,0.045c0.001,0.018 0.001,0.041 0.001,0.069c-0,0.041 -0.001,0.073 -0.004,0.097c-0.002,0.023 -0.006,0.043 -0.013,0.059c-0.007,0.015 -0.015,0.027 -0.025,0.035c-0.01,0.008 -0.023,0.012 -0.038,0.012c-0.017,0 -0.03,-0.004 -0.039,-0.012c-0.009,-0.008 -0.017,-0.021 -0.022,-0.04c-0.004,-0.013 -0.007,-0.029 -0.009,-0.048c-0.001,-0.019 -0.002,-0.044 -0.002,-0.075c0,-0.023 0,-0.041 0.001,-0.055c-0,-0.014 0.001,-0.026 0.002,-0.036l0.02,0Z" style="fill:rgb(1,1,1);fill-rule:nonzero;"/>            </g>            <g transform="matrix(40,0,0,40,144.822,330.085)">                <path d="M0.081,-0l0,-0.737l-0.07,0l0,-0.02l0.158,0l0,0.02l-0.068,0l0,0.737l-0.02,-0Z" style="fill:rgb(1,1,1);fill-rule:nonzero;"/>            </g>            <g transform="matrix(40,0,0,40,162.349,330.085)">                <path d="M0.041,-0.049c-0.003,-0.011 -0.005,-0.024 -0.007,-0.038c-0.002,-0.013 -0.004,-0.032 -0.005,-0.055c-0.001,-0.023 -0.001,-0.054 -0.002,-0.092c-0.001,-0.037 -0.001,-0.086 -0.001,-0.145c0,-0.059 0,-0.108 0.001,-0.145c0.001,-0.037 0.001,-0.068 0.002,-0.091c0.001,-0.023 0.003,-0.042 0.005,-0.055c0.002,-0.013 0.004,-0.026 0.007,-0.038c0.005,-0.023 0.013,-0.039 0.023,-0.048c0.01,-0.009 0.025,-0.014 0.044,-0.014c0.019,0 0.034,0.005 0.044,0.014c0.01,0.009 0.018,0.025 0.023,0.048c0.003,0.012 0.005,0.025 0.007,0.038c0.001,0.013 0.003,0.032 0.004,0.055c0.001,0.023 0.001,0.054 0.002,0.091c0.001,0.037 0.001,0.086 0.001,0.145c-0,0.059 -0,0.108 -0.001,0.146c-0.001,0.037 -0.002,0.068 -0.003,0.091c-0.001,0.023 -0.002,0.042 -0.004,0.056c-0.001,0.013 -0.003,0.026 -0.006,0.037c-0.005,0.023 -0.013,0.04 -0.023,0.049c-0.01,0.009 -0.025,0.013 -0.044,0.013c-0.019,0 -0.034,-0.004 -0.044,-0.013c-0.01,-0.009 -0.018,-0.026 -0.023,-0.049Zm0.114,-0.004c0.003,-0.011 0.005,-0.024 0.007,-0.037c0.001,-0.014 0.003,-0.032 0.004,-0.055c0.001,-0.023 0.001,-0.053 0.002,-0.091c0.001,-0.037 0.001,-0.084 0.001,-0.143c0,-0.059 -0,-0.106 -0.001,-0.143c0,-0.037 -0.001,-0.066 -0.002,-0.09c-0.001,-0.023 -0.002,-0.041 -0.004,-0.054c-0.001,-0.013 -0.003,-0.026 -0.006,-0.037c-0.003,-0.017 -0.009,-0.029 -0.016,-0.036c-0.008,-0.007 -0.019,-0.011 -0.032,-0.011c-0.013,0 -0.024,0.003 -0.031,0.01c-0.007,0.007 -0.012,0.019 -0.016,0.036c-0.003,0.011 -0.005,0.024 -0.007,0.037c-0.001,0.013 -0.003,0.031 -0.004,0.053c-0.001,0.023 -0.002,0.054 -0.003,0.091c-0.001,0.037 -0.001,0.085 -0.001,0.144c-0,0.059 0,0.108 0.001,0.145c0.001,0.037 0.001,0.068 0.002,0.091c0.001,0.023 0.003,0.042 0.004,0.055c0.002,0.013 0.004,0.024 0.007,0.035c0.004,0.017 0.01,0.029 0.017,0.036c0.007,0.007 0.018,0.01 0.031,0.01c0.013,0 0.024,-0.003 0.031,-0.01c0.007,-0.007 0.013,-0.019 0.016,-0.036Z" style="fill:rgb(1,1,1);fill-rule:nonzero;"/>            </g>            <g transform="matrix(40,0,0,40,182.289,330.085)">                <path d="M0.179,-0l-0.008,-0.379l-0.116,-0.344l-0.004,0l0,0.723l-0.02,0l0,-0.757l0.039,0l0.107,0.308c-0.001,-0.017 -0.002,-0.308 -0.002,-0.308l0.02,0l0,0.757l-0.016,0Z" style="fill:rgb(1,1,1);fill-rule:nonzero;"/>            </g>            <g transform="matrix(40,0,0,40,202.015,330.085)">                <path d="M0.032,-0l0,-0.757l0.134,0l0,0.02l-0.114,0l0,0.342l0.112,-0l0,0.02l-0.112,-0l0,0.355l0.113,-0l0,0.02l-0.133,-0Z" style="fill:rgb(1,1,1);fill-rule:nonzero;"/>            </g>        </g>        <g transform="matrix(0.229435,0,0,0.229435,341.272,115.99)">            <g transform="matrix(2.4854,0,0,2.4854,-280.604,1.23882)">                <circle cx="129.39" cy="143.644" r="4.465" style="fill:rgb(1,1,1);"/>            </g>            <g transform="matrix(2.4854,0,0,2.4854,-28.7429,1.23882)">                <circle cx="129.39" cy="143.644" r="4.465" style="fill:rgb(61,97,169);"/>            </g>            <g transform="matrix(1,0,0,1,-283.933,0)">                <path d="M499,540.4c19,-4.9 34.3,-18.6 40.2,-36.3c2.2,-6.4 2.3,-8 2.6,-61.5c0.3,-60.1 0,-65.2 -5.5,-75.9c-3.1,-6.3 -11.1,-14.8 -18.3,-19.7c-4.7,-3.1 -29.8,-17.6 -53.9,-30.9c-8.6,-4.8 -16.6,-12.6 -18,-17.7c-0.7,-2.6 -1.1,-21.6 -1.1,-56.6c0,-36.2 -0.3,-52.8 -1,-52.8c-2.3,0 -15.6,14.7 -18.2,20c-5.4,11.3 -5.8,14.8 -5.8,52.7c0,38.4 0.5,42.7 6.5,52.9c6.1,10.5 13.5,16 44.5,33.4c35.5,19.9 38.8,22.1 42.8,28.8l2.7,4.7l0.3,53.5c0.4,58.9 0.1,62.5 -5.1,69.7c-5.5,7.8 -17.8,13.3 -29.4,13.3c-4.7,0 -5,0.2 -7.1,3.9c-1.3,2.2 -5.4,6.9 -9.3,10.5l-7.1,6.6l2.8,1.1c7.7,2.9 26.2,3.1 37.4,0.3Z"/>            </g>            <g transform="matrix(1,0,0,1,-283.933,0)">                <path d="M431.1,540.4c18.5,-4 33.2,-14.8 40.5,-29.9l4.533,-8l0,-142.356c0,-0 -20.933,-11.144 -21.633,-11.144c-0.2,0 -0.5,33 -0.7,73.3c-0.3,72.1 -0.3,73.3 -2.4,77.7c-2.5,5.3 -9.5,12 -15.4,14.9c-6.2,3 -18.1,4.4 -26.9,3.1c-13.3,-1.9 -22.8,-8.4 -27.2,-18.7c-1.8,-4.3 -1.9,-319.3 -1.9,-319.3l-22.8,0c0,0 -0.015,298.474 0,309.224c0.01,5.918 -0.1,11.876 5.1,22.776c4.7,9.9 17.1,21.1 27.7,25c13.5,4.9 28.4,6.2 41.1,3.4Z" style="fill:rgb(61,97,169);"/>            </g>            <g transform="matrix(1,0,0,1,-283.933,0)">                <path d="M476,312.9c0.3,0.1 0,-133.4 0,-133.4l-21.5,0.4l-0.3,58.5l-0.2,58.6l3.8,3.8c3.1,3.1 16.1,11.7 18.2,12.1Z" style="fill:rgb(61,97,169);"/>            </g>            <g transform="matrix(1,0,0,1,-283.933,0)">                <path d="M430.1,507.8c5.8,-1.7 11.4,-7 13.3,-12.5c1.4,-4 1.6,-11.4 1.6,-53c0,-30.4 -0.4,-48.3 -1,-48.3c-0.5,0 -6.1,2.6 -12.5,5.7l-11.5,5.7l-0,44.2c-0,36.7 0.3,45.4 1.6,51c2.2,9.5 1.8,9.2 8.5,7.2Z" style="fill:rgb(1,1,1);"/>            </g>            <g transform="matrix(1,0,0,1,-283.933,0)">                <path d="M530.3,297.3l11.9,-5.8l-0.5,-34c-0.4,-36.7 -0.5,-37 -6.4,-49.1c-7,-14.3 -25.4,-26.4 -44,-28.8l-5.3,-0.7l0,24.8l4.5,0.6c6.6,1 14.8,5.2 19,9.8c7.1,7.9 7,7.1 7.3,50.2c0.2,21.3 0.6,38.7 1,38.7c0.4,0 6,-2.6 12.5,-5.7Z" style="fill:rgb(1,1,1);fill-rule:nonzero;"/>            </g>        </g>    </g></svg>