<?xml version="1.0" encoding="UTF-8" standalone="no"?><!DOCTYPE svg PUBLIC "-//W3C//DTD SVG 1.1//EN" "http://www.w3.org/Graphics/SVG/1.1/DTD/svg11.dtd"><svg width="100%" height="100%" viewBox="0 0 1024 512" version="1.1" xmlns="http://www.w3.org/2000/svg" xmlns:xlink="http://www.w3.org/1999/xlink" xml:space="preserve" style="fill-rule:evenodd;clip-rule:evenodd;stroke-linejoin:round;stroke-miterlimit:2;"><title>Wellesley &amp; Co</title><desc>Established in 2013, Wellesley is a leading alternative finance platform that enables investors to make healthy returns on their capital in the form of attractive interest rates. We’re proud to have paid over £30.3 million to investors to date. We offer investment opportunities in the form of bond products that are listed on the regulated stock exchange, Euronext Dublin</desc>    <g transform="matrix(6.00998,0,0,6.01466,259.122,0.360942)">        <g>            <path d="M20.711,65.001l2.122,0l-6.006,14.96l-0.467,0l-4.858,-12.112l-4.909,12.112l-0.457,0l-5.99,-14.96l2.144,0l4.096,10.269l4.122,-10.269l2.011,0l4.141,10.269l4.053,-10.269l-0.002,0Z" style="fill:rgb(11,0,60);fill-rule:nonzero;"/>            <path d="M23.659,74.003l4.925,0c-0.051,-0.776 -0.279,-1.371 -0.691,-1.79c-0.411,-0.42 -0.964,-0.63 -1.657,-0.63c-0.696,0 -1.265,0.21 -1.708,0.63c-0.444,0.419 -0.733,1.017 -0.866,1.79l-0.003,0Zm6.837,1.161l-6.882,0c0.051,0.938 0.364,1.684 0.94,2.239c0.577,0.555 1.323,0.832 2.24,0.832c1.275,0 2.454,-0.399 3.53,-1.196l0,1.899c-0.595,0.399 -1.185,0.683 -1.772,0.853c-0.587,0.17 -1.272,0.255 -2.059,0.255c-1.078,0 -1.949,-0.223 -2.616,-0.672c-0.667,-0.449 -1.201,-1.049 -1.602,-1.806c-0.401,-0.757 -0.6,-1.634 -0.6,-2.63c0,-1.493 0.422,-2.707 1.264,-3.642c0.842,-0.935 1.939,-1.402 3.286,-1.402c1.296,0 2.332,0.454 3.105,1.365c0.773,0.911 1.158,2.131 1.158,3.658l0,0.244l0.008,0.003Z" style="fill:rgb(11,0,60);fill-rule:nonzero;"/>            <rect x="32.706" y="65.001" width="1.936" height="14.896" style="fill:rgb(11,0,60);fill-rule:nonzero;"/>            <rect x="37.381" y="65.001" width="1.936" height="14.896" style="fill:rgb(11,0,60);fill-rule:nonzero;"/>            <path d="M43.687,74.003l4.925,0c-0.05,-0.776 -0.282,-1.371 -0.691,-1.79c-0.409,-0.42 -0.964,-0.63 -1.66,-0.63c-0.696,0 -1.264,0.21 -1.708,0.63c-0.443,0.419 -0.733,1.017 -0.866,1.79Zm6.84,1.161l-6.882,0c0.05,0.938 0.364,1.684 0.94,2.239c0.577,0.555 1.323,0.832 2.239,0.832c1.275,0 2.455,-0.399 3.531,-1.196l0,1.899c-0.595,0.399 -1.188,0.683 -1.772,0.853c-0.585,0.17 -1.273,0.255 -2.059,0.255c-1.078,0 -1.949,-0.223 -2.616,-0.672c-0.667,-0.449 -1.201,-1.049 -1.599,-1.806c-0.401,-0.757 -0.601,-1.634 -0.601,-2.63c0,-1.493 0.423,-2.707 1.265,-3.642c0.842,-0.935 1.939,-1.402 3.286,-1.402c1.298,0 2.332,0.454 3.105,1.365c0.773,0.911 1.161,2.131 1.161,3.658l0,0.244l0.002,0.003Z" style="fill:rgb(11,0,60);fill-rule:nonzero;"/>            <path d="M52.214,79.196l0,-2.09c0.544,0.385 1.105,0.696 1.676,0.932c0.571,0.236 1.052,0.356 1.442,0.356c0.404,0 0.752,-0.098 1.042,-0.298c0.289,-0.199 0.435,-0.435 0.435,-0.714c0,-0.284 -0.093,-0.521 -0.281,-0.709c-0.189,-0.189 -0.595,-0.46 -1.22,-0.816c-1.248,-0.696 -2.063,-1.293 -2.451,-1.787c-0.388,-0.495 -0.579,-1.034 -0.579,-1.615c0,-0.755 0.292,-1.368 0.876,-1.844c0.585,-0.475 1.339,-0.714 2.261,-0.714c0.956,0 1.939,0.271 2.945,0.81l0,1.92c-1.15,-0.696 -2.087,-1.044 -2.818,-1.044c-0.377,0 -0.68,0.08 -0.908,0.239c-0.229,0.16 -0.346,0.372 -0.346,0.635c0,0.229 0.104,0.446 0.314,0.651c0.21,0.205 0.576,0.454 1.1,0.746l0.69,0.394c1.631,0.924 2.447,1.947 2.447,3.07c0,0.805 -0.314,1.464 -0.941,1.979c-0.627,0.515 -1.434,0.773 -2.42,0.773c-0.581,0 -1.099,-0.061 -1.551,-0.186c-0.451,-0.125 -1.025,-0.353 -1.713,-0.688Z" style="fill:rgb(11,0,60);fill-rule:nonzero;"/>            <rect x="61.017" y="65.001" width="1.936" height="14.896" style="fill:rgb(11,0,60);fill-rule:nonzero;"/>            <path d="M67.32,74.003l4.925,0c-0.051,-0.776 -0.282,-1.371 -0.691,-1.79c-0.409,-0.42 -0.964,-0.63 -1.66,-0.63c-0.696,0 -1.264,0.21 -1.708,0.63c-0.444,0.419 -0.733,1.017 -0.866,1.79Zm6.84,1.161l-6.883,0c0.051,0.938 0.364,1.684 0.941,2.239c0.576,0.555 1.323,0.832 2.239,0.832c1.275,0 2.452,-0.399 3.53,-1.196l0,1.899c-0.595,0.399 -1.187,0.683 -1.772,0.853c-0.584,0.17 -1.272,0.255 -2.058,0.255c-1.079,0 -1.95,-0.223 -2.617,-0.672c-0.666,-0.449 -1.2,-1.049 -1.601,-1.806c-0.401,-0.757 -0.601,-1.634 -0.601,-2.63c0,-1.493 0.423,-2.707 1.265,-3.642c0.842,-0.935 1.939,-1.402 3.286,-1.402c1.298,0 2.332,0.454 3.105,1.365c0.773,0.911 1.161,2.131 1.161,3.658l0,0.244l0.005,0.003Z" style="fill:rgb(11,0,60);fill-rule:nonzero;"/>            <path d="M81.834,70.088l2.173,0l-6.933,14.811l-2.16,0l3.321,-7.108l-3.78,-7.703l2.204,0l2.643,5.541l2.532,-5.541Z" style="fill:rgb(11,0,60);fill-rule:nonzero;"/>        </g>        <path d="M66.412,2.508l0,-0.5l-48.419,0l0,0.499c0,12.124 0.303,19.869 1.007,25.681l-0.005,0l0.127,1.004l0.006,0c1.949,14.503 6.93,17.266 17.706,23.24c1.536,0.85 3.127,1.734 4.869,2.733l0.499,0.287l0.505,-0.287c1.737,-0.999 3.323,-1.883 4.861,-2.733c10.782,-5.972 15.76,-8.737 17.712,-23.24l0.061,-0.441l0.072,-0.563l-0.006,0c0.704,-5.814 1.007,-13.557 1.007,-25.681l-0.002,0Zm1.893,-2.401l0,2.401c0,10.214 -0.209,17.2 -0.682,22.637l-0.098,1.145l0.029,0l-0.611,4.805l-0.027,0l-0.156,0.866c-2.357,13.31 -8.014,16.447 -18.278,22.132c-1.66,0.919 -3.169,1.761 -4.84,2.717l-1.442,0.829l-1.437,-0.823c-1.767,-1.012 -3.387,-1.913 -4.843,-2.72c-10.269,-5.685 -15.924,-8.822 -18.277,-22.132l-0.157,-0.866l-0.026,0l-0.619,-4.805l0.037,0l-0.098,-1.145c-0.473,-5.443 -0.683,-12.424 -0.683,-22.637l0,-2.401l52.206,0l0.002,-0.003Z" style="fill:rgb(11,0,60);fill-rule:nonzero;"/>        <path d="M64.265,4.906l0,-0.457l-44.117,0l0,0.457c0,11.055 0.276,18.118 0.916,23.42l-0.003,0l0.117,0.917l0.003,0c1.777,13.225 6.314,15.746 16.134,21.191c1.4,0.776 2.85,1.581 4.436,2.494l0.454,0.261l0.46,-0.261c1.583,-0.911 3.028,-1.718 4.428,-2.494c9.825,-5.445 14.362,-7.966 16.139,-21.191l0.053,-0.401l0.067,-0.516l-0.003,0c0.64,-5.302 0.916,-12.365 0.916,-23.42Zm0.85,-1.498l0,2.114c0,8.997 -0.183,15.152 -0.6,19.941l-0.085,1.009l0.027,0l-0.537,4.234l-0.021,0l-0.138,0.765c-2.067,11.728 -7.034,14.49 -16.044,19.497c-1.456,0.81 -2.781,1.551 -4.247,2.393l-1.268,0.731l-1.261,-0.725c-1.551,-0.893 -2.973,-1.687 -4.25,-2.396c-9.013,-5.01 -13.975,-7.772 -16.044,-19.497l-0.138,-0.765l-0.021,0l-0.542,-4.234l0.034,0l-0.085,-1.01c-0.417,-4.794 -0.6,-10.943 -0.6,-19.94l0,-2.114l45.823,0l-0.003,-0.003Z" style="fill:rgb(11,0,60);fill-rule:nonzero;"/>        <path d="M56.161,13.935c-0.741,-0.779 -2.29,-1.18 -3.373,-1.087c0,0 0.789,-1.129 4.074,-1.238c1.461,-0.047 2.271,-0.815 3.297,-1.708l-0.059,-0.087c-2.765,0.874 -5.676,-1.578 -8.194,-0.274l0.005,-0.026c-1.729,-1.305 -3.055,-1.371 -4.542,-1.358c-0.144,0.872 -0.335,1.602 -0.542,2.269c1.828,-0.091 3.538,0.783 4.548,1.431l-0.325,1.557c-2.058,-1.182 -3.389,-1.147 -4.935,-0.887c-0.212,0.653 -0.401,1.328 -0.526,2.12c1.387,-0.234 2.63,-0.346 4.991,1.051l-0.005,0.027c0.013,0 0.029,-0.005 0.043,-0.005c0.01,0.005 0.018,0.01 0.029,0.018l0.005,-0.021c1.275,-0.165 2.353,-0.316 3.61,0.035c0.645,0.204 3.408,1.559 3.78,0.749l-0.029,-0.043c-0.76,0.003 -1.331,-1.981 -1.847,-2.521l-0.005,-0.002Z" style="fill:rgb(11,0,60);fill-rule:nonzero;"/>        <path d="M41.403,7.249l-0.903,2.579c1.224,0.89 3.371,0.762 4.106,0.887c0.303,-0.993 0.582,-1.915 0.787,-2.587c-1.026,-0.072 -2.564,-0.281 -3.993,-0.879l0.003,0Z" style="fill:rgb(11,0,60);fill-rule:nonzero;"/>        <path d="M38.683,13.879c2.16,0.829 3.469,1.044 4.651,1.028c0.207,-0.675 0.635,-1.658 0.887,-2.478c-2.08,-0.03 -3.304,-0.55 -4.494,-1.034l-1.041,2.484l-0.003,0Z" style="fill:rgb(11,0,60);fill-rule:nonzero;"/>        <path d="M34.895,21.359l0.117,-0.005c0.122,-0.008 0.25,-0.022 0.42,0.093c0.17,0.127 0.289,0.438 0.377,0.666l0.037,0.096c0.043,0.074 0.088,0.154 0.13,0.231c0.25,0.454 0.415,0.752 0.967,1.028c0.133,0.072 0.274,0.133 0.42,0.197c0.369,0.159 0.937,0.51 1.192,0.863l0.014,0.024l0.042,0.127c0.141,0.279 0.269,0.436 0.231,0.662l-0.008,0.047l-0.111,0.056c-0.274,0.261 -1.95,0.29 -2.505,0.29c-0.276,0 -0.518,-0.008 -0.632,-0.021c-0.51,-0.056 -0.789,-0.311 -1.06,-0.558c-0.157,-0.144 -0.303,-0.277 -0.494,-0.38c-0.093,-0.061 -0.215,-0.096 -0.401,-0.125l-0.12,-0.016l1.389,-3.272l-0.005,-0.003Zm-3.639,5.201c0.189,0.135 0.356,0.154 0.608,0.17l0.131,0.008l-0.776,1.83c-0.059,0.135 -0.005,0.244 0.029,0.297c0.061,0.093 0.17,0.157 0.266,0.157c0.087,0 0.151,-0.048 0.191,-0.143l0.882,-2.08l0.072,0.013c0.502,0.088 0.974,0.263 1.58,0.585c0.175,0.103 0.329,0.204 0.476,0.302c0.459,0.303 0.818,0.545 1.468,0.574l0.46,0.003c0.505,0 1.065,-0.024 1.392,-0.202l0.26,-0.141c0,0 -0.146,1.315 -0.133,1.756c0.048,1.623 0.245,2.584 0.683,3.267c0.21,-0.441 0.563,-0.847 1.001,-1.121c0.561,-0.345 1.18,-0.526 1.796,-0.526c0.231,0 0.46,0.024 0.683,0.075c0.225,-0.051 0.454,-0.075 0.685,-0.075c0.616,0 1.235,0.181 1.788,0.523c0.624,0.394 1.078,1.034 1.19,1.679c0.002,0.008 0.002,0.019 0.005,0.027c0.077,0.005 0.149,0.013 0.223,0.024l0,-0.008c0,-0.024 0.048,-0.011 0.074,-0.014c0.016,-0.151 0.048,-0.3 0.101,-0.44c0.146,-0.396 0.444,-0.638 0.664,-0.816c0.093,-0.074 0.218,-0.178 0.24,-0.231c0.031,-0.074 0.071,-0.143 0.124,-0.202c0.109,-0.547 0.33,-1.28 0.771,-2.21c0.417,-0.876 0.897,-1.376 1.551,-1.45c0.074,-0.008 0.149,-0.013 0.226,-0.013c0.672,0 1.508,0.34 1.843,1.288c0.09,0.271 0.059,0.903 0.027,1.514c-0.056,1.131 -0.117,2.292 0.385,2.42l0.034,0.01l0.176,-0.175l-0.014,-0.037c-0.023,-0.077 -0.039,-0.183 -0.05,-0.319l-0.013,-0.234l0.279,0.184c0.39,0.257 0.961,0.611 1.341,0.483c0.175,-0.058 0.303,-0.202 0.382,-0.428c0.085,-0.196 -0.079,-0.47 -0.27,-0.789c-0.229,-0.382 -0.399,-0.693 -0.317,-0.903c0.04,-0.101 0.141,-0.175 0.309,-0.223l0.063,-0.021l-0.093,-0.271c-1.081,-1.748 -2.186,-2.768 -3.362,-3.11c-0.657,-0.221 -1.22,-0.184 -1.687,0.101c-0.805,0.494 -2.064,2.969 -2.277,3.795c-0.09,0.354 -0.252,0.818 -0.35,1.22c-0.21,-1.172 -0.247,-2.091 -0.231,-2.503c0.077,-0.996 0.358,-1.915 0.94,-3.078c0.274,-0.508 1.081,-1.647 1.66,-0.465c0.239,0.489 0.069,-1.562 0.324,-2.069c0.162,-0.298 0.986,1.365 1.113,0.977c0.069,-0.21 -0.478,-2.749 -0.417,-2.9c0.04,-0.096 0.781,1.264 0.834,1.16c0.231,-0.465 -0.265,-2.21 -0.674,-2.682l1.067,1.083c0.319,-0.486 -0.672,-1.74 -0.672,-1.74c0,0 1.081,0.444 0.927,0.186c-0.276,-0.459 -1.02,-1.484 -1.272,-1.694c-0.263,-0.221 1.148,0.627 1.148,0.627c-0.051,-0.181 -1.43,-1.578 -1.828,-2.014c0.491,0.186 1.068,0.717 1.068,0.717c-0.207,-0.534 -1.195,-1.224 -2.306,-1.53c-1.009,-0.279 -0.101,-0.457 -0.547,-0.558l-1.169,0.163c-0.39,-0.046 -0.927,-0.107 -1.248,-0.107c-0.295,0 -0.635,0.213 -0.967,0.417c-0.234,0.146 -0.478,0.298 -0.709,0.372c-0.077,0.083 -0.152,0.168 -0.223,0.253c-0.255,0.292 -0.516,0.595 -0.943,0.727c-0.088,0.024 -0.184,0.035 -0.316,0.035c-0.056,0 -0.112,-0.003 -0.17,-0.003c-0.054,0 -0.109,-0.002 -0.16,-0.002c-0.095,0 -0.223,0.005 -0.311,0.05c-0.294,0.159 -0.475,0.343 -0.467,0.64c0.003,0.101 0.005,0.218 -0.005,0.34c-0.008,0.064 -0.019,0.13 -0.03,0.194c-0.042,0.271 -0.05,0.813 0.21,0.781l0.55,-0.255c0.295,0.043 1.413,0.045 1.522,0.372c0.016,0.045 0.027,0.135 -0.066,0.228c-0.04,0.053 -0.186,0.234 -1.727,0.239c-0.117,0.444 -0.226,1.143 -0.048,1.321c0.075,0.077 0.207,0.111 0.412,0.111c0.112,0 0.231,-0.011 0.348,-0.021c0.125,-0.011 0.25,-0.019 0.367,-0.019c0.146,0 0.358,0.014 0.51,0.133l0.026,0.032l0.053,0.125c0,0.319 -0.241,0.698 -1.384,0.698c-1.009,0 -2.321,-0.294 -2.677,-0.488c-0.614,-0.351 -1.891,-1.759 -2.112,-2.418c-0.048,-0.183 -0.032,-0.472 -0.013,-0.81c0.032,-0.573 0.074,-1.36 -0.258,-1.477l-0.093,-0.031l0.04,-0.091l4.478,-10.553c0.059,-0.136 0.008,-0.244 -0.029,-0.298c-0.061,-0.093 -0.17,-0.156 -0.268,-0.156c-0.085,0 -0.151,0.05 -0.191,0.146l-5.023,11.836l-0.085,-0.034c-0.093,-0.038 -0.189,-0.083 -0.279,-0.123c-0.136,-0.061 -0.268,-0.122 -0.375,-0.159l0.061,0.189l-0.095,0.023c-0.369,0.091 -0.59,0.221 -0.656,0.383c-0.045,0.112 -0.019,0.247 0.079,0.406l0.192,0.311l-0.569,-0.324c-0.074,0.043 -0.114,0.098 -0.119,0.165c-0.019,0.18 0.183,0.435 0.387,0.582l0.351,0.252l-0.595,-0.12c-0.011,0.006 -0.021,0.011 -0.032,0.016c0,0 -0.002,0.003 -0.005,0.003c0.093,0.119 0.167,0.234 0.244,0.348c0.125,0.186 0.242,0.361 0.399,0.499l0.053,0.045l-1.448,3.414l-0.079,-0.024c-0.274,-0.08 -0.447,-0.223 -0.526,-0.444l-0.083,0.021c-0.249,0.003 -0.611,0.261 -0.688,0.476c-0.029,0.085 -0.002,0.125 0.027,0.146l0.175,0.093l-0.082,0.165c-0.29,-0.128 -0.5,-0.128 -0.598,0.01c-0.093,0.13 -0.098,0.372 -0.013,0.659l0.143,0l0.019,0.183c-0.12,0.024 -0.268,0.075 -0.295,0.192c-0.032,0.138 0.112,0.366 0.332,0.531l0,-0.008Z" style="fill:rgb(11,0,60);fill-rule:nonzero;"/>        <path d="M51.882,44.883c-1.068,-0.386 -4.038,-1.22 -9.73,-1.22c-5.719,0 -8.686,0.84 -9.754,1.228c0.037,0.146 0.075,0.302 0.107,0.472l0.058,-0.018l0.037,0.026c0.685,0.524 4.773,0.917 9.507,0.917c4.829,0 8.925,-0.401 9.528,-0.933l0.037,-0.031l0.106,0.031c0.032,-0.167 0.069,-0.324 0.107,-0.472l-0.003,0Z" style="fill:rgb(11,0,60);fill-rule:nonzero;"/>        <path d="M52.591,41.177c-2.162,0 -5.791,-0.478 -9.499,-3.084c-0.207,0.176 -0.475,0.287 -0.773,0.287c-0.302,0 -0.576,-0.114 -0.789,-0.297c-4.789,3.37 -9.448,3.192 -10.986,3.012c1.071,1.519 1.753,3.233 1.753,3.233c3.477,-0.983 6.952,-1.294 10.022,-1.281c3.074,-0.013 6.548,0.298 10.025,1.281c0,0 0.685,-1.716 1.756,-3.236c-0.348,0.043 -0.861,0.085 -1.512,0.085l0.003,0Z" style="fill:rgb(11,0,60);fill-rule:nonzero;"/>        <path d="M57.186,36.919c-1.269,-1.177 -2.053,-0.929 -2.616,-0.17c-0.05,-1.469 -2.322,-1.174 -2.616,-0.098c0.095,-1.567 -2.691,-0.244 -2.691,0.93l-0.048,0.024c-0.343,0 -0.56,-0.072 -0.882,-0.221l0.024,-0.074c0.268,-0.319 0.141,-1.065 -0.149,-1.392c-0.427,-0.484 -0.68,-0.404 -1.147,-0.176c0.319,-0.927 -0.856,-1.931 -1.979,-1.221l-0.051,-0.051c0.54,-0.685 0.024,-1.588 -0.637,-2.005c-0.635,-0.391 -1.368,-0.513 -2.053,-0.319l-0.051,0c-0.685,-0.194 -1.418,-0.072 -2.053,0.319c-0.662,0.417 -1.174,1.32 -0.638,2.005l-0.047,0.051c-1.124,-0.71 -2.298,0.292 -1.979,1.221c-0.465,-0.228 -0.72,-0.308 -1.148,0.176c-0.287,0.324 -0.417,1.073 -0.149,1.392l0.024,0.074c-0.318,0.146 -0.536,0.221 -0.879,0.221l-0.048,-0.024c0,-1.174 -2.786,-2.497 -2.688,-0.93c-0.295,-1.076 -2.566,-1.371 -2.616,0.098c-0.563,-0.759 -1.344,-1.004 -2.617,0.17c-0.972,0.898 -1.174,2.178 0.391,1.931c0.858,0.186 1.652,0.901 2.324,1.751c0.645,0.114 5.775,0.866 11.085,-2.864c-0.091,-0.17 -0.147,-0.361 -0.147,-0.565c0,-0.667 0.542,-1.209 1.209,-1.209c0.667,0 1.209,0.542 1.209,1.209c0,0.212 -0.059,0.409 -0.154,0.581c5.437,3.807 10.659,2.925 11.097,2.842c0.675,-0.847 1.467,-1.559 2.322,-1.742c1.564,0.244 1.363,-1.033 0.39,-1.931l0.008,-0.003Z" style="fill:rgb(11,0,60);fill-rule:nonzero;"/>    </g></svg>