<?xml version="1.0" encoding="UTF-8" standalone="no"?><!DOCTYPE svg PUBLIC "-//W3C//DTD SVG 1.1//EN" "http://www.w3.org/Graphics/SVG/1.1/DTD/svg11.dtd"><svg width="100%" height="100%" viewBox="0 0 1024 512" version="1.1" xmlns="http://www.w3.org/2000/svg" xmlns:xlink="http://www.w3.org/1999/xlink" xml:space="preserve" style="fill-rule:evenodd;clip-rule:evenodd;stroke-linejoin:round;stroke-miterlimit:2;"><title>AgriLend</title><desc>AgriLend is the 1st crowdfunding platform for loans dedicated to the agricultural world.Our desire is to become a partner of actors in the agricultural world in need of financing by putting them in direct contact with individuals wishing to give meaning to their savings.</desc>    <g id="layer101" transform="matrix(1.02145,0,0,1.02145,-81.7014,-109.018)">        <path d="M514,605c-2.2,-2.2 -2.5,-4.6 -1,-8.4l1,-2.6l76.7,0c45.9,0 77.4,0.4 78.3,1c2.2,1.4 1.9,8.8 -0.5,10.6c-1.6,1.2 -14.1,1.4 -77.2,1.4c-74,0 -75.3,0 -77.3,-2Z" style="fill:rgb(97,171,127);fill-rule:nonzero;"/>        <path d="M309.5,556c-3.8,-1 -8.6,-2.4 -10.5,-3.2c-5.8,-2.2 -20,-10.8 -19.9,-12.1c0,-0.7 0.9,-2.5 2,-4.2c1,-1.6 2.3,-3.9 2.8,-5c2,-4.5 3.5,-4.7 8.2,-1.3c14.7,10.9 36.4,14.3 51.4,8.1c5.9,-2.5 13.3,-8.4 16.2,-12.9c4.4,-6.8 6.3,-15.2 6.3,-28.3l0,-8.4l-2.9,3.9c-5.1,7 -11.5,11.6 -21.4,15.2c-4.7,1.8 -8,2.2 -17.1,2.2c-12.4,0 -18,-1.5 -28,-7.3c-5.1,-2.9 -13.7,-11.4 -16.1,-15.7c-5.8,-10.6 -8.5,-20.8 -8.5,-32.5c0,-32.1 22.1,-55.4 52.5,-55.4c16.1,0 30,6.5 39.3,18.3l2.2,2.9l0,-10.2l0,-10.1l18.1,0l-0.3,58.8c-0.4,55.6 -0.5,59 -2.3,63.7c-7.3,18.4 -19.3,28.9 -38.5,33.6c-9.6,2.4 -24,2.3 -33.5,-0.1Zm29.3,-62.9c7.6,-2.5 9.5,-3.6 15.3,-8.9c15.5,-14.3 15.4,-44.1 -0.2,-58.7c-2.6,-2.5 -7.4,-5.6 -10.6,-7.1c-5.3,-2.3 -6.7,-2.5 -16.8,-2.2c-9.2,0.3 -11.8,0.8 -15.9,2.8c-6.5,3.2 -13.8,10.7 -17.3,17.8c-2.4,5 -2.8,7.1 -3.1,16.7c-0.3,9.4 -0.1,11.8 1.8,16.5c7.6,19.2 27.7,29.2 46.8,23.1Z" style="fill:rgb(97,171,127);fill-rule:nonzero;"/>        <path d="M114.7,515.4c-0.7,-0.7 0,-2.6 5.2,-13.7c2.2,-4.8 4.1,-8.9 4.1,-9.2c0,-0.2 2,-4.7 4.5,-9.9c2.5,-5.3 4.5,-9.8 4.5,-10.1c0,-0.3 1.4,-3.5 3.1,-7.2c1.7,-3.8 4.2,-9.3 5.6,-12.3c1.4,-3 3.3,-7.3 4.3,-9.5c1,-2.2 3.2,-7 4.9,-10.8c1.7,-3.7 3.1,-6.9 3.1,-7.1c0,-0.3 2,-4.8 4.5,-10c2.5,-5.3 4.5,-9.8 4.5,-10c0,-0.3 2,-4.8 4.5,-10c2.5,-5.3 4.5,-9.8 4.5,-10.1c0,-0.3 2,-4.7 4.4,-9.7c2.3,-5.1 4.6,-10.3 5,-11.5c0.7,-2.2 1.2,-2.3 10.6,-2.3c9.3,0 9.9,0.1 10.6,2.2c0.4,1.3 2,5.2 3.6,8.8c1.7,3.6 3.8,8.3 4.8,10.5c1,2.2 2.9,6.5 4.3,9.5c1.4,3 3.9,8.5 5.6,12.3c1.7,3.7 3.1,6.9 3.1,7.2c0,0.3 2,4.8 4.5,10.1c2.5,5.2 4.5,9.7 4.5,10c0,0.4 1,2.5 8.9,19.7c1.7,3.7 3.1,6.9 3.1,7.2c0,0.3 1.4,3.5 3.1,7.2c1.7,3.8 3.9,8.6 4.9,10.8c1,2.2 2.9,6.5 4.3,9.5c5.4,12.1 8,17.7 9.8,21.6c3.4,7.2 3.2,7.4 -7.9,7.4l-9.8,0l-3.9,-9.2c-2.1,-5.1 -5.1,-12.2 -6.7,-15.8c-1.6,-3.6 -3.7,-8.2 -4.6,-10.2l-1.7,-3.8l-40.8,0l-40.8,0l-2.5,5.8c-2.5,5.7 -3.8,8.6 -8.7,19.2c-1.4,3 -3.3,7.4 -4.2,9.8l-1.7,4.2l-9.2,0c-5.1,0 -9.5,-0.3 -9.9,-0.6Zm109.3,-57.3c0,-0.6 -1.7,-4.7 -3.9,-9.3c-2.1,-4.6 -5.6,-12.3 -7.7,-17.3c-2,-4.9 -4.1,-9.4 -4.5,-10c-0.4,-0.5 -2.5,-5.3 -4.7,-10.5c-2.2,-5.2 -5.9,-13.3 -8,-18c-3.8,-8 -4.1,-8.3 -5,-6c-2,5 -11,25.8 -13.5,31.1c-2.7,5.7 -15.3,34.8 -16.8,38.7l-0.9,2.2l32.5,0c19.6,0 32.5,-0.4 32.5,-0.9Z" style="fill:rgb(97,171,127);fill-rule:nonzero;"/>        <path d="M421.7,515.4c-0.4,-0.4 -0.7,-26.5 -0.7,-58.1l0,-57.3l19,0l0,21.3l3.7,-4.9c4.7,-6.1 7.5,-8.6 13.7,-12c4.9,-2.7 14.5,-5.3 19.9,-5.4l2.7,0l0,18.7l-7,0.7c-13.2,1.2 -23.2,8.2 -29.2,20.5l-3.3,6.6l-0.5,35l-0.5,35l-8.5,0.3c-4.7,0.1 -8.9,0 -9.3,-0.4Z" style="fill:rgb(97,171,127);fill-rule:nonzero;"/>        <path d="M502,458l0,-58l18,0l0,116l-9,0l-9,0l0,-58Z" style="fill:rgb(97,171,127);fill-rule:nonzero;"/>        <path d="M562.7,515.3c-0.4,-0.3 -0.7,-35 -0.7,-77l0,-76.3l19,0l0,136l67.1,0l-0.3,8.8l-0.3,8.7l-42.1,0.3c-23.1,0.1 -42.4,-0.1 -42.7,-0.5Z" style="fill:rgb(97,171,127);fill-rule:nonzero;"/>        <path d="M700.5,513.9c-11.8,-3.8 -22,-10.7 -28.4,-19.2c-8.5,-11.5 -11.1,-19.9 -11.1,-36.7c0,-12.4 1.2,-18.6 5.2,-27.5c7.6,-17 22.8,-27.7 43.4,-30.6c11.9,-1.6 25,0.3 34.9,5.2c8.3,4.1 16.7,12.9 20.8,21.9c3.6,7.8 6.6,22 6.7,31.3l0,6.7l-46.6,0l-46.7,0l0.6,3.4c1.6,10.2 11.6,23.1 21.2,27.5c15.7,7.1 37.6,4.1 49.5,-6.7c1.9,-1.8 3.9,-3.2 4.4,-3.2c1.2,0 9.6,9 9.6,10.3c0,1.9 -9.1,9.4 -15.2,12.5c-10.3,5.3 -18.7,7.2 -31.3,7.1c-7.8,-0.1 -12.7,-0.6 -17,-2Zm53.8,-69.1c-1.4,-10.7 -8.4,-20.5 -18,-25.4c-5.5,-2.7 -6.5,-2.9 -18.3,-2.9c-11.7,0 -12.9,0.2 -18.2,2.8c-10.2,5 -18.9,16.2 -20.5,26.3l-0.6,3.4l76.1,0l-0.5,-4.2Z" style="fill:rgb(97,171,127);fill-rule:nonzero;"/>        <path d="M800,458l0,-58l18,0l0.1,10.8c0,8.7 0.2,10.3 1.2,8.8c3.8,-6.1 14.8,-15.6 18.1,-15.6c0.6,0 1.7,-0.5 2.2,-1c1.4,-1.4 15.5,-4 21.7,-4c6.9,0 17.3,2.2 22.2,4.8c9.6,4.9 15.8,12.6 19.6,24.7c1.7,5.5 1.9,9.6 1.9,46.8l0,40.7l-9,0l-8.9,0l-0.3,-38.2c-0.3,-36.8 -0.4,-38.5 -2.5,-42.9c-4.6,-10 -11.9,-15.3 -22.8,-16.7c-15.4,-2 -29,3.3 -36.5,14.3c-6.3,9.1 -6.4,9.8 -7,48l-0.5,35l-8.7,0.3l-8.8,0.3l0,-58.1Z" style="fill:rgb(97,171,127);fill-rule:nonzero;"/>        <path d="M967.9,513.7c-23.9,-8.4 -37.9,-29.2 -37.9,-56.4c0,-14.9 5.6,-31 14.1,-40.6c4.2,-4.8 14.9,-12.7 17.3,-12.7c0.6,0 1.6,-0.4 2.2,-0.9c1.7,-1.7 14.4,-4.1 21.9,-4.1c16.5,0 30.6,6.1 40,17.3l3.5,4.2l0,-33.7l0,-33.8l19,0l-0.2,81.3l-0.3,81.2l-9,0l-9,0l-0.3,-10.2l-0.3,-10.2l-6.7,6.8c-5.4,5.3 -8.4,7.4 -14.7,10.2c-7.5,3.2 -8.8,3.4 -20.5,3.6c-10.9,0.3 -13.3,0 -19.1,-2Zm29.6,-15.1c8.8,-2 12.6,-3.9 18.9,-9.7c3.9,-3.5 6.7,-7.3 8.9,-11.8c2.8,-5.9 3.2,-7.7 3.5,-17.4c0.4,-12.3 -0.9,-17.6 -6.7,-26.5c-16.2,-25.3 -57.4,-22.1 -69.5,5.3c-1.3,2.9 -2.9,8.4 -3.6,12.4c-3.2,17.6 5.4,36.3 20,43.8c9.7,4.9 18.5,6.1 28.5,3.9Z" style="fill:rgb(97,171,127);fill-rule:nonzero;"/>        <path d="M503.3,377.1c-5.3,-4.9 -5.6,-12.2 -0.7,-18c2.3,-2.8 3.1,-3.1 8.4,-3.1c5.3,0 6.1,0.3 8.4,3.1c2.1,2.5 2.6,4.1 2.6,8.9c0,5.2 -0.3,6.1 -3.2,8.9c-2.6,2.6 -4,3.1 -7.8,3.1c-3.6,0 -5.2,-0.6 -7.7,-2.9Z" style="fill:rgb(97,171,127);fill-rule:nonzero;"/>        <g transform="matrix(1,0,0,1,-228.42,15.4922)">            <g transform="matrix(1,0,0,1,-111,4)">                <path d="M908.708,159.115l1.892,-5.815c1.2,-3 4,-8.6 6.2,-12.3l4,-6.9l8.4,-10.9l7.6,-7.3c4.2,-4.1 7.9,-7.6 8.2,-7.9c0.3,-0.3 2.5,-2.1 5,-4c2.5,-1.9 4.7,-3.7 5,-4.1c0.3,-0.3 4.3,-3.2 9,-6.3c7,-4.8 8.9,-5.7 11.5,-5.3c7,1.1 33.8,22.6 45.4,36.3c6.9,8 15.2,21.6 18.3,29.6c8.6,22.6 7.5,43.6 -3.5,66.8c-7.3,15.3 -14.6,25.2 -30.1,40.5c-14.9,14.8 -26.3,23.5 -31,23.5c-3.6,0 -3.2,0.3 -37.6,-31.8l-44,-41.5l0,-18.8l73.5,68.4l0.6,-82.8l-7.8,-7.4c-4.3,-4.1 -12.3,-11.8 -17.8,-17.2l-10.1,-9.7l-2.1,3.1c-2.6,3.8 -6.7,12.9 -8.1,17.9l-0.82,4.033l-11.672,-10.118Zm79.392,99.885c0.9,-0.8 3.4,-3.1 5.5,-5.1c15.6,-14.5 29.1,-34.7 34,-50.5c1,-3.2 2,-9.1 2.3,-13.1l0.6,-7.2l-2.9,2.7c-1.7,1.5 -8.4,7.9 -15,14.3c-6.7,6.3 -16.3,15.5 -21.3,20.4l-9.3,8.8l0,35l2.3,-1.9c1.2,-1 2.9,-2.6 3.8,-3.4Zm7.9,-62.7c3.6,-3.3 10.4,-9.9 15.2,-14.5c4.8,-4.5 10.6,-10 12.8,-12.1c3.4,-3.2 3.9,-4.2 3.4,-6.5c-0.9,-3.7 -7.8,-17.4 -8.7,-17.4c-0.5,0.1 -7,5.9 -14.5,13c-7.5,7.1 -15.6,14.8 -17.9,17l-4.3,4l0,29.6l3.7,-3.5c2.1,-1.8 6.7,-6.2 10.3,-9.6Zm0.8,-50.1l13.2,-12.7l-3.8,-4c-4.2,-4.5 -24.7,-21.4 -24.7,-21.4c0,0 0.9,50.9 1.3,50.9c0.4,0 6.7,-5.8 14,-12.8Zm-30.3,11.7l0,-49.2l-26.7,24.1c0,0 20.5,19.5 22.7,21.4l4,3.7Z" style="fill:rgb(156,208,172);fill-rule:nonzero;"/>            </g>            <path d="M811.1,243.5l10.474,9.525l-9.074,8.775c-9.9,9.7 -15.2,14.1 -26.4,22c-8.6,5.9 -12.6,6.6 -17.6,3c-28.6,-20.6 -43.3,-35.5 -53.5,-54.3c-9.3,-17.2 -12.3,-37.6 -8.1,-55.2c10.261,-43 44,-69.1 56.1,-78.3c10.3,-7.8 13.2,-8.3 20.1,-3.1c2.4,1.9 4.9,3.9 5.4,4.5c0.6,0.6 16,13.5 24.7,22l5,4.8l-8.4,10.9l-9.7,-8.8c-14.6,-13.2 -17,-15.3 -17.6,-15.3c-0.8,0 -0.6,36 0.3,36c0.4,0.1 73.7,63.4 73.7,63.4l-0.76,18.791l-73.74,-64.591l0,74.8c0,29.9 -0.7,28.1 7.7,21.1c2.6,-2.2 8.5,-7.6 13.1,-12l8.3,-8Zm-43.1,-0.5c0,-20.9 -0.2,-25 -1.4,-24.3c-0.7,0.4 -27,25.2 -27,25.2l7,7c3.8,3.9 9.5,9 12.7,11.3c3.1,2.3 6.4,5.8 7.2,5.8c1.3,0 1.5,-3.4 1.5,-25Zm-36.9,-10.9l37,-34.8l-0.3,-14.1l-0.3,-14.1l-5.5,5.1c-5.7,5.3 -36.3,34.2 -38.7,36.7c-1.9,1.8 0.4,9.2 5.5,17.4l2.3,3.8Zm-1.2,-47.1c13.4,-13 36.4,-34.5 37.2,-34.8c1.2,-0.5 1.2,-36.2 0,-36.2c-2,0 -23.2,21.9 -29.1,29.9c-10.5,14.4 -17.1,30.2 -18.4,44.1l-0.8,7.5l3.3,-3c1.7,-1.6 5.3,-5 7.8,-7.5Z" style="fill:rgb(97,171,127);fill-rule:nonzero;"/>        </g>    </g></svg>