<?xml version="1.0" encoding="UTF-8" standalone="no"?><!DOCTYPE svg PUBLIC "-//W3C//DTD SVG 1.1//EN" "http://www.w3.org/Graphics/SVG/1.1/DTD/svg11.dtd"><svg width="100%" height="100%" viewBox="0 0 1024 512" version="1.1" xmlns="http://www.w3.org/2000/svg" xmlns:xlink="http://www.w3.org/1999/xlink" xml:space="preserve" style="fill-rule:evenodd;clip-rule:evenodd;stroke-linejoin:round;stroke-miterlimit:2;"><title>Funding Circle</title><desc>At Funding Circle you lend directly to established small British businesses. They get the funds they need to grow, and you can earn attractive returns as they pay you back each month.</desc>    <g id="funding-circle-512x256.svg" transform="matrix(2.21736,0,0,2.21736,-55.6513,-27.8106)">        <path d="M26,119.46c0.332,2.031 2.102,3.538 4.16,3.54l60.35,0c2.304,-0.005 4.199,-1.896 4.21,-4.2l0,-60.4l0,-0.05l0,-0.06c-0.059,-2.27 -1.949,-4.102 -4.22,-4.09l-0.84,0.08c-33.847,2.491 -61.068,29.631 -63.66,63.47l0,1.71Z" style="fill:rgb(141,70,138);fill-rule:nonzero;"/>        <path d="M173.35,118.78c-0.016,2.305 -1.915,4.195 -4.22,4.2l-60.13,0c-0.057,0.002 -0.113,0.003 -0.17,0.003c-2.311,0 -4.215,-1.893 -4.23,-4.203l0,-0.23c2.189,-34.188 29.554,-61.815 63.72,-64.33l0.84,-0.08c2.269,-0.006 4.155,1.822 4.22,4.09l0,60.54l-0.03,0.01Z" style="fill:rgb(115,36,126);fill-rule:nonzero;"/>        <path d="M26,136.68c0.265,-2.091 2.062,-3.677 4.17,-3.68l60.35,0c0.003,0 0.007,0 0.01,0c2.31,0 4.21,1.9 4.21,4.21l0,0.23c-2.186,34.199 -29.563,61.834 -63.74,64.34l-0.84,0.07c-2.086,0 -3.872,-1.554 -4.16,-3.62l0,-61.55Z" style="fill:rgb(141,70,138);fill-rule:nonzero;"/>        <path d="M173.35,197.7c-0.059,2.27 -1.949,4.102 -4.22,4.09l-0.84,-0.07c-34.152,-2.512 -61.512,-30.117 -63.72,-64.29l0,-0.23c0,-2.31 1.9,-4.21 4.21,-4.21c0.003,0 0.007,0 0.01,0l60.35,0c2.302,0 4.199,1.888 4.21,4.19l0,60.47c0,0.05 0,0 0,0l0,0.05Z" style="fill:rgb(115,36,126);fill-rule:nonzero;"/>        <path d="M206.64,73.47l0,14.42l23.66,0l0,10.81l-23.66,0l0,24.25l-13.47,0l0,-60.34l39.83,0l0,10.86l-26.36,0Zm69.55,4.64l0,44.84l-12.14,0l-0.37,-4.72c-1.386,1.754 -3.159,3.164 -5.18,4.12c-2.171,0.986 -4.536,1.475 -6.92,1.43c-4.667,0 -8.333,-1.353 -11,-4.06c-2.667,-2.707 -4,-6.907 -4,-12.6l0,-29l12.93,0l0,29.08c-0.135,1.695 0.445,3.372 1.6,4.62c1.215,1.061 2.8,1.604 4.41,1.51c3.673,0 6.23,-1.27 7.67,-3.81l0,-31.41l13,0Zm43,3.23c2.473,2.707 3.71,7.14 3.71,13.3l0,28.31l-13,0l0,-28.39c0,-2.593 -0.547,-4.383 -1.64,-5.37c-1.093,-0.987 -2.8,-1.477 -5.12,-1.47c-2.806,-0.139 -5.466,1.303 -6.88,3.73l0,31.5l-12.84,0l0,-44.84l12.1,0l0.46,5.18c1.479,-1.91 3.388,-3.445 5.57,-4.48c2.266,-1.042 4.736,-1.564 7.23,-1.53c4.473,0 7.947,1.353 10.42,4.06l-0.01,0Zm50.34,-22l0,63.66l-11.63,0l-0.62,-4.85c-2.608,3.608 -6.829,5.715 -11.28,5.63c-3.372,0.087 -6.68,-0.939 -9.41,-2.92c-2.72,-2.067 -4.8,-4.861 -6,-8.06c-1.424,-3.744 -2.12,-7.725 -2.05,-11.73l0,-0.87c-0.079,-4.093 0.617,-8.165 2.05,-12c1.188,-3.188 3.272,-5.967 6,-8c2.772,-1.951 6.102,-2.955 9.49,-2.86c4.029,-0.074 7.878,1.699 10.44,4.81l0,-22.86l13,0l0.01,0.05Zm-15.81,52.95c1.231,-0.763 2.217,-1.863 2.84,-3.17l0,-17.12c-1.333,-2.847 -3.723,-4.27 -7.17,-4.27c-2.48,-0.148 -4.83,1.168 -6,3.36c-1.26,2.24 -1.89,5.28 -1.89,9.12l0,0.87c-0.154,3.105 0.472,6.199 1.82,9c1.169,2.188 3.526,3.488 6,3.31c1.543,0.049 3.07,-0.332 4.41,-1.1l-0.01,0Zm35.84,-50.48c1.273,1.258 1.99,2.975 1.99,4.765c0,1.79 -0.717,3.507 -1.99,4.765c-3.027,2.45 -7.393,2.45 -10.42,0c-2.603,-2.619 -2.603,-6.911 0,-9.53c3.028,-2.447 7.392,-2.447 10.42,0Zm-11.64,61.19l13,0l0,-44.89l-13,0l0,44.89Zm56.85,-41.61c2.473,2.707 3.71,7.14 3.71,13.3l0,28.31l-13,0l0,-28.44c0,-2.593 -0.547,-4.383 -1.64,-5.37c-1.093,-0.987 -2.8,-1.477 -5.12,-1.47c-2.806,-0.139 -5.466,1.303 -6.88,3.73l0,31.5l-12.84,0l0,-44.84l12.1,0l0.46,5.18c1.479,-1.91 3.388,-3.445 5.57,-4.48c2.266,-1.042 4.736,-1.564 7.23,-1.53c4.473,0 7.947,1.353 10.42,4.06l-0.01,0.05Zm51.23,-3.28l0,43.15c0.1,3.679 -0.858,7.31 -2.76,10.46c-1.862,2.935 -4.562,5.244 -7.75,6.63c-3.668,1.573 -7.63,2.343 -11.62,2.26c-3.182,-0.022 -6.334,-0.625 -9.3,-1.78c-2.859,-0.994 -5.41,-2.718 -7.4,-5l5.59,-7.92c1.302,1.439 2.88,2.603 4.64,3.42c1.859,0.855 3.884,1.285 5.93,1.26c3.093,0 5.49,-0.817 7.19,-2.45c1.783,-1.845 2.71,-4.359 2.55,-6.92l0,-2.07c-2.66,3.035 -6.535,4.737 -10.57,4.64c-3.441,0.073 -6.818,-0.95 -9.64,-2.92c-2.831,-2.051 -5.029,-4.859 -6.34,-8.1c-1.528,-3.705 -2.284,-7.683 -2.22,-11.69l0,-0.87c-0.084,-4.109 0.671,-8.193 2.22,-12c1.308,-3.238 3.515,-6.035 6.36,-8.06c2.854,-1.948 6.246,-2.955 9.7,-2.88c4.807,0 8.55,1.643 11.23,4.93l0.5,-4.1l11.69,0l0,0.01Zm-12.93,31.66l0,-18.48c-1.493,-2.373 -3.897,-3.56 -7.21,-3.56c-2.601,-0.097 -5.057,1.231 -6.4,3.46c-1.586,2.726 -2.356,5.85 -2.22,9l0,0.87c-0.132,3.097 0.624,6.169 2.18,8.85c1.334,2.214 3.778,3.528 6.36,3.42c3.333,0 5.763,-1.187 7.29,-3.56Zm-235.22,75.59c-2.062,3.232 -4.999,5.812 -8.47,7.44c-3.992,1.845 -8.354,2.751 -12.75,2.65c-4.735,0.124 -9.408,-1.105 -13.47,-3.54c-3.845,-2.433 -6.876,-5.962 -8.7,-10.13c-2.115,-4.915 -3.138,-10.231 -3,-15.58l0,-3.48c-0.122,-5.346 0.941,-10.653 3.11,-15.54c1.867,-4.179 4.92,-7.72 8.78,-10.18c3.996,-2.429 8.605,-3.664 13.28,-3.56c4.442,-0.123 8.85,0.824 12.85,2.76c3.43,1.715 6.31,4.359 8.31,7.63c2.022,3.402 3.233,7.224 3.54,11.17l-13.43,0c-0.22,-3.593 -1.187,-6.26 -2.9,-8c-1.713,-1.74 -4.503,-2.603 -8.37,-2.59c-3.953,0 -6.867,1.45 -8.74,4.35c-1.873,2.9 -2.813,7.513 -2.82,13.84l0,3.56c-0.092,3.515 0.292,7.027 1.14,10.44c0.544,2.31 1.834,4.377 3.67,5.88c1.979,1.36 4.352,2.032 6.75,1.91c3.62,0 6.333,-0.83 8.14,-2.49c1.807,-1.66 2.807,-4.217 3,-7.67l13.43,0c-0.164,3.927 -1.335,7.746 -3.4,11.09l0.05,0.04Zm21.6,-51.93c1.273,1.258 1.99,2.975 1.99,4.765c0,1.79 -0.717,3.507 -1.99,4.765c-1.435,1.267 -3.308,1.927 -5.22,1.84c-1.911,0.109 -3.791,-0.538 -5.23,-1.8c-2.608,-2.617 -2.608,-6.913 0,-9.53c3.028,-2.447 7.392,-2.447 10.42,0l0.03,-0.04Zm-11.65,61.2l13,0l0,-44.85l-13,0l0,44.85Zm47.59,-45.17l-0.16,12.54c-2.127,-0.22 -3.62,-0.33 -4.48,-0.33c-1.902,-0.073 -3.795,0.297 -5.53,1.08c-1.387,0.68 -2.494,1.822 -3.13,3.23l0,28.68l-12.93,0l0,-44.88l12.14,0l0.41,5.51c0.996,-1.889 2.442,-3.503 4.21,-4.7c1.695,-1.1 3.68,-1.671 5.7,-1.64c1.275,-0.037 2.548,0.131 3.77,0.5l0,0.01Zm42,29.34c0.047,3.063 -0.82,6.072 -2.49,8.64c-1.676,2.546 -4.013,4.589 -6.76,5.91c-6.726,3.086 -14.538,2.777 -21,-0.83c-3.084,-1.929 -5.522,-4.736 -7,-8.06c-1.617,-3.688 -2.416,-7.684 -2.34,-11.71l0,-1c-0.074,-4.04 0.728,-8.049 2.35,-11.75c1.476,-3.33 3.914,-6.145 7,-8.08c3.463,-2.047 7.44,-3.06 11.46,-2.92c3.389,-0.07 6.746,0.66 9.8,2.13c2.768,1.365 5.074,3.514 6.63,6.18c1.643,2.909 2.466,6.21 2.38,9.55l-12.14,0c0.059,-1.947 -0.596,-3.851 -1.84,-5.35c-1.307,-1.425 -3.19,-2.187 -5.12,-2.07c-2.927,0 -4.927,1.1 -6,3.3c-1.184,2.847 -1.727,5.92 -1.59,9l0,1c0,3.893 0.53,6.91 1.59,9.05c1.06,2.14 3.083,3.21 6.07,3.21c1.819,0.097 3.608,-0.505 5,-1.68c1.265,-1.163 1.963,-2.822 1.91,-4.54l12.15,0l-0.06,0.02Zm6.14,15.83l13,0l0,-63.63l-13,0l0,63.66l0,-0.03Zm61.1,-18.19l-28.1,0c0.375,2.431 1.593,4.655 3.44,6.28c1.934,1.582 4.383,2.4 6.88,2.3c2.058,0.026 4.1,-0.368 6,-1.16c1.84,-0.788 3.451,-2.03 4.68,-3.61l6.09,7.25c-1.803,2.429 -4.181,4.374 -6.92,5.66c-3.319,1.596 -6.968,2.384 -10.65,2.3c-4.204,0.096 -8.36,-0.915 -12.05,-2.93c-3.314,-1.836 -6.042,-4.572 -7.87,-7.89c-1.831,-3.353 -2.771,-7.12 -2.73,-10.94l0,-1.57c-0.072,-4.114 0.793,-8.19 2.53,-11.92c1.59,-3.374 4.113,-6.224 7.27,-8.21c6.882,-3.882 15.286,-4.007 22.28,-0.33c3.012,1.782 5.407,4.446 6.86,7.63c1.638,3.667 2.438,7.655 2.34,11.67l0,5.51l-0.05,-0.04Zm-12.63,-9.62c0.115,-1.994 -0.565,-3.955 -1.89,-5.45c-1.495,-1.415 -3.516,-2.141 -5.57,-2c-4.393,0 -7.06,2.817 -8,8.45l15.46,0l0,-1Z" style="fill:rgb(42,42,42);fill-rule:nonzero;"/>    </g></svg>