<?xml version="1.0" encoding="UTF-8" standalone="no"?><!DOCTYPE svg PUBLIC "-//W3C//DTD SVG 1.1//EN" "http://www.w3.org/Graphics/SVG/1.1/DTD/svg11.dtd"><svg width="100%" height="100%" viewBox="0 0 1024 512" version="1.1" xmlns="http://www.w3.org/2000/svg" xmlns:xlink="http://www.w3.org/1999/xlink" xml:space="preserve" style="fill-rule:evenodd;clip-rule:evenodd;stroke-linejoin:round;stroke-miterlimit:2;"><title>Finx</title><desc>Finx examine and connect borrowers seeking loans with investors offering loans and enable us to conclude, draw on, repay and recover these loans.</desc>    <g transform="matrix(45.9403,0,0,45.9403,-3014.64,-176.646)">        <g transform="matrix(0.15461,0,0,0.15461,65.4323,4.1027)">            <path d="M8.447,22.501l0,-0.945c0,-5.23 1.349,-12.07 3.986,-14.631c2.62,-2.546 6.575,-3.878 12.027,-3.878c1.609,0 3.3,0.127 4.455,0.333c0.716,0.128 1.237,0.75 1.237,1.477l0,6.093c0,0.428 -0.183,0.835 -0.502,1.12c-0.32,0.284 -0.745,0.419 -1.17,0.37c-0.961,-0.111 -2.366,-0.184 -3.437,-0.184c-2.391,0 -4.674,0.091 -5.124,1.533c-1.068,2.491 -0.55,8.712 -0.55,8.712l25.029,0c0.829,0 1.5,0.672 1.5,1.5l0,40.204c0,0.829 -0.671,1.5 -1.5,1.5l-7.062,0c-0.829,0 -1.5,-0.671 -1.5,-1.5l0,-32.495l-16.467,0l0,32.495c0,0.829 -0.672,1.5 -1.5,1.5l-7.922,0c-0.829,0 -1.5,-0.671 -1.5,-1.5l0,-32.495l-5.447,0c-0.828,0 -1.5,-0.671 -1.5,-1.5l0,-6.209c0,-0.828 0.672,-1.5 1.5,-1.5l5.447,0Zm26.263,-11.715c0,3.441 2.665,6.118 6.157,6.118c3.492,0 6.157,-2.677 6.157,-6.118c0,-3.489 -2.668,-6.157 -6.157,-6.157c-3.489,0 -6.157,2.668 -6.157,6.157Z" style="fill:rgb(4,7,7);fill-rule:nonzero;"/>        </g>        <g transform="matrix(0.15461,0,0,0.15461,65.4323,4.1027)">            <path d="M67.225,26.09c2.95,-2.711 5.981,-4.52 10.539,-4.52c5.401,0 9.803,1.766 12.869,4.869c3.059,3.097 4.813,7.551 4.813,13.046l0,24.72c0,0.829 -0.671,1.5 -1.5,1.5l-7.062,0c-0.829,0 -2.5,-0.671 -2.5,-1.5l0,-24.332c0,-2.754 -0.79,-5.023 -2.33,-6.588c-1.537,-1.562 -2.794,-2.39 -5.61,-2.39c-5.37,0 -9.219,4.767 -9.219,10.919l0,22.391c0,0.829 -0.672,1.5 -1.5,1.5l-8.063,0c-0.829,0 -1.5,-0.671 -1.5,-1.5l0,-40.204c0,-0.828 0.671,-1.5 1.5,-1.5l8.063,0c0.828,0 1.5,0.672 1.5,1.5l0,2.089Z" style="fill:rgb(4,7,7);fill-rule:nonzero;"/>        </g>        <g transform="matrix(0.15461,0,0,0.15461,65.4323,4.1027)">            <path d="M113.054,43.664l-13.166,-18.803c-0.321,-0.458 -0.36,-1.057 -0.102,-1.553c0.259,-0.496 0.771,-0.807 1.331,-0.807l7.878,0c0.491,0 0.951,0.24 1.231,0.644l11.13,15.13l12.13,-15.13c0.281,-0.404 0.741,-0.644 1.232,-0.644l7.878,0c0.559,0 1.072,0.311 1.33,0.807c0.259,0.496 0.219,1.095 -0.102,1.553l-13.165,18.803l14.163,19.665c0.329,0.457 0.374,1.059 0.118,1.56c-0.257,0.501 -0.772,0.816 -1.335,0.816l-7.878,0c-0.482,0 -0.935,-0.231 -1.216,-0.622l-13.155,-16.07l-12.154,16.07c-0.282,0.391 -0.734,0.622 -1.216,0.622l-7.878,0c-0.563,0 -1.079,-0.315 -1.335,-0.816c-0.257,-0.501 -0.211,-1.103 0.118,-1.56l14.163,-19.665Z" style="fill:rgb(27,155,215);fill-rule:nonzero;"/>        </g>    </g></svg>