<?xml version="1.0" encoding="UTF-8" standalone="no"?><!DOCTYPE svg PUBLIC "-//W3C//DTD SVG 1.1//EN" "http://www.w3.org/Graphics/SVG/1.1/DTD/svg11.dtd"><svg width="100%" height="100%" viewBox="0 0 1024 512" version="1.1" xmlns="http://www.w3.org/2000/svg" xmlns:xlink="http://www.w3.org/1999/xlink" xml:space="preserve" style="fill-rule:evenodd;clip-rule:evenodd;stroke-linejoin:round;stroke-miterlimit:2;"><title>Fixura</title><desc>The companies that offer peer-to-peer loans have based their business concept upon an ancient principle: that people lend money to each other. In English this is called either P2P lending or peer-to-peer lending. With the help of state-of-the-art technique it is today much easier to connect people who need to borrow money with people who want to lend money than it was before.</desc>    <g id="g12" transform="matrix(0.234724,0,0,-0.234724,-153.359,487.303)">        <clipPath id="_clip1">            <path id="path28" d="M4983.8,924.488l-335.16,221.492l0,-322.578l314.35,-207.738c19.04,-12.578 44.42,1.074 44.42,23.895l0,241.015c0,17.676 -8.87,34.168 -23.61,43.914Z"/>        </clipPath>        <g clip-path="url(#_clip1)">            <path d="M4983.8,924.488l-335.16,221.492l0,-322.578l314.35,-207.738c19.04,-12.578 44.42,1.074 44.42,23.895l0,241.015c0,17.676 -8.87,34.168 -23.61,43.914" style="fill:url(#_Linear2);fill-rule:nonzero;"/>        </g>        <clipPath id="_clip3">            <path id="path44" d="M4307.54,920.496l341.19,225.484l0,-322.578l-319.25,-210.976c-16.94,-11.192 -39.52,0.953 -39.52,21.258l0,254.129c0,13.152 6.6,25.429 17.58,32.683Z"/>        </clipPath>        <g clip-path="url(#_clip3)">            <path d="M4307.54,920.496l341.19,225.484l0,-322.578l-319.25,-210.976c-16.94,-11.192 -39.52,0.953 -39.52,21.258l0,254.129c0,13.152 6.6,25.429 17.58,32.683" style="fill:url(#_Linear4);fill-rule:nonzero;"/>        </g>        <path id="path46" d="M672.125,706.625c6.828,-6.715 15.008,-10.066 24.523,-10.066l68.809,0c9.516,0 17.625,3.351 24.336,10.066c6.711,6.707 10.066,15.063 10.066,25.07l0,153.719l259.491,0c9.52,0 17.63,3.352 24.34,10.066c6.71,6.708 10.06,14.825 10.06,24.34l0,34.77c0,9.269 -3.35,17.32 -10.06,24.156c-6.71,6.828 -14.82,10.246 -24.34,10.246l-259.491,0l0,128.828l318.781,0c9.52,0 17.63,3.36 24.34,10.07c6.71,6.71 10.07,14.82 10.07,24.34l0,34.4c0,9.52 -3.36,17.69 -10.07,24.52c-6.71,6.83 -14.82,10.25 -24.34,10.25l-421.992,0c-9.515,0 -17.695,-3.29 -24.523,-9.88c-6.832,-6.59 -10.246,-14.64 -10.246,-24.16l0,-455.665c0,-10.007 3.414,-18.363 10.246,-25.07Zm610.795,-0.367c6.83,-6.465 15.01,-9.699 24.52,-9.699l68.08,0c9.51,0 17.75,3.351 24.7,10.066c6.96,6.707 10.43,14.824 10.43,24.34l0,455.665c0,9.52 -3.35,17.69 -10.06,24.52c-6.71,6.83 -15.07,10.25 -25.07,10.25l-68.08,0c-9.51,0 -17.69,-3.42 -24.52,-10.25c-6.83,-6.83 -10.25,-15 -10.25,-24.52l0,-456.4c0,-9.515 3.42,-17.507 10.25,-23.972Zm331.18,-9.699c24.4,0 45.63,11.468 63.69,34.406l111.63,142.371l111.63,-142.371c18.05,-22.938 39.28,-34.406 63.68,-34.406l77.96,0c10,0 16.34,3.535 19.03,10.617c0.97,1.703 1.46,4.512 1.46,8.418c0,3.898 -2.56,9.023 -7.68,15.371l-184.46,235.336l173.84,220.329c5.13,6.59 7.69,12.57 7.69,17.94c0,11.22 -6.71,16.83 -20.13,16.83l-78.69,0c-24.65,-0.24 -46,-11.84 -64.05,-34.77l-100.28,-127.36l-100.29,127.36c-18.3,23.18 -39.65,34.77 -64.05,34.77l-78.69,0c-13.42,0 -20.13,-5.61 -20.13,-16.83c0,-5.62 2.56,-11.6 7.69,-17.94l173.85,-220.329l-184.46,-235.336c-5.13,-6.59 -7.69,-12.57 -7.69,-17.934c1.46,-10.98 8.29,-16.472 20.49,-16.472l77.96,0Zm590.15,52.156c39.16,-36.727 96.56,-55.082 172.2,-55.082l65.88,0c75.39,0 132.73,18.355 172.02,55.082c39.28,36.719 58.92,88.508 58.92,155.367l0,282.548c0,9.52 -3.42,17.69 -10.25,24.52c-6.83,6.83 -15.25,10.25 -25.25,10.25l-68.07,0c-9.52,0 -17.63,-3.42 -24.34,-10.25c-6.72,-6.83 -10.07,-15 -10.07,-24.52l0,-283.282c0,-35.868 -7.87,-62.582 -23.61,-80.153c-15.73,-17.566 -40.07,-26.351 -73.01,-26.351l-58.56,0c-32.94,0 -57.28,8.785 -73.02,26.351c-15.73,17.571 -23.61,44.285 -23.61,80.153l0,283.282c0,9.52 -3.41,17.69 -10.24,24.52c-6.84,6.83 -14.89,10.25 -24.16,10.25l-68.44,0c-10.01,0 -18.36,-3.42 -25.07,-10.25c-6.71,-6.83 -10.07,-15 -10.07,-24.52l0,-282.548c0,-66.859 19.59,-118.648 58.75,-155.367Zm1135.48,-17.75l-66.62,105.773c-16.1,24.887 -30.37,43.856 -42.82,56.914c-12.44,13.047 -25.98,22.262 -40.62,27.633c91.98,18.051 137.98,62.582 137.98,133.585c0,51 -17.88,91.5 -53.62,121.51c-35.75,30.01 -81.56,45.02 -137.43,45.02l-301.95,0c-9.52,0 -17.57,-3.42 -24.16,-10.25c-6.58,-6.83 -9.88,-15 -9.88,-24.52l0,-455.665c0,-9.516 3.41,-17.633 10.25,-24.34c6.83,-6.715 15,-10.066 24.52,-10.066l68.81,0c9.51,0 17.62,3.351 24.34,10.066c6.7,6.707 10.06,14.824 10.06,24.34l0,157.379l89.3,0c36.36,0 67.35,-20.012 92.97,-60.024l62.22,-97.355c5.85,-9.516 14.33,-17.633 25.44,-24.34c11.1,-6.715 21.28,-10.066 30.56,-10.066l87.84,0c12.44,0 18.66,5.246 18.66,15.738c0,5.613 -1.95,11.832 -5.85,18.668Zm-401.14,386.855l155.92,0c25.13,0 47.27,-5 66.43,-15c19.15,-10.01 28.73,-25.99 28.73,-47.95c0,-21.96 -9.58,-37.94 -28.73,-47.94c-19.16,-10.012 -41.3,-15.008 -66.43,-15.008l-155.92,0l0,125.898Zm483.25,-398.566c-0.13,-4.152 1.88,-8.969 6.04,-14.457c4.14,-5.492 10.97,-8.238 20.49,-8.238l72.1,0c9.52,0 18.54,3.234 27.08,9.699c8.54,6.465 14.03,14.699 16.47,24.707l24.53,92.23l260.22,0l0,-92.23c0,-10.008 3.23,-18.242 9.7,-24.707c6.46,-6.465 14.7,-9.699 24.71,-9.699l68.8,0c9.52,0 17.69,3.234 24.52,9.699c6.83,6.465 10.25,14.457 10.25,23.972l0,457.13c0,9.03 -2.99,16.96 -8.96,23.79c-5.99,6.83 -13.49,10.25 -22.51,10.25l-197.28,0c-137.12,-0.24 -218.13,-47.82 -243.02,-142.74l-91.86,-348.43c-0.74,-3.171 -1.17,-6.832 -1.28,-10.976l0,0Zm226,325.006c6.09,22.44 17.87,40.31 35.32,53.62c17.44,13.29 37.88,19.94 61.3,19.94l104.31,0l0,-191.047l-233.14,0l32.21,117.487" style="fill:rgb(41,61,155);fill-rule:nonzero;"/>        <path id="path48" d="M4986.85,1046.89l-338.21,-223.507l0,322.577l321.95,212.76c15.78,10.43 36.82,-0.89 36.82,-19.8l0,-253.79c0,-15.4 -7.72,-29.75 -20.56,-38.24" style="fill:rgb(41,61,155);fill-rule:nonzero;"/>        <path id="path50" d="M4308.65,1048.13l340.08,-224.747l0,322.577l-317.08,209.54c-17.87,11.8 -41.69,-1.01 -41.69,-22.42l0,-250.2c0,-13.99 7.02,-27.04 18.69,-34.75" style="fill:rgb(145,143,144);fill-rule:nonzero;"/>    </g>    <defs>        <linearGradient id="_Linear2" x1="0" y1="0" x2="1" y2="0" gradientUnits="userSpaceOnUse" gradientTransform="matrix(-358.785,4.39385e-14,-4.39385e-14,-358.785,5007.1,840.171)"><stop offset="0" style="stop-color:rgb(41,62,155);stop-opacity:1"/><stop offset="1" style="stop-color:rgb(25,19,52);stop-opacity:1"/></linearGradient>        <linearGradient id="_Linear4" x1="0" y1="0" x2="1" y2="0" gradientUnits="userSpaceOnUse" gradientTransform="matrix(358.768,0,0,358.768,4289.96,608.163)"><stop offset="0" style="stop-color:rgb(145,143,144);stop-opacity:1"/><stop offset="1" style="stop-color:rgb(70,67,68);stop-opacity:1"/></linearGradient>    </defs></svg>