<?xml version="1.0" encoding="UTF-8" standalone="no"?><!DOCTYPE svg PUBLIC "-//W3C//DTD SVG 1.1//EN" "http://www.w3.org/Graphics/SVG/1.1/DTD/svg11.dtd"><svg width="100%" height="100%" viewBox="0 0 1024 512" version="1.1" xmlns="http://www.w3.org/2000/svg" xmlns:xlink="http://www.w3.org/1999/xlink" xml:space="preserve" style="fill-rule:evenodd;clip-rule:evenodd;stroke-linejoin:round;stroke-miterlimit:2;"><title>FerratumP2P</title><desc>FerratumP2P is a platform which allows you to invest in business and consumer loans quickly and easily.Our platform offers an opportunity to invest in business and consumer loans quickly and easily. We pride ourselves on ease of use, speed, convenience, and transparency.</desc>    <g id="Layer_2_1_" transform="matrix(0.723032,0,0,0.723032,2,171.767)">        <g id="Layer_1-2_1_">            <path d="M122.491,0.152c61.526,3.128 110.509,54.061 110.509,116.348c-0.1,64.3 -52.2,116.5 -116.5,116.5c-2.3,0 -4.7,-0.1 -7,-0.2c-0.6,0 -1.3,-0.1 -1.9,-0.1c-1.8,-0.1 -3.5,-0.3 -5.3,-0.5l-1.8,-0.2c-2,-0.3 -4.1,-0.6 -6.1,-1l-0.8,-0.1c-2.3,-0.5 -4.6,-1 -6.8,-1.6c-0.5,-0.1 -1,-0.3 -1.5,-0.4c-1.7,-0.5 -3.3,-1 -4.9,-1.5c-0.8,-0.3 -1.6,-0.5 -2.4,-0.8l-3.9,-1.5c-0.9,-0.4 -1.8,-0.7 -2.7,-1.1c-1.8,-0.7 -3.5,-1.5 -5.2,-2.4c-1.3,-0.6 -2.6,-1.3 -3.8,-2l-1.8,-0.9c-0.6,-0.3 -1.4,-0.7 -2.1,-1.1c0,0 -13.2,-8.7 -19.1,-13.9l2,-0.2c6.5,-0.8 16.5,-2.1 25.5,-6.8l4.5,2.7l1.1,0.6c3.2,1.7 6.6,3.2 10,4.6c0.9,0.4 1.9,0.7 2.8,1.1c0.7,0.3 1.4,0.5 2.2,0.7c1.2,0.4 2.5,0.8 3.8,1.1l1.4,0.4c1.8,0.5 3.6,0.9 5.5,1.3l0.8,0.1c1.6,0.3 3.2,0.6 4.8,0.8l1.5,0.2c1.4,0.2 2.8,0.3 4.2,0.4l1.6,0.1c1.9,0.1 3.8,0.2 5.7,0.2c52.1,0 94.3,-42.3 94.2,-94.4c-0.1,-52.1 -42.3,-94.3 -94.4,-94.2c-52.1,0 -94.3,42.3 -94.2,94.3c0,2.5 0.1,5 0.3,7.5c0,0.3 0,0.7 0.1,1c0.2,2.5 0.6,4.9 1,7.4c0,0.2 0.1,0.4 0.1,0.7c1.4,7.6 3.7,15.1 6.9,22.1c0.2,0.4 0.4,0.8 0.5,1.2c0.9,2 1.9,3.9 3,5.9c0.4,0.6 0.7,1.3 1.1,1.9c0.4,0.6 1,1.5 1.4,2.3c1,1.6 2,3.2 3.1,4.7l0.8,0c2.5,-0.1 5,-0.5 7.4,-1.4c3.1,-1.2 5.8,-3.2 6.4,-6.9l0.8,-3.4l2.6,-13.3l6,-30.9l-10.7,0l4.5,-22.3l10.4,0l3.4,-15.9c5,-28 30.3,-31.6 43.2,-31.6c3.5,0 7,0.1 10.4,0.5l-5,24.1c-1.4,-0.2 -2.9,-0.3 -4.3,-0.3c-5.6,0 -14.7,1 -16,8.3l-3.3,14.9l27.8,0c-0.3,0.2 -0.6,0.3 -0.9,0.5c-0.3,0.2 -0.4,0.2 -0.7,0.3c-0.3,0.1 -0.3,0.2 -0.5,0.3c-1,0.6 -2,1.2 -3,1.9c-0.2,0.1 -0.3,0.2 -0.5,0.3l-0.2,0.2c-1.5,1.1 -3,2.2 -4.4,3.5l-0.5,0.4c-1.2,1.1 -2.3,2.3 -3.4,3.5c-0.2,0.2 -0.4,0.5 -0.7,0.7c-1.1,1.3 -2.1,2.7 -3.1,4.1c-0.3,0.4 -0.5,0.8 -0.8,1.2l-2.1,3.6l-0.8,1.6l-10.5,0l-6.7,35.8l-3.4,15.9c-0.5,3.2 -1.5,6.3 -2.8,9.3c-4.8,10.9 -13.6,16.2 -22.4,18.9c-2.1,0.7 -4.3,1.3 -6.5,1.7c-1.1,0.2 -2.1,0.4 -3.1,0.6c-3.1,0.5 -5.9,0.8 -8.3,1.1c-0.2,0 -1.4,0.1 -2.5,0.2l-2.1,0.1l-1.7,-1.8c-2,-2.1 -4,-4.4 -5.9,-6.6c-4.8,-5.9 -9.1,-12.2 -12.7,-18.9l-0.1,-0.2c-0.7,-1.2 -1.3,-2.4 -1.8,-3.6c-0.3,-0.6 -0.6,-1.2 -0.8,-1.7l-1.2,-2.7c-0.4,-0.9 -0.7,-1.7 -1.1,-2.5c-0.2,-0.6 -0.5,-1.2 -0.7,-1.8c-2.2,-5.6 -4,-11.4 -5.3,-17.2c-0.1,-0.3 -0.1,-0.5 -0.2,-0.8c-0.3,-1.3 -0.5,-2.5 -0.8,-3.8c-0.1,-0.5 -0.2,-1.1 -0.3,-1.6c-0.2,-1.1 -0.4,-2.2 -0.5,-3.4c-0.1,-0.7 -0.2,-1.5 -0.3,-2.2c-0.1,-1 -0.2,-2 -0.3,-2.9c-0.1,-0.9 -0.2,-2 -0.2,-3.1c-0.1,-0.8 -0.1,-1.5 -0.2,-2.3c-0.3,-1.7 -0.3,-3.5 -0.3,-5.3c0,-64.4 52.2,-116.5 116.5,-116.5l5.991,0.152Z" style="fill:rgb(251,145,21);"/>            <g transform="matrix(1.54508,0,0,1.54508,7.56446e-16,-127.003)">                <path d="M94.846,142.26c0.788,0 1.577,0.004 2.366,0.065c2.265,0.129 4.466,0.582 6.602,1.294c3.624,1.165 6.795,3.56 8.866,6.796c1.554,2.395 2.46,5.113 2.783,7.961c0.13,1.035 0.195,2.071 0.195,3.107c0,0.517 0,1.1 -0.065,1.682c-0.065,0.583 -0.13,1.101 -0.194,1.683c-0.065,0.583 -0.194,1.1 -0.259,1.618c-0.065,0.518 -0.194,1.036 -0.324,1.489c-0.259,0.906 -0.517,1.682 -0.647,2.265c-0.129,0.582 -0.259,0.906 -0.259,0.906l-31.002,0c-0.064,1.812 0.454,3.624 1.424,5.178c0.453,0.647 1.036,1.294 1.748,1.747c0.259,0.194 0.453,0.389 0.712,0.518c0.388,0.259 0.841,0.453 1.229,0.583c0.907,0.323 1.877,0.582 2.848,0.647c0.583,0.064 1.101,0.064 1.683,0.064c4.077,0 8.155,-1.553 11.003,-2.912c1.229,-0.582 2.459,-1.23 3.624,-2.006l4.207,12.297l-0.259,0.129c-0.259,0.194 -0.841,0.583 -1.683,1.1c-0.388,0.195 -0.906,0.518 -1.424,0.777c-0.711,0.388 -1.488,0.777 -2.394,1.165c-4.401,2.007 -9.255,3.107 -14.11,3.171c-1.941,0 -3.948,-0.129 -5.889,-0.453c-0.906,-0.129 -1.812,-0.323 -2.654,-0.517c-0.841,-0.194 -1.683,-0.453 -2.459,-0.712c-0.712,-0.194 -1.359,-0.518 -2.007,-0.777c-0.647,-0.259 -1.229,-0.582 -1.812,-0.906c-3.883,-2.136 -6.99,-5.631 -8.673,-9.773c-0.323,-0.647 -0.517,-1.294 -0.711,-1.942c-0.195,-0.647 -0.389,-1.294 -0.518,-2.006c-0.259,-1.424 -0.389,-2.848 -0.453,-4.336c-0.065,-4.984 1.1,-9.968 3.301,-14.498c1.035,-2.071 2.33,-4.078 3.883,-5.825c1.488,-1.812 3.171,-3.366 5.048,-4.66c0.376,-0.251 0.753,-0.502 1.129,-0.694l0.054,-0.027c0.383,-0.195 0.765,-0.512 1.147,-0.703c1.23,-0.647 2.524,-1.294 3.819,-1.747c1.294,-0.518 2.653,-0.906 4.077,-1.165c1.942,-0.389 3.948,-0.583 5.89,-0.583l0.158,0Zm-8.313,16.763l-1.553,2.783l14.497,0c0,0 0,-0.259 0.065,-0.647c0.065,-0.388 0.065,-0.841 0.065,-1.1c0.064,-0.712 -0.065,-1.424 -0.324,-2.136c-0.259,-0.647 -0.582,-1.165 -1.035,-1.683c-0.454,-0.453 -0.971,-0.841 -1.619,-1.1c-0.711,-0.259 -1.423,-0.389 -2.2,-0.389c-2.654,-0.064 -5.243,1.101 -6.99,3.107c-0.324,0.324 -0.647,0.777 -0.906,1.165Z" style="fill:rgb(251,145,21);"/>            </g>        </g>        <g transform="matrix(2.58715,0,0,1.89983,-756.013,7.21055)">            <g transform="matrix(72.6147,0,0,98.8849,404.571,91.3471)">                <path d="M0.083,0l0.127,0l0,-0.409l0.109,0l0,-0.101l-0.109,0l0,-0.012c0,-0.074 0.062,-0.083 0.098,-0.083c0.015,0 0.026,0.002 0.026,0.002l0,-0.108c0,0 -0.017,-0.003 -0.043,-0.003c-0.071,0 -0.208,0.022 -0.208,0.189l0,0.015l-0.063,0l0,0.101l0.063,0l0,0.409Z" style="fill:rgb(5,33,129);fill-rule:nonzero;"/>            </g>            <g transform="matrix(72.6147,0,0,98.8849,428.026,91.3471)">                <path d="M0.032,-0.255c0,0.145 0.105,0.267 0.274,0.267c0.127,0 0.205,-0.077 0.205,-0.077l-0.053,-0.088c0,0 -0.061,0.057 -0.143,0.057c-0.077,0 -0.143,-0.047 -0.153,-0.137l0.352,0c0,0 0.003,-0.032 0.003,-0.047c0,-0.135 -0.08,-0.242 -0.226,-0.242c-0.153,0 -0.259,0.11 -0.259,0.267Zm0.134,-0.066c0.014,-0.064 0.06,-0.103 0.125,-0.103c0.052,0 0.094,0.042 0.096,0.103l-0.221,0Z" style="fill:rgb(5,33,129);fill-rule:nonzero;"/>            </g>            <g transform="matrix(72.6147,0,0,98.8849,468.472,91.3471)">                <path d="M0.083,0l0.126,0l0,-0.202c0,-0.03 0.004,-0.058 0.011,-0.083c0.023,-0.076 0.085,-0.107 0.139,-0.107c0.018,0 0.031,0.002 0.031,0.002l0,-0.125c0,0 -0.012,-0.002 -0.023,-0.002c-0.078,0 -0.139,0.058 -0.162,0.131l-0.002,0c0,0 0.002,-0.013 0.002,-0.032l0,-0.03c0,-0.043 -0.023,-0.062 -0.068,-0.062l-0.116,0l0,0.108l0.04,0c0.014,0 0.022,0.007 0.022,0.022l0,0.38Z" style="fill:rgb(5,33,129);fill-rule:nonzero;"/>            </g>            <g transform="matrix(72.6147,0,0,98.8849,498.825,91.3471)">                <path d="M0.083,0l0.126,0l0,-0.202c0,-0.03 0.004,-0.058 0.011,-0.083c0.023,-0.076 0.085,-0.107 0.139,-0.107c0.018,0 0.031,0.002 0.031,0.002l0,-0.125c0,0 -0.012,-0.002 -0.023,-0.002c-0.078,0 -0.139,0.058 -0.162,0.131l-0.002,0c0,0 0.002,-0.013 0.002,-0.032l0,-0.03c0,-0.043 -0.023,-0.062 -0.068,-0.062l-0.116,0l0,0.108l0.04,0c0.014,0 0.022,0.007 0.022,0.022l0,0.38Z" style="fill:rgb(5,33,129);fill-rule:nonzero;"/>            </g>            <g transform="matrix(72.6147,0,0,98.8849,526.564,91.3471)">                <path d="M0.033,-0.147c0,0.102 0.083,0.159 0.174,0.159c0.115,0 0.154,-0.09 0.154,-0.09l0.002,0c0,0 -0.001,0.009 -0.001,0.022c0,0.03 0.018,0.056 0.065,0.056l0.114,0l0,-0.107l-0.04,0c-0.014,0 -0.022,-0.008 -0.022,-0.022l0,-0.19c0,-0.114 -0.05,-0.203 -0.22,-0.203c-0.053,0 -0.187,0.01 -0.187,0.105l0,0.054l0.118,0l0,-0.027c0,-0.028 0.045,-0.034 0.068,-0.034c0.065,0 0.094,0.027 0.094,0.1l0,0.004l-0.016,0c-0.083,0 -0.303,0.013 -0.303,0.173Zm0.128,-0.006c0,-0.071 0.105,-0.08 0.171,-0.08l0.022,0l0,0.012c0,0.062 -0.048,0.134 -0.116,0.134c-0.052,0 -0.077,-0.032 -0.077,-0.066Z" style="fill:rgb(5,33,129);fill-rule:nonzero;"/>            </g>            <g transform="matrix(72.6147,0,0,98.8849,567.228,91.3471)">                <path d="M0.085,-0.187c0,0.171 0.141,0.192 0.212,0.192c0.023,0 0.039,-0.003 0.039,-0.003l0,-0.111c0,0 -0.009,0.002 -0.023,0.002c-0.035,0 -0.101,-0.012 -0.101,-0.096l0,-0.206l0.116,0l0,-0.101l-0.116,0l0,-0.139l-0.124,0l0,0.139l-0.069,0l0,0.101l0.066,0l0,0.222Z" style="fill:rgb(5,33,129);fill-rule:nonzero;"/>            </g>            <g transform="matrix(72.6147,0,0,98.8849,594.096,91.3471)">                <path d="M0.081,-0.182c0,0.139 0.067,0.194 0.176,0.194c0.088,0 0.152,-0.053 0.176,-0.106l0.002,0c0,0 -0.001,0.011 -0.001,0.023l0,0.014c0,0.036 0.023,0.057 0.067,0.057l0.117,0l0,-0.107l-0.04,0c-0.014,0 -0.022,-0.008 -0.022,-0.022l0,-0.381l-0.127,0l0,0.234c0,0.091 -0.051,0.172 -0.143,0.172c-0.063,0 -0.079,-0.042 -0.079,-0.104l0,-0.235c0,-0.046 -0.02,-0.067 -0.067,-0.067l-0.121,0l0,0.108l0.04,0c0.014,0 0.022,0.007 0.022,0.022l0,0.198Z" style="fill:rgb(5,33,129);fill-rule:nonzero;"/>            </g>            <g transform="matrix(72.6147,0,0,98.8849,640.424,91.3471)">                <path d="M0.083,0l0.126,0l0,-0.224c0,-0.023 0.003,-0.044 0.008,-0.064c0.016,-0.065 0.059,-0.118 0.123,-0.118c0.061,0 0.069,0.047 0.069,0.102l0,0.304l0.127,0l0,-0.224c0,-0.024 0.002,-0.045 0.008,-0.065c0.014,-0.064 0.059,-0.117 0.122,-0.117c0.059,0 0.07,0.044 0.07,0.102l0,0.236c0,0.048 0.02,0.068 0.068,0.068l0.12,0l0,-0.107l-0.039,0c-0.014,0 -0.022,-0.008 -0.022,-0.022l0,-0.199c0,-0.134 -0.061,-0.194 -0.167,-0.194c-0.081,0 -0.147,0.05 -0.174,0.105l-0.002,0c-0.022,-0.069 -0.072,-0.105 -0.149,-0.105c-0.08,0 -0.141,0.056 -0.165,0.106l-0.002,0c0,0 0.001,-0.011 0.001,-0.022l0,-0.015c0,-0.036 -0.022,-0.057 -0.067,-0.057l-0.117,0l0,0.108l0.04,0c0.014,0 0.022,0.007 0.022,0.022l0,0.38Z" style="fill:rgb(5,33,129);fill-rule:nonzero;"/>            </g>            <g transform="matrix(72.6147,0,0,98.8849,708.9,91.3471)">                <path d="M0.099,0l0.131,0l0,-0.245l0.129,0c0.133,0 0.226,-0.096 0.226,-0.234c0,-0.138 -0.093,-0.231 -0.226,-0.231l-0.325,0l0,0.111l0.065,0l0,0.599Zm0.131,-0.357l0,-0.242l0.107,0c0.072,0 0.114,0.047 0.114,0.12c0,0.074 -0.042,0.122 -0.116,0.122l-0.105,0Z" style="fill:rgb(251,145,21);fill-rule:nonzero;"/>            </g>            <g transform="matrix(72.6147,0,0,98.8849,752.832,91.3471)">                <path d="M0.033,-0.094c0,0.067 0.011,0.094 0.073,0.094l0.37,0c0.048,0 0.068,-0.02 0.068,-0.068l0,-0.108l-0.118,0l0,0.043c0,0.014 -0.008,0.022 -0.022,0.022l-0.208,0c-0.019,0 -0.027,-0.005 -0.027,-0.018c0,-0.129 0.343,-0.143 0.343,-0.383c0,-0.132 -0.106,-0.21 -0.23,-0.21c-0.092,0 -0.216,0.043 -0.216,0.137l0,0.07l0.118,0l0,-0.031c0,-0.027 0.037,-0.056 0.093,-0.056c0.061,0 0.103,0.036 0.103,0.092c0,0.173 -0.347,0.159 -0.347,0.416Z" style="fill:rgb(251,145,21);fill-rule:nonzero;"/>            </g>            <g transform="matrix(72.6147,0,0,98.8849,795.021,91.3471)">                <path d="M0.099,0l0.131,0l0,-0.245l0.129,0c0.133,0 0.226,-0.096 0.226,-0.234c0,-0.138 -0.093,-0.231 -0.226,-0.231l-0.325,0l0,0.111l0.065,0l0,0.599Zm0.131,-0.357l0,-0.242l0.107,0c0.072,0 0.114,0.047 0.114,0.12c0,0.074 -0.042,0.122 -0.116,0.122l-0.105,0Z" style="fill:rgb(251,145,21);fill-rule:nonzero;"/>            </g>        </g>    </g></svg>