<?xml version="1.0" encoding="UTF-8" standalone="no"?><!DOCTYPE svg PUBLIC "-//W3C//DTD SVG 1.1//EN" "http://www.w3.org/Graphics/SVG/1.1/DTD/svg11.dtd"><svg width="100%" height="100%" viewBox="0 0 1024 512" version="1.1" xmlns="http://www.w3.org/2000/svg" xmlns:xlink="http://www.w3.org/1999/xlink" xml:space="preserve" style="fill-rule:evenodd;clip-rule:evenodd;stroke-linejoin:round;stroke-miterlimit:2;"><title>Sekrata</title><desc>Sekrata PL - become an investor or borrower! The choice is yours We are used to taking loans from non-banking companies. It turns out that in the case of social loans, we can not only apply for a loan, but also grant it ourselves. This is one way to make money online. Sekrata PL belongs to platforms with social loans</desc>    <g transform="matrix(1.06304,0,0,1.06304,-30.4152,-16.1371)">        <g transform="matrix(7.91536,0,0,7.91536,-837.643,-68.9045)">            <g transform="matrix(1.41245,0,0,0.884772,-43.5381,-0.466057)">                <path d="M124.124,31.291l-7.871,7.871l0,-15.742l7.871,7.871Z" style="fill:rgb(63,163,1);"/>            </g>            <g transform="matrix(1.41245,0,0,0.884772,-43.5381,13.2611)">                <path d="M124.124,31.291l-7.871,7.871l0,-15.742l7.871,7.871Z" style="fill:rgb(206,250,20);"/>            </g>            <g transform="matrix(1.41245,0,0,0.884772,-54.4112,6.49828)">                <path d="M124.124,31.291l-7.871,7.871l0,-15.742l7.871,7.871Z" style="fill:rgb(147,222,0);"/>            </g>            <g transform="matrix(-1.41245,0,0,0.884772,284.996,-0.466057)">                <path d="M124.124,31.291l-7.871,7.871l0,-15.742l7.871,7.871Z" style="fill:rgb(88,194,1);"/>            </g>            <g transform="matrix(-1.41245,0,0,0.884772,284.996,13.4626)">                <path d="M124.124,31.291l-7.871,7.871l0,-15.742l7.871,7.871Z" style="fill:rgb(177,230,42);"/>            </g>            <g transform="matrix(-1.41245,0,0,0.884772,295.982,20.2254)">                <path d="M124.124,31.291l-7.871,7.871l0,-15.742l7.871,7.871Z" style="fill:rgb(192,238,1);"/>            </g>            <g transform="matrix(1.41245,0,0,0.884772,-43.5381,27.1898)">                <path d="M124.124,31.291l-7.871,7.871l0,-15.742l7.871,7.871Z" style="fill:rgb(143,201,2);"/>            </g>            <g transform="matrix(-1.41245,0,0,0.884772,284.996,27.1898)">                <path d="M124.124,31.291l-7.871,7.871l0,-15.742l7.871,7.871Z" style="fill:rgb(63,163,1);"/>            </g>        </g>        <g transform="matrix(5.42364,0,0,8.75369,138.641,-967.462)">            <g transform="matrix(48,0,0,29.74,18.9097,148.776)">                <path d="M0.363,-0.318l-0.064,0c0,-0.028 -0.009,-0.046 -0.026,-0.055c-0.017,-0.009 -0.041,-0.013 -0.072,-0.013l-0.032,0c-0.03,0 -0.053,0.004 -0.069,0.013c-0.015,0.009 -0.023,0.027 -0.023,0.053c0,0.018 0.002,0.031 0.005,0.04c0.003,0.01 0.01,0.016 0.019,0.021c0.009,0.004 0.022,0.007 0.04,0.008c0.029,0.001 0.058,0.001 0.087,0.002c0.028,0.001 0.053,0.004 0.074,0.01c0.022,0.006 0.039,0.018 0.053,0.036c0.013,0.017 0.02,0.043 0.02,0.076c0,0.039 -0.007,0.069 -0.022,0.088c-0.014,0.019 -0.034,0.031 -0.059,0.036c-0.025,0.005 -0.058,0.008 -0.1,0.008c-0.038,0 -0.07,-0.002 -0.095,-0.007c-0.026,-0.005 -0.047,-0.015 -0.064,-0.032c-0.017,-0.017 -0.026,-0.043 -0.026,-0.078c0,-0.011 0,-0.019 0.001,-0.024l0.064,0c0,0.026 0.003,0.045 0.01,0.058c0.006,0.013 0.016,0.021 0.031,0.026c0.014,0.005 0.034,0.007 0.061,0.007l0.015,0c0.051,0 0.084,-0.006 0.1,-0.017c0.013,-0.009 0.019,-0.03 0.019,-0.062c0,-0.028 -0.007,-0.046 -0.02,-0.054c-0.013,-0.007 -0.033,-0.011 -0.061,-0.011l-0.026,0c-0.001,0 -0.003,0 -0.006,-0.001c-0.003,-0.001 -0.005,-0.001 -0.006,-0.001c-0.042,-0.003 -0.07,-0.005 -0.084,-0.006c-0.013,-0.001 -0.028,-0.006 -0.044,-0.013c-0.016,-0.007 -0.028,-0.018 -0.037,-0.034c-0.009,-0.015 -0.014,-0.037 -0.014,-0.064c0,-0.051 0.01,-0.084 0.031,-0.098c0.029,-0.021 0.075,-0.031 0.139,-0.031c0.035,0 0.066,0.003 0.091,0.008c0.026,0.006 0.048,0.017 0.065,0.035c0.017,0.017 0.025,0.043 0.025,0.076Z" style="fill:rgb(60,54,42);fill-rule:nonzero;"/>            </g>            <g transform="matrix(48,0,0,29.74,40.1554,148.776)">                <path d="M0.317,-0.131l0.067,0c0,0.04 -0.007,0.07 -0.022,0.09c-0.014,0.019 -0.034,0.032 -0.059,0.037c-0.025,0.006 -0.059,0.009 -0.102,0.009c-0.04,0 -0.073,-0.004 -0.098,-0.011c-0.025,-0.007 -0.044,-0.019 -0.058,-0.035c-0.013,-0.016 -0.023,-0.037 -0.028,-0.063c-0.005,-0.026 -0.008,-0.06 -0.008,-0.101c0,-0.057 0.004,-0.101 0.011,-0.132c0.008,-0.031 0.025,-0.056 0.051,-0.073c0.026,-0.017 0.066,-0.025 0.12,-0.025c0.054,0 0.094,0.006 0.121,0.017c0.027,0.011 0.046,0.03 0.056,0.058c0.01,0.027 0.015,0.068 0.016,0.124l0,0.033l-0.308,0c0,0.04 0.002,0.07 0.005,0.09c0.004,0.02 0.014,0.037 0.031,0.049c0.016,0.012 0.043,0.018 0.079,0.018l0.017,0c0.036,0 0.063,-0.004 0.081,-0.013c0.019,-0.008 0.028,-0.028 0.028,-0.058l0,-0.014Zm0.001,-0.122c0,-0.039 -0.002,-0.067 -0.007,-0.085c-0.005,-0.018 -0.016,-0.03 -0.033,-0.037c-0.017,-0.007 -0.045,-0.011 -0.082,-0.011c-0.033,0 -0.058,0.004 -0.075,0.012c-0.017,0.008 -0.029,0.021 -0.035,0.04c-0.007,0.018 -0.01,0.046 -0.01,0.081l0.242,0Z" style="fill:rgb(60,54,42);fill-rule:nonzero;"/>            </g>            <g transform="matrix(48,0,0,29.74,63.1117,148.776)">                <path d="M0.069,-0.613l0,0.357l0.026,0l0.155,-0.173l0.079,0l-0.183,0.197l0.215,0.232l-0.084,0l-0.182,-0.207l-0.026,0l0,0.207l-0.064,0l0,-0.613l0.064,0Z" style="fill:rgb(60,54,42);fill-rule:nonzero;"/>            </g>            <g transform="matrix(48,0,0,29.74,83.3496,148.776)">                <path d="M0.003,-0.429l0.062,0l-0.001,0.049c0.024,-0.039 0.063,-0.059 0.117,-0.059c0.083,0 0.124,0.051 0.124,0.152l-0.062,0c0,-0.033 -0.005,-0.058 -0.015,-0.074c-0.01,-0.017 -0.03,-0.025 -0.061,-0.025c-0.067,0 -0.1,0.033 -0.1,0.1l0,0.286l-0.064,0l0,-0.429Z" style="fill:rgb(60,54,42);fill-rule:nonzero;"/>            </g>            <g transform="matrix(48,0,0,29.74,100.181,148.776)">                <path d="M0.09,-0.305l-0.066,0c0,-0.053 0.014,-0.088 0.041,-0.103c0.027,-0.014 0.07,-0.022 0.128,-0.022c0.044,0 0.079,0.004 0.105,0.011c0.026,0.007 0.046,0.021 0.06,0.043c0.014,0.021 0.021,0.054 0.021,0.097l0,0.279l-0.061,0l0.004,-0.045c-0.016,0.021 -0.036,0.035 -0.059,0.042c-0.023,0.007 -0.052,0.01 -0.086,0.01c-0.038,0 -0.07,-0.003 -0.094,-0.01c-0.023,-0.007 -0.042,-0.02 -0.055,-0.04c-0.013,-0.02 -0.019,-0.048 -0.019,-0.086c0,-0.036 0.007,-0.063 0.021,-0.082c0.013,-0.019 0.032,-0.032 0.056,-0.038c0.023,-0.006 0.053,-0.009 0.09,-0.009c0.034,0 0.062,0.002 0.084,0.007c0.022,0.005 0.039,0.017 0.053,0.036l0,-0.05c0,-0.036 -0.003,-0.062 -0.009,-0.078c-0.006,-0.017 -0.018,-0.028 -0.034,-0.033c-0.017,-0.005 -0.044,-0.008 -0.081,-0.008c-0.04,0 -0.068,0.006 -0.082,0.017c-0.013,0.009 -0.019,0.024 -0.019,0.047c0,0.002 0,0.004 0.001,0.007c0.001,0.003 0.001,0.006 0.001,0.008Zm-0.014,0.169c0,0.036 0.007,0.06 0.022,0.073c0.014,0.012 0.039,0.018 0.076,0.018c0.028,0 0.052,-0.001 0.071,-0.004c0.02,-0.003 0.036,-0.01 0.051,-0.022c0.014,-0.012 0.021,-0.03 0.021,-0.055c0,-0.035 -0.01,-0.057 -0.03,-0.067c-0.019,-0.01 -0.049,-0.015 -0.089,-0.015l-0.016,0c-0.047,0 -0.077,0.006 -0.091,0.019c-0.01,0.008 -0.015,0.026 -0.015,0.053Z" style="fill:rgb(60,54,42);fill-rule:nonzero;"/>            </g>            <g transform="matrix(48,0,0,29.74,121.427,148.776)">                <path d="M0.289,-0.429l0,0.052l-0.165,0l0,0.262c0,0.026 0.004,0.044 0.012,0.053c0.008,0.009 0.024,0.014 0.048,0.014c0.027,0 0.044,-0.006 0.051,-0.018c0.007,-0.012 0.011,-0.031 0.011,-0.058l0,-0.027l0.06,0c0,0.052 -0.008,0.091 -0.024,0.117c-0.015,0.026 -0.048,0.039 -0.098,0.039c-0.032,0 -0.057,-0.004 -0.075,-0.011c-0.017,-0.007 -0.03,-0.02 -0.038,-0.037c-0.008,-0.017 -0.012,-0.041 -0.012,-0.072l0,-0.262l-0.056,0l0,-0.052l0.056,0l0,-0.103l0.065,0l0,0.103l0.165,0Z" style="fill:rgb(60,54,42);fill-rule:nonzero;"/>            </g>            <g transform="matrix(48,0,0,29.74,138.786,148.776)">                <path d="M0.09,-0.305l-0.066,0c0,-0.053 0.014,-0.088 0.041,-0.103c0.027,-0.014 0.07,-0.022 0.128,-0.022c0.044,0 0.079,0.004 0.105,0.011c0.026,0.007 0.046,0.021 0.06,0.043c0.014,0.021 0.021,0.054 0.021,0.097l0,0.279l-0.061,0l0.004,-0.045c-0.016,0.021 -0.036,0.035 -0.059,0.042c-0.023,0.007 -0.052,0.01 -0.086,0.01c-0.038,0 -0.07,-0.003 -0.094,-0.01c-0.023,-0.007 -0.042,-0.02 -0.055,-0.04c-0.013,-0.02 -0.019,-0.048 -0.019,-0.086c0,-0.036 0.007,-0.063 0.021,-0.082c0.013,-0.019 0.032,-0.032 0.056,-0.038c0.023,-0.006 0.053,-0.009 0.09,-0.009c0.034,0 0.062,0.002 0.084,0.007c0.022,0.005 0.039,0.017 0.053,0.036l0,-0.05c0,-0.036 -0.003,-0.062 -0.009,-0.078c-0.006,-0.017 -0.018,-0.028 -0.034,-0.033c-0.017,-0.005 -0.044,-0.008 -0.081,-0.008c-0.04,0 -0.068,0.006 -0.082,0.017c-0.013,0.009 -0.019,0.024 -0.019,0.047c0,0.002 0,0.004 0.001,0.007c0.001,0.003 0.001,0.006 0.001,0.008Zm-0.014,0.169c0,0.036 0.007,0.06 0.022,0.073c0.014,0.012 0.039,0.018 0.076,0.018c0.028,0 0.052,-0.001 0.071,-0.004c0.02,-0.003 0.036,-0.01 0.051,-0.022c0.014,-0.012 0.021,-0.03 0.021,-0.055c0,-0.035 -0.01,-0.057 -0.03,-0.067c-0.019,-0.01 -0.049,-0.015 -0.089,-0.015l-0.016,0c-0.047,0 -0.077,0.006 -0.091,0.019c-0.01,0.008 -0.015,0.026 -0.015,0.053Z" style="fill:rgb(60,54,42);fill-rule:nonzero;"/>            </g>        </g>    </g></svg>