<?xml version="1.0" encoding="UTF-8" standalone="no"?><!DOCTYPE svg PUBLIC "-//W3C//DTD SVG 1.1//EN" "http://www.w3.org/Graphics/SVG/1.1/DTD/svg11.dtd"><svg width="100%" height="100%" viewBox="0 0 1024 512" version="1.1" xmlns="http://www.w3.org/2000/svg" xmlns:xlink="http://www.w3.org/1999/xlink" xml:space="preserve" style="fill-rule:evenodd;clip-rule:evenodd;stroke-linejoin:round;stroke-miterlimit:2;"><title>StemFund</title><desc>Stemfund is a very easy to use and secure peer to peer lending platform.Through Stemfund an investor will have the opportunity to choose specifically the person he wants to lend money to along with the rate at which he wants to lend his money. On the other side, the borrower will have the opportunity to borrow the funds he needs to consolidate his personal finances or fund his own business.</desc>    <g transform="matrix(4.88216,0,0,4.88216,1.65153,54.0108)">        <g>            <path d="M25.698,82.374l-0.686,-16.543c0,0 -9.26,-11.709 -13.637,-14.396c5.987,1.614 15.132,10.153 15.132,10.153c0,0 3.165,-17.867 2.236,-21.045c-0.93,-3.178 -4.092,-5.807 -6.502,-8.666c3.02,1.429 7.411,6.109 7.411,6.109c0,0 0.676,-5.784 -0.417,-12.378c-0.573,-3.459 -4.105,-12.473 -4.105,-12.473c0,0 5.693,9.816 6.352,11.87c1.859,5.799 1.052,25.72 1.052,25.72c0,0 7.907,-8.178 13.187,-8.971c-3.881,3.571 -12.67,10.6 -13.219,13.671c-0.548,3.071 -0.489,19.183 0.509,23.333c0.998,4.15 1.316,3.616 1.316,3.616l-8.629,0Z" style="fill:rgb(14,41,53);"/>            <g transform="matrix(0.888592,-0.11546,0.11546,0.888592,-34.1333,35.7572)">                <g transform="matrix(1,0,0,1,67.7487,-9.275)">                    <circle cx="12.757" cy="43.726" r="6.091" style="fill:rgb(248,145,0);"/>                </g>                <g transform="matrix(8.24857,2.44803,-2.44803,8.24857,77.1989,36.8709)">                    <path d="M0.074,0l0,-0.7l0.227,0c0.063,0 0.116,0.016 0.159,0.049c0.043,0.032 0.064,0.082 0.064,0.151c0,0.025 -0.006,0.048 -0.017,0.07c-0.011,0.021 -0.022,0.035 -0.032,0.043c-0.011,0.009 -0.019,0.014 -0.024,0.016c0.003,0.001 0.009,0.003 0.016,0.006c0.007,0.003 0.016,0.008 0.027,0.016c0.011,0.009 0.021,0.019 0.03,0.03c0.01,0.011 0.018,0.027 0.025,0.047c0.008,0.02 0.011,0.042 0.011,0.065c0,0.061 -0.022,0.11 -0.067,0.149c-0.045,0.039 -0.1,0.058 -0.167,0.058l-0.252,0Zm0.248,-0.114c0.035,0 0.063,-0.008 0.084,-0.023c0.021,-0.015 0.032,-0.039 0.032,-0.07c0,-0.031 -0.011,-0.055 -0.032,-0.07c-0.021,-0.015 -0.049,-0.023 -0.084,-0.023l-0.128,0l0,0.186l0.128,0Zm-0.128,-0.3l0.103,0c0.07,0 0.105,-0.029 0.105,-0.086c0,-0.029 -0.01,-0.051 -0.029,-0.065c-0.019,-0.014 -0.045,-0.021 -0.076,-0.021l-0.103,0l0,0.172Z" style="fill:white;fill-rule:nonzero;"/>                </g>            </g>            <g transform="matrix(0.469368,-0.443054,0.443054,0.469368,-19.7424,34.001)">                <g transform="matrix(1,0,0,1,67.7487,-9.275)">                    <circle cx="12.757" cy="43.726" r="6.091" style="fill:rgb(248,145,0);"/>                </g>                <g transform="matrix(8.24857,2.44803,-2.44803,8.24857,77.1989,36.8709)">                    <path d="M0.074,0l0,-0.7l0.227,0c0.063,0 0.116,0.016 0.159,0.049c0.043,0.032 0.064,0.082 0.064,0.151c0,0.025 -0.006,0.048 -0.017,0.07c-0.011,0.021 -0.022,0.035 -0.032,0.043c-0.011,0.009 -0.019,0.014 -0.024,0.016c0.003,0.001 0.009,0.003 0.016,0.006c0.007,0.003 0.016,0.008 0.027,0.016c0.011,0.009 0.021,0.019 0.03,0.03c0.01,0.011 0.018,0.027 0.025,0.047c0.008,0.02 0.011,0.042 0.011,0.065c0,0.061 -0.022,0.11 -0.067,0.149c-0.045,0.039 -0.1,0.058 -0.167,0.058l-0.252,0Zm0.248,-0.114c0.035,0 0.063,-0.008 0.084,-0.023c0.021,-0.015 0.032,-0.039 0.032,-0.07c0,-0.031 -0.011,-0.055 -0.032,-0.07c-0.021,-0.015 -0.049,-0.023 -0.084,-0.023l-0.128,0l0,0.186l0.128,0Zm-0.128,-0.3l0.103,0c0.07,0 0.105,-0.029 0.105,-0.086c0,-0.029 -0.01,-0.051 -0.029,-0.065c-0.019,-0.014 -0.045,-0.021 -0.076,-0.021l-0.103,0l0,0.172Z" style="fill:white;fill-rule:nonzero;"/>                </g>            </g>            <g transform="matrix(0.876793,-0.53422,0.53422,0.876793,-33.7187,56.0511)">                <g transform="matrix(1,0,0,1,67.7487,-9.275)">                    <circle cx="12.757" cy="43.726" r="6.091" style="fill:rgb(248,145,0);"/>                </g>                <g transform="matrix(8.24857,2.44803,-2.44803,8.24857,77.1989,36.8709)">                    <path d="M0.074,0l0,-0.7l0.227,0c0.063,0 0.116,0.016 0.159,0.049c0.043,0.032 0.064,0.082 0.064,0.151c0,0.025 -0.006,0.048 -0.017,0.07c-0.011,0.021 -0.022,0.035 -0.032,0.043c-0.011,0.009 -0.019,0.014 -0.024,0.016c0.003,0.001 0.009,0.003 0.016,0.006c0.007,0.003 0.016,0.008 0.027,0.016c0.011,0.009 0.021,0.019 0.03,0.03c0.01,0.011 0.018,0.027 0.025,0.047c0.008,0.02 0.011,0.042 0.011,0.065c0,0.061 -0.022,0.11 -0.067,0.149c-0.045,0.039 -0.1,0.058 -0.167,0.058l-0.252,0Zm0.248,-0.114c0.035,0 0.063,-0.008 0.084,-0.023c0.021,-0.015 0.032,-0.039 0.032,-0.07c0,-0.031 -0.011,-0.055 -0.032,-0.07c-0.021,-0.015 -0.049,-0.023 -0.084,-0.023l-0.128,0l0,0.186l0.128,0Zm-0.128,-0.3l0.103,0c0.07,0 0.105,-0.029 0.105,-0.086c0,-0.029 -0.01,-0.051 -0.029,-0.065c-0.019,-0.014 -0.045,-0.021 -0.076,-0.021l-0.103,0l0,0.172Z" style="fill:white;fill-rule:nonzero;"/>                </g>            </g>            <g transform="matrix(1,0,0,1,-68.1677,9.19355)">                <g transform="matrix(1,0,0,1,67.7487,-9.275)">                    <circle cx="12.757" cy="43.726" r="6.091" style="fill:rgb(248,145,0);"/>                </g>                <g transform="matrix(8.24857,2.44803,-2.44803,8.24857,77.1989,36.8709)">                    <path d="M0.074,0l0,-0.7l0.227,0c0.063,0 0.116,0.016 0.159,0.049c0.043,0.032 0.064,0.082 0.064,0.151c0,0.025 -0.006,0.048 -0.017,0.07c-0.011,0.021 -0.022,0.035 -0.032,0.043c-0.011,0.009 -0.019,0.014 -0.024,0.016c0.003,0.001 0.009,0.003 0.016,0.006c0.007,0.003 0.016,0.008 0.027,0.016c0.011,0.009 0.021,0.019 0.03,0.03c0.01,0.011 0.018,0.027 0.025,0.047c0.008,0.02 0.011,0.042 0.011,0.065c0,0.061 -0.022,0.11 -0.067,0.149c-0.045,0.039 -0.1,0.058 -0.167,0.058l-0.252,0Zm0.248,-0.114c0.035,0 0.063,-0.008 0.084,-0.023c0.021,-0.015 0.032,-0.039 0.032,-0.07c0,-0.031 -0.011,-0.055 -0.032,-0.07c-0.021,-0.015 -0.049,-0.023 -0.084,-0.023l-0.128,0l0,0.186l0.128,0Zm-0.128,-0.3l0.103,0c0.07,0 0.105,-0.029 0.105,-0.086c0,-0.029 -0.01,-0.051 -0.029,-0.065c-0.019,-0.014 -0.045,-0.021 -0.076,-0.021l-0.103,0l0,0.172Z" style="fill:white;fill-rule:nonzero;"/>                </g>            </g>            <g transform="matrix(1.67575,0,0,1.67575,-42.5638,51.8044)">                <g transform="matrix(0.649515,0,0,0.649515,24.7061,-31.8786)">                    <circle cx="17.154" cy="10.977" r="4.008" style="fill:rgb(140,198,63);"/>                </g>                <g transform="matrix(0.649515,0,0,0.649515,25.7366,-23.5107)">                    <circle cx="17.154" cy="10.977" r="4.008" style="fill:rgb(140,198,63);"/>                </g>                <g transform="matrix(0.774127,0,0,0.774127,15.7465,-22.052)">                    <circle cx="17.154" cy="10.977" r="4.008" style="fill:rgb(140,198,63);"/>                </g>                <g transform="matrix(0.774127,0,0,0.774127,38.3265,-26.1258)">                    <circle cx="17.154" cy="10.977" r="4.008" style="fill:rgb(140,198,63);"/>                </g>                <g transform="matrix(0.561788,0,0,0.561788,33.5168,-34.9224)">                    <circle cx="17.154" cy="10.977" r="4.008" style="fill:rgb(140,198,63);"/>                </g>                <g transform="matrix(0.561788,0,0,0.561788,40.4921,-15.6326)">                    <circle cx="17.154" cy="10.977" r="4.008" style="fill:rgb(140,198,63);"/>                </g>                <g transform="matrix(0.561788,0,0,0.561788,29.5729,-7.65343)">                    <circle cx="17.154" cy="10.977" r="4.008" style="fill:rgb(140,198,63);"/>                </g>                <g transform="matrix(0.355475,0,0,0.355475,20.7693,-5.24543)">                    <circle cx="17.154" cy="10.977" r="4.008" style="fill:rgb(140,198,63);"/>                </g>                <g transform="matrix(0.355475,0,0,0.355475,48.8023,-15.4545)">                    <circle cx="17.154" cy="10.977" r="4.008" style="fill:rgb(140,198,63);"/>                </g>                <g transform="matrix(0.401637,0,0,0.401637,40.2709,-18.3889)">                    <circle cx="17.154" cy="10.977" r="4.008" style="fill:rgb(140,198,63);"/>                </g>                <g transform="matrix(0.401637,0,0,0.401637,41.6785,-31.3006)">                    <circle cx="17.154" cy="10.977" r="4.008" style="fill:rgb(140,198,63);"/>                </g>                <g transform="matrix(0.401637,0,0,0.401637,23.481,-25.2564)">                    <circle cx="17.154" cy="10.977" r="4.008" style="fill:rgb(140,198,63);"/>                </g>                <g transform="matrix(0.401637,0,0,0.401637,28.4275,-15.859)">                    <circle cx="17.154" cy="10.977" r="4.008" style="fill:rgb(140,198,63);"/>                </g>                <g transform="matrix(0.401637,0,0,0.401637,45.8595,-6.41654)">                    <circle cx="17.154" cy="10.977" r="4.008" style="fill:rgb(140,198,63);"/>                </g>                <g transform="matrix(0.197881,0,0,0.197881,51.5219,0.217213)">                    <circle cx="17.154" cy="10.977" r="4.008" style="fill:rgb(140,198,63);"/>                </g>                <g transform="matrix(0.197881,0,0,0.197881,56.2095,-13.0234)">                    <circle cx="17.154" cy="10.977" r="4.008" style="fill:rgb(140,198,63);"/>                </g>                <g transform="matrix(0.197881,0,0,0.197881,53.2615,-18.4912)">                    <circle cx="17.154" cy="10.977" r="4.008" style="fill:rgb(140,198,63);"/>                </g>                <g transform="matrix(0.197881,0,0,0.197881,49.3309,-25.844)">                    <circle cx="17.154" cy="10.977" r="4.008" style="fill:rgb(140,198,63);"/>                </g>                <g transform="matrix(0.197881,0,0,0.197881,46.1799,-24.835)">                    <circle cx="17.154" cy="10.977" r="4.008" style="fill:rgb(140,198,63);"/>                </g>                <g transform="matrix(0.197881,0,0,0.197881,42.8679,-20.0845)">                    <circle cx="17.154" cy="10.977" r="4.008" style="fill:rgb(140,198,63);"/>                </g>                <g transform="matrix(0.197881,0,0,0.197881,36.8285,-27.4861)">                    <circle cx="17.154" cy="10.977" r="4.008" style="fill:rgb(140,198,63);"/>                </g>                <g transform="matrix(0.197881,0,0,0.197881,30.6169,-22.3349)">                    <circle cx="17.154" cy="10.977" r="4.008" style="fill:rgb(140,198,63);"/>                </g>                <g transform="matrix(0.197881,0,0,0.197881,29.3024,-19.0183)">                    <circle cx="17.154" cy="10.977" r="4.008" style="fill:rgb(140,198,63);"/>                </g>                <g transform="matrix(0.197881,0,0,0.197881,37.2114,-15.8984)">                    <circle cx="17.154" cy="10.977" r="4.008" style="fill:rgb(140,198,63);"/>                </g>                <g transform="matrix(0.197881,0,0,0.197881,35.229,-9.96094)">                    <circle cx="17.154" cy="10.977" r="4.008" style="fill:rgb(140,198,63);"/>                </g>                <g transform="matrix(0.197881,0,0,0.197881,23.4083,-9.51604)">                    <circle cx="17.154" cy="10.977" r="4.008" style="fill:rgb(140,198,63);"/>                </g>                <g transform="matrix(0.197881,0,0,0.197881,43.8103,-8.2782)">                    <circle cx="17.154" cy="10.977" r="4.008" style="fill:rgb(140,198,63);"/>                </g>                <g transform="matrix(0.197881,0,0,0.197881,31.554,3.81074)">                    <circle cx="17.154" cy="10.977" r="4.008" style="fill:rgb(140,198,63);"/>                </g>                <g transform="matrix(0.649515,0,0,0.649515,19.8244,-3.49657)">                    <circle cx="17.154" cy="10.977" r="4.008" style="fill:rgb(140,198,63);"/>                </g>            </g>        </g>        <g transform="matrix(1.67575,0,0,1.67575,-42.5638,51.8044)">            <g transform="matrix(20,0,0,22.5884,54.977,18.3111)">                <path d="M0.289,-0.119c-0.085,0 -0.146,-0.054 -0.176,-0.084l-0.087,0.126c0.024,0.027 0.108,0.087 0.243,0.087c0.178,0 0.265,-0.102 0.265,-0.207c0,-0.223 -0.322,-0.206 -0.322,-0.319c0,-0.035 0.028,-0.063 0.078,-0.063c0.074,0 0.114,0.044 0.131,0.065l0.095,-0.113c-0.023,-0.03 -0.096,-0.084 -0.213,-0.084c-0.145,0 -0.247,0.091 -0.247,0.207c0,0.221 0.323,0.206 0.323,0.317c0,0.037 -0.029,0.068 -0.09,0.068Z" style="fill:rgb(140,198,63);fill-rule:nonzero;"/>            </g>            <g transform="matrix(20,0,0,20,66.437,18.337)">                <path d="M0.247,0.005c0.094,0 0.138,-0.021 0.157,-0.035l-0.039,-0.113c-0.022,0.017 -0.053,0.025 -0.077,0.025c-0.037,0 -0.059,-0.02 -0.059,-0.059l0,-0.273l0.141,0l0,-0.115l-0.141,0l0,-0.142l-0.096,0l-0.052,0.133l-0.073,0.03l0,0.094l0.072,0l0,0.269c0,0.137 0.07,0.186 0.167,0.186Z" style="fill:rgb(140,198,63);fill-rule:nonzero;"/>            </g>            <g transform="matrix(20,0,0,20,74.477,18.337)">                <path d="M0.448,-0.159c-0.021,0.022 -0.063,0.051 -0.124,0.051c-0.096,0 -0.136,-0.049 -0.138,-0.138l0.337,0c0.006,-0.044 0.007,-0.072 0.007,-0.101c0,-0.138 -0.083,-0.229 -0.227,-0.229c-0.163,0 -0.265,0.109 -0.265,0.292c0,0.195 0.091,0.295 0.269,0.295c0.108,0 0.163,-0.027 0.207,-0.063l-0.066,-0.107Zm-0.149,-0.303c0.061,0 0.089,0.035 0.089,0.101l0,0.015l-0.199,0c0.002,-0.066 0.042,-0.116 0.11,-0.116Z" style="fill:rgb(140,198,63);fill-rule:nonzero;"/>            </g>            <g transform="matrix(20,0,0,20,85.897,18.337)">                <path d="M0.515,-0.502l-0.004,0c-0.02,-0.04 -0.055,-0.076 -0.141,-0.076c-0.056,0 -0.114,0.021 -0.149,0.066l-0.004,0l-0.025,-0.053l-0.124,0l0,0.565l0.151,0l0,-0.384c0.014,-0.037 0.05,-0.067 0.087,-0.067c0.052,0 0.08,0.033 0.08,0.099l0,0.352l0.151,0l0,-0.386c0.017,-0.04 0.056,-0.065 0.094,-0.065c0.039,0 0.073,0.022 0.073,0.088l0,0.363l0.151,0l0,-0.39c0,-0.129 -0.063,-0.188 -0.174,-0.188c-0.08,0 -0.137,0.037 -0.166,0.076Z" style="fill:rgb(140,198,63);fill-rule:nonzero;"/>            </g>            <g transform="matrix(20,0,0,21.8248,104.317,18.337)">                <path d="M0.233,0l0,-0.263l0.226,0l0,-0.126l-0.226,0l0,-0.186l0.263,0l0,-0.126l-0.415,0l0,0.701l0.152,0Z" style="fill:rgb(14,41,53);fill-rule:nonzero;"/>            </g>            <g transform="matrix(20,0,0,20,115.037,18.337)">                <path d="M0.066,-0.186c0,0.134 0.058,0.197 0.179,0.197c0.071,0 0.116,-0.023 0.149,-0.063l0.004,0l0.021,0.052l0.128,0l0,-0.565l-0.151,0l0,0.391c-0.008,0.018 -0.032,0.068 -0.098,0.068c-0.051,0 -0.081,-0.032 -0.081,-0.094l0,-0.365l-0.151,0l0,0.379Z" style="fill:rgb(14,41,53);fill-rule:nonzero;"/>            </g>            <g transform="matrix(20,0,0,20,127.337,18.337)">                <path d="M0.545,-0.391c0,-0.127 -0.063,-0.188 -0.173,-0.188c-0.059,0 -0.118,0.026 -0.152,0.067l-0.004,0l-0.03,-0.053l-0.118,0l0,0.565l0.151,0l0,-0.384c0.017,-0.041 0.053,-0.067 0.097,-0.067c0.051,0 0.078,0.034 0.078,0.092l0,0.359l0.151,0l0,-0.391Z" style="fill:rgb(14,41,53);fill-rule:nonzero;"/>            </g>            <g transform="matrix(20,0,0,20,139.557,18.337)">                <path d="M0.378,-0.556c-0.018,-0.005 -0.04,-0.012 -0.093,-0.012c-0.119,0 -0.247,0.077 -0.247,0.315c0,0.184 0.087,0.262 0.206,0.262c0.076,0 0.122,-0.039 0.138,-0.055l0.004,0l0.024,0.046l0.118,0l0,-0.758l-0.15,0l0,0.202Zm-0.089,0.446c-0.058,0 -0.098,-0.046 -0.098,-0.156c0,-0.153 0.054,-0.18 0.116,-0.18c0.028,0 0.061,0.009 0.075,0.02l0,0.268c-0.021,0.029 -0.051,0.048 -0.093,0.048Z" style="fill:rgb(14,41,53);fill-rule:nonzero;"/>            </g>        </g>    </g></svg>