<?xml version="1.0" encoding="UTF-8" standalone="no"?><!DOCTYPE svg PUBLIC "-//W3C//DTD SVG 1.1//EN" "http://www.w3.org/Graphics/SVG/1.1/DTD/svg11.dtd"><svg width="100%" height="100%" viewBox="0 0 1024 512" version="1.1" xmlns="http://www.w3.org/2000/svg" xmlns:xlink="http://www.w3.org/1999/xlink" xml:space="preserve" style="fill-rule:evenodd;clip-rule:evenodd;stroke-linejoin:round;stroke-miterlimit:2;"><title>Bondkick</title><desc>Bondkick is an international financial technology company that helps businesses grow by bringing together the money that longs for growth and the companies in need of funding. We offer a convenient and flexible service that increases the earning potential of both the investors and the entrepreneurs.</desc>    <g transform="matrix(1.46078,0,0,1.46078,2.00001,182.775)">        <g transform="matrix(1,0,0,1,-150.279,-333.875)">            <path d="M636.261,399.16c-8.318,-0.001 -15.163,-6.846 -15.163,-15.165c0,-8.319 6.846,-15.165 15.165,-15.165c8.319,0 15.164,6.845 15.165,15.163c-0.001,8.32 -6.847,15.166 -15.167,15.167" style="fill:rgb(16,137,72);fill-rule:nonzero;"/>        </g>        <g transform="matrix(1,0,0,1,-150.279,-333.875)">            <path d="M636.261,432.253c-0.002,0 -0.005,0 -0.007,0c-8.325,0 -15.175,-6.851 -15.175,-15.175c0,-8.324 6.85,-15.174 15.175,-15.174c8.321,0 15.17,6.844 15.174,15.166c-0.001,8.322 -6.844,15.172 -15.167,15.183" style="fill:rgb(16,137,72);fill-rule:nonzero;"/>        </g>        <g transform="matrix(1,0,0,1,-150.279,-333.875)">            <path d="M181.852,415.267l16.789,0.62c5.656,0 9.831,-0.898 12.524,-2.694c2.83,-2.056 4.43,-5.415 4.242,-8.907c0.17,-3.811 -1.39,-7.502 -4.242,-10.035c-2.695,-1.992 -6.869,-3.095 -12.524,-3.309l-16.789,-0.733l0,25.058Zm0,-40.695l2.388,0c13.256,0 20.75,-0.726 22.48,-2.178c2.474,-1.858 3.722,-4.821 3.722,-8.893c0,-3.457 -1.164,-5.988 -3.519,-7.573c-0.964,-0.758 -4.018,-1.47 -9.164,-2.17c-4.273,-0.618 -8.581,-0.962 -12.898,-1.029l-3.009,0l0,21.843Zm-18.008,57.681l0.201,-42.251l-13.766,0l0.62,-15.216l13.146,0l-0.201,-39.042l14.387,0l21.233,0.619c8.292,0 15.299,2.488 21.021,7.465c5.319,4.611 8.286,11.383 8.071,18.42c0.088,3.984 -0.797,7.931 -2.58,11.497c-1.654,3.172 -4.266,5.744 -7.463,7.351c4.587,1.306 8.581,4.164 11.298,8.084c2.85,4.288 4.328,9.344 4.238,14.493c0.052,4.781 -1.051,9.505 -3.215,13.769c-1.85,4.095 -4.781,7.609 -8.477,10.165c-2.86,1.904 -6.01,3.334 -9.327,4.235c-4.686,0.763 -9.43,1.111 -14.178,1.04l-35.008,-0.629Z" style="fill-rule:nonzero;"/>        </g>        <g transform="matrix(1,0,0,1,-150.279,-333.875)">            <path d="M291.531,353.346c-8.037,-0.185 -15.803,2.968 -21.437,8.703c-5.828,5.673 -9.053,13.515 -8.9,21.646c-0.034,8.208 3.251,16.091 9.103,21.845c6.011,6.082 13.019,9.12 21.024,9.113c7.986,0.038 15.653,-3.173 21.227,-8.891c5.664,-6.097 8.498,-13.594 8.501,-22.493c0.001,-0.069 0.001,-0.138 0.001,-0.207c0,-16.227 -13.292,-29.608 -29.519,-29.716m-49.819,30.349c0,-14.157 4.731,-25.967 14.193,-35.432c9.593,-9.578 21.399,-14.374 35.416,-14.388c12.949,0.154 25.349,5.313 34.586,14.388c9.379,9.324 14.706,21.986 14.814,35.21c0.125,6.534 -1.107,13.023 -3.619,19.055c-2.169,6.119 -5.63,11.7 -10.149,16.362c-4.651,4.865 -10.212,8.77 -16.368,11.491c-6.112,2.505 -12.659,3.777 -19.264,3.743c-6.839,0.013 -13.621,-1.257 -19.993,-3.743c-6.062,-2.72 -11.519,-6.627 -16.047,-11.491c-4.424,-4.589 -7.906,-10.002 -10.246,-15.932c-2.164,-6.193 -3.287,-12.702 -3.323,-19.263" style="fill-rule:nonzero;"/>        </g>        <path d="M216.543,98.377l-18.65,0l0,-96.509l58.094,55.823l0,-55.823l18.229,0l0,96.509l-57.673,-54.68l0,54.68Z" style="fill-rule:nonzero;"/>        <g transform="matrix(1,0,0,1,-150.279,-333.875)">            <path d="M469.028,415.693c4.715,0.118 9.422,-0.444 13.977,-1.668c3.416,-1.343 6.47,-3.469 8.914,-6.207c2.52,-2.771 4.33,-6.113 5.272,-9.738c1.49,-4.223 2.228,-8.673 2.181,-13.15c0,-10.62 -2.622,-18.666 -7.866,-24.137c-5.24,-5.657 -12.801,-8.486 -22.683,-8.486l-17.602,0l0,63.385l17.807,0Zm1.001,16.56l-37.867,0l0,-96.509l37.454,0c7.939,0 14.094,0.654 18.466,1.962c4.795,1.227 9.278,3.452 13.156,6.528c5.764,4.358 10.295,10.143 13.148,16.783c3.011,7.388 4.525,15.301 4.453,23.279c0.164,8.129 -1.578,16.186 -5.085,23.523c-3.24,6.808 -8.11,12.714 -14.177,17.192c-3.481,2.636 -7.462,4.537 -11.699,5.589c-5.87,1.213 -11.857,1.768 -17.849,1.654" style="fill-rule:nonzero;"/>        </g>        <g transform="matrix(1,0,0,1,-150.279,-333.875)">            <path d="M554,384.295l2.642,-6.722l37.597,-41.829l20.922,0l-39.046,47.952l39.046,48.557l-20.922,0l-37.597,-40.071l-2.642,-7.887Zm2.642,47.958l-18.637,0l0,-40.071l-12.538,0l-0.625,-14.609l13.163,0l0,-41.829l18.637,0l0,96.509Z" style="fill-rule:nonzero;"/>        </g>        <g transform="matrix(1,0,0,1,-150.279,-333.875)">            <path d="M757.271,364.428l-23.091,0c-2.583,-3.581 -6.047,-6.436 -10.056,-8.287c-3.922,-2.067 -8.309,-3.097 -12.741,-2.992c-7.926,0 -14.824,3.032 -20.695,9.098c-5.761,5.703 -8.914,13.543 -8.707,21.647c0,8.971 2.902,16.326 8.707,22.067c5.39,5.792 12.993,9.033 20.904,8.911c4.343,0.081 8.642,-0.884 12.532,-2.815c3.619,-1.625 6.759,-4.157 9.114,-7.349l23.201,0c-4.419,9.604 -10.432,16.959 -18.039,22.065c-7.322,4.905 -16.344,7.355 -27.065,7.352c-13.091,0.206 -25.689,-5.074 -34.721,-14.553c-9.534,-9.699 -14.303,-21.732 -14.306,-36.099c-0.018,-6.633 1.358,-13.197 4.039,-19.264c5.214,-11.893 14.682,-21.422 26.54,-26.712c5.933,-2.389 12.269,-3.618 18.665,-3.621c10.514,0 19.533,2.45 27.056,7.35c7.815,5.459 14.036,13.193 18.663,23.202" style="fill-rule:nonzero;"/>        </g>        <g transform="matrix(1,0,0,1,-150.279,-333.875)">            <path d="M787,384.295l3.041,-6.722l37.597,-41.829l20.901,0l-39.038,47.952l39.038,48.557l-20.901,0l-37.597,-40.071l-3.041,-7.887Zm3.041,47.958l-18.665,0l0,-40.071l-12.509,0l-0.623,-14.609l13.132,0l0,-41.829l18.665,0l0,96.509Z" style="fill-rule:nonzero;"/>        </g>        <g transform="matrix(1,0,0,1,-150.279,-333.875)">            <path d="M636.261,366.082c0,0 -0.001,0 -0.002,0c-8.321,0 -15.169,-6.848 -15.169,-15.169c0,-8.322 6.848,-15.169 15.169,-15.169c8.322,0 15.169,6.847 15.169,15.169c0,0.004 0,0.008 0,0.012c-0.004,8.317 -6.85,15.158 -15.167,15.157" style="fill:rgb(16,137,72);fill-rule:nonzero;"/>        </g>    </g></svg>