<?xml version="1.0" encoding="UTF-8" standalone="no"?><!DOCTYPE svg PUBLIC "-//W3C//DTD SVG 1.1//EN" "http://www.w3.org/Graphics/SVG/1.1/DTD/svg11.dtd"><svg width="100%" height="100%" viewBox="0 0 1024 512" version="1.1" xmlns="http://www.w3.org/2000/svg" xmlns:xlink="http://www.w3.org/1999/xlink" xml:space="preserve" style="fill-rule:evenodd;clip-rule:evenodd;stroke-linejoin:round;stroke-miterlimit:2;"><title>PeerBerry</title><desc>PeerBerry is a peer-to-peer marketplace offering an opportunity to invest in issued non-banking lenders loans from across Europe.PeerBerry utilises the most modern online tools and solutions to provide a trustworthy, simple and fast service.PeerBerry is the ultimate alternative investment marketplace with up to 13.7% return on investment and easy to use cutting edge investment tools. Our clients are the cornerstone of our business and our biggest assets.</desc>    <g transform="matrix(0.412121,0,0,0.412121,-279.273,129.322)">        <g transform="matrix(4.32727,0,0,4.32727,807.352,210.831)">            <g transform="matrix(0.999998,0,0,0.999998,-39.5001,-41.6883)">                <path d="M69,9l0,25.6c-3.31,0.31 -6.32,0.35 -9.24,0.9c-12.81,2.4 -22.78,14 -23,27.07c-0.24,15 -0.15,30 -0.21,45l0,3.1c-1.44,-1 -2.59,-1.66 -3.65,-2.46c-18.09,-13.402 -26.203,-36.617 -20.4,-58.37c5.62,-21.57 23.7,-37.37 46.23,-40.46c0.348,-0.085 0.684,-0.212 1,-0.38l9.27,0Z" style="fill:rgb(72,72,72);fill-rule:nonzero;"/>            </g>            <g transform="matrix(0.999998,0,0,0.999998,-39.5001,-41.6883)">                <path d="M46.09,85.55c3.965,3.465 8.756,5.852 13.91,6.93c6.913,1.374 14.095,0.209 20.22,-3.28c0.827,-0.454 1.808,-0.538 2.7,-0.23c10.707,5.887 21.207,5.583 31.5,-0.91c0.17,-0.11 0.38,-0.17 0.89,-0.4c-2.181,4.977 -5.228,9.528 -9,13.44c-16.21,16.64 -35.54,21.59 -57.85,15.22c-1.88,-0.54 -2.46,-1.42 -2.43,-3.38c0.12,-8.23 0.05,-16.46 0.05,-24.7l0.01,-2.69Z" style="fill:rgb(78,182,135);fill-rule:nonzero;"/>            </g>            <g transform="matrix(0.999998,0,0,0.999998,-39.5001,-41.6883)">                <path d="M89.28,81.18c7.35,-11.47 7.39,-22.84 0.17,-34.22c5.8,-4.22 16.45,-2.6 22.35,3.4c6.71,6.867 7.415,17.713 1.65,25.39c-5.61,7.43 -16.18,9.84 -24.17,5.43Z" style="fill:rgb(78,182,135);fill-rule:nonzero;"/>            </g>            <g transform="matrix(0.999998,0,0,0.999998,-39.5001,-41.6883)">                <path d="M74.32,81.11c-6.55,3.88 -15.73,2.59 -21.91,-3c-6.042,-5.73 -7.771,-14.73 -4.28,-22.29c3.77,-8 11.59,-12.13 20.77,-10.86l0,18.15c-0.156,6.066 1.562,12.036 4.92,17.09c0.18,0.26 0.33,0.59 0.5,0.91Z" style="fill:rgb(72,72,72);fill-rule:nonzero;"/>            </g>            <g transform="matrix(0.999998,0,0,0.999998,-39.5001,-41.6883)">                <path d="M115.39,40.59c-5.172,-3.722 -11.398,-5.702 -17.77,-5.65c-5.081,0.063 -10.06,1.441 -14.45,4c-1.72,1 -4.68,-0.5 -4.68,-2.41l0,-25.35c0.027,-0.144 0.077,-0.283 0.15,-0.41c12.69,1.82 29.65,13.63 36.75,29.82Z" style="fill:rgb(78,182,135);fill-rule:nonzero;"/>            </g>            <g transform="matrix(0.999998,0,0,0.999998,-39.5001,-41.6883)">                <path d="M82,53.66c4.16,5.9 4.12,15.2 -0.08,20.57c-4.26,-4.47 -4.4,-15.8 0.08,-20.57Z" style="fill:rgb(78,182,135);fill-rule:nonzero;"/>            </g>        </g>        <g transform="matrix(1.36175,0,0,0.6817,-1057.22,-154.357)">            <g transform="matrix(284.449,0,0,576,1730,863.456)">                <path d="M0.61,-0.49c0,0.041 -0.008,0.076 -0.023,0.104c-0.015,0.029 -0.036,0.052 -0.062,0.069c-0.026,0.017 -0.056,0.03 -0.09,0.038c-0.034,0.008 -0.069,0.012 -0.106,0.012l-0.085,0l0,0.267l-0.171,0l0,-0.708l0.26,0c0.039,0 0.075,0.004 0.109,0.011c0.033,0.008 0.063,0.02 0.088,0.037c0.025,0.017 0.044,0.04 0.059,0.067c0.014,0.028 0.021,0.062 0.021,0.103Zm-0.171,0.001c0,-0.017 -0.003,-0.03 -0.01,-0.041c-0.007,-0.011 -0.016,-0.019 -0.027,-0.025c-0.011,-0.006 -0.024,-0.01 -0.038,-0.012c-0.015,-0.002 -0.03,-0.003 -0.045,-0.003l-0.075,0l0,0.167l0.072,0c0.016,0 0.031,-0.001 0.046,-0.004c0.015,-0.003 0.028,-0.007 0.04,-0.014c0.011,-0.007 0.02,-0.015 0.027,-0.026c0.007,-0.012 0.01,-0.025 0.01,-0.042Z" style="fill:rgb(72,72,72);fill-rule:nonzero;"/>            </g>            <g transform="matrix(284.449,0,0,576,1897.83,863.456)">                <path d="M0.407,-0.306c0,-0.026 -0.008,-0.048 -0.025,-0.067c-0.016,-0.019 -0.04,-0.028 -0.073,-0.028c-0.016,0 -0.031,0.003 -0.044,0.008c-0.013,0.005 -0.025,0.011 -0.035,0.02c-0.01,0.009 -0.018,0.019 -0.024,0.03c-0.006,0.012 -0.009,0.024 -0.01,0.037l0.211,0Zm0.151,0.063l0,0.02c0,0.007 0,0.013 -0.001,0.019l-0.361,0c0.001,0.014 0.005,0.027 0.012,0.038c0.007,0.011 0.016,0.021 0.027,0.029c0.011,0.009 0.024,0.015 0.037,0.02c0.014,0.005 0.028,0.007 0.043,0.007c0.026,0 0.048,-0.005 0.066,-0.014c0.018,-0.01 0.033,-0.023 0.044,-0.038l0.114,0.072c-0.023,0.034 -0.054,0.06 -0.093,0.079c-0.038,0.018 -0.082,0.027 -0.133,0.027c-0.037,0 -0.073,-0.006 -0.106,-0.018c-0.033,-0.011 -0.063,-0.028 -0.088,-0.051c-0.025,-0.022 -0.044,-0.049 -0.059,-0.082c-0.014,-0.033 -0.021,-0.07 -0.021,-0.112c0,-0.041 0.007,-0.078 0.021,-0.11c0.014,-0.034 0.033,-0.062 0.057,-0.085c0.024,-0.022 0.052,-0.04 0.085,-0.053c0.033,-0.013 0.068,-0.019 0.106,-0.019c0.037,0 0.07,0.006 0.101,0.019c0.031,0.012 0.057,0.03 0.079,0.053c0.022,0.023 0.039,0.052 0.051,0.085c0.013,0.033 0.019,0.071 0.019,0.114Z" style="fill:rgb(72,72,72);fill-rule:nonzero;"/>            </g>            <g transform="matrix(284.449,0,0,576,2067.36,863.456)">                <path d="M0.407,-0.306c0,-0.026 -0.008,-0.048 -0.025,-0.067c-0.016,-0.019 -0.04,-0.028 -0.073,-0.028c-0.016,0 -0.031,0.003 -0.044,0.008c-0.013,0.005 -0.025,0.011 -0.035,0.02c-0.01,0.009 -0.018,0.019 -0.024,0.03c-0.006,0.012 -0.009,0.024 -0.01,0.037l0.211,0Zm0.151,0.063l0,0.02c0,0.007 0,0.013 -0.001,0.019l-0.361,0c0.001,0.014 0.005,0.027 0.012,0.038c0.007,0.011 0.016,0.021 0.027,0.029c0.011,0.009 0.024,0.015 0.037,0.02c0.014,0.005 0.028,0.007 0.043,0.007c0.026,0 0.048,-0.005 0.066,-0.014c0.018,-0.01 0.033,-0.023 0.044,-0.038l0.114,0.072c-0.023,0.034 -0.054,0.06 -0.093,0.079c-0.038,0.018 -0.082,0.027 -0.133,0.027c-0.037,0 -0.073,-0.006 -0.106,-0.018c-0.033,-0.011 -0.063,-0.028 -0.088,-0.051c-0.025,-0.022 -0.044,-0.049 -0.059,-0.082c-0.014,-0.033 -0.021,-0.07 -0.021,-0.112c0,-0.041 0.007,-0.078 0.021,-0.11c0.014,-0.034 0.033,-0.062 0.057,-0.085c0.024,-0.022 0.052,-0.04 0.085,-0.053c0.033,-0.013 0.068,-0.019 0.106,-0.019c0.037,0 0.07,0.006 0.101,0.019c0.031,0.012 0.057,0.03 0.079,0.053c0.022,0.023 0.039,0.052 0.051,0.085c0.013,0.033 0.019,0.071 0.019,0.114Z" style="fill:rgb(72,72,72);fill-rule:nonzero;"/>            </g>            <g transform="matrix(284.449,0,0,576,2236.89,863.456)">                <path d="M0.387,-0.364c-0.007,-0.002 -0.015,-0.003 -0.022,-0.004c-0.007,-0.001 -0.013,-0.001 -0.02,-0.001c-0.022,0 -0.04,0.004 -0.055,0.012c-0.015,0.008 -0.027,0.018 -0.036,0.029c-0.009,0.011 -0.016,0.024 -0.02,0.037c-0.004,0.013 -0.006,0.025 -0.006,0.035l0,0.256l-0.164,0l0,-0.498l0.158,0l0,0.072l0.002,0c0.013,-0.025 0.031,-0.046 0.054,-0.062c0.023,-0.016 0.05,-0.024 0.081,-0.024c0.007,0 0.013,0 0.019,0.001c0.007,0.001 0.012,0.002 0.016,0.003l-0.007,0.144Z" style="fill:rgb(72,72,72);fill-rule:nonzero;"/>            </g>            <g transform="matrix(284.449,0,0,576,2349.53,863.456)">                <path d="M0.625,-0.206c0,0.039 -0.008,0.071 -0.023,0.098c-0.015,0.026 -0.036,0.047 -0.061,0.063c-0.025,0.016 -0.054,0.028 -0.086,0.035c-0.033,0.007 -0.066,0.01 -0.1,0.01l-0.282,0l0,-0.708l0.282,0c0.027,0 0.055,0.003 0.084,0.008c0.029,0.006 0.055,0.016 0.078,0.029c0.023,0.014 0.042,0.033 0.057,0.056c0.015,0.023 0.022,0.053 0.022,0.089c0,0.039 -0.011,0.072 -0.032,0.097c-0.021,0.026 -0.049,0.045 -0.084,0.056l0,0.002c0.02,0.003 0.039,0.009 0.057,0.018c0.017,0.009 0.033,0.021 0.046,0.035c0.013,0.014 0.023,0.03 0.031,0.049c0.007,0.019 0.011,0.04 0.011,0.063Zm-0.194,-0.297c0,-0.024 -0.009,-0.042 -0.027,-0.053c-0.019,-0.011 -0.046,-0.016 -0.082,-0.016l-0.084,0l0,0.146l0.092,0c0.032,0 0.057,-0.007 0.075,-0.02c0.017,-0.013 0.026,-0.032 0.026,-0.057Zm0.023,0.281c0,-0.029 -0.011,-0.05 -0.033,-0.061c-0.022,-0.011 -0.051,-0.017 -0.088,-0.017l-0.095,0l0,0.162l0.096,0c0.013,0 0.027,-0.001 0.041,-0.004c0.015,-0.002 0.028,-0.006 0.039,-0.012c0.012,-0.006 0.022,-0.015 0.029,-0.025c0.007,-0.012 0.011,-0.026 0.011,-0.043Z" style="fill:rgb(72,72,72);fill-rule:nonzero;"/>            </g>            <g transform="matrix(284.449,0,0,576,2538.69,863.456)">                <path d="M0.407,-0.306c0,-0.026 -0.008,-0.048 -0.025,-0.067c-0.016,-0.019 -0.04,-0.028 -0.073,-0.028c-0.016,0 -0.031,0.003 -0.044,0.008c-0.013,0.005 -0.025,0.011 -0.035,0.02c-0.01,0.009 -0.018,0.019 -0.024,0.03c-0.006,0.012 -0.009,0.024 -0.01,0.037l0.211,0Zm0.151,0.063l0,0.02c0,0.007 0,0.013 -0.001,0.019l-0.361,0c0.001,0.014 0.005,0.027 0.012,0.038c0.007,0.011 0.016,0.021 0.027,0.029c0.011,0.009 0.024,0.015 0.037,0.02c0.014,0.005 0.028,0.007 0.043,0.007c0.026,0 0.048,-0.005 0.066,-0.014c0.018,-0.01 0.033,-0.023 0.044,-0.038l0.114,0.072c-0.023,0.034 -0.054,0.06 -0.093,0.079c-0.038,0.018 -0.082,0.027 -0.133,0.027c-0.037,0 -0.073,-0.006 -0.106,-0.018c-0.033,-0.011 -0.063,-0.028 -0.088,-0.051c-0.025,-0.022 -0.044,-0.049 -0.059,-0.082c-0.014,-0.033 -0.021,-0.07 -0.021,-0.112c0,-0.041 0.007,-0.078 0.021,-0.11c0.014,-0.034 0.033,-0.062 0.057,-0.085c0.024,-0.022 0.052,-0.04 0.085,-0.053c0.033,-0.013 0.068,-0.019 0.106,-0.019c0.037,0 0.07,0.006 0.101,0.019c0.031,0.012 0.057,0.03 0.079,0.053c0.022,0.023 0.039,0.052 0.051,0.085c0.013,0.033 0.019,0.071 0.019,0.114Z" style="fill:rgb(72,72,72);fill-rule:nonzero;"/>            </g>            <g transform="matrix(284.449,0,0,576,2708.22,863.456)">                <path d="M0.387,-0.364c-0.007,-0.002 -0.015,-0.003 -0.022,-0.004c-0.007,-0.001 -0.013,-0.001 -0.02,-0.001c-0.022,0 -0.04,0.004 -0.055,0.012c-0.015,0.008 -0.027,0.018 -0.036,0.029c-0.009,0.011 -0.016,0.024 -0.02,0.037c-0.004,0.013 -0.006,0.025 -0.006,0.035l0,0.256l-0.164,0l0,-0.498l0.158,0l0,0.072l0.002,0c0.013,-0.025 0.031,-0.046 0.054,-0.062c0.023,-0.016 0.05,-0.024 0.081,-0.024c0.007,0 0.013,0 0.019,0.001c0.007,0.001 0.012,0.002 0.016,0.003l-0.007,0.144Z" style="fill:rgb(72,72,72);fill-rule:nonzero;"/>            </g>            <g transform="matrix(284.449,0,0,576,2820.86,863.456)">                <path d="M0.387,-0.364c-0.007,-0.002 -0.015,-0.003 -0.022,-0.004c-0.007,-0.001 -0.013,-0.001 -0.02,-0.001c-0.022,0 -0.04,0.004 -0.055,0.012c-0.015,0.008 -0.027,0.018 -0.036,0.029c-0.009,0.011 -0.016,0.024 -0.02,0.037c-0.004,0.013 -0.006,0.025 -0.006,0.035l0,0.256l-0.164,0l0,-0.498l0.158,0l0,0.072l0.002,0c0.013,-0.025 0.031,-0.046 0.054,-0.062c0.023,-0.016 0.05,-0.024 0.081,-0.024c0.007,0 0.013,0 0.019,0.001c0.007,0.001 0.012,0.002 0.016,0.003l-0.007,0.144Z" style="fill:rgb(72,72,72);fill-rule:nonzero;"/>            </g>            <g transform="matrix(284.449,0,0,576,2933.51,863.456)">                <path d="M0.345,0.075c-0.01,0.026 -0.021,0.049 -0.034,0.069c-0.012,0.021 -0.027,0.038 -0.044,0.052c-0.017,0.015 -0.037,0.026 -0.06,0.033c-0.023,0.007 -0.05,0.011 -0.081,0.011c-0.015,0 -0.031,-0.001 -0.048,-0.003c-0.016,-0.002 -0.03,-0.005 -0.042,-0.008l0.018,-0.138c0.008,0.003 0.017,0.005 0.026,0.007c0.01,0.001 0.019,0.002 0.027,0.002c0.025,0 0.044,-0.006 0.055,-0.018c0.011,-0.011 0.021,-0.028 0.029,-0.049l0.016,-0.041l-0.208,-0.49l0.182,0l0.111,0.32l0.003,0l0.099,-0.32l0.174,0l-0.223,0.573Z" style="fill:rgb(72,72,72);fill-rule:nonzero;"/>            </g>        </g>    </g></svg>