<?xml version="1.0" encoding="UTF-8" standalone="no"?><!DOCTYPE svg PUBLIC "-//W3C//DTD SVG 1.1//EN" "http://www.w3.org/Graphics/SVG/1.1/DTD/svg11.dtd"><svg width="100%" height="100%" viewBox="0 0 1024 512" version="1.1" xmlns="http://www.w3.org/2000/svg" xmlns:xlink="http://www.w3.org/1999/xlink" xml:space="preserve" style="fill-rule:evenodd;clip-rule:evenodd;stroke-linejoin:round;stroke-miterlimit:2;"><title>ThinCats</title><desc>ThinCats is a leading alternative finance provider dedicated to funding growing and ambitious SMEs across the UK.ThinCats specialises in business loans from £1m up to £15m for working capital, growth finance, acquisitions (including MBOs and MBIs), refinance and asset purchase purposes.ThinCats has £700m of lending capital enabling us to price across a broad credit risk spectrum and tailor solutions to SMEs nationwide.</desc>    <g transform="matrix(2.07199,0,0,2.07199,193.222,1.00104)">        <path d="M140.795,170.766c-1.296,0 -2.362,-1.066 -2.362,-2.362c0,0 0,-0.001 0,-0.001l0,-165.963c0.026,-1.278 1.085,-2.314 2.362,-2.314c1.278,0 2.337,1.036 2.363,2.314l0,165.96c0,1.296 -1.067,2.363 -2.363,2.363" style="fill:rgb(52,56,55);fill-rule:nonzero;"/>        <path d="M153.643,170.766c-1.296,0 -2.363,-1.067 -2.363,-2.363l0,-165.963c0,-1.296 1.067,-2.363 2.363,-2.363c1.296,0 2.363,1.067 2.363,2.363l0,165.96c0,1.296 -1.067,2.363 -2.363,2.363" style="fill:rgb(52,56,55);fill-rule:nonzero;"/>        <path d="M166.492,170.766c-1.296,0 -2.363,-1.067 -2.363,-2.363l0,-165.963c0.026,-1.278 1.085,-2.314 2.362,-2.314c1.278,0 2.337,1.036 2.363,2.314l0,165.96c0,1.296 -1.066,2.362 -2.362,2.363" style="fill:rgb(52,56,55);fill-rule:nonzero;"/>        <path d="M242.007,30.418l-66.075,0c-0.016,0 -0.032,0 -0.049,0c-1.295,0 -2.361,-1.065 -2.361,-2.361c0,-1.295 1.066,-2.361 2.361,-2.361c0.017,0 0.033,0.001 0.049,0.001l66.075,0c0.016,0 0.032,-0.001 0.049,-0.001c1.295,0 2.361,1.066 2.361,2.361c0,1.296 -1.066,2.361 -2.361,2.361c-0.017,0 -0.033,0 -0.049,0" style="fill:rgb(52,56,55);fill-rule:nonzero;"/>        <path d="M242.007,17.569l-66.075,0c-0.016,0 -0.032,0 -0.049,0c-1.295,0 -2.361,-1.065 -2.361,-2.361c0,-1.295 1.066,-2.361 2.361,-2.361c0.017,0.001 0.033,0.001 0.049,0.001l66.075,0c0.016,0 0.032,0 0.049,0c1.295,0 2.361,1.065 2.361,2.361c0,1.295 -1.066,2.361 -2.361,2.361c-0.017,0 -0.033,-0.001 -0.049,-0.001" style="fill:rgb(52,56,55);fill-rule:nonzero;"/>        <path d="M242.007,4.721l-66.075,0c-0.016,0 -0.032,0.001 -0.049,0.001c-1.295,0 -2.361,-1.066 -2.361,-2.362c0,-1.295 1.066,-2.361 2.361,-2.361c0.017,0 0.033,0.001 0.049,0.001l66.075,0c0.016,0 0.032,-0.001 0.049,-0.001c1.295,0 2.361,1.066 2.361,2.361c0,1.296 -1.066,2.362 -2.361,2.362c-0.017,0 -0.033,-0.001 -0.049,-0.001" style="fill:rgb(52,56,55);fill-rule:nonzero;"/>        <path d="M130.831,30.418l-65.29,0c-0.016,0 -0.032,0 -0.049,0c-1.295,0 -2.361,-1.065 -2.361,-2.361c0,-1.295 1.066,-2.361 2.361,-2.361c0.017,0 0.033,0.001 0.049,0.001l65.29,0c0.016,0 0.032,-0.001 0.049,-0.001c1.295,0 2.361,1.066 2.361,2.361c0,1.296 -1.066,2.361 -2.361,2.361c-0.017,0 -0.033,0 -0.049,0" style="fill:rgb(52,56,55);fill-rule:nonzero;"/>        <path d="M130.831,17.569l-65.29,0c-0.016,0 -0.032,0 -0.049,0c-1.295,0 -2.361,-1.065 -2.361,-2.361c0,-1.295 1.066,-2.361 2.361,-2.361c0.017,0.001 0.033,0.001 0.049,0.001l65.29,0c0.016,0 0.032,0 0.049,0c1.295,0 2.361,1.065 2.361,2.361c0,1.295 -1.066,2.361 -2.361,2.361c-0.017,0 -0.033,-0.001 -0.049,-0.001" style="fill:rgb(52,56,55);fill-rule:nonzero;"/>        <path d="M130.831,4.721l-65.29,0c-0.016,0 -0.032,0.001 -0.049,0.001c-1.295,0 -2.361,-1.066 -2.361,-2.362c0,-1.295 1.066,-2.361 2.361,-2.361c0.017,0 0.033,0.001 0.049,0.001l65.29,0c0.016,0 0.032,-0.001 0.049,-0.001c1.295,0 2.361,1.066 2.361,2.361c0,1.296 -1.066,2.362 -2.361,2.362c-0.017,0 -0.033,-0.001 -0.049,-0.001" style="fill:rgb(52,56,55);fill-rule:nonzero;"/>        <path d="M296.1,229.379c5.098,0.884 7.647,3.069 7.647,6.555c0,4.109 -3.746,6.5 -8.9,6.5c-4.622,0.182 -9.033,-1.995 -11.7,-5.774l-2.7,2.809c3.317,4.311 8.503,6.786 13.941,6.654c3.462,0.16 6.876,-0.867 9.676,-2.909c2.326,-1.711 3.683,-4.448 3.637,-7.335c0,-5.774 -4.053,-9.311 -11.076,-10.4l-3.594,-0.624c-5.15,-0.832 -7.751,-2.969 -7.751,-6.4c0,-3.693 3.538,-6.242 8.323,-6.242c3.957,-0.083 7.734,1.69 10.2,4.786l2.649,-2.913c-3.164,-3.594 -7.749,-5.627 -12.537,-5.558c-3.167,-0.062 -6.27,0.902 -8.844,2.748c-2.406,1.652 -3.816,4.417 -3.741,7.335c-0.099,2.562 0.972,5.035 2.909,6.715c2.118,1.745 4.672,2.878 7.387,3.278l4.474,0.775Zm-56.7,-16.547l11.341,0l0,32.721l3.949,0l0,-32.721l11.653,0l0,-3.741l-26.949,0l0.006,3.741Zm-16.5,20.557l-14.77,0l7.335,-19.2l7.435,19.2Zm-9.619,-24.3l-14.254,36.462l4.318,0l3.225,-8.375l17.787,0l3.329,8.375l4.266,0l-14.2,-36.462l-4.471,0Zm-28.512,27.883c-2.756,3.45 -6.939,5.462 -11.355,5.462c-3.882,0 -7.608,-1.556 -10.337,-4.318c-2.699,-2.904 -4.156,-6.753 -4.058,-10.716c-0.111,-3.988 1.325,-7.869 4.006,-10.824c2.622,-2.788 6.284,-4.37 10.111,-4.37c4.28,0 8.329,1.98 10.957,5.358l2.653,-2.809c-3.294,-4.12 -8.358,-6.436 -13.629,-6.234c-4.89,-0.112 -9.597,1.898 -12.9,5.506c-3.403,3.608 -5.253,8.414 -5.146,13.373c-0.111,4.937 1.764,9.718 5.2,13.265c3.392,3.601 8.164,5.588 13.109,5.458c5.327,0.032 10.415,-2.245 13.941,-6.238l-2.552,-2.913Zm-45.57,8.579l0,-36.46l-4,0l0,29.647l-20.708,-29.647l-4.054,0l0,36.462l3.95,0l0,-29.543l20.708,29.543l4.104,-0.002Zm-47.027,-36.46l-3.945,0l0,36.462l3.945,0l0,-36.462Zm-22.213,36.462l0,-36.462l-3.945,0l0,16.022l-19.828,0l0,-16.022l-3.945,0l0,36.462l3.945,0l0,-16.7l19.828,0l0,16.7l3.945,0Zm-69.959,-32.721l11.34,0l0,32.721l3.95,0l0,-32.721l11.648,0l0,-3.741l-26.938,0l0,3.741Z" style="fill:rgb(52,56,55);fill-rule:nonzero;"/>    </g></svg>