<?xml version="1.0" encoding="UTF-8" standalone="no"?><!DOCTYPE svg PUBLIC "-//W3C//DTD SVG 1.1//EN" "http://www.w3.org/Graphics/SVG/1.1/DTD/svg11.dtd"><svg width="100%" height="100%" viewBox="0 0 1024 512" version="1.1" xmlns="http://www.w3.org/2000/svg" xmlns:xlink="http://www.w3.org/1999/xlink" xml:space="preserve" style="fill-rule:evenodd;clip-rule:evenodd;stroke-linejoin:round;stroke-miterlimit:2;"><title>Zakra</title><desc>ZAKRA - a social lending portal, a leader on the financial services market in Poland, enabling safe social loans.This is a very innovative method of financing the everyday needs of the consumer.Our offer is directed to natural persons, business operations and commercial law companies.</desc>    <g transform="matrix(3.72247,0,0,3.72247,8.73281,85.3205)">        <g transform="matrix(1,0,0,1,-4.61378,6.79269)">            <g transform="matrix(64,0,0,64,129.379,66.7229)">                <path d="M0.479,0l-0.459,0l0,-0.071l0.33,-0.378c-0.039,0.002 -0.072,0.003 -0.099,0.003l-0.212,0l0,-0.072l0.424,0l0,0.057l-0.281,0.328c-0.005,0.007 -0.02,0.023 -0.043,0.048c-0.005,0.005 -0.009,0.01 -0.011,0.013c0.033,-0.003 0.07,-0.004 0.111,-0.004l0.24,0l0,0.076Z" style="fill:url(#_Linear1);fill-rule:nonzero;"/>            </g>            <g transform="matrix(64,0,0,64,129.379,66.7229)">                <path d="M0.332,-0.44c-0.031,0.001 -0.058,0.002 -0.081,0.002l-0.212,0c-0.004,0 -0.008,-0.003 -0.008,-0.008l0,-0.072c0,-0.004 0.004,-0.008 0.008,-0.008l0.424,0c0.004,0 0.008,0.004 0.008,0.008l0,0.057c0,0.002 -0.001,0.004 -0.002,0.005l-0.281,0.328c-0.005,0.007 -0.019,0.023 -0.042,0.047c0.029,-0.002 0.06,-0.003 0.093,-0.003l0.24,0c0.004,0 0.008,0.004 0.008,0.008l0,0.076c0,0.004 -0.004,0.008 -0.008,0.008l-0.459,0c-0.004,0 -0.008,-0.004 -0.008,-0.008l0,-0.071c0,-0.002 0.001,-0.004 0.002,-0.005l0.318,-0.364Zm0.123,-0.024l0,-0.046l-0.408,0l0,0.056l0.204,0c0.027,0 0.06,-0.001 0.099,-0.003c0.003,0 0.006,0.002 0.007,0.004c0.001,0.003 0.001,0.007 -0.001,0.009l-0.328,0.376l0,0.06l0.443,0l0,-0.06l-0.232,0c-0.04,0 -0.077,0.001 -0.11,0.004c-0.003,0 -0.006,-0.001 -0.008,-0.004c-0.001,-0.002 -0.001,-0.005 0,-0.008c0.002,-0.004 0.006,-0.009 0.013,-0.014c0.022,-0.025 0.037,-0.041 0.042,-0.048l0.279,-0.326Z" style="fill:rgb(115,104,104);"/>            </g>            <g transform="matrix(-64,0,0,64,278.754,66.7229)">                <path d="M0.516,0l-0.092,0c-0.009,-0.016 -0.015,-0.038 -0.018,-0.064c-0.059,0.051 -0.123,0.076 -0.191,0.076c-0.055,0 -0.098,-0.013 -0.13,-0.041c-0.031,-0.027 -0.047,-0.063 -0.047,-0.108c0,-0.043 0.015,-0.079 0.046,-0.106c0.03,-0.028 0.083,-0.047 0.158,-0.056l0.082,-0.012c0.031,-0.005 0.056,-0.011 0.076,-0.018c0,-0.026 -0.001,-0.045 -0.003,-0.056c-0.001,-0.011 -0.006,-0.022 -0.014,-0.034c-0.008,-0.012 -0.021,-0.021 -0.038,-0.028c-0.018,-0.007 -0.041,-0.011 -0.071,-0.011c-0.038,0 -0.068,0.007 -0.09,0.021c-0.022,0.014 -0.037,0.04 -0.045,0.078l-0.086,-0.011c0.01,-0.053 0.034,-0.093 0.073,-0.12c0.039,-0.026 0.093,-0.04 0.161,-0.04c0.062,0 0.108,0.009 0.137,0.028c0.029,0.018 0.047,0.04 0.054,0.066c0.006,0.026 0.01,0.06 0.01,0.101l0,0.118c0,0.072 0.001,0.12 0.004,0.145c0.003,0.025 0.011,0.049 0.024,0.072Zm-0.116,-0.228l0,-0.032c-0.046,0.016 -0.102,0.028 -0.169,0.037c-0.066,0.009 -0.099,0.037 -0.099,0.084c0,0.024 0.009,0.043 0.027,0.059c0.018,0.015 0.043,0.023 0.077,0.023c0.043,0 0.081,-0.013 0.114,-0.039c0.033,-0.026 0.05,-0.07 0.05,-0.132Z" style="fill:url(#_Linear2);fill-rule:nonzero;"/>            </g>            <g transform="matrix(-64,0,0,64,278.754,66.7229)">                <path d="M0.4,-0.049c0.004,0.021 0.01,0.039 0.017,0.053c0.001,0.002 0.004,0.004 0.007,0.004l0.092,0c0.003,0 0.005,-0.002 0.007,-0.004c0.001,-0.002 0.001,-0.005 0,-0.008c-0.013,-0.022 -0.021,-0.045 -0.023,-0.069c-0.003,-0.024 -0.004,-0.072 -0.004,-0.144c0,0 0,-0.118 0,-0.118c0,-0.042 -0.004,-0.076 -0.011,-0.102c-0.007,-0.028 -0.026,-0.052 -0.057,-0.072c-0.03,-0.019 -0.077,-0.029 -0.141,-0.029c-0.07,0 -0.125,0.014 -0.165,0.042c-0.041,0.028 -0.067,0.069 -0.076,0.125c-0.001,0.002 0,0.004 0.001,0.006c0.001,0.001 0.003,0.002 0.005,0.003l0.086,0.011c0.004,0 0.008,-0.002 0.009,-0.006c0.007,-0.036 0.021,-0.06 0.042,-0.073c0.02,-0.014 0.049,-0.02 0.085,-0.02c0.028,0 0.051,0.003 0.068,0.01c0.016,0.006 0.027,0.015 0.035,0.025c0.007,0.011 0.011,0.021 0.013,0.031c0.001,0.01 0.002,0.026 0.002,0.049c-0.019,0.007 -0.042,0.012 -0.069,0.016l-0.082,0.012c-0.077,0.01 -0.131,0.029 -0.163,0.058c-0.032,0.029 -0.048,0.066 -0.048,0.112c0,0.047 0.017,0.085 0.05,0.114c0.033,0.029 0.078,0.043 0.135,0.043c0.066,0 0.128,-0.023 0.185,-0.069Zm-0.338,-0.328c0.01,-0.047 0.033,-0.082 0.068,-0.106c0.038,-0.026 0.091,-0.039 0.157,-0.039c0.06,0 0.105,0.009 0.133,0.026c0.027,0.018 0.044,0.038 0.05,0.062c0.007,0.026 0.01,0.059 0.01,0.099l0,0.118c0,0.073 0.001,0.121 0.004,0.146c0.003,0.021 0.009,0.042 0.019,0.063l-0.074,0c-0.007,-0.015 -0.012,-0.034 -0.015,-0.057c-0.001,-0.003 -0.003,-0.005 -0.005,-0.006c-0.003,-0.001 -0.006,-0.001 -0.008,0.001c-0.058,0.05 -0.12,0.074 -0.186,0.074c-0.053,0 -0.094,-0.012 -0.124,-0.039c-0.03,-0.026 -0.045,-0.06 -0.045,-0.102c0,-0.041 0.014,-0.074 0.043,-0.101c0.03,-0.027 0.081,-0.044 0.154,-0.053l0.082,-0.012c0.032,-0.005 0.057,-0.011 0.078,-0.019c0.003,-0.001 0.005,-0.004 0.005,-0.007c0,-0.027 -0.001,-0.046 -0.003,-0.057c-0.002,-0.012 -0.007,-0.025 -0.015,-0.037c-0.009,-0.013 -0.023,-0.024 -0.042,-0.032c-0.019,-0.007 -0.043,-0.011 -0.074,-0.011c-0.04,0 -0.071,0.008 -0.094,0.022c-0.022,0.014 -0.038,0.04 -0.047,0.076l-0.071,-0.009Zm0.346,0.149c0,0.065 -0.018,0.111 -0.053,0.138c-0.034,0.027 -0.074,0.041 -0.119,0.041c-0.036,0 -0.063,-0.009 -0.082,-0.025c-0.02,-0.017 -0.03,-0.039 -0.03,-0.065c0,-0.051 0.035,-0.082 0.106,-0.092c0.066,-0.009 0.122,-0.021 0.167,-0.036c0.003,-0.001 0.005,-0.001 0.007,0.001c0.003,0.001 0.004,0.004 0.004,0.006c0,0 0,0.032 0,0.032Zm-0.016,-0.021l0,0.021c0,0.059 -0.015,0.101 -0.046,0.126c-0.032,0.025 -0.069,0.037 -0.11,0.037c-0.031,0 -0.056,-0.007 -0.072,-0.021c-0.016,-0.014 -0.024,-0.032 -0.024,-0.053c0,-0.044 0.031,-0.068 0.092,-0.077c0.063,-0.008 0.116,-0.019 0.16,-0.033Z" style="fill:rgb(115,104,104);"/>            </g>            <g transform="matrix(64,0,0,64,191.973,66.7229)">                <path d="M0.496,0l-0.108,0l-0.172,-0.265l-0.062,0.059l0,0.206l-0.088,0l0,-0.716l0.088,0l0,0.408l0.208,-0.21l0.114,0l-0.198,0.192l0.218,0.326Z" style="fill:url(#_Linear3);fill-rule:nonzero;"/>            </g>            <g transform="matrix(64,0,0,64,191.973,66.7229)">                <path d="M0.162,-0.203l0,0.203c0,0.004 -0.004,0.008 -0.008,0.008l-0.088,0c-0.004,0 -0.008,-0.004 -0.008,-0.008l0,-0.716c0,-0.004 0.004,-0.008 0.008,-0.008l0.088,0c0.004,0 0.008,0.004 0.008,0.008l0,0.389l0.194,-0.197c0.002,-0.001 0.004,-0.002 0.006,-0.002l0.114,0c0.003,0 0.006,0.002 0.007,0.005c0.002,0.003 0.001,0.006 -0.001,0.009l-0.194,0.187l0.215,0.321c0.001,0.002 0.001,0.005 0,0.008c-0.001,0.002 -0.004,0.004 -0.007,0.004l-0.108,0c-0.002,0 -0.005,-0.002 -0.006,-0.004l-0.168,-0.257l-0.052,0.05Zm-0.016,-0.505l-0.072,0l0,0.7l0.072,0l0,-0.198c0,-0.002 0.001,-0.004 0.002,-0.006l0.062,-0.059c0.002,-0.001 0.004,-0.002 0.007,-0.002c0.002,0 0.004,0.002 0.005,0.004l0.17,0.261l0.089,0l-0.21,-0.314c-0.002,-0.003 -0.001,-0.007 0.001,-0.01l0.185,-0.178l-0.092,0l-0.206,0.207c-0.002,0.003 -0.005,0.003 -0.008,0.002c-0.003,-0.001 -0.005,-0.004 -0.005,-0.007l0,-0.4Z" style="fill:rgb(115,104,104);"/>            </g>            <g transform="matrix(64,0,0,64,223.973,66.7229)">                <path d="M0.346,-0.502l-0.03,0.081c-0.022,-0.013 -0.043,-0.019 -0.064,-0.019c-0.033,0 -0.058,0.015 -0.075,0.044c-0.017,0.03 -0.025,0.071 -0.025,0.124l0,0.272l-0.088,0l0,-0.518l0.08,0l0,0.078l0.002,0c0.028,-0.06 0.065,-0.09 0.11,-0.09c0.03,0 0.06,0.009 0.09,0.028Z" style="fill:url(#_Linear4);fill-rule:nonzero;"/>            </g>            <g transform="matrix(64,0,0,64,223.973,66.7229)">                <path d="M0.152,-0.468c0.028,-0.047 0.063,-0.07 0.104,-0.07c0.031,0 0.063,0.01 0.094,0.029c0.003,0.002 0.005,0.006 0.004,0.01l-0.031,0.081c-0.001,0.002 -0.002,0.004 -0.004,0.004c-0.003,0.001 -0.005,0.001 -0.007,0c-0.02,-0.012 -0.04,-0.018 -0.06,-0.018c-0.03,0 -0.053,0.013 -0.068,0.04c-0.016,0.029 -0.024,0.069 -0.024,0.12l0,0.272c0,0.004 -0.004,0.008 -0.008,0.008l-0.088,0c-0.004,0 -0.008,-0.004 -0.008,-0.008l0,-0.518c0,-0.004 0.004,-0.008 0.008,-0.008l0.08,0c0.004,0 0.008,0.004 0.008,0.008l0,0.05Zm0.185,-0.031c-0.027,-0.015 -0.054,-0.023 -0.081,-0.023c-0.043,0 -0.077,0.029 -0.103,0.085c-0.001,0.003 -0.004,0.005 -0.007,0.005l-0.002,0c-0.004,0 -0.008,-0.004 -0.008,-0.008l0,-0.07l-0.064,0l0,0.502l0.072,0l0,-0.264c0,-0.055 0.009,-0.097 0.026,-0.128c0.019,-0.032 0.046,-0.048 0.082,-0.048c0.019,0 0.039,0.005 0.06,0.016l0.025,-0.067Z" style="fill:rgb(115,104,104);"/>            </g>            <g transform="matrix(-64,0,0,64,195.848,66.7229)">                <path d="M0.516,0l-0.092,0c-0.009,-0.016 -0.015,-0.038 -0.018,-0.064c-0.059,0.051 -0.123,0.076 -0.191,0.076c-0.055,0 -0.098,-0.013 -0.13,-0.041c-0.031,-0.027 -0.047,-0.063 -0.047,-0.108c0,-0.043 0.015,-0.079 0.046,-0.106c0.03,-0.028 0.083,-0.047 0.158,-0.056l0.082,-0.012c0.031,-0.005 0.056,-0.011 0.076,-0.018c0,-0.026 -0.001,-0.045 -0.003,-0.056c-0.001,-0.011 -0.006,-0.022 -0.014,-0.034c-0.008,-0.012 -0.021,-0.021 -0.038,-0.028c-0.018,-0.007 -0.041,-0.011 -0.071,-0.011c-0.038,0 -0.068,0.007 -0.09,0.021c-0.022,0.014 -0.037,0.04 -0.045,0.078l-0.086,-0.011c0.01,-0.053 0.034,-0.093 0.073,-0.12c0.039,-0.026 0.093,-0.04 0.161,-0.04c0.062,0 0.108,0.009 0.137,0.028c0.029,0.018 0.047,0.04 0.054,0.066c0.006,0.026 0.01,0.06 0.01,0.101l0,0.118c0,0.072 0.001,0.12 0.004,0.145c0.003,0.025 0.011,0.049 0.024,0.072Zm-0.116,-0.228l0,-0.032c-0.046,0.016 -0.102,0.028 -0.169,0.037c-0.066,0.009 -0.099,0.037 -0.099,0.084c0,0.024 0.009,0.043 0.027,0.059c0.018,0.015 0.043,0.023 0.077,0.023c0.043,0 0.081,-0.013 0.114,-0.039c0.033,-0.026 0.05,-0.07 0.05,-0.132Z" style="fill:url(#_Linear5);fill-rule:nonzero;"/>            </g>            <g transform="matrix(-64,0,0,64,195.848,66.7229)">                <path d="M0.4,-0.049c0.004,0.021 0.01,0.039 0.017,0.053c0.001,0.002 0.004,0.004 0.007,0.004l0.092,0c0.003,0 0.005,-0.002 0.007,-0.004c0.001,-0.002 0.001,-0.005 0,-0.008c-0.013,-0.022 -0.021,-0.045 -0.023,-0.069c-0.003,-0.024 -0.004,-0.072 -0.004,-0.144c0,0 0,-0.118 0,-0.118c0,-0.042 -0.004,-0.076 -0.011,-0.102c-0.007,-0.028 -0.026,-0.052 -0.057,-0.072c-0.03,-0.019 -0.077,-0.029 -0.141,-0.029c-0.07,0 -0.125,0.014 -0.165,0.042c-0.041,0.028 -0.067,0.069 -0.076,0.125c-0.001,0.002 0,0.004 0.001,0.006c0.001,0.001 0.003,0.002 0.005,0.003l0.086,0.011c0.004,0 0.008,-0.002 0.009,-0.006c0.007,-0.036 0.021,-0.06 0.042,-0.073c0.02,-0.014 0.049,-0.02 0.085,-0.02c0.028,0 0.051,0.003 0.068,0.01c0.016,0.006 0.027,0.015 0.035,0.025c0.007,0.011 0.011,0.021 0.013,0.031c0.001,0.01 0.002,0.026 0.002,0.049c-0.019,0.007 -0.042,0.012 -0.069,0.016l-0.082,0.012c-0.077,0.01 -0.131,0.029 -0.163,0.058c-0.032,0.029 -0.048,0.066 -0.048,0.112c0,0.047 0.017,0.085 0.05,0.114c0.033,0.029 0.078,0.043 0.135,0.043c0.066,0 0.128,-0.023 0.185,-0.069Zm-0.338,-0.328c0.01,-0.047 0.033,-0.082 0.068,-0.106c0.038,-0.026 0.091,-0.039 0.157,-0.039c0.06,0 0.105,0.009 0.133,0.026c0.027,0.018 0.044,0.038 0.05,0.062c0.007,0.026 0.01,0.059 0.01,0.099l0,0.118c0,0.073 0.001,0.121 0.004,0.146c0.003,0.021 0.009,0.042 0.019,0.063l-0.074,0c-0.007,-0.015 -0.012,-0.034 -0.015,-0.057c-0.001,-0.003 -0.003,-0.005 -0.005,-0.006c-0.003,-0.001 -0.006,-0.001 -0.008,0.001c-0.058,0.05 -0.12,0.074 -0.186,0.074c-0.053,0 -0.094,-0.012 -0.124,-0.039c-0.03,-0.026 -0.045,-0.06 -0.045,-0.102c0,-0.041 0.014,-0.074 0.043,-0.101c0.03,-0.027 0.081,-0.044 0.154,-0.053l0.082,-0.012c0.032,-0.005 0.057,-0.011 0.078,-0.019c0.003,-0.001 0.005,-0.004 0.005,-0.007c0,-0.027 -0.001,-0.046 -0.003,-0.057c-0.002,-0.012 -0.007,-0.025 -0.015,-0.037c-0.009,-0.013 -0.023,-0.024 -0.042,-0.032c-0.019,-0.007 -0.043,-0.011 -0.074,-0.011c-0.04,0 -0.071,0.008 -0.094,0.022c-0.022,0.014 -0.038,0.04 -0.047,0.076l-0.071,-0.009Zm0.346,0.149c0,0.065 -0.018,0.111 -0.053,0.138c-0.034,0.027 -0.074,0.041 -0.119,0.041c-0.036,0 -0.063,-0.009 -0.082,-0.025c-0.02,-0.017 -0.03,-0.039 -0.03,-0.065c0,-0.051 0.035,-0.082 0.106,-0.092c0.066,-0.009 0.122,-0.021 0.167,-0.036c0.003,-0.001 0.005,-0.001 0.007,0.001c0.003,0.001 0.004,0.004 0.004,0.006c0,0 0,0.032 0,0.032Zm-0.016,-0.021l0,0.021c0,0.059 -0.015,0.101 -0.046,0.126c-0.032,0.025 -0.069,0.037 -0.11,0.037c-0.031,0 -0.056,-0.007 -0.072,-0.021c-0.016,-0.014 -0.024,-0.032 -0.024,-0.053c0,-0.044 0.031,-0.068 0.092,-0.077c0.063,-0.008 0.116,-0.019 0.16,-0.033Z" style="fill:rgb(115,104,104);"/>            </g>        </g>        <g transform="matrix(1,0,0,1,-1.26861,1.07385)">            <g transform="matrix(1,0,0,1,3.26861,1.92615)">                <path d="M74.447,0.777c18.765,-4.866 34.572,-2.727 40.857,7.132c9.925,15.572 -7.633,44.543 -39.186,64.655c-31.552,20.113 -65.227,23.8 -75.153,8.229c-9.926,-15.572 7.633,-44.543 39.185,-64.655c0.865,-0.551 1.731,-1.09 2.599,-1.617c0.725,-0.488 1.461,-0.971 2.207,-1.447l0.015,-0.009c1.573,-1.151 3.245,-2.264 5.003,-3.321c5.64,-3.391 11.371,-5.729 16.563,-6.952c2.72,-0.866 5.369,-1.539 7.91,-2.015Zm26.158,11.734c0.599,11.398 -11.512,27.796 -30.553,39.933c-22.765,14.511 -46.869,17.472 -53.795,6.607c-1.154,-1.81 -1.758,-3.89 -1.859,-6.168c-3.586,8.042 -4.361,15.341 -1.285,20.166c7.816,12.263 34.336,9.359 59.184,-6.48c24.848,-15.839 38.675,-38.654 30.859,-50.916c-0.722,-1.133 -1.577,-2.183 -2.551,-3.142Zm-15.078,-5.298c3.098,7.316 -5.529,19.769 -19.968,28.451c-15.063,9.057 -30.785,10.603 -35.085,3.45c-1.165,-1.938 -1.374,-4.316 -0.758,-6.935c-6.635,8.312 -9.143,16.585 -5.727,21.944c5.627,8.828 24.213,5.422 42.711,-6.369c18.498,-11.791 29.947,-27.53 24.32,-36.358c-1.223,-1.919 -3.105,-3.307 -5.493,-4.183Zm-10.187,-1.007c-8.164,0.713 -18.25,4.323 -28.031,10.558c-3.03,1.932 -5.844,3.996 -8.409,6.138c-3.86,4.95 -5.297,9.832 -3.31,13.136c3.494,5.812 16.268,4.556 28.508,-2.804c12.24,-7.359 19.339,-18.052 15.845,-23.864c-0.934,-1.554 -2.531,-2.602 -4.603,-3.164Z" style="fill:rgb(70,70,70);"/>            </g>            <g transform="matrix(0.283551,0,0,0.283551,-8.71234,-27.8119)">                <path d="M297.753,97.036c66.178,-17.158 121.925,-9.617 144.089,25.155c35.005,54.916 -26.918,157.087 -138.195,228.018c-111.277,70.932 -230.039,83.935 -265.044,29.019c-35.005,-54.915 26.919,-157.086 138.196,-228.018c3.049,-1.943 6.103,-3.843 9.166,-5.702c2.554,-1.721 5.15,-3.423 7.783,-5.102l0.05,-0.032c5.55,-4.061 11.446,-7.986 17.645,-11.714c19.889,-11.958 40.104,-20.204 58.415,-24.518c9.593,-3.052 18.933,-5.426 27.895,-7.106Zm92.25,41.385c2.113,40.198 -40.6,98.028 -107.75,140.831c-80.285,51.177 -165.295,61.618 -189.719,23.302c-4.069,-6.383 -6.201,-13.72 -6.557,-21.756c-12.645,28.363 -15.379,54.104 -4.532,71.122c27.567,43.246 121.093,33.006 208.725,-22.853c87.631,-55.859 136.397,-136.32 108.83,-179.567c-2.547,-3.996 -5.56,-7.698 -8.997,-11.079Zm-53.181,-18.689c11.014,26.099 -18.632,73.583 -69.567,104.209c-53.123,31.941 -109.416,33.525 -124.583,8.299c-4.109,-6.833 -4.843,-15.222 -2.674,-24.456c-23.399,29.312 -32.242,58.491 -20.196,77.389c19.845,31.133 85.393,19.122 150.629,-22.461c65.235,-41.583 105.613,-97.093 85.768,-128.226c-4.314,-6.768 -10.956,-11.664 -19.377,-14.754Zm-35.922,-3.548c-28.79,2.513 -64.36,15.247 -98.857,37.236c-10.692,6.815 -20.621,14.1 -29.656,21.646c-13.61,17.457 -18.679,34.673 -11.673,46.326c12.325,20.497 57.375,16.067 100.541,-9.887c43.165,-25.954 68.204,-63.667 55.88,-84.164c-3.295,-5.479 -8.927,-9.177 -16.235,-11.157Z" style="fill:url(#_Linear6);"/>            </g>        </g>    </g>    <defs>        <linearGradient id="_Linear1" x1="0" y1="0" x2="1" y2="0" gradientUnits="userSpaceOnUse" gradientTransform="matrix(3.244e-17,-0.529785,0.529785,3.244e-17,1.13184,0)"><stop offset="0" style="stop-color:rgb(210,210,210);stop-opacity:1"/><stop offset="0.4" style="stop-color:rgb(89,89,89);stop-opacity:1"/><stop offset="1" style="stop-color:rgb(166,166,166);stop-opacity:1"/></linearGradient>        <linearGradient id="_Linear2" x1="0" y1="0" x2="1" y2="0" gradientUnits="userSpaceOnUse" gradientTransform="matrix(-3.244e-17,-0.529785,-0.529785,3.244e-17,1.20215,0)"><stop offset="0" style="stop-color:rgb(210,210,210);stop-opacity:1"/><stop offset="0.4" style="stop-color:rgb(89,89,89);stop-opacity:1"/><stop offset="1" style="stop-color:rgb(166,166,166);stop-opacity:1"/></linearGradient>        <linearGradient id="_Linear3" x1="0" y1="0" x2="1" y2="0" gradientUnits="userSpaceOnUse" gradientTransform="matrix(3.244e-17,-0.529785,0.529785,3.244e-17,0.153809,0)"><stop offset="0" style="stop-color:rgb(210,210,210);stop-opacity:1"/><stop offset="0.4" style="stop-color:rgb(89,89,89);stop-opacity:1"/><stop offset="1" style="stop-color:rgb(166,166,166);stop-opacity:1"/></linearGradient>        <linearGradient id="_Linear4" x1="0" y1="0" x2="1" y2="0" gradientUnits="userSpaceOnUse" gradientTransform="matrix(3.244e-17,-0.529785,0.529785,3.244e-17,-0.346191,0)"><stop offset="0" style="stop-color:rgb(210,210,210);stop-opacity:1"/><stop offset="0.4" style="stop-color:rgb(89,89,89);stop-opacity:1"/><stop offset="1" style="stop-color:rgb(166,166,166);stop-opacity:1"/></linearGradient>        <linearGradient id="_Linear5" x1="0" y1="0" x2="1" y2="0" gradientUnits="userSpaceOnUse" gradientTransform="matrix(-3.244e-17,-0.529785,-0.529785,3.244e-17,-0.0932617,0)"><stop offset="0" style="stop-color:rgb(210,210,210);stop-opacity:1"/><stop offset="0.4" style="stop-color:rgb(89,89,89);stop-opacity:1"/><stop offset="1" style="stop-color:rgb(166,166,166);stop-opacity:1"/></linearGradient>        <linearGradient id="_Linear6" x1="0" y1="0" x2="1" y2="0" gradientUnits="userSpaceOnUse" gradientTransform="matrix(350.79,-271.607,271.607,350.79,62.504,393.25)"><stop offset="0" style="stop-color:rgb(236,164,54);stop-opacity:1"/><stop offset="0.55" style="stop-color:rgb(247,197,67);stop-opacity:1"/><stop offset="1" style="stop-color:rgb(236,164,54);stop-opacity:1"/></linearGradient>    </defs></svg>