<?xml version="1.0" encoding="UTF-8" standalone="no"?><!DOCTYPE svg PUBLIC "-//W3C//DTD SVG 1.1//EN" "http://www.w3.org/Graphics/SVG/1.1/DTD/svg11.dtd"><svg width="100%" height="100%" viewBox="0 0 1024 512" version="1.1" xmlns="http://www.w3.org/2000/svg" xmlns:xlink="http://www.w3.org/1999/xlink" xml:space="preserve"  style="fill-rule:evenodd;clip-rule:evenodd;stroke-linejoin:round;stroke-miterlimit:2;"><title>Boober</title><desc>Boober launches the first online p2p money market in the Netherlands, following the example of the very successful British Zopa.com and the American Prosper.com.Boober brings the borrower and the lender together, without the intervention of the bank. Boober is the online peer-2-peer marketplace for borrowing and lending money.</desc>    <g transform="matrix(3.75532,0,0,3.75532,-25.7872,100.651)">        <g transform="matrix(1,0,0,1,-72.4414,0)">            <g transform="matrix(1.35454,0,0,1.35454,44.8186,-18.1576)">                <circle cx="51.64" cy="43.945" r="25.784" style="fill:rgb(163,195,0);"/>            </g>            <g transform="matrix(1.05856,0,0,1.05856,60.1029,-5.1507)">                <circle cx="51.64" cy="43.945" r="25.784" style="fill:rgb(11,52,144);"/>            </g>        </g>        <g transform="matrix(2.9448,0,0,2.9448,-257.687,39.4042)">            <g transform="matrix(12,0,0,12,95.017,5.49699)">                <path d="M0.086,-0.805l0,0.805l0.742,-0c0.049,-0 0.19,-0.003 0.244,-0.081c0.04,-0.058 0.04,-0.187 0.02,-0.239c-0.027,-0.066 -0.074,-0.076 -0.13,-0.088c0.05,-0.022 0.085,-0.04 0.105,-0.093c0.016,-0.039 0.014,-0.163 -0.023,-0.216c-0.057,-0.085 -0.202,-0.088 -0.26,-0.088l-0.698,-0Zm0.244,0.326l-0,-0.129l0.373,-0c0.031,-0 0.099,-0.006 0.121,0.033c0.009,0.014 0.012,0.042 -0.002,0.065c-0.022,0.035 -0.078,0.031 -0.113,0.031l-0.379,-0Zm0.426,0.282l-0.426,-0l-0,-0.131l0.399,-0c0.031,-0 0.101,-0.006 0.123,0.035c0.007,0.013 0.007,0.055 -0,0.068c-0.019,0.033 -0.065,0.028 -0.096,0.028Z" style="fill:white;fill-rule:nonzero;"/>            </g>            <g transform="matrix(12,0,0,12,114.536,5.49699)">                <path d="M0.436,-0l0.382,-0c0.056,-0 0.222,-0.003 0.29,-0.072c0.065,-0.066 0.056,-0.187 0.056,-0.256l-0,-0.166c-0,-0.058 0.008,-0.181 -0.056,-0.241c-0.074,-0.071 -0.188,-0.07 -0.284,-0.07l-0.394,-0c-0.096,-0 -0.211,-0.003 -0.284,0.07c-0.071,0.069 -0.066,0.183 -0.066,0.241l-0,0.166c-0,0.054 0.001,0.19 0.066,0.256c0.068,0.069 0.215,0.072 0.29,0.072Zm0.323,-0.197l-0.274,-0c-0.04,-0 -0.114,0.008 -0.149,-0.053c-0.008,-0.012 -0.012,-0.052 -0.012,-0.098l0,-0.109c0,-0.05 0.004,-0.086 0.012,-0.098c0.035,-0.06 0.109,-0.053 0.149,-0.053l0.274,-0c0.04,-0 0.114,-0.007 0.149,0.053c0.008,0.012 0.012,0.054 0.012,0.098l0,0.109c0,0.045 -0.004,0.086 -0.012,0.098c-0.035,0.061 -0.109,0.053 -0.149,0.053Z" style="fill:rgb(164,194,0);fill-rule:nonzero;"/>            </g>            <g transform="matrix(12,0,0,12,129.08,5.49699)">                <path d="M0.436,-0l0.382,-0c0.056,-0 0.222,-0.003 0.29,-0.072c0.065,-0.066 0.056,-0.187 0.056,-0.256l-0,-0.166c-0,-0.058 0.008,-0.181 -0.056,-0.241c-0.074,-0.071 -0.188,-0.07 -0.284,-0.07l-0.394,-0c-0.096,-0 -0.211,-0.003 -0.284,0.07c-0.071,0.069 -0.066,0.183 -0.066,0.241l-0,0.166c-0,0.054 0.001,0.19 0.066,0.256c0.068,0.069 0.215,0.072 0.29,0.072Zm0.323,-0.197l-0.274,-0c-0.04,-0 -0.114,0.008 -0.149,-0.053c-0.008,-0.012 -0.012,-0.052 -0.012,-0.098l0,-0.109c0,-0.05 0.004,-0.086 0.012,-0.098c0.035,-0.06 0.109,-0.053 0.149,-0.053l0.274,-0c0.04,-0 0.114,-0.007 0.149,0.053c0.008,0.012 0.012,0.054 0.012,0.098l0,0.109c0,0.045 -0.004,0.086 -0.012,0.098c-0.035,0.061 -0.109,0.053 -0.149,0.053Z" style="fill:rgb(164,194,0);fill-rule:nonzero;"/>            </g>            <g transform="matrix(12,0,0,12,143.624,5.49699)">                <path d="M0.086,-0.805l0,0.805l0.742,-0c0.049,-0 0.19,-0.003 0.244,-0.081c0.04,-0.058 0.04,-0.187 0.02,-0.239c-0.027,-0.066 -0.074,-0.076 -0.13,-0.088c0.05,-0.022 0.085,-0.04 0.105,-0.093c0.016,-0.039 0.014,-0.163 -0.023,-0.216c-0.057,-0.085 -0.202,-0.088 -0.26,-0.088l-0.698,-0Zm0.244,0.326l-0,-0.129l0.373,-0c0.031,-0 0.099,-0.006 0.121,0.033c0.009,0.014 0.012,0.042 -0.002,0.065c-0.022,0.035 -0.078,0.031 -0.113,0.031l-0.379,-0Zm0.426,0.282l-0.426,-0l-0,-0.131l0.399,-0c0.031,-0 0.101,-0.006 0.123,0.035c0.007,0.013 0.007,0.055 -0,0.068c-0.019,0.033 -0.065,0.028 -0.096,0.028Z" style="fill:rgb(164,194,0);fill-rule:nonzero;"/>            </g>            <g transform="matrix(12,0,0,12,157.376,5.49699)">                <path d="M0.08,-0.805l0,0.805l0.886,-0l0,-0.197l-0.642,0l0,-0.123l0.595,0l0,-0.161l-0.595,0l0,-0.127l0.627,0l0,-0.197l-0.871,-0Z" style="fill:rgb(164,194,0);fill-rule:nonzero;"/>            </g>            <g transform="matrix(12,0,0,12,169.496,5.49699)">                <path d="M0.784,-0.805l-0.698,0l0,0.805l0.244,-0l0,-0.209l0.337,0c0.028,0 0.098,-0.003 0.124,0.023c0.029,0.026 0.024,0.094 0.024,0.186l0.244,-0l-0,-0.061c-0,-0.066 0.009,-0.183 -0.066,-0.229c-0.017,-0.01 -0.036,-0.016 -0.065,-0.025c0.057,-0.022 0.105,-0.036 0.125,-0.113c0.018,-0.062 0.015,-0.244 -0.034,-0.307c-0.057,-0.074 -0.148,-0.07 -0.235,-0.07Zm-0.454,0.389l-0,-0.192l0.352,0c0.034,0 0.111,-0.006 0.135,0.04c0.013,0.025 0.013,0.093 -0,0.114c-0.027,0.041 -0.103,0.038 -0.137,0.038l-0.35,0Z" style="fill:rgb(164,194,0);fill-rule:nonzero;"/>            </g>        </g>    </g></svg>