<?xml version="1.0" encoding="UTF-8" standalone="no"?><!DOCTYPE svg PUBLIC "-//W3C//DTD SVG 1.1//EN" "http://www.w3.org/Graphics/SVG/1.1/DTD/svg11.dtd"><svg width="100%" height="100%" viewBox="0 0 1024 512" version="1.1" xmlns="http://www.w3.org/2000/svg" xmlns:xlink="http://www.w3.org/1999/xlink" xml:space="preserve" style="fill-rule:evenodd;clip-rule:evenodd;stroke-linejoin:round;stroke-miterlimit:2;"><title>Ablrate</title><desc>Ablrate is a peer to peer lending platform where investors can lend money to loans secured by interesting items such as aircraft, property and shipping containers.We serve two needs, one for lenders who are receiving poultry returns from traditional investments and one for SME businesses who are under served by the banks. </desc>    <g id="Ablrate-Logo" transform="matrix(2.22282,0,0,2.22391,-59.2922,-28.7165)">        <path d="M209.69,114.32l11.23,0l0,49.75l-11.23,0l0,-5.07c-4.61,4.31 -12.24,6.46 -17.54,6.46c-6.69,0 -13.57,-2.42 -17.94,-7.26c-4.37,-4.84 -6.51,-11.1 -6.51,-18.49c0,-7.39 2.17,-13.31 6.51,-18.14c4.34,-4.83 11.11,-7.26 17.64,-7.26c5.63,0 13.36,2.32 17.84,7l0,-6.99Zm-30.56,25.4c0,4.667 1.243,8.443 3.73,11.33c2.55,3 7.1,4.42 11,4.42c4.14,0 8.83,-1.42 11.38,-4.27c5.088,-6.599 5.088,-15.871 0,-22.47c-2.55,-2.88 -7.2,-4.32 -11.28,-4.32c-3.84,0 -8.4,1.46 -11,4.37c-2.584,3.047 -3.946,6.947 -3.82,10.94l-0.01,0Z" style="fill:rgb(0,35,65);fill-rule:nonzero;"/>        <path d="M243.55,97.5l0,23.77c4.372,-4.428 10.327,-6.947 16.55,-7c6.249,-0.121 12.234,2.563 16.3,7.31c4.34,4.84 6.51,10.87 6.51,18.09c0,7.453 -2.187,13.617 -6.56,18.49c-4.128,4.744 -10.164,7.407 -16.45,7.26c-6.064,0.003 -11.908,-2.292 -16.35,-6.42l0,5.07l-12.55,0l0,-66.57l12.55,0Zm27.93,42.71c0,-4.667 -1.26,-8.443 -3.78,-11.33c-2.341,-2.88 -5.88,-4.529 -9.59,-4.47c-3.806,-0.113 -7.473,1.471 -10,4.32c-2.553,2.853 -3.83,6.563 -3.83,11.13c0,4.707 1.26,8.467 3.78,11.28c2.488,2.867 6.146,4.457 9.94,4.32c3.696,0.079 7.239,-1.508 9.64,-4.32c2.61,-3.029 3.982,-6.934 3.84,-10.93Z" style="fill:rgb(0,35,65);fill-rule:nonzero;"/>        <rect x="293.41" y="97.5" width="11.18" height="66.57" style="fill:rgb(0,35,65);fill-rule:nonzero;"/>        <path d="M419.35,124.76l0,39.31l-11.18,0l0,-39.31l-4.77,0l0,-10.44l4.77,0l0,-17.74l11.19,0l0,17.75l8.7,0l0,10.44l-8.71,-0.01Z" style="fill:rgb(0,35,65);fill-rule:nonzero;"/>        <path d="M485.94,143.84l-39.66,0c0.34,4 1.82,5.8 4.43,8.16c2.795,2.385 6.389,3.628 10.06,3.48c3.18,0 8.37,-1.63 9.54,-4l13.47,-0.08c-3.31,8.64 -14.07,15 -23.46,15.4c-8.25,0.33 -14.89,-3.66 -19.89,-8.3c-5,-4.64 -7.5,-10.87 -7.5,-18.59c0,-7.72 2.42,-13.85 7.27,-18.59c4.85,-4.74 11.37,-8.32 19.44,-8.32c7.27,0.051 14.233,2.975 19.36,8.13c4.667,4.507 7,10.753 7,18.74l-0.06,3.97Zm-11.79,-10.48c-1.78,-6 -7.42,-8.74 -14.24,-8.95c-9,-0.28 -13.71,7.56 -14.12,8.95l28.36,0Z" style="fill:rgb(0,35,65);fill-rule:nonzero;"/>        <path d="M338,114.34c-1.825,0.01 -3.626,0.427 -5.27,1.22c-2.055,1.161 -3.904,2.654 -5.47,4.42l0,-5.66l-11.17,0l0,49.75l11.18,0l0,-25.07c0,-9.213 3.05,-13.82 9.15,-13.82c0.534,0.002 1.066,0.056 1.59,0.16l-0.01,-11Z" style="fill:rgb(0,35,65);fill-rule:nonzero;"/>        <path d="M386.21,114.32l11.23,0l0,49.75l-11.23,0l0,-5.07c-4.61,4.31 -12.24,6.46 -17.54,6.46c-6.69,0 -13.57,-2.42 -17.94,-7.26c-4.37,-4.84 -6.51,-11.1 -6.51,-18.49c0,-7.39 2.17,-13.31 6.51,-18.14c4.34,-4.83 11.11,-7.26 17.64,-7.26c5.63,0 13.36,2.32 17.84,7l0,-6.99Zm-30.56,25.4c0,4.667 1.243,8.443 3.73,11.33c2.55,3 7.1,4.42 11,4.42c4.14,0 8.83,-1.42 11.38,-4.27c5.088,-6.599 5.088,-15.871 0,-22.47c-2.55,-2.88 -7.2,-4.32 -11.28,-4.32c-3.84,0 -8.4,1.46 -11,4.37c-2.584,3.047 -3.946,6.947 -3.82,10.94l-0.01,0Z" style="fill:rgb(0,35,65);fill-rule:nonzero;"/>        <g transform="matrix(1.0768,0,0,1.06877,16.8574,59.4429)">            <path d="M98.59,70c-1.264,-0.619 -2.128,-1.842 -2.29,-3.24c-4.802,1.159 -9.539,2.574 -14.19,4.24c-1.11,0.38 -2.19,0.78 -3.28,1.18l0,32.19l23.17,0l0,-34.23c-0.501,0.194 -1.033,0.296 -1.57,0.3c-0.639,-0.003 -1.269,-0.154 -1.84,-0.44Z" style="fill:rgb(0,35,65);fill-rule:nonzero;"/>        </g>        <g transform="matrix(1.07726,0,0,1.06832,16.8207,59.5868)">            <path d="M85.16,48.57c3.59,-1.49 7.29,-3 11.13,-4.21l0,-2.75c0.07,-2.94 2.18,-2 4.23,-2c0.5,0.011 0.996,0.099 1.47,0.26l0,-13.87l-23.16,0l0,25.3c2.17,-0.96 4.17,-1.85 6.17,-2.67l0.16,-0.06Z" style="fill:rgb(0,35,65);fill-rule:nonzero;"/>        </g>        <g transform="matrix(1.07726,0,0,1.07097,17.1702,59.4487)">            <path d="M51.66,85.38l0,19l23.16,0l0,-30.63c-3.18,1.25 -6.25,2.56 -9.15,3.92c-4.858,2.212 -9.542,4.79 -14.01,7.71Z" style="fill:rgb(0,35,65);fill-rule:nonzero;"/>        </g>        <g transform="matrix(1.06729,0,0,1.06551,17.4976,59.6207)">            <path d="M74.82,53.14l0,-12.36l-23.16,0l0,25.15c6.499,-4.232 13.263,-8.043 20.25,-11.41l2.91,-1.38Z" style="fill:rgb(0,35,65);fill-rule:nonzero;"/>        </g>        <g transform="matrix(1.05079,0,0,1.0618,18.1742,60.1275)">            <path d="M38,101.56c-0.071,0.958 0.02,1.922 0.27,2.85l9.38,0l0,-16.1c-1.645,1.305 -3.199,2.722 -4.65,4.24c-3,3.17 -4.81,6.37 -5,9.01Z" style="fill:rgb(0,35,65);fill-rule:nonzero;"/>        </g>        <g transform="matrix(1.06729,0,0,1.07249,17.6299,59.5498)">            <path d="M30.53,83.46l0.06,-0.07c1.293,-1.577 2.683,-3.074 4.16,-4.48c3.963,-3.666 8.176,-7.051 12.61,-10.13l0.28,-0.19l0,-17.67l-23.16,0l0,43.08c0.234,-0.85 0.528,-1.682 0.88,-2.49c1.322,-2.921 3.063,-5.633 5.17,-8.05Z" style="fill:rgb(0,35,65);fill-rule:nonzero;"/>        </g>        <g transform="matrix(1.07399,0,0,1.0737,17.3186,59.4499)">            <path d="M28,110.86c-0.704,-0.866 -1.33,-1.793 -1.87,-2.77l-4.6,0c-0.774,0 -1.41,-0.636 -1.41,-1.41l0,-85.62c0,-0.774 0.636,-1.41 1.41,-1.41l84.93,0c0.774,0 1.41,0.636 1.41,1.41l0,21.23l1.22,0.5c6.87,2.84 9.24,3.82 9.74,4.06l0,-25.62c0,-6.694 -5.496,-12.208 -12.19,-12.23l-85.28,0c-6.709,0 -12.23,5.521 -12.23,12.23l0,85.27c0,6.709 5.521,12.23 12.23,12.23l16.12,0c-3.601,-2.041 -6.811,-4.706 -9.48,-7.87Z" style="fill:rgb(0,35,65);fill-rule:nonzero;"/>        </g>        <g transform="matrix(1.0682,0,0,1.07244,17.9638,59.6054)">            <path d="M109.86,63.56l-1.54,1.37l-0.44,0.39l0,41.36c0,0.774 -0.636,1.41 -1.41,1.41l-66.32,0l0.14,0.2l0.17,0.21l0.14,0.23c1.56,2.66 10.75,10 10.75,10l55.29,0c6.709,0 12.23,-5.521 12.23,-12.23l0,-51.1c-1.23,1.09 -3.52,3.18 -5.18,4.69c-1.66,1.51 -3.15,2.91 -3.83,3.47Z" style="fill:rgb(0,35,65);fill-rule:nonzero;"/>        </g>        <g transform="matrix(1.0683,0,0,1.06886,17.5401,59.4508)">            <path d="M117.21,50.25c-0.77,-0.37 -12.09,-5 -16.13,-6.7c-0.73,-0.31 -1,-0.14 -1,0.66l0,2.35c0.06,0.37 -0.191,0.724 -0.56,0.79c-4.446,1.313 -8.805,2.906 -13.05,4.77c-4.36,1.8 -8.66,3.76 -12.91,5.8c-8.352,4.035 -16.376,8.716 -24,14c-4.292,2.987 -8.372,6.268 -12.21,9.82c-1.384,1.326 -2.687,2.736 -3.9,4.22c-1.874,2.154 -3.423,4.569 -4.6,7.17c-2.284,5.108 -1.472,11.094 2.09,15.41c3.54,4.35 8.65,7.41 13.69,9.7c0.13,0.35 0.47,0.26 0.72,0.36c0.457,0.268 0.971,0.422 1.5,0.45c-0.14,-0.18 -0.19,-0.3 -0.28,-0.35c-3.26,-2.08 -7.18,-4.6 -9.18,-8c-2.217,-2.586 -3.33,-5.942 -3.1,-9.34c0.31,-4.27 3.17,-8.35 6,-11.33c6.54,-6.88 15.32,-11.7 23.83,-15.69c5.481,-2.553 11.092,-4.816 16.81,-6.78c5.875,-2.165 11.91,-3.866 18.05,-5.09c0.95,-0.17 1.12,0 1.13,0.9c0.01,0.9 0,1.69 0,2.53c0,0.28 -0.15,0.64 0.2,0.81c0.72,0.36 2.85,-2.13 3.38,-2.6l3.72,-3.3c1.84,-1.63 9.66,-8.82 10,-9c0.78,-0.81 0.74,-1.11 -0.2,-1.56Z" style="fill:rgb(192,192,192);fill-rule:nonzero;"/>        </g>    </g></svg>