<?xml version="1.0" encoding="UTF-8" standalone="no"?><!DOCTYPE svg PUBLIC "-//W3C//DTD SVG 1.1//EN" "http://www.w3.org/Graphics/SVG/1.1/DTD/svg11.dtd"><svg width="100%" height="100%" viewBox="0 0 1024 512" version="1.1" xmlns="http://www.w3.org/2000/svg" xmlns:xlink="http://www.w3.org/1999/xlink" xml:space="preserve" style="fill-rule:evenodd;clip-rule:evenodd;stroke-linejoin:round;stroke-miterlimit:2;"><title>Lendico Schweiz</title><desc>Lendico provides an on-line alternative to classic bank loans. We help Swiss businesses with quick and easy financing solutions for their projects. In doing so, we are attractive for private and professional investors interested in a new and thriving asset class.</desc>    <g transform="matrix(1.71847,0,0,1.71847,-963.782,-110.724)">        <g transform="matrix(1.0328,0,0,1.0328,383.088,-12.3477)">            <g transform="matrix(0.209365,0,0,0.209365,163.668,164.981)">                <path d="M74.471,275l-28.799,-76.965l152.446,-152.386l115.866,0l-229.428,229.351l-10.085,0Z" style="fill:rgb(0,66,87);fill-rule:nonzero;"/>            </g>            <g transform="matrix(4.16667,0,0,4.16667,205.142,206.45)">                <path d="M0,13.479l-0.007,0l0.002,0.002l0.005,-0.002Zm-7.659,-13.481l0,5.824l7.651,7.656l2.914,-2.911l-7.655,-7.657l-2.91,-2.912Z" style="fill:rgb(84,109,127);fill-rule:nonzero;"/>            </g>            <g transform="matrix(-4.16667,0,0,4.16667,237.029,213.317)">                <path d="M1.836,11.831l5.825,0l-11.839,-11.831l-1.647,4.181l7.661,7.65Z" style="fill:rgb(40,189,183);fill-rule:nonzero;"/>            </g>            <g transform="matrix(0.209365,0,0,0.209365,163.668,164.981)">                <path d="M313.99,45.641l-57.933,57.934l210.279,210.497l0,-115.985l-152.346,-152.446Z" style="fill:rgb(136,209,206);fill-rule:nonzero;"/>            </g>        </g>        <g transform="matrix(1,0,0,1,391.772,-6.62125)">            <g transform="matrix(4.16667,0,0,4.16667,291.394,184.366)">                <path d="M0,17.144l11.413,0l0,-2.865l-8.572,0l0,-14.279l-2.841,0l0,17.144Z" style="fill:rgb(147,149,152);fill-rule:nonzero;"/>            </g>            <g transform="matrix(4.16667,0,0,4.16667,359.533,255.8)">                <path d="M0,-17.144l0,17.144l11.412,0l0,-2.866l-8.571,0l0,-4.273l8.571,0l0,-2.841l-8.571,0l0,-4.299l8.571,0l0,-2.865l-11.412,0Z" style="fill:rgb(147,149,152);fill-rule:nonzero;"/>            </g>            <g transform="matrix(4.16667,0,0,4.16667,427.669,184.421)">                <path d="M0,17.094l2.841,0l0,-10.237l11.438,10.262l0,-0.05l0,0.025l0,-17.119l-2.866,0l0,10.262l-11.413,-10.262l0,17.119Z" style="fill:rgb(147,149,152);fill-rule:nonzero;"/>            </g>            <g transform="matrix(4.16667,0,0,4.16667,564.409,233.875)">                <path d="M0,-6.62c-0.453,-1.037 -1.07,-1.948 -1.852,-2.73c-0.783,-0.782 -1.693,-1.399 -2.73,-1.853c-1.038,-0.452 -2.142,-0.679 -3.31,-0.679l-5.707,0l0,17.144l5.707,0c1.168,0 2.276,-0.226 3.322,-0.679c1.046,-0.453 1.956,-1.07 2.73,-1.853c0.774,-0.782 1.387,-1.693 1.84,-2.73c0.453,-1.037 0.68,-2.14 0.68,-3.31c0,-1.169 -0.227,-2.273 -0.68,-3.31m-2.63,5.508c-0.297,0.692 -0.705,1.302 -1.224,1.829c-0.518,0.527 -1.124,0.938 -1.815,1.235c-0.692,0.296 -1.433,0.444 -2.223,0.444l-2.866,0l0,-11.412l2.866,0c0.774,0 1.507,0.148 2.198,0.444c0.692,0.297 1.301,0.709 1.828,1.236c0.527,0.527 0.939,1.136 1.236,1.828c0.296,0.691 0.444,1.424 0.444,2.198c0,0.774 -0.148,1.507 -0.444,2.198" style="fill:rgb(147,149,152);fill-rule:nonzero;"/>            </g>            <g transform="matrix(4.16667,0,0,4.16667,0,-3067.71)">                <rect x="141.078" y="780.498" width="2.841" height="17.144" style="fill:rgb(147,149,152);"/>            </g>            <g transform="matrix(4.16667,0,0,4.16667,642.171,252.968)">                <path d="M0,-15.785c-1.038,0.453 -1.948,1.071 -2.73,1.853c-0.783,0.782 -1.4,1.696 -1.852,2.742c-0.454,1.046 -0.68,2.145 -0.68,3.298c0,1.185 0.226,2.297 0.68,3.334c0.452,1.038 1.069,1.944 1.852,2.717c0.782,0.775 1.692,1.389 2.73,1.841c1.037,0.453 2.149,0.679 3.335,0.679c1.185,0 2.293,-0.222 3.322,-0.667c1.03,-0.444 1.94,-1.062 2.73,-1.853l-2.026,-2c-1.136,1.104 -2.479,1.655 -4.026,1.655c-0.791,0 -1.536,-0.148 -2.236,-0.444c-0.7,-0.297 -1.306,-0.705 -1.815,-1.224c-0.511,-0.518 -0.919,-1.124 -1.224,-1.815c-0.305,-0.692 -0.456,-1.433 -0.456,-2.223c0,-0.791 0.151,-1.532 0.456,-2.224c0.305,-0.691 0.717,-1.297 1.236,-1.815c0.518,-0.519 1.124,-0.927 1.815,-1.223c0.692,-0.297 1.433,-0.445 2.224,-0.445c1.564,0 2.906,0.56 4.026,1.68l2.026,-2.025c-0.79,-0.791 -1.7,-1.409 -2.73,-1.853c-1.029,-0.445 -2.137,-0.667 -3.322,-0.667c-1.186,0 -2.298,0.227 -3.335,0.679" style="fill:rgb(147,149,152);fill-rule:nonzero;"/>            </g>            <g transform="matrix(4.16667,0,0,4.16667,753.195,245.3)">                <path d="M0,-12.104c-1.662,-1.68 -3.676,-2.52 -6.044,-2.52c-2.384,0 -4.399,0.84 -6.043,2.52c-1.678,1.68 -2.517,3.697 -2.517,6.052c0,2.372 0.839,4.389 2.517,6.052c1.661,1.68 3.675,2.52 6.043,2.52c2.368,0 4.382,-0.84 6.044,-2.52c1.693,-1.646 2.54,-3.663 2.54,-6.052c0,-2.355 -0.847,-4.372 -2.54,-6.052m-2.024,10.103c-1.118,1.104 -2.458,1.655 -4.02,1.655c-1.562,0 -2.911,-0.551 -4.046,-1.655c-1.102,-1.137 -1.652,-2.486 -1.652,-4.051c0,-1.564 0.55,-2.907 1.652,-4.027c1.135,-1.119 2.484,-1.679 4.046,-1.679c1.562,0 2.902,0.56 4.02,1.679c1.119,1.12 1.678,2.463 1.678,4.027c0,1.565 -0.559,2.914 -1.678,4.051" style="fill:rgb(147,149,152);fill-rule:nonzero;"/>            </g>        </g>    </g></svg>