<?xml version="1.0" encoding="UTF-8" standalone="no"?><!DOCTYPE svg PUBLIC "-//W3C//DTD SVG 1.1//EN" "http://www.w3.org/Graphics/SVG/1.1/DTD/svg11.dtd"><svg width="100%" height="100%" viewBox="0 0 1024 512" version="1.1" xmlns="http://www.w3.org/2000/svg" xmlns:xlink="http://www.w3.org/1999/xlink" xml:space="preserve" style="fill-rule:evenodd;clip-rule:evenodd;stroke-linejoin:round;stroke-miterlimit:2;"><title>FFT</title><desc>France Fintech a vocation à accueillir l’ensemble des entreprises utilisant des modèles opérationnels, technologiques ou économiques innovants et disruptifs, visant à traiter des problématiques existantes ou émergentes de l’industrie des services financiers.</desc>    <g transform="matrix(0.412124,0,0,0.411765,406.486,203.294)">        <g transform="matrix(5.38088,0,0,5.38088,-1121.61,-560.753)">            <path d="M146.43,104.1c0.467,0 0.7,0.227 0.7,0.68c0,0.453 -0.233,0.68 -0.7,0.68c-1.88,0 -3.22,0.44 -4,1.33c-0.78,0.89 -1.2,2.54 -1.2,5l0,3.71l4.56,0c0.43,0 0.65,0.24 0.65,0.7c0,0.46 -0.22,0.7 -0.65,0.7l-4.56,0l0,24.45c0,0.387 -0.318,0.705 -0.705,0.705c-0.387,0 -0.705,-0.318 -0.705,-0.705l0,-24.49l-4.32,0c-0.387,0 -0.705,-0.318 -0.705,-0.705c0,-0.387 0.318,-0.705 0.705,-0.705l4.32,0l0,-3.71c0,-2.71 0.54,-4.66 1.6,-5.85c1.06,-1.19 2.73,-1.79 5.01,-1.79Z" style="fill-rule:nonzero;"/>        </g>        <g transform="matrix(5.38088,0,0,5.38088,-1121.61,-560.753)">            <path d="M169.58,116.94c-5.34,0 -9.34,4 -12.16,12l0,12.4c0,0.387 -0.318,0.705 -0.705,0.705c-0.387,0 -0.705,-0.318 -0.705,-0.705l0,-25.11c-0.008,-0.179 0.053,-0.355 0.17,-0.49c0.139,-0.143 0.331,-0.222 0.53,-0.22c0.024,-0.003 0.048,-0.004 0.072,-0.004c0.357,0 0.65,0.293 0.65,0.65c0,0.018 -0.001,0.036 -0.002,0.054l0,9c0.368,-1.123 0.907,-2.182 1.6,-3.14c2.92,-4.37 6.41,-6.55 10.52,-6.55c0.028,-0.004 0.055,-0.005 0.083,-0.005c0.351,0 0.64,0.288 0.64,0.64c0,0.021 -0.001,0.043 -0.003,0.065c-0.01,0.47 -0.27,0.71 -0.69,0.71Z" style="fill-rule:nonzero;"/>        </g>        <g transform="matrix(5.38088,0,0,5.38088,-1121.61,-560.753)">            <path d="M200.38,116.23c0,-0.387 0.318,-0.705 0.705,-0.705c0.387,0 0.705,0.318 0.705,0.705l0,25.13c0,0.387 -0.318,0.705 -0.705,0.705c-0.387,0 -0.705,-0.318 -0.705,-0.705l0,-6.61c-0.992,2.153 -2.56,3.991 -4.53,5.31c-1.933,1.316 -4.221,2.014 -6.56,2c-3.37,0.038 -6.596,-1.385 -8.84,-3.9c-4.846,-5.268 -4.846,-13.472 0,-18.74c2.25,-2.518 5.484,-3.941 8.86,-3.9c2.329,-0.011 4.607,0.687 6.53,2c1.969,1.32 3.537,3.157 4.53,5.31l0.01,-6.6Zm-18.94,21c2.014,2.225 4.879,3.495 7.88,3.495c3.001,0 5.866,-1.27 7.88,-3.495c4.346,-4.73 4.346,-12.09 0,-16.82c-2.024,-2.208 -4.885,-3.466 -7.88,-3.466c-2.995,0 -5.856,1.258 -7.88,3.466c-4.346,4.73 -4.346,12.09 0,16.82Z" style="fill-rule:nonzero;"/>        </g>        <g transform="matrix(5.38088,0,0,5.38088,-1121.61,-560.753)">            <path d="M213.69,142.22c-0.07,-0.35 -0.15,-0.18 -0.24,-0.18c-0.122,-0.02 -0.212,-0.127 -0.21,-0.25c-0.094,-0.08 -0.157,-0.189 -0.18,-0.31l0,-25.3c0,-0.43 0.25,-0.65 0.7,-0.65c0.45,0 0.7,0.22 0.7,0.65l0,4.87c0.98,-1.625 2.33,-2.995 3.94,-4c1.653,-1.008 3.554,-1.534 5.49,-1.52c5.855,0.033 10.651,4.865 10.64,10.72l0,15.11c0,0.387 -0.318,0.705 -0.705,0.705c-0.387,0 -0.705,-0.318 -0.705,-0.705l0,-15.11c0.001,-0.04 0.001,-0.08 0.001,-0.12c0,-5.067 -4.164,-9.239 -9.231,-9.25c-2.492,-0.035 -4.893,0.952 -6.64,2.73c-1.81,1.725 -2.822,4.129 -2.79,6.63l0,15.11c0,0.47 -0.13,0.85 -0.56,0.85l-0.21,0.02Z" style="fill-rule:nonzero;"/>        </g>        <g transform="matrix(5.38088,0,0,5.38088,-1121.61,-560.753)">            <path d="M248.51,138.14c-2.559,-2.437 -4.009,-5.821 -4.009,-9.355c0,-3.534 1.45,-6.918 4.009,-9.355c2.422,-2.493 5.754,-3.901 9.23,-3.9c3.196,-0.096 6.328,0.918 8.86,2.87c0.153,0.127 0.241,0.316 0.241,0.515c0,0.159 -0.057,0.314 -0.161,0.435c-0.233,0.347 -0.55,0.393 -0.95,0.14c-2.295,-1.746 -5.117,-2.663 -8,-2.6c-3.112,-0.006 -6.095,1.255 -8.26,3.49c-2.282,2.205 -3.572,5.246 -3.572,8.42c0,3.174 1.29,6.215 3.572,8.42c2.311,2.299 5.461,3.56 8.72,3.49c2.753,-0.003 5.425,-0.937 7.58,-2.65c0.104,-0.079 0.232,-0.123 0.363,-0.123c0.22,0 0.422,0.121 0.527,0.313c0.134,0.121 0.211,0.294 0.211,0.475c0,0.181 -0.077,0.354 -0.211,0.475c-5.429,4.178 -13.186,3.723 -18.09,-1.06l-0.06,0Z" style="fill-rule:nonzero;"/>        </g>        <g transform="matrix(5.38088,0,0,5.38088,-1121.61,-560.753)">            <path d="M301.1,127.77l0,0.23c0,0.43 -0.35,0.5 -0.71,0.5l-23.59,0l0,0.32c-0.051,3.131 1.169,6.152 3.38,8.37c2.103,2.265 5.059,3.552 8.15,3.55c1.928,0.014 3.824,-0.49 5.49,-1.46c1.651,-0.972 3.028,-2.349 4,-4c0.106,-0.197 0.313,-0.321 0.537,-0.321c0.153,0 0.3,0.058 0.413,0.161c0.208,0.094 0.342,0.301 0.342,0.529c0,0.145 -0.054,0.284 -0.152,0.391c-1.152,1.802 -2.724,3.298 -4.58,4.36c-1.845,1.087 -3.949,1.657 -6.09,1.65c-3.414,-0.002 -6.678,-1.427 -9,-3.93c-5.093,-5.161 -5.093,-13.579 0,-18.74c2.291,-2.487 5.529,-3.894 8.91,-3.87c3.305,-0.062 6.499,1.207 8.86,3.52c2.374,2.317 3.813,5.43 4.04,8.74Zm-5.2,-7.77c-4.269,-3.988 -10.981,-3.988 -15.25,0c-2.187,1.896 -3.557,4.568 -3.82,7.45l22.85,0c-0.261,-2.874 -1.614,-5.542 -3.78,-7.45Z" style="fill-rule:nonzero;"/>        </g>        <g transform="matrix(5.38088,0,0,5.38088,-1121.61,-560.753)">            <path d="M320.71,104.21c0.351,-0.004 0.688,0.146 0.92,0.41c0.246,0.254 0.383,0.596 0.38,0.95c0,0.003 0,0.007 0,0.01c0,0.708 -0.582,1.29 -1.29,1.29c-0.003,0 -0.007,0 -0.01,0c-1.264,-0.141 -2.531,0.263 -3.48,1.11c-0.65,0.74 -1,2.18 -1,4.31l0,2.82l3.77,0c0.354,-0.003 0.696,0.134 0.95,0.38c0.264,0.232 0.414,0.569 0.41,0.92c-0.007,0.373 -0.153,0.73 -0.41,1c-0.239,0.282 -0.581,0.459 -0.95,0.49l-3.75,0l0,22.9c0,0.007 0,0.013 0,0.02c0,0.702 -0.578,1.28 -1.28,1.28c-0.003,0 -0.007,0 -0.01,0c-0.652,-0.009 -1.184,-0.548 -1.184,-1.2c0,-0.033 0.001,-0.067 0.004,-0.1l0,-22.9l-3.69,0c-0.361,-0.028 -0.695,-0.206 -0.92,-0.49c-0.25,-0.272 -0.386,-0.63 -0.38,-1c-0.006,-0.352 0.131,-0.691 0.38,-0.94c0.239,-0.254 0.572,-0.399 0.92,-0.4l3.69,0l0,-2.82c0,-2.82 0.56,-4.87 1.65,-6.17c1.09,-1.3 2.86,-1.87 5.28,-1.87Z" style="fill-rule:nonzero;"/>        </g>        <g transform="matrix(5.38088,0,0,5.38088,-1121.61,-560.753)">            <path d="M330,109.41l0,-1.25c0,-0.007 0,-0.013 0,-0.02c0,-0.702 0.578,-1.28 1.28,-1.28c0.003,0 0.007,0 0.01,0c0.652,0.009 1.184,0.548 1.184,1.2c0,0.033 -0.001,0.067 -0.004,0.1l0,1.25c0.039,0.363 -0.078,0.727 -0.32,1c-0.228,0.258 -0.555,0.408 -0.9,0.41c-0.343,0.003 -0.669,-0.148 -0.89,-0.41c-0.248,-0.272 -0.377,-0.632 -0.36,-1Zm0,31.36l0,-23.94c-0.009,-0.344 0.125,-0.678 0.37,-0.92c0.248,-0.251 0.588,-0.388 0.94,-0.38c0.329,-0.008 0.645,0.131 0.86,0.38c0.222,0.252 0.328,0.586 0.29,0.92l0,23.94c0.036,0.339 -0.081,0.677 -0.32,0.92c-0.236,0.243 -0.561,0.381 -0.9,0.38c-0.337,0.005 -0.661,-0.133 -0.89,-0.38c-0.24,-0.244 -0.366,-0.578 -0.35,-0.92Z" style="fill-rule:nonzero;"/>        </g>        <g transform="matrix(5.38088,0,0,5.38088,-1121.61,-560.753)">            <path d="M347.59,141c0.001,0.02 0.002,0.04 0.002,0.06c0,0.639 -0.523,1.165 -1.162,1.17l-0.32,0c-0.4,-0.35 -0.69,-0.42 -0.87,-0.78c-0.042,-0.058 -0.063,-0.129 -0.06,-0.2l-0.06,-0.15l0,-24.22c0,-0.713 0.587,-1.3 1.3,-1.3c0.326,-0.008 0.639,0.132 0.85,0.38c0.221,0.253 0.333,0.585 0.31,0.92l0,2.55c1.918,-2.46 4.881,-3.886 8,-3.85c2.954,-0.08 5.812,1.069 7.89,3.17c2.056,1.991 3.197,4.748 3.15,7.61l0,14.41c0.001,0.023 0.002,0.047 0.002,0.07c0,0.675 -0.555,1.23 -1.23,1.23c-0.004,0 -0.008,0 -0.012,0c-0.334,0.005 -0.655,-0.134 -0.88,-0.38c-0.237,-0.245 -0.36,-0.579 -0.34,-0.92l0,-14.41c0.02,-2.171 -0.852,-4.258 -2.41,-5.77c-1.508,-1.57 -3.603,-2.443 -5.78,-2.41c-4.509,0.025 -8.237,3.672 -8.36,8.18l-0.02,14.64Z" style="fill-rule:nonzero;"/>        </g>        <g transform="matrix(5.38088,0,0,5.38088,-1121.61,-560.753)">            <path d="M386.29,115.45c0.7,0.084 1.248,0.657 1.3,1.36c0,0.374 -0.147,0.734 -0.41,1c-0.221,0.273 -0.541,0.449 -0.89,0.49l-3.48,0l0,19.19c-0.001,0.556 0.263,1.08 0.71,1.41c0.342,0.313 0.778,0.503 1.24,0.54c0.378,-0.001 0.74,0.155 1,0.43c0.266,0.234 0.425,0.566 0.44,0.92c-0.01,0.344 -0.167,0.668 -0.43,0.89c-0.241,0.252 -0.572,0.399 -0.92,0.41c-0.046,0.001 -0.092,0.002 -0.137,0.002c-2.387,0 -4.35,-1.963 -4.35,-4.35c0,-0.084 0.002,-0.168 0.007,-0.252l0,-19.22l-3.48,0c-0.401,0.049 -0.803,-0.096 -1.08,-0.39c-0.157,-0.273 -0.234,-0.585 -0.22,-0.9c-0.009,-0.271 0.007,-0.542 0.05,-0.81c0.11,-0.43 0.52,-0.71 1.25,-0.71l3.48,0l0,-9.78c-0.026,-0.329 0.091,-0.653 0.32,-0.89c0.221,-0.256 0.542,-0.406 0.88,-0.41c0.34,0.009 0.662,0.157 0.89,0.41c0.251,0.226 0.39,0.552 0.38,0.89l0,9.78l3.45,-0.01Z" style="fill-rule:nonzero;"/>        </g>        <g transform="matrix(5.38088,0,0,5.38088,-1121.61,-560.753)">            <path d="M423.66,127.88l0,0.22c0.023,0.31 -0.099,0.613 -0.33,0.82c-0.242,0.204 -0.555,0.305 -0.87,0.28l-21.76,0c0.094,2.755 1.24,5.372 3.2,7.31c3.162,3.179 8.094,3.861 12,1.66c1.49,-0.84 2.74,-2.049 3.63,-3.51c0.177,-0.41 0.582,-0.677 1.029,-0.677c0.255,0 0.502,0.087 0.701,0.247c0.413,0.212 0.673,0.639 0.673,1.103c0,0.265 -0.085,0.524 -0.243,0.737c-1.136,1.823 -2.711,3.333 -4.58,4.39c-4.991,2.815 -11.303,1.885 -15.27,-2.25c-4.99,-5.219 -4.99,-13.551 0,-18.77c2.359,-2.486 5.64,-3.896 9.068,-3.896c3.257,0 6.389,1.273 8.722,3.546c2.367,2.342 3.801,5.468 4.03,8.79Zm-6.18,-7.32c-3.734,-3.215 -9.316,-3.215 -13.05,0c-1.855,1.6 -3.114,3.783 -3.57,6.19l20.14,0c-0.397,-2.414 -1.642,-4.61 -3.51,-6.19l-0.01,0Z" style="fill-rule:nonzero;"/>        </g>        <g transform="matrix(5.38088,0,0,5.38088,-1121.61,-560.753)">            <path d="M435.06,138.2c-2.544,-2.468 -3.982,-5.865 -3.982,-9.41c0,-3.545 1.438,-6.942 3.982,-9.41c2.425,-2.47 5.748,-3.859 9.21,-3.85c3.218,-0.09 6.369,0.943 8.91,2.92c0.289,0.171 0.473,0.475 0.49,0.81c0.047,0.364 -0.071,0.731 -0.32,1c-0.223,0.328 -0.595,0.524 -0.992,0.524c-0.294,0 -0.578,-0.108 -0.798,-0.304c-2.049,-1.608 -4.596,-2.451 -7.2,-2.38c-2.805,-0.005 -5.495,1.128 -7.45,3.14c-2.059,1.979 -3.224,4.714 -3.224,7.57c0,2.856 1.165,5.591 3.224,7.57c1.953,1.993 4.63,3.115 7.42,3.11c2.603,0.062 5.153,-0.759 7.23,-2.33c0.219,-0.188 0.499,-0.292 0.788,-0.292c0.414,0 0.8,0.212 1.022,0.562c0.56,0.667 0.46,1.28 -0.3,1.84c-5.422,4.101 -13.097,3.649 -18,-1.06l-0.01,-0.01Z" style="fill-rule:nonzero;"/>        </g>        <g transform="matrix(5.38088,0,0,5.38088,-1121.61,-560.753)">            <path d="M465.47,142.22l-0.27,0c-0.022,0.001 -0.044,0.002 -0.066,0.002c-0.729,0 -1.33,-0.601 -1.33,-1.33c0,-0.041 0.002,-0.082 0.006,-0.122l0,-35.31c0.037,-0.725 0.644,-1.301 1.37,-1.3c0.369,-0.003 0.726,0.132 1,0.38c0.273,0.229 0.437,0.564 0.45,0.92l0,14c1.949,-2.504 4.967,-3.951 8.14,-3.9c2.97,-0.086 5.86,0.991 8.05,3c2.093,1.897 3.256,4.617 3.18,7.44l0,14.79c0.014,0.347 -0.125,0.684 -0.38,0.92c-0.247,0.245 -0.582,0.382 -0.93,0.38c-0.326,0.007 -0.638,-0.133 -0.85,-0.38c-0.226,-0.25 -0.335,-0.585 -0.3,-0.92l0,-14.79c0.035,-2.148 -0.885,-4.205 -2.51,-5.61c-1.65,-1.463 -3.796,-2.246 -6,-2.19c-2.207,-0.07 -4.357,0.715 -6,2.19c-1.6,1.416 -2.487,3.475 -2.42,5.61l0,14.95c-0.063,0.179 -0.147,0.35 -0.25,0.51c-0.167,0.307 -0.447,0.536 -0.78,0.64c-0.333,0.104 -0.07,0.12 -0.11,0.12Z" style="fill-rule:nonzero;"/>        </g>        <g transform="matrix(5.38088,0,0,5.38088,-1121.61,-560.753)">            <path d="M70.43,153.09c-0.373,-0.001 -0.739,-0.101 -1.06,-0.29l-19.73,-11.49c-0.632,-0.391 -1.012,-1.087 -1,-1.83l0,-23c-0.012,-0.743 0.368,-1.439 1,-1.83l19.72,-11.49c0.657,-0.384 1.473,-0.384 2.13,0l19.72,11.49c0.632,0.391 1.012,1.087 1,1.83l0,23c0.012,0.743 -0.368,1.439 -1,1.83l-19.72,11.49c-0.321,0.189 -0.687,0.289 -1.06,0.29Zm-17.61,-14.82l17.61,10.26l17.57,-10.26l0,-20.56l-17.57,-10.26l-17.61,10.26l0,20.56Z" style="fill-rule:nonzero;"/>        </g>        <g transform="matrix(5.38088,0,0,5.38088,-1121.61,-560.753)">            <path d="M69.36,103.17l0.05,0l-0.05,0Z" style="fill:rgb(3,232,253);fill-rule:nonzero;"/>        </g>        <g transform="matrix(5.38088,0,0,5.38088,-1121.61,-560.753)">            <path d="M69.36,103.17c-0.12,0.055 -0.234,0.122 -0.34,0.2l0.34,-0.2Z" style="fill:rgb(3,232,253);fill-rule:nonzero;"/>        </g>        <g transform="matrix(5.38088,0,0,5.38088,-1121.61,-560.753)">            <path d="M111.84,104.72c-4.175,-7.226 -12.042,-11.557 -20.38,-11.22c-3.711,-7.857 -11.655,-12.89 -20.344,-12.89c-8.346,0 -16.033,4.643 -19.916,12.03c-0.634,-0.054 -1.269,-0.081 -1.905,-0.081c-12.343,0 -22.5,10.157 -22.5,22.5c0,4.207 1.18,8.331 3.405,11.901c-2.703,3.806 -4.155,8.36 -4.155,13.028c0,12.343 10.157,22.5 22.5,22.5c0.298,0 0.597,-0.006 0.895,-0.018c3.705,7.873 11.658,12.92 20.359,12.92c8.357,0 16.053,-4.657 19.931,-12.06c0.621,0.052 1.243,0.077 1.866,0.077c12.343,0 22.5,-10.156 22.5,-22.5c0,-4.181 -1.166,-8.281 -3.366,-11.837c5.094,-7.187 5.529,-16.729 1.11,-24.35Zm-4.66,45c-3.248,5.61 -9.258,9.076 -15.74,9.08c0.541,-1.954 0.817,-3.972 0.82,-6l0,-13.32c0.012,0.743 -0.368,1.439 -1,1.83l-3.26,1.85l0,9.66c0.001,1.871 -0.293,3.73 -0.87,5.51c-1.645,-0.401 -3.224,-1.034 -4.69,-1.88c-0.333,-0.181 -0.705,-0.276 -1.084,-0.276c-1.245,0 -2.27,1.025 -2.27,2.27c0,0.789 0.411,1.524 1.084,1.936c1.575,0.905 3.254,1.617 5,2.12c-3.334,5.199 -9.102,8.352 -15.278,8.352c-6.479,0 -12.485,-3.47 -15.722,-9.082c1.979,-0.511 3.88,-1.288 5.65,-2.31l11.18,-6.46c-0.541,0.142 -1.117,0.063 -1.6,-0.22l-3.22,-1.88l-8.48,4.9c-1.627,0.938 -3.392,1.613 -5.23,2c-0.473,-1.625 -0.712,-3.308 -0.71,-5c-0.079,-1.186 -1.076,-2.119 -2.265,-2.119c-1.189,0 -2.186,0.933 -2.265,2.119c-0.001,1.802 0.214,3.599 0.64,5.35c-9.626,-0.45 -17.302,-8.493 -17.302,-18.13c0,-3.266 0.882,-6.473 2.552,-9.28c1.441,1.505 3.083,2.804 4.88,3.86l11.48,6.63c-0.578,-0.39 -0.927,-1.043 -0.93,-1.74l0,-3.67l-8.44,-4.87c-1.653,-0.956 -3.142,-2.171 -4.41,-3.6c1.131,-1.169 2.416,-2.179 3.82,-3c0.673,-0.412 1.084,-1.147 1.084,-1.936c0,-1.245 -1.025,-2.27 -2.27,-2.27c-0.379,0 -0.751,0.095 -1.084,0.276c-1.493,0.865 -2.882,1.899 -4.14,3.08c-1.304,-2.555 -1.984,-5.382 -1.984,-8.25c0,-9.957 8.194,-18.15 18.15,-18.15c0.038,0 0.076,0 0.114,0c-0.549,1.97 -0.828,4.005 -0.83,6.05l0,13.32c-0.012,-0.743 0.368,-1.439 1,-1.83l3.18,-1.85l0,-9.64c0.001,-1.875 0.298,-3.738 0.88,-5.52c1.613,0.403 3.161,1.029 4.6,1.86c0.333,0.181 0.705,0.276 1.084,0.276c1.245,0 2.27,-1.025 2.27,-2.27c0,-0.789 -0.411,-1.524 -1.084,-1.936c-1.542,-0.89 -3.183,-1.595 -4.89,-2.1c3.334,-5.202 9.103,-8.356 15.281,-8.356c6.477,0 12.481,3.467 15.719,9.076c-1.963,0.522 -3.846,1.305 -5.6,2.33l-11.12,6.49c0.544,-0.144 1.124,-0.065 1.61,0.22l3.22,1.88l8.45,-4.88c1.627,-0.938 3.392,-1.613 5.23,-2c0.476,1.624 0.719,3.308 0.72,5c0.079,1.186 1.076,2.119 2.265,2.119c1.189,0 2.186,-0.933 2.265,-2.119c0.006,-1.823 -0.209,-3.639 -0.64,-5.41c9.63,0.445 17.311,8.49 17.311,18.131c0,3.285 -0.892,6.51 -2.581,9.329c-1.475,-1.529 -3.158,-2.841 -5,-3.9l-11.2,-6.46c0.462,0.399 0.728,0.98 0.73,1.59l0,3.71l8.36,4.82c1.675,0.967 3.181,2.199 4.46,3.65c-1.123,1.138 -2.395,2.121 -3.78,2.92c-0.673,0.412 -1.084,1.147 -1.084,1.936c0,1.245 1.025,2.27 2.27,2.27c0.379,0 0.751,-0.095 1.084,-0.276c1.472,-0.843 2.844,-1.85 4.09,-3c2.745,5.457 2.564,11.944 -0.48,17.24l0,-0.05Z" style="fill:rgb(3,232,253);fill-rule:nonzero;"/>        </g>    </g></svg>