<?xml version="1.0" encoding="UTF-8" standalone="no"?><!DOCTYPE svg PUBLIC "-//W3C//DTD SVG 1.1//EN" "http://www.w3.org/Graphics/SVG/1.1/DTD/svg11.dtd"><svg width="100%" height="100%" viewBox="0 0 1024 512" version="1.1" xmlns="http://www.w3.org/2000/svg" xmlns:xlink="http://www.w3.org/1999/xlink" xml:space="preserve" style="fill-rule:evenodd;clip-rule:evenodd;stroke-linejoin:round;stroke-miterlimit:2;"><title>CONDA DE</title><desc>We connect entrepreneurs and investors and create the basis for promising business ideas together.We believe that the future lies in the hands of young and innovative entrepreneurs. Therefore we have made it our goal to support these entrepreneurs, to lay the foundations together for the realisation of their dreams.</desc>    <g transform="matrix(3.792,0,0,3.792,-2646.98,-1061.66)">        <g transform="matrix(2.66667,0,0,2.66667,915.097,326.974)">            <path d="M0,15.165l7.642,-16.905l5.599,12.45l-13.241,4.455Zm-17.119,2.163l0,-19.49l5.77,0c6.227,0 10.203,4.292 10.203,9.745l0,0.07c0,5.453 -3.976,9.675 -10.203,9.675l-5.77,0Zm-21.684,-9.675c0,5.594 -4.01,10.097 -9.639,10.097c-5.629,0 -9.71,-4.574 -9.71,-10.167l0,-0.071c0,-5.593 4.01,-10.097 9.64,-10.097c5.628,0 9.709,4.574 9.709,10.168l0,0.07Zm58.3,10.378l-9.991,-21.812c-0.316,-0.774 -0.879,-1.231 -1.724,-1.231l-0.14,0c-0.88,0 -1.408,0.457 -1.759,1.231l-4.286,9.372c-0.893,-5.967 -5.939,-10.322 -12.946,-10.322l-7.177,0l-0.038,0.002l-0.022,0c-0.774,0 -1.372,0.633 -1.372,1.372l0,18.398l-14.952,-19.068c-0.387,-0.492 -0.774,-0.809 -1.407,-0.809l-0.387,0c-0.739,0 -1.372,0.633 -1.372,1.372l0,3.728c-2.157,-3.236 -5.804,-5.417 -10.366,-5.417c-7.494,0 -12.595,5.946 -12.595,12.736l0,0.07c0,6.79 5.031,12.665 12.525,12.665c4.579,0 8.262,-2.222 10.436,-5.499l0,3.881c0,0.739 0.598,1.372 1.337,1.372c0.774,0 1.372,-0.633 1.372,-1.372l0,-19.068l15.268,19.525c0.423,0.493 0.845,0.733 1.443,0.733l0.047,0.002l0.083,0.004l7.177,0c2.781,0 5.251,-0.698 7.277,-1.91l-0.037,0.08c-0.141,0.282 -0.176,0.528 -0.176,0.739c0,0.704 0.563,1.267 1.267,1.267c0.246,0 0.529,-0.109 0.529,-0.109l0.312,-0.139l15.825,-8.061l3.317,7.288c0.246,0.563 0.703,1.021 1.372,1.021c0.738,0 1.336,-0.598 1.336,-1.337c0,-0.211 -0.07,-0.457 -0.176,-0.704" style="fill:rgb(64,73,103);fill-rule:nonzero;"/>        </g>        <g transform="matrix(2.66667,0,0,2.66667,753.376,329.827)">            <path d="M0,13.538c-0.351,0 -0.666,0.176 -0.877,0.386c-2.105,1.929 -4.244,2.981 -7.295,2.981c-5.401,0 -9.504,-4.454 -9.504,-10.136l0,-0.07c0,-5.647 4.068,-10.066 9.504,-10.066c3.016,0 5.156,1.122 7.049,2.806c0.211,0.14 0.527,0.316 0.912,0.316c0.737,0 1.404,-0.632 1.404,-1.368c0,-0.491 -0.281,-0.877 -0.562,-1.123c-2.279,-1.893 -4.805,-3.191 -8.768,-3.191c-7.225,0 -12.415,5.752 -12.415,12.696l0,0.07c0,7.05 5.225,12.626 12.31,12.626c4.033,0 6.699,-1.403 9.119,-3.612c0.245,-0.21 0.456,-0.561 0.456,-0.982c0,-0.702 -0.631,-1.333 -1.333,-1.333" style="fill:rgb(64,73,103);fill-rule:nonzero;"/>        </g>    </g></svg>