<?xml version="1.0" encoding="UTF-8" standalone="no"?><!DOCTYPE svg PUBLIC "-//W3C//DTD SVG 1.1//EN" "http://www.w3.org/Graphics/SVG/1.1/DTD/svg11.dtd"><svg width="100%" height="100%" viewBox="0 0 1024 512" version="1.1" xmlns="http://www.w3.org/2000/svg" xmlns:xlink="http://www.w3.org/1999/xlink" xml:space="preserve" style="fill-rule:evenodd;clip-rule:evenodd;stroke-linejoin:round;stroke-miterlimit:2;"><title>StockCrowd IN</title><desc>StockCrowd IN connects investors with the most consolidated real estate companies in the sector</desc>    <g transform="matrix(1.02307,0,0,1.02307,-64.4994,205.888)">        <g id="Group" transform="matrix(10.888,0,0,10.888,63.2347,5.42984)">            <path id="Fill-4" d="M21.837,3.999c0,-1.877 -1.523,-3.401 -3.403,-3.401c-1.879,0 -3.403,1.524 -3.403,3.401c0,1.879 1.524,3.403 3.403,3.403c1.88,0 3.403,-1.524 3.403,-3.403" style="fill:rgb(19,162,73);"/>            <path id="Fill-6" d="M4.246,3.999c0,-1.127 -0.913,-2.041 -2.041,-2.041c-1.128,0 -2.043,0.914 -2.043,2.041c0,1.128 0.915,2.043 2.043,2.043c1.128,0 2.041,-0.915 2.041,-2.043" style="fill:rgb(19,162,73);"/>            <path id="Fill-8" d="M12.36,3.999c0,-1.503 -1.218,-2.722 -2.721,-2.722c-1.503,0 -2.722,1.219 -2.722,2.722c0,1.504 1.219,2.722 2.722,2.722c1.503,0 2.721,-1.218 2.721,-2.722" style="fill:rgb(19,162,73);"/>        </g>        <g transform="matrix(1.21411,0,0,1,110.328,-292.5)">            <g transform="matrix(86.9199,0,0,103.8,193.222,379.472)">                <path d="M0.424,-0.183c0,0.057 -0.062,0.081 -0.122,0.081c-0.106,0 -0.166,-0.105 -0.166,-0.105l-0.09,0.076c0,0 0.081,0.143 0.256,0.143c0.132,0 0.244,-0.068 0.244,-0.195c0,-0.127 -0.089,-0.175 -0.196,-0.215c-0.096,-0.036 -0.151,-0.055 -0.151,-0.116c0,-0.047 0.047,-0.084 0.107,-0.084c0.087,0 0.145,0.079 0.145,0.079l0.083,-0.082c0,0 -0.082,-0.111 -0.228,-0.111c-0.141,0 -0.229,0.099 -0.229,0.198c0,0.13 0.116,0.186 0.219,0.222c0.083,0.029 0.128,0.05 0.128,0.109Z" style="fill:rgb(64,64,64);fill-rule:nonzero;"/>            </g>            <g transform="matrix(86.9199,0,0,103.8,244.939,379.472)">                <path d="M0.022,-0.366l0.093,0l0,0.21c0,0.101 0.07,0.168 0.162,0.168c0.069,0 0.114,-0.031 0.114,-0.031l-0.044,-0.098c0,0 -0.023,0.017 -0.05,0.017c-0.032,0 -0.062,-0.017 -0.062,-0.075l0,-0.191l0.143,0l0,-0.108l-0.143,0l0,-0.141l-0.12,0l0,0.141l-0.093,0l0,0.108Z" style="fill:rgb(64,64,64);fill-rule:nonzero;"/>            </g>            <g transform="matrix(86.9199,0,0,103.8,281.098,379.472)">                <path d="M0.281,-0.486c-0.141,0 -0.253,0.109 -0.253,0.249c0,0.139 0.112,0.249 0.253,0.249c0.141,0 0.253,-0.11 0.253,-0.249c0,-0.14 -0.112,-0.249 -0.253,-0.249Zm0,0.386c-0.081,0 -0.131,-0.063 -0.131,-0.137c0,-0.074 0.05,-0.137 0.131,-0.137c0.081,0 0.131,0.063 0.131,0.137c0,0.074 -0.05,0.137 -0.131,0.137Z" style="fill:rgb(64,64,64);fill-rule:nonzero;"/>            </g>            <g transform="matrix(86.9199,0,0,103.8,329.947,379.472)">                <path d="M0.283,-0.1c-0.081,0 -0.133,-0.063 -0.133,-0.137c0,-0.074 0.052,-0.137 0.133,-0.137c0.072,0 0.111,0.05 0.111,0.05l0.083,-0.074c0,0 -0.067,-0.088 -0.194,-0.088c-0.142,0 -0.255,0.109 -0.255,0.249c0,0.139 0.113,0.249 0.255,0.249c0.128,0 0.196,-0.09 0.196,-0.09l-0.079,-0.08c0,0 -0.036,0.058 -0.117,0.058Z" style="fill:rgb(64,64,64);fill-rule:nonzero;"/>            </g>            <g transform="matrix(86.9199,0,0,103.8,373.146,379.472)">                <path d="M0.194,-0.756l-0.12,0l0,0.756l0.12,0l0,-0.207l0.181,0.207l0.158,0l-0.222,-0.25l0.208,-0.224l-0.155,0l-0.17,0.187l0,-0.469Z" style="fill:rgb(64,64,64);fill-rule:nonzero;"/>            </g>            <g transform="matrix(86.9199,0,0,103.8,419.648,379.472)">                <path d="M0.389,-0.1c-0.138,0 -0.233,-0.115 -0.233,-0.25c0,-0.135 0.095,-0.25 0.233,-0.25c0.115,0 0.178,0.077 0.178,0.077l0.081,-0.079c0,0 -0.091,-0.11 -0.259,-0.11c-0.202,0 -0.355,0.155 -0.355,0.362c0,0.207 0.153,0.362 0.355,0.362c0.177,0 0.269,-0.119 0.269,-0.119l-0.08,-0.079c0,0 -0.066,0.086 -0.189,0.086Z" style="fill:rgb(64,64,64);fill-rule:nonzero;"/>            </g>            <g transform="matrix(86.9199,0,0,103.8,478.406,379.472)">                <path d="M0.303,-0.486c-0.088,0 -0.129,0.081 -0.129,0.081l0,-0.069l-0.114,0l0,0.474l0.12,0l0,-0.31c0,0 0.033,-0.064 0.106,-0.064c0.035,0 0.057,0.011 0.057,0.011l0.042,-0.108c0,0 -0.039,-0.015 -0.082,-0.015Z" style="fill:rgb(64,64,64);fill-rule:nonzero;"/>            </g>            <g transform="matrix(86.9199,0,0,103.8,510.653,379.472)">                <path d="M0.281,-0.486c-0.141,0 -0.253,0.109 -0.253,0.249c0,0.139 0.112,0.249 0.253,0.249c0.141,0 0.253,-0.11 0.253,-0.249c0,-0.14 -0.112,-0.249 -0.253,-0.249Zm0,0.386c-0.081,0 -0.131,-0.063 -0.131,-0.137c0,-0.074 0.05,-0.137 0.131,-0.137c0.081,0 0.131,0.063 0.131,0.137c0,0.074 -0.05,0.137 -0.131,0.137Z" style="fill:rgb(64,64,64);fill-rule:nonzero;"/>            </g>            <g transform="matrix(86.9199,0,0,103.8,558.111,379.472)">                <path d="M0.004,-0.474l0.229,0.498l0.15,-0.338l0.152,0.338l0.229,-0.498l-0.122,0l-0.102,0.243l-0.1,-0.243l-0.101,0l-0.103,0.243l-0.098,-0.243l-0.134,0Z" style="fill:rgb(64,64,64);fill-rule:nonzero;"/>            </g>            <g transform="matrix(86.9199,0,0,103.8,624.866,379.472)">                <path d="M0.513,-0.756l-0.12,0l0,0.332c0,0 -0.044,-0.062 -0.134,-0.062c-0.123,0 -0.231,0.103 -0.231,0.249c0,0.146 0.108,0.249 0.231,0.249c0.102,0 0.143,-0.074 0.143,-0.074l0,0.062l0.111,0l0,-0.756Zm-0.12,0.59c0,0 -0.034,0.066 -0.113,0.066c-0.081,0 -0.13,-0.059 -0.13,-0.137c0,-0.078 0.049,-0.137 0.13,-0.137c0.079,0 0.113,0.066 0.113,0.066l0,0.142Z" style="fill:rgb(64,64,64);fill-rule:nonzero;"/>            </g>            <g transform="matrix(86.9199,0,0,103.8,701.442,379.472)">                <rect x="0.088" y="-0.7" width="0.12" height="0.7" style="fill:rgb(64,64,64);fill-rule:nonzero;"/>            </g>            <g transform="matrix(86.9199,0,0,103.8,727.171,379.472)">                <path d="M0.074,-0.7l0,0.7l0.12,0l0,-0.481l0.35,0.481l0.108,0l0,-0.7l-0.12,0l0,0.482l-0.35,-0.482l-0.108,0Z" style="fill:rgb(64,64,64);fill-rule:nonzero;"/>            </g>        </g>    </g></svg>