<?xml version="1.0" encoding="UTF-8" standalone="no"?><!DOCTYPE svg PUBLIC "-//W3C//DTD SVG 1.1//EN" "http://www.w3.org/Graphics/SVG/1.1/DTD/svg11.dtd"><svg width="100%" height="100%" viewBox="0 0 1024 512" version="1.1" xmlns="http://www.w3.org/2000/svg" xmlns:xlink="http://www.w3.org/1999/xlink" xml:space="preserve" style="fill-rule:evenodd;clip-rule:evenodd;stroke-linejoin:round;stroke-miterlimit:2;"><title>Growthdeck</title><desc>We provide tax-efficient and growth investment opportunities for our network of sophisticated private investors and introducers.</desc>    <g transform="matrix(3.54659,0,0,3.54659,-5.09318,163.789)">        <g>            <path d="M69.9,33.7c-2,-2.1 -3,-4.9 -3,-8.2c0,-3.3 1,-6.1 3,-8.2c2,-2.1 4.5,-3.2 7.5,-3.2c3,0 5.4,1.3 7,3.8l0,-3.4l5.6,0l0,22.3c0,3.2 -0.9,5.8 -2.8,7.8c-1.9,2 -4.5,3 -7.9,3c-3.4,0 -6.1,-0.7 -8,-2.1c-2,-1.4 -3.1,-3.4 -3.4,-6l5.5,0c0.3,1 1,1.8 2,2.3c1,0.6 2.2,0.9 3.7,0.9c1.5,0 2.7,-0.5 3.7,-1.5c1,-1 1.5,-2.5 1.5,-4.4l0,-3.9c-1.7,2.7 -4,4 -7,4c-2.9,0 -5.4,-1.1 -7.4,-3.2Zm12.7,-3.4c1.2,-1.2 1.8,-2.8 1.8,-4.8c0,-2 -0.6,-3.6 -1.8,-4.8c-1.2,-1.2 -2.5,-1.7 -4.1,-1.7c-1.6,0 -2.9,0.6 -4.1,1.7c-1.2,1.1 -1.7,2.7 -1.7,4.8c0,2 0.6,3.6 1.8,4.8c1.2,1.2 2.5,1.8 4.1,1.8c1.6,0 2.8,-0.7 4,-1.8Z" style="fill:url(#_Linear1);fill-rule:nonzero;"/>            <path d="M99.8,14.4l0,3.9c1.5,-2.8 3.7,-4.2 6.5,-4.2l0,5.8l-1.4,0c-1.7,0 -2.9,0.4 -3.8,1.3c-0.9,0.8 -1.3,2.3 -1.3,4.3l0,11.1l-5.6,0l0,-22.2l5.6,0Z" style="fill:url(#_Linear2);fill-rule:nonzero;"/>            <path d="M110.2,33.7c-2.2,-2.1 -3.2,-4.9 -3.2,-8.3c0,-3.4 1.1,-6.2 3.3,-8.2c2.2,-2 4.9,-3.1 8.1,-3.1c3.2,0 6,1 8.1,3.1c2.2,2.1 3.3,4.8 3.3,8.2c0,3.4 -1.1,6.2 -3.3,8.3c-2.2,2.1 -4.9,3.2 -8.2,3.2c-3.3,0 -5.9,-1.1 -8.1,-3.2Zm8.1,-1.6c1.6,0 2.9,-0.6 4.1,-1.7c1.1,-1.2 1.7,-2.8 1.7,-4.9c0,-2.1 -0.6,-3.8 -1.7,-4.9c-1.1,-1.1 -2.5,-1.7 -4.1,-1.7c-1.6,0 -2.9,0.6 -4,1.7c-1.1,1.1 -1.6,2.8 -1.6,4.9c0,2.1 0.5,3.8 1.6,4.9c1.1,1.2 2.5,1.7 4,1.7Z" style="fill:url(#_Linear3);fill-rule:nonzero;"/>            <path d="M157.2,14.4l5.4,0l-6.8,22.2l-6,0l-3.8,-14.9l-3.8,14.9l-6,0l-6.8,-22.2l5.7,0l4.1,16.8l4.1,-16.8l5.9,0l4,16.8l4,-16.8Z" style="fill:url(#_Linear4);fill-rule:nonzero;"/>            <path d="M173.7,31.8l2.7,0l0,4.7l-3.6,0c-2.3,0 -4,-0.5 -5.2,-1.6c-1.2,-1 -1.8,-2.8 -1.8,-5.2l0,-10.7l-2.4,0l0,-4.6l2.4,0l0,-5.5l5.6,0l0,5.5l5,0l0,4.6l-5,0l0,10.8c0,0.7 0.2,1.2 0.5,1.5c0.3,0.3 0.9,0.5 1.8,0.5Z" style="fill:url(#_Linear5);fill-rule:nonzero;"/>            <path d="M185,7l0,10.8c1.4,-2.4 3.7,-3.6 6.9,-3.6c2.5,0 4.6,0.8 6.2,2.5c1.6,1.7 2.4,4 2.4,6.9l0,13l-5.6,0l0,-12.3c0,-1.7 -0.4,-3.1 -1.3,-4c-0.9,-0.9 -2.1,-1.4 -3.6,-1.4c-1.5,0 -2.7,0.5 -3.6,1.4c-0.9,0.9 -1.3,2.2 -1.3,4l0,12.2l-5.6,0l0,-29.5l5.5,0Z" style="fill:url(#_Linear6);fill-rule:nonzero;"/>            <path d="M206.1,33.7c-2,-2.2 -3,-4.9 -3,-8.3c0,-3.4 1,-6 3,-8.1c2,-2 4.5,-3.1 7.6,-3.1c2,0 3.7,0.5 5.2,1.4c1.5,1 2.6,2.2 3.3,3.7l0,-12.3l2.8,0l0,29.6l-2.8,0l0,-4.8c-0.7,1.5 -1.8,2.8 -3.3,3.7c-1.5,1 -3.2,1.5 -5.2,1.5c-3.1,0 -5.6,-1.1 -7.6,-3.3Zm13.7,-1.6c1.6,-1.6 2.4,-3.8 2.4,-6.5c0,-2.7 -0.8,-4.8 -2.4,-6.5c-1.6,-1.6 -3.5,-2.5 -5.7,-2.5c-2.2,0 -4.1,0.8 -5.7,2.4c-1.6,1.6 -2.4,3.7 -2.4,6.4c0,2.7 0.8,4.9 2.4,6.6c1.6,1.7 3.5,2.5 5.7,2.5c2.2,0 4.1,-0.8 5.7,-2.4Z" style="fill:url(#_Linear7);fill-rule:nonzero;"/>            <path d="M238.4,37c-3.1,0 -5.7,-1 -7.6,-3.1c-1.9,-2.1 -2.9,-4.8 -2.9,-8.2c0,-3.4 1,-6.1 3,-8.2c2,-2.1 4.6,-3.1 7.7,-3.1c3.1,0 5.7,1 7.5,2.9c1.9,1.9 2.8,4.4 2.8,7.2c0,0.8 -0.1,1.5 -0.2,2.2l-18,0c0.1,2.5 0.9,4.5 2.3,5.9c1.4,1.4 3.2,2.2 5.4,2.2c1.7,0 3.1,-0.4 4.3,-1.2c1.2,-0.8 2,-1.8 2.5,-3l3,0c-0.7,1.9 -1.9,3.4 -3.5,4.6c-1.6,1.2 -3.7,1.8 -6.3,1.8Zm7.7,-12.6c0,-2.4 -0.7,-4.3 -2.2,-5.7c-1.5,-1.4 -3.3,-2.1 -5.4,-2.1c-2.1,0 -3.9,0.7 -5.4,2.1c-1.4,1.4 -2.2,3.3 -2.3,5.8l15.3,0l0,-0.1Z" style="fill:url(#_Linear8);fill-rule:nonzero;"/>            <path d="M253.5,33.8c-1.9,-2.1 -2.9,-4.8 -2.9,-8.2c0,-3.4 1,-6.1 2.9,-8.2c1.9,-2.1 4.5,-3.1 7.6,-3.1c5.1,0 8.4,2.3 9.8,6.9l-3,0c-0.5,-1.5 -1.3,-2.6 -2.4,-3.4c-1.2,-0.8 -2.6,-1.2 -4.3,-1.2c-2.3,0 -4.1,0.8 -5.5,2.3c-1.4,1.6 -2.1,3.8 -2.1,6.7c0,2.9 0.7,5.2 2.1,6.7c1.4,1.6 3.3,2.4 5.5,2.4c1.7,0 3.2,-0.4 4.3,-1.2c1.1,-0.8 2,-2 2.4,-3.4l3,0c-0.7,2.1 -1.9,3.7 -3.5,5c-1.6,1.3 -3.7,1.9 -6.3,1.9c-3.1,0 -5.6,-1.1 -7.6,-3.2Z" style="fill:url(#_Linear9);fill-rule:nonzero;"/>            <path d="M276.7,36.6l-2.8,0l0,-29.6l2.8,0l0,17.5l8.8,-9.8l4,0l-10.5,10.8l10.6,11l-3.8,0l-9,-9.8l0,9.9l-0.1,0Z" style="fill:url(#_Linear10);fill-rule:nonzero;"/>        </g>        <g>            <path d="M26.8,36.7l-4.4,0c-6.5,0 -11.9,-5.3 -11.9,-11.9c0,-6.5 5.3,-11.9 11.9,-11.9l2.8,0l0,-8.5l-2.8,0c-11.3,0 -20.4,9.2 -20.4,20.4c0,11.2 9.1,20.4 20.4,20.4l12.5,0l0,-1.4l0,-17.7l-4,-2l-4.1,2l0,10.6Z" style="fill:url(#_Linear11);fill-rule:nonzero;"/>            <path d="M34.9,13l4.4,0c6.5,0 11.9,5.3 11.9,11.9c0,6.5 -5.3,11.9 -11.9,11.9l-2.8,0l0,8.5l2.8,0c11.2,0 20.4,-9.1 20.4,-20.4c0,-11.3 -9.2,-20.5 -20.4,-20.5l-12.5,0l0,19.6l4,-2l4,2l0,-11l0.1,0Z" style="fill:url(#_Linear12);fill-rule:nonzero;"/>        </g>    </g>    <defs>        <linearGradient id="_Linear1" x1="0" y1="0" x2="1" y2="0" gradientUnits="userSpaceOnUse" gradientTransform="matrix(291.5,0,0,291.5,0,25.55)"><stop offset="0" style="stop-color:rgb(10,28,198);stop-opacity:1"/><stop offset="1" style="stop-color:rgb(19,24,73);stop-opacity:1"/></linearGradient>        <linearGradient id="_Linear2" x1="0" y1="0" x2="1" y2="0" gradientUnits="userSpaceOnUse" gradientTransform="matrix(291.5,0,0,291.5,0,25.55)"><stop offset="0" style="stop-color:rgb(10,28,198);stop-opacity:1"/><stop offset="1" style="stop-color:rgb(19,24,73);stop-opacity:1"/></linearGradient>        <linearGradient id="_Linear3" x1="0" y1="0" x2="1" y2="0" gradientUnits="userSpaceOnUse" gradientTransform="matrix(291.5,0,0,291.5,0,25.55)"><stop offset="0" style="stop-color:rgb(10,28,198);stop-opacity:1"/><stop offset="1" style="stop-color:rgb(19,24,73);stop-opacity:1"/></linearGradient>        <linearGradient id="_Linear4" x1="0" y1="0" x2="1" y2="0" gradientUnits="userSpaceOnUse" gradientTransform="matrix(291.5,0,0,291.5,0,25.55)"><stop offset="0" style="stop-color:rgb(10,28,198);stop-opacity:1"/><stop offset="1" style="stop-color:rgb(19,24,73);stop-opacity:1"/></linearGradient>        <linearGradient id="_Linear5" x1="0" y1="0" x2="1" y2="0" gradientUnits="userSpaceOnUse" gradientTransform="matrix(291.5,0,0,291.5,0,25.55)"><stop offset="0" style="stop-color:rgb(10,28,198);stop-opacity:1"/><stop offset="1" style="stop-color:rgb(19,24,73);stop-opacity:1"/></linearGradient>        <linearGradient id="_Linear6" x1="0" y1="0" x2="1" y2="0" gradientUnits="userSpaceOnUse" gradientTransform="matrix(291.5,0,0,291.5,0,25.55)"><stop offset="0" style="stop-color:rgb(10,28,198);stop-opacity:1"/><stop offset="1" style="stop-color:rgb(19,24,73);stop-opacity:1"/></linearGradient>        <linearGradient id="_Linear7" x1="0" y1="0" x2="1" y2="0" gradientUnits="userSpaceOnUse" gradientTransform="matrix(291.5,0,0,291.5,0,25.55)"><stop offset="0" style="stop-color:rgb(10,28,198);stop-opacity:1"/><stop offset="1" style="stop-color:rgb(19,24,73);stop-opacity:1"/></linearGradient>        <linearGradient id="_Linear8" x1="0" y1="0" x2="1" y2="0" gradientUnits="userSpaceOnUse" gradientTransform="matrix(291.5,0,0,291.5,0,25.55)"><stop offset="0" style="stop-color:rgb(10,28,198);stop-opacity:1"/><stop offset="1" style="stop-color:rgb(19,24,73);stop-opacity:1"/></linearGradient>        <linearGradient id="_Linear9" x1="0" y1="0" x2="1" y2="0" gradientUnits="userSpaceOnUse" gradientTransform="matrix(291.5,0,0,291.5,0,25.55)"><stop offset="0" style="stop-color:rgb(10,28,198);stop-opacity:1"/><stop offset="1" style="stop-color:rgb(19,24,73);stop-opacity:1"/></linearGradient>        <linearGradient id="_Linear10" x1="0" y1="0" x2="1" y2="0" gradientUnits="userSpaceOnUse" gradientTransform="matrix(291.5,0,0,291.5,0,25.55)"><stop offset="0" style="stop-color:rgb(10,28,198);stop-opacity:1"/><stop offset="1" style="stop-color:rgb(19,24,73);stop-opacity:1"/></linearGradient>        <linearGradient id="_Linear11" x1="0" y1="0" x2="1" y2="0" gradientUnits="userSpaceOnUse" gradientTransform="matrix(291.5,0,0,291.5,0,25.55)"><stop offset="0" style="stop-color:rgb(10,28,198);stop-opacity:1"/><stop offset="1" style="stop-color:rgb(19,24,73);stop-opacity:1"/></linearGradient>        <linearGradient id="_Linear12" x1="0" y1="0" x2="1" y2="0" gradientUnits="userSpaceOnUse" gradientTransform="matrix(291.5,0,0,291.5,0,25.55)"><stop offset="0" style="stop-color:rgb(10,28,198);stop-opacity:1"/><stop offset="1" style="stop-color:rgb(19,24,73);stop-opacity:1"/></linearGradient>    </defs></svg>