<?xml version="1.0" encoding="UTF-8" standalone="no"?><!DOCTYPE svg PUBLIC "-//W3C//DTD SVG 1.1//EN" "http://www.w3.org/Graphics/SVG/1.1/DTD/svg11.dtd"><svg width="100%" height="100%" viewBox="0 0 1024 512" version="1.1" xmlns="http://www.w3.org/2000/svg" xmlns:xlink="http://www.w3.org/1999/xlink" xml:space="preserve" style="fill-rule:evenodd;clip-rule:evenodd;stroke-linejoin:round;stroke-miterlimit:2;"><title>Optimalus Kreditas</title><desc>OK.lt is a certified mutual borrowing platform that brings together those who want to borrow and those who want to lend and earn.</desc>    <g transform="matrix(4.31694,0,0,4.31694,-550.14,-229.257)">        <g transform="matrix(1.01224,0,0,1.01224,24.036,-356.331)">            <g transform="matrix(64,0,0,64,265.791,480.526)">                <path d="M0.137,0.013c0.03,0 0.054,-0.023 0.054,-0.053c0,-0.03 -0.024,-0.052 -0.054,-0.052c-0.03,0 -0.054,0.022 -0.054,0.052c0,0.03 0.024,0.053 0.054,0.053Z" style="fill:rgb(30,124,185);fill-rule:nonzero;"/>            </g>            <g transform="matrix(92.0319,0,0,92.0319,277.841,481.21)">                <rect x="0.095" y="-0.71" width="0.068" height="0.71" style="fill:rgb(30,124,185);fill-rule:nonzero;"/>            </g>            <g transform="matrix(92.0319,0,0,92.0319,296.133,480.665)">                <path d="M0.383,-0.055c-0.03,0.005 -0.058,0.008 -0.083,0.008c-0.072,0 -0.1,-0.037 -0.1,-0.12l0,-0.233l0.165,0l0,-0.062l-0.165,0l0,-0.194l-0.068,0l0,0.194l-0.106,0l0,0.062l0.106,0l0,0.239c0,0.121 0.051,0.176 0.157,0.176c0.04,0 0.066,-0.004 0.103,-0.013l-0.009,-0.057Z" style="fill:rgb(30,124,185);fill-rule:nonzero;"/>            </g>            <g transform="matrix(2.3176,0,0,2.3176,-471.633,-440.122)">                <path d="M297.109,378.215l12.288,-13.684l7.385,0l-14.762,16.27l16.168,16.851l-7.638,0l-12.384,-12.699l-3.671,0l0,12.699l-5.698,0l0,-33.121l5.698,0l0,13.684l2.614,0Z" style="fill:rgb(30,124,185);fill-rule:nonzero;"/>            </g>            <g transform="matrix(0.545173,0,0,0.545173,79.0254,321.657)">                <path d="M52.868,225.573l68.376,0l0,15.267l-31.863,0c6.302,18.334 22.526,29.762 43.792,29.762l0.122,0l-6.021,10.191l7.502,12.01c-0.47,0.007 -0.944,0.011 -1.421,0.011c-35.47,0 -61.547,-20.192 -68.603,-51.974l-11.884,0l0,-15.267Z" style="fill:rgb(68,178,76);"/>            </g>            <g transform="matrix(0.545173,0,0,0.545173,79.0254,321.657)">                <path d="M143.226,269.707c22.19,-4.09 36.784,-21.896 36.784,-46.856c0,-27.287 -17.454,-45.864 -43.201,-47.456l8.388,-12.032l-6.598,-10.324c38.898,2.249 65.084,29.623 65.084,69.812c0,37.982 -23.388,64.518 -58.793,69.217l-6.93,-11.378l5.266,-10.983Z" style="fill:rgb(30,124,185);"/>            </g>            <g transform="matrix(0.545173,0,0,0.545173,79.0254,321.657)">                <path d="M64.934,204.066c6.953,-29.773 30.729,-49.183 63.271,-51.032l6.749,10.851l-7.436,11.674c-18.159,1.803 -31.939,12.344 -37.843,28.507l31.569,0l0,15.267l-68.376,0l0,-15.267l12.066,0Z" style="fill:rgb(68,178,76);"/>            </g>        </g>        <g transform="matrix(0.705706,0,0,0.517712,94.6786,-43.6425)">            <g transform="matrix(0.781975,0,0,1.06593,13.2491,-19.1967)">                <path d="M67.639,363.855c-10.29,0 -17.371,6.898 -17.371,17.236c0,10.339 7.081,17.236 17.371,17.236c10.291,0 17.326,-6.896 17.326,-17.236c0,-10.339 -7.035,-17.236 -17.326,-17.236Zm-0.045,29c-6.79,0 -11.494,-4.729 -11.494,-11.764c0,-7.033 4.705,-11.719 11.494,-11.719c6.831,0 11.539,4.685 11.539,11.719c0,7.036 -4.707,11.764 -11.539,11.764Z" style="fill:rgb(30,124,185);fill-rule:nonzero;"/>            </g>            <g transform="matrix(0.781975,0,0,1.06593,13.2491,-19.1967)">                <path d="M94.422,397.474l0,10.355l-5.563,0l0,-32.798l0.995,-0.207c3.32,-0.691 6.917,-1.152 10.928,-1.152c3.657,0 6.571,1.266 8.595,3.423c2,2.131 3.142,5.159 3.192,8.815c0,7.001 -4.656,11.967 -11.607,11.967c-2.328,0 -3.917,-0.001 -6.54,-0.403Zm0.045,-5.182c2.793,0.465 4.223,0.428 6.18,0.428c3.934,0 6.405,-2.9 6.405,-6.72c0,-2.133 -0.543,-3.958 -1.682,-5.237c-1.109,-1.246 -2.777,-1.934 -4.948,-1.934c-2.068,0 -3.878,0.129 -5.955,0.416l0,13.047Z" style="fill:rgb(30,124,185);fill-rule:nonzero;"/>            </g>            <g transform="matrix(0.781975,0,0,1.06593,13.2491,-19.1967)">                <path d="M123.692,374.348l7.43,0l0,5.291l-7.43,0l0,9.243c0,1.741 0.216,2.945 1.041,3.596c0.522,0.412 1.257,0.557 2.212,0.557c1.064,0 2.255,-0.13 3.532,-0.343l1.243,-0.207l0.782,4.949l-1.119,0.273c-1.772,0.431 -3.018,0.62 -4.934,0.62c-2.814,0 -4.873,-0.799 -6.253,-2.333c-1.338,-1.486 -2.066,-3.729 -2.066,-6.842l0,-9.513l-4.774,0l0,-5.291l4.774,0l0,-8.737l5.562,0l0,8.737Z" style="fill:rgb(30,124,185);fill-rule:nonzero;"/>            </g>            <g transform="matrix(0.781975,0,0,1.06593,13.2491,-19.1967)">                <path d="M141.029,374.348l-5.562,0l0,23.304l5.562,0l0,-23.304Zm-2.781,-2.814c1.968,0 3.501,-1.489 3.501,-3.457c0,-2.031 -1.54,-3.501 -3.501,-3.501c-1.961,0 -3.502,1.47 -3.502,3.501c0,1.968 1.534,3.457 3.502,3.457Z" style="fill:rgb(30,124,185);fill-rule:nonzero;"/>            </g>            <g transform="matrix(0.781975,0,0,1.06593,13.2491,-19.1967)">                <path d="M163.981,375.252c2.866,-1.087 6.099,-1.58 9.211,-1.58c2.961,0 5.265,0.848 6.85,2.471c1.564,1.603 2.46,4.007 2.46,7.29l0,14.219l-5.607,0l0,-13.499c0,-1.731 -0.3,-3.07 -1.054,-3.959c-0.699,-0.824 -1.784,-1.185 -3.235,-1.185c-1.818,0 -3.637,0.178 -5.633,0.792c0.232,0.938 0.354,2.048 0.354,3.362l0,14.489l-5.562,0c0,0 0,-13.724 0,-13.724c0,-1.848 -0.263,-3.128 -1.032,-3.919c-0.744,-0.766 -1.912,-0.998 -3.502,-1c-1.627,0.075 -3.225,0.18 -5.08,0.422l0,18.221l-5.562,0l0,-22.618l0.993,-0.209c2.625,-0.553 6.585,-1.06 10.177,-1.153l0.032,0c2.653,0 4.662,0.52 6.19,1.58Z" style="fill:rgb(30,124,185);fill-rule:nonzero;"/>            </g>            <g transform="matrix(0.781975,0,0,1.06593,13.2491,-19.1967)">                <path d="M203.959,396.737c-2.1,1.08 -4.134,1.59 -6.541,1.59c-6.935,0 -11.607,-4.93 -11.607,-12.426c0.025,-3.642 1.169,-6.674 3.177,-8.807c2.03,-2.156 4.955,-3.422 8.611,-3.422c4.004,0 6.628,0.32 10.909,1.149l1.013,0.196l0,22.635l-5.562,0l0,-0.915Zm0,-17.492c-2.078,-0.287 -3.887,-0.416 -5.955,-0.416c-2.172,0 -3.839,0.688 -4.949,1.934c-1.139,1.279 -1.682,3.104 -1.682,5.237c0,4.223 2.449,7.17 6.406,7.17c2.081,0 3.91,-0.545 6.18,-1.955l0,-11.97Z" style="fill:rgb(30,124,185);fill-rule:nonzero;"/>            </g>            <g transform="matrix(0.781975,0,0,1.06593,13.2491,-19.1967)">                <path d="M220.689,363.18l-5.562,0l0,34.472l5.562,0l0,-34.472Z" style="fill:rgb(30,124,185);fill-rule:nonzero;"/>            </g>            <g transform="matrix(0.781975,0,0,1.06593,13.2491,-19.1967)">                <path d="M243.001,392.712l0,-18.364l5.562,0l0,22.594l-0.964,0.226c-3.139,0.739 -7.847,1.159 -11.679,1.159c-2.984,0 -5.384,-0.823 -7.056,-2.424c-1.674,-1.603 -2.66,-4.015 -2.66,-7.337l0,-14.218l5.562,0c0,0 0,13.633 0,13.633c0,1.714 0.378,3.049 1.207,3.938c0.8,0.858 2.002,1.251 3.532,1.251c1.951,0 4.136,-0.133 6.496,-0.458Z" style="fill:rgb(30,124,185);fill-rule:nonzero;"/>            </g>            <g transform="matrix(0.781975,0,0,1.06593,13.2491,-19.1967)">                <path d="M251.803,395.721l1.004,0.433c3.083,1.328 6.736,2.173 9.771,2.173c5.82,0 9.761,-2.708 9.761,-7.689c0,-3.047 -1.473,-4.712 -4.005,-5.826c-1.426,-0.628 -3.234,-1.067 -5.309,-1.52c-1.365,-0.32 -2.484,-0.584 -3.326,-0.922c-0.759,-0.304 -1.229,-0.631 -1.229,-1.369c0,-1.646 1.457,-2.262 3.748,-2.262c2.008,0 4.655,0.522 7.048,1.291l1.177,0.378l1.59,-4.769l-1.157,-0.409c-2.274,-0.806 -5.543,-1.513 -8.433,-1.513c-6.007,0 -9.49,2.835 -9.49,7.419c0,4.016 2.553,5.878 7.837,6.988c1.95,0.407 3.655,0.713 4.87,1.249c0.762,0.335 1.297,0.743 1.297,1.535c0,0.713 -0.367,1.251 -0.957,1.621c-0.801,0.503 -1.937,0.732 -3.241,0.732c-2.378,0 -5.432,-0.735 -8.234,-1.966l-1.317,-0.579l-1.405,5.005Z" style="fill:rgb(30,124,185);fill-rule:nonzero;"/>            </g>            <g transform="matrix(0.781975,0,0,1.06593,13.2491,-19.1967)">                <path d="M295.933,380.391l13.464,-15.86l6.562,0l-13.939,16.27l15.11,16.851l-6.58,0l-12.384,-12.699l-3.671,0l0,12.699l-5.698,0l0,-33.121l5.698,0l0,15.86l1.438,0Z" style="fill:rgb(67,178,76);fill-rule:nonzero;"/>            </g>            <g transform="matrix(0.781975,0,0,1.06593,13.2491,-19.1967)">                <path d="M324.035,379.69l0,17.962l-5.562,0l0,-22.516l1.03,-0.184c3.854,-0.688 7.847,-1.1 11.793,-1.1l1.25,0l0,5.517l-1.25,0c-2.556,0 -4.739,0.067 -7.261,0.321Z" style="fill:rgb(67,178,76);fill-rule:nonzero;"/>            </g>            <g transform="matrix(0.781975,0,0,1.06593,13.2491,-19.1967)">                <path d="M339.665,388.42c0.84,2.825 3.177,4.615 6.536,4.615c2.551,0 4.624,-0.44 7.348,-1.132l1.279,-0.325l0.97,4.935l-1.093,0.322c-2.864,0.845 -5.307,1.492 -8.594,1.492c-3.946,0 -7.055,-1.32 -9.191,-3.506c-2.138,-2.188 -3.317,-5.265 -3.317,-8.866c0,-7.428 5.032,-12.283 12.058,-12.283c3.288,0 6.06,1.09 8.026,3.006c1.969,1.918 3.15,4.679 3.176,8.106c0,1.109 -0.002,1.495 -0.147,2.555l-0.147,1.081l-16.904,0Zm11.791,-4.931c-0.219,-1.325 -0.745,-2.418 -1.544,-3.223c-1.025,-1.034 -2.482,-1.572 -4.206,-1.572c-3.235,0 -5.475,1.859 -6.193,4.795l11.943,0Z" style="fill:rgb(67,178,76);fill-rule:nonzero;"/>            </g>            <g transform="matrix(0.781975,0,0,1.06593,13.2491,-19.1967)">                <path d="M377.418,374.268l0,-11.088l5.563,0l0,33.855l-1.021,0.19c-5.656,1.058 -7.771,1.012 -11.082,1.012c-3.437,0 -6.334,-1.212 -8.381,-3.366c-2.02,-2.126 -3.226,-5.192 -3.226,-9.006c0,-3.626 1.123,-6.652 3.161,-8.784c2.047,-2.141 5.034,-3.409 8.851,-3.409c2.066,0 4.071,0.152 6.135,0.596Zm-0.045,5.217c-2.141,-0.526 -4.013,-0.656 -5.819,-0.656c-2.242,0 -3.95,0.668 -5.08,1.898c-1.148,1.248 -1.686,3.036 -1.686,5.138c0,2.216 0.574,4.076 1.73,5.369c1.123,1.255 2.788,1.936 4.9,1.936c1.683,0 3.155,0 5.955,-0.44l0,-13.245Z" style="fill:rgb(67,178,76);fill-rule:nonzero;"/>            </g>            <g transform="matrix(0.781975,0,0,1.06593,13.2491,-19.1967)">                <path d="M394.103,374.348l-5.562,0l0,23.304l5.562,0l0,-23.304Zm-2.781,-2.814c1.968,0 3.502,-1.489 3.502,-3.457c0,-2.031 -1.541,-3.501 -3.502,-3.501c-1.961,0 -3.501,1.47 -3.501,3.501c0,1.968 1.533,3.457 3.501,3.457Z" style="fill:rgb(67,178,76);fill-rule:nonzero;"/>            </g>            <g transform="matrix(0.781975,0,0,1.06593,13.2491,-19.1967)">                <path d="M407.207,374.348l7.43,0l0,5.291l-7.43,0l0,9.243c0,1.741 0.216,2.945 1.042,3.596c0.522,0.412 1.257,0.557 2.211,0.557c1.064,0 2.256,-0.13 3.532,-0.343l1.244,-0.207l0.782,4.949l-1.119,0.273c-1.773,0.431 -3.018,0.62 -4.934,0.62c-2.814,0 -4.873,-0.799 -6.254,-2.333c-1.338,-1.486 -2.066,-3.729 -2.066,-6.842l0,-9.513l-4.773,0l0,-5.291l4.773,0l0,-8.737l5.562,0l0,8.737Z" style="fill:rgb(67,178,76);fill-rule:nonzero;"/>            </g>            <g transform="matrix(0.781975,0,0,1.06593,13.2491,-19.1967)">                <path d="M434.878,396.737c-2.1,1.08 -4.134,1.59 -6.54,1.59c-6.935,0 -11.607,-4.93 -11.607,-12.426c0.025,-3.642 1.168,-6.674 3.176,-8.807c2.03,-2.156 4.955,-3.422 8.611,-3.422c4.005,0 6.629,0.32 10.91,1.149l1.012,0.196l0,22.635l-5.562,0l0,-0.915Zm0,-17.492c-2.077,-0.287 -3.887,-0.416 -5.955,-0.416c-2.171,0 -3.839,0.688 -4.948,1.934c-1.139,1.279 -1.682,3.104 -1.682,5.237c0,4.223 2.448,7.17 6.405,7.17c2.081,0 3.91,-0.545 6.18,-1.955l0,-11.97Z" style="fill:rgb(67,178,76);fill-rule:nonzero;"/>            </g>            <g transform="matrix(0.781975,0,0,1.06593,13.2491,-19.1967)">                <path d="M443.59,395.721l1.005,0.433c3.082,1.328 6.736,2.173 9.771,2.173c5.819,0 9.761,-2.708 9.761,-7.689c0,-3.047 -1.474,-4.712 -4.005,-5.826c-1.426,-0.628 -3.235,-1.067 -5.31,-1.52c-1.364,-0.32 -2.483,-0.584 -3.326,-0.922c-0.758,-0.304 -1.229,-0.631 -1.229,-1.369c0,-1.646 1.457,-2.262 3.748,-2.262c2.008,0 4.656,0.522 7.048,1.291l1.177,0.378l1.59,-4.769l-1.157,-0.409c-2.273,-0.806 -5.543,-1.513 -8.432,-1.513c-6.008,0 -9.491,2.835 -9.491,7.419c0,4.016 2.554,5.878 7.838,6.988c1.949,0.407 3.655,0.713 4.869,1.249c0.763,0.335 1.298,0.743 1.298,1.535c0,0.713 -0.368,1.251 -0.957,1.621c-0.802,0.503 -1.937,0.732 -3.242,0.732c-2.378,0 -5.431,-0.735 -8.233,-1.966l-1.318,-0.579l-1.405,5.005Z" style="fill:rgb(67,178,76);fill-rule:nonzero;"/>            </g>        </g>    </g></svg>