<?xml version="1.0" encoding="UTF-8" standalone="no"?><!DOCTYPE svg PUBLIC "-//W3C//DTD SVG 1.1//EN" "http://www.w3.org/Graphics/SVG/1.1/DTD/svg11.dtd"><svg width="100%" height="100%" viewBox="0 0 1024 512" version="1.1" xmlns="http://www.w3.org/2000/svg" xmlns:xlink="http://www.w3.org/1999/xlink" xml:space="preserve" style="fill-rule:evenodd;clip-rule:evenodd;stroke-linejoin:round;stroke-miterlimit:2;"><title>Nucleus</title><desc>Nucleus is an award winning online wrap platform, launched in 2006 by a group of seven financial adviser firms who set out to create a platform with a difference. They created a new model, putting the adviser and client at the heart of the process, focusing on a client-aligned approach rather than a product-led one, to develop a platform that was committed to transparency and banishing complexity.</desc>    <g transform="matrix(9.51097,0,0,9.51097,-4370.05,-2178.81)">        <g transform="matrix(0,1,1,0,476.262,240.731)">            <path d="M14.045,-16.493c-6.123,0.824 -10.623,7.625 -10.623,15.27c0.001,7.645 4.501,14.447 10.624,15.269c6.863,0.923 13.069,-5.866 13.069,-15.269c0,-9.402 -6.206,-16.192 -13.07,-15.269" style="fill:rgb(138,132,115);"/>        </g>        <g transform="matrix(3.21702e-14,8.2101,8.2101,-3.21702e-14,475.058,244.65)">            <path d="M0.401,-1.102c0.28,-0.164 0.599,0.352 0.599,1.097c-0,0.745 -0.323,1.267 -0.599,1.097c-0.227,-0.141 -0.401,-0.587 -0.401,-1.097c0,-0.511 0.166,-0.959 0.401,-1.097Z" style="fill:url(#_Linear1);fill-rule:nonzero;"/>        </g>        <g transform="matrix(0.00246772,0.999997,0.999997,-0.00246772,473.983,241.738)">            <path d="M8.865,-6.921c-1.995,0.468 -4.197,3.55 -4.186,7.913c0.011,4.343 2.16,7.411 4.186,7.891c1.171,-0.542 2.269,-4.329 2.26,-7.93c-0.009,-3.564 -0.927,-7.377 -2.26,-7.874" style="fill:rgb(238,141,48);fill-rule:nonzero;"/>        </g>        <g transform="matrix(1,0,0,1,505.749,262.069)">            <path d="M0,-10.731c0,-0.692 0.405,-1.121 1.05,-1.121c0.643,-0 1.048,0.429 1.048,1.121l0,6.725c0,2.169 0.954,3.314 2.934,3.314c1.979,-0 2.933,-1.145 2.933,-3.314l0,-6.725c0,-0.692 0.405,-1.121 1.049,-1.121c0.644,-0 1.05,0.429 1.05,1.121l0,6.797c0,3.718 -2.481,5.055 -5.032,5.055c-2.552,0 -5.032,-1.337 -5.032,-5.055l0,-6.797Z" style="fill:rgb(138,132,115);fill-rule:nonzero;"/>        </g>        <g transform="matrix(1,0,0,1,523.142,263.19)">            <path d="M0,-12.973c2.147,0 3.41,0.74 3.41,1.598c-0,0.43 -0.357,0.883 -0.858,0.883c-0.81,0 -1.121,-0.668 -2.552,-0.668c-2.599,0 -3.624,2.528 -3.624,4.674c0,2.146 1.025,4.673 3.624,4.673c1.479,-0 1.86,-0.714 2.528,-0.714c0.478,-0 0.811,0.309 0.811,0.881c-0,0.788 -1.169,1.646 -3.339,1.646c-3.863,-0 -5.723,-3.124 -5.723,-6.486c0,-3.363 1.86,-6.487 5.723,-6.487" style="fill:rgb(138,132,115);fill-rule:nonzero;"/>        </g>        <g transform="matrix(1,0,0,1,530.653,245.757)">            <path d="M0,16.311c0,0.691 -0.405,1.121 -1.049,1.121c-0.644,-0 -1.05,-0.43 -1.05,-1.121l0,-16.311c0,-0.691 0.406,-1.121 1.05,-1.121c0.644,-0 1.049,0.43 1.049,1.121l0,16.311Z" style="fill:rgb(138,132,115);fill-rule:nonzero;"/>        </g>        <g transform="matrix(1,0,0,1,541.719,257.467)">            <path d="M0,-1.527c0,-1.813 -1.05,-3.91 -3.362,-3.91c-2.599,-0.095 -3.53,1.979 -3.602,3.91l6.964,-0Zm-6.964,1.575c0,2.169 1.384,3.862 3.744,3.862c2.79,-0 3.506,-1.716 4.293,-1.716c0.382,-0 0.763,0.333 0.763,0.93c0,1.024 -2.599,2.599 -5.08,2.599c-4.053,-0 -5.818,-3.124 -5.818,-6.487c0,-3.434 2.146,-6.486 5.7,-6.486c3.458,-0 5.461,3.124 5.461,6.176c0,0.74 -0.263,1.122 -1.169,1.122l-7.894,-0Z" style="fill:rgb(138,132,115);fill-rule:nonzero;"/>        </g>        <g transform="matrix(1,0,0,1,545.821,262.069)">            <path d="M0,-10.731c0,-0.692 0.405,-1.121 1.049,-1.121c0.644,-0 1.049,0.429 1.049,1.121l0,6.725c0,2.169 0.954,3.314 2.933,3.314c1.979,-0 2.933,-1.145 2.933,-3.314l-0,-6.725c-0,-0.692 0.406,-1.121 1.05,-1.121c0.643,-0 1.049,0.429 1.049,1.121l0,6.797c0,3.718 -2.48,5.055 -5.032,5.055c-2.551,0 -5.031,-1.337 -5.031,-5.055l-0,-6.797Z" style="fill:rgb(138,132,115);fill-rule:nonzero;"/>        </g>        <g transform="matrix(1,0,0,1,503.817,251.185)">            <path d="M0,10.731c0,0.691 -0.405,1.121 -1.049,1.121c-0.644,0 -1.05,-0.43 -1.05,-1.121l0,-6.725c0,-2.169 -0.953,-3.314 -2.932,-3.314c-1.98,0 -2.934,1.145 -2.934,3.314l0,6.725c0,0.691 -0.405,1.121 -1.049,1.121c-0.643,0 -1.049,-0.43 -1.049,-1.121l0,-6.796c0,-3.72 2.48,-5.056 5.032,-5.056c2.551,0 5.031,1.336 5.031,5.056l0,6.796Z" style="fill:rgb(138,132,115);fill-rule:nonzero;"/>        </g>        <g transform="matrix(1,0,0,1,562.375,263.19)">            <path d="M0,-12.973c1.74,0 4.22,0.93 4.22,2.241c0,0.453 -0.309,0.86 -0.954,0.86c-0.905,0 -1.264,-1.288 -3.266,-1.288c-1.192,0 -2.217,0.525 -2.217,1.598c0,2.218 6.772,1.979 6.772,5.652c0,2.645 -2.265,3.91 -4.626,3.91c-2.672,0 -4.77,-1.336 -4.77,-2.409c0,-0.571 0.405,-0.953 0.859,-0.953c0.929,-0 1.692,1.549 3.982,1.549c1.526,0 2.456,-0.858 2.456,-1.716c0,-2.481 -6.773,-2.338 -6.773,-5.867c0,-2.337 2.194,-3.577 4.317,-3.577" style="fill:rgb(138,132,115);fill-rule:nonzero;"/>        </g>    </g>    <defs>        <linearGradient id="_Linear1" x1="0" y1="0" x2="1" y2="0" gradientUnits="userSpaceOnUse" gradientTransform="matrix(1,0.000153616,0.000153616,-1,3.25564e-07,-0.00423868)"><stop offset="0" style="stop-color:white;stop-opacity:1"/><stop offset="1" style="stop-color:rgb(158,152,137);stop-opacity:1"/></linearGradient>    </defs></svg>