<?xml version="1.0" encoding="UTF-8" standalone="no"?><!DOCTYPE svg PUBLIC "-//W3C//DTD SVG 1.1//EN" "http://www.w3.org/Graphics/SVG/1.1/DTD/svg11.dtd"><svg width="100%" height="100%" viewBox="0 0 1024 512" version="1.1" xmlns="http://www.w3.org/2000/svg" xmlns:xlink="http://www.w3.org/1999/xlink" xml:space="preserve" style="fill-rule:evenodd;clip-rule:evenodd;stroke-linejoin:round;stroke-miterlimit:2;"><title>CrowdAngels</title><desc>CrowdAngels.pl is an internet website and the first platform in Poland offering only equity crowdfunding. Thanks to crowdangels.pl (not necessarily), young and aspiring businessmen can turn to the community of Internet users and crowdangels investors with an offer of capital support for their projects, often in the seed or start up phase, and thus raise capital to start. </desc>    <g transform="matrix(0.888984,0,0,0.888984,-9.65827,181.993)">        <g>            <g>                <g>                    <g transform="matrix(1,0,0,1,4,4)">                        <circle cx="86.938" cy="100.687" r="5.188" style="fill:rgb(245,128,31);"/>                    </g>                    <path d="M85.285,111.366l11.365,0c1.533,0 3.092,0.547 3.73,1.94l8.568,18.72c0.638,1.394 0.025,3.044 -1.369,3.682c-1.394,0.637 -3.044,0.024 -3.682,-1.37l-4.804,-10.496l0,16.826l-0.168,0l0,17.706c0,1.533 -1.244,2.777 -2.777,2.777c-1.533,0 -2.778,-1.244 -2.778,-2.777l0,-17.706l-4.445,0l0,17.706c0,1.533 -1.244,2.777 -2.777,2.777c-1.533,0 -2.778,-1.244 -2.778,-2.777l0,-17.706l-0.129,0l0,-17.485l-5.105,11.155c-0.638,1.394 -2.288,2.007 -3.682,1.37c-1.394,-0.638 -2.007,-2.288 -1.369,-3.682l8.568,-18.72c0.638,-1.393 2.099,-1.94 3.632,-1.94Z" style="fill:rgb(245,128,31);"/>                </g>                <g transform="matrix(1,0,0,-1,0,166.498)">                    <g transform="matrix(1,0,0,1,4,4)">                        <circle cx="86.938" cy="100.687" r="5.188" style="fill:rgb(245,128,31);"/>                    </g>                    <path d="M85.285,111.366l11.365,0c1.533,0 3.092,0.547 3.73,1.94l8.568,18.72c0.638,1.394 0.025,3.044 -1.369,3.682c-1.394,0.637 -3.044,0.024 -3.682,-1.37l-4.804,-10.496l0,16.826l-0.168,0l0,17.706c0,1.533 -1.244,2.777 -2.777,2.777c-1.533,0 -2.778,-1.244 -2.778,-2.777l0,-17.706l-4.445,0l0,17.706c0,1.533 -1.244,2.777 -2.777,2.777c-1.533,0 -2.778,-1.244 -2.778,-2.777l0,-17.706l-0.129,0l0,-17.485l-5.105,11.155c-0.638,1.394 -2.288,2.007 -3.682,1.37c-1.394,-0.638 -2.007,-2.288 -1.369,-3.682l8.568,-18.72c0.638,-1.393 2.099,-1.94 3.632,-1.94Z" style="fill:rgb(245,128,31);"/>                </g>                <g transform="matrix(6.12323e-17,1,-1,6.12323e-17,174.265,-7.76738)">                    <g transform="matrix(1,0,0,1,4,4)">                        <circle cx="86.938" cy="100.687" r="5.188" style="fill:rgb(245,128,31);"/>                    </g>                    <path d="M85.285,111.366l11.365,0c1.533,0 3.092,0.547 3.73,1.94l8.568,18.72c0.638,1.394 0.025,3.044 -1.369,3.682c-1.394,0.637 -3.044,0.024 -3.682,-1.37l-4.804,-10.496l0,16.826l-0.168,0l0,17.706c0,1.533 -1.244,2.777 -2.777,2.777c-1.533,0 -2.778,-1.244 -2.778,-2.777l0,-17.706l-4.445,0l0,17.706c0,1.533 -1.244,2.777 -2.777,2.777c-1.533,0 -2.778,-1.244 -2.778,-2.777l0,-17.706l-0.129,0l0,-17.485l-5.105,11.155c-0.638,1.394 -2.288,2.007 -3.682,1.37c-1.394,-0.638 -2.007,-2.288 -1.369,-3.682l8.568,-18.72c0.638,-1.393 2.099,-1.94 3.632,-1.94Z" style="fill:rgb(245,128,31);"/>                </g>                <g transform="matrix(6.12323e-17,1,1,-6.12323e-17,7.76738,-7.76738)">                    <g transform="matrix(1,0,0,1,4,4)">                        <circle cx="86.938" cy="100.687" r="5.188" style="fill:rgb(245,128,31);"/>                    </g>                    <path d="M85.285,111.366l11.365,0c1.533,0 3.092,0.547 3.73,1.94l8.568,18.72c0.638,1.394 0.025,3.044 -1.369,3.682c-1.394,0.637 -3.044,0.024 -3.682,-1.37l-4.804,-10.496l0,16.826l-0.168,0l0,17.706c0,1.533 -1.244,2.777 -2.777,2.777c-1.533,0 -2.778,-1.244 -2.778,-2.777l0,-17.706l-4.445,0l0,17.706c0,1.533 -1.244,2.777 -2.777,2.777c-1.533,0 -2.778,-1.244 -2.778,-2.777l0,-17.706l-0.129,0l0,-17.485l-5.105,11.155c-0.638,1.394 -2.288,2.007 -3.682,1.37c-1.394,-0.638 -2.007,-2.288 -1.369,-3.682l8.568,-18.72c0.638,-1.393 2.099,-1.94 3.632,-1.94Z" style="fill:rgb(245,128,31);"/>                </g>                <g transform="matrix(0.707107,0.707107,-0.707107,0.707107,85.524,-39.9752)">                    <g transform="matrix(1,0,0,1,4,4)">                        <circle cx="86.938" cy="100.687" r="5.188" style="fill:rgb(245,128,31);"/>                    </g>                    <path d="M85.285,111.366l11.365,0c1.533,0 3.092,0.547 3.73,1.94l8.568,18.72c0.638,1.394 0.025,3.044 -1.369,3.682c-1.394,0.637 -3.044,0.024 -3.682,-1.37l-4.804,-10.496l0,16.826l-0.168,0l0,17.706c0,1.533 -1.244,2.777 -2.777,2.777c-1.533,0 -2.778,-1.244 -2.778,-2.777l0,-17.706l-4.445,0l0,17.706c0,1.533 -1.244,2.777 -2.777,2.777c-1.533,0 -2.778,-1.244 -2.778,-2.777l0,-17.706l-0.129,0l0,-17.485l-5.105,11.155c-0.638,1.394 -2.288,2.007 -3.682,1.37c-1.394,-0.638 -2.007,-2.288 -1.369,-3.682l8.568,-18.72c0.638,-1.393 2.099,-1.94 3.632,-1.94Z" style="fill:rgb(245,128,31);"/>                </g>                <g transform="matrix(0.707107,0.707107,0.707107,-0.707107,-32.2079,77.7566)">                    <g transform="matrix(1,0,0,1,4,4)">                        <circle cx="86.938" cy="100.687" r="5.188" style="fill:rgb(245,128,31);"/>                    </g>                    <path d="M85.285,111.366l11.365,0c1.533,0 3.092,0.547 3.73,1.94l8.568,18.72c0.638,1.394 0.025,3.044 -1.369,3.682c-1.394,0.637 -3.044,0.024 -3.682,-1.37l-4.804,-10.496l0,16.826l-0.168,0l0,17.706c0,1.533 -1.244,2.777 -2.777,2.777c-1.533,0 -2.778,-1.244 -2.778,-2.777l0,-17.706l-4.445,0l0,17.706c0,1.533 -1.244,2.777 -2.777,2.777c-1.533,0 -2.778,-1.244 -2.778,-2.777l0,-17.706l-0.129,0l0,-17.485l-5.105,11.155c-0.638,1.394 -2.288,2.007 -3.682,1.37c-1.394,-0.638 -2.007,-2.288 -1.369,-3.682l8.568,-18.72c0.638,-1.393 2.099,-1.94 3.632,-1.94Z" style="fill:rgb(245,128,31);"/>                </g>                <g transform="matrix(-0.707107,0.707107,-0.707107,-0.707107,214.241,77.7566)">                    <g transform="matrix(1,0,0,1,4,4)">                        <circle cx="86.938" cy="100.687" r="5.188" style="fill:rgb(245,128,31);"/>                    </g>                    <path d="M85.285,111.366l11.365,0c1.533,0 3.092,0.547 3.73,1.94l8.568,18.72c0.638,1.394 0.025,3.044 -1.369,3.682c-1.394,0.637 -3.044,0.024 -3.682,-1.37l-4.804,-10.496l0,16.826l-0.168,0l0,17.706c0,1.533 -1.244,2.777 -2.777,2.777c-1.533,0 -2.778,-1.244 -2.778,-2.777l0,-17.706l-4.445,0l0,17.706c0,1.533 -1.244,2.777 -2.777,2.777c-1.533,0 -2.778,-1.244 -2.778,-2.777l0,-17.706l-0.129,0l0,-17.485l-5.105,11.155c-0.638,1.394 -2.288,2.007 -3.682,1.37c-1.394,-0.638 -2.007,-2.288 -1.369,-3.682l8.568,-18.72c0.638,-1.393 2.099,-1.94 3.632,-1.94Z" style="fill:rgb(245,128,31);"/>                </g>                <g transform="matrix(-0.707107,0.707107,0.707107,0.707107,96.5088,-39.9752)">                    <g transform="matrix(1,0,0,1,4,4)">                        <circle cx="86.938" cy="100.687" r="5.188" style="fill:rgb(245,128,31);"/>                    </g>                    <path d="M85.285,111.366l11.365,0c1.533,0 3.092,0.547 3.73,1.94l8.568,18.72c0.638,1.394 0.025,3.044 -1.369,3.682c-1.394,0.637 -3.044,0.024 -3.682,-1.37l-4.804,-10.496l0,16.826l-0.168,0l0,17.706c0,1.533 -1.244,2.777 -2.777,2.777c-1.533,0 -2.778,-1.244 -2.778,-2.777l0,-17.706l-4.445,0l0,17.706c0,1.533 -1.244,2.777 -2.777,2.777c-1.533,0 -2.778,-1.244 -2.778,-2.777l0,-17.706l-0.129,0l0,-17.485l-5.105,11.155c-0.638,1.394 -2.288,2.007 -3.682,1.37c-1.394,-0.638 -2.007,-2.288 -1.369,-3.682l8.568,-18.72c0.638,-1.393 2.099,-1.94 3.632,-1.94Z" style="fill:rgb(245,128,31);"/>                </g>            </g>            <g transform="matrix(2.72343,0,0,2.72343,-359.337,-68.1805)">                <g transform="matrix(50,0,0,50,195.406,69.311)">                    <path d="M0.172,0c-0.033,0 -0.062,-0.012 -0.086,-0.036c-0.023,-0.023 -0.035,-0.052 -0.035,-0.085l0,-0.338c0,-0.033 0.012,-0.062 0.036,-0.085c0.023,-0.024 0.052,-0.036 0.085,-0.036l0.468,0l0,0.082l-0.468,0c-0.011,0 -0.02,0.004 -0.027,0.012c-0.008,0.007 -0.012,0.016 -0.012,0.027l0,0.338c0,0.011 0.004,0.02 0.012,0.027c0.007,0.008 0.016,0.012 0.027,0.012l0.47,0l0,0.082l-0.47,0Z" style="fill:rgb(14,78,103);fill-rule:nonzero;"/>                </g>                <g transform="matrix(50,0,0,50,230.156,69.311)">                    <path d="M0.052,0l0,-0.459c0,-0.033 0.012,-0.062 0.036,-0.085c0.023,-0.024 0.052,-0.036 0.085,-0.036l0.326,0l0,0.082l-0.326,0c-0.011,0 -0.02,0.004 -0.027,0.012c-0.008,0.007 -0.012,0.016 -0.012,0.027l0,0.459l-0.082,0Z" style="fill:rgb(14,78,103);fill-rule:nonzero;"/>                </g>                <g transform="matrix(50,0,0,50,255.506,69.311)">                    <path d="M0.172,0c-0.033,0 -0.062,-0.012 -0.086,-0.036c-0.023,-0.023 -0.035,-0.052 -0.035,-0.085l0,-0.338c0,-0.033 0.012,-0.062 0.036,-0.085c0.023,-0.024 0.052,-0.036 0.085,-0.036l0.348,0c0.034,0 0.063,0.012 0.087,0.036c0.023,0.023 0.035,0.052 0.035,0.085l0,0.338c0,0.033 -0.012,0.062 -0.035,0.085c-0.024,0.024 -0.053,0.036 -0.087,0.036l-0.348,0Zm0,-0.082l0.348,0c0.011,0 0.02,-0.004 0.027,-0.012c0.008,-0.007 0.012,-0.016 0.012,-0.027l0,-0.338c0,-0.011 -0.004,-0.02 -0.012,-0.027c-0.007,-0.008 -0.016,-0.012 -0.027,-0.012l-0.348,0c-0.011,0 -0.02,0.004 -0.027,0.012c-0.008,0.007 -0.012,0.016 -0.012,0.027l0,0.338c0,0.011 0.004,0.02 0.012,0.027c0.007,0.008 0.016,0.012 0.027,0.012Z" style="fill:rgb(14,78,103);fill-rule:nonzero;"/>                </g>                <g transform="matrix(50,0,0,50,288.356,69.311)">                    <path d="M0.263,0l-0.228,-0.58l0.088,0l0.176,0.432l0.187,-0.432l0.108,0l0.199,0.431l0.164,-0.431l0.089,0l-0.219,0.58l-0.071,0l-0.216,-0.479l-0.205,0.479l-0.072,0Z" style="fill:rgb(14,78,103);fill-rule:nonzero;"/>                </g>                <g transform="matrix(50,0,0,50,341.906,69.311)">                    <path d="M0.145,0c-0.034,0 -0.063,-0.012 -0.086,-0.036c-0.024,-0.023 -0.036,-0.052 -0.036,-0.085l0,-0.338c0,-0.033 0.012,-0.062 0.036,-0.085c0.023,-0.024 0.052,-0.036 0.086,-0.036l0.387,0l0,-0.19l0.082,0l0,0.77l-0.469,0Zm0,-0.082l0.348,0c0.011,0 0.02,-0.004 0.027,-0.011c0.008,-0.008 0.012,-0.017 0.012,-0.028l0,-0.338c0,-0.011 -0.004,-0.02 -0.012,-0.027c-0.007,-0.008 -0.016,-0.012 -0.027,-0.012l-0.348,0c-0.011,0 -0.02,0.004 -0.027,0.012c-0.008,0.007 -0.012,0.016 -0.012,0.027l0,0.338c0,0.011 0.004,0.02 0.012,0.027c0.007,0.008 0.016,0.012 0.027,0.012Z" style="fill:rgb(14,78,103);fill-rule:nonzero;"/>                </g>                <g transform="matrix(50,0,0,50,375.256,69.311)">                    <path d="M0.173,0c-0.033,0 -0.062,-0.012 -0.086,-0.036c-0.023,-0.023 -0.035,-0.052 -0.035,-0.085l0,-0.21l0.508,0l0,-0.128c0,-0.011 -0.004,-0.02 -0.012,-0.027c-0.007,-0.008 -0.016,-0.012 -0.027,-0.012l-0.469,0l0,-0.082l0.469,0c0.034,0 0.063,0.012 0.087,0.036c0.023,0.023 0.035,0.052 0.035,0.085l0,0.459l-0.47,0Zm0,-0.082l0.387,0l0,-0.167l-0.426,0l0,0.128c0,0.011 0.004,0.02 0.011,0.027c0.008,0.008 0.017,0.012 0.028,0.012Z" style="fill:rgb(245,128,31);fill-rule:nonzero;"/>                </g>                <g transform="matrix(50,0,0,50,409.206,69.311)">                    <path d="M0.054,0l0,-0.58l0.47,0c0.033,0 0.062,0.012 0.086,0.035c0.023,0.024 0.035,0.053 0.035,0.086l0,0.459l-0.082,0l0,-0.459c0,-0.011 -0.004,-0.02 -0.012,-0.028c-0.007,-0.007 -0.016,-0.011 -0.027,-0.011l-0.348,0c-0.011,0 -0.02,0.004 -0.028,0.011c-0.008,0.008 -0.012,0.017 -0.012,0.028l0,0.459l-0.082,0Z" style="fill:rgb(245,128,31);fill-rule:nonzero;"/>                </g>                <g transform="matrix(50,0,0,50,444.006,69.311)">                    <path d="M0.148,0.229l0,-0.083l0.362,0c0.011,0 0.02,-0.004 0.027,-0.012c0.008,-0.007 0.012,-0.016 0.012,-0.027l0,-0.107l-0.387,0c-0.033,0 -0.062,-0.012 -0.086,-0.036c-0.023,-0.023 -0.035,-0.052 -0.035,-0.085l0,-0.338c0,-0.033 0.012,-0.062 0.035,-0.085c0.024,-0.024 0.053,-0.036 0.086,-0.036l0.348,0c0.034,0 0.063,0.012 0.086,0.036c0.023,0.023 0.035,0.052 0.035,0.085l0,0.566c0,0.034 -0.012,0.063 -0.035,0.086c-0.023,0.024 -0.052,0.036 -0.086,0.036l-0.362,0Zm0.014,-0.311l0.348,0c0.011,0 0.02,-0.004 0.027,-0.012c0.008,-0.007 0.012,-0.016 0.012,-0.027l0,-0.338c0,-0.011 -0.004,-0.02 -0.012,-0.028c-0.007,-0.007 -0.016,-0.011 -0.027,-0.011l-0.348,0c-0.011,0 -0.02,0.004 -0.027,0.012c-0.008,0.007 -0.012,0.016 -0.012,0.027l0,0.338c0,0.011 0.004,0.02 0.012,0.027c0.007,0.008 0.016,0.012 0.027,0.012Z" style="fill:rgb(245,128,31);fill-rule:nonzero;"/>                </g>                <g transform="matrix(50,0,0,50,477.406,69.311)">                    <path d="M0.172,0c-0.033,0 -0.062,-0.012 -0.086,-0.036c-0.023,-0.023 -0.035,-0.052 -0.035,-0.085l0,-0.338c0,-0.033 0.012,-0.062 0.036,-0.085c0.023,-0.024 0.052,-0.036 0.085,-0.036l0.348,0c0.034,0 0.063,0.012 0.087,0.036c0.023,0.023 0.035,0.052 0.035,0.085l0,0.21l-0.509,0l0,0.128c0,0.011 0.004,0.02 0.011,0.028c0.008,0.007 0.017,0.011 0.028,0.011l0.47,0l0,0.082l-0.47,0Zm-0.039,-0.331l0.426,0l0,-0.128c0,-0.011 -0.004,-0.02 -0.011,-0.027c-0.008,-0.008 -0.017,-0.012 -0.028,-0.012l-0.348,0c-0.011,0 -0.02,0.004 -0.027,0.012c-0.008,0.007 -0.012,0.016 -0.012,0.027l0,0.128Z" style="fill:rgb(245,128,31);fill-rule:nonzero;"/>                </g>                <g transform="matrix(50,0,0,50,511.006,69.311)">                    <path d="M0.173,0c-0.033,0 -0.062,-0.012 -0.086,-0.036c-0.023,-0.023 -0.035,-0.052 -0.035,-0.085l0,-0.649l0.082,0l0,0.649c0,0.011 0.004,0.02 0.011,0.027c0.008,0.008 0.017,0.012 0.028,0.012l0.098,0l0,0.082l-0.098,0Z" style="fill:rgb(245,128,31);fill-rule:nonzero;"/>                </g>                <g transform="matrix(50,0,0,50,526.106,69.311)">                    <path d="M0.169,0c-0.033,0 -0.062,-0.012 -0.086,-0.036c-0.023,-0.023 -0.035,-0.052 -0.035,-0.085l0,-0.008l0.082,0l0,0.008c0,0.011 0.004,0.02 0.012,0.027c0.007,0.008 0.016,0.012 0.027,0.012l0.348,0c0.011,0 0.02,-0.004 0.027,-0.011c0.008,-0.008 0.012,-0.017 0.012,-0.028l0,-0.089c0,-0.011 -0.004,-0.02 -0.012,-0.028c-0.007,-0.007 -0.016,-0.011 -0.027,-0.011l-0.348,0c-0.033,0 -0.062,-0.012 -0.085,-0.036c-0.024,-0.023 -0.036,-0.052 -0.036,-0.085l0,-0.089c0,-0.033 0.012,-0.062 0.036,-0.085c0.023,-0.024 0.052,-0.036 0.085,-0.036l0.348,0c0.034,0 0.063,0.012 0.087,0.036c0.023,0.023 0.035,0.052 0.035,0.085l0,0.008l-0.083,0l0,-0.008c0,-0.011 -0.004,-0.02 -0.012,-0.027c-0.007,-0.008 -0.016,-0.012 -0.027,-0.012l-0.348,0c-0.011,0 -0.02,0.004 -0.027,0.012c-0.008,0.007 -0.012,0.016 -0.012,0.027l0,0.089c0,0.011 0.004,0.02 0.012,0.027c0.007,0.008 0.016,0.012 0.027,0.012l0.348,0c0.034,0 0.063,0.012 0.087,0.035c0.023,0.024 0.035,0.053 0.035,0.086l0,0.089c0,0.033 -0.012,0.062 -0.035,0.085c-0.024,0.024 -0.053,0.036 -0.087,0.036l-0.348,0Z" style="fill:rgb(245,128,31);fill-rule:nonzero;"/>                </g>            </g>        </g>    </g></svg>