<?xml version="1.0" encoding="UTF-8" standalone="no"?><!DOCTYPE svg PUBLIC "-//W3C//DTD SVG 1.1//EN" "http://www.w3.org/Graphics/SVG/1.1/DTD/svg11.dtd"><svg width="100%" height="100%" viewBox="0 0 1024 512" version="1.1" xmlns="http://www.w3.org/2000/svg" xmlns:xlink="http://www.w3.org/1999/xlink" xml:space="preserve" style="fill-rule:evenodd;clip-rule:evenodd;stroke-linejoin:round;stroke-miterlimit:2;"><title>LB</title><desc></desc>    <g transform="matrix(2.21758,0,0,2.21758,-55.6572,-27.8259)">        <path d="M287.29,99.68c12.16,1.19 20.17,13.94 20.17,25.51c-0.89,17.79 -15.42,31.73 -36.78,31.44c-11.257,-0.756 -22.553,-0.756 -33.81,0c0.89,-8.9 1.48,-16.91 1.78,-25.51c-9.19,0 -19.87,1.19 -29.66,2.37c1.829,-25.281 1.728,-50.664 -0.3,-75.93c9.79,-1.48 19.87,-3 30,-3.56c0,-3.86 -0.59,-8.6 -0.89,-12.46c5.818,-0.514 11.66,-0.711 17.5,-0.59l0,12.76c5.346,0.001 10.687,0.298 16,0.89c6.82,0.59 14.83,1.78 20.46,6.23c5.78,4.206 9.201,10.942 9.19,18.09c-0.108,7.58 -3.864,14.661 -10.08,19c-0.716,0.242 -1.411,0.539 -2.08,0.89c-0.531,0.229 -1.029,0.529 -1.48,0.89m-22.56,-31.46c-3.26,-0.3 -6.23,-0.3 -9.49,-0.3l0,48.64c5.34,0 11.27,0.3 16,0.59l0,15.13c-5.282,-0.946 -10.634,-1.441 -16,-1.48l0,11.86c5.438,-0.205 10.883,-0.105 16.31,0.3c1.78,-0.293 3.263,-0.59 4.45,-0.89c8.342,-1.441 14.504,-8.735 14.53,-17.2c0.105,-8.411 -5.957,-15.733 -14.24,-17.2c-3.408,-0.737 -6.896,-1.036 -10.38,-0.89l0,-12.46l1.48,0c5.93,0 11.86,-1.19 15.13,-5.34c1.832,-2.02 2.792,-4.686 2.67,-7.41c-0.051,-1.4 -0.249,-2.791 -0.59,-4.15c-0.441,-1.616 -1.353,-3.064 -2.62,-4.16c-3.9,-3.86 -11.91,-4.74 -17.25,-5.04Zm-25.51,0c-4.75,0.3 -9.49,0.89 -13.64,1.19l0,49.23c3.56,-0.59 9.19,-1.19 13.64,-1.48c0.6,-17.18 0.3,-31.74 0,-48.94Z" style="fill:rgb(25,61,41);fill-rule:nonzero;"/>        <path d="M462.87,213.56l0.59,-6.23c2.762,1.382 5.811,2.094 8.9,2.08c3.26,0 5,-1.19 5,-3c0,-1.48 -1.19,-2.67 -3.86,-3.26c-4.15,-1.19 -6.52,-2.08 -7.41,-2.37c-2.409,-1.419 -3.883,-4.024 -3.86,-6.82c0,-3 1.78,-5.34 4.75,-7.12c2.949,-1.045 6.062,-1.547 9.19,-1.48c2.792,-0.029 5.578,0.269 8.3,0.89l-0.59,6.23c-2.221,-1.055 -4.663,-1.563 -7.12,-1.48c-3.86,0 -5.93,0.89 -5.93,2.67c0,1.19 1.48,2.08 4.15,3c3.86,0.89 6.23,1.48 7.12,2.08c2.67,1.48 3.86,3.56 3.86,6.82c0,6.23 -4.45,9.49 -13.64,9.49c-3.224,0.038 -6.431,-0.463 -9.49,-1.48m-18.09,-10.68l-3.56,-11.27l-0.3,0l-4.15,11.27l8.01,0Zm-20.74,11.55l11.86,-28.77l10.38,0l12.16,28.77l-9.19,0l-2.37,-6.23l-12.15,0l-2.37,6.23l-8.32,0Zm-31.14,0l0,-28.76l8.3,0l0,11.86l9.49,-11.86l10.08,0l-11.27,13.64l12.16,15.13l-10.62,0l-9.79,-13l0,13l-8.35,-0.01Zm-38.56,0l0,-28.76l10.4,0l11.3,19.31c0.023,0.227 0.13,0.437 0.3,0.59c-0.228,-0.768 -0.33,-1.569 -0.3,-2.37l0,-17.5l8,0l0,28.77l-10.11,0l-11.89,-19.61c0.039,-0.327 -0.071,-0.654 -0.3,-0.89c0,0.59 0.3,0.89 0.3,1.19l0.3,19.28l-8,-0.01Zm-19.3,-11.56l-3.86,-11.27l-4.14,11.27l8,0Zm-21,11.56l12.16,-28.77l10.38,0l11.86,28.77l-8.9,0l-2.37,-6.23l-12.13,0l-2.37,6.23l-8.63,0Zm-21.37,-23.45l0,6l2.08,0c3.86,0 5.93,-0.89 5.93,-3c0,-1.19 -0.89,-1.78 -2.08,-2.37c-1.128,-0.462 -2.342,-0.677 -3.56,-0.63l-2.37,0Zm0,11.27l0,6.82l2.37,0c4.153,0 6.23,-1.187 6.23,-3.56c0,-1.19 -0.59,-2.08 -2.08,-3c-1.364,-0.283 -2.759,-0.384 -4.15,-0.3l-2.37,0.04Zm-8.63,12.18l0,-28.76l14.53,0c2.497,-0.123 4.975,0.496 7.12,1.78c2.098,1.073 3.377,3.287 3.26,5.64c0,3.26 -1.78,5.64 -5.64,6.52c4.15,1.19 6.52,3 6.52,6.52c0,5.64 -4.15,8.3 -12.46,8.3l-13.33,0Zm-48.94,-0.89l0.59,-6.23c2.786,1.314 5.82,2.023 8.9,2.08c3.56,0 5.34,-1.19 5.34,-3c0,-1.48 -1.48,-2.67 -4.15,-3.26c-3.86,-1.19 -6.52,-2.08 -7.12,-2.37c-2.5,-1.326 -4.011,-3.994 -3.86,-6.82c0,-2.967 1.483,-5.34 4.45,-7.12c2.949,-1.045 6.062,-1.547 9.19,-1.48c2.793,-0.046 5.581,0.253 8.3,0.89l-0.59,6.23c-2.198,-1.11 -4.651,-1.621 -7.11,-1.48c-3.56,0 -5.64,0.89 -5.64,2.67c0,1.19 1.19,2.08 3.86,3c3.86,0.89 6.52,1.48 7.41,2.08c2.463,1.365 3.958,4.006 3.86,6.82c0,6.23 -4.75,9.49 -13.94,9.49c-3.213,0.004 -6.406,-0.502 -9.46,-1.5l-0.03,0Zm-29.36,-13.35c-0.002,2.164 0.505,4.298 1.48,6.23c1.257,1.881 3.378,3.009 5.64,3c2.342,0.01 4.551,-1.108 5.93,-3c0.975,-1.932 1.482,-4.066 1.48,-6.23c0.078,-2.172 -0.434,-4.325 -1.48,-6.23c-1.289,-1.994 -3.56,-3.143 -5.93,-3c-2.292,-0.143 -4.478,1.02 -5.64,3c-1.037,1.911 -1.539,4.067 -1.45,6.24l-0.03,-0.01Zm-8.6,0c0,-5 1.19,-8.3 3.86,-11c3,-2.67 6.82,-3.86 11.86,-3.86c5.04,0 9.19,1.19 11.86,3.86c2.67,2.67 4.15,5.93 4.15,11c0,4.75 -1.48,8 -4.15,10.68c-2.67,2.68 -6.79,4.11 -11.83,4.11c-5.04,0 -8.9,-1.48 -11.86,-4.15c-2.68,-2.62 -3.86,-5.85 -3.86,-10.63l-0.03,-0.01Zm-24.91,14.24l-10.68,-28.77l9.19,0l6.82,22.54l0.3,0l7.18,-22.53l8.6,0l-10.68,28.77l-10.73,-0.01Zm-16,-28.77l0,18.09c0.131,3.292 -1.438,6.429 -4.15,8.3c-2.934,2.051 -6.463,3.081 -10.04,2.93c-3.586,0.048 -7.103,-0.999 -10.08,-3c-2.67,-1.78 -3.86,-4.75 -3.86,-8.3l0,-18.01l8.6,0l0,16.61c0,4.45 1.78,7.12 5.34,7.12c3.56,0 5.64,-2.67 5.64,-7.12l0,-16.61l8.55,-0.01Zm-49.83,28.77l0,-23.13l-8,0l0,-5.64l24.32,0l0,5.64l-8,0l0,23.13l-8.32,0Zm-36.18,0l0,-28.76l22.55,0l0,5.64l-14.23,0l0,5.67l13.34,0l0,5.34l-13.34,0l0,6.52l14.5,0l0,5.64l-22.82,-0.05Zm-16.89,-28.76l8.3,0l0,28.77l-8.3,0l0,-28.77Zm-27.29,28.76l0,-28.76l8.3,0l0,22.84l13.35,0l0,5.93l-21.65,-0.01Z" style="fill:rgb(25,61,41);fill-rule:nonzero;"/>    </g></svg>