<?xml version="1.0" encoding="UTF-8" standalone="no"?><!DOCTYPE svg PUBLIC "-//W3C//DTD SVG 1.1//EN" "http://www.w3.org/Graphics/SVG/1.1/DTD/svg11.dtd"><svg width="100%" height="100%" viewBox="0 0 1024 512" version="1.1" xmlns="http://www.w3.org/2000/svg" xmlns:xlink="http://www.w3.org/1999/xlink" xml:space="preserve" style="fill-rule:evenodd;clip-rule:evenodd;stroke-linejoin:round;stroke-miterlimit:2;"><title>Alfabricks</title><desc>ALFABRICKS is a community that allows you to make investments in real estate without the need to invest large sums and with very high returns. Thanks to the deep knowledge of the sector as well as an efficient management of the processes we are able to offer investment opportunities without wasting time.</desc>    <g id="layer102" transform="matrix(0.919299,0,0,0.919051,81.9265,1)">        <path d="M583,553.5c-6.3,-2 -11.4,-6.6 -14.7,-13.3c-2.5,-5 -2.8,-6.8 -2.8,-15.2c0,-8.7 0.3,-10.1 3.3,-16.2c3.7,-7.6 8.6,-12 15.8,-14.5c8.7,-3 24.2,0.4 27.9,6.1c0.7,1.1 1.7,4.9 2.1,8.4c0.6,5.7 0.5,6.2 -1.3,6.2c-1.4,0 -2.2,-1.1 -3.1,-4.4c-2.3,-8.7 -9,-13.3 -17.7,-12.3c-6.6,0.7 -11,3.9 -14.2,10.5c-2.4,5 -2.8,6.9 -2.8,14.7c0,10.3 1.4,15.2 5.8,20.2c7.9,9 20.3,8.3 28.7,-1.6c3.1,-3.6 4.2,-4.3 5.2,-3.3c1,1 0.8,2 -0.7,4.8c-5.1,9.4 -19,13.8 -31.5,9.9Z" style="fill:rgb(122,121,121);fill-rule:nonzero;"/>        <path d="M528.2,552.3c-3.9,-1.9 -6.2,-4.8 -13.1,-16.5c-3.7,-6.3 -5.7,-8.8 -7.1,-8.8c-1.9,0 -2,0.8 -2,13l0,13l-5,0l-5,0l0,-25.1c0,-15.3 -0.4,-25.8 -1,-27c-0.7,-1.2 -2.1,-1.9 -4,-1.9c-2.3,0 -3,-0.4 -3,-2c0,-1.9 0.7,-2 14.3,-2c16.4,0 22.8,1.4 27,5.8c7.2,7.5 5.1,19.4 -4,23.7c-2.1,1 -3.9,1.9 -4.1,2c-0.1,0.1 2.3,4.3 5.4,9.4c5.2,8.4 9.6,13.1 12.3,13.1c1.7,0 1.3,3.7 -0.5,4.4c-2.7,1 -6.8,0.6 -10.2,-1.1Zm-11.8,-31.7c4.2,-1.8 6.6,-5.1 6.6,-9.4c0,-6.5 -5.7,-11.2 -13.5,-11.2l-3.5,0l0,22l3.5,0c2,0 5.1,-0.6 6.9,-1.4Z" style="fill:rgb(122,121,121);fill-rule:nonzero;"/>        <path d="M665.9,553.1c-5,-1.6 -7.6,-3.5 -18.6,-14.4l-11.3,-11.1l0,25.4l-5,0l-5,0l0,-25.1c0,-15.3 -0.4,-25.8 -1,-27c-0.7,-1.2 -2.1,-1.9 -4,-1.9c-2.3,0 -3,-0.4 -3,-2c0,-1.8 0.7,-2 6.4,-2c9.6,0 10.5,1.1 11.3,13.8l0.6,10.4l10.6,-10.5c11.6,-11.5 15,-13.7 21.1,-13.7c3.3,0 4,0.3 4,2c0,1.3 -0.7,2 -2,2c-3.7,0 -7.3,2.7 -16.8,12.3l-9.4,9.4l12.9,13c8.8,9 14,13.5 16.6,14.4c8.4,2.9 1.5,7.6 -7.4,5Z" style="fill:rgb(122,121,121);fill-rule:nonzero;"/>        <path d="M689,552.1c-7.5,-2.7 -9,-4.8 -9,-12.7c0,-4.9 0.3,-6.4 1.4,-6.4c0.8,0 1.7,1.3 2.1,2.8c2.2,10.3 12.9,16.1 21.4,11.7c3.2,-1.6 4.1,-3.3 4.1,-7.4c0,-3.6 -3.5,-6.9 -15.1,-13.9c-11.2,-6.8 -13.9,-10.3 -13.9,-17.6c0,-6.9 2.7,-11.1 8.7,-13.8c7.5,-3.3 19.4,-1.4 25.6,4c1.3,1.2 1.7,3.1 1.7,8.4c0,8 -1.9,9.3 -3.9,2.6c-1.8,-5.8 -3.7,-8.4 -7.6,-10.2c-5.3,-2.6 -10.2,-2.1 -13.6,1.3c-5.7,5.7 -3.4,9.2 12.7,19.1c12.8,8 14.8,10.5 14.6,18.3c-0.1,5.7 -2.7,10.4 -7.3,13.1c-4.8,2.8 -15,3.1 -21.9,0.7Z" style="fill:rgb(122,121,121);fill-rule:nonzero;"/>        <path d="M244,552.2c0,-0.4 4.1,-11.8 9,-25.1c5,-13.4 9,-25.2 9,-26.3c0,-1.3 -0.9,-2 -3,-2.4c-2.1,-0.5 -3,-1.2 -3,-2.5c0,-1.7 0.9,-1.9 8.8,-1.9l8.7,0l8.4,23.3c4.6,12.7 9.5,26 10.8,29.5l2.3,6.3l-5.7,-0.3l-5.7,-0.3l-3,-9.2l-3,-9.3l-10.2,0l-10.2,0l-3.2,9.5l-3.2,9.5l-3.4,0c-1.9,0 -3.4,-0.4 -3.4,-0.8Zm30.5,-25.1c-0.3,-1 -2.1,-5.6 -3.9,-10.2c-2.7,-6.7 -3.6,-8 -4.2,-6.4c-0.4,1.1 -2,5.4 -3.6,9.5c-1.5,4.1 -2.8,7.8 -2.8,8.2c0,0.5 3.4,0.8 7.6,0.8c6.9,0 7.5,-0.2 6.9,-1.9Z" style="fill:rgb(122,121,121);fill-rule:nonzero;"/>        <path d="M302,527.9c0,-15.3 -0.4,-25.8 -1,-27c-0.7,-1.2 -2.1,-1.9 -4,-1.9c-2.3,0 -3,-0.4 -3,-2c0,-1.8 0.7,-2 6.4,-2c4.8,0 7,0.5 8.7,1.9c2.4,1.9 2.4,2.1 2.8,26.5l0.3,24.6l29.8,0l0,5l-20,0l-20,0l0,-25.1Z" style="fill:rgb(122,121,121);fill-rule:nonzero;"/>        <path d="M348,527.9c0,-15.3 -0.4,-25.8 -1,-27c-0.7,-1.2 -2.1,-1.9 -4,-1.9c-2.3,0 -3,-0.4 -3,-2c0,-1.9 0.7,-2 19.5,-2c18.2,0 19.6,0.1 21.5,2c2.6,2.6 3,13 0.5,13c-0.8,0 -1.5,-0.7 -1.5,-1.5c0,-2.7 -2.2,-6.3 -4.7,-7.4c-1.3,-0.6 -5.7,-1.1 -9.8,-1.1l-7.5,0l0,21l9.5,0c9.5,0 9.5,0 9.5,2.5c0,2.5 0,2.5 -9.5,2.5l-9.5,0l0,27l-5,0l-5,0l0,-25.1Z" style="fill:rgb(122,121,121);fill-rule:nonzero;"/>        <path d="M385,552.2c0,-0.4 4.1,-11.8 9,-25.1c5,-13.4 9,-25.2 9,-26.3c0,-1.3 -0.9,-2 -3,-2.4c-2.1,-0.5 -3,-1.2 -3,-2.5c0,-1.7 0.9,-1.9 8.8,-1.9l8.7,0l8.4,23.3c4.6,12.7 9.5,26 10.8,29.5l2.3,6.3l-5.7,-0.3l-5.7,-0.3l-3,-9.2l-3,-9.3l-10.2,0l-10.2,0l-3.2,9.5l-3.2,9.5l-3.4,0c-1.9,0 -3.4,-0.4 -3.4,-0.8Zm30.5,-25.1c-0.3,-1 -2.1,-5.6 -3.9,-10.2c-2.7,-6.7 -3.6,-8 -4.2,-6.4c-0.4,1.1 -2,5.4 -3.6,9.5c-1.5,4.1 -2.8,7.8 -2.8,8.2c0,0.5 3.4,0.8 7.6,0.8c6.9,0 7.5,-0.2 6.9,-1.9Z" style="fill:rgb(122,121,121);fill-rule:nonzero;"/>        <path d="M443,528c0,-15.4 -0.4,-25.9 -1,-27.1c-0.7,-1.2 -2.1,-1.9 -4,-1.9c-2.3,0 -3,-0.4 -3,-2c0,-1.9 0.7,-2 14.5,-2c18.5,0 23.8,1.1 28.8,6c3.2,3.3 3.7,4.4 3.7,8.4c0,5.5 -1.2,8.2 -4.7,11.3l-2.6,2.1l3.1,1.6c5,2.6 7.2,6.2 7.2,12c0,6.9 -2.7,11.1 -8.8,13.9c-3.9,1.7 -7.1,2.2 -18.9,2.5l-14.3,0.4l0,-25.2Zm25,18.4c6.4,-2.6 8.6,-8.4 5.4,-14.5c-2,-4 -6.8,-5.9 -14.9,-5.9l-6.5,0l0,10.4c0,7.4 0.4,10.6 1.3,10.9c2.7,1.1 10.9,0.6 14.7,-0.9Zm-2.2,-26.8c4.1,-2.1 6.3,-5.1 6.4,-8.4c0.2,-6.8 -6.4,-11.6 -15,-11l-4.7,0.3l-0.3,10.3l-0.3,10.2l5.6,0c3.1,0 6.8,-0.6 8.3,-1.4Z" style="fill:rgb(122,121,121);fill-rule:nonzero;"/>        <path d="M547,551c-1.9,-1.9 -2,-3.3 -2,-29l0,-27l8.9,0l0.3,26c0.3,28 0.3,27.9 5.6,28c1.5,0 2.2,0.6 2.2,2c0,1.8 -0.7,2 -6.5,2c-5.2,0 -6.9,-0.4 -8.5,-2Z" style="fill:rgb(122,121,121);fill-rule:nonzero;"/>        <path d="M199.8,450.5c-44.6,-6.1 -97.5,-33.2 -133.2,-68.3c-37.2,-36.5 -58.2,-78.5 -65.2,-130.2c-1.6,-12.4 -1.8,-42 -0.3,-54c7.8,-63 45.9,-122.5 101.9,-159.2c15.2,-10 39.9,-21.9 57.5,-27.7c24.8,-8.2 42.4,-11.1 68.2,-11.1c33.8,0 61,6.6 93.2,22.6c38.5,19 60.1,38 107.1,93.9c20.9,24.8 128,149.5 140.9,164c47.1,52.8 87.3,80.3 129.6,88.6c10.4,2.1 35.9,1.8 46.5,-0.5c52.3,-11.2 93.9,-48.1 109.9,-97.2c6.9,-21.5 8.5,-47.6 4.2,-68.4c-12.9,-61.4 -57.7,-107.2 -118.1,-120.5c-11.5,-2.5 -38.2,-3.1 -50,-1.1c-45,7.9 -88.3,41.2 -109,83.9c-4,8.3 -12,29 -12,31.1c0,0.6 -1,1.7 -2.2,2.5c-1.9,1.2 -2.4,1.1 -3.7,-0.6c-0.9,-1 -41.2,-45.5 -89.6,-98.7c-48.4,-53.3 -88.1,-97.2 -88.3,-97.7c-0.2,-0.5 24.3,-0.9 57.2,-0.9l57.5,0l31.3,38.2c30.9,37.8 31.2,38.1 32.7,35.7c5,-7.5 21,-24.6 31.1,-32.9c58.8,-48.6 144.7,-55.6 220.3,-17.9c20.4,10.2 36.4,21.6 52.2,37.4c34.7,34.6 56.4,79.2 64.2,132c2.5,16.9 2.5,55.5 0,71.5c-6.3,40.9 -20.5,75.7 -42.8,105.2c-8.2,10.9 -26.3,28.8 -36.9,36.7c-30.2,22.3 -73.2,38.7 -113.2,43c-12.2,1.4 -35.5,1.4 -47.3,0.1c-42.7,-4.8 -85.1,-22 -116.5,-47.3c-23.6,-19 -33.2,-29.5 -164.5,-179.2c-15.9,-18.1 -32.6,-37 -37,-42c-4.5,-4.9 -16.3,-18.4 -26.2,-30c-27.5,-32 -41,-44.1 -60.9,-54.2c-19.5,-10 -39.3,-14.5 -63.4,-14.4c-65.1,0.2 -122.4,40.1 -141.5,98.7c-15.8,47.9 -1.2,100.6 38.1,138.4c23.6,22.7 49.3,36.4 80.8,43.2c14.6,3.1 40.7,3.1 55.6,-0.1c20.1,-4.3 36.2,-10.8 51.4,-20.8c9.7,-6.4 26.9,-23.9 33.7,-34.3c10.7,-16.2 19,-35.9 22.1,-52.2c0.7,-3.8 1.5,-6.8 1.8,-6.8c0.6,0 179.4,199.9 179.8,201.1c0.2,0.5 -22.4,0.9 -51.5,0.9l-51.9,0l-28.4,-39c-15.7,-21.4 -28.7,-38.9 -29,-38.9c-0.3,0 -1.8,1.8 -3.5,4.2c-27.1,38.3 -81.1,67.5 -136,73.7c-12.1,1.3 -34.8,1.1 -46.7,-0.5Z" style="fill:rgb(22,37,91);fill-rule:nonzero;"/>    </g></svg>