<?xml version="1.0" encoding="UTF-8" standalone="no"?><!DOCTYPE svg PUBLIC "-//W3C//DTD SVG 1.1//EN" "http://www.w3.org/Graphics/SVG/1.1/DTD/svg11.dtd"><svg width="100%" height="100%" viewBox="0 0 1024 512" version="1.1" xmlns="http://www.w3.org/2000/svg" xmlns:xlink="http://www.w3.org/1999/xlink" xml:space="preserve" style="fill-rule:evenodd;clip-rule:evenodd;stroke-linejoin:round;stroke-miterlimit:2;"><title>Monethera</title><desc>Monethera was funded in 2017 as a private investment fund in Estonia, in 2019 Monethera expanded their business to include retail investors around the globe providing an online Crowdlending Platform for invest in High Yielding Business Loans.</desc>    <g id="logo" transform="matrix(2.68617,0,0,2.70023,0.976022,229.725)">        <g transform="matrix(1.9,0,0,1.9,-0.00803394,-20.7)">            <path d="M37.51,19.015c0,0 0,-0.001 0,-0.001c0,-2.185 -1.798,-3.983 -3.983,-3.983l-0.003,0c-2.185,0 -3.983,1.798 -3.983,3.983l0,0.003c0,2.185 1.798,3.983 3.983,3.983c0,0 0.001,0 0.001,0c2.186,-0.001 3.984,-1.799 3.985,-3.985Zm-1.18,-11.944l-14.749,14.75c-0.754,0.753 -1.777,1.177 -2.843,1.177c-2.206,0 -4.021,-1.816 -4.021,-4.022c0,-1.067 0.424,-2.091 1.179,-2.845l14.749,-14.747c1.559,-1.559 4.126,-1.559 5.685,0c0.755,0.754 1.179,1.777 1.179,2.844c0,1.067 -0.424,2.09 -1.179,2.844l0,-0.001Z" style="fill:rgb(78,216,0);fill-rule:nonzero;"/>        </g>        <g transform="matrix(1.9,0,0,1.9,-0.00803394,-20.7)">            <path d="M8.543,14.428l7.392,7.392c0.754,0.753 1.777,1.177 2.842,1.177c2.206,0 4.021,-1.815 4.021,-4.021c0,-1.066 -0.424,-2.09 -1.178,-2.844l-7.392,-7.393c-0.754,-0.753 -1.777,-1.177 -2.843,-1.177c-2.206,0 -4.021,1.815 -4.021,4.022c0,1.066 0.425,2.09 1.179,2.844Z" style="fill:rgb(0,185,196);fill-rule:nonzero;"/>        </g>        <g transform="matrix(1.9,0,0,1.9,-0.00803394,-20.7)">            <path d="M14.254,8.74c0.755,0.753 1.179,1.778 1.177,2.844c0,1.065 -0.424,2.087 -1.177,2.84l-7.392,7.393c-0.753,0.755 -1.777,1.18 -2.843,1.18c-1.066,0 -2.09,-0.425 -2.843,-1.18c-1.556,-1.561 -1.556,-4.124 0,-5.685l7.394,-7.393c1.559,-1.559 4.126,-1.559 5.685,0l-0.001,0.001Z" style="fill:rgb(0,232,209);fill-rule:nonzero;"/>        </g>        <g transform="matrix(1.9,0,0,1.9,-0.00803394,-20.7)">            <path d="M73.48,13.52l0,7.425c0,1.19 -0.862,2.052 -1.99,2.052c-1.16,0 -2.021,-0.892 -2.021,-2.052l0,-6.861c0,-1.753 -1.01,-2.851 -2.615,-2.851c-1.606,0 -2.704,1.127 -2.704,2.762l0,6.95c0,1.19 -0.862,2.052 -1.989,2.052c-1.16,0 -2.022,-0.892 -2.022,-2.052l0,-6.861c0,-1.753 -1.038,-2.851 -2.614,-2.851c-1.636,0 -2.704,1.127 -2.704,2.85l0,6.862c0,1.19 -0.862,2.052 -1.989,2.052c-1.16,0 -2.022,-0.892 -2.022,-2.052l0,-11.318c0,-1.16 0.862,-2.021 1.993,-2.021c0.92,0 1.635,0.593 1.87,1.484c1.01,-0.95 2.376,-1.484 3.982,-1.484c1.9,0 3.414,0.743 4.368,2.11c1.16,-1.308 2.943,-2.11 4.902,-2.11c3.415,0.003 5.554,2.293 5.554,5.914l0.001,0Zm18.776,1.757c0,4.276 -3.507,7.694 -7.934,7.694c-4.397,0 -7.844,-3.389 -7.844,-7.694c0,-4.31 3.447,-7.665 7.87,-7.665c4.401,-0.003 7.908,3.385 7.908,7.665Zm-11.705,0.029c0,2.317 1.605,3.981 3.8,3.981c2.17,0 3.805,-1.694 3.805,-3.981c0,-2.317 -1.635,-4.04 -3.804,-4.04c-2.196,0 -3.801,1.69 -3.801,4.04Zm28.341,-1.786l0,7.425c0,1.19 -0.832,2.052 -1.989,2.052c-1.131,0 -1.989,-0.892 -1.989,-2.052l0,-6.887c0,-1.695 -1.101,-2.851 -2.733,-2.851c-1.635,0 -2.792,1.186 -2.792,2.85l0,6.892c0,1.19 -0.862,2.051 -1.992,2.051c-1.157,0 -2.019,-0.891 -2.019,-2.051l0,-11.319c0,-1.16 0.862,-2.022 1.99,-2.022c0.92,0 1.664,0.622 1.87,1.514c1.039,-0.95 2.494,-1.514 4.129,-1.514c3.356,0 5.525,2.32 5.525,5.911l0,0.001Zm17.649,0.983l0,0.089c0,1.248 -0.891,2.051 -2.199,2.051l-8.379,0c0.475,1.842 1.96,2.91 4.129,2.91c1.068,0 2.169,-0.298 3.061,-0.862c0.298,-0.177 0.563,-0.269 0.861,-0.269c0.921,0 1.636,0.685 1.636,1.606c0,0.652 -0.299,1.127 -1.01,1.606c-1.337,0.89 -2.939,1.366 -4.663,1.366c-4.633,0 -8.051,-3.3 -8.051,-7.694c0,-4.368 3.297,-7.694 7.635,-7.694c4.008,-0.003 6.98,2.91 6.98,6.891Zm-10.578,-0.685l6.685,0c-0.059,-1.753 -1.307,-2.972 -3.178,-2.972c-1.754,0.004 -3.061,1.16 -3.507,2.972Zm23.472,7.19c0,0.744 -0.386,1.307 -1.009,1.605c-0.564,0.236 -1.219,0.387 -2.081,0.387c-3.834,0 -5.882,-1.93 -5.882,-5.525l0,-6.15l-0.832,0c-0.98,0 -1.724,-0.711 -1.724,-1.694c0,-0.98 0.744,-1.695 1.724,-1.695l0.832,0l0,-2.018c0,-1.16 0.833,-2.019 2.022,-2.019c1.127,0 1.989,0.862 1.989,2.019l0,2.018l2.703,0c0.98,0 1.695,0.715 1.695,1.695c0,0.98 -0.711,1.694 -1.695,1.694l-2.703,0l0,5.793c0,1.632 0.773,2.287 2.644,2.287c0.24,0 0.417,-0.03 0.564,-0.03c1.068,-0.002 1.753,0.653 1.753,1.633Zm16.102,-7.488l0,7.425c0,1.19 -0.832,2.052 -1.992,2.052c-1.13,0 -1.989,-0.892 -1.989,-2.052l0,-6.861c0,-1.724 -1.098,-2.851 -2.733,-2.851c-1.635,0 -2.792,1.157 -2.792,2.85l0,6.862c0,1.19 -0.861,2.052 -1.992,2.052c-1.16,0 -2.022,-0.892 -2.022,-2.052l0,-18.894c0,-1.16 0.862,-2.051 2.022,-2.051c1.131,0 1.992,0.862 1.992,2.051l0,7.16c1.01,-1.01 2.406,-1.605 4.041,-1.605c3.296,0.003 5.465,2.352 5.465,5.914Zm17.646,0.983l0,0.089c0,1.248 -0.891,2.051 -2.199,2.051l-8.378,0c0.475,1.842 1.959,2.91 4.128,2.91c1.069,0 2.17,-0.298 3.061,-0.862c0.298,-0.177 0.563,-0.269 0.862,-0.269c0.92,0 1.635,0.685 1.635,1.606c0,0.652 -0.298,1.127 -1.009,1.606c-1.337,0.89 -2.94,1.366 -4.663,1.366c-4.634,0 -8.051,-3.3 -8.051,-7.694c0,-4.368 3.296,-7.694 7.635,-7.694c4.01,-0.003 6.979,2.91 6.979,6.891Zm-10.574,-0.685l6.685,0c-0.059,-1.753 -1.308,-2.972 -3.179,-2.972c-1.753,0.004 -3.061,1.16 -3.506,2.972Zm23.023,-4.246c0,1.068 -0.744,1.812 -1.871,1.93c-2.14,0.147 -3.447,1.543 -3.447,3.8l0,5.643c0,1.19 -0.862,2.052 -1.99,2.052c-1.16,0 -2.021,-0.892 -2.021,-2.052l0,-11.318c0,-1.16 0.861,-2.021 1.989,-2.021c1.038,0 1.841,0.773 1.93,1.812c0.921,-1.04 2.198,-1.665 3.594,-1.665c1.075,0.007 1.816,0.718 1.816,1.819Zm14.231,4.335l0,7.071c0,1.157 -0.832,1.99 -1.93,1.99c-0.98,0 -1.753,-0.653 -1.93,-1.544c-1.068,1.01 -2.556,1.573 -4.309,1.573c-3.031,0 -5.079,-1.783 -5.079,-4.398c0,-2.644 2.11,-4.276 5.554,-4.276l3.683,0l0,-0.655c0,-1.635 -0.98,-2.586 -2.762,-2.586c-1.039,0 -1.96,0.357 -2.822,1.098c-0.475,0.357 -0.802,0.475 -1.189,0.475c-0.98,0 -1.724,-0.744 -1.724,-1.635c0,-0.564 0.299,-1.098 0.833,-1.606c1.248,-1.16 3.178,-1.812 5.318,-1.812c4.04,0.007 6.357,2.297 6.357,6.305Zm-4.011,3.237l0,-0.177l-3.149,0c-1.337,0 -2.051,0.505 -2.051,1.485c0,0.98 0.803,1.605 2.11,1.605c1.753,0 3.09,-1.248 3.09,-2.913Z" style="fill:rgb(0,232,209);fill-rule:nonzero;"/>        </g>    </g></svg>