<?xml version="1.0" encoding="UTF-8" standalone="no"?><!DOCTYPE svg PUBLIC "-//W3C//DTD SVG 1.1//EN" "http://www.w3.org/Graphics/SVG/1.1/DTD/svg11.dtd"><svg width="100%" height="100%" viewBox="0 0 1024 512" version="1.1" xmlns="http://www.w3.org/2000/svg" xmlns:xlink="http://www.w3.org/1999/xlink" xml:space="preserve" style="fill-rule:evenodd;clip-rule:evenodd;stroke-linejoin:round;stroke-miterlimit:2;"><title>Bestaker</title><desc>Bestaker.com is a showcase for projects of great value creation and high profitability potential in which large and small investors can invest.Bestaker.com will allow you to support entrepreneurs to develop their projects and in return you can get dividends when your company makes a profit.</desc>    <g transform="matrix(21.7503,0,0,21.7503,-273.66,-824.611)">        <g transform="matrix(12,0,0,12,11.8579,54.0327)">            <path d="M0.068,-0.731c0.024,-0.004 0.047,-0.006 0.07,-0.006c0.023,0 0.047,0.002 0.071,0.006l0,0.264c0.01,-0.018 0.027,-0.033 0.05,-0.045c0.023,-0.011 0.05,-0.017 0.08,-0.017c0.03,0 0.058,0.005 0.083,0.016c0.026,0.011 0.048,0.027 0.067,0.048c0.019,0.022 0.033,0.049 0.044,0.082c0.011,0.033 0.016,0.071 0.016,0.116c0,0.043 -0.007,0.082 -0.02,0.117c-0.013,0.034 -0.033,0.063 -0.058,0.087c-0.025,0.024 -0.056,0.043 -0.093,0.056c-0.037,0.013 -0.078,0.019 -0.124,0.019c-0.015,0 -0.03,-0.001 -0.046,-0.002c-0.017,-0.001 -0.033,-0.003 -0.05,-0.005c-0.017,-0.003 -0.033,-0.006 -0.048,-0.009c-0.015,-0.004 -0.029,-0.008 -0.042,-0.013l0,-0.714Zm0.141,0.619c0.008,0.003 0.016,0.004 0.025,0.005c0.009,0.001 0.019,0.001 0.028,0.001c0.043,0 0.077,-0.013 0.102,-0.038c0.025,-0.025 0.037,-0.065 0.037,-0.119c0,-0.048 -0.008,-0.084 -0.023,-0.109c-0.015,-0.026 -0.041,-0.038 -0.078,-0.038c-0.027,0 -0.049,0.009 -0.066,0.026c-0.017,0.018 -0.025,0.046 -0.025,0.084l0,0.188Z" style="fill:rgb(75,148,218);fill-rule:nonzero;"/>        </g>        <g transform="matrix(12,0,0,12,18.9379,54.0327)">            <path d="M0.183,-0.215c0.003,0.04 0.017,0.069 0.042,0.087c0.025,0.018 0.059,0.027 0.1,0.027c0.023,0 0.046,-0.002 0.07,-0.006c0.023,-0.005 0.046,-0.011 0.067,-0.019c0.007,0.013 0.014,0.029 0.019,0.048c0.005,0.019 0.008,0.039 0.009,0.06c-0.052,0.02 -0.111,0.03 -0.176,0.03c-0.048,0 -0.089,-0.007 -0.124,-0.02c-0.034,-0.013 -0.062,-0.032 -0.084,-0.055c-0.021,-0.024 -0.037,-0.052 -0.048,-0.085c-0.01,-0.033 -0.015,-0.068 -0.015,-0.107c0,-0.038 0.005,-0.074 0.016,-0.107c0.011,-0.033 0.026,-0.062 0.047,-0.087c0.021,-0.025 0.047,-0.044 0.078,-0.059c0.031,-0.014 0.068,-0.021 0.109,-0.021c0.036,0 0.068,0.006 0.096,0.019c0.028,0.013 0.052,0.03 0.072,0.052c0.019,0.022 0.034,0.048 0.044,0.079c0.01,0.03 0.015,0.062 0.015,0.097c0,0.013 -0.001,0.025 -0.002,0.038c-0.001,0.012 -0.002,0.022 -0.003,0.029l-0.332,0Zm0.203,-0.099c-0.001,-0.032 -0.01,-0.058 -0.027,-0.077c-0.016,-0.02 -0.039,-0.03 -0.068,-0.03c-0.033,0 -0.059,0.009 -0.076,0.028c-0.017,0.019 -0.028,0.045 -0.031,0.079l0.202,0Z" style="fill:rgb(75,148,218);fill-rule:nonzero;"/>        </g>        <g transform="matrix(12,0,0,12,25.6819,54.0327)">            <path d="M0.17,-0.225c-0.037,-0.011 -0.067,-0.026 -0.088,-0.048c-0.021,-0.021 -0.031,-0.052 -0.031,-0.094c0,-0.051 0.018,-0.09 0.054,-0.119c0.037,-0.029 0.086,-0.043 0.149,-0.043c0.026,0 0.052,0.002 0.077,0.007c0.025,0.005 0.051,0.012 0.077,0.021c-0.001,0.017 -0.005,0.035 -0.01,0.054c-0.005,0.019 -0.012,0.035 -0.019,0.049c-0.016,-0.007 -0.034,-0.013 -0.053,-0.018c-0.019,-0.005 -0.04,-0.007 -0.061,-0.007c-0.023,0 -0.04,0.004 -0.053,0.011c-0.013,0.007 -0.019,0.018 -0.019,0.033c0,0.015 0.004,0.025 0.013,0.031c0.009,0.006 0.022,0.012 0.039,0.017l0.057,0.017c0.019,0.005 0.035,0.012 0.05,0.019c0.015,0.008 0.028,0.018 0.039,0.029c0.011,0.011 0.019,0.025 0.025,0.042c0.006,0.017 0.009,0.037 0.009,0.061c0,0.025 -0.005,0.048 -0.016,0.069c-0.01,0.021 -0.025,0.04 -0.045,0.055c-0.019,0.016 -0.043,0.028 -0.071,0.037c-0.028,0.009 -0.06,0.014 -0.095,0.014c-0.016,0 -0.031,-0.001 -0.044,-0.002c-0.013,-0.001 -0.026,-0.002 -0.039,-0.005c-0.012,-0.002 -0.024,-0.005 -0.036,-0.008c-0.012,-0.003 -0.025,-0.008 -0.039,-0.013c0.001,-0.018 0.004,-0.036 0.009,-0.055c0.005,-0.018 0.012,-0.036 0.02,-0.053c0.022,0.009 0.043,0.015 0.062,0.019c0.02,0.005 0.041,0.007 0.062,0.007c0.009,0 0.02,-0.001 0.031,-0.003c0.011,-0.001 0.021,-0.004 0.03,-0.009c0.009,-0.004 0.017,-0.01 0.024,-0.017c0.006,-0.007 0.009,-0.016 0.009,-0.027c0,-0.016 -0.005,-0.028 -0.015,-0.035c-0.009,-0.007 -0.023,-0.013 -0.04,-0.018l-0.062,-0.018Z" style="fill:rgb(39,39,39);fill-rule:nonzero;"/>        </g>        <g transform="matrix(12,0,0,12,31.2019,54.0327)">            <path d="M0.084,-0.409l-0.065,0l-0.005,-0.02l0.187,-0.239l0.023,0l0,0.151l0.121,0c0.002,0.01 0.003,0.019 0.004,0.027c0.001,0.008 0.001,0.016 0.001,0.025c0,0.009 0,0.018 -0.001,0.027c-0.001,0.009 -0.002,0.018 -0.004,0.029l-0.121,0l0,0.203c0,0.021 0.002,0.037 0.005,0.05c0.003,0.013 0.008,0.023 0.015,0.03c0.006,0.007 0.014,0.012 0.023,0.015c0.009,0.003 0.02,0.004 0.033,0.004c0.01,0 0.02,-0.001 0.029,-0.003c0.01,-0.001 0.019,-0.003 0.026,-0.004c0.005,0.013 0.008,0.026 0.01,0.039c0.002,0.014 0.003,0.026 0.003,0.037c0,0.007 0,0.013 -0.001,0.018c0,0.005 0,0.01 -0.001,0.015c-0.031,0.007 -0.062,0.011 -0.095,0.011c-0.061,0 -0.107,-0.014 -0.139,-0.043c-0.032,-0.028 -0.048,-0.074 -0.048,-0.138l0,-0.234Z" style="fill:rgb(39,39,39);fill-rule:nonzero;"/>        </g>        <g transform="matrix(12,0,0,12,35.7979,54.0327)">            <path d="M0.328,-0.237c-0.008,-0.001 -0.017,-0.003 -0.026,-0.003c-0.009,-0.001 -0.018,-0.002 -0.025,-0.002c-0.033,0 -0.058,0.006 -0.077,0.018c-0.019,0.011 -0.029,0.03 -0.029,0.056c0,0.017 0.004,0.031 0.011,0.04c0.007,0.009 0.016,0.016 0.027,0.021c0.01,0.004 0.021,0.007 0.033,0.008c0.011,0.001 0.021,0.001 0.03,0.001c0.01,0 0.02,-0.001 0.03,-0.002c0.01,-0.002 0.019,-0.004 0.026,-0.005l0,-0.132Zm0,-0.103c0,-0.016 -0.003,-0.029 -0.008,-0.039c-0.005,-0.01 -0.013,-0.018 -0.022,-0.023c-0.009,-0.006 -0.021,-0.01 -0.034,-0.012c-0.014,-0.002 -0.029,-0.003 -0.046,-0.003c-0.036,0 -0.074,0.007 -0.115,0.021c-0.009,-0.017 -0.016,-0.034 -0.021,-0.049c-0.005,-0.015 -0.007,-0.034 -0.007,-0.055c0.029,-0.01 0.059,-0.017 0.088,-0.022c0.029,-0.005 0.057,-0.007 0.082,-0.007c0.069,0 0.124,0.017 0.163,0.05c0.039,0.033 0.058,0.087 0.058,0.16l0,0.3c-0.023,0.007 -0.052,0.014 -0.085,0.021c-0.033,0.007 -0.071,0.01 -0.113,0.01c-0.034,0 -0.065,-0.003 -0.093,-0.009c-0.029,-0.006 -0.053,-0.016 -0.073,-0.03c-0.021,-0.014 -0.036,-0.032 -0.047,-0.054c-0.011,-0.022 -0.017,-0.049 -0.017,-0.081c0,-0.032 0.007,-0.059 0.021,-0.08c0.013,-0.022 0.031,-0.039 0.053,-0.052c0.021,-0.013 0.045,-0.023 0.072,-0.028c0.027,-0.006 0.053,-0.009 0.08,-0.009c0.019,0 0.041,0.001 0.064,0.003l0,-0.012Z" style="fill:rgb(39,39,39);fill-rule:nonzero;"/>        </g>        <g transform="matrix(12,0,0,12,42.0619,54.0327)">            <path d="M0.061,-0.731c0.023,-0.004 0.046,-0.006 0.07,-0.006c0.024,0 0.048,0.002 0.071,0.006l0,0.731c-0.023,0.004 -0.047,0.006 -0.071,0.006c-0.024,0 -0.047,-0.002 -0.07,-0.006l0,-0.731Zm0.161,0.46l0.128,-0.246c0.026,-0.004 0.052,-0.006 0.079,-0.006c0.025,0 0.05,0.002 0.074,0.006l-0.132,0.239l0.154,0.278c-0.027,0.004 -0.054,0.006 -0.079,0.006c-0.023,0 -0.048,-0.002 -0.074,-0.006l-0.15,-0.271Z" style="fill:rgb(39,39,39);fill-rule:nonzero;"/>        </g>        <g transform="matrix(12,0,0,12,48.2419,54.0327)">            <path d="M0.183,-0.215c0.003,0.04 0.017,0.069 0.042,0.087c0.025,0.018 0.059,0.027 0.1,0.027c0.023,0 0.046,-0.002 0.07,-0.006c0.023,-0.005 0.046,-0.011 0.067,-0.019c0.007,0.013 0.014,0.029 0.019,0.048c0.005,0.019 0.008,0.039 0.009,0.06c-0.052,0.02 -0.111,0.03 -0.176,0.03c-0.048,0 -0.089,-0.007 -0.124,-0.02c-0.034,-0.013 -0.062,-0.032 -0.084,-0.055c-0.021,-0.024 -0.037,-0.052 -0.048,-0.085c-0.01,-0.033 -0.015,-0.068 -0.015,-0.107c0,-0.038 0.005,-0.074 0.016,-0.107c0.011,-0.033 0.026,-0.062 0.047,-0.087c0.021,-0.025 0.047,-0.044 0.078,-0.059c0.031,-0.014 0.068,-0.021 0.109,-0.021c0.036,0 0.068,0.006 0.096,0.019c0.028,0.013 0.052,0.03 0.072,0.052c0.019,0.022 0.034,0.048 0.044,0.079c0.01,0.03 0.015,0.062 0.015,0.097c0,0.013 -0.001,0.025 -0.002,0.038c-0.001,0.012 -0.002,0.022 -0.003,0.029l-0.332,0Zm0.203,-0.099c-0.001,-0.032 -0.01,-0.058 -0.027,-0.077c-0.016,-0.02 -0.039,-0.03 -0.068,-0.03c-0.033,0 -0.059,0.009 -0.076,0.028c-0.017,0.019 -0.028,0.045 -0.031,0.079l0.202,0Z" style="fill:rgb(39,39,39);fill-rule:nonzero;"/>        </g>        <g transform="matrix(12,0,0,12,54.9859,54.0327)">            <path d="M0.07,-0.517c0.01,-0.002 0.02,-0.004 0.028,-0.004c0.009,-0.001 0.019,-0.002 0.03,-0.002c0.01,0 0.02,0.001 0.029,0.002c0.01,0.001 0.02,0.003 0.029,0.005c0.002,0.003 0.004,0.008 0.006,0.014c0.001,0.007 0.003,0.014 0.004,0.021c0.001,0.007 0.003,0.013 0.004,0.02c0.001,0.007 0.001,0.013 0.002,0.018c0.015,-0.021 0.033,-0.039 0.054,-0.056c0.021,-0.016 0.048,-0.024 0.08,-0.024c0.007,0 0.014,0 0.023,0.001c0.009,0.001 0.015,0.002 0.019,0.003c0.001,0.007 0.002,0.014 0.003,0.023c0.001,0.009 0.001,0.018 0.001,0.027c0,0.011 -0.001,0.024 -0.002,0.037c-0.001,0.013 -0.002,0.026 -0.005,0.038c-0.007,-0.001 -0.016,-0.002 -0.025,-0.002l-0.016,0c-0.011,0 -0.024,0.001 -0.038,0.003c-0.014,0.003 -0.027,0.009 -0.04,0.019c-0.013,0.01 -0.023,0.025 -0.032,0.045c-0.008,0.02 -0.012,0.048 -0.012,0.084l0,0.246c-0.012,0.002 -0.024,0.003 -0.036,0.004c-0.012,0.001 -0.024,0.001 -0.035,0.001c-0.011,0 -0.023,0 -0.035,-0.001c-0.011,-0.001 -0.023,-0.002 -0.036,-0.004l0,-0.518Z" style="fill:rgb(39,39,39);fill-rule:nonzero;"/>        </g>    </g></svg>