<?xml version="1.0" encoding="UTF-8" standalone="no"?><!DOCTYPE svg PUBLIC "-//W3C//DTD SVG 1.1//EN" "http://www.w3.org/Graphics/SVG/1.1/DTD/svg11.dtd"><svg width="100%" height="100%" viewBox="0 0 1024 512" version="1.1" xmlns="http://www.w3.org/2000/svg" xmlns:xlink="http://www.w3.org/1999/xlink" xml:space="preserve" style="fill-rule:evenodd;clip-rule:evenodd;stroke-linejoin:round;stroke-miterlimit:2;"><title>InvestBook</title><desc>Investbook is a participative loan website dedicated to financing SMEs by issuing unlisted bonds. Approved by the AMF since 2014, Investbook offers a quick and easy participatory loan solution for SMEs wishing to diversify their sources of funding and gain in depth in terms of their financial resources.</desc>    <g transform="matrix(2.57116,0,0,2.57027,-13.7804,-13.6282)">        <path d="M133.64,162.36c-1.71,1.35 -1.41,3.1 -1.74,4.66c-0.57,2.61 -2.15,4.23 -4.93,3.87c-3.08,-0.4 -4.23,-2.59 -3.79,-5.42c0.86,-5.58 1.9,-11.14 2.95,-16.68c0.56,-2.96 2.55,-4.28 5.45,-3.83c5.74,0.88 11.47,1.88 17.19,2.94c2.72,0.5 4.1,2.31 3.53,5.04c-0.56,2.66 -2.49,3.85 -5.19,3.48c-1.94,-0.27 -3.84,-0.95 -6.22,0.06c4.38,7.17 10.3,12.63 16.69,17.62c40.58,31.68 100.25,20.33 126.64,-24.04c0.43,-0.72 0.95,-1.38 1.31,-2.13c1.43,-2.94 3.89,-3.92 6.6,-2.46c3.03,1.63 2.37,4.46 0.99,6.97c-2.98,5.41 -6.42,10.55 -10.51,15.16c-20.87,23.51 -47.14,35.06 -78.48,33.1c-28.14,-1.76 -51.24,-14.25 -68.92,-36.42c-0.52,-0.65 -1.03,-1.27 -1.57,-1.92Z" style="fill:rgb(158,157,157);fill-rule:nonzero;"/>        <path d="M284.75,47.7c1.59,-1.91 1.03,-3.72 1.57,-5.27c0.81,-2.29 2.24,-3.75 4.83,-3.38c2.5,0.36 4.1,1.99 3.74,4.45c-0.89,6.24 -1.96,12.46 -3.3,18.62c-0.53,2.43 -2.8,3.24 -5.18,2.84c-5.73,-0.94 -11.46,-1.92 -17.15,-3.07c-2.75,-0.56 -3.79,-2.64 -3.26,-5.29c0.52,-2.6 2.59,-3.4 4.91,-3.18c1.95,0.18 3.86,0.94 6.58,0.18c-4.03,-6.56 -9.23,-11.64 -14.86,-16.16c-34.59,-27.75 -81.2,-26.19 -114.05,3.79c-6.18,5.63 -11.2,12.3 -15.35,19.56c-1.73,3.03 -3.54,5.76 -7.29,3.45c-3.47,-2.14 -2,-5.19 -0.39,-7.87c15.2,-25.24 37.26,-41.2 66.26,-46.01c32.91,-5.46 61.44,4.39 84.98,28.17c2.79,2.84 5.22,6.01 7.96,9.17Z" style="fill:rgb(158,157,157);fill-rule:nonzero;"/>        <path d="M236.01,86.06c3.73,-1.82 7.25,-2.59 10.91,-2.42c7.99,0.38 13.54,4.38 16.22,11.82c3.33,9.24 2.65,18.24 -4.44,25.51c-5.65,5.8 -12.88,6.43 -20.31,3.43c-1.74,-0.7 -3.03,-0.96 -4.99,-0.12c-3.45,1.48 -6.13,-0.22 -6.17,-3.99c-0.19,-14.8 -0.09,-29.6 -0.07,-44.41c0,-2.79 1.52,-4.39 4.3,-4.4c3.01,-0.01 4.57,1.62 4.55,4.69c-0.01,3.14 0,6.26 0,9.89Zm19.98,18.95c0.05,-7.27 -3.08,-11.75 -8.75,-12.53c-4.81,-0.66 -8.89,2.13 -10.51,7.18c-2.21,6.89 0.08,14.18 5.22,16.63c7.17,3.42 13.98,-2.05 14.04,-11.28Z" style="fill:rgb(179,20,47);fill-rule:nonzero;"/>        <path d="M133.84,126.02c-12.33,0.05 -20.87,-11.7 -18.45,-25.38c1.95,-10.98 9.41,-17.57 19.31,-17.05c10.42,0.55 17.59,8.29 18.16,19.51c0.21,4.21 -1.68,6.15 -5.89,6.1c-6.33,-0.08 -12.66,0.1 -18.98,-0.06c-3.74,-0.1 -3.41,1.41 -1.93,3.78c2.77,4.43 8.86,5.76 13.6,2.48c3.09,-2.14 5.94,-2.99 8.05,0.52c2.13,3.54 -0.9,5.52 -3.44,7.11c-3.16,1.97 -6.68,2.97 -10.43,2.99Zm-0.34,-25.51c2.31,0 4.63,-0.07 6.94,0.02c2.77,0.1 3.14,-0.96 1.93,-3.26c-2.62,-4.97 -9.57,-6.51 -14.09,-2.99c-1.73,1.35 -3.66,3.23 -3.1,5.27c0.56,2.02 3.18,0.67 4.86,0.93c1.12,0.18 2.3,0.04 3.46,0.03Z" style="fill:rgb(179,19,46);fill-rule:nonzero;"/>        <path d="M380.21,99.69c4.34,-2.8 6.91,-6.28 10.03,-9.14c1.59,-1.46 2.99,-3.17 4.74,-4.39c1.99,-1.38 4.33,-2.11 6.21,0.29c1.66,2.13 1.45,4.36 -0.38,6.3c-2.05,2.18 -4.1,4.38 -6.36,6.34c-2.1,1.82 -2.54,3.32 -0.72,5.77c2.77,3.72 5.1,7.77 7.56,11.72c1.59,2.55 2.74,5.24 -0.59,7.33c-3.24,2.04 -5.23,0.15 -6.89,-2.5c-1.85,-2.95 -3.64,-5.96 -5.68,-8.78c-0.97,-1.34 -1.35,-4.32 -3.39,-3.47c-2.08,0.86 -4.29,2.7 -4.5,5.52c-0.14,1.99 -0.06,3.99 -0.04,5.99c0.03,2.48 -1.56,3.73 -3.64,4.02c-2.38,0.33 -4.16,-0.87 -4.8,-3.34c-0.2,-0.8 -0.33,-1.64 -0.33,-2.45c-0.02,-13.98 -0.03,-27.95 0.04,-41.93c0.01,-1.29 0.26,-2.76 0.93,-3.81c1.09,-1.71 2.96,-1.97 4.89,-1.51c2.43,0.58 2.93,2.36 2.92,4.56c-0.02,7.6 0,15.19 0,23.48Z" style="fill:rgb(180,23,49);fill-rule:nonzero;"/>        <path d="M360.01,104.53c0.06,15.13 -11.14,24.56 -24.49,20.62c-10.26,-3.03 -15.73,-15.22 -12.32,-27.5c2.93,-10.57 12.58,-16.17 23.15,-13.44c8.21,2.12 13.62,10.16 13.66,20.32Zm-8.86,0.4c0.05,-7.53 -3.86,-12.53 -9.85,-12.59c-5.97,-0.07 -10.23,5.03 -10.28,12.32c-0.05,7.33 4.02,12.41 10.01,12.48c6.19,0.07 10.08,-4.61 10.12,-12.21Z" style="fill:rgb(179,19,46);fill-rule:nonzero;"/>        <path d="M274.82,104.76c-0.02,-14.12 9.26,-22.79 22.29,-20.83c8.71,1.31 14.44,8.55 15.35,19.41c1.29,15.44 -11.52,26.42 -25.23,21.64c-7.77,-2.71 -12.4,-10.25 -12.41,-20.22Zm8.73,0.18c0.1,7.53 4.08,12.28 10.23,12.2c5.96,-0.08 10.1,-5.25 10.03,-12.52c-0.07,-7.16 -4.54,-12.49 -10.35,-12.35c-5.91,0.15 -10,5.38 -9.91,12.67Z" style="fill:rgb(179,19,46);fill-rule:nonzero;"/>        <path d="M30.15,104.66c0,-4.82 -0.06,-9.65 0.02,-14.47c0.06,-4.01 2.24,-6.08 6.1,-4.9c2.07,0.63 3.48,-0.04 5.14,-0.61c11.26,-3.88 22.54,3.52 23.09,15.39c0.3,6.47 0.03,12.97 0.07,19.46c0.02,3.16 -1.34,5.31 -4.62,5.19c-2.99,-0.1 -4.21,-2.16 -4.17,-5.12c0.07,-5.82 0.08,-11.65 0,-17.47c-0.08,-5.95 -3.47,-9.86 -8.35,-9.83c-4.9,0.04 -8.32,3.97 -8.39,9.83c-0.07,5.82 -0.08,11.65 0.01,17.47c0.05,2.95 -1.07,5.03 -4.08,5.16c-3.26,0.13 -4.76,-2.03 -4.79,-5.13c-0.08,-4.99 -0.03,-9.98 -0.03,-14.97Z" style="fill:rgb(179,20,47);fill-rule:nonzero;"/>        <path d="M173.46,126.01c-2.22,-0.03 -6.38,-1.03 -10.04,-3.58c-2.51,-1.74 -4.39,-4.07 -2.39,-7.07c1.94,-2.9 4.54,-2.75 7.22,-0.43c3.03,2.64 6.78,2.42 10.46,1.98c1.71,-0.2 3.29,-0.89 3.54,-2.91c0.27,-2.13 -0.84,-3.52 -2.78,-4.16c-3,-0.97 -6.06,-1.76 -9.05,-2.73c-6.55,-2.13 -9.76,-6.5 -9.25,-12.44c0.52,-6.11 4.7,-9.93 11.73,-10.79c4.71,-0.57 9.29,-0.19 13.62,1.9c2.81,1.35 4.89,3.29 3.28,6.65c-1.47,3.07 -4.05,3 -6.77,1.56c-3.23,-1.7 -6.62,-2 -10.15,-1.17c-1.4,0.33 -2.59,0.97 -2.75,2.47c-0.16,1.5 0.81,2.53 2.17,3c2.35,0.81 4.73,1.54 7.11,2.22c9.38,2.68 12.74,7.03 11.64,15.1c-0.89,6.55 -6.65,10.44 -17.59,10.4Z" style="fill:rgb(179,20,47);fill-rule:nonzero;"/>        <path d="M90.45,108.63c2.89,-7.07 5.53,-13.33 8,-19.66c1.2,-3.08 3.13,-5.01 6.42,-3.7c3.46,1.38 3.04,4.3 1.85,7.17c-3.88,9.35 -7.77,18.7 -11.64,28.05c-0.93,2.24 -2.06,4.41 -4.87,4.24c-2.43,-0.14 -3.56,-1.98 -4.44,-4.14c-3.88,-9.53 -7.84,-19.03 -11.87,-28.5c-1.21,-2.84 -1.31,-5.4 1.8,-6.72c3.24,-1.37 5.24,0.25 6.49,3.42c2.5,6.32 5.21,12.56 8.26,19.84Z" style="fill:rgb(179,20,47);fill-rule:nonzero;"/>        <path d="M201.99,105.42c0,-2.49 0.01,-4.99 -0.01,-7.48c-0.02,-2.09 0.34,-4.01 -2.42,-5.26c-2.47,-1.12 -2.77,-4.81 -0.88,-5.9c4.4,-2.55 3.17,-6.27 3.28,-9.81c0.05,-1.69 0.02,-3.35 1.47,-4.55c2.65,-2.19 6.71,-0.73 7.3,2.78c0.33,1.94 0.19,3.98 0.1,5.97c-0.11,2.22 0.1,3.83 3,3.86c2.67,0.03 3.68,2.04 3.66,4.44c-0.02,2.28 -1.25,3.96 -3.61,3.95c-2.88,-0.01 -3.11,1.53 -3.06,3.8c0.11,4.98 0.08,9.97 0.02,14.96c-0.03,2.21 0.16,3.75 3.07,3.94c2.78,0.19 3.92,2.38 3.49,5.04c-0.45,2.77 -2.52,3.71 -5.12,3.68c-6,-0.07 -9.93,-3.8 -10.26,-9.94c-0.17,-3.15 -0.03,-6.32 -0.03,-9.48Z" style="fill:rgb(179,20,47);fill-rule:nonzero;"/>        <path d="M17.01,104.95c0,4.83 -0.06,9.65 0.02,14.48c0.05,3.21 -1.37,5.33 -4.56,5.27c-2.92,-0.05 -4.32,-2.15 -4.32,-5.08c0,-9.98 -0.04,-19.97 0.03,-29.95c0.02,-2.9 1.46,-4.78 4.59,-4.68c3.14,0.1 4.27,2.06 4.26,4.98c-0.04,5 -0.01,9.99 -0.02,14.98Z" style="fill:rgb(179,20,47);fill-rule:nonzero;"/>        <path d="M12.79,80.09c-3.9,-0.3 -6.3,-2.19 -6.63,-6.13c-0.31,-3.72 2.62,-6.76 6.35,-6.82c3.77,-0.06 6.76,2.85 6.59,6.59c-0.17,3.97 -2.56,5.89 -6.31,6.36Z" style="fill:rgb(180,23,49);fill-rule:nonzero;"/>    </g></svg>