<?xml version="1.0" encoding="UTF-8" standalone="no"?><!DOCTYPE svg PUBLIC "-//W3C//DTD SVG 1.1//EN" "http://www.w3.org/Graphics/SVG/1.1/DTD/svg11.dtd"><svg width="100%" height="100%" viewBox="0 0 1024 512" version="1.1" xmlns="http://www.w3.org/2000/svg" xmlns:xlink="http://www.w3.org/1999/xlink" xml:space="preserve" style="fill-rule:evenodd;clip-rule:evenodd;stroke-linejoin:round;stroke-miterlimit:2;"><title>Fellow Finance</title><desc>Fellow Finance is the biggest Peer-to-Peer (P2P) Nordic platform. Financed more than 280€ Millions with half million users, on 2018 they launch the IPO.</desc>    <g transform="matrix(2.22297,0,0,2.22297,-55.7972,-28.54)">        <path d="M76.38,69.96l0,58.04l50.38,-29.02l-50.38,-29.02Z" style="fill:rgb(200,227,35);fill-rule:nonzero;"/>        <path d="M26,157.02l50.38,-29.02l-50.38,-29.02l0,58.04Z" style="fill:rgb(128,191,68);fill-rule:nonzero;"/>        <path d="M76.38,69.96l-50.38,29.02l50.38,29.02l0,-58.04Z" style="fill:rgb(132,216,59);fill-rule:nonzero;"/>        <path d="M126.76,98.98l0,58.04l-50.38,-29.02l50.38,-29.02Z" style="fill:rgb(103,188,164);fill-rule:nonzero;"/>        <path d="M76.38,128l0,58.04l50.38,-29.02l-50.38,-29.02Z" style="fill:rgb(50,161,142);fill-rule:nonzero;"/>        <path d="M76.38,186.04l0,-58.04l-50.38,29.02l50.38,29.02Z" style="fill:rgb(3,141,118);fill-rule:nonzero;"/>        <path d="M148.7,110.7c0,-0.002 0,-0.003 0,-0.005c0,-0.608 0.501,-1.11 1.11,-1.11c0.033,0 0.067,0.002 0.1,0.005l17.88,0c0.586,0.009 1.063,0.494 1.063,1.08c0,0.027 -0.001,0.053 -0.003,0.08c0.004,0.038 0.006,0.075 0.006,0.113c0,0.599 -0.469,1.103 -1.066,1.147l-16.58,0l0,14.81l8,0c0.59,0.018 1.066,0.509 1.066,1.099c0,0.037 -0.002,0.074 -0.006,0.111c0.004,0.037 0.006,0.075 0.006,0.112c0,0.549 -0.451,1 -1,1c-0.022,0 -0.044,-0.001 -0.066,-0.002l-8,0l0,16.22c0,0.76 -0.6,1.06 -1.26,1.06c-0.66,0 -1.26,-0.3 -1.26,-1.06l0.01,-34.66Z" style="fill:rgb(3,141,118);fill-rule:nonzero;"/>        <path d="M176,126.82l8,0c0.59,0.018 1.066,0.509 1.066,1.099c0,0.037 -0.002,0.074 -0.006,0.111c0.004,0.037 0.006,0.075 0.006,0.112c0,0.549 -0.451,1 -1,1c-0.022,0 -0.044,-0.001 -0.066,-0.002l-8,0l0,14.86l16.62,0c0.597,0.044 1.066,0.548 1.066,1.147c0,0.038 -0.002,0.075 -0.006,0.113c0.004,0.037 0.006,0.073 0.006,0.11c0,0.576 -0.474,1.05 -1.05,1.05c-0.005,0 -0.011,0 -0.016,0l-17.93,0c-0.033,0.003 -0.067,0.005 -0.1,0.005c-0.609,0 -1.11,-0.502 -1.11,-1.11c0,-0.002 0,-0.003 0,-0.005l0,-34.61c0,-0.002 0,-0.003 0,-0.005c0,-0.608 0.501,-1.11 1.11,-1.11c0.033,0 0.067,0.002 0.1,0.005l17.93,0c0.005,0 0.011,0 0.016,0c0.576,0 1.05,0.474 1.05,1.05c0,0.037 -0.002,0.073 -0.006,0.11c0.004,0.038 0.006,0.075 0.006,0.113c0,0.599 -0.469,1.103 -1.066,1.147l-16.62,0l0,14.81Z" style="fill:rgb(3,141,118);fill-rule:nonzero;"/>        <path d="M200,146.41c-0.033,0.003 -0.067,0.005 -0.1,0.005c-0.609,0 -1.11,-0.502 -1.11,-1.11c0,-0.002 0,-0.003 0,-0.005l0,-34.65c0,-0.76 0.65,-1.06 1.26,-1.06c0.61,0 1.26,0.3 1.26,1.06l0,33.35l14.89,0c0.66,0 1,0.6 1,1.21c0,0.61 -0.3,1.21 -1,1.21l-16.2,-0.01Z" style="fill:rgb(3,141,118);fill-rule:nonzero;"/>        <path d="M223,146.41c-0.033,0.003 -0.067,0.005 -0.1,0.005c-0.609,0 -1.11,-0.502 -1.11,-1.11c0,-0.002 0,-0.003 0,-0.005l0,-34.65c0,-0.76 0.65,-1.06 1.26,-1.06c0.61,0 1.26,0.3 1.26,1.06l0,33.35l14.86,0c0.66,0 1,0.6 1,1.21c0,0.61 -0.3,1.21 -1,1.21l-16.17,-0.01Z" style="fill:rgb(3,141,118);fill-rule:nonzero;"/>        <path d="M243.55,136.13l0,-16c0,-7.71 4.38,-10.58 10.12,-10.58c5.74,0 10.17,2.87 10.17,10.58l0,16c0,7.71 -4.48,10.58 -10.17,10.58c-5.69,0 -10.12,-2.87 -10.12,-10.58Zm17.78,-16c0,-5.59 -2.87,-8.16 -7.66,-8.16c-4.79,0 -7.61,2.57 -7.61,8.16l0,16c0,5.59 2.82,8.16 7.61,8.16c4.79,0 7.66,-2.57 7.66,-8.16l0,-16Z" style="fill:rgb(3,141,118);fill-rule:nonzero;"/>        <path d="M294.73,145.81c-0.244,0.581 -0.831,0.947 -1.46,0.91c-0.611,0.064 -1.186,-0.321 -1.36,-0.91l-5.19,-18.81l-5.19,18.84c-0.252,0.551 -0.804,0.906 -1.41,0.906c-0.606,0 -1.158,-0.355 -1.41,-0.906l-10,-34.81c-0.024,-0.115 -0.024,-0.235 0,-0.35c0,-0.65 0.71,-1.06 1.36,-1.06c0.512,-0.034 0.987,0.277 1.16,0.76l8.92,31.83l5.14,-19.09c0.163,-0.608 0.731,-1.026 1.36,-1c0.634,-0.001 1.202,0.402 1.41,1l5.29,19.09l8.81,-31.83c0.173,-0.483 0.648,-0.794 1.16,-0.76c0.66,0 1.36,0.4 1.36,1.06c0.008,0.119 -0.009,0.238 -0.05,0.35l-9.9,34.78Z" style="fill:rgb(3,141,118);fill-rule:nonzero;"/>        <path d="M319.92,110.7c0,-0.002 0,-0.003 0,-0.005c0,-0.608 0.501,-1.11 1.11,-1.11c0.033,0 0.067,0.002 0.1,0.005l17.87,0c0.586,0.009 1.063,0.494 1.063,1.08c0,0.027 -0.001,0.053 -0.003,0.08c0.003,0.034 0.005,0.069 0.005,0.103c0,0.599 -0.468,1.103 -1.065,1.147l-16.56,0l0,14.81l8,0c0.589,0.019 1.064,0.51 1.064,1.099c0,0.031 -0.002,0.061 -0.004,0.091c0.004,0.037 0.006,0.075 0.006,0.112c0,0.549 -0.451,1 -1,1c-0.022,0 -0.044,-0.001 -0.066,-0.002l-8,0l0,16.22c0,0.76 -0.6,1.06 -1.26,1.06c-0.66,0 -1.26,-0.3 -1.26,-1.06l0,-34.63Z" style="fill:rgb(3,141,118);fill-rule:nonzero;"/>        <path d="M344.7,110.65c0,-0.76 0.65,-1.06 1.26,-1.06c0.61,0 1.26,0.3 1.26,1.06l0,34.65c-0.007,0.615 -0.515,1.118 -1.13,1.118c-0.043,0 -0.087,-0.003 -0.13,-0.008c-0.037,0.004 -0.074,0.005 -0.111,0.005c-0.617,0 -1.13,-0.497 -1.149,-1.115l0,-34.65Z" style="fill:rgb(3,141,118);fill-rule:nonzero;"/>        <path d="M372.51,144.55l-14.81,-29l0,29.75c-0.007,0.615 -0.515,1.118 -1.13,1.118c-0.043,0 -0.087,-0.003 -0.13,-0.008c-0.037,0.004 -0.074,0.005 -0.111,0.005c-0.617,0 -1.13,-0.497 -1.149,-1.115l0,-34.65c0,-0.81 0.6,-1.06 1.26,-1.06c0.91,0 1.61,1.21 2.07,2.06l14.56,28.76l0,-29.76c0,-0.76 0.65,-1.06 1.26,-1.06c0.61,0 1.26,0.3 1.26,1.06l0,34.65c-0.007,0.615 -0.515,1.118 -1.13,1.118c-0.043,0 -0.087,-0.003 -0.13,-0.008c-0.77,0 -1.33,-1.01 -1.82,-1.86Z" style="fill:rgb(3,141,118);fill-rule:nonzero;"/>        <path d="M380.72,145.3c-0.008,-0.103 0.009,-0.206 0.05,-0.3l10.78,-34.81c0.21,-0.585 0.79,-0.96 1.41,-0.91c0.616,-0.033 1.187,0.335 1.41,0.91l10.63,34.81l0,0.3c0,0.6 -0.76,1.11 -1.46,1.11c-0.469,0.014 -0.888,-0.304 -1,-0.76l-2.47,-8l-14.42,0l-2.42,8c-0.144,0.482 -0.609,0.8 -1.11,0.76c-0.65,0 -1.4,-0.41 -1.4,-1.11Zm18.74,-10l-6.46,-21.48l-6.65,21.51l13.11,-0.03Z" style="fill:rgb(3,141,118);fill-rule:nonzero;"/>        <path d="M427.56,144.55l-14.81,-29l0,29.75c-0.007,0.615 -0.515,1.118 -1.13,1.118c-0.043,0 -0.087,-0.003 -0.13,-0.008c-0.037,0.004 -0.074,0.005 -0.111,0.005c-0.617,0 -1.13,-0.497 -1.149,-1.115l0,-34.65c0,-0.81 0.6,-1.06 1.26,-1.06c0.91,0 1.61,1.21 2.07,2.06l14.56,28.76l0,-29.76c0,-0.76 0.65,-1.06 1.26,-1.06c0.61,0 1.26,0.3 1.26,1.06l0,34.65c-0.007,0.615 -0.515,1.118 -1.13,1.118c-0.043,0 -0.087,-0.003 -0.13,-0.008c-0.76,0 -1.38,-1.01 -1.82,-1.86Z" style="fill:rgb(3,141,118);fill-rule:nonzero;"/>        <path d="M448.52,112c-5,0 -7.76,2.57 -7.76,8.16l0,16c0,5.64 2.72,8.16 7.91,8.16c6.35,0 7,-3.88 7.35,-6.4c0,-0.007 0,-0.015 0,-0.022c0,-0.576 0.474,-1.05 1.05,-1.05c0.053,0 0.107,0.004 0.16,0.012c0.86,0 1.31,0.3 1.31,1.71c0,4.18 -3.63,8.16 -10.17,8.16c-5.54,0 -10.12,-2.87 -10.12,-10.58l0,-16c0,-7.71 4.68,-10.58 10.28,-10.58c6.5,0 10,3.93 10,8.16c0,1.36 -0.45,1.66 -1.26,1.66c-1,0 -1.26,-0.55 -1.26,-1.06c-0.14,-2.33 -1.24,-6.33 -7.49,-6.33Z" style="fill:rgb(3,141,118);fill-rule:nonzero;"/>        <path d="M467.16,126.82l8,0c0.59,0.018 1.066,0.509 1.066,1.099c0,0.037 -0.002,0.074 -0.006,0.111c0.004,0.037 0.006,0.075 0.006,0.112c0,0.549 -0.451,1 -1,1c-0.022,0 -0.044,-0.001 -0.066,-0.002l-8,0l0,14.86l16.62,0c0.597,0.044 1.066,0.548 1.066,1.147c0,0.038 -0.002,0.075 -0.006,0.113c0.004,0.037 0.006,0.073 0.006,0.11c0,0.576 -0.474,1.05 -1.05,1.05c-0.005,0 -0.011,0 -0.016,0l-17.93,0c-0.033,0.003 -0.067,0.005 -0.1,0.005c-0.609,0 -1.11,-0.502 -1.11,-1.11c0,-0.002 0,-0.003 0,-0.005l0,-34.61c0,-0.002 0,-0.003 0,-0.005c0,-0.608 0.501,-1.11 1.11,-1.11c0.033,0 0.067,0.002 0.1,0.005l17.93,0c0.005,0 0.011,0 0.016,0c0.576,0 1.05,0.474 1.05,1.05c0,0.037 -0.002,0.073 -0.006,0.11c0.004,0.038 0.006,0.075 0.006,0.113c0,0.599 -0.469,1.103 -1.066,1.147l-16.62,0l0,14.81Z" style="fill:rgb(3,141,118);fill-rule:nonzero;"/>    </g></svg>