<?xml version="1.0" encoding="UTF-8" standalone="no"?><!DOCTYPE svg PUBLIC "-//W3C//DTD SVG 1.1//EN" "http://www.w3.org/Graphics/SVG/1.1/DTD/svg11.dtd"><svg width="100%" height="100%" viewBox="0 0 1024 512" version="1.1" xmlns="http://www.w3.org/2000/svg" xmlns:xlink="http://www.w3.org/1999/xlink" xml:space="preserve" style="fill-rule:evenodd;clip-rule:evenodd;stroke-linejoin:round;stroke-miterlimit:2;"><title>ECN</title><desc></desc>    <g transform="matrix(10.2795,0,0,10.2896,-145.891,-118.491)">        <g transform="matrix(0.215709,0,0,0.215709,8.77844,8.78429)">            <rect x="26" y="36.09" width="183.82" height="183.82" style="fill:rgb(37,88,167);"/>        </g>        <g transform="matrix(0.215709,0,0,0.215709,8.77844,8.78429)">            <path d="M240.52,129.68l0,1.28l-12.51,0l0,-24.79l12.18,0l0,1.28l-10.71,0l0,10.05l9.46,0l0,1.28l-9.46,0l0,10.9l11.04,0Z" style="fill:rgb(37,88,167);fill-rule:nonzero;"/>        </g>        <g transform="matrix(0.215709,0,0,0.215709,8.77844,8.78429)">            <path d="M253.35,131.32c-4.61,0 -7.94,-3.4 -7.94,-8.19l0,-17l1.47,0l0,16.6c0,4.68 2.78,7.24 6.54,7.24c4.06,0 6.51,-2.81 6.51,-7.24l0,-16.6l1.39,0l0,16.42c0,5.59 -3.4,8.74 -8,8.74" style="fill:rgb(37,88,167);fill-rule:nonzero;"/>        </g>        <g transform="matrix(0.215709,0,0,0.215709,8.77844,8.78429)">            <path d="M268.67,119.7l0,11.3l-1.47,0l0,-24.43c1.733,-0.366 3.499,-0.55 5.27,-0.55c5.08,0 8.48,2.34 8.48,6.28c-0.094,3.123 -2.269,5.823 -5.3,6.58l0,0.12c2.23,0.62 3.51,2.27 4.06,5c0.47,2.364 1.067,4.701 1.79,7l-1.72,0c-0.55,-2 -1.28,-5.08 -1.61,-6.8c-0.55,-2.71 -2.16,-4.46 -5,-4.46l-4.5,-0.04Zm4.2,-1.28c3.69,0 6.47,-2.09 6.47,-5.74c0,-3.65 -2.59,-5.34 -7,-5.34c-1.238,-0.004 -2.473,0.106 -3.69,0.33l0,10.75l4.22,0Z" style="fill:rgb(37,88,167);fill-rule:nonzero;"/>        </g>        <g transform="matrix(0.215709,0,0,0.215709,8.77844,8.78429)">            <path d="M284.32,118.56c0,-6.65 4.5,-12.76 11.22,-12.76c6.72,0 11.22,6.1 11.22,12.76c0,6.66 -4.5,12.76 -11.22,12.76c-6.72,0 -11.22,-6.1 -11.22,-12.76m20.84,0c0,-6 -3.76,-11.44 -9.61,-11.44c-5.85,0 -9.62,5.45 -9.62,11.44c0,5.99 3.76,11.44 9.61,11.44c5.85,0 9.61,-5.45 9.61,-11.44" style="fill:rgb(37,88,167);fill-rule:nonzero;"/>        </g>        <g transform="matrix(0.215709,0,0,0.215709,8.77844,8.78429)">            <path d="M311.51,106.46c1.527,-0.309 3.082,-0.466 4.64,-0.47c5.59,0 8.88,2.49 8.88,6.62c0,5.52 -4.5,8 -9.54,8c-0.843,-0.012 -1.684,-0.073 -2.52,-0.18l0,10.57l-1.46,0l0,-24.54Zm1.49,12.65c0.932,0.118 1.87,0.182 2.81,0.19c4.35,0 7.64,-2.27 7.64,-6.33c0,-4.06 -3,-5.66 -7.38,-5.66c-1.027,0.004 -2.053,0.077 -3.07,0.22l0,11.58Z" style="fill:rgb(37,88,167);fill-rule:nonzero;"/>        </g>        <g transform="matrix(0.215709,0,0,0.215709,8.77844,8.78429)">            <path d="M342.07,129.68l0,1.28l-12.5,0l0,-24.79l12.17,0l0,1.28l-10.71,0l0,10.05l9.47,0l0,1.28l-9.47,0l0,10.9l11.04,0Z" style="fill:rgb(37,88,167);fill-rule:nonzero;"/>        </g>        <g transform="matrix(0.215709,0,0,0.215709,8.77844,8.78429)">            <path d="M359.44,122.22l-9.91,0l-3,8.74l-1.46,0l8.7,-24.79l1.5,0l8.73,24.83l-1.53,0l-3.03,-8.78Zm-0.4,-1.28l-4.46,-13l-0.11,0l-4.5,13l9.07,0Z" style="fill:rgb(37,88,167);fill-rule:nonzero;"/>        </g>        <g transform="matrix(0.215709,0,0,0.215709,8.77844,8.78429)">            <path d="M386.82,131l-2,0l-10.57,-16c-1.46,-2.19 -2.92,-4.39 -4.71,-7.32l-0.11,0c0.11,2.93 0.11,5.12 0.11,7.32l0,16l-1.35,0l0,-24.83l2,0l10.57,16c1.46,2.19 2.89,4.38 4.71,7.35l0.11,0c-0.11,-3 -0.11,-5.16 -0.11,-7.35l0,-16l1.35,0l0,24.83Z" style="fill:rgb(37,88,167);fill-rule:nonzero;"/>        </g>        <g transform="matrix(0.215709,0,0,0.215709,8.77844,8.78429)">            <path d="M240.52,129.68l0,1.28l-12.51,0l0,-24.79l12.18,0l0,1.28l-10.71,0l0,10.05l9.46,0l0,1.28l-9.46,0l0,10.9l11.04,0Z" style="fill:rgb(128,129,132);fill-rule:nonzero;"/>        </g>        <g transform="matrix(0.215709,0,0,0.215709,8.77844,8.78429)">            <path d="M253.35,131.32c-4.61,0 -7.94,-3.4 -7.94,-8.19l0,-17l1.47,0l0,16.6c0,4.68 2.78,7.24 6.54,7.24c4.06,0 6.51,-2.81 6.51,-7.24l0,-16.6l1.39,0l0,16.42c0,5.59 -3.4,8.74 -8,8.74" style="fill:rgb(128,129,132);fill-rule:nonzero;"/>        </g>        <g transform="matrix(0.215709,0,0,0.215709,8.77844,8.78429)">            <path d="M268.67,119.7l0,11.3l-1.47,0l0,-24.43c1.733,-0.366 3.499,-0.55 5.27,-0.55c5.08,0 8.48,2.34 8.48,6.28c-0.094,3.123 -2.269,5.823 -5.3,6.58l0,0.12c2.23,0.62 3.51,2.27 4.06,5c0.47,2.364 1.067,4.701 1.79,7l-1.72,0c-0.55,-2 -1.28,-5.08 -1.61,-6.8c-0.55,-2.71 -2.16,-4.46 -5,-4.46l-4.5,-0.04Zm4.2,-1.28c3.69,0 6.47,-2.09 6.47,-5.74c0,-3.65 -2.59,-5.34 -7,-5.34c-1.238,-0.004 -2.473,0.106 -3.69,0.33l0,10.75l4.22,0Z" style="fill:rgb(128,129,132);fill-rule:nonzero;"/>        </g>        <g transform="matrix(0.215709,0,0,0.215709,8.77844,8.78429)">            <path d="M284.32,118.56c0,-6.65 4.5,-12.76 11.22,-12.76c6.72,0 11.22,6.1 11.22,12.76c0,6.66 -4.5,12.76 -11.22,12.76c-6.72,0 -11.22,-6.1 -11.22,-12.76m20.84,0c0,-6 -3.76,-11.44 -9.61,-11.44c-5.85,0 -9.62,5.45 -9.62,11.44c0,5.99 3.76,11.44 9.61,11.44c5.85,0 9.61,-5.45 9.61,-11.44" style="fill:rgb(128,129,132);fill-rule:nonzero;"/>        </g>        <g transform="matrix(0.215709,0,0,0.215709,8.77844,8.78429)">            <path d="M311.51,106.46c1.527,-0.309 3.082,-0.466 4.64,-0.47c5.59,0 8.88,2.49 8.88,6.62c0,5.52 -4.5,8 -9.54,8c-0.843,-0.012 -1.684,-0.073 -2.52,-0.18l0,10.57l-1.46,0l0,-24.54Zm1.49,12.65c0.932,0.118 1.87,0.182 2.81,0.19c4.35,0 7.64,-2.27 7.64,-6.33c0,-4.06 -3,-5.66 -7.38,-5.66c-1.027,0.004 -2.053,0.077 -3.07,0.22l0,11.58Z" style="fill:rgb(128,129,132);fill-rule:nonzero;"/>        </g>        <g transform="matrix(0.215709,0,0,0.215709,8.77844,8.78429)">            <path d="M342.07,129.68l0,1.28l-12.5,0l0,-24.79l12.17,0l0,1.28l-10.71,0l0,10.05l9.47,0l0,1.28l-9.47,0l0,10.9l11.04,0Z" style="fill:rgb(128,129,132);fill-rule:nonzero;"/>        </g>        <g transform="matrix(0.215709,0,0,0.215709,8.77844,8.78429)">            <path d="M359.44,122.22l-9.91,0l-3,8.74l-1.46,0l8.7,-24.79l1.5,0l8.73,24.83l-1.53,0l-3.03,-8.78Zm-0.4,-1.28l-4.46,-13l-0.11,0l-4.5,13l9.07,0Z" style="fill:rgb(128,129,132);fill-rule:nonzero;"/>        </g>        <g transform="matrix(0.215709,0,0,0.215709,8.77844,8.78429)">            <path d="M386.82,131l-2,0l-10.57,-16c-1.46,-2.19 -2.92,-4.39 -4.71,-7.32l-0.11,0c0.11,2.93 0.11,5.12 0.11,7.32l0,16l-1.35,0l0,-24.83l2,0l10.57,16c1.46,2.19 2.89,4.38 4.71,7.35l0.11,0c-0.11,-3 -0.11,-5.16 -0.11,-7.35l0,-16l1.35,0l0,24.83Z" style="fill:rgb(128,129,132);fill-rule:nonzero;"/>        </g>        <g transform="matrix(0.215709,0,0,0.215709,8.77844,8.78429)">            <path d="M238.36,143.74c2.191,-0.099 4.377,0.291 6.4,1.14l-0.18,1.31c-1.955,-0.732 -4.023,-1.114 -6.11,-1.13c-5.56,0 -10.38,4.46 -10.38,11.44c0,6.98 4.46,11.45 10.05,11.45c2.08,0.005 4.141,-0.392 6.07,-1.17l0.18,1.35c-2.108,0.806 -4.354,1.193 -6.61,1.14c-6,0 -11.3,-4.54 -11.3,-12.69c0,-7.71 5.48,-12.83 11.88,-12.83" style="fill:rgb(37,88,167);fill-rule:nonzero;"/>        </g>        <g transform="matrix(0.215709,0,0,0.215709,8.77844,8.78429)">            <path d="M250.68,157.63l0,11.26l-1.46,0l0,-24.39c1.729,-0.366 3.492,-0.55 5.26,-0.55c5.08,0 8.48,2.34 8.48,6.29c-0.094,3.123 -2.269,5.823 -5.3,6.58l0,0.07c2.23,0.62 3.51,2.27 4.06,5c0.47,2.364 1.067,4.701 1.79,7l-1.72,0c-0.55,-2 -1.28,-5.08 -1.61,-6.8c-0.55,-2.71 -2.16,-4.46 -5,-4.46l-4.5,0Zm4.2,-1.28c3.69,0 6.47,-2.09 6.47,-5.74c0,-3.65 -2.59,-5.34 -7,-5.34c-1.238,-0.004 -2.473,0.106 -3.69,0.33l0,10.75l4.22,0Z" style="fill:rgb(37,88,167);fill-rule:nonzero;"/>        </g>        <g transform="matrix(0.215709,0,0,0.215709,8.77844,8.78429)">            <path d="M266.33,156.49c0,-6.65 4.5,-12.76 11.22,-12.76c6.72,0 11.22,6.1 11.22,12.76c0,6.66 -4.5,12.76 -11.22,12.76c-6.72,0 -11.22,-6.1 -11.22,-12.76m20.84,0c0,-6 -3.76,-11.44 -9.61,-11.44c-5.85,0 -9.62,5.45 -9.62,11.44c0,5.99 3.77,11.44 9.62,11.44c5.85,0 9.61,-5.45 9.61,-11.44" style="fill:rgb(37,88,167);fill-rule:nonzero;"/>        </g>        <g transform="matrix(0.215709,0,0,0.215709,8.77844,8.78429)">            <path d="M321.53,144.1l-7.57,24.79l-1.46,0l-6.11,-22.74l-0.11,0l-6.17,22.74l-1.5,0l-7.49,-24.79l1.53,0l6.69,22.85l0.11,0l6.21,-22.85l1.46,0l6.15,22.85l0.11,0l6.76,-22.85l1.39,0Z" style="fill:rgb(37,88,167);fill-rule:nonzero;"/>        </g>        <g transform="matrix(0.215709,0,0,0.215709,8.77844,8.78429)">            <path d="M331.18,143.92c8.45,0 13.53,4.64 13.53,11.84c0,8 -6.4,13.3 -13.89,13.3c-1.61,0 -3.76,-0.11 -5.59,-0.25l0,-24.5c1.988,-0.271 3.993,-0.404 6,-0.4m-4.5,23.69c1.28,0.07 3.36,0.14 4.5,0.14c6.25,0 11.92,-4.61 11.92,-11.62c0,-6.47 -4.35,-10.9 -11.88,-10.9c-1.09,0 -3.36,0.11 -4.53,0.26l-0.01,22.12Z" style="fill:rgb(37,88,167);fill-rule:nonzero;"/>        </g>        <g transform="matrix(0.215709,0,0,0.215709,8.77844,8.78429)">            <path d="M349.46,168.89l0,-24.79l12.17,0l0,1.28l-10.71,0l0,10.42l9.47,0l0,1.28l-9.47,0l0,11.81l-1.46,0Z" style="fill:rgb(37,88,167);fill-rule:nonzero;"/>        </g>        <g transform="matrix(0.215709,0,0,0.215709,8.77844,8.78429)">            <path d="M373.37,169.25c-4.61,0 -7.94,-3.4 -7.94,-8.19l0,-17l1.47,0l0,16.6c0,4.68 2.78,7.24 6.54,7.24c4.06,0 6.51,-2.81 6.51,-7.24l0,-16.56l1.39,0l0,16.42c0,5.59 -3.4,8.74 -8,8.74" style="fill:rgb(37,88,167);fill-rule:nonzero;"/>        </g>        <g transform="matrix(0.215709,0,0,0.215709,8.77844,8.78429)">            <path d="M405.76,168.89l-2,0l-10.57,-16c-1.46,-2.19 -2.92,-4.38 -4.71,-7.31l-0.11,0c0.11,2.93 0.11,5.12 0.11,7.31l0,16l-1.35,0l0,-24.79l2,0l10.57,16c1.46,2.19 2.89,4.38 4.71,7.35l0.11,0c-0.11,-3 -0.11,-5.16 -0.11,-7.35l0,-16l1.35,0l0,24.79Z" style="fill:rgb(37,88,167);fill-rule:nonzero;"/>        </g>        <g transform="matrix(0.215709,0,0,0.215709,8.77844,8.78429)">            <path d="M417.89,143.92c8.45,0 13.53,4.64 13.53,11.84c0,8 -6.4,13.3 -13.89,13.3c-1.61,0 -3.76,-0.11 -5.59,-0.25l0,-24.5c1.988,-0.271 3.993,-0.404 6,-0.4m-4.5,23.69c1.28,0.07 3.36,0.14 4.5,0.14c6.25,0 11.92,-4.61 11.92,-11.62c0,-6.47 -4.35,-10.9 -11.88,-10.9c-1.09,0 -3.36,0.11 -4.53,0.26l-0.01,22.12Z" style="fill:rgb(37,88,167);fill-rule:nonzero;"/>        </g>        <g transform="matrix(0.215709,0,0,0.215709,8.77844,8.78429)">            <rect x="436.17" y="144.1" width="1.46" height="24.79" style="fill:rgb(37,88,167);"/>        </g>        <g transform="matrix(0.215709,0,0,0.215709,8.77844,8.78429)">            <path d="M462.46,168.89l-2,0l-10.57,-16c-1.46,-2.19 -2.92,-4.38 -4.71,-7.31l-0.11,0c0.11,2.93 0.11,5.12 0.11,7.31l0,16l-1.35,0l0,-24.79l2,0l10.56,16c1.47,2.19 2.89,4.38 4.72,7.35l0.11,0c-0.11,-3 -0.11,-5.16 -0.11,-7.35l0,-16l1.35,0l0,24.79Z" style="fill:rgb(37,88,167);fill-rule:nonzero;"/>        </g>        <g transform="matrix(0.215709,0,0,0.215709,8.77844,8.78429)">            <path d="M485.27,144.91l-0.18,1.42c-1.891,-0.832 -3.934,-1.268 -6,-1.28c-5.66,0 -10.42,4.28 -10.42,11.45c0,7.17 4.28,11.26 10.06,11.26c1.958,0.021 3.907,-0.276 5.77,-0.88l0,-8.45l-6.17,0l0,-1.28l7.67,0l0,10.68c-2.44,0.858 -5.013,1.278 -7.6,1.24c-6.14,0 -11.3,-4.24 -11.3,-12.4c0,-8.16 5.74,-12.94 12.14,-12.94c2.061,-0.054 4.11,0.346 6,1.17" style="fill:rgb(37,88,167);fill-rule:nonzero;"/>        </g>        <g transform="matrix(0.215709,0,0,0.215709,8.77844,8.78429)">            <path d="M238.36,143.74c2.191,-0.099 4.377,0.291 6.4,1.14l-0.18,1.31c-1.955,-0.732 -4.023,-1.114 -6.11,-1.13c-5.56,0 -10.38,4.46 -10.38,11.44c0,6.98 4.46,11.45 10.05,11.45c2.08,0.005 4.141,-0.392 6.07,-1.17l0.18,1.35c-2.108,0.806 -4.354,1.193 -6.61,1.14c-6,0 -11.3,-4.54 -11.3,-12.69c0,-7.71 5.48,-12.83 11.88,-12.83" style="fill:rgb(128,129,132);fill-rule:nonzero;"/>        </g>        <g transform="matrix(0.215709,0,0,0.215709,8.77844,8.78429)">            <path d="M250.68,157.63l0,11.26l-1.46,0l0,-24.39c1.729,-0.366 3.492,-0.55 5.26,-0.55c5.08,0 8.48,2.34 8.48,6.29c-0.094,3.123 -2.269,5.823 -5.3,6.58l0,0.07c2.23,0.62 3.51,2.27 4.06,5c0.47,2.364 1.067,4.701 1.79,7l-1.72,0c-0.55,-2 -1.28,-5.08 -1.61,-6.8c-0.55,-2.71 -2.16,-4.46 -5,-4.46l-4.5,0Zm4.2,-1.28c3.69,0 6.47,-2.09 6.47,-5.74c0,-3.65 -2.59,-5.34 -7,-5.34c-1.238,-0.004 -2.473,0.106 -3.69,0.33l0,10.75l4.22,0Z" style="fill:rgb(128,129,132);fill-rule:nonzero;"/>        </g>        <g transform="matrix(0.215709,0,0,0.215709,8.77844,8.78429)">            <path d="M266.33,156.49c0,-6.65 4.5,-12.76 11.22,-12.76c6.72,0 11.22,6.1 11.22,12.76c0,6.66 -4.5,12.76 -11.22,12.76c-6.72,0 -11.22,-6.1 -11.22,-12.76m20.84,0c0,-6 -3.76,-11.44 -9.61,-11.44c-5.85,0 -9.62,5.45 -9.62,11.44c0,5.99 3.77,11.44 9.62,11.44c5.85,0 9.61,-5.45 9.61,-11.44" style="fill:rgb(128,129,132);fill-rule:nonzero;"/>        </g>        <g transform="matrix(0.215709,0,0,0.215709,8.77844,8.78429)">            <path d="M321.53,144.1l-7.57,24.79l-1.46,0l-6.11,-22.74l-0.11,0l-6.17,22.74l-1.5,0l-7.49,-24.79l1.53,0l6.69,22.85l0.11,0l6.21,-22.85l1.46,0l6.15,22.85l0.11,0l6.76,-22.85l1.39,0Z" style="fill:rgb(128,129,132);fill-rule:nonzero;"/>        </g>        <g transform="matrix(0.215709,0,0,0.215709,8.77844,8.78429)">            <path d="M331.18,143.92c8.45,0 13.53,4.64 13.53,11.84c0,8 -6.4,13.3 -13.89,13.3c-1.61,0 -3.76,-0.11 -5.59,-0.25l0,-24.5c1.988,-0.271 3.993,-0.404 6,-0.4m-4.5,23.69c1.28,0.07 3.36,0.14 4.5,0.14c6.25,0 11.92,-4.61 11.92,-11.62c0,-6.47 -4.35,-10.9 -11.88,-10.9c-1.09,0 -3.36,0.11 -4.53,0.26l-0.01,22.12Z" style="fill:rgb(128,129,132);fill-rule:nonzero;"/>        </g>        <g transform="matrix(0.215709,0,0,0.215709,8.77844,8.78429)">            <path d="M349.46,168.89l0,-24.79l12.17,0l0,1.28l-10.71,0l0,10.42l9.47,0l0,1.28l-9.47,0l0,11.81l-1.46,0Z" style="fill:rgb(128,129,132);fill-rule:nonzero;"/>        </g>        <g transform="matrix(0.215709,0,0,0.215709,8.77844,8.78429)">            <path d="M373.37,169.25c-4.61,0 -7.94,-3.4 -7.94,-8.19l0,-17l1.47,0l0,16.6c0,4.68 2.78,7.24 6.54,7.24c4.06,0 6.51,-2.81 6.51,-7.24l0,-16.56l1.39,0l0,16.42c0,5.59 -3.4,8.74 -8,8.74" style="fill:rgb(128,129,132);fill-rule:nonzero;"/>        </g>        <g transform="matrix(0.215709,0,0,0.215709,8.77844,8.78429)">            <path d="M405.76,168.89l-2,0l-10.57,-16c-1.46,-2.19 -2.92,-4.38 -4.71,-7.31l-0.11,0c0.11,2.93 0.11,5.12 0.11,7.31l0,16l-1.35,0l0,-24.79l2,0l10.57,16c1.46,2.19 2.89,4.38 4.71,7.35l0.11,0c-0.11,-3 -0.11,-5.16 -0.11,-7.35l0,-16l1.35,0l0,24.79Z" style="fill:rgb(128,129,132);fill-rule:nonzero;"/>        </g>        <g transform="matrix(0.215709,0,0,0.215709,8.77844,8.78429)">            <path d="M417.89,143.92c8.45,0 13.53,4.64 13.53,11.84c0,8 -6.4,13.3 -13.89,13.3c-1.61,0 -3.76,-0.11 -5.59,-0.25l0,-24.5c1.988,-0.271 3.993,-0.404 6,-0.4m-4.5,23.69c1.28,0.07 3.36,0.14 4.5,0.14c6.25,0 11.92,-4.61 11.92,-11.62c0,-6.47 -4.35,-10.9 -11.88,-10.9c-1.09,0 -3.36,0.11 -4.53,0.26l-0.01,22.12Z" style="fill:rgb(128,129,132);fill-rule:nonzero;"/>        </g>        <g transform="matrix(0.215709,0,0,0.215709,8.77844,8.78429)">            <rect x="436.17" y="144.1" width="1.46" height="24.79" style="fill:rgb(128,129,132);"/>        </g>        <g transform="matrix(0.215709,0,0,0.215709,8.77844,8.78429)">            <path d="M462.46,168.89l-2,0l-10.57,-16c-1.46,-2.19 -2.92,-4.38 -4.71,-7.31l-0.11,0c0.11,2.93 0.11,5.12 0.11,7.31l0,16l-1.35,0l0,-24.79l2,0l10.56,16c1.47,2.19 2.89,4.38 4.72,7.35l0.11,0c-0.11,-3 -0.11,-5.16 -0.11,-7.35l0,-16l1.35,0l0,24.79Z" style="fill:rgb(128,129,132);fill-rule:nonzero;"/>        </g>        <g transform="matrix(0.215709,0,0,0.215709,8.77844,8.78429)">            <path d="M485.27,144.91l-0.18,1.42c-1.891,-0.832 -3.934,-1.268 -6,-1.28c-5.66,0 -10.42,4.28 -10.42,11.45c0,7.17 4.28,11.26 10.06,11.26c1.958,0.021 3.907,-0.276 5.77,-0.88l0,-8.45l-6.17,0l0,-1.28l7.67,0l0,10.68c-2.44,0.858 -5.013,1.278 -7.6,1.24c-6.14,0 -11.3,-4.24 -11.3,-12.4c0,-8.16 5.74,-12.94 12.14,-12.94c2.061,-0.054 4.11,0.346 6,1.17" style="fill:rgb(128,129,132);fill-rule:nonzero;"/>        </g>        <g transform="matrix(0.215709,0,0,0.215709,8.77844,8.78429)">            <path d="M246.55,206.82l-2,0l-10.57,-16c-1.46,-2.19 -2.92,-4.39 -4.71,-7.32l-0.11,0c0.11,2.93 0.11,5.12 0.11,7.32l0,16l-1.35,0l0,-24.82l2,0l10.57,16c1.46,2.19 2.89,4.38 4.71,7.35l0.11,0c-0.11,-3 -0.11,-5.16 -0.11,-7.35l0,-16l1.35,0l0,24.82Z" style="fill:rgb(37,88,167);fill-rule:nonzero;"/>        </g>        <g transform="matrix(0.215709,0,0,0.215709,8.77844,8.78429)">            <path d="M265.23,205.54l0,1.28l-12.5,0l0,-24.79l12.17,0l0,1.28l-10.71,0l0,10.05l9.47,0l0,1.28l-9.47,0l0,10.9l11.04,0Z" style="fill:rgb(37,88,167);fill-rule:nonzero;"/>        </g>        <g transform="matrix(0.215709,0,0,0.215709,8.77844,8.78429)">            <path d="M284.06,183.31l-7.38,0l0,23.51l-1.47,0l0,-23.51l-7.38,0l0,-1.28l16.23,0l0,1.28Z" style="fill:rgb(37,88,167);fill-rule:nonzero;"/>        </g>        <g transform="matrix(0.215709,0,0,0.215709,8.77844,8.78429)">            <path d="M315.75,182.03l-7.57,24.79l-1.46,0l-6.1,-22.74l-0.11,0l-6.18,22.74l-1.5,0l-7.49,-24.79l1.53,0l6.69,22.85l0.11,0l6.22,-22.85l1.46,0l6.14,22.85l0.11,0l6.76,-22.85l1.39,0Z" style="fill:rgb(37,88,167);fill-rule:nonzero;"/>        </g>        <g transform="matrix(0.215709,0,0,0.215709,8.77844,8.78429)">            <path d="M317.91,194.42c0,-6.65 4.5,-12.76 11.22,-12.76c6.72,0 11.22,6.1 11.22,12.76c0,6.66 -4.5,12.76 -11.22,12.76c-6.72,0 -11.22,-6.1 -11.22,-12.76m20.84,0c0,-6 -3.76,-11.44 -9.61,-11.44c-5.85,0 -9.62,5.45 -9.62,11.44c0,5.99 3.77,11.44 9.62,11.44c5.85,0 9.61,-5.45 9.61,-11.44" style="fill:rgb(37,88,167);fill-rule:nonzero;"/>        </g>        <g transform="matrix(0.215709,0,0,0.215709,8.77844,8.78429)">            <path d="M346.57,195.56l0,11.26l-1.46,0l0,-24.39c1.729,-0.366 3.492,-0.55 5.26,-0.55c5.08,0 8.48,2.34 8.48,6.28c-0.094,3.123 -2.269,5.823 -5.3,6.58l0,0.07c2.23,0.62 3.51,2.27 4.06,5c0.47,2.364 1.067,4.701 1.79,7l-1.72,0c-0.55,-2 -1.28,-5.08 -1.61,-6.8c-0.55,-2.71 -2.16,-4.46 -5,-4.46l-4.5,0.01Zm4.2,-1.28c3.69,0 6.47,-2.09 6.47,-5.74c0,-3.65 -2.59,-5.34 -7,-5.34c-1.238,-0.004 -2.473,0.106 -3.69,0.33l0,10.75l4.22,0Z" style="fill:rgb(37,88,167);fill-rule:nonzero;"/>        </g>        <g transform="matrix(0.215709,0,0,0.215709,8.77844,8.78429)">            <path d="M368.83,193.91l11.34,12.91l-2.01,0l-10.21,-11.85l-0.1,0l-2.64,2.96l0,8.89l-1.46,0l0,-24.79l1.46,0l0,14.08l0.15,0l12.24,-14.08l1.83,0l-10.6,11.88Z" style="fill:rgb(37,88,167);fill-rule:nonzero;"/>        </g>        <g transform="matrix(0.215709,0,0,0.215709,8.77844,8.78429)">            <path d="M246.55,206.82l-2,0l-10.57,-16c-1.46,-2.19 -2.92,-4.39 -4.71,-7.32l-0.11,0c0.11,2.93 0.11,5.12 0.11,7.32l0,16l-1.35,0l0,-24.82l2,0l10.57,16c1.46,2.19 2.89,4.38 4.71,7.35l0.11,0c-0.11,-3 -0.11,-5.16 -0.11,-7.35l0,-16l1.35,0l0,24.82Z" style="fill:rgb(128,129,132);fill-rule:nonzero;"/>        </g>        <g transform="matrix(0.215709,0,0,0.215709,8.77844,8.78429)">            <path d="M265.23,205.54l0,1.28l-12.5,0l0,-24.79l12.17,0l0,1.28l-10.71,0l0,10.05l9.47,0l0,1.28l-9.47,0l0,10.9l11.04,0Z" style="fill:rgb(128,129,132);fill-rule:nonzero;"/>        </g>        <g transform="matrix(0.215709,0,0,0.215709,8.77844,8.78429)">            <path d="M284.06,183.31l-7.38,0l0,23.51l-1.47,0l0,-23.51l-7.38,0l0,-1.28l16.23,0l0,1.28Z" style="fill:rgb(128,129,132);fill-rule:nonzero;"/>        </g>        <g transform="matrix(0.215709,0,0,0.215709,8.77844,8.78429)">            <path d="M315.75,182.03l-7.57,24.79l-1.46,0l-6.1,-22.74l-0.11,0l-6.18,22.74l-1.5,0l-7.49,-24.79l1.53,0l6.69,22.85l0.11,0l6.22,-22.85l1.46,0l6.14,22.85l0.11,0l6.76,-22.85l1.39,0Z" style="fill:rgb(128,129,132);fill-rule:nonzero;"/>        </g>        <g transform="matrix(0.215709,0,0,0.215709,8.77844,8.78429)">            <path d="M317.91,194.42c0,-6.65 4.5,-12.76 11.22,-12.76c6.72,0 11.22,6.1 11.22,12.76c0,6.66 -4.5,12.76 -11.22,12.76c-6.72,0 -11.22,-6.1 -11.22,-12.76m20.84,0c0,-6 -3.76,-11.44 -9.61,-11.44c-5.85,0 -9.62,5.45 -9.62,11.44c0,5.99 3.77,11.44 9.62,11.44c5.85,0 9.61,-5.45 9.61,-11.44" style="fill:rgb(128,129,132);fill-rule:nonzero;"/>        </g>        <g transform="matrix(0.215709,0,0,0.215709,8.77844,8.78429)">            <path d="M346.57,195.56l0,11.26l-1.46,0l0,-24.39c1.729,-0.366 3.492,-0.55 5.26,-0.55c5.08,0 8.48,2.34 8.48,6.28c-0.094,3.123 -2.269,5.823 -5.3,6.58l0,0.07c2.23,0.62 3.51,2.27 4.06,5c0.47,2.364 1.067,4.701 1.79,7l-1.72,0c-0.55,-2 -1.28,-5.08 -1.61,-6.8c-0.55,-2.71 -2.16,-4.46 -5,-4.46l-4.5,0.01Zm4.2,-1.28c3.69,0 6.47,-2.09 6.47,-5.74c0,-3.65 -2.59,-5.34 -7,-5.34c-1.238,-0.004 -2.473,0.106 -3.69,0.33l0,10.75l4.22,0Z" style="fill:rgb(128,129,132);fill-rule:nonzero;"/>        </g>        <g transform="matrix(0.215709,0,0,0.215709,8.77844,8.78429)">            <path d="M368.83,193.91l11.34,12.91l-2.01,0l-10.21,-11.85l-0.1,0l-2.64,2.96l0,8.89l-1.46,0l0,-24.79l1.46,0l0,14.08l0.15,0l12.24,-14.08l1.83,0l-10.6,11.88Z" style="fill:rgb(128,129,132);fill-rule:nonzero;"/>        </g>        <g transform="matrix(0.215709,0,0,0.215709,8.77844,8.78429)">            <path d="M97.69,147.28l-22.05,-15.75l-21.97,15.91l8.17,-25.86l-21.91,-15.96l27.1,-0.22l8.42,-25.78l8.59,25.71l27.11,0.04l-21.8,16.11l8.34,25.8Z" style="fill:rgb(249,221,43);fill-rule:nonzero;"/>        </g>        <g transform="matrix(0.215709,0,0,0.215709,8.77844,8.78429)">            <path d="M146.26,96.16l-15.16,-10.82l-15.08,10.93l5.61,-17.76l-15.06,-10.97l18.62,-0.15l5.78,-17.71l5.91,17.67l18.62,0.03l-14.97,11.06l5.73,17.72Z" style="fill:rgb(249,221,43);fill-rule:nonzero;"/>        </g>        <g transform="matrix(0.215709,0,0,0.215709,8.77844,8.78429)">            <path d="M191.11,83.05l-8.25,-5.89l-8.21,5.95l3.05,-9.67l-8.19,-5.97l10.14,-0.08l3.14,-9.64l3.21,9.61l10.14,0.02l-8.15,6.03l3.12,9.64Z" style="fill:rgb(249,221,43);fill-rule:nonzero;"/>        </g>        <g transform="matrix(0.215709,0,0,0.215709,8.77844,8.78429)">            <path d="M146.75,194.84l-17.87,0c0,7 3.7,11 9.65,11c2.069,0.016 4.117,-0.421 6,-1.28l0.21,1.74c-2.209,0.948 -4.597,1.405 -7,1.34c-6,0 -11,-4.06 -11,-12.68c0,-7 4.57,-13.09 11.4,-13.09c5.8,0 8.78,5 8.78,10.78c-0.002,0.736 -0.052,1.471 -0.15,2.2m-2,-1.69c0,-5.6 -2.26,-9.5 -7.14,-9.5c-5.08,0 -8.42,4.47 -8.67,9.5l15.81,0Z" style="fill:rgb(37,88,167);fill-rule:nonzero;"/>        </g>        <g transform="matrix(0.215709,0,0,0.215709,8.77844,8.78429)">            <path d="M164.25,205.83c2.207,-0.07 4.382,-0.541 6.42,-1.39l0.21,1.75c-2.316,0.999 -4.819,1.49 -7.34,1.44c-6.47,0 -11.61,-4.93 -11.61,-12.63c0,-8.52 5.34,-13 12.38,-13c2.367,-0.101 4.72,0.412 6.83,1.49l-0.21,1.74c-2.024,-1.001 -4.262,-1.496 -6.52,-1.44c-5.8,0 -10.22,3.6 -10.22,10.68c0,7.08 4,11.4 10.06,11.4" style="fill:rgb(37,88,167);fill-rule:nonzero;"/>        </g>        <g transform="matrix(0.215709,0,0,0.215709,8.77844,8.78429)">            <path d="M179.56,187.4c1.623,-3.369 5.041,-5.525 8.78,-5.54c5.34,0 7.6,4 7.6,9.09l0,16.17l-2.05,0l0,-15.41c0,-5 -1.54,-8 -6.27,-8c-4.73,0 -8.16,4 -8.16,8.83l0,14.58l-2.06,0l0,-24.76l1.9,0l0.15,5l0.11,0.04Z" style="fill:rgb(37,88,167);fill-rule:nonzero;"/>        </g>        <g transform="matrix(0.215709,0,0,0.215709,8.77844,8.78429)">            <path d="M146.75,194.84l-17.87,0c0,7 3.7,11 9.65,11c2.069,0.016 4.117,-0.421 6,-1.28l0.21,1.74c-2.209,0.948 -4.597,1.405 -7,1.34c-6,0 -11,-4.06 -11,-12.68c0,-7 4.57,-13.09 11.4,-13.09c5.8,0 8.78,5 8.78,10.78c-0.002,0.736 -0.052,1.471 -0.15,2.2m-2,-1.69c0,-5.6 -2.26,-9.5 -7.14,-9.5c-5.08,0 -8.42,4.47 -8.67,9.5l15.81,0Z" style="fill:white;fill-rule:nonzero;"/>        </g>        <g transform="matrix(0.215709,0,0,0.215709,8.77844,8.78429)">            <path d="M164.25,205.83c2.207,-0.07 4.382,-0.541 6.42,-1.39l0.21,1.75c-2.316,0.999 -4.819,1.49 -7.34,1.44c-6.47,0 -11.61,-4.93 -11.61,-12.63c0,-8.52 5.34,-13 12.38,-13c2.367,-0.101 4.72,0.412 6.83,1.49l-0.21,1.74c-2.024,-1.001 -4.262,-1.496 -6.52,-1.44c-5.8,0 -10.22,3.6 -10.22,10.68c0,7.08 4,11.4 10.06,11.4" style="fill:white;fill-rule:nonzero;"/>        </g>        <g transform="matrix(0.215709,0,0,0.215709,8.77844,8.78429)">            <path d="M179.56,187.4c1.623,-3.369 5.041,-5.525 8.78,-5.54c5.34,0 7.6,4 7.6,9.09l0,16.17l-2.05,0l0,-15.41c0,-5 -1.54,-8 -6.27,-8c-4.73,0 -8.16,4 -8.16,8.83l0,14.58l-2.06,0l0,-24.76l1.9,0l0.15,5l0.11,0.04Z" style="fill:white;fill-rule:nonzero;"/>        </g>    </g></svg>