<?xml version="1.0" encoding="UTF-8" standalone="no"?><!DOCTYPE svg PUBLIC "-//W3C//DTD SVG 1.1//EN" "http://www.w3.org/Graphics/SVG/1.1/DTD/svg11.dtd"><svg width="100%" height="100%" viewBox="0 0 1024 512" version="1.1" xmlns="http://www.w3.org/2000/svg" xmlns:xlink="http://www.w3.org/1999/xlink" xml:space="preserve" style="fill-rule:evenodd;clip-rule:evenodd;stroke-linejoin:round;stroke-miterlimit:2;"><title>Cash-U Finance</title><desc></desc>    <g transform="matrix(4.67889,0,0,4.67889,2.00175,185.817)">        <path d="M54.837,25.814l3.25,-3.101c1.143,1.86 3.19,2.985 5.23,2.985c1.807,0 3.203,-0.97 3.364,-2.21c0.105,-0.814 -0.343,-1.511 -1.316,-2.015c-0.32,-0.194 -1.122,-0.543 -2.403,-1.047c-1.243,-0.503 -2.077,-0.891 -2.509,-1.123c-2.195,-1.163 -3.118,-2.946 -2.805,-5.35c0.236,-1.821 1.125,-3.333 2.661,-4.495c1.536,-1.163 3.458,-1.745 5.728,-1.745c2.962,0 5.212,1.047 6.753,3.1l-3.034,3.218c-1.16,-1.434 -2.642,-2.17 -4.412,-2.17c-1.577,0 -2.649,0.852 -2.795,1.976c-0.12,0.93 0.403,1.628 1.541,2.054c2.845,1.202 4.447,1.9 4.768,2.094c2.18,1.278 3.141,3.062 2.844,5.348c-0.247,1.9 -1.184,3.489 -2.85,4.768c-1.668,1.279 -3.711,1.899 -6.134,1.899c-3.386,0 -6.277,-1.434 -7.882,-4.186l0.001,0Zm-4.667,3.645l-4.77,0l0.337,-2.597c-2.075,2.054 -4.481,3.1 -7.212,3.1c-3.001,0 -5.327,-1.046 -7.012,-3.178c-1.685,-2.132 -2.3,-4.806 -1.892,-7.945c0.408,-3.14 1.712,-5.776 3.94,-7.83c2.23,-2.054 4.867,-3.101 7.829,-3.101c2.655,0 4.788,1.047 6.397,3.179l0.347,-2.675l-0.001,-0.002l4.772,0l-2.735,21.049Zm-47.194,-3.645c-2.45,-2.752 -3.378,-6.28 -2.819,-10.581c0.564,-4.341 2.451,-7.907 5.66,-10.698c3.253,-2.83 6.897,-4.225 10.975,-4.225c5.117,0 9.421,2.403 11.454,6.008l-4.026,3.449c-1.93,-2.907 -4.552,-4.341 -7.86,-4.341c-2.655,0 -5.046,0.93 -7.134,2.79c-2.05,1.86 -3.276,4.187 -3.643,7.017c-0.358,2.752 0.23,5.039 1.802,6.86c1.571,1.822 3.725,2.713 6.418,2.713c3.501,0 6.534,-1.434 9.143,-4.341l3.222,3.334c-3.123,3.604 -8.062,6.085 -13.294,6.085c-4.116,0 -7.44,-1.357 -9.897,-4.07l-0.001,0Zm77.549,3.643l-5.002,0l3.827,-29.457l4.886,0l-1.445,11.124c1.44,-1.9 4.078,-3.256 7.04,-3.256c2.27,0 4.054,0.775 5.435,2.287c1.381,1.511 1.912,3.643 1.545,6.473l-1.667,12.83l-5,0l1.49,-11.474c0.457,-3.527 -1.094,-5.504 -3.864,-5.504c-2.963,0 -5.337,2.287 -5.765,5.581l-1.48,11.396Zm-34.782,-15.077c-0.993,-1.24 -2.374,-1.86 -4.183,-1.86c-1.808,0 -3.35,0.62 -4.665,1.86c-1.277,1.24 -2.051,2.752 -2.282,4.535c-0.237,1.822 0.144,3.333 1.098,4.574c0.993,1.24 2.375,1.86 4.183,1.86c1.808,0 3.35,-0.62 4.666,-1.86c1.315,-1.241 2.088,-2.752 2.325,-4.574c0.232,-1.783 -0.15,-3.294 -1.142,-4.535Z"/>        <path d="M119.484,17.192l-2.117,1.88l-8.798,7.811l-3.236,-3.735l7.135,-6.33l-5.677,-6.467l3.78,-3.313l5.662,6.446l3.115,3.55l0.136,0.158Z" style="fill:rgb(5,198,50);"/>        <path d="M127.645,27.21c-1.798,-1.86 -2.488,-4.536 -2.035,-8.024l2.387,-18.373l5.27,0l-2.326,17.907c-0.519,3.993 1.326,6.086 4.826,6.086c3.424,0 5.9,-2.17 6.408,-6.086l2.326,-17.907l5.31,0l-2.388,18.373c-0.453,3.488 -1.839,6.163 -4.12,8.023c-2.275,1.822 -5.012,2.752 -8.206,2.752c-3.154,0 -5.65,-0.93 -7.452,-2.752"/>        <path d="M184.455,29.446l-1.509,0l0.242,-1.36c-1.048,1.06 -2.246,1.59 -3.633,1.59c-1.35,0 -2.388,-0.477 -3.115,-1.432c-0.721,-0.971 -0.95,-2.156 -0.697,-3.588c0.25,-1.413 0.895,-2.58 1.953,-3.5c1.06,-0.936 2.264,-1.395 3.614,-1.395c1.369,0 2.394,0.548 3.064,1.626l0.246,-1.397l1.508,0l-1.673,9.456Zm14.431,-1.166c-0.764,-0.937 -1.01,-2.121 -0.757,-3.552c0.257,-1.45 0.94,-2.634 2.035,-3.57c1.113,-0.938 2.405,-1.397 3.879,-1.397c1.842,0 3.353,0.972 3.81,2.457l-1.433,0.76c-0.458,-1.078 -1.424,-1.767 -2.634,-1.767c-1,0 -1.883,0.335 -2.651,1.007c-0.756,0.643 -1.262,1.532 -1.427,2.51c-0.176,0.99 -0.007,1.82 0.506,2.49c0.533,0.655 1.281,0.992 2.245,0.992c0.597,0 1.204,-0.16 1.825,-0.496c0.62,-0.335 1.113,-0.742 1.464,-1.237l1.163,0.76c-1.025,1.432 -2.884,2.422 -4.709,2.422c-1.455,0 -2.549,-0.46 -3.316,-1.38l0,0.001Zm11.283,-2.899c-0.028,1.644 0.836,2.81 2.87,2.81c1.123,0 2.5,-0.442 3.506,-1.078l0.451,1.22c-1.04,0.724 -2.69,1.326 -4.252,1.326c-3.526,0 -4.54,-2.493 -4.102,-4.967c0.253,-1.432 0.898,-2.598 1.941,-3.535c1.043,-0.937 2.265,-1.397 3.651,-1.397c1.315,0 2.327,0.425 3.016,1.29c0.69,0.867 0.903,2.033 0.643,3.5c-0.022,0.124 -0.089,0.407 -0.199,0.83l0,0.001l-7.525,0Zm-45.447,4.065l1.674,-9.456l1.526,0l-0.237,1.343c0.784,-1.06 1.877,-1.59 3.263,-1.59c1.052,0 1.87,0.336 2.467,1.025c0.597,0.69 0.776,1.661 0.548,2.951l-1.014,5.727l-1.561,0l0.932,-5.267c0.338,-1.909 -0.474,-2.969 -1.93,-2.969c-0.79,0 -1.471,0.282 -2.06,0.83c-0.587,0.548 -0.961,1.273 -1.115,2.14l-0.932,5.266l-1.561,0Zm22.399,0l-0.001,0l1.674,-9.456l1.526,0l-0.237,1.343c0.784,-1.06 1.877,-1.59 3.263,-1.59c1.052,0 1.87,0.336 2.467,1.025c0.597,0.69 0.776,1.661 0.548,2.951l-1.014,5.727l-1.56,0l0.931,-5.267c0.338,-1.909 -0.474,-2.969 -1.93,-2.969c-0.79,0 -1.47,0.282 -2.059,0.83c-0.588,0.548 -0.962,1.273 -1.115,2.14l-0.933,5.266l-1.56,0Zm-25.066,0l-1.561,0l1.674,-9.456l1.561,0l-1.674,9.456Zm-5.91,-10.11c0.388,-2.19 1.858,-3.464 3.752,-3.464c0.738,0 1.391,0.177 1.98,0.512l-0.755,1.29c-0.47,-0.21 -0.909,-0.317 -1.312,-0.317c-1.175,0 -1.873,0.672 -2.11,2.014l-0.11,0.62l3,0l-0.24,1.36l-3,0l-1.434,8.095l-1.56,0l1.432,-8.095l-1.649,0l0.241,-1.36l1.65,0l0.115,-0.655Zm27.272,2.899c-0.493,-0.69 -1.222,-1.025 -2.204,-1.025c-0.983,0 -1.832,0.336 -2.567,1.025c-0.709,0.66 -1.179,1.537 -1.337,2.492c-0.172,0.973 -0.02,1.803 0.453,2.492c0.495,0.672 1.226,1.008 2.208,1.008c0.982,0 1.83,-0.336 2.564,-1.008c0.724,-0.66 1.208,-1.544 1.375,-2.51c0.172,-0.972 0.002,-1.802 -0.492,-2.474Zm27.003,1.732l5.928,0c0.212,-1.697 -0.807,-2.775 -2.368,-2.775c-1.614,0 -3.007,1.132 -3.56,2.775Zm-45.854,-6.522c-0.116,0.654 -0.716,1.167 -1.347,1.167c-0.684,0 -1.085,-0.513 -0.969,-1.167c0.122,-0.663 0.706,-1.149 1.38,-1.148c0.63,0 1.051,0.494 0.936,1.148Z" style="fill:rgb(5,198,50);"/>    </g></svg>