<?xml version="1.0" encoding="UTF-8" standalone="no"?><!DOCTYPE svg PUBLIC "-//W3C//DTD SVG 1.1//EN" "http://www.w3.org/Graphics/SVG/1.1/DTD/svg11.dtd"><svg width="100%" height="100%" viewBox="0 0 1024 512" version="1.1" xmlns="http://www.w3.org/2000/svg" xmlns:xlink="http://www.w3.org/1999/xlink" xml:space="preserve" style="fill-rule:evenodd;clip-rule:evenodd;stroke-linejoin:round;stroke-miterlimit:2;"><title>Proplend</title><desc>Proplend’s FCA approved peer to peer lending platform connects investors direct to creditworthy borrowers - enabling investors to earn attractive returns and borrowers to gain access to funding that may not otherwise be available.Investors choose which loans and borrowers to lend to, investing to the loan to value-based risk tranche(s) they're comfortable with. All loans are secured by commercial property - max 75% LTV.</desc>    <g id="proplend-512x256.svg" transform="matrix(2.21739,0,0,2.21739,-55.6522,-27.815)">        <path id="_1747ac5e-dfe3-4aab-90a5-685bcedb60e3" d="M475,149.43l11,0l0,-57.9l-11,0l0,25.15c-1.82,-4.92 -6.83,-8.91 -14,-8.91c-12,0 -18.35,9.52 -18.35,21.44c0,11.92 6.22,21.34 18.25,21.34c7.22,0 12.13,-3.91 13.94,-8.82l0,7.7l0.16,0Zm0.1,-19.44c0,7.41 -4.51,11.92 -10.74,11.92c-6.92,0 -10.53,-5.11 -10.53,-12.72c0,-7.61 3.61,-12.83 10.53,-12.83c6.22,0 10.74,4.61 10.74,11.92l0,1.71Zm-66.88,-2.21c0,-6.81 3.51,-11.23 9.13,-11.23c5.42,0 7.92,3.61 7.92,9.82l0,23l11,0l0,-25.18c0,-9 -3.91,-16.33 -14.84,-16.33c-6,0 -11.24,3.11 -13.23,7.71l0,-6.57l-11,0l0,40.46l11,0l0,-21.66l0.02,-0.02Zm-48.44,-2.7c1,-5.11 4,-9.22 10.13,-9.22c6.13,0 9,4.51 9.43,9.22l-19.56,0Zm21.06,10.23c-1.61,4.61 -4.81,6.91 -10.24,6.91c-6,0 -10.74,-4.21 -11,-10.23l30.4,0l0,-3.9c0,-11 -6.82,-20.24 -20.05,-20.24c-12.13,0 -21.26,9.22 -21.26,22c0,12.78 9,20.74 21.56,20.74c10.43,0 17.45,-5.31 19.55,-14.33l-9,-0.9l0.04,-0.05Zm-50,14.12l11,0l0,-57.9l-11,0l0,57.9Zm-39.32,-7.7c1.81,4.91 6.72,8.82 13.94,8.82c11.93,0 18.35,-9.42 18.35,-21.34c0,-11.92 -6.32,-21.44 -18.35,-21.44c-7.22,0 -12.13,3.91 -13.94,8.92l0,-7.82l-11,0l0,55.6l11,0l0,-22.75l0,0.01Zm-0.1,-13.32c0,-7.31 4.41,-11.92 10.74,-11.92c7,0 10.63,5.11 10.63,12.83c0,7.72 -3.69,12.68 -10.7,12.68c-6.22,0 -10.74,-4.51 -10.74,-11.92l0.07,-1.67Zm-17.95,0.8c0,-12.62 -8.82,-21.44 -21.46,-21.44c-12.64,0 -21.36,8.82 -21.36,21.44c0,12.62 8.82,21.34 21.36,21.34c12.54,0 21.46,-8.72 21.46,-21.34Zm-31.69,0c0,-7.71 3.51,-13 10.24,-13c6.73,0 10.33,5.31 10.33,13c0,7.69 -3.51,13 -10.33,13c-6.82,0 -10.24,-5.41 -10.24,-13Zm-12.84,-19.74c-1.672,-1.161 -3.688,-1.725 -5.72,-1.6c-5.62,0 -9.83,4.21 -11.33,8.82l0,-7.69l-11,0l0,40.46l11,0l0,-20c0,-7.31 3.91,-11.42 9.53,-11.42c2.324,-0.083 4.623,0.507 6.62,1.7l0.9,-10.23l0,-0.04Zm-69.09,20l11.63,0c14.84,0 23.26,-7 23.26,-19c0,-12 -8.42,-18.93 -23.26,-18.93l-23.13,0l0,57.9l11.43,0l0.07,-19.97Zm0,-9.42l0,-19.3l11.33,0c8.62,0 12.43,3.51 12.43,9.73c0,6.22 -3.77,9.52 -12.5,9.52l-11.33,0l0.07,0.05Z" style="fill:rgb(3,55,89);fill-rule:nonzero;"/>        <path id="_032619ab-8ca2-413f-90cc-eee223d04b68" d="M78.09,138.06l-16.57,0l0,19.12l-16.89,0l0,-58.36l16.89,0l0,24.34l19.62,0l0,-9.16l-10.43,0l0,-14.93l7.08,0c10.52,0 19.25,9.22 19.25,19.85c0,9.92 -8.93,19.15 -18.95,19.15m27,-53.4l-71.5,0c-4.153,0.027 -7.563,3.437 -7.59,7.59l0,71.46c0.022,4.159 3.431,7.577 7.59,7.61l71.41,0c4.164,-0.038 7.581,-3.446 7.63,-7.61l0,-71.46c-0.043,-4.164 -3.466,-7.573 -7.63,-7.6" style="fill:rgb(3,108,180);fill-rule:nonzero;"/>    </g></svg>