<?xml version="1.0" encoding="UTF-8" standalone="no"?><!DOCTYPE svg PUBLIC "-//W3C//DTD SVG 1.1//EN" "http://www.w3.org/Graphics/SVG/1.1/DTD/svg11.dtd"><svg width="100%" height="100%" viewBox="0 0 1024 512" version="1.1" xmlns="http://www.w3.org/2000/svg" xmlns:xlink="http://www.w3.org/1999/xlink" xml:space="preserve" style="fill-rule:evenodd;clip-rule:evenodd;stroke-linejoin:round;stroke-miterlimit:2;"><title>BaFin</title><desc></desc>    <g transform="matrix(3.91984,0,0,3.91984,-1494.96,-61.9028)">        <g transform="matrix(1,0,0,-1,-2461.97,161.996)">            <path d="M2929.61,55.402l0,1.801c1.59,0.422 2.539,0.852 3.071,1.383c0.527,0.527 0.847,1.156 1.058,2.117c0.211,0.852 0.211,2.223 0.211,4.133l0,32.328c0,1.699 -0.101,2.969 -0.211,3.711c-0.109,0.738 -0.32,1.379 -0.64,1.801c-0.309,0.429 -0.629,0.738 -1.161,1.058c-0.429,0.211 -1.269,0.532 -2.437,0.848l0,2.012l20.457,0c3.922,0 7.203,-0.418 9.543,-1.27c2.43,-0.851 4.238,-2.121 5.398,-3.711c1.172,-1.59 1.801,-3.808 1.801,-6.461c0,-2.117 -0.422,-4.027 -1.269,-5.617c-0.852,-1.59 -1.911,-2.973 -3.282,-3.922c-1.379,-1.058 -3.078,-2.019 -5.199,-2.969l0,-0.32c3.391,-1.058 5.938,-2.648 7.738,-4.769c1.7,-2.122 2.653,-4.661 2.653,-7.629c0,-3.391 -0.742,-6.153 -2.231,-8.274c-1.48,-2.117 -3.601,-3.707 -6.359,-4.66c-2.75,-0.957 -6.043,-1.488 -9.852,-1.488l-19.289,0l0,-0.102Zm17.91,28.192c3.821,0 6.68,0.961 8.688,2.761c2.012,1.797 2.973,4.45 2.973,7.95c0,1.687 -0.321,3.179 -0.852,4.238c-0.531,1.16 -1.379,2.012 -2.328,2.75c-0.953,0.64 -2.121,1.172 -3.5,1.492c-1.383,0.32 -2.75,0.418 -4.34,0.418c-0.961,0 -2.23,0 -3.711,-0.098c-1.59,0 -2.762,-0.113 -3.5,-0.113l0,-19.398l6.57,0Zm-6.57,-24.59c1.801,-0.211 3.809,-0.211 6.149,-0.211c3.281,0 5.832,0.422 7.628,1.269c1.801,0.852 3.071,2.024 3.922,3.614c0.852,1.59 1.161,3.597 1.161,6.039c0,2.437 -0.422,4.449 -1.372,6.039c-0.847,1.59 -2.23,2.762 -4.14,3.5c-1.797,0.738 -4.34,1.16 -7.629,1.16l-5.828,0l0,-21.41l0.109,0Z"/>        </g>        <g transform="matrix(1,0,0,-1,-2461.97,177.254)">            <path d="M2995.22,76.063l-0.527,0.109c-2.122,-2.231 -4.243,-3.82 -6.141,-4.66c-1.91,-0.961 -3.93,-1.379 -6.051,-1.379c-1.898,0 -3.598,0.32 -4.98,1.058c-1.481,0.743 -2.539,1.801 -3.278,3.071c-0.75,1.379 -1.172,2.859 -1.172,4.672c0,3.597 1.801,6.457 5.411,8.476c3.601,2.012 9.011,3.184 16.211,3.492l0,2.442c0,2.547 -0.211,4.668 -0.743,6.148c-0.527,1.481 -1.269,2.539 -2.328,3.289c-1.058,0.743 -2.539,1.063 -4.351,1.063c-1.899,0 -3.489,-0.531 -4.661,-1.492c-1.167,-1.059 -2.117,-2.539 -2.648,-4.559l-4.879,0l0,4.668c2.438,1.27 4.348,2.121 6.047,2.75c1.59,0.641 3.184,1.063 4.773,1.383c1.59,0.316 3.18,0.527 4.868,0.527c2.441,0 4.449,-0.418 5.941,-1.16c1.481,-0.75 2.648,-2.02 3.391,-3.609c0.738,-1.59 1.16,-4.032 1.16,-7.309l0,-13.043l0,-3.918c0,-0.738 0.109,-1.488 0.219,-2.121c0.101,-0.641 0.308,-1.168 0.531,-1.59c0.207,-0.43 0.629,-0.738 1.058,-0.961c0.422,-0.207 1.27,-0.527 2.332,-0.84l0,-1.91l-10.281,0l0.098,5.403Zm-0.629,11.66c-5.09,0 -8.91,-0.742 -11.34,-2.012c-2.551,-1.27 -3.82,-3.289 -3.82,-5.828c0,-1.383 0.32,-2.539 0.851,-3.391c0.532,-0.851 1.27,-1.379 2.121,-1.699c0.848,-0.32 1.911,-0.422 3.067,-0.422c1.703,0 3.293,0.422 4.672,1.27c1.371,0.851 2.429,1.91 3.281,3.179c0.738,1.274 1.168,2.543 1.168,3.821l0,5.082Z"/>        </g>        <g transform="matrix(1,0,0,-1,-2461.97,161.996)">            <path d="M3043.76,106.594l0,-11.34l-3.707,0c-0.532,1.699 -1.063,3.078 -1.59,4.14c-0.531,1.059 -1.063,1.801 -1.59,2.43c-0.531,0.531 -1.16,0.961 -2.012,1.168c-0.738,0.211 -1.699,0.32 -2.968,0.32l-10.922,0l0,-20.347l7.742,0c1.058,0 1.91,0.211 2.547,0.527c0.633,0.32 1.16,0.953 1.59,1.801c0.421,0.851 0.843,2.121 1.16,3.922l3.5,0l0,-15.789l-3.5,0c-0.418,1.687 -0.739,2.968 -1.16,3.808c-0.43,0.852 -0.957,1.489 -1.489,1.809c-0.629,0.312 -1.48,0.531 -2.648,0.531l-7.742,0l0,-14.629c0,-1.492 0.109,-2.652 0.222,-3.609c0.207,-0.844 0.418,-1.594 0.84,-2.121c0.43,-0.532 0.957,-0.949 1.59,-1.16c0.637,-0.211 1.488,-0.532 2.547,-0.743l0,-1.91l-16.637,0l0,1.801c1.59,0.422 2.539,0.852 3.067,1.383c0.531,0.527 0.851,1.156 1.062,2.117c0.211,0.852 0.211,2.223 0.211,4.133l0,32.328c0,1.699 -0.102,2.969 -0.211,3.711c-0.109,0.738 -0.32,1.379 -0.641,1.801c-0.308,0.429 -0.628,0.738 -1.16,1.058c-0.429,0.211 -1.269,0.532 -2.441,0.848l0,2.012l34.34,0Z"/>        </g>        <g transform="matrix(1,0,0,-1,-2461.97,162.735)">            <path d="M3047.8,58.051c0.953,0.313 1.691,0.532 2.121,0.743c0.422,0.211 0.742,0.531 1.059,0.949c0.312,0.429 0.531,1.058 0.632,1.801c0.207,0.847 0.207,2.121 0.207,3.82l0,16.43c0,1.589 0,2.859 -0.097,3.82c0,0.949 -0.211,1.801 -0.531,2.328c-0.321,0.633 -0.739,1.063 -1.379,1.27c-0.641,0.32 -1.481,0.531 -2.649,0.742l0,2.019l8.688,0.309l2.332,0l0,-26.707c0,-2.121 0.109,-3.602 0.32,-4.453c0.207,-0.848 0.527,-1.481 1.168,-1.91c0.531,-0.418 1.48,-0.848 2.75,-1.161l0,-1.91l-14.621,0l0,1.91Zm10.703,48.543l0,-7.312l-6.891,0l0,7.312l6.891,0Z"/>        </g>        <g transform="matrix(1,0,0,-1,-2461.97,176.824)">            <path d="M3104.07,70.23l-14.73,0l0,1.801c0.953,0.32 1.703,0.531 2.121,0.742c0.422,0.207 0.742,0.528 1.058,0.957c0.321,0.422 0.532,1.063 0.641,1.801c0.211,0.852 0.211,2.121 0.211,3.813l0,9.968c0,1.692 0,3.282 -0.109,4.77c-0.102,1.379 -0.321,2.539 -0.532,3.5c-0.211,0.949 -0.527,1.59 -0.847,2.121c-0.313,0.527 -0.742,0.949 -1.16,1.269c-0.43,0.321 -0.961,0.629 -1.59,0.848c-0.641,0.211 -1.383,0.313 -2.332,0.313c-0.961,0 -1.91,-0.211 -2.758,-0.532c-0.852,-0.418 -1.801,-1.058 -2.863,-2.007c-1.059,-0.954 -1.797,-1.911 -2.329,-2.762c-0.429,-0.949 -0.75,-2.012 -0.75,-3.18l0,-13.988c0,-2.121 0.11,-3.602 0.321,-4.453c0.211,-0.848 0.531,-1.481 1.168,-1.91c0.531,-0.418 1.48,-0.848 2.75,-1.161l0,-1.91l-14.617,0l0,1.801c0.949,0.32 1.687,0.531 2.117,0.742c0.422,0.207 0.742,0.528 1.062,0.957c0.309,0.422 0.528,1.063 0.629,1.801c0.211,0.852 0.211,2.121 0.211,3.813l0,16.539c0,1.589 0,2.859 -0.101,3.82c0,0.949 -0.211,1.801 -0.528,2.328c-0.32,0.633 -0.742,1.063 -1.383,1.27c-0.64,0.32 -1.48,0.531 -2.648,0.742l0,2.019l8.801,0.309l2.328,0l-0.418,-6.141l0.527,-0.109c1.801,1.91 3.281,3.18 4.449,4.031c1.161,0.852 2.332,1.379 3.391,1.801c1.063,0.418 2.441,0.641 3.711,0.641c1.379,0 2.539,-0.114 3.602,-0.43c1.058,-0.32 2.019,-0.742 2.757,-1.481c0.852,-0.64 1.481,-1.492 2.012,-2.441c0.527,-0.949 0.961,-2.121 1.168,-3.5c0.211,-1.379 0.422,-3.07 0.422,-5.09l0,-14.09c0,-1.699 0,-2.968 0.109,-3.711c0.102,-0.75 0.321,-1.379 0.532,-1.808c0.207,-0.422 0.628,-0.742 1.058,-1.063c0.422,-0.308 1.27,-0.629 2.442,-0.949l0,-1.801l0.097,0Z"/>        </g>        <g transform="matrix(1,0,0,-1,-2461.97,128.918)">            <path d="M2869.3,63.023c5.832,-6.25 13.141,-6.039 13.781,-6.039c5.09,0 8.688,1.7 12.188,4.559c-1.168,-0.207 -3.918,-0.316 -5.618,-0.109c-1.91,-0.95 -4.031,-1.481 -6.57,-1.481c-4.351,0 -8.59,1.91 -11.562,5.192c-4.868,4.769 -9.317,7 -15.578,7c-3.489,0 -7.629,-1.059 -12.079,-4.668l0,-3.922c2.649,2.55 6.887,5.621 12.079,5.621c4.558,0 8.378,-1.172 13.359,-6.153Z" style="fill:rgb(173,34,48);"/>        </g>        <g transform="matrix(1,0,0,-1,-2461.97,154.777)">            <path d="M2869.3,75.953c5.832,-6.25 13.141,-6.039 13.781,-6.039c5.09,0 8.688,1.699 12.188,4.558c-1.168,-0.211 -3.918,-0.32 -5.618,-0.109c-1.91,-0.949 -4.031,-1.481 -6.57,-1.481c-4.351,0 -8.59,1.911 -11.562,5.192c-4.758,4.879 -9.219,7 -15.578,7c-3.489,0 -7.629,-1.063 -12.079,-4.672l0,-3.922c2.649,2.551 6.887,5.621 12.079,5.621c4.558,-0.109 8.378,-1.269 13.359,-6.148Z" style="fill:rgb(173,34,48);"/>        </g>        <g transform="matrix(1,0,0,-1,-2461.97,180.855)">            <path d="M2869.3,88.992c5.832,-6.25 13.141,-6.039 13.781,-6.039c5.09,0 8.688,1.699 12.188,4.558c-1.168,-0.207 -3.918,-0.32 -5.618,-0.109c-1.91,-0.949 -4.031,-1.481 -6.57,-1.481c-4.351,0 -8.59,1.911 -11.562,5.192c-4.758,4.879 -9.219,7 -15.578,7c-3.489,0 -7.629,-1.059 -12.079,-4.672l0,-3.918c2.649,2.551 6.887,5.621 12.079,5.621c4.558,0 8.378,-1.172 13.359,-6.152Z" style="fill:rgb(173,34,48);"/>        </g>        <g transform="matrix(1,0,0,-1,-2461.97,206.929)">            <path d="M2889.65,100.441c-1.91,-0.953 -4.031,-1.481 -6.57,-1.481c-4.351,0 -8.59,1.91 -11.562,5.188c-4.758,4.883 -9.219,7 -15.578,7c-3.489,0 -7.629,-1.059 -12.079,-4.668l0,-3.922c2.649,2.551 6.887,5.621 12.079,5.621c4.558,0 8.48,-1.168 13.468,-6.148c5.821,-6.25 13.141,-6.043 13.77,-6.043c5.09,0 8.703,1.703 12.191,4.562c-1.269,-0.211 -4.019,-0.32 -5.719,-0.109Z" style="fill:rgb(173,34,48);"/>        </g>        <g transform="matrix(-0.0728159,-0.997345,0.997345,-0.0728159,541.14,2924.47)">            <path d="M2859.18,58.215c0.181,1.928 0.058,3.615 -0.319,5.71c0.695,2.178 1.674,4.807 0.319,10.234c0.677,-0.483 2.834,-2.452 3.667,-3.562c0.464,-4.961 -1.733,-9.793 -3.667,-12.382Z" style="fill:rgb(237,209,35);"/>        </g>        <g transform="matrix(1,0,0,-1,-2461.97,117.683)">            <path d="M2891.98,54.339c-4.872,0 -8.899,2.328 -11.551,5.09c-4.981,4.977 -9.43,6.988 -15.578,6.988c-4.141,0.11 -8.16,-1.379 -11.981,-4.449c1.801,0.32 4.031,0.32 5.719,0.11c2.019,0.949 4.141,1.48 6.262,1.48c5.3,0 9.109,-1.699 13.461,-6.152c5.718,-6.25 13.136,-6.039 13.57,-6.039c5.398,0 9.219,2.011 11.969,4.128l0,3.934c-2.75,-2.551 -6.25,-5.09 -11.871,-5.09Z" style="fill:rgb(237,209,35);"/>        </g>        <g transform="matrix(1,0,0,-1,-2461.97,150.441)">            <path d="M2891.98,74.168c-5.082,0 -8.692,2.75 -8.899,2.859c-1.801,0 -3.601,0.32 -5.301,0.738c5.188,-5.719 10.918,-6.57 14.2,-6.57c5.519,0 9.121,2.012 11.98,4.242l0,3.809c-2.223,-1.899 -5.93,-5.078 -11.98,-5.078Z" style="fill:rgb(237,209,35);"/>        </g>        <g transform="matrix(-0.0727535,-0.99735,0.99735,-0.0727535,528.062,2938.36)">            <path d="M2859.18,71.149c0.18,1.928 0.057,3.614 -0.316,5.71c0.692,2.178 1.675,4.806 0.316,10.234c0.678,-0.483 2.838,-2.452 3.671,-3.563c0.46,-4.96 -1.842,-9.801 -3.671,-12.381Z" style="fill:rgb(237,209,35);"/>        </g>        <g transform="matrix(-0.0727535,-0.99735,0.99735,-0.0727535,515.061,2952.34)">            <path d="M2859.18,84.184c0.18,1.928 0.057,3.614 -0.32,5.709c0.696,2.179 1.675,4.807 0.32,10.235c0.674,-0.483 2.834,-2.453 3.667,-3.563c0.464,-4.96 -1.734,-9.793 -3.667,-12.381Z" style="fill:rgb(237,209,35);"/>        </g>        <g transform="matrix(1,0,0,-1,-2461.97,176.301)">            <path d="M2891.98,87.094c-5.082,0 -8.692,2.75 -8.899,2.859c-1.801,0 -3.601,0.321 -5.301,0.743c5.188,-5.723 10.918,-6.571 14.2,-6.571c5.519,0 9.121,2.008 11.98,4.238l0,3.813c-2.223,-2.012 -5.93,-5.082 -11.98,-5.082Z" style="fill:rgb(237,209,35);"/>        </g>        <g transform="matrix(1,0,0,-1,-2461.97,202.379)">            <path d="M2891.98,100.137c-5.082,0 -8.692,2.75 -8.899,2.859c-1.801,0 -3.601,0.32 -5.301,0.738c5.188,-5.718 10.918,-6.57 14.2,-6.57c5.519,0 9.121,2.012 11.98,4.242l0,3.809c-2.223,-1.899 -5.93,-5.078 -11.98,-5.078Z" style="fill:rgb(237,209,35);"/>        </g>    </g></svg>