<?xml version="1.0" encoding="UTF-8" standalone="no"?><!DOCTYPE svg PUBLIC "-//W3C//DTD SVG 1.1//EN" "http://www.w3.org/Graphics/SVG/1.1/DTD/svg11.dtd"><svg width="100%" height="100%" viewBox="0 0 1024 512" version="1.1" xmlns="http://www.w3.org/2000/svg" xmlns:xlink="http://www.w3.org/1999/xlink" xml:space="preserve" style="fill-rule:evenodd;clip-rule:evenodd;stroke-linejoin:round;stroke-miterlimit:2;"><title>Loanboox</title><desc>The independent debt capital market platform. Only verified organisations can access the platform.In contrast to conventional brokering, financing and investing via Loanboox is simple, transparent, safe and low cost, benefiting both borrowers and investors alike.</desc>    <g transform="matrix(5.64292,0,0,5.64292,-14.5485,148.435)">        <g transform="matrix(48.048,0,0,48.048,0,36.5052)">            <path d="M0.214,-0.169c0,0.021 0.005,0.037 0.015,0.048c0.011,0.011 0.024,0.016 0.041,0.016c0.008,0 0.017,-0.001 0.025,-0.002c0.009,-0.002 0.017,-0.004 0.026,-0.005l0,0.108c-0.019,0.005 -0.038,0.009 -0.059,0.012c-0.021,0.003 -0.042,0.005 -0.065,0.005c-0.02,0 -0.039,-0.004 -0.056,-0.011c-0.016,-0.006 -0.031,-0.016 -0.043,-0.029c-0.011,-0.013 -0.021,-0.029 -0.027,-0.047c-0.007,-0.018 -0.01,-0.038 -0.01,-0.061l0,-0.605l0.153,0l0,0.571Z" style="fill:rgb(51,141,196);fill-rule:nonzero;"/>        </g>        <g transform="matrix(48.048,0,0,48.048,10.4449,36.5052)">            <path d="M0.303,0.012c-0.083,0 -0.149,-0.023 -0.196,-0.07c-0.048,-0.047 -0.072,-0.11 -0.072,-0.19c0,-0.083 0.025,-0.147 0.074,-0.194c0.05,-0.047 0.117,-0.07 0.201,-0.07c0.083,0 0.148,0.023 0.195,0.07c0.048,0.047 0.071,0.108 0.071,0.185c0,0.083 -0.024,0.149 -0.073,0.197c-0.048,0.048 -0.115,0.072 -0.2,0.072Zm0.004,-0.406c-0.036,0 -0.065,0.012 -0.085,0.038c-0.02,0.025 -0.03,0.06 -0.03,0.106c0,0.096 0.039,0.144 0.116,0.144c0.074,0 0.111,-0.049 0.111,-0.148c0,-0.093 -0.037,-0.14 -0.112,-0.14Z" style="fill:rgb(51,141,196);fill-rule:nonzero;"/>        </g>        <g transform="matrix(48.048,0,0,48.048,34.3797,36.5052)">            <path d="M0.481,0l-0.146,0l0,-0.072l-0.002,0c-0.034,0.056 -0.083,0.084 -0.149,0.084c-0.048,0 -0.087,-0.014 -0.114,-0.041c-0.028,-0.028 -0.042,-0.064 -0.042,-0.11c0,-0.097 0.057,-0.153 0.172,-0.168l0.136,-0.018c0,-0.055 -0.03,-0.082 -0.089,-0.082c-0.059,0 -0.116,0.018 -0.17,0.053l0,-0.116c0.022,-0.011 0.051,-0.021 0.088,-0.03c0.038,-0.008 0.071,-0.012 0.102,-0.012c0.143,0 0.214,0.071 0.214,0.213l0,0.299Zm-0.145,-0.203l0,-0.034l-0.091,0.012c-0.05,0.006 -0.075,0.029 -0.075,0.068c0,0.017 0.006,0.032 0.018,0.043c0.012,0.011 0.029,0.017 0.05,0.017c0.029,0 0.052,-0.01 0.071,-0.03c0.018,-0.02 0.027,-0.046 0.027,-0.076Z" style="fill:rgb(51,141,196);fill-rule:nonzero;"/>        </g>        <g transform="matrix(48.048,0,0,48.048,55.2647,36.5052)">            <path d="M0.548,0l-0.154,0l0,-0.278c0,-0.077 -0.028,-0.116 -0.083,-0.116c-0.027,0 -0.049,0.01 -0.066,0.031c-0.017,0.02 -0.026,0.046 -0.026,0.078l0,0.285l-0.154,0l0,-0.5l0.154,0l0,0.079l0.002,0c0.037,-0.061 0.091,-0.091 0.161,-0.091c0.111,0 0.166,0.068 0.166,0.206l0,0.306Z" style="fill:rgb(51,141,196);fill-rule:nonzero;"/>        </g>        <g transform="matrix(48.048,0,0,48.048,79.3638,36.5052)">            <path d="M0.221,-0.058l-0.002,0l0,0.058l-0.154,0l0,-0.74l0.154,0l0,0.315l0.002,0c0.038,-0.058 0.092,-0.087 0.163,-0.087c0.064,0 0.114,0.022 0.149,0.066c0.035,0.044 0.052,0.105 0.052,0.182c0,0.083 -0.02,0.15 -0.061,0.201c-0.041,0.05 -0.095,0.075 -0.163,0.075c-0.062,0 -0.108,-0.023 -0.14,-0.07Zm-0.004,-0.211l0,0.051c0,0.032 0.009,0.059 0.028,0.08c0.018,0.021 0.042,0.032 0.071,0.032c0.035,0 0.062,-0.014 0.082,-0.041c0.019,-0.027 0.029,-0.065 0.029,-0.115c0,-0.042 -0.009,-0.074 -0.027,-0.097c-0.018,-0.023 -0.043,-0.035 -0.076,-0.035c-0.031,0 -0.056,0.012 -0.077,0.035c-0.02,0.023 -0.03,0.053 -0.03,0.09Z" style="fill:rgb(51,141,196);fill-rule:nonzero;"/>        </g>        <g transform="matrix(48.048,0,0,48.048,104.19,36.5052)">            <path d="M0.303,0.012c-0.083,0 -0.149,-0.023 -0.196,-0.07c-0.048,-0.047 -0.072,-0.11 -0.072,-0.19c0,-0.083 0.025,-0.147 0.074,-0.194c0.05,-0.047 0.117,-0.07 0.201,-0.07c0.083,0 0.148,0.023 0.195,0.07c0.048,0.047 0.071,0.108 0.071,0.185c0,0.083 -0.024,0.149 -0.073,0.197c-0.048,0.048 -0.115,0.072 -0.2,0.072Zm0.004,-0.406c-0.036,0 -0.065,0.012 -0.085,0.038c-0.02,0.025 -0.03,0.06 -0.03,0.106c0,0.096 0.039,0.144 0.116,0.144c0.074,0 0.111,-0.049 0.111,-0.148c0,-0.093 -0.037,-0.14 -0.112,-0.14Z" style="fill:rgb(51,141,196);fill-rule:nonzero;"/>        </g>        <g transform="matrix(48.048,0,0,48.048,128.594,36.5052)">            <path d="M0.303,0.012c-0.083,0 -0.149,-0.023 -0.196,-0.07c-0.048,-0.047 -0.072,-0.11 -0.072,-0.19c0,-0.083 0.025,-0.147 0.074,-0.194c0.05,-0.047 0.117,-0.07 0.201,-0.07c0.083,0 0.148,0.023 0.195,0.07c0.048,0.047 0.071,0.108 0.071,0.185c0,0.083 -0.024,0.149 -0.073,0.197c-0.048,0.048 -0.115,0.072 -0.2,0.072Zm0.004,-0.406c-0.036,0 -0.065,0.012 -0.085,0.038c-0.02,0.025 -0.03,0.06 -0.03,0.106c0,0.096 0.039,0.144 0.116,0.144c0.074,0 0.111,-0.049 0.111,-0.148c0,-0.093 -0.037,-0.14 -0.112,-0.14Z" style="fill:rgb(51,141,196);fill-rule:nonzero;"/>        </g>        <g transform="matrix(48.048,0,0,48.048,152.037,36.5052)">            <path d="M0.548,-0.5l-0.165,0.242l0.164,0.258l-0.178,0l-0.072,-0.135c-0.006,-0.011 -0.013,-0.026 -0.021,-0.045l-0.002,0c-0.005,0.013 -0.012,0.028 -0.02,0.044l-0.073,0.136l-0.177,0l0.169,-0.249l-0.159,-0.251l0.179,0l0.071,0.14c0.01,0.019 0.016,0.034 0.02,0.047l0.002,0c0.005,-0.015 0.012,-0.031 0.021,-0.048l0.073,-0.139l0.168,0Z" style="fill:rgb(51,141,196);fill-rule:nonzero;"/>        </g>        <g transform="matrix(48.048,0,0,48.048,173.602,36.5052)">            <path d="M0.065,-0.061c0,-0.024 0.006,-0.042 0.018,-0.055c0.013,-0.012 0.031,-0.019 0.054,-0.019c0.024,0 0.042,0.007 0.054,0.02c0.013,0.013 0.019,0.031 0.019,0.054c0,0.023 -0.006,0.041 -0.019,0.055c-0.012,0.013 -0.03,0.02 -0.054,0.02c-0.023,0 -0.041,-0.007 -0.054,-0.02c-0.012,-0.013 -0.018,-0.032 -0.018,-0.055Z" style="fill:rgb(51,141,196);fill-rule:nonzero;"/>        </g>    </g></svg>