<?xml version="1.0" encoding="UTF-8" standalone="no"?><!DOCTYPE svg PUBLIC "-//W3C//DTD SVG 1.1//EN" "http://www.w3.org/Graphics/SVG/1.1/DTD/svg11.dtd"><svg width="100%" height="100%" viewBox="0 0 1024 512" version="1.1" xmlns="http://www.w3.org/2000/svg" xmlns:xlink="http://www.w3.org/1999/xlink" xml:space="preserve" style="fill-rule:evenodd;clip-rule:evenodd;stroke-linejoin:round;stroke-miterlimit:2;"><title>My Capital Immo</title><desc>My Capital Immo, a crowdfunding platform specializing in real estate, is a brand of Happy Capital, a crowdfunding platform for investing in the capital of SMEs. A team of finance and real estate experts ensures you an optimal selection of real estate projects.</desc>    <g transform="matrix(4.17847,0,0,4.17847,-9.85567,211.095)">        <g transform="matrix(1.9721,0,0,1,-61.157,9.19303)">            <g transform="matrix(0.507074,0,0,1,31.0111,-23.0691)">                <path d="M66.329,27.65l-0.18,-0.248l-2.757,0l0,13.7l3.227,0l0,-7.785c0,0 4.307,5.926 4.307,5.926l4.285,-5.92c0,0 0,7.779 0,7.779l3.227,0l0,-13.7l-2.757,0l-4.757,6.585c0,-0 -4.595,-6.337 -4.595,-6.337Z" style="fill:rgb(58,58,60);fill-rule:nonzero;"/>            </g>            <g transform="matrix(0.507074,0,0,1,31.2089,-23.0691)">                <path d="M85.092,35.681l-0,5.421l3.227,0l-0,-5.421c-0,0 5.825,-8.279 5.825,-8.279l-3.646,0l-3.797,5.234c0,-0 -3.787,-5.234 -3.787,-5.234l-3.637,0l5.815,8.279Z" style="fill:rgb(58,58,60);fill-rule:nonzero;"/>            </g>            <g transform="matrix(0.422068,0,0,1,40.3646,-23.1439)">                <path d="M116.702,38.608l-2.542,-1.819l-0.348,0.247c-1.287,0.912 -2.626,1.374 -4.021,1.374c-1.492,0 -2.771,-0.416 -3.832,-1.26c-1.006,-0.8 -1.522,-1.761 -1.522,-2.898c0,-1.132 0.517,-2.09 1.522,-2.89c1.061,-0.844 2.34,-1.26 3.832,-1.26c1.395,0 2.734,0.463 4.021,1.374l0.351,0.249l2.534,-1.839l-0.668,-0.486c-1.964,-1.43 -4.045,-2.138 -6.238,-2.138c-2.361,-0 -4.371,0.673 -6.035,2.006c-1.72,1.378 -2.565,3.044 -2.565,4.984c-0,1.946 0.846,3.613 2.566,4.985c1.664,1.327 3.674,1.998 6.034,1.998c2.193,0 4.274,-0.709 6.238,-2.138l0.673,-0.489Z" style="fill:rgb(58,58,60);fill-rule:nonzero;"/>            </g>            <g transform="matrix(0.507074,0,0,1,31.691,-23.0691)">                <path d="M130.172,41.102l-6.247,-13.7l-1.868,0l-6.246,13.7l3.483,0l2.008,-4.422c-0,0 3.379,0 3.379,0c0,0 2.017,4.422 2.017,4.422l3.474,0Zm-6.774,-7.239l-0.807,0c0,0 0.402,-0.884 0.402,-0.884l0.405,0.884Z" style="fill:rgb(58,58,60);fill-rule:nonzero;"/>            </g>            <g transform="matrix(0.507074,0,0,1,32.6458,-23.2046)">                <path d="M133.824,37.102l1.251,0c1.616,0 2.993,-0.463 4.135,-1.377c1.197,-0.958 1.782,-2.123 1.782,-3.481c0,-1.345 -0.584,-2.506 -1.781,-3.467l-0.001,-0.001c-0.954,-0.761 -2.12,-1.222 -3.503,-1.37l-0.032,-0.004l-5.078,0l0,13.7l3.227,0l0,-4Zm0,-6.875l1.251,0c0.755,0 1.404,0.208 1.943,0.636c0.482,0.383 0.737,0.838 0.737,1.381c0,0.549 -0.255,1.009 -0.739,1.395c-0.538,0.429 -1.187,0.638 -1.941,0.638c-0,0 -1.251,0 -1.251,0l0,-4.05Z" style="fill:rgb(58,58,60);fill-rule:nonzero;"/>            </g>            <g transform="matrix(0.507074,0,0,1,33.2491,-23.2353)">                <path d="M145.232,41.102l0,-13.7l-3.227,0l0,13.7l3.227,0Z" style="fill:rgb(58,58,60);fill-rule:nonzero;"/>            </g>            <g transform="matrix(0.507074,0,0,1,34.0634,-23.2204)">                <path d="M153.086,30.219l3.652,0l0,-2.817l-10.542,0l0,2.817l3.653,0c-0,0 -0,10.883 -0,10.883l3.237,0l-0,-10.883Z" style="fill:rgb(58,58,60);fill-rule:nonzero;"/>            </g>            <g transform="matrix(0.507074,0,0,1,35.4125,-23.1592)">                <path d="M169.831,41.102l-6.247,-13.7l-1.868,0l-6.246,13.7l3.483,0l2.008,-4.422c-0,0 3.379,0 3.379,0c0,0 2.017,4.422 2.017,4.422l3.474,0Zm-6.774,-7.239l-0.807,0c0,0 0.402,-0.884 0.402,-0.884l0.405,0.884Z" style="fill:rgb(58,58,60);fill-rule:nonzero;"/>            </g>            <g transform="matrix(0.507074,0,0,1,36.1484,-23.0662)">                <path d="M170.256,27.402l0,13.7l8.828,0l0,-2.825l-5.601,0c0,0 0,-10.875 0,-10.875l-3.227,0Z" style="fill:rgb(58,58,60);fill-rule:nonzero;"/>            </g>        </g>        <g>            <g transform="matrix(1,0,0,1,0,-13.8761)">                <path d="M2.837,44.683l5.556,-0l-0,-14.93c-0,-0 8.514,-8.515 8.514,-8.515c-0,0 3.559,0 3.559,0c-0,0 -0,23.272 -0,23.272l6.206,-0l-0,-1.2l-5.006,-0c-0,-0 -0,-23.272 -0,-23.272l-5.256,0l-9.217,9.218l-0,14.227c-0,-0 -4.356,-0 -4.356,-0l0,1.2Z" style="fill:rgb(156,134,66);"/>            </g>            <g transform="matrix(1,0,0,1,0,-13.8761)">                <path d="M14.261,44.621l4.339,-0l0,-38.56c0,0 9.671,9.671 9.671,9.671l3.881,0c-0,0 -0,28.712 -0,28.712l5.051,-0l0,-1.2l-3.851,-0c-0,-0 -0,-28.712 -0,-28.712l-4.584,0c0,0 -10.343,-10.344 -10.343,-10.344l-1.025,0.425l0,38.808c0,-0 -3.139,-0 -3.139,-0l-0,1.2Z" style="fill:rgb(156,134,66);"/>            </g>            <g transform="matrix(1,0,0,1,0,-13.8761)">                <path d="M30.219,44.24l-0,-12.503c-0,0 8.89,-6.852 8.89,-6.852c-0,0 9.778,6.843 9.778,6.843c0,-0 0,13.329 0,13.329l5.715,0l0,-1.2l-4.515,0c0,0 0,-12.754 0,-12.754l-11.013,-7.706l-10.055,7.75l-0,13.093l1.2,0Z" style="fill:rgb(156,134,66);"/>            </g>        </g>        <g transform="matrix(1.73811,0,0,1.10471,82.1748,8.4831)">            <g transform="matrix(10.1692,0,0,16,62.4718,17.4253)">                <rect x="0.083" y="-0.781" width="0.044" height="0.781" style="fill:rgb(156,134,66);fill-rule:nonzero;"/>            </g>            <g transform="matrix(13.4569,0,0,16,64.7501,17.1618)">                <path d="M0.124,-0.781l0.293,0.338l0.293,-0.338l0.05,-0l-0.002,0.003l0,0.778l-0.044,-0l0,-0.702l-0.297,0.345l-0.298,-0.345l0,0.702l-0.044,-0l0,-0.778l-0.002,-0.003l0.051,-0Z" style="fill:rgb(156,134,66);fill-rule:nonzero;"/>            </g>            <g transform="matrix(13.4569,0,0,16,75.2251,17.2546)">                <path d="M0.124,-0.781l0.293,0.338l0.293,-0.338l0.05,-0l-0.002,0.003l0,0.778l-0.044,-0l0,-0.702l-0.297,0.345l-0.298,-0.345l0,0.702l-0.044,-0l0,-0.778l-0.002,-0.003l0.051,-0Z" style="fill:rgb(156,134,66);fill-rule:nonzero;"/>            </g>            <g transform="matrix(10.1692,0,0,16,86.0248,17.165)">                <path d="M0.462,-0.792c0.111,-0 0.205,0.039 0.283,0.117c0.079,0.078 0.118,0.173 0.118,0.283c-0,0.111 -0.039,0.206 -0.118,0.284c-0.078,0.078 -0.172,0.117 -0.283,0.117c-0.111,0 -0.205,-0.039 -0.284,-0.117c-0.078,-0.078 -0.117,-0.173 -0.117,-0.284c0,-0.11 0.039,-0.205 0.117,-0.283c0.079,-0.078 0.173,-0.117 0.284,-0.117Zm-0,0.044c-0.098,0 -0.182,0.035 -0.252,0.105c-0.069,0.069 -0.104,0.153 -0.104,0.251c-0,0.099 0.035,0.183 0.104,0.252c0.07,0.07 0.154,0.105 0.252,0.105c0.098,-0 0.182,-0.035 0.252,-0.105c0.069,-0.069 0.104,-0.153 0.104,-0.252c-0,-0.098 -0.035,-0.182 -0.104,-0.251c-0.07,-0.07 -0.154,-0.105 -0.252,-0.105Z" style="fill:rgb(156,134,66);fill-rule:nonzero;"/>            </g>        </g>    </g></svg>