<?xml version="1.0" encoding="UTF-8" standalone="no"?><!DOCTYPE svg PUBLIC "-//W3C//DTD SVG 1.1//EN" "http://www.w3.org/Graphics/SVG/1.1/DTD/svg11.dtd"><svg width="100%" height="100%" viewBox="0 0 1024 512" version="1.1" xmlns="http://www.w3.org/2000/svg" xmlns:xlink="http://www.w3.org/1999/xlink" xml:space="preserve" style="fill-rule:evenodd;clip-rule:evenodd;stroke-linejoin:round;stroke-miterlimit:2;"><title>SME Capital</title><desc>SME Capital was founded to support the growing number of SMEs who face difficulty or frustration in accessing capital through traditional methods. We understand the importance of real and trusted relationships in the lending market and have dedicated regional directors based across the UK. Unlike other lenders we cater to businesses with strong cash flows rather than focusing on the asset base.</desc>    <g transform="matrix(5.36422,0,0,5.36422,-351.28,-3947.96)">        <g transform="matrix(1,0,0,1,94.7349,780.068)">            <path d="M0,10.866c0,0 2.056,1.666 4.723,1.666c1.779,0 3.335,-0.833 3.335,-2.39c0,-3.806 -8.558,-3.639 -8.558,-9.252c0,-2.778 2.25,-5.057 6.196,-5.057c2.501,0 4.863,0.834 4.863,0.834l-0.584,2.612c0,0 -2.112,-0.945 -4.307,-0.945c-1.834,0 -3.278,0.778 -3.278,2.251c0,3.862 8.557,3.473 8.557,9.336c0,3.306 -2.834,5.112 -6.251,5.112c-3.279,0 -5.502,-1.556 -5.502,-1.556l0.806,-2.611Z" style="fill:rgb(17,19,31);fill-rule:nonzero;"/>        </g>        <g transform="matrix(1,0,0,1,109.823,794.768)">            <path d="M0,-18.533l4.112,0l5.085,14.254l5.14,-14.254l4.085,0l0.667,18.533l-2.779,0l-0.555,-15.171l-5.586,15.171l-2,0l-5.585,-15.282l-0.472,15.282l-2.779,0l0.667,-18.533Z" style="fill:rgb(17,19,31);fill-rule:nonzero;"/>        </g>        <g transform="matrix(1,0,0,1,133.664,794.768)">            <path d="M0,-18.533l11.281,0l0,2.39l-8.419,0l0,5.501l6.641,0l0,2.418l-6.641,0l0,5.834l8.502,0l0,2.39l-11.364,0l0,-18.533Z" style="fill:rgb(17,19,31);fill-rule:nonzero;"/>        </g>        <g transform="matrix(1,0,0,1,162.867,795.102)">            <path d="M0,-19.2c3.529,0 6.029,1.611 6.029,1.611l-0.75,1.695c0,0 -2.278,-1.75 -5.473,-1.75c-5.169,0 -7.614,4.195 -7.614,8.003c0,4.278 3.085,8.085 7.725,8.085c3.112,0 5.557,-1.917 5.557,-1.917l0.75,1.389c0,0 -2.695,2.084 -6.502,2.084c-5.585,0 -9.53,-4.084 -9.53,-9.531c0,-5.335 3.806,-9.669 9.808,-9.669" style="fill:rgb(17,19,31);fill-rule:nonzero;"/>        </g>        <g transform="matrix(1,0,0,1,175.454,783.737)">            <path d="M0,3.39l6.502,0l-3.251,-8.558l-3.251,8.558Zm2.417,-11.031l1.751,0l7.169,18.672l-1.945,0l-2.306,-6.085l-7.669,0l-2.307,6.085l-1.861,0l7.168,-18.672Z" style="fill:rgb(17,19,31);fill-rule:nonzero;"/>        </g>        <g transform="matrix(1,0,0,1,194.738,785.182)">            <path d="M0,0.639c3.362,0 4.918,-1.528 4.918,-4.084c0,-2.196 -1.306,-3.974 -4.918,-3.974l-2.779,0l0,8.058l2.779,0Zm-4.613,-9.586l4.974,0c4.779,0 6.53,2.473 6.53,5.307c0,3.696 -2.64,5.807 -6.53,5.807l-3.14,0l0,7.419l-1.834,0l0,-18.533Z" style="fill:rgb(17,19,31);fill-rule:nonzero;"/>        </g>        <g transform="matrix(1,0,0,1,0,729.113)">            <rect x="205.576" y="47.122" width="1.834" height="18.533" style="fill:rgb(17,19,31);"/>        </g>        <g transform="matrix(1,0,0,1,217.468,793.24)">            <path d="M0,-15.477l-6.724,0l0,-1.528l15.421,0l0,1.528l-6.891,0l0,17.005l-1.806,0l0,-17.005Z" style="fill:rgb(17,19,31);fill-rule:nonzero;"/>        </g>        <g transform="matrix(1,0,0,1,230.445,783.737)">            <path d="M0,3.39l6.502,0l-3.251,-8.558l-3.251,8.558Zm2.417,-11.031l1.75,0l7.169,18.672l-1.944,0l-2.307,-6.085l-7.668,0l-2.307,6.085l-1.861,0l7.168,-18.672Z" style="fill:rgb(17,19,31);fill-rule:nonzero;"/>        </g>        <g transform="matrix(1,0,0,1,245.115,794.768)">            <path d="M0,-18.533l1.834,0l0,17.005l9.058,0l0,1.528l-10.892,0l0,-18.533Z" style="fill:rgb(17,19,31);fill-rule:nonzero;"/>        </g>        <g transform="matrix(1,0,0,1,84.9336,784.635)">            <path d="M0,-2.18l-4.35,-2.347l0,-7.8l-7.231,3.9l-0.001,-0.001l0,0.002l-4.35,2.347l0,7.654l-2.803,1.476l-0.34,7.096l19.518,0l-0.443,-12.327Z" style="fill:rgb(74,148,197);fill-rule:nonzero;"/>        </g>        <g transform="matrix(1,0,0,1,69.0011,776.208)">            <path d="M0,18.573l11.582,0l0,-14.668l-7.232,-3.905l0,7.709l-4.35,2.292l0,8.572Z" style="fill:rgb(34,103,167);fill-rule:nonzero;"/>        </g>        <g transform="matrix(0,-1,-1,0,84.3015,783.831)">            <path d="M-10.95,3.718l14.668,0l-3.771,7.232l-10.897,0l0,-7.232Z" style="fill:rgb(33,66,131);fill-rule:nonzero;"/>        </g>    </g></svg>