<?xml version="1.0" encoding="UTF-8" standalone="no"?><!DOCTYPE svg PUBLIC "-//W3C//DTD SVG 1.1//EN" "http://www.w3.org/Graphics/SVG/1.1/DTD/svg11.dtd"><svg width="100%" height="100%" viewBox="0 0 1024 512" version="1.1" xmlns="http://www.w3.org/2000/svg" xmlns:xlink="http://www.w3.org/1999/xlink" xml:space="preserve" style="fill-rule:evenodd;clip-rule:evenodd;stroke-linejoin:round;stroke-miterlimit:2;"><title>ReaCapital</title><desc>We are a young crowdinvesting platform from Hamburg. Since our foundation in 2015, we have always been working on making real estate investments transparent, easy and free of charge for everyone.</desc>    <g transform="matrix(1.33153,0,0,1.33153,-1971.48,-284.573)">        <g>            <g id="Blue">                <g transform="matrix(1,0,0,1,-0.248813,0.61794)">                    <path d="M1532.02,441.027c0,-1.179 -0.957,-2.137 -2.137,-2.137l-18.346,0c-1.179,0 -2.137,0.958 -2.137,2.137l0,17.75c0,1.18 0.958,2.138 2.137,2.138l18.346,0c1.18,0 2.137,-0.958 2.137,-2.138l0,-17.75Z" style="fill:rgb(0,40,52);"/>                </g>                <g transform="matrix(1,0,0,1,120.234,6.58805)">                    <path d="M1532.02,440.998c0,-1.164 -0.944,-2.108 -2.107,-2.108l-18.405,0c-1.164,0 -2.108,0.944 -2.108,2.108l0,17.809c0,1.163 0.944,2.108 2.108,2.108l18.405,0c1.163,0 2.107,-0.945 2.107,-2.108l0,-17.809Z" style="fill:rgb(0,40,52);"/>                </g>                <g transform="matrix(0.942021,0,0,0.942021,112.432,-118.982)">                    <path d="M1532.02,440.998c0,-1.164 -0.944,-2.108 -2.107,-2.108l-18.405,0c-1.164,0 -2.108,0.944 -2.108,2.108l0,17.809c0,1.163 0.944,2.108 2.108,2.108l18.405,0c1.163,0 2.107,-0.945 2.107,-2.108l0,-17.809Z" style="fill:rgb(0,40,52);"/>                </g>                <g transform="matrix(0.942021,0,0,0.942021,87.3343,-69.4394)">                    <path d="M1532.02,440.998c0,-1.164 -0.944,-2.108 -2.107,-2.108l-18.405,0c-1.164,0 -2.108,0.944 -2.108,2.108l0,17.809c0,1.163 0.944,2.108 2.108,2.108l18.405,0c1.163,0 2.107,-0.945 2.107,-2.108l0,-17.809Z" style="fill:rgb(0,40,52);"/>                </g>                <g transform="matrix(0.913274,0,0,0.913274,237.876,-40.6196)">                    <path d="M1532.02,440.998c0,-1.164 -0.944,-2.108 -2.107,-2.108l-18.405,0c-1.164,0 -2.108,0.944 -2.108,2.108l0,17.809c0,1.163 0.944,2.108 2.108,2.108l18.405,0c1.163,0 2.107,-0.945 2.107,-2.108l0,-17.809Z" style="fill:rgb(0,40,52);"/>                </g>                <g transform="matrix(0.741694,0,0,0.741694,535.762,23.0795)">                    <path d="M1532.02,440.998c0,-1.164 -0.944,-2.108 -2.107,-2.108l-18.405,0c-1.164,0 -2.108,0.944 -2.108,2.108l0,17.809c0,1.163 0.944,2.108 2.108,2.108l18.405,0c1.163,0 2.107,-0.945 2.107,-2.108l0,-17.809Z" style="fill:rgb(0,40,52);"/>                </g>                <g transform="matrix(0.741694,0,0,0.741694,493.398,83.2292)">                    <path d="M1532.02,440.998c0,-1.164 -0.944,-2.108 -2.107,-2.108l-18.405,0c-1.164,0 -2.108,0.944 -2.108,2.108l0,17.809c0,1.163 0.944,2.108 2.108,2.108l18.405,0c1.163,0 2.107,-0.945 2.107,-2.108l0,-17.809Z" style="fill:rgb(0,40,52);"/>                </g>                <g transform="matrix(0.696944,0,0,0.696944,497.333,20.5413)">                    <path d="M1532.02,440.998c0,-1.164 -0.944,-2.108 -2.107,-2.108l-18.405,0c-1.164,0 -2.108,0.944 -2.108,2.108l0,17.809c0,1.163 0.944,2.108 2.108,2.108l18.405,0c1.163,0 2.107,-0.945 2.107,-2.108l0,-17.809Z" style="fill:rgb(0,40,52);"/>                </g>                <g transform="matrix(0.541575,0,0,0.541575,735.477,123.879)">                    <path d="M1532.02,440.998c0,-1.164 -0.944,-2.108 -2.107,-2.108l-18.405,0c-1.164,0 -2.108,0.944 -2.108,2.108l0,17.809c0,1.163 0.944,2.108 2.108,2.108l18.405,0c1.163,0 2.107,-0.945 2.107,-2.108l0,-17.809Z" style="fill:rgb(0,40,52);"/>                </g>                <g transform="matrix(0.528749,0,0,0.528749,775.542,97.7832)">                    <path d="M1532.02,440.998c0,-1.164 -0.944,-2.108 -2.107,-2.108l-18.405,0c-1.164,0 -2.108,0.944 -2.108,2.108l0,17.809c0,1.163 0.944,2.108 2.108,2.108l18.405,0c1.163,0 2.107,-0.945 2.107,-2.108l0,-17.809Z" style="fill:rgb(0,40,52);"/>                </g>                <g transform="matrix(0.528749,0,0,0.528749,733.804,91.2961)">                    <path d="M1532.02,440.998c0,-1.164 -0.944,-2.108 -2.107,-2.108l-18.405,0c-1.164,0 -2.108,0.944 -2.108,2.108l0,17.809c0,1.163 0.944,2.108 2.108,2.108l18.405,0c1.163,0 2.107,-0.945 2.107,-2.108l0,-17.809Z" style="fill:rgb(0,40,52);"/>                </g>                <g transform="matrix(0.528749,0,0,0.528749,734.939,133.681)">                    <path d="M1532.02,440.998c0,-1.164 -0.944,-2.108 -2.107,-2.108l-18.405,0c-1.164,0 -2.108,0.944 -2.108,2.108l0,17.809c0,1.163 0.944,2.108 2.108,2.108l18.405,0c1.163,0 2.107,-0.945 2.107,-2.108l0,-17.809Z" style="fill:rgb(0,40,52);"/>                </g>                <g transform="matrix(0.528749,0,0,0.528749,735.418,169.859)">                    <path d="M1532.02,440.998c0,-1.164 -0.944,-2.108 -2.107,-2.108l-18.405,0c-1.164,0 -2.108,0.944 -2.108,2.108l0,17.809c0,1.163 0.944,2.108 2.108,2.108l18.405,0c1.163,0 2.107,-0.945 2.107,-2.108l0,-17.809Z" style="fill:rgb(0,40,52);"/>                </g>                <g transform="matrix(0.528749,0,0,0.528749,754.611,169.361)">                    <path d="M1532.02,440.998c0,-1.164 -0.944,-2.108 -2.107,-2.108l-18.405,0c-1.164,0 -2.108,0.944 -2.108,2.108l0,17.809c0,1.163 0.944,2.108 2.108,2.108l18.405,0c1.163,0 2.107,-0.945 2.107,-2.108l0,-17.809Z" style="fill:rgb(0,40,52);"/>                </g>                <g transform="matrix(0.528749,0,0,0.528749,773.297,165.975)">                    <path d="M1532.02,440.998c0,-1.164 -0.944,-2.108 -2.107,-2.108l-18.405,0c-1.164,0 -2.108,0.944 -2.108,2.108l0,17.809c0,1.163 0.944,2.108 2.108,2.108l18.405,0c1.163,0 2.107,-0.945 2.107,-2.108l0,-17.809Z" style="fill:rgb(0,40,52);"/>                </g>                <g transform="matrix(0.528749,0,0,0.528749,814.209,108.259)">                    <path d="M1532.02,440.998c0,-1.164 -0.944,-2.108 -2.107,-2.108l-18.405,0c-1.164,0 -2.108,0.944 -2.108,2.108l0,17.809c0,1.163 0.944,2.108 2.108,2.108l18.405,0c1.163,0 2.107,-0.945 2.107,-2.108l0,-17.809Z" style="fill:rgb(0,40,52);"/>                </g>                <g transform="matrix(0.528749,0,0,0.528749,825.713,92.3486)">                    <path d="M1532.02,440.998c0,-1.164 -0.944,-2.108 -2.107,-2.108l-18.405,0c-1.164,0 -2.108,0.944 -2.108,2.108l0,17.809c0,1.163 0.944,2.108 2.108,2.108l18.405,0c1.163,0 2.107,-0.945 2.107,-2.108l0,-17.809Z" style="fill:rgb(0,40,52);"/>                </g>                <g transform="matrix(0.528749,0,0,0.528749,788.732,82.9993)">                    <path d="M1532.02,440.998c0,-1.164 -0.944,-2.108 -2.107,-2.108l-18.405,0c-1.164,0 -2.108,0.944 -2.108,2.108l0,17.809c0,1.163 0.944,2.108 2.108,2.108l18.405,0c1.163,0 2.107,-0.945 2.107,-2.108l0,-17.809Z" style="fill:rgb(0,40,52);"/>                </g>                <g transform="matrix(0.528749,0,0,0.528749,829.397,158.847)">                    <path d="M1532.02,440.998c0,-1.164 -0.944,-2.108 -2.107,-2.108l-18.405,0c-1.164,0 -2.108,0.944 -2.108,2.108l0,17.809c0,1.163 0.944,2.108 2.108,2.108l18.405,0c1.163,0 2.107,-0.945 2.107,-2.108l0,-17.809Z" style="fill:rgb(0,40,52);"/>                </g>                <g transform="matrix(0.528749,0,0,0.528749,837.589,177.32)">                    <path d="M1532.02,440.998c0,-1.164 -0.944,-2.108 -2.107,-2.108l-18.405,0c-1.164,0 -2.108,0.944 -2.108,2.108l0,17.809c0,1.163 0.944,2.108 2.108,2.108l18.405,0c1.163,0 2.107,-0.945 2.107,-2.108l0,-17.809Z" style="fill:rgb(0,40,52);"/>                </g>                <g transform="matrix(0.528749,0,0,0.528749,836.253,244.996)">                    <path d="M1532.02,440.998c0,-1.164 -0.944,-2.108 -2.107,-2.108l-18.405,0c-1.164,0 -2.108,0.944 -2.108,2.108l0,17.809c0,1.163 0.944,2.108 2.108,2.108l18.405,0c1.163,0 2.107,-0.945 2.107,-2.108l0,-17.809Z" style="fill:rgb(0,40,52);"/>                </g>                <g transform="matrix(0.528749,0,0,0.528749,817.438,249.07)">                    <path d="M1532.02,440.998c0,-1.164 -0.944,-2.108 -2.107,-2.108l-18.405,0c-1.164,0 -2.108,0.944 -2.108,2.108l0,17.809c0,1.163 0.944,2.108 2.108,2.108l18.405,0c1.163,0 2.107,-0.945 2.107,-2.108l0,-17.809Z" style="fill:rgb(0,40,52);"/>                </g>                <g transform="matrix(0.528749,0,0,0.528749,754.711,247.935)">                    <path d="M1532.02,440.998c0,-1.164 -0.944,-2.108 -2.107,-2.108l-18.405,0c-1.164,0 -2.108,0.944 -2.108,2.108l0,17.809c0,1.163 0.944,2.108 2.108,2.108l18.405,0c1.163,0 2.107,-0.945 2.107,-2.108l0,-17.809Z" style="fill:rgb(0,40,52);"/>                </g>                <g transform="matrix(0.528749,0,0,0.528749,754.948,230.907)">                    <path d="M1532.02,440.998c0,-1.164 -0.944,-2.108 -2.107,-2.108l-18.405,0c-1.164,0 -2.108,0.944 -2.108,2.108l0,17.809c0,1.163 0.944,2.108 2.108,2.108l18.405,0c1.163,0 2.107,-0.945 2.107,-2.108l0,-17.809Z" style="fill:rgb(0,40,52);"/>                </g>                <g transform="matrix(0.503069,0,0,0.503069,774.729,243.623)">                    <path d="M1532.02,440.998c0,-1.164 -0.944,-2.108 -2.107,-2.108l-18.405,0c-1.164,0 -2.108,0.944 -2.108,2.108l0,17.809c0,1.163 0.944,2.108 2.108,2.108l18.405,0c1.163,0 2.107,-0.945 2.107,-2.108l0,-17.809Z" style="fill:rgb(0,40,52);"/>                </g>                <g transform="matrix(0.503069,0,0,0.503069,769.258,286.049)">                    <path d="M1532.02,440.998c0,-1.164 -0.944,-2.108 -2.107,-2.108l-18.405,0c-1.164,0 -2.108,0.944 -2.108,2.108l0,17.809c0,1.163 0.944,2.108 2.108,2.108l18.405,0c1.163,0 2.107,-0.945 2.107,-2.108l0,-17.809Z" style="fill:rgb(0,40,52);"/>                </g>                <g transform="matrix(0.503069,0,0,0.503069,898.244,286.061)">                    <path d="M1532.02,440.998c0,-1.164 -0.944,-2.108 -2.107,-2.108l-18.405,0c-1.164,0 -2.108,0.944 -2.108,2.108l0,17.809c0,1.163 0.944,2.108 2.108,2.108l18.405,0c1.163,0 2.107,-0.945 2.107,-2.108l0,-17.809Z" style="fill:rgb(0,40,52);"/>                </g>                <g transform="matrix(0.503069,0,0,0.503069,916.617,286.548)">                    <path d="M1532.02,440.998c0,-1.164 -0.944,-2.108 -2.107,-2.108l-18.405,0c-1.164,0 -2.108,0.944 -2.108,2.108l0,17.809c0,1.163 0.944,2.108 2.108,2.108l18.405,0c1.163,0 2.107,-0.945 2.107,-2.108l0,-17.809Z" style="fill:rgb(0,40,52);"/>                </g>                <g transform="matrix(0.457506,0,0,0.457506,970.111,172.684)">                    <path d="M1532.02,440.998c0,-1.164 -0.944,-2.108 -2.107,-2.108l-18.405,0c-1.164,0 -2.108,0.944 -2.108,2.108l0,17.809c0,1.163 0.944,2.108 2.108,2.108l18.405,0c1.163,0 2.107,-0.945 2.107,-2.108l0,-17.809Z" style="fill:rgb(0,40,52);"/>                </g>                <g transform="matrix(0.457506,0,0,0.457506,940.705,229.137)">                    <path d="M1532.02,440.998c0,-1.164 -0.944,-2.108 -2.107,-2.108l-18.405,0c-1.164,0 -2.108,0.944 -2.108,2.108l0,17.809c0,1.163 0.944,2.108 2.108,2.108l18.405,0c1.163,0 2.107,-0.945 2.107,-2.108l0,-17.809Z" style="fill:rgb(0,40,52);"/>                </g>                <g transform="matrix(0.48182,0,0,0.48182,868.933,232.191)">                    <path d="M1532.02,440.998c0,-1.164 -0.944,-2.108 -2.107,-2.108l-18.405,0c-1.164,0 -2.108,0.944 -2.108,2.108l0,17.809c0,1.163 0.944,2.108 2.108,2.108l18.405,0c1.163,0 2.107,-0.945 2.107,-2.108l0,-17.809Z" style="fill:rgb(0,40,52);"/>                </g>                <g transform="matrix(0.48182,0,0,0.48182,840.276,103.429)">                    <path d="M1532.02,440.998c0,-1.164 -0.944,-2.108 -2.107,-2.108l-18.405,0c-1.164,0 -2.108,0.944 -2.108,2.108l0,17.809c0,1.163 0.944,2.108 2.108,2.108l18.405,0c1.163,0 2.107,-0.945 2.107,-2.108l0,-17.809Z" style="fill:rgb(0,40,52);"/>                </g>                <g transform="matrix(0.528749,0,0,0.528749,833.76,112.615)">                    <path d="M1532.02,440.998c0,-1.164 -0.944,-2.108 -2.107,-2.108l-18.405,0c-1.164,0 -2.108,0.944 -2.108,2.108l0,17.809c0,1.163 0.944,2.108 2.108,2.108l18.405,0c1.163,0 2.107,-0.945 2.107,-2.108l0,-17.809Z" style="fill:rgb(0,40,52);"/>                </g>                <g transform="matrix(0.741694,0,0,0.741694,487.501,133.607)">                    <path d="M1532.02,440.998c0,-1.164 -0.944,-2.108 -2.107,-2.108l-18.405,0c-1.164,0 -2.108,0.944 -2.108,2.108l0,17.809c0,1.163 0.944,2.108 2.108,2.108l18.405,0c1.163,0 2.107,-0.945 2.107,-2.108l0,-17.809Z" style="fill:rgb(0,40,52);"/>                </g>                <g transform="matrix(0.741694,0,0,0.741694,390.21,90.4521)">                    <path d="M1532.02,440.998c0,-1.164 -0.944,-2.108 -2.107,-2.108l-18.405,0c-1.164,0 -2.108,0.944 -2.108,2.108l0,17.809c0,1.163 0.944,2.108 2.108,2.108l18.405,0c1.163,0 2.107,-0.945 2.107,-2.108l0,-17.809Z" style="fill:rgb(0,40,52);"/>                </g>                <g transform="matrix(0.7137,0,0,0.7137,471.369,105.818)">                    <path d="M1532.02,440.998c0,-1.164 -0.944,-2.108 -2.107,-2.108l-18.405,0c-1.164,0 -2.108,0.944 -2.108,2.108l0,17.809c0,1.163 0.944,2.108 2.108,2.108l18.405,0c1.163,0 2.107,-0.945 2.107,-2.108l0,-17.809Z" style="fill:rgb(0,40,52);"/>                </g>                <g transform="matrix(0.7137,0,0,0.7137,432.053,2.69956)">                    <path d="M1532.02,440.998c0,-1.164 -0.944,-2.108 -2.107,-2.108l-18.405,0c-1.164,0 -2.108,0.944 -2.108,2.108l0,17.809c0,1.163 0.944,2.108 2.108,2.108l18.405,0c1.163,0 2.107,-0.945 2.107,-2.108l0,-17.809Z" style="fill:rgb(0,40,52);"/>                </g>                <g transform="matrix(0.61978,0,0,0.61978,573.828,232.538)">                    <path d="M1532.02,440.998c0,-1.164 -0.944,-2.108 -2.107,-2.108l-18.405,0c-1.164,0 -2.108,0.944 -2.108,2.108l0,17.809c0,1.163 0.944,2.108 2.108,2.108l18.405,0c1.163,0 2.107,-0.945 2.107,-2.108l0,-17.809Z" style="fill:rgb(0,40,52);"/>                </g>                <g transform="matrix(0.570551,0,0,0.570551,729.706,147.939)">                    <path d="M1532.02,440.998c0,-1.164 -0.944,-2.108 -2.107,-2.108l-18.405,0c-1.164,0 -2.108,0.944 -2.108,2.108l0,17.809c0,1.163 0.944,2.108 2.108,2.108l18.405,0c1.163,0 2.107,-0.945 2.107,-2.108l0,-17.809Z" style="fill:rgb(0,40,52);"/>                </g>                <g transform="matrix(0.570551,0,0,0.570551,800.282,237.63)">                    <path d="M1532.02,440.998c0,-1.164 -0.944,-2.108 -2.107,-2.108l-18.405,0c-1.164,0 -2.108,0.944 -2.108,2.108l0,17.809c0,1.163 0.944,2.108 2.108,2.108l18.405,0c1.163,0 2.107,-0.945 2.107,-2.108l0,-17.809Z" style="fill:rgb(0,40,52);"/>                </g>                <g transform="matrix(0.61978,0,0,0.61978,574.226,99.3736)">                    <path d="M1532.02,440.998c0,-1.164 -0.944,-2.108 -2.107,-2.108l-18.405,0c-1.164,0 -2.108,0.944 -2.108,2.108l0,17.809c0,1.163 0.944,2.108 2.108,2.108l18.405,0c1.163,0 2.107,-0.945 2.107,-2.108l0,-17.809Z" style="fill:rgb(0,40,52);"/>                </g>                <g transform="matrix(0.913924,0,0,0.913924,192.141,18.9021)">                    <path d="M1532.02,440.998c0,-1.164 -0.944,-2.108 -2.107,-2.108l-18.405,0c-1.164,0 -2.108,0.944 -2.108,2.108l0,17.809c0,1.163 0.944,2.108 2.108,2.108l18.405,0c1.163,0 2.107,-0.945 2.107,-2.108l0,-17.809Z" style="fill:rgb(0,40,52);"/>                </g>                <g transform="matrix(0.737983,0,0,0.737983,474.543,-29.3523)">                    <path d="M1532.02,440.998c0,-1.164 -0.944,-2.108 -2.107,-2.108l-18.405,0c-1.164,0 -2.108,0.944 -2.108,2.108l0,17.809c0,1.163 0.944,2.108 2.108,2.108l18.405,0c1.163,0 2.107,-0.945 2.107,-2.108l0,-17.809Z" style="fill:rgb(0,40,52);"/>                </g>                <g transform="matrix(0.913924,0,0,0.913924,250.493,96.301)">                    <path d="M1532.02,440.998c0,-1.164 -0.944,-2.108 -2.107,-2.108l-18.405,0c-1.164,0 -2.108,0.944 -2.108,2.108l0,17.809c0,1.163 0.944,2.108 2.108,2.108l18.405,0c1.163,0 2.107,-0.945 2.107,-2.108l0,-17.809Z" style="fill:rgb(0,40,52);"/>                </g>                <g transform="matrix(0.842775,0,0,0.842775,273.255,129.33)">                    <path d="M1532.02,440.998c0,-1.164 -0.944,-2.108 -2.107,-2.108l-18.405,0c-1.164,0 -2.108,0.944 -2.108,2.108l0,17.809c0,1.163 0.944,2.108 2.108,2.108l18.405,0c1.163,0 2.107,-0.945 2.107,-2.108l0,-17.809Z" style="fill:rgb(0,40,52);"/>                </g>                <g transform="matrix(0.842775,0,0,0.842775,237.152,109.074)">                    <path d="M1532.02,440.998c0,-1.164 -0.944,-2.108 -2.107,-2.108l-18.405,0c-1.164,0 -2.108,0.944 -2.108,2.108l0,17.809c0,1.163 0.944,2.108 2.108,2.108l18.405,0c1.163,0 2.107,-0.945 2.107,-2.108l0,-17.809Z" style="fill:rgb(0,40,52);"/>                </g>                <g transform="matrix(0.842775,0,0,0.842775,371.394,-46.7915)">                    <path d="M1532.02,440.998c0,-1.164 -0.944,-2.108 -2.107,-2.108l-18.405,0c-1.164,0 -2.108,0.944 -2.108,2.108l0,17.809c0,1.163 0.944,2.108 2.108,2.108l18.405,0c1.163,0 2.107,-0.945 2.107,-2.108l0,-17.809Z" style="fill:rgb(0,40,52);"/>                </g>            </g>            <g id="Grey-Light" transform="matrix(1,0,0,1,0.0769013,-0.357989)">                <g transform="matrix(0.717648,0,0,0.717648,563.079,73.7562)">                    <path d="M1532.02,440.998c0,-1.164 -0.944,-2.108 -2.107,-2.108l-18.405,0c-1.164,0 -2.108,0.944 -2.108,2.108l0,17.809c0,1.163 0.944,2.108 2.108,2.108l18.405,0c1.163,0 2.107,-0.945 2.107,-2.108l0,-17.809Z" style="fill:rgb(201,200,205);"/>                </g>                <g transform="matrix(0.373964,0,0,0.373964,1030.31,320.197)">                    <path d="M1532.02,440.998c0,-1.164 -0.944,-2.108 -2.107,-2.108l-18.405,0c-1.164,0 -2.108,0.944 -2.108,2.108l0,17.809c0,1.163 0.944,2.108 2.108,2.108l18.405,0c1.163,0 2.107,-0.945 2.107,-2.108l0,-17.809Z" style="fill:rgb(201,200,205);"/>                </g>                <g transform="matrix(0.373964,0,0,0.373964,1098.39,136.68)">                    <path d="M1532.02,440.998c0,-1.164 -0.944,-2.108 -2.107,-2.108l-18.405,0c-1.164,0 -2.108,0.944 -2.108,2.108l0,17.809c0,1.163 0.944,2.108 2.108,2.108l18.405,0c1.163,0 2.107,-0.945 2.107,-2.108l0,-17.809Z" style="fill:rgb(201,200,205);"/>                </g>                <g transform="matrix(0.717648,0,0,0.717648,426.857,77.169)">                    <path d="M1532.02,440.998c0,-1.164 -0.944,-2.108 -2.107,-2.108l-18.405,0c-1.164,0 -2.108,0.944 -2.108,2.108l0,17.809c0,1.163 0.944,2.108 2.108,2.108l18.405,0c1.163,0 2.107,-0.945 2.107,-2.108l0,-17.809Z" style="fill:rgb(201,200,205);"/>                </g>                <g transform="matrix(0.62605,0,0,0.62605,686.642,30.0056)">                    <path d="M1532.02,440.998c0,-1.164 -0.944,-2.108 -2.107,-2.108l-18.405,0c-1.164,0 -2.108,0.944 -2.108,2.108l0,17.809c0,1.163 0.944,2.108 2.108,2.108l18.405,0c1.163,0 2.107,-0.945 2.107,-2.108l0,-17.809Z" style="fill:rgb(201,200,205);"/>                </g>                <g transform="matrix(0.528095,0,0,0.528095,691.717,219.292)">                    <path d="M1532.02,440.998c0,-1.164 -0.944,-2.108 -2.107,-2.108l-18.405,0c-1.164,0 -2.108,0.944 -2.108,2.108l0,17.809c0,1.163 0.944,2.108 2.108,2.108l18.405,0c1.163,0 2.107,-0.945 2.107,-2.108l0,-17.809Z" style="fill:rgb(201,200,205);"/>                </g>            </g>            <g id="Grey" transform="matrix(1,0,0,1,0.0888343,-0.0941378)">                <g transform="matrix(0.739723,0,0,0.739723,446.743,-31.0241)">                    <path d="M1532.02,440.998c0,-1.164 -0.944,-2.108 -2.107,-2.108l-18.405,0c-1.164,0 -2.108,0.944 -2.108,2.108l0,17.809c0,1.163 0.944,2.108 2.108,2.108l18.405,0c1.163,0 2.107,-0.945 2.107,-2.108l0,-17.809Z" style="fill:rgb(156,157,159);"/>                </g>                <g transform="matrix(0.739723,0,0,0.739723,529.534,63.3536)">                    <path d="M1532.02,440.998c0,-1.164 -0.944,-2.108 -2.107,-2.108l-18.405,0c-1.164,0 -2.108,0.944 -2.108,2.108l0,17.809c0,1.163 0.944,2.108 2.108,2.108l18.405,0c1.163,0 2.107,-0.945 2.107,-2.108l0,-17.809Z" style="fill:rgb(156,157,159);"/>                </g>                <g transform="matrix(0.570754,0,0,0.570754,743.823,64.032)">                    <path d="M1532.02,440.998c0,-1.164 -0.944,-2.108 -2.107,-2.108l-18.405,0c-1.164,0 -2.108,0.944 -2.108,2.108l0,17.809c0,1.163 0.944,2.108 2.108,2.108l18.405,0c1.163,0 2.107,-0.945 2.107,-2.108l0,-17.809Z" style="fill:rgb(156,157,159);"/>                </g>                <g transform="matrix(0.376171,0,0,0.376171,914.232,157.911)">                    <path d="M1532.02,440.998c0,-1.164 -0.944,-2.108 -2.107,-2.108l-18.405,0c-1.164,0 -2.108,0.944 -2.108,2.108l0,17.809c0,1.163 0.944,2.108 2.108,2.108l18.405,0c1.163,0 2.107,-0.945 2.107,-2.108l0,-17.809Z" style="fill:rgb(156,157,159);"/>                </g>                <g transform="matrix(0.376171,0,0,0.376171,1023.91,189.607)">                    <path d="M1532.02,440.998c0,-1.164 -0.944,-2.108 -2.107,-2.108l-18.405,0c-1.164,0 -2.108,0.944 -2.108,2.108l0,17.809c0,1.163 0.944,2.108 2.108,2.108l18.405,0c1.163,0 2.107,-0.945 2.107,-2.108l0,-17.809Z" style="fill:rgb(156,157,159);"/>                </g>                <g transform="matrix(0.441768,0,0,0.441768,943.322,193.608)">                    <path d="M1532.02,440.998c0,-1.164 -0.944,-2.108 -2.107,-2.108l-18.405,0c-1.164,0 -2.108,0.944 -2.108,2.108l0,17.809c0,1.163 0.944,2.108 2.108,2.108l18.405,0c1.163,0 2.107,-0.945 2.107,-2.108l0,-17.809Z" style="fill:rgb(156,157,159);"/>                </g>                <g transform="matrix(0.441768,0,0,0.441768,930.713,223.761)">                    <path d="M1532.02,440.998c0,-1.164 -0.944,-2.108 -2.107,-2.108l-18.405,0c-1.164,0 -2.108,0.944 -2.108,2.108l0,17.809c0,1.163 0.944,2.108 2.108,2.108l18.405,0c1.163,0 2.107,-0.945 2.107,-2.108l0,-17.809Z" style="fill:rgb(156,157,159);"/>                </g>                <g transform="matrix(0.489701,0,0,0.489701,814.421,131.337)">                    <path d="M1532.02,440.998c0,-1.164 -0.944,-2.108 -2.107,-2.108l-18.405,0c-1.164,0 -2.108,0.944 -2.108,2.108l0,17.809c0,1.163 0.944,2.108 2.108,2.108l18.405,0c1.163,0 2.107,-0.945 2.107,-2.108l0,-17.809Z" style="fill:rgb(156,157,159);"/>                </g>            </g>            <g id="Green" transform="matrix(1,0,0,1,-0.205512,-0.731888)">                <g transform="matrix(0.489701,0,0,0.489701,797.525,130.901)">                    <path d="M1532.02,440.998c0,-1.164 -0.944,-2.108 -2.107,-2.108l-18.405,0c-1.164,0 -2.108,0.944 -2.108,2.108l0,17.809c0,1.163 0.944,2.108 2.108,2.108l18.405,0c1.163,0 2.107,-0.945 2.107,-2.108l0,-17.809Z" style="fill:rgb(0,172,182);"/>                </g>                <g transform="matrix(0.489701,0,0,0.489701,874.787,82.46)">                    <path d="M1532.02,440.998c0,-1.164 -0.944,-2.108 -2.107,-2.108l-18.405,0c-1.164,0 -2.108,0.944 -2.108,2.108l0,17.809c0,1.163 0.944,2.108 2.108,2.108l18.405,0c1.163,0 2.107,-0.945 2.107,-2.108l0,-17.809Z" style="fill:rgb(0,172,182);"/>                </g>                <g transform="matrix(0.489701,0,0,0.489701,856.767,116.362)">                    <path d="M1532.02,440.998c0,-1.164 -0.944,-2.108 -2.107,-2.108l-18.405,0c-1.164,0 -2.108,0.944 -2.108,2.108l0,17.809c0,1.163 0.944,2.108 2.108,2.108l18.405,0c1.163,0 2.107,-0.945 2.107,-2.108l0,-17.809Z" style="fill:rgb(0,172,182);"/>                </g>                <g transform="matrix(0.489701,0,0,0.489701,904.397,154.41)">                    <path d="M1532.02,440.998c0,-1.164 -0.944,-2.108 -2.107,-2.108l-18.405,0c-1.164,0 -2.108,0.944 -2.108,2.108l0,17.809c0,1.163 0.944,2.108 2.108,2.108l18.405,0c1.163,0 2.107,-0.945 2.107,-2.108l0,-17.809Z" style="fill:rgb(0,172,182);"/>                </g>                <g transform="matrix(0.489701,0,0,0.489701,914.821,255.996)">                    <path d="M1532.02,440.998c0,-1.164 -0.944,-2.108 -2.107,-2.108l-18.405,0c-1.164,0 -2.108,0.944 -2.108,2.108l0,17.809c0,1.163 0.944,2.108 2.108,2.108l18.405,0c1.163,0 2.107,-0.945 2.107,-2.108l0,-17.809Z" style="fill:rgb(0,172,182);"/>                </g>                <g transform="matrix(0.489701,0,0,0.489701,874.352,220.691)">                    <path d="M1532.02,440.998c0,-1.164 -0.944,-2.108 -2.107,-2.108l-18.405,0c-1.164,0 -2.108,0.944 -2.108,2.108l0,17.809c0,1.163 0.944,2.108 2.108,2.108l18.405,0c1.163,0 2.107,-0.945 2.107,-2.108l0,-17.809Z" style="fill:rgb(0,172,182);"/>                </g>                <g transform="matrix(0.489701,0,0,0.489701,792.166,208.351)">                    <path d="M1532.02,440.998c0,-1.164 -0.944,-2.108 -2.107,-2.108l-18.405,0c-1.164,0 -2.108,0.944 -2.108,2.108l0,17.809c0,1.163 0.944,2.108 2.108,2.108l18.405,0c1.163,0 2.107,-0.945 2.107,-2.108l0,-17.809Z" style="fill:rgb(0,172,182);"/>                </g>                <g transform="matrix(0.489701,0,0,0.489701,794.954,268.385)">                    <path d="M1532.02,440.998c0,-1.164 -0.944,-2.108 -2.107,-2.108l-18.405,0c-1.164,0 -2.108,0.944 -2.108,2.108l0,17.809c0,1.163 0.944,2.108 2.108,2.108l18.405,0c1.163,0 2.107,-0.945 2.107,-2.108l0,-17.809Z" style="fill:rgb(0,172,182);"/>                </g>                <g transform="matrix(0.728275,0,0,0.728275,448.429,121.737)">                    <path d="M1532.02,440.998c0,-1.164 -0.944,-2.108 -2.107,-2.108l-18.405,0c-1.164,0 -2.108,0.944 -2.108,2.108l0,17.809c0,1.163 0.944,2.108 2.108,2.108l18.405,0c1.163,0 2.107,-0.945 2.107,-2.108l0,-17.809Z" style="fill:rgb(0,172,182);"/>                </g>                <g transform="matrix(0.728275,0,0,0.728275,448.429,60.1243)">                    <path d="M1532.02,440.998c0,-1.164 -0.944,-2.108 -2.107,-2.108l-18.405,0c-1.164,0 -2.108,0.944 -2.108,2.108l0,17.809c0,1.163 0.944,2.108 2.108,2.108l18.405,0c1.163,0 2.107,-0.945 2.107,-2.108l0,-17.809Z" style="fill:rgb(0,172,182);"/>                </g>                <g transform="matrix(0.728275,0,0,0.728275,410.757,-24.849)">                    <path d="M1532.02,440.998c0,-1.164 -0.944,-2.108 -2.107,-2.108l-18.405,0c-1.164,0 -2.108,0.944 -2.108,2.108l0,17.809c0,1.163 0.944,2.108 2.108,2.108l18.405,0c1.163,0 2.107,-0.945 2.107,-2.108l0,-17.809Z" style="fill:rgb(0,172,182);"/>                </g>            </g>        </g>        <g transform="matrix(1.97863,0,0,1.45763,-1118.87,-541.709)">            <g transform="matrix(49.1125,0,0,66.6667,1447.17,678.922)">                <path d="M0.072,-0.708l0.274,0c0.036,0 0.115,0.012 0.157,0.046c0.023,0.018 0.044,0.038 0.058,0.066c0.014,0.027 0.022,0.062 0.022,0.103c0,0.05 -0.013,0.092 -0.039,0.128c-0.026,0.034 -0.019,0.057 -0.069,0.066l0.165,0.299l-0.187,0l-0.148,-0.253l-0.062,0l0,0.253l-0.171,0l0,-0.708Zm0.171,0.308l0.077,0c0.014,0 0.075,0.007 0.088,-0.078c0.003,-0.018 -0.005,-0.078 -0.035,-0.08c-0.015,-0.001 -0.029,-0.003 -0.043,-0.003l-0.087,0l0,0.161Z" style="fill:rgb(0,40,52);fill-rule:nonzero;"/>            </g>            <g transform="matrix(49.1125,0,0,70.1414,1478.25,678.88)">                <path d="M0.525,-0.07c-0.024,0.031 -0.064,0.044 -0.103,0.057c-0.038,0.013 -0.075,0.025 -0.114,0.025c-0.037,0 -0.073,-0.006 -0.106,-0.018c-0.033,-0.012 -0.061,-0.029 -0.086,-0.051c-0.024,-0.023 -0.043,-0.05 -0.057,-0.081c-0.014,-0.031 -0.021,-0.066 -0.021,-0.105c0,-0.039 0.007,-0.074 0.021,-0.105c0.014,-0.031 0.033,-0.058 0.057,-0.081c0.025,-0.022 0.053,-0.039 0.086,-0.051c0.033,-0.012 0.069,-0.018 0.106,-0.018c0.035,0 0.066,0.006 0.094,0.018c0.029,0.012 0.053,0.029 0.073,0.051c0.019,0.023 0.034,0.05 0.045,0.081c0.011,0.031 0.016,0.066 0.016,0.105l0,0.033l-0.333,0c0.006,0.028 0.027,0.082 0.104,0.086c0.049,0.003 0.146,-0.031 0.158,-0.048l0.06,0.102Zm-0.169,-0.242c0,-0.026 -0.007,-0.064 -0.062,-0.064c-0.074,0 -0.075,0.052 -0.076,0.064l0.138,0Z" style="fill:rgb(0,40,52);fill-rule:nonzero;"/>            </g>            <g transform="matrix(49.1125,0,0,70.1414,1507.19,678.88)">                <path d="M0.343,-0.061l-0.002,0c-0.017,0.026 -0.024,0.045 -0.052,0.056c-0.027,0.011 -0.056,0.017 -0.087,0.017c-0.023,0 -0.045,-0.003 -0.066,-0.01c-0.021,-0.006 -0.039,-0.015 -0.055,-0.028c-0.016,-0.013 -0.029,-0.028 -0.038,-0.047c-0.009,-0.019 -0.014,-0.04 -0.014,-0.065c0,-0.028 0.005,-0.052 0.015,-0.071c0.011,-0.019 0.025,-0.035 0.042,-0.048c0.018,-0.013 0.038,-0.023 0.061,-0.03c0.023,-0.007 0.046,-0.012 0.07,-0.015c0.025,-0.003 0.049,-0.005 0.073,-0.006c0.025,-0.001 0.015,0 0.036,0c0,-0.026 0.009,-0.069 -0.067,-0.068c-0.025,0 -0.125,0.037 -0.141,0.055l-0.058,-0.099c0.028,-0.026 0.061,-0.045 0.098,-0.058c0.037,-0.013 0.076,-0.02 0.116,-0.02c0.044,0 0.08,0.006 0.108,0.017c0.029,0.011 0.051,0.027 0.068,0.048c0.017,0.021 0.029,0.048 0.036,0.079c0.007,0.031 0.01,0.066 0.01,0.107l0,0.247l-0.153,0l0,-0.061Zm-0.01,-0.154c0,0 -0.038,0.003 -0.055,0.004c-0.017,0.001 -0.065,0.016 -0.075,0.03c-0.021,0.03 -0.009,0.054 0.006,0.063c0.016,0.009 0.044,0.012 0.068,0.001c0.024,-0.01 0.056,-0.044 0.056,-0.059l0,-0.039Z" style="fill:rgb(0,40,52);fill-rule:nonzero;"/>            </g>        </g>        <g transform="matrix(1.48071,0,0,1.48071,-224.989,-554.237)">            <g transform="matrix(1,0,0,1,-91.7698,64.796)">                <path d="M1540.92,589.383c0,-0.383 0.113,-6.363 1.274,-9.462c1.161,-3.098 2.789,-5.793 4.883,-8.085c2.094,-2.292 4.59,-4.099 7.487,-5.423c2.897,-1.323 6.038,-1.985 9.424,-1.985c3.016,0 6.838,-0.34 12.659,2.079c2.171,0.903 5.357,4.162 6.464,5.539l0,8.129l-6.416,0l0,-3.867c-1.454,-2.454 -0.041,-2.521 -2.546,-3.718c-3.067,-1.466 -7.21,-2.158 -10.161,-2.158c-2.518,0 -4.818,0.527 -6.902,1.581c-2.083,1.055 -3.868,2.47 -5.354,4.245c-1.487,1.775 -2.642,3.83 -3.467,6.165c-0.825,2.335 -0.853,3.788 -0.853,6.37c0,0.212 0.028,4.456 0.853,6.791c0.825,2.334 1.98,4.389 3.467,6.165c1.486,1.775 3.271,3.19 5.354,4.244c2.084,1.055 4.384,1.582 6.902,1.582c2.951,0 7.094,-0.692 10.161,-2.159c2.505,-1.197 1.092,-1.264 2.546,-3.717l0,-3.867l6.416,0l0,8.129c-1.107,1.377 -4.293,4.636 -6.464,5.538c-5.821,2.42 -9.643,2.079 -12.659,2.079c-3.386,0 -6.527,-0.661 -9.424,-1.985c-2.897,-1.323 -5.393,-3.131 -7.487,-5.422c-2.094,-2.292 -3.722,-4.987 -4.883,-8.086c-1.161,-3.099 -1.274,-5.216 -1.274,-8.702Z" style="fill:rgb(0,40,52);fill-rule:nonzero;"/>            </g>            <g transform="matrix(66.6667,0,0,66.6667,1531.92,677.117)">                <path d="M0.014,-0.506l0.155,0c0.005,0 0.011,0.002 0.015,0.006c0.004,0.004 0.006,0.01 0.006,0.015l0,0.036c0.021,-0.016 0.045,-0.045 0.07,-0.054c0.026,-0.01 0.052,-0.015 0.079,-0.015c0.033,0 0.064,0.006 0.091,0.018c0.028,0.013 0.052,0.03 0.072,0.053c0.02,0.022 0.035,0.049 0.046,0.081c0.011,0.031 0.017,0.066 0.017,0.104c0,0.04 -0.006,0.078 -0.019,0.111c-0.012,0.034 -0.029,0.062 -0.051,0.086c-0.022,0.024 -0.048,0.043 -0.078,0.056c-0.031,0.014 -0.064,0.023 -0.1,0.02c-0.089,-0.006 -0.108,-0.05 -0.126,-0.059l0,0.164l0.079,0l0,0.084l-0.255,0l0,-0.084l0.084,0l0,-0.538l-0.085,0l0,-0.084Zm0.301,0.068c-0.023,0 -0.046,0.005 -0.068,0.014c-0.021,0.01 -0.04,0.068 -0.056,0.084l0,0.169c0.011,0.011 0.046,0.105 0.121,0.103c0.021,-0.001 0.041,-0.004 0.06,-0.012c0.019,-0.008 0.036,-0.02 0.051,-0.036c0.014,-0.017 0.026,-0.037 0.035,-0.06c0.009,-0.024 0.013,-0.052 0.013,-0.083c0,-0.028 -0.004,-0.054 -0.012,-0.076c-0.009,-0.022 -0.02,-0.041 -0.034,-0.056c-0.014,-0.015 -0.031,-0.027 -0.05,-0.035c-0.018,-0.008 -0.039,-0.012 -0.06,-0.012Z" style="fill:rgb(0,40,52);fill-rule:nonzero;"/>            </g>            <g transform="matrix(66.6667,0,0,66.6667,1572.58,677.117)">                <path d="M0.045,-0.506l0.165,0l0,0.422l0.091,0l0,0.084l-0.255,0l0,-0.084l0.072,0l0,-0.338l-0.073,0l0,-0.084Z" style="fill:rgb(0,40,52);fill-rule:nonzero;"/>            </g>            <g transform="matrix(1,0,0,1,-91.7698,64.796)">                <rect x="1672.34" y="565.899" width="6.913" height="6.913" style="fill:rgb(0,40,52);"/>            </g>            <g transform="matrix(66.6667,0,0,66.6667,1593.97,677.117)">                <path d="M0.195,-0.506l0.119,0l0,0.074l-0.12,0l-0.001,0.277c0.01,0.05 0.039,0.057 0.049,0.061c0.01,0.005 0.072,0.01 0.084,0.004l0,0.076c-0.015,0.008 -0.086,0.02 -0.151,-0.012c-0.067,-0.033 -0.071,-0.096 -0.071,-0.128l0.001,-0.278l-0.08,0l0,-0.074l0.081,0l0,-0.121l0.089,0l0,0.121Z" style="fill:rgb(0,40,52);fill-rule:nonzero;"/>            </g>            <g transform="matrix(66.6667,0,0,66.6667,1618.77,677.117)">                <path d="M0.346,-0.062c-0.019,0.018 -0.04,0.048 -0.064,0.059c-0.023,0.011 -0.049,0.017 -0.079,0.017c-0.025,0 -0.047,-0.004 -0.068,-0.012c-0.021,-0.007 -0.038,-0.018 -0.053,-0.032c-0.015,-0.013 -0.027,-0.029 -0.035,-0.047c-0.009,-0.018 -0.013,-0.037 -0.013,-0.057c0,-0.021 0.003,-0.04 0.01,-0.057c0.006,-0.017 0.015,-0.031 0.025,-0.043c0.011,-0.012 0.023,-0.023 0.037,-0.031c0.014,-0.008 0.029,-0.015 0.045,-0.02c0.015,-0.005 0.031,-0.009 0.047,-0.011c0.016,-0.002 0.031,-0.003 0.046,-0.003c0.024,0 0.043,0.001 0.059,0.002c0.016,0.002 0.031,-0.003 0.044,0l0,-0.035c0,-0.018 -0.002,-0.033 -0.008,-0.047c-0.005,-0.013 -0.012,-0.024 -0.022,-0.032c-0.009,-0.009 -0.02,-0.015 -0.034,-0.02c-0.013,-0.004 -0.027,-0.006 -0.044,-0.006c-0.015,0 -0.03,0.001 -0.044,0.003c-0.014,0.002 -0.027,0.005 -0.039,0.008c-0.012,0.004 -0.023,0.008 -0.034,0.012c-0.01,0.005 -0.019,0.009 -0.026,0.014l-0.03,-0.063c0.012,-0.008 0.026,-0.015 0.04,-0.022c0.014,-0.006 0.029,-0.012 0.045,-0.017c0.016,-0.004 0.032,-0.008 0.048,-0.011c0.017,-0.003 0.033,-0.004 0.049,-0.004c0.029,0 0.056,0.003 0.079,0.01c0.024,0.007 0.043,0.018 0.06,0.033c0.016,0.015 0.029,0.033 0.037,0.056c0.009,0.022 0.014,0.05 0.014,0.081l-0.001,0.253l0.071,0l0,0.084l-0.138,0c-0.006,0 -0.012,-0.003 -0.017,-0.007c-0.004,-0.004 -0.007,-0.01 -0.007,-0.017l0,-0.038Zm-0.123,0c0.012,0 0.065,-0.024 0.073,-0.034c0.035,-0.042 0.051,-0.135 0.051,-0.135l-0.106,0c-0.017,0 -0.033,0.002 -0.048,0.006c-0.014,0.004 -0.027,0.01 -0.037,0.017c-0.011,0.007 -0.019,0.017 -0.025,0.028c-0.006,0.011 -0.009,0.024 -0.009,0.038c0,0.013 0.003,0.025 0.007,0.035c0.005,0.01 0.012,0.018 0.021,0.025c0.009,0.006 0.02,0.011 0.032,0.015c0.012,0.003 0.026,0.005 0.041,0.005Z" style="fill:rgb(0,40,52);fill-rule:nonzero;"/>            </g>            <g transform="matrix(66.6667,0,0,66.6667,1495.83,677.117)">                <path d="M0.346,-0.062c-0.019,0.018 -0.04,0.048 -0.064,0.059c-0.023,0.011 -0.049,0.017 -0.079,0.017c-0.025,0 -0.047,-0.004 -0.068,-0.012c-0.021,-0.007 -0.038,-0.018 -0.053,-0.032c-0.015,-0.013 -0.027,-0.029 -0.035,-0.047c-0.009,-0.018 -0.013,-0.037 -0.013,-0.057c0,-0.021 0.003,-0.04 0.01,-0.057c0.006,-0.017 0.015,-0.031 0.025,-0.043c0.011,-0.012 0.023,-0.023 0.037,-0.031c0.014,-0.008 0.029,-0.015 0.045,-0.02c0.015,-0.005 0.031,-0.009 0.047,-0.011c0.016,-0.002 0.031,-0.003 0.046,-0.003c0.024,0 0.043,0.001 0.059,0.002c0.016,0.002 0.031,-0.003 0.044,0l0,-0.035c0,-0.018 -0.002,-0.033 -0.008,-0.047c-0.005,-0.013 -0.012,-0.024 -0.022,-0.032c-0.009,-0.009 -0.02,-0.015 -0.034,-0.02c-0.013,-0.004 -0.027,-0.006 -0.044,-0.006c-0.015,0 -0.03,0.001 -0.044,0.003c-0.014,0.002 -0.027,0.005 -0.039,0.008c-0.012,0.004 -0.023,0.008 -0.034,0.012c-0.01,0.005 -0.019,0.009 -0.026,0.014l-0.03,-0.063c0.012,-0.008 0.026,-0.015 0.04,-0.022c0.014,-0.006 0.029,-0.012 0.045,-0.017c0.016,-0.004 0.032,-0.008 0.048,-0.011c0.017,-0.003 0.033,-0.004 0.049,-0.004c0.029,0 0.056,0.003 0.079,0.01c0.024,0.007 0.043,0.018 0.06,0.033c0.016,0.015 0.029,0.033 0.037,0.056c0.009,0.022 0.014,0.05 0.014,0.081l-0.001,0.253l0.071,0l0,0.084l-0.138,0c-0.006,0 -0.012,-0.003 -0.017,-0.007c-0.004,-0.004 -0.007,-0.01 -0.007,-0.017l0,-0.038Zm-0.123,0c0.012,0 0.065,-0.024 0.073,-0.034c0.035,-0.042 0.051,-0.135 0.051,-0.135l-0.106,0c-0.017,0 -0.033,0.002 -0.048,0.006c-0.014,0.004 -0.027,0.01 -0.037,0.017c-0.011,0.007 -0.019,0.017 -0.025,0.028c-0.006,0.011 -0.009,0.024 -0.009,0.038c0,0.013 0.003,0.025 0.007,0.035c0.005,0.01 0.012,0.018 0.021,0.025c0.009,0.006 0.02,0.011 0.032,0.015c0.012,0.003 0.026,0.005 0.041,0.005Z" style="fill:rgb(0,40,52);fill-rule:nonzero;"/>            </g>            <g transform="matrix(66.6667,0,0,66.6667,1655.23,677.117)">                <path d="M-0.03,-0.7l0.179,0l0,0.592c0,0.013 0.011,0.024 0.024,0.024l0.052,0l0,0.084c0,0 -0.087,-0.003 -0.14,-0.005c-0.023,0 -0.04,-0.018 -0.041,-0.041c0,-0.019 -0.001,-0.038 -0.001,-0.038l0,-0.532l-0.073,0l0,-0.084Z" style="fill:rgb(0,40,52);fill-rule:nonzero;"/>            </g>        </g>    </g></svg>