<?xml version="1.0" encoding="UTF-8" standalone="no"?><!DOCTYPE svg PUBLIC "-//W3C//DTD SVG 1.1//EN" "http://www.w3.org/Graphics/SVG/1.1/DTD/svg11.dtd"><svg width="100%" height="100%" viewBox="0 0 1024 512" version="1.1" xmlns="http://www.w3.org/2000/svg" xmlns:xlink="http://www.w3.org/1999/xlink" xml:space="preserve" style="fill-rule:evenodd;clip-rule:evenodd;stroke-linejoin:round;stroke-miterlimit:2;"><title>Brickowner</title><desc>Brickowner is a property investment crowdfunding platform that allows individuals to choose and invest into property using the Brickowner online platform. Whilst invested in the property users will benefit from any income and capital growth generated by the property during the investment period.</desc>    <g transform="matrix(1.73132,0,0,1.73132,-6.40529,184.15)">        <g>            <path d="M25,25.721l-5.625,0l-13.375,13.279l19,0l0,-13.279Z" style="fill:rgb(255,130,1);"/>            <path d="M54.357,25.721l-23.357,0l0,13.279l38,0l-14.643,-13.279Z" style="fill:rgb(66,177,41);"/>            <g transform="matrix(1,0,0,1,-55,-5)">                <path d="M105.419,26l-26.419,0l13,-13l13.419,13Z" style="fill:rgb(190,106,193);"/>            </g>            <g transform="matrix(0.607783,0,0,0.40625,1.77266,26.125)">                <rect x="6" y="44" width="63" height="32" style="fill:rgb(240,51,65);"/>            </g>            <g transform="matrix(0.607783,0,0,0.40625,27.063,44.125)">                <rect x="6" y="44" width="63" height="32" style="fill:rgb(255,205,1);"/>            </g>            <g transform="matrix(0.337942,0,0,0.40625,45.682,26.125)">                <rect x="6" y="44" width="63" height="32" style="fill:rgb(0,145,216);"/>            </g>            <g transform="matrix(0.337942,0,0,0.40625,2.82719,44.125)">                <rect x="6" y="44" width="63" height="32" style="fill:rgb(221,170,191);"/>            </g>        </g>        <g transform="matrix(1.42177,0,0,1.71768,-125.434,-3.2873)">            <g transform="matrix(61.546,0,0,50.9434,156,44.966)">                <path d="M0.053,0l0.334,0c0.039,0 0.072,-0.002 0.106,-0.013c0.073,-0.025 0.13,-0.095 0.13,-0.188c0,-0.08 -0.041,-0.149 -0.117,-0.171l0,-0.002c0.055,-0.028 0.089,-0.083 0.089,-0.152c0,-0.076 -0.041,-0.134 -0.097,-0.159c-0.035,-0.016 -0.073,-0.021 -0.124,-0.021l-0.321,0l0,0.077l0.088,0l0,0.551l-0.088,0l0,0.078Zm0.188,-0.409l0,-0.215l0.133,0c0.03,0 0.053,0.004 0.073,0.014c0.03,0.017 0.046,0.052 0.046,0.093c0,0.064 -0.04,0.108 -0.104,0.108l-0.148,0Zm0,0.327l0,-0.245l0.158,0c0.074,0 0.122,0.048 0.122,0.121c0,0.053 -0.026,0.097 -0.067,0.114c-0.019,0.008 -0.043,0.01 -0.063,0.01l-0.15,0Z" style="fill:rgb(23,30,110);fill-rule:nonzero;"/>            </g>            <g transform="matrix(61.546,0,0,50.9434,197.605,44.966)">                <path d="M0.05,0l0.248,0l0,-0.075l-0.075,0l0,-0.134c0,-0.099 0.046,-0.208 0.154,-0.208c0.016,0 0.028,0.003 0.028,0.003l0,-0.096c0,0 -0.012,-0.002 -0.025,-0.002c-0.078,0 -0.137,0.058 -0.16,0.132l-0.002,0c0,0 0.002,-0.015 0.002,-0.035l0,-0.032c0,-0.041 -0.021,-0.059 -0.065,-0.059l-0.114,0l0,0.075l0.063,0c0.014,0 0.022,0.007 0.022,0.022l0,0.334l-0.076,0l0,0.075Z" style="fill:rgb(23,30,110);fill-rule:nonzero;"/>            </g>            <g transform="matrix(61.546,0,0,50.9434,223.639,44.966)">                <path d="M0.125,-0.607l0.102,0l0,-0.099l-0.102,0l0,0.099Zm-0.077,0.607l0.256,0l0,-0.075l-0.08,0l0,-0.431l-0.181,0l0,0.075l0.084,0l0,0.356l-0.079,0l0,0.075Z" style="fill:rgb(23,30,110);fill-rule:nonzero;"/>            </g>            <g transform="matrix(61.546,0,0,50.9434,244.011,44.966)">                <path d="M0.04,-0.252c0,0.163 0.127,0.264 0.273,0.264c0.107,0 0.18,-0.057 0.203,-0.078l-0.037,-0.071c-0.018,0.014 -0.076,0.065 -0.162,0.065c-0.097,0 -0.178,-0.067 -0.178,-0.182c0,-0.108 0.07,-0.18 0.172,-0.18c0.045,0 0.109,0.019 0.109,0.058l0,0.035l0.086,0l0,-0.062c0,-0.087 -0.123,-0.115 -0.198,-0.115c-0.151,0 -0.268,0.111 -0.268,0.266Z" style="fill:rgb(23,30,110);fill-rule:nonzero;"/>            </g>            <g transform="matrix(61.546,0,0,50.9434,278.046,44.966)">                <path d="M0.032,0l0.244,0l0,-0.075l-0.068,0l0,-0.163l0.04,0c0.022,0 0.036,0.002 0.047,0.02l0.1,0.171c0.022,0.039 0.037,0.047 0.083,0.047l0.076,0l0,-0.075l-0.032,0c-0.026,0 -0.034,-0.004 -0.044,-0.02l-0.086,-0.147c-0.02,-0.034 -0.036,-0.041 -0.037,-0.041l0,-0.002l0.125,-0.146l0.067,0l0,-0.075l-0.23,0l0,0.075l0.066,0l-0.101,0.119l-0.074,0l0,-0.394l-0.181,0l0,0.075l0.085,0l0,0.556l-0.08,0l0,0.075Z" style="fill:rgb(23,30,110);fill-rule:nonzero;"/>            </g>            <g transform="matrix(61.546,0,0,50.9434,313.558,44.966)">                <path d="M0.04,-0.254c0,0.154 0.122,0.266 0.273,0.266c0.151,0 0.273,-0.112 0.273,-0.266c0,-0.153 -0.122,-0.264 -0.273,-0.264c-0.151,0 -0.273,0.111 -0.273,0.264Zm0.099,0c0,-0.105 0.078,-0.18 0.174,-0.18c0.095,0 0.174,0.075 0.174,0.18c0,0.106 -0.079,0.182 -0.174,0.182c-0.096,0 -0.174,-0.076 -0.174,-0.182Z" style="fill:rgb(23,30,110);fill-rule:nonzero;"/>            </g>            <g transform="matrix(61.546,0,0,50.9434,351.839,44.966)">                <path d="M0.01,-0.431l0.063,0l0.13,0.431l0.108,0l0.107,-0.338c0.006,-0.023 0.009,-0.048 0.009,-0.048l0.002,0c0,0 0.003,0.025 0.009,0.048l0.107,0.338l0.108,0l0.13,-0.431l0.063,0l0,-0.075l-0.226,0l0,0.075l0.069,0l-0.087,0.294c-0.006,0.021 -0.008,0.047 -0.008,0.047l-0.003,0c0,0 -0.002,-0.026 -0.008,-0.047l-0.111,-0.368l-0.088,0l-0.111,0.368c-0.006,0.021 -0.008,0.047 -0.008,0.047l-0.003,0c0,0 -0.002,-0.026 -0.008,-0.047l-0.086,-0.294l0.068,0l0,-0.075l-0.226,0l0,0.075Z" style="fill:rgb(23,30,110);fill-rule:nonzero;"/>            </g>            <g transform="matrix(61.546,0,0,50.9434,404.523,44.966)">                <path d="M0.048,0l0.256,0l0,-0.075l-0.08,0l0,-0.16c0,-0.101 0.067,-0.194 0.169,-0.194c0.081,0 0.095,0.056 0.095,0.127l0,0.302l0.177,0l0,-0.075l-0.08,0l0,-0.249c0,-0.129 -0.052,-0.194 -0.168,-0.194c-0.128,0 -0.187,0.096 -0.197,0.123l-0.002,0c0,0 0.003,-0.013 0.003,-0.029l0,-0.026c0,-0.037 -0.02,-0.056 -0.064,-0.056l-0.114,0l0,0.075l0.062,0c0.014,0 0.022,0.007 0.022,0.022l0,0.334l-0.079,0l0,0.075Z" style="fill:rgb(23,30,110);fill-rule:nonzero;"/>            </g>            <g transform="matrix(61.546,0,0,50.9434,446.928,44.966)">                <path d="M0.041,-0.253c0,0.15 0.109,0.265 0.268,0.265c0.121,0 0.197,-0.07 0.197,-0.07l-0.04,-0.071c0,0 -0.063,0.057 -0.151,0.057c-0.09,0 -0.169,-0.06 -0.175,-0.172l0.37,0c0,0 0.003,-0.024 0.003,-0.037c0,-0.131 -0.075,-0.237 -0.219,-0.237c-0.144,0 -0.253,0.104 -0.253,0.265Zm0.103,-0.053c0.014,-0.085 0.074,-0.135 0.148,-0.135c0.064,0 0.118,0.046 0.121,0.135l-0.269,0Z" style="fill:rgb(23,30,110);fill-rule:nonzero;"/>            </g>            <g transform="matrix(61.546,0,0,50.9434,481.086,44.966)">                <path d="M0.05,0l0.248,0l0,-0.075l-0.075,0l0,-0.134c0,-0.099 0.046,-0.208 0.154,-0.208c0.016,0 0.028,0.003 0.028,0.003l0,-0.096c0,0 -0.012,-0.002 -0.025,-0.002c-0.078,0 -0.137,0.058 -0.16,0.132l-0.002,0c0,0 0.002,-0.015 0.002,-0.035l0,-0.032c0,-0.041 -0.021,-0.059 -0.065,-0.059l-0.114,0l0,0.075l0.063,0c0.014,0 0.022,0.007 0.022,0.022l0,0.334l-0.076,0l0,0.075Z" style="fill:rgb(23,30,110);fill-rule:nonzero;"/>            </g>        </g>    </g></svg>