<?xml version="1.0" encoding="UTF-8" standalone="no"?><!DOCTYPE svg PUBLIC "-//W3C//DTD SVG 1.1//EN" "http://www.w3.org/Graphics/SVG/1.1/DTD/svg11.dtd"><svg width="100%" height="100%" viewBox="0 0 1024 512" version="1.1" xmlns="http://www.w3.org/2000/svg" xmlns:xlink="http://www.w3.org/1999/xlink" xml:space="preserve" style="fill-rule:evenodd;clip-rule:evenodd;stroke-linejoin:round;stroke-miterlimit:2;"><title>Relendex</title><desc>We arrange short and medium term senior and mezzanine finance from £250,000 to £5 million for commercial property investments, residential investments and owner-occupied commercial properties.</desc>    <g transform="matrix(2.76843,0,0,2.76843,-353.684,-121.622)">        <g transform="matrix(0.466306,0,0,0.466306,108.943,91.7304)">            <path d="M99.524,47.746l1.006,-17.365c0,0 22.202,-8.302 39.559,-5.282c17.358,3.019 37.092,12.511 39.136,33.401c2.044,20.891 -0.768,33.04 -11.69,46.54c-10.922,13.5 -33.623,31.154 -37.375,46.193c-3.751,15.04 -3.242,23.13 -3.242,23.13l10.138,-6.431c0,0 -1.225,-10.317 2.288,-17.595c3.582,-7.419 5.837,-15.832 33.464,-33.893c13.36,-8.734 22.382,-21.394 24.162,-25.504c3.518,-8.118 8.162,-27.988 -0.938,-43.257c-9.1,-15.269 -20.191,-26.361 -39.509,-28.891c-15.296,-2.003 -30.966,-1.959 -38.857,-0.49c-11.823,2.201 -22.898,5.602 -22.898,5.602l0.494,19.62c0,0 -10.163,0.773 -13.45,5.955c-3.287,5.182 -1.522,6.206 -1.522,6.206c0,0 -9.543,3.815 -11.856,7.752c-2.312,3.937 -1.558,6.187 -1.558,6.187c0,0 -11.603,4.241 -17.372,11.284c-5.768,7.043 -8.81,9.781 -7.166,13.806c1.643,4.024 1.901,1.945 3.268,4.709c1.367,2.763 4.216,15.437 18.104,16.301c6.259,0.389 6.158,-6.913 9.711,-6.777c3.552,0.135 7.729,-1.28 6.85,-3.071c-1.477,-3.013 -7.082,-4.382 -9.987,-1c-2.905,3.381 -4.752,4.662 -9.351,4.924c-3.741,0.213 -9.707,-4.641 -10.798,-10.922c0,0 1.148,1.039 3.121,-1.976c1.972,-3.015 3.253,-5.481 -0.102,-7.631c-4.066,-2.605 -6.828,3.901 -6.819,4.108l-0.281,-2.827c0,0 7.813,-7.667 11.018,-9.034c3.205,-1.367 12.577,-7.996 12.577,-7.996c0,0 0.588,-7.475 3.312,-7.521c2.672,-1.909 12.017,-8.361 12.017,-8.361c0,0 -0.692,-3.678 0.234,-4.807c1.503,-1.833 14.312,-5.087 14.312,-5.087Z" style="fill:url(#_Linear1);"/>            <path d="M106.426,42.487l-0.076,4.798c0,0 12.08,3.757 15.898,8.153c3.097,3.566 8.65,11.326 -0.246,26.253c-8.896,14.928 -17.79,19.062 -25.263,23.785c-17.611,11.13 -23.778,13.702 -25.757,18.201c-0.878,1.994 -1.941,10.579 6.695,18.791c8.637,8.212 28.012,23.803 27.724,19.437c-0.138,-2.094 -27.691,-22.575 -28.454,-26.62c-1.128,-5.971 -1.006,-11.802 5.621,-15.642c6.628,-3.84 19.702,-12.625 25.216,-16.563c6.124,-4.374 17.738,-18.109 21.548,-28.923c2.839,-8.056 2.259,-17.948 -3.877,-25.183c-4.941,-5.825 -19.029,-6.487 -19.029,-6.487Z" style="fill:url(#_Linear2);"/>            <path d="M79.498,69.8c0,0 14.324,-9.063 15.628,-7.095c1.305,1.968 -5.82,5.485 -9.055,6.225c-3.702,0.847 -6.573,0.87 -6.573,0.87Z" style="fill:url(#_Linear3);"/>        </g>        <g transform="matrix(3.64182,0,0,2.19915,-169.842,-281.864)">            <g transform="matrix(18.1158,0,0,30,104.404,198.952)">                <path d="M0.723,0l-0.187,0c-0.041,-0.065 -0.079,-0.121 -0.112,-0.168c-0.033,-0.047 -0.07,-0.096 -0.109,-0.146l-0.07,0l0,0.314l-0.104,0l0,-0.595c0,-0.012 -0.002,-0.022 -0.005,-0.03c-0.004,-0.009 -0.011,-0.016 -0.023,-0.021c-0.008,-0.002 -0.019,-0.005 -0.032,-0.008c-0.013,-0.002 -0.024,-0.004 -0.033,-0.004l0,-0.035l0.32,0c0.029,0 0.056,0.003 0.082,0.009c0.026,0.006 0.049,0.016 0.07,0.029c0.02,0.013 0.036,0.03 0.048,0.051c0.012,0.021 0.018,0.047 0.018,0.076c0,0.027 -0.004,0.05 -0.012,0.071c-0.008,0.02 -0.02,0.038 -0.036,0.053c-0.015,0.014 -0.032,0.026 -0.053,0.037c-0.02,0.01 -0.043,0.019 -0.068,0.026c0.035,0.045 0.063,0.083 0.086,0.114c0.022,0.031 0.05,0.068 0.083,0.113c0.014,0.019 0.027,0.034 0.039,0.043c0.011,0.009 0.023,0.017 0.034,0.023c0.009,0.004 0.019,0.007 0.032,0.009c0.013,0.003 0.023,0.004 0.032,0.004l0,0.035Zm-0.257,-0.517c0,-0.042 -0.012,-0.075 -0.036,-0.099c-0.024,-0.025 -0.058,-0.037 -0.102,-0.037l-0.083,0l0,0.297l0.064,0c0.045,0 0.082,-0.014 0.112,-0.043c0.03,-0.029 0.045,-0.068 0.045,-0.118Z" style="fill:rgb(51,51,51);fill-rule:nonzero;"/>            </g>            <g transform="matrix(18.1158,0,0,30,116.134,198.952)">                <path d="M0.648,-0.186c0,0 -0.024,0.142 -0.029,0.178c-0.001,0.005 -0.005,0.008 -0.01,0.008l-0.468,0l0,-0.592c0,-0.011 -0.002,-0.021 -0.006,-0.029c-0.003,-0.008 -0.011,-0.015 -0.022,-0.02c-0.009,-0.004 -0.021,-0.008 -0.036,-0.011c-0.014,-0.004 -0.026,-0.006 -0.035,-0.006l0,-0.035l0.527,0c0.005,0 0.009,0.004 0.009,0.009l0,0.158l-0.036,0c-0.007,-0.025 -0.021,-0.051 -0.043,-0.079c-0.021,-0.028 -0.042,-0.043 -0.061,-0.045c-0.011,-0.002 -0.023,-0.003 -0.037,-0.003c-0.014,-0.001 -0.03,-0.001 -0.047,-0.001l-0.109,0l0,0.257l0.294,0l0,0.04l-0.294,0l0,0.226c0,0.02 0.001,0.037 0.004,0.049c0.003,0.012 0.009,0.021 0.017,0.027c0.009,0.006 0.02,0.01 0.035,0.012c0.014,0.002 0.035,0.003 0.062,0.003l0.043,0c0.017,0 0.032,-0.001 0.044,-0.002c0.013,-0.001 0.025,-0.004 0.039,-0.007c0.013,-0.003 0.022,-0.008 0.028,-0.014c0.015,-0.016 0.092,-0.108 0.096,-0.123l0.035,0Z" style="fill:rgb(51,51,51);fill-rule:nonzero;"/>            </g>            <g transform="matrix(18.1158,0,0,30,127.969,198.952)">                <path d="M0.218,0l-0.138,0l0,-0.604c0,-0.011 -0.002,-0.022 -0.007,-0.033c-0.006,-0.01 -0.012,-0.018 -0.02,-0.024c-0.006,-0.004 -0.017,-0.007 -0.032,-0.01c-0.016,-0.004 -0.011,-0.006 -0.02,-0.006l0,-0.032l0.205,0c0.004,0 0.007,0.002 0.009,0.004c0.002,0.002 0.003,0.005 0.003,0.008l0,0.697Z" style="fill:url(#_Linear4);fill-rule:nonzero;"/>            </g>            <g transform="matrix(18.1158,0,0,30,133.807,198.952)">                <path d="M0.463,-0.113c-0.02,0.038 -0.047,0.069 -0.081,0.092c-0.034,0.022 -0.073,0.034 -0.117,0.034c-0.039,0 -0.073,-0.007 -0.102,-0.021c-0.029,-0.013 -0.053,-0.032 -0.072,-0.055c-0.019,-0.024 -0.033,-0.051 -0.042,-0.083c-0.009,-0.031 -0.014,-0.064 -0.014,-0.099c0,-0.031 0.005,-0.062 0.015,-0.092c0.01,-0.03 0.025,-0.057 0.044,-0.081c0.018,-0.023 0.041,-0.042 0.069,-0.056c0.027,-0.014 0.058,-0.021 0.092,-0.021c0.036,0 0.066,0.005 0.091,0.016c0.025,0.012 0.045,0.027 0.061,0.046c0.015,0.018 0.026,0.04 0.033,0.064c0.008,0.025 0.011,0.052 0.011,0.081l0,0.032l-0.319,0c0,0.032 0.003,0.06 0.009,0.086c0.006,0.026 0.016,0.048 0.029,0.068c0.013,0.019 0.029,0.034 0.05,0.045c0.02,0.011 0.045,0.016 0.073,0.016c0.029,0 0.054,-0.007 0.075,-0.02c0.021,-0.014 0.041,-0.038 0.061,-0.073l0.034,0.021Zm-0.108,-0.184c0,-0.018 -0.002,-0.038 -0.005,-0.058c-0.003,-0.021 -0.008,-0.039 -0.015,-0.053c-0.007,-0.015 -0.017,-0.027 -0.03,-0.036c-0.013,-0.01 -0.03,-0.014 -0.051,-0.014c-0.034,0 -0.062,0.014 -0.085,0.042c-0.022,0.029 -0.035,0.068 -0.037,0.119l0.223,0Z" style="fill:url(#_Linear5);fill-rule:nonzero;"/>            </g>            <g transform="matrix(18.1158,0,0,30,142.891,198.952)">                <path d="M0.533,0l-0.11,0l0,-0.33c0,-0.034 -0.008,-0.06 -0.024,-0.079c-0.016,-0.018 -0.054,-0.028 -0.077,-0.028c-0.017,0 -0.033,0.003 -0.048,0.009c-0.014,0.005 -0.027,0.011 -0.038,0.019c-0.01,0.008 -0.019,0.016 -0.025,0.024c-0.007,0.009 -0.011,0.016 -0.014,0.021l0,0.364l-0.109,0l0,-0.379c0,-0.011 -0.002,-0.022 -0.007,-0.031c-0.005,-0.009 -0.011,-0.017 -0.02,-0.023c-0.006,-0.004 -0.056,-0.037 -0.066,-0.038l-0.002,-0.037c0,0 0.148,0.002 0.187,0.003c0.006,0 0.01,0.004 0.011,0.009c0.001,0.024 0.006,0.083 0.006,0.083l0.002,0c0.008,-0.007 0.018,-0.017 0.03,-0.028c0.011,-0.011 0.022,-0.019 0.033,-0.026c0.012,-0.008 0.026,-0.015 0.043,-0.02c0.016,-0.005 0.035,-0.008 0.056,-0.008c0.046,0 0.116,0.015 0.139,0.044c0.022,0.028 0.033,0.067 0.033,0.115l0,0.336Z" style="fill:url(#_Linear6);fill-rule:nonzero;"/>            </g>            <g transform="matrix(18.1158,0,0,30,153.921,198.952)">                <path d="M0.501,0.002l-0.106,0l-0.008,-0.052l-0.004,-0.001c-0.017,0.019 -0.038,0.035 -0.062,0.047c-0.025,0.012 -0.051,0.018 -0.077,0.018c-0.028,0 -0.054,-0.006 -0.08,-0.019c-0.025,-0.012 -0.047,-0.029 -0.066,-0.051c-0.02,-0.023 -0.035,-0.05 -0.046,-0.081c-0.011,-0.032 -0.017,-0.067 -0.017,-0.105c0,-0.035 0.006,-0.068 0.018,-0.099c0.012,-0.031 0.029,-0.058 0.05,-0.082c0.02,-0.022 0.044,-0.039 0.073,-0.052c0.029,-0.013 0.058,-0.02 0.088,-0.02c0.023,0 0.045,0.003 0.066,0.009c0.022,0.006 0.041,0.013 0.056,0.022l0,-0.132c0,-0.013 -0.002,-0.026 -0.007,-0.037c-0.004,-0.011 -0.011,-0.02 -0.019,-0.026c-0.009,-0.006 -0.021,-0.01 -0.037,-0.013c-0.015,-0.003 -0.032,-0.005 -0.05,-0.006l0,-0.031c0,0 0.18,0.003 0.22,0.004c0.004,0 0.008,0.004 0.008,0.008l0,0.699Zm-0.115,-0.095l0,-0.282c-0.002,-0.008 -0.007,-0.018 -0.012,-0.027c-0.006,-0.01 -0.014,-0.019 -0.022,-0.027c-0.01,-0.008 -0.021,-0.015 -0.034,-0.02c-0.012,-0.006 -0.027,-0.009 -0.044,-0.009c-0.02,0 -0.038,0.006 -0.054,0.016c-0.016,0.01 -0.031,0.024 -0.044,0.043c-0.012,0.018 -0.021,0.041 -0.028,0.07c-0.007,0.028 -0.011,0.059 -0.011,0.093c0,0.028 0.003,0.052 0.008,0.075c0.005,0.022 0.014,0.043 0.026,0.062c0.012,0.018 0.026,0.033 0.044,0.044c0.018,0.011 0.039,0.016 0.063,0.016c0.026,0 0.048,-0.005 0.065,-0.017c0.017,-0.011 0.032,-0.024 0.043,-0.037Z" style="fill:url(#_Linear7);fill-rule:nonzero;"/>            </g>            <g transform="matrix(18.1158,0,0,30,164.65,198.952)">                <path d="M0.463,-0.113c-0.02,0.038 -0.047,0.069 -0.081,0.092c-0.034,0.022 -0.073,0.034 -0.117,0.034c-0.039,0 -0.073,-0.007 -0.102,-0.021c-0.029,-0.013 -0.053,-0.032 -0.072,-0.055c-0.019,-0.024 -0.033,-0.051 -0.042,-0.083c-0.009,-0.031 -0.014,-0.064 -0.014,-0.099c0,-0.031 0.005,-0.062 0.015,-0.092c0.01,-0.03 0.025,-0.057 0.044,-0.081c0.018,-0.023 0.041,-0.042 0.069,-0.056c0.027,-0.014 0.058,-0.021 0.092,-0.021c0.036,0 0.066,0.005 0.091,0.016c0.025,0.012 0.045,0.027 0.061,0.046c0.015,0.018 0.026,0.04 0.033,0.064c0.008,0.025 0.011,0.052 0.011,0.081l0,0.032l-0.319,0c0,0.032 0.003,0.06 0.009,0.086c0.006,0.026 0.016,0.048 0.029,0.068c0.013,0.019 0.029,0.034 0.05,0.045c0.02,0.011 0.045,0.016 0.073,0.016c0.029,0 0.054,-0.007 0.075,-0.02c0.021,-0.014 0.041,-0.038 0.061,-0.073l0.034,0.021Zm-0.108,-0.184c0,-0.018 -0.002,-0.038 -0.005,-0.058c-0.003,-0.021 -0.008,-0.039 -0.015,-0.053c-0.007,-0.015 -0.017,-0.027 -0.03,-0.036c-0.013,-0.01 -0.03,-0.014 -0.051,-0.014c-0.034,0 -0.062,0.014 -0.085,0.042c-0.022,0.029 -0.035,0.068 -0.037,0.119l0.223,0Z" style="fill:url(#_Linear8);fill-rule:nonzero;"/>            </g>            <g transform="matrix(18.1158,0,0,30,173.734,198.952)">                <path d="M0.516,0c0,0 -0.109,-0.001 -0.152,-0.002c-0.011,0 -0.022,-0.006 -0.027,-0.016c-0.022,-0.037 -0.076,-0.132 -0.092,-0.155c-0.017,0.021 -0.14,0.167 -0.14,0.167l-0.099,0.006c0,0 0.174,-0.196 0.203,-0.235c-0.017,-0.024 -0.037,-0.053 -0.061,-0.087c-0.024,-0.034 -0.044,-0.063 -0.059,-0.086c-0.009,-0.012 -0.018,-0.022 -0.029,-0.03c-0.011,-0.007 -0.03,-0.034 -0.049,-0.034l-0.004,-0.038c0,0 0.108,0.001 0.144,0.001c0.008,0 0.015,0.004 0.02,0.01c0.025,0.032 0.104,0.136 0.119,0.158c0.012,-0.016 0.137,-0.165 0.137,-0.165l0.072,0.001c0,0 -0.156,0.185 -0.182,0.22c0.029,0.042 0.176,0.252 0.196,0.254l0.003,0.031Z" style="fill:url(#_Linear9);fill-rule:nonzero;"/>            </g>        </g>    </g>    <defs>        <linearGradient id="_Linear1" x1="0" y1="0" x2="1" y2="0" gradientUnits="userSpaceOnUse" gradientTransform="matrix(9.10945e-15,-148.769,148.769,9.10945e-15,134.436,168.868)"><stop offset="0" style="stop-color:rgb(35,98,168);stop-opacity:1"/><stop offset="1" style="stop-color:rgb(36,128,197);stop-opacity:1"/></linearGradient>        <linearGradient id="_Linear2" x1="0" y1="0" x2="1" y2="0" gradientUnits="userSpaceOnUse" gradientTransform="matrix(9.10945e-15,-148.769,148.769,9.10945e-15,134.436,168.868)"><stop offset="0" style="stop-color:rgb(35,98,168);stop-opacity:1"/><stop offset="1" style="stop-color:rgb(36,128,197);stop-opacity:1"/></linearGradient>        <linearGradient id="_Linear3" x1="0" y1="0" x2="1" y2="0" gradientUnits="userSpaceOnUse" gradientTransform="matrix(9.10945e-15,-148.769,148.769,9.10945e-15,134.436,168.868)"><stop offset="0" style="stop-color:rgb(35,98,168);stop-opacity:1"/><stop offset="1" style="stop-color:rgb(36,128,197);stop-opacity:1"/></linearGradient>        <linearGradient id="_Linear4" x1="0" y1="0" x2="1" y2="0" gradientUnits="userSpaceOnUse" gradientTransform="matrix(1.24121e-17,-0.670865,0.202706,4.10786e-17,0.12707,-0.0247812)"><stop offset="0" style="stop-color:rgb(35,98,168);stop-opacity:1"/><stop offset="1" style="stop-color:rgb(36,128,197);stop-opacity:1"/></linearGradient>        <linearGradient id="_Linear5" x1="0" y1="0" x2="1" y2="0" gradientUnits="userSpaceOnUse" gradientTransform="matrix(2.4439e-17,-0.480809,0.399119,2.94411e-17,0.283428,-0.00506535)"><stop offset="0" style="stop-color:rgb(35,98,168);stop-opacity:1"/><stop offset="1" style="stop-color:rgb(36,128,197);stop-opacity:1"/></linearGradient>        <linearGradient id="_Linear6" x1="0" y1="0" x2="1" y2="0" gradientUnits="userSpaceOnUse" gradientTransform="matrix(3.08647e-17,-0.480868,0.504058,2.94447e-17,0.306509,-0.0177629)"><stop offset="0" style="stop-color:rgb(35,98,168);stop-opacity:1"/><stop offset="1" style="stop-color:rgb(36,128,197);stop-opacity:1"/></linearGradient>        <linearGradient id="_Linear7" x1="0" y1="0" x2="1" y2="0" gradientUnits="userSpaceOnUse" gradientTransform="matrix(2.66052e-17,-0.68381,0.434496,4.18713e-17,0.305435,-0.0115874)"><stop offset="0" style="stop-color:rgb(35,98,168);stop-opacity:1"/><stop offset="1" style="stop-color:rgb(36,128,197);stop-opacity:1"/></linearGradient>        <linearGradient id="_Linear8" x1="0" y1="0" x2="1" y2="0" gradientUnits="userSpaceOnUse" gradientTransform="matrix(2.4439e-17,-0.480809,0.399119,2.94411e-17,0.283428,-0.00506535)"><stop offset="0" style="stop-color:rgb(35,98,168);stop-opacity:1"/><stop offset="1" style="stop-color:rgb(36,128,197);stop-opacity:1"/></linearGradient>        <linearGradient id="_Linear9" x1="0" y1="0" x2="1" y2="0" gradientUnits="userSpaceOnUse" gradientTransform="matrix(2.91554e-17,-0.482569,0.476144,2.95488e-17,0.302045,-0.0178257)"><stop offset="0" style="stop-color:rgb(35,98,168);stop-opacity:1"/><stop offset="1" style="stop-color:rgb(36,128,197);stop-opacity:1"/></linearGradient>    </defs></svg>