<?xml version="1.0" encoding="UTF-8" standalone="no"?><!DOCTYPE svg PUBLIC "-//W3C//DTD SVG 1.1//EN" "http://www.w3.org/Graphics/SVG/1.1/DTD/svg11.dtd"><svg width="100%" height="100%" viewBox="0 0 1024 512" version="1.1" xmlns="http://www.w3.org/2000/svg" xmlns:xlink="http://www.w3.org/1999/xlink" xml:space="preserve" style="fill-rule:evenodd;clip-rule:evenodd;stroke-linejoin:round;stroke-miterlimit:2;"><title>VR-Crowd</title><desc></desc>    <g id="Ebene_x0020_1" transform="matrix(4.06842,0,0,4.06842,-69.6342,99.8211)">        <path d="M32.731,41.5c0.328,1.019 0.619,1.92 0.874,2.703c0.254,0.783 0.527,1.665 0.819,2.648c0.291,0.946 0.546,1.81 0.764,2.593c0.219,0.783 0.473,1.647 0.765,2.594c0.291,-0.947 0.564,-1.829 0.819,-2.648c0.254,-0.819 0.5,-1.629 0.737,-2.43c0.236,-0.801 0.482,-1.611 0.736,-2.43c0.255,-0.819 0.528,-1.701 0.819,-2.647l6.88,-21.457l7.643,0l-13.158,38.546l-9.5,0l-13.322,-38.546l8.245,0l6.879,21.074l0,0Z" style="fill:rgb(236,105,31);fill-rule:nonzero;"/>        <path id="_1" d="M64.398,36.859c0.619,0.036 1.201,0.055 1.747,0.055l1.802,0c0.473,0 0.992,-0.01 1.556,-0.028c0.564,-0.018 1.128,-0.109 1.692,-0.273c0.565,-0.164 1.111,-0.418 1.638,-0.764c0.528,-0.346 1.01,-0.828 1.447,-1.447c0.182,-0.291 0.373,-0.691 0.573,-1.201c0.2,-0.51 0.282,-1.11 0.246,-1.802c0,-0.655 -0.091,-1.219 -0.273,-1.693c-0.183,-0.473 -0.364,-0.855 -0.546,-1.147c-0.474,-0.655 -1.092,-1.146 -1.857,-1.474c-0.764,-0.327 -1.747,-0.527 -2.948,-0.6c-0.291,0 -0.528,-0.009 -0.71,-0.028c-0.182,-0.018 -0.4,-0.027 -0.655,-0.027l-3.713,0l0,10.428l0.001,0.001Zm21.347,22.112l-8.626,0l-3.712,-9.664c-0.583,-1.383 -1.074,-2.511 -1.474,-3.385c-0.401,-0.873 -0.965,-1.583 -1.693,-2.129c-0.291,-0.218 -0.555,-0.373 -0.792,-0.464c-0.237,-0.091 -0.501,-0.173 -0.791,-0.245c-0.364,-0.073 -0.91,-0.119 -1.638,-0.137c-0.728,-0.018 -1.566,-0.027 -2.512,-0.027l0,16.051l-7.807,0l0,-38.545l11.847,0c0.838,0 1.793,0.018 2.867,0.054c1.074,0.036 2.166,0.164 3.275,0.382c1.111,0.219 2.194,0.556 3.249,1.01c1.055,0.455 1.984,1.101 2.784,1.938c0.255,0.255 0.483,0.537 0.683,0.847c0.2,0.309 0.391,0.609 0.573,0.9c0.291,0.546 0.518,1.083 0.682,1.611c0.164,0.528 0.282,1.028 0.355,1.501c0.073,0.473 0.118,0.883 0.137,1.228c0.018,0.346 0.027,0.592 0.027,0.737c0,1.857 -0.355,3.385 -1.065,4.587c-0.71,1.201 -1.538,2.147 -2.484,2.839c-0.182,0.109 -0.355,0.219 -0.519,0.328c-0.163,0.109 -0.391,0.236 -0.682,0.382c-0.619,0.291 -1.229,0.491 -1.829,0.601c-0.601,0.109 -1.21,0.2 -1.829,0.273c0.073,0.036 0.255,0.073 0.546,0.109c0.291,0.036 0.582,0.091 0.874,0.164c0.473,0.182 0.9,0.455 1.282,0.819c0.383,0.363 0.729,0.764 1.038,1.201c0.309,0.436 0.564,0.891 0.764,1.365c0.201,0.473 0.392,0.891 0.574,1.255l5.896,14.414l0,0Z" style="fill:rgb(236,105,31);fill-rule:nonzero;"/>        <path id="_2" d="M103.653,41.118l0,6.115l-14.413,0l0,-6.115l14.413,0Z" style="fill:rgb(236,105,31);fill-rule:nonzero;"/>        <path id="_3" d="M137.34,27.96c-0.291,-0.146 -0.555,-0.273 -0.792,-0.383c-0.237,-0.109 -0.518,-0.236 -0.846,-0.382c-0.655,-0.254 -1.32,-0.455 -1.993,-0.6c-0.673,-0.146 -1.292,-0.255 -1.856,-0.328c-0.564,-0.073 -1.065,-0.118 -1.502,-0.136c-0.436,-0.019 -0.746,-0.028 -0.928,-0.028c-1.019,0 -2.074,0.091 -3.166,0.273c-1.092,0.182 -2.148,0.528 -3.167,1.038c-1.019,0.509 -1.983,1.201 -2.893,2.075c-0.91,0.873 -1.675,1.983 -2.293,3.33c-0.292,0.582 -0.583,1.429 -0.874,2.539c-0.291,1.11 -0.418,2.429 -0.382,3.958c0,1.092 0.136,2.257 0.409,3.494c0.273,1.238 0.71,2.448 1.31,3.631c0.601,1.183 1.411,2.284 2.43,3.303c1.019,1.02 2.293,1.82 3.822,2.403c0.509,0.218 1.183,0.418 2.02,0.6c0.837,0.182 1.856,0.273 3.057,0.273c0.473,0 1.01,-0.027 1.611,-0.081c0.6,-0.055 1.201,-0.128 1.802,-0.219c0.6,-0.091 1.192,-0.2 1.774,-0.327c0.582,-0.128 1.11,-0.283 1.583,-0.464c0.292,-0.073 0.537,-0.164 0.737,-0.273c0.2,-0.11 0.446,-0.219 0.737,-0.328l0.437,6.879c-0.873,0.219 -1.674,0.41 -2.402,0.574c-0.728,0.163 -1.447,0.3 -2.157,0.409c-0.709,0.11 -1.428,0.191 -2.156,0.246c-0.728,0.054 -1.529,0.081 -2.403,0.081c-1.419,0 -2.821,-0.081 -4.204,-0.245c-1.383,-0.164 -2.748,-0.464 -4.094,-0.901c-2.912,-0.91 -5.424,-2.439 -7.535,-4.586c-0.873,-0.873 -1.638,-1.829 -2.293,-2.867c-0.655,-1.037 -1.201,-2.138 -1.638,-3.303c-0.473,-1.274 -0.801,-2.575 -0.983,-3.904c-0.182,-1.328 -0.273,-2.666 -0.273,-4.013c0,-1.71 0.128,-3.184 0.382,-4.422c0.255,-1.238 0.492,-2.202 0.71,-2.893c1.092,-3.422 2.839,-6.097 5.242,-8.026c2.402,-1.929 5.15,-3.24 8.244,-3.931c0.546,-0.146 1.328,-0.282 2.348,-0.41c1.019,-0.127 2.22,-0.19 3.603,-0.19c2.256,0.036 4.113,0.227 5.569,0.573c1.456,0.346 2.657,0.664 3.603,0.955l-0.6,6.606l0,0Z" style="fill:rgb(236,105,31);fill-rule:nonzero;"/>        <path id="_4" d="M159.67,37.132c-0.218,-0.073 -0.51,-0.155 -0.874,-0.245c-0.364,-0.091 -0.819,-0.137 -1.365,-0.137c-0.218,0 -0.61,0.027 -1.174,0.082c-0.564,0.055 -1.192,0.228 -1.883,0.518c-0.692,0.292 -1.365,0.756 -2.02,1.393c-0.656,0.637 -1.165,1.538 -1.529,2.702c-0.182,0.437 -0.31,0.892 -0.383,1.365c-0.072,0.473 -0.145,1.147 -0.218,2.02c-0.036,0.546 -0.055,1.038 -0.055,1.475l0,12.666l-7.425,0l0,-21.184c0,-1.383 -0.009,-2.62 -0.027,-3.712c-0.018,-1.092 -0.064,-2.33 -0.137,-3.713l6.989,0l0,6.879c0.182,-0.728 0.346,-1.283 0.491,-1.665c0.146,-0.382 0.309,-0.755 0.492,-1.119c0.837,-1.565 1.901,-2.703 3.193,-3.412c1.293,-0.71 2.594,-1.065 3.904,-1.065c0.328,0 0.665,0.018 1.01,0.055c0.346,0.036 0.683,0.091 1.01,0.164l0,6.934l0.001,-0.001Z" style="fill:rgb(236,105,31);fill-rule:nonzero;"/>        <path id="_5" d="M175.503,35.276c-0.728,0 -1.474,0.146 -2.238,0.437c-0.473,0.182 -0.892,0.391 -1.256,0.628c-0.364,0.236 -0.619,0.427 -0.764,0.573c-0.801,0.691 -1.475,1.665 -2.02,2.921c-0.546,1.256 -0.819,2.811 -0.819,4.668c0,1.638 0.227,3.075 0.682,4.313c0.455,1.237 0.937,2.166 1.447,2.784c0.437,0.51 0.846,0.901 1.228,1.174c0.382,0.273 0.665,0.446 0.846,0.518c0.619,0.328 1.211,0.519 1.775,0.573c0.564,0.055 0.937,0.082 1.119,0.082c1.055,0 1.947,-0.182 2.675,-0.546c0.728,-0.364 1.292,-0.746 1.693,-1.146c0.837,-0.765 1.483,-1.793 1.938,-3.085c0.455,-1.293 0.664,-2.921 0.627,-4.887c-0.036,-1.092 -0.19,-2.293 -0.463,-3.603c-0.273,-1.31 -0.938,-2.493 -1.993,-3.549c-0.51,-0.509 -1.11,-0.946 -1.802,-1.31c-0.692,-0.364 -1.584,-0.546 -2.675,-0.546l0,0.001Zm-0.054,-5.46c1.128,0 2.247,0.1 3.357,0.3c1.111,0.2 2.175,0.519 3.195,0.956c1.529,0.655 2.775,1.456 3.739,2.402c0.965,0.946 1.739,1.892 2.321,2.839c0.582,0.946 1.01,1.829 1.283,2.648c0.273,0.819 0.446,1.41 0.518,1.774c0.219,0.91 0.346,1.72 0.382,2.43c0.037,0.71 0.055,1.21 0.055,1.501c0,1.966 -0.264,3.722 -0.791,5.269c-0.528,1.547 -1.22,2.894 -2.075,4.04c-0.855,1.147 -1.82,2.093 -2.894,2.839c-1.073,0.746 -2.156,1.319 -3.248,1.72c-1.274,0.473 -2.475,0.746 -3.604,0.819c-1.128,0.073 -1.893,0.109 -2.293,0.109c-0.909,0 -1.81,-0.064 -2.702,-0.191c-0.892,-0.127 -1.775,-0.336 -2.648,-0.628c-1.092,-0.364 -2.202,-0.928 -3.331,-1.692c-1.128,-0.765 -2.147,-1.72 -3.057,-2.867c-0.91,-1.146 -1.647,-2.511 -2.211,-4.094c-0.564,-1.584 -0.846,-3.395 -0.846,-5.433c0.036,-2.584 0.473,-4.768 1.31,-6.551c0.838,-1.784 1.802,-3.204 2.894,-4.259c0.655,-0.619 1.228,-1.074 1.719,-1.365c0.492,-0.291 0.847,-0.51 1.065,-0.655c0.728,-0.401 1.756,-0.82 3.085,-1.256c1.328,-0.437 2.921,-0.656 4.777,-0.656l0,0.001Z" style="fill:rgb(236,105,31);fill-rule:nonzero;"/>        <path id="_6" d="M198.926,30.362l4.367,14.25c0.255,0.947 0.483,1.784 0.683,2.512c0.2,0.728 0.409,1.564 0.627,2.511c0.146,0.582 0.264,1.101 0.355,1.556c0.091,0.455 0.209,0.992 0.355,1.61c0.145,-0.983 0.291,-1.883 0.437,-2.702c0.145,-0.819 0.318,-1.62 0.518,-2.403c0.201,-0.782 0.401,-1.574 0.601,-2.374c0.2,-0.801 0.428,-1.675 0.683,-2.621l3.548,-12.339l8.735,0l4.15,13.922c0.255,0.838 0.482,1.602 0.683,2.294c0.2,0.691 0.409,1.455 0.627,2.293c0.183,0.691 0.337,1.31 0.464,1.856c0.128,0.546 0.283,1.164 0.464,1.856c0.11,-0.582 0.2,-1.101 0.273,-1.555c0.073,-0.456 0.164,-0.974 0.273,-1.557c0.255,-1.237 0.519,-2.329 0.792,-3.275c0.273,-0.947 0.556,-2.02 0.846,-3.221l3.604,-12.613l7.261,0l-9.008,28.61l-8.572,0l-4.204,-13.54c-0.364,-1.202 -0.665,-2.239 -0.901,-3.112c-0.237,-0.874 -0.437,-1.647 -0.6,-2.321c-0.164,-0.673 -0.301,-1.301 -0.41,-1.883c-0.109,-0.583 -0.218,-1.202 -0.328,-1.857c-0.109,0.765 -0.218,1.456 -0.327,2.075c-0.109,0.619 -0.255,1.292 -0.437,2.02c-0.182,0.728 -0.346,1.356 -0.492,1.884c-0.145,0.527 -0.309,1.137 -0.491,1.829l-4.368,14.905l-8.571,0l-9.664,-28.61l8.026,0l0.001,0Z" style="fill:rgb(236,105,31);fill-rule:nonzero;"/>        <path id="_7" d="M254.123,35.986c-0.837,0 -1.583,0.127 -2.238,0.382c-0.619,0.255 -1.119,0.555 -1.501,0.901c-0.383,0.346 -0.665,0.664 -0.846,0.955c-0.51,0.655 -0.929,1.511 -1.256,2.566c-0.328,1.056 -0.473,2.348 -0.437,3.877l0,0.819c0,0.4 0.036,0.873 0.109,1.419c0.073,0.546 0.191,1.128 0.355,1.747c0.164,0.619 0.41,1.22 0.737,1.802c0.109,0.182 0.273,0.437 0.491,0.765c0.219,0.327 0.564,0.691 1.038,1.092c0.619,0.509 1.237,0.864 1.856,1.064c0.619,0.2 1.238,0.301 1.857,0.301c0.218,0 0.619,-0.036 1.201,-0.109c0.582,-0.073 1.183,-0.31 1.802,-0.71c0.618,-0.364 1.191,-0.865 1.719,-1.502c0.528,-0.637 0.974,-1.556 1.338,-2.757c0.291,-0.837 0.455,-1.601 0.491,-2.293c0.036,-0.692 0.055,-1.165 0.055,-1.42c0,-0.546 -0.046,-1.156 -0.137,-1.829c-0.091,-0.673 -0.245,-1.356 -0.464,-2.047c-0.218,-0.692 -0.527,-1.356 -0.928,-1.993c-0.4,-0.637 -0.91,-1.21 -1.529,-1.72c-0.327,-0.291 -0.818,-0.582 -1.474,-0.873c-0.655,-0.292 -1.401,-0.437 -2.238,-0.437l-0.001,0Zm14.196,-18.727l0,41.712l-7.043,0l0,-5.569c-0.183,0.437 -0.346,0.856 -0.492,1.256c-0.145,0.401 -0.4,0.819 -0.764,1.256c-0.728,0.946 -1.757,1.775 -3.085,2.484c-1.328,0.71 -2.976,1.065 -4.941,1.065c-0.364,0 -1.001,-0.046 -1.911,-0.137c-0.91,-0.091 -1.893,-0.391 -2.948,-0.901c-2.075,-0.982 -3.767,-2.602 -5.077,-4.859c-1.311,-2.256 -1.966,-5.187 -1.966,-8.79c0,-2.73 0.355,-5.014 1.064,-6.852c0.71,-1.838 1.593,-3.34 2.648,-4.504c1.056,-1.092 2.048,-1.847 2.976,-2.266c0.928,-0.418 1.593,-0.682 1.993,-0.792c0.764,-0.218 1.465,-0.345 2.102,-0.382c0.637,-0.036 1.101,-0.054 1.392,-0.054c1.274,0 2.593,0.227 3.959,0.682c1.364,0.456 2.574,1.411 3.63,2.867c0.219,0.328 0.41,0.646 0.574,0.955c0.163,0.31 0.391,0.774 0.682,1.392l0,-18.563l7.207,0l0,0Z" style="fill:rgb(236,105,31);fill-rule:nonzero;"/>    </g></svg>