<?xml version="1.0" encoding="UTF-8" standalone="no"?><!DOCTYPE svg PUBLIC "-//W3C//DTD SVG 1.1//EN" "http://www.w3.org/Graphics/SVG/1.1/DTD/svg11.dtd"><svg width="100%" height="100%" viewBox="0 0 1024 512" version="1.1" xmlns="http://www.w3.org/2000/svg" xmlns:xlink="http://www.w3.org/1999/xlink" xml:space="preserve" style="fill-rule:evenodd;clip-rule:evenodd;stroke-linejoin:round;stroke-miterlimit:2;"><title>FundingKnight</title><desc>FundingKnight is a peer to peer lender providing SMEs fast access to business loans with a personal touch.FundingKnight is one of just a handful of UK Peer-to-Business lenders. We use Peer-to-Business lending to help people like you who want a better return on your savings to invest directly in the best of British business. Our Borrowers - well established SMEs - benefit from flexible and competitive business loans.</desc>    <g transform="matrix(2.06028,0,0,2.06028,-290.008,-88.5748)">        <g transform="matrix(4.16667,0,0,4.16667,297.469,166.128)">            <path d="M0,-5.545l-0.739,0l0,-1.261l4.602,0c0.545,0 0.772,0.239 0.772,0.773l0,1.227l-1.34,0l0,-0.489c0,-0.159 -0.091,-0.25 -0.251,-0.25l-1.556,0l0,2.284l2.579,0l0,1.261l-2.579,0l0,3.261l-1.488,0l0,-6.806Z" style="fill:rgb(63,151,211);fill-rule:nonzero;"/>        </g>        <g transform="matrix(4.16667,0,0,4.16667,321.992,165.794)">            <path d="M0,-2.977c0,-0.17 -0.091,-0.25 -0.25,-0.25l-0.455,0l0,-1.227l1.375,0c0.534,0 0.761,0.239 0.761,0.761l0,2.67c0,0.705 0.182,1.182 0.898,1.182c1.045,0 1.624,-0.92 1.624,-1.954l0,-2.659l1.443,0l0,4.329c0,0.159 0.091,0.25 0.25,0.25l0.455,0l0,1.216l-1.33,0c-0.499,0 -0.761,-0.239 -0.761,-0.648l0,-0.159c0,-0.137 0.011,-0.261 0.011,-0.261l-0.022,0c-0.273,0.602 -1,1.204 -2,1.204c-1.238,0 -1.999,-0.625 -1.999,-2.204l0,-2.25Z" style="fill:rgb(63,151,211);fill-rule:nonzero;"/>        </g>        <g transform="matrix(4.16667,0,0,4.16667,352.763,164.661)">            <path d="M0,-2.705c0,-0.17 -0.091,-0.25 -0.25,-0.25l-0.455,0l0,-1.227l1.329,0c0.512,0 0.762,0.239 0.762,0.648l0,0.171c0,0.124 -0.023,0.249 -0.023,0.249l0.023,0c0.25,-0.488 0.874,-1.204 2.045,-1.204c1.283,0 2.022,0.67 2.022,2.204l0,2.261c0,0.159 0.091,0.25 0.25,0.25l0.455,0l0,1.216l-1.375,0c-0.545,0 -0.773,-0.227 -0.773,-0.773l0,-2.659c0,-0.704 -0.181,-1.181 -0.909,-1.181c-0.773,0 -1.352,0.488 -1.556,1.181c-0.08,0.239 -0.114,0.5 -0.114,0.773l0,2.659l-1.431,0l0,-4.318Z" style="fill:rgb(63,151,211);fill-rule:nonzero;"/>        </g>        <g transform="matrix(4.16667,0,0,4.16667,392.245,163.049)">            <path d="M0,-3.931c1.261,0 1.67,0.704 1.67,0.704l0.023,0c0,0 -0.012,-0.148 -0.012,-0.341l0,-1.022c0,-0.171 -0.09,-0.25 -0.25,-0.25l-0.454,0l0,-1.227l1.375,0c0.534,0 0.773,0.238 0.773,0.772l0,5.829c0,0.159 0.09,0.249 0.249,0.249l0.444,0l0,1.217l-1.33,0c-0.522,0 -0.715,-0.251 -0.715,-0.592l0,-0.215l-0.023,0c0,0 -0.477,0.943 -1.807,0.943c-1.567,0 -2.579,-1.239 -2.579,-3.034c0,-1.841 1.102,-3.033 2.636,-3.033m1.716,3.022c0,-0.898 -0.466,-1.784 -1.432,-1.784c-0.795,0 -1.455,0.647 -1.455,1.795c0,1.102 0.581,1.818 1.433,1.818c0.749,0 1.454,-0.545 1.454,-1.829" style="fill:rgb(63,151,211);fill-rule:nonzero;"/>        </g>        <g transform="matrix(4.16667,0,0,4.16667,413.783,155.761)">            <path d="M0,-0.569c0,-0.17 -0.09,-0.25 -0.25,-0.25l-0.454,0l0,-1.227l1.375,0c0.534,0 0.761,0.239 0.761,0.773l0,3.556c0,0.159 0.091,0.25 0.25,0.25l0.454,0l0,1.216l-1.374,0c-0.534,0 -0.762,-0.227 -0.762,-0.773l0,-3.545Zm0.069,-3.749l1.25,0l0,1.33l-1.25,0l0,-1.33Z" style="fill:rgb(63,151,211);fill-rule:nonzero;"/>        </g>        <g transform="matrix(4.16667,0,0,4.16667,428.225,164.661)">            <path d="M0,-2.705c0,-0.17 -0.091,-0.25 -0.25,-0.25l-0.455,0l0,-1.227l1.33,0c0.511,0 0.761,0.239 0.761,0.648l0,0.171c0,0.124 -0.023,0.249 -0.023,0.249l0.023,0c0.25,-0.488 0.875,-1.204 2.045,-1.204c1.284,0 2.023,0.67 2.023,2.204l0,2.261c0,0.159 0.09,0.25 0.249,0.25l0.455,0l0,1.216l-1.375,0c-0.545,0 -0.773,-0.227 -0.773,-0.773l0,-2.659c0,-0.704 -0.181,-1.181 -0.908,-1.181c-0.773,0 -1.353,0.488 -1.557,1.181c-0.079,0.239 -0.114,0.5 -0.114,0.773l0,2.659l-1.431,0l0,-4.318Z" style="fill:rgb(63,151,211);fill-rule:nonzero;"/>        </g>        <g transform="matrix(4.16667,0,0,4.16667,467.423,181.32)">            <path d="M0,-8.316c1.341,0 1.784,0.818 1.784,0.818l0.022,0l0,-0.148c0,-0.261 0.182,-0.534 0.637,-0.534l1.34,0l0,1.227l-0.443,0c-0.147,0 -0.25,0.08 -0.25,0.227l0,3.988c0,1.988 -1.545,2.738 -3.056,2.738c-0.727,0 -1.5,-0.204 -2.056,-0.5l0.443,-1.136c0,0 0.715,0.387 1.602,0.387c0.875,0 1.636,-0.375 1.636,-1.421l0,-0.273c0,-0.136 0.011,-0.306 0.011,-0.306l-0.023,0c-0.34,0.488 -0.84,0.75 -1.613,0.75c-1.658,0 -2.602,-1.341 -2.602,-2.932c0,-1.59 0.898,-2.885 2.568,-2.885m1.693,2.897c0,-1.318 -0.659,-1.67 -1.443,-1.67c-0.875,0 -1.352,0.636 -1.352,1.613c0,1.011 0.512,1.761 1.443,1.761c0.693,0 1.352,-0.398 1.352,-1.704" style="fill:rgb(63,151,211);fill-rule:nonzero;"/>        </g>        <g transform="matrix(4.16667,0,0,4.16667,489.344,165.087)">            <path d="M0,-5.045c0,-0.159 -0.091,-0.25 -0.25,-0.25l-0.489,0l0,-1.261l1.455,0c0.545,0 0.772,0.238 0.772,0.772l0,2.511l0.568,0c0.295,0 0.512,-0.023 0.648,-0.261l1.625,-3.022l1.635,0l-1.818,3.318c-0.249,0.454 -0.511,0.59 -0.511,0.59l0,0.023c0,0 0.273,0.068 0.523,0.556l1.022,2.057c0.114,0.238 0.307,0.261 0.569,0.261l0.215,0l0,1.262l-0.852,0c-0.602,0 -0.863,-0.08 -1.124,-0.603l-1.318,-2.647c-0.136,-0.262 -0.387,-0.272 -0.705,-0.272l-0.477,0l0,3.522l-1.488,0l0,-6.556Z" style="fill:rgb(63,151,211);fill-rule:nonzero;"/>        </g>        <g transform="matrix(4.16667,0,0,4.16667,519.073,164.661)">            <path d="M0,-2.705c0,-0.17 -0.09,-0.25 -0.25,-0.25l-0.454,0l0,-1.227l1.329,0c0.512,0 0.761,0.239 0.761,0.648l0,0.171c0,0.124 -0.023,0.249 -0.023,0.249l0.023,0c0.25,-0.488 0.876,-1.204 2.045,-1.204c1.284,0 2.023,0.67 2.023,2.204l0,2.261c0,0.159 0.091,0.25 0.25,0.25l0.454,0l0,1.216l-1.374,0c-0.546,0 -0.774,-0.227 -0.774,-0.773l0,-2.659c0,-0.704 -0.181,-1.181 -0.908,-1.181c-0.772,0 -1.352,0.488 -1.557,1.181c-0.079,0.239 -0.113,0.5 -0.113,0.773l0,2.659l-1.432,0l0,-4.318Z" style="fill:rgb(63,151,211);fill-rule:nonzero;"/>        </g>        <g transform="matrix(4.16667,0,0,4.16667,550.177,155.761)">            <path d="M0,-0.569c0,-0.17 -0.091,-0.25 -0.25,-0.25l-0.454,0l0,-1.227l1.375,0c0.534,0 0.761,0.239 0.761,0.773l0,3.556c0,0.159 0.091,0.25 0.249,0.25l0.455,0l0,1.216l-1.375,0c-0.534,0 -0.761,-0.227 -0.761,-0.773l0,-3.545Zm0.069,-3.749l1.25,0l0,1.33l-1.25,0l0,-1.33Z" style="fill:rgb(63,151,211);fill-rule:nonzero;"/>        </g>        <g transform="matrix(4.16667,0,0,4.16667,572.902,181.32)">            <path d="M0,-8.316c1.341,0 1.783,0.818 1.783,0.818l0.023,0l0,-0.148c0,-0.261 0.182,-0.534 0.637,-0.534l1.34,0l0,1.227l-0.443,0c-0.148,0 -0.25,0.08 -0.25,0.227l0,3.988c0,1.988 -1.545,2.738 -3.057,2.738c-0.726,0 -1.499,-0.204 -2.056,-0.5l0.444,-1.136c0,0 0.715,0.387 1.601,0.387c0.875,0 1.636,-0.375 1.636,-1.421l0,-0.273c0,-0.136 0.012,-0.306 0.012,-0.306l-0.023,0c-0.34,0.488 -0.84,0.75 -1.614,0.75c-1.658,0 -2.601,-1.341 -2.601,-2.932c0,-1.59 0.898,-2.885 2.568,-2.885m1.692,2.897c0,-1.318 -0.658,-1.67 -1.442,-1.67c-0.875,0 -1.352,0.636 -1.352,1.613c0,1.011 0.511,1.761 1.442,1.761c0.694,0 1.352,-0.398 1.352,-1.704" style="fill:rgb(63,151,211);fill-rule:nonzero;"/>        </g>        <g transform="matrix(4.16667,0,0,4.16667,593.875,165.228)">            <path d="M0,-5.113c0,-0.171 -0.091,-0.25 -0.25,-0.25l-0.454,0l0,-1.227l1.375,0c0.534,0 0.772,0.238 0.772,0.761l0,2.034c0,0.284 -0.023,0.489 -0.023,0.489l0.023,0c0.272,-0.557 0.989,-1.148 1.988,-1.148c1.296,0 2.023,0.67 2.023,2.204l0,2.261c0,0.159 0.09,0.249 0.249,0.249l0.455,0l0,1.217l-1.375,0c-0.534,0 -0.761,-0.227 -0.761,-0.773l0,-2.659c0,-0.704 -0.193,-1.181 -0.92,-1.181c-0.762,0 -1.352,0.5 -1.568,1.204c-0.068,0.227 -0.091,0.477 -0.091,0.75l0,2.659l-1.443,0l0,-6.59Z" style="fill:rgb(63,151,211);fill-rule:nonzero;"/>        </g>        <g transform="matrix(4.16667,0,0,4.16667,624.932,160.256)">            <path d="M0,-1.977l-0.75,0l0,-1.147l0.783,0l0,-1.58l1.41,0l0,1.58l1.317,0l0,1.147l-1.317,0l0,2.34c0,0.955 0.749,1.091 1.146,1.091c0.16,0 0.262,-0.023 0.262,-0.023l0,1.262c0,0 -0.181,0.034 -0.442,0.034c-0.807,0 -2.409,-0.239 -2.409,-2.182l0,-2.522Z" style="fill:rgb(63,151,211);fill-rule:nonzero;"/>        </g>        <g transform="matrix(4.16667,0,0,4.16667,226.034,125.87)">            <path d="M0,-0.149c0.032,0.085 0.052,0.177 0.052,0.273c0,0.435 -0.352,0.787 -0.786,0.787c-0.204,0 -0.388,-0.08 -0.528,-0.207l-4.777,3.227c0.021,0.073 0.037,0.148 0.037,0.227c0,0.015 -0.004,0.029 -0.005,0.044l10.986,-0.303c0.031,-0.394 0.35,-0.704 0.748,-0.721l0.492,-7.529l-6.219,4.202Z" style="fill:rgb(63,151,211);fill-rule:nonzero;"/>        </g>        <g transform="matrix(4.16667,0,0,4.16667,219.696,147.105)">            <path d="M0,7.061c0.305,0 0.566,0.175 0.696,0.429c1.476,-0.558 2.867,-1.084 3.986,-1.507l-9.355,-6.412c-0.05,0.058 -0.107,0.11 -0.172,0.152l4.572,7.39c0.085,-0.032 0.177,-0.052 0.273,-0.052" style="fill:rgb(63,151,211);fill-rule:nonzero;"/>        </g>        <g transform="matrix(4.16667,0,0,4.16667,168.075,106.825)">            <path d="M0,3.968c0.143,-0.193 0.371,-0.321 0.63,-0.321c0.254,0 0.477,0.123 0.621,0.309l5.786,-3.867l-0.08,-0.061l-13.184,-0.028l6.227,3.968Z" style="fill:rgb(63,151,211);fill-rule:nonzero;"/>        </g>        <g transform="matrix(4.16667,0,0,4.16667,195.495,108.409)">            <path d="M0,7.781c0.141,-0.134 0.331,-0.218 0.541,-0.218c0.294,0 0.548,0.163 0.682,0.402l4.731,-3.196c-0.091,-0.129 -0.146,-0.285 -0.146,-0.454c0,-0.15 0.045,-0.289 0.118,-0.408l-5.33,-4.091l-5.838,3.902c0.049,0.102 0.078,0.215 0.078,0.335c0,0.136 -0.038,0.263 -0.099,0.375l5.263,3.353Z" style="fill:rgb(63,151,211);fill-rule:nonzero;"/>        </g>        <g transform="matrix(4.16667,0,0,4.16667,198.592,124.326)">            <path d="M0,-4.102l5.284,4.056c0.143,-0.15 0.344,-0.245 0.568,-0.245c0.277,0 0.519,0.144 0.659,0.361l6.239,-4.215l-12.646,-0.027l-0.104,0.07Z" style="fill:rgb(63,151,211);fill-rule:nonzero;"/>        </g>        <g transform="matrix(-3.96548,1.2791,1.2791,3.96548,244.145,177.076)">            <path d="M-0.781,-1.424c0.345,0.017 0.753,0.038 1.21,0.059l-1.21,1.566l-0.411,-1.022c0.232,-0.123 0.382,-0.351 0.411,-0.603" style="fill:rgb(63,151,211);fill-rule:nonzero;"/>        </g>        <g transform="matrix(4.16667,0,0,4.16667,217.93,146.717)">            <path d="M0,7.28l-4.572,-7.39c-0.085,0.031 -0.175,0.051 -0.271,0.051c-0.065,0 -0.127,-0.01 -0.188,-0.025l-1.348,4.249c0.346,0.082 0.604,0.391 0.604,0.763c0,0.053 -0.006,0.104 -0.016,0.154l5.655,2.308c0.041,-0.042 0.087,-0.078 0.136,-0.11" style="fill:rgb(63,151,211);fill-rule:nonzero;"/>        </g>        <g transform="matrix(4.16667,0,0,4.16667,249.52,168.948)">            <path d="M0,-5.604c-0.341,-0.054 -0.607,-0.325 -0.654,-0.669l-11.017,0.304c-0.016,0.056 -0.038,0.109 -0.065,0.159l9.451,6.479c0.476,-0.18 0.897,-0.339 1.248,-0.472c-0.012,-0.053 -0.018,-0.109 -0.018,-0.165c0,-0.405 0.307,-0.732 0.7,-0.776l0.355,-4.86Z" style="fill:rgb(63,151,211);fill-rule:nonzero;"/>        </g>        <g transform="matrix(4.16667,0,0,4.16667,193.59,193.617)">            <path d="M0,-6.014c-0.122,0.277 -0.397,0.471 -0.72,0.471c-0.103,0 -0.201,-0.021 -0.291,-0.057l-1.777,5.6c1.496,-0.558 4.948,-1.859 8.294,-3.123c-0.016,-0.062 -0.027,-0.126 -0.027,-0.193c0,-0.152 0.046,-0.292 0.12,-0.413l-5.599,-2.285Z" style="fill:rgb(63,151,211);fill-rule:nonzero;"/>        </g>        <g transform="matrix(4.16667,0,0,4.16667,141.732,152.175)">            <path d="M0,-10.746l4.749,10.746l7.921,-2.042c-0.006,-0.037 -0.012,-0.074 -0.012,-0.113c0,-0.163 0.05,-0.314 0.135,-0.44l-5.248,-3.344c-0.144,0.167 -0.355,0.275 -0.593,0.275c-0.433,0 -0.786,-0.353 -0.786,-0.787c0,-0.115 0.026,-0.223 0.071,-0.321l-6.237,-3.974Z" style="fill:rgb(63,151,211);fill-rule:nonzero;"/>        </g>        <g transform="matrix(4.16667,0,0,4.16667,251.51,185.915)">            <path d="M0,-4.274c0.023,0.074 0.039,0.152 0.039,0.233c0,0.425 -0.336,0.768 -0.757,0.784l-0.084,1.197l5.904,4.048l0,-8.25c-2.915,1.143 -4.371,1.708 -5.102,1.988" style="fill:rgb(63,151,211);fill-rule:nonzero;"/>        </g>        <g transform="matrix(4.16667,0,0,4.16667,250.227,166.285)">            <path d="M0,-4.957l-0.306,4.855c0.236,0.04 0.433,0.186 0.548,0.386c1.272,-0.489 3.94,-1.533 5.137,-2.002l-0.192,-0.477l-4.63,-3.046c-0.135,0.163 -0.332,0.271 -0.557,0.284" style="fill:rgb(63,151,211);fill-rule:nonzero;"/>        </g>        <g transform="matrix(4.16667,0,0,4.16667,250.59,125.93)">            <path d="M0,3.174c0.37,0.064 0.652,0.385 0.652,0.772c0,0.13 -0.035,0.251 -0.09,0.358l4.429,2.914l-4.519,-11.262l-0.472,7.218Z" style="fill:rgb(63,151,211);fill-rule:nonzero;"/>        </g>        <g transform="matrix(4.16667,0,0,4.16667,180.219,144.344)">            <path d="M0,11.982c0.066,-0.024 0.139,-0.051 0.222,-0.082l1.826,-5.753c-0.208,-0.142 -0.344,-0.38 -0.344,-0.65c0,-0.434 0.352,-0.786 0.786,-0.786c0.004,0 0.008,0.001 0.013,0.001l1.36,-4.284c-0.179,-0.088 -0.319,-0.24 -0.389,-0.428l-7.893,2.035l4.389,9.931l0.03,0.016Z" style="fill:rgb(63,151,211);fill-rule:nonzero;"/>        </g>        <g transform="matrix(4.16667,0,0,4.16667,245.994,224.86)">            <path d="M0,-6.377c-0.299,-0.071 -0.532,-0.312 -0.589,-0.616l-14.647,-0.058l14.642,7.725l0.106,-0.116l0.488,-6.935Z" style="fill:rgb(63,151,211);fill-rule:nonzero;"/>        </g>        <g transform="matrix(4.16667,0,0,4.16667,272.769,178.239)">            <path d="M0,4.033l-5.918,-4.057l-0.232,3.297c0.385,0.046 0.684,0.366 0.691,0.762l5.459,0.022l0,-0.024Z" style="fill:rgb(63,151,211);fill-rule:nonzero;"/>        </g>        <g transform="matrix(4.16667,0,0,4.16667,246.445,175.676)">            <path d="M0,3.886l0.24,-3.404l-1.81,-1.24c-1.137,0.43 -2.571,0.971 -4.093,1.547c0.017,0.064 0.029,0.131 0.029,0.201c0,0.434 -0.351,0.786 -0.786,0.786c-0.307,0 -0.571,-0.179 -0.7,-0.437c-3.439,1.299 -6.989,2.638 -8.418,3.169l-0.024,0.077l14.852,0.059c0.01,-0.399 0.318,-0.721 0.71,-0.758" style="fill:rgb(63,151,211);fill-rule:nonzero;"/>        </g>        <g transform="matrix(4.16667,0,0,4.16667,272.453,226.263)">            <path d="M0,-7.302l-5.397,-0.021c-0.071,0.361 -0.389,0.633 -0.771,0.633c-0.005,0 -0.01,-0.002 -0.016,-0.002l-0.472,6.713l6.656,-7.323Z" style="fill:rgb(63,151,211);fill-rule:nonzero;"/>        </g>    </g></svg>