<?xml version="1.0" encoding="UTF-8" standalone="no"?><!DOCTYPE svg PUBLIC "-//W3C//DTD SVG 1.1//EN" "http://www.w3.org/Graphics/SVG/1.1/DTD/svg11.dtd"><svg width="100%" height="100%" viewBox="0 0 1024 512" version="1.1" xmlns="http://www.w3.org/2000/svg" xmlns:xlink="http://www.w3.org/1999/xlink" xml:space="preserve" style="fill-rule:evenodd;clip-rule:evenodd;stroke-linejoin:round;stroke-miterlimit:2;"><title>Amyma</title><desc>Amyma is an investment platform for high-net-worth and experienced investors. If you are such an investor, our goal is to offer you easy access to more compelling and advanced investment opportunities than you normally find through mainstream investment platforms and financial advisers.</desc>    <g transform="matrix(1.67114,0,0,1.10134,-270.925,100.432)">        <g transform="matrix(146.306,0,0,222,162.102,280.751)">            <path d="M0.494,-0.265l-0.123,-0.296l-0.124,0.296l0.247,0Zm0.124,0.265l-0.083,-0.173l-0.333,0l-0.079,0.173l-0.115,0l0.337,-0.723l0.051,0l0.332,0.723l-0.11,0Z" style="fill:rgb(24,14,93);fill-rule:nonzero;"/>        </g>        <g transform="matrix(146.306,0,0,222,263.044,280.751)">            <path d="M0.223,0l0,-0.723l0.043,0l0.3,0.322l0.29,-0.322l0.043,0l0,0.723l-0.1,0l0,-0.53l-0.218,0.252l-0.034,0l-0.228,-0.254l0,0.532l-0.096,0Z" style="fill:rgb(24,14,93);fill-rule:nonzero;"/>        </g>        <g transform="matrix(146.306,0,0,222,667.1,280.751)">            <path d="M0.494,-0.265l-0.123,-0.296l-0.124,0.296l0.247,0Zm0.124,0.265l-0.083,-0.173l-0.333,0l-0.079,0.173l-0.115,0l0.337,-0.723l0.051,0l0.332,0.723l-0.11,0Z" style="fill:rgb(24,14,93);fill-rule:nonzero;"/>        </g>        <g transform="matrix(146.306,0,0,222,511.095,280.751)">            <path d="M0.223,0l0,-0.723l0.043,0l0.3,0.322l0.29,-0.322l0.043,0l0,0.723l-0.1,0l0,-0.53l-0.218,0.252l-0.034,0l-0.228,-0.254l0,0.532l-0.096,0Z" style="fill:rgb(24,14,93);fill-rule:nonzero;"/>        </g>        <g transform="matrix(146.306,0,0,222,411.453,280.751)">            <path d="M0.341,0l0,-0.367l-0.356,-0.359l0.152,0l0.256,0.259l0.256,-0.259l0.153,0l-0.358,0.357l0,0.369l-0.103,0Z" style="fill:rgb(24,14,93);fill-rule:nonzero;"/>        </g>        <g transform="matrix(146.306,0,0,-222,411.453,-70.4448)">            <path d="M0.393,-0.325l-0.408,-0.401l0.152,0l0.256,0.259l0.256,-0.259l0.153,0l-0.409,0.401Z" style="fill:rgb(31,169,211);fill-rule:nonzero;"/>        </g>    </g></svg>