<?xml version="1.0" encoding="UTF-8" standalone="no"?><!DOCTYPE svg PUBLIC "-//W3C//DTD SVG 1.1//EN" "http://www.w3.org/Graphics/SVG/1.1/DTD/svg11.dtd"><svg width="100%" height="100%" viewBox="0 0 1024 512" version="1.1" xmlns="http://www.w3.org/2000/svg" xmlns:xlink="http://www.w3.org/1999/xlink" xml:space="preserve" style="fill-rule:evenodd;clip-rule:evenodd;stroke-linejoin:round;stroke-miterlimit:2;"><title>FundingSecure</title><desc>As one of the country’s most established Peer-to-Peer platforms, we know that alternative investments are a great way to diversity your portfolio. From commercial and residential property to fine art, collectables and classic cars. Each of our opportunities offer the potential for high returns with low entry points.</desc>    <g transform="matrix(23.1743,0,0,13.376,-967.273,41.6754)">        <g transform="matrix(6.92629,0,0,12,49.4143,19.8511)">            <path d="M0.063,0l0,-0.81l0.313,0l0,0.081l-0.2,0l0,0.27l0.155,0l0,0.08l-0.155,0l0,0.379l-0.113,0Z" style="fill:rgb(101,100,100);fill-rule:nonzero;"/>        </g>        <g transform="matrix(6.92629,0,0,12,52.1225,19.8511)">            <path d="M0.137,0.008c-0.023,0 -0.04,-0.006 -0.053,-0.018c-0.013,-0.012 -0.022,-0.027 -0.027,-0.045c-0.005,-0.018 -0.007,-0.036 -0.007,-0.055l0,-0.468l0.107,0l0,0.436c0,0.021 0.003,0.037 0.009,0.049c0.006,0.011 0.018,0.017 0.037,0.017c0.012,0 0.024,-0.003 0.037,-0.01c0.013,-0.007 0.026,-0.016 0.038,-0.026l0,-0.466l0.107,0l0,0.578l-0.107,0l0,-0.057c-0.019,0.018 -0.04,0.033 -0.064,0.046c-0.023,0.013 -0.049,0.019 -0.077,0.019Z" style="fill:rgb(101,100,100);fill-rule:nonzero;"/>        </g>        <g transform="matrix(6.92629,0,0,12,55.1701,19.8511)">            <path d="M0.054,0l0,-0.578l0.107,0l0,0.057c0.019,-0.018 0.041,-0.033 0.064,-0.046c0.023,-0.013 0.049,-0.019 0.077,-0.019c0.023,0 0.041,0.006 0.053,0.018c0.013,0.012 0.022,0.027 0.027,0.045c0.005,0.018 0.007,0.036 0.007,0.055l0,0.468l-0.107,0l0,-0.437c0,-0.021 -0.003,-0.037 -0.009,-0.048c-0.006,-0.011 -0.018,-0.017 -0.037,-0.017c-0.012,0 -0.024,0.003 -0.038,0.01c-0.013,0.007 -0.025,0.016 -0.037,0.026l0,0.466l-0.107,0Z" style="fill:rgb(101,100,100);fill-rule:nonzero;"/>        </g>        <g transform="matrix(6.92629,0,0,12,58.2107,19.8511)">            <path d="M0.188,0.008c-0.049,0 -0.085,-0.018 -0.109,-0.054c-0.024,-0.035 -0.036,-0.096 -0.036,-0.181l0,-0.112c0,-0.044 0.004,-0.085 0.011,-0.123c0.007,-0.037 0.021,-0.067 0.042,-0.09c0.02,-0.023 0.05,-0.034 0.089,-0.034c0.019,0 0.037,0.004 0.053,0.013c0.016,0.009 0.03,0.019 0.043,0.032l0,-0.269l0.107,0l0,0.81l-0.107,0l0,-0.037c-0.013,0.013 -0.026,0.024 -0.041,0.032c-0.015,0.009 -0.033,0.013 -0.052,0.013Zm0.027,-0.084c0.01,0 0.021,-0.002 0.032,-0.006c0.011,-0.003 0.023,-0.009 0.034,-0.016l0,-0.379c-0.009,-0.007 -0.02,-0.013 -0.031,-0.018c-0.011,-0.005 -0.024,-0.007 -0.037,-0.007c-0.025,0 -0.041,0.012 -0.05,0.035c-0.009,0.024 -0.013,0.053 -0.013,0.086l0,0.163c0,0.027 0.002,0.051 0.005,0.072c0.003,0.022 0.009,0.039 0.018,0.051c0.009,0.013 0.023,0.019 0.042,0.019Z" style="fill:rgb(101,100,100);fill-rule:nonzero;"/>        </g>        <g transform="matrix(6.92629,0,0,12,61.2722,19.8511)">            <path d="M0.061,0l0,-0.578l0.107,0l0,0.578l-0.107,0Zm0,-0.664l0,-0.112l0.107,0l0,0.112l-0.107,0Z" style="fill:rgb(101,100,100);fill-rule:nonzero;"/>        </g>        <g transform="matrix(6.92629,0,0,12,62.8583,19.8511)">            <path d="M0.054,0l0,-0.578l0.107,0l0,0.057c0.019,-0.018 0.041,-0.033 0.064,-0.046c0.023,-0.013 0.049,-0.019 0.077,-0.019c0.023,0 0.041,0.006 0.053,0.018c0.013,0.012 0.022,0.027 0.027,0.045c0.005,0.018 0.007,0.036 0.007,0.055l0,0.468l-0.107,0l0,-0.437c0,-0.021 -0.003,-0.037 -0.009,-0.048c-0.006,-0.011 -0.018,-0.017 -0.037,-0.017c-0.012,0 -0.024,0.003 -0.038,0.01c-0.013,0.007 -0.025,0.016 -0.037,0.026l0,0.466l-0.107,0Z" style="fill:rgb(101,100,100);fill-rule:nonzero;"/>        </g>        <g transform="matrix(6.92629,0,0,12,65.8989,19.8511)">            <path d="M0.204,0.179c-0.035,0 -0.066,-0.004 -0.094,-0.011c-0.028,-0.007 -0.05,-0.019 -0.066,-0.035c-0.016,-0.016 -0.024,-0.037 -0.024,-0.063c0,-0.019 0.004,-0.035 0.012,-0.049c0.008,-0.014 0.018,-0.026 0.031,-0.036c0.013,-0.011 0.026,-0.019 0.04,-0.026c-0.019,-0.005 -0.033,-0.014 -0.042,-0.025c-0.009,-0.012 -0.014,-0.024 -0.014,-0.037c0,-0.021 0.006,-0.04 0.017,-0.055c0.011,-0.015 0.027,-0.032 0.047,-0.05c-0.022,-0.017 -0.039,-0.038 -0.05,-0.064c-0.011,-0.026 -0.017,-0.062 -0.017,-0.108c0,-0.045 0.006,-0.083 0.019,-0.113c0.012,-0.031 0.03,-0.054 0.055,-0.07c0.024,-0.015 0.054,-0.023 0.089,-0.023c0.031,0 0.057,0.005 0.076,0.016c0.019,0.011 0.033,0.027 0.043,0.048c0.003,-0.005 0.012,-0.015 0.027,-0.028c0.015,-0.013 0.032,-0.023 0.051,-0.032l0.016,-0.007l0.027,0.069c-0.009,0.001 -0.02,0.005 -0.034,0.009c-0.015,0.005 -0.028,0.01 -0.041,0.016c-0.012,0.005 -0.02,0.009 -0.023,0.012c0.005,0.011 0.009,0.028 0.012,0.049c0.004,0.021 0.006,0.04 0.006,0.057c0,0.039 -0.005,0.074 -0.015,0.104c-0.01,0.03 -0.027,0.053 -0.05,0.071c-0.023,0.017 -0.054,0.025 -0.095,0.025c-0.009,0 -0.018,-0.001 -0.028,-0.002c-0.01,-0.001 -0.019,-0.003 -0.027,-0.005c-0.004,0.006 -0.008,0.013 -0.013,0.021c-0.004,0.008 -0.006,0.016 -0.006,0.023c0,0.007 0.004,0.013 0.011,0.018c0.008,0.004 0.02,0.007 0.037,0.008l0.09,0.008c0.045,0.004 0.079,0.018 0.101,0.041c0.022,0.023 0.033,0.057 0.033,0.1c0,0.031 -0.007,0.058 -0.022,0.08c-0.015,0.021 -0.037,0.037 -0.067,0.048c-0.029,0.011 -0.067,0.016 -0.112,0.016Zm0.008,-0.084c0.038,0 0.066,-0.004 0.084,-0.013c0.018,-0.009 0.027,-0.024 0.027,-0.044c0,-0.012 -0.002,-0.022 -0.007,-0.03c-0.004,-0.008 -0.012,-0.014 -0.023,-0.019c-0.011,-0.005 -0.028,-0.008 -0.049,-0.01l-0.091,-0.008c-0.007,0.007 -0.014,0.015 -0.021,0.022c-0.007,0.007 -0.012,0.015 -0.016,0.024c-0.004,0.008 -0.006,0.017 -0.006,0.026c0,0.017 0.007,0.03 0.022,0.039c0.015,0.009 0.041,0.013 0.08,0.013Zm-0.005,-0.347c0.015,0 0.027,-0.003 0.036,-0.008c0.009,-0.006 0.016,-0.014 0.021,-0.025c0.005,-0.011 0.008,-0.025 0.009,-0.041c0.002,-0.016 0.003,-0.034 0.003,-0.054c0,-0.02 -0.001,-0.038 -0.003,-0.054c-0.001,-0.017 -0.004,-0.031 -0.009,-0.042c-0.004,-0.012 -0.011,-0.021 -0.02,-0.027c-0.009,-0.006 -0.021,-0.009 -0.036,-0.009c-0.015,0 -0.027,0.003 -0.037,0.009c-0.009,0.006 -0.016,0.015 -0.021,0.025c-0.005,0.011 -0.008,0.025 -0.01,0.041c-0.002,0.017 -0.003,0.036 -0.003,0.057c0,0.018 0.001,0.035 0.002,0.05c0.002,0.016 0.005,0.03 0.01,0.041c0.005,0.011 0.013,0.02 0.022,0.027c0.009,0.007 0.021,0.01 0.036,0.01Z" style="fill:rgb(101,100,100);fill-rule:nonzero;"/>        </g>        <g transform="matrix(6.92629,0,0,12,68.9118,19.8511)">            <path d="M0.254,0.009c-0.047,0 -0.085,-0.01 -0.116,-0.03c-0.032,-0.02 -0.055,-0.048 -0.071,-0.083c-0.016,-0.035 -0.025,-0.076 -0.028,-0.123l0.1,-0.027c0.002,0.029 0.006,0.056 0.013,0.083c0.007,0.027 0.019,0.048 0.035,0.065c0.016,0.017 0.038,0.026 0.067,0.026c0.029,0 0.051,-0.008 0.067,-0.025c0.014,-0.016 0.022,-0.039 0.022,-0.07c0,-0.037 -0.008,-0.066 -0.025,-0.089c-0.017,-0.022 -0.038,-0.044 -0.063,-0.067l-0.136,-0.12c-0.027,-0.023 -0.046,-0.049 -0.059,-0.076c-0.013,-0.028 -0.019,-0.062 -0.019,-0.103c0,-0.059 0.017,-0.105 0.051,-0.138c0.034,-0.033 0.08,-0.049 0.139,-0.049c0.032,0 0.06,0.004 0.084,0.013c0.025,0.008 0.045,0.021 0.062,0.038c0.016,0.017 0.029,0.039 0.039,0.066c0.009,0.026 0.016,0.057 0.019,0.092l-0.096,0.026c-0.002,-0.027 -0.006,-0.051 -0.012,-0.074c-0.006,-0.022 -0.016,-0.04 -0.031,-0.054c-0.015,-0.013 -0.037,-0.02 -0.065,-0.02c-0.028,0 -0.05,0.007 -0.065,0.022c-0.016,0.015 -0.024,0.038 -0.024,0.067c0,0.025 0.004,0.045 0.013,0.061c0.008,0.016 0.021,0.032 0.04,0.049l0.137,0.12c0.031,0.027 0.058,0.058 0.081,0.096c0.023,0.037 0.035,0.08 0.035,0.131c0,0.04 -0.008,0.075 -0.025,0.104c-0.017,0.029 -0.039,0.051 -0.068,0.066c-0.029,0.015 -0.063,0.023 -0.101,0.023Z" style="fill:rgb(101,100,100);fill-rule:nonzero;"/>        </g>        <g transform="matrix(6.92629,0,0,12,72.188,19.8511)">            <path d="M0.214,0.008c-0.045,0 -0.08,-0.009 -0.105,-0.027c-0.025,-0.017 -0.042,-0.043 -0.051,-0.078c-0.01,-0.034 -0.015,-0.076 -0.015,-0.126l0,-0.132c0,-0.051 0.005,-0.094 0.015,-0.128c0.01,-0.034 0.028,-0.06 0.053,-0.077c0.024,-0.017 0.059,-0.026 0.103,-0.026c0.049,0 0.085,0.01 0.108,0.03c0.023,0.02 0.038,0.049 0.045,0.086c0.007,0.038 0.011,0.083 0.011,0.136l0,0.047l-0.228,0l0,0.116c0,0.023 0.002,0.042 0.007,0.057c0.004,0.015 0.011,0.025 0.02,0.032c0.01,0.007 0.023,0.011 0.038,0.011c0.016,0 0.028,-0.004 0.037,-0.012c0.008,-0.007 0.014,-0.018 0.017,-0.033c0.003,-0.014 0.004,-0.031 0.004,-0.05l0,-0.035l0.104,0l0,0.022c0,0.058 -0.012,0.104 -0.037,0.137c-0.025,0.033 -0.067,0.05 -0.126,0.05Zm-0.064,-0.353l0.123,0l0,-0.052c0,-0.024 -0.001,-0.044 -0.004,-0.061c-0.003,-0.016 -0.008,-0.028 -0.017,-0.037c-0.008,-0.008 -0.021,-0.012 -0.039,-0.012c-0.017,0 -0.031,0.004 -0.039,0.012c-0.009,0.008 -0.016,0.021 -0.019,0.04c-0.003,0.019 -0.005,0.046 -0.005,0.079l0,0.031Z" style="fill:rgb(101,100,100);fill-rule:nonzero;"/>        </g>        <g transform="matrix(6.92629,0,0,12,75.1039,19.8511)">            <path d="M0.212,0.008c-0.047,0 -0.083,-0.01 -0.108,-0.029c-0.024,-0.019 -0.04,-0.045 -0.048,-0.08c-0.009,-0.035 -0.013,-0.075 -0.013,-0.121l0,-0.133c0,-0.049 0.004,-0.09 0.013,-0.125c0.009,-0.034 0.025,-0.06 0.05,-0.079c0.024,-0.018 0.059,-0.027 0.106,-0.027c0.042,0 0.075,0.007 0.098,0.02c0.023,0.014 0.038,0.034 0.047,0.061c0.009,0.027 0.013,0.061 0.013,0.101l0,0.034l-0.097,0l0,-0.035c0,-0.025 -0.002,-0.045 -0.005,-0.06c-0.003,-0.015 -0.009,-0.025 -0.018,-0.032c-0.009,-0.007 -0.021,-0.01 -0.037,-0.01c-0.017,0 -0.031,0.004 -0.04,0.012c-0.009,0.008 -0.015,0.021 -0.018,0.04c-0.003,0.019 -0.005,0.045 -0.005,0.078l0,0.182c0,0.049 0.005,0.082 0.014,0.099c0.009,0.017 0.026,0.025 0.05,0.025c0.018,0 0.031,-0.004 0.04,-0.013c0.008,-0.008 0.013,-0.02 0.016,-0.035c0.002,-0.015 0.003,-0.033 0.003,-0.052l0,-0.047l0.097,0l0,0.04c0,0.039 -0.005,0.072 -0.014,0.1c-0.009,0.028 -0.024,0.049 -0.047,0.064c-0.023,0.015 -0.056,0.022 -0.097,0.022Z" style="fill:rgb(101,100,100);fill-rule:nonzero;"/>        </g>        <g transform="matrix(6.92629,0,0,12,77.9507,19.8511)">            <path d="M0.137,0.008c-0.023,0 -0.04,-0.006 -0.053,-0.018c-0.013,-0.012 -0.022,-0.027 -0.027,-0.045c-0.005,-0.018 -0.007,-0.036 -0.007,-0.055l0,-0.468l0.107,0l0,0.436c0,0.021 0.003,0.037 0.009,0.049c0.006,0.011 0.018,0.017 0.037,0.017c0.012,0 0.024,-0.003 0.037,-0.01c0.013,-0.007 0.026,-0.016 0.038,-0.026l0,-0.466l0.107,0l0,0.578l-0.107,0l0,-0.057c-0.019,0.018 -0.04,0.033 -0.064,0.046c-0.023,0.013 -0.049,0.019 -0.077,0.019Z" style="fill:rgb(101,100,100);fill-rule:nonzero;"/>        </g>        <g transform="matrix(6.92629,0,0,12,80.9982,19.8511)">            <path d="M0.057,0l0,-0.578l0.107,0l0,0.082c0.021,-0.035 0.043,-0.059 0.064,-0.071c0.021,-0.012 0.043,-0.018 0.064,-0.018l0.007,0c0.003,0 0.006,0 0.01,0.001l0,0.118c-0.008,-0.003 -0.017,-0.006 -0.028,-0.009c-0.01,-0.002 -0.02,-0.003 -0.031,-0.003c-0.017,0 -0.032,0.004 -0.045,0.011c-0.014,0.008 -0.028,0.023 -0.041,0.045l0,0.422l-0.107,0Z" style="fill:rgb(101,100,100);fill-rule:nonzero;"/>        </g>        <g transform="matrix(6.92629,0,0,12,83.2216,19.8511)">            <path d="M0.214,0.008c-0.045,0 -0.08,-0.009 -0.105,-0.027c-0.025,-0.017 -0.042,-0.043 -0.051,-0.078c-0.01,-0.034 -0.015,-0.076 -0.015,-0.126l0,-0.132c0,-0.051 0.005,-0.094 0.015,-0.128c0.01,-0.034 0.028,-0.06 0.053,-0.077c0.024,-0.017 0.059,-0.026 0.103,-0.026c0.049,0 0.085,0.01 0.108,0.03c0.023,0.02 0.038,0.049 0.045,0.086c0.007,0.038 0.011,0.083 0.011,0.136l0,0.047l-0.228,0l0,0.116c0,0.023 0.002,0.042 0.007,0.057c0.004,0.015 0.011,0.025 0.02,0.032c0.01,0.007 0.023,0.011 0.038,0.011c0.016,0 0.028,-0.004 0.037,-0.012c0.008,-0.007 0.014,-0.018 0.017,-0.033c0.003,-0.014 0.004,-0.031 0.004,-0.05l0,-0.035l0.104,0l0,0.022c0,0.058 -0.012,0.104 -0.037,0.137c-0.025,0.033 -0.067,0.05 -0.126,0.05Zm-0.064,-0.353l0.123,0l0,-0.052c0,-0.024 -0.001,-0.044 -0.004,-0.061c-0.003,-0.016 -0.008,-0.028 -0.017,-0.037c-0.008,-0.008 -0.021,-0.012 -0.039,-0.012c-0.017,0 -0.031,0.004 -0.039,0.012c-0.009,0.008 -0.016,0.021 -0.019,0.04c-0.003,0.019 -0.005,0.046 -0.005,0.079l0,0.031Z" style="fill:rgb(101,100,100);fill-rule:nonzero;"/>        </g>        <g transform="matrix(0.205192,0,0,0.355501,41.7431,10.0265)">            <path d="M0.401,26.417c0.029,-5.802 2.284,-10.904 4.173,-13.887c-2.218,-1.095 -2.712,-3.149 -2.712,-5.5c0,-3.501 2.315,-6.344 6.399,-6.344c4.084,0 6.399,2.843 6.399,6.344c0,2.25 -0.369,4.228 -2.432,5.355c1.941,2.962 4.237,8.134 4.267,14.032l-16.094,0Z" style="fill:rgb(147,192,32);"/>        </g>        <g transform="matrix(0.205192,0,0,0.355501,45.3533,10.0265)">            <path d="M0.401,26.417c0.029,-5.802 2.284,-10.904 4.173,-13.887c-2.218,-1.095 -2.712,-3.149 -2.712,-5.5c0,-3.501 2.315,-6.344 6.399,-6.344c4.084,0 6.399,2.843 6.399,6.344c0,2.25 -0.369,4.228 -2.432,5.355c1.941,2.962 4.237,8.134 4.267,14.032l-16.094,0Z" style="fill:rgb(33,105,153);"/>        </g>    </g></svg>