<?xml version="1.0" encoding="UTF-8" standalone="no"?><!DOCTYPE svg PUBLIC "-//W3C//DTD SVG 1.1//EN" "http://www.w3.org/Graphics/SVG/1.1/DTD/svg11.dtd"><svg width="100%" height="100%" viewBox="0 0 1024 512" version="1.1" xmlns="http://www.w3.org/2000/svg" xmlns:xlink="http://www.w3.org/1999/xlink" xml:space="preserve" style="fill-rule:evenodd;clip-rule:evenodd;stroke-linejoin:round;stroke-miterlimit:2;"><title>Swaper</title><desc>Swaper is an investment marketplace offering investments in prefunded consumer loans originated by its parent company Wandoo Finance Group in Georgia, Poland, Spain, Denmark and Russia.</desc>    <g transform="matrix(0.693878,0,0,0.693878,100.483,-189.379)">        <g transform="matrix(1,0,0,1,-239.931,416.37)">            <path d="M214.937,192.616c-36.781,-12.041 -43.754,-18.968 -43.754,-27.543c0,-11.372 12.278,-19.009 30.546,-19.009c21.7,0 33.8,10.236 40.451,34.232l1.051,3.791l59.969,-13.346l-0.975,-4.092c-11.517,-48.441 -49.085,-77.362 -100.5,-77.362c-54.131,0 -91.937,31.016 -91.937,75.426c0,39.554 24.919,63.447 85.991,82.465c42.908,13.592 51.3,23.834 51.3,36.938c0,17.207 -19.36,20.818 -35.6,20.818c-33.178,0 -46.462,-12.188 -52.648,-48.292l-0.723,-4.237l-60.108,12.544l0.645,3.918c9.841,59.87 49.656,92.846 112.114,92.846c59.8,0 98.442,-30.319 98.442,-77.235c0,-44.344 -26.434,-70.1 -94.265,-91.862" style="fill:rgb(245,41,74);fill-rule:nonzero;"/>        </g>        <g transform="matrix(1,0,0,1,-239.931,416.37)">            <path d="M518.766,94.717l-13.692,146.578l-24.967,-85.069l-32.209,0l-24.963,85.069l-13.692,-146.578l-60.13,0l32.834,261.565l54.763,0l27.296,-88.902l27.287,88.902l54.765,0l32.838,-261.565l-60.13,0Z" style="fill:rgb(245,41,74);fill-rule:nonzero;"/>        </g>        <g transform="matrix(1,0,0,1,-239.931,416.37)">            <path d="M748.584,94.717l-54.264,0l-92.536,261.565l61.929,0l13.369,-39.072l88.743,0l13.369,39.072l62.3,0l-92.91,-261.565Zm-52.794,166.438l25.664,-75.9l25.659,75.9l-51.323,0Z" style="fill:rgb(245,41,74);fill-rule:nonzero;"/>        </g>        <g transform="matrix(1,0,0,1,-239.931,416.37)">            <path d="M995.391,94.718l-106.391,0l0,261.565l61.75,0l0,-87.2l43.915,0c57.8,0 92.3,-32.392 92.3,-86.644c0,-54.112 -35.09,-87.724 -91.575,-87.724m-44.64,57.497l43.915,0c20.84,0 30.547,9.49 30.547,29.87c0,18.141 -12.133,29.864 -30.907,29.864l-43.555,0l0,-59.734Z" style="fill:rgb(245,41,74);fill-rule:nonzero;"/>        </g>        <g transform="matrix(1,0,0,1,-239.931,416.37)">            <path d="M1141.76,94.583l175.558,0l0,29.175l-144.552,0l0,83.788l134.09,0l0,28.053l-134.09,0l0,91.644l144.552,0l0,29.175l-175.558,0l0,-261.835Z" style="fill:rgb(245,41,74);fill-rule:nonzero;"/>        </g>        <g transform="matrix(1,0,0,1,-239.931,416.37)">            <path d="M1381.24,94.584l99.359,0c54.531,0 87.4,29.175 87.4,77.424c0,41.895 -23.906,69.2 -65.741,75.934l0,0.747l57.523,107.728l-36.229,0l-55.653,-106.228l-55.653,0l0,106.228l-31,0l-0.006,-261.833Zm96.742,126.425c38.474,0 59.015,-16.833 59.015,-49c0,-31.794 -20.168,-48.249 -59.015,-48.249l-65.739,0l0,97.25l65.739,-0.001Z" style="fill:rgb(245,41,74);fill-rule:nonzero;"/>        </g>    </g></svg>