<?xml version="1.0" encoding="UTF-8" standalone="no"?><!DOCTYPE svg PUBLIC "-//W3C//DTD SVG 1.1//EN" "http://www.w3.org/Graphics/SVG/1.1/DTD/svg11.dtd"><svg width="100%" height="100%" viewBox="0 0 1024 512" version="1.1" xmlns="http://www.w3.org/2000/svg" xmlns:xlink="http://www.w3.org/1999/xlink" xml:space="preserve" style="fill-rule:evenodd;clip-rule:evenodd;stroke-linejoin:round;stroke-miterlimit:2;"><title>Goji</title><desc>Going forward, Goji will not be issuing any further bonds in order to allow us to focus on our platform technology services. Our Diversified Lending Bond has outperformed our target net return of 5% on all matured bonds to date and performance in our live bonds is also currently above this target. If you have an investment with us we will manage it to maturity and the Investment Management team will continue to focus on outperforming our target return.</desc>    <g id="goji-512x256.svg" transform="matrix(2.83333,0,0,2.83333,-213.319,-106.667)">        <rect id="_6926c98f-551a-4497-a02c-613ffd3dde50" x="357.93" y="90" width="27.98" height="88" style="fill:rgb(26,25,25);fill-rule:nonzero;"/>        <rect id="ac5eb97f-76bc-4110-97d7-1ce63d4e978d" x="357.93" y="38" width="27.98" height="44" style="fill:rgb(26,25,25);fill-rule:nonzero;"/>        <rect id="_67bfe05e-affb-4b10-a9bf-73a583c65d5b" x="325.95" y="58" width="27.99" height="24" style="fill:rgb(26,25,25);fill-rule:nonzero;"/>        <path id="de4e5470-392b-4b7a-8e93-2462cf3543c6" d="M326.65,178.8c0,12.35 -12.69,10 -12.69,10l0,20.79c0,0 40,6.23 40,-30.81l0,-88.78l-27.31,0l0,88.8" style="fill:rgb(26,25,25);fill-rule:nonzero;"/>        <path id="_01ee054a-e3f9-4435-9f90-cf28429f581f" d="M172.57,155.86c-0.057,0 -0.113,0.001 -0.17,0.001c-10.851,0 -19.78,-8.929 -19.78,-19.78c0,-10.851 8.929,-19.78 19.78,-19.78c10.851,0 19.78,8.928 19.78,19.779c0,0.03 0,0.06 0,0.09c0,10.772 -8.839,19.646 -19.61,19.69m18.66,-58.19c-2.545,-1.916 -5.307,-3.524 -8.23,-4.79c-7.71,-3.31 -16.86,-4 -26.77,-0.77c-17.91,5.89 -30.15,23.81 -30.15,44c0,19.71 11.89,37 29.16,43.52c11,4.13 20.84,3.66 28.85,0.83c2.472,-0.877 4.856,-1.986 7.12,-3.31c-0.92,14.35 -9.74,17.61 -18.65,17.61c-7.35,0 -12.57,-5.15 -13.46,-8.15l-30.26,-0.43c0,0 4.64,31.82 43.23,31.82c9.07,0 46,-2.49 46,-42.27l0,-83.62l-26.86,0l0,5.56" style="fill:rgb(26,25,25);fill-rule:nonzero;"/>        <path id="_9f178666-fe56-4275-acfa-f91c3fa1fa6f" d="M272,154.25c-10.71,0 -19.39,-9.07 -19.39,-20.25c0,-11.18 8.68,-20.25 19.39,-20.25c10.71,0 19.39,9.07 19.39,20.25c0,11.18 -8.69,20.25 -19.39,20.25m0,-68.25c-25.39,0 -46,21.49 -46,48c0,26.51 20.58,48 46,48c25.42,0 46,-21.49 46,-48c0,-26.51 -20.58,-48 -46,-48" style="fill:rgb(26,25,25);fill-rule:nonzero;"/>    </g></svg>