<?xml version="1.0" encoding="UTF-8" standalone="no"?><!DOCTYPE svg PUBLIC "-//W3C//DTD SVG 1.1//EN" "http://www.w3.org/Graphics/SVG/1.1/DTD/svg11.dtd"><svg width="100%" height="100%" viewBox="0 0 1024 512" version="1.1" xmlns="http://www.w3.org/2000/svg" xmlns:xlink="http://www.w3.org/1999/xlink" xml:space="preserve" style="fill-rule:evenodd;clip-rule:evenodd;stroke-linejoin:round;stroke-miterlimit:2;"><title>Ethex</title><desc>Through our platform you can invest and save with businesses you believe in - whether it’s renewable energy, fair trade, social housing, organic farming, green transport, or micro-finance schemes – and these positive businesses can then find the investment they need to develop and grow.</desc>    <g transform="matrix(1.91179,0,0,1.91179,-466.837,-233.419)">        <g transform="matrix(4.16667,0,0,4.16667,689.848,221.867)">            <path d="M0,29.093l-4.483,0c-0.535,0 -0.728,-0.364 -0.431,-0.808l2.579,-3.855l-0.003,0l7.146,-10.678l-5.242,-7.97l0.004,-0.001l-3.27,-4.971c-0.294,-0.445 -0.096,-0.81 0.439,-0.81l4.484,0c0.534,0 1.211,0.365 1.505,0.81l4.053,6.163l1.244,1.892l0.118,0.179l-3.096,4.708l3.096,4.624l-0.118,0.176l-0.54,0.809l-0.133,0.197l-4.194,6.269l-1.645,2.458c-0.299,0.444 -0.979,0.808 -1.513,0.808" style="fill:rgb(131,191,65);fill-rule:nonzero;"/>        </g>        <g transform="matrix(4.16667,0,0,4.16667,776.391,221.867)">            <path d="M0,29.093l-4.482,0c-0.535,0 -1.216,-0.364 -1.514,-0.808l-5.972,-8.924l-0.54,-0.809l-0.119,-0.176l3.096,-4.624l-3.096,-4.708l0.119,-0.179l2.915,-4.432l2.381,-3.623c0.294,-0.445 0.972,-0.81 1.507,-0.81l4.485,0c0.533,0 0.73,0.365 0.436,0.81l-2.808,4.269l0.003,0.002l-5.703,8.671l7.009,10.474l-0.002,0.001l2.715,4.058c0.298,0.444 0.104,0.808 -0.43,0.808" style="fill:rgb(45,159,206);fill-rule:nonzero;"/>        </g>        <g transform="matrix(-2.31816,-3.46226,-3.46226,2.31816,739.93,268.175)">            <path d="M-3.878,7.261l5.565,0l2.189,-5.192l-5.633,0.047l-2.121,5.145Z" style="fill:rgb(6,145,70);fill-rule:nonzero;"/>        </g>        <g transform="matrix(4.16667,0,0,4.16667,313.947,304.909)">            <path d="M0,-11.35c0,-1.793 -1.076,-5.019 -5.198,-5.019c-4.422,0 -5.677,3.764 -5.677,5.019l10.875,0Zm4.719,19.597c-2.331,0.537 -4.003,0.956 -7.11,0.956c-8.603,0 -14.1,-5.079 -14.1,-16.252c0,-12.188 7.946,-13.504 11.591,-13.504c6.931,0 10.276,4.721 10.276,11.412l0,1.375l-16.49,0c0,5.317 2.69,12.786 10.456,12.786c2.449,0 4.122,-0.597 5.377,-1.015l0,4.242Z" style="fill:rgb(107,108,107);fill-rule:nonzero;"/>        </g>        <g transform="matrix(4.16667,0,0,4.16667,427.211,181.943)">            <path d="M0,38.296c-1.374,0.298 -2.808,0.419 -4.242,0.419c-6.87,0 -8.544,-3.048 -8.544,-6.932l0,-17.983l-5.078,0l0,-4.183l5.078,0l0,-6.691l5.378,-3.345l0,10.036l7.886,0l0,4.183l-7.886,0l0,15.176c0,2.569 0.358,5.556 4.54,5.556c0.956,0 2.091,-0.179 2.868,-0.418l0,4.182Z" style="fill:rgb(107,108,107);fill-rule:nonzero;"/>        </g>        <g transform="matrix(4.16667,0,0,4.16667,451.854,340.516)">            <path d="M0,-41.225l5.377,0l0,18.879l0.119,0c0.956,-2.389 3.226,-6.752 9.022,-6.752c6.572,0 7.647,5.856 7.647,9.381l0,19.717l-5.376,0l0,-15.534c0,-5.259 0,-8.186 -3.884,-8.186c-4.42,0 -7.528,5.974 -7.528,11.651l0,12.069l-5.377,0l0,-41.225Z" style="fill:rgb(107,108,107);fill-rule:nonzero;"/>        </g>        <g transform="matrix(4.16667,0,0,4.16667,632.938,304.909)">            <path d="M0,-11.35c0,-1.793 -1.075,-5.019 -5.197,-5.019c-4.422,0 -5.677,3.764 -5.677,5.019l10.874,0Zm4.72,19.597c-2.33,0.537 -4.003,0.956 -7.11,0.956c-8.603,0 -14.1,-5.079 -14.1,-16.252c0,-12.188 7.946,-13.504 11.591,-13.504c6.931,0 10.276,4.721 10.276,11.412l0,1.375l-16.489,0c0,5.317 2.689,12.786 10.455,12.786c2.449,0 4.123,-0.597 5.377,-1.015l0,4.242Z" style="fill:rgb(107,108,107);fill-rule:nonzero;"/>        </g>    </g></svg>