<?xml version="1.0" encoding="UTF-8" standalone="no"?><!DOCTYPE svg PUBLIC "-//W3C//DTD SVG 1.1//EN" "http://www.w3.org/Graphics/SVG/1.1/DTD/svg11.dtd"><svg width="100%" height="100%" viewBox="0 0 1024 512" version="1.1" xmlns="http://www.w3.org/2000/svg" xmlns:xlink="http://www.w3.org/1999/xlink" xml:space="preserve" style="fill-rule:evenodd;clip-rule:evenodd;stroke-linejoin:round;stroke-miterlimit:2;"><title>Farmcrowdy</title><desc>Farmcrowdy is Nigeria’s First Digital Agriculture Platform that empowers rural farmers by providing them with improved seeds, farm inputs, training on modern farming techniques and provides a market for the sale of their farm produce.Since launching in 2016, Farmcrowdy has empowered over 25,000 small-scale farmers across Nigeria.</desc>    <g transform="matrix(5.66667,0,0,5.66667,2,148.334)">        <path d="M103.678,0.475c-7.417,0.792 -13.647,5.933 -15.834,13.065c-2.186,7.132 0.093,14.881 5.792,19.694c6.482,5.474 15.843,5.877 22.771,0.982c6.929,-4.896 9.675,-13.854 6.68,-21.792c-2.994,-7.937 -10.973,-12.849 -19.409,-11.949Zm0.07,0.416c9.964,-1.004 18.87,6.226 19.936,16.184c1.066,9.958 -6.107,18.909 -16.058,20.038c-6.493,0.736 -12.883,-2.062 -16.746,-7.333c-3.862,-5.271 -4.605,-12.208 -1.946,-18.177c2.659,-5.97 8.312,-10.057 14.814,-10.712Z" style="fill:rgb(172,187,22);"/>        <path d="M104.925,1.653c-7.015,0.325 -13.139,4.856 -15.503,11.47c-2.363,6.613 -0.497,13.999 4.724,18.696c5.221,4.698 12.762,5.777 19.09,2.731c4.592,-2.279 7.944,-6.47 9.159,-11.451c1.215,-4.981 0.17,-10.244 -2.857,-14.382c-0.277,-0.485 -0.623,-0.693 -0.969,-1.177c-3.389,-3.973 -8.429,-6.148 -13.644,-5.887Zm0.416,15.306c0.069,0.138 0.069,-0.07 0.069,0.207l-0.347,1.316l-0.346,1.662c-0.554,-0.831 -0.969,-2.631 -1.177,-3.739c-0.277,-1.87 0,-2.84 0.069,-4.571c-0.277,0.692 -0.415,1.662 -0.485,2.493c-0.692,-0.623 -0.762,-1.178 -1.731,-1.524c0.969,0.762 1.385,1.662 1.524,3.255c0.069,1.939 0.346,2.494 0.692,4.156c-0.623,-0.416 -0.97,-0.831 -1.454,-1.385c-2.424,-2.771 -3.186,-0.901 -4.156,-4.571c-0.069,1.385 0.208,1.523 0.554,2.493c-0.762,0 -1.523,-0.139 -2.147,0.277c1.593,0.138 2.701,0.346 3.74,1.108c2.216,1.593 4.987,6.095 5.125,9.211c-0.692,-0.346 -1.385,-1.87 -4.501,-3.047c-1.039,-0.346 -1.87,-0.485 -2.771,-0.97c-0.485,-0.346 -1.523,-1.316 -1.523,-2.077c0,0.9 0.831,2.008 1.177,2.285l-3.255,0.139c2.216,0.207 3.255,0 5.194,0.761c1.316,0.554 2.84,1.524 3.602,2.286c0.484,0.554 2.008,1.801 1.731,2.562l-1.316,3.256c-0.415,1.108 -0.346,1.177 -0.485,2.424c-8.319,-1.282 -14.222,-8.79 -13.505,-17.176c0.543,-6.161 4.56,-11.469 10.341,-13.667c5.781,-2.197 12.31,-0.897 16.808,3.347l0.416,0.485c4.212,4.379 5.594,10.758 3.572,16.487c-2.022,5.73 -7.103,9.828 -13.13,10.593c-0.485,-2.078 -0.277,-2.909 0.277,-4.917c0.623,-2.147 0.97,-2.286 2.355,-3.394c3.255,-2.493 4.64,-2.493 7.757,-3.601c-1.178,-0.07 -2.078,0.138 -3.186,0.346c0.554,-0.97 0.831,-1.108 0.969,-2.493c-0.277,2.562 -3.255,2.978 -5.956,4.64l-2.008,1.385c-1.247,-2.493 0.554,-3.324 2.424,-6.025c0.485,-0.693 1.177,-2.078 1.385,-3.186c0.277,-1.732 0.693,-1.939 1.731,-2.909c-0.831,0.277 -1.108,0.762 -1.593,1.177l-0.207,-1.246c-0.07,2.008 -0.139,3.878 -2.078,5.61c0.416,-2.563 0.277,-2.771 -0.554,-4.849c0.831,2.563 0.138,4.987 -1.524,6.926l-1.454,1.593c-0.208,-1.177 -0.346,-2.562 -0.346,-3.809c0,-0.623 0.207,-2.701 0.623,-3.324c0.138,-0.901 1.108,-2.494 1.524,-3.117l1.592,-1.939l0.555,-0.554c-0.347,0.208 -1.247,0.831 -1.455,1.108l0,-1.455l-0.346,-1.108c0.138,0.762 0.346,1.178 0.069,2.147c-0.554,1.801 -2.701,3.602 -2.77,4.71l0,-1.801c-0.762,0.277 -1.524,1.108 -1.108,2.216l0.415,-0.969l-0.208,1.039c0.624,-0.139 0.554,-0.07 0.832,-0.277Z" style="fill:rgb(41,55,55);"/>        <path d="M111.366,11.695c0.762,-0.346 1.593,-1.177 3.116,-1.247c-1.038,0.416 -2.285,0.832 -2.908,1.593c1.662,1.732 3.255,-0.692 3.878,-1.177c0.416,-0.346 0.831,-0.416 1.247,-0.762c-1.039,-0.346 -2.147,-0.762 -3.394,-0.485c-1.108,0.208 -2.078,0.831 -1.939,2.078Zm0.831,14.336c1.87,-0.207 2.078,0.07 3.601,0.347c-1.523,-0.07 -1.87,-0.347 -3.601,0.069c1.316,2.562 2.909,0.485 5.333,0.554c-1.455,-2.147 -4.987,-2.84 -5.333,-0.97Zm-17.107,-14.474l0.208,0.069l0.069,0.069l0.416,0.139c0.277,0 0.416,0.138 0.623,0.207c1.178,0.485 2.355,1.801 3.394,-0.207c-0.623,-0.416 -2.009,-0.624 -2.84,-0.624c1.316,-0.069 1.732,0 2.84,0.277c-0.277,-0.9 -1.177,-1.246 -2.355,-1.039c-1.177,0.139 -1.593,0.762 -2.355,1.109Zm21.262,10.457c0.624,-0.554 0.693,-1.038 1.593,-1.523c-0.346,0.554 -1.108,1.039 -1.316,1.87c2.217,0.762 1.732,-0.624 3.463,-3.048c-1.87,-0.207 -4.155,0.762 -3.74,2.701Zm-8.795,-13.089c0.069,-0.554 -0.693,-1.593 -0.901,-1.939c0.693,0.554 0.762,0.969 1.109,1.454l0.207,0.277c0.277,-1.108 -0.138,-1.662 -0.762,-2.285c-0.554,-0.485 -1.385,-0.97 -2.354,-0.901c1.177,1.801 0.346,3.879 2.701,3.394Zm4.848,9.765c0.692,0.623 0.415,0.069 2.008,1.732c-0.138,-0.416 -1.593,-1.247 -2.285,-1.524c-0.693,1.939 1.385,2.078 2.147,2.355c0.485,0.138 0.762,0.415 1.108,0.554c-0.139,-3.255 -2.909,-3.671 -2.978,-3.117Zm-7.272,-4.432c0.138,-0.693 0,-1.316 0,-1.94l0.069,0.139c0.139,0.346 0.208,0.692 0.208,1.662c1.246,-0.762 0.415,-3.186 -1.247,-4.086c0.208,1.87 -1.177,3.809 0.97,4.225Zm-11.913,0.415c1.039,0.554 1.109,0.623 1.87,1.247c0.762,0.692 1.732,0.485 2.147,-0.416l-1.939,-0.831c0.831,0.069 1.316,0.346 2.009,0.554c-0.277,-1.316 -1.87,-1.454 -3.048,-1.108l-1.039,0.554Zm-0.969,5.887c0.762,0.623 0.831,0.623 1.524,1.593c0.415,0.693 1.177,1.039 2.077,0.277c-0.208,-0.485 -1.177,-1.177 -1.731,-1.385c0.9,0.208 1.316,0.831 1.939,1.108c-0.138,-1.731 -2.147,-2.078 -3.809,-1.593Zm8.726,9.35c0.693,-2.009 2.355,-1.247 2.147,-3.117c-0.692,0.208 -1.454,0.901 -1.662,1.455c0.346,-0.97 1.108,-1.386 1.455,-1.732c-1.87,-1.662 -2.84,2.216 -1.94,3.394Zm1.247,-5.333c0.208,-0.762 0.208,-0.97 0.208,-1.87c0.207,0.554 0.138,1.316 0,1.939c1.316,-0.138 1.454,-1.039 0.9,-2.147c-0.346,-0.831 -1.108,-1.316 -1.731,-1.731c0.069,0.831 0.277,1.039 0.069,2.008c-0.208,0.97 -0.208,1.524 0.554,1.801Zm-0.416,-6.649l-0.138,-2.424l0.415,2.355c1.109,-0.693 0.485,-2.909 -1.177,-3.809c0.139,1.731 -1.177,3.67 0.9,3.878Zm12.605,-2.701l2.147,-0.138c-0.762,0.138 -1.593,0.069 -2.147,0.484c0.624,1.801 2.147,0.07 3.532,0c-0.138,-0.346 0,-0.138 -0.346,-0.346l-0.346,-0.277c-0.97,-0.623 -2.424,-0.762 -2.84,0.277Zm-11.774,-3.255c0,-0.485 -0.277,-0.831 -0.415,-1.316l0.346,0.416l0.277,0.623c0,0 0.208,-0.069 0.277,-0.485c0.07,-0.9 -1.177,-2.008 -2.493,-2.147l0.554,1.939c0.139,0.832 0.485,1.039 1.454,0.97Zm-6.717,15.375c0.484,-0.554 0.554,-0.831 1.108,-1.177c0.554,-0.416 0.969,-0.485 0.9,-1.385c-0.485,-0.07 -0.623,0.207 -1.039,0.415c0.277,-0.415 0.485,-0.485 0.762,-0.762c-1.593,-1.315 -2.216,1.386 -1.731,2.909Zm0.346,-7.203c0.623,-0.277 0.762,-0.554 1.523,-0.692c0.762,-0.208 1.178,-0.208 1.178,-1.108c-0.762,0.069 -0.831,0.208 -1.455,0.415c0.624,-0.415 0.693,-0.346 1.386,-0.623c-0.347,-1.316 -2.286,-0.693 -2.632,2.008Zm12.812,4.918l0.832,-1.524c-0.208,0.554 -0.416,0.9 -0.555,1.662c1.663,0 1.109,-0.9 1.732,-2.978c-1.108,0.277 -2.493,1.385 -2.009,2.84Zm-2.216,-3.74l0.554,-1.662l-0.346,1.731c1.662,0.208 1.039,-1.662 1.316,-3.047c-0.831,0.277 -2.632,2.078 -1.524,2.978Zm3.048,6.302l0.138,0.07l0.208,0.069l0.969,0.485c-0.554,-0.139 -0.761,-0.277 -1.523,-0.347c0.138,1.732 1.385,1.108 2.909,1.524c-0.139,-0.693 -0.555,-1.177 -0.901,-1.524c-0.346,-0.346 -1.246,-0.9 -1.8,-0.277Zm-17.176,-9.696c0.761,-0.069 1.039,-0.138 1.731,0.139c0.693,0.208 1.108,0.208 1.316,-0.347c-0.485,-0.346 -0.831,-0.207 -1.385,-0.346l1.454,0.139c0,-2.078 -2.562,-0.693 -3.116,0.415Zm12.397,-8.103c0.138,-0.346 -0.208,-0.762 -0.416,-1.247c0.208,0.278 0.485,0.762 0.762,0.97c0.346,-0.554 -0.208,-1.247 -0.554,-1.454c-0.416,-0.347 -0.9,-0.485 -1.524,-0.554c0.693,1.593 0.624,2.493 1.732,2.285Zm9.003,3.324c0.554,-0.138 0.762,-0.346 1.316,-0.346c-0.415,0.139 -0.97,0.277 -1.247,0.554c0.347,0.485 0.832,0.762 1.455,0.208l1.385,-0.831c-0.762,-0.485 -2.563,-0.9 -2.909,0.415Zm-14.267,14.406c0.069,-0.554 0.069,-0.831 0.277,-1.316c0.693,-1.247 0.139,-1.731 -0.277,-0.831l-0.208,0.693c0,-0.624 0.208,-0.762 0.347,-1.247c-1.662,0 -1.178,1.87 -0.139,2.701Zm6.58,-10.735l0.969,0l-0.9,0.416c0.485,1.108 1.247,0.346 2.355,-0.208l0.277,-0.208c-0.416,-0.208 -1.178,-0.762 -2.147,-0.415l-0.347,0.207l0,0.07l-0.069,0.069l-0.138,0.069Zm6.302,0.693c0.416,-0.139 0.762,-0.277 1.247,-0.277c-0.485,0.069 -0.901,0.138 -1.247,0.484c0.623,1.039 1.385,0.07 1.801,-0.207l0.623,-0.277c-0.693,-0.416 -2.078,-0.901 -2.424,0.277Zm-7.41,-0.554l0.277,-0.277l0,-1.801c-0.762,0.277 -1.524,1.108 -1.109,2.147l0.416,-0.97l-0.208,1.108c0.416,-0.069 0.346,0 0.624,-0.207Zm5.886,-3.117l-0.277,-1.039l0.139,0.208l0.277,0.485l0.208,0.208c0.831,-1.039 -0.485,-1.732 -1.732,-1.801l0.139,0.277c0.9,1.385 0.346,1.662 1.246,1.662Zm-0.831,-3.74l0.139,-0.069c0.692,-0.208 0.554,-1.524 -0.277,-2.216c-0.485,1.246 -0.762,2.008 0.138,2.285Zm-10.458,11.289c0.347,-0.346 0.208,-0.485 0.762,-1.108c0.139,-0.208 0.347,-0.277 0.347,-0.623c-0.139,-0.485 -0.208,-0.208 -0.555,0c0.208,-0.347 0.416,-0.485 -0.069,-0.554c-0.277,0 -0.485,0.207 -0.623,0.415c-0.277,0.693 0,1.316 0.138,1.87Zm6.511,-8.38l0.346,-0.208l0.208,-0.346l-0.208,0.692c1.316,0.278 0.831,-1.731 0.277,-2.077c-0.485,1.385 -0.831,1.108 -0.623,1.939Zm3.947,4.848l0.416,-0.485l-0.208,0.554c0.831,-0.208 1.039,-1.316 0.554,-2.008l-0.069,0.069c-0.069,0.346 0,0 -0.069,0.139c-0.554,0.623 -1.386,1.108 -0.624,1.731Zm0,3.532l0.831,-0.208c-0.415,0.139 -0.415,0.07 -0.761,0.416c0.277,0.346 0.554,0.485 1.108,0.138l0.831,-0.554l-0.069,-0.207l-0.347,-0.139l-0.623,-0.069c-0.554,0 -0.762,0.208 -0.97,0.623Zm5.956,2.84l0.693,-0.139c-0.277,0.139 -0.416,0.069 -0.623,0.416c0.485,0.554 0.692,0.346 1.731,-0.347l0.208,-0.207c-0.693,-0.208 -1.593,-0.693 -2.009,0.277Zm-16.621,-0.485l0.346,-0.623l-0.139,0.761c1.109,-0.138 0.693,-0.831 0.901,-1.87c-0.624,0.139 -1.662,0.97 -1.108,1.732Zm-1.178,-0.693c0.208,-0.277 0.139,-0.277 0.139,-0.623l0.069,0.208l0.069,0.138l0.139,0.208c0.208,-0.9 -0.069,-1.593 -0.831,-2.008c0.069,1.038 -0.554,1.87 0.415,2.077Zm14.129,0.416l0.138,-0.208l0.139,0.346c1.316,-0.069 0.346,-1.593 -0.069,-1.87c-0.07,0.762 -0.554,1.316 -0.208,1.732Zm-14.129,-8.657l0.277,0.069l0.277,0c-0.484,0.069 -0.415,0.069 -0.554,0.346c0.347,0.208 0.554,0.346 0.97,0.069l0.9,-0.484c-0.554,-0.347 -1.454,-0.693 -1.87,0Zm12.19,0.484c0.277,-0.415 -0.07,-0.069 0.069,-0.277l0.208,-0.138c-0.208,-0.554 -0.624,-0.693 -1.247,-0.762c0.485,1.108 0.346,1.177 0.97,1.177Zm-2.009,0l-0.208,-0.692l0.416,0.485c0.069,-0.693 -0.346,-0.97 -1.039,-1.039c0.208,0.762 0.069,1.177 0.831,1.246Zm-108.734,2.286l0,-3.463l2.701,0l0,-0.623c0,-3.671 1.731,-5.472 5.264,-5.472c1.315,0 2.285,0.139 2.908,0.554c0.693,0.347 1.039,0.901 1.039,1.593c0,0.624 -0.207,1.247 -0.623,1.94c-0.693,-0.347 -1.524,-0.554 -2.424,-0.554c-0.762,0 -1.316,0.138 -1.662,0.484c-0.347,0.347 -0.554,0.901 -0.554,1.593l0,0.554l4.224,-0.069l0,3.463l-3.878,-0.069l0,11.012l-4.294,0l0,-11.012l-2.701,0.069Zm24.309,10.943l-2.562,0c-1.385,0 -2.216,-0.762 -2.355,-2.286c-0.9,1.732 -2.424,2.563 -4.571,2.563c-1.316,0 -2.355,-0.347 -3.255,-1.108c-0.936,-0.756 -1.452,-1.916 -1.385,-3.117c0,-3.255 2.355,-4.917 7.133,-4.917l2.009,0c0,-0.901 -0.208,-1.524 -0.624,-1.94c-0.415,-0.346 -1.177,-0.554 -2.077,-0.554c-1.801,0 -3.325,0.416 -4.64,1.247c-0.416,-0.623 -0.693,-1.316 -0.693,-2.078c0,-0.762 0.277,-1.246 0.762,-1.523c1.177,-0.693 2.839,-1.039 4.917,-1.039c2.078,0 3.671,0.485 4.848,1.454c1.177,1.039 1.732,2.424 1.732,4.294l0,5.61c0.069,1.593 0.277,2.632 0.761,3.394Zm-8.518,-2.978c1.385,0 2.631,-0.555 3.601,-1.87l0,-1.524l-2.008,0c-2.147,0 -3.255,0.623 -3.255,1.939c0,0.416 0.138,0.762 0.484,1.039c0.347,0.277 0.693,0.416 1.178,0.416Zm14.336,-9.004c0.346,-0.692 0.97,-1.316 1.731,-1.87c0.762,-0.554 1.663,-0.831 2.563,-0.831c0.762,0 1.385,0.208 1.939,0.623c0.554,0.485 0.762,1.108 0.762,1.94c0,0.9 -0.208,1.731 -0.554,2.631c-0.796,-0.713 -1.841,-1.086 -2.909,-1.039c-1.454,0 -2.632,0.555 -3.601,1.663l0,8.865l-4.294,0l0,-14.406l1.731,0c0.901,0 1.524,0.208 1.939,0.623c0.416,0.347 0.624,1.039 0.693,1.801Zm25.833,9.488l0,-6.648c0,-1.316 -0.623,-2.009 -1.731,-2.009c-0.624,0 -1.247,0.208 -1.87,0.623c-0.554,0.416 -0.97,0.901 -1.247,1.455l0,9.073l-4.225,0l0,-9.142c0,-1.316 -0.623,-2.009 -1.731,-2.009c-0.693,0 -1.247,0.208 -1.87,0.623c-0.554,0.416 -0.97,0.901 -1.316,1.455l0,9.073l-4.225,0l0,-14.406l1.662,0c0.901,0 1.524,0.208 1.94,0.554c0.346,0.416 0.554,0.97 0.623,1.732c1.177,-1.663 2.77,-2.563 4.917,-2.563c2.009,0 3.255,0.97 3.879,2.84c1.06,-1.779 2.985,-2.861 5.055,-2.84c1.386,0 2.494,0.416 3.256,1.316c0.761,0.9 1.108,2.216 1.108,3.809l0,9.558l-1.593,0c-1.801,0 -2.632,-0.831 -2.632,-2.494Z" style="fill:rgb(172,187,22);"/>        <path d="M63.578,26.793c-1.316,-1.316 -2.008,-3.116 -2.008,-5.54c0,-2.286 0.692,-4.156 2.008,-5.472c1.316,-1.385 3.186,-2.077 5.541,-2.077c1.593,0 2.909,0.207 3.948,0.761c0.484,0.208 0.761,0.416 0.9,0.624c0.138,0.277 0.208,0.692 0.208,1.177c0,0.762 -0.208,1.454 -0.554,2.216c-1.247,-0.762 -2.563,-1.177 -4.087,-1.177c-2.424,0 -3.601,1.247 -3.601,3.948c0,1.246 0.277,2.216 0.9,2.908c0.624,0.693 1.593,1.039 2.84,1.039c1.385,0 2.84,-0.415 4.155,-1.316c0.416,0.762 0.624,1.524 0.624,2.286c0,0.485 -0.07,0.831 -0.277,1.108c-0.139,0.208 -0.416,0.485 -0.831,0.693c-1.039,0.554 -2.355,0.831 -4.087,0.831c-2.424,0.069 -4.363,-0.624 -5.679,-2.009Zm16.345,-10.25c0.416,-0.692 0.97,-1.316 1.731,-1.87c0.762,-0.554 1.663,-0.831 2.563,-0.831c0.762,0 1.454,0.208 2.008,0.623c0.485,0.485 0.762,1.108 0.762,1.94c0,0.9 -0.277,1.731 -0.623,2.631c-0.796,-0.713 -1.841,-1.086 -2.909,-1.039c-1.454,0 -2.632,0.555 -3.532,1.663l0,8.865l-4.363,0l0,-14.406l1.731,0c0.901,0 1.524,0.208 1.939,0.623c0.416,0.347 0.624,1.039 0.693,1.801Zm56.653,5.471l-1.801,6.095l-5.887,0l-3.878,-14.405l4.778,0l1.386,5.748c0.554,1.939 0.761,3.809 0.831,5.54l0.138,0c0.139,-1.731 0.554,-3.67 1.178,-5.748l1.731,-5.54l4.64,0l1.732,5.54c0.554,2.078 0.9,4.086 1.038,5.748l0.07,0c0,-1.731 0.277,-3.601 0.692,-5.609l1.732,-5.679l4.779,0l-4.294,14.405l-5.403,0l-1.731,-6.095l-0.831,-4.778l-0.069,0c-0.277,2.008 -0.485,3.601 -0.831,4.778Zm22.993,0.347l0,-3.463c-0.831,-1.316 -1.87,-1.939 -2.909,-1.939c-0.9,0 -1.523,0.346 -2.077,1.038c-0.555,0.693 -0.832,1.663 -0.832,2.909c0,1.247 0.277,2.217 0.762,2.909c0.485,0.693 1.247,1.039 2.147,1.039c0.624,0 1.178,-0.208 1.732,-0.762c0.484,-0.485 0.9,-1.039 1.177,-1.731Zm4.225,-11.913l0,14.337c0,1.454 0.208,2.632 0.623,3.324l-2.632,0c-1.385,0 -2.216,-0.762 -2.354,-2.285c-0.752,1.646 -2.416,2.683 -4.225,2.631c-1.732,0 -3.186,-0.692 -4.225,-2.008c-1.039,-1.316 -1.593,-3.186 -1.593,-5.541c0,-2.354 0.554,-4.294 1.593,-5.61c1.108,-1.246 2.563,-1.939 4.363,-1.939c1.658,-0.032 3.209,0.81 4.087,2.216l0,-7.618l1.662,0c1.8,0 2.701,0.831 2.701,2.493Zm16.206,3.256l0,12.743c0,2.424 -0.623,4.363 -1.939,5.679c-1.385,1.316 -3.186,1.939 -5.61,1.939c-2.147,0 -3.601,-0.208 -4.433,-0.762c-0.692,-0.554 -1.108,-1.177 -1.108,-2.008c0,-1.039 0.208,-1.801 0.693,-2.355c1.108,1.039 2.562,1.455 4.294,1.455c1.316,0 2.216,-0.208 2.909,-0.762c0.623,-0.485 0.9,-1.385 0.9,-2.632l0,-1.385c-1.027,1.56 -2.772,2.497 -4.64,2.493c-1.662,0 -2.909,-0.485 -3.809,-1.524c-0.901,-1.038 -1.316,-2.562 -1.316,-4.571l0,-8.31l1.731,0c1.732,0 2.632,0.831 2.632,2.493l0,5.402c0,1.87 0.693,2.839 2.147,2.839c1.524,0 2.562,-0.623 3.324,-1.939l0,-8.795l4.225,0Z" style="fill:rgb(41,55,55);"/>    </g></svg>