<?xml version="1.0" encoding="UTF-8" standalone="no"?><!DOCTYPE svg PUBLIC "-//W3C//DTD SVG 1.1//EN" "http://www.w3.org/Graphics/SVG/1.1/DTD/svg11.dtd"><svg width="100%" height="100%" viewBox="0 0 1024 512" version="1.1" xmlns="http://www.w3.org/2000/svg" xmlns:xlink="http://www.w3.org/1999/xlink" xml:space="preserve" style="fill-rule:evenodd;clip-rule:evenodd;stroke-linejoin:round;stroke-miterlimit:2;"><title>Creditfolio</title><desc>Creditfolio is a crowdlending platform active since 2017 with a focus on consumer / consumer lending. The Creditfolio platform enables individuals to borrow quickly and easily on attractive terms - without the intervention of a bank. Investors and lenders can use the website to obtain individual information on current loan projects and to make financing commitments. In addition to fair and attractive returns, we also offer investors the opportunity to optimally diversify their existing portfolio.</desc>    <g transform="matrix(7.62781,0,0,7.62781,2.00955,65.3048)">        <path id="XMLID_57_" d="M12.89,16.91l2.93,0l0,2.04l0.05,0c0.34,-0.71 0.81,-1.29 1.43,-1.73c0.61,-0.44 1.32,-0.66 2.14,-0.66c0.12,0 0.25,0 0.38,0.01c0.14,0.01 0.25,0.03 0.35,0.06l0,2.8c-0.2,-0.05 -0.38,-0.08 -0.52,-0.1c-0.14,-0.02 -0.29,-0.02 -0.42,-0.02c-0.7,0 -1.26,0.13 -1.68,0.38c-0.43,0.26 -0.75,0.56 -0.99,0.92c-0.24,0.35 -0.4,0.72 -0.48,1.09c-0.09,0.37 -0.13,0.67 -0.13,0.89l0,6.55l-3.06,0l0,-12.23Z" style="fill:rgb(88,94,169);fill-rule:nonzero;"/>        <path id="XMLID_42_" d="M33.03,23.18l0,0.41c0,0.14 -0.01,0.28 -0.02,0.41l-9.3,0c0.04,0.44 0.15,0.84 0.34,1.21c0.2,0.36 0.46,0.68 0.78,0.94c0.32,0.27 0.69,0.47 1.1,0.63c0.4,0.14 0.82,0.22 1.27,0.22c0.76,0 1.41,-0.14 1.93,-0.42c0.53,-0.28 0.96,-0.67 1.3,-1.16l2.04,1.63c-1.21,1.63 -2.96,2.44 -5.25,2.44c-0.95,0 -1.83,-0.15 -2.62,-0.44c-0.8,-0.3 -1.49,-0.72 -2.08,-1.26c-0.59,-0.54 -1.04,-1.21 -1.38,-2c-0.33,-0.79 -0.5,-1.69 -0.5,-2.69c0,-0.99 0.17,-1.88 0.5,-2.69c0.33,-0.81 0.79,-1.5 1.36,-2.07c0.58,-0.57 1.26,-1.01 2.05,-1.32c0.79,-0.32 1.64,-0.47 2.56,-0.47c0.85,0 1.63,0.14 2.36,0.42c0.72,0.28 1.35,0.7 1.87,1.25c0.53,0.55 0.94,1.24 1.24,2.06c0.3,0.83 0.45,1.79 0.45,2.9m-3.06,-1.38c0,-0.39 -0.06,-0.77 -0.17,-1.12c-0.11,-0.35 -0.29,-0.67 -0.52,-0.94c-0.24,-0.27 -0.54,-0.49 -0.9,-0.65c-0.37,-0.16 -0.79,-0.24 -1.29,-0.24c-0.92,0 -1.69,0.28 -2.33,0.83c-0.64,0.55 -0.99,1.26 -1.06,2.13l6.27,0l0,-0.01Z" style="fill:rgb(88,94,169);fill-rule:nonzero;"/>        <path id="XMLID_39_" d="M48.24,29.14l-2.9,0l0,-1.84l-0.05,0c-0.42,0.72 -1.02,1.26 -1.77,1.63c-0.75,0.37 -1.57,0.56 -2.43,0.56c-0.93,0 -1.77,-0.17 -2.51,-0.52c-0.74,-0.35 -1.37,-0.81 -1.89,-1.4c-0.52,-0.58 -0.92,-1.27 -1.2,-2.06c-0.28,-0.79 -0.42,-1.64 -0.42,-2.53c0,-0.9 0.14,-1.74 0.43,-2.52c0.29,-0.78 0.7,-1.46 1.22,-2.04c0.53,-0.58 1.16,-1.03 1.89,-1.36c0.73,-0.33 1.53,-0.49 2.4,-0.49c0.56,0 1.06,0.06 1.5,0.19c0.44,0.13 0.83,0.28 1.16,0.47c0.33,0.19 0.62,0.39 0.85,0.61c0.24,0.22 0.43,0.43 0.58,0.64l0.08,0l0,-6.51c0,0 -0.02,-1.72 1.55,-1.72l1.5,0l0,18.89l0.01,0Zm-10.06,-6.16c0,0.47 0.07,0.95 0.22,1.43c0.14,0.48 0.36,0.9 0.65,1.27c0.29,0.37 0.65,0.68 1.09,0.92c0.44,0.24 0.96,0.35 1.56,0.35c0.56,0 1.06,-0.12 1.5,-0.35c0.44,-0.23 0.82,-0.53 1.13,-0.9c0.31,-0.37 0.55,-0.79 0.71,-1.26c0.16,-0.47 0.24,-0.94 0.24,-1.42c0,-0.47 -0.08,-0.95 -0.24,-1.43c-0.16,-0.48 -0.4,-0.9 -0.71,-1.27c-0.31,-0.37 -0.69,-0.68 -1.13,-0.92c-0.44,-0.24 -0.94,-0.35 -1.5,-0.35c-0.6,0 -1.11,0.12 -1.56,0.35c-0.44,0.23 -0.81,0.53 -1.09,0.9c-0.29,0.37 -0.51,0.8 -0.65,1.26c-0.15,0.47 -0.22,0.94 -0.22,1.42" style="fill:rgb(88,94,169);fill-rule:nonzero;"/>        <path id="XMLID_38_" d="M57.67,16.91l0,-3.54l3,0l0,3.54l3.06,0l0,2.44l-3.06,0l0,5.68c0,0.54 0.1,1 0.29,1.35c0.2,0.35 0.63,0.53 1.31,0.53c0.2,0 0.43,-0.02 0.66,-0.06c0.24,-0.04 0.45,-0.11 0.64,-0.19l0.1,2.39c-0.27,0.1 -0.6,0.18 -0.97,0.24c-0.37,0.06 -0.73,0.09 -1.07,0.09c-0.82,0 -1.48,-0.11 -1.99,-0.34c-0.51,-0.23 -0.91,-0.55 -1.21,-0.94c-0.3,-0.4 -0.5,-0.86 -0.61,-1.37c-0.11,-0.52 -0.16,-1.07 -0.16,-1.67l0,-5.71l0,-2.44l0.01,0Z" style="fill:rgb(88,94,169);fill-rule:nonzero;"/>        <path id="XMLID_37_" d="M66.23,19.35l0,-2.44l0,-1.38c0,-0.73 0.08,-1.43 0.24,-2.1c0.16,-0.67 0.43,-1.26 0.82,-1.77c0.38,-0.51 0.89,-0.91 1.51,-1.21c0.63,-0.3 1.42,-0.45 2.37,-0.45c0.34,0 0.62,0.01 0.85,0.04c0.23,0.03 0.46,0.07 0.7,0.14l-0.2,2.6c-0.17,-0.05 -0.35,-0.09 -0.55,-0.13c-0.2,-0.03 -0.4,-0.05 -0.62,-0.05c-0.44,0 -0.8,0.08 -1.07,0.26c-0.27,0.17 -0.48,0.39 -0.62,0.66c-0.14,0.28 -0.24,0.57 -0.29,0.89c-0.05,0.32 -0.08,0.64 -0.08,0.94l0,1.56l2.83,0l0,2.44l-2.83,0l0,9.79l-3.06,0l0,-9.79Z" style="fill:rgb(88,94,169);fill-rule:nonzero;"/>        <path id="XMLID_36_" d="M88.62,10.26c1.54,0.01 1.58,0 1.58,0l0,18.88l-3.06,0l0,-17.25c0.01,0 -0.06,-1.64 1.48,-1.63" style="fill:rgb(88,94,169);fill-rule:nonzero;"/>        <path id="XMLID_35_" d="M52.98,16.9c1.54,0.01 1.58,0 1.58,0l0,12.24l-3.06,0l0,-10.61c0.01,0 -0.06,-1.64 1.48,-1.63" style="fill:rgb(88,94,169);fill-rule:nonzero;"/>        <path id="XMLID_34_" d="M94.2,16.9c1.54,0.01 1.58,0 1.58,0l0,12.24l-3.06,0l0,-10.61c0.01,0 -0.06,-1.64 1.48,-1.63" style="fill:rgb(88,94,169);fill-rule:nonzero;"/>        <path id="XMLID_33_" d="M51.06,12.1c0,-0.5 0.18,-0.93 0.55,-1.29c0.36,-0.36 0.83,-0.55 1.39,-0.55c0.56,0 1.03,0.17 1.41,0.52c0.38,0.35 0.57,0.79 0.57,1.31c0,0.52 -0.19,0.96 -0.57,1.31c-0.38,0.35 -0.85,0.52 -1.41,0.52c-0.56,0 -1.02,-0.18 -1.39,-0.55c-0.37,-0.35 -0.55,-0.78 -0.55,-1.27" style="fill:rgb(88,94,169);fill-rule:nonzero;"/>        <path id="XMLID_32_" d="M92.23,12.1c0,-0.5 0.18,-0.93 0.55,-1.29c0.36,-0.36 0.83,-0.55 1.39,-0.55c0.56,0 1.03,0.17 1.41,0.52c0.38,0.35 0.57,0.79 0.57,1.31c0,0.52 -0.19,0.96 -0.57,1.31c-0.38,0.35 -0.85,0.52 -1.41,0.52c-0.56,0 -1.02,-0.18 -1.39,-0.55c-0.37,-0.35 -0.55,-0.78 -0.55,-1.27" style="fill:rgb(88,94,169);fill-rule:nonzero;"/>        <path id="XMLID_31_" d="M1.52,26.95c0.11,0.13 0.23,0.26 0.35,0.39c0.13,0.12 0.26,0.24 0.39,0.35c2.39,2.03 5.91,2.03 8.3,0c0.13,-0.11 0.26,-0.22 0.38,-0.35l-0.01,-0.01c-0.13,-0.13 -0.24,-0.26 -0.35,-0.39c-0.47,-0.55 -0.82,-1.17 -1.07,-1.82l-0.01,0.01c-0.11,0.14 -0.21,0.28 -0.33,0.41c-0.13,0.13 -0.27,0.23 -0.41,0.33c-1.39,1.05 -3.31,1.05 -4.69,0c-0.14,-0.11 -0.28,-0.21 -0.41,-0.33c-0.13,-0.13 -0.23,-0.27 -0.33,-0.41c-1.05,-1.39 -1.05,-3.31 0,-4.69c0.11,-0.14 0.21,-0.28 0.33,-0.41c0.13,-0.13 0.27,-0.23 0.41,-0.33c1.39,-1.05 3.31,-1.05 4.69,0c0.14,0.11 0.28,0.21 0.41,0.33c0.13,0.13 0.23,0.27 0.33,0.41c0,0 0,0.01 0.01,0.01c0.25,-0.65 0.6,-1.26 1.07,-1.82c0.11,-0.13 0.23,-0.26 0.35,-0.39l0.01,-0.01c-0.12,-0.12 -0.25,-0.23 -0.38,-0.35c-2.39,-2.03 -5.91,-2.03 -8.3,0c-0.13,0.14 -0.26,0.25 -0.38,0.38c-0.13,0.12 -0.24,0.26 -0.35,0.39c-2.04,2.39 -2.04,5.91 -0.01,8.3" style="fill:rgb(88,94,169);fill-rule:nonzero;"/>        <path id="XMLID_28_" d="M84.04,18.65c-0.11,-0.13 -0.23,-0.26 -0.35,-0.39c-0.13,-0.12 -0.26,-0.24 -0.39,-0.35c-2.39,-2.03 -5.91,-2.03 -8.3,0c-0.13,0.11 -0.26,0.23 -0.39,0.35c-0.13,0.13 -0.24,0.26 -0.35,0.39c-2.03,2.39 -2.03,5.91 0,8.3c0.11,0.13 0.23,0.26 0.35,0.39c0.13,0.13 0.26,0.24 0.39,0.35c2.39,2.03 5.91,2.03 8.3,0c0.13,-0.11 0.26,-0.23 0.39,-0.35c0.13,-0.13 0.24,-0.26 0.35,-0.39c2.03,-2.39 2.03,-5.91 0,-8.3m-2.14,6.9c-0.13,0.13 -0.27,0.23 -0.41,0.33c-1.39,1.05 -3.31,1.05 -4.69,0c-0.14,-0.11 -0.28,-0.21 -0.41,-0.33c-0.13,-0.13 -0.23,-0.27 -0.33,-0.41c-1.05,-1.39 -1.05,-3.31 0,-4.69c0.11,-0.14 0.21,-0.28 0.33,-0.41c0.13,-0.13 0.27,-0.23 0.41,-0.33c1.39,-1.05 3.31,-1.05 4.69,0c0.14,0.11 0.28,0.21 0.41,0.33c0.13,0.13 0.23,0.27 0.33,0.41c1.05,1.39 1.05,3.31 0,4.69c-0.1,0.14 -0.2,0.29 -0.33,0.41" style="fill:rgb(88,94,169);fill-rule:nonzero;"/>        <path id="XMLID_25_" d="M108.74,18.65c-0.11,-0.13 -0.23,-0.26 -0.35,-0.39c-0.13,-0.12 -0.26,-0.24 -0.39,-0.35c-2.39,-2.03 -5.91,-2.03 -8.3,0c-0.13,0.11 -0.27,0.23 -0.39,0.35c-0.13,0.13 -0.24,0.26 -0.35,0.39c-2.03,2.39 -2.03,5.91 0,8.3c0.11,0.13 0.23,0.26 0.35,0.39c0.13,0.13 0.26,0.24 0.39,0.35c2.39,2.03 5.91,2.03 8.3,0c0.13,-0.11 0.26,-0.23 0.39,-0.35c0.13,-0.13 0.24,-0.26 0.35,-0.39c2.03,-2.39 2.03,-5.91 0,-8.3m-2.14,6.9c-0.13,0.13 -0.27,0.23 -0.41,0.33c-1.39,1.05 -3.31,1.05 -4.69,0c-0.14,-0.11 -0.28,-0.21 -0.41,-0.33c-0.13,-0.13 -0.23,-0.27 -0.33,-0.41c-1.05,-1.39 -1.05,-3.31 0,-4.69c0.11,-0.14 0.21,-0.28 0.33,-0.41c0.13,-0.13 0.27,-0.23 0.41,-0.33c1.39,-1.05 3.31,-1.05 4.69,0c0.14,0.11 0.28,0.21 0.41,0.33c0.13,0.13 0.23,0.27 0.33,0.41c1.05,1.39 1.05,3.31 0,4.69c-0.1,0.14 -0.2,0.29 -0.33,0.41" style="fill:rgb(88,94,169);fill-rule:nonzero;"/>        <path id="XMLID_24_" d="M133.72,36.02c0,-2.96 -2.4,-5.36 -5.36,-5.36l-6.4,0c0.9,0.65 1.62,1.52 2.1,2.52l4.3,0c1.57,0 2.84,1.27 2.84,2.84l0,3.98l2.52,0l0,-3.98Z" style="fill:rgb(178,210,53);fill-rule:nonzero;"/>        <path id="XMLID_23_" d="M123.44,36.02c0,-2.96 -2.41,-5.36 -5.36,-5.36l-6.38,0c0.9,0.65 1.62,1.52 2.1,2.52l4.28,0c1.57,0 2.84,1.27 2.84,2.84l0,3.98l2.52,0l0,-3.98Z" style="fill:rgb(178,210,53);fill-rule:nonzero;"/>        <path id="XMLID_22_" d="M113.19,36.02c0,-2.96 -2.4,-5.36 -5.36,-5.36l-6.36,0c0.9,0.65 1.63,1.52 2.11,2.52l4.25,0c1.57,0 2.84,1.27 2.84,2.84l0,3.98l2.52,0l0,-3.98Z" style="fill:rgb(178,210,53);fill-rule:nonzero;"/>        <path id="XMLID_21_" d="M115.04,15.61c-0.25,-0.75 -0.63,-1.46 -1.17,-2.09c-0.11,-0.13 -0.23,-0.26 -0.35,-0.39c-0.13,-0.12 -0.26,-0.24 -0.39,-0.35c-2.39,-2.03 -5.91,-2.03 -8.3,0c-0.13,0.11 -0.27,0.23 -0.39,0.35c-0.13,0.13 -0.24,0.26 -0.35,0.39c-0.54,0.63 -0.92,1.34 -1.17,2.09c0.31,-0.04 0.62,-0.07 0.93,-0.07c0.6,0 1.2,0.08 1.77,0.22c0.08,-0.15 0.16,-0.3 0.27,-0.44c0.11,-0.14 0.21,-0.28 0.33,-0.41c0.13,-0.13 0.27,-0.23 0.41,-0.33c1.39,-1.05 3.31,-1.05 4.69,0c0.14,0.11 0.28,0.21 0.41,0.33c0.13,0.13 0.23,0.27 0.33,0.41c0.11,0.14 0.18,0.29 0.27,0.44c0.58,-0.14 1.17,-0.22 1.77,-0.22c0.32,0 0.63,0.03 0.94,0.07" style="fill:rgb(178,210,53);fill-rule:nonzero;"/>        <path id="XMLID_20_" d="M121.59,14.58c0.14,0.11 0.28,0.21 0.41,0.33c0.13,0.13 0.23,0.27 0.33,0.41c0.11,0.14 0.18,0.29 0.27,0.44c0.58,-0.15 1.17,-0.23 1.78,-0.23c0.31,0 0.62,0.03 0.92,0.07c-0.25,-0.75 -0.63,-1.45 -1.17,-2.08c-0.11,-0.13 -0.23,-0.26 -0.35,-0.39c-0.13,-0.13 -0.26,-0.24 -0.39,-0.35c-2.39,-2.03 -5.91,-2.03 -8.3,0c-0.13,0.11 -0.27,0.23 -0.39,0.35c-0.01,0.01 -0.02,0.03 -0.04,0.04c0.59,0.75 1.02,1.6 1.28,2.5c0.07,-0.12 0.13,-0.24 0.21,-0.35c0.11,-0.14 0.21,-0.28 0.33,-0.41c0.13,-0.13 0.27,-0.23 0.41,-0.33c1.39,-1.05 3.31,-1.05 4.7,0" style="fill:rgb(178,210,53);fill-rule:nonzero;"/>        <path id="XMLID_19_" d="M129.27,18.65c-0.11,-0.13 -0.23,-0.26 -0.35,-0.39c-0.13,-0.12 -0.26,-0.24 -0.39,-0.35c-2.39,-2.03 -5.91,-2.03 -8.3,0c-0.13,0.11 -0.26,0.23 -0.39,0.35c-0.01,0.02 -0.03,0.03 -0.04,0.05c0.6,0.76 1.03,1.6 1.28,2.48c0.07,-0.11 0.13,-0.22 0.21,-0.33c0.11,-0.14 0.21,-0.28 0.33,-0.41c0.13,-0.13 0.27,-0.23 0.41,-0.33c1.39,-1.05 3.31,-1.05 4.69,0c0.14,0.11 0.28,0.21 0.41,0.33c0.13,0.13 0.23,0.27 0.33,0.41c1.05,1.39 1.05,3.31 0,4.69c-0.11,0.14 -0.21,0.28 -0.33,0.41c-0.13,0.13 -0.27,0.23 -0.41,0.33c-1.39,1.05 -3.31,1.05 -4.69,0c-0.14,-0.11 -0.28,-0.21 -0.41,-0.33c-0.13,-0.13 -0.23,-0.27 -0.33,-0.41c-0.08,-0.11 -0.14,-0.22 -0.21,-0.33c-0.26,0.88 -0.68,1.72 -1.28,2.48c0.01,0.02 0.03,0.03 0.04,0.05c0.13,0.13 0.26,0.24 0.39,0.35c2.39,2.03 5.91,2.03 8.3,0c0.13,-0.11 0.26,-0.23 0.39,-0.35c0.13,-0.13 0.24,-0.26 0.35,-0.39c2.03,-2.4 2.03,-5.92 0,-8.31" style="fill:rgb(178,210,53);fill-rule:nonzero;"/>        <path id="XMLID_18_" d="M119,18.65c-0.11,-0.13 -0.23,-0.26 -0.35,-0.39c-0.13,-0.12 -0.26,-0.24 -0.39,-0.35c-2.39,-2.03 -5.91,-2.03 -8.3,0c-0.13,0.11 -0.26,0.23 -0.39,0.35c-0.01,0.01 -0.02,0.02 -0.03,0.04c0.6,0.75 1.03,1.59 1.29,2.47c0.06,-0.1 0.12,-0.21 0.2,-0.31c0.11,-0.14 0.21,-0.28 0.33,-0.41c0.13,-0.13 0.27,-0.23 0.41,-0.33c1.39,-1.05 3.31,-1.05 4.69,0c0.14,0.11 0.28,0.21 0.41,0.33c0.13,0.13 0.23,0.27 0.33,0.41c1.05,1.39 1.05,3.31 0,4.69c-0.11,0.14 -0.21,0.28 -0.33,0.41c-0.13,0.13 -0.27,0.23 -0.41,0.33c-1.39,1.05 -3.31,1.05 -4.69,0c-0.14,-0.11 -0.28,-0.21 -0.41,-0.33c-0.13,-0.13 -0.23,-0.27 -0.33,-0.41c-0.07,-0.1 -0.13,-0.21 -0.2,-0.31c-0.26,0.88 -0.69,1.71 -1.29,2.47c0.01,0.01 0.02,0.02 0.03,0.04c0.13,0.13 0.26,0.24 0.39,0.35c2.39,2.03 5.91,2.03 8.3,0c0.13,-0.11 0.26,-0.23 0.39,-0.35c0.13,-0.13 0.24,-0.26 0.35,-0.39c2.03,-2.4 2.03,-5.92 0,-8.31" style="fill:rgb(178,210,53);fill-rule:nonzero;"/>    </g></svg>