<?xml version="1.0" encoding="UTF-8" standalone="no"?><!DOCTYPE svg PUBLIC "-//W3C//DTD SVG 1.1//EN" "http://www.w3.org/Graphics/SVG/1.1/DTD/svg11.dtd"><svg width="100%" height="100%" viewBox="0 0 1024 512" version="1.1" xmlns="http://www.w3.org/2000/svg" xmlns:xlink="http://www.w3.org/1999/xlink" xml:space="preserve" style="fill-rule:evenodd;clip-rule:evenodd;stroke-linejoin:round;stroke-miterlimit:2;"><title>Finanzarel</title><desc>Finanzarel nace como una iniciativa pionera en la desintermediación bancaria que ofrece nuevas soluciones de financiación a corto plazo para las empresas. Situados dentro del sector FinTech, Finanzarel es una iniciativa encaminada a abrir nuevas vías de financiación a las empresas fuera del tradicional mercado bancario, poniendo en contacto empresas con inversores profesionales. Nuestra amplia experiencia en el sector financiero así como y la solidez financiera de los inversores que operan en nuestro marketplace nos permite ofrecer una nueva alternativa de financiación a las empresas.</desc>    <g transform="matrix(0.914173,0,0,0.914173,-138.364,63.6244)">        <g transform="matrix(4.16667,0,0,4.16667,232.867,267.167)">            <path d="M0,-35.815c0.554,-0.703 0.832,-1.465 0.832,-2.287c0,-0.821 -0.278,-1.582 -0.832,-2.286c-0.555,-0.703 -1.388,-1.055 -2.495,-1.055c-1.633,0 -3.137,0.308 -4.507,0.923c-1.372,0.615 -2.554,1.451 -3.546,2.506c-0.992,1.055 -1.78,2.287 -2.362,3.694c-0.585,1.407 -0.877,2.901 -0.877,4.484l0,7.035l-1.924,0c-1.109,0 -1.941,0.352 -2.495,1.055c-0.555,0.704 -0.832,1.467 -0.832,2.288c0,0.82 0.277,1.581 0.832,2.285c0.554,0.703 1.386,1.055 2.495,1.055l1.924,0l0,21.746l6.652,0l0,-21.746l13.305,0l0,21.746l6.652,0l0,-25.086c0,-0.881 -0.321,-1.657 -0.961,-2.332c-0.644,-0.673 -1.432,-1.011 -2.364,-1.011l-16.632,0l0,-7.035c0,-1.347 0.423,-2.506 1.271,-3.473c0.846,-0.968 1.968,-1.451 3.369,-1.451c1.107,0 1.94,-0.352 2.495,-1.055m11.861,2.154c0.699,-0.557 1.049,-1.391 1.049,-2.506l0,-1.935c0,-1.113 -0.35,-1.947 -1.049,-2.507c-0.702,-0.555 -1.461,-0.834 -2.276,-0.834c-0.819,0 -1.576,0.279 -2.278,0.834c-0.699,0.56 -1.049,1.394 -1.049,2.507l0,1.935c0,1.115 0.35,1.949 1.049,2.506c0.702,0.558 1.459,0.835 2.278,0.835c0.815,0 1.574,-0.277 2.276,-0.835m34.764,39.289l0,-14.534c0,-2.405 -0.381,-4.5 -1.138,-6.287c-0.759,-1.79 -1.782,-3.268 -3.064,-4.442c-1.284,-1.173 -2.773,-2.036 -4.465,-2.595c-1.693,-0.556 -3.471,-0.834 -5.339,-0.834l-0.788,0c-1.517,0 -2.947,0.234 -4.288,0.703c-1.344,0.469 -2.422,1.115 -3.239,1.934c-0.175,-0.879 -0.584,-1.538 -1.226,-1.978c-0.642,-0.44 -1.342,-0.659 -2.099,-0.659c-0.876,0 -1.665,0.294 -2.364,0.878c-0.7,0.588 -1.051,1.407 -1.051,2.462l0,25.352l6.652,0l0,-14.534c0,-2.111 0.74,-3.883 2.22,-5.321c1.479,-1.436 3.234,-2.154 5.266,-2.154l0.784,0c2.089,0 3.86,0.734 5.311,2.199c1.449,1.464 2.175,3.223 2.175,5.276l0,14.534l6.653,0Zm33.255,0l0,-15.15c0,-1.876 -0.35,-3.634 -1.051,-5.277c-0.7,-1.64 -1.663,-3.078 -2.888,-4.308c-1.226,-1.232 -2.684,-2.199 -4.376,-2.902c-1.693,-0.704 -3.502,-1.055 -5.428,-1.055l-0.613,0c-1.109,0 -2.289,0.13 -3.544,0.396c-1.255,0.263 -2.466,0.703 -3.633,1.318c-1.168,0.615 -2.262,1.451 -3.283,2.506c-1.02,1.056 -1.881,2.374 -2.581,3.958c-0.234,0.41 -0.35,0.938 -0.35,1.582c0,0.938 0.35,1.685 1.05,2.243c0.701,0.557 1.458,0.834 2.275,0.834c0.583,0 1.138,-0.131 1.665,-0.394c0.525,-0.265 0.963,-0.719 1.313,-1.365c0.814,-1.464 1.751,-2.564 2.8,-3.296c1.05,-0.732 2.48,-1.099 4.288,-1.099l0.613,0c1.926,0 3.589,0.526 4.99,1.582c1.401,1.054 2.101,2.902 2.101,5.541c0,0.234 -0.016,0.497 -0.044,0.791c-0.031,0.293 -0.102,0.527 -0.22,0.704c-0.349,0.469 -1.153,0.834 -2.406,1.097c-1.255,0.266 -2.7,0.544 -4.332,0.837c-1.636,0.294 -3.356,0.674 -5.165,1.143c-1.811,0.469 -3.473,1.157 -4.989,2.066c-1.519,0.91 -2.772,2.111 -3.764,3.606c-0.83,1.25 -1.23,2.841 -1.366,4.642l6.742,0c0.204,-0.964 0.581,-1.805 1.321,-2.401c1.02,-0.818 2.319,-1.464 3.894,-1.933c1.576,-0.469 3.282,-0.837 5.12,-1.1c1.84,-0.263 3.575,-0.599 5.209,-1.011l0,6.445l6.652,0Zm33.716,0l0,-14.534c0,-2.405 -0.38,-4.5 -1.138,-6.287c-0.759,-1.79 -1.779,-3.268 -3.063,-4.442c-1.284,-1.173 -2.772,-2.036 -4.463,-2.595c-1.694,-0.556 -3.474,-0.834 -5.34,-0.834l-0.788,0c-1.518,0 -2.946,0.234 -4.288,0.703c-1.343,0.469 -2.424,1.115 -3.239,1.934c-0.174,-0.879 -0.584,-1.538 -1.226,-1.978c-0.642,-0.44 -1.343,-0.659 -2.101,-0.659c-0.874,0 -1.662,0.294 -2.362,0.878c-0.701,0.588 -1.051,1.407 -1.051,2.462l0,25.352l6.652,0l0,-14.534c0,-2.111 0.74,-3.883 2.22,-5.321c1.48,-1.436 3.235,-2.154 5.266,-2.154l0.783,0c2.089,0 3.859,0.734 5.31,2.199c1.449,1.464 2.176,3.223 2.176,5.276l0,14.534l6.652,0Zm29.592,-21.394c0.525,-0.762 0.817,-1.54 0.875,-2.33c0.057,-0.792 -0.043,-1.524 -0.306,-2.199c-0.263,-0.672 -0.715,-1.216 -1.357,-1.626c-0.642,-0.411 -1.401,-0.617 -2.276,-0.617l-21.357,0c-1.11,0 -1.94,0.352 -2.494,1.056c-0.555,0.703 -0.832,1.466 -0.832,2.287c0,0.82 0.277,1.581 0.832,2.285c0.554,0.704 1.384,1.055 2.494,1.055l16.456,0l-14.562,21.483l8.093,0l14.434,-21.394Zm30.725,21.394l0,-15.15c0,-1.876 -0.351,-3.634 -1.051,-5.277c-0.699,-1.64 -1.663,-3.078 -2.888,-4.308c-1.225,-1.232 -2.684,-2.199 -4.377,-2.902c-1.694,-0.704 -3.5,-1.055 -5.426,-1.055l-0.613,0c-1.109,0 -2.291,0.13 -3.545,0.396c-1.255,0.263 -2.466,0.703 -3.632,1.318c-1.169,0.615 -2.262,1.451 -3.283,2.506c-1.02,1.056 -1.881,2.374 -2.581,3.958c-0.235,0.41 -0.35,0.938 -0.35,1.582c0,0.938 0.35,1.685 1.05,2.243c0.699,0.557 1.458,0.834 2.276,0.834c0.582,0 1.137,-0.131 1.662,-0.394c0.526,-0.265 0.962,-0.719 1.312,-1.365c0.818,-1.464 1.752,-2.564 2.803,-3.296c1.049,-0.732 2.479,-1.099 4.288,-1.099l0.613,0c1.926,0 3.589,0.526 4.99,1.582c1.399,1.054 2.1,2.902 2.1,5.541c0,0.234 -0.015,0.497 -0.044,0.791c-0.03,0.293 -0.102,0.527 -0.219,0.704c-0.35,0.469 -1.153,0.834 -2.406,1.097c-1.258,0.266 -2.701,0.544 -4.332,0.837c-1.636,0.294 -3.359,0.674 -5.165,1.143c-1.81,0.469 -3.473,1.157 -4.99,2.066c-1.518,0.91 -2.771,2.111 -3.763,3.606c-0.831,1.25 -1.231,2.841 -1.367,4.642l6.743,0c0.203,-0.964 0.58,-1.805 1.318,-2.401c1.021,-0.818 2.32,-1.464 3.896,-1.933c1.576,-0.469 3.283,-0.837 5.121,-1.1c1.837,-0.263 3.573,-0.599 5.208,-1.011l0,6.445l6.652,0Zm26.448,-19.81c0.642,-0.587 0.963,-1.35 0.963,-2.288c0,-0.761 -0.262,-1.524 -0.788,-2.285c-1.05,-1.524 -2.407,-2.624 -4.069,-3.298c-1.665,-0.673 -3.343,-1.011 -5.034,-1.011c-1.169,0 -2.13,0.088 -2.889,0.263c-0.757,0.177 -1.399,0.382 -1.923,0.615c-0.645,0.236 -1.138,0.529 -1.491,0.88c-0.292,-0.644 -0.699,-1.099 -1.224,-1.362c-0.525,-0.266 -1.08,-0.396 -1.663,-0.396c-0.818,0 -1.59,0.294 -2.319,0.878c-0.731,0.588 -1.094,1.407 -1.094,2.462l0,25.352l6.653,0l0,-16.118c0,-0.704 0.055,-1.407 0.174,-2.111c0.115,-0.703 0.378,-1.332 0.786,-1.889c0.407,-0.557 1.007,-1.013 1.795,-1.365c0.788,-0.351 1.825,-0.526 3.109,-0.526c1.106,0 1.967,0.219 2.581,0.659c0.613,0.44 1.093,0.836 1.443,1.188c0.817,0.821 1.722,1.23 2.714,1.23c0.877,0 1.634,-0.292 2.276,-0.878m24.854,9.76l-15.755,0l0,-4.431c0,-2.125 0.743,-3.911 2.231,-5.358c1.488,-1.446 3.252,-2.17 5.295,-2.17l0.875,0c1.926,0 3.632,0.724 5.12,2.17c1.49,1.447 2.234,3.263 2.234,5.449l0,4.34Zm5.689,5.145c0.64,-0.675 0.963,-1.451 0.963,-2.332l0,-7.209c0,-2.053 -0.365,-3.942 -1.096,-5.672c-0.73,-1.73 -1.736,-3.239 -3.02,-4.53c-1.283,-1.288 -2.786,-2.286 -4.507,-2.989c-1.721,-0.704 -3.544,-1.055 -5.47,-1.055l-0.876,0c-1.924,0 -3.75,0.367 -5.47,1.099c-1.722,0.732 -3.225,1.744 -4.507,3.033c-1.284,1.29 -2.291,2.8 -3.02,4.529c-0.731,1.729 -1.093,3.561 -1.093,5.497l0,14.534l6.652,0l0,-3.894l19.079,0c0.933,0 1.721,-0.336 2.365,-1.011m12.606,4.905l0,-43.736c0,-1.111 -0.349,-1.945 -1.049,-2.501c-0.702,-0.555 -1.461,-0.834 -2.275,-0.834c-0.819,0 -1.577,0.279 -2.278,0.834c-0.7,0.56 -1.049,1.394 -1.049,2.507l0,43.73l6.651,0Z" style="fill:rgb(88,89,91);fill-rule:nonzero;"/>        </g>        <g transform="matrix(4.16667,0,0,4.16667,163.325,305.244)">            <path d="M0,5.074l263.025,0c0.803,0 1.405,-0.267 1.808,-0.801c0.402,-0.534 0.602,-1.113 0.602,-1.735c0,-0.626 -0.2,-1.202 -0.602,-1.737c-0.403,-0.534 -1.005,-0.801 -1.808,-0.801l-263.025,0c-0.803,0 -1.396,0.267 -1.776,0.801c-0.381,0.535 -0.571,1.111 -0.571,1.737c0,0.622 0.19,1.201 0.571,1.735c0.38,0.534 0.973,0.801 1.776,0.801" style="fill:rgb(88,89,91);fill-rule:nonzero;"/>        </g>    </g></svg>