<?xml version="1.0" encoding="UTF-8" standalone="no"?><!DOCTYPE svg PUBLIC "-//W3C//DTD SVG 1.1//EN" "http://www.w3.org/Graphics/SVG/1.1/DTD/svg11.dtd"><svg width="100%" height="100%" viewBox="0 0 1024 512" version="1.1" xmlns="http://www.w3.org/2000/svg" xmlns:xlink="http://www.w3.org/1999/xlink" xml:space="preserve" style="fill-rule:evenodd;clip-rule:evenodd;stroke-linejoin:round;stroke-miterlimit:2;"><title>Iban Wallet</title><desc>With Iban, you get a completely different experience - Iban aims to provide users with a daily paid fixed interest and immediate access to liquidity - a hassle-free, a simple experience that doesn’t need active management on the user’s end. When you invest with Iban, we take the role of expert and manage your investments for you, selecting the best market opportunities, which often adds far greater protection than when the investor chooses individually the loans to invest in.</desc>    <g transform="matrix(2.90925,0,0,2.90925,-447.98,-8707.25)">        <path d="M176.18,3018.34l-0.739,0.016c-11.538,0.392 -20.769,9.982 -20.769,21.756l0,81.678l0.008,0.743c0.392,11.679 9.871,21.025 21.5,21.025l72.592,0l0.739,-0.008c11.534,-0.4 20.769,-9.99 20.769,-21.764l0,-7.101l0.021,-0.251c0.07,-0.413 0.314,-0.768 0.677,-0.983c7.2,-4.24 12.038,-12.137 12.038,-21.186c0,-9.037 -4.839,-16.939 -12.038,-21.178c-0.434,-0.256 -0.698,-0.731 -0.698,-1.235l0,-29.74l-0.012,-0.747c-0.392,-11.679 -9.867,-21.025 -21.496,-21.025l-72.592,0Zm-0.421,35.367c-6.894,-0.331 -12.628,-5.817 -13.004,-12.847c-0.417,-7.84 5.767,-14.354 13.425,-14.354l72.592,0c7.422,0 13.437,6.089 13.437,13.606l0,10.738l-0.012,0.338c-0.165,1.421 -1.362,2.531 -2.816,2.531l-82.974,0l-0.648,-0.012Zm-0.227,81.669c-7.121,-0.338 -12.793,-6.299 -12.793,-13.586l0,-61.928l0.016,-0.252c0.169,-0.97 1.272,-1.507 2.143,-0.962c3.282,2.048 7.146,3.233 11.282,3.233l83.201,0l0.331,0.016c1.407,0.169 2.497,1.383 2.497,2.853l0,11.043l-0.012,0.334c-0.165,1.425 -1.362,2.535 -2.816,2.535l-33.372,0l-0.698,0.017c-9.801,0.355 -17.942,8.182 -18.375,18.168c-0.479,10.911 8.12,19.911 18.8,19.911l33.348,0l0.256,-0.004c1.577,-0.033 2.869,1.267 2.869,2.865l0,2.167l-0.012,0.661c-0.339,7.212 -6.221,12.946 -13.425,12.946l-72.592,0l-0.648,-0.017Zm49.791,-26.796c-5.276,-0.285 -9.734,-4.343 -10.287,-9.718c-0.665,-6.515 4.392,-12.034 10.7,-12.034l36.564,0l0.859,-0.025c2.852,-0.149 5.569,-1.057 7.922,-2.617c0.714,-0.475 1.66,-0.227 2.052,0.54c1.449,2.812 2.084,6.057 1.721,9.392c-0.92,8.294 -8.025,14.474 -16.273,14.474l-32.667,0l-0.591,-0.012Zm131.25,-65.19l0,67.559l13.603,0l0,-5.226c2.126,3.546 6.845,6.25 12.946,6.25c12.856,0 21.925,-10.172 21.925,-24.357c0,-13.904 -8.05,-24.167 -21.367,-24.167c-6.292,0 -11.378,2.614 -13.318,5.503l0,-25.562l-13.789,0Zm13.603,44.321c0,-7.839 4.991,-11.476 10.449,-11.476c5.457,0 10.357,3.637 10.357,11.476c0,7.749 -4.9,11.572 -10.357,11.572c-5.458,0 -10.449,-3.914 -10.449,-11.572Zm-33.939,-36.312c0,4.425 3.555,8.013 7.947,8.013c4.385,0 7.943,-3.588 7.943,-8.013c0,-4.426 -3.558,-8.009 -7.943,-8.009c-4.392,0 -7.947,3.583 -7.947,8.009Zm72.154,36.217c0,14.28 9.339,24.642 22.842,24.642c5.734,0 10.358,-2.803 12.397,-7.278l0,0.462c0,1.961 0.186,4.479 0.368,5.507l13.503,0c-0.091,-1.028 -0.371,-4.017 -0.371,-8.306l0,-38.075l-13.591,0l0,5.321c-0.928,-2.146 -4.537,-6.72 -12.764,-6.72c-13.599,0 -22.384,10.638 -22.384,24.447Zm14.152,0.095c0,-8.025 4.529,-12.224 10.544,-12.224c5.73,0 10.452,4.199 10.452,12.224c0,7.84 -4.813,12.319 -10.452,12.319c-5.825,0 -10.544,-4.661 -10.544,-12.319Zm53.139,-17.822l0,-5.321l-13.594,0l0,46.381l14.061,0l0,-26.598c0,-4.665 2.955,-8.116 7.579,-8.116c5.09,0 7.493,3.451 7.493,8.025l0,26.689l14.057,0l0,-29.116c0,-10.172 -5.177,-18.483 -16.74,-18.483c-4.715,0 -10.358,2.147 -12.856,6.539Zm-138.528,41.06l14.061,0l0,-46.381l-14.061,0l0,46.381Zm-116.814,-13.227c0,3.006 2.407,5.45 5.38,5.45c2.968,0 5.375,-2.444 5.375,-5.45c0,-3.001 -2.407,-5.441 -5.375,-5.441c-2.973,0 -5.38,2.44 -5.38,5.441Z" style="fill-rule:nonzero;"/>    </g></svg>