<?xml version="1.0" encoding="UTF-8" standalone="no"?><!DOCTYPE svg PUBLIC "-//W3C//DTD SVG 1.1//EN" "http://www.w3.org/Graphics/SVG/1.1/DTD/svg11.dtd"><svg width="100%" height="100%" viewBox="0 0 1024 512" version="1.1" xmlns="http://www.w3.org/2000/svg" xmlns:xlink="http://www.w3.org/1999/xlink" xml:space="preserve" style="fill-rule:evenodd;clip-rule:evenodd;stroke-linejoin:round;stroke-miterlimit:2;"><title>AMF</title><desc>The Financial Markets Authority (AMF) is the independent public authority responsible for protecting savings, informing investors and ensuring the proper functioning of the financial markets. To carry out our missions, we rely on the skills and experience of nearly 470 employees.</desc>    <g transform="matrix(2.8787,0,0,2.8787,-3568.05,-5470.24)">        <g transform="matrix(4.16667,0,0,4.16667,1276.29,2002.56)">            <path d="M0,8.953l4.245,-7.652l4.245,7.652l-8.49,0Zm12.095,6.497l5.441,0l-12.996,-21.947l-0.216,0l-12.995,21.947l5.066,0l1.802,-3.248l12.096,0l1.802,3.248Z" style="fill:rgb(0,56,108);fill-rule:nonzero;"/>        </g>        <g transform="matrix(4.16667,0,0,4.16667,1594.16,2066.93)">            <path d="M0,-21.014l0,3.839l-13.957,0l0,5.153l13.175,0l0,3.436l-13.175,0l0,8.586l-4.715,0l0,-21.014l18.672,0Z" style="fill:rgb(227,27,71);fill-rule:nonzero;"/>        </g>        <g transform="matrix(4.16667,0,0,4.16667,1370.15,2065.09)">            <path d="M0,-20.129c-0.934,-0.201 -1.818,-0.344 -2.657,-0.443l0,21.015l4.39,0l0,-15.504c6.505,2.326 12.212,7.855 16.023,15.504l4.846,0c-4.829,-10.926 -13.114,-18.527 -22.602,-20.572" style="fill:rgb(0,56,108);fill-rule:nonzero;"/>        </g>        <g transform="matrix(4.16667,0,0,4.16667,1478.06,2065.09)">            <path d="M0,-20.129c0.934,-0.201 1.817,-0.344 2.657,-0.443l0,21.015l-4.39,0l0,-15.504c-6.506,2.326 -12.213,7.855 -16.023,15.504l-4.846,0c4.829,-10.926 13.112,-18.527 22.602,-20.572" style="fill:rgb(227,27,71);fill-rule:nonzero;"/>        </g>        <g transform="matrix(4.16667,0,0,4.16667,1308.54,1921.02)">            <path d="M0,2.49l0.517,0l0.263,-0.572l1.436,0l0.26,0.572l0.513,0l-1.208,-2.49l-0.556,0l-1.225,2.49Zm0.983,-0.99l0.52,-1.109l0.521,1.109l-1.041,0Z" style="fill:rgb(0,56,108);fill-rule:nonzero;"/>        </g>        <g transform="matrix(4.16667,0,0,4.16667,1335.2,1925.74)">            <path d="M0,0.29c0,0.801 -0.511,1.131 -1.323,1.131c-0.811,0 -1.321,-0.33 -1.321,-1.131l0,-1.421l0.486,0l0,1.387c0,0.411 0.147,0.746 0.835,0.746c0.689,0 0.837,-0.335 0.837,-0.746l0,-1.387l0.486,0l0,1.421Z" style="fill:rgb(0,56,108);fill-rule:nonzero;"/>        </g>        <g transform="matrix(4.16667,0,0,4.16667,1343.57,1929.65)">            <path d="M0,-1.653l-1.113,0l0,-0.419l2.713,0l0,0.419l-1.114,0l0,2.072l-0.486,0l0,-2.072Z" style="fill:rgb(0,56,108);fill-rule:nonzero;"/>        </g>        <g transform="matrix(4.16667,0,0,4.16667,1352.9,1926.14)">            <path d="M0,0.037c0,0.517 0.305,1.288 1.484,1.288c1.177,0 1.482,-0.771 1.482,-1.288c0,-0.681 -0.387,-1.325 -1.482,-1.325c-1.097,0 -1.484,0.644 -1.484,1.325m1.484,0.87c-0.467,0 -0.997,-0.192 -0.997,-0.897c0,-0.6 0.426,-0.881 0.997,-0.881c0.568,0 0.995,0.281 0.995,0.881c0,0.705 -0.53,0.897 -0.995,0.897" style="fill:rgb(0,56,108);fill-rule:nonzero;"/>        </g>        <g transform="matrix(4.16667,0,0,4.16667,1369.42,1921.02)">            <path d="M0,2.49l0.486,0l0,-0.98l0.771,0l0.723,0.98l0.599,0l-0.764,-1.014c0.367,-0.021 0.695,-0.274 0.695,-0.732c0,-0.611 -0.424,-0.744 -1.013,-0.744l-1.497,0l0,2.49Zm0.486,-1.384l0,-0.701l0.939,0c0.397,0 0.599,0.057 0.599,0.349c0,0.294 -0.202,0.352 -0.599,0.352l-0.939,0Z" style="fill:rgb(0,56,108);fill-rule:nonzero;"/>        </g>        <g transform="matrix(4.16667,0,0,4.16667,0,1608.33)">            <rect x="332.31" y="75.047" width="0.487" height="2.49" style="fill:rgb(0,56,108);"/>        </g>        <g transform="matrix(4.16667,0,0,4.16667,1395.22,1929.65)">            <path d="M0,-1.653l-1.113,0l0,-0.419l2.712,0l0,0.419l-1.113,0l0,2.072l-0.486,0l0,-2.072Z" style="fill:rgb(0,56,108);fill-rule:nonzero;"/>        </g>        <g transform="matrix(4.16667,0,0,4.16667,1405.82,1928.6)">            <path d="M0,-1.819l2.233,0l0,0.419l-1.747,0l0,0.578l1.504,0l0,0.418l-1.504,0l0,0.657l1.788,0l0,0.418l-2.274,0l0,-2.49Zm1.109,-0.671l0.48,0l-0.547,0.49l-0.303,0l0.37,-0.49Z" style="fill:rgb(0,56,108);fill-rule:nonzero;"/>        </g>        <g transform="matrix(4.16667,0,0,4.16667,1309.62,1941.77)">            <path d="M0,2.489l1.133,0c0.658,0 1.429,-0.254 1.429,-1.266c0,-0.817 -0.559,-1.223 -1.332,-1.223l-1.23,0l0,2.489Zm0.302,-2.222l0.928,0c0.506,0 1.023,0.215 1.023,0.946c0,0.978 -0.825,1.008 -1.071,1.008l-0.88,0l0,-1.954Z" style="fill:rgb(0,56,108);fill-rule:nonzero;"/>        </g>        <g transform="matrix(4.16667,0,0,4.16667,1324.44,1952.14)">            <path d="M0,-2.489l2.219,0l0,0.267l-1.917,0l0,0.794l1.602,0l0,0.267l-1.602,0l0,0.893l1.958,0l0,0.268l-2.26,0l0,-2.489Z" style="fill:rgb(0,56,108);fill-rule:nonzero;"/>        </g>        <g transform="matrix(4.16667,0,0,4.16667,1337.78,1944.74)">            <path d="M0,1.065c0.144,0.192 0.384,0.507 1.13,0.507c0.383,0 0.907,-0.11 0.907,-0.497c0,-0.756 -2.17,-0.092 -2.17,-1.102c0,-0.532 0.489,-0.747 1.167,-0.747c0.659,0 1.063,0.27 1.232,0.511l-0.218,0.177c-0.102,-0.117 -0.342,-0.434 -1.021,-0.434c-0.5,0 -0.852,0.13 -0.852,0.444c0,0.754 2.171,0.035 2.171,1.151c0,0.418 -0.404,0.764 -1.25,0.764c-0.815,0 -1.116,-0.339 -1.329,-0.575l0.233,-0.199Z" style="fill:rgb(0,56,108);fill-rule:nonzero;"/>        </g>        <g transform="matrix(4.16667,0,0,4.16667,1359.08,1952.14)">            <path d="M0,-2.489l0.465,0l0.921,2.095l0.922,-2.095l0.465,0l0,2.489l-0.277,0l0,-2.222l-0.007,0l-0.972,2.222l-0.254,0l-0.979,-2.222l-0.007,0l0,2.222l-0.277,0l0,-2.489Z" style="fill:rgb(0,56,108);fill-rule:nonzero;"/>        </g>        <g transform="matrix(4.16667,0,0,4.16667,1374.38,1941.77)">            <path d="M0,2.489l0.336,0l0.325,-0.647l1.605,0l0.323,0.647l0.339,0l-1.277,-2.489l-0.37,0l-1.281,2.489Zm0.798,-0.914l0.668,-1.339l0.668,1.339l-1.336,0Z" style="fill:rgb(0,56,108);fill-rule:nonzero;"/>        </g>        <g transform="matrix(4.16667,0,0,4.16667,1390.32,1941.77)">            <path d="M0,2.489l0.301,0l0,-1.103l0.98,0l0.801,1.103l0.373,0l-0.821,-1.11c0.3,-0.013 0.784,-0.164 0.784,-0.685c0,-0.61 -0.583,-0.694 -0.979,-0.694l-1.439,0l0,2.489Zm0.301,-2.222l1.069,0c0.435,0 0.76,0.061 0.76,0.424c0,0.367 -0.325,0.428 -0.76,0.428l-1.069,0l0,-0.852Z" style="fill:rgb(0,56,108);fill-rule:nonzero;"/>        </g>        <g transform="matrix(4.16667,0,0,4.16667,1415.93,1944.52)">            <path d="M0,1.168c-0.267,0.518 -0.73,0.722 -1.335,0.722c-0.966,0 -1.422,-0.578 -1.422,-1.301c0,-0.856 0.579,-1.311 1.418,-1.311c0.534,0 1.079,0.205 1.302,0.712l-0.261,0.119c-0.175,-0.407 -0.561,-0.578 -1.037,-0.578c-0.713,0 -1.114,0.387 -1.114,1.096c0,0.572 0.387,0.996 1.141,0.996c0.493,0 0.835,-0.206 1.041,-0.585l0.267,0.13Z" style="fill:rgb(0,56,108);fill-rule:nonzero;"/>        </g>        <g transform="matrix(4.16667,0,0,4.16667,1420.01,1952.14)">            <path d="M0,-2.489l0.301,0l0,1.055l1.959,0l0,-1.055l0.301,0l0,2.489l-0.301,0l0,-1.167l-1.959,0l0,1.167l-0.301,0l0,-2.489Z" style="fill:rgb(0,56,108);fill-rule:nonzero;"/>        </g>        <g transform="matrix(4.16667,0,0,4.16667,1435.58,1949.43)">            <path d="M0,-1.838l2.219,0l0,0.266l-1.918,0l0,0.795l1.603,0l0,0.267l-1.603,0l0,0.893l1.96,0l0,0.268l-2.261,0l0,-2.489Zm1.127,-0.651l0.39,0l-0.507,0.486l-0.249,0l0.366,-0.486Z" style="fill:rgb(0,56,108);fill-rule:nonzero;"/>        </g>        <g transform="matrix(4.16667,0,0,4.16667,1448.92,1944.74)">            <path d="M0,1.065c0.144,0.192 0.384,0.507 1.13,0.507c0.383,0 0.908,-0.11 0.908,-0.497c0,-0.756 -2.171,-0.092 -2.171,-1.102c0,-0.532 0.489,-0.747 1.167,-0.747c0.658,0 1.062,0.27 1.233,0.511l-0.219,0.177c-0.103,-0.117 -0.343,-0.434 -1.021,-0.434c-0.5,0 -0.852,0.13 -0.852,0.444c0,0.754 2.17,0.035 2.17,1.151c0,0.418 -0.403,0.764 -1.25,0.764c-0.815,0 -1.115,-0.339 -1.328,-0.575l0.233,-0.199Z" style="fill:rgb(0,56,108);fill-rule:nonzero;"/>        </g>        <g transform="matrix(4.16667,0,0,4.16667,1470.22,1952.14)">            <path d="M0,-2.489l2.274,0l0,0.267l-1.972,0l0,0.788l1.664,0l0,0.267l-1.664,0l0,1.167l-0.302,0l0,-2.489Z" style="fill:rgb(0,56,108);fill-rule:nonzero;"/>        </g>        <g transform="matrix(4.16667,0,0,4.16667,0,1649.83)">            <rect x="356.029" y="70.068" width="0.302" height="2.489" style="fill:rgb(0,56,108);"/>        </g>        <g transform="matrix(4.16667,0,0,4.16667,1489.57,1952.14)">            <path d="M0,-2.489l0.428,0l1.853,2.048l0,-2.048l0.301,0l0,2.489l-0.301,0l-1.993,-2.222l0,2.222l-0.288,0l0,-2.489Z" style="fill:rgb(0,56,108);fill-rule:nonzero;"/>        </g>        <g transform="matrix(4.16667,0,0,4.16667,1504.06,1941.77)">            <path d="M0,2.489l0.336,0l0.325,-0.647l1.606,0l0.322,0.647l0.34,0l-1.278,-2.489l-0.37,0l-1.281,2.489Zm0.798,-0.914l0.668,-1.339l0.668,1.339l-1.336,0Z" style="fill:rgb(0,56,108);fill-rule:nonzero;"/>        </g>        <g transform="matrix(4.16667,0,0,4.16667,1520,1952.14)">            <path d="M0,-2.489l0.428,0l1.852,2.048l0,-2.048l0.302,0l0,2.489l-0.302,0l-1.993,-2.222l0,2.222l-0.287,0l0,-2.489Z" style="fill:rgb(0,56,108);fill-rule:nonzero;"/>        </g>        <g transform="matrix(4.16667,0,0,4.16667,1546.4,1944.52)">            <path d="M0,1.168c-0.267,0.518 -0.73,0.722 -1.335,0.722c-0.966,0 -1.422,-0.578 -1.422,-1.301c0,-0.856 0.579,-1.311 1.418,-1.311c0.534,0 1.079,0.205 1.302,0.712l-0.261,0.119c-0.174,-0.407 -0.562,-0.578 -1.037,-0.578c-0.713,0 -1.114,0.387 -1.114,1.096c0,0.572 0.387,0.996 1.141,0.996c0.493,0 0.836,-0.206 1.041,-0.585l0.267,0.13Z" style="fill:rgb(0,56,108);fill-rule:nonzero;"/>        </g>        <g transform="matrix(4.16667,0,0,4.16667,0,1649.83)">            <rect x="372.105" y="70.068" width="0.302" height="2.489" style="fill:rgb(0,56,108);"/>        </g>        <g transform="matrix(4.16667,0,0,4.16667,1556.55,1952.14)">            <path d="M0,-2.489l2.219,0l0,0.267l-1.917,0l0,0.794l1.602,0l0,0.267l-1.602,0l0,0.893l1.959,0l0,0.268l-2.261,0l0,-2.489Z" style="fill:rgb(0,56,108);fill-rule:nonzero;"/>        </g>        <g transform="matrix(4.16667,0,0,4.16667,1569.79,1941.77)">            <path d="M0,2.489l0.301,0l0,-1.103l0.98,0l0.801,1.103l0.373,0l-0.821,-1.11c0.301,-0.013 0.783,-0.164 0.783,-0.685c0,-0.61 -0.582,-0.694 -0.979,-0.694l-1.438,0l0,2.489Zm0.301,-2.222l1.069,0c0.434,0 0.76,0.061 0.76,0.424c0,0.367 -0.326,0.428 -0.76,0.428l-1.069,0l0,-0.852Z" style="fill:rgb(0,56,108);fill-rule:nonzero;"/>        </g>        <g transform="matrix(4.16667,0,0,4.16667,1584.71,1944.74)">            <path d="M0,1.065c0.145,0.192 0.384,0.507 1.131,0.507c0.383,0 0.907,-0.11 0.907,-0.497c0,-0.756 -2.171,-0.092 -2.171,-1.102c0,-0.532 0.49,-0.747 1.168,-0.747c0.658,0 1.062,0.27 1.232,0.511l-0.218,0.177c-0.103,-0.117 -0.342,-0.434 -1.022,-0.434c-0.5,0 -0.851,0.13 -0.851,0.444c0,0.754 2.17,0.035 2.17,1.151c0,0.418 -0.404,0.764 -1.25,0.764c-0.815,0 -1.116,-0.339 -1.328,-0.575l0.232,-0.199Z" style="fill:rgb(0,56,108);fill-rule:nonzero;"/>        </g>        <g transform="matrix(4.16667,0,0,4.16667,0,1629.07)">            <rect x="310.634" y="67.763" width="0.216" height="12.08" style="fill:rgb(0,56,108);"/>        </g>    </g></svg>