<?xml version="1.0" encoding="UTF-8" standalone="no"?><!DOCTYPE svg PUBLIC "-//W3C//DTD SVG 1.1//EN" "http://www.w3.org/Graphics/SVG/1.1/DTD/svg11.dtd"><svg width="100%" height="100%" viewBox="0 0 1024 512" version="1.1" xmlns="http://www.w3.org/2000/svg" xmlns:xlink="http://www.w3.org/1999/xlink" xml:space="preserve" style="fill-rule:evenodd;clip-rule:evenodd;stroke-linejoin:round;stroke-miterlimit:2;"><title>Funders</title><desc>Funders brings together borrowers such as Start-ups, SMEs or self-employed entrepreneurs and private &amp; institutional investors. Funders is the crowdfunding platform for crowdsupporting and crowdlending projects. Starters - inventors, creatives, start-ups, SMEs, associations, organizers and non-profit organizations - can realize projects with the help of numerous funders (supporters).</desc>    <g transform="matrix(3.54171,0,0,3.5408,2,139.154)">        <path d="M25.9,22l-22,0c-1,0 -2,0.3 -2.7,1c-0.7,0.7 -1.2,1.4 -1.2,2.4l0,36.4c0,1 0.5,1.8 1.2,2.5c0.7,0.7 1.6,1.1 2.6,1.1c1,0 1.6,-0.4 2.3,-1.1c0.8,-0.6 0.9,-1.5 0.9,-2.5l0,-14.8l13.7,0c1,0 1.8,-0.2 2.6,-0.9c0.7,-0.7 1.1,-1.5 1.1,-2.5c0,-1 -0.4,-1.8 -1.1,-2.5c-0.7,-0.7 -1.6,-1 -2.6,-1l-13.7,0l0,-11.1l18.8,0c1,0 1.8,-0.3 2.5,-1c0.7,-0.7 1.1,-1.5 1.1,-2.5c0,-1 -0.3,-1.8 -1,-2.5c-0.7,-0.7 -1.6,-1 -2.5,-1Zm96.7,-0.1c-1,0 -1.8,0.4 -2.6,1.1c-0.7,0.7 -1,1.5 -1,2.5l0,25.9l-21.8,-28.1c-0.5,-0.6 -1.1,-1 -1.8,-1.2c-0.7,-0.2 -1.5,-0.2 -2.2,0.1c-0.7,0.2 -1.2,0.7 -1.6,1.3c-0.5,0.5 -0.6,1.2 -0.6,2l0,36.4c0,1 0.2,1.8 0.9,2.5c0.7,0.7 1.5,1.1 2.5,1.1c1,0 1.8,-0.4 2.5,-1.1c0.7,-0.7 1.1,-1.5 1.1,-2.5l0,-26l22,28.1l-0.2,0c0.1,0 0.1,0.2 0.1,0.2c0,0 0.1,0.1 0.1,0.2c0.1,0.1 0.2,0.2 0.3,0.2l0.1,0.1c0.1,0.1 0.2,0.1 0.2,0.2l0.1,0.1l0.2,0.1l0.1,0.1l0.2,0.1l0.1,0.1c0.1,0 0.1,0 0.2,0.1l0.1,0c0.1,0 0.2,0 0.3,0.1l1.1,0c0.2,0 0.4,-0.1 0.5,-0.1l0.1,0c0.2,-0.1 0.3,-0.2 0.5,-0.2c0.1,0 0.3,-0.2 0.5,-0.3c0,0 0.1,-0.1 0.2,-0.1l0.1,-0.1c0,0 0.1,0 0.1,-0.1l0.1,-0.1l0.1,-0.1c0.1,-0.1 0.1,-0.1 0.1,-0.2l0.1,-0.1l0.1,-0.2l0.1,-0.2l0.1,-0.2c0,0 0,-0.1 0.1,-0.2l0.1,-0.2c0,0 0,-0.1 0.1,-0.2l0,-37.5c0,-1 -0.3,-1.8 -1,-2.5c-0.7,-0.8 -1.4,-1.1 -2.4,-1.1Zm28.9,0.1l-9.2,0c-1,0 -1.7,0.3 -2.4,1c-0.7,0.7 -0.9,1.5 -0.9,2.5l0,36.4c0,1 0.2,1.6 0.9,2.3c0.7,0.7 1.4,0.8 2.4,0.8l0.1,0l9.1,0.1c6,0 11.1,-2 15.4,-6.3c4.2,-4.2 6.3,-9.3 6.3,-15.3c0,-6 -2.1,-11 -6.3,-15.3c-4.3,-4.2 -9.4,-6.2 -15.4,-6.2Zm10.3,31.9c-2.8,2.8 -6.2,4.3 -10.2,4.3l-5.5,0.1l0,-29.3l5.5,0c4,0 7.4,1.5 10.3,4.3c2.8,2.8 4.3,6.3 4.3,10.3c-0.2,4 -1.6,7.4 -4.4,10.3Zm47,-24.9c1,0 1.9,-0.3 2.6,-1c0.7,-0.7 1.1,-1.5 1.1,-2.5c0,-1 -0.3,-1.8 -1,-2.5c-0.7,-0.7 -1.6,-1 -2.6,-1l-22,0c-1,0 -2,0.3 -2.7,1c-0.7,0.7 -1.2,1.4 -1.2,2.5l0,36.4c0,1 0.5,1.6 1.2,2.3c0.7,0.7 1.7,0.8 2.7,0.8l22,0c1,0 1.8,-0.1 2.5,-0.8c0.7,-0.7 1.1,-1.4 1.1,-2.4c0,-1 -0.4,-1.9 -1.1,-2.6c-0.7,-0.7 -1.5,-1.1 -2.5,-1.1l-18.9,0l0,-11.1l13.7,0c1,0 1.8,-0.2 2.6,-0.9c0.7,-0.7 1.1,-1.5 1.1,-2.5c0,-1 -0.4,-1.8 -1.1,-2.5c-0.7,-0.7 -1.6,-1 -2.6,-1l-13.7,0l0,-11.1l18.8,0Zm39.7,12.7c1.7,-2.2 2.5,-4.6 2.5,-7.3c0,-3.5 -1.3,-6.4 -4,-8.9c-2.6,-2.5 -5.8,-3.6 -9.6,-3.6l-12.6,0c-1,0 -1.9,0.3 -2.7,1c-0.7,0.7 -1.2,1.4 -1.2,2.4l0,36.2c0,1 0.5,1.8 1.2,2.5c0.7,0.7 1.6,1 2.6,1c1,0 1.7,-0.3 2.4,-1c0.7,-0.7 0.9,-1.5 0.9,-2.5l0,-14.5l6.6,0l8,16.4c0.6,1.3 1.7,2 3.2,2c0.5,0 1.1,-0.1 1.6,-0.4c0.9,-0.4 1.5,-1.1 1.8,-2.1c0.3,-0.9 0.3,-1.8 -0.2,-2.7l-6.9,-14c2.7,-0.8 4.8,-2.3 6.4,-4.5Zm-6.5,-3.4c-1.2,1.1 -2.7,1.7 -4.4,1.7l-9.6,0l0,-11l9.4,0c1.8,0 3.3,0.5 4.5,1.6c1.3,1.1 1.9,2.4 1.9,3.9c0,1.5 -0.6,2.7 -1.8,3.8Zm31.5,1.7l-0.2,0c-3,0 -5.1,-0.7 -6.3,-2c-0.8,-0.9 -1.2,-1.8 -1.1,-2.8c0.1,-1.7 0.8,-3.2 2.2,-4.4c1.4,-1.2 3,-1.8 4.9,-1.8c1.9,0 3.5,0.3 5,1c1.6,0.8 2.6,1.8 3,3.2c0.2,1 0.8,1.7 1.6,2.2c0.9,0.5 1.8,0.6 2.7,0.4c1,-0.2 1.7,-0.8 2.2,-1.6c0.5,-0.9 0.6,-1.8 0.4,-2.7c-0.9,-3.2 -2.8,-5.7 -6,-7.4c-2.6,-1.4 -5.6,-2.1 -8.9,-2.1c-3.8,0 -7.1,1.3 -9.8,3.8c-2.7,2.5 -4.2,5.6 -4.3,9.2c-0.1,3.1 0.9,5.6 3,7.9c2.6,2.8 6.4,4.2 11.4,4.2l0.2,0c3,0 5.1,0.8 6.3,2.2c0.8,0.8 1.2,1.8 1.1,2.9c-0.1,1.7 -0.8,3.2 -2.2,4.4c-1.4,1.2 -3,1.8 -4.9,1.8c-1.9,0 -3.5,-0.3 -5,-1c-1.6,-0.8 -2.6,-1.8 -3,-3.2c-0.2,-1 -0.8,-1.7 -1.6,-2.2c-0.9,-0.5 -1.8,-0.6 -2.7,-0.4c-1,0.2 -1.7,0.8 -2.2,1.6c-0.5,0.9 -0.6,1.8 -0.4,2.7c0.9,3.2 2.8,5.7 6,7.4c2.6,1.4 5.6,2.1 8.9,2.1c3.8,0 7.1,-1.3 9.8,-3.8c2.7,-2.5 4.2,-5.6 4.3,-9.2c0.1,-3.1 -0.9,-5.8 -3,-8.1c-2.6,-2.7 -6.4,-4.3 -11.4,-4.3Z" style="fill-rule:nonzero;"/>        <path d="M74.5,0c-1.9,0 -3.5,1.6 -3.5,3.5l0,41.5c0,7.7 -6.3,14 -14,14c-7.7,0 -14,-6.3 -14,-14l0,-19.6c0,-1.9 -1.6,-3.5 -3.5,-3.5c-1.9,0 -3.5,1.6 -3.5,3.5l0,19.6c0,11.6 9.4,21 21,21c11.6,0 21,-9.4 21,-21l0,-41.5c0,-1.9 -1.6,-3.5 -3.5,-3.5Z" style="fill:rgb(7,147,209);fill-rule:nonzero;"/>    </g></svg>