<?xml version="1.0" encoding="UTF-8" standalone="no"?><!DOCTYPE svg PUBLIC "-//W3C//DTD SVG 1.1//EN" "http://www.w3.org/Graphics/SVG/1.1/DTD/svg11.dtd"><svg width="100%" height="100%" viewBox="0 0 1024 512" version="1.1" xmlns="http://www.w3.org/2000/svg" xmlns:xlink="http://www.w3.org/1999/xlink" xml:space="preserve" style="fill-rule:evenodd;clip-rule:evenodd;stroke-linejoin:round;stroke-miterlimit:2;"><title>BoldYield</title><desc>BoldYield is the first European online investment marketplace that provides investment opportunities in 3 reliable industries such as Real Estate, Maritime Transportation and Business Financing within the one place.</desc>    <g id="Layer_1" transform="matrix(1.25431,0,0,1.25431,-12.9263,107.552)">        <path d="M55.8,7.5c2.6,0.5 5.3,0.9 7.9,1.6c18,5 30.5,22 29.7,40.3c-0.9,19.6 -14.4,35.5 -33.3,39c-22.9,4.3 -44.8,-11.6 -47.9,-34.7c0,-0.4 -0.2,-0.7 -0.3,-1l0,-9c0.1,-0.3 0.3,-0.7 0.4,-1c3.3,-17.8 13.6,-29.1 31,-34c1.9,-0.5 3.8,-0.8 5.8,-1.2l6.7,0Z" style="fill:rgb(14,4,75);fill-rule:nonzero;"/>        <path d="M184,7.5c2.1,0.4 4.2,0.8 6.3,1.3c17.3,4.2 29.7,19.1 30.9,36.8c1.4,21.5 -13.8,40.2 -35.2,43.2c-22.5,3.1 -43.5,-13.3 -45.9,-35.9c-2.4,-22.5 13.6,-42.4 36,-45c0.3,0 0.6,-0.2 0.9,-0.3c2.3,-0.1 4.6,-0.1 7,-0.1Z" style="fill:rgb(0,160,226);fill-rule:nonzero;"/>        <path d="M311.1,7.5c1.9,0.3 3.8,0.6 5.7,1c7.4,1.5 13.8,4.8 19.3,10c6.5,6.1 10.7,13.4 12.3,22.2c2.1,11.8 -0.3,22.7 -7.6,32.2c-6.8,8.9 -15.8,14.2 -26.8,15.8c-7.4,1.1 -14.5,0.1 -21.4,-2.8c-9.6,-4.1 -16.6,-10.8 -21.1,-20.1c-3.1,-6.4 -4.4,-13.2 -3.8,-20.3c0.9,-10.7 5.2,-20 13.2,-27.2c6.7,-6.1 14.6,-9.7 23.7,-10.4c0.3,0 0.6,-0.2 0.9,-0.3c1.8,-0.1 3.7,-0.1 5.6,-0.1Z" style="fill:rgb(182,233,239);fill-rule:nonzero;"/>        <path d="M757.2,228l0,-73.3c0.4,0 0.8,-0.1 1.2,-0.1l28.1,0c6.2,0 12.3,0.9 18.2,3c11.4,4.2 17.8,12.5 19.7,24.4c1.2,7.6 1,15.3 -1.8,22.6c-4.6,12 -13.6,19 -25.9,21.9c-3.7,0.9 -7.6,1.3 -11.4,1.3c-9.4,0.3 -18.7,0.2 -28.1,0.2Zm17.2,-13.7c4.6,0 9,0.3 13.3,-0.1c8.9,-0.9 15.8,-7 18.1,-15.7c1,-3.8 1.2,-7.7 0.7,-11.6c-0.9,-7.7 -4.8,-13.4 -12,-16.6c-6.5,-2.9 -13.4,-2.1 -20.2,-2.2c0.1,15.6 0.1,30.9 0.1,46.2Z" style="fill:rgb(0,160,226);fill-rule:nonzero;"/>        <path d="M148.5,229.2c-9.3,-0.1 -17.4,-2 -24.2,-7.6c-7.2,-5.8 -11.2,-13.5 -12.4,-22.6c-1.1,-8.4 -0.6,-16.7 2.8,-24.6c5.4,-12.4 15.1,-19.1 28.3,-20.7c7.2,-0.9 14.3,-0.5 21,2.4c11.9,5.2 18.4,14.6 20.2,27.2c1.2,8.6 0.7,17.2 -2.9,25.2c-5.5,12.5 -15.5,19 -28.9,20.3c-1.5,0.3 -3.1,0.4 -3.9,0.4Zm23.2,-36.8c-0.3,-3.4 -0.4,-5.9 -0.8,-8.4c-0.9,-5.7 -3,-10.8 -7.5,-14.7c-11,-9.7 -29.1,-5.9 -35.6,7.6c-4.3,8.9 -4.3,18.3 -0.8,27.4c3.2,8.3 9.4,13.3 18.4,14.1c11.7,1 21.3,-4.5 24.5,-16c1.1,-3.5 1.4,-7.2 1.8,-10Z" style="fill:rgb(0,160,226);fill-rule:nonzero;"/>        <path d="M20.1,228l0,-73.1c0.1,-0.1 0.2,-0.2 0.3,-0.2c9,0 18.1,0 27.1,0.1c3.7,0.1 7.4,0.9 10.8,2.5c5.4,2.6 9.4,6.3 9.9,12.6c0.6,7 -2.2,12.5 -8.1,16.3c-1.6,1.1 -3.5,1.8 -5.3,2.7c1.8,0.5 3.6,0.8 5.3,1.4c14.3,5.1 13.8,21.2 7.6,28.3c-4.7,5.5 -10.9,8.5 -17.9,8.9c-7.8,0.5 -15.7,0.3 -23.6,0.4c-1.9,0.1 -4,0.1 -6.1,0.1Zm12.7,-33.3l0,23.5c4.4,0 8.8,0.1 13.1,0c3,-0.1 5.9,-0.9 8.4,-2.9c3.7,-3 4.6,-7 3.8,-11.4c-0.8,-4.6 -4.2,-7.2 -8.5,-7.9c-5.5,-0.8 -11.1,-0.9 -16.8,-1.3Zm-0.1,-9.6c3.8,0 7.4,0.3 11,-0.1c2.3,-0.3 4.8,-1.1 6.8,-2.3c4,-2.5 4.9,-6.6 4.2,-11c-0.7,-4.1 -3.6,-6.2 -7.4,-6.7c-4.8,-0.6 -9.7,-0.6 -14.7,-0.9c0.1,7.3 0.1,14.1 0.1,21Z" style="fill:rgb(0,160,226);fill-rule:nonzero;"/>        <path d="M312.9,227.9l0,-73.3l1.7,0c9.6,0.1 19.3,0.1 28.9,0.5c4.9,0.2 9.7,1.4 14.3,3.2c11.3,4.5 17.4,13.1 18.9,25c1,7.3 0.7,14.6 -2.1,21.5c-4.7,11.2 -13.3,17.9 -24.8,21c-3.9,1.1 -8.1,1.8 -12.2,1.9c-8.2,0.4 -16.4,0.2 -24.7,0.2Zm12.6,-9.9c6.1,-0.4 12.2,-0.2 18.1,-1.2c10.1,-1.7 16.7,-7.6 19.3,-17.7c1.4,-5.4 1.3,-10.9 0.1,-16.4c-1.7,-8 -6.4,-13.4 -14.3,-16c-7.6,-2.5 -15.4,-1.5 -23.2,-1.8l0,53.1Z" style="fill:rgb(0,160,226);fill-rule:nonzero;"/>        <path d="M626.4,154.7l0,13.3l-26.7,0l0,16.4l24.8,0l0,13.5l-24.8,0l0,16.8l28.5,0l0,13.3l-45.7,0l0,-73.2c14.6,-0.1 29.2,-0.1 43.9,-0.1Z" style="fill:rgb(0,160,226);fill-rule:nonzero;"/>        <path d="M453.5,227.9l-17.2,0l0,-3.9c0,-5.7 -0.1,-11.5 0.1,-17.2c0.1,-3.2 -0.6,-5.9 -2.1,-8.7c-7.2,-13.9 -14.2,-27.8 -21.3,-41.7c-0.2,-0.5 -0.5,-1 -0.8,-1.6c0.6,0 1,-0.1 1.4,-0.1l16.9,0c1,0 1.5,0.3 1.9,1.2c3.8,8.5 7.6,16.9 11.4,25.4c0.9,2.1 1.5,4.3 2.1,6.2c1.3,-3.1 2.5,-6.5 4,-9.7c3.3,-7.3 6.6,-14.6 9.9,-21.9c0.2,-0.5 0.8,-1.2 1.3,-1.2c5.7,-0.1 11.5,-0.1 17.4,-0.1c-0.3,0.7 -0.6,1.2 -0.8,1.6c-7.7,14.6 -15.3,29.1 -23,43.7c-0.6,1.2 -1,2.7 -1,4.1c-0.1,7.3 0,14.6 0,21.9c-0.2,0.7 -0.2,1.3 -0.2,2Z" style="fill:rgb(0,160,226);fill-rule:nonzero;"/>        <path d="M671,154.7l17.1,0l0,59.8l28.3,0l0,13.4l-45.3,0c-0.1,-24.4 -0.1,-48.8 -0.1,-73.2Z" style="fill:rgb(0,160,226);fill-rule:nonzero;"/>        <rect x="517.5" y="154.7" width="17" height="73.2" style="fill:rgb(0,160,226);fill-rule:nonzero;"/>        <path d="M241.8,217.6l29.6,0l0,10.3l-42.1,0l0,-73.2l12.6,0c-0.1,21 -0.1,41.8 -0.1,62.9Z" style="fill:rgb(0,160,226);fill-rule:nonzero;"/>    </g></svg>