<?xml version="1.0" encoding="UTF-8" standalone="no"?><!DOCTYPE svg PUBLIC "-//W3C//DTD SVG 1.1//EN" "http://www.w3.org/Graphics/SVG/1.1/DTD/svg11.dtd"><svg width="100%" height="100%" viewBox="0 0 1024 512" version="1.1" xmlns="http://www.w3.org/2000/svg" xmlns:xlink="http://www.w3.org/1999/xlink" xml:space="preserve" style="fill-rule:evenodd;clip-rule:evenodd;stroke-linejoin:round;stroke-miterlimit:2;"><title>FinBee</title><desc>The biggest Lithuanian Crowdfunding Marketplace.Most of the loans doesn't have Collateral but the platform has a Provision Fund.Is a bidding platform similar to Fellow Finance, with 3 AutoInvest predefined settings, or you can create your own AutoInvest portfolios, up to 10.</desc>    <g transform="matrix(0.997561,0,0,0.997561,2,0.220815)">        <g transform="matrix(1.92775,0,0,1.92775,1024.75,231.635)">            <g id="Path_1" transform="matrix(3.23675,0,0,3.23675,-378.027,-1700.91)">                <path d="M115.744,521.724c-2.099,4.377 -6.541,7.174 -11.396,7.174c-2.643,0 -5.22,-0.829 -7.367,-2.369l-2.942,0l0,-2.939c-3.591,-5.01 -3.019,-11.953 1.344,-16.307c1.007,-1.008 2.177,-1.84 3.459,-2.461c-2.899,2.3 -4.467,5.902 -4.174,9.591c0.268,6.375 5.53,11.5 11.91,11.6c3.105,0.058 6.105,-1.144 8.311,-3.33c0.304,-0.302 0.59,-0.622 0.855,-0.958m-0.229,-9.359c0.004,0.092 0.006,0.184 0.006,0.276c0,3.637 -2.993,6.63 -6.63,6.63c-0.092,0 -0.184,-0.002 -0.276,-0.006c-3.853,-0.127 -7.012,-3.206 -7.239,-7.054c-0.019,-0.205 -0.029,-0.411 -0.029,-0.617c0,-3.595 2.958,-6.553 6.553,-6.553c0.101,0 0.203,0.002 0.304,0.007c0.951,0.03 1.887,0.242 2.757,0.626c-1.343,-0.799 -2.857,-1.27 -4.417,-1.372c-0.268,-0.028 -0.538,-0.042 -0.808,-0.042c-4.294,0 -7.827,3.533 -7.827,7.827c0,0.399 0.03,0.797 0.091,1.191c0.549,5.079 4.659,9.093 9.75,9.521c0.253,0.025 0.508,0.037 0.763,0.037c4.343,0 7.918,-3.575 7.918,-7.918c0,-0.254 -0.013,-0.507 -0.037,-0.76c-0.123,-1.768 -0.709,-3.473 -1.7,-4.942c0.506,0.974 0.784,2.051 0.813,3.148" style="fill:rgb(255,186,40);fill-rule:nonzero;"/>            </g>            <g id="Path_2" transform="matrix(3.23675,0,0,3.23675,-340.293,-1692.92)">                <path d="M99.273,507.487c-0.27,0.117 -0.589,-0.008 -0.707,-0.277l-0.349,-0.793c-0.024,-0.062 -0.036,-0.127 -0.036,-0.193c0,-0.295 0.242,-0.537 0.537,-0.537c0.204,0 0.392,0.117 0.482,0.3l0.349,0.793c0.117,0.27 -0.008,0.588 -0.277,0.707" style="fill:rgb(255,186,40);fill-rule:nonzero;"/>            </g>            <g id="Path_3" transform="matrix(3.23675,0,0,3.23675,-349.592,-1688.84)">                <path d="M97.67,508.189c-0.27,0.117 -0.589,-0.008 -0.707,-0.277l-0.346,-0.791c-0.03,-0.068 -0.046,-0.142 -0.046,-0.217c0,-0.294 0.243,-0.537 0.537,-0.537c0.213,0 0.406,0.127 0.492,0.321l0.346,0.793c0.117,0.27 -0.008,0.589 -0.277,0.707" style="fill:rgb(255,186,40);fill-rule:nonzero;"/>            </g>        </g>        <g transform="matrix(6.3034,0,0,6.3034,0,98.4805)">            <g id="Path_4" transform="matrix(1,0,0,1,-42.613,-494.987)">                <path d="M51.8,520.36l0,-1.377c0.002,-1.981 1.631,-3.61 3.612,-3.612l3.565,0l0,-5.9l-3.569,0c-5.216,0.004 -9.507,4.294 -9.513,9.51l0,1.377l-3.282,0l0,4.942l3.287,0l0,19.132l5.9,0l0,-19.132l7.219,0l0,-4.94l-7.219,0Z" style="fill:rgb(31,31,31);fill-rule:nonzero;"/>            </g>            <g id="Rectangle_1" transform="matrix(1,0,0,1,19.69,25.371)">                <rect x="0" y="0" width="5.853" height="24.068" style="fill:rgb(31,31,31);"/>            </g>            <g id="Path_5" transform="matrix(1,0,0,1,-23.989,-488.487)">                <path d="M73.96,516.251c2.019,2.317 3.06,5.331 2.9,8.4l0,13.281l-5.853,0l0,-12.932c0,-4.224 -2.238,-6.565 -5.9,-6.565c-2.238,0 -4.325,1.171 -6.208,3.459l0,16.03l-5.899,0l0,-24.064l5.9,0l0,1.983c2.063,-1.781 4.703,-2.757 7.429,-2.746c2.88,-0.106 5.668,1.046 7.632,3.154" style="fill:rgb(31,31,31);fill-rule:nonzero;"/>            </g>            <g id="Path_6" transform="matrix(1,0,0,1,-6.556,-495.036)">                <path d="M84.492,523.51c2.351,2.359 3.639,5.579 3.562,8.909c0.068,3.341 -1.217,6.573 -3.562,8.954c-2.198,2.38 -5.31,3.713 -8.549,3.662c-2.618,0.061 -5.188,-0.724 -7.325,-2.238l0,1.679l-5.9,0l0,-35.03l5.9,0l0,12.642c2.136,-1.515 4.706,-2.301 7.325,-2.238c3.239,-0.052 6.351,1.28 8.549,3.66m-4.325,14.248c1.353,-1.443 2.084,-3.362 2.034,-5.339c0.041,-1.947 -0.691,-3.834 -2.034,-5.244c-1.288,-1.45 -3.147,-2.268 -5.087,-2.238c-2.573,-0.075 -5.014,1.171 -6.462,3.3l0,8.348c1.408,2.18 3.869,3.459 6.462,3.358c1.933,0.049 3.794,-0.752 5.087,-2.19" style="fill:rgb(31,31,31);fill-rule:nonzero;"/>            </g>            <g id="Path_7" transform="matrix(1,0,0,1,29.64,-488.356)">                <path d="M100.7,531.139c-0.866,1.469 -2.489,2.232 -4.875,2.232c-3.869,0 -6.261,-2.09 -7.023,-5.294l18.469,0c0.12,-0.895 0.172,-1.797 0.154,-2.7c0.084,-3.271 -1.143,-6.444 -3.408,-8.806c-2.171,-2.267 -5.208,-3.506 -8.345,-3.405c-3.452,-0.129 -6.808,1.18 -9.261,3.613c-2.427,2.366 -3.797,5.616 -3.797,9.005c0,6.9 5.677,12.577 12.577,12.577c0.16,0 0.321,-0.003 0.481,-0.009c4.2,0 7.772,-1.64 9.837,-4.389l-4.809,-2.824Zm-5.34,-12.985c3.461,0 5.649,2.087 6.107,5.548l-12.723,0c0.453,-3.256 3.33,-5.67 6.616,-5.548" style="fill:rgb(31,31,31);fill-rule:nonzero;"/>            </g>            <g id="Path_8" transform="matrix(1,0,0,1,11.805,-488.356)">                <path d="M90.85,531.131l-0.092,0c-0.866,1.475 -2.492,2.241 -4.883,2.241c-3.869,0 -6.261,-2.09 -7.021,-5.294l18.47,0c0.12,-0.895 0.172,-1.797 0.154,-2.7c0.083,-3.272 -1.146,-6.444 -3.411,-8.806c-2.17,-2.268 -5.207,-3.507 -8.345,-3.405c-3.452,-0.129 -6.806,1.18 -9.258,3.613c-2.427,2.366 -3.797,5.616 -3.797,9.005c0,6.9 5.678,12.577 12.577,12.577c0.159,0 0.319,-0.003 0.478,-0.009c4.227,0 7.814,-1.659 9.873,-4.437l-4.745,-2.785Zm-5.434,-12.977c3.459,0 5.646,2.087 6.107,5.548l-12.723,0c0.45,-3.257 3.328,-5.671 6.613,-5.548" style="fill:rgb(31,31,31);fill-rule:nonzero;"/>            </g>            <g id="Path_9" transform="matrix(1,0,0,1,-30.209,-495.036)">                <path d="M52.825,509.446c0.017,0 0.035,0 0.052,0c1.782,0 3.248,1.466 3.248,3.248c0,0.001 0,0.003 0,0.004c0,1.81 -1.49,3.3 -3.3,3.3c-1.81,0 -3.3,-1.49 -3.3,-3.3c0,-0.002 0,-0.005 0,-0.007c0,-1.781 1.465,-3.245 3.245,-3.245c0.018,0 0.037,0 0.055,0" style="fill:rgb(31,31,31);fill-rule:nonzero;"/>            </g>        </g>    </g></svg>