<?xml version="1.0" encoding="UTF-8" standalone="no"?><!DOCTYPE svg PUBLIC "-//W3C//DTD SVG 1.1//EN" "http://www.w3.org/Graphics/SVG/1.1/DTD/svg11.dtd"><svg width="100%" height="100%" viewBox="0 0 1024 512" version="1.1" xmlns="http://www.w3.org/2000/svg" xmlns:xlink="http://www.w3.org/1999/xlink" xml:space="preserve" style="fill-rule:evenodd;clip-rule:evenodd;stroke-linejoin:round;stroke-miterlimit:2;"><title>Lendico</title><desc></desc>    <g transform="matrix(1.7272,0,0,1.7272,-404.298,-121.567)">        <g transform="matrix(4.16667,0,0,4.16667,315.056,217.359)">            <path d="M0,0.596c-0.077,2.037 -0.943,3.922 -2.438,5.307c-1.415,1.312 -3.256,2.034 -5.184,2.034c-2.15,0 -4.138,-0.867 -5.599,-2.443c-2.86,-3.086 -2.677,-7.923 0.409,-10.783c1.415,-1.312 3.256,-2.034 5.184,-2.034c2.15,0 4.139,0.867 5.599,2.443c1.386,1.495 2.106,3.439 2.029,5.476m4.401,-11.436l-7.244,1.097c-1.507,-0.716 -3.144,-1.079 -4.785,-1.079c-2.707,0 -5.42,0.981 -7.562,2.967c-3.608,3.344 -4.496,8.521 -2.567,12.766l-1.4,6.085l6.171,-0.934c1.661,0.913 3.511,1.374 5.364,1.374c2.707,0 5.42,-0.981 7.562,-2.967c3.44,-3.188 4.408,-8.043 2.818,-12.168l1.643,-7.141Z" style="fill:rgb(71,185,180);fill-rule:nonzero;"/>        </g>        <g transform="matrix(3.05566,-2.83267,-2.83267,-3.05566,290.43,219.102)">            <path d="M-1.156,-0.453c0.939,-0.001 1.701,0.761 1.701,1.7c0,0.939 -0.762,1.7 -1.701,1.701c-0.938,0 -1.7,-0.762 -1.7,-1.701c-0.001,-0.939 0.761,-1.7 1.7,-1.7" style="fill:rgb(71,185,180);fill-rule:nonzero;"/>        </g>        <g transform="matrix(4.16667,0,0,4.16667,807.615,236.398)">            <path d="M0,-7.662c1.069,1.069 1.603,2.35 1.603,3.843c0,1.493 -0.534,2.781 -1.603,3.866c-1.069,1.053 -2.35,1.58 -3.843,1.58c-1.492,0 -2.781,-0.527 -3.866,-1.58c-1.053,-1.085 -1.58,-2.373 -1.58,-3.866c0,-1.493 0.527,-2.774 1.58,-3.843c1.085,-1.069 2.374,-1.603 3.866,-1.603c1.493,0 2.774,0.534 3.843,1.603m-9.618,-1.933c-1.603,1.603 -2.405,3.528 -2.405,5.776c0,2.263 0.802,4.188 2.405,5.775c1.587,1.603 3.513,2.405 5.775,2.405c2.264,0 4.189,-0.802 5.777,-2.405c1.618,-1.571 2.427,-3.496 2.427,-5.775c0,-2.248 -0.809,-4.173 -2.427,-5.776c-1.588,-1.603 -3.513,-2.405 -5.777,-2.405c-2.278,0 -4.204,0.802 -5.775,2.405m-13.885,-1.757c-0.991,0.433 -1.859,1.022 -2.605,1.769c-0.747,0.746 -1.336,1.619 -1.768,2.616c-0.433,0.999 -0.649,2.048 -0.649,3.148c0,1.131 0.216,2.192 0.649,3.182c0.432,0.991 1.021,1.855 1.768,2.593c0.746,0.739 1.614,1.325 2.605,1.757c0.99,0.432 2.051,0.648 3.182,0.648c1.131,0 2.188,-0.212 3.171,-0.637c0.982,-0.424 1.851,-1.013 2.605,-1.768l-1.933,-1.909c-1.085,1.053 -2.366,1.58 -3.843,1.58c-0.755,0 -1.466,-0.142 -2.134,-0.425c-0.667,-0.283 -1.245,-0.672 -1.732,-1.167c-0.488,-0.495 -0.877,-1.073 -1.167,-1.732c-0.291,-0.661 -0.436,-1.368 -0.436,-2.122c0,-0.754 0.145,-1.462 0.436,-2.122c0.29,-0.66 0.684,-1.238 1.179,-1.733c0.495,-0.495 1.073,-0.884 1.732,-1.167c0.66,-0.283 1.367,-0.424 2.122,-0.424c1.493,0 2.774,0.534 3.843,1.603l1.933,-1.933c-0.754,-0.755 -1.623,-1.344 -2.605,-1.768c-0.983,-0.424 -2.04,-0.637 -3.171,-0.637c-1.131,0 -2.192,0.217 -3.182,0.648m-12.448,15.713l2.711,0l0,-16.361l-2.711,0l0,16.361Zm-15.629,-2.734l0,-10.892l2.734,0c0.739,0 1.439,0.141 2.098,0.424c0.66,0.283 1.242,0.676 1.745,1.179c0.503,0.503 0.896,1.084 1.179,1.745c0.283,0.659 0.424,1.359 0.424,2.098c0,0.738 -0.141,1.438 -0.424,2.097c-0.283,0.661 -0.672,1.242 -1.167,1.745c-0.495,0.504 -1.073,0.896 -1.733,1.179c-0.66,0.283 -1.367,0.425 -2.122,0.425l-2.734,0Zm-2.712,2.734l5.446,0c1.116,0 2.173,-0.216 3.171,-0.648c0.998,-0.432 1.866,-1.021 2.605,-1.768c0.739,-0.747 1.324,-1.616 1.756,-2.606c0.433,-0.99 0.649,-2.042 0.649,-3.158c0,-1.116 -0.216,-2.169 -0.649,-3.159c-0.432,-0.99 -1.021,-1.859 -1.768,-2.605c-0.746,-0.747 -1.615,-1.336 -2.605,-1.769c-0.99,-0.431 -2.043,-0.648 -3.159,-0.648l-5.446,0l0,16.361Zm-18.341,-0.023l2.712,0l0,-9.784l10.915,9.807l0,-0.047l0,0.024l0,-16.361l-2.735,0l0,9.807l-10.892,-9.807l0,16.361Zm-15.605,-16.338l0,16.361l10.891,0l0,-2.734l-8.18,0l0,-4.079l8.18,0l0,-2.711l-8.18,0l0,-4.102l8.18,0l0,-2.735l-10.891,0Zm-15.606,16.361l10.891,0l0,-2.734l-8.18,0l0,-13.627l-2.711,0l0,16.361Z" style="fill:rgb(153,151,154);fill-rule:nonzero;"/>        </g>    </g></svg>