<?xml version="1.0" encoding="UTF-8" standalone="no"?><!DOCTYPE svg PUBLIC "-//W3C//DTD SVG 1.1//EN" "http://www.w3.org/Graphics/SVG/1.1/DTD/svg11.dtd"><svg width="100%" height="100%" viewBox="0 0 1024 512" version="1.1" xmlns="http://www.w3.org/2000/svg" xmlns:xlink="http://www.w3.org/1999/xlink" xml:space="preserve" style="fill-rule:evenodd;clip-rule:evenodd;stroke-linejoin:round;stroke-miterlimit:2;"><title>AREX</title><desc>On one hand, we partner up with leading accounting &amp; factoring providers, P2P marketplaces and other invoice originators for allowing their clients access to the AREX exchange. On the other hand, we partner up with institutional and professional investors, such as hedge &amp; quant funds, banks and other liquidity providers who are looking to deploy capital over the exchange. We let these two classes of clients meet each other without third-party intervention to directly buy and sell ETRs.</desc>    <g transform="matrix(1,0,0,1,113,34)">        <g transform="matrix(0.797551,0,0,0.797315,-241.154,-176.517)">            <path d="M1052.3,819.1c-9,-2.3 -15.4,-9.3 -16.1,-17.5c-0.6,-7.9 0.4,-11.7 4.2,-16.2c6.4,-7.4 18.5,-11.8 35.8,-13l10,-0.7l-0.4,-7.1c-0.8,-12.5 -5.5,-17.6 -16,-17.6c-5.8,0 -12.6,2.3 -17.9,6.1c-4.1,2.9 -7.8,2.2 -10.2,-1.9l-2,-3.3l2.7,-2.8c3.8,-4 14.2,-8.8 22,-10.1c16.2,-2.9 29.2,3.6 34.3,16.9c1.4,3.9 1.7,9.4 2.1,35.4l0.4,30.8l-5.9,-0.3l-5.8,-0.3l-1,-4.1c-0.5,-2.3 -1.3,-4.2 -1.7,-4.3c-0.4,0 -2.8,1.4 -5.4,3.2c-2.5,1.7 -6.5,4 -8.9,4.9c-5.2,2.1 -15.7,3 -20.2,1.9Zm23,-13.2c2.3,-1.2 5.7,-3.5 7.5,-5.2c3.1,-3 3.2,-3.4 3.2,-11.2l0,-8.1l-6.7,0.4c-8.9,0.5 -17.7,2.7 -22.9,5.7c-5.3,3.1 -7,7.4 -5.4,13.3c2.1,7.9 13.8,10.4 24.3,5.1Z" style="fill:rgb(130,211,242);fill-rule:nonzero;"/>        </g>        <g transform="matrix(0.797551,0,0,0.797315,-241.154,-176.517)">            <path d="M1269.2,819c-7.5,-1.1 -17.4,-6.2 -21.8,-11.3c-7.5,-8.7 -10.9,-20.3 -10.2,-34.8c0.6,-11.7 3.9,-20.2 10.5,-27c17.6,-18.1 49.1,-13.9 58.4,7.7c2.4,5.7 4.1,16.2 3.3,20.3l-0.6,3.1l-28.6,0l-28.5,0l0.5,5.8c1,10.6 7.9,20.4 16.3,23.2c6.1,2 17.1,0.9 24,-2.5c3.3,-1.6 6.8,-3.2 7.8,-3.7c1.4,-0.6 2.6,0 4.8,2.4c3.5,3.9 3.6,4.8 0.7,7.5c-7.7,7 -23.9,11.1 -36.6,9.3Zm26.8,-53.7c0,-3.4 -4,-12.2 -6.6,-14.5c-5.5,-4.9 -16.7,-6.2 -23.9,-2.9c-6.3,2.8 -10.9,9.1 -12.9,17.4l-0.6,2.7l44,0l0,-2.7Z" style="fill:rgb(130,211,242);fill-rule:nonzero;"/>        </g>        <g transform="matrix(0.797551,0,0,0.797315,-241.154,-176.517)">            <path d="M1338.3,819.1c-4,-1 -8.3,-3.7 -10.3,-6.5c-3.5,-4.8 -3.8,-7.9 -3.9,-35.8l-0.1,-27.8l-5.3,0c-6.3,0 -7.7,-1.1 -7.7,-6.1c0,-3.3 0.3,-3.7 3.1,-4.3c1.7,-0.3 4.4,-0.6 5.9,-0.6c1.5,0 3.2,-0.6 3.7,-1.2c0.5,-0.7 1.7,-6.9 2.6,-13.7c1,-7.3 2.2,-12.8 2.9,-13.3c0.7,-0.4 3.2,-0.8 5.6,-0.8l4.2,0l0,28l23,0l0,12l-11.5,0l-11.5,0l0,25.9c0,14.3 0.3,26.7 0.6,27.6c0.8,1.9 5.5,4.5 8.4,4.5c1.1,0 3.8,-0.9 6,-2c2.2,-1.1 4.2,-2 4.4,-2c1.2,0 5.7,8.3 5.2,9.5c-0.8,2.2 -10.9,6.4 -16.6,6.9c-3,0.3 -7,0.1 -8.7,-0.3Z" style="fill:rgb(130,211,242);fill-rule:nonzero;"/>        </g>        <g transform="matrix(0.797551,0,0,0.797315,-241.154,-176.517)">            <path d="M1383,818.7c-6.1,-1.4 -15.8,-6.3 -17.3,-8.8c-0.8,-1.2 -0.3,-2.5 1.8,-5.3c3.1,-4 5.1,-4.5 8.6,-1.8c13.5,10.1 32.9,5.8 32.9,-7.3c0,-6.3 -4,-9.4 -18,-13.5c-17.5,-5.3 -24,-11.5 -24,-23c0,-9.9 4.2,-16.5 13.6,-21.1c5.6,-2.8 7.5,-3.2 14.7,-3.2c4.5,0 10,0.5 12.2,1.2c5.2,1.7 14.5,7.2 14.5,8.6c0,0.6 -1.3,2.6 -2.9,4.5l-2.8,3.4l-6.4,-2.9c-12.3,-5.5 -23.9,-3.9 -27.6,3.9c-3.4,7.2 0.4,11.2 15.9,16.5c13.7,4.7 14.9,5.2 18.5,8.5c5,4.3 6.6,8.2 6.6,15.2c-0.1,7.2 -3,14.1 -7.8,18.2c-7.8,6.6 -21.3,9.5 -32.5,6.9Z" style="fill:rgb(130,211,242);fill-rule:nonzero;"/>        </g>        <g transform="matrix(0.797551,0,0,0.797315,-241.154,-176.517)">            <path d="M915,777l0,-41l5.8,0c6.8,0 8.2,1.1 8.2,6.2c0,3.8 1.3,5.1 2.3,2.3c1,-2.5 11,-8.4 16.3,-9.5c10,-2.1 19.3,2.1 23.4,10.6l2.2,4.4l2.8,-3.7c3.7,-5.2 5.8,-6.9 11.5,-9.4c11.4,-5.1 27.1,-1.6 33.6,7.4c5.4,7.5 5.9,11.1 5.9,43.9l0,29.8l-7.4,0l-7.5,0l-0.3,-30.2c-0.3,-28.3 -0.4,-30.5 -2.3,-33.8c-3,-5 -7.7,-7.2 -14.8,-6.7c-6.7,0.4 -10.1,2.5 -13.4,8.3c-2.2,3.8 -2.3,4.7 -2.3,33.2l0,29.2l-8,0l-8,0l0,-30.1c0,-26 -0.2,-30.6 -1.7,-33.6c-2.2,-4.7 -6.6,-7.3 -12.6,-7.3c-5.5,0 -9.8,1.9 -14.4,6.3l-3.3,3.1l0,61.6l-8,0l-8,0l0,-41Z" style="fill:rgb(130,211,242);fill-rule:nonzero;"/>        </g>        <g transform="matrix(0.797551,0,0,0.797315,-241.154,-176.517)">            <path d="M1114,777l0,-41.1l6.3,0.3l6.2,0.3l2,14.6l1.9,-3.6c4.6,-8.4 16.6,-14.5 26,-13.1c7.3,1.1 8.1,2.3 6.8,9.2c-1.5,7.2 -2.2,8 -6.3,6.5c-8.8,-3 -18.1,0.2 -23.9,8.4l-3.5,4.9l-0.3,27.3l-0.3,27.3l-7.4,0l-7.5,0l0,-41Z" style="fill:rgb(130,211,242);fill-rule:nonzero;"/>        </g>        <g transform="matrix(0.797551,0,0,0.797315,-241.154,-176.517)">            <path d="M1171,758.5l0,-59.5l15,0l0,70l2.8,0c2.2,0 5.6,-2.9 18.7,-16.5l16,-16.6l16.4,0.6l-7.2,7.5c-4,4.2 -11.7,12.3 -17.2,18l-10,10.5l2,2.1c1.1,1.1 3.8,4.4 6,7.3c2.2,2.9 9.5,12.1 16.1,20.4l12.2,15.2l-7.6,0.3c-4.1,0.2 -8,0.1 -8.7,-0.1c-0.6,-0.3 -7.5,-8.5 -15.4,-18.3c-7.9,-9.9 -15.1,-18.5 -15.9,-19.1c-0.9,-0.7 -3.1,-1.3 -4.9,-1.3l-3.3,0l0,39l-7.5,0l-7.5,0l0,-59.5Z" style="fill:rgb(130,211,242);fill-rule:nonzero;"/>        </g>        <g transform="matrix(0.797551,0,0,0.797315,-241.154,-176.517)">            <path d="M196.8,356.6c-8.7,-3.1 -13.8,-9.8 -14.6,-19.1c-0.6,-8.7 1.5,-14.3 7.3,-19c15.2,-12.5 36.4,-2.8 36.5,16.8c0,15.6 -14.8,26.4 -29.2,21.3Z" style="fill:rgb(130,211,242);fill-rule:nonzero;"/>        </g>        <g transform="matrix(0.797551,0,0,0.797315,-241.154,-176.517)">            <path d="M258.7,356.6c-5.6,-2 -10.7,-6.4 -12.8,-11c-2.5,-5.6 -2.5,-15.4 0.1,-20.5c6.8,-13.4 24.5,-16.2 35.4,-5.7c9.3,9.1 8.8,23.8 -1.2,32.8c-6.2,5.6 -13.8,7.1 -21.5,4.4Z" style="fill:rgb(130,211,242);fill-rule:nonzero;"/>        </g>        <g transform="matrix(0.797551,0,0,0.797315,-241.154,-176.517)">            <path d="M320.6,356.5c-5.7,-2 -8.7,-4.5 -12.1,-10c-2.5,-4 -3,-5.9 -3,-10.9c0.1,-12.8 9.4,-22.5 21.7,-22.6c20.6,-0.1 30.6,24.5 15.7,38.7c-6.1,5.7 -14.6,7.6 -22.3,4.8Z" style="fill:rgb(130,211,242);fill-rule:nonzero;"/>        </g>        <g transform="matrix(0.797551,0,0,0.797315,-241.154,-176.517)">            <path d="M196.2,289.7c-8.5,-3.1 -14.1,-11.1 -14.2,-20.2c0,-7.3 1.5,-11.4 5.7,-15.8c5.5,-5.6 8.5,-6.9 16.4,-6.9c5.9,-0.1 7.6,0.3 11.7,2.8c12.5,7.8 13.9,26.9 2.6,36.2c-6.1,5.1 -14.8,6.6 -22.2,3.9Z" style="fill:rgb(130,211,242);fill-rule:nonzero;"/>        </g>        <g transform="matrix(0.797551,0,0,0.797315,-241.154,-176.517)">            <path d="M257.5,289.6c-4.6,-2 -9.4,-6.5 -11.6,-10.9c-1.7,-3.2 -2,-5.4 -1.7,-11.2c0.4,-8.8 3.4,-14 10.4,-18.1c3.8,-2.2 5.7,-2.7 11.3,-2.6c7.9,0 11,1.4 16.2,6.9c8.2,8.7 8,22.2 -0.4,30.7c-6.2,6.2 -16.8,8.5 -24.2,5.2Z" style="fill:rgb(130,211,242);fill-rule:nonzero;"/>        </g>        <g transform="matrix(0.797551,0,0,0.797315,-241.154,-176.517)">            <path d="M317.3,288.5c-20.4,-10.2 -13.2,-41.6 9.6,-41.8c7.6,0 12,1.6 16.4,6.1c7.6,7.8 8.9,18 3.5,27.2c-6.2,10.3 -18.6,13.9 -29.5,8.5Z" style="fill:rgb(130,211,242);fill-rule:nonzero;"/>        </g>        <g transform="matrix(0.797551,0,0,0.797315,-241.154,-176.517)">            <path d="M256.5,222.6c-13.8,-6.1 -17,-26.2 -5.8,-36.8c6.1,-5.8 16.9,-7.5 24.8,-3.9c10.3,4.7 15.4,18.1 11,28.9c-2.2,5.1 -8.2,11 -12.5,12.2c-4.9,1.4 -13.9,1.2 -17.5,-0.4Z" style="fill:rgb(130,211,242);fill-rule:nonzero;"/>        </g>        <g transform="matrix(0.797551,0,0,0.797315,-241.154,-176.517)">            <path d="M317.3,221.9c-8.5,-4.2 -13.4,-14.3 -11.5,-23.6c2.3,-11.2 10.9,-18.3 22.1,-18.3c15.6,0.1 26.3,15.8 20.6,30.5c-2,5.3 -9.1,12 -13.6,12.9c-6.2,1.2 -13.3,0.6 -17.6,-1.5Z" style="fill:rgb(130,211,242);fill-rule:nonzero;"/>        </g>        <g transform="matrix(0.797551,0,0,0.797315,-241.154,-176.517)">            <path d="M379.4,222.1c-11.4,-5.2 -15.7,-20.5 -8.8,-31.8c7.4,-12.2 27.5,-13.7 35.9,-2.7c7.3,9.6 7.3,19.6 0.2,28.8c-4,5.1 -9.6,7.6 -17.2,7.6c-3.7,0 -7.6,-0.8 -10.1,-1.9Z" style="fill:rgb(130,211,242);fill-rule:nonzero;"/>        </g>        <g transform="matrix(0.797551,0,0,0.797315,-241.154,-176.517)">            <path d="M358,658.3c0,-0.5 15.5,-40.8 27.5,-71.3c1.9,-4.7 7.2,-18.6 12,-31c4.7,-12.4 10.1,-26.3 12,-31c1.8,-4.7 7.7,-19.7 13,-33.5c5.3,-13.7 10.7,-27.7 12,-31c1.2,-3.3 6.2,-16.1 11,-28.5c4.8,-12.4 10.6,-27.4 13,-33.5c2.3,-6 6.4,-16.5 9,-23.3l4.7,-12.2l35.5,0.2l35.5,0.3l2.3,6c1.3,3.3 3.9,10.1 5.8,15c2,5 7.9,20.3 13.2,34c5.3,13.8 11.2,28.8 13,33.5c1.9,4.7 7.3,18.6 12,31c9.4,24.6 14.4,37.3 18,46.5c3.3,8.1 18,46.2 21.5,55.5c1.5,4.1 6.9,18.1 12,31c11.2,28.8 16,41.6 16,42.4c0,0.4 -13.9,0.6 -30.8,0.4l-30.9,-0.3l-4.9,-3c-2.7,-1.7 -5.8,-4.4 -6.9,-6.1c-1.1,-1.7 -6,-15 -11,-29.7l-8.9,-26.7l-56.1,0.2l-56,0.3l-8.8,26c-5.1,15.2 -9.9,27.6 -11.5,30c-1.6,2.3 -4.9,5 -8.1,6.7l-5.3,2.8l-29.9,0c-16.5,0 -29.9,-0.3 -29.9,-0.7Zm189,-113.7c0,-0.3 -20.9,-62.7 -32.3,-96.6c-2.5,-7.4 -5.1,-15.5 -5.7,-18l-1.2,-4.4l-4.8,15.4c-2.7,8.5 -6.5,20.2 -8.5,26c-4.8,13.5 -22.2,64.8 -24.5,72.3l-1.8,5.7l39.4,0c21.7,0 39.4,-0.2 39.4,-0.4Z" style="fill:rgb(0,73,106);fill-rule:nonzero;"/>        </g>        <g transform="matrix(0.797551,0,0,0.797315,-241.154,-176.517)">            <path d="M661,511l0,-148l54.4,0c68,0 83.2,1.4 105.6,9.7c28.1,10.4 44.5,27.3 52.1,53.8c3,10.2 3.7,30.3 1.5,41.9c-5.3,27.9 -22.9,50.3 -50.3,63.8l-6.2,3l5.9,4c8,5.3 12.1,10.3 21.4,25.5c4.3,7 9.4,15.1 11.2,18c1.9,2.8 3.4,5.4 3.4,5.7c0,0.4 1.5,3 3.3,5.9c1.9,2.8 5.3,8.2 7.5,12c2.3,3.7 5.9,9.5 8.1,13c3.6,5.9 22.8,37.3 23.8,39c0.3,0.4 -15.9,0.7 -35.9,0.5l-36.3,-0.3l-5,-2.8c-2.7,-1.6 -6,-4.1 -7.2,-5.6c-2.2,-2.7 -12,-19.7 -38.1,-65.6c-15.5,-27.4 -17.4,-30 -22.2,-32.5c-3.3,-1.7 -5.9,-2 -16,-2l-12,0l0,109l-34.5,0l-34.5,0l0,-148Zm117.9,-12.3c17.6,-6.3 27.1,-18 29,-36c2.7,-24.8 -9.1,-41 -33.5,-46.2c-4.6,-1 -13.1,-1.5 -25.6,-1.5l-18.8,0l0,87.2l20.8,-0.4c19.3,-0.4 21.2,-0.6 28.1,-3.1Z" style="fill:rgb(0,73,106);fill-rule:nonzero;"/>        </g>        <g transform="matrix(0.797551,0,0,0.797315,-241.154,-176.517)">            <path d="M910,511l0,-148l133.8,0.2l133.7,0.3l2.8,2.2c2.8,2.1 4.8,5.3 22.2,34.8c10.8,18.3 13.3,22.6 22.8,38.5c9.1,15.3 14.6,24.8 16.2,27.8c1.2,2.2 1.4,2 5.3,-4.5c5.2,-8.8 41.1,-70.6 46.5,-80.1c5.8,-10.2 9.7,-15.3 13.3,-17.4c2.9,-1.7 5.9,-1.8 38.2,-1.6l35.1,0.3l-17.8,27c-26.8,40.7 -62,93.9 -68.5,103.8c-3.8,5.8 -5.6,9.4 -5.1,10.5c0.6,1.8 8,14.1 20,33.7c10.6,17.2 15.6,25.4 29.7,48.5c23.2,38 26.5,43.5 31.8,52c2.9,4.7 6.1,10 7.2,11.8c1,1.8 2.6,4.4 3.4,5.8l1.6,2.4l-37.1,0c-35.2,0 -37.4,-0.1 -41.1,-2c-4.8,-2.5 -7.1,-5.7 -21.9,-31.7c-31.3,-55.1 -44.4,-77.9 -45.2,-78.7c-0.5,-0.6 -1.1,-0.1 -1.5,1c-0.4,1 -4.1,7.7 -8.2,14.8c-4.1,7.2 -8.2,14.4 -9.2,16c-2.1,3.8 -22.7,39.6 -28,48.6c-2.1,3.6 -6.3,10.8 -9.3,16.1c-3.4,5.9 -7,10.7 -9.4,12.5l-3.8,2.9l-128.7,0.3l-128.8,0.2l0,-148Zm216.6,99.5c13,-20.9 30.5,-48.8 38.7,-62c8.2,-13.2 16.4,-26.2 18.2,-29c1.8,-2.7 4.3,-6.8 5.5,-9l2.3,-4l-23.3,-36.5c-12.8,-20.1 -25.4,-39.7 -27.9,-43.7c-2.5,-4 -7.1,-11.2 -10.2,-16c-3.1,-4.8 -10.7,-16.9 -17,-26.8l-11.4,-18l-0.3,25.3l-0.2,25.2l-61,0l-61,0l0,69l93,0l0,51l-46.5,0l-46.5,0l0,70l122,0l0,22.2c0,13.5 0.4,21.8 0.9,21.3c0.5,-0.6 11.6,-18.1 24.7,-39Z" style="fill:rgb(0,73,106);fill-rule:nonzero;"/>        </g>        <g transform="matrix(0.797551,0,0,0.797315,-241.154,-176.517)">            <path d="M441.5,222.1c-8.7,-3.9 -13.3,-12.8 -12.1,-23.1c1.3,-11 9.1,-18.2 20.6,-18.8c12.1,-0.7 20.4,5.7 23.2,17.7c2.1,9.2 -3,19.9 -11.4,24c-5.6,2.7 -14.7,2.8 -20.3,0.2Z" style="fill:rgb(0,73,106);fill-rule:nonzero;"/>        </g>    </g></svg>