<?xml version="1.0" encoding="UTF-8" standalone="no"?><!DOCTYPE svg PUBLIC "-//W3C//DTD SVG 1.1//EN" "http://www.w3.org/Graphics/SVG/1.1/DTD/svg11.dtd"><svg width="100%" height="100%" viewBox="0 0 1024 512" version="1.1" xmlns="http://www.w3.org/2000/svg" xmlns:xlink="http://www.w3.org/1999/xlink" xml:space="preserve" style="fill-rule:evenodd;clip-rule:evenodd;stroke-linejoin:round;stroke-miterlimit:2;"><title>weeXimmo</title><desc>weeXimmo is a real estate crowdfunding platform dedicated to real estate promotion, approved by the AMF and registered with ORIAS.For all the investments proposed, a single return (10 to 12% per year depending on the amount invested), a maximum duration of 2 years, standardized real estate projects (collective buildings of 12 to 60 dwellings, located in major cities well-established local promoters</desc>    <g transform="matrix(2.04161,0,0,2.04161,-2.08322,190.873)">        <path d="M74.4,1.4l0,59.3c0,1.7 -0.1,1.7 -1.8,1.7l-70.6,0l0,-61l72.4,0Zm-35.9,19.2c-1.3,0 -2.6,-0.1 -3.9,0c-0.8,0.1 -1.7,0.4 -2.2,1c-6.2,6.1 -12.4,12.3 -18.6,18.5c-0.4,0.4 -0.8,1.2 -0.6,1.4c0.3,0.4 1,0.8 1.5,0.8c1.9,0.1 3.8,-0.1 5.7,0.1c1.8,0.1 3,-0.5 4.3,-1.8c4,-4.1 8,-8.1 12,-12.1c2.1,-2.1 4.1,-4.1 6.2,-6.2c0.3,-0.3 0.4,-0.9 0.6,-1.4c-0.4,-0.1 -0.8,-0.4 -1.2,-0.4c-1.3,0 -2.5,0.1 -3.8,0.1Zm19.3,21.8c1.3,0 2.6,-0.1 3.9,0c0.9,0 1.1,-0.5 0.9,-1.2c-0.1,-0.4 -0.4,-0.8 -0.7,-1.2c-4.2,-4.2 -8.3,-8.5 -12.5,-12.7c-0.8,-0.8 -1.7,-0.7 -2.5,0.1c-1.1,1.2 -2.3,2.3 -3.5,3.5c-0.6,0.6 -0.6,1.6 0,2.1c2.7,2.6 5.4,5.3 8.1,7.9c0.9,0.9 1.8,1.6 3.2,1.4c1.1,0 2.1,0.1 3.1,0.1Z" style="fill:rgb(26,45,111);fill-rule:nonzero;"/>        <path d="M500.9,38.7c-1.7,7.2 -6.3,12 -12.9,15c-5.3,2.4 -10.9,2.8 -16.5,1.2c-8.1,-2.3 -13.9,-7.3 -16.2,-15.7c-2.7,-9.6 2.1,-19.2 10.5,-23.9c6.2,-3.4 12.7,-4.2 19.4,-2.2c7.4,2.2 12.6,7 15.3,14.4c0.3,0.8 0.4,1.7 0.6,2.5c1.2,3.9 -0.1,8.4 -0.2,8.7Zm-21.4,-19.9c-5.4,0 -8.9,1.1 -12.1,3.4c-6,4.4 -7.7,12.5 -3.9,18.4c5.6,8.5 18,10.3 25.7,3.6c5.6,-4.8 6.9,-11.9 2.9,-18c-3.1,-5.2 -8.1,-7.3 -12.6,-7.4Z" style="fill:rgb(26,45,111);fill-rule:nonzero;"/>        <path d="M135.6,39.7c0.6,-1.5 1.1,-2.8 1.6,-4.2c2,-5.4 4,-10.8 5.9,-16.1c0.6,-1.7 1.3,-3.4 1.9,-5.2c0.5,-1.6 0.9,-1.9 2.5,-1.9l4.7,0c1.2,0 1.5,0.4 1.1,1.5c-2.7,6.7 -5.4,13.5 -8.1,20.2c-2.2,5.5 -4.3,11 -6.5,16.5c-0.4,1.1 -1,2.2 -1.4,3.3c-0.3,0.9 -0.8,1.3 -1.7,1.3c-1,0.1 -1.6,-0.3 -2,-1.2c-0.8,-2 -1.6,-3.9 -2.5,-5.9c-1.9,-4.6 -3.9,-9.3 -5.8,-13.9c-1,-2.3 -1.9,-4.6 -2.8,-6.9c-0.1,-0.3 -0.5,-0.7 -0.7,-0.7c-0.2,0 -0.6,0.4 -0.7,0.7c-1.9,4.7 -3.8,9.4 -5.7,14.1c-1.7,4.1 -3.4,8.1 -5,12.2c-0.4,0.9 -0.9,1.6 -2,1.6c-1.1,0 -1.6,-0.5 -2,-1.5c-2.4,-5.6 -4.9,-11.2 -7.3,-16.8c-2.4,-5.6 -4.8,-11.3 -7.3,-16.9c-0.8,-1.9 -1.8,-3.9 -2.7,-6c-0.4,-1 -0.2,-1.5 1,-1.5c2,0 4.1,-0.1 6.1,0c0.6,0 1.4,0.6 1.7,1.2c1.9,4.7 3.7,9.4 5.6,14.1c1.4,3.6 2.9,7.3 4.3,10.9c0.1,0.3 0.2,0.6 0.3,0.8c0.2,0.3 0.4,0.7 0.6,1c0.3,-0.3 0.7,-0.6 0.9,-0.9c1.7,-4 3.3,-8.1 5,-12.1c1.9,-4.6 3.9,-9.2 5.8,-13.8c0.4,-0.9 1,-1.3 1.9,-1.3c0.9,-0.1 1.5,0.4 1.9,1.2c1.9,4.3 3.7,8.5 5.5,12.8c1.8,4.3 3.7,8.5 5.5,12.8c-0.1,0.2 0,0.2 0.4,0.6Z" style="fill:rgb(26,45,111);fill-rule:nonzero;"/>        <path d="M381.2,34.3l0,19.9c0,0.9 -0.3,1.3 -1.2,1.3l-4.5,0c-0.9,0 -1.3,-0.4 -1.3,-1.4c0.1,-9.1 0.2,-18.1 0.2,-27.2c0,-0.5 0.1,-1 0.1,-1.5c0,-0.3 -0.2,-0.7 -0.2,-1c-0.3,0.2 -0.7,0.2 -0.9,0.5c-1.8,2.3 -3.6,4.6 -5.4,6.9c-4.1,5.2 -8.3,10.4 -12.4,15.6c-0.5,0.7 -0.9,0.7 -1.5,0c-5.7,-7.3 -11.4,-14.5 -17.2,-21.7c-0.4,-0.5 -0.8,-0.8 -1.3,-1.2c-0.1,0.6 -0.3,1.2 -0.3,1.8c0,8.8 0,17.6 0.1,26.3c0,3 0.5,2.9 -2.8,2.9l-2.6,0c-1.2,0.1 -1.5,-0.4 -1.5,-1.5l0,-14.7c0,-8.2 -0.1,-16.5 -0.1,-24.7c0,-1.3 0.2,-1.6 1.6,-1.6c1.4,0 2.8,0.1 4.1,0c1.1,-0.1 1.7,0.4 2.3,1.2c4.8,6.3 9.7,12.7 14.6,19c1,1.4 2.1,2.7 3.1,4.1c0.6,0.8 1,0.8 1.6,0c5.9,-7.7 11.8,-15.4 17.6,-23.1c0.7,-0.9 1.5,-1.3 2.7,-1.2c1.2,0.1 2.5,0.1 3.7,0.1c1.4,0 1.6,0.2 1.6,1.6c-0.1,6.4 -0.1,13 -0.1,19.6l0,0Z" style="fill:rgb(26,45,111);fill-rule:nonzero;"/>        <path d="M393.5,34.1l0,-19.7c0,-1 0.4,-1.4 1.4,-1.4l4.6,0c1,0 1.6,0.6 2.1,1.3c4.4,5.7 8.7,11.3 13.1,17c1.5,2 3.1,3.9 4.5,5.9c0.6,0.9 1.1,0.7 1.6,0c5,-6.6 10.1,-13.2 15.1,-19.8c0.9,-1.2 1.7,-2.4 2.7,-3.4c0.5,-0.5 1.4,-0.9 2.1,-1c1.4,-0.1 2.8,0.1 4.2,0c1.1,0 1.5,0.4 1.5,1.5l0,39.6c0,1.2 -0.4,1.6 -1.6,1.6c-1.4,-0.1 -2.7,0 -4.1,0c-0.8,0 -1.3,-0.3 -1.3,-1.2c0.1,-8.6 0.1,-17.2 0.2,-25.8c0,-1 0.1,-2.1 0.1,-3.1c0,-0.3 -0.2,-0.6 -0.3,-0.8c-0.2,0.1 -0.6,0.2 -0.7,0.4c-5.9,7.4 -11.8,14.8 -17.7,22.3c-0.9,1.1 -1,1.1 -1.9,0c-5.4,-6.9 -10.9,-13.7 -16.4,-20.6c-0.4,-0.5 -0.7,-1 -1.1,-1.5c-0.2,-0.2 -0.5,-0.3 -0.8,-0.5c-0.1,0.3 -0.3,0.5 -0.3,0.8c0.1,9.6 0.1,19.2 0.2,28.8c0,0.9 -0.4,1.3 -1.2,1.3l-4.6,0c-0.9,0 -1.2,-0.4 -1.2,-1.3l0,-20.1c-0.1,-0.3 -0.2,-0.3 -0.2,-0.3Z" style="fill:rgb(26,45,111);fill-rule:nonzero;"/>        <path d="M180.2,33.2l-13.7,0c-0.8,0 -1.4,0.2 -1.2,1.1c0.6,3.5 1.7,6.8 3.9,9.6c2.6,3.3 6.2,4.6 10.3,4.6c4.1,0 8,-0.9 11.6,-2.9c1.2,-0.7 1.5,-0.5 1.5,0.9c0,1.3 -0.1,2.6 0,3.9c0.1,1.2 -0.4,1.8 -1.4,2.3c-4.4,2.2 -9.1,2.7 -14,2.6c-6.9,-0.1 -12.1,-3.2 -15.8,-8.9c-2,-3.1 -3.1,-6.6 -3.4,-10.3c-0.3,-4.5 0.1,-9 2.1,-13.2c4,-8.4 12.4,-12.4 21.6,-10.3c6.4,1.5 10.2,5.7 12.3,11.6c0.8,2.3 1,4.9 1.4,7.3c0.2,1.5 -0.2,1.9 -1.8,1.9l-13.5,0c0.1,0.1 0.1,-0.1 0.1,-0.2Zm-3.6,-4.9c0,0 0,-0.1 0,0l8.4,0c3.1,0 3.5,-0.7 2,-3.4c0,-0.1 -0.1,-0.1 -0.1,-0.2c-3.1,-5.1 -8,-6.4 -13.4,-5.1c-3.7,0.8 -5.9,3.6 -7.3,7.1c-0.5,1.4 -0.3,1.7 1.1,1.7c3,-0.1 6.2,-0.1 9.3,-0.1Z" style="fill:rgb(26,45,111);fill-rule:nonzero;"/>        <path d="M225.6,33.2l-13.6,0c-0.8,0 -1.4,0.2 -1.2,1.2c0.5,2.9 1.4,5.6 3,8.1c2.4,4 6.1,5.8 10.6,6c4.3,0.2 8.4,-0.8 12.2,-2.9c1.2,-0.7 1.6,-0.4 1.6,1c0,1.2 -0.1,2.5 0,3.7c0.1,1.2 -0.4,1.8 -1.5,2.3c-5.3,2.6 -10.8,3.1 -16.6,2.4c-7.1,-0.8 -11.7,-5 -14.6,-11.3c-3,-6.4 -2.9,-13.1 -0.5,-19.6c3.3,-9.1 12.8,-13.9 22.4,-11.5c6.2,1.5 10,5.6 12,11.4c0.8,2.4 1.1,5 1.5,7.6c0.2,1.5 -0.2,1.9 -1.7,1.9l-13.6,0l0,-0.3Zm-3.6,-4.9l10,0c1.2,0 1.5,-0.4 1.1,-1.6c-0.8,-2.8 -2.6,-4.9 -5.1,-6.3c-2.3,-1.3 -4.9,-1.6 -7.5,-1.3c-1.4,0.2 -2.9,0.5 -4.1,1.2c-2.4,1.5 -4.2,3.5 -5.1,6.3c-0.4,1.4 -0.4,1.6 1,1.7l9.7,0Z" style="fill:rgb(26,45,111);fill-rule:nonzero;"/>        <path d="M253.2,55.2l-3.8,0c-0.4,0 -0.8,-0.2 -1.2,-0.4c0.2,-0.4 0.3,-0.9 0.6,-1.1c5.1,-5.2 10.2,-10.3 15.3,-15.4c7.7,-7.8 15.4,-15.5 23.1,-23.4c1.5,-1.6 3.1,-2.5 5.3,-2.2c1.8,0.2 3.6,0 5.4,0c0.4,0 0.7,0.3 1.1,0.4c-0.2,0.3 -0.3,0.7 -0.5,0.9c-12.6,12.7 -25.2,25.4 -37.7,38.2c-2.5,2.3 -4.8,4 -7.6,3Z" style="fill:rgb(26,45,111);fill-rule:nonzero;"/>        <path d="M308.8,34.1l0,-19.7c0,-1.1 0.4,-1.5 1.5,-1.5c1.4,0 2.8,0.1 4.2,0c1.1,0 1.5,0.4 1.5,1.5l0,38c0,3.3 0.2,3.1 -3,3l-2.7,0c-1,0 -1.4,-0.4 -1.4,-1.4c-0.1,-6.6 -0.1,-13.3 -0.1,-19.9l0,0Z" style="fill:rgb(26,45,111);fill-rule:nonzero;"/>        <path d="M251,12.7c3.4,-0.8 5.7,0.8 7.9,3.2c2.4,2.6 5.1,5 7.7,7.5c0.7,0.6 0.6,1.1 0,1.6c-1.2,1.2 -2.4,2.4 -3.6,3.6c-0.7,0.7 -1.2,0.7 -1.8,0c-4.7,-4.9 -9.5,-9.8 -14.2,-14.7c-0.2,-0.2 -0.3,-0.6 -0.5,-0.9c0.4,-0.1 0.7,-0.4 1.1,-0.4c1.1,0 2.2,0.1 3.4,0.1Z" style="fill:rgb(26,45,111);fill-rule:nonzero;"/>        <path d="M291.9,55.2c-2.9,1 -5.2,-0.6 -7.4,-3.1c-1.8,-2.1 -3.9,-4 -6,-6c-0.6,-0.6 -0.7,-1 -0.1,-1.5c1.2,-1.2 2.4,-2.4 3.6,-3.6c0.6,-0.7 1.1,-0.6 1.8,0c4.3,4.4 8.5,8.7 12.8,13.1c0.2,0.2 0.3,0.5 0.4,0.8c-0.3,0.1 -0.6,0.3 -0.9,0.3l-4.2,0Z" style="fill:rgb(26,45,111);fill-rule:nonzero;"/>    </g></svg>