<?xml version="1.0" encoding="UTF-8" standalone="no"?><!DOCTYPE svg PUBLIC "-//W3C//DTD SVG 1.1//EN" "http://www.w3.org/Graphics/SVG/1.1/DTD/svg11.dtd"><svg width="100%" height="100%" viewBox="0 0 1024 512" version="1.1" xmlns="http://www.w3.org/2000/svg" xmlns:xlink="http://www.w3.org/1999/xlink" xml:space="preserve" style="fill-rule:evenodd;clip-rule:evenodd;stroke-linejoin:round;stroke-miterlimit:2;"><title>Immocratie</title><desc>Immocratie is a real estate crowdfunding platform that advises investors in order to direct their savings towards the financing of real estate transactions through fixed rate bonds.</desc>    <g transform="matrix(1.66682,0,0,1.66682,-75.1308,-163.619)">        <g transform="matrix(0.642068,0,0,0.642068,-90.4927,129.448)">            <g transform="matrix(0.812642,0,0,0.812642,-31.8326,5.12381)">                <path d="M572.111,388.469c-3.808,12.2 -7.517,11.79 -4.229,15.695c-10.986,5.59 -18.109,13.019 -28.23,19.048c4.829,-9.308 12.769,-11.466 7.547,-14.026c7.427,-2.614 18.932,-13.558 24.912,-20.717Z" style="fill:rgb(26,45,55);"/>            </g>            <g transform="matrix(0.812642,0,0,0.812642,-31.8326,5.12381)">                <path d="M568.109,363.959c-0.577,15.109 -5.464,17.683 2.902,21.794c-15.756,7.578 -21.732,16.861 -31.823,26.945c4.471,-11.617 9.357,-14.919 -5.343,-19.452c12.439,-2.471 25.647,-12.038 34.264,-29.287Z" style="fill:rgb(26,45,55);"/>            </g>            <g transform="matrix(0.812642,0,0,0.812642,-31.8326,5.12381)">                <path d="M547.967,340.478c-5.59,18.453 3.14,19.069 15.184,26.291c-13.713,-3.028 -29.978,14.536 -38.594,31.785c5.59,-18.453 0.01,-21.403 -12.034,-28.624c13.713,3.027 26.828,-12.203 35.444,-29.452Z" style="fill:rgb(26,45,55);"/>            </g>            <g transform="matrix(0.812642,0,0,0.812642,-31.8326,5.12381)">                <path d="M571.875,398.101c8.241,-3.127 13.14,-14.029 17.216,-12.928c-1.082,-1.383 9.273,-11.069 12.741,-27.007c-6.807,9.642 -15.718,20.527 -19.911,21.712c1.926,5.284 -2.489,8.362 -10.046,18.223Z" style="fill:rgb(26,45,55);"/>            </g>            <g transform="matrix(0.812642,0,0,0.812642,-31.8326,5.12381)">                <path d="M600.455,331.492c3.996,10.461 -4.377,18.939 2.484,22.672c-9.399,6.422 -17.357,16.845 -26.011,29.834c4.853,-17.232 9.294,-19.82 1.161,-23.494c7.428,-2.614 19.309,-13.635 22.366,-29.012Z" style="fill:rgb(26,45,55);"/>            </g>            <g transform="matrix(0.812642,0,0,0.812642,-31.8326,5.12381)">                <path d="M508.882,309.26c2.189,17.583 8.578,28.509 27.207,30.575c-18.629,2.066 -33.375,15.417 -35.564,33c-2.189,-17.583 -10.629,-27.759 -29.258,-29.824c18.629,-2.066 35.426,-16.168 37.615,-33.751Z" style="fill:rgb(26,45,55);"/>            </g>            <g transform="matrix(0.812642,0,0,0.812642,-31.8326,5.12381)">                <path d="M588.818,301.824c-0.577,15.109 1.963,23.871 10.328,27.982c-15.755,7.578 -20.814,19.001 -29.233,32.523c1.819,-11.635 3.875,-22.668 -10.825,-27.2c12.439,-2.471 21.114,-16.057 29.73,-33.305Z" style="fill:rgb(26,45,55);"/>            </g>            <g transform="matrix(0.812642,0,0,0.812642,-31.8326,5.12381)">                <path d="M605.827,353.25c5.877,-7.601 12.082,-24.275 16.158,-23.175c-1.082,-1.383 5.828,-20.935 4.254,-32.083c-4.158,12.191 -12.735,26.829 -16.927,28.014c6.003,3.405 -0.811,13.991 -3.485,27.244Z" style="fill:rgb(26,45,55);"/>            </g>            <g transform="matrix(0.812642,0,0,0.812642,-31.8326,5.12381)">                <path d="M455.205,270.015c2.188,19.212 20.205,33.366 38.835,35.623c-18.63,2.258 -36.647,20.107 -38.835,39.32c-2.189,-19.213 -20.166,-34.153 -38.795,-36.41c18.629,-2.258 36.606,-19.321 38.795,-38.533Z" style="fill:rgb(26,45,55);"/>            </g>            <g transform="matrix(0.812642,0,0,0.812642,-31.8326,5.12381)">                <path d="M556.552,267.196c1.628,19.212 13.155,33.553 27.016,35.81c-13.861,2.257 -33.396,14.379 -35.024,33.592c-1.629,-19.213 -11.998,-30.983 -25.859,-33.24c13.861,-2.257 32.238,-16.95 33.867,-36.162Z" style="fill:rgb(26,45,55);"/>            </g>            <g transform="matrix(0.812642,0,0,0.812642,-31.8326,5.12381)">                <path d="M616.009,264.641c3.996,10.46 -1.093,26.088 8.465,30.589c-9.449,5.735 -13.369,13.466 -17.785,26.262c-1.122,-17.059 -0.513,-20.154 -8.646,-23.828c7.428,-2.614 16.836,-15.131 17.966,-33.023Z" style="fill:rgb(26,45,55);"/>            </g>            <g transform="matrix(0.812642,0,0,0.812642,-31.8326,5.12381)">                <path d="M395.798,231.312c2.203,19.213 17.819,35.215 36.568,37.472c-18.749,2.257 -34.365,18.259 -36.568,37.472c-2.203,-19.213 -17.819,-35.215 -36.568,-37.472c18.749,-2.257 34.365,-18.259 36.568,-37.472Z" style="fill:rgb(26,45,55);"/>            </g>            <g transform="matrix(0.812642,0,0,0.812642,-31.8326,5.12381)">                <path d="M511.452,229.961c2.189,19.212 16.527,33.45 35.156,35.707c-18.629,2.257 -34.127,18.424 -36.315,37.636c-2.189,-19.212 -15.885,-34.43 -34.514,-36.687c18.629,-2.257 33.485,-17.444 35.673,-36.656Z" style="fill:rgb(26,45,55);"/>            </g>            <g transform="matrix(0.812642,0,0,0.812642,-31.8326,5.12381)">                <path d="M592.374,227.746c1.585,11.733 7.967,31.812 18.872,35.267c-8.911,4.615 -20.553,16.097 -21.914,35.309c-1.361,-19.212 -3.064,-27.285 -20.918,-34.175c16.269,-2.302 22.564,-17.249 23.96,-36.401Z" style="fill:rgb(26,45,55);"/>            </g>            <g transform="matrix(0.812642,0,0,0.812642,-31.8326,5.12381)">                <path d="M628.375,287.827c3.198,-8.031 5.315,-23.587 9.391,-22.487c-1.082,-1.382 -0.573,-5.948 -1.33,-8.783c-2.472,-9.266 -1.269,-17.552 -4.99,-26.985c0.425,9.759 -5.105,31.86 -9.297,33.045c6.003,3.406 5.841,12.633 6.226,25.21Z" style="fill:rgb(26,45,55);"/>            </g>            <g transform="matrix(0.812642,0,0,0.812642,-31.8326,5.12381)">                <path d="M556.867,190.591c1.628,19.213 13.172,35.215 27.033,37.472c-13.861,2.257 -25.405,18.259 -27.033,37.471c-1.629,-19.212 -13.173,-35.214 -27.034,-37.471c13.861,-2.257 25.405,-18.259 27.034,-37.472Z" style="fill:rgb(26,45,55);"/>            </g>            <g transform="matrix(0.812642,0,0,0.812642,-31.8326,5.12381)">                <path d="M456.742,190.542c2.022,19.213 16.356,35.215 33.566,37.472c-17.21,2.257 -31.544,18.259 -33.566,37.472c-2.022,-19.213 -16.356,-35.215 -33.566,-37.472c17.21,-2.257 31.544,-18.259 33.566,-37.472Z" style="fill:rgb(26,45,55);"/>            </g>            <g transform="matrix(0.812642,0,0,0.812642,-31.8326,5.12381)">                <path d="M334.859,190.542c2.022,19.213 16.356,35.215 33.566,37.472c-17.21,2.257 -31.544,18.259 -33.566,37.472c-2.022,-19.213 -16.356,-35.215 -33.566,-37.472c17.21,-2.257 31.544,-18.259 33.566,-37.472Z" style="fill:rgb(26,45,55);"/>            </g>            <g transform="matrix(0.812642,0,0,0.812642,-31.8326,5.12381)">                <path d="M616.75,195.915c4.787,8.441 3.409,27.422 12.967,31.923c-9.459,1.969 -9.971,14.996 -12.609,32.494c-1.122,-17.059 -5.37,-29.337 -13.503,-33.011c7.428,-2.614 14.731,-11.305 13.145,-31.406Z" style="fill:rgb(26,45,55);"/>            </g>            <g transform="matrix(0.812642,0,0,0.812642,-31.8326,5.12381)">                <path d="M589.513,155.73c1.79,13.451 12.663,31.794 22.655,36.746c-10.019,2.105 -16.754,15.88 -18.115,35.093c-1.361,-19.213 -12.937,-34.721 -24.521,-36.978c11.584,-2.257 18.997,-9.976 19.981,-34.861Z" style="fill:rgb(26,45,55);"/>            </g>            <g transform="matrix(0.812642,0,0,0.812642,-31.8326,5.12381)">                <path d="M511.6,151.84c2.021,19.213 16.356,35.215 33.566,37.472c-17.21,2.257 -31.545,18.259 -33.566,37.471c-1.422,-23.369 -18.459,-36.475 -35.669,-38.732c17.21,-2.257 33.647,-16.998 35.669,-36.211Z" style="fill:rgb(26,45,55);"/>            </g>            <g transform="matrix(0.812642,0,0,0.812642,-31.8326,5.12381)">                <path d="M632.068,224.417c3.198,-8.032 2.706,-28.762 6.782,-27.662c-1.082,-1.382 -1.413,-5.903 -2.505,-8.627c-4.127,-10.3 -3.225,-18.989 -8.146,-25.78c0.922,9.042 -0.776,29.139 -4.968,30.324c6.003,3.405 5.958,18.226 8.837,31.745Z" style="fill:rgb(26,45,55);"/>            </g>            <g transform="matrix(0.812642,0,0,0.812642,-31.8326,5.12381)">                <path d="M395.798,149.379c2.203,19.212 17.819,35.214 36.568,37.472c-18.749,2.257 -34.365,18.259 -36.568,37.471c-2.203,-19.212 -17.819,-35.214 -36.568,-37.471c18.749,-2.258 34.365,-18.26 36.568,-37.472Z" style="fill:rgb(26,45,55);"/>            </g>            <g transform="matrix(0.812642,0,0,0.812642,-31.8326,5.12381)">                <path d="M605.699,129.828c4.787,8.44 11.626,26.886 21.183,31.387c-9.459,1.968 -6.51,13.112 -9.148,30.61c-3.857,-17.041 -8.809,-33.622 -21.783,-35.56c14.902,-2.096 11.334,-6.336 9.748,-26.437Z" style="fill:rgb(26,45,55);"/>            </g>            <g transform="matrix(0.812642,0,0,0.812642,-31.8326,5.12381)">                <path d="M549.579,116.828c1.629,19.212 16.82,35.957 30.681,38.214c-13.861,2.257 -21.223,12.938 -22.851,32.15c-1.628,-19.212 -16.966,-34.058 -33.907,-35.86c13.86,-2.257 26.65,-17.575 26.077,-34.504Z" style="fill:rgb(26,45,55);"/>            </g>            <g transform="matrix(0.812642,0,0,0.812642,-31.8326,5.12381)">                <path d="M455.205,109.396c2.188,19.212 23.813,36.712 42.443,38.969c-23.503,2.171 -39.108,18.37 -41.296,37.583c-2.189,-19.213 -18.852,-36.823 -37.481,-39.081c18.629,-2.257 34.145,-18.259 36.334,-37.471Z" style="fill:rgb(26,45,55);"/>            </g>            <g transform="matrix(0.812642,0,0,0.812642,-31.8326,5.12381)">                <path d="M626.152,156.382c-0.25,-10.756 -4.524,-23.939 -0.447,-22.839c-1.082,-1.382 -4.407,-9.918 -6.211,-12.233c-5.525,-7.091 -5.354,-8.026 -10.275,-14.818c2.166,8.721 5.632,21.246 1.44,22.431c6.003,3.406 8.068,12.933 15.493,27.459Z" style="fill:rgb(26,45,55);"/>            </g>            <g transform="matrix(0.812642,0,0,0.812642,-31.8326,5.12381)">                <path d="M572.647,94.168c3.598,13.105 15.983,26.997 28.25,31.018c-13.86,2.257 -11.171,8.741 -12.799,27.954c-3.857,-17.041 -18.792,-32.069 -31.766,-34.007c14.901,-2.096 17.901,-4.863 16.315,-24.965Z" style="fill:rgb(26,45,55);"/>            </g>            <g transform="matrix(0.812642,0,0,0.812642,-31.8326,5.12381)">                <path d="M500.786,82.568c2.189,17.583 17.695,31.401 36.324,33.467c-18.629,2.065 -25.646,12.547 -27.835,30.13c-2.189,-17.583 -19.842,-31.613 -38.472,-33.679c18.63,-2.066 27.794,-12.335 29.983,-29.918Z" style="fill:rgb(26,45,55);"/>            </g>            <g transform="matrix(0.812642,0,0,0.812642,-31.8326,5.12381)">                <path d="M580.081,73.733c3.599,13.105 10.506,9.745 26.36,29.315c-9.287,0.507 -2.083,8.295 -3.853,22.093c-5.548,-13.028 -13.605,-28.309 -26.58,-30.247c9.215,-2.075 5.659,-1.06 4.073,-21.161Z" style="fill:rgb(26,45,55);"/>            </g>            <g transform="matrix(0.812642,0,0,0.812642,-31.8326,5.12381)">                <path d="M549.098,116.058c-5.59,-18.453 3.14,-19.069 15.184,-26.291c-9.93,1.014 -29.277,-14.975 -37.894,-32.224c5.591,18.453 2.501,21.932 -14.343,27.579c13.785,0.007 28.437,13.687 37.053,30.936Z" style="fill:rgb(26,45,55);"/>            </g>            <g transform="matrix(0.812642,0,0,0.812642,-31.8326,5.12381)">                <path d="M603.298,97.043c-3.417,-10.202 -8.323,-14.003 -4.103,-14.156c-1.442,-1.001 -8.261,-9.683 -10.161,-11.919c-4.398,-5.174 -8.166,-8.653 -14.874,-13.688c3.007,7.454 11.126,15.492 7.471,17.862c6.741,1.481 10.282,10.217 21.667,21.901Z" style="fill:rgb(26,45,55);"/>            </g>            <g transform="matrix(0.812642,0,0,0.812642,-30.8764,5.21552)">                <path d="M570.426,93.676c-5.591,-18.453 -4.387,-20.17 1.466,-25.881c-7.002,-2.838 -19.791,-9.636 -30.554,-24.842c5.59,18.453 5.688,14.05 -6.356,21.271c13.713,-3.027 26.827,12.204 35.444,29.452Z" style="fill:rgb(26,45,55);"/>            </g>            <g transform="matrix(0.812642,0,0,0.812642,-30.8764,5.21552)">                <path d="M573.417,68.495c-3.417,-10.202 -5.266,-13.676 -1.046,-13.829c-1.443,-1.001 -3.495,-2.425 -5.902,-4.104c-7.373,-5.143 -18.076,-12.669 -24.784,-17.704c3.007,7.453 9.082,10.919 5.426,13.289c6.741,1.481 14.921,10.664 26.306,22.348Z" style="fill:rgb(26,45,55);"/>            </g>        </g>        <g transform="matrix(5.12797,0,0,2.2031,-943.292,-505.684)">            <g transform="matrix(17.3983,0,0,40.4966,232.336,357.467)">                <path d="M0.167,-0.681l-0,0.115l-0.115,0l-0,-0.115l0.115,0Zm-0,0.184l-0,0.497l-0.115,0l-0,-0.497l0.115,-0Z" style="fill:rgb(26,45,55);fill-rule:nonzero;"/>            </g>            <g transform="matrix(17.3983,0,0,40.4966,235.947,357.467)">                <path d="M0.068,-0.497l0.115,-0l0,0.053c0.02,-0.022 0.04,-0.038 0.061,-0.048c0.021,-0.01 0.041,-0.015 0.061,-0.015c0.011,0 0.023,0.001 0.033,0.004c0.011,0.002 0.022,0.006 0.032,0.013c0.01,0.006 0.02,0.015 0.03,0.026c0.01,0.012 0.02,0.027 0.03,0.046c0.011,-0.017 0.024,-0.032 0.036,-0.043c0.013,-0.011 0.025,-0.02 0.038,-0.027c0.013,-0.007 0.026,-0.012 0.039,-0.015c0.013,-0.002 0.025,-0.004 0.038,-0.004c0.025,0 0.047,0.005 0.068,0.014c0.02,0.009 0.037,0.021 0.052,0.036c0.014,0.016 0.026,0.034 0.033,0.056c0.008,0.021 0.012,0.044 0.012,0.068l0,0.333l-0.115,-0l0,-0.328c0,-0.016 -0.002,-0.029 -0.006,-0.04c-0.004,-0.01 -0.009,-0.018 -0.016,-0.025c-0.006,-0.006 -0.013,-0.01 -0.021,-0.013c-0.008,-0.002 -0.016,-0.004 -0.025,-0.004c-0.011,0 -0.023,0.003 -0.034,0.009c-0.012,0.005 -0.022,0.013 -0.031,0.023c-0.009,0.009 -0.017,0.021 -0.023,0.034c-0.005,0.013 -0.008,0.027 -0.008,0.043l-0,0.301l-0.115,-0l-0,-0.328c-0,-0.016 -0.002,-0.029 -0.007,-0.04c-0.004,-0.01 -0.009,-0.018 -0.015,-0.025c-0.006,-0.006 -0.013,-0.01 -0.02,-0.013c-0.008,-0.002 -0.015,-0.004 -0.021,-0.004c-0.015,0 -0.029,0.004 -0.042,0.011c-0.013,0.007 -0.024,0.016 -0.033,0.027c-0.01,0.011 -0.017,0.024 -0.023,0.037c-0.005,0.013 -0.008,0.026 -0.008,0.038l0,0.297l-0.115,0l-0,-0.497Z" style="fill:rgb(26,45,55);fill-rule:nonzero;"/>            </g>            <g transform="matrix(17.3983,0,0,40.4966,250.515,357.467)">                <path d="M0.068,-0.497l0.115,-0l0,0.053c0.02,-0.022 0.04,-0.038 0.061,-0.048c0.021,-0.01 0.041,-0.015 0.061,-0.015c0.011,0 0.023,0.001 0.033,0.004c0.011,0.002 0.022,0.006 0.032,0.013c0.01,0.006 0.02,0.015 0.03,0.026c0.01,0.012 0.02,0.027 0.03,0.046c0.011,-0.017 0.024,-0.032 0.036,-0.043c0.013,-0.011 0.025,-0.02 0.038,-0.027c0.013,-0.007 0.026,-0.012 0.039,-0.015c0.013,-0.002 0.025,-0.004 0.038,-0.004c0.025,0 0.047,0.005 0.068,0.014c0.02,0.009 0.037,0.021 0.052,0.036c0.014,0.016 0.026,0.034 0.033,0.056c0.008,0.021 0.012,0.044 0.012,0.068l0,0.333l-0.115,-0l0,-0.328c0,-0.016 -0.002,-0.029 -0.006,-0.04c-0.004,-0.01 -0.009,-0.018 -0.016,-0.025c-0.006,-0.006 -0.013,-0.01 -0.021,-0.013c-0.008,-0.002 -0.016,-0.004 -0.025,-0.004c-0.011,0 -0.023,0.003 -0.034,0.009c-0.012,0.005 -0.022,0.013 -0.031,0.023c-0.009,0.009 -0.017,0.021 -0.023,0.034c-0.005,0.013 -0.008,0.027 -0.008,0.043l-0,0.301l-0.115,-0l-0,-0.328c-0,-0.016 -0.002,-0.029 -0.007,-0.04c-0.004,-0.01 -0.009,-0.018 -0.015,-0.025c-0.006,-0.006 -0.013,-0.01 -0.02,-0.013c-0.008,-0.002 -0.015,-0.004 -0.021,-0.004c-0.015,0 -0.029,0.004 -0.042,0.011c-0.013,0.007 -0.024,0.016 -0.033,0.027c-0.01,0.011 -0.017,0.024 -0.023,0.037c-0.005,0.013 -0.008,0.026 -0.008,0.038l0,0.297l-0.115,0l-0,-0.497Z" style="fill:rgb(26,45,55);fill-rule:nonzero;"/>            </g>            <g transform="matrix(17.3983,0,0,40.4966,265.083,357.467)">                <path d="M0.027,-0.248c-0,-0.035 0.005,-0.068 0.015,-0.099c0.011,-0.032 0.026,-0.059 0.046,-0.083c0.02,-0.024 0.044,-0.042 0.073,-0.056c0.03,-0.014 0.063,-0.021 0.1,-0.021c0.037,0 0.07,0.007 0.099,0.021c0.029,0.014 0.054,0.032 0.074,0.056c0.02,0.024 0.035,0.051 0.046,0.083c0.01,0.031 0.016,0.064 0.016,0.099c-0,0.036 -0.006,0.069 -0.016,0.1c-0.01,0.031 -0.026,0.059 -0.046,0.082c-0.02,0.024 -0.044,0.042 -0.073,0.056c-0.03,0.013 -0.063,0.02 -0.1,0.02c-0.037,-0 -0.07,-0.007 -0.099,-0.02c-0.029,-0.014 -0.054,-0.032 -0.074,-0.056c-0.02,-0.023 -0.035,-0.051 -0.046,-0.082c-0.01,-0.031 -0.015,-0.064 -0.015,-0.1Zm0.115,0c0,0.023 0.003,0.043 0.008,0.063c0.006,0.019 0.013,0.037 0.024,0.051c0.01,0.015 0.022,0.026 0.037,0.035c0.015,0.008 0.031,0.013 0.05,0.013c0.018,-0 0.034,-0.005 0.049,-0.013c0.015,-0.009 0.028,-0.02 0.038,-0.035c0.011,-0.014 0.019,-0.032 0.024,-0.051c0.006,-0.02 0.008,-0.04 0.008,-0.063c0,-0.022 -0.002,-0.043 -0.008,-0.062c-0.005,-0.02 -0.013,-0.037 -0.024,-0.052c-0.01,-0.014 -0.023,-0.026 -0.038,-0.035c-0.015,-0.008 -0.031,-0.013 -0.049,-0.013c-0.019,0 -0.035,0.005 -0.05,0.013c-0.015,0.009 -0.027,0.021 -0.037,0.035c-0.011,0.015 -0.018,0.032 -0.024,0.052c-0.005,0.019 -0.008,0.04 -0.008,0.062Z" style="fill:rgb(26,45,55);fill-rule:nonzero;"/>            </g>            <g transform="matrix(17.3983,0,0,40.4966,274.807,357.467)">                <path d="M0.375,-0.348c-0.01,-0.034 -0.025,-0.059 -0.044,-0.073c-0.02,-0.014 -0.046,-0.021 -0.078,-0.021c-0.022,-0 -0.042,0.005 -0.06,0.015c-0.017,0.01 -0.032,0.023 -0.044,0.04c-0.012,0.017 -0.021,0.037 -0.027,0.059c-0.007,0.022 -0.01,0.045 -0.01,0.069c0,0.025 0.003,0.05 0.01,0.074c0.006,0.025 0.015,0.047 0.027,0.066c0.012,0.019 0.027,0.035 0.044,0.046c0.018,0.012 0.037,0.018 0.059,0.018c0.018,0 0.034,-0.003 0.047,-0.009c0.014,-0.006 0.026,-0.015 0.036,-0.025c0.01,-0.011 0.018,-0.024 0.024,-0.038c0.007,-0.014 0.012,-0.03 0.015,-0.046l0.079,0c-0.003,0.028 -0.011,0.054 -0.022,0.077c-0.011,0.022 -0.025,0.041 -0.042,0.057c-0.017,0.016 -0.038,0.028 -0.062,0.036c-0.023,0.009 -0.049,0.013 -0.078,0.013c-0.024,-0 -0.046,-0.004 -0.066,-0.011c-0.02,-0.008 -0.037,-0.018 -0.053,-0.031c-0.015,-0.013 -0.029,-0.028 -0.04,-0.045c-0.012,-0.018 -0.021,-0.036 -0.028,-0.056c-0.008,-0.02 -0.013,-0.041 -0.017,-0.062c-0.003,-0.022 -0.005,-0.043 -0.005,-0.064c0,-0.034 0.005,-0.066 0.015,-0.096c0.01,-0.03 0.025,-0.057 0.043,-0.079c0.019,-0.023 0.042,-0.04 0.068,-0.053c0.026,-0.013 0.056,-0.02 0.089,-0.02c0.028,0 0.054,0.004 0.076,0.012c0.022,0.008 0.041,0.019 0.058,0.033c0.016,0.014 0.03,0.031 0.04,0.051c0.011,0.019 0.018,0.041 0.023,0.063l-0.077,0Z" style="fill:rgb(26,45,55);fill-rule:nonzero;"/>            </g>            <g transform="matrix(17.3983,0,0,40.4966,283.151,357.467)">                <path d="M0.073,-0.497l0.073,-0l-0.003,0.082c0.015,-0.027 0.033,-0.047 0.054,-0.061c0.02,-0.014 0.044,-0.022 0.072,-0.022c0.002,0 0.005,0.001 0.01,0.001c0.004,-0 0.008,0 0.012,0.001c0.005,0 0.009,0.001 0.013,0.002c0.004,0 0.007,0.001 0.009,0.002l0,0.074c-0.007,-0.003 -0.015,-0.005 -0.025,-0.006c-0.009,-0.002 -0.016,-0.002 -0.021,-0.002c-0.019,-0 -0.036,0.003 -0.051,0.01c-0.015,0.008 -0.028,0.017 -0.038,0.03c-0.011,0.012 -0.019,0.026 -0.024,0.042c-0.006,0.015 -0.008,0.032 -0.008,0.049l-0,0.295l-0.073,0l0,-0.497Z" style="fill:rgb(26,45,55);fill-rule:nonzero;"/>            </g>            <g transform="matrix(17.3983,0,0,40.4966,288.182,357.467)">                <path d="M0.475,0.004c-0.004,0.002 -0.01,0.003 -0.018,0.004c-0.007,0.001 -0.013,0.002 -0.018,0.002c-0.021,-0 -0.038,-0.008 -0.051,-0.023c-0.014,-0.015 -0.021,-0.039 -0.023,-0.071c-0.015,0.02 -0.031,0.036 -0.046,0.048c-0.015,0.013 -0.03,0.022 -0.045,0.029c-0.015,0.007 -0.031,0.011 -0.046,0.013c-0.015,0.003 -0.03,0.004 -0.046,0.004c-0.02,-0 -0.039,-0.003 -0.057,-0.01c-0.017,-0.007 -0.032,-0.016 -0.046,-0.028c-0.013,-0.012 -0.023,-0.026 -0.031,-0.043c-0.007,-0.017 -0.011,-0.036 -0.011,-0.057c0,-0.021 0.005,-0.039 0.014,-0.053c0.009,-0.015 0.021,-0.028 0.036,-0.039c0.015,-0.01 0.032,-0.02 0.051,-0.027c0.019,-0.007 0.039,-0.014 0.059,-0.019c0.02,-0.006 0.04,-0.012 0.059,-0.017c0.019,-0.005 0.036,-0.011 0.051,-0.017c0.016,-0.006 0.028,-0.013 0.037,-0.022c0.009,-0.008 0.013,-0.018 0.013,-0.031c0,-0.014 -0.002,-0.027 -0.008,-0.038c-0.005,-0.011 -0.013,-0.021 -0.023,-0.028c-0.01,-0.008 -0.023,-0.014 -0.037,-0.018c-0.014,-0.003 -0.03,-0.005 -0.047,-0.005c-0.015,-0 -0.029,0.001 -0.042,0.005c-0.013,0.004 -0.025,0.009 -0.035,0.017c-0.01,0.007 -0.019,0.016 -0.026,0.026c-0.007,0.01 -0.011,0.022 -0.013,0.036l-0.075,0c0.001,-0.024 0.007,-0.045 0.019,-0.064c0.011,-0.018 0.026,-0.034 0.043,-0.047c0.018,-0.012 0.038,-0.022 0.06,-0.028c0.022,-0.007 0.045,-0.01 0.069,-0.01c0.025,0 0.049,0.003 0.072,0.009c0.022,0.007 0.042,0.016 0.06,0.029c0.017,0.012 0.03,0.028 0.041,0.048c0.01,0.019 0.015,0.042 0.015,0.068l-0,0.257c-0,0.013 0.003,0.023 0.009,0.031c0.007,0.007 0.014,0.011 0.024,0.011c0.002,0 0.004,0 0.006,-0c0.002,-0.001 0.004,-0.001 0.006,-0.002l0,0.06Zm-0.118,-0.28c-0.01,0.011 -0.023,0.02 -0.039,0.026c-0.016,0.007 -0.033,0.014 -0.052,0.019c-0.018,0.006 -0.037,0.011 -0.055,0.016c-0.019,0.005 -0.035,0.012 -0.051,0.019c-0.015,0.007 -0.027,0.016 -0.036,0.026c-0.01,0.01 -0.015,0.023 -0.015,0.039c0,0.014 0.003,0.026 0.008,0.035c0.005,0.01 0.011,0.018 0.019,0.024c0.008,0.007 0.017,0.011 0.027,0.014c0.01,0.003 0.02,0.005 0.03,0.005c0.03,-0 0.06,-0.009 0.088,-0.028c0.029,-0.018 0.055,-0.046 0.076,-0.084l0,-0.111Z" style="fill:rgb(26,45,55);fill-rule:nonzero;"/>            </g>            <g transform="matrix(17.3983,0,0,40.4966,296.73,357.467)">                <path d="M0.168,-0.635l0,0.138l0.088,-0l0,0.061l-0.088,0l0,0.326c0,0.011 0.002,0.02 0.005,0.027c0.002,0.008 0.006,0.013 0.011,0.018c0.005,0.004 0.01,0.007 0.017,0.009c0.006,0.002 0.013,0.003 0.021,0.003c0.009,-0 0.019,-0.001 0.028,-0.003c0.01,-0.002 0.018,-0.003 0.025,-0.005l0,0.059c-0.008,0.002 -0.019,0.005 -0.033,0.008c-0.013,0.002 -0.027,0.004 -0.041,0.004c-0.013,-0 -0.025,-0.002 -0.038,-0.005c-0.012,-0.004 -0.023,-0.009 -0.033,-0.017c-0.01,-0.007 -0.018,-0.017 -0.025,-0.029c-0.006,-0.012 -0.009,-0.026 -0.009,-0.043l0,-0.352l-0.076,0l0,-0.061l0.076,-0l0,-0.138l0.072,0Z" style="fill:rgb(26,45,55);fill-rule:nonzero;"/>            </g>            <g transform="matrix(17.3983,0,0,40.4966,300.964,357.467)">                <path d="M0.146,-0.685l-0,0.085l-0.073,-0l0,-0.085l0.073,0Zm-0,0.188l-0,0.497l-0.073,0l0,-0.497l0.073,-0Z" style="fill:rgb(26,45,55);fill-rule:nonzero;"/>            </g>            <g transform="matrix(17.3983,0,0,40.4966,303.967,357.467)">                <path d="M0.116,-0.236c0,0.022 0.004,0.045 0.012,0.067c0.007,0.022 0.018,0.041 0.031,0.058c0.013,0.017 0.029,0.031 0.047,0.042c0.017,0.01 0.037,0.016 0.058,0.016c0.07,-0 0.117,-0.033 0.14,-0.098l0.066,0c-0.005,0.026 -0.015,0.048 -0.028,0.068c-0.013,0.02 -0.029,0.037 -0.047,0.051c-0.019,0.013 -0.04,0.024 -0.062,0.031c-0.022,0.007 -0.046,0.011 -0.069,0.011c-0.035,-0 -0.065,-0.008 -0.093,-0.022c-0.027,-0.015 -0.051,-0.034 -0.07,-0.059c-0.02,-0.024 -0.035,-0.052 -0.045,-0.085c-0.011,-0.032 -0.016,-0.065 -0.016,-0.1c0,-0.033 0.005,-0.065 0.016,-0.095c0.01,-0.03 0.025,-0.057 0.044,-0.08c0.02,-0.023 0.043,-0.042 0.071,-0.055c0.027,-0.014 0.058,-0.021 0.092,-0.021c0.033,0 0.063,0.006 0.09,0.019c0.026,0.012 0.049,0.03 0.068,0.051c0.019,0.022 0.033,0.047 0.043,0.077c0.01,0.029 0.015,0.061 0.015,0.095l0,0.029l-0.363,-0Zm0.289,-0.056c-0.001,-0.021 -0.005,-0.04 -0.012,-0.059c-0.007,-0.018 -0.016,-0.034 -0.029,-0.047c-0.013,-0.014 -0.028,-0.025 -0.046,-0.033c-0.018,-0.007 -0.038,-0.011 -0.06,-0.011c-0.02,-0 -0.039,0.004 -0.056,0.012c-0.017,0.009 -0.032,0.02 -0.045,0.034c-0.012,0.014 -0.022,0.03 -0.03,0.048c-0.007,0.018 -0.011,0.037 -0.011,0.056l0.289,0Z" style="fill:rgb(26,45,55);fill-rule:nonzero;"/>            </g>        </g>    </g></svg>