<?xml version="1.0" encoding="UTF-8" standalone="no"?><!DOCTYPE svg PUBLIC "-//W3C//DTD SVG 1.1//EN" "http://www.w3.org/Graphics/SVG/1.1/DTD/svg11.dtd"><svg width="100%" height="100%" viewBox="0 0 1024 512" version="1.1" xmlns="http://www.w3.org/2000/svg" xmlns:xlink="http://www.w3.org/1999/xlink" xml:space="preserve" style="fill-rule:evenodd;clip-rule:evenodd;stroke-linejoin:round;stroke-miterlimit:2;"><title>Dot</title><desc>Dot turns undervalued properties into Corporate &amp; Airbnb-ready suites, with target net levered yields of 10% - 15%+, plus capital gain potential.Buy. Add value. Rent. Refinance.Our end-to-end investment platform allows you to generate above market returns from beautiful properties in fast-growing markets - all from the comfort of your sofa.</desc>    <g id="dot_logo" transform="matrix(12.3093,0,0,12.3093,2,29.0833)">        <path id="Shape" d="M0,0l11.922,0c4.037,0 11.247,0 15.91,6.719c2.482,3.409 3.307,7.255 3.307,11.199c0,9.837 -4.865,18.113 -18.537,18.113l-12.602,0l0,-36.031Zm9.196,27.95l3.944,0c6.859,0 8.796,-4.763 8.796,-9.884c0,-2.045 -0.439,-4.628 -1.752,-6.66c-1.063,-1.618 -2.911,-3.323 -6.998,-3.323l-3.99,0l0,19.867Z" style="fill:rgb(22,22,22);fill-rule:nonzero;"/>        <path id="Shape1"  d="M46.608,8.14c9.83,0 14.542,7.743 14.542,14.366c0,6.623 -4.72,14.363 -14.542,14.363c-9.822,0 -14.542,-7.743 -14.542,-14.363c0,-6.621 4.713,-14.366 14.542,-14.366Zm0,21.181c3.503,0 6.47,-2.871 6.47,-6.815c0,-3.944 -2.958,-6.818 -6.47,-6.818c-3.512,0 -6.47,2.864 -6.47,6.808c0,3.944 2.968,6.818 6.47,6.818l0,0.007Z" style="fill:rgb(22,22,22);fill-rule:nonzero;"/>        <path id="Shape2"  d="M72.49,9.008l3.892,0l0,6.135l-3.892,0l0,20.89l-8.077,0l0,-20.89l-3.99,0l0,-6.135l3.99,0l0,-9.008l8.077,0l0,9.008Z" style="fill:rgb(22,22,22);fill-rule:nonzero;"/>        <ellipse id="Oval" cx="78.603" cy="31.953" rx="4.262" ry="4.265" style="fill:rgb(255,181,51);"/>    </g></svg>