<?xml version="1.0" encoding="UTF-8" standalone="no"?><!DOCTYPE svg PUBLIC "-//W3C//DTD SVG 1.1//EN" "http://www.w3.org/Graphics/SVG/1.1/DTD/svg11.dtd"><svg width="100%" height="100%" viewBox="0 0 1024 512" version="1.1" xmlns="http://www.w3.org/2000/svg" xmlns:xlink="http://www.w3.org/1999/xlink" xml:space="preserve" style="fill-rule:evenodd;clip-rule:evenodd;stroke-linejoin:round;stroke-miterlimit:2;"><title>Splendit</title><desc>Splendit is a crowdlending platform for students. Students can focus on their studies and connect with a network of alumni that finances their loans.</desc>    <g transform="matrix(2.71565,0,0,2.71565,-79.7412,45.2652)">        <g>            <path id="SVGID_1_" d="M57.5,65.4c-0.1,-1.2 -0.3,-4.2 -5.2,-4.2c-3.5,0 -4.7,2.2 -4.7,3.7c0,3 4.1,4.7 8.5,6c9.4,2.6 19.4,5.4 19.4,17.4c0,11.7 -10.3,18.9 -22.7,18.9c-8.4,0 -21.1,-3.8 -22.7,-18.4l16.5,0c0.7,5.1 5.6,5.1 6.3,5.1c2.8,0 5.8,-1.6 5.8,-4.3c0,-4.3 -4.1,-4.8 -14.7,-8.9c-7.2,-2.3 -13.2,-7 -13.2,-14.5c0,-11 10,-18.3 21.6,-18.3c7.3,0 19.9,2.9 21.4,17.5l-16.3,0Zm22.3,-15.7l15.6,0l0,6.1l0.3,0c3.3,-4.2 8.8,-8 17.3,-8c19.7,0 27.2,17.3 27.2,30.3c0,16 -11.2,29.2 -27.1,29.2c-10,0 -14.7,-4.8 -16.7,-6.9l0,23.6l-16.6,0l0,-74.3Zm43.8,27.9c0,-6.6 -4.8,-14.2 -13.9,-14.2c-9.1,0 -13.9,7.6 -13.9,14.2c0,7 5.2,14.1 13.9,14.1c8.7,0 13.9,-7.1 13.9,-14.1Z" style="fill:rgb(51,64,81);fill-rule:nonzero;"/>            <rect x="356.4" y="31.2" width="16.6" height="51.6" style="fill:rgb(51,64,81);"/>            <path d="M381.1,31.2l16.6,0l0,18.5l8,0l0,12.7l-8,0l0,43l-16.6,0l0,-74.2Z" style="fill:rgb(51,64,81);fill-rule:nonzero;"/>        </g>        <g>            <g>                <rect x="145.7" y="31.2" width="16.6" height="74.2" style="fill:rgb(118,178,77);"/>                <path d="M225.9,78.2c0,-16.9 -12.4,-30.4 -29.4,-30.4c-16.9,0 -29.2,14.3 -29.2,29.9c0,16.5 13.5,29.5 29.5,29.5c5.7,0 11.2,-1.7 15.8,-5c4.7,-3.2 8.6,-8 11.3,-14.2l-17,0c-2.3,2.9 -5,5.2 -10.1,5.2c-6.5,0 -12,-3.9 -13,-10.5l41.7,0c0.2,-1.4 0.4,-2.3 0.4,-4.5Zm-41.9,-6.8c0.7,-3.3 4,-9.5 12.6,-9.5c8.6,0 11.9,6.2 12.6,9.5l-25.2,0Z" style="fill:rgb(118,178,77);fill-rule:nonzero;"/>                <path d="M231.1,49.7l15.5,0l0,5.9l0.2,0c1.7,-2.7 5.2,-7.8 15.1,-7.8c5.3,0 11.2,2.2 14.2,4.8c3,2.6 6.4,7 6.4,17.9l0,34.8l-16.5,0l0,-30.3c0,-3.9 0,-11.5 -8.7,-11.5c-9.5,0 -9.5,8.2 -9.5,11.6l0,30.3l-16.6,0l0,-55.7l-0.1,0Z" style="fill:rgb(118,178,77);fill-rule:nonzero;"/>                <path d="M331.7,31.2l0,23.3c-1.8,-1.8 -6.5,-6.6 -16.3,-6.6c-14.1,0 -27.6,10.7 -27.6,29.6c0,16.7 11,29.8 27.9,29.8c11.2,0 15.2,-5.5 16.6,-7.8l0.2,0l0,6l15.8,0l0,-74.3l-16.6,0Zm-13.3,60.4c-7.8,0 -13.9,-5.7 -13.9,-14.3c0,-6.4 4.5,-13.9 14.1,-13.9c9.2,0 14,7.2 14,13.9c0,5.8 -3.8,14.3 -14.2,14.3Z" style="fill:rgb(118,178,77);fill-rule:nonzero;"/>            </g>            <rect x="356.4" y="88.7" width="16.6" height="16.6" style="fill:rgb(118,178,77);"/>        </g>    </g></svg>