<?xml version="1.0" encoding="UTF-8" standalone="no"?><!DOCTYPE svg PUBLIC "-//W3C//DTD SVG 1.1//EN" "http://www.w3.org/Graphics/SVG/1.1/DTD/svg11.dtd"><svg width="100%" height="100%" viewBox="0 0 1024 512" version="1.1" xmlns="http://www.w3.org/2000/svg" xmlns:xlink="http://www.w3.org/1999/xlink" xml:space="preserve" style="fill-rule:evenodd;clip-rule:evenodd;stroke-miterlimit:10;"><title>Money&amp;Co</title><desc>Many companies find it difficult to obtain the funds they need to help them grow and things are only going to get worse for small businesses as banking regulation continues to tighten. Money&amp;Co. is making a real difference to businesses in the UK through connecting its lenders to good quality companies that want to borrow.</desc>    <g transform="matrix(4.30773,0,0,4.30773,-1387.21,-226.898)">        <g transform="matrix(1,0,0,1,0,-240.071)">            <path d="M522.211,332.049c0.016,-9.287 -2.444,-13.068 -5.772,-15.848c-1.312,-0.879 -2.994,-2.143 -4.636,-2.649c-1.645,-0.505 -3.411,-0.759 -5.31,-0.759c-1.605,0 -3.136,0.204 -4.603,0.607c-1.46,0.405 -2.828,0.975 -4.094,1.711c-1.27,0.737 -2.42,1.624 -3.455,2.662c-1.036,1.039 -1.917,2.192 -2.65,3.455c-0.728,1.262 -1.298,2.62 -1.704,4.07c-0.406,1.45 -0.606,2.962 -0.606,4.535c0,2.353 0.444,4.557 1.329,6.614c0.889,2.058 2.103,3.854 3.64,5.392c1.545,1.536 3.353,2.75 5.429,3.636c2.078,0.889 4.318,1.331 6.714,1.331c1.911,0 3.524,-0.22 4.835,-0.66c1.303,-0.442 3.625,-1.393 5.197,-2.69c2.416,-1.882 4.347,-5.891 4.347,-7.236l-7.213,0c-0.872,1.155 -1.657,1.974 -2.357,2.458c-0.7,0.482 -1.457,0.829 -2.265,1.039c-0.809,0.21 -1.656,0.314 -2.544,0.314c-1.309,0 -2.521,-0.27 -3.642,-0.814c-1.121,-0.539 -2.089,-1.275 -2.908,-2.207c-0.817,-0.93 -1.457,-2.013 -1.926,-3.247c-0.465,-1.234 -0.698,-2.544 -0.698,-3.93c0,-1.399 0.229,-2.717 0.69,-3.951c0.457,-1.234 1.091,-2.313 1.902,-3.237c0.809,-0.924 1.772,-1.655 2.89,-2.196c1.123,-0.543 2.351,-0.813 3.692,-0.813c0.932,0 1.806,0.14 2.616,0.422c0.808,0.281 1.545,0.653 2.203,1.115c0.661,0.461 1.241,0.992 1.74,1.592c0.499,0.598 0.89,1.222 1.166,1.872l0.325,0.925l0.136,0.119l-19.199,0l0,6.368l26.731,0Z" style="fill:rgb(35,31,32);fill-rule:nonzero;stroke:rgb(35,31,32);stroke-width:0.07px;"/>        </g>        <g transform="matrix(1,0,0,1,0,-246.629)">            <path d="M354.353,346.382l3.529,0l0,-26.579l-3.529,0l0,-7.559l15.618,0l11.187,30.07l10.386,-30.07l15.843,0l0,7.559l-3.531,0l0,26.579l3.479,0l0,7.531l-14.19,0l0,-7.531l2.604,0l0,-23.968l-11.363,31.005l-7.033,0l-11.562,-30.181l0,23.144l2.828,0l0,7.531l-14.266,0l0,-7.531Z" style="fill-rule:nonzero;"/>        </g>        <g transform="matrix(1,0,0,1,0,-240.068)">            <path d="M472.05,327.705c0,-1.77 -0.462,-3.161 -1.378,-4.169c-0.92,-1.007 -2.135,-1.513 -3.652,-1.513c-1.039,0 -2.085,0.234 -3.143,0.703c-1.058,0.469 -2.085,1.344 -3.084,2.628l0,14.2l5.029,0l0,6.357l-19.279,0l0,-6.357l4.551,0l0,-16.919l-4.489,0l0,-8.369l14.127,0l0,2.779c1.299,-1.039 2.751,-1.858 4.359,-2.459c1.606,-0.601 3.295,-0.901 5.071,-0.901c3.732,0 6.607,1.065 8.623,3.193c2.013,2.128 3.024,5.237 3.024,9.331l0,13.345l4.398,0l0,6.357l-14.157,0l0,-18.206Z" style="fill-rule:nonzero;"/>        </g>        <g transform="matrix(1,0,0,1,0,-225.1)">            <path d="M524.883,299.297l15.207,0l0,8.37l-2.396,0l4.463,11.852l4.578,-11.852l-2.665,0l0,-8.37l15.206,0l0,8.37l-3.381,0l-12.006,29.292l5.328,0l0,8.371l-19.245,0l0,-8.371l5.419,0l2.333,-6.017l-9.7,-23.275l-3.141,0l0,-8.37Z" style="fill-rule:nonzero;"/>        </g>        <g transform="matrix(1,0,0,1,0,-173.006)">            <path d="M353.787,300.368l6.942,6.805l-6.288,5.526l-5.472,-5.608l-0.06,0.021c-12.389,17.587 -39.932,-3.918 -18.507,-18.941c0.018,0 0.045,-0.018 0.082,-0.053l-0.518,-0.545c-1.124,-1.199 -1.991,-2.495 -2.6,-3.894c-0.608,-1.398 -0.911,-2.968 -0.911,-4.71c0,-1.487 0.3,-2.903 0.898,-4.247c0.599,-1.343 1.429,-2.526 2.491,-3.552c1.062,-1.024 2.304,-1.837 3.729,-2.435c1.426,-0.599 2.973,-0.901 4.642,-0.901c1.761,0 3.358,0.31 4.792,0.928c1.433,0.616 2.658,1.437 3.675,2.464c1.017,1.024 1.801,2.202 2.355,3.538c0.553,1.334 0.83,2.719 0.83,4.151c0,1.017 -0.132,1.996 -0.395,2.939c-0.263,0.945 -0.626,1.825 -1.088,2.642c-0.464,0.817 -1.005,1.563 -1.621,2.247c-0.616,0.678 -1.27,1.265 -1.96,1.755c-0.309,0.218 -0.607,0.43 -0.898,0.638c-0.29,0.209 -0.59,0.415 -0.898,0.613l4.464,4.41l0.258,0.175l5.66,-9.1l9.131,0l0,7.064l-4.264,0l-4.867,7.695l0.398,0.374Z" style="fill:rgb(35,31,32);fill-rule:nonzero;"/>        </g>        <g transform="matrix(1,0,0,1,0,-206.05)">            <path d="M340.229,315.471c0.581,-0.418 0.994,-0.912 1.239,-1.483c0.245,-0.573 0.368,-1.249 0.368,-2.029c0,-0.489 -0.096,-0.953 -0.286,-1.388c-0.19,-0.436 -0.454,-0.821 -0.79,-1.157c-0.336,-0.336 -0.721,-0.6 -1.157,-0.79c-0.435,-0.19 -0.898,-0.286 -1.388,-0.286c-0.581,0 -1.107,0.091 -1.579,0.272c-0.472,0.182 -0.881,0.437 -1.226,0.763c-0.344,0.326 -0.611,0.712 -0.802,1.156c-0.191,0.446 -0.286,0.922 -0.286,1.43c0,0.726 0.131,1.429 0.394,2.111c0.264,0.68 0.631,1.237 1.103,1.673l1.524,1.497c0.563,-0.308 1.09,-0.607 1.58,-0.898c0.49,-0.29 0.925,-0.58 1.306,-0.871" style="fill:white;fill-rule:nonzero;"/>        </g>        <g transform="matrix(1,0,0,1,0,-161.61)">            <path d="M335.959,282.323c-11.211,8.342 1.768,16.492 6.879,7.08l-6.879,-7.08Z" style="fill:white;fill-rule:nonzero;"/>        </g>        <g transform="matrix(1,0,0,1,0,-146.571)">            <path d="M394.777,274.704c-1.158,-1.502 -2.202,-2.567 -3.132,-3.195c-0.931,-0.627 -1.933,-1.078 -3.009,-1.35c-1.076,-0.273 -2.201,-0.41 -3.381,-0.41c-1.738,0 -3.35,0.353 -4.838,1.057c-1.489,0.703 -2.776,1.66 -3.862,2.87c-1.086,1.21 -1.938,2.618 -2.559,4.222c-0.619,1.604 -0.93,3.308 -0.93,5.109c0,1.82 0.305,3.532 0.916,5.136c0.608,1.604 1.452,3.006 2.528,4.208c1.074,1.201 2.357,2.152 3.845,2.856c1.488,0.704 3.122,1.056 4.9,1.056c1.242,0 2.398,-0.183 3.475,-0.549c1.074,-0.366 2.052,-0.849 2.93,-1.45c0.879,-0.6 1.648,-1.289 2.31,-2.069c0.661,-0.779 1.18,-1.59 1.552,-2.434l10.618,-0.042c0,0.962 -0.89,3.28 -1.036,3.627c-0.61,1.442 -1.417,2.793 -2.418,4.056c-1.239,1.566 -2.735,2.923 -4.482,4.068c-1.746,1.144 -3.711,2.043 -5.893,2.701c-2.182,0.657 -4.533,0.986 -7.056,0.986c-2.129,0 -4.167,-0.264 -6.111,-0.788c-1.943,-0.526 -3.758,-1.268 -5.442,-2.224c-1.685,-0.957 -3.215,-2.112 -4.591,-3.462c-1.376,-1.35 -2.548,-2.847 -3.52,-4.49c-0.972,-1.641 -1.727,-3.404 -2.265,-5.29c-0.538,-1.887 -0.806,-3.851 -0.806,-5.896c0,-3.059 0.59,-5.924 1.768,-8.599c1.181,-2.674 2.791,-5.01 4.839,-7.008c2.047,-1.998 4.451,-3.575 7.211,-4.729c2.76,-1.154 5.733,-1.729 8.917,-1.729c2.543,0 4.682,0.285 6.422,0.858c1.736,0.573 3.647,1.701 5.736,3.39l0,-4.248l6.947,0l0,13.762l-9.583,0Z" style="fill-rule:nonzero;"/>        </g>        <g transform="matrix(1,0,0,1,0,-110.558)">            <rect x="444.732" y="260.942" width="8.202" height="8.202"/>        </g>        <g opacity="0.85">            <g transform="matrix(0,-1,-1,0,754.573,517.459)">                <path d="M426.253,311.142c-9.487,0 -17.179,7.692 -17.179,17.179c0,9.486 7.692,17.178 17.179,17.178c9.487,0 17.177,-7.692 17.177,-17.178c0,-9.487 -7.69,-17.179 -17.177,-17.179" style="fill:rgb(0,51,0);fill-rule:nonzero;"/>            </g>        </g>        <g transform="matrix(0,-1,-1,0,704.372,567.66)">            <path d="M426.253,260.942c-9.487,0 -17.178,7.692 -17.178,17.179c0,9.486 7.691,17.178 17.178,17.178c9.487,0 17.177,-7.692 17.177,-17.178c0,-9.487 -7.69,-17.179 -17.177,-17.179" style="fill:rgb(60,23,83);fill-rule:nonzero;"/>        </g>        <g transform="matrix(26.476,0.1186,-0.1113,24.8465,420.625,99.9095)">            <path d="M0.016,-0.394l0.095,0c-0.008,-0.023 -0.015,-0.046 -0.022,-0.069c-0.006,-0.024 -0.009,-0.049 -0.009,-0.076c0,-0.025 0.004,-0.049 0.013,-0.07c0.009,-0.021 0.021,-0.039 0.037,-0.055c0.016,-0.015 0.035,-0.027 0.058,-0.035c0.022,-0.009 0.046,-0.013 0.073,-0.013c0.024,0 0.046,0.004 0.067,0.013c0.02,0.009 0.037,0.021 0.051,0.036c0.015,0.015 0.026,0.033 0.033,0.055c0.007,0.021 0.01,0.044 0.009,0.069l-0.081,0.005c0,-0.013 -0.002,-0.025 -0.006,-0.036c-0.003,-0.012 -0.008,-0.022 -0.015,-0.032c-0.006,-0.009 -0.014,-0.016 -0.024,-0.022c-0.009,-0.005 -0.02,-0.008 -0.033,-0.008c-0.014,0 -0.026,0.002 -0.037,0.006c-0.011,0.004 -0.02,0.01 -0.027,0.017c-0.007,0.007 -0.013,0.015 -0.017,0.025c-0.004,0.009 -0.007,0.019 -0.007,0.03c-0.001,0.008 -0.001,0.016 0,0.023c0,0.008 0.002,0.016 0.003,0.024c0.002,0.009 0.004,0.018 0.007,0.028c0.003,0.009 0.006,0.02 0.01,0.032c0.002,0.009 0.005,0.018 0.007,0.027c0.003,0.008 0.005,0.017 0.008,0.026l0.136,0l0,0.071l-0.114,0c0.005,0.014 0.009,0.027 0.012,0.04c0.003,0.012 0.006,0.024 0.009,0.034c0.003,0.012 0.004,0.026 0.002,0.041c-0.001,0.014 -0.005,0.029 -0.011,0.044c-0.005,0.015 -0.013,0.029 -0.023,0.043c-0.01,0.014 -0.023,0.026 -0.037,0.037l0.237,0l0,0.082l-0.39,0l0,-0.082l0.053,0c0.02,-0.011 0.036,-0.025 0.048,-0.041c0.012,-0.016 0.021,-0.033 0.026,-0.052c0.005,-0.018 0.006,-0.038 0.004,-0.06c-0.001,-0.021 -0.006,-0.043 -0.014,-0.065l-0.008,-0.021l-0.123,0l0,-0.071Z" style="fill:white;fill-rule:nonzero;"/>        </g>        <g transform="matrix(1,0,0,1,0,-144.762)">            <path d="M428.386,278.267c-0.778,0 -1.489,0.324 -2.056,0.845c1.312,0.636 2.161,1.957 2.161,3.722c0,1.235 -0.256,2.309 -1.029,3.02c0.295,0.099 0.602,0.17 0.924,0.17c1.843,0 3.339,-1.737 3.339,-3.879c0,-2.142 -1.496,-3.878 -3.339,-3.878" style="fill:white;fill-rule:nonzero;"/>        </g>        <g transform="matrix(1,0,0,1,0,-130.629)">            <path d="M426.75,272.709c4.109,0.674 5.637,2.614 6.059,5.127l3.044,0c0,-3.046 -3.342,-5.515 -7.467,-5.515c-1.319,0 -1.636,0.388 -1.636,0.388c0.216,-0.013 -0.217,-0.035 0,0" style="fill:white;fill-rule:nonzero;"/>        </g>        <g transform="matrix(0,-1,-1,0,705.575,562.191)">            <path d="M424.119,278.119c-2.142,0 -3.878,1.494 -3.878,3.34c0,1.843 1.736,3.335 3.878,3.335c2.141,0 3.878,-1.492 3.878,-3.335c0,-1.846 -1.737,-3.34 -3.878,-3.34" style="fill:white;fill-rule:nonzero;"/>        </g>        <g transform="matrix(1,0,0,1,0,-129.251)">            <path d="M416.651,277.148c0,-3.046 3.341,-5.516 7.466,-5.516c4.124,0 7.469,2.47 7.469,5.516l-14.935,0Z" style="fill:white;fill-rule:nonzero;"/>        </g>    </g></svg>