<?xml version="1.0" encoding="UTF-8" standalone="no"?><!DOCTYPE svg PUBLIC "-//W3C//DTD SVG 1.1//EN" "http://www.w3.org/Graphics/SVG/1.1/DTD/svg11.dtd"><svg width="100%" height="100%" viewBox="0 0 1024 512" version="1.1" xmlns="http://www.w3.org/2000/svg" xmlns:xlink="http://www.w3.org/1999/xlink" xml:space="preserve" style="fill-rule:evenodd;clip-rule:evenodd;stroke-linejoin:round;stroke-miterlimit:2;"><title>The House Crowd</title><desc>The House Crowd offers simple, transparent property investments that remove the uncertainties usually faced by small investors and enabling anybody to build a property based investment portfolio that delivers predictable, consistent returns.</desc>    <g id="Layer_1-2" transform="matrix(2.85308,0,0,2.85308,2,119.714)">        <path d="M0,68.27l81.47,-68.27c0,0 87.39,40.05 168,55.53c0,0 -41,2.73 -167.49,-36l-81.98,48.74Z" style="fill:rgb(32,54,105);fill-rule:nonzero;"/>        <path d="M41.21,95.52l-4.3,0c-0.77,0 -1.16,-0.36 -1.16,-1.09l0,-67.54c0,-0.73 0.39,-1.1 1.16,-1.1l4.3,0c0.77,0 1.16,0.37 1.16,1.1l0,39.11l0.27,0c1.087,-2.28 3.383,-3.42 6.89,-3.42l3,0c3.333,0 5.877,0.86 7.63,2.58c1.78,1.72 2.66,4.19 2.66,7.42l0,21.85c0,0.73 -0.4,1.09 -1.22,1.09l-4.3,0c-0.77,0 -1.16,-0.36 -1.16,-1.09l0,-21.56c0,-3.187 -1.667,-4.78 -5,-4.78l-3.14,0c-3.733,0 -5.597,1.83 -5.59,5.49l0,20.85c-0.04,0.73 -0.41,1.09 -1.2,1.09Z" style="fill:rgb(32,54,105);fill-rule:nonzero;"/>        <path d="M86.9,95.52l-6,0c-3.373,0 -5.977,-0.88 -7.81,-2.64c-1.913,-1.955 -2.916,-4.629 -2.76,-7.36l0,-12.91c0,-3.18 0.92,-5.65 2.76,-7.39c1.84,-1.74 4.44,-2.61 7.81,-2.61l6,0c3.31,0 5.92,0.87 7.8,2.61c1.88,1.74 2.83,4.21 2.83,7.39l0,12.91c0.157,2.744 -0.875,5.428 -2.83,7.36c-1.88,1.76 -4.49,2.64 -7.8,2.64Zm-5.05,-5.52l4.15,0c3.267,0 4.903,-1.573 4.91,-4.72l0,-12.48c0,-3.14 -1.637,-4.71 -4.91,-4.71l-4.15,0c-1.349,-0.122 -2.693,0.283 -3.75,1.13c-0.854,0.987 -1.273,2.279 -1.16,3.58l0,12.52c-0.112,1.304 0.306,2.599 1.16,3.59c1.062,0.833 2.407,1.223 3.75,1.09Z" style="fill:rgb(32,54,105);fill-rule:nonzero;"/>        <path d="M118.26,95.52l-3.06,0c-3.28,0 -5.793,-0.87 -7.54,-2.61c-1.75,-1.74 -2.63,-4.21 -2.63,-7.39l0,-21.82c0,-0.73 0.39,-1.09 1.16,-1.09l4.3,0c0.77,0 1.16,0.36 1.16,1.09l0,21.56c0,3.187 1.637,4.78 4.91,4.78l3.27,0c3.733,0 5.597,-1.83 5.59,-5.49l0,-20.85c0,-0.73 0.39,-1.09 1.16,-1.09l4.3,0c0.82,0 1.23,0.36 1.23,1.09l0,30.73c0,0.73 -0.41,1.09 -1.23,1.09l-4.3,0c-0.77,0 -1.16,-0.36 -1.16,-1.09l0,-2.33l-0.27,0c-1.087,2.28 -3.383,3.42 -6.89,3.42Z" style="fill:rgb(32,54,105);fill-rule:nonzero;"/>        <path d="M153,95.52l-12.51,0c-0.77,0 -1.16,-0.36 -1.16,-1.09l0,-3.17c0,-0.69 0.39,-1 1.16,-1l11.51,0c3,0 4.43,-1 4.43,-2.9l0,-0.78c0,-1.72 -1.067,-3.033 -3.2,-3.94l-7.43,-3.35c-1.918,-0.748 -3.644,-1.917 -5.05,-3.42c-1.098,-1.394 -1.656,-3.138 -1.57,-4.91c0,-5.553 3.25,-8.327 9.75,-8.32l11.27,0c0.031,-0.003 0.063,-0.004 0.094,-0.004c0.549,0 1,0.451 1,1c0,0.031 -0.001,0.063 -0.004,0.094l0,3.17c0.004,0.035 0.005,0.07 0.005,0.105c0,0.548 -0.451,1 -1,1c-0.031,0 -0.063,-0.002 -0.095,-0.005l-9.95,0c-1.089,-0.063 -2.175,0.172 -3.14,0.68c-0.663,0.329 -1.091,1 -1.11,1.74l0,0.71c0,1.37 1.16,2.58 3.48,3.61l7.5,3.61c1.933,0.671 3.626,1.895 4.87,3.52c0.949,1.585 1.412,3.414 1.33,5.26c0.013,5.6 -3.38,8.397 -10.18,8.39Z" style="fill:rgb(32,54,105);fill-rule:nonzero;"/>        <path d="M194.91,95.52l-14.73,0c-3.36,0 -6,-0.88 -7.81,-2.64c-1.913,-1.955 -2.916,-4.629 -2.76,-7.36l0,-12.91c0,-3.18 0.92,-5.65 2.76,-7.39c1.84,-1.74 4.45,-2.61 7.81,-2.61l5.59,0c3.37,0 6,0.87 7.85,2.61c1.85,1.74 2.79,4.21 2.79,7.39l0,8.2c0,0.77 -0.41,1.16 -1.23,1.16l-18.27,0c-0.5,0 -0.75,0.21 -0.75,0.64l0,2.78c0,3.14 1.667,4.71 5,4.71l13.77,0c0.82,0 1.23,0.39 1.23,1.16l0,3.23c-0.02,0.69 -0.43,1.03 -1.25,1.03Zm-18,-17.94l12.2,0c0.46,0 0.69,-0.21 0.69,-0.65l0,-4.13c0.113,-1.301 -0.306,-2.593 -1.16,-3.58c-1.058,-0.844 -2.402,-1.249 -3.75,-1.13l-3.75,0c-1.349,-0.122 -2.693,0.283 -3.75,1.13c-0.859,0.985 -1.278,2.279 -1.16,3.58l0,4.13c0,0.44 0.22,0.65 0.68,0.65Z" style="fill:rgb(32,54,105);fill-rule:nonzero;"/>        <path d="M224.16,93.33l0,1.48c0,0.48 -0.25,0.71 -0.75,0.71l-9.82,0c-2.565,0.146 -5.086,-0.736 -7,-2.45c-1.756,-1.777 -2.682,-4.215 -2.55,-6.71l0,-14.59c-0.135,-2.495 0.792,-4.934 2.55,-6.71c1.914,-1.714 4.435,-2.596 7,-2.45l9.82,0c0.5,0 0.75,0.23 0.75,0.71l0,1.55c0,0.43 -0.25,0.64 -0.75,0.64l-9.54,0c-1.756,-0.121 -3.486,0.487 -4.78,1.68c-1.15,1.289 -1.737,2.986 -1.63,4.71l0,14.33c-0.107,1.724 0.48,3.421 1.63,4.71c1.294,1.193 3.024,1.801 4.78,1.68l9.54,0c0.5,0 0.75,0.24 0.75,0.71Z" style="fill:rgb(32,54,105);fill-rule:nonzero;"/>        <path d="M234.26,95.52l-2,0c-0.46,0 -0.68,-0.26 -0.68,-0.77l0,-31.37c0,-0.52 0.22,-0.77 0.68,-0.77l2,0c0.029,-0.004 0.059,-0.006 0.088,-0.006c0.368,0 0.67,0.303 0.67,0.67c0,0.036 -0.002,0.071 -0.008,0.106l0,2.71l0.27,0c0.646,-1.037 1.567,-1.875 2.66,-2.42c1.45,-0.75 3.068,-1.116 4.7,-1.06l2.66,0c0.5,0 0.75,0.23 0.75,0.71l0,1.55c0,0.47 -0.25,0.68 -0.75,0.64l-3.2,0c-1.934,-0.112 -3.828,0.593 -5.22,1.94c-1.3,1.417 -1.978,3.299 -1.88,5.22l0,22.08c0.005,0.035 0.008,0.07 0.008,0.105c0,0.367 -0.302,0.67 -0.67,0.67c-0.026,0 -0.052,-0.002 -0.078,-0.005Z" style="fill:rgb(32,54,105);fill-rule:nonzero;"/>        <path d="M267.67,95.52l-5.86,0c-2.566,0.149 -5.087,-0.733 -7,-2.45c-1.762,-1.773 -2.693,-4.213 -2.56,-6.71l0,-14.59c-0.136,-2.497 0.795,-4.938 2.56,-6.71c1.913,-1.717 4.434,-2.599 7,-2.45l5.86,0c2.564,-0.136 5.081,0.745 7,2.45c1.781,1.763 2.724,4.207 2.59,6.71l0,14.59c0.133,2.502 -0.81,4.946 -2.59,6.71c-1.919,1.705 -4.436,2.586 -7,2.45Zm-5.59,-2.9l5.32,0c1.752,0.128 3.484,-0.457 4.8,-1.62c1.18,-1.261 1.785,-2.957 1.67,-4.68l0,-14.48c0.116,-1.723 -0.489,-3.42 -1.67,-4.68c-1.312,-1.174 -3.044,-1.77 -4.8,-1.65l-5.32,0c-1.75,-0.121 -3.477,0.475 -4.78,1.65c-1.156,1.273 -1.745,2.964 -1.63,4.68l0,14.45c-0.121,1.726 0.468,3.428 1.63,4.71c1.308,1.164 3.034,1.749 4.78,1.62Z" style="fill:rgb(32,54,105);fill-rule:nonzero;"/>        <path d="M296.24,95.52l-2.73,0c-0.444,0.003 -0.825,-0.33 -0.88,-0.77l-9.55,-31.37c-0.14,-0.52 0.05,-0.77 0.55,-0.77l2.18,0c0.024,-0.002 0.047,-0.003 0.071,-0.003c0.43,0 0.789,0.343 0.809,0.773l8.05,28.08l0.34,0l7.92,-28.08c0.04,-0.441 0.414,-0.782 0.856,-0.782c0.049,0 0.097,0.004 0.144,0.012l2,0c0.047,-0.008 0.095,-0.012 0.144,-0.012c0.442,0 0.816,0.341 0.856,0.782l7.77,28.08l0.23,0l8.12,-28.08c0.051,-0.443 0.434,-0.778 0.88,-0.77l2.19,0c0.54,0 0.72,0.25 0.54,0.77l-9.48,31.37c-0.071,0.461 -0.485,0.796 -0.95,0.77l-2.73,0c-0.465,0.026 -0.879,-0.309 -0.95,-0.77l-7.62,-27.24l-0.34,0l-7.5,27.24c-0.078,0.445 -0.469,0.772 -0.92,0.77Z" style="fill:rgb(32,54,105);fill-rule:nonzero;"/>        <path d="M346.63,95.52l-4.56,0c-2.532,0.142 -5.017,-0.742 -6.89,-2.45c-1.742,-1.785 -2.66,-4.219 -2.53,-6.71l0,-14.59c-0.131,-2.491 0.787,-4.926 2.53,-6.71c1.873,-1.708 4.358,-2.592 6.89,-2.45l4.56,0c3.5,0 5.887,1.117 7.16,3.35l0.28,0l0,-15c0,-0.51 0.22,-0.77 0.68,-0.77l2,0c0.029,-0.004 0.059,-0.006 0.088,-0.006c0.368,0 0.67,0.303 0.67,0.67c0,0.036 -0.002,0.071 -0.008,0.106l0,43.79c0.006,0.035 0.008,0.07 0.008,0.106c0,0.367 -0.302,0.67 -0.67,0.67c-0.029,0 -0.059,-0.002 -0.088,-0.006l-2,0c-0.46,0 -0.68,-0.26 -0.68,-0.77l0,-2.58l-0.28,0c-1.267,2.233 -3.653,3.35 -7.16,3.35Zm7.44,-9.23l0,-14.45c0.108,-1.762 -0.583,-3.482 -1.88,-4.68c-1.462,-1.18 -3.315,-1.769 -5.19,-1.65l-4.57,0c-1.753,-0.123 -3.481,0.485 -4.77,1.68c-1.154,1.287 -1.745,2.985 -1.64,4.71l0,14.33c-0.105,1.725 0.486,3.423 1.64,4.71c1.289,1.195 3.017,1.803 4.77,1.68l4.57,0c1.871,0.127 3.723,-0.451 5.19,-1.62c1.304,-1.205 1.996,-2.938 1.88,-4.71Z" style="fill:rgb(32,54,105);fill-rule:nonzero;"/>        <path d="M57,44.25l-1.33,0c-0.23,0 -0.34,-0.1 -0.34,-0.3l0,-0.86c0,-0.21 0.11,-0.32 0.34,-0.32l1.33,0c0.17,0 0.25,-0.07 0.25,-0.21l0,-2c0,-0.21 0.11,-0.32 0.34,-0.32l1.1,0c0.011,-0.001 0.021,-0.002 0.032,-0.002c0.159,0 0.29,0.131 0.29,0.29c0,0.011 -0.001,0.021 -0.002,0.032l0,2c0,0.14 0.08,0.21 0.26,0.21l2.59,0c0.25,0 0.37,0.11 0.37,0.32l0,0.91c0,0.2 -0.12,0.3 -0.37,0.3l-2.58,0c-0.18,0 -0.26,0.07 -0.26,0.21l0,6.65c0,1.31 0.71,2 2.14,2l1,0c0.24,0 0.36,0.11 0.36,0.32l0,0.86c0,0.2 -0.12,0.3 -0.36,0.3l-1.16,0c-0.976,0.05 -1.936,-0.268 -2.69,-0.89c-0.689,-0.638 -1.056,-1.553 -1,-2.49l0,-6.8c-0.05,-0.14 -0.13,-0.21 -0.31,-0.21Z" style="fill:rgb(32,54,105);fill-rule:nonzero;"/>        <path d="M66.51,54.56l-1.1,0c-0.014,0.002 -0.028,0.003 -0.042,0.003c-0.164,0 -0.3,-0.135 -0.3,-0.3c0,-0.011 0.001,-0.022 0.002,-0.033l0,-15.6c-0.001,-0.008 -0.001,-0.015 -0.001,-0.023c0,-0.164 0.136,-0.3 0.3,-0.3c0.014,0 0.027,0.001 0.041,0.003l1.1,0c0.23,0 0.35,0.11 0.35,0.32l0,5.37l0.14,0c0.511,-0.866 1.493,-1.347 2.49,-1.22l1.37,0c0.948,-0.058 1.882,0.266 2.59,0.9c0.649,0.673 0.986,1.587 0.93,2.52l0,8c0.001,0.011 0.002,0.022 0.002,0.033c0,0.165 -0.136,0.3 -0.3,0.3c-0.014,0 -0.028,-0.001 -0.042,-0.003l-1.1,0c-0.23,0 -0.34,-0.11 -0.34,-0.33l0,-8c0.009,-0.073 0.014,-0.147 0.014,-0.221c0,-0.987 -0.813,-1.8 -1.8,-1.8c-0.092,0 -0.183,0.007 -0.274,0.021l-1.41,0c-0.613,-0.044 -1.22,0.154 -1.69,0.55c-0.407,0.421 -0.618,0.995 -0.58,1.58l0,7.85c0,0.27 -0.12,0.38 -0.35,0.38Z" style="fill:rgb(32,54,105);fill-rule:nonzero;"/>        <path d="M86.13,54.56l-5.13,0c-0.966,0.056 -1.918,-0.267 -2.65,-0.9c-0.683,-0.655 -1.048,-1.575 -1,-2.52l0,-5c-0.048,-0.945 0.317,-1.865 1,-2.52c0.732,-0.633 1.684,-0.956 2.65,-0.9l2,0c0.963,-0.055 1.911,0.268 2.64,0.9c0.676,0.659 1.04,1.576 1,2.52l0,2.94c0.002,0.014 0.003,0.029 0.003,0.043c0,0.165 -0.135,0.3 -0.3,0.3c-0.014,0 -0.029,-0.001 -0.043,-0.003l-6.96,0c-0.17,0 -0.25,0.07 -0.25,0.21l0,1.41c-0.008,0.071 -0.013,0.142 -0.013,0.213c0,0.987 0.813,1.8 1.8,1.8c0.071,0 0.142,-0.005 0.213,-0.013l5,0c0.014,-0.002 0.028,-0.003 0.042,-0.003c0.164,0 0.3,0.135 0.3,0.3c0,0.011 -0.001,0.022 -0.002,0.033l0,0.83c0.04,0.26 -0.08,0.36 -0.3,0.36Zm-6.79,-6.31l5.27,0c0.16,0 0.25,-0.08 0.25,-0.23l0,-1.78c0.01,-0.077 0.015,-0.155 0.015,-0.233c0,-0.982 -0.808,-1.79 -1.79,-1.79c-0.095,0 -0.191,0.008 -0.285,0.023l-1.66,0c-0.074,-0.009 -0.149,-0.014 -0.224,-0.014c-0.982,0 -1.79,0.808 -1.79,1.79c0,0.075 0.005,0.15 0.014,0.224l0,1.76c-0.05,0.17 0.03,0.25 0.2,0.25Z" style="fill:rgb(32,54,105);fill-rule:nonzero;"/>    </g></svg>