<?xml version="1.0" encoding="UTF-8" standalone="no"?><!DOCTYPE svg PUBLIC "-//W3C//DTD SVG 1.1//EN" "http://www.w3.org/Graphics/SVG/1.1/DTD/svg11.dtd"><svg width="100%" height="100%" viewBox="0 0 1024 512" version="1.1" xmlns="http://www.w3.org/2000/svg" xmlns:xlink="http://www.w3.org/1999/xlink" xml:space="preserve" style="fill-rule:evenodd;clip-rule:evenodd;stroke-linejoin:round;stroke-miterlimit:2;"><title>Finsputnik Platforma</title><desc>Finsputnik is a provider of revolutionary b2b software that allows to operate the custom-made P2P lending software. Now any business that wants to own and operate a P2P lending platform can get such software designed specifically for their business needs. Finsputnik has proved itself as a frontrunner of developing custom-made P2P investment software solutions.</desc>    <g transform="matrix(1,0,0,1,46.5224,0.999102)">        <g transform="matrix(0.546917,0,0,0.546917,0.0146528,0.000406969)">            <path d="M965.1,464.2c-25.2,-48 -79.1,-71.3 -129.5,-59.7l0.2,1c0.3,1.6 -0.6,3.1 -2.2,3.6c-10.2,3.2 -20.8,6.3 -32.8,9.6c-48.9,29.8 -68.8,90.7 -47.5,143.4c0.8,-0.4 1.7,-0.9 2.5,-1.3c19.1,-9.4 36.2,-17.4 52.3,-24.6c21.2,-9.5 37.7,-16.4 53.6,-22.4c0.4,-0.1 0.7,-0.2 1.1,-0.2c1.2,0 2.3,0.6 2.8,1.7l0.8,1.5c0.7,1.4 0.3,3.2 -1,4.1c-13.9,9.7 -29,19.4 -48.9,31.4c-15.1,9.2 -31.5,18.7 -50,29c-0.8,0.5 -1.7,0.9 -2.5,1.4c31.2,47.6 92.8,65.8 145.1,42.4c9.5,-8 18,-14.9 26.4,-21.4c0.6,-0.4 1.3,-0.7 1.9,-0.7c0.8,0 1.6,0.3 2.3,0.9l0.7,0.7c38.3,-34.8 49.9,-92.3 24.7,-140.4Z" style="fill:rgb(22,44,79);fill-rule:nonzero;"/>        </g>        <g transform="matrix(0.546917,0,0,0.546917,0.0146528,0.000406969)">            <path d="M863.7,518.3c-15.9,11.1 -32.2,21.3 -48.7,31.3c-16.5,10 -33.1,19.6 -49.9,29c-16.8,9.4 -33.8,18.2 -51.1,26.7c-17.3,8.4 -34.6,16.8 -51.8,25.4l-51.6,25.8l-51.7,25.5l-51.8,25.3l-26.1,12.6l-26,12.6l-0.8,-1.5l25.1,-14.2l25.2,-14.1l50.3,-28.2l50.4,-28l50.6,-27.8c16.9,-9.2 33.6,-18.8 50.3,-28.2c16.8,-9.4 33.8,-18.4 51,-26.8c17.3,-8.5 34.6,-16.7 52.2,-24.6c17.6,-7.9 35.3,-15.5 53.4,-22.3l1,1.5Z" style="fill:rgb(22,44,79);fill-rule:nonzero;"/>        </g>        <g transform="matrix(0.546917,0,0,0.546917,0.0146528,0.000406969)">            <path d="M832.6,406.1c-18.5,5.9 -37.1,10.9 -55.8,15.5c-18.7,4.7 -37.4,9 -56.2,13c-18.8,4 -37.7,7.5 -56.7,10.4c-19,3 -38,5.8 -57,9l-56.9,9.4l-57,9.2l-57,8.9l-28.5,4.5l-28.5,4.3l-0.3,-1.7l28.2,-6.2l28.2,-6.1l56.4,-12.1l56.5,-11.9l56.5,-11.6c18.8,-3.9 37.6,-8 56.4,-12.1c18.8,-4 37.7,-7.6 56.7,-10.6c19,-3 38,-5.8 57.2,-8.1c19.1,-2.4 38.3,-4.4 57.6,-5.6l0.2,1.8Z" style="fill:rgb(22,44,79);fill-rule:nonzero;"/>        </g>        <g transform="matrix(0.546917,0,0,0.546917,0.0146528,0.000406969)">            <path d="M857.7,698.7c1.5,-1.5 3,-3 4.4,-4.6c3.6,-3.7 7.1,-7.5 10.6,-11.3l11.6,-12.4c5.7,-6.2 11.4,-12.4 17,-18.7c12.8,-14.4 25.4,-29 37.4,-44.2l-1.2,-1.2c-15.3,11.8 -30,24.3 -44.5,37c-14.5,12.7 -28.7,25.7 -42.7,38.9c-0.6,0.5 -1.1,1.1 -1.7,1.6l9.1,14.9Z" style="fill:rgb(22,44,79);fill-rule:nonzero;"/>        </g>        <g transform="matrix(0.546917,0,0,0.546917,0.0146528,0.000406969)">            <path d="M736.1,799.3l-6.6,6.8l-39.9,41.6l-39.8,41.8l-19.9,20.9l-19.8,20.9l1.2,1.2l21.1,-19.6l21,-19.8l42.1,-39.5l40.6,-38.3l0,-16Z" style="fill:rgb(22,44,79);fill-rule:nonzero;"/>        </g>        <g transform="matrix(0.546917,0,0,0.546917,0.0146528,0.000406969)">            <path d="M724.2,774.8l-54.7,0l0,57.6l-23.6,0l0,-136l86.4,0l0,19.1l-62.8,0l0,40.5l54.7,0l0,18.8Z" style="fill:rgb(22,44,79);fill-rule:nonzero;"/>            <rect x="752.4" y="696.5" width="23.5" height="136" style="fill:rgb(22,44,79);fill-rule:nonzero;"/>            <path d="M912.8,832.5l-23.6,0l-60.7,-96.5l0,96.5l-23.6,0l0,-136l23.6,0l60.8,96.9l0,-96.9l23.4,0l0,136l0.1,0Z" style="fill:rgb(22,44,79);fill-rule:nonzero;"/>            <path d="M1021.1,799c0,-7.5 -2.6,-13.5 -7.9,-17.9c-5.3,-4.4 -15,-8.6 -29.1,-12.5c-14.1,-4 -24.4,-8.3 -30.8,-12.9c-9.2,-6.6 -13.8,-15.3 -13.8,-26c0,-10.4 4.3,-18.9 12.8,-25.4c8.6,-6.5 19.5,-9.8 32.8,-9.8c9,0 17.1,1.7 24.2,5.2c7.1,3.5 12.7,8.3 16.6,14.6c3.9,6.2 5.9,13.2 5.9,20.8l-11.6,0c0,-9.3 -3.2,-16.8 -9.5,-22.4c-6.3,-5.6 -14.9,-8.5 -25.6,-8.5c-10.4,0 -18.7,2.3 -24.8,7c-6.2,4.6 -9.2,10.7 -9.2,18.2c0,6.9 2.8,12.6 8.3,16.9c5.5,4.4 14.4,8.2 26.6,11.6c12.2,3.3 21.5,6.8 27.7,10.4c6.3,3.6 11,7.9 14.2,12.8c3.2,5 4.8,10.9 4.8,17.7c0,10.7 -4.3,19.3 -12.8,25.8c-8.6,6.5 -19.9,9.7 -33.9,9.7c-9.6,0 -18.4,-1.7 -26.4,-5.1c-8,-3.4 -14.1,-8.2 -18.2,-14.4c-4.1,-6.2 -6.2,-13.2 -6.2,-21.2l11.5,0c0,9.6 3.6,17.2 10.7,22.7c7.2,5.5 16.7,8.3 28.6,8.3c10.6,0 19.1,-2.3 25.5,-7c6.4,-4.7 9.6,-10.9 9.6,-18.6Z" style="fill:rgb(22,44,79);fill-rule:nonzero;"/>            <path d="M1068.9,777.1l0,55.4l-11.5,0l0,-136l46.3,0c14.1,0 25.3,3.6 33.5,10.8c8.2,7.2 12.3,17.2 12.3,29.8c0,12.8 -3.9,22.6 -11.8,29.6c-7.9,6.9 -19.3,10.4 -34.2,10.4l-34.6,0Zm0,-9.7l34.8,0c11.1,0 19.6,-2.7 25.5,-8c5.9,-5.3 8.8,-12.7 8.8,-22.2c0,-9.4 -2.9,-16.9 -8.7,-22.5c-5.8,-5.6 -14.1,-8.4 -24.8,-8.6l-35.6,0l0,61.3Z" style="fill:rgb(22,44,79);fill-rule:nonzero;"/>            <path d="M1268.9,696.4l0,92.9c-0.1,9.2 -2.1,17.1 -6.1,23.9c-4,6.8 -9.6,12 -16.9,15.6c-7.3,3.6 -15.6,5.5 -25,5.5c-14.3,0 -25.8,-3.9 -34.4,-11.7c-8.6,-7.8 -13.1,-18.6 -13.4,-32.5l0,-93.7l11.4,0l0,92c0,11.5 3.3,20.4 9.8,26.7c6.5,6.3 15.4,9.5 26.6,9.5c11.2,0 20.1,-3.2 26.6,-9.5c6.5,-6.4 9.8,-15.2 9.8,-26.5l0,-92.1l11.6,0l0,-0.1Z" style="fill:rgb(22,44,79);fill-rule:nonzero;"/>            <path d="M1393.3,706.2l-46.6,0l0,126.3l-11.5,0l0,-126.3l-46.5,0l0,-9.7l104.6,0l0,9.7Z" style="fill:rgb(22,44,79);fill-rule:nonzero;"/>            <path d="M1516.5,832.5l-11.5,0l-78.2,-116.4l0,116.4l-11.6,0l0,-136l11.6,0l78.3,116.5l0,-116.6l11.4,0l0,136.1Z" style="fill:rgb(22,44,79);fill-rule:nonzero;"/>            <rect x="1553.6" y="696.5" width="11.5" height="136" style="fill:rgb(22,44,79);fill-rule:nonzero;"/>            <path d="M1632.6,764.9l-19.2,18.9l0,48.7l-11.4,0l0,-136l11.5,0l0,73.3l69.7,-73.3l14.5,0l-57,60.5l61.4,75.5l-14,0l-55.5,-67.6Z" style="fill:rgb(22,44,79);fill-rule:nonzero;"/>        </g>        <g transform="matrix(0.546917,0,0,0.546917,0.0146528,0.000406969)">            <path d="M1019.6,418.2c10,-7.2 19.8,-14.6 29.4,-22.4c9.6,-7.7 19,-15.7 28.1,-24c18.2,-16.5 35.1,-34.4 50.6,-53.3c15.5,-18.9 29.4,-39.1 41.2,-60.4c11.8,-21.3 21.4,-43.8 27.9,-67c6.5,-23.2 10.1,-47.3 8.5,-70.9c-0.8,-11.8 -2.9,-23.4 -7.1,-34c-2.1,-5.3 -4.5,-10.3 -7.7,-14.9c-3.2,-4.7 -6.8,-9 -10.9,-13c-8.1,-8 -17.8,-14.5 -28.3,-19.7c-10.5,-5.2 -21.7,-9.2 -33.2,-12.2c-23.1,-6 -47.2,-8.7 -71.4,-9.5c-24.2,-0.7 -48.6,0.4 -72.9,2.8c-24.3,2.5 -48.5,5.8 -72.6,10.2c-24.1,4.4 -48,9.7 -71.8,15.6c-23.8,5.9 -47.4,12.6 -70.9,19.8c-46.9,14.5 -93.2,31.4 -138.6,50.2c-45.4,18.8 -90.1,39.6 -133.8,62.2c-43.7,22.7 -86.3,47.3 -127.6,74c-41.3,26.7 -81.4,55.3 -119.6,86.3c-38.2,30.9 -74.7,64.1 -108.1,100.1c-16.7,18 -32.6,36.8 -47.4,56.3c-14.8,19.6 -28.4,40 -40.3,61.4c-11.8,21.4 -21.8,43.9 -28.6,67.3c-6.8,23.4 -10.3,47.9 -8.4,72.1c0.9,12.1 3.2,24.1 6.9,35.7c1.8,5.8 4,11.5 6.5,17c2.5,5.6 5.3,10.8 8.9,15.6c7.2,9.5 17,17 27.5,22.9c10.6,5.9 22.1,10.2 33.9,13.5c23.6,6.6 48.1,9.4 72.7,10.3c24.6,0.8 49.2,-0.4 73.7,-3.3c24.5,-2.8 48.7,-7.4 72.6,-13.5c23.8,-6.2 47.3,-14.2 69.5,-24.7l0.7,1.5c-22.3,10.8 -45.7,19 -69.6,25.5c-23.9,6.4 -48.2,11.2 -72.8,14.2c-24.6,3.1 -49.3,4.6 -74.1,3.9c-24.8,-0.7 -49.6,-3.3 -73.7,-9.8c-12,-3.3 -23.8,-7.6 -34.9,-13.6c-11,-6 -21.4,-13.7 -29.2,-23.9c-3.9,-5 -7,-10.8 -9.6,-16.4c-2.7,-5.7 -5,-11.5 -6.9,-17.5c-3.9,-11.9 -6.4,-24.3 -7.5,-36.8c-2.2,-25 1.2,-50.3 7.8,-74.3c6.7,-24.1 16.7,-47.1 28.4,-69c23.7,-43.9 54.2,-83.5 87.6,-120.2c33.5,-36.6 70,-70.4 108.3,-101.9c38.3,-31.5 78.4,-60.7 119.8,-87.9c41.4,-27.2 84.2,-52.4 128,-75.6c87.6,-46.2 178.9,-85.8 273.4,-116.2c23.6,-7.6 47.5,-14.6 71.5,-20.9c24.1,-6.2 48.3,-11.7 72.8,-16.3c48.9,-9.2 98.8,-14.9 149.1,-13.2c25.1,1 50.4,3.7 75,10.5c12.3,3.4 24.5,7.9 36,13.8c11.6,5.9 22.5,13.5 31.9,22.9c4.7,4.7 8.9,9.9 12.6,15.5c3.7,5.6 6.7,11.8 9,18c4.5,12.5 6.5,25.5 7.2,38.3c1.2,25.8 -3.2,51.1 -10.6,75.2c-7.5,24.1 -18.1,47 -30.9,68.6c-12.8,21.5 -27.6,41.7 -44,60.5c-16.4,18.8 -34.4,36 -53.4,52c-9.5,8 -19.3,15.6 -29.2,23c-10,7.3 -20.2,14.2 -30.7,20.9l-0.7,-1.3Z" style="fill:rgb(22,44,79);fill-rule:nonzero;"/>        </g>    </g></svg>