<?xml version="1.0" encoding="UTF-8" standalone="no"?><!DOCTYPE svg PUBLIC "-//W3C//DTD SVG 1.1//EN" "http://www.w3.org/Graphics/SVG/1.1/DTD/svg11.dtd"><svg width="100%" height="100%" viewBox="0 0 1024 512" version="1.1" xmlns="http://www.w3.org/2000/svg" xmlns:xlink="http://www.w3.org/1999/xlink" xml:space="preserve"  style="fill-rule:evenodd;clip-rule:evenodd;stroke-linejoin:round;stroke-miterlimit:2;"><title>Assetz Exchange</title><desc>Assetz Exchange is a p2p crowdlending platform founded in 2014 that allow everyday investors invest in UK properties backed loans paying zero fees</desc>    <g transform="matrix(5.48682,0,0,5.48682,2,30.2173)">        <g>            <path d="M24.9,46.7l3.9,0c-0,-15.6 12.8,-28.2 28.4,-28.2l-0,-3.9c-18,-0 -32.3,14.5 -32.3,32.1Zm14.4,0l3.9,0c-0,-8 6.4,-13.8 14,-13.8l-0,-3.9c-10.1,-0 -17.9,7.7 -17.9,17.7Zm-7.1,-1.8l0,1.8l3.7,-0c0,-11.8 9.5,-21 21.3,-21l0,-3.9c-13.5,-0 -23.9,10.2 -25,23.1Z" style="fill:rgb(30,18,79);fill-rule:nonzero;"/>            <path d="M11.1,29.2l0,3.9c7.6,0 13.8,6.4 13.8,13.6l3.9,0c-0.1,-9.3 -7.7,-17.5 -17.7,-17.5Z" style="fill:rgb(30,18,79);fill-rule:nonzero;"/>            <path d="M11.1,22l0,3.9c11.4,0 21.1,9.5 21.1,21.1l0,20.9l3.8,0l0,-20.9c0.1,-13.8 -11,-25 -24.9,-25Z" style="fill:rgb(30,18,79);fill-rule:nonzero;"/>            <path d="M11.1,14.8l0,3.9c15.3,0 28.2,12.5 28.2,28.1l3.9,0c0,-17.7 -14.4,-32 -32.1,-32Z" style="fill:rgb(30,18,79);fill-rule:nonzero;"/>            <path d="M0,7.2l0,67.9l68.3,-0l0,-67.9l-68.3,-0Zm3.8,3.8l60.7,-0l0,60.3l-60.7,-0l0,-60.3Z" style="fill:rgb(30,18,79);fill-rule:nonzero;"/>        </g>        <g>            <path d="M155.2,29.6c-0.5,3.1 -1.5,3.9 -5.1,3.9l-3.7,0c3.1,-4.7 6.3,-9.5 9.5,-14.2l-0.3,-0.5l-12.7,0l-0,5l1.1,0c0.4,-2.9 1.1,-3.8 4.6,-3.8l3.4,0c-3,4.5 -6.3,9.5 -9.7,14.2l0.3,0.5l13.2,0l0.6,-5.1l-1.2,0Z" style="fill:rgb(30,18,79);fill-rule:nonzero;"/>            <path d="M102.2,28c-0.5,-0.7 -1.4,-1.4 -2.7,-2.1l-2,-1.1c-0.7,-0.4 -1.3,-0.8 -1.9,-1.3c-0.6,-0.5 -0.9,-1.1 -0.9,-1.9c0,-0.7 0.2,-1.2 0.8,-1.7c0.6,-0.5 1.2,-0.7 1.9,-0.7c1.1,0 1.9,0.2 2.4,0.7c0.5,0.5 0.9,1.3 1.1,2.4l1.1,0l0,-3.2c-1.8,-0.6 -3.4,-0.9 -4.5,-0.9c-1.6,0 -2.9,0.4 -3.8,1.1c-0.9,0.8 -1.4,1.8 -1.4,3c0,0.8 0.3,1.6 0.9,2.4c0.6,0.7 1.4,1.4 2.5,2l2,1.1c1,0.6 1.7,1.1 2.2,1.5c0.5,0.5 0.7,1 0.7,1.5c0,0.9 -0.3,1.6 -1,2.2c-0.7,0.6 -1.5,0.9 -2.5,0.9c-2.3,0 -3.6,-1.3 -4,-4.1l-1.1,0l0.3,3.9c1.1,0.7 2.8,1 4.8,1c1.8,0 3.2,-0.4 4.3,-1.2c1.1,-0.8 1.7,-2 1.7,-3.4c-0.1,-0.7 -0.3,-1.5 -0.9,-2.1Z" style="fill:rgb(30,18,79);fill-rule:nonzero;"/>            <path d="M114.8,28c-0.5,-0.7 -1.4,-1.4 -2.7,-2.1l-2,-1.1c-0.7,-0.4 -1.3,-0.8 -1.9,-1.3c-0.6,-0.5 -0.9,-1.1 -0.9,-1.9c0,-0.7 0.2,-1.2 0.8,-1.7c0.6,-0.5 1.2,-0.7 1.9,-0.7c1.1,0 1.9,0.2 2.4,0.7c0.5,0.5 0.9,1.3 1.1,2.4l1.1,0l0,-3.2c-1.9,-0.6 -3.4,-0.9 -4.5,-0.9c-1.6,0 -2.9,0.4 -3.8,1.1c-0.9,0.8 -1.4,1.8 -1.4,3c0,0.8 0.3,1.6 0.9,2.4c0.6,0.7 1.4,1.4 2.5,2l2,1.1c1,0.6 1.7,1.1 2.2,1.5c0.5,0.5 0.7,1 0.7,1.5c0,0.9 -0.3,1.6 -1,2.2c-0.7,0.6 -1.5,0.9 -2.5,0.9c-2.3,0 -3.6,-1.3 -4,-4.1l-1.1,0l0.3,3.9c1.1,0.7 2.8,1 4.8,1c1.8,0 3.2,-0.4 4.3,-1.2c1.1,-0.8 1.7,-2 1.7,-3.4c-0.1,-0.7 -0.4,-1.5 -0.9,-2.1Z" style="fill:rgb(30,18,79);fill-rule:nonzero;"/>            <path d="M140.6,32.8c-0.8,0.3 -1.3,0.4 -2.1,0.4c-1.1,0 -2.1,-0.8 -2.1,-3.2l0,-9.8l4.1,0l0,-1.4l-4.1,0l0,-4.1l-5.5,5.5l2.3,0l0,11.1c0,3.3 2.5,3.7 3.7,3.7c1.6,0 2.9,-0.7 4,-1.4l-0.3,-0.8Z" style="fill:rgb(30,18,79);fill-rule:nonzero;"/>            <path d="M130.6,32.1c-2.1,1.2 -5,1.7 -7.3,0.7c-2.6,-1.2 -3.2,-4.1 -3.1,-6.6l10.4,0c0,-3.9 -1.6,-7.7 -5.9,-7.9c-4,-0.2 -7.1,2.2 -7.8,6.2c-0.7,4.1 0.9,8.5 5,10c2.1,0.8 4.6,0.5 6.7,-0.2c0.5,-0.2 1.5,-0.4 1.8,-0.9c0,-0.1 0.1,-0.2 0.1,-0.3l0,-0.9c0.1,0 0.1,0 0.1,-0.1Zm-6.6,-12.6c1.6,0 2.7,1 3.1,2.5c0.3,1.1 0.6,2.7 -0.9,2.8c-2,0.2 -4,0 -6,0c0,-2.2 1,-5.3 3.8,-5.3Z" style="fill:rgb(30,18,79);fill-rule:nonzero;"/>            <path d="M91.2,33.2l-0.1,0c-0.5,0.1 -2.4,0.3 -2.4,-2.5l0,-8.1c0,0 0.1,-4.1 -4.7,-4.2c-4.8,0 -5.9,2.5 -5.9,2.5c-0.2,0.4 -0.3,0.8 -0.4,1.3c-0.1,0.6 -0.1,1.3 -0.1,1.4l2.9,-1c0,-0.2 0,-0.5 0.1,-0.7c0.2,-0.9 0.7,-1.8 1.9,-2.1c0.3,-0.1 0.6,-0.1 0.8,-0.1c1.4,0 2.6,0.8 2.6,3.3l0,1.1c-0.7,0.9 -3.7,1.7 -6.1,2.5c-2.2,0.7 -2.8,2.4 -2.8,4c0,2.4 1.5,4.6 4.4,4.6c0.9,0 1.7,-0.3 2.5,-0.7c0.7,-0.4 1.5,-1 2.2,-1.9c0,0.1 0.2,2.5 2.3,2.5l0.1,0c0.5,0 1,-0.1 1.6,-0.4c0.4,-0.1 0.7,-0.3 1,-0.5l0.1,-1Zm-5.1,-3.9c0,1.3 -0.4,2.3 -1.1,3.1c-0.8,0.8 -1.6,1.2 -2.7,1.2c-0.7,-0 -1.3,-0.2 -1.7,-0.8c-0.5,-0.5 -0.7,-1.2 -0.7,-1.9c0,-1 0.3,-1.7 0.8,-2.3c0.6,-0.6 1.6,-1.1 3,-1.6l2.4,-0.8l0,3.1Z" style="fill:rgb(30,18,79);fill-rule:nonzero;"/>        </g>        <g>            <path d="M88.7,59.7c-0.5,0.5 -2.1,1.7 -4.9,1.7c-4.1,0 -6.7,-2.3 -6.7,-7.6c0,-4.8 2.4,-7.5 6.4,-7.5c5,0 6,4 6,6.1c0,0.9 0,2 -1.2,2l-9.1,0c0,3.1 1.8,5.1 4.7,5.1c1.8,0 2.9,-0.7 3.7,-1.3l1.1,1.5Zm-5.2,-11.5c-2.7,-0 -4.2,1.7 -4.4,4.5l8.4,-0c0,-2.2 -0.7,-4.5 -4,-4.5Z" style="fill:rgb(30,18,79);fill-rule:nonzero;"/>            <path d="M92.2,46.7l4,5.5l4,-5.5l1.6,1.2l-4.4,5.9l4.5,6.2l-1.6,1.2l-4.1,-5.8l-4.1,5.8l-1.7,-1.2l4.5,-6.2l-4.4,-5.9l1.7,-1.2Z" style="fill:rgb(30,18,79);fill-rule:nonzero;"/>            <path d="M114,59.8c-0.7,0.6 -2.2,1.7 -4.7,1.7c-4,-0 -6.4,-2.4 -6.4,-7.6c0,-5.2 2.4,-7.5 6.4,-7.5c2.8,-0 4.3,1.5 4.8,2.2l-1.4,1.1c-0.5,-0.5 -1.3,-1.5 -3.4,-1.5c-2.9,-0 -4.4,1.8 -4.4,5.7c0,3.9 1.5,5.7 4.4,5.7c1.8,-0 2.9,-0.8 3.6,-1.3l1.1,1.5Z" style="fill:rgb(30,18,79);fill-rule:nonzero;"/>            <path d="M118.4,38.7l0,9.9c0.6,-1.2 2.1,-2.2 4.1,-2.2c4.8,0 5.7,2.9 5.7,5.5l0,9.3l-2,0l0,-8.9c0,-2.5 -0.7,-4.2 -3.7,-4.2c-3.1,0 -4.1,1.9 -4.1,4.4l0,8.7l-2,0l0,-22.5l2,0Z" style="fill:rgb(30,18,79);fill-rule:nonzero;"/>            <path d="M131.3,48.9c0.9,-1.4 2.5,-2.5 5.2,-2.5c3.6,0 5.6,2.1 5.6,5.3l0,9.8l-1.9,0l0,-2.2c-0.8,1.5 -2.6,2.2 -4.4,2.2c-3.3,0 -5.4,-1.6 -5.4,-4.5c0,-2.7 2.1,-4.4 5.5,-4.4l4.4,0l0,-0.8c0,-2.1 -1.4,-3.4 -3.7,-3.4c-1.6,0 -2.6,0.5 -3.6,1.6l-1.7,-1.1Zm8.9,6.7l-0,-1.3l-4.4,-0c-2,-0 -3.4,0.8 -3.4,2.7c-0,1.6 1.1,2.7 3.6,2.7c2.1,-0.1 4.2,-1.4 4.2,-4.1Z" style="fill:rgb(30,18,79);fill-rule:nonzero;"/>            <path d="M154.9,61.2l0,-8.9c0,-2.5 -0.7,-4.2 -3.7,-4.2c-3.1,0 -4.1,1.9 -4.1,4.4l0,8.7l-2,0l0,-14.7l2,0l0,2.1c0.6,-1.2 2.1,-2.2 4.1,-2.2c4.8,0 5.7,2.9 5.7,5.5l0,9.3l-2,0Z" style="fill:rgb(30,18,79);fill-rule:nonzero;"/>            <path d="M161.5,64c0.7,0.7 1.7,1.5 3.7,1.5c2.5,0 4.4,-1.3 4.4,-4.1l0,-1.8c-0.7,1 -2.2,1.9 -4.2,1.9c-4.1,0 -6.5,-2.4 -6.5,-7.5c0,-5.1 2.4,-7.6 6.5,-7.6c3.6,0 6.2,2.1 6.2,6.2l0,8.7c0,4.3 -2.9,6 -6.4,6c-2.4,-0 -4.2,-0.9 -5.2,-2.2l1.5,-1.1Zm8.1,-11.4c0,-3 -1.9,-4.4 -4.2,-4.4c-2.9,-0 -4.4,1.8 -4.4,5.7c0,3.9 1.6,5.7 4.4,5.7c2.9,-0 4.2,-2.5 4.2,-2.5l0,-4.5Z" style="fill:rgb(30,18,79);fill-rule:nonzero;"/>            <path d="M185.1,59.7c-0.5,0.5 -2.1,1.7 -4.9,1.7c-4.1,0 -6.7,-2.3 -6.7,-7.6c0,-4.8 2.4,-7.5 6.4,-7.5c5,0 6,4 6,6.1c0,0.9 0,2 -1.2,2l-9.1,0c0,3.1 1.8,5.1 4.7,5.1c1.8,0 2.9,-0.7 3.7,-1.3l1.1,1.5Zm-5.1,-11.5c-2.7,-0 -4.2,1.7 -4.4,4.5l8.4,-0c0,-2.2 -0.8,-4.5 -4,-4.5Z" style="fill:rgb(30,18,79);fill-rule:nonzero;"/>        </g>    </g></svg>