<?xml version="1.0" encoding="UTF-8" standalone="no"?><!DOCTYPE svg PUBLIC "-//W3C//DTD SVG 1.1//EN" "http://www.w3.org/Graphics/SVG/1.1/DTD/svg11.dtd"><svg width="100%" height="100%" viewBox="0 0 1024 512" version="1.1" xmlns="http://www.w3.org/2000/svg" xmlns:xlink="http://www.w3.org/1999/xlink" xml:space="preserve" style="fill-rule:evenodd;clip-rule:evenodd;stroke-linejoin:round;stroke-miterlimit:2;"><title>Creditter</title><desc>The company issues short-term loans of up to 400 EUR with a maturity of up to 30 days. Launched in 2014, Creditter experienced exponential growth, and has reported to have over a million returning customers. In 2019, Creditter entered the TOP-3 of the most visited sites among online lenders in Russia. The company has plans to expand its activities in European countries.</desc>    <g transform="matrix(1,0,0,1,-12.1,100.617)">        <g transform="matrix(0.740257,0,0,0.740257,3.66238,3.6364)">            <path d="M121.1,284.2c7.2,-7.5 12.1,-16.8 13.8,-26.4l17.5,-99.4c0,0 5.5,-34.5 30.2,-66.1c-81.8,24.2 -84.2,125 -80.6,79.6c10.2,-127.3 115.7,-142.4 220.6,-129.4c-1.4,-0.6 -5.4,-2.6 -14.8,-6.2c-18.5,-7.2 -47.4,-15.1 -78.3,-19.2c-94.2,-9.8 -157.5,34.4 -177.3,141.2l-20.5,114.2l39,64.3c3.3,-3.5 48.2,-50.3 50.4,-52.6Z" style="fill:rgb(23,35,59);fill-rule:nonzero;"/>            <path d="M378.2,14l-61.6,64.3l-30.9,173.3c0,0 -17.4,109.1 -129.6,117.1c53.4,-16.9 93.5,-52.7 104.9,-117.1l20.6,-114.2c-34.8,-57.4 -26.3,-43.4 -39,-64.3c-4.4,4.6 -33.8,35.2 -50.5,52.7c-7.2,7.5 -12.1,16.8 -13.8,26.4l-17.5,99.4c0,0 -5.5,34.5 -30.2,66.1c44,-13 68.9,-47.9 81.7,-91.4c-1.1,3.6 -0.6,8.1 -1.1,11.8c-13.3,104.7 -93,142.3 -197.1,129.4c1.4,0.7 121,70.6 282.3,-11.2c43.6,-21.4 81.5,-59.3 89.5,-104.7l28.1,-155.1c2.1,-11.8 -0.1,-23.9 -6.3,-34.1l-29.5,-48.4Z" style="fill:rgb(255,78,44);fill-rule:nonzero;"/>        </g>        <g transform="matrix(0.740257,0,0,0.740257,3.66238,45.3499)">            <path d="M877.2,191.7c15.6,0 20.3,-19.7 20.3,-32.2c0,-8.7 -4.1,-16 -13.8,-16c-16,0 -20.9,18.5 -20.9,31.6c0,11.1 5,16.6 14.4,16.6Z" style="fill:none;fill-rule:nonzero;"/>            <path d="M740.7,156.6l35.5,0l0,-2.2c0,-19.3 -29,-21.1 -35.5,2.2Z" style="fill:none;fill-rule:nonzero;"/>            <path d="M1215.5,156.6l35.5,0l0,-2.2c0,-19.3 -29.1,-21.1 -35.5,2.2Z" style="fill:none;fill-rule:nonzero;"/>            <path d="M545.3,75.2c-48.3,0 -76.3,36.5 -76.3,84c0,40 22.5,62.9 61.9,62.9c36.5,0 62.9,-19.1 70,-56.6l-42.6,0c-3.5,15 -11.8,22.7 -24.3,22.7c-14.2,0 -22.3,-10.7 -22.3,-29.6c0,-19.3 8.3,-49.1 32.2,-49.1c13.8,0 19.1,8.3 19.5,21.1l41.2,0c0.2,-1.6 0.2,-2.8 0.2,-3.6c0.1,-31.5 -23.2,-51.8 -59.5,-51.8Z" style="fill:rgb(23,35,59);fill-rule:nonzero;"/>            <path d="M654.4,173.6c3.3,-16 10.6,-26.2 29.2,-26.2c4.9,0 9.1,0.8 14.6,2.6l7.3,-34.3c-21.8,-4.7 -33.2,2.1 -44.2,17.2l3.6,-15.8l-37.3,0l-21.6,101.7l38.7,0l9.7,-45.2Z" style="fill:rgb(23,35,59);fill-rule:nonzero;"/>            <path d="M761.7,114.4c-35.9,0 -60.6,24.5 -60.6,60.4c0,33.9 21.5,46.9 51.5,46.9c24.7,0 46.5,-8.1 54.2,-32.9l-37.9,0c-2.6,5.3 -7.3,7.9 -14.4,7.9c-11.2,0 -17.2,-5.9 -17.2,-17c0,-0.8 0,-1.4 0.2,-2.8l73.6,0c7.5,-40.5 -13.3,-62.5 -49.4,-62.5Zm14.5,42.2l-35.5,0c3,-10.7 10.5,-17 20.3,-17c9.3,0 15.2,5.9 15.2,14.8l0,2.2Z" style="fill:rgb(23,35,59);fill-rule:nonzero;"/>            <path d="M860.8,221.3c12.6,0 21.3,-4.3 28,-14.2c-1.3,5.4 -0.7,2.6 -2.2,11.6l37.4,0l29.8,-140.4l-38.9,0l-10.8,51.1c-6.1,-10.3 -15.8,-15.2 -29.6,-15.2c-34.7,0 -50.9,33.3 -50.9,64.3c0,25.3 11.4,42.8 37.2,42.8Zm22.9,-77.7c9.7,0 13.8,7.3 13.8,16c0,12.4 -4.7,32.2 -20.3,32.2c-9.5,0 -14.4,-5.5 -14.4,-16.6c0,-13 5,-31.6 20.9,-31.6Z" style="fill:rgb(23,35,59);fill-rule:nonzero;"/>            <path d="M1015.7,78.3l-39.1,0l-5.7,27.2l39.1,0l5.7,-27.2Z" style="fill:rgb(23,35,59);fill-rule:nonzero;"/>            <path d="M985.9,218.8l21.5,-101.8l-38.9,0l-21.7,101.8l39.1,0Z" style="fill:rgb(23,35,59);fill-rule:nonzero;"/>            <path d="M1030.3,141.2c-10.7,49.6 -11,49.9 -11,55.4c0,20.1 17.7,23.7 33.9,23.7c11,0 14.4,-0.2 22.7,-1.6l5.9,-27.6c-3.6,0.4 -7.1,0.4 -10.7,0.4c-5.7,0 -10.8,-0.2 -10.8,-7.1c0,-2.5 1.1,-6.6 9.3,-43.2l41,0l-7.7,35.7c-3.5,15.8 -12.7,43.4 30.6,43.4c11,0 14.4,-0.2 22.7,-1.6l5.9,-27.6c-3.5,0.4 -7.1,0.4 -10.6,0.4c-11.9,0 -12.4,-3.7 -9.1,-17l7.5,-33.3l20.9,0l5.5,-24.3l-20.9,0l6.7,-31.2l-38.9,0l-7.1,31.2l-41,0l6.7,-31.2l-38.9,0l-7.1,31.2l-17,0l-5.5,24.3l17,0Z" style="fill:rgb(23,35,59);fill-rule:nonzero;"/>            <path d="M1236.4,114.4c-35.9,0 -60.6,24.5 -60.6,60.4c0,33.9 21.5,46.9 51.5,46.9c24.7,0 46.5,-8.1 54.2,-32.9l-37.9,0c-2.6,5.3 -7.3,7.9 -14.4,7.9c-11.2,0 -17.2,-5.9 -17.2,-17c0,-0.8 0,-1.4 0.2,-2.8l73.6,0c7.6,-40.5 -13.3,-62.5 -49.4,-62.5Zm14.6,42.2l-35.5,0c3,-10.7 10.5,-17 20.3,-17c9.3,0 15.2,5.9 15.2,14.8l0,2.2Z" style="fill:rgb(23,35,59);fill-rule:nonzero;"/>            <path d="M1340.9,173.6c3.3,-16 10.6,-26.2 29.2,-26.2c4.9,0 9.1,0.8 14.6,2.6l7.3,-34.3c-21.8,-4.7 -33.2,2.1 -44.2,17.2l3.6,-15.8l-37.3,0l-21.5,101.8l38.7,0l9.6,-45.3Z" style="fill:rgb(23,35,59);fill-rule:nonzero;"/>        </g>    </g></svg>