<?xml version="1.0" encoding="UTF-8" standalone="no"?><!DOCTYPE svg PUBLIC "-//W3C//DTD SVG 1.1//EN" "http://www.w3.org/Graphics/SVG/1.1/DTD/svg11.dtd"><svg width="100%" height="100%" viewBox="0 0 1024 512" version="1.1" xmlns="http://www.w3.org/2000/svg" xmlns:xlink="http://www.w3.org/1999/xlink" xml:space="preserve" style="fill-rule:evenodd;clip-rule:evenodd;stroke-linejoin:round;stroke-miterlimit:2;"><title>Trine</title><desc>We make it easy for people to invest in solar energy in growing markets. Our mission is to give people a triple return on investment - earn a profit while making social and environmental impact.</desc>    <g transform="matrix(1.61112,0,0,1.61112,2.00164,78.2499)">        <g>            <path d="M344.1,139.2c-0.2,-0.4 -0.6,-0.7 -1,-0.8c-0.4,-0.1 -0.9,-0.1 -1.3,0.2c-5.3,3.2 -10.9,3.8 -15,1.5c-3.9,-2.2 -6,-6.5 -6,-12.3l0,-21.1l19.4,0c0.9,0 1.6,-0.7 1.6,-1.6l0,-8.1c0,-0.9 -0.7,-1.6 -1.6,-1.6l-19.4,0l0,-16.7c0,-0.9 -0.7,-1.6 -1.6,-1.6l-9,0c-0.9,0 -1.6,0.7 -1.6,1.6l0,16.7l-10.6,0c-0.9,0 -1.6,0.7 -1.6,1.6l0,8.1c0,0.9 0.7,1.6 1.6,1.6l10.6,0l0,23c0,15 11.3,23.2 22,23.2c6.6,0 12,-1.7 16.3,-5.2c0.6,-0.5 0.7,-1.3 0.4,-1.9l-3.2,-6.6Z" style="fill:rgb(84,50,79);fill-rule:nonzero;"/>            <path d="M402.4,94.5c-7.6,0 -14.7,3.7 -17.7,10.2l0,-7.7c0,-0.9 -0.7,-1.6 -1.6,-1.6l-9,0c-0.9,0 -1.6,0.7 -1.6,1.6l0,53.3c0,0.9 0.7,1.6 1.6,1.6l9,0c0.9,0 1.6,-0.7 1.6,-1.6l0,-20.9c0,-11.8 5.5,-23.7 15.9,-23.7c4.1,0 7,1.6 9.3,5.2c0.5,0.7 1.4,0.9 2.1,0.5l8,-4.9c0.7,-0.4 1,-1.4 0.5,-2.1c-3.5,-6.4 -10,-9.9 -18.1,-9.9Z" style="fill:rgb(84,50,79);fill-rule:nonzero;"/>            <path d="M483,140.7l-14.8,0l0,-43.7c0,-0.9 -0.7,-1.6 -1.6,-1.6l-21.2,0c-0.9,0 -1.6,0.7 -1.6,1.6l0,8.1c0,0.9 0.7,1.6 1.6,1.6l10.6,0l0,34l-14.8,0c-0.9,0 -1.6,0.7 -1.6,1.6l0,8.1c0,0.9 0.7,1.6 1.6,1.6l41.8,0c0.9,0 1.6,-0.7 1.6,-1.6l0,-8.1c0,-0.9 -0.8,-1.6 -1.6,-1.6Z" style="fill:rgb(84,50,79);fill-rule:nonzero;"/>            <path d="M536.1,94.5c-8.4,0 -12.9,4.9 -14.8,7.9l0,-5.4c0,-0.9 -0.7,-1.6 -1.6,-1.6l-9,0c-0.9,0 -1.6,0.7 -1.6,1.6l0,53.3c0,0.9 0.7,1.6 1.6,1.6l9,0c0.9,0 1.6,-0.7 1.6,-1.6l0,-27.6c0,-8.5 4.4,-17 12.7,-17c8.1,0 11.7,4.8 11.7,15.6l0,29.1c0,0.9 0.7,1.6 1.6,1.6l9,0c0.9,0 1.6,-0.7 1.6,-1.6l0,-29.1c0,-17.3 -7.7,-26.8 -21.8,-26.8Z" style="fill:rgb(84,50,79);fill-rule:nonzero;"/>            <path d="M607.5,94.5c-15.9,0 -27,12 -27,29.2c0,16.6 12.1,29.2 28.2,29.2c7.9,0 14.8,-2.8 19.6,-8c0.3,-0.3 0.4,-0.7 0.4,-1.2c0,-0.4 -0.2,-0.8 -0.6,-1.1l-6.3,-5.2c-0.6,-0.5 -1.5,-0.5 -2.1,0.1c-2.1,2 -5,4.1 -11,4.1c-7.5,0 -13.5,-5 -15.5,-12.8l38,0c0.8,0 1.4,-0.6 1.6,-1.3c0.2,-1.3 0.3,-2.7 0.3,-4.5c0,-8.3 -2.6,-15.5 -7.4,-20.7c-4.7,-5 -11.1,-7.8 -18.2,-7.8Zm0,11.2c7,0 12.3,4.9 12.9,11.9l-26.9,0c1.8,-7.4 7.1,-11.9 14,-11.9Z" style="fill:rgb(84,50,79);fill-rule:nonzero;"/>            <circle cx="460.1" cy="78.7" r="8" style="fill:rgb(84,50,79);"/>        </g>        <g>            <path d="M209.1,59.4c-6.2,-34.3 -48.9,-38.9 -101,-7.8c-38.2,22.7 -67.9,53.7 -65.5,81.1c2.9,32.6 28.6,47.7 56.1,53.9c30.1,6.7 68,3.2 94.4,-14.4c30.2,-20.4 24.8,-63.4 16,-112.8Zm-7.8,74.4c-7.9,19.6 -47.2,47.7 -93.3,39.4c-33.9,-6.1 -28,-43.5 -10.2,-72.1c23.5,-37.8 45.7,-50.4 64.6,-46.1c21.8,4.9 47.2,57.8 38.9,78.8Z" style="fill:rgb(84,50,79);fill-rule:nonzero;"/>            <path d="M141.3,83.8c-23.8,-3.8 -36.3,32.5 -35.5,55.5c1.1,35 55.5,31.3 79.9,-6.7c20,-31 -23.3,-45.4 -44.4,-48.8Z" style="fill:rgb(84,50,79);fill-rule:nonzero;"/>            <path d="M232.4,56.1c-22.2,-66.1 -54.3,-40 -100.5,-53.3c-49.1,-14.2 -64.7,29.3 -79.4,50c-12.2,17.2 -26.4,26.3 -39.8,43.8c-16.8,22.1 -16.9,52 -0.5,74.4c16,21.9 64.6,35 89.1,41.1c51.9,12.9 105.4,15.5 127.7,-23.3c15.5,-27 15.2,-97.6 3.4,-132.7Zm-7.8,32.2c4.1,81 -15.3,133 -103.3,118.8c-93.3,-15 -118.6,-75.9 -86.1,-112.7c25,-28.3 38.8,-68.7 91.1,-70.5c49.4,-1.7 93.5,-31.6 98.3,64.4Z" style="fill:rgb(84,50,79);fill-rule:nonzero;"/>        </g>    </g></svg>