<?xml version="1.0" encoding="UTF-8" standalone="no"?><!DOCTYPE svg PUBLIC "-//W3C//DTD SVG 1.1//EN" "http://www.w3.org/Graphics/SVG/1.1/DTD/svg11.dtd"><svg width="100%" height="100%" viewBox="0 0 1024 512" version="1.1" xmlns="http://www.w3.org/2000/svg" xmlns:xlink="http://www.w3.org/1999/xlink" xml:space="preserve" style="fill-rule:evenodd;clip-rule:evenodd;stroke-linejoin:round;stroke-miterlimit:2;"><title>LendLink</title><desc>LendLink is a peer-to-peer loan platform. The company was established in 2014 with the aim of bringing together lenders and borrowers in a simple and secure way for the benefit of both parties.We help with the administrative process, loan application, agreement between borrower and lender and payments.</desc>    <g transform="matrix(7.70598,0,0,2.85343,-444.582,144.117)">        <g transform="matrix(26.6608,0,0,72,56,64.7891)">            <path d="M0.073,0l0,-0.715l0.153,0l0,0.576l0.297,0l0,0.139l-0.45,0Z" style="fill:rgb(26,85,92);fill-rule:nonzero;"/>        </g>        <g transform="matrix(26.6608,0,0,72,70.7363,64.7891)">            <path d="M0.213,-0.59l0,0.155l0.262,0l0,0.147l-0.262,0l0,0.149l0.311,0l0,0.139l-0.451,0l0,-0.715l0.457,0l0,0.125l-0.317,0Z" style="fill:rgb(26,85,92);fill-rule:nonzero;"/>        </g>        <g transform="matrix(26.6608,0,0,72,85.9022,64.7891)">            <path d="M0.671,0.01l-0.398,-0.414l0,0.404l-0.174,0l0,-0.715l0.061,0l0.402,0.393l0,-0.393l0.161,0l0,0.725l-0.052,0Z" style="fill:rgb(26,85,92);fill-rule:nonzero;"/>        </g>        <g transform="matrix(26.6608,0,0,72,150.517,64.7891)">            <path d="M0.671,0.01l-0.398,-0.414l0,0.404l-0.174,0l0,-0.715l0.061,0l0.402,0.393l0,-0.393l0.161,0l0,0.725l-0.052,0Z" style="fill:rgb(26,85,92);fill-rule:nonzero;"/>        </g>        <g transform="matrix(0.343696,0,0,0.928186,57.4761,12.0054)">            <circle cx="258.5" cy="9.189" r="7.811" style="fill:rgb(238,97,69);"/>        </g>        <g transform="matrix(26.6608,0,0,72,135.566,64.7891)">            <rect x="0.321" y="-0.406" width="0.166" height="0.406" style="fill:rgb(26,85,92);fill-rule:nonzero;"/>        </g>        <g transform="matrix(0.343696,0,0,0.928186,57.9527,69.5529)">            <path d="M170.868,-5.132l-22.089,0l0,-55.451c7.853,-0.278 16.789,-0.417 18.809,-0.417c1.375,0 2.586,-0.015 3.672,0c15.201,0.21 27.477,13.506 27.477,28.757c0,15.381 -12.487,27.11 -27.869,27.111Zm1.5,-11.5c7.398,-0.001 13.404,-6.902 13.404,-15.951c0,-8.973 -5.904,-16.796 -13.216,-16.92c-0.522,-0.009 -1.104,0 -1.766,0c-0.971,0 -5.269,0.082 -9.047,0.245l0,32.626l10.625,0Z" style="fill:rgb(26,85,92);fill-rule:nonzero;"/>        </g>        <g transform="matrix(26.6608,0,0,72,172.123,64.7891)">            <path d="M0.492,0l-0.253,-0.305l0,0.305l-0.166,0l0,-0.715l0.166,0l0,0.316l0.243,-0.316l0.183,0l-0.263,0.351l0.28,0.364l-0.19,0Z" style="fill:rgb(26,85,92);fill-rule:nonzero;"/>        </g>        <g transform="matrix(26.6608,0,0,72,127.489,64.7891)">            <path d="M0.073,0l0,-0.715l0.153,0l0,0.576l0.297,0l0,0.139l-0.45,0Z" style="fill:rgb(26,85,92);fill-rule:nonzero;"/>        </g>    </g></svg>