<?xml version="1.0" encoding="UTF-8" standalone="no"?><!DOCTYPE svg PUBLIC "-//W3C//DTD SVG 1.1//EN" "http://www.w3.org/Graphics/SVG/1.1/DTD/svg11.dtd"><svg width="100%" height="100%" viewBox="0 0 1024 512" version="1.1" xmlns="http://www.w3.org/2000/svg" xmlns:xlink="http://www.w3.org/1999/xlink" xml:space="preserve" style="fill-rule:evenodd;clip-rule:evenodd;stroke-linejoin:round;stroke-miterlimit:2;"><title>Lendify</title><desc>Lendify is building the next-generation bank that, through data and technology, wants to streamline the loan market and improve the economy of Swedish households.Lendify is aimed at Swedish households with high credit ratings, which in many cases already have loans from one of the banks, but can and want to get better terms. Lendify was founded in 2014 and is licensed as a payment institution by Finansinspektionen.</desc>    <g transform="matrix(4.77992,0,0,4.77992,-1934.65,-733.948)">        <g transform="matrix(1.75813,0,0,1.75813,496.64,218.66)">            <path d="M0,-10.974c-1.599,0 -2.79,1.066 -3.073,3.982l5.518,0c0.032,-0.345 0.063,-0.69 0.063,-1.035c0,-1.629 -0.533,-2.947 -2.508,-2.947m5.548,12.759c0,0 -1.849,1.286 -5.328,1.286c-5.11,0 -7.367,-2.979 -7.367,-8.652c0,-5.926 2.821,-8.464 7.147,-8.464c3.887,0 6.426,2.006 6.426,6.489c0,2.006 -0.345,3.29 -0.345,3.29l-9.185,0c0.283,3.199 1.694,4.013 3.888,4.013c2.1,0 3.573,-0.752 3.573,-0.752l1.191,2.79Z" style="fill:rgb(51,168,151);fill-rule:nonzero;"/>        </g>        <g transform="matrix(1.75813,0,0,1.75813,554.013,194.187)">            <path d="M0,10.408c0,1.975 -1.065,3.385 -2.821,3.385c-1.975,0 -3.135,-0.94 -3.135,-5.361c0,-4.42 1.16,-5.36 3.135,-5.36c1.692,0 2.759,1.348 2.821,3.26l0,4.076Zm0,-16.991l0,8.087c-0.909,-1.065 -2.226,-1.629 -4.232,-1.629c-3.511,0 -5.8,2.162 -5.8,8.557c0,6.395 2.289,8.559 5.8,8.559c2.102,0 3.451,-0.639 4.333,-1.768c0.283,0.982 1.177,1.706 2.25,1.706l1.599,0l0,-23.512l-3.95,0Z" style="fill:rgb(51,168,151);fill-rule:nonzero;"/>        </g>        <g transform="matrix(1.75813,0,0,1.75813,569.225,194.959)">            <path d="M0,16.49c-1.298,0 -2.351,-1.052 -2.351,-2.351l0,-14.139l3.951,0l0,16.49l-1.6,0Z" style="fill:rgb(51,168,151);fill-rule:nonzero;"/>        </g>        <g transform="matrix(1.75813,0,0,1.75813,569.225,185.226)">            <path d="M0,3.95c-1.298,0 -2.351,-1.052 -2.351,-2.351l0,-1.599l3.951,0l0,3.95l-1.6,0Z" style="fill:rgb(51,168,151);fill-rule:nonzero;"/>        </g>        <g transform="matrix(1.75813,0,0,1.75813,611.942,235.404)">            <path d="M0,-23.005l-3.651,12.083l-4.06,-12.083l-4.076,0l5.277,14.952l0.007,0.006l-0.007,-0.004c0.255,0.692 0.829,1.227 1.542,1.437c-0.971,3.166 -1.63,3.355 -3.167,3.355c-0.658,0 -1.442,-0.126 -1.442,-0.126l0,3.04c0,0 0.722,0.345 1.819,0.345c3.95,0 5.11,-2.162 6.332,-6.049l5.188,-16.956l-3.762,0Z" style="fill:rgb(51,168,151);fill-rule:nonzero;"/>        </g>        <g transform="matrix(1.75813,0,0,1.75813,588.298,218.493)">            <path d="M0,-17.305c1.504,0 2.445,0.376 2.445,0.376l1.034,-2.727c0,0 -1.411,-0.753 -3.73,-0.753c-4.076,0 -5.486,2.101 -5.486,5.142l0,1.88l-1.829,0l0,2.916l1.829,0l0,11.224c0,1.298 1.053,2.351 2.351,2.351l1.599,0l0,-13.575l1.097,0c1.298,0 2.351,-1.053 2.351,-2.351l0,-0.565l-3.448,0l0,-2.038c0,-1.316 0.533,-1.88 1.787,-1.88" style="fill:rgb(51,168,151);fill-rule:nonzero;"/>        </g>        <g transform="matrix(1.75813,0,0,1.75813,526.676,198.1)">            <path d="M0,12.352c0,1.299 1.053,2.351 2.351,2.351l1.599,0l0,-12.289c0,-2.822 -1.693,-4.765 -4.922,-4.765c-1.724,0 -3.197,0.5 -4.295,1.504l0,-0.94l-3.949,0l0,16.49l3.949,0l0,-12.697c0.753,-0.721 1.725,-1.16 2.759,-1.16c1.787,0 2.508,0.909 2.508,2.257l0,9.249Z" style="fill:rgb(51,168,151);fill-rule:nonzero;"/>        </g>        <g transform="matrix(1.75813,0,0,1.75813,462.979,223.95)">            <path d="M0,-23.512l4.013,0l0,20.064l7.429,0l0,3.448l-7.492,0l-1.598,0c-1.3,0 -2.352,-1.052 -2.352,-2.351l0,-21.161Z" style="fill:rgb(51,168,151);fill-rule:nonzero;"/>        </g>        <g transform="matrix(1.75813,0,0,1.75813,452.382,194.536)">            <path d="M0,0.003c0,4.94 -4.006,8.946 -8.949,8.946l-0.014,0l0,-4.466l0.015,0c2.475,0 4.482,-2.006 4.482,-4.48c0,-2.477 -2.007,-4.482 -4.482,-4.482c-2.474,0 -4.481,2.005 -4.481,4.482l0,8.946l-4.466,0l0,-4.466l0,-4.466l0,-0.014c0,-4.942 4.007,-8.949 8.946,-8.949c4.943,0 8.949,4.007 8.949,8.949" style="fill:rgb(142,198,199);fill-rule:nonzero;"/>        </g>        <g transform="matrix(1.75813,0,0,1.75813,428.773,210.296)">            <path d="M0,-0.001l0,-0.014l0,-4.466l0,-4.467l4.466,0l0,8.947c0,4.941 -4.007,8.948 -8.946,8.948c-4.942,0 -8.949,-4.007 -8.949,-8.948c0,-4.94 4.007,-8.947 8.949,-8.947l0.014,0l0,4.467l-0.014,0c-2.477,0 -4.483,2.006 -4.483,4.48c0,2.476 2.006,4.482 4.483,4.482c2.473,0 4.48,-2.006 4.48,-4.482" style="fill:rgb(51,168,151);fill-rule:nonzero;"/>        </g>    </g></svg>