<?xml version="1.0" encoding="UTF-8" standalone="no"?><!DOCTYPE svg PUBLIC "-//W3C//DTD SVG 1.1//EN" "http://www.w3.org/Graphics/SVG/1.1/DTD/svg11.dtd"><svg width="100%" height="100%" viewBox="0 0 1024 512" version="1.1" xmlns="http://www.w3.org/2000/svg" xmlns:xlink="http://www.w3.org/1999/xlink" xml:space="preserve" style="fill-rule:evenodd;clip-rule:evenodd;stroke-linejoin:round;stroke-miterlimit:2;"><title>Debitos</title><desc>Debitos is an online marketplace which allows companies, banks and funds to sell their debts (loans, claims and receivables) on the market through its auction-based online transaction platform to specialized investors.</desc>    <g transform="matrix(0.380949,0,0,0.380949,29.512,-53.4913)">        <g transform="matrix(1.94741,0,0,1.75513,-374.752,272.896)">            <g transform="matrix(288,0,0,288,252.698,687.635)">                <path d="M0.12,0l0.321,0c0.094,0 0.17,-0.077 0.17,-0.17l0,-0.411c0,-0.094 -0.076,-0.17 -0.17,-0.17l-0.321,0c-0.032,0 -0.058,0.026 -0.058,0.058l0,0.635c0,0.032 0.026,0.058 0.058,0.058Zm0.055,-0.086c-0.011,0 -0.019,-0.009 -0.019,-0.019l0,-0.541c0,-0.011 0.008,-0.019 0.019,-0.019l0.266,0c0.042,0 0.076,0.034 0.076,0.076l0,0.427c0,0.042 -0.034,0.076 -0.076,0.076l-0.266,0Z" style="fill:rgb(74,74,74);fill-rule:nonzero;"/>            </g>            <g transform="matrix(288,0,0,288,445.658,687.635)">                <path d="M0.23,-0.665l0.324,0c0.007,0 0.013,-0.006 0.013,-0.013l0,-0.073l-0.337,0c-0.094,0 -0.17,0.076 -0.17,0.17l0,0.411c0,0.094 0.076,0.17 0.17,0.17l0.337,0l0,-0.073c0,-0.007 -0.006,-0.013 -0.013,-0.013l-0.324,0c-0.042,0 -0.076,-0.034 -0.076,-0.076l0,-0.171l0.365,0c0.007,0 0.013,-0.006 0.013,-0.013l0,-0.073l-0.329,0c-0.021,0 -0.039,0.008 -0.049,0.02l0,-0.19c0,-0.042 0.034,-0.076 0.076,-0.076Z" style="fill:rgb(74,74,74);fill-rule:nonzero;"/>            </g>            <g transform="matrix(288,0,0,288,618.17,687.635)">                <path d="M0.121,0l0.318,0c0.094,0 0.17,-0.077 0.17,-0.171l0,-0.088c0,-0.048 -0.038,-0.109 -0.092,-0.123c0.054,-0.011 0.092,-0.075 0.092,-0.123l0,-0.076c0,-0.094 -0.076,-0.17 -0.17,-0.17l-0.32,0c-0.031,0 -0.056,0.025 -0.056,0.056l0,0.637c0,0.032 0.026,0.058 0.058,0.058Zm0.394,-0.163c0,0.042 -0.034,0.077 -0.076,0.077l-0.263,0c-0.011,0 -0.019,-0.009 -0.019,-0.019l0,-0.234l0.282,0c0.042,0 0.076,0.034 0.076,0.076l0,0.1Zm-0.358,-0.483c0,-0.011 0.008,-0.019 0.019,-0.019l0.263,0c0.042,0 0.076,0.034 0.076,0.076l0,0.088c0,0.042 -0.034,0.076 -0.076,0.076l-0.282,0l0,-0.221Z" style="fill:rgb(74,74,74);fill-rule:nonzero;"/>            </g>            <g transform="matrix(288,0,0,288,808.826,687.635)">                <path d="M0.094,0l0.081,0l0,-0.738c0,-0.007 -0.006,-0.013 -0.013,-0.013l-0.081,0l0,0.738c0,0.007 0.006,0.013 0.013,0.013Z" style="fill:rgb(74,74,74);fill-rule:nonzero;"/>            </g>            <g transform="matrix(288,0,0,288,881.114,687.635)">                <path d="M0.031,-0.751c-0.007,0 -0.013,0.006 -0.013,0.013l0,0.073l0.224,0l0,0.665l0.081,0c0.008,0 0.013,-0.006 0.013,-0.013l0,-0.652l0.214,0c0.007,0 0.013,-0.006 0.013,-0.013l0,-0.073l-0.532,0Z" style="fill:rgb(74,74,74);fill-rule:nonzero;"/>            </g>            <g transform="matrix(288,0,0,288,1048.15,687.635)">                <path d="M0.455,0.004c0.093,0 0.17,-0.076 0.17,-0.17l0,-0.419c0,-0.094 -0.077,-0.17 -0.17,-0.17l-0.226,0c-0.094,0 -0.17,0.076 -0.17,0.17l0,0.419c0,0.094 0.076,0.17 0.17,0.17l0.226,0Zm-0.226,-0.673l0.226,0c0.042,0 0.076,0.034 0.076,0.076l0,0.435c0,0.042 -0.034,0.076 -0.076,0.076l-0.226,0c-0.042,0 -0.076,-0.034 -0.076,-0.076l0,-0.435c0,-0.042 0.034,-0.076 0.076,-0.076Z" style="fill:rgb(74,74,74);fill-rule:nonzero;"/>            </g>            <g transform="matrix(288,0,0,288,1245.43,687.635)">                <path d="M0.055,-0.086c-0.007,0 -0.013,0.005 -0.013,0.013l0,0.073l0.383,0c0.093,0 0.164,-0.069 0.164,-0.163l0,-0.107c0,-0.032 -0.022,-0.067 -0.052,-0.077l-0.384,-0.127c-0.01,-0.003 -0.018,-0.014 -0.018,-0.025l0,-0.097c0,-0.042 0.035,-0.069 0.077,-0.069l0.343,0c0.008,0 0.013,-0.006 0.013,-0.013l0,-0.073l-0.356,0c-0.094,0 -0.17,0.057 -0.17,0.151l0,0.119c0,0.032 0.025,0.066 0.055,0.076l0.384,0.128c0.01,0.003 0.018,0.014 0.018,0.024l0,0.091c0,0.042 -0.032,0.076 -0.074,0.076l-0.37,0Z" style="fill:rgb(74,74,74);fill-rule:nonzero;"/>            </g>        </g>        <g>            <g transform="matrix(1,0,0,1,-1.22791,-2)">                <path d="M1067.59,653.658c0,-55.192 -44.809,-100 -100,-100c-55.191,0 -100,44.808 -100,100l0,196.342c0,55.192 44.809,100 100,100c55.191,0 100,-44.808 100,-100l0,-196.342Z" style="fill:rgb(29,210,175);"/>            </g>            <g transform="matrix(1,0,0,1.52223,297.411,-498.115)">                <path d="M1067.59,619.351c0,-36.257 -44.809,-65.693 -100,-65.693c-55.191,0 -100,29.436 -100,65.693l0,264.956c0,36.257 44.809,65.693 100,65.693c55.191,0 100,-29.436 100,-65.693l0,-264.956Z" style="fill:rgb(29,210,175);"/>            </g>            <g transform="matrix(1,0,0,2.03097,596.05,-981.422)">                <path d="M1067.59,602.895c0,-27.174 -44.809,-49.237 -100,-49.237c-55.191,0 -100,22.063 -100,49.237l0,297.868c0,27.174 44.809,49.237 100,49.237c55.191,0 100,-22.063 100,-49.237l0,-297.868Z" style="fill:rgb(29,210,175);"/>            </g>        </g>    </g></svg>