<?xml version="1.0" encoding="UTF-8" standalone="no"?><!DOCTYPE svg PUBLIC "-//W3C//DTD SVG 1.1//EN" "http://www.w3.org/Graphics/SVG/1.1/DTD/svg11.dtd"><svg width="100%" height="100%" viewBox="0 0 1024 512" version="1.1" xmlns="http://www.w3.org/2000/svg" xmlns:xlink="http://www.w3.org/1999/xlink" xml:space="preserve" style="fill-rule:evenodd;clip-rule:evenodd;stroke-linejoin:round;stroke-miterlimit:2;"><title>Fitzrovia</title><desc>Fitzrovia Finance was specifically created to unlock the secured property lending market and open it to the retail investment market. While there are many competitors that offer a similar proposition, our platform gives access to high quality lending opportunities thanks to an unrivalled deal flow – the types of deals that private investors would previously not have access to and that borrowers would only get from the traditional banking system. </desc>    <g id="Fitzrovia" transform="matrix(3.91916,0,0,3.91916,2,117.575)">        <g id="Text" transform="matrix(0.98,0,0,0.98,68.66,9.1)">            <path d="M11.88,48.72l-0.58,0l-0.44,-1.19l-3,0l0,4.6l1.55,0.35l0,0.58l-4.78,0l0,-0.58l1.57,-0.36l0,-9.88l-1.55,-0.38l0,-0.58l8.65,0l0,2.81l-0.82,0l-0.62,-2.09l-4,0l0,4.86l3,0l0.44,-1.33l0.58,0l0,3.19Zm23.12,-3.28l2.54,0l0,6.72l1.1,0.31l0,0.58l-3.75,0l0,-0.58l1.11,-0.34l0,-5.93l-1,-0.2l0,-0.56Zm0.52,-3.34c-0.016,-0.252 0.084,-0.499 0.27,-0.67c0.208,-0.17 0.472,-0.256 0.74,-0.24c0.271,-0.015 0.538,0.07 0.75,0.24c0.19,0.165 0.293,0.409 0.28,0.66c0.011,0.252 -0.087,0.496 -0.27,0.67c-0.205,0.183 -0.476,0.273 -0.75,0.25c-0.271,0.016 -0.539,-0.069 -0.75,-0.24c-0.197,-0.165 -0.308,-0.413 -0.3,-0.67l0.03,0Zm24.87,3.33l2.54,0l0,2.21c0.206,-1.362 1.413,-2.366 2.79,-2.32c0.715,-0.054 1.414,0.236 1.88,0.78c0.44,0.624 0.655,1.378 0.61,2.14l0,3.89l1.21,0.35l0,0.58l-3.71,0l0,-0.58l1.05,-0.31l0,-3.75c0.045,-0.626 -0.072,-1.253 -0.34,-1.82c-0.223,-0.366 -0.632,-0.579 -1.06,-0.55c-0.729,-0.008 -1.4,0.405 -1.72,1.06c-0.462,0.993 -0.668,2.087 -0.6,3.18l0,1.87l1.1,0.31l0,0.58l-3.75,0l0,-0.58l1.16,-0.33l0,-5.93l-1.16,-0.21l0,-0.57Zm38.35,7.62l-2.74,0l0,-1.58c-0.386,1.082 -1.443,1.788 -2.59,1.73c-0.67,0.047 -1.336,-0.145 -1.88,-0.54c-0.434,-0.378 -0.671,-0.935 -0.64,-1.51c-0.049,-0.854 0.439,-1.653 1.22,-2c1.231,-0.481 2.549,-0.703 3.87,-0.65l0,-0.67c0.028,-0.119 0.043,-0.241 0.043,-0.364c0,-0.861 -0.709,-1.57 -1.57,-1.57c-0.092,0 -0.183,0.008 -0.273,0.024c-0.545,-0.012 -1.082,0.13 -1.55,0.41l-0.52,1.55l-0.58,0l0,-1.78c0.322,-0.252 0.688,-0.442 1.08,-0.56c0.488,-0.157 0.998,-0.235 1.51,-0.23c0.88,-0.06 1.757,0.165 2.5,0.64c0.621,0.573 0.934,1.41 0.84,2.25l0,3.91l1.32,0.36l-0.04,0.58Zm-4.94,-0.52c0.624,0.024 1.219,-0.27 1.58,-0.78c0.455,-0.826 0.654,-1.77 0.57,-2.71c-1.8,0 -2.897,0.277 -3.29,0.83c-0.207,0.339 -0.308,0.733 -0.29,1.13c-0.034,0.406 0.088,0.81 0.34,1.13c0.288,0.279 0.68,0.424 1.08,0.4l0.01,0Zm26.71,-7.1l2.54,0l0,2.21c0.206,-1.362 1.413,-2.366 2.79,-2.32c0.715,-0.054 1.414,0.236 1.88,0.78c0.44,0.624 0.655,1.378 0.61,2.14l0,3.89l1.21,0.35l0,0.58l-3.72,0l0,-0.58l1.05,-0.31l0,-3.75c0.045,-0.626 -0.072,-1.253 -0.34,-1.82c-0.223,-0.366 -0.632,-0.579 -1.06,-0.55c-0.729,-0.008 -1.4,0.405 -1.72,1.06c-0.462,0.993 -0.668,2.087 -0.6,3.18l0,1.87l1.1,0.31l0,0.58l-3.75,0l0,-0.58l1.16,-0.33l0,-5.93l-1.15,-0.21l0,-0.57Zm37.07,5.17l0,1.85c-0.72,0.557 -1.623,0.825 -2.53,0.75c-1.032,0.051 -2.043,-0.309 -2.81,-1c-0.757,-0.764 -1.153,-1.816 -1.09,-2.89c-0.058,-1.091 0.349,-2.156 1.12,-2.93c0.774,-0.721 1.803,-1.106 2.86,-1.07c0.473,-0.002 0.943,0.059 1.4,0.18c0.367,0.084 0.709,0.252 1,0.49l0,1.95l-0.53,0l-0.52,-1.71c-0.441,-0.258 -0.951,-0.373 -1.46,-0.33c-0.656,-0.01 -1.271,0.324 -1.62,0.88c-0.45,0.774 -0.659,1.666 -0.6,2.56c0,2.207 0.807,3.31 2.42,3.31c0.434,0.02 0.868,-0.056 1.27,-0.22l0.51,-1.82l0.58,0Zm28.54,-0.2l0,1.79c-0.767,0.738 -1.821,1.104 -2.88,1c-1.077,0.101 -2.148,-0.264 -2.94,-1c-0.692,-0.799 -1.05,-1.834 -1,-2.89c-0.068,-1.064 0.292,-2.112 1,-2.91c0.715,-0.722 1.705,-1.108 2.72,-1.06c0.59,-0.019 1.175,0.112 1.7,0.38c0.432,0.217 0.783,0.568 1,1c0.312,0.684 0.472,1.428 0.47,2.18l-5.32,0c-0.044,0.918 0.096,1.836 0.41,2.7c0.328,0.708 1.074,1.131 1.85,1.05c0.315,0.002 0.628,-0.042 0.93,-0.13c0.226,-0.06 0.445,-0.147 0.65,-0.26c0.14,-0.08 0.2,-0.14 0.2,-0.16l0.58,-1.66l0.63,-0.03Zm-3.12,-4.49c-0.81,-0.052 -1.56,0.451 -1.82,1.22c-0.16,0.385 -0.255,0.794 -0.28,1.21l3.92,0c0.027,-1.62 -0.58,-2.43 -1.82,-2.43Zm-162,-24.07l-1.66,0l-1.27,-3.46l-8.74,0l0,13.33l4.5,1l0,1.69l-13.83,0l0,-1.68l4.55,-1l0,-28.72l-4.55,-1l0,-1.73l25.12,0l0,8.15l-2.37,0l-1.75,-6.19l-11.67,0l0,14.1l8.74,0l1.27,-3.87l1.66,0l0,9.38Zm8.71,-9.51l7.37,0l0,19.48l3.19,0.91l0,1.68l-10.78,0l0,-1.68l3.32,-1l0,-17.21l-3.1,-0.51l0,-1.67Zm1.5,-9.69c-0.037,-0.728 0.253,-1.437 0.79,-1.93c0.602,-0.498 1.37,-0.752 2.15,-0.71c0.782,-0.036 1.551,0.217 2.16,0.71c0.55,0.478 0.852,1.182 0.82,1.91c0.032,0.724 -0.249,1.427 -0.77,1.93c-0.596,0.518 -1.372,0.78 -2.16,0.73c-0.796,0.049 -1.582,-0.205 -2.2,-0.71c-0.537,-0.493 -0.827,-1.202 -0.79,-1.93Zm19.93,9.69l6.64,0l0,1.91l-6.64,0l0,14.11c-0.102,1.271 0.118,2.547 0.64,3.71c0.439,0.667 1.203,1.049 2,1c1.297,-0.06 2.581,-0.289 3.82,-0.68l0,1.68c-1.687,0.505 -3.431,0.794 -5.19,0.86c-3.7,0 -5.55,-2.23 -5.55,-6.69l0,-14l-3.86,0l0,-1.9l3.91,0l0,-4.69l4.23,-2.41l0,7.1Zm11.42,0l17.57,0l0,1.32l-13,18.79l11.1,0l1.14,-3.91l1.63,0l0,5.87l-19.21,0l0,-1.23l13,-18.93l-9.45,0l-1.09,3.91l-1.69,0l0,-5.82Zm22.76,0l7.55,0l0,6.46c0.552,-1.731 1.52,-3.301 2.82,-4.57c1.236,-1.212 2.91,-1.875 4.64,-1.84c1.41,0.096 2.779,0.517 4,1.23l0,5.46l-1.78,0l-1.41,-3.73c-0.617,-0.319 -1.305,-0.477 -2,-0.46c-1.333,0 -2.667,0.78 -4,2.34c-1.257,1.364 -1.97,3.145 -2,5l0,9.51l3.37,1l0,1.67l-11.1,0l0,-1.68l3.46,-1l0,-17.11l-3.55,-0.61l0,-1.67Zm21.11,11.19c-0.183,-3.117 0.899,-6.18 3,-8.49c4.558,-4.124 11.577,-4.137 16.15,-0.03c2,2 3,4.837 3,8.51c0,3.673 -1,6.473 -3,8.4c-4.649,3.908 -11.501,3.908 -16.15,0c-2,-2.013 -3,-4.81 -3,-8.39Zm17.61,0c0,-3.273 -0.5,-5.707 -1.5,-7.3c-1.07,-1.628 -2.948,-2.546 -4.89,-2.39c-1.949,-0.142 -3.84,0.728 -5,2.3c-1.1,1.533 -1.65,3.983 -1.65,7.35c0,3.367 0.53,5.787 1.59,7.26c1.236,1.416 3.026,2.23 4.905,2.23c1.879,0 3.669,-0.814 4.905,-2.23c1.067,-1.533 1.6,-3.94 1.6,-7.22l0.04,0Zm20.88,-11.19l9.56,0l0,1.67l-3.37,0.77l-8.19,19.63l-2.68,0l-8.05,-19.61l-3.56,-0.79l0,-1.67l11.56,0l0,1.67l-3.14,0.77l5.82,15.06l5.32,-15.06l-3.27,-0.77l0,-1.67Zm13.29,0l7.37,0l0,19.48l3.19,0.91l0,1.68l-10.77,0l0,-1.68l3.32,-1l0,-17.21l-3.11,-0.51l0,-1.67Zm1.5,-9.69c-0.035,-0.73 0.259,-1.439 0.8,-1.93c0.599,-0.496 1.363,-0.749 2.14,-0.71c0.782,-0.036 1.551,0.217 2.16,0.71c0.55,0.478 0.852,1.182 0.82,1.91c0.032,0.724 -0.249,1.427 -0.77,1.93c-0.596,0.518 -1.372,0.78 -2.16,0.73c-0.79,0.044 -1.568,-0.21 -2.18,-0.71c-0.545,-0.49 -0.842,-1.198 -0.81,-1.93Zm35.76,31.76l-8,0l0,-4.6c-1.128,3.128 -4.189,5.166 -7.51,5c-1.948,0.137 -3.882,-0.419 -5.46,-1.57c-1.268,-1.095 -1.959,-2.717 -1.87,-4.39c-0.118,-2.458 1.286,-4.75 3.53,-5.76c2.353,-1.167 6.093,-1.797 11.22,-1.89l0,-2c0,-2.153 -0.44,-3.617 -1.32,-4.39c-1.118,-0.85 -2.509,-1.262 -3.91,-1.16c-1.581,-0.039 -3.141,0.37 -4.5,1.18l-1.5,4.5l-1.68,0l0,-5.08c0.935,-0.733 2.001,-1.282 3.14,-1.62c1.421,-0.44 2.903,-0.65 4.39,-0.62c3.213,0 5.633,0.613 7.26,1.84c1.627,1.227 2.437,3.403 2.43,6.53l0,11.3l3.82,1l-0.04,1.73Zm-14.33,-1.5c1.803,0.066 3.523,-0.781 4.57,-2.25c1.107,-1.5 1.66,-4.117 1.66,-7.85c-5.22,0 -8.407,0.803 -9.56,2.41c-0.614,1.012 -0.9,2.189 -0.82,3.37c-0.095,1.18 0.263,2.353 1,3.28c0.859,0.769 2.002,1.146 3.15,1.04Z" style="fill:rgb(20,20,20);fill-rule:nonzero;"/>        </g>        <g id="Logo">            <path d="M27.85,52.34l0,-1l-8.85,0l0,1l0.56,0l0,12.66l-0.56,0l0,1l8.83,0l0,-1l-0.56,0l0,-12.66l0.58,0Zm-4.92,0l0,3.57l-2.35,0l0,-3.57l2.35,0Zm3.36,8.13l-2.36,0l0,-3.56l2.36,0l0,3.56Zm-3.36,0l-2.35,0l0,-3.56l2.36,0l-0.01,3.56Zm-2.36,1l2.36,0l0,3.53l-2.35,0l-0.01,-3.53Zm3.36,3.53l0,-3.53l2.36,0l0,3.53l-2.36,0Zm2.36,-9.13l-2.36,0l0,-3.53l2.36,0l0,3.53Zm15.18,-3.53l0,-1l-8.82,0l0,1l0.56,0l0,12.66l-0.56,0l0,1l8.83,0l0,-1l-0.56,0l0,-12.66l0.55,0Zm-4.92,0l0,3.57l-2.35,0l0,-3.57l2.35,0Zm3.36,8.13l-2.35,0l0,-3.56l2.36,0l-0.01,3.56Zm-3.36,0l-2.35,0l0,-3.56l2.36,0l-0.01,3.56Zm-2.36,1l2.36,0l0,3.53l-2.35,0l-0.01,-3.53Zm3.37,3.53l0,-3.53l2.36,0l0,3.53l-2.36,0Zm2.36,-9.13l-2.36,0l0,-3.53l2.36,0l0,3.53Z" style="fill:rgb(35,31,32);fill-rule:nonzero;"/>            <path d="M13.54,13.34l0,-1l-7.44,0l0,1l0.57,0l0,9.66l-0.57,0l0,1l7.44,0l0,-1l-0.54,0l0,-9.66l0.54,0Zm-4.22,0l0,2.66l-1.65,0l0,-2.7l1.65,0.04Zm2.68,5.87l-1.68,0l0,-2.21l1.68,0l0,2.21Zm-2.65,0l-1.68,0l0,-2.21l1.65,0l0.03,2.21Zm-1.65,1l1.62,0l0,2.79l-1.65,0l0.03,-2.79Zm2.62,2.79l0,-2.79l1.68,0l0,2.79l-1.68,0Zm1.68,-7l-1.68,0l0,-2.7l1.68,0l0,2.7Zm15.14,-2.66l0,-1l-7.44,0l0,1l0.57,0l0,9.66l-0.57,0l0,1l7.44,0l0,-1l-0.57,0l0,-9.66l0.57,0Zm-4.22,0l0,2.66l-1.65,0l0,-2.7l1.65,0.04Zm2.65,5.87l-1.65,0l0,-2.21l1.65,0l0,2.21Zm-2.65,0l-1.65,0l0,-2.21l1.65,0l0,2.21Zm-1.65,1l1.65,0l0,2.79l-1.65,0l0,-2.79Zm2.65,2.79l0,-2.79l1.65,0l0,2.79l-1.65,0Zm1.66,-7l-1.66,0l0,-2.7l1.65,0l0.01,2.7Zm15.19,-2.66l0,-1l-7.44,0l0,1l0.57,0l0,9.66l-0.57,0l0,1l7.44,0l0,-1l-0.57,0l0,-9.66l0.57,0Zm-4.22,0l0,2.66l-1.65,0l0,-2.7l1.65,0.04Zm2.65,5.87l-1.65,0l0,-2.21l1.65,0l0,2.21Zm-2.65,0l-1.65,0l0,-2.21l1.65,0l0,2.21Zm-1.65,1l1.65,0l0,2.79l-1.65,0l0,-2.79Zm2.65,2.79l0,-2.79l1.65,0l0,2.79l-1.65,0Zm1.65,-7l-1.65,0l0,-2.7l1.65,0l0,2.7Z" style="fill:rgb(29,29,27);fill-rule:nonzero;"/>            <path d="M42.44,0l0,3l-38.04,0l0,-3l-4.4,0l0,70.64l46.84,0l0,-70.64l-4.4,0Zm-26.69,69.64l-1.54,0l0,-12.64l1.54,0l0,12.64Zm-4.52,-15.09c-0.271,-0.2 -0.581,-0.339 -0.91,-0.41l0,-1.25c0.652,0.099 1.261,0.388 1.75,0.83l-0.84,0.83Zm1.48,-0.06c0.275,0.459 0.436,0.976 0.47,1.51l-1,0c-0.055,-0.236 -0.146,-0.462 -0.27,-0.67l0.8,-0.84Zm-1.59,1.51l-2.6,0c0.204,-0.539 0.723,-0.898 1.3,-0.898c0.577,0 1.096,0.359 1.3,0.898Zm-1.8,-1.84c-0.329,0.071 -0.639,0.21 -0.91,0.41l-0.84,-0.83c0.489,-0.442 1.098,-0.731 1.75,-0.83l0,1.25Zm-1.57,1.14c-0.124,0.208 -0.215,0.434 -0.27,0.67l-1,0c0.039,-0.523 0.2,-1.03 0.47,-1.48l0.8,0.81Zm1.57,1.7l0,6.53l-1.75,0l0,1l1.75,0l0,5.14l-2.88,0l0,-12.67l2.88,0Zm1,7.53l1.78,0l0,-1l-1.78,0l0,-6.53l2.88,0l0,12.64l-2.88,0l0,-5.11Zm3.86,-8.53c-0.155,-2.281 -2.074,-4.075 -4.36,-4.075c-2.286,0 -4.205,1.794 -4.36,4.075l-1.56,0c0.13,-3.153 2.759,-5.677 5.915,-5.677c3.156,0 5.785,2.524 5.915,5.677l-1.55,0Zm-8.74,1l0,12.64l-1.55,0l0,-12.64l1.55,0Zm40.4,12.67l-29.09,0l0,-13.42c0,-3.802 -3.128,-6.93 -6.93,-6.93c-3.802,0 -6.93,3.128 -6.93,6.93l0,13.39l-1.89,0l0,-25.29l44.84,0l0,25.32Zm-35.51,-29.57l0,-2.42l3.62,0l0,2.42l-3.62,0Zm3.62,1l0,2.25l-3.62,0l0,-2.25l3.62,0Zm-3.62,-4.42l0,-2.43l3.62,0l0,2.43l-3.62,0Zm2,-3.43c-0.057,-0.293 -0.165,-0.575 -0.32,-0.83l1.25,-1.28c0.299,0.438 0.51,0.931 0.62,1.45c0.041,0.218 0.064,0.438 0.07,0.66l-1.62,0Zm-1,-1.58c-0.296,-0.221 -0.638,-0.375 -1,-0.45l0,-1.88c0.838,0.094 1.627,0.443 2.26,1l-1.26,1.33Zm0,1.58l-2.98,0c0.2,-0.641 0.798,-1.081 1.47,-1.081c0.672,0 1.27,0.44 1.47,1.081l0.04,0Zm-2,-2c-0.363,0.078 -0.704,0.235 -1,0.46l-1.33,-1.29c0.636,-0.595 1.445,-0.973 2.31,-1.08l0.02,1.91Zm-1.69,1.2c-0.155,0.255 -0.263,0.537 -0.32,0.83l-1.61,0c-0.008,-0.143 -0.008,-0.287 0,-0.43c0.087,-0.583 0.302,-1.14 0.63,-1.63l1.3,1.23Zm1.69,1.83l0,2.43l-3.63,0l0,-2.46l3.63,0.03Zm0,3.43l0,2.39l-3.63,0l0,-2.42l3.63,0.03Zm0,3.42l0,2.25l-3.63,0l0,-2.28l3.63,0.03Zm14.58,-1l0,-2.45l3.62,0l0,2.42l-3.62,0.03Zm3.62,1l0,2.25l-3.62,0l0,-2.28l3.62,0.03Zm-3.62,-4.42l0,-2.46l3.62,0l0,2.43l-3.62,0.03Zm2,-3.43c-0.057,-0.293 -0.165,-0.575 -0.32,-0.83l1.25,-1.28c0.299,0.438 0.51,0.931 0.62,1.45c0.041,0.218 0.064,0.438 0.07,0.66l-1.62,0Zm-1,-1.57c-0.296,-0.221 -0.638,-0.375 -1,-0.45l0,-1.92c0.838,0.094 1.627,0.443 2.26,1l-1.26,1.37Zm0,1.57l-2.98,0c0.2,-0.641 0.798,-1.081 1.47,-1.081c0.672,0 1.27,0.44 1.47,1.081l0.04,0Zm-2,-2c-0.363,0.078 -0.704,0.235 -1,0.46l-1.31,-1.32c0.636,-0.595 1.445,-0.973 2.31,-1.08l0,1.94Zm-1.69,1.2c-0.155,0.255 -0.263,0.537 -0.32,0.83l-1.61,0c-0.008,-0.147 -0.008,-0.293 0,-0.44c0.104,-0.607 0.347,-1.182 0.71,-1.68l1.22,1.29Zm1.69,1.83l0,2.43l-3.63,0l0,-2.49l3.63,0.06Zm0,3.43l0,2.36l-3.63,0l0,-2.42l3.63,0.06Zm0,3.42l0,2.25l-3.63,0l0,-2.31l3.63,0.06Zm14.64,-1l0,-2.48l3.62,0l0,2.42l-3.62,0.06Zm3.62,1l0,2.25l-3.62,0l0,-2.31l3.62,0.06Zm-3.62,-4.42l0,-2.49l3.62,0l0,2.43l-3.62,0.06Zm2,-3.43c-0.057,-0.293 -0.165,-0.575 -0.32,-0.83l1.25,-1.28c0.299,0.438 0.51,0.931 0.62,1.45c0.041,0.218 0.064,0.438 0.07,0.66l-1.62,0Zm-1,-1.57c-0.296,-0.221 -0.638,-0.375 -1,-0.45l0,-1.95c0.838,0.094 1.627,0.443 2.26,1l-1.26,1.4Zm0,1.57l-2.98,0c0.2,-0.641 0.798,-1.081 1.47,-1.081c0.672,0 1.27,0.44 1.47,1.081l0.04,0Zm-2,-2c-0.363,0.078 -0.704,0.235 -1,0.46l-1.29,-1.26c0.636,-0.595 1.445,-0.973 2.31,-1.08l-0.02,1.88Zm-1.69,1.2c-0.155,0.255 -0.263,0.537 -0.32,0.83l-1.61,0c-0.008,-0.147 -0.008,-0.293 0,-0.44c0.087,-0.583 0.302,-1.14 0.63,-1.63l1.3,1.24Zm1.69,1.83l0,2.43l-3.64,0l0,-2.52l3.64,0.09Zm0,3.43l0,2.33l-3.64,0l0,-2.42l3.64,0.09Zm0,3.42l0,2.25l-3.64,0l0,-2.34l3.64,0.09Zm9.29,2.25l-3.68,0l0,-10.02c-0.001,-0.336 -0.034,-0.671 -0.1,-1c-0.524,-2.333 -2.614,-4.005 -5.005,-4.005c-2.486,0 -4.631,1.806 -5.055,4.255c-0.035,0.248 -0.051,0.499 -0.05,0.75l0,9.93l-3.42,0l0,-9.93c-0.001,-0.336 -0.034,-0.671 -0.1,-1c-0.499,-2.364 -2.603,-4.071 -5.019,-4.071c-2.522,0 -4.688,1.859 -5.071,4.351c-0.035,0.248 -0.051,0.499 -0.05,0.75l0,9.93l-3.34,0l0,-9.96c-0.001,-0.336 -0.034,-0.671 -0.1,-1c-0.499,-2.364 -2.603,-4.071 -5.019,-4.071c-2.522,0 -4.688,1.859 -5.071,4.351c-0.035,0.248 -0.051,0.499 -0.05,0.75l0,9.93l-3.71,0l0,-33.38l44.84,0l0,33.44Zm0,-34.44l-44.84,0l0,-2l44.84,0l0,2Zm0,-3l-44.84,0l0,-5l2.4,0l0,3l40,0l0,-3l2.4,0l0.04,5Z" style="fill:rgb(35,31,32);fill-rule:nonzero;"/>        </g>    </g></svg>