<?xml version="1.0" encoding="UTF-8" standalone="no"?><!DOCTYPE svg PUBLIC "-//W3C//DTD SVG 1.1//EN" "http://www.w3.org/Graphics/SVG/1.1/DTD/svg11.dtd"><svg width="100%" height="100%" viewBox="0 0 1024 512" version="1.1" xmlns="http://www.w3.org/2000/svg" xmlns:xlink="http://www.w3.org/1999/xlink" xml:space="preserve" style="fill-rule:evenodd;clip-rule:evenodd;stroke-linejoin:round;stroke-miterlimit:2;"><title>The Crowd Estates</title><desc>The Crowd Estates is an online investment platform specialized in real estate transactions. It conducts a thorough preliminary analysis of all real estate operations.We want to democratize real estate investment so that not everyone can invest in the best projects in the sector.</desc>    <g transform="matrix(3.54327,0,0,3.54327,6.2546,-8.77694)">        <g transform="matrix(4.47862,0,0,4.47862,-724.263,-21.4122)">            <g transform="matrix(12,0,0,12,189.124,15.1287)">                <path d="M0.387,-0.535c0,0.007 -0.003,0.01 -0.01,0.01l-0.109,0c-0.007,0 -0.01,0.003 -0.01,0.01l0,0.505c0,0.007 -0.003,0.01 -0.01,0.01l-0.094,0c-0.007,0 -0.01,-0.003 -0.01,-0.01l0,-0.505c0,-0.007 -0.003,-0.01 -0.01,-0.01l-0.109,0c-0.007,0 -0.01,-0.003 -0.01,-0.01l0,-0.085c0,-0.007 0.003,-0.01 0.01,-0.01l0.352,0c0.007,0 0.01,0.003 0.01,0.01l0,0.085Z" style="fill:rgb(62,169,245);fill-rule:nonzero;"/>            </g>            <g transform="matrix(12,0,0,12,193.948,15.1287)">                <path d="M0.502,-0.01c0,0.007 -0.003,0.01 -0.01,0.01l-0.094,0c-0.007,0 -0.01,-0.003 -0.01,-0.01l0,-0.247c0,-0.007 -0.003,-0.01 -0.01,-0.01l-0.186,0c-0.007,0 -0.01,0.003 -0.01,0.01l0,0.247c0,0.007 -0.003,0.01 -0.01,0.01l-0.095,0c-0.007,0 -0.01,-0.003 -0.01,-0.01l0,-0.61c0,-0.007 0.003,-0.01 0.01,-0.01l0.095,0c0.007,0 0.01,0.003 0.01,0.01l0,0.238c0,0.007 0.003,0.01 0.01,0.01l0.186,0c0.007,0 0.01,-0.003 0.01,-0.01l0,-0.238c0,-0.007 0.003,-0.01 0.01,-0.01l0.094,0c0.007,0 0.01,0.003 0.01,0.01l0,0.61Z" style="fill:rgb(62,169,245);fill-rule:nonzero;"/>            </g>            <g transform="matrix(12,0,0,12,200.788,15.1287)">                <path d="M0.44,-0.01c0,0.007 -0.003,0.01 -0.01,0.01l-0.353,0c-0.007,0 -0.01,-0.003 -0.01,-0.01l0,-0.61c0,-0.007 0.003,-0.01 0.01,-0.01l0.353,0c0.007,0 0.01,0.003 0.01,0.01l0,0.085c0,0.007 -0.003,0.01 -0.01,0.01l-0.238,0c-0.007,0 -0.01,0.003 -0.01,0.01l0,0.133c0,0.007 0.003,0.01 0.01,0.01l0.195,0c0.007,0 0.01,0.003 0.01,0.01l0,0.085c0,0.007 -0.003,0.01 -0.01,0.01l-0.195,0c-0.007,0 -0.01,0.003 -0.01,0.01l0,0.142c0,0.007 0.003,0.01 0.01,0.01l0.238,0c0.007,0 0.01,0.003 0.01,0.01l0,0.085Z" style="fill:rgb(62,169,245);fill-rule:nonzero;"/>            </g>            <g transform="matrix(12.9213,0,0,12,189.298,25.955)">                <path d="M0.459,-0.118c0.004,0.002 0.006,0.005 0.006,0.008c0,0.005 -0.004,0.015 -0.011,0.028c-0.007,0.013 -0.02,0.029 -0.037,0.046c-0.03,0.031 -0.073,0.046 -0.129,0.046l-0.049,0c-0.028,0 -0.054,-0.004 -0.077,-0.012c-0.023,-0.009 -0.042,-0.021 -0.059,-0.036c-0.016,-0.016 -0.028,-0.035 -0.037,-0.056c-0.009,-0.022 -0.013,-0.046 -0.013,-0.073l0,-0.296c0,-0.027 0.004,-0.051 0.013,-0.072c0.009,-0.022 0.022,-0.041 0.038,-0.056c0.016,-0.015 0.035,-0.027 0.058,-0.036c0.023,-0.009 0.049,-0.013 0.077,-0.013l0.049,0c0.023,0 0.043,0.003 0.062,0.008c0.019,0.005 0.036,0.014 0.051,0.025c0.01,0.007 0.019,0.015 0.027,0.024c0.008,0.009 0.015,0.017 0.02,0.025c0.005,0.008 0.009,0.015 0.012,0.022c0.003,0.007 0.005,0.011 0.005,0.014c0,0.003 -0.002,0.006 -0.006,0.008l-0.087,0.043c-0.001,0.001 -0.003,0.001 -0.005,0.001c-0.003,0 -0.006,-0.002 -0.007,-0.005c-0.001,-0.003 -0.004,-0.007 -0.007,-0.012c-0.009,-0.015 -0.018,-0.027 -0.028,-0.035c-0.01,-0.009 -0.022,-0.013 -0.037,-0.013l-0.049,0c-0.02,0 -0.037,0.007 -0.051,0.021c-0.014,0.014 -0.021,0.031 -0.021,0.051l0,0.296c0,0.02 0.007,0.037 0.021,0.051c0.014,0.014 0.031,0.021 0.051,0.021l0.049,0c0.015,0 0.027,-0.004 0.036,-0.012c0.01,-0.008 0.019,-0.02 0.028,-0.036c0.006,-0.013 0.011,-0.019 0.015,-0.019c0.002,0 0.004,0 0.005,0.001l0.087,0.043Z" style="fill:rgb(128,128,128);fill-rule:nonzero;"/>            </g>            <g transform="matrix(12.9213,0,0,12,196.067,25.955)">                <path d="M0.374,-0.453c0,-0.019 -0.007,-0.036 -0.022,-0.051c-0.014,-0.014 -0.031,-0.021 -0.05,-0.021l-0.11,0c-0.007,0 -0.01,0.003 -0.01,0.01l0,0.133c0,0.007 0.003,0.01 0.01,0.01l0.11,0c0.019,0 0.036,-0.007 0.05,-0.021c0.015,-0.014 0.022,-0.031 0.022,-0.051l0,-0.009Zm0.124,0.44c0.001,0.001 0.001,0.003 0.001,0.005c0,0.005 -0.003,0.008 -0.01,0.008l-0.103,0c-0.003,0 -0.006,-0.002 -0.009,-0.007l-0.088,-0.254l-0.008,-0.006l-0.089,0c-0.007,0 -0.01,0.003 -0.01,0.01l0,0.247c0,0.007 -0.003,0.01 -0.01,0.01l-0.095,0c-0.007,0 -0.01,-0.003 -0.01,-0.01l0,-0.61c0,-0.007 0.003,-0.01 0.01,-0.01l0.225,0c0.057,0 0.103,0.017 0.136,0.05c0.033,0.033 0.05,0.079 0.05,0.136l0,0.01c0,0.023 -0.005,0.044 -0.015,0.062c-0.009,0.019 -0.019,0.034 -0.029,0.045c-0.009,0.009 -0.019,0.016 -0.028,0.022c-0.008,0.006 -0.013,0.011 -0.013,0.016l0,0.001l0.095,0.275Z" style="fill:rgb(128,128,128);fill-rule:nonzero;"/>            </g>            <g transform="matrix(12.9213,0,0,12,203.169,25.955)">                <path d="M0.359,-0.463c0,-0.021 -0.007,-0.038 -0.02,-0.051c-0.014,-0.014 -0.031,-0.021 -0.051,-0.021l-0.049,0c-0.02,0 -0.037,0.007 -0.051,0.021c-0.014,0.014 -0.021,0.031 -0.021,0.051l0,0.296c0,0.02 0.007,0.037 0.021,0.051c0.014,0.014 0.031,0.021 0.051,0.021l0.049,0c0.02,0 0.037,-0.007 0.051,-0.02c0.013,-0.014 0.02,-0.031 0.02,-0.052l0,-0.296Zm0.115,0.296c0,0.027 -0.004,0.051 -0.013,0.073c-0.009,0.021 -0.022,0.04 -0.038,0.056c-0.016,0.015 -0.035,0.027 -0.058,0.036c-0.024,0.008 -0.049,0.012 -0.077,0.012l-0.049,0c-0.028,0 -0.053,-0.004 -0.076,-0.012c-0.023,-0.009 -0.043,-0.021 -0.059,-0.036c-0.017,-0.016 -0.029,-0.035 -0.038,-0.056c-0.009,-0.022 -0.013,-0.046 -0.013,-0.073l0,-0.296c0,-0.027 0.005,-0.051 0.014,-0.072c0.009,-0.022 0.021,-0.041 0.037,-0.056c0.016,-0.015 0.036,-0.027 0.059,-0.036c0.023,-0.009 0.048,-0.013 0.076,-0.013l0.049,0c0.028,0 0.053,0.004 0.077,0.013c0.023,0.009 0.042,0.021 0.058,0.036c0.016,0.015 0.029,0.034 0.038,0.056c0.009,0.021 0.013,0.045 0.013,0.072l0,0.296Z" style="fill:rgb(128,128,128);fill-rule:nonzero;"/>            </g>            <g transform="matrix(12.9213,0,0,12,210.493,25.955)">                <path d="M0.522,-0.008c-0.001,0.005 -0.005,0.008 -0.01,0.008l-0.073,0c-0.006,0 -0.009,-0.002 -0.01,-0.007l-0.101,-0.396l-0.1,0.396c-0.001,0.005 -0.004,0.007 -0.01,0.007l-0.073,0c-0.005,0 -0.009,-0.003 -0.01,-0.008l-0.132,-0.61c0,-0.001 0,-0.001 0,-0.002c-0.001,-0.001 -0.001,-0.001 -0.001,-0.002c0,-0.005 0.004,-0.008 0.011,-0.008l0.102,0c0.005,0 0.009,0.003 0.01,0.008l0.073,0.407l0.095,-0.41c0.001,-0.005 0.004,-0.007 0.01,-0.007l0.05,0c0.006,0 0.009,0.002 0.01,0.007l0.095,0.41l0.074,-0.407c0.001,-0.005 0.005,-0.008 0.01,-0.008l0.102,0c0.007,0 0.011,0.003 0.011,0.008c0,0.001 0,0.001 0,0.002c-0.001,0.001 -0.001,0.001 -0.001,0.002l-0.132,0.61Z" style="fill:rgb(128,128,128);fill-rule:nonzero;"/>            </g>            <g transform="matrix(12.9213,0,0,12,219.257,25.955)">                <path d="M0.374,-0.453c0,-0.019 -0.007,-0.036 -0.022,-0.051c-0.014,-0.014 -0.031,-0.021 -0.05,-0.021l-0.11,0c-0.007,0 -0.01,0.003 -0.01,0.01l0,0.4c0,0.007 0.003,0.01 0.01,0.01l0.11,0c0.02,0 0.037,-0.007 0.051,-0.021c0.014,-0.014 0.021,-0.031 0.021,-0.051l0,-0.276Zm0.114,0.267c0,0.057 -0.017,0.103 -0.05,0.136c-0.033,0.033 -0.079,0.05 -0.136,0.05l-0.225,0c-0.007,0 -0.01,-0.003 -0.01,-0.01l0,-0.61c0,-0.007 0.003,-0.01 0.01,-0.01l0.225,0c0.057,0 0.103,0.017 0.136,0.05c0.033,0.033 0.05,0.079 0.05,0.136l0,0.258Z" style="fill:rgb(128,128,128);fill-rule:nonzero;"/>            </g>            <g transform="matrix(12,0,0,12,189.124,36.558)">                <path d="M0.44,-0.01c0,0.007 -0.003,0.01 -0.01,0.01l-0.353,0c-0.007,0 -0.01,-0.003 -0.01,-0.01l0,-0.61c0,-0.007 0.003,-0.01 0.01,-0.01l0.353,0c0.007,0 0.01,0.003 0.01,0.01l0,0.085c0,0.007 -0.003,0.01 -0.01,0.01l-0.238,0c-0.007,0 -0.01,0.003 -0.01,0.01l0,0.133c0,0.007 0.003,0.01 0.01,0.01l0.195,0c0.007,0 0.01,0.003 0.01,0.01l0,0.085c0,0.007 -0.003,0.01 -0.01,0.01l-0.195,0c-0.007,0 -0.01,0.003 -0.01,0.01l0,0.142c0,0.007 0.003,0.01 0.01,0.01l0.238,0c0.007,0 0.01,0.003 0.01,0.01l0,0.085Z" style="fill:rgb(62,169,245);fill-rule:nonzero;"/>            </g>            <g transform="matrix(12,0,0,12,195.052,36.558)">                <path d="M0.22,-0.535c-0.019,0 -0.036,0.007 -0.05,0.021c-0.015,0.013 -0.022,0.03 -0.022,0.051c0,0.012 0.003,0.022 0.009,0.03c0.005,0.008 0.013,0.015 0.023,0.022c0.01,0.007 0.022,0.013 0.037,0.02c0.014,0.006 0.03,0.013 0.047,0.021c0.027,0.012 0.05,0.025 0.07,0.038c0.019,0.014 0.035,0.029 0.048,0.045c0.014,0.016 0.023,0.034 0.03,0.054c0.006,0.019 0.009,0.041 0.009,0.066c0,0.027 -0.004,0.051 -0.013,0.073c-0.009,0.021 -0.021,0.04 -0.038,0.056c-0.016,0.015 -0.036,0.027 -0.059,0.036c-0.023,0.008 -0.048,0.012 -0.076,0.012l-0.04,0c-0.057,0 -0.1,-0.016 -0.13,-0.047c-0.017,-0.017 -0.029,-0.032 -0.036,-0.045c-0.007,-0.013 -0.01,-0.023 -0.01,-0.028c0,-0.003 0.002,-0.005 0.006,-0.007l0.087,-0.043c0.001,-0.001 0.003,-0.001 0.005,-0.001c0.003,0 0.006,0.003 0.008,0.008c0.002,0.005 0.006,0.012 0.011,0.022c0.005,0.011 0.014,0.019 0.025,0.026c0.011,0.007 0.023,0.01 0.034,0.01l0.04,0c0.019,0 0.036,-0.007 0.05,-0.021c0.015,-0.014 0.022,-0.031 0.022,-0.051c0,-0.025 -0.01,-0.043 -0.029,-0.056c-0.019,-0.013 -0.045,-0.028 -0.078,-0.043c-0.027,-0.013 -0.051,-0.027 -0.072,-0.039c-0.021,-0.014 -0.038,-0.028 -0.052,-0.043c-0.014,-0.015 -0.025,-0.031 -0.032,-0.05c-0.006,-0.019 -0.01,-0.04 -0.01,-0.065c0,-0.027 0.005,-0.051 0.014,-0.073c0.009,-0.021 0.021,-0.04 0.037,-0.055c0.016,-0.015 0.036,-0.027 0.059,-0.036c0.023,-0.009 0.048,-0.013 0.076,-0.013l0.015,0c0.045,0 0.083,0.011 0.114,0.033c0.01,0.007 0.019,0.015 0.027,0.023c0.007,0.009 0.014,0.017 0.02,0.025c0.005,0.009 0.01,0.016 0.013,0.023c0.003,0.007 0.004,0.011 0.004,0.014c0,0.003 -0.002,0.006 -0.006,0.008l-0.087,0.043c-0.001,0.001 -0.003,0.001 -0.005,0.001c-0.003,0 -0.005,-0.001 -0.006,-0.004c-0.001,-0.003 -0.004,-0.006 -0.007,-0.011c-0.009,-0.016 -0.019,-0.028 -0.029,-0.037c-0.01,-0.009 -0.023,-0.013 -0.038,-0.013l-0.015,0Z" style="fill:rgb(62,169,245);fill-rule:nonzero;"/>            </g>            <g transform="matrix(12,0,0,12,200.332,36.558)">                <path d="M0.387,-0.535c0,0.007 -0.003,0.01 -0.01,0.01l-0.109,0c-0.007,0 -0.01,0.003 -0.01,0.01l0,0.505c0,0.007 -0.003,0.01 -0.01,0.01l-0.094,0c-0.007,0 -0.01,-0.003 -0.01,-0.01l0,-0.505c0,-0.007 -0.003,-0.01 -0.01,-0.01l-0.109,0c-0.007,0 -0.01,-0.003 -0.01,-0.01l0,-0.085c0,-0.007 0.003,-0.01 0.01,-0.01l0.352,0c0.007,0 0.01,0.003 0.01,0.01l0,0.085Z" style="fill:rgb(62,169,245);fill-rule:nonzero;"/>            </g>            <g transform="matrix(12,0,0,12,204.832,36.558)">                <path d="M0.238,-0.368c-0.001,-0.003 -0.002,-0.01 -0.004,-0.019c-0.001,-0.009 -0.004,-0.021 -0.007,-0.036l-0.003,0c-0.007,0.032 -0.011,0.05 -0.012,0.055l-0.034,0.132c0,0.001 0,0.001 -0.001,0.002c0,0.001 0,0.001 0,0.002c0,0.006 0.004,0.009 0.011,0.009l0.073,0c0.007,0 0.011,-0.003 0.011,-0.009c0,-0.001 0,-0.001 -0.001,-0.002c0,-0.001 0,-0.001 0,-0.002l-0.033,-0.132Zm0.219,0.355c0,0.001 0,0.002 0.001,0.003c0,0 0,0 0,0.001c0,0.006 -0.004,0.009 -0.011,0.009l-0.101,0c-0.006,0 -0.009,-0.002 -0.01,-0.007l-0.03,-0.105c-0.001,-0.004 -0.004,-0.006 -0.01,-0.006l-0.143,0c-0.006,0 -0.009,0.002 -0.01,0.006l-0.03,0.105c-0.001,0.005 -0.004,0.007 -0.01,0.007l-0.1,0c-0.007,0 -0.011,-0.003 -0.011,-0.009c0,-0.001 0,-0.001 0.001,-0.001c0,-0.001 0,-0.002 0,-0.003l0.186,-0.61c0.002,-0.005 0.005,-0.007 0.01,-0.007l0.072,0c0.005,0 0.008,0.002 0.01,0.007l0.186,0.61Z" style="fill:rgb(62,169,245);fill-rule:nonzero;"/>            </g>            <g transform="matrix(12,0,0,12,209.92,36.558)">                <path d="M0.387,-0.535c0,0.007 -0.003,0.01 -0.01,0.01l-0.109,0c-0.007,0 -0.01,0.003 -0.01,0.01l0,0.505c0,0.007 -0.003,0.01 -0.01,0.01l-0.094,0c-0.007,0 -0.01,-0.003 -0.01,-0.01l0,-0.505c0,-0.007 -0.003,-0.01 -0.01,-0.01l-0.109,0c-0.007,0 -0.01,-0.003 -0.01,-0.01l0,-0.085c0,-0.007 0.003,-0.01 0.01,-0.01l0.352,0c0.007,0 0.01,0.003 0.01,0.01l0,0.085Z" style="fill:rgb(62,169,245);fill-rule:nonzero;"/>            </g>            <g transform="matrix(12,0,0,12,214.744,36.558)">                <path d="M0.44,-0.01c0,0.007 -0.003,0.01 -0.01,0.01l-0.353,0c-0.007,0 -0.01,-0.003 -0.01,-0.01l0,-0.61c0,-0.007 0.003,-0.01 0.01,-0.01l0.353,0c0.007,0 0.01,0.003 0.01,0.01l0,0.085c0,0.007 -0.003,0.01 -0.01,0.01l-0.238,0c-0.007,0 -0.01,0.003 -0.01,0.01l0,0.133c0,0.007 0.003,0.01 0.01,0.01l0.195,0c0.007,0 0.01,0.003 0.01,0.01l0,0.085c0,0.007 -0.003,0.01 -0.01,0.01l-0.195,0c-0.007,0 -0.01,0.003 -0.01,0.01l0,0.142c0,0.007 0.003,0.01 0.01,0.01l0.238,0c0.007,0 0.01,0.003 0.01,0.01l0,0.085Z" style="fill:rgb(62,169,245);fill-rule:nonzero;"/>            </g>            <g transform="matrix(12,0,0,12,220.672,36.558)">                <path d="M0.22,-0.535c-0.019,0 -0.036,0.007 -0.05,0.021c-0.015,0.013 -0.022,0.03 -0.022,0.051c0,0.012 0.003,0.022 0.009,0.03c0.005,0.008 0.013,0.015 0.023,0.022c0.01,0.007 0.022,0.013 0.037,0.02c0.014,0.006 0.03,0.013 0.047,0.021c0.027,0.012 0.05,0.025 0.07,0.038c0.019,0.014 0.035,0.029 0.048,0.045c0.014,0.016 0.023,0.034 0.03,0.054c0.006,0.019 0.009,0.041 0.009,0.066c0,0.027 -0.004,0.051 -0.013,0.073c-0.009,0.021 -0.021,0.04 -0.038,0.056c-0.016,0.015 -0.036,0.027 -0.059,0.036c-0.023,0.008 -0.048,0.012 -0.076,0.012l-0.04,0c-0.057,0 -0.1,-0.016 -0.13,-0.047c-0.017,-0.017 -0.029,-0.032 -0.036,-0.045c-0.007,-0.013 -0.01,-0.023 -0.01,-0.028c0,-0.003 0.002,-0.005 0.006,-0.007l0.087,-0.043c0.001,-0.001 0.003,-0.001 0.005,-0.001c0.003,0 0.006,0.003 0.008,0.008c0.002,0.005 0.006,0.012 0.011,0.022c0.005,0.011 0.014,0.019 0.025,0.026c0.011,0.007 0.023,0.01 0.034,0.01l0.04,0c0.019,0 0.036,-0.007 0.05,-0.021c0.015,-0.014 0.022,-0.031 0.022,-0.051c0,-0.025 -0.01,-0.043 -0.029,-0.056c-0.019,-0.013 -0.045,-0.028 -0.078,-0.043c-0.027,-0.013 -0.051,-0.027 -0.072,-0.039c-0.021,-0.014 -0.038,-0.028 -0.052,-0.043c-0.014,-0.015 -0.025,-0.031 -0.032,-0.05c-0.006,-0.019 -0.01,-0.04 -0.01,-0.065c0,-0.027 0.005,-0.051 0.014,-0.073c0.009,-0.021 0.021,-0.04 0.037,-0.055c0.016,-0.015 0.036,-0.027 0.059,-0.036c0.023,-0.009 0.048,-0.013 0.076,-0.013l0.015,0c0.045,0 0.083,0.011 0.114,0.033c0.01,0.007 0.019,0.015 0.027,0.023c0.007,0.009 0.014,0.017 0.02,0.025c0.005,0.009 0.01,0.016 0.013,0.023c0.003,0.007 0.004,0.011 0.004,0.014c0,0.003 -0.002,0.006 -0.006,0.008l-0.087,0.043c-0.001,0.001 -0.003,0.001 -0.005,0.001c-0.003,0 -0.005,-0.001 -0.006,-0.004c-0.001,-0.003 -0.004,-0.006 -0.007,-0.011c-0.009,-0.016 -0.019,-0.028 -0.029,-0.037c-0.01,-0.009 -0.023,-0.013 -0.038,-0.013l-0.015,0Z" style="fill:rgb(62,169,245);fill-rule:nonzero;"/>            </g>        </g>        <g>            <path d="M55.334,3.446l-18.574,17l-2,34.196l20.574,-20l0,-31.196Z" style="fill:rgb(128,128,128);"/>            <g transform="matrix(1,0,0,1,-24.0576,23.2764)">                <path d="M59.334,-1.554l-19.574,19l-5,37.196l21.574,-21l3,-35.196Z" style="fill:rgb(128,128,128);"/>            </g>            <g transform="matrix(1,0,0,1,-24.0576,23.2764)">                <path d="M56.166,37.031l-22.808,23.25l-7.831,52.582l26.517,-27.4l4.122,-48.432Z" style="fill:rgb(128,128,128);"/>            </g>            <g transform="matrix(1,0,0,1,-24.0576,23.2764)">                <path d="M49.822,122.123l1.83,-31.262l-28.795,31.393l26.965,-0.131Z" style="fill:rgb(128,128,128);"/>            </g>            <g transform="matrix(1,0,0,1,0,110)">                <path d="M55.334,-24.554l-25.574,26l-1.488,34.129l27.062,0.432l0,-60.561Z" style="fill:rgb(128,128,128);"/>            </g>            <g transform="matrix(1,0,0,1,0,70)">                <path d="M55.334,-32.554l-20.574,21l-3.176,47.149l23.75,-25.286l0,-42.863Z" style="fill:rgb(128,128,128);"/>            </g>            <g transform="matrix(-1,0,0,1,113.97,0)">                <path d="M55.334,3.446l-18.574,17l-2,34.196l20.574,-20l0,-31.196Z" style="fill:rgb(62,169,245);"/>            </g>            <g transform="matrix(-1,0,0,1,138.028,23.2764)">                <path d="M59.334,-1.554l-19.574,19l-5,37.196l21.574,-21l3,-35.196Z" style="fill:rgb(62,169,245);"/>            </g>            <g transform="matrix(-1,0,0,1,138.028,23.2764)">                <path d="M56.166,37.031l-22.808,23.25l-7.831,52.582l26.517,-27.4l4.122,-48.432Z" style="fill:rgb(62,169,245);"/>            </g>            <g transform="matrix(-1,0,0,1,138.028,23.2764)">                <path d="M49.822,122.123l1.83,-31.262l-28.795,31.393l26.965,-0.131Z" style="fill:rgb(62,169,245);"/>            </g>            <g transform="matrix(-1,0,0,1,113.97,110)">                <path d="M55.334,-24.554l-25.574,26l-1.488,34.129l27.062,0.432l0,-60.561Z" style="fill:rgb(62,169,245);"/>            </g>            <g transform="matrix(-1,0,0,1,113.97,70)">                <path d="M55.334,-32.554l-20.574,21l-3.176,47.149l23.75,-25.286l0,-42.863Z" style="fill:rgb(62,169,245);"/>            </g>        </g>    </g></svg>