<?xml version="1.0" encoding="UTF-8" standalone="no"?><!DOCTYPE svg PUBLIC "-//W3C//DTD SVG 1.1//EN" "http://www.w3.org/Graphics/SVG/1.1/DTD/svg11.dtd"><svg width="100%" height="100%" viewBox="0 0 1024 512" version="1.1" xmlns="http://www.w3.org/2000/svg" xmlns:xlink="http://www.w3.org/1999/xlink" xml:space="preserve" style="fill-rule:evenodd;clip-rule:evenodd;stroke-linejoin:round;stroke-miterlimit:2;"><title>Planeta Cash</title><desc>Planet Cash is a Russia-based micro lending company, that has been founded in 2018. The company is focusing solely on online loans from Eur30 to Eur400. Planet Cash is founded by as trusted Grupeer partner, who previously worked in offline segment. After rebranding it has issued first online loan on 21st January 2019. In February 2019 the volume of issued loans has exceeded 10 times the offline volume.</desc>    <g transform="matrix(1,0,0,1,2,162.16)">        <g transform="matrix(4.08,0,0,4.08,-281.52,-118.32)">            <path d="M126,65.444l0,-23.969l14.8,0l0,23.969l-4.3,0l0,-20.41l-6.221,0l0,20.41l-4.279,0Zm29.871,0l0,-20.41l-5.564,0l0,13.827c0.016,1.064 -0.091,2.126 -0.321,3.165c-0.176,0.816 -0.545,1.578 -1.078,2.221c-0.544,0.613 -1.244,1.068 -2.025,1.315c-1.022,0.315 -2.088,0.461 -3.157,0.433l0,-3.558c0.403,0.015 0.804,-0.06 1.173,-0.221c0.305,-0.152 0.552,-0.401 0.7,-0.708c0.187,-0.399 0.3,-0.829 0.336,-1.268c0.063,-0.631 0.091,-1.266 0.086,-1.9l0,-16.865l14.149,0l0,23.969l-4.3,0l0.001,0Zm7.208,0l5.674,-23.969l5.83,0l5.689,23.969l-4.345,0l-1.127,-5.622l-6.267,0l-1.125,5.622l-4.33,0l0.001,0Zm6.159,-9.165l4.86,0l-2.218,-11.179l-0.407,0l-2.235,11.179Zm14.32,9.165l0,-23.969l4.3,0l0,10.125l6.753,0l0,-10.125l4.282,0l0,23.969l-4.282,0l0,-10.3l-6.753,0l0,10.3l-4.3,0Zm20.7,0l0,-23.969l13.082,0l0,3.544l-8.8,0l0,6.472l7.252,0l0,3.528l-7.252,0l0,6.9l8.8,0l0,3.527l-13.085,0l0.003,-0.002Zm24.9,-20.426l0,20.426l-4.3,0l0,-20.426l-5.252,0l0,-3.543l14.817,0l0,3.544l-5.267,0l0.002,-0.001Zm5.083,20.426l5.674,-23.969l5.829,0l5.689,23.969l-4.345,0l-1.125,-5.622l-6.268,0l-1.124,5.622l-4.33,0Zm6.158,-9.165l4.861,0l-2.222,-11.179l-0.406,0l-2.233,11.179Zm21.126,9.165l0,-23.969l4.282,0l0,10.063l2.375,0l3.689,-10.064l4.689,0l-4.72,11.559l5.533,12.41l-4.7,0l-4.221,-10.362l-2.641,0l0,10.363l-4.282,0l-0.004,0Zm18.133,-16c0.001,-0.687 0.045,-1.374 0.133,-2.056c0.085,-0.669 0.237,-1.329 0.453,-1.968c0.21,-0.618 0.499,-1.205 0.86,-1.749c0.366,-0.547 0.83,-1.022 1.368,-1.4c0.598,-0.416 1.261,-0.73 1.961,-0.929c0.856,-0.24 1.743,-0.356 2.632,-0.342c1.328,-0.049 2.648,0.229 3.844,0.81c0.977,0.511 1.807,1.265 2.407,2.19c0.617,0.977 1.042,2.063 1.25,3.2c0.246,1.269 0.366,2.559 0.36,3.851l0,5.007c0.001,0.85 -0.049,1.7 -0.149,2.544c-0.092,0.792 -0.261,1.572 -0.507,2.33c-0.23,0.709 -0.548,1.386 -0.946,2.016c-0.388,0.611 -0.883,1.147 -1.461,1.583c-0.623,0.461 -1.321,0.81 -2.064,1.031c-0.888,0.26 -1.809,0.385 -2.734,0.37c-0.889,0.015 -1.776,-0.097 -2.634,-0.331c-0.698,-0.193 -1.358,-0.502 -1.954,-0.913c-0.535,-0.377 -0.998,-0.847 -1.367,-1.388c-0.365,-0.536 -0.657,-1.119 -0.868,-1.732c-0.217,-0.636 -0.369,-1.293 -0.453,-1.96c-0.088,-0.687 -0.133,-1.379 -0.133,-2.071l4.189,0c-0.007,0.686 0.05,1.371 0.171,2.047c0.092,0.536 0.28,1.051 0.555,1.52c0.243,0.404 0.595,0.732 1.016,0.945c0.491,0.23 1.029,0.34 1.571,0.322c0.583,0.021 1.161,-0.115 1.673,-0.393c0.453,-0.267 0.823,-0.654 1.071,-1.118c0.286,-0.546 0.476,-1.138 0.562,-1.748c0.115,-0.761 0.17,-1.53 0.164,-2.3l0,-1.793l-6.892,0l0,-3.528l6.892,0l0,-1.244c0.005,-0.78 -0.05,-1.559 -0.164,-2.33c-0.086,-0.626 -0.274,-1.234 -0.555,-1.8c-0.24,-0.477 -0.608,-0.877 -1.062,-1.158c-0.509,-0.288 -1.088,-0.43 -1.673,-0.409c-0.608,-0.027 -1.211,0.114 -1.743,0.409c-0.432,0.262 -0.784,0.638 -1.016,1.087c-0.246,0.491 -0.404,1.021 -0.468,1.567c-0.079,0.608 -0.119,1.221 -0.118,1.835l-4.173,0l0.002,-0.004Zm39.342,-7.969l0,23.969l-19.99,0l0,-23.969l4.266,0l0,20.41l3.705,0l0,-20.41l4.267,0l0,20.41l3.485,0l0,-20.41l4.267,0Z" style="fill-rule:nonzero;"/>        </g>        <g transform="matrix(4.08,0,0,4.08,-281.52,-118.32)">            <path d="M92,75c-12.617,0 -23,-10.383 -23,-23c0,-12.617 10.383,-23 23,-23l0,2.826c-0.001,0 -0.003,0 -0.004,0c-11.068,0 -20.176,9.108 -20.176,20.176c0,11.068 9.108,20.176 20.176,20.176c11.068,0 20.176,-9.108 20.176,-20.176c0,-0.001 0,-0.001 0,-0.002l2.828,0c-0.015,12.612 -10.388,22.985 -23,23Zm11.511,-11.647c3.05,-3.02 4.766,-7.141 4.761,-11.433l0,-1.413l-10.133,0l0,1.414c0,3.327 -2.738,6.065 -6.065,6.065c-3.327,0 -6.065,-2.738 -6.065,-6.065c0,-3.327 2.738,-6.065 6.065,-6.065l1.414,0l0,-10.131l-1.418,0c-8.836,0.069 -16.068,7.358 -16.068,16.194c0,8.837 7.232,16.126 16.068,16.195l0.011,0c4.29,0.002 8.407,-1.714 11.426,-4.761l0.004,0Zm-11.442,1.935c-7.319,-0.023 -13.328,-6.052 -13.328,-13.371c0,-6.789 5.171,-12.555 11.92,-13.292l0,4.516c-4.291,0.691 -7.478,4.432 -7.478,8.778c0,4.877 4.014,8.891 8.891,8.891c4.346,0 8.087,-3.186 8.778,-7.477l4.516,0c-0.753,6.746 -6.502,11.918 -13.29,11.955l-0.009,0Zm11.436,-24.8c-0.335,-0.336 -0.681,-0.654 -1.038,-0.957l-7.224,7.224l-4.243,4.245l2,2l4.246,-4.25l2.035,-2.031l3.179,-3.183l2.007,-2c-0.305,-0.365 -0.626,-0.715 -0.962,-1.051l0,0.003Z" style="fill:rgb(95,37,159);fill-rule:nonzero;"/>        </g>    </g></svg>