<?xml version="1.0" encoding="UTF-8" standalone="no"?><!DOCTYPE svg PUBLIC "-//W3C//DTD SVG 1.1//EN" "http://www.w3.org/Graphics/SVG/1.1/DTD/svg11.dtd"><svg width="100%" height="100%" viewBox="0 0 1024 512" version="1.1" xmlns="http://www.w3.org/2000/svg" xmlns:xlink="http://www.w3.org/1999/xlink" xml:space="preserve" style="fill-rule:evenodd;clip-rule:evenodd;stroke-linejoin:round;stroke-miterlimit:2;"><title>Omaraha</title><desc>The main activity of the omaraha.ee portal is the brokerage and management of loans from person to person.Borrowing from person to person is a very common way of borrowing. It's like lending to a good friend - the difference is that here you have the opportunity to lend to many good people. And there are also many good people here who want to give you a loan.</desc>    <g transform="matrix(1.91849,0,0,1.91849,-6.49521,15.6451)">        <g transform="matrix(1.21051,0,0,1.21051,-39.6565,-112.36)">            <g transform="matrix(72,0,0,72,151.045,224.63)">                <path d="M0.797,-0.35l0,-0.002c0,-0.05 -0.009,-0.097 -0.028,-0.14c-0.018,-0.044 -0.044,-0.082 -0.077,-0.114c-0.033,-0.033 -0.072,-0.058 -0.117,-0.077c-0.045,-0.019 -0.095,-0.029 -0.149,-0.029c-0.054,0 -0.104,0.01 -0.15,0.029c-0.045,0.019 -0.085,0.044 -0.118,0.078c-0.033,0.032 -0.058,0.071 -0.077,0.115c-0.019,0.043 -0.028,0.09 -0.028,0.14l0,0.002c0,0.05 0.009,0.097 0.027,0.141c0.019,0.043 0.044,0.081 0.077,0.114c0.033,0.032 0.073,0.058 0.118,0.077c0.045,0.019 0.095,0.028 0.149,0.028c0.054,0 0.104,-0.009 0.149,-0.028c0.046,-0.019 0.085,-0.045 0.118,-0.078c0.033,-0.033 0.059,-0.072 0.078,-0.115c0.019,-0.044 0.028,-0.091 0.028,-0.141Zm-0.161,0.002c0,0.03 -0.005,0.058 -0.015,0.085c-0.011,0.026 -0.025,0.049 -0.043,0.069c-0.019,0.02 -0.041,0.036 -0.067,0.047c-0.026,0.011 -0.054,0.017 -0.085,0.017c-0.031,0 -0.06,-0.006 -0.085,-0.017c-0.026,-0.012 -0.048,-0.028 -0.067,-0.048c-0.019,-0.02 -0.034,-0.043 -0.044,-0.07c-0.011,-0.027 -0.016,-0.055 -0.016,-0.085l0,-0.002c0,-0.03 0.005,-0.058 0.016,-0.084c0.01,-0.027 0.024,-0.05 0.043,-0.07c0.018,-0.02 0.04,-0.036 0.066,-0.047c0.025,-0.011 0.054,-0.017 0.085,-0.017c0.031,0 0.059,0.006 0.085,0.018c0.026,0.011 0.049,0.027 0.068,0.047c0.019,0.02 0.033,0.043 0.044,0.07c0.01,0.027 0.015,0.055 0.015,0.085l0,0.002Z" style="fill:rgb(39,37,38);fill-rule:nonzero;"/>            </g>            <g transform="matrix(72,0,0,72,211.419,224.63)">                <path d="M0.886,0l0,-0.349c0,-0.065 -0.016,-0.114 -0.048,-0.147c-0.032,-0.033 -0.076,-0.05 -0.133,-0.05c-0.037,0 -0.069,0.007 -0.098,0.022c-0.029,0.014 -0.055,0.035 -0.078,0.063c-0.014,-0.027 -0.034,-0.048 -0.059,-0.063c-0.026,-0.015 -0.057,-0.022 -0.092,-0.022c-0.019,0 -0.037,0.002 -0.052,0.007c-0.016,0.005 -0.03,0.011 -0.043,0.019c-0.013,0.008 -0.024,0.017 -0.035,0.028c-0.01,0.01 -0.019,0.021 -0.028,0.032l0,-0.076l-0.152,0l0,0.536l0.152,0l0,-0.299c0,-0.036 0.008,-0.063 0.024,-0.082c0.017,-0.018 0.039,-0.027 0.068,-0.027c0.029,0 0.051,0.009 0.066,0.027c0.015,0.019 0.023,0.046 0.023,0.082l0,0.299l0.152,0l0,-0.299c0,-0.036 0.008,-0.063 0.024,-0.082c0.017,-0.018 0.039,-0.027 0.068,-0.027c0.029,0 0.051,0.009 0.066,0.027c0.015,0.019 0.023,0.046 0.023,0.082l0,0.299l0.152,0Z" style="fill:rgb(39,37,38);fill-rule:nonzero;"/>            </g>            <g transform="matrix(72,0,0,72,280.645,224.63)">                <path d="M0.529,0l0,-0.311c0,-0.073 -0.019,-0.129 -0.057,-0.17c-0.038,-0.041 -0.099,-0.061 -0.182,-0.061c-0.045,0 -0.084,0.004 -0.116,0.012c-0.032,0.008 -0.063,0.018 -0.092,0.031l0.038,0.116c0.025,-0.009 0.048,-0.017 0.07,-0.022c0.023,-0.005 0.049,-0.007 0.078,-0.007c0.038,0 0.067,0.008 0.086,0.025c0.019,0.017 0.029,0.041 0.029,0.073l0,0.009c-0.019,-0.007 -0.039,-0.012 -0.06,-0.016c-0.02,-0.004 -0.044,-0.006 -0.071,-0.006c-0.032,0 -0.061,0.004 -0.088,0.011c-0.026,0.007 -0.049,0.017 -0.068,0.031c-0.019,0.014 -0.033,0.032 -0.044,0.053c-0.011,0.021 -0.016,0.047 -0.016,0.076l0,0.002c0,0.027 0.005,0.05 0.014,0.071c0.01,0.02 0.023,0.037 0.04,0.051c0.017,0.014 0.036,0.025 0.058,0.032c0.023,0.007 0.047,0.01 0.072,0.01c0.037,0 0.069,-0.006 0.095,-0.018c0.026,-0.013 0.048,-0.029 0.067,-0.05l0,0.058l0.147,0Zm-0.144,-0.189c0,0.028 -0.011,0.051 -0.033,0.068c-0.021,0.017 -0.05,0.026 -0.086,0.026c-0.025,0 -0.045,-0.006 -0.06,-0.017c-0.015,-0.011 -0.023,-0.027 -0.023,-0.048l0,-0.002c0,-0.024 0.009,-0.042 0.028,-0.055c0.019,-0.013 0.044,-0.019 0.077,-0.019c0.019,0 0.036,0.002 0.052,0.005c0.017,0.004 0.032,0.009 0.045,0.015l0,0.027Z" style="fill:rgb(39,37,38);fill-rule:nonzero;"/>            </g>            <g transform="matrix(72,0,0,72,322.443,224.63)">                <path d="M0.391,-0.387l0,-0.159c-0.045,-0.002 -0.081,0.008 -0.108,0.03c-0.027,0.022 -0.048,0.051 -0.063,0.088l0,-0.108l-0.152,0l0,0.536l0.152,0l0,-0.198c0,-0.065 0.014,-0.112 0.043,-0.143c0.029,-0.031 0.069,-0.046 0.12,-0.046l0.008,0Z" style="fill:rgb(39,37,38);fill-rule:nonzero;"/>            </g>            <g transform="matrix(72,0,0,72,350.061,224.63)">                <path d="M0.529,0l0,-0.311c0,-0.073 -0.019,-0.129 -0.057,-0.17c-0.038,-0.041 -0.099,-0.061 -0.182,-0.061c-0.045,0 -0.084,0.004 -0.116,0.012c-0.032,0.008 -0.063,0.018 -0.092,0.031l0.038,0.116c0.025,-0.009 0.048,-0.017 0.07,-0.022c0.023,-0.005 0.049,-0.007 0.078,-0.007c0.038,0 0.067,0.008 0.086,0.025c0.019,0.017 0.029,0.041 0.029,0.073l0,0.009c-0.019,-0.007 -0.039,-0.012 -0.06,-0.016c-0.02,-0.004 -0.044,-0.006 -0.071,-0.006c-0.032,0 -0.061,0.004 -0.088,0.011c-0.026,0.007 -0.049,0.017 -0.068,0.031c-0.019,0.014 -0.033,0.032 -0.044,0.053c-0.011,0.021 -0.016,0.047 -0.016,0.076l0,0.002c0,0.027 0.005,0.05 0.014,0.071c0.01,0.02 0.023,0.037 0.04,0.051c0.017,0.014 0.036,0.025 0.058,0.032c0.023,0.007 0.047,0.01 0.072,0.01c0.037,0 0.069,-0.006 0.095,-0.018c0.026,-0.013 0.048,-0.029 0.067,-0.05l0,0.058l0.147,0Zm-0.144,-0.189c0,0.028 -0.011,0.051 -0.033,0.068c-0.021,0.017 -0.05,0.026 -0.086,0.026c-0.025,0 -0.045,-0.006 -0.06,-0.017c-0.015,-0.011 -0.023,-0.027 -0.023,-0.048l0,-0.002c0,-0.024 0.009,-0.042 0.028,-0.055c0.019,-0.013 0.044,-0.019 0.077,-0.019c0.019,0 0.036,0.002 0.052,0.005c0.017,0.004 0.032,0.009 0.045,0.015l0,0.027Z" style="fill:rgb(39,37,38);fill-rule:nonzero;"/>            </g>            <g transform="matrix(72,0,0,72,392.685,224.63)">                <path d="M0.559,0l0,-0.347c0,-0.062 -0.016,-0.111 -0.047,-0.146c-0.032,-0.035 -0.077,-0.053 -0.135,-0.053c-0.019,0 -0.037,0.002 -0.052,0.007c-0.015,0.005 -0.029,0.011 -0.042,0.019c-0.013,0.008 -0.024,0.017 -0.035,0.028c-0.01,0.01 -0.019,0.021 -0.028,0.032l0,-0.27l-0.152,0l0,0.73l0.152,0l0,-0.299c0,-0.036 0.008,-0.063 0.025,-0.082c0.017,-0.018 0.041,-0.027 0.07,-0.027c0.029,0 0.052,0.009 0.068,0.028c0.016,0.018 0.024,0.045 0.024,0.081l0,0.299l0.152,0Z" style="fill:rgb(39,37,38);fill-rule:nonzero;"/>            </g>            <g transform="matrix(72,0,0,72,437.541,224.63)">                <path d="M0.529,0l0,-0.311c0,-0.073 -0.019,-0.129 -0.057,-0.17c-0.038,-0.041 -0.099,-0.061 -0.182,-0.061c-0.045,0 -0.084,0.004 -0.116,0.012c-0.032,0.008 -0.063,0.018 -0.092,0.031l0.038,0.116c0.025,-0.009 0.048,-0.017 0.07,-0.022c0.023,-0.005 0.049,-0.007 0.078,-0.007c0.038,0 0.067,0.008 0.086,0.025c0.019,0.017 0.029,0.041 0.029,0.073l0,0.009c-0.019,-0.007 -0.039,-0.012 -0.06,-0.016c-0.02,-0.004 -0.044,-0.006 -0.071,-0.006c-0.032,0 -0.061,0.004 -0.088,0.011c-0.026,0.007 -0.049,0.017 -0.068,0.031c-0.019,0.014 -0.033,0.032 -0.044,0.053c-0.011,0.021 -0.016,0.047 -0.016,0.076l0,0.002c0,0.027 0.005,0.05 0.014,0.071c0.01,0.02 0.023,0.037 0.04,0.051c0.017,0.014 0.036,0.025 0.058,0.032c0.023,0.007 0.047,0.01 0.072,0.01c0.037,0 0.069,-0.006 0.095,-0.018c0.026,-0.013 0.048,-0.029 0.067,-0.05l0,0.058l0.147,0Zm-0.144,-0.189c0,0.028 -0.011,0.051 -0.033,0.068c-0.021,0.017 -0.05,0.026 -0.086,0.026c-0.025,0 -0.045,-0.006 -0.06,-0.017c-0.015,-0.011 -0.023,-0.027 -0.023,-0.048l0,-0.002c0,-0.024 0.009,-0.042 0.028,-0.055c0.019,-0.013 0.044,-0.019 0.077,-0.019c0.019,0 0.036,0.002 0.052,0.005c0.017,0.004 0.032,0.009 0.045,0.015l0,0.027Z" style="fill:rgb(39,37,38);fill-rule:nonzero;"/>            </g>        </g>        <g>            <path d="M7.282,120.068l11.043,11.069l16.428,-24.63l-27.471,13.561Z" style="fill:rgb(187,0,1);"/>            <path d="M34.082,174.233l14.2,-3.788l-11.774,-21.55l-2.426,25.338Z" style="fill:rgb(187,0,1);"/>            <path d="M93.802,178.466l3.649,-12.552l-26.322,0.013l22.673,12.539Z" style="fill:rgb(187,0,1);"/>            <path d="M128.65,130.785l-10.574,-11.247l-13.151,22.717l23.725,-11.47Z" style="fill:rgb(187,0,1);"/>            <path d="M102.22,75.295l-14.071,4.642l11.704,22.188l2.367,-26.83Z" style="fill:rgb(187,0,1);"/>            <path d="M41.55,72.092l-3.271,12.616l26.308,0l-23.037,-12.616Z" style="fill:rgb(187,0,1);"/>            <path d="M12.974,85.119l-5.692,34.949l24.868,-11.632l-27.722,45.52l29.654,20.277l2.38,-24.5l24.769,43.402l32.571,-14.669l-21.447,-12.552l53.653,0l2.642,-35.129l-23.182,10.765l25.732,-44.926l-28.98,-21.329l-2.69,25.232l-23.822,-43.094l-34.158,14.659l22.232,12.203l-50.808,0.824Z" style="fill:rgb(254,0,0);"/>            <g transform="matrix(1.06716,0,0,1.06716,-7.16753,-10.9855)">                <circle cx="70.878" cy="127.731" r="23.711" style="fill:white;"/>            </g>        </g>    </g></svg>