<?xml version="1.0" encoding="UTF-8" standalone="no"?><!DOCTYPE svg PUBLIC "-//W3C//DTD SVG 1.1//EN" "http://www.w3.org/Graphics/SVG/1.1/DTD/svg11.dtd"><svg width="100%" height="100%" viewBox="0 0 1024 512" version="1.1" xmlns="http://www.w3.org/2000/svg" xmlns:xlink="http://www.w3.org/1999/xlink" xml:space="preserve" style="fill-rule:evenodd;clip-rule:evenodd;stroke-linejoin:round;stroke-miterlimit:2;"><title>Crowdstacker</title><desc>Crowdstacker is an exciting platform that allows you to lend to growing and established British businesses and earn interest on your money at more interesting rates. When investing, capital is at risk.</desc>    <g transform="matrix(5.77581,0,0,5.77581,-149.17,7.03659)">        <g transform="matrix(1,0,0,1,32.591,36.513)">            <path d="M0,13.696c-0.89,0 -1.725,-0.169 -2.506,-0.507c-0.782,-0.339 -1.462,-0.812 -2.036,-1.422c-0.575,-0.608 -1.031,-1.329 -1.368,-2.163c-0.338,-0.833 -0.508,-1.739 -0.508,-2.719l0,-0.037c0,-0.953 0.166,-1.847 0.498,-2.681c0.332,-0.833 0.789,-1.561 1.37,-2.181c0.579,-0.622 1.27,-1.108 2.07,-1.459c0.8,-0.351 1.675,-0.527 2.623,-0.527c0.639,0 1.22,0.066 1.741,0.197c0.522,0.132 0.998,0.321 1.431,0.566c0.433,0.243 0.824,0.536 1.174,0.874c0.349,0.338 0.661,0.708 0.933,1.11l-2.595,2.125c-0.355,-0.476 -0.747,-0.852 -1.173,-1.128c-0.427,-0.276 -0.943,-0.415 -1.547,-0.415c-0.439,0 -0.839,0.092 -1.199,0.274c-0.362,0.182 -0.674,0.43 -0.935,0.743c-0.26,0.314 -0.465,0.684 -0.612,1.11c-0.15,0.427 -0.223,0.878 -0.223,1.354l0,0.038c0,0.489 0.073,0.95 0.223,1.383c0.147,0.432 0.352,0.806 0.612,1.119c0.261,0.314 0.573,0.562 0.935,0.744c0.36,0.181 0.76,0.272 1.199,0.272c0.32,0 0.613,-0.038 0.879,-0.113c0.268,-0.075 0.51,-0.185 0.729,-0.329c0.221,-0.144 0.427,-0.314 0.623,-0.507c0.195,-0.195 0.388,-0.411 0.577,-0.651l2.595,1.958c-0.295,0.426 -0.618,0.821 -0.968,1.185c-0.35,0.364 -0.747,0.677 -1.19,0.941c-0.445,0.263 -0.943,0.469 -1.494,0.62c-0.551,0.151 -1.171,0.226 -1.858,0.226" style="fill:rgb(32,80,102);fill-rule:nonzero;"/>        </g>        <g transform="matrix(1,0,0,1,76.4359,50.0393)">            <path d="M0,-13.301l-2.401,7.657l-2.169,-7.619l-3.645,0l4.161,13.263l3.005,0l2.488,-7.581l2.507,7.581l3.004,0l4.161,-13.263l-3.575,0l-2.167,7.619l-2.4,-7.657l-2.969,0Z" style="fill:rgb(32,80,102);fill-rule:nonzero;"/>        </g>        <g transform="matrix(1,0,0,1,94.6617,40.0122)">            <path d="M0,6.697c1.034,0 1.866,-0.288 2.497,-0.865c0.63,-0.577 0.946,-1.399 0.946,-2.465l0,-0.037c0,-1.054 -0.316,-1.871 -0.946,-2.455c-0.631,-0.584 -1.463,-0.875 -2.497,-0.875l-1.409,0l0,6.697l1.409,0Zm-4.859,-9.933l4.801,0c1.112,0 2.107,0.159 2.977,0.48c0.871,0.32 1.605,0.768 2.204,1.344c0.598,0.577 1.054,1.265 1.37,2.061c0.312,0.797 0.47,1.672 0.47,2.624l0,0.038c0,0.954 -0.16,1.834 -0.48,2.643c-0.32,0.81 -0.782,1.509 -1.386,2.098c-0.605,0.59 -1.348,1.051 -2.232,1.383c-0.883,0.332 -1.882,0.498 -2.996,0.498l-4.728,0l0,-13.169Z" style="fill:rgb(32,80,102);fill-rule:nonzero;"/>        </g>        <g transform="matrix(1,0,0,1,116.077,49.9452)">            <path d="M0,-13.169l0,3.198l3.734,0l0,9.971l3.448,0l0,-9.971l3.733,0l0,-3.198l-10.915,0Z" style="fill:rgb(32,80,102);fill-rule:nonzero;"/>        </g>        <g transform="matrix(1,0,0,1,134.096,45.6001)">            <path d="M0,-4.572l1.386,3.743l-2.791,0l1.405,-3.743Zm-1.635,-4.346l-5.298,13.264l3.626,0l0.888,-2.352l4.801,0l0.906,2.352l3.698,0l-5.298,-13.264l-3.323,0Z" style="fill:rgb(32,80,102);fill-rule:nonzero;"/>        </g>        <g transform="matrix(1,0,0,1,148.183,36.513)">            <path d="M0,13.696c-0.888,0 -1.725,-0.169 -2.507,-0.507c-0.782,-0.339 -1.461,-0.812 -2.035,-1.422c-0.575,-0.608 -1.031,-1.329 -1.368,-2.163c-0.339,-0.833 -0.508,-1.739 -0.508,-2.719l0,-0.037c0,-0.953 0.166,-1.847 0.498,-2.681c0.332,-0.833 0.788,-1.561 1.369,-2.181c0.58,-0.622 1.27,-1.108 2.07,-1.459c0.801,-0.351 1.674,-0.527 2.622,-0.527c0.641,0 1.221,0.066 1.743,0.197c0.521,0.132 0.998,0.321 1.431,0.566c0.432,0.243 0.824,0.536 1.174,0.874c0.348,0.338 0.66,0.708 0.933,1.11l-2.595,2.125c-0.357,-0.476 -0.747,-0.852 -1.174,-1.128c-0.427,-0.276 -0.942,-0.415 -1.547,-0.415c-0.438,0 -0.838,0.092 -1.2,0.274c-0.362,0.182 -0.672,0.43 -0.933,0.743c-0.261,0.314 -0.465,0.684 -0.613,1.11c-0.149,0.427 -0.222,0.878 -0.222,1.354l0,0.038c0,0.489 0.073,0.95 0.222,1.383c0.148,0.432 0.352,0.806 0.613,1.119c0.261,0.314 0.571,0.562 0.933,0.744c0.362,0.181 0.762,0.272 1.2,0.272c0.32,0 0.614,-0.038 0.88,-0.113c0.267,-0.075 0.509,-0.185 0.729,-0.329c0.219,-0.144 0.427,-0.314 0.622,-0.507c0.196,-0.195 0.389,-0.411 0.578,-0.651l2.595,1.958c-0.296,0.426 -0.619,0.821 -0.968,1.185c-0.351,0.364 -0.747,0.677 -1.192,0.941c-0.443,0.263 -0.941,0.469 -1.492,0.62c-0.552,0.151 -1.171,0.226 -1.858,0.226" style="fill:rgb(32,80,102);fill-rule:nonzero;"/>        </g>        <g transform="matrix(1,0,0,1,163.791,49.9452)">            <path d="M0,-13.169l-4.285,5.343l0,-5.343l-3.448,0l0,13.169l3.448,0l0,-3.405l1.262,-1.487l3.129,4.892l4.143,0l-4.871,-7.506l4.711,-5.663l-4.089,0Z" style="fill:rgb(32,80,102);fill-rule:nonzero;"/>        </g>        <g transform="matrix(1,0,0,1,188.394,43.6247)">            <path d="M0,-0.527c0.593,0 1.049,-0.141 1.37,-0.423c0.319,-0.283 0.479,-0.663 0.479,-1.139l0,-0.038c0,-0.526 -0.165,-0.918 -0.498,-1.175c-0.332,-0.257 -0.788,-0.386 -1.369,-0.386l-2.256,0l0,3.161l2.274,0Zm-5.724,-6.321l5.885,0c0.96,0 1.772,0.125 2.434,0.375c0.664,0.252 1.203,0.603 1.619,1.054c0.735,0.753 1.102,1.776 1.102,3.068l0,0.037c0,1.016 -0.231,1.856 -0.694,2.52c-0.462,0.665 -1.084,1.174 -1.866,1.525l2.968,4.59l-3.981,0l-2.507,-3.989l-0.036,0l-1.474,0l0,3.989l-3.45,0l0,-13.169Z" style="fill:rgb(32,80,102);fill-rule:nonzero;"/>        </g>        <g transform="matrix(1,0,0,1,0,-755.286)">            <rect x="169.968" y="797.119" width="9.976" height="2.938" style="fill:rgb(128,214,234);"/>        </g>        <g transform="matrix(1,0,0,1,0,-744.9)">            <rect x="169.937" y="791.926" width="9.976" height="2.938" style="fill:rgb(128,214,234);"/>        </g>        <g transform="matrix(1,0,0,1,0,-765.406)">            <rect x="169.967" y="802.179" width="9.976" height="2.938" style="fill:rgb(128,214,234);"/>        </g>        <g transform="matrix(1,0,0,1,109.427,36.5514)">            <path d="M0,13.62c-1.114,0 -2.172,-0.184 -3.173,-0.548c-1.003,-0.368 -1.887,-0.916 -2.658,-1.647l1.92,-2.433c1.244,1.053 2.589,1.58 4.035,1.58c0.462,0 0.815,-0.078 1.058,-0.234c0.242,-0.157 0.365,-0.38 0.365,-0.667l0,-0.038c0,-0.137 -0.03,-0.26 -0.09,-0.366c-0.059,-0.106 -0.169,-0.209 -0.329,-0.31c-0.159,-0.099 -0.373,-0.197 -0.64,-0.291c-0.266,-0.094 -0.612,-0.191 -1.04,-0.291c-0.663,-0.162 -1.279,-0.34 -1.848,-0.535c-0.568,-0.194 -1.065,-0.445 -1.485,-0.752c-0.42,-0.306 -0.752,-0.688 -0.996,-1.145c-0.242,-0.457 -0.364,-1.023 -0.364,-1.699l0,-0.038c0,-0.614 0.11,-1.177 0.329,-1.69c0.22,-0.513 0.54,-0.959 0.96,-1.334c0.421,-0.376 0.927,-0.667 1.52,-0.874c0.593,-0.205 1.262,-0.308 2.009,-0.308c1.066,0 2.017,0.148 2.852,0.444c0.837,0.297 1.592,0.735 2.268,1.316l-1.725,2.586c-0.568,-0.427 -1.153,-0.75 -1.751,-0.97c-0.598,-0.219 -1.176,-0.329 -1.733,-0.329c-0.416,0 -0.726,0.081 -0.933,0.245c-0.208,0.163 -0.311,0.363 -0.311,0.599l0,0.038c0,0.151 0.032,0.282 0.098,0.395c0.065,0.113 0.178,0.216 0.337,0.31c0.161,0.094 0.38,0.188 0.658,0.282c0.278,0.094 0.632,0.191 1.057,0.291c0.712,0.162 1.355,0.353 1.929,0.572c0.576,0.219 1.064,0.486 1.468,0.799c0.401,0.313 0.71,0.691 0.924,1.136c0.213,0.445 0.319,0.974 0.319,1.587l0,0.037c0,0.676 -0.121,1.277 -0.364,1.802c-0.242,0.527 -0.584,0.974 -1.022,1.344c-0.438,0.37 -0.967,0.652 -1.582,0.845c-0.616,0.193 -1.304,0.291 -2.062,0.291" style="fill:rgb(32,80,102);fill-rule:nonzero;"/>        </g>        <g transform="matrix(1,0,0,1,46.1901,43.6247)">            <path d="M0,-0.527c0.593,0 1.049,-0.141 1.368,-0.423c0.321,-0.283 0.482,-0.663 0.482,-1.139l0,-0.038c0,-0.526 -0.167,-0.918 -0.498,-1.175c-0.332,-0.257 -0.789,-0.386 -1.37,-0.386l-2.256,0l0,3.161l2.274,0Zm-5.724,-6.321l5.884,0c0.961,0 1.772,0.125 2.435,0.375c0.664,0.252 1.204,0.603 1.618,1.054c0.736,0.753 1.103,1.776 1.103,3.068l0,0.037c0,1.016 -0.231,1.856 -0.692,2.52c-0.463,0.665 -1.086,1.174 -1.868,1.525l2.968,4.59l-3.982,0l-2.506,-3.989l-0.036,0l-1.474,0l0,3.989l-3.45,0l0,-13.169Z" style="fill:rgb(32,80,102);fill-rule:nonzero;"/>        </g>        <g transform="matrix(1,0,0,1,60.4215,39.8042)">            <path d="M0,7.113c0.475,0 0.907,-0.094 1.3,-0.283c0.394,-0.188 0.725,-0.442 0.999,-0.762c0.273,-0.319 0.487,-0.692 0.642,-1.119c0.154,-0.426 0.231,-0.878 0.231,-1.355l0,-0.037c0,-0.477 -0.077,-0.929 -0.231,-1.355c-0.155,-0.427 -0.376,-0.802 -0.66,-1.129c-0.285,-0.326 -0.624,-0.586 -1.016,-0.78c-0.393,-0.195 -0.827,-0.292 -1.302,-0.292c-0.474,0 -0.906,0.094 -1.292,0.282c-0.386,0.188 -0.72,0.442 -0.998,0.762c-0.279,0.319 -0.494,0.694 -0.642,1.119c-0.149,0.427 -0.222,0.879 -0.222,1.355l0,0.038c0,0.476 0.076,0.928 0.231,1.355c0.155,0.426 0.371,0.803 0.65,1.128c0.28,0.326 0.615,0.586 1.008,0.781c0.392,0.194 0.826,0.292 1.302,0.292m-0.027,3.292c-0.961,0 -1.849,-0.178 -2.668,-0.536c-0.817,-0.358 -1.522,-0.844 -2.114,-1.458c-0.594,-0.615 -1.059,-1.336 -1.395,-2.165c-0.339,-0.827 -0.508,-1.711 -0.508,-2.652l0,-0.037c0,-0.941 0.169,-1.828 0.508,-2.662c0.336,-0.834 0.808,-1.561 1.412,-2.183c0.605,-0.62 1.317,-1.11 2.133,-1.468c0.819,-0.358 1.708,-0.536 2.667,-0.536c0.961,0 1.849,0.178 2.666,0.536c0.818,0.358 1.524,0.845 2.117,1.458c0.592,0.615 1.057,1.336 1.394,2.165c0.339,0.827 0.508,1.711 0.508,2.652l0,0.038c0,0.94 -0.169,1.828 -0.508,2.662c-0.337,0.834 -0.808,1.561 -1.413,2.182c-0.604,0.62 -1.314,1.11 -2.133,1.468c-0.818,0.358 -1.706,0.536 -2.666,0.536" style="fill:rgb(32,80,102);fill-rule:nonzero;"/>        </g>        <g transform="matrix(1,0,0,1,199.253,39.8898)">            <path d="M0,-0.308c0.443,0 0.682,-0.237 0.682,-0.567l0,-0.021c0,-0.382 -0.268,-0.578 -0.702,-0.578l-0.857,0l0,1.166l0.877,0Zm-1.755,-1.94l1.766,0c0.536,0 0.949,0.154 1.228,0.433c0.217,0.218 0.329,0.517 0.329,0.868l0,0.02c0,0.639 -0.351,1.042 -0.855,1.228l0.97,1.425l-1.023,0l-0.846,-1.28l-0.021,0l-0.67,0l0,1.28l-0.878,0l0,-3.974Zm4.841,2.095l0,-0.02c0,-1.827 -1.414,-3.303 -3.293,-3.303c-1.888,0 -3.313,1.496 -3.313,3.323l0,0.021c0,1.826 1.414,3.302 3.293,3.302c1.889,0 3.313,-1.496 3.313,-3.323m-7.039,0.021l0,-0.021c0,-2.033 1.651,-3.737 3.746,-3.737c2.095,0 3.726,1.683 3.726,3.717l0,0.02c0,2.034 -1.651,3.735 -3.746,3.735c-2.095,0 -3.726,-1.681 -3.726,-3.714" style="fill:rgb(32,80,102);fill-rule:nonzero;"/>        </g>    </g></svg>