<?xml version="1.0" encoding="UTF-8" standalone="no"?><!DOCTYPE svg PUBLIC "-//W3C//DTD SVG 1.1//EN" "http://www.w3.org/Graphics/SVG/1.1/DTD/svg11.dtd"><svg width="100%" height="100%" viewBox="0 0 1024 512" version="1.1" xmlns="http://www.w3.org/2000/svg" xmlns:xlink="http://www.w3.org/1999/xlink" xml:space="preserve" style="fill-rule:evenodd;clip-rule:evenodd;stroke-linejoin:round;stroke-miterlimit:2;"><title>P2PFA</title><desc></desc>    <g transform="matrix(2.97483,0,0,2.97375,-4968.84,-953.122)">        <path d="M1681.78,442.697l-9.811,0c-0.867,-0.098 -0.943,-0.495 -1,-1l0,-61.531c0.098,-0.868 0.496,-0.944 1,-1l9.123,0c0.867,0.097 0.943,0.495 1,1c0,0 -1.008,2.955 0.775,1.498c10.247,-8.232 27.849,-2.119 32.029,11.552c0,0 2.877,-6.083 5.421,-8.86c3.921,-4.278 9.814,-6.379 15.766,-6.395c0.117,0 0.234,0.001 0.352,0.002c8.945,0.117 17.641,5.304 20.905,14.668c0.057,-0.155 0.116,-0.31 0.175,-0.465c4.447,-11.305 18.739,-17.929 31.231,-12.106c6.108,2.847 10.189,9.137 11.709,15.951c0,0 0.057,-16.068 0.057,-16.068c0.159,-0.455 0.48,-0.722 0.975,-0.777l9.724,0c0.868,0.097 0.943,0.495 1,1c0,0 -0.946,4.08 0.454,2.43c3.648,-4.178 9.822,-6.091 15.448,-3.605c0.476,0.21 0.9,0.501 0.966,1.089l0,9.81c-0.229,1.954 -1.802,0.697 -3.824,0.348c-4.741,-0.819 -10.044,0.752 -12.147,5.83c-0.653,1.577 -0.888,3.297 -0.897,5.012l0,23.578c-0.06,0.535 -0.179,0.907 -1,1l-9.724,0c-0.536,-0.061 -0.908,-0.18 -1,-1l0,-13.426c-1.974,7.007 -7.652,12.897 -15.064,14.816c-10.709,2.772 -23.191,-1.475 -27.738,-12.56c0,0 0.327,-0.999 -0.451,0.8c-5.72,12.896 -26.059,17.663 -37.189,6.159c-2.362,-2.441 -4.101,-5.427 -5.15,-8.69c0,0 -2.064,5.794 -5.218,9.162c-6.861,7.325 -19.522,8.106 -26.866,0.405c0,0 -0.056,20.596 -0.056,20.596c-0.159,0.455 -0.48,0.721 -0.975,0.777Zm11.105,-54.818c-10.378,0.185 -14.797,19.15 -5.917,26.951c5.225,4.59 14.954,1.915 16.689,-7.073c1.552,-8.045 1.496,-19.538 -10.226,-19.875c-0.182,-0.003 -0.364,-0.004 -0.546,-0.003Zm107.483,18.243l-32.196,0c0.021,0.182 0.047,0.362 0.072,0.543c0.115,0.77 0.261,1.535 0.458,2.287c0.712,2.718 2.179,5.433 4.788,6.794c4.316,2.251 10.257,1.591 13.342,-2.28c1.119,-1.405 2.258,-3.721 2.258,-3.721c0.212,-0.21 0.473,-0.339 0.779,-0.373l9.811,0c0.386,0.044 0.807,0.415 0.807,0.415l0,-3.678l-0.119,0.013Zm-44.445,0l-29.92,0c0.063,0.523 0.145,1.043 0.244,1.559c0.072,0.375 0.154,0.748 0.247,1.117c0.7,2.768 2.169,5.561 4.827,6.948c4.317,2.251 10.259,1.589 13.342,-2.28c1.12,-1.404 2.258,-3.721 2.258,-3.721c0.212,-0.21 0.473,-0.339 0.779,-0.373l8.733,0c-0.438,-2.073 -0.406,-2.268 -0.51,-3.25Zm-19.727,-18.157c-2.521,0.031 -5.085,0.694 -6.883,2.537c-1.591,1.631 -2.46,3.827 -2.982,6.011l-0.048,0.208l20.519,0c-0.647,-3.626 -2.878,-7.282 -6.764,-8.318c-1.273,-0.339 -2.222,-0.445 -3.842,-0.438Zm42.169,0c-2.487,0.031 -5.022,0.675 -6.808,2.46c-1.676,1.675 -2.57,3.974 -3.092,6.235c0,0 20.505,0.061 20.505,0.061c-0.567,-3.177 -2.079,-6.278 -5.086,-7.708c-1.743,-0.829 -3.328,-1.057 -5.519,-1.048Z" style="fill-rule:nonzero;"/>        <g transform="matrix(1,0,0,1,184.768,0)">            <path d="M1681.78,442.697l-9.811,0c-0.867,-0.098 -0.943,-0.495 -1,-1l0,-61.531c0.098,-0.868 0.496,-0.944 1,-1l9.123,0c0.867,0.097 0.943,0.495 1,1c0,0 -1.008,2.955 0.775,1.498c10.247,-8.232 27.849,-2.119 32.029,11.552c0,0 2.877,-6.083 5.421,-8.86c3.921,-4.278 9.814,-6.379 15.766,-6.395c0.117,0 0.234,0.001 0.352,0.002c8.945,0.117 17.641,5.304 20.905,14.668c0.057,-0.155 0.116,-0.31 0.175,-0.465c4.447,-11.305 18.739,-17.929 31.231,-12.106c6.108,2.847 10.189,9.137 11.709,15.951c0,0 0.057,-16.068 0.057,-16.068c0.159,-0.455 0.48,-0.722 0.975,-0.777l9.724,0c0.868,0.097 0.943,0.495 1,1c0,0 -0.946,4.08 0.454,2.43c3.648,-4.178 9.822,-6.091 15.448,-3.605c0.476,0.21 0.9,0.501 0.966,1.089l0,9.81c-0.229,1.954 -1.802,0.697 -3.824,0.348c-4.741,-0.819 -10.044,0.752 -12.147,5.83c-0.653,1.577 -0.888,3.297 -0.897,5.012l0,23.578c-0.06,0.535 -0.179,0.907 -1,1l-9.724,0c-0.536,-0.061 -0.908,-0.18 -1,-1l0,-13.426c-1.974,7.007 -7.652,12.897 -15.064,14.816c-10.709,2.772 -23.191,-1.475 -27.738,-12.56c0,0 0.327,-0.999 -0.451,0.8c-5.72,12.896 -26.059,17.663 -37.189,6.159c-2.362,-2.441 -4.101,-5.427 -5.15,-8.69c0,0 -2.064,5.794 -5.218,9.162c-6.861,7.325 -19.522,8.106 -26.866,0.405c0,0 -0.056,20.596 -0.056,20.596c-0.159,0.455 -0.48,0.721 -0.975,0.777Zm11.105,-54.818c-10.378,0.185 -14.797,19.15 -5.917,26.951c5.225,4.59 14.954,1.915 16.689,-7.073c1.552,-8.045 1.496,-19.538 -10.226,-19.875c-0.182,-0.003 -0.364,-0.004 -0.546,-0.003Zm107.483,18.243l-32.196,0c0.021,0.182 0.047,0.362 0.072,0.543c0.115,0.77 0.261,1.535 0.458,2.287c0.712,2.718 2.179,5.433 4.788,6.794c4.316,2.251 10.257,1.591 13.342,-2.28c1.119,-1.405 2.258,-3.721 2.258,-3.721c0.212,-0.21 0.473,-0.339 0.779,-0.373l9.811,0c0.386,0.044 0.807,0.415 0.807,0.415l0,-3.678l-0.119,0.013Zm-44.445,0l-29.92,0c0.063,0.523 0.145,1.043 0.244,1.559c0.072,0.375 0.154,0.748 0.247,1.117c0.7,2.768 2.169,5.561 4.827,6.948c4.317,2.251 10.259,1.589 13.342,-2.28c1.12,-1.404 2.258,-3.721 2.258,-3.721c0.212,-0.21 0.473,-0.339 0.779,-0.373l8.733,0c-0.438,-2.073 -0.406,-2.268 -0.51,-3.25Zm-19.727,-18.157c-2.521,0.031 -5.085,0.694 -6.883,2.537c-1.591,1.631 -2.46,3.827 -2.982,6.011l-0.048,0.208l20.519,0c-0.647,-3.626 -2.878,-7.282 -6.764,-8.318c-1.273,-0.339 -2.222,-0.445 -3.842,-0.438Zm42.169,0c-2.487,0.031 -5.022,0.675 -6.808,2.46c-1.676,1.675 -2.57,3.974 -3.092,6.235c0,0 20.505,0.061 20.505,0.061c-0.567,-3.177 -2.079,-6.278 -5.086,-7.708c-1.743,-0.829 -3.328,-1.057 -5.519,-1.048Z" style="fill-rule:nonzero;"/>        </g>        <path d="M1817.3,377.361l-16.873,0c-1.457,-0.116 -1.52,-0.808 -1.484,-2.332c0.286,-10.118 3.449,-20.025 10.485,-27.528c6.984,-7.448 17.022,-11.382 27.383,-11.518c0.258,-0.002 0.516,-0.003 0.774,-0.002c12.736,0.085 26.055,5.772 32.088,17.325c7.328,14.037 1.634,32.426 -11.155,43.329c-10.295,8.777 -23.067,14.504 -32.209,24.291c-1.041,1.114 -2.013,2.294 -2.854,3.567c0,0 28.213,0.004 28.213,0.004c0,0 1.393,0.142 1.5,1.5l0,14.588c-0.093,1.188 -0.389,1.412 -1.5,1.5l-51.817,0c-1.425,-0.113 -1.514,-0.744 -1.495,-2.248c0.207,-11.847 5.665,-23.227 14.896,-31.34c10.636,-9.35 23.755,-15.799 33.413,-25.614c0,0 7.426,-8.523 6.331,-17.878c-0.449,-3.836 -2.104,-7.728 -5.75,-9.798c-8.651,-4.911 -20.68,-2.347 -25.187,6.054c-2.376,4.427 -3.06,9.617 -3.26,14.659c0,0 -0.175,1.339 -1.499,1.441Z" style="fill:url(#_Linear1);fill-rule:nonzero;"/>        <g transform="matrix(13.3275,0,0,13.613,1711.75,477.026)">            <path d="M0.262,-0.714l0,0.714l0.081,0l0,-0.332l0.375,0l0,-0.071l-0.375,0l0,-0.24l0.396,0l0,-0.071l-0.477,0Z" style="fill-rule:nonzero;"/>        </g>        <g transform="matrix(13.3275,0,0,13.613,1721.63,477.026)">            <rect x="0.459" y="-0.714" width="0.082" height="0.714" style="fill-rule:nonzero;"/>        </g>        <g transform="matrix(13.3275,0,0,13.613,1733.51,477.026)">            <path d="M0.212,-0.714l0,0.714l0.082,0l0,-0.587l0.003,0l0.406,0.587l0.085,0l0,-0.714l-0.083,0l0,0.581l-0.003,0l-0.403,-0.581l-0.087,0Z" style="fill-rule:nonzero;"/>        </g>        <g transform="matrix(13.3275,0,0,13.613,1749.41,477.026)">            <path d="M0.453,-0.714l-0.281,0.714l0.088,0l0.076,-0.2l0.328,0l0.076,0.2l0.089,0l-0.281,-0.714l-0.095,0Zm-0.091,0.445l0.137,-0.357l0.004,0l0.135,0.357l-0.276,0Z" style="fill-rule:nonzero;"/>        </g>        <g transform="matrix(13.3275,0,0,13.613,1765.32,477.026)">            <path d="M0.212,-0.714l0,0.714l0.082,0l0,-0.587l0.003,0l0.406,0.587l0.085,0l0,-0.714l-0.083,0l0,0.581l-0.003,0l-0.403,-0.581l-0.087,0Z" style="fill-rule:nonzero;"/>        </g>        <g transform="matrix(13.3275,0,0,13.613,1782.22,477.026)">            <path d="M0.517,-0.728c-0.111,0 -0.197,0.037 -0.257,0.113c-0.055,0.068 -0.082,0.155 -0.082,0.261c0,0.106 0.026,0.192 0.08,0.258c0.059,0.073 0.144,0.11 0.256,0.11c0.076,0 0.141,-0.022 0.196,-0.065c0.06,-0.046 0.097,-0.111 0.112,-0.194l-0.079,0c-0.014,0.062 -0.043,0.109 -0.085,0.141c-0.039,0.03 -0.087,0.045 -0.145,0.045c-0.083,0 -0.147,-0.028 -0.191,-0.083c-0.042,-0.052 -0.062,-0.123 -0.062,-0.212c0,-0.089 0.021,-0.16 0.063,-0.214c0.045,-0.058 0.109,-0.087 0.192,-0.087c0.056,0 0.103,0.013 0.142,0.04c0.04,0.028 0.066,0.068 0.076,0.12l0.079,0c-0.01,-0.071 -0.042,-0.128 -0.096,-0.17c-0.054,-0.042 -0.121,-0.063 -0.199,-0.063Z" style="fill-rule:nonzero;"/>        </g>        <g transform="matrix(13.3275,0,0,13.613,1796.11,477.026)">            <path d="M0.239,-0.714l0,0.714l0.522,0l0,-0.071l-0.441,0l0,-0.262l0.401,0l0,-0.071l-0.401,0l0,-0.239l0.424,0l0,-0.071l-0.505,0Z" style="fill-rule:nonzero;"/>        </g>        <g transform="matrix(13.3275,0,0,13.613,1817.21,477.026)">            <path d="M0.453,-0.714l-0.281,0.714l0.088,0l0.076,-0.2l0.328,0l0.076,0.2l0.089,0l-0.281,-0.714l-0.095,0Zm-0.091,0.445l0.137,-0.357l0.004,0l0.135,0.357l-0.276,0Z" style="fill-rule:nonzero;"/>        </g>        <g transform="matrix(13.3275,0,0,13.613,1831.01,477.026)">            <path d="M0.496,-0.728c-0.074,0 -0.135,0.016 -0.182,0.048c-0.053,0.034 -0.079,0.083 -0.079,0.145c0,0.06 0.027,0.106 0.082,0.138c0.023,0.012 0.078,0.032 0.164,0.058c0.08,0.023 0.131,0.04 0.151,0.052c0.047,0.025 0.071,0.06 0.071,0.105c0,0.038 -0.018,0.068 -0.053,0.09c-0.036,0.022 -0.084,0.033 -0.143,0.033c-0.064,0 -0.112,-0.014 -0.145,-0.04c-0.036,-0.029 -0.058,-0.075 -0.065,-0.137l-0.081,0c0.006,0.088 0.037,0.153 0.093,0.196c0.048,0.036 0.114,0.054 0.198,0.054c0.085,0 0.152,-0.018 0.202,-0.053c0.05,-0.036 0.076,-0.086 0.076,-0.148c0,-0.065 -0.03,-0.115 -0.09,-0.151c-0.03,-0.018 -0.092,-0.041 -0.185,-0.069c-0.07,-0.02 -0.114,-0.035 -0.132,-0.045c-0.041,-0.022 -0.061,-0.051 -0.061,-0.087c0,-0.041 0.017,-0.071 0.052,-0.091c0.029,-0.018 0.07,-0.026 0.124,-0.026c0.058,0 0.102,0.012 0.134,0.038c0.031,0.025 0.051,0.063 0.06,0.115l0.081,0c-0.006,-0.075 -0.034,-0.132 -0.082,-0.17c-0.046,-0.037 -0.109,-0.055 -0.19,-0.055Z" style="fill-rule:nonzero;"/>        </g>        <g transform="matrix(13.3275,0,0,13.613,1842.79,477.026)">            <path d="M0.496,-0.728c-0.074,0 -0.135,0.016 -0.182,0.048c-0.053,0.034 -0.079,0.083 -0.079,0.145c0,0.06 0.027,0.106 0.082,0.138c0.023,0.012 0.078,0.032 0.164,0.058c0.08,0.023 0.131,0.04 0.151,0.052c0.047,0.025 0.071,0.06 0.071,0.105c0,0.038 -0.018,0.068 -0.053,0.09c-0.036,0.022 -0.084,0.033 -0.143,0.033c-0.064,0 -0.112,-0.014 -0.145,-0.04c-0.036,-0.029 -0.058,-0.075 -0.065,-0.137l-0.081,0c0.006,0.088 0.037,0.153 0.093,0.196c0.048,0.036 0.114,0.054 0.198,0.054c0.085,0 0.152,-0.018 0.202,-0.053c0.05,-0.036 0.076,-0.086 0.076,-0.148c0,-0.065 -0.03,-0.115 -0.09,-0.151c-0.03,-0.018 -0.092,-0.041 -0.185,-0.069c-0.07,-0.02 -0.114,-0.035 -0.132,-0.045c-0.041,-0.022 -0.061,-0.051 -0.061,-0.087c0,-0.041 0.017,-0.071 0.052,-0.091c0.029,-0.018 0.07,-0.026 0.124,-0.026c0.058,0 0.102,0.012 0.134,0.038c0.031,0.025 0.051,0.063 0.06,0.115l0.081,0c-0.006,-0.075 -0.034,-0.132 -0.082,-0.17c-0.046,-0.037 -0.109,-0.055 -0.19,-0.055Z" style="fill-rule:nonzero;"/>        </g>        <g transform="matrix(13.3275,0,0,13.613,1857.59,477.026)">            <path d="M0.5,-0.728c-0.107,0 -0.191,0.036 -0.253,0.108c-0.059,0.068 -0.088,0.156 -0.088,0.264c0,0.107 0.029,0.195 0.088,0.263c0.061,0.071 0.145,0.107 0.253,0.107c0.107,0 0.191,-0.036 0.253,-0.107c0.059,-0.068 0.089,-0.155 0.089,-0.263c0,-0.109 -0.03,-0.197 -0.088,-0.265c-0.062,-0.072 -0.147,-0.107 -0.254,-0.107Zm0,0.073c0.082,0 0.147,0.027 0.193,0.082c0.044,0.054 0.067,0.126 0.067,0.217c0,0.09 -0.023,0.161 -0.067,0.215c-0.046,0.054 -0.111,0.082 -0.193,0.082c-0.082,0 -0.147,-0.028 -0.193,-0.084c-0.045,-0.054 -0.067,-0.125 -0.067,-0.213c0,-0.089 0.022,-0.16 0.067,-0.214c0.047,-0.057 0.111,-0.085 0.193,-0.085Z" style="fill-rule:nonzero;"/>        </g>        <g transform="matrix(13.3275,0,0,13.613,1875.4,477.026)">            <path d="M0.517,-0.728c-0.111,0 -0.197,0.037 -0.257,0.113c-0.055,0.068 -0.082,0.155 -0.082,0.261c0,0.106 0.026,0.192 0.08,0.258c0.059,0.073 0.144,0.11 0.256,0.11c0.076,0 0.141,-0.022 0.196,-0.065c0.06,-0.046 0.097,-0.111 0.112,-0.194l-0.079,0c-0.014,0.062 -0.043,0.109 -0.085,0.141c-0.039,0.03 -0.087,0.045 -0.145,0.045c-0.083,0 -0.147,-0.028 -0.191,-0.083c-0.042,-0.052 -0.062,-0.123 -0.062,-0.212c0,-0.089 0.021,-0.16 0.063,-0.214c0.045,-0.058 0.109,-0.087 0.192,-0.087c0.056,0 0.103,0.013 0.142,0.04c0.04,0.028 0.066,0.068 0.076,0.12l0.079,0c-0.01,-0.071 -0.042,-0.128 -0.096,-0.17c-0.054,-0.042 -0.121,-0.063 -0.199,-0.063Z" style="fill-rule:nonzero;"/>        </g>        <g transform="matrix(13.3275,0,0,13.613,1886.18,477.026)">            <rect x="0.459" y="-0.714" width="0.082" height="0.714" style="fill-rule:nonzero;"/>        </g>        <g transform="matrix(13.3275,0,0,13.613,1897.97,477.026)">            <path d="M0.453,-0.714l-0.281,0.714l0.088,0l0.076,-0.2l0.328,0l0.076,0.2l0.089,0l-0.281,-0.714l-0.095,0Zm-0.091,0.445l0.137,-0.357l0.004,0l0.135,0.357l-0.276,0Z" style="fill-rule:nonzero;"/>        </g>        <g transform="matrix(13.3275,0,0,13.613,1910.76,477.026)">            <path d="M0.208,-0.714l0,0.071l0.252,0l0,0.643l0.082,0l0,-0.643l0.251,0l0,-0.071l-0.585,0Z" style="fill-rule:nonzero;"/>        </g>        <g transform="matrix(13.3275,0,0,13.613,1921.54,477.026)">            <rect x="0.459" y="-0.714" width="0.082" height="0.714" style="fill-rule:nonzero;"/>        </g>        <g transform="matrix(13.3275,0,0,13.613,1934.33,477.026)">            <path d="M0.5,-0.728c-0.107,0 -0.191,0.036 -0.253,0.108c-0.059,0.068 -0.088,0.156 -0.088,0.264c0,0.107 0.029,0.195 0.088,0.263c0.061,0.071 0.145,0.107 0.253,0.107c0.107,0 0.191,-0.036 0.253,-0.107c0.059,-0.068 0.089,-0.155 0.089,-0.263c0,-0.109 -0.03,-0.197 -0.088,-0.265c-0.062,-0.072 -0.147,-0.107 -0.254,-0.107Zm0,0.073c0.082,0 0.147,0.027 0.193,0.082c0.044,0.054 0.067,0.126 0.067,0.217c0,0.09 -0.023,0.161 -0.067,0.215c-0.046,0.054 -0.111,0.082 -0.193,0.082c-0.082,0 -0.147,-0.028 -0.193,-0.084c-0.045,-0.054 -0.067,-0.125 -0.067,-0.213c0,-0.089 0.022,-0.16 0.067,-0.214c0.047,-0.057 0.111,-0.085 0.193,-0.085Z" style="fill-rule:nonzero;"/>        </g>        <g transform="matrix(13.3275,0,0,13.613,1951.13,477.026)">            <path d="M0.212,-0.714l0,0.714l0.082,0l0,-0.587l0.003,0l0.406,0.587l0.085,0l0,-0.714l-0.083,0l0,0.581l-0.003,0l-0.403,-0.581l-0.087,0Z" style="fill-rule:nonzero;"/>        </g>    </g>    <defs>        <linearGradient id="_Linear1" x1="0" y1="0" x2="1" y2="0.000150244" gradientUnits="userSpaceOnUse" gradientTransform="matrix(37.6039,114.812,-163.39,53.5143,1809.44,327.695)"><stop offset="0" style="stop-color:rgb(58,141,48);stop-opacity:1"/><stop offset="0.3" style="stop-color:rgb(79,153,46);stop-opacity:1"/><stop offset="0.69" style="stop-color:rgb(128,182,42);stop-opacity:1"/><stop offset="0.83" style="stop-color:rgb(163,202,40);stop-opacity:1"/><stop offset="1" style="stop-color:rgb(172,208,39);stop-opacity:1"/></linearGradient>    </defs></svg>