<?xml version="1.0" encoding="UTF-8" standalone="no"?><!DOCTYPE svg PUBLIC "-//W3C//DTD SVG 1.1//EN" "http://www.w3.org/Graphics/SVG/1.1/DTD/svg11.dtd"><svg width="100%" height="100%" viewBox="0 0 1024 512" version="1.1" xmlns="http://www.w3.org/2000/svg" xmlns:xlink="http://www.w3.org/1999/xlink" xml:space="preserve" style="fill-rule:evenodd;clip-rule:evenodd;stroke-linejoin:round;stroke-miterlimit:2;"><title>Crowdestates</title><desc>Crowdestates was set up to help socially responsible and community-led projects get funding. We want to support the building of these projects and want to allow communities and social impact investors to invest in property projects that have a purpose. </desc>    <g transform="matrix(8.8434,0,0,8.8434,-248.133,243.216)">        <g transform="matrix(12,0,0,12,47.3456,8.57603)">            <path d="M0.693,-0.11c-0.028,0.038 -0.064,0.069 -0.109,0.093c-0.045,0.023 -0.098,0.035 -0.161,0.035c-0.054,0 -0.104,-0.009 -0.15,-0.028c-0.045,-0.018 -0.085,-0.043 -0.118,-0.077c-0.033,-0.033 -0.058,-0.072 -0.077,-0.118c-0.019,-0.045 -0.028,-0.095 -0.028,-0.15c0,-0.055 0.009,-0.106 0.028,-0.152c0.019,-0.045 0.046,-0.084 0.079,-0.117c0.034,-0.032 0.074,-0.057 0.12,-0.075c0.046,-0.018 0.096,-0.027 0.15,-0.027c0.024,0 0.048,0.002 0.073,0.007c0.025,0.005 0.048,0.012 0.071,0.021c0.023,0.009 0.043,0.021 0.062,0.034c0.019,0.014 0.035,0.03 0.048,0.048l-0.078,0.06c-0.017,-0.024 -0.042,-0.044 -0.074,-0.06c-0.031,-0.015 -0.065,-0.023 -0.102,-0.023c-0.041,0 -0.079,0.007 -0.112,0.022c-0.033,0.015 -0.061,0.036 -0.084,0.062c-0.023,0.026 -0.041,0.056 -0.054,0.09c-0.013,0.035 -0.019,0.071 -0.019,0.11c0,0.04 0.006,0.077 0.018,0.112c0.013,0.035 0.03,0.065 0.053,0.091c0.023,0.025 0.051,0.045 0.084,0.06c0.033,0.015 0.07,0.022 0.111,0.022c0.04,0 0.076,-0.008 0.109,-0.024c0.033,-0.016 0.06,-0.039 0.081,-0.07l0.079,0.054Z" style="fill:rgb(40,47,62);fill-rule:nonzero;"/>        </g>        <g transform="matrix(12,0,0,12,55.8416,8.57603)">            <path d="M0.185,0l-0.099,0l0,-0.708l0.227,0c0.034,0 0.066,0.003 0.097,0.01c0.031,0.007 0.057,0.019 0.08,0.034c0.023,0.015 0.042,0.035 0.055,0.06c0.013,0.025 0.02,0.056 0.02,0.092c0,0.052 -0.016,0.094 -0.048,0.126c-0.032,0.032 -0.073,0.052 -0.124,0.061l0.198,0.325l-0.12,0l-0.18,-0.315l-0.106,0l0,0.315Zm0,-0.398l0.114,0c0.023,0 0.045,-0.002 0.065,-0.006c0.02,-0.004 0.037,-0.011 0.052,-0.02c0.016,-0.009 0.027,-0.02 0.036,-0.035c0.009,-0.014 0.013,-0.032 0.013,-0.053c0,-0.021 -0.004,-0.039 -0.013,-0.053c-0.009,-0.015 -0.02,-0.026 -0.034,-0.035c-0.015,-0.009 -0.032,-0.015 -0.051,-0.018c-0.019,-0.004 -0.04,-0.006 -0.061,-0.006l-0.121,0l0,0.226Z" style="fill:rgb(40,47,62);fill-rule:nonzero;"/>        </g>        <g transform="matrix(12,0,0,12,63.2096,8.57603)">            <path d="M0.8,-0.355c0,0.055 -0.009,0.105 -0.029,0.15c-0.019,0.046 -0.045,0.085 -0.078,0.118c-0.033,0.033 -0.073,0.059 -0.119,0.077c-0.046,0.019 -0.096,0.028 -0.15,0.028c-0.054,0 -0.104,-0.009 -0.15,-0.028c-0.045,-0.018 -0.085,-0.044 -0.118,-0.077c-0.033,-0.033 -0.059,-0.072 -0.078,-0.118c-0.019,-0.045 -0.028,-0.095 -0.028,-0.15c0,-0.055 0.009,-0.106 0.028,-0.152c0.019,-0.045 0.045,-0.084 0.078,-0.117c0.033,-0.032 0.073,-0.057 0.118,-0.075c0.046,-0.018 0.096,-0.027 0.15,-0.027c0.054,0 0.104,0.009 0.15,0.027c0.046,0.018 0.086,0.043 0.119,0.075c0.033,0.033 0.059,0.072 0.078,0.117c0.02,0.046 0.029,0.097 0.029,0.152Zm-0.107,0c0,-0.039 -0.006,-0.075 -0.019,-0.11c-0.013,-0.034 -0.031,-0.064 -0.054,-0.09c-0.023,-0.026 -0.052,-0.047 -0.085,-0.062c-0.033,-0.015 -0.07,-0.022 -0.111,-0.022c-0.041,0 -0.078,0.007 -0.111,0.022c-0.033,0.015 -0.061,0.036 -0.084,0.062c-0.023,0.026 -0.04,0.056 -0.053,0.09c-0.013,0.035 -0.019,0.071 -0.019,0.11c0,0.039 0.006,0.076 0.019,0.111c0.013,0.035 0.031,0.065 0.054,0.091c0.023,0.025 0.051,0.045 0.084,0.06c0.033,0.015 0.069,0.022 0.11,0.022c0.041,0 0.078,-0.007 0.111,-0.022c0.033,-0.015 0.062,-0.035 0.085,-0.061c0.023,-0.025 0.041,-0.055 0.054,-0.09c0.013,-0.035 0.019,-0.072 0.019,-0.111Z" style="fill:rgb(40,47,62);fill-rule:nonzero;"/>        </g>        <g transform="matrix(11.4664,0,0,12,73.4029,8.57603)">            <path d="M0.273,-0.144l0.002,0l0.166,-0.564l0.109,0l0.165,0.564l0.002,0l0.156,-0.564l0.105,0l-0.208,0.708l-0.103,0l-0.172,-0.569l-0.002,0l-0.172,0.569l-0.103,0l-0.208,-0.708l0.107,0l0.156,0.564Z" style="fill:rgb(40,47,62);fill-rule:nonzero;"/>        </g>        <g transform="matrix(12,0,0,12,84.7035,8.57603)">            <path d="M0.086,-0.708l0.243,0c0.045,0 0.091,0.007 0.136,0.02c0.045,0.013 0.086,0.034 0.123,0.063c0.037,0.029 0.066,0.065 0.089,0.11c0.023,0.045 0.034,0.098 0.034,0.161c0,0.061 -0.011,0.113 -0.034,0.157c-0.023,0.045 -0.052,0.081 -0.089,0.11c-0.037,0.029 -0.078,0.051 -0.123,0.065c-0.045,0.015 -0.091,0.022 -0.136,0.022l-0.243,0l0,-0.708Zm0.099,0.621l0.124,0c0.043,0 0.082,-0.006 0.118,-0.018c0.037,-0.012 0.068,-0.029 0.094,-0.052c0.027,-0.023 0.047,-0.051 0.062,-0.084c0.015,-0.033 0.022,-0.071 0.022,-0.113c0,-0.044 -0.007,-0.083 -0.022,-0.116c-0.015,-0.033 -0.035,-0.061 -0.062,-0.084c-0.026,-0.022 -0.057,-0.039 -0.093,-0.051c-0.037,-0.011 -0.076,-0.017 -0.119,-0.017l-0.124,0l0,0.535Z" style="fill:rgb(40,47,62);fill-rule:nonzero;"/>        </g>        <g transform="matrix(12,0,0,12,93.8355,8.57603)">            <path d="M0.143,-0.036l0.407,0l0,0.052l-0.46,0l0,-0.74l0.444,0l0,0.052l-0.391,0l0,0.279l0.368,0l0,0.052l-0.368,0l0,0.305Z" style="fill:rgb(40,47,62);"/>        </g>        <g transform="matrix(12,0,0,12,101.466,8.57603)">            <path d="M0.514,-0.17c0,-0.033 -0.006,-0.061 -0.018,-0.084c-0.012,-0.023 -0.029,-0.043 -0.051,-0.059c-0.021,-0.015 -0.045,-0.029 -0.072,-0.039c-0.026,-0.011 -0.055,-0.021 -0.085,-0.031c-0.022,-0.007 -0.043,-0.015 -0.063,-0.024c-0.02,-0.008 -0.037,-0.018 -0.053,-0.031c-0.015,-0.011 -0.027,-0.026 -0.036,-0.043c-0.009,-0.017 -0.013,-0.038 -0.013,-0.062c0,-0.025 0.005,-0.047 0.015,-0.065c0.01,-0.019 0.024,-0.034 0.04,-0.047c0.018,-0.012 0.037,-0.021 0.058,-0.028c0.022,-0.006 0.044,-0.009 0.066,-0.009c0.032,0 0.061,0.006 0.088,0.018c0.027,0.012 0.048,0.029 0.065,0.05l0.011,0.013l0.041,-0.036l-0.01,-0.012c-0.022,-0.027 -0.05,-0.049 -0.085,-0.063c-0.035,-0.015 -0.071,-0.022 -0.109,-0.022c-0.031,0 -0.06,0.004 -0.088,0.013c-0.029,0.009 -0.053,0.022 -0.075,0.039c-0.022,0.017 -0.039,0.038 -0.052,0.063c-0.013,0.025 -0.019,0.054 -0.019,0.086c0,0.033 0.005,0.06 0.016,0.083c0.011,0.023 0.026,0.043 0.045,0.06c0.019,0.016 0.041,0.029 0.067,0.04c0.025,0.011 0.052,0.021 0.082,0.03c0.023,0.008 0.046,0.016 0.069,0.024c0.021,0.009 0.041,0.019 0.057,0.032c0.017,0.012 0.03,0.026 0.04,0.043c0.01,0.017 0.015,0.037 0.015,0.061c0,0.025 -0.005,0.046 -0.014,0.065c-0.009,0.019 -0.022,0.035 -0.038,0.048c-0.017,0.013 -0.036,0.023 -0.057,0.03c-0.022,0.007 -0.045,0.011 -0.069,0.011c-0.034,0 -0.067,-0.006 -0.098,-0.019c-0.032,-0.013 -0.06,-0.032 -0.083,-0.058l-0.011,-0.011l-0.041,0.036l0.011,0.012c0.026,0.028 0.058,0.051 0.096,0.067c0.038,0.017 0.081,0.025 0.127,0.025c0.03,0 0.059,-0.004 0.087,-0.013c0.029,-0.009 0.053,-0.023 0.074,-0.04c0.021,-0.018 0.038,-0.04 0.051,-0.065c0.013,-0.026 0.019,-0.055 0.019,-0.088Z" style="fill:rgb(40,47,62);"/>        </g>        <g transform="matrix(12,0,0,12,109.214,8.57603)">            <path d="M0.243,-0.672l-0.241,0l0,-0.052l0.536,0l0,0.052l-0.241,0l0,0.688l-0.054,0l0,-0.688Z" style="fill:rgb(40,47,62);"/>        </g>        <g transform="matrix(12,0,0,12,114.974,8.57603)">            <path d="M0.14,-0.187l-0.087,0.203l-0.059,0l0.32,-0.74l0.05,0l0.308,0.74l-0.059,0l-0.084,-0.203l-0.389,0Zm0.021,-0.051l0.348,0l-0.171,-0.415l-0.177,0.415Z" style="fill:rgb(40,47,62);"/>        </g>        <g transform="matrix(12,0,0,12,122.796,8.57603)">            <path d="M0.243,-0.672l-0.241,0l0,-0.052l0.536,0l0,0.052l-0.241,0l0,0.688l-0.054,0l0,-0.688Z" style="fill:rgb(40,47,62);"/>        </g>        <g transform="matrix(12,0,0,12,129.826,8.57603)">            <path d="M0.143,-0.036l0.407,0l0,0.052l-0.46,0l0,-0.74l0.444,0l0,0.052l-0.391,0l0,0.279l0.368,0l0,0.052l-0.368,0l0,0.305Z" style="fill:rgb(40,47,62);"/>        </g>        <g transform="matrix(12,0,0,12,137.456,8.57603)">            <path d="M0.514,-0.17c0,-0.033 -0.006,-0.061 -0.018,-0.084c-0.012,-0.023 -0.029,-0.043 -0.051,-0.059c-0.021,-0.015 -0.045,-0.029 -0.072,-0.039c-0.026,-0.011 -0.055,-0.021 -0.085,-0.031c-0.022,-0.007 -0.043,-0.015 -0.063,-0.024c-0.02,-0.008 -0.037,-0.018 -0.053,-0.031c-0.015,-0.011 -0.027,-0.026 -0.036,-0.043c-0.009,-0.017 -0.013,-0.038 -0.013,-0.062c0,-0.025 0.005,-0.047 0.015,-0.065c0.01,-0.019 0.024,-0.034 0.04,-0.047c0.018,-0.012 0.037,-0.021 0.058,-0.028c0.022,-0.006 0.044,-0.009 0.066,-0.009c0.032,0 0.061,0.006 0.088,0.018c0.027,0.012 0.048,0.029 0.065,0.05l0.011,0.013l0.041,-0.036l-0.01,-0.012c-0.022,-0.027 -0.05,-0.049 -0.085,-0.063c-0.035,-0.015 -0.071,-0.022 -0.109,-0.022c-0.031,0 -0.06,0.004 -0.088,0.013c-0.029,0.009 -0.053,0.022 -0.075,0.039c-0.022,0.017 -0.039,0.038 -0.052,0.063c-0.013,0.025 -0.019,0.054 -0.019,0.086c0,0.033 0.005,0.06 0.016,0.083c0.011,0.023 0.026,0.043 0.045,0.06c0.019,0.016 0.041,0.029 0.067,0.04c0.025,0.011 0.052,0.021 0.082,0.03c0.023,0.008 0.046,0.016 0.069,0.024c0.021,0.009 0.041,0.019 0.057,0.032c0.017,0.012 0.03,0.026 0.04,0.043c0.01,0.017 0.015,0.037 0.015,0.061c0,0.025 -0.005,0.046 -0.014,0.065c-0.009,0.019 -0.022,0.035 -0.038,0.048c-0.017,0.013 -0.036,0.023 -0.057,0.03c-0.022,0.007 -0.045,0.011 -0.069,0.011c-0.034,0 -0.067,-0.006 -0.098,-0.019c-0.032,-0.013 -0.06,-0.032 -0.083,-0.058l-0.011,-0.011l-0.041,0.036l0.011,0.012c0.026,0.028 0.058,0.051 0.096,0.067c0.038,0.017 0.081,0.025 0.127,0.025c0.03,0 0.059,-0.004 0.087,-0.013c0.029,-0.009 0.053,-0.023 0.074,-0.04c0.021,-0.018 0.038,-0.04 0.051,-0.065c0.013,-0.026 0.019,-0.055 0.019,-0.088Z" style="fill:rgb(40,47,62);"/>        </g>        <g transform="matrix(1,0,0,1,-0.0205297,0)">            <g transform="matrix(0.550139,0,0,0.550139,21.4134,-9.81189)">                <circle cx="27.26" cy="20.648" r="4.768" style="fill:rgb(47,54,68);"/>            </g>            <g transform="matrix(0.550139,0,0,0.550139,21.9635,-9.26175)">                <path d="M18.438,34.3c-0.001,-0.056 -0.002,-0.112 -0.002,-0.167c0,-4.303 3.493,-7.797 7.796,-7.797c4.303,0 7.796,3.494 7.796,7.797c0,0.055 0,0.111 -0.002,0.167l-15.588,0Z" style="fill:rgb(47,54,68);"/>            </g>            <g transform="matrix(0.349147,0,0,0.349147,31.7538,-4.11285)">                <circle cx="27.26" cy="20.648" r="4.768" style="fill:rgb(180,180,180);"/>            </g>            <g transform="matrix(0.550139,0,0,0.550139,21.7935,-9.43178)">                <path d="M32.485,27.959c0.815,-0.592 1.819,-0.942 2.903,-0.942c2.731,0 4.948,2.217 4.948,4.948c0,0.036 -0.001,0.071 -0.001,0.106l-5.321,0c-0.448,-1.601 -1.338,-3.018 -2.529,-4.112Z" style="fill:rgb(180,180,180);"/>            </g>            <g transform="matrix(0.349147,0,0,0.349147,21.6629,-4.11285)">                <circle cx="27.26" cy="20.648" r="4.768" style="fill:rgb(180,180,180);"/>            </g>            <g transform="matrix(0.550139,0,0,0.550139,21.7935,-9.43178)">                <path d="M18.069,32.071l-5.97,0c-0.001,-0.035 -0.001,-0.07 -0.001,-0.106c0,-2.731 2.217,-4.948 4.948,-4.948c1.247,0 2.387,0.463 3.257,1.225c-1.044,1.051 -1.824,2.363 -2.234,3.829Z" style="fill:rgb(180,180,180);"/>            </g>            <g transform="matrix(0.95188,0,0,0.368741,20.1799,-8.84088)">                <path d="M17.139,9.464l-7.682,13.11c-0.257,0.488 -0.619,0.346 -0.808,-0.317c-0.19,-0.663 -0.135,-1.597 0.122,-2.086l8.367,-14.41l8.396,14.409c0.257,0.487 0.313,1.421 0.124,2.085c-0.189,0.664 -0.551,0.808 -0.808,0.321l-7.711,-13.112Z" style="fill:rgb(74,179,228);"/>            </g>        </g>    </g></svg>