<?xml version="1.0" encoding="UTF-8" standalone="no"?><!DOCTYPE svg PUBLIC "-//W3C//DTD SVG 1.1//EN" "http://www.w3.org/Graphics/SVG/1.1/DTD/svg11.dtd"><svg width="100%" height="100%" viewBox="0 0 1024 512" version="1.1" xmlns="http://www.w3.org/2000/svg" xmlns:xlink="http://www.w3.org/1999/xlink" xml:space="preserve" style="fill-rule:evenodd;clip-rule:evenodd;stroke-linejoin:round;stroke-miterlimit:2;"><title>Profitus</title><desc>PROFITUS is one of the most ambitious and fastest growing crowdfunding platforms in the Baltic region. As a crowdlending service, it is as a mediator between those who want to invest and those want to receive funding. "Profitus" carries out risk assessments of the owner and Real Estate projects, administers the financing process, advises on the market. The investment opportunities provided on the PROFITUS platform are always secured by a mortgage.</desc>    <g transform="matrix(2.32313,0,0,2.32313,2,182.807)">        <path d="M9.981,14.036l7.245,0c6.355,0 10.303,3.424 10.303,8.935c0,5.582 -4.119,8.534 -11.912,8.534l-5.636,0l0,-17.469Zm7.486,-8.531l-15.551,0c-1.059,0 -1.916,0.857 -1.916,1.916l0,52.515c0,1.06 0.857,1.917 1.916,1.917l6.148,0c1.059,0 1.917,-0.857 1.917,-1.917l0,-19.899l7.486,0c9.507,0 20.608,-4.533 20.608,-17.308c0,-12.714 -11.101,-17.224 -20.608,-17.224Z" style="fill:rgb(31,22,76);fill-rule:nonzero;"/>        <path d="M66.912,14.036l7.162,0c5.919,0 9.743,3.254 9.743,8.293c0,7.191 -7.938,7.969 -11.352,7.969l-5.553,0l0,-16.262Zm14.57,23.83l0.001,-0.002c3.022,-0.848 12.878,-4.491 12.878,-15.779c0,-5.4 -2.307,-9.822 -6.672,-12.789c-3.548,-2.412 -8.422,-3.791 -13.372,-3.791l-15.471,0c-1.058,0 -1.917,0.857 -1.917,1.916l0,52.515c0,1.06 0.859,1.917 1.917,1.917l6.149,0c1.059,0 1.917,-0.857 1.917,-1.917l0,-21.103l3.542,-0.002l15.527,22.204c0.359,0.511 0.944,0.818 1.569,0.818l7.632,0c0.722,0 1.381,-0.405 1.709,-1.049c0.328,-0.641 0.265,-1.413 -0.158,-1.997l-15.251,-20.941Z" style="fill:rgb(31,22,76);fill-rule:nonzero;"/>        <path d="M141.666,54.045c-10.649,0 -18.677,-8.755 -18.677,-20.367c0,-11.609 8.028,-20.366 18.677,-20.366c10.693,0 18.756,8.757 18.756,20.366c0,11.612 -8.063,20.367 -18.756,20.367Zm0,-49.507c-16.387,0 -29.221,12.801 -29.221,29.14c0,16.342 12.834,29.141 29.221,29.141c16.431,0 29.301,-12.799 29.301,-29.141c0,-16.339 -12.87,-29.14 -29.301,-29.14Z" style="fill:rgb(31,22,76);fill-rule:nonzero;"/>        <path d="M219.376,5.503l-26.271,0c-1.06,0 -1.916,0.858 -1.916,1.917l0,52.516c0,1.059 0.856,1.917 1.916,1.917l6.148,0c1.059,0 1.917,-0.858 1.917,-1.917l0,-21.429l18.206,0c1.06,0 1.918,-0.856 1.918,-1.917l0,-4.697c0,-1.059 -0.858,-1.918 -1.918,-1.918l-18.206,0l0,-15.94l18.206,0c1.06,0 1.918,-0.856 1.918,-1.916l0,-4.699c0,-1.059 -0.858,-1.917 -1.918,-1.917Z" style="fill:rgb(31,22,76);fill-rule:nonzero;"/>        <path d="M253.896,5.503l-6.147,0c-1.061,0 -1.918,0.858 -1.918,1.917l0,52.516c0,1.059 0.857,1.917 1.918,1.917l6.147,0c1.06,0 1.916,-0.858 1.916,-1.917l0,-52.516c0,-1.059 -0.856,-1.917 -1.916,-1.917Z" style="fill:rgb(31,22,76);fill-rule:nonzero;"/>        <path d="M315.144,5.503l-33.518,0c-1.06,0 -1.917,0.858 -1.917,1.917l0,4.699c0,1.06 0.857,1.916 1.917,1.916l11.768,0l0,45.901c0,1.059 0.857,1.917 1.917,1.917l6.148,0c1.06,0 1.916,-0.858 1.916,-1.917l0,-45.901l11.769,0c1.059,0 1.917,-0.856 1.917,-1.916l0,-4.699c0,-1.059 -0.858,-1.917 -1.917,-1.917Z" style="fill:rgb(31,22,76);fill-rule:nonzero;"/>        <path d="M421.434,27.48l0.002,0l-0.332,-0.113c-5.326,-1.803 -9.732,-3.622 -9.732,-7.616c0,-4.009 3.288,-6.601 8.374,-6.601c3.302,0 7.167,1.383 10.343,3.697c0.818,0.604 1.967,0.451 2.611,-0.332l3.369,-4.11c0.343,-0.418 0.492,-0.963 0.415,-1.498c-0.082,-0.534 -0.382,-1.011 -0.834,-1.312c-5.171,-3.451 -10.404,-5.057 -16.468,-5.057c-8.859,0 -17.791,4.853 -17.791,15.696c0,9.743 7.673,13.337 15.545,16.186c6.783,2.414 11.584,4.506 11.584,9.495c0,7.891 -8.317,8.29 -9.983,8.29c-5.705,0 -9.242,-2.179 -13.101,-5.693c-0.748,-0.678 -1.895,-0.665 -2.623,0.038l-3.999,3.856c-0.385,0.367 -0.596,0.882 -0.586,1.415c0.009,0.531 0.241,1.036 0.638,1.392c5.796,5.189 12.021,7.606 19.59,7.606c9.927,0 20.607,-5.467 20.607,-17.468c0,-10.975 -8.338,-14.715 -17.629,-17.871Z" style="fill:rgb(31,22,76);fill-rule:nonzero;"/>        <path d="M371.808,0.352l-9.523,14.285c-0.115,0.145 -0.183,0.314 -0.202,0.489c-0.005,0.036 -0.006,0.068 -0.008,0.1c-0.001,0.144 0.029,0.29 0.093,0.425c0.161,0.333 0.498,0.543 0.866,0.543l5.091,0l0,24.814c0,6.839 -5.565,12.405 -12.405,12.405l-0.856,0c-6.842,0 -12.408,-5.566 -12.408,-12.405l0,-21.181l-0.004,-0.014l0,-1.889c0,-1.019 -0.821,-1.841 -1.839,-1.841l-5.9,0c-1.019,0 -1.842,0.822 -1.842,1.841l0,23.084c0,12.125 9.867,21.992 21.993,21.992l0.856,0c12.126,0 21.991,-9.867 21.991,-21.992l0,-24.814l4.37,0c0.37,0 0.703,-0.21 0.865,-0.543c0.066,-0.135 0.095,-0.281 0.094,-0.425c0,-0.032 -0.003,-0.064 -0.006,-0.1c-0.02,-0.175 -0.088,-0.344 -0.205,-0.489l-9.523,-14.285c-0.185,-0.227 -0.467,-0.34 -0.75,-0.34c-0.282,0 -0.565,0.113 -0.748,0.34Z" style="fill:url(#_Linear1);"/>    </g>    <defs>        <linearGradient id="_Linear1" x1="0" y1="0" x2="1" y2="0" gradientUnits="userSpaceOnUse" gradientTransform="matrix(57.7351,-57.6126,57.6126,57.7351,323.418,55.7197)"><stop offset="0" style="stop-color:rgb(14,15,46);stop-opacity:1"/><stop offset="0.1" style="stop-color:rgb(39,42,111);stop-opacity:1"/><stop offset="0.2" style="stop-color:rgb(52,70,157);stop-opacity:1"/><stop offset="0.3" style="stop-color:rgb(63,86,166);stop-opacity:1"/><stop offset="0.5" style="stop-color:rgb(97,89,167);stop-opacity:1"/><stop offset="0.8" style="stop-color:rgb(187,102,169);stop-opacity:1"/><stop offset="1" style="stop-color:rgb(228,179,211);stop-opacity:1"/></linearGradient>    </defs></svg>