<?xml version="1.0" encoding="UTF-8" standalone="no"?><!DOCTYPE svg PUBLIC "-//W3C//DTD SVG 1.1//EN" "http://www.w3.org/Graphics/SVG/1.1/DTD/svg11.dtd"><svg width="100%" height="100%" viewBox="0 0 1024 512" version="1.1" xmlns="http://www.w3.org/2000/svg" xmlns:xlink="http://www.w3.org/1999/xlink" xml:space="preserve" style="fill-rule:evenodd;clip-rule:evenodd;stroke-linejoin:round;stroke-miterlimit:2;"><title>RealFunding</title><desc>The purpose of RealFunding is to help organizations with social or environmental impact have better access to credit and to energize and make sense of people's savings.To do this, RealFunding offers a crowdfunding platform in the form of an interest-free loan where organizations apply for a funding campaign and social investors consult and choose the projects to which they lend a small part of their savings.</desc>    <g transform="matrix(1.01986,0,0,1.01986,3.41934,102.769)">        <g>            <g transform="matrix(1,0,0,1,-0.774069,0)">                <path d="M148.758,203c17.995,0 32.605,14.61 32.605,32.605c0,19.145 -32.605,63.816 -32.605,63.816c0,0 -32.605,-44.671 -32.605,-63.816c0,-3.761 0.638,-7.374 1.811,-10.735c-1.519,3.001 -3.531,5.814 -6.036,8.32c-13.538,13.537 -68.18,22.069 -68.18,22.069c0,0 8.532,-54.642 22.069,-68.18c12.725,-12.724 33.386,-12.724 46.111,0c9.142,9.143 11.716,22.383 7.72,33.834c5.376,-10.623 16.398,-17.913 29.11,-17.913Zm70.505,-81.876c-11.292,3.664 -24.193,1.015 -33.156,-7.948c-12.725,-12.725 -12.725,-33.386 0,-46.111c13.537,-13.537 68.18,-22.07 68.18,-22.07c0,0 -8.532,54.643 -22.07,68.181c-2.381,2.38 -5.039,4.316 -7.874,5.807c3.167,-1.028 6.547,-1.583 10.057,-1.583c19.144,0 63.816,32.605 63.816,32.605c0,0 -44.672,32.605 -63.816,32.605c-4.28,0 -8.368,-0.827 -12.115,-2.329c3.607,1.583 6.983,3.849 9.932,6.798c13.538,13.538 22.07,68.18 22.07,68.18c0,0 -54.643,-8.532 -68.18,-22.069c-12.725,-12.725 -12.725,-33.386 0,-46.111c9.514,-9.514 23.465,-11.914 35.216,-7.202c-11.493,-5.044 -19.528,-16.527 -19.528,-29.872c0,-12.534 7.087,-23.425 17.468,-28.881Zm-144.574,-1.639c-3.209,-1.548 -6.214,-3.651 -8.872,-6.309c-13.537,-13.538 -22.069,-68.181 -22.069,-68.181c0,0 54.642,8.533 68.18,22.07c12.724,12.725 12.724,33.386 0,46.111c-9.345,9.345 -22.971,11.827 -34.588,7.446c10.921,5.271 18.464,16.453 18.464,29.383c0,17.995 -14.61,32.605 -32.605,32.605c-19.145,0 -63.817,-32.605 -63.817,-32.605c0,0 44.672,-32.605 63.817,-32.605c4.043,0 7.916,0.737 11.49,2.085Z" style="fill:rgb(136,179,107);"/>            </g>            <g transform="matrix(1.25997,0,0,1.25997,-40.3994,-58.8319)">                <path d="M149.547,104.888c33.505,0 60.708,27.203 60.708,60.708c0,33.506 -27.203,60.708 -60.708,60.708c-33.506,0 -60.708,-27.202 -60.708,-60.708c0,-33.505 27.202,-60.708 60.708,-60.708Zm0,35.104c14.131,0 25.604,11.473 25.604,25.604c0,14.131 -11.473,25.604 -25.604,25.604c-14.131,0 -25.604,-11.473 -25.604,-25.604c0,-14.131 11.473,-25.604 25.604,-25.604Z" style="fill:rgb(94,164,68);"/>            </g>            <g transform="matrix(1.8264,0,0,1.35028,-125.149,-35.5564)">                <path d="M149.57,27.129c0,0 -17.852,33.083 -17.852,47.261c0,13.327 7.999,24.147 17.852,24.147c9.853,0 17.852,-10.82 17.852,-24.147c0,-14.178 -17.852,-47.261 -17.852,-47.261Z" style="fill:rgb(0,155,201);"/>            </g>        </g>        <g transform="matrix(1.75901,0,0,2.11521,-530.603,-334.377)">            <g transform="matrix(70.2139,0,0,53.147,505.612,243.056)">                <path d="M0.07,-0.74l0.308,0c0.033,0 0.063,0.004 0.091,0.013c0.028,0.008 0.15,0.004 0.153,0.187c0.003,0.156 -0.106,0.168 -0.125,0.174c0.008,0.004 0.016,0.009 0.025,0.016c0.008,0.006 0.016,0.014 0.023,0.024c0.007,0.01 0.014,0.021 0.02,0.033c0.006,0.012 0.011,0.025 0.014,0.039l0.041,0.161l0.056,0l0.001,0.093l-0.16,0l-0.055,-0.225c-0.01,-0.04 -0.026,-0.043 -0.046,-0.063c-0.021,-0.019 -0.049,-0.028 -0.085,-0.028l-0.055,0l0,0.232l0.075,0l0,0.084l-0.281,0l0,-0.084l0.07,0l0,-0.572l-0.07,0l0,-0.084Zm0.206,0.084l0,0.233l0.102,0c0.018,0 0.035,-0.002 0.051,-0.007c0.015,-0.005 0.029,-0.012 0.04,-0.022c0.011,-0.01 0.02,-0.022 0.026,-0.037c0.007,-0.014 0.01,-0.031 0.01,-0.05c0,-0.037 -0.011,-0.065 -0.033,-0.086c-0.022,-0.021 -0.058,-0.031 -0.106,-0.031l-0.09,0Z" style="fill:rgb(51,51,51);fill-rule:nonzero;"/>            </g>            <g transform="matrix(69.0918,0,0,56.8702,553.056,243.404)">                <path d="M0.282,-0.535c0.037,0 0.073,0.009 0.108,0.026c0.035,0.018 0.061,0.04 0.08,0.068c0.017,0.026 0.029,0.057 0.035,0.092c0.005,0.024 0.008,0.063 0.008,0.116l-0.342,0c0.001,0.053 0.021,0.16 0.105,0.159c0.095,-0.002 0.104,-0.067 0.11,-0.09l0.119,0c-0.002,0.019 -0.009,0.041 -0.022,0.064c-0.013,0.024 -0.028,0.043 -0.044,0.058c-0.026,0.026 -0.059,0.044 -0.099,0.053c-0.021,0.005 -0.045,0.008 -0.071,0.008c-0.066,0 -0.121,-0.024 -0.166,-0.071c-0.045,-0.048 -0.068,-0.114 -0.068,-0.199c0,-0.084 0.023,-0.153 0.069,-0.205c0.045,-0.052 0.105,-0.079 0.178,-0.079Zm0.107,0.232c-0.003,-0.038 -0.024,-0.146 -0.112,-0.147c-0.081,0 -0.102,0.102 -0.104,0.147l0.216,0Z" style="fill:rgb(51,51,51);fill-rule:nonzero;"/>            </g>            <g transform="matrix(68.3863,0,0,56.8702,588.84,243.404)">                <path d="M0.174,-0.156c0,0.026 0.008,0.095 0.082,0.086c0.118,-0.014 0.112,-0.165 0.112,-0.165c-0.01,0.007 -0.107,-0.006 -0.129,0.003c-0.04,0.016 -0.065,0.043 -0.065,0.076Zm0.185,-0.161c0.009,-0.039 0.021,-0.146 -0.09,-0.142c-0.046,0.001 -0.075,0.069 -0.079,0.096l-0.123,0c0.002,-0.065 0.022,-0.11 0.063,-0.135c0.04,-0.025 0.086,-0.038 0.14,-0.038c0.061,0 0.111,0.012 0.149,0.036c0.039,0.023 0.066,0.059 0.066,0.109l0,0.309l0.066,0l0,0.084c-0.013,0.004 -0.179,0.001 -0.179,0.001c0,0 0.002,-0.046 -0.001,-0.067c-0.018,0.024 -0.057,0.074 -0.166,0.082c-0.048,0.003 -0.088,-0.015 -0.119,-0.045c-0.031,-0.029 -0.046,-0.066 -0.046,-0.11c0,-0.049 0.015,-0.086 0.045,-0.113c0.031,-0.027 0.069,-0.047 0.118,-0.053l0.156,-0.014Z" style="fill:rgb(51,51,51);fill-rule:nonzero;"/>            </g>            <g transform="matrix(71.7605,0,0,54.9515,628.431,243.403)">                <path d="M0.273,-0.081l0,0.081l-0.254,0l0,-0.081l0.067,0l0,-0.566l-0.067,0l0,-0.089l0.192,0l0,0.655l0.062,0Z" style="fill:rgb(51,51,51);fill-rule:nonzero;"/>            </g>            <g transform="matrix(0.568501,0,0,0.472766,301.648,158.15)">                <path d="M695.111,180.155l-0.404,0l-0.429,-12.544c0.262,-0.662 0,0 0,0c-0.89,2.247 -2.174,4.328 -3.851,6.243c-2.172,2.48 -4.727,4.428 -7.666,5.845c-2.938,1.417 -6.026,2.126 -9.262,2.126c-4.685,0 -8.432,-1.645 -11.243,-4.934c-2.811,-3.29 -4.301,-7.566 -4.472,-12.829l0,-38.631l-8.292,0l0,-6.158l14.266,0l0,1.522l0.031,0l0,41.142c0.17,3.846 1.214,7.034 3.13,9.564c1.916,2.53 4.791,3.897 8.624,4.099c3.236,0 6.26,-1.012 9.071,-3.036c2.811,-2.024 5.089,-4.782 6.835,-8.274c1.746,-3.492 2.619,-7.464 2.619,-11.917l0,-26.942l-8.261,0l0,-6.158l14.266,0l0,55.337l9.304,0l0,6.158l-14.266,0l0,-0.613Z" style="fill:rgb(51,51,51);fill-rule:nonzero;"/>            </g>            <g transform="matrix(0.568501,0,0,0.472766,301.648,158.15)">                <path d="M762.089,174.785l0,-37.505c-0.086,-3.497 -1.108,-6.396 -3.067,-8.697c-1.959,-2.301 -4.812,-3.497 -8.56,-3.589c-3.321,0 -6.43,0.874 -9.326,2.623c-2.896,1.748 -5.217,4.187 -6.963,7.316c-1.746,3.129 -2.619,6.764 -2.619,10.906l0,28.946l9.406,0l0,6.172l-24.954,0l0,-6.172l9.543,0l0,-49.354l-9.543,0l0,-6.158l15.066,0l0,6.158l-0.112,0l0.279,7.435c1.549,-3.918 4.103,-7.072 7.661,-9.46c4.046,-2.715 8.539,-4.072 13.479,-4.072c4.684,0 8.475,1.495 11.371,4.486c2.895,2.991 4.386,6.88 4.471,11.665l0,39.3l7.922,0l0,6.172l-24.954,0l0,-6.172l10.9,0Z" style="fill:rgb(51,51,51);"/>            </g>            <g transform="matrix(0.568501,0,0,0.472766,392.573,158.15)">                <path d="M762.089,174.785l0,-37.505c-0.086,-3.497 -1.108,-6.396 -3.067,-8.697c-1.959,-2.301 -4.812,-3.497 -8.56,-3.589c-3.321,0 -6.43,0.874 -9.326,2.623c-2.896,1.748 -5.217,4.187 -6.963,7.316c-1.746,3.129 -2.619,6.764 -2.619,10.906l0,28.946l9.406,0l0,6.172l-24.954,0l0,-6.172l9.543,0l0,-49.354l-9.543,0l0,-6.158l15.066,0l0,6.158l-0.112,0l0.279,7.435c1.549,-3.918 4.103,-7.072 7.661,-9.46c4.046,-2.715 8.539,-4.072 13.479,-4.072c4.684,0 8.475,1.495 11.371,4.486c2.895,2.991 4.386,6.88 4.471,11.665l0,39.3l7.922,0l0,6.172l-24.954,0l0,-6.172l10.9,0Z" style="fill:rgb(51,51,51);"/>            </g>            <g transform="matrix(0.568501,0,0,0.472766,301.648,158.15)">                <path d="M824.614,180.957l0,-11.418c0.462,-0.738 0,0 0,0c-2.057,3.292 -4.29,6.047 -7.768,8.264c-4.259,2.715 -8.986,4.073 -14.182,4.073c-4.684,0 -8.943,-1.22 -12.776,-3.658c-3.832,-2.439 -4.877,-5.821 -7.134,-10.147c-2.258,-4.325 -3.386,-15.203 -3.386,-20.633c0,-5.798 1.15,-10.813 3.449,-15.047c2.3,-4.233 3.43,-7.5 7.391,-9.801c3.96,-2.301 8.326,-3.451 13.095,-3.451c4.77,0 9.305,1.334 13.607,4.003c3.618,2.245 6.407,5.076 8.368,8.493l1.022,1.999c-0.311,-0.687 -0.652,-1.353 -1.022,-1.999l0,-30.937l-11.766,0l0,-6.172l17.771,0l0,80.245l7.627,0.014l0,6.172l-14.296,0Zm-20.416,-4.741c3.832,0 7.282,-0.897 10.348,-2.692c3.066,-1.795 5.536,-4.233 7.41,-7.316c1.874,-3.083 2.939,-12.558 3.194,-16.423l0,-6.902c-0.596,-3.497 -1.916,-6.626 -3.96,-9.387c-2.044,-2.761 -4.514,-4.947 -7.41,-6.558c-2.896,-1.61 -6.09,-2.415 -9.582,-2.415c-3.833,0 -7.325,0.966 -10.477,2.899c-3.151,1.932 -3.664,4.601 -5.538,8.006c-1.873,3.405 -2.81,7.363 -2.81,11.872c0,4.234 0.937,14.076 2.81,17.527c1.874,3.451 2.408,6.212 5.602,8.283c3.194,2.071 6.665,3.106 10.413,3.106Z" style="fill:rgb(51,51,51);"/>            </g>            <g transform="matrix(0.568501,0,0,0.472766,393.022,157.706)">                <path d="M803.376,196.754c22.78,0.471 19.47,-23.275 19.47,-23.275c-2.985,2.813 -2.522,2.107 -6,4.324c-4.259,2.715 -8.986,4.073 -14.182,4.073c-4.684,0 -8.943,-1.22 -12.776,-3.658c-3.832,-2.439 -4.877,-5.821 -7.134,-10.147c-2.258,-4.325 -3.386,-15.203 -3.386,-20.633c0,-5.798 1.406,-10.684 3.449,-15.047c6.35,-13.556 15.717,-13.252 20.486,-13.252c4.77,0 9.305,1.334 13.607,4.003c3.618,2.245 6.643,6.657 6.643,6.657c-0.311,-0.687 -0.071,-8.785 -0.071,-8.785l13.974,0l0.566,5.643l-8.386,0l0.278,58.276c0,0 -4.169,19.415 -26.491,18.942c-20.498,-0.435 -21.925,-16.621 -21.925,-16.621l7.402,0c0,0 0.788,9.216 14.476,9.5Zm0.822,-20.538c3.832,0 7.282,-0.897 10.348,-2.692c3.066,-1.795 3.536,-4.233 5.41,-7.316c1.874,-3.083 2.939,-12.558 3.194,-16.423l0,-6.902c-0.596,-3.497 -1.916,-6.626 -3.96,-9.387c-2.044,-2.761 -2.514,-4.947 -5.41,-6.558c-2.896,-1.61 -6.09,-2.415 -9.582,-2.415c-3.833,0 -7.325,0.966 -10.477,2.899c-3.151,1.932 -3.664,4.601 -5.538,8.006c-1.873,3.405 -2.81,7.363 -2.81,11.872c0,4.234 0.937,14.076 2.81,17.527c1.874,3.451 2.408,6.212 5.602,8.283c3.194,2.071 6.665,3.106 10.413,3.106Z" style="fill:rgb(51,51,51);"/>            </g>            <g transform="matrix(0.568501,0,0,0.472766,301.648,158.15)">                <path d="M621.241,136.187l0,-13.562l5.678,0l0,33.37l-5.678,0l0,-14.592l-15.375,0l0,-5.216l15.375,0Z" style="fill:rgb(51,51,51);"/>            </g>            <g transform="matrix(0.568501,0,0,0.472766,301.648,158.15)">                <path d="M643.296,95.199l0.042,0l0,27.485l-6.754,0l0,-22.626l-30.353,0l0,-5.636l37.065,0l0,0.777Z" style="fill:rgb(51,51,51);"/>            </g>            <g transform="matrix(0.568501,0,0,0.472766,301.648,158.15)">                <path d="M859.601,119.283l0,55.859l10.255,0l0,6.005l-25.6,0l0,-6.005l9.341,0l0,-49.854l-9.341,0l0,-6.005l15.345,0Z" style="fill:rgb(51,51,51);fill-rule:nonzero;"/>            </g>            <g transform="matrix(0.568501,0,0,0.472766,301.648,158.15)">                <rect x="853.145" y="94.902" width="8.078" height="8.417" style="fill:rgb(51,51,51);"/>            </g>        </g>    </g></svg>