<?xml version="1.0" encoding="UTF-8" standalone="no"?><!DOCTYPE svg PUBLIC "-//W3C//DTD SVG 1.1//EN" "http://www.w3.org/Graphics/SVG/1.1/DTD/svg11.dtd"><svg width="100%" height="100%" viewBox="0 0 1024 512" version="1.1" xmlns="http://www.w3.org/2000/svg" xmlns:xlink="http://www.w3.org/1999/xlink" xml:space="preserve" style="fill-rule:evenodd;clip-rule:evenodd;stroke-linejoin:round;stroke-miterlimit:2;"><title>Crowdestate</title><desc>Crowdestate is a Crowdfunding marketplace offering high-quality, pre-vetted real estate investment opportunities in Estonia, Finland and Latvia.While our close relationship with local real estate developers gives us access to a large number of pre-market real estate investment opportunities, only about 5% of the best investment opportunities survive our due diligence process and are opened for investing.</desc>    <g transform="matrix(4.45281,0,0,4.44812,2,76)">        <g>            <path d="M58.034,67.597c-0.023,0.514 -0.198,1.104 -0.535,1.773c-0.337,0.669 -0.933,1.379 -1.792,2.128c-0.861,0.75 -2.071,1.414 -3.636,1.988c-1.564,0.575 -3.521,0.969 -5.866,1.181l-0.452,0.039c-0.116,0.5 -0.182,0.961 -0.198,1.386c-0.036,0.927 0.166,1.592 0.59,1.998c0.431,0.405 1.073,0.608 1.921,0.608c1.873,0 3.706,-1.012 5.493,-3.037l1.988,0c-0.821,1.188 -2.037,2.361 -3.653,3.525c-1.62,1.162 -3.508,1.744 -5.67,1.744c-1.501,0 -2.771,-0.402 -3.81,-1.21c-1.039,-0.806 -1.529,-1.99 -1.474,-3.555c0.066,-1.911 0.666,-3.771 1.792,-5.576c1.13,-1.808 2.635,-3.276 4.514,-4.407c1.882,-1.134 3.895,-1.697 6.061,-1.697c1.741,0 2.967,0.294 3.691,0.881c0.72,0.59 1.068,1.333 1.036,2.231Zm-3.956,-0.074c0.014,-0.412 -0.114,-0.789 -0.39,-1.135c-0.277,-0.343 -0.661,-0.515 -1.162,-0.515c-0.878,0 -1.69,0.303 -2.445,0.909c-0.752,0.605 -1.395,1.322 -1.925,2.147c-0.531,0.824 -0.967,1.663 -1.316,2.512c-0.352,0.852 -0.57,1.374 -0.648,1.576c2.553,-0.426 4.491,-1.144 5.823,-2.156c1.33,-1.013 2.023,-2.124 2.063,-3.338Z" style="fill:rgb(73,125,234);fill-rule:nonzero;"/>            <path d="M84.067,67.674c-0.02,0.512 -0.207,0.962 -0.566,1.35c-0.357,0.387 -0.828,0.58 -1.418,0.58c-0.446,0 -0.796,-0.087 -1.048,-0.262c-0.249,-0.175 -0.442,-0.418 -0.574,-0.73c-0.132,-0.312 -0.295,-0.775 -0.482,-1.388c-0.111,-0.426 -0.296,-0.756 -0.558,-0.995c-0.26,-0.236 -0.753,-0.355 -1.476,-0.355c-0.649,0 -1.24,0.168 -1.775,0.507c-0.53,0.337 -0.803,0.78 -0.825,1.33c-0.013,0.375 0.078,0.731 0.281,1.069c0.201,0.338 0.449,0.656 0.744,0.955c0.297,0.302 0.758,0.726 1.386,1.277c1.19,0.998 2.052,1.843 2.582,2.531c0.531,0.687 0.78,1.537 0.741,2.549c-0.029,0.826 -0.292,1.608 -0.797,2.346c-0.499,0.736 -1.309,1.337 -2.426,1.801c-1.117,0.462 -2.53,0.692 -4.244,0.692c-2.464,0 -4.18,-0.453 -5.144,-1.359c-0.972,-0.906 -1.437,-1.784 -1.407,-2.634c0.023,-0.563 0.235,-1.058 0.636,-1.483c0.402,-0.423 0.925,-0.639 1.562,-0.639c1.273,0 1.974,0.82 2.101,2.458c0.065,0.701 0.241,1.254 0.531,1.661c0.295,0.405 0.918,0.609 1.882,0.609c0.838,0 1.533,-0.213 2.084,-0.639c0.557,-0.424 0.848,-0.968 0.867,-1.632c0.015,-0.351 -0.065,-0.693 -0.235,-1.03c-0.164,-0.339 -0.528,-0.751 -1.087,-1.237c-0.982,-0.851 -1.79,-1.602 -2.419,-2.252c-0.64,-0.649 -1.111,-1.273 -1.425,-1.876c-0.318,-0.6 -0.463,-1.23 -0.442,-1.893c0.024,-0.588 0.243,-1.225 0.653,-1.913c0.414,-0.687 1.163,-1.291 2.259,-1.809c1.092,-0.521 2.559,-0.778 4.398,-0.778c1.124,0 2.073,0.103 2.839,0.31c0.767,0.205 1.354,0.469 1.761,0.787c0.409,0.319 0.685,0.656 0.836,1.013c0.148,0.357 0.219,0.716 0.205,1.079Z" style="fill:rgb(73,125,234);fill-rule:nonzero;"/>            <path d="M106.356,65.029l-0.59,1.726l-3.728,0l-3.167,9.264c-0.24,0.661 -0.361,1.144 -0.371,1.443c-0.009,0.264 0.067,0.504 0.239,0.723c0.164,0.22 0.379,0.329 0.641,0.329c0.728,0 1.378,-0.355 1.951,-1.062c0.574,-0.705 1.097,-1.47 1.564,-2.296l1.766,0c-0.757,1.552 -1.592,2.759 -2.506,3.629c-0.912,0.869 -1.758,1.444 -2.533,1.725c-0.778,0.282 -1.492,0.423 -2.127,0.423c-1.077,0 -1.9,-0.312 -2.481,-0.938c-0.575,-0.626 -0.844,-1.456 -0.806,-2.493c0.021,-0.714 0.246,-1.682 0.668,-2.908l2.719,-7.838l-3.507,0l0.604,-1.726l3.49,0l1.933,-5.719l4.46,0l-1.931,5.719l3.712,0l0,-0.001Z" style="fill:rgb(73,125,234);fill-rule:nonzero;"/>            <path d="M133.858,75.887c-0.388,0.738 -0.821,1.413 -1.29,2.025c-0.474,0.613 -0.996,1.148 -1.559,1.612c-0.572,0.463 -1.134,0.812 -1.699,1.05c-0.567,0.237 -1.148,0.356 -1.749,0.356c-1.31,0 -2.136,-0.396 -2.479,-1.19c-0.34,-0.794 -0.491,-1.741 -0.445,-2.841c-1.045,1.187 -2.067,2.155 -3.069,2.905c-1.003,0.751 -2.129,1.126 -3.378,1.126c-0.737,0 -1.346,-0.203 -1.821,-0.61c-0.469,-0.406 -0.81,-0.953 -1.015,-1.64c-0.208,-0.688 -0.297,-1.426 -0.269,-2.212c0.061,-1.689 0.559,-3.47 1.487,-5.347c0.933,-1.873 2.163,-3.448 3.688,-4.726c1.528,-1.273 3.148,-1.911 4.857,-1.911c0.79,0 1.402,0.156 1.841,0.47c0.44,0.312 0.737,0.661 0.89,1.05c0.155,0.386 0.289,0.818 0.396,1.294l0.779,-2.344l4.143,0l-3.901,11.437c-0.279,0.825 -0.421,1.326 -0.43,1.5c-0.004,0.163 0.043,0.303 0.147,0.414c0.101,0.112 0.223,0.167 0.356,0.167c0.812,0 1.715,-0.862 2.702,-2.586l1.818,0l0,0.001Zm-6.723,-7.481c0.022,-0.612 -0.074,-1.139 -0.293,-1.577c-0.213,-0.438 -0.626,-0.655 -1.24,-0.655c-0.938,0 -1.865,0.541 -2.785,1.622c-0.921,1.08 -1.682,2.388 -2.281,3.918c-0.6,1.531 -0.917,2.823 -0.954,3.874c-0.056,1.512 0.394,2.27 1.345,2.27c0.662,0 1.349,-0.303 2.065,-0.91c0.714,-0.606 1.386,-1.417 2.01,-2.428c0.651,-1.052 1.161,-2.113 1.534,-3.189c0.366,-1.075 0.568,-2.051 0.599,-2.925Z" style="fill:rgb(73,125,234);fill-rule:nonzero;"/>            <path d="M156.425,65.029l-0.587,1.726l-3.729,0l-3.167,9.264c-0.237,0.661 -0.359,1.144 -0.37,1.443c-0.01,0.264 0.068,0.504 0.234,0.723c0.168,0.22 0.381,0.329 0.643,0.329c0.728,0 1.38,-0.355 1.955,-1.062c0.574,-0.705 1.097,-1.47 1.564,-2.296l1.76,0c-0.756,1.552 -1.586,2.759 -2.505,3.629c-0.908,0.869 -1.756,1.444 -2.537,1.725c-0.774,0.282 -1.486,0.423 -2.12,0.423c-1.079,0 -1.904,-0.312 -2.479,-0.938c-0.578,-0.626 -0.85,-1.456 -0.813,-2.493c0.027,-0.714 0.251,-1.682 0.669,-2.908l2.721,-7.838l-3.505,0l0.605,-1.726l3.49,0l1.93,-5.719l4.464,0l-1.935,5.719l3.712,0l0,-0.001Z" style="fill:rgb(73,125,234);fill-rule:nonzero;"/>            <path d="M181.845,67.597c-0.02,0.514 -0.196,1.105 -0.529,1.773c-0.341,0.669 -0.938,1.379 -1.796,2.129c-0.856,0.749 -2.068,1.413 -3.635,1.987c-1.559,0.575 -3.518,0.969 -5.864,1.181l-0.447,0.039c-0.122,0.5 -0.19,0.961 -0.203,1.386c-0.033,0.927 0.164,1.592 0.591,1.998c0.43,0.405 1.068,0.608 1.922,0.608c1.874,0 3.706,-1.011 5.488,-3.037l1.99,0c-0.819,1.188 -2.035,2.361 -3.654,3.525c-1.617,1.162 -3.508,1.744 -5.67,1.744c-1.499,0 -2.769,-0.401 -3.809,-1.21c-1.042,-0.806 -1.53,-1.99 -1.475,-3.552c0.069,-1.914 0.668,-3.772 1.793,-5.579c1.131,-1.808 2.632,-3.276 4.512,-4.407c1.88,-1.133 3.9,-1.697 6.064,-1.697c1.738,0 2.965,0.294 3.688,0.881c0.721,0.59 1.068,1.333 1.034,2.231Zm-3.95,-0.073c0.013,-0.412 -0.118,-0.791 -0.392,-1.135c-0.275,-0.344 -0.664,-0.516 -1.165,-0.516c-0.873,0 -1.688,0.304 -2.443,0.909c-0.749,0.605 -1.392,1.322 -1.924,2.147c-0.531,0.824 -0.967,1.663 -1.317,2.512c-0.35,0.852 -0.567,1.374 -0.646,1.576c2.549,-0.426 4.493,-1.144 5.823,-2.156c1.332,-1.012 2.019,-2.124 2.064,-3.337Z" style="fill:rgb(73,125,234);fill-rule:nonzero;"/>        </g>        <g>            <path d="M16.292,51.029c-2.326,0 -4.49,-0.423 -6.492,-1.271c-1.993,-0.846 -3.715,-2.005 -5.174,-3.473c-1.45,-1.466 -2.584,-3.198 -3.403,-5.197c-0.814,-1.996 -1.223,-4.129 -1.223,-6.4l0,-0.091c0,-2.27 0.409,-4.395 1.224,-6.377c0.818,-1.982 1.953,-3.722 3.403,-5.219c1.458,-1.499 3.196,-2.679 5.224,-3.542c2.026,-0.863 4.27,-1.294 6.718,-1.294c1.48,0 2.833,0.123 4.061,0.365c1.225,0.242 2.343,0.575 3.338,0.999c0.995,0.423 1.919,0.937 2.769,1.541c0.844,0.607 1.633,1.273 2.362,1.999l-4.451,5.128c-1.242,-1.119 -2.504,-1.997 -3.79,-2.632c-1.286,-0.637 -2.734,-0.953 -4.335,-0.953c-1.335,0 -2.565,0.258 -3.701,0.771c-1.135,0.516 -2.111,1.226 -2.925,2.133c-0.82,0.909 -1.458,1.96 -1.908,3.157c-0.452,1.195 -0.681,2.472 -0.681,3.833l0,0.091c0,1.361 0.229,2.647 0.681,3.859c0.451,1.209 1.084,2.269 1.888,3.176c0.796,0.908 1.764,1.626 2.903,2.156c1.134,0.53 2.382,0.794 3.744,0.794c1.81,0 3.346,-0.332 4.607,-0.997c1.253,-0.666 2.507,-1.574 3.741,-2.726l4.449,4.494c-0.813,0.877 -1.667,1.665 -2.538,2.36c-0.884,0.695 -1.841,1.295 -2.883,1.794c-1.043,0.498 -2.191,0.877 -3.427,1.134c-1.243,0.258 -2.636,0.388 -4.181,0.388Z" style="fill:rgb(73,125,234);fill-rule:nonzero;"/>            <path d="M46.25,18.712l14.53,0c4.019,0 7.108,1.073 9.258,3.22c1.813,1.817 2.719,4.239 2.719,7.265l0,0.09c0,2.572 -0.625,4.669 -1.881,6.286c-1.256,1.62 -2.897,2.807 -4.92,3.564l7.758,11.347l-8.174,0l-6.805,-10.167l-0.093,0l-5.399,0l0,10.167l-6.993,0l0,-31.772Zm14.072,15.433c1.727,0 3.048,-0.408 3.974,-1.228c0.922,-0.815 1.384,-1.905 1.384,-3.266l0,-0.091c0,-1.512 -0.485,-2.648 -1.455,-3.406c-0.966,-0.754 -2.314,-1.133 -4.04,-1.133l-6.942,0l0,9.124l7.079,0Z" style="fill:rgb(73,125,234);fill-rule:nonzero;"/>            <path d="M105.85,51.029c-2.453,0 -4.711,-0.432 -6.764,-1.294c-2.059,-0.862 -3.834,-2.026 -5.334,-3.494c-1.499,-1.466 -2.662,-3.192 -3.496,-5.175c-0.833,-1.983 -1.25,-4.107 -1.25,-6.378l0,-0.091c0,-2.27 0.425,-4.395 1.275,-6.377c0.844,-1.981 2.021,-3.722 3.516,-5.218c1.497,-1.5 3.284,-2.681 5.356,-3.543c2.073,-0.863 4.336,-1.294 6.784,-1.294c2.451,0 4.705,0.431 6.764,1.294c2.059,0.863 3.839,2.029 5.335,3.497c1.499,1.467 2.666,3.193 3.492,5.174c0.835,1.981 1.255,4.107 1.255,6.377l0,0.09c0,2.27 -0.43,4.396 -1.273,6.379c-0.85,1.981 -2.021,3.721 -3.52,5.217c-1.498,1.499 -3.283,2.679 -5.356,3.541c-2.075,0.863 -4.333,1.295 -6.784,1.295Zm0.088,-6.446c1.392,0 2.681,-0.255 3.858,-0.771c1.179,-0.515 2.187,-1.225 3.019,-2.134c0.836,-0.907 1.487,-1.959 1.949,-3.153c0.473,-1.195 0.707,-2.474 0.707,-3.836l0,-0.091c0,-1.362 -0.234,-2.647 -0.707,-3.858c-0.462,-1.209 -1.131,-2.27 -1.992,-3.177c-0.866,-0.908 -1.884,-1.626 -3.069,-2.156c-1.174,-0.53 -2.459,-0.794 -3.852,-0.794c-1.422,0 -2.721,0.258 -3.883,0.771c-1.168,0.516 -2.163,1.226 -2.996,2.133c-0.833,0.91 -1.479,1.96 -1.95,3.157c-0.467,1.195 -0.707,2.472 -0.707,3.834l0,0.09c0,1.361 0.24,2.648 0.707,3.859c0.471,1.209 1.135,2.269 2,3.177c0.86,0.907 1.871,1.625 3.037,2.156c1.163,0.53 2.455,0.793 3.879,0.793Z" style="fill:rgb(73,125,234);fill-rule:nonzero;"/>            <path d="M199.794,18.712l12.39,0c2.479,0 4.756,0.4 6.834,1.202c2.068,0.801 3.854,1.915 5.354,3.336c1.495,1.422 2.651,3.094 3.472,5.016c0.814,1.921 1.225,4.003 1.225,6.242l0,0.09c0,2.241 -0.41,4.329 -1.225,6.263c-0.82,1.938 -1.977,3.617 -3.472,5.039c-1.501,1.424 -3.286,2.542 -5.354,3.36c-2.078,0.816 -4.354,1.224 -6.834,1.224l-12.39,0l0,-31.772Zm12.39,25.463c1.422,0 2.725,-0.226 3.903,-0.679c1.179,-0.455 2.185,-1.105 3.018,-1.952c0.834,-0.849 1.484,-1.847 1.951,-2.998c0.47,-1.148 0.706,-2.435 0.706,-3.857l0,-0.091c0,-1.392 -0.236,-2.678 -0.706,-3.858c-0.467,-1.18 -1.117,-2.194 -1.951,-3.042c-0.833,-0.846 -1.839,-1.504 -3.018,-1.974c-1.179,-0.468 -2.481,-0.704 -3.903,-0.704l-5.403,0l0,19.154l5.403,0l0,0.001Z" style="fill:rgb(73,125,234);fill-rule:nonzero;"/>            <g>                <path d="M135.92,18.712l7.485,0l6.586,21.513l7.123,-21.604l5.997,0l7.129,21.604l6.577,-21.513l7.306,0l-10.848,32.001l-6.083,0l-7.17,-20.792l-7.171,20.792l-6.082,0l-10.849,-32.001Z" style="fill:rgb(73,125,234);fill-rule:nonzero;"/>                <path d="M167.292,7.239c0,3.998 -3.244,7.24 -7.246,7.241c-3.999,0 -7.239,-3.243 -7.239,-7.241c0,-3.999 3.24,-7.239 7.239,-7.239c4.002,-0.001 7.246,3.24 7.246,7.239Zm-27.608,-7.239c-3.999,0 -7.242,3.24 -7.242,7.239c0,3.998 3.243,7.241 7.242,7.241c3.995,-0.001 7.241,-3.243 7.241,-7.241c0,-3.999 -3.246,-7.24 -7.241,-7.239Zm40.726,0c-4.002,0 -7.242,3.24 -7.242,7.239c0,3.998 3.24,7.241 7.242,7.241c3.997,-0.001 7.243,-3.243 7.243,-7.241c0,-3.999 -3.246,-7.24 -7.243,-7.239Z" style="fill:rgb(73,125,234);fill-rule:nonzero;"/>            </g>        </g>    </g></svg>