<?xml version="1.0" encoding="UTF-8" standalone="no"?><!DOCTYPE svg PUBLIC "-//W3C//DTD SVG 1.1//EN" "http://www.w3.org/Graphics/SVG/1.1/DTD/svg11.dtd"><svg width="100%" height="100%" viewBox="0 0 1024 512" version="1.1" xmlns="http://www.w3.org/2000/svg" xmlns:xlink="http://www.w3.org/1999/xlink" xml:space="preserve" style="fill-rule:evenodd;clip-rule:evenodd;stroke-linejoin:round;stroke-miterlimit:2;"><title>Innovestment</title><desc>Innovestment is an equity-based crowdfunding platform that connects emerging technology growth companies with private investors. This gives start-up companies access to venture capital, and investors the ability to invest in a promising asset class beyond traditional stocks and bonds. Since its founding in 2011, Innovestment has helped businesses finance their visions by serving as an investment intermediary.</desc>    <g id="ivmt-logo" transform="matrix(3.39555,0,0,3.39555,1.64001,202.001)">        <path id="Fill-24" d="M0.73,30.985l5.485,0l0,-20.112l-5.485,0l0,20.112Zm10.475,0l5.486,0l0,-14.314c1.855,-1.217 3.381,-1.825 4.742,-1.825c1.732,0 2.558,0.73 2.558,3.366l0,12.773l5.484,0l0,-13.868c0,-4.623 -1.897,-6.61 -6.186,-6.61c-2.639,0 -4.825,0.892 -7.259,2.393l-0.329,-2.028l-4.496,0l0,20.113Zm23.054,0l5.485,0l0,-14.314c1.856,-1.217 3.382,-1.825 4.744,-1.825c1.732,0 2.556,0.73 2.556,3.366l0,12.773l5.486,0l0,-13.868c0,-4.623 -1.897,-6.61 -6.187,-6.61c-2.639,0 -4.824,0.892 -7.258,2.393l-0.331,-2.028l-4.495,0l0,20.113Zm40.912,-10.179c0,-8.394 -3.34,-10.502 -9.403,-10.502c-5.98,0 -9.527,2.474 -9.527,10.747c0,8.311 3.3,10.501 9.362,10.501c5.981,0 9.568,-2.514 9.568,-10.746Zm-5.526,0.122c0,5.353 -1.196,6.529 -3.959,6.529c-2.763,0 -3.918,-1.176 -3.918,-6.57c0,-5.311 1.155,-6.487 3.918,-6.487c2.763,0 3.959,1.176 3.959,6.528Zm12.826,10.057l7.713,0l6.227,-20.113l-5.279,0l-2.969,9.894c-0.702,2.352 -1.072,4.095 -1.65,6.731l-0.083,0c-0.577,-2.595 -0.99,-4.257 -1.649,-6.731l-2.886,-9.894l-5.61,0l6.186,20.113Zm31.179,-4.381c-2.062,0.407 -3.629,0.69 -5.692,0.69c-3.587,0 -4.783,-0.69 -4.907,-4.784l11.837,0c0.041,-1.055 0.124,-2.067 0.124,-3.082c0,-7.217 -2.475,-9.124 -8.126,-9.124c-5.65,0 -9.362,2.434 -9.362,10.747c0,8.595 3.382,10.339 9.445,10.339c2.681,0 4.826,-0.324 7.094,-0.81l-0.413,-3.976Zm-10.599,-7.54c0.124,-3.731 1.32,-4.704 3.671,-4.704c2.432,0 3.381,0.931 3.422,4.704l-7.093,0Zm14.847,11.556c1.897,0.486 3.629,0.77 5.69,0.77c6.434,0 8.992,-2.27 8.992,-6.285c0,-3.487 -1.568,-4.622 -5.609,-6.203c-3.217,-1.258 -4,-1.705 -4,-2.677c0,-1.298 1.196,-1.825 3.34,-1.825c1.567,0 3.135,0.244 4.619,0.608l0.536,-3.893c-1.361,-0.364 -3.175,-0.648 -4.949,-0.648c-5.774,0 -8.619,2.027 -8.619,6.163c0,3.163 1.484,4.338 5.278,5.88c3.464,1.379 4.29,1.743 4.29,2.96c0,1.297 -1.155,1.987 -3.63,1.987c-1.608,0 -3.382,-0.284 -5.444,-0.77l-0.494,3.933Zm16,-19.748l0,4.014l2.969,0l0,10.989c0,3.852 1.486,5.475 5.899,5.475c1.732,0 3.217,-0.244 4.495,-0.609l-0.453,-3.852c-0.784,0.243 -1.527,0.365 -2.393,0.365c-1.443,0 -2.062,-0.69 -2.062,-2.757l0,-9.611l4.455,0l0,-4.014l-4.455,0l0,-6.366l-5.486,0.73l0,5.636l-2.969,0Zm16.291,20.113l5.485,0l0,-14.314c1.856,-1.217 3.258,-1.825 4.536,-1.825c1.526,0 2.352,0.73 2.352,3.366l0,12.773l5.484,0l0,-12.855c0,-0.607 -0.041,-1.013 -0.082,-1.379c1.979,-1.297 3.382,-1.905 4.578,-1.905c1.608,0 2.433,0.73 2.433,3.366l0,12.773l5.485,0l0,-13.868c0,-4.623 -1.897,-6.61 -6.021,-6.61c-2.515,0 -4.578,0.852 -7.259,2.514c-0.783,-1.418 -2.144,-2.514 -5.155,-2.514c-2.475,0 -4.577,0.892 -7.011,2.393l-0.33,-2.028l-4.495,0l0,20.113Zm50.108,-4.381c-2.061,0.407 -3.629,0.69 -5.69,0.69c-3.588,0 -4.785,-0.69 -4.909,-4.784l11.836,0c0.043,-1.055 0.124,-2.067 0.124,-3.082c0,-7.217 -2.474,-9.124 -8.123,-9.124c-5.651,0 -9.363,2.434 -9.363,10.747c0,8.595 3.381,10.339 9.445,10.339c2.68,0 4.825,-0.324 7.093,-0.81l-0.413,-3.976Zm-10.599,-7.54c0.124,-3.731 1.321,-4.704 3.671,-4.704c2.434,0 3.382,0.931 3.425,4.704l-7.096,0Zm15.921,11.921l5.484,0l0,-14.314c1.856,-1.217 3.381,-1.825 4.743,-1.825c1.731,0 2.557,0.73 2.557,3.366l0,12.773l5.485,0l0,-13.868c0,-4.623 -1.897,-6.61 -6.186,-6.61c-2.64,0 -4.826,0.892 -7.259,2.393l-0.329,-2.028l-4.495,0l0,20.113Zm20.703,-20.113l0,4.014l2.968,0l0,10.989c0,3.852 1.486,5.475 5.898,5.475c1.732,0 3.215,-0.244 4.495,-0.609l-0.453,-3.852c-0.784,0.243 -1.527,0.365 -2.393,0.365c-1.444,0 -2.061,-0.69 -2.061,-2.757l0,-9.611l4.454,0l0,-4.014l-4.454,0l0,-6.366l-5.486,0.73l0,5.636l-2.968,0Z" style="fill:rgb(51,73,93);"/>        <path id="Fill-31" d="M6.799,3.946c0,-2.469 -0.704,-3.118 -3.347,-3.118c-2.597,0 -3.346,0.649 -3.346,3.118c0,2.424 0.749,3.118 3.346,3.118c2.643,0 3.347,-0.694 3.347,-3.118l-2.555,-0.768" style="fill:rgb(174,182,191);"/>        <path id="Fill-26" d="M276.624,15.559c0,-3.579 -1.023,-4.521 -4.854,-4.521c-3.768,0 -4.854,0.942 -4.854,4.521c0,3.516 1.086,4.522 4.854,4.522c3.831,0 4.854,-1.006 4.854,-4.522l-5.419,-0.323" style="fill:rgb(249,204,153);"/>        <path id="Fill-32" d="M288.562,15.559c0,-3.579 -1.023,-4.521 -4.854,-4.521c-3.769,0 -4.854,0.942 -4.854,4.521c0,3.516 1.085,4.522 4.854,4.522c3.831,0 4.854,-1.006 4.854,-4.522" style="fill:rgb(249,204,153);"/>        <path id="Fill-33" d="M288.562,4.775c0,-3.58 -1.023,-4.521 -4.854,-4.521c-3.769,0 -4.854,0.941 -4.854,4.521c0,3.516 1.085,4.522 4.854,4.522c3.831,0 4.854,-1.006 4.854,-4.522" style="fill:rgb(249,204,153);"/>        <path id="Fill-34" d="M288.562,26.344c0,-3.58 -1.023,-4.522 -4.854,-4.522c-3.769,0 -4.854,0.942 -4.854,4.522c0,3.516 1.085,4.521 4.854,4.521c3.831,0 4.854,-1.005 4.854,-4.521" style="fill:rgb(249,204,153);"/>        <path id="Fill-35" d="M264.799,26.344c0,-3.58 -1.024,-4.522 -4.854,-4.522c-3.769,0 -4.855,0.942 -4.855,4.522c0,3.516 1.086,4.521 4.855,4.521c3.83,0 4.854,-1.005 4.854,-4.521" style="fill:rgb(240,128,0);"/>        <path id="Fill-36" d="M295.646,11.038c-3.768,0 -4.854,0.942 -4.854,4.521c0,3.516 1.086,4.522 4.854,4.522c3.831,0 4.854,-1.006 4.854,-4.522c0,-3.579 -1.023,-4.521 -4.854,-4.521Z" style="fill:rgb(240,128,0);"/>    </g></svg>