<?xml version="1.0" encoding="UTF-8" standalone="no"?><!DOCTYPE svg PUBLIC "-//W3C//DTD SVG 1.1//EN" "http://www.w3.org/Graphics/SVG/1.1/DTD/svg11.dtd"><svg width="100%" height="100%" viewBox="0 0 1024 512" version="1.1" xmlns="http://www.w3.org/2000/svg" xmlns:xlink="http://www.w3.org/1999/xlink" xml:space="preserve" style="fill-rule:evenodd;clip-rule:evenodd;stroke-linejoin:round;stroke-miterlimit:2;"><title>Code Investment</title><desc>CODE Investing is the UK's leading alternative debt finance marketplace for SMEs, offering businesses an efficient and cost-effective way to get the right business loan. CODE’s secure, encrypted platform has digitised most of the borrowing process, making it more efficient. CODE offer SME borrowers a variety of loan instruments (unsecured and secured loans, term loans, asset backed, real estate and convertible loans), before matching them to potential lenders.</desc>    <g transform="matrix(1.01271,0,0,1.01271,2,94.8781)">        <g>            <path d="M243.3,159.1c0,14.2 -3.9,27.5 -10.7,38.9l72.2,40.6c13.9,-23.4 21.9,-50.6 21.9,-79.5c0,-28.9 -8,-56.1 -21.9,-79.5l-72.2,40.6c6.8,11.4 10.7,24.7 10.7,38.9" style="fill:rgb(27,49,68);fill-rule:nonzero;"/>            <path d="M232.6,198c-13.8,23.3 -39.7,38.9 -69.3,38.9c-44.2,0 -80,-34.9 -80,-77.9c0,-43 35.8,-77.9 80,-77.9c29.6,0 55.4,15.7 69.3,38.9l72.2,-40.6c-28.2,-47.4 -81,-79.4 -141.5,-79.4c-90.2,0 -163.3,71.2 -163.3,159.1c0,87.8 73.1,159.1 163.3,159.1c60.5,0 113.2,-32 141.5,-79.5l-72.2,-40.7Z" style="fill:rgb(0,174,254);fill-rule:nonzero;"/>        </g>        <g>            <g>                <rect x="495.3" y="230.1" width="6.9" height="55.5" style="fill:rgb(27,49,68);fill-rule:nonzero;"/>                <path d="M550.4,285.6l0,-26.3c0,-7.1 -3.6,-9.3 -9,-9.3c-4.9,0 -9.6,3 -11.9,6.2l0,29.4l-6.2,0l0,-40.2l6.2,0l0,5.8c2.8,-3.3 8.3,-6.8 14.3,-6.8c8.4,0 12.8,4.2 12.8,13l0,28.2l-6.2,0Z" style="fill:rgb(27,49,68);fill-rule:nonzero;"/>                <path d="M588.1,285.6l-16.7,-40.2l6.7,0l13.4,33l13.3,-33l6.8,0l-16.7,40.2l-6.8,0Z" style="fill:rgb(27,49,68);fill-rule:nonzero;"/>                <path d="M624.1,265.5c0,-11.6 8.3,-21.1 19.8,-21.1c12.2,0 19.3,9.5 19.3,21.5l0,1.6l-32.5,0c0.5,7.6 5.8,13.9 14.5,13.9c4.6,0 9.2,-1.8 12.4,-5.1l3,4.1c-4,4 -9.4,6.2 -16,6.2c-11.9,0 -20.5,-8.6 -20.5,-21.1Zm19.7,-15.9c-8.6,0 -12.8,7.2 -13.1,13.4l26.4,0c-0.1,-6 -4.1,-13.4 -13.3,-13.4Z" style="fill:rgb(27,49,68);fill-rule:nonzero;"/>                <path d="M678.1,280.3l3.2,-4.5c2.7,3.1 7.7,5.7 13.2,5.7c6.2,0 9.5,-2.9 9.5,-6.9c0,-9.7 -24.9,-3.7 -24.9,-18.6c0,-6.2 5.4,-11.6 15,-11.6c6.8,0 11.6,2.6 14.9,5.8l-2.9,4.3c-2.4,-2.9 -6.8,-5.1 -12,-5.1c-5.5,0 -8.9,2.7 -8.9,6.3c0,8.8 24.9,3 24.9,18.6c0,6.7 -5.4,12.1 -15.8,12.1c-6.6,0.2 -12.1,-1.8 -16.2,-6.1Z" style="fill:rgb(27,49,68);fill-rule:nonzero;"/>                <path d="M729.8,277.2l0,-26.3l-6.7,0l0,-5.5l6.7,0l0,-11l6.2,0l0,11l8.2,0l0,5.5l-8.2,0l0,25c0,3 1.3,5.2 4.1,5.2c1.8,0 3.4,-0.7 4.2,-1.7l1.8,4.7c-1.6,1.5 -3.8,2.6 -7.5,2.6c-5.8,-0.1 -8.8,-3.5 -8.8,-9.5Z" style="fill:rgb(27,49,68);fill-rule:nonzero;"/>                <path d="M760.3,235.5c0,-2.3 1.9,-4.2 4.2,-4.2c2.3,0 4.2,1.9 4.2,4.2c0,2.3 -1.9,4.2 -4.2,4.2c-2.3,0 -4.2,-1.9 -4.2,-4.2Zm1,50.1l0,-40.2l6.2,0l0,40.2l-6.2,0Z" style="fill:rgb(27,49,68);fill-rule:nonzero;"/>                <path d="M815.5,285.6l0,-26.3c0,-7.1 -3.6,-9.3 -9,-9.3c-4.9,0 -9.6,3 -11.9,6.2l0,29.4l-6.2,0l0,-40.2l6.2,0l0,5.8c2.8,-3.3 8.3,-6.8 14.3,-6.8c8.4,0 12.8,4.2 12.8,13l0,28.2l-6.2,0Z" style="fill:rgb(27,49,68);fill-rule:nonzero;"/>                <path d="M842.4,295.9l3.2,-4.7c3.3,4 7.3,5.5 13.1,5.5c6.7,0 12.9,-3.2 12.9,-12.1l0,-5.7c-2.9,4.1 -7.8,7.2 -13.5,7.2c-10.5,0 -17.9,-7.8 -17.9,-20.8c0,-12.9 7.3,-20.9 17.9,-20.9c5.4,0 10.2,2.7 13.5,7.1l0,-6.1l6.2,0l0,39c0,13.3 -9.3,17.5 -19.1,17.5c-6.9,0 -11.5,-1.3 -16.3,-6Zm29.1,-21.9l0,-17.6c-2.2,-3.5 -7,-6.5 -12,-6.5c-8.1,0 -12.9,6.4 -12.9,15.3c0,8.8 4.8,15.3 12.9,15.3c5.1,0.1 9.9,-3 12,-6.5Z" style="fill:rgb(27,49,68);fill-rule:nonzero;"/>            </g>            <g>                <path d="M489,61.8c-9.1,-11.5 -24.3,-17.8 -39.2,-17.8c-36.5,0 -60.6,27.9 -60.6,63.2c0,32.7 22.7,60.5 60.6,60.5c18.6,0 32.8,-7.9 42.4,-20.8l18.6,13.4c-4.8,6.4 -24.3,27.2 -61.5,27.2c-51.6,0 -83.5,-41.2 -83.5,-80.3c0,-48.3 34.6,-82.9 84.6,-82.9c21.3,0 43.8,7.7 56.9,24.1l-18.3,13.4Z" style="fill:rgb(27,49,68);fill-rule:nonzero;"/>                <path d="M527.3,105.9c0,-46.1 35.1,-81.6 84.6,-81.6c49.6,0 84.6,35.5 84.6,81.6c0,46.1 -35.1,81.6 -84.6,81.6c-49.5,0 -84.6,-35.6 -84.6,-81.6Zm145.9,0c0,-34 -24.1,-61.9 -61.3,-61.9c-37.2,0 -61.2,27.9 -61.2,61.9c0,34 24.1,61.9 61.2,61.9c37.3,-0.1 61.3,-27.9 61.3,-61.9Z" style="fill:rgb(27,49,68);fill-rule:nonzero;"/>                <path d="M724.6,28.2l56.7,0c68.6,0 85.3,48.9 85.3,77.7c0,39.7 -31,77.7 -89,77.7l-53,0l0,-155.4Zm22.1,135.6l27.8,0c37.2,0 68.8,-19.5 68.8,-57.9c0,-19.7 -10.8,-57.9 -63.5,-57.9l-33,0l0,115.8l-0.1,0Z" style="fill:rgb(27,49,68);fill-rule:nonzero;"/>                <path d="M898.2,28.2l104.9,0l0,19.7l-82.8,0l0,46.3l77.1,0l0,19.8l-77.1,0l0,49.8l86.9,0l0,19.7l-109,0l0,-155.3Z" style="fill:rgb(27,49,68);fill-rule:nonzero;"/>            </g>        </g>    </g></svg>