<?xml version="1.0" encoding="UTF-8" standalone="no"?><!DOCTYPE svg PUBLIC "-//W3C//DTD SVG 1.1//EN" "http://www.w3.org/Graphics/SVG/1.1/DTD/svg11.dtd"><svg width="100%" height="100%" viewBox="0 0 1024 512" version="1.1" xmlns="http://www.w3.org/2000/svg" xmlns:xlink="http://www.w3.org/1999/xlink" xml:space="preserve" style="fill-rule:evenodd;clip-rule:evenodd;stroke-linejoin:round;stroke-miterlimit:2;"><title>Inwise</title><desc>Inwise is a factoring platform, where companies can sell their receivable invoices at the auction to investors with the highest bid. By investing in these invoices investors will obtain via Inwise new short-term investment instruments with a low risk and good return.</desc>    <g transform="matrix(4.20099,0,0,4.20194,-63.1153,81.6195)">        <path id="logoelement" d="M33.5,42.5c0,-1.6 -1.8,-2 -3,-2l-3,0c-1.1,0 -2,-0.9 -2,-2c0,-1.1 0.9,-2 2,-2l6,0l0,-4l10,0c4.4,0 6,-1.6 6,-6l0,-10l18,0c2.2,0 4,1.8 4,4l0,42c0,2.2 -1.8,4 -4,4l-30,0c-2.2,0 -4,-1.8 -4,-4l0,-6l-16,0c-1.1,0 -2,-0.9 -2,-2c0,-1.1 0.9,-2 2,-2l12.4,0c1.5,0 3.6,-0.1 3.6,-2m0,0c0,-0.3 0,-2.1 -3,-2l-0.3,0l-6.7,0c-1.1,0 -2,-0.9 -2,-2c0,-1.1 0.9,-2 2,-2l6.4,0c1.5,0 3.6,0 3.6,-2m26,-6l-14,0c-1.1,0 -2,0.9 -2,2c0,1.1 0.9,2 2,2l14,0c1.1,0 2,-0.9 2,-2c0,-1.1 -0.9,-2 -2,-2Zm0,8l-14,0c-1.1,0 -2,0.9 -2,2c0,1.1 0.9,2 2,2l14,0c1.1,0 2,-0.9 2,-2c0,-1.1 -0.9,-2 -2,-2Zm0,8l-14,0c-1.1,0 -2,0.9 -2,2c0,1.1 0.9,2 2,2l14,0c1.1,0 2,-0.9 2,-2c0,-1.1 -0.9,-2 -2,-2Zm-15,-24l-11,0l12,-12l0,11c0,0.6 -0.4,1 -1,1Zm-11,8l-3.6,0c2,0 3.6,-1.6 3.6,-3.6l0,3.6Zm-14,4l-2,0c-1.1,0 -2,-0.9 -2,-2c0,-1.1 0.9,-2 2,-2l2,0c1.1,0 2,0.9 2,2c0,1.1 -0.9,2 -2,2Zm14,19.6c0,-2 -1.8,-3.6 -4,-3.6l4,0l0,3.6Z" style="fill:rgb(46,193,159);"/>        <path id="type" d="M107.9,33.5c-1,0 -1.8,0.3 -2.5,1c-0.6,0.7 -1,1.7 -1,3.1l0,19.7c0,1.3 0.3,2.4 1,3.1c0.6,0.7 1.5,1.1 2.5,1.1c1,0 1.9,-0.4 2.5,-1.1c0.7,-0.7 1,-1.8 1,-3.1l0,-19.9c0,-1.2 -0.3,-2.2 -1,-2.9c-0.6,-0.7 -1.5,-1 -2.5,-1Zm0.1,-10c-0.9,0 -1.7,0.3 -2.4,0.9c-0.7,0.6 -1.1,1.4 -1.1,2.4c0,1.1 0.3,1.9 1,2.5c0.7,0.6 1.5,0.9 2.5,0.9c0.9,0 1.7,-0.3 2.4,-0.9c0.7,-0.6 1,-1.4 1,-2.5c0,-1.1 -0.3,-1.9 -1,-2.5c-0.7,-0.5 -1.5,-0.8 -2.4,-0.8Zm33.9,14.5c-0.7,-1.4 -1.8,-2.6 -3.2,-3.4c-1.4,-0.8 -3.1,-1.2 -4.9,-1.2c-1.9,0 -3.5,0.4 -5,1.1c-1.4,0.7 -2.8,1.9 -4,3.5l0,-0.8c0,-0.8 -0.1,-1.5 -0.4,-2.1c-0.3,-0.6 -0.7,-1 -1.2,-1.3c-0.5,-0.3 -1,-0.4 -1.6,-0.4c-1,0 -1.8,0.3 -2.4,1c-0.6,0.6 -0.9,1.6 -0.9,2.9l0,19.9c0,1.3 0.3,2.4 1,3.1c0.6,0.7 1.5,1.1 2.5,1.1c1,0 1.9,-0.3 2.5,-1c0.7,-0.7 1,-1.7 1,-3.1l0,-8.6c0,-2.8 0.2,-4.7 0.5,-5.8c0.5,-1.3 1.2,-2.3 2.2,-3c1,-0.7 2.1,-1.1 3.4,-1.1c1.9,0 3.2,0.6 3.8,1.8c0.6,1.2 1,2.9 1,5.2l0,11.5c0,1.3 0.3,2.4 1,3.1c0.6,0.7 1.5,1.1 2.5,1.1c1,0 1.8,-0.4 2.5,-1.1c0.6,-0.7 1,-1.8 1,-3.1l0,-12.8c0,-1.5 -0.1,-2.8 -0.2,-3.7c-0.3,-1 -0.6,-1.9 -1.1,-2.8Zm42.4,-4.5c-0.8,0 -1.5,0.2 -1.9,0.6c-0.4,0.4 -0.8,0.8 -0.9,1.3c-0.2,0.5 -0.4,1.3 -0.7,2.4l-4.6,15.4l-4.1,-14.3c-0.4,-1.4 -0.8,-2.4 -1,-3c-0.2,-0.6 -0.6,-1.1 -1.2,-1.6c-0.6,-0.5 -1.4,-0.7 -2.4,-0.7c-1,0 -1.8,0.2 -2.4,0.7c-0.6,0.5 -1,1 -1.2,1.6c-0.2,0.5 -0.5,1.6 -1,3.1l-4.1,14.3l-4.5,-15.4c-0.5,-1.6 -0.9,-2.7 -1.3,-3.3c-0.4,-0.6 -1.2,-1 -2.3,-1c-0.9,0 -1.6,0.3 -2.2,0.9c-0.6,0.6 -0.9,1.3 -0.9,2c0,0.6 0.3,1.7 0.8,3.2l5.6,16.5c0.2,0.4 0.4,1 0.6,1.8c0.3,0.7 0.6,1.4 0.9,1.9c0.4,0.5 0.8,1 1.3,1.3c0.5,0.3 1.2,0.4 1.9,0.4c1.5,0 2.5,-0.5 3.1,-1.4c0.6,-1 1.1,-2.4 1.6,-4.2l3.8,-13.4l4,13.4c0.3,1.2 0.7,2.2 0.9,3c0.3,0.8 0.7,1.4 1.3,1.9c0.6,0.5 1.4,0.8 2.5,0.8c1,0 1.8,-0.2 2.4,-0.7c0.6,-0.5 1,-1 1.3,-1.7c0.3,-0.6 0.7,-1.6 1.1,-3l5.7,-16.5c0.5,-1.4 0.8,-2.5 0.8,-3.2c0,-0.8 -0.3,-1.4 -0.9,-2c-0.4,-0.9 -1.2,-1.1 -2,-1.1Zm11.3,0c-1,0 -1.8,0.3 -2.5,1c-0.6,0.7 -1,1.7 -1,3.1l0,19.7c0,1.3 0.3,2.4 1,3.1c0.6,0.7 1.5,1.1 2.5,1.1c1,0 1.9,-0.4 2.5,-1.1c0.7,-0.7 1,-1.8 1,-3.1l0,-19.9c0,-1.2 -0.3,-2.2 -1,-2.9c-0.7,-0.7 -1.5,-1 -2.5,-1Zm0,-10c-0.9,0 -1.7,0.3 -2.4,0.9c-0.7,0.6 -1.1,1.4 -1.1,2.4c0,1.1 0.3,1.9 1,2.5c0.7,0.6 1.5,0.9 2.5,0.9c0.9,0 1.7,-0.3 2.4,-0.9c0.7,-0.6 1,-1.4 1,-2.5c0,-1.1 -0.3,-1.9 -1,-2.5c-0.7,-0.5 -1.5,-0.8 -2.4,-0.8Zm28.8,23c-1.4,-0.7 -3.1,-1.3 -5.3,-1.9c-1.8,-0.4 -3.2,-0.8 -4.3,-1.1c-1,-0.3 -1.9,-0.7 -2.5,-1.1c-0.6,-0.5 -0.9,-1.1 -0.9,-1.8c0,-0.8 0.4,-1.5 1.2,-2c0.8,-0.5 1.9,-0.8 3.1,-0.8c1.2,0 2.2,0.2 2.9,0.6c0.7,0.4 1.3,0.9 1.9,1.6c0.6,0.8 1.2,1.4 1.7,1.8c0.5,0.4 1.1,0.6 1.8,0.6c1,0 1.7,-0.3 2.3,-0.8c0.5,-0.5 0.8,-1.2 0.8,-1.9c0,-0.7 -0.2,-1.5 -0.7,-2.2c-0.5,-0.8 -1.2,-1.4 -2.2,-2.1c-1,-0.6 -2.1,-1.1 -3.6,-1.5c-1.4,-0.4 -3,-0.6 -4.8,-0.6c-2.3,0 -4.2,0.4 -5.8,1.1c-1.6,0.7 -2.8,1.7 -3.7,2.9c-0.8,1.2 -1.2,2.5 -1.2,3.9c0,1.5 0.4,2.9 1.3,3.9c0.9,1.1 2.1,1.9 3.6,2.6c1.5,0.6 3.4,1.3 5.8,1.9c2.1,0.5 3.6,1 4.6,1.6c0.9,0.6 1.4,1.4 1.4,2.7c0,0.8 -0.4,1.5 -1.3,2.1c-0.9,0.6 -2,0.9 -3.4,0.9c-1.7,0 -3.1,-0.3 -4,-0.9c-1,-0.6 -1.8,-1.5 -2.5,-2.8c-0.4,-0.6 -0.7,-1.1 -1.1,-1.5c-0.4,-0.4 -0.9,-0.5 -1.7,-0.5c-0.8,0 -1.5,0.3 -2.1,0.8c-0.5,0.5 -0.8,1.2 -0.8,1.9c0,1.1 0.4,2.3 1.3,3.4c0.8,1.1 2.2,2.1 3.9,2.8c1.8,0.8 3.9,1.1 6.4,1.1c2.6,0 4.8,-0.3 6.6,-1c1.8,-0.7 3.2,-1.7 4.1,-3.1c0.9,-1.4 1.4,-3 1.4,-4.9c0,-1.3 -0.4,-2.4 -1.1,-3.4c-0.8,-0.7 -1.8,-1.5 -3.1,-2.3Zm31.3,5.5c-0.7,0 -1.2,0.2 -1.5,0.5c-0.9,0.8 -1.6,1.4 -2.1,1.9c-0.5,0.5 -1.1,0.9 -1.8,1.3c-0.6,0.4 -1.3,0.7 -2,0.9c-0.7,0.2 -1.4,0.3 -2.3,0.3c-1.2,0 -2.4,-0.3 -3.4,-0.9c-1,-0.6 -1.8,-1.5 -2.5,-2.7c-0.6,-1.2 -0.9,-2.6 -1,-4.1l13.5,0c1.8,0 3.2,-0.3 4.2,-0.8c1,-0.5 1.5,-1.6 1.5,-3.4c0,-1.9 -0.5,-3.7 -1.4,-5.5c-1,-1.8 -2.4,-3.3 -4.3,-4.4c-1.9,-1.1 -4.3,-1.7 -7,-1.7c-2.1,0 -4,0.3 -5.7,1c-1.7,0.7 -3.1,1.6 -4.3,2.9c-1.2,1.2 -2.1,2.7 -2.7,4.5c-0.6,1.7 -0.9,3.6 -0.9,5.7c0,4.3 1.2,7.8 3.7,10.3c2.5,2.5 5.9,3.8 10.4,3.8c1.9,0 3.7,-0.3 5.2,-0.8c1.5,-0.5 2.7,-1.1 3.7,-1.9c1,-0.8 1.7,-1.6 2.2,-2.4c0.5,-0.8 0.7,-1.6 0.7,-2.2c0,-0.7 -0.2,-1.3 -0.7,-1.6c-0.2,-0.5 -0.8,-0.7 -1.5,-0.7Zm-14.4,-12c1.1,-1.2 2.5,-1.8 4.2,-1.8c1.8,0 3.3,0.6 4.4,1.8c1.1,1.2 1.7,2.9 1.9,5.3l-12.5,0c0.2,-2.4 0.9,-4.1 2,-5.3Z" style="fill-rule:nonzero;"/>    </g></svg>