<?xml version="1.0" encoding="UTF-8" standalone="no"?><!DOCTYPE svg PUBLIC "-//W3C//DTD SVG 1.1//EN" "http://www.w3.org/Graphics/SVG/1.1/DTD/svg11.dtd"><svg width="100%" height="100%" viewBox="0 0 1024 512" version="1.1" xmlns="http://www.w3.org/2000/svg" xmlns:xlink="http://www.w3.org/1999/xlink" xml:space="preserve" style="fill-rule:evenodd;clip-rule:evenodd;stroke-linejoin:round;stroke-miterlimit:2;"><title>Lendopolis</title><desc>LENDOPOLIS is a crowdfunding platform specializing in renewable energies and real estate.</desc>    <g transform="matrix(0.535433,0,0,0.535529,-56.8976,76.7049)">        <path d="M1247.4,266.1c-17.2,0 -33.9,6.3 -47.1,17.6c-15.9,13.7 -25.1,33.5 -25.1,54.2c0,39.4 32.4,71.5 72.2,71.5c18.9,0 36.8,-7.2 50.3,-20.3c14.1,-13.6 21.8,-31.7 21.8,-51.2c0.1,-39.6 -32.3,-71.8 -72.1,-71.8Zm26,113.5c-7.8,5 -16.8,7.7 -26,7.7c-27,0 -49,-22.2 -49,-49.5c0,-10.9 3.5,-21.3 10.1,-30c9.3,-12.4 23.5,-19.5 38.9,-19.5c27,0 49,22.2 49,49.5c0,16.9 -8.6,32.6 -23,41.8Zm169.4,-103.6c-10.3,-7.1 -22.3,-7.7 -34.8,-7.7l-25.7,0.1l0,138.8l23.2,0l0,-57l6.2,0c10.2,0 23.3,-1.1 33.7,-9.6c0.8,-0.7 1.4,-1.3 2.1,-1.9l0.3,-0.3c7.4,-7.4 11.7,-18 11.7,-29.1c-0.1,-13.6 -6.3,-26.1 -16.7,-33.3Zm-18.9,50.4c-3.6,1.1 -8,1.6 -13.1,1.6l-5.3,0l0,-37.5l1,0c19.7,0 29.6,2.8 29.6,18.4c0.1,9.4 -3.8,15 -12.2,17.5Zm162.6,-60.3c-17.6,0 -34.6,6.5 -47.9,18.3c-15.4,13.7 -24.3,33.2 -24.3,53.5c0,39.4 32.4,71.5 72.2,71.5c18.4,0 36,-6.9 49.5,-19.5c14.7,-13.7 22.7,-32.1 22.7,-52c0.1,-39.6 -32.3,-71.8 -72.2,-71.8Zm26,113.5c-7.8,5 -16.8,7.7 -26,7.7c-27,0 -49,-22.2 -49,-49.5c0,-10.9 3.5,-21.3 10.1,-30c9.3,-12.4 23.5,-19.5 38.9,-19.5c27,0 49,22.2 49,49.5c0,16.9 -8.6,32.6 -23,41.8Zm132.2,5.4l0,-116.7l-23.2,0l0,138.9l59.1,0l0,-22.2l-35.9,0Zm93.6,-116.7l0,138.9l23.2,0l0,-138.9l-23.2,0Zm142.8,56l-8.6,-3.8c-10.1,-4.6 -17.8,-8.6 -17.8,-16.4c0,-1.5 0.3,-3.1 0.9,-4.9c2.2,-6.5 8.8,-11 16.3,-11c8.5,0 13.7,3.4 18.7,12l2.3,4l18.8,-12.1l-4,-6.9c-8,-12.2 -20.9,-19.1 -35.4,-19.1c-11.2,0 -21.9,4.1 -29.5,11.2c-7.4,6.9 -11.3,16 -11.3,26.3c0,21.5 15.2,30.2 30.9,37.3l8,3.5l0.6,0.3c12.9,5.9 20.8,10.1 20.8,21.6c0,8.4 -5.4,16 -13.7,19.3c-2.8,1.1 -5.8,1.7 -8.7,1.7c-10,0 -18.3,-6.8 -21.1,-17.4c-0.1,-0.5 -1.3,-8 -1.3,-8l-22.6,6.3l0.7,4.7c4.8,22.2 22.3,36.5 44.7,36.5c11.6,0 22.6,-4.2 30.9,-11.9c9.2,-8.5 14.3,-20.1 14.3,-32.7c0,-23.7 -17.5,-33.3 -33.9,-40.5Zm-1401.1,60.7l0,-116.7l-23.3,0l0,138.9l59.2,0l0,-22.2l-35.9,0Zm93.3,-116.7l0,138.9l76.2,0l0,-22.2l-53,0l0,-42.4l51.4,0l0,-22.1l-51.4,0l0,-30l53,0l0,-22.2l-76.2,0Zm246.3,0.2l0,89.4l-101.5,-91.8l0,141.5l23.2,0l0,-90.8l101.5,92.7l0,-141l-23.2,0Zm175.8,16.6c-16.3,-13.9 -33.2,-16.8 -53.6,-16.8l-28.9,0l0,138.9l28.6,0c21.4,0 37.9,-2.9 54.3,-17.5c1.4,-1.2 2.6,-2.5 3.8,-3.7c12.4,-12.8 18.9,-29.4 18.9,-48c0,-21.6 -8,-39.9 -23.1,-52.9Zm-15,87.6c-2.1,2 -8.4,6.2 -8.4,6.2l-0.1,0.1c-7.7,4.3 -16.2,6 -29.6,6l-6.2,0l0,-94.5l6.2,0c14.7,0 26.7,2 37.5,11.5c9.8,8.6 15.4,21.6 15.4,35.7c0.1,13.7 -5.2,26.1 -14.8,35Z" style="fill-rule:nonzero;"/>        <circle cx="287.1" cy="333.4" r="173.6" style="fill:white;"/>        <path d="M165.9,259.4l-8.7,-14.4c0,0 -21.6,30 -26.7,69c-4,31 0.8,57 8.8,76.8l42.1,0c2.4,0 4.7,0.6 6.7,1.6l0,-40.4c0,-8.2 6.7,-14.9 14.3,-15.7l10.8,0l-47.3,-76.9Zm193.9,76.8l10.8,0c7.6,0.8 14.3,7.5 14.3,15.7l0,40.4c2,-1 4.3,-1.6 6.7,-1.6l42.1,0c8,-19.8 12.8,-45.8 8.8,-76.8c-5,-38.9 -26.7,-69 -26.7,-69l-8.7,14.4l-47.3,76.9Zm-24.8,-140.9l1.5,-10.3c0,0 -24.8,-7.8 -50.7,-7.8c-22.7,0 -49.3,8.9 -49.3,8.9l2.5,15.5l0.7,5.6l10.4,85.1l7,0c2.2,0 4.4,0.5 6.3,1.4l0,-25.1c0,-8.2 7.2,-15.6 15.4,-15.6l16.2,0c8.2,0 14.4,7.4 14.4,15.6l0,25c1.9,-0.8 3.9,-1.3 6.1,-1.3l7.6,0l10.6,-86.3l0,-0.1l1.3,-10.6Z" style="fill:rgb(202,244,254);fill-rule:nonzero;"/>        <path d="M287,157.8c-97.6,0 -177,79.4 -177,177c0,29 7,56.3 19.4,80.4c12.2,23.8 29.6,44.4 50.6,60.5c29.7,22.6 66.8,36.1 106.9,36.1c40.2,0 77.2,-13.5 106.9,-36.1c20.2,-15.4 37,-34.9 49.1,-57.4c13.4,-24.9 21,-53.3 21,-83.5c0.1,-97.6 -79.3,-177 -176.9,-177Zm144.3,238.7l-40.1,0c-4,0 -7.3,3.3 -7.3,7.3l0,54.3c-2.1,1.7 -4.3,3.3 -6.6,4.9l0,-112.9c0,-4 -3.3,-7.3 -7.3,-7.3l-16.6,0c-4,0 -7.3,3.3 -7.3,7.3l0.2,129.9c0,0 -4.1,1.7 -6.7,2.6l0,-177.2c0,-4 -3.3,-7.3 -7.3,-7.3l-16.6,0c-4,0 -7.3,3.3 -7.3,7.3c0,0 0,184.6 0.1,184.8c-2.1,0.3 -4.3,0.6 -6.5,0.8l0,-224.2c0,-4 -3.3,-7.3 -7.3,-7.3l-16.2,0c-4,0 -7.3,3.3 -7.3,7.3l0,224.2c-2.2,-0.2 -4.5,-0.5 -6.7,-0.8l0.1,-184.8c0,-4 -3.3,-7.3 -7.3,-7.3l-16.3,0c-4,0 -7.3,3.3 -7.3,7.3l0,177c-2.7,-1 -7.2,-2.8 -7.2,-2.8l0.1,-129.5c0,-4 -3.3,-7.3 -7.3,-7.3l-16.6,0c-4,0 -7.3,3.3 -7.3,7.3l0,112.2c-2.4,-1.7 -4.8,-3.5 -7.1,-5.4l0,-53.1c0,-4 -3.3,-7.3 -7.3,-7.3l-38.5,0c-10,-24.3 -12.7,-39.9 -12.7,-61.8c0,-86.6 70.4,-157 157,-157c86.6,0 157,70.4 157,157c0.2,22 -4.3,42.9 -12.5,61.8Z" style="fill-rule:nonzero;"/>    </g></svg>