<?xml version="1.0" encoding="UTF-8" standalone="no"?><!DOCTYPE svg PUBLIC "-//W3C//DTD SVG 1.1//EN" "http://www.w3.org/Graphics/SVG/1.1/DTD/svg11.dtd"><svg width="100%" height="100%" viewBox="0 0 1024 512" version="1.1" xmlns="http://www.w3.org/2000/svg" xmlns:xlink="http://www.w3.org/1999/xlink" xml:space="preserve" style="fill-rule:evenodd;clip-rule:evenodd;stroke-linejoin:round;stroke-miterlimit:2;"><title>Roger</title><desc>Our business finance system improves the way your business works with invoices. We offer simpler financing by removing long payment terms.Our platform is connected to invoicing systems, making financing seamless and hassle free. Simply let us know which invoices you would like to get paid straight away and we will get it done.</desc>    <g transform="matrix(6.55178,0,0,6.55178,-175.756,-40.9249)">        <g transform="matrix(1,0,0,1,9.908,11.161)">            <path d="M35.173,28.843l-2.526,2.347l-2.706,2.61c-0.345,0.311 -0.542,0.753 -0.542,1.217c0,0.465 0.197,0.907 0.542,1.218c0.764,0.692 1.942,0.692 2.706,0l2.706,-2.609l4.149,4l15.698,-15.044l0,-0.435l-6.588,-6.347l-13.439,13.043Z" style="fill:rgb(122,227,250);fill-rule:nonzero;"/>        </g>        <g transform="matrix(1,0,0,1,-1.384,10.208)">            <path d="M166.157,33.621c0,-6.608 -4.33,-10.521 -10.643,-10.521c-0.101,-0.003 -0.202,-0.004 -0.303,-0.004c-5.821,0 -10.611,4.79 -10.611,10.611c0,0 0,0.001 0,0.001c0,6.347 4.6,10.608 10.914,10.608c3.008,0.146 5.947,-0.956 8.118,-3.043l0,-0.435l-3.788,-2.956c-0.975,1.282 -2.545,1.973 -4.149,1.826c-2.741,0.195 -5.167,-1.871 -5.412,-4.608l15.965,0l0,-1.479l-0.091,0Zm-15.875,-2.174c0.467,-2.397 2.609,-4.13 5.051,-4.087c2.8,0 4.781,1.565 5.051,4.087l-10.102,0Z" style="fill:rgb(7,18,40);fill-rule:nonzero;"/>        </g>        <g transform="matrix(1,0,0,1,6.027,10.208)">            <path d="M74.953,25.969c1.436,-1.771 3.583,-2.822 5.863,-2.869c0.709,-0.035 1.417,0.083 2.075,0.348l-0.722,4.522l-0.361,0.261c-2.819,-0.702 -5.757,0.788 -6.855,3.478l0,12.26l-5.953,0l0,-20.434l5.953,0l0,2.434Z" style="fill:rgb(7,18,40);fill-rule:nonzero;"/>        </g>        <g transform="matrix(1,0,0,1,4.311,10.195)">            <path d="M109.591,33.808c0,6.087 -4.781,10.608 -11.545,10.608c-6.764,0 -11.546,-4.521 -11.546,-10.608c0,-6.087 4.78,-10.608 11.545,-10.608c6.765,-0.087 11.546,4.434 11.546,10.608Zm-17.138,0c0,3.093 2.545,5.638 5.637,5.638c3.093,0 5.638,-2.545 5.638,-5.638c0,-3.093 -2.545,-5.637 -5.638,-5.637c-3.092,0 -5.637,2.544 -5.637,5.637Z" style="fill:rgb(7,18,40);fill-rule:nonzero;"/>        </g>        <g transform="matrix(1,0,0,1,-4.187,10.208)">            <path d="M179.063,25.969c1.436,-1.771 3.583,-2.822 5.863,-2.869c0.709,-0.035 1.417,0.083 2.075,0.348l-0.722,4.522l-0.271,0.261c-2.819,-0.702 -5.757,0.788 -6.855,3.478l0,12.26l-5.953,0l0,-20.434l5.953,0l0,2.435l-0.09,-0.001Z" style="fill:rgb(7,18,40);fill-rule:nonzero;"/>        </g>        <g transform="matrix(1,0,0,1,1.42,10.195)">            <path d="M132.145,23.548l0,1.826c-1.623,-1.475 -3.761,-2.256 -5.953,-2.174c-0.055,-0.001 -0.111,-0.001 -0.166,-0.001c-5.505,0 -10.034,4.529 -10.034,10.034c0,0.133 0.003,0.267 0.008,0.401c-0.007,0.151 -0.01,0.302 -0.01,0.453c0,5.477 4.506,9.983 9.983,9.983c0.073,0 0.146,0 0.219,-0.002c2.184,0.14 4.334,-0.614 5.953,-2.087l0,1.479c0.005,0.088 0.007,0.175 0.007,0.263c0,2.718 -2.236,4.954 -4.954,4.954c-0.005,0 -0.009,0 -0.014,0c-2.345,0.087 -4.961,-1.13 -5.592,-1.913l-3.518,3.478l0,0.435c2.604,1.99 5.839,2.978 9.11,2.782c5.863,-0.174 10.553,-4.261 10.553,-10.173l0,-19.738l-5.592,0Zm0,11.13c0,2.782 -1.984,4.782 -5.051,4.782c-2.886,0 -5.5,-1.565 -5.5,-5.826c0,-4.261 2.616,-5.826 5.5,-5.826c0.108,-0.007 0.217,-0.011 0.325,-0.011c2.593,0 4.726,2.133 4.726,4.726c0,0.022 0,0.045 0,0.067l0,2.088Z" style="fill:rgb(7,18,40);fill-rule:nonzero;"/>        </g>        <g transform="matrix(1,0,0,1,11.231,10.143)">            <path d="M34.03,34.73l-2.706,2.609c-0.764,0.692 -1.942,0.692 -2.706,0c-0.345,-0.311 -0.542,-0.753 -0.542,-1.218c0,-0.464 0.197,-0.906 0.542,-1.217l2.8,-2.7l-8.934,-8.604l-6.584,6.348l0,0.435l13.981,13.477c0.833,0.779 2.144,0.779 2.977,0l5.322,-5.13l-4.15,-4Z" style="fill:rgb(0,195,98);fill-rule:nonzero;"/>        </g>    </g></svg>