<?xml version="1.0" encoding="UTF-8" standalone="no"?><!DOCTYPE svg PUBLIC "-//W3C//DTD SVG 1.1//EN" "http://www.w3.org/Graphics/SVG/1.1/DTD/svg11.dtd"><svg width="100%" height="100%" viewBox="0 0 1024 512" version="1.1" xmlns="http://www.w3.org/2000/svg" xmlns:xlink="http://www.w3.org/1999/xlink" xml:space="preserve" style="fill-rule:evenodd;clip-rule:evenodd;stroke-linejoin:round;stroke-miterlimit:2;"><title>Seedrs</title><desc>Seedrs is the world’s leading equity crowdfunding platform. We make it simple for anyone to become investors in ambitious, growth-focused European businesses. You can invest as little or as much as you like, and we handle all of the legal documentation and due diligence to ensure that businesses are set up for success—and investors get their fair share.</desc>    <g id="seedrs-512x256.svg" transform="matrix(2.21779,0,0,2.21779,-55.781,-27.8032)">        <path d="M218.31,77l0,14c-4.347,-3.127 -8.253,-4.693 -11.72,-4.7c-3.501,-0.101 -6.87,1.367 -9.18,4c-2.373,2.527 -3.56,5.903 -3.56,10.13c-0.099,3.373 0.78,6.704 2.53,9.59c1.271,1.958 2.706,3.805 4.29,5.52c2.487,2.787 5.053,5.5 7.7,8.14c5.807,5.927 9.757,11.053 11.85,15.38c2.1,4.187 3.147,9.313 3.14,15.38c0,8.233 -2.3,15.013 -6.9,20.34c-4.45,5.12 -10.969,7.984 -17.75,7.8c-5.605,0.166 -11.101,-1.6 -15.56,-5l0,-14.2c5.073,3.747 9.69,5.62 13.85,5.62c3.471,0.174 6.835,-1.262 9.11,-3.89c2.2,-2.6 3.3,-6.13 3.3,-10.59c0.053,-3.629 -0.821,-7.213 -2.54,-10.41c-1.086,-1.781 -2.303,-3.479 -3.64,-5.08c-1.833,-2.22 -3.773,-4.347 -5.82,-6.38c-3.107,-3.053 -6.107,-6.223 -9,-9.51c-1.997,-2.231 -3.766,-4.657 -5.28,-7.24c-2.193,-4.033 -3.29,-9.133 -3.29,-15.3c0,-8.32 2.147,-14.92 6.44,-19.8c4.293,-4.88 10.117,-7.34 17.47,-7.38c5.071,-0.025 10.07,1.205 14.55,3.58l0.01,0Zm13.69,-2.17l37.89,0l0,12.17l-23.67,0l0,33.72l21,0l0,12.14l-21,0l0,36.33l23.64,0l0,12.11l-37.86,0l0,-106.47Zm48.43,0l37.87,0l0,12.17l-23.64,0l0,33.72l21,0l0,12.14l-21,0l0,36.33l23.64,0l0,12.11l-37.89,0l0.02,-106.47Zm61.41,93.93c8.667,0 14.47,-2.643 17.41,-7.93c2.94,-5.287 4.44,-15.563 4.5,-30.83c0,-16.42 -1.44,-27.71 -4.32,-33.87c-2.88,-6.16 -8.157,-9.237 -15.83,-9.23l-1.78,0l0,81.86l0.02,0Zm-14.27,-93.93l17.54,0c4.566,-0.108 9.12,0.496 13.5,1.79c3.479,1.236 6.58,3.351 9,6.14c4,4.413 6.833,10.16 8.5,17.24c1.687,6.847 2.53,16.663 2.53,29.45c0,11.727 -0.937,21.287 -2.81,28.68c-1.82,7.087 -4.82,12.487 -9,16.2c-5.167,4.667 -14.417,7 -27.75,7l-11.51,0l0,-106.5Zm76.58,47.17c5.527,0 9.433,-1.287 11.72,-3.86c2.287,-2.573 3.43,-6.907 3.43,-13c0.045,-2.844 -0.2,-5.685 -0.73,-8.48c-0.354,-2.04 -1.12,-3.986 -2.25,-5.72c-0.995,-1.441 -2.384,-2.566 -4,-3.24c-1.847,-0.719 -3.819,-1.059 -5.8,-1l-2.4,0l0.03,35.3Zm-14.25,-47.17l18.77,0c7.76,0 13.537,1.863 17.33,5.59c4.8,4.827 7.2,12.203 7.2,22.13c0,7.633 -1.267,13.76 -3.8,18.38c-2.166,4.328 -6.149,7.475 -10.86,8.58l19.46,51.79l-14.46,0l-19.39,-52.13l0,52.13l-14.25,0l0,-106.47Zm91,16.21c-4.34,-3.133 -8.243,-4.7 -11.71,-4.7c-3.504,-0.104 -6.878,1.364 -9.19,4c-2.373,2.527 -3.56,5.903 -3.56,10.13c-0.095,3.374 0.787,6.705 2.54,9.59c1.27,1.957 2.701,3.803 4.28,5.52c2,2.25 4.56,5 7.71,8.14c5.8,5.927 9.75,11.053 11.85,15.38c2.1,4.187 3.15,9.313 3.15,15.38c0,8.233 -2.307,15.013 -6.92,20.34c-4.452,5.123 -10.975,7.987 -17.76,7.8c-5.602,0.164 -11.094,-1.601 -15.55,-5l0,-14.2c5.073,3.72 9.687,5.583 13.84,5.59c3.473,0.171 6.839,-1.264 9.12,-3.89c2.187,-2.6 3.28,-6.13 3.28,-10.59c0.054,-3.628 -0.817,-7.211 -2.53,-10.41c-1.084,-1.78 -2.297,-3.478 -3.63,-5.08c-1.84,-2.22 -3.783,-4.347 -5.83,-6.38c-3.107,-3.053 -6.107,-6.223 -9,-9.51c-2,-2.229 -3.769,-4.655 -5.28,-7.24c-2.193,-4.033 -3.293,-9.133 -3.3,-15.3c0,-8.32 2.147,-14.92 6.44,-19.8c4.293,-4.88 10.12,-7.34 17.48,-7.38c5.087,-0.034 10.103,1.192 14.6,3.57l-0.03,14.04Z" style="fill:rgb(34,47,57);fill-rule:nonzero;"/>        <path d="M127.9,85.27c-11.164,-11.176 -26.329,-17.463 -42.125,-17.463c-15.88,0 -31.118,6.353 -42.295,17.633c-20.8,21.018 -23.281,54.366 -5.82,78.23c-10.351,-16.398 -8.001,-37.948 5.64,-51.73c15.45,-15.54 79.18,-25.81 84.6,-26.67Z" style="fill:rgb(190,214,108);fill-rule:nonzero;"/>        <path d="M101.75,170.78c-13.608,13.723 -35.142,16.094 -51.41,5.66c23.656,17.584 56.991,15.076 77.75,-5.85c23.16,-23.361 23.232,-61.552 0.16,-85c-0.84,5.48 -11.05,69.64 -26.5,85.19Z" style="fill:rgb(114,147,62);fill-rule:nonzero;"/>        <path d="M109.17,151.9c-12.46,12.53 -33.08,12.07 -46.1,-1c-13.02,-13.07 -13.47,-33.86 -1,-46.39c2.91,-2.92 8.11,-5.56 14.36,-7.87c-14.16,4.16 -27.2,9.36 -33.13,15.31c-16.03,16.185 -16.03,42.645 0,58.83c15.884,16.032 42.148,16.154 58.18,0.27l0.27,-0.27c5.93,-6 11.07,-19.08 15.23,-33.29c-2.29,6.27 -4.9,11.49 -7.8,14.41" style="fill:rgb(142,194,64);fill-rule:nonzero;"/>    </g></svg>