<?xml version="1.0" encoding="UTF-8" standalone="no"?><!DOCTYPE svg PUBLIC "-//W3C//DTD SVG 1.1//EN" "http://www.w3.org/Graphics/SVG/1.1/DTD/svg11.dtd"><svg width="100%" height="100%" viewBox="0 0 1024 512" version="1.1" xmlns="http://www.w3.org/2000/svg" xmlns:xlink="http://www.w3.org/1999/xlink" xml:space="preserve" style="fill-rule:evenodd;clip-rule:evenodd;stroke-linejoin:round;stroke-miterlimit:2;"><title>CreditPlus</title><desc>CreditPlus is a Member of Ukrainian Association of Financial Companies. The Company has reached the great business results and is one of the Top10 online Lending Companies in Ukraine.</desc>    <g transform="matrix(2.6107,0,0,2.6107,-1.39391,65.1579)">        <path d="M272.2,60.7l0,39.7l6.6,0l0,-16.6l0.1,0c1.7,2.7 5,4.2 8.8,4.2c8,0 13,-6.4 13,-14.1c0,-7.8 -5.3,-13.9 -12.8,-13.9c-4.9,0 -7.8,2.4 -9.1,4.4l-0.2,0l0,-3.7l-6.4,0Zm14.1,4.9c5.1,0 7.6,4.3 7.6,8.5c0,4.2 -2.5,8.6 -7.6,8.6c-4.9,0 -7.8,-4.3 -7.8,-8.5c0,-4.3 3,-8.6 7.8,-8.6Z" style="fill:rgb(255,137,0);fill-rule:nonzero;"/>        <rect x="307" y="45.8" width="6.6" height="41.6" style="fill:rgb(255,137,0);"/>        <path d="M345.7,87.3l0,-26.4l-6.7,0l0,14.5c0,3.5 -1.9,7.2 -6.2,7.2c-4.2,0 -5,-3.9 -5,-7.1l0,-14.6l-6.6,0l0,16.4c0,5.4 2.8,10.7 9.7,10.7c3.9,0 7.1,-2.4 8.2,-5l0.1,0l0,4.2c0.1,0 6.5,0 6.5,0.1Z" style="fill:rgb(255,137,0);fill-rule:nonzero;"/>        <path d="M362.3,65.2c2.4,0 4.6,1.3 5.7,2.8l4.2,-3.8c-2.1,-2.7 -6.1,-4 -9.9,-4c-5.2,0 -10.5,2.6 -10.5,8.4c0,5 3.9,6.5 7.8,7.4c4,1 6,1.6 6,3.8c0,2.4 -2.3,3.1 -4.2,3.1c-2.8,0 -5.3,-1.4 -6.7,-3.3l-4.3,4.1c2.6,2.8 6.7,4.3 10.8,4.3c5.7,0 11,-2.4 11,-8.8c0,-5.1 -4.6,-6.9 -8.5,-7.9c-3.7,-0.9 -5.7,-1.4 -5.7,-3.4c0,-2.1 2.2,-2.7 4.3,-2.7Z" style="fill:rgb(255,137,0);fill-rule:nonzero;"/>        <g>            <path d="M373.8,25.7c-0.7,-0.8 -1.8,-1.3 -2.9,-1.3c-2.1,0 -3.9,1.8 -3.9,3.9c0,1 0.4,1.9 1,2.6c10.4,11.7 16.2,26.6 16.2,42.3c0,34.9 -28.4,63.3 -63.3,63.3c-34.9,0 -63.4,-28.5 -63.4,-63.4c0,-34.9 28.5,-63.3 63.3,-63.3c5.6,0 11.1,0.7 16.4,2.1c0.4,0.1 0.6,0.2 1,0.2c2.1,0 3.9,-1.8 3.9,-3.9c0,-1.8 -1.2,-3.3 -2.8,-3.7c-6,-1.6 -12.2,-2.5 -18.3,-2.5c-39.2,0 -71.1,31.9 -71.1,71.1c0,39.2 31.9,71.1 71.1,71.1c39.2,0 71,-31.8 71,-71c0,-17.6 -6.5,-34.5 -18.2,-47.5Z" style="fill:rgb(255,137,0);fill-rule:nonzero;"/>            <path d="M346.5,22.2l4.6,0l0,4.6c0,2.1 1.8,3.9 3.9,3.9c2.1,0 3.9,-1.8 3.9,-3.9l0,-4.6l4.6,0c2.1,0 3.9,-1.8 3.9,-3.9c0,-2.1 -1.8,-3.9 -3.9,-3.9l-4.6,0l0,-4.6c0,-2.1 -1.8,-3.9 -3.9,-3.9c-2.1,0 -3.9,1.8 -3.9,3.9l0,4.6l-4.6,0c-2.1,0 -3.9,1.8 -3.9,3.9c0.1,2 1.7,3.9 3.9,3.9Z" style="fill:rgb(255,137,0);fill-rule:nonzero;"/>        </g>        <g>            <path d="M34.5,43.8c4.5,0 8.9,0.9 12.2,2.5l0.6,0.3l2.3,-7.5l-0.4,-0.1c-1.3,-0.6 -6.1,-2.8 -15,-2.8c-19.7,0 -32.9,13 -32.9,32.5c0,19 12.2,31.3 31.2,31.3c7.8,0 13.7,-1.5 16.6,-2.9l0.4,-0.2l-2,-7.4l-0.6,0.3c-3.2,1.5 -8.1,2.5 -12.8,2.5c-14.5,0 -23.2,-8.9 -23.2,-23.8c0,-15.2 9,-24.7 23.6,-24.7Z" style="fill:rgb(34,34,32);fill-rule:nonzero;"/>            <path d="M78.7,54.6c-2,0 -3.7,0.3 -5.3,0.8c-1.6,0.5 -2.9,1.2 -4.1,2.1c-1.2,0.9 -2.2,1.9 -3,3c-0.4,0.5 -0.7,1 -1,1.4l0,-6.2l-7.2,0l0,0.6c0.1,3 0.1,5.5 0.2,7.5c0.1,1.9 0.1,3.8 0.1,5.6l0,29.6l7.2,0l0,-24.3c0,-1.4 0.3,-2.8 0.8,-4.3c0.5,-1.5 1.3,-2.9 2.3,-4.2c1,-1.3 2.4,-2.4 4,-3.2c1.6,-0.8 3.5,-1.2 5.7,-1.2c1.5,0 2.6,0.1 3.3,0.4l0.6,0.2l1.4,-7.1l-0.5,-0.1c-1.2,-0.4 -2.8,-0.6 -4.5,-0.6Z" style="fill:rgb(34,34,32);fill-rule:nonzero;"/>            <path d="M122.4,61.1c-1.8,-1.9 -4,-3.5 -6.7,-4.7c-2.6,-1.2 -5.7,-1.8 -9,-1.8c-3.1,0 -6.1,0.6 -8.8,1.7c-2.7,1.1 -5.1,2.7 -7.1,4.8c-2,2 -3.6,4.5 -4.7,7.2c-1.1,2.8 -1.7,5.8 -1.7,9c0,3.2 0.6,6.3 1.7,9c1.2,2.8 2.8,5.2 4.8,7.2c2,2 4.4,3.6 7.2,4.8c2.8,1.1 5.8,1.7 9.1,1.7c3.6,0 7,-0.7 10.2,-2.1c3.2,-1.4 6.1,-3.8 8.7,-7l0.4,-0.5l-5.7,-4.6l-0.4,0.6c-1.2,1.8 -2.9,3.5 -5.2,4.9c-2.3,1.4 -5,2.1 -8.1,2.1c-2.1,0 -4,-0.4 -5.7,-1.1c-1.8,-0.7 -3.3,-1.8 -4.7,-3.1c-1.3,-1.3 -2.4,-2.9 -3.3,-4.6c-0.7,-1.6 -1.2,-3.3 -1.4,-5.1l35.8,0l0,-3.2c0,-2.9 -0.5,-5.7 -1.4,-8.3c-0.8,-2.7 -2.2,-5.1 -4,-6.9Zm-30.1,12.3c0.1,-1.4 0.5,-2.8 1.2,-4.2c0.8,-1.5 1.9,-2.9 3.2,-4.2c1.3,-1.2 2.9,-2.2 4.6,-2.9c1.8,-0.7 3.6,-1.1 5.5,-1.1c4.2,0 7.5,1.2 9.9,3.6c2.2,2.2 3.4,5.2 3.5,8.8c-0.1,0.1 -27.9,0.1 -27.9,0Z" style="fill:rgb(34,34,32);fill-rule:nonzero;"/>            <path d="M174.6,61.8c-0.8,-1 -1.7,-1.9 -2.7,-2.6c-1.4,-1 -2.8,-1.9 -4.3,-2.6c-1.5,-0.7 -3.1,-1.2 -4.7,-1.5c-1.6,-0.3 -3.1,-0.5 -4.6,-0.5c-3.4,0 -6.6,0.6 -9.4,1.7c-2.8,1.1 -5.3,2.7 -7.4,4.8c-2.1,2 -3.7,4.5 -4.9,7.2c-1.2,2.8 -1.7,5.8 -1.7,9c0,3.2 0.6,6.3 1.7,9c1.2,2.8 2.8,5.2 4.9,7.2c2.1,2 4.6,3.6 7.4,4.8c2.8,1.1 6,1.7 9.4,1.7c1.4,0 3,-0.2 4.6,-0.5c1.6,-0.3 3.2,-0.8 4.7,-1.5c1.5,-0.7 3,-1.5 4.3,-2.6c1,-0.8 1.9,-1.6 2.7,-2.6l0,6.1l7.2,0l0,-69.1l-7.2,0l0,32Zm-1,21.9c-0.8,2 -2,3.7 -3.5,5.1c-1.5,1.4 -3.2,2.6 -5.3,3.4c-2.1,0.8 -4.3,1.3 -6.6,1.3c-2.4,0 -4.6,-0.4 -6.5,-1.3c-1.9,-0.8 -3.6,-2 -4.9,-3.4c-1.3,-1.4 -2.4,-3.2 -3.1,-5.1c-0.7,-2 -1.1,-4.1 -1.1,-6.4c0,-2.3 0.4,-4.4 1.1,-6.4c0.7,-2 1.8,-3.7 3.1,-5.1c1.3,-1.4 3,-2.6 4.9,-3.4c1.9,-0.8 4.1,-1.3 6.5,-1.3c2.4,0 4.6,0.4 6.6,1.3c2,0.8 3.8,2 5.3,3.4c1.5,1.4 2.6,3.2 3.5,5.1c0.8,2 1.2,4.1 1.2,6.3c0.1,2.4 -0.4,4.6 -1.2,6.5Z" style="fill:rgb(34,34,32);fill-rule:nonzero;"/>            <path d="M195.4,36.6c-1,0.9 -1.6,2.1 -1.6,3.5c0,1.4 0.5,2.6 1.6,3.5c1,0.9 2.2,1.4 3.4,1.4c1.2,0 2.4,-0.5 3.4,-1.4c1,-0.9 1.6,-2.1 1.6,-3.5c0,-1.4 -0.5,-2.6 -1.6,-3.5c-2,-1.8 -4.8,-1.8 -6.8,0Z" style="fill:rgb(34,34,32);fill-rule:nonzero;"/>            <rect x="195.3" y="55.7" width="7.2" height="43.3" style="fill:rgb(34,34,32);"/>            <path d="M239.3,91.4l-0.8,0.4c-0.9,0.5 -1.9,0.8 -2.9,1.1c-2,0.5 -3.9,0.6 -5.4,0.1c-0.7,-0.2 -1.2,-0.5 -1.7,-1c-0.5,-0.5 -0.9,-1.2 -1.1,-2c-0.3,-0.9 -0.4,-2.2 -0.4,-3.7l0,-24l12.4,0l0,-6.6l-12.4,0l0,-11.9l-7.2,0l0,11.9l-9.3,0l0,6.6l9.1,0l0,26c0,2.4 0.4,4.4 1.1,5.9c0.7,1.5 1.6,2.7 2.7,3.6c1.1,0.9 2.3,1.5 3.7,1.8c1.3,0.3 2.6,0.5 3.8,0.5c3.2,0 6.1,-0.5 8.4,-1.6l0.4,-0.2l-0.4,-6.9Z" style="fill:rgb(34,34,32);fill-rule:nonzero;"/>        </g>    </g></svg>