<?xml version="1.0" encoding="UTF-8" standalone="no"?><!DOCTYPE svg PUBLIC "-//W3C//DTD SVG 1.1//EN" "http://www.w3.org/Graphics/SVG/1.1/DTD/svg11.dtd"><svg width="100%" height="100%" viewBox="0 0 1024 512" version="1.1" xmlns="http://www.w3.org/2000/svg" xmlns:xlink="http://www.w3.org/1999/xlink" xml:space="preserve" style="fill-rule:evenodd;clip-rule:evenodd;stroke-linejoin:round;stroke-miterlimit:2;"><title>OnePlanetCrowd</title><desc>Oneplanetcrowd is a crowdfunding platform on which future-oriented investors lend money to social-innovative companies. They find each other on the platform oneplanetcrowd.com. Via crowdfunding, Oneplanetcrowd offers both an attractive financial return and a positive impact on people and the environment. With this double return, Oneplanetcrowd strives to accelerate the transition to a sustainable economy.</desc>    <g transform="matrix(0.996094,0,0,0.996403,-1.98438,-3.7955)">        <g transform="matrix(3.31202,0,0,1.43853,-422.164,-328.167)">            <g transform="matrix(41.6961,0,0,96,127.213,492.837)">                <path d="M0.035,-0.243c0,-0.039 0.007,-0.074 0.021,-0.105c0.014,-0.031 0.033,-0.058 0.057,-0.081c0.025,-0.022 0.053,-0.039 0.086,-0.051c0.034,-0.012 0.069,-0.018 0.106,-0.018c0.037,0 0.073,0.006 0.106,0.018c0.033,0.012 0.061,0.029 0.086,0.051c0.024,0.023 0.043,0.05 0.057,0.081c0.014,0.031 0.021,0.066 0.021,0.105c0,0.039 -0.007,0.074 -0.021,0.105c-0.014,0.031 -0.033,0.058 -0.058,0.081c-0.024,0.022 -0.053,0.039 -0.086,0.051c-0.033,0.012 -0.068,0.018 -0.105,0.018c-0.037,0 -0.073,-0.006 -0.106,-0.018c-0.033,-0.012 -0.061,-0.029 -0.086,-0.051c-0.024,-0.023 -0.043,-0.05 -0.057,-0.081c-0.014,-0.031 -0.021,-0.066 -0.021,-0.105Zm0.15,0c-0,0.037 0.01,0.066 0.031,0.089c0.021,0.023 0.051,0.034 0.089,0.034c0.038,0 0.067,-0.011 0.088,-0.034c0.022,-0.023 0.032,-0.052 0.032,-0.089c-0,-0.037 -0.011,-0.066 -0.032,-0.089c-0.021,-0.023 -0.05,-0.034 -0.088,-0.034c-0.038,0 -0.068,0.011 -0.089,0.034c-0.021,0.023 -0.031,0.052 -0.031,0.089Z" style="fill:rgb(93,42,101);fill-rule:nonzero;"/>            </g>            <g transform="matrix(41.6961,0,0,96,152.647,492.837)">                <path d="M0.053,-0.486l0.144,0l0,0.066l0.002,0c0.005,-0.009 0.011,-0.019 0.02,-0.028c0.009,-0.009 0.019,-0.018 0.031,-0.025c0.012,-0.007 0.026,-0.013 0.041,-0.018c0.015,-0.005 0.032,-0.007 0.05,-0.007c0.038,0 0.069,0.006 0.092,0.018c0.023,0.011 0.042,0.027 0.055,0.048c0.013,0.021 0.021,0.045 0.026,0.073c0.005,0.028 0.007,0.058 0.007,0.091l0,0.268l-0.15,-0l0,-0.238c0,-0.014 -0,-0.028 -0.001,-0.044c-0.001,-0.014 -0.004,-0.028 -0.009,-0.041c-0.005,-0.013 -0.013,-0.023 -0.023,-0.031c-0.011,-0.008 -0.026,-0.012 -0.045,-0.012c-0.019,0 -0.035,0.004 -0.047,0.011c-0.012,0.006 -0.021,0.016 -0.027,0.027c-0.007,0.012 -0.011,0.025 -0.013,0.04c-0.002,0.015 -0.003,0.03 -0.003,0.046l0,0.242l-0.15,-0l0,-0.486Z" style="fill:rgb(93,42,101);fill-rule:nonzero;"/>            </g>            <g transform="matrix(41.6961,0,0,96,176.581,492.837)">                <path d="M0.513,-0.084c-0.024,0.031 -0.054,0.054 -0.091,0.071c-0.037,0.017 -0.075,0.025 -0.114,0.025c-0.037,-0 -0.073,-0.006 -0.106,-0.018c-0.033,-0.012 -0.061,-0.029 -0.086,-0.052c-0.024,-0.022 -0.043,-0.049 -0.057,-0.08c-0.014,-0.031 -0.021,-0.066 -0.021,-0.105c-0,-0.039 0.007,-0.074 0.021,-0.105c0.014,-0.031 0.033,-0.058 0.057,-0.081c0.025,-0.022 0.053,-0.039 0.086,-0.051c0.033,-0.012 0.069,-0.018 0.106,-0.018c0.035,0 0.066,0.006 0.094,0.018c0.029,0.012 0.053,0.029 0.073,0.051c0.019,0.023 0.034,0.05 0.045,0.081c0.011,0.031 0.016,0.066 0.016,0.105l0,0.047l-0.348,0c0.006,0.029 0.019,0.052 0.039,0.069c0.02,0.017 0.045,0.025 0.074,0.025c0.025,-0 0.046,-0.005 0.063,-0.017c0.017,-0.01 0.031,-0.025 0.044,-0.042l0.105,0.077Zm-0.127,-0.214c0.001,-0.025 -0.008,-0.047 -0.025,-0.065c-0.017,-0.018 -0.04,-0.027 -0.067,-0.027c-0.017,0 -0.031,0.003 -0.044,0.008c-0.013,0.005 -0.023,0.012 -0.033,0.021c-0.008,0.008 -0.015,0.018 -0.02,0.028c-0.006,0.011 -0.008,0.023 -0.009,0.035l0.198,-0Z" style="fill:rgb(93,42,101);fill-rule:nonzero;"/>            </g>            <g transform="matrix(41.6961,0,0,96,200.514,492.837)">                <path d="M0.067,-0.462l0.06,0l0,0.081l0.002,0c0.009,-0.016 0.021,-0.03 0.035,-0.041c0.014,-0.012 0.029,-0.022 0.045,-0.03c0.017,-0.007 0.034,-0.013 0.052,-0.017c0.018,-0.003 0.036,-0.005 0.053,-0.005c0.035,-0 0.068,0.006 0.098,0.018c0.029,0.012 0.055,0.029 0.076,0.05c0.022,0.022 0.039,0.048 0.051,0.077c0.012,0.03 0.018,0.063 0.018,0.098c0,0.035 -0.006,0.068 -0.018,0.097c-0.012,0.03 -0.029,0.056 -0.051,0.077c-0.021,0.022 -0.047,0.039 -0.077,0.051c-0.029,0.012 -0.062,0.018 -0.097,0.018c-0.017,-0 -0.035,-0.002 -0.053,-0.006c-0.018,-0.003 -0.035,-0.009 -0.052,-0.017c-0.016,-0.007 -0.031,-0.017 -0.045,-0.029c-0.014,-0.011 -0.026,-0.025 -0.035,-0.041l-0.002,-0l-0,0.309l-0.06,-0l-0,-0.69Zm0.054,0.231c-0,0.026 0.005,0.051 0.015,0.074c0.01,0.023 0.024,0.043 0.041,0.06c0.017,0.017 0.038,0.03 0.061,0.04c0.023,0.01 0.049,0.015 0.076,0.015c0.028,0 0.053,-0.005 0.076,-0.015c0.023,-0.01 0.042,-0.023 0.058,-0.04c0.016,-0.017 0.028,-0.037 0.036,-0.06c0.009,-0.023 0.013,-0.048 0.013,-0.074c-0,-0.026 -0.004,-0.05 -0.013,-0.073c-0.008,-0.023 -0.02,-0.043 -0.036,-0.06c-0.016,-0.017 -0.035,-0.031 -0.058,-0.041c-0.023,-0.01 -0.048,-0.015 -0.076,-0.015c-0.027,0 -0.053,0.005 -0.076,0.015c-0.023,0.01 -0.044,0.024 -0.061,0.041c-0.017,0.017 -0.031,0.037 -0.041,0.06c-0.01,0.023 -0.015,0.047 -0.015,0.073Z" style="fill:rgb(105,205,207);fill-rule:nonzero;"/>            </g>            <g transform="matrix(41.6961,0,0,96,225.991,492.837)">                <rect x="0.09" y="-0.756" width="0.06" height="0.756" style="fill:rgb(105,205,207);fill-rule:nonzero;"/>            </g>            <g transform="matrix(41.6961,0,0,96,235.998,492.837)">                <path d="M0.439,-0.194c0,0.023 0,0.043 0.001,0.061c-0,0.018 0,0.035 0.001,0.05c0.001,0.015 0.002,0.03 0.003,0.043c0,0.013 0.002,0.027 0.004,0.04l-0.056,-0c-0.004,-0.023 -0.006,-0.048 -0.006,-0.075l-0.002,0c-0.017,0.03 -0.039,0.052 -0.065,0.066c-0.025,0.014 -0.058,0.021 -0.097,0.021c-0.02,-0 -0.04,-0.003 -0.059,-0.008c-0.019,-0.005 -0.037,-0.013 -0.052,-0.024c-0.015,-0.011 -0.028,-0.025 -0.038,-0.042c-0.009,-0.017 -0.014,-0.038 -0.014,-0.063c-0,-0.035 0.009,-0.063 0.027,-0.084c0.018,-0.021 0.04,-0.036 0.066,-0.046c0.027,-0.011 0.055,-0.018 0.084,-0.021c0.03,-0.003 0.056,-0.004 0.079,-0.004l0.07,0l-0,-0.028c-0,-0.04 -0.012,-0.069 -0.037,-0.086c-0.025,-0.017 -0.056,-0.026 -0.093,-0.026c-0.053,0 -0.1,0.017 -0.141,0.052l-0.035,-0.041c0.022,-0.021 0.049,-0.037 0.082,-0.048c0.033,-0.011 0.064,-0.017 0.094,-0.017c0.056,0 0.101,0.013 0.134,0.04c0.033,0.026 0.05,0.068 0.05,0.127l-0,0.113Zm-0.12,-0.038c-0.025,0 -0.05,0.002 -0.074,0.005c-0.023,0.003 -0.045,0.009 -0.064,0.017c-0.019,0.008 -0.034,0.019 -0.045,0.032c-0.011,0.013 -0.017,0.03 -0.017,0.05c-0,0.014 0.003,0.027 0.009,0.038c0.007,0.011 0.015,0.02 0.025,0.027c0.01,0.007 0.021,0.012 0.033,0.016c0.013,0.003 0.025,0.005 0.038,0.005c0.032,0 0.058,-0.005 0.079,-0.014c0.021,-0.009 0.037,-0.021 0.049,-0.036c0.013,-0.015 0.021,-0.032 0.026,-0.051c0.005,-0.019 0.007,-0.039 0.007,-0.058l-0,-0.031l-0.066,0Z" style="fill:rgb(105,205,207);fill-rule:nonzero;"/>            </g>            <g transform="matrix(41.6961,0,0,96,257.638,492.837)">                <path d="M0.08,-0.332c0,-0.009 -0,-0.019 -0.001,-0.031c-0.001,-0.013 -0.001,-0.025 -0.002,-0.038c0,-0.013 -0,-0.025 -0.001,-0.036c-0.001,-0.011 -0.001,-0.019 -0.001,-0.025l0.06,-0c0.001,0.017 0.001,0.034 0.002,0.05c-0,0.016 0.001,0.026 0.002,0.031l0.003,0c0.012,-0.025 0.032,-0.047 0.06,-0.066c0.028,-0.018 0.061,-0.027 0.098,-0.027c0.036,0 0.065,0.006 0.088,0.017c0.023,0.011 0.04,0.026 0.053,0.044c0.014,0.019 0.023,0.04 0.028,0.064c0.005,0.024 0.007,0.049 0.007,0.074l0,0.275l-0.06,-0l0,-0.272c0,-0.019 -0.002,-0.037 -0.005,-0.054c-0.003,-0.018 -0.009,-0.034 -0.018,-0.048c-0.008,-0.014 -0.02,-0.025 -0.035,-0.034c-0.015,-0.008 -0.034,-0.012 -0.058,-0.012c-0.022,0 -0.043,0.004 -0.062,0.012c-0.02,0.007 -0.037,0.019 -0.051,0.035c-0.015,0.015 -0.026,0.035 -0.035,0.058c-0.008,0.024 -0.012,0.052 -0.012,0.084l0,0.231l-0.06,-0l0,-0.332Z" style="fill:rgb(105,205,207);fill-rule:nonzero;"/>            </g>            <g transform="matrix(41.6961,0,0,96,280.821,492.837)">                <path d="M0.488,-0.087c-0.023,0.035 -0.052,0.061 -0.086,0.076c-0.035,0.015 -0.073,0.023 -0.114,0.023c-0.035,0 -0.067,-0.006 -0.096,-0.018c-0.029,-0.012 -0.053,-0.029 -0.074,-0.05c-0.021,-0.022 -0.036,-0.048 -0.047,-0.077c-0.011,-0.03 -0.017,-0.063 -0.017,-0.099c0,-0.035 0.006,-0.067 0.017,-0.096c0.011,-0.029 0.027,-0.055 0.048,-0.077c0.021,-0.021 0.045,-0.038 0.073,-0.05c0.028,-0.013 0.059,-0.019 0.093,-0.019c0.035,0 0.067,0.006 0.094,0.019c0.026,0.012 0.049,0.028 0.068,0.048c0.018,0.021 0.032,0.044 0.041,0.07c0.009,0.026 0.014,0.052 0.014,0.079l0,0.042l-0.388,0c0,0.013 0.003,0.029 0.008,0.048c0.005,0.02 0.014,0.039 0.027,0.058c0.013,0.019 0.031,0.035 0.054,0.048c0.022,0.013 0.051,0.02 0.086,0.02c0.031,-0 0.06,-0.007 0.089,-0.022c0.029,-0.015 0.051,-0.035 0.066,-0.06l0.044,0.037Zm-0.046,-0.183c0,-0.021 -0.004,-0.04 -0.013,-0.058c-0.008,-0.018 -0.019,-0.034 -0.033,-0.048c-0.015,-0.013 -0.032,-0.024 -0.051,-0.032c-0.02,-0.008 -0.041,-0.012 -0.063,-0.012c-0.033,-0 -0.06,0.007 -0.082,0.02c-0.021,0.013 -0.038,0.029 -0.051,0.046c-0.013,0.017 -0.022,0.034 -0.027,0.05c-0.005,0.017 -0.008,0.028 -0.008,0.034l0.328,-0Z" style="fill:rgb(105,205,207);fill-rule:nonzero;"/>            </g>            <g transform="matrix(41.6961,0,0,96,304.004,492.837)">                <path d="M0.306,-0.408l-0.132,0l0,0.301c0,0.021 0.006,0.037 0.017,0.048c0.011,0.011 0.027,0.017 0.047,0.017c0.011,0 0.023,-0.001 0.035,-0.004c0.011,-0.003 0.022,-0.007 0.033,-0.012l0.005,0.054c-0.011,0.004 -0.024,0.008 -0.039,0.011c-0.015,0.003 -0.028,0.005 -0.039,0.005c-0.021,0 -0.04,-0.003 -0.055,-0.009c-0.015,-0.007 -0.028,-0.015 -0.037,-0.026c-0.009,-0.011 -0.016,-0.023 -0.021,-0.037c-0.004,-0.015 -0.006,-0.03 -0.006,-0.047l-0,-0.301l-0.1,0l-0,-0.054l0.1,0l-0,-0.133l0.06,0l-0,0.133l0.132,-0l-0,0.054Z" style="fill:rgb(105,205,207);fill-rule:nonzero;"/>            </g>            <g transform="matrix(41.6961,0,0,96,317.889,492.837)">                <path d="M0.382,-0.329c-0.007,-0.011 -0.018,-0.02 -0.031,-0.026c-0.013,-0.007 -0.028,-0.011 -0.043,-0.011c-0.038,0 -0.067,0.011 -0.089,0.034c-0.02,0.023 -0.031,0.052 -0.031,0.089c0,0.037 0.011,0.066 0.032,0.089c0.021,0.023 0.05,0.034 0.088,0.034c0.017,0 0.031,-0.004 0.043,-0.011c0.012,-0.007 0.022,-0.016 0.031,-0.026l0.099,0.104c-0.023,0.024 -0.051,0.041 -0.082,0.051c-0.032,0.009 -0.062,0.014 -0.091,0.014c-0.037,0 -0.072,-0.006 -0.105,-0.018c-0.033,-0.012 -0.062,-0.029 -0.086,-0.051c-0.025,-0.023 -0.044,-0.05 -0.058,-0.081c-0.014,-0.031 -0.021,-0.066 -0.021,-0.105c0,-0.039 0.007,-0.074 0.021,-0.105c0.014,-0.031 0.033,-0.058 0.058,-0.08c0.024,-0.023 0.053,-0.04 0.086,-0.052c0.033,-0.012 0.068,-0.018 0.105,-0.018c0.029,0 0.059,0.005 0.091,0.015c0.031,0.009 0.059,0.026 0.082,0.05l-0.099,0.104Z" style="fill:rgb(93,42,101);fill-rule:nonzero;"/>            </g>            <g transform="matrix(41.6961,0,0,96,337.987,492.837)">                <path d="M0.053,-0.486l0.15,0l0,0.078l0.002,-0c0.016,-0.03 0.035,-0.052 0.057,-0.068c0.022,-0.015 0.05,-0.022 0.083,-0.022c0.009,0 0.017,0 0.026,0.001c0.009,0.001 0.017,0.002 0.024,0.004l-0,0.137c-0.011,-0.003 -0.021,-0.006 -0.032,-0.008c-0.01,-0.001 -0.021,-0.002 -0.032,-0.002c-0.029,0 -0.051,0.004 -0.068,0.012c-0.017,0.008 -0.03,0.019 -0.039,0.033c-0.009,0.015 -0.014,0.032 -0.017,0.052c-0.003,0.02 -0.004,0.042 -0.004,0.066l-0,0.203l-0.15,-0l-0,-0.486Z" style="fill:rgb(93,42,101);fill-rule:nonzero;"/>            </g>            <g transform="matrix(41.6961,0,0,96,354.206,492.837)">                <path d="M0.035,-0.243c0,-0.039 0.007,-0.074 0.021,-0.105c0.014,-0.031 0.033,-0.058 0.057,-0.081c0.025,-0.022 0.053,-0.039 0.086,-0.051c0.034,-0.012 0.069,-0.018 0.106,-0.018c0.037,0 0.073,0.006 0.106,0.018c0.033,0.012 0.061,0.029 0.086,0.051c0.024,0.023 0.043,0.05 0.057,0.081c0.014,0.031 0.021,0.066 0.021,0.105c0,0.039 -0.007,0.074 -0.021,0.105c-0.014,0.031 -0.033,0.058 -0.058,0.081c-0.024,0.022 -0.053,0.039 -0.086,0.051c-0.033,0.012 -0.068,0.018 -0.105,0.018c-0.037,0 -0.073,-0.006 -0.106,-0.018c-0.033,-0.012 -0.061,-0.029 -0.086,-0.051c-0.024,-0.023 -0.043,-0.05 -0.057,-0.081c-0.014,-0.031 -0.021,-0.066 -0.021,-0.105Zm0.15,0c-0,0.037 0.01,0.066 0.031,0.089c0.021,0.023 0.051,0.034 0.089,0.034c0.038,0 0.067,-0.011 0.088,-0.034c0.022,-0.023 0.032,-0.052 0.032,-0.089c-0,-0.037 -0.011,-0.066 -0.032,-0.089c-0.021,-0.023 -0.05,-0.034 -0.088,-0.034c-0.038,0 -0.068,0.011 -0.089,0.034c-0.021,0.023 -0.031,0.052 -0.031,0.089Z" style="fill:rgb(93,42,101);fill-rule:nonzero;"/>            </g>            <g transform="matrix(41.6961,0,0,96,379.641,492.837)">                <path d="M-0.005,-0.486l0.16,0l0.099,0.305l0.002,0l0.083,-0.305l0.164,0l0.09,0.305l0.002,0l0.091,-0.305l0.152,0l-0.173,0.486l-0.148,-0l-0.101,-0.323l-0.002,0l-0.09,0.323l-0.151,-0l-0.178,-0.486Z" style="fill:rgb(93,42,101);fill-rule:nonzero;"/>            </g>            <g transform="matrix(41.6961,0,0,96,414.374,492.837)">                <path d="M0.563,-0l-0.138,-0l-0,-0.064l-0.002,0c-0.006,0.009 -0.014,0.017 -0.024,0.027c-0.009,0.009 -0.021,0.017 -0.034,0.024c-0.012,0.007 -0.027,0.013 -0.042,0.018c-0.016,0.005 -0.032,0.007 -0.049,0.007c-0.036,0 -0.069,-0.006 -0.098,-0.018c-0.029,-0.013 -0.055,-0.03 -0.076,-0.053c-0.021,-0.022 -0.037,-0.048 -0.048,-0.079c-0.011,-0.031 -0.017,-0.064 -0.017,-0.101c-0,-0.034 0.005,-0.066 0.015,-0.098c0.011,-0.03 0.025,-0.058 0.044,-0.082c0.019,-0.024 0.043,-0.043 0.07,-0.057c0.027,-0.015 0.058,-0.022 0.093,-0.022c0.031,0 0.061,0.005 0.088,0.015c0.027,0.009 0.049,0.026 0.066,0.049l0.002,0l0,-0.322l0.15,0l0,0.756Zm-0.138,-0.243c0,-0.037 -0.01,-0.066 -0.031,-0.089c-0.021,-0.023 -0.051,-0.034 -0.089,-0.034c-0.038,0 -0.067,0.011 -0.088,0.034c-0.021,0.023 -0.032,0.052 -0.032,0.089c0,0.037 0.011,0.066 0.032,0.089c0.021,0.023 0.05,0.034 0.088,0.034c0.038,-0 0.068,-0.011 0.089,-0.034c0.021,-0.023 0.031,-0.052 0.031,-0.089Z" style="fill:rgb(93,42,101);fill-rule:nonzero;"/>            </g>        </g>        <path d="M196.219,302.511c22.598,-114.315 101.726,-192.301 235.827,-193.315c117.801,-0.891 209.187,75.605 234.661,193.315l-4.047,0c-28.394,-103.321 -117.035,-168.767 -229.614,-168.563c-100.648,0.182 -200.014,84.709 -231.527,168.563l-5.3,0Z" style="fill:rgb(93,42,101);"/>    </g></svg>