<?xml version="1.0" encoding="UTF-8" standalone="no"?><!DOCTYPE svg PUBLIC "-//W3C//DTD SVG 1.1//EN" "http://www.w3.org/Graphics/SVG/1.1/DTD/svg11.dtd"><svg width="100%" height="100%" viewBox="0 0 1024 512" version="1.1" xmlns="http://www.w3.org/2000/svg" xmlns:xlink="http://www.w3.org/1999/xlink" xml:space="preserve" style="fill-rule:evenodd;clip-rule:evenodd;stroke-linejoin:round;stroke-miterlimit:2;"><title>LC&amp;F</title><desc>Since 2012 London Capital &amp; Finance Plc has become a leading provider of fixed rate bonds giving investors a fixed interest rates of 3.9%, 6.5% or 8.0% over 1, 2 or 3 years respectively. LC&amp;F; has over 8,000 investors, £120 million worth of invested funds and £287 million worth of assets held as a security (as on 31 January 2018). </desc>    <g transform="matrix(4.43478,0,0,4.43478,2,60.8696)">        <path d="M114.8,55.1l-0.1,3.9l-11.2,0l0,-0.4l0.4,0c0.6,0 1,-0.1 1.2,-0.2c0.2,-0.1 0.4,-0.4 0.4,-0.7c0.1,-0.3 0.1,-1 0.1,-2.1l0,-6.5c0,-1.1 0,-1.7 -0.1,-2c-0.1,-0.3 -0.2,-0.5 -0.4,-0.6c-0.2,-0.1 -0.6,-0.2 -1.3,-0.2l-0.3,0l0,-0.4l6.3,0l0,0.4l-0.6,0c-0.6,0 -1.1,0.1 -1.3,0.2c-0.2,0.1 -0.3,0.3 -0.4,0.6c-0.1,0.3 -0.1,1 -0.1,2.1l0,6.9c0,1 0,1.5 0.1,1.8c0.1,0.2 0.2,0.4 0.4,0.6c0.2,0.1 0.7,0.2 1.5,0.2l1,0c0.8,0 1.4,-0.1 1.8,-0.2c0.4,-0.1 0.8,-0.5 1.1,-0.9c0.4,-0.5 0.7,-1.2 1,-2.3l0.5,0l0,-0.2Zm0.9,-0.1c0,-1.2 0.4,-2.2 1.2,-3.1c0.8,-0.8 1.8,-1.2 3,-1.2c1.2,0 2.2,0.4 3,1.2c0.8,0.8 1.2,1.8 1.2,3.1c0,1.3 -0.4,2.4 -1.2,3.2c-0.8,0.8 -1.8,1.2 -3,1.2c-1.2,0 -2.2,-0.4 -3,-1.2c-0.8,-0.9 -1.2,-1.9 -1.2,-3.2Zm1.6,0c0,1.4 0.2,2.4 0.7,3c0.5,0.6 1.1,0.9 1.9,0.9c0.8,0 1.5,-0.3 1.9,-0.9c0.5,-0.6 0.7,-1.6 0.7,-3c0,-1.4 -0.2,-2.4 -0.7,-3c-0.4,-0.6 -1.1,-0.9 -2,-0.9c-0.8,0 -1.5,0.3 -1.9,0.9c-0.3,0.6 -0.6,1.6 -0.6,3Zm10.4,-4.3l0.3,0c0.1,0.4 0.2,0.9 0.3,1.6c0.5,-0.6 1,-1 1.5,-1.2c0.5,-0.3 1,-0.4 1.6,-0.4c0.6,0 1.2,0.1 1.6,0.4c0.4,0.3 0.7,0.6 0.8,1c0.1,0.4 0.2,0.9 0.2,1.7l0,4.2c0,0.2 0.1,0.4 0.3,0.5c0.2,0.1 0.5,0.2 0.9,0.2l0,0.4l-4.1,0l0,-0.4l0.2,0c0.5,0 0.8,-0.1 0.9,-0.2c0.1,-0.1 0.2,-0.3 0.2,-0.5l0,-4.2c0,-0.6 0,-1.1 -0.1,-1.3c-0.1,-0.3 -0.2,-0.5 -0.5,-0.7c-0.3,-0.2 -0.6,-0.3 -1,-0.3c-0.5,0 -0.9,0.1 -1.4,0.4c-0.4,0.3 -0.8,0.7 -1.2,1.3l0,3.2c0,0.9 0,1.5 0.1,1.7c0,0.2 0.1,0.4 0.3,0.5c0.2,0.1 0.5,0.2 1,0.2l0,0.4l-4,0l0,-0.4c0.4,0 0.8,0 0.9,-0.1c0.2,-0.1 0.3,-0.2 0.3,-0.4c0,-0.2 0.1,-0.8 0.1,-1.7l0,-2.4c0,-0.9 0,-1.5 -0.1,-1.7c0,-0.2 -0.1,-0.3 -0.3,-0.4c-0.2,-0.1 -0.5,-0.2 -1,-0.2l0,-0.4c0.7,-0.5 1.4,-0.6 2.2,-0.8Zm15.3,1.1l0,-4.7c0,-0.2 -0.1,-0.4 -0.3,-0.5c-0.2,-0.1 -0.5,-0.2 -0.9,-0.2l-0.2,0l0,-0.4c0.8,0 1.6,-0.2 2.6,-0.4l0.2,0l0,12.4c0,0.2 0.1,0.4 0.3,0.4c0.2,0.1 0.5,0.1 1,0.1l0,0.4c-0.9,0 -1.8,0.1 -2.5,0.3c-0.1,-0.3 -0.1,-0.8 -0.1,-1.4c-0.5,0.5 -1,0.8 -1.5,1.1c-0.5,0.2 -1,0.4 -1.6,0.4c-1,0 -1.9,-0.4 -2.7,-1.2c-0.7,-0.8 -1.1,-1.8 -1.1,-3c0,-1.3 0.4,-2.3 1.1,-3.1c0.8,-0.8 1.7,-1.2 2.7,-1.2c0.5,0 1,0.1 1.5,0.3c0.6,0.1 1.1,0.3 1.5,0.7Zm0,0.6c-0.4,-0.4 -0.9,-0.6 -1.3,-0.8c-0.4,-0.2 -0.9,-0.3 -1.3,-0.3c-0.7,0 -1.3,0.3 -1.8,0.8c-0.5,0.6 -0.7,1.5 -0.7,2.8c0,1.3 0.3,2.3 0.8,2.9c0.5,0.6 1.1,0.9 1.9,0.9c0.5,0 0.9,-0.1 1.4,-0.3c0.4,-0.2 0.8,-0.6 1.2,-1.1l0,-4.9l-0.2,0Zm3.6,2.6c0,-1.2 0.4,-2.2 1.2,-3.1c0.8,-0.8 1.8,-1.2 3,-1.2c1.2,0 2.2,0.4 3,1.2c0.8,0.8 1.2,1.8 1.2,3.1c0,1.3 -0.4,2.4 -1.2,3.2c-0.8,0.8 -1.8,1.2 -3,1.2c-1.2,0 -2.2,-0.4 -3,-1.2c-0.8,-0.9 -1.2,-1.9 -1.2,-3.2Zm1.6,0c0,1.4 0.2,2.4 0.7,3c0.5,0.6 1.1,0.9 1.9,0.9c0.8,0 1.5,-0.3 1.9,-0.9c0.5,-0.6 0.7,-1.6 0.7,-3c0,-1.4 -0.2,-2.4 -0.7,-3c-0.4,-0.6 -1.1,-0.9 -2,-0.9c-0.8,0 -1.5,0.3 -1.9,0.9c-0.4,0.6 -0.6,1.6 -0.6,3Zm10.4,-4.3l0.3,0c0.1,0.4 0.2,0.9 0.3,1.6c0.5,-0.6 1,-1 1.5,-1.2c0.5,-0.3 1,-0.4 1.6,-0.4c0.6,0 1.2,0.1 1.6,0.4c0.4,0.3 0.7,0.6 0.8,1c0.1,0.4 0.2,0.9 0.2,1.7l0,4.2c0,0.2 0.1,0.4 0.3,0.5c0.2,0.1 0.5,0.2 0.9,0.2l0,0.4l-4.1,0l0,-0.4l0.2,0c0.5,0 0.8,-0.1 0.9,-0.2c0.1,-0.1 0.2,-0.3 0.2,-0.5l0,-4.2c0,-0.6 0,-1.1 -0.1,-1.3c-0.1,-0.3 -0.2,-0.5 -0.5,-0.7c-0.3,-0.2 -0.6,-0.3 -1,-0.3c-0.5,0 -0.9,0.1 -1.4,0.4c-0.4,0.3 -0.8,0.7 -1.2,1.3l0,3.2c0,0.9 0,1.5 0.1,1.7c0,0.2 0.1,0.4 0.3,0.5c0.2,0.1 0.5,0.2 1,0.2l0,0.4l-4,0l0,-0.4c0.4,0 0.8,0 0.9,-0.1c0.2,-0.1 0.3,-0.2 0.3,-0.4c0,-0.2 0.1,-0.8 0.1,-1.7l0,-2.4c0,-0.9 0,-1.5 -0.1,-1.7c0,-0.2 -0.1,-0.3 -0.3,-0.4c-0.2,-0.1 -0.5,-0.2 -1,-0.2l0,-0.4c0.7,-0.5 1.4,-0.6 2.2,-0.8Zm25.4,3.3l0.4,0l0,4.6l-0.4,0c-0.1,-0.5 -0.3,-1 -0.6,-1.4c-1.2,1.3 -2.6,2 -4.4,2c-1.9,0 -3.5,-0.6 -4.7,-1.8c-1.2,-1.2 -1.8,-2.8 -1.8,-4.8c0,-1.3 0.3,-2.5 0.8,-3.7c0.6,-1.2 1.3,-2 2.3,-2.6c1,-0.6 2.1,-0.8 3.3,-0.8c1,0 1.9,0.2 2.7,0.6c0.8,0.4 1.4,0.9 1.8,1.3c0.3,-0.6 0.4,-1.1 0.5,-1.7l0.4,0l0.1,5l-0.4,0c-0.3,-1.8 -0.9,-3 -1.8,-3.7c-0.9,-0.7 -1.9,-1 -3,-1c-1.4,0 -2.5,0.6 -3.3,1.7c-0.8,1.1 -1.2,2.7 -1.2,4.8c0,2 0.4,3.5 1.3,4.5c0.9,1.1 2,1.6 3.3,1.6c0.7,0 1.4,-0.2 2.2,-0.5c0.7,-0.3 1.3,-0.9 1.8,-1.7c0.4,-0.8 0.6,-1.6 0.7,-2.4Zm10.5,3.5l0.4,0c-0.1,1.1 -0.6,1.7 -1.6,1.7c-0.4,0 -0.8,-0.1 -1,-0.3c-0.3,-0.2 -0.4,-0.6 -0.5,-1c-0.6,0.5 -1.2,0.8 -1.8,1c-0.5,0.2 -1,0.3 -1.4,0.3c-0.5,0 -1,-0.2 -1.4,-0.5c-0.4,-0.3 -0.6,-0.7 -0.6,-1.2c0,-0.7 0.3,-1.3 1,-1.8c0.7,-0.5 1.6,-1 2.7,-1.5l1.5,-0.6l0,-0.4c0,-0.6 0,-0.9 -0.1,-1.2c-0.1,-0.2 -0.3,-0.5 -0.6,-0.7c-0.3,-0.2 -0.7,-0.3 -1.2,-0.3c-1,0 -1.5,0.3 -1.6,1c-0.1,0.7 -0.4,1 -0.8,1c-0.4,0 -0.6,-0.2 -0.6,-0.6c0,-0.4 0.3,-0.8 0.8,-1.2c0.5,-0.4 1.3,-0.6 2.5,-0.6c0.8,0 1.5,0.1 1.9,0.4c0.5,0.3 0.8,0.6 0.9,0.9c0.1,0.3 0.2,0.8 0.2,1.5l0,3.2c0,0.8 0,1.2 0.1,1.4c0.1,0.2 0.2,0.3 0.5,0.3c0.3,0.1 0.6,-0.2 0.7,-0.8Zm-2.8,-3.4l-1.1,0.4c-1.7,0.7 -2.5,1.5 -2.5,2.6c0,0.4 0.1,0.7 0.3,1c0.2,0.2 0.5,0.4 0.8,0.4c0.3,0 0.7,-0.1 1.1,-0.3c0.4,-0.2 0.9,-0.5 1.4,-0.9l0,-3.2Zm5.8,-3.4l0.3,0c0.1,0.4 0.2,0.8 0.2,1.3c0.4,-0.4 0.9,-0.8 1.3,-1c0.5,-0.2 1,-0.3 1.5,-0.3c1.1,0 2,0.4 2.8,1.2c0.7,0.8 1.1,1.8 1.1,3.1c0,1.2 -0.4,2.3 -1.1,3.1c-0.7,0.8 -1.7,1.3 -2.9,1.3c-0.5,0 -1,-0.1 -1.4,-0.3c-0.4,-0.2 -0.9,-0.5 -1.3,-0.9l0,3c0,0.9 0,1.5 0.1,1.7c0,0.2 0.1,0.4 0.3,0.5c0.2,0.1 0.5,0.2 0.9,0.2l0,0.4l-4.2,0l0,-0.6l0.3,0c0.5,0 0.8,-0.1 0.9,-0.2c0.1,-0.1 0.2,-0.3 0.2,-0.5l0,-10.4c0,-0.2 -0.1,-0.4 -0.3,-0.5c-0.2,-0.1 -0.5,-0.2 -0.9,-0.2l-0.3,0l0,-0.4c0.7,-0.1 1.5,-0.3 2.5,-0.5Zm0.4,6.8c0.4,0.4 0.7,0.8 1.1,1c0.4,0.2 0.8,0.3 1.2,0.3c0.7,0 1.4,-0.3 1.9,-0.9c0.5,-0.6 0.8,-1.6 0.8,-3c0,-1.2 -0.3,-2.1 -0.8,-2.7c-0.5,-0.6 -1.2,-0.9 -1.9,-0.9c-0.4,0 -0.9,0.1 -1.3,0.3c-0.4,0.2 -0.8,0.6 -1.1,1l0,4.9l0.1,0Zm10.7,-6.8l0,7.2c0,0.2 0.1,0.4 0.3,0.5c0.2,0.1 0.5,0.2 0.9,0.2l0.2,0l0,0.4l-4.3,0l0,-0.4l0.3,0c0.5,0 0.8,-0.1 0.9,-0.2c0.1,-0.1 0.2,-0.3 0.2,-0.5l0,-4c0,-0.9 0,-1.5 -0.1,-1.7c-0.1,-0.2 -0.2,-0.3 -0.4,-0.4c-0.1,-0.1 -0.4,-0.1 -0.8,-0.1l-0.3,0l0,-0.4c1.2,-0.1 2,-0.3 2.7,-0.5l0.4,-0.1Zm-1.8,-4.1c0,-0.3 0.1,-0.5 0.3,-0.7c0.2,-0.2 0.4,-0.3 0.7,-0.3c0.3,0 0.5,0.1 0.7,0.3c0.2,0.2 0.3,0.4 0.3,0.7c0,0.3 -0.1,0.5 -0.3,0.7c-0.2,0.2 -0.4,0.3 -0.7,0.3c-0.3,0 -0.5,-0.1 -0.7,-0.3c-0.2,-0.2 -0.3,-0.4 -0.3,-0.7Zm9.1,4.8l-2.4,0l0,4.8c0,0.7 0,1.2 0.1,1.5c0.1,0.3 0.2,0.5 0.4,0.6c0.2,0.2 0.4,0.2 0.7,0.2c0.5,0 0.9,-0.3 1.2,-0.8l0.3,0.2c-0.2,0.4 -0.5,0.8 -0.9,1c-0.4,0.2 -0.8,0.3 -1.2,0.3c-0.5,0 -0.9,-0.1 -1.2,-0.4c-0.4,-0.3 -0.6,-0.6 -0.7,-1c-0.1,-0.4 -0.1,-1 -0.1,-1.9l0,-4.5l-1.2,0l0,-0.4c0.5,0 1,-0.2 1.4,-0.7c0.4,-0.4 0.7,-1 0.8,-1.8l0.3,0l0,2.5l2.4,0l0.1,0.4Zm9.1,6.1l0.4,0c-0.1,1.1 -0.6,1.7 -1.6,1.7c-0.4,0 -0.8,-0.1 -1,-0.3c-0.3,-0.2 -0.4,-0.6 -0.5,-1c-0.6,0.5 -1.2,0.8 -1.8,1c-0.5,0.2 -1,0.3 -1.4,0.3c-0.5,0 -1,-0.2 -1.4,-0.5c-0.4,-0.3 -0.6,-0.7 -0.6,-1.2c0,-0.7 0.3,-1.3 1,-1.8c0.7,-0.5 1.6,-1 2.7,-1.5l1.5,-0.6l0,-0.4c0,-0.6 0,-0.9 -0.1,-1.2c-0.1,-0.2 -0.3,-0.5 -0.6,-0.7c-0.3,-0.2 -0.7,-0.3 -1.2,-0.3c-1,0 -1.5,0.3 -1.6,1c-0.1,0.7 -0.4,1 -0.8,1c-0.4,0 -0.6,-0.2 -0.6,-0.6c0,-0.4 0.3,-0.8 0.8,-1.2c0.5,-0.4 1.3,-0.6 2.5,-0.6c0.8,0 1.5,0.1 1.9,0.4c0.5,0.3 0.8,0.6 0.9,0.9c0.1,0.3 0.2,0.8 0.2,1.5l0,3.2c0,0.8 0,1.2 0.1,1.4c0.1,0.2 0.2,0.3 0.5,0.3c0.3,0.1 0.6,-0.2 0.7,-0.8Zm-2.8,-3.4l-1.1,0.4c-1.7,0.7 -2.5,1.5 -2.5,2.6c0,0.4 0.1,0.7 0.3,1c0.2,0.2 0.5,0.4 0.8,0.4c0.3,0 0.7,-0.1 1.1,-0.3c0.4,-0.2 0.9,-0.5 1.4,-0.9l0,-3.2Zm6.4,-8.5l0,12.2c0,0.2 0.1,0.4 0.3,0.5c0.2,0.1 0.5,0.2 0.9,0.2l0.2,0l0,0.4l-4.3,0l0,-0.4l0.3,0c0.4,0 0.7,-0.1 0.8,-0.2c0.2,-0.1 0.3,-0.3 0.3,-0.5l0,-9.6c0,-0.8 -0.1,-1.4 -0.2,-1.6c-0.1,-0.2 -0.5,-0.3 -1.1,-0.3l0,-0.4c0.4,0 0.9,0 1.4,-0.1c0.5,-0.1 0.9,-0.2 1.1,-0.3l0.3,0.1Zm-117.1,27l4.2,0l0,0.4c-0.5,0.1 -1,0.4 -1.4,0.8c-0.4,0.4 -0.8,1 -1.2,2.1c-0.3,0.8 -0.7,1.4 -1,1.8c0.7,1 1.2,1.6 1.6,1.9c0.4,0.3 0.8,0.4 1.3,0.4c0.6,0 1.1,-0.3 1.4,-0.9l0.4,0c-0.1,0.5 -0.4,1 -0.9,1.3c-0.4,0.3 -1,0.5 -1.5,0.5c-1.3,0 -2.4,-0.6 -3.3,-1.9c-1.1,1.3 -2.3,1.9 -3.6,1.9c-0.5,0 -0.9,-0.1 -1.4,-0.3c-0.4,-0.2 -0.8,-0.4 -1.2,-0.7c-0.3,-0.3 -0.6,-0.7 -0.8,-1.1c-0.2,-0.4 -0.3,-0.9 -0.3,-1.5c0,-0.8 0.2,-1.5 0.7,-2.1c0.4,-0.6 1.3,-1.3 2.6,-2.1c-0.8,-1.1 -1.1,-2 -1.1,-2.9c0,-0.7 0.3,-1.3 0.8,-1.8c0.5,-0.5 1.2,-0.8 2,-0.8c0.7,0 1.3,0.2 1.9,0.6c0.6,0.4 0.8,0.9 0.8,1.6c0,1 -0.9,2 -2.8,2.9c0.6,0.8 1.1,1.6 1.7,2.3c0.5,0.8 1.1,1.5 1.6,2.2c0.4,-0.5 0.7,-1 0.9,-1.6c0.2,-0.6 0.3,-1 0.3,-1.3c0,-0.7 -0.5,-1.2 -1.5,-1.3l0,-0.4l-0.2,0Zm-4.2,0.9c-0.7,0.4 -1.2,0.9 -1.6,1.5c-0.4,0.6 -0.6,1.1 -0.6,1.6c0,0.8 0.3,1.6 1,2.3c0.6,0.7 1.4,1.1 2.2,1.1c0.9,0 1.7,-0.4 2.5,-1.3c-0.7,-1 -1.3,-2 -1.9,-2.8c-0.5,-1 -1.1,-1.8 -1.6,-2.4Zm1,-1.2c1.3,-0.8 1.9,-1.6 1.9,-2.5c0,-0.3 0,-0.5 -0.1,-0.7l-0.3,-0.6c-0.1,-0.2 -0.3,-0.3 -0.5,-0.4c-0.2,-0.1 -0.4,-0.1 -0.6,-0.1c-0.5,0 -0.8,0.2 -1.1,0.5c-0.3,0.3 -0.4,0.7 -0.4,1.2c-0.1,0.7 0.3,1.5 1.1,2.6Zm24.3,-4.9l0.1,3.3l-0.5,0c-0.1,-0.7 -0.3,-1.3 -0.6,-1.8c-0.3,-0.5 -0.6,-0.8 -1,-0.9c-0.3,-0.1 -0.9,-0.2 -1.7,-0.2l-2.6,0l0,5.6l1.2,0c0.8,0 1.3,-0.1 1.6,-0.4c0.3,-0.3 0.4,-0.8 0.4,-1.6l0.5,0l0,4.6l-0.4,0c0,-0.6 -0.1,-1 -0.2,-1.3c-0.1,-0.3 -0.3,-0.6 -0.5,-0.7c-0.2,-0.1 -0.7,-0.2 -1.3,-0.2l-1.2,0l0,3.3c0,1 0,1.7 0.1,2c0.1,0.3 0.2,0.6 0.4,0.7c0.2,0.1 0.6,0.2 1.2,0.2l0.4,0l0,0.4l-6.1,0l0,-0.4l0.4,0c0.6,0 1,-0.1 1.2,-0.2c0.2,-0.1 0.4,-0.4 0.4,-0.7c0.1,-0.3 0.1,-1 0.1,-2.1l0,-6.5c0,-1 0,-1.7 -0.1,-2c-0.1,-0.3 -0.2,-0.5 -0.4,-0.6c-0.2,-0.1 -0.6,-0.2 -1.3,-0.2l-0.2,0l0,-0.3l10.1,0Zm3.4,4.9l0,7.2c0,0.2 0.1,0.4 0.3,0.5c0.2,0.1 0.5,0.2 0.9,0.2l0.2,0l0,0.4l-4.3,0l0,-0.4l0.3,0c0.5,0 0.8,-0.1 0.9,-0.2c0.1,-0.1 0.2,-0.3 0.2,-0.5l0,-4.1c0,-0.9 0,-1.5 -0.1,-1.7c-0.1,-0.2 -0.2,-0.3 -0.3,-0.4c-0.1,-0.1 -0.4,-0.1 -0.8,-0.1l-0.3,0l0,-0.4c1.2,-0.1 2,-0.3 2.7,-0.5l0.3,0Zm-1.8,-4.1c0,-0.3 0.1,-0.5 0.3,-0.7c0.2,-0.2 0.4,-0.3 0.7,-0.3c0.3,0 0.5,0.1 0.7,0.3c0.2,0.2 0.3,0.4 0.3,0.7c0,0.3 -0.1,0.5 -0.3,0.7c-0.2,0.2 -0.4,0.3 -0.7,0.3c-0.3,0 -0.5,-0.1 -0.7,-0.3c-0.2,-0.2 -0.3,-0.4 -0.3,-0.7Zm6.3,4.1l0.3,0c0.1,0.4 0.2,0.9 0.3,1.6c0.5,-0.6 1,-1 1.5,-1.2c0.5,-0.3 1,-0.4 1.6,-0.4c0.6,0 1.2,0.1 1.6,0.4c0.4,0.3 0.7,0.6 0.8,1c0.1,0.4 0.2,0.9 0.2,1.7l0,4.2c0,0.2 0.1,0.4 0.3,0.5c0.2,0.1 0.5,0.2 0.9,0.2l0,0.4l-4.1,0l0,-0.4l0.2,0c0.5,0 0.8,-0.1 0.9,-0.2c0.1,-0.1 0.2,-0.3 0.2,-0.5l0,-4.2c0,-0.6 0,-1.1 -0.1,-1.3c-0.1,-0.3 -0.2,-0.5 -0.5,-0.7c-0.3,-0.2 -0.6,-0.3 -1,-0.3c-0.5,0 -0.9,0.1 -1.4,0.4c-0.4,0.3 -0.8,0.7 -1.2,1.3l0,3.2c0,0.9 0,1.5 0.1,1.7c0,0.2 0.1,0.4 0.3,0.5c0.2,0.1 0.5,0.2 1,0.2l0,0.4l-4,0l0,-0.4c0.4,0 0.8,0 0.9,-0.1c0.2,-0.1 0.3,-0.2 0.3,-0.4c0,-0.2 0.1,-0.8 0.1,-1.7l0,-2.8c0,-0.9 0,-1.5 -0.1,-1.7c0,-0.2 -0.1,-0.3 -0.3,-0.4c-0.2,-0.1 -0.5,-0.2 -1,-0.2l0,-0.4c0.8,-0.1 1.5,-0.2 2.2,-0.4Zm16.6,6.8l0.4,0c-0.1,1.1 -0.6,1.7 -1.6,1.7c-0.4,0 -0.8,-0.1 -1,-0.3c-0.2,-0.2 -0.4,-0.6 -0.5,-1c-0.6,0.5 -1.2,0.8 -1.8,1c-0.5,0.2 -1,0.3 -1.4,0.3c-0.5,0 -1,-0.2 -1.4,-0.5c-0.4,-0.3 -0.6,-0.7 -0.6,-1.2c0,-0.7 0.3,-1.3 1,-1.8c0.7,-0.5 1.6,-1 2.7,-1.5l1.5,-0.6l0,-0.4c0,-0.6 0,-0.9 -0.1,-1.2c-0.1,-0.2 -0.3,-0.5 -0.6,-0.7c-0.3,-0.2 -0.7,-0.3 -1.2,-0.3c-1,0 -1.5,0.3 -1.6,1c-0.1,0.7 -0.4,1 -0.8,1c-0.4,0 -0.6,-0.2 -0.6,-0.6c0,-0.4 0.3,-0.8 0.8,-1.2c0.5,-0.4 1.3,-0.6 2.5,-0.6c0.8,0 1.5,0.1 1.9,0.4c0.5,0.3 0.8,0.6 0.9,0.9c0.1,0.3 0.2,0.8 0.2,1.5l0,3.2c0,0.8 0,1.2 0.1,1.4c0.1,0.2 0.2,0.3 0.5,0.3c0.4,0.1 0.6,-0.2 0.7,-0.8Zm-2.8,-3.4l-1.1,0.4c-1.7,0.7 -2.5,1.5 -2.5,2.6c0,0.4 0.1,0.7 0.3,1c0.2,0.2 0.5,0.4 0.8,0.4c0.3,0 0.7,-0.1 1.1,-0.3c0.4,-0.2 0.9,-0.5 1.4,-0.9l0,-3.2Zm6.2,-3.4l0.3,0c0.1,0.4 0.2,0.9 0.3,1.6c0.5,-0.6 1,-1 1.5,-1.2c0.5,-0.3 1,-0.4 1.6,-0.4c0.6,0 1.2,0.1 1.6,0.4c0.4,0.3 0.7,0.6 0.8,1c0.1,0.4 0.2,0.9 0.2,1.7l0,4.2c0,0.2 0.1,0.4 0.3,0.5c0.2,0.1 0.5,0.2 0.9,0.2l0,0.4l-4.1,0l0,-0.4l0.2,0c0.5,0 0.8,-0.1 0.9,-0.2c0.1,-0.1 0.2,-0.3 0.2,-0.5l0,-4.2c0,-0.6 0,-1.1 -0.1,-1.3c-0.1,-0.3 -0.2,-0.5 -0.5,-0.7c-0.3,-0.2 -0.6,-0.3 -1,-0.3c-0.5,0 -0.9,0.1 -1.4,0.4c-0.4,0.3 -0.8,0.7 -1.2,1.3l0,3.2c0,0.9 0,1.5 0.1,1.7c0,0.2 0.1,0.4 0.3,0.5c0.2,0.1 0.5,0.2 1,0.2l0,0.4l-4,0l0,-0.4c0.4,0 0.8,0 0.9,-0.1c0.1,-0.1 0.3,-0.2 0.3,-0.4c0,-0.2 0.1,-0.8 0.1,-1.7l0,-2.8c0,-0.9 0,-1.5 -0.1,-1.7c0,-0.2 -0.1,-0.3 -0.3,-0.4c-0.2,-0.1 -0.5,-0.2 -1,-0.2l0,-0.4c0.7,-0.1 1.4,-0.2 2.2,-0.4Zm15.4,6.3l0.4,0c-0.4,1.5 -1.5,2.3 -3.3,2.3c-1.1,0 -2.1,-0.4 -2.9,-1.2c-0.8,-0.8 -1.2,-1.8 -1.2,-3.1c0,-1.3 0.4,-2.4 1.3,-3.2c0.8,-0.8 1.8,-1.2 3,-1.2c0.7,0 1.3,0.2 1.9,0.5c0.6,0.3 0.9,0.7 0.9,1.1c0,0.2 -0.1,0.3 -0.2,0.5c-0.1,0.1 -0.3,0.2 -0.5,0.2c-0.4,0 -0.7,-0.2 -0.8,-0.7c-0.1,-0.4 -0.2,-0.6 -0.4,-0.8c-0.2,-0.1 -0.5,-0.2 -1,-0.2c-0.9,0 -1.5,0.3 -2,0.9c-0.5,0.6 -0.7,1.5 -0.7,2.7c0,1.3 0.2,2.2 0.7,2.9c0.5,0.7 1.2,1.1 2.1,1.1c1.5,-0.1 2.4,-0.6 2.7,-1.8Zm8.9,-3.3l-5.6,0l0,0.9c0,1.4 0.2,2.5 0.7,3.2c0.4,0.7 1.1,1.1 2,1.1c1.2,0 2,-0.5 2.5,-1.6l0.5,0c-0.2,0.7 -0.6,1.2 -1.2,1.6c-0.6,0.4 -1.3,0.6 -2,0.6c-0.7,0 -1.3,-0.2 -1.9,-0.5c-0.6,-0.3 -1.1,-0.8 -1.5,-1.4c-0.4,-0.6 -0.6,-1.4 -0.6,-2.3c0,-1.3 0.4,-2.3 1.1,-3.1c0.7,-0.8 1.7,-1.2 2.8,-1.2c1,0 1.9,0.3 2.4,1c0.4,0.2 0.7,0.9 0.8,1.7Zm-1.7,-0.4l0,-0.4c0,-0.6 -0.2,-1 -0.5,-1.3c-0.3,-0.3 -0.7,-0.5 -1.2,-0.5c-1.2,0 -1.9,0.7 -2.1,2.2l3.8,0Zm12,-0.6l0,2.8c0,1 0,1.7 0.1,2c0,0.3 0.2,0.6 0.4,0.7c0.2,0.1 0.6,0.2 1.2,0.2l0.4,0l0,0.4l-6,0l0,-0.4l0.4,0c0.6,0 1,-0.1 1.2,-0.2c0.2,-0.1 0.4,-0.4 0.4,-0.7c0.1,-0.3 0.1,-1 0.1,-2.1l0,-6.5c0,-1 0,-1.7 -0.1,-2c-0.1,-0.3 -0.2,-0.5 -0.4,-0.6c-0.2,-0.1 -0.6,-0.2 -1.3,-0.2l-0.2,0l0,-0.3l1.7,-0.1c1.3,0 2.4,-0.1 3.1,-0.1c1.4,0 2.4,0.1 3.1,0.3c0.7,0.2 1.3,0.6 1.8,1.1c0.5,0.5 0.7,1.2 0.7,2.1c0,0.7 -0.2,1.4 -0.5,1.9c-0.3,0.6 -0.8,1 -1.4,1.3c-0.6,0.3 -1.7,0.4 -3.2,0.4l-1.5,0Zm0,-0.5l0.9,0c0.8,0 1.4,-0.1 1.8,-0.2c0.5,-0.2 0.9,-0.5 1.2,-1c0.3,-0.5 0.5,-1.1 0.5,-1.8c0,-1.1 -0.3,-1.9 -0.8,-2.4c-0.5,-0.5 -1.4,-0.8 -2.6,-0.8l-1,0l0,6.2Zm9.6,-6.6l0,12.2c0,0.2 0.1,0.4 0.3,0.5c0.2,0.1 0.5,0.2 0.9,0.2l0.2,0l0,0.4l-4.3,0l0,-0.4l0.3,0c0.4,0 0.7,-0.1 0.8,-0.2c0.2,-0.1 0.3,-0.3 0.3,-0.5l0,-9.6c0,-0.8 -0.1,-1.4 -0.2,-1.6c-0.1,-0.2 -0.5,-0.3 -1.1,-0.3l0,-0.4c0.4,0 0.9,0 1.4,-0.1c0.5,-0.1 0.9,-0.2 1.1,-0.3l0.3,0.1Zm9.4,11.4l0.4,0c-0.4,1.5 -1.5,2.3 -3.3,2.3c-1.1,0 -2.1,-0.4 -2.9,-1.2c-0.8,-0.8 -1.2,-1.8 -1.2,-3.1c0,-1.3 0.4,-2.4 1.3,-3.2c0.8,-0.8 1.8,-1.2 3,-1.2c0.7,0 1.3,0.2 1.9,0.5c0.6,0.3 0.9,0.7 0.9,1.1c0,0.2 -0.1,0.3 -0.2,0.5c-0.1,0.2 -0.3,0.2 -0.5,0.2c-0.4,0 -0.7,-0.2 -0.8,-0.7c-0.1,-0.4 -0.2,-0.6 -0.4,-0.8c-0.2,-0.1 -0.5,-0.2 -1,-0.2c-0.9,0 -1.5,0.3 -2,0.9c-0.4,0.6 -0.7,1.5 -0.7,2.7c0,1.3 0.2,2.2 0.7,2.9c0.5,0.7 1.2,1.1 2.1,1.1c1.5,-0.1 2.3,-0.6 2.7,-1.8Z" style="fill:rgb(65,64,66);fill-rule:nonzero;"/>        <rect x="0" y="0" width="95.6" height="88" style="fill:rgb(247,80,94);"/>        <path d="M61,59l-0.3,-11l-0.9,0c-0.1,1.3 -0.5,2.6 -1.1,3.8c-0.9,-1.1 -2.2,-2.1 -4,-3c-1.8,-0.9 -3.7,-1.3 -5.9,-1.3c-2.6,0 -5,0.6 -7.2,1.8c-2.2,1.2 -3.9,3.1 -5.1,5.6c-1.2,2.5 -1.8,5.2 -1.8,8.1c0,4.3 1.3,7.8 4,10.5c2.7,2.7 6.1,4 10.3,4c4,0 7.2,-1.4 9.8,-4.3c0.7,0.9 1.1,1.9 1.4,3.1l0.9,0l0,-10.2l-0.9,0c-0.2,1.6 -0.8,3.4 -1.7,5.2c-1,1.8 -2.3,3 -3.9,3.8c-1.6,0.7 -3.2,1.1 -4.8,1.1c-2.9,0 -5.3,-1.2 -7.3,-3.5c-1.921,-2.37 -2.901,-5.645 -3,-9.9c0,-4.6 0.9,-8.1 2.7,-10.6c1.8,-2.5 4.3,-3.7 7.3,-3.7c2.5,0 4.7,0.8 6.7,2.3c1.9,1.6 3.3,4.3 3.9,8.2l0.9,0Z" style="fill:white;"/>        <path d="M21.6,48.8l0,-1l-14,0l0,1l0.6,0c1.5,0 2.5,0.1 2.9,0.4c0.5,0.3 0.8,0.7 0.9,1.4c0.1,0.7 0.2,2.2 0.2,4.5l0,14.2c0,2.4 -0.1,3.9 -0.2,4.6c-0.1,0.7 -0.4,1.2 -0.9,1.5c-0.5,0.3 -1.4,0.5 -2.6,0.5l-0.9,0l0,1l24.7,0l0.3,-8.7l-1,0c-0.6,2.3 -1.3,3.9 -2.1,5c-0.8,1.1 -1.6,1.8 -2.5,2.1c-0.9,0.3 -2.2,0.5 -4,0.5l-2.2,0c-1.7,0 -2.8,-0.1 -3.3,-0.4c-0.5,-0.3 -0.8,-0.7 -0.9,-1.2c-0.1,-0.5 -0.2,-1.8 -0.2,-3.9l0,-15.2c0,-2.4 0.1,-4 0.2,-4.6c0.2,-0.6 0.5,-1.1 0.9,-1.3c0.392,-0.294 1.363,-0.396 2.8,-0.4l1.3,0Z" style="fill:white;"/>        <path d="M87,55.1l0.9,-0.1l-0.2,-7.2l-22.4,0l0,1l0.5,0c1.5,0 2.5,0.1 2.9,0.4c0.5,0.3 0.8,0.7 0.9,1.4c0.1,0.7 0.2,2.2 0.2,4.5l0,14.2c0,2.4 -0.1,3.9 -0.2,4.6c-0.1,0.7 -0.4,1.2 -0.9,1.5c-0.5,0.3 -1.4,0.5 -2.6,0.5l-0.9,0l0,1l13.6,0l0,-1l-1,0c-1.345,-0.01 -2.213,-0.208 -2.7,-0.5c-0.5,-0.4 -0.8,-0.9 -0.9,-1.6c-0.1,-0.7 -0.2,-2.2 -0.2,-4.5l0,-7.2l2.7,0c1.437,0.004 2.409,0.106 2.9,0.4c0.5,0.3 0.8,0.8 1.1,1.5c0.3,0.7 0.4,1.7 0.4,2.9l1.1,0l0,-10.2l-1.1,0c0,1.8 -0.3,3 -0.9,3.6c-0.6,0.6 -1.7,0.9 -3.5,0.9l-2.7,0l0,-12.3l5.7,0c1.845,0.004 3.015,0.106 3.8,0.4c0.8,0.2 1.5,0.9 2.2,1.9c0.7,1 1.1,2.3 1.3,3.9Z" style="fill:white;"/>    </g></svg>