<?xml version="1.0" encoding="UTF-8" standalone="no"?><!DOCTYPE svg PUBLIC "-//W3C//DTD SVG 1.1//EN" "http://www.w3.org/Graphics/SVG/1.1/DTD/svg11.dtd"><svg width="100%" height="100%" viewBox="0 0 1024 512" version="1.1" xmlns="http://www.w3.org/2000/svg" xmlns:xlink="http://www.w3.org/1999/xlink" xml:space="preserve" style="fill-rule:evenodd;clip-rule:evenodd;stroke-linejoin:round;stroke-miterlimit:2;"><title>Colectual</title><desc>We put private investors in contact with productive companies seeking financing and establish transparent and balanced relationships between them. We allocate part of our profit to actions of a social nature.</desc>    <g transform="matrix(1.62737,0,0,1.62737,-227.658,-106.789)">        <g transform="matrix(5.55556,0,0,5.55556,243.486,196.161)">            <path d="M0,9.637c-2.662,0 -4.819,-2.157 -4.819,-4.818c0,-2.662 2.157,-4.82 4.819,-4.82c2.661,0 4.819,2.158 4.819,4.82c0,2.661 -2.158,4.818 -4.819,4.818m0,-10.771c-3.288,0 -5.953,2.665 -5.953,5.953c0,3.287 2.665,5.952 5.953,5.952c3.287,0 5.952,-2.665 5.952,-5.952c0,-3.288 -2.665,-5.953 -5.952,-5.953" style="fill:rgb(60,60,60);fill-rule:nonzero;"/>        </g>        <g transform="matrix(5.55556,0,0,5.55556,397.821,248.125)">            <path d="M0,-9.071c0.313,0 0.566,-0.253 0.566,-0.566c0,-0.314 -0.253,-0.568 -0.566,-0.568l-6.804,0l-1.133,0l0,11.339l7.937,0c0.313,0 0.566,-0.253 0.566,-0.567c0,-0.313 -0.253,-0.567 -0.566,-0.567l-6.804,0l0,-3.968l5.103,0c0.313,0 0.567,-0.254 0.567,-0.567c0,-0.314 -0.254,-0.567 -0.567,-0.567l-5.103,0l0,-3.969l6.804,0Z" style="fill:rgb(60,60,60);fill-rule:nonzero;"/>        </g>        <g transform="matrix(5.55556,0,0,5.55556,337.976,197.729)">            <path d="M0,9.071l-7.371,0l0,-9.636l0,-0.001c0,-0.314 -0.254,-0.568 -0.566,-0.568c-0.313,0 -0.567,0.254 -0.567,0.568l0,10.771l8.504,0c0.312,0 0.566,-0.253 0.566,-0.567c0,-0.313 -0.254,-0.567 -0.566,-0.567" style="fill:rgb(60,60,60);fill-rule:nonzero;"/>        </g>        <g transform="matrix(5.55556,0,0,5.55556,593.089,255.999)">            <path d="M0,-11.622c-0.313,0 -0.566,0.254 -0.566,0.567l0,6.52l-0.002,0c0,1.879 -1.522,3.401 -3.4,3.401c-1.88,0 -3.403,-1.522 -3.403,-3.401l0.001,0l0,-6.52c0,-0.313 -0.254,-0.567 -0.567,-0.567c-0.313,0 -0.566,0.254 -0.566,0.567l0,6.52c0,2.504 2.03,4.535 4.535,4.535c2.504,0 4.534,-2.031 4.534,-4.535l0.001,0l0,-6.52c0,-0.313 -0.254,-0.567 -0.567,-0.567" style="fill:rgb(60,60,60);fill-rule:nonzero;"/>        </g>        <g transform="matrix(5.55556,0,0,5.55556,730.101,197.729)">            <path d="M0,9.071l-7.371,0l0,-9.634l0,-0.003c0,-0.314 -0.253,-0.568 -0.566,-0.568c-0.313,0 -0.567,0.254 -0.567,0.568l0,10.771l8.504,0c0.313,0 0.566,-0.253 0.566,-0.567c0,-0.313 -0.253,-0.567 -0.566,-0.567" style="fill:rgb(60,60,60);fill-rule:nonzero;"/>        </g>        <g transform="matrix(5.55556,0,0,5.55556,528.525,254.421)">            <path d="M0,-11.338l-3.402,0l-1.134,0l-3.402,0c-0.312,0 -0.566,0.254 -0.566,0.567c0,0.313 0.254,0.567 0.566,0.567l3.402,0l0,9.637c0,0.314 0.254,0.567 0.568,0.567c0.312,0 0.566,-0.253 0.566,-0.567l0,-9.637l3.402,0c0.313,0 0.567,-0.254 0.567,-0.567c0,-0.313 -0.254,-0.567 -0.567,-0.567" style="fill:rgb(60,60,60);fill-rule:nonzero;"/>        </g>        <g transform="matrix(5.55556,0,0,5.55556,463.991,241.858)">            <path d="M0,-6.815c0.221,0.222 0.58,0.222 0.801,0c0.222,-0.221 0.222,-0.58 0,-0.802l-0.001,-0.001c-2.325,-2.323 -6.093,-2.322 -8.417,0.002c-2.325,2.324 -2.325,6.093 0,8.418c2.324,2.324 6.093,2.324 8.417,0.001l0.001,-0.001c0.222,-0.221 0.222,-0.58 0,-0.802c-0.221,-0.221 -0.58,-0.221 -0.801,0l0,0.001c-1.882,1.881 -4.934,1.881 -6.815,-0.001c-1.882,-1.881 -1.882,-4.933 0,-6.815c1.881,-1.882 4.933,-1.882 6.815,0" style="fill:rgb(60,60,60);fill-rule:nonzero;"/>        </g>        <g transform="matrix(5.55556,0,0,5.55556,184.216,232.956)">            <path d="M0,-3.609c0.664,0.664 1.74,0.665 2.405,0c0.664,-0.664 0.664,-1.741 0,-2.405l-0.003,-0.003c-2.325,-2.321 -6.092,-2.321 -8.416,0.003c-2.324,2.324 -2.324,6.094 0,8.419c2.325,2.323 6.093,2.324 8.418,0c0.222,-0.222 0.222,-0.581 0,-0.803c-0.221,-0.221 -0.58,-0.222 -0.801,0l0,0.001c-1.882,1.881 -4.933,1.881 -6.814,0c-1.883,-1.882 -1.883,-4.934 0,-6.816c1.463,-1.464 3.637,-1.788 5.415,-0.973l-0.204,0.172c-0.665,0.664 -0.665,1.741 0,2.405" style="fill:rgb(60,60,60);fill-rule:nonzero;"/>        </g>        <g transform="matrix(5.55556,0,0,5.55556,624.866,215.075)">            <path d="M0,2.548l2.217,-4.536l2.218,4.536l-4.435,0Zm2.217,-7.087l-5.307,10.831l-0.048,0.228c0,0.312 0.252,0.567 0.567,0.567c0.23,0 0.43,-0.14 0.517,-0.339l1.5,-3.067l5.543,0l1.493,3.054c0.085,0.206 0.288,0.352 0.525,0.352c0.312,0 0.567,-0.255 0.567,-0.567l-0.048,-0.228l-5.309,-10.831Z" style="fill:rgb(60,60,60);fill-rule:nonzero;"/>        </g>        <g transform="matrix(5.55556,0,0,5.55556,758.448,196.786)">            <path d="M0,3.402c0.939,0 1.701,-0.762 1.701,-1.701c0,-0.94 -0.762,-1.701 -1.701,-1.701c-0.939,0 -1.701,0.761 -1.701,1.701c0,0.939 0.762,1.701 1.701,1.701" style="fill:rgb(60,60,60);fill-rule:nonzero;"/>        </g>        <g transform="matrix(-5.55556,0,0,5.55556,758.448,249.072)">            <path d="M0,-3.402c0.939,0 1.701,0.761 1.701,1.701c0,0.94 -0.762,1.701 -1.701,1.701c-0.939,0 -1.701,-0.761 -1.701,-1.701c0,-0.94 0.762,-1.701 1.701,-1.701" style="fill:rgb(60,60,60);fill-rule:nonzero;"/>        </g>    </g></svg>