<?xml version="1.0" encoding="UTF-8" standalone="no"?><!DOCTYPE svg PUBLIC "-//W3C//DTD SVG 1.1//EN" "http://www.w3.org/Graphics/SVG/1.1/DTD/svg11.dtd"><svg width="100%" height="100%" viewBox="0 0 1024 512" version="1.1" xmlns="http://www.w3.org/2000/svg" xmlns:xlink="http://www.w3.org/1999/xlink" xml:space="preserve" style="fill-rule:evenodd;clip-rule:evenodd;stroke-linejoin:round;stroke-miterlimit:2;"><title>Privanet</title><desc></desc>    <g transform="matrix(6.55911,0,0,6.55911,1022,288.356)">        <path d="M0,-9.866l0,-3.368l-13.756,-0l0,3.368l5.052,-0l0,13.234l3.652,-0l0,-13.234l5.052,-0Zm-33.203,13.234l12.641,-0l0,-3.249l-9.012,-0l0,-3.487l7.826,-0l0,-3.249l-7.826,-0l0,-3.368l8.893,-0l0,-3.249l-12.522,-0l0,16.602Zm-11.834,-0l3.106,-0l0,-16.602l-3.604,-0l0,10.222l-7.779,-10.222l-3.368,-0l0,16.602l3.605,-0l0,-10.554l8.04,10.554Zm-23.361,-0l3.937,-0l-6.712,-16.72l-3.225,-0l-0.078,0.193l2.863,7.866l3.215,8.661Zm-4.704,-10.712l-1.763,-4.845l-6.245,15.557l4.032,-0l3.976,-10.712Zm-18.704,10.83l6.711,-16.72l-3.937,-0l-4.34,11.692l-4.34,-11.692l-4.032,-0l6.712,16.72l3.226,-0Zm-21.061,-0.118l3.652,-0l0,-16.602l-3.652,-0l0,16.602Zm-7.707,-0l-4.056,-5.929c2.111,-0.783 3.558,-2.467 3.558,-5.147l0,-0.047c0,-1.566 -0.498,-2.87 -1.423,-3.795c-1.091,-1.091 -2.728,-1.684 -4.838,-1.684l-7.59,-0l0,16.602l3.653,-0l0,-5.313l2.869,-0l3.558,5.313l4.269,-0Zm-4.198,-10.886c0,1.399 -1.02,2.348 -2.799,2.348l-3.699,-0l0,-4.767l3.628,-0c1.779,-0 2.87,0.806 2.87,2.372l0,0.047Zm-17.598,0.071l0,-0.047c0,-3.392 -2.395,-5.74 -6.356,-5.74l-6.783,-0l0,16.602l3.653,-0l-0,-4.981l2.775,-0c3.723,-0 6.711,-1.992 6.711,-5.834m-3.7,0.071c-0,1.423 -1.067,2.514 -2.893,2.514l-2.893,-0l-0,-5.075l2.822,-0c1.826,-0 2.964,0.877 2.964,2.514l-0,0.047Z" style="fill:rgb(0,40,56);fill-rule:nonzero;"/>    </g></svg>