<?xml version="1.0" encoding="UTF-8" standalone="no"?><!DOCTYPE svg PUBLIC "-//W3C//DTD SVG 1.1//EN" "http://www.w3.org/Graphics/SVG/1.1/DTD/svg11.dtd"><svg width="100%" height="100%" viewBox="0 0 1024 512" version="1.1" xmlns="http://www.w3.org/2000/svg" xmlns:xlink="http://www.w3.org/1999/xlink" xml:space="preserve" style="fill-rule:evenodd;clip-rule:evenodd;stroke-linejoin:round;stroke-miterlimit:2;"><title>bettervest</title><desc>bettervest is an online investment platform for sustainable investments.Invest comfortably in effective projects that benefit people and the planet.Financing mitigation projects in South America and Africa</desc>    <g transform="matrix(2.58832,0,0,2.58832,-417.791,-229.16)">        <g transform="matrix(1.29359,0,0,1.29129,174.84,201.022)">            <path d="M17.798,63.705c-1.185,1.185 -3.556,2.074 -6.222,2.074c-2.963,0 -5.334,-0.593 -7.408,-3.259l0,2.963l-3.852,0l0,-34.074l3.852,0l0,11.259c2.074,-2.963 4.445,-3.556 7.408,-3.556c2.666,0 5.037,0.889 6.222,2.371c2.667,2.666 3.259,7.111 3.259,10.963c0,4.148 -0.592,8.592 -3.259,11.259Zm-7.111,-21.037c-5.63,0 -6.519,4.741 -6.519,9.778c0,5.333 0.889,10.074 6.519,10.074c5.629,0 6.518,-4.741 6.518,-10.074c0,-5.037 -0.889,-9.778 -6.518,-9.778Z" style="fill:rgb(62,61,64);fill-rule:nonzero;"/>        </g>        <g transform="matrix(1.29359,0,0,1.29129,174.84,210.969)">            <path d="M37.946,45.928c0,5.629 2.667,8.889 7.704,8.889c2.963,0 4.741,-0.889 6.815,-2.963l2.666,2.37c-2.666,2.667 -5.037,3.852 -9.481,3.852c-7.111,0 -11.556,-4.148 -11.556,-13.333c0,-8.297 4.148,-13.334 10.667,-13.334c6.815,0 10.667,5.037 10.667,12.741l0,1.778l-17.482,0Zm13.037,-7.408c-1.185,-2.37 -3.259,-3.851 -6.222,-3.851c-2.667,0 -5.037,1.481 -5.926,3.851c-0.593,1.482 -0.889,2.371 -0.889,4.445l13.63,0c0,-2.074 0,-2.963 -0.593,-4.445Z" style="fill:rgb(62,61,64);fill-rule:nonzero;"/>        </g>        <g transform="matrix(1.29359,0,0,1.29129,174.84,200.64)">            <path d="M77.354,65.779c-4.445,0 -6.815,-2.963 -6.815,-6.815l0,-16l-3.26,0l0,-2.963l3.26,0l0,-8.296l3.852,0l0,8.296l5.629,0l0,2.963l-5.629,0l0,15.704c0,2.37 1.185,3.851 3.555,3.851l2.074,0l0,3.26l-2.666,0Z" style="fill:rgb(62,61,64);fill-rule:nonzero;"/>        </g>        <g transform="matrix(1.29359,0,0,1.29129,174.84,200.64)">            <path d="M101.35,65.779c-4.441,0 -6.811,-2.963 -6.811,-6.815l0,-16l-3.26,0l0,-2.963l3.26,0l0,-8.296l3.852,0l0,8.296l5.629,0l0,2.963l-5.629,0l0,15.704c0,2.37 1.185,3.851 3.559,3.851l2.07,0l0,3.26l-2.67,0Z" style="fill:rgb(62,61,64);fill-rule:nonzero;"/>        </g>        <g transform="matrix(1.29359,0,0,1.29129,174.84,210.969)">            <path d="M119.72,45.928c0,5.629 2.97,8.889 7.71,8.889c3.26,0 4.74,-0.889 6.81,-2.963l2.67,2.37c-2.67,2.667 -5.04,3.852 -9.48,3.852c-6.82,0 -11.26,-4.148 -11.26,-13.333c0,-8.297 3.85,-13.334 10.66,-13.334c6.52,0 10.67,5.037 10.67,12.741l0,1.778l-17.78,0Zm13.04,-7.408c-0.89,-2.37 -3.26,-3.851 -5.93,-3.851c-2.96,0 -5.03,1.481 -6.22,3.851c-0.59,1.482 -0.59,2.371 -0.89,4.445l13.93,0c0,-2.074 -0.3,-2.963 -0.89,-4.445Z" style="fill:rgb(62,61,64);fill-rule:nonzero;"/>        </g>        <g transform="matrix(1.29359,0,0,1.29129,174.84,210.587)">            <path d="M166.54,37.039c-1.48,-1.482 -2.67,-1.778 -4.45,-1.778c-3.85,0 -6.51,2.963 -6.51,6.815l0,16l-3.56,0l0,-26.074l3.56,0l0,3.259c1.48,-2.074 4.44,-3.556 7.4,-3.556c2.67,0 4.45,0.593 6.23,2.371l-2.67,2.963Z" style="fill:rgb(62,61,64);fill-rule:nonzero;"/>        </g>        <g transform="matrix(1.29359,0,0,1.29129,174.84,211.735)">            <path d="M185.8,57.187l-9.19,-25.482l2.97,0l7.7,22.519l7.7,-22.519l2.97,0l-9.49,25.482l-2.66,0Z" style="fill:rgb(100,101,103);fill-rule:nonzero;"/>        </g>        <g transform="matrix(1.29359,0,0,1.29129,174.84,211.735)">            <path d="M218.98,55.113c3.26,0 5.04,-0.889 7.11,-2.963l2.08,1.481c-2.67,2.667 -5.04,3.852 -9.19,3.852c-7.11,0 -10.96,-4.445 -10.96,-13.037c0,-8.296 3.85,-13.037 10.37,-13.037c6.22,0 10.07,4.741 10.07,12.444l0,1.185l-17.77,0c0,6.519 2.96,10.075 8.29,10.075Zm5.93,-16.889c-1.19,-2.963 -3.56,-4.445 -6.52,-4.445c-2.96,0 -5.63,1.482 -6.81,4.445c-0.6,1.481 -0.6,2.074 -0.89,4.74l15.11,0c0,-2.37 -0.3,-3.259 -0.89,-4.74Z" style="fill:rgb(100,101,103);fill-rule:nonzero;"/>        </g>        <g transform="matrix(1.29359,0,0,1.29129,174.84,211.735)">            <path d="M251.58,57.483c-4.45,0 -7.71,-1.185 -10.37,-3.556l1.77,-1.777c2.08,2.074 4.74,2.963 8.3,2.963c5.04,0 7.7,-1.778 7.7,-5.037c0,-2.667 -1.48,-3.852 -4.74,-4.445l-4.44,-0.296c-5.04,-0.297 -7.41,-2.667 -7.41,-6.519c0,-4.444 3.56,-7.407 8.89,-7.407c3.55,0 6.81,0.889 9.18,2.667l-1.77,1.777c-2.08,-1.481 -4.45,-2.074 -7.41,-2.074c-4.15,0 -6.52,1.778 -6.52,5.037c0,2.667 1.78,3.852 5.33,4.148l4.15,0.297c4.15,0.592 7.41,1.777 7.41,6.815c0,4.74 -3.85,7.407 -10.07,7.407Z" style="fill:rgb(100,101,103);fill-rule:nonzero;"/>        </g>        <g transform="matrix(1.29359,0,0,1.29129,174.84,201.404)">            <path d="M276.17,58.668l0,-16.889l-3.26,0l0,-2.074l3.26,0l0,-8l2.66,0l0,8l5.93,0l0,2.074l-5.93,0l0,16.889c0,2.667 1.49,4.148 4.15,4.148l1.78,0l0,2.371l-2.37,0c-4.15,0 -6.22,-2.667 -6.22,-6.519Z" style="fill:rgb(100,101,103);fill-rule:nonzero;"/>        </g>        <g transform="matrix(1.29359,0,0,1.29129,174.84,-22.0353)">            <path d="M157.65,101.038l-5.63,0l0,-12.44c0,-1.49 -1.19,-2.67 -2.67,-2.67c-1.48,0 -2.66,1.18 -2.66,2.67l0,12.44l-14.23,0l0,-12.44c0,-1.49 -1.18,-2.67 -2.66,-2.67c-1.48,0 -2.67,1.18 -2.67,2.67l0,12.44l-5.92,0c-2.38,0 -4.45,2.07 -4.45,4.74c0,2.37 2.07,4.44 4.45,4.44l0.59,0c-0.3,3.56 -0.59,11.86 0.59,16l0.3,0.3c1.77,3.56 3.55,4.15 5.03,4.74c0.89,0.3 1.19,0.3 1.49,1.78c0,2.96 0.29,7.7 5.92,9.18l0,6.82l2.08,0c-0.3,3.26 -1.78,22.814 0.59,34.962c1.18,0 4.15,-0.296 5.33,0c-3.85,-17.482 -1.78,-32.292 -1.48,-34.962l1.78,0l0,-6.82c5.33,-1.18 6.22,-5.33 6.52,-9.18c0.29,-1.48 0.59,-1.48 1.48,-1.78c1.18,-0.59 3.26,-1.18 5.03,-4.74l0,-0.3c1.19,-4.14 0.89,-12.44 0.89,-16l0.3,0c2.67,0 4.74,-2.07 4.74,-4.44c0,-2.67 -2.07,-4.74 -4.74,-4.74Zm-4.74,24c-0.89,2.07 -1.78,2.37 -2.67,2.67c-1.78,0.59 -3.26,1.48 -3.85,4.74c-0.3,0 -0.3,0.29 -0.3,0.29c0,3.86 -0.59,6.23 -6.51,6.23l-0.3,0c-5.93,0 -6.22,-2.37 -6.52,-6.23l0,-0.29c-0.89,-3.26 -2.37,-4.15 -3.85,-4.74c-0.89,-0.3 -1.78,-0.6 -2.96,-2.67c-0.89,-3.26 -0.89,-10.96 -0.6,-14.82l28.15,0c0.3,3.86 0.59,11.56 -0.59,14.82Z" style="fill:rgb(62,61,64);"/>        </g>        <g transform="matrix(1.29359,0,0,1.29129,174.84,-60.2988)">            <path d="M139.58,152.3c1.18,0 2.37,-1.19 2.37,-2.67c0,-1.48 -1.19,-2.37 -2.37,-2.37c-1.49,0 -2.67,0.89 -2.67,2.37c0,1.48 1.18,2.67 2.67,2.67Z" style="fill:rgb(62,61,64);"/>        </g>        <g transform="matrix(1.29359,0,0,1.29129,174.84,48.3568)">            <path d="M106.69,93.335c0.29,27.264 24.89,28.745 24.89,28.745c0,0 -1.49,-7.405 0,-21.625c-3.86,-5.34 -8,-5.93 -12.45,-5.93l-3.55,0c-2.67,0 -5.63,-0.3 -8.89,-1.19" style="fill:rgb(156,195,70);fill-rule:nonzero;"/>        </g>        <g transform="matrix(1.29359,0,0,1.29129,174.84,25.4093)">            <path d="M182.83,86.816c-6.22,7.41 -43.55,3.55 -35.55,59.554c46.81,-10.963 36.44,-53.634 35.55,-59.554" style="fill:rgb(156,195,70);fill-rule:nonzero;"/>        </g>    </g></svg>