<?xml version="1.0" encoding="UTF-8" standalone="no"?><!DOCTYPE svg PUBLIC "-//W3C//DTD SVG 1.1//EN" "http://www.w3.org/Graphics/SVG/1.1/DTD/svg11.dtd"><svg width="100%" height="100%" viewBox="0 0 1024 512" version="1.1" xmlns="http://www.w3.org/2000/svg" xmlns:xlink="http://www.w3.org/1999/xlink" xml:space="preserve" style="fill-rule:evenodd;clip-rule:evenodd;stroke-linejoin:round;stroke-miterlimit:2;"><title>iCrowdhouse</title><desc>ICrowdHouse is a participatory financing platform based on Investment Crowdfunding (CROWDEQUITY). We connect from small investors to professionals who want to invest in projects with high potential, with promoters seeking financing, all transparently and through our technology platform.</desc>    <g transform="matrix(1.94419,0,0,1.94419,-10.2484,175.316)">        <g>            <path d="M113.1,18.9c-0.5,-0.4 -0.7,-1 -0.7,-1.6c0,-0.6 0.2,-1.2 0.7,-1.6c0.4,-0.4 1,-0.7 1.6,-0.7c0.6,0 1.1,0.2 1.6,0.7c0.5,0.4 0.7,1 0.7,1.6c0,0.6 -0.2,1.1 -0.7,1.6c-0.5,0.5 -1,0.7 -1.6,0.7c-0.6,-0.1 -1.2,-0.3 -1.6,-0.7Zm0.5,10l2.3,0l0,35.8l-2.3,0l0,-35.8Z" style="fill:rgb(1,68,129);fill-rule:nonzero;"/>            <path d="M133.7,62.7c-2.7,-1.5 -4.8,-3.7 -6.4,-6.5c-1.5,-2.8 -2.3,-5.9 -2.3,-9.4c0,-3.5 0.8,-6.6 2.3,-9.4c1.5,-2.8 3.7,-4.9 6.4,-6.5c2.7,-1.5 5.7,-2.3 9.1,-2.3c2.7,0 5.2,0.5 7.6,1.6c2.3,1 4.2,2.6 5.7,4.6l-1.7,1.4c-1.3,-1.8 -2.9,-3.2 -4.9,-4.1c-2,-0.9 -4.2,-1.4 -6.6,-1.4c-2.9,0 -5.6,0.7 -8,2c-2.4,1.4 -4.2,3.2 -5.6,5.7c-1.3,2.4 -2,5.2 -2,8.3c0,3.1 0.7,5.9 2,8.4c1.3,2.4 3.2,4.3 5.6,5.7c2.4,1.4 5,2 8,2c2.4,0 4.6,-0.5 6.6,-1.4c2,-0.9 3.6,-2.3 4.9,-4.1l1.7,1.4c-1.5,2 -3.4,3.6 -5.7,4.6c-2.3,1 -4.8,1.6 -7.6,1.6c-3.4,0.1 -6.4,-0.7 -9.1,-2.2Z" style="fill:rgb(1,68,129);fill-rule:nonzero;"/>            <path d="M172.3,31c2.4,-1.5 5.3,-2.3 8.8,-2.3l0,2.3l-0.6,0c-4.1,0 -7.4,1.3 -9.7,3.9c-2.3,2.6 -3.5,6.2 -3.5,10.8l0,19.1l-2.3,0l0,-35.9l2.2,0l0,8.6c1,-2.8 2.7,-5 5.1,-6.5Z" style="fill:rgb(1,68,129);fill-rule:nonzero;"/>            <path d="M193.2,62.7c-2.7,-1.5 -4.8,-3.7 -6.3,-6.5c-1.5,-2.8 -2.3,-5.9 -2.3,-9.4c0,-3.5 0.8,-6.6 2.3,-9.4c1.5,-2.8 3.6,-4.9 6.3,-6.5c2.7,-1.5 5.7,-2.3 9,-2.3c3.4,0 6.4,0.8 9,2.3c2.7,1.5 4.8,3.7 6.3,6.5c1.5,2.8 2.3,5.9 2.3,9.4c0,3.5 -0.8,6.6 -2.3,9.4c-1.5,2.8 -3.6,4.9 -6.3,6.5c-2.7,1.5 -5.7,2.3 -9,2.3c-3.3,0 -6.3,-0.8 -9,-2.3Zm16.9,-1.8c2.3,-1.4 4.2,-3.3 5.5,-5.7c1.3,-2.4 2,-5.2 2,-8.4c0,-3.1 -0.7,-5.9 -2,-8.3c-1.3,-2.4 -3.2,-4.3 -5.5,-5.7c-2.3,-1.4 -4.9,-2 -7.8,-2c-2.9,0 -5.5,0.7 -7.8,2c-2.3,1.4 -4.2,3.2 -5.5,5.7c-1.3,2.4 -2,5.2 -2,8.3c0,3.1 0.7,5.9 2,8.4c1.3,2.4 3.2,4.3 5.5,5.7c2.3,1.4 4.9,2 7.8,2c2.8,0 5.4,-0.7 7.8,-2Z" style="fill:rgb(1,68,129);fill-rule:nonzero;"/>            <path d="M278.1,28.9l-13.7,35.8l-2.1,0l-12.7,-32.7l-12.8,32.8l-2,0l-13.7,-35.8l2.2,0l12.5,33.2l12.8,-33.2l2.1,0l12.7,33.2l12.6,-33.2l2.1,0l0,-0.1Z" style="fill:rgb(1,68,129);fill-rule:nonzero;"/>            <path d="M314.6,13.5l0,51.2l-2.2,0l0,-9.7c-1.3,3.1 -3.4,5.6 -6.1,7.4c-2.7,1.8 -5.9,2.7 -9.4,2.7c-3.3,0 -6.2,-0.8 -8.9,-2.3c-2.7,-1.5 -4.8,-3.7 -6.3,-6.5c-1.5,-2.8 -2.3,-5.9 -2.3,-9.4c0,-3.5 0.8,-6.6 2.3,-9.4c1.5,-2.8 3.6,-4.9 6.3,-6.5c2.7,-1.5 5.6,-2.3 8.9,-2.3c3.5,0 6.5,0.9 9.3,2.6c2.7,1.8 4.8,4.2 6.1,7.3l0,-25l2.3,0l0,-0.1Zm-9.8,47.4c2.3,-1.4 4.2,-3.3 5.5,-5.7c1.3,-2.4 2,-5.2 2,-8.4c0,-3.1 -0.7,-5.9 -2,-8.3c-1.3,-2.4 -3.2,-4.3 -5.5,-5.7c-2.3,-1.4 -4.9,-2 -7.8,-2c-2.9,0 -5.5,0.7 -7.8,2c-2.3,1.4 -4.2,3.2 -5.5,5.7c-1.3,2.4 -2,5.2 -2,8.3c0,3.1 0.7,5.9 2,8.4c1.3,2.4 3.2,4.3 5.5,5.7c2.3,1.4 4.9,2 7.8,2c2.9,0 5.5,-0.7 7.8,-2Z" style="fill:rgb(1,68,129);fill-rule:nonzero;"/>            <path d="M358.9,31.2c2.8,2.8 4.2,6.9 4.2,12.3l0,21.3l-10.8,0l0,-19.6c0,-2.9 -0.6,-5.1 -1.9,-6.6c-1.3,-1.5 -3.2,-2.2 -5.6,-2.2c-2.7,0 -4.9,0.8 -6.5,2.5c-1.6,1.7 -2.4,4.2 -2.4,7.5l0,18.4l-10.8,0l0,-51.3l10.8,0l0,18c1.4,-1.4 3.2,-2.5 5.2,-3.3c2,-0.8 4.2,-1.1 6.6,-1.1c4.6,0 8.4,1.3 11.2,4.1Z" style="fill:rgb(1,68,129);fill-rule:nonzero;"/>            <path d="M378.4,62.9c-3.1,-1.6 -5.5,-3.9 -7.3,-6.8c-1.7,-2.9 -2.6,-6.2 -2.6,-9.9c0,-3.7 0.9,-7 2.6,-9.9c1.7,-2.9 4.2,-5.2 7.3,-6.8c3.1,-1.6 6.6,-2.5 10.5,-2.5c3.9,0 7.4,0.8 10.5,2.5c3.1,1.6 5.5,3.9 7.2,6.8c1.7,2.9 2.6,6.2 2.6,9.9c0,3.7 -0.9,7 -2.6,9.9c-1.7,2.9 -4.2,5.2 -7.2,6.8c-3.1,1.6 -6.6,2.5 -10.5,2.5c-3.9,0 -7.4,-0.9 -10.5,-2.5Zm17.3,-9.2c1.8,-1.9 2.7,-4.4 2.7,-7.5c0,-3.1 -0.9,-5.6 -2.7,-7.5c-1.8,-1.9 -4,-2.8 -6.8,-2.8c-2.8,0 -5,0.9 -6.8,2.8c-1.8,1.9 -2.7,4.4 -2.7,7.5c0,3.1 0.9,5.6 2.7,7.5c1.8,1.9 4.1,2.8 6.8,2.8c2.8,0 5,-1 6.8,-2.8Z" style="fill:rgb(1,68,129);fill-rule:nonzero;"/>            <path d="M451.8,27.6l0,37.2l-10.2,0l0,-4.4c-1.4,1.6 -3.1,2.8 -5.1,3.7c-2,0.9 -4.1,1.3 -6.4,1.3c-4.9,0 -8.7,-1.4 -11.6,-4.2c-2.9,-2.8 -4.3,-7 -4.3,-12.5l0,-21l10.8,0l0,19.3c0,6 2.5,9 7.5,9c2.6,0 4.7,-0.8 6.2,-2.5c1.6,-1.7 2.3,-4.2 2.3,-7.5l0,-18.4l10.8,0Z" style="fill:rgb(1,68,129);fill-rule:nonzero;"/>            <path d="M463.2,64.2c-2.9,-0.8 -5.3,-1.7 -7,-2.9l3.6,-7.7c1.7,1.1 3.7,1.9 6,2.6c2.3,0.7 4.7,1 6.9,1c4.6,0 6.8,-1.1 6.8,-3.4c0,-1.1 -0.6,-1.8 -1.9,-2.3c-1.2,-0.5 -3.2,-0.9 -5.7,-1.2c-3,-0.5 -5.6,-1 -7.5,-1.6c-2,-0.6 -3.7,-1.7 -5.1,-3.2c-1.4,-1.5 -2.2,-3.7 -2.2,-6.5c0,-2.3 0.7,-4.4 2,-6.2c1.4,-1.8 3.3,-3.2 5.9,-4.2c2.6,-1 5.7,-1.5 9.2,-1.5c2.6,0 5.2,0.3 7.8,0.9c2.6,0.6 4.8,1.4 6.5,2.4l-3.6,7.7c-3.3,-1.8 -6.8,-2.8 -10.7,-2.8c-2.3,0 -4,0.3 -5.2,1c-1.2,0.6 -1.7,1.5 -1.7,2.5c0,1.2 0.6,2 1.9,2.4c1.2,0.5 3.2,0.9 5.9,1.3c3,0.5 5.5,1 7.5,1.6c1.9,0.6 3.6,1.6 5,3.1c1.4,1.5 2.1,3.6 2.1,6.4c0,2.3 -0.7,4.4 -2.1,6.1c-1.4,1.8 -3.4,3.2 -6,4.2c-2.6,1 -5.8,1.5 -9.4,1.5c-3,-0.1 -6.1,-0.5 -9,-1.2Z" style="fill:rgb(1,68,129);fill-rule:nonzero;"/>            <path d="M530.8,49.2l-28.1,0c0.5,2.3 1.7,4.1 3.6,5.5c1.9,1.3 4.2,2 7,2c1.9,0 3.7,-0.2 5.1,-0.9c6.6,-2.8 9.9,3.5 9.9,3.5c-3.5,4 -8.6,6 -15.3,6c-4.2,0 -7.9,-0.8 -11.1,-2.5c-3.2,-1.6 -5.7,-3.9 -7.5,-6.8c-1.7,-2.9 -2.6,-6.2 -2.6,-9.9c0,-3.6 0.9,-6.9 2.6,-9.8c1.7,-2.9 4.1,-5.2 7.1,-6.8c3,-1.6 6.4,-2.5 10.1,-2.5c3.6,0 6.9,0.8 9.9,2.3c2.9,1.6 5.3,3.8 6.9,6.7c1.7,2.9 2.5,6.3 2.5,10.2c0.1,0.3 0,1.2 -0.1,3Zm-25.2,-11.9c-1.7,1.4 -2.7,3.3 -3,5.7l18.3,0c-0.4,-2.3 -1.4,-4.2 -3,-5.6c-1.7,-1.4 -3.7,-2.1 -6.1,-2.1c-2.5,-0.1 -4.6,0.6 -6.2,2Z" style="fill:rgb(1,68,129);fill-rule:nonzero;"/>        </g>        <g>            <rect x="23.4" y="33.4" width="1.4" height="18.6" style="fill:rgb(1,68,129);fill-rule:nonzero;"/>            <path d="M34.1,50.9c-1.5,-0.8 -2.6,-1.9 -3.5,-3.4c-0.9,-1.5 -1.3,-3 -1.3,-4.8c0,-1.8 0.4,-3.4 1.3,-4.8c0.9,-1.4 2,-2.6 3.5,-3.4c1.5,-0.8 3.1,-1.2 4.9,-1.2c1.3,0 2.6,0.2 3.7,0.7c1.1,0.4 2.1,1.1 2.9,1.9l-0.8,0.9c-1.5,-1.5 -3.4,-2.2 -5.7,-2.2c-1.6,0 -3,0.4 -4.2,1.1c-1.3,0.7 -2.3,1.7 -3,2.9c-0.7,1.2 -1.1,2.6 -1.1,4.2c0,1.6 0.4,2.9 1.1,4.2c0.7,1.2 1.7,2.2 3,2.9c1.3,0.7 2.7,1.1 4.2,1.1c2.3,0 4.2,-0.7 5.7,-2.2l0.8,0.9c-0.8,0.8 -1.8,1.5 -2.9,1.9c-1.1,0.4 -2.4,0.7 -3.7,0.7c-1.8,-0.2 -3.4,-0.6 -4.9,-1.4Z" style="fill:rgb(1,68,129);fill-rule:nonzero;"/>            <path d="M65.3,33.4l0,18.6l-1.3,0l0,-8.8l-12.4,0l0,8.8l-1.4,0l0,-18.6l1.4,0l0,8.6l12.4,0l0,-8.6l1.3,0Z" style="fill:rgb(1,68,129);fill-rule:nonzero;"/>        </g>        <g>            <path d="M74.6,25c-0.5,0.2 -0.9,0.4 -1.5,0.6c2.5,4.8 3.9,10.2 3.9,16c0,19.1 -15.6,34.7 -34.7,34.7c-19.1,0 -34.5,-15.6 -34.5,-34.7c0,-19.1 15.6,-34.7 34.7,-34.7c8.7,0 16.7,3.3 22.8,8.6c0.3,-0.5 0.6,-0.9 0.9,-1.3c-6.4,-5.5 -14.7,-8.9 -23.7,-8.9c-20,0 -36.2,16.3 -36.2,36.2c0,19.9 16.3,36.2 36.2,36.2c19.9,0 36.2,-16.3 36.2,-36.2c0,-5.9 -1.5,-11.5 -4.1,-16.5Z" style="fill:rgb(1,68,129);fill-rule:nonzero;"/>            <path d="M64.3,18.9c0,3.8 3.1,7 7,7c0.7,0 1.3,-0.1 1.9,-0.3c0.5,-0.1 1,-0.3 1.5,-0.6c2.2,-1.2 3.6,-3.5 3.6,-6.1c0,-3.8 -3.1,-7 -7,-7c-2,0 -3.9,0.9 -5.1,2.3c-0.4,0.4 -0.7,0.8 -0.9,1.3c-0.6,1.1 -1,2.2 -1,3.4Zm7,-5.4c3,0 5.4,2.4 5.4,5.4c0,3 -2.4,5.4 -5.4,5.4c-3,0 -5.4,-2.4 -5.4,-5.4c0,-3 2.4,-5.4 5.4,-5.4Z" style="fill:rgb(1,68,129);fill-rule:nonzero;"/>        </g>    </g></svg>