<?xml version="1.0" encoding="UTF-8" standalone="no"?><!DOCTYPE svg PUBLIC "-//W3C//DTD SVG 1.1//EN" "http://www.w3.org/Graphics/SVG/1.1/DTD/svg11.dtd"><svg width="100%" height="100%" viewBox="0 0 1024 512" version="1.1" xmlns="http://www.w3.org/2000/svg" xmlns:xlink="http://www.w3.org/1999/xlink" xml:space="preserve" style="fill-rule:evenodd;clip-rule:evenodd;stroke-linejoin:round;stroke-miterlimit:2;"><title>easyMoney</title><desc>We want everybody to get a better return on their investments, through simple, honest products that offer more value, for less. Apply today.Cut out the banks. Lend directly to property professionals secured by bricks and mortar and receive great rates of return on your capital.</desc>    <g transform="matrix(7.77004,0,0,7.77004,-1671.65,-2484.68)">        <g transform="matrix(24,0,0,24,215,358.8)">            <path d="M0.47,-0.219l-0.23,0c-0.01,0 -0.015,0.005 -0.015,0.013c0,0.022 0.012,0.042 0.035,0.06c0.022,0.019 0.047,0.028 0.073,0.028c0.016,0 0.033,-0.003 0.052,-0.009c0.02,-0.006 0.035,-0.013 0.048,-0.022c0.011,-0.008 0.019,-0.012 0.026,-0.012c0.008,0 0.017,0.006 0.025,0.016c0.008,0.01 0.012,0.021 0.012,0.032c0,0.024 -0.015,0.046 -0.044,0.068c-0.052,0.039 -0.111,0.058 -0.179,0.058c-0.068,0 -0.126,-0.02 -0.172,-0.059c-0.022,-0.02 -0.041,-0.044 -0.056,-0.071c-0.019,-0.037 -0.028,-0.076 -0.028,-0.116c0,-0.055 0.016,-0.104 0.049,-0.148c0.029,-0.038 0.066,-0.066 0.11,-0.084c0.033,-0.014 0.069,-0.021 0.108,-0.021c0.062,0 0.114,0.017 0.157,0.052c0.022,0.018 0.04,0.039 0.053,0.063c0.015,0.027 0.023,0.054 0.023,0.08c0,0.021 -0.004,0.038 -0.013,0.052c-0.009,0.013 -0.02,0.02 -0.034,0.02Zm-0.217,-0.091l0.049,0c0.021,0 0.031,-0.01 0.031,-0.029c0,-0.017 -0.005,-0.032 -0.015,-0.043c-0.01,-0.011 -0.023,-0.016 -0.039,-0.016c-0.018,0 -0.033,0.007 -0.043,0.021c-0.01,0.013 -0.015,0.027 -0.015,0.041c0,0.009 0.003,0.016 0.007,0.02c0.005,0.004 0.013,0.006 0.025,0.006Z" style="fill:rgb(235,99,50);fill-rule:nonzero;"/>        </g>        <g transform="matrix(24,0,0,24,227.727,358.8)">            <path d="M0.297,-0.487c0.057,0 0.105,0.015 0.144,0.043c0.021,0.015 0.036,0.033 0.044,0.053c0.008,0.019 0.013,0.046 0.013,0.081l-0.001,0.073c0,0.05 0.003,0.083 0.01,0.098c0.004,0.007 0.007,0.012 0.011,0.014c0.003,0.001 0.01,0.003 0.02,0.005c0.011,0.002 0.016,0.008 0.016,0.02c0,0.016 -0.007,0.032 -0.019,0.049c-0.013,0.017 -0.029,0.031 -0.049,0.043c-0.024,0.014 -0.05,0.021 -0.076,0.021c-0.035,0 -0.062,-0.012 -0.081,-0.035c-0.007,-0.008 -0.014,-0.013 -0.019,-0.013c-0.007,0 -0.016,0.004 -0.026,0.013c-0.033,0.023 -0.07,0.035 -0.111,0.035c-0.043,0 -0.077,-0.009 -0.104,-0.027c-0.017,-0.012 -0.031,-0.028 -0.041,-0.047c-0.01,-0.02 -0.015,-0.04 -0.015,-0.061c0,-0.034 0.014,-0.064 0.041,-0.09c0.043,-0.041 0.107,-0.062 0.192,-0.062c0.018,0 0.03,-0.002 0.035,-0.006c0.005,-0.003 0.008,-0.012 0.008,-0.026c0,-0.034 -0.004,-0.059 -0.011,-0.075c-0.007,-0.015 -0.019,-0.023 -0.035,-0.023c-0.01,0 -0.019,0.003 -0.026,0.009c-0.008,0.006 -0.018,0.017 -0.029,0.032c-0.029,0.042 -0.059,0.062 -0.091,0.062c-0.016,0 -0.029,-0.005 -0.039,-0.014c-0.01,-0.009 -0.015,-0.022 -0.015,-0.037c0,-0.016 0.006,-0.031 0.019,-0.047c0.012,-0.016 0.029,-0.029 0.051,-0.041c0.059,-0.031 0.12,-0.047 0.184,-0.047Zm-0.032,0.283c-0.015,0 -0.027,0.006 -0.038,0.017c-0.01,0.012 -0.016,0.026 -0.016,0.042c0,0.016 0.004,0.029 0.012,0.038c0.007,0.01 0.017,0.015 0.029,0.015c0.026,0 0.04,-0.022 0.04,-0.066c0,-0.018 -0.002,-0.03 -0.006,-0.036c-0.004,-0.007 -0.011,-0.01 -0.021,-0.01Z" style="fill:rgb(235,99,50);fill-rule:nonzero;"/>        </g>        <g transform="matrix(24,0,0,24,241.332,358.8)">            <path d="M0.214,-0.486c0.016,0 0.043,0.003 0.079,0.01c0.008,0.002 0.014,0.002 0.019,0.002c0.006,0 0.016,-0.003 0.032,-0.008c0.008,-0.003 0.014,-0.005 0.019,-0.005c0.015,0 0.03,0.01 0.046,0.029c0.012,0.015 0.022,0.032 0.03,0.05c0.008,0.019 0.012,0.034 0.012,0.048c0,0.013 -0.005,0.023 -0.014,0.032c-0.009,0.009 -0.02,0.013 -0.034,0.013c-0.012,0 -0.022,-0.003 -0.031,-0.008c-0.009,-0.006 -0.023,-0.018 -0.043,-0.037c-0.021,-0.02 -0.038,-0.03 -0.052,-0.03c-0.009,0 -0.017,0.003 -0.023,0.01c-0.007,0.007 -0.01,0.014 -0.01,0.024c0,0.016 0.015,0.03 0.046,0.044c0.055,0.025 0.097,0.052 0.126,0.082c0.025,0.024 0.037,0.055 0.037,0.09c0,0.046 -0.02,0.083 -0.059,0.114c-0.035,0.026 -0.076,0.039 -0.126,0.039c-0.013,0 -0.036,-0.002 -0.069,-0.006c-0.032,-0.004 -0.05,-0.006 -0.053,-0.006c-0.005,0 -0.01,0.001 -0.015,0.002c-0.01,0.001 -0.016,0.002 -0.021,0.002c-0.015,0 -0.027,-0.004 -0.036,-0.012c-0.013,-0.012 -0.025,-0.031 -0.037,-0.057c-0.011,-0.026 -0.017,-0.048 -0.017,-0.066c0,-0.03 0.012,-0.045 0.035,-0.045c0.009,0 0.018,0.003 0.025,0.009c0.008,0.006 0.024,0.022 0.048,0.048c0.014,0.014 0.025,0.024 0.034,0.029c0.008,0.006 0.018,0.008 0.028,0.008c0.011,0 0.019,-0.002 0.026,-0.008c0.006,-0.006 0.01,-0.013 0.01,-0.023c0,-0.014 -0.013,-0.028 -0.038,-0.04c-0.052,-0.026 -0.09,-0.052 -0.114,-0.079c-0.023,-0.028 -0.034,-0.059 -0.034,-0.095c0,-0.039 0.011,-0.072 0.035,-0.1c0.034,-0.04 0.08,-0.06 0.139,-0.06Z" style="fill:rgb(235,99,50);fill-rule:nonzero;"/>        </g>        <g transform="matrix(24,0,0,24,252.77,358.8)">            <path d="M0.484,-0.246l-0.065,0.177c-0.016,0.044 -0.032,0.08 -0.048,0.108c-0.016,0.028 -0.034,0.051 -0.055,0.071c-0.042,0.04 -0.093,0.06 -0.152,0.06c-0.049,0 -0.088,-0.012 -0.118,-0.038c-0.023,-0.019 -0.034,-0.044 -0.034,-0.074c0,-0.025 0.008,-0.047 0.024,-0.064c0.016,-0.017 0.036,-0.025 0.059,-0.025c0.024,0 0.043,0.008 0.057,0.023c0.007,0.007 0.011,0.014 0.014,0.019c0.002,0.006 0.005,0.018 0.01,0.037c0.003,0.014 0.011,0.021 0.024,0.021c0.01,0 0.019,-0.004 0.026,-0.013c0.006,-0.009 0.01,-0.02 0.01,-0.033c0,-0.015 -0.009,-0.04 -0.026,-0.076l-0.117,-0.251c-0.013,-0.026 -0.022,-0.042 -0.028,-0.049c-0.006,-0.006 -0.02,-0.014 -0.041,-0.023c-0.007,-0.003 -0.012,-0.008 -0.017,-0.016c-0.005,-0.007 -0.007,-0.015 -0.007,-0.022c0,-0.029 0.029,-0.049 0.086,-0.059c0.039,-0.007 0.083,-0.01 0.132,-0.01c0.034,0 0.061,0.003 0.081,0.01c0.027,0.01 0.04,0.026 0.04,0.049c0,0.008 -0.003,0.017 -0.011,0.028c-0.007,0.011 -0.011,0.02 -0.011,0.028c0,0.008 0.002,0.016 0.006,0.025c0.003,0.008 0.01,0.023 0.021,0.043c0.013,0.022 0.024,0.034 0.033,0.034c0.01,0 0.02,-0.01 0.031,-0.03c0.011,-0.02 0.016,-0.039 0.016,-0.058c0,-0.015 -0.004,-0.027 -0.012,-0.037c-0.012,-0.014 -0.018,-0.027 -0.018,-0.037c0,-0.017 0.011,-0.03 0.033,-0.04c0.022,-0.01 0.052,-0.015 0.089,-0.015c0.069,0 0.103,0.017 0.103,0.05c0,0.012 -0.003,0.022 -0.01,0.029c-0.007,0.007 -0.02,0.014 -0.039,0.021c-0.015,0.006 -0.028,0.015 -0.037,0.029c-0.014,0.022 -0.031,0.058 -0.049,0.108Z" style="fill:rgb(235,99,50);fill-rule:nonzero;"/>        </g>        <g transform="matrix(24,0,0,24,267.629,358.8)">            <path d="M0.503,-0.202l-0.059,0.131c-0.01,0.022 -0.018,0.037 -0.024,0.045c-0.006,0.008 -0.013,0.011 -0.021,0.011c-0.007,0 -0.013,-0.003 -0.019,-0.009c-0.003,-0.004 -0.011,-0.018 -0.024,-0.043c-0.013,-0.025 -0.024,-0.047 -0.032,-0.066l-0.065,-0.145c-0.009,-0.02 -0.018,-0.03 -0.028,-0.03c-0.01,0 -0.016,0.009 -0.017,0.026c-0.002,0.038 -0.003,0.074 -0.003,0.106c0,0.034 0.002,0.057 0.005,0.069c0.002,0.007 0.005,0.012 0.009,0.016c0.004,0.003 0.014,0.009 0.03,0.017c0.011,0.006 0.016,0.015 0.016,0.029c0,0.037 -0.046,0.055 -0.14,0.055c-0.078,0 -0.118,-0.018 -0.118,-0.053c0,-0.01 0.002,-0.016 0.006,-0.02c0.004,-0.004 0.015,-0.01 0.032,-0.019c0.011,-0.004 0.018,-0.011 0.022,-0.02c0.003,-0.008 0.006,-0.024 0.009,-0.049c0.003,-0.026 0.006,-0.069 0.008,-0.128c0.003,-0.059 0.004,-0.11 0.004,-0.153c0,-0.053 -0.004,-0.089 -0.012,-0.108c-0.003,-0.006 -0.006,-0.011 -0.01,-0.014c-0.004,-0.003 -0.011,-0.008 -0.021,-0.013c-0.023,-0.011 -0.035,-0.025 -0.035,-0.043c0,-0.011 0.004,-0.022 0.013,-0.031c0.009,-0.01 0.02,-0.016 0.034,-0.02c0.015,-0.004 0.034,-0.008 0.058,-0.011c0.024,-0.003 0.044,-0.005 0.061,-0.005c0.041,0 0.071,0.004 0.088,0.01c0.008,0.004 0.015,0.008 0.02,0.014c0.005,0.005 0.012,0.017 0.021,0.034l0.102,0.187c0.011,0.02 0.018,0.033 0.023,0.037c0.004,0.005 0.01,0.007 0.017,0.007c0.007,0 0.012,-0.002 0.017,-0.007c0.006,-0.005 0.011,-0.014 0.018,-0.027l0.069,-0.135c0.009,-0.017 0.014,-0.028 0.017,-0.033c0.016,-0.033 0.031,-0.055 0.047,-0.065c0.02,-0.014 0.056,-0.021 0.108,-0.021c0.093,0 0.139,0.021 0.139,0.063c0,0.009 -0.002,0.017 -0.006,0.022c-0.003,0.006 -0.011,0.013 -0.022,0.021c-0.015,0.012 -0.024,0.028 -0.028,0.049c-0.007,0.045 -0.011,0.1 -0.011,0.165c0,0.083 0.004,0.155 0.011,0.218c0.002,0.015 0.005,0.026 0.01,0.031c0.004,0.006 0.014,0.014 0.031,0.025c0.012,0.008 0.018,0.018 0.018,0.031c0,0.023 -0.016,0.039 -0.046,0.049c-0.015,0.005 -0.032,0.008 -0.049,0.01c-0.017,0.001 -0.044,0.002 -0.08,0.002c-0.055,0 -0.096,-0.004 -0.123,-0.011c-0.03,-0.009 -0.045,-0.024 -0.045,-0.045c0,-0.008 0.002,-0.015 0.006,-0.02c0.004,-0.005 0.014,-0.014 0.03,-0.027c0.009,-0.007 0.015,-0.02 0.018,-0.04c0.003,-0.019 0.004,-0.053 0.004,-0.099c0,-0.026 -0.001,-0.044 -0.003,-0.052c-0.003,-0.008 -0.008,-0.012 -0.016,-0.012c-0.009,0 -0.018,0.006 -0.026,0.019c-0.008,0.012 -0.021,0.037 -0.038,0.075Z" style="fill:rgb(235,99,50);fill-rule:nonzero;"/>        </g>        <g transform="matrix(24,0,0,24,288.84,358.8)">            <path d="M0.321,-0.487c0.059,0 0.112,0.016 0.157,0.047c0.032,0.022 0.058,0.051 0.077,0.086c0.02,0.037 0.03,0.076 0.03,0.116c0,0.071 -0.032,0.131 -0.097,0.18c-0.062,0.048 -0.132,0.071 -0.212,0.071c-0.078,0 -0.141,-0.022 -0.189,-0.066c-0.047,-0.043 -0.07,-0.099 -0.07,-0.168c0,-0.077 0.028,-0.14 0.086,-0.189c0.059,-0.051 0.132,-0.077 0.218,-0.077Zm-0.039,0.113c-0.015,0 -0.026,0.005 -0.035,0.016c-0.008,0.01 -0.013,0.025 -0.013,0.042c0,0.02 0.004,0.046 0.011,0.08c0.008,0.034 0.016,0.063 0.026,0.09c0.011,0.026 0.027,0.04 0.05,0.04c0.029,0 0.043,-0.019 0.043,-0.056c0,-0.027 -0.003,-0.058 -0.011,-0.093c-0.007,-0.035 -0.016,-0.063 -0.026,-0.085c-0.011,-0.022 -0.026,-0.033 -0.045,-0.034Z" style="fill:rgb(235,99,50);fill-rule:nonzero;"/>        </g>        <g transform="matrix(24,0,0,24,303.289,358.8)">            <path d="M0.611,-0.306l0.007,0.172c0,0.013 0.002,0.022 0.006,0.029c0.003,0.006 0.013,0.018 0.03,0.035c0.005,0.005 0.007,0.013 0.007,0.022c0,0.022 -0.013,0.037 -0.038,0.045c-0.026,0.009 -0.072,0.013 -0.138,0.013c-0.045,0 -0.077,-0.004 -0.095,-0.012c-0.02,-0.008 -0.029,-0.021 -0.029,-0.04c0,-0.006 0.001,-0.011 0.003,-0.014c0.002,-0.003 0.008,-0.011 0.019,-0.023c0.013,-0.013 0.02,-0.059 0.02,-0.136c0,-0.045 -0.005,-0.078 -0.016,-0.1c-0.008,-0.017 -0.024,-0.026 -0.047,-0.026c-0.021,0 -0.036,0.007 -0.045,0.021c-0.008,0.014 -0.012,0.04 -0.012,0.076l0,0.097c0,0.019 0.001,0.032 0.004,0.04c0.002,0.007 0.01,0.021 0.024,0.041c0.004,0.006 0.005,0.013 0.005,0.02c0,0.019 -0.013,0.033 -0.04,0.043c-0.026,0.009 -0.068,0.013 -0.125,0.013c-0.09,0 -0.135,-0.018 -0.135,-0.056c0,-0.008 0.001,-0.014 0.004,-0.018c0.003,-0.004 0.009,-0.01 0.02,-0.017c0.008,-0.006 0.013,-0.013 0.016,-0.021c0.002,-0.008 0.004,-0.028 0.006,-0.059c0.002,-0.037 0.003,-0.076 0.003,-0.117c0,-0.022 -0.001,-0.037 -0.005,-0.044c-0.003,-0.007 -0.013,-0.016 -0.029,-0.026c-0.014,-0.008 -0.021,-0.019 -0.021,-0.032c0,-0.013 0.005,-0.024 0.017,-0.032c0.011,-0.008 0.035,-0.019 0.07,-0.031c0.031,-0.011 0.062,-0.021 0.09,-0.028c0.029,-0.008 0.049,-0.012 0.06,-0.012c0.01,0 0.018,0.004 0.025,0.011c0.006,0.007 0.01,0.015 0.01,0.025c0,0.001 0,0.005 -0.001,0.012c0,0.003 0,0.005 0,0.007c0,0.016 0.006,0.024 0.019,0.024c0.008,0 0.016,-0.006 0.025,-0.019c0.028,-0.04 0.069,-0.06 0.122,-0.06c0.041,0 0.076,0.01 0.106,0.032c0.02,0.015 0.035,0.033 0.043,0.054c0.008,0.02 0.013,0.051 0.015,0.091Z" style="fill:rgb(235,99,50);fill-rule:nonzero;"/>        </g>        <g transform="matrix(24,0,0,24,319.391,358.8)">            <path d="M0.47,-0.219l-0.23,0c-0.01,0 -0.015,0.005 -0.015,0.013c0,0.022 0.012,0.042 0.035,0.06c0.022,0.019 0.047,0.028 0.073,0.028c0.016,0 0.033,-0.003 0.052,-0.009c0.02,-0.006 0.035,-0.013 0.048,-0.022c0.011,-0.008 0.019,-0.012 0.026,-0.012c0.008,0 0.017,0.006 0.025,0.016c0.008,0.01 0.012,0.021 0.012,0.032c0,0.024 -0.015,0.046 -0.044,0.068c-0.052,0.039 -0.111,0.058 -0.179,0.058c-0.068,0 -0.126,-0.02 -0.172,-0.059c-0.022,-0.02 -0.041,-0.044 -0.056,-0.071c-0.019,-0.037 -0.028,-0.076 -0.028,-0.116c0,-0.055 0.016,-0.104 0.049,-0.148c0.029,-0.038 0.066,-0.066 0.11,-0.084c0.033,-0.014 0.069,-0.021 0.108,-0.021c0.062,0 0.114,0.017 0.157,0.052c0.022,0.018 0.04,0.039 0.053,0.063c0.015,0.027 0.023,0.054 0.023,0.08c0,0.021 -0.004,0.038 -0.013,0.052c-0.009,0.013 -0.02,0.02 -0.034,0.02Zm-0.217,-0.091l0.049,0c0.021,0 0.031,-0.01 0.031,-0.029c0,-0.017 -0.005,-0.032 -0.015,-0.043c-0.01,-0.011 -0.023,-0.016 -0.039,-0.016c-0.018,0 -0.033,0.007 -0.043,0.021c-0.01,0.013 -0.015,0.027 -0.015,0.041c0,0.009 0.003,0.016 0.007,0.02c0.005,0.004 0.013,0.006 0.025,0.006Z" style="fill:rgb(235,99,50);fill-rule:nonzero;"/>        </g>        <g transform="matrix(24,0,0,24,331.812,358.8)">            <path d="M0.484,-0.246l-0.065,0.177c-0.016,0.044 -0.032,0.08 -0.048,0.108c-0.016,0.028 -0.034,0.051 -0.055,0.071c-0.042,0.04 -0.093,0.06 -0.152,0.06c-0.049,0 -0.088,-0.012 -0.118,-0.038c-0.023,-0.019 -0.034,-0.044 -0.034,-0.074c0,-0.025 0.008,-0.047 0.024,-0.064c0.016,-0.017 0.036,-0.025 0.059,-0.025c0.024,0 0.043,0.008 0.057,0.023c0.007,0.007 0.011,0.014 0.014,0.019c0.002,0.006 0.005,0.018 0.01,0.037c0.003,0.014 0.011,0.021 0.024,0.021c0.01,0 0.019,-0.004 0.026,-0.013c0.006,-0.009 0.01,-0.02 0.01,-0.033c0,-0.015 -0.009,-0.04 -0.026,-0.076l-0.117,-0.251c-0.013,-0.026 -0.022,-0.042 -0.028,-0.049c-0.006,-0.006 -0.02,-0.014 -0.041,-0.023c-0.007,-0.003 -0.012,-0.008 -0.017,-0.016c-0.005,-0.007 -0.007,-0.015 -0.007,-0.022c0,-0.029 0.029,-0.049 0.086,-0.059c0.039,-0.007 0.083,-0.01 0.132,-0.01c0.034,0 0.061,0.003 0.081,0.01c0.027,0.01 0.04,0.026 0.04,0.049c0,0.008 -0.003,0.017 -0.011,0.028c-0.007,0.011 -0.011,0.02 -0.011,0.028c0,0.008 0.002,0.016 0.006,0.025c0.003,0.008 0.01,0.023 0.021,0.043c0.013,0.022 0.024,0.034 0.033,0.034c0.01,0 0.02,-0.01 0.031,-0.03c0.011,-0.02 0.016,-0.039 0.016,-0.058c0,-0.015 -0.004,-0.027 -0.012,-0.037c-0.012,-0.014 -0.018,-0.027 -0.018,-0.037c0,-0.017 0.011,-0.03 0.033,-0.04c0.022,-0.01 0.052,-0.015 0.089,-0.015c0.069,0 0.103,0.017 0.103,0.05c0,0.012 -0.003,0.022 -0.01,0.029c-0.007,0.007 -0.02,0.014 -0.039,0.021c-0.015,0.006 -0.028,0.015 -0.037,0.029c-0.014,0.022 -0.031,0.058 -0.049,0.108Z" style="fill:rgb(235,99,50);fill-rule:nonzero;"/>        </g>    </g></svg>