<?xml version="1.0" encoding="UTF-8" standalone="no"?><!DOCTYPE svg PUBLIC "-//W3C//DTD SVG 1.1//EN" "http://www.w3.org/Graphics/SVG/1.1/DTD/svg11.dtd"><svg width="100%" height="100%" viewBox="0 0 1024 512" version="1.1" xmlns="http://www.w3.org/2000/svg" xmlns:xlink="http://www.w3.org/1999/xlink" xml:space="preserve" style="fill-rule:evenodd;clip-rule:evenodd;stroke-linejoin:round;stroke-miterlimit:2;"><title>Lumo</title><desc>Lumo is a crowdfunding investment platform. It allows individuals and companies to give meaning to their savings by financing projects with a positive impact, useful for the ecological transition.Founded in 2012, Lumo helped create the regulatory framework for crowdfunding dedicated to renewable energies, alongside other pioneers in the sector.</desc>    <g transform="matrix(10.4577,0,0,10.4577,1.17089,-105.814)">        <path d="M4.1,22.2c0,0 -3.5,18.7 -3.7,19.9c-0.2,1.2 -1.5,6.4 3.1,6.4c5,-0 8.1,-4.2 8.1,-4.2l-0.3,-0.6l-3.4,-0l4.6,-23.1c0,-0.1 -8.2,1.6 -8.4,1.6Z" style="fill:rgb(24,23,22);fill-rule:nonzero;"/>        <path d="M50.4,29l-0.5,4c0,0 4.2,-4.1 8.1,-4.1c3.9,0 4,2.8 3.8,4.1c0,0 4,-4.1 8.2,-4.1c4.2,0 4,3.1 3.7,4.9c-0.3,1.4 -2,10 -2,10l2.9,0l0.2,0.6c0,0 -3,4.2 -7.8,4.2c-1.5,0 -4,-1.1 -3.3,-4.9c0.7,-3.7 1.8,-9.9 1.8,-9.9l-4,0l-2.5,14.3l-8.1,-0l2.7,-14.3l-4,-0l-2.6,14.3l-8,-0l2.6,-13.5l-1.8,-3.3l0.4,-0.5l10.2,-1.8Z" style="fill:rgb(24,23,22);fill-rule:nonzero;"/>        <path d="M36.6,43.6l-2.8,0l2.9,-14.6l-8.4,1.6l-2.4,13.1l-4.3,0l2.7,-14.7l-10.1,2l-0.4,0.5l1.5,3.2c-0,0 -1.6,7.9 -1.7,8.6c-0.1,0.8 -1,5.1 3.8,5.1c4.8,0 8.6,-4.2 8.6,-4.2c-0,0 -0.4,4.3 3.7,4.3c4.1,0 7.2,-4.2 7.2,-4.2l-0.3,-0.7Z" style="fill:rgb(24,23,22);fill-rule:nonzero;"/>        <path d="M88.4,28.8c-1.7,0 -10.6,0.9 -12.4,9.8c-0.9,4.3 1.9,9.8 9,9.8c7.1,0 11.6,-4.7 12.4,-9.4c1,-4.6 -1.4,-10.2 -9,-10.2Zm-3.5,17.1l-1.4,-0l2,-11.9c0.2,-1.4 1.5,-2.5 2.9,-2.5l1.6,-0l-2.2,11.9c-0.3,1.5 -1.5,2.5 -2.9,2.5Z" style="fill:rgb(24,23,22);fill-rule:nonzero;"/>    </g></svg>