<?xml version="1.0" encoding="UTF-8" standalone="no"?><!DOCTYPE svg PUBLIC "-//W3C//DTD SVG 1.1//EN" "http://www.w3.org/Graphics/SVG/1.1/DTD/svg11.dtd"><svg width="100%" height="100%" viewBox="0 0 1024 512" version="1.1" xmlns="http://www.w3.org/2000/svg" xmlns:xlink="http://www.w3.org/1999/xlink" xml:space="preserve" style="fill-rule:evenodd;clip-rule:evenodd;stroke-linejoin:round;stroke-miterlimit:2;"><title>Simple Crowdfunding</title><desc>Simple Crowdfunding is a property crowdfunding platform that offers both equity finance and peer to peer loans through one platform. We connect Investors with property professionals through property projects in the UK. We first received authorisation in 2013 and have been growing ever since.Investors access property investment opportunities and learn about property through live projects. Fundraisers get projects funded, increase their market presence and build a base of loyal fans.</desc>    <g transform="matrix(0.604468,0,0,0.604468,-42.374,108.231)">        <g transform="matrix(1.62173,0,0,1.62173,9.37907,122.007)">            <g transform="matrix(144,0,0,144,386.265,107.025)">                <path d="M0.045,-0.23l0.089,-0.008c0.005,0.036 0.014,0.065 0.03,0.088c0.015,0.023 0.039,0.042 0.072,0.056c0.032,0.014 0.069,0.021 0.11,0.021c0.036,0 0.068,-0.005 0.095,-0.016c0.028,-0.011 0.049,-0.025 0.062,-0.044c0.014,-0.019 0.02,-0.039 0.02,-0.061c0,-0.023 -0.006,-0.042 -0.019,-0.059c-0.013,-0.017 -0.035,-0.031 -0.065,-0.042c-0.019,-0.008 -0.061,-0.02 -0.127,-0.035c-0.066,-0.016 -0.112,-0.031 -0.138,-0.045c-0.034,-0.018 -0.06,-0.04 -0.077,-0.067c-0.016,-0.026 -0.025,-0.056 -0.025,-0.089c0,-0.036 0.011,-0.07 0.031,-0.101c0.021,-0.031 0.05,-0.055 0.09,-0.072c0.039,-0.016 0.083,-0.024 0.131,-0.024c0.053,0 0.1,0.009 0.141,0.026c0.04,0.017 0.071,0.042 0.093,0.075c0.022,0.033 0.034,0.071 0.035,0.113l-0.091,0.007c-0.004,-0.046 -0.021,-0.08 -0.049,-0.103c-0.028,-0.023 -0.07,-0.035 -0.125,-0.035c-0.057,0 -0.099,0.011 -0.125,0.032c-0.026,0.021 -0.039,0.046 -0.039,0.076c0,0.026 0.009,0.047 0.027,0.063c0.019,0.017 0.066,0.034 0.143,0.051c0.077,0.018 0.13,0.033 0.159,0.046c0.041,0.019 0.072,0.044 0.092,0.073c0.02,0.03 0.03,0.063 0.03,0.102c0,0.038 -0.011,0.074 -0.033,0.108c-0.022,0.033 -0.053,0.059 -0.094,0.078c-0.041,0.019 -0.087,0.028 -0.138,0.028c-0.065,0 -0.119,-0.009 -0.163,-0.028c-0.044,-0.019 -0.078,-0.047 -0.103,-0.085c-0.025,-0.038 -0.038,-0.081 -0.039,-0.129Z" style="fill-rule:nonzero;"/>            </g>            <g transform="matrix(144,0,0,144,482.312,107.025)">                <rect x="0.093" y="-0.716" width="0.095" height="0.716" style="fill-rule:nonzero;"/>            </g>            <g transform="matrix(144,0,0,144,524.786,107.025)">                <path d="M0.074,0l0,-0.716l0.143,0l0.169,0.507c0.016,0.047 0.027,0.083 0.034,0.106c0.009,-0.026 0.021,-0.064 0.038,-0.115l0.172,-0.498l0.127,0l0,0.716l-0.091,0l0,-0.599l-0.208,0.599l-0.085,0l-0.207,-0.609l0,0.609l-0.092,0Z" style="fill-rule:nonzero;"/>            </g>            <g transform="matrix(144,0,0,144,645.973,107.025)">                <path d="M0.077,0l0,-0.716l0.27,0c0.048,0 0.084,0.002 0.109,0.007c0.035,0.006 0.065,0.017 0.088,0.033c0.024,0.017 0.043,0.04 0.058,0.07c0.014,0.029 0.022,0.062 0.022,0.097c0,0.061 -0.02,0.113 -0.059,0.155c-0.038,0.042 -0.108,0.063 -0.21,0.063l-0.183,0l0,0.291l-0.095,0Zm0.095,-0.375l0.185,0c0.061,0 0.105,-0.012 0.13,-0.035c0.026,-0.022 0.039,-0.055 0.039,-0.096c0,-0.03 -0.008,-0.055 -0.023,-0.077c-0.015,-0.021 -0.035,-0.035 -0.06,-0.042c-0.016,-0.004 -0.045,-0.006 -0.088,-0.006l-0.183,0l0,0.256Z" style="fill-rule:nonzero;"/>            </g>            <g transform="matrix(144,0,0,144,742.636,107.025)">                <path d="M0.073,0l0,-0.716l0.095,0l0,0.632l0.353,0l0,0.084l-0.448,0Z" style="fill-rule:nonzero;"/>            </g>            <g transform="matrix(144,0,0,144,822.722,107.025)">                <path d="M0.079,0l0,-0.716l0.518,0l0,0.085l-0.423,0l0,0.219l0.396,0l0,0.084l-0.396,0l0,0.244l0.439,0l0,0.084l-0.534,0Z" style="fill-rule:nonzero;"/>            </g>        </g>        <g transform="matrix(2.75456,0,0,0.486196,-698.751,331.663)">            <g transform="matrix(58.6638,0,0,237.738,386.265,199.941)">                <path d="M0.647,-0.713l0,0.134c-0.065,-0.055 -0.133,-0.082 -0.204,-0.082c-0.077,0 -0.142,0.028 -0.195,0.083c-0.054,0.056 -0.081,0.123 -0.081,0.203c0,0.08 0.027,0.146 0.081,0.201c0.053,0.054 0.118,0.081 0.196,0.081c0.04,0 0.074,-0.006 0.102,-0.019c0.016,-0.007 0.032,-0.016 0.048,-0.027c0.017,-0.011 0.035,-0.024 0.053,-0.04l0,0.137c-0.065,0.037 -0.133,0.056 -0.205,0.056c-0.107,0 -0.199,-0.038 -0.275,-0.113c-0.076,-0.076 -0.114,-0.167 -0.114,-0.275c0,-0.096 0.031,-0.181 0.095,-0.256c0.078,-0.092 0.179,-0.139 0.303,-0.139c0.068,0 0.133,0.019 0.196,0.056Z" style="fill:rgb(210,76,0);fill-rule:nonzero;"/>            </g>            <g transform="matrix(80.8833,0,0,237.738,426.452,199.941)">                <path d="M0.346,-0.321l0.233,0.321l-0.139,0l-0.215,-0.309l-0.021,0l0,0.309l-0.114,0l0,-0.754l0.134,0c0.099,0 0.171,0.019 0.215,0.056c0.049,0.042 0.074,0.097 0.074,0.165c0,0.054 -0.016,0.1 -0.046,0.138c-0.031,0.038 -0.071,0.063 -0.121,0.074Zm-0.142,-0.087l0.036,0c0.108,0 0.162,-0.041 0.162,-0.123c0,-0.077 -0.053,-0.116 -0.157,-0.116l-0.041,0l0,0.239Z" style="fill:rgb(210,76,0);fill-rule:nonzero;"/>            </g>            <g transform="matrix(48.5204,0,0,274.894,474.287,221.142)">                <path d="M0.053,-0.38c0,-0.106 0.039,-0.198 0.116,-0.274c0.078,-0.076 0.171,-0.114 0.28,-0.114c0.107,0 0.199,0.038 0.276,0.115c0.077,0.077 0.116,0.169 0.116,0.277c0,0.108 -0.039,0.2 -0.116,0.276c-0.078,0.076 -0.172,0.114 -0.282,0.114c-0.097,0 -0.185,-0.034 -0.262,-0.101c-0.086,-0.075 -0.128,-0.173 -0.128,-0.293Zm0.114,0.001c0,0.083 0.028,0.152 0.084,0.206c0.056,0.053 0.12,0.08 0.193,0.08c0.079,0 0.146,-0.027 0.201,-0.082c0.054,-0.055 0.081,-0.123 0.081,-0.202c0,-0.08 -0.027,-0.148 -0.08,-0.202c-0.054,-0.055 -0.12,-0.082 -0.199,-0.082c-0.078,0 -0.144,0.027 -0.198,0.082c-0.055,0.054 -0.082,0.121 -0.082,0.2Z" style="fill:rgb(210,76,0);fill-rule:nonzero;"/>            </g>            <g transform="matrix(49.1244,0,0,237.738,519.928,199.941)">                <path d="M0.127,-0.754l0.197,0.504l0.205,-0.541l0.196,0.541l0.209,-0.504l0.123,0l-0.337,0.802l-0.194,-0.534l-0.202,0.534l-0.32,-0.802l0.123,0Z" style="fill:rgb(210,76,0);fill-rule:nonzero;"/>            </g>            <g transform="matrix(58.6638,0,0,237.738,572.252,199.941)">                <path d="M0.09,0l0,-0.754l0.159,0c0.075,0 0.135,0.008 0.179,0.023c0.047,0.014 0.09,0.039 0.129,0.074c0.077,0.071 0.116,0.164 0.116,0.28c0,0.116 -0.04,0.21 -0.121,0.281c-0.041,0.036 -0.084,0.061 -0.128,0.075c-0.042,0.014 -0.101,0.021 -0.177,0.021l-0.157,0Zm0.114,-0.107l0.051,0c0.051,0 0.094,-0.005 0.128,-0.016c0.034,-0.011 0.064,-0.03 0.092,-0.054c0.056,-0.051 0.084,-0.118 0.084,-0.2c0,-0.083 -0.028,-0.15 -0.083,-0.201c-0.05,-0.046 -0.124,-0.069 -0.221,-0.069l-0.051,0l0,0.54Z" style="fill:rgb(210,76,0);fill-rule:nonzero;"/>            </g>            <g transform="matrix(76.6921,0,0,237.738,615.396,199.941)">                <path d="M0.467,-0.647l-0.263,0l0,0.181l0.254,0l0,0.107l-0.254,0l0,0.359l-0.114,0l0,-0.754l0.377,0l0,0.107Z" style="fill:rgb(210,76,0);fill-rule:nonzero;"/>            </g>            <g transform="matrix(58.6638,0,0,237.738,653.378,199.941)">                <path d="M0.204,-0.754l0,0.454c0,0.065 0.011,0.112 0.032,0.142c0.031,0.044 0.076,0.065 0.133,0.065c0.058,0 0.102,-0.021 0.134,-0.065c0.021,-0.029 0.032,-0.076 0.032,-0.142l0,-0.454l0.113,0l0,0.485c0,0.08 -0.024,0.145 -0.074,0.197c-0.055,0.057 -0.124,0.086 -0.205,0.086c-0.081,0 -0.149,-0.029 -0.204,-0.086c-0.05,-0.052 -0.075,-0.117 -0.075,-0.197l0,-0.485l0.114,0Z" style="fill:rgb(210,76,0);fill-rule:nonzero;"/>            </g>            <g transform="matrix(56.0446,0,0,237.738,696.591,199.941)">                <path d="M0.09,0l0,-0.805l0.55,0.575l0,-0.524l0.114,0l0,0.8l-0.55,-0.574l0,0.528l-0.114,0Z" style="fill:rgb(210,76,0);fill-rule:nonzero;"/>            </g>            <g transform="matrix(65.0794,0,0,237.738,742.033,199.941)">                <path d="M0.09,0l0,-0.754l0.159,0c0.075,0 0.135,0.008 0.179,0.023c0.047,0.014 0.09,0.039 0.129,0.074c0.077,0.071 0.116,0.164 0.116,0.28c0,0.116 -0.04,0.21 -0.121,0.281c-0.041,0.036 -0.084,0.061 -0.128,0.075c-0.042,0.014 -0.101,0.021 -0.177,0.021l-0.157,0Zm0.114,-0.107l0.051,0c0.051,0 0.094,-0.005 0.128,-0.016c0.034,-0.011 0.064,-0.03 0.092,-0.054c0.056,-0.051 0.084,-0.118 0.084,-0.2c0,-0.083 -0.028,-0.15 -0.083,-0.201c-0.05,-0.046 -0.124,-0.069 -0.221,-0.069l-0.051,0l0,0.54Z" style="fill:rgb(210,76,0);fill-rule:nonzero;"/>            </g>            <g transform="matrix(58.6638,0,0,237.738,787.385,199.941)">                <rect x="0.09" y="-0.754" width="0.114" height="0.754" style="fill:rgb(210,76,0);fill-rule:nonzero;"/>            </g>            <g transform="matrix(58.6638,0,0,237.738,803.235,199.941)">                <path d="M0.09,0l0,-0.805l0.55,0.575l0,-0.524l0.114,0l0,0.8l-0.55,-0.574l0,0.528l-0.114,0Z" style="fill:rgb(210,76,0);fill-rule:nonzero;"/>            </g>            <g transform="matrix(54.6082,0,0,237.738,849.803,199.941)">                <path d="M0.478,-0.393l0.312,0l0,0.025c0,0.057 -0.007,0.107 -0.02,0.151c-0.013,0.04 -0.035,0.078 -0.066,0.113c-0.07,0.079 -0.159,0.118 -0.267,0.118c-0.106,0 -0.196,-0.038 -0.271,-0.114c-0.076,-0.077 -0.113,-0.168 -0.113,-0.275c0,-0.11 0.038,-0.203 0.114,-0.279c0.077,-0.076 0.17,-0.115 0.28,-0.115c0.059,0 0.114,0.012 0.165,0.037c0.049,0.024 0.097,0.063 0.144,0.117l-0.081,0.077c-0.062,-0.082 -0.137,-0.123 -0.226,-0.123c-0.08,0 -0.147,0.027 -0.201,0.082c-0.054,0.054 -0.081,0.122 -0.081,0.204c0,0.083 0.03,0.153 0.09,0.207c0.057,0.05 0.118,0.076 0.183,0.076c0.056,0 0.107,-0.019 0.151,-0.057c0.045,-0.038 0.07,-0.084 0.075,-0.137l-0.188,0l0,-0.107Z" style="fill:rgb(210,76,0);fill-rule:nonzero;"/>            </g>        </g>        <g transform="matrix(1.62173,0,0,1.62173,9.37907,122.007)">            <g transform="matrix(0.616627,0,0,0.616627,-5.78339,-75.2327)">                <path d="M254.863,47.913c0,0 -71.197,50.898 -71.575,95.447c-0.322,38.056 11.451,45.193 61.073,99.972c26.299,29.032 36.218,58.628 37.151,75.874c1.461,27.01 -5.389,52.371 -5.389,52.371c0,0 18.454,-20.409 16.658,-70.407c-1.109,-30.897 -33.013,-77.13 -33.013,-77.13c0,0 27.858,20.019 37.779,42.586c22.357,50.857 14.416,69.848 14.416,69.848c0,0 28.955,-48.4 33.491,-66.538c5.944,-23.765 24.101,-65.113 -13.642,-120.73c-21.201,-31.241 -59.476,-46.335 -77.554,-51.014c-18.078,-4.679 -6.713,-2.826 -25.357,-6.44c-1.725,-17.079 25.962,-43.839 25.962,-43.839Z" style="fill:rgb(210,76,0);"/>            </g>            <g transform="matrix(-0.616627,-7.5515e-17,7.5515e-17,-0.616627,258.422,215.749)">                <path d="M254.863,47.913c0,0 -71.197,50.898 -71.575,95.447c-0.322,38.056 11.451,45.193 61.073,99.972c26.299,29.032 36.218,58.628 37.151,75.874c1.461,27.01 -5.389,52.371 -5.389,52.371c0,0 18.454,-20.409 16.658,-70.407c-1.109,-30.897 -33.013,-77.13 -33.013,-77.13c0,0 27.858,20.019 37.779,42.586c22.357,50.857 14.416,69.848 14.416,69.848c0,0 28.955,-48.4 33.491,-66.538c5.944,-23.765 24.101,-65.113 -13.642,-120.73c-21.201,-31.241 -59.476,-46.335 -77.554,-51.014c-18.078,-4.679 -6.713,-2.826 -25.357,-6.44c-1.725,-17.079 25.962,-43.839 25.962,-43.839Z"/>            </g>        </g>    </g></svg>