<?xml version="1.0" encoding="UTF-8" standalone="no"?><!DOCTYPE svg PUBLIC "-//W3C//DTD SVG 1.1//EN" "http://www.w3.org/Graphics/SVG/1.1/DTD/svg11.dtd"><svg width="100%" height="100%" viewBox="0 0 1024 512" version="1.1" xmlns="http://www.w3.org/2000/svg" xmlns:xlink="http://www.w3.org/1999/xlink" xml:space="preserve" style="fill-rule:evenodd;clip-rule:evenodd;stroke-linejoin:round;stroke-miterlimit:2;"><title>Monetria</title><desc></desc>    <g id="Layer_1-2" transform="matrix(4.95789,0,0,4.95789,2.01325,151.886)">        <path id="Path_43" d="M69.38,23.21l-6.21,-11.37l-4.48,0l0,18.36l4.42,0l0,-9.2l4.89,9.2l2.82,0l4.8,-9.2l0,9.2l4.38,0l0,-18.36l-4.4,0l-6.22,11.37Z" style="fill:url(#_Linear1);fill-rule:nonzero;"/>        <path id="Path_44" d="M92.47,11.43c-2.616,-0.058 -5.146,0.954 -7,2.8c-3.727,3.657 -3.785,9.732 -0.13,13.46l0.13,0.14c3.912,3.677 10.088,3.677 14,0c1.83,-1.79 2.862,-4.245 2.862,-6.805c0,-2.491 -0.978,-4.886 -2.722,-6.665l-0.14,-0.13c-1.852,-1.849 -4.383,-2.861 -7,-2.8Zm3.79,13.49c-2.085,2.057 -5.485,2.057 -7.57,0c-1.022,-1.043 -1.572,-2.461 -1.52,-3.92c0,-2.907 2.393,-5.3 5.3,-5.3c2.907,0 5.3,2.393 5.3,5.3c0.049,1.445 -0.497,2.849 -1.51,3.88l0,0.04Z" style="fill:url(#_Linear2);fill-rule:nonzero;"/>        <path id="Path_45" d="M118.05,22.8l-9.37,-11l-3.78,0l0,18.4l4.56,0l0,-10.64l9.36,10.64l3.76,0l0,-18.36l-4.53,0l0,10.96Z" style="fill:url(#_Linear3);fill-rule:nonzero;"/>        <path id="Path_46" d="M130.36,22.85l9,0l0,-3.67l-9,0l0,-3.45l9.78,0l0,-3.89l-14.33,0l0,18.36l14.41,0l0,-3.89l-9.86,0l0,-3.46Z" style="fill:url(#_Linear4);fill-rule:nonzero;"/>        <path id="Path_47" d="M142,15.78l6,0l0,14.42l4.53,0l0,-14.42l6,0l0,-3.94l-16.53,0l0,3.94Z" style="fill:url(#_Linear5);fill-rule:nonzero;"/>        <path id="Path_48" d="M175.41,21.63c0.879,-1.063 1.341,-2.411 1.3,-3.79c0.061,-1.643 -0.605,-3.232 -1.82,-4.34c-1.341,-1.153 -3.074,-1.747 -4.84,-1.66l-9.36,0l0,18.36l4.56,0l0,-6.3l1.32,0l5.58,6.3l5.5,0l-5.8,-6.53c1.386,-0.249 2.644,-0.97 3.56,-2.04Zm-5.86,-1.52l-4.3,0l0,-4.4l4.3,0c0.701,-0.041 1.393,0.172 1.95,0.6c0.463,0.402 0.729,0.987 0.729,1.6c0,0.613 -0.266,1.198 -0.729,1.6c-0.557,0.428 -1.249,0.641 -1.95,0.6Z" style="fill:url(#_Linear6);fill-rule:nonzero;"/>        <rect id="Rectangle_1" x="179.44" y="11.84" width="4.56" height="18.36" style="fill:url(#_Linear7);"/>        <path id="Path_49" d="M198,11.84l-4.67,0l-7.73,18.36l4.89,0l1.3,-3.35l7.79,0l1.3,3.35l4.85,0l-7.73,-18.36Zm-4.67,11.16l2.35,-6l2.38,6l-4.73,0Z" style="fill:url(#_Linear8);fill-rule:nonzero;"/>        <path id="Path_50" d="M69.38,23.21l-6.21,-11.37l-4.48,0l0,18.36l4.42,0l0,-9.2l4.89,9.2l2.82,0l4.8,-9.2l0,9.2l4.38,0l0,-18.36l-4.4,0l-6.22,11.37Z" style="fill:url(#_Linear9);fill-rule:nonzero;"/>        <path id="Path_51" d="M92.47,11.43c-2.616,-0.058 -5.146,0.954 -7,2.8c-3.727,3.657 -3.785,9.732 -0.13,13.46l0.13,0.14c3.912,3.677 10.088,3.677 14,0c1.83,-1.79 2.862,-4.245 2.862,-6.805c0,-2.491 -0.978,-4.886 -2.722,-6.665l-0.14,-0.13c-1.852,-1.849 -4.383,-2.861 -7,-2.8Zm3.79,13.49c-2.085,2.057 -5.485,2.057 -7.57,0c-1.022,-1.043 -1.572,-2.461 -1.52,-3.92c0,-2.907 2.393,-5.3 5.3,-5.3c2.907,0 5.3,2.393 5.3,5.3c0.049,1.445 -0.497,2.849 -1.51,3.88l0,0.04Z" style="fill:url(#_Linear10);fill-rule:nonzero;"/>        <path id="Path_52" d="M118.05,22.8l-9.37,-11l-3.78,0l0,18.4l4.56,0l0,-10.64l9.36,10.64l3.76,0l0,-18.36l-4.53,0l0,10.96Z" style="fill:url(#_Linear11);fill-rule:nonzero;"/>        <path id="Path_53" d="M130.36,22.85l9,0l0,-3.67l-9,0l0,-3.45l9.78,0l0,-3.89l-14.33,0l0,18.36l14.41,0l0,-3.89l-9.86,0l0,-3.46Z" style="fill:url(#_Linear12);fill-rule:nonzero;"/>        <path id="Path_54" d="M142,15.78l6,0l0,14.42l4.53,0l0,-14.42l6,0l0,-3.94l-16.53,0l0,3.94Z" style="fill:url(#_Linear13);fill-rule:nonzero;"/>        <path id="Path_55" d="M175.41,21.63c0.879,-1.063 1.341,-2.411 1.3,-3.79c0.061,-1.643 -0.605,-3.232 -1.82,-4.34c-1.341,-1.153 -3.074,-1.747 -4.84,-1.66l-9.36,0l0,18.36l4.56,0l0,-6.3l1.32,0l5.58,6.3l5.5,0l-5.8,-6.53c1.386,-0.249 2.644,-0.97 3.56,-2.04Zm-5.86,-1.52l-4.3,0l0,-4.4l4.3,0c0.701,-0.041 1.393,0.172 1.95,0.6c0.463,0.402 0.729,0.987 0.729,1.6c0,0.613 -0.266,1.198 -0.729,1.6c-0.557,0.428 -1.249,0.641 -1.95,0.6Z" style="fill:url(#_Linear14);fill-rule:nonzero;"/>        <rect id="Rectangle_2" x="179.44" y="11.84" width="4.56" height="18.36" style="fill:url(#_Linear15);"/>        <path id="Path_56" d="M198,11.84l-4.67,0l-7.73,18.36l4.89,0l1.3,-3.35l7.79,0l1.3,3.35l4.85,0l-7.73,-18.36Zm-4.67,11.16l2.35,-6l2.38,6l-4.73,0Z" style="fill:url(#_Linear16);fill-rule:nonzero;"/>        <path id="Path_57" d="M12.18,6.2c1.034,0.002 2.026,0.412 2.76,1.14l11.06,11.36c0.292,0.316 0.791,0.338 1.11,0.05l0,-0.05l10.38,-10.7c-3.979,-5.049 -10.064,-8 -16.493,-8c-11.52,0 -21,9.479 -21,21c0,11.52 9.48,21 21,21c4.717,0 9.299,-1.589 13.003,-4.51c0.38,-0.31 0.76,-0.62 1.12,-1l0,-14.49c0,-0.214 -0.176,-0.39 -0.39,-0.39c-0.106,-0.001 -0.208,0.043 -0.28,0.12l-6.8,7.74c-0.296,0.339 -0.725,0.533 -1.174,0.533c-0.382,0 -0.751,-0.14 -1.036,-0.393c-0.052,-0.042 -0.098,-0.088 -0.14,-0.14l-6.8,-7.74c-0.072,-0.075 -0.171,-0.118 -0.275,-0.118c-0.104,0 -0.203,0.043 -0.275,0.118c-0.077,0.069 -0.12,0.167 -0.12,0.27l0,15c-4.24,0 -7.67,-2.8 -7.67,-7l0,-21.85c0.027,-1.078 0.921,-1.95 2,-1.95l0.02,0Z" style="fill:url(#_Linear17);fill-rule:nonzero;"/>        <path id="Rectangle_3" d="M47.09,26.34c0,-0.132 -0.108,-0.24 -0.24,-0.24l-6.91,0c-0.132,0 -0.24,0.108 -0.24,0.24l0,6.86c0,0.132 0.108,0.24 0.24,0.24l6.91,0c0.132,0 0.24,-0.108 0.24,-0.24l0,-6.86Z" style="fill:url(#_Linear18);"/>        <path id="Rectangle_4" d="M46.63,14.718c0,-0.12 -0.098,-0.218 -0.218,-0.218l-5.174,0c-0.12,0 -0.218,0.098 -0.218,0.218l0,5.134c0,0.12 0.098,0.218 0.218,0.218l5.174,0c0.12,0 0.218,-0.098 0.218,-0.218l0,-5.134Z" style="fill:url(#_Linear19);"/>        <path id="Rectangle_5" d="M51.45,20.853c0,-0.084 -0.069,-0.153 -0.153,-0.153l-4.054,0c-0.084,0 -0.153,0.069 -0.153,0.153l0,4.024c0,0.084 0.069,0.153 0.153,0.153l4.054,0c0.084,0 0.153,-0.069 0.153,-0.153l0,-4.024Z" style="fill:url(#_Linear20);"/>        <path id="Rectangle_6" d="M49.8,10.319c0,-0.066 -0.053,-0.119 -0.119,-0.119l-2.972,0c-0.066,0 -0.119,0.053 -0.119,0.119l0,2.942c0,0.066 0.053,0.119 0.119,0.119l2.972,0c0.066,0 0.119,-0.053 0.119,-0.119l0,-2.942Z" style="fill:url(#_Linear21);"/>        <path id="Path_58" d="M26.52,31l-0.21,0c1.129,2.767 1.843,5.685 2.12,8.66c2.1,-0.835 4.044,-2.018 5.75,-3.5l0,-12.62l-5.74,6.55c-0.478,0.567 -1.179,0.899 -1.92,0.91Z" style="fill:url(#_Linear22);fill-rule:nonzero;"/>        <path id="Path_59" d="M20.9,1c-7.498,-0.003 -14.407,4.165 -17.9,10.8c2.139,0.41 4.23,1.04 6.24,1.88l0,-5.53c0,0 0,0 0,0c0,-1.602 1.318,-2.92 2.92,-2.92c0.01,0 0.02,0 0.03,0c1.298,0.008 2.543,0.521 3.47,1.43l10.87,11.23l9.65,-10c-3.85,-4.403 -9.431,-6.92 -15.28,-6.89Z" style="fill:url(#_Linear23);fill-rule:nonzero;"/>        <path id="Rectangle_7" d="M40.89,26.74l5,0c0.302,0 0.55,0.248 0.55,0.55l0,5c0,0.302 -0.248,0.55 -0.55,0.55l-5,0c-0.298,0 -0.545,-0.242 -0.55,-0.54l0,-5c0,-0.302 0.248,-0.55 0.55,-0.55l0,-0.01Z" style="fill:url(#_Linear24);fill-rule:nonzero;"/>        <path id="Rectangle_8" d="M45.99,15.229c0,-0.049 -0.04,-0.089 -0.089,-0.089l-4.152,0c-0.049,0 -0.089,0.04 -0.089,0.089l0,4.112c0,0.049 0.04,0.089 0.089,0.089l4.152,0c0.049,0 0.089,-0.04 0.089,-0.089l0,-4.112Z" style="fill:url(#_Linear25);"/>        <path id="Rectangle_9" d="M47.85,21.34l2.84,0c0.066,0 0.12,0.054 0.12,0.12l0,2.81c0,0.066 -0.054,0.12 -0.12,0.12l-2.84,0c-0.066,0 -0.12,-0.054 -0.12,-0.12l0,-2.81c0,-0.066 0.054,-0.12 0.12,-0.12Z" style="fill:url(#_Linear26);fill-rule:nonzero;"/>        <rect id="Rectangle_10" x="47.18" y="10.79" width="1.98" height="1.96" style="fill:url(#_Linear27);"/>    </g>    <defs>        <linearGradient id="_Linear1" x1="0" y1="0" x2="1" y2="0" gradientUnits="userSpaceOnUse" gradientTransform="matrix(21.35,0,0,21.35,58.421,22.1484)"><stop offset="0" style="stop-color:rgb(0,186,242);stop-opacity:1"/><stop offset="0.52" style="stop-color:rgb(0,99,176);stop-opacity:1"/><stop offset="1" style="stop-color:rgb(0,48,122);stop-opacity:1"/></linearGradient>        <linearGradient id="_Linear2" x1="0" y1="0" x2="1" y2="0" gradientUnits="userSpaceOnUse" gradientTransform="matrix(19.71,0,0,19.71,82.0367,24.4018)"><stop offset="0" style="stop-color:rgb(0,186,242);stop-opacity:1"/><stop offset="0.52" style="stop-color:rgb(0,99,176);stop-opacity:1"/><stop offset="1" style="stop-color:rgb(0,48,122);stop-opacity:1"/></linearGradient>        <linearGradient id="_Linear3" x1="0" y1="0" x2="1" y2="0" gradientUnits="userSpaceOnUse" gradientTransform="matrix(17.68,0,0,17.68,105.594,19.9448)"><stop offset="0" style="stop-color:rgb(0,186,242);stop-opacity:1"/><stop offset="0.52" style="stop-color:rgb(0,99,176);stop-opacity:1"/><stop offset="1" style="stop-color:rgb(0,48,122);stop-opacity:1"/></linearGradient>        <linearGradient id="_Linear4" x1="0" y1="0" x2="1" y2="0" gradientUnits="userSpaceOnUse" gradientTransform="matrix(14.42,0,0,14.42,126.241,18.9548)"><stop offset="0" style="stop-color:rgb(0,186,242);stop-opacity:1"/><stop offset="0.52" style="stop-color:rgb(0,99,176);stop-opacity:1"/><stop offset="1" style="stop-color:rgb(0,48,122);stop-opacity:1"/></linearGradient>        <linearGradient id="_Linear5" x1="0" y1="0" x2="1" y2="0" gradientUnits="userSpaceOnUse" gradientTransform="matrix(16.52,0,0,16.52,142.994,19.9448)"><stop offset="0" style="stop-color:rgb(0,186,242);stop-opacity:1"/><stop offset="0.52" style="stop-color:rgb(0,99,176);stop-opacity:1"/><stop offset="1" style="stop-color:rgb(0,48,122);stop-opacity:1"/></linearGradient>        <linearGradient id="_Linear6" x1="0" y1="0" x2="1" y2="0" gradientUnits="userSpaceOnUse" gradientTransform="matrix(16.96,0,0,16.96,159.942,18.154)"><stop offset="0" style="stop-color:rgb(0,186,242);stop-opacity:1"/><stop offset="0.52" style="stop-color:rgb(0,99,176);stop-opacity:1"/><stop offset="1" style="stop-color:rgb(0,48,122);stop-opacity:1"/></linearGradient>        <linearGradient id="_Linear7" x1="0" y1="0" x2="1" y2="0" gradientUnits="userSpaceOnUse" gradientTransform="matrix(4.56,0,0,4.56,179.58,18.9548)"><stop offset="0" style="stop-color:rgb(0,186,242);stop-opacity:1"/><stop offset="0.52" style="stop-color:rgb(0,99,176);stop-opacity:1"/><stop offset="1" style="stop-color:rgb(0,48,122);stop-opacity:1"/></linearGradient>        <linearGradient id="_Linear8" x1="0" y1="0" x2="1" y2="0" gradientUnits="userSpaceOnUse" gradientTransform="matrix(20.13,0,0,20.13,184.542,19.9448)"><stop offset="0" style="stop-color:rgb(0,186,242);stop-opacity:1"/><stop offset="0.52" style="stop-color:rgb(0,99,176);stop-opacity:1"/><stop offset="1" style="stop-color:rgb(0,48,122);stop-opacity:1"/></linearGradient>        <linearGradient id="_Linear9" x1="0" y1="0" x2="1" y2="0" gradientUnits="userSpaceOnUse" gradientTransform="matrix(147.101,0,0,147.101,58.421,22.1484)"><stop offset="0" style="stop-color:rgb(0,48,122);stop-opacity:1"/><stop offset="0.48" style="stop-color:rgb(0,99,176);stop-opacity:1"/><stop offset="1" style="stop-color:rgb(0,186,242);stop-opacity:1"/></linearGradient>        <linearGradient id="_Linear10" x1="0" y1="0" x2="1" y2="0" gradientUnits="userSpaceOnUse" gradientTransform="matrix(146.84,0,0,146.84,58.1876,24.4018)"><stop offset="0" style="stop-color:rgb(0,48,122);stop-opacity:1"/><stop offset="0.48" style="stop-color:rgb(0,99,176);stop-opacity:1"/><stop offset="1" style="stop-color:rgb(0,186,242);stop-opacity:1"/></linearGradient>        <linearGradient id="_Linear11" x1="0" y1="0" x2="1" y2="0" gradientUnits="userSpaceOnUse" gradientTransform="matrix(147.098,0,0,147.098,59.4496,19.9448)"><stop offset="0" style="stop-color:rgb(0,48,122);stop-opacity:1"/><stop offset="0.48" style="stop-color:rgb(0,99,176);stop-opacity:1"/><stop offset="1" style="stop-color:rgb(0,186,242);stop-opacity:1"/></linearGradient>        <linearGradient id="_Linear12" x1="0" y1="0" x2="1" y2="0" gradientUnits="userSpaceOnUse" gradientTransform="matrix(147.084,0,0,147.084,59.1878,18.9548)"><stop offset="0" style="stop-color:rgb(0,48,122);stop-opacity:1"/><stop offset="0.48" style="stop-color:rgb(0,99,176);stop-opacity:1"/><stop offset="1" style="stop-color:rgb(0,186,242);stop-opacity:1"/></linearGradient>        <linearGradient id="_Linear13" x1="0" y1="0" x2="1" y2="0" gradientUnits="userSpaceOnUse" gradientTransform="matrix(147.028,0,0,147.028,59.7332,19.9448)"><stop offset="0" style="stop-color:rgb(0,48,122);stop-opacity:1"/><stop offset="0.48" style="stop-color:rgb(0,99,176);stop-opacity:1"/><stop offset="1" style="stop-color:rgb(0,186,242);stop-opacity:1"/></linearGradient>        <linearGradient id="_Linear14" x1="0" y1="0" x2="1" y2="0" gradientUnits="userSpaceOnUse" gradientTransform="matrix(147.043,0,0,147.043,58.012,18.154)"><stop offset="0" style="stop-color:rgb(0,48,122);stop-opacity:1"/><stop offset="0.48" style="stop-color:rgb(0,99,176);stop-opacity:1"/><stop offset="1" style="stop-color:rgb(0,186,242);stop-opacity:1"/></linearGradient>        <linearGradient id="_Linear15" x1="0" y1="0" x2="1" y2="0" gradientUnits="userSpaceOnUse" gradientTransform="matrix(147.106,0,0,147.106,58.7852,18.9548)"><stop offset="0" style="stop-color:rgb(0,48,122);stop-opacity:1"/><stop offset="0.48" style="stop-color:rgb(0,99,176);stop-opacity:1"/><stop offset="1" style="stop-color:rgb(0,186,242);stop-opacity:1"/></linearGradient>        <linearGradient id="_Linear16" x1="0" y1="0" x2="1" y2="0" gradientUnits="userSpaceOnUse" gradientTransform="matrix(146.949,0,0,146.949,57.7232,19.9448)"><stop offset="0" style="stop-color:rgb(0,48,122);stop-opacity:1"/><stop offset="0.48" style="stop-color:rgb(0,99,176);stop-opacity:1"/><stop offset="1" style="stop-color:rgb(0,186,242);stop-opacity:1"/></linearGradient>        <linearGradient id="_Linear17" x1="0" y1="0" x2="1" y2="0" gradientUnits="userSpaceOnUse" gradientTransform="matrix(-61.4836,47.9028,-47.9028,-61.4836,78.6515,-25.5688)"><stop offset="0" style="stop-color:rgb(0,186,242);stop-opacity:1"/><stop offset="0.52" style="stop-color:rgb(0,99,176);stop-opacity:1"/><stop offset="1" style="stop-color:rgb(0,48,122);stop-opacity:1"/></linearGradient>        <linearGradient id="_Linear18" x1="0" y1="0" x2="1" y2="0" gradientUnits="userSpaceOnUse" gradientTransform="matrix(-61.7804,47.7834,-47.7834,-61.7804,90.0945,-12.2656)"><stop offset="0" style="stop-color:rgb(0,186,242);stop-opacity:1"/><stop offset="0.52" style="stop-color:rgb(0,99,176);stop-opacity:1"/><stop offset="1" style="stop-color:rgb(0,48,122);stop-opacity:1"/></linearGradient>        <linearGradient id="_Linear19" x1="0" y1="0" x2="1" y2="0" gradientUnits="userSpaceOnUse" gradientTransform="matrix(-61.7661,47.7906,-47.7906,-61.7661,84.751,-18.8619)"><stop offset="0" style="stop-color:rgb(0,186,242);stop-opacity:1"/><stop offset="0.52" style="stop-color:rgb(0,99,176);stop-opacity:1"/><stop offset="1" style="stop-color:rgb(0,48,122);stop-opacity:1"/></linearGradient>        <linearGradient id="_Linear20" x1="0" y1="0" x2="1" y2="0" gradientUnits="userSpaceOnUse" gradientTransform="matrix(-61.7812,47.8032,-47.8032,-61.7812,89.2016,-10.4455)"><stop offset="0" style="stop-color:rgb(0,186,242);stop-opacity:1"/><stop offset="0.52" style="stop-color:rgb(0,99,176);stop-opacity:1"/><stop offset="1" style="stop-color:rgb(0,48,122);stop-opacity:1"/></linearGradient>        <linearGradient id="_Linear21" x1="0" y1="0" x2="1" y2="0" gradientUnits="userSpaceOnUse" gradientTransform="matrix(-61.8246,47.7318,-47.7318,-61.8246,83.7507,-13.3516)"><stop offset="0" style="stop-color:rgb(0,186,242);stop-opacity:1"/><stop offset="0.52" style="stop-color:rgb(0,99,176);stop-opacity:1"/><stop offset="1" style="stop-color:rgb(0,48,122);stop-opacity:1"/></linearGradient>        <linearGradient id="_Linear22" x1="0" y1="0" x2="1" y2="0" gradientUnits="userSpaceOnUse" gradientTransform="matrix(-28.8829,47.5376,-47.5376,-28.8829,51.7052,-5.4822)"><stop offset="0" style="stop-color:rgb(0,186,242);stop-opacity:1"/><stop offset="0.52" style="stop-color:rgb(0,99,176);stop-opacity:1"/><stop offset="1" style="stop-color:rgb(0,48,122);stop-opacity:1"/></linearGradient>        <linearGradient id="_Linear23" x1="0" y1="0" x2="1" y2="0" gradientUnits="userSpaceOnUse" gradientTransform="matrix(-28.8753,47.489,-47.489,-28.8753,33.8341,-9.107)"><stop offset="0" style="stop-color:rgb(0,186,242);stop-opacity:1"/><stop offset="0.52" style="stop-color:rgb(0,99,176);stop-opacity:1"/><stop offset="1" style="stop-color:rgb(0,48,122);stop-opacity:1"/></linearGradient>        <linearGradient id="_Linear24" x1="0" y1="0" x2="1" y2="0" gradientUnits="userSpaceOnUse" gradientTransform="matrix(-28.8392,47.571,-47.571,-28.8392,60.0094,5.6528)"><stop offset="0" style="stop-color:rgb(0,186,242);stop-opacity:1"/><stop offset="0.52" style="stop-color:rgb(0,99,176);stop-opacity:1"/><stop offset="1" style="stop-color:rgb(0,48,122);stop-opacity:1"/></linearGradient>        <linearGradient id="_Linear25" x1="0" y1="0" x2="1" y2="0" gradientUnits="userSpaceOnUse" gradientTransform="matrix(-28.9244,47.5332,-47.5332,-28.9244,54.8966,2.7682)"><stop offset="0" style="stop-color:rgb(0,186,242);stop-opacity:1"/><stop offset="0.52" style="stop-color:rgb(0,99,176);stop-opacity:1"/><stop offset="1" style="stop-color:rgb(0,48,122);stop-opacity:1"/></linearGradient>        <linearGradient id="_Linear26" x1="0" y1="0" x2="1" y2="0" gradientUnits="userSpaceOnUse" gradientTransform="matrix(-28.8904,47.6442,-47.6442,-28.8904,61,-1.332)"><stop offset="0" style="stop-color:rgb(0,186,242);stop-opacity:1"/><stop offset="0.52" style="stop-color:rgb(0,99,176);stop-opacity:1"/><stop offset="1" style="stop-color:rgb(0,48,122);stop-opacity:1"/></linearGradient>        <linearGradient id="_Linear27" x1="0" y1="0" x2="1" y2="0" gradientUnits="userSpaceOnUse" gradientTransform="matrix(-29.1258,47.9024,-47.9024,-29.1258,54.8494,-0.418)"><stop offset="0" style="stop-color:rgb(0,186,242);stop-opacity:1"/><stop offset="0.52" style="stop-color:rgb(0,99,176);stop-opacity:1"/><stop offset="1" style="stop-color:rgb(0,48,122);stop-opacity:1"/></linearGradient>    </defs></svg>