<?xml version="1.0" encoding="UTF-8" standalone="no"?><!DOCTYPE svg PUBLIC "-//W3C//DTD SVG 1.1//EN" "http://www.w3.org/Graphics/SVG/1.1/DTD/svg11.dtd"><svg width="100%" height="100%" viewBox="0 0 1024 512" version="1.1" xmlns="http://www.w3.org/2000/svg" xmlns:xlink="http://www.w3.org/1999/xlink" xml:space="preserve" style="fill-rule:evenodd;clip-rule:evenodd;stroke-linejoin:round;stroke-miterlimit:2;"><title>CannerGrow</title><desc>Cannergrow is a project founded by Cannerald which combines professional cultivation with an easy to use Customer-End-Web interface. We offer the first and so far, only Plant-Growing-Service in the entire Cannabis industry. Anyone from all around the world can get started in the cannabis industry with us an be a virtual grower and get a piece of this huge billion-dollar market. We put the highest quality first to satisfy our customers. To be able to ensure this level of satisfaction, we strictly adhere to Swiss quality standards while setting new standards in the cannabis industry. </desc>    <g transform="matrix(2.10236,0,0,2.10236,-454.641,-269.22)">        <g transform="matrix(1,0,0,1,217.204,210.889)">            <path d="M130.44,25.58c0.23,0 0.35,0.15 0.35,0.35l0,1c0,0.23 -0.12,0.35 -0.35,0.35l-6.68,0c-7.53,0 -9.03,2.93 -9.03,12.62c0,9.65 1.51,12.58 9.03,12.58l6.68,0c0.23,0 0.35,0.12 0.35,0.35l0,1c0,0.19 -0.12,0.35 -0.35,0.35c-1.93,0.15 -4.98,0.19 -6.68,0.19c-9.07,0 -11.15,-3.4 -11.15,-14.47c0,-11.12 2.08,-14.51 11.15,-14.51c1.7,0 4.75,0.04 6.68,0.19Z" style="fill:rgb(102,102,102);fill-rule:nonzero;"/>            <path d="M154.4,29.79l6.68,24c0.08,0.31 0,0.39 -0.27,0.39l-1.58,0c-0.19,0 -0.23,-0.08 -0.31,-0.35l-2.62,-9.3l-12.54,0l-2.62,9.3c-0.08,0.27 -0.15,0.35 -0.35,0.35l-1.58,0c-0.27,0 -0.35,-0.08 -0.31,-0.39l6.83,-24c1.08,-3.82 1.5,-4.4 4.28,-4.4c2.96,0 3.35,0.58 4.39,4.4Zm-6.64,0.5l-3.47,12.31l11.46,0l-3.4,-12.31c-0.73,-2.59 -0.89,-3.01 -2.35,-3.01c-1.35,0 -1.5,0.42 -2.24,3.01Z" style="fill:rgb(102,102,102);fill-rule:nonzero;"/>            <path d="M193.07,25.58c0.23,0 0.35,0.12 0.35,0.35l0,27.9c0,0.23 -0.12,0.35 -0.35,0.35l-1.5,0c-0.27,0 -0.54,0 -0.89,-0.46l-17.21,-25.43l0,25.55c0,0.23 -0.15,0.35 -0.39,0.35l-1.39,0c-0.23,0 -0.39,-0.12 -0.39,-0.35l0,-27.9c0,-0.23 0.15,-0.35 0.39,-0.35l1.62,0c0.62,0 0.85,0.04 1.27,0.66l16.71,24.66l0,-24.98c0,-0.23 0.12,-0.35 0.35,-0.35l1.43,0Z" style="fill:rgb(102,102,102);fill-rule:nonzero;"/>            <path d="M227.57,25.58c0.23,0 0.35,0.12 0.35,0.35l0,27.9c0,0.23 -0.12,0.35 -0.35,0.35l-1.51,0c-0.27,0 -0.54,0 -0.89,-0.46l-17.21,-25.43l0,25.55c0,0.23 -0.15,0.35 -0.39,0.35l-1.39,0c-0.23,0 -0.39,-0.12 -0.39,-0.35l0,-27.9c0,-0.23 0.15,-0.35 0.39,-0.35l1.62,0c0.62,0 0.85,0.04 1.27,0.66l16.71,24.66l0,-24.98c0,-0.23 0.12,-0.35 0.35,-0.35l1.44,0Z" style="fill:rgb(102,102,102);fill-rule:nonzero;"/>            <path d="M257.78,25.58c0.23,0 0.35,0.12 0.35,0.35l0,1.2c0,0.23 -0.12,0.35 -0.35,0.35l-15.32,0l0,12.04l13.89,0c0.23,0 0.35,0.15 0.35,0.39l0,1.2c0,0.23 -0.12,0.35 -0.35,0.35l-13.89,0l0,10.85l15.32,0c0.23,0 0.35,0.12 0.35,0.35l0,1.2c0,0.23 -0.12,0.35 -0.35,0.35l-16.9,0c-0.39,0 -0.58,-0.19 -0.58,-0.54l0,-27.51c0,-0.39 0.19,-0.58 0.58,-0.58l16.9,0Z" style="fill:rgb(102,102,102);fill-rule:nonzero;"/>            <path d="M287.73,34.34c0,6.41 -1.7,8.18 -6.64,8.68l6.75,10.69c0.15,0.23 0.08,0.46 -0.27,0.46l-1.31,0c-0.5,0 -0.66,-0.15 -0.89,-0.5l-6.64,-10.46l-7.56,0l0,10.61c0,0.27 -0.12,0.35 -0.39,0.35l-1.39,0c-0.27,0 -0.39,-0.08 -0.39,-0.35l0,-27.93c0,-0.27 0.12,-0.35 0.39,-0.35c2.2,-0.12 5.06,-0.16 6.64,-0.16c8.84,0.01 11.7,0.82 11.7,8.96Zm-16.56,-7.06l0,14.01l4.75,0c7.49,0 9.69,-0.31 9.69,-6.91c0,-6.56 -2.2,-7.1 -9.69,-7.1l-4.75,0Z" style="fill:rgb(102,102,102);fill-rule:nonzero;"/>            <path d="M316.68,25.58c0.45,0.08 0.68,0.3 0.68,0.79l0,2.38c0,0.41 -0.19,0.6 -0.57,0.6l-7.77,0c-5.89,0 -6.91,2.38 -6.91,10.41c0,8.04 1.02,10.38 6.91,10.38l5.24,0l0,-9.58c0,-0.38 0.19,-0.6 0.57,-0.6l3.43,0c0.38,0 0.57,0.23 0.57,0.6l0,10.98c0,0.49 -0.04,0.64 -0.15,0.83c-0.83,1.66 -5.74,2 -9.66,2c-9.4,0 -11.81,-3.32 -11.81,-14.6c0,-11.32 2.42,-14.64 11.81,-14.64c2.38,-0.01 5.77,0.11 7.66,0.45Z" style="fill:rgb(102,102,102);fill-rule:nonzero;"/>            <path d="M348.72,34.52c0,5.89 -1.59,8.04 -6,8.72l6.38,10.19c0.3,0.41 0.11,0.75 -0.45,0.75l-3.51,0c-0.87,0 -1.13,-0.26 -1.51,-0.83l-6.23,-9.81l-4.6,0.04l0,10.04c0,0.45 -0.11,0.57 -0.57,0.57l-3.74,0c-0.45,0 -0.57,-0.11 -0.57,-0.57l0,-27.67c0,-0.41 0.11,-0.49 0.57,-0.53c3.02,-0.23 6.42,-0.3 9.02,-0.3c8.38,0 11.21,1.74 11.21,9.4Zm-15.92,-5.17l0,10.34l4.26,0c5.36,0 6.75,-0.45 6.75,-5.06c0,-4.49 -1.4,-5.28 -6.75,-5.28l-4.26,0Z" style="fill:rgb(102,102,102);fill-rule:nonzero;"/>            <path d="M380.53,39.8c0,11.25 -2.42,14.57 -11.85,14.57c-9.4,0 -11.85,-3.32 -11.85,-14.57c0,-11.32 2.45,-14.68 11.85,-14.68c9.44,0 11.85,3.36 11.85,14.68Zm-18.79,0c0,7.96 1.06,10.34 6.94,10.34c5.89,0 6.98,-2.38 6.98,-10.34c0,-8.04 -1.09,-10.45 -6.98,-10.45c-5.88,0 -6.94,2.41 -6.94,10.45Z" style="fill:rgb(102,102,102);fill-rule:nonzero;"/>            <path d="M426.16,25.31c0.45,0 0.57,0.11 0.49,0.6l-4.91,24c-0.79,3.92 -1.47,4.45 -5.28,4.45c-4.26,0 -4.72,-0.49 -5.66,-4.45l-3.74,-15.74l-3.74,15.74c-0.98,3.96 -1.4,4.45 -5.7,4.45c-3.77,0 -4.45,-0.53 -5.24,-4.45l-4.91,-24c-0.08,-0.49 0.04,-0.6 0.49,-0.6l3.92,0c0.34,0 0.41,0.11 0.53,0.6l4.45,22.15c0.26,1.32 0.49,1.59 1.13,1.59c0.79,0 0.94,-0.26 1.32,-1.59l5.17,-21.06c0.11,-0.49 0.38,-0.6 0.72,-0.6l3.7,0c0.34,0 0.6,0.11 0.72,0.6l5.17,21.06c0.34,1.32 0.53,1.59 1.32,1.59c0.64,0 0.83,-0.26 1.13,-1.59l4.45,-22.15c0.08,-0.49 0.19,-0.6 0.49,-0.6l3.98,0Z" style="fill:rgb(102,102,102);fill-rule:nonzero;"/>        </g>        <g transform="matrix(1,0,0,1,217.204,210.889)">            <path d="M93.88,29.9c-5.11,0 -9.26,4.15 -9.26,9.26c0,5.11 4.15,9.26 9.26,9.26c5.11,0 9.26,-4.15 9.26,-9.26c0,-5.11 -4.14,-9.26 -9.26,-9.26Zm5.73,11.2l-3.76,0l0,3.76l-3.87,0l0,-3.76l-3.76,0l0,-3.87l3.76,0l0,-3.76l3.87,0l0,3.76l3.76,0l0,3.87Z" style="fill:rgb(255,0,0);fill-rule:nonzero;"/>        </g>        <g transform="matrix(1,0,0,1,217.204,210.889)">            <path d="M62.96,10.18c-0.2,0 -0.4,0.05 -0.57,0.15c-0.36,0.2 -0.58,0.59 -0.58,1l0,3.98c0,0.41 0.22,0.79 0.57,0.99l17.15,10.58c2.06,1.2 4.85,1.24 6.97,0.06c2.4,-1.33 3.84,-3.76 3.86,-6.5c0.02,-2.74 -1.38,-5.19 -3.75,-6.56l-20.86,-12.64c-2.87,-1.65 -6.45,-1.65 -9.32,0.01l-19.54,11.19c-0.32,0.18 -0.53,0.51 -0.57,0.88c-0.04,0.37 0.11,0.73 0.38,0.98l2.74,2.4c0.37,0.32 0.9,0.38 1.33,0.13l18.07,-10.34c1.39,-0.8 3.12,-0.8 4.51,0l20.48,12.41c0.54,0.31 0.86,0.89 0.84,1.53c-0.02,0.65 -0.38,1.2 -0.95,1.49c-0.51,0.26 -1.18,0.21 -1.75,-0.12l-18.45,-11.47c-0.17,-0.1 -0.36,-0.15 -0.56,-0.15Zm-34.97,13.44c-0.16,0 -0.32,0.03 -0.47,0.1c-0.41,0.18 -0.68,0.59 -0.68,1.05l-0.02,29.62c0,3.17 1.7,6.13 4.45,7.71l25.15,14.54c2.83,1.63 6.52,1.64 9.35,0.01l20.83,-12.63c2.39,-1.38 3.79,-3.83 3.77,-6.57c-0.02,-2.74 -1.47,-5.17 -3.86,-6.49c-2.17,-1.2 -4.85,-1.17 -7,0.07l-17.11,10.56c-0.37,0.22 -0.59,0.6 -0.59,1l0,3.98c0,0.41 0.22,0.79 0.58,0.99c0.36,0.21 0.8,0.2 1.15,-0.01l18.41,-11.45c0.58,-0.35 1.26,-0.39 1.77,-0.13c0.57,0.28 0.93,0.84 0.95,1.48c0.02,0.65 -0.3,1.22 -0.86,1.55l-20.45,12.4c-1.41,0.81 -3.14,0.81 -4.53,0.01l-24.18,-13.99c-1.28,-0.74 -2.08,-2.13 -2.08,-3.61l0.01,-25.95c0,-0.33 -0.14,-0.64 -0.38,-0.85l-3.45,-3.09c-0.21,-0.2 -0.48,-0.3 -0.76,-0.3Z" style="fill:rgb(102,102,102);fill-rule:nonzero;"/>        </g>        <g transform="matrix(1,0,0,1,217.204,210.889)">            <path d="M20.49,7.8c1.71,0 3.35,0.62 4.63,1.74l13.14,11.54c1.73,1.52 2.73,3.72 2.73,6.02l0,28.62c0,0.08 -0.05,0.16 -0.12,0.2c-0.04,0.02 -0.08,0.03 -0.12,0.03c-0.03,0 -0.07,-0.01 -0.12,-0.03l-3.66,-2.08c-0.07,-0.04 -0.12,-0.12 -0.12,-0.2l0,-25.95c0,-1.45 -0.63,-2.84 -1.72,-3.8l-11.88,-10.44c-0.29,-0.26 -0.62,-0.49 -0.97,-0.65c-1.57,-0.72 -3.31,-0.42 -4.52,0.64l-11.89,10.44c-1.1,0.97 -1.73,2.36 -1.73,3.83l0,24.63c0,1.27 0.55,2.49 1.5,3.33l12.36,10.93c0.83,0.71 1.66,1.06 2.56,1.06c0.84,0 1.65,-0.31 2.46,-0.93l3.48,-2.65c0.05,-0.04 0.11,-0.05 0.14,-0.05c0.04,0 0.08,0.01 0.12,0.03l3.35,1.99c0.07,0.04 0.11,0.11 0.11,0.19c0.01,0.08 -0.03,0.15 -0.09,0.2l-5.04,4.06c-1.26,1.01 -2.83,1.57 -4.44,1.57c-1.71,0 -3.37,-0.62 -4.66,-1.76l-13.31,-11.69c-1.7,-1.49 -2.68,-3.65 -2.68,-5.92l0,-24.48c0,-3.02 1.3,-5.9 3.57,-7.89l12.29,-10.8c1.28,-1.12 2.92,-1.73 4.63,-1.73" style="fill:rgb(191,198,0);fill-rule:nonzero;"/>        </g>        <g transform="matrix(1,0,0,1,217.204,210.889)">            <path d="M485.13,31.94c-0.01,-3.21 -1.72,-6.18 -4.51,-7.78l-13.59,-7.82c-2.78,-1.6 -6.21,-1.6 -8.99,0.01l-13.57,7.86c-2.78,1.61 -4.49,4.58 -4.48,7.79l0.03,15.68c0.01,3.21 1.72,6.18 4.51,7.78l6.57,3.78c0.45,-2.53 1.83,-4.75 3.8,-6.27c3.88,1.95 6.5,6 6.59,10.81c0,0.27 0.34,0.33 0.63,0.12c3.85,-2.64 5.56,-6.83 5.22,-10.98c2.33,1.78 3.88,4.55 4.01,7.71l0,0.19l9.34,-5.41c2.78,-1.61 4.49,-4.58 4.48,-7.79l-0.04,-15.68Zm-1.88,1.98l-0.34,0.41c-3.78,4.62 -11.42,6.38 -17.36,5.73c-0.9,-0.1 -1.8,0.34 -1.6,1.54c0.21,1.2 0.85,6.11 -0.46,10.88c-0.31,1.12 0.29,1.86 1.26,1.8l0.12,-0.01c0.6,-0.04 1.18,0.06 1.71,0.26c-0.15,3.11 -1.55,6.14 -4.08,8.29c-0.11,0.1 -0.37,0.11 -0.37,-0.08c0.07,-3.63 -2.14,-7.09 -4.7,-9.3c2.39,-1.48 5.18,-5.4 4.02,-10.64c-0.35,-1.59 -0.6,-2.3 -1.72,-2.38l-1.04,-0.08c-6.47,-0.48 -12.22,-4.01 -15.24,-9.34l-0.85,-1.51c-0.39,-0.7 0.11,-1.54 0.96,-1.59l3.72,-0.23c5.83,-0.36 11.32,2.83 13.92,7.69l0.59,1.11c0.34,0.64 1.5,1.32 2.94,-0.08l0.7,-0.95c3.01,-4.41 8.12,-4.9 13.87,-3.82l3.3,0.64c0.79,0.11 1.16,1.04 0.65,1.66Z" style="fill:rgb(191,198,0);fill-rule:nonzero;"/>        </g>    </g></svg>