<?xml version="1.0" encoding="UTF-8" standalone="no"?><!DOCTYPE svg PUBLIC "-//W3C//DTD SVG 1.1//EN" "http://www.w3.org/Graphics/SVG/1.1/DTD/svg11.dtd"><svg width="100%" height="100%" viewBox="0 0 1024 512" version="1.1" xmlns="http://www.w3.org/2000/svg" xmlns:xlink="http://www.w3.org/1999/xlink" xml:space="preserve" style="fill-rule:evenodd;clip-rule:evenodd;stroke-linejoin:round;stroke-miterlimit:2;"><title>Swiss Crowdfunding Association</title><desc>The Purpose of the association is to gather all the crowdfunding platforms in SwitzerlandPROMOTE THE DOMAIN OF CROWDFUNDING IN SWITZERLANDHELP TO DISSEMINATE THE BEST PRACTICES IN THE DOMAIN AMONG ITS ACTORSDO APPLIED RESEARCH IN THE FIELD AND, SPECIFICALLY, STUDY THE EVOLUTION OF THE DOMAIN IN SWITZERLAND AND IN OTHER COUNTRIESBE THE REFERENCE ORGANIZATION TO DISSEMINATE INFORMATION ON CROWDFUNDING TO MEDIAS AND POLITICIANS</desc>    <g transform="matrix(1.45167,0,0,1.45167,2,132.591)">        <rect x="0" y="0" width="170" height="170" style="fill:rgb(148,1,6);"/>        <g transform="matrix(1,0,0,1,-0.5,0)">            <path d="M47,73l26.5,0l0,-26.5l24,0l0,26.5l26.5,0l0,24l-26.5,0l0,26.5l-24,0l0,-26.5l-26.5,0l0,-24Z" style="fill:white;"/>        </g>        <g transform="matrix(0.872964,0,0,0.347561,-74.3974,-10.4268)">            <g transform="matrix(64.1493,0,0,161.123,296,143.177)">                <path d="M0.437,-0.594c-0.015,-0.021 -0.035,-0.038 -0.059,-0.051c-0.024,-0.013 -0.053,-0.02 -0.087,-0.02c-0.017,0 -0.035,0.003 -0.053,0.008c-0.018,0.005 -0.034,0.013 -0.049,0.024c-0.015,0.011 -0.026,0.025 -0.036,0.042c-0.009,0.017 -0.013,0.036 -0.013,0.059c0,0.023 0.004,0.041 0.013,0.056c0.009,0.015 0.02,0.027 0.035,0.037c0.014,0.011 0.03,0.019 0.049,0.026c0.018,0.007 0.037,0.013 0.057,0.02c0.025,0.008 0.049,0.017 0.075,0.026c0.025,0.009 0.047,0.021 0.067,0.036c0.02,0.015 0.036,0.034 0.049,0.057c0.013,0.023 0.019,0.053 0.019,0.088c0,0.035 -0.007,0.066 -0.021,0.091c-0.013,0.026 -0.031,0.047 -0.052,0.064c-0.022,0.017 -0.047,0.029 -0.075,0.037c-0.027,0.008 -0.055,0.012 -0.083,0.012c-0.021,0 -0.043,-0.002 -0.064,-0.007c-0.021,-0.004 -0.042,-0.01 -0.061,-0.019c-0.019,-0.009 -0.037,-0.02 -0.054,-0.033c-0.017,-0.013 -0.031,-0.029 -0.044,-0.046l0.062,-0.046c0.015,0.025 0.037,0.046 0.065,0.063c0.027,0.017 0.06,0.026 0.097,0.026c0.018,0 0.036,-0.003 0.055,-0.009c0.019,-0.005 0.035,-0.014 0.05,-0.026c0.016,-0.011 0.028,-0.026 0.037,-0.043c0.01,-0.017 0.015,-0.036 0.015,-0.059c0,-0.025 -0.005,-0.045 -0.015,-0.062c-0.009,-0.016 -0.022,-0.03 -0.038,-0.041c-0.016,-0.011 -0.034,-0.02 -0.055,-0.027c-0.021,-0.007 -0.042,-0.015 -0.065,-0.022c-0.023,-0.007 -0.046,-0.016 -0.069,-0.025c-0.023,-0.009 -0.043,-0.022 -0.061,-0.037c-0.018,-0.015 -0.032,-0.033 -0.043,-0.055c-0.011,-0.022 -0.017,-0.049 -0.017,-0.081c0,-0.034 0.007,-0.063 0.021,-0.088c0.013,-0.025 0.031,-0.045 0.053,-0.061c0.022,-0.016 0.046,-0.028 0.073,-0.035c0.027,-0.007 0.053,-0.011 0.079,-0.011c0.048,0 0.089,0.009 0.123,0.025c0.034,0.017 0.06,0.038 0.077,0.061l-0.057,0.046Z" style="fill:rgb(148,1,6);fill-rule:nonzero;"/>            </g>            <g transform="matrix(64.1493,0,0,161.123,335.708,143.177)">                <path d="M0.265,-0.099l0.002,0l0.177,-0.609l0.086,0l0.177,0.609l0.002,0l0.173,-0.609l0.076,0l-0.209,0.708l-0.084,0l-0.178,-0.608l-0.002,0l-0.178,0.608l-0.084,0l-0.209,-0.708l0.076,0l0.175,0.609Z" style="fill:rgb(148,1,6);fill-rule:nonzero;"/>            </g>            <g transform="matrix(64.1493,0,0,161.123,401.59,143.177)">                <rect x="0.094" y="-0.708" width="0.072" height="0.708" style="fill:rgb(148,1,6);fill-rule:nonzero;"/>            </g>            <g transform="matrix(64.1493,0,0,161.123,421.797,143.177)">                <path d="M0.437,-0.594c-0.015,-0.021 -0.035,-0.038 -0.059,-0.051c-0.024,-0.013 -0.053,-0.02 -0.087,-0.02c-0.017,0 -0.035,0.003 -0.053,0.008c-0.018,0.005 -0.034,0.013 -0.049,0.024c-0.015,0.011 -0.026,0.025 -0.036,0.042c-0.009,0.017 -0.013,0.036 -0.013,0.059c0,0.023 0.004,0.041 0.013,0.056c0.009,0.015 0.02,0.027 0.035,0.037c0.014,0.011 0.03,0.019 0.049,0.026c0.018,0.007 0.037,0.013 0.057,0.02c0.025,0.008 0.049,0.017 0.075,0.026c0.025,0.009 0.047,0.021 0.067,0.036c0.02,0.015 0.036,0.034 0.049,0.057c0.013,0.023 0.019,0.053 0.019,0.088c0,0.035 -0.007,0.066 -0.021,0.091c-0.013,0.026 -0.031,0.047 -0.052,0.064c-0.022,0.017 -0.047,0.029 -0.075,0.037c-0.027,0.008 -0.055,0.012 -0.083,0.012c-0.021,0 -0.043,-0.002 -0.064,-0.007c-0.021,-0.004 -0.042,-0.01 -0.061,-0.019c-0.019,-0.009 -0.037,-0.02 -0.054,-0.033c-0.017,-0.013 -0.031,-0.029 -0.044,-0.046l0.062,-0.046c0.015,0.025 0.037,0.046 0.065,0.063c0.027,0.017 0.06,0.026 0.097,0.026c0.018,0 0.036,-0.003 0.055,-0.009c0.019,-0.005 0.035,-0.014 0.05,-0.026c0.016,-0.011 0.028,-0.026 0.037,-0.043c0.01,-0.017 0.015,-0.036 0.015,-0.059c0,-0.025 -0.005,-0.045 -0.015,-0.062c-0.009,-0.016 -0.022,-0.03 -0.038,-0.041c-0.016,-0.011 -0.034,-0.02 -0.055,-0.027c-0.021,-0.007 -0.042,-0.015 -0.065,-0.022c-0.023,-0.007 -0.046,-0.016 -0.069,-0.025c-0.023,-0.009 -0.043,-0.022 -0.061,-0.037c-0.018,-0.015 -0.032,-0.033 -0.043,-0.055c-0.011,-0.022 -0.017,-0.049 -0.017,-0.081c0,-0.034 0.007,-0.063 0.021,-0.088c0.013,-0.025 0.031,-0.045 0.053,-0.061c0.022,-0.016 0.046,-0.028 0.073,-0.035c0.027,-0.007 0.053,-0.011 0.079,-0.011c0.048,0 0.089,0.009 0.123,0.025c0.034,0.017 0.06,0.038 0.077,0.061l-0.057,0.046Z" style="fill:rgb(148,1,6);fill-rule:nonzero;"/>            </g>            <g transform="matrix(64.1493,0,0,161.123,461.505,143.177)">                <path d="M0.437,-0.594c-0.015,-0.021 -0.035,-0.038 -0.059,-0.051c-0.024,-0.013 -0.053,-0.02 -0.087,-0.02c-0.017,0 -0.035,0.003 -0.053,0.008c-0.018,0.005 -0.034,0.013 -0.049,0.024c-0.015,0.011 -0.026,0.025 -0.036,0.042c-0.009,0.017 -0.013,0.036 -0.013,0.059c0,0.023 0.004,0.041 0.013,0.056c0.009,0.015 0.02,0.027 0.035,0.037c0.014,0.011 0.03,0.019 0.049,0.026c0.018,0.007 0.037,0.013 0.057,0.02c0.025,0.008 0.049,0.017 0.075,0.026c0.025,0.009 0.047,0.021 0.067,0.036c0.02,0.015 0.036,0.034 0.049,0.057c0.013,0.023 0.019,0.053 0.019,0.088c0,0.035 -0.007,0.066 -0.021,0.091c-0.013,0.026 -0.031,0.047 -0.052,0.064c-0.022,0.017 -0.047,0.029 -0.075,0.037c-0.027,0.008 -0.055,0.012 -0.083,0.012c-0.021,0 -0.043,-0.002 -0.064,-0.007c-0.021,-0.004 -0.042,-0.01 -0.061,-0.019c-0.019,-0.009 -0.037,-0.02 -0.054,-0.033c-0.017,-0.013 -0.031,-0.029 -0.044,-0.046l0.062,-0.046c0.015,0.025 0.037,0.046 0.065,0.063c0.027,0.017 0.06,0.026 0.097,0.026c0.018,0 0.036,-0.003 0.055,-0.009c0.019,-0.005 0.035,-0.014 0.05,-0.026c0.016,-0.011 0.028,-0.026 0.037,-0.043c0.01,-0.017 0.015,-0.036 0.015,-0.059c0,-0.025 -0.005,-0.045 -0.015,-0.062c-0.009,-0.016 -0.022,-0.03 -0.038,-0.041c-0.016,-0.011 -0.034,-0.02 -0.055,-0.027c-0.021,-0.007 -0.042,-0.015 -0.065,-0.022c-0.023,-0.007 -0.046,-0.016 -0.069,-0.025c-0.023,-0.009 -0.043,-0.022 -0.061,-0.037c-0.018,-0.015 -0.032,-0.033 -0.043,-0.055c-0.011,-0.022 -0.017,-0.049 -0.017,-0.081c0,-0.034 0.007,-0.063 0.021,-0.088c0.013,-0.025 0.031,-0.045 0.053,-0.061c0.022,-0.016 0.046,-0.028 0.073,-0.035c0.027,-0.007 0.053,-0.011 0.079,-0.011c0.048,0 0.089,0.009 0.123,0.025c0.034,0.017 0.06,0.038 0.077,0.061l-0.057,0.046Z" style="fill:rgb(148,1,6);fill-rule:nonzero;"/>            </g>        </g>        <g transform="matrix(1.92508,0,0,1,-353.824,35)">            <g transform="matrix(29.0897,0,0,56,296,69.336)">                <path d="M0.69,-0.114c-0.012,0.018 -0.027,0.035 -0.044,0.051c-0.016,0.016 -0.036,0.03 -0.058,0.042c-0.023,0.012 -0.047,0.021 -0.075,0.028c-0.027,0.007 -0.056,0.011 -0.088,0.011c-0.053,0 -0.103,-0.009 -0.148,-0.028c-0.045,-0.019 -0.084,-0.045 -0.117,-0.078c-0.033,-0.033 -0.058,-0.072 -0.077,-0.117c-0.018,-0.045 -0.027,-0.095 -0.027,-0.149c0,-0.054 0.009,-0.104 0.028,-0.149c0.019,-0.045 0.044,-0.085 0.077,-0.118c0.033,-0.033 0.072,-0.058 0.117,-0.077c0.046,-0.019 0.094,-0.028 0.147,-0.028c0.026,0 0.051,0.003 0.077,0.008c0.025,0.005 0.048,0.013 0.07,0.022c0.022,0.01 0.042,0.022 0.06,0.035c0.018,0.014 0.033,0.03 0.045,0.047l-0.06,0.044c-0.007,-0.011 -0.017,-0.023 -0.03,-0.034c-0.012,-0.011 -0.026,-0.021 -0.043,-0.03c-0.017,-0.009 -0.035,-0.016 -0.055,-0.021c-0.019,-0.005 -0.04,-0.008 -0.063,-0.008c-0.046,0 -0.087,0.008 -0.124,0.025c-0.036,0.017 -0.067,0.039 -0.092,0.067c-0.025,0.029 -0.045,0.062 -0.058,0.099c-0.013,0.037 -0.02,0.077 -0.02,0.118c0,0.041 0.007,0.081 0.02,0.118c0.014,0.037 0.034,0.07 0.059,0.098c0.025,0.029 0.056,0.051 0.092,0.068c0.037,0.017 0.078,0.025 0.123,0.025c0.041,0 0.079,-0.008 0.116,-0.025c0.037,-0.017 0.067,-0.043 0.092,-0.08l0.056,0.036Z" style="fill:rgb(148,1,6);fill-rule:nonzero;"/>            </g>            <g transform="matrix(29.0897,0,0,56,317.701,69.336)">                <path d="M0.166,0l-0.072,0l0,-0.708l0.208,0c0.035,0 0.067,0.003 0.096,0.01c0.03,0.007 0.056,0.017 0.078,0.032c0.021,0.015 0.038,0.035 0.05,0.059c0.012,0.024 0.018,0.053 0.018,0.088c0,0.026 -0.005,0.05 -0.014,0.071c-0.009,0.021 -0.022,0.04 -0.038,0.055c-0.016,0.016 -0.035,0.029 -0.057,0.038c-0.022,0.009 -0.046,0.015 -0.072,0.018l0.207,0.337l-0.088,0l-0.196,-0.331l-0.12,0l0,0.331Zm0,-0.393l0.125,0c0.058,0 0.103,-0.011 0.134,-0.032c0.031,-0.021 0.047,-0.052 0.047,-0.094c0,-0.023 -0.004,-0.043 -0.013,-0.059c-0.009,-0.016 -0.021,-0.029 -0.036,-0.039c-0.015,-0.01 -0.034,-0.017 -0.056,-0.022c-0.022,-0.005 -0.046,-0.007 -0.073,-0.007l-0.128,0l0,0.253Z" style="fill:rgb(148,1,6);fill-rule:nonzero;"/>            </g>            <g transform="matrix(29.0897,0,0,56,335.882,69.336)">                <path d="M0.794,-0.354c0,0.054 -0.009,0.104 -0.028,0.149c-0.019,0.045 -0.045,0.084 -0.078,0.117c-0.033,0.033 -0.072,0.059 -0.117,0.078c-0.045,0.019 -0.093,0.028 -0.146,0.028c-0.053,0 -0.101,-0.009 -0.147,-0.028c-0.045,-0.019 -0.084,-0.045 -0.117,-0.078c-0.033,-0.033 -0.058,-0.072 -0.077,-0.117c-0.019,-0.045 -0.028,-0.095 -0.028,-0.149c0,-0.054 0.009,-0.104 0.028,-0.149c0.019,-0.045 0.044,-0.085 0.077,-0.118c0.033,-0.033 0.072,-0.058 0.117,-0.077c0.046,-0.019 0.094,-0.028 0.147,-0.028c0.053,0 0.101,0.009 0.146,0.028c0.045,0.019 0.084,0.044 0.117,0.077c0.033,0.033 0.059,0.073 0.078,0.118c0.019,0.045 0.028,0.095 0.028,0.149Zm-0.076,0c0,-0.041 -0.007,-0.081 -0.02,-0.118c-0.013,-0.037 -0.033,-0.07 -0.058,-0.099c-0.025,-0.028 -0.056,-0.05 -0.093,-0.067c-0.036,-0.017 -0.077,-0.025 -0.122,-0.025c-0.045,0 -0.086,0.008 -0.123,0.025c-0.036,0.017 -0.067,0.039 -0.092,0.067c-0.025,0.029 -0.045,0.062 -0.058,0.099c-0.013,0.037 -0.02,0.077 -0.02,0.118c0,0.041 0.007,0.081 0.02,0.118c0.013,0.037 0.033,0.07 0.058,0.098c0.025,0.028 0.056,0.05 0.092,0.067c0.037,0.017 0.078,0.025 0.123,0.025c0.045,0 0.086,-0.008 0.122,-0.025c0.037,-0.017 0.068,-0.039 0.093,-0.067c0.025,-0.028 0.045,-0.061 0.058,-0.098c0.013,-0.037 0.02,-0.077 0.02,-0.118Z" style="fill:rgb(148,1,6);fill-rule:nonzero;"/>            </g>            <g transform="matrix(29.0897,0,0,56,361.365,69.336)">                <path d="M0.265,-0.099l0.002,0l0.177,-0.609l0.086,0l0.177,0.609l0.002,0l0.173,-0.609l0.076,0l-0.209,0.708l-0.084,0l-0.178,-0.608l-0.002,0l-0.178,0.608l-0.084,0l-0.209,-0.708l0.076,0l0.175,0.609Z" style="fill:rgb(148,1,6);fill-rule:nonzero;"/>            </g>            <g transform="matrix(29.0897,0,0,56,390.396,69.336)">                <path d="M0.094,-0.708l0.235,0c0.044,0 0.088,0.007 0.133,0.022c0.044,0.015 0.084,0.037 0.119,0.066c0.036,0.03 0.065,0.067 0.087,0.111c0.022,0.045 0.033,0.096 0.033,0.155c0,0.059 -0.011,0.111 -0.033,0.155c-0.022,0.044 -0.051,0.081 -0.087,0.11c-0.035,0.03 -0.075,0.052 -0.12,0.067c-0.044,0.015 -0.088,0.022 -0.132,0.022l-0.235,0l0,-0.708Zm0.072,0.644l0.143,0c0.053,0 0.1,-0.008 0.139,-0.025c0.04,-0.017 0.073,-0.039 0.099,-0.066c0.026,-0.027 0.045,-0.057 0.058,-0.092c0.013,-0.035 0.02,-0.07 0.02,-0.107c0,-0.037 -0.007,-0.072 -0.02,-0.107c-0.013,-0.035 -0.032,-0.066 -0.058,-0.093c-0.026,-0.027 -0.059,-0.048 -0.099,-0.065c-0.039,-0.017 -0.086,-0.025 -0.139,-0.025l-0.143,0l0,0.58Z" style="fill:rgb(148,1,6);fill-rule:nonzero;"/>            </g>            <g transform="matrix(29.0897,0,0,56,413.173,69.336)">                <path d="M0.166,0l-0.072,0l0,-0.708l0.427,0l0,0.064l-0.355,0l0,0.246l0.33,0l0,0.063l-0.33,0l0,0.335Z" style="fill:rgb(148,1,6);fill-rule:nonzero;"/>            </g>            <g transform="matrix(29.0897,0,0,56,430.278,69.336)">                <path d="M0.355,0.018c-0.053,0 -0.097,-0.009 -0.131,-0.028c-0.034,-0.018 -0.061,-0.041 -0.081,-0.069c-0.02,-0.028 -0.034,-0.058 -0.041,-0.092c-0.008,-0.033 -0.012,-0.064 -0.012,-0.093l0,-0.444l0.072,0l0,0.436c0,0.029 0.003,0.056 0.01,0.083c0.007,0.027 0.018,0.051 0.033,0.072c0.015,0.021 0.034,0.038 0.059,0.051c0.025,0.013 0.055,0.02 0.091,0.02c0.036,0 0.066,-0.007 0.091,-0.02c0.025,-0.013 0.045,-0.03 0.06,-0.051c0.015,-0.021 0.025,-0.045 0.032,-0.072c0.007,-0.027 0.01,-0.054 0.01,-0.083l0,-0.436l0.072,0l0,0.444c0,0.029 -0.004,0.06 -0.012,0.093c-0.007,0.033 -0.021,0.064 -0.041,0.092c-0.02,0.028 -0.047,0.051 -0.082,0.069c-0.034,0.019 -0.077,0.028 -0.13,0.028Z" style="fill:rgb(148,1,6);fill-rule:nonzero;"/>            </g>            <g transform="matrix(29.0897,0,0,56,451.688,69.336)">                <path d="M0.596,-0.105l0.002,0l0,-0.603l0.072,0l0,0.708l-0.09,0l-0.412,-0.609l-0.002,0l0,0.609l-0.072,0l0,-0.708l0.09,0l0.412,0.603Z" style="fill:rgb(148,1,6);fill-rule:nonzero;"/>            </g>            <g transform="matrix(29.0897,0,0,56,474.669,69.336)">                <path d="M0.094,-0.708l0.235,0c0.044,0 0.088,0.007 0.133,0.022c0.044,0.015 0.084,0.037 0.119,0.066c0.036,0.03 0.065,0.067 0.087,0.111c0.022,0.045 0.033,0.096 0.033,0.155c0,0.059 -0.011,0.111 -0.033,0.155c-0.022,0.044 -0.051,0.081 -0.087,0.11c-0.035,0.03 -0.075,0.052 -0.12,0.067c-0.044,0.015 -0.088,0.022 -0.132,0.022l-0.235,0l0,-0.708Zm0.072,0.644l0.143,0c0.053,0 0.1,-0.008 0.139,-0.025c0.04,-0.017 0.073,-0.039 0.099,-0.066c0.026,-0.027 0.045,-0.057 0.058,-0.092c0.013,-0.035 0.02,-0.07 0.02,-0.107c0,-0.037 -0.007,-0.072 -0.02,-0.107c-0.013,-0.035 -0.032,-0.066 -0.058,-0.093c-0.026,-0.027 -0.059,-0.048 -0.099,-0.065c-0.039,-0.017 -0.086,-0.025 -0.139,-0.025l-0.143,0l0,0.58Z" style="fill:rgb(148,1,6);fill-rule:nonzero;"/>            </g>            <g transform="matrix(29.0897,0,0,56,497.446,69.336)">                <rect x="0.094" y="-0.708" width="0.072" height="0.708" style="fill:rgb(148,1,6);fill-rule:nonzero;"/>            </g>            <g transform="matrix(29.0897,0,0,56,505.766,69.336)">                <path d="M0.596,-0.105l0.002,0l0,-0.603l0.072,0l0,0.708l-0.09,0l-0.412,-0.609l-0.002,0l0,0.609l-0.072,0l0,-0.708l0.09,0l0.412,0.603Z" style="fill:rgb(148,1,6);fill-rule:nonzero;"/>            </g>            <g transform="matrix(29.0897,0,0,56,528.747,69.336)">                <path d="M0.631,-0.581c-0.025,-0.026 -0.054,-0.046 -0.088,-0.061c-0.034,-0.014 -0.073,-0.021 -0.117,-0.021c-0.045,0 -0.086,0.008 -0.123,0.025c-0.036,0.017 -0.067,0.039 -0.092,0.067c-0.025,0.029 -0.045,0.062 -0.059,0.099c-0.013,0.037 -0.02,0.077 -0.02,0.118c0,0.041 0.007,0.081 0.02,0.118c0.014,0.037 0.034,0.07 0.059,0.098c0.025,0.028 0.056,0.05 0.092,0.067c0.037,0.017 0.078,0.025 0.123,0.025c0.04,0 0.077,-0.004 0.11,-0.013c0.033,-0.009 0.06,-0.02 0.081,-0.033l0,-0.215l-0.165,0l0,-0.063l0.237,0l0,0.319c-0.039,0.023 -0.08,0.041 -0.125,0.052c-0.045,0.011 -0.091,0.017 -0.139,0.017c-0.053,0 -0.103,-0.009 -0.148,-0.028c-0.045,-0.019 -0.084,-0.045 -0.117,-0.078c-0.033,-0.033 -0.058,-0.072 -0.076,-0.117c-0.019,-0.045 -0.028,-0.095 -0.028,-0.149c0,-0.054 0.009,-0.104 0.028,-0.149c0.019,-0.045 0.045,-0.085 0.078,-0.118c0.033,-0.033 0.072,-0.058 0.117,-0.077c0.045,-0.019 0.093,-0.028 0.146,-0.028c0.057,0 0.106,0.008 0.148,0.025c0.042,0.017 0.078,0.04 0.108,0.07l-0.05,0.05Z" style="fill:rgb(148,1,6);fill-rule:nonzero;"/>            </g>        </g>        <g transform="matrix(1.92508,0,0,0.390244,-383.024,119.293)">            <g transform="matrix(29.0897,0,0,143.5,296,130.798)">                <path d="M0.089,0l-0.079,0l0.306,-0.708l0.07,0l0.304,0.708l-0.08,0l-0.078,-0.186l-0.366,0l-0.077,0.186Zm0.104,-0.252l0.312,0l-0.156,-0.376l-0.156,0.376Z" style="fill:rgb(148,1,6);fill-rule:nonzero;"/>            </g>            <g transform="matrix(29.0897,0,0,143.5,317.09,130.798)">                <path d="M0.437,-0.594c-0.015,-0.021 -0.035,-0.038 -0.059,-0.051c-0.024,-0.013 -0.053,-0.02 -0.087,-0.02c-0.017,0 -0.035,0.003 -0.053,0.008c-0.018,0.005 -0.034,0.013 -0.049,0.024c-0.015,0.011 -0.026,0.025 -0.036,0.042c-0.009,0.017 -0.013,0.036 -0.013,0.059c0,0.023 0.004,0.041 0.013,0.056c0.009,0.015 0.02,0.027 0.035,0.037c0.014,0.011 0.03,0.019 0.049,0.026c0.018,0.007 0.037,0.013 0.057,0.02c0.025,0.008 0.049,0.017 0.075,0.026c0.025,0.009 0.047,0.021 0.067,0.036c0.02,0.015 0.036,0.034 0.049,0.057c0.013,0.023 0.019,0.053 0.019,0.088c0,0.035 -0.007,0.066 -0.021,0.091c-0.013,0.026 -0.031,0.047 -0.052,0.064c-0.022,0.017 -0.047,0.029 -0.075,0.037c-0.027,0.008 -0.055,0.012 -0.083,0.012c-0.021,0 -0.043,-0.002 -0.064,-0.007c-0.021,-0.004 -0.042,-0.01 -0.061,-0.019c-0.019,-0.009 -0.037,-0.02 -0.054,-0.033c-0.017,-0.013 -0.031,-0.029 -0.044,-0.046l0.062,-0.046c0.015,0.025 0.037,0.046 0.065,0.063c0.027,0.017 0.06,0.026 0.097,0.026c0.018,0 0.036,-0.003 0.055,-0.009c0.019,-0.005 0.035,-0.014 0.05,-0.026c0.016,-0.011 0.028,-0.026 0.037,-0.043c0.01,-0.017 0.015,-0.036 0.015,-0.059c0,-0.025 -0.005,-0.045 -0.015,-0.062c-0.009,-0.016 -0.022,-0.03 -0.038,-0.041c-0.016,-0.011 -0.034,-0.02 -0.055,-0.027c-0.021,-0.007 -0.042,-0.015 -0.065,-0.022c-0.023,-0.007 -0.046,-0.016 -0.069,-0.025c-0.023,-0.009 -0.043,-0.022 -0.061,-0.037c-0.018,-0.015 -0.032,-0.033 -0.043,-0.055c-0.011,-0.022 -0.017,-0.049 -0.017,-0.081c0,-0.034 0.007,-0.063 0.021,-0.088c0.013,-0.025 0.031,-0.045 0.053,-0.061c0.022,-0.016 0.046,-0.028 0.073,-0.035c0.027,-0.007 0.053,-0.011 0.079,-0.011c0.048,0 0.089,0.009 0.123,0.025c0.034,0.017 0.06,0.038 0.077,0.061l-0.057,0.046Z" style="fill:rgb(148,1,6);fill-rule:nonzero;"/>            </g>            <g transform="matrix(29.0897,0,0,143.5,334.224,130.798)">                <path d="M0.437,-0.594c-0.015,-0.021 -0.035,-0.038 -0.059,-0.051c-0.024,-0.013 -0.053,-0.02 -0.087,-0.02c-0.017,0 -0.035,0.003 -0.053,0.008c-0.018,0.005 -0.034,0.013 -0.049,0.024c-0.015,0.011 -0.026,0.025 -0.036,0.042c-0.009,0.017 -0.013,0.036 -0.013,0.059c0,0.023 0.004,0.041 0.013,0.056c0.009,0.015 0.02,0.027 0.035,0.037c0.014,0.011 0.03,0.019 0.049,0.026c0.018,0.007 0.037,0.013 0.057,0.02c0.025,0.008 0.049,0.017 0.075,0.026c0.025,0.009 0.047,0.021 0.067,0.036c0.02,0.015 0.036,0.034 0.049,0.057c0.013,0.023 0.019,0.053 0.019,0.088c0,0.035 -0.007,0.066 -0.021,0.091c-0.013,0.026 -0.031,0.047 -0.052,0.064c-0.022,0.017 -0.047,0.029 -0.075,0.037c-0.027,0.008 -0.055,0.012 -0.083,0.012c-0.021,0 -0.043,-0.002 -0.064,-0.007c-0.021,-0.004 -0.042,-0.01 -0.061,-0.019c-0.019,-0.009 -0.037,-0.02 -0.054,-0.033c-0.017,-0.013 -0.031,-0.029 -0.044,-0.046l0.062,-0.046c0.015,0.025 0.037,0.046 0.065,0.063c0.027,0.017 0.06,0.026 0.097,0.026c0.018,0 0.036,-0.003 0.055,-0.009c0.019,-0.005 0.035,-0.014 0.05,-0.026c0.016,-0.011 0.028,-0.026 0.037,-0.043c0.01,-0.017 0.015,-0.036 0.015,-0.059c0,-0.025 -0.005,-0.045 -0.015,-0.062c-0.009,-0.016 -0.022,-0.03 -0.038,-0.041c-0.016,-0.011 -0.034,-0.02 -0.055,-0.027c-0.021,-0.007 -0.042,-0.015 -0.065,-0.022c-0.023,-0.007 -0.046,-0.016 -0.069,-0.025c-0.023,-0.009 -0.043,-0.022 -0.061,-0.037c-0.018,-0.015 -0.032,-0.033 -0.043,-0.055c-0.011,-0.022 -0.017,-0.049 -0.017,-0.081c0,-0.034 0.007,-0.063 0.021,-0.088c0.013,-0.025 0.031,-0.045 0.053,-0.061c0.022,-0.016 0.046,-0.028 0.073,-0.035c0.027,-0.007 0.053,-0.011 0.079,-0.011c0.048,0 0.089,0.009 0.123,0.025c0.034,0.017 0.06,0.038 0.077,0.061l-0.057,0.046Z" style="fill:rgb(148,1,6);fill-rule:nonzero;"/>            </g>            <g transform="matrix(29.0897,0,0,143.5,351.358,130.798)">                <path d="M0.794,-0.354c0,0.054 -0.009,0.104 -0.028,0.149c-0.019,0.045 -0.045,0.084 -0.078,0.117c-0.033,0.033 -0.072,0.059 -0.117,0.078c-0.045,0.019 -0.093,0.028 -0.146,0.028c-0.053,0 -0.101,-0.009 -0.147,-0.028c-0.045,-0.019 -0.084,-0.045 -0.117,-0.078c-0.033,-0.033 -0.058,-0.072 -0.077,-0.117c-0.019,-0.045 -0.028,-0.095 -0.028,-0.149c0,-0.054 0.009,-0.104 0.028,-0.149c0.019,-0.045 0.044,-0.085 0.077,-0.118c0.033,-0.033 0.072,-0.058 0.117,-0.077c0.046,-0.019 0.094,-0.028 0.147,-0.028c0.053,0 0.101,0.009 0.146,0.028c0.045,0.019 0.084,0.044 0.117,0.077c0.033,0.033 0.059,0.073 0.078,0.118c0.019,0.045 0.028,0.095 0.028,0.149Zm-0.076,0c0,-0.041 -0.007,-0.081 -0.02,-0.118c-0.013,-0.037 -0.033,-0.07 -0.058,-0.099c-0.025,-0.028 -0.056,-0.05 -0.093,-0.067c-0.036,-0.017 -0.077,-0.025 -0.122,-0.025c-0.045,0 -0.086,0.008 -0.123,0.025c-0.036,0.017 -0.067,0.039 -0.092,0.067c-0.025,0.029 -0.045,0.062 -0.058,0.099c-0.013,0.037 -0.02,0.077 -0.02,0.118c0,0.041 0.007,0.081 0.02,0.118c0.013,0.037 0.033,0.07 0.058,0.098c0.025,0.028 0.056,0.05 0.092,0.067c0.037,0.017 0.078,0.025 0.123,0.025c0.045,0 0.086,-0.008 0.122,-0.025c0.037,-0.017 0.068,-0.039 0.093,-0.067c0.025,-0.028 0.045,-0.061 0.058,-0.098c0.013,-0.037 0.02,-0.077 0.02,-0.118Z" style="fill:rgb(148,1,6);fill-rule:nonzero;"/>            </g>            <g transform="matrix(29.0897,0,0,143.5,376.811,130.798)">                <path d="M0.69,-0.114c-0.012,0.018 -0.027,0.035 -0.044,0.051c-0.016,0.016 -0.036,0.03 -0.058,0.042c-0.023,0.012 -0.047,0.021 -0.075,0.028c-0.027,0.007 -0.056,0.011 -0.088,0.011c-0.053,0 -0.103,-0.009 -0.148,-0.028c-0.045,-0.019 -0.084,-0.045 -0.117,-0.078c-0.033,-0.033 -0.058,-0.072 -0.077,-0.117c-0.018,-0.045 -0.027,-0.095 -0.027,-0.149c0,-0.054 0.009,-0.104 0.028,-0.149c0.019,-0.045 0.044,-0.085 0.077,-0.118c0.033,-0.033 0.072,-0.058 0.117,-0.077c0.046,-0.019 0.094,-0.028 0.147,-0.028c0.026,0 0.051,0.003 0.077,0.008c0.025,0.005 0.048,0.013 0.07,0.022c0.022,0.01 0.042,0.022 0.06,0.035c0.018,0.014 0.033,0.03 0.045,0.047l-0.06,0.044c-0.007,-0.011 -0.017,-0.023 -0.03,-0.034c-0.012,-0.011 -0.026,-0.021 -0.043,-0.03c-0.017,-0.009 -0.035,-0.016 -0.055,-0.021c-0.019,-0.005 -0.04,-0.008 -0.063,-0.008c-0.046,0 -0.087,0.008 -0.124,0.025c-0.036,0.017 -0.067,0.039 -0.092,0.067c-0.025,0.029 -0.045,0.062 -0.058,0.099c-0.013,0.037 -0.02,0.077 -0.02,0.118c0,0.041 0.007,0.081 0.02,0.118c0.014,0.037 0.034,0.07 0.059,0.098c0.025,0.029 0.056,0.051 0.092,0.068c0.037,0.017 0.078,0.025 0.123,0.025c0.041,0 0.079,-0.008 0.116,-0.025c0.037,-0.017 0.067,-0.043 0.092,-0.08l0.056,0.036Z" style="fill:rgb(148,1,6);fill-rule:nonzero;"/>            </g>            <g transform="matrix(29.0897,0,0,143.5,398.483,130.798)">                <rect x="0.094" y="-0.708" width="0.072" height="0.708" style="fill:rgb(148,1,6);fill-rule:nonzero;"/>            </g>            <g transform="matrix(29.0897,0,0,143.5,406.773,130.798)">                <path d="M0.089,0l-0.079,0l0.306,-0.708l0.07,0l0.304,0.708l-0.08,0l-0.078,-0.186l-0.366,0l-0.077,0.186Zm0.104,-0.252l0.312,0l-0.156,-0.376l-0.156,0.376Z" style="fill:rgb(148,1,6);fill-rule:nonzero;"/>            </g>            <g transform="matrix(29.0897,0,0,143.5,426.118,130.798)">                <path d="M0.321,0l-0.072,0l0,-0.644l-0.237,0l0,-0.064l0.546,0l0,0.064l-0.237,0l0,0.644Z" style="fill:rgb(148,1,6);fill-rule:nonzero;"/>            </g>            <g transform="matrix(29.0897,0,0,143.5,443.426,130.798)">                <rect x="0.094" y="-0.708" width="0.072" height="0.708" style="fill:rgb(148,1,6);fill-rule:nonzero;"/>            </g>            <g transform="matrix(29.0897,0,0,143.5,451.717,130.798)">                <path d="M0.794,-0.354c0,0.054 -0.009,0.104 -0.028,0.149c-0.019,0.045 -0.045,0.084 -0.078,0.117c-0.033,0.033 -0.072,0.059 -0.117,0.078c-0.045,0.019 -0.093,0.028 -0.146,0.028c-0.053,0 -0.101,-0.009 -0.147,-0.028c-0.045,-0.019 -0.084,-0.045 -0.117,-0.078c-0.033,-0.033 -0.058,-0.072 -0.077,-0.117c-0.019,-0.045 -0.028,-0.095 -0.028,-0.149c0,-0.054 0.009,-0.104 0.028,-0.149c0.019,-0.045 0.044,-0.085 0.077,-0.118c0.033,-0.033 0.072,-0.058 0.117,-0.077c0.046,-0.019 0.094,-0.028 0.147,-0.028c0.053,0 0.101,0.009 0.146,0.028c0.045,0.019 0.084,0.044 0.117,0.077c0.033,0.033 0.059,0.073 0.078,0.118c0.019,0.045 0.028,0.095 0.028,0.149Zm-0.076,0c0,-0.041 -0.007,-0.081 -0.02,-0.118c-0.013,-0.037 -0.033,-0.07 -0.058,-0.099c-0.025,-0.028 -0.056,-0.05 -0.093,-0.067c-0.036,-0.017 -0.077,-0.025 -0.122,-0.025c-0.045,0 -0.086,0.008 -0.123,0.025c-0.036,0.017 -0.067,0.039 -0.092,0.067c-0.025,0.029 -0.045,0.062 -0.058,0.099c-0.013,0.037 -0.02,0.077 -0.02,0.118c0,0.041 0.007,0.081 0.02,0.118c0.013,0.037 0.033,0.07 0.058,0.098c0.025,0.028 0.056,0.05 0.092,0.067c0.037,0.017 0.078,0.025 0.123,0.025c0.045,0 0.086,-0.008 0.122,-0.025c0.037,-0.017 0.068,-0.039 0.093,-0.067c0.025,-0.028 0.045,-0.061 0.058,-0.098c0.013,-0.037 0.02,-0.077 0.02,-0.118Z" style="fill:rgb(148,1,6);fill-rule:nonzero;"/>            </g>            <g transform="matrix(29.0897,0,0,143.5,477.171,130.798)">                <path d="M0.596,-0.105l0.002,0l0,-0.603l0.072,0l0,0.708l-0.09,0l-0.412,-0.609l-0.002,0l0,0.609l-0.072,0l0,-0.708l0.09,0l0.412,0.603Z" style="fill:rgb(148,1,6);fill-rule:nonzero;"/>            </g>        </g>    </g></svg>