<?xml version="1.0" encoding="UTF-8" standalone="no"?><!DOCTYPE svg PUBLIC "-//W3C//DTD SVG 1.1//EN" "http://www.w3.org/Graphics/SVG/1.1/DTD/svg11.dtd"><svg width="100%" height="100%" viewBox="0 0 1024 512" version="1.1" xmlns="http://www.w3.org/2000/svg" xmlns:xlink="http://www.w3.org/1999/xlink" xml:space="preserve" style="fill-rule:evenodd;clip-rule:evenodd;stroke-linejoin:round;stroke-miterlimit:2;"><title>AHK</title><desc></desc>    <g transform="matrix(10.2795,0,0,10.2631,-145.891,-117.527)">        <g transform="matrix(0.215709,0,0,0.215709,8.77844,8.78429)">            <path d="M237.82,21.85l-211.82,0l0,212.3l211.82,0c12.759,-34.02 19.198,-70.086 19,-106.42c0.09,-38.16 -6.14,-74.73 -19,-105.88Z" style="fill:rgb(196,211,227);fill-rule:nonzero;"/>        </g>        <g transform="matrix(0.215709,0,0,0.215709,8.77844,8.78429)">            <path d="M486,234.15l-248.18,0c12.752,-33.928 19.191,-69.905 19,-106.15c0.18,-37.39 -6,-75 -19,-106.15l248.18,0l0,212.3Z" style="fill:rgb(0,79,141);fill-rule:nonzero;"/>        </g>        <g transform="matrix(0.215709,0,0,0.215709,8.77844,8.78429)">            <path d="M122.93,51.1c0,0 -10,4.15 -26.4,11.6c-1.9,1.16 -2.28,4.57 0,4.93l26.4,0.17c0.35,0.85 0,101.22 0,101.22l-22.14,0c-1.63,2.54 0,3.11 0,3.42c36.59,7.75 84.47,56 114.19,-3.17l-36.06,0.35c28.85,-7.72 63.35,-109.75 -47.5,-118.84l0,-13.78l-8.45,0l-0.04,14.1Zm8.45,110.09c-0.22,0.45 -0.11,0.31 -0.18,-102.55c32.88,29.36 14.6,94.84 0.18,102.55Zm-82,30.26c69.79,-27.25 89.88,60.64 177,13.2c-90.95,22.4 -102.91,-60.12 -176.96,-13.19l-0.04,-0.01Zm123.49,-22.16l-36.23,-0.29c9.16,-7.76 39.26,-29.73 36.26,0.34l-0.03,-0.05Zm128.43,-112.09c2.188,-0.081 4.156,1.382 4.71,3.5l21.81,63.75c0.169,0.337 0.257,0.708 0.257,1.085c0,1.328 -1.093,2.42 -2.42,2.42c-0.052,0 -0.105,-0.002 -0.157,-0.005l-7,0c-2.134,-0.132 -4.004,-1.503 -4.77,-3.5l-4.65,-14.36l-24,0l-4.63,14.36c-0.766,1.997 -2.636,3.368 -4.77,3.5l-7,0c-0.052,0.003 -0.105,0.005 -0.157,0.005c-1.327,0 -2.42,-1.092 -2.42,-2.42c0,-0.377 0.088,-0.748 0.257,-1.085l21.81,-63.75c0.551,-2.121 2.521,-3.584 4.71,-3.5l8.42,0Zm-13.61,41l16,0l-8,-24.71l-8.06,24.71l0.06,0Zm178.37,-37.51c1.74,-1.93 2,-3.52 -0.37,-3.5l-10.4,0.06c-2.615,-0.369 -5.241,0.652 -6.92,2.69l-26.25,29.28l0,-28.46c0,-0.02 0.001,-0.04 0.001,-0.061c0,-1.864 -1.517,-3.407 -3.381,-3.439l-7.2,0c-1.922,0 -3.505,1.578 -3.51,3.5l0,63.75c0,1.92 1.58,3.5 3.5,3.5c0.003,0 0.007,0 0.01,0l7.18,0c1.871,0 3.41,-1.539 3.41,-3.41c0,-0.003 0,-0.007 0,-0.01c0,-0.003 0,-0.05 0,-0.08l0,-14.85l12.07,-13.39l17.46,28.24c0.903,1.903 2.712,3.222 4.8,3.5l10.08,0c1.94,0 2.56,-1.56 1.37,-3.5l-24.23,-38.82l22.37,-25l0.01,0Zm-86.82,0c0.005,-1.922 1.588,-3.5 3.51,-3.5c0.003,0 0.007,0 0.01,0l7,0c0.003,0 0.007,0 0.01,0c1.922,0 3.505,1.578 3.51,3.5l0,63.76c-0.005,1.916 -1.584,3.49 -3.5,3.49c-0.003,0 -0.007,0 -0.01,0l-7,0c-1.927,0.011 -3.524,-1.563 -3.54,-3.49l0,-26.26l-28.52,0l0,26.26c-0.005,1.916 -1.584,3.49 -3.5,3.49c-0.003,0 -0.007,0 -0.01,0l-7,0c-0.007,0 -0.013,0 -0.02,0c-1.916,0 -3.495,-1.574 -3.5,-3.49l0,-63.76c0.005,-1.922 1.588,-3.5 3.51,-3.5c0.003,0 0.007,0 0.01,0l7,0c0.003,0 0.007,0 0.01,0c1.922,0 3.505,1.578 3.51,3.5l0,25.65l28.51,0l0,-25.65l0.01,0Z" style="fill:white;fill-rule:nonzero;"/>        </g>    </g></svg>