<?xml version="1.0" encoding="UTF-8" standalone="no"?><!DOCTYPE svg PUBLIC "-//W3C//DTD SVG 1.1//EN" "http://www.w3.org/Graphics/SVG/1.1/DTD/svg11.dtd"><svg width="100%" height="100%" viewBox="0 0 1024 512" version="1.1" xmlns="http://www.w3.org/2000/svg" xmlns:xlink="http://www.w3.org/1999/xlink" xml:space="preserve" style="fill-rule:evenodd;clip-rule:evenodd;stroke-linejoin:round;stroke-miterlimit:2;"><title>Formax</title><desc>Formax Credit (UK) Limited is a P2P lending company offering finance up to 5 years to UK Small and Medium Sized Enterprises (SMEs) as well as Investment Products for 12, 36, and 60 months to UK investors. </desc>    <g transform="matrix(1.08828,0,0,1.08828,-44.9218,81.9071)">        <g id="layer104">            <path d="M185.5,274.6c6.5,-3 111.1,-69.9 114.8,-73.4c6.8,-6.4 7.4,-13.8 1.6,-19.8c-1.8,-1.8 -11,-7.7 -20.5,-13.1c-9.4,-5.4 -17,-10.1 -16.8,-10.4c0.2,-0.3 8.2,-5.7 17.9,-11.8c10,-6.5 18.6,-12.7 20.1,-14.6c4.6,-6.1 4.1,-13.9 -1.2,-18.6c-1.1,-0.9 -12.5,-7.7 -25.4,-15.2c-12.9,-7.4 -38.9,-22.5 -57.8,-33.5c-35.9,-21 -38.2,-22 -47.6,-21c-2.3,0.3 -6.7,1.7 -9.7,3.2c-13.3,6.7 -110.8,64.2 -113.9,67.3c-3.3,3.1 -3.5,3.7 -3.5,9.8c0,5.7 0.3,6.7 2.9,9.4c1.6,1.7 7,5.6 12,8.8c5,3.1 12.9,8.1 17.5,11.1l8.3,5.3l-18.3,10.7c-21.2,12.4 -23.3,14.5 -22.7,22.7c0.2,2.8 1.2,6.2 2.2,7.7c1.5,2.4 108,71.2 117.4,75.9c5.6,2.7 16.3,2.5 22.7,-0.5Zm-18,-29.5c-11.3,-6.6 -80.1,-52.4 -80.9,-53.8c-1.1,-2 -0.1,-2.8 12.7,-10.2c6,-3.4 11.3,-5.9 12,-5.5c0.7,0.4 12.1,7.7 25.5,16.2c13.4,8.5 26,16.1 28,16.8c5.3,1.9 13.4,1.7 18.9,-0.4c2.7,-1.1 15.8,-8.9 29.2,-17.5c13.4,-8.7 24.9,-15.7 25.5,-15.7c1.6,0.1 23.9,13.4 24.3,14.5c0.1,0.6 -0.1,1.5 -0.5,2.1c-1.4,2.2 -84.1,55.4 -86.9,55.9c-2,0.4 -4.2,-0.3 -7.8,-2.4Zm-1.6,-68.4c-11.4,-7 -26.9,-17.2 -26.9,-17.9c0,-0.3 5.2,-3.7 11.5,-7.3c12.3,-7.2 14.5,-9.6 14.5,-16c0,-1.9 0.3,-3.5 0.8,-3.4c1.9,0.2 43.6,25.5 43.4,26.4c-0.1,0.6 -7.2,5.6 -15.9,11.3c-17.9,11.7 -19.1,11.9 -27.4,6.9Zm-66.2,-43.2c-6.9,-4.6 -12.9,-8.9 -13.3,-9.6c-0.4,-0.7 0.1,-1.9 1.2,-2.8c1.1,-0.9 18.3,-11 38.2,-22.6c38.9,-22.5 39.2,-22.8 39.2,-30.8l0,-3.5l47.8,28c26.2,15.3 48.3,28.5 49.1,29.3c0.7,0.7 1,1.8 0.6,2.5c-0.4,0.6 -6.5,4.9 -13.6,9.5l-12.9,8.4l-23.3,-13.6c-25.1,-14.8 -32.3,-18.2 -37.8,-18.3c-7.9,0 -10.2,1.1 -51.5,25.3l-11.2,6.5l-12.5,-8.3Z" style="fill:rgb(157,127,71);"/>            <path d="M183.1,208.5c3.7,-1.3 50.5,-30.4 55,-34.2c1.8,-1.5 24.9,-16.3 25.4,-16.3c1.9,0 37.1,-23.9 39.1,-26.6c4.6,-6 4.1,-13.8 -1.2,-18.5c-1.1,-0.9 -12.5,-7.7 -25.4,-15.2c-12.9,-7.4 -38.9,-22.5 -57.8,-33.5c-35.9,-21 -38.2,-22 -47.6,-21c-2.3,0.3 -6.7,1.7 -9.7,3.2c-13.3,6.7 -110.8,64.2 -113.9,67.3c-3.3,3.1 -3.5,3.7 -3.5,9.8c0,6.1 0.2,6.7 3.5,9.9c1.9,1.8 11.1,8.2 20.3,14l16.9,10.7l4.6,-2.7c2.6,-1.5 8.9,-5.2 14,-8.2l9.4,-5.4l-12.5,-8.4c-6.9,-4.5 -12.9,-8.8 -13.3,-9.5c-0.4,-0.7 0.1,-1.9 1.2,-2.8c1.1,-0.9 18.3,-11 38.2,-22.6c38.9,-22.5 39.2,-22.8 39.2,-30.8l0,-3.5l47.8,28c26.2,15.3 48.3,28.5 49.1,29.3c0.7,0.7 1.1,1.8 0.7,2.3c-0.7,1.2 -48,33 -50.9,34.2c-1.2,0.5 -9.4,5.7 -18.1,11.5c-16.3,10.7 -19.1,11.8 -23.9,9.4c-1.2,-0.6 -8.8,-5.4 -16.9,-10.6l-14.7,-9.5l-13.6,7.8c-7.4,4.3 -13.5,8.1 -13.5,8.4c0.1,1 50.3,32.3 53.9,33.6c4.9,1.8 12.9,1.7 18.2,-0.1Z" style="fill:rgb(51,100,173);"/>        </g>        <g>            <path d="M575,149.6c0,-15.1 0.3,-28.2 0.6,-29c1.2,-3.2 4.9,-4.1 17.9,-4.6l13,-0.5l0.3,-9.4l0.3,-9.3l-15.8,0.5c-18.2,0.5 -22.8,1.7 -29.7,7.8c-7.1,6.3 -7.6,8.9 -7.6,43.1l0,28.8l21,0l0,-27.4Z" style="fill:rgb(51,100,173);"/>            <path d="M636,177l0,-56.9l2.9,-2.1c8.8,-6.2 33.2,-4.3 37.1,2.9c0.6,1.2 1,12.3 1,29l0,27.1l21,0l0,-55.9l2.6,-2c4.1,-3.2 10,-4.4 19.9,-3.9c8.8,0.5 12.2,1.4 15.8,4.6c1.5,1.4 1.7,4.1 1.7,29.4l0,27.8l22,0l0,-28.3c0,-32.5 -0.7,-36.6 -6.9,-42.8c-5.9,-5.9 -13.3,-8.1 -29.1,-8.7c-14.6,-0.5 -21.5,0.6 -31.4,5.1l-4.9,2.2l-4.6,-2.2c-11.7,-5.8 -37.6,-6.9 -51,-2.2c-8,2.7 -15.4,9.5 -17,15.4c-1.2,4.3 -1.6,59.7 -0.4,60.8c0.3,0.4 5.3,0.7 11,0.7l10.3,0Z" style="fill:rgb(51,100,173);"/>            <path d="M907.5,162.9c7.2,-7.7 13.8,-14.5 14.7,-15c3.8,-2.1 5.8,-0.7 20,14.1l14.5,15l12.3,0c11.5,0 12.2,-0.1 10.9,-1.7c-0.8,-1 -7.7,-8.5 -15.4,-16.6c-14.5,-15.3 -20.5,-19.7 -29.3,-21.3l-3.6,-0.7l5.4,-1.4c3,-0.7 7.3,-2.5 9.6,-3.8c3.6,-2.1 20.1,-18.8 30.4,-30.7l3.2,-3.8l-24.9,0l-13.3,14.4c-8.8,9.6 -14.2,14.6 -15.9,14.9c-2.3,0.5 -4.5,-1.3 -17.6,-14.4l-14.9,-14.9l-24.8,0l15.6,16.3c15.9,16.7 21.3,20.8 28.9,22.2c4.6,0.9 4,1.6 -3.5,3.8c-6.8,2.1 -11.4,6.1 -27.7,23.7l-11.5,12.5l11,0.6c6,0.3 11.4,0.6 11.9,0.7c0.6,0.1 6.9,-6.1 14,-13.9Z" style="fill:rgb(51,100,173);"/>            <path d="M860.5,173c12.4,-6.2 13.8,-10.3 13.3,-38.4c-0.4,-22.6 -0.7,-23.8 -7.8,-29.8c-6.4,-5.5 -13.9,-7.3 -31,-7.3l-14.5,0l-0.3,8.2l-0.3,8.1l14,0.4c12.9,0.3 14.2,0.5 16.3,2.5c1.2,1.2 1.9,2.6 1.5,3c-0.4,0.4 -15.3,0.9 -33,1.2l-32.2,0.6l-6,3c-3.3,1.7 -7.2,4.7 -9,6.8c-2.8,3.6 -3,4.5 -3.3,13.6c-0.5,12.1 0.7,16.7 5.5,21.5c9.3,9.3 15.6,10.6 51.3,10.3l28.6,-0.2l6.9,-3.5Zm-70.3,-16.2c-0.7,-0.7 -1.2,-4.4 -1.2,-9.8c0,-5.4 0.5,-9.1 1.2,-9.8c0.9,-0.9 9,-1.2 30.4,-1.2c25.3,0 29.5,0.2 30.8,1.6c1.2,1.1 1.6,3.6 1.6,9c0,12.4 2.7,11.4 -31.8,11.4c-21.9,0 -30.1,-0.3 -31,-1.2Z" style="fill:rgb(51,100,173);"/>            <path d="M527.3,174c7.7,-2.4 15,-8.8 16.7,-14.8c0.7,-2.3 1,-11.5 0.8,-24.8c-0.3,-20.6 -0.4,-21.1 -2.8,-24.7c-3.1,-4.6 -8.1,-8 -15.1,-10.4c-4.7,-1.6 -9.1,-1.8 -34.9,-1.8l-29.5,0l-6,2.8c-7.6,3.5 -11.1,6.9 -14.1,13.2c-2.3,4.7 -2.4,6.1 -2.4,24.8c0,14.4 0.4,20.6 1.4,23c1.5,3.8 6.6,8.4 11.6,10.5c8.5,3.6 12.4,4 40.1,4.1c25.1,0.1 28.3,-0.1 34.2,-1.9Zm-65,-16.5c-2.2,-1.6 -2.3,-2.1 -2.3,-20.4c0,-13.2 0.4,-19.1 1.2,-19.9c0.9,-0.9 9.3,-1.2 31.5,-1.2c28.9,0 30.3,0.1 31.3,1.9c1.6,3.2 1.3,36.3 -0.4,38.7c-1.4,1.8 -3.1,1.9 -30.3,2.2c-25.1,0.2 -29.1,0.1 -31,-1.3Z" style="fill:rgb(51,100,173);"/>            <path d="M378,177l0,-39l17.5,0c19.1,0 22.5,-0.7 27.8,-5.8c3.2,-3 6.1,-7.5 7.2,-10.9l0.6,-2.3l-53.1,0l0,-7.1c0,-8.6 0.8,-10.2 6.2,-12.5c3.7,-1.5 8.4,-1.9 32.8,-2.4c30.7,-0.6 32.5,-0.9 38.3,-6.4c2.6,-2.4 6.6,-9.7 6.7,-12.1c0,-1.4 -72.6,-0.8 -80.5,0.6c-13.3,2.4 -22.4,9.4 -24.4,18.8c-0.7,3.3 -1.1,18.9 -1.1,42.1l0,37l22,0Z" style="fill:rgb(51,100,173);"/>        </g>        <g>            <path d="M977.8,237.3l0.2,-30.3l-103,0l0,61l51.3,-0.2l51.2,-0.3l0.3,-30.2Z" style="fill:rgb(51,100,173);"/>            <path d="M895.6,251.4c-2.6,-2.6 -2.6,-2.9 -2.6,-16.5l0,-13.9l5.9,0l0.3,13.3l0.3,13.2l17,0l0.3,-13.2l0.3,-13.3l5.9,0l0,14c0,13.6 -0.1,14.2 -2.5,16.5c-2.2,2.3 -3.1,2.5 -12.3,2.5c-9.4,0 -10.1,-0.1 -12.6,-2.6Z" style="fill:white;fill-rule:nonzero;"/>            <path d="M930,254l0,-33l6,0l0,7.5c0,4.1 0.3,7.5 0.6,7.5c0.3,0 4.2,-3.4 8.7,-7.5c7.3,-6.8 8.4,-7.5 12.1,-7.5l4.1,0.1l-16,14.6l8.4,9.2l8.3,9.1l-3.8,0c-3.6,0 -4.5,-0.6 -10.5,-7.2l-6.7,-7.3l-2.6,2.4c-2.1,2 -2.6,3.4 -2.6,7.3c0,4.7 -0.1,4.8 -3,4.8l-3,0Z" style="fill:white;fill-rule:nonzero;"/>        </g>        <g>            <path d="M631,250.6c0,-14.5 0.3,-17.7 1.6,-19c1.2,-1.2 3.7,-1.6 10.5,-1.6l8.9,0l0,-10.2l-10.2,0.4c-11.8,0.5 -16.9,2.3 -19.9,7.2c-1.7,2.7 -1.9,5.3 -1.9,21.9l0,18.7l11,0l0,-17.4Z" style="fill:rgb(154,153,154);"/>            <path d="M805,268l0,-47l-11,0l0,47l11,0Z" style="fill:rgb(154,153,154);"/>            <path d="M844,268l0,-10l-8,0l0,-24l7.1,0l-0.3,-4.2c-0.3,-4 -0.5,-4.3 -3.5,-4.6c-3.2,-0.3 -3.2,-0.3 -3.5,-6.5l-0.3,-6.2l-11,0l-0.3,6.3c-0.3,6.1 -0.3,6.2 -3.2,6.2c-2.9,0 -3,0.2 -3,4.5c0,4.3 0.1,4.5 3,4.5l3,0l0,28.2l2.9,2.9c2.7,2.7 3.5,2.9 10,2.9l7.1,0Z" style="fill:rgb(154,153,154);"/>            <path d="M609.1,266.3c-0.5,-1 -2.2,-3 -3.8,-4.5l-2.8,-2.6l-22.1,-0.4c-20.2,-0.3 -22.4,-0.5 -24.3,-2.2c-2,-1.8 -2.1,-2.9 -2.1,-19c0,-9.4 0.4,-17.6 0.8,-18.3c1.7,-2.7 6.9,-3.3 26.9,-3.3l20.5,0l4.2,-4.2l4.1,-4.3l-25.5,-0.3c-27.2,-0.3 -33.7,0.4 -39.2,4.1c-5.4,3.7 -5.8,5.3 -5.8,26.2c0,21.5 0.6,23.7 7.4,26.9c6.1,2.9 11.2,3.4 37.4,3.5c23.8,0.1 25.2,0 24.3,-1.6Z" style="fill:rgb(154,153,154);"/>            <path d="M805,216l0,-9l-11,0l0,9l11,0Z" style="fill:rgb(154,153,154);"/>            <path d="M714,268l0,-8l-20,0c-20,0 -20.1,0 -22.5,-2.5c-1.7,-1.6 -2.5,-3.5 -2.5,-6l0,-3.5l47,0l0,-8.2c0,-9.8 -1.8,-14.2 -7,-17.3c-3.2,-1.8 -5.2,-2 -21,-2c-19.6,0 -22.2,0.7 -26.7,7.5c-2.1,3 -2.3,4.5 -2.3,15.7c0,13.2 0.7,15.8 5.3,20.1c3.8,3.6 6.8,4 29,4.1l20.7,0.1Zm-44,-32.8c0,-2.1 0.5,-4.3 1.2,-5c1.7,-1.7 30.9,-1.7 32.6,0c0.7,0.7 1.2,2.9 1.2,5l0,3.8l-35,0l0,-3.8Z" style="fill:rgb(154,153,154);"/>            <path d="M773.7,266.1c7.1,-3.3 7.3,-4.4 7.3,-33.6l0,-25.5l-12,0l0,13l-17.2,0c-14.7,0 -17.9,0.3 -21.4,1.9c-7,3.2 -7.4,4.4 -7.4,22.2c0,14.5 0.2,15.8 2.2,18.4c3.8,4.8 6.7,5.4 26.3,5.4c15.6,0.1 18.6,-0.2 22.2,-1.8Zm-38.5,-8.3c-0.8,-0.8 -1.2,-5.4 -1.2,-14c0,-11.6 0.2,-12.8 1.9,-13.8c1.1,-0.6 8.7,-1 17.5,-1l15.6,0l0,14c0,12.7 -0.2,14 -1.9,15c-2.8,1.5 -30.4,1.3 -31.9,-0.2Z" style="fill:rgb(154,153,154);"/>        </g>    </g></svg>