<?xml version="1.0" encoding="UTF-8" standalone="no"?><!DOCTYPE svg PUBLIC "-//W3C//DTD SVG 1.1//EN" "http://www.w3.org/Graphics/SVG/1.1/DTD/svg11.dtd"><svg width="100%" height="100%" viewBox="0 0 1024 512" version="1.1" xmlns="http://www.w3.org/2000/svg" xmlns:xlink="http://www.w3.org/1999/xlink" xml:space="preserve" style="fill-rule:evenodd;clip-rule:evenodd;stroke-linejoin:round;stroke-miterlimit:2;"><title>CapitalRise</title><desc>CapitalRise is a property backed investment platform enabling everyday investors to sidestep middlemen and invest directly in some of the finest real estate.For ordinary investors, CapitalRise differs from other platforms in that it offers higher returns (typically from 8-12% per year), charges no fees, gives direct access to some of the finest real estate, and investments can start from £1000.</desc>    <g transform="matrix(2.52536,0,0,2.52536,-341.606,-2195.79)">        <g transform="matrix(-1.63137,1.15699,1.15699,1.63137,406.456,971.199)">            <path d="M8.602,-21.103c0.282,-0.097 0.563,-0.196 0.842,-0.298c0.711,6.401 0.426,13.779 -0.842,22.129c-0.885,0.838 -1.745,1.677 -2.58,2.51c2.157,-9.287 3.02,-17.404 2.58,-24.341" style="fill:rgb(33,63,108);fill-rule:nonzero;"/>        </g>        <g transform="matrix(-1.82475,0.818707,0.818707,1.82475,387.67,974.41)">            <path d="M6.485,-23.574c0.176,-0.074 0.356,-0.149 0.534,-0.226c1.185,6.912 1.004,15.026 -0.534,24.332c-0.662,0.364 -1.319,0.727 -1.968,1.094c2.304,-9.701 2.965,-18.104 1.968,-25.2" style="fill:rgb(33,63,108);fill-rule:nonzero;"/>        </g>        <g transform="matrix(-1.94857,0.450648,0.450648,1.94857,370.867,977.562)">            <path d="M4.437,-27.82c0.147,-0.053 0.295,-0.104 0.444,-0.153c1.231,8.053 1.081,17.438 -0.444,28.143c-0.572,0.163 -1.14,0.326 -1.706,0.489c2.266,-10.865 2.838,-20.362 1.706,-28.479" style="fill:rgb(33,63,108);fill-rule:nonzero;"/>        </g>        <g transform="matrix(-1.99325,0.164207,0.164207,1.99325,353.558,979.109)">            <path d="M2.43,-31.622c0.145,-0.027 0.288,-0.053 0.434,-0.077c0.728,9.044 0.582,19.615 -0.434,31.708c-0.524,0.054 -1.045,0.109 -1.564,0.168c1.764,-12.134 2.287,-22.738 1.564,-31.799" style="fill:rgb(33,63,108);fill-rule:nonzero;"/>        </g>        <g transform="matrix(-1.63141,-1.15693,-1.15693,1.63141,269.572,971.2)">            <path d="M-8.601,-21.102c-0.284,-0.098 -0.564,-0.197 -0.843,-0.299c-0.71,6.401 -0.426,13.779 0.843,22.129c0.883,0.837 1.745,1.676 2.58,2.51c-2.158,-9.288 -3.021,-17.404 -2.58,-24.34" style="fill:rgb(33,63,108);fill-rule:nonzero;"/>        </g>        <g transform="matrix(-1.82478,-0.818638,-0.818638,1.82478,288.356,974.41)">            <path d="M-6.486,-23.574c-0.179,-0.075 -0.357,-0.149 -0.534,-0.225c-1.186,6.911 -1.004,15.025 0.534,24.331c0.663,0.364 1.32,0.727 1.969,1.093c-2.306,-9.7 -2.966,-18.104 -1.969,-25.199" style="fill:rgb(33,63,108);fill-rule:nonzero;"/>        </g>        <g transform="matrix(-1.94855,-0.450716,-0.450716,1.94855,305.162,977.562)">            <path d="M-4.435,-27.82c-0.147,-0.053 -0.297,-0.104 -0.444,-0.153c-1.233,8.053 -1.082,17.438 0.444,28.144c0.571,0.162 1.139,0.325 1.703,0.488c-2.265,-10.865 -2.837,-20.362 -1.703,-28.479" style="fill:rgb(33,63,108);fill-rule:nonzero;"/>        </g>        <g transform="matrix(-1.99325,-0.164144,-0.164144,1.99325,322.472,979.109)">            <path d="M-2.428,-31.622c-0.145,-0.027 -0.29,-0.053 -0.435,-0.077c-0.729,9.044 -0.582,19.615 0.435,31.708c0.523,0.054 1.045,0.109 1.563,0.168c-1.765,-12.134 -2.289,-22.738 -1.563,-31.799" style="fill:rgb(33,63,108);fill-rule:nonzero;"/>        </g>        <g transform="matrix(2,0,0,2,339.555,908.047)">            <path d="M0,35.692c-0.41,-13.857 -0.586,-25.756 -0.526,-35.69c-0.154,-0.002 -0.308,-0.002 -0.462,0c0.06,9.934 -0.115,21.831 -0.526,35.688c0.15,0 0.299,-0.001 0.449,-0.001c0.356,0 0.711,0.001 1.065,0.003" style="fill:rgb(33,63,108);fill-rule:nonzero;"/>        </g>        <g transform="matrix(2,0,0,2,166.754,1013.38)">            <path d="M0,7.739c-0.065,0.804 -0.304,1.434 -1.151,1.716c-1.675,0.588 -3.217,0.697 -5.13,0.697c-3.848,0 -9.065,-1.826 -9.065,-6.282c0,-4.456 5.217,-6.283 9.065,-6.283c1.955,0 3.651,0.197 5.369,0.653c0.456,0.108 0.661,0.142 0.857,0.206c0.13,0.067 0.164,0.206 0.164,1.577l0,1.717c0,0.173 -0.261,0.216 -0.305,0.021c-0.673,-3.021 -3.259,-3.413 -5.955,-3.413c-3.348,0 -6.76,2.109 -6.76,5.522c0,3.413 3.412,5.52 6.76,5.52c2.674,0 5.325,-0.348 5.978,-3.456c0.043,-0.281 0.348,-0.239 0.325,0.022l-0.152,1.783Z" style="fill:rgb(33,63,108);fill-rule:nonzero;"/>        </g>        <g transform="matrix(2,0,0,2,239.197,1020.82)">            <path d="M0,0.283l1.125,0c2.348,0 3.782,-0.74 3.782,-2.76c0,-2.021 -1.456,-2.718 -3.804,-2.718l-3.303,0c-0.325,0 -0.565,0.239 -0.565,0.544l0,8.021c0,2.303 0.935,2.522 2.043,2.522c0.283,0 0.566,0.02 0.566,0.173c0,0.131 -0.196,0.152 -0.457,0.152c-1.195,0 -2.087,-0.044 -3.108,-0.044c-1.044,0 -2.022,0.044 -3.217,0.044c-0.261,0 -0.457,-0.021 -0.457,-0.152c0,-0.153 0.282,-0.173 0.565,-0.173c1.109,0 2.043,-0.219 2.043,-2.522l0,-6.326c0,-2.303 -0.913,-2.652 -2.021,-2.652c-0.283,0 -0.544,-0.022 -0.544,-0.152c0,-0.152 0.175,-0.174 0.436,-0.174c1.216,0 2.108,0.043 3.129,0.043c1.761,0 3.739,-0.043 4.761,-0.043c2.326,0 6.281,0.413 6.281,3.457c0,3.064 -3.934,3.499 -6.281,3.499l-0.974,0l0,-0.739Z" style="fill:rgb(33,63,108);fill-rule:nonzero;"/>        </g>        <g transform="matrix(2,0,0,2,290.708,1033.25)">            <path d="M0,-12.131l12.021,0m1.195,0l0.326,2.653c0.022,0.131 -0.022,0.26 -0.13,0.26c-0.066,0 -0.153,-0.043 -0.174,-0.195c-0.349,-1.021 -0.892,-1.783 -2.174,-1.783l-4.043,0l0,8.847c0,0.697 0.044,1.066 0.196,1.326c0.283,0.499 1.065,0.717 1.543,0.717c0.239,0 0.478,0.043 0.478,0.175c0,0.107 -0.175,0.131 -0.412,0.131c-0.892,0 -1.827,-0.046 -2.805,-0.046c-1,0 -1.891,0.046 -2.804,0.046c-0.239,0 -0.413,-0.024 -0.413,-0.131c0,-0.132 0.239,-0.175 0.479,-0.175c0.477,0 1.26,-0.218 1.542,-0.717c0.131,-0.26 0.196,-0.629 0.196,-1.326l0,-8.847l-4.064,0c-1.262,0 -1.804,0.762 -2.153,1.783c-0.021,0.131 -0.13,0.195 -0.195,0.195c-0.087,0 -0.131,-0.108 -0.109,-0.26l0.326,-2.653" style="fill:rgb(33,63,108);fill-rule:nonzero;"/>        </g>        <g transform="matrix(2,0,0,2,378.4,1015.91)">            <path d="M0,5.216c0,2.108 0.045,2.61 2.499,2.61l2.197,0c2.26,0 3.977,-0.284 4.912,-2.893c0.087,-0.216 0.369,-0.172 0.326,0.045l-0.522,1.804c-0.282,0.913 -0.5,1.891 -1.586,1.891l-5.891,0c-1.088,0 -1.913,-0.044 -2.978,-0.044c-0.979,0 -2.065,0.044 -3.044,0.044c-0.174,0 -0.259,-0.087 -0.259,-0.153c0,-0.065 0.085,-0.173 0.259,-0.173c1.567,0 2.065,-1.153 2.065,-2.522l0,-6.302c0,-0.937 -0.086,-1.414 -0.282,-1.74c-0.347,-0.609 -1.173,-0.913 -1.761,-0.913c-0.281,0 -0.542,-0.022 -0.542,-0.175c0,-0.129 0.173,-0.152 0.456,-0.152c0.999,0 2.065,0.066 3.064,0.066c1.022,0 2.045,-0.066 3.196,-0.066c0.305,0 0.435,0.023 0.435,0.152c0,0.153 -0.239,0.175 -0.501,0.175c-0.587,0 -1.456,0.304 -1.804,0.913c-0.174,0.326 -0.239,0.803 -0.239,1.74l0,5.693Z" style="fill:rgb(33,63,108);fill-rule:nonzero;"/>        </g>        <g transform="matrix(2,0,0,2,416.456,1018.73)">            <path d="M0,2.477l0,1.936c0,2.303 0.933,2.521 2.042,2.521c0.283,0 0.566,0.021 0.566,0.174c0,0.13 -0.196,0.151 -0.457,0.151c-1.195,0 -2.108,-0.042 -3.13,-0.042c-1.022,0 -2,0.042 -3.194,0.042c-0.262,0 -0.457,-0.021 -0.457,-0.151c0,-0.153 0.283,-0.174 0.564,-0.174c1.11,0 2.044,-0.218 2.044,-2.521l0,-6.326c0,-2.304 -0.912,-2.651 -2.022,-2.651c-0.282,0 -0.542,-0.023 -0.542,-0.153c0,-0.153 0.174,-0.175 0.434,-0.175c1.218,0 2.086,0.044 3.129,0.044c1.762,0 3.274,-0.044 4.274,-0.044c2.739,0 6.129,0.544 6.129,3.609c0,2.021 -1.456,2.958 -3.238,3.348c1.913,2.587 3.63,4.89 6.586,4.89c0.261,0 0.305,0.087 0.305,0.153c0,0.151 -0.478,0.261 -1.588,0.261c-3.651,0 -4.304,-0.197 -7.216,-4.304c-0.326,-0.458 -0.543,-0.674 -1.304,-0.717l-0.104,0l-0.019,-0.718l0.819,0c1.869,0 3.412,-0.914 3.412,-2.913c0,-2.129 -1.543,-2.869 -3.412,-2.869l-3.057,0c-0.326,0 -0.564,0.239 -0.564,0.543l0,5.108" style="fill:rgb(33,63,108);fill-rule:nonzero;"/>        </g>        <g transform="matrix(2,0,0,2,498.501,1026.52)">            <path d="M0,-5.561c0,0.151 -0.064,0.236 -0.128,0.236c-0.107,0 -0.151,-0.085 -0.193,-0.236c-0.257,-2.009 -2.331,-2.758 -4.214,-2.758c-2.288,0 -4.405,0.513 -4.405,2.223c0,2.996 10.223,1.199 10.223,5.798c0,2.287 -2.63,3.72 -6.373,3.72c-1.049,0 -3.444,-0.126 -5.177,-0.918c-0.363,-0.171 -0.32,0.277 -0.555,0.277c-0.108,0 -0.236,-0.128 -0.278,-0.748l-0.343,-2.738c0,-0.108 0.064,-0.193 0.15,-0.193c0.086,0 0.17,0.043 0.193,0.215c0.449,2.887 4.042,3.443 6.01,3.443c2.309,0 4.684,-0.683 4.684,-2.502c0,-2.973 -10.311,-1.156 -10.311,-5.754c0,-2.674 3.208,-3.487 6.161,-3.487c1.22,0 2.546,0.257 3.829,0.705c0.363,0.131 0.528,0.138 0.709,0.175c0.126,0.024 0.1,0.137 0.085,0.695l-0.067,1.847Z" style="fill:rgb(33,63,108);fill-rule:nonzero;"/>        </g>        <g transform="matrix(2,0,0,2,523.308,1008.99)">            <path d="M0,12.131c-0.762,0 -1.674,-0.045 -2.522,-0.045c-0.955,0 -1.804,0.045 -2.63,0.045c-0.348,0 -0.456,-0.023 -0.456,-0.13c0,-0.132 0.108,-0.175 0.434,-0.175c0.478,0 1.305,-0.218 1.587,-0.718c0.11,-0.217 0.174,-0.499 0.174,-0.999l0,-7.76c0,-0.697 -0.044,-1.087 -0.174,-1.326c-0.282,-0.499 -1.109,-0.717 -1.587,-0.717c-0.326,0 -0.434,-0.043 -0.434,-0.175c0,-0.107 0.108,-0.131 0.456,-0.131c0.869,0 1.718,0.046 2.673,0.046c0.87,0 1.762,-0.046 2.63,-0.046l6.174,0c1.218,0 1.291,0.001 1.423,0.001c0.152,0 0.196,0.065 0.152,0.284l-0.292,2.608c-0.022,0.107 -0.087,0.174 -0.153,0.174c-0.065,0 -0.151,-0.045 -0.13,-0.174c-0.218,-2.066 -1.262,-2.13 -3.37,-2.13l-4.717,0c-0.238,0 -0.629,0.131 -0.629,0.717l0,3.738c0,0.087 0.065,0.151 0.152,0.151l4.63,0c0.695,0 1.478,-0.432 1.652,-1.107c0.065,-0.261 0.086,-0.435 0.217,-0.435c0.131,0 0.131,0.197 0.131,0.435c0,0.479 -0.045,1.022 -0.045,1.5c0,0.5 0.045,1 0.045,1.5c0,0.217 0,0.433 -0.131,0.433c-0.131,0 -0.152,-0.194 -0.217,-0.433c-0.174,-0.652 -0.914,-1.131 -1.652,-1.131l-4.63,0c-0.087,0 -0.152,0.066 -0.152,0.175l0,3.021c0,1.717 0.087,2.042 2.26,2.042l2.869,0c2.196,0 3.566,-0.239 4.305,-2.586c0.021,-0.065 0.107,-0.129 0.151,-0.129c0.088,0 0.153,0.064 0.13,0.173l-0.347,1.869c-0.239,1.435 -0.652,1.435 -1.391,1.435l-6.586,0Z" style="fill:rgb(33,63,108);fill-rule:nonzero;"/>        </g>        <g transform="matrix(2,0,0,2,194.162,1028.22)">            <path d="M0,-7.107l-3.03,4.677l5.98,0l-2.95,-4.677Zm0.574,-2.515c0,0 0.956,1.476 1.358,2.128l4.801,7.566c0.589,0.937 1.505,2.177 2.746,2.177c0.142,0 0.203,0.081 0.203,0.143c0,0.061 -0.061,0.123 -0.203,0.123c-0.874,0 -1.79,-0.043 -2.685,-0.043c-0.895,0 -1.79,0.043 -2.725,0.043c-0.123,0 -0.204,-0.062 -0.204,-0.123c0,-0.081 0.081,-0.143 0.204,-0.143c0.773,0 1.057,-0.264 1.057,-0.693c0,-0.445 -0.305,-1.015 -0.672,-1.586l-1.077,-1.687l-6.835,0l-0.61,0.976c-0.326,0.508 -1.077,1.607 -1.077,2.135c0,0.409 0.162,0.834 1.443,0.834c0.142,0 0.224,0.083 0.224,0.143c0,0.082 -0.062,0.144 -0.224,0.144c-0.833,0 -1.648,-0.043 -2.441,-0.043c-0.834,0 -1.648,0.043 -2.461,0.043c-0.183,0 -0.264,-0.062 -0.264,-0.144c0,-0.041 0.081,-0.143 0.264,-0.143c1.525,0 2.746,-1.808 3.681,-3.212l4.434,-6.896l1.063,-1.742Z" style="fill:rgb(33,63,108);fill-rule:nonzero;"/>        </g>        <g transform="matrix(2,0,0,2,340.285,1028.23)">            <path d="M0,-7.106l-3.031,4.677l5.982,0l-2.951,-4.677Zm0.575,-2.515c0,0 0.957,1.477 1.358,2.129l4.801,7.565c0.589,0.937 1.504,2.177 2.745,2.177c0.142,0 0.203,0.081 0.203,0.143c0,0.061 -0.061,0.122 -0.203,0.122c-0.875,0 -1.79,-0.041 -2.684,-0.041c-0.896,0 -1.791,0.041 -2.727,0.041c-0.122,0 -0.203,-0.061 -0.203,-0.122c0,-0.081 0.081,-0.143 0.203,-0.143c0.774,0 1.058,-0.263 1.058,-0.692c0,-0.446 -0.305,-1.016 -0.671,-1.586l-1.078,-1.688l-6.835,0l-0.61,0.976c-0.325,0.509 -1.077,1.609 -1.077,2.136c0,0.407 0.162,0.835 1.444,0.835c0.142,0 0.224,0.081 0.224,0.14c0,0.083 -0.063,0.144 -0.224,0.144c-0.834,0 -1.649,-0.041 -2.442,-0.041c-0.833,0 -1.648,0.041 -2.461,0.041c-0.182,0 -0.264,-0.061 -0.264,-0.144c0,-0.04 0.082,-0.14 0.264,-0.14c1.525,0 2.746,-1.812 3.682,-3.214l4.433,-6.897l1.064,-1.741Z" style="fill:rgb(33,63,108);fill-rule:nonzero;"/>        </g>        <g transform="matrix(2,0,0,2,273.042,1033.25)">            <path d="M0,-14.18c0,0 -0.016,3.072 -0.016,3.627l0,7.952c0,0.77 0.048,1.18 0.192,1.469c0.313,0.553 1.18,0.794 1.709,0.794c0.265,0 0.529,0.049 0.529,0.193c0,0.121 -0.192,0.145 -0.457,0.145c-0.986,0 -1.997,-0.05 -3.08,-0.05c-1.107,0 -1.845,0.05 -2.879,0.05c-0.241,0 -0.434,-0.024 -0.434,-0.145c0,-0.144 0.241,-0.193 0.53,-0.193c0.529,0 1.396,-0.241 1.709,-0.794c0.144,-0.289 0.193,-0.699 0.193,-1.469l0,-7.633l2.004,-3.946Z" style="fill:rgb(33,63,108);fill-rule:nonzero;"/>        </g>        <g transform="matrix(2,0,0,2,459.658,1033.25)">            <path d="M0,-14.18c0,0 -0.017,3.072 -0.017,3.627l0,7.952c0,0.77 0.049,1.18 0.193,1.469c0.313,0.553 1.18,0.794 1.709,0.794c0.264,0 0.529,0.049 0.529,0.193c0,0.121 -0.192,0.145 -0.457,0.145c-0.986,0 -1.997,-0.05 -3.08,-0.05c-1.107,0 -1.845,0.05 -2.878,0.05c-0.242,0 -0.436,-0.024 -0.436,-0.145c0,-0.144 0.242,-0.193 0.53,-0.193c0.53,0 1.397,-0.241 1.709,-0.794c0.145,-0.289 0.194,-0.699 0.194,-1.469l0,-7.633l2.004,-3.946Z" style="fill:rgb(33,63,108);fill-rule:nonzero;"/>        </g>    </g></svg>