<?xml version="1.0" encoding="UTF-8" standalone="no"?><!DOCTYPE svg PUBLIC "-//W3C//DTD SVG 1.1//EN" "http://www.w3.org/Graphics/SVG/1.1/DTD/svg11.dtd"><svg width="100%" height="100%" viewBox="0 0 1024 512" version="1.1" xmlns="http://www.w3.org/2000/svg" xmlns:xlink="http://www.w3.org/1999/xlink" xml:space="preserve" style="fill-rule:evenodd;clip-rule:evenodd;stroke-linejoin:round;stroke-miterlimit:2;"><title>AFM</title><desc>The AFM is committed to promoting fair and transparent financial markets. As an independent market conduct authority, we contribute to a sustainable financial system and prosperity in the Netherlands.</desc>    <g transform="matrix(2.94258,0,0,2.94258,2.46547,56.3965)">        <g>            <path d="M75.942,76.209c0.796,-0.678 0.495,-1.351 -0.515,-0.607c-8.295,6.105 -16.758,11.421 -27.02,16.08c-10.261,4.658 -27.6,8.947 -47.048,13.27c-1.294,0.287 -1.564,1.195 -1.444,1.835c0.119,0.641 0.936,1.102 2.032,0.941c1.31,-0.19 27.376,-4.601 47.102,-14.178c20.051,-9.735 26.893,-17.341 26.893,-17.341Z" style="fill:url(#_Linear1);fill-rule:nonzero;"/>            <path d="M2.095,100.334c0.83,-0.149 31.688,-5.157 49.381,-14.003c10.29,-5.146 20.701,-10.543 33.185,-19.104c1.167,-0.8 0.33,-1.256 -0.513,-0.757c-11.573,6.847 -22.367,13 -35.856,18.551c-16.367,6.736 -44.705,11.606 -46.711,12.008c-1.216,0.245 -1.88,0.941 -1.714,2.125c0.116,0.829 0.889,1.418 2.228,1.18Z" style="fill:url(#_Linear2);fill-rule:nonzero;"/>            <path d="M156.582,33.836c-0.7,-0.297 -20.387,-6.649 -51.188,-15.118c-30.801,-8.47 -74.64,-19.23 -76.531,-19.142c-1.011,0.047 -2.214,0.952 -2.521,1.911c-0.27,0.837 0.142,1.714 1.956,2.099c3.892,0.826 47.042,8.575 76.743,16.558c29.7,7.983 49.907,13.658 51.207,14.051c0.878,0.265 0.641,-0.229 0.334,-0.359Z" style="fill:url(#_Linear3);fill-rule:nonzero;"/>            <path d="M27.413,6.742c5.56,0.798 50.374,8.618 69.534,13.093c19.159,4.475 50.527,12.99 51.294,13.211c0.767,0.221 1.077,0.704 -0.173,0.482c-2.013,-0.356 -35.024,-9.143 -51.594,-12.13c-16.57,-2.987 -66.344,-10.417 -69.705,-10.849c-1.681,-0.216 -2.462,-1.296 -1.869,-2.194c0.595,-0.899 1.789,-1.717 2.513,-1.613Z" style="fill:url(#_Linear4);fill-rule:nonzero;"/>            <path d="M25.644,14.069c5.933,0.772 54.489,6.166 71.391,9.392c16.901,3.226 45.384,10.123 45.384,10.123l-1.857,0.245c0,0 -27.25,-6.03 -43.881,-8.332c-16.632,-2.301 -66.438,-6.725 -71.037,-7.079c-4.6,-0.353 -0.982,-4.476 0,-4.349Z" style="fill:url(#_Linear5);fill-rule:nonzero;"/>            <path d="M135.871,34.272c0,0 -22.198,-4.633 -39.982,-6.793c-17.786,-2.16 -66.284,-5.077 -71.184,-5.079c-2.865,-0.002 -3.75,4.116 -0.411,4.116c6.394,0 47.004,0.927 71.595,3.316c24.589,2.388 38.59,4.885 38.59,4.885l1.392,-0.445Z" style="fill:url(#_Linear6);fill-rule:nonzero;"/>            <path d="M3.294,92.198c0,0 27.304,-2.287 49.63,-12.563c27.799,-12.792 36.238,-17.958 36.238,-17.958c0,0 3.264,-1.775 3.987,-2.203c0.723,-0.428 0.436,-0.824 -0.007,-0.605c-0.443,0.218 -4.247,2.09 -4.247,2.09c0,0 -13.063,6.557 -36.624,16.011c-14.846,5.956 -35.698,9.538 -46.713,11.003c-3.639,0.486 -4.995,4.58 -2.264,4.225Z" style="fill:url(#_Linear7);fill-rule:nonzero;"/>            <path d="M6.772,83.325c5.319,-0.273 30.301,-4.873 42.226,-9.035c11.925,-4.161 42.565,-17.439 42.565,-17.439c0,0 6.909,-2.78 8.037,-3.245c1.128,-0.464 2.255,-1.703 -0.178,-1.128c-2.433,0.576 -25.301,10.174 -32.201,12.474c-6.9,2.301 -29.361,9.23 -39.687,11.146c-10.324,1.916 -15.214,2.421 -19.319,3.008c-1.238,0.177 -6.074,4.456 -1.443,4.219Z" style="fill:url(#_Linear8);fill-rule:nonzero;"/>            <path d="M10.318,73.769c4.568,-0.582 19.963,-3.094 33.791,-5.793c13.828,-2.699 30.838,-9.068 39.567,-12.018c8.729,-2.949 21.301,-7.125 22.622,-7.543c1.323,-0.419 1.333,-1.48 0,-1.068c-1.332,0.414 -41.318,12.916 -50.105,14.862c-8.787,1.947 -42.091,6.36 -43.914,6.55c-6.407,0.66 -7.056,5.657 -1.961,5.01Z" style="fill:url(#_Linear9);fill-rule:nonzero;"/>            <path d="M13.877,63.153c5.827,-0.495 32.062,-3.421 43.235,-5.455c11.172,-2.035 36.561,-9.035 42.046,-10.445c5.485,-1.41 12.852,-2.877 12.852,-2.877c0,0 1.792,-1.218 0,-1.069c-1.794,0.148 -10.286,2.084 -17.895,3.947c-7.607,1.864 -26.259,5.19 -37.003,6.812c-10.744,1.621 -37.666,3.899 -40.539,4.164c-2.872,0.263 -7.368,5.322 -2.696,4.923Z" style="fill:url(#_Linear10);fill-rule:nonzero;"/>            <path d="M18.565,52.368c3.653,-0.177 33.229,-2.032 42.978,-3.054c9.749,-1.022 36.406,-5.388 43.247,-6.803c6.842,-1.415 13.222,-2.047 14.072,-2.173c0.85,-0.126 2.157,-1.188 0,-1.07c-2.158,0.118 -38.37,4.713 -45.536,5.335c-7.166,0.622 -46.709,2.735 -51.575,2.651c-4.866,-0.084 -7.589,5.329 -3.186,5.114Z" style="fill:url(#_Linear11);fill-rule:nonzero;"/>            <path d="M21.988,41.734c8.492,0.013 36.829,-0.858 50.649,-1.288c13.821,-0.429 32.028,-2.09 36.362,-2.4c4.334,-0.31 15.058,-0.136 15.058,-0.136c0,0 4.06,-0.48 1.803,-0.711c-2.258,-0.232 -36.463,0.122 -46.607,0.24c-10.144,0.118 -39.395,0.295 -46.06,0.059c-6.664,-0.235 -7.137,-0.281 -10.91,-0.376c-3.776,-0.095 -5.486,4.604 -0.295,4.612Z" style="fill:url(#_Linear12);fill-rule:nonzero;"/>            <path d="M21.81,33.829c3.007,0.035 36.945,0.569 44.764,0.443c7.817,-0.125 31.197,0.198 37.567,0.444c6.368,0.246 23.806,1.739 24.344,1.568c0.539,-0.171 2.635,-0.206 1.53,-0.469c-1.105,-0.264 -16.791,-1.835 -28.232,-2.553c-11.442,-0.718 -27.543,-1.721 -35.387,-2.016c-7.845,-0.295 -39.619,-1.415 -42.103,-1.415c-2.484,0 -5.67,3.961 -2.483,3.998Z" style="fill:url(#_Linear13);fill-rule:nonzero;"/>        </g>        <g>            <path d="M111.969,109.397l-9.477,11.185c-1.822,2.047 -5.062,5.771 -6.014,8.055c-1.861,4.451 2.755,4.928 7.051,5.289l-0.031,2.164l-25.005,0l0.026,-2.164c6.509,-0.602 10.337,-3.73 17.455,-12.146l56.619,-67.083l2.162,0l-0.051,64.92c-0.005,7.215 -0.533,13.947 8.218,14.309l-0.033,2.164l-31.38,0l0.025,-2.164c5.275,-0.243 8.688,-1.202 10.438,-5.409c1.11,-2.646 0.893,-6.736 0.936,-9.137l-0.169,-9.982l-30.77,0l0,-0.001Zm30.833,-36.423l-27.227,32.094l27.406,0l-0.179,-32.094Z" style="fill:rgb(51,0,102);fill-rule:nonzero;"/>            <path d="M197.286,92.205l12.991,0c8.66,0 11.782,-2.042 11.9,-11.056l2.163,0l0,26.929l-2.163,0c-0.118,-9.018 -3.24,-11.059 -11.9,-11.059l-12.991,0l0,23.806c0,10.1 0,13.101 11.31,13.101l0,2.164l-33.91,0l0,-2.164c11.307,0 11.307,-3.001 11.307,-13.101l0,-49.052c0,-10.104 0,-13.11 -11.307,-13.11l0,-2.157l59.143,0l0.73,17.435l-2.046,0c-3.359,-11.908 -7.932,-13.116 -19.105,-13.116l-16.121,0l0,31.38l-0.001,0Z" style="fill:rgb(51,0,102);fill-rule:nonzero;"/>            <path d="M260.75,69.484l-0.236,0l0,51.333c0,10.107 0,13.108 11.3,13.108l0,2.164l-27.767,0l0,-2.164c11.305,0 11.305,-3.001 11.305,-13.108l0,-49.165c0,-9.614 -1.21,-12.989 -11.305,-12.989l0,-2.157l22.596,0l28.865,62.267l28.49,-62.267l22.478,0l0,2.157c-11.302,0 -11.302,3.006 -11.302,13.11l0,49.044c0,10.107 0,13.108 11.302,13.108l0,2.164l-33.9,0l0,-2.164c11.301,0 11.301,-3.001 11.301,-13.108l0,-51.333l-0.246,0l-30.41,66.605l-1.93,0l-30.541,-66.605Z" style="fill:rgb(51,0,102);fill-rule:nonzero;"/>        </g>    </g>    <defs>        <linearGradient id="_Linear1" x1="0" y1="0" x2="1" y2="0" gradientUnits="userSpaceOnUse" gradientTransform="matrix(-157,1.9227e-14,-1.9227e-14,-157,157,33)"><stop offset="0" style="stop-color:rgb(192,175,99);stop-opacity:1"/><stop offset="0.41" style="stop-color:rgb(195,179,107);stop-opacity:1"/><stop offset="0.55" style="stop-color:rgb(204,190,128);stop-opacity:1"/><stop offset="0.67" style="stop-color:rgb(213,201,150);stop-opacity:1"/><stop offset="0.83" style="stop-color:rgb(245,242,229);stop-opacity:1"/><stop offset="1" style="stop-color:white;stop-opacity:1"/></linearGradient>        <linearGradient id="_Linear2" x1="0" y1="0" x2="1" y2="0" gradientUnits="userSpaceOnUse" gradientTransform="matrix(-157,1.9227e-14,-1.9227e-14,-157,157,33)"><stop offset="0" style="stop-color:rgb(192,175,99);stop-opacity:1"/><stop offset="0.41" style="stop-color:rgb(195,179,107);stop-opacity:1"/><stop offset="0.55" style="stop-color:rgb(204,190,128);stop-opacity:1"/><stop offset="0.67" style="stop-color:rgb(213,201,150);stop-opacity:1"/><stop offset="0.83" style="stop-color:rgb(245,242,229);stop-opacity:1"/><stop offset="1" style="stop-color:white;stop-opacity:1"/></linearGradient>        <linearGradient id="_Linear3" x1="0" y1="0" x2="1" y2="0" gradientUnits="userSpaceOnUse" gradientTransform="matrix(-157,1.9227e-14,-1.9227e-14,-157,157,33)"><stop offset="0" style="stop-color:rgb(192,175,99);stop-opacity:1"/><stop offset="0.41" style="stop-color:rgb(195,179,107);stop-opacity:1"/><stop offset="0.55" style="stop-color:rgb(204,190,128);stop-opacity:1"/><stop offset="0.67" style="stop-color:rgb(213,201,150);stop-opacity:1"/><stop offset="0.83" style="stop-color:rgb(245,242,229);stop-opacity:1"/><stop offset="1" style="stop-color:white;stop-opacity:1"/></linearGradient>        <linearGradient id="_Linear4" x1="0" y1="0" x2="1" y2="0" gradientUnits="userSpaceOnUse" gradientTransform="matrix(-157,1.9227e-14,-1.9227e-14,-157,157,33)"><stop offset="0" style="stop-color:rgb(192,175,99);stop-opacity:1"/><stop offset="0.41" style="stop-color:rgb(195,179,107);stop-opacity:1"/><stop offset="0.55" style="stop-color:rgb(204,190,128);stop-opacity:1"/><stop offset="0.67" style="stop-color:rgb(213,201,150);stop-opacity:1"/><stop offset="0.83" style="stop-color:rgb(245,242,229);stop-opacity:1"/><stop offset="1" style="stop-color:white;stop-opacity:1"/></linearGradient>        <linearGradient id="_Linear5" x1="0" y1="0" x2="1" y2="0" gradientUnits="userSpaceOnUse" gradientTransform="matrix(-157,1.9227e-14,-1.9227e-14,-157,157,33)"><stop offset="0" style="stop-color:rgb(192,175,99);stop-opacity:1"/><stop offset="0.41" style="stop-color:rgb(195,179,107);stop-opacity:1"/><stop offset="0.55" style="stop-color:rgb(204,190,128);stop-opacity:1"/><stop offset="0.67" style="stop-color:rgb(213,201,150);stop-opacity:1"/><stop offset="0.83" style="stop-color:rgb(245,242,229);stop-opacity:1"/><stop offset="1" style="stop-color:white;stop-opacity:1"/></linearGradient>        <linearGradient id="_Linear6" x1="0" y1="0" x2="1" y2="0" gradientUnits="userSpaceOnUse" gradientTransform="matrix(-157,1.9227e-14,-1.9227e-14,-157,157,33)"><stop offset="0" style="stop-color:rgb(192,175,99);stop-opacity:1"/><stop offset="0.41" style="stop-color:rgb(195,179,107);stop-opacity:1"/><stop offset="0.55" style="stop-color:rgb(204,190,128);stop-opacity:1"/><stop offset="0.67" style="stop-color:rgb(213,201,150);stop-opacity:1"/><stop offset="0.83" style="stop-color:rgb(245,242,229);stop-opacity:1"/><stop offset="1" style="stop-color:white;stop-opacity:1"/></linearGradient>        <linearGradient id="_Linear7" x1="0" y1="0" x2="1" y2="0" gradientUnits="userSpaceOnUse" gradientTransform="matrix(-157,1.9227e-14,-1.9227e-14,-157,157,33)"><stop offset="0" style="stop-color:rgb(192,175,99);stop-opacity:1"/><stop offset="0.41" style="stop-color:rgb(195,179,107);stop-opacity:1"/><stop offset="0.55" style="stop-color:rgb(204,190,128);stop-opacity:1"/><stop offset="0.67" style="stop-color:rgb(213,201,150);stop-opacity:1"/><stop offset="0.83" style="stop-color:rgb(245,242,229);stop-opacity:1"/><stop offset="1" style="stop-color:white;stop-opacity:1"/></linearGradient>        <linearGradient id="_Linear8" x1="0" y1="0" x2="1" y2="0" gradientUnits="userSpaceOnUse" gradientTransform="matrix(-157,1.9227e-14,-1.9227e-14,-157,157,33)"><stop offset="0" style="stop-color:rgb(192,175,99);stop-opacity:1"/><stop offset="0.41" style="stop-color:rgb(195,179,107);stop-opacity:1"/><stop offset="0.55" style="stop-color:rgb(204,190,128);stop-opacity:1"/><stop offset="0.67" style="stop-color:rgb(213,201,150);stop-opacity:1"/><stop offset="0.83" style="stop-color:rgb(245,242,229);stop-opacity:1"/><stop offset="1" style="stop-color:white;stop-opacity:1"/></linearGradient>        <linearGradient id="_Linear9" x1="0" y1="0" x2="1" y2="0" gradientUnits="userSpaceOnUse" gradientTransform="matrix(-157,1.9227e-14,-1.9227e-14,-157,157,33)"><stop offset="0" style="stop-color:rgb(192,175,99);stop-opacity:1"/><stop offset="0.41" style="stop-color:rgb(195,179,107);stop-opacity:1"/><stop offset="0.55" style="stop-color:rgb(204,190,128);stop-opacity:1"/><stop offset="0.67" style="stop-color:rgb(213,201,150);stop-opacity:1"/><stop offset="0.83" style="stop-color:rgb(245,242,229);stop-opacity:1"/><stop offset="1" style="stop-color:white;stop-opacity:1"/></linearGradient>        <linearGradient id="_Linear10" x1="0" y1="0" x2="1" y2="0" gradientUnits="userSpaceOnUse" gradientTransform="matrix(-157,1.9227e-14,-1.9227e-14,-157,157,33)"><stop offset="0" style="stop-color:rgb(192,175,99);stop-opacity:1"/><stop offset="0.41" style="stop-color:rgb(195,179,107);stop-opacity:1"/><stop offset="0.55" style="stop-color:rgb(204,190,128);stop-opacity:1"/><stop offset="0.67" style="stop-color:rgb(213,201,150);stop-opacity:1"/><stop offset="0.83" style="stop-color:rgb(245,242,229);stop-opacity:1"/><stop offset="1" style="stop-color:white;stop-opacity:1"/></linearGradient>        <linearGradient id="_Linear11" x1="0" y1="0" x2="1" y2="0" gradientUnits="userSpaceOnUse" gradientTransform="matrix(-157,1.9227e-14,-1.9227e-14,-157,157,33)"><stop offset="0" style="stop-color:rgb(192,175,99);stop-opacity:1"/><stop offset="0.41" style="stop-color:rgb(195,179,107);stop-opacity:1"/><stop offset="0.55" style="stop-color:rgb(204,190,128);stop-opacity:1"/><stop offset="0.67" style="stop-color:rgb(213,201,150);stop-opacity:1"/><stop offset="0.83" style="stop-color:rgb(245,242,229);stop-opacity:1"/><stop offset="1" style="stop-color:white;stop-opacity:1"/></linearGradient>        <linearGradient id="_Linear12" x1="0" y1="0" x2="1" y2="0" gradientUnits="userSpaceOnUse" gradientTransform="matrix(-157,1.9227e-14,-1.9227e-14,-157,157,33)"><stop offset="0" style="stop-color:rgb(192,175,99);stop-opacity:1"/><stop offset="0.41" style="stop-color:rgb(195,179,107);stop-opacity:1"/><stop offset="0.55" style="stop-color:rgb(204,190,128);stop-opacity:1"/><stop offset="0.67" style="stop-color:rgb(213,201,150);stop-opacity:1"/><stop offset="0.83" style="stop-color:rgb(245,242,229);stop-opacity:1"/><stop offset="1" style="stop-color:white;stop-opacity:1"/></linearGradient>        <linearGradient id="_Linear13" x1="0" y1="0" x2="1" y2="0" gradientUnits="userSpaceOnUse" gradientTransform="matrix(-157,1.9227e-14,-1.9227e-14,-157,157,33)"><stop offset="0" style="stop-color:rgb(192,175,99);stop-opacity:1"/><stop offset="0.41" style="stop-color:rgb(195,179,107);stop-opacity:1"/><stop offset="0.55" style="stop-color:rgb(204,190,128);stop-opacity:1"/><stop offset="0.67" style="stop-color:rgb(213,201,150);stop-opacity:1"/><stop offset="0.83" style="stop-color:rgb(245,242,229);stop-opacity:1"/><stop offset="1" style="stop-color:white;stop-opacity:1"/></linearGradient>    </defs></svg>