<?xml version="1.0" encoding="UTF-8" standalone="no"?><!DOCTYPE svg PUBLIC "-//W3C//DTD SVG 1.1//EN" "http://www.w3.org/Graphics/SVG/1.1/DTD/svg11.dtd"><svg width="100%" height="100%" viewBox="0 0 1024 512" version="1.1" xmlns="http://www.w3.org/2000/svg" xmlns:xlink="http://www.w3.org/1999/xlink" xml:space="preserve" style="fill-rule:evenodd;clip-rule:evenodd;stroke-linejoin:round;stroke-miterlimit:2;"><title>ViaSMS CZ</title><desc>Via SMS s.r.o. (operating under the brand VIASMS.cz) is consumer lending company founded in 2010 that is registered and operating in the Czech Republic. VIASMS.cz offers short-term consumer lending services:	•	Payday loans - short-term consumer loan up to CZK 20 000 with a loan term up to 30 days. VIASMS.cz offers fast and convenient lending by ensuring online application process and 0% fee for the first loan.</desc>    <g transform="matrix(2.57439,0,0,2.57439,2.02494,50.3281)">        <g>            <g>                <path d="M70.4,65.3l-20.3,39.2l-0.5,0l-21.2,-39.2l10.2,0l11.5,24.3l10.7,-24.3l9.6,0Z" style="fill:rgb(0,58,81);fill-rule:nonzero;"/>                <path d="M80.5,48.2c1,-0.9 2.2,-1.4 3.6,-1.4c1.3,0 2.5,0.5 3.5,1.4c1,0.9 1.5,2.1 1.5,3.4c0,1.3 -0.5,2.5 -1.5,3.4c-1,0.9 -2.2,1.4 -3.5,1.4c-1.3,0 -2.5,-0.5 -3.6,-1.4c-1,-0.9 -1.6,-2.1 -1.6,-3.4c0.1,-1.4 0.6,-2.5 1.6,-3.4Zm7.7,17.1l0,38.1l-8.6,0l0,-38.1l8.6,0Z" style="fill:rgb(0,58,81);fill-rule:nonzero;"/>                <path d="M142.2,65.2l0,38.2l-8.6,0l0,-6.3c-1.3,1.8 -3.3,3.4 -5.9,4.9c-2.6,1.5 -5.5,2.3 -8.7,2.3c-3.6,0 -6.9,-0.8 -9.8,-2.3c-2.9,-1.6 -5.2,-3.8 -6.9,-6.9c-1.7,-3 -2.5,-6.6 -2.5,-10.8c0,-4.2 0.9,-7.8 2.6,-10.9c1.7,-3.1 4.1,-5.5 7.1,-7.2c3,-1.7 6.3,-2.5 9.9,-2.5c3.3,0 6.1,0.7 8.5,2.1c2.4,1.4 4.3,3.3 5.8,5.5l0.6,-6.1l7.9,0Zm-12.9,29.4c2.2,-1.7 3.7,-4.1 4.3,-7.1l0,-7.5c-0.7,-2.7 -2.3,-4.9 -4.6,-6.6c-2.3,-1.7 -5,-2.5 -8,-2.5c-2.3,0 -4.4,0.6 -6.3,1.7c-1.9,1.1 -3.5,2.7 -4.6,4.6c-1.1,2 -1.7,4.2 -1.7,6.8c0,2.5 0.6,4.7 1.7,6.7c1.2,2 2.7,3.6 4.7,4.8c2,1.2 4.1,1.8 6.4,1.8c3.2,-0.1 5.9,-1 8.1,-2.7Z" style="fill:rgb(0,58,81);fill-rule:nonzero;"/>                <path d="M159.8,102.7c-2.5,-1 -4.6,-2.4 -6.2,-4.3l3.7,-5c1.5,1.5 3.1,2.6 4.8,3.4c1.7,0.8 3.4,1.2 5,1.2c2,0 3.7,-0.4 5,-1.2c1.3,-0.8 1.9,-2 1.9,-3.7c0,-1.3 -0.4,-2.3 -1.2,-3.1c-0.8,-0.8 -1.7,-1.4 -2.7,-1.7c-1,-0.4 -2.7,-0.9 -5.1,-1.7c-6.5,-2.1 -9.8,-5.8 -9.8,-11.1c0,-3.2 1.2,-5.9 3.5,-8.2c2.4,-2.3 5.7,-3.4 9.9,-3.4c2.7,0 5.1,0.3 7.2,1c2.1,0.7 4,1.7 5.8,3.2l-3.4,5.2c-1,-1 -2.2,-1.9 -3.7,-2.5c-1.5,-0.6 -2.9,-1 -4.3,-1c-1.7,0 -3.2,0.4 -4.4,1.2c-1.2,0.8 -1.8,1.9 -1.8,3.4c0,1.2 0.4,2.1 1.2,2.9c0.8,0.8 1.6,1.3 2.5,1.7c0.9,0.3 2.5,0.9 5.1,1.7c3.1,1 5.6,2.4 7.3,4c1.7,1.7 2.6,3.9 2.6,6.7c0,3.7 -1.3,6.7 -3.9,9.1c-2.6,2.4 -6.2,3.6 -10.9,3.6c-2.9,0.1 -5.6,-0.4 -8.1,-1.4Z" style="fill:rgb(0,58,81);fill-rule:nonzero;"/>                <path d="M252.2,66.9c2.2,2.1 3.3,4.8 3.5,8.3l0,28.2l-8.6,0l0,-25.1c-0.2,-4.5 -2.2,-6.8 -6.1,-7.1c-2.2,0 -4.2,0.7 -5.9,2c-1.7,1.3 -3.1,3.1 -4.1,5.2c-1,2.1 -1.5,4.4 -1.6,6.9l0,18.1l-8.6,0l0,-25.1c-0.2,-4.5 -2.3,-6.8 -6.3,-7.1c-2.1,0 -4.1,0.7 -5.8,2c-1.7,1.3 -3.1,3.1 -4.1,5.2c-1,2.2 -1.5,4.5 -1.5,6.9l0,18l-8.6,0l0,-38l7.7,0l0.6,7.2c1.5,-2.8 3.5,-4.9 6,-6.4c2.5,-1.5 5.4,-2.3 8.7,-2.3c3.1,0 5.6,0.7 7.7,2.2c2.1,1.4 3.4,3.4 4,5.9c1.6,-2.5 3.6,-4.5 6.1,-5.9c2.5,-1.4 5.1,-2.2 7.9,-2.2c3.9,-0.1 6.9,1 9,3.1Z" style="fill:rgb(0,58,81);fill-rule:nonzero;"/>                <path d="M273.2,102.7c-2.5,-1 -4.6,-2.4 -6.2,-4.3l3.7,-5c1.5,1.5 3.1,2.6 4.8,3.4c1.7,0.8 3.4,1.2 5,1.2c2,0 3.7,-0.4 5,-1.2c1.3,-0.8 1.9,-2 1.9,-3.7c0,-1.3 -0.4,-2.3 -1.2,-3.1c-0.8,-0.8 -1.7,-1.4 -2.7,-1.7c-1,-0.4 -2.7,-0.9 -5.1,-1.7c-6.5,-2.1 -9.8,-5.8 -9.8,-11.1c0,-3.2 1.2,-5.9 3.5,-8.2c2.4,-2.3 5.7,-3.4 9.9,-3.4c2.7,0 5.1,0.3 7.2,1c2.1,0.7 4,1.7 5.8,3.2l-3.4,5.2c-1,-1 -2.2,-1.9 -3.7,-2.5c-1.5,-0.6 -2.9,-1 -4.3,-1c-1.7,0 -3.2,0.4 -4.4,1.2c-1.2,0.8 -1.8,1.9 -1.8,3.4c0,1.2 0.4,2.1 1.2,2.9c0.8,0.8 1.6,1.3 2.5,1.7c0.9,0.3 2.5,0.9 5.1,1.7c3.1,1 5.6,2.4 7.3,4c1.7,1.7 2.6,3.9 2.6,6.7c0,3.7 -1.3,6.7 -3.9,9.1c-2.6,2.4 -6.2,3.6 -10.9,3.6c-2.9,0.1 -5.5,-0.4 -8.1,-1.4Z" style="fill:rgb(0,58,81);fill-rule:nonzero;"/>                <path d="M305.2,95c1,-1 2.1,-1.5 3.4,-1.5c1.2,0 2.3,0.5 3.3,1.5c1,1 1.5,2.1 1.5,3.5c0,1.4 -0.5,2.6 -1.5,3.5c-1,0.9 -2.1,1.4 -3.3,1.4c-1.3,0 -2.4,-0.5 -3.4,-1.4c-1,-0.9 -1.5,-2.1 -1.5,-3.5c0,-1.3 0.5,-2.5 1.5,-3.5Z" style="fill:rgb(0,58,81);fill-rule:nonzero;"/>                <path d="M348.4,103.1c-2.4,0.8 -4.8,1.2 -7.2,1.2c-4.1,0 -7.7,-0.8 -10.9,-2.5c-3.2,-1.7 -5.6,-4 -7.4,-7c-1.8,-3 -2.6,-6.5 -2.6,-10.5c0,-3.9 0.9,-7.4 2.8,-10.4c1.8,-3 4.3,-5.4 7.4,-7c3.1,-1.7 6.4,-2.5 9.9,-2.5c5.8,0 10.6,1.6 14.4,4.8l-4.3,5.6c-1.2,-0.9 -2.6,-1.7 -4.2,-2.3c-1.6,-0.6 -3.3,-1 -5.2,-1c-2.3,0 -4.3,0.6 -6.2,1.7c-1.9,1.1 -3.3,2.7 -4.4,4.6c-1.1,2 -1.6,4.1 -1.6,6.5c0,2.4 0.6,4.6 1.7,6.5c1.1,2 2.7,3.5 4.6,4.7c2,1.2 4.2,1.7 6.7,1.7c3.1,0 5.9,-0.9 8.2,-2.8l4.4,5.3c-1.7,1.5 -3.8,2.6 -6.1,3.4Z" style="fill:rgb(0,58,81);fill-rule:nonzero;"/>            </g>            <path d="M360.6,65.3l35.6,0l-21.6,31l21.3,0l0,7.1l-35.2,0l21.6,-31.1l-21.7,-0.1" style="fill:rgb(0,58,81);fill-rule:nonzero;"/>        </g>        <path d="M79.8,159.8c-42,0 -77.3,-33.1 -79.7,-75.6c-1.1,-21.3 6.1,-41.7 20.4,-57.6c14.2,-15.9 33.8,-25.3 55.1,-26.5c25.7,-1.4 50.7,9.8 66.8,30c1.2,1.5 1,3.7 -0.6,4.9c-1.5,1.2 -3.7,1 -4.9,-0.6c-14.7,-18.3 -37.4,-28.5 -60.9,-27.3c-19.4,1.1 -37.3,9.6 -50.3,24.1c-13,14.6 -19.6,33.2 -18.6,52.6c2.2,40.2 36.6,71.1 76.7,68.8c20.9,-1.1 40.3,-11.2 53.3,-27.7c1.2,-1.5 3.4,-1.8 4.9,-0.6c1.5,1.2 1.8,3.4 0.6,4.9c-14.3,18.1 -35.6,29.1 -58.5,30.3c-1.4,0.3 -2.8,0.3 -4.3,0.3Z" style="fill:url(#_Linear1);fill-rule:nonzero;"/>    </g>    <defs>        <linearGradient id="_Linear1" x1="0" y1="0" x2="1" y2="0" gradientUnits="userSpaceOnUse" gradientTransform="matrix(143.442,0,0,143.442,0,79.9078)"><stop offset="0" style="stop-color:rgb(209,32,38);stop-opacity:1"/><stop offset="1" style="stop-color:rgb(1,58,81);stop-opacity:1"/></linearGradient>    </defs></svg>