<?xml version="1.0" encoding="UTF-8" standalone="no"?><!DOCTYPE svg PUBLIC "-//W3C//DTD SVG 1.1//EN" "http://www.w3.org/Graphics/SVG/1.1/DTD/svg11.dtd"><svg width="100%" height="100%" viewBox="0 0 1024 512" version="1.1" xmlns="http://www.w3.org/2000/svg" xmlns:xlink="http://www.w3.org/1999/xlink" xml:space="preserve" style="fill-rule:evenodd;clip-rule:evenodd;stroke-linejoin:round;stroke-miterlimit:2;"><title>Lendmarket</title><desc>Lendmarket is the first secondary market platform for corporate debt, which brings investors into contact with debt originators that offer holdings of Direct Lending funds or loans on Crowdlending platforms.Our goal is to give investors access to the corporate debt market, until now only accessible to institutional clients and Family Offices, offering a great diversification in high quality loans, with an excellent return-to-risk ratio.</desc>    <g transform="matrix(1.0154,0,0,1.01486,-8.15402,-3.80467)">        <g transform="matrix(1.73801,0,0,1.73801,-17.1036,211.681)">            <path d="M151.095,-110c74.784,0 135.5,60.716 135.5,135.5c0,74.784 -60.716,135.5 -135.5,135.5c-74.785,0 -135.5,-60.716 -135.5,-135.5c0,-74.784 60.715,-135.5 135.5,-135.5Zm18,25c60.986,0 110.5,49.513 110.5,110.5c0,60.987 -49.514,110.5 -110.5,110.5c-60.987,0 -110.5,-49.513 -110.5,-110.5c0,-60.987 49.513,-110.5 110.5,-110.5Z" style="fill:rgb(150,0,1);"/>        </g>        <g transform="matrix(1.80323,0,0,1.88082,-901.511,79.2741)">            <g transform="matrix(132.986,0,0,127.5,571,129.345)">                <rect x="0.051" y="-0.56" width="0.064" height="0.56" style="fill-rule:nonzero;"/>            </g>            <g transform="matrix(132.986,0,0,127.5,593.208,129.345)">                <path d="M0.304,-0.1l0.065,0l0,0.004c0,0.017 -0.007,0.035 -0.021,0.052c-0.014,0.018 -0.032,0.032 -0.054,0.041c-0.023,0.009 -0.048,0.014 -0.077,0.014c-0.059,0 -0.105,-0.019 -0.137,-0.057c-0.032,-0.038 -0.048,-0.087 -0.048,-0.145c0,-0.059 0.017,-0.109 0.051,-0.148c0.034,-0.039 0.077,-0.059 0.131,-0.059c0.029,0 0.056,0.006 0.08,0.019c0.024,0.013 0.043,0.033 0.056,0.059c0.014,0.027 0.021,0.065 0.021,0.113l0,0.021l-0.275,0c0,0.042 0.011,0.076 0.034,0.103c0.022,0.027 0.053,0.04 0.092,0.04c0.028,0 0.049,-0.005 0.062,-0.016c0.014,-0.011 0.02,-0.024 0.02,-0.037l0,-0.004Zm-0.204,-0.134l0.209,0l0,-0.008c0,-0.018 -0.004,-0.035 -0.013,-0.052c-0.008,-0.017 -0.02,-0.03 -0.036,-0.038c-0.015,-0.008 -0.033,-0.012 -0.053,-0.012c-0.024,0 -0.046,0.009 -0.067,0.029c-0.02,0.019 -0.033,0.046 -0.04,0.081Z" style="fill-rule:nonzero;"/>            </g>            <g transform="matrix(132.986,0,0,127.5,647.558,129.345)">                <path d="M0.115,0l-0.064,0l0,-0.387l0.064,0l0,0.067c0.014,-0.021 0.027,-0.037 0.04,-0.047c0.013,-0.01 0.026,-0.018 0.04,-0.023c0.014,-0.005 0.03,-0.008 0.047,-0.008c0.024,0 0.046,0.005 0.065,0.015c0.02,0.01 0.035,0.025 0.045,0.044c0.011,0.019 0.016,0.05 0.016,0.092l0,0.247l-0.064,0l0,-0.219c0,-0.035 -0.003,-0.059 -0.007,-0.073c-0.005,-0.015 -0.014,-0.026 -0.027,-0.034c-0.014,-0.009 -0.028,-0.013 -0.044,-0.013c-0.019,0 -0.037,0.006 -0.054,0.017c-0.017,0.011 -0.031,0.026 -0.041,0.046c-0.011,0.02 -0.016,0.049 -0.016,0.086l0,0.19Z" style="fill-rule:nonzero;"/>            </g>            <g transform="matrix(132.986,0,0,127.5,702.622,129.345)">                <path d="M0.317,-0.56l0.065,0l0,0.56l-0.065,0l0,-0.067c-0.013,0.025 -0.026,0.042 -0.038,0.052c-0.013,0.01 -0.027,0.016 -0.042,0.02c-0.016,0.004 -0.031,0.006 -0.047,0.006c-0.029,0 -0.056,-0.008 -0.08,-0.024c-0.025,-0.017 -0.044,-0.041 -0.057,-0.072c-0.014,-0.032 -0.021,-0.068 -0.021,-0.108c0,-0.059 0.014,-0.108 0.043,-0.147c0.028,-0.038 0.068,-0.058 0.119,-0.058c0.016,0 0.032,0.002 0.046,0.007c0.015,0.005 0.028,0.012 0.04,0.021c0.011,0.01 0.024,0.026 0.037,0.05l0,-0.24Zm0,0.366c0,-0.044 -0.009,-0.08 -0.028,-0.108c-0.019,-0.028 -0.046,-0.042 -0.08,-0.042c-0.031,0 -0.057,0.012 -0.078,0.037c-0.021,0.025 -0.031,0.062 -0.031,0.112c0,0.058 0.01,0.098 0.03,0.121c0.02,0.023 0.046,0.034 0.078,0.034c0.02,0 0.039,-0.006 0.057,-0.019c0.017,-0.012 0.03,-0.031 0.039,-0.055c0.009,-0.024 0.013,-0.051 0.013,-0.08Z" style="fill-rule:nonzero;"/>            </g>        </g>        <g transform="matrix(239.804,0,0,239.804,470.822,322.549)">            <path d="M0.115,0l-0.064,0l0,-0.387l0.064,0l0,0.07c0.014,-0.023 0.026,-0.04 0.038,-0.05c0.012,-0.011 0.025,-0.018 0.039,-0.023c0.014,-0.005 0.029,-0.008 0.045,-0.008c0.016,0 0.031,0.002 0.046,0.007c0.014,0.005 0.027,0.013 0.038,0.023c0.01,0.01 0.021,0.027 0.031,0.051c0.013,-0.023 0.026,-0.039 0.039,-0.05c0.013,-0.01 0.026,-0.018 0.04,-0.023c0.013,-0.005 0.028,-0.008 0.043,-0.008c0.022,0 0.042,0.005 0.059,0.015c0.018,0.011 0.032,0.025 0.041,0.044c0.01,0.019 0.015,0.052 0.015,0.097l0,0.242l-0.065,0l0,-0.215c0,-0.046 -0.002,-0.075 -0.008,-0.087c-0.005,-0.012 -0.013,-0.021 -0.023,-0.027c-0.009,-0.007 -0.021,-0.01 -0.035,-0.01c-0.019,0 -0.036,0.006 -0.052,0.018c-0.017,0.012 -0.03,0.028 -0.039,0.048c-0.01,0.02 -0.015,0.048 -0.015,0.085l0,0.188l-0.064,0l0,-0.215c0,-0.046 -0.003,-0.075 -0.008,-0.087c-0.005,-0.012 -0.013,-0.021 -0.023,-0.027c-0.011,-0.007 -0.023,-0.01 -0.035,-0.01c-0.018,0 -0.035,0.006 -0.052,0.019c-0.017,0.012 -0.031,0.028 -0.04,0.049c-0.01,0.02 -0.015,0.048 -0.015,0.083l0,0.188Z" style="fill-rule:nonzero;"/>        </g>        <g transform="matrix(239.804,0,0,239.804,620.042,322.549)">            <path d="M0.29,0c-0.007,-0.021 -0.01,-0.039 -0.01,-0.054c-0.029,0.028 -0.053,0.046 -0.072,0.054c-0.02,0.007 -0.04,0.011 -0.058,0.011c-0.031,0 -0.057,-0.01 -0.079,-0.029c-0.022,-0.018 -0.033,-0.044 -0.033,-0.077c0,-0.038 0.015,-0.067 0.046,-0.087c0.031,-0.02 0.085,-0.038 0.161,-0.053l0.035,-0.006l0,-0.044c0,-0.024 -0.008,-0.041 -0.024,-0.05c-0.016,-0.01 -0.035,-0.015 -0.058,-0.015c-0.026,0 -0.047,0.006 -0.063,0.018c-0.015,0.012 -0.022,0.026 -0.022,0.041l0,0.006l-0.07,0l0,-0.005c0,-0.017 0.007,-0.035 0.022,-0.053c0.014,-0.018 0.033,-0.032 0.057,-0.042c0.024,-0.009 0.05,-0.013 0.079,-0.013c0.028,0 0.054,0.004 0.077,0.013c0.023,0.009 0.04,0.02 0.05,0.035c0.011,0.015 0.016,0.043 0.016,0.084l0,0.151c0,0.016 0.001,0.034 0.001,0.052c0.001,0.018 0.005,0.039 0.013,0.063l-0.068,0Zm-0.01,-0.195l-0.02,0.004c-0.065,0.016 -0.107,0.031 -0.125,0.046c-0.018,0.014 -0.028,0.031 -0.028,0.051c0,0.01 0.003,0.02 0.008,0.029c0.006,0.008 0.014,0.015 0.025,0.02c0.01,0.005 0.021,0.007 0.031,0.007c0.018,0 0.036,-0.005 0.053,-0.015c0.018,-0.011 0.031,-0.025 0.041,-0.043c0.01,-0.017 0.015,-0.038 0.015,-0.061l0,-0.038Z" style="fill-rule:nonzero;"/>        </g>        <g transform="matrix(239.804,0,0,239.804,715.184,322.549)">            <path d="M0.115,0l-0.064,0l0,-0.387l0.064,0l0,0.068c0.011,-0.02 0.023,-0.035 0.035,-0.046c0.013,-0.01 0.026,-0.019 0.04,-0.024c0.015,-0.006 0.029,-0.009 0.044,-0.009c0.013,0 0.025,0.002 0.035,0.006l0,0.067c-0.016,-0.008 -0.032,-0.011 -0.049,-0.011c-0.024,0 -0.048,0.01 -0.071,0.032c-0.022,0.021 -0.034,0.059 -0.034,0.113l0,0.191Z" style="fill-rule:nonzero;"/>        </g>        <g transform="matrix(239.804,0,0,239.804,775.99,322.549)">            <path d="M0.118,0l-0.067,0l0,-0.56l0.067,0l0,0.357l0.172,-0.184l0.075,0l-0.168,0.179l0.174,0.208l-0.081,0l-0.172,-0.203l0,0.203Z" style="fill-rule:nonzero;"/>        </g>        <g transform="matrix(239.804,0,0,239.804,857.556,322.549)">            <path d="M0.304,-0.1l0.065,0l0,0.004c0,0.017 -0.007,0.035 -0.021,0.052c-0.014,0.018 -0.032,0.032 -0.054,0.041c-0.023,0.009 -0.048,0.014 -0.077,0.014c-0.059,0 -0.105,-0.019 -0.137,-0.057c-0.032,-0.038 -0.048,-0.087 -0.048,-0.145c0,-0.059 0.017,-0.109 0.051,-0.148c0.034,-0.039 0.077,-0.059 0.131,-0.059c0.029,0 0.056,0.006 0.08,0.019c0.024,0.013 0.043,0.033 0.056,0.059c0.014,0.027 0.021,0.065 0.021,0.113l0,0.021l-0.275,0c0,0.042 0.011,0.076 0.034,0.103c0.022,0.027 0.053,0.04 0.092,0.04c0.028,0 0.049,-0.005 0.062,-0.016c0.014,-0.011 0.02,-0.024 0.02,-0.037l0,-0.004Zm-0.204,-0.134l0.209,0l0,-0.008c0,-0.018 -0.004,-0.035 -0.013,-0.052c-0.008,-0.017 -0.02,-0.03 -0.036,-0.038c-0.015,-0.008 -0.033,-0.012 -0.053,-0.012c-0.024,0 -0.046,0.009 -0.067,0.029c-0.02,0.019 -0.033,0.046 -0.04,0.081Z" style="fill-rule:nonzero;"/>        </g>        <g transform="matrix(239.804,0,0,239.804,945.562,322.549)">            <path d="M0.288,-0.055l0,0.055c-0.032,0.007 -0.056,0.011 -0.072,0.011c-0.024,0 -0.046,-0.005 -0.065,-0.015c-0.02,-0.01 -0.034,-0.024 -0.045,-0.042c-0.01,-0.019 -0.015,-0.048 -0.015,-0.088l0,-0.199l-0.067,0l0,-0.054l0.067,0l0,-0.092l0.065,0l0,0.092l0.113,0l0,0.054l-0.113,0l0,0.18c0,0.034 0.003,0.058 0.008,0.071c0.005,0.014 0.014,0.024 0.025,0.03c0.011,0.006 0.025,0.009 0.041,0.009c0.013,0 0.032,-0.004 0.058,-0.012Z" style="fill-rule:nonzero;"/>        </g>    </g></svg>