<?xml version="1.0" encoding="UTF-8" standalone="no"?><!DOCTYPE svg PUBLIC "-//W3C//DTD SVG 1.1//EN" "http://www.w3.org/Graphics/SVG/1.1/DTD/svg11.dtd"><svg width="100%" height="100%" viewBox="0 0 1024 512" version="1.1" xmlns="http://www.w3.org/2000/svg" xmlns:xlink="http://www.w3.org/1999/xlink" xml:space="preserve" style="fill-rule:evenodd;clip-rule:evenodd;stroke-linejoin:round;stroke-miterlimit:2;"><title>Finance Estonia</title><desc></desc>    <g transform="matrix(2.47825,0,0,2.47825,-3.00607,-61.3281)">        <path d="M115.19,230.42l0,-48.62l31.09,0l0,6.62l-23.71,0l0,14.21l20.22,0l0,6.55l-20.22,0l0,14.61l23.71,0l0,6.63l-31.09,0Z" style="fill:rgb(0,179,227);fill-rule:nonzero;"/>        <path d="M170.74,230.82c-7.31,0 -12.57,-1.71 -17.21,-6.41l4.92,-4.85c3.55,3.55 7.45,4.64 12.44,4.64c6.35,0 10,-2.73 10,-7.45c0.106,-1.864 -0.594,-3.686 -1.92,-5c-1.23,-1.16 -2.46,-1.64 -5.33,-2l-5.74,-0.82c-3.402,-0.321 -6.625,-1.679 -9.23,-3.89c-2.39,-2.26 -3.55,-5.33 -3.55,-9.29c0,-8.47 6.15,-14.28 16.26,-14.28c6.42,0 10.93,1.64 15.1,5.54l-4.71,4.64c-3,-2.87 -6.49,-3.75 -10.59,-3.75c-5.74,0 -8.89,3.28 -8.89,7.58c-0.075,1.698 0.602,3.346 1.85,4.5c1.578,1.238 3.468,2.016 5.46,2.25l5.54,0.82c4.51,0.68 7,1.77 9.09,3.62c2.66,2.32 4,5.8 4,10c0,8.94 -7.31,14.27 -17.5,14.27" style="fill:rgb(0,179,227);fill-rule:nonzero;"/>        <path d="M215.27,188.42l0,42l-7.37,0l0,-42l-13.4,0l0,-6.62l34.17,0l0,6.62l-13.4,0Z" style="fill:rgb(0,179,227);fill-rule:nonzero;"/>        <path d="M265.49,225.64c-7.098,6.869 -18.522,6.869 -25.62,0c-4.79,-4.79 -4.72,-10.18 -4.72,-19.53c0,-9.35 -0.07,-14.75 4.72,-19.52c7.091,-6.884 18.529,-6.884 25.62,0c4.78,4.77 4.65,10.16 4.65,19.52c0,9.36 0.13,14.74 -4.65,19.53m-5.6,-34.64c-1.917,-1.927 -4.527,-3.012 -7.245,-3.012c-2.718,0 -5.328,1.085 -7.245,3.012c-2.39,2.6 -2.87,5.32 -2.87,15.09c0,9.77 0.48,12.49 2.87,15.09c1.919,1.925 4.527,3.008 7.245,3.008c2.718,0 5.326,-1.083 7.245,-3.008c2.39,-2.59 2.86,-5.33 2.86,-15.09c0,-9.76 -0.47,-12.49 -2.86,-15.09" style="fill:rgb(0,179,227);fill-rule:nonzero;"/>        <path d="M310.58,230.42l-22.48,-34.21l0,34.21l-7.37,0l0,-48.62l6.76,0l22.48,34.14l0,-34.14l7.38,0l0,48.62l-6.77,0Z" style="fill:rgb(0,179,227);fill-rule:nonzero;"/>        <rect x="329.43" y="181.8" width="7.37" height="48.62" style="fill:rgb(0,179,227);"/>        <path d="M378.28,230.42l-3.35,-9.77l-19.2,0l-3.35,9.77l-7.86,0l17.84,-48.62l5.94,0l17.84,48.62l-7.86,0Zm-12.78,-37.63l-7.59,21.58l15,0l-7.41,-21.58Z" style="fill:rgb(0,179,227);fill-rule:nonzero;"/>        <path d="M119.39,137.95l22,0l0,3.28l-22,0l0,22.05l-3.69,0l0,-48.62l29.52,0l0,3.28l-25.83,0l0,20.01Z" style="fill:rgb(46,42,37);fill-rule:nonzero;"/>        <rect x="155.57" y="114.66" width="3.69" height="48.62" style="fill:rgb(46,42,37);"/>        <path d="M176.81,121.02l0,42.26l-3.69,0l0,-48.62l3.69,0l28.09,42.13l0,-42.13l3.68,0l0,48.62l-3.68,0l-28.09,-42.26Z" style="fill:rgb(46,42,37);fill-rule:nonzero;"/>        <path d="M249.21,151.47l-22.69,0l-4.24,11.81l-4,0l17.9,-48.62l3.28,0l17.91,48.62l-4,0l-4.16,-11.81Zm-21.52,-3.28l20.31,0l-10.18,-28.61l-10.13,28.61Z" style="fill:rgb(46,42,37);fill-rule:nonzero;"/>        <path d="M270.83,121.02l0,42.26l-3.69,0l0,-48.62l3.69,0l28.09,42.13l0,-42.13l3.68,0l0,48.62l-3.68,0l-28.09,-42.26Z" style="fill:rgb(46,42,37);fill-rule:nonzero;"/>        <path d="M331.78,163.69c-4.558,0.032 -8.943,-1.771 -12.16,-5c-4.45,-4.44 -4.51,-8.8 -4.51,-19.73c0,-10.93 0.06,-15.29 4.51,-19.74c3.217,-3.229 7.602,-5.032 12.16,-5c8.75,0 14.9,5.46 16.54,14.2l-3.76,0c-1.44,-6.76 -6.22,-10.92 -12.78,-10.92c-3.45,-0.034 -6.773,1.318 -9.22,3.75c-3.48,3.49 -3.75,7.31 -3.75,17.69c0,10.38 0.27,14.2 3.75,17.68c2.448,2.431 5.77,3.783 9.22,3.75c6.56,0 11.48,-4.16 12.92,-10.92l3.62,0c-1.64,8.74 -7.92,14.2 -16.54,14.2" style="fill:rgb(46,42,37);fill-rule:nonzero;"/>        <path d="M360.13,114.66l29.52,0l0,3.28l-25.83,0l0,19.19l22,0l0,3.27l-22,0l0,19.6l25.83,0l0,3.28l-29.52,0l0,-48.62Z" style="fill:rgb(46,42,37);fill-rule:nonzero;"/>        <path d="M55.55,121.38l-11.16,11.16c-14.39,14.41 -3.48,3.46 -17.85,17.86c9.46,-0.08 25.43,-0.26 28.4,-0.26c2.23,-0.031 4.385,0.813 6,2.35c1.36,1.34 2.26,3.18 2.26,7c0,4.88 -0.52,18 -0.77,26.84l6.36,-6.33l6.35,-6.31c1.72,-1.73 3.45,-3.48 5.19,-5.2c3.727,-3.707 7.447,-7.423 11.16,-11.15c2.33,-2.34 4.65,-4.64 7,-7c0,-3 0,-35.72 -0.27,-35.72c-11.87,-0.05 -23.78,-0.15 -35.67,-0.2l-7,7" style="fill:rgb(0,179,227);fill-rule:nonzero;"/>        <path d="M159.79,91.61l11.21,-11.16c14.35,-14.45 3.43,-3.45 17.81,-17.86c-9.46,0.08 -25.43,0.26 -28.4,0.26c-2.23,0.031 -4.385,-0.813 -6,-2.35c-1.36,-1.34 -2.26,-3.18 -2.26,-7c0,-4.88 0.52,-18 0.77,-26.84l-6.37,6.34l-6.35,6.31c-1.72,1.73 -3.45,3.48 -5.19,5.2c-3.727,3.707 -7.447,7.423 -11.16,11.15c-2.33,2.34 -4.65,4.64 -7,7c0,3 0,35.72 0.27,35.72c11.87,0.05 23.78,0.15 35.67,0.2l7,-7" style="fill:rgb(0,179,227);fill-rule:nonzero;"/>        <path d="M90.9,54.19l-11.15,-11.19c-14.41,-14.39 -3.47,-3.48 -17.85,-17.85c0.08,9.46 0.26,25.43 0.26,28.4c0.031,2.23 -0.813,4.385 -2.35,6c-1.34,1.36 -3.18,2.26 -7,2.26c-4.88,0 -18,-0.52 -26.84,-0.77l6.33,6.34l6.31,6.35c1.73,1.72 3.48,3.45 5.2,5.19c3.727,3.76 7.457,7.497 11.19,11.21c2.34,2.33 4.64,4.65 7,7c3,0 35.72,0 35.72,-0.27c0.05,-11.87 0.15,-23.78 0.2,-35.67l-7,-7" style="fill:rgb(0,179,227);fill-rule:nonzero;"/>    </g></svg>