<?xml version="1.0" encoding="UTF-8" standalone="no"?><!DOCTYPE svg PUBLIC "-//W3C//DTD SVG 1.1//EN" "http://www.w3.org/Graphics/SVG/1.1/DTD/svg11.dtd"><svg width="100%" height="100%" viewBox="0 0 1024 512" version="1.1" xmlns="http://www.w3.org/2000/svg" xmlns:xlink="http://www.w3.org/1999/xlink" xml:space="preserve" style="fill-rule:evenodd;clip-rule:evenodd;stroke-linejoin:round;stroke-miterlimit:2;"><title>HNW Lending</title><desc>HNW Lending Ltd allows asset owners to use illiquid assets to generate liquidity (cash). In other words rather than sell a fine collection of antiques, some rare wine or hand-crafted jewellery, HNW will arrange for you to borrow money against the value of these assets. </desc>    <g transform="matrix(2.76809,0,0,2.76809,-562.003,145.764)">        <g transform="matrix(0.491405,0,0,0.491405,202.783,19.113)">            <path d="M16.2,79.818l-14.228,0l0,-75.375l14.228,0l0,30.475l35.784,0l0,-30.475l14.13,0l0,75.375l-14.13,0l0,-31.55l-35.784,0l0,31.55Z" style="fill:rgb(55,55,55);"/>        </g>        <g transform="matrix(0.491405,0,0,0.491405,202.783,19.113)">            <path d="M95.613,79.818l-14.228,0l0,-75.375l11.149,0l38.863,48.945l0,-48.945l14.13,0l0,75.375l-11.151,0l-38.763,-48.928l0,48.928Z" style="fill:rgb(55,55,55);"/>        </g>        <g transform="matrix(0.491405,0,0,0.491405,202.783,19.113)">            <path d="M236.848,79.818l-12.632,0l-17.533,-51.061l-17.619,51.061l-12.53,0l-25.412,-75.375l14.814,0l17.271,51.468l17.868,-51.468l11.736,0l17.608,51.713l17.523,-51.713l14.318,0c-8.471,25.125 -16.942,50.25 -25.412,75.375Z" style="fill:rgb(55,55,55);"/>        </g>        <g transform="matrix(0.491405,0,0,0.491405,202.292,19.113)">            <path d="M308.358,66.566l38.29,0l0,13.252l-52.518,0l0,-75.375l14.228,0l0,62.123Z" style="fill:rgb(116,116,116);"/>        </g>        <g transform="matrix(0.491405,0,0,0.491405,201.8,19.113)">            <path d="M405.549,17.694l-39.658,0l0,17.322l35.36,0l0,13.154l-35.36,0l0,18.396l41.123,0l0,13.252l-55.351,0l0,-75.375l53.886,0l0,13.251Z" style="fill:rgb(116,116,116);"/>        </g>        <g transform="matrix(0.491405,0,0,0.491405,202.783,19.113)">            <path d="M431.238,79.818l-14.228,0l0,-75.375l11.149,0l38.863,48.945l0,-48.945l14.13,0l0,75.375l-11.15,0l-38.764,-48.928l0,48.928Z" style="fill:rgb(116,116,116);"/>        </g>        <g transform="matrix(0.491405,0,0,0.491405,202.292,19.113)">            <path d="M527.767,79.818l-31.344,0l0,-75.375l31.344,0c16.979,0.053 34.192,9.962 38.784,27.091c3.555,13.258 0.066,28.45 -9.873,37.787c-7.635,7.172 -18.385,10.464 -28.911,10.497Zm-17.115,-62.124l0,48.872c13.682,0 28.664,2.128 37.747,-8.682c7.78,-9.261 7.136,-24.969 -1.721,-33.33c-4.968,-4.69 -11.973,-6.793 -19.048,-6.859c-5.66,-0.018 -11.319,-0.001 -16.978,-0.001Z" style="fill:rgb(116,116,116);"/>        </g>        <g transform="matrix(0.491405,0,0,0.491405,203.274,19.113)">            <rect x="577.106" y="4.443" width="14.228" height="75.375" style="fill:rgb(116,116,116);"/>        </g>        <g transform="matrix(0.491405,0,0,0.491405,203.766,19.113)">            <path d="M620.833,79.818l-14.228,0l0,-75.375l11.149,0l38.863,48.945l0,-48.945l14.13,0l0,75.375l-11.15,0l-38.764,-48.928l0,48.928Z" style="fill:rgb(116,116,116);"/>        </g>        <g transform="matrix(0.491405,0,0,0.491405,203.766,19.113)">            <path d="M719.865,3.857c10.23,0.077 20.519,3.348 27.552,10.825l2.416,2.606l-9.277,9.479c-5.431,-5.334 -12.112,-9.258 -19.778,-9.453c-10.765,-0.273 -21.808,5.916 -25.381,16.514c-4.419,13.11 3.597,29.247 17.979,32.451c6.98,1.555 14.664,0.67 20.622,-2.865l0.176,-0.107l0,-24.677l13.935,0l0,31.173c-0.508,0.443 -1.015,0.888 -1.526,1.328c-17.356,14.74 -48.122,12.035 -60.956,-8.586c-9.508,-15.276 -6.614,-37.432 7.268,-49.315c7.349,-6.291 17.029,-9.398 26.97,-9.373Z" style="fill:rgb(116,116,116);"/>        </g>    </g></svg>