<?xml version="1.0" encoding="UTF-8" standalone="no"?><!DOCTYPE svg PUBLIC "-//W3C//DTD SVG 1.1//EN" "http://www.w3.org/Graphics/SVG/1.1/DTD/svg11.dtd"><svg width="100%" height="100%" viewBox="0 0 1024 512" version="1.1" xmlns="http://www.w3.org/2000/svg" xmlns:xlink="http://www.w3.org/1999/xlink" xml:space="preserve" style="fill-rule:evenodd;clip-rule:evenodd;stroke-linejoin:round;stroke-miterlimit:2;"><title>CIFAS</title><desc></desc>    <g transform="matrix(1,0,0,1,0,3.90427)">        <g transform="matrix(0.550194,0,0,0.550194,1.88512,3.27508)">            <path d="M870.5,148.5c-27.7,4.5 -52.9,18 -68.4,36.7c-7.9,9.5 -15.3,24.4 -18.6,37.4c-4.7,18.8 -5.6,31.2 -6.2,83.8l-0.6,48.9l-59.6,-0.3c-32.8,-0.2 -75.5,-0.3 -94.8,-0.2l-35.3,0.2l0,545l95,0l0.2,-254.5l0.3,-254.6l17.8,25.1l17.9,25l58.8,0l0,460l95,0l0,-206.8c0,-113.7 0.3,-217.2 0.7,-230l0.6,-23.2l104.7,0l0,-43l0,-43l-52.5,0l-52.5,0l0,-42.3c0,-23.2 0.5,-46.2 1,-51.1c1.3,-10.8 3.2,-13.8 11.7,-18.3c17.4,-9.3 42.7,-6 82,10.8c5.4,2.3 11.3,4.8 13.1,5.6l3.2,1.3l0,-48.8l0,-48.9l-13.2,-3.6c-33.3,-9.1 -48.9,-11.8 -72.8,-12.3c-13,-0.2 -21.2,0.1 -27.5,1.1Z" style="fill:rgb(79,31,123);"/>            <path d="M1184,343.1c-12.3,1.3 -33.3,5.5 -46.9,9.4c-66.7,19.2 -128.2,69.4 -164.5,134.2c-34.9,62.5 -42.9,145.5 -21.1,219.3c12.7,43.2 36.4,82.1 70.9,116.6c28,28 56.7,47.3 90.6,60.9c61.7,24.8 138.3,24.8 199.8,0.1c28.5,-11.5 58.1,-30 79.9,-50c3.9,-3.6 7.4,-6.6 7.7,-6.6c0.3,0 0.6,16.6 0.6,37l0,37l94,0l0,-273l0,-273l-47,0l-47,0l0,65.2l-10.7,-10.2c-40.2,-38.1 -87.3,-60 -142.9,-66.5c-14,-1.6 -48.9,-1.8 -63.4,-0.4Zm66.9,93.5c41.3,6.1 76.9,25.7 106.5,58.4c21.8,24.1 37.5,55.3 43.5,86.1c15.2,79.1 -11.6,153.8 -69.9,195c-26.2,18.5 -54.6,29.9 -86,34.5c-15.1,2.2 -44.9,1.4 -59.1,-1.5c-51.3,-10.5 -94.4,-41.1 -121.9,-86.5c-27.5,-45.7 -35.5,-98 -22.4,-148c8.9,-33.6 28.6,-67.4 52.7,-90.3c41.7,-39.5 97.5,-56.5 156.6,-47.7Z" style="fill:rgb(79,31,123);"/>            <path d="M1667.5,343.1c-34.2,4.5 -65.5,20.4 -89.2,45.3c-15.1,15.7 -25.7,33.3 -32.3,53.6c-5.4,16.6 -6.5,24.4 -6.5,48c0,18.9 0.3,22.8 2.3,31.9c12.5,55.8 44.1,88.4 128.7,132.9c59.6,31.3 78,47.2 84,72.4c1.9,8.1 1.9,20.5 0,28.7c-5.3,22.3 -26.7,43.2 -52.5,51.3c-6.6,2 -9.5,2.3 -24.5,2.3c-14.8,0 -18,-0.3 -25,-2.3c-11,-3.2 -24.6,-9.8 -35.7,-17.4c-8.6,-5.8 -29.4,-25.3 -40.7,-38.2c-4.2,-4.7 -4.4,-4.8 -6.1,-3c-5.1,5.3 -57.3,65.1 -57.7,66.1c-0.6,1.6 12.4,17.7 22.3,27.7c29.8,29.8 67.5,49 112.4,57.3c13.9,2.5 51.6,2.5 65.5,-0.1c34.4,-6.3 61.5,-20.2 86.4,-44.1c27.6,-26.5 44.2,-60.8 48.1,-99c4.7,-45.4 -9.3,-88.3 -38.8,-118.7c-21.8,-22.5 -46.1,-39.4 -91.2,-63.3c-43.6,-23.2 -65.7,-38.4 -76.6,-52.8c-10.4,-13.8 -14.6,-27.8 -12.5,-41.7c1.7,-11.2 5.9,-19 15.5,-28.5c13.5,-13.5 26.4,-18.8 45.6,-18.7c30,0.1 58.9,14.8 92.3,47.1l9.7,9.4l19.7,-20.4c10.9,-11.2 25,-25.8 31.5,-32.5l11.9,-12.1l-11.8,-10.9c-29.2,-27.1 -47.8,-40.5 -73.8,-53c-15.7,-7.6 -26.3,-11.3 -42.1,-15c-10.5,-2.4 -14.2,-2.8 -31.9,-3c-11,-0.1 -23.1,0.2 -27,0.7Z" style="fill:rgb(79,31,123);"/>            <path d="M275,347.6c-37.7,3.3 -66.7,9.7 -95.4,21.1c-70.2,27.8 -122.8,77.4 -154.1,145.3c-31.5,68.5 -33.7,152.2 -5.9,220.5c13.8,33.6 31.5,59.6 60.4,88.6c25.4,25.5 45.7,40.1 76.6,55.1c44.7,21.7 98.9,31.9 154.6,28.8c50.6,-2.7 87.4,-11.8 127.3,-31.5c43.7,-21.5 76.6,-50.3 103.9,-90.9c3.6,-5.4 6.6,-10.2 6.6,-10.6c0,-0.4 -7.5,-5.7 -16.7,-11.7c-9.3,-6 -26.1,-17.1 -37.5,-24.6l-20.8,-13.6l-8.2,10.1c-39.5,48.8 -82.5,73.6 -141.8,81.9c-11.3,1.6 -45.1,1.6 -57,0c-24.9,-3.3 -46.3,-9.8 -67.7,-20.6c-17.9,-9.1 -30.4,-17.8 -44,-30.8c-17.6,-16.9 -28.1,-31.3 -39.3,-53.9c-19.1,-38.6 -24.5,-80.3 -15.9,-123.6c3,-15.1 7.2,-27 14.9,-42.7c20.5,-41.3 57.6,-75.1 101.5,-92.5c32.6,-12.9 80.6,-17.1 120,-10.4c52.4,8.8 94.9,35.2 129.1,80c4.2,5.4 8,9.8 8.5,9.7c1.3,-0.4 72.1,-44.4 73.6,-45.7c1,-0.9 -0.4,-3.9 -6.3,-13.6c-31.7,-52.5 -74.1,-85.5 -137.4,-107.1c-22.6,-7.8 -41.9,-12.3 -66.1,-15.5c-10.8,-1.4 -53.3,-2.6 -62.9,-1.8Z" style="fill:rgb(79,31,123);"/>        </g>        <g transform="matrix(1,0,0,0.999249,-1.7053e-13,0.134346)">            <g transform="matrix(1,0,0,1,397.994,-49)">                <path d="M337.762,166.941l-131.912,26.609l77.156,-52.321l-83,-90.772l137.756,116.484Z" style="fill:rgb(75,33,117);"/>            </g>            <g transform="matrix(1,0,0,1,397.994,-49)">                <path d="M168.006,228l169.756,-61.059l-131.378,26.609l24.534,-89.094l-62.912,123.544Z" style="fill:rgb(22,157,187);"/>            </g>            <path d="M598,1.457l-32,177.543l63,-124l52,37l-83,-90.543Z" style="fill:rgb(241,132,1);"/>        </g>    </g></svg>