<?xml version="1.0" encoding="UTF-8" standalone="no"?><!DOCTYPE svg PUBLIC "-//W3C//DTD SVG 1.1//EN" "http://www.w3.org/Graphics/SVG/1.1/DTD/svg11.dtd"><svg width="100%" height="100%" viewBox="0 0 1024 512" version="1.1" xmlns="http://www.w3.org/2000/svg" xmlns:xlink="http://www.w3.org/1999/xlink" xml:space="preserve" style="fill-rule:evenodd;clip-rule:evenodd;stroke-linejoin:round;stroke-miterlimit:2;"><title>Peermatch</title><desc>Peermatch B.V. is a financial technology company ('fintech') based in Amsterdam. Peermatch is a European undertaking privately funded and bank-independent. Peermatch is a peer-to-peer platform for mortgage lending. The Peermatch system facilitates 'match-funding'; using algorithms loan projects and investor profiles are brought together precisely as demanded. That is the revolutiory reformation of the traditional mortgage lending depending on banks and/or securitization structures. </desc>    <g transform="matrix(1.26203,0,0,1.26203,-23.8637,81.1158)">        <g>            <path d="M217.621,138.832c-0.77,11.31 -9.2,19.94 -20.52,20.52c-18,0.93 -125.631,1 -143.521,0c-11.066,-0.488 -20.036,-9.454 -20.53,-20.52c-1,-14.78 0,-86.72 0,-86.72c0,-11.33 9.21,-20 20.53,-20.52c17.94,-0.88 125.611,-0.88 143.521,0c11.08,0.452 20.068,9.44 20.52,20.52c0.92,14.75 1,71.88 0,86.72m11.92,-90.3c-0.82,-15.91 -12.94,-28.19 -28.86,-28.85c-22.42,-0.94 -128.161,-1 -150.681,0c-15.628,0.515 -28.34,13.222 -28.86,28.85c-0.94,19.31 -0.78,74.62 0,93.88c0.64,15.92 12.94,28.09 29,28.86l1.36,0.12l0,76.251c0,7.09 5.74,10.55 12.83,10.55l14.67,0c7.08,0 12.82,-3.46 12.82,-10.55l0,-75.641c38.871,0.23 93.691,0 108.911,-0.69c15.624,-0.534 28.325,-13.236 28.86,-28.86c0.94,-19.28 1,-74.66 0,-93.88" style="fill:rgb(153,0,0);fill-rule:nonzero;"/>        </g>        <g>            <path d="M291.871,63.662l24.66,0c12,0 20.34,8.37 20.34,20.79c0,12.42 -8.37,21.06 -20.34,21.06l-13,0l0,22l-11.66,0l0,-63.85Zm22.5,31.77c6.75,0 10.71,-4.32 10.71,-11c0,-6.68 -4,-10.8 -10.53,-10.8l-11.07,0l0,21.8l10.89,0Z" style="fill:rgb(29,29,27);fill-rule:nonzero;"/>            <path d="M348.842,63.662l38.25,0l0,10l-26.64,0l0,16.73l21.55,0l0,10l-21.55,0l0,17.19l28.08,0l0,10l-39.69,0l0,-63.92Z" style="fill:rgb(29,29,27);fill-rule:nonzero;"/>            <path d="M404.192,63.662l38.25,0l0,10l-26.64,0l0,16.73l21.51,0l0,10l-21.51,0l0,17.19l28.08,0l0,10l-39.69,0l0,-63.92Z" style="fill:rgb(29,29,27);fill-rule:nonzero;"/>            <path d="M457.652,63.662l20.61,0c6.93,0 10.08,0.54 12.87,1.8c6.39,2.88 10.44,9 10.44,17.46c0,7.65 -4.05,14.76 -10.8,17.46l0,0.18c0.846,0.958 1.572,2.016 2.16,3.15l13.14,23.85l-13,0l-12.69,-23.85l-11.12,0l0,23.85l-11.61,0l0,-63.9Zm22.05,30c6.21,0 10.08,-3.69 10.08,-10.08c0,-6.12 -2.61,-9.9 -11.7,-9.9l-8.82,0l0,20l10.44,-0.02Z" style="fill:rgb(29,29,27);fill-rule:nonzero;"/>            <path d="M521.912,63.662l12.42,0l12.51,31.59c1.44,3.78 3.24,9.36 3.24,9.36l0.18,0c0,0 1.74,-5.61 3.15,-9.36l12.51,-31.59l12.421,0l5.13,63.9l-11.471,0l-2.7,-35.73c-0.27,-4.23 -0.09,-9.9 -0.09,-9.9l-0.21,0c0,0 -1.89,6.21 -3.42,9.9l-10.35,24.75l-10.23,0l-10.22,-24.75c-1.53,-3.69 -3.51,-10 -3.51,-10l-0.18,0c0,0 0.18,5.76 -0.09,10l-2.7,35.73l-11.61,0l5.22,-63.9Z" style="fill:rgb(29,29,27);fill-rule:nonzero;"/>            <path d="M631.263,111.182l-22.41,0l-5.4,16.38l-12,0l22.55,-63.9l12.15,0l22.49,63.9l-12,0l-5.38,-16.38Zm-11.26,-36.45c0,0 -1.44,6.3 -2.7,9.9l-5.67,17.1l16.74,0l-5.67,-17.1c-1.17,-3.6 -2.52,-9.9 -2.52,-9.9l-0.18,0Z" style="fill:rgb(29,29,27);fill-rule:nonzero;"/>            <path d="M668.073,73.652l-21,0l0,-10l53.55,0l0,10l-21,0l0,53.91l-11.55,0l0,-53.91Z" style="fill:rgb(29,29,27);fill-rule:nonzero;"/>            <path d="M738.453,62.582c15.55,0 23.55,8.73 23.55,8.73l-5.55,8.69c0,0 -7.29,-6.8 -17.45,-6.8c-13.5,0 -21.42,10.08 -21.42,22c0,12.15 8.19,22.86 21.51,22.86c11.07,0 18.54,-8.1 18.54,-8.1l6.11,8.37c-6.587,6.748 -15.671,10.493 -25.1,10.35c-19.53,0 -33,-14.49 -33,-33.3c-0.04,-18.58 14,-32.8 32.81,-32.8Z" style="fill:rgb(29,29,27);fill-rule:nonzero;"/>            <path d="M776.253,63.662l11.61,0l0,27.09l29.251,0l0,-27.09l11.6,0l0,63.9l-11.6,0l0,-26.82l-29.251,0l0,26.82l-11.61,0l0,-63.9Z" style="fill:rgb(29,29,27);fill-rule:nonzero;"/>        </g>    </g></svg>