<?xml version="1.0" encoding="UTF-8" standalone="no"?><!DOCTYPE svg PUBLIC "-//W3C//DTD SVG 1.1//EN" "http://www.w3.org/Graphics/SVG/1.1/DTD/svg11.dtd"><svg width="100%" height="100%" viewBox="0 0 1024 512" version="1.1" xmlns="http://www.w3.org/2000/svg" xmlns:xlink="http://www.w3.org/1999/xlink" xml:space="preserve" style="fill-rule:evenodd;clip-rule:evenodd;stroke-linejoin:round;stroke-miterlimit:2;"><title>Kapitaal Op Maat</title><desc>Kapitaal Op Maat is the new crowdfunding platform for entrepreneurs and investors. Transparent, innovative, reliable and simple. The entrepreneur makes a proposal for the interest rate and we test whether this reflects a realistic risk / return ratio. Investors can choose from a variety of investment opportunities. Presented transparently with clear risk assessments, maturities and interest rates.</desc>    <g transform="matrix(1.14572,0,0,1.14572,-74.4544,6.19256)">        <g>            <path d="M667,65l0,92l46.131,46.131l243.869,14.904l-290,-153.035Z" style="fill:rgb(86,175,189);"/>            <g transform="matrix(1,0,0,-1,0,436.071)">                <path d="M667,65l0,92l46.131,46.131l243.869,14.904l-290,-153.035Z" style="fill:rgb(47,67,74);"/>            </g>        </g>        <g transform="matrix(1.47698,0,0,1.1547,-3955.52,-1291.63)">            <g transform="matrix(100,0,0,100,2765,1386.2)">                <path d="M0.324,0.012c-0.039,0 -0.075,-0.008 -0.108,-0.025c-0.033,-0.016 -0.061,-0.039 -0.085,-0.069c-0.023,-0.03 -0.042,-0.066 -0.055,-0.109c-0.013,-0.042 -0.02,-0.089 -0.02,-0.141c0,-0.052 0.007,-0.099 0.02,-0.141c0.013,-0.042 0.032,-0.078 0.055,-0.107c0.024,-0.029 0.052,-0.052 0.085,-0.068c0.033,-0.016 0.069,-0.024 0.108,-0.024c0.039,0 0.075,0.008 0.107,0.024c0.033,0.016 0.062,0.039 0.085,0.068c0.024,0.029 0.043,0.065 0.056,0.107c0.013,0.042 0.02,0.089 0.02,0.141c0,0.052 -0.007,0.099 -0.02,0.142c-0.013,0.042 -0.032,0.078 -0.056,0.108c-0.023,0.03 -0.052,0.053 -0.085,0.07c-0.032,0.016 -0.068,0.024 -0.107,0.024Zm0,-0.03c0.035,0 0.067,-0.007 0.095,-0.022c0.029,-0.015 0.054,-0.037 0.074,-0.064c0.021,-0.027 0.037,-0.06 0.048,-0.099c0.011,-0.039 0.017,-0.082 0.017,-0.129c0,-0.047 -0.006,-0.09 -0.017,-0.128c-0.011,-0.039 -0.027,-0.071 -0.048,-0.098c-0.02,-0.027 -0.045,-0.048 -0.074,-0.063c-0.029,-0.014 -0.06,-0.021 -0.095,-0.021c-0.035,0 -0.067,0.007 -0.096,0.021c-0.029,0.015 -0.053,0.035 -0.074,0.063c-0.02,0.027 -0.036,0.059 -0.047,0.098c-0.011,0.038 -0.017,0.081 -0.017,0.128c0,0.047 0.006,0.09 0.017,0.129c0.011,0.039 0.027,0.072 0.047,0.099c0.021,0.027 0.045,0.049 0.074,0.064c0.029,0.015 0.061,0.022 0.096,0.022Z" style="fill:rgb(47,67,74);fill-rule:nonzero;"/>            </g>            <g transform="matrix(77.6605,0,0,100,2827.29,1386.2)">                <path d="M0.1,0l0,-0.66l0.158,0c0.037,0 0.071,0.003 0.1,0.01c0.029,0.006 0.054,0.016 0.074,0.03c0.02,0.015 0.035,0.033 0.046,0.056c0.011,0.023 0.016,0.051 0.016,0.084c0,0.063 -0.02,0.11 -0.06,0.141c-0.04,0.031 -0.097,0.047 -0.172,0.047l-0.13,0l0,0.292l-0.032,0Zm0.032,-0.32l0.118,0c0.071,0 0.124,-0.012 0.159,-0.037c0.034,-0.025 0.051,-0.066 0.051,-0.123c0,-0.058 -0.018,-0.098 -0.053,-0.12c-0.035,-0.021 -0.089,-0.032 -0.161,-0.032l-0.114,0l0,0.312Z" style="fill:rgb(47,67,74);fill-rule:nonzero;"/>            </g>        </g>        <g transform="matrix(1.3991,0,0,1.18648,-3583.13,-1332.4)">            <g transform="matrix(100,0,0,100,2765,1384.6)">                <path d="M0.083,0l0,-0.654l0.131,0l0.116,0.32c0.007,0.021 0.014,0.042 0.021,0.064c0.007,0.021 0.014,0.043 0.021,0.064l0.004,0c0.007,-0.021 0.014,-0.043 0.02,-0.065c0.007,-0.021 0.014,-0.042 0.021,-0.063l0.113,-0.32l0.132,0l0,0.654l-0.107,0l0,-0.299c0,-0.015 0,-0.032 0.001,-0.05c0.001,-0.018 0.003,-0.036 0.004,-0.055c0.001,-0.018 0.003,-0.036 0.005,-0.054c0.002,-0.017 0.004,-0.034 0.005,-0.049l-0.004,0l-0.053,0.152l-0.107,0.294l-0.069,0l-0.108,-0.294l-0.052,-0.152l-0.004,0c0.001,0.015 0.003,0.032 0.004,0.049c0.002,0.018 0.004,0.036 0.005,0.054c0.002,0.019 0.003,0.037 0.004,0.055c0.001,0.018 0.002,0.035 0.002,0.05l0,0.299l-0.105,0Z" style="fill:rgb(47,67,74);fill-rule:nonzero;"/>            </g>            <g transform="matrix(100,0,0,100,2839.5,1384.6)">                <path d="M0.217,-0.348l-0.023,0.08l0.167,0l-0.023,-0.08c-0.011,-0.035 -0.021,-0.07 -0.03,-0.107c-0.01,-0.037 -0.02,-0.073 -0.029,-0.109l-0.004,0c-0.009,0.037 -0.019,0.073 -0.028,0.11c-0.009,0.036 -0.019,0.071 -0.03,0.106Zm-0.219,0.348l0.213,-0.654l0.136,0l0.213,0.654l-0.122,0l-0.051,-0.177l-0.22,0l-0.051,0.177l-0.118,0Z" style="fill:rgb(47,67,74);fill-rule:nonzero;"/>            </g>            <g transform="matrix(100,0,0,100,2894.9,1384.6)">                <path d="M0.217,-0.348l-0.023,0.08l0.167,0l-0.023,-0.08c-0.011,-0.035 -0.021,-0.07 -0.03,-0.107c-0.01,-0.037 -0.02,-0.073 -0.029,-0.109l-0.004,0c-0.009,0.037 -0.019,0.073 -0.028,0.11c-0.009,0.036 -0.019,0.071 -0.03,0.106Zm-0.219,0.348l0.213,-0.654l0.136,0l0.213,0.654l-0.122,0l-0.051,-0.177l-0.22,0l-0.051,0.177l-0.118,0Z" style="fill:rgb(47,67,74);fill-rule:nonzero;"/>            </g>            <g transform="matrix(100,0,0,100,2944.3,1384.6)">                <path d="M0.215,0l0,-0.556l-0.189,0l0,-0.098l0.494,0l0,0.098l-0.189,0l0,0.556l-0.116,0Z" style="fill:rgb(47,67,74);fill-rule:nonzero;"/>            </g>        </g>        <g transform="matrix(1.03347,0,0,1,-2798.97,-1193.87)">            <g transform="matrix(100,0,0,100,2765,1397)">                <path d="M0.275,-0.443l0.239,-0.311l0.242,0l-0.299,0.357l0.327,0.397l-0.254,0l-0.255,-0.327l0,0.327l-0.196,0l0,-0.754l0.196,0l0,0.311Z" style="fill:rgb(86,175,189);fill-rule:nonzero;"/>            </g>            <g transform="matrix(100,0,0,100,2844.2,1397)">                <path d="M0.489,-0.28l-0.088,-0.251l-0.088,0.251l0.176,0Zm0.052,0.149l-0.28,0l-0.045,0.131l-0.209,0l0.287,-0.754l0.214,0l0.287,0.754l-0.209,0l-0.045,-0.131Z" style="fill:rgb(86,175,189);fill-rule:nonzero;"/>            </g>            <g transform="matrix(100,0,0,100,2924.4,1397)">                <path d="M0.275,-0.408l0.065,0c0.072,0 0.108,-0.031 0.108,-0.094c0,-0.063 -0.036,-0.094 -0.108,-0.094l-0.065,0l0,0.188Zm0,0.408l-0.196,0l0,-0.754l0.312,0c0.085,0 0.15,0.022 0.195,0.066c0.044,0.044 0.067,0.106 0.067,0.186c0,0.08 -0.022,0.142 -0.068,0.186c-0.044,0.044 -0.109,0.066 -0.194,0.066l-0.116,0l0,0.25Z" style="fill:rgb(86,175,189);fill-rule:nonzero;"/>            </g>            <g transform="matrix(100,0,0,100,2990.26,1397)">                <rect x="0.079" y="-0.754" width="0.196" height="0.754" style="fill:rgb(86,175,189);fill-rule:nonzero;"/>            </g>            <g transform="matrix(100,0,0,100,3027.6,1397)">                <path d="M0.365,-0.588l0,0.588l-0.196,0l0,-0.588l-0.2,0l0,-0.166l0.586,0l0,0.166l-0.19,0Z" style="fill:rgb(86,175,189);fill-rule:nonzero;"/>            </g>            <g transform="matrix(100,0,0,100,3077.5,1397)">                <path d="M0.489,-0.28l-0.088,-0.251l-0.088,0.251l0.176,0Zm0.052,0.149l-0.28,0l-0.045,0.131l-0.209,0l0.287,-0.754l0.214,0l0.287,0.754l-0.209,0l-0.045,-0.131Z" style="fill:rgb(86,175,189);fill-rule:nonzero;"/>            </g>            <g transform="matrix(100,0,0,100,3157.7,1397)">                <path d="M0.489,-0.28l-0.088,-0.251l-0.088,0.251l0.176,0Zm0.052,0.149l-0.28,0l-0.045,0.131l-0.209,0l0.287,-0.754l0.214,0l0.287,0.754l-0.209,0l-0.045,-0.131Z" style="fill:rgb(86,175,189);fill-rule:nonzero;"/>            </g>            <g transform="matrix(100,0,0,100,3237.9,1397)">                <path d="M0.275,-0.754l0,0.588l0.254,0l0,0.166l-0.45,0l0,-0.754l0.196,0Z" style="fill:rgb(86,175,189);fill-rule:nonzero;"/>            </g>        </g>    </g></svg>