<?xml version="1.0" encoding="UTF-8" standalone="no"?><!DOCTYPE svg PUBLIC "-//W3C//DTD SVG 1.1//EN" "http://www.w3.org/Graphics/SVG/1.1/DTD/svg11.dtd"><svg width="100%" height="100%" viewBox="0 0 1024 512" version="1.1" xmlns="http://www.w3.org/2000/svg" xmlns:xlink="http://www.w3.org/1999/xlink" xml:space="preserve" style="fill-rule:evenodd;clip-rule:evenodd;stroke-linejoin:round;stroke-miterlimit:2;"><title>KissKissBankBank</title><desc>KissKissBankBank, pioneer of crowdfunding in France, was launched by Adrien Aumont, Ombline le Lasseur and Vincent Ricordeau in September 2009. Their ambition: to allow everyone to finance creative, associative or entrepreneurial projects.</desc>    <g transform="matrix(7.6337,0,0,7.6337,2,141.62)">        <path d="M94.276,26.763l-2.94,0l0,-3.236l2.94,0c1.105,0 1.973,0.414 1.973,1.658c0,1.164 -0.81,1.578 -1.975,1.578l0.002,0Zm-2.836,-8.306l2.84,0c0.77,0 1.5,0.336 1.5,1.36c0,1.007 -0.867,1.342 -1.5,1.342l-2.84,0l0,-2.704l0,0.002Zm6.052,3.53c1.104,-0.55 1.854,-1.577 1.854,-2.84c0,-2.94 -2.664,-3.57 -5.09,-3.532l-6.59,0l0,14.088l6.767,0c3.02,0 5.485,-1.026 5.485,-4.38c0,-1.598 -0.927,-2.9 -2.426,-3.335l0,-0.001Zm-40.966,5.915c-0.747,0 -1.397,-0.335 -1.397,-1.16c0,-0.807 0.63,-1.122 1.375,-1.3c0.728,-0.196 1.594,-0.255 2.065,-0.55c0.08,2.104 -0.45,3.01 -2.044,3.01l0.001,0Zm5.27,-5.31c0,-2.892 -2.34,-3.422 -4.76,-3.422c-1.158,0 -2.34,0.197 -3.243,0.708c-0.904,0.53 -1.535,1.396 -1.593,2.733l3.127,0c0.157,-0.862 0.747,-1.277 1.67,-1.277c0.69,0 1.614,0.296 1.614,1.064c0,0.628 -0.313,0.825 -0.883,0.942c-2.32,0.472 -5.94,0.216 -5.94,3.54c0,2.105 1.534,3.087 3.48,3.087c1.22,0 2.5,-0.354 3.365,-1.26c0.04,0.336 0.08,0.65 0.197,0.966l3.362,0c-0.393,-0.807 -0.393,-1.75 -0.393,-2.616l0,-4.464l-0.003,-0.001Zm7.604,-3.422c-1.217,0 -2.593,0.65 -3.203,1.69l-0.04,0l0,-1.395l-3.247,0l0,10.207l3.345,0l0,-5.567c0,-1.12 0.55,-2.182 1.81,-2.182c1.828,0 1.67,1.415 1.67,2.812l0,4.937l3.344,0l0,-6.55c0,-1.474 -0.278,-3.952 -3.68,-3.952l0.001,0Zm-23.809,7.593l-2.941,0l0,-3.236l2.94,0c1.107,0 1.975,0.414 1.975,1.658c0,1.164 -0.81,1.578 -1.974,1.578Zm-2.941,-8.306l2.843,0c0.77,0 1.5,0.336 1.5,1.36c0,1.007 -0.87,1.342 -1.5,1.342l-2.84,0l0,-2.704l-0.003,0.002Zm6.158,3.53c1.104,-0.55 1.854,-1.577 1.854,-2.84c0,-2.94 -2.662,-3.57 -5.09,-3.532l-6.59,0l0,14.088l6.768,0c3.02,0 5.485,-1.026 5.485,-4.38c0,-1.598 -0.927,-2.9 -2.426,-3.335l-0.001,-0.001Zm35.653,-2.522l-3.753,0l-3.168,3.27l0,-7.105l-3.345,0l0,14.04l3.344,0l0,-5.238l3.47,5.238l3.923,0l-4.21,-6.352l3.738,-3.855l0.001,0.002Zm33.628,-0.295c-1.22,0 -2.596,0.65 -3.206,1.69l-0.038,0l0,-1.395l-3.245,0l0,10.207l3.342,0l0,-5.567c0,-1.12 0.55,-2.182 1.81,-2.182c1.828,0 1.67,1.415 1.67,2.812l0,4.937l3.344,0l0,-6.55c0,-1.474 -0.276,-3.952 -3.677,-3.952Zm15.057,0.295l-3.752,0l-3.17,3.27l0,-7.105l-3.343,0l0,14.04l3.342,0l0,-5.238l3.47,5.238l3.925,0l-4.21,-6.352l3.737,-3.855l0.001,0.002Zm-27.933,8.437c-0.746,0 -1.395,-0.335 -1.395,-1.16c0,-0.807 0.63,-1.122 1.377,-1.3c0.727,-0.196 1.592,-0.255 2.064,-0.55c0.08,2.104 -0.452,3.01 -2.045,3.01l-0.001,0Zm5.27,-5.31c0,-2.892 -2.338,-3.422 -4.757,-3.422c-1.16,0 -2.34,0.197 -3.245,0.708c-0.905,0.53 -1.534,1.396 -1.593,2.733l3.126,0c0.16,-0.862 0.75,-1.277 1.674,-1.277c0.688,0 1.612,0.296 1.612,1.064c0,0.628 -0.316,0.825 -0.886,0.942c-2.32,0.472 -5.938,0.216 -5.938,3.54c0,2.105 1.534,3.087 3.48,3.087c1.22,0 2.498,-0.354 3.363,-1.26c0.04,0.336 0.08,0.65 0.196,0.966l3.363,0c-0.395,-0.807 -0.395,-1.75 -0.395,-2.616l0,-4.465Zm-16.453,-19.872l3.34,0l0,-2.72l-3.34,0l0,2.72Zm0,11.32l3.34,0l0,-10.204l-3.34,0l0,10.204Zm-10.188,-7.876l5.405,7.878l4.41,0l-5.857,-8.54l5.163,-5.502l-4.327,0l-4.793,5.107l0,-5.107l-3.657,0l0,14.04l3.657,0l0,-7.876l-0.001,0Zm29.724,6.01c-0.472,0 -0.924,-0.118 -1.24,-0.354c-0.333,-0.256 -0.55,-0.63 -0.55,-1.14l-3.185,0c0.1,2.85 2.577,3.656 4.995,3.656c2.3,0 4.898,-0.904 4.898,-3.638c0,-0.845 -0.53,-2.34 -2.597,-2.753c-1.533,-0.334 -3.775,-0.51 -3.775,-1.475c0,-0.708 0.886,-0.767 1.436,-0.767c0.414,0 0.787,0.08 1.062,0.255c0.275,0.178 0.432,0.453 0.432,0.885l3.087,0c-0.118,-2.654 -2.46,-3.302 -4.7,-3.302c-2.006,0 -4.662,0.67 -4.662,3.127c0,2.753 2.636,2.813 4.74,3.344c0.59,0.14 1.632,0.296 1.632,1.083c0,0.806 -0.924,1.08 -1.573,1.08l0,-0.001Zm-10.476,0c-0.47,0 -0.923,-0.118 -1.238,-0.354c-0.335,-0.256 -0.55,-0.63 -0.55,-1.14l-3.186,0c0.097,2.85 2.575,3.656 4.995,3.656c2.3,0 4.898,-0.904 4.898,-3.638c0,-0.845 -0.53,-2.34 -2.596,-2.753c-1.533,-0.334 -3.774,-0.51 -3.774,-1.475c0,-0.708 0.884,-0.767 1.435,-0.767c0.414,0 0.788,0.08 1.064,0.255c0.274,0.178 0.432,0.453 0.432,0.885l3.086,0c-0.118,-2.654 -2.458,-3.302 -4.7,-3.302c-2.006,0 -4.66,0.67 -4.66,3.127c0,2.753 2.634,2.813 4.74,3.344c0.59,0.14 1.63,0.296 1.63,1.083c0,0.806 -0.923,1.08 -1.572,1.08l-0.004,-0.001Zm-50.265,-9.454l3.342,0l0,-2.72l-3.342,0l0,2.72Zm0,11.32l3.342,0l0,-10.204l-3.342,0l0,10.204Zm-10.187,-7.876l5.404,7.878l4.41,0l-5.857,-8.538l5.163,-5.504l-4.328,0l-4.792,5.107l0,-5.107l-3.658,0l0,14.04l3.658,0l0,-7.876Zm29.723,6.01c-0.47,0 -0.922,-0.118 -1.236,-0.354c-0.335,-0.256 -0.55,-0.63 -0.55,-1.14l-3.187,0c0.1,2.85 2.576,3.656 4.995,3.656c2.302,0 4.898,-0.904 4.898,-3.638c0,-0.845 -0.53,-2.34 -2.596,-2.753c-1.533,-0.334 -3.775,-0.51 -3.775,-1.475c0,-0.708 0.883,-0.767 1.434,-0.767c0.413,0 0.787,0.08 1.063,0.255c0.274,0.178 0.432,0.453 0.432,0.885l3.086,0c-0.117,-2.654 -2.458,-3.302 -4.7,-3.302c-2.006,0 -4.66,0.67 -4.66,3.127c0,2.753 2.634,2.813 4.74,3.344c0.59,0.14 1.63,0.296 1.63,1.083c0,0.806 -0.924,1.08 -1.573,1.08l-0.001,-0.001Zm-10.633,0c-0.472,0 -0.924,-0.118 -1.238,-0.354c-0.336,-0.256 -0.553,-0.63 -0.553,-1.14l-3.187,0c0.1,2.85 2.577,3.656 4.996,3.656c2.3,0 4.897,-0.904 4.897,-3.638c0,-0.845 -0.53,-2.34 -2.597,-2.753c-1.533,-0.334 -3.775,-0.51 -3.775,-1.475c0,-0.708 0.887,-0.767 1.437,-0.767c0.414,0 0.787,0.08 1.063,0.255c0.275,0.178 0.43,0.453 0.43,0.885l3.09,0c-0.12,-2.654 -2.46,-3.302 -4.7,-3.302c-2.007,0 -4.662,0.67 -4.662,3.127c0,2.753 2.635,2.813 4.74,3.344c0.59,0.14 1.632,0.296 1.632,1.083c0,0.806 -0.924,1.08 -1.574,1.08l0.001,-0.001Z" style="fill-rule:nonzero;"/>        <path d="M31.118,10.948c-0.004,-2.185 -1.778,-3.954 -3.962,-3.95c-1.055,0 -2.012,0.415 -2.72,1.087l-6.76,6.778l6.59,6.57c0.726,0.785 1.762,1.274 2.913,1.27c2.184,0 3.95,-1.773 3.95,-3.96c-0.004,-1.953 -1.42,-3.573 -3.283,-3.894c1.86,-0.327 3.274,-1.95 3.27,-3.903l0.002,0.002Z" style="fill-rule:nonzero;"/>        <path d="M20.276,6.696c-2.14,-2.276 -5.176,-3.696 -8.544,-3.696c-6.48,0 -11.732,5.252 -11.732,11.732c0,6.48 5.252,11.734 11.732,11.734c3.295,0 6.27,-1.36 8.403,-3.547l-8.04,-8.043l8.18,-8.182l0.001,0.002Z" style="fill-rule:nonzero;"/>    </g></svg>