<?xml version="1.0" encoding="UTF-8" standalone="no"?><!DOCTYPE svg PUBLIC "-//W3C//DTD SVG 1.1//EN" "http://www.w3.org/Graphics/SVG/1.1/DTD/svg11.dtd"><svg width="100%" height="100%" viewBox="0 0 1024 512" version="1.1" xmlns="http://www.w3.org/2000/svg" xmlns:xlink="http://www.w3.org/1999/xlink" xml:space="preserve" style="fill-rule:evenodd;clip-rule:evenodd;stroke-linejoin:round;stroke-miterlimit:2;"><title>Borza Terjatev</title><desc>The Invoice Exchange is the first peer-to-peer finance platform for businesses in Slovenia. We connect corporate investors that have surplus liquidity with SMEs who are looking for working capital finance.</desc>    <g transform="matrix(10.0679,0,0,10.0679,-8263.83,-1938.02)">        <g>            <g transform="matrix(1,0,0,1,849.039,214.875)">                <path d="M0,-6.142c0,-1.831 -1.221,-2.855 -3.412,-2.855l-5.764,0l0,0.754l1.365,0l0,10.344l-1.365,0l0,0.754l6.105,0c2.317,0 3.664,-1.15 3.664,-3.125c0,-1.94 -1.329,-3.053 -3.682,-3.124c1.993,-0.037 3.089,-1.006 3.089,-2.748m-5.495,3.34l1.311,0c1.436,0 2.388,0.952 2.388,2.406c0,1.508 -0.826,2.281 -2.46,2.281l-1.239,0l0,-4.687Zm3.107,-3.142c0,1.203 -0.79,2.154 -1.832,2.154l-1.275,0l0,-4.22l1.239,0c1.131,0 1.868,0.809 1.868,2.066" style="fill:rgb(87,109,122);fill-rule:nonzero;"/>            </g>            <g transform="matrix(1,0,0,1,862.687,211.822)">                <path d="M0,-0.018c0,-3.43 -2.64,-6.141 -5.944,-6.141c-3.304,0 -5.926,2.711 -5.926,6.141c0,3.43 2.622,6.159 5.926,6.159c3.304,0 5.944,-2.729 5.944,-6.159m-2.532,0c0,2.729 -1.598,5.136 -3.412,5.136c-1.796,0 -3.394,-2.407 -3.394,-5.136c0,-2.711 1.598,-5.118 3.394,-5.118c1.814,0 3.412,2.407 3.412,5.118" style="fill:rgb(87,109,122);fill-rule:nonzero;"/>            </g>            <g transform="matrix(1,0,0,1,874.581,205.878)">                <path d="M0,11.852l0,-0.772l-0.736,0c-0.36,0 -0.575,-0.162 -0.988,-0.79l-2.55,-3.915c1.688,-0.521 2.514,-1.562 2.514,-3.178c0,-0.952 -0.287,-1.724 -0.88,-2.317c-0.646,-0.646 -1.508,-0.88 -3.053,-0.88l-5.297,0l0,0.754l1.365,0l0,10.344l-1.365,0l0,0.754l5.028,0l0,-0.754l-1.346,0l0,-4.525l0.484,0l2.694,4.22c0.61,0.951 0.79,1.059 1.85,1.059l2.28,0Zm-6.249,-6.177l-1.059,0l0,-4.669l1.131,0c1.275,0 2.011,0.826 2.011,2.263c0,1.418 -0.844,2.406 -2.083,2.406" style="fill:rgb(87,109,122);fill-rule:nonzero;"/>            </g>            <g transform="matrix(1,0,0,1,885.678,208.786)">                <path d="M0,6.035l-0.97,0l0,1.85l-6.016,0l6.626,-10.236l0,-0.557l-9.517,-0.001l0,2.497l0.97,0l0,-1.436l5.71,0l-6.68,10.254l0,0.538l9.877,0l0,-2.909Z" style="fill:rgb(87,109,122);fill-rule:nonzero;"/>            </g>            <g transform="matrix(1,0,0,1,898.685,205.501)">                <path d="M0,12.229l0,-0.754l-0.754,0l-4.453,-11.475l-1.096,0l-4.633,11.475l-1.113,0l0,0.754l3.717,0l0,-0.754l-1.437,0l1.168,-2.909l4.363,0l1.113,2.909l-1.256,0l0,0.754l4.381,0Zm-4.651,-4.758l-3.52,0l1.814,-4.49l1.706,4.49Z" style="fill:rgb(87,109,122);fill-rule:nonzero;"/>            </g>            <g transform="matrix(1,0,0,1,847.997,219.866)">                <path d="M0,10.344l-1.724,0l0,-10.038l3.089,0l0,1.49l0.987,0l0,-2.548l-10.487,-0.002l0,2.55l0.988,0l0,-1.49l3.106,0l0,10.038l-1.741,0l0,0.754l5.782,0l0,-0.754Z" style="fill:rgb(26,54,71);fill-rule:nonzero;"/>            </g>            <g transform="matrix(1,0,0,1,859.938,221.499)">                <path d="M0,7.077l-0.97,0l0,1.329l-3.897,0l0,-4.436l2.874,0l0,1.257l0.969,-0.018l0,-3.537l-0.969,0.018l0,1.221l-2.874,0l0,-4.238l3.736,0l0,1.292l0.952,0l0,-2.353l-8.369,0.001l0,0.755l1.365,0l0,10.343l-1.365,0l0,0.754l8.548,0l0,-2.388Z" style="fill:rgb(26,54,71);fill-rule:nonzero;"/>            </g>            <g transform="matrix(1,0,0,1,872.814,219.112)">                <path d="M0,11.852l0,-0.772l-0.736,0c-0.36,0 -0.575,-0.162 -0.988,-0.79l-2.55,-3.915c1.688,-0.521 2.514,-1.562 2.514,-3.178c0,-0.952 -0.287,-1.724 -0.88,-2.317c-0.646,-0.646 -1.508,-0.88 -3.053,-0.88l-5.297,0l0,0.754l1.365,0l0,10.344l-1.365,0l0,0.754l5.028,0l0,-0.754l-1.346,0l0,-4.525l0.484,0l2.694,4.22c0.61,0.951 0.79,1.059 1.85,1.059l2.28,0Zm-6.249,-6.177l-1.059,0l0,-4.669l1.131,0c1.275,0 2.011,0.826 2.011,2.263c0,1.418 -0.844,2.406 -2.083,2.406" style="fill:rgb(26,54,71);fill-rule:nonzero;"/>            </g>            <g transform="matrix(1,0,0,1,877.015,234.359)">                <path d="M0,-14.492l1.365,0l0,-0.754l-5.028,0l0,0.754l1.346,0l0,10.792c0,1.616 -0.412,2.64 -1.49,3.663l0.754,0.791c1.778,-1.491 2.191,-2.012 3.053,-3.825l0,-11.421Z" style="fill:rgb(26,54,71);fill-rule:nonzero;"/>            </g>            <g transform="matrix(1,0,0,1,890.341,218.735)">                <path d="M0,12.229l0,-0.754l-0.754,0l-4.453,-11.475l-1.096,0l-4.633,11.475l-1.113,0l0,0.754l3.717,0l0,-0.754l-1.437,0l1.168,-2.909l4.363,0l1.113,2.909l-1.256,0l0,0.754l4.381,0Zm-4.651,-4.759l-3.52,0l1.814,-4.489l1.706,4.489Z" style="fill:rgb(26,54,71);fill-rule:nonzero;"/>            </g>            <g transform="matrix(1,0,0,1,897.381,219.862)">                <path d="M0,10.348l-1.724,0l0,-10.038l3.089,0l0,1.49l0.987,0l0,-2.55l-10.487,-0.004l0,2.554l0.988,0l0,-1.49l3.107,0l0,10.038l-1.742,0l0,0.754l5.782,0l0,-0.754Z" style="fill:rgb(26,54,71);fill-rule:nonzero;"/>            </g>            <g transform="matrix(1,0,0,1,909.322,221.499)">                <path d="M0,7.077l-0.97,0l0,1.329l-3.897,0l0,-4.436l2.874,0l0,1.257l0.969,-0.018l0,-3.537l-0.969,0.018l0,1.221l-2.874,0l0,-4.238l3.736,0l0,1.292l0.952,0l0,-2.353l-8.369,0.001l0,0.755l1.365,0l0,10.343l-1.365,0l0,0.754l8.548,0l0,-2.388Z" style="fill:rgb(26,54,71);fill-rule:nonzero;"/>            </g>            <g transform="matrix(1,0,0,1,921.281,230.516)">                <path d="M0,-10.649l1.042,0l0,-0.754l-3.646,0l0,0.754l1.293,0l-3.232,8.243l-3.214,-8.243l1.526,0l0,-0.754l-4.885,0l0,0.754l1.06,0l4.453,11.403l1.15,0l4.453,-11.403Z" style="fill:rgb(26,54,71);fill-rule:nonzero;"/>            </g>        </g>        <g>            <g transform="matrix(1,0,0,1,821.011,229.778)">                <path d="M12.544,1.224l-12.538,0c0.193,-0.022 4.856,-0.575 8.377,-3.205c3.122,-2.333 4.095,-4.898 4.161,-5.082l0,8.287Z" style="fill:rgb(26,54,71);"/>            </g>            <g transform="matrix(1,0,0,1,833.559,231.002)">                <path d="M-12.548,-11.265c1.07,-0.789 2.254,-1.224 3.313,-1.224c0.609,0 1.079,0.138 1.963,0.553c1.743,0.802 2.462,1.023 3.595,1.023c1.282,0 2.441,-0.342 3.673,-1.069l0,3.694c-0.066,0.184 -1.039,2.749 -4.161,5.082c-3.521,2.63 -8.184,3.183 -8.377,3.205l-0.006,0l0,-11.264Z" style="fill:url(#_Linear1);"/>            </g>            <g transform="matrix(1,0,0,1,833.555,207.22)">                <path d="M-0.291,-1.305c-1.095,0.16 -5.024,0.876 -8.088,3.165c-3.214,2.402 -4.15,5.049 -4.165,5.092l0,-8.257l12.253,0Z" style="fill:rgb(87,109,122);"/>            </g>            <g transform="matrix(1,0,0,1,833.555,207.22)">                <path d="M-0.291,-1.305l0.291,0l0,11.294c-1.337,0.949 -2.273,1.305 -3.535,1.305c-0.635,0 -1.133,-0.139 -1.963,-0.498l-1.382,-0.608c-0.858,-0.387 -1.66,-0.581 -2.268,-0.581c-1.021,0 -2.228,0.431 -3.396,1.176l0,-3.831c0.015,-0.043 0.951,-2.69 4.165,-5.092c3.064,-2.289 6.993,-3.005 8.088,-3.165Z" style="fill:url(#_Linear2);"/>            </g>        </g>    </g>    <defs>        <linearGradient id="_Linear1" x1="0" y1="0" x2="1" y2="0" gradientUnits="userSpaceOnUse" gradientTransform="matrix(-12.5378,-11.2312,11.2312,-12.5378,-0.004,-0.0381)"><stop offset="0" style="stop-color:rgb(114,144,163);stop-opacity:1"/><stop offset="0.49" style="stop-color:rgb(109,136,153);stop-opacity:1"/><stop offset="1" style="stop-color:rgb(93,112,124);stop-opacity:1"/></linearGradient>        <linearGradient id="_Linear2" x1="0" y1="0" x2="1" y2="0" gradientUnits="userSpaceOnUse" gradientTransform="matrix(-12.544,-11.294,11.294,-12.544,0,9.989)"><stop offset="0" style="stop-color:rgb(126,143,153);stop-opacity:1"/><stop offset="1" style="stop-color:rgb(147,161,170);stop-opacity:1"/></linearGradient>    </defs></svg>