<?xml version="1.0" encoding="UTF-8" standalone="no"?><!DOCTYPE svg PUBLIC "-//W3C//DTD SVG 1.1//EN" "http://www.w3.org/Graphics/SVG/1.1/DTD/svg11.dtd"><svg width="100%" height="100%" viewBox="0 0 1024 512" version="1.1" xmlns="http://www.w3.org/2000/svg" xmlns:xlink="http://www.w3.org/1999/xlink" xml:space="preserve" style="fill-rule:evenodd;clip-rule:evenodd;stroke-linejoin:round;stroke-miterlimit:2;"><title>ILPA</title><desc>The Innovative Lending Platform Association (ILPA) is a leading trade organization representing a diverse group of online lending and service companies serving small businesses.</desc>    <g transform="matrix(1.84529,0,0,1.85468,-1042.43,-62.3896)">        <g transform="matrix(0.999733,0,0,0.999733,0.151258,0.0170587)">            <path d="M720.837,214.2c13.349,-46.489 -6.013,-97.875 -49.774,-123.141c-14.97,-8.643 -31.16,-13.284 -47.328,-14.257c31.85,-17.158 71.599,-17.918 105.203,1.483c32.742,18.904 51.826,52.432 53.767,87.591l-4.251,6.412l-0.201,0.301c-13.463,19.997 -34.205,35.038 -57.416,41.611Z" style="fill:url(#_Linear1);"/>        </g>        <g transform="matrix(0.999733,0,0,0.999733,0.151258,0.0170587)">            <path d="M614.383,189.189c33.512,35.587 88.278,44.904 132.432,19.411c14.97,-8.643 27.085,-20.343 36.011,-33.858c-1.065,36.161 -20.282,70.965 -53.885,90.366c-33.28,19.214 -72.588,18.654 -104.28,1.974l-3.033,-6.094l-0.16,-0.325c-10.731,-21.948 -13.306,-47.848 -7.085,-71.474Z" style="fill:url(#_Linear2);"/>        </g>        <g transform="matrix(0.999733,0,0,0.999733,0.151258,0.0170587)">            <path d="M615.069,81.275l8.727,0.54l0.362,0.024c23.941,1.653 47.237,12.01 64.513,28.693c-47.397,11.358 -82.671,54.042 -82.671,104.9c0,17.286 4.075,33.628 11.317,48.116c-30.784,-19.004 -51.317,-53.048 -51.317,-91.85c0,-37.85 19.538,-71.172 49.069,-90.423Z" style="fill:url(#_Linear3);"/>        </g>        <g transform="matrix(142.593,0,0,141.87,802.452,220.118)">            <path d="M-0.023,-0.025c0.023,-0.003 0.041,-0.009 0.052,-0.018c0.012,-0.009 0.021,-0.027 0.029,-0.054l0.122,-0.449c0.004,-0.013 0.006,-0.023 0.008,-0.032c0.002,-0.009 0.003,-0.016 0.003,-0.023c0,-0.017 -0.005,-0.027 -0.014,-0.032c-0.01,-0.004 -0.029,-0.007 -0.059,-0.01l0,-0.026l0.297,0l0,0.026c-0.024,0.003 -0.042,0.009 -0.053,0.018c-0.011,0.008 -0.02,0.026 -0.028,0.054l-0.123,0.448l-0.007,0.035c-0.001,0.003 -0.002,0.007 -0.002,0.01c-0.001,0.004 -0.001,0.007 -0.001,0.01c0,0.017 0.005,0.027 0.014,0.032c0.009,0.004 0.029,0.008 0.059,0.011l0,0.025l-0.297,0l0,-0.025Z" style="fill:rgb(22,107,197);fill-rule:nonzero;"/>        </g>        <g transform="matrix(142.593,0,0,141.87,857.943,220.118)">            <path d="M-0.023,-0.025c0.023,-0.003 0.041,-0.009 0.052,-0.018c0.012,-0.009 0.021,-0.027 0.029,-0.054l0.122,-0.449c0.004,-0.013 0.006,-0.023 0.008,-0.032c0.002,-0.009 0.003,-0.016 0.003,-0.023c0,-0.017 -0.005,-0.027 -0.014,-0.032c-0.01,-0.004 -0.029,-0.007 -0.059,-0.01l0,-0.026l0.317,0l0,0.026c-0.035,0.004 -0.058,0.009 -0.07,0.016c-0.012,0.008 -0.022,0.026 -0.031,0.056l-0.129,0.477c-0.002,0.005 -0.003,0.01 -0.004,0.015c0,0.004 -0.001,0.01 -0.001,0.016c0,0.011 0.005,0.019 0.015,0.024c0.01,0.004 0.023,0.007 0.041,0.007c0.069,0 0.128,-0.012 0.178,-0.035c0.05,-0.024 0.094,-0.068 0.132,-0.132l0.024,0.005l-0.059,0.194l-0.554,0l0,-0.025Z" style="fill:rgb(22,107,197);fill-rule:nonzero;"/>        </g>        <g transform="matrix(142.593,0,0,141.87,945.045,220.118)">            <path d="M0.268,-0.354c0.007,0.001 0.013,0.002 0.019,0.002c0.005,0 0.01,0 0.016,0c0.034,0 0.06,-0.004 0.078,-0.012c0.018,-0.008 0.034,-0.021 0.047,-0.04c0.013,-0.017 0.022,-0.04 0.029,-0.068c0.007,-0.028 0.011,-0.051 0.011,-0.069c0,-0.028 -0.007,-0.051 -0.02,-0.069c-0.014,-0.017 -0.036,-0.026 -0.068,-0.026c-0.015,0 -0.026,0.003 -0.031,0.009c-0.006,0.007 -0.011,0.018 -0.016,0.035l-0.065,0.238Zm-0.296,0.329c0.024,-0.003 0.042,-0.009 0.053,-0.018c0.011,-0.009 0.021,-0.027 0.028,-0.054l0.123,-0.449c0.002,-0.01 0.005,-0.02 0.007,-0.03c0.002,-0.01 0.003,-0.018 0.003,-0.025c0,-0.017 -0.006,-0.029 -0.019,-0.034c-0.009,-0.004 -0.027,-0.006 -0.054,-0.008l0,-0.026l0.287,0c0.049,0 0.089,0.007 0.121,0.02c0.062,0.024 0.092,0.07 0.092,0.136c0,0.059 -0.025,0.107 -0.074,0.143c-0.05,0.035 -0.114,0.053 -0.193,0.053c-0.012,0 -0.022,0 -0.029,0c-0.007,-0.001 -0.027,-0.002 -0.058,-0.004l-0.054,0.198l-0.009,0.035c-0.001,0.003 -0.001,0.007 -0.002,0.01c0,0.004 0,0.007 0,0.01c0,0.017 0.004,0.028 0.014,0.032c0.009,0.005 0.028,0.008 0.059,0.011l0,0.025l-0.295,0l0,-0.025Z" style="fill:rgb(22,107,197);fill-rule:nonzero;"/>        </g>        <g transform="matrix(142.593,0,0,141.87,1032.15,220.118)">            <path d="M0.361,-0.248l-0.037,-0.243l-0.148,0.243l0.185,0Zm-0.414,0.224c0.018,-0.005 0.032,-0.011 0.041,-0.018c0.013,-0.009 0.027,-0.027 0.043,-0.053l0.371,-0.588l0.026,0l0.096,0.572c0.006,0.039 0.014,0.062 0.023,0.071c0.009,0.008 0.029,0.014 0.06,0.016l0,0.024l-0.303,0l0,-0.024c0.029,-0.002 0.049,-0.007 0.061,-0.014c0.012,-0.007 0.018,-0.021 0.018,-0.044c0,-0.007 -0.002,-0.025 -0.006,-0.053c0,-0.006 -0.003,-0.03 -0.009,-0.073l-0.216,0l-0.058,0.102c-0.004,0.006 -0.008,0.014 -0.011,0.022c-0.003,0.008 -0.004,0.016 -0.004,0.023c0,0.014 0.004,0.023 0.012,0.027c0.008,0.004 0.026,0.007 0.052,0.01l0,0.024l-0.196,0l0,-0.024Z" style="fill:rgb(22,107,197);fill-rule:nonzero;"/>        </g>    </g>    <defs>        <linearGradient id="_Linear1" x1="0" y1="0" x2="1" y2="0" gradientUnits="userSpaceOnUse" gradientTransform="matrix(3.59773e-15,58.4576,-58.7554,3.5795e-15,744.138,116.284)"><stop offset="0" style="stop-color:rgb(0,81,255);stop-opacity:1"/><stop offset="1" style="stop-color:rgb(0,39,178);stop-opacity:1"/></linearGradient>        <linearGradient id="_Linear2" x1="0" y1="0" x2="1" y2="0" gradientUnits="userSpaceOnUse" gradientTransform="matrix(-94.2696,1.14862e-14,-1.15447e-14,-93.7919,721.605,244.029)"><stop offset="0" style="stop-color:rgb(107,43,121);stop-opacity:1"/><stop offset="1" style="stop-color:rgb(59,9,70);stop-opacity:1"/></linearGradient>        <linearGradient id="_Linear3" x1="0" y1="0" x2="1" y2="0" gradientUnits="userSpaceOnUse" gradientTransform="matrix(2.42106e-15,-39.3386,39.5389,2.40879e-15,604.263,145.048)"><stop offset="0" style="stop-color:rgb(129,176,18);stop-opacity:1"/><stop offset="1" style="stop-color:rgb(78,119,0);stop-opacity:1"/></linearGradient>    </defs></svg>