<?xml version="1.0" encoding="UTF-8" standalone="no"?><!DOCTYPE svg PUBLIC "-//W3C//DTD SVG 1.1//EN" "http://www.w3.org/Graphics/SVG/1.1/DTD/svg11.dtd"><svg width="100%" height="100%" viewBox="0 0 1024 512" version="1.1" xmlns="http://www.w3.org/2000/svg" xmlns:xlink="http://www.w3.org/1999/xlink" xml:space="preserve" style="fill-rule:evenodd;clip-rule:evenodd;stroke-linejoin:round;stroke-miterlimit:2;"><title>QuidCycle</title><desc>QuidCycle is a division of Signia Money Limited, a financial services company which champions the cause of British families by relentlessly seeking to meet their financial needs using complete financial solutions....simply!</desc>    <g transform="matrix(3.88571,0,0,3.88559,1023.94,-2177.16)">        <g>            <path d="M-213.8,630.5c0,3.9 3.4,7.3 7.3,7.3c3.8,0 7.3,-1.5 7.3,-7l0,-14c0,-1.2 1.1,-2.2 2.3,-2.2c1.3,0 2.3,1 2.3,2.2l0,23.1c0,1.2 -1.1,2.2 -2.3,2.2c-1.1,0 -2.2,-1 -2.3,-2.1c-2,1.5 -4.5,2.5 -7.2,2.5c-6.3,0 -11.9,-5.1 -11.9,-11.3l0,-14.4c0,-1.2 1.1,-2.2 2.3,-2.2c1.3,0 2.3,1 2.3,2.2l-0.1,13.7Z" style="fill:rgb(214,73,51);fill-rule:nonzero;"/>            <path d="M-190.7,608.8c0,-1.2 1.1,-2.2 2.3,-2.2c1.1,0 2.3,1.1 2.3,2.2c0,1.3 -1.1,2.3 -2.3,2.3c-1.3,0 -2.3,-1.1 -2.3,-2.3Zm0,8c0,-1.2 1.1,-2.2 2.3,-2.2c1.1,0 2.3,1 2.3,2.2l0,23.2c0,1.2 -1.1,2.2 -2.3,2.2c-1.3,0 -2.3,-1 -2.3,-2.2l0,-23.2Z" style="fill:rgb(214,73,51);fill-rule:nonzero;"/>            <path d="M-159.4,638.8c-2.5,2.2 -5.8,3.6 -9.4,3.6c-7.9,0 -14.1,-6.3 -14.1,-14.1c0,-7.7 6.3,-14 14.1,-14c3.6,0 6.9,1.4 9.4,3.6l0,-12.1c0,-1.2 1.1,-2.2 2.3,-2.2c1.1,0 2.3,1 2.3,2.2l0,34.1c0,1.2 -1.1,2.2 -2.3,2.2c-1.3,0 -2.3,-1 -2.3,-2.2l0,-1.1Zm-9.3,-1c5.2,0 9.4,-4.1 9.4,-9.4c0,-5.2 -4.1,-9.4 -9.4,-9.4c-5.3,0 -9.4,4.1 -9.4,9.4c-0.1,5.2 4.1,9.4 9.4,9.4Z" style="fill:rgb(214,73,51);fill-rule:nonzero;"/>            <path d="M-151.2,621.6c0,-11.5 9.4,-20.9 20.9,-20.9c7.8,0 12.2,3.7 13,4.4c0.8,0.7 1.5,1.4 1.5,2.5c0,1.4 -1.1,2.5 -2.5,2.5c-0.8,0 -1.2,-0.2 -2,-0.9c-2.8,-2.3 -6.4,-3.5 -10.2,-3.5c-9.1,0 -15.9,7.3 -15.9,16c0,8.1 7.7,15.9 16,15.9c3.7,0 7.3,-1.3 10.1,-3.5c0.8,-0.7 1.2,-0.9 2,-0.9c1.4,0 2.5,1.1 2.5,2.5c0,1.1 -0.7,1.9 -1.5,2.6c-0.8,0.7 -5.2,4.4 -13,4.4c-11.4,-0.2 -20.9,-9.7 -20.9,-21.1Z" style="fill:rgb(214,73,51);fill-rule:nonzero;"/>            <path d="M-106,652c-0.2,0.9 -1,1.5 -2,1.5c-0.3,0 -0.5,-0.1 -0.8,-0.2c-1,-0.3 -1.5,-1.3 -1.5,-2.3c0,-0.2 0.1,-0.4 0.1,-0.6l3.1,-8.6l-8.4,-24.3c-0.1,-0.2 -0.1,-0.4 -0.1,-0.7c0,-0.9 0.7,-1.9 1.7,-2.2c0.2,-0.1 0.4,-0.1 0.7,-0.1c0.9,0 1.9,0.6 2,1.5l6.5,19.1l6.6,-19.1c0.2,-0.9 1.1,-1.5 2,-1.5c0.2,0 0.4,0.1 0.7,0.1c1.1,0.3 1.6,1.3 1.6,2.3c0,0.2 0,0.4 -0.1,0.6l-12.1,34.5Z" style="fill:rgb(214,73,51);fill-rule:nonzero;"/>            <path d="M-69.9,633.1c0.4,-0.9 1.3,-1.6 2.2,-1.6c1.2,0 2.3,1.1 2.3,2.3c0,0.3 -0.1,0.5 -0.2,0.8c-2.1,4.7 -7,7.7 -12.5,7.7c-7.9,0 -14.1,-6.3 -14.1,-14.1c0,-7.7 6.3,-14 14.1,-14c4.6,0 8.5,2.5 11.3,5.7c0.4,0.5 0.7,1 0.7,1.6c0,1.2 -1.1,2.3 -2.3,2.3c-0.8,0 -1.6,-0.5 -2,-1.2c-1.6,-2.4 -4.5,-3.9 -7.6,-3.9c-5.3,0 -9.4,4.1 -9.4,9.4c0,5.3 4.1,9.4 9.4,9.4c3.5,0.3 6.8,-1.5 8.1,-4.4Z" style="fill:rgb(214,73,51);fill-rule:nonzero;"/>            <path d="M-61.1,605.8c0,-1.2 1.1,-2.2 2.3,-2.2c1.1,0 2.3,1 2.3,2.2l0,34.1c0,1.2 -1.1,2.2 -2.3,2.2c-1.3,0 -2.3,-1 -2.3,-2.2l0,-34.1Z" style="fill:rgb(214,73,51);fill-rule:nonzero;"/>            <path d="M-53.4,628.3c0,-7.7 6.3,-14 14.1,-14c7.5,0 13.9,6.1 14,13.3c0,1.4 -1,2.4 -2.2,2.5l-21.2,0c0.8,4.5 4.6,7.7 9.3,7.7c2.5,0 4.8,-0.8 6.4,-2.5c0.5,-0.5 1.1,-0.9 1.9,-0.9c1.3,0 2.3,1.1 2.3,2.3c0,0.7 -0.3,1.3 -0.8,1.7c-2.5,2.5 -6,4 -9.8,4c-7.8,0.1 -14,-6.3 -14,-14.1Zm4.9,-2.1l18.4,0c-0.9,-4.2 -4.6,-7.3 -9.2,-7.3c-4.6,0 -8.3,3.1 -9.2,7.3Z" style="fill:rgb(214,73,51);fill-rule:nonzero;"/>        </g>        <path d="M-218.2,640l-4.7,-4.7c-0.2,-0.2 -0.4,-0.2 -0.6,-0.1c-0.2,0.1 -0.4,0.3 -0.4,0.5l0,1.9l-19,0l0,0.4c-8,0 -15.9,-7.3 -15.9,-16.2c0,-8.9 7.4,-16.2 16.3,-16.2c8.9,0 16.3,7.3 16.3,16.2c0,3.7 -1.2,7.1 -3.4,10c-0.8,1 -0.6,2.5 0.4,3.3c1,0.8 2.5,0.6 3.3,-0.4c2.9,-3.7 4.5,-8.2 4.5,-12.9c0,-11.5 -9.3,-20.8 -20.8,-20.8c-11.5,0 -20.8,9.3 -20.8,20.8c0,11.5 9.2,20.8 20.7,20.8l18.6,0l0,2.3c0,0.2 0.2,0.4 0.4,0.5c0.2,0.1 0.5,0 0.6,-0.1l4.7,-4.7c0,-0.1 0,-0.5 -0.2,-0.6Z" style="fill:rgb(214,73,51);fill-rule:nonzero;"/>        <circle cx="-18.9" cy="639" r="3.5" style="fill:rgb(43,49,60);"/>        <path d="M-15.4,606.5c0,-4.3 2.8,-7.6 7.5,-7.6c4.7,0 7.4,3.4 7.4,7.6c0,4.2 -2.8,7.6 -7.4,7.6c-4.6,0 -7.5,-3.3 -7.5,-7.6Zm13.4,0c0,-3.5 -2.2,-6.2 -5.9,-6.2c-3.8,0 -6,2.8 -6,6.2c0,3.6 2.2,6.2 6,6.2c3.7,0.1 5.9,-2.7 5.9,-6.2Zm-4,4.1l-1.7,-3.4l-1.6,0l0,3.4l-1.6,0l0,-8.6l2.9,0c2.1,0 3.4,0.7 3.4,2.5c0,1 -0.5,1.9 -1.6,2.3l2,3.8l-1.8,0Zm-1.9,-4.7c1,0 1.8,-0.3 1.8,-1.4c0,-1 -0.9,-1.2 -1.8,-1.2l-1.4,0l0,2.6l1.4,0Z" style="fill:rgb(214,73,51);fill-rule:nonzero;"/>    </g></svg>