<?xml version="1.0" encoding="UTF-8" standalone="no"?><!DOCTYPE svg PUBLIC "-//W3C//DTD SVG 1.1//EN" "http://www.w3.org/Graphics/SVG/1.1/DTD/svg11.dtd"><svg width="100%" height="100%" viewBox="0 0 1024 512" version="1.1" xmlns="http://www.w3.org/2000/svg" xmlns:xlink="http://www.w3.org/1999/xlink" xml:space="preserve" style="fill-rule:evenodd;clip-rule:evenodd;stroke-linejoin:round;stroke-miterlimit:2;"><title>Inversa</title><desc>Online platform of alternative financing that connects companies that need liquidity with a community of investors through the advance of bills or discount of promissory notes.</desc>    <g transform="matrix(1.10127,0,0,1.10127,-52.4029,42.8561)">        <g transform="matrix(2.25243,0,0,2.25243,-61.8701,-61.9954)">            <path d="M149,152.7c-6.6,0 -12.3,5.3 -12.3,12.3c0,7.1 5.6,12.4 12.3,12.4c6.7,0 12.3,-5.3 12.3,-12.4c0,-7 -5.6,-12.3 -12.3,-12.3Z" style="fill:rgb(226,0,122);fill-rule:nonzero;"/>        </g>        <g transform="matrix(2.25243,0,0,2.25243,-61.8701,-61.9954)">            <path d="M340.6,83.2c1,0.9 1,2 0.6,2.9l-4.4,11.3c-0.5,1.6 -1.7,1.8 -3.3,1.4c-1.3,-0.4 -2.9,-1.1 -5.4,-1.1c-8.1,0 -13,6 -13,13.9l-0.1,32c0,1.2 -0.8,2 -2,2l-15.7,-0.1c-1.2,0 -2,-0.8 -2,-2l0.2,-60.3c0,-1.2 0.8,-2 2,-2l15.1,0.1c1.2,0 1.8,0.8 2,2l0.5,7.5c3.3,-6.3 8.7,-10.9 16.6,-10.8c3.8,-0.1 7.1,1.5 8.9,3.2Zm20,16.9c0,-2.2 1.9,-4.5 5.8,-4.4c3.9,0 6.7,1.6 11.7,4.5c1.2,0.8 2.1,1.2 2.9,0.1l5.9,-7.7c0.7,-0.8 0.9,-1.8 0.1,-2.8c-5.4,-6.3 -13.7,-9.8 -22.5,-9.8c-11.5,0 -22.7,7.1 -22.8,20.1c-0.1,21.6 29.6,17.7 29.5,26.3c0,3.5 -3.8,4.2 -6.8,4.2c-4.2,0 -9.3,-1.7 -15.2,-5.4c-1.2,-0.7 -2.2,-0.9 -3,0l-5.8,8.4c-0.5,0.8 -0.8,1.7 0,2.6c4.6,5.4 13.5,10.8 24.6,10.8c11.9,0 25.3,-7.1 25.4,-20.2c0.1,-23.8 -29.9,-17.7 -29.8,-26.7Zm100,-16.4l-0.2,60.3c0,1.2 -0.8,2 -2,2l-13.4,0c-1.2,0 -1.8,-0.8 -2,-2l-0.8,-5.5c-4.1,5 -10,8.4 -18.4,8.3c-18,-0.1 -31,-14.7 -31,-33c0.1,-18.8 13.2,-33.5 31.2,-33.5c8.1,0 14.2,3.7 18.5,9.2l0.7,-5.9c0.1,-1.2 0.8,-2 2,-2l13.4,0c1.3,0.2 2,1 2,2.1Zm-19.7,30.1c0,-8.7 -5.7,-15.5 -14.4,-15.5c-8.4,0 -14.6,6.2 -14.6,15.4c0,8.9 6.1,15.1 14.5,15.1c8.6,0.1 14.4,-6.2 14.5,-15Zm-150,-1.9c0,5.4 -0.7,8.1 -4.8,8.1l-39,-0.1c1.9,7 7.7,10.7 16.5,10.7c4.2,0 7.9,-0.9 12.5,-3.8c1.2,-0.8 2,-0.6 2.9,0.3l6.8,6.6c0.8,0.9 0.8,1.8 -0.3,2.9c-6.2,6.1 -14.6,9.8 -23.9,9.8c-20.2,-0.1 -34,-14.9 -34,-33.4c0,-18.5 14,-33.1 32.8,-33.1c18.7,-0.1 30.6,14.7 30.5,32Zm-17.4,-4.4c-1.3,-7.5 -6.6,-11 -12.9,-11.1c-6.6,0 -12.1,3.5 -13.5,11l26.4,0.1Zm-43.8,-26.3l-16.7,0.1c-1.1,0 -2.1,0.6 -2.5,1.7l-1.9,5.4l-5.3,13.9l-5.2,13.4c-1.8,4.6 -5.1,8.1 -9,8.8l0,-41.2c0,-1.2 -0.8,-2 -2,-2l-15.7,0c-1.2,0 -2,0.8 -2,2l0,60.6c0,1.2 0.8,2 2,2l15.7,0c0.2,0 0.5,-0.1 0.7,-0.1c13.8,0.8 23.5,-10.5 28.6,-23.6l4.9,-12.9l5.1,-13.2l5,-12.4c0.5,-1.7 -0.2,-2.5 -1.7,-2.5Zm-168,-7c6.6,0 12.3,-5.3 12.3,-12.4c0,-7 -5.6,-12.3 -12.3,-12.3c-6.6,0 -12.3,5.3 -12.3,12.3c0,7.1 5.7,12.4 12.3,12.4Zm76.4,38.7l-0.1,31c0,1.2 0.8,2 1.9,2l15.2,0.1l3.8,0c1.2,0 2.1,-0.8 2.1,-2l0.1,-29.7l0,-2c0,-16.6 -11.1,-32.2 -30.2,-32.2l-1.8,0c-11.2,0 -18.4,5.7 -23.8,13c-10.4,13.2 -14.2,31.8 -24.2,32.7c-5.5,-0.6 -8.5,-6.4 -8.5,-12.9l0,-14.6l0.1,-14.9c0,-1.2 -0.8,-2 -1.9,-2l-15.2,-0.1l-0.1,0l-3.7,0c-1.2,0 -2.1,0.8 -2.1,2l-0.1,15l-0.1,14c0,17.2 10.6,35.5 31.7,35.5l1.7,0c10.3,0 17.3,-4.2 22.4,-10.1c12.2,-13 14.8,-34.2 25.4,-35.5c4,0.3 7.4,3.9 7.4,10.7Z" style="fill:url(#_Linear1);fill-rule:nonzero;"/>        </g>    </g>    <defs>        <linearGradient id="_Linear1" x1="0" y1="0" x2="1" y2="0" gradientUnits="userSpaceOnUse" gradientTransform="matrix(411.195,0,0,411.195,49.4418,98.5444)"><stop offset="0" style="stop-color:rgb(0,163,180);stop-opacity:1"/><stop offset="0.15" style="stop-color:rgb(1,158,178);stop-opacity:1"/><stop offset="0.35" style="stop-color:rgb(4,142,171);stop-opacity:1"/><stop offset="0.56" style="stop-color:rgb(9,117,161);stop-opacity:1"/><stop offset="0.78" style="stop-color:rgb(15,82,147);stop-opacity:1"/><stop offset="1" style="stop-color:rgb(23,41,131);stop-opacity:1"/><stop offset="1" style="stop-color:rgb(28,40,131);stop-opacity:1"/><stop offset="1" style="stop-color:rgb(69,31,129);stop-opacity:1"/><stop offset="1" style="stop-color:rgb(107,24,127);stop-opacity:1"/><stop offset="1" style="stop-color:rgb(140,17,126);stop-opacity:1"/><stop offset="1" style="stop-color:rgb(167,12,125);stop-opacity:1"/><stop offset="1" style="stop-color:rgb(189,8,124);stop-opacity:1"/><stop offset="1" style="stop-color:rgb(206,4,123);stop-opacity:1"/><stop offset="1" style="stop-color:rgb(218,2,122);stop-opacity:1"/><stop offset="1" style="stop-color:rgb(224,0,122);stop-opacity:1"/><stop offset="1" style="stop-color:rgb(226,0,122);stop-opacity:1"/></linearGradient>    </defs></svg>