<?xml version="1.0" encoding="UTF-8" standalone="no"?><!DOCTYPE svg PUBLIC "-//W3C//DTD SVG 1.1//EN" "http://www.w3.org/Graphics/SVG/1.1/DTD/svg11.dtd"><svg width="100%" height="100%" viewBox="0 0 1024 512" version="1.1" xmlns="http://www.w3.org/2000/svg" xmlns:xlink="http://www.w3.org/1999/xlink" xml:space="preserve" style="fill-rule:evenodd;clip-rule:evenodd;stroke-linejoin:round;stroke-miterlimit:2;"><title>Toborrow</title><desc>Four out of five new jobs in Sweden are created by small companies. But for companies to grow, financing is sometimes required, and this is a major challenge for many. Toborrow is a digital platform for investors and borrowers - people who would otherwise never have met, but who need each other to grow. As an alternative to the banks, we offer a simple, secure and flexible loan process where everything happens completely without traditional intermediaries. Toborrow is registered with Finansinspektionen and is owned by NFT Ventures and Marginalen Bank.</desc>    <g transform="matrix(1.75932,0,0,1.75932,2,178.108)">        <g>            <path d="M111.471,87.67c-1.802,0 -3.651,-0.185 -5.453,-0.508c-16.314,-2.958 -27.175,-18.671 -24.217,-34.985c1.432,-7.903 5.869,-14.789 12.478,-19.364c6.609,-4.576 14.604,-6.286 22.507,-4.853c7.902,1.433 14.789,5.869 19.364,12.478c4.575,6.609 6.285,14.604 4.852,22.507c-1.432,7.903 -5.869,14.789 -12.478,19.364c-5.083,3.559 -10.999,5.361 -17.053,5.361Zm-0.093,-46.307c-7.671,0 -14.511,5.499 -15.944,13.31c-1.617,8.78 4.252,17.284 13.033,18.855c4.252,0.786 8.596,-0.138 12.155,-2.634c3.558,-2.449 5.961,-6.193 6.747,-10.445c1.617,-8.78 -4.252,-17.284 -13.033,-18.855c-1.016,-0.139 -1.987,-0.231 -2.958,-0.231Z" style="fill:rgb(128,199,146);fill-rule:nonzero;"/>            <path d="M192.024,27.96c-6.147,0 -11.924,1.849 -16.684,5.084l0,-26.066l-13.864,0l0,81.154l13.864,0l0,-5.083c4.76,3.188 10.537,5.083 16.684,5.083c16.591,0 30.086,-13.495 30.086,-30.086c0,-16.591 -13.495,-30.086 -30.086,-30.086Zm0,46.308c-8.966,0 -16.222,-7.256 -16.222,-16.222c0,-8.966 7.256,-16.221 16.222,-16.221c8.966,0 16.221,7.255 16.221,16.221c0,8.966 -7.255,16.222 -16.221,16.222Z" style="fill:rgb(128,199,146);fill-rule:nonzero;"/>            <path d="M268.418,87.763l-0.416,0c-8.042,-0.093 -15.529,-3.328 -21.167,-9.105c-5.638,-5.777 -8.642,-13.356 -8.504,-21.397c0.093,-8.042 3.328,-15.529 9.105,-21.167c5.777,-5.638 13.356,-8.642 21.397,-8.504c16.592,0.232 29.902,13.911 29.671,30.502c-0.093,8.042 -3.328,15.529 -9.105,21.167c-5.684,5.5 -13.125,8.504 -20.981,8.504Zm-0.047,-46.308c-4.251,0 -8.272,1.618 -11.322,4.575c-3.097,3.004 -4.853,7.071 -4.899,11.415c-0.046,4.345 1.571,8.412 4.575,11.554c3.004,3.097 7.071,4.853 11.415,4.899c4.344,0.046 8.411,-1.571 11.554,-4.575c3.096,-3.004 4.853,-7.071 4.899,-11.415c0.046,-4.345 -1.571,-8.412 -4.575,-11.554c-3.004,-3.097 -7.071,-4.853 -11.416,-4.899l-0.231,0Z" style="fill:rgb(128,199,146);fill-rule:nonzero;"/>            <path d="M451.198,87.67c-7.394,0 -14.788,-2.68 -20.565,-8.134c-5.87,-5.499 -9.243,-12.94 -9.474,-20.981c-0.232,-8.042 2.634,-15.667 8.133,-21.537c5.5,-5.869 12.941,-9.243 20.982,-9.474c8.042,-0.277 15.667,2.634 21.536,8.134c5.87,5.5 9.243,12.94 9.474,20.982c0.278,8.041 -2.634,15.667 -8.133,21.536c-5.916,6.285 -13.911,9.474 -21.953,9.474Zm0,-46.307l-0.554,0c-4.344,0.138 -8.365,1.941 -11.323,5.129c-2.958,3.143 -4.529,7.302 -4.39,11.6c0.138,4.298 1.941,8.365 5.13,11.323c6.516,6.101 16.822,5.777 22.922,-0.739c2.958,-3.143 4.529,-7.302 4.391,-11.6c-0.139,-4.298 -1.941,-8.365 -5.13,-11.323c-2.958,-2.819 -6.886,-4.39 -11.046,-4.39Z" style="fill:rgb(128,199,146);fill-rule:nonzero;"/>            <path d="M565.211,28.099l-9.982,35.585l-11.369,-35.585l-14.974,0l-9.982,35.585l-11.369,-35.585l-14.558,0l19.133,59.802l14.558,0l10.167,-36.232l11.6,36.232l14.558,0l16.776,-59.802l-14.558,0Z" style="fill:rgb(128,199,146);fill-rule:nonzero;"/>            <path d="M353.638,31.01c-2.079,-0.462 -4.159,-0.693 -6.285,-0.693c-6.147,0 -11.97,1.987 -16.73,5.407l0,-7.394l-13.864,0l0,59.571l13.864,0l0,-33.182c2.034,-7.487 8.966,-12.848 16.73,-12.848c1.248,0 2.542,0.139 3.79,0.416c0.138,0.046 0.277,0.046 0.416,0.092l2.772,-11.23c-0.184,-0.046 -0.415,-0.092 -0.693,-0.139Z" style="fill:rgb(128,199,146);fill-rule:nonzero;"/>            <path d="M413.117,31.01c-2.08,-0.462 -4.159,-0.693 -6.285,-0.693c-6.147,0 -11.97,1.987 -16.73,5.407l0,-7.394l-13.865,0l0,59.571l13.865,0l0,-33.182c2.033,-7.487 8.966,-12.848 16.73,-12.848c1.248,0 2.542,0.139 3.79,0.416c0.138,0.046 0.277,0.046 0.415,0.092l2.773,-11.23c-0.231,-0.046 -0.462,-0.092 -0.693,-0.139Z" style="fill:rgb(128,199,146);fill-rule:nonzero;"/>            <path d="M53.009,87.624c-10.399,-2.588 -19.411,-4.853 -23.709,-14.003c-3.373,-7.117 -3.235,-16.915 -2.957,-36.372c0.138,-9.612 0.323,-21.536 0.092,-36.648l13.865,-0.185c0.184,15.251 0.046,27.313 -0.093,37.018c-0.231,16.222 -0.37,26.066 1.618,30.271c1.201,2.588 4.067,3.836 14.557,6.47l-3.373,13.449Z" style="fill:rgb(128,199,146);fill-rule:nonzero;"/>            <rect x="0" y="27.221" width="67.197" height="13.865" style="fill:rgb(137,206,182);fill-rule:nonzero;"/>        </g>    </g></svg>