<?xml version="1.0" encoding="UTF-8" standalone="no"?><!DOCTYPE svg PUBLIC "-//W3C//DTD SVG 1.1//EN" "http://www.w3.org/Graphics/SVG/1.1/DTD/svg11.dtd"><svg width="100%" height="100%" viewBox="0 0 1024 512" version="1.1" xmlns="http://www.w3.org/2000/svg" xmlns:xlink="http://www.w3.org/1999/xlink" xml:space="preserve" style="fill-rule:evenodd;clip-rule:evenodd;stroke-linejoin:round;stroke-miterlimit:2;"><title>InvoiceFair</title><desc>Leverage your high-quality Receivables as a tradeable asset. Funding is secured on the back of this asset.Receivables are your Purchase Orders, Approved Invoices and Future Recurring Revenue.This source of finance is designed to enable you toWin larger orders, expand into global markets and achieve transformational growth.</desc>    <g transform="matrix(4.81749,0,0,4.81749,-580.038,-2034.49)">        <g transform="matrix(0.475421,0,0,0.476008,120.96,466.499)">            <path d="M87.712,28.439l-5.926,0c0,-0.297 -0.296,-0.889 -0.296,-1.482l0,-3.852c0,-0.592 0.296,-1.185 0.296,-1.481l14.815,0l0,46.519c-0.889,0 -1.482,0 -2.371,0.296l-4.444,0c-0.593,-0.296 -1.481,-0.296 -2.074,-0.296l0,-39.704Zm-2.074,-17.185c0,-0.593 -0.296,-1.482 -0.296,-2.371l0,-4.444c0,-0.889 0.296,-1.778 0.296,-2.371c0.889,0 1.778,-0.296 2.667,-0.296l4.74,0c0.889,0 1.482,0.296 2.371,0.296c0,0.593 0.296,1.482 0.296,2.371l0,4.444c0,0.889 -0.296,1.778 -0.296,2.371c-0.889,0 -1.482,0.296 -2.371,0.296l-4.74,0c-0.889,0 -1.778,-0.296 -2.667,-0.296Z" style="fill:rgb(255,197,0);fill-rule:nonzero;"/>        </g>        <g transform="matrix(0.475421,0,0,0.476008,120.96,475.384)">            <path d="M104.9,2.957c0.59,-0.296 1.18,-0.296 1.77,-0.296c0.6,-0.297 1.49,-0.297 2.08,-0.297c0.59,0 1.18,0 1.78,0.297c0.59,0 1.18,0 1.77,0.296c0.3,0.889 0.6,2.074 0.6,3.555c0.29,1.482 0.29,2.963 0.29,3.852c0.6,-0.889 1.48,-2.074 2.37,-2.963c0.89,-1.185 2.08,-2.074 3.26,-2.963c1.19,-0.888 2.67,-1.481 4.15,-1.777c1.48,-0.593 3.26,-0.889 5.04,-0.889c5.33,0 9.48,1.481 11.85,4.444c2.67,3.259 3.85,7.704 3.85,13.63l0,29.63c-0.59,0 -1.48,0 -2.37,0.296l-4.44,0c-0.6,-0.296 -1.48,-0.296 -2.08,-0.296l0,-27.26c0,-4.148 -0.59,-7.407 -2.07,-9.481c-1.19,-1.778 -3.56,-2.963 -6.22,-2.963c-1.78,0 -3.26,0.296 -5.04,0.889c-1.48,0.592 -2.67,1.481 -3.85,2.963c-1.19,1.185 -2.08,2.963 -2.67,4.74c-0.89,2.074 -1.18,4.445 -1.18,7.408l0,23.704c-0.6,0 -1.49,0 -2.08,0.296l-4.74,0c-0.59,-0.296 -1.48,-0.296 -2.07,-0.296l0,-46.519Z" style="fill:rgb(255,197,0);fill-rule:nonzero;"/>        </g>        <g transform="matrix(0.475421,0,0,0.476008,120.96,475.666)">            <path d="M144.3,2.365c0.89,-0.296 1.78,-0.296 2.67,-0.296c0.89,-0.297 1.78,-0.297 2.37,-0.297c0.89,0 1.78,0 2.67,0.297c0.89,0 1.78,0 2.37,0.296l12.74,38.222l12.74,-38.222c0.89,-0.296 1.48,-0.296 2.37,-0.296c0.89,-0.297 1.78,-0.297 2.37,-0.297c0.59,0 1.48,0 2.37,0.297c0.89,0 1.78,0 2.37,0.296l-18.07,46.519c-0.6,0 -1.48,0 -2.37,0.296l-4.15,0c-0.89,-0.296 -1.48,-0.296 -2.37,-0.296l-18.08,-46.519Z" style="fill:rgb(255,197,0);fill-rule:nonzero;"/>        </g>        <g transform="matrix(0.475421,0,0,0.476008,120.96,475.667)">            <path d="M209.19,49.772c-3.85,0 -6.81,-0.593 -9.77,-1.778c-2.67,-1.185 -4.75,-2.963 -6.82,-5.037c-1.78,-2.37 -2.96,-4.74 -3.85,-7.703c-0.89,-2.963 -1.48,-6.222 -1.48,-9.778c0,-3.259 0.59,-6.518 1.48,-9.481c0.89,-2.963 2.07,-5.63 3.85,-7.704c2.07,-2.371 4.15,-3.852 6.82,-5.333c2.96,-1.186 5.92,-1.778 9.77,-1.778c3.56,0 6.82,0.592 9.48,1.778c2.67,1.481 5.04,2.962 6.82,5.333c1.78,2.074 2.96,4.741 3.85,7.704c0.89,2.963 1.48,6.222 1.48,9.481c0,3.556 -0.59,6.815 -1.48,9.778c-0.89,2.963 -2.07,5.333 -3.85,7.703c-1.78,2.074 -4.15,3.852 -6.82,5.037c-2.66,1.185 -5.92,1.778 -9.48,1.778Zm0,-7.111c4.15,0 7.11,-1.482 9.19,-4.444c2.07,-2.963 2.96,-7.408 2.96,-12.741c0,-5.333 -0.89,-9.481 -2.96,-12.444c-2.08,-2.963 -5.04,-4.445 -9.19,-4.445c-4.14,0 -7.4,1.482 -9.18,4.445c-2.08,2.963 -2.96,7.111 -2.96,12.444c0,5.333 0.88,9.778 2.96,12.741c1.78,2.962 5.04,4.444 9.18,4.444Z" style="fill:rgb(255,197,0);fill-rule:nonzero;"/>        </g>        <g transform="matrix(0.475421,0,0,0.476008,120.96,466.499)">            <path d="M239.12,28.439l-5.93,0c-0.29,-0.297 -0.29,-0.889 -0.29,-1.482l0,-3.852c0,-0.592 0,-1.185 0.29,-1.481l14.52,0l0,46.519c-0.59,0 -1.18,0 -2.07,0.296l-4.45,0c-0.89,-0.296 -1.48,-0.296 -2.07,-0.296l0,-39.704Zm-2.07,-17.185c-0.3,-0.593 -0.3,-1.482 -0.3,-2.371l0,-4.444c0,-0.889 0,-1.778 0.3,-2.371c0.88,0 1.48,-0.296 2.37,-0.296l4.74,0c0.89,0 1.77,0.296 2.66,0.296l0,2.371c0.3,0.889 0.3,1.481 0.3,2.074c0,0.889 0,1.481 -0.3,2.37l0,2.371c-0.89,0 -1.48,0.296 -2.37,0.296l-5.03,0c-0.89,0 -1.49,-0.296 -2.37,-0.296Z" style="fill:rgb(255,197,0);fill-rule:nonzero;"/>        </g>        <g transform="matrix(0.475421,0,0,0.476008,120.96,475.667)">            <path d="M287.12,40.587c0.59,0.889 0.89,2.074 1.48,3.259c0.3,1.185 0.3,2.667 0.59,3.852c-3.55,1.481 -7.7,2.074 -12.44,2.074c-7.7,0 -13.63,-2.074 -17.48,-6.519c-3.85,-4.444 -5.93,-10.37 -5.93,-17.777c0,-3.259 0.59,-6.518 1.48,-9.481c0.89,-2.963 2.37,-5.63 4.45,-7.704c1.78,-2.371 4.15,-3.852 7.11,-5.333c2.67,-1.186 6.22,-1.778 9.78,-1.778c2.66,0 4.74,0 6.81,0.296c1.78,0.296 3.85,0.889 5.63,1.482c0,1.185 -0.3,2.37 -0.59,3.555c-0.3,1.482 -0.59,2.667 -1.19,3.852c-2.96,-1.185 -6.22,-1.778 -10.07,-1.778c-4.74,0 -8,1.778 -10.37,4.741c-2.37,2.963 -3.56,7.111 -3.56,12.148c0,5.926 1.48,10.074 3.85,12.741c2.67,2.666 6.23,4.148 10.67,4.148c2.08,0 3.56,0 5.04,-0.297c1.78,-0.296 3.26,-0.889 4.74,-1.481Z" style="fill:rgb(255,197,0);fill-rule:nonzero;"/>        </g>        <g transform="matrix(0.475421,0,0,0.476008,120.96,475.667)">            <path d="M298.67,27.846c0,5.037 1.49,8.593 3.86,10.963c2.66,2.37 6.22,3.556 11.26,3.556c4.14,0 8.29,-0.593 12.14,-2.074c0.6,0.888 0.89,1.777 1.19,3.259c0.3,1.185 0.59,2.37 0.59,3.852c-2.07,0.888 -4.15,1.481 -6.52,1.777c-2.37,0.593 -5.03,0.593 -8,0.593c-4.14,0 -8,-0.593 -10.96,-1.778c-2.96,-1.185 -5.63,-2.666 -7.41,-4.741c-2.07,-2.37 -3.55,-4.74 -4.44,-7.703c-0.89,-2.963 -1.19,-6.222 -1.19,-9.778c0,-3.259 0.3,-6.518 1.19,-9.481c0.89,-3.259 2.37,-5.63 4.15,-8c1.77,-2.074 4.14,-3.852 6.81,-5.333c2.67,-1.186 5.93,-1.778 9.78,-1.778c3.26,0 5.93,0.592 8.3,1.481c2.37,1.185 4.44,2.667 6.22,4.741c1.48,1.778 2.66,4.148 3.55,6.815c0.89,2.37 1.48,5.333 1.48,8.296c0,0.889 -0.29,1.778 -0.29,2.963l0,2.37l-31.71,0Zm23.12,-6.814c0,-1.778 -0.3,-3.26 -0.89,-4.741c-0.3,-1.778 -0.89,-2.963 -1.78,-4.148c-0.89,-1.185 -2.07,-2.074 -3.56,-2.667c-1.18,-0.889 -2.96,-1.185 -4.74,-1.185c-3.85,0 -6.52,1.185 -8.59,3.259c-1.78,2.37 -2.96,5.63 -3.56,9.482l23.12,0Z" style="fill:rgb(255,197,0);fill-rule:nonzero;"/>        </g>        <g transform="matrix(0.475421,0,0,0.476008,120.96,465.935)">            <path d="M338.67,29.624l-7.7,0c-0.3,-0.889 -0.3,-2.074 -0.3,-3.26c0,-1.481 0,-2.666 0.3,-3.555l7.7,0l0,-3.259c0,-5.926 1.19,-10.371 4.15,-13.334c2.97,-2.963 7.11,-4.444 12.45,-4.444c1.78,0 2.96,0 4.15,0.296c1.18,0 2.07,0.296 3.25,0.593c0,1.481 -0.29,2.963 -0.59,3.852c0,1.185 -0.29,2.37 -0.89,3.555c-0.59,-0.296 -1.18,-0.296 -2.07,-0.592l-2.96,0c-1.19,0 -2.37,0 -3.56,0.296c-0.89,0.296 -2.07,0.889 -2.67,1.481c-0.88,0.889 -1.48,1.778 -1.77,3.26c-0.3,1.185 -0.6,2.963 -0.6,5.037l0,3.259l11.86,0c0.29,1.185 0.29,2.37 0.29,3.555c0,1.186 0,2.371 -0.29,3.26l-11.86,0l0,39.704c-0.59,0 -1.48,0 -2.37,0.296l-4.44,0c-0.89,-0.296 -1.48,-0.296 -2.08,-0.296l0,-39.704Z" style="fill:rgb(255,197,0);fill-rule:nonzero;"/>        </g>        <g transform="matrix(0.475421,0,0,0.476008,120.96,475.667)">            <path d="M385.79,18.069c0,-3.556 -0.89,-5.926 -2.67,-7.408c-2.07,-1.481 -4.45,-2.074 -8,-2.074c-2.07,0 -4.15,0.296 -5.93,0.593c-1.77,0.296 -3.55,0.592 -5.33,1.185c-1.19,-2.074 -1.78,-4.445 -1.78,-7.111c2.08,-0.593 4.15,-1.185 6.82,-1.482c2.37,-0.296 4.74,-0.592 7.11,-0.592c5.92,0 10.66,1.481 13.92,4.148c2.97,2.667 4.45,7.111 4.45,13.037l0,29.333c-2.08,0.296 -4.45,0.889 -7.71,1.481c-2.96,0.297 -5.92,0.593 -9.18,0.593c-2.96,0 -5.63,-0.296 -8,-0.593c-2.37,-0.592 -4.44,-1.481 -5.93,-2.666c-1.77,-1.185 -2.96,-2.963 -3.85,-4.741c-1.18,-1.777 -1.48,-4.148 -1.48,-6.814c0,-2.667 0.59,-4.741 1.48,-6.815c1.19,-2.074 2.67,-3.556 4.45,-5.037c1.77,-1.186 3.85,-2.074 6.22,-2.667c2.37,-0.593 4.74,-1.185 7.41,-1.185c2.07,0 3.55,0.296 4.74,0.296c1.18,0 2.37,0.296 3.26,0.296l0,-1.777Zm0,8.889c-0.89,-0.297 -2.08,-0.297 -3.56,-0.297c-1.48,-0.296 -2.67,-0.296 -3.56,-0.296c-3.55,0 -6.51,0.593 -8.59,2.074c-1.78,1.481 -2.96,3.556 -2.96,6.519c0,1.777 0.3,2.962 1.18,4.148c0.6,0.889 1.49,1.777 2.37,2.37c0.89,0.592 2.08,0.889 3.26,0.889c1.19,0.296 2.37,0.296 3.56,0.296c1.48,0 2.67,0 4.15,-0.296c1.48,0 2.96,-0.297 4.15,-0.593l0,-14.814Z" style="fill:rgb(255,197,0);fill-rule:nonzero;"/>        </g>        <g transform="matrix(0.475421,0,0,0.476008,120.96,466.499)">            <path d="M403.86,28.439l-5.93,0c0,-0.297 -0.29,-0.889 -0.29,-1.482l0,-3.852c0,-0.592 0.29,-1.185 0.29,-1.481l14.82,0l0,46.519c-0.89,0 -1.48,0 -2.37,0.296l-4.15,0c-0.89,-0.296 -1.78,-0.296 -2.37,-0.296l0,-39.704Zm-2.07,-17.185c0,-0.593 0,-1.482 -0.3,-2.371l0,-4.444c0.3,-0.889 0.3,-1.778 0.3,-2.371c0.88,0 1.77,-0.296 2.66,-0.296l4.74,0c0.89,0 1.78,0.296 2.37,0.296c0,0.593 0.3,1.482 0.3,2.371l0,4.444c0,0.889 -0.3,1.778 -0.3,2.371c-0.59,0 -1.48,0.296 -2.37,0.296l-4.74,0c-0.89,0 -1.78,-0.296 -2.66,-0.296Z" style="fill:rgb(255,197,0);fill-rule:nonzero;"/>        </g>        <g transform="matrix(0.475421,0,0,0.476008,120.96,475.666)">            <path d="M420.45,2.365c0.6,-0.296 1.19,-0.296 1.78,-0.296c0.59,-0.297 1.19,-0.297 2.07,-0.297c0.6,0 1.19,0 1.78,0.297c0.89,0 1.48,0 1.78,0.296c0.3,0.889 0.59,2.074 0.59,3.555c0.3,1.482 0.3,2.667 0.3,3.556c1.18,-2.074 2.96,-3.852 5.04,-5.333c2.07,-1.482 4.74,-2.074 8,-2.074l2.96,0c0,0.592 0.3,1.185 0.3,1.777l0,4.149c-0.3,0.888 -0.3,1.481 -0.6,2.37c-0.29,-0.296 -0.89,-0.296 -1.48,-0.296l-1.18,0c-1.49,0 -2.97,0.296 -4.45,0.889c-1.48,0.296 -2.96,1.185 -4.15,2.37c-1.18,1.185 -2.07,2.667 -2.66,4.741c-0.89,1.777 -1.19,4.444 -1.19,7.703l0,23.112c-0.59,0 -1.48,0 -2.07,0.296l-4.45,0c-0.89,-0.296 -1.77,-0.296 -2.37,-0.296l0,-46.519Z" style="fill:rgb(255,197,0);fill-rule:nonzero;"/>        </g>        <g transform="matrix(0.475421,0,0,0.476008,120.96,454.369)">            <path d="M57.193,29.032c-2.074,0 -4.444,1.481 -5.333,2.963l-22.222,31.704c-0.889,1.777 -0.296,2.962 1.481,2.962l11.556,0c2.074,0 4.444,-1.185 5.333,-2.962l22.222,-31.704c0.889,-1.482 0.297,-2.963 -1.481,-2.963l-11.556,0Z" style="fill:rgb(255,197,0);fill-rule:nonzero;"/>        </g>        <g transform="matrix(0.475421,0,0,0.476008,120.96,420.945)">            <path d="M42.675,64.291c2.074,0 4.444,1.18 5.333,2.663l22.222,32c0.889,1.481 0.297,2.666 -1.481,2.666l-11.556,0c-2.074,0 -4.444,-1.185 -5.333,-2.666l-22.222,-32c-0.889,-1.483 -0.296,-2.663 1.481,-2.663l11.556,0Z" style="fill:rgb(255,197,0);fill-rule:nonzero;"/>        </g>        <g transform="matrix(0.475421,0,0,0.476008,120.96,454.369)">            <path d="M27.564,29.032c-1.778,0 -4.148,1.481 -5.334,2.963l-21.925,31.704c-1.186,1.777 -0.593,2.962 1.481,2.962l11.556,0c1.777,0 4.148,-1.185 5.333,-2.962l21.926,-31.704c1.185,-1.482 0.296,-2.963 -1.482,-2.963l-11.555,0Z" style="fill:rgb(255,197,0);fill-rule:nonzero;"/>        </g>        <g transform="matrix(0.475421,0,0,0.476008,120.96,420.945)">            <path d="M13.342,64.291c1.777,0 4.148,1.18 5.333,2.663l21.926,32c1.185,1.481 0.296,2.666 -1.482,2.666l-11.555,0c-1.778,0 -4.148,-1.185 -5.334,-2.666l-21.925,-32c-1.186,-1.483 -0.593,-2.663 1.481,-2.663l11.556,0Z" style="fill:rgb(255,197,0);fill-rule:nonzero;"/>        </g>        <g transform="matrix(0.475421,0,0,0.476008,120.96,466.499)">            <path d="M87.712,28.439l-5.926,0c0,-0.297 -0.296,-0.889 -0.296,-1.482l0,-3.852c0,-0.592 0.296,-1.185 0.296,-1.481l14.815,0l0,46.519c-0.889,0 -1.482,0 -2.371,0.296l-4.444,0c-0.593,-0.296 -1.481,-0.296 -2.074,-0.296l0,-39.704Zm-2.074,-17.185c0,-0.593 -0.296,-1.482 -0.296,-2.371l0,-4.444c0,-0.889 0.296,-1.778 0.296,-2.371c0.889,0 1.778,-0.296 2.667,-0.296l4.74,0c0.889,0 1.482,0.296 2.371,0.296c0,0.593 0.296,1.482 0.296,2.371l0,4.444c0,0.889 -0.296,1.778 -0.296,2.371c-0.889,0 -1.482,0.296 -2.371,0.296l-4.74,0c-0.889,0 -1.778,-0.296 -2.667,-0.296Z" style="fill:rgb(255,197,0);fill-rule:nonzero;"/>        </g>        <g transform="matrix(0.475421,0,0,0.476008,120.96,475.384)">            <path d="M104.9,2.957c0.59,-0.296 1.18,-0.296 1.77,-0.296c0.6,-0.297 1.49,-0.297 2.08,-0.297c0.59,0 1.18,0 1.78,0.297c0.59,0 1.18,0 1.77,0.296c0.3,0.889 0.6,2.074 0.6,3.555c0.29,1.482 0.29,2.963 0.29,3.852c0.6,-0.889 1.48,-2.074 2.37,-2.963c0.89,-1.185 2.08,-2.074 3.26,-2.963c1.19,-0.888 2.67,-1.481 4.15,-1.777c1.48,-0.593 3.26,-0.889 5.04,-0.889c5.33,0 9.48,1.481 11.85,4.444c2.67,3.259 3.85,7.704 3.85,13.63l0,29.63c-0.59,0 -1.48,0 -2.37,0.296l-4.44,0c-0.6,-0.296 -1.48,-0.296 -2.08,-0.296l0,-27.26c0,-4.148 -0.59,-7.407 -2.07,-9.481c-1.19,-1.778 -3.56,-2.963 -6.22,-2.963c-1.78,0 -3.26,0.296 -5.04,0.889c-1.48,0.592 -2.67,1.481 -3.85,2.963c-1.19,1.185 -2.08,2.963 -2.67,4.74c-0.89,2.074 -1.18,4.445 -1.18,7.408l0,23.704c-0.6,0 -1.49,0 -2.08,0.296l-4.74,0c-0.59,-0.296 -1.48,-0.296 -2.07,-0.296l0,-46.519Z" style="fill:rgb(255,197,0);fill-rule:nonzero;"/>        </g>        <g transform="matrix(0.475421,0,0,0.476008,120.96,475.666)">            <path d="M144.3,2.365c0.89,-0.296 1.78,-0.296 2.67,-0.296c0.89,-0.297 1.78,-0.297 2.37,-0.297c0.89,0 1.78,0 2.67,0.297c0.89,0 1.78,0 2.37,0.296l12.74,38.222l12.74,-38.222c0.89,-0.296 1.48,-0.296 2.37,-0.296c0.89,-0.297 1.78,-0.297 2.37,-0.297c0.59,0 1.48,0 2.37,0.297c0.89,0 1.78,0 2.37,0.296l-18.07,46.519c-0.6,0 -1.48,0 -2.37,0.296l-4.15,0c-0.89,-0.296 -1.48,-0.296 -2.37,-0.296l-18.08,-46.519Z" style="fill:rgb(255,197,0);fill-rule:nonzero;"/>        </g>        <g transform="matrix(0.475421,0,0,0.476008,120.96,475.667)">            <path d="M209.19,49.772c-3.85,0 -6.81,-0.593 -9.77,-1.778c-2.67,-1.185 -4.75,-2.963 -6.82,-5.037c-1.78,-2.37 -2.96,-4.74 -3.85,-7.703c-0.89,-2.963 -1.48,-6.222 -1.48,-9.778c0,-3.259 0.59,-6.518 1.48,-9.481c0.89,-2.963 2.07,-5.63 3.85,-7.704c2.07,-2.371 4.15,-3.852 6.82,-5.333c2.96,-1.186 5.92,-1.778 9.77,-1.778c3.56,0 6.82,0.592 9.48,1.778c2.67,1.481 5.04,2.962 6.82,5.333c1.78,2.074 2.96,4.741 3.85,7.704c0.89,2.963 1.48,6.222 1.48,9.481c0,3.556 -0.59,6.815 -1.48,9.778c-0.89,2.963 -2.07,5.333 -3.85,7.703c-1.78,2.074 -4.15,3.852 -6.82,5.037c-2.66,1.185 -5.92,1.778 -9.48,1.778Zm0,-7.111c4.15,0 7.11,-1.482 9.19,-4.444c2.07,-2.963 2.96,-7.408 2.96,-12.741c0,-5.333 -0.89,-9.481 -2.96,-12.444c-2.08,-2.963 -5.04,-4.445 -9.19,-4.445c-4.14,0 -7.4,1.482 -9.18,4.445c-2.08,2.963 -2.96,7.111 -2.96,12.444c0,5.333 0.88,9.778 2.96,12.741c1.78,2.962 5.04,4.444 9.18,4.444Z" style="fill:rgb(255,197,0);fill-rule:nonzero;"/>        </g>        <g transform="matrix(0.475421,0,0,0.476008,120.96,466.499)">            <path d="M239.12,28.439l-5.93,0c-0.29,-0.297 -0.29,-0.889 -0.29,-1.482l0,-3.852c0,-0.592 0,-1.185 0.29,-1.481l14.52,0l0,46.519c-0.59,0 -1.18,0 -2.07,0.296l-4.45,0c-0.89,-0.296 -1.48,-0.296 -2.07,-0.296l0,-39.704Zm-2.07,-17.185c-0.3,-0.593 -0.3,-1.482 -0.3,-2.371l0,-4.444c0,-0.889 0,-1.778 0.3,-2.371c0.88,0 1.48,-0.296 2.37,-0.296l4.74,0c0.89,0 1.77,0.296 2.66,0.296l0,2.371c0.3,0.889 0.3,1.481 0.3,2.074c0,0.889 0,1.481 -0.3,2.37l0,2.371c-0.89,0 -1.48,0.296 -2.37,0.296l-5.03,0c-0.89,0 -1.49,-0.296 -2.37,-0.296Z" style="fill:rgb(255,197,0);fill-rule:nonzero;"/>        </g>        <g transform="matrix(0.475421,0,0,0.476008,120.96,475.667)">            <path d="M287.12,40.587c0.59,0.889 0.89,2.074 1.48,3.259c0.3,1.185 0.3,2.667 0.59,3.852c-3.55,1.481 -7.7,2.074 -12.44,2.074c-7.7,0 -13.63,-2.074 -17.48,-6.519c-3.85,-4.444 -5.93,-10.37 -5.93,-17.777c0,-3.259 0.59,-6.518 1.48,-9.481c0.89,-2.963 2.37,-5.63 4.45,-7.704c1.78,-2.371 4.15,-3.852 7.11,-5.333c2.67,-1.186 6.22,-1.778 9.78,-1.778c2.66,0 4.74,0 6.81,0.296c1.78,0.296 3.85,0.889 5.63,1.482c0,1.185 -0.3,2.37 -0.59,3.555c-0.3,1.482 -0.59,2.667 -1.19,3.852c-2.96,-1.185 -6.22,-1.778 -10.07,-1.778c-4.74,0 -8,1.778 -10.37,4.741c-2.37,2.963 -3.56,7.111 -3.56,12.148c0,5.926 1.48,10.074 3.85,12.741c2.67,2.666 6.23,4.148 10.67,4.148c2.08,0 3.56,0 5.04,-0.297c1.78,-0.296 3.26,-0.889 4.74,-1.481Z" style="fill:rgb(255,197,0);fill-rule:nonzero;"/>        </g>        <g transform="matrix(0.475421,0,0,0.476008,120.96,475.667)">            <path d="M298.67,27.846c0,5.037 1.49,8.593 3.86,10.963c2.66,2.37 6.22,3.556 11.26,3.556c4.14,0 8.29,-0.593 12.14,-2.074c0.6,0.888 0.89,1.777 1.19,3.259c0.3,1.185 0.59,2.37 0.59,3.852c-2.07,0.888 -4.15,1.481 -6.52,1.777c-2.37,0.593 -5.03,0.593 -8,0.593c-4.14,0 -8,-0.593 -10.96,-1.778c-2.96,-1.185 -5.63,-2.666 -7.41,-4.741c-2.07,-2.37 -3.55,-4.74 -4.44,-7.703c-0.89,-2.963 -1.19,-6.222 -1.19,-9.778c0,-3.259 0.3,-6.518 1.19,-9.481c0.89,-3.259 2.37,-5.63 4.15,-8c1.77,-2.074 4.14,-3.852 6.81,-5.333c2.67,-1.186 5.93,-1.778 9.78,-1.778c3.26,0 5.93,0.592 8.3,1.481c2.37,1.185 4.44,2.667 6.22,4.741c1.48,1.778 2.66,4.148 3.55,6.815c0.89,2.37 1.48,5.333 1.48,8.296c0,0.889 -0.29,1.778 -0.29,2.963l0,2.37l-31.71,0Zm23.12,-6.814c0,-1.778 -0.3,-3.26 -0.89,-4.741c-0.3,-1.778 -0.89,-2.963 -1.78,-4.148c-0.89,-1.185 -2.07,-2.074 -3.56,-2.667c-1.18,-0.889 -2.96,-1.185 -4.74,-1.185c-3.85,0 -6.52,1.185 -8.59,3.259c-1.78,2.37 -2.96,5.63 -3.56,9.482l23.12,0Z" style="fill:rgb(255,197,0);fill-rule:nonzero;"/>        </g>        <g transform="matrix(0.475421,0,0,0.476008,120.96,465.935)">            <path d="M338.67,29.624l-7.7,0c-0.3,-0.889 -0.3,-2.074 -0.3,-3.26c0,-1.481 0,-2.666 0.3,-3.555l7.7,0l0,-3.259c0,-5.926 1.19,-10.371 4.15,-13.334c2.97,-2.963 7.11,-4.444 12.45,-4.444c1.78,0 2.96,0 4.15,0.296c1.18,0 2.07,0.296 3.25,0.593c0,1.481 -0.29,2.963 -0.59,3.852c0,1.185 -0.29,2.37 -0.89,3.555c-0.59,-0.296 -1.18,-0.296 -2.07,-0.592l-2.96,0c-1.19,0 -2.37,0 -3.56,0.296c-0.89,0.296 -2.07,0.889 -2.67,1.481c-0.88,0.889 -1.48,1.778 -1.77,3.26c-0.3,1.185 -0.6,2.963 -0.6,5.037l0,3.259l11.86,0c0.29,1.185 0.29,2.37 0.29,3.555c0,1.186 0,2.371 -0.29,3.26l-11.86,0l0,39.704c-0.59,0 -1.48,0 -2.37,0.296l-4.44,0c-0.89,-0.296 -1.48,-0.296 -2.08,-0.296l0,-39.704Z" style="fill:rgb(255,197,0);fill-rule:nonzero;"/>        </g>        <g transform="matrix(0.475421,0,0,0.476008,120.96,475.667)">            <path d="M385.79,18.069c0,-3.556 -0.89,-5.926 -2.67,-7.408c-2.07,-1.481 -4.45,-2.074 -8,-2.074c-2.07,0 -4.15,0.296 -5.93,0.593c-1.77,0.296 -3.55,0.592 -5.33,1.185c-1.19,-2.074 -1.78,-4.445 -1.78,-7.111c2.08,-0.593 4.15,-1.185 6.82,-1.482c2.37,-0.296 4.74,-0.592 7.11,-0.592c5.92,0 10.66,1.481 13.92,4.148c2.97,2.667 4.45,7.111 4.45,13.037l0,29.333c-2.08,0.296 -4.45,0.889 -7.71,1.481c-2.96,0.297 -5.92,0.593 -9.18,0.593c-2.96,0 -5.63,-0.296 -8,-0.593c-2.37,-0.592 -4.44,-1.481 -5.93,-2.666c-1.77,-1.185 -2.96,-2.963 -3.85,-4.741c-1.18,-1.777 -1.48,-4.148 -1.48,-6.814c0,-2.667 0.59,-4.741 1.48,-6.815c1.19,-2.074 2.67,-3.556 4.45,-5.037c1.77,-1.186 3.85,-2.074 6.22,-2.667c2.37,-0.593 4.74,-1.185 7.41,-1.185c2.07,0 3.55,0.296 4.74,0.296c1.18,0 2.37,0.296 3.26,0.296l0,-1.777Zm0,8.889c-0.89,-0.297 -2.08,-0.297 -3.56,-0.297c-1.48,-0.296 -2.67,-0.296 -3.56,-0.296c-3.55,0 -6.51,0.593 -8.59,2.074c-1.78,1.481 -2.96,3.556 -2.96,6.519c0,1.777 0.3,2.962 1.18,4.148c0.6,0.889 1.49,1.777 2.37,2.37c0.89,0.592 2.08,0.889 3.26,0.889c1.19,0.296 2.37,0.296 3.56,0.296c1.48,0 2.67,0 4.15,-0.296c1.48,0 2.96,-0.297 4.15,-0.593l0,-14.814Z" style="fill:rgb(255,197,0);fill-rule:nonzero;"/>        </g>        <g transform="matrix(0.475421,0,0,0.476008,120.96,466.499)">            <path d="M403.86,28.439l-5.93,0c0,-0.297 -0.29,-0.889 -0.29,-1.482l0,-3.852c0,-0.592 0.29,-1.185 0.29,-1.481l14.82,0l0,46.519c-0.89,0 -1.48,0 -2.37,0.296l-4.15,0c-0.89,-0.296 -1.78,-0.296 -2.37,-0.296l0,-39.704Zm-2.07,-17.185c0,-0.593 0,-1.482 -0.3,-2.371l0,-4.444c0.3,-0.889 0.3,-1.778 0.3,-2.371c0.88,0 1.77,-0.296 2.66,-0.296l4.74,0c0.89,0 1.78,0.296 2.37,0.296c0,0.593 0.3,1.482 0.3,2.371l0,4.444c0,0.889 -0.3,1.778 -0.3,2.371c-0.59,0 -1.48,0.296 -2.37,0.296l-4.74,0c-0.89,0 -1.78,-0.296 -2.66,-0.296Z" style="fill:rgb(255,197,0);fill-rule:nonzero;"/>        </g>        <g transform="matrix(0.475421,0,0,0.476008,120.96,475.666)">            <path d="M420.45,2.365c0.6,-0.296 1.19,-0.296 1.78,-0.296c0.59,-0.297 1.19,-0.297 2.07,-0.297c0.6,0 1.19,0 1.78,0.297c0.89,0 1.48,0 1.78,0.296c0.3,0.889 0.59,2.074 0.59,3.555c0.3,1.482 0.3,2.667 0.3,3.556c1.18,-2.074 2.96,-3.852 5.04,-5.333c2.07,-1.482 4.74,-2.074 8,-2.074l2.96,0c0,0.592 0.3,1.185 0.3,1.777l0,4.149c-0.3,0.888 -0.3,1.481 -0.6,2.37c-0.29,-0.296 -0.89,-0.296 -1.48,-0.296l-1.18,0c-1.49,0 -2.97,0.296 -4.45,0.889c-1.48,0.296 -2.96,1.185 -4.15,2.37c-1.18,1.185 -2.07,2.667 -2.66,4.741c-0.89,1.777 -1.19,4.444 -1.19,7.703l0,23.112c-0.59,0 -1.48,0 -2.07,0.296l-4.45,0c-0.89,-0.296 -1.77,-0.296 -2.37,-0.296l0,-46.519Z" style="fill:rgb(255,197,0);fill-rule:nonzero;"/>        </g>        <g transform="matrix(0.475421,0,0,0.476008,120.96,454.369)">            <path d="M57.193,29.032c-2.074,0 -4.444,1.481 -5.333,2.963l-22.222,31.704c-0.889,1.777 -0.296,2.962 1.481,2.962l11.556,0c2.074,0 4.444,-1.185 5.333,-2.962l22.222,-31.704c0.889,-1.482 0.297,-2.963 -1.481,-2.963l-11.556,0Z" style="fill:rgb(255,197,0);fill-rule:nonzero;"/>        </g>        <g transform="matrix(0.475421,0,0,0.476008,120.96,420.945)">            <path d="M42.675,64.291c2.074,0 4.444,1.18 5.333,2.663l22.222,32c0.889,1.481 0.297,2.666 -1.481,2.666l-11.556,0c-2.074,0 -4.444,-1.185 -5.333,-2.666l-22.222,-32c-0.889,-1.483 -0.296,-2.663 1.481,-2.663l11.556,0Z" style="fill:rgb(255,197,0);fill-rule:nonzero;"/>        </g>        <g transform="matrix(0.475421,0,0,0.476008,120.96,454.369)">            <path d="M27.564,29.032c-1.778,0 -4.148,1.481 -5.334,2.963l-21.925,31.704c-1.186,1.777 -0.593,2.962 1.481,2.962l11.556,0c1.777,0 4.148,-1.185 5.333,-2.962l21.926,-31.704c1.185,-1.482 0.296,-2.963 -1.482,-2.963l-11.555,0Z" style="fill:rgb(255,197,0);fill-rule:nonzero;"/>        </g>        <g transform="matrix(0.475421,0,0,0.476008,120.96,420.945)">            <path d="M13.342,64.291c1.777,0 4.148,1.18 5.333,2.663l21.926,32c1.185,1.481 0.296,2.666 -1.482,2.666l-11.555,0c-1.778,0 -4.148,-1.185 -5.334,-2.666l-21.925,-32c-1.186,-1.483 -0.593,-2.663 1.481,-2.663l11.556,0Z" style="fill:rgb(255,197,0);fill-rule:nonzero;"/>        </g>    </g></svg>