<?xml version="1.0" encoding="UTF-8" standalone="no"?><!DOCTYPE svg PUBLIC "-//W3C//DTD SVG 1.1//EN" "http://www.w3.org/Graphics/SVG/1.1/DTD/svg11.dtd"><svg width="100%" height="100%" viewBox="0 0 1024 512" version="1.1" xmlns="http://www.w3.org/2000/svg" xmlns:xlink="http://www.w3.org/1999/xlink" xml:space="preserve" style="fill-rule:evenodd;clip-rule:evenodd;stroke-linejoin:round;stroke-miterlimit:2;"><title>Rontgen</title><desc>Röntgen is a crowdinvesting platform where retail investors can invest in premium real estate projects that before were accessible only to a narrow circle of high net worth individuals.</desc>    <g id="rontgen-512x256.svg" transform="matrix(2.21726,0,0,2.21225,-55.6004,-27.0688)">        <path d="M139,89.53c6.82,-10.67 9.81,-26.89 8.12,-33c-3.18,-11.4 -13.39,-17 -26.1,-19.44c-10.28,-2 -31.87,-0.6 -45.29,3.66c-5.053,1.313 -9.377,4.595 -12,9.11c-0.77,1.85 1.57,2.78 2.1,1.68c0.778,-2.006 2.181,-3.71 4,-4.86c4.709,-2.271 9.792,-3.667 15,-4.12c8.477,-0.139 16.936,0.812 25.17,2.83c13,3 23.27,9.32 26.89,22.61c1.122,6.324 -0.275,12.842 -3.89,18.15c-5.12,7.05 -11.67,12.941 -19.22,17.29c-3.627,2.16 -7.62,3.635 -11.78,4.35c-2.62,0.13 0.74,-9.39 -6.42,-9.26c-7.16,0.13 -10.84,5.32 -14.16,10.13c-3.07,4.46 3.57,9 4.3,10.26c0.73,1.26 0,11.32 -1.15,18.29c-1.436,7.725 -3.411,15.341 -5.91,22.79c-0.396,0.808 -0.602,1.697 -0.602,2.597c0,2.779 1.963,5.199 4.682,5.773c4.9,1.63 12.76,-1.42 16.36,-5.66c1.61,-1.91 2.17,-6.51 0.35,-5.71c-4.41,1.94 -5.65,1.8 -6,0.34c-3.67,-14 7,-44.06 13.92,-44.57c6.92,-0.51 23.86,-11.09 31.63,-23.24Zm-55,1.66c0.34,-1.5 0.71,-6.29 -2,-2.71c-7.27,9.34 -16.41,19.69 -18.48,22.08c-2.07,2.39 -10.22,9.64 -12.82,13c-0.14,0.19 -11.65,13.53 -13.14,15.89c-2.53,3 -5,5.95 -7.62,8.85c-2.74,3.06 -5.58,7 -2.86,10.43c3.52,4.45 12.89,-0.26 14.26,-2.5c1.37,-2.24 0,-4.76 -1.33,-4.37c-2.5,0.77 -7.33,3.72 -4.21,-1.91c0.87,-1.56 13.2,-19.7 12.42,-18.27c-0.78,1.43 1.74,-2.64 4,-4.27c2.26,-1.63 10.34,-10.26 10.87,-10.82c-0.46,0.5 4.83,-4.35 4,-3.74c-0.83,0.61 14.6,-11.49 16.91,-21.66Zm94.85,-4.86c1.5,-1.53 1,-7.4 -3,-6.5c0,0 -11.77,1.53 -8,6.5c3.77,4.97 9.51,1.53 11,0Zm18.77,-0.1c1.74,-1.9 2.88,-8.4 -0.16,-7c-3.04,1.4 -11.12,0.6 -11.42,7.06c-0.27,6.27 10.13,1.49 11.59,-0.1l-0.01,0.04Zm285.78,56.48c-1.77,-0.85 -9.35,0.38 -9.65,6.86c-0.3,6.27 10.11,1.49 11.57,-0.1c1.73,-1.9 -0.15,-5.91 -1.93,-6.76l0.01,0Zm-34.18,-3.77c-1.47,0.49 -6.42,-5.11 -8,-7.52c-2.239,-2.563 -5.63,-3.825 -9,-3.35c-12.25,1.72 -31.55,15 -31.16,9c1.2,-18.64 -9.26,-8.12 -13.37,-5.45c-4.72,3.06 -7.61,7.15 -13.23,9.84c-4.297,1.504 -8.712,2.645 -13.2,3.41c-4.488,0.765 -8.24,2.56 -7.47,-4.46c5.591,-2.427 10.981,-5.293 16.12,-8.57c3.5,-2.81 1.58,-11.46 -5.13,-12.85c-3.592,0.018 -7.034,1.457 -9.57,4c-2.046,1.954 -3.738,4.248 -5,6.78c-2.91,5 -7.26,15.08 -5.25,19.13c2.82,5.71 7.34,2.94 12.27,1.12c7.931,-1.906 15.699,-4.438 23.23,-7.57c3.82,-1.67 7.44,-5.74 8.45,2.1c1.09,8.51 6.8,6.6 11.67,4.81c4.347,-1.897 8.554,-4.099 12.59,-6.59c4.57,-2.575 9.918,-3.42 15.06,-2.38c3.75,1.2 14,14.88 22.18,10.15c4.1,-2.37 5.31,-5 5.2,-10.85c-0.11,-5.85 -4.93,-1.24 -6.41,-0.75l0.02,0Zm-89.22,-11.78c0.829,-1.358 2.462,-2.015 4,-1.61c1.66,0.41 1.37,2.73 0.76,4.06c-0.61,1.33 -8.83,2.92 -8.83,2.92c0,0 2.84,-3.77 4.11,-5.38l-0.04,0.01Zm-28.67,-8.87c-2.75,-1.77 -8.7,-1.39 -13.19,0.9c-4.098,2.449 -7.414,6.016 -9.56,10.28c-2.71,2.71 -4.59,5.73 -5.89,7c-3.502,3.512 -7.98,5.892 -12.85,6.83c-1.63,0.6 -6.09,1.38 -6.65,-2.78c-0.123,-1.301 -0.004,-2.613 0.35,-3.87c0.13,-0.54 0.42,-4.19 0.79,-5.55c0.44,-1.64 0.86,-3.06 1.06,-3.88c2.678,-9.218 6.466,-18.076 11.28,-26.38c10.78,-0.44 23.69,-1.11 26.57,-2.1c1.956,-0.5 3.606,-1.815 4.53,-3.61c0.3,-0.69 -0.46,-1.09 -1.64,-1l-9.35,1c-1.6,0.18 -8.79,0.6 -16.4,0.94c3.08,-4.416 6.511,-8.576 10.26,-12.44c5.19,-6.17 0.75,-6.93 -4.84,-1.53c-4.89,4.72 -9.08,9 -13.73,13.79c-4.94,0 -9.9,-0.3 -11.32,-0.33c-5.3,-0.12 -8.81,0 -14,-0.09c-5.19,-0.09 -2.35,7.14 1.25,7.09c4.409,0.072 8.818,-0.142 13.2,-0.64c1.15,-0.12 2.86,-0.18 5.29,-0.23c-5.19,5.27 -7.36,8.36 -13.93,14.32c-6.57,5.96 -16.29,16.07 -19.6,19.21c-4.91,4.781 -10.388,8.942 -16.31,12.39c-2,0.74 -8.37,1.76 -6.31,-6.65c0.6,-2.41 3.83,-13.26 5,-20.66c0.46,-3 -0.8,-7 -7.17,-6.94c-6,0.09 -11.84,5.89 -16,8.74c-2,1.39 -15.4,13.23 -17.39,14.48c-1.99,1.25 -6.88,5.35 -6.77,3.84c0.205,-1.185 0.659,-2.313 1.33,-3.31c2.82,-4.14 5.68,-8.26 8.39,-12.47c5.49,-8.52 4,-13 -7,-12.71c-8,0.2 -15.63,1.65 -21.72,-8c-4.13,-6.52 -11.32,-2.83 -14.89,4.48c-0.596,0.893 -0.941,1.929 -1,3c0.383,0.791 1.015,1.434 1.8,1.83c2.83,3 6.18,8.61 0.77,14.73c-4.47,4.51 -13.61,12.27 -14.54,13c-1.405,1.177 -3.404,1.361 -5,0.46c-1.8,-1.3 8.32,-16.62 9.28,-18c0.96,-1.38 6.86,-6.84 4.84,-8.57c-2.02,-1.73 -7.68,3.83 -8.49,4.79c-0.81,0.96 -9.78,15.05 -10.57,16.35c-0.79,1.3 -12.16,14.57 -8,17.36c4.16,2.79 20.36,-9.24 19.33,-8.5c-1.03,0.74 14.84,-12 16.52,-13.7c2.608,-2.224 4.24,-5.386 4.54,-8.8c3.662,-2.583 8.128,-3.775 12.59,-3.36c4.72,0.16 10.43,-2.81 13.41,2.56c1.64,3 -0.3,5.2 -2.08,7.55c-1,1.36 -8.79,15.13 -8.55,19.14c-0.007,0.097 -0.01,0.195 -0.01,0.292c0,2.337 1.923,4.26 4.26,4.26c0.775,0 1.536,-0.212 2.2,-0.612c1.57,-0.88 10.44,-9.25 12.6,-11.22c4.17,-3.8 1,-0.9 10,-9.2c5.52,-5.09 18.7,-9.91 17.88,-1.59c-0.68,6.91 -3.55,17.09 -3.5,20.29c-0.105,2.277 0.95,4.459 2.8,5.79c5.43,2.84 14.21,-3.61 17.89,-6.87c4,-3.53 4.7,-4.76 7.9,-7.74c2.79,-2.59 5.73,-6.12 8.16,-8.22c3.86,-3.34 19.21,-18 21.74,-18c0,0.65 -2.25,5.46 -3.1,8c-1.35,4 -2.41,6.73 -3.09,9.08c-0.11,0.4 -0.22,0.83 -0.33,1.24c0,0.11 -0.06,0.23 -0.09,0.34c-1.65,5.63 -2.772,11.402 -3.35,17.24c0.276,2.547 1.799,4.797 4.06,6c1.331,0.528 2.785,0.663 4.19,0.39c1.038,0.045 2.077,-0.022 3.1,-0.2c3.892,-1.279 7.492,-3.318 10.59,-6c4,-3.53 5.33,-4.79 8.54,-7.77c2.37,-2.22 4.44,-4.36 6.55,-6.61c-0.19,9.77 12.16,9.83 12.16,9.83c-0.404,2.805 -1.566,5.447 -3.36,7.64c-1.794,2.193 -20.87,22.83 -24.46,28.61c-5.107,9.39 -8.982,19.399 -11.53,29.78c-1.23,6.31 2.48,7 4.3,6.64c1.82,-0.36 3.51,-3.82 4.89,-7.73c2.41,-6.79 29.8,-52.9 31.9,-57c2.1,-4.1 6.79,-10.31 11.07,-19.17c4.88,-9.66 1.17,-15.76 -1.59,-17.53l-0.01,0.08Zm-4.12,13.29c-0.931,2.782 -2.908,5.096 -5.51,6.45c-2,0.62 -3,-1 -4.56,-1.34c-3.53,-0.86 -3.34,-2.14 -3,-4.44c0.34,-2.3 6.24,-6.23 6.24,-6.23c4.37,-3.64 7.74,2.57 6.79,5.56l0.04,0Z" style="fill:rgb(47,48,56);fill-rule:nonzero;"/>    </g></svg>