<?xml version="1.0" encoding="UTF-8" standalone="no"?><!DOCTYPE svg PUBLIC "-//W3C//DTD SVG 1.1//EN" "http://www.w3.org/Graphics/SVG/1.1/DTD/svg11.dtd"><svg width="100%" height="100%" viewBox="0 0 1024 512" version="1.1" xmlns="http://www.w3.org/2000/svg" xmlns:xlink="http://www.w3.org/1999/xlink" xml:space="preserve" style="fill-rule:evenodd;clip-rule:evenodd;stroke-linejoin:round;stroke-miterlimit:2;"><title>SFS</title><desc>Swiss Finance Startups (SFS) is a non-profit organisation run and organized by the ventures in- volved. The association wants to foster the common Swiss startup spirit, support the exchange of ideas as well as industry know-how, and help to educate the outside, non-startup world about the brilliant ventures. Startups, as well as supporters are admitted to the association.</desc>    <g transform="matrix(1,0,0,1,-193.5,-132.17)">        <g transform="matrix(1.82394,0,0,1.68654,-178.469,-22.6711)">            <g transform="matrix(59.1789,0,0,64,298,241.384)">                <path d="M0.447,-0.524c-0.015,-0.019 -0.034,-0.033 -0.057,-0.044c-0.024,-0.011 -0.047,-0.017 -0.069,-0.017c-0.011,0 -0.023,0.001 -0.034,0.003c-0.012,0.002 -0.023,0.006 -0.032,0.012c-0.009,0.005 -0.017,0.013 -0.023,0.022c-0.007,0.009 -0.01,0.02 -0.01,0.034c0,0.012 0.003,0.022 0.008,0.03c0.005,0.008 0.012,0.015 0.021,0.021c0.01,0.006 0.022,0.011 0.035,0.016c0.013,0.005 0.028,0.011 0.045,0.016c0.024,0.008 0.049,0.017 0.075,0.026c0.026,0.01 0.05,0.023 0.071,0.039c0.021,0.016 0.039,0.036 0.053,0.059c0.014,0.024 0.021,0.054 0.021,0.089c0,0.041 -0.008,0.076 -0.023,0.105c-0.015,0.03 -0.035,0.055 -0.06,0.074c-0.025,0.019 -0.054,0.034 -0.087,0.043c-0.033,0.009 -0.066,0.014 -0.101,0.014c-0.051,0 -0.1,-0.009 -0.147,-0.027c-0.047,-0.017 -0.087,-0.042 -0.118,-0.075l0.112,-0.114c0.017,0.021 0.04,0.039 0.068,0.053c0.029,0.015 0.057,0.022 0.085,0.022c0.013,0 0.025,-0.001 0.037,-0.004c0.012,-0.003 0.022,-0.007 0.032,-0.013c0.009,-0.006 0.016,-0.014 0.021,-0.024c0.005,-0.01 0.008,-0.022 0.008,-0.036c0,-0.013 -0.003,-0.025 -0.01,-0.034c-0.007,-0.009 -0.016,-0.018 -0.028,-0.026c-0.013,-0.007 -0.028,-0.014 -0.046,-0.021c-0.019,-0.006 -0.04,-0.013 -0.063,-0.02c-0.023,-0.007 -0.045,-0.016 -0.066,-0.026c-0.022,-0.01 -0.041,-0.023 -0.058,-0.038c-0.017,-0.016 -0.031,-0.035 -0.041,-0.057c-0.011,-0.023 -0.016,-0.05 -0.016,-0.082c0,-0.039 0.008,-0.073 0.024,-0.101c0.016,-0.028 0.037,-0.051 0.063,-0.069c0.026,-0.018 0.055,-0.031 0.088,-0.04c0.033,-0.008 0.066,-0.012 0.099,-0.012c0.04,0 0.081,0.007 0.123,0.022c0.041,0.015 0.078,0.036 0.109,0.065l-0.109,0.115Z" style="fill:rgb(59,59,59);fill-rule:nonzero;"/>            </g>            <g transform="matrix(59.1789,0,0,64,332.975,241.384)">                <path d="M0.729,0l-0.169,0l-0.049,-0.182l-0.077,0.182l-0.17,0l-0.264,-0.708l0.184,0l0.162,0.471l0.125,-0.471l0.21,0l-0.101,0.282l0.063,0.189l0.157,-0.471l0.194,0l-0.265,0.708Z" style="fill:rgb(59,59,59);fill-rule:nonzero;"/>            </g>            <g transform="matrix(59.1789,0,0,64,393.633,241.384)">                <rect x="0.073" y="-0.708" width="0.172" height="0.708" style="fill:rgb(59,59,59);fill-rule:nonzero;"/>            </g>            <g transform="matrix(59.1789,0,0,64,412.452,241.384)">                <path d="M0.447,-0.524c-0.015,-0.019 -0.034,-0.033 -0.057,-0.044c-0.024,-0.011 -0.047,-0.017 -0.069,-0.017c-0.011,0 -0.023,0.001 -0.034,0.003c-0.012,0.002 -0.023,0.006 -0.032,0.012c-0.009,0.005 -0.017,0.013 -0.023,0.022c-0.007,0.009 -0.01,0.02 -0.01,0.034c0,0.012 0.003,0.022 0.008,0.03c0.005,0.008 0.012,0.015 0.021,0.021c0.01,0.006 0.022,0.011 0.035,0.016c0.013,0.005 0.028,0.011 0.045,0.016c0.024,0.008 0.049,0.017 0.075,0.026c0.026,0.01 0.05,0.023 0.071,0.039c0.021,0.016 0.039,0.036 0.053,0.059c0.014,0.024 0.021,0.054 0.021,0.089c0,0.041 -0.008,0.076 -0.023,0.105c-0.015,0.03 -0.035,0.055 -0.06,0.074c-0.025,0.019 -0.054,0.034 -0.087,0.043c-0.033,0.009 -0.066,0.014 -0.101,0.014c-0.051,0 -0.1,-0.009 -0.147,-0.027c-0.047,-0.017 -0.087,-0.042 -0.118,-0.075l0.112,-0.114c0.017,0.021 0.04,0.039 0.068,0.053c0.029,0.015 0.057,0.022 0.085,0.022c0.013,0 0.025,-0.001 0.037,-0.004c0.012,-0.003 0.022,-0.007 0.032,-0.013c0.009,-0.006 0.016,-0.014 0.021,-0.024c0.005,-0.01 0.008,-0.022 0.008,-0.036c0,-0.013 -0.003,-0.025 -0.01,-0.034c-0.007,-0.009 -0.016,-0.018 -0.028,-0.026c-0.013,-0.007 -0.028,-0.014 -0.046,-0.021c-0.019,-0.006 -0.04,-0.013 -0.063,-0.02c-0.023,-0.007 -0.045,-0.016 -0.066,-0.026c-0.022,-0.01 -0.041,-0.023 -0.058,-0.038c-0.017,-0.016 -0.031,-0.035 -0.041,-0.057c-0.011,-0.023 -0.016,-0.05 -0.016,-0.082c0,-0.039 0.008,-0.073 0.024,-0.101c0.016,-0.028 0.037,-0.051 0.063,-0.069c0.026,-0.018 0.055,-0.031 0.088,-0.04c0.033,-0.008 0.066,-0.012 0.099,-0.012c0.04,0 0.081,0.007 0.123,0.022c0.041,0.015 0.078,0.036 0.109,0.065l-0.109,0.115Z" style="fill:rgb(59,59,59);fill-rule:nonzero;"/>            </g>            <g transform="matrix(59.1789,0,0,64,447.427,241.384)">                <path d="M0.447,-0.524c-0.015,-0.019 -0.034,-0.033 -0.057,-0.044c-0.024,-0.011 -0.047,-0.017 -0.069,-0.017c-0.011,0 -0.023,0.001 -0.034,0.003c-0.012,0.002 -0.023,0.006 -0.032,0.012c-0.009,0.005 -0.017,0.013 -0.023,0.022c-0.007,0.009 -0.01,0.02 -0.01,0.034c0,0.012 0.003,0.022 0.008,0.03c0.005,0.008 0.012,0.015 0.021,0.021c0.01,0.006 0.022,0.011 0.035,0.016c0.013,0.005 0.028,0.011 0.045,0.016c0.024,0.008 0.049,0.017 0.075,0.026c0.026,0.01 0.05,0.023 0.071,0.039c0.021,0.016 0.039,0.036 0.053,0.059c0.014,0.024 0.021,0.054 0.021,0.089c0,0.041 -0.008,0.076 -0.023,0.105c-0.015,0.03 -0.035,0.055 -0.06,0.074c-0.025,0.019 -0.054,0.034 -0.087,0.043c-0.033,0.009 -0.066,0.014 -0.101,0.014c-0.051,0 -0.1,-0.009 -0.147,-0.027c-0.047,-0.017 -0.087,-0.042 -0.118,-0.075l0.112,-0.114c0.017,0.021 0.04,0.039 0.068,0.053c0.029,0.015 0.057,0.022 0.085,0.022c0.013,0 0.025,-0.001 0.037,-0.004c0.012,-0.003 0.022,-0.007 0.032,-0.013c0.009,-0.006 0.016,-0.014 0.021,-0.024c0.005,-0.01 0.008,-0.022 0.008,-0.036c0,-0.013 -0.003,-0.025 -0.01,-0.034c-0.007,-0.009 -0.016,-0.018 -0.028,-0.026c-0.013,-0.007 -0.028,-0.014 -0.046,-0.021c-0.019,-0.006 -0.04,-0.013 -0.063,-0.02c-0.023,-0.007 -0.045,-0.016 -0.066,-0.026c-0.022,-0.01 -0.041,-0.023 -0.058,-0.038c-0.017,-0.016 -0.031,-0.035 -0.041,-0.057c-0.011,-0.023 -0.016,-0.05 -0.016,-0.082c0,-0.039 0.008,-0.073 0.024,-0.101c0.016,-0.028 0.037,-0.051 0.063,-0.069c0.026,-0.018 0.055,-0.031 0.088,-0.04c0.033,-0.008 0.066,-0.012 0.099,-0.012c0.04,0 0.081,0.007 0.123,0.022c0.041,0.015 0.078,0.036 0.109,0.065l-0.109,0.115Z" style="fill:rgb(59,59,59);fill-rule:nonzero;"/>            </g>            <g transform="matrix(59.1789,0,0,64,501.82,241.384)">                <path d="M0.242,-0.562l0,0.146l0.274,0l0,0.141l-0.274,0l0,0.275l-0.169,0l0,-0.708l0.466,0l0,0.146l-0.297,0Z" style="fill:rgb(59,59,59);fill-rule:nonzero;"/>            </g>            <g transform="matrix(59.1789,0,0,64,536.831,241.384)">                <rect x="0.073" y="-0.708" width="0.172" height="0.708" style="fill:rgb(59,59,59);fill-rule:nonzero;"/>            </g>            <g transform="matrix(59.1789,0,0,64,557.5,241.384)">                <path d="M0.523,0l-0.285,-0.463l-0.003,0l0.004,0.463l-0.166,0l0,-0.708l0.195,0l0.284,0.462l0.003,0l-0.004,-0.462l0.166,0l0,0.708l-0.194,0Z" style="fill:rgb(59,59,59);fill-rule:nonzero;"/>            </g>            <g transform="matrix(59.1789,0,0,64,603.326,241.384)">                <path d="M0.522,0l-0.055,-0.139l-0.243,0l-0.052,0.139l-0.186,0l0.297,-0.708l0.135,0l0.294,0.708l-0.19,0Zm-0.175,-0.519l-0.074,0.243l0.147,0l-0.073,-0.243Z" style="fill:rgb(59,59,59);fill-rule:nonzero;"/>            </g>            <g transform="matrix(59.1789,0,0,64,644.618,241.384)">                <path d="M0.523,0l-0.285,-0.463l-0.003,0l0.004,0.463l-0.166,0l0,-0.708l0.195,0l0.284,0.462l0.003,0l-0.004,-0.462l0.166,0l0,0.708l-0.194,0Z" style="fill:rgb(59,59,59);fill-rule:nonzero;"/>            </g>            <g transform="matrix(59.1789,0,0,64,689.52,241.384)">                <path d="M0.696,-0.098c-0.031,0.036 -0.07,0.065 -0.116,0.086c-0.046,0.02 -0.099,0.031 -0.159,0.031c-0.055,0 -0.105,-0.009 -0.152,-0.027c-0.046,-0.018 -0.086,-0.044 -0.12,-0.077c-0.034,-0.033 -0.061,-0.072 -0.08,-0.118c-0.019,-0.046 -0.029,-0.097 -0.029,-0.152c0,-0.057 0.01,-0.108 0.029,-0.154c0.02,-0.046 0.047,-0.085 0.082,-0.118c0.035,-0.032 0.075,-0.057 0.122,-0.074c0.047,-0.017 0.097,-0.026 0.151,-0.026c0.05,0 0.099,0.009 0.147,0.026c0.049,0.018 0.088,0.044 0.118,0.078l-0.116,0.116c-0.016,-0.022 -0.037,-0.038 -0.063,-0.049c-0.026,-0.011 -0.053,-0.016 -0.08,-0.016c-0.03,0 -0.057,0.006 -0.082,0.017c-0.025,0.01 -0.047,0.026 -0.065,0.045c-0.018,0.019 -0.032,0.042 -0.042,0.069c-0.01,0.026 -0.015,0.055 -0.015,0.086c0,0.032 0.005,0.061 0.015,0.088c0.01,0.027 0.024,0.049 0.042,0.069c0.017,0.019 0.038,0.033 0.063,0.044c0.025,0.011 0.052,0.016 0.081,0.016c0.034,0 0.064,-0.007 0.089,-0.02c0.025,-0.013 0.046,-0.031 0.061,-0.052l0.119,0.112Z" style="fill:rgb(59,59,59);fill-rule:nonzero;"/>            </g>            <g transform="matrix(59.1789,0,0,64,730.709,241.384)">                <path d="M0.073,0l0,-0.708l0.476,0l0,0.145l-0.311,0l0,0.133l0.294,0l0,0.137l-0.294,0l0,0.147l0.329,0l0,0.146l-0.494,0Z" style="fill:rgb(59,59,59);fill-rule:nonzero;"/>            </g>        </g>        <g transform="matrix(1.46544,0,0,1.35505,-70.909,159.813)">            <g transform="matrix(44.3842,0,0,48,298,229.288)">                <path d="M0.437,-0.594c-0.015,-0.021 -0.035,-0.038 -0.059,-0.051c-0.024,-0.013 -0.053,-0.02 -0.087,-0.02c-0.017,0 -0.035,0.003 -0.053,0.008c-0.018,0.005 -0.034,0.013 -0.049,0.024c-0.015,0.011 -0.026,0.025 -0.036,0.042c-0.009,0.017 -0.013,0.036 -0.013,0.059c0,0.023 0.004,0.041 0.013,0.056c0.009,0.015 0.02,0.027 0.035,0.037c0.014,0.011 0.03,0.019 0.049,0.026c0.018,0.007 0.037,0.013 0.057,0.02c0.025,0.008 0.049,0.017 0.075,0.026c0.025,0.009 0.047,0.021 0.067,0.036c0.02,0.015 0.036,0.034 0.049,0.057c0.013,0.023 0.019,0.053 0.019,0.088c0,0.035 -0.007,0.066 -0.021,0.091c-0.013,0.026 -0.031,0.047 -0.052,0.064c-0.022,0.017 -0.047,0.029 -0.075,0.037c-0.027,0.008 -0.055,0.012 -0.083,0.012c-0.021,0 -0.043,-0.002 -0.064,-0.007c-0.021,-0.004 -0.042,-0.01 -0.061,-0.019c-0.019,-0.009 -0.037,-0.02 -0.054,-0.033c-0.017,-0.013 -0.031,-0.029 -0.044,-0.046l0.062,-0.046c0.015,0.025 0.037,0.046 0.065,0.063c0.027,0.017 0.06,0.026 0.097,0.026c0.018,0 0.036,-0.003 0.055,-0.009c0.019,-0.005 0.035,-0.014 0.05,-0.026c0.016,-0.011 0.028,-0.026 0.037,-0.043c0.01,-0.017 0.015,-0.036 0.015,-0.059c0,-0.025 -0.005,-0.045 -0.015,-0.062c-0.009,-0.016 -0.022,-0.03 -0.038,-0.041c-0.016,-0.011 -0.034,-0.02 -0.055,-0.027c-0.021,-0.007 -0.042,-0.015 -0.065,-0.022c-0.023,-0.007 -0.046,-0.016 -0.069,-0.025c-0.023,-0.009 -0.043,-0.022 -0.061,-0.037c-0.018,-0.015 -0.032,-0.033 -0.043,-0.055c-0.011,-0.022 -0.017,-0.049 -0.017,-0.081c0,-0.034 0.007,-0.063 0.021,-0.088c0.013,-0.025 0.031,-0.045 0.053,-0.061c0.022,-0.016 0.046,-0.028 0.073,-0.035c0.027,-0.007 0.053,-0.011 0.079,-0.011c0.048,0 0.089,0.009 0.123,0.025c0.034,0.017 0.06,0.038 0.077,0.061l-0.057,0.046Z" style="fill:rgb(59,59,59);fill-rule:nonzero;"/>            </g>            <g transform="matrix(44.3842,0,0,48,334.903,229.288)">                <path d="M0.321,0l-0.072,0l0,-0.644l-0.237,0l0,-0.064l0.546,0l0,0.064l-0.237,0l0,0.644Z" style="fill:rgb(59,59,59);fill-rule:nonzero;"/>            </g>            <g transform="matrix(44.3842,0,0,48,369.518,229.288)">                <path d="M0.089,0l-0.079,0l0.306,-0.708l0.07,0l0.304,0.708l-0.08,0l-0.078,-0.186l-0.366,0l-0.077,0.186Zm0.104,-0.252l0.312,0l-0.156,-0.376l-0.156,0.376Z" style="fill:rgb(59,59,59);fill-rule:nonzero;"/>            </g>            <g transform="matrix(44.3842,0,0,48,414.127,229.288)">                <path d="M0.166,0l-0.072,0l0,-0.708l0.208,0c0.035,0 0.067,0.003 0.096,0.01c0.03,0.007 0.082,0.017 0.103,0.032c0.022,0.015 0.112,0.035 0.112,0.217c0,0.155 -0.13,0.188 -0.152,0.198c-0.022,0.009 -0.072,0.015 -0.098,0.018l0.207,0.233l-0.088,0l-0.196,-0.227l-0.12,0l0,0.227Zm0,-0.289l0.125,0c0.058,0 0.129,-0.011 0.16,-0.032c0.031,-0.021 0.084,-0.024 0.084,-0.128c0,-0.13 -0.071,-0.158 -0.086,-0.168c-0.015,-0.01 -0.06,-0.017 -0.082,-0.022c-0.022,-0.005 -0.046,-0.007 -0.073,-0.007l-0.128,0l0,0.357Z" style="fill:rgb(59,59,59);fill-rule:nonzero;"/>            </g>            <g transform="matrix(44.3842,0,0,48,455.745,229.288)">                <path d="M0.321,0l-0.072,0l0,-0.644l-0.237,0l0,-0.064l0.546,0l0,0.064l-0.237,0l0,0.644Z" style="fill:rgb(59,59,59);fill-rule:nonzero;"/>            </g>            <g transform="matrix(44.3842,0,0,48,493.715,229.288)">                <path d="M0.355,0.018c-0.053,0 -0.097,-0.009 -0.131,-0.028c-0.034,-0.018 -0.061,-0.041 -0.081,-0.069c-0.02,-0.028 -0.034,-0.058 -0.041,-0.092c-0.008,-0.033 -0.012,-0.064 -0.012,-0.093l0,-0.444l0.072,0l0,0.436c0,0.029 0.003,0.056 0.01,0.083c0.007,0.027 0.018,0.051 0.033,0.072c0.015,0.021 0.034,0.038 0.059,0.051c0.025,0.013 0.055,0.02 0.091,0.02c0.036,0 0.066,-0.007 0.091,-0.02c0.025,-0.013 0.045,-0.03 0.06,-0.051c0.015,-0.021 0.025,-0.045 0.032,-0.072c0.007,-0.027 0.01,-0.054 0.01,-0.083l0,-0.436l0.072,0l0,0.444c0,0.029 -0.004,0.06 -0.012,0.093c-0.007,0.033 -0.021,0.064 -0.041,0.092c-0.02,0.028 -0.047,0.051 -0.082,0.069c-0.034,0.019 -0.077,0.028 -0.13,0.028Z" style="fill:rgb(59,59,59);fill-rule:nonzero;"/>            </g>            <g transform="matrix(44.3842,0,0,48,539.572,229.288)">                <path d="M0.094,-0.708l0.2,0c0.036,0 0.069,0.004 0.098,0.011c0.029,0.008 0.08,0.02 0.101,0.035c0.021,0.016 0.094,0.057 0.094,0.239c0,0.078 -0.052,0.155 -0.196,0.186c-0.031,0.006 -0.063,0.012 -0.099,0.012l-0.126,0l0,0.225l-0.072,0l0,-0.708Zm0.072,0.422l0.122,0c0.057,0 0.126,-0.011 0.155,-0.033c0.029,-0.022 0.066,-0.052 0.066,-0.149c0,-0.085 -0.037,-0.127 -0.068,-0.148c-0.03,-0.02 -0.098,-0.03 -0.153,-0.03l-0.122,0l0,0.36Z" style="fill:rgb(59,59,59);fill-rule:nonzero;"/>            </g>            <g transform="matrix(44.3842,0,0,48,579.504,229.288)">                <path d="M0.437,-0.594c-0.015,-0.021 -0.035,-0.038 -0.059,-0.051c-0.024,-0.013 -0.053,-0.02 -0.087,-0.02c-0.017,0 -0.035,0.003 -0.053,0.008c-0.018,0.005 -0.034,0.013 -0.049,0.024c-0.015,0.011 -0.026,0.025 -0.036,0.042c-0.009,0.017 -0.013,0.036 -0.013,0.059c0,0.023 0.004,0.041 0.013,0.056c0.009,0.015 0.02,0.027 0.035,0.037c0.014,0.011 0.03,0.019 0.049,0.026c0.018,0.007 0.037,0.013 0.057,0.02c0.025,0.008 0.049,0.017 0.075,0.026c0.025,0.009 0.047,0.021 0.067,0.036c0.02,0.015 0.036,0.034 0.049,0.057c0.013,0.023 0.019,0.053 0.019,0.088c0,0.035 -0.007,0.066 -0.021,0.091c-0.013,0.026 -0.031,0.047 -0.052,0.064c-0.022,0.017 -0.047,0.029 -0.075,0.037c-0.027,0.008 -0.055,0.012 -0.083,0.012c-0.021,0 -0.043,-0.002 -0.064,-0.007c-0.021,-0.004 -0.042,-0.01 -0.061,-0.019c-0.019,-0.009 -0.037,-0.02 -0.054,-0.033c-0.017,-0.013 -0.031,-0.029 -0.044,-0.046l0.062,-0.046c0.015,0.025 0.037,0.046 0.065,0.063c0.027,0.017 0.06,0.026 0.097,0.026c0.018,0 0.036,-0.003 0.055,-0.009c0.019,-0.005 0.035,-0.014 0.05,-0.026c0.016,-0.011 0.028,-0.026 0.037,-0.043c0.01,-0.017 0.015,-0.036 0.015,-0.059c0,-0.025 -0.005,-0.045 -0.015,-0.062c-0.009,-0.016 -0.022,-0.03 -0.038,-0.041c-0.016,-0.011 -0.034,-0.02 -0.055,-0.027c-0.021,-0.007 -0.042,-0.015 -0.065,-0.022c-0.023,-0.007 -0.046,-0.016 -0.069,-0.025c-0.023,-0.009 -0.043,-0.022 -0.061,-0.037c-0.018,-0.015 -0.032,-0.033 -0.043,-0.055c-0.011,-0.022 -0.017,-0.049 -0.017,-0.081c0,-0.034 0.007,-0.063 0.021,-0.088c0.013,-0.025 0.031,-0.045 0.053,-0.061c0.022,-0.016 0.046,-0.028 0.073,-0.035c0.027,-0.007 0.053,-0.011 0.079,-0.011c0.048,0 0.089,0.009 0.123,0.025c0.034,0.017 0.06,0.038 0.077,0.061l-0.057,0.046Z" style="fill:rgb(59,59,59);fill-rule:nonzero;"/>            </g>        </g>        <g transform="matrix(1.68654,0,0,1.68654,-134.219,-208.022)">            <g transform="matrix(1.01449,0,0,1.01,-4.35507,-4.04)">                <path d="M266,370.202l0,33.798l-56.692,0c5.064,-1.328 10.839,-3.576 17.28,-6.87c2.555,-1.292 5.22,-2.756 7.981,-4.407c1.891,-1.101 3.825,-2.297 5.802,-3.574c10.726,-6.926 19.218,-13.077 25.629,-18.947Z" style="fill:rgb(239,35,34);"/>            </g>            <g transform="matrix(1.01449,0,0,1.01,-4.35507,-4.04)">                <path d="M236.908,346.308c-15.828,9.355 -30.333,20.581 -39.908,30.186l0,-72.494l69,0l0,28.27c-9.652,3.508 -19.596,8.432 -29.092,14.038Z" style="fill:rgb(239,35,34);"/>            </g>            <path d="M204.5,319.5l8.5,0l0,-8.5l8,0l0,8.5l8.5,0l0,8l-8.5,0l0,8.5l-8,0l0,-8.5l-8.5,0l0,-8Z" style="fill:white;"/>        </g>    </g></svg>