<?xml version="1.0" encoding="UTF-8" standalone="no"?><!DOCTYPE svg PUBLIC "-//W3C//DTD SVG 1.1//EN" "http://www.w3.org/Graphics/SVG/1.1/DTD/svg11.dtd"><svg width="100%" height="100%" viewBox="0 0 1024 512" version="1.1" xmlns="http://www.w3.org/2000/svg" xmlns:xlink="http://www.w3.org/1999/xlink" xml:space="preserve" style="fill-rule:evenodd;clip-rule:evenodd;stroke-linejoin:round;stroke-miterlimit:2;"><title>Capital Cell ES</title><desc>We are Capital Cell, the first online investment platform in Europe specialized in Health and Biotechnology, one of the most profitable sectors in the world.</desc>    <g transform="matrix(9.84623,0,0,9.84623,-4089.71,-13355)">        <g transform="matrix(2.66667,0,0,2.66667,-0.24,770.341)">            <path d="M171.782,230.4c0,0.106 -0.004,0.212 0.002,0.318l0.036,0.167c0.108,0.219 0.266,0.392 0.483,0.508c0.339,0.181 0.718,0.124 0.991,-0.148c0.379,-0.379 0.441,-1.008 0.133,-1.444c-0.398,-0.564 -1.117,-0.561 -1.543,-0.011c-0.073,0.094 -0.111,0.203 -0.103,0.325c0.006,0.094 0.001,0.191 0.001,0.285Zm-0.003,1.229l0,0.976c-0.203,0.058 -0.407,0.023 -0.623,0.014l0,-3.719l0.545,0l0,0.087c-0.005,0.124 -0.014,0.25 -0.011,0.373l0.059,0.007c0.475,-0.669 1.398,-0.756 2.017,-0.184c0.358,0.331 0.526,0.749 0.532,1.232c0.005,0.454 -0.115,0.87 -0.427,1.214c-0.559,0.617 -1.49,0.581 -1.992,-0.075l-0.1,-0.108l0,0.183" style="fill:rgb(52,43,127);"/>        </g>        <g transform="matrix(2.66667,0,0,2.66667,-0.24,767.005)">            <path d="M167.366,229.899c-0.179,0.121 -0.35,0.235 -0.526,0.352l-0.055,-0.09c-0.24,-0.448 -0.726,-0.624 -1.183,-0.574c-0.452,0.049 -0.769,0.299 -0.98,0.691c-0.328,0.609 -0.252,1.42 0.172,1.93c0.644,0.774 1.701,0.529 2.05,-0.176l0.035,-0.048c0.181,0.104 0.362,0.209 0.549,0.314c-0.076,0.186 -0.184,0.333 -0.32,0.462c-0.622,0.587 -1.845,0.863 -2.74,-0.076c-0.79,-0.829 -0.858,-2.117 -0.143,-2.99c0.466,-0.569 1.081,-0.792 1.808,-0.71c0.505,0.056 0.912,0.294 1.208,0.708l0.125,0.207" style="fill:rgb(52,43,127);"/>        </g>        <g transform="matrix(2.66667,0,0,2.66667,-0.24,766.891)">            <path d="M185.451,229.81c-0.741,0.538 -0.79,1.584 -0.434,2.201c0.206,0.36 0.496,0.616 0.916,0.695c0.501,0.092 1.004,-0.135 1.263,-0.572l0.06,-0.109c0.187,0.105 0.368,0.209 0.556,0.316c-0.081,0.195 -0.195,0.349 -0.342,0.482c-0.602,0.549 -1.731,0.795 -2.591,0.028c-0.914,-0.817 -1.029,-2.236 -0.231,-3.159c0.463,-0.536 1.065,-0.742 1.765,-0.666c0.463,0.051 0.847,0.255 1.143,0.617c0.072,0.088 0.129,0.19 0.199,0.294c-0.183,0.124 -0.353,0.238 -0.518,0.349c-0.103,-0.134 -0.198,-0.257 -0.294,-0.382l-0.118,-0.123c-0.101,-0.054 -0.21,-0.096 -0.318,-0.137c-0.274,-0.103 -0.55,-0.065 -0.821,0.018l-0.235,0.148" style="fill:rgb(52,43,127);"/>        </g>        <g transform="matrix(2.66667,0,0,2.66667,-0.24,768.608)">            <path d="M190.593,230.839c0.008,-0.494 -0.439,-0.895 -0.965,-0.89c-0.4,0.003 -0.894,0.337 -0.888,0.89l1.853,0Zm-0.08,0.909c0.183,0.052 0.36,0.103 0.55,0.157l-0.053,0.119c-0.136,0.229 -0.329,0.401 -0.568,0.515c-0.479,0.23 -0.971,0.248 -1.458,0.042c-0.727,-0.307 -1.016,-1.029 -0.944,-1.661c0.07,-0.614 0.368,-1.084 0.947,-1.326c1.082,-0.457 2.328,0.239 2.279,1.552l-0.018,0.158l-2.487,0c-0.02,0.373 0.26,0.755 0.632,0.875c0.428,0.141 0.837,-0.014 1.12,-0.431" style="fill:rgb(52,43,127);"/>        </g>        <g transform="matrix(2.66667,0,0,2.66667,-0.24,769.44)">            <path d="M169.777,230.95c-0.337,-0.132 -0.678,-0.183 -1.026,-0.101c-0.115,0.027 -0.229,0.085 -0.324,0.155c-0.165,0.122 -0.21,0.3 -0.157,0.496c0.058,0.215 0.207,0.351 0.417,0.39c0.348,0.067 0.754,-0.01 1.028,-0.377l0.059,-0.159c0.008,-0.132 0.003,-0.265 0.003,-0.404Zm0.009,-0.415c-0.011,-0.13 -0.011,-0.264 -0.036,-0.392c-0.052,-0.274 -0.229,-0.436 -0.495,-0.496c-0.295,-0.069 -0.579,-0.015 -0.848,0.113c-0.133,0.063 -0.26,0.137 -0.399,0.211c-0.065,-0.137 -0.13,-0.27 -0.198,-0.409c0.194,-0.148 0.409,-0.248 0.636,-0.32c0.343,-0.108 0.694,-0.134 1.049,-0.053c0.601,0.138 0.935,0.547 0.945,1.164c0.005,0.355 0,0.71 0,1.065l0.001,0.127c-0.006,0.128 0.037,0.218 0.182,0.238l0,0.549c-0.176,0.055 -0.35,0.069 -0.523,-0.003c-0.194,-0.082 -0.22,-0.264 -0.234,-0.471l-0.136,0.133c-0.412,0.372 -0.887,0.513 -1.424,0.35c-0.491,-0.147 -0.765,-0.63 -0.661,-1.118c0.051,-0.242 0.191,-0.421 0.393,-0.556c0.207,-0.137 0.439,-0.207 0.685,-0.229c0.314,-0.028 0.624,-0.003 0.926,0.089l0.093,0.021l0.044,-0.013" style="fill:rgb(53,43,127);"/>        </g>        <g transform="matrix(2.66667,0,0,2.66667,-0.24,769.475)">            <path d="M180.072,230.95l-0.045,-0.032c-0.293,-0.111 -0.596,-0.141 -0.904,-0.106c-0.137,0.018 -0.266,0.069 -0.378,0.154c-0.169,0.126 -0.24,0.318 -0.183,0.519c0.062,0.218 0.213,0.362 0.432,0.396c0.404,0.063 0.756,-0.043 1.013,-0.38l0.062,-0.175c0.009,-0.126 0.003,-0.254 0.003,-0.376Zm-1.971,-1.404c0.29,-0.202 0.598,-0.332 0.936,-0.388c0.301,-0.05 0.601,-0.038 0.894,0.056c0.46,0.148 0.723,0.465 0.781,0.941c0.027,0.22 0.019,0.444 0.023,0.666c0.003,0.228 0.003,0.455 0,0.684c-0.004,0.134 0.023,0.243 0.179,0.268l0,0.548c-0.182,0.051 -0.357,0.067 -0.53,-0.011c-0.185,-0.083 -0.206,-0.26 -0.227,-0.459l-0.139,0.134c-0.415,0.369 -0.892,0.506 -1.427,0.341c-0.501,-0.156 -0.773,-0.665 -0.644,-1.155c0.059,-0.228 0.199,-0.395 0.392,-0.521c0.209,-0.134 0.44,-0.204 0.686,-0.225c0.314,-0.028 0.623,-0.001 0.926,0.091l0.078,0.018l0.034,-0.006c0.02,-0.152 0.014,-0.303 -0.029,-0.451c-0.081,-0.286 -0.325,-0.456 -0.663,-0.471c-0.261,-0.012 -0.504,0.051 -0.734,0.17c-0.108,0.055 -0.212,0.118 -0.332,0.183c-0.067,-0.136 -0.133,-0.271 -0.204,-0.413" style="fill:rgb(53,43,127);"/>        </g>        <g transform="matrix(2.66667,0,0,2.66667,-0.24,766.627)">            <path d="M177.566,230.756l-0.642,0l-0.016,0.141c-0.002,0.531 -0.002,1.06 0,1.589c0,0.252 0.113,0.366 0.363,0.345c0.135,-0.011 0.267,-0.061 0.419,-0.099l0.068,0.237c0.023,0.081 0.045,0.162 0.071,0.261c-0.188,0.097 -0.384,0.169 -0.593,0.198c-0.173,0.026 -0.348,0.031 -0.518,-0.022c-0.27,-0.084 -0.431,-0.26 -0.466,-0.543l-0.013,-0.222l0,-1.864c-0.138,-0.006 -0.264,-0.015 -0.389,-0.021l0,-0.472l0.412,0l0,-0.362c0,-0.186 -0.001,-0.37 0,-0.557l0.071,-0.121c0.189,-0.002 0.379,-0.036 0.566,0.023c0.002,0.327 0.006,0.653 0.009,0.98l0.138,0.035c0.168,0.004 0.335,0.002 0.52,0.002l0,0.472" style="fill:rgb(52,43,127);"/>        </g>        <g transform="matrix(2.66667,0,0,2.66667,-0.24,766.243)">            <path d="M194.68,232.933c0.029,0.162 0.059,0.333 0.093,0.515c-0.32,0.12 -0.636,0.192 -0.965,0.106c-0.255,-0.068 -0.402,-0.244 -0.446,-0.504l-0.015,-0.189c-0.001,-1.191 -0.001,-2.382 -0.001,-3.572l0.006,-0.118l0.655,0l0,0.164c0,1.057 0,2.117 0.001,3.174l0.026,0.252c0.033,0.137 0.135,0.218 0.276,0.217c0.114,-0.002 0.229,-0.027 0.37,-0.045" style="fill:rgb(53,43,128);"/>        </g>        <g transform="matrix(2.66667,0,0,2.66667,-0.24,766.245)">            <path d="M182.747,232.936l0.019,0.064c0.027,0.146 0.051,0.29 0.079,0.447c-0.323,0.121 -0.644,0.193 -0.98,0.1c-0.236,-0.065 -0.374,-0.231 -0.422,-0.469l-0.023,-0.251c-0.001,-1.175 -0.001,-2.35 -0.001,-3.524l0.006,-0.133l0.653,0l0.006,0.162c0,1.069 0,2.138 0.002,3.207l0.028,0.235c0.037,0.127 0.132,0.207 0.268,0.203c0.115,-0.002 0.229,-0.026 0.365,-0.041" style="fill:rgb(52,43,127);"/>        </g>        <g transform="matrix(2.66667,0,0,2.66667,-0.24,766.096)">            <path d="M193.007,232.972c0.032,0.174 0.062,0.339 0.094,0.512c-0.098,0.08 -0.219,0.103 -0.335,0.117c-0.173,0.021 -0.349,0.041 -0.521,0.028c-0.277,-0.019 -0.479,-0.208 -0.54,-0.48l-0.024,-0.251c-0.002,-1.176 -0.002,-2.351 -0.002,-3.526l0,-0.148l0.662,0l0.004,0.165l0,3.239c-0.016,0.295 0.135,0.469 0.502,0.392l0.16,-0.048" style="fill:rgb(52,42,126);"/>        </g>        <g transform="matrix(2.66667,0,0,2.66667,-0.24,769.307)">            <path d="M175.372,232.388l-0.605,0l-0.009,-0.116c-0.001,-0.947 -0.001,-1.897 0,-2.844l0.008,-0.079l0.068,-0.061c0.178,-0.014 0.356,-0.011 0.531,-0.002l0.011,0.101c-0.002,1 -0.002,2.001 -0.004,3.001" style="fill:rgb(48,40,126);"/>        </g>        <g transform="matrix(2.665,0.0943362,0.0943362,-2.665,-21.9376,1983.5)">            <path d="M175.091,232.761c-0.189,-0.005 -0.344,0.15 -0.344,0.34c0,0.194 0.147,0.337 0.344,0.338c0.185,0.001 0.334,-0.145 0.339,-0.33c0.005,-0.188 -0.148,-0.345 -0.339,-0.348" style="fill:rgb(56,45,126);"/>        </g>        <g transform="matrix(2.66667,0,0,2.66667,-0.24,764.288)">            <path d="M158.83,235.1c-0.785,-0.015 -1.458,-0.225 -2.052,-0.667c-0.245,-0.182 -0.455,-0.397 -0.612,-0.661c-0.117,-0.194 -0.186,-0.407 -0.217,-0.629c-0.018,-0.117 -0.027,-0.236 -0.022,-0.355c0.01,-0.268 0.042,-0.532 0.117,-0.792c0.176,-0.605 0.424,-1.181 0.699,-1.746c0.141,-0.292 0.291,-0.581 0.445,-0.867c0.111,-0.21 0.241,-0.406 0.408,-0.578c0.148,-0.153 0.32,-0.267 0.528,-0.319c0.148,-0.038 0.298,-0.042 0.448,-0.028c0.269,0.027 0.523,0.114 0.776,0.209c0.43,0.162 0.855,0.34 1.271,0.537l0.05,0.025l0.038,0.084l-0.078,0.039l-0.15,-0.023c-0.239,-0.039 -0.478,-0.034 -0.719,-0.002c-0.392,0.054 -0.726,0.23 -1.025,0.482c-0.31,0.263 -0.554,0.581 -0.767,0.924c-0.228,0.371 -0.421,0.759 -0.578,1.165c-0.107,0.275 -0.159,0.561 -0.142,0.856c0.022,0.409 0.17,0.766 0.457,1.063c0.279,0.29 0.624,0.456 1.017,0.534c0.173,0.034 0.348,0.05 0.526,0.046c0.322,-0.008 0.626,-0.087 0.917,-0.225l0.111,-0.056l0.116,0.025l-0.003,0.114c-0.182,0.23 -0.381,0.445 -0.636,0.6c-0.192,0.115 -0.4,0.19 -0.623,0.218c-0.115,0.014 -0.231,0.021 -0.3,0.027" style="fill:rgb(77,178,139);"/>        </g>        <g transform="matrix(2.66667,0,0,2.66667,-0.24,764.795)">            <path d="M160.089,229.312c0.3,0.003 0.578,0.05 0.851,0.124c0.377,0.102 0.736,0.246 1.07,0.449c0.194,0.119 0.373,0.254 0.52,0.429c0.108,0.131 0.19,0.275 0.221,0.443c0.033,0.184 0.005,0.36 -0.067,0.53c-0.075,0.179 -0.181,0.341 -0.301,0.493c-0.246,0.313 -0.52,0.599 -0.809,0.872c-0.308,0.289 -0.623,0.572 -0.964,0.823c-0.221,0.162 -0.451,0.306 -0.708,0.403c-0.357,0.133 -0.721,0.164 -1.097,0.095c-0.261,-0.046 -0.503,-0.134 -0.723,-0.283c-0.177,-0.123 -0.324,-0.275 -0.433,-0.46l-0.014,-0.065l0.063,0.026c0.183,0.16 0.396,0.254 0.635,0.293c0.337,0.055 0.658,-0.009 0.968,-0.14c0.266,-0.112 0.505,-0.268 0.73,-0.443c0.338,-0.265 0.644,-0.56 0.897,-0.907c0.133,-0.18 0.246,-0.37 0.315,-0.582c0.074,-0.221 0.088,-0.443 0.013,-0.665c-0.069,-0.202 -0.192,-0.363 -0.353,-0.501c-0.232,-0.197 -0.502,-0.319 -0.795,-0.393c-0.215,-0.054 -0.434,-0.072 -0.653,-0.054c-0.243,0.02 -0.473,0.087 -0.688,0.202l-0.04,0.018l-0.05,-0.015l-0.003,-0.056l0.017,-0.022c0.214,-0.212 0.452,-0.39 0.736,-0.5c0.218,-0.085 0.446,-0.113 0.662,-0.114" style="fill:rgb(49,41,128);"/>        </g>        <g transform="matrix(2.66667,0,0,2.66667,-0.24,764.616)">            <path d="M159.474,233.113l-0.041,0.03c-0.223,0.125 -0.458,0.215 -0.714,0.244c-0.221,0.027 -0.436,0.008 -0.641,-0.083c-0.305,-0.135 -0.493,-0.366 -0.561,-0.693c-0.045,-0.213 -0.025,-0.423 0.027,-0.631c0.1,-0.404 0.294,-0.762 0.544,-1.092c0.161,-0.212 0.346,-0.401 0.565,-0.553c0.322,-0.224 0.678,-0.328 1.069,-0.299c0.268,0.018 0.522,0.09 0.761,0.213l0.04,0.022l0.025,0.062l-0.061,0.024l-0.103,-0.024c-0.341,-0.073 -0.669,-0.037 -0.987,0.105c-0.388,0.174 -0.687,0.453 -0.921,0.804c-0.15,0.223 -0.266,0.462 -0.324,0.727c-0.04,0.195 -0.043,0.387 0.019,0.578c0.09,0.283 0.279,0.468 0.561,0.555c0.22,0.068 0.44,0.06 0.662,0.007l0.08,0.004" style="fill:rgb(79,178,139);"/>        </g>        <g transform="matrix(2.66667,0,0,2.66667,-0.24,764.84)">            <path d="M159.095,230.873c-0.113,0.055 -0.223,0.115 -0.323,0.193l-0.046,0.012l-0.018,-0.045l0.021,-0.026c0.225,-0.237 0.485,-0.421 0.799,-0.521c0.364,-0.117 0.725,-0.102 1.078,0.05c0.148,0.064 0.279,0.156 0.377,0.286c0.152,0.205 0.176,0.43 0.091,0.668c-0.052,0.144 -0.13,0.271 -0.223,0.39c-0.326,0.416 -0.723,0.741 -1.211,0.949c-0.174,0.074 -0.355,0.121 -0.543,0.139l-0.186,0l0.088,-0.091c0.288,-0.096 0.519,-0.271 0.689,-0.52l0.098,-0.195l0.04,-0.06c0.137,-0.132 0.256,-0.274 0.338,-0.448c0.056,-0.121 0.092,-0.247 0.07,-0.382l-0.045,-0.161l-0.073,-0.104l-0.005,-0.005l-0.015,-0.017l-0.007,-0.007l-0.075,-0.061l-0.004,0l-0.001,-0.002l-0.091,-0.053l-0.025,-0.022c-0.097,-0.042 -0.202,-0.06 -0.309,-0.067c-0.126,-0.012 -0.248,0.015 -0.368,0.049l-0.121,0.051" style="fill:rgb(50,41,127);"/>        </g>        <g transform="matrix(2.66667,0,0,2.66667,-0.24,767.701)">            <path d="M159.314,230.578l0.198,0.038c0.16,0.068 0.232,0.207 0.187,0.375l-0.068,0.16c-0.154,0.249 -0.369,0.423 -0.648,0.514l-0.238,0.021c-0.149,-0.026 -0.238,-0.12 -0.245,-0.272l0.014,-0.15c0.094,-0.321 0.294,-0.543 0.611,-0.656l0.116,-0.025l0.073,-0.005" style="fill:rgb(50,41,127);"/>        </g>    </g></svg>