<?xml version="1.0" encoding="UTF-8" standalone="no"?><!DOCTYPE svg PUBLIC "-//W3C//DTD SVG 1.1//EN" "http://www.w3.org/Graphics/SVG/1.1/DTD/svg11.dtd"><svg width="100%" height="100%" viewBox="0 0 1024 512" version="1.1" xmlns="http://www.w3.org/2000/svg" xmlns:xlink="http://www.w3.org/1999/xlink" xml:space="preserve" style="fill-rule:evenodd;clip-rule:evenodd;stroke-linejoin:round;stroke-miterlimit:2;"><title>MiiMOSA</title><desc>Founded in 2015, present in France and Belgium, MiiMOSA is the European leader in crowdfunding on agricultural and food topics. To revolutionize the financing of this theme, 4 financing offers have been developed and 2 platforms: MiiMOSA (local agriculture and food) and MiiMOSA transition (agricultural, food and energy transition).</desc>    <g transform="matrix(5.16329,0,0,5.16329,2,141.019)">        <g id="type" transform="matrix(1,0,0,1,57,11)">            <g id="Fill-1" transform="matrix(1,0,0,1,73.6839,0.413994)">                <path d="M17.999,11.31c0,3.659 -2.622,6.648 -6.403,6.648c-3.782,0 -6.465,-3.05 -6.465,-6.709l0,-0.061c0,-3.659 2.623,-6.647 6.404,-6.647c3.782,0 6.464,3.049 6.464,6.708l0,0.061Zm-6.403,-11.099c-6.587,0 -11.374,4.971 -11.374,11.038l0,0.061c0,6.068 4.727,10.977 11.313,10.977c6.587,0 11.374,-4.97 11.374,-11.038l0,-0.061c0,-6.067 -4.727,-10.977 -11.313,-10.977Z" style="fill:rgb(60,181,145);fill-rule:nonzero;"/>            </g>            <path id="Fill-4" d="M109.589,9.577c-3.702,-0.949 -4.62,-1.408 -4.62,-2.815l0,-0.061c0,-1.04 0.948,-1.866 2.754,-1.866c1.468,0 2.936,0.519 4.497,1.438c0.367,0.214 0.734,0.336 1.193,0.336c1.224,0 2.203,-0.948 2.203,-2.172c0,-0.917 -0.521,-1.56 -1.04,-1.866c-1.928,-1.224 -4.192,-1.896 -6.793,-1.896c-4.374,0 -7.494,2.569 -7.494,6.455l0,0.06c0,4.253 2.783,5.446 7.097,6.548c3.58,0.917 4.314,1.529 4.314,2.722l0,0.062c0,1.254 -1.163,2.019 -3.09,2.019c-2.08,0 -3.855,-0.734 -5.476,-1.928c-0.306,-0.214 -0.735,-0.428 -1.347,-0.428c-1.223,0 -2.202,0.948 -2.202,2.171c0,0.735 0.367,1.409 0.887,1.776c2.386,1.713 5.231,2.569 8.046,2.569c4.62,0 7.863,-2.386 7.863,-6.638l0,-0.062c0,-3.733 -2.448,-5.293 -6.792,-6.424" style="fill:rgb(60,181,145);"/>            <path id="Fill-6" d="M126.83,13.516l2.989,-7.173l2.99,7.173l-5.979,0Zm13.443,5.959l-0.799,-1.804l-1.841,-4.155l-4.856,-10.967c-0.218,-0.488 -0.515,-0.889 -0.877,-1.198c-0.504,-0.431 -1.137,-0.676 -1.888,-0.676l-0.255,0c-0.798,0 -1.467,0.272 -1.986,0.756c-0.318,0.297 -0.579,0.673 -0.778,1.118l-4.857,10.967l-1.839,4.155l-0.8,1.804c-0.154,0.338 -0.276,0.676 -0.276,1.014c0,1.229 0.952,2.212 2.181,2.212c0.983,0 1.782,-0.553 2.18,-1.475l1.506,-3.533l0.01,-0.022l9.443,0l0.01,0.022l1.505,3.533c0.399,0.922 1.329,1.475 2.312,1.475c1.228,0 2.18,-0.983 2.18,-2.212c0,-0.338 -0.122,-0.676 -0.275,-1.014Z" style="fill:rgb(60,181,145);fill-rule:nonzero;"/>            <path id="Fill-8" d="M69.348,2.62c-0.009,-0.056 -0.022,-0.111 -0.035,-0.165c-0.048,-0.189 -0.116,-0.369 -0.206,-0.537c-0.003,-0.007 -0.007,-0.014 -0.011,-0.02c-0.101,-0.185 -0.228,-0.355 -0.374,-0.505c-0.015,-0.016 -0.031,-0.033 -0.047,-0.048c-0.04,-0.039 -0.082,-0.077 -0.125,-0.113c-0.065,-0.054 -0.131,-0.108 -0.202,-0.155c-0.004,-0.002 -0.008,-0.005 -0.012,-0.006c-0.087,-0.058 -0.179,-0.111 -0.274,-0.156c-0.075,-0.037 -0.153,-0.069 -0.233,-0.098c-0.005,-0.002 -0.009,-0.004 -0.013,-0.005c-0.073,-0.026 -0.148,-0.048 -0.224,-0.067c-0.012,-0.002 -0.023,-0.006 -0.035,-0.009c-0.07,-0.016 -0.14,-0.028 -0.212,-0.037c-0.017,-0.002 -0.034,-0.006 -0.051,-0.009c-0.086,-0.009 -0.173,-0.015 -0.263,-0.015c-0.005,0 -0.01,0.001 -0.016,0.001c-0.006,0 -0.011,-0.001 -0.017,-0.001l-0.527,0c-0.769,0 -1.363,0.298 -1.794,0.748c-0.144,0.149 -0.27,0.316 -0.378,0.493l-5.767,9.385l-5.773,-9.385c-0.109,-0.177 -0.234,-0.344 -0.377,-0.493c-0.432,-0.45 -1.026,-0.748 -1.794,-0.748l-0.527,0c-0.007,0 -0.012,0.001 -0.018,0.001c-0.005,0 -0.011,-0.001 -0.016,-0.001c-0.089,0 -0.177,0.006 -0.264,0.015c-0.017,0.003 -0.033,0.007 -0.05,0.009c-0.071,0.009 -0.142,0.021 -0.211,0.037c-0.012,0.003 -0.025,0.007 -0.036,0.009c-0.076,0.019 -0.151,0.041 -0.223,0.067c-0.005,0.001 -0.01,0.003 -0.014,0.005c-0.08,0.029 -0.157,0.061 -0.233,0.098c-0.095,0.045 -0.186,0.098 -0.274,0.156c-0.004,0.001 -0.008,0.004 -0.012,0.006c-0.071,0.047 -0.137,0.101 -0.202,0.155c-0.043,0.036 -0.085,0.074 -0.125,0.113c-0.016,0.015 -0.031,0.032 -0.046,0.048c-0.147,0.15 -0.273,0.32 -0.376,0.505c-0.003,0.006 -0.006,0.013 -0.01,0.02c-0.09,0.168 -0.158,0.348 -0.206,0.537c-0.013,0.054 -0.026,0.109 -0.036,0.165c-0.006,0.037 -0.012,0.073 -0.016,0.111c-0.013,0.098 -0.022,0.198 -0.022,0.299l0,17.316c0,1.301 1.055,2.355 2.356,2.355c1.3,0 2.355,-1.054 2.355,-2.355l0,-10.728l3.69,5.688l0.41,0.632c0.427,0.64 0.946,1.072 1.636,1.181c0.035,0.004 0.071,0.009 0.107,0.012c0.037,0.004 0.074,0.006 0.111,0.008c0.072,0.004 0.144,0.007 0.218,0.007c0.024,0 0.048,0 0.073,-0.001c0.849,-0.013 1.46,-0.473 1.949,-1.207l0.415,-0.64l3.686,-5.68l0,10.728c0,1.301 1.054,2.355 2.354,2.355c1.301,0 2.356,-1.054 2.356,-2.355l0,-17.281l0,-0.035c0,-0.101 -0.01,-0.201 -0.022,-0.299c-0.004,-0.038 -0.009,-0.074 -0.017,-0.111" style="fill:rgb(60,181,145);"/>            <g id="Fill-10" transform="matrix(1,0,0,1,26.8355,7.69141)">                <path d="M2.693,0.106c-1.332,0 -2.384,1.053 -2.384,2.384l0,10.136c0,1.331 1.052,2.384 2.384,2.384c1.331,0 2.384,-1.053 2.384,-2.384l0,-10.136c0,-1.331 -1.053,-2.384 -2.384,-2.384" style="fill:rgb(60,181,145);"/>            </g>            <g id="Fill-13" transform="matrix(1,0,0,1,37.2968,7.69141)">                <path d="M2.655,0.106c-1.332,0 -2.384,1.053 -2.384,2.384l0,10.136c0,1.331 1.052,2.384 2.384,2.384c1.331,0 2.383,-1.053 2.383,-2.384l0,-10.136c0,-1.331 -1.052,-2.384 -2.383,-2.384" style="fill:rgb(60,181,145);"/>            </g>            <path id="Fill-16" d="M21.677,2.62c-0.009,-0.056 -0.022,-0.111 -0.036,-0.165c-0.047,-0.189 -0.116,-0.369 -0.205,-0.537c-0.004,-0.007 -0.007,-0.014 -0.012,-0.02c-0.101,-0.185 -0.228,-0.355 -0.374,-0.505c-0.015,-0.016 -0.03,-0.033 -0.046,-0.048c-0.04,-0.039 -0.083,-0.077 -0.125,-0.113c-0.065,-0.054 -0.132,-0.108 -0.202,-0.155c-0.004,-0.002 -0.008,-0.005 -0.013,-0.006c-0.087,-0.058 -0.178,-0.111 -0.273,-0.156c-0.076,-0.037 -0.154,-0.069 -0.234,-0.098c-0.004,-0.002 -0.008,-0.004 -0.013,-0.005c-0.073,-0.026 -0.147,-0.048 -0.223,-0.067c-0.012,-0.002 -0.024,-0.006 -0.036,-0.009c-0.069,-0.016 -0.14,-0.028 -0.211,-0.037c-0.017,-0.002 -0.034,-0.006 -0.052,-0.009c-0.085,-0.009 -0.173,-0.015 -0.262,-0.015c-0.005,0 -0.011,0.001 -0.016,0.001c-0.006,0 -0.012,-0.001 -0.018,-0.001l-0.527,0c-0.769,0 -1.362,0.298 -1.794,0.748c-0.143,0.149 -0.269,0.316 -0.377,0.493l-5.767,9.385l-5.773,-9.385c-0.109,-0.177 -0.234,-0.344 -0.378,-0.493c-0.432,-0.45 -1.026,-0.748 -1.794,-0.748l-0.527,0c-0.006,0 -0.012,0.001 -0.017,0.001c-0.006,0 -0.012,-0.001 -0.017,-0.001c-0.089,0 -0.177,0.006 -0.263,0.015c-0.017,0.003 -0.034,0.007 -0.05,0.009c-0.072,0.009 -0.142,0.021 -0.212,0.037c-0.012,0.003 -0.024,0.007 -0.036,0.009c-0.075,0.019 -0.15,0.041 -0.223,0.067c-0.004,0.001 -0.009,0.003 -0.013,0.005c-0.08,0.029 -0.158,0.061 -0.233,0.098c-0.096,0.045 -0.187,0.098 -0.275,0.156c-0.003,0.001 -0.008,0.004 -0.011,0.006c-0.071,0.047 -0.138,0.101 -0.202,0.155c-0.043,0.036 -0.085,0.074 -0.125,0.113c-0.017,0.015 -0.032,0.032 -0.047,0.048c-0.146,0.15 -0.273,0.32 -0.375,0.505c-0.003,0.006 -0.007,0.013 -0.011,0.02c-0.09,0.168 -0.158,0.348 -0.205,0.537c-0.013,0.054 -0.026,0.109 -0.036,0.165c-0.007,0.037 -0.012,0.073 -0.016,0.111c-0.013,0.098 -0.022,0.198 -0.022,0.299l0,17.316c0,1.301 1.055,2.355 2.355,2.355c1.301,0 2.355,-1.054 2.355,-2.355l0,-10.728l3.69,5.688l0.41,0.632c0.427,0.64 0.947,1.072 1.636,1.181c0.036,0.004 0.071,0.009 0.108,0.012c0.036,0.004 0.074,0.006 0.111,0.008c0.072,0.004 0.144,0.007 0.217,0.007c0.024,0 0.049,0 0.073,-0.001c0.85,-0.013 1.461,-0.473 1.95,-1.207l0.415,-0.64l3.685,-5.68l0,10.728c0,1.301 1.055,2.355 2.355,2.355c1.301,0 2.355,-1.054 2.355,-2.355l0,-17.281l0,-0.035c0,-0.101 -0.009,-0.201 -0.021,-0.299c-0.004,-0.038 -0.01,-0.074 -0.017,-0.111" style="fill:rgb(60,181,145);"/>            <path id="Fill-18" d="M42.555,3.033c0,1.425 -1.154,2.579 -2.578,2.579c-1.424,0 -2.579,-1.154 -2.579,-2.579c0,-1.424 1.155,-2.578 2.579,-2.578c1.424,0 2.578,1.154 2.578,2.578" style="fill:rgb(60,181,145);"/>            <path id="Fill-20" d="M32.102,3.345c0,1.424 -1.154,2.579 -2.578,2.579c-1.425,0 -2.579,-1.155 -2.579,-2.579c0,-1.424 1.154,-2.578 2.579,-2.578c1.424,0 2.578,1.154 2.578,2.578" style="fill:rgb(60,181,145);"/>        </g>        <path id="path-7" d="M32.332,15.063l0,15.65c0,1.178 -0.954,2.133 -2.132,2.133c-1.178,0 -2.133,-0.955 -2.133,-2.133l0,-9.714l-3.337,5.143l-0.376,0.58c-0.443,0.664 -0.996,1.081 -1.765,1.092c-0.022,0.001 -0.045,0.001 -0.067,0.002c-0.066,-0.001 -0.131,-0.004 -0.196,-0.007c-0.034,-0.002 -0.068,-0.004 -0.101,-0.007c-0.033,-0.003 -0.065,-0.008 -0.097,-0.012c-0.625,-0.098 -1.095,-0.489 -1.481,-1.068l-0.372,-0.573l-3.342,-5.15l0,9.714c0,1.178 -0.954,2.133 -2.132,2.133c-1.178,0 -2.133,-0.955 -2.133,-2.133l0,-15.65l0,-0.031c0,-0.092 0.008,-0.182 0.019,-0.271c0.004,-0.033 0.01,-0.067 0.015,-0.1c0.009,-0.051 0.021,-0.1 0.033,-0.15c0.043,-0.171 0.104,-0.334 0.186,-0.486c0.003,-0.006 0.007,-0.012 0.01,-0.018c0.092,-0.168 0.207,-0.321 0.339,-0.457c0.014,-0.015 0.028,-0.03 0.042,-0.043c0.037,-0.036 0.075,-0.071 0.114,-0.103c0.058,-0.049 0.118,-0.098 0.182,-0.14c0.004,-0.002 0.008,-0.005 0.011,-0.007c0.079,-0.051 0.162,-0.099 0.248,-0.14c0.069,-0.033 0.139,-0.063 0.211,-0.089c0.004,-0.002 0.009,-0.003 0.012,-0.005c0.066,-0.023 0.134,-0.043 0.203,-0.06c0.01,-0.002 0.021,-0.005 0.032,-0.008c0.063,-0.015 0.127,-0.025 0.191,-0.034c0.016,-0.002 0.031,-0.005 0.047,-0.008c0.078,-0.008 0.157,-0.013 0.238,-0.013c0.005,0 0.009,0 0.015,0.001c0.005,-0.001 0.01,-0.001 0.015,-0.001l0.478,0c0.696,0 1.233,0.269 1.624,0.676c0.13,0.136 0.244,0.286 0.342,0.447l5.228,8.499l5.222,-8.499c0.098,-0.161 0.212,-0.311 0.342,-0.447c0.391,-0.407 0.929,-0.676 1.625,-0.676l0.477,0c0.005,0 0.011,0 0.016,0.001c0.004,-0.001 0.01,-0.001 0.015,-0.001c0.08,0 0.16,0.005 0.237,0.013c0.016,0.003 0.031,0.006 0.047,0.008c0.064,0.009 0.129,0.019 0.191,0.034c0.011,0.003 0.021,0.006 0.032,0.008c0.069,0.017 0.137,0.037 0.203,0.06c0.004,0.002 0.008,0.003 0.012,0.005c0.072,0.026 0.142,0.056 0.211,0.089c0.086,0.041 0.169,0.089 0.248,0.14c0.004,0.002 0.007,0.005 0.011,0.007c0.064,0.042 0.124,0.091 0.183,0.14c0.039,0.032 0.077,0.067 0.113,0.103c0.014,0.013 0.028,0.028 0.042,0.043c0.133,0.136 0.247,0.289 0.339,0.457c0.004,0.006 0.007,0.012 0.01,0.018c0.082,0.152 0.144,0.315 0.187,0.486c0.012,0.05 0.023,0.099 0.032,0.15c0.006,0.033 0.011,0.067 0.015,0.1c0.011,0.089 0.019,0.179 0.019,0.271l0,0.031Zm10.768,3.671c0.642,-0.227 1.713,-0.026 1.762,-0.581c0.492,-0.401 -2.382,-1.111 -1.314,-2.047c-0.457,0.281 -0.923,0.536 -1.384,0.306c-0.165,-0.237 0.348,-0.849 0.485,-1.311c0.145,0.181 0.284,-0.33 0.022,-0.09c0.055,-0.293 -0.087,-0.505 -0.745,-0.477c0.111,-0.11 0.227,-0.18 0.349,-0.226c-0.526,-0.244 -1.133,-0.962 -2.026,-0.8c1.415,-0.829 0.781,-1.26 0.136,-1.542c-0.139,-0.065 -0.279,-0.121 -0.4,-0.183c0.041,-0.022 0.086,-0.051 0.13,-0.083l-0.369,-0.067c-0.215,-0.189 -0.152,-0.439 0.631,-0.917c-0.256,-0.329 -0.53,-0.64 -0.808,-0.947l0.272,-0.149c-0.046,-0.119 -0.103,-0.212 -0.171,-0.288l0.287,-0.026l0.729,-0.176c-0.341,0.055 -0.685,0.119 -1.025,0.19c-0.366,-0.402 -0.999,-0.222 -1.605,-0.019c0.05,-0.261 0.35,-0.34 0.483,-0.426c-0.208,-1.068 -0.414,-1.27 -1.524,-1.058c0.104,-0.27 0.192,-0.634 0.025,-0.518c-0.033,0.18 -0.048,0.352 -0.055,0.522c-0.076,0.016 -0.155,0.033 -0.238,0.051c-0.084,-0.03 -0.168,-0.058 -0.251,-0.085l0.481,-0.585c-0.532,0.248 -0.183,-2.298 -1.836,-2.11c0.075,-0.082 0.208,-0.219 0.366,-0.273c-0.855,0.069 -1.081,-0.912 -1.485,-1.598c-0.39,-0.687 -0.92,-1.043 -1.936,0.432c-0.047,0.016 -0.094,0.033 -0.142,0.051c-0.014,-0.143 -0.016,-0.317 0,-0.539c-0.167,0.363 -0.164,0.774 -0.546,0.357c-0.074,0.094 -0.19,0.201 -0.26,0.262l-0.021,-0.042l0.006,0.055c-0.047,0.041 -0.055,0.053 0.002,0.019c0.011,0.065 0.016,0.132 0.019,0.202c-0.057,0.022 -0.114,0.045 -0.167,0.069c0.067,0.058 0.117,0.117 0.153,0.177c-0.01,0.071 -0.024,0.141 -0.046,0.211c-0.229,0.246 -0.46,0.36 -0.686,0.42c0.513,-0.946 0.058,-1.122 -0.265,-1.378c0.146,-0.186 0.401,-0.802 0.366,-0.544c0.353,-0.539 -0.306,-0.137 -0.609,0.21c-0.027,-0.119 -0.015,-0.265 0.066,-0.462c-0.347,-0.115 -0.693,-0.255 -1.035,-0.407c-0.214,-0.345 -0.541,-0.524 -0.852,-0.4c-1.287,-0.63 -2.578,-1.317 -3.99,-1.454c0.043,0.385 0.081,0.767 0.115,1.153c-0.126,-0.118 -0.247,-0.188 -0.362,-0.226c-0.106,-0.183 -0.226,-0.333 -0.36,-0.384c0.05,-0.176 0.164,-0.294 0.374,-0.262c-0.153,-0.516 -0.452,-0.134 -0.655,0.304c-0.074,0.052 -0.152,0.14 -0.23,0.272c0.024,0.048 0.053,0.084 0.078,0.119c-0.017,0.056 -0.031,0.106 -0.041,0.152c-0.037,0.021 -0.077,0.041 -0.115,0.062c-0.774,-0.588 0.469,-1.62 0.188,-1.65l-0.425,0.111l0.098,0.169c-0.336,0.6 -0.342,1.202 -0.929,1.173c-0.006,-0.005 -0.013,-0.011 -0.017,-0.015l-0.067,-0.489c-0.055,0.032 -0.121,0.044 -0.19,0.041c-0.051,-0.224 -0.043,-0.433 -0.131,-0.46c-0.005,-0.102 -0.064,-0.146 -0.238,-0.026c-0.305,-0.014 -0.611,-0.017 -0.917,-0.023c0.038,0.081 0.074,0.161 0.108,0.241c-0.08,0.043 -0.142,0.132 -0.171,0.291c-0.638,-2.04 -2.293,-0.248 -3.113,-0.432l0.161,0.988c-0.542,0.054 -0.999,0.438 -1.518,1.006l0.271,0.832c-0.156,0.068 -0.327,0.113 -0.514,0.159c0.044,0.03 0.099,0.092 0.156,0.173c-0.153,0.029 -0.341,0 -0.541,-0.045c-0.394,-0.366 -0.768,-0.103 -1.303,-0.342c0.077,-0.01 0.178,0.019 0.273,0.079c-0.271,-0.221 -0.492,-0.326 -0.679,-0.344c-0.055,-0.049 -0.11,-0.103 -0.17,-0.164c0.048,0.057 0.082,0.109 0.106,0.159c-0.467,-0.002 -0.701,0.54 -0.946,1.032c-0.067,-0.064 -0.14,-0.12 -0.226,-0.168c-0.124,0.459 -0.42,0.716 -0.796,0.894c-0.052,-0.021 -0.102,-0.044 -0.159,-0.078c-0.007,0.064 -0.019,0.116 -0.033,0.159c-0.132,0.052 -0.272,0.098 -0.415,0.14c-0.018,-0.007 -0.037,-0.013 -0.056,-0.022c0.019,-0.012 0.028,-0.036 0.028,-0.069c-0.026,0.004 -0.057,0.021 -0.089,0.04c-0.17,-0.079 -0.355,-0.172 -0.53,-0.227c-0.67,-0.437 -1.648,-1.151 -1.125,-0.444l0.563,0.654c-0.012,0.022 -0.029,0.031 -0.039,0.057c-0.269,-0.087 -0.175,0.124 0.057,0.422c-0.295,0.147 -0.564,0.344 -0.766,0.641c0.139,0.167 0.399,0.323 0.608,0.559c-0.085,0.141 -0.243,0.187 -0.73,-0.27c0.058,0.131 0.074,0.255 0.066,0.381c-0.263,-0.108 -0.529,-0.213 -0.8,-0.315c-0.087,0.335 1.251,1.565 0.036,1.116c0.199,0.108 0.467,0.26 0.571,0.417c0.006,0.053 0.014,0.109 0.027,0.164c-0.417,0.117 -0.762,0.306 -1.061,0.545l-0.128,-0.11c0.022,0.053 0.047,0.104 0.069,0.158c-0.238,0.2 -0.445,0.433 -0.625,0.685c-0.122,-0.155 -0.233,-0.349 -0.345,-0.601c0.105,0.42 0.146,0.686 0.162,0.874c-0.299,0.478 -0.533,1.007 -0.756,1.515c-0.066,0.145 -0.129,0.285 -0.192,0.424c-0.961,0.163 -1.395,1.629 -2.379,2.624c-0.167,0.088 -0.345,0.176 -0.535,0.26c0.12,-0.024 0.216,-0.036 0.298,-0.041c-0.181,0.153 -0.378,0.29 -0.604,0.401c2.236,0.613 -1.248,0.308 0.385,1.046c-0.54,-0.112 -0.912,0.002 -1.256,-0.422c0.206,0.973 -1.264,0.982 0.016,1.981c-0.554,-0.053 -0.716,-0.398 -1.049,-0.401c0.091,0.101 0.378,0.396 0.039,0.399c-0.336,0.003 -0.406,-0.244 -0.593,-0.449c-0.173,0.931 1.472,1.404 2.98,1.811c-0.819,0.222 -0.762,0.475 0.207,0.94c-0.53,0.039 -1.106,0.194 -1.195,-0.344c-0.143,0.25 -1.015,1.671 0.248,1.821c-0.324,0.058 -0.123,0.385 0.016,0.468c-0.126,0.621 -0.221,0.677 -0.121,1.297l0.207,-0.168c1.513,0.252 0.338,0.493 0.536,0.982l-0.158,-0.009c-1.027,1.193 0.535,0.422 -0.597,1.656l0.932,-0.17c2.019,-0.174 -1.067,1.111 -0.164,1.652l0.286,-0.192c0.071,0.031 0.145,0.062 0.218,0.093c-0.462,0.455 -2.54,1.418 -2.646,1.814c-0.145,0.129 -0.311,-0.06 -0.468,-0.148c-0.875,1.342 1.235,-0.18 1.715,0.459c-0.6,0.329 -1.687,0.307 -1.646,0.861c-0.42,0.477 2.531,0.707 1.632,1.805c0.32,-0.277 0.645,-0.538 1.01,-0.564c-0.038,0.065 -0.066,0.132 -0.076,0.204l0.242,-0.197c0.046,0.005 0.092,0.014 0.138,0.028c0.351,0.359 -1.127,2.163 0.543,1.814c-0.091,0.126 -0.196,0.214 -0.305,0.28c0.439,0.122 0.975,0.522 1.6,0.541c-0.002,0.018 -0.003,0.037 -0.008,0.055l0.031,-0.048c0.082,0.047 0.166,0.094 0.25,0.14c-0.898,0.867 -0.257,1.153 0.374,1.312c0.015,0.005 0.031,0.01 0.045,0.013c-0.031,0.079 -0.067,0.162 -0.107,0.252c0.291,0.016 0.498,-0.022 0.666,-0.083c0.118,0.054 0.2,0.123 0.217,0.219l-0.121,-0.006l-0.749,0.504c0.279,-0.098 0.56,-0.204 0.837,-0.311c-0.069,0.155 -0.249,0.361 -0.575,0.647c0.305,0.28 0.626,0.543 0.951,0.801l-0.243,0.191c0.421,0.714 1.139,0.379 1.813,0.021c-0.006,0.267 -0.29,0.394 -0.407,0.501c0.041,0.109 0.08,0.21 0.118,0.299c-0.008,0.006 -0.016,0.007 -0.025,0.008c0.011,0.003 0.022,0.005 0.031,0.008c0.271,0.624 0.524,0.783 1.169,0.605c-0.014,0.119 -0.039,0.256 -0.079,0.418c0.226,-0.33 0.289,-0.735 0.597,-0.262c-0.103,0.093 -0.133,0.177 0.082,0.184l-0.077,0.134c0.484,-0.332 0.555,2.238 2.155,1.78c-0.062,0.093 -0.169,0.251 -0.316,0.33c0.833,-0.206 1.215,0.724 1.726,1.334c0.497,0.613 1.079,0.878 1.838,-0.743c0.351,-0.185 0.696,-0.401 1.024,-0.61c-0.069,-0.043 -0.123,-0.086 -0.164,-0.132c0.169,-0.01 0.336,-0.009 0.498,0.017c0.135,0.582 0.95,0.396 0.927,1.081c-0.193,0.053 -0.387,0.07 -0.579,-0.029c0.151,0.406 0.394,0.684 0.779,0.285c0.411,0.073 0.819,0.175 1.227,0.289l-0.006,0.201c0.461,-0.173 1.202,0.907 1.509,0.244c0.012,0.004 0.023,0.007 0.034,0.011c0.326,2.017 2.217,0.558 2.987,0.87l0.002,-0.382c0.061,-0.002 0.121,-0.002 0.182,-0.005c-0.055,-0.205 -0.112,-0.409 -0.167,-0.614c0.23,0.012 0.455,-0.036 0.685,-0.132c0.008,0.233 -0.075,0.426 -0.331,0.429c0.263,0.547 0.525,-0.063 0.638,-0.584c0.133,-0.075 0.267,-0.165 0.405,-0.266c0.372,0.539 -0.403,1.469 -0.158,1.454l0.4,-0.179l-0.123,-0.151c0.232,-0.645 0.139,-1.241 0.724,-1.308c0.428,0.198 0.392,0.823 0.551,0.844c0.023,0.099 0.085,0.133 0.24,-0.014c0.301,-0.036 0.604,-0.083 0.907,-0.127c-0.224,-0.33 -0.445,-0.661 -0.659,-0.996c0.044,-0.127 0.102,-0.211 0.159,-0.271c0.877,0.982 1.328,0.185 1.797,-0.457c0.401,-0.14 0.786,-0.351 1.103,-0.5c0.044,0.026 0.09,0.058 0.136,0.097c0.024,-0.085 0.052,-0.148 0.085,-0.195c0.111,-0.044 0.212,-0.073 0.295,-0.079c0.052,0.019 0.105,0.047 0.161,0.083c-0.021,0.009 -0.032,0.032 -0.038,0.064c0.028,0.001 0.061,-0.01 0.095,-0.023c0.156,0.104 0.321,0.227 0.487,0.311c0.589,0.54 1.439,1.402 1.035,0.622l-0.448,-0.739c0.016,-0.02 0.033,-0.026 0.049,-0.05c0.399,0.21 0.011,-0.496 -0.41,-1.09c0.044,-0.141 0.069,-0.302 0.074,-0.473c0.033,-0.016 0.066,-0.032 0.1,-0.048c0.717,0.969 0.318,-0.837 1.279,0.415c-0.059,-0.214 -0.017,-0.401 0.055,-0.589c0.304,-0.034 0.661,-0.038 1.191,0.356c-0.808,-0.692 1.133,-1.227 -0.454,-2.156c0.479,-0.132 0.659,0.738 1.339,0.971c0.033,-0.342 0.176,-0.594 0.379,-0.797c0.016,0.052 0.031,0.107 0.047,0.166c-0.005,-0.071 -0.009,-0.137 -0.013,-0.198c0.693,-0.65 2.05,-0.79 2.547,-1.856c-0.216,-0.188 -0.636,-0.322 -0.906,-0.67c0.093,-0.036 0.185,-0.082 0.275,-0.139c0.468,0.119 0.935,0.223 1.417,0.318c0.019,-0.216 -0.575,-0.689 -0.702,-0.95c0.056,-0.06 0.115,-0.12 0.17,-0.181c0.078,0 0.178,0.012 0.314,0.036c-0.08,-0.027 -0.169,-0.059 -0.259,-0.096c0.565,-0.613 1.199,-1.31 2.1,-1.584c-2.105,-0.971 1.28,-0.1 -0.21,-1.095c0.516,0.198 0.902,0.148 1.171,0.621c-0.042,-0.993 1.409,-0.762 0.309,-1.956c0.538,0.142 0.644,0.509 0.97,0.568c-0.072,-0.115 -0.309,-0.453 0.028,-0.401c0.332,0.053 0.357,0.308 0.511,0.54c0.317,-0.876 -1.173,-1.602 -2.577,-2.242c0.008,-0.015 0.014,-0.03 0.022,-0.043c0.563,-0.071 0.679,-0.238 0.344,-0.566c0.073,-0.104 0.155,-0.209 0.241,-0.311c0.232,0.055 0.398,0.175 0.398,0.462c0.131,-0.163 0.741,-0.868 0.603,-1.379c0.106,-0.077 0.214,-0.153 0.331,-0.23c-0.158,0.061 -0.284,0.094 -0.38,0.109c-0.063,-0.113 -0.177,-0.209 -0.352,-0.283c0,-0.034 0.005,-0.069 0.006,-0.106c0.018,-0.015 0.03,-0.034 0.038,-0.055c0.027,-0.069 0.018,-0.177 -0.053,-0.343c0.015,0.038 0.021,0.082 0.023,0.128c-0.028,-0.058 -0.066,-0.111 -0.103,-0.143c0.226,-0.591 0.329,-0.632 0.334,-1.26l-0.236,0.132c-0.238,-0.081 -0.402,-0.149 -0.515,-0.211c-0.012,-0.157 0.013,-0.317 -0.022,-0.456c0.105,-0.101 0.211,-0.22 0.173,-0.388l0.153,0.033c0.103,-0.086 0.185,-0.16 0.249,-0.226l0.993,-0.064l-0.802,-0.183c0.184,-0.387 -0.61,-0.254 0.42,-1.063l-0.948,0.016c-2.02,-0.159 1.235,-0.921 0.435,-1.604l-0.536,0.247c-0.699,-0.281 2.718,-1.121 2.928,-1.588c0.164,-0.104 0.298,0.111 0.439,0.224c1.082,-1.183 -1.249,-0.025 -1.616,-0.734Z" style="fill:rgb(60,181,145);fill-rule:nonzero;"/>    </g></svg>