<?xml version="1.0" encoding="UTF-8" standalone="no"?><!DOCTYPE svg PUBLIC "-//W3C//DTD SVG 1.1//EN" "http://www.w3.org/Graphics/SVG/1.1/DTD/svg11.dtd"><svg width="100%" height="100%" viewBox="0 0 1024 512" version="1.1" xmlns="http://www.w3.org/2000/svg" xmlns:xlink="http://www.w3.org/1999/xlink" xml:space="preserve" style="fill-rule:evenodd;clip-rule:evenodd;stroke-linejoin:round;stroke-miterlimit:2;"><title>KreditMatch</title><desc>KreditMatch is a direct P2B lending platform. Our platform consists of a network of creditworthy companies and financially strong investors who borrow and grant loans to each other.We offer small companies efficient and easy access to capital and KreditMatch's technology enables companies to get a flexible loan at lower interest rates than traditional banks while investors get access to a new asset class.</desc>    <g transform="matrix(2.26643,0,0,2.26643,-223.873,-427.827)">        <g transform="matrix(2.18424,0,0,2.18424,191.797,-138.753)">            <g transform="matrix(30,0,0,30,12.5108,212.145)">                <path d="M0.076,0l0.087,0l0,-0.257l0.064,-0.074l0.222,0.331l0.103,0l-0.263,-0.388l0.244,-0.286l-0.108,0l-0.206,0.253c-0.017,0.022 -0.035,0.046 -0.053,0.072l-0.003,0l0,-0.325l-0.087,0l0,0.674Z" style="fill:rgb(29,91,180);fill-rule:nonzero;"/>            </g>            <g transform="matrix(30,0,0,30,29.0708,212.145)">                <path d="M0.073,0l0.087,0l0,-0.258c0,-0.015 0.002,-0.029 0.004,-0.041c0.012,-0.066 0.056,-0.113 0.118,-0.113c0.012,0 0.021,0.001 0.03,0.003l0,-0.083c-0.008,-0.002 -0.015,-0.003 -0.025,-0.003c-0.059,0 -0.112,0.041 -0.134,0.106l-0.004,0l-0.003,-0.095l-0.077,0c0.003,0.045 0.004,0.094 0.004,0.151l0,0.333Z" style="fill:rgb(29,91,180);fill-rule:nonzero;"/>            </g>            <g transform="matrix(30,0,0,30,38.5808,212.145)">                <path d="M0.462,-0.226c0.001,-0.009 0.003,-0.023 0.003,-0.041c0,-0.089 -0.042,-0.228 -0.2,-0.228c-0.141,0 -0.227,0.115 -0.227,0.261c0,0.146 0.089,0.245 0.238,0.245c0.077,0 0.13,-0.017 0.161,-0.031l-0.015,-0.063c-0.033,0.014 -0.071,0.025 -0.134,0.025c-0.088,0 -0.164,-0.049 -0.166,-0.168l0.34,0Zm-0.339,-0.063c0.007,-0.061 0.046,-0.143 0.135,-0.143c0.099,0 0.123,0.087 0.122,0.143l-0.257,0Z" style="fill:rgb(29,91,180);fill-rule:nonzero;"/>            </g>            <g transform="matrix(30,0,0,30,53.6108,212.145)">                <path d="M0.403,-0.71l0,0.289l-0.002,0c-0.022,-0.039 -0.072,-0.074 -0.146,-0.074c-0.118,0 -0.218,0.099 -0.217,0.26c0,0.147 0.09,0.246 0.207,0.246c0.079,0 0.138,-0.041 0.165,-0.095l0.002,0l0.004,0.084l0.079,0c-0.003,-0.033 -0.004,-0.082 -0.004,-0.125l0,-0.585l-0.088,0Zm0,0.507c0,0.014 -0.001,0.026 -0.004,0.038c-0.016,0.066 -0.07,0.105 -0.129,0.105c-0.095,0 -0.143,-0.081 -0.143,-0.179c0,-0.107 0.054,-0.187 0.145,-0.187c0.066,0 0.114,0.046 0.127,0.102c0.003,0.011 0.004,0.026 0.004,0.037l0,0.084Z" style="fill:rgb(29,91,180);fill-rule:nonzero;"/>            </g>            <g transform="matrix(30,0,0,30,70.5308,212.145)">                <path d="M0.161,0l0,-0.484l-0.088,0l0,0.484l0.088,0Zm-0.044,-0.675c-0.032,0 -0.055,0.024 -0.055,0.055c0,0.03 0.022,0.054 0.053,0.054c0.035,0 0.057,-0.024 0.056,-0.054c0,-0.031 -0.021,-0.055 -0.054,-0.055Z" style="fill:rgb(29,91,180);fill-rule:nonzero;"/>            </g>            <g transform="matrix(30,0,0,30,77.5508,212.145)">                <path d="M0.093,-0.573l0,0.089l-0.075,0l0,0.067l0.075,0l0,0.264c0,0.057 0.009,0.1 0.034,0.126c0.021,0.024 0.054,0.038 0.095,0.038c0.034,0 0.061,-0.006 0.078,-0.013l-0.004,-0.066c-0.013,0.004 -0.027,0.006 -0.051,0.006c-0.049,0 -0.066,-0.034 -0.066,-0.094l0,-0.261l0.126,0l0,-0.067l-0.126,0l0,-0.116l-0.086,0.027Z" style="fill:rgb(29,91,180);fill-rule:nonzero;"/>            </g>            <g transform="matrix(30,0,0,30,87.4808,212.145)">                <path d="M0.661,0l0.085,0l-0.042,-0.674l-0.111,0l-0.12,0.326c-0.03,0.085 -0.054,0.159 -0.071,0.227l-0.003,0c-0.017,-0.07 -0.04,-0.144 -0.068,-0.227l-0.115,-0.326l-0.111,0l-0.047,0.674l0.083,0l0.018,-0.289c0.006,-0.101 0.011,-0.214 0.013,-0.298l0.002,0c0.019,0.08 0.046,0.167 0.078,0.262l0.109,0.321l0.066,0l0.119,-0.327c0.034,-0.092 0.062,-0.177 0.085,-0.256l0.003,0c-0.001,0.084 0.005,0.197 0.01,0.291l0.017,0.296Z" style="fill:rgb(68,148,213);fill-rule:nonzero;"/>            </g>            <g transform="matrix(30,0,0,30,111.781,212.145)">                <path d="M0.413,-0.297c0,-0.097 -0.036,-0.198 -0.184,-0.198c-0.061,0 -0.119,0.017 -0.159,0.043l0.02,0.058c0.034,-0.022 0.081,-0.036 0.126,-0.036c0.099,0 0.11,0.072 0.11,0.112l0,0.01c-0.187,-0.001 -0.291,0.063 -0.291,0.18c0,0.07 0.05,0.139 0.148,0.139c0.069,0 0.121,-0.034 0.148,-0.072l0.003,0l0.007,0.061l0.08,0c-0.006,-0.033 -0.008,-0.074 -0.008,-0.116l0,-0.181Zm-0.085,0.134c0,0.009 -0.002,0.019 -0.005,0.028c-0.014,0.041 -0.054,0.081 -0.117,0.081c-0.045,0 -0.083,-0.027 -0.083,-0.084c0,-0.094 0.109,-0.111 0.205,-0.109l0,0.084Z" style="fill:rgb(68,148,213);fill-rule:nonzero;"/>            </g>            <g transform="matrix(30,0,0,30,126.121,212.145)">                <path d="M0.093,-0.573l0,0.089l-0.075,0l0,0.067l0.075,0l0,0.264c0,0.057 0.009,0.1 0.034,0.126c0.021,0.024 0.054,0.038 0.095,0.038c0.034,0 0.061,-0.006 0.078,-0.013l-0.004,-0.066c-0.013,0.004 -0.027,0.006 -0.051,0.006c-0.049,0 -0.066,-0.034 -0.066,-0.094l0,-0.261l0.126,0l0,-0.067l-0.126,0l0,-0.116l-0.086,0.027Z" style="fill:rgb(68,148,213);fill-rule:nonzero;"/>            </g>            <g transform="matrix(30,0,0,30,135.871,212.145)">                <path d="M0.403,-0.084c-0.025,0.011 -0.058,0.024 -0.108,0.024c-0.096,0 -0.168,-0.069 -0.168,-0.181c0,-0.101 0.06,-0.183 0.171,-0.183c0.048,0 0.081,0.011 0.102,0.023l0.02,-0.068c-0.024,-0.012 -0.07,-0.025 -0.122,-0.025c-0.158,0 -0.26,0.108 -0.26,0.257c0,0.148 0.095,0.248 0.241,0.248c0.065,0 0.116,-0.017 0.139,-0.029l-0.015,-0.066Z" style="fill:rgb(68,148,213);fill-rule:nonzero;"/>            </g>            <g transform="matrix(30,0,0,30,149.311,212.145)">                <path d="M0.073,0l0.088,0l0,-0.292c0,-0.017 0.001,-0.03 0.006,-0.042c0.016,-0.048 0.061,-0.088 0.118,-0.088c0.083,0 0.112,0.066 0.112,0.144l0,0.278l0.088,0l0,-0.288c0,-0.167 -0.104,-0.207 -0.169,-0.207c-0.033,0 -0.064,0.01 -0.09,0.025c-0.027,0.015 -0.049,0.037 -0.063,0.062l-0.002,0l0,-0.302l-0.088,0l0,0.71Z" style="fill:rgb(68,148,213);fill-rule:nonzero;"/>            </g>        </g>        <g transform="matrix(1,0,0,1,51.7714,209.157)">            <g transform="matrix(1,0,0,1,-28.7203,0)">                <g transform="matrix(1,0,0,1,28.2851,0)">                    <path d="M60.816,80.181l15.591,-26.292l27.748,-16.085l10.41,11.985l-53.749,30.392Z" style="fill:rgb(68,149,215);"/>                </g>                <g transform="matrix(1,0,0,1,28.2851,0)">                    <path d="M60.816,80.181l11.84,12.268l15.034,-27.464l-26.874,15.196Z" style="fill:url(#_Linear1);"/>                </g>            </g>            <g transform="matrix(6.12323e-17,1,-1,6.12323e-17,194.984,-39.235)">                <g transform="matrix(1,0,0,1,28.2851,0)">                    <path d="M60.816,80.181l15.591,-26.292l27.748,-16.085l10.41,11.985l-53.749,30.392Z" style="fill:rgb(51,102,183);"/>                </g>                <g transform="matrix(1,0,0,1,28.2851,0)">                    <path d="M60.816,80.181l11.84,12.268l15.034,-27.464l-26.874,15.196Z" style="fill:url(#_Linear2);"/>                </g>            </g>            <g transform="matrix(6.12323e-17,-1,1,6.12323e-17,10.0853,223.979)">                <g transform="matrix(1,0,0,1,28.2851,0)">                    <path d="M60.816,80.181l15.591,-26.292l27.748,-16.085l10.41,11.985l-53.749,30.392Z" style="fill:rgb(51,102,183);"/>                </g>                <g transform="matrix(1,0,0,1,28.2851,0)">                    <path d="M60.816,80.181l11.84,12.268l15.034,-27.464l-26.874,15.196Z" style="fill:url(#_Linear3);"/>                </g>            </g>            <g transform="matrix(-1,1.22465e-16,-1.22465e-16,-1,234.393,185.127)">                <g transform="matrix(1,0,0,1,28.2851,0)">                    <path d="M60.816,80.181l15.591,-26.292l27.748,-16.085l10.41,11.985l-53.749,30.392Z" style="fill:rgb(68,149,215);"/>                </g>                <g transform="matrix(1,0,0,1,28.2851,0)">                    <path d="M60.816,80.181l11.84,12.268l15.034,-27.464l-26.874,15.196Z" style="fill:url(#_Linear4);"/>                </g>            </g>        </g>    </g>    <defs>        <linearGradient id="_Linear1" x1="0" y1="0" x2="1" y2="0" gradientUnits="userSpaceOnUse" gradientTransform="matrix(1.23913e-15,20.2366,-20.2366,1.23913e-15,74.2533,69.2949)"><stop offset="0" style="stop-color:rgb(6,84,131);stop-opacity:1"/><stop offset="1" style="stop-color:rgb(68,150,213);stop-opacity:1"/></linearGradient>        <linearGradient id="_Linear2" x1="0" y1="0" x2="1" y2="0" gradientUnits="userSpaceOnUse" gradientTransform="matrix(-23.2085,15.8952,-15.8952,-23.2085,86.6079,66.9624)"><stop offset="0" style="stop-color:rgb(32,65,123);stop-opacity:1"/><stop offset="1" style="stop-color:rgb(45,87,158);stop-opacity:1"/></linearGradient>        <linearGradient id="_Linear3" x1="0" y1="0" x2="1" y2="0" gradientUnits="userSpaceOnUse" gradientTransform="matrix(-23.2085,15.8952,-15.8952,-23.2085,86.6079,66.9624)"><stop offset="0" style="stop-color:rgb(32,65,123);stop-opacity:1"/><stop offset="1" style="stop-color:rgb(45,87,158);stop-opacity:1"/></linearGradient>        <linearGradient id="_Linear4" x1="0" y1="0" x2="1" y2="0" gradientUnits="userSpaceOnUse" gradientTransform="matrix(1.23913e-15,20.2366,-20.2366,1.23913e-15,74.2533,69.2949)"><stop offset="0" style="stop-color:rgb(6,84,131);stop-opacity:1"/><stop offset="1" style="stop-color:rgb(68,150,213);stop-opacity:1"/></linearGradient>    </defs></svg>