<?xml version="1.0" encoding="UTF-8" standalone="no"?><!DOCTYPE svg PUBLIC "-//W3C//DTD SVG 1.1//EN" "http://www.w3.org/Graphics/SVG/1.1/DTD/svg11.dtd"><svg width="100%" height="100%" viewBox="0 0 1024 512" version="1.1" xmlns="http://www.w3.org/2000/svg" xmlns:xlink="http://www.w3.org/1999/xlink" xml:space="preserve" style="fill-rule:evenodd;clip-rule:evenodd;stroke-linecap:round;stroke-linejoin:round;stroke-miterlimit:1.5;"><title>Brocc</title><desc>Brocc (Previously named Sparlan) were founded in Stockholm in April 2014 by Jonathan Klein and Claes Melander. In November 2015, the company will be the first in Sweden to obtain permission from Finansinspektionen to mediate person-to-person loans in Sweden. The service was launched on the Swedish market in April 2016. In November 2016, the company expanded its offering to monthly savings.</desc>    <g transform="matrix(2.03642,0,0,2.03642,2,125.669)">        <g transform="matrix(0.313612,0,0,0.313612,-0.627225,0.893372)">            <path d="M202.86,0.34c-110.95,0 -200.86,89.94 -200.86,200.89c0,110.95 89.91,200.88 200.86,200.88c110.95,0 200.89,-89.94 200.89,-200.89c0,-110.95 -89.94,-200.88 -200.89,-200.88Zm67,267.85l-133.96,0l0,-133.93l133.92,0l0.04,133.93Z" style="fill:rgb(31,31,31);fill-rule:nonzero;"/>        </g>        <path d="M148.193,3.435l0,121.237l45.741,0c0,0 8.78,-0.453 14.164,-7.991c5.383,-7.539 4.724,-11.141 4.724,-11.141l0,-34.369c0,0 -0.661,-4.277 -4.13,-7.671c-3.161,-3.091 -7.644,-4.556 -7.644,-4.556l0,-2.877c0,0 4.089,0.725 7.559,-3.433c3.469,-4.158 3.976,-9.635 3.976,-9.635l0,-26.134c0,0 -0.196,-4.125 -5.57,-9.03c-4.824,-4.403 -10.801,-4.954 -10.801,-4.954l-48.019,0.554Zm35.029,69.979l-6.175,0l0,29.402l6.175,0l0,-29.402Zm0,-48.779l-6.175,0l0,28.402l6.175,0l0,-28.402Z" style="fill:rgb(31,31,31);stroke:black;stroke-width:0.49px;"/>        <path d="M247.026,124.672l-28.853,0l0,-121.237l48.018,-0.554c0,0 5.977,0.551 10.802,4.954c5.373,4.905 5.57,9.03 5.57,9.03l0,29.134c0,0 -0.507,5.477 -3.977,9.635c-3.469,4.158 -7.558,3.433 -7.558,3.433l0,2.877c0,0 4.483,1.465 7.643,4.556c3.47,3.394 4.131,7.671 4.131,7.671l0,31.369c0,0 -0.773,12.322 3.186,19.132c-11.657,0.012 -22.074,0 -22.074,0l-8.83,0c-1.04,0 -1.882,-0.843 -1.882,-1.882l0,-47.376l-6.176,0l0,49.258Zm6.176,-100.037l-6.176,0l0,30.402l6.176,0l0,-30.402Z" style="fill:rgb(31,31,31);stroke:black;stroke-width:0.49px;"/>        <path d="M357.879,32.358c0,-17.307 -14.051,-31.358 -31.357,-31.358l-6.748,0c-17.307,0 -31.358,14.051 -31.358,31.358l0,61.961c0,17.307 14.051,31.358 31.358,31.358l6.748,0c17.306,0 31.357,-14.051 31.357,-31.358l0,-61.961Zm-32.207,-6.723l-6.566,0l0,76.18l6.566,0l0,-76.18Z" style="fill:rgb(31,31,31);"/>        <path d="M429.879,65.849l0,28.47c0,17.307 -14.051,31.358 -31.357,31.358l-6.748,0c-17.307,0 -31.358,-14.051 -31.358,-31.358l0,-61.961c0,-17.307 14.051,-31.358 31.358,-31.358l6.748,0c17.306,0 31.357,14.051 31.357,31.358l0,26.084l-31.448,0l0,-32.807l-6.566,0l0,76.18l6.566,0l0,-35.966l31.448,0Z" style="fill:rgb(31,31,31);"/>        <path d="M500.879,65.849l0,28.47c0,17.307 -14.051,31.358 -31.357,31.358l-6.748,0c-17.307,0 -31.358,-14.051 -31.358,-31.358l0,-61.961c0,-17.307 14.051,-31.358 31.358,-31.358l6.748,0c17.306,0 31.357,14.051 31.357,31.358l0,26.084l-31.448,0l0,-32.807l-6.566,0l0,76.18l6.566,0l0,-35.966l31.448,0Z" style="fill:rgb(31,31,31);"/>    </g></svg>