<?xml version="1.0" encoding="UTF-8" standalone="no"?><!DOCTYPE svg PUBLIC "-//W3C//DTD SVG 1.1//EN" "http://www.w3.org/Graphics/SVG/1.1/DTD/svg11.dtd"><svg width="100%" height="100%" viewBox="0 0 1024 512" version="1.1" xmlns="http://www.w3.org/2000/svg" xmlns:xlink="http://www.w3.org/1999/xlink" xml:space="preserve" style="fill-rule:evenodd;clip-rule:evenodd;stroke-linejoin:round;stroke-miterlimit:2;"><title>Impact</title><desc></desc>    <g id="impact" transform="matrix(2.02381,0,0,2.02381,2.00061,116.97)">        <path d="M80.009,111.666l10.481,0l0,-61.097l-10.481,0l0,61.097Zm12.667,-82.578c0,4.178 -3.338,7.329 -7.521,7.329c-4.182,0 -7.394,-3.151 -7.394,-7.329c0,-4.244 3.212,-7.523 7.394,-7.523c4.183,0 7.521,3.279 7.521,7.523Zm120.653,44.635l0,37.943l-10.542,0l0,-34.535c0,-11.26 -6.18,-17.88 -16.792,-17.88c-10.095,0 -18.011,7.013 -18.011,18.139l0,34.276l-10.544,0l0,-34.535c0,-11.26 -6.174,-17.88 -16.789,-17.88c-9.836,0 -18.075,6.753 -18.075,18.139l0,34.276l-10.476,0l0,-61.096l10.414,0l0,7.971c5.023,-6.879 12.931,-9.255 20.004,-9.255c10.357,0 18.521,4.618 22.577,12.283c5.015,-9.269 14.468,-12.283 22.767,-12.283c15.112,0 25.467,9.77 25.467,24.437m31.057,7.391c-0,12.55 8.613,22.003 20.963,22.003c12.671,-0 20.967,-9.835 20.967,-22.003c-0,-12.151 -8.491,-21.93 -20.967,-21.93c-12.35,-0 -20.963,9.457 -20.963,21.93m52.738,-0c-0,18.47 -13.445,31.841 -30.555,31.841c-9.652,-0 -16.785,-3.733 -21.542,-9.452l-0,33.892l-10.485,-0l-0,-86.829l10.485,-0l-0,8.165c4.757,-5.724 11.89,-9.445 21.542,-9.445c17.11,-0 30.555,13.378 30.555,31.828m22.301,-0c-0,12.168 8.496,22.003 21.03,22.003c12.352,-0 20.97,-9.453 20.97,-22.003c-0,-12.473 -8.618,-21.93 -20.97,-21.93c-12.731,-0 -21.03,9.779 -21.03,21.93Zm51.908,30.553l-10.553,-0l-0,-8.164c-4.82,5.719 -11.959,9.452 -21.539,9.452c-17.183,-0 -30.554,-13.371 -30.554,-31.841c-0,-18.45 13.371,-31.828 30.554,-31.828c9.58,-0 16.719,3.721 21.539,9.51l-0,-8.23l10.553,-0l-0,61.101Zm70.608,-52.74l-6.756,7.145c-4.501,-4.372 -9.708,-6.888 -16.203,-6.888c-11.773,0 -20.714,9.135 -20.714,21.93c0,12.799 8.941,22.002 20.714,22.002c6.495,0 12.212,-2.893 16.463,-7.016l6.496,7.273c-5.526,6.244 -13.64,9.581 -22.701,9.581c-18.914,0 -31.711,-13.702 -31.711,-31.84c0,-18.129 12.797,-31.829 31.711,-31.829c9.061,0 17.234,3.344 22.701,9.642m58.776,1.221l-25.663,-0l-0,29.783c-0,9.196 4.892,13.186 11.513,13.186c4.508,-0 9.01,-1.732 12.481,-4.115l4.952,7.904c-4.693,3.412 -10.807,6.049 -18.333,6.049c-13.247,-0 -21.155,-7.266 -21.155,-22.832l-0,-29.975l-13.061,-0l-0,-9.582l13.061,-0l-0,-19.162l10.542,-0l-0,19.162l25.663,-0l-0,9.582Z" style="fill:rgb(41,65,77);"/>        <path d="M20.723,70.31c7.528,0 14.261,3.37 18.808,8.668c1.218,-2.64 1.918,-5.57 1.918,-8.668c-0,-11.441 -9.28,-20.725 -20.726,-20.725c-11.443,0 -20.723,9.284 -20.723,20.725c-0,3.098 0.699,6.028 1.917,8.668c4.549,-5.298 11.279,-8.668 18.806,-8.668" style="fill:rgb(166,180,190);"/>        <path d="M41.448,95.108c0,-11.444 -9.279,-20.726 -20.726,-20.726c-11.443,-0 -20.722,9.282 -20.722,20.726c0,11.442 9.279,20.727 20.722,20.727c11.447,-0 20.726,-9.285 20.726,-20.727" style="fill:rgb(70,95,107);"/>        <path d="M41.448,20.727c0,-11.448 -9.279,-20.727 -20.726,-20.727c-11.443,0 -20.722,9.286 -20.722,20.727c0,11.443 9.279,20.726 20.722,20.726c11.447,0 20.726,-9.283 20.726,-20.726" style="fill:rgb(249,0,64);"/>    </g></svg>