<?xml version="1.0" encoding="UTF-8" standalone="no"?><!DOCTYPE svg PUBLIC "-//W3C//DTD SVG 1.1//EN" "http://www.w3.org/Graphics/SVG/1.1/DTD/svg11.dtd"><svg width="100%" height="100%" viewBox="0 0 1024 512" version="1.1" xmlns="http://www.w3.org/2000/svg" xmlns:xlink="http://www.w3.org/1999/xlink" xml:space="preserve" style="fill-rule:evenodd;clip-rule:evenodd;stroke-linejoin:round;stroke-miterlimit:2;"><title>Excelend</title><desc>Crowdlending platform. Where borrowers and investors are in search of a common benefit.</desc>    <g transform="matrix(0.753224,0,0,0.755935,-12.3717,-55.2212)">        <g transform="matrix(370.649,0,0,337.087,726.032,531.337)">            <path d="M0.066,-0.123c0,0.045 0.013,0.076 0.038,0.095c0.024,0.019 0.055,0.028 0.092,0.028l0.045,0l0,-0.096l-0.035,0c-0.025,0 -0.038,-0.012 -0.038,-0.035l0,-0.581l-0.102,0l0,0.589Z" style="fill:rgb(233,84,13);fill-rule:nonzero;"/>        </g>        <g transform="matrix(370.649,0,0,352.538,828.59,531.337)">            <path d="M0.459,-0.215l0,-0.084c-0.001,-0.067 -0.021,-0.119 -0.062,-0.157c-0.04,-0.037 -0.089,-0.057 -0.147,-0.057c-0.024,0 -0.049,0.004 -0.073,0.013c-0.025,0.009 -0.048,0.023 -0.068,0.043c-0.02,0.02 -0.036,0.046 -0.049,0.08c-0.013,0.033 -0.019,0.075 -0.019,0.125c0,0.052 0.007,0.094 0.022,0.127c0.013,0.034 0.031,0.06 0.052,0.079c0.011,0.009 0.023,0.017 0.036,0.023c0.012,0.007 0.024,0.013 0.037,0.017c0.025,0.008 0.051,0.012 0.078,0.012c0.07,0.001 0.131,-0.027 0.183,-0.082l-0.074,-0.063c-0.033,0.033 -0.069,0.049 -0.111,0.049c-0.035,0 -0.064,-0.011 -0.086,-0.032c-0.023,-0.021 -0.035,-0.052 -0.035,-0.093l0.316,0Zm-0.316,-0.084c0.002,-0.039 0.013,-0.069 0.032,-0.089c0.019,-0.019 0.044,-0.029 0.075,-0.029c0.031,0 0.056,0.01 0.075,0.029c0.02,0.02 0.031,0.05 0.032,0.089l-0.214,0Z" style="fill:rgb(233,84,13);fill-rule:nonzero;"/>        </g>        <g transform="matrix(370.649,0,0,352.538,531.878,529.268)">            <path d="M0.459,-0.215l0,-0.084c-0.001,-0.067 -0.021,-0.119 -0.062,-0.157c-0.04,-0.037 -0.089,-0.057 -0.147,-0.057c-0.024,0 -0.049,0.004 -0.073,0.013c-0.025,0.009 -0.048,0.023 -0.068,0.043c-0.02,0.02 -0.036,0.046 -0.049,0.08c-0.013,0.033 -0.019,0.075 -0.019,0.125c0,0.052 0.007,0.094 0.022,0.127c0.013,0.034 0.031,0.06 0.052,0.079c0.011,0.009 0.023,0.017 0.036,0.023c0.012,0.007 0.024,0.013 0.037,0.017c0.025,0.008 0.051,0.012 0.078,0.012c0.07,0.001 0.131,-0.027 0.183,-0.082l-0.074,-0.063c-0.033,0.033 -0.069,0.049 -0.111,0.049c-0.035,0 -0.064,-0.011 -0.086,-0.032c-0.023,-0.021 -0.035,-0.052 -0.035,-0.093l0.316,0Zm-0.316,-0.084c0.002,-0.039 0.013,-0.069 0.032,-0.089c0.019,-0.019 0.044,-0.029 0.075,-0.029c0.031,0 0.056,0.01 0.075,0.029c0.02,0.02 0.031,0.05 0.032,0.089l-0.214,0Z" style="fill:rgb(26,42,74);fill-rule:nonzero;"/>        </g>        <g transform="matrix(370.649,0,0,352.538,3.87781,529.268)">            <path d="M0.459,-0.215l0,-0.084c-0.001,-0.067 -0.021,-0.119 -0.062,-0.157c-0.04,-0.037 -0.089,-0.057 -0.147,-0.057c-0.024,0 -0.049,0.004 -0.073,0.013c-0.025,0.009 -0.048,0.023 -0.068,0.043c-0.02,0.02 -0.036,0.046 -0.049,0.08c-0.013,0.033 -0.019,0.075 -0.019,0.125c0,0.052 0.007,0.094 0.022,0.127c0.013,0.034 0.031,0.06 0.052,0.079c0.011,0.009 0.023,0.017 0.036,0.023c0.012,0.007 0.024,0.013 0.037,0.017c0.025,0.008 0.051,0.012 0.078,0.012c0.07,0.001 0.131,-0.027 0.183,-0.082l-0.074,-0.063c-0.033,0.033 -0.069,0.049 -0.111,0.049c-0.035,0 -0.064,-0.011 -0.086,-0.032c-0.023,-0.021 -0.035,-0.052 -0.035,-0.093l0.316,0Zm-0.316,-0.084c0.002,-0.039 0.013,-0.069 0.032,-0.089c0.019,-0.019 0.044,-0.029 0.075,-0.029c0.031,0 0.056,0.01 0.075,0.029c0.02,0.02 0.031,0.05 0.032,0.089l-0.214,0Z" style="fill:rgb(26,42,74);fill-rule:nonzero;"/>        </g>        <g transform="matrix(344.589,0,0,352.538,1022.63,531.337)">            <path d="M0.066,0l0.102,0l0,-0.302c0,-0.035 0.01,-0.062 0.029,-0.081c0.019,-0.019 0.043,-0.028 0.072,-0.028c0.029,0 0.053,0.009 0.072,0.028c0.019,0.019 0.028,0.046 0.028,0.081l0,0.302l0.102,0l0,-0.337c-0.001,-0.058 -0.02,-0.102 -0.054,-0.132c-0.035,-0.029 -0.073,-0.044 -0.115,-0.044c-0.055,0 -0.099,0.02 -0.132,0.06l-0.002,0l0,-0.054l-0.102,0l0,0.507Z" style="fill:rgb(233,84,13);fill-rule:nonzero;"/>        </g>        <g transform="matrix(354.903,0,0,339.108,1206.03,531.416)">            <path d="M0.369,-0.053l0,0.053l0.102,0l0,-0.712l-0.102,0l0,0.259c-0.019,-0.018 -0.038,-0.033 -0.059,-0.044c-0.022,-0.011 -0.046,-0.016 -0.072,-0.016c-0.062,0.001 -0.107,0.024 -0.136,0.066c-0.014,0.016 -0.023,0.037 -0.028,0.063c-0.005,0.026 -0.008,0.069 -0.008,0.13c0,0.06 0.003,0.103 0.008,0.129c0.005,0.027 0.014,0.049 0.028,0.065c0.015,0.019 0.034,0.035 0.057,0.047c0.022,0.012 0.048,0.018 0.079,0.019c0.054,-0.001 0.098,-0.021 0.131,-0.059Zm-0.1,-0.358c0.024,0 0.043,0.005 0.057,0.014c0.014,0.009 0.024,0.022 0.029,0.037c0.006,0.015 0.011,0.032 0.013,0.05c0.001,0.018 0.001,0.037 0.001,0.056c0,0.018 0,0.036 -0.001,0.055c-0.002,0.019 -0.007,0.036 -0.013,0.051c-0.005,0.015 -0.015,0.028 -0.029,0.037c-0.014,0.01 -0.033,0.015 -0.057,0.015c-0.024,0 -0.042,-0.005 -0.055,-0.014c-0.014,-0.009 -0.024,-0.021 -0.031,-0.036c-0.006,-0.015 -0.01,-0.033 -0.012,-0.052c-0.002,-0.018 -0.003,-0.037 -0.003,-0.056c0,-0.02 0.001,-0.04 0.003,-0.059c0.002,-0.018 0.006,-0.034 0.012,-0.05c0.007,-0.015 0.017,-0.027 0.031,-0.036c0.013,-0.008 0.031,-0.012 0.055,-0.012Z" style="fill:rgb(233,84,13);fill-rule:nonzero;"/>        </g>        <g transform="matrix(370.649,0,0,347.996,195.723,531.337)">            <path d="M0.313,-0.234l0.141,0.234l-0.127,0l-0.083,-0.143l0.069,-0.091Z" style="fill:rgb(26,42,74);"/>        </g>        <g transform="matrix(370.649,0,0,347.996,195.723,531.337)">            <path d="M0.254,-0.322l-0.077,0.077l-0.16,-0.262l0.122,0l0.115,0.185Z" style="fill:rgb(26,42,74);"/>        </g>        <g transform="matrix(309.986,0,0,340.909,381.007,529.34)">            <path d="M0.364,-0.149c-0.026,0.035 -0.06,0.052 -0.103,0.053c-0.087,0.001 -0.131,-0.051 -0.132,-0.157c0.001,-0.107 0.045,-0.159 0.132,-0.158c0.043,0.001 0.077,0.019 0.103,0.053l0.075,-0.067c-0.022,-0.026 -0.048,-0.048 -0.078,-0.064c-0.03,-0.015 -0.065,-0.024 -0.104,-0.024c-0.06,-0.001 -0.113,0.019 -0.158,0.06c-0.047,0.041 -0.071,0.108 -0.072,0.2c0.001,0.091 0.025,0.157 0.072,0.198c0.045,0.041 0.098,0.061 0.158,0.061c0.039,-0.001 0.074,-0.009 0.104,-0.026c0.03,-0.016 0.056,-0.037 0.078,-0.062l-0.075,-0.067Z" style="fill:rgb(26,42,74);fill-rule:nonzero;"/>        </g>        <path d="M238,531.337l-34.182,-70.689l12.649,-12.648l21.533,20l23.327,-21.903l28.504,-26.764l69.169,-64.948l10,11.615l-62.385,78.738l-25.358,32.004l-43.257,54.595Z" style="fill:rgb(233,84,13);"/>    </g></svg>