<?xml version="1.0" encoding="UTF-8" standalone="no"?><!DOCTYPE svg PUBLIC "-//W3C//DTD SVG 1.1//EN" "http://www.w3.org/Graphics/SVG/1.1/DTD/svg11.dtd"><svg width="100%" height="100%" viewBox="0 0 1024 512" version="1.1" xmlns="http://www.w3.org/2000/svg" xmlns:xlink="http://www.w3.org/1999/xlink" xml:space="preserve" style="fill-rule:evenodd;clip-rule:evenodd;stroke-linejoin:round;stroke-miterlimit:2;"><title>LeihDeinerUmweltGeld</title><desc>The company offers citizens the opportunity to invest with maximum transparency, social added value and attractive interest rates with the globally unique online platforms</desc>    <g transform="matrix(1.56132,0,0,1.56132,2,48.0249)">        <path d="M15.636,258.953c-2.405,0 -4.971,-0.08 -6.815,-0.24l0,-40.733c0,-2.967 -0.161,-4.491 -0.722,-5.854l-0.722,-0.241c-4.651,0 -6.334,0.321 -7.377,1.685c0.08,1.924 0.16,4.65 0.16,8.419l0,38.649c0.161,0.642 0.241,1.363 0.321,2.004c0.08,0.722 0.241,1.604 0.321,2.326c3.127,0.24 8.5,0.48 13.792,0.48c3.849,0 6.495,-0.08 8.018,-0.16c2.005,-0.481 2.887,-2.245 3.127,-3.608c0,-0.722 0,-1.283 -0.16,-3.047c-3.769,0.32 -7.137,0.32 -9.943,0.32Z" style="fill:rgb(0,61,42);fill-rule:nonzero;"/>        <path d="M45.065,226.318c-9.221,0 -15.957,5.773 -15.957,21.329c0,6.575 1.443,11.627 4.411,14.674c3.207,3.207 7.296,3.929 11.306,3.929c2.566,0 5.052,-0.48 6.254,-0.802l-0.08,0c2.486,-0.642 5.132,-2.485 5.212,-4.169c-0.08,-0.883 -0.32,-2.486 -0.802,-4.01c-3.127,1.684 -6.174,2.325 -9.301,2.325c-4.972,0 -8.339,-2.565 -8.5,-10.584c1.283,0.08 1.523,0 2.806,0c3.769,0 7.858,-0.16 10.344,-0.481c2.325,-0.32 5.292,-1.363 6.254,-2.165c0.24,-1.202 0.401,-2.967 0.401,-4.73c0,-1.363 -0.081,-2.646 -0.161,-3.849c-0.641,-6.977 -4.569,-11.467 -12.187,-11.467Zm3.849,16.357c-0.401,0.241 -0.802,0.241 -1.203,0.321c-1.604,0.16 -4.891,0.24 -7.698,0.24l-2.245,0c0.481,-7.217 3.288,-10.584 6.174,-10.985l0.321,0c3.047,0 4.49,2.085 4.891,6.335l0,0.802c0,0.32 0.08,0.562 0.08,0.882c0,0.962 -0.16,1.844 -0.32,2.405Z" style="fill:rgb(0,61,42);fill-rule:nonzero;"/>        <path d="M70.806,227.12c-3.608,0 -6.334,0.24 -7.297,2.245c0.08,2.085 0.16,4.57 0.16,8.179l0,13.952c0,2.566 -0.08,5.052 -0.08,7.377l0,6.575c5.533,-0.16 6.896,-0.16 7.458,-1.042c0.802,-1.283 1.123,-2.566 1.123,-4.41l0,-26.862c0,-3.367 -0.081,-4.49 -0.722,-5.773l-0.642,-0.241Z" style="fill:rgb(0,61,42);fill-rule:nonzero;"/>        <path d="M68.24,209.239c-3.368,0 -4.972,1.684 -4.972,4.811c0,3.448 1.203,4.972 4.491,4.972c3.849,0 4.811,-2.085 4.891,-5.132c0.08,-3.047 -0.642,-4.651 -4.41,-4.651Z" style="fill:rgb(0,61,42);fill-rule:nonzero;"/>        <path d="M109.134,241.553c0,-10.825 -2.325,-15.235 -10.665,-15.235c-2.165,0 -4.009,0.401 -5.453,0.962c-1.203,0.562 -2.566,1.203 -3.849,2.085l0,-15.235c0,-3.287 -0.241,-4.41 -0.882,-5.612c-4.009,0 -6.575,0.4 -7.617,2.485c0.08,1.764 0.16,4.09 0.16,7.377l0,30.229c0,6.495 -0.08,11.868 -0.16,16.438l0.721,0.4c4.491,0 5.453,0 6.896,-1.122c0.722,-1.283 0.882,-2.566 0.882,-4.17l0,-23.975c1.764,-1.684 4.25,-3.207 6.976,-3.207c2.405,0 4.089,1.283 4.33,6.014c0.16,0.802 0.16,1.845 0.16,3.288l0,19.164c0,1.443 0.241,2.727 0.722,4.009c5.693,0 6.896,-0.24 7.858,-1.282c-0.08,-2.887 -0.08,-6.655 -0.08,-10.985l0,-11.628l0.001,0Z" style="fill:rgb(0,61,42);fill-rule:nonzero;"/>        <path d="M130.866,211.884c-4.089,0 -9.221,0.401 -11.226,0.642l-0.561,0.16c-0.962,1.363 -1.123,2.486 -1.123,5.613l0,46.427c4.49,0.562 8.419,0.883 13.15,0.883c4.411,0 10.584,-0.963 15.235,-5.293c5.373,-5.132 7.457,-12.749 7.457,-23.654c0,-14.354 -4.811,-24.778 -22.932,-24.778Zm0.481,47.31c-1.764,0 -3.448,-0.08 -4.811,-0.241l0,-40.733c0.882,-0.08 2.085,-0.08 3.208,-0.08c1.684,0 3.207,0.16 4.57,0.48c6.816,1.123 10.184,6.175 10.184,18.042c-0.001,18.763 -6.817,22.532 -13.151,22.532Z" style="fill:rgb(0,61,42);fill-rule:nonzero;"/>        <path d="M174.729,226.318c-9.221,0 -15.957,5.773 -15.957,21.329c0,6.575 1.443,11.627 4.41,14.674c3.208,3.207 7.297,3.929 11.306,3.929c2.566,0 5.052,-0.48 6.254,-0.802l-0.08,0c2.486,-0.642 5.132,-2.485 5.212,-4.169c-0.08,-0.883 -0.32,-2.486 -0.802,-4.01c-3.127,1.684 -6.174,2.325 -9.301,2.325c-4.972,0 -8.339,-2.565 -8.5,-10.584c1.283,0.08 1.523,0 2.806,0c3.769,0 7.858,-0.16 10.344,-0.481c2.325,-0.32 5.292,-1.363 6.254,-2.165c0.24,-1.202 0.401,-2.967 0.401,-4.73c0,-1.363 -0.081,-2.646 -0.161,-3.849c-0.64,-6.977 -4.569,-11.467 -12.186,-11.467Zm3.848,16.357c-0.401,0.241 -0.802,0.241 -1.203,0.321c-1.604,0.16 -4.891,0.24 -7.698,0.24l-2.245,0c0.481,-7.217 3.288,-10.584 6.174,-10.985l0.321,0c3.047,0 4.49,2.085 4.891,6.335l0,0.802c0,0.32 0.08,0.562 0.08,0.882c0.001,0.962 -0.159,1.844 -0.32,2.405Z" style="fill:rgb(0,61,42);fill-rule:nonzero;"/>        <path d="M200.469,227.12c-3.608,0 -6.334,0.24 -7.297,2.245c0.08,2.085 0.161,4.57 0.161,8.179l0,13.952c0,2.566 -0.081,5.052 -0.081,7.377l0,6.575c5.533,-0.16 6.896,-0.16 7.458,-1.042c0.802,-1.283 1.123,-2.566 1.123,-4.41l0,-26.862c0,-3.367 -0.081,-4.49 -0.722,-5.773l-0.642,-0.241Z" style="fill:rgb(0,61,42);fill-rule:nonzero;"/>        <path d="M197.903,209.239c-3.368,0 -4.972,1.684 -4.972,4.811c0,3.448 1.203,4.972 4.491,4.972c3.849,0 4.811,-2.085 4.891,-5.132c0.08,-3.047 -0.641,-4.651 -4.41,-4.651Z" style="fill:rgb(0,61,42);fill-rule:nonzero;"/>        <path d="M238.958,240.671c0,-9.142 -1.925,-14.273 -11.948,-14.273c-1.924,0 -3.528,0.321 -5.212,0.882c-1.443,0.481 -3.127,1.283 -4.731,2.406c-0.481,-0.963 -1.443,-1.685 -2.887,-1.685c-0.16,0 -0.642,0 -1.123,0.16c-1.764,0.722 -2.807,1.363 -3.368,2.005c0.561,1.604 0.882,3.448 0.882,6.014l0,13.472c0,6.094 -0.08,11.547 -0.16,15.796l2.084,0c3.528,-0.08 4.41,-0.08 5.533,-1.042c0.802,-1.123 0.962,-2.085 0.962,-3.849l0,-24.697l-0.241,0.24c1.604,-1.764 3.689,-3.127 6.255,-3.127c4.089,0 5.452,2.085 5.452,7.858l0,21.008c0,1.203 0.241,2.406 0.882,3.608c5.292,0 6.735,-0.32 7.778,-1.282c-0.08,-3.128 -0.16,-7.057 -0.16,-11.387l0,-12.107l0.002,0Z" style="fill:rgb(0,61,42);fill-rule:nonzero;"/>        <path d="M261.491,226.318c-9.221,0 -15.957,5.773 -15.957,21.329c0,6.575 1.443,11.627 4.41,14.674c3.208,3.207 7.297,3.929 11.306,3.929c2.566,0 5.052,-0.48 6.254,-0.802l-0.08,0c2.486,-0.642 5.132,-2.485 5.212,-4.169c-0.08,-0.883 -0.32,-2.486 -0.802,-4.01c-3.127,1.684 -6.174,2.325 -9.301,2.325c-4.972,0 -8.339,-2.565 -8.5,-10.584c1.283,0.08 1.523,0 2.806,0c3.769,0 7.858,-0.16 10.344,-0.481c2.325,-0.32 5.292,-1.363 6.254,-2.165c0.24,-1.202 0.401,-2.967 0.401,-4.73c0,-1.363 -0.081,-2.646 -0.161,-3.849c-0.639,-6.977 -4.568,-11.467 -12.186,-11.467Zm3.849,16.357c-0.401,0.241 -0.802,0.241 -1.203,0.321c-1.604,0.16 -4.891,0.24 -7.698,0.24l-2.245,0c0.481,-7.217 3.288,-10.584 6.174,-10.985l0.321,0c3.047,0 4.49,2.085 4.891,6.335l0,0.802c0,0.32 0.08,0.562 0.08,0.882c0.001,0.962 -0.16,1.844 -0.32,2.405Z" style="fill:rgb(0,61,42);fill-rule:nonzero;"/>        <path d="M296.212,226.638c-1.523,-0.24 -3.288,0.081 -4.65,0.642c-1.523,0.562 -3.208,1.283 -4.731,2.325c-0.481,-1.122 -1.203,-1.604 -2.887,-1.604c-0.321,0 -0.642,0 -1.123,0.16c-1.764,0.722 -2.807,1.363 -3.448,2.005c0.561,1.604 1.042,3.448 1.042,6.014l-0.08,13.392c0,6.174 -0.08,11.627 -0.16,15.876c5.212,0 6.415,-0.08 7.698,-1.042c0.722,-1.043 0.802,-2.005 0.802,-3.288l0,-25.258c1.523,-1.523 3.288,-2.085 5.453,-2.085c0.24,0 0.481,0 1.042,0.16c0.641,0.08 1.443,0.161 2.325,0.161c0.722,0 0.722,0 1.283,-0.161c1.123,-1.604 1.443,-3.849 1.443,-5.052c-0.24,-1.202 -1.683,-2.004 -4.009,-2.245Z" style="fill:rgb(0,61,42);fill-rule:nonzero;"/>        <path d="M332.938,218.059l-0.08,21.729c0,6.397 -0.479,13.271 -1.516,18.638c-1.247,0.744 -3.363,1.489 -7.786,1.489c-5.533,0 -8.019,-4.57 -9.141,-11.065c-0.401,-2.566 -0.561,-5.533 -0.561,-8.74l0,-21.891c0,-3.127 -0.08,-4.65 -1.042,-6.335c-4.651,0 -6.976,0.321 -7.858,1.443c0.08,3.288 0.16,7.297 0.16,12.429l0,14.995c0,3.047 0.16,5.773 0.401,8.419c1.123,9.943 4.891,17.24 17.561,17.24c6.415,0 12.589,-1.283 15.957,-5.293c1.443,-5.934 2.165,-12.829 2.165,-21.329l0,-12.588c0,-5.854 0.08,-11.146 0.16,-15.315c-5.131,0 -6.014,0.16 -7.537,1.123c-0.561,1.523 -0.883,3.126 -0.883,5.051Z" style="fill:rgb(0,61,42);fill-rule:nonzero;"/>        <path d="M396.769,240.43c0,-8.099 -1.844,-13.391 -9.382,-13.952l0.08,0c-0.4,-0.08 -1.042,-0.08 -1.684,-0.08c-1.844,0 -3.448,0.24 -5.052,0.802c-1.604,0.481 -3.688,1.443 -5.212,2.566c-1.443,-1.845 -3.688,-3.047 -7.057,-3.368c-0.48,-0.08 -1.202,-0.08 -1.604,-0.08c-2.005,0 -3.528,0.24 -5.212,0.802c-1.523,0.481 -3.127,1.283 -4.73,2.405c-0.481,-0.882 -1.443,-1.684 -2.967,-1.684c-0.161,0 -0.562,0 -1.043,0.16c-1.764,0.722 -2.887,1.363 -3.448,2.005c0.562,1.604 0.963,3.448 0.963,6.014l0,14.193c0,5.934 0,11.226 -0.08,15.234c5.132,0 6.254,0 7.617,-1.042c0.722,-0.882 0.882,-1.765 0.882,-3.047l0,-25.658c1.523,-1.604 3.608,-2.887 6.014,-2.887c3.448,0 4.571,2.085 4.571,7.938l0,9.542c0,5.934 0,11.146 -0.161,15.154l4.01,0c1.523,0 2.485,0 2.967,-0.08c0.962,-0.24 1.604,-0.722 1.604,-1.684l0,-27.9c1.577,-1.579 3.644,-2.891 5.934,-2.891c3.448,0 4.49,2.085 4.49,7.938l0,21.649c0,1.203 0.321,2.165 0.722,2.967c5.293,0 6.655,-0.32 7.938,-1.282c-0.16,-2.807 -0.16,-6.495 -0.16,-10.425l0,-13.309Z" style="fill:rgb(0,61,42);fill-rule:nonzero;"/>        <path d="M448.812,227.601c-0.321,-0.161 -4.09,-0.642 -5.293,-0.642c-0.641,0 -1.122,0 -1.764,0.48c-0.24,0.321 -0.32,0.562 -0.401,0.803c0,0.24 0,0.48 -0.08,0.561c-0.561,2.807 -1.282,6.175 -2.245,10.104c-1.122,5.292 -2.165,10.344 -3.207,14.192c-0.321,-1.442 -0.24,-0.802 -0.882,-3.527c-0.401,-1.604 -0.722,-3.368 -1.123,-5.132c-1.202,-4.972 -2.325,-9.703 -3.207,-13.552c-0.401,-1.684 -0.642,-2.485 -1.523,-3.287c-1.523,-0.401 -6.335,0.802 -6.575,1.122l0,0.722c0,0.08 0,0.481 -0.16,0.963c-0.401,1.924 -2.887,12.107 -3.368,14.032c-0.802,3.447 -1.604,6.735 -2.085,8.74c-0.562,-2.085 -0.642,-2.887 -1.604,-7.538c-0.401,-1.844 -0.802,-4.009 -1.283,-6.174c-0.802,-3.288 -1.604,-6.655 -2.325,-9.782c-0.24,-0.963 -0.722,-2.085 -1.523,-2.727c-4.892,0 -7.217,0.722 -7.938,2.005c0.481,1.042 1.684,5.292 3.448,11.947c2.005,7.297 4.33,15.877 5.773,21.169c0.32,1.282 1.523,3.127 2.565,3.929c2.967,-0.16 4.41,-0.24 4.972,-0.32c1.203,-0.401 1.443,-1.203 1.844,-2.566l-0.08,0.08c0.08,-0.16 0.161,-0.48 0.241,-0.642l1.443,-5.532c1.122,-4.33 2.565,-9.702 3.527,-13.952c0.883,4.089 2.005,9.141 2.968,13.15c0.16,0.562 0.32,1.283 0.561,2.085c0.321,1.202 0.722,2.565 1.043,3.769c0.4,1.282 1.604,3.127 2.646,3.929c2.887,-0.16 4.41,-0.24 4.972,-0.32c1.203,-0.401 1.443,-1.203 1.765,-2.566l-0.081,0.08c0.081,-0.16 0.161,-0.48 0.241,-0.642c1.684,-5.452 3.688,-12.829 5.452,-19.404c1.203,-4.25 2.245,-8.339 3.208,-11.547l-0.081,0.08l0.321,-0.802c0.32,-1.122 0.481,-1.844 0.4,-2.485c-0.082,-0.242 -0.242,-0.643 -0.562,-0.803Z" style="fill:rgb(0,61,42);fill-rule:nonzero;"/>        <path d="M468.858,226.318c-9.221,0 -15.956,5.773 -15.956,21.329c0,6.575 1.443,11.627 4.41,14.674c3.207,3.207 7.297,3.929 11.306,3.929c2.566,0 5.052,-0.48 6.255,-0.802l-0.08,0c2.485,-0.642 5.132,-2.485 5.212,-4.169c-0.08,-0.883 -0.321,-2.486 -0.802,-4.01c-3.128,1.684 -6.175,2.325 -9.302,2.325c-4.972,0 -8.339,-2.565 -8.5,-10.584c1.283,0.08 1.523,0 2.807,0c3.769,0 7.858,-0.16 10.344,-0.481c2.325,-0.32 5.292,-1.363 6.255,-2.165c0.24,-1.202 0.4,-2.967 0.4,-4.73c0,-1.363 -0.08,-2.646 -0.16,-3.849c-0.642,-6.977 -4.57,-11.467 -12.189,-11.467Zm3.85,16.357c-0.401,0.241 -0.802,0.241 -1.203,0.321c-1.604,0.16 -4.892,0.24 -7.697,0.24l-2.245,0c0.48,-7.217 3.287,-10.584 6.174,-10.985l0.32,0c3.048,0 4.491,2.085 4.892,6.335l0,0.802c0,0.32 0.08,0.562 0.08,0.882c-0.001,0.962 -0.161,1.844 -0.321,2.405Z" style="fill:rgb(0,61,42);fill-rule:nonzero;"/>        <path d="M495.803,257.349l0,-41.055c0,-4.089 -0.08,-5.934 -0.562,-7.777c-4.09,0 -6.977,0.24 -7.938,2.485c0.08,2.325 0.16,5.052 0.16,8.9l0,40.895c0,1.604 0.802,3.207 2.325,4.25c0.883,0.642 2.085,1.122 3.208,1.122c2.405,-0.08 4.169,-1.122 4.972,-2.245c0,-0.4 0.08,-2.325 0.16,-3.447c-2.566,0.481 -2.325,-3.128 -2.325,-3.128Z" style="fill:rgb(0,61,42);fill-rule:nonzero;"/>        <path d="M520.58,233.375c0.642,0 1.443,-0.081 2.005,-0.161c1.604,-0.32 2.245,-1.363 2.485,-5.854l-10.183,0c0,-3.047 0.08,-5.612 0.16,-8.98l0,-1.283c-4.812,0.321 -6.896,1.845 -7.537,3.688c-0.081,2.245 -0.321,4.731 -0.401,6.977c-0.481,0.24 -0.642,0.08 -1.283,0.24c-1.042,0.321 -2.245,0.642 -3.447,1.443c-0.642,0.642 -0.722,0.642 -0.722,2.967c1.202,0.562 2.565,1.043 4.73,1.123l0,19.084c0,6.575 1.523,13.712 9.542,13.712c2.565,0 5.613,-0.722 7.457,-1.925c0.562,-0.481 0.962,-0.962 1.123,-1.523c0.08,-0.642 0.08,-1.523 0.08,-2.245c0,-0.722 -0.08,-1.363 -0.16,-1.845l-1.363,-0.24c-0.562,0.481 -3.769,1.604 -4.812,1.523c-2.565,0 -3.127,-2.967 -3.448,-7.137l0,-3.929c0,-1.684 -0.08,-3.368 -0.08,-5.212c0,-3.368 0.08,-6.815 0.161,-10.344c2.967,0.001 4.09,0.001 5.693,-0.079Z" style="fill:rgb(0,61,42);fill-rule:nonzero;"/>        <path d="M553.698,234.978c-0.802,0 -1.523,1.042 -1.523,1.042c0.32,4.731 2.646,5.292 4.73,5.373l0,17.239c-0.962,0.722 -2.887,1.283 -5.372,1.283c-7.217,0 -13.632,-4.33 -13.632,-20.929c0,-14.914 5.453,-21.489 14.594,-21.489c2.325,0 4.49,0.4 6.335,1.042c0.32,0.08 0.802,0.401 1.042,0.481l-0.08,0c0.562,0.32 1.203,0.401 1.764,0.32l0.481,-0.08c0.962,-1.282 1.604,-2.405 1.604,-3.929c-0.802,-1.604 -4.57,-4.33 -11.627,-4.33c-6.815,0 -12.188,1.764 -15.876,5.693c-3.849,4.17 -7.377,11.386 -7.377,22.772c0,19.244 8.499,25.819 19.646,26.862c0.802,0.08 1.844,0.08 2.646,0.08c4.17,0 7.457,-0.722 9.782,-1.604c1.443,-0.641 3.368,-1.924 4.491,-2.726l0,-18.844c0,-2.565 -0.161,-6.575 -0.722,-8.5c-2.166,0.003 -8.42,0.084 -10.906,0.244Z" style="fill:rgb(0,61,42);fill-rule:nonzero;"/>        <path d="M587.218,226.318c-9.221,0 -15.956,5.773 -15.956,21.329c0,6.575 1.443,11.627 4.41,14.674c3.207,3.207 7.297,3.929 11.306,3.929c2.566,0 5.052,-0.48 6.255,-0.802l-0.08,0c2.485,-0.642 5.132,-2.485 5.212,-4.169c-0.08,-0.883 -0.321,-2.486 -0.802,-4.01c-3.128,1.684 -6.175,2.325 -9.302,2.325c-4.972,0 -8.339,-2.565 -8.5,-10.584c1.283,0.08 1.523,0 2.807,0c3.769,0 7.858,-0.16 10.344,-0.481c2.325,-0.32 5.292,-1.363 6.255,-2.165c0.24,-1.202 0.4,-2.967 0.4,-4.73c0,-1.363 -0.08,-2.646 -0.16,-3.849c-0.642,-6.977 -4.571,-11.467 -12.189,-11.467Zm3.849,16.357c-0.401,0.241 -0.802,0.241 -1.203,0.321c-1.604,0.16 -4.892,0.24 -7.697,0.24l-2.245,0c0.48,-7.217 3.287,-10.584 6.174,-10.985l0.32,0c3.048,0 4.491,2.085 4.892,6.335l0,0.802c0,0.32 0.08,0.562 0.08,0.882c0,0.962 -0.16,1.844 -0.321,2.405Z" style="fill:rgb(0,61,42);fill-rule:nonzero;"/>        <path d="M614.162,257.349l0,-41.055c0,-4.089 -0.08,-5.934 -0.562,-7.777c-4.09,0 -6.977,0.24 -7.938,2.485c0.08,2.325 0.16,5.052 0.16,8.9l0,40.895c0,1.604 0.802,3.207 2.325,4.25c0.883,0.642 2.085,1.122 3.208,1.122c2.405,-0.08 4.169,-1.122 4.972,-2.245c0,-0.4 0.08,-2.325 0.16,-3.447c-2.566,0.481 -2.325,-3.128 -2.325,-3.128Z" style="fill:rgb(0,61,42);fill-rule:nonzero;"/>        <path d="M651.048,257.349c0,-1.443 0.08,-5.132 0.08,-6.896l0,-8.98l0,-26.542c0,-3.608 -0.16,-5.051 -0.722,-6.414c-4.09,0 -6.815,0.4 -7.778,2.565c0.08,1.845 0.161,4.17 0.161,7.618l0,8.499c-1.363,-0.562 -2.967,-0.882 -5.373,-0.882c-4.009,0 -8.099,1.604 -11.065,4.892c-3.287,3.688 -5.452,9.221 -5.452,16.357c0,13.792 6.094,18.282 14.433,18.683c2.245,0.081 4.33,-0.24 6.095,-1.202l0,0.08c0.802,-0.401 1.443,-0.882 1.924,-1.283c1.043,1.123 2.807,2.486 4.812,2.325c2.405,-0.08 4.17,-1.122 4.972,-2.245c0,-0.4 0.08,-2.405 0.16,-3.528c-2.487,0.562 -2.247,-3.047 -2.247,-3.047Zm-8.259,-4.33c0,1.685 0,2.887 -0.081,3.77c0,0.4 -0.08,0.882 -0.16,0.962l0.08,-0.08c-1.042,1.282 -3.047,2.085 -5.132,2.085c-4.33,0 -7.617,-3.128 -7.617,-12.99c0,-10.504 4.41,-14.354 8.66,-14.354c1.604,0 3.207,0.481 4.25,1.203l0,19.404Z" style="fill:rgb(0,61,42);fill-rule:nonzero;"/>        <path d="M506.96,178.728c0,0 -23.83,-13.248 -61.545,-25.372c-0.838,-8.416 -1.549,-16.96 -2.225,-25.541c1.789,0.594 3.702,0.933 5.7,0.933c9.682,0 17.536,-7.581 17.536,-16.933c0,-1.522 -0.228,-2.989 -0.617,-4.393c3.544,-3.099 5.784,-7.563 5.784,-12.545c0,-9.353 -7.854,-16.931 -17.536,-16.931c-2.472,0 -4.82,0.499 -6.952,1.389c-2.288,-6.785 -8.88,-11.689 -16.668,-11.689c-9.689,0 -17.536,7.579 -17.536,16.937c0,4.621 1.921,8.807 5.028,11.863c-6.015,2.685 -10.199,8.547 -10.199,15.368c0,9.352 7.854,16.933 17.536,16.933c3.148,0 6.095,-0.811 8.647,-2.212c-0.602,7.555 -1.735,15.597 -2.241,23.068l-28.862,-7.602c-1.986,-0.424 -3.995,-0.837 -6.027,-1.23c0,0 -6.528,-1.05 -14.368,-2.251c-1.224,-12.768 -2.201,-25.786 -3.195,-38.788c1.615,-2.832 5.509,-3.37 5.789,-7.533c8.533,1.926 17.733,-0.384 23.753,-2.896c-4.891,-3.878 -14.765,-5.595 -23.173,-4.052c-3.2,-2.211 -4.996,-5.815 -10.425,-5.793c-1.319,-9.693 -6.315,-15.713 -12.168,-20.857c-0.417,10.27 1.717,17.979 6.372,23.176c-2.115,1.943 -4.822,6.358 -2.896,10.422c-6.364,5.229 -12.479,10.698 -15.061,19.697c9.09,-1.523 15.141,-9.182 19.693,-13.324c1.625,10.547 -1.049,25.03 -2.028,37.966c-5.876,-0.835 -10.842,-1.47 -12.565,-1.503c-2.808,-0.474 -15.013,-0.699 -26.397,-0.806c-2.097,-21.627 -3.756,-43.69 -5.437,-65.725c2.684,-4.715 9.173,-5.618 9.651,-12.54c14.215,3.204 29.533,-0.644 39.56,-4.827c-8.146,-6.465 -24.59,-9.322 -38.601,-6.752c-5.33,-3.678 -8.321,-9.688 -17.369,-9.653c-2.195,-16.136 -10.509,-26.157 -20.27,-34.732c-0.687,17.103 2.869,29.939 10.622,38.595c-3.521,3.244 -8.045,10.59 -4.822,17.37c-10.603,8.694 -20.784,17.812 -25.084,32.806c15.137,-2.546 25.22,-15.3 32.802,-22.197c2.897,18.776 -2.4,45.025 -3.678,67.629c-1.705,0.093 -3.405,0.188 -5.103,0.308l-40.266,5.015c-0.898,0.161 -1.786,0.329 -2.677,0.495c4.106,-14.454 -2.962,-30.089 -17.09,-36.31c-15.452,-6.808 -33.508,0.208 -40.314,15.668c-5.156,11.71 -2.368,24.916 6.012,33.585c-38.423,12.232 -62.758,25.766 -62.758,25.766c0,0 80.962,-20.392 180.836,-20.392c99.871,-0.002 180.832,20.39 180.832,20.39Z" style="fill:rgb(0,61,42);fill-rule:nonzero;"/>        <path d="M271.556,117.432l15.864,-7.816c2.766,-1.364 3.902,-4.71 2.543,-7.472c-1.365,-2.763 -4.71,-3.899 -7.472,-2.535l-15.868,7.819c-2.769,1.357 -3.901,4.705 -2.539,7.464c1.361,2.768 4.702,3.903 7.472,2.54Z" style="fill:rgb(0,61,42);fill-rule:nonzero;"/>        <path d="M170.629,144.511l17.584,-1.914c3.066,-0.336 5.274,-3.094 4.944,-6.157c-0.335,-3.06 -3.091,-5.272 -6.152,-4.943l-17.584,1.925c-3.064,0.333 -5.276,3.09 -4.939,6.149c0.331,3.064 3.083,5.279 6.147,4.94Z" style="fill:rgb(0,61,42);fill-rule:nonzero;"/>        <path d="M176.208,103.077l14.704,9.833c2.564,1.712 6.032,1.023 7.736,-1.536c1.72,-2.566 1.031,-6.028 -1.531,-7.744l-14.704,-9.827c-2.565,-1.718 -6.032,-1.026 -7.739,1.534c-1.714,2.561 -1.024,6.025 1.534,7.74Z" style="fill:rgb(0,61,42);fill-rule:nonzero;"/>        <path d="M210.813,91.962c0.861,2.959 3.958,4.66 6.916,3.798c2.954,-0.857 4.658,-3.958 3.797,-6.915l-4.944,-16.986c-0.863,-2.955 -3.954,-4.657 -6.917,-3.793c-2.961,0.861 -4.656,3.951 -3.799,6.912l4.947,16.984Z" style="fill:rgb(0,61,42);fill-rule:nonzero;"/>        <path d="M244.808,97.75c2.819,1.245 6.113,-0.035 7.355,-2.855l7.131,-16.186c1.242,-2.819 -0.044,-6.111 -2.859,-7.354c-2.819,-1.243 -6.112,0.033 -7.354,2.851l-7.129,16.197c-1.244,2.817 0.037,6.114 2.856,7.347Z" style="fill:rgb(0,61,42);fill-rule:nonzero;"/>    </g></svg>