<?xml version="1.0" encoding="UTF-8" standalone="no"?><!DOCTYPE svg PUBLIC "-//W3C//DTD SVG 1.1//EN" "http://www.w3.org/Graphics/SVG/1.1/DTD/svg11.dtd"><svg width="100%" height="100%" viewBox="0 0 1024 512" version="1.1" xmlns="http://www.w3.org/2000/svg" xmlns:xlink="http://www.w3.org/1999/xlink" xml:space="preserve" style="fill-rule:evenodd;clip-rule:evenodd;stroke-linejoin:round;stroke-miterlimit:2;"><title>Madiston LendLoanInvest</title><desc>Madiston offers a commercially available Peer to Peer/Online Lending software platform, configurable to many different marketplace lending models.  Highly automated to save time and money.</desc>    <g id="Madiston" transform="matrix(6.59488,0,0,-6.59488,-1551.41,3005.94)">        <g id="path28" transform="matrix(1,0,0,1,235.975,406.475)">            <path d="M0,0l2.385,0l0,-7.061l4.481,0l0,-2.324l-6.866,0l0,9.385Z" style="fill:rgb(18,90,118);fill-rule:nonzero;"/>        </g>        <g id="path32" transform="matrix(1,0,0,1,245.27,406.475)">            <path d="M0,0l7.182,0l0,-2.337l-4.785,0l0,-1.345l3.933,0l0,-2.177l-3.933,0l0,-1.202l4.785,0l0,-2.324l-7.182,0l0,9.385Z" style="fill:rgb(18,90,118);fill-rule:nonzero;"/>        </g>        <g id="path36" transform="matrix(1,0,0,1,255.17,397.09)">            <path d="M0,0l0,9.385l2.033,0l4.173,-5.246l0,5.246l2.382,0l0,-9.385l-2.022,0l-4.172,5.232l0,-5.232l-2.394,0Z" style="fill:rgb(18,90,118);fill-rule:nonzero;"/>        </g>        <g id="path48" transform="matrix(1,0,0,1,269.15,404.138)">            <path d="M0,0l0,-4.724l1.765,0c1.42,0 2.179,0.959 2.179,2.369c0,1.409 -0.759,2.355 -2.179,2.355l-1.765,0Zm-2.396,2.337l4.335,0c2.925,0 4.424,-2.142 4.424,-4.692c0,-2.564 -1.499,-4.693 -4.424,-4.693l-4.335,0l0,9.385Z" style="fill:rgb(18,90,118);fill-rule:nonzero;"/>        </g>        <g id="path52" transform="matrix(1,0,0,1,284.575,406.475)">            <path d="M0,0l2.384,0l0,-7.061l4.484,0l0,-2.324l-6.868,0l0,9.385Z" style="fill:rgb(18,90,118);fill-rule:nonzero;"/>        </g>        <g id="path56" transform="matrix(1,0,0,1,298.164,399.234)">            <path d="M0,0c1.436,0 2.538,1.131 2.538,2.548c0,1.42 -1.102,2.551 -2.538,2.551c-1.404,0 -2.541,-1.131 -2.541,-2.551c0,-1.417 1.137,-2.548 2.541,-2.548m0,7.423c2.731,0 4.96,-2.191 4.96,-4.875c0,-2.685 -2.229,-4.872 -4.96,-4.872c-2.697,0 -4.963,2.187 -4.963,4.872c0,2.684 2.266,4.875 4.963,4.875" style="fill:rgb(18,90,118);fill-rule:nonzero;"/>        </g>        <g id="path60" transform="matrix(1,0,0,1,309.33,403.396)">            <path d="M0,0l-1.033,-2.758l2.051,0l-1.018,2.758Zm1.187,3.079l3.777,-9.385l-2.613,0l-0.518,1.373l-3.68,0l-0.515,-1.373l-2.613,0l3.788,9.385l2.374,0Z" style="fill:rgb(18,90,118);fill-rule:nonzero;"/>        </g>        <g id="path64" transform="matrix(1,0,0,1,316.565,397.09)">            <path d="M0,0l0,9.385l2.04,0l4.168,-5.246l0,5.246l2.384,0l0,-9.385l-2.024,0l-4.172,5.232l0,-5.232l-2.396,0Z" style="fill:rgb(18,90,118);fill-rule:nonzero;"/>        </g>        <rect id="path66" x="334.243" y="397.09" width="2.397" height="9.385" style="fill:rgb(18,90,118);fill-rule:nonzero;"/>        <g id="path70" transform="matrix(1,0,0,1,339.633,397.09)">            <path d="M0,0l0,9.385l2.037,0l4.171,-5.246l0,5.246l2.384,0l0,-9.385l-2.027,0l-4.17,5.232l0,-5.232l-2.395,0Z" style="fill:rgb(18,90,118);fill-rule:nonzero;"/>        </g>        <g id="path74" transform="matrix(1,0,0,1,354.275,397.09)">            <path d="M0,0l-3.777,9.385l2.615,0l2.348,-6.303l2.358,6.303l2.614,0l-3.787,-9.385l-2.371,0Z" style="fill:rgb(18,90,118);fill-rule:nonzero;"/>        </g>        <g id="path78" transform="matrix(1,0,0,1,362.706,406.475)">            <path d="M0,0l7.182,0l0,-2.337l-4.785,0l0,-1.345l3.934,0l0,-2.177l-3.934,0l0,-1.202l4.785,0l0,-2.324l-7.182,0l0,9.385Z" style="fill:rgb(18,90,118);fill-rule:nonzero;"/>        </g>        <g id="path82" transform="matrix(1,0,0,1,374.571,399.904)">            <path d="M0,0l0,-0.06c0,-0.36 0.491,-0.852 1.58,-0.852c0.901,0 1.187,0.299 1.187,0.577c0,0.396 -0.467,0.636 -1.594,1.024c-1.482,0.491 -3.442,1.211 -3.442,3.149c0,1.795 1.525,2.915 3.658,2.915c2.179,0 3.826,-1.171 3.826,-3.033l0,-0.134l-2.34,0l0,0.085c0,0.458 -0.469,0.997 -1.439,0.997c-0.814,0 -1.138,-0.324 -1.138,-0.635c0,-0.375 0.431,-0.568 1.547,-0.951c1.295,-0.457 3.497,-1.227 3.497,-3.283c0,-1.832 -1.58,-2.793 -3.711,-2.793c-2.241,0 -3.968,1.044 -3.968,2.886l0,0.108l2.337,0Z" style="fill:rgb(18,90,118);fill-rule:nonzero;"/>        </g>        <g id="path86" transform="matrix(1,0,0,1,381.959,406.475)">            <path d="M0,0l8.224,0l0,-2.337l-2.912,0l0,-7.048l-2.399,0l0,7.048l-2.913,0l0,2.337Z" style="fill:rgb(18,90,118);fill-rule:nonzero;"/>        </g>        <g id="path94" transform="matrix(0.170991,0,0,-0.170991,225.529,463.674)">            <path d="M77,293.161l-18.406,0l0,-135.604l24.512,0c15.179,36.254 30.358,72.507 45.537,108.761l47.005,-108.761l24.158,0l0,135.604l-18.229,0l0,-105.758l-45.563,105.758l-14.318,0l-45.017,-105.398l0.321,105.398Z" style="fill:rgb(0,180,194);fill-rule:nonzero;"/>        </g>        <g id="path102" transform="matrix(0.170991,0,0,-0.170991,225.529,463.674)">            <path d="M353.054,293.161l-19.844,0l-18.492,-44.101l-57.223,0l-18.323,44.101l-22.143,0l60.582,-135.603l17.86,0l57.583,135.603Zm-87.854,-60.798l42.864,0l-21.225,-50.8c-7.213,16.934 -14.426,33.867 -21.639,50.8Z" style="fill:rgb(0,180,194);fill-rule:nonzero;"/>        </g>        <g id="path110" transform="matrix(0.170991,0,0,-0.170991,225.529,463.674)">            <path d="M407.462,293.162l-46.757,0l0,-135.44c13.607,0 27.214,-0.03 40.821,0.001c27.477,0.195 55.196,13.841 67.27,38.876c14.623,30.318 3.274,70.193 -29.003,88.352c-9.777,5.501 -21.026,8.179 -32.331,8.211Zm-29.218,-118.234l0,101.034c16.786,0 34.466,2.339 48.874,-4.241c26.363,-12.039 39.948,-49.22 20.613,-74.952c-10.239,-13.627 -27.031,-21.708 -44.341,-21.84c-8.382,-0.022 -16.764,-0.001 -25.146,-0.001Z" style="fill:rgb(0,180,194);fill-rule:nonzero;"/>        </g>        <g id="path112" transform="matrix(0.170991,0,0,-0.170991,225.529,463.674)">            <rect x="486.905" y="157.556" width="18.042" height="135.604" style="fill:rgb(0,180,194);fill-rule:nonzero;"/>        </g>        <g id="path120" transform="matrix(0.170991,0,0,-0.170991,225.529,463.674)">            <path d="M599.954,196.297l-18.802,0c0.148,-5.929 -0.948,-11.886 -5.356,-16.555c-7.96,-8.43 -22.817,-8.302 -30.698,1.775c-5.568,7.119 -4.951,18.844 1.686,24.794c2.209,1.98 4.932,3.298 7.767,4.213c15.082,4.743 31.451,8.392 40.938,20.894c16.08,21.192 3.737,58.228 -26.386,63.465c-22.017,3.828 -47.246,-10.909 -49.311,-37.737c-0.076,-0.993 -0.12,-1.987 -0.142,-2.982l-0.049,-2.806l18.814,0c-0.019,0.952 -0.042,1.904 -0.056,2.856c-0.12,14.563 15.509,28.013 31.381,22.28c11.739,-4.24 20.014,-18.732 12.945,-31.693c-5.805,-10.643 -20.201,-13.661 -33.987,-17.97c-10.724,-3.403 -19.839,-11.713 -23.217,-22.549c-4.153,-13.323 -0.61,-28.418 9.731,-37.92c11.985,-11.012 30.875,-14.067 45.21,-5.953c11.682,6.612 19.412,19.324 19.524,33.154l0.008,2.734Z" style="fill:rgb(0,180,194);fill-rule:nonzero;"/>        </g>        <g id="path128" transform="matrix(0.170991,0,0,-0.170991,225.529,463.674)">            <path d="M691.035,174.927l-29.697,0l0,118.234l-18.036,0l0,-118.234l-29.516,0l0,-17.206l77.249,0l0,17.206Z" style="fill:rgb(0,180,194);fill-rule:nonzero;"/>        </g>        <g id="path136" transform="matrix(0.170991,0,0,-0.170991,225.529,463.674)">            <path d="M771.097,155.685c24.869,0.201 49.482,13.07 62.713,35.756c15.556,26.673 8.582,63.739 -14.341,85.241c-25.482,23.902 -68.381,26.024 -96.88,0.072c-20.192,-18.388 -28.313,-48.889 -17.784,-76.011c10.111,-26.044 36.371,-44.649 64.929,-45.054c0.455,-0.004 0.909,-0.005 1.363,-0.004Zm-0.46,17.715c-23.341,0.197 -46.249,17.35 -51.2,41.238c-4.712,22.734 7.044,48.059 29.843,58.591c22.148,10.231 50.83,3.272 66.195,-18.032c12.348,-17.121 12.429,-42.198 -0.458,-59.516c-10.072,-13.535 -26.012,-22.139 -43.697,-22.281c-0.227,-0.001 -0.455,-0.001 -0.683,0Z" style="fill:rgb(0,180,194);fill-rule:nonzero;"/>        </g>        <g id="path144" transform="matrix(0.170991,0,0,-0.170991,225.529,463.674)">            <path d="M963.117,293.161l-18.422,0l-71.15,-107.84l0,107.84l-18.55,0l0,-135.604l21.483,0l68.247,103.738l0,-103.738l18.392,0l0,135.604Z" style="fill:rgb(0,180,194);fill-rule:nonzero;"/>        </g>    </g></svg>