<?xml version="1.0" encoding="UTF-8" standalone="no"?><!DOCTYPE svg PUBLIC "-//W3C//DTD SVG 1.1//EN" "http://www.w3.org/Graphics/SVG/1.1/DTD/svg11.dtd"><svg width="100%" height="100%" viewBox="0 0 1024 512" version="1.1" xmlns="http://www.w3.org/2000/svg" xmlns:xlink="http://www.w3.org/1999/xlink" xml:space="preserve" style="fill-rule:evenodd;clip-rule:evenodd;stroke-linejoin:round;stroke-miterlimit:2;"><title>Lend</title><desc>LEND is a brand and platform operated by Switzerlend AG with its offices based in Zürich. Switzerlend has a lending license and as a financial intermediary is a member of and supervised by SRO PolyReg.</desc>    <g transform="matrix(1.77343,0,0,1.77368,30.3748,-110.798)">        <g transform="matrix(31.6757,0,0,31.6757,-16,117)">            <path d="M13.73,0.017c0,-0.009 -0.008,-0.017 -0.017,-0.017l-5.636,0c-0.009,0 -0.017,0.008 -0.017,0.017l0,5.636c0,0.009 0.008,0.017 0.017,0.017l5.636,0c0.009,0 0.017,-0.008 0.017,-0.017l0,-5.636Z" style="fill:rgb(234,91,98);"/>        </g>        <g id="L" transform="matrix(31.6757,0,0,31.6757,-178.813,-17.6218)">            <path d="M5.5,8.74l2.83,0l0,0.26l-3.19,0l0,-4l0.36,0l0,3.74Z" style="fill:rgb(41,150,204);fill-rule:nonzero;"/>        </g>        <g id="D" transform="matrix(31.6757,0,0,31.6757,-178.813,-17.6218)">            <path d="M23.16,6.24c-0.084,-0.235 -0.217,-0.45 -0.39,-0.63c-0.169,-0.175 -0.374,-0.311 -0.6,-0.4c-0.246,-0.094 -0.507,-0.142 -0.77,-0.14l-1.8,0l0,3.93l1.8,0c0.263,0.003 0.525,-0.045 0.77,-0.14c0.227,-0.088 0.431,-0.225 0.6,-0.4c0.173,-0.18 0.306,-0.395 0.39,-0.63c0.184,-0.535 0.184,-1.115 0,-1.65l0,0.06Zm-0.22,0.82c0.004,0.244 -0.033,0.488 -0.11,0.72c-0.066,0.196 -0.171,0.377 -0.31,0.53c-0.134,0.144 -0.298,0.257 -0.48,0.33c-0.201,0.076 -0.415,0.114 -0.63,0.11l-1.46,0l0,-3.37l1.45,0c0.215,-0.004 0.429,0.033 0.63,0.11c0.183,0.073 0.347,0.186 0.48,0.33c0.139,0.153 0.244,0.334 0.31,0.53c0.076,0.229 0.113,0.469 0.11,0.71l0.01,0Zm0,-1.15l0,0.05l0,-0.05Zm0,2.25l0,0.05l0,-0.05Z" style="fill:rgb(41,150,204);fill-rule:nonzero;"/>        </g>        <g id="N" transform="matrix(31.6757,0,0,31.6757,-178.813,-17.6218)">            <path d="M16,5.39c-0.216,-0.004 -0.431,0.037 -0.63,0.12c-0.179,0.078 -0.34,0.194 -0.47,0.34c-0.133,0.148 -0.235,0.322 -0.3,0.51c-0.069,0.206 -0.103,0.423 -0.1,0.64l0,2l-0.35,0l0,-2c-0.002,-0.259 0.042,-0.516 0.13,-0.76c0.082,-0.226 0.207,-0.433 0.37,-0.61c0.162,-0.176 0.36,-0.316 0.58,-0.41c0.494,-0.197 1.046,-0.197 1.54,0c0.22,0.094 0.418,0.234 0.58,0.41c0.163,0.177 0.289,0.384 0.37,0.61c0.088,0.244 0.132,0.501 0.13,0.76l0,2l-0.36,0l0,-2c0.003,-0.217 -0.031,-0.434 -0.1,-0.64c-0.062,-0.187 -0.161,-0.361 -0.29,-0.51c-0.13,-0.146 -0.291,-0.262 -0.47,-0.34c-0.199,-0.084 -0.414,-0.125 -0.63,-0.12Z" style="fill:white;fill-rule:nonzero;"/>        </g>        <g transform="matrix(31.6757,0,0,31.6757,-178.813,-17.6218)">            <path d="M12.45,6.9l-3.45,0c0.011,-0.179 0.051,-0.355 0.12,-0.52c0.085,-0.195 0.211,-0.369 0.37,-0.51c0.164,-0.142 0.354,-0.251 0.56,-0.32c0.222,-0.075 0.455,-0.112 0.69,-0.11l1.69,0l0,-0.36l-1.68,0c-0.276,-0.001 -0.55,0.046 -0.81,0.14c-0.243,0.086 -0.467,0.219 -0.66,0.39c-0.189,0.173 -0.339,0.385 -0.44,0.62c-0.214,0.533 -0.214,1.127 0,1.66c0.1,0.239 0.25,0.454 0.44,0.63c0.193,0.171 0.417,0.304 0.66,0.39c0.26,0.094 0.534,0.141 0.81,0.14l1.69,0l0,-0.36l-1.69,0c-0.234,0.002 -0.468,-0.035 -0.69,-0.11c-0.206,-0.069 -0.396,-0.177 -0.56,-0.32c-0.158,-0.142 -0.284,-0.316 -0.37,-0.51c-0.07,-0.159 -0.114,-0.327 -0.13,-0.5l3.44,0l0.01,-0.35Z" style="fill:rgb(41,150,204);fill-rule:nonzero;"/>        </g>    </g></svg>