<?xml version="1.0" encoding="UTF-8" standalone="no"?><!DOCTYPE svg PUBLIC "-//W3C//DTD SVG 1.1//EN" "http://www.w3.org/Graphics/SVG/1.1/DTD/svg11.dtd"><svg width="100%" height="100%" viewBox="0 0 1024 512" version="1.1" xmlns="http://www.w3.org/2000/svg" xmlns:xlink="http://www.w3.org/1999/xlink" xml:space="preserve" style="fill-rule:evenodd;clip-rule:evenodd;stroke-linejoin:round;stroke-miterlimit:2;"><title>Greyfriars</title><desc>Since our inception in 1989, we have become a reputable and leading wealth management specialist in Leicestershire. Our reputation has led us to now manage over £600 million in assets with a client base expanding some 26-Years.</desc>    <g transform="matrix(3.20348,0,0,3.20348,-890.886,-642.718)">        <g transform="matrix(1.99474,0,0,1.99474,340.47,252.564)">            <path d="M10.7,13.3l2.5,1l0,5.1c-0.8,0.1 -1.7,0.2 -2.8,0.2c-2.9,0 -4.8,-0.9 -6.2,-2.9c-1,-1.5 -1.5,-3.4 -1.5,-5.6c0,-2.8 0.9,-5.2 2.4,-6.9c1.3,-1.5 3.2,-2.2 6,-2.2c1.3,0 2,0.1 2.7,0.2l1.2,3.6l0.8,0l0,-4.3l-0.2,-0.1c-2.2,-0.6 -3.2,-0.6 -5.2,-0.6c-1.5,0.1 -2.7,0.2 -4,0.6c-3.9,1.1 -6.4,5 -6.4,9.8c0,2.8 0.8,5.1 2.3,6.9c1.7,1.9 3.7,2.7 7.2,2.7c1.9,0 2.7,-0.1 5.8,-1l0.2,-0.1l0,-5.4l2.5,-1l0,-0.6l-7.4,0l0,0.6l0.1,0Zm42.8,-6l2,1l-3.5,9.7c-0.2,-0.9 -0.3,-1.1 -0.6,-2c-0.3,-0.5 -0.4,-0.8 -0.4,-1l-2.7,-7l2,-0.8l0,-0.6l-6.3,0l0,0.6l1.7,0.8l5,12.4l-1,2.5c-0.7,1.7 -1.2,2.3 -2.5,2.7l-0.5,0.1l-0.9,-1.7l-1.5,0l0,2.7l0.1,0c0.5,0 1.1,0.1 1.5,0.1c2.6,0 3.9,-1 5,-3.6l6,-14.9l1.9,-1l0,-0.7l-5.5,0l0,0.7l0.2,0Zm16.1,-7.3c-4,0 -6.5,2.1 -6.5,5.5l0,1.2l-2.5,0l0,1l2.5,0l0,11.2l-2.5,1l0,0.6l7.8,0l0,-0.6l-3,-1l0,-11.3l4.3,0l0,-1l-4.3,0l0,-1.6c0,-1.6 0.3,-2.6 1.2,-3.3c0.7,-0.5 1.7,-0.7 2.6,-0.7l0.5,0l0.7,1.8l1.9,0l0,-2.4c-0.6,-0.3 -1.6,-0.4 -2.7,-0.4Zm19.3,6.3l-4.7,1.1l0,0.6l2.4,0.7l0,10.1l-2.4,1l0,0.7l7.2,0l0,-0.7l-2.5,-1m-1.2,-15.8c1.1,0 1.6,-0.5 1.6,-1.5c0,-1 -0.5,-1.4 -1.6,-1.4c-1.1,0 -1.5,0.5 -1.5,1.5c0,1 0.5,1.4 1.5,1.4Zm12.5,15.9c-0.7,0.1 -1,0.2 -1.5,0.2c-1.8,0 -2.9,-1 -2.9,-2.4c0,-1.2 0.7,-1.9 2.1,-2.3c0.8,-0.2 1.5,-0.3 2.3,-0.5l0,-0.8c-1.6,0.2 -3.1,0.4 -4,0.6c-1.9,0.5 -2.9,1.6 -2.9,3.4c0,2 1.5,3.4 3.7,3.4c0.5,0 1,-0.1 1.4,-0.2c0.1,0 0.5,-0.2 1.3,-0.5l0.6,-0.3l-0.1,0l0,-0.6Zm3.2,-1.3l0,-7.8c0,-2.3 -1.3,-3.4 -4.1,-3.4c-1.3,0 -2.6,0.3 -4.7,0.9l-0.2,0.1l0,2.6l1.5,0l1.2,-2.4c0.4,0 0.5,-0.1 0.9,-0.1c2.3,0 3,0.6 3,2.5l0,9.4c0.2,1 0.6,1.3 1.4,1.3c0.3,0 1,-0.1 1.3,-0.2l2,-0.7l0,-0.5l-1.5,-0.4c-0.8,-0.4 -0.8,-0.5 -0.8,-1.3Zm23,-4.6l-2.3,-1.4c-1.3,-0.8 -1.9,-1.5 -1.9,-2.3c0,-1.2 1.1,-1.9 2.8,-1.9c0.6,0 0.7,0 1.2,0.1l1.1,2.3l1,0l0,-2.8l-0.1,0c-1.6,-0.3 -2.7,-0.5 -3.7,-0.5c-2.7,0 -4.3,1.4 -4.3,3.8c0,1.4 0.6,2.1 2.3,3.3l2.6,1.7c1.2,0.8 1.5,1.3 1.5,2.2c0,1.4 -1.1,2.2 -3.1,2.2c-0.5,0 -0.7,0 -1.2,-0.1l-1.3,-2.6l-1,0l0,3l0.2,0.1c1.4,0.3 3.1,0.6 4,0.6c2.6,0 4.4,-1.7 4.4,-4.2c0.3,-1.5 -0.4,-2.4 -2.2,-3.5Zm-102.6,-5l0,-1.7l-4.8,1.1l0,0.6l2.5,0.7l0,10.1l-2.5,1l0,0.7l7.8,0l0,-0.7l-3,-1l0,-10.8m0.9,-0.4l0,0.8c0.5,-0.1 1,-0.2 1.4,-0.2c0.2,0 0.5,0 0.9,0.1l0.9,1.6l1.7,0l0,-3c-0.4,-0.2 -0.8,-0.4 -1.3,-0.4c-0.7,0 -1.9,0.4 -3.6,1.1Zm52.3,0l0,0.8c0.5,-0.1 1,-0.2 1.4,-0.2c0.2,0 0.5,0 0.9,0.1l0.9,1.6l1.7,0l0,-3c-0.4,-0.2 -0.8,-0.4 -1.3,-0.4c-0.8,0 -1.9,0.4 -3.6,1.1Zm-0.9,0.4l0,-1.7l-4.8,1.1l0,0.6l2.5,0.7l0,10.1l-2.5,1l0,0.7l7.8,0l0,-0.7l-3,-1l0,-10.8m36.5,0l0,-1.7l-4.7,1.1l0,0.6l2.4,0.7l0,10.1l-2.4,1l0,0.7l7.7,0l0,-0.7l-3,-1l0,-10.8m0.9,-0.4l0,0.8c0.5,-0.1 1,-0.2 1.4,-0.2c0.2,0 0.5,0 0.9,0.1l0.9,1.6l1.7,0l0,-3c-0.4,-0.2 -0.8,-0.4 -1.3,-0.4c-0.7,0 -1.9,0.4 -3.6,1.1Zm-79.1,5.5l8.4,0c-0.1,-1.7 -0.1,-2.2 -0.3,-3.1c-0.5,-2.1 -2.5,-3.5 -4.9,-3.5c-3.6,0 -6.4,3.2 -6.4,7.5c0,4 2.5,6.6 6.1,6.6c1.2,0 3.6,-0.4 5.2,-1l-0.1,-0.8l-0.2,0c-1,0.2 -2.3,0.3 -3,0.3c-1.5,0 -2.8,-0.4 -3.8,-1.2c-1.3,-1.1 -1.8,-2.4 -1.8,-4.9l0,-0.5c0.2,-3.5 1.4,-5.1 3.6,-5.1c2.1,0 3,1.4 3,4.5l-5.8,0.3l0,0.9Z" style="fill:rgb(167,123,116);fill-rule:nonzero;"/>        </g>        <g transform="matrix(2.00559,0,0,2.00559,278.724,233.714)">            <path d="M23.3,6.2c0,-0.5 -0.2,-0.9 -0.6,-1.2l-0.4,-0.3c-3,-2.2 -6.4,-3.7 -10,-4.6l-0.6,-0.1l-0.7,0.2c-3.6,0.9 -7,2.4 -10,4.6l-0.4,0.3c-0.3,0.2 -0.6,0.7 -0.6,1.1l0,21.4l23.2,0l0,-21.4l0.1,0Zm-4.9,16.5l-13.4,0l0,-14c0,-0.4 0.2,-0.7 0.5,-0.9c1.9,-1.2 4,-2.1 6.2,-2.7c2.2,0.6 4.2,1.5 6.2,2.7c0.3,0.2 0.5,0.5 0.5,0.8l0,14.1Zm4.9,13.7l0,-5l-23.3,0l0,5l8.9,0c-0.1,4.3 2.3,8.5 6.6,10.3l1.9,-4.6c-2.3,-1 -3.7,-3.4 -3.5,-5.8l9.4,0l0,0.1Z" style="fill:rgb(167,123,116);fill-rule:nonzero;"/>        </g>    </g></svg>