<?xml version="1.0" encoding="UTF-8" standalone="no"?><!DOCTYPE svg PUBLIC "-//W3C//DTD SVG 1.1//EN" "http://www.w3.org/Graphics/SVG/1.1/DTD/svg11.dtd"><svg width="100%" height="100%" viewBox="0 0 1024 512" version="1.1" xmlns="http://www.w3.org/2000/svg" xmlns:xlink="http://www.w3.org/1999/xlink" xml:space="preserve" style="fill-rule:evenodd;clip-rule:evenodd;stroke-linejoin:round;stroke-miterlimit:2;"><title>Capitalia LT</title><desc></desc>    <g transform="matrix(3.63513,0,0,1.6501,-2621.54,-2147.94)">        <g transform="matrix(36.3146,0,0,80,785,1485.48)">            <path d="M0.696,-0.098c-0.031,0.036 -0.07,0.065 -0.116,0.086c-0.046,0.02 -0.099,0.031 -0.159,0.031c-0.055,0 -0.105,-0.009 -0.152,-0.027c-0.046,-0.018 -0.086,-0.044 -0.12,-0.077c-0.034,-0.033 -0.061,-0.072 -0.08,-0.118c-0.019,-0.046 -0.029,-0.097 -0.029,-0.152c0,-0.057 0.01,-0.108 0.029,-0.154c0.02,-0.046 0.047,-0.085 0.082,-0.118c0.035,-0.032 0.075,-0.057 0.122,-0.074c0.047,-0.017 0.097,-0.026 0.151,-0.026c0.05,0 0.099,0.009 0.147,0.026c0.049,0.018 0.088,0.044 0.118,0.078l-0.116,0.116c-0.016,-0.022 -0.037,-0.038 -0.063,-0.049c-0.026,-0.011 -0.053,-0.016 -0.08,-0.016c-0.03,0 -0.057,0.006 -0.082,0.017c-0.025,0.01 -0.047,0.026 -0.065,0.045c-0.018,0.019 -0.032,0.042 -0.042,0.069c-0.01,0.026 -0.015,0.055 -0.015,0.086c0,0.032 0.005,0.061 0.015,0.088c0.01,0.027 0.024,0.049 0.042,0.069c0.017,0.019 0.038,0.033 0.063,0.044c0.025,0.011 0.052,0.016 0.081,0.016c0.034,0 0.064,-0.007 0.089,-0.02c0.025,-0.013 0.046,-0.031 0.061,-0.052l0.119,0.112Z" style="fill:rgb(0,113,143);fill-rule:nonzero;"/>        </g>        <g transform="matrix(36.3146,0,0,80,814.379,1485.48)">            <path d="M0.553,0l-0.055,-0.139l-0.274,0l-0.052,0.139l-0.186,0l0.297,-0.708l0.166,0l0.294,0.708l-0.19,0Zm-0.19,-0.519l-0.09,0.243l0.178,0l-0.088,-0.243Z" style="fill:rgb(0,113,143);fill-rule:nonzero;"/>        </g>        <g transform="matrix(36.3146,0,0,80,845.391,1485.48)">            <path d="M0.61,-0.49c0,0.041 -0.008,0.076 -0.023,0.104c-0.015,0.029 -0.036,0.052 -0.062,0.069c-0.026,0.017 -0.056,0.03 -0.09,0.038c-0.034,0.008 -0.069,0.012 -0.106,0.012l-0.085,0l0,0.267l-0.171,0l0,-0.708l0.26,0c0.039,0 0.075,0.004 0.109,0.011c0.033,0.008 0.063,0.02 0.088,0.037c0.025,0.017 0.044,0.04 0.059,0.067c0.014,0.028 0.021,0.062 0.021,0.103Zm-0.171,0.001c0,-0.017 -0.003,-0.03 -0.01,-0.041c-0.007,-0.011 -0.016,-0.019 -0.027,-0.025c-0.011,-0.006 -0.024,-0.01 -0.038,-0.012c-0.015,-0.002 -0.03,-0.003 -0.045,-0.003l-0.075,0l0,0.167l0.072,0c0.016,0 0.031,-0.001 0.046,-0.004c0.015,-0.003 0.028,-0.007 0.04,-0.014c0.011,-0.007 0.02,-0.015 0.027,-0.026c0.007,-0.012 0.01,-0.025 0.01,-0.042Z" style="fill:rgb(0,113,143);fill-rule:nonzero;"/>        </g>        <g transform="matrix(36.3146,0,0,80,870.902,1485.48)">            <rect x="0.073" y="-0.708" width="0.172" height="0.708" style="fill:rgb(0,113,143);fill-rule:nonzero;"/>        </g>        <g transform="matrix(36.3146,0,0,80,886.99,1485.48)">            <path d="M0.376,-0.562l0,0.562l-0.171,0l0,-0.562l-0.2,0l0,-0.146l0.571,0l0,0.146l-0.2,0Z" style="fill:rgb(0,113,143);fill-rule:nonzero;"/>        </g>        <g transform="matrix(36.3146,0,0,80,908.415,1485.48)">            <path d="M0.553,0l-0.055,-0.139l-0.274,0l-0.052,0.139l-0.186,0l0.297,-0.708l0.166,0l0.294,0.708l-0.19,0Zm-0.19,-0.519l-0.09,0.243l0.178,0l-0.088,-0.243Z" style="fill:rgb(0,113,143);fill-rule:nonzero;"/>        </g>        <g transform="matrix(36.3146,0,0,80,938.671,1485.48)">            <path d="M0.073,0l0,-0.708l0.172,0l0,0.559l0.274,0l0,0.149l-0.446,0Z" style="fill:rgb(0,113,143);fill-rule:nonzero;"/>        </g>        <g transform="matrix(36.3146,0,0,80,960.799,1485.48)">            <rect x="0.073" y="-0.708" width="0.172" height="0.708" style="fill:rgb(0,113,143);fill-rule:nonzero;"/>        </g>        <g transform="matrix(36.3146,0,0,80,975.331,1485.48)">            <path d="M0.553,0l-0.055,-0.139l-0.274,0l-0.052,0.139l-0.186,0l0.297,-0.708l0.166,0l0.294,0.708l-0.19,0Zm-0.19,-0.519l-0.09,0.243l0.178,0l-0.088,-0.243Z" style="fill:rgb(0,113,143);fill-rule:nonzero;"/>        </g>        <g transform="matrix(0.752587,0,0,1.65673,196.897,-964.471)">            <path d="M724.963,1493.69l-26.277,-15.171l26.277,-15.518l0,30.689Zm1.4,-30.589l25.954,15.416l-25.954,14.985l0,-30.401Zm-29.009,-17.23l26.854,15.95l-26.854,15.858l0,-31.808Zm56.292,31.807l-26.691,-15.853l26.691,-15.762l0,31.615Zm-28.683,-17.037l-26.749,-15.888l26.749,-15.443l0,31.331Zm27.987,-15.793l-26.587,15.7l0,-31.05l26.587,15.35Z" style="fill:rgb(0,113,143);"/>        </g>    </g></svg>