<?xml version="1.0" encoding="UTF-8" standalone="no"?><!DOCTYPE svg PUBLIC "-//W3C//DTD SVG 1.1//EN" "http://www.w3.org/Graphics/SVG/1.1/DTD/svg11.dtd"><svg width="100%" height="100%" viewBox="0 0 1024 512" version="1.1" xmlns="http://www.w3.org/2000/svg" xmlns:xlink="http://www.w3.org/1999/xlink" xml:space="preserve" style="fill-rule:evenodd;clip-rule:evenodd;stroke-linejoin:round;stroke-miterlimit:2;"><title>Aave</title><desc>Aave is an open source lending protocol that provides a friendly user experience for anyone to deposit and borrow cryptographic assets. Deposit allows you to earn passive income based on your holdings. Borrow allows you to unlock liquidity without been required to sell your assets.</desc>    <g id="Group_4051" transform="matrix(1.05068,0,0,1.05068,-1.1399,140.441)">        <path id="Path_2431" d="M478.82,203.2l-74.74,-181.27c-0.59,-1.654 -0.901,-3.394 -0.92,-5.15c-0.137,-3.715 1.18,-7.34 3.67,-10.1c2.596,-2.652 6.215,-4.056 9.92,-3.85c2.778,0.032 5.477,0.931 7.72,2.57c2.352,1.743 4.19,4.089 5.32,6.79l71.07,177.42l71.07,-177.42c1.13,-2.701 2.968,-5.047 5.32,-6.79c2.251,-1.645 4.962,-2.544 7.75,-2.57c3.702,-0.206 7.318,1.199 9.91,3.85c2.497,2.756 3.819,6.383 3.68,10.1c-0.029,1.752 -0.339,3.487 -0.92,5.14l-74.77,181.28c-4.21,9.37 -10.47,14 -18.74,14l-6.61,0c-8.26,-0.04 -14.5,-4.63 -18.73,-14Z" style="fill:url(#_Linear1);fill-rule:nonzero;"/>        <path id="Path_2432" d="M630.33,211.65c-2.566,-2.579 -3.962,-6.103 -3.86,-9.74l0,-183.66c-0.067,-3.681 1.321,-7.244 3.86,-9.91c2.514,-2.672 6.064,-4.132 9.73,-4l121.38,0c3.472,-0.097 6.824,1.307 9.19,3.85c2.512,2.388 3.909,5.725 3.85,9.19c0.099,3.418 -1.31,6.711 -3.85,9c-2.467,2.368 -5.771,3.669 -9.19,3.62l-107.44,0l0,66.87l96.6,0c3.471,-0.092 6.818,1.316 9.18,3.86c2.488,2.401 3.881,5.723 3.85,9.18c0.099,3.418 -1.31,6.711 -3.85,9c-2.449,2.395 -5.755,3.717 -9.18,3.67l-96.6,0l0,67.22l107.44,0c3.473,-0.104 6.825,1.306 9.18,3.86c2.519,2.38 3.921,5.715 3.86,9.18c0.099,3.42 -1.314,6.715 -3.86,9c-2.452,2.39 -5.756,3.711 -9.18,3.67l-121.38,0c-3.661,0.27 -7.25,-1.154 -9.73,-3.86Z" style="fill:url(#_Linear2);fill-rule:nonzero;"/>        <path id="Path_2433" d="M421,198.06l-74.75,-181.28c-4.25,-9.36 -10.47,-13.95 -18.74,-13.95l-6.62,0c-8.26,0 -14.5,4.59 -18.73,14l-32.5,79l-24.61,0c-7.338,0.049 -13.361,6.072 -13.41,13.41l0,0.18c0.043,7.34 6.07,13.367 13.41,13.41l13.22,0l-31,75.3c-0.589,1.65 -0.9,3.388 -0.92,5.14c-0.148,3.716 1.171,7.346 3.67,10.1c2.595,2.654 6.214,4.062 9.92,3.86c2.773,-0.041 5.467,-0.939 7.71,-2.57c2.356,-1.746 4.197,-4.095 5.33,-6.8l34.15,-85l23.5,0c7.363,-0.065 13.381,-6.147 13.37,-13.51l0,-0.35c-0.038,-7.338 -6.062,-13.367 -13.4,-13.41l-12.67,0l26.26,-65.2l71.07,177.42c1.13,2.703 2.972,5.05 5.33,6.79c2.238,1.641 4.935,2.54 7.71,2.57c3.705,0.206 7.324,-1.198 9.92,-3.85c2.5,-2.758 3.818,-6.391 3.67,-10.11c0.076,-1.761 -0.227,-3.517 -0.89,-5.15Z" style="fill:url(#_Linear3);fill-rule:nonzero;"/>        <path id="Path_2434" d="M197.67,198.06l-74.73,-181.28c-4.24,-9.36 -10.48,-13.95 -18.74,-13.95l-6.61,0c-8.27,0 -14.51,4.59 -18.74,14l-32.5,79l-24.61,0c-7.336,0.049 -13.357,6.074 -13.4,13.41l0,0.18c0.038,7.34 6.06,13.371 13.4,13.42l13.26,0l-31,75.3c-0.608,1.621 -0.946,3.33 -1,5.06c-0.15,3.717 1.169,7.347 3.67,10.1c2.595,2.654 6.214,4.062 9.92,3.86c2.773,-0.04 5.467,-0.938 7.71,-2.57c2.356,-1.746 4.197,-4.095 5.33,-6.8l34.16,-85l23.7,0c7.336,-0.049 13.357,-6.074 13.4,-13.41l0,-0.38c-0.038,-7.338 -6.062,-13.367 -13.4,-13.41l-12.68,0l26.08,-65.21l71.11,177.41c1.139,2.701 2.98,5.049 5.33,6.8c2.247,1.631 4.944,2.529 7.72,2.57c3.706,0.198 7.323,-1.209 9.92,-3.86c2.49,-2.76 3.807,-6.385 3.67,-10.1c0.051,-1.763 -0.279,-3.517 -0.97,-5.14Z" style="fill:url(#_Linear4);fill-rule:nonzero;"/>        <path id="Path_7142" d="M973.71,74.79c-0.657,-39.738 -33.527,-72.069 -73.27,-72.069c-39.743,0 -72.613,32.331 -73.27,72.069c-0.01,0.187 -0.01,0.373 0,0.56l0,133.65c0,4.471 3.679,8.15 8.15,8.15c4.471,0 8.15,-3.679 8.15,-8.15l0,-23.71c-0.003,-0.095 -0.005,-0.19 -0.005,-0.285c0,-4.471 3.679,-8.15 8.15,-8.15c4.471,0 8.15,3.679 8.15,8.15c0,0.095 -0.002,0.19 -0.005,0.285l0,11.23c-0.003,0.095 -0.005,0.19 -0.005,0.285c0,4.471 3.679,8.15 8.15,8.15c4.471,0 8.15,-3.679 8.15,-8.15c0,-0.095 -0.002,-0.19 -0.005,-0.285l0,-11.23c0,-0.003 0,-0.007 0,-0.01c0,-4.46 3.67,-8.13 8.13,-8.13l0.02,0c4.465,0 8.14,3.675 8.14,8.14l0,3.07c0.153,4.361 3.782,7.865 8.145,7.865c4.363,0 7.992,-3.504 8.145,-7.865l0,-3.07c-0.003,-0.095 -0.005,-0.19 -0.005,-0.285c0,-4.471 3.679,-8.15 8.15,-8.15c4.471,0 8.15,3.679 8.15,8.15c0,0.095 -0.002,0.19 -0.005,0.285l0,11.23c-0.003,0.095 -0.005,0.19 -0.005,0.285c0,4.471 3.679,8.15 8.15,8.15c4.471,0 8.15,-3.679 8.15,-8.15c0,-0.095 -0.002,-0.19 -0.005,-0.285l0,-11.23c0,-4.465 3.675,-8.14 8.14,-8.14c0.003,0 0.007,0 0.01,0c4.465,0 8.14,3.675 8.14,8.14l0,23.71c0.153,4.361 3.782,7.865 8.145,7.865c4.363,0 7.992,-3.504 8.145,-7.865l0,-133.65c-0.05,-0.19 -0.07,-0.35 -0.08,-0.56Zm-100.3,11.73c-7.2,0 -13,-6.68 -13,-15c0,-8.32 5.84,-14.95 13,-14.95c7.16,0 13,6.68 13,14.95c0,8.27 -5.83,15 -13,15Zm27.59,21.11c-6.54,0 -11.84,-3.9 -11.84,-8.7c0,-4.8 5.32,-1.93 11.84,-1.93c6.52,0 11.83,-2.9 11.83,1.91c0,4.81 -5.28,8.69 -11.82,8.69l-0.01,0.03Zm26.44,-21.11c-7.2,0 -13,-6.68 -13,-15c0,-8.32 5.84,-14.95 13,-14.95c7.16,0 13,6.68 13,14.95c0,8.27 -5.84,15 -13,15Z" style="fill:url(#_Linear5);fill-rule:nonzero;"/>    </g>    <defs>        <linearGradient id="_Linear1" x1="0" y1="0" x2="1" y2="0" gradientUnits="userSpaceOnUse" gradientTransform="matrix(774.09,-197.45,197.45,774.09,14.1774,225.223)"><stop offset="0" style="stop-color:rgb(49,186,198);stop-opacity:1"/><stop offset="1" style="stop-color:rgb(182,80,158);stop-opacity:1"/></linearGradient>        <linearGradient id="_Linear2" x1="0" y1="0" x2="1" y2="0" gradientUnits="userSpaceOnUse" gradientTransform="matrix(773.709,-197.587,197.587,773.709,26.5443,281.2)"><stop offset="0" style="stop-color:rgb(49,186,198);stop-opacity:1"/><stop offset="1" style="stop-color:rgb(182,80,158);stop-opacity:1"/></linearGradient>        <linearGradient id="_Linear3" x1="0" y1="0" x2="1" y2="0" gradientUnits="userSpaceOnUse" gradientTransform="matrix(774.226,-197.45,197.45,774.226,8.3682,200.994)"><stop offset="0" style="stop-color:rgb(49,186,198);stop-opacity:1"/><stop offset="1" style="stop-color:rgb(182,80,158);stop-opacity:1"/></linearGradient>        <linearGradient id="_Linear4" x1="0" y1="0" x2="1" y2="0" gradientUnits="userSpaceOnUse" gradientTransform="matrix(774.226,-198.061,198.061,774.226,-7.6698,148.62)"><stop offset="0" style="stop-color:rgb(49,186,198);stop-opacity:1"/><stop offset="1" style="stop-color:rgb(182,80,158);stop-opacity:1"/></linearGradient>        <linearGradient id="_Linear5" x1="0" y1="0" x2="1" y2="0" gradientUnits="userSpaceOnUse" gradientTransform="matrix(156.237,-156.976,156.976,156.237,823.729,207.91)"><stop offset="0" style="stop-color:rgb(48,186,198);stop-opacity:1"/><stop offset="1" style="stop-color:rgb(182,80,158);stop-opacity:1"/></linearGradient>    </defs></svg>