<?xml version="1.0" encoding="UTF-8" standalone="no"?><!DOCTYPE svg PUBLIC "-//W3C//DTD SVG 1.1//EN" "http://www.w3.org/Graphics/SVG/1.1/DTD/svg11.dtd"><svg width="100%" height="100%" viewBox="0 0 1024 512" version="1.1" xmlns="http://www.w3.org/2000/svg" xmlns:xlink="http://www.w3.org/1999/xlink" xml:space="preserve" style="fill-rule:evenodd;clip-rule:evenodd;stroke-linejoin:round;stroke-miterlimit:2;"><title>Credit.fr</title><desc>Credit.fr is an online platform for leading business loans in its market. By combining the best of technology and banking expertise, it revolutionizes access to professional credit by offering a 100% digital and ultra-fast service.Since its creation in 2015, its innovative approach has allowed it to attract a large community of private lenders (21,000) and institutional and finance business projects throughout France.</desc>    <g id="credit-fr-512x256.svg" transform="matrix(2.21609,0,0,2.21609,-55.0425,-27.6597)">        <path d="M171.56,100.89c-11.188,-29.05 -39.26,-48.32 -70.39,-48.32c-41.38,0 -75.43,34.05 -75.43,75.43c0,41.38 34.05,75.43 75.43,75.43c31.13,0 59.202,-19.27 70.39,-48.32l-27.1,-27.11l27.1,-27.11Z" style="fill:rgb(90,90,90);fill-rule:nonzero;"/>        <path d="M101.43,151.57c-12.933,0 -23.575,-10.642 -23.575,-23.575c0,-12.933 10.642,-23.575 23.575,-23.575c7.868,-0.075 15.238,3.934 19.45,10.58l17.12,-17.65c-8.992,-10.886 -22.421,-17.167 -36.54,-17.09c-0.23,-0.003 -0.461,-0.005 -0.691,-0.005c-26.189,0 -47.74,21.551 -47.74,47.74c0,26.189 21.551,47.74 47.74,47.74c0.23,0 0.461,-0.002 0.691,-0.005c14.73,0 28.29,-6.48 36.54,-17.09l-17.12,-17.64c-4.215,6.643 -11.584,10.647 -19.45,10.57Z" style="fill:white;fill-rule:nonzero;"/>        <path d="M145,128l27.11,27.11c2.95,-8.25 5.3,-17.68 5.3,-27.11c0.065,-9.3 -1.737,-18.519 -5.3,-27.11l-27.11,27.11Z" style="fill:rgb(0,214,233);fill-rule:nonzero;"/>        <path d="M222.57,129.77c-1.137,-1.666 -2.793,-2.911 -4.71,-3.54c-1.693,-0.671 -3.482,-1.07 -5.3,-1.18c-2.017,0.05 -4.01,0.449 -5.89,1.18c-1.596,0.633 -3.013,1.646 -4.13,2.95c-1.13,1.373 -1.937,2.983 -2.36,4.71c-0.517,1.918 -0.717,3.908 -0.59,5.89c0.108,2.01 0.506,3.994 1.18,5.89c0.627,1.767 1.634,3.374 2.95,4.71c1.117,1.304 2.534,2.317 4.13,2.95c1.693,0.671 3.482,1.07 5.3,1.18c3.878,0.055 7.573,-1.685 10,-4.71l4.71,4.71c-1.77,2.36 -4.13,3.54 -6.48,4.71c-5.245,2.355 -11.255,2.355 -16.5,0c-2.365,-1.025 -4.552,-2.419 -6.48,-4.13c-1.711,-1.928 -3.105,-4.115 -4.13,-6.48c-1.598,-2.668 -2.415,-5.731 -2.36,-8.84c-0.042,-2.848 0.563,-5.67 1.77,-8.25c1.025,-2.365 2.419,-4.552 4.13,-6.48c1.772,-1.907 4.003,-3.329 6.48,-4.13c5.245,-2.355 11.255,-2.355 16.5,0c2.611,1.149 5.004,2.743 7.07,4.71l-5.29,4.15Zm15.32,-0.59l0,-9.43l6.48,0l0,6.48c0.59,-1.18 1.18,-1.77 1.77,-2.95c0.697,-1.09 1.734,-1.919 2.95,-2.36l3.54,-1.77c1.512,-0.522 3.116,-0.723 4.71,-0.59l1.18,0c0.59,0 1.18,0 1.18,0.59l0,7.07c-1.114,-0.481 -2.33,-0.684 -3.54,-0.59c-4.13,0 -7.07,1.18 -8.84,4.13c-1.94,3.198 -2.96,6.87 -2.95,10.61l0,19.45l-6.48,0l0,-30.64Zm63.65,23c-2.36,2.95 -4.71,5.3 -7.66,6.48c-3.18,1.257 -6.582,1.859 -10,1.77c-2.848,0.042 -5.67,-0.563 -8.25,-1.77c-2.36,-1.18 -4.71,-2.36 -6.48,-4.71c-1.711,-1.928 -3.105,-4.115 -4.13,-6.48c-1.18,-2.36 -1.18,-5.3 -1.18,-8.25c-0.042,-2.848 0.563,-5.67 1.77,-8.25c1.025,-2.365 2.419,-4.552 4.13,-6.48c1.772,-1.907 4.003,-3.329 6.48,-4.13c2.58,-1.207 5.402,-1.812 8.25,-1.77c2.594,0.059 5.169,0.456 7.66,1.18c2.185,1.031 4.177,2.427 5.89,4.13c1.711,1.928 3.105,4.115 4.13,6.48c1.18,2.36 1.18,5.3 1.18,8.84l0,2.36l-31.85,0c0.041,1.638 0.444,3.246 1.18,4.71c1.506,3.076 3.994,5.564 7.07,7.07c1.488,0.667 3.083,1.067 4.71,1.18c2.479,0.121 4.94,-0.495 7.07,-1.77c2.045,-1.225 3.843,-2.823 5.3,-4.71l4.73,4.12Zm-5.3,-15.91c0.092,-3.141 -1.204,-6.169 -3.54,-8.27c-5.227,-3.928 -12.473,-3.928 -17.7,0c-2.36,1.77 -3.54,4.71 -4.13,8.25l25.37,0.02Zm51.86,16.5c-1.18,2.36 -3.54,4.13 -5.89,5.89c-2.853,1.672 -6.126,2.491 -9.43,2.36c-2.659,0.043 -5.289,-0.564 -7.66,-1.77c-2.365,-1.025 -4.552,-2.419 -6.48,-4.13c-1.711,-1.928 -3.105,-4.115 -4.13,-6.48c-2.355,-5.245 -2.355,-11.255 0,-16.5c1.025,-2.365 2.419,-4.552 4.13,-6.48c1.772,-1.907 4.003,-3.329 6.48,-4.13c2.58,-1.207 5.402,-1.812 8.25,-1.77c2.659,-0.043 5.289,0.564 7.66,1.77c2.389,1.228 4.575,2.817 6.48,4.71l0,-30.06l6.49,0l0,64.24l-6.48,0l0.58,-7.65Zm0,-13c-0.05,-2.017 -0.449,-4.01 -1.18,-5.89c-1.238,-3.593 -4.067,-6.422 -7.66,-7.66c-3.771,-1.572 -8.019,-1.572 -11.79,0c-1.77,0.59 -2.95,1.77 -4.71,2.95c-1.316,1.336 -2.323,2.943 -2.95,4.71c-1.572,3.771 -1.572,8.019 0,11.79c1.238,3.593 4.067,6.422 7.66,7.66c3.771,1.572 8.019,1.572 11.79,0c1.77,-0.59 2.95,-1.77 4.71,-2.95c1.316,-1.336 2.323,-2.943 2.95,-4.71c1.18,-1.76 1.18,-3.53 1.18,-5.88l0,-0.02Zm20.63,-35.36c0.122,-1.254 0.526,-2.464 1.18,-3.54c0.59,-1.18 2.36,-1.18 3.54,-1.18c1.254,0.122 2.464,0.526 3.54,1.18c1.18,0.59 1.18,2.36 1.18,3.54c-0.112,1.27 -0.512,2.498 -1.17,3.59c-1.18,1.18 -1.77,1.18 -3.54,1.18c-1.261,-0.119 -2.478,-0.523 -3.56,-1.18c-0.659,-1.085 -1.062,-2.306 -1.18,-3.57l0.01,-0.02Zm1.77,15.32l6.5,0l0,39.49l-6.48,0l-0.02,-39.49Zm41.25,5.89l-11.75,0l0,23.57c-0.092,1.02 0.113,2.044 0.59,2.95l1.77,1.77c0.59,0.59 1.77,0.59 3.54,0.59c1.02,0.092 2.044,-0.113 2.95,-0.59c1.18,0 1.77,-0.59 2.95,-1.18l0,5.89c-1.18,0.59 -2.36,0.59 -3.54,1.18c-1.18,0 -2.95,0.59 -4.13,0.59c-2.017,-0.049 -4.01,-0.449 -5.89,-1.18c-1.18,-0.59 -2.36,-1.77 -3.54,-2.36c-0.697,-1.328 -1.289,-2.709 -1.77,-4.13c-0.486,-1.722 -0.685,-3.513 -0.59,-5.3l0,-21.78l-8.84,0l0,-5.3l8.84,0l0,-11.79l6.48,0l0,11.2l11.79,0l1.14,5.87Zm12.38,24.16c0.292,-0.042 0.586,-0.062 0.881,-0.062c3.429,0 6.25,2.821 6.25,6.25c0,3.428 -2.821,6.25 -6.25,6.25c-3.428,0 -6.25,-2.822 -6.25,-6.25c0,-1.657 0.658,-3.246 1.829,-4.418c0.895,-1.029 2.168,-1.657 3.53,-1.74l0.01,-0.03Zm15.32,-24.16l-8.85,0l0,-5.3l8.84,0l0,-8.82c-0.136,-2.182 0.053,-4.373 0.56,-6.5c0.537,-1.868 1.331,-3.651 2.36,-5.3c1.247,-1.323 2.632,-2.51 4.13,-3.54c2.096,-0.725 4.293,-1.116 6.51,-1.16l2.95,0c1.18,0 1.77,0.59 2.36,0.59l-1.18,5.89c-1.52,-0.484 -3.117,-0.684 -4.71,-0.59c-1.455,0.034 -2.877,0.44 -4.13,1.18c-1.054,0.463 -1.897,1.306 -2.36,2.36c-0.481,1.114 -0.684,2.33 -0.59,3.54l0,12.38l10,0l0,5.3l-10,0l0,34.18l-5.89,0l0,-34.21Zm24.75,3.54l0,-9.43l6.48,0l0,6.48c0.59,-1.18 1.18,-1.77 1.77,-2.95c0.697,-1.09 1.734,-1.919 2.95,-2.36l3.54,-1.77c1.512,-0.522 3.116,-0.723 4.71,-0.59l1.18,0c0.59,0 1.18,0 1.18,0.59l0,7.07c-1.114,-0.481 -2.33,-0.684 -3.54,-0.59c-4.13,0 -7.07,1.18 -8.84,4.13c-1.77,2.36 -2.95,6.48 -2.95,10.61l0,19.45l-6.48,0l0,-30.64Z" style="fill:rgb(90,90,90);fill-rule:nonzero;"/>    </g></svg>