<?xml version="1.0" encoding="UTF-8" standalone="no"?><!DOCTYPE svg PUBLIC "-//W3C//DTD SVG 1.1//EN" "http://www.w3.org/Graphics/SVG/1.1/DTD/svg11.dtd"><svg width="100%" height="100%" viewBox="0 0 1024 512" version="1.1" xmlns="http://www.w3.org/2000/svg" xmlns:xlink="http://www.w3.org/1999/xlink" xml:space="preserve" style="fill-rule:evenodd;clip-rule:evenodd;stroke-linejoin:round;stroke-miterlimit:2;"><title>Kapilendo</title><desc>Kapilendo AG is a digital banking partner for SMEs. Established growth companies and medium-sized companies Kapilendo offers a contemporary alternative to the traditional bank in the areas of investment management and corporate finance.The range of services offered by Kapilendo for medium-sized companies includes individual financing solutions ranging from traditional loans to securities issues as well as capital market-based liquidity and cash management. </desc>    <g id="Kapilendo" transform="matrix(1.79926,0,0,1.79948,2,153.522)">        <path d="M23.5,46.7l21.5,0l36.5,-41.3l-21.8,0l-36.2,41.3Z" style="fill:rgb(0,197,178);fill-rule:nonzero;"/>        <rect x="0" y="5.4" width="18.5" height="88.8" style="fill:rgb(0,197,178);fill-rule:nonzero;"/>        <path d="M23.6,52.2l21.6,0l36.4,42l-22.6,0l-35.3,-42l-0.1,0Z" style="fill:rgb(0,123,215);fill-rule:nonzero;"/>        <path d="M142.4,94.2l-17.4,0l0,-5.2c-5.232,3.185 -11.108,5.166 -17.2,5.8l-3.5,0c-14.7,0 -22.1,-3.8 -22.1,-20.6l0,-29.4c0,-16.9 7.4,-20.5 22.1,-20.6l3.5,0c5.7,0 12.1,3 17.2,5.7l0,-0.2c0.054,-2.705 2.294,-4.901 5,-4.9l12.4,0l0,69.4Zm-42.8,-22.2c0,6 2.4,7.6 8,7.6l3,0c4.4,0 9.2,-2.2 14.4,-3.5l0,-33.3c-5.2,-1.3 -10,-3.5 -14.4,-3.5l-3,0c-5.7,0 -8,1.7 -8,7.7l0,25Zm73.7,41.9l-17.3,0l0,-89l12.5,0c2.669,-0.002 4.893,2.133 5,4.8l0,0.2c5.386,-3.131 11.395,-5.043 17.6,-5.6l3.5,0c14.6,0.1 22,3.7 22,20.6l0,29.4c0,16.8 -7.4,20.5 -22,20.6l-3.6,0c-5.7,0 -12.5,-3.1 -17.6,-5.8l-0.1,24.8Zm0,-37.7c5.3,1.3 10.4,3.5 14.8,3.5l3,0c5.6,0 8,-1.7 8,-7.6l0,-25c0,-6 -2.4,-7.7 -8,-7.7l-3,0c-4.4,0 -9.5,2.2 -14.8,3.5l0,33.3Zm72.4,18.1l-17.4,0l0,-69.5l17.4,0l0,69.5Zm31,0l-17.5,0l0,-88.9l17.5,0l0,88.9Zm72.4,-1.4c0,0 -19.6,2 -38,2c-15.1,0 -22.7,-4.2 -22.7,-21.2l0,-27c0,-13 8.5,-22 23.6,-22l14.7,0c15.2,0 22.7,9 22.7,22l0,16.4c0.001,0.033 0.001,0.067 0.001,0.1c0,2.633 -2.167,4.8 -4.8,4.8c0,0 -0.001,0 -0.001,0l-38.7,0l0,4.2c0,7.7 1.4,8.2 8,8.2l35.1,0l0.1,12.5Zm-16.5,-43.7c0,-9.4 -2.8,-10.5 -9.1,-10.5l-7.6,0c-6.4,0 -10,0.7 -10,10.5l0,5.8l26.7,0l0,-5.8Zm28.2,-24.3l12.5,0c2.706,-0.001 4.946,2.195 5,4.9c5.347,-3.155 11.321,-5.101 17.5,-5.7l3.3,0c14.7,0 22.1,3.9 22.1,20.7l0,49.5l-17.5,0l0,-47c0.056,-4.461 -3.54,-8.192 -8,-8.3l-2.7,0c-4.4,0 -9.5,2.1 -14.7,3.5l0,51.8l-17.5,0l0,-69.4Zm115,-19.4l17.4,0l0,88.8l-12.5,0c-2.669,0.002 -4.893,-2.133 -5,-4.8l0,-0.5c-5.1,2.7 -12,5.8 -17.7,5.8l-3.4,0c-14.7,0 -22.1,-3.8 -22.1,-20.6l0,-29.4c0,-16.9 7.4,-20.5 22.1,-20.6l3.4,0c5.7,0 12.6,3 17.7,5.7l0.1,-24.4Zm0,70.6l0,-33.1c-5.3,-1.4 -10.4,-3.6 -14.9,-3.6l-2.9,0c-5.6,0 -8,1.7 -8,7.7l0,24.9c0,6 2.5,7.6 8,7.6l3,0c4.4,0 9.5,-2.2 14.7,-3.5l0.1,0Zm91.1,-29.2l0,25.1c0,17 -7.5,23 -22.7,23l-16.9,0c-15,0 -22.7,-6 -22.7,-23l0,-25.2c0,-17 7.6,-23 22.7,-23l17,0c15,0 22.6,6 22.6,23l0,0.1Zm-17.3,25.1l0,-25.7c0,-6 -2.5,-8.1 -8.2,-8.1l-11.3,0c-5.6,0 -8,2.2 -8,8.1l0,25.7c0,6 2.5,8.1 8,8.1l11.3,0c5.7,0 8.2,-2 8.2,-8l0,-0.1Zm-312.7,-72c5.3,0 9.6,3.8 9.6,9.3c0,5.212 -4.288,9.5 -9.5,9.5c-5.212,0 -9.5,-4.288 -9.5,-9.5c0,-0.034 -0.001,-0.068 -0.001,-0.102c0,-5.047 4.153,-9.2 9.2,-9.2c0.067,0 0.134,0.001 0.201,0.002Z" style="fill:rgb(0,123,215);fill-rule:nonzero;"/>    </g></svg>