<?xml version="1.0" encoding="UTF-8" standalone="no"?><!DOCTYPE svg PUBLIC "-//W3C//DTD SVG 1.1//EN" "http://www.w3.org/Graphics/SVG/1.1/DTD/svg11.dtd"><svg width="100%" height="100%" viewBox="0 0 1024 512" version="1.1" xmlns="http://www.w3.org/2000/svg" xmlns:xlink="http://www.w3.org/1999/xlink" xml:space="preserve" style="fill-rule:evenodd;clip-rule:evenodd;stroke-linejoin:round;stroke-miterlimit:2;"><title>Prime</title><desc>The Prime IFISA is designed to deliver threefold benefits to investors: quality, value and innovation. We believe we’ve achieved this by offering an asset-backed investment in an exciting new IT redevelopment offering attractive returns over three years.</desc>    <g transform="matrix(1,0,0,1,0,161.709)">        <g transform="matrix(1.09655,0,0,1.09655,0.0267176,10.1231)">            <g transform="matrix(3.44338,0,0,3.44338,0.676163,3.75081)">                <path d="M82.103,46.021l0,-46.324l9.92,0l0,40.922l6.894,0l0,-40.922l1.707,0l16.634,23.832l16.171,-23.832l1.834,0l0,19.405l0.09,0.073l-0.09,0.11l0,20.697l6.869,0l0,-40.285l2,0l0,42.285l-10.869,0l0,-20.247l-16.54,20.263l-15.806,-20.475l0,21.096l-10.894,0l0,-40.619l-5.92,0l0,44.048c1.275,0.434 2.194,1.642 2.194,3.064c0,1.785 -1.45,3.235 -3.235,3.235c-1.786,0 -3.236,-1.45 -3.236,-3.235c0,-1.452 0.959,-2.682 2.277,-3.091Zm18.814,-27.804l15.85,20.532l16.496,-20.209l0,-14.603l-16.069,23.757l-16.277,-23.875l0,14.398Z" style="fill:rgb(34,97,146);"/>            </g>            <g transform="matrix(3.44338,0,0,3.44338,0.676163,3.75081)">                <path d="M173.73,18.201l-23.42,0l0,-18.496l34.447,0l0,10.697l-23.328,0l0,5.799l14.301,0l0,10.297l-14.301,0l0,4.501l23.199,0l0,10.94l-34.041,0l0,-17.441l23.143,0l0,-6.297Zm-14.301,8.297l-6.842,0l0,13.441l30.041,0l0,-6.94l-23.199,0l0,-6.501Zm23.328,-18.096l0,-6.697l-30.447,0l0,14.496l7.119,0l0,-7.799l23.328,0Z" style="fill:rgb(34,97,146);"/>            </g>            <g transform="matrix(3.44338,0,0,3.44338,0.676163,3.75081)">                <path d="M23.136,24.399c0.099,0.004 0.198,0.006 0.298,0.006c4.824,0 8.607,-5.078 8.607,-11.208c0,-6.129 -3.783,-11.207 -8.607,-11.207c-0.09,0 -0.179,0.001 -0.268,0.005l0,0.008l-0.157,0c-1.856,0.116 -21.278,0 -21.278,0l0,13.562l7.345,0l0,-6.495l12.157,0l0,0.023c0.041,-0.001 0.082,-0.002 0.123,-0.002c2.227,0 4.064,1.886 4.064,4.243c0,2.152 -1.531,3.911 -3.492,4.201l0,0.03l-0.263,0c-0.102,0.008 -0.205,0.012 -0.309,0.012c-0.104,0 -0.207,-0.004 -0.309,-0.012l-21.316,0l0,-17.562l23.229,0c0.157,-0.009 0.316,-0.013 0.474,-0.013c5.782,0 10.607,5.86 10.607,13.207c0,7.348 -4.825,13.208 -10.607,13.208c-0.125,0 -0.25,-0.002 -0.375,-0.008l-11.862,0l0,15.589l-11.474,0l0,-17.589c0,0 21.892,-0.073 23.377,0l0.036,0l0,0.002Zm-13.939,2.219l-7.474,0l0,13.368l7.474,0l0,-13.368Zm12.159,-15.527c-0.761,0 -10.28,-0.021 -10.28,-0.021l0,4.495c0,0 9.382,-0.077 10.063,0l0.434,0c1.05,-0.118 1.847,-1.086 1.847,-2.231c0,-1.222 -0.909,-2.243 -2.064,-2.243Z" style="fill:rgb(34,97,146);"/>            </g>            <g transform="matrix(3.44338,0,0,3.44338,0.676163,3.75081)">                <path d="M51.656,29.455l0,12.531l-11.474,0l0,-17.589c0,0 21.891,-0.073 23.376,0l0.036,0l0,0.002c0.099,0.004 0.199,0.006 0.299,0.006c4.823,0 8.607,-5.078 8.607,-11.208c0,-6.129 -3.784,-11.207 -8.607,-11.207c-0.09,0 -0.18,0.001 -0.269,0.005l0,0.008l-0.157,0c-1.856,0.116 -21.278,0 -21.278,0l0,13.562l7.345,0l0,-6.495l12.158,0l0,0.023c0.04,-0.001 0.081,-0.002 0.122,-0.002c2.227,0 4.064,1.886 4.064,4.243c0,2.152 -1.531,3.911 -3.491,4.201l0,0.03l-0.264,0c-0.102,0.008 -0.205,0.012 -0.309,0.012c-0.104,0 -0.207,-0.004 -0.309,-0.012l-21.316,0l0,-17.562l23.229,0c0.158,-0.009 0.316,-0.013 0.475,-0.013c5.781,0 10.607,5.86 10.607,13.207c0,7.348 -4.826,13.208 -10.607,13.208c-0.121,0 -0.241,-0.002 -0.361,-0.007l10.387,13.45l-0.791,1.611l-11.729,0l-9.743,-12.004Zm-2,-2.837l-7.474,0l0,13.368l7.474,0l0,-13.368Zm11.349,-0.221l-9.256,0l10.603,13.062l8.74,0l-10.087,-13.062Zm-9.349,0l0,0.002l0.002,-0.002l-0.002,0Zm10.158,-15.306c-0.761,0 -10.28,-0.021 -10.28,-0.021l0,4.495c0,0 9.382,-0.077 10.063,0l0.434,0c1.05,-0.118 1.847,-1.086 1.847,-2.231c0,-1.222 -0.909,-2.243 -2.064,-2.243Z" style="fill:rgb(34,97,146);"/>            </g>        </g>        <g transform="matrix(1.09655,0,0,1.09655,0.0267176,-22.9703)">            <g transform="matrix(4.32027,0,0,4.32027,-227.476,-50.4954)">                <path d="M244.088,11.617c-13.142,0 -23.811,10.669 -23.811,23.81c0,13.141 10.669,23.811 23.811,23.811c13.141,0 23.81,-10.67 23.81,-23.811c0,-13.141 -10.669,-23.81 -23.81,-23.81Zm0,1.594c12.261,0 22.216,9.955 22.216,22.216c0,12.262 -9.955,22.216 -22.216,22.216c-12.262,0 -22.217,-9.954 -22.217,-22.216c0,-12.261 9.955,-22.216 22.217,-22.216Z" style="fill:rgb(34,97,146);"/>            </g>            <g transform="matrix(3.44338,0,0,3.44338,0.676163,0.750809)">                <path d="M221.496,40.451l22.866,-27.869l6.437,5.222l-19.295,23.993l3.776,2.883l21.388,-26.101c-0.113,-0.29 -0.175,-0.606 -0.175,-0.935c0,-1.426 1.157,-2.583 2.582,-2.583c1.426,0 2.583,1.157 2.583,2.583c0,1.425 -1.157,2.582 -2.583,2.582c-0.356,0 -0.695,-0.072 -1.004,-0.203l-22.469,27.42l-6.941,-5.301l19.331,-24.04l-3.345,-2.714l-21.596,26.321c0.196,0.364 0.308,0.78 0.308,1.222c0,1.426 -1.158,2.583 -2.583,2.583c-1.425,0 -2.582,-1.157 -2.582,-2.583c0,-1.425 1.157,-2.582 2.582,-2.582c0.25,0 0.492,0.035 0.72,0.102Z" style="fill:rgb(34,97,146);"/>            </g>        </g>    </g></svg>