<?xml version="1.0" encoding="UTF-8" standalone="no"?><!DOCTYPE svg PUBLIC "-//W3C//DTD SVG 1.1//EN" "http://www.w3.org/Graphics/SVG/1.1/DTD/svg11.dtd"><svg width="100%" height="100%" viewBox="0 0 1024 512" version="1.1" xmlns="http://www.w3.org/2000/svg" xmlns:xlink="http://www.w3.org/1999/xlink" xml:space="preserve" style="fill-rule:evenodd;clip-rule:evenodd;stroke-linejoin:round;stroke-miterlimit:2;"><title>Fund Ourselves</title><desc>Fund Ourselves is a mission driven financial technology company providing a market place offering affordable short-term consumer credit to hard working families.We are a small group of passionate techies, credit geeks, designers, marketers, lawyers and compliance experts with a shared vision to make change to the consumer credit market.</desc>    <g transform="matrix(1.24603,0,0,1.24603,-8.71586,104.42)">        <circle cx="123.8" cy="121.6" r="115.2" style="fill:white;"/>        <g>            <path d="M380,117.5l0,-67.3l-19.7,0l0,53.8c-1.2,0.2 -2.6,0.3 -4.2,0.5c-1.6,0.1 -3.1,0.2 -4.5,0.2c-4.6,0 -7.7,-1.4 -9.4,-4.2c-1.7,-2.8 -2.5,-7.4 -2.5,-13.8l0,-36.5l-41.7,0l0,-3.4c0,-1.9 0.2,-3.6 0.6,-5.2c0.4,-1.6 1.1,-3 2,-4.1c0.9,-1.1 2.2,-2.1 3.8,-2.7c1.6,-0.7 3.6,-1 6,-1c1.8,0 3.7,0.2 5.8,0.6c2.1,0.4 4,1 5.8,1.8l3.8,-15.8c-1.7,-0.7 -4.1,-1.4 -7.1,-2.2c-3.1,-0.7 -6.5,-1.1 -10.2,-1.1c-10,0 -17.5,2.6 -22.6,7.9c-5.1,5.3 -7.6,12.4 -7.6,21.4l0,73.3l19.7,0l0,-53l21.9,0l0,22.3c0,4.8 0.5,9.1 1.5,13.1c1,4 2.6,7.4 4.9,10.3c2.3,2.9 5.4,5.1 9.3,6.7c3.9,1.6 8.8,2.4 14.8,2.4c5.8,0 11.4,-0.4 16.7,-1.3c5.2,-0.8 9.5,-1.8 12.9,-2.7Z" style="fill:rgb(83,91,237);fill-rule:nonzero;"/>            <path d="M426.1,69.4c1.7,2.6 2.5,7.1 2.5,13.5l0,36.9l19.7,0l0,-39.2c0,-4.8 -0.5,-9.1 -1.5,-13c-1,-3.9 -2.6,-7.2 -4.9,-10.1c-2.3,-2.8 -5.4,-5 -9.3,-6.6c-3.9,-1.5 -8.8,-2.3 -14.8,-2.3c-5.8,0 -11.4,0.4 -16.7,1.3c-5.3,0.8 -9.6,1.7 -13,2.7l0,67.2l19.9,0l0,-53.7c1.2,-0.2 2.6,-0.3 4.2,-0.5c1.6,-0.1 3.1,-0.2 4.5,-0.2c4.6,0.1 7.8,1.4 9.4,4Z" style="fill:rgb(83,91,237);fill-rule:nonzero;"/>            <path d="M464.4,111.9c3.1,3.1 6.9,5.5 11.4,7.2c4.5,1.7 9.6,2.5 15.4,2.5c2.4,0 4.9,-0.1 7.5,-0.3c2.6,-0.2 5.2,-0.5 7.7,-0.9c2.5,-0.4 4.9,-0.8 7.2,-1.3c2.3,-0.5 4.3,-1 6.1,-1.5l0,-100.4l-19.7,3.2l0,31.5c-2.2,-1 -4.4,-1.7 -6.6,-2.2c-2.2,-0.5 -4.6,-0.8 -7.3,-0.8c-4.9,0 -9.3,0.8 -13.2,2.5c-3.8,1.7 -7.1,4.1 -9.7,7.3c-2.6,3.2 -4.7,7 -6.1,11.6c-1.4,4.5 -2.1,9.6 -2.1,15.3c0,5.6 0.8,10.6 2.4,15c1.6,4.3 3.9,8.1 7,11.3Zm24.7,-46.4c2,0 4,0.3 6,0.8c2,0.5 3.6,1.2 4.8,2l0,35.9c-1,0.2 -2.2,0.3 -3.7,0.5c-1.5,0.1 -3.1,0.2 -4.9,0.2c-5.4,0 -9.4,-1.9 -12.2,-5.6c-2.7,-3.7 -4.1,-8.6 -4.1,-14.7c0,-12.8 4.7,-19.1 14.1,-19.1Z" style="fill:rgb(83,91,237);fill-rule:nonzero;"/>            <path d="M337.2,162.8c-3,-3.2 -6.6,-5.6 -10.8,-7.4c-4.2,-1.8 -8.8,-2.6 -13.8,-2.6c-4.9,0 -9.5,0.9 -13.7,2.6c-4.2,1.8 -7.8,4.2 -10.9,7.4c-3,3.2 -5.4,7 -7.1,11.5c-1.7,4.5 -2.6,9.5 -2.6,15c0,5.5 0.8,10.5 2.5,15c1.7,4.5 4,8.4 7,11.6c3,3.2 6.6,5.7 10.8,7.5c4.2,1.8 8.8,2.6 14,2.6c5.2,0 9.9,-0.9 14.1,-2.6c4.2,-1.8 7.8,-4.3 10.8,-7.5c3,-3.2 5.3,-7.1 6.9,-11.6c1.6,-4.5 2.4,-9.6 2.4,-15c0,-5.5 -0.8,-10.5 -2.5,-15c-1.8,-4.5 -4.1,-8.3 -7.1,-11.5Zm-14.3,41c-2.4,3.6 -5.9,5.4 -10.4,5.4c-4.5,0 -8,-1.8 -10.5,-5.4c-2.5,-3.6 -3.7,-8.4 -3.7,-14.5c0,-6.1 1.2,-10.9 3.7,-14.4c2.5,-3.5 6,-5.2 10.5,-5.2c4.5,0 8,1.7 10.4,5.2c2.4,3.5 3.6,8.3 3.6,14.4c0.1,6.1 -1.1,10.9 -3.6,14.5Z" style="fill:rgb(83,91,237);fill-rule:nonzero;"/>            <path d="M393.8,208.3c-1.2,0.2 -2.6,0.3 -4.2,0.5c-1.6,0.1 -3.1,0.2 -4.5,0.2c-4.6,0 -7.7,-1.4 -9.4,-4.2c-1.7,-2.8 -2.5,-7.4 -2.5,-13.8l0,-36.4l-19.7,0l0,38.8c0,4.8 0.5,9.1 1.5,13.1c1,4 2.6,7.4 4.9,10.3c2.3,2.9 5.4,5.1 9.3,6.7c3.9,1.6 8.8,2.4 14.8,2.4c5.8,0 11.4,-0.4 16.7,-1.3c5.3,-0.8 9.6,-1.7 13,-2.7l0,-67.2l-19.7,0l0,53.6l-0.2,0Z" style="fill:rgb(83,91,237);fill-rule:nonzero;"/>            <path d="M459.3,153.9c-1.5,-0.2 -3,-0.4 -4.5,-0.5c-1.5,-0.1 -2.8,-0.2 -3.8,-0.2c-5.9,0 -11.3,0.6 -16.1,1.7c-4.8,1.1 -9,2.3 -12.5,3.5l0,65.9l19.7,0l0,-53.3c0.9,-0.3 2.2,-0.5 3.9,-0.7c1.7,-0.2 3.2,-0.3 4.4,-0.3c2.7,0 5.3,0.2 7.7,0.7c2.4,0.5 4.5,1 6.2,1.4l3.3,-16.3c-1.1,-0.4 -2.3,-0.8 -3.8,-1.1c-1.5,-0.3 -3,-0.6 -4.5,-0.8Z" style="fill:rgb(83,91,237);fill-rule:nonzero;"/>            <path d="M519.7,191.5c-1.6,-1.8 -3.9,-3.5 -6.7,-5c-2.8,-1.6 -6.4,-3.1 -10.7,-4.7c-2.1,-0.8 -3.9,-1.5 -5.2,-2.2c-1.4,-0.7 -2.4,-1.3 -3.2,-1.9c-0.8,-0.6 -1.3,-1.2 -1.6,-1.8c-0.3,-0.6 -0.4,-1.3 -0.4,-2.1c0,-3.4 3.1,-5.2 9.3,-5.2c3.4,0 6.4,0.3 9.1,0.9c2.7,0.6 5.2,1.3 7.5,2.1l3.4,-15.4c-2.3,-0.9 -5.4,-1.7 -9.3,-2.4c-3.9,-0.7 -7.9,-1.1 -12.2,-1.1c-8.5,0 -15.1,1.9 -20,5.7c-4.9,3.8 -7.3,9 -7.3,15.5c0,3.4 0.5,6.2 1.5,8.6c1,2.4 2.3,4.4 4.1,6.2c1.8,1.7 3.9,3.2 6.4,4.4c2.5,1.2 5.3,2.4 8.4,3.6c4,1.5 6.9,2.8 8.9,4c1.9,1.2 2.9,2.6 2.9,4.2c0,2 -0.8,3.4 -2.3,4.1c-1.5,0.7 -4.1,1.1 -7.7,1.1c-3.4,0 -6.9,-0.4 -10.5,-1.1c-3.5,-0.7 -7,-1.8 -10.3,-3.1l-3.3,16c1.6,0.7 4.4,1.6 8.5,2.6c4.1,1.1 9.2,1.6 15.4,1.6c9.4,0 16.7,-1.8 21.9,-5.3c5.2,-3.5 7.7,-8.7 7.7,-15.6c0,-2.9 -0.3,-5.5 -1,-7.7c-0.5,-2.1 -1.6,-4.1 -3.3,-6Z" style="fill:rgb(83,91,237);fill-rule:nonzero;"/>            <path d="M563.5,152.8c-4.2,0 -8.4,0.8 -12.4,2.4c-4,1.6 -7.6,3.9 -10.7,7c-3.1,3.1 -5.6,6.9 -7.5,11.6c-1.9,4.6 -2.8,10 -2.8,16.2c0,5.1 0.7,9.9 2.2,14.3c1.5,4.4 3.7,8.2 6.7,11.4c3,3.2 6.9,5.8 11.5,7.6c4.6,1.9 10.1,2.8 16.3,2.8c2.5,0 4.9,-0.1 7.4,-0.4c2.5,-0.3 4.8,-0.6 6.9,-1c2.2,-0.4 4.1,-0.9 5.9,-1.4c1.8,-0.5 3.2,-1.1 4.2,-1.6l-2.6,-16c-2.2,1 -5.1,1.8 -8.5,2.4c-3.5,0.7 -7,1 -10.7,1c-5.6,0 -10.1,-1.2 -13.5,-3.6c-3.4,-2.4 -5.3,-5.6 -5.7,-9.7l44.7,0c0.1,-1.1 0.2,-2.3 0.3,-3.6c0.1,-1.4 0.1,-2.6 0.1,-3.8c0,-11.7 -2.9,-20.6 -8.6,-26.7c-5.5,-5.9 -13.3,-8.9 -23.2,-8.9Zm-13.1,29.6c0.3,-1.7 0.7,-3.3 1.3,-5c0.6,-1.6 1.4,-3.1 2.4,-4.3c1.1,-1.2 2.4,-2.2 4,-3c1.6,-0.8 3.5,-1.1 5.7,-1.1c2.3,0 4.2,0.4 5.8,1.2c1.5,0.8 2.8,1.8 3.8,3c1,1.2 1.8,2.6 2.3,4.2c0.5,1.6 0.8,3.2 0.9,4.9l-26.2,0l0,0.1Z" style="fill:rgb(83,91,237);fill-rule:nonzero;"/>            <path d="M625.2,205.7c-0.8,-1 -1.3,-2.2 -1.5,-3.6c-0.3,-1.4 -0.4,-3 -0.4,-4.8l0,-75.8l-19.7,3.2l0,76.6c0,3.7 0.4,7 1.1,10c0.7,3 2.2,5.5 4.2,7.5c2.1,2.1 4.9,3.7 8.5,4.8c3.6,1.1 8.2,1.8 14,1.9l2.8,-16.3c-2.4,-0.2 -4.3,-0.6 -5.7,-1.2c-1.5,-0.5 -2.6,-1.3 -3.3,-2.3Z" style="fill:rgb(83,91,237);fill-rule:nonzero;"/>            <path d="M682.2,154.6c-0.9,3.4 -1.9,7.2 -3.1,11.2c-1.2,4 -2.4,8.1 -3.7,12.2c-1.3,4.1 -2.6,8.1 -3.9,12c-1.3,3.9 -2.6,7.4 -3.7,10.6c-1.2,-3.2 -2.5,-6.7 -3.8,-10.6c-1.3,-3.9 -2.6,-7.9 -3.9,-12c-1.3,-4.1 -2.5,-8.2 -3.7,-12.2c-1.2,-4 -2.2,-7.7 -3.1,-11.2l-20.9,0c4.2,13.9 8.6,26.8 13.2,38.6c4.6,11.8 9.2,22.1 13.7,31l16.4,0c4.5,-8.8 9.1,-19.1 13.7,-31c4.6,-11.8 9,-24.7 13.2,-38.6l-20.4,0Z" style="fill:rgb(83,91,237);fill-rule:nonzero;"/>            <path d="M735.9,152.8c-4.2,0 -8.4,0.8 -12.4,2.4c-4,1.6 -7.6,3.9 -10.7,7c-3.1,3.1 -5.6,6.9 -7.5,11.6c-1.9,4.6 -2.8,10 -2.8,16.2c0,5.1 0.7,9.9 2.2,14.3c1.5,4.4 3.7,8.2 6.7,11.4c3,3.2 6.9,5.8 11.5,7.6c4.6,1.9 10.1,2.8 16.3,2.8c2.5,0 4.9,-0.1 7.4,-0.4c2.5,-0.3 4.8,-0.6 6.9,-1c2.2,-0.4 4.1,-0.9 5.9,-1.4c1.8,-0.5 3.2,-1.1 4.2,-1.6l-2.6,-16c-2.2,1 -5.1,1.8 -8.5,2.4c-3.5,0.7 -7,1 -10.7,1c-5.6,0 -10.1,-1.2 -13.5,-3.6c-3.4,-2.4 -5.2,-5.6 -5.7,-9.7l44.7,0c0.1,-1.1 0.2,-2.3 0.3,-3.6c0.1,-1.4 0.1,-2.6 0.1,-3.8c0,-11.7 -2.9,-20.6 -8.6,-26.7c-5.5,-5.9 -13.3,-8.9 -23.2,-8.9Zm-13.1,29.6c0.3,-1.7 0.7,-3.3 1.3,-5c0.6,-1.6 1.4,-3.1 2.4,-4.3c1.1,-1.2 2.4,-2.2 4,-3c1.6,-0.8 3.5,-1.1 5.7,-1.1c2.3,0 4.2,0.4 5.8,1.2c1.6,0.8 2.8,1.8 3.8,3c1,1.2 1.8,2.6 2.2,4.2c0.5,1.6 0.8,3.2 0.9,4.9l-26.1,0l0,0.1Z" style="fill:rgb(83,91,237);fill-rule:nonzero;"/>            <path d="M826.2,197.6c-0.7,-2.2 -1.8,-4.2 -3.4,-6c-1.6,-1.8 -3.9,-3.5 -6.7,-5c-2.8,-1.6 -6.4,-3.1 -10.7,-4.7c-2.1,-0.8 -3.9,-1.5 -5.2,-2.2c-1.4,-0.7 -2.4,-1.3 -3.2,-1.9c-0.8,-0.6 -1.3,-1.2 -1.6,-1.8c-0.3,-0.6 -0.4,-1.3 -0.4,-2.1c0,-3.4 3.1,-5.2 9.3,-5.2c3.4,0 6.4,0.3 9.1,0.9c2.7,0.6 5.2,1.3 7.5,2.1l3.4,-15.4c-2.3,-0.9 -5.4,-1.7 -9.3,-2.4c-3.9,-0.7 -7.9,-1.1 -12.2,-1.1c-8.5,0 -15.1,1.9 -20,5.7c-4.9,3.8 -7.3,9 -7.3,15.5c0,3.4 0.5,6.2 1.5,8.6c1,2.4 2.3,4.4 4.1,6.2c1.8,1.7 3.9,3.2 6.4,4.4c2.5,1.2 5.3,2.4 8.4,3.6c4,1.5 6.9,2.8 8.9,4c1.9,1.2 2.9,2.6 2.9,4.2c0,2 -0.7,3.4 -2.2,4.1c-1.5,0.7 -4.1,1.1 -7.7,1.1c-3.4,0 -6.9,-0.4 -10.5,-1.1c-3.5,-0.7 -7,-1.8 -10.3,-3.1l-3.3,16c1.6,0.7 4.4,1.6 8.5,2.6c4.1,1.1 9.2,1.6 15.4,1.6c9.4,0 16.7,-1.8 21.9,-5.3c5.2,-3.5 7.7,-8.7 7.7,-15.6c0,-3 -0.3,-5.5 -1,-7.7Z" style="fill:rgb(83,91,237);fill-rule:nonzero;"/>        </g>        <g>            <path d="M47.3,207.7c7,-0.1 19,-6.1 32.6,-38.5l19.4,-45.1l-39.1,-0.5c1,-11.4 13.5,-27.2 30.8,-27.2l20.3,0l20.6,-47.7c11.8,-27.4 40.6,-31.5 59.6,-20.4c-19,-13.8 -42.3,-21.9 -67.6,-21.9c-63.7,0.1 -115.3,51.6 -115.3,115.2c0,34.2 14.9,65 38.7,86.1Z" style="fill:rgb(2,230,181);fill-rule:nonzero;"/>            <path d="M200.5,35.8l-0.1,0c-3.6,-3 -8.3,-4.9 -13.4,-4.9c-3.5,0 -6.8,0.9 -9.7,2.4c-6.1,2.6 -11.6,10.9 -20.5,31.5l-13.8,31.8l35.9,0c-1,11.4 -10.3,28.2 -27.5,28.2l-20.5,-0.2l-2.9,6.6l-21.4,50.4c-11,25.4 -34.9,36.2 -52.8,31.7c19.4,14.8 43.6,23.6 69.9,23.6c63.6,0 115.2,-51.6 115.2,-115.2c0,-34.2 -14.8,-64.8 -38.4,-85.9Z" style="fill:rgb(2,230,181);fill-rule:nonzero;"/>        </g>    </g></svg>