<?xml version="1.0" encoding="UTF-8" standalone="no"?><!DOCTYPE svg PUBLIC "-//W3C//DTD SVG 1.1//EN" "http://www.w3.org/Graphics/SVG/1.1/DTD/svg11.dtd"><svg width="100%" height="100%" viewBox="0 0 1024 512" version="1.1" xmlns="http://www.w3.org/2000/svg" xmlns:xlink="http://www.w3.org/1999/xlink" xml:space="preserve" style="fill-rule:evenodd;clip-rule:evenodd;stroke-linejoin:round;stroke-miterlimit:2;"><title>ShareVestors</title><desc>We open the possibility of participation in profitable development projects for everyone. By using equity crowdfunding, we make group investments in profitable development projects and group land investments possible.ShareVestors.com - the only such website in Poland, where you can become a shareholder in profitable real estate investments with little capital. Investments in real estate from 1000 PLN!</desc>    <g transform="matrix(1,0,0,1,-7.76229,160.99)">        <g transform="matrix(0.487749,0,0,0.487749,5.00074,30.4074)">            <path d="M1404.5,245.4c-23.7,-3 -40.2,-13.8 -49.4,-32.5c-5.9,-12 -7.4,-20.2 -6.8,-37.4c0.3,-10.1 1.1,-16.2 2.7,-22c8,-29.5 27.7,-52.6 52.6,-62.1c41.8,-15.8 84.8,6.6 79.4,41.5c-1.5,9.4 -6,18 -12.3,23.6c-12.4,11 -39.4,19.6 -72.4,23.1l-6.2,0.7l0.5,4.6c1.2,9.9 3.4,15.4 7.8,19.7c5.5,5.3 10.9,6.8 22.3,6.2c9.8,-0.5 14.7,-2.2 24.9,-8.9c7,-4.5 12,-5.7 16.3,-3.9c1.6,0.6 6,4.8 9.7,9.2l6.7,8.1l-3.9,3.3c-17.1,14.9 -29.4,21.7 -44.7,24.8c-7.7,1.5 -22.3,2.6 -27.2,2Zm11.2,-97.5c18.9,-4.7 26.3,-10.2 26.3,-19.6c0,-3.8 -0.6,-5.1 -3.4,-7.9c-3.1,-3.1 -3.9,-3.4 -9.2,-3.3c-10.4,0.1 -18.5,4.8 -24.9,14.5c-3.4,5.2 -8.5,16.7 -8.5,19.5c0,1.2 5.8,0.3 19.7,-3.2Z" style="fill:rgb(111,111,112);fill-rule:nonzero;"/>            <path d="M1522.5,245c-13.1,-1.8 -29.7,-8.9 -36.4,-15.5l-2.5,-2.4l6.7,-10c6.9,-10.4 9.1,-12.5 14.2,-13.5c3.1,-0.7 4.6,-0.1 17.6,7.2c11,6.2 24.8,5.3 31.4,-1.9c2.9,-3.3 3.5,-4.7 3.5,-8.5c0,-9.1 -3.8,-12.5 -22.1,-19.2c-5.7,-2.2 -12.4,-4.9 -14.8,-6.2c-6.5,-3.3 -13.7,-10.5 -16.8,-16.9c-2.5,-5 -2.8,-6.6 -2.8,-16.1c0,-7.6 0.5,-12 1.9,-16c6.6,-19.7 20.8,-32.8 41.2,-38c9.6,-2.5 27.2,-2.7 35.9,-0.5c8.2,2.1 21.3,8.7 26.3,13.2l4.2,3.8l-7,9.2c-3.8,5.1 -7.9,9.7 -8.9,10.3c-3.5,1.8 -7.2,1.1 -16.5,-3.2c-8.4,-3.9 -9.7,-4.2 -17.6,-4.2c-13,0 -18,3.5 -18.8,13c-0.4,5.4 -0.4,5.6 4,9.7c3.3,3.2 7.1,5.3 15.3,8.6c27.2,10.7 36.4,20 37.3,37.9c1.8,32.5 -23.7,57.2 -61.3,59.5c-4.4,0.3 -10.7,0.1 -14,-0.3Z" style="fill:rgb(111,111,112);fill-rule:nonzero;"/>            <path d="M1769.4,245c-8.2,-1.1 -19.2,-5 -25.4,-9c-11,-7.1 -20.6,-20.8 -24.7,-35.1c-2.6,-9.6 -2.4,-35.5 0.5,-46.1c5.1,-18.8 12.4,-31.8 24.7,-44.4c10.3,-10.5 20.5,-17 33,-21.1c10.5,-3.4 28.6,-4.3 38.7,-1.9c22.6,5.3 39.6,23.3 44.4,47.1c2.2,10.9 1.5,30.8 -1.5,42.5c-10.1,38.7 -40.4,65.8 -76.6,68.3c-3.8,0.3 -9.8,0.1 -13.1,-0.3Zm23.6,-35.8c5.2,-2.4 11.2,-9.1 14.8,-16.5c5.2,-10.5 7.3,-20.3 7.9,-36.7c1,-26.9 -3.9,-36 -19.4,-36c-7.5,0.1 -12.6,2.4 -18.1,8.4c-8.8,9.6 -13.9,25.4 -14.9,45.8c-1.1,23.7 3.2,34.6 14.7,36.9c4.5,0.9 10.6,0.1 15,-1.9Z" style="fill:rgb(111,111,112);fill-rule:nonzero;"/>            <path d="M2014.2,245c-8.8,-1.2 -16.4,-3.6 -24.3,-7.6c-7.2,-3.6 -13.9,-8.8 -13.9,-10.8c0.1,-1.9 12.4,-18.9 15.3,-21c4.6,-3.4 9.2,-2.7 17.5,2.6c4,2.5 9.6,5.2 12.4,5.8c6.4,1.6 15.8,0.8 20,-1.7c10.8,-6.3 10,-19.9 -1.4,-25.9c-1.5,-0.8 -6.9,-2.9 -12,-4.8c-19.3,-7 -27.8,-12.9 -32.8,-23.1c-2.2,-4.4 -2.5,-6.3 -2.5,-16.5c0,-9.5 0.4,-12.7 2.4,-18.4c6.1,-17.8 22.7,-32.1 42,-36.2c9.9,-2.1 26.2,-1.8 35.6,0.6c10.6,2.7 28.5,12.8 28.5,16.1c0,1.6 -13,18.8 -15,19.9c-3.3,1.8 -7.7,1.1 -15,-2.5c-10,-4.7 -16.7,-6 -24.9,-4.7c-7.4,1.3 -11.5,4.4 -13.2,10.3c-2.5,8.3 2.4,14 17.3,19.9c25.3,10.1 34.1,17.3 38.2,31c6.3,21.3 -7.2,48.4 -29.5,59.4c-13.1,6.4 -30.8,9.4 -44.7,7.6Z" style="fill:rgb(111,111,112);fill-rule:nonzero;"/>            <path d="M1648,242.7c-10.6,-3.6 -18,-10.7 -21.5,-20.8c-3.1,-8.7 -2.8,-15.7 2.8,-59.6l5.3,-42.3l-6.2,-0c-7.6,-0 -11.2,-1.2 -12.3,-4.2c-0.5,-1.4 -0.4,-6.4 0.3,-12.2c1.3,-11.4 0.3,-10.5 14.2,-13.2c4.9,-0.9 9.4,-2.2 10.1,-2.8c0.6,-0.6 4.1,-9.9 7.7,-20.6c4.9,-14.4 7.3,-20.1 9.2,-21.7c2.4,-2.2 3.4,-2.3 17,-2.3c7.9,-0 14.4,0.3 14.4,0.8c-0.1,0.4 -1.3,10.5 -2.9,22.5l-2.7,21.7l17.3,-0c12.8,-0 17.3,0.3 17.3,1.2c0,1.8 -3,26 -3.6,28.6c-0.4,2.2 -0.6,2.2 -17.7,2.2l-17.3,-0l-4.3,35.3c-5.6,46.8 -5.6,46.1 -4.2,49.5c2.2,5.3 7.7,6.5 14.9,3.2c2.3,-1 5,-1.6 5.9,-1.3c0.9,0.3 3.8,5.4 6.5,11.2c7.7,16.4 7.9,14.3 -1.2,19c-15.7,8.2 -35.3,10.5 -49,5.8Z" style="fill:rgb(111,111,112);fill-rule:nonzero;"/>            <path d="M1203.1,135.3c-14.5,-59.3 -26.6,-108.4 -26.9,-109.1c-0.4,-1.1 4,-1.2 22.6,-1c23,0.3 23,0.3 25.7,2.8c1.5,1.4 3.1,3.3 3.6,4.2c0.8,1.5 24.7,125.4 28.6,148.6c0.9,5 1.9,9.2 2.2,9.2c0.3,0 1.5,-2.6 2.7,-5.7c5.4,-15 63.8,-151.1 65.7,-153.2c5,-5.4 8.4,-6.1 31.5,-6.1c13.7,0 21.2,0.4 21,1c-0.1,0.5 -24.1,49.6 -53.3,109l-53,108l-44,0l-26.4,-107.7Z" style="fill:rgb(111,111,112);fill-rule:nonzero;"/>            <path d="M1872.1,241.3c-0,-1 4.1,-35.8 9.2,-77.3l9.2,-75.5l14.3,-0.3c15.4,-0.3 19.9,0.8 22.5,5.2c0.7,1.2 1.4,7.6 1.7,14.6l0.5,12.4l4.5,-6.9c9.4,-14.5 22.2,-24.6 33.2,-26.1c4.5,-0.6 14.3,1 15.3,2.5c0.2,0.4 -1.4,10.2 -3.5,21.7c-2.2,11.5 -4,21.2 -4,21.7c-0,0.4 -1.7,-0.1 -3.7,-1.2c-12.7,-6.3 -26,-1.4 -35.3,13.1c-2.1,3.2 -5.3,10.6 -7.4,17c-3.2,9.9 -4.1,15.4 -7.6,45.3c-2.2,18.7 -4,34.3 -4,34.8c-0,0.4 -10.1,0.7 -22.5,0.7c-20.8,-0 -22.5,-0.1 -22.4,-1.7Z" style="fill:rgb(111,111,112);fill-rule:nonzero;"/>            <path d="M448.5,245c-3.8,-0.5 -11,-2.1 -15.9,-3.5c-12.8,-3.7 -28.6,-12 -28.6,-14.9c0,-2.2 11.9,-19.5 14.5,-21.2c4.5,-2.9 10.1,-2.2 18.5,2.4c12.1,6.6 22.6,8.6 32.6,6.1c8.7,-2.2 13.4,-10.4 10.1,-17.5c-2.4,-4.9 -7.5,-7.7 -24.3,-13.3c-18.2,-6 -28,-10.7 -34.5,-16.8c-9.8,-9.1 -14.6,-24.8 -12,-39.1c3.3,-18.4 14.3,-30.6 34.1,-37.6c8.2,-3 9.1,-3.1 25.5,-3.1c15.1,0 17.9,0.3 24.5,2.3c9,2.9 21.1,9.1 26.2,13.5l3.7,3.2l-6.7,10c-7.8,11.5 -10.1,12.9 -17.4,10.2c-19.2,-7.1 -21.4,-7.7 -28.3,-7.7c-12,0 -18.5,4.4 -18.5,12.5c0,8 3.5,10.4 26.1,18.1c9,3 19.4,7.1 23.3,9.2c17.2,9 24.7,23.9 21.7,43c-2.8,18.3 -14.2,32.2 -32.1,39.1c-12.1,4.7 -29,6.7 -42.5,5.1Z" style="fill:rgb(241,94,34);fill-rule:nonzero;"/>            <path d="M756,244.9c-24,-3.2 -37.7,-19 -36.8,-42.4c0.3,-7.3 0.9,-10.2 3.2,-15.2c3.3,-7.2 11.2,-15.2 19.7,-20.1c12.9,-7.3 33.8,-12.4 57.3,-13.8l10.9,-0.6l-0.7,-7.7c-1,-11.1 -2.3,-15.1 -6.5,-19.2c-4.1,-4.1 -9.1,-5.9 -16.6,-5.9c-7.4,0.1 -12.9,1.6 -23,6.5c-18.3,9.1 -24,7.3 -33.9,-10.6l-3.6,-6.6l6.3,-4.6c21.1,-15.8 51.5,-23 75.5,-18.1c22.4,4.6 38.6,19.9 44.2,42c1.9,7.2 2,11.2 2,61.1l0,53.3l-13,-0c-17.4,-0 -19.1,-0.7 -23.2,-9.7c-1.6,-3.7 -3.1,-6.9 -3.3,-7.1c-0.1,-0.2 -3.8,2.3 -8.1,5.4c-4.4,3.1 -10.1,6.7 -12.9,8c-10.4,4.8 -25.4,7 -37.5,5.3Zm40.5,-33.1c2.8,-1.5 6.9,-4.3 9.3,-6.3l4.2,-3.7l0,-22.1l-10.2,0.7c-18.2,1.2 -31,5.5 -34.8,11.9c-2.5,4 -2.7,12.5 -0.4,16.8c2.4,4.7 6.4,6 17.4,5.6c7.9,-0.3 10.4,-0.8 14.5,-2.9Z" style="fill:rgb(241,94,34);fill-rule:nonzero;"/>            <path d="M1072,245c-35.7,-4.3 -60.9,-28.3 -67,-64c-2,-11.4 -1.6,-28.9 0.9,-38.5c4.1,-15.9 13.6,-31.1 24.9,-40c7,-5.6 19.5,-11.9 28.2,-14.2c9.2,-2.5 33,-2.5 42,0.1c30,8.4 47.7,32.6 48.3,66.1c0.2,11.5 -1,16.6 -4.1,18.2c-1,0.4 -22.9,1 -48.8,1.3l-47.1,0.5l1.3,6.5c2,9.7 6.9,18.7 12.8,23.1c6.5,4.9 13.1,6.9 23,6.9c9.8,0 16.1,-1.7 27.8,-7.6c8.8,-4.4 14,-5.4 17.8,-3.4c2.2,1.2 16,18.3 16,19.9c0,2.1 -13.6,12.3 -21.5,16.1c-10.4,5.1 -20.4,7.7 -34,9c-6,0.5 -11.7,0.9 -12.5,0.9c-0.8,-0.1 -4.4,-0.5 -8,-0.9Zm35.7,-103.8c-0.6,-7.2 -3.3,-12.7 -8.5,-17.4c-5.2,-4.7 -10.1,-6.3 -19.4,-6.2c-14.1,0.1 -23.5,7.3 -27.8,21.2c-1.1,3.5 -2,6.8 -2,7.3c0,0.5 12.7,0.9 29.1,0.9l29.2,0l-0.6,-5.8Z" style="fill:rgb(241,94,34);fill-rule:nonzero;"/>            <path d="M551,243l0,-224l46,0l0,41c0,22.6 0.3,41 0.6,41c0.4,0 2.7,-1.5 5.3,-3.4c6.3,-4.6 14,-8.3 20.8,-10.1c7.1,-1.9 23.1,-1.9 29.9,-0.1c12.5,3.3 24.4,12.8 30.7,24.3c1.5,2.8 3.7,8.7 4.9,13c2.1,7.5 2.2,10 2.6,63.1l0.3,55.2l-46,0l-0.3,-53.2c-0.3,-51.9 -0.4,-53.4 -2.4,-57.9c-2.8,-5.9 -6.6,-9.4 -12.1,-10.9c-9.3,-2.7 -20.9,0.9 -29.9,9.2l-4.4,4.1l0,108.7l-46,-0Z" style="fill:rgb(241,94,34);fill-rule:nonzero;"/>            <path d="M889,243l0,-155.1l17,0.3c21.1,0.4 21.1,0.4 23.9,14.8c0.9,5.2 2.1,9.4 2.5,9.3c0.3,-0.1 2.9,-3.1 5.7,-6.5c10.4,-13 21.5,-19.8 33.5,-20.6c7.5,-0.5 16.1,1.5 18.4,4.3c0.9,1.1 0.6,4.9 -1.5,16.7c-3.2,18.7 -4.1,21.5 -6.6,22.3c-1.1,0.4 -6.4,0.3 -11.8,0c-8.1,-0.6 -10.9,-0.4 -15.5,1c-6.1,1.9 -12.3,6.7 -16.7,12.8l-2.9,4l0,96.7l-46,0Z" style="fill:rgb(241,94,34);fill-rule:nonzero;"/>        </g>        <g transform="matrix(0.487749,0,0,0.487749,5.00074,9.48889)">            <path d="M142.5,329.5c-26.2,-4.3 -48.4,-12.9 -69,-26.8c-13.1,-8.9 -32.3,-28.4 -41.4,-42.1c-14.5,-21.8 -18.7,-33.3 -17.8,-48.9c0.4,-7.6 1,-9.9 4.1,-16.2c6.2,-12.4 16.1,-19.7 34.1,-24.7c7.7,-2.1 10,-2.2 56.8,-2.6l48.7,-0.3l0,-49.3c-0.1,-42.6 0.1,-50.2 1.5,-55.6c5.2,-20 18.2,-32.1 37.7,-35.2c7.7,-1.1 7.9,-1.1 16.5,2.2c61.6,23.2 99.3,76.8 102,144.5c0.5,12.4 0.2,15.4 -2.1,26.6c-7,34.1 -21.2,61.4 -43.6,84c-12.8,12.9 -25.5,22 -41.1,29.3c-27.3,13 -62.1,19 -86.4,15.1Zm31.6,-21c35.6,-4.7 62.1,-17.2 83,-39.2c29.1,-30.6 43.5,-79.2 35,-118.3c-6.3,-29.6 -18.7,-52.7 -38.5,-71.8c-17.5,-16.9 -39.9,-29.2 -53,-29.2c-10.1,0.1 -16.6,5.2 -20.8,16.6c-2.1,5.7 -2.2,8 -2.9,57.9c-0.4,28.6 -0.7,54.4 -0.8,57.3l-0.1,5.3l-56.2,-0.1c-45.2,-0.1 -57.3,0.2 -61.3,1.3c-16.5,4.6 -23.2,13.2 -22.3,28.4c0.6,9.5 3.2,16.8 9.3,27c20.1,33.1 51.6,55.2 90.1,63.2c16.7,3.5 22.9,3.7 38.5,1.6Z" style="fill:rgb(111,111,112);fill-rule:nonzero;"/>            <path d="M31,150.1c-9.3,-2.9 -16.8,-9.9 -19.6,-18.5c-2.2,-6.6 -2.2,-20.1 0.1,-28.6c6.3,-24.1 30.7,-52.6 60.2,-70.3c12.6,-7.7 28.8,-12.7 40.5,-12.7c10.7,0 23.8,9.2 26.6,18.8c0.9,2.8 1.2,19.5 1.2,58.1l0,54.1l-53.2,-0.1c-29.3,0 -54.4,-0.4 -55.8,-0.8Zm86,-58.2c0,-40.6 0,-40.7 -6,-46.4c-2.3,-2.2 -4.2,-2.9 -8.2,-3.3c-4.8,-0.3 -6.3,0.1 -15.5,4.7c-24.5,12.3 -43.8,31.5 -51.6,51.1c-7,17.6 -5.8,27.2 3.7,29.9c1.7,0.5 19.9,1 40.4,1l37.2,0.1l0,-37.1Z" style="fill:rgb(241,94,34);fill-rule:nonzero;"/>        </g>    </g></svg>