<?xml version="1.0" encoding="UTF-8" standalone="no"?><!DOCTYPE svg PUBLIC "-//W3C//DTD SVG 1.1//EN" "http://www.w3.org/Graphics/SVG/1.1/DTD/svg11.dtd"><svg width="100%" height="100%" viewBox="0 0 1024 512" version="1.1" xmlns="http://www.w3.org/2000/svg" xmlns:xlink="http://www.w3.org/1999/xlink" xml:space="preserve" style="fill-rule:evenodd;clip-rule:evenodd;stroke-linejoin:round;stroke-miterlimit:2;"><title>Tez Lombard</title><desc>In our pawn shop you can get credit within 5 minutes! To take secured loan you need to have personal identity document and collateral.Gold jewellery and cars can be pawned as collateral in our pawnshops.</desc>    <g id="tez" transform="matrix(2.64894,0,0,2.64894,-16.5426,169.91)">        <path id="Rectangle-5" d="M7,6l8,0l12,22l-20,-13l0,-9Z" style="fill:url(#_Radial1);"/>        <path id="Combined-Shape" d="M41.209,15l-34.209,0l0,-9l51,0l0,9l-50,34l33.209,-34Z" style="fill:url(#_Radial2);"/>        <path id="Rectangle-5-Copy" d="M33,33l25,17l0,9l-11,0l-14,-26Z" style="fill:url(#_Radial3);"/>        <rect id="Rectangle-5-Copy-2" x="7" y="50" width="51" height="9" style="fill:url(#_Radial4);"/>        <g transform="matrix(2.37611,0,0,1.08219,-402.885,-267.9)">            <g transform="matrix(18.2178,0,0,40,199,292.031)">                <path d="M0.026,-0.676l0.602,0l0.001,0.202l-0.028,0c-0.01,-0.072 -0.037,-0.121 -0.081,-0.146c-0.026,-0.014 -0.063,-0.022 -0.113,-0.023l0,0.526c0,0.037 0.007,0.061 0.02,0.074c0.012,0.012 0.039,0.018 0.08,0.018l0,0.025l-0.357,0l0,-0.025c0.039,0 0.065,-0.006 0.078,-0.019c0.013,-0.012 0.02,-0.036 0.02,-0.073l0,-0.526c-0.049,0.001 -0.087,0.009 -0.113,0.023c-0.048,0.026 -0.075,0.075 -0.081,0.146l-0.029,0l0.001,-0.202Z" style="fill:rgb(86,41,103);fill-rule:nonzero;"/>            </g>            <g transform="matrix(18.2178,0,0,40,211.151,292.031)">                <path d="M0.016,0l0,-0.025c0.029,-0.001 0.049,-0.005 0.061,-0.012c0.019,-0.011 0.028,-0.03 0.028,-0.059l0,-0.484c0,-0.029 -0.01,-0.049 -0.029,-0.059c-0.011,-0.006 -0.031,-0.01 -0.06,-0.011l0,-0.026l0.576,0l0,0.202l-0.024,0c-0.013,-0.065 -0.034,-0.109 -0.065,-0.132c-0.03,-0.024 -0.086,-0.036 -0.166,-0.036c-0.031,0 -0.05,0.003 -0.058,0.009c-0.009,0.007 -0.013,0.019 -0.013,0.038l0,0.232c0.057,0 0.096,-0.01 0.116,-0.031c0.02,-0.022 0.035,-0.061 0.046,-0.117l0.026,0l0,0.338l-0.026,0c-0.007,-0.057 -0.022,-0.097 -0.043,-0.121c-0.022,-0.023 -0.062,-0.035 -0.119,-0.035l0,0.243c0,0.021 0.006,0.035 0.016,0.043c0.011,0.007 0.034,0.011 0.068,0.011c0.063,0 0.115,-0.012 0.156,-0.037c0.04,-0.025 0.076,-0.071 0.107,-0.139l0.028,0l-0.04,0.208l-0.585,0Z" style="fill:rgb(86,41,103);fill-rule:nonzero;"/>            </g>            <g transform="matrix(18.2178,0,0,40,223.302,292.031)">                <path d="M0.027,-0.016l0.383,-0.625c-0.076,0 -0.121,0.001 -0.135,0.002c-0.015,0.002 -0.028,0.004 -0.04,0.006c-0.042,0.009 -0.076,0.029 -0.1,0.061c-0.014,0.019 -0.03,0.053 -0.049,0.102l-0.027,0l0.021,-0.206l0.524,0l0,0.016l-0.38,0.625c0.136,0 0.227,-0.01 0.275,-0.031c0.047,-0.021 0.083,-0.079 0.108,-0.175l0.027,0l-0.027,0.241l-0.58,0l0,-0.016Z" style="fill:rgb(86,41,103);fill-rule:nonzero;"/>            </g>            <g transform="matrix(18.2178,0,0,40,240.008,292.031)">                <path d="M0.018,-0.025c0.027,-0.001 0.047,-0.005 0.059,-0.011c0.02,-0.011 0.029,-0.03 0.029,-0.06l0,-0.484c0,-0.029 -0.009,-0.049 -0.028,-0.059c-0.011,-0.006 -0.031,-0.01 -0.06,-0.011l0,-0.026l0.35,0l0,0.026c-0.041,0.001 -0.068,0.007 -0.082,0.017c-0.013,0.01 -0.02,0.035 -0.02,0.074l0,0.473c0,0.022 0.006,0.036 0.017,0.044c0.012,0.007 0.035,0.01 0.068,0.01c0.06,0 0.111,-0.013 0.152,-0.04c0.041,-0.026 0.076,-0.078 0.105,-0.155l0.03,0l-0.041,0.227l-0.579,0l0,-0.025Z" style="fill:rgb(86,41,103);fill-rule:nonzero;"/>            </g>            <g transform="matrix(18.2178,0,0,40,252.159,292.031)">                <path d="M0.388,-0.014c0.075,0 0.126,-0.044 0.154,-0.133c0.015,-0.048 0.022,-0.111 0.022,-0.188c0,-0.107 -0.015,-0.187 -0.047,-0.241c-0.032,-0.054 -0.075,-0.081 -0.129,-0.081c-0.076,0 -0.128,0.045 -0.156,0.135c-0.014,0.048 -0.022,0.11 -0.022,0.187c0,0.077 0.008,0.14 0.023,0.188c0.028,0.089 0.079,0.133 0.155,0.133Zm0,-0.677c0.101,0 0.184,0.033 0.251,0.098c0.069,0.066 0.103,0.152 0.103,0.258c0,0.105 -0.034,0.191 -0.103,0.257c-0.067,0.065 -0.151,0.098 -0.251,0.098c-0.107,0 -0.194,-0.036 -0.262,-0.107c-0.062,-0.067 -0.094,-0.148 -0.094,-0.243c0,-0.105 0.033,-0.191 0.099,-0.258c0.066,-0.069 0.152,-0.103 0.257,-0.103Z" style="fill:rgb(86,41,103);fill-rule:nonzero;"/>            </g>            <g transform="matrix(18.2178,0,0,40,266.329,292.031)">                <path d="M0.014,-0.025c0.038,-0.001 0.062,-0.007 0.074,-0.021c0.011,-0.013 0.017,-0.033 0.017,-0.059l0,-0.475c0,-0.027 -0.007,-0.045 -0.02,-0.054c-0.013,-0.008 -0.036,-0.014 -0.069,-0.016l0,-0.026l0.252,0l0.197,0.463l0.008,0l0.196,-0.463l0.252,0l0,0.026c-0.034,0.002 -0.057,0.008 -0.069,0.018c-0.013,0.01 -0.019,0.035 -0.019,0.073l0,0.442c0,0.037 0.006,0.061 0.019,0.073c0.012,0.011 0.035,0.017 0.069,0.019l0,0.025l-0.332,0l0,-0.025c0.029,-0.001 0.052,-0.006 0.067,-0.015c0.015,-0.009 0.022,-0.029 0.022,-0.059l0,-0.489l-0.007,0l-0.245,0.588l-0.027,0l-0.248,-0.576l-0.004,0l0,0.452c0,0.034 0.006,0.058 0.019,0.073c0.012,0.016 0.039,0.024 0.082,0.026l0,0.025l-0.234,0l0,-0.025Z" style="fill:rgb(86,41,103);fill-rule:nonzero;"/>            </g>            <g transform="matrix(18.2178,0,0,40,283.524,292.031)">                <path d="M0.016,-0.025c0.027,-0.001 0.047,-0.005 0.058,-0.011c0.02,-0.011 0.03,-0.03 0.03,-0.06l0,-0.484c0,-0.029 -0.009,-0.049 -0.028,-0.059c-0.011,-0.006 -0.031,-0.01 -0.06,-0.011l0,-0.026l0.309,0c0.06,0 0.109,0.007 0.149,0.021c0.074,0.025 0.111,0.072 0.111,0.14c0,0.042 -0.015,0.074 -0.045,0.099c-0.03,0.024 -0.063,0.039 -0.098,0.046l0,0.009c0.037,0.007 0.069,0.019 0.097,0.036c0.053,0.033 0.08,0.08 0.08,0.139c0,0.055 -0.026,0.1 -0.077,0.134c-0.051,0.035 -0.119,0.052 -0.204,0.052l-0.322,0l0,-0.025Zm0.248,-0.348c0.062,0 0.103,-0.01 0.124,-0.03c0.021,-0.02 0.032,-0.056 0.032,-0.107c0,-0.038 -0.007,-0.07 -0.021,-0.096c-0.014,-0.026 -0.04,-0.04 -0.08,-0.04c-0.02,0 -0.035,0.004 -0.043,0.011c-0.008,0.007 -0.012,0.02 -0.012,0.038l0,0.224Zm0,0.281c0,0.017 0.003,0.03 0.007,0.038c0.009,0.015 0.024,0.022 0.047,0.022c0.048,0 0.081,-0.013 0.1,-0.039c0.019,-0.026 0.028,-0.062 0.028,-0.11c0,-0.071 -0.021,-0.118 -0.063,-0.141c-0.025,-0.015 -0.065,-0.021 -0.119,-0.02l0,0.25Z" style="fill:rgb(86,41,103);fill-rule:nonzero;"/>            </g>            <g transform="matrix(18.2178,0,0,40,295.675,292.031)">                <path d="M0.393,-0.236l-0.096,-0.231l-0.008,0l-0.09,0.231l0.194,0Zm-0.375,0.211c0.024,-0.002 0.044,-0.013 0.058,-0.033c0.01,-0.013 0.023,-0.041 0.041,-0.084l0.222,-0.547l0.028,0l0.223,0.525c0.025,0.059 0.044,0.097 0.056,0.114c0.012,0.017 0.03,0.025 0.053,0.025l0,0.025l-0.324,0l0,-0.025c0.033,-0.002 0.054,-0.004 0.064,-0.009c0.01,-0.004 0.016,-0.015 0.016,-0.032c0,-0.008 -0.003,-0.02 -0.008,-0.036c-0.003,-0.009 -0.008,-0.02 -0.013,-0.034l-0.026,-0.06l-0.224,0c-0.015,0.039 -0.024,0.065 -0.029,0.077c-0.009,0.026 -0.013,0.045 -0.013,0.057c0,0.014 0.01,0.024 0.029,0.031c0.011,0.003 0.028,0.005 0.051,0.006l0,0.025l-0.204,0l0,-0.025Z" style="fill:rgb(86,41,103);fill-rule:nonzero;"/>            </g>            <g transform="matrix(18.2178,0,0,40,308.832,292.031)">                <path d="M0.016,-0.025c0.034,-0.002 0.057,-0.008 0.069,-0.019c0.013,-0.012 0.019,-0.036 0.019,-0.073l0,-0.442c0,-0.038 -0.007,-0.064 -0.022,-0.075c-0.01,-0.008 -0.032,-0.013 -0.066,-0.016l0,-0.026l0.322,0c0.067,0 0.121,0.007 0.162,0.021c0.08,0.029 0.12,0.079 0.12,0.153c0,0.054 -0.02,0.097 -0.06,0.128c-0.031,0.024 -0.063,0.039 -0.097,0.045l0.201,0.285c0.006,0.008 0.011,0.013 0.018,0.015c0.006,0.003 0.013,0.004 0.023,0.005l0,0.024l-0.205,0l-0.208,-0.313l-0.026,0l0,0.196c0,0.035 0.006,0.059 0.018,0.071c0.011,0.013 0.035,0.019 0.07,0.021l0,0.025l-0.338,0l0,-0.025Zm0.25,-0.32c0.066,-0.001 0.112,-0.01 0.14,-0.027c0.029,-0.018 0.043,-0.058 0.043,-0.121c0,-0.039 -0.006,-0.07 -0.016,-0.092c-0.019,-0.038 -0.053,-0.057 -0.102,-0.057c-0.027,0 -0.044,0.003 -0.052,0.01c-0.009,0.007 -0.013,0.018 -0.013,0.033l0,0.254Z" style="fill:rgb(86,41,103);fill-rule:nonzero;"/>            </g>            <g transform="matrix(18.2178,0,0,40,321.988,292.031)">                <path d="M0.014,-0.025c0.025,-0.002 0.043,-0.006 0.054,-0.011c0.019,-0.01 0.029,-0.029 0.029,-0.055l0,-0.493c0,-0.026 -0.009,-0.044 -0.028,-0.054c-0.01,-0.006 -0.029,-0.01 -0.055,-0.012l0,-0.026l0.305,0c0.124,0 0.218,0.033 0.283,0.099c0.058,0.06 0.088,0.14 0.088,0.241c0,0.091 -0.03,0.167 -0.089,0.23c-0.067,0.071 -0.157,0.106 -0.271,0.106l-0.316,0l0,-0.025Zm0.245,-0.067c0.001,0.02 0.005,0.035 0.011,0.044c0.007,0.009 0.021,0.014 0.043,0.014c0.059,0 0.108,-0.021 0.146,-0.063c0.038,-0.042 0.057,-0.122 0.057,-0.241c0,-0.071 -0.01,-0.131 -0.031,-0.182c-0.033,-0.082 -0.089,-0.123 -0.168,-0.123c-0.026,0 -0.043,0.006 -0.05,0.017c-0.006,0.007 -0.008,0.021 -0.008,0.042l0,0.492Z" style="fill:rgb(86,41,103);fill-rule:nonzero;"/>            </g>        </g>    </g>    <defs>        <radialGradient id="_Radial1" cx="0" cy="0" r="1" gradientUnits="userSpaceOnUse" gradientTransform="matrix(16.7766,0,0,16.7766,7,15.5745)"><stop offset="0" style="stop-color:rgb(57,40,76);stop-opacity:1"/><stop offset="1" style="stop-color:rgb(85,42,102);stop-opacity:1"/></radialGradient>        <radialGradient id="_Radial2" cx="0" cy="0" r="1" gradientUnits="userSpaceOnUse" gradientTransform="matrix(60.4884,0,0,60.4884,59,6)"><stop offset="0" style="stop-color:rgb(57,40,76);stop-opacity:1"/><stop offset="1" style="stop-color:rgb(85,42,102);stop-opacity:1"/></radialGradient>        <radialGradient id="_Radial3" cx="0" cy="0" r="1" gradientUnits="userSpaceOnUse" gradientTransform="matrix(26,0,0,26,59,51.4733)"><stop offset="0" style="stop-color:rgb(188,54,35);stop-opacity:1"/><stop offset="1" style="stop-color:rgb(229,58,36);stop-opacity:1"/></radialGradient>        <radialGradient id="_Radial4" cx="0" cy="0" r="1" gradientUnits="userSpaceOnUse" gradientTransform="matrix(289,0,0,289,7,50)"><stop offset="0" style="stop-color:rgb(188,54,35);stop-opacity:1"/><stop offset="1" style="stop-color:rgb(229,58,36);stop-opacity:1"/></radialGradient>    </defs></svg>