<?xml version="1.0" encoding="UTF-8" standalone="no"?><!DOCTYPE svg PUBLIC "-//W3C//DTD SVG 1.1//EN" "http://www.w3.org/Graphics/SVG/1.1/DTD/svg11.dtd"><svg width="100%" height="100%" viewBox="0 0 1024 512" version="1.1" xmlns="http://www.w3.org/2000/svg" xmlns:xlink="http://www.w3.org/1999/xlink" xml:space="preserve" style="fill-rule:evenodd;clip-rule:evenodd;stroke-linejoin:round;stroke-miterlimit:2;"><title>Brickstarter</title><desc>With Brickstarter you will make the most profitable and secured investment. It is the most profitable as we focus on vacation rental properties which are the most profitable kind of assets, and it is 100% secure as there is always a real estate asset as your investment collateral. You will receive monthly payments based on the performance of your property, with no outstanding payments.</desc>    <g transform="matrix(5.68671,0,0,5.68573,2.00161,166.061)">        <path id="Fill-1" d="M43.867,23.864l2.601,0c2.345,0 3.828,-0.695 3.828,-2.583c0,-1.713 -1.186,-2.676 -3.181,-2.676l-3.248,0l0,5.259Zm0,-7.883l2.318,0c2.237,0 3.329,-0.844 3.329,-2.383c0,-1.526 -1.079,-2.315 -2.615,-2.315l-3.032,0l0,4.698Zm-3.867,-7.535l7.829,0c3.275,0 5.512,1.646 5.512,4.484c0,2.342 -1.469,3.613 -3.194,4.002l0,0.173c2.21,0.201 4.11,1.713 4.11,4.443c0,3.361 -2.816,5.166 -6.401,5.166l-7.856,0l0,-18.268Z" style="fill:rgb(33,33,33);"/>        <path id="Fill-3" d="M56.023,12.474l3.8,0l0,2.007l0.162,0c0.309,-0.923 1.374,-2.207 3.315,-2.207c0.525,0 0.903,0.04 1.172,0.106l0,3.239c-0.282,-0.093 -0.876,-0.147 -1.455,-0.147c-2.291,0 -3.099,1.352 -3.099,3.265l0,7.977l-3.895,0l0,-14.24Z" style="fill:rgb(33,33,33);"/>        <path id="Fill-5" d="M66.187,26.714l3.786,0l0,-14.24l-3.786,0l0,14.24Zm1.887,-19.714c1.159,0 2.115,0.777 2.115,1.927c0,1.164 -0.956,1.941 -2.115,1.941c-1.159,0 -2.102,-0.777 -2.102,-1.941c0,-1.15 0.943,-1.927 2.102,-1.927Z" style="fill:rgb(33,33,33);"/>        <path id="Fill-7" d="M72.094,18.952c0,-3.962 2.413,-6.732 6.469,-6.732c3.678,0 5.915,2.302 5.996,5.139l-3.476,0c-0.176,-1.165 -1.079,-2.168 -2.359,-2.168c-1.752,0 -2.816,1.459 -2.816,3.801l0,1.071c0,2.449 1.091,3.935 2.829,3.935c1.55,0 2.251,-0.95 2.4,-2.034l3.476,0c-0.27,3.318 -2.655,5.005 -6.065,5.005c-3.988,0 -6.454,-2.663 -6.454,-6.88l0,-1.137Z" style="fill:rgb(33,33,33);"/>        <path id="Fill-8" d="M90.207,26.715l-3.787,0l0,-19.233l3.787,0l0,10.76l0.175,0l4.474,-5.767l4.366,0l-5.148,6.142l5.499,8.098l-4.461,0l-3.948,-5.957l-0.957,1.125l0,4.832Z" style="fill:rgb(33,33,33);"/>        <path id="Fill-9" d="M105.49,12.22c3.41,0 5.552,1.66 5.552,4.363l-3.342,0c-0.094,-0.856 -0.661,-1.794 -2.291,-1.794c-1.32,0 -2.156,0.63 -2.156,1.593c0,1.379 2.102,1.593 3.733,1.888c2.641,0.468 4.501,1.405 4.501,4.002c0,2.944 -2.304,4.697 -6.186,4.697c-3.787,0 -5.942,-1.753 -5.942,-4.283l3.678,0c0.135,1.004 1.024,1.699 2.466,1.699c1.577,0 2.318,-0.762 2.318,-1.631c0,-1.326 -1.752,-1.5 -3.544,-1.862c-2.56,-0.534 -4.622,-1.511 -4.622,-4.162c0,-3.185 2.763,-4.51 5.835,-4.51" style="fill:rgb(33,33,33);"/>        <path id="Fill-10" d="M114.345,9.115l3.68,0l0,3.359l2.762,0l0,2.904l-2.762,0l0,6.746c0,1.365 0.606,1.794 2.034,1.794c0.31,0 0.62,0 0.782,-0.027l0,2.771c-0.283,0.052 -0.944,0.12 -1.698,0.12c-3.598,0 -4.878,-1.178 -4.878,-4.11l0,-7.294l-2.048,0l0,-2.904l2.128,0l0,-3.359Z" style="fill:rgb(33,33,33);"/>        <path id="Fill-11" d="M130.56,22.057l0,-1.473l-2.547,0c-1.496,0 -2.25,0.71 -2.25,1.755c0,1.271 1.077,1.886 2.21,1.886c1.429,0 2.587,-0.87 2.587,-2.168m-3.84,4.872c-2.79,0 -4.717,-1.633 -4.717,-4.324c0,-2.569 1.792,-4.201 5.107,-4.201l3.45,0l0,-1.259c0,-1.338 -0.822,-2.088 -2.224,-2.088c-1.387,0 -2.196,0.75 -2.264,1.834l-3.544,0c0.095,-2.369 1.604,-4.631 5.875,-4.631c3.33,0 5.89,1.499 5.89,4.885l0,9.57l-3.571,0l0,-1.727l-0.162,0c-0.539,1.031 -1.725,1.941 -3.84,1.941" style="fill:rgb(33,33,33);"/>        <path id="Fill-12" d="M136.733,12.474l3.8,0l0,2.007l0.162,0c0.31,-0.923 1.374,-2.207 3.315,-2.207c0.526,0 0.903,0.04 1.173,0.106l0,3.239c-0.283,-0.093 -0.877,-0.147 -1.456,-0.147c-2.291,0 -3.099,1.352 -3.099,3.265l0,7.977l-3.895,0l0,-14.24Z" style="fill:rgb(33,33,33);"/>        <path id="Fill-13" d="M148.325,9.115l3.68,0l0,3.359l2.762,0l0,2.904l-2.762,0l0,6.746c0,1.365 0.606,1.794 2.035,1.794c0.309,0 0.619,0 0.781,-0.027l0,2.771c-0.283,0.052 -0.943,0.12 -1.698,0.12c-3.598,0 -4.878,-1.178 -4.878,-4.11l0,-7.294l-2.048,0l0,-2.904l2.128,0l0,-3.359Z" style="fill:rgb(33,33,33);"/>        <path id="Fill-14" d="M165.309,18.082l0,-0.026c0,-1.754 -1.079,-3.079 -2.723,-3.079c-1.657,0 -2.749,1.339 -2.749,3.079l0,0.026l5.472,0Zm-9.191,2.061l0,-1.245c0,-4.255 2.668,-6.678 6.441,-6.678c3.935,0 6.401,2.636 6.401,6.758l0,1.406l-9.123,0l0,0.428c0,2.035 1.2,3.32 2.897,3.32c1.375,0 2.359,-0.67 2.615,-1.793l3.49,0c-0.296,2.262 -2.156,4.63 -6.131,4.63c-3.949,0 -6.59,-2.409 -6.59,-6.826Z" style="fill:rgb(33,33,33);"/>        <path id="Fill-15" d="M170.915,12.474l3.801,0l0,2.007l0.162,0c0.309,-0.923 1.374,-2.207 3.315,-2.207c0.525,0 0.903,0.04 1.172,0.106l0,3.239c-0.283,-0.093 -0.876,-0.147 -1.455,-0.147c-2.291,0 -3.099,1.352 -3.099,3.265l0,7.977l-3.896,0l0,-14.24Z" style="fill:rgb(33,33,33);"/>        <path id="Fill-16" d="M30.631,20.954l-14.192,10.409c-0.497,0.365 -1.173,0.365 -1.671,0l-14.191,-10.409c-0.77,-0.565 -0.77,-1.713 0,-2.278l14.191,-10.408c0.498,-0.365 1.174,-0.365 1.671,0l14.192,10.408c0.769,0.565 0.769,1.713 0,2.278" style="fill:rgb(123,62,236);"/>        <path id="Fill-4" d="M30.631,12.96l-14.192,10.409c-0.497,0.364 -1.173,0.364 -1.671,0l-14.191,-10.409c-0.77,-0.565 -0.77,-1.712 0,-2.277l14.191,-10.41c0.498,-0.364 1.174,-0.364 1.671,0l14.192,10.41c0.769,0.565 0.769,1.712 0,2.277" style="fill:rgb(54,215,180);"/>    </g></svg>