<?xml version="1.0" encoding="UTF-8" standalone="no"?><!DOCTYPE svg PUBLIC "-//W3C//DTD SVG 1.1//EN" "http://www.w3.org/Graphics/SVG/1.1/DTD/svg11.dtd"><svg width="100%" height="100%" viewBox="0 0 1024 512" version="1.1" xmlns="http://www.w3.org/2000/svg" xmlns:xlink="http://www.w3.org/1999/xlink" xml:space="preserve" style="fill-rule:evenodd;clip-rule:evenodd;stroke-linejoin:round;stroke-miterlimit:2;"><title>Lenndy</title><desc>Lenndy is a peer-to-peer lending marketplace, where investors can invest in loans by buying out prior issued loan rights. </desc>    <g id="lenndy-512x256.svg" transform="matrix(2.02216,0,0,2.02216,-5.70445,-2.83706)">        <path id="_8761290d-c1a4-46b0-ab7c-da9941fcb2ba" d="M136.38,74.86l-69.07,-33.3l0,172.88l69.09,0l-0.02,-139.58Zm-62,126.89l0,-135.8l56.44,24.51l0.07,115.91l-56.51,-4.62Z" style="fill:rgb(83,181,75);fill-rule:nonzero;"/>        <g id="bb34f94a-0529-4a5b-b686-9f7f206b9e6f" transform="matrix(0.49452,0,0,0.49452,2.82096,1.40298)">            <path d="M164.44,270.802l-12.355,-5.176l0,-9.909l12.355,5.197l0,9.888Zm14.924,-12.719l-12.376,-5.197l0,-9.889l12.376,5.177l0,9.909Zm-14.924,-6.309l-12.355,-5.177l0,-9.909l12.355,5.197l0,9.889Zm29.827,-6.471l-12.355,-5.197l0,-9.889l12.355,5.177l0,9.909Zm-14.903,-6.411l-12.376,-5.196l0,-9.889l12.376,5.177l0,9.908Zm29.807,-5.196l-12.356,-5.197l0,-9.889l12.356,5.177l0,9.909Zm-44.731,-1.113l-12.355,-5.176l0,-9.909l12.355,5.197l0,9.888Zm29.827,-5.298l-12.355,-5.197l0,-9.888l12.355,5.177l0,9.908Zm-14.903,-6.41l-12.376,-5.177l0,-9.908l12.376,5.176l0,9.909Zm44.71,-0.182l-12.355,-5.177l0,-9.908l12.355,5.176l0,9.909Zm-14.903,-6.107l-12.356,-5.197l0,-9.888l12.356,5.176l0,9.909Zm-44.731,0l-12.355,-5.197l0,-9.888l12.355,5.176l0,9.909Zm29.827,-6.41l-12.355,-5.197l0,-9.889l12.355,5.177l0,9.909Zm44.731,-0.101l-12.376,-5.177l0,-9.909l12.376,5.197l0,9.889Zm-14.924,-6.289l-12.355,-5.197l0,-9.889l12.355,5.177l0,9.909Zm-44.71,-0.02l-12.376,-5.197l0,-9.889l12.376,5.177l0,9.909Zm29.807,-6.107l-12.356,-5.177l0,-9.909l12.356,5.197l0,9.889Zm-44.731,-0.203l-12.355,-5.176l0,-9.909l12.355,5.197l0,9.888Zm89.461,-0.222l-12.355,-5.197l0,-9.888l12.355,5.176l0,9.909Zm-59.634,-5.986l-12.355,-5.176l0,-9.909l12.355,5.197l0,9.888Zm44.731,-0.364l-12.376,-5.176l0,-9.909l12.376,5.197l0,9.888Zm-59.634,-6.026l-12.376,-5.197l0,-9.888l12.376,5.177l0,9.908Zm44.71,-0.263l-12.355,-5.176l0,-9.909l12.355,5.177l0,9.908Zm-59.634,-6.046l-12.355,-5.177l0,-9.908l12.355,5.197l0,9.888Zm44.731,-0.081l-12.356,-5.176l0,-9.889l12.356,5.177l0,9.888Zm-14.904,-6.39l-12.355,-5.197l0,-9.888l12.355,5.177l0,9.908Zm-14.903,-6.41l-12.376,-5.177l0,-9.908l12.376,5.176l0,9.909Zm-14.924,-6.309l-12.355,-5.177l0,-9.888l12.355,5.176l0,9.889Z" style="fill:rgb(209,210,212);fill-rule:nonzero;"/>        </g>        <path id="_23ef64c5-acd4-4fe4-8e09-61bf9d6577d3" d="M3.81,122.7l0,91.74l55.24,-0.07l0,-110.37l-55.24,18.7Zm49.93,80.52l-45.53,5.14l0,-73.08l45.53,-14.41l0,82.35Z" style="fill:rgb(83,181,75);fill-rule:nonzero;"/>        <g id="_0001592b-5324-411c-994f-f6b14947c999" transform="matrix(0.49452,0,0,0.49452,2.82096,1.40298)">            <path d="M88.185,332.033l8.23,-2.79l0,-5.844l-8.23,2.79l0,5.844Zm-9.545,-8.634l8.25,-2.771l0,-5.844l-8.25,2.791l0,5.824Zm9.545,-3.175l8.23,-2.791l0,-5.823l-8.23,2.77l0,5.844Zm-19.069,-6.107l8.23,-2.791l0,-5.823l-8.23,2.77l0,5.844Zm9.524,-3.235l8.25,-2.791l0,-5.824l-8.25,2.77l0,5.845Zm9.545,-3.195l8.23,-2.771l0,-5.844l-8.23,2.791l0,5.824Zm-28.614,-1.82l8.25,-2.771l0,-5.844l-8.25,2.791l0,5.824Zm9.545,-3.074l8.23,-2.77l0,-5.845l-8.23,2.791l0,5.824Zm9.524,-3.236l8.25,-2.77l0,-5.844l-8.25,2.791l0,5.823Zm-28.593,-2.77l8.23,-2.791l0,-5.823l-8.23,2.77l0,5.844Zm38.138,-0.404l8.23,-2.791l0,-5.824l-8.23,2.771l0,5.844Zm-28.614,-2.791l8.25,-2.77l0,-5.844l-8.25,2.79l0,5.824Zm9.545,-3.074l8.23,-2.79l0,-5.824l-8.23,2.791l0,5.823Zm-28.614,-2.75l8.25,-2.79l0,-5.844l-8.25,2.79l0,5.844Zm38.138,-0.485l8.25,-2.77l0,-5.845l-8.25,2.791l0,5.824Zm-28.593,-2.77l8.23,-2.791l0,-5.844l-8.23,2.79l0,5.845Zm38.138,-0.405l8.23,-2.791l0,-5.844l-8.23,2.791l0,5.844Zm-28.614,-2.791l8.25,-2.79l0,-5.824l-8.25,2.77l0,5.844Zm-28.593,-2.75l8.23,-2.79l0,-5.844l-8.23,2.79l0,5.844Zm38.138,-0.323l8.23,-2.791l0,-5.824l-8.23,2.771l0,5.844Zm-28.614,-2.771l8.25,-2.77l0,-5.844l-8.25,2.791l0,5.823Zm38.138,-0.465l8.25,-2.79l0,-5.824l-8.25,2.77l0,5.844Zm-28.593,-2.79l8.23,-2.771l0,-5.844l-8.23,2.791l0,5.824Zm38.138,-0.405l8.23,-2.77l0,-5.844l-8.23,2.79l0,5.824Zm-28.614,-2.77l8.25,-2.791l0,-5.823l-8.25,2.77l0,5.844Zm9.545,-3.074l8.23,-2.79l0,-5.824l-8.23,2.77l0,5.844Zm9.524,-3.235l8.25,-2.791l0,-5.824l-8.25,2.771l0,5.844Zm9.545,-3.195l8.23,-2.771l0,-5.844l-8.23,2.791l0,5.824Z" style="fill:rgb(209,210,212);fill-rule:nonzero;"/>        </g>        <path id="_8543a49b-48d3-4532-a949-df6cb80be3c0" d="M449.71,214.44l-304.76,0l0,-8.91l308.53,0l-3.77,8.91Z" style="fill:rgb(83,181,75);fill-rule:nonzero;"/>        <path id="_4ecfc5b3-88fa-42a7-a4d3-4310fe12f7c1" d="M425,149.12l0,-2.12l0,-37.31c0,-3.25 0,-3.25 3.33,-3.25l7.26,0c2.39,0 2.4,0 2.4,2.48l0,85.77c0,2.34 0,2.39 -2.33,2.39l-8.95,0c-1.2,0 -1.77,-0.44 -1.72,-1.69c0.05,-1.25 0,-2.8 0,-4.73c-0.67,0.72 -1,1.08 -1.37,1.46c-3.748,4.294 -9.123,6.833 -14.82,7c-4.91,0.22 -9.67,-0.35 -14,-2.78c-6.24,-3.47 -9.89,-9 -11.6,-15.71c-2.33,-9.16 -2.2,-18.27 1.67,-27.1c5.86,-13.33 23.1,-18.45 34.88,-10.32c1.051,0.752 2.014,1.621 2.87,2.59c0.85,1.065 1.645,2.173 2.38,3.32Zm0.7,19.77c-0.396,-2.767 -0.954,-5.508 -1.67,-8.21c-1.644,-5.588 -6.806,-9.454 -12.63,-9.46c-7,-0.15 -12,2.87 -14.31,8.86c-2.306,5.881 -2.402,12.404 -0.27,18.35c3.83,11.25 17.94,11.16 23.43,5.12c3.83,-4.21 5.1,-9.14 5.48,-14.67l-0.03,0.01Z" style="fill:rgb(58,58,60);fill-rule:nonzero;"/>        <path id="_6db28357-f7e5-4735-bf91-0bf4babc1916" d="M225.75,171.42l-19.59,0c-2.29,0 -2.58,0.32 -2.14,2.56c1.22,6.24 4.2,11.23 10.78,12.69c7.25,1.62 13.78,0.12 18.62,-6.06c0.8,-1 1.37,-2.2 2.2,-3.18c0.407,-0.411 0.991,-0.594 1.56,-0.49c3.093,1.613 6.14,3.31 9.14,5.09c0.348,0.404 0.461,0.962 0.3,1.47c-4.78,8.31 -11.64,13.83 -21.29,15.27c-6.83,1 -13.61,0.71 -20,-2.41c-8.5,-4.17 -13.23,-11.18 -14.66,-20.38c-1.28,-8.2 -0.66,-16.21 4,-23.43c5.27,-8.22 12.92,-12.47 22.63,-13c5.245,-0.405 10.511,0.435 15.37,2.45c8.42,3.69 12.89,10.42 14.42,19.25c0.47,2.7 0.47,5.48 0.72,8.22c0.13,1.48 -0.52,2 -2,2c-6.67,-0.08 -13.36,-0.05 -20.06,-0.05Zm8.31,-9.3c-0.268,-3.213 -1.805,-6.191 -4.27,-8.27c-5.12,-4.17 -14.69,-4.29 -19.94,-0.25c-2.651,2.133 -4.43,5.165 -5,8.52l29.21,0Z" style="fill:rgb(58,58,60);fill-rule:nonzero;"/>        <path id="e6602035-09b5-4e78-800b-ad7ee4c3090a" d="M333.9,149c1.69,-1.57 3.17,-3 4.74,-4.37c3.74,-3.22 8.26,-4.54 13,-4.93c4.277,-0.494 8.611,-0.051 12.7,1.3c6.051,2.018 10.227,7.625 10.43,14c0.25,13.44 0.25,26.89 0.39,40.33c0,1.37 -0.62,1.74 -1.86,1.73c-3.15,0 -6.3,-0.07 -9.45,0c-1.57,0 -2,-0.59 -2,-2.1c0,-9.51 0.1,-19 0,-28.53c-0.078,-2.973 -0.412,-5.934 -1,-8.85c-0.74,-3.88 -3.36,-6.07 -7.17,-6.64c-3.395,-0.641 -6.901,-0.343 -10.14,0.86c-5,2 -8.23,5.67 -8.46,11.16c-0.34,8.09 -0.29,16.19 -0.39,24.29c0,2.64 -0.06,5.29 0,7.93c0,1.41 -0.54,1.89 -1.9,1.87c-3.15,-0.05 -6.3,-0.07 -9.45,0c-1.49,0 -2,-0.56 -1.95,-2l0,-51.16c0,-2.33 0.06,-2.38 2.34,-2.39l8.44,0c1.34,0 1.81,0.53 1.77,1.8c-0.08,1.9 -0.04,3.7 -0.04,5.7Z" style="fill:rgb(58,58,60);fill-rule:nonzero;"/>        <path id="_2b839903-e64b-4f87-8566-507f179e2f33" d="M267.07,149.66c1.46,-1.6 2.54,-2.95 3.78,-4.12c3.872,-3.612 8.928,-5.696 14.22,-5.86c3.198,-0.191 6.407,-0.003 9.56,0.56c8.39,1.55 13.46,7.54 13.6,16.05c0.22,12.94 0.22,25.88 0.35,38.82c0,1.43 -0.44,2 -1.94,2c-3.153,-0.073 -6.307,-0.073 -9.46,0c-1.49,0 -1.94,-0.57 -1.93,-2c0,-9.29 0.1,-18.58 0,-27.86c-0.039,-3.088 -0.374,-6.166 -1,-9.19c-1,-4.69 -3.91,-6.92 -8.7,-7.22c-2.971,-0.326 -5.978,0.016 -8.8,1c-5.92,2.34 -8.5,6.94 -8.61,13.06c-0.18,9.9 -0.23,19.8 -0.33,29.7c0,2.42 0,2.44 -2.46,2.45l-8.61,0c-1.31,0 -1.95,-0.37 -1.94,-1.82l0,-51.85c0,-1.36 0.44,-1.93 1.85,-1.89c2.93,0.07 5.85,0.06 8.78,0c1.23,0 1.73,0.45 1.7,1.69c-0.13,2.07 -0.06,4.07 -0.06,6.48Z" style="fill:rgb(58,58,60);fill-rule:nonzero;"/>        <path id="a76f3b72-5be8-4419-b3a5-e084207d6930" d="M159.26,147.91l0,33.6c0,2.63 0,2.63 2.56,2.63l25.84,0c2.37,0 2.39,0 2.4,2.32l0,8.78c0,1.26 -0.38,1.86 -1.73,1.85l-41.71,0c-1.38,0 -1.69,-0.67 -1.69,-1.89l0,-81.06c0,-2.64 0,-2.64 2.57,-2.64c3.21,0 6.42,0.07 9.62,0c1.65,-0.05 2.13,0.57 2.13,2.15c-0.01,11.41 0.01,22.84 0.01,34.26Z" style="fill:rgb(58,58,60);fill-rule:nonzero;"/>        <path id="e8c8f9d7-e9a5-4914-b0c0-70bb4d660dbe" d="M459.9,213.72c0.4,-1 0.6,-1.66 0.89,-2.24c2.9,-6 5.79,-11.95 8.76,-17.88c0.559,-1.036 0.589,-2.279 0.08,-3.34c-6.267,-15.487 -12.507,-30.987 -18.72,-46.5c-0.24,-0.6 -0.41,-1.24 -0.71,-2.18l4.61,0c2.76,0 5.52,-0.06 8.27,0.05c0.731,0.056 1.394,0.453 1.79,1.07c3.94,11.37 7.79,22.77 11.64,34.17c0.23,0.68 0.33,1.41 0.55,2.36c0.179,-0.191 0.339,-0.399 0.48,-0.62c4.507,-10 9.007,-20 13.5,-30c0.88,-1.95 1.75,-3.91 2.75,-5.79c0.335,-0.606 0.921,-1.035 1.6,-1.17c4,-0.09 8,0 12,0c0.287,0.06 0.566,0.154 0.83,0.28c-0.41,1 -0.75,1.92 -1.18,2.8c-6.78,13.847 -13.563,27.69 -20.35,41.53c-4,8.14 -8,16.24 -11.84,24.46c-1.08,2.32 -2.34,3.3 -4.94,3.1c-3.21,-0.29 -6.42,-0.1 -10.01,-0.1Z" style="fill:rgb(58,58,60);fill-rule:nonzero;"/>    </g></svg>