<?xml version="1.0" encoding="UTF-8" standalone="no"?><!DOCTYPE svg PUBLIC "-//W3C//DTD SVG 1.1//EN" "http://www.w3.org/Graphics/SVG/1.1/DTD/svg11.dtd"><svg width="100%" height="100%" viewBox="0 0 1024 512" version="1.1" xmlns="http://www.w3.org/2000/svg" xmlns:xlink="http://www.w3.org/1999/xlink" xml:space="preserve" style="fill-rule:evenodd;clip-rule:evenodd;stroke-linejoin:round;stroke-miterlimit:2;"><title>Modalku</title><desc>We support SME owners in starting or growing their businesses by providing access to funding from individual as well as institutional lenders.</desc>    <g transform="matrix(5.96731,0,0,5.96731,2.00149,124.242)">        <path d="M74.83,14.433c1.662,0 2.992,0.542 3.988,1.623c0.996,1.084 1.493,2.534 1.493,4.351l0,8.934l-3.74,0l0,-8.672c0,-0.87 -0.214,-1.547 -0.64,-2.03c-0.425,-0.484 -1.024,-0.726 -1.798,-0.726c-0.85,0 -1.512,0.28 -1.986,0.842c-0.474,0.56 -0.711,1.373 -0.711,2.436l0,8.15l-3.741,0l0,-8.672c0,-0.87 -0.213,-1.547 -0.638,-2.03c-0.426,-0.484 -1.025,-0.726 -1.799,-0.726c-0.832,0 -1.494,0.28 -1.986,0.842c-0.494,0.56 -0.74,1.373 -0.74,2.436l0,8.15l-3.742,0l0,-14.502l3.742,0l0,1.537c0.87,-1.295 2.214,-1.943 4.031,-1.943c1.78,0 3.094,0.696 3.945,2.088c0.967,-1.392 2.407,-2.088 4.321,-2.088l0.001,0Zm12.109,10.528c0.744,0.755 1.677,1.132 2.798,1.132c1.122,0 2.06,-0.377 2.814,-1.132c0.753,-0.754 1.132,-1.712 1.132,-2.871c0,-1.16 -0.379,-2.118 -1.132,-2.872c-0.754,-0.753 -1.692,-1.13 -2.814,-1.13c-1.121,0 -2.054,0.377 -2.798,1.13c-0.745,0.754 -1.117,1.712 -1.117,2.872c0,1.16 0.372,2.117 1.117,2.871m8.251,2.568c-1.49,1.479 -3.306,2.218 -5.453,2.218c-2.146,0 -3.959,-0.74 -5.438,-2.218c-1.479,-1.48 -2.218,-3.293 -2.218,-5.44c0,-2.145 0.74,-3.958 2.218,-5.437c1.48,-1.48 3.292,-2.22 5.438,-2.22c2.147,0 3.964,0.74 5.453,2.22c1.49,1.479 2.234,3.292 2.234,5.438c0,2.146 -0.745,3.959 -2.234,5.439m8.832,-2.495c0.764,0.764 1.726,1.146 2.886,1.146c1.16,0 2.117,-0.382 2.871,-1.146c0.754,-0.763 1.132,-1.745 1.132,-2.944c0,-1.199 -0.378,-2.18 -1.132,-2.944c-0.754,-0.764 -1.71,-1.146 -2.871,-1.146c-1.16,0 -2.122,0.383 -2.886,1.146c-0.765,0.764 -1.145,1.745 -1.145,2.944c0,1.2 0.38,2.18 1.145,2.944Zm6.889,-15.996l3.741,0l0,20.303l-3.741,0l0,-1.711c-1.103,1.411 -2.669,2.117 -4.7,2.117c-1.952,0 -3.62,-0.74 -5.002,-2.218c-1.384,-1.48 -2.074,-3.293 -2.074,-5.44c0,-2.145 0.69,-3.958 2.074,-5.437c1.382,-1.48 3.05,-2.22 5.003,-2.22c2.03,0 3.596,0.706 4.699,2.118l0,-7.512Zm10.597,15.996c0.754,0.764 1.712,1.146 2.872,1.146c1.16,0 2.123,-0.382 2.886,-1.146c0.763,-0.763 1.146,-1.745 1.146,-2.944c0,-1.199 -0.383,-2.18 -1.146,-2.944c-0.763,-0.764 -1.727,-1.146 -2.886,-1.146c-1.16,0 -2.118,0.383 -2.872,1.146c-0.753,0.764 -1.132,1.745 -1.132,2.944c0,1.2 0.379,2.18 1.132,2.944Zm6.904,-10.195l3.741,0l0,14.501l-3.741,0l0,-1.71c-1.122,1.411 -2.698,2.117 -4.728,2.117c-1.934,0 -3.592,-0.74 -4.974,-2.218c-1.383,-1.48 -2.075,-3.293 -2.075,-5.44c0,-2.145 0.692,-3.958 2.075,-5.437c1.382,-1.48 3.04,-2.22 4.974,-2.22c2.03,0 3.606,0.706 4.728,2.118l0,-1.711Z" style="fill:rgb(64,64,65);"/>        <path d="M135.46,29.341l3.74,0l0,-21.173l-3.74,0l0,21.173Zm20.447,-0.001l-4.35,0l-5.28,-6.588l0,6.589l-3.74,0l0,-20.303l3.74,0l0,12.207l4.99,-6.406l4.466,0l-5.829,7.164l6.003,7.337Zm11.283,-14.501l3.741,0l0,14.501l-3.741,0l0,-1.624c-0.91,1.353 -2.35,2.03 -4.321,2.03c-1.587,0 -2.897,-0.531 -3.93,-1.595c-1.035,-1.064 -1.553,-2.533 -1.553,-4.408l0,-8.905l3.742,0l0,8.44c0,0.968 0.26,1.707 0.783,2.219c0.522,0.512 1.218,0.768 2.088,0.768c0.967,0 1.74,-0.3 2.32,-0.898c0.58,-0.6 0.87,-1.499 0.87,-2.698l0,-7.831l0.001,0.001Z" style="fill:rgb(64,64,65);"/>        <path d="M22.086,12.929l-9.145,9.145l-9.145,-9.145l9.145,-9.145l9.145,9.145Z" style="fill:rgb(255,181,13);"/>        <path d="M22.086,31.22l-9.145,-9.146l9.145,-9.145" style="fill:rgb(39,227,204);"/>        <path d="M22.086,12.929l9.145,9.145l-9.145,9.145" style="fill:rgb(82,3,233);"/>        <path d="M40.376,31.22l-9.144,9.144l-9.147,-9.145l9.147,-9.145l9.144,9.146Z" style="fill:rgb(62,126,255);"/>        <path d="M31.227,22.078l-18.29,0" style="fill:none;"/>        <path d="M40.372,12.933l-9.145,9.145l9.145,9.145c5.05,-5.05 5.05,-13.24 0,-18.29" style="fill:rgb(8,192,166);"/>        <path d="M22.082,12.933l9.145,9.145l9.145,-9.145c-5.05,-5.05 -13.24,-5.05 -18.29,0" style="fill:rgb(39,227,204);"/>        <path d="M3.788,31.227l9.145,-9.145l-9.145,-9.145c-5.051,5.05 -5.051,13.24 0,18.29" style="fill:rgb(82,3,233);"/>        <path d="M12.937,3.788l9.145,9.144l9.145,-9.144c-5.05,-5.05 -13.24,-5.05 -18.29,0" style="fill:rgb(255,221,15);"/>        <path d="M22.078,31.227l-9.145,-9.145l-9.145,9.145c5.05,5.05 13.24,5.05 18.29,0" style="fill:rgb(59,3,168);"/>        <path d="M31.223,40.372l-9.145,-9.145l-9.145,9.145c5.05,5.05 13.24,5.05 18.29,0" style="fill:rgb(29,59,255);"/>    </g></svg>