<?xml version="1.0" encoding="UTF-8" standalone="no"?><!DOCTYPE svg PUBLIC "-//W3C//DTD SVG 1.1//EN" "http://www.w3.org/Graphics/SVG/1.1/DTD/svg11.dtd"><svg width="100%" height="100%" viewBox="0 0 1024 512" version="1.1" xmlns="http://www.w3.org/2000/svg" xmlns:xlink="http://www.w3.org/1999/xlink" xml:space="preserve" style="fill-rule:evenodd;clip-rule:evenodd;stroke-linejoin:round;stroke-miterlimit:2;"><title>Tributile</title><desc>Crowdfunding platform dedicated to business financing. Individuals lend to businesses and receive interest The rise of crowdfunding is a new opportunity for individuals to boost their savings. Likewise, companies have access to an innovative financing method that will translate into Tributile much more than money.</desc>    <g transform="matrix(6.60195,0,0,6.60195,-2679.98,-4876.84)">        <g transform="matrix(0.0585226,0,0,-0.0582992,472.898,771.119)">            <path d="M0,-218c0,-65 -53,-98 -161,-98l-84,0c-38,0 -73,7 -105,21c-41,17 -62,42 -62,75l0,292c0,13 5,21 14,24c3,1 13,2 29,2c17,0 26,-9 26,-26l0,-81l182,0c108,0 161,-32 161,-96l0,-113Zm-67,2l0,110c0,27 -31,40 -93,40l-183,0l0,-154c0,-14 14,-24 44,-31c10,-3 21,-4 31,-6c10,-1 21,-2 31,-2l77,0c15,0 27,1 37,1c9,1 16,2 21,3c23,5 35,18 35,39" style="fill:rgb(26,104,129);fill-rule:nonzero;"/>        </g>        <g transform="matrix(0.0585226,0,0,-0.0582992,560.741,780.213)">            <path d="M0,-10c0,-19 -6,-28 -19,-28l-318,0l0,-3c0,-29 17,-48 52,-56c7,-2 18,-3 33,-4c14,-1 140,-2 162,-2c17,0 25,-10 25,-31c0,-17 -8,-26 -25,-26c-23,0 -149,0 -164,1c-14,0 -25,1 -33,1c-37,4 -65,13 -82,27c-26,20 -38,43 -38,69l0,114c0,36 19,62 58,80c26,12 62,18 105,18l107,0c36,0 65,-6 89,-17c32,-16 48,-38 48,-69l0,-74Zm-66,31l0,38c0,23 -36,35 -128,35c-55,0 -82,-2 -102,-6c-29,-5 -43,-16 -43,-32l0,-35l273,0Z" style="fill:rgb(26,104,129);fill-rule:nonzero;"/>        </g>        <g transform="matrix(0.0585226,0,0,-0.0582992,438.545,787.676)">            <path d="M0,246c0,-17 -10,-26 -30,-26c-3,0 -22,1 -25,1c-52,0 -78,-13 -78,-39l0,-188c0,-13 -5,-21 -14,-24c-4,-1 -14,-2 -30,-2c-16,0 -24,9 -24,26l0,188c0,41 21,68 62,82c26,9 63,14 114,14c17,0 25,-11 25,-32" style="fill:rgb(26,104,129);fill-rule:nonzero;"/>        </g>        <g transform="matrix(0.0585226,0,0,-0.0582992,444.866,772.926)">            <path d="M0,-259c0,-17 -9,-26 -26,-26c-16,0 -26,1 -29,2c-9,4 -13,11 -13,24l0,260c0,17 8,25 25,25c17,0 26,-1 29,-2c9,-4 14,-11 14,-23l0,-260Z" style="fill:rgb(26,104,129);fill-rule:nonzero;"/>        </g>        <g transform="matrix(0.0585226,0,0,-0.0582992,518.604,781.496)">            <path d="M0,138c0,-17 -8,-25 -25,-25l-108,0l0,-225c0,-17 -8,-26 -25,-26c-17,0 -27,1 -29,2c-10,4 -14,12 -14,24l0,225c-9,0 -32,1 -34,1c-11,4 -17,13 -17,27c0,14 6,23 17,27c2,0 25,1 34,1l0,82c0,17 8,25 25,25c17,0 26,-1 29,-2c9,-3 14,-11 14,-23l0,-82l108,0c17,0 25,-10 25,-31" style="fill:rgb(26,104,129);fill-rule:nonzero;"/>        </g>        <g transform="matrix(0.0585226,0,0,-0.0582992,524.632,772.926)">            <path d="M0,-259c0,-17 -8,-26 -25,-26c-17,0 -27,1 -29,2c-9,4 -14,11 -14,24l0,260c0,17 9,25 26,25c16,0 26,-1 29,-2c9,-4 13,-11 13,-23l0,-260Z" style="fill:rgb(26,104,129);fill-rule:nonzero;"/>        </g>        <g transform="matrix(0.0585226,0,0,-0.0582992,532.884,766.921)">            <path d="M0,-362c0,-17 -9,-26 -25,-26c-17,0 -27,1 -30,2c-9,4 -13,12 -13,24l0,363c0,17 8,25 25,25c15,0 25,0 29,-2c9,-3 14,-11 14,-23l0,-363Z" style="fill:rgb(26,104,129);fill-rule:nonzero;"/>        </g>        <g transform="matrix(0.0585226,0,0,-0.0582992,501.984,780.505)">            <path d="M0,0c0,-86 -97,-155 -216,-155c-120,0 -217,69 -217,155l0,129c0,17 9,26 26,26c16,0 26,-1 29,-2c9,-4 13,-11 13,-24l1,-129c0,-54 66,-98 148,-98c81,0 147,44 147,98l0,129c0,13 5,20 14,24c3,1 13,2 30,2c17,0 25,-9 25,-26l0,-129Z" style="fill:rgb(26,104,129);fill-rule:nonzero;"/>        </g>        <g transform="matrix(0.0585226,0,0,-0.0582992,432.049,787.617)">            <path d="M0,345c0,-17 -9,-25 -25,-25l-160,0l0,-327c0,-17 -8,-26 -25,-26c-17,0 -28,1 -32,2c-10,3 -15,11 -15,24l0,327l-158,0c-17,0 -26,8 -26,25c0,12 1,20 4,24c3,6 11,9 22,9l390,0c16,0 25,-11 25,-33" style="fill:rgb(26,104,129);fill-rule:nonzero;"/>        </g>        <g transform="matrix(0.0585226,0,0,-0.0582992,445.392,767.796)">            <path d="M0,0c0,-11 -5,-20 -14,-27c-8,-5 -18,-8 -30,-8c-12,0 -22,3 -30,8c-10,7 -14,16 -14,27c0,11 4,20 14,26c8,6 18,9 30,9c12,0 22,-3 30,-9c9,-6 14,-15 14,-26" style="fill:rgb(26,104,129);fill-rule:nonzero;"/>        </g>        <g transform="matrix(0.0585226,0,0,-0.0582992,525.217,767.796)">            <path d="M0,0c0,-11 -5,-20 -15,-27c-8,-5 -18,-8 -30,-8c-12,0 -22,3 -30,8c-9,7 -14,16 -14,27c0,11 5,20 14,26c8,6 18,9 30,9c12,0 22,-3 30,-9c10,-6 15,-15 15,-26" style="fill:rgb(237,28,36);fill-rule:nonzero;"/>        </g>    </g></svg>