<?xml version="1.0" encoding="UTF-8" standalone="no"?><!DOCTYPE svg PUBLIC "-//W3C//DTD SVG 1.1//EN" "http://www.w3.org/Graphics/SVG/1.1/DTD/svg11.dtd"><svg width="100%" height="100%" viewBox="0 0 1024 512" version="1.1" xmlns="http://www.w3.org/2000/svg" xmlns:xlink="http://www.w3.org/1999/xlink" xml:space="preserve" style="fill-rule:evenodd;clip-rule:evenodd;stroke-linejoin:round;stroke-miterlimit:2;"><title>FSMA</title><desc></desc>    <g transform="matrix(1.0632,0,0,1.0619,-298.408,-15.8476)">        <g transform="matrix(4.54515,0,0,1.39632,-1953.82,132.406)">            <g transform="matrix(10.0807,0,0,32.8136,592,160.529)">                <path d="M0.181,-0.352l0.348,0c0.025,0 0.039,-0.019 0.039,-0.042c0,-0.025 -0.013,-0.043 -0.039,-0.043l-0.348,0l0,-0.216c0,-0.02 0.012,-0.032 0.031,-0.032l0.373,0c0.027,0 0.041,-0.019 0.041,-0.044c0,-0.025 -0.014,-0.043 -0.041,-0.043l-0.397,0c-0.071,0 -0.102,0.03 -0.102,0.107l0,0.635c0,0.029 0.02,0.043 0.047,0.043c0.028,0 0.048,-0.014 0.048,-0.042l0,-0.323Z" style="fill:rgb(0,34,68);fill-rule:nonzero;"/>            </g>            <g transform="matrix(10.0807,0,0,32.8136,598.583,160.529)">                <path d="M0.086,-0.028c0,0.027 0.02,0.041 0.047,0.041c0.028,0 0.049,-0.014 0.049,-0.041l0,-0.709c0,-0.028 -0.021,-0.041 -0.049,-0.041c-0.027,0 -0.047,0.013 -0.047,0.041l0,0.709Z" style="fill:rgb(0,34,68);fill-rule:nonzero;"/>            </g>            <g transform="matrix(10.0807,0,0,32.8136,601.304,160.529)">                <path d="M0.595,-0.434c0,0.144 0.01,0.289 0.016,0.351c-0.026,-0.056 -0.082,-0.163 -0.128,-0.238l-0.252,-0.409c-0.019,-0.03 -0.036,-0.048 -0.081,-0.048c-0.039,0 -0.063,0.023 -0.063,0.06l0,0.69c0,0.027 0.02,0.041 0.048,0.041c0.027,0 0.047,-0.014 0.047,-0.041l0,-0.307c0,-0.147 -0.008,-0.286 -0.014,-0.35c0.023,0.05 0.073,0.148 0.113,0.212l0.265,0.429c0.025,0.04 0.041,0.057 0.084,0.057c0.04,0 0.06,-0.024 0.06,-0.063l0,-0.687c0,-0.028 -0.019,-0.041 -0.047,-0.041c-0.028,0 -0.048,0.013 -0.048,0.041l0,0.303Z" style="fill:rgb(0,34,68);fill-rule:nonzero;"/>            </g>            <g transform="matrix(10.0807,0,0,32.8136,609.157,160.529)">                <path d="M0.205,-0.221l0.346,0l0.079,0.207c0.007,0.019 0.023,0.028 0.041,0.028c0.006,0 0.012,-0.001 0.018,-0.003c0.02,-0.005 0.036,-0.02 0.036,-0.04c0,-0.006 -0.001,-0.011 -0.004,-0.017l-0.272,-0.685c-0.013,-0.034 -0.039,-0.047 -0.071,-0.047c-0.031,0 -0.056,0.013 -0.069,0.047l-0.272,0.683c-0.002,0.006 -0.003,0.011 -0.003,0.017c0,0.019 0.015,0.036 0.035,0.041c0.007,0.002 0.013,0.003 0.02,0.003c0.017,0 0.032,-0.008 0.039,-0.028l0.077,-0.206Zm0.03,-0.084l0.113,-0.29c0.012,-0.03 0.022,-0.062 0.031,-0.096c0.009,0.034 0.02,0.066 0.031,0.095l0.111,0.291l-0.286,0Z" style="fill:rgb(0,34,68);fill-rule:nonzero;"/>            </g>            <g transform="matrix(10.0807,0,0,32.8136,616.819,160.529)">                <path d="M0.595,-0.434c0,0.144 0.01,0.289 0.016,0.351c-0.026,-0.056 -0.082,-0.163 -0.128,-0.238l-0.252,-0.409c-0.019,-0.03 -0.036,-0.048 -0.081,-0.048c-0.039,0 -0.063,0.023 -0.063,0.06l0,0.69c0,0.027 0.02,0.041 0.048,0.041c0.027,0 0.047,-0.014 0.047,-0.041l0,-0.307c0,-0.147 -0.008,-0.286 -0.014,-0.35c0.023,0.05 0.073,0.148 0.113,0.212l0.265,0.429c0.025,0.04 0.041,0.057 0.084,0.057c0.04,0 0.06,-0.024 0.06,-0.063l0,-0.687c0,-0.028 -0.019,-0.041 -0.047,-0.041c-0.028,0 -0.048,0.013 -0.048,0.041l0,0.303Z" style="fill:rgb(0,34,68);fill-rule:nonzero;"/>            </g>            <g transform="matrix(10.0807,0,0,32.8136,624.671,160.529)">                <path d="M0.398,-0.787c-0.208,0 -0.345,0.161 -0.345,0.404c0,0.249 0.137,0.406 0.352,0.406c0.178,0 0.262,-0.112 0.297,-0.211c0.002,-0.006 0.003,-0.011 0.003,-0.017c0,-0.021 -0.018,-0.036 -0.035,-0.04c-0.007,-0.002 -0.014,-0.003 -0.02,-0.003c-0.019,0 -0.037,0.009 -0.045,0.031c-0.026,0.08 -0.083,0.152 -0.203,0.152c-0.15,0 -0.249,-0.124 -0.249,-0.317c0,-0.197 0.099,-0.318 0.249,-0.318c0.114,0 0.164,0.059 0.194,0.131c0.009,0.019 0.025,0.026 0.042,0.026c0.008,0 0.016,-0.001 0.024,-0.004c0.015,-0.005 0.031,-0.019 0.031,-0.04c0,-0.006 -0.001,-0.013 -0.004,-0.02c-0.036,-0.088 -0.115,-0.18 -0.291,-0.18Z" style="fill:rgb(0,34,68);fill-rule:nonzero;"/>            </g>            <g transform="matrix(10.0807,0,0,32.8136,632.151,160.529)">                <path d="M0.086,-0.028c0,0.027 0.02,0.041 0.047,0.041c0.028,0 0.049,-0.014 0.049,-0.041l0,-0.709c0,-0.028 -0.021,-0.041 -0.049,-0.041c-0.027,0 -0.047,0.013 -0.047,0.041l0,0.709Z" style="fill:rgb(0,34,68);fill-rule:nonzero;"/>            </g>            <g transform="matrix(10.0807,0,0,32.8136,634.873,160.529)">                <path d="M0.205,-0.221l0.346,0l0.079,0.207c0.007,0.019 0.023,0.028 0.041,0.028c0.006,0 0.012,-0.001 0.018,-0.003c0.02,-0.005 0.036,-0.02 0.036,-0.04c0,-0.006 -0.001,-0.011 -0.004,-0.017l-0.272,-0.685c-0.013,-0.034 -0.039,-0.047 -0.071,-0.047c-0.031,0 -0.056,0.013 -0.069,0.047l-0.272,0.683c-0.002,0.006 -0.003,0.011 -0.003,0.017c0,0.019 0.015,0.036 0.035,0.041c0.007,0.002 0.013,0.003 0.02,0.003c0.017,0 0.032,-0.008 0.039,-0.028l0.077,-0.206Zm0.03,-0.084l0.113,-0.29c0.012,-0.03 0.022,-0.062 0.031,-0.096c0.009,0.034 0.02,0.066 0.031,0.095l0.111,0.291l-0.286,0Z" style="fill:rgb(0,34,68);fill-rule:nonzero;"/>            </g>            <g transform="matrix(10.0807,0,0,32.8136,642.534,160.529)">                <path d="M0.089,-0.1c0,0.076 0.031,0.107 0.102,0.107l0.384,0c0.026,0 0.041,-0.022 0.041,-0.046c0,-0.025 -0.015,-0.044 -0.041,-0.044l-0.354,0c-0.023,0 -0.036,-0.012 -0.036,-0.035l0,-0.618c0,-0.029 -0.02,-0.042 -0.048,-0.042c-0.027,0 -0.048,0.013 -0.048,0.043l0,0.635Z" style="fill:rgb(0,34,68);fill-rule:nonzero;"/>            </g>            <g transform="matrix(10.0807,0,0,32.8136,652.242,160.529)">                <path d="M0.308,-0.449c-0.112,-0.022 -0.147,-0.059 -0.147,-0.131c0,-0.066 0.053,-0.124 0.169,-0.124c0.111,0 0.153,0.056 0.169,0.113c0.008,0.021 0.026,0.029 0.044,0.029c0.006,0 0.012,-0.001 0.017,-0.002c0.02,-0.004 0.037,-0.019 0.037,-0.04c0,-0.005 -0.001,-0.01 -0.003,-0.015c-0.022,-0.072 -0.084,-0.168 -0.264,-0.168c-0.188,0 -0.266,0.102 -0.266,0.207c0,0.131 0.068,0.188 0.218,0.219l0.08,0.017c0.118,0.024 0.163,0.06 0.163,0.142c0,0.086 -0.071,0.141 -0.185,0.141c-0.146,0 -0.179,-0.075 -0.197,-0.142c-0.006,-0.021 -0.025,-0.03 -0.044,-0.03c-0.006,0 -0.011,0.001 -0.017,0.002c-0.021,0.005 -0.038,0.02 -0.038,0.042c0,0.004 0.001,0.008 0.002,0.013c0.024,0.081 0.071,0.199 0.299,0.199c0.179,0 0.278,-0.097 0.278,-0.226c0,-0.145 -0.085,-0.198 -0.241,-0.231l-0.074,-0.015Z" style="fill:rgb(0,34,68);fill-rule:nonzero;"/>            </g>            <g transform="matrix(10.0807,0,0,32.8136,659.006,160.529)">                <path d="M0.18,-0.358l0.341,0c0.024,0 0.039,-0.019 0.039,-0.042c0,-0.025 -0.014,-0.043 -0.039,-0.043l-0.341,0l0,-0.207c0,-0.024 0.01,-0.035 0.034,-0.035l0.352,0c0.026,0 0.04,-0.019 0.04,-0.044c0,-0.025 -0.014,-0.043 -0.04,-0.043l-0.378,0c-0.071,0 -0.102,0.031 -0.102,0.108l0,0.564c0,0.076 0.031,0.107 0.102,0.107l0.387,0c0.026,0 0.04,-0.02 0.04,-0.044c0,-0.025 -0.014,-0.043 -0.04,-0.043l-0.358,0c-0.022,0 -0.037,-0.009 -0.037,-0.032l0,-0.246Z" style="fill:rgb(0,34,68);fill-rule:nonzero;"/>            </g>            <g transform="matrix(10.0807,0,0,32.8136,665.528,160.529)">                <path d="M0.655,-0.105c-0.074,-0.187 -0.106,-0.254 -0.166,-0.272c0.093,-0.02 0.158,-0.08 0.158,-0.195c0,-0.123 -0.08,-0.2 -0.225,-0.2l-0.234,0c-0.071,0 -0.102,0.031 -0.102,0.108l0,0.634c0,0.029 0.02,0.043 0.048,0.043c0.027,0 0.046,-0.014 0.046,-0.042l0,-0.314l0.184,0c0.1,0 0.128,0.071 0.2,0.266l0.025,0.064c0.007,0.018 0.022,0.026 0.039,0.026c0.007,0 0.015,-0.001 0.022,-0.003c0.02,-0.005 0.033,-0.02 0.033,-0.039c0,-0.006 -0.001,-0.011 -0.003,-0.017l-0.025,-0.059Zm-0.475,-0.32l0,-0.229c0,-0.024 0.012,-0.035 0.033,-0.035l0.203,0c0.089,0 0.135,0.046 0.135,0.131c0,0.08 -0.056,0.133 -0.141,0.133l-0.23,0Z" style="fill:rgb(0,34,68);fill-rule:nonzero;"/>            </g>            <g transform="matrix(10.0807,0,0,32.8136,672.786,160.529)">                <path d="M0.398,-0.202c-0.013,0.038 -0.025,0.083 -0.036,0.124c-0.011,-0.04 -0.022,-0.086 -0.035,-0.123l-0.195,-0.549c-0.007,-0.02 -0.024,-0.029 -0.043,-0.029c-0.006,0 -0.012,0.001 -0.018,0.003c-0.021,0.005 -0.037,0.022 -0.037,0.042c0,0.005 0.001,0.011 0.003,0.016l0.257,0.685c0.013,0.035 0.037,0.046 0.068,0.046c0.03,0 0.054,-0.011 0.067,-0.045l0.258,-0.688c0.002,-0.005 0.003,-0.01 0.003,-0.015c0,-0.02 -0.016,-0.035 -0.037,-0.041c-0.006,-0.001 -0.012,-0.002 -0.018,-0.002c-0.02,0 -0.036,0.009 -0.043,0.029l-0.194,0.547Z" style="fill:rgb(0,34,68);fill-rule:nonzero;"/>            </g>            <g transform="matrix(10.0807,0,0,32.8136,680.105,160.529)">                <path d="M0.086,-0.028c0,0.027 0.02,0.041 0.047,0.041c0.028,0 0.049,-0.014 0.049,-0.041l0,-0.709c0,-0.028 -0.021,-0.041 -0.049,-0.041c-0.027,0 -0.047,0.013 -0.047,0.041l0,0.709Z" style="fill:rgb(0,34,68);fill-rule:nonzero;"/>            </g>            <g transform="matrix(10.0807,0,0,32.8136,682.827,160.529)">                <path d="M0.398,-0.787c-0.208,0 -0.345,0.161 -0.345,0.404c0,0.249 0.137,0.406 0.352,0.406c0.178,0 0.262,-0.112 0.297,-0.211c0.002,-0.006 0.003,-0.011 0.003,-0.017c0,-0.021 -0.018,-0.036 -0.035,-0.04c-0.007,-0.002 -0.014,-0.003 -0.02,-0.003c-0.019,0 -0.037,0.009 -0.045,0.031c-0.026,0.08 -0.083,0.152 -0.203,0.152c-0.15,0 -0.249,-0.124 -0.249,-0.317c0,-0.197 0.099,-0.318 0.249,-0.318c0.114,0 0.164,0.059 0.194,0.131c0.009,0.019 0.025,0.026 0.042,0.026c0.008,0 0.016,-0.001 0.024,-0.004c0.015,-0.005 0.031,-0.019 0.031,-0.04c0,-0.006 -0.001,-0.013 -0.004,-0.02c-0.036,-0.088 -0.115,-0.18 -0.291,-0.18Z" style="fill:rgb(0,34,68);fill-rule:nonzero;"/>            </g>            <g transform="matrix(10.0807,0,0,32.8136,690.307,160.529)">                <path d="M0.18,-0.358l0.341,0c0.024,0 0.039,-0.019 0.039,-0.042c0,-0.025 -0.014,-0.043 -0.039,-0.043l-0.341,0l0,-0.207c0,-0.024 0.01,-0.035 0.034,-0.035l0.352,0c0.026,0 0.04,-0.019 0.04,-0.044c0,-0.025 -0.014,-0.043 -0.04,-0.043l-0.378,0c-0.071,0 -0.102,0.031 -0.102,0.108l0,0.564c0,0.076 0.031,0.107 0.102,0.107l0.387,0c0.026,0 0.04,-0.02 0.04,-0.044c0,-0.025 -0.014,-0.043 -0.04,-0.043l-0.358,0c-0.022,0 -0.037,-0.009 -0.037,-0.032l0,-0.246Z" style="fill:rgb(0,34,68);fill-rule:nonzero;"/>            </g>            <g transform="matrix(10.0807,0,0,32.8136,696.829,160.529)">                <path d="M0.308,-0.449c-0.112,-0.022 -0.147,-0.059 -0.147,-0.131c0,-0.066 0.053,-0.124 0.169,-0.124c0.111,0 0.153,0.056 0.169,0.113c0.008,0.021 0.026,0.029 0.044,0.029c0.006,0 0.012,-0.001 0.017,-0.002c0.02,-0.004 0.037,-0.019 0.037,-0.04c0,-0.005 -0.001,-0.01 -0.003,-0.015c-0.022,-0.072 -0.084,-0.168 -0.264,-0.168c-0.188,0 -0.266,0.102 -0.266,0.207c0,0.131 0.068,0.188 0.218,0.219l0.08,0.017c0.118,0.024 0.163,0.06 0.163,0.142c0,0.086 -0.071,0.141 -0.185,0.141c-0.146,0 -0.179,-0.075 -0.197,-0.142c-0.006,-0.021 -0.025,-0.03 -0.044,-0.03c-0.006,0 -0.011,0.001 -0.017,0.002c-0.021,0.005 -0.038,0.02 -0.038,0.042c0,0.004 0.001,0.008 0.002,0.013c0.024,0.081 0.071,0.199 0.299,0.199c0.179,0 0.278,-0.097 0.278,-0.226c0,-0.145 -0.085,-0.198 -0.241,-0.231l-0.074,-0.015Z" style="fill:rgb(0,34,68);fill-rule:nonzero;"/>            </g>            <g transform="matrix(10.0807,0,0,32.8136,592,198.811)">                <path d="M0.205,-0.221l0.346,0l0.079,0.207c0.007,0.019 0.023,0.028 0.041,0.028c0.006,0 0.012,-0.001 0.018,-0.003c0.02,-0.005 0.036,-0.02 0.036,-0.04c0,-0.006 -0.001,-0.011 -0.004,-0.017l-0.272,-0.685c-0.013,-0.034 -0.039,-0.047 -0.071,-0.047c-0.031,0 -0.056,0.013 -0.069,0.047l-0.272,0.683c-0.002,0.006 -0.003,0.011 -0.003,0.017c0,0.019 0.015,0.036 0.035,0.041c0.007,0.002 0.013,0.003 0.02,0.003c0.017,0 0.032,-0.008 0.039,-0.028l0.077,-0.206Zm0.03,-0.084l0.113,-0.29c0.012,-0.03 0.022,-0.062 0.031,-0.096c0.009,0.034 0.02,0.066 0.031,0.095l0.111,0.291l-0.286,0Z" style="fill:rgb(0,34,68);fill-rule:nonzero;"/>            </g>            <g transform="matrix(10.0807,0,0,32.8136,599.661,198.811)">                <path d="M0.595,-0.434c0,0.144 0.01,0.289 0.016,0.351c-0.026,-0.056 -0.082,-0.163 -0.128,-0.238l-0.252,-0.409c-0.019,-0.03 -0.036,-0.048 -0.081,-0.048c-0.039,0 -0.063,0.023 -0.063,0.06l0,0.69c0,0.027 0.02,0.041 0.048,0.041c0.027,0 0.047,-0.014 0.047,-0.041l0,-0.307c0,-0.147 -0.008,-0.286 -0.014,-0.35c0.023,0.05 0.073,0.148 0.113,0.212l0.265,0.429c0.025,0.04 0.041,0.057 0.084,0.057c0.04,0 0.06,-0.024 0.06,-0.063l0,-0.687c0,-0.028 -0.019,-0.041 -0.047,-0.041c-0.028,0 -0.048,0.013 -0.048,0.041l0,0.303Z" style="fill:rgb(0,34,68);fill-rule:nonzero;"/>            </g>            <g transform="matrix(10.0807,0,0,32.8136,607.514,198.811)">                <path d="M0.086,-0.1c0,0.076 0.031,0.107 0.102,0.107l0.178,0c0.219,0 0.351,-0.149 0.351,-0.398c0,-0.241 -0.13,-0.381 -0.351,-0.381l-0.178,0c-0.071,0 -0.102,0.031 -0.102,0.108l0,0.564Zm0.095,-0.553c0,-0.021 0.014,-0.033 0.033,-0.033l0.15,0c0.165,0 0.254,0.105 0.254,0.296c0,0.195 -0.095,0.31 -0.257,0.31l-0.148,0c-0.02,0 -0.032,-0.011 -0.032,-0.034l0,-0.539Z" style="fill:rgb(0,34,68);fill-rule:nonzero;"/>            </g>            <g transform="matrix(10.0807,0,0,32.8136,618.643,198.811)">                <path d="M0.694,-0.418c0.027,-0.068 0.076,-0.211 0.095,-0.275c-0.004,0.068 -0.016,0.247 -0.016,0.389l0,0.277c0,0.027 0.02,0.04 0.047,0.04c0.026,0 0.046,-0.013 0.046,-0.04l0,-0.692c0,-0.036 -0.026,-0.059 -0.063,-0.059c-0.044,0 -0.067,0.015 -0.083,0.055l-0.181,0.458c-0.023,0.057 -0.053,0.144 -0.063,0.188c-0.009,-0.043 -0.042,-0.137 -0.062,-0.186l-0.184,-0.462c-0.015,-0.037 -0.036,-0.053 -0.08,-0.053c-0.038,0 -0.064,0.023 -0.064,0.059l0,0.692c0,0.027 0.019,0.04 0.046,0.04c0.028,0 0.047,-0.013 0.047,-0.04l0,-0.278c0,-0.141 -0.012,-0.322 -0.015,-0.387c0.019,0.062 0.067,0.207 0.096,0.279l0.151,0.379c0.014,0.035 0.033,0.047 0.064,0.047c0.032,0 0.05,-0.012 0.064,-0.046l0.155,-0.385Z" style="fill:rgb(0,34,68);fill-rule:nonzero;"/>            </g>            <g transform="matrix(10.0807,0,0,32.8136,628.26,198.811)">                <path d="M0.205,-0.221l0.346,0l0.079,0.207c0.007,0.019 0.023,0.028 0.041,0.028c0.006,0 0.012,-0.001 0.018,-0.003c0.02,-0.005 0.036,-0.02 0.036,-0.04c0,-0.006 -0.001,-0.011 -0.004,-0.017l-0.272,-0.685c-0.013,-0.034 -0.039,-0.047 -0.071,-0.047c-0.031,0 -0.056,0.013 -0.069,0.047l-0.272,0.683c-0.002,0.006 -0.003,0.011 -0.003,0.017c0,0.019 0.015,0.036 0.035,0.041c0.007,0.002 0.013,0.003 0.02,0.003c0.017,0 0.032,-0.008 0.039,-0.028l0.077,-0.206Zm0.03,-0.084l0.113,-0.29c0.012,-0.03 0.022,-0.062 0.031,-0.096c0.009,0.034 0.02,0.066 0.031,0.095l0.111,0.291l-0.286,0Z" style="fill:rgb(0,34,68);fill-rule:nonzero;"/>            </g>            <g transform="matrix(10.0807,0,0,32.8136,635.921,198.811)">                <path d="M0.655,-0.105c-0.074,-0.187 -0.106,-0.254 -0.166,-0.272c0.093,-0.02 0.158,-0.08 0.158,-0.195c0,-0.123 -0.08,-0.2 -0.225,-0.2l-0.234,0c-0.071,0 -0.102,0.031 -0.102,0.108l0,0.634c0,0.029 0.02,0.043 0.048,0.043c0.027,0 0.046,-0.014 0.046,-0.042l0,-0.314l0.184,0c0.1,0 0.128,0.071 0.2,0.266l0.025,0.064c0.007,0.018 0.022,0.026 0.039,0.026c0.007,0 0.015,-0.001 0.022,-0.003c0.02,-0.005 0.033,-0.02 0.033,-0.039c0,-0.006 -0.001,-0.011 -0.003,-0.017l-0.025,-0.059Zm-0.475,-0.32l0,-0.229c0,-0.024 0.012,-0.035 0.033,-0.035l0.203,0c0.089,0 0.135,0.046 0.135,0.131c0,0.08 -0.056,0.133 -0.141,0.133l-0.23,0Z" style="fill:rgb(0,34,68);fill-rule:nonzero;"/>            </g>            <g transform="matrix(10.0807,0,0,32.8136,643.18,198.811)">                <path d="M0.357,-0.442l0.258,-0.26c0.007,-0.007 0.01,-0.017 0.01,-0.027c0,-0.014 -0.006,-0.029 -0.017,-0.038c-0.009,-0.008 -0.021,-0.012 -0.033,-0.012c-0.011,0 -0.023,0.004 -0.031,0.013l-0.362,0.378l0,-0.349c0,-0.028 -0.02,-0.041 -0.047,-0.041c-0.028,0 -0.048,0.013 -0.048,0.041l0,0.709c0,0.027 0.02,0.041 0.048,0.041c0.027,0 0.047,-0.014 0.047,-0.041l0,-0.24l0.109,-0.111l0.283,0.376c0.008,0.011 0.022,0.017 0.035,0.017c0.011,0 0.021,-0.003 0.03,-0.01c0.013,-0.01 0.022,-0.025 0.022,-0.04c0,-0.009 -0.003,-0.018 -0.009,-0.026l-0.295,-0.38Z" style="fill:rgb(0,34,68);fill-rule:nonzero;"/>            </g>            <g transform="matrix(10.0807,0,0,32.8136,650.155,198.811)">                <path d="M0.18,-0.358l0.341,0c0.024,0 0.039,-0.019 0.039,-0.042c0,-0.025 -0.014,-0.043 -0.039,-0.043l-0.341,0l0,-0.207c0,-0.024 0.01,-0.035 0.034,-0.035l0.352,0c0.026,0 0.04,-0.019 0.04,-0.044c0,-0.025 -0.014,-0.043 -0.04,-0.043l-0.378,0c-0.071,0 -0.102,0.031 -0.102,0.108l0,0.564c0,0.076 0.031,0.107 0.102,0.107l0.387,0c0.026,0 0.04,-0.02 0.04,-0.044c0,-0.025 -0.014,-0.043 -0.04,-0.043l-0.358,0c-0.022,0 -0.037,-0.009 -0.037,-0.032l0,-0.246Z" style="fill:rgb(0,34,68);fill-rule:nonzero;"/>            </g>            <g transform="matrix(10.0807,0,0,32.8136,656.678,198.811)">                <path d="M0.291,-0.684l0,0.656c0,0.027 0.021,0.041 0.048,0.041c0.027,0 0.048,-0.014 0.048,-0.041l0,-0.656l0.227,0c0.023,0 0.038,-0.02 0.038,-0.043c0,-0.024 -0.014,-0.045 -0.038,-0.045l-0.551,0c-0.024,0 -0.038,0.021 -0.038,0.045c0,0.023 0.014,0.043 0.039,0.043l0.227,0Z" style="fill:rgb(0,34,68);fill-rule:nonzero;"/>            </g>            <g transform="matrix(10.0807,0,0,32.8136,663.492,198.811)">                <path d="M0.308,-0.449c-0.112,-0.022 -0.147,-0.059 -0.147,-0.131c0,-0.066 0.053,-0.124 0.169,-0.124c0.111,0 0.153,0.056 0.169,0.113c0.008,0.021 0.026,0.029 0.044,0.029c0.006,0 0.012,-0.001 0.017,-0.002c0.02,-0.004 0.037,-0.019 0.037,-0.04c0,-0.005 -0.001,-0.01 -0.003,-0.015c-0.022,-0.072 -0.084,-0.168 -0.264,-0.168c-0.188,0 -0.266,0.102 -0.266,0.207c0,0.131 0.068,0.188 0.218,0.219l0.08,0.017c0.118,0.024 0.163,0.06 0.163,0.142c0,0.086 -0.071,0.141 -0.185,0.141c-0.146,0 -0.179,-0.075 -0.197,-0.142c-0.006,-0.021 -0.025,-0.03 -0.044,-0.03c-0.006,0 -0.011,0.001 -0.017,0.002c-0.021,0.005 -0.038,0.02 -0.038,0.042c0,0.004 0.001,0.008 0.002,0.013c0.024,0.081 0.071,0.199 0.299,0.199c0.179,0 0.278,-0.097 0.278,-0.226c0,-0.145 -0.085,-0.198 -0.241,-0.231l-0.074,-0.015Z" style="fill:rgb(0,34,68);fill-rule:nonzero;"/>            </g>            <g transform="matrix(10.0807,0,0,32.8136,592,237.094)">                <path d="M0.205,-0.221l0.346,0l0.079,0.207c0.007,0.019 0.023,0.028 0.041,0.028c0.006,0 0.012,-0.001 0.018,-0.003c0.02,-0.005 0.036,-0.02 0.036,-0.04c0,-0.006 -0.001,-0.011 -0.004,-0.017l-0.272,-0.685c-0.013,-0.034 -0.039,-0.047 -0.071,-0.047c-0.031,0 -0.056,0.013 -0.069,0.047l-0.272,0.683c-0.002,0.006 -0.003,0.011 -0.003,0.017c0,0.019 0.015,0.036 0.035,0.041c0.007,0.002 0.013,0.003 0.02,0.003c0.017,0 0.032,-0.008 0.039,-0.028l0.077,-0.206Zm0.03,-0.084l0.113,-0.29c0.012,-0.03 0.022,-0.062 0.031,-0.096c0.009,0.034 0.02,0.066 0.031,0.095l0.111,0.291l-0.286,0Z" style="fill:rgb(0,34,68);fill-rule:nonzero;"/>            </g>            <g transform="matrix(10.0807,0,0,32.8136,599.661,237.094)">                <path d="M0.083,-0.28c0,0.201 0.111,0.304 0.304,0.304c0.198,0 0.305,-0.106 0.305,-0.304l0,-0.457c0,-0.028 -0.02,-0.041 -0.048,-0.041c-0.028,0 -0.048,0.013 -0.048,0.041l0,0.453c0,0.147 -0.072,0.221 -0.21,0.221c-0.135,0 -0.207,-0.073 -0.207,-0.22l0,-0.454c0,-0.028 -0.021,-0.041 -0.047,-0.041c-0.029,0 -0.049,0.013 -0.049,0.041l0,0.457Z" style="fill:rgb(0,34,68);fill-rule:nonzero;"/>            </g>            <g transform="matrix(10.0807,0,0,32.8136,607.464,237.094)">                <path d="M0.291,-0.684l0,0.656c0,0.027 0.021,0.041 0.048,0.041c0.027,0 0.048,-0.014 0.048,-0.041l0,-0.656l0.227,0c0.023,0 0.038,-0.02 0.038,-0.043c0,-0.024 -0.014,-0.045 -0.038,-0.045l-0.551,0c-0.024,0 -0.038,0.021 -0.038,0.045c0,0.023 0.014,0.043 0.039,0.043l0.227,0Z" style="fill:rgb(0,34,68);fill-rule:nonzero;"/>            </g>            <g transform="matrix(10.0807,0,0,32.8136,614.278,237.094)">                <path d="M0.609,-0.446l-0.426,0l0,-0.291c0,-0.028 -0.021,-0.041 -0.048,-0.041c-0.028,0 -0.048,0.013 -0.048,0.041l0,0.709c0,0.027 0.02,0.041 0.048,0.041c0.027,0 0.048,-0.014 0.048,-0.041l0,-0.331l0.426,0l0,0.331c0,0.027 0.021,0.041 0.05,0.041c0.026,0 0.046,-0.014 0.046,-0.041l0,-0.709c0,-0.028 -0.02,-0.041 -0.046,-0.041c-0.029,0 -0.05,0.013 -0.05,0.041l0,0.291Z" style="fill:rgb(0,34,68);fill-rule:nonzero;"/>            </g>            <g transform="matrix(10.0807,0,0,32.8136,622.272,237.094)">                <path d="M0.403,-0.787c-0.215,0 -0.35,0.159 -0.35,0.404c0,0.248 0.136,0.406 0.35,0.406c0.214,0 0.348,-0.159 0.348,-0.405c0,-0.247 -0.134,-0.405 -0.348,-0.405Zm0,0.086c0.152,0 0.249,0.124 0.249,0.313c0,0.201 -0.093,0.324 -0.249,0.324c-0.153,0 -0.251,-0.125 -0.251,-0.318c0,-0.193 0.096,-0.319 0.251,-0.319Z" style="fill:rgb(0,34,68);fill-rule:nonzero;"/>            </g>            <g transform="matrix(10.0807,0,0,32.8136,630.387,237.094)">                <path d="M0.655,-0.105c-0.074,-0.187 -0.106,-0.254 -0.166,-0.272c0.093,-0.02 0.158,-0.08 0.158,-0.195c0,-0.123 -0.08,-0.2 -0.225,-0.2l-0.234,0c-0.071,0 -0.102,0.031 -0.102,0.108l0,0.634c0,0.029 0.02,0.043 0.048,0.043c0.027,0 0.046,-0.014 0.046,-0.042l0,-0.314l0.184,0c0.1,0 0.128,0.071 0.2,0.266l0.025,0.064c0.007,0.018 0.022,0.026 0.039,0.026c0.007,0 0.015,-0.001 0.022,-0.003c0.02,-0.005 0.033,-0.02 0.033,-0.039c0,-0.006 -0.001,-0.011 -0.003,-0.017l-0.025,-0.059Zm-0.475,-0.32l0,-0.229c0,-0.024 0.012,-0.035 0.033,-0.035l0.203,0c0.089,0 0.135,0.046 0.135,0.131c0,0.08 -0.056,0.133 -0.141,0.133l-0.23,0Z" style="fill:rgb(0,34,68);fill-rule:nonzero;"/>            </g>            <g transform="matrix(10.0807,0,0,32.8136,637.645,237.094)">                <path d="M0.086,-0.028c0,0.027 0.02,0.041 0.047,0.041c0.028,0 0.049,-0.014 0.049,-0.041l0,-0.709c0,-0.028 -0.021,-0.041 -0.049,-0.041c-0.027,0 -0.047,0.013 -0.047,0.041l0,0.709Z" style="fill:rgb(0,34,68);fill-rule:nonzero;"/>            </g>            <g transform="matrix(10.0807,0,0,32.8136,640.367,237.094)">                <path d="M0.291,-0.684l0,0.656c0,0.027 0.021,0.041 0.048,0.041c0.027,0 0.048,-0.014 0.048,-0.041l0,-0.656l0.227,0c0.023,0 0.038,-0.02 0.038,-0.043c0,-0.024 -0.014,-0.045 -0.038,-0.045l-0.551,0c-0.024,0 -0.038,0.021 -0.038,0.045c0,0.023 0.014,0.043 0.039,0.043l0.227,0Z" style="fill:rgb(0,34,68);fill-rule:nonzero;"/>            </g>            <g transform="matrix(10.0807,0,0,32.8136,647.182,237.094)">                <path d="M0.355,-0.402l-0.228,-0.356c-0.01,-0.015 -0.023,-0.021 -0.036,-0.021c-0.009,0 -0.018,0.003 -0.027,0.007c-0.016,0.009 -0.029,0.024 -0.029,0.041c0,0.007 0.002,0.013 0.006,0.02l0.266,0.398l0,0.285c0,0.027 0.019,0.041 0.048,0.041c0.027,0 0.047,-0.014 0.047,-0.041l0,-0.285l0.264,-0.396c0.005,-0.007 0.007,-0.015 0.007,-0.022c0,-0.017 -0.012,-0.032 -0.027,-0.04c-0.009,-0.005 -0.018,-0.008 -0.027,-0.008c-0.014,0 -0.027,0.006 -0.036,0.021l-0.228,0.356Z" style="fill:rgb(0,34,68);fill-rule:nonzero;"/>            </g>        </g>        <rect x="282.551" y="46" width="420" height="420" style="fill:rgb(0,34,68);"/>        <g transform="matrix(1,0,0,1,-1,2)">            <path d="M643.556,217.521c5.734,0.701 9.071,8.051 4.733,12.797l-180.001,179c-4.337,3.921 -12.352,1.288 -12.77,-4.804c-0.115,-1.668 0.342,-3.353 1.283,-4.735c0.357,-0.526 0.483,-0.63 0.91,-1.097l180.001,-179c2.443,-2.209 2.494,-2.25 5.844,-2.161Z" style="fill:rgb(170,204,0);"/>        </g>        <g transform="matrix(105.412,0,0,105.412,331.14,175.879)">            <path d="M0.181,-0.352l0.348,0c0.025,0 0.039,-0.019 0.039,-0.042c0,-0.025 -0.013,-0.043 -0.039,-0.043l-0.348,0l0,-0.216c0,-0.02 0.012,-0.032 0.031,-0.032l0.373,0c0.027,0 0.041,-0.019 0.041,-0.044c0,-0.025 -0.014,-0.043 -0.041,-0.043l-0.397,0c-0.071,0 -0.102,0.03 -0.102,0.107l0,0.635c0,0.029 0.02,0.043 0.047,0.043c0.028,0 0.048,-0.014 0.048,-0.042l0,-0.323Z" style="fill:white;fill-rule:nonzero;"/>        </g>        <g transform="matrix(105.412,0,0,105.412,399.974,175.879)">            <path d="M0.308,-0.449c-0.112,-0.022 -0.147,-0.059 -0.147,-0.131c0,-0.066 0.053,-0.124 0.169,-0.124c0.111,0 0.153,0.056 0.169,0.113c0.008,0.021 0.026,0.029 0.044,0.029c0.006,0 0.012,-0.001 0.017,-0.002c0.02,-0.004 0.037,-0.019 0.037,-0.04c0,-0.005 -0.001,-0.01 -0.003,-0.015c-0.022,-0.072 -0.084,-0.168 -0.264,-0.168c-0.188,0 -0.266,0.102 -0.266,0.207c0,0.131 0.068,0.188 0.218,0.219l0.08,0.017c0.118,0.024 0.163,0.06 0.163,0.142c0,0.086 -0.071,0.141 -0.185,0.141c-0.146,0 -0.179,-0.075 -0.197,-0.142c-0.006,-0.021 -0.025,-0.03 -0.044,-0.03c-0.006,0 -0.011,0.001 -0.017,0.002c-0.021,0.005 -0.038,0.02 -0.038,0.042c0,0.004 0.001,0.008 0.002,0.013c0.024,0.081 0.071,0.199 0.299,0.199c0.179,0 0.278,-0.097 0.278,-0.226c0,-0.145 -0.085,-0.198 -0.241,-0.231l-0.074,-0.015Z" style="fill:white;fill-rule:nonzero;"/>        </g>        <g transform="matrix(105.412,0,0,105.412,470.705,175.879)">            <path d="M0.539,-0.244c0,0 0.231,-0.385 0.25,-0.449c-0.004,0.068 -0.016,0.247 -0.016,0.389l0,0.277c0,0.027 0.02,0.04 0.047,0.04c0.026,0 0.046,-0.013 0.046,-0.04l0,-0.692c0,-0.036 -0.026,-0.059 -0.063,-0.059c-0.044,0 -0.067,0.015 -0.083,0.055c0,0 -0.234,0.391 -0.244,0.435c-0.009,-0.043 -0.246,-0.437 -0.246,-0.437c-0.015,-0.037 -0.036,-0.053 -0.08,-0.053c-0.038,0 -0.064,0.023 -0.064,0.059l0,0.692c0,0.027 0.019,0.04 0.046,0.04c0.028,0 0.047,-0.013 0.047,-0.04l0,-0.278c0,-0.141 -0.012,-0.322 -0.015,-0.387c0.019,0.062 0.247,0.447 0.247,0.447c0.014,0.035 0.033,0.047 0.064,0.047c0.032,0 0.05,-0.012 0.064,-0.046Z" style="fill:white;fill-rule:nonzero;"/>        </g>        <g transform="matrix(105.412,0,0,105.412,571.268,175.879)">            <path d="M0.205,-0.221l0.346,0l0.079,0.207c0.007,0.019 0.023,0.028 0.041,0.028c0.006,0 0.012,-0.001 0.018,-0.003c0.02,-0.005 0.036,-0.02 0.036,-0.04c0,-0.006 -0.001,-0.011 -0.004,-0.017l-0.272,-0.685c-0.013,-0.034 -0.039,-0.047 -0.071,-0.047c-0.031,0 -0.056,0.013 -0.069,0.047l-0.272,0.683c-0.002,0.006 -0.003,0.011 -0.003,0.017c0,0.019 0.015,0.036 0.035,0.041c0.007,0.002 0.013,0.003 0.02,0.003c0.017,0 0.032,-0.008 0.039,-0.028l0.077,-0.206Zm0.03,-0.084l0.113,-0.29c0.012,-0.03 0.022,-0.062 0.031,-0.096c0.009,0.034 0.02,0.066 0.031,0.095l0.111,0.291l-0.286,0Z" style="fill:white;fill-rule:nonzero;"/>        </g>    </g></svg>