<?xml version="1.0" encoding="UTF-8" standalone="no"?><!DOCTYPE svg PUBLIC "-//W3C//DTD SVG 1.1//EN" "http://www.w3.org/Graphics/SVG/1.1/DTD/svg11.dtd"><svg width="100%" height="100%" viewBox="0 0 1024 512" version="1.1" xmlns="http://www.w3.org/2000/svg" xmlns:xlink="http://www.w3.org/1999/xlink" xml:space="preserve" style="fill-rule:evenodd;clip-rule:evenodd;stroke-linejoin:round;stroke-miterlimit:2;"><title>Finansowo</title><desc>Finansowo.pl is a project introducing the idea of "social lending" to the Polish market. In the simplest terms, our service enables the granting of loans between individuals without the intermediation of banks - offering customers speed, simplicity and convenience.</desc>    <g transform="matrix(2.79436,0,0,2.79436,-334.752,-386.998)">        <g transform="matrix(1,0,0,1,2.46515,108.939)">            <path d="M483.066,79.883c0,-1.509 -1.225,-2.734 -2.734,-2.734l-359.551,0c-1.51,0 -2.735,1.225 -2.735,2.734l0,82.566c0,1.51 1.225,2.735 2.735,2.735l359.551,0c1.509,0 2.734,-1.225 2.734,-2.735l0,-82.566Z" style="fill:url(#_Linear1);"/>        </g>        <path d="M452.523,191.18l-325.129,0c0,0 5.75,27.343 47.815,36.078c42.225,8.769 277.943,22.569 277.943,22.569l-0.629,-58.647Z" style="fill:url(#_Linear2);"/>        <g transform="matrix(1.25093,0,0,1.4023,-32.5497,183.572)">            <g transform="matrix(36,0,0,36,156.331,43.2584)">                <path d="M0.185,0l-0.099,0l0,-0.708l0.442,0l0,0.087l-0.343,0l0,0.22l0.321,0l0,0.085l-0.321,0l0,0.316Z" style="fill:white;fill-rule:nonzero;"/>            </g>            <g transform="matrix(36,0,0,36,176.131,43.2584)">                <path d="M0.176,0l-0.094,0l0,-0.474l0.094,0l0,0.474Zm0.016,-0.645c0,0.017 -0.006,0.032 -0.018,0.043c-0.013,0.011 -0.028,0.017 -0.045,0.017c-0.017,0 -0.032,-0.006 -0.044,-0.018c-0.012,-0.011 -0.018,-0.025 -0.018,-0.042c0,-0.017 0.006,-0.032 0.018,-0.043c0.012,-0.012 0.027,-0.018 0.044,-0.018c0.017,0 0.032,0.006 0.045,0.018c0.012,0.011 0.018,0.026 0.018,0.043Z" style="fill:white;fill-rule:nonzero;"/>            </g>            <g transform="matrix(36,0,0,36,185.455,43.2584)">                <path d="M0.166,-0.474c0.001,0.012 0.002,0.026 0.003,0.041c0.001,0.015 0.001,0.027 0.001,0.037l0.003,0c0.006,-0.013 0.014,-0.024 0.024,-0.035c0.011,-0.012 0.023,-0.021 0.036,-0.029c0.013,-0.009 0.028,-0.015 0.044,-0.02c0.016,-0.005 0.033,-0.007 0.05,-0.007c0.031,0 0.057,0.005 0.079,0.016c0.022,0.01 0.04,0.024 0.055,0.041c0.015,0.017 0.025,0.038 0.032,0.061c0.008,0.023 0.011,0.048 0.011,0.075l0,0.294l-0.094,0l0,-0.263c0,-0.019 -0.002,-0.038 -0.005,-0.055c-0.003,-0.017 -0.008,-0.033 -0.016,-0.046c-0.008,-0.013 -0.019,-0.024 -0.033,-0.032c-0.014,-0.008 -0.032,-0.012 -0.054,-0.012c-0.037,0 -0.068,0.014 -0.092,0.043c-0.023,0.028 -0.035,0.066 -0.035,0.113l0,0.252l-0.094,0l0,-0.372c0,-0.013 0,-0.029 -0.001,-0.049c-0.001,-0.02 -0.002,-0.038 -0.003,-0.053l0.089,0Z" style="fill:white;fill-rule:nonzero;"/>            </g>            <g transform="matrix(36,0,0,36,206.407,43.2584)">                <path d="M0.376,-0.307c0,-0.035 -0.011,-0.062 -0.032,-0.079c-0.021,-0.017 -0.05,-0.025 -0.085,-0.025c-0.027,0 -0.052,0.005 -0.075,0.016c-0.024,0.01 -0.044,0.023 -0.06,0.039l-0.05,-0.06c0.023,-0.022 0.052,-0.039 0.086,-0.052c0.033,-0.013 0.069,-0.019 0.108,-0.019c0.034,0 0.064,0.005 0.089,0.015c0.025,0.009 0.045,0.022 0.061,0.039c0.016,0.017 0.028,0.036 0.036,0.059c0.008,0.023 0.012,0.047 0.012,0.073l0,0.207c0,0.016 0.001,0.033 0.002,0.051c0.001,0.017 0.002,0.032 0.005,0.043l-0.085,0c-0.005,-0.023 -0.008,-0.045 -0.008,-0.068l-0.003,0c-0.017,0.025 -0.039,0.045 -0.065,0.059c-0.027,0.014 -0.058,0.021 -0.094,0.021c-0.019,0 -0.038,-0.002 -0.058,-0.007c-0.021,-0.005 -0.039,-0.014 -0.056,-0.025c-0.017,-0.011 -0.03,-0.026 -0.041,-0.045c-0.011,-0.019 -0.017,-0.042 -0.017,-0.069c0,-0.036 0.01,-0.064 0.029,-0.085c0.019,-0.021 0.045,-0.037 0.076,-0.048c0.031,-0.012 0.067,-0.019 0.106,-0.022c0.039,-0.003 0.079,-0.005 0.119,-0.005l0,-0.013Zm-0.023,0.081c-0.023,0 -0.047,0.001 -0.072,0.003c-0.025,0.002 -0.048,0.006 -0.068,0.012c-0.021,0.006 -0.038,0.015 -0.051,0.027c-0.013,0.012 -0.02,0.028 -0.02,0.048c0,0.014 0.003,0.026 0.009,0.035c0.005,0.009 0.013,0.017 0.022,0.023c0.009,0.006 0.02,0.01 0.031,0.013c0.011,0.002 0.023,0.003 0.035,0.003c0.044,0 0.078,-0.013 0.102,-0.039c0.023,-0.027 0.035,-0.06 0.035,-0.1l0,-0.025l-0.023,0Z" style="fill:white;fill-rule:nonzero;"/>            </g>            <g transform="matrix(36,0,0,36,225.919,43.2584)">                <path d="M0.166,-0.474c0.001,0.012 0.002,0.026 0.003,0.041c0.001,0.015 0.001,0.027 0.001,0.037l0.003,0c0.006,-0.013 0.014,-0.024 0.024,-0.035c0.011,-0.012 0.023,-0.021 0.036,-0.029c0.013,-0.009 0.028,-0.015 0.044,-0.02c0.016,-0.005 0.033,-0.007 0.05,-0.007c0.031,0 0.057,0.005 0.079,0.016c0.022,0.01 0.04,0.024 0.055,0.041c0.015,0.017 0.025,0.038 0.032,0.061c0.008,0.023 0.011,0.048 0.011,0.075l0,0.294l-0.094,0l0,-0.263c0,-0.019 -0.002,-0.038 -0.005,-0.055c-0.003,-0.017 -0.008,-0.033 -0.016,-0.046c-0.008,-0.013 -0.019,-0.024 -0.033,-0.032c-0.014,-0.008 -0.032,-0.012 -0.054,-0.012c-0.037,0 -0.068,0.014 -0.092,0.043c-0.023,0.028 -0.035,0.066 -0.035,0.113l0,0.252l-0.094,0l0,-0.372c0,-0.013 0,-0.029 -0.001,-0.049c-0.001,-0.02 -0.002,-0.038 -0.003,-0.053l0.089,0Z" style="fill:white;fill-rule:nonzero;"/>            </g>            <g transform="matrix(36,0,0,36,246.871,43.2584)">                <path d="M0.337,-0.354c-0.011,-0.017 -0.026,-0.032 -0.045,-0.043c-0.019,-0.011 -0.041,-0.016 -0.065,-0.016c-0.011,0 -0.021,0.001 -0.032,0.003c-0.011,0.003 -0.02,0.006 -0.029,0.011c-0.008,0.005 -0.015,0.012 -0.02,0.019c-0.005,0.008 -0.007,0.018 -0.007,0.029c0,0.02 0.009,0.035 0.027,0.044c0.018,0.01 0.045,0.019 0.081,0.027c0.023,0.005 0.044,0.012 0.063,0.019c0.019,0.007 0.036,0.016 0.05,0.027c0.015,0.011 0.026,0.025 0.034,0.04c0.008,0.015 0.012,0.033 0.012,0.054c0,0.028 -0.005,0.052 -0.016,0.071c-0.011,0.019 -0.025,0.035 -0.042,0.047c-0.018,0.013 -0.038,0.022 -0.061,0.027c-0.023,0.005 -0.046,0.008 -0.07,0.008c-0.036,0 -0.071,-0.007 -0.106,-0.021c-0.034,-0.014 -0.062,-0.035 -0.085,-0.064l0.067,-0.057c0.013,0.019 0.03,0.034 0.052,0.047c0.023,0.013 0.047,0.019 0.074,0.019c0.012,0 0.023,-0.001 0.034,-0.004c0.012,-0.002 0.022,-0.006 0.031,-0.011c0.008,-0.005 0.016,-0.012 0.021,-0.021c0.005,-0.009 0.008,-0.02 0.008,-0.033c0,-0.022 -0.011,-0.038 -0.032,-0.049c-0.021,-0.011 -0.051,-0.021 -0.092,-0.03c-0.016,-0.004 -0.032,-0.009 -0.049,-0.015c-0.016,-0.005 -0.031,-0.013 -0.044,-0.023c-0.013,-0.01 -0.024,-0.023 -0.033,-0.038c-0.008,-0.015 -0.012,-0.033 -0.012,-0.055c0,-0.025 0.005,-0.047 0.015,-0.066c0.011,-0.018 0.024,-0.033 0.041,-0.045c0.017,-0.011 0.036,-0.02 0.057,-0.026c0.021,-0.005 0.043,-0.008 0.066,-0.008c0.034,0 0.067,0.007 0.099,0.02c0.031,0.013 0.056,0.033 0.073,0.058l-0.065,0.055Z" style="fill:white;fill-rule:nonzero;"/>            </g>            <g transform="matrix(36,0,0,36,262.855,43.2584)">                <path d="M0.561,-0.238c0,0.037 -0.007,0.07 -0.02,0.101c-0.012,0.031 -0.03,0.057 -0.054,0.08c-0.023,0.022 -0.05,0.039 -0.081,0.052c-0.031,0.012 -0.065,0.018 -0.101,0.018c-0.036,0 -0.07,-0.006 -0.101,-0.018c-0.031,-0.013 -0.058,-0.03 -0.081,-0.053c-0.023,-0.022 -0.041,-0.048 -0.054,-0.079c-0.013,-0.031 -0.019,-0.064 -0.019,-0.101c0,-0.037 0.006,-0.07 0.019,-0.101c0.013,-0.03 0.031,-0.056 0.054,-0.078c0.023,-0.022 0.05,-0.039 0.081,-0.051c0.031,-0.013 0.065,-0.019 0.101,-0.019c0.036,0 0.07,0.006 0.101,0.019c0.031,0.012 0.058,0.029 0.081,0.051c0.024,0.022 0.042,0.048 0.054,0.079c0.013,0.03 0.02,0.063 0.02,0.1Zm-0.098,0c0,-0.023 -0.004,-0.044 -0.011,-0.065c-0.007,-0.021 -0.017,-0.039 -0.03,-0.054c-0.013,-0.016 -0.03,-0.029 -0.05,-0.038c-0.019,-0.009 -0.042,-0.014 -0.067,-0.014c-0.025,0 -0.048,0.005 -0.068,0.014c-0.019,0.009 -0.036,0.022 -0.049,0.038c-0.013,0.015 -0.024,0.033 -0.031,0.054c-0.007,0.021 -0.01,0.042 -0.01,0.065c0,0.023 0.003,0.044 0.01,0.065c0.007,0.021 0.018,0.039 0.031,0.055c0.013,0.016 0.03,0.029 0.049,0.038c0.02,0.009 0.043,0.014 0.068,0.014c0.025,0 0.048,-0.005 0.067,-0.014c0.02,-0.009 0.037,-0.022 0.05,-0.038c0.013,-0.016 0.023,-0.034 0.03,-0.055c0.007,-0.021 0.011,-0.042 0.011,-0.065Z" style="fill:white;fill-rule:nonzero;"/>            </g>            <g transform="matrix(36,0,0,36,284.815,43.2584)">                <path d="M0.116,-0.474l0.107,0.362l0.002,0l0.113,-0.362l0.099,0l0.115,0.362l0.002,0l0.107,-0.362l0.099,0l-0.157,0.474l-0.098,0l-0.117,-0.356l-0.002,0l-0.116,0.356l-0.098,0l-0.158,-0.474l0.102,0Z" style="fill:white;fill-rule:nonzero;"/>            </g>            <g transform="matrix(36,0,0,36,312.643,43.2584)">                <path d="M0.561,-0.238c0,0.037 -0.007,0.07 -0.02,0.101c-0.012,0.031 -0.03,0.057 -0.054,0.08c-0.023,0.022 -0.05,0.039 -0.081,0.052c-0.031,0.012 -0.065,0.018 -0.101,0.018c-0.036,0 -0.07,-0.006 -0.101,-0.018c-0.031,-0.013 -0.058,-0.03 -0.081,-0.053c-0.023,-0.022 -0.041,-0.048 -0.054,-0.079c-0.013,-0.031 -0.019,-0.064 -0.019,-0.101c0,-0.037 0.006,-0.07 0.019,-0.101c0.013,-0.03 0.031,-0.056 0.054,-0.078c0.023,-0.022 0.05,-0.039 0.081,-0.051c0.031,-0.013 0.065,-0.019 0.101,-0.019c0.036,0 0.07,0.006 0.101,0.019c0.031,0.012 0.058,0.029 0.081,0.051c0.024,0.022 0.042,0.048 0.054,0.079c0.013,0.03 0.02,0.063 0.02,0.1Zm-0.098,0c0,-0.023 -0.004,-0.044 -0.011,-0.065c-0.007,-0.021 -0.017,-0.039 -0.03,-0.054c-0.013,-0.016 -0.03,-0.029 -0.05,-0.038c-0.019,-0.009 -0.042,-0.014 -0.067,-0.014c-0.025,0 -0.048,0.005 -0.068,0.014c-0.019,0.009 -0.036,0.022 -0.049,0.038c-0.013,0.015 -0.024,0.033 -0.031,0.054c-0.007,0.021 -0.01,0.042 -0.01,0.065c0,0.023 0.003,0.044 0.01,0.065c0.007,0.021 0.018,0.039 0.031,0.055c0.013,0.016 0.03,0.029 0.049,0.038c0.02,0.009 0.043,0.014 0.068,0.014c0.025,0 0.048,-0.005 0.067,-0.014c0.02,-0.009 0.037,-0.022 0.05,-0.038c0.013,-0.016 0.023,-0.034 0.03,-0.055c0.007,-0.021 0.011,-0.042 0.011,-0.065Z" style="fill:white;fill-rule:nonzero;"/>            </g>            <g transform="matrix(36,0,0,36,334.171,43.2584)">                <path d="M0.197,-0.06c0,0.017 -0.006,0.033 -0.019,0.046c-0.013,0.013 -0.029,0.02 -0.048,0.02c-0.019,0 -0.034,-0.007 -0.048,-0.02c-0.012,-0.013 -0.019,-0.028 -0.019,-0.045c0,-0.018 0.006,-0.034 0.019,-0.047c0.013,-0.012 0.029,-0.019 0.048,-0.019c0.019,0 0.035,0.006 0.048,0.019c0.013,0.013 0.019,0.028 0.019,0.046Z" style="fill:white;fill-rule:nonzero;"/>            </g>            <g transform="matrix(36,0,0,36,343.531,43.2584)">                <path d="M0.175,0.24l-0.094,0l0,-0.714l0.092,0l0,0.074l0.003,0c0.015,-0.025 0.038,-0.046 0.067,-0.063c0.03,-0.016 0.065,-0.024 0.104,-0.024c0.035,0 0.068,0.006 0.096,0.019c0.029,0.013 0.054,0.03 0.075,0.053c0.021,0.023 0.038,0.049 0.049,0.079c0.011,0.031 0.017,0.063 0.017,0.098c0,0.035 -0.006,0.067 -0.017,0.098c-0.011,0.031 -0.027,0.057 -0.048,0.08c-0.021,0.023 -0.046,0.04 -0.075,0.053c-0.029,0.013 -0.062,0.02 -0.099,0.02c-0.034,0 -0.066,-0.007 -0.096,-0.022c-0.03,-0.015 -0.054,-0.035 -0.071,-0.062l-0.003,0l0,0.311Zm0.312,-0.478c0,-0.022 -0.003,-0.043 -0.01,-0.064c-0.007,-0.021 -0.017,-0.039 -0.03,-0.055c-0.013,-0.016 -0.03,-0.029 -0.049,-0.038c-0.02,-0.009 -0.043,-0.014 -0.069,-0.014c-0.024,0 -0.046,0.005 -0.065,0.014c-0.02,0.009 -0.037,0.022 -0.051,0.038c-0.014,0.016 -0.025,0.034 -0.032,0.055c-0.008,0.021 -0.012,0.042 -0.012,0.065c0,0.023 0.004,0.044 0.012,0.065c0.007,0.021 0.018,0.039 0.032,0.054c0.014,0.016 0.031,0.029 0.051,0.038c0.019,0.009 0.041,0.014 0.065,0.014c0.026,0 0.049,-0.005 0.069,-0.015c0.019,-0.009 0.036,-0.022 0.049,-0.038c0.013,-0.016 0.023,-0.034 0.03,-0.055c0.007,-0.021 0.01,-0.042 0.01,-0.064Z" style="fill:white;fill-rule:nonzero;"/>            </g>            <g transform="matrix(36,0,0,36,365.556,43.2584)">                <rect x="0.083" y="-0.756" width="0.094" height="0.756" style="fill:white;fill-rule:nonzero;"/>            </g>        </g>    </g>    <defs>        <linearGradient id="_Linear1" x1="0" y1="0" x2="1" y2="0" gradientUnits="userSpaceOnUse" gradientTransform="matrix(342.41,0,0,342.41,126.519,124.554)"><stop offset="0" style="stop-color:rgb(7,127,74);stop-opacity:1"/><stop offset="1" style="stop-color:rgb(26,139,95);stop-opacity:1"/></linearGradient>        <linearGradient id="_Linear2" x1="0" y1="0" x2="1" y2="0" gradientUnits="userSpaceOnUse" gradientTransform="matrix(279.038,0,0,279.038,144.396,203.469)"><stop offset="0" style="stop-color:rgb(120,163,129);stop-opacity:1"/><stop offset="1" style="stop-color:rgb(166,166,166);stop-opacity:0"/></linearGradient>    </defs></svg>