<?xml version="1.0" encoding="UTF-8" standalone="no"?><!DOCTYPE svg PUBLIC "-//W3C//DTD SVG 1.1//EN" "http://www.w3.org/Graphics/SVG/1.1/DTD/svg11.dtd"><svg width="100%" height="100%" viewBox="0 0 1024 512" version="1.1" xmlns="http://www.w3.org/2000/svg" xmlns:xlink="http://www.w3.org/1999/xlink" xml:space="preserve" style="fill-rule:evenodd;clip-rule:evenodd;stroke-linejoin:round;stroke-miterlimit:2;"><title>NoviCap</title><desc>NoviCap was born in 2015 with the aim of simplifying the financing of invoices.</desc>    <g id="Logo" transform="matrix(6.93878,0,0,6.93878,2,172.735)">        <g>            <rect id="Rectangle" x="18.098" y="0" width="5.323" height="24" style="fill:rgb(255,95,0);"/>            <path id="Path" d="M12.775,24l-12.775,0l0,-17.455l12.775,17.455Z" style="fill:rgb(255,95,0);"/>            <g id="Path1" transform="matrix(-1,7.65714e-16,-7.65714e-16,-1,12.7748,17.4545)">                <path d="M0,17.455l0,-17.455l12.775,17.455l-12.775,0Z" style="fill:rgb(255,95,0);"/>            </g>        </g>        <path id="NOVICAP" d="M49.083,0l0,23.957l-2.758,0l-14.128,-18.131l0,18.131l-3.364,0l0,-23.957l2.764,0l14.123,17.634l0,-17.634l3.363,0Zm11.135,23.918c-1.516,0 -2.883,-0.338 -4.101,-1.016c-1.218,-0.677 -2.175,-1.616 -2.869,-2.817c-0.694,-1.202 -1.041,-2.545 -1.041,-4.03c0,-1.486 0.347,-2.829 1.041,-4.03c0.694,-1.202 1.651,-2.141 2.869,-2.818c1.218,-0.677 2.585,-1.016 4.101,-1.016c1.516,0 2.883,0.339 4.101,1.016c1.218,0.677 2.175,1.613 2.869,2.807c0.694,1.194 1.041,2.541 1.041,4.041c0,1.5 -0.347,2.847 -1.041,4.041c-0.694,1.194 -1.651,2.129 -2.869,2.806c-1.218,0.678 -2.585,1.016 -4.101,1.016Zm-0.127,-2.25c0.991,0 1.884,-0.229 2.677,-0.688c0.793,-0.458 1.417,-1.099 1.87,-1.922c0.453,-0.823 0.68,-1.744 0.68,-2.763c0,-1.019 -0.227,-1.94 -0.68,-2.763c-0.453,-0.823 -1.077,-1.464 -1.87,-1.922c-0.793,-0.459 -1.686,-0.688 -2.677,-0.688c-0.992,0 -1.885,0.229 -2.678,0.688c-0.793,0.458 -1.416,1.099 -1.87,1.922c-0.453,0.823 -0.68,1.744 -0.68,2.763c0,1.019 0.227,1.94 0.68,2.763c0.454,0.823 1.077,1.464 1.87,1.922c0.793,0.459 1.686,0.688 2.678,0.688Zm24.287,-12.985l-6.481,15.29l-2.719,0l-6.503,-15.29l2.996,0l4.951,11.795l4.994,-11.795l2.762,0Zm2.89,0l2.763,0l0,15.29l-2.763,0l0,-15.29Zm18.441,15.317c-2.231,0 -4.245,-0.52 -6.04,-1.559c-1.796,-1.039 -3.203,-2.469 -4.223,-4.29c-1.02,-1.821 -1.53,-3.872 -1.53,-6.151c0,-2.279 0.51,-4.33 1.53,-6.151c1.02,-1.821 2.433,-3.251 4.239,-4.29c1.806,-1.039 3.825,-1.559 6.056,-1.559c1.742,0 3.336,0.307 4.781,0.922c1.445,0.614 2.677,1.525 3.697,2.732l-2.072,2.111c-1.678,-1.854 -3.771,-2.782 -6.279,-2.782c-1.657,0 -3.155,0.391 -4.494,1.173c-1.339,0.783 -2.385,1.861 -3.14,3.235c-0.754,1.374 -1.131,2.911 -1.131,4.609c0,1.698 0.377,3.235 1.131,4.609c0.755,1.374 1.801,2.452 3.14,3.235c1.339,0.782 2.837,1.173 4.494,1.173c2.486,0 4.579,-0.939 6.279,-2.816l2.072,2.112c-1.02,1.207 -2.257,2.123 -3.713,2.748c-1.456,0.626 -3.055,0.939 -4.797,0.939Zm21.465,-3.566l-7.437,0l-1.466,3.539l-2.847,0l6.693,-15.29l2.72,0l6.715,15.29l-2.89,0l-1.488,-3.539Zm-0.85,-2.282l-2.804,-6.684l-2.784,6.684l5.588,0Zm14.344,-9.469c1.289,0 2.412,0.218 3.368,0.655c0.956,0.437 1.689,1.063 2.199,1.878c0.51,0.816 0.765,1.784 0.765,2.906c0,1.106 -0.255,2.071 -0.765,2.894c-0.51,0.823 -1.243,1.452 -2.199,1.889c-0.956,0.437 -2.079,0.655 -3.368,0.655l-3.358,0l0,4.413l-2.762,0l0,-15.29l6.12,0Zm-0.234,8.311c1.204,0 2.118,-0.262 2.741,-0.786c0.623,-0.525 0.935,-1.275 0.935,-2.25c0,-0.976 -0.312,-1.726 -0.935,-2.25c-0.623,-0.524 -1.537,-0.786 -2.741,-0.786l-3.23,0l0,6.072l3.23,0Z" style="fill:rgb(0,39,108);fill-rule:nonzero;"/>    </g></svg>