<?xml version="1.0" encoding="UTF-8" standalone="no"?><!DOCTYPE svg PUBLIC "-//W3C//DTD SVG 1.1//EN" "http://www.w3.org/Graphics/SVG/1.1/DTD/svg11.dtd"><svg width="100%" height="100%" viewBox="0 0 1024 512" version="1.1" xmlns="http://www.w3.org/2000/svg" xmlns:xlink="http://www.w3.org/1999/xlink" xml:space="preserve" style="fill-rule:evenodd;clip-rule:evenodd;stroke-linejoin:round;stroke-miterlimit:2;"><title>MarketFinance</title><desc>At MarketFinance, we believe UK businesses are building the world we all want to live in, piece by piece. And we know that building an idea, a product, a team, a business – the world – isn’t easy. We’ve been there. We are there. We get it. But running a business on your own terms, doesn’t mean having to go it alone. We know first-hand that success lives within the people and partnerships that surround you. And whether success means disrupting an industry or simply getting that order out on time, you should have a choice of how to fund your business.</desc>    <g transform="matrix(1.02064,0,0,1.02064,2,126.814)">        <path d="M19.39,253.14c10.637,0 19.39,-8.753 19.39,-19.39l0,-137.42l57.43,106.72c-2.986,-5.695 -2.949,-12.518 0.1,-18.18l3.87,-7.18l-76.91,-142.91l0,199c0,2.129 -1.751,3.88 -3.88,3.88c-2.129,0 -3.88,-1.751 -3.88,-3.88l0,-214.39c0.006,-2.124 1.756,-3.869 3.88,-3.869c1.421,0 2.732,0.78 3.41,2.029l81.78,152l8.81,-16.37l-76.93,-142.98c-3.378,-6.269 -9.948,-10.193 -17.07,-10.193c-10.634,0 -19.386,8.749 -19.39,19.383l0,214.36c0,10.637 8.753,19.39 19.39,19.39Z" style="fill:rgb(0,205,190);fill-rule:nonzero;"/>        <path d="M329.24,84.27l-15.32,0c-1.91,0 -3.11,1.56 -3.47,3.35l-11.36,51.69l-11.37,-51.69c-0.36,-1.79 -1.55,-3.35 -3.47,-3.35l-15.31,0c-1.863,-0.012 -3.416,1.488 -3.47,3.35l0,78.13c0.049,1.864 1.605,3.367 3.47,3.35l6.46,0c1.863,0.012 3.416,-1.488 3.47,-3.35l0,-64.13l14.59,64.13c0.36,1.8 1.56,3.35 3.47,3.35l4.31,0c1.91,0 3.11,-1.55 3.47,-3.35l14.6,-64.13l0,64.13c0.049,1.864 1.605,3.367 3.47,3.35l6.46,0c1.863,0.012 3.416,-1.488 3.47,-3.35l0,-78.13c-0.059,-1.86 -1.609,-3.356 -3.47,-3.35Z" style="fill:rgb(0,205,190);fill-rule:nonzero;"/>        <path d="M379.72,86.43c-0.272,-1.273 -1.418,-2.184 -2.72,-2.16l-16,0c-1.313,-0.038 -2.476,0.876 -2.75,2.16l-18.07,78.12c-0.167,0.657 -0.288,1.326 -0.36,2c0.021,1.384 1.165,2.511 2.55,2.511c0.026,0 0.053,0 0.08,-0.001l8.86,0c1.43,0 2.27,-1.19 2.63,-2.63l3.59,-15.08l23,0l3.47,15.12c0.36,1.44 1.2,2.63 2.63,2.63l8.86,0c0.027,0.001 0.054,0.001 0.08,0.001c1.385,0 2.529,-1.127 2.55,-2.511c-0.072,-0.674 -0.193,-1.343 -0.36,-2l-18.04,-78.16Zm-19.5,52.57l8.78,-39.77l8.69,39.77l-17.47,0Z" style="fill:rgb(0,205,190);fill-rule:nonzero;"/>        <path d="M442.17,126.39c7.78,-0.84 10.29,-6.94 10.29,-14.6l0,-12c0,-8.26 -6,-15.56 -15.19,-15.56l-29.2,0c-1.861,-0.006 -3.411,1.49 -3.47,3.35l0,78.13c0.054,1.862 1.607,3.362 3.47,3.35l7.78,0c1.863,0.012 3.416,-1.488 3.47,-3.35l0,-33l11.68,0c4.79,0 8.26,3.11 8.26,7.9l0,25.12c0.054,1.862 1.607,3.362 3.47,3.35l7.78,0c1.863,0.012 3.416,-1.488 3.47,-3.35l0,-22.73c0.02,-8 -2.24,-15.65 -11.81,-16.61Zm-3.23,-13.76c0,4.78 -3.11,7.9 -7.9,7.9l-11.72,0l0,-24l11.68,0c4.79,0 7.9,3.11 7.9,7.77l0.04,8.33Z" style="fill:rgb(0,205,190);fill-rule:nonzero;"/>        <path d="M492.18,122.68l18.07,-33.86c0.406,-0.779 0.648,-1.633 0.71,-2.51c0,-1.8 -1.79,-2 -3.59,-2l-8.13,0c-1.92,0 -2.75,1.56 -3.71,3.35l-17.59,31.71l0,-31.75c-0.054,-1.862 -1.607,-3.362 -3.47,-3.35l-7.78,0c-1.861,-0.006 -3.411,1.49 -3.47,3.35l0,78.13c0.054,1.862 1.607,3.362 3.47,3.35l7.78,0c1.865,0.017 3.421,-1.486 3.47,-3.35l0,-37.93l19.38,37.81c0.84,1.68 2.28,3.47 4.07,3.47l8.86,0c2.15,0 3.47,-1.08 3.47,-2.75c0.047,-0.657 -0.077,-1.315 -0.36,-1.91l-21.18,-41.76Z" style="fill:rgb(0,205,190);fill-rule:nonzero;"/>        <path d="M560.49,156.42l-26.2,0l0,-25.72l22,0c1.862,-0.054 3.362,-1.607 3.35,-3.47l0,-5.63c0.012,-1.863 -1.488,-3.416 -3.35,-3.47l-22,0l0,-21.13l25.6,0c1.862,-0.054 3.362,-1.607 3.35,-3.47l0,-5.79c0.012,-1.863 -1.488,-3.416 -3.35,-3.47l-36.89,0c-1.861,-0.006 -3.411,1.49 -3.47,3.35l0,78.13c0.054,1.862 1.607,3.362 3.47,3.35l37.45,0c1.864,-0.049 3.367,-1.605 3.35,-3.47l0,-5.74c0.017,-1.85 -1.461,-3.4 -3.31,-3.47Z" style="fill:rgb(0,205,190);fill-rule:nonzero;"/>        <path d="M616.24,84.27l-42,0c-1.862,0.054 -3.362,1.607 -3.35,3.47l0,5.63c-0.012,1.863 1.488,3.416 3.35,3.47l13.64,0l0,68.91c0.049,1.864 1.605,3.367 3.47,3.35l7.77,0c1.865,0.017 3.421,-1.486 3.47,-3.35l0,-68.91l13.64,0c1.862,-0.054 3.362,-1.607 3.35,-3.47l0,-5.63c0.012,-1.859 -1.482,-3.411 -3.34,-3.47Z" style="fill:rgb(0,205,190);fill-rule:nonzero;"/>        <path d="M226.77,233.75l0,-214.36c-0.004,-10.634 -8.756,-19.383 -19.39,-19.383c-7.122,0 -13.692,3.924 -17.07,10.193l-94,174.67c-1.589,2.873 -2.423,6.103 -2.423,9.386c0,10.637 8.753,19.39 19.39,19.39c7.207,0 13.844,-4.019 17.183,-10.406l57.54,-106.91l0,137.42c0,10.637 8.753,19.39 19.39,19.39c10.637,0 19.39,-8.753 19.39,-19.39l-0.01,0Zm-23.26,0l0,-199l-86.71,161.14c-0.648,1.334 -2.007,2.184 -3.49,2.184c-2.128,0 -3.88,-1.751 -3.88,-3.88c0,-0.694 0.187,-1.376 0.54,-1.974l94.03,-174.67c0.678,-1.249 1.989,-2.029 3.41,-2.029c2.124,0 3.874,1.745 3.88,3.869l0,214.36c0.003,0.066 0.005,0.131 0.005,0.197c0,2.128 -1.751,3.88 -3.88,3.88c-2.129,0 -3.88,-1.752 -3.88,-3.88c0,-0.066 0.002,-0.131 0.005,-0.197l-0.03,0Z" style="fill:rgb(0,16,97);fill-rule:nonzero;"/>        <path d="M644.34,165.6c0.012,1.874 -1.497,3.436 -3.37,3.49l-8,0c-1.874,0.012 -3.436,-1.497 -3.49,-3.37l0,-78.66c0.049,-1.887 1.633,-3.403 3.52,-3.37l37.1,0c1.873,0.054 3.382,1.616 3.37,3.49l0,5.82c0.012,1.876 -1.495,3.441 -3.37,3.5l-25.76,0l0,21.32l22.16,0c1.877,0.049 3.391,1.612 3.38,3.49l0,5.66c0.011,1.878 -1.503,3.441 -3.38,3.49l-22.16,0l0,35.14Z" style="fill:rgb(0,16,97);fill-rule:nonzero;"/>        <path d="M680.6,87.06c0.049,-1.875 1.614,-3.387 3.49,-3.37l7.83,0c1.876,-0.017 3.441,1.495 3.49,3.37l0,78.66c-0.054,1.873 -1.616,3.382 -3.49,3.37l-7.83,0c-1.874,0.012 -3.436,-1.497 -3.49,-3.37l0,-78.66Z" style="fill:rgb(0,16,97);fill-rule:nonzero;"/>        <path d="M746.49,87.18c0.049,-1.883 1.627,-3.398 3.51,-3.37l7.83,0c1.876,-0.017 3.441,1.495 3.49,3.37l0,78.54c-0.054,1.873 -1.616,3.382 -3.49,3.37l-9.88,0c-2.41,0 -3.13,-1.69 -3.85,-3.37l-23.49,-53.36l0,53.36c-0.059,1.871 -1.618,3.376 -3.49,3.37l-7.83,0c-1.876,0.012 -3.441,-1.495 -3.5,-3.37l0,-78.66c0.054,-1.877 1.622,-3.387 3.5,-3.37l9.87,0c2.41,0 3.14,1.68 3.86,3.37l23.49,53.36l-0.02,-53.24Z" style="fill:rgb(0,16,97);fill-rule:nonzero;"/>        <path d="M804.67,83.69c1.321,-0.039 2.492,0.878 2.77,2.17l18.19,78.65c0.169,0.674 0.289,1.359 0.36,2.05c-0.027,1.397 -1.183,2.531 -2.58,2.531c-0.023,0 -0.047,0 -0.07,-0.001l-8.91,0c-1.45,0 -2.29,-1.21 -2.65,-2.65l-3.62,-15.18l-23.16,0l-3.61,15.18c-0.36,1.44 -1.2,2.65 -2.65,2.65l-8.91,0c-0.027,0.001 -0.054,0.001 -0.08,0.001c-1.396,0 -2.549,-1.136 -2.57,-2.531c0.071,-0.691 0.191,-1.376 0.36,-2.05l18.19,-78.65c0.274,-1.294 1.448,-2.213 2.77,-2.17l16.17,0Zm-8.07,15l-8.79,40l17.58,0l-8.79,-40Z" style="fill:rgb(0,16,97);fill-rule:nonzero;"/>        <path d="M872.61,87.18c0.049,-1.875 1.614,-3.387 3.49,-3.37l7.83,0c1.876,-0.017 3.441,1.495 3.49,3.37l0,78.54c-0.054,1.873 -1.616,3.382 -3.49,3.37l-9.88,0c-2.41,0 -3.13,-1.69 -3.85,-3.37l-23.49,-53.36l0,53.36c-0.059,1.871 -1.618,3.376 -3.49,3.37l-7.83,0c-1.876,0.012 -3.441,-1.495 -3.5,-3.37l0,-78.66c0.054,-1.877 1.622,-3.387 3.5,-3.37l9.87,0c2.41,0 3.14,1.68 3.86,3.37l23.49,53.36l0,-53.24Z" style="fill:rgb(0,16,97);fill-rule:nonzero;"/>        <path d="M931.63,104.53c0,-6.27 -4,-10.72 -10.12,-10.72c-6.12,0 -10.11,4.57 -10.11,10.72l0,43.47c0,6.26 4,10.72 10.11,10.72c6.11,0 10.12,-4.58 10.12,-10.72l0,-2c0.059,-1.875 1.624,-3.382 3.5,-3.37l7.7,0c1.876,-0.012 3.441,1.495 3.5,3.37l0,2c0,15.06 -11,23.49 -24.82,23.49c-13.82,0 -24.81,-8.42 -24.81,-23.49l0,-43.47c0,-15.06 11,-23.49 24.81,-23.49c13.81,0 24.82,8.43 24.82,23.49l0,2c-0.054,1.879 -1.621,3.392 -3.5,3.38l-7.7,0c-1.879,0.012 -3.446,-1.501 -3.5,-3.38l0,-2Z" style="fill:rgb(0,16,97);fill-rule:nonzero;"/>        <path d="M958.26,169.09c-1.876,0.012 -3.441,-1.495 -3.5,-3.37l0,-78.66c0.054,-1.877 1.622,-3.387 3.5,-3.37l37.09,0c1.877,0.049 3.391,1.612 3.38,3.49l0,5.82c0.012,1.879 -1.501,3.446 -3.38,3.5l-25.77,0l0,21.32l22.16,0c1.875,0.049 3.387,1.614 3.37,3.49l0,5.66c0.017,1.876 -1.495,3.441 -3.37,3.49l-22.16,0l0,25.9l26.42,0c1.871,0.059 3.376,1.618 3.37,3.49l0,5.79c0.006,1.872 -1.499,3.431 -3.37,3.49l-37.74,-0.04Z" style="fill:rgb(0,16,97);fill-rule:nonzero;"/>    </g></svg>