<?xml version="1.0" encoding="UTF-8" standalone="no"?><!DOCTYPE svg PUBLIC "-//W3C//DTD SVG 1.1//EN" "http://www.w3.org/Graphics/SVG/1.1/DTD/svg11.dtd"><svg width="100%" height="100%" viewBox="0 0 1024 512" version="1.1" xmlns="http://www.w3.org/2000/svg" xmlns:xlink="http://www.w3.org/1999/xlink" xml:space="preserve" style="fill-rule:evenodd;clip-rule:evenodd;stroke-linejoin:round;stroke-miterlimit:2;"><title>Welltrado</title><desc></desc>    <g transform="matrix(6.0355,0,0,6.0355,2.00059,144.316)">        <path d="M37,4.627c0.001,0.989 -0.314,1.953 -0.9,2.75l-8.448,11.47c-0.694,0.947 -2.024,1.19 -3.007,0.549l-7.512,-4.883c-0.998,-0.65 -2.35,-0.388 -3.033,0.587l-5.421,7.658c-0.679,0.965 -2.014,1.231 -3.011,0.6l-3.525,-2.237c-1.334,-0.848 -2.144,-2.324 -2.143,-3.905l0,-12.589c0,-0.005 0,-0.011 0,-0.016c0,-2.518 2.068,-4.592 4.586,-4.6l27.827,0c2.519,0.007 4.587,2.081 4.587,4.6c0,0.005 0,0.011 0,0.016Z" style="fill:rgb(137,165,212);fill-rule:nonzero;"/>        <path d="M0,32.368l0,-4.657c0,-0.004 0,-0.008 0,-0.012c0,-0.815 0.671,-1.487 1.487,-1.487c0.283,0 0.561,0.081 0.8,0.234l4.413,2.842c0.997,0.644 2.343,0.382 3.026,-0.588l5.413,-7.659c0.684,-0.974 2.035,-1.234 3.032,-0.585l7.515,4.892c0.983,0.641 2.312,0.398 3.005,-0.549l5.626,-7.623c0.28,-0.379 0.724,-0.604 1.195,-0.604c0.815,0 1.485,0.671 1.485,1.485c0,0.007 0,0.013 0,0.019l0,14.3c0,0.007 0,0.015 0,0.022c0,2.517 -2.067,4.591 -4.584,4.6l-27.827,0c-2.518,-0.008 -4.586,-2.082 -4.586,-4.6c0,-0.01 0,-0.02 0,-0.03Z" style="fill:rgb(232,52,94);fill-rule:nonzero;"/>        <path d="M51.78,28.935l-3.72,-18.735l-0.06,-0.316c-0.001,-0.154 0.062,-0.301 0.173,-0.408c0.103,-0.111 0.248,-0.174 0.4,-0.175l1.413,0c0.033,-0.005 0.066,-0.008 0.099,-0.008c0.295,0 0.548,0.217 0.593,0.508l2.976,15.199l3.2,-10.487c0.069,-0.429 0.461,-0.736 0.894,-0.7l1.009,0c0.434,-0.019 0.825,0.276 0.923,0.7l3.173,10.487l2.97,-15.2c0.053,-0.294 0.311,-0.51 0.609,-0.51c0.038,0 0.075,0.003 0.112,0.01l1.384,0c0.152,0.001 0.296,0.064 0.4,0.175c0.111,0.107 0.174,0.254 0.173,0.408c0.001,0.108 -0.009,0.215 -0.029,0.321l-3.745,18.731c-0.038,0.453 -0.441,0.794 -0.894,0.757l-1.033,0c-0.451,0.022 -0.855,-0.287 -0.952,-0.728l-3.58,-11.215l-3.6,11.215c-0.078,0.439 -0.477,0.754 -0.923,0.728l-1.071,0c-0.449,0.025 -0.845,-0.31 -0.894,-0.757Zm20.791,-0.8c-1.237,-1.393 -1.924,-3.191 -1.932,-5.054l-0.029,-0.99l0.029,-0.961c0.017,-1.848 0.704,-3.629 1.932,-5.01c2.708,-2.538 7.003,-2.46 9.617,0.175c1.234,1.572 1.854,3.54 1.745,5.535l0,0.524c0.006,0.179 -0.062,0.353 -0.187,0.481c-0.125,0.126 -0.298,0.195 -0.476,0.189l-10.007,0l0,0.262c0.026,1.174 0.43,2.308 1.153,3.233c0.671,0.874 1.724,1.374 2.826,1.34c0.772,0.034 1.537,-0.153 2.206,-0.539c0.492,-0.292 0.927,-0.672 1.283,-1.12c0.105,-0.165 0.24,-0.309 0.4,-0.422c0.156,-0.059 0.323,-0.084 0.49,-0.073l1.269,0c0.161,-0.004 0.319,0.048 0.447,0.146c0.12,0.088 0.19,0.23 0.187,0.379c-0.075,0.589 -0.35,1.134 -0.779,1.544c-0.615,0.671 -1.368,1.202 -2.206,1.558c-1.031,0.453 -2.147,0.677 -3.273,0.656c-1.757,0.079 -3.467,-0.596 -4.696,-1.854l0.001,0.001Zm8.737,-7.093l0,-0.089c0.051,-1.204 -0.34,-2.386 -1.1,-3.321c-0.732,-0.855 -1.817,-1.328 -2.941,-1.282c-1.126,-0.054 -2.215,0.42 -2.941,1.282c-0.741,0.944 -1.12,2.122 -1.067,3.321l0,0.087l8.045,0l0.004,0.002Zm6.358,8.458c-0.126,-0.128 -0.193,-0.302 -0.187,-0.481l0,-19.339c-0.013,-0.186 0.055,-0.368 0.187,-0.5c0.13,-0.118 0.301,-0.181 0.476,-0.175l1.268,0c0.178,-0.006 0.35,0.063 0.476,0.189c0.125,0.128 0.193,0.302 0.187,0.481l0,19.348c0.006,0.179 -0.062,0.353 -0.187,0.481c-0.125,0.126 -0.298,0.195 -0.476,0.189l-1.268,0c-0.179,0.005 -0.351,-0.065 -0.476,-0.193Zm6.95,0c-0.126,-0.128 -0.193,-0.302 -0.187,-0.481l0,-19.339c-0.013,-0.186 0.055,-0.368 0.187,-0.5c0.13,-0.118 0.301,-0.181 0.476,-0.175l1.268,0c0.178,-0.006 0.35,0.063 0.476,0.189c0.125,0.128 0.193,0.302 0.187,0.481l0,19.348c0.006,0.179 -0.062,0.353 -0.187,0.481c-0.125,0.126 -0.298,0.195 -0.476,0.189l-1.269,0c-0.179,0.005 -0.351,-0.065 -0.476,-0.193l0.001,0Zm8.031,-4.909l0,-7.803l-2.278,0c-0.171,0.008 -0.338,-0.055 -0.461,-0.175c-0.119,-0.125 -0.181,-0.294 -0.173,-0.466l0,-0.932c-0.006,-0.177 0.056,-0.349 0.173,-0.481c0.119,-0.127 0.287,-0.196 0.461,-0.189l2.278,0l0,-4.865c-0.006,-0.177 0.056,-0.349 0.173,-0.481c0.118,-0.127 0.287,-0.197 0.461,-0.189l1.269,0c0.178,-0.006 0.35,0.063 0.476,0.189c0.126,0.128 0.194,0.302 0.188,0.481l0,4.865l3.575,0c0.178,-0.006 0.35,0.063 0.476,0.189c0.125,0.128 0.193,0.302 0.187,0.481l0,0.932c0.008,0.175 -0.06,0.345 -0.187,0.466c-0.13,0.118 -0.301,0.181 -0.476,0.175l-3.575,0l0,7.6c-0.049,0.777 0.115,1.553 0.475,2.243c0.365,0.529 0.99,0.819 1.63,0.757l1.758,0c0.174,-0.007 0.343,0.062 0.462,0.189c0.117,0.132 0.179,0.304 0.173,0.481l0,0.961c0.006,0.177 -0.056,0.349 -0.173,0.481c-0.119,0.127 -0.288,0.196 -0.462,0.189l-1.96,0c-2.981,0.003 -4.471,-1.695 -4.471,-5.094l0.001,-0.004Zm10.077,4.909c-0.126,-0.128 -0.194,-0.302 -0.188,-0.481l0,-13.775c-0.005,-0.185 0.062,-0.364 0.188,-0.5c0.122,-0.133 0.296,-0.206 0.476,-0.2l1.211,0c0.185,-0.008 0.366,0.06 0.5,0.189c0.129,0.137 0.197,0.322 0.188,0.51l0,1.282c0.858,-1.357 2.409,-2.124 4.008,-1.981l1.125,0c0.18,-0.011 0.358,0.052 0.49,0.175c0.123,0.136 0.186,0.317 0.173,0.5l0,1.078c0.006,0.177 -0.056,0.349 -0.173,0.481c-0.128,0.131 -0.307,0.2 -0.49,0.189l-1.644,0c-0.924,-0.051 -1.829,0.288 -2.494,0.932c-0.631,0.688 -0.959,1.602 -0.909,2.534l0,8.593c0.006,0.182 -0.067,0.357 -0.2,0.481c-0.132,0.125 -0.309,0.193 -0.491,0.189l-1.3,0c-0.177,0.002 -0.347,-0.069 -0.47,-0.196Zm11.967,-0.1c-0.759,-0.357 -1.414,-0.904 -1.9,-1.588c-0.465,-0.649 -0.713,-1.429 -0.707,-2.228c-0.021,-1.238 0.56,-2.412 1.557,-3.146c1.249,-0.899 2.709,-1.461 4.239,-1.631l4.32,-0.607l0,-0.849c0,-2 -1.144,-3 -3.431,-3c-0.749,-0.036 -1.492,0.152 -2.134,0.539c-0.496,0.314 -0.903,0.75 -1.182,1.267c-0.048,0.149 -0.132,0.284 -0.245,0.393c-0.106,0.073 -0.233,0.108 -0.361,0.1l-1.124,0c-0.169,0.002 -0.331,-0.067 -0.447,-0.189c-0.122,-0.118 -0.19,-0.282 -0.188,-0.452c0.046,-0.57 0.262,-1.112 0.62,-1.558c0.502,-0.665 1.161,-1.196 1.918,-1.544c0.991,-0.464 2.078,-0.688 3.172,-0.655c2.153,0 3.695,0.505 4.628,1.515c0.941,1.032 1.444,2.391 1.4,3.787l0,9.467c0.006,0.179 -0.062,0.353 -0.188,0.481c-0.125,0.126 -0.298,0.195 -0.476,0.189l-1.262,0c-0.174,0.007 -0.343,-0.062 -0.462,-0.189c-0.117,-0.132 -0.179,-0.304 -0.173,-0.481l0,-1.28c-0.47,0.681 -1.104,1.232 -1.845,1.6c-0.971,0.463 -2.04,0.683 -3.115,0.641c-0.904,0.01 -1.799,-0.19 -2.614,-0.582Zm6.3,-2.8c0.868,-1.006 1.304,-2.316 1.211,-3.641l0,-0.811l-3.373,0.5c-1.106,0.102 -2.178,0.44 -3.143,0.99c-0.642,0.35 -1.049,1.017 -1.067,1.748c-0.03,0.74 0.339,1.441 0.966,1.835c0.682,0.438 1.481,0.662 2.292,0.641c1.169,0.039 2.302,-0.42 3.114,-1.262Zm8.954,1.4c-1.056,-1.457 -1.626,-3.211 -1.63,-5.01l-0.028,-0.874l0.028,-0.874c0.008,-1.798 0.583,-3.548 1.644,-5c1.09,-1.365 2.783,-2.113 4.527,-2c1.814,-0.085 3.56,0.72 4.672,2.156l0,-6.718c-0.006,-0.179 0.062,-0.353 0.187,-0.481c0.126,-0.126 0.298,-0.195 0.476,-0.189l1.3,0c0.178,-0.006 0.35,0.063 0.475,0.189c0.126,0.128 0.194,0.302 0.188,0.481l0,19.343c0.006,0.179 -0.062,0.353 -0.188,0.481c-0.125,0.126 -0.297,0.195 -0.475,0.189l-1.24,0c-0.174,0.007 -0.343,-0.062 -0.462,-0.189c-0.117,-0.132 -0.179,-0.304 -0.173,-0.481l0,-1.253c-1.115,1.485 -2.903,2.317 -4.758,2.214c-1.746,0.122 -3.445,-0.621 -4.543,-1.984Zm8.117,-1.646c0.686,-0.936 1.07,-2.059 1.1,-3.219c0.019,-0.213 0.029,-0.582 0.029,-1.107c0,-0.543 -0.01,-0.922 -0.029,-1.136c-0.015,-1.12 -0.406,-2.202 -1.11,-3.073c-0.743,-0.884 -1.861,-1.367 -3.014,-1.3c-1.164,-0.098 -2.303,0.395 -3.028,1.311c-0.679,1.018 -1.041,2.215 -1.038,3.438l-0.029,0.845c0,3.729 1.365,5.593 4.095,5.593c1.168,0.08 2.303,-0.427 3.024,-1.349l0,-0.003Zm9.27,1.821c-1.188,-1.317 -1.842,-3.033 -1.831,-4.807l-0.028,-1.253l0.028,-1.253c-0.01,-1.779 0.655,-3.497 1.86,-4.806c2.779,-2.398 6.939,-2.398 9.718,0c1.205,1.309 1.87,3.028 1.86,4.807c0.041,0.429 0.061,0.848 0.061,1.256c0,0.408 -0.019,0.826 -0.058,1.253c0.011,1.774 -0.642,3.49 -1.831,4.807c-2.802,2.399 -6.977,2.399 -9.779,-0.001l0,-0.003Zm7.815,-1.559c0.782,-0.955 1.197,-2.16 1.168,-3.394c0.019,-0.194 0.029,-0.563 0.029,-1.107c0,-0.544 -0.01,-0.913 -0.029,-1.107c0.029,-1.234 -0.386,-2.439 -1.168,-3.394c-1.624,-1.563 -4.23,-1.563 -5.854,0c-0.782,0.955 -1.197,2.16 -1.168,3.394l-0.025,1.111l0.028,1.107c-0.029,1.234 0.386,2.439 1.168,3.394c1.624,1.561 4.227,1.561 5.851,-0.001l0,-0.003Z" style="fill:rgb(33,30,31);fill-rule:nonzero;"/>    </g></svg>