<?xml version="1.0" encoding="UTF-8" standalone="no"?><!DOCTYPE svg PUBLIC "-//W3C//DTD SVG 1.1//EN" "http://www.w3.org/Graphics/SVG/1.1/DTD/svg11.dtd"><svg width="100%" height="100%" viewBox="0 0 1024 512" version="1.1" xmlns="http://www.w3.org/2000/svg" xmlns:xlink="http://www.w3.org/1999/xlink" xml:space="preserve" style="fill-rule:evenodd;clip-rule:evenodd;stroke-linejoin:round;stroke-miterlimit:2;"><title>Savy</title><desc>SAVY is a virtual lending platform, implementing the peer-to-peer or marketplace lending model, which was developed in the UK in the middle of last decade.  It works like this: Internet users who are looking to invest money lend directly to other users who wish to borrow money.</desc>    <g transform="matrix(4.62174,0,0,4.62174,2,90.6248)">        <path d="M0,45.577c5.129,3.16 9.415,4.738 12.855,4.738c2.625,0 4.794,-0.641 6.504,-1.926c1.893,-1.428 2.84,-3.416 2.84,-5.967c0,-2.283 -0.946,-4.261 -2.833,-5.933c-1.239,-1.081 -3.208,-2.233 -5.909,-3.457l-3.055,-1.381c-6.61,-2.975 -9.913,-7.141 -9.913,-12.5c0,-3.504 1.294,-6.295 3.884,-8.373c2.384,-1.936 5.371,-2.904 8.959,-2.904c3.73,0 7.255,1 10.579,2.997l0,5.657c-3.73,-2.814 -7.339,-4.22 -10.825,-4.22c-2.181,0 -3.985,0.54 -5.412,1.62c-1.569,1.203 -2.354,2.855 -2.354,4.953c0,3.365 2.771,6.27 8.316,8.715l3.119,1.377c7.013,3.098 10.52,7.582 10.52,13.453c0,3.914 -1.407,7.053 -4.221,9.418c-2.65,2.201 -5.972,3.303 -9.968,3.303c-4.036,0 -8.255,-1.121 -12.659,-3.363l-0.427,-6.207Z" style="fill:rgb(171,173,176);fill-rule:nonzero;"/>        <path d="M137.397,55.391l-0.766,0l-19.14,-46.08l5.629,0l14.078,34.611l14.465,-34.611l5.211,0l-19.477,46.08Z" style="fill:rgb(171,173,176);fill-rule:nonzero;"/>        <path d="M197.211,53.649l0,-19.111l-17.091,-25.227l6.13,0l13.756,20.355l14.883,-20.355l5.807,0l-18.225,24.799l0,19.539l-5.26,0Z" style="fill:rgb(171,173,176);fill-rule:nonzero;"/>        <path d="M45.434,71l45.858,-32.23l-18.182,-38.206l-0.592,0.009l-27.689,70.01l0.605,0.417Z" style="fill:url(#_Linear1);"/>        <path d="M74.036,50.879l28.086,12.246l0.516,-0.546l-11.339,-23.832l-17.263,12.132Z" style="fill:url(#_Linear2);"/>    </g>    <defs>        <linearGradient id="_Linear1" x1="0" y1="0" x2="1" y2="0" gradientUnits="userSpaceOnUse" gradientTransform="matrix(-40.3831,62.1845,-62.1845,-40.3831,88.0239,10.2481)"><stop offset="0" style="stop-color:rgb(174,224,236);stop-opacity:1"/><stop offset="0.7" style="stop-color:rgb(0,153,180);stop-opacity:1"/><stop offset="1" style="stop-color:rgb(0,95,131);stop-opacity:1"/></linearGradient>        <linearGradient id="_Linear2" x1="0" y1="0" x2="1" y2="0" gradientUnits="userSpaceOnUse" gradientTransform="matrix(-11.6853,-23.9585,23.9585,-11.6853,93.6216,67.2715)"><stop offset="0" style="stop-color:rgb(218,225,59);stop-opacity:1"/><stop offset="1" style="stop-color:rgb(49,146,80);stop-opacity:1"/></linearGradient>    </defs></svg>