<?xml version="1.0" encoding="UTF-8" standalone="no"?><!DOCTYPE svg PUBLIC "-//W3C//DTD SVG 1.1//EN" "http://www.w3.org/Graphics/SVG/1.1/DTD/svg11.dtd"><svg width="100%" height="100%" viewBox="0 0 1024 512" version="1.1" xmlns="http://www.w3.org/2000/svg" xmlns:xlink="http://www.w3.org/1999/xlink" xml:space="preserve" style="fill-rule:evenodd;clip-rule:evenodd;stroke-linejoin:round;stroke-miterlimit:2;"><title>SeedMatch</title><desc>Seedmatch is the first platform for corporate crowdinvesting in Germany. Via Seedmatch, investors can start investing in dynamic startups and young companies online with seed investments and venture debts starting at EUR 250, or digitally subscribe for growth companies' equity bonds and achieve attractive returns. Each investor puts together their own individual portfolio - self-determined, digital and free of charge.</desc>    <g transform="matrix(7.44526,0,0,7.44526,2,136.875)">        <path d="M38.75,6c-4.302,0 -7.16,3.123 -8.131,6.998c-0.734,-5.687 -4.453,-6.998 -7.369,-6.998c-5.375,0 -8.5,4.875 -8.5,10c0,5.125 2.875,10 8.5,10c3.5,0 5.562,-1.181 6.687,-2.431l-1.187,-3.194c-1.42,1.525 -3.416,2.387 -5.5,2.375c-3.5,0 -4.875,-4 -4.875,-6l11.898,0c0.267,4.84 3.127,9.25 8.477,9.25c3.5,0 5.562,-1.181 6.687,-2.431l-1.187,-3.194c-1.42,1.525 -3.416,2.387 -5.5,2.375c-3.5,0 -4.875,-4 -4.875,-6l12.375,0l0,-1.625c0,-7.5 -4.25,-9.125 -7.5,-9.125Zm-20.125,7.5c0,-0.875 1.25,-4.25 4.625,-4.25c2.875,0 3.875,2.5 3.875,4.25l-8.5,0Zm15.5,0c0,-0.875 1.25,-4.25 4.625,-4.25c2.875,0 3.875,2.5 3.875,4.25l-8.5,0Z" style="fill:rgb(27,68,89);fill-rule:nonzero;"/>        <path d="M53.75,6.25l-6.5,0l0,19.5l6.5,0c6,0 8.5,-4.5 8.5,-8.75l0,-2c0,-4.25 -2.5,-8.75 -8.5,-8.75Zm5.25,10.75c0,2.5 -1.25,5.75 -5.25,5.75l-3.25,0l0,-13.5l3.25,0c4,0 5.25,3.25 5.25,5.75l0,2Z" style="fill:rgb(27,68,89);fill-rule:nonzero;"/>        <path d="M133.75,6.25l0,7.625l-8.5,0l0,-7.625l-3.25,0l0,19.5l3.25,0l0,-8.625l8.5,0l0,8.625l3.25,0l0,-19.5l-3.25,0Z" style="fill:rgb(27,68,89);fill-rule:nonzero;"/>        <path d="M113.5,6c-4.626,0 -7.5,2.97 -7.5,7.75l0,4.5c0,4.78 2.874,7.75 7.5,7.75c4.346,0 7.5,-2.523 7.5,-6l0,-0.75l-3.25,0l0,0.75c0,1.805 -2.138,2.75 -4.25,2.75c-2.86,0 -4.25,-1.472 -4.25,-4.5l0,-4.5c0,-3.028 1.39,-4.5 4.25,-4.5c2.112,0 4.25,0.945 4.25,2.75l0,0.75l3.25,0l0,-0.75c0,-3.477 -3.154,-6 -7.5,-6Z" style="fill:rgb(27,68,89);fill-rule:nonzero;"/>        <path d="M106.5,6.25l-12.25,0l0,3.25l5,0l0,16.25l3.25,0l0,-16.25l2.792,0l1.208,-3.25Z" style="fill:rgb(27,68,89);fill-rule:nonzero;"/>        <path d="M90.5,6.25l-3,0l-4.787,12.875l-0.088,0l0,0.237l-1.875,5.043l0,-18.155l-3.313,0l-5.437,14.625l-5.438,-14.625l-3.312,0l0,19.5l3.25,0l0,-9.893l3.687,9.893l3.625,0l3.688,-9.893l0,9.893l6.375,0l1.258,-3.375l7.734,0l1.258,3.375l3.625,0l-7.25,-19.5Zm-4.156,12.875l2.656,-7.125l2.656,7.125l-5.312,0Z" style="fill:rgb(27,68,89);fill-rule:nonzero;"/>        <path d="M7.69,14.153c-2.38,-0.922 -4.065,-1.653 -4.065,-2.653c0,-2.088 2.775,-2.25 3.625,-2.25c1.177,0 3.625,0 3.625,2.75l3.25,0c0,-3.757 -2.57,-6 -6.875,-6c-1.541,-0.036 -3.064,0.343 -4.408,1.097c-1.557,0.911 -2.503,2.599 -2.467,4.403c0,3.304 3.405,4.623 6.14,5.684c2.709,1.05 4.485,1.839 4.485,3.191c0,2.066 -2.271,2.375 -3.625,2.375c-1.101,0.071 -2.198,-0.189 -3.151,-0.745c-0.702,-0.524 -1.074,-1.385 -0.974,-2.255l-3.25,0c0,3.914 2.757,6.25 7.375,6.25c1.549,0.037 3.08,-0.351 4.424,-1.122c1.561,-0.954 2.497,-2.674 2.451,-4.503c0,-3.679 -3.637,-5.089 -6.56,-6.222Z" style="fill:rgb(27,68,89);fill-rule:nonzero;"/>    </g></svg>