<?xml version="1.0" encoding="UTF-8" standalone="no"?><!DOCTYPE svg PUBLIC "-//W3C//DTD SVG 1.1//EN" "http://www.w3.org/Graphics/SVG/1.1/DTD/svg11.dtd"><svg width="100%" height="100%" viewBox="0 0 1024 512" version="1.1" xmlns="http://www.w3.org/2000/svg" xmlns:xlink="http://www.w3.org/1999/xlink" xml:space="preserve" style="fill-rule:evenodd;clip-rule:evenodd;stroke-linejoin:round;stroke-miterlimit:2;"><title>Fakturabörsen</title><desc>The invoice exchange is Sweden's largest marketplace for invoice purchases. On the Invoice Exchange, small and medium-sized companies can sell their invoices to the highest bidder!</desc>    <g transform="matrix(1.01409,0,0,1.01409,-9.42511,-3.60751)">        <g transform="matrix(1.66476,0,0,1.66476,-136.7,95.6588)">            <g transform="matrix(1,0,0,1,76.6149,0)">                <path d="M106,101.027l70.085,-69.406l19.381,19.381l-89.466,89.466l-44.332,-44.332l19.721,-19.721l24.611,24.612Z" style="fill:rgb(165,206,55);"/>            </g>            <g transform="matrix(1,0,0,1,76.6149,0)">                <path d="M151.655,46.236l-19.721,19.721l-24.934,-24.935l-55.292,55.293l55.292,55.292l75.304,-75.722l19.43,20.43l-94.734,94.734l-94.734,-94.734l94.734,-94.734l44.655,44.655Z" style="fill:rgb(37,165,79);"/>            </g>        </g>        <g transform="matrix(3.28116,0,0,3.28116,346.604,-399.333)">            <g transform="matrix(20,0,0,20,6.1651,208.526)">                <path d="M0.091,-0.708l0.445,0l0,0.09l-0.349,0l0,0.222l0.325,0l0,0.09l-0.325,0l0,0.306l-0.096,0l0,-0.708Z" style="fill-rule:nonzero;"/>            </g>            <g transform="matrix(20,0,0,20,19.0451,208.526)">                <path d="M0.313,-0.708l0.087,0l0.303,0.708l-0.112,0l-0.071,-0.175l-0.337,0l-0.07,0.175l-0.112,0l0.312,-0.708Zm0.172,0.449l-0.132,-0.325l-0.002,0l-0.134,0.325l0.268,0Z" style="fill-rule:nonzero;"/>            </g>            <g transform="matrix(20,0,0,20,35.6251,208.526)">                <path d="M0.091,-0.708l0.096,0l0,0.306l0.008,0l0.313,-0.306l0.134,0l-0.342,0.327l0.365,0.381l-0.14,0l-0.33,-0.354l-0.008,0l0,0.354l-0.096,0l0,-0.708Z" style="fill-rule:nonzero;"/>            </g>            <g transform="matrix(20,0,0,20,51.0851,208.526)">                <path d="M0.239,-0.618l-0.228,0l0,-0.09l0.552,0l0,0.09l-0.228,0l0,0.618l-0.096,0l0,-0.618Z" style="fill-rule:nonzero;"/>            </g>            <g transform="matrix(20,0,0,20,65.0651,208.526)">                <path d="M0.174,-0.708l0,0.434c0,0.022 0.003,0.045 0.009,0.068c0.006,0.024 0.016,0.046 0.03,0.066c0.014,0.02 0.032,0.036 0.055,0.049c0.023,0.013 0.051,0.019 0.084,0.019c0.033,0 0.061,-0.006 0.084,-0.019c0.023,-0.013 0.041,-0.029 0.055,-0.049c0.014,-0.02 0.024,-0.042 0.03,-0.066c0.006,-0.023 0.009,-0.046 0.009,-0.068l0,-0.434l0.096,0l0,0.449c0,0.041 -0.007,0.079 -0.021,0.112c-0.014,0.034 -0.033,0.063 -0.058,0.088c-0.025,0.025 -0.054,0.044 -0.087,0.057c-0.033,0.013 -0.069,0.02 -0.108,0.02c-0.039,0 -0.075,-0.007 -0.108,-0.02c-0.033,-0.013 -0.062,-0.032 -0.087,-0.057c-0.025,-0.025 -0.044,-0.054 -0.058,-0.088c-0.014,-0.033 -0.021,-0.071 -0.021,-0.112l0,-0.449l0.096,0Z" style="fill-rule:nonzero;"/>            </g>            <g transform="matrix(20,0,0,20,81.6451,208.526)">                <path d="M0.091,-0.708l0.249,0c0.045,0 0.083,0.006 0.112,0.018c0.029,0.013 0.053,0.028 0.07,0.047c0.016,0.019 0.028,0.041 0.035,0.064c0.007,0.024 0.01,0.047 0.01,0.069c0,0.023 -0.004,0.044 -0.012,0.066c-0.008,0.02 -0.02,0.039 -0.035,0.056c-0.015,0.018 -0.033,0.032 -0.054,0.043c-0.022,0.012 -0.046,0.019 -0.073,0.022l0.201,0.323l-0.12,0l-0.18,-0.312l-0.107,0l0,0.312l-0.096,0l0,-0.708Zm0.096,0.312l0.126,0c0.019,0 0.037,-0.002 0.055,-0.005c0.019,-0.003 0.035,-0.008 0.049,-0.016c0.015,-0.008 0.026,-0.019 0.035,-0.035c0.009,-0.015 0.013,-0.034 0.013,-0.058c0,-0.024 -0.004,-0.043 -0.013,-0.058c-0.009,-0.015 -0.02,-0.027 -0.035,-0.035c-0.014,-0.008 -0.03,-0.013 -0.049,-0.016c-0.018,-0.003 -0.036,-0.005 -0.055,-0.005l-0.126,0l0,0.228Z" style="fill-rule:nonzero;"/>            </g>            <g transform="matrix(20,0,0,20,96.3651,208.526)">                <path d="M0.313,-0.708l0.087,0l0.303,0.708l-0.112,0l-0.071,-0.175l-0.337,0l-0.07,0.175l-0.112,0l0.312,-0.708Zm0.172,0.449l-0.132,-0.325l-0.002,0l-0.134,0.325l0.268,0Z" style="fill-rule:nonzero;"/>            </g>            <g transform="matrix(20,0,0,20,112.945,208.526)">                <path d="M0.091,-0.708l0.246,0c0.031,0 0.059,0.004 0.086,0.011c0.026,0.007 0.049,0.018 0.068,0.032c0.018,0.015 0.034,0.033 0.044,0.055c0.011,0.023 0.017,0.049 0.017,0.079c0,0.041 -0.011,0.074 -0.034,0.099c-0.023,0.026 -0.052,0.045 -0.088,0.057l0,0.002c0.021,0.001 0.041,0.007 0.06,0.016c0.019,0.01 0.035,0.023 0.048,0.038c0.014,0.016 0.025,0.034 0.033,0.055c0.008,0.021 0.012,0.043 0.012,0.067c0,0.032 -0.007,0.06 -0.02,0.084c-0.013,0.025 -0.03,0.045 -0.053,0.062c-0.023,0.017 -0.049,0.029 -0.079,0.038c-0.03,0.009 -0.062,0.013 -0.097,0.013l-0.243,0l0,-0.708Zm0.096,0.294l0.131,0c0.018,0 0.035,-0.002 0.051,-0.006c0.016,-0.003 0.03,-0.009 0.042,-0.018c0.012,-0.009 0.022,-0.02 0.029,-0.033c0.007,-0.013 0.01,-0.03 0.01,-0.049c0,-0.028 -0.009,-0.052 -0.027,-0.073c-0.018,-0.021 -0.046,-0.031 -0.085,-0.031l-0.151,0l0,0.21Zm0,0.33l0.141,0c0.015,0 0.031,-0.001 0.049,-0.004c0.017,-0.003 0.034,-0.009 0.049,-0.018c0.015,-0.009 0.028,-0.022 0.039,-0.037c0.011,-0.015 0.016,-0.036 0.016,-0.061c0,-0.042 -0.014,-0.074 -0.041,-0.094c-0.027,-0.021 -0.064,-0.032 -0.111,-0.032l-0.142,0l0,0.246Z" style="fill-rule:nonzero;"/>            </g>            <g transform="matrix(20,0,0,20,128.045,208.526)">                <path d="M0.416,0.018c-0.054,0 -0.104,-0.01 -0.149,-0.029c-0.045,-0.019 -0.084,-0.045 -0.117,-0.078c-0.032,-0.033 -0.057,-0.073 -0.076,-0.118c-0.018,-0.045 -0.027,-0.094 -0.027,-0.147c0,-0.053 0.009,-0.102 0.027,-0.147c0.019,-0.045 0.044,-0.085 0.076,-0.118c0.033,-0.033 0.072,-0.059 0.117,-0.079c0.045,-0.018 0.095,-0.028 0.149,-0.028c0.054,0 0.104,0.01 0.149,0.028c0.045,0.019 0.084,0.046 0.116,0.079c0.033,0.033 0.058,0.073 0.077,0.118c0.018,0.045 0.027,0.094 0.027,0.147c0,0.053 -0.009,0.102 -0.027,0.147c-0.019,0.045 -0.044,0.085 -0.077,0.118c-0.032,0.033 -0.071,0.059 -0.116,0.078c-0.045,0.019 -0.095,0.029 -0.149,0.029Zm0,-0.09c0.041,0 0.077,-0.008 0.11,-0.023c0.033,-0.015 0.061,-0.035 0.084,-0.06c0.023,-0.025 0.041,-0.055 0.054,-0.09c0.013,-0.034 0.019,-0.07 0.019,-0.109c0,-0.039 -0.006,-0.075 -0.019,-0.11c-0.013,-0.034 -0.031,-0.064 -0.054,-0.089c-0.023,-0.025 -0.051,-0.046 -0.084,-0.061c-0.033,-0.015 -0.069,-0.022 -0.11,-0.022c-0.041,0 -0.077,0.007 -0.11,0.022c-0.033,0.015 -0.061,0.036 -0.084,0.061c-0.023,0.025 -0.041,0.055 -0.054,0.089c-0.013,0.035 -0.019,0.071 -0.019,0.11c0,0.039 0.006,0.075 0.019,0.109c0.013,0.035 0.031,0.065 0.054,0.09c0.023,0.025 0.051,0.046 0.084,0.061c0.033,0.014 0.069,0.022 0.11,0.022Zm-0.102,-0.826c0.015,0 0.029,0.005 0.042,0.016c0.013,0.011 0.02,0.024 0.02,0.041c0,0.018 -0.006,0.033 -0.018,0.045c-0.011,0.012 -0.026,0.018 -0.044,0.018c-0.018,0 -0.033,-0.006 -0.045,-0.018c-0.011,-0.012 -0.017,-0.027 -0.017,-0.045c0,-0.017 0.006,-0.03 0.019,-0.041c0.013,-0.011 0.028,-0.016 0.043,-0.016Zm0.204,0c0.015,0 0.029,0.005 0.042,0.016c0.013,0.011 0.02,0.024 0.02,0.041c0,0.018 -0.006,0.033 -0.018,0.045c-0.011,0.012 -0.026,0.018 -0.044,0.018c-0.018,0 -0.033,-0.006 -0.044,-0.018c-0.012,-0.012 -0.018,-0.027 -0.018,-0.045c0,-0.017 0.007,-0.03 0.02,-0.041c0.012,-0.011 0.027,-0.016 0.042,-0.016Z" style="fill-rule:nonzero;"/>            </g>            <g transform="matrix(20,0,0,20,147.185,208.526)">                <path d="M0.091,-0.708l0.249,0c0.045,0 0.083,0.006 0.112,0.018c0.029,0.013 0.053,0.028 0.07,0.047c0.016,0.019 0.028,0.041 0.035,0.064c0.007,0.024 0.01,0.047 0.01,0.069c0,0.023 -0.004,0.044 -0.012,0.066c-0.008,0.02 -0.02,0.039 -0.035,0.056c-0.015,0.018 -0.033,0.032 -0.054,0.043c-0.022,0.012 -0.046,0.019 -0.073,0.022l0.201,0.323l-0.12,0l-0.18,-0.312l-0.107,0l0,0.312l-0.096,0l0,-0.708Zm0.096,0.312l0.126,0c0.019,0 0.037,-0.002 0.055,-0.005c0.019,-0.003 0.035,-0.008 0.049,-0.016c0.015,-0.008 0.026,-0.019 0.035,-0.035c0.009,-0.015 0.013,-0.034 0.013,-0.058c0,-0.024 -0.004,-0.043 -0.013,-0.058c-0.009,-0.015 -0.02,-0.027 -0.035,-0.035c-0.014,-0.008 -0.03,-0.013 -0.049,-0.016c-0.018,-0.003 -0.036,-0.005 -0.055,-0.005l-0.126,0l0,0.228Z" style="fill-rule:nonzero;"/>            </g>            <g transform="matrix(20,0,0,20,161.905,208.526)">                <path d="M0.112,-0.148c0.017,0.026 0.039,0.045 0.066,0.057c0.028,0.013 0.055,0.019 0.084,0.019c0.016,0 0.032,-0.003 0.049,-0.008c0.017,-0.005 0.032,-0.012 0.045,-0.022c0.014,-0.01 0.025,-0.022 0.034,-0.037c0.009,-0.015 0.013,-0.032 0.013,-0.051c0,-0.027 -0.009,-0.048 -0.026,-0.063c-0.017,-0.014 -0.039,-0.026 -0.065,-0.035c-0.025,-0.01 -0.053,-0.019 -0.083,-0.028c-0.031,-0.009 -0.059,-0.022 -0.084,-0.038c-0.026,-0.016 -0.048,-0.037 -0.065,-0.064c-0.017,-0.027 -0.026,-0.064 -0.026,-0.11c0,-0.021 0.005,-0.043 0.014,-0.066c0.009,-0.023 0.023,-0.045 0.042,-0.064c0.019,-0.019 0.044,-0.035 0.075,-0.048c0.03,-0.013 0.066,-0.02 0.109,-0.02c0.039,0 0.076,0.005 0.111,0.016c0.035,0.011 0.066,0.032 0.093,0.065l-0.078,0.071c-0.012,-0.019 -0.029,-0.034 -0.051,-0.045c-0.022,-0.011 -0.047,-0.017 -0.075,-0.017c-0.027,0 -0.049,0.004 -0.066,0.011c-0.018,0.007 -0.032,0.016 -0.043,0.027c-0.011,0.011 -0.018,0.022 -0.022,0.035c-0.005,0.013 -0.007,0.024 -0.007,0.035c0,0.03 0.009,0.053 0.026,0.069c0.017,0.016 0.039,0.029 0.065,0.039c0.025,0.01 0.053,0.019 0.084,0.027c0.03,0.008 0.058,0.019 0.084,0.034c0.025,0.014 0.047,0.033 0.064,0.058c0.017,0.024 0.026,0.057 0.026,0.1c0,0.034 -0.006,0.065 -0.019,0.092c-0.013,0.027 -0.031,0.05 -0.053,0.069c-0.022,0.019 -0.048,0.033 -0.078,0.043c-0.03,0.01 -0.062,0.015 -0.096,0.015c-0.045,0 -0.088,-0.008 -0.129,-0.024c-0.041,-0.016 -0.073,-0.041 -0.097,-0.074l0.079,-0.068Z" style="fill-rule:nonzero;"/>            </g>            <g transform="matrix(20,0,0,20,175.525,208.526)">                <path d="M0.091,-0.708l0.457,0l0,0.09l-0.361,0l0,0.211l0.336,0l0,0.09l-0.336,0l0,0.227l0.379,0l0,0.09l-0.475,0l0,-0.708Z" style="fill-rule:nonzero;"/>            </g>            <g transform="matrix(20,0,0,20,190.245,208.526)">                <path d="M0.091,-0.708l0.126,0l0.39,0.582l0.002,0l0,-0.582l0.096,0l0,0.708l-0.122,0l-0.394,-0.582l-0.002,0l0,0.582l-0.096,0l0,-0.708Z" style="fill-rule:nonzero;"/>            </g>        </g>    </g></svg>