<?xml version="1.0" encoding="UTF-8" standalone="no"?><!DOCTYPE svg PUBLIC "-//W3C//DTD SVG 1.1//EN" "http://www.w3.org/Graphics/SVG/1.1/DTD/svg11.dtd"><svg width="100%" height="100%" viewBox="0 0 1024 512" version="1.1" xmlns="http://www.w3.org/2000/svg" xmlns:xlink="http://www.w3.org/1999/xlink" xml:space="preserve" style="fill-rule:evenodd;clip-rule:evenodd;stroke-linejoin:round;stroke-miterlimit:2;"><title>Bolero Crowdfunding</title><desc>Bolero-crowdfunding.be is the crowdfunding platform of Bolero, KBC's online trading platform for investors who want to invest on their own. The Bolero Crowdfunding platform allows entrepreneurs looking for financing and investors to meet.On Bolero Crowdfunding, you can invest in bonds and subordinated bonds of small and medium-sized companies.</desc>    <g transform="matrix(1.65751,0,0,1.65751,-496.277,83.6192)">        <g id="Fill-1---Fill-2" transform="matrix(12.5588,0,0,12.5588,29.943,0.997488)">            <g id="Fill-1" transform="matrix(0.180392,0,0,0.180392,21.5526,4.5388)">                <path d="M22.982,39.786c0.825,-0.331 1.649,-0.693 2.473,-1.024l1.557,-0.904c3.48,-2.05 5.71,-4.973 6.442,-8.981c0.794,-4.28 1.648,-8.56 2.473,-12.809c0.122,-0.621 0.09,-1.262 -0.092,-1.868c-0.366,-1.236 -1.71,-2.14 -3.022,-1.93c-1.313,0.212 -2.198,0.995 -2.534,2.261c-0.458,1.688 -0.855,3.406 -1.252,5.123c-0.03,0.121 -0.061,0.272 -0.091,0.392l-0.092,0c-0.064,-0.125 -0.115,-0.256 -0.153,-0.392c-2.476,-5.781 -4.938,-11.567 -7.388,-17.359c-0.06,-0.18 -0.152,-0.331 -0.244,-0.512c-0.672,-1.356 -2.442,-1.748 -3.633,-0.814c-0.885,0.724 -1.13,1.778 -0.672,2.924c1.466,3.496 2.962,6.991 4.458,10.487c0.06,0.181 0.152,0.362 0.152,0.543c0.039,0.36 -0.198,0.698 -0.55,0.783c-0.366,0.121 -0.67,0 -0.885,-0.3c-0.091,-0.104 -0.154,-0.229 -0.183,-0.363c-1.862,-4.46 -3.785,-8.95 -5.678,-13.44c-0.336,-0.784 -0.916,-1.357 -1.771,-1.538c-0.366,-0.09 -0.702,-0.06 -1.069,-0.06c-0.244,0.09 -0.488,0.21 -0.763,0.301c-0.03,0.03 -0.06,0.09 -0.091,0.12c-1.008,0.845 -1.252,1.87 -0.733,3.045c1.893,4.46 3.786,8.95 5.709,13.41c0.061,0.121 0.092,0.212 0.122,0.332c0.1,0.372 -0.099,0.764 -0.458,0.904c-0.366,0.151 -0.794,0.03 -0.977,-0.331c-0.06,-0.12 -0.122,-0.271 -0.183,-0.392c-1.618,-3.797 -3.236,-7.624 -4.854,-11.422c-0.153,-0.331 -0.275,-0.663 -0.489,-0.964c-0.519,-0.874 -1.343,-1.236 -2.35,-1.115c-0.977,0.12 -1.649,0.663 -1.954,1.597c-0.275,0.783 -0.03,1.477 0.275,2.2c1.862,4.37 3.694,8.74 5.525,13.08c0.061,0.12 0.122,0.27 0.153,0.421c0.091,0.355 -0.091,0.727 -0.427,0.874c-0.336,0.151 -0.672,0.09 -0.916,-0.18c-0.114,-0.147 -0.207,-0.31 -0.275,-0.483c-1.282,-2.983 -2.534,-5.967 -3.816,-8.98c-0.244,-0.573 -0.58,-1.055 -1.13,-1.387c-0.902,-0.511 -2.036,-0.389 -2.809,0.302c-0.793,0.693 -1.007,1.747 -0.55,2.802c2.749,6.48 5.466,12.93 8.244,19.379c0.336,0.813 0.794,1.627 1.282,2.38c2.412,3.738 6.655,5.425 11.052,4.43c0.702,-0.18 1.435,-0.36 2.167,-0.542" style="fill:rgb(1,31,74);"/>            </g>            <g id="Fill-2" transform="matrix(0.180392,0,0,0.180392,21.5526,4.5388)">                <path d="M27.235,26.111c-0.184,-0.753 -0.708,-1.235 -1.446,-1.476c-4.063,-1.506 -8.156,-2.983 -12.218,-4.46c-0.11,-0.031 -0.214,-0.082 -0.307,-0.15c-0.278,-0.18 -0.4,-0.422 -0.308,-0.753c0.092,-0.332 0.37,-0.512 0.677,-0.482c0.154,0 0.338,0.06 0.492,0.12c3.17,1.145 6.34,2.32 9.479,3.465c1.046,0.392 2,0.121 2.585,-0.663c0.8,-1.054 0.4,-2.56 -0.831,-3.103l-0.462,-0.18c-3.491,-1.29 -7.012,-2.58 -10.504,-3.869c0.353,0.817 0.702,1.637 1.056,2.452c0.062,0.12 0.093,0.21 0.124,0.332c0.1,0.373 -0.101,0.766 -0.462,0.903c-0.105,0.042 -0.217,0.063 -0.33,0.061c-0.295,0.026 -0.579,-0.129 -0.716,-0.392c-0.062,-0.12 -0.123,-0.271 -0.185,-0.392c-0.523,-1.235 -1.077,-2.5 -1.6,-3.736c-1.016,-0.361 -2.062,-0.753 -3.078,-1.115c-0.123,-0.03 -0.246,-0.09 -0.338,-0.12l0,-0.09l0.37,-0.09c0.738,-0.212 1.476,-0.393 2.184,-0.604c-0.677,-1.597 -1.385,-3.224 -2.062,-4.82c-1.57,0.391 -3.17,0.753 -4.77,1.084c1.847,4.279 3.662,8.557 5.509,12.866c0.061,0.12 0.123,0.271 0.154,0.422c0.09,0.356 -0.094,0.728 -0.431,0.873c-0.121,0.056 -0.254,0.084 -0.387,0.08c-0.218,0 -0.425,-0.095 -0.567,-0.26c-0.115,-0.146 -0.208,-0.309 -0.277,-0.482c-1.293,-2.983 -2.554,-5.966 -3.847,-8.979c-0.246,-0.573 -0.585,-1.055 -1.138,-1.386c-0.333,-0.186 -0.704,-0.293 -1.085,-0.312c-0.629,-0.021 -1.243,0.198 -1.716,0.613c-0.523,0.452 -0.8,1.055 -0.8,1.687l0,0.03c0,0.332 0.092,0.694 0.246,1.055c2.77,6.478 5.509,12.926 8.309,19.374c0.154,0.392 0.339,0.753 0.554,1.115c2,0.723 4.031,1.476 6.032,2.2c0.954,0.36 1.877,0.12 2.462,-0.573c0.582,-0.677 0.645,-1.665 0.154,-2.41c-0.308,-0.483 -0.739,-0.754 -1.262,-0.935l-8.125,-2.981c-0.152,-0.052 -0.296,-0.123 -0.43,-0.212c-0.277,-0.21 -0.308,-0.481 -0.185,-0.783c0.123,-0.301 0.43,-0.452 0.77,-0.391c0.122,0.03 0.246,0.06 0.369,0.12l11.817,4.339c0.646,0.24 1.292,0.421 1.97,0.15c0.8,-0.301 1.261,-0.903 1.353,-1.747c0.093,-0.874 -0.276,-1.537 -1.077,-1.989c-0.284,-0.151 -0.583,-0.272 -0.892,-0.361c-3.463,-1.237 -6.92,-2.493 -10.37,-3.766c-0.124,-0.03 -0.247,-0.091 -0.37,-0.151c-0.312,-0.151 -0.459,-0.519 -0.339,-0.844c0.115,-0.326 0.466,-0.512 0.8,-0.422c0.093,0.03 0.216,0.06 0.308,0.09c4.062,1.477 8.094,2.983 12.156,4.46c1.077,0.392 2.27,-0.017 2.708,-0.753c0.492,-0.826 0.339,-1.356 0.277,-1.658l0,-0.001Zm-13.493,-14.974c1.108,-0.332 1.785,-1.115 1.939,-2.26c0.154,-1.115 -0.708,-2.26 -1.816,-2.531c-0.273,-0.06 -0.551,-0.09 -0.83,-0.09c-0.34,-0.03 -0.586,0.03 -0.862,0.09c-0.4,0.09 -0.831,0.18 -1.231,0.271c0.572,1.349 1.143,2.679 1.715,4.021c0.106,0.247 0.213,0.492 0.318,0.74c0.246,-0.061 0.522,-0.151 0.767,-0.241Z" style="fill:url(#_Linear1);"/>            </g>        </g>        <g id="Imported-Layers-Copy-2" transform="matrix(1,0,0,1,329,209.247)">            <g id="Fill-11" transform="matrix(1.09825,0,0,1.09825,84,-119.554)">                <path d="M41.18,10.686c-7.527,0 -12.388,5.251 -12.388,13.371c0,8.107 4.861,13.345 12.388,13.345c7.526,0 12.387,-5.238 12.387,-13.345c0,-8.12 -4.86,-13.37 -12.387,-13.37m6.417,13.37c0,3.812 -1.69,7.88 -6.426,7.885c-4.722,0 -6.404,-4.069 -6.404,-7.885c0,-3.82 1.682,-7.902 6.404,-7.902c3.905,0 6.426,3.101 6.426,7.902" style="fill:rgb(1,31,74);"/>            </g>            <g id="Fill-21" transform="matrix(1.09825,0,0,1.09825,84,-119.554)">                <path d="M124.879,10.686c-7.527,0 -12.388,5.251 -12.388,13.371c0,8.107 4.861,13.345 12.388,13.345c7.526,0 12.387,-5.238 12.387,-13.345c0,-8.12 -4.861,-13.37 -12.387,-13.37m6.413,13.37c0,3.812 -1.687,7.88 -6.426,7.885c-4.722,0 -6.405,-4.069 -6.405,-7.885c0,-3.82 1.683,-7.902 6.405,-7.902c3.904,0 6.426,3.101 6.426,7.902" style="fill:rgb(1,31,74);"/>            </g>            <g id="Fill-3" transform="matrix(1.09825,0,0,1.09825,84,-119.554)">                <path d="M65.842,32.443c-1.685,-0.111 -2.372,-0.821 -2.372,-2.452l0,-29.991l-5.885,0l0,30.59c0,3.937 2.094,6.119 5.902,6.144l2.802,0l0,-4.261l-0.447,-0.03" style="fill:rgb(1,31,74);"/>            </g>            <g id="Fill-4" transform="matrix(1.09825,0,0,1.09825,84,-119.554)">                <path d="M90.136,31.467l-0.497,0.16c-2.505,0.824 -4.764,1.21 -7.105,1.21c-3.939,0 -6.729,-2.199 -7.39,-5.78c3.075,-0.3 8.237,-0.89 11.873,-2.899c2.492,-1.379 3.922,-3.685 3.922,-6.334c0,-0.662 -0.09,-1.327 -0.272,-1.98c-0.894,-3.23 -4.28,-5.158 -9.066,-5.158c-7.675,0 -12.633,5.24 -12.633,13.352c0,8.12 4.824,13.364 12.283,13.364c3.68,0 6.95,-0.7 9.472,-2.027l0.341,-0.185l-0.928,-3.723Zm-6.79,-10.22c-2.358,1.313 -6.06,1.657 -8.353,1.859c-0.009,-0.186 -0.013,-0.372 -0.013,-0.558c0,-4.621 2.41,-7.606 6.146,-7.606c3.054,0 3.905,1.443 4.138,2.298c0.078,0.283 0.116,0.575 0.116,0.863c0,1.28 -0.738,2.426 -2.034,3.143l0,0.001Z" style="fill:rgb(1,31,74);"/>            </g>            <g id="Fill-5" transform="matrix(1.09825,0,0,1.09825,84,-119.554)">                <path d="M20.598,16.904c2.601,-2.04 3.922,-4.571 3.922,-7.532c0,-5.782 -4.313,-9.372 -11.26,-9.372l-13.26,0l0,36.734l13.144,0c9.573,0 12.97,-5.82 12.97,-10.794c0,-3.947 -2.046,-7.27 -5.516,-9.036m-14.313,-11.654l6.802,0c3.284,0 5.326,1.797 5.326,4.69c0,2.557 -0.908,4.218 -2.94,5.374l-2.56,0l-0.008,5.195l0.49,0c4.058,0 6.382,1.959 6.382,5.37c0,3.51 -2.563,5.603 -6.859,5.603l-6.633,0l0,-26.231" style="fill:rgb(1,31,74);"/>            </g>            <g id="Fill-6" transform="matrix(1.09825,0,0,1.09825,84,-119.554)">                <path d="M110.665,10.695c-1.763,0.025 -2.553,0.132 -3.394,0.323c-2.728,0.59 -4.505,1.934 -5.64,3.248c-0.128,-1.926 -1.315,-3.023 -3.305,-3.023l-2.575,0l0,25.491l5.893,0l0,-15.947c0.777,-2.287 3.18,-4.57 6.848,-4.57c0.568,0 1.264,0.047 2.126,0.14l0.534,0.06l0,-5.73l-0.487,0.008" style="fill:rgb(1,31,74);"/>            </g>            <g id="Fill-7" transform="matrix(1.09825,0,0,1.09825,84,-119.554)">                <path d="M397.402,0c-1.83,0 -3.013,1.31 -3.013,3.344c0,2.024 1.184,3.335 3.013,3.335c1.83,0 3.013,-1.31 3.013,-3.335c0,-2.033 -1.184,-3.344 -3.013,-3.344" style="fill:rgb(1,31,74);"/>            </g>            <g id="Fill-8" transform="matrix(1.09825,0,0,1.09825,84,-119.554)">                <path d="M170.238,27.617c-0.039,0.038 -4.006,4.183 -10.059,4.183c-6.853,0 -12.018,-5.45 -12.018,-12.667c0,-7.094 5.036,-12.242 11.967,-12.242c5.557,0 9.382,3.465 9.42,3.499l0.552,0.514l3.067,-4.57l-0.349,-0.36c-0.176,-0.192 -4.488,-4.638 -12.884,-4.638c-10.248,0 -17.98,7.672 -17.98,17.844c0,4.986 1.796,9.58 5.057,12.93c3.32,3.413 7.943,5.292 13.022,5.292c8.745,0 13.522,-5.33 13.72,-5.56l0.34,-0.382l-3.33,-4.4l-0.525,0.557" style="fill:rgb(1,31,74);"/>            </g>            <g id="Fill-9" transform="matrix(1.09825,0,0,1.09825,84,-119.554)">                <path d="M248.91,29.176c-0.021,0.074 -0.043,0.144 -0.06,0.218l-0.065,-0.218l-5.415,-17.774l-5.256,0l-5.463,17.774c-0.022,0.074 -0.044,0.144 -0.065,0.218c-0.018,-0.071 -0.038,-0.141 -0.06,-0.21l-5.218,-17.83l-6.343,0l8.298,26.048l6.162,0l5.178,-16.356c0.04,-0.127 0.078,-0.253 0.113,-0.38c0.039,0.127 0.077,0.258 0.116,0.389l5.226,16.347l6.11,0l8.303,-26.048l-6.292,0l-5.269,17.822" style="fill:rgb(1,31,74);"/>            </g>            <g id="Fill-10" transform="matrix(1.09825,0,0,1.09825,84,-119.554)">                <path d="M274.247,32.108c-3.78,0 -6.32,-3.227 -6.32,-8.03c0,-4.803 2.597,-8.03 6.468,-8.03c4.34,0 6.32,4.137 6.32,7.983c0,3.906 -1.698,8.077 -6.468,8.077m6.321,-18.763c-1.203,-1.182 -3.38,-2.591 -6.955,-2.591c-3.375,0 -6.395,1.306 -8.51,3.671c-2.155,2.408 -3.293,5.747 -3.293,9.653c0,7.966 4.626,13.324 11.512,13.324c3.914,0 6.243,-1.733 7.49,-3.133l0,2.557l5.773,0l0,-36.826l-6.017,0l0,13.345" style="fill:rgb(1,31,74);"/>            </g>            <g id="Fill-111" transform="matrix(1.09825,0,0,1.09825,84,-119.554)">                <path d="M376.025,32.108c-3.784,0 -6.32,-3.227 -6.32,-8.03c0,-4.803 2.597,-8.03 6.463,-8.03c4.345,0 6.321,4.137 6.321,7.983c0,3.906 -1.698,8.077 -6.464,8.077m6.32,-18.763c-1.202,-1.182 -3.383,-2.591 -6.954,-2.591c-3.376,0 -6.4,1.306 -8.51,3.671c-2.155,2.408 -3.293,5.747 -3.293,9.653c0,7.966 4.626,13.324 11.512,13.324c3.914,0 6.242,-1.733 7.49,-3.133l0,2.557l5.773,0l0,-36.826l-6.017,0l0,13.345" style="fill:rgb(1,31,74);"/>            </g>            <g id="Fill-12" transform="matrix(1.09825,0,0,1.09825,84,-119.554)">                <rect x="394.389" y="11.354" width="6.026" height="26.048" style="fill:rgb(1,31,74);"/>            </g>            <g id="Fill-13" transform="matrix(1.09825,0,0,1.09825,84,-119.554)">                <path d="M452.147,23.464c0,5.025 -2.01,7.68 -5.815,7.68c-3.913,0 -6.438,-3.072 -6.438,-7.825c0,-4.671 2.186,-7.348 6.004,-7.348c4.264,0 6.249,2.379 6.249,7.493m0.098,-12.202l0,1.892c-1.176,-1.12 -3.367,-2.468 -7.069,-2.468c-6.746,0 -11.281,5.115 -11.281,12.727c0,3.614 1.082,6.883 3.045,9.215c2.095,2.489 5.024,3.802 8.477,3.802c2.834,0 5.025,-0.844 6.635,-2.566l0,1.453c0,5.354 -4.428,6.155 -7.069,6.155c-3.444,0 -6.36,-1.535 -6.39,-1.552l-0.618,-0.332l-2.045,4.82l0.529,0.269c2.606,1.321 5.75,2.076 8.623,2.076c3.466,0 6.605,-0.942 8.842,-2.66c2.667,-2.042 4.076,-5.161 4.076,-9.014l0,-23.817l-5.755,0" style="fill:rgb(1,31,74);"/>            </g>            <g id="Fill-14" transform="matrix(1.09825,0,0,1.09825,84,-119.554)">                <path d="M207.236,10.686c-7.523,0 -12.385,5.248 -12.385,13.367c0,8.11 4.862,13.35 12.385,13.35c7.528,0 12.39,-5.24 12.39,-13.35c0,-8.119 -4.862,-13.367 -12.39,-13.367m6.415,13.371c0,3.813 -1.688,7.883 -6.428,7.883c-4.718,0 -6.401,-4.07 -6.401,-7.883c0,-3.821 1.683,-7.904 6.401,-7.904c3.905,0 6.428,3.102 6.428,7.904" style="fill:rgb(1,31,74);"/>            </g>            <g id="Fill-15" transform="matrix(1.09825,0,0,1.09825,84,-119.554)">                <path d="M192.355,10.69c-1.759,0.03 -2.553,0.137 -3.394,0.324c-2.724,0.595 -4.5,1.935 -5.636,3.249c-0.132,-1.927 -1.32,-3.02 -3.309,-3.02l-2.57,0l-0.004,25.491l5.892,0l0,-15.947c0.777,-2.288 3.18,-4.568 6.848,-4.568c0.568,0 1.264,0.043 2.126,0.136l0.534,0.06l0,-5.729l-0.487,0.005" style="fill:rgb(1,31,74);"/>            </g>            <g id="Fill-16" transform="matrix(1.09825,0,0,1.09825,84,-119.554)">                <path d="M351.867,10.686c-1.583,0 -2.575,0.136 -3.43,0.324c-2.751,0.595 -4.546,1.935 -5.693,3.25c-0.13,-1.928 -1.329,-3.02 -3.339,-3.02l-2.6,0l0,25.494l5.948,0l0,-15.95c0.785,-2.288 3.213,-4.568 6.918,-4.568c0.186,0 0.384,0.004 0.6,0.013l0.259,0.008c2.635,0.11 3.735,1.497 3.735,5.453l0,15.036l5.975,0l0,-16.087c0,-6.116 -2.54,-9.953 -8.373,-9.953" style="fill:rgb(1,31,74);"/>            </g>            <g id="Fill-17" transform="matrix(1.09825,0,0,1.09825,84,-119.554)">                <path d="M421.505,10.686c-1.584,0 -2.576,0.136 -3.43,0.324c-2.752,0.595 -4.546,1.935 -5.694,3.25c-0.13,-1.928 -1.328,-3.02 -3.338,-3.02l-2.601,0l0,25.494l5.952,0l0,-15.95c0.781,-2.288 3.21,-4.568 6.915,-4.568c0.185,0 0.384,0.004 0.6,0.013l0.258,0.008c2.636,0.11 3.736,1.497 3.736,5.453l0,15.036l5.974,0l0,-16.087c0,-6.116 -2.54,-9.953 -8.372,-9.953" style="fill:rgb(1,31,74);"/>            </g>            <g id="Fill-18" transform="matrix(1.09825,0,0,1.09825,84,-119.554)">                <path d="M316.387,37.402c1.579,0 2.575,-0.136 3.429,-0.323c2.751,-0.596 4.545,-1.935 5.693,-3.25c0.129,1.927 1.328,3.02 3.338,3.02l2.6,0l0,-25.495l-5.951,0l0,15.95c-0.785,2.289 -3.213,4.573 -6.914,4.573c-0.185,0 -0.388,-0.009 -0.6,-0.017l-0.258,-0.009c-2.635,-0.11 -3.735,-1.497 -3.735,-5.452l0,-15.036l-5.977,0l0,16.086c0,6.117 2.544,9.953 8.375,9.953" style="fill:rgb(1,31,74);"/>            </g>            <g id="Fill-19" transform="matrix(1.09825,0,0,1.09825,84,-119.554)">                <path d="M301.855,4.645l4.148,-0.03l0,-4.615l-6.782,0c-4.262,0.03 -6.61,2.391 -6.61,6.647l0,30.087l6.597,0l0,-15.723l5.365,0l0,-5.274l-5.365,0l0,-8.44c0,-1.762 0.768,-2.532 2.647,-2.652" style="fill:rgb(1,31,74);"/>            </g>        </g>    </g>    <defs>        <linearGradient id="_Linear1" x1="0" y1="0" x2="1" y2="0" gradientUnits="userSpaceOnUse" gradientTransform="matrix(1.88885e-15,30.8472,-30.8472,1.88885e-15,13.6485,6.24802)"><stop offset="0" style="stop-color:rgb(27,200,161);stop-opacity:1"/><stop offset="1" style="stop-color:rgb(5,178,224);stop-opacity:1"/></linearGradient>    </defs></svg>