<?xml version="1.0" encoding="UTF-8" standalone="no"?><!DOCTYPE svg PUBLIC "-//W3C//DTD SVG 1.1//EN" "http://www.w3.org/Graphics/SVG/1.1/DTD/svg11.dtd"><svg width="100%" height="100%" viewBox="0 0 1024 512" version="1.1" xmlns="http://www.w3.org/2000/svg" xmlns:xlink="http://www.w3.org/1999/xlink" xml:space="preserve" style="fill-rule:evenodd;clip-rule:evenodd;stroke-linejoin:round;stroke-miterlimit:2;"><title>Cardec</title><desc>"Cardec Factoring" was established in 2018 and it focuses on providing financial products to lawyers and is planning to expand into regular factoring. The founders of Cardec Factoring have been thinking about this product since 2013 and they have finally launched started providing its services in 2019. Their current product has a state-owned agency Raad voor Rechtsbijstand (Legal Aid Board) as the payer of the promissory notes. The maximum term of these promissory notes is 400 days, but on average they are usually covered in 80 days when the court decision is reached.</desc>    <g transform="matrix(3.80922,0,0,3.80922,-623.132,-57.2172)">        <g transform="matrix(50.912,0,0,50.912,161.87,99.027)">            <path d="M0.044,-0.326c0,-0.056 0.011,-0.107 0.035,-0.152c0.022,-0.045 0.053,-0.083 0.091,-0.113c0.037,-0.029 0.078,-0.05 0.124,-0.064c0.045,-0.014 0.094,-0.021 0.146,-0.021c0.013,0 0.028,0.001 0.044,0.002c0.015,0.001 0.031,0.003 0.047,0.005c0.016,0.002 0.031,0.005 0.046,0.008c0.015,0.003 0.028,0.006 0.04,0.009c0.006,0.001 0.011,0.002 0.015,0.004c0.004,0.001 0.008,0.001 0.013,0c0.001,0.011 0.002,0.031 0.004,0.059c0.003,0.028 0.006,0.057 0.01,0.088c-0.003,0.003 -0.007,0.005 -0.013,0.006c-0.006,0.001 -0.011,-0.001 -0.014,-0.004c-0.004,-0.017 -0.01,-0.035 -0.018,-0.052c-0.008,-0.017 -0.02,-0.033 -0.035,-0.047c-0.016,-0.014 -0.036,-0.025 -0.061,-0.034c-0.025,-0.009 -0.055,-0.013 -0.091,-0.013c-0.038,0 -0.074,0.006 -0.109,0.019c-0.034,0.012 -0.064,0.031 -0.09,0.056c-0.026,0.025 -0.047,0.056 -0.062,0.094c-0.015,0.038 -0.022,0.083 -0.022,0.135c0,0.053 0.008,0.099 0.023,0.14c0.016,0.04 0.037,0.074 0.064,0.102c0.027,0.027 0.058,0.048 0.094,0.063c0.037,0.014 0.075,0.021 0.116,0.021c0.032,0 0.06,-0.005 0.083,-0.014c0.024,-0.009 0.044,-0.021 0.061,-0.035c0.017,-0.015 0.03,-0.03 0.041,-0.047c0.01,-0.017 0.018,-0.032 0.024,-0.047c0.003,-0.003 0.008,-0.003 0.014,-0.002c0.006,0.001 0.01,0.003 0.012,0.006c-0.002,0.013 -0.005,0.026 -0.009,0.041c-0.003,0.014 -0.007,0.027 -0.012,0.04c-0.005,0.013 -0.009,0.024 -0.014,0.034c-0.005,0.01 -0.009,0.017 -0.013,0.022c-0.006,0.001 -0.012,0.003 -0.018,0.005c-0.006,0.001 -0.012,0.003 -0.017,0.005c-0.005,0.002 -0.014,0.004 -0.025,0.007c-0.011,0.003 -0.024,0.005 -0.038,0.008c-0.015,0.002 -0.03,0.004 -0.046,0.006c-0.017,0.001 -0.033,0.002 -0.049,0.002c-0.045,0 -0.089,-0.005 -0.131,-0.015c-0.042,-0.01 -0.081,-0.027 -0.118,-0.052c-0.04,-0.027 -0.074,-0.064 -0.101,-0.109c-0.027,-0.046 -0.041,-0.101 -0.041,-0.166Z" style="fill:rgb(24,57,138);fill-rule:nonzero;"/>        </g>        <g transform="matrix(11.7489,0,0,11.7489,202.112,89.0446)">            <path d="M0.031,-0.584l0.023,-0.07c0.051,0.018 0.089,0.034 0.113,0.048c-0.007,-0.059 -0.01,-0.1 -0.01,-0.122l0.071,0c-0.001,0.032 -0.005,0.073 -0.012,0.121c0.034,-0.017 0.072,-0.032 0.116,-0.047l0.022,0.07c-0.041,0.013 -0.082,0.022 -0.122,0.027c0.02,0.017 0.048,0.048 0.084,0.092l-0.058,0.042c-0.019,-0.026 -0.041,-0.061 -0.067,-0.105c-0.024,0.046 -0.045,0.081 -0.064,0.105l-0.057,-0.042c0.038,-0.046 0.065,-0.077 0.081,-0.092c-0.042,-0.008 -0.082,-0.017 -0.12,-0.027Z" style="fill:rgb(24,57,138);fill-rule:nonzero;"/>        </g>        <g transform="matrix(50.912,0,0,50.912,210.195,99.027)">            <path d="M0.407,-0.232c-0.003,-0.011 -0.007,-0.018 -0.012,-0.021c-0.004,-0.003 -0.014,-0.004 -0.029,-0.004l-0.151,0c-0.013,0 -0.021,0.001 -0.026,0.004c-0.005,0.003 -0.009,0.009 -0.012,0.02l-0.035,0.105c-0.015,0.044 -0.022,0.072 -0.022,0.083c0,0.006 0.002,0.01 0.006,0.013c0.003,0.004 0.011,0.006 0.023,0.007l0.033,0.003c0.003,0.003 0.005,0.007 0.005,0.013c0,0.006 -0.002,0.01 -0.007,0.012c-0.013,-0.001 -0.028,-0.002 -0.044,-0.002c-0.017,0 -0.037,0 -0.06,-0.001c-0.017,0 -0.034,0 -0.051,0.001c-0.017,0.001 -0.032,0.001 -0.045,0.002c-0.003,-0.002 -0.005,-0.006 -0.006,-0.012c-0.001,-0.006 0.001,-0.01 0.004,-0.013l0.033,-0.003c0.012,-0.001 0.023,-0.005 0.033,-0.012c0.011,-0.007 0.02,-0.019 0.027,-0.037c0.009,-0.023 0.021,-0.052 0.035,-0.086c0.014,-0.035 0.032,-0.08 0.053,-0.137l0.102,-0.27c0.007,-0.018 0.012,-0.032 0.015,-0.043c0.003,-0.011 0.003,-0.02 0.002,-0.028c0.012,-0.003 0.022,-0.009 0.031,-0.016c0.009,-0.008 0.016,-0.015 0.021,-0.022c0.003,0 0.006,0.001 0.009,0.002c0.003,0.001 0.005,0.004 0.006,0.007c0.007,0.022 0.014,0.044 0.021,0.067c0.008,0.023 0.016,0.045 0.023,0.067l0.137,0.402c0.007,0.021 0.014,0.039 0.019,0.052c0.006,0.013 0.012,0.024 0.018,0.032c0.006,0.007 0.013,0.013 0.02,0.016c0.008,0.003 0.017,0.005 0.028,0.006l0.027,0.003c0.003,0.003 0.005,0.007 0.004,0.013c0,0.006 -0.001,0.01 -0.004,0.012c-0.021,-0.001 -0.04,-0.002 -0.059,-0.002c-0.019,-0.001 -0.039,-0.001 -0.062,-0.001c-0.024,0 -0.046,0 -0.065,0.001c-0.019,0.001 -0.035,0.001 -0.05,0.002c-0.004,-0.002 -0.006,-0.006 -0.007,-0.012c0,-0.006 0.002,-0.01 0.005,-0.013l0.029,-0.003c0.011,-0.001 0.019,-0.003 0.025,-0.006c0.007,-0.003 0.01,-0.007 0.01,-0.012c0,-0.005 -0.001,-0.012 -0.004,-0.021c-0.002,-0.009 -0.005,-0.02 -0.009,-0.032l-0.044,-0.136Zm-0.198,-0.089c-0.004,0.011 -0.005,0.018 -0.003,0.021c0.002,0.002 0.01,0.003 0.024,0.003l0.123,0c0.015,0 0.023,-0.002 0.025,-0.005c0.003,-0.004 0.002,-0.013 -0.003,-0.026l-0.054,-0.163c-0.004,-0.012 -0.008,-0.024 -0.012,-0.036c-0.004,-0.012 -0.008,-0.021 -0.011,-0.027l-0.002,0c-0.001,0.003 -0.004,0.009 -0.009,0.02c-0.005,0.011 -0.01,0.024 -0.015,0.039l-0.063,0.174Z" style="fill:rgb(24,57,138);fill-rule:nonzero;"/>        </g>        <g transform="matrix(11.7489,0,0,11.7489,249.501,89.0446)">            <path d="M0.031,-0.584l0.023,-0.07c0.051,0.018 0.089,0.034 0.113,0.048c-0.007,-0.059 -0.01,-0.1 -0.01,-0.122l0.071,0c-0.001,0.032 -0.005,0.073 -0.012,0.121c0.034,-0.017 0.072,-0.032 0.116,-0.047l0.022,0.07c-0.041,0.013 -0.082,0.022 -0.122,0.027c0.02,0.017 0.048,0.048 0.084,0.092l-0.058,0.042c-0.019,-0.026 -0.041,-0.061 -0.067,-0.105c-0.024,0.046 -0.045,0.081 -0.064,0.105l-0.057,-0.042c0.038,-0.046 0.065,-0.077 0.081,-0.092c-0.042,-0.008 -0.082,-0.017 -0.12,-0.027Z" style="fill:rgb(24,57,138);fill-rule:nonzero;"/>        </g>        <g transform="matrix(50.912,0,0,50.912,255.151,99.027)">            <path d="M0.128,-0.509c0,-0.024 0,-0.043 -0.001,-0.058c-0.001,-0.015 -0.003,-0.026 -0.006,-0.034c-0.002,-0.009 -0.007,-0.015 -0.013,-0.018c-0.006,-0.003 -0.014,-0.006 -0.024,-0.007l-0.032,-0.004c-0.003,-0.003 -0.005,-0.007 -0.005,-0.013c0,-0.006 0.002,-0.01 0.006,-0.012c0.028,-0.003 0.06,-0.005 0.096,-0.006c0.035,-0.001 0.078,-0.002 0.127,-0.002c0.031,0 0.061,0.002 0.089,0.006c0.029,0.003 0.055,0.011 0.078,0.024c0.024,0.013 0.044,0.03 0.06,0.053c0.015,0.023 0.023,0.052 0.023,0.087c0,0.024 -0.004,0.045 -0.013,0.064c-0.008,0.018 -0.018,0.034 -0.031,0.048c-0.012,0.013 -0.025,0.025 -0.04,0.034c-0.015,0.009 -0.028,0.016 -0.041,0.021c-0.003,0.003 -0.003,0.007 -0.002,0.012c0.002,0.004 0.004,0.008 0.007,0.012c0.02,0.032 0.038,0.061 0.055,0.088c0.017,0.027 0.034,0.051 0.05,0.072c0.016,0.021 0.032,0.041 0.047,0.059c0.016,0.017 0.032,0.033 0.049,0.047c0.009,0.007 0.019,0.014 0.031,0.019c0.012,0.005 0.025,0.008 0.038,0.009c0.003,0.001 0.004,0.004 0.004,0.007c0.001,0.003 0,0.005 -0.003,0.007c-0.01,0.003 -0.025,0.005 -0.044,0.005c-0.021,0 -0.041,-0.002 -0.059,-0.005c-0.017,-0.004 -0.034,-0.011 -0.05,-0.02c-0.016,-0.009 -0.032,-0.022 -0.047,-0.038c-0.016,-0.017 -0.033,-0.038 -0.051,-0.063c-0.007,-0.009 -0.014,-0.02 -0.022,-0.033c-0.008,-0.013 -0.016,-0.026 -0.025,-0.039c-0.009,-0.014 -0.017,-0.028 -0.026,-0.041c-0.009,-0.014 -0.017,-0.027 -0.025,-0.038c-0.007,-0.011 -0.016,-0.019 -0.026,-0.024c-0.01,-0.005 -0.025,-0.008 -0.045,-0.008c-0.023,0 -0.036,0.001 -0.04,0.003c-0.005,0.002 -0.007,0.008 -0.007,0.019l0,0.126c0,0.026 0,0.047 0.001,0.063c0.001,0.015 0.003,0.027 0.007,0.036c0.004,0.009 0.01,0.015 0.018,0.018c0.008,0.003 0.019,0.006 0.034,0.008l0.021,0.003c0.003,0.003 0.005,0.007 0.004,0.014c-0.001,0.006 -0.003,0.01 -0.006,0.011c-0.023,-0.001 -0.043,-0.002 -0.061,-0.002c-0.019,-0.001 -0.038,-0.001 -0.058,-0.001c-0.021,0 -0.042,0 -0.061,0.001c-0.019,0 -0.041,0.001 -0.064,0.002c-0.003,-0.001 -0.005,-0.005 -0.006,-0.011c-0.001,-0.006 0.001,-0.011 0.004,-0.014l0.025,-0.003c0.015,-0.002 0.026,-0.005 0.034,-0.008c0.008,-0.003 0.014,-0.009 0.018,-0.018c0.004,-0.009 0.006,-0.021 0.007,-0.036c0.001,-0.016 0.001,-0.037 0.001,-0.063l0,-0.359Zm0.082,0.143c0,0.019 0.001,0.03 0.003,0.033c0.001,0.001 0.007,0.003 0.017,0.004c0.009,0.001 0.027,0.001 0.052,0.001c0.018,0 0.036,-0.001 0.054,-0.004c0.018,-0.003 0.034,-0.011 0.049,-0.022c0.013,-0.011 0.025,-0.025 0.035,-0.044c0.01,-0.019 0.015,-0.046 0.015,-0.08c0,-0.02 -0.003,-0.039 -0.009,-0.057c-0.007,-0.019 -0.016,-0.035 -0.029,-0.049c-0.013,-0.015 -0.03,-0.026 -0.05,-0.035c-0.02,-0.009 -0.044,-0.013 -0.072,-0.013c-0.015,0 -0.027,0 -0.036,0.001c-0.009,0.001 -0.015,0.002 -0.019,0.005c-0.005,0.002 -0.007,0.005 -0.008,0.009c-0.001,0.004 -0.002,0.01 -0.002,0.017l0,0.234Z" style="fill:rgb(24,57,138);fill-rule:nonzero;"/>        </g>        <g transform="matrix(11.7489,0,0,11.7489,296.132,89.0446)">            <path d="M0.031,-0.584l0.023,-0.07c0.051,0.018 0.089,0.034 0.113,0.048c-0.007,-0.059 -0.01,-0.1 -0.01,-0.122l0.071,0c-0.001,0.032 -0.005,0.073 -0.012,0.121c0.034,-0.017 0.072,-0.032 0.116,-0.047l0.022,0.07c-0.041,0.013 -0.082,0.022 -0.122,0.027c0.02,0.017 0.048,0.048 0.084,0.092l-0.058,0.042c-0.019,-0.026 -0.041,-0.061 -0.067,-0.105c-0.024,0.046 -0.045,0.081 -0.064,0.105l-0.057,-0.042c0.038,-0.046 0.065,-0.077 0.081,-0.092c-0.042,-0.008 -0.082,-0.017 -0.12,-0.027Z" style="fill:rgb(24,57,138);fill-rule:nonzero;"/>        </g>        <g transform="matrix(50.912,0,0,50.912,301.226,99.027)">            <path d="M0.128,-0.53c0,-0.017 -0.001,-0.032 -0.002,-0.043c-0.001,-0.012 -0.003,-0.022 -0.006,-0.029c-0.003,-0.008 -0.008,-0.014 -0.014,-0.017c-0.006,-0.004 -0.014,-0.007 -0.025,-0.008l-0.022,-0.003c-0.004,-0.003 -0.006,-0.007 -0.006,-0.013c-0.001,-0.006 0.002,-0.01 0.007,-0.012c0.043,-0.003 0.084,-0.005 0.126,-0.006c0.041,-0.001 0.082,-0.002 0.125,-0.002c0.042,0 0.081,0.002 0.117,0.006c0.036,0.004 0.07,0.012 0.103,0.024c0.034,0.012 0.064,0.028 0.089,0.048c0.025,0.02 0.046,0.043 0.064,0.069c0.016,0.025 0.029,0.053 0.038,0.083c0.008,0.03 0.012,0.062 0.012,0.095c0,0.064 -0.015,0.122 -0.044,0.173c-0.03,0.052 -0.074,0.094 -0.131,0.125c-0.033,0.017 -0.068,0.03 -0.107,0.037c-0.039,0.007 -0.078,0.011 -0.117,0.011c-0.016,0 -0.032,0 -0.047,-0.001c-0.016,-0.001 -0.031,-0.002 -0.045,-0.003c-0.015,-0.001 -0.028,-0.002 -0.039,-0.003c-0.012,-0.001 -0.023,-0.001 -0.032,-0.001c-0.021,0 -0.042,0 -0.061,0c-0.019,0.001 -0.041,0.002 -0.064,0.003c-0.003,-0.001 -0.005,-0.005 -0.006,-0.011c-0.001,-0.006 0.001,-0.011 0.004,-0.014l0.023,-0.003c0.015,-0.002 0.026,-0.005 0.034,-0.008c0.008,-0.003 0.014,-0.009 0.018,-0.018c0.004,-0.009 0.006,-0.021 0.007,-0.037c0.001,-0.015 0.001,-0.036 0.001,-0.062l0,-0.38Zm0.082,0.357c0,0.027 0.001,0.049 0.004,0.066c0.002,0.017 0.007,0.031 0.016,0.043c0.011,0.015 0.027,0.026 0.046,0.032c0.019,0.006 0.045,0.009 0.077,0.009c0.049,0 0.091,-0.008 0.126,-0.023c0.035,-0.015 0.065,-0.037 0.088,-0.064c0.023,-0.027 0.04,-0.06 0.051,-0.098c0.01,-0.039 0.016,-0.081 0.016,-0.128c0,-0.027 -0.004,-0.058 -0.012,-0.092c-0.009,-0.035 -0.024,-0.067 -0.047,-0.097c-0.023,-0.03 -0.055,-0.055 -0.096,-0.076c-0.041,-0.021 -0.095,-0.031 -0.16,-0.031c-0.03,0 -0.053,0.001 -0.069,0.004c-0.016,0.004 -0.026,0.007 -0.03,0.01c-0.007,0.005 -0.01,0.03 -0.01,0.076l0,0.369Z" style="fill:rgb(24,57,138);fill-rule:nonzero;"/>        </g>        <g transform="matrix(11.7489,0,0,11.7489,346.089,89.0446)">            <path d="M0.031,-0.584l0.023,-0.07c0.051,0.018 0.089,0.034 0.113,0.048c-0.007,-0.059 -0.01,-0.1 -0.01,-0.122l0.071,0c-0.001,0.032 -0.005,0.073 -0.012,0.121c0.034,-0.017 0.072,-0.032 0.116,-0.047l0.022,0.07c-0.041,0.013 -0.082,0.022 -0.122,0.027c0.02,0.017 0.048,0.048 0.084,0.092l-0.058,0.042c-0.019,-0.026 -0.041,-0.061 -0.067,-0.105c-0.024,0.046 -0.045,0.081 -0.064,0.105l-0.057,-0.042c0.038,-0.046 0.065,-0.077 0.081,-0.092c-0.042,-0.008 -0.082,-0.017 -0.12,-0.027Z" style="fill:rgb(24,57,138);fill-rule:nonzero;"/>        </g>        <g transform="matrix(50.912,0,0,50.912,354.172,99.027)">            <path d="M0.128,-0.51c0,-0.026 0,-0.047 -0.001,-0.063c-0.001,-0.015 -0.003,-0.027 -0.007,-0.037c-0.004,-0.009 -0.01,-0.015 -0.018,-0.018c-0.009,-0.003 -0.02,-0.006 -0.035,-0.008l-0.016,-0.002c-0.003,-0.002 -0.005,-0.006 -0.004,-0.013c0.001,-0.007 0.003,-0.011 0.006,-0.012c0.011,0.001 0.022,0.001 0.032,0.002c0.009,0 0.019,0 0.028,0c0.009,0.001 0.019,0.001 0.029,0.001l0.217,0c0.032,0 0.061,0 0.087,0c0.026,-0.001 0.042,-0.002 0.048,-0.003c0.001,0.004 0.003,0.011 0.005,0.022c0.001,0.01 0.003,0.021 0.004,0.034c0.001,0.013 0.003,0.027 0.004,0.04c0.001,0.013 0.002,0.026 0.003,0.037c-0.002,0.003 -0.006,0.005 -0.012,0.006c-0.006,0.001 -0.01,-0.001 -0.013,-0.004c-0.004,-0.012 -0.008,-0.023 -0.011,-0.033c-0.003,-0.01 -0.008,-0.019 -0.013,-0.027c-0.005,-0.008 -0.012,-0.015 -0.02,-0.021c-0.008,-0.006 -0.019,-0.011 -0.032,-0.014c-0.011,-0.003 -0.024,-0.004 -0.04,-0.005c-0.016,-0.001 -0.035,-0.001 -0.057,-0.001l-0.072,0c-0.007,0 -0.013,0 -0.017,0.001c-0.004,0.001 -0.007,0.002 -0.009,0.005c-0.002,0.003 -0.003,0.007 -0.003,0.012c-0.001,0.005 -0.001,0.013 -0.001,0.022l0,0.2c0,0.014 0.002,0.022 0.005,0.024c0.003,0.003 0.013,0.004 0.028,0.004l0.058,0c0.021,0 0.039,-0.001 0.054,-0.002c0.015,-0.001 0.025,-0.002 0.031,-0.004c0.006,-0.002 0.011,-0.005 0.015,-0.01c0.003,-0.004 0.006,-0.012 0.009,-0.025l0.008,-0.041c0.003,-0.003 0.007,-0.005 0.014,-0.005c0.006,0.001 0.01,0.003 0.012,0.006c0,0.012 -0.001,0.027 -0.002,0.045c-0.001,0.018 -0.002,0.037 -0.002,0.056c0,0.018 0.001,0.036 0.002,0.053c0.001,0.017 0.002,0.032 0.002,0.043c-0.002,0.003 -0.006,0.005 -0.012,0.005c-0.007,0.001 -0.011,-0.001 -0.014,-0.004l-0.009,-0.039c-0.002,-0.009 -0.005,-0.017 -0.009,-0.024c-0.005,-0.007 -0.012,-0.011 -0.022,-0.014c-0.007,-0.002 -0.017,-0.003 -0.029,-0.004c-0.013,-0.001 -0.029,-0.001 -0.048,-0.001l-0.058,0c-0.015,0 -0.025,0.001 -0.028,0.004c-0.003,0.002 -0.005,0.01 -0.005,0.023l0,0.141c0,0.027 0.001,0.048 0.004,0.065c0.002,0.017 0.007,0.03 0.015,0.039c0.003,0.003 0.007,0.005 0.012,0.008c0.005,0.003 0.011,0.006 0.02,0.008c0.009,0.002 0.02,0.004 0.035,0.005c0.014,0.001 0.032,0.002 0.054,0.002c0.039,0 0.067,-0.001 0.085,-0.004c0.018,-0.002 0.032,-0.006 0.043,-0.011c0.009,-0.005 0.02,-0.016 0.033,-0.033c0.012,-0.017 0.025,-0.038 0.038,-0.064c0.003,-0.003 0.008,-0.003 0.014,-0.002c0.005,0.001 0.009,0.004 0.011,0.009c-0.002,0.009 -0.005,0.019 -0.008,0.032c-0.004,0.013 -0.008,0.027 -0.012,0.04c-0.005,0.014 -0.009,0.027 -0.013,0.039c-0.005,0.012 -0.009,0.021 -0.012,0.028c-0.023,-0.001 -0.045,-0.001 -0.067,-0.002c-0.023,0 -0.045,0 -0.067,0c-0.023,-0.001 -0.045,-0.001 -0.067,-0.001l-0.157,0c-0.021,0 -0.042,0 -0.061,0c-0.02,0.001 -0.045,0.002 -0.075,0.003c-0.003,-0.001 -0.005,-0.005 -0.006,-0.011c-0.001,-0.006 0.001,-0.011 0.004,-0.014l0.033,-0.003c0.014,-0.001 0.025,-0.004 0.034,-0.007c0.008,-0.003 0.014,-0.009 0.019,-0.018c0.004,-0.009 0.007,-0.021 0.008,-0.037c0.001,-0.016 0.001,-0.037 0.001,-0.063l0,-0.36Z" style="fill:rgb(24,57,138);fill-rule:nonzero;"/>        </g>        <g transform="matrix(11.7489,0,0,11.7489,389.381,89.0446)">            <path d="M0.031,-0.584l0.023,-0.07c0.051,0.018 0.089,0.034 0.113,0.048c-0.007,-0.059 -0.01,-0.1 -0.01,-0.122l0.071,0c-0.001,0.032 -0.005,0.073 -0.012,0.121c0.034,-0.017 0.072,-0.032 0.116,-0.047l0.022,0.07c-0.041,0.013 -0.082,0.022 -0.122,0.027c0.02,0.017 0.048,0.048 0.084,0.092l-0.058,0.042c-0.019,-0.026 -0.041,-0.061 -0.067,-0.105c-0.024,0.046 -0.045,0.081 -0.064,0.105l-0.057,-0.042c0.038,-0.046 0.065,-0.077 0.081,-0.092c-0.042,-0.008 -0.082,-0.017 -0.12,-0.027Z" style="fill:rgb(24,57,138);fill-rule:nonzero;"/>        </g>        <g transform="matrix(50.912,0,0,50.912,397.465,99.027)">            <path d="M0.044,-0.326c0,-0.056 0.011,-0.107 0.035,-0.152c0.022,-0.045 0.053,-0.083 0.091,-0.113c0.037,-0.029 0.078,-0.05 0.124,-0.064c0.045,-0.014 0.094,-0.021 0.146,-0.021c0.013,0 0.028,0.001 0.044,0.002c0.015,0.001 0.031,0.003 0.047,0.005c0.016,0.002 0.031,0.005 0.046,0.008c0.015,0.003 0.028,0.006 0.04,0.009c0.006,0.001 0.011,0.002 0.015,0.004c0.004,0.001 0.008,0.001 0.013,0c0.001,0.011 0.002,0.031 0.004,0.059c0.003,0.028 0.006,0.057 0.01,0.088c-0.003,0.003 -0.007,0.005 -0.013,0.006c-0.006,0.001 -0.011,-0.001 -0.014,-0.004c-0.004,-0.017 -0.01,-0.035 -0.018,-0.052c-0.008,-0.017 -0.02,-0.033 -0.035,-0.047c-0.016,-0.014 -0.036,-0.025 -0.061,-0.034c-0.025,-0.009 -0.055,-0.013 -0.091,-0.013c-0.038,0 -0.074,0.006 -0.109,0.019c-0.034,0.012 -0.064,0.031 -0.09,0.056c-0.026,0.025 -0.047,0.056 -0.062,0.094c-0.015,0.038 -0.022,0.083 -0.022,0.135c0,0.053 0.008,0.099 0.023,0.14c0.016,0.04 0.037,0.074 0.064,0.102c0.027,0.027 0.058,0.048 0.094,0.063c0.037,0.014 0.075,0.021 0.116,0.021c0.032,0 0.06,-0.005 0.083,-0.014c0.024,-0.009 0.044,-0.021 0.061,-0.035c0.017,-0.015 0.03,-0.03 0.041,-0.047c0.01,-0.017 0.018,-0.032 0.024,-0.047c0.003,-0.003 0.008,-0.003 0.014,-0.002c0.006,0.001 0.01,0.003 0.012,0.006c-0.002,0.013 -0.005,0.026 -0.009,0.041c-0.003,0.014 -0.007,0.027 -0.012,0.04c-0.005,0.013 -0.009,0.024 -0.014,0.034c-0.005,0.01 -0.009,0.017 -0.013,0.022c-0.006,0.001 -0.012,0.003 -0.018,0.005c-0.006,0.001 -0.012,0.003 -0.017,0.005c-0.005,0.002 -0.014,0.004 -0.025,0.007c-0.011,0.003 -0.024,0.005 -0.038,0.008c-0.015,0.002 -0.03,0.004 -0.046,0.006c-0.017,0.001 -0.033,0.002 -0.049,0.002c-0.045,0 -0.089,-0.005 -0.131,-0.015c-0.042,-0.01 -0.081,-0.027 -0.118,-0.052c-0.04,-0.027 -0.074,-0.064 -0.101,-0.109c-0.027,-0.046 -0.041,-0.101 -0.041,-0.166Z" style="fill:rgb(24,57,138);fill-rule:nonzero;"/>        </g>    </g></svg>