<?xml version="1.0" encoding="UTF-8" standalone="no"?><!DOCTYPE svg PUBLIC "-//W3C//DTD SVG 1.1//EN" "http://www.w3.org/Graphics/SVG/1.1/DTD/svg11.dtd"><svg width="100%" height="100%" viewBox="0 0 1024 512" version="1.1" xmlns="http://www.w3.org/2000/svg" xmlns:xlink="http://www.w3.org/1999/xlink" xml:space="preserve" style="fill-rule:evenodd;clip-rule:evenodd;stroke-linejoin:round;stroke-miterlimit:2;"><title>Green Rocket</title><desc>GREEN ROCKET is the first crowdinvesting platform specializing in sustainable energy, environment, mobility and healthcare companies. Everyone has the opportunity to invest online in selected companies (equity-based crowdfunding) and benefit from their growth. The variety of investment opportunities extends from startups and first-stage companies to project financing of established companies. As a crowd investor, you are a venture capitalist and manage your own portfolio of attractive, promising projects.</desc>    <g transform="matrix(6.53383,0,0,6.53383,-37.1337,-14.5005)">        <path d="M33.3,40c-0.3,-0.5 -0.7,-0.9 -1,-1.3l0,-12.2c0,-17 -10.6,-21.8 -10.6,-21.8c0,0 -10.6,4.8 -10.6,21.8l0,12.2c-0.3,0.4 -0.6,0.8 -1,1.3c-9.8,14.8 1,38.1 1,38.1l4.2,-8.4l12.8,0l4.2,8.4c0,0 10.8,-23.3 1,-38.1Z" style="fill:rgb(23,138,55);fill-rule:nonzero;"/>        <g>            <path d="M49.9,49.5l8.2,0c5.9,0 8.8,1.5 8.8,8c0,4.1 -1.3,6.3 -4.1,7.3l4.6,9.7l-4.6,0l-4.2,-9.1l-4.5,0l0,9.1l-4.2,0l0,-25Zm8.3,12.4c3.1,0 4.4,-0.8 4.4,-4.4c0,-3.6 -1.3,-4.4 -4.4,-4.4l-4.1,0l0,8.8l4.1,0Z" style="fill:rgb(23,138,55);fill-rule:nonzero;"/>            <path d="M87.3,66.2c0,6.2 -2.7,8.7 -8.9,8.7c-6.2,0 -8.9,-2.5 -8.9,-8.7l0,-8.4c0,-6.2 2.7,-8.7 8.9,-8.7c6.2,0 8.9,2.5 8.9,8.7l0,8.4Zm-13.6,0c0,3.8 1.5,5 4.7,5c3.1,0 4.7,-1.2 4.7,-5l0,-8.5c0,-3.8 -1.5,-5 -4.7,-5c-3.1,0 -4.7,1.2 -4.7,5l0,8.5Z" style="fill:rgb(23,138,55);fill-rule:nonzero;"/>            <path d="M103,66.8l4.2,0c0,5.6 -2.6,8 -8.5,8c-6.1,0 -8.8,-2.5 -8.8,-8.9l0,-7.9c0,-6.4 2.7,-8.9 8.8,-8.9c5.9,0 8.5,2.4 8.5,8l-4.2,0c0,-3.1 -1.3,-4.4 -4.3,-4.4c-3.1,0 -4.5,1.2 -4.5,4.9l0,8.8c0,3.7 1.4,4.9 4.5,4.9c3.1,-0.1 4.3,-1.3 4.3,-4.5Z" style="fill:rgb(23,138,55);fill-rule:nonzero;"/>            <path d="M118,61.5l9.1,12.9l-4.9,0c-7.8,-11.6 -7.6,-11 -7.6,-11l0,11l-4.2,0l0,-25l4.2,0l0,10.6l7.4,-10.6l5,0l-9,12.1Z" style="fill:rgb(23,138,55);fill-rule:nonzero;"/>            <path d="M128.8,49.5l14.8,0l0,3.6l-10.6,0l0,6.9l9.2,0l0,3.5l-9.2,0l0,7.3l10.6,0l0,3.6l-14.8,0l0,-24.9Z" style="fill:rgb(23,138,55);fill-rule:nonzero;"/>            <path d="M152,53.1l-5.9,0l0,-3.6l16,0l0,3.6l-5.9,0l0,21.3l-4.2,0l0,-21.3Z" style="fill:rgb(23,138,55);fill-rule:nonzero;"/>            <path d="M49.9,28.5l0,-7.9c0,-6.4 2.7,-8.9 8.8,-8.9c5.9,0 8.5,2.4 8.5,8l-4.2,0c0,-3.1 -1.3,-4.4 -4.3,-4.4c-3.1,0 -4.5,1.2 -4.5,4.9l0,8.8c0,3.8 1.5,4.9 4.7,4.9c3.1,0 4.5,-1.1 4.5,-4.4l0,-3.5l-4.5,0l0,-3.5l8.8,0l0,14.5l-2.1,0l-0.7,-2c-1.5,1.6 -3.2,2.4 -6.1,2.4c-6.2,0 -8.9,-2.5 -8.9,-8.9Z" style="fill:rgb(23,138,55);fill-rule:nonzero;"/>            <path d="M71.7,12l8.2,0c5.9,0 8.8,1.5 8.8,8c0,4.1 -1.3,6.3 -4.1,7.3l4.6,9.7l-4.6,0l-4.2,-9.1l-4.5,0l0,9.1l-4.2,0l0,-25Zm8.3,12.4c3.1,0 4.4,-0.8 4.4,-4.4c0,-3.6 -1.3,-4.4 -4.4,-4.4l-4.1,0l0,8.8l4.1,0Z" style="fill:rgb(23,138,55);fill-rule:nonzero;"/>            <path d="M93.1,12l14.8,0l0,3.6l-10.6,0l0,6.9l9.2,0l0,3.5l-9.2,0l0,7.3l10.6,0l0,3.7l-14.8,0l0,-25Z" style="fill:rgb(23,138,55);fill-rule:nonzero;"/>            <path d="M111.9,12l14.8,0l0,3.6l-10.6,0l0,6.9l9.2,0l0,3.5l-9.2,0l0,7.3l10.6,0l0,3.7l-14.8,0l0,-25Z" style="fill:rgb(23,138,55);fill-rule:nonzero;"/>            <path d="M148.1,37l-5.3,0l-8.1,-19.7c0.1,1.8 0.2,5.6 0.2,7.4l0,12.3l-4.1,0l0,-25l5.3,0l8.1,19.7c0,-2 -0.2,-5.5 -0.2,-7.1l0,-12.6l4.1,0l0,25Z" style="fill:rgb(23,138,55);fill-rule:nonzero;"/>        </g>    </g></svg>