<?xml version="1.0" encoding="UTF-8" standalone="no"?><!DOCTYPE svg PUBLIC "-//W3C//DTD SVG 1.1//EN" "http://www.w3.org/Graphics/SVG/1.1/DTD/svg11.dtd"><svg width="100%" height="100%" viewBox="0 0 1024 512" version="1.1" xmlns="http://www.w3.org/2000/svg" xmlns:xlink="http://www.w3.org/1999/xlink" xml:space="preserve" style="fill-rule:evenodd;clip-rule:evenodd;stroke-linejoin:round;stroke-miterlimit:2;"><title>Bundesverband Crowdfunding</title><desc>The German Crowdfunding Association (Bundesverband Crowdfunding eV) represents the political and public interests of Crowdfunding platforms to the German Government, Parliament, Regulatory Bodies, Media and other Associations.</desc>    <g transform="matrix(1.81818,0,0,1.81818,-267.091,-347.222)">        <g>            <g transform="matrix(1.09091,0,0,1.09091,4.18182,-27.0098)">                <circle cx="185" cy="281" r="11" style="fill:rgb(255,203,22);"/>            </g>            <g transform="matrix(1.09091,0,0,1.09091,4.18182,-27.0098)">                <path d="M185.081,268.488c5.724,0.054 11.114,4.446 12.207,10.146c1.069,5.57 -2.177,11.676 -7.419,13.894c-5.799,2.454 -13.305,-0.302 -16.113,-6.036c-2.902,-5.926 -0.15,-13.981 5.957,-16.834c1.673,-0.782 3.514,-1.176 5.368,-1.17Zm-0.152,1.512c-6.194,0.059 -11.681,6.115 -10.832,12.469c0.698,5.22 5.613,9.531 10.903,9.531c5.254,0 10.196,-4.245 10.903,-9.531c0.815,-6.099 -4.205,-12.406 -10.832,-12.469c-0.047,0 -0.095,0 -0.142,0Z" style="fill:white;"/>            </g>            <g transform="matrix(1.09091,0,0,1.09091,-41.8182,-27.0098)">                <circle cx="185" cy="281" r="11" style="fill:rgb(48,51,51);"/>            </g>            <g transform="matrix(1.09091,0,0,1.09091,-41.8182,-27.0098)">                <path d="M185.081,268.488c5.724,0.054 11.114,4.446 12.207,10.146c1.069,5.57 -2.177,11.676 -7.419,13.894c-5.799,2.454 -13.305,-0.302 -16.113,-6.036c-2.905,-5.932 -0.142,-13.985 5.957,-16.834c1.673,-0.782 3.514,-1.176 5.368,-1.17Zm-0.152,1.512c-6.194,0.059 -11.681,6.115 -10.832,12.469c0.698,5.22 5.613,9.531 10.903,9.531c5.254,0 10.196,-4.245 10.903,-9.531c0.815,-6.099 -4.205,-12.406 -10.832,-12.469c-0.047,0 -0.095,0 -0.142,0Z" style="fill:white;"/>            </g>            <g transform="matrix(1.09091,0,0,1.09091,-18.8182,-27.0098)">                <circle cx="185" cy="281" r="11" style="fill:rgb(101,18,12);"/>            </g>            <g transform="matrix(1.09091,0,0,1.09091,-18.8182,-27.0098)">                <path d="M185.081,268.488c5.724,0.054 11.114,4.446 12.207,10.146c1.069,5.57 -2.177,11.676 -7.419,13.894c-5.799,2.454 -13.305,-0.302 -16.113,-6.036c-2.899,-5.921 -0.142,-13.985 5.957,-16.834c1.673,-0.782 3.514,-1.176 5.368,-1.17Zm-0.152,1.512c-6.194,0.059 -11.681,6.115 -10.832,12.469c0.698,5.22 5.613,9.531 10.903,9.531c5.254,0 10.196,-4.245 10.903,-9.531c0.815,-6.099 -4.205,-12.406 -10.832,-12.469c-0.047,0 -0.095,0 -0.142,0Z" style="fill:white;"/>            </g>        </g>        <g transform="matrix(1.32732,0,0,1.04788,-72.6356,-164.191)">            <g transform="matrix(50.5263,0,0,64,240,457.184)">                <path d="M0.058,-0.706l0.16,0l0,0.254c0.014,-0.014 0.031,-0.026 0.051,-0.035c0.019,-0.009 0.044,-0.013 0.074,-0.013c0.032,0 0.061,0.006 0.087,0.019c0.026,0.012 0.048,0.029 0.066,0.051c0.019,0.023 0.033,0.049 0.043,0.08c0.01,0.031 0.015,0.064 0.015,0.101c0,0.035 -0.006,0.069 -0.018,0.1c-0.011,0.032 -0.029,0.06 -0.052,0.083c-0.023,0.023 -0.053,0.042 -0.088,0.055c-0.035,0.014 -0.077,0.021 -0.124,0.021c-0.04,0 -0.078,-0.004 -0.115,-0.013c-0.036,-0.009 -0.069,-0.021 -0.099,-0.036l0,-0.667Zm0.239,0.328c-0.03,0 -0.056,0.009 -0.079,0.027l0,0.232c0.007,0.003 0.016,0.006 0.026,0.008c0.01,0.002 0.02,0.003 0.031,0.003c0.021,0 0.039,-0.004 0.054,-0.011c0.015,-0.007 0.028,-0.017 0.037,-0.03c0.009,-0.013 0.016,-0.027 0.021,-0.044c0.005,-0.017 0.007,-0.035 0.007,-0.054c0,-0.04 -0.008,-0.072 -0.024,-0.096c-0.015,-0.023 -0.04,-0.035 -0.073,-0.035Z" style="fill:rgb(48,51,51);fill-rule:nonzero;"/>            </g>            <g transform="matrix(50.5263,0,0,64,269.305,457.184)">                <path d="M0.519,-0.49l0,0.49l-0.154,0l0,-0.064c-0.019,0.028 -0.04,0.047 -0.063,0.058c-0.023,0.011 -0.048,0.016 -0.074,0.016c-0.033,0 -0.06,-0.007 -0.082,-0.021c-0.023,-0.013 -0.041,-0.031 -0.054,-0.054c-0.014,-0.023 -0.024,-0.049 -0.03,-0.079c-0.006,-0.029 -0.009,-0.06 -0.009,-0.093l0,-0.253l0.16,0l0,0.256c0,0.041 0.006,0.07 0.017,0.09c0.011,0.018 0.03,0.028 0.056,0.028c0.017,0 0.031,-0.004 0.044,-0.011c0.012,-0.007 0.022,-0.016 0.029,-0.027l0,-0.336l0.16,0Z" style="fill:rgb(48,51,51);fill-rule:nonzero;"/>            </g>            <g transform="matrix(50.5263,0,0,64,298.56,457.184)">                <path d="M0.06,0l0,-0.49l0.154,0l0,0.064c0.015,-0.027 0.035,-0.046 0.06,-0.057c0.024,-0.011 0.05,-0.017 0.077,-0.017c0.033,0 0.06,0.007 0.083,0.02c0.023,0.014 0.041,0.032 0.055,0.055c0.015,0.023 0.025,0.049 0.031,0.078c0.007,0.03 0.01,0.061 0.01,0.094l0,0.253l-0.16,0l0,-0.256c0,-0.041 -0.006,-0.071 -0.019,-0.09c-0.013,-0.019 -0.032,-0.028 -0.058,-0.028c-0.017,0 -0.031,0.004 -0.043,0.011c-0.013,0.007 -0.023,0.016 -0.03,0.027l0,0.336l-0.16,0Z" style="fill:rgb(48,51,51);fill-rule:nonzero;"/>            </g>            <g transform="matrix(50.5263,0,0,64,328.017,457.184)">                <path d="M0.524,0l-0.153,0l0,-0.062c-0.015,0.022 -0.035,0.039 -0.059,0.053c-0.025,0.013 -0.054,0.019 -0.088,0.019c-0.027,0 -0.053,-0.006 -0.077,-0.017c-0.024,-0.012 -0.045,-0.029 -0.063,-0.051c-0.017,-0.021 -0.031,-0.047 -0.041,-0.078c-0.01,-0.031 -0.015,-0.065 -0.015,-0.103c0,-0.043 0.007,-0.08 0.02,-0.113c0.014,-0.033 0.032,-0.06 0.055,-0.082c0.024,-0.022 0.05,-0.038 0.081,-0.049c0.031,-0.011 0.063,-0.017 0.098,-0.017c0.017,0 0.033,0.001 0.046,0.004c0.013,0.002 0.025,0.005 0.036,0.008l0,-0.218l0.16,0l0,0.706Zm-0.242,-0.113c0.034,0 0.061,-0.011 0.082,-0.034l0,-0.225c-0.015,-0.005 -0.034,-0.008 -0.057,-0.008c-0.04,0 -0.07,0.012 -0.09,0.037c-0.019,0.025 -0.029,0.058 -0.029,0.101c0,0.038 0.007,0.069 0.022,0.093c0.015,0.024 0.039,0.036 0.072,0.036Z" style="fill:rgb(48,51,51);fill-rule:nonzero;"/>            </g>            <g transform="matrix(50.5263,0,0,64,357.524,457.184)">                <path d="M0.277,-0.5c0.064,0 0.115,0.019 0.152,0.056c0.037,0.038 0.056,0.09 0.056,0.157c0,0.025 -0.003,0.052 -0.009,0.081l-0.284,0c0.001,0.03 0.012,0.054 0.031,0.073c0.019,0.018 0.048,0.027 0.087,0.027c0.024,0 0.049,-0.002 0.076,-0.006c0.026,-0.005 0.049,-0.011 0.068,-0.02l0.02,0.103c-0.025,0.013 -0.054,0.022 -0.086,0.029c-0.031,0.007 -0.064,0.01 -0.098,0.01c-0.043,0 -0.08,-0.006 -0.113,-0.019c-0.033,-0.012 -0.06,-0.029 -0.082,-0.051c-0.022,-0.022 -0.039,-0.048 -0.05,-0.079c-0.011,-0.031 -0.017,-0.065 -0.017,-0.102c0,-0.04 0.006,-0.076 0.017,-0.108c0.012,-0.032 0.029,-0.059 0.05,-0.081c0.022,-0.023 0.048,-0.04 0.079,-0.052c0.031,-0.012 0.065,-0.018 0.103,-0.018Zm-0.005,0.102c-0.025,0 -0.045,0.008 -0.059,0.025c-0.013,0.016 -0.02,0.038 -0.02,0.067l0.142,0c0.001,-0.005 0.002,-0.011 0.002,-0.017c0,-0.021 -0.006,-0.039 -0.017,-0.053c-0.011,-0.015 -0.027,-0.022 -0.048,-0.022Z" style="fill:rgb(48,51,51);fill-rule:nonzero;"/>            </g>            <g transform="matrix(50.5263,0,0,64,383.848,457.184)">                <path d="M0.409,-0.16c0,0.027 -0.005,0.052 -0.016,0.073c-0.01,0.021 -0.024,0.039 -0.043,0.054c-0.02,0.014 -0.042,0.025 -0.068,0.032c-0.026,0.007 -0.055,0.011 -0.086,0.011c-0.027,0 -0.055,-0.002 -0.084,-0.007c-0.029,-0.005 -0.056,-0.013 -0.08,-0.023l0.022,-0.111c0.021,0.009 0.043,0.015 0.069,0.02c0.024,0.004 0.046,0.006 0.065,0.006c0.019,0 0.036,-0.003 0.051,-0.009c0.014,-0.005 0.021,-0.015 0.021,-0.028c0,-0.012 -0.006,-0.021 -0.019,-0.026c-0.013,-0.005 -0.032,-0.012 -0.057,-0.021c-0.021,-0.007 -0.04,-0.016 -0.058,-0.025c-0.018,-0.009 -0.034,-0.019 -0.047,-0.032c-0.013,-0.012 -0.023,-0.026 -0.03,-0.042c-0.007,-0.016 -0.011,-0.035 -0.011,-0.056c0,-0.053 0.018,-0.093 0.054,-0.118c0.036,-0.025 0.083,-0.038 0.141,-0.038c0.031,0 0.059,0.003 0.084,0.008c0.025,0.006 0.05,0.016 0.073,0.029l-0.022,0.105c-0.018,-0.008 -0.037,-0.015 -0.057,-0.02c-0.02,-0.005 -0.041,-0.007 -0.063,-0.007c-0.019,0 -0.034,0.002 -0.045,0.005c-0.01,0.004 -0.015,0.012 -0.015,0.023c0,0.011 0.006,0.019 0.018,0.024c0.013,0.005 0.029,0.012 0.048,0.019c0.015,0.005 0.031,0.012 0.049,0.019c0.018,0.008 0.035,0.018 0.05,0.03c0.016,0.012 0.029,0.026 0.04,0.043c0.011,0.017 0.016,0.038 0.016,0.062Z" style="fill:rgb(48,51,51);fill-rule:nonzero;"/>            </g>            <g transform="matrix(50.5263,0,0,64,405.827,457.184)">                <path d="M0.169,0l-0.17,-0.49l0.161,0l0.094,0.344l0.094,-0.344l0.161,0l-0.17,0.49l-0.17,0Z" style="fill:rgb(48,51,51);fill-rule:nonzero;"/>            </g>            <g transform="matrix(50.5263,0,0,64,431.394,457.184)">                <path d="M0.277,-0.5c0.064,0 0.115,0.019 0.152,0.056c0.037,0.038 0.056,0.09 0.056,0.157c0,0.025 -0.003,0.052 -0.009,0.081l-0.284,0c0.001,0.03 0.012,0.054 0.031,0.073c0.019,0.018 0.048,0.027 0.087,0.027c0.024,0 0.049,-0.002 0.076,-0.006c0.026,-0.005 0.049,-0.011 0.068,-0.02l0.02,0.103c-0.025,0.013 -0.054,0.022 -0.086,0.029c-0.031,0.007 -0.064,0.01 -0.098,0.01c-0.043,0 -0.08,-0.006 -0.113,-0.019c-0.033,-0.012 -0.06,-0.029 -0.082,-0.051c-0.022,-0.022 -0.039,-0.048 -0.05,-0.079c-0.011,-0.031 -0.017,-0.065 -0.017,-0.102c0,-0.04 0.006,-0.076 0.017,-0.108c0.012,-0.032 0.029,-0.059 0.05,-0.081c0.022,-0.023 0.048,-0.04 0.079,-0.052c0.031,-0.012 0.065,-0.018 0.103,-0.018Zm-0.005,0.102c-0.025,0 -0.045,0.008 -0.059,0.025c-0.013,0.016 -0.02,0.038 -0.02,0.067l0.142,0c0.001,-0.005 0.002,-0.011 0.002,-0.017c0,-0.021 -0.006,-0.039 -0.017,-0.053c-0.011,-0.015 -0.027,-0.022 -0.048,-0.022Z" style="fill:rgb(48,51,51);fill-rule:nonzero;"/>            </g>            <g transform="matrix(50.5263,0,0,64,457.465,457.184)">                <path d="M0.373,-0.352l-0.019,0c-0.063,0 -0.108,0.016 -0.134,0.048l0,0.304l-0.16,0l0,-0.49l0.155,0l0,0.082c0.009,-0.027 0.024,-0.048 0.043,-0.063c0.019,-0.015 0.045,-0.023 0.076,-0.023c0.009,0 0.017,0.001 0.024,0.002c0.006,0.001 0.012,0.002 0.019,0.004l-0.004,0.136Z" style="fill:rgb(48,51,51);fill-rule:nonzero;"/>            </g>            <g transform="matrix(50.5263,0,0,64,476.615,457.184)">                <path d="M0.058,-0.706l0.16,0l0,0.254c0.014,-0.014 0.031,-0.026 0.051,-0.035c0.019,-0.009 0.044,-0.013 0.074,-0.013c0.032,0 0.061,0.006 0.087,0.019c0.026,0.012 0.048,0.029 0.066,0.051c0.019,0.023 0.033,0.049 0.043,0.08c0.01,0.031 0.015,0.064 0.015,0.101c0,0.035 -0.006,0.069 -0.018,0.1c-0.011,0.032 -0.029,0.06 -0.052,0.083c-0.023,0.023 -0.053,0.042 -0.088,0.055c-0.035,0.014 -0.077,0.021 -0.124,0.021c-0.04,0 -0.078,-0.004 -0.115,-0.013c-0.036,-0.009 -0.069,-0.021 -0.099,-0.036l0,-0.667Zm0.239,0.328c-0.03,0 -0.056,0.009 -0.079,0.027l0,0.232c0.007,0.003 0.016,0.006 0.026,0.008c0.01,0.002 0.02,0.003 0.031,0.003c0.021,0 0.039,-0.004 0.054,-0.011c0.015,-0.007 0.028,-0.017 0.037,-0.03c0.009,-0.013 0.016,-0.027 0.021,-0.044c0.005,-0.017 0.007,-0.035 0.007,-0.054c0,-0.04 -0.008,-0.072 -0.024,-0.096c-0.015,-0.023 -0.04,-0.035 -0.073,-0.035Z" style="fill:rgb(48,51,51);fill-rule:nonzero;"/>            </g>            <g transform="matrix(50.5263,0,0,64,505.92,457.184)">                <path d="M0.328,-0.048c-0.015,0.015 -0.036,0.029 -0.063,0.041c-0.026,0.011 -0.055,0.017 -0.086,0.017c-0.022,0 -0.042,-0.004 -0.059,-0.011c-0.017,-0.007 -0.032,-0.017 -0.043,-0.03c-0.012,-0.013 -0.021,-0.028 -0.027,-0.045c-0.007,-0.017 -0.01,-0.035 -0.01,-0.054c0,-0.045 0.014,-0.08 0.043,-0.103c0.028,-0.022 0.068,-0.036 0.12,-0.04c0.019,-0.001 0.04,-0.002 0.062,-0.003c0.021,-0.001 0.04,-0.001 0.057,-0.002l0,-0.016c0,-0.053 -0.03,-0.08 -0.089,-0.08c-0.023,0 -0.046,0.003 -0.068,0.008c-0.021,0.005 -0.041,0.013 -0.059,0.022l-0.029,-0.111c0.023,-0.013 0.051,-0.024 0.082,-0.032c0.032,-0.009 0.067,-0.013 0.104,-0.013c0.069,0 0.122,0.018 0.161,0.053c0.039,0.036 0.058,0.09 0.058,0.161l0,0.286l-0.154,0l0,-0.048Zm-0.087,-0.047c0.015,0 0.03,-0.002 0.043,-0.006c0.014,-0.004 0.027,-0.009 0.038,-0.016l0,-0.073c-0.016,0.001 -0.03,0.003 -0.043,0.005c-0.013,0.001 -0.025,0.003 -0.037,0.004c-0.033,0.004 -0.049,0.019 -0.049,0.046c0,0.012 0.004,0.022 0.013,0.029c0.008,0.007 0.02,0.011 0.035,0.011Z" style="fill:rgb(48,51,51);fill-rule:nonzero;"/>            </g>            <g transform="matrix(50.5263,0,0,64,532.952,457.184)">                <path d="M0.06,0l0,-0.49l0.154,0l0,0.064c0.015,-0.027 0.035,-0.046 0.06,-0.057c0.024,-0.011 0.05,-0.017 0.077,-0.017c0.033,0 0.06,0.007 0.083,0.02c0.023,0.014 0.041,0.032 0.055,0.055c0.015,0.023 0.025,0.049 0.031,0.078c0.007,0.03 0.01,0.061 0.01,0.094l0,0.253l-0.16,0l0,-0.256c0,-0.041 -0.006,-0.071 -0.019,-0.09c-0.013,-0.019 -0.032,-0.028 -0.058,-0.028c-0.017,0 -0.031,0.004 -0.043,0.011c-0.013,0.007 -0.023,0.016 -0.03,0.027l0,0.336l-0.16,0Z" style="fill:rgb(48,51,51);fill-rule:nonzero;"/>            </g>            <g transform="matrix(50.5263,0,0,64,562.408,457.184)">                <path d="M0.524,0l-0.153,0l0,-0.062c-0.015,0.022 -0.035,0.039 -0.059,0.053c-0.025,0.013 -0.054,0.019 -0.088,0.019c-0.027,0 -0.053,-0.006 -0.077,-0.017c-0.024,-0.012 -0.045,-0.029 -0.063,-0.051c-0.017,-0.021 -0.031,-0.047 -0.041,-0.078c-0.01,-0.031 -0.015,-0.065 -0.015,-0.103c0,-0.043 0.007,-0.08 0.02,-0.113c0.014,-0.033 0.032,-0.06 0.055,-0.082c0.024,-0.022 0.05,-0.038 0.081,-0.049c0.031,-0.011 0.063,-0.017 0.098,-0.017c0.017,0 0.033,0.001 0.046,0.004c0.013,0.002 0.025,0.005 0.036,0.008l0,-0.218l0.16,0l0,0.706Zm-0.242,-0.113c0.034,0 0.061,-0.011 0.082,-0.034l0,-0.225c-0.015,-0.005 -0.034,-0.008 -0.057,-0.008c-0.04,0 -0.07,0.012 -0.09,0.037c-0.019,0.025 -0.029,0.058 -0.029,0.101c0,0.038 0.007,0.069 0.022,0.093c0.015,0.024 0.039,0.036 0.072,0.036Z" style="fill:rgb(48,51,51);fill-rule:nonzero;"/>            </g>            <g transform="matrix(50.5263,0,0,64,240,520.778)">                <path d="M0.291,-0.5c0.025,0 0.05,0.003 0.075,0.008c0.024,0.005 0.045,0.013 0.063,0.022l-0.016,0.114c-0.013,-0.005 -0.028,-0.01 -0.045,-0.014c-0.018,-0.004 -0.036,-0.006 -0.054,-0.006c-0.043,0 -0.075,0.012 -0.096,0.035c-0.021,0.023 -0.032,0.055 -0.032,0.096c0,0.041 0.011,0.073 0.032,0.096c0.021,0.023 0.053,0.035 0.096,0.035c0.018,0 0.036,-0.002 0.053,-0.006c0.018,-0.004 0.033,-0.009 0.046,-0.014l0.016,0.114c-0.018,0.009 -0.039,0.017 -0.064,0.022c-0.024,0.005 -0.049,0.008 -0.074,0.008c-0.041,0 -0.078,-0.006 -0.111,-0.019c-0.034,-0.012 -0.061,-0.029 -0.084,-0.052c-0.023,-0.022 -0.04,-0.049 -0.052,-0.08c-0.012,-0.031 -0.018,-0.066 -0.018,-0.104c0,-0.038 0.006,-0.073 0.018,-0.104c0.012,-0.031 0.029,-0.058 0.052,-0.081c0.023,-0.022 0.051,-0.039 0.084,-0.051c0.033,-0.013 0.07,-0.019 0.111,-0.019Z" style="fill:rgb(48,51,51);fill-rule:nonzero;"/>            </g>            <g transform="matrix(50.5263,0,0,64,262.939,520.778)">                <path d="M0.373,-0.352l-0.019,0c-0.063,0 -0.108,0.016 -0.134,0.048l0,0.304l-0.16,0l0,-0.49l0.155,0l0,0.082c0.009,-0.027 0.024,-0.048 0.043,-0.063c0.019,-0.015 0.045,-0.023 0.076,-0.023c0.009,0 0.017,0.001 0.024,0.002c0.006,0.001 0.012,0.002 0.019,0.004l-0.004,0.136Z" style="fill:rgb(48,51,51);fill-rule:nonzero;"/>            </g>            <g transform="matrix(50.5263,0,0,64,282.088,520.778)">                <path d="M0.548,-0.245c0,0.036 -0.006,0.07 -0.017,0.101c-0.011,0.03 -0.028,0.057 -0.05,0.08c-0.022,0.023 -0.049,0.041 -0.082,0.054c-0.033,0.013 -0.07,0.02 -0.112,0.02c-0.042,0 -0.079,-0.007 -0.112,-0.02c-0.033,-0.013 -0.06,-0.031 -0.082,-0.054c-0.022,-0.023 -0.039,-0.05 -0.05,-0.081c-0.011,-0.031 -0.017,-0.064 -0.017,-0.1c0,-0.036 0.006,-0.07 0.017,-0.101c0.011,-0.031 0.028,-0.058 0.05,-0.081c0.022,-0.023 0.049,-0.041 0.082,-0.053c0.033,-0.014 0.07,-0.02 0.112,-0.02c0.042,0 0.079,0.007 0.112,0.02c0.033,0.012 0.06,0.03 0.082,0.053c0.022,0.023 0.039,0.05 0.05,0.081c0.011,0.031 0.017,0.065 0.017,0.101Zm-0.16,0c0,-0.017 -0.002,-0.034 -0.005,-0.051c-0.003,-0.016 -0.009,-0.031 -0.017,-0.044c-0.007,-0.013 -0.017,-0.023 -0.03,-0.031c-0.013,-0.007 -0.03,-0.011 -0.049,-0.011c-0.019,0 -0.035,0.004 -0.048,0.012c-0.013,0.007 -0.024,0.017 -0.031,0.03c-0.008,0.013 -0.014,0.028 -0.017,0.044c-0.003,0.017 -0.005,0.034 -0.005,0.051c0,0.017 0.002,0.034 0.005,0.05c0.003,0.017 0.009,0.032 0.017,0.045c0.007,0.013 0.017,0.023 0.031,0.031c0.012,0.007 0.029,0.011 0.048,0.011c0.019,0 0.035,-0.004 0.048,-0.011c0.014,-0.008 0.024,-0.018 0.031,-0.031c0.008,-0.013 0.014,-0.028 0.017,-0.044c0.003,-0.017 0.005,-0.034 0.005,-0.051Z" style="fill:rgb(48,51,51);fill-rule:nonzero;"/>            </g>            <g transform="matrix(50.5263,0,0,64,310.989,520.778)">                <path d="M0.51,0l-0.108,-0.313l-0.108,0.313l-0.15,0l-0.139,-0.49l0.153,0l0.069,0.295l0.1,-0.295l0.15,0l0.1,0.295l0.069,-0.295l0.153,0l-0.139,0.49l-0.15,0Z" style="fill:rgb(48,51,51);fill-rule:nonzero;"/>            </g>            <g transform="matrix(50.5263,0,0,64,351.613,520.778)">                <path d="M0.524,0l-0.153,0l0,-0.062c-0.015,0.022 -0.035,0.039 -0.059,0.053c-0.025,0.013 -0.054,0.019 -0.088,0.019c-0.027,0 -0.053,-0.006 -0.077,-0.017c-0.024,-0.012 -0.045,-0.029 -0.063,-0.051c-0.017,-0.021 -0.031,-0.047 -0.041,-0.078c-0.01,-0.031 -0.015,-0.065 -0.015,-0.103c0,-0.043 0.007,-0.08 0.02,-0.113c0.014,-0.033 0.032,-0.06 0.055,-0.082c0.024,-0.022 0.05,-0.038 0.081,-0.049c0.031,-0.011 0.063,-0.017 0.098,-0.017c0.017,0 0.033,0.001 0.046,0.004c0.013,0.002 0.025,0.005 0.036,0.008l0,-0.218l0.16,0l0,0.706Zm-0.242,-0.113c0.034,0 0.061,-0.011 0.082,-0.034l0,-0.225c-0.015,-0.005 -0.034,-0.008 -0.057,-0.008c-0.04,0 -0.07,0.012 -0.09,0.037c-0.019,0.025 -0.029,0.058 -0.029,0.101c0,0.038 0.007,0.069 0.022,0.093c0.015,0.024 0.039,0.036 0.072,0.036Z" style="fill:rgb(48,51,51);fill-rule:nonzero;"/>            </g>            <g transform="matrix(50.5263,0,0,64,381.12,520.778)">                <path d="M0.091,0l0,-0.368l-0.076,0l0,-0.122l0.076,0l0,-0.014c0,-0.073 0.019,-0.126 0.057,-0.16c0.038,-0.035 0.088,-0.052 0.151,-0.052c0.016,0 0.033,0.001 0.05,0.004c0.017,0.002 0.032,0.006 0.047,0.012l-0.012,0.114c-0.016,-0.005 -0.033,-0.007 -0.052,-0.007c-0.025,0 -0.045,0.006 -0.059,0.018c-0.015,0.012 -0.022,0.033 -0.022,0.064l0,0.021l0.112,0l0,0.122l-0.112,0l0,0.368l-0.16,0Z" style="fill:rgb(48,51,51);fill-rule:nonzero;"/>            </g>            <g transform="matrix(50.5263,0,0,64,399.916,520.778)">                <path d="M0.519,-0.49l0,0.49l-0.154,0l0,-0.064c-0.019,0.028 -0.04,0.047 -0.063,0.058c-0.023,0.011 -0.048,0.016 -0.074,0.016c-0.033,0 -0.06,-0.007 -0.082,-0.021c-0.023,-0.013 -0.041,-0.031 -0.054,-0.054c-0.014,-0.023 -0.024,-0.049 -0.03,-0.079c-0.006,-0.029 -0.009,-0.06 -0.009,-0.093l0,-0.253l0.16,0l0,0.256c0,0.041 0.006,0.07 0.017,0.09c0.011,0.018 0.03,0.028 0.056,0.028c0.017,0 0.031,-0.004 0.044,-0.011c0.012,-0.007 0.022,-0.016 0.029,-0.027l0,-0.336l0.16,0Z" style="fill:rgb(48,51,51);fill-rule:nonzero;"/>            </g>            <g transform="matrix(50.5263,0,0,64,429.171,520.778)">                <path d="M0.06,0l0,-0.49l0.154,0l0,0.064c0.015,-0.027 0.035,-0.046 0.06,-0.057c0.024,-0.011 0.05,-0.017 0.077,-0.017c0.033,0 0.06,0.007 0.083,0.02c0.023,0.014 0.041,0.032 0.055,0.055c0.015,0.023 0.025,0.049 0.031,0.078c0.007,0.03 0.01,0.061 0.01,0.094l0,0.253l-0.16,0l0,-0.256c0,-0.041 -0.006,-0.071 -0.019,-0.09c-0.013,-0.019 -0.032,-0.028 -0.058,-0.028c-0.017,0 -0.031,0.004 -0.043,0.011c-0.013,0.007 -0.023,0.016 -0.03,0.027l0,0.336l-0.16,0Z" style="fill:rgb(48,51,51);fill-rule:nonzero;"/>            </g>            <g transform="matrix(50.5263,0,0,64,458.627,520.778)">                <path d="M0.524,0l-0.153,0l0,-0.062c-0.015,0.022 -0.035,0.039 -0.059,0.053c-0.025,0.013 -0.054,0.019 -0.088,0.019c-0.027,0 -0.053,-0.006 -0.077,-0.017c-0.024,-0.012 -0.045,-0.029 -0.063,-0.051c-0.017,-0.021 -0.031,-0.047 -0.041,-0.078c-0.01,-0.031 -0.015,-0.065 -0.015,-0.103c0,-0.043 0.007,-0.08 0.02,-0.113c0.014,-0.033 0.032,-0.06 0.055,-0.082c0.024,-0.022 0.05,-0.038 0.081,-0.049c0.031,-0.011 0.063,-0.017 0.098,-0.017c0.017,0 0.033,0.001 0.046,0.004c0.013,0.002 0.025,0.005 0.036,0.008l0,-0.218l0.16,0l0,0.706Zm-0.242,-0.113c0.034,0 0.061,-0.011 0.082,-0.034l0,-0.225c-0.015,-0.005 -0.034,-0.008 -0.057,-0.008c-0.04,0 -0.07,0.012 -0.09,0.037c-0.019,0.025 -0.029,0.058 -0.029,0.101c0,0.038 0.007,0.069 0.022,0.093c0.015,0.024 0.039,0.036 0.072,0.036Z" style="fill:rgb(48,51,51);fill-rule:nonzero;"/>            </g>            <g transform="matrix(50.5263,0,0,64,488.135,520.778)">                <path d="M0.06,0l0,-0.49l0.16,0l0,0.49l-0.16,0Zm-0.01,-0.633c0,-0.025 0.008,-0.047 0.025,-0.064c0.017,-0.017 0.038,-0.026 0.065,-0.026c0.027,0 0.048,0.009 0.065,0.026c0.017,0.017 0.025,0.039 0.025,0.064c0,0.025 -0.008,0.047 -0.025,0.064c-0.017,0.017 -0.038,0.026 -0.065,0.026c-0.027,0 -0.048,-0.009 -0.065,-0.026c-0.017,-0.017 -0.025,-0.039 -0.025,-0.064Z" style="fill:rgb(48,51,51);fill-rule:nonzero;"/>            </g>            <g transform="matrix(50.5263,0,0,64,502.282,520.778)">                <path d="M0.06,0l0,-0.49l0.154,0l0,0.064c0.015,-0.027 0.035,-0.046 0.06,-0.057c0.024,-0.011 0.05,-0.017 0.077,-0.017c0.033,0 0.06,0.007 0.083,0.02c0.023,0.014 0.041,0.032 0.055,0.055c0.015,0.023 0.025,0.049 0.031,0.078c0.007,0.03 0.01,0.061 0.01,0.094l0,0.253l-0.16,0l0,-0.256c0,-0.041 -0.006,-0.071 -0.019,-0.09c-0.013,-0.019 -0.032,-0.028 -0.058,-0.028c-0.017,0 -0.031,0.004 -0.043,0.011c-0.013,0.007 -0.023,0.016 -0.03,0.027l0,0.336l-0.16,0Z" style="fill:rgb(48,51,51);fill-rule:nonzero;"/>            </g>            <g transform="matrix(50.5263,0,0,64,531.739,520.778)">                <path d="M0.516,-0.49l0,0.102l-0.072,0l-0.001,-0.001c0.007,0.02 0.011,0.039 0.011,0.058c0,0.023 -0.005,0.044 -0.014,0.064c-0.009,0.02 -0.022,0.038 -0.039,0.053c-0.018,0.015 -0.04,0.026 -0.067,0.035c-0.026,0.009 -0.056,0.013 -0.091,0.013l-0.006,0c-0.003,0.005 -0.005,0.009 -0.007,0.014c-0.001,0.004 -0.002,0.009 -0.002,0.014c0,0.009 0.004,0.016 0.011,0.02c0.007,0.005 0.015,0.007 0.026,0.008l0.086,0.005c0.049,0.003 0.089,0.016 0.118,0.038c0.03,0.023 0.045,0.056 0.045,0.1c0,0.031 -0.008,0.057 -0.025,0.08c-0.016,0.023 -0.037,0.042 -0.065,0.057c-0.027,0.015 -0.057,0.027 -0.091,0.034c-0.034,0.008 -0.069,0.012 -0.104,0.012c-0.028,0 -0.055,-0.002 -0.081,-0.006c-0.027,-0.004 -0.05,-0.011 -0.071,-0.021c-0.021,-0.009 -0.037,-0.022 -0.05,-0.038c-0.013,-0.016 -0.019,-0.036 -0.019,-0.059c0,-0.015 0.003,-0.029 0.01,-0.041c0.007,-0.011 0.016,-0.021 0.027,-0.03c0.011,-0.009 0.024,-0.016 0.039,-0.022c0.015,-0.006 0.03,-0.011 0.045,-0.014c-0.029,-0.015 -0.044,-0.037 -0.044,-0.067c0,-0.013 0.003,-0.024 0.008,-0.034c0.005,-0.01 0.011,-0.019 0.018,-0.027c0.007,-0.007 0.016,-0.014 0.025,-0.02c0.009,-0.005 0.017,-0.01 0.025,-0.013c-0.043,-0.011 -0.075,-0.031 -0.096,-0.059c-0.022,-0.027 -0.033,-0.059 -0.033,-0.096c0,-0.024 0.005,-0.046 0.014,-0.067c0.009,-0.02 0.022,-0.038 0.04,-0.053c0.017,-0.015 0.039,-0.027 0.066,-0.036c0.026,-0.009 0.056,-0.013 0.091,-0.013c0.015,0 0.029,0.001 0.042,0.003c0.013,0.001 0.025,0.004 0.036,0.007l0.195,0Zm-0.32,0.492c-0.008,0.006 -0.016,0.013 -0.025,0.022c-0.009,0.009 -0.013,0.02 -0.013,0.034c0,0.019 0.008,0.032 0.023,0.041c0.016,0.009 0.038,0.013 0.066,0.013c0.015,0 0.029,-0.002 0.043,-0.005c0.015,-0.003 0.028,-0.007 0.039,-0.012c0.011,-0.006 0.02,-0.013 0.027,-0.021c0.007,-0.007 0.01,-0.016 0.01,-0.026c0,-0.012 -0.004,-0.021 -0.013,-0.026c-0.008,-0.005 -0.021,-0.009 -0.039,-0.01l-0.118,-0.01Zm0.047,-0.266c0.023,0 0.041,-0.006 0.053,-0.019c0.012,-0.012 0.018,-0.029 0.018,-0.05c0,-0.021 -0.006,-0.038 -0.018,-0.05c-0.012,-0.013 -0.03,-0.019 -0.053,-0.019c-0.023,0 -0.041,0.006 -0.053,0.019c-0.012,0.012 -0.018,0.029 -0.018,0.05c0,0.021 0.006,0.038 0.018,0.05c0.012,0.013 0.03,0.019 0.053,0.019Z" style="fill:rgb(48,51,51);fill-rule:nonzero;"/>            </g>        </g>    </g></svg>