<?xml version="1.0" encoding="UTF-8" standalone="no"?><!DOCTYPE svg PUBLIC "-//W3C//DTD SVG 1.1//EN" "http://www.w3.org/Graphics/SVG/1.1/DTD/svg11.dtd"><svg width="100%" height="100%" viewBox="0 0 1024 512" version="1.1" xmlns="http://www.w3.org/2000/svg" xmlns:xlink="http://www.w3.org/1999/xlink" xml:space="preserve" style="fill-rule:evenodd;clip-rule:evenodd;stroke-linejoin:round;stroke-miterlimit:2;"><title>ING</title><desc></desc>    <g transform="matrix(8.55002,0,0,8.55002,-6982.01,-4047.39)">        <g transform="matrix(0.182932,0,0,0.182911,816.84,494.752)">            <path d="M363.27,83.575l0,31.408c-17.19,8.593 -33.78,13.037 -50.37,13.037c-45.34,0 -72.6,-26.963 -72.6,-60.741c0,-36.445 31.11,-66.67 71.11,-66.67c9.78,0 17.19,1.48 24.89,4.15c5.63,1.78 9.19,3.85 12.74,3.85c2.97,0 3.86,-5.03 4.15,-8l4.45,0l3.85,41.781l-5.04,0c-2.37,-8 -6.22,-15.111 -11.26,-19.851c-8.29,-8.3 -19.55,-12.45 -32.59,-12.45c-27.26,0 -43.26,21.634 -43.26,53.931c0,32.296 19.26,54.222 45.33,54.222c7.71,0 14.82,-1.778 23.41,-5.63l0,-32c0,-10.37 -1.78,-14.222 -16.3,-14.222l0,-4.741l54.82,0l0,4.741c-13.63,0 -13.33,4.148 -13.33,17.185m-151.12,-50.963l0,93.038l-7.4,0l-93.34,-96.297c0.6,2.667 0.6,5.037 0.6,7.407l0,58.667c0,18.074 0,24.593 16.29,24.593l0,4.741l-43.553,0l0,-4.741c16.293,0 16.293,-7.704 16.293,-24.593l0,-66.958c0,-9.78 0,-20.75 -17.182,-20.75l0,-4.74l41.182,0l76.74,78.818c-0.59,-2.074 -0.59,-3.259 -0.59,-6.518l0,-42.667c0,-17.483 0.59,-24.893 -16,-24.893l0,-4.74l43.85,0l0,4.74c-16,0 -16.89,7.12 -16.89,24.893m-212.144,92.149l0,-4.741c10.667,0 17.778,-0.889 17.778,-16l0,-80.301c0,-15.4 -5.63,-16 -17.778,-16l0,-4.74l61.63,0l0,4.74c-12.445,0 -17.778,0.6 -17.778,16l0,80.301c0,15.111 6.519,16 17.778,16l0,4.741l-61.63,0Z" style="fill:rgb(0,0,102);fill-rule:nonzero;"/>        </g>        <g transform="matrix(0.182932,0,0,0.182911,816.84,487.762)">            <path d="M558.23,146.684l-4.45,0.296c1.78,0.889 1.78,2.963 1.78,3.556c0,1.185 -0.89,2.667 -1.78,3.259c-0.59,-0.592 -0.59,-2.074 -1.48,-3.259c-0.89,0 -1.48,2.074 -1.48,2.963c0,3.851 1.78,6.814 2.96,9.481l4.15,0c-0.59,-3.556 -1.48,-6.518 -1.48,-10.37c0,-2.074 1.48,-4.741 1.78,-5.926m93.92,-40c0,-18.963 -7.7,-38.222 -21.63,-51.855c-5.92,-6.22 -12.74,-9.18 -18.07,-15.4c-2.67,-2.37 -4.74,-5.04 -6.52,-8.6c-2.07,-2.07 -3.55,-3.55 -6.22,-4.74c0.59,1.19 0.89,2.67 1.48,3.85l-0.59,0c-2.08,0 -4.15,-1.18 -5.93,-2.66l1.78,-1.48c-0.59,-0.89 -1.78,-0.89 -2.67,-0.89c-6.81,-1.48 -13.33,2.37 -20.44,3.85l0,0.89c4.44,1.18 5.33,6.52 8,9.18l2.37,0c0.89,0 2.37,0.6 3.26,0.6c0,-0.6 -0.89,-2.37 -0.89,-2.37c0.89,-0.89 1.78,-0.89 2.67,0c2.07,1.18 5.03,-0.89 7.11,2.37c-2.37,0 -5.04,0 -7.11,1.48c0,0.29 1.18,1.18 0.59,2.07c-2.07,-0.89 -4.74,0 -5.63,-1.78l-0.3,0.6c2.67,2.96 6.52,5.63 10.37,6.81c5.63,0.89 10.37,-1.78 16,-0.3c19.86,9.49 33.78,32.005 33.78,54.523c0,32 -18.07,45.037 -29.92,45.037c-2.08,0 -5.63,-1.185 -6.82,-2.666c1.19,-4.741 2.08,-9.778 2.08,-17.778c0,-18.667 -7.41,-38.519 -17.19,-48.889c-4.74,-4.741 -10.07,-8.593 -15.7,-8.593c-2.67,0 -5.04,0 -6.82,2.074c-2.37,1.778 -3.55,5.334 -2.96,7.408c-3.56,2.667 -9.19,3.852 -13.63,3.852c-4.74,0 -10.67,-1.778 -16.3,-5.926l0,-6.519c-1.48,-0.592 -5.92,-3.259 -3.55,-5.333c1.18,0.59 2.07,1.19 2.66,1.778c-0.59,-2.968 -0.59,-6.518 -2.66,-9.188c-0.89,0 -2.37,0 -3.56,-0.89c-1.18,-1.18 -2.67,-2.96 -2.67,-5.03c1.49,2.07 3.56,1.18 4.75,2.66c-2.08,-5.33 -1.19,-7.4 -5.04,-15.4c-0.89,-3.86 -4.74,-5.93 -7.41,-8.6c-1.18,-0.89 -1.78,-2.07 -3.55,-2.07c-1.49,-0.59 -1.49,-2.67 -1.49,-3.85c0.3,0 1.49,0.89 2.37,1.18c-2.37,-5.92 -4.14,-12.44 -9.77,-16l-1.48,0.89l-6.82,0c0.89,-0.89 2.67,-1.18 3.85,-2.07c-1.18,-1.48 -2.07,-1.78 -4.74,-1.78c-1.18,0.3 -2.96,1.78 -4.74,1.78l-0.59,0c0,-1.48 -0.3,-3.26 2.37,-4.15c-2.67,-0.3 -4.74,-0.3 -8,0c-0.3,2.37 -1.78,3.55 -1.78,5.33c-1.18,0.89 -1.48,2.08 -2.96,3.56c0,-2.67 1.48,-5.34 1.78,-8c-1.78,0.59 -3.86,1.78 -4.75,1.78c-3.55,-1.78 -7.7,-3.56 -9.48,-3.56c2.67,1.78 1.19,5.04 1.78,7.11l-1.78,-0.89c-0.59,-1.78 -2.66,-2.96 -2.96,-5.33c-2.67,0 -4.44,0.89 -6.52,2.37l0,0.3c1.19,0 2.96,1.48 3.85,2.66c-2.96,0 -5.33,-1.18 -8.29,-1.18c0,0 0,-0.6 -0.3,-0.6c-1.48,0.6 -2.67,1.78 -3.55,2.67c-2.97,2.67 -5.34,4.74 -6.52,8.59c0.89,0 2.07,0 2.66,0.6c-1.77,0.29 -2.66,2.37 -4.44,2.96l0,6.52c-1.19,1.18 -2.96,2.37 -3.85,5.04c-2.08,7.11 -2.67,14.81 -2.67,23.4c-0.3,1.78 -1.18,2.37 -2.07,2.67l0,6.814c0,0 2.66,-2.374 3.85,-3.264l0,5.634c-1.78,0 -2.96,2.074 -2.96,3.26c0,1.777 0.29,3.555 0.29,5.333c0,0.889 0,0.889 0.59,1.778c0,-0.889 0.89,-1.778 2.08,-2.074c0,0 0.89,-0.889 2.67,-0.889c-1.49,1.185 -1.78,2.963 -2.67,4.741l-1.19,1.185c0,0 -0.59,0.889 -0.59,1.481c1.78,8.889 4.45,16.889 8,25.482c-3.55,5.629 -7.41,16.296 -10.07,26.666c-2.08,-2.074 -5.34,-2.37 -7.71,-2.37c-2.66,0.296 -5.33,1.185 -7.11,3.852c-2.66,-1.482 -5.92,-0.889 -7.7,0.889c-3.85,3.259 -3.85,5.037 -3.85,7.703c-0.89,0.889 -2.67,2.963 -2.67,6.223c0,3.851 0.3,6.221 2.67,9.777l65.77,0c-0.59,-1.185 -1.18,-2.963 -2.07,-3.852c-1.48,-2.666 -0.59,-5.925 -0.59,-8.592c1.48,-2.667 2.66,-5.333 4.44,-7.408c0.3,-1.185 0,-1.185 0.3,-1.777l2.96,-0.889c1.78,0 3.26,-1.185 5.33,-1.185c1.19,2.074 1.19,-1.482 3.56,-2.371c4.74,-0.592 9.48,0 12.15,3.556c0,0.889 0.29,0.889 0.29,1.481l-2.07,0c-2.67,-1.481 -5.63,-2.666 -8.59,-1.481c0,1.481 -0.59,1.481 -0.59,2.666l0,2.075c1.77,0 2.96,1.777 4.74,2.666c0.88,-1.185 3.55,-2.666 5.33,-2.666c2.07,0 5.04,1.481 5.04,4.74l0,4.741c1.77,1.778 3.85,2.37 6.22,3.259c-0.89,1.481 -2.37,1.481 -3.56,1.481l-3.55,0c-0.3,-0.296 -1.19,-0.296 -1.19,-1.481c-1.18,1.481 -2.07,3.259 -2.96,5.037l50.67,0c-0.89,-1.778 -1.78,-2.963 -2.37,-3.852c-0.6,-2.666 -0.6,-5.925 -0.6,-8.592l4.74,-6.519c2.37,0 4.74,-0.889 9.49,-1.481c0.88,-1.185 0,-2.074 3.85,-2.074c2.96,0 5.33,0.889 6.22,1.481c0.3,0.593 0.3,0.593 0,1.482c-0.89,0.889 -2.67,-0.889 -4.15,-0.297c-0.59,0.889 0.59,1.186 0.59,2.075c0.89,0.889 -3.85,-0.889 -3.85,-0.889c0,0 -0.89,2.666 -1.48,3.555c0,0 1.78,1.778 2.67,2.667c0.89,1.185 -1.19,2.667 -1.19,3.852c-0.89,-0.593 -2.66,-1.778 -2.66,-1.185c-0.89,3.259 0,6.221 -0.6,9.777l5.04,0l0.3,-7.407c0.59,-4.148 5.63,-12.148 8.59,-12.148c1.78,0 2.96,0.889 4.44,1.778c0.89,1.777 2.97,2.666 2.97,3.555c0,0.889 -1.19,1.185 -3.56,1.185c-0.89,0 -0.89,-1.185 -2.07,-2.074l-2.67,2.667c0,0 3.26,2.667 3.26,4.148c0,2.37 -0.59,3.259 -1.78,4.444l-2.67,-5.333c-1.18,0 -3.55,2.667 -3.55,4.148c0,1.481 -0.89,2.37 -0.89,5.037l26.96,0c2.97,0 5.63,-0.889 8.6,-2.667l5.33,0c10.67,0 19.55,-3.259 27.26,-10.666c10.07,-10.37 16.29,-26.963 16.29,-42.963m-151.11,45.037c0,-1.778 -1.18,-2.074 -2.96,-2.074c-0.89,0 -2.96,1.185 -2.96,2.074c0,1.778 -0.89,11.259 -0.89,11.259l2.96,0c1.19,-3.852 3.85,-9.185 3.85,-11.259m-9.48,-0.296c-0.59,0 0.3,0.889 -3.85,-3.556c-0.89,0 -2.37,2.667 -2.37,3.556c0,3.259 0.89,7.999 2.37,11.555l3.26,0c0,-3.852 0.59,-8.296 0.59,-11.555m-7.41,11.555c-2.07,-3.852 -2.66,-9.777 -2.66,-11.259c0,-2.074 0,-5.037 1.48,-7.407l-4.74,0.889c-1.48,1.777 -1.78,2.666 -1.78,3.555l2.07,-0.889c0.3,0 0.89,0.889 1.19,1.778c-0.3,2.074 -2.96,2.074 -3.85,2.963c-1.19,4.444 2.66,6.814 2.96,10.37l5.33,0Zm121.78,-121.781c-0.89,-1.77 -2.66,-2.37 -3.85,-2.37c-1.48,-1.77 -2.96,-4.14 -4.74,-4.14c1.18,0 2.96,-1.19 5.04,-1.19c0.89,2.07 2.66,3.56 3.26,5.33l0.29,2.37Zm-13.03,-9.18l-4.75,0c-0.88,-1.19 -2.07,0 -2.96,0c-0.89,0 -1.48,0 -2.96,-1.19c2.37,0 3.85,-1.18 5.92,-2.07c1.78,1.18 3.56,1.78 4.75,3.26m-10.38,50.073c-2.96,-0.889 -4.74,-2.371 -7.4,-2.371c-0.89,0 -4.74,1.482 -5.04,2.371c-1.48,-1.778 0.89,-5.334 2.37,-6.223c1.78,-0.889 2.67,-0.296 3.56,0c0,2.667 2.96,1.482 4.74,2.371c0.89,1.185 1.48,2.074 1.77,3.852m-0.29,6.518c-2.67,0 -3.26,-0.593 -5.04,-0.593c-2.07,0 -4.74,0.889 -5.92,2.963c-0.89,-1.481 -0.3,-2.37 0,-3.851c1.18,-1.186 3.55,-2.963 5.33,-2.963c2.96,0 5.63,2.074 5.63,4.444m9.78,9.482c-3.26,-2.075 -8.6,-3.556 -11.56,-3.556c-1.78,0 -7.11,2.074 -8.89,3.852l-0.59,-3.852c2.37,-0.296 2.37,-2.667 4.15,-2.667c1.48,0 2.96,-0.296 4.44,-0.296c1.19,0 2.08,-0.889 2.67,-0.889c2.07,0 1.18,2.074 2.37,2.074c1.48,0 2.37,-0.889 3.26,-0.889c2.07,0 3.85,3.556 4.15,6.223m1.48,9.481c-3.26,0 -6.22,-0.889 -6.52,-2.074c-0.89,-0.889 0,-2.667 -2.37,-2.667c-0.89,0 -2.08,1.185 -2.08,1.185c-0.88,0.593 -3.55,-1.185 -3.55,0c0,2.371 -1.78,3.26 -3.85,3.26c-0.89,0 -1.78,0 -2.67,-0.593l0,-4.444c5.63,0 5.33,-1.482 8,-1.482c1.78,0 2.96,0.889 4.15,0.889c2.37,0 0.89,-0.889 3.26,-0.889c2.07,0 2.96,1.482 4.15,2.074c0,1.185 1.48,2.963 1.48,4.741m-4.15,9.481c-1.19,-0.296 -4.15,-0.888 -4.15,-2.074c0,-1.777 -0.89,-2.074 -2.96,-2.074c-1.78,0 -3.26,0.297 -5.63,1.186c0,0 -1.48,-1.778 -1.78,-3.556c0.89,-0.296 4.15,-1.185 5.93,-1.185c2.96,0 6.22,0 6.22,1.185c0,1.778 2.37,2.37 2.37,6.518m-75.56,-68.145c0,0.59 -0.88,4.44 -0.88,4.44l-3.56,0.89l2.07,-9.48c0.89,1.78 2.37,3.55 2.37,4.15m83.86,83.257c0,2.666 0,3.555 -1.19,5.629l-2.67,-3.852c0.89,-1.185 0.89,-2.963 2.08,-5.037c0.59,0 1.78,2.963 1.78,3.26m-10.37,-5.63c-2.97,0 -1.19,-5.926 -7.71,-5.926c-1.48,0 -2.37,2.074 -3.85,2.667c0,-0.593 0.3,-3.26 0.3,-3.26c0,-0.592 0.59,-2.37 2.07,-3.259c3.56,0 2.67,1.185 5.33,2.074c1.19,0.593 2.08,1.185 3.86,1.185l0,6.519Zm-27.26,-24.593c-3.86,-2.074 -6.23,-5.926 -9.49,-10.074c3.26,0 4.15,3.556 6.82,4.148c0.89,0.593 1.78,1.186 2.67,2.371l0,3.555Zm-37.34,-32c-2.66,0 -3.85,-1.481 -5.03,-3.854c0,-1.48 -0.6,-3.26 0,-5.33c0.88,1.78 0.88,2.67 1.48,3.55c1.78,-0.88 1.78,1.19 2.37,1.78c0.29,1.188 1.18,2.373 1.18,3.854m72,74.074c-0.89,1.186 -0.89,1.186 -1.18,2.667c0,-2.37 -2.67,-3.556 -4.45,-7.407l1.78,-2.963c1.19,0.592 2.96,2.074 2.96,4.148c0,0 -0.29,1.481 0,2.074c0,0.592 0.89,0.592 0.89,1.481m-8.59,-12.74c0,1.777 -0.59,2.37 -0.89,4.444c-2.96,-0.296 -2.96,-3.852 -3.55,-4.444c-2.08,-2.371 -5.04,-0.297 -7.41,-0.297c-0.89,-2.666 0.59,-2.666 0.59,-4.444c1.19,0 2.37,-0.889 3.85,0c2.08,-0.889 3.56,1.481 5.63,1.481c0.3,0.889 1.19,2.963 1.78,3.26m-22.22,-17.778c0,1.778 -0.89,3.259 -0.3,4.741c-0.89,-2.371 -2.66,-5.037 -3.55,-7.704c0,-0.296 -0.6,-0.296 0.29,-0.889c0.6,0 2.37,0 2.37,0.593c0.3,0.889 1.19,2.074 1.19,3.259m-38.22,-34.074c-0.3,1.778 -2.08,0 -2.37,0l-4.15,0c-0.3,-0.889 -0.6,-1.185 -0.6,-2.074c1.49,-0.593 2.97,-1.482 4.15,-0.593c0.89,1.482 1.78,2.667 2.97,2.667m9.77,10.074c-1.48,1.185 -5.03,1.481 -7.4,-0.593l3.26,-1.777c1.48,1.481 3.25,1.777 4.14,2.37m22.52,24.593c0,2.666 -0.59,5.629 -0.59,8.592c-1.19,0 -1.19,-0.889 -1.19,-2.667c-0.59,-2.37 -1.48,-4.74 -2.37,-7.111c-0.59,-3.555 -2.96,-6.518 -4.74,-10.666c-0.29,-1.482 -2.37,-2.371 -4.14,-3.852c2.07,0 4.14,0 5.92,1.778c0,0.888 0.59,1.481 1.78,2.666c2.96,0 2.07,3.852 4.74,5.63c-1.19,1.185 -1.78,2.074 -2.67,2.963c1.48,0.889 2.67,1.481 3.26,2.667m-16.89,-13.038c0,1.186 -0.89,1.778 -1.77,2.667c0,0 -1.78,-2.074 -1.78,-2.963c0,-1.778 0,-2.666 0.29,-4.148c1.49,1.482 3.26,3.259 3.26,4.444m40.6,39.408c0,0.592 -0.89,1.481 -0.89,1.481c-2.08,-1.481 -3.56,-1.777 -5.93,-1.777c0,-1.778 -1.48,-3.852 -2.37,-3.852c-2.37,0 -2.07,1.481 -4.15,1.481l3.85,-3.852c0.3,-0.889 0.3,-0.889 1.19,-0.889c1.48,0.889 1.78,1.482 3.26,1.482c0,0.889 0,1.185 -0.59,2.37c1.18,0.889 2.07,-0.296 2.96,0.889c1.48,0.593 2.67,0.889 2.67,2.667m-34.97,-29.926c0,0.889 -1.48,1.778 -1.77,1.778c0,0 -2.08,-2.074 -2.67,-4.445c-0.3,-1.481 1.18,-4.74 1.18,-4.74c0.6,0 0.89,0.888 1.49,0.888c0.29,0.593 0,1.778 0.29,3.26c1.48,0.592 2.08,2.37 1.48,3.259m-33.77,-42.074c-5.34,-2.963 -10.97,-5.033 -17.49,-5.633c0,1.48 0,2.67 -0.29,3.26c5.03,2.373 9.78,4.743 14.22,8.595l0,3.852c-4.44,-4.444 -9.19,-8.593 -14.82,-10.074c-0.29,0.889 -2.07,1.778 -2.66,3.555c-2.96,-2.074 -6.52,-4.444 -9.78,-4.74c-1.48,0 -2.37,-4.738 -2.37,-4.738c2.37,-0.89 3.56,-2.08 4.44,-4.45l1.78,0c1.19,0 1.19,-0.89 1.19,-2.07c0,-2.67 -5.63,-2.67 -8.3,-2.67c-2.96,0 -5.04,0 -6.81,1.48c-0.89,0 -0.3,1.19 -0.3,2.08c0,0.29 1.19,1.18 1.19,1.18c0.88,0 1.77,-0.89 2.66,-0.89c-0.59,2.67 0.3,3.86 2.96,5.34l-0.29,4.15c-5.33,0 -8.89,2.365 -12.74,4.143c-1.19,-0.889 -2.08,-2.37 -2.97,-3.555c-5.33,1.777 -14.22,8.592 -14.22,8.592l0,-2.963c3.85,-3.555 8.89,-5.333 13.04,-7.407l0,-2.96c-1.78,-0.89 -3.56,0 -5.33,0c-3.86,0.29 -7.71,2.07 -10.37,4.15c0,-1.19 -0.6,-2.97 -0.6,-2.97c4.74,-2.66 10.97,-4.74 16.6,-3.85l0,-1.78c-0.3,-0.89 -0.3,-2.07 -1.19,-2.07c-2.67,-2.67 -5.33,-6.52 -5.33,-9.19l1.78,-0.89c-0.89,-2.66 -1.78,-8.88 0,-11.25c-2.67,-1.19 -5.34,-3.26 -6.23,-5.04c-0.89,-2.37 -1.48,-3.56 -2.07,-6.22c1.18,-2.67 2.07,-3.26 3.55,-5.93c0.89,0 2.08,-0.59 2.67,-1.19c2.08,-0.59 3.26,-2.66 5.93,-1.48c1.77,0 3.55,0.89 4.74,1.48c0,0.6 0,1.19 0.89,2.08c2.66,0 2.66,2.37 3.85,4.74c1.48,0.3 2.67,0.3 3.55,0.3c2.67,0.88 4.74,0.88 5.63,2.37c3.56,-2.37 6.82,-2.67 10.97,-2.37c0.29,-1.19 1.18,-2.97 1.48,-5.04c0.59,1.18 0.59,0 1.48,0c1.78,-1.48 3.85,-3.56 6.81,-2.67c1.78,1.19 4.75,0.59 6.52,2.67c1.19,1.78 2.08,4.15 3.56,6.52c-1.48,2.37 0,5.92 -2.67,7.11l-2.66,2.67c-0.89,0 -0.89,0.88 -2.08,0.88c1.19,3.26 0.3,7.41 -0.89,10.37c0.89,-0.29 2.08,-0.29 2.08,-1.77c0.59,0.59 0,1.48 0,1.77l0,1.49c0,2.07 -1.19,4.14 -2.97,5.92c-0.89,2.67 -2.96,6.22 -5.92,6.52l0,0.89c6.52,0 11.55,1.78 17.78,4.74l0,2.963Zm17.48,27.555l-2.08,0.593c-4.74,0 -6.81,-1.185 -9.18,-2.963c1.78,0 4.15,-2.074 4.15,-2.074c2.07,2.074 5.03,3.852 7.11,4.444m-11.86,-10.074c-2.66,0 -5.62,1.186 -7.11,-1.185c0.89,-0.592 1.78,-1.778 2.67,-2.666l4.44,3.851Zm35.26,40.593c0,2.37 -2.37,4.741 -3.26,6.518c0.89,-2.074 0.89,-6.518 0,-6.518c-0.88,-0.296 -2.66,0 -2.66,-0.889c0,-1.185 0.29,-2.963 0.29,-3.852c0,-1.778 -1.18,-2.37 -1.18,-3.555c0,-2.371 2.96,-2.963 3.85,-4.741c0.59,1.778 0.59,3.555 0.59,5.926c0,0.592 1.19,3.259 0,5.333c0,1.482 2.37,0.593 2.37,1.778m-9.77,-4.741c0,2.667 -1.78,4.741 -2.08,7.408c0,-2.667 -0.59,-4.741 -2.37,-6.519c0,-0.889 1.48,-0.889 0.59,-2.074c0,0 -2.66,-1.185 -2.66,-2.963c0,-1.778 1.78,-3.259 2.66,-4.444c0,-0.297 1.78,0.889 1.78,3.555c0,0.296 0,1.482 -0.59,2.667c-0.3,1.185 2.67,1.185 2.67,2.37m-36.15,-30.815c-2.08,0.593 -3.85,-1.481 -5.93,-2.37c-0.89,-2.667 -0.89,-5.333 -1.78,-6.518c1.78,1.185 5.63,1.185 4.75,5.037c0,1.481 1.77,2.37 2.96,3.851m12.15,12.149c-1.49,0 -4.74,0 -6.23,-1.186c-2.66,-1.185 -3.55,-2.074 -5.03,-3.555c1.77,-1.185 4.15,-1.185 5.03,-1.778c1.49,1.778 3.26,5.037 6.23,6.519m-73.19,-66.96l-2.96,0.89l0.59,-2.37c0.59,-1.19 1.19,-2.67 2.37,-3.86l0,5.34Zm56,60.441c-1.78,0.593 -4.74,1.482 -5.63,-0.593c-2.67,-4.148 -1.18,-7.407 0,-10.37c0.89,2.37 1.19,5.037 1.78,7.111c0.3,1.778 2.96,2.667 3.85,3.852m-12.44,-23.704c-0.6,2.667 -1.48,6.519 -4.15,8.297c0,-1.778 -0.89,-2.667 -1.78,-3.852c-0.3,0 0,1.185 -0.3,1.185c0,0.889 -0.88,2.667 -0.88,4.444c-0.89,0.297 -2.67,1.186 -4.45,0.297l0,-1.185c-0.3,-0.889 -0.3,-2.667 -0.3,-3.556l-0.29,-0.296c-1.48,0.296 -1.48,1.185 -1.48,2.074c-0.3,0.889 -1.19,1.778 -1.19,2.963c-1.78,0 -2.66,-0.297 -3.85,-1.185l0,-3.852c0,-0.889 0,-0.889 -0.59,-0.889l-2.08,2.074c-1.77,-1.185 -2.07,-4.741 -2.07,-6.815c6.81,-4.148 15.41,-2.667 20.74,-0.593c0.89,0.593 1.78,0.593 2.67,0.889m22.52,34.963l-1.49,0c-4.74,1.778 -8.59,-1.185 -12.44,-3.852c2.07,-0.888 5.04,-1.185 7.7,-1.185l1.19,2.667c1.48,0.296 3.55,1.778 5.04,2.37m-65.19,-65.78l-2.07,2.67c0.29,4.15 -1.19,7.41 -1.19,11.26l-2.37,-7.11c0.59,-1.48 0.89,-3.26 2.37,-5.63l3.26,-1.19Zm44.74,56.299c-2.07,-1.185 -6.22,-1.778 -5.33,-4.148c0.89,-2.371 2.37,-2.667 3.26,-3.556c0.29,2.963 0.59,5.333 2.07,7.704m40.3,44.74l-0.6,0c-0.88,-1.185 -1.18,-2.666 -2.07,-2.666c1.19,-4.741 -1.18,-8.593 -2.07,-12.445l0,-1.481c1.18,2.37 4.74,4.444 4.14,6.518c0.6,3.852 0.6,7.408 0.6,10.074m-10.08,-16.592c-2.07,0 -3.85,0 -5.03,-2.074c-0.6,0 -1.49,-1.185 -1.78,-0.296c-2.08,1.481 -4.45,-1.482 -7.11,-0.889c-1.19,1.185 -2.37,2.074 -4.74,2.37l0,-0.296c0,-1.185 0.89,-2.667 2.66,-3.556c2.67,0.889 4.74,-4.741 7.41,-1.778c1.19,0.593 2.67,0.593 3.56,0.593c2.96,1.185 3.85,3.852 5.03,5.926m-39.7,-34.963c0,2.963 -0.59,6.815 -3.56,8.296l-0.89,-4.444c1.19,-0.889 2.67,-1.778 4.45,-3.852m14.52,18.963c-0.89,0.889 -3.26,1.778 -5.04,1.778c-2.67,-2.074 -4.44,-4.741 -7.11,-8.297l7.11,1.482c1.19,0.889 3.85,3.852 5.04,5.037m26.07,24.889c-1.78,-1.482 -4.44,-1.482 -5.04,-3.556c-1.77,-0.592 -3.25,-0.592 -5.33,-0.592c-1.78,0.592 -3.85,0.592 -5.63,0.592c-0.29,0 0,-0.592 -0.89,-0.889c-2.66,0.889 -5.03,0.889 -7.7,3.556l2.07,-5.333c1.78,0 2.97,-0.889 3.86,-0.889c1.77,-0.297 2.96,-0.297 4.44,-0.297l0,0.297c4.74,0 10.37,-0.297 13.93,3.555l0.29,3.556Zm-49.78,-37.037c-2.66,-2.371 -4.74,-4.741 -4.74,-7.408c1.19,0 2.67,0 3.86,0.889c0,2.371 0.88,4.148 0.88,6.519m-8.29,-12.445l-1.19,5.63c-1.48,-2.667 -2.66,-5.333 -2.96,-8.296l4.15,2.666Zm62.52,58.371c-0.6,0.889 -1.49,3.555 -1.78,5.333c-0.89,-2.667 -1.78,-6.519 -4.74,-6.519c-0.59,-1.777 -0.89,-2.666 -2.67,-3.851l-3.55,-0.593c0.59,1.778 3.25,1.778 1.48,4.444c1.77,1.186 2.96,1.186 3.85,3.556c0.89,1.185 0,2.963 0.3,3.852l-2.38,1.185c0,-2.074 0.3,-6.518 -2.66,-7.407c-2.67,0.889 -2.96,-2.371 -4.74,-3.852c-0.89,0 -0.89,-2.074 -2.37,-1.185c-2.08,1.185 -4.74,0 -6.82,1.185l2.08,-3.556c1.77,-1.185 3.55,-0.592 5.33,-1.185l3.56,-0.296c3.25,0 6.22,1.481 9.77,2.963c1.78,0.889 2.67,2.074 2.67,4.148c0.89,0.592 2.67,0.592 2.67,1.778m-34.67,-20.148l-0.89,0c-0.59,0 -3.55,-1.482 -4.44,-2.371c-0.3,-1.185 -0.3,-2.37 -0.3,-2.37l3.26,0l2.37,4.741Zm-33.48,-31.408c-2.67,-0.889 -5.63,-3.259 -6.82,-5.629c-0.89,-1.482 -1.48,-3.852 -1.48,-5.037c1.78,0 3.26,1.185 3.56,2.074l0,0.592c2.07,2.371 4.44,4.741 4.74,8m20.74,15.111c-0.3,2.667 -1.78,3.556 -3.85,6.519c-1.19,0.889 -3.85,1.481 -6.52,2.666c0.59,-1.185 1.78,-1.777 2.67,-2.962c0.88,-1.186 2.66,-3.556 2.96,-4.741c2.37,-1.482 2.96,-1.482 4.74,-1.482m32.3,42.667l-1.49,1.185c-1.18,-1.185 -0.29,-4.741 -2.66,-5.037c-2.08,0 -3.85,-2.37 -4.74,-2.667l1.77,-0.889c0,0 0.89,-0.592 1.78,0c0.89,0.889 1.78,1.186 1.78,2.075c0.89,1.481 2.07,0 2.96,1.481c0.6,1.185 0.89,2.963 0.6,3.852m-40,-45.926c-1.19,2.667 -2.67,5.037 -5.34,5.926c-1.18,0 -3.26,0.889 -5.92,0c1.18,-0.889 2.66,-1.185 4.44,-2.667l3.26,-3.259l3.56,0Zm8.59,19.852c-1.78,1.185 -2.97,1.185 -5.04,0.889l-2.67,-3.556l6.52,0l1.19,2.667Zm-31.71,-32.889c-2.07,2.074 -4.14,2.963 -5.03,5.63c0,-1.186 -0.3,-2.667 -0.89,-3.556c0.59,-1.778 1.78,-2.667 2.07,-2.963c1.48,0.296 2.37,0.296 3.85,0.889m5.34,6.519c0,1.777 -0.89,3.851 -2.97,5.925c-0.59,0.593 -1.77,1.482 -1.77,1.482c0,-2.667 1.18,-4.741 1.18,-7.111c1.48,-0.296 2.67,-1.185 3.56,-0.296m6.22,5.037l-1.78,6.518c-2.37,1.778 -5.33,0.889 -8,0.889c3.56,-0.889 6.22,-4.741 8,-7.407c0.3,-0.297 0.89,0 1.78,0m2.07,22.222c0,1.185 -0.59,6.518 -0.59,6.518c-0.89,-2.963 -2.96,-6.222 -5.63,-6.222c-1.18,-1.185 -2.37,-2.37 -2.96,-3.852c-1.19,-1.185 -2.67,0 -4.45,-1.185c-1.48,0 -3.85,0 -5.33,1.185l0,-1.185l2.96,-3.556c2.97,0.593 6.82,0 7.71,2.371c2.07,1.185 4.44,2.37 4.74,3.259l0,1.482c0.89,0.296 2.66,0.592 3.55,1.185m-2.07,13.333l-3.26,3.259c-0.89,-1.481 0,-3.555 -1.18,-5.037c0,-0.592 0.88,-1.185 0.29,-1.481c-0.29,-0.889 -5.63,-2.667 -5.63,-2.667c-1.78,-1.481 -3.85,-2.666 -5.63,-4.444c-1.48,-0.297 -2.96,0.592 -5.03,0.889l0,-0.889c0.88,-1.778 0.88,-3.852 3.55,-3.852c1.19,0 2.96,0 3.85,1.185c1.48,0 2.37,1.778 3.85,2.37c2.08,2.075 3.86,2.963 5.04,3.852c0,1.185 0.59,2.074 1.48,2.667c2.67,0 1.78,2.37 2.67,4.148m-6.52,6.519l-1.48,4.444l-2.96,-7.704c-3.56,-3.555 -7.41,-4.148 -9.48,-5.629c-1.78,-0.593 -1.78,0.592 -2.67,0c0,-0.889 0,-2.371 1.18,-3.556l2.67,0l2.67,1.185c1.18,1.482 4.44,1.482 4.44,3.852c0,0.593 -0.59,0.889 0.59,2.667l4.45,1.481l0.59,3.26Zm-12.15,4.444c0,3.556 -5.63,8.296 -5.63,8.296c0,-2.37 1.19,-4.74 1.19,-7.407c0,0 -1.78,-1.778 -3.56,-1.778c-1.18,0.889 -1.18,1.778 -1.77,2.963c-1.19,2.667 -3.86,5.333 -4.15,7.703c-0.6,0 -0.6,-0.296 -0.6,-0.296c0,-4.444 0.6,-11.555 3.26,-14.814c2.08,-2.371 3.86,-2.371 6.52,-2.963l2.08,0.592l-1.78,2.371c1.78,0.889 4.44,2.666 4.44,5.333m-15.4,-2.667c0,1.778 -0.3,3.556 -1.19,4.741c-0.3,-1.778 -1.78,-3.852 -3.85,-3.852c-1.78,3.556 -2.08,4.741 -0.59,10.074c-1.19,1.185 -2.08,1.481 -3.86,2.37c-0.88,-1.481 -0.88,-4.74 -0.88,-6.518c0,-2.963 0.59,-5.926 1.48,-8.592c1.18,-1.186 2.07,-3.26 3.26,-4.741l5.03,0c-2.37,0 -2.37,2.074 -2.37,3.555c1.48,0.297 2.97,0.889 2.97,2.963m-11.26,4.741c-0.3,0 -1.49,-1.185 -2.97,-1.185c-1.18,2.667 0,4.148 0,7.407c0,1.185 -0.29,2.37 -0.29,2.37c-0.89,0 -2.67,-1.481 -2.97,-3.259l0,-7.111l3.86,-4.74c2.37,1.777 3.26,4.444 2.37,6.518m89.77,-120.892c0.89,-2.07 0.89,-5.92 -0.88,-8.29c-0.89,-1.78 -2.97,-2.37 -5.04,-4.15l-3.26,1.78c-1.48,0.59 -2.37,2.37 -2.37,4.74c2.96,1.18 5.92,4.74 7.41,7.11l1.18,0c1.19,-1.19 2.08,0 2.96,-1.19m-14.81,2.67c0,-1.48 -0.3,-1.48 -0.59,-1.48c-2.37,0 -2.37,-3.26 -4.15,-2.37c-0.89,0 -1.78,-0.89 -2.96,0c0,0.29 0,0.29 0.88,0.29c2.08,0 1.19,2.97 2.97,3.56l3.85,0Zm7.11,5.33c0,0 0.89,0 0,-0.59l-9.48,-1.18c-0.89,1.18 -3.26,1.18 -3.26,2.37l-0.89,0c0.89,3.55 0.89,7.4 0.89,11.26c1.78,0.59 3.56,1.48 3.56,4.14c1.77,0.89 3.55,1.19 5.33,2.37c0.89,-0.29 1.18,-1.48 1.78,-2.96c-1.78,-2.07 -5.63,-0.89 -5.63,-4.74l-2.67,-0.89c0,-2.67 0,-5.33 -0.59,-6.81l0.59,-0.6c0,0.6 0.3,0.89 1.19,1.78c1.77,0 3.55,0.3 5.33,-0.89c0.89,-0.29 0.89,-2.66 1.78,-2.66c0.59,0 1.48,0 2.07,-0.6m-21.63,-9.18c-0.89,-0.89 -3.55,0.29 -4.74,0.89c-1.78,0.29 -3.26,1.48 -3.26,2.96l4.74,0c0.59,-1.48 2.37,-2.96 3.26,-3.85m-9.48,-4.74c-0.59,-4.45 -5.33,-4.74 -7.41,-6.52l-1.78,0c-3.55,1.18 -4.44,4.74 -4.74,7.7c1.19,3.85 3.86,1.19 5.63,3.85c1.78,-1.18 5.93,-4.14 8.3,-5.03m25.48,39.7l0,-2.07l-4.44,0l-0.3,0.29l4.74,1.78Zm-19.55,-25.18c0,-0.6 -0.89,-1.78 -2.08,-2.37l-9.48,0l-0.89,0c0,1.77 1.19,2.37 2.37,2.37c0,1.77 1.48,2.37 1.78,2.66c1.48,0.89 1.78,0.89 2.96,0c1.48,0.89 1.78,-0.89 2.37,0c0,2.67 0,3.85 -0.59,6.22c-0.3,2.97 -2.96,2.38 -5.04,3.86c0,1.18 -1.48,3.55 0,4.74c1.19,-0.89 2.08,-1.19 4.15,-2.08c0,-1.48 1.48,-2.66 3.26,-3.55c0,-3.85 1.19,-8 1.19,-11.85m-3.56,23.11c-0.89,-1.78 -2.96,0 -5.04,-0.89c0,0.89 0,1.78 1.19,2.66c1.48,-1.48 3.55,-1.77 3.85,-1.77" style="fill:rgb(255,98,0);fill-rule:nonzero;"/>        </g>    </g></svg>