<?xml version="1.0" encoding="UTF-8" standalone="no"?><!DOCTYPE svg PUBLIC "-//W3C//DTD SVG 1.1//EN" "http://www.w3.org/Graphics/SVG/1.1/DTD/svg11.dtd"><svg width="100%" height="100%" viewBox="0 0 1024 512" version="1.1" xmlns="http://www.w3.org/2000/svg" xmlns:xlink="http://www.w3.org/1999/xlink" xml:space="preserve" style="fill-rule:evenodd;clip-rule:evenodd;stroke-linejoin:round;stroke-miterlimit:2;"><title>AlexCredit</title><desc>Established in 2017, Alexcredit has a leading presence in the Ukrainian online microcredit market. Thanks to its credit scoring algorithm, which is based on the application form details, behaviour data and credit bureau data, borrowers receive a credit decision in less than 20 seconds. From the total loan applications, 20-30% of requests are approved.</desc>    <g transform="matrix(1.03223,0,0,1.03223,1.62649,27.8782)">        <circle cx="249.04" cy="217.277" r="192.912" style="fill:rgb(41,171,226);"/>        <path d="M187.887,264.309c0.88,30.701 -73.035,20.147 -61.222,12.992c43.973,-26.504 9.304,-37.507 10.313,-63.352c1.07,-27.213 12.143,1 25.935,1c13.791,0 24.195,22.136 24.974,49.36Z" style="fill:rgb(43,23,12);fill-rule:nonzero;"/>        <path d="M315.17,307.562c0,35.269 -57.965,102.617 -97.121,102.617c-39.156,0 -99.17,-33.719 -99.17,-68.957c0,-35.239 31.721,-63.851 70.847,-63.851c39.126,0 125.444,-5.067 125.444,30.191Z" style="fill:url(#_Linear1);fill-rule:nonzero;"/>        <path d="M358.933,378.309c-63.102,40.905 -123.075,31.98 -171.046,31.98c45.722,-5.196 20.987,-93.532 25.984,-124.394c35.269,-3.208 0,0 47.781,-4.337c1.399,19.038 1.229,111.762 97.281,96.751Z" style="fill:rgb(234,177,122);fill-rule:nonzero;"/>        <path d="M114.502,302.815c0,17.739 37.597,4.527 51.269,-14.791c27.983,-39.566 6.596,-47.851 6.596,-65.59c0,-17.739 -0.55,18.409 -17.09,44.973c-17.999,29.032 -40.775,17.679 -40.775,35.408Z" style="fill:rgb(80,51,37);fill-rule:nonzero;"/>        <path d="M216.99,307.312c5.416,44.903 7.995,121.926 -22.467,115.62c-16.4,-3.368 17.939,-26.564 11.843,-46.032c-12.332,-39.386 -37.397,-44.393 -43.763,-94.273c-5.847,-45.792 19.488,-25.644 49.08,-25.644c29.592,0 -0.22,4.497 5.307,50.329Z" style="fill:url(#_Linear2);fill-rule:nonzero;"/>        <path d="M246.561,0.68c-121.865,0 -220.665,98.789 -220.665,220.665c0,4.344 0.124,8.655 0.37,12.932l-25.904,19.788l15.171,10.104l-14.781,22.396c0,0 32.89,17.579 42.773,21.317c34.632,81.19 114.779,134.129 203.046,134.118c121.866,0 220.666,-98.79 220.666,-220.665c0,-121.876 -98.8,-220.655 -220.676,-220.655Zm0,413.747c-106.634,0 -193.082,-86.447 -193.082,-193.082c0,-106.635 86.448,-193.082 193.082,-193.082c106.635,0 193.083,86.447 193.083,193.082c0,106.635 -86.448,193.072 -193.083,193.072l0,0.01Z" style="fill-opacity:0.1;fill-rule:nonzero;"/>        <path d="M249.04,0c-119.627,0 -216.598,96.941 -216.598,216.598c0,4.264 0.124,8.495 0.37,12.692l-25.454,19.438l14.89,9.924l-14.511,21.987c0,0 32.281,17.259 41.975,20.927c34.004,79.693 112.683,131.65 199.328,131.629c119.627,0 216.598,-96.94 216.598,-216.597c0,-119.657 -96.971,-216.598 -216.598,-216.598Zm0,406.122c-104.676,0 -189.524,-84.848 -189.524,-189.524c0,-104.676 84.848,-189.525 189.524,-189.525c104.676,0 189.524,84.859 189.524,189.525c0,104.666 -84.858,189.524 -189.524,189.524Z" style="fill:white;fill-rule:nonzero;"/>        <path d="M983.281,290.193l-344.559,-127.143c-20.158,9.714 -38.976,36.248 -42.654,43.654c0.706,-3.656 1.726,-7.243 3.048,-10.724c3.638,-8.195 6.996,-16.52 10.803,-24.605c1.34,-2.998 4.268,-4.887 6.596,-7.085c12.773,-10.524 34.539,-36.288 35.978,-42.974c1.44,-6.686 1.999,-15.061 0.25,-20.618c-1.749,-5.556 -10.173,-22.546 -14.071,-23.575c-20.987,5.057 -37.157,3.997 -42.094,6.666c-4.937,2.668 -16.87,19.888 -16.87,19.888c0,0 -64.041,-43.364 -115.06,8.155c-48.97,79.951 -58.964,262.839 -58.964,262.839c0,0 -3.997,3.998 -8.245,7.595c4.577,3.718 9.534,6.996 14.391,10.254c5.447,3.178 10.604,7.236 16.9,8.605c8.198,1.926 16.822,-0.836 22.377,-7.166c3.048,-2.918 3.997,-7.125 5.316,-10.993c-0.559,-34.289 0.39,-68.648 4.458,-102.717c0,0 1.259,-7.486 1.738,-10.993c3.808,0.379 15.991,0.639 18.219,0.759c0.35,3.268 1.12,10.174 1.12,10.174c0.879,10.693 4.307,20.887 6.995,31.181c1.679,6.246 11.803,24.315 15.381,26.164c2.189,1.339 4.817,1.629 7.086,2.788c0.24,1.999 -0.36,3.998 -0.64,5.996c-1.719,14.592 -0.08,29.912 7.076,42.974c0.999,3.058 16.09,21.487 23.715,25.764c14.541,8.995 32.33,11.364 49.09,9.265c22.596,-2.609 43.584,-14.751 58.015,-32.171c2.259,-3.185 4.691,-6.245 7.285,-9.164c4.118,2.728 7.826,6.346 12.763,7.575c9.554,3.208 20.177,1.31 28.682,-3.807c4.237,-2.269 7.995,-5.327 11.723,-8.265c1.599,-1.639 3.478,0.48 4.997,1.159c9.894,6.256 22.216,7.116 33.519,5.187c9.509,-1.721 18.43,-5.816 25.935,-11.903c1.678,-2.079 3.767,0.28 5.406,1.139c9.394,6.437 21.867,7.056 32.33,2.999c4.997,-1.779 9.285,-4.997 13.462,-8.145c6.127,3.917 13.272,6.766 20.678,5.906c8.904,-0.46 16.819,-5.167 23.735,-10.434c7.895,5.647 18.409,8.145 27.723,4.708c6.396,-1.939 11.813,-5.947 16.99,-9.994c3.278,1.309 6.096,3.817 9.624,4.677c11.243,3.628 23.675,0.999 33.539,-5.127c10.744,-6.626 19.099,-16.3 27.144,-25.874c1.518,-1.997 2.917,-4.083 4.187,-6.246c1.12,-10.764 -5.996,-25.585 -5.246,-36.298c-2.018,0.675 -4.175,0.827 -6.267,0.439c0.15,-0.999 0,-1.998 0.16,-2.998c0.41,-8.205 2.878,-30.291 3.078,-33.399c-2.218,-0.89 -9.524,-5.807 -10.173,-6.237c0.819,-6.296 2.088,-12.532 2.888,-18.838c0.29,-1.939 1.559,-15.141 1.939,-17.06c0,0 -25.925,4.688 -45.752,9.055c-7.616,-1.689 -11.074,-1.819 -16.75,-3.868c-1.729,1.07 -10.084,3.788 -15.591,3.248c-7.995,-0.779 -14.061,-3.817 -14.991,-3.867c0.32,-7.726 -0.629,-28.173 -0.559,-31.871c1.469,0.13 -59.304,18.369 -60.693,18.988c-0.11,-7.185 0.839,-10.403 -2.429,-19.847c-0.939,-2.719 -16.989,-29.312 -53.507,-14.751c-32.98,-17.16 -61.103,8.514 -66.04,16.789c-0.12,-17.419 -37.507,-33.699 -59.743,-22.976l344.559,127.143Z" style="fill-opacity:0.1;fill-rule:nonzero;"/>        <path d="M977.765,286.685l-339.323,-125.214c-19.858,9.565 -38.406,35.699 -41.974,42.974c0.694,-3.601 1.697,-7.135 2.998,-10.563c3.578,-8.076 6.846,-16.27 10.643,-24.236c1.32,-2.998 4.198,-4.817 6.496,-6.995c12.573,-10.364 33.98,-35.739 35.479,-42.305c1.499,-6.566 1.949,-14.83 0.24,-20.297c-1.709,-5.467 -9.994,-22.197 -13.862,-23.216c-20.667,4.997 -36.588,3.888 -41.455,6.566c-4.867,2.678 -16,19.648 -17.239,20.298c3.728,-13.232 -74.724,-52.029 -124.924,-1.3c-81.37,102.598 -71.956,236.316 -71.886,247.629c1.089,8.265 2.069,8.505 5.157,13.552c6.576,10.284 16.99,17.239 26.984,23.895c5.366,3.128 10.443,7.126 16.639,8.475c8.074,1.898 16.567,-0.822 22.037,-7.056c2.998,-2.878 3.997,-6.995 5.237,-10.813c-0.55,-33.769 0.379,-67.609 4.387,-101.158c0,0 1.249,-7.376 1.709,-10.864c3.758,0.37 15.71,0.63 17.989,0.75c0.34,3.218 1.099,9.994 1.099,9.994c0.87,10.533 4.238,20.567 6.936,30.711c1.649,6.156 11.623,23.986 15.151,25.764c2.158,1.32 4.747,1.609 6.996,2.739c0.229,1.999 -0.35,3.997 -0.63,5.916c-1.689,14.371 -0.08,29.462 6.996,42.294c0.999,2.998 15.84,21.157 23.355,25.375c14.312,8.884 31.841,11.193 48.341,9.124c22.246,-2.568 42.914,-14.531 57.135,-31.68c2.226,-3.127 4.621,-6.13 7.176,-8.995c4.057,2.688 7.705,6.256 12.562,7.456c9.404,3.158 19.868,1.289 28.253,-3.758c4.073,-2.376 7.935,-5.098 11.543,-8.135c1.579,-1.619 3.427,0.479 4.937,1.139c9.744,6.166 21.876,6.996 32.979,5.107c9.362,-1.697 18.146,-5.729 25.535,-11.723c1.649,-1.999 3.718,0.27 5.317,1.119c9.244,6.337 21.526,6.946 31.84,2.999c4.907,-1.749 9.145,-4.887 13.252,-7.996c5.996,3.858 13.072,6.666 20.368,5.817c8.774,-0.46 16.559,-5.087 23.375,-10.284c7.776,5.567 18.129,7.995 27.294,4.637c6.306,-1.908 11.633,-5.856 16.739,-9.824c3.228,1.29 5.997,3.768 9.485,4.608c11.073,3.567 23.315,0.999 32.979,-5.047c10.584,-6.526 18.809,-16.061 26.734,-25.485c1.497,-1.968 2.875,-4.024 4.128,-6.156c1.099,-10.604 -5.897,-25.195 -5.167,-35.748c-1.988,0.668 -4.114,0.82 -6.176,0.44c0.149,-1 0,-1.999 0.149,-2.999c0.41,-8.085 2.839,-29.831 2.999,-32.89c-2.189,-0.879 -9.375,-5.726 -9.994,-6.136c0.809,-6.206 2.058,-12.342 2.838,-18.558c0.28,-1.909 1.529,-14.911 1.909,-16.8c0,0 -25.525,4.617 -45.063,8.914c-7.495,-1.659 -10.903,-1.789 -16.49,-3.807c-1.699,1.049 -9.924,3.727 -15.36,3.198c-7.885,-0.77 -13.852,-3.758 -14.741,-3.808c0.31,-7.605 -0.62,-27.743 -0.55,-31.381c1.449,0.13 -58.394,18.089 -59.773,18.739c-0.11,-7.076 0.829,-10.254 -2.399,-19.548c-0.929,-2.679 -16.72,-28.873 -52.698,-14.531c-32.46,-16.9 -60.173,8.384 -65.04,16.53c-0.26,-17.24 -37.047,-33.23 -58.974,-22.667l339.323,125.214Z" style="fill:white;fill-rule:nonzero;"/>        <g>            <path d="M604.783,101.608c7.435,-1.999 14.921,-3.898 22.396,-5.777c1.783,-0.66 3.803,0.038 4.797,1.659c2.688,5.067 3.858,11.433 1.269,16.79c-5.996,14.351 -18.389,24.415 -29.842,34.319c-3.527,3.248 -8.185,5.787 -9.993,10.494c-4.778,10.453 -9.435,20.987 -13.572,31.69c-3.578,12.353 -6.506,25.115 -6.366,38.047c0.29,5.367 0.939,11.853 5.996,14.991c7.436,2.209 14.791,-1.829 20.378,-6.466c3.577,-2.998 6.995,-6.126 10.493,-9.144c1.539,-17.32 11.553,-33.2 25.415,-43.404c7.97,-6.012 18.02,-8.6 27.903,-7.186c5.666,1.06 11.383,4.198 13.901,9.615c3.438,7.165 1.289,16.09 -4.077,21.716c-9.884,10.614 -24.106,15.591 -37.627,19.738l-1.28,1.799c1.559,5.457 3.768,11.103 8.395,14.701c7.995,5.667 19.348,4.777 27.154,-0.769c6.716,-4.827 12.622,-10.694 18.359,-16.63c10.313,-13.372 17.859,-28.982 30.351,-40.585c6.166,-5.947 14.411,-10.734 23.266,-9.904c5.232,0.205 10.131,2.65 13.442,6.706c2.058,2.868 2.858,6.406 4.787,9.364l2.238,-0.3c2.998,-4.997 6.346,-9.994 11.383,-13.102c6.356,-3.688 15.081,-3.997 21.087,0.56c2.749,2.938 5.567,6.796 5.047,10.993c-2.158,3.238 -5.127,5.866 -7.995,8.485c-1.899,1.529 -3.907,3.528 -6.566,3.078c-0.469,-4.447 -0.799,-9.374 -4.107,-12.762c-2.589,-2.849 -7.116,-1.12 -9.255,1.419c-4.607,5.996 -6.785,13.342 -8.774,20.517c-2.559,9.834 -5.177,19.818 -5.247,29.982c-0.27,5.776 3.808,12.572 10.174,12.492c4.107,-0.14 7.815,-2.148 11.473,-3.827c9.608,-4.963 18.761,-10.762 27.353,-17.33c3.508,-2.518 6.536,-5.686 10.274,-7.875c-0.59,3.198 -0.63,6.546 -1.489,9.664c-10.731,10.211 -23.021,18.645 -36.408,24.985c-7.446,3.318 -15.541,6.856 -23.876,5.297c-7.305,-1 -13.241,-6.456 -16.25,-12.992c-1.079,-1.789 -1.339,-5.227 -4.227,-3.998c-3.638,5.637 -7.775,11.343 -13.991,14.421c-7.516,3.998 -17.36,4.148 -24.505,-0.749c-2.779,-1.669 -5.507,-4.058 -6.137,-7.386c-0.3,-2.858 2.379,-4.657 4.078,-6.536c3.068,-2.438 5.776,-5.746 9.684,-6.796c2.778,4.128 3.458,9.884 7.995,12.613c3.428,2.238 7.845,0.699 10.663,-1.809c3.328,-3.068 5.237,-7.296 7.066,-11.343c4.997,-11.333 6.776,-23.656 8.815,-35.748c0.489,-4.408 0.929,-9.585 -2.109,-13.212c-3.518,-3.658 -9.394,-1.999 -12.812,0.999c-14.601,12.313 -20.418,31.611 -33.889,44.883c-9.055,8.864 -18.449,17.809 -29.802,23.675c-8.789,4.195 -18.735,5.328 -28.243,3.218c-9.359,-2.393 -16.862,-9.431 -19.848,-18.618c-0.522,-1.726 -1.167,-3.413 -1.929,-5.047l-1.689,-0.08c-8.724,7.145 -17.739,14.631 -28.682,18.039c-7.566,2.308 -16.59,2.288 -23.056,-2.789c-5.645,-4.343 -9.313,-10.779 -10.174,-17.849c-1.379,-8.075 -0.1,-16.25 1,-24.265c-1.039,-0.46 -2.162,-0.702 -3.298,-0.709c-6.186,6.059 -12.936,11.513 -20.158,16.29c-1.539,0.659 -1.299,2.408 -1.329,3.797c0.104,9.418 0.936,18.814 2.488,28.103c1.819,8.835 3.998,17.989 9.844,25.155c0.91,1.229 2.699,2.998 0.91,4.347c-7.224,7.211 -12.853,15.86 -16.52,25.385c-1.821,0.598 -3.829,0.169 -5.247,-1.12c-8.63,-21.028 -13.143,-43.519 -13.292,-66.249c0.112,-1.843 -0.168,-3.689 -0.819,-5.417c-4.658,0.77 -9.055,2.688 -13.762,3.188c-10.823,1.709 -21.797,-0.41 -32.06,-3.808c-2.409,-1.109 -4.728,0.83 -4.997,3.238c-3.998,15.921 -5.997,32.261 -7.486,48.571c-2.189,25.854 -2.908,51.828 -2.528,77.772c-0.053,1.455 -0.227,2.902 -0.52,4.328c-3.998,0.609 -7.296,-1.939 -10.454,-3.918c-8.185,-5.097 -16.45,-10.484 -22.686,-17.989c-1.808,-2.143 -2.657,-4.938 -2.348,-7.725c1.998,-63.202 14.041,-127.173 43.093,-183.798c7.576,-13.931 15.551,-28.063 27.274,-38.976c10.643,-10.154 23.505,-18.289 37.857,-21.917c11.183,-2.718 22.826,-1.089 33.979,1c5.965,1.041 11.71,3.089 16.989,6.056c0.635,2.618 0.386,5.374 -0.709,7.835c-2.309,1.279 -5.077,1.639 -7.096,3.438c-3.567,3.029 -6.458,6.775 -8.485,10.993c-12.432,25.385 -19.208,53.228 -22.796,81.161c12.473,-4.677 22.706,-14.142 30.332,-24.915c4.277,-5.317 6.146,-11.993 9.124,-18.039c9.854,-21.517 20.498,-42.834 33.979,-62.342c1.959,-2.758 4.428,-5.617 7.906,-6.406Zm14.471,7.465c-3.998,5.547 -7.146,11.663 -10.744,17.47c-1.356,2.103 -2.485,4.344 -3.368,6.686c5.96,-4.863 11.359,-10.374 16.101,-16.43c2.348,-3.298 5.356,-6.396 6.236,-10.494c-2.838,0.46 -5.897,1.049 -8.225,2.768Zm-107.235,13.992c-13.711,6.826 -23.735,19.078 -31.5,31.98c-9.834,16.87 -16.121,35.549 -20.988,54.387c-0.469,2.309 -1.449,4.717 -0.859,7.096c4.228,4.154 9.271,7.387 14.811,9.494c8.435,2.998 17.749,2.249 26.164,-0.41c1.239,-0.31 2.708,-1.109 2.578,-2.618c3.998,-35.209 13.282,-70.447 30.851,-101.358c0.35,-0.22 0.46,-0.14 0,0c-0.239,-1.559 -1.059,-3.468 -2.948,-3.268c-6.316,0.11 -12.452,2.058 -18.079,4.717l-0.03,-0.02Zm131.76,66.959c-7.436,8.185 -9.994,19.558 -10.244,30.341l1.479,1c4.997,-0.46 9.584,-3.228 13.812,-5.867c7.995,-5.226 12.522,-15.31 10.373,-24.725c-0.639,-1.998 -1.679,-4.177 -3.817,-4.817c-4.298,-1.749 -8.785,0.93 -11.613,4.058l0.01,0.01Z" style="fill:rgb(35,64,68);fill-rule:nonzero;"/>            <path d="M837.071,214.109c7.775,-4.177 14.631,-9.794 22.126,-14.421c-1.999,39.446 -10.943,78.152 -13.062,117.588c0,5.107 -0.999,11.433 3.548,15.071c2.174,0.294 4.38,-0.261 6.156,-1.549c5.377,-3.998 9.415,-9.504 13.302,-14.901c0.75,-14.081 3.998,-27.863 7.456,-41.475c7.505,-2.368 15.07,-4.587 22.486,-7.265c0.1,4.507 -1.549,8.814 -2.319,13.202c-2.288,11.303 -5.097,22.546 -6.126,34.049c-0.31,4.277 -0.64,9.564 3.398,12.302c6.076,0.34 10.194,-4.857 13.602,-9.144c1.709,-2.548 4.637,-4.727 4.617,-8.055c0.569,-8.755 2.788,-17.26 3.937,-25.924c0.1,-0.46 0,-0.1 0.24,-1.13c-2.298,-0.479 -4.097,0.13 -6.446,0.26c0.13,-4.687 0.88,-9.304 1.299,-13.991c2.769,-0.43 5.537,-0.83 8.335,-1.139c1.629,-10.754 3.688,-21.457 5.277,-32.221c7.705,-2.248 15.291,-4.937 22.986,-7.135c-1.925,11.706 -3.894,23.402 -5.906,35.088c4.157,-0.26 8.225,-1.229 12.362,-1.789c-0.52,4.617 -0.999,9.245 -1.579,13.862c-4.517,0.779 -8.994,1.589 -13.552,2.458c-1.589,11.213 -4.937,22.217 -5.206,33.59c-0.13,4.127 0.699,9.404 4.996,11.243c3.558,1.489 7.506,-0.15 10.564,-2.079c5.317,-3.748 8.865,-9.314 13.172,-14.071c0.46,3.228 0.74,6.466 1.079,9.714c-5.604,7.32 -12.082,13.928 -19.288,19.678c-5.527,3.997 -12.822,6.996 -19.588,4.657c-7.395,-2.678 -10.993,-10.554 -12.472,-17.759c-6.836,7.895 -13.352,16.53 -22.587,21.826c-3.767,2.209 -8.854,2.429 -12.392,-0.349c-5.307,-3.838 -7.246,-10.524 -8.335,-16.67c-7.405,7.485 -13.442,16.88 -23.156,21.677c-4.307,2.298 -10.094,1.838 -13.521,-1.819c-5.107,-5.117 -6.137,-12.643 -7.406,-19.418c-3.983,10.155 -11.147,18.754 -20.417,24.505c-5.257,3.158 -12.303,3.847 -17.6,0.389c-3.492,-2.277 -6.385,-5.363 -8.435,-8.994c-1.319,-2.389 -1.998,-5.077 -3.178,-7.506c-4.177,5.687 -9.394,10.524 -14.631,15.231c-7.995,6.926 -18.828,10.754 -29.422,9.354c-9.944,-0.999 -18.169,-9.104 -20.777,-18.528c-5.996,7.155 -12.243,14.241 -19.898,19.688c-4.257,3.108 -9.334,5.886 -14.781,5.316c-6.616,-1.249 -10.933,-7.845 -11.383,-14.261c-0.899,-10.993 3.998,-21.247 7.935,-31.221l-1.179,-1.539c-3.368,1.732 -6.879,3.17 -10.494,4.298c-3.897,20.787 -17.219,37.976 -30.861,53.467c-10.511,11.459 -24.708,18.886 -40.115,20.987c-14.821,2.209 -31.331,-0.17 -42.804,-10.493c-8.839,-7.48 -14.391,-18.143 -15.451,-29.672c-1.629,-17.34 2.859,-34.979 11.733,-49.91c8.032,-14.27 20.308,-25.694 35.119,-32.68c8.264,-3.927 17.537,-5.228 26.564,-3.728c10.143,1.899 19.178,9.994 21.097,20.288c2.998,16.28 -4.518,34.649 -19.219,42.784c-6.008,3.343 -13.12,4.118 -19.708,2.149c-4.577,-1.57 -8.564,-5.757 -8.604,-10.804c-0.53,-3.458 1.349,-6.506 3.158,-9.244c1.999,1.309 3.068,3.997 5.636,4.387c6.526,1.999 12.643,-3.238 15.861,-8.465c4.997,-7.225 7.185,-16.56 5.256,-25.164c-1.089,-4.997 -5.236,-9.535 -10.543,-9.994c-5.787,-0.43 -10.993,2.998 -15.201,6.646c-13.052,12.532 -20.577,29.881 -24.085,47.421c-2.069,11.832 -1.789,24.655 3.917,35.508c4.588,8.525 12.333,15.73 21.847,18.259c10.444,2.668 22.227,1.269 31.131,-5.067c11.313,-7.775 19.528,-19.088 26.584,-30.661c4.547,-8.085 8.824,-16.53 10.713,-25.665c-3.508,-1.429 -7.445,-3.707 -8.095,-7.785c-1.189,-6.616 0.84,-13.562 4.448,-19.108c2.632,-4.132 7.311,-6.523 12.202,-6.236c2.312,0.057 4.346,1.583 5.047,3.787c2.169,5.997 -0.999,12.143 -0.919,18.229c6.306,-0.999 11.273,-5.656 14.93,-10.603c3.115,-4.083 5.505,-8.67 7.066,-13.562c2.327,-0.598 4.707,-0.969 7.106,-1.109c0.999,0.899 0.479,2.538 0.25,3.697c-2.349,9.415 -4.867,18.799 -6.996,28.273c-1.439,6.276 -3.218,12.572 -3.108,19.068c-0.053,3.108 1.255,6.089 3.578,8.155c2.318,0.41 4.867,0.72 6.995,-0.529c5.727,-3.168 8.285,-10.094 13.932,-13.252c-0.88,-12.912 3.827,-25.734 11.783,-35.798c6.056,-8.215 15.4,-14.411 25.754,-15.141c5.267,-0.47 11.093,0.73 14.801,4.777c4.567,4.447 4.997,11.833 2.458,17.449c-2.264,4.567 -5.618,8.508 -9.764,11.473c-7.412,5.505 -15.586,9.901 -24.265,13.052c1.389,5.547 4.637,10.994 9.754,13.782c7.655,3.698 17.17,1.249 23.186,-4.427c4.3,-4.143 8.282,-8.602 11.913,-13.342c1.059,-6.626 1.999,-13.402 4.997,-19.498c5.276,-11.303 13.272,-22.057 24.685,-27.683c7.275,-3.238 17.319,-5.147 23.325,1.519c1.35,-4.108 1.419,-8.485 2.079,-12.722c2.419,-17.83 4.597,-35.689 7.096,-53.508Zm-31.481,78.382c-3.942,7.774 -6.563,16.151 -7.755,24.785c-0.49,5.997 -1.27,13.112 2.998,18.059c3.638,3.248 9.374,2.049 12.692,-1.079c5.237,-4.737 7.695,-11.873 10.084,-18.299c2.239,-8.385 4.087,-17.269 2.189,-25.904c-1,-3.998 -4.438,-8.135 -8.995,-7.516c-5.477,0.55 -8.785,5.567 -11.213,9.954Zm-69.538,1.379c-7.445,8.086 -8.454,19.848 -7.435,30.312c7.855,-2.778 15.66,-8.125 19.208,-15.93c0.12,-0.14 0,0.1 0,0c1.23,-5.197 1.869,-11.253 -1.329,-15.881c-2.958,-2.848 -8.065,-1.459 -10.434,1.499l-0.01,0Z" style="fill:rgb(35,64,68);fill-rule:nonzero;"/>            <path d="M894.686,236.855c3.208,-0.369 5.706,-2.578 8.404,-4.147c0.44,6.596 0.38,14.231 -4.527,19.308c-6.346,5.627 -16.31,4.997 -23.246,0.8c2.749,-6.077 5.207,-12.373 6.217,-18.989c4.157,1.669 8.534,3.858 13.152,3.028Z" style="fill:rgb(35,64,68);fill-rule:nonzero;"/>        </g>        <path d="M137.908,301.896c0.39,-6.257 -1.849,-26.664 -11.573,-50.899c-4.997,-9.594 -11.123,-18.779 -19.438,-25.815c-2.599,-1.878 -5.237,-3.827 -7.995,-5.566c-2.421,-1.537 -4.757,-3.205 -6.996,-4.997c-2.778,-2.469 -5.417,-4.647 -8.285,-7.446c-1.045,-0.436 -2.227,-0.418 -3.258,0.05c-3.438,2.379 -46.512,33.29 -56.595,40.815c12.152,7.356 23.165,16.46 33.399,26.274c8.525,8.445 17.22,20.198 23.786,30.252c0.729,1.173 1.304,2.437 1.709,3.758c-1.777,-1.56 -3.406,-3.279 -4.867,-5.137c-9.705,-11.103 -20.988,-20.748 -32.82,-29.472c-4.728,-3.378 -9.345,-6.946 -14.402,-9.804c-2.908,4.517 -9.304,14.991 -9.474,15.8c17.607,8.175 34.161,18.45 49.3,30.601c5.677,5.107 24.695,24.386 29.152,30.582c0.35,-0.59 2.269,-12.073 10.854,-18.529c0.469,4.887 2.298,19.988 3.428,24.815c0.579,-3.488 2.248,-15.451 2.798,-21.567c0.4,-4.347 0.2,-6.366 0.39,-8.205c11.652,-8.725 20.887,-15.51 20.887,-15.51Z" style="fill:rgb(75,145,31);fill-rule:nonzero;"/>        <path d="M97.562,278.83c-0.612,-0.547 -1.184,-1.138 -1.708,-1.769c-0.546,-0.61 -1.126,-1.187 -1.739,-1.729l-1.809,1.709l2.998,2.998c-0.86,1.259 -1.779,2.658 -0.56,3.488c0.8,0.539 1.669,-0.21 1.999,-0.54c3.608,-4.507 4.997,-7.795 5.137,-9.614c0.06,-0.58 0.19,-2.538 1.429,-3.208c0.461,-0.227 0.984,-0.297 1.489,-0.2c0.939,0.14 1.649,0.74 3.348,2.848c1.699,2.109 2.498,3.398 3.078,3.208c0.15,-0.05 0.33,-0.339 0.7,-0.929c0.369,-0.59 0.499,-0.81 0.499,-0.999c0,-0.19 -0.1,-0.53 -1.309,-1.539c-0.999,-0.85 -1.439,-1 -1.419,-1.44c0,-0.17 0.22,-0.439 0.64,-0.999c0.262,-0.275 0.433,-0.624 0.489,-0.999c0.052,-0.313 -0.048,-0.633 -0.269,-0.86c-0.38,-0.52 -0.72,-0.48 -0.72,-0.48c-0.344,0.057 -0.664,0.213 -0.919,0.45c-0.269,0.256 -0.576,0.468 -0.91,0.63c-0.759,0.25 -1.329,-0.67 -2.468,-1.07c-0.851,-0.296 -1.778,-0.296 -2.629,0c-1.059,0.42 -4.277,1.729 -3.198,6.277c0.8,3.288 -1.139,5.656 -2.149,4.767Z" style="fill:rgb(163,225,112);fill-rule:nonzero;"/>        <path d="M97.243,317.216c-11.373,-19.398 -25.785,-39.486 -42.914,-54.147c4.117,-3.847 7.335,-9.074 7.395,-14.861c0.25,-3.847 -1.159,-7.495 -2.758,-10.913c5.257,-4.807 9.994,-10.144 15.111,-15.111c1.709,1.919 3.278,4.218 5.876,4.997c5.547,2.069 11.523,0.34 16.99,-1.279c1.843,1.248 3.578,2.648 5.187,4.187c19.518,18.299 29.881,44.753 31.86,71.117c-0.33,3.828 -6.696,18.779 -7.865,18.699c-0.839,1.299 -12.872,11.333 -14.071,12.632c-2.939,-18.719 -7.786,-29.782 -2.729,-40.286c5.277,-2.998 8.125,-4.927 10.254,-10.493c0.694,-1.943 1.05,-3.991 1.05,-6.055c0,-9.868 -8.121,-17.989 -17.99,-17.989c-9.868,0 -17.989,8.121 -17.989,17.989c0,1.555 0.202,3.103 0.6,4.606c1.939,6.476 6.156,9.894 11.993,12.452c2.248,8.685 3.827,12.662 4.157,22.606c-0.2,1.439 -1.519,2.589 -4.157,1.849Z" style="fill:rgb(157,227,113);fill-rule:nonzero;"/>        <path d="M101.93,273.353c0.799,0.24 3.618,1.379 4.367,3.748c5.147,21.577 5.257,37.027 7.586,70.047c0.999,-5.996 5.506,-54.627 6.316,-59.364c0.101,-1.584 0.76,-3.082 1.859,-4.227c1.209,-0.456 2.585,0.011 3.268,1.109c1.878,2.509 5.186,16.37 6.575,18.989c1.749,-0.48 1.999,-1.45 2.999,-2.169c0.986,-0.51 2.194,-0.337 2.998,0.43c7.375,23.855 9.234,39.705 9.904,40.825c1.034,0.657 2.168,1.143 3.358,1.439c6.496,1.999 13.462,1.999 19.768,4.637c4.312,1.798 7.804,5.137 9.794,9.364c0.722,2.077 1.129,4.249 1.209,6.446c9.254,9.914 17.799,21.547 18.589,35.239c-5.727,-1.389 -25.925,-7.556 -40.786,-16.1c-4.577,-1.569 -37.457,-2.259 -57.644,-6.427c-3.06,-0.634 -5.9,-2.061 -8.235,-4.137c-7.296,-6.466 -21.067,-18.679 -25.165,-21.637c-0.869,-0.869 -1.999,-1.859 -1.829,-3.218c0.34,-3.658 0.66,-7.325 0.65,-10.993c0.54,-9.055 1.499,-18.099 2.918,-27.064c0.29,-1.559 1.889,-4.297 4.168,-4.417c1.721,-0.179 3.354,0.849 3.937,2.479c0.902,3.353 1.119,6.854 0.64,10.293c-1.12,6.696 -2.089,12.113 -1.29,19.588c0.81,5.177 2.089,5.097 5.927,8.995c4.567,4.097 8.135,7.235 12.782,9.994c0.999,-5.637 0.37,-11.383 0.5,-17.06c0.41,-15.81 0,-31.64 0.09,-47.451c0,-3.408 -0.06,-6.806 0,-10.204c0.065,-1.235 0.198,-2.466 0.399,-3.687c0.194,-1.77 0.959,-3.43 2.179,-4.727c0.536,-0.62 1.366,-0.903 2.169,-0.74Zm29.852,34.239c0,2.998 -0.6,5.906 -0.76,8.885c-0.37,7.455 0,14.901 -0.16,22.356c-0.019,1.47 0.118,2.937 0.41,4.377c0.163,-0.798 0.28,-1.606 0.35,-2.418c0.08,-11.063 -0.25,-22.137 0.15,-33.2l0.01,0Z" style="fill:rgb(242,202,141);fill-rule:nonzero;"/>        <path d="M268.198,359.311c5.767,-22.477 56.965,-59.594 68.388,-91.205c6.087,-16.859 13.992,-64.96 16.39,-70.477c17.2,6.316 33.78,20.598 28.543,48.481c-8.175,43.423 -125.783,101.048 -84.149,152.127c-14.98,-5.417 -33.299,-22.846 -29.172,-38.926Z" style="fill:rgb(59,35,23);fill-rule:nonzero;"/>        <path d="M352.966,197.619c0.49,13.182 2.339,31.361 0,49.37c-1.748,9.754 -23.165,42.074 -40.625,59.294c-0.108,0.107 -0.202,0.228 -0.28,0.36c-7.085,11.992 -19.098,20.227 -35.188,19.338c-36.668,-1.999 -44.103,-14.112 -60.863,-29.462c-58.884,-53.967 -54.127,-71.746 -52.288,-80.901c11.403,-56.815 33.17,-108.613 104.476,-108.613c16.46,46.032 21.667,52.118 84.768,90.614Z" style="fill:rgb(242,202,141);fill-rule:nonzero;"/>        <path d="M354.146,235.276c0,10.994 3.917,18.159 -6.786,21.707c-20.488,6.776 -39.076,-8.945 -39.076,-19.988c0,-11.043 21.367,-32.3 39.076,-19.988c15.42,10.794 6.786,7.236 6.786,18.269Z" style="fill:url(#_Radial3);fill-rule:nonzero;"/>        <ellipse cx="337.556" cy="233.627" rx="6.606" ry="4.058" style="fill:rgb(242,187,156);fill-opacity:0.65;"/>        <path d="M304.346,222.634c-14.471,6.356 -118.787,-54.827 -128.721,9.994c-0.79,5.177 -25.045,-91.404 13.542,-113.291c149.688,-84.948 157.463,34.979 154.775,46.592c-2.568,11.133 8.994,19.628 9.814,48.29c-23.835,10.254 -63.451,-4.607 -73.615,-9.994c3.558,10.064 19.208,14.741 24.205,18.409Z" style="fill:rgb(242,187,123);fill-opacity:0.59;fill-rule:nonzero;"/>        <path d="M299.239,257.842c4.069,-0.59 8.029,-1.775 11.753,-3.517c-1.439,3.697 -4.557,6.396 -7.685,8.694c-2.779,2.119 -7.186,2.169 -9.544,-0.619c-2.289,-1.839 -3.118,-4.737 -3.938,-7.426c3.168,0.87 6.066,2.749 9.414,2.868Z" style="fill:rgb(237,164,105);fill-rule:nonzero;"/>        <path d="M296.121,239.064c3.998,-0.48 8.415,-0.49 11.933,1.829c2.298,1.01 3.527,3.572 2.878,5.996c-0.599,1.209 -1.999,1.699 -3.158,2.069c-4.655,1.372 -9.7,0.357 -13.462,-2.708c-1.067,-1.042 -1.604,-2.514 -1.459,-3.998c0.512,-1.526 1.73,-2.715 3.268,-3.188Z" style="fill:rgb(252,235,211);fill-rule:nonzero;"/>        <circle cx="164.721" cy="253.805" r="15.58" style="fill:url(#_Radial4);"/>        <circle cx="165.281" cy="252.396" r="5.407" style="fill:rgb(252,200,192);"/>        <ellipse cx="216.02" cy="238.364" rx="47.681" ry="24.365" style="fill:url(#_Radial5);"/>        <ellipse cx="214.001" cy="229.28" rx="11.673" ry="7.186" style="fill:rgb(242,187,156);"/>        <path d="M238.486,218.646l-1.998,0.46c-5.445,1.269 -11.069,1.58 -16.62,0.92c-3.311,-0.449 -6.528,-1.431 -9.524,-2.909c-3.099,-1.543 -5.826,-3.739 -7.996,-6.436c-2.734,-0.04 -5.464,-0.244 -8.175,-0.609c1.699,-1.31 3.708,-2.299 4.997,-4.078c-2.818,-0.29 -8.285,1.559 -8.474,-2.059c0.139,-2.058 -0.09,-4.577 1.858,-5.886c0.904,-0.383 1.85,-0.658 2.819,-0.819c3.098,-1.799 6.426,-3.149 9.634,-4.748c3.208,-1.599 6.576,-3.537 10.164,-4.607c5.802,-1.726 12.016,-1.487 17.669,0.68c5.626,2.119 10.204,6.296 13.711,11.083c2.999,4.138 6.077,13.392 6.077,13.392c-0.37,-0.66 -2.998,-0.52 -2.998,-0.52c1.529,1.764 2.869,3.683 3.997,5.727c-4.247,-2.389 -4.827,-2.998 -10.453,-4.468c-0.12,0 -11.683,1 -13.442,1.999c-1.479,0.79 1.789,3.268 1.689,3.238l7.065,-0.36Z" style="fill:rgb(86,56,15);fill-rule:nonzero;"/>        <path d="M252.638,213.01c0,1.119 0.19,1.789 0.999,5.217c-1.649,-1.999 -1.329,-2.269 -3.997,-5.727c0.569,-1.059 1.569,-1.019 2.998,0.51Z" style="fill:rgb(188,154,116);fill-rule:nonzero;"/>        <path d="M231.011,192.372c-2.678,-0.839 -3.938,-0.929 -12.752,0c-2.269,0.361 -4.434,1.207 -6.346,2.479c-2.439,2.548 -6.197,5.996 -8.855,8.325c4.197,8.275 12.822,13.182 21.527,15.47c2.284,0.28 4.587,0.374 6.886,0.28c15.07,-7.995 19.638,-6.586 21.157,-5.946c-0.48,-1.109 -8.355,-18.009 -21.617,-20.608Z" style="fill:rgb(241,247,243);fill-rule:nonzero;"/>        <circle cx="224.825" cy="203.905" r="12.312" style="fill:url(#_Radial6);"/>        <circle cx="225.504" cy="204.555" r="6.886" style="fill:rgb(3,4,3);"/>        <circle cx="231.551" cy="203.676" r="3.378" style="fill:rgb(241,247,243);"/>        <path d="M217.029,191.013c6.866,-2.128 14.332,-0.29 20.448,3.138c4.137,1.999 6.996,5.687 9.864,9.175c1.117,1.568 1.831,3.387 2.079,5.297c-4.248,-6.496 -10.134,-12.363 -17.709,-14.691c-3.035,-0.796 -6.171,-1.133 -9.305,-1c-1.2,0.008 -2.397,0.119 -3.578,0.33c-2.744,0.653 -5.421,1.563 -7.995,2.718c-3.827,0.55 -7.175,2.839 -11.063,3.098c-2.548,0.23 -7.545,-0.719 -9.574,-2.358c0.999,0 4.237,0.549 5.227,0.5c1.879,-0.08 3.827,0.089 5.626,-0.57c5.327,-1.829 10.594,-3.908 15.98,-5.637Z" style="fill:rgb(5,3,0);fill-rule:nonzero;"/>        <path d="M306.855,221.515c2.598,-11.483 13.831,-39.366 38.366,-20.987c-28.652,-4.848 -35.528,14.171 -38.366,20.987Z" style="fill:rgb(86,56,15);fill-rule:nonzero;"/>        <path d="M343.582,206.924c3.088,-0.1 7.755,-1.1 8.885,-2.229c1.129,-1.129 0.11,-1.789 -0.47,-2.239c-24.035,-8.854 -39.976,4.308 -45.132,19.059c5.726,1.739 16.2,11.333 29.731,5.736c6.736,-2.788 10.174,-9.994 11.463,-16.83l-1.229,-1.479c-0.549,4.358 -3.628,-2.068 -3.248,-2.018Z" style="fill:rgb(5,3,4);fill-rule:nonzero;"/>        <path d="M343.582,206.924c-0.38,0 -17.989,-12.763 -36.727,14.591c31.98,19.987 39.426,-8.225 39.975,-12.573c-1.132,-0.589 -2.218,-1.263 -3.248,-2.018Z" style="fill:rgb(241,247,243);fill-rule:nonzero;"/>        <circle cx="330.1" cy="215.608" r="12.193" style="fill:url(#_Radial7);"/>        <circle cx="331.31" cy="215.608" r="7.026" style="fill:rgb(5,6,5);"/>        <circle cx="333.129" cy="215.019" r="3.458" style="fill:rgb(252,253,253);"/>        <path d="M248.96,174.893c-2.548,-4.157 -6.996,-6.496 -11.333,-8.425c-9.744,-4.167 -20.777,-6.206 -31.241,-3.807c-7.214,1.936 -13.378,6.648 -17.14,13.102c-2.678,4.827 -3.997,7.995 -4.287,10.993c5.387,-8.825 11.423,-13.392 15.141,-15.321c6.806,-3.997 15.241,-4.187 22.736,-2.208c4.607,0.999 8.475,3.927 11.853,7.095c2.088,1.799 3.727,3.998 5.716,5.937c2.109,2.078 4.817,4.827 8.065,3.807c2.049,-0.739 2.369,-2.998 2.659,-4.847c0.036,-0.211 0.036,-0.428 0,-0.639c-0.334,-2.022 -1.071,-3.956 -2.169,-5.687Z" style="fill:url(#_Linear8);fill-rule:nonzero;"/>        <path d="M309.733,283.447c0,0 -40.525,14.721 -57.395,-7.506c0.19,5.547 6.406,42.604 35.348,42.494c20.258,-2.628 21.837,-31.76 22.047,-34.988Z" style="fill:rgb(218,119,93);fill-rule:nonzero;"/>        <path d="M282.659,310.051c2.079,-1.599 5.757,0.349 4.787,3.118c-0.649,2.398 -4.157,2.298 -5.146,1.509c-0.99,-0.79 -0.69,-3.578 0.359,-4.627Z" style="fill:rgb(245,219,198);fill-rule:nonzero;"/>        <path d="M270.367,302.915c1.919,0.789 3.828,1.569 5.736,2.398c2.268,0.886 4.39,2.105 6.297,3.618l-1.42,2.129c-1.518,1.113 -3.479,1.44 -5.276,0.879c-2.389,-1.938 -5.817,-3.867 -5.697,-7.395c0.09,-0.39 0.27,-1.209 0.36,-1.629Z" style="fill:rgb(255,212,201);fill-rule:nonzero;"/>        <path d="M256.795,276.631c7.875,1.489 15.9,0.999 23.866,0.929l-1.07,1.15c-4.057,0.14 -8.045,0.999 -12.102,0.999c-4.058,0 -8.105,0.36 -11.773,-1.419l1.079,-1.659Z" style="fill:rgb(246,198,155);fill-rule:nonzero;"/>        <path d="M269.867,278.93c2.259,-0.88 20.837,-5.897 30.791,-5.067c8.475,0.699 8.645,7.995 9.215,8.784c-0.08,0.28 -0.05,0.53 -0.14,0.81c-1.037,1.997 -2.177,3.939 -3.418,5.816c-1.241,1.878 -32.52,-10.163 -36.448,-10.343Z" style="fill:rgb(227,159,140);fill-rule:nonzero;"/>        <path d="M269.048,273.963c13.581,-6.476 29.512,-6.187 43.753,-2.169c2.349,0.809 5.217,1.579 6.346,3.998c0.06,0.987 -0.329,1.95 -1.059,2.618c-1.999,2.089 -5.767,2.718 -8.225,4.187c-14.192,-14.281 -26.434,-4.477 -39.976,-3.118c-5.247,0.431 -10.497,-0.815 -14.991,-3.558c4.804,0.414 9.641,-0.255 14.152,-1.958Z" style="fill:rgb(247,131,104);fill-rule:nonzero;"/>        <path d="M252.328,275.941c11.523,10.484 50.599,-8.854 55.576,5.767c0.22,2.318 0.11,16.56 -22.266,17.909c-24.915,1.879 -33.31,-23.676 -33.31,-23.676Z" style="fill:rgb(254,254,254);fill-rule:nonzero;"/>        <path d="M252.328,275.941c14.061,26.214 43.174,20.468 53.517,14.142c-4.467,12.452 -39.915,27.003 -53.517,-14.142Z" style="fill:rgb(5,2,3);fill-rule:nonzero;"/>        <path d="M115.891,123.994c12.463,-61.322 76.583,-80.271 92.504,-83.948c79.531,-18.669 133.638,35.008 133.638,35.008c0,0 -169.177,87.627 -226.142,48.94Z" style="fill:url(#_Linear9);fill-rule:nonzero;"/>        <path d="M186.568,169.786c-30.511,53.138 3.598,81.051 3.598,81.051c0,0 -106.655,-28.203 -72.636,-132.159c11.113,-33.98 54.177,-58.545 70.357,-60.893c44.513,-6.456 88.876,26.883 88.876,26.883c0,0 -64.251,39.936 -90.195,85.118Z" style="fill:url(#_Linear10);fill-rule:nonzero;"/>        <path d="M176.584,167.418c-25.454,55.746 26.484,87.146 26.484,87.146c0,0 -98.3,-36.517 -60.563,-117.518c32.32,-69.387 134.258,-52.378 134.258,-52.378c0,0 -72.436,21.997 -100.179,82.75Z" style="fill:url(#_Linear11);fill-rule:nonzero;"/>        <path d="M122.147,180.73c5.307,-5.587 8.895,-6.866 8.895,-20.128c0.17,-7.106 10.853,-42.254 37.757,-61.043c15.69,-10.993 31.261,-15.74 43.713,-18.778c12.453,-3.038 8.325,4.397 8.325,4.397c0,0 -49.34,6.256 -70.817,44.333c-11.353,20.128 -9.324,27.053 -13.541,36.208c-5.867,12.752 -12.753,14.561 -14.332,15.011Z" style="fill:rgb(40,29,22);fill-rule:nonzero;"/>        <path d="M306.855,194.401c-121.636,-37.477 -118.928,-136.616 -118.928,-136.616c0,0 37.577,97.28 118.928,136.616Z" style="fill:rgb(180,121,82);fill-rule:nonzero;"/>        <path d="M330.66,379.188c1.409,-0.909 7.895,-6.386 11.333,-3.298c5.257,4.698 8.995,16.48 -1.739,26.124c-8.125,7.286 -29.062,-0.399 -36.368,-3.897c-14.641,-6.996 -22.106,-19.418 -19.238,-43.034c5.217,-42.874 153.367,-99.839 67.849,-157.414c-10.934,-1.429 -31.381,-3.628 -53.787,-12.862c-26.514,-10.913 -35.569,-19.418 -60.134,-41.814c-23.755,-21.657 -35.978,-67.309 -50.689,-85.198c104.636,0.829 202.437,100.938 211.561,173.644c5.247,41.844 -40.445,72.875 -89.575,117.098c-11.683,10.524 -14.072,54.477 26.534,46.142c5.756,-2.369 5.816,-8.815 2.788,-13.452c-2.529,-3.897 -4.987,-0.679 -8.535,-2.039Z" style="fill:rgb(140,98,57);fill-rule:nonzero;"/>        <path d="M398.319,262.57c12.632,-72.476 -52.198,-80.141 -113.201,-110.453c-43.244,-21.487 -77.303,-33.1 -97.221,-94.332c85.758,-17.759 140.844,-1.669 175.673,35.838c40.545,43.663 53.697,118.148 34.749,168.947Z" style="fill:url(#_Linear12);fill-rule:nonzero;"/>        <path d="M408.243,218.477c-23.236,-80.341 -133.119,-54.497 -220.356,-160.682c216.968,1.719 221.485,128.931 220.356,160.682Z" style="fill:url(#_Linear13);fill-rule:nonzero;"/>        <path d="M337.676,376.99c0.679,4.567 0.31,10.993 -7.945,12.202c-6.566,1 -9.275,-7.995 -1.709,-15.39c-1.23,-4.348 -11.463,-3.668 -11.463,-3.668c0,0 4.337,4.157 3.727,7.995c-8.624,-0.839 -11.503,-0.899 -17.829,-6.376c1.349,-5.757 6.077,-7.725 15.861,-7.725c9.784,0 18.288,5.746 19.358,12.962Z" style="fill:rgb(96,56,19);fill-rule:nonzero;"/>    </g>    <defs>        <linearGradient id="_Linear1" x1="0" y1="0" x2="1" y2="0" gradientUnits="userSpaceOnUse" gradientTransform="matrix(135.897,91.654,-91.654,135.897,145.873,283.277)"><stop offset="0" style="stop-color:rgb(108,74,29);stop-opacity:1"/><stop offset="1" style="stop-color:rgb(41,27,18);stop-opacity:1"/></linearGradient>        <linearGradient id="_Linear2" x1="0" y1="0" x2="1" y2="0" gradientUnits="userSpaceOnUse" gradientTransform="matrix(1.04527e-14,-170.706,170.706,1.04527e-14,193.374,423.291)"><stop offset="0" style="stop-color:rgb(124,76,40);stop-opacity:1"/><stop offset="0.12" style="stop-color:rgb(133,84,46);stop-opacity:1"/><stop offset="0.32" style="stop-color:rgb(159,105,61);stop-opacity:1"/><stop offset="0.5" style="stop-color:rgb(187,129,79);stop-opacity:1"/><stop offset="0.99" style="stop-color:rgb(124,76,40);stop-opacity:1"/><stop offset="1" style="stop-color:rgb(124,76,40);stop-opacity:1"/></linearGradient>        <radialGradient id="_Radial3" cx="0" cy="0" r="1" gradientUnits="userSpaceOnUse" gradientTransform="matrix(23.3635,0,0,16.4042,331.696,236.16)"><stop offset="0" style="stop-color:rgb(242,162,125);stop-opacity:0.7"/><stop offset="0.22" style="stop-color:rgb(242,162,125);stop-opacity:0.69"/><stop offset="0.36" style="stop-color:rgb(242,164,126);stop-opacity:0.66"/><stop offset="0.47" style="stop-color:rgb(242,166,127);stop-opacity:0.62"/><stop offset="0.58" style="stop-color:rgb(242,170,128);stop-opacity:0.57"/><stop offset="0.67" style="stop-color:rgb(242,174,130);stop-opacity:0.49"/><stop offset="0.76" style="stop-color:rgb(242,180,132);stop-opacity:0.39"/><stop offset="0.84" style="stop-color:rgb(242,186,135);stop-opacity:0.28"/><stop offset="0.92" style="stop-color:rgb(242,193,138);stop-opacity:0.15"/><stop offset="1" style="stop-color:rgb(242,202,141);stop-opacity:0.01"/><stop offset="1" style="stop-color:rgb(242,202,141);stop-opacity:0"/></radialGradient>        <radialGradient id="_Radial4" cx="0" cy="0" r="1" gradientUnits="userSpaceOnUse" gradientTransform="matrix(15.5805,0,0,15.5805,164.721,253.805)"><stop offset="0" style="stop-color:white;stop-opacity:1"/><stop offset="0.73" style="stop-color:rgb(180,87,79);stop-opacity:1"/><stop offset="0.99" style="stop-color:rgb(152,24,13);stop-opacity:1"/><stop offset="1" style="stop-color:rgb(152,24,13);stop-opacity:1"/></radialGradient>        <radialGradient id="_Radial5" cx="0" cy="0" r="1" gradientUnits="userSpaceOnUse" gradientTransform="matrix(37.8669,0,0,26.5068,216.02,238.361)"><stop offset="0" style="stop-color:rgb(242,162,125);stop-opacity:0.7"/><stop offset="0.22" style="stop-color:rgb(242,162,125);stop-opacity:0.69"/><stop offset="0.36" style="stop-color:rgb(242,164,126);stop-opacity:0.66"/><stop offset="0.47" style="stop-color:rgb(242,166,127);stop-opacity:0.62"/><stop offset="0.58" style="stop-color:rgb(242,170,128);stop-opacity:0.57"/><stop offset="0.67" style="stop-color:rgb(242,174,130);stop-opacity:0.49"/><stop offset="0.76" style="stop-color:rgb(242,180,132);stop-opacity:0.39"/><stop offset="0.84" style="stop-color:rgb(242,186,135);stop-opacity:0.28"/><stop offset="0.92" style="stop-color:rgb(242,193,138);stop-opacity:0.15"/><stop offset="1" style="stop-color:rgb(242,202,141);stop-opacity:0.01"/><stop offset="1" style="stop-color:rgb(242,202,141);stop-opacity:0"/></radialGradient>        <radialGradient id="_Radial6" cx="0" cy="0" r="1" gradientUnits="userSpaceOnUse" gradientTransform="matrix(12.3125,0,0,12.3125,224.825,203.905)"><stop offset="0" style="stop-color:rgb(240,255,212);stop-opacity:1"/><stop offset="0.99" style="stop-color:rgb(62,101,37);stop-opacity:1"/><stop offset="1" style="stop-color:rgb(62,101,37);stop-opacity:1"/></radialGradient>        <radialGradient id="_Radial7" cx="0" cy="0" r="1" gradientUnits="userSpaceOnUse" gradientTransform="matrix(12.1926,0,0,12.1926,330.1,215.608)"><stop offset="0" style="stop-color:rgb(240,255,212);stop-opacity:1"/><stop offset="0.99" style="stop-color:rgb(62,101,37);stop-opacity:1"/><stop offset="1" style="stop-color:rgb(62,101,37);stop-opacity:1"/></radialGradient>        <linearGradient id="_Linear8" x1="0" y1="0" x2="1" y2="0" gradientUnits="userSpaceOnUse" gradientTransform="matrix(66.1896,0,0,66.1896,184.959,174.204)"><stop offset="0" style="stop-color:black;stop-opacity:0.73"/><stop offset="0.07" style="stop-color:rgb(46,32,20);stop-opacity:0.73"/><stop offset="0.14" style="stop-color:rgb(89,62,38);stop-opacity:0.73"/><stop offset="0.21" style="stop-color:rgb(125,86,53);stop-opacity:0.73"/><stop offset="0.28" style="stop-color:rgb(153,106,65);stop-opacity:0.73"/><stop offset="0.36" style="stop-color:rgb(172,119,73);stop-opacity:0.73"/><stop offset="0.43" style="stop-color:rgb(184,127,78);stop-opacity:0.73"/><stop offset="0.5" style="stop-color:rgb(188,130,80);stop-opacity:0.73"/><stop offset="0.57" style="stop-color:rgb(183,127,78);stop-opacity:0.73"/><stop offset="0.64" style="stop-color:rgb(170,117,72);stop-opacity:0.73"/><stop offset="0.72" style="stop-color:rgb(147,102,63);stop-opacity:0.73"/><stop offset="0.79" style="stop-color:rgb(116,80,49);stop-opacity:0.73"/><stop offset="0.87" style="stop-color:rgb(75,52,32);stop-opacity:0.73"/><stop offset="0.96" style="stop-color:rgb(26,18,11);stop-opacity:0.73"/><stop offset="0.99" style="stop-color:black;stop-opacity:0.73"/><stop offset="1" style="stop-color:black;stop-opacity:0.73"/></linearGradient>        <linearGradient id="_Linear9" x1="0" y1="0" x2="1" y2="0" gradientUnits="userSpaceOnUse" gradientTransform="matrix(-20.3176,-81.4902,81.4902,-20.3176,234.099,120.127)"><stop offset="0" style="stop-color:white;stop-opacity:1"/><stop offset="0.06" style="stop-color:rgb(240,237,233);stop-opacity:1"/><stop offset="0.25" style="stop-color:rgb(200,187,173);stop-opacity:1"/><stop offset="0.43" style="stop-color:rgb(167,147,123);stop-opacity:1"/><stop offset="0.6" style="stop-color:rgb(142,115,84);stop-opacity:1"/><stop offset="0.76" style="stop-color:rgb(123,92,56);stop-opacity:1"/><stop offset="0.89" style="stop-color:rgb(112,78,39);stop-opacity:1"/><stop offset="0.99" style="stop-color:rgb(108,73,33);stop-opacity:1"/><stop offset="1" style="stop-color:rgb(108,73,33);stop-opacity:1"/></linearGradient>        <linearGradient id="_Linear10" x1="0" y1="0" x2="1" y2="0" gradientUnits="userSpaceOnUse" gradientTransform="matrix(137.486,-137.486,137.486,137.486,125.166,208.053)"><stop offset="0" style="stop-color:rgb(177,124,74);stop-opacity:1"/><stop offset="0.15" style="stop-color:rgb(156,108,65);stop-opacity:1"/><stop offset="0.53" style="stop-color:rgb(109,72,44);stop-opacity:1"/><stop offset="0.83" style="stop-color:rgb(80,49,32);stop-opacity:1"/><stop offset="0.99" style="stop-color:rgb(69,41,27);stop-opacity:1"/><stop offset="1" style="stop-color:rgb(69,41,27);stop-opacity:1"/></linearGradient>        <linearGradient id="_Linear11" x1="0" y1="0" x2="1" y2="0" gradientUnits="userSpaceOnUse" gradientTransform="matrix(1.05157e-14,-171.735,171.735,1.05157e-14,205.317,254.564)"><stop offset="0" style="stop-color:rgb(122,79,63);stop-opacity:1"/><stop offset="0.13" style="stop-color:rgb(126,82,64);stop-opacity:1"/><stop offset="0.27" style="stop-color:rgb(139,92,68);stop-opacity:1"/><stop offset="0.41" style="stop-color:rgb(160,107,75);stop-opacity:1"/><stop offset="0.55" style="stop-color:rgb(189,129,84);stop-opacity:1"/><stop offset="0.57" style="stop-color:rgb(193,132,85);stop-opacity:1"/><stop offset="0.67" style="stop-color:rgb(168,113,77);stop-opacity:1"/><stop offset="0.79" style="stop-color:rgb(143,94,69);stop-opacity:1"/><stop offset="0.9" style="stop-color:rgb(127,83,65);stop-opacity:1"/><stop offset="0.99" style="stop-color:rgb(122,79,63);stop-opacity:1"/><stop offset="1" style="stop-color:rgb(122,79,63);stop-opacity:1"/></linearGradient>        <linearGradient id="_Linear12" x1="0" y1="0" x2="1" y2="0" gradientUnits="userSpaceOnUse" gradientTransform="matrix(218.946,0,0,218.946,187.887,156.564)"><stop offset="0" style="stop-color:rgb(108,73,33);stop-opacity:1"/><stop offset="0.1" style="stop-color:rgb(117,80,38);stop-opacity:1"/><stop offset="0.27" style="stop-color:rgb(143,98,53);stop-opacity:1"/><stop offset="0.49" style="stop-color:rgb(184,127,77);stop-opacity:1"/><stop offset="0.5" style="stop-color:rgb(187,129,79);stop-opacity:1"/><stop offset="0.99" style="stop-color:rgb(108,73,33);stop-opacity:1"/><stop offset="1" style="stop-color:rgb(108,73,33);stop-opacity:1"/></linearGradient>        <linearGradient id="_Linear13" x1="0" y1="0" x2="1" y2="0" gradientUnits="userSpaceOnUse" gradientTransform="matrix(15.6305,178.601,-178.601,15.6305,290.834,48.7802)"><stop offset="0" style="stop-color:rgb(108,73,33);stop-opacity:1"/><stop offset="0.07" style="stop-color:rgb(129,88,45);stop-opacity:1"/><stop offset="0.2" style="stop-color:rgb(160,110,63);stop-opacity:1"/><stop offset="0.32" style="stop-color:rgb(179,123,74);stop-opacity:1"/><stop offset="0.39" style="stop-color:rgb(186,128,78);stop-opacity:1"/><stop offset="0.53" style="stop-color:rgb(174,119,71);stop-opacity:1"/><stop offset="0.78" style="stop-color:rgb(141,96,52);stop-opacity:1"/><stop offset="0.99" style="stop-color:rgb(108,73,33);stop-opacity:1"/><stop offset="1" style="stop-color:rgb(108,73,33);stop-opacity:1"/></linearGradient>    </defs></svg>