<?xml version="1.0" encoding="UTF-8" standalone="no"?><!DOCTYPE svg PUBLIC "-//W3C//DTD SVG 1.1//EN" "http://www.w3.org/Graphics/SVG/1.1/DTD/svg11.dtd"><svg width="100%" height="100%" viewBox="0 0 1024 512" version="1.1" xmlns="http://www.w3.org/2000/svg" xmlns:xlink="http://www.w3.org/1999/xlink" xml:space="preserve" style="fill-rule:evenodd;clip-rule:evenodd;stroke-linejoin:round;stroke-miterlimit:2;"><title>Nutmeg</title><desc></desc>    <g id="nutmeg" transform="matrix(1.80659,0,0,1.80616,2,128.124)">        <path d="M429.4,21.7c-25.1,0 -42.5,18 -42.5,43.8c-0,23.8 17.2,43.2 45,43.2c20.8,0 33.6,-12.6 33.6,-12.6l-8.7,-14.4c-0,0 -10,9.3 -23.4,9.3c-12.6,0 -23.5,-7.1 -25.1,-21.9l57.7,0c-0,0 0.5,-5.2 0.5,-7.7c-0.1,-22.2 -13.2,-39.7 -37.1,-39.7Zm-20.5,32.9c2.3,-10.5 9.8,-16.9 20.5,-16.9c8.5,0 15.4,6.9 15.7,16.9l-36.2,0Zm136.3,-31c-6.6,0 -9.2,3.9 -9.2,7.7l0,2.1l-0.3,0c0,0 -6.4,-11.8 -25.7,-11.8c-24.1,0 -37.1,18.7 -37.1,41.7c0,23 13.6,42.3 37.6,42.3c11.2,0 18.4,-3.8 23.3,-10.8l0.3,0c0,0 -0.2,2.5 -0.2,4.4l0,3.9c0,15.1 -11,20.5 -23.6,20.5c-12.8,0 -23.1,-5.6 -23.1,-5.6l-6.4,16.4c8,4.3 19.2,7.2 29.7,7.2c21.8,0 44.1,-10.8 44.1,-39.5l0,-57.5c0,-2.1 1.5,-3.3 3.6,-3.3l6.4,0l0,-17.7l-19.4,0Zm-30.4,64.5c-13.5,0 -20.8,-10.8 -20.8,-25.4c0,-14.1 6.9,-23.3 19.5,-23.3c11.3,0 20.8,5.1 20.8,24.1c0,18.8 -9.5,24.6 -19.5,24.6Zm-457.8,-66.4c-11.8,0 -21.3,5 -26.8,14.3l0,-3.8c0,-5.9 -3.8,-9.3 -11,-9.3l-19.2,0l0,17.6l6.6,0c2.3,0 3.6,1.3 3.6,3.6l0,62.5l20.9,0l0,-45.6c0,-13.6 6.8,-21.7 19.9,-21.7c11.8,0 16.4,7 16.4,19l0,48.3l20.9,0l0,-50c0,-22.8 -13,-34.9 -31.3,-34.9Zm319.9,63.6l0,-29.1c0,-21.4 -11.7,-34.5 -31.1,-34.5c-12,0 -21.7,4.3 -28.1,14.3c-4.3,-10.2 -12.2,-14.3 -24.2,-14.3c-10.5,0 -18.9,3.9 -24.4,14.3c0,-0.9 0.1,-0.5 0.1,-1.4l0,-2.5c0,-5.9 -3.6,-9.3 -11,-9.3l-43,0l0,-22.8l-20.4,0l0,22.8l-11.3,0l0,16.7l10.8,0l0,36.6c0,28 23.1,31.5 34.8,31.5c3.8,0 6.4,-0.5 6.4,-0.5l-0,-18.2c-0,0 -1.5,0.3 -3.8,0.3c-5.7,0 -16.6,-2 -16.6,-15.8l-0,-33.9l30.4,0c2.3,0 3.6,1.3 3.6,3.6l-0,63.3l20.9,0l0,-46c0,-14 5.7,-21.2 17.5,-21.2c11.4,0 15.1,6.4 15.1,18l0,49.3l20.9,0l0,-46.1c0,-14 5.7,-21.2 17.5,-21.2c11.4,0 15.1,6.4 15.1,18l0,38.1c0,7.9 3.3,11.2 11.2,11.2l19.7,0l0,-17.6l-6.4,0c-2.3,0 -3.7,-1.3 -3.7,-3.6Zm-201.7,-0l-0,-62.5l-20.9,-0l-0,45.5c-0,13.6 -6.8,21.7 -19.9,21.7c-11.8,-0 -16.4,-7 -16.4,-19l-0,-48.2l-20.8,-0l0,49.9c0,22.7 12.9,34.9 31.3,34.9c11.8,-0 21.3,-5 26.8,-14.3l0,3.8c0,5.9 3.8,9.3 11,9.3l19.2,-0l0,-17.5l-6.6,-0c-2.3,-0 -3.7,-1.3 -3.7,-3.6Z" style="fill:rgb(0,180,69);fill-rule:nonzero;"/>    </g></svg>