<?xml version="1.0" encoding="UTF-8" standalone="no"?><!DOCTYPE svg PUBLIC "-//W3C//DTD SVG 1.1//EN" "http://www.w3.org/Graphics/SVG/1.1/DTD/svg11.dtd"><svg width="100%" height="100%" viewBox="0 0 1024 512" version="1.1" xmlns="http://www.w3.org/2000/svg" xmlns:xlink="http://www.w3.org/1999/xlink" xml:space="preserve" style="fill-rule:evenodd;clip-rule:evenodd;stroke-linejoin:round;stroke-miterlimit:2;"><title>LendInvest</title><desc>Bridging loans, development finance, Buy-to-Let mortgages – we combine our industry experience with intelligent technology to make access to finance easier for borrowers and brokers.</desc>    <g id="lendinvest-512x256.svg" transform="matrix(2.21739,0,0,2.21739,-55.6522,-27.8261)">        <path d="M153.18,115.52c-0.128,-0.002 -0.256,-0.004 -0.383,-0.004c-10.989,0 -20.083,8.927 -20.287,19.914l0,0.91c-0.005,0.179 -0.007,0.358 -0.007,0.537c0,10.93 8.831,19.996 19.757,20.283l1.07,0c6.234,0.139 12.236,-2.413 16.46,-7l-6,-6.39c-2.676,2.977 -6.518,4.65 -10.52,4.58c-5.721,0.219 -10.746,-3.956 -11.58,-9.62l30.74,0l0,-2.41c-0.53,-12.85 -8,-20.82 -19.24,-20.82l-0.01,0.02Zm-11.28,16.48c1.263,-4.782 5.575,-8.171 10.52,-8.27c5.41,0 9.17,2.78 10.22,8.27l-20.74,0Zm59.3,-16.46c-4.215,-0.165 -8.309,1.456 -11.27,4.46l0,-3.68l-8.87,0l0,40.21l8.79,0l0,-25.45c1.58,-4.74 5,-7.07 9.62,-7.07c0.097,-0.003 0.194,-0.005 0.291,-0.005c4.871,0 8.88,4.009 8.88,8.88c0,0.042 0,0.083 -0.001,0.125l0,23.38l9,0l0,-23.5c0,-10.52 -6.39,-17.44 -16.39,-17.44l-0.05,0.09Zm75.69,0.83l8.87,0l0,40.14l-8.86,0l-0.01,-40.14Zm169.49,16.46l-3,-1.05c-3.76,-1.5 -5.11,-2.86 -5.11,-5c0,-2.14 2.1,-3.16 4.51,-3.16c2.493,-0.072 4.803,1.351 5.86,3.61l6.54,-4.51c-2.547,-4.532 -7.435,-7.268 -12.63,-7.07c-7.52,0 -13,4.81 -13,11.35c0,5.49 3,9.77 9.77,12.4l2.93,1.2c3.76,1.35 5.41,2.71 5.41,5c0,2.29 -2.1,3.76 -5.19,3.76c-4.06,0 -6.24,-1.88 -8.27,-5.19l-6.75,4.83c3.31,5.64 8.64,8.27 15,8.27c8.57,0 14.43,-5 14.43,-12c0,-6.24 -3.76,-9.77 -10.52,-12.48l0.02,0.04Z" style="fill:rgb(49,61,70);fill-rule:nonzero;"/>        <circle cx="281.33" cy="104.62" r="5.19" style="fill:rgb(49,61,70);"/>        <path d="M358.52,140.1l-12.1,-23.68l-10,0l22.1,40.89l22.1,-40.89l-10.15,0l-11.95,23.68Zm-243.45,-40.66l8.87,0l0,57.12l-8.87,0l0,-57.12Zm370.93,24.88l0,-8l-8.79,0l0,-11.7l-8.87,5.11l0,6.61l-5,0l0,8l5,0l0,20.07c0,7.67 4.51,12.25 12.33,12.25l5.33,0l0,-8.12l-3.08,0c-4.58,0 -5.71,-1.88 -5.71,-6l0,-18.3l8.79,0l0,0.08Zm-169.12,-8.79c-4.13,0 -8.42,1.35 -11.27,4.51l0,-3.68l-8.87,0l0,40.21l8.87,0l0,-25.49c1.58,-4.74 5.11,-7.07 9.62,-7.07c0.097,-0.003 0.194,-0.005 0.291,-0.005c4.871,0 8.88,4.009 8.88,8.88c0,0.042 0,0.083 -0.001,0.125l0,23.38l9,0l0,-23.5c0,-10.52 -6.39,-17.44 -16.46,-17.44l-0.06,0.08Zm85.69,0c-0.128,-0.002 -0.256,-0.004 -0.383,-0.004c-10.989,0 -20.083,8.927 -20.287,19.914l0,0.91c-0.003,0.152 -0.005,0.303 -0.005,0.455c0,11.003 8.915,20.119 19.915,20.365l0.91,0c7.07,0 13,-3 16.39,-7l-6,-6.39c-2.648,2.975 -6.468,4.649 -10.45,4.58c-5.721,0.219 -10.746,-3.956 -11.58,-9.62l30.74,0l0,-2.41c-0.53,-12.85 -8,-20.82 -19.32,-20.82l0.07,0.02Zm-11.28,16.47c1.23,-4.803 5.562,-8.209 10.52,-8.27c5.34,0 9.17,2.78 10.22,8.27l-20.74,0Zm-134.16,-12.64c-3.075,-2.32 -6.818,-3.586 -10.67,-3.61l-0.08,0c-0.179,-0.005 -0.358,-0.007 -0.537,-0.007c-10.93,0 -19.996,8.831 -20.283,19.757l0,1.07c-0.004,0.155 -0.005,0.31 -0.005,0.465c0,10.959 8.879,20.039 19.835,20.285l1.06,0c3.838,-0.031 7.571,-1.266 10.67,-3.53l0,2.78l8.88,0l0,-57.13l-8.87,0l0,19.92Zm-10.75,29.54c-6.84,0 -11.65,-5.34 -11.65,-12.33c0,-6.99 4.89,-12.4 11.65,-12.4c6.76,0 11.88,5 11.88,12.4c0,7.4 -4.97,12.33 -11.88,12.33Zm-200.61,-49.46l-19.77,11.42l0,45.7l19.77,11.44l19.84,-11.42l-19.84,-11.37l0,-45.77Zm19.84,34.27l19.77,11.5l0,-45.77l-19.77,-11.44l0,45.71Z" style="fill:rgb(49,61,70);fill-rule:nonzero;"/>    </g></svg>