<?xml version="1.0" encoding="UTF-8" standalone="no"?><!DOCTYPE svg PUBLIC "-//W3C//DTD SVG 1.1//EN" "http://www.w3.org/Graphics/SVG/1.1/DTD/svg11.dtd"><svg width="100%" height="100%" viewBox="0 0 1024 512" version="1.1" xmlns="http://www.w3.org/2000/svg" xmlns:xlink="http://www.w3.org/1999/xlink" xml:space="preserve" style="fill-rule:evenodd;clip-rule:evenodd;stroke-linejoin:round;stroke-miterlimit:2;"><title>Bankerat</title><desc>Bankerat.cz is the largest portal for administration of P2P non-bank loans in the Czech Republic.</desc>    <g transform="matrix(4.38662,0,0,4.38662,-489.301,-110.283)">        <g transform="matrix(1.48921,0,0,1,-148.353,10)">            <g transform="matrix(32.2319,0,0,48,199,90.3828)">                <path d="M0.147,0l-0.082,0l0,-0.716l0.088,0l0,0.256c0.037,-0.047 0.085,-0.07 0.142,-0.07c0.032,0 0.063,0.006 0.091,0.019c0.028,0.013 0.052,0.031 0.07,0.054c0.019,0.023 0.033,0.052 0.044,0.084c0.01,0.033 0.015,0.068 0.015,0.106c0,0.089 -0.022,0.157 -0.066,0.206c-0.044,0.048 -0.096,0.073 -0.158,0.073c-0.061,0 -0.109,-0.026 -0.144,-0.077l0,0.065Zm-0.001,-0.263c0,0.062 0.008,0.107 0.025,0.135c0.028,0.045 0.065,0.067 0.113,0.067c0.038,0 0.071,-0.016 0.099,-0.05c0.028,-0.033 0.042,-0.083 0.042,-0.149c0,-0.067 -0.013,-0.117 -0.04,-0.15c-0.027,-0.032 -0.059,-0.048 -0.097,-0.048c-0.039,0 -0.072,0.017 -0.1,0.05c-0.028,0.033 -0.042,0.082 -0.042,0.145Z" style="fill:rgb(116,116,116);fill-rule:nonzero;"/>            </g>            <g transform="matrix(32.2319,0,0,48,217.893,90.3828)">                <path d="M0.404,-0.064c-0.032,0.028 -0.064,0.047 -0.094,0.059c-0.03,0.011 -0.062,0.017 -0.097,0.017c-0.057,0 -0.1,-0.014 -0.131,-0.042c-0.031,-0.028 -0.046,-0.063 -0.046,-0.107c0,-0.025 0.006,-0.048 0.017,-0.069c0.012,-0.021 0.027,-0.038 0.046,-0.051c0.019,-0.013 0.04,-0.022 0.063,-0.029c0.017,-0.004 0.043,-0.009 0.078,-0.013c0.071,-0.008 0.123,-0.018 0.157,-0.03c0,-0.012 0,-0.02 0,-0.023c0,-0.036 -0.008,-0.061 -0.024,-0.076c-0.023,-0.02 -0.056,-0.03 -0.101,-0.03c-0.041,0 -0.071,0.008 -0.091,0.022c-0.02,0.015 -0.034,0.04 -0.044,0.077l-0.086,-0.012c0.008,-0.036 0.021,-0.066 0.039,-0.089c0.018,-0.022 0.044,-0.04 0.077,-0.052c0.034,-0.012 0.074,-0.018 0.118,-0.018c0.044,0 0.08,0.005 0.108,0.015c0.028,0.011 0.048,0.024 0.061,0.04c0.013,0.015 0.022,0.035 0.027,0.059c0.003,0.015 0.005,0.042 0.005,0.082l0,0.117c0,0.081 0.002,0.133 0.005,0.155c0.004,0.021 0.012,0.042 0.023,0.062l-0.092,0c-0.009,-0.018 -0.015,-0.04 -0.018,-0.064Zm-0.007,-0.196c-0.032,0.013 -0.08,0.024 -0.144,0.033c-0.036,0.005 -0.061,0.011 -0.076,0.018c-0.015,0.006 -0.027,0.016 -0.035,0.028c-0.008,0.013 -0.012,0.027 -0.012,0.042c0,0.023 0.009,0.043 0.026,0.058c0.018,0.016 0.044,0.024 0.078,0.024c0.034,0 0.064,-0.008 0.091,-0.022c0.026,-0.015 0.045,-0.035 0.058,-0.061c0.009,-0.02 0.014,-0.049 0.014,-0.088l0,-0.032Z" style="fill:rgb(116,116,116);fill-rule:nonzero;"/>            </g>            <g transform="matrix(32.2319,0,0,48,236.786,90.3828)">                <path d="M0.066,0l0,-0.519l0.079,0l0,0.074c0.038,-0.057 0.093,-0.085 0.165,-0.085c0.031,0 0.06,0.005 0.086,0.017c0.026,0.011 0.046,0.026 0.059,0.044c0.013,0.018 0.022,0.04 0.027,0.065c0.004,0.016 0.005,0.044 0.005,0.085l0,0.319l-0.088,0l0,-0.315c0,-0.036 -0.003,-0.063 -0.01,-0.081c-0.007,-0.017 -0.019,-0.032 -0.036,-0.042c-0.018,-0.011 -0.038,-0.016 -0.061,-0.016c-0.038,0 -0.07,0.012 -0.097,0.036c-0.028,0.023 -0.041,0.068 -0.041,0.135l0,0.283l-0.088,0Z" style="fill:rgb(116,116,116);fill-rule:nonzero;"/>            </g>            <g transform="matrix(32.2319,0,0,48,255.678,90.3828)">                <path d="M0.066,0l0,-0.716l0.088,0l0,0.408l0.208,-0.211l0.114,0l-0.198,0.193l0.218,0.326l-0.108,0l-0.172,-0.265l-0.062,0.059l0,0.206l-0.088,0Z" style="fill:rgb(116,116,116);fill-rule:nonzero;"/>            </g>            <g transform="matrix(32.2319,0,0,48,272.761,90.3828)">                <path d="M0.421,-0.167l0.091,0.011c-0.015,0.053 -0.041,0.094 -0.08,0.124c-0.039,0.029 -0.088,0.044 -0.148,0.044c-0.076,0 -0.136,-0.024 -0.181,-0.07c-0.044,-0.047 -0.066,-0.113 -0.066,-0.197c0,-0.087 0.022,-0.155 0.067,-0.203c0.045,-0.048 0.103,-0.072 0.175,-0.072c0.069,0 0.126,0.023 0.17,0.071c0.044,0.047 0.066,0.113 0.066,0.199c0,0.005 -0.001,0.013 -0.001,0.023l-0.387,0c0.004,0.057 0.02,0.101 0.049,0.131c0.029,0.03 0.065,0.045 0.108,0.045c0.032,0 0.06,-0.008 0.083,-0.025c0.022,-0.017 0.041,-0.044 0.054,-0.081Zm-0.289,-0.142l0.29,0c-0.004,-0.044 -0.015,-0.076 -0.033,-0.098c-0.028,-0.034 -0.065,-0.051 -0.109,-0.051c-0.041,0 -0.075,0.014 -0.102,0.041c-0.028,0.027 -0.043,0.063 -0.046,0.108Z" style="fill:rgb(116,116,116);fill-rule:nonzero;"/>            </g>            <g transform="matrix(32.2319,0,0,48,291.654,90.3828)">                <path d="M0.065,0l0,-0.519l0.079,0l0,0.079c0.02,-0.037 0.039,-0.061 0.056,-0.073c0.017,-0.011 0.036,-0.017 0.056,-0.017c0.03,0 0.06,0.009 0.091,0.028l-0.031,0.082c-0.021,-0.013 -0.043,-0.019 -0.064,-0.019c-0.019,0 -0.037,0.005 -0.052,0.017c-0.015,0.011 -0.026,0.027 -0.033,0.048c-0.009,0.031 -0.014,0.065 -0.014,0.103l0,0.271l-0.088,0Z" style="fill:rgb(68,68,68);fill-rule:nonzero;"/>            </g>            <g transform="matrix(32.2319,0,0,48,303.355,90.3828)">                <path d="M0.404,-0.064c-0.032,0.028 -0.064,0.047 -0.094,0.059c-0.03,0.011 -0.062,0.017 -0.097,0.017c-0.057,0 -0.1,-0.014 -0.131,-0.042c-0.031,-0.028 -0.046,-0.063 -0.046,-0.107c0,-0.025 0.006,-0.048 0.017,-0.069c0.012,-0.021 0.027,-0.038 0.046,-0.051c0.019,-0.013 0.04,-0.022 0.063,-0.029c0.017,-0.004 0.043,-0.009 0.078,-0.013c0.071,-0.008 0.123,-0.018 0.157,-0.03c0,-0.012 0,-0.02 0,-0.023c0,-0.036 -0.008,-0.061 -0.024,-0.076c-0.023,-0.02 -0.056,-0.03 -0.101,-0.03c-0.041,0 -0.071,0.008 -0.091,0.022c-0.02,0.015 -0.034,0.04 -0.044,0.077l-0.086,-0.012c0.008,-0.036 0.021,-0.066 0.039,-0.089c0.018,-0.022 0.044,-0.04 0.077,-0.052c0.034,-0.012 0.074,-0.018 0.118,-0.018c0.044,0 0.08,0.005 0.108,0.015c0.028,0.011 0.048,0.024 0.061,0.04c0.013,0.015 0.022,0.035 0.027,0.059c0.003,0.015 0.005,0.042 0.005,0.082l0,0.117c0,0.081 0.002,0.133 0.005,0.155c0.004,0.021 0.012,0.042 0.023,0.062l-0.092,0c-0.009,-0.018 -0.015,-0.04 -0.018,-0.064Zm-0.007,-0.196c-0.032,0.013 -0.08,0.024 -0.144,0.033c-0.036,0.005 -0.061,0.011 -0.076,0.018c-0.015,0.006 -0.027,0.016 -0.035,0.028c-0.008,0.013 -0.012,0.027 -0.012,0.042c0,0.023 0.009,0.043 0.026,0.058c0.018,0.016 0.044,0.024 0.078,0.024c0.034,0 0.064,-0.008 0.091,-0.022c0.026,-0.015 0.045,-0.035 0.058,-0.061c0.009,-0.02 0.014,-0.049 0.014,-0.088l0,-0.032Z" style="fill:rgb(68,68,68);fill-rule:nonzero;"/>            </g>            <g transform="matrix(32.2319,0,0,48,322.247,90.3828)">                <path d="M0.258,-0.079l0.013,0.078c-0.025,0.005 -0.047,0.008 -0.067,0.008c-0.032,0 -0.057,-0.005 -0.074,-0.015c-0.018,-0.01 -0.03,-0.024 -0.037,-0.04c-0.007,-0.017 -0.011,-0.051 -0.011,-0.104l0,-0.298l-0.064,0l0,-0.069l0.064,0l0,-0.128l0.087,-0.053l0,0.181l0.089,0l0,0.069l-0.089,0l0,0.303c0,0.025 0.002,0.041 0.005,0.048c0.003,0.008 0.008,0.013 0.015,0.017c0.007,0.005 0.017,0.007 0.03,0.007c0.01,0 0.023,-0.001 0.039,-0.004Z" style="fill:rgb(68,68,68);fill-rule:nonzero;"/>            </g>        </g>        <g transform="matrix(1.02857,0,0,1.02857,-4.22857,-51.2571)">            <rect x="132" y="114" width="15" height="15" style="fill:rgb(119,210,2);"/>        </g>        <g transform="matrix(1.02857,0,0,1.02857,-4.22857,-31.6857)">            <rect x="132" y="114" width="15" height="15" style="fill:rgb(35,141,250);"/>        </g>        <g transform="matrix(1.02857,0,0,1.02857,-23.7714,-31.6857)">            <rect x="132" y="114" width="15" height="15" style="fill:rgb(238,26,141);"/>        </g>    </g></svg>