<?xml version="1.0" encoding="UTF-8" standalone="no"?><!DOCTYPE svg PUBLIC "-//W3C//DTD SVG 1.1//EN" "http://www.w3.org/Graphics/SVG/1.1/DTD/svg11.dtd"><svg width="100%" height="100%" viewBox="0 0 1024 512" version="1.1" xmlns="http://www.w3.org/2000/svg" xmlns:xlink="http://www.w3.org/1999/xlink" xml:space="preserve" style="fill-rule:evenodd;clip-rule:evenodd;stroke-linejoin:round;stroke-miterlimit:2;"><title>CoinLoan</title><desc>CoinLoan is the first P2P lending platform for cryptoassets backed loans. Borrowers get money withoфut selling cryptoassets. Investors offer loans and earn competitive returns. Overcollateralization ensures full repayment on time.</desc>    <g transform="matrix(8.39258,0,0,8.39258,0.393112,130.657)">        <g id="Group-8">            <path id="Shape" d="M14.947,4.662c-5.632,0 -10.215,4.614 -10.215,10.284c0,5.671 4.583,10.284 10.215,10.284c5.633,0 10.216,-4.613 10.216,-10.284c0,-5.67 -4.583,-10.284 -10.216,-10.284Zm0,19.127c-4.844,0 -8.783,-3.967 -8.783,-8.843c0,-4.876 3.939,-8.843 8.783,-8.843c4.843,0 8.783,3.967 8.783,8.843c0,4.876 -3.94,8.843 -8.783,8.843Z" style="fill:rgb(52,130,250);fill-rule:nonzero;"/>            <path id="Shape1" d="M19.622,14.309c-0.112,-0.834 -0.438,-1.599 -0.923,-2.238c0.013,-0.011 0.026,-0.019 0.037,-0.031l1.177,-1.185c0.25,-0.251 0.25,-0.657 0,-0.908c-0.249,-0.251 -0.652,-0.251 -0.902,0l-1.176,1.185c-0.012,0.011 -0.02,0.025 -0.032,0.037c-0.634,-0.488 -1.394,-0.816 -2.222,-0.929c0,-0.016 0.005,-0.03 0.005,-0.046l0,-1.676c0,-0.355 -0.286,-0.642 -0.639,-0.642c-0.352,0 -0.637,0.287 -0.637,0.642l0,1.676c0,0.016 0.004,0.03 0.005,0.046c-0.83,0.113 -1.588,0.441 -2.223,0.929c-0.01,-0.012 -0.019,-0.026 -0.031,-0.037l-1.177,-1.185c-0.249,-0.251 -0.652,-0.251 -0.903,0c-0.249,0.251 -0.249,0.657 0,0.908l1.178,1.185c0.012,0.012 0.025,0.02 0.037,0.031c-0.484,0.64 -0.811,1.404 -0.922,2.238c-0.016,-0.002 -0.031,-0.005 -0.046,-0.005l-1.665,-0.001c-0.353,0 -0.638,0.288 -0.638,0.644c0,0.354 0.285,0.642 0.638,0.642l1.664,-0.001c0.015,0 0.03,-0.003 0.046,-0.005c0.111,0.834 0.438,1.599 0.923,2.238c-0.012,0.011 -0.025,0.019 -0.038,0.031l-1.177,1.185c-0.25,0.251 -0.25,0.657 0,0.909c0.25,0.251 0.653,0.251 0.902,0l1.178,-1.186c0.011,-0.011 0.02,-0.024 0.031,-0.037c0.634,0.488 1.393,0.817 2.223,0.929c-0.002,0.016 -0.006,0.031 -0.006,0.046l0,1.676c0,0.356 0.286,0.643 0.638,0.643c0.353,0 0.638,-0.287 0.638,-0.643l0,-1.676c0,-0.015 -0.004,-0.03 -0.004,-0.046c0.828,-0.112 1.588,-0.441 2.221,-0.929c0.012,0.013 0.021,0.026 0.032,0.038l1.177,1.185c0.249,0.252 0.652,0.252 0.902,0c0.25,-0.251 0.249,-0.658 0,-0.909l-1.177,-1.185c-0.011,-0.012 -0.024,-0.02 -0.037,-0.031c0.484,-0.639 0.811,-1.403 0.922,-2.237c0.016,0.001 0.031,0.005 0.047,0.005l1.664,0c0.354,0 0.638,-0.287 0.638,-0.642c0,-0.355 -0.285,-0.643 -0.638,-0.643l-1.664,0c-0.016,-0.001 -0.031,0.003 -0.046,0.005Zm-4.675,3.95c-1.814,0 -3.29,-1.486 -3.29,-3.312c0,-1.827 1.476,-3.313 3.29,-3.313c1.815,0 3.291,1.486 3.291,3.313c0,1.826 -1.476,3.312 -3.291,3.312Z" style="fill:rgb(52,130,250);fill-rule:nonzero;"/>            <path id="Shape2" d="M26.167,0.077l-22.429,0c-1.956,0 -3.547,1.602 -3.547,3.571l0,22.573c0,1.97 1.591,3.572 3.547,3.572l22.429,0c1.955,0 3.548,-1.602 3.548,-3.572l0,-22.573c0,-1.969 -1.593,-3.571 -3.548,-3.571Zm1.928,26.144c0,1.071 -0.866,1.943 -1.928,1.943l-22.429,0c-1.063,0 -1.928,-0.871 -1.928,-1.943l0,-12.284l0,-0.09l0,-10.199c0,-1.071 0.864,-1.941 1.928,-1.941l22.429,0c1.062,0 1.928,0.87 1.928,1.941l0,22.573Z" style="fill:rgb(52,130,250);fill-rule:nonzero;"/>        </g>        <g id="Group" transform="matrix(1,0,0,1,39.0665,7.58621)">            <path id="Shape3" d="M12.98,3.171l-1.756,1.685c-1.193,-1.271 -2.536,-1.906 -4.029,-1.906c-1.26,0 -2.321,0.434 -3.184,1.301c-0.862,0.867 -1.293,1.935 -1.293,3.206c0,0.885 0.191,1.671 0.573,2.357c0.382,0.687 0.922,1.226 1.62,1.617c0.699,0.391 1.475,0.587 2.329,0.587c0.728,0 1.393,-0.137 1.997,-0.411c0.602,-0.274 1.264,-0.772 1.987,-1.495l1.701,1.788c-0.974,0.957 -1.893,1.62 -2.76,1.99c-0.866,0.37 -1.855,0.555 -2.966,0.555c-2.05,0 -3.727,-0.654 -5.033,-1.963c-1.305,-1.308 -1.958,-2.984 -1.958,-5.03c0,-1.323 0.297,-2.499 0.892,-3.528c0.595,-1.028 1.446,-1.855 2.554,-2.481c1.109,-0.625 2.302,-0.938 3.581,-0.938c1.087,0 2.134,0.231 3.141,0.694c1.007,0.462 1.874,1.12 2.604,1.972Z" style="fill:rgb(52,130,250);fill-rule:nonzero;"/>            <path id="Shape4" d="M19.486,4.042c0.92,0 1.785,0.231 2.594,0.695c0.81,0.463 1.442,1.092 1.896,1.886c0.453,0.794 0.681,1.651 0.681,2.571c0,0.927 -0.229,1.793 -0.686,2.599c-0.457,0.806 -1.079,1.436 -1.868,1.89c-0.789,0.454 -1.659,0.681 -2.608,0.681c-1.399,0 -2.592,-0.501 -3.581,-1.502c-0.989,-1.001 -1.483,-2.218 -1.483,-3.65c0,-1.533 0.559,-2.812 1.676,-3.834c0.98,-0.891 2.107,-1.336 3.379,-1.336Zm0.04,2.319c-0.76,0 -1.393,0.266 -1.899,0.798c-0.505,0.532 -0.758,1.214 -0.758,2.044c0,0.854 0.25,1.546 0.75,2.075c0.499,0.529 1.132,0.794 1.898,0.794c0.766,0 1.404,-0.267 1.912,-0.803c0.508,-0.535 0.764,-1.224 0.764,-2.066c0,-0.842 -0.251,-1.526 -0.75,-2.053c-0.5,-0.526 -1.139,-0.789 -1.917,-0.789Z" style="fill:rgb(52,130,250);fill-rule:nonzero;"/>            <path id="Shape5" d="M27.61,0.252c0.429,0 0.796,0.157 1.104,0.469c0.307,0.313 0.46,0.692 0.46,1.137c0,0.439 -0.152,0.813 -0.456,1.123c-0.303,0.31 -0.667,0.465 -1.09,0.465c-0.435,0 -0.806,-0.158 -1.113,-0.474c-0.307,-0.315 -0.46,-0.699 -0.46,-1.15c0,-0.433 0.152,-0.803 0.456,-1.11c0.303,-0.306 0.67,-0.46 1.099,-0.46Zm-1.223,4.042l2.447,0l0,9.817l-2.447,0l0,-9.817Z" style="fill:rgb(52,130,250);fill-rule:nonzero;"/>            <path id="Shape6" d="M31.056,4.294l2.447,0l0,1.006c0.555,-0.47 1.058,-0.798 1.508,-0.982c0.45,-0.184 0.911,-0.276 1.382,-0.276c0.967,0 1.787,0.339 2.462,1.019c0.566,0.578 0.85,1.432 0.85,2.563l0,6.487l-2.42,0l0,-4.299c0,-1.171 -0.052,-1.95 -0.157,-2.334c-0.104,-0.385 -0.285,-0.678 -0.545,-0.879c-0.26,-0.201 -0.579,-0.302 -0.961,-0.302c-0.495,0 -0.92,0.166 -1.274,0.5c-0.355,0.334 -0.601,0.795 -0.738,1.384c-0.072,0.306 -0.107,0.97 -0.107,1.991l0,3.939l-2.447,0l0,-9.817l0,0Z" style="fill:rgb(52,130,250);fill-rule:nonzero;"/>            <path id="Shape7" d="M42.339,0.839l2.51,0l0,10.863l3.657,0l0,2.409l-6.167,0l0,-13.272Z" style="fill:rgb(52,130,250);fill-rule:nonzero;"/>            <path id="Shape8" d="M54.725,4.042c0.921,0 1.786,0.231 2.595,0.695c0.809,0.463 1.442,1.092 1.895,1.886c0.454,0.794 0.682,1.651 0.682,2.571c0,0.927 -0.229,1.793 -0.686,2.599c-0.457,0.806 -1.08,1.436 -1.869,1.89c-0.789,0.454 -1.658,0.681 -2.608,0.681c-1.398,0 -2.591,-0.501 -3.58,-1.502c-0.989,-1.001 -1.484,-2.218 -1.484,-3.65c0,-1.533 0.56,-2.812 1.677,-3.834c0.979,-0.891 2.106,-1.336 3.378,-1.336Zm0.041,2.319c-0.76,0 -1.393,0.266 -1.899,0.798c-0.506,0.532 -0.759,1.214 -0.759,2.044c0,0.854 0.25,1.546 0.75,2.075c0.5,0.529 1.133,0.794 1.899,0.794c0.766,0 1.403,-0.267 1.912,-0.803c0.509,-0.535 0.763,-1.224 0.763,-2.066c0,-0.842 -0.25,-1.526 -0.749,-2.053c-0.5,-0.526 -1.139,-0.789 -1.917,-0.789Z" style="fill:rgb(52,130,250);fill-rule:nonzero;"/>            <path id="Shape9" d="M69.092,4.294l2.447,0l0,9.817l-2.447,0l0,-1.038c-0.478,0.458 -0.956,0.787 -1.437,0.988c-0.48,0.202 -1,0.303 -1.562,0.303c-1.259,0 -2.348,-0.492 -3.267,-1.475c-0.919,-0.984 -1.379,-2.206 -1.379,-3.668c0,-1.516 0.445,-2.758 1.334,-3.727c0.89,-0.968 1.97,-1.452 3.241,-1.452c0.585,0 1.134,0.111 1.647,0.334c0.513,0.222 0.988,0.556 1.424,1.001l0,-1.083l-0.001,0Zm-2.572,2.022c-0.756,0 -1.385,0.268 -1.885,0.807c-0.5,0.539 -0.75,1.229 -0.75,2.071c0,0.848 0.255,1.546 0.764,2.093c0.509,0.547 1.136,0.821 1.88,0.821c0.768,0 1.405,-0.269 1.911,-0.808c0.506,-0.538 0.76,-1.243 0.76,-2.116c0,-0.854 -0.254,-1.545 -0.76,-2.075c-0.506,-0.529 -1.146,-0.793 -1.92,-0.793Z" style="fill:rgb(52,130,250);fill-rule:nonzero;"/>            <path id="Shape10" d="M74.013,4.294l2.446,0l0,1.006c0.555,-0.47 1.058,-0.798 1.508,-0.982c0.45,-0.184 0.911,-0.276 1.383,-0.276c0.966,0 1.786,0.339 2.461,1.019c0.566,0.578 0.85,1.432 0.85,2.563l0,6.487l-2.42,0l0,-4.299c0,-1.171 -0.052,-1.95 -0.157,-2.334c-0.104,-0.385 -0.285,-0.678 -0.545,-0.879c-0.26,-0.201 -0.579,-0.302 -0.961,-0.302c-0.495,0 -0.92,0.166 -1.274,0.5c-0.355,0.334 -0.601,0.795 -0.738,1.384c-0.072,0.306 -0.107,0.97 -0.107,1.991l0,3.939l-2.447,0l0,-9.817l0.001,0Z" style="fill:rgb(52,130,250);fill-rule:nonzero;"/>        </g>    </g></svg>