<?xml version="1.0" encoding="UTF-8" standalone="no"?><!DOCTYPE svg PUBLIC "-//W3C//DTD SVG 1.1//EN" "http://www.w3.org/Graphics/SVG/1.1/DTD/svg11.dtd"><svg width="100%" height="100%" viewBox="0 0 1024 512" version="1.1" xmlns="http://www.w3.org/2000/svg" xmlns:xlink="http://www.w3.org/1999/xlink" xml:space="preserve" style="fill-rule:evenodd;clip-rule:evenodd;stroke-linejoin:round;stroke-miterlimit:2;"><title>HODL Finance</title><desc>We're issuing crypto-backed loans that are fast, safe, exempt from tax and available 24/7. </desc>    <g transform="matrix(5.6541,0,0,5.6541,2,142.918)">        <path d="M97.6,10.3l0,3.9l-8.8,0l0,4.7l7.6,0l0,3.9l-7.6,0l0,8l-4,0l0,-20.5l12.8,0Zm3,2.6c0.393,-0.402 0.938,-0.62 1.5,-0.6c1.087,0.026 1.974,0.913 2,2c-0.026,1.087 -0.913,1.974 -2,2c-0.558,-0.003 -1.094,-0.217 -1.5,-0.6c-0.44,-0.33 -0.7,-0.85 -0.7,-1.4c0.044,-0.539 0.295,-1.041 0.7,-1.4Zm3.3,5.7l0,12.2l-3.9,0l0,-12.2l3.9,0Zm14.6,0.5c0.766,0.645 1.206,1.599 1.2,2.6l0,9.1l-3.9,0l0,-7.7c-0.1,-1.2 -0.7,-1.8 -1.8,-1.8c-0.89,-0.004 -1.707,0.502 -2.1,1.3c-0.601,0.954 -0.881,2.076 -0.8,3.2l0,4.9l-3.9,0l0,-12.1l3.5,0l0.3,2c0.437,-0.77 1.055,-1.422 1.8,-1.9c0.855,-0.476 1.821,-0.718 2.8,-0.7c1.069,-0.001 2.101,0.39 2.9,1.1Zm17.8,-0.5l0,12.2l-3.9,0l0,-1.5c-1.028,1.182 -2.534,1.844 -4.1,1.8c-1.622,0.084 -3.211,-0.493 -4.4,-1.6c-1.198,-1.3 -1.813,-3.036 -1.7,-4.8c0.015,-1.21 0.288,-2.403 0.8,-3.5c0.513,-0.977 1.271,-1.804 2.2,-2.4c0.864,-0.552 1.875,-0.831 2.9,-0.8c0.894,-0.038 1.784,0.133 2.6,0.5c0.655,0.348 1.233,0.824 1.7,1.4l0.3,-1.3l3.6,0Zm-3.9,7.5l0,-3c-0.19,-0.582 -0.58,-1.078 -1.1,-1.4c-0.57,-0.351 -1.231,-0.525 -1.9,-0.5c-0.845,-0.011 -1.652,0.356 -2.2,1c-0.6,0.652 -0.924,1.514 -0.9,2.4c-0.022,0.592 0.116,1.18 0.4,1.7c0.294,0.494 0.706,0.906 1.2,1.2c0.484,0.284 1.039,0.423 1.6,0.4c1.244,0.062 2.403,-0.658 2.9,-1.8Zm18.5,-7c0.702,0.682 1.099,1.621 1.1,2.6l0,9.1l-3.9,0l0,-7.7c0.079,-0.87 -0.537,-1.662 -1.4,-1.8l-0.3,0c-0.89,-0.004 -1.707,0.502 -2.1,1.3c-0.601,0.954 -0.881,2.076 -0.8,3.2l0,4.9l-3.9,0l0,-12.1l3.5,0l0.3,2c0.448,-0.795 1.105,-1.452 1.9,-1.9c0.855,-0.476 1.821,-0.718 2.8,-0.7c1.028,0.052 2.011,0.439 2.8,1.1Zm12.9,11.7c-0.769,0.278 -1.582,0.414 -2.4,0.4c-1.823,0.098 -3.615,-0.511 -5,-1.7c-1.267,-1.228 -1.958,-2.936 -1.9,-4.7c-0.011,-1.193 0.3,-2.368 0.9,-3.4c0.596,-0.929 1.423,-1.687 2.4,-2.2c2.625,-1.309 5.782,-0.997 8.1,0.8l-1.9,2.5c-0.757,-0.636 -1.712,-0.989 -2.7,-1c-0.794,-0.002 -1.554,0.324 -2.1,0.9c-0.583,0.623 -0.905,1.447 -0.9,2.3c-0.023,0.856 0.302,1.687 0.9,2.3c1.265,1.105 3.142,1.189 4.5,0.2l1.9,2.4c-0.499,0.533 -1.116,0.944 -1.8,1.2Zm12.5,-3.8l1.7,2.9c-0.661,0.383 -1.366,0.686 -2.1,0.9c-0.683,0.198 -1.389,0.299 -2.1,0.3c-1.281,0.045 -2.552,-0.23 -3.7,-0.8c-1.004,-0.52 -1.837,-1.319 -2.4,-2.3c-0.569,-1.04 -0.845,-2.215 -0.8,-3.4c-0.011,-1.162 0.301,-2.304 0.9,-3.3c0.636,-1.018 1.534,-1.847 2.6,-2.4c1.073,-0.589 2.276,-0.898 3.5,-0.9c1.572,-0.071 3.113,0.467 4.3,1.5c1.212,1.174 1.988,2.726 2.2,4.4l-8.9,2.8c0.587,0.706 1.485,1.081 2.4,1c0.858,0.064 1.711,-0.184 2.4,-0.7Zm-4.8,-5c-0.515,0.695 -0.795,1.535 -0.8,2.4l0,0.3l5.3,-1.8c-0.294,-1.104 -1.365,-1.832 -2.5,-1.7c-0.758,-0.087 -1.511,0.214 -2,0.8Z" style="fill:rgb(9,3,88);fill-rule:nonzero;"/>        <rect x="0" y="36" width="82.2" height="4" style="fill:url(#_Linear1);"/>        <path d="M21.3,20.9l-1.5,0.3l0,9.6l-4,0l0,-8.9l-9.2,1.6l0,7.3l-4,0l0,-6.6l-2.6,0.4l1.1,-4.3l1.5,-0.3l0,-9.8l4,0l0,9.1l9.1,-1.6l0,-7.5l4,0l0,6.7l2.5,-0.5l-0.9,4.5Zm3.2,-5.5c0.917,-1.6 2.224,-2.942 3.8,-3.9c1.577,-0.925 3.372,-1.412 5.2,-1.412c3.738,0 7.193,2.039 9,5.312c1.897,3.202 1.897,7.198 0,10.4c-0.921,1.571 -2.229,2.879 -3.8,3.8c-3.238,1.898 -7.262,1.898 -10.5,0c-1.592,-0.892 -2.908,-2.208 -3.8,-3.8c-1.816,-3.234 -1.778,-7.202 0.1,-10.4Zm3.6,8.5c0.52,1.004 1.319,1.837 2.3,2.4c0.965,0.586 2.071,0.897 3.2,0.9c1.099,0.01 2.177,-0.303 3.1,-0.9c0.929,-0.596 1.687,-1.423 2.2,-2.4c0.511,-1.026 0.784,-2.154 0.8,-3.3c0.045,-1.153 -0.232,-2.296 -0.8,-3.3c-0.52,-1.004 -1.319,-1.837 -2.3,-2.4c-1.962,-1.198 -4.438,-1.198 -6.4,0c-0.935,0.619 -1.721,1.439 -2.3,2.4c-0.602,0.99 -0.882,2.144 -0.8,3.3c0.086,1.16 0.428,2.287 1,3.3Zm18.2,-13.6l6.1,0c2.264,-0.112 4.514,0.407 6.5,1.5c1.591,0.906 2.879,2.263 3.7,3.9c0.796,1.617 1.207,3.397 1.2,5.2c-0.014,1.824 -0.496,3.615 -1.4,5.2c-0.894,1.48 -2.173,2.689 -3.7,3.5c-1.617,0.796 -3.397,1.207 -5.2,1.2l-7.1,0l0,-20.5l-0.1,0Zm6.5,16.6c1.805,0.086 3.581,-0.482 5,-1.6c1.261,-1.184 1.923,-2.875 1.8,-4.6c0.074,-1.372 -0.275,-2.733 -1,-3.9c-0.576,-0.897 -1.414,-1.595 -2.4,-2c-0.793,-0.341 -1.639,-0.543 -2.5,-0.6l-3.3,0l0,12.7l2.4,0Zm17.8,-16.6l0,16.6l9.6,0l0,3.9l-13.6,0l0,-20.5l4,0Z" style="fill:url(#_Linear2);fill-rule:nonzero;"/>        <rect x="0" y="0" width="82.2" height="4" style="fill:url(#_Linear3);"/>    </g>    <defs>        <linearGradient id="_Linear1" x1="0" y1="0" x2="1" y2="0" gradientUnits="userSpaceOnUse" gradientTransform="matrix(82.2,0,0,82.2,0,38)"><stop offset="0" style="stop-color:rgb(232,30,49);stop-opacity:1"/><stop offset="1" style="stop-color:rgb(248,103,58);stop-opacity:1"/></linearGradient>        <linearGradient id="_Linear2" x1="0" y1="0" x2="1" y2="0" gradientUnits="userSpaceOnUse" gradientTransform="matrix(80.2,0,0,80.2,0,298.55)"><stop offset="0" style="stop-color:rgb(232,30,49);stop-opacity:1"/><stop offset="1" style="stop-color:rgb(248,103,58);stop-opacity:1"/></linearGradient>        <linearGradient id="_Linear3" x1="0" y1="0" x2="1" y2="0" gradientUnits="userSpaceOnUse" gradientTransform="matrix(82.2,0,0,82.2,0,280)"><stop offset="0" style="stop-color:rgb(232,30,49);stop-opacity:1"/><stop offset="1" style="stop-color:rgb(248,103,58);stop-opacity:1"/></linearGradient>    </defs></svg>