<?xml version="1.0" encoding="UTF-8" standalone="no"?><!DOCTYPE svg PUBLIC "-//W3C//DTD SVG 1.1//EN" "http://www.w3.org/Graphics/SVG/1.1/DTD/svg11.dtd"><svg width="100%" height="100%" viewBox="0 0 1024 512" version="1.1" xmlns="http://www.w3.org/2000/svg" xmlns:xlink="http://www.w3.org/1999/xlink" xml:space="preserve" style="fill-rule:evenodd;clip-rule:evenodd;stroke-linejoin:round;stroke-miterlimit:2;"><title>Funding Tree</title><desc>Funding Tree is a fully regulated crowdfunding UK platform designed to help investors make good returns on investments and businesses raise money to grow. Businesses raise finance using one of two ways: through equity crowdfunding or peer-to-peer lending.</desc>    <g transform="matrix(4.84342,0,0,4.84342,34.0698,-15.4221)">        <g>            <g transform="matrix(1,0,0,1,-0.573225,0)">                <path d="M74.194,61.434c0,0 -1.864,2.075 -6.552,2.967c-4.308,0 -7.595,-2.203 -7.595,-2.203c0,0 4.33,-5.122 5.919,-4.563c5.17,0.108 8.228,3.799 8.228,3.799Z" style="fill:url(#_Linear1);"/>                <g transform="matrix(0.0550669,0.94322,-0.852331,0.0497606,106.915,-47.1456)">                    <path d="M74.194,61.434c0,0 -2.861,2.352 -7.548,3.244c-4.309,0 -6.599,-2.48 -6.599,-2.48c0,0 5.349,-5.472 6.938,-4.913c5.17,0.108 7.209,4.149 7.209,4.149Z" style="fill:url(#_Linear2);"/>                </g>                <g transform="matrix(0.0550669,0.94322,-0.852331,0.0497606,135.001,-38.5348)">                    <path d="M75.466,60.548c0,0 -2.247,4.534 -6.934,5.426c-4.308,0 -5.691,-0.091 -5.691,-0.091c0,0 0.508,-5.06 5.863,-7.42c4.975,-0.694 6.762,2.085 6.762,2.085Z" style="fill:url(#_Linear3);"/>                </g>                <g transform="matrix(0.0550669,0.94322,-0.852331,0.0497606,122.388,-51.7125)">                    <path d="M75.466,60.548c0,0 -1.563,1.561 -6.589,0.874c-3.784,-1.776 -4.513,-6.897 -4.513,-6.897c0,0 3.811,-1.847 6.927,0.045c4.391,4.924 4.175,5.978 4.175,5.978Z" style="fill:url(#_Linear4);"/>                </g>                <g transform="matrix(-0.455377,0.827845,0.748074,0.411497,85.85,-59.9438)">                    <path d="M75.466,60.548c0,0 -1.563,1.561 -6.589,0.874c-3.784,-1.776 -4.513,-6.897 -4.513,-6.897c0,0 3.811,-1.847 6.927,0.045c4.391,4.924 4.175,5.978 4.175,5.978Z" style="fill:url(#_Linear5);"/>                </g>                <g transform="matrix(-0.537493,0.586485,0.43543,0.399056,104.618,-34.8566)">                    <path d="M75.466,60.548c0,0 -1.563,1.561 -6.589,0.874c-3.784,-1.776 -4.513,-6.897 -4.513,-6.897c0,0 3.811,-1.847 6.927,0.045c4.391,4.924 4.175,5.978 4.175,5.978Z" style="fill:url(#_Linear6);"/>                </g>                <g transform="matrix(-0.537493,0.586485,0.43543,0.399056,100.774,0.977099)">                    <path d="M75.466,60.548c0,0 -1.563,1.561 -6.589,0.874c-3.784,-1.776 -4.513,-6.897 -4.513,-6.897c0,0 3.811,-1.847 6.927,0.045c4.391,4.924 4.175,5.978 4.175,5.978Z" style="fill:url(#_Linear7);"/>                </g>                <g transform="matrix(0.596974,-0.525819,-0.390389,-0.443217,63.6682,107.922)">                    <path d="M75.466,60.548c0,0 -1.563,1.561 -6.589,0.874c-3.784,-1.776 -4.513,-6.897 -4.513,-6.897c0,0 3.811,-1.847 6.927,0.045c4.391,4.924 4.175,5.978 4.175,5.978Z" style="fill:url(#_Linear8);"/>                </g>                <g transform="matrix(0.803993,-0.507782,-0.363812,-0.576038,62.5712,114.777)">                    <path d="M75.466,60.548c0,0 -1.563,1.561 -6.589,0.874c-3.784,-1.776 -4.513,-6.897 -4.513,-6.897c0,0 3.811,-1.847 6.927,0.045c4.391,4.924 4.175,5.978 4.175,5.978Z" style="fill:url(#_Linear9);"/>                </g>                <g transform="matrix(0.948859,0.0625609,0.0448231,-0.679831,37.6036,81.2124)">                    <path d="M74.504,61.444c0,0 -2.308,0.396 -5.627,-0.022c-3.784,-1.776 -4.513,-6.897 -4.513,-6.897c0,0 2.782,-2.303 5.897,-0.411c4.102,3.679 4.243,7.33 4.243,7.33Z" style="fill:url(#_Linear10);"/>                </g>                <g transform="matrix(0.796083,-0.34033,-0.222326,-0.520055,64.9457,85.7117)">                    <path d="M74.504,61.444c0,0 -2.308,0.396 -5.627,-0.022c-3.784,-1.776 -4.513,-6.897 -4.513,-6.897c0,0 2.782,-2.303 5.897,-0.411c4.102,3.679 4.243,7.33 4.243,7.33Z" style="fill:url(#_Linear11);"/>                </g>                <g transform="matrix(0.796083,-0.34033,-0.222326,-0.520055,38.8998,73.6428)">                    <path d="M73.073,54.562c0,0 -2.729,3.628 -5.173,3.778c-2.49,-1.545 -3.536,-3.815 -3.536,-3.815c0,0 1.977,-2.918 4.229,-2.554c3.318,0.536 4.48,2.591 4.48,2.591Z" style="fill:url(#_Linear12);"/>                </g>                <g transform="matrix(0.273694,0.984594,0.664257,-0.184648,8.25024,-41.5777)">                    <path d="M72.638,55.659c0,0 -2.294,2.531 -4.738,2.681c-2.49,-1.545 -4.417,-3.319 -4.417,-3.319c0,0 2.858,-3.414 5.11,-3.05c3.318,0.536 4.045,3.688 4.045,3.688Z" style="fill:url(#_Linear13);"/>                </g>                <g transform="matrix(0.741392,0.291827,0.202187,-0.513662,-15.1277,48.6833)">                    <path d="M72.638,55.659c0,0 -2.294,2.531 -4.738,2.681c-2.49,-1.545 -4.417,-3.319 -4.417,-3.319c0,0 2.858,-3.414 5.11,-3.05c3.318,0.536 4.045,3.688 4.045,3.688Z" style="fill:url(#_Linear14);"/>                </g>                <g transform="matrix(0.474012,0.64042,0.443705,-0.328412,14.9938,25.5016)">                    <path d="M72.638,55.659c0,0 -2.294,2.531 -4.738,2.681c-2.49,-1.545 -4.417,-3.319 -4.417,-3.319c0,0 2.858,-3.414 5.11,-3.05c3.318,0.536 4.045,3.688 4.045,3.688Z" style="fill:url(#_Linear15);"/>                </g>                <g transform="matrix(-0.0698645,0.436883,0.33356,0.0533415,74.6214,21.585)">                    <path d="M72.638,55.659c0,0 -2.294,2.531 -4.738,2.681c-2.49,-1.545 -4.417,-3.319 -4.417,-3.319c0,0 2.858,-3.414 5.11,-3.05c3.318,0.536 4.045,3.688 4.045,3.688Z" style="fill:url(#_Linear16);"/>                </g>                <g transform="matrix(-0.709457,0.633181,-0.453657,-0.508306,135.437,31.2746)">                    <path d="M75.466,60.548c0,0 -1.563,1.561 -6.589,0.874c-3.784,-1.776 -4.513,-6.897 -4.513,-6.897c0,0 3.811,-1.847 6.927,0.045c4.391,4.924 4.175,5.978 4.175,5.978Z" style="fill:url(#_Linear17);"/>                </g>                <g transform="matrix(0.192537,-0.819027,0.622037,0.146229,22.4923,83.7538)">                    <path d="M75.466,60.548c0,0 -1.563,1.561 -6.589,0.874c-3.784,-1.776 -4.513,-6.897 -4.513,-6.897c0,0 3.811,-1.847 6.927,0.045c4.391,4.924 4.175,5.978 4.175,5.978Z" style="fill:url(#_Linear18);"/>                </g>                <g transform="matrix(-0.567045,-0.621559,0.472064,-0.430661,84.2465,103.209)">                    <path d="M72.378,69.115c0,0 -2.38,3.568 -4.849,4.133c-3.785,-1.776 -3.831,-2.646 -3.831,-2.646c0,0 1.525,-2.25 4.628,-3.025c1.87,-0.467 4.052,1.538 4.052,1.538Z" style="fill:url(#_Linear19);"/>                </g>                <g transform="matrix(0.757505,-0.366145,0.278081,0.575312,8.10792,26.341)">                    <path d="M72.378,69.115c0,0 -2.38,3.568 -4.849,4.133c-3.785,-1.776 -3.831,-2.646 -3.831,-2.646c0,0 1.525,-2.25 4.628,-3.025c1.87,-0.467 4.052,1.538 4.052,1.538Z" style="fill:url(#_Linear20);"/>                </g>                <g transform="matrix(-0.303643,-0.76937,0.666807,-0.263165,25.2048,91.7695)">                    <path d="M72.378,69.115c0,0 -2.38,3.568 -4.849,4.133c-3.785,-1.776 -3.831,-2.646 -3.831,-2.646c0,0 1.525,-2.25 4.628,-3.025c1.87,-0.467 4.052,1.538 4.052,1.538Z" style="fill:url(#_Linear21);"/>                </g>            </g>            <g transform="matrix(1,0,0,1,-0.573225,0)">                <g transform="matrix(0.821755,-0.519001,-0.397076,-0.628707,71.877,111.757)">                    <path d="M76.211,58.303c0,0 -2.509,2.846 -7.535,2.159c-3.784,-1.776 -4.312,-5.937 -4.312,-5.937c0,0 4.354,-3.24 7.469,-1.348c4.392,4.924 4.378,5.126 4.378,5.126Z" style="fill:url(#_Linear22);"/>                </g>                <g transform="matrix(-0.763888,0.444812,-0.345923,-0.594062,127.106,45.7697)">                    <path d="M76.211,58.303c0,0 -2.509,2.846 -7.535,2.159c-3.784,-1.776 -4.312,-5.937 -4.312,-5.937c0,0 4.354,-3.24 7.469,-1.348c4.392,4.924 4.378,5.126 4.378,5.126Z" style="fill:url(#_Linear23);"/>                </g>                <g transform="matrix(-0.206925,-0.662393,0.489382,-0.152878,53.3669,88.9141)">                    <path d="M76.211,58.303c0,0 -2.509,2.846 -7.535,2.159c-3.784,-1.776 -4.312,-5.937 -4.312,-5.937c0,0 4.354,-3.24 7.469,-1.348c4.392,4.924 4.378,5.126 4.378,5.126Z" style="fill:url(#_Linear24);"/>                </g>                <g transform="matrix(0.154627,-0.676515,0.499816,0.11424,50.1718,61.9307)">                    <path d="M76.211,58.303c0,0 -2.509,2.846 -7.535,2.159c-3.784,-1.776 -4.312,-5.937 -4.312,-5.937c0,0 4.354,-3.24 7.469,-1.348c4.392,4.924 4.378,5.126 4.378,5.126Z" style="fill:url(#_Linear25);"/>                </g>                <g transform="matrix(0.131245,-0.574217,0.465122,0.10631,57.2227,70.8427)">                    <path d="M76.211,58.303c0,0 -2.509,2.846 -7.535,2.159c-3.784,-1.776 -4.312,-5.937 -4.312,-5.937c0,0 4.354,-3.24 7.469,-1.348c4.392,4.924 4.378,5.126 4.378,5.126Z" style="fill:url(#_Linear26);"/>                </g>                <g transform="matrix(-0.113026,-0.775816,0.560835,-0.0817062,81.1916,84.5849)">                    <path d="M76.211,58.303c0,0 -2.509,2.846 -7.535,2.159c-3.784,-1.776 -4.312,-5.937 -4.312,-5.937c0,0 4.354,-3.24 7.469,-1.348c4.392,4.924 4.378,5.126 4.378,5.126Z" style="fill:url(#_Linear27);"/>                </g>                <g transform="matrix(-0.120465,-0.826878,0.569764,-0.0830072,49.3642,73.1485)">                    <path d="M76.211,58.303c0,0 -2.509,2.846 -7.535,2.159c-3.784,-1.776 -4.312,-5.937 -4.312,-5.937c0,0 4.354,-3.24 7.469,-1.348c4.392,4.924 4.378,5.126 4.378,5.126Z" style="fill:url(#_Linear28);"/>                </g>                <g transform="matrix(-0.354727,-0.624919,-0.459888,0.261049,99.792,57.6333)">                    <path d="M76.211,58.303c0,0 -2.509,2.846 -7.535,2.159c-3.784,-1.776 -4.312,-5.937 -4.312,-5.937c0,0 4.354,-3.24 7.469,-1.348c4.392,4.924 4.378,5.126 4.378,5.126Z" style="fill:url(#_Linear29);"/>                </g>                <g transform="matrix(-0.609679,-0.0805977,-0.0593454,0.448917,100.907,34.2344)">                    <path d="M76.211,58.303c0,0 -2.509,2.846 -7.535,2.159c-3.784,-1.776 -4.312,-5.937 -4.312,-5.937c0,0 4.354,-3.24 7.469,-1.348c4.392,4.924 4.378,5.126 4.378,5.126Z" style="fill:url(#_Linear30);"/>                </g>                <g transform="matrix(0.267679,-0.338218,-0.251109,-0.198738,87.7161,86.7585)">                    <path d="M76.211,58.303c0,0 -2.509,2.846 -7.535,2.159c-3.784,-1.776 -4.312,-5.937 -4.312,-5.937c0,0 4.354,-3.24 7.469,-1.348c4.392,4.924 4.378,5.126 4.378,5.126Z" style="fill:url(#_Linear31);"/>                </g>            </g>            <g>                <g transform="matrix(0.58691,-0.741574,-0.55067,-0.435821,88.7955,108.102)">                    <path d="M76.211,58.303c0,0 -2.509,2.846 -7.535,2.159c-3.784,-1.776 -4.411,-5.288 -4.411,-5.288c0,0 4.453,-3.889 7.568,-1.997c4.392,4.924 4.378,5.126 4.378,5.126Z" style="fill:url(#_Linear32);"/>                </g>                <g transform="matrix(0.51172,-0.431192,-0.321981,-0.382113,82.4519,90.0528)">                    <path d="M76.211,58.303c0,0 -2.509,2.846 -7.535,2.159c-3.784,-1.776 -4.411,-5.288 -4.411,-5.288c0,0 4.453,-3.889 7.568,-1.997c4.392,4.924 4.378,5.126 4.378,5.126Z" style="fill:url(#_Linear33);"/>                </g>                <g transform="matrix(1.20179,-0.09836,-0.0721808,-0.881923,22.2375,110.395)">                    <path d="M76.211,58.303c0,0 -2.509,2.846 -7.535,2.159c-3.784,-1.776 -4.411,-5.288 -4.411,-5.288c0,0 4.453,-3.889 7.568,-1.997c4.392,4.924 4.378,5.126 4.378,5.126Z" style="fill:url(#_Linear34);"/>                </g>                <g transform="matrix(0.244962,-1.06142,-0.862208,-0.198987,117.559,98.8623)">                    <path d="M76.211,58.303c0,0 -2.509,2.846 -7.535,2.159c-3.784,-1.776 -4.411,-5.288 -4.411,-5.288c0,0 4.453,-3.889 7.568,-1.997c4.392,4.924 4.378,5.126 4.378,5.126Z" style="fill:url(#_Linear35);"/>                </g>                <g transform="matrix(-0.907858,0.0105755,0.00802587,0.688982,122.068,17.7445)">                    <path d="M76.211,58.303c0,0 -2.509,2.846 -7.535,2.159c-3.784,-1.776 -4.411,-5.288 -4.411,-5.288c0,0 4.453,-3.889 7.568,-1.997c4.392,4.924 4.378,5.126 4.378,5.126Z" style="fill:url(#_Linear36);"/>                </g>                <g transform="matrix(-0.429746,0.384398,0.336265,0.375935,83.777,17.0728)">                    <path d="M76.211,58.303c0,0 -2.509,2.846 -7.535,2.159c-3.784,-1.776 -4.411,-5.288 -4.411,-5.288c0,0 4.453,-3.889 7.568,-1.997c4.392,4.924 4.378,5.126 4.378,5.126Z" style="fill:url(#_Linear37);"/>                </g>                <g transform="matrix(-0.12795,-0.652884,-0.499311,0.0978529,93.2764,67.6102)">                    <path d="M76.211,58.303c0,0 -2.509,2.846 -7.535,2.159c-3.784,-1.776 -4.411,-5.288 -4.411,-5.288c0,0 4.453,-3.889 7.568,-1.997c4.392,4.924 4.378,5.126 4.378,5.126Z" style="fill:url(#_Linear38);"/>                </g>                <g transform="matrix(0.380095,-0.546037,-0.417597,-0.290688,65.1774,72.3365)">                    <path d="M76.211,58.303c0,0 -2.509,2.846 -7.535,2.159c-3.784,-1.776 -4.411,-5.288 -4.411,-5.288c0,0 4.453,-3.889 7.568,-1.997c4.392,4.924 4.378,5.126 4.378,5.126Z" style="fill:url(#_Linear39);"/>                </g>                <g transform="matrix(-0.426025,-0.42012,-0.333309,0.337993,114.672,20.9638)">                    <path d="M76.211,58.303c0,0 -2.509,2.846 -7.535,2.159c-3.784,-1.776 -4.411,-5.288 -4.411,-5.288c0,0 4.453,-3.889 7.568,-1.997c4.392,4.924 4.378,5.126 4.378,5.126Z" style="fill:url(#_Linear40);"/>                </g>                <g transform="matrix(-0.569577,-0.343818,-0.262944,0.435599,136.606,35.1857)">                    <path d="M76.211,58.303c0,0 -2.509,2.846 -7.535,2.159c-3.784,-1.776 -4.411,-5.288 -4.411,-5.288c0,0 4.453,-3.889 7.568,-1.997c4.392,4.924 4.378,5.126 4.378,5.126Z" style="fill:url(#_Linear41);"/>                </g>                <g transform="matrix(0.232543,-0.407434,-0.241978,-0.138109,81.5787,93.6542)">                    <path d="M76.211,58.303c0,0 -2.509,2.846 -7.535,2.159c-3.784,-1.776 -4.411,-5.288 -4.411,-5.288c0,0 4.453,-3.889 7.568,-1.997c4.392,4.924 4.378,5.126 4.378,5.126Z" style="fill:url(#_Linear42);"/>                </g>                <g transform="matrix(-0.634821,-0.0988508,-0.0790714,0.507798,95.0366,25.233)">                    <path d="M76.211,58.303c0,0 -2.509,2.846 -7.535,2.159c-3.784,-1.776 -4.411,-5.288 -4.411,-5.288c0,0 4.453,-3.889 7.568,-1.997c4.392,4.924 4.378,5.126 4.378,5.126Z" style="fill:url(#_Linear43);"/>                </g>                <g transform="matrix(-0.612464,-0.194055,-0.155226,0.489914,104.619,23.9659)">                    <path d="M76.211,58.303c0,0 -2.509,2.846 -7.535,2.159c-3.784,-1.776 -4.411,-5.288 -4.411,-5.288c0,0 4.453,-3.889 7.568,-1.997c4.392,4.924 4.378,5.126 4.378,5.126Z" style="fill:url(#_Linear44);"/>                </g>            </g>            <g>                <g transform="matrix(-0.72675,-0.0250188,-0.019057,0.55357,100.637,5.15963)">                    <path d="M76.211,58.303c0,0 -2.509,2.846 -7.535,2.159c-3.784,-1.776 -4.411,-5.288 -4.411,-5.288c0,0 4.453,-3.889 7.568,-1.997c4.392,4.924 4.378,5.126 4.378,5.126Z" style="fill:url(#_Linear45);"/>                </g>                <g transform="matrix(-0.296497,-0.663989,-0.505764,0.225844,129.093,41.4642)">                    <path d="M76.211,58.303c0,0 -2.509,2.846 -7.535,2.159c-3.784,-1.776 -4.411,-5.288 -4.411,-5.288c0,0 4.453,-3.889 7.568,-1.997c4.392,4.924 4.378,5.126 4.378,5.126Z" style="fill:url(#_Linear46);"/>                </g>                <g transform="matrix(0.0937862,-0.721107,-0.549271,-0.0714375,117.565,69.9599)">                    <path d="M76.211,58.303c0,0 -2.509,2.846 -7.535,2.159c-3.784,-1.776 -4.411,-5.288 -4.411,-5.288c0,0 4.453,-3.889 7.568,-1.997c4.392,4.924 4.378,5.126 4.378,5.126Z" style="fill:url(#_Linear47);"/>                </g>                <g transform="matrix(0.0937862,-0.721107,-0.549271,-0.0714375,112.757,96.6327)">                    <path d="M76.211,58.303c0,0 -2.509,2.846 -7.535,2.159c-3.784,-1.776 -4.411,-5.288 -4.411,-5.288c0,0 4.453,-3.889 7.568,-1.997c4.392,4.924 4.378,5.126 4.378,5.126Z" style="fill:url(#_Linear48);"/>                </g>                <g transform="matrix(0.706292,0.17304,0.131805,-0.537987,38.3398,78.088)">                    <path d="M76.211,58.303c0,0 -2.509,2.846 -7.535,2.159c-3.784,-1.776 -4.411,-5.288 -4.411,-5.288c0,0 4.453,-3.889 7.568,-1.997c4.392,4.924 4.378,5.126 4.378,5.126Z" style="fill:url(#_Linear49);"/>                </g>                <g transform="matrix(-0.582726,-0.121812,-0.0942862,0.451049,95.7647,33.9085)">                    <path d="M76.211,58.303c0,0 -2.509,2.846 -7.535,2.159c-3.784,-1.776 -4.411,-5.288 -4.411,-5.288c0,0 4.453,-3.889 7.568,-1.997c4.392,4.924 4.378,5.126 4.378,5.126Z" style="fill:url(#_Linear50);"/>                </g>                <g transform="matrix(0.682885,0.190531,0.130848,-0.468974,14.781,42.1847)">                    <path d="M76.211,58.303c0,0 -2.509,2.846 -7.535,2.159c-3.784,-1.776 -4.411,-5.288 -4.411,-5.288c0,0 2.285,-3.571 5.547,-2.304c2.933,1.14 6.399,5.433 6.399,5.433Z" style="fill:url(#_Linear51);"/>                </g>            </g>            <path d="M76.127,55.544c0,0 0.927,-2.954 -1.88,-6.321c-2.897,-3.475 -3.493,-3.372 -3.493,-3.372l-3.714,4.286l-2.864,-2.454l2.792,-3.556c0,0 -5.438,-2.872 -9.852,-7.265c-5.858,-5.831 -6.27,-11.178 -6.27,-11.178c0,0 2.768,4.01 4.34,5.753c1.846,2.046 3.289,3.036 3.289,3.036c0,0 -0.091,-5.698 2.229,-7.959c2.32,-2.261 5.735,-4.629 9.389,-4.633c3.653,-0.005 10.979,4.928 10.979,4.928c0,0 -5.535,-0.027 -6.359,-0.141c-0.823,-0.115 -3.647,-1.635 -5.611,-1.249c-2.237,0.439 -7.651,2.472 -6.245,8.94c0.863,3.973 7.687,6.614 7.687,6.614l6.023,-5.654l2.749,2.479l-5.209,5.194c0,0 2.21,1.456 3.685,3.789c1.169,1.849 1.611,5.359 1.988,7.204c0,0 2.652,-2.326 3.89,-3.738c2.07,-2.362 5.089,-2.183 7.747,-5.895c2.659,-3.713 4.411,-7.472 4.411,-7.472c0,0 -0.528,7.381 -3.873,11.247c-3.345,3.866 -5.774,4.414 -7.353,5.766c-1.017,0.871 -2.775,3.718 -3.899,5.637l0,2.086l16.195,-10.564l-16.195,16l0,29.835l-4.238,0l0,-34.535c-0.657,-1.344 -1.881,-3.416 -3.442,-4.111c-2.381,-1.06 -19.379,-8.681 -19.379,-8.681c0,0 13.179,3.57 14.88,3.816c1.306,0.189 5.458,1.324 7.603,2.168Z" style="fill:rgb(90,90,90);"/>        </g>        <g>            <g transform="matrix(3.03091,0,0,3.03091,-2.17718,-134.815)">                <g transform="matrix(12,0,0,12,2.16093,76.6247)">                    <path d="M0.137,-0.573l0,0.573l-0.044,0l0,-0.573l-0.104,0l0,-0.044l0.104,0l0,-0.13c0.002,-0.036 0.016,-0.067 0.041,-0.093c0.027,-0.025 0.058,-0.037 0.093,-0.037c0.018,0 0.037,0.003 0.057,0.01l-0.013,0.039c-0.014,-0.006 -0.027,-0.009 -0.04,-0.009c-0.023,0 -0.045,0.01 -0.065,0.028c-0.019,0.018 -0.028,0.04 -0.029,0.065l0,0.127l0.152,0l0,0.044l-0.152,0Z" style="fill:rgb(90,90,90);fill-rule:nonzero;"/>                </g>                <g transform="matrix(0.329934,0,0,0.329934,0.718325,44.4802)">                    <path d="M118.681,76.979l0,3.324c0,0.165 -0.135,0.3 -0.3,0.3l-0.069,0c-0.116,0 -0.221,-0.067 -0.271,-0.171c-0.617,-1.287 -1.463,-2.276 -2.542,-2.963c-1.073,-0.682 -2.167,-1.027 -3.284,-1.027c-1.209,0 -2.303,0.27 -3.281,0.813c-0.985,0.545 -1.825,1.293 -2.522,2.241c-0.704,0.958 -1.251,2.077 -1.642,3.355c-0.394,1.285 -0.59,2.657 -0.59,4.117c0,1.489 0.196,2.877 0.59,4.162c0.39,1.275 0.935,2.369 1.638,3.282c0.696,0.904 1.536,1.615 2.52,2.132c0.98,0.515 2.076,0.771 3.287,0.771c1.118,0 2.218,-0.345 3.302,-1.028c1.089,-0.686 3.164,-2.954 3.164,-2.788c0,0 0,3.937 0,3.937c0,1.157 -0.118,2.245 -0.352,3.265c-0.239,1.037 -0.615,1.942 -1.128,2.716c-0.521,0.787 -1.205,1.409 -2.054,1.865c-0.843,0.454 -1.865,0.685 -3.069,0.685c-1.299,0 -2.532,-0.389 -3.698,-1.169c-1.019,-0.682 -1.846,-1.498 -2.484,-2.445l-1.299,1.79c0.911,1.193 1.994,2.135 3.251,2.827c1.309,0.72 2.684,1.081 4.126,1.081c1.725,0 3.13,-0.338 4.214,-1.027c1.084,-0.69 1.943,-1.552 2.574,-2.587c0.636,-1.043 1.07,-2.188 1.304,-3.433c0.238,-1.263 0.357,-2.452 0.357,-3.568l0,-20.457l-1.742,0Zm-12.621,9.899c0,1.132 0.142,2.203 0.424,3.213c0.286,1.018 0.696,1.913 1.231,2.684c0.543,0.784 1.213,1.402 2.009,1.857c0.802,0.457 1.712,0.688 2.732,0.688c0.945,0 1.817,-0.205 2.617,-0.614c0.797,-0.408 1.485,-0.987 2.064,-1.74c0.572,-0.742 1.019,-1.63 1.341,-2.666c0.318,-1.026 0.478,-2.166 0.478,-3.422c0,-1.135 -0.16,-2.209 -0.479,-3.221c-0.32,-1.018 -0.766,-1.912 -1.336,-2.683c-0.576,-0.779 -1.26,-1.402 -2.052,-1.869c-0.805,-0.475 -1.682,-0.713 -2.633,-0.713c-1.021,0 -1.933,0.239 -2.735,0.713c-0.795,0.469 -1.464,1.094 -2.006,1.877c-0.535,0.771 -0.945,1.666 -1.231,2.684c-0.282,1.01 -0.424,2.08 -0.424,3.212Z" style="fill:rgb(90,90,90);"/>                </g>                <g transform="matrix(14.2202,0,0,14.302,5.3927,76.5933)">                    <path d="M0.271,0.007c-0.06,0 -0.108,-0.018 -0.143,-0.053c-0.036,-0.036 -0.054,-0.081 -0.055,-0.135l0,-0.298l0.044,0l0,0.294c0,0.041 0.015,0.076 0.045,0.104c0.029,0.029 0.065,0.044 0.109,0.044c0.04,0 0.075,-0.015 0.104,-0.043c0.03,-0.029 0.044,-0.064 0.044,-0.105l0,-0.294l0.044,0l0,0.298c-0.001,0.054 -0.019,0.099 -0.054,0.135c-0.036,0.035 -0.082,0.053 -0.138,0.053Z" style="fill:rgb(90,90,90);fill-rule:nonzero;"/>                </g>                <g transform="matrix(14.9182,0,0,14.302,11.4511,76.5933)">                    <path d="M0.117,-0.373l0,0.373l-0.044,0l0,-0.479l0.044,0l0,0.03c0.04,-0.039 0.087,-0.059 0.14,-0.059c0.056,0 0.103,0.017 0.138,0.053c0.036,0.035 0.054,0.08 0.055,0.134l0,0.321l-0.044,0l0,-0.317c0,-0.041 -0.015,-0.075 -0.044,-0.104c-0.03,-0.029 -0.065,-0.043 -0.105,-0.043c-0.041,0 -0.075,0.014 -0.105,0.042c-0.016,0.016 -0.027,0.033 -0.035,0.049Z" style="fill:rgb(90,90,90);fill-rule:nonzero;"/>                </g>                <g transform="matrix(11.0935,0,0,14.302,18.1459,76.5933)">                    <path d="M0.591,0l-0.044,0l0,-0.098c-0.009,0.012 -0.018,0.023 -0.028,0.033c-0.052,0.052 -0.116,0.079 -0.19,0.079c-0.074,0 -0.137,-0.027 -0.189,-0.079c-0.053,-0.052 -0.079,-0.116 -0.079,-0.189c0,-0.075 0.026,-0.138 0.079,-0.19c0.052,-0.053 0.115,-0.079 0.189,-0.079c0.074,0 0.138,0.026 0.19,0.079c0.01,0.01 0.019,0.021 0.028,0.032l0,-0.231l0.044,0l0,0.643Zm-0.044,-0.211l0,-0.087c-0.008,-0.043 -0.029,-0.081 -0.061,-0.113c-0.043,-0.043 -0.096,-0.065 -0.157,-0.065c-0.061,0 -0.113,0.022 -0.157,0.065c-0.043,0.043 -0.065,0.095 -0.065,0.157c0,0.061 0.022,0.113 0.065,0.156c0.044,0.043 0.096,0.065 0.157,0.065c0.061,0 0.114,-0.022 0.157,-0.065c0.032,-0.033 0.053,-0.07 0.061,-0.113Z" style="fill:rgb(90,90,90);fill-rule:nonzero;"/>                </g>                <g transform="matrix(14.1044,0,0,14.302,27.9444,76.5933)">                    <path d="M0.117,-0.373l0,0.373l-0.044,0l0,-0.479l0.044,0l0,0.03c0.04,-0.039 0.087,-0.059 0.14,-0.059c0.056,0 0.103,0.017 0.138,0.053c0.036,0.035 0.054,0.08 0.055,0.134l0,0.321l-0.044,0l0,-0.317c0,-0.041 -0.015,-0.075 -0.044,-0.104c-0.03,-0.029 -0.065,-0.043 -0.105,-0.043c-0.041,0 -0.075,0.014 -0.105,0.042c-0.016,0.016 -0.027,0.033 -0.035,0.049Z" style="fill:rgb(90,90,90);fill-rule:nonzero;"/>                </g>            </g>            <g transform="matrix(42.2276,0,0,42.2276,138.999,97.0726)">                <path d="M0.096,0l0,-0.53l0.096,0l0,0.099c0.038,-0.074 0.094,-0.111 0.166,-0.111c0.01,0 0.02,0.001 0.031,0.002l0,0.09c-0.016,-0.005 -0.031,-0.008 -0.044,-0.008c-0.061,0 -0.112,0.036 -0.153,0.108l0,0.35l-0.096,0Z" style="fill:rgb(90,90,90);fill-rule:nonzero;"/>            </g>            <g transform="matrix(42.2276,0,0,42.2276,127.205,97.0726)">                <path d="M0.255,0.012c-0.048,0 -0.087,-0.014 -0.114,-0.042c-0.027,-0.028 -0.041,-0.067 -0.041,-0.116l0,-0.312l-0.066,0l0,-0.072l0.066,0l0,-0.096l0.096,-0.01l0,0.106l0.139,0l0,0.072l-0.139,0l0,0.294c0,0.069 0.03,0.104 0.09,0.104c0.013,0 0.028,-0.002 0.047,-0.006l0,0.066c-0.03,0.008 -0.056,0.012 -0.078,0.012Z" style="fill:rgb(90,90,90);fill-rule:nonzero;"/>            </g>            <g transform="matrix(42.2276,0,0,42.2276,152.278,97.0726)">                <path d="M0.485,-0.017c-0.065,0.019 -0.12,0.029 -0.166,0.029c-0.078,0 -0.142,-0.026 -0.191,-0.078c-0.049,-0.052 -0.074,-0.119 -0.074,-0.202c0,-0.08 0.022,-0.146 0.065,-0.197c0.044,-0.052 0.099,-0.077 0.167,-0.077c0.064,0 0.114,0.022 0.149,0.068c0.035,0.045 0.052,0.11 0.052,0.194l0,0.03l-0.335,0c0.014,0.126 0.076,0.189 0.185,0.189c0.04,0 0.09,-0.011 0.148,-0.032l0,0.076Zm-0.328,-0.305l0.234,0c0,-0.099 -0.037,-0.148 -0.111,-0.148c-0.074,0 -0.115,0.049 -0.123,0.148Z" style="fill:rgb(90,90,90);fill-rule:nonzero;"/>            </g>            <g transform="matrix(42.2276,0,0,42.2276,172.804,97.0726)">                <path d="M0.485,-0.017c-0.065,0.019 -0.12,0.029 -0.166,0.029c-0.078,0 -0.142,-0.026 -0.191,-0.078c-0.049,-0.052 -0.074,-0.119 -0.074,-0.202c0,-0.08 0.022,-0.146 0.065,-0.197c0.044,-0.052 0.099,-0.077 0.167,-0.077c0.064,0 0.114,0.022 0.149,0.068c0.035,0.045 0.052,0.11 0.052,0.194l0,0.03l-0.335,0c0.014,0.126 0.076,0.189 0.185,0.189c0.04,0 0.09,-0.011 0.148,-0.032l0,0.076Zm-0.328,-0.305l0.234,0c0,-0.099 -0.037,-0.148 -0.111,-0.148c-0.074,0 -0.115,0.049 -0.123,0.148Z" style="fill:rgb(90,90,90);fill-rule:nonzero;"/>            </g>        </g>    </g>    <defs>        <linearGradient id="_Linear1" x1="0" y1="0" x2="1" y2="0.00207912" gradientUnits="userSpaceOnUse" gradientTransform="matrix(-11.6545,0.918139,-0.9057,-11.8146,72.9938,61.3239)"><stop offset="0" style="stop-color:rgb(114,150,68);stop-opacity:1"/><stop offset="1" style="stop-color:rgb(188,230,41);stop-opacity:1"/></linearGradient>        <linearGradient id="_Linear2" x1="0" y1="0" x2="1" y2="0" gradientUnits="userSpaceOnUse" gradientTransform="matrix(-11.6545,1.00228,-0.9057,-12.8973,72.9938,61.3185)"><stop offset="0" style="stop-color:rgb(114,150,68);stop-opacity:1"/><stop offset="1" style="stop-color:rgb(188,230,41);stop-opacity:1"/></linearGradient>        <linearGradient id="_Linear3" x1="0" y1="0" x2="1" y2="0" gradientUnits="userSpaceOnUse" gradientTransform="matrix(-5.16953,4.01628,-3.62927,-5.72079,72.6898,59.946)"><stop offset="0" style="stop-color:rgb(114,150,68);stop-opacity:1"/><stop offset="1" style="stop-color:rgb(188,230,41);stop-opacity:1"/></linearGradient>        <linearGradient id="_Linear4" x1="0" y1="0" x2="1" y2="0.0349854" gradientUnits="userSpaceOnUse" gradientTransform="matrix(-5.68715,4.50673,-5.11256,-8.74283,72.8244,55.5281)"><stop offset="0" style="stop-color:rgb(114,150,68);stop-opacity:1"/><stop offset="1" style="stop-color:rgb(188,230,41);stop-opacity:1"/></linearGradient>        <linearGradient id="_Linear5" x1="0" y1="0" x2="1" y2="0" gradientUnits="userSpaceOnUse" gradientTransform="matrix(-5.2625,-3.64867,-3.29708,5.82367,72.7091,60.0174)"><stop offset="0" style="stop-color:rgb(114,150,68);stop-opacity:1"/><stop offset="1" style="stop-color:rgb(188,230,41);stop-opacity:1"/></linearGradient>        <linearGradient id="_Linear6" x1="0" y1="0" x2="1" y2="0" gradientUnits="userSpaceOnUse" gradientTransform="matrix(-3.4342,-3.33318,-2.47468,4.62557,72.3957,59.637)"><stop offset="0" style="stop-color:rgb(114,150,68);stop-opacity:1"/><stop offset="1" style="stop-color:rgb(188,230,41);stop-opacity:1"/></linearGradient>        <linearGradient id="_Linear7" x1="0" y1="0" x2="1" y2="0" gradientUnits="userSpaceOnUse" gradientTransform="matrix(5.32965,3.27133,2.42876,-7.17856,67.5406,56.0157)"><stop offset="0" style="stop-color:rgb(114,150,68);stop-opacity:1"/><stop offset="1" style="stop-color:rgb(188,230,41);stop-opacity:1"/></linearGradient>        <linearGradient id="_Linear8" x1="0" y1="0" x2="1" y2="0" gradientUnits="userSpaceOnUse" gradientTransform="matrix(5.47078,2.65916,1.97426,-7.36865,66.0694,56.4322)"><stop offset="0" style="stop-color:rgb(114,150,68);stop-opacity:1"/><stop offset="1" style="stop-color:rgb(188,230,41);stop-opacity:1"/></linearGradient>        <linearGradient id="_Linear9" x1="0" y1="0" x2="1" y2="0" gradientUnits="userSpaceOnUse" gradientTransform="matrix(6.94246,4.23123,3.03156,-9.68979,66.1831,55.4937)"><stop offset="0" style="stop-color:rgb(114,150,68);stop-opacity:1"/><stop offset="1" style="stop-color:rgb(188,230,41);stop-opacity:1"/></linearGradient>        <linearGradient id="_Linear10" x1="0" y1="0" x2="1" y2="0" gradientUnits="userSpaceOnUse" gradientTransform="matrix(6.29639,4.9266,3.52977,-8.78804,66.3576,54.9385)"><stop offset="0" style="stop-color:rgb(114,150,68);stop-opacity:1"/><stop offset="1" style="stop-color:rgb(188,230,41);stop-opacity:1"/></linearGradient>        <linearGradient id="_Linear11" x1="0" y1="0" x2="1" y2="0" gradientUnits="userSpaceOnUse" gradientTransform="matrix(-6.02554,-1.60416,-1.04795,9.2237,71.7574,58.1337)"><stop offset="0" style="stop-color:rgb(114,150,68);stop-opacity:1"/><stop offset="1" style="stop-color:rgb(188,230,41);stop-opacity:1"/></linearGradient>        <linearGradient id="_Linear12" x1="0" y1="0" x2="1" y2="0" gradientUnits="userSpaceOnUse" gradientTransform="matrix(4.56143,-1.11939,-0.731261,-6.98249,65.8932,55.6989)"><stop offset="0" style="stop-color:rgb(114,150,68);stop-opacity:1"/><stop offset="1" style="stop-color:rgb(188,230,41);stop-opacity:1"/></linearGradient>        <linearGradient id="_Linear13" x1="0" y1="0" x2="1" y2="-0.00112182" gradientUnits="userSpaceOnUse" gradientTransform="matrix(-7.54191,0.862503,-0.586099,-11.0987,71.8614,55.4496)"><stop offset="0" style="stop-color:rgb(114,150,68);stop-opacity:1"/><stop offset="1" style="stop-color:rgb(188,230,41);stop-opacity:1"/></linearGradient>        <linearGradient id="_Linear14" x1="0" y1="0" x2="1" y2="0.00293809" gradientUnits="userSpaceOnUse" gradientTransform="matrix(-7.54191,0.862503,-0.586099,-11.0987,71.8614,55.4496)"><stop offset="0" style="stop-color:rgb(114,150,68);stop-opacity:1"/><stop offset="1" style="stop-color:rgb(188,230,41);stop-opacity:1"/></linearGradient>        <linearGradient id="_Linear15" x1="0" y1="0" x2="1" y2="0" gradientUnits="userSpaceOnUse" gradientTransform="matrix(5.41399,2.17633,1.50783,-7.81426,66.1532,53.8332)"><stop offset="0" style="stop-color:rgb(114,150,68);stop-opacity:1"/><stop offset="1" style="stop-color:rgb(188,230,41);stop-opacity:1"/></linearGradient>        <linearGradient id="_Linear16" x1="0" y1="0" x2="1" y2="0.0160761" gradientUnits="userSpaceOnUse" gradientTransform="matrix(-7.54191,0.862503,-0.586099,-11.0987,71.8614,55.4496)"><stop offset="0" style="stop-color:rgb(114,150,68);stop-opacity:1"/><stop offset="1" style="stop-color:rgb(188,230,41);stop-opacity:1"/></linearGradient>        <linearGradient id="_Linear17" x1="0" y1="0" x2="1" y2="0" gradientUnits="userSpaceOnUse" gradientTransform="matrix(5.9755,3.87156,-2.77387,8.34017,67.4093,55.6618)"><stop offset="0" style="stop-color:rgb(114,150,68);stop-opacity:1"/><stop offset="1" style="stop-color:rgb(188,230,41);stop-opacity:1"/></linearGradient>        <linearGradient id="_Linear18" x1="0" y1="0" x2="1" y2="0" gradientUnits="userSpaceOnUse" gradientTransform="matrix(5.59033,7.42268,-5.6374,7.36071,66.2034,54.4895)"><stop offset="0" style="stop-color:rgb(114,150,68);stop-opacity:1"/><stop offset="1" style="stop-color:rgb(188,230,41);stop-opacity:1"/></linearGradient>        <linearGradient id="_Linear19" x1="0" y1="0" x2="1" y2="0.00825375" gradientUnits="userSpaceOnUse" gradientTransform="matrix(-7.15048,0.774156,-0.55568,-9.96182,71.6418,70.653)"><stop offset="0" style="stop-color:rgb(114,150,68);stop-opacity:1"/><stop offset="1" style="stop-color:rgb(188,230,41);stop-opacity:1"/></linearGradient>        <linearGradient id="_Linear20" x1="0" y1="0" x2="1" y2="0" gradientUnits="userSpaceOnUse" gradientTransform="matrix(5.43273,0.0563161,-0.0427711,7.1532,65.1289,69.932)"><stop offset="0" style="stop-color:rgb(114,150,68);stop-opacity:1"/><stop offset="1" style="stop-color:rgb(188,230,41);stop-opacity:1"/></linearGradient>        <linearGradient id="_Linear21" x1="0" y1="0" x2="1" y2="0.0243085" gradientUnits="userSpaceOnUse" gradientTransform="matrix(8.1241,-2.99895,2.84317,11.393,62.2397,72.2099)"><stop offset="0" style="stop-color:rgb(114,150,68);stop-opacity:1"/><stop offset="1" style="stop-color:rgb(188,230,41);stop-opacity:1"/></linearGradient>        <linearGradient id="_Linear22" x1="0" y1="0" x2="1" y2="0" gradientUnits="userSpaceOnUse" gradientTransform="matrix(7.6863,3.04156,2.32703,-10.0464,66.1953,54.9717)"><stop offset="0" style="stop-color:rgb(56,116,139);stop-opacity:1"/><stop offset="1" style="stop-color:rgb(126,203,220);stop-opacity:1"/></linearGradient>        <linearGradient id="_Linear23" x1="0" y1="0" x2="1" y2="0.00894064" gradientUnits="userSpaceOnUse" gradientTransform="matrix(7.6863,3.04156,2.32703,-10.0464,66.1953,54.9717)"><stop offset="0" style="stop-color:rgb(56,116,139);stop-opacity:1"/><stop offset="1" style="stop-color:rgb(126,203,220);stop-opacity:1"/></linearGradient>        <linearGradient id="_Linear24" x1="0" y1="0" x2="1" y2="-0.0199514" gradientUnits="userSpaceOnUse" gradientTransform="matrix(7.6863,3.04156,2.32703,-10.0464,66.1953,54.9717)"><stop offset="0" style="stop-color:rgb(56,116,139);stop-opacity:1"/><stop offset="1" style="stop-color:rgb(126,203,220);stop-opacity:1"/></linearGradient>        <linearGradient id="_Linear25" x1="0" y1="0" x2="1" y2="-0.0199514" gradientUnits="userSpaceOnUse" gradientTransform="matrix(7.6863,3.04156,2.32703,-10.0464,66.1953,54.9717)"><stop offset="0" style="stop-color:rgb(56,116,139);stop-opacity:1"/><stop offset="1" style="stop-color:rgb(126,203,220);stop-opacity:1"/></linearGradient>        <linearGradient id="_Linear26" x1="0" y1="0" x2="1" y2="0.0301875" gradientUnits="userSpaceOnUse" gradientTransform="matrix(7.6863,3.04156,2.32703,-10.0464,66.1953,54.9717)"><stop offset="0" style="stop-color:rgb(56,116,139);stop-opacity:1"/><stop offset="1" style="stop-color:rgb(126,203,220);stop-opacity:1"/></linearGradient>        <linearGradient id="_Linear27" x1="0" y1="0" x2="1" y2="-0.0329773" gradientUnits="userSpaceOnUse" gradientTransform="matrix(7.6863,3.04156,2.32703,-10.0464,66.1953,54.9717)"><stop offset="0" style="stop-color:rgb(56,116,139);stop-opacity:1"/><stop offset="1" style="stop-color:rgb(126,203,220);stop-opacity:1"/></linearGradient>        <linearGradient id="_Linear28" x1="0" y1="0" x2="1" y2="-0.0633339" gradientUnits="userSpaceOnUse" gradientTransform="matrix(7.6863,3.04156,2.32703,-10.0464,66.1953,54.9717)"><stop offset="0" style="stop-color:rgb(56,116,139);stop-opacity:1"/><stop offset="1" style="stop-color:rgb(126,203,220);stop-opacity:1"/></linearGradient>        <linearGradient id="_Linear29" x1="0" y1="0" x2="1" y2="-0.0222653" gradientUnits="userSpaceOnUse" gradientTransform="matrix(7.6863,3.04156,2.32703,-10.0464,66.1953,54.9717)"><stop offset="0" style="stop-color:rgb(56,116,139);stop-opacity:1"/><stop offset="1" style="stop-color:rgb(126,203,220);stop-opacity:1"/></linearGradient>        <linearGradient id="_Linear30" x1="0" y1="0" x2="1" y2="-0.0219428" gradientUnits="userSpaceOnUse" gradientTransform="matrix(7.6863,3.04156,2.32703,-10.0464,66.1953,54.9717)"><stop offset="0" style="stop-color:rgb(56,116,139);stop-opacity:1"/><stop offset="1" style="stop-color:rgb(126,203,220);stop-opacity:1"/></linearGradient>        <linearGradient id="_Linear31" x1="0" y1="0" x2="1" y2="-0.0170766" gradientUnits="userSpaceOnUse" gradientTransform="matrix(7.6863,3.04156,2.32703,-10.0464,66.1953,54.9717)"><stop offset="0" style="stop-color:rgb(56,116,139);stop-opacity:1"/><stop offset="1" style="stop-color:rgb(126,203,220);stop-opacity:1"/></linearGradient>        <linearGradient id="_Linear32" x1="0" y1="0" x2="1" y2="0" gradientUnits="userSpaceOnUse" gradientTransform="matrix(8.42278,1.48045,1.09934,-11.3428,65.9298,55.8316)"><stop offset="0" style="stop-color:rgb(254,76,14);stop-opacity:1"/><stop offset="1" style="stop-color:rgb(248,208,38);stop-opacity:1"/></linearGradient>        <linearGradient id="_Linear33" x1="0" y1="0" x2="1" y2="0.0014238" gradientUnits="userSpaceOnUse" gradientTransform="matrix(8.42278,1.48045,1.09934,-11.3428,65.9298,55.8316)"><stop offset="0" style="stop-color:rgb(254,76,14);stop-opacity:1"/><stop offset="1" style="stop-color:rgb(248,208,38);stop-opacity:1"/></linearGradient>        <linearGradient id="_Linear34" x1="0" y1="0" x2="1" y2="-0.00306899" gradientUnits="userSpaceOnUse" gradientTransform="matrix(8.42278,1.48045,1.09934,-11.3428,65.9298,55.8316)"><stop offset="0" style="stop-color:rgb(254,76,14);stop-opacity:1"/><stop offset="1" style="stop-color:rgb(248,208,38);stop-opacity:1"/></linearGradient>        <linearGradient id="_Linear35" x1="0" y1="0" x2="1" y2="0.0211504" gradientUnits="userSpaceOnUse" gradientTransform="matrix(8.42278,1.48045,1.09934,-11.3428,65.9298,55.8316)"><stop offset="0" style="stop-color:rgb(254,76,14);stop-opacity:1"/><stop offset="1" style="stop-color:rgb(248,208,38);stop-opacity:1"/></linearGradient>        <linearGradient id="_Linear36" x1="0" y1="0" x2="1" y2="0.0054708" gradientUnits="userSpaceOnUse" gradientTransform="matrix(8.42278,1.48045,1.09934,-11.3428,65.9298,55.8316)"><stop offset="0" style="stop-color:rgb(254,76,14);stop-opacity:1"/><stop offset="1" style="stop-color:rgb(248,208,38);stop-opacity:1"/></linearGradient>        <linearGradient id="_Linear37" x1="0" y1="0" x2="1" y2="0.0360295" gradientUnits="userSpaceOnUse" gradientTransform="matrix(8.42278,1.48045,1.09934,-11.3428,65.9298,55.8316)"><stop offset="0" style="stop-color:rgb(254,76,14);stop-opacity:1"/><stop offset="1" style="stop-color:rgb(248,208,38);stop-opacity:1"/></linearGradient>        <linearGradient id="_Linear38" x1="0" y1="0" x2="1" y2="0.00735208" gradientUnits="userSpaceOnUse" gradientTransform="matrix(8.42278,1.48045,1.09934,-11.3428,65.9298,55.8316)"><stop offset="0" style="stop-color:rgb(254,76,14);stop-opacity:1"/><stop offset="1" style="stop-color:rgb(248,208,38);stop-opacity:1"/></linearGradient>        <linearGradient id="_Linear39" x1="0" y1="0" x2="1" y2="0.00735208" gradientUnits="userSpaceOnUse" gradientTransform="matrix(8.42278,1.48045,1.09934,-11.3428,65.9298,55.8316)"><stop offset="0" style="stop-color:rgb(254,76,14);stop-opacity:1"/><stop offset="1" style="stop-color:rgb(248,208,38);stop-opacity:1"/></linearGradient>        <linearGradient id="_Linear40" x1="0" y1="0" x2="1" y2="0.0159406" gradientUnits="userSpaceOnUse" gradientTransform="matrix(8.42278,1.48045,1.09934,-11.3428,65.9298,55.8316)"><stop offset="0" style="stop-color:rgb(254,76,14);stop-opacity:1"/><stop offset="1" style="stop-color:rgb(248,208,38);stop-opacity:1"/></linearGradient>        <linearGradient id="_Linear41" x1="0" y1="0" x2="1" y2="0.00735208" gradientUnits="userSpaceOnUse" gradientTransform="matrix(8.42278,1.48045,1.09934,-11.3428,65.9298,55.8316)"><stop offset="0" style="stop-color:rgb(254,76,14);stop-opacity:1"/><stop offset="1" style="stop-color:rgb(248,208,38);stop-opacity:1"/></linearGradient>        <linearGradient id="_Linear42" x1="0" y1="0" x2="1" y2="-0.0716115" gradientUnits="userSpaceOnUse" gradientTransform="matrix(8.42278,1.48045,1.09934,-11.3428,65.9298,55.8316)"><stop offset="0" style="stop-color:rgb(254,76,14);stop-opacity:1"/><stop offset="1" style="stop-color:rgb(248,208,38);stop-opacity:1"/></linearGradient>        <linearGradient id="_Linear43" x1="0" y1="0" x2="1" y2="0.0177797" gradientUnits="userSpaceOnUse" gradientTransform="matrix(8.42278,1.48045,1.09934,-11.3428,65.9298,55.8316)"><stop offset="0" style="stop-color:rgb(254,76,14);stop-opacity:1"/><stop offset="1" style="stop-color:rgb(248,208,38);stop-opacity:1"/></linearGradient>        <linearGradient id="_Linear44" x1="0" y1="0" x2="1" y2="0.0177797" gradientUnits="userSpaceOnUse" gradientTransform="matrix(8.42278,1.48045,1.09934,-11.3428,65.9298,55.8316)"><stop offset="0" style="stop-color:rgb(254,76,14);stop-opacity:1"/><stop offset="1" style="stop-color:rgb(248,208,38);stop-opacity:1"/></linearGradient>        <linearGradient id="_Linear45" x1="0" y1="0" x2="1" y2="0" gradientUnits="userSpaceOnUse" gradientTransform="matrix(9.38604,2.31985,1.76704,-12.3224,65.5317,56.0504)"><stop offset="0" style="stop-color:rgb(164,26,92);stop-opacity:1"/><stop offset="1" style="stop-color:rgb(228,172,200);stop-opacity:1"/></linearGradient>        <linearGradient id="_Linear46" x1="0" y1="0" x2="1" y2="0" gradientUnits="userSpaceOnUse" gradientTransform="matrix(9.38604,2.31985,1.76704,-12.3224,65.5317,56.0504)"><stop offset="0" style="stop-color:rgb(164,26,92);stop-opacity:1"/><stop offset="1" style="stop-color:rgb(228,172,200);stop-opacity:1"/></linearGradient>        <linearGradient id="_Linear47" x1="0" y1="0" x2="1" y2="0" gradientUnits="userSpaceOnUse" gradientTransform="matrix(9.38604,2.31985,1.76704,-12.3224,65.5317,56.0504)"><stop offset="0" style="stop-color:rgb(164,26,92);stop-opacity:1"/><stop offset="1" style="stop-color:rgb(228,172,200);stop-opacity:1"/></linearGradient>        <linearGradient id="_Linear48" x1="0" y1="0" x2="1" y2="0" gradientUnits="userSpaceOnUse" gradientTransform="matrix(9.38604,2.31985,1.76704,-12.3224,65.5317,56.0504)"><stop offset="0" style="stop-color:rgb(164,26,92);stop-opacity:1"/><stop offset="1" style="stop-color:rgb(228,172,200);stop-opacity:1"/></linearGradient>        <linearGradient id="_Linear49" x1="0" y1="0" x2="1" y2="0" gradientUnits="userSpaceOnUse" gradientTransform="matrix(9.38604,2.31985,1.76704,-12.3224,65.5317,56.0504)"><stop offset="0" style="stop-color:rgb(164,26,92);stop-opacity:1"/><stop offset="1" style="stop-color:rgb(228,172,200);stop-opacity:1"/></linearGradient>        <linearGradient id="_Linear50" x1="0" y1="0" x2="1" y2="0.00575136" gradientUnits="userSpaceOnUse" gradientTransform="matrix(9.38604,2.31985,1.76704,-12.3224,65.5317,56.0504)"><stop offset="0" style="stop-color:rgb(164,26,92);stop-opacity:1"/><stop offset="1" style="stop-color:rgb(228,172,200);stop-opacity:1"/></linearGradient>        <linearGradient id="_Linear51" x1="0" y1="0" x2="1" y2="-0.0415252" gradientUnits="userSpaceOnUse" gradientTransform="matrix(9.38604,2.31985,1.76704,-12.3224,65.5317,56.0504)"><stop offset="0" style="stop-color:rgb(164,26,92);stop-opacity:1"/><stop offset="1" style="stop-color:rgb(228,172,200);stop-opacity:1"/></linearGradient>    </defs></svg>