<?xml version="1.0" encoding="UTF-8" standalone="no"?><!DOCTYPE svg PUBLIC "-//W3C//DTD SVG 1.1//EN" "http://www.w3.org/Graphics/SVG/1.1/DTD/svg11.dtd"><svg width="100%" height="100%" viewBox="0 0 1024 512" version="1.1" xmlns="http://www.w3.org/2000/svg" xmlns:xlink="http://www.w3.org/1999/xlink" xml:space="preserve" style="fill-rule:evenodd;clip-rule:evenodd;stroke-linejoin:round;stroke-miterlimit:2;"><title>Epic Cash</title><desc></desc>    <g id="Layer_4" transform="matrix(5.1,0,0,5.1,2.0001,147.37)">        <path d="M20.82,33.24l-11,0c-5.382,0 -9.81,-4.428 -9.81,-9.81c0,-5.382 4.428,-9.81 9.81,-9.81l11,0c1.668,0 3.04,1.372 3.04,3.04c0,1.668 -1.372,3.04 -3.04,3.04l-11,0c-0.064,-0.003 -0.129,-0.005 -0.193,-0.005c-2.052,0 -3.74,1.688 -3.74,3.74c0,2.052 1.688,3.74 3.74,3.74c0.064,0 0.129,-0.002 0.193,-0.005l11,0c1.668,0 3.04,1.372 3.04,3.04c0,1.668 -1.372,3.04 -3.04,3.04l0,-0.01Z" style="fill:rgb(97,0,162);fill-rule:nonzero;"/>        <path d="M3,12.92c-1.646,0 -3,-1.354 -3,-3c0,-0.007 0,-0.013 0,-0.02c0,-5.383 4.427,-9.815 9.81,-9.82l11,0c1.668,0 3.04,1.372 3.04,3.04c0,1.668 -1.372,3.04 -3.04,3.04l-11,0c-2.044,0.005 -3.725,1.686 -3.73,3.73c0,0.01 0,0.021 0,0.031c0,1.646 -1.354,3 -3,3c-0.027,0 -0.053,0 -0.08,-0.001Z" style="fill:rgb(97,0,162);fill-rule:nonzero;"/>        <path d="M33.2,30.8l0,9.2c0,1.426 -1.174,2.6 -2.6,2.6c-1.426,0 -2.6,-1.174 -2.6,-2.6l0,-28.52c0,-1.415 1.165,-2.58 2.58,-2.58c1.415,0 2.58,1.165 2.58,2.58l0,0.33c2.124,-1.94 4.903,-3.011 7.78,-3c6.75,0 11.86,5.48 11.86,12.42c0,6.94 -5.07,12.47 -11.8,12.47c-2.868,0.028 -5.647,-1.005 -7.8,-2.9Zm14.44,-9.52c0.011,-0.164 0.017,-0.329 0.017,-0.493c0,-3.967 -3.264,-7.23 -7.23,-7.23c-3.966,0 -7.23,3.263 -7.23,7.23c0,0.071 0.001,0.142 0.003,0.213l0,0.33c-0.007,0.127 -0.01,0.253 -0.01,0.38c0,3.966 3.264,7.23 7.23,7.23c3.966,0 7.23,-3.264 7.23,-7.23c0,-0.127 -0.003,-0.253 -0.01,-0.38l0,-0.05Z" style="fill:rgb(97,0,162);fill-rule:nonzero;"/>        <path d="M56.92,3.14c0.027,-1.627 1.373,-2.95 3,-2.95c1.645,0 3,1.354 3,3c0,1.646 -1.354,3 -3,3c-1.648,-0.043 -2.984,-1.401 -3,-3.05Zm0.47,8.34c0,-1.415 1.165,-2.58 2.58,-2.58c1.415,0 2.58,1.165 2.58,2.58l0,19.52c0,1.415 -1.165,2.58 -2.58,2.58c-1.415,0 -2.58,-1.165 -2.58,-2.58l0,-19.52Z" style="fill:rgb(97,0,162);fill-rule:nonzero;"/>        <path d="M67.09,21.28c-0.001,-0.071 -0.002,-0.141 -0.002,-0.212c0,-6.698 5.512,-12.21 12.21,-12.21c0.074,0 0.148,0.001 0.222,0.002c3.404,-0.08 6.683,1.305 9,3.8c0.439,0.494 0.703,1.12 0.75,1.78c0,0.002 0,0.003 0,0.005c0,1.311 -1.079,2.39 -2.39,2.39c-0.05,0 -0.1,-0.002 -0.15,-0.005c-0.849,-0.046 -1.644,-0.436 -2.2,-1.08c-1.303,-1.363 -3.114,-2.127 -5,-2.11c-3.989,0.084 -7.225,3.388 -7.225,7.378c0,0.088 0.002,0.175 0.005,0.262c-0.003,0.081 -0.004,0.161 -0.004,0.242c0,3.993 3.232,7.303 7.224,7.398c1.887,0.022 3.7,-0.743 5,-2.11c0.567,-0.67 1.376,-1.091 2.25,-1.17c0.037,-0.002 0.074,-0.003 0.111,-0.003c1.333,0 2.43,1.097 2.43,2.43c0,0.021 0,0.042 -0.001,0.063c-0.05,0.629 -0.315,1.223 -0.75,1.68c-2.284,2.551 -5.577,3.975 -9,3.89c-0.091,0.002 -0.181,0.003 -0.272,0.003c-6.698,0 -12.21,-5.512 -12.21,-12.21c0,-0.071 0.001,-0.142 0.002,-0.213Z" style="fill:rgb(97,0,162);fill-rule:nonzero;"/>        <path d="M103.94,21.28c-0.001,-0.071 -0.002,-0.141 -0.002,-0.212c0,-6.698 5.512,-12.21 12.21,-12.21c0.071,0 0.141,0.001 0.212,0.002c3.405,-0.084 6.686,1.302 9,3.8c0.443,0.492 0.708,1.119 0.75,1.78c0,0.005 0,0.01 0,0.015c0,1.305 -1.074,2.38 -2.38,2.38c-0.05,0 -0.1,-0.002 -0.15,-0.005c-0.849,-0.046 -1.644,-0.436 -2.2,-1.08c-1.305,-1.361 -3.115,-2.125 -5,-2.11c-3.985,0.089 -7.215,3.392 -7.215,7.378c0,0.087 0.002,0.175 0.005,0.262c-0.003,0.081 -0.004,0.162 -0.004,0.242c0,3.99 3.226,7.298 7.214,7.398c1.886,0.021 3.699,-0.744 5,-2.11c0.567,-0.67 1.376,-1.091 2.25,-1.17c0.037,-0.002 0.074,-0.003 0.111,-0.003c1.328,0 2.42,1.093 2.42,2.42c0,0.025 0,0.049 -0.001,0.073c-0.045,0.631 -0.31,1.226 -0.75,1.68c-2.281,2.555 -5.576,3.979 -9,3.89c-0.087,0.002 -0.175,0.003 -0.262,0.003c-6.698,0 -12.21,-5.512 -12.21,-12.21c0,-0.071 0.001,-0.142 0.002,-0.213Z" style="fill:rgb(97,0,162);fill-rule:nonzero;"/>        <path d="M149,30.8c-2.148,1.89 -4.919,2.924 -7.78,2.9c-6.75,0 -11.86,-5.48 -11.86,-12.42c0,-6.94 5.11,-12.42 11.86,-12.42c2.877,-0.011 5.656,1.06 7.78,3l0,-0.33c0,-1.415 1.165,-2.58 2.58,-2.58c1.415,0 2.58,1.165 2.58,2.58l0,19.47c0,1.415 -1.165,2.58 -2.58,2.58c-1.415,0 -2.58,-1.165 -2.58,-2.58l0,-0.2Zm0,-9.52l0,-0.28c0.001,-0.059 0.002,-0.118 0.002,-0.177c0,-3.967 -3.264,-7.23 -7.23,-7.23c-3.966,0 -7.23,3.263 -7.23,7.23c0,0.169 0.006,0.338 0.018,0.507c-0.007,0.127 -0.01,0.253 -0.01,0.38c0,3.966 3.264,7.23 7.23,7.23c3.966,0 7.23,-3.264 7.23,-7.23c0,-0.127 -0.003,-0.253 -0.01,-0.38l0,-0.05Z" style="fill:rgb(97,0,162);fill-rule:nonzero;"/>        <path d="M161.09,25.69c0.718,-0.03 1.4,0.33 1.78,0.94c0.7,1 1.69,2.43 3.7,2.43c0.03,0.001 0.06,0.002 0.091,0.002c1.398,0 2.557,-1.134 2.589,-2.532c0,-1.92 -1.79,-2.67 -4,-3.42c-2.95,-1 -6.28,-2.3 -6.28,-7.13c0.072,-3.932 3.326,-7.128 7.259,-7.128c0.11,0 0.221,0.003 0.331,0.008c4,0 7.64,2.44 7.64,5.39c-0.01,1.266 -1.054,2.301 -2.32,2.301c-0.023,0 -0.047,0 -0.07,-0.001c-0.621,0.031 -1.207,-0.301 -1.5,-0.85c-0.79,-0.89 -1.92,-2.25 -3.75,-2.25c-0.013,0 -0.027,0 -0.04,0c-1.383,0 -2.52,1.137 -2.52,2.52c0,0.01 0,0.02 0,0.03c0,1.93 2,2.54 4.36,3.33c2.86,0.89 6.09,2.39 6.09,7.08c-0.151,4.149 -3.68,7.444 -7.83,7.31c-4.17,0 -7.82,-2.71 -7.82,-5.62c-0.028,-1.287 1.003,-2.372 2.29,-2.41Z" style="fill:rgb(97,0,162);fill-rule:nonzero;"/>        <path d="M178.9,2.58c0,-1.415 1.165,-2.58 2.58,-2.58c1.415,0 2.58,1.165 2.58,2.58l0,8.34c1.693,-1.333 3.785,-2.059 5.94,-2.06c5.58,0 10,4.22 10,10.92l0,11.22c0,1.415 -1.165,2.58 -2.58,2.58c-1.415,0 -2.58,-1.165 -2.58,-2.58l0,-11.41c0,-3.93 -2.39,-5.95 -5.39,-5.95c-3,0 -5.39,2 -5.39,5.95l0,11.41c0,1.415 -1.165,2.58 -2.58,2.58c-1.415,0 -2.58,-1.165 -2.58,-2.58l0,-28.42Z" style="fill:rgb(97,0,162);fill-rule:nonzero;"/>    </g></svg>