<?xml version="1.0" encoding="UTF-8" standalone="no"?><!DOCTYPE svg PUBLIC "-//W3C//DTD SVG 1.1//EN" "http://www.w3.org/Graphics/SVG/1.1/DTD/svg11.dtd"><svg width="100%" height="100%" viewBox="0 0 1024 512" version="1.1" xmlns="http://www.w3.org/2000/svg" xmlns:xlink="http://www.w3.org/1999/xlink" xml:space="preserve" style="fill-rule:evenodd;clip-rule:evenodd;stroke-linejoin:round;stroke-miterlimit:2;"><title>CapitalStackers</title><desc>CapitalStackers is a peer to peer lending platform dedicated to real estate finance.  Our people have a property lending background and are steeped in relevant experience.  We deal with commercial and residential property deals and our borrowers are a mix of property investors and developers.  </desc>    <g transform="matrix(4.363,0,0,4.363,-256.162,144.641)">        <g transform="matrix(36,0,0,36,57.5146,37.4755)">            <path d="M0.355,-0.03c0.082,0 0.145,-0.017 0.192,-0.042l0,-0.095c-0.041,0.017 -0.091,0.037 -0.169,0.037c-0.144,0 -0.199,-0.089 -0.199,-0.246l0,-0.035c0,-0.163 0.079,-0.227 0.198,-0.227c0.063,0 0.11,0.011 0.163,0.032l0,-0.096c-0.042,-0.023 -0.096,-0.036 -0.172,-0.036c-0.178,0 -0.322,0.093 -0.322,0.34l0,0.025c0,0.231 0.118,0.343 0.309,0.343Z" style="fill-rule:nonzero;"/>        </g>        <g transform="matrix(36,0,0,36,78.6106,37.4755)">            <path d="M0.197,-0.032c0.067,0 0.108,-0.022 0.133,-0.051l0.006,0l0.009,0.042l0.095,0l0,-0.37c0,-0.107 -0.069,-0.153 -0.188,-0.153c-0.067,0 -0.122,0.009 -0.17,0.028l0,0.079c0.031,-0.007 0.075,-0.014 0.125,-0.014c0.087,0 0.118,0.016 0.118,0.086l0,0.039l-0.121,0.014c-0.102,0.015 -0.165,0.059 -0.165,0.154c0,0.099 0.065,0.146 0.158,0.146Zm0.035,-0.081c-0.047,0 -0.08,-0.022 -0.08,-0.071c0,-0.052 0.027,-0.073 0.078,-0.077l0.095,-0.01l0,0.127c-0.019,0.018 -0.056,0.031 -0.093,0.031Z" style="fill-rule:nonzero;"/>        </g>        <g transform="matrix(36,0,0,36,96.8266,37.4755)">            <path d="M0.068,0.108l0.115,0l0,-0.169c0.025,0.014 0.063,0.029 0.12,0.029c0.14,0 0.233,-0.076 0.233,-0.269l0,-0.013c0,-0.189 -0.097,-0.251 -0.204,-0.251c-0.065,0 -0.118,0.022 -0.149,0.053l-0.004,0l0,-0.044l-0.111,0l0,0.664Zm0.219,-0.227c-0.045,0 -0.084,-0.014 -0.104,-0.03l0,-0.292c0.02,-0.014 0.059,-0.03 0.108,-0.03c0.081,0 0.125,0.037 0.125,0.164l0,0.021c0,0.125 -0.047,0.167 -0.129,0.167Z" style="fill-rule:nonzero;"/>        </g>        <g transform="matrix(36,0,0,36,117.599,37.4755)">            <path d="M0.07,-0.041l0.116,0l0,-0.515l-0.116,0l0,0.515Zm0,-0.6l0.117,0l0,-0.105l-0.117,0l0,0.105Z" style="fill-rule:nonzero;"/>        </g>        <g transform="matrix(36,0,0,36,126.851,37.4755)">            <path d="M0.244,-0.035c0.048,0 0.076,-0.011 0.096,-0.021l0,-0.077c-0.018,0.005 -0.039,0.008 -0.059,0.008c-0.054,0 -0.07,-0.016 -0.07,-0.059l0,-0.282l0.123,0l0,-0.09l-0.123,0l0,-0.121l-0.113,0l0,0.121l-0.072,0l0,0.09l0.072,0l0,0.298c0,0.097 0.057,0.133 0.146,0.133Z" style="fill-rule:nonzero;"/>        </g>        <g transform="matrix(36,0,0,36,140.423,37.4755)">            <path d="M0.197,-0.032c0.067,0 0.108,-0.022 0.133,-0.051l0.006,0l0.009,0.042l0.095,0l0,-0.37c0,-0.107 -0.069,-0.153 -0.188,-0.153c-0.067,0 -0.122,0.009 -0.17,0.028l0,0.079c0.031,-0.007 0.075,-0.014 0.125,-0.014c0.087,0 0.118,0.016 0.118,0.086l0,0.039l-0.121,0.014c-0.102,0.015 -0.165,0.059 -0.165,0.154c0,0.099 0.065,0.146 0.158,0.146Zm0.035,-0.081c-0.047,0 -0.08,-0.022 -0.08,-0.071c0,-0.052 0.027,-0.073 0.078,-0.077l0.095,-0.01l0,0.127c-0.019,0.018 -0.056,0.031 -0.093,0.031Z" style="fill-rule:nonzero;"/>        </g>        <g transform="matrix(36,0,0,36,158.639,37.4755)">            <rect x="0.07" y="-0.772" width="0.116" height="0.731" style="fill-rule:nonzero;"/>        </g>        <g transform="matrix(36,0,0,36,167.891,37.4755)">            <path d="M0.23,-0.03c0.157,0 0.225,-0.078 0.225,-0.195c0,-0.113 -0.063,-0.155 -0.162,-0.189l-0.066,-0.021c-0.076,-0.026 -0.1,-0.054 -0.1,-0.118c0,-0.064 0.046,-0.104 0.128,-0.104c0.074,0 0.127,0.019 0.166,0.037l0,-0.067c-0.037,-0.018 -0.084,-0.037 -0.163,-0.037c-0.14,0 -0.209,0.074 -0.209,0.178c0,0.102 0.053,0.15 0.147,0.181l0.065,0.023c0.081,0.026 0.114,0.054 0.114,0.123c0,0.073 -0.045,0.121 -0.148,0.121c-0.071,0 -0.137,-0.018 -0.188,-0.044l0,0.067c0.045,0.025 0.109,0.045 0.191,0.045Z" style="fill:rgb(255,195,1);fill-rule:nonzero;"/>        </g>        <g transform="matrix(36,0,0,36,186.035,37.4755)">            <path d="M0.23,-0.036c0.043,0 0.064,-0.011 0.084,-0.02l0,-0.052c-0.02,0.006 -0.043,0.009 -0.064,0.009c-0.057,0 -0.073,-0.019 -0.073,-0.067l0,-0.308l0.127,0l0,-0.063l-0.127,0l0,-0.118l-0.076,0l0,0.118l-0.071,0l0,0.063l0.071,0l0,0.32c0,0.084 0.051,0.118 0.129,0.118Z" style="fill:rgb(255,195,1);fill-rule:nonzero;"/>        </g>        <g transform="matrix(36,0,0,36,198.635,37.4755)">            <path d="M0.194,-0.033c0.067,0 0.109,-0.024 0.132,-0.052l0.005,0l0.008,0.043l0.062,0l0,-0.359c0,-0.101 -0.061,-0.146 -0.17,-0.146c-0.057,0 -0.105,0.009 -0.148,0.027l0,0.055c0.031,-0.009 0.07,-0.016 0.118,-0.016c0.089,0 0.123,0.02 0.123,0.097l0,0.052l-0.134,0.016c-0.095,0.011 -0.151,0.057 -0.151,0.144c0,0.093 0.065,0.139 0.155,0.139Zm0.019,-0.06c-0.057,0 -0.094,-0.027 -0.094,-0.081c0,-0.057 0.03,-0.082 0.091,-0.088l0.114,-0.013l0,0.146c-0.021,0.021 -0.065,0.036 -0.111,0.036Z" style="fill:rgb(255,195,1);fill-rule:nonzero;"/>        </g>        <g transform="matrix(36,0,0,36,215.627,37.4755)">            <path d="M0.271,-0.033c0.069,0 0.113,-0.02 0.145,-0.039l0,-0.062c-0.025,0.014 -0.069,0.035 -0.136,0.035c-0.106,0 -0.159,-0.057 -0.159,-0.184l0,-0.024c0,-0.114 0.059,-0.175 0.149,-0.175c0.065,0 0.097,0.012 0.141,0.032l0,-0.064c-0.033,-0.021 -0.072,-0.033 -0.137,-0.033c-0.128,0 -0.232,0.076 -0.232,0.252l0,0.015c0,0.163 0.087,0.247 0.229,0.247Z" style="fill:rgb(255,195,1);fill-rule:nonzero;"/>        </g>        <g transform="matrix(36,0,0,36,231.827,37.4755)">            <path d="M0.073,-0.042l0.076,0l0,-0.716l-0.076,0l0,0.716Zm0.294,0l0.088,0l-0.211,-0.262l0.195,-0.233l-0.082,0l-0.2,0.239l0.21,0.256Z" style="fill:rgb(255,195,1);fill-rule:nonzero;"/>        </g>        <g transform="matrix(36,0,0,36,249.035,37.4755)">            <path d="M0.277,-0.033c0.08,0 0.137,-0.025 0.167,-0.046l0,-0.057c-0.045,0.021 -0.089,0.037 -0.155,0.037c-0.106,0 -0.165,-0.048 -0.169,-0.172l0.338,0l0,-0.043c0,-0.154 -0.064,-0.233 -0.2,-0.233c-0.114,0 -0.216,0.077 -0.216,0.25l0,0.014c0,0.155 0.079,0.25 0.235,0.25Zm-0.021,-0.452c0.081,0 0.122,0.045 0.122,0.153l-0.258,0c0.008,-0.117 0.074,-0.153 0.136,-0.153Z" style="fill:rgb(255,195,1);fill-rule:nonzero;"/>        </g>        <g transform="matrix(36,0,0,36,267.035,37.4755)">            <path d="M0.073,-0.042l0.077,0l0,-0.39c0.035,-0.025 0.083,-0.043 0.133,-0.043c0.008,0 0.023,0.001 0.036,0.003l0,-0.069c-0.005,-0.001 -0.019,-0.002 -0.03,-0.002c-0.056,0 -0.11,0.029 -0.138,0.061l-0.005,0l0,-0.056l-0.073,0l0,0.496Z" style="fill:rgb(255,195,1);fill-rule:nonzero;"/>        </g>        <g transform="matrix(36,0,0,36,279.491,37.4755)">            <path d="M0.199,-0.034c0.109,0 0.175,-0.052 0.175,-0.146c0,-0.086 -0.039,-0.118 -0.134,-0.143l-0.05,-0.014c-0.053,-0.015 -0.074,-0.033 -0.074,-0.076c0,-0.046 0.033,-0.069 0.1,-0.069c0.055,0 0.105,0.013 0.131,0.026l0,-0.062c-0.026,-0.014 -0.069,-0.029 -0.135,-0.029c-0.114,0 -0.169,0.057 -0.169,0.141c0,0.084 0.049,0.117 0.121,0.137l0.049,0.013c0.063,0.018 0.086,0.038 0.086,0.084c0,0.045 -0.032,0.073 -0.111,0.073c-0.07,0 -0.106,-0.015 -0.149,-0.031l0,0.061c0.041,0.023 0.095,0.035 0.16,0.035Z" style="fill:rgb(255,195,1);fill-rule:nonzero;"/>        </g>    </g></svg>