<?xml version="1.0" encoding="UTF-8" standalone="no"?><!DOCTYPE svg PUBLIC "-//W3C//DTD SVG 1.1//EN" "http://www.w3.org/Graphics/SVG/1.1/DTD/svg11.dtd"><svg width="100%" height="100%" viewBox="0 0 1024 512" version="1.1" xmlns="http://www.w3.org/2000/svg" xmlns:xlink="http://www.w3.org/1999/xlink" xml:space="preserve" style="fill-rule:evenodd;clip-rule:evenodd;stroke-linejoin:round;stroke-miterlimit:2;"><title>Solylend</title><desc>Solylend is the new remunerated loan financing platform entirely dedicated to the emergence of innovative projects stemming from the social and solidarity economy. Our ambition is to support startups and innovative companies that tend to respond to the issues facing disadvantaged countries every day.</desc>    <g transform="matrix(1.16495,0,0,1.39816,-55.0994,-57.9772)">        <rect x="49.014" y="42.182" width="875.572" height="364.765" style="fill:rgb(41,41,41);"/>    </g>    <g transform="matrix(1,0,0,1,6.51076,-9.05679)">        <g transform="matrix(3.59683,0,0,2.07261,-160.536,-162.006)">            <g transform="matrix(34.574,0,0,60,121.563,226.117)">                <path d="M0.306,0.005c-0.051,0 -0.1,-0.009 -0.147,-0.027c-0.046,-0.017 -0.082,-0.04 -0.108,-0.068l0.023,-0.038c0.025,0.026 0.058,0.047 0.1,0.064c0.041,0.016 0.085,0.024 0.131,0.024c0.067,0 0.117,-0.013 0.151,-0.038c0.034,-0.025 0.051,-0.058 0.051,-0.099c-0,-0.031 -0.009,-0.056 -0.027,-0.075c-0.018,-0.019 -0.04,-0.033 -0.067,-0.043c-0.027,-0.01 -0.063,-0.02 -0.108,-0.031c-0.051,-0.013 -0.093,-0.025 -0.124,-0.037c-0.031,-0.012 -0.057,-0.031 -0.079,-0.056c-0.021,-0.025 -0.032,-0.058 -0.032,-0.1c-0,-0.034 0.009,-0.065 0.027,-0.094c0.018,-0.028 0.045,-0.05 0.082,-0.067c0.037,-0.017 0.084,-0.025 0.139,-0.025c0.039,0 0.077,0.006 0.114,0.017c0.037,0.011 0.07,0.027 0.097,0.046l-0.019,0.041c-0.028,-0.019 -0.059,-0.034 -0.093,-0.044c-0.033,-0.01 -0.066,-0.015 -0.099,-0.015c-0.065,-0 -0.114,0.013 -0.147,0.039c-0.033,0.026 -0.05,0.06 -0.05,0.101c-0,0.031 0.009,0.056 0.027,0.075c0.018,0.019 0.04,0.033 0.067,0.043c0.027,0.01 0.063,0.021 0.109,0.032c0.051,0.013 0.092,0.025 0.123,0.037c0.031,0.012 0.057,0.03 0.078,0.054c0.022,0.025 0.033,0.058 0.033,0.099c-0,0.034 -0.009,0.065 -0.028,0.093c-0.018,0.028 -0.046,0.05 -0.084,0.067c-0.038,0.017 -0.085,0.025 -0.14,0.025Z" style="fill:rgb(254,221,32);fill-rule:nonzero;"/>            </g>            <g transform="matrix(34.574,0,0,60,143.597,226.117)">                <path d="M0.419,0.005c-0.069,0 -0.131,-0.016 -0.186,-0.047c-0.055,-0.03 -0.099,-0.073 -0.13,-0.127c-0.032,-0.054 -0.048,-0.114 -0.048,-0.181c0,-0.067 0.016,-0.127 0.048,-0.181c0.031,-0.054 0.075,-0.097 0.13,-0.128c0.055,-0.03 0.117,-0.046 0.186,-0.046c0.069,0 0.131,0.015 0.186,0.046c0.055,0.031 0.099,0.073 0.131,0.127c0.031,0.054 0.047,0.115 0.047,0.182c0,0.067 -0.016,0.128 -0.047,0.182c-0.032,0.054 -0.076,0.096 -0.131,0.127c-0.055,0.031 -0.117,0.046 -0.186,0.046Zm0,-0.047c0.059,-0 0.112,-0.013 0.159,-0.04c0.047,-0.027 0.085,-0.064 0.112,-0.111c0.027,-0.047 0.041,-0.099 0.041,-0.157c0,-0.058 -0.014,-0.11 -0.041,-0.158c-0.027,-0.046 -0.065,-0.083 -0.112,-0.11c-0.047,-0.027 -0.1,-0.04 -0.159,-0.04c-0.059,0 -0.112,0.013 -0.159,0.04c-0.048,0.027 -0.086,0.064 -0.113,0.11c-0.027,0.048 -0.041,0.1 -0.041,0.158c0,0.058 0.014,0.11 0.041,0.157c0.027,0.047 0.065,0.084 0.113,0.111c0.047,0.027 0.1,0.04 0.159,0.04Z" style="fill:rgb(254,221,32);fill-rule:nonzero;"/>            </g>            <g transform="matrix(34.574,0,0,60,173.549,226.117)">                <path d="M0.122,-0.7l0.051,0l0,0.654l0.403,0l0,0.046l-0.454,0l-0,-0.7Z" style="fill:rgb(254,221,32);fill-rule:nonzero;"/>            </g>            <g transform="matrix(34.574,0,0,60,194.754,226.117)">                <path d="M0.338,-0.241l0,0.241l-0.051,-0l0,-0.241l-0.282,-0.459l0.056,-0l0.253,0.412l0.253,-0.412l0.053,-0l-0.282,0.459Z" style="fill:rgb(254,221,32);fill-rule:nonzero;"/>            </g>            <g transform="matrix(34.574,0,0,60,217.342,226.117)">                <path d="M0.122,-0.7l0.051,0l0,0.654l0.403,0l0,0.046l-0.454,0l-0,-0.7Z" style="fill:rgb(254,221,32);fill-rule:nonzero;"/>            </g>            <g transform="matrix(34.574,0,0,60,238.546,226.117)">                <path d="M0.605,-0.046l0,0.046l-0.483,-0l0,-0.7l0.468,0l-0,0.046l-0.417,0l-0,0.276l0.373,0l0,0.045l-0.373,0l-0,0.287l0.432,-0Z" style="fill:rgb(254,221,32);fill-rule:nonzero;"/>            </g>            <g transform="matrix(34.574,0,0,60,262.655,226.117)">                <path d="M0.692,-0.7l0,0.7l-0.042,-0l-0.477,-0.608l0,0.608l-0.051,-0l0,-0.7l0.043,0l0.476,0.608l0,-0.608l0.051,0Z" style="fill:rgb(254,221,32);fill-rule:nonzero;"/>            </g>            <g transform="matrix(34.574,0,0,60,291.777,226.117)">                <path d="M0.122,-0.7l0.277,0c0.073,0 0.137,0.015 0.194,0.045c0.056,0.03 0.1,0.072 0.131,0.125c0.031,0.052 0.047,0.113 0.047,0.18c0,0.067 -0.016,0.128 -0.047,0.181c-0.031,0.053 -0.075,0.094 -0.131,0.124c-0.057,0.03 -0.121,0.045 -0.194,0.045l-0.277,0l0,-0.7Zm0.273,0.654c0.065,0 0.122,-0.013 0.171,-0.038c0.049,-0.026 0.087,-0.062 0.114,-0.108c0.027,-0.046 0.04,-0.099 0.04,-0.158c0,-0.059 -0.013,-0.112 -0.04,-0.158c-0.027,-0.046 -0.065,-0.082 -0.114,-0.107c-0.049,-0.026 -0.106,-0.039 -0.171,-0.039l-0.222,0l0,0.608l0.222,0Z" style="fill:rgb(254,221,32);fill-rule:nonzero;"/>            </g>        </g>        <g transform="matrix(2.21754,0,0,2.21754,26.163,164.181)">            <path d="M0,45.49c0,-25.037 20.603,-45.64 45.64,-45.64c25.037,0 45.64,20.603 45.64,45.64c-0,25.037 -20.603,45.64 -45.64,45.64l-0.07,0c-24.999,0 -45.57,-20.571 -45.57,-45.57c-0,-0.023 -0,-0.047 0,-0.07Zm14.27,28.27c0.42,0.46 0.67,0.76 1,1c11.2,11 24.56,15.1 39.9,11.78c22.64,-4.87 37.12,-28.24 31.62,-50.54c-0.24,-1 -0.54,-1.09 -1.44,-0.77c-4.8,1.727 -9.62,3.42 -14.46,5.08c-4,1.38 -8.13,1.94 -12.13,0c-4.43,-2.178 -9.338,-3.21 -14.27,-3c-2.46,0.07 -2.44,0.07 -2.46,-2.45c0,-0.6 0.14,-0.85 0.77,-0.89c5.63,-0.32 11.15,0.17 16.24,2.75c3.218,1.62 6.974,1.813 10.34,0.53c5.1,-1.71 10.17,-3.55 15.27,-5.31c0.7,-0.24 0.82,-0.51 0.55,-1.18c-1.371,-3.457 -3.147,-6.74 -5.29,-9.78c-0.189,-0.418 -0.607,-0.688 -1.066,-0.688c-0.25,0 -0.493,0.08 -0.694,0.228c-3.5,1.65 -7.06,3.19 -10.56,4.84c-2.809,1.343 -6.021,1.586 -9,0.68c-2.87,-0.78 -5.48,-2.2 -8.25,-3.23c-3.488,-1.436 -7.456,-1.158 -10.71,0.75c-5.32,3 -10.72,5.88 -16.09,8.8c-2.08,1.13 -2,1.09 -3.19,-0.94c-0.49,-0.84 -0.24,-1.11 0.49,-1.5c4.2,-2.24 8.36,-4.53 12.54,-6.81c1.43,-0.78 2.9,-1.53 4.3,-2.37c4.72,-2.83 9.58,-2.93 14.59,-0.86c2.32,1 4.58,2.08 7,2.81c2.305,0.775 4.826,0.599 7,-0.49c1.25,-0.62 2.54,-1.15 3.81,-1.73l6.81,-3.11c-0.34,-0.38 -0.56,-0.65 -0.81,-0.9c-7.959,-8.262 -18.949,-12.935 -30.421,-12.935c-23.172,0 -42.24,19.068 -42.24,42.24c0,3.059 0.332,6.108 0.991,9.095c0.35,1.47 0.35,1.47 1.79,1c5.05,-1.77 10.07,-3.61 15.16,-5.27c3.74,-1.22 7.55,-1.47 11.21,0.36c4.383,2.186 9.26,3.192 14.15,2.92c2.44,-0.11 2.41,-0.09 2.52,2.33c0,0.69 -0.1,1 -0.86,1c-5.679,0.572 -11.408,-0.424 -16.56,-2.88c-2.503,-1.316 -5.421,-1.617 -8.14,-0.84c-5.88,1.67 -11.55,4 -17.34,5.91c-0.73,0.24 -0.4,0.63 -0.26,1c1.349,3.511 3.136,6.838 5.32,9.9c0.48,0.67 0.86,0.67 1.55,0.35c3.4,-1.59 6.87,-3 10.24,-4.7c3.322,-1.69 7.215,-1.872 10.68,-0.5c2.35,0.88 4.65,1.91 7,2.83c3.474,1.488 7.459,1.228 10.71,-0.7c5.36,-3 10.79,-5.91 16.2,-8.86c2,-1.1 2,-1.08 3.08,0.88c0.44,0.76 0.44,1.14 -0.44,1.6c-5.49,2.94 -11,5.79 -16.41,9c-5.41,3.21 -10.47,3.17 -15.9,0.71c-1.93,-0.87 -3.9,-1.66 -5.89,-2.37c-1.912,-0.807 -4.065,-0.839 -6,-0.09c-3.95,1.68 -7.86,3.48 -11.95,5.32Z" style="fill:rgb(254,221,32);fill-rule:nonzero;"/>        </g>    </g></svg>