<?xml version="1.0" encoding="UTF-8" standalone="no"?><!DOCTYPE svg PUBLIC "-//W3C//DTD SVG 1.1//EN" "http://www.w3.org/Graphics/SVG/1.1/DTD/svg11.dtd"><svg width="100%" height="100%" viewBox="0 0 1024 512" version="1.1" xmlns="http://www.w3.org/2000/svg" xmlns:xlink="http://www.w3.org/1999/xlink" xml:space="preserve" style="fill-rule:evenodd;clip-rule:evenodd;stroke-linejoin:round;stroke-miterlimit:2;"><title>KazFintech</title><desc></desc>    <g transform="matrix(6.03815,0,0,6.00882,-8.14993,185.385)">        <path d="M98.35,11.53l0,9.02c-0.08,0.89 -0.43,1.25 -1.33,1.28c-0.9,0.03 -1.83,0 -2.74,0c-0.766,0.041 -1.479,-0.41 -1.77,-1.12c-1,-2.13 -2.09,-4.27 -3.14,-6.41c-0.86,-1.77 -1.73,-3.53 -2.58,-5.31c-0.25,-0.52 -1.3,-2.58 -1.3,-2.58l0,14.46c0,0.88 -0.07,0.95 -0.94,1c-0.87,0.05 -1.68,0 -2.52,0c-0.45,0 -0.68,-0.18 -0.66,-0.65l0,-17.91c-0.01,-0.069 -0.016,-0.14 -0.016,-0.21c0,-0.773 0.637,-1.41 1.41,-1.41c0.079,0 0.158,0.007 0.236,0.02l2.53,0c0.804,-0.073 1.566,0.392 1.87,1.14c0.52,1 1,2.12 1.54,3.18c0.61,1.25 1.25,2.48 1.86,3.74c0.9,1.85 1.79,3.72 2.68,5.58c0.17,0.37 1,1.74 1,1.74l0,-1.85l0,-12.62c0,-0.83 0.08,-0.91 0.91,-0.91l2.09,0c0.7,0 0.88,0.1 0.88,0.88l0,8.94l-0.01,0Z" style="fill:url(#_Linear1);fill-rule:nonzero;"/>        <path d="M154.62,11.78l0,-9c0,-1 0,-1 1.06,-1.06l2.24,0c0.93,0 1,0.06 1,1l0,6.8l7.41,0l0,-6.85c0,-0.86 0.06,-0.92 0.89,-0.92l2.3,0c1,0 1.07,0.05 1.08,1.05l0,18.41c0.005,0.028 0.007,0.057 0.007,0.085c0,0.297 -0.244,0.54 -0.54,0.54c-0.026,0 -0.052,-0.001 -0.077,-0.005l-3,0c-0.53,0 -0.63,-0.31 -0.63,-0.75l0,-8.33l-7.41,0l0,8.54c0.001,0.014 0.002,0.028 0.002,0.043c0,0.269 -0.221,0.49 -0.49,0.49c-0.017,0 -0.035,-0.001 -0.052,-0.003l-3.18,0c-0.39,0 -0.55,-0.24 -0.55,-0.61l0,-2l-0.06,-7.43Z" style="fill:url(#_Linear2);fill-rule:nonzero;"/>        <path d="M120.32,11.7l0,-6.06c-0.085,-1.325 0.56,-2.596 1.68,-3.31c0.565,-0.36 1.212,-0.57 1.88,-0.61c3.12,0 6.24,0.05 9.36,0.12c0.77,0 0.86,0.17 0.8,0.93c0,0.47 -0.09,1 -0.12,1.43c0,0.69 -0.11,0.78 -0.83,0.78l-6.77,0c-1.17,0.06 -1.65,0.52 -1.72,1.7l0,3.08l7.51,0c0.43,0 0.67,0.18 0.67,0.65l0,1.73c0.005,0.028 0.007,0.057 0.007,0.085c0,0.297 -0.244,0.54 -0.54,0.54c-0.026,0 -0.052,-0.001 -0.077,-0.005l-7.56,0l0,3.78c-0.005,0.097 -0.005,0.193 0,0.29c0.12,1.19 0.53,1.62 1.73,1.68l6.77,0c0.7,0 0.77,0.1 0.81,0.8c0.04,0.7 0.09,1.1 0.13,1.65c0.04,0.55 -0.17,0.67 -0.62,0.67c-3.15,0 -6.3,0.16 -9.44,0.14c-2.035,-0.047 -3.683,-1.734 -3.683,-3.769c0,-0.054 0.001,-0.107 0.003,-0.161c-0.01,-2.01 0.02,-4.08 0.01,-6.14Z" style="fill:url(#_Linear3);fill-rule:nonzero;"/>        <path d="M147.07,18.51l3.37,-0.19c0.64,0 0.74,0 0.82,0.69c0.08,0.69 0.12,1.24 0.21,1.86c0.019,0.055 0.028,0.112 0.028,0.17c0,0.291 -0.239,0.53 -0.53,0.53c-0.003,0 -0.005,0 -0.008,0c-2.195,0.531 -4.454,0.747 -6.71,0.64c-1.449,-0.051 -2.869,-0.419 -4.16,-1.08c-1.114,-0.63 -1.976,-1.627 -2.44,-2.82c-0.499,-1.202 -0.789,-2.48 -0.86,-3.78c-0.225,-2.468 -0.135,-4.955 0.27,-7.4c0.219,-1.46 0.875,-2.819 1.88,-3.9c0.804,-0.761 1.799,-1.29 2.88,-1.53c2.396,-0.545 4.881,-0.575 7.29,-0.09c0.47,0.07 0.94,0.17 1.42,0.23c0.48,0.06 0.52,0.21 0.49,0.57c-0.07,0.74 -0.14,1.48 -0.22,2.22c0,0.36 -0.3,0.47 -0.62,0.47l-2.59,0c-1.13,0 -2.26,0 -3.38,0.05c-1.295,0.091 -2.369,1.061 -2.59,2.34c-0.541,2.369 -0.619,4.821 -0.23,7.22c0.08,0.48 0.12,1 0.24,1.42c0.305,1.398 1.57,2.393 3,2.36l2.45,0l-0.01,0.02Z" style="fill:url(#_Linear4);fill-rule:nonzero;"/>        <path d="M56.41,13.13l0,-7.65c-0.057,-1.307 0.624,-2.541 1.76,-3.19c0.574,-0.343 1.222,-0.543 1.89,-0.58c3,-0.05 6,0 9.08,0c0.64,0 0.78,0.18 0.71,0.79c-0.07,0.61 -0.16,1.28 -0.23,1.92c-0.07,0.64 -0.42,0.58 -0.83,0.58l-5.69,0c-0.409,-0.002 -0.817,0.032 -1.22,0.1c-0.594,0.013 -1.077,0.505 -1.077,1.1c0,0.04 0.003,0.08 0.007,0.12l0,3.9l6.42,0c1.25,0 1.25,0 1.25,1.24l0,0.79c0,1 0,1.06 -1,1.07l-6.68,0l0,7.63c0,0.84 -0.06,0.89 -0.91,0.9l-2.39,0c-1.09,0 -1.1,0 -1.1,-1.07l0,-7.65l0.01,0Z" style="fill:url(#_Linear5);fill-rule:nonzero;"/>        <path d="M111.6,20.83c0,1 0,1 -1,1l-2.4,0c-0.81,0 -0.87,-0.07 -0.87,-0.87l0,-15.84l-5.23,0c-0.74,0 -0.82,-0.09 -0.83,-0.84c-0.01,-0.75 0,-1.3 0,-1.94c-0.005,-0.029 -0.007,-0.058 -0.007,-0.087c0,-0.296 0.244,-0.54 0.54,-0.54c0.029,0 0.058,0.002 0.087,0.007l15.11,0c0.46,0 0.65,0.23 0.65,0.67l0,2c0,0.66 -0.13,0.71 -0.74,0.72l-5.31,0c0,0 0.01,13.27 0,15.72Z" style="fill:url(#_Linear6);fill-rule:nonzero;"/>        <path d="M72.84,11.78l0,-9c0,-1.06 0,-1.07 1.1,-1.08l2.45,0c0.6,0 0.7,0.12 0.73,0.73l0,18.8c0,0.38 -0.17,0.6 -0.57,0.6l-3.16,0c-0.018,0.002 -0.035,0.003 -0.053,0.003c-0.269,0 -0.49,-0.221 -0.49,-0.49c0,-0.018 0.001,-0.035 0.003,-0.053l0,-0.65l-0.01,-8.86Z" style="fill:url(#_Linear7);fill-rule:nonzero;"/>        <path d="M1.7,11.77l0,-9.16c0,-0.8 0.12,-0.9 0.85,-0.9c0.003,0 0.007,0 0.01,0c0.461,0 0.84,0.379 0.84,0.84c0,0.003 0,0.007 0,0.01l0,8l2.69,0c0,0 4.63,-6.18 6.34,-8.53c0.405,-0.324 0.929,-0.459 1.44,-0.37c0.38,0 0.52,0.3 0.3,0.61c-0.52,0.77 -1.07,1.52 -1.62,2.27c-1.65,2.24 -3.31,4.49 -5,6.72c2,2.8 4,5.62 6,8.43l1.17,1.64c0.22,0.3 0.13,0.42 -0.22,0.45c-0.806,0.157 -1.63,-0.197 -2.07,-0.89c-2,-3 -6.29,-8.91 -6.29,-8.91l-2.76,0l0,8.85c0,0.87 -0.57,1.25 -1.37,0.9c-0.158,-0.095 -0.27,-0.25 -0.31,-0.43c-0.025,-0.236 -0.025,-0.474 0,-0.71l0,-8.82Z" style="fill:rgb(1,56,109);fill-rule:nonzero;"/>        <path d="M42.42,21.84l-5.42,0c-1.21,0 -1.22,-1.33 -1,-1.83c0.256,-0.455 0.537,-0.895 0.84,-1.32l5.92,-8.87l4.41,-6.57l-10.64,0c-0.46,0 -0.61,-0.25 -0.61,-0.68c0,-0.43 0.14,-0.69 0.61,-0.69l11.31,0c0.235,-0.035 0.475,-0.035 0.71,0c1,0.33 0.4,1.48 0.15,1.87c-1.51,2.34 -3.09,4.64 -4.63,7c-1.21,1.81 -2.38,3.63 -3.58,5.44l-2.84,4.26l10.78,0c0.61,0 0.75,0.17 0.76,0.7c0.01,0.53 -0.14,0.69 -0.75,0.69l-6.02,0Z" style="fill:rgb(1,56,109);fill-rule:nonzero;"/>        <path d="M33.41,21.16c-0.627,-1.807 -1.25,-3.623 -1.87,-5.45c-0.57,-1.66 -1.11,-3.32 -1.69,-5c-0.86,-2.49 -1.77,-5 -2.61,-7.48c-0.51,-1.53 -0.3,-1.56 -2.14,-1.54l-0.93,0c-0.463,-0.052 -0.897,0.256 -1,0.71c-1.053,3.193 -2.11,6.393 -3.17,9.6c-0.85,2.45 -1.72,4.89 -2.57,7.34c-0.25,0.7 -0.45,1.42 -0.68,2.13c-0.07,0.21 -0.09,0.35 0.2,0.4c1,0.21 1.45,0 1.78,-1c0.56,-1.69 1.87,-5.73 1.87,-5.73l9,0c0,0 1.33,4 1.87,5.67c0.34,1.06 0.4,1.14 1.5,1.1c0.64,-0.1 0.65,-0.12 0.44,-0.75Zm-4.26,-7.51l-8.15,0c0,0 2.27,-6.85 3.27,-9.83c0.051,-0.185 0.125,-0.363 0.22,-0.53c0.12,-0.184 0.325,-0.296 0.545,-0.296c0.22,0 0.425,0.112 0.545,0.296c0.106,0.16 0.187,0.336 0.24,0.52c0.61,1.68 1.18,3.42 1.73,5.19c0.45,1.24 1.6,4.65 1.6,4.65Z" style="fill:rgb(1,56,109);fill-rule:nonzero;"/>    </g>    <defs>        <linearGradient id="_Linear1" x1="0" y1="0" x2="1" y2="0" gradientUnits="userSpaceOnUse" gradientTransform="matrix(114,0,0,114,57,11.8467)"><stop offset="0" style="stop-color:rgb(2,71,140);stop-opacity:1"/><stop offset="1" style="stop-color:rgb(2,102,196);stop-opacity:1"/></linearGradient>        <linearGradient id="_Linear2" x1="0" y1="0" x2="1" y2="0" gradientUnits="userSpaceOnUse" gradientTransform="matrix(114,0,0,114,57,11.8467)"><stop offset="0" style="stop-color:rgb(2,71,140);stop-opacity:1"/><stop offset="1" style="stop-color:rgb(2,102,196);stop-opacity:1"/></linearGradient>        <linearGradient id="_Linear3" x1="0" y1="0" x2="1" y2="0" gradientUnits="userSpaceOnUse" gradientTransform="matrix(114,0,0,114,57,11.8467)"><stop offset="0" style="stop-color:rgb(2,71,140);stop-opacity:1"/><stop offset="1" style="stop-color:rgb(2,102,196);stop-opacity:1"/></linearGradient>        <linearGradient id="_Linear4" x1="0" y1="0" x2="1" y2="0" gradientUnits="userSpaceOnUse" gradientTransform="matrix(114,0,0,114,57,11.8467)"><stop offset="0" style="stop-color:rgb(2,71,140);stop-opacity:1"/><stop offset="1" style="stop-color:rgb(2,102,196);stop-opacity:1"/></linearGradient>        <linearGradient id="_Linear5" x1="0" y1="0" x2="1" y2="0" gradientUnits="userSpaceOnUse" gradientTransform="matrix(114,0,0,114,57,11.8467)"><stop offset="0" style="stop-color:rgb(2,71,140);stop-opacity:1"/><stop offset="1" style="stop-color:rgb(2,102,196);stop-opacity:1"/></linearGradient>        <linearGradient id="_Linear6" x1="0" y1="0" x2="1" y2="0" gradientUnits="userSpaceOnUse" gradientTransform="matrix(114,0,0,114,57,11.8467)"><stop offset="0" style="stop-color:rgb(2,71,140);stop-opacity:1"/><stop offset="1" style="stop-color:rgb(2,102,196);stop-opacity:1"/></linearGradient>        <linearGradient id="_Linear7" x1="0" y1="0" x2="1" y2="0" gradientUnits="userSpaceOnUse" gradientTransform="matrix(114,0,0,114,57,11.8467)"><stop offset="0" style="stop-color:rgb(2,71,140);stop-opacity:1"/><stop offset="1" style="stop-color:rgb(2,102,196);stop-opacity:1"/></linearGradient>    </defs></svg>