<?xml version="1.0" encoding="UTF-8" standalone="no"?><!DOCTYPE svg PUBLIC "-//W3C//DTD SVG 1.1//EN" "http://www.w3.org/Graphics/SVG/1.1/DTD/svg11.dtd"><svg width="100%" height="100%" viewBox="0 0 1024 512" version="1.1" xmlns="http://www.w3.org/2000/svg" xmlns:xlink="http://www.w3.org/1999/xlink" xml:space="preserve" style="fill-rule:evenodd;clip-rule:evenodd;stroke-linejoin:round;stroke-miterlimit:2;"><title>ArchOver</title><desc>Business Lending. Fixed rate, fixed term loans, no personal guarantees. Lenders earn up to 11% p.a.. IFISA and auto-invest Investment Plan.ArchOver is a business lending service, connecting businesses requiring finance with investors seeking a favourable return. To date, we have facilitated over £110m of funding for UK businesses, and paid over £7m in interest to our Lenders. Invest and earn up to 10% p.a.</desc>    <g transform="matrix(2.26784,0,0,2.26441,-204.029,-286.446)">        <g transform="matrix(1.67505,-3.81514,-3.81514,-1.67505,122.692,232.623)">            <path d="M-3.907,-2.806c-0.866,1.225 -1.607,2.599 -2.176,4.12c0.557,1.686 1.287,3.307 2.176,4.84c0.214,-1.579 0.629,-3.028 1.196,-4.336c-0.555,-1.478 -0.961,-3.028 -1.196,-4.624" style="fill:rgb(228,239,247);fill-rule:nonzero;"/>        </g>        <g transform="matrix(-4.16401,-0.14863,-0.14863,4.16401,132.198,250.864)">            <path d="M-0.044,-3.503c1.197,0.471 2.496,0.808 3.878,0.965c-1.183,0.97 -2.48,1.825 -3.878,2.539c-1.397,-0.452 -2.692,-1.061 -3.866,-1.791c1.374,-0.437 2.669,-1.016 3.866,-1.713" style="fill:rgb(228,239,247);fill-rule:nonzero;"/>        </g>        <g transform="matrix(-4.09641,0.761932,0.761932,4.09641,154.008,240.907)">            <path d="M0.201,-3.518c1.05,0.547 2.201,0.984 3.426,1.274c-1.029,0.867 -2.178,1.637 -3.426,2.286c-1.248,-0.539 -2.398,-1.207 -3.429,-1.974c1.229,-0.409 2.379,-0.948 3.429,-1.586" style="fill:rgb(228,239,247);fill-rule:nonzero;"/>        </g>        <g transform="matrix(-3.83929,1.61894,1.61894,3.83929,170.456,225.37)">            <path d="M0.467,-3.388c0.92,0.596 1.937,1.103 3.034,1.487c-0.901,0.789 -1.919,1.492 -3.034,2.087c-1.114,-0.597 -2.132,-1.304 -3.032,-2.091c1.096,-0.385 2.113,-0.887 3.032,-1.483" style="fill:rgb(228,239,247);fill-rule:nonzero;"/>        </g>        <g transform="matrix(-4.16343,-0.164158,-0.164158,4.16343,131.009,269.772)">            <path d="M-0.044,-3.501c1.457,0.444 3.017,0.725 4.654,0.796c-1.438,1.056 -2.996,1.965 -4.654,2.707c-1.656,-0.426 -3.211,-1.037 -4.64,-1.79c1.627,-0.413 3.182,-0.99 4.64,-1.713" style="fill:rgb(168,218,236);fill-rule:nonzero;"/>        </g>        <g transform="matrix(-4.09961,0.744532,0.744532,4.09961,156.939,259.946)">            <path d="M0.17,-3.517c1.308,0.534 2.711,0.932 4.191,1.158c-1.283,0.931 -2.687,1.74 -4.191,2.401c-1.503,-0.527 -2.907,-1.206 -4.194,-2.011c1.483,-0.373 2.888,-0.896 4.194,-1.548" style="fill:rgb(168,218,236);fill-rule:nonzero;"/>        </g>        <g transform="matrix(-3.84615,1.60256,1.60256,3.84615,177.227,242.82)">            <path d="M0.438,-3.228c1.173,0.597 2.446,1.076 3.793,1.41c-1.154,0.838 -2.425,1.57 -3.794,2.165c-1.369,-0.597 -2.64,-1.328 -3.793,-2.167c1.348,-0.334 2.62,-0.812 3.794,-1.407" style="fill:rgb(168,218,236);fill-rule:nonzero;"/>        </g>        <g transform="matrix(-3.41336,2.38958,2.38958,3.41336,190.427,220.637)">            <path d="M0.806,-2.636c1.05,0.64 2.199,1.18 3.428,1.591c-1.032,0.762 -2.18,1.429 -3.428,1.966c-1.246,-0.648 -2.391,-1.419 -3.422,-2.285c1.224,-0.292 2.373,-0.726 3.422,-1.272" style="fill:rgb(168,218,236);fill-rule:nonzero;"/>        </g>        <g transform="matrix(-4.10148,0.734122,0.734122,4.10148,159.896,278.913)">            <path d="M0.142,-3.516c1.562,0.523 3.222,0.882 4.951,1.04c-1.535,0.998 -3.192,1.844 -4.951,2.519c-1.758,-0.513 -3.418,-1.208 -4.955,-2.048c1.732,-0.335 3.395,-0.845 4.955,-1.511" style="fill:rgb(29,151,206);fill-rule:nonzero;"/>        </g>        <g transform="matrix(-3.85014,1.59296,1.59296,3.85014,183.892,259.713)">            <path d="M0.431,-2.953c1.429,0.595 2.954,1.051 4.552,1.334c-1.403,0.887 -2.928,1.645 -4.552,2.242c-1.621,-0.598 -3.147,-1.351 -4.549,-2.241c1.596,-0.284 3.122,-0.738 4.549,-1.335" style="fill:rgb(29,151,206);fill-rule:nonzero;"/>        </g>        <g transform="matrix(-3.42082,2.37889,2.37889,3.42082,200.672,236.08)">            <path d="M0.766,-2.466c1.304,0.652 2.709,1.176 4.188,1.548c-1.282,0.804 -2.687,1.483 -4.188,2.011c-1.501,-0.663 -2.903,-1.47 -4.181,-2.401c1.476,-0.225 2.877,-0.625 4.181,-1.158" style="fill:rgb(29,151,206);fill-rule:nonzero;"/>        </g>        <g transform="matrix(-2.82192,3.0656,3.0656,2.82192,209.959,211.117)">            <path d="M0.992,-2.241c1.194,0.698 2.487,1.276 3.858,1.716c-1.174,0.729 -2.465,1.336 -3.858,1.789c-1.394,-0.718 -2.689,-1.574 -3.867,-2.545c1.378,-0.156 2.672,-0.489 3.867,-0.96" style="fill:rgb(29,151,206);fill-rule:nonzero;"/>        </g>        <g transform="matrix(-3.85615,1.57836,1.57836,3.85615,190.335,276.922)">            <path d="M0.419,-2.711c1.681,0.593 3.463,1.019 5.31,1.25c-1.652,0.942 -3.431,1.726 -5.31,2.324c-1.877,-0.593 -3.656,-1.371 -5.309,-2.307c1.846,-0.238 3.626,-0.669 5.309,-1.267" style="fill:rgb(3,76,117);fill-rule:nonzero;"/>        </g>        <g transform="matrix(-3.43043,2.36501,2.36501,3.43043,210.771,251.876)">            <path d="M0.719,-2.329c1.559,0.662 3.22,1.169 4.949,1.5c-1.534,0.845 -3.191,1.543 -4.949,2.059c-1.756,-0.669 -3.412,-1.513 -4.943,-2.506c1.726,-0.164 3.383,-0.529 4.943,-1.053" style="fill:rgb(3,76,117);fill-rule:nonzero;"/>        </g>        <g transform="matrix(-2.8343,3.05415,3.05415,2.8343,223.07,224.182)">            <path d="M0.93,-2.11c1.454,0.722 3.004,1.297 4.63,1.708c-1.426,0.755 -2.979,1.37 -4.63,1.799c-1.653,-0.741 -3.207,-1.648 -4.64,-2.699c1.631,-0.075 3.187,-0.361 4.64,-0.808" style="fill:rgb(3,76,117);fill-rule:nonzero;"/>        </g>        <g transform="matrix(-2.06303,3.62008,3.62008,2.06303,227.675,194.357)">            <path d="M1.377,-1.935c1.375,0.768 2.844,1.397 4.381,1.864c-1.334,0.676 -2.799,1.205 -4.381,1.545c-1.58,-0.798 -3.073,-1.759 -4.449,-2.86c1.585,0.017 3.075,-0.182 4.449,-0.549" style="fill:rgb(3,76,117);fill-rule:nonzero;"/>        </g>        <g transform="matrix(-4.1107,0.680648,0.680648,4.1107,164.93,298.16)">            <path d="M0.117,-3.537c1.684,0.593 3.463,1.02 5.311,1.252c-1.653,0.94 -3.43,1.725 -5.311,2.323c-1.876,-0.594 -3.657,-1.373 -5.307,-2.309c1.844,-0.236 3.626,-0.667 5.307,-1.266" style="fill:rgb(3,76,117);fill-rule:nonzero;"/>        </g>        <g transform="matrix(4.16667,0,0,4.16667,237.271,286.794)">            <path d="M0,-8.174c-0.295,0.68 -0.632,1.508 -1.009,2.481c-0.378,0.974 -0.772,2.032 -1.183,3.173l4.385,0c-0.412,-1.141 -0.808,-2.204 -1.193,-3.191c-0.385,-0.987 -0.719,-1.809 -1,-2.463m3.932,10.751c-0.18,-0.526 -0.366,-1.045 -0.559,-1.559c-0.192,-0.512 -0.378,-1.038 -0.558,-1.576l-5.63,0c-0.18,0.538 -0.363,1.067 -0.549,1.588c-0.186,0.518 -0.37,1.034 -0.549,1.547l-2.52,0c0.499,-1.424 0.973,-2.738 1.421,-3.944c0.449,-1.203 0.887,-2.346 1.317,-3.423c0.43,-1.078 0.855,-2.102 1.277,-3.076c0.423,-0.975 0.859,-1.936 1.308,-2.885l2.313,0c0.448,0.949 0.885,1.91 1.307,2.885c0.423,0.974 0.849,1.998 1.279,3.076c0.429,1.077 0.871,2.22 1.327,3.423c0.454,1.206 0.932,2.52 1.432,3.944l-2.616,0Z" style="fill:rgb(3,76,117);fill-rule:nonzero;"/>        </g>        <g transform="matrix(4.16667,0,0,4.16667,292.46,287.906)">            <path d="M0,-5.652c-0.193,-0.064 -0.459,-0.131 -0.798,-0.202c-0.339,-0.072 -0.734,-0.106 -1.183,-0.106c-0.257,0 -0.529,0.026 -0.818,0.077c-0.287,0.051 -0.489,0.097 -0.606,0.133l0,8.058l-2.327,0l0,-9.575c0.45,-0.167 1.01,-0.325 1.684,-0.473c0.673,-0.147 1.419,-0.22 2.24,-0.22c0.154,0 0.332,0.01 0.537,0.028c0.205,0.02 0.411,0.045 0.617,0.078c0.204,0.03 0.404,0.07 0.595,0.114c0.192,0.046 0.347,0.086 0.462,0.126l-0.403,1.962Z" style="fill:rgb(3,76,117);fill-rule:nonzero;"/>        </g>        <g transform="matrix(4.16667,0,0,4.16667,294.604,276.532)">            <path d="M0,0.02c0,-0.743 0.115,-1.44 0.348,-2.088c0.23,-0.648 0.558,-1.206 0.99,-1.682c0.427,-0.474 0.95,-0.846 1.567,-1.115c0.613,-0.269 1.306,-0.405 2.075,-0.405c0.949,0 1.846,0.175 2.694,0.52l-0.5,1.904c-0.269,-0.114 -0.576,-0.211 -0.915,-0.288c-0.339,-0.076 -0.7,-0.115 -1.086,-0.115c-0.909,0 -1.602,0.286 -2.077,0.856c-0.475,0.57 -0.711,1.375 -0.711,2.413c0,1 0.225,1.792 0.672,2.374c0.45,0.584 1.207,0.875 2.27,0.875c0.397,0 0.788,-0.037 1.173,-0.115c0.385,-0.077 0.718,-0.172 0.999,-0.288l0.328,1.924c-0.257,0.126 -0.644,0.243 -1.164,0.344c-0.519,0.103 -1.054,0.156 -1.604,0.156c-0.859,0 -1.608,-0.133 -2.241,-0.395c-0.635,-0.263 -1.16,-0.628 -1.579,-1.095c-0.416,-0.47 -0.726,-1.027 -0.931,-1.674c-0.205,-0.648 -0.308,-1.349 -0.308,-2.106" style="fill:rgb(3,76,117);fill-rule:nonzero;"/>        </g>        <g transform="matrix(4.16667,0,0,4.16667,332.775,235.348)">            <path d="M0,14.923l0,-14.539l2.326,-0.384l0,4.98c0.257,-0.089 0.556,-0.165 0.895,-0.23c0.341,-0.064 0.676,-0.097 1.009,-0.097c0.809,0 1.479,0.114 2.01,0.337c0.533,0.225 0.959,0.539 1.279,0.943c0.322,0.404 0.549,0.887 0.684,1.452c0.133,0.564 0.203,1.192 0.203,1.885l0,5.653l-2.33,0l0,-5.289c0,-0.537 -0.034,-0.995 -0.105,-1.373c-0.071,-0.378 -0.186,-0.687 -0.345,-0.925c-0.161,-0.238 -0.375,-0.408 -0.645,-0.519c-0.269,-0.109 -0.602,-0.162 -1,-0.162c-0.308,0 -0.622,0.03 -0.943,0.095c-0.32,0.064 -0.557,0.121 -0.712,0.174l0,7.999l-2.326,0Z" style="fill:rgb(3,76,117);fill-rule:nonzero;"/>        </g>        <g transform="matrix(4.16667,0,0,4.16667,383.708,269.723)">            <path d="M0,0c0,0.73 0.09,1.394 0.269,1.99c0.179,0.596 0.438,1.103 0.778,1.52c0.34,0.418 0.754,0.739 1.241,0.972c0.487,0.23 1.039,0.346 1.653,0.346c0.603,0 1.148,-0.116 1.635,-0.346c0.488,-0.233 0.9,-0.554 1.242,-0.972c0.339,-0.417 0.597,-0.924 0.778,-1.52c0.179,-0.596 0.269,-1.26 0.269,-1.99c0,-0.73 -0.09,-1.394 -0.269,-1.99c-0.181,-0.596 -0.439,-1.103 -0.778,-1.52c-0.342,-0.415 -0.754,-0.739 -1.242,-0.97c-0.487,-0.231 -1.032,-0.348 -1.635,-0.348c-0.614,0 -1.166,0.117 -1.653,0.348c-0.487,0.231 -0.901,0.558 -1.241,0.98c-0.34,0.424 -0.599,0.93 -0.778,1.519c-0.179,0.591 -0.269,1.251 -0.269,1.981m10.404,0c0,1.141 -0.17,2.148 -0.51,3.02c-0.34,0.871 -0.801,1.6 -1.384,2.183c-0.583,0.583 -1.266,1.022 -2.048,1.317c-0.784,0.294 -1.615,0.442 -2.502,0.442c-0.884,0 -1.721,-0.148 -2.508,-0.442c-0.789,-0.295 -1.475,-0.734 -2.058,-1.317c-0.583,-0.583 -1.048,-1.312 -1.395,-2.183c-0.345,-0.872 -0.518,-1.879 -0.518,-3.02c0,-1.141 0.173,-2.144 0.518,-3.01c0.347,-0.864 0.819,-1.593 1.414,-2.182c0.597,-0.589 1.286,-1.031 2.068,-1.328c0.781,-0.294 1.609,-0.442 2.479,-0.442c0.873,0 1.699,0.148 2.483,0.442c0.781,0.297 1.464,0.739 2.047,1.328c0.584,0.589 1.049,1.318 1.394,2.182c0.347,0.866 0.52,1.869 0.52,3.01" style="fill:rgb(3,76,117);fill-rule:nonzero;"/>        </g>        <g transform="matrix(4.16667,0,0,4.16667,445.476,255.623)">            <path d="M0,10.057c-0.643,-1.32 -1.304,-2.838 -1.98,-4.548c-0.676,-1.711 -1.29,-3.549 -1.842,-5.509l2.48,0c0.142,0.562 0.306,1.169 0.492,1.816c0.187,0.648 0.387,1.296 0.598,1.943c0.213,0.648 0.432,1.276 0.657,1.884c0.227,0.609 0.434,1.158 0.628,1.646c0.193,-0.488 0.399,-1.037 0.618,-1.646c0.218,-0.608 0.434,-1.236 0.647,-1.884c0.212,-0.647 0.415,-1.295 0.607,-1.943c0.194,-0.647 0.36,-1.254 0.503,-1.816l2.405,0c-0.554,1.96 -1.169,3.798 -1.845,5.509c-0.676,1.71 -1.335,3.228 -1.978,4.548l-1.99,0Z" style="fill:rgb(3,76,117);fill-rule:nonzero;"/>        </g>        <g transform="matrix(4.16667,0,0,4.16667,498.214,280.708)">            <path d="M0,-1.983c0,-0.32 -0.044,-0.625 -0.135,-0.913c-0.089,-0.287 -0.221,-0.539 -0.394,-0.749c-0.175,-0.213 -0.386,-0.378 -0.635,-0.501c-0.25,-0.121 -0.548,-0.183 -0.893,-0.183c-0.361,0 -0.675,0.068 -0.943,0.203c-0.269,0.134 -0.498,0.311 -0.684,0.529c-0.185,0.216 -0.329,0.466 -0.432,0.75c-0.104,0.28 -0.172,0.57 -0.212,0.864l4.328,0Zm-6.751,1.038c0,-0.884 0.133,-1.66 0.394,-2.326c0.264,-0.666 0.612,-1.221 1.049,-1.664c0.435,-0.442 0.936,-0.774 1.501,-1c0.563,-0.223 1.138,-0.336 1.73,-0.336c1.386,0 2.464,0.43 3.241,1.289c0.774,0.859 1.162,2.14 1.162,3.845c0,0.13 -0.003,0.274 -0.009,0.434c-0.007,0.16 -0.015,0.304 -0.03,0.432l-6.634,0c0.064,0.807 0.351,1.432 0.856,1.874c0.506,0.444 1.241,0.664 2.201,0.664c0.564,0 1.081,-0.05 1.549,-0.153c0.469,-0.103 0.835,-0.211 1.106,-0.327l0.308,1.903c-0.129,0.065 -0.306,0.133 -0.529,0.203c-0.224,0.069 -0.481,0.134 -0.77,0.192c-0.288,0.057 -0.598,0.105 -0.932,0.144c-0.334,0.039 -0.673,0.059 -1.018,0.059c-0.887,0 -1.654,-0.133 -2.309,-0.395c-0.654,-0.264 -1.193,-0.628 -1.616,-1.098c-0.422,-0.466 -0.737,-1.018 -0.942,-1.653c-0.206,-0.633 -0.308,-1.329 -0.308,-2.087" style="fill:rgb(3,76,117);fill-rule:nonzero;"/>        </g>        <g transform="matrix(4.16667,0,0,4.16667,537.114,287.906)">            <path d="M0,-5.652c-0.193,-0.064 -0.458,-0.131 -0.798,-0.202c-0.339,-0.072 -0.734,-0.106 -1.184,-0.106c-0.255,0 -0.528,0.026 -0.816,0.077c-0.289,0.051 -0.49,0.097 -0.606,0.133l0,8.058l-2.328,0l0,-9.575c0.45,-0.167 1.01,-0.325 1.684,-0.473c0.672,-0.147 1.419,-0.22 2.24,-0.22c0.154,0 0.332,0.01 0.538,0.028c0.205,0.02 0.411,0.045 0.616,0.078c0.204,0.03 0.404,0.07 0.595,0.114c0.194,0.046 0.348,0.086 0.462,0.126l-0.403,1.962Z" style="fill:rgb(3,76,117);fill-rule:nonzero;"/>        </g>    </g></svg>