<?xml version="1.0" encoding="UTF-8" standalone="no"?><!DOCTYPE svg PUBLIC "-//W3C//DTD SVG 1.1//EN" "http://www.w3.org/Graphics/SVG/1.1/DTD/svg11.dtd"><svg width="100%" height="100%" viewBox="0 0 1024 512" version="1.1" xmlns="http://www.w3.org/2000/svg" xmlns:xlink="http://www.w3.org/1999/xlink" xml:space="preserve" style="fill-rule:evenodd;clip-rule:evenodd;stroke-linejoin:round;stroke-miterlimit:2;"><title>Liqquid</title><desc>We're a team of entrepreneurs passionate about property, technology and finance. We have experience in real estate investment, fund management, building marketplaces, artificial intelligence and machine learning. For several years, we have been focusing on ways to make the property market more liquid, with a view to benefitting everyone involved, from buyers and sellers to agents, conveyancers, surveyors, brokers and lenders. </desc>    <g transform="matrix(0.966458,0,0,0.966458,-115.117,1.5989)">        <g transform="matrix(0.508842,0,0,0.508842,12.4889,150.569)">            <path d="M366.714,11.312c0,0 146.176,187.961 146.176,270.55c-0,82.589 -67.052,149.64 -149.641,149.64c-82.588,0 -149.64,-67.051 -149.64,-149.64c-0,-82.589 153.105,-270.55 153.105,-270.55Zm-3.465,212.693c31.932,0 57.857,25.925 57.857,57.857c-0,31.932 -25.925,57.856 -57.857,57.856c-31.932,0 -57.856,-25.924 -57.856,-57.856c-0,-31.932 25.924,-57.857 57.856,-57.857Z" style="fill:rgb(1,103,153);"/>        </g>        <g transform="matrix(0.787656,0,0,0.469932,-7.48721,170.671)">            <g transform="matrix(264.899,0,0,444,469.554,365.379)">                <path d="M0.201,-0.681l0,0.582l0.328,0l-0,0.099l-0.443,0l-0,-0.681l0.115,-0Z" style="fill:rgb(1,103,153);fill-rule:nonzero;"/>            </g>            <g transform="matrix(264.899,0,0,444,611.067,365.379)">                <rect x="0.086" y="-0.681" width="0.115" height="0.681" style="fill:rgb(1,103,153);fill-rule:nonzero;"/>            </g>            <g transform="matrix(264.899,0,0,444,693.195,365.379)">                <path d="M0.68,-0.343c-0,0.05 -0.007,0.096 -0.02,0.137c-0.013,0.042 -0.032,0.079 -0.056,0.112l0.095,0.094l-0.072,0.071l-0.097,-0.097c-0.023,0.014 -0.048,0.025 -0.075,0.033c-0.028,0.007 -0.058,0.011 -0.091,0.011c-0.051,-0 -0.095,-0.009 -0.135,-0.027c-0.039,-0.018 -0.071,-0.043 -0.098,-0.074c-0.027,-0.032 -0.047,-0.07 -0.061,-0.114c-0.014,-0.045 -0.021,-0.093 -0.021,-0.146c-0,-0.053 0.007,-0.101 0.021,-0.144c0.014,-0.044 0.034,-0.081 0.061,-0.113c0.027,-0.031 0.059,-0.055 0.098,-0.072c0.04,-0.018 0.084,-0.026 0.135,-0.026c0.05,-0 0.095,0.008 0.134,0.026c0.04,0.017 0.073,0.041 0.099,0.072c0.027,0.032 0.048,0.069 0.062,0.113c0.014,0.043 0.021,0.091 0.021,0.144Zm-0.116,0c-0,-0.041 -0.005,-0.078 -0.015,-0.11c-0.011,-0.032 -0.025,-0.059 -0.043,-0.081c-0.018,-0.022 -0.039,-0.039 -0.063,-0.051c-0.025,-0.011 -0.051,-0.017 -0.079,-0.017c-0.028,-0 -0.054,0.006 -0.079,0.017c-0.024,0.012 -0.045,0.029 -0.063,0.051c-0.018,0.022 -0.032,0.049 -0.042,0.081c-0.01,0.032 -0.015,0.069 -0.015,0.11c0,0.042 0.005,0.079 0.015,0.111c0.01,0.033 0.024,0.06 0.042,0.083c0.018,0.022 0.039,0.04 0.063,0.052c0.025,0.012 0.051,0.018 0.079,0.018c0.017,-0 0.033,-0.002 0.046,-0.005c0.014,-0.003 0.029,-0.009 0.044,-0.018l-0.065,-0.065l0.071,-0.072l0.064,0.064c0.013,-0.021 0.023,-0.046 0.03,-0.073c0.007,-0.028 0.01,-0.059 0.01,-0.095Z" style="fill:rgb(1,103,153);fill-rule:nonzero;"/>            </g>            <g transform="matrix(264.899,0,0,444,886.049,365.379)">                <path d="M0.68,-0.343c-0,0.05 -0.007,0.096 -0.02,0.137c-0.013,0.042 -0.032,0.079 -0.056,0.112l0.095,0.094l-0.072,0.071l-0.097,-0.097c-0.023,0.014 -0.048,0.025 -0.075,0.033c-0.028,0.007 -0.058,0.011 -0.091,0.011c-0.051,-0 -0.095,-0.009 -0.135,-0.027c-0.039,-0.018 -0.071,-0.043 -0.098,-0.074c-0.027,-0.032 -0.047,-0.07 -0.061,-0.114c-0.014,-0.045 -0.021,-0.093 -0.021,-0.146c-0,-0.053 0.007,-0.101 0.021,-0.144c0.014,-0.044 0.034,-0.081 0.061,-0.113c0.027,-0.031 0.059,-0.055 0.098,-0.072c0.04,-0.018 0.084,-0.026 0.135,-0.026c0.05,-0 0.095,0.008 0.134,0.026c0.04,0.017 0.073,0.041 0.099,0.072c0.027,0.032 0.048,0.069 0.062,0.113c0.014,0.043 0.021,0.091 0.021,0.144Zm-0.116,0c-0,-0.041 -0.005,-0.078 -0.015,-0.11c-0.011,-0.032 -0.025,-0.059 -0.043,-0.081c-0.018,-0.022 -0.039,-0.039 -0.063,-0.051c-0.025,-0.011 -0.051,-0.017 -0.079,-0.017c-0.028,-0 -0.054,0.006 -0.079,0.017c-0.024,0.012 -0.045,0.029 -0.063,0.051c-0.018,0.022 -0.032,0.049 -0.042,0.081c-0.01,0.032 -0.015,0.069 -0.015,0.11c0,0.042 0.005,0.079 0.015,0.111c0.01,0.033 0.024,0.06 0.042,0.083c0.018,0.022 0.039,0.04 0.063,0.052c0.025,0.012 0.051,0.018 0.079,0.018c0.017,-0 0.033,-0.002 0.046,-0.005c0.014,-0.003 0.029,-0.009 0.044,-0.018l-0.065,-0.065l0.071,-0.072l0.064,0.064c0.013,-0.021 0.023,-0.046 0.03,-0.073c0.007,-0.028 0.01,-0.059 0.01,-0.095Z" style="fill:rgb(1,103,153);fill-rule:nonzero;"/>            </g>            <g transform="matrix(264.899,0,0,444,1078.9,365.379)">                <path d="M0.201,-0.681l0,0.451c0,0.024 0.004,0.045 0.012,0.064c0.008,0.018 0.018,0.034 0.031,0.047c0.013,0.013 0.028,0.023 0.045,0.029c0.017,0.007 0.035,0.01 0.054,0.01c0.02,0 0.039,-0.003 0.058,-0.009c0.018,-0.006 0.035,-0.015 0.05,-0.028c0.014,-0.012 0.026,-0.028 0.035,-0.046c0.009,-0.019 0.013,-0.04 0.013,-0.065l0,-0.453l0.115,-0l0,0.448c0,0.041 -0.007,0.077 -0.022,0.108c-0.016,0.031 -0.036,0.057 -0.061,0.078c-0.025,0.021 -0.054,0.037 -0.086,0.048c-0.033,0.011 -0.066,0.016 -0.101,0.016c-0.033,0 -0.066,-0.005 -0.097,-0.016c-0.031,-0.01 -0.058,-0.026 -0.082,-0.047c-0.024,-0.021 -0.043,-0.047 -0.058,-0.079c-0.014,-0.032 -0.021,-0.068 -0.021,-0.11l-0,-0.446l0.115,-0Z" style="fill:rgb(1,103,153);fill-rule:nonzero;"/>            </g>            <g transform="matrix(264.899,0,0,444,1264.64,365.379)">                <rect x="0.086" y="-0.681" width="0.115" height="0.681" style="fill:rgb(1,103,153);fill-rule:nonzero;"/>            </g>            <g transform="matrix(245.973,0,0,444,1342.58,365.379)">                <path d="M0.086,-0.681l0.265,-0c0.046,-0 0.089,0.009 0.126,0.026c0.037,0.018 0.069,0.042 0.095,0.073c0.026,0.031 0.046,0.067 0.06,0.108c0.014,0.041 0.021,0.085 0.021,0.132c0,0.049 -0.007,0.094 -0.022,0.136c-0.014,0.042 -0.035,0.078 -0.062,0.108c-0.026,0.031 -0.058,0.055 -0.095,0.072c-0.037,0.017 -0.078,0.026 -0.123,0.026l-0.265,0l-0,-0.681Zm0.115,0.582l0.122,0c0.031,0 0.06,-0.005 0.086,-0.016c0.027,-0.01 0.049,-0.026 0.068,-0.046c0.019,-0.021 0.034,-0.046 0.045,-0.076c0.011,-0.03 0.016,-0.065 0.016,-0.104c0,-0.042 -0.005,-0.078 -0.016,-0.109c-0.011,-0.03 -0.026,-0.056 -0.045,-0.075c-0.019,-0.02 -0.042,-0.035 -0.068,-0.045c-0.027,-0.009 -0.055,-0.014 -0.086,-0.014l-0.122,0l0,0.485Z" style="fill:rgb(1,103,153);fill-rule:nonzero;"/>            </g>        </g>    </g></svg>