<?xml version="1.0" encoding="UTF-8" standalone="no"?><!DOCTYPE svg PUBLIC "-//W3C//DTD SVG 1.1//EN" "http://www.w3.org/Graphics/SVG/1.1/DTD/svg11.dtd"><svg width="100%" height="100%" viewBox="0 0 1024 512" version="1.1" xmlns="http://www.w3.org/2000/svg" xmlns:xlink="http://www.w3.org/1999/xlink" xml:space="preserve" style="fill-rule:evenodd;clip-rule:evenodd;stroke-linejoin:round;stroke-miterlimit:2;"><title>Agrikaab</title><desc>We enable investment in farming projects in East Africa that boost local agriculture and create jobsAgrikaab is a mission-driven startup that enables anyone to invest in African agriculture from their smartphone. We are currently active in Somalia where we provide microloans (murabaha) to farmers, livestock herders and agrifood entrepreneurs.</desc>    <g id="layer102" transform="matrix(1.57162,0,0,1.57109,-2716.23,-423.005)">        <g transform="matrix(2.0869,0,0,1.61253,1614.8,347.081)">            <g transform="matrix(58.2456,0,0,75.4054,55,98.9767)">                <path d="M0.718,0l-0.157,0l-0.062,-0.163l-0.287,0l-0.059,0.163l-0.153,0l0.279,-0.716l0.153,0l0.286,0.716Zm-0.266,-0.283l-0.098,-0.266l-0.097,0.266l0.195,0Z" style="fill:rgb(4,213,94);fill-rule:nonzero;"/>            </g>            <g transform="matrix(58.2456,0,0,75.4054,97.0631,98.9767)">                <path d="M0.406,-0.263l0,-0.121l0.311,0l0,0.285c-0.03,0.03 -0.074,0.055 -0.131,0.078c-0.058,0.022 -0.116,0.033 -0.175,0.033c-0.075,0 -0.14,-0.015 -0.196,-0.047c-0.055,-0.031 -0.097,-0.076 -0.125,-0.135c-0.028,-0.058 -0.042,-0.122 -0.042,-0.19c0,-0.075 0.015,-0.141 0.047,-0.199c0.031,-0.058 0.077,-0.102 0.137,-0.133c0.046,-0.024 0.103,-0.036 0.171,-0.036c0.089,0 0.159,0.019 0.209,0.056c0.05,0.037 0.082,0.089 0.096,0.154l-0.144,0.027c-0.01,-0.035 -0.029,-0.063 -0.056,-0.083c-0.028,-0.02 -0.063,-0.03 -0.105,-0.03c-0.063,0 -0.113,0.02 -0.15,0.06c-0.038,0.04 -0.056,0.099 -0.056,0.178c0,0.085 0.019,0.148 0.056,0.191c0.038,0.042 0.088,0.064 0.149,0.064c0.03,0 0.06,-0.006 0.091,-0.018c0.03,-0.012 0.056,-0.026 0.078,-0.043l0,-0.091l-0.165,0Z" style="fill:rgb(4,213,94);fill-rule:nonzero;"/>            </g>            <g transform="matrix(58.2456,0,0,75.4054,142.368,98.9767)">                <path d="M0.073,0l0,-0.716l0.304,0c0.077,0 0.133,0.007 0.167,0.019c0.035,0.013 0.063,0.036 0.083,0.069c0.021,0.033 0.032,0.071 0.032,0.113c0,0.054 -0.016,0.098 -0.048,0.133c-0.031,0.035 -0.078,0.057 -0.141,0.066c0.031,0.018 0.057,0.038 0.077,0.06c0.02,0.022 0.048,0.061 0.082,0.116l0.088,0.14l-0.173,0l-0.105,-0.156c-0.037,-0.055 -0.062,-0.091 -0.076,-0.105c-0.013,-0.014 -0.028,-0.024 -0.043,-0.03c-0.015,-0.005 -0.04,-0.008 -0.073,-0.008l-0.029,0l0,0.299l-0.145,0Zm0.145,-0.413l0.107,0c0.069,0 0.112,-0.003 0.13,-0.009c0.017,-0.006 0.03,-0.016 0.04,-0.03c0.01,-0.014 0.015,-0.032 0.015,-0.054c0,-0.024 -0.007,-0.043 -0.02,-0.058c-0.012,-0.015 -0.031,-0.024 -0.054,-0.028c-0.012,-0.002 -0.047,-0.003 -0.105,-0.003l-0.113,0l0,0.182Z" style="fill:rgb(4,213,94);fill-rule:nonzero;"/>            </g>            <g transform="matrix(58.2456,0,0,75.4054,184.432,98.9767)">                <rect x="0.068" y="-0.716" width="0.145" height="0.716" style="fill:rgb(4,213,94);fill-rule:nonzero;"/>            </g>            <g transform="matrix(58.2456,0,0,75.4054,200.614,98.9767)">                <path d="M0.075,0l0,-0.716l0.144,0l0,0.318l0.292,-0.318l0.195,0l-0.27,0.279l0.284,0.437l-0.187,0l-0.197,-0.336l-0.117,0.12l0,0.216l-0.144,0Z" style="fill:rgb(4,213,94);fill-rule:nonzero;"/>            </g>            <g transform="matrix(58.2456,0,0,75.4054,242.677,98.9767)">                <path d="M0.718,0l-0.157,0l-0.062,-0.163l-0.287,0l-0.059,0.163l-0.153,0l0.279,-0.716l0.153,0l0.286,0.716Zm-0.266,-0.283l-0.098,-0.266l-0.097,0.266l0.195,0Z" style="fill:rgb(4,213,94);fill-rule:nonzero;"/>            </g>            <g transform="matrix(58.2456,0,0,75.4054,284.74,98.9767)">                <path d="M0.718,0l-0.157,0l-0.062,-0.163l-0.287,0l-0.059,0.163l-0.153,0l0.279,-0.716l0.153,0l0.286,0.716Zm-0.266,-0.283l-0.098,-0.266l-0.097,0.266l0.195,0Z" style="fill:rgb(4,213,94);fill-rule:nonzero;"/>            </g>            <g transform="matrix(58.2456,0,0,75.4054,326.803,98.9767)">                <path d="M0.073,-0.716l0.286,0c0.057,0 0.099,0.003 0.127,0.007c0.028,0.005 0.053,0.015 0.075,0.03c0.022,0.015 0.04,0.035 0.055,0.06c0.014,0.025 0.022,0.052 0.022,0.083c0,0.034 -0.009,0.065 -0.027,0.093c-0.018,0.028 -0.043,0.049 -0.074,0.063c0.044,0.012 0.077,0.034 0.101,0.065c0.023,0.03 0.035,0.066 0.035,0.107c0,0.033 -0.008,0.065 -0.023,0.095c-0.015,0.031 -0.036,0.056 -0.062,0.074c-0.026,0.019 -0.058,0.03 -0.097,0.034c-0.024,0.003 -0.082,0.004 -0.174,0.005l-0.244,0l0,-0.716Zm0.145,0.119l0,0.166l0.094,0c0.057,0 0.092,-0.001 0.105,-0.003c0.025,-0.003 0.045,-0.011 0.059,-0.025c0.014,-0.014 0.021,-0.033 0.021,-0.056c0,-0.022 -0.006,-0.04 -0.018,-0.054c-0.012,-0.014 -0.031,-0.022 -0.055,-0.025c-0.014,-0.002 -0.055,-0.003 -0.123,-0.003l-0.083,0Zm0,0.285l0,0.191l0.134,0c0.052,0 0.085,-0.001 0.099,-0.004c0.021,-0.004 0.039,-0.013 0.052,-0.029c0.014,-0.015 0.02,-0.035 0.02,-0.06c0,-0.022 -0.005,-0.04 -0.015,-0.055c-0.011,-0.015 -0.026,-0.026 -0.045,-0.033c-0.02,-0.007 -0.063,-0.01 -0.129,-0.01l-0.116,0Z" style="fill:rgb(4,213,94);fill-rule:nonzero;"/>            </g>        </g>        <g transform="matrix(0.0839736,0,0,0.0839736,2034.76,336.848)">            <path d="M579.2,1270.4c-19,-5.1 -32.6,-25.1 -30.9,-45.4c1,-11.4 2.2,-13.8 23.5,-46.5c58.5,-89.4 119.3,-160.5 183.7,-214.5c60.5,-50.7 126.3,-86.9 183.5,-100.9c49.4,-12.1 103.5,-17.4 179.2,-17.5c24.1,-0.1 43.8,-0.2 43.8,-0.3c0,-0.5 -24.5,-10.3 -34,-13.5c-81.3,-27.4 -175.5,-28.9 -265.5,-4.3c-17.3,4.7 -38.5,11.7 -52,17.2c-45.5,18.4 -97.6,54.7 -152.2,105.9c-7.2,6.8 -13.4,12.4 -13.7,12.4c-1.5,0 4,-32.9 8.4,-50.5c14.6,-58 37.3,-105 70.8,-147c7.8,-9.8 34.1,-35.8 43.7,-43.2c43.5,-33.9 91.2,-53.5 150,-61.7c43.6,-6.1 98.8,-4.5 154.5,4.5c12.2,2 16.8,2.9 35.5,7c66.4,14.5 147.4,46.4 208.3,82.1c4.5,2.6 8.4,4.8 8.6,4.8c1.1,0 37.4,22.8 50.6,31.7c24.5,16.7 53.9,39.1 68.3,52l3.9,3.4l-2.8,4.2c-15.7,24.1 -47.7,63.9 -74.8,93c-92,98.8 -190.6,160.3 -288.6,180.1c-27.7,5.6 -34.6,6.1 -76.5,6.1c-67,-0.1 -121.8,-6.4 -182.5,-21.1c-32,-7.8 -70.9,-20.9 -89.2,-30c-2.6,-1.3 -5.1,-2.4 -5.6,-2.4c-3.5,0 -45.2,74.8 -81,145c-15.3,30.1 -19,36.1 -25,40.8c-11.3,8.9 -28.1,12.4 -42,8.6Z" style="fill:rgb(4,213,94);fill-rule:nonzero;"/>            <path d="M571,839.9c-50,-24.2 -93.7,-61.8 -122.4,-105.2c-28.9,-43.7 -42.6,-90.8 -42.6,-146.2c0,-59.1 15.7,-118.9 48,-183c30.1,-59.8 67.6,-112.4 119.9,-168.5l6.1,-6.5l3.6,4c8.2,9.2 28.9,35.1 39.6,49.5c52.6,70.8 88.8,141.3 102.7,200c19.4,81.7 6.1,169.4 -37.4,246.5c-9.5,16.9 -24.6,39.5 -35,52.5c-8.3,10.5 -23.2,27 -24.3,27c-0.8,0 -2.3,-3.4 -9.8,-21.8c-32.8,-80.9 -53.8,-192.7 -56.1,-298.5c-0.3,-15.8 -0.9,-28.7 -1.3,-28.7c-0.8,0 -3.8,9.9 -9.6,32.5c-25.5,99.5 -22.7,179.5 10.1,288c3.6,11.7 7.3,23.7 8.4,26.6c1,3 4.5,12.5 7.6,21.2c3.2,8.7 5.5,16 5.3,16.2c-0.2,0.2 -6,-2.3 -12.8,-5.6Z" style="fill:rgb(4,213,94);fill-rule:nonzero;"/>        </g>    </g></svg>