<?xml version="1.0" encoding="UTF-8" standalone="no"?><!DOCTYPE svg PUBLIC "-//W3C//DTD SVG 1.1//EN" "http://www.w3.org/Graphics/SVG/1.1/DTD/svg11.dtd"><svg width="100%" height="100%" viewBox="0 0 1024 512" version="1.1" xmlns="http://www.w3.org/2000/svg" xmlns:xlink="http://www.w3.org/1999/xlink" xml:space="preserve" style="fill-rule:evenodd;clip-rule:evenodd;stroke-linejoin:round;stroke-miterlimit:2;"><title>Crowdinvest.de</title><desc></desc>    <g transform="matrix(1.66016,0,0,1.66016,2,181.21)">        <path d="M142.4,67.3c-12.3,0 -21.6,-9.6 -21.6,-22.3c0,-12.8 9.4,-22.4 21.8,-22.4c8.2,0 12.8,3.1 16.5,6.6l-2.8,3c-3,-2.8 -7.3,-5.9 -13.8,-5.9c-10,0 -17.5,8 -17.5,18.6c0,10.5 7.7,18.7 17.5,18.7c6.3,0 10.2,-2.5 14.2,-6.2l2.6,2.6c-5.2,5.2 -10.1,7.3 -16.9,7.3Z" style="fill:rgb(1,68,95);fill-rule:nonzero;"/>        <path d="M199.2,66.6l-12.8,-17.1l-13.3,0l0,17.1l-4.1,0l0,-43.1l18.5,0c9.4,0 15.5,5 15.5,12.7c0,6.6 -4.2,11.1 -11.6,12.4l-0.7,0.1l13.4,17.9l-4.9,0Zm-26,-20.7l14,0c7.2,0 11.8,-3.8 11.8,-9.6c0,-5.8 -4.4,-9.2 -11.7,-9.2l-14,0l0,18.8l-0.1,0Z" style="fill:rgb(1,68,95);fill-rule:nonzero;"/>        <path d="M234.6,67.3c-12.5,0 -21.9,-9.6 -21.9,-22.3c0,-12.6 9.7,-22.4 22.1,-22.4c12.5,0 21.9,9.6 21.9,22.3c0,12.8 -9.5,22.4 -22.1,22.4Zm0,-40.9c-10.1,0 -17.7,8 -17.7,18.6c0,10.7 7.7,18.7 17.8,18.7c10.1,0 17.7,-8 17.7,-18.6c0,-10.7 -7.7,-18.7 -17.8,-18.7Z" style="fill:rgb(1,68,95);fill-rule:nonzero;"/>        <path d="M306.4,66.9l-12.4,-36.7l-12.5,36.7l-3.5,0l-15.4,-43.5l4.4,0l12.9,37.7l12.4,-37.8l3.5,0l12.4,37.8l12.9,-37.7l4.3,0l-15.5,43.5l-3.5,0Z" style="fill:rgb(1,68,95);fill-rule:nonzero;"/>        <path d="M335.4,66.6l0,-43.1l14.8,0c13.3,0 23,9 23,21.5c0,12.5 -9.7,21.6 -23,21.6l-14.8,0Zm4.1,-3.7l10.8,0c11,0 18.7,-7.3 18.7,-17.8c0,-10.6 -7.7,-18 -18.7,-18l-10.8,0l0,35.8Z" style="fill:rgb(1,68,95);fill-rule:nonzero;"/>        <rect x="384.1" y="22.8" width="7.7" height="44" style="fill:rgb(1,68,95);fill-rule:nonzero;"/>        <path d="M403.6,22.8l7.2,0l23.6,30.5l0,-30.5l7.6,0l0,44l-6.5,0l-24.3,-31.3l0,31.3l-7.6,0l0,-44Z" style="fill:rgb(1,68,95);fill-rule:nonzero;"/>        <path d="M449.5,22.8l8.6,0l13.3,33.9l13.2,-33.9l8.4,0l-18.3,44.4l-6.8,0l-18.4,-44.4Z" style="fill:rgb(1,68,95);fill-rule:nonzero;"/>        <path d="M500.4,22.8l32.7,0l0,6.9l-24.9,0l0,11.5l22.1,0l0,6.9l-22.1,0l0,11.8l25.2,0l0,6.9l-33,0l0,-44Z" style="fill:rgb(1,68,95);fill-rule:nonzero;"/>        <path d="M539.6,60.5l4.7,-5.5c4.2,3.6 8.4,5.7 13.9,5.7c4.8,0 7.8,-2.2 7.8,-5.5l0,-0.1c0,-3.1 -1.8,-4.8 -9.9,-6.7c-9.4,-2.3 -14.7,-5 -14.7,-13.2l0,-0.1c0,-7.6 6.3,-12.8 15,-12.8c6.4,0 11.5,2 16,5.5l-4.2,5.9c-4,-3 -7.9,-4.5 -12,-4.5c-4.5,0 -7.2,2.3 -7.2,5.2l0,0.1c0,3.4 2,4.9 10.4,6.9c9.3,2.3 14.2,5.6 14.2,12.9l0,0.1c0,8.2 -6.5,13.2 -15.7,13.2c-6.6,-0.1 -13,-2.4 -18.3,-7.1Z" style="fill:rgb(1,68,95);fill-rule:nonzero;"/>        <path d="M592.7,30l-14,0l0,-7.2l35.7,0l0,7.2l-14,0l0,36.9l-7.8,0l0.1,-36.9Z" style="fill:rgb(1,68,95);fill-rule:nonzero;"/>        <path d="M95.9,29.4l-45.6,-20.5c-0.9,-0.4 -1.9,-0.4 -2.8,0l-45.5,20.5c-1.2,0.6 -2,1.8 -2,3.1l0,25.1c0,1.3 0.8,2.6 2,3.1l45.6,20.5c0.4,0.2 0.9,0.3 1.4,0.3c0.5,0 1,-0.1 1.4,-0.3l45.6,-20.5c1.2,-0.6 2,-1.8 2,-3.1l0,-25.1c-0.1,-1.3 -0.8,-2.5 -2.1,-3.1Zm-61.9,15.7l14.9,-6.7l14.9,6.7l-14.8,6.7l-15,-6.7Zm35.5,0l21.6,-9.7l0,19.4l-21.6,-9.7Zm19.5,-11.3l-22.3,10l-16.6,-7.5l0,-20.1l38.9,17.6Zm-82.2,1.6l21.6,9.7l-21.6,9.7l0,-19.4Zm2.2,-1.6l38.9,-17.5l0,20.1l-16.6,7.5l-22.3,-10.1Zm41.1,20l16.6,-7.5l22.3,10l-38.9,17.5l0,-20Zm-41.1,2.6l22.3,-10l16.6,7.5l0,20.1l-38.9,-17.6Z" style="fill:rgb(1,68,95);fill-rule:nonzero;"/>    </g></svg>