<?xml version="1.0" encoding="UTF-8" standalone="no"?><!DOCTYPE svg PUBLIC "-//W3C//DTD SVG 1.1//EN" "http://www.w3.org/Graphics/SVG/1.1/DTD/svg11.dtd"><svg width="100%" height="100%" viewBox="0 0 1024 512" version="1.1" xmlns="http://www.w3.org/2000/svg" xmlns:xlink="http://www.w3.org/1999/xlink" xml:space="preserve" style="fill-rule:evenodd;clip-rule:evenodd;stroke-linejoin:round;stroke-miterlimit:2;"><title>Pozyczka Plus</title><desc></desc>    <g transform="matrix(10.9888,0,0,7.1593,-175.49,170.905)">        <g transform="matrix(14.3157,0,0,21.9731,14.7347,17.4444)">            <path d="M0.37,-0.53c0.049,0 0.094,0.011 0.134,0.034c0.04,0.022 0.071,0.053 0.094,0.094c0.023,0.041 0.034,0.087 0.034,0.139c0,0.053 -0.011,0.099 -0.034,0.14c-0.023,0.041 -0.054,0.072 -0.093,0.095c-0.04,0.022 -0.085,0.033 -0.135,0.033c-0.043,0 -0.081,-0.009 -0.115,-0.027c-0.035,-0.017 -0.063,-0.043 -0.085,-0.077l0,0.293l-0.071,0l0,-0.72l0.068,0l0,0.104c0.021,-0.035 0.05,-0.061 0.085,-0.08c0.034,-0.019 0.074,-0.028 0.118,-0.028Zm-0.005,0.472c0.037,0 0.07,-0.009 0.1,-0.026c0.03,-0.017 0.053,-0.041 0.071,-0.072c0.017,-0.031 0.025,-0.067 0.025,-0.107c0,-0.04 -0.008,-0.076 -0.026,-0.106c-0.017,-0.032 -0.04,-0.056 -0.07,-0.073c-0.03,-0.017 -0.063,-0.026 -0.1,-0.026c-0.037,0 -0.071,0.009 -0.1,0.026c-0.03,0.017 -0.053,0.041 -0.071,0.073c-0.017,0.03 -0.025,0.066 -0.025,0.106c0,0.04 0.008,0.076 0.025,0.107c0.018,0.031 0.041,0.056 0.071,0.073c0.029,0.017 0.063,0.025 0.1,0.025Z" style="fill:rgb(35,31,32);fill-rule:nonzero;"/>        </g>        <g transform="matrix(14.3157,0,0,21.9731,24.4407,17.4444)">            <path d="M0.314,0.005c-0.051,0 -0.096,-0.012 -0.137,-0.035c-0.041,-0.022 -0.073,-0.054 -0.096,-0.095c-0.023,-0.041 -0.035,-0.087 -0.035,-0.138c0,-0.051 0.012,-0.097 0.035,-0.138c0.023,-0.041 0.055,-0.072 0.096,-0.095c0.041,-0.023 0.086,-0.034 0.137,-0.034c0.051,0 0.096,0.011 0.137,0.034c0.041,0.023 0.072,0.054 0.095,0.095c0.023,0.041 0.035,0.087 0.035,0.138c0,0.051 -0.012,0.097 -0.035,0.138c-0.023,0.041 -0.054,0.073 -0.095,0.096c-0.041,0.022 -0.086,0.034 -0.137,0.034Zm0,-0.063c0.037,0 0.071,-0.009 0.1,-0.026c0.03,-0.017 0.053,-0.041 0.07,-0.072c0.017,-0.031 0.025,-0.067 0.025,-0.107c0,-0.04 -0.008,-0.076 -0.025,-0.107c-0.017,-0.031 -0.04,-0.055 -0.069,-0.073c-0.03,-0.017 -0.064,-0.025 -0.101,-0.025c-0.037,0 -0.071,0.009 -0.1,0.026c-0.03,0.017 -0.053,0.041 -0.07,0.072c-0.017,0.031 -0.026,0.067 -0.026,0.107c0,0.04 0.009,0.076 0.026,0.107c0.017,0.031 0.04,0.056 0.07,0.073c0.029,0.017 0.063,0.025 0.1,0.025Z" style="fill:rgb(35,31,32);fill-rule:nonzero;"/>        </g>        <g transform="matrix(14.3157,0,0,21.9731,33.2878,17.4444)">            <path d="M0.47,-0.059l0,0.059l-0.428,0l0,-0.047l0.331,-0.419l-0.325,0l0,-0.06l0.416,0l0,0.047l-0.331,0.42l0.337,0Zm-0.214,-0.572c-0.013,0 -0.025,-0.005 -0.034,-0.014c-0.009,-0.009 -0.014,-0.021 -0.014,-0.034c0,-0.013 0.005,-0.025 0.014,-0.034c0.009,-0.009 0.021,-0.014 0.034,-0.014c0.013,0 0.025,0.005 0.034,0.014c0.009,0.009 0.014,0.021 0.014,0.034c0,0.013 -0.005,0.025 -0.014,0.034c-0.009,0.009 -0.021,0.014 -0.034,0.014Z" style="fill:rgb(35,31,32);fill-rule:nonzero;"/>        </g>        <g transform="matrix(14.3157,0,0,21.9731,40.46,17.4444)">            <path d="M0.541,-0.526l-0.263,0.589c-0.021,0.049 -0.046,0.084 -0.074,0.105c-0.028,0.021 -0.062,0.031 -0.101,0.031c-0.025,0 -0.049,-0.004 -0.071,-0.012c-0.022,-0.008 -0.041,-0.02 -0.057,-0.036l0.033,-0.053c0.027,0.027 0.059,0.04 0.096,0.04c0.024,0 0.044,-0.007 0.062,-0.02c0.016,-0.013 0.032,-0.036 0.047,-0.068l0.023,-0.051l-0.235,-0.525l0.074,0l0.198,0.447l0.198,-0.447l0.07,0Z" style="fill:rgb(35,31,32);fill-rule:nonzero;"/>        </g>        <g transform="matrix(14.3157,0,0,21.9731,48.0043,17.4444)">            <path d="M0.317,0.005c-0.052,0 -0.099,-0.011 -0.14,-0.034c-0.041,-0.023 -0.073,-0.055 -0.096,-0.096c-0.023,-0.041 -0.035,-0.087 -0.035,-0.138c0,-0.051 0.012,-0.097 0.035,-0.138c0.023,-0.041 0.055,-0.072 0.097,-0.095c0.041,-0.023 0.087,-0.034 0.139,-0.034c0.045,0 0.086,0.009 0.122,0.026c0.035,0.018 0.063,0.044 0.084,0.078l-0.053,0.036c-0.017,-0.026 -0.039,-0.045 -0.066,-0.058c-0.027,-0.014 -0.056,-0.02 -0.087,-0.02c-0.038,0 -0.072,0.009 -0.103,0.026c-0.03,0.017 -0.053,0.041 -0.07,0.072c-0.017,0.031 -0.026,0.067 -0.026,0.107c0,0.041 0.009,0.077 0.026,0.108c0.017,0.031 0.04,0.055 0.071,0.072c0.03,0.017 0.064,0.025 0.102,0.025c0.031,0 0.06,-0.006 0.087,-0.019c0.027,-0.013 0.049,-0.032 0.066,-0.058l0.053,0.036c-0.021,0.034 -0.049,0.06 -0.085,0.078c-0.036,0.017 -0.076,0.026 -0.121,0.026Z" style="fill:rgb(35,31,32);fill-rule:nonzero;"/>        </g>        <g transform="matrix(14.3157,0,0,21.9731,55.9495,17.4444)">            <path d="M0.47,-0.059l0,0.059l-0.428,0l0,-0.047l0.331,-0.419l-0.325,0l0,-0.06l0.416,0l0,0.047l-0.331,0.42l0.337,0Z" style="fill:rgb(35,31,32);fill-rule:nonzero;"/>        </g>        <g transform="matrix(14.3157,0,0,21.9731,63.2649,17.4444)">            <path d="M0.294,-0.264l-0.124,0.114l0,0.15l-0.071,0l0,-0.742l0.071,0l0,0.503l0.314,-0.287l0.088,0l-0.225,0.215l0.246,0.311l-0.087,0l-0.212,-0.264Z" style="fill:rgb(35,31,32);fill-rule:nonzero;"/>        </g>        <g transform="matrix(14.3157,0,0,21.9731,71.7254,17.4444)">            <path d="M0.283,-0.53c0.069,0 0.121,0.017 0.158,0.051c0.037,0.035 0.055,0.086 0.055,0.153l0,0.326l-0.068,0l0,-0.082c-0.016,0.027 -0.04,0.049 -0.071,0.064c-0.031,0.015 -0.067,0.023 -0.11,0.023c-0.059,0 -0.105,-0.014 -0.14,-0.042c-0.035,-0.028 -0.052,-0.065 -0.052,-0.111c0,-0.045 0.016,-0.081 0.048,-0.108c0.033,-0.027 0.084,-0.041 0.155,-0.041l0.167,0l0,-0.032c0,-0.045 -0.013,-0.08 -0.038,-0.103c-0.025,-0.024 -0.062,-0.036 -0.111,-0.036c-0.033,0 -0.065,0.006 -0.096,0.017c-0.031,0.011 -0.057,0.026 -0.079,0.045l-0.032,-0.053c0.027,-0.023 0.059,-0.04 0.096,-0.052c0.037,-0.013 0.077,-0.019 0.118,-0.019Zm-0.025,0.479c0.04,0 0.074,-0.009 0.103,-0.027c0.029,-0.019 0.05,-0.045 0.064,-0.08l0,-0.086l-0.165,0c-0.09,0 -0.135,0.031 -0.135,0.094c0,0.031 0.012,0.055 0.035,0.073c0.023,0.017 0.056,0.026 0.098,0.026Z" style="fill:rgb(35,31,32);fill-rule:nonzero;"/>        </g>        <g transform="matrix(0.17992,0,0,0.276158,38.4453,-8.30126)">            <path d="M272.2,60.7l0,39.7l6.6,0l0,-16.6l0.1,0c1.7,2.7 5,4.2 8.8,4.2c8,0 13,-6.4 13,-14.1c0,-7.8 -5.3,-13.9 -12.8,-13.9c-4.9,0 -7.8,2.4 -9.1,4.4l-0.2,0l0,-3.7l-6.4,0Zm14.1,4.9c5.1,0 7.6,4.3 7.6,8.5c0,4.2 -2.5,8.6 -7.6,8.6c-4.9,0 -7.8,-4.3 -7.8,-8.5c0,-4.3 3,-8.6 7.8,-8.6Z" style="fill:rgb(255,137,0);fill-rule:nonzero;"/>        </g>        <g transform="matrix(0.17992,0,0,0.276158,38.4453,-8.30126)">            <rect x="307" y="45.8" width="6.6" height="41.6" style="fill:rgb(255,137,0);"/>        </g>        <g transform="matrix(0.17992,0,0,0.276158,38.4453,-8.30126)">            <path d="M345.7,87.3l0,-26.4l-6.7,0l0,14.5c0,3.5 -1.9,7.2 -6.2,7.2c-4.2,0 -5,-3.9 -5,-7.1l0,-14.6l-6.6,0l0,16.4c0,5.4 2.8,10.7 9.7,10.7c3.9,0 7.1,-2.4 8.2,-5l0.1,0l0,4.2c0.1,0 6.5,0 6.5,0.1Z" style="fill:rgb(255,137,0);fill-rule:nonzero;"/>        </g>        <g transform="matrix(0.17992,0,0,0.276158,38.4453,-8.30126)">            <path d="M362.3,65.2c2.4,0 4.6,1.3 5.7,2.8l4.2,-3.8c-2.1,-2.7 -6.1,-4 -9.9,-4c-5.2,0 -10.5,2.6 -10.5,8.4c0,5 3.9,6.5 7.8,7.4c4,1 6,1.6 6,3.8c0,2.4 -2.3,3.1 -4.2,3.1c-2.8,0 -5.3,-1.4 -6.7,-3.3l-4.3,4.1c2.6,2.8 6.7,4.3 10.8,4.3c5.7,0 11,-2.4 11,-8.8c0,-5.1 -4.6,-6.9 -8.5,-7.9c-3.7,-0.9 -5.7,-1.4 -5.7,-3.4c0,-2.1 2.2,-2.7 4.3,-2.7Z" style="fill:rgb(255,137,0);fill-rule:nonzero;"/>        </g>        <g transform="matrix(0.17992,0,0,0.276158,38.4453,-8.30126)">            <path d="M373.8,25.7c-0.7,-0.8 -1.8,-1.3 -2.9,-1.3c-2.1,0 -3.9,1.8 -3.9,3.9c0,1 0.4,1.9 1,2.6c10.4,11.7 16.2,26.6 16.2,42.3c0,34.9 -28.4,63.3 -63.3,63.3c-34.9,0 -63.4,-28.5 -63.4,-63.4c0,-34.9 28.5,-63.3 63.3,-63.3c5.6,0 11.1,0.7 16.4,2.1c0.4,0.1 0.6,0.2 1,0.2c2.1,0 3.9,-1.8 3.9,-3.9c0,-1.8 -1.2,-3.3 -2.8,-3.7c-6,-1.6 -12.2,-2.5 -18.3,-2.5c-39.2,0 -71.1,31.9 -71.1,71.1c0,39.2 31.9,71.1 71.1,71.1c39.2,0 71,-31.8 71,-71c0,-17.6 -6.5,-34.5 -18.2,-47.5Z" style="fill:rgb(255,137,0);fill-rule:nonzero;"/>        </g>        <g transform="matrix(0.17992,0,0,0.276158,38.4453,-8.30126)">            <path d="M346.5,22.2l4.6,0l0,4.6c0,2.1 1.8,3.9 3.9,3.9c2.1,0 3.9,-1.8 3.9,-3.9l0,-4.6l4.6,0c2.1,0 3.9,-1.8 3.9,-3.9c0,-2.1 -1.8,-3.9 -3.9,-3.9l-4.6,0l0,-4.6c0,-2.1 -1.8,-3.9 -3.9,-3.9c-2.1,0 -3.9,1.8 -3.9,3.9l0,4.6l-4.6,0c-2.1,0 -3.9,1.8 -3.9,3.9c0.1,2 1.7,3.9 3.9,3.9Z" style="fill:rgb(255,137,0);fill-rule:nonzero;"/>        </g>    </g></svg>