<?xml version="1.0" encoding="UTF-8" standalone="no"?><!DOCTYPE svg PUBLIC "-//W3C//DTD SVG 1.1//EN" "http://www.w3.org/Graphics/SVG/1.1/DTD/svg11.dtd"><svg width="100%" height="100%" viewBox="0 0 1024 512" version="1.1" xmlns="http://www.w3.org/2000/svg" xmlns:xlink="http://www.w3.org/1999/xlink" xml:space="preserve" style="fill-rule:evenodd;clip-rule:evenodd;stroke-linejoin:round;stroke-miterlimit:2;"><title>CrossLend</title><desc>CrossLend is a B2B digital debt marketplace, Flexible, transparent, real-time capital markets access for institutional investors and originatorsWe offer a technology-driven platform, connecting loan originators and institutional investors across borders and asset classes.</desc>    <g transform="matrix(5.1,0,0,5.1,1.99994,169.293)">        <g transform="matrix(1,0,0,1,-1.68052,-2.36703)">            <path d="M44.126,11.72l19.035,0c0.001,0 0.003,0 0.004,0c0.357,0 0.65,0.293 0.65,0.65c0,0.063 -0.009,0.125 -0.027,0.186l-0.686,1.986c-0.083,0.279 -0.342,0.472 -0.633,0.472l-18.858,0.006l0.515,-3.3Zm-0.033,15.434l16.128,-0.007c0.25,0 0.47,-0.192 0.54,-0.473l0.588,-1.98c0.105,-0.418 -0.163,-0.836 -0.536,-0.836l-16.286,0l-0.434,3.296Zm0.761,-6.16l21.806,-0.006c0.338,0 0.636,-0.192 0.731,-0.473l0.79,-1.978c0.143,-0.419 -0.22,-0.837 -0.724,-0.837l-22.017,0l-0.586,3.294Zm-34.678,14.007l-0.017,0c-0.215,0.009 -8.017,-0.025 -8.017,-0.025c-0.254,-0.002 -0.461,-0.211 -0.461,-0.465c0,-0.028 0.002,-0.055 0.007,-0.082l0.535,-2.939c0.04,-0.22 0.235,-0.382 0.459,-0.381l7.218,0.026c6.406,-0.072 11.637,-5.362 11.637,-11.768c0,-6.329 -5.106,-11.583 -11.433,-11.765l-3.137,0c0,0 0,0 0,0c-0.255,0 -0.464,-0.209 -0.464,-0.464c0,-0.028 0.002,-0.056 0.007,-0.084c0.149,-0.799 0.42,-2.26 0.547,-2.948c0.042,-0.218 0.233,-0.377 0.454,-0.378c1.115,0 2.327,-0.007 2.425,0c5.262,0.154 10.105,2.951 12.868,7.432c0.145,0.23 0.422,0.342 0.686,0.278c0.168,-0.042 0.313,-0.15 0.401,-0.3c2.849,-4.608 7.895,-7.42 13.313,-7.418l11.857,0c0.255,0 0.465,0.21 0.465,0.465c0,0.028 -0.003,0.056 -0.008,0.083l-0.54,2.953c-0.04,0.219 -0.233,0.38 -0.456,0.381l-11.372,0.005l-0.017,0c-6.306,0.21 -11.378,5.454 -11.378,11.763c0,6.449 5.3,11.759 11.75,11.769l0.026,0l15.897,-0.051c0.253,0.002 0.46,0.211 0.46,0.464c0,0.028 -0.003,0.056 -0.007,0.083l-0.549,3.001c-0.041,0.219 -0.234,0.381 -0.458,0.381l-15.328,0c-0.017,-0.002 -0.035,-0.002 -0.053,0l-0.025,0l-0.265,0c-5.428,0.003 -10.483,-2.819 -13.328,-7.442c-0.114,-0.184 -0.317,-0.297 -0.534,-0.297c-0.217,0 -0.42,0.113 -0.534,0.297c-2.716,4.413 -7.455,7.198 -12.631,7.426Z" style="fill:rgb(41,24,63);fill-rule:nonzero;"/>        </g>        <g transform="matrix(1,0,0,1,-1.68052,-2.36703)">            <path d="M87.257,25.26c-0.477,0.441 -1.001,0.827 -1.562,1.153c-0.794,0.463 -1.659,0.79 -2.561,0.967c-0.276,0.054 -0.555,0.086 -0.836,0.093c-1.428,0.041 -2.671,-0.158 -3.731,-0.598c-0.919,-0.369 -1.744,-0.939 -2.415,-1.668c-0.649,-0.718 -1.14,-1.564 -1.441,-2.485c-0.322,-0.984 -0.482,-2.015 -0.474,-3.051c-0.002,-1.006 0.176,-2.004 0.527,-2.947c0.336,-0.92 0.842,-1.769 1.493,-2.502c0.649,-0.727 1.44,-1.313 2.324,-1.724c0.909,-0.425 1.931,-0.638 3.066,-0.639c0.782,-0.011 1.56,0.104 2.306,0.338c0.65,0.21 1.275,0.49 1.864,0.836c0.519,0.303 0.996,0.674 1.419,1.101c0.357,0.363 0.684,0.754 0.976,1.171l-2.449,1.845c-0.211,-0.259 -0.436,-0.507 -0.674,-0.743c-0.27,-0.266 -0.567,-0.504 -0.887,-0.708c-0.347,-0.221 -0.722,-0.394 -1.114,-0.515c-0.455,-0.136 -0.928,-0.202 -1.402,-0.195c-0.592,-0.012 -1.178,0.128 -1.701,0.405c-0.989,0.535 -1.733,1.432 -2.076,2.502c-0.175,0.526 -0.265,1.078 -0.267,1.633c0,1.562 0.39,2.756 1.171,3.584c0.781,0.827 1.811,1.241 3.088,1.243c0.83,0.011 1.647,-0.211 2.357,-0.64c0.728,-0.452 1.381,-1.017 1.934,-1.672l2.307,1.846c-0.372,0.494 -0.788,0.952 -1.242,1.37Z" style="fill:rgb(41,24,63);fill-rule:nonzero;"/>        </g>        <g transform="matrix(1,0,0,1,-1.68052,-2.36703)">            <path d="M100.21,15.802c-0.339,-0.252 -0.715,-0.449 -1.114,-0.586c-0.328,-0.104 -0.669,-0.158 -1.012,-0.159c-0.947,0 -1.721,0.396 -2.322,1.189c-0.602,0.792 -0.906,1.898 -0.914,3.318l0,7.488l-3.403,0l0,-14.764l3.403,0l0,1.775c1.065,-1.467 2.39,-2.201 3.975,-2.201c0.527,-0.011 1.051,0.079 1.544,0.266c0.438,0.178 0.124,0.044 0.413,0.195l-0.57,3.479Z" style="fill:rgb(41,24,63);fill-rule:nonzero;"/>        </g>        <g transform="matrix(1,0,0,1,-1.68052,-2.36703)">            <path d="M117.709,19.422c0.007,1.071 -0.18,2.135 -0.551,3.141c-0.348,0.951 -0.879,1.825 -1.562,2.573c-0.672,0.732 -1.487,1.318 -2.396,1.721c-0.973,0.424 -2.025,0.636 -3.087,0.621c-1.031,0.011 -2.056,-0.176 -3.017,-0.55c-0.9,-0.351 -1.712,-0.896 -2.377,-1.597c-0.68,-0.723 -1.211,-1.574 -1.563,-2.502c-0.378,-0.971 -0.567,-2.059 -0.567,-3.265c-0.002,-0.981 0.172,-1.955 0.514,-2.875c0.334,-0.907 0.833,-1.743 1.474,-2.467c0.651,-0.732 1.449,-1.319 2.342,-1.724c0.922,-0.425 1.963,-0.638 3.123,-0.639c2.083,-0.034 4.092,0.788 5.554,2.272c0.678,0.692 1.209,1.514 1.562,2.416c0.365,0.914 0.552,1.89 0.551,2.875Zm-3.408,0.213c0,-1.443 -0.382,-2.579 -1.145,-3.407c-0.764,-0.828 -1.802,-1.242 -3.115,-1.242c-0.592,-0.011 -1.179,0.11 -1.719,0.354c-0.49,0.228 -0.924,0.562 -1.271,0.976c-0.354,0.43 -0.621,0.924 -0.786,1.455c-0.183,0.58 -0.274,1.185 -0.269,1.793c0,1.491 0.352,2.662 1.055,3.513c0.704,0.851 1.689,1.277 2.955,1.279c0.762,0 1.412,-0.119 1.95,-0.356c0.516,-0.22 0.97,-0.561 1.326,-0.993c0.356,-0.446 0.617,-0.959 0.769,-1.509c0.171,-0.606 0.255,-1.234 0.25,-1.863Z" style="fill:rgb(41,24,63);fill-rule:nonzero;"/>        </g>        <rect x="144.882" y="4.105" width="3.407" height="20.581" style="fill:rgb(41,24,63);"/>        <g transform="matrix(1,0,0,1,-1.68052,-2.36703)">            <path d="M156.713,20.096c0.019,0.574 0.139,1.14 0.354,1.672c0.202,0.505 0.504,0.963 0.888,1.348c0.392,0.387 0.855,0.693 1.364,0.901c0.557,0.23 1.155,0.345 1.757,0.338c1.159,0 2.1,-0.166 2.821,-0.497c0.748,-0.348 1.456,-0.776 2.111,-1.278l2.058,2.13c-0.914,0.799 -1.936,1.469 -3.034,1.988c-1.1,0.52 -2.432,0.78 -3.995,0.78c-1.037,0.009 -2.067,-0.177 -3.035,-0.55c-0.915,-0.353 -1.751,-0.884 -2.461,-1.562c-0.722,-0.699 -1.285,-1.547 -1.65,-2.484c-0.394,-0.981 -0.591,-2.099 -0.591,-3.353c-0.008,-1.038 0.181,-2.068 0.558,-3.035c0.355,-0.91 0.892,-1.737 1.579,-2.431c0.688,-0.692 1.506,-1.24 2.407,-1.615c0.968,-0.399 2.007,-0.599 3.054,-0.586c1.044,-0.014 2.079,0.198 3.035,0.621c0.89,0.4 1.687,0.98 2.341,1.704c0.671,0.755 1.184,1.636 1.509,2.591c0.365,1.068 0.545,2.19 0.532,3.318l-11.602,0Zm6.477,-4.525c-0.698,-0.462 -1.521,-0.692 -2.467,-0.692c-0.97,0 -1.816,0.237 -2.537,0.71c-0.699,0.44 -1.192,1.144 -1.367,1.951l7.808,0c-0.228,-0.807 -0.738,-1.505 -1.437,-1.969Z" style="fill:rgb(41,24,63);fill-rule:nonzero;"/>        </g>        <g transform="matrix(1,0,0,1,-1.68052,-2.36703)">            <path d="M181.166,27.052l0,-8.98c0,-0.899 -0.222,-1.639 -0.666,-2.218c-0.444,-0.58 -1.146,-0.87 -2.106,-0.869c-0.632,0 -1.164,0.13 -1.597,0.39c-0.42,0.249 -0.78,0.589 -1.053,0.994c-0.27,0.406 -0.466,0.856 -0.578,1.331c-0.114,0.458 -0.172,0.929 -0.175,1.401l0,7.951l-3.409,0l0,-14.764l3.407,0l-0.036,1.775c0.453,-0.692 1.076,-1.254 1.811,-1.633c0.734,-0.379 1.55,-0.574 2.377,-0.568c1.585,0 2.886,0.467 3.901,1.403c1.016,0.935 1.525,2.325 1.527,4.17l0,9.617l-3.403,0Z" style="fill:rgb(41,24,63);fill-rule:nonzero;"/>        </g>        <g transform="matrix(1,0,0,1,-1.68052,-2.36703)">            <path d="M198.273,6.472l0,7.378c-1.085,-1.325 -2.476,-1.988 -4.174,-1.988c-0.912,-0.013 -1.815,0.188 -2.635,0.586c-0.792,0.391 -1.492,0.947 -2.052,1.629c-0.594,0.728 -1.05,1.558 -1.345,2.449c-0.324,0.979 -0.485,2.004 -0.476,3.035c-0.006,1.031 0.156,2.055 0.478,3.034c0.295,0.915 0.752,1.77 1.349,2.523c0.562,0.708 1.263,1.293 2.059,1.722c0.814,0.43 1.723,0.65 2.644,0.638c1.017,0 1.875,-0.207 2.573,-0.621c0.698,-0.413 1.236,-0.892 1.614,-1.437l-0.035,1.632l3.408,0l0,-20.58l-3.408,0Zm0.018,14.919c-0.163,0.55 -0.421,1.067 -0.763,1.527c-0.323,0.43 -0.735,0.787 -1.208,1.047c-0.994,0.514 -2.177,0.521 -3.177,0.017c-0.459,-0.247 -0.859,-0.592 -1.17,-1.011c-0.331,-0.448 -0.578,-0.954 -0.729,-1.491c-0.33,-1.16 -0.33,-2.389 0,-3.549c0.153,-0.541 0.4,-1.052 0.729,-1.508c0.31,-0.429 0.709,-0.786 1.17,-1.047c0.496,-0.268 1.052,-0.403 1.616,-0.39c0.551,-0.01 1.096,0.124 1.579,0.39c0.461,0.26 0.865,0.61 1.189,1.029c0.339,0.442 0.597,0.941 0.763,1.473c0.177,0.556 0.267,1.137 0.266,1.721c0.002,0.608 -0.088,1.212 -0.265,1.792Z" style="fill:rgb(41,24,63);fill-rule:nonzero;"/>        </g>        <g transform="matrix(1,0,0,1,-1.68052,-2.36703)">            <path d="M129.162,19.688c-0.418,-0.394 -0.881,-0.74 -1.378,-1.029c-0.506,-0.295 -0.995,-0.562 -1.465,-0.799c-0.658,-0.33 -1.215,-0.632 -1.672,-0.905c-0.456,-0.272 -0.686,-0.609 -0.688,-1.011c0,-0.473 0.177,-0.781 0.532,-0.924c0.362,-0.143 0.747,-0.215 1.136,-0.212c0.516,0.013 1.029,0.091 1.526,0.231c0.61,0.162 1.187,0.433 1.703,0.798l0.214,-0.412l0.486,-2.669c-0.546,-0.303 -1.135,-0.52 -1.747,-0.645c-0.764,-0.158 -1.542,-0.241 -2.322,-0.249c-0.655,-0.005 -1.305,0.103 -1.923,0.319c-0.569,0.198 -1.098,0.499 -1.558,0.888c-0.583,0.492 -1.028,1.128 -1.291,1.845c-0.098,0.27 -0.153,0.554 -0.163,0.842c-0.035,0.872 0.104,1.591 0.418,2.156c0.276,0.5 0.641,0.946 1.077,1.314c0.442,0.372 0.929,0.687 1.448,0.94c0.529,0.261 1.029,0.509 1.5,0.743c0.549,0.278 1.074,0.598 1.571,0.958c0.4,0.285 0.631,0.751 0.617,1.242c-0.011,0.434 -0.269,0.825 -0.663,1.006c-0.392,0.183 -0.821,0.276 -1.253,0.272c-0.403,0 -0.929,-0.106 -1.58,-0.319c-0.692,-0.235 -1.335,-0.595 -1.898,-1.061l-1.673,2.52c1.538,1.254 3.313,1.88 5.324,1.88c0.698,0.006 1.39,-0.114 2.044,-0.355c0.602,-0.218 1.159,-0.543 1.646,-0.958c0.457,-0.39 0.824,-0.874 1.076,-1.419c0.249,-0.545 0.376,-1.139 0.372,-1.739c0.015,-0.644 -0.125,-1.283 -0.406,-1.863c-0.255,-0.516 -0.597,-0.984 -1.01,-1.385Z" style="fill:rgb(41,24,63);fill-rule:nonzero;"/>        </g>        <g transform="matrix(1,0,0,1,-1.68052,-2.36703)">            <path d="M141.725,19.688c-0.417,-0.394 -0.879,-0.74 -1.376,-1.029c-0.507,-0.295 -0.995,-0.562 -1.465,-0.799c-0.659,-0.33 -1.216,-0.632 -1.673,-0.905c-0.456,-0.272 -0.685,-0.609 -0.688,-1.011c0,-0.473 0.178,-0.781 0.532,-0.924c0.362,-0.142 0.747,-0.215 1.136,-0.212c0.516,0.013 1.029,0.091 1.526,0.231c0.59,0.159 1.148,0.418 1.65,0.766l0.571,-3.141c-0.493,-0.256 -1.02,-0.444 -1.564,-0.557c-0.765,-0.158 -1.542,-0.241 -2.323,-0.249c-0.654,-0.005 -1.305,0.103 -1.923,0.32c-0.569,0.197 -1.096,0.498 -1.557,0.887c-0.584,0.496 -1.027,1.137 -1.287,1.858c-0.096,0.269 -0.15,0.551 -0.16,0.836c-0.035,0.871 0.104,1.589 0.418,2.154c0.272,0.5 0.634,0.945 1.067,1.314c0.442,0.371 0.928,0.687 1.447,0.94c0.529,0.261 1.029,0.509 1.5,0.743c0.548,0.277 1.074,0.598 1.571,0.958c0.4,0.284 0.632,0.751 0.618,1.242c-0.012,0.434 -0.27,0.825 -0.664,1.006c-0.392,0.183 -0.82,0.276 -1.253,0.272c-0.402,0 -0.929,-0.106 -1.579,-0.319c-0.692,-0.236 -1.336,-0.597 -1.898,-1.065l-1.672,2.52c1.538,1.254 3.312,1.881 5.323,1.881c0.697,0.005 1.39,-0.115 2.044,-0.355c0.602,-0.219 1.159,-0.544 1.647,-0.959c0.462,-0.387 0.834,-0.871 1.09,-1.416c0.25,-0.545 0.377,-1.139 0.372,-1.739c0.015,-0.644 -0.124,-1.283 -0.406,-1.863c-0.259,-0.517 -0.605,-0.986 -1.024,-1.385Z" style="fill:rgb(41,24,63);fill-rule:nonzero;"/>        </g>    </g></svg>