<?xml version="1.0" encoding="UTF-8" standalone="no"?><!DOCTYPE svg PUBLIC "-//W3C//DTD SVG 1.1//EN" "http://www.w3.org/Graphics/SVG/1.1/DTD/svg11.dtd"><svg width="100%" height="100%" viewBox="0 0 1024 512" version="1.1" xmlns="http://www.w3.org/2000/svg" xmlns:xlink="http://www.w3.org/1999/xlink" xml:space="preserve" style="fill-rule:evenodd;clip-rule:evenodd;stroke-linejoin:round;stroke-miterlimit:2;"><title>gofingo UA</title><desc>Gofingo.com.ua (the private holding company – Gofingo, LLC) from Ukraine offers to earn net annual return of 12% for loans listed in Eur on PeerBerry. Their key to successful business is a team of specialists who have many years of international experience. They have managed to create a well-trusted company which uses the newest IT solutions and provides a super-fast loan issuing services”. Gofingo.com.ue which was established in September of 2018, issues loans from 1 to 30 days to meet borrowers’ most urgent needs.  Taking into consideration legal requirements, investors are able to obtain exposure to Gofingo.com.ue loans by investing in loans issued by Gofingo, LLC.  Loan originator offers a buyback guarantee for all loans that are late for more than 60 days. Key figures of Gofingo.com.ua Amount of issued loans in 2019 II Q: 4 483 173 EUR; Revenue in 2019 II Q: 2 115 707 EUR; Active portfolio in 2019 II Q (where overdue is less than 90 days): 1 822 213 EUR</desc>    <g transform="matrix(2.04004,0,0,2.04004,2.00064,126.418)">        <g>            <path d="M218.82,1.145c5.271,-1.4 10.812,-1.435 16.1,-0.1c-1.13,4.33 -2.12,8.7 -3.31,13c-3.64,-1 -7.84,-1.41 -11.15,0.76c-3.94,2.53 -5.56,7.24 -6.46,11.66c-4.45,24.62 -8.62,49.29 -13.08,73.91c-3.55,-4.64 -6.58,-9.65 -10,-14.38c-0.67,-1.08 -1.78,-2.15 -1.47,-3.53c0.65,-4.45 1.56,-8.87 2.17,-13.34c-4.06,-0.14 -8.13,0 -12.19,-0.09c-2.73,-4.09 -5.6,-8.09 -8.21,-12.26c7.56,-0.15 15.11,0 22.67,-0.06c0.49,-3.13 1.09,-6.25 1.54,-9.38c-10,-0.08 -19.92,0 -29.87,0c-0.91,0.12 -1.4,-0.74 -1.87,-1.35c-2.5,-3.673 -5.027,-7.34 -7.58,-11c13.77,-0.1 27.54,0 41.31,0c1.41,-7.27 2.52,-14.8 6.23,-21.34c3.106,-6.085 8.604,-10.615 15.17,-12.5Z" style="fill:rgb(114,203,225);fill-rule:nonzero;"/>            <path d="M294.27,37.395c5.88,-4.14 13.57,-5 20.47,-3.42c5.138,1.129 9.554,4.408 12.12,9c2.89,5.24 3,11.54 1.85,17.29c-2.38,13.24 -4.67,26.49 -7.06,39.72c-5.26,0 -10.52,0.06 -15.78,0c1.73,-10.38 3.59,-20.75 5.38,-31.12c0.71,-4.35 1.82,-8.74 1.33,-13.19c-0.179,-2.879 -1.651,-5.527 -4,-7.2c-2.6,-1.63 -5.84,-1.83 -8.82,-1.49c-4.041,0.579 -7.719,2.657 -10.3,5.82c-2.674,3.295 -4.442,7.232 -5.13,11.42c-2.15,11.92 -4.21,23.87 -6.4,35.78c-5.27,0 -10.54,0.06 -15.8,0c3.12,-18.22 6.39,-36.41 9.55,-54.63c0.57,-3.41 1.05,-6.85 1.36,-10.29c5,-0.05 9.92,0 14.88,0c-0.19,3.37 -0.87,6.7 -1,10.07c2.08,-2.92 4.34,-5.78 7.35,-7.76Z" style="fill:rgb(114,203,225);fill-rule:nonzero;"/>            <path d="M234.95,35.045c5.333,-0.053 10.667,-0.053 16,0c-3.853,21.64 -7.7,43.28 -11.54,64.92c-5.26,0.05 -10.51,0.09 -15.77,0c3.67,-21.71 7.63,-43.31 11.31,-64.92Z" style="fill:rgb(114,203,225);fill-rule:nonzero;"/>        </g>        <g>            <path d="M117,33.045c7.87,-0.88 16.14,0.06 23.19,3.83c6.701,3.498 11.858,9.379 14.45,16.48c2.09,6.11 2,12.78 0.76,19.05c-2.03,9.321 -7.785,17.418 -15.92,22.4c-5.714,3.43 -12.266,5.216 -18.93,5.16c-7,0.12 -14.2,-1.34 -20.2,-5.1c-6.554,-3.941 -11.353,-10.251 -13.4,-17.62c-1.963,-7.376 -1.596,-15.181 1.05,-22.34c4.932,-12.028 16.079,-20.431 29,-21.86Zm2.92,13c-8.21,1 -14.92,7.73 -17.05,15.53c-1.203,4.344 -1.158,8.94 0.13,13.26c1.791,5.492 6.25,9.717 11.83,11.21c4.684,1.276 9.68,0.755 14,-1.46c4.563,-2.606 8.044,-6.761 9.81,-11.71c1.326,-3.818 1.767,-7.887 1.29,-11.9c-0.726,-5.716 -4.228,-10.721 -9.35,-13.36c-3.328,-1.595 -7.058,-2.163 -10.71,-1.63l0.05,0.06Z" style="fill:rgb(34,34,72);fill-rule:nonzero;"/>            <path d="M462.15,33.155c8.93,-0.76 18.43,1 25.7,6.48c5.761,4.11 9.813,10.199 11.38,17.1c1.23,6.143 0.963,12.493 -0.78,18.51c-2.546,8.431 -8.165,15.607 -15.74,20.1c-6.94,4.15 -15.27,5.42 -23.24,4.68c-7.793,-0.519 -15.163,-3.754 -20.82,-9.14c-4.599,-4.389 -7.638,-10.164 -8.65,-16.44c-1.336,-7.507 -0.264,-15.248 3.06,-22.11c4.494,-8.69 12.378,-15.155 21.78,-17.86c2.39,-0.667 4.838,-1.109 7.31,-1.32Zm0.79,13.22c-5.88,0.9 -11,4.86 -14,9.88c-2.951,5.066 -3.924,11.05 -2.73,16.79c0.989,4.958 4.086,9.249 8.48,11.75c6.76,3.65 15.85,2.83 21.53,-2.48c6.24,-5.51 8.77,-14.47 7.2,-22.54c-1.076,-4.927 -4.222,-9.16 -8.63,-11.61c-3.64,-1.887 -7.805,-2.516 -11.84,-1.79l-0.01,0Z" style="fill:rgb(34,34,72);fill-rule:nonzero;"/>            <path d="M26.22,34.045c7.55,-1.71 15.89,-1.12 22.68,2.81c3.004,1.781 5.624,4.14 7.71,6.94c0.57,-1.93 1.09,-3.87 1.66,-5.8l15,0c-3.393,18.967 -6.763,37.943 -10.11,56.93c-1.33,7 -3.3,14 -7.27,19.92c-2.585,3.917 -6.26,6.993 -10.57,8.85c-5.8,2.56 -12.24,3.19 -18.51,3.07c-9.406,-0.158 -18.607,-2.794 -26.67,-7.64c4.07,-3 8.24,-5.81 12.3,-8.8c4.445,1.142 8.953,2.027 13.5,2.65c5.42,0.26 11.37,-0.5 15.56,-4.25c4.39,-3.88 6.09,-9.86 6.63,-15.5c-5.812,4.314 -12.893,6.583 -20.13,6.45c-6.937,0.15 -13.676,-2.355 -18.83,-7c-4.877,-4.521 -7.988,-10.636 -8.77,-17.24c-1.24,-9.05 0.36,-18.67 5.37,-26.39c4.68,-7.26 11.93,-13.1 20.45,-15Zm7.78,11.35c-7.54,0.71 -13.57,6.71 -16.28,13.5c-2.072,5.281 -2.48,11.071 -1.17,16.59c1.123,4.573 4.221,8.419 8.45,10.49c3.722,1.58 7.837,1.995 11.8,1.19c5.965,-1.266 11.069,-5.12 13.92,-10.51c2.668,-5.046 3.69,-10.804 2.92,-16.46c-0.57,-4.903 -3.257,-9.32 -7.35,-12.08c-3.666,-2.282 -8.004,-3.242 -12.29,-2.72Z" style="fill:rgb(34,34,72);fill-rule:nonzero;"/>            <path d="M360.89,38.375c7.585,-4.774 16.792,-6.272 25.5,-4.15c5.863,1.431 11.038,4.885 14.61,9.75c0.55,-1.93 1.11,-3.85 1.63,-5.79l15,0c-3.27,18.12 -6.42,36.26 -9.64,54.38c-0.872,5.888 -2.482,11.643 -4.79,17.13c-2.27,5.14 -5.78,9.92 -10.72,12.76c-6.82,4 -14.94,4.77 -22.67,4.45c-8.944,-0.363 -17.654,-2.977 -25.32,-7.6c3.91,-2.77 7.81,-5.57 11.72,-8.33c0.71,-0.69 1.66,-0.21 2.49,0c3.917,1.039 7.904,1.791 11.93,2.25c5.43,0.22 11.37,-0.66 15.49,-4.51c4.12,-3.85 5.78,-9.79 6.4,-15.34c-5.705,4.31 -12.681,6.607 -19.83,6.53c-6.818,0.209 -13.473,-2.147 -18.64,-6.6c-5.135,-4.517 -8.442,-10.763 -9.29,-17.55c-1.134,-7.557 -0.093,-15.283 3,-22.27c2.894,-6.154 7.44,-11.385 13.13,-15.11Zm15.74,7.49c-2.965,0.625 -5.721,2.003 -8,4c-4.602,4.045 -7.537,9.662 -8.23,15.75c-0.62,5.07 -0.21,10.58 2.65,15c2.448,3.804 6.462,6.333 10.95,6.9c3.457,0.504 6.985,0.16 10.28,-1c6.63,-2.44 11.45,-8.58 13.18,-15.31c0.992,-3.98 1.125,-8.125 0.39,-12.16c-0.948,-4.879 -4.022,-9.091 -8.38,-11.48c-3.962,-1.997 -8.485,-2.597 -12.83,-1.7l-0.01,0Z" style="fill:rgb(34,34,72);fill-rule:nonzero;"/>        </g>    </g></svg>