<?xml version="1.0" encoding="UTF-8" standalone="no"?><!DOCTYPE svg PUBLIC "-//W3C//DTD SVG 1.1//EN" "http://www.w3.org/Graphics/SVG/1.1/DTD/svg11.dtd"><svg width="100%" height="100%" viewBox="0 0 1024 512" version="1.1" xmlns="http://www.w3.org/2000/svg" xmlns:xlink="http://www.w3.org/1999/xlink" xml:space="preserve" style="fill-rule:evenodd;clip-rule:evenodd;stroke-linejoin:round;stroke-miterlimit:2;"><title>CreditGate24</title><desc>CreditGate24 brings borrowers and private/institutional investors together on its highly automated direct-lending platform. It operates in the area of consumer/private loans, loans for SMEs/self-employed individuals and real-estate financing.</desc>    <g transform="matrix(0.253984,0,0,0.253984,2,191.488)">        <g transform="matrix(4.74032,0,0,4.73978,0,3.73978)">            <path d="M89.4,88.8c-3.9,5.3 -8.9,9.6 -15.2,12.9c-6.2,3.3 -13.7,4.9 -22.4,4.9c-7.5,0 -14.4,-1.3 -20.8,-3.8c-6.4,-2.5 -11.8,-6.1 -16.4,-10.7c-4.5,-4.6 -8.1,-10.1 -10.7,-16.4c-2.6,-6.4 -3.9,-13.3 -3.9,-20.9c0,-7.7 1.3,-14.8 4,-21.1c2.6,-6.3 6.3,-11.8 11,-16.3c4.7,-4.5 10.2,-8 16.6,-10.5c6.4,-2.5 13.3,-3.7 20.8,-3.7c3.3,0 6.7,0.3 10.1,1c3.4,0.6 6.7,1.6 9.9,2.9c3.1,1.3 6,2.9 8.6,4.8c2.6,1.9 4.8,4.1 6.7,6.6l-10.8,8.3c-2.4,-3.3 -5.8,-6.1 -10.2,-8.3c-4.4,-2.2 -9.2,-3.3 -14.3,-3.3c-5.7,0 -10.9,1 -15.5,3.1c-4.6,2.1 -8.5,4.9 -11.7,8.5c-3.2,3.6 -5.7,7.8 -7.5,12.6c-1.8,4.8 -2.6,9.8 -2.6,15.2c0,5.6 0.9,10.8 2.6,15.6c1.7,4.8 4.2,9 7.4,12.6c3.2,3.6 7.1,6.4 11.7,8.4c4.6,2 9.7,3.1 15.4,3.1c5.6,0 10.6,-1.1 15.2,-3.3c4.5,-2.2 8.3,-5.5 11.3,-9.7l10.7,7.5Z" style="fill:rgb(30,53,130);fill-rule:nonzero;"/>        </g>        <g transform="matrix(4.74032,0,0,4.73978,0,3.73978)">            <path d="M102,45.6c-0.1,-2.8 -0.2,-5.2 -0.4,-7.4l12.4,0c0.2,1.7 0.3,3.6 0.4,5.8c0.1,2.2 0.1,4 0.1,5.4l0.4,0c1.9,-3.9 4.6,-7 8.1,-9.4c3.6,-2.4 7.6,-3.5 12,-3.5c2,0 3.8,0.2 5.1,0.6l-0.6,12.1c-1.9,-0.5 -3.8,-0.7 -6,-0.7c-3.2,0 -5.9,0.6 -8.2,1.7c-2.3,1.2 -4.2,2.7 -5.8,4.7c-1.5,1.9 -2.7,4.2 -3.4,6.7c-0.7,2.5 -1.1,5.2 -1.1,8l0,34.6l-13.1,0l0,-51.8c0.2,-1.8 0.2,-4 0.1,-6.8Z" style="fill:rgb(30,53,130);fill-rule:nonzero;"/>        </g>        <g transform="matrix(4.74032,0,0,4.73978,0,3.73978)">            <path d="M213.1,70.6l0,2.2c0,0.7 0,1.5 -0.1,2.2l-52.4,0c0.1,2.8 0.7,5.4 1.9,7.8c1.2,2.4 2.7,4.6 4.7,6.4c1.9,1.8 4.2,3.2 6.7,4.2c2.5,1 5.3,1.5 8.1,1.5c4.4,0 8.3,-1 11.5,-2.9c3.2,-1.9 5.8,-4.3 7.6,-7.1l9.2,7.4c-3.5,4.7 -7.7,8.1 -12.4,10.3c-4.8,2.2 -10.1,3.3 -15.9,3.3c-5,0 -9.6,-0.8 -13.9,-2.5c-4.3,-1.7 -7.9,-4 -11,-7c-3.1,-3 -5.5,-6.6 -7.2,-10.9c-1.8,-4.3 -2.6,-9 -2.6,-14.2c0,-5.1 0.9,-9.8 2.6,-14.1c1.7,-4.3 4.1,-8 7.2,-11.1c3.1,-3.1 6.7,-5.4 10.9,-7.2c4.2,-1.7 8.7,-2.6 13.5,-2.6c4.8,0 9.2,0.8 13.2,2.4c3.9,1.6 7.3,3.8 10,6.8c2.7,3 4.9,6.6 6.3,10.8c1.4,4.3 2.1,9 2.1,14.3Zm-13.3,-5.3c-0.1,-2.6 -0.5,-5 -1.3,-7.3c-0.8,-2.3 -1.9,-4.2 -3.5,-5.9c-1.5,-1.7 -3.4,-3 -5.7,-4c-2.3,-1 -4.9,-1.5 -8,-1.5c-2.8,0 -5.4,0.5 -7.9,1.5c-2.5,1 -4.6,2.3 -6.4,4c-1.8,1.7 -3.3,3.6 -4.4,5.9c-1.2,2.3 -1.8,4.7 -2,7.3l39.2,0Z" style="fill:rgb(30,53,130);fill-rule:nonzero;"/>        </g>        <g transform="matrix(4.74032,0,0,4.73978,0,3.73978)">            <path d="M283,93.7c-2.5,4 -5.9,7 -10.2,9.1c-4.3,2.1 -8.8,3.1 -13.6,3.1c-5.1,0 -9.7,-0.9 -13.8,-2.7c-4.1,-1.8 -7.6,-4.3 -10.4,-7.4c-2.9,-3.1 -5.1,-6.9 -6.7,-11.1c-1.6,-4.3 -2.4,-8.8 -2.4,-13.6c0,-4.8 0.8,-9.3 2.4,-13.6c1.6,-4.2 3.8,-7.9 6.7,-11.1c2.9,-3.1 6.4,-5.6 10.5,-7.4c4.1,-1.8 8.6,-2.6 13.5,-2.6c5.4,0 10.1,1.1 14,3.4c4,2.3 7.1,5 9.5,8.3l0.3,0l0,-49.1l13.1,0l0,105.1l-12.7,0l0,-10.4l-0.2,0Zm-43.4,-22.6c0,3 0.5,6 1.4,8.9c0.9,2.9 2.3,5.4 4.2,7.6c1.9,2.2 4.1,4 6.8,5.3c2.7,1.3 5.8,2 9.5,2c3.3,0 6.4,-0.6 9.1,-1.9c2.7,-1.3 5.1,-3 7,-5.2c1.9,-2.2 3.5,-4.7 4.5,-7.6c1.1,-2.9 1.6,-5.9 1.6,-9c0,-3.1 -0.5,-6.1 -1.6,-9c-1.1,-2.9 -2.6,-5.4 -4.5,-7.6c-1.9,-2.2 -4.3,-4 -7,-5.3c-2.7,-1.3 -5.8,-1.9 -9.1,-1.9c-3.6,0 -6.8,0.7 -9.5,1.9c-2.7,1.3 -5,3 -6.8,5.3c-1.9,2.2 -3.2,4.8 -4.2,7.6c-0.9,2.9 -1.4,5.8 -1.4,8.9Z" style="fill:rgb(30,53,130);fill-rule:nonzero;"/>        </g>        <g transform="matrix(4.74032,0,0,4.73978,0,3.73978)">            <path d="M332.3,14.4c0,2.4 -0.9,4.4 -2.6,6c-1.7,1.6 -3.7,2.4 -6.1,2.4c-2.4,0 -4.4,-0.8 -6.1,-2.4c-1.7,-1.6 -2.5,-3.6 -2.5,-5.9c0,-2.4 0.8,-4.4 2.5,-6c1.7,-1.6 3.7,-2.4 6.1,-2.4c2.4,0 4.4,0.8 6.1,2.4c1.8,1.5 2.6,3.5 2.6,5.9Zm-2.1,89.7l-13.1,0l0,-65.9l13.1,0l0,65.9Z" style="fill:rgb(30,53,130);fill-rule:nonzero;"/>        </g>        <g transform="matrix(4.74032,0,0,4.73978,0,3.73978)">            <path d="M385.4,48.9l-17.5,0l0,34.2c0,4 0.7,6.8 2.2,8.5c1.5,1.7 3.8,2.6 7.1,2.6c1.2,0 2.5,-0.1 3.9,-0.4c1.4,-0.3 2.6,-0.6 3.8,-1.2l0.4,10.7c-1.6,0.6 -3.3,1 -5.2,1.3c-1.9,0.3 -3.9,0.5 -5.9,0.5c-6.2,0 -11,-1.7 -14.3,-5.1c-3.3,-3.4 -4.9,-8.6 -4.9,-15.4l0,-35.7l-12.7,0l0,-10.7l12.7,0l0,-18.9l12.9,0l0,18.9l17.5,0l0,10.7Z" style="fill:rgb(30,53,130);fill-rule:nonzero;"/>        </g>        <g transform="matrix(4.74032,0,0,4.73978,0,3.73978)">            <path d="M475.5,26c-3,-3.2 -6.7,-5.8 -11.3,-7.8c-4.6,-1.9 -9.7,-2.9 -15.4,-2.9c-5.7,0 -10.9,1 -15.6,3.1c-4.6,2.1 -8.6,4.9 -11.8,8.5c-3.2,3.6 -5.7,7.8 -7.5,12.6c-1.8,4.8 -2.6,9.8 -2.6,15.2c0,5.5 0.9,10.6 2.6,15.4c1.8,4.8 4.3,9 7.5,12.6c3.2,3.6 7.2,6.4 12,8.4c4.7,2 10,3.1 15.9,3.1c4.6,0 8.9,-0.4 12.8,-1.2c3.9,-0.8 7.3,-2 10.2,-3.6l0,-27.4l-21.8,0l0,-11.7l35.5,0l0,47.7c-5.2,2.8 -10.8,4.9 -17,6.4c-6.1,1.5 -12.8,2.2 -20,2.2c-7.7,0 -14.8,-1.3 -21.2,-3.8c-6.4,-2.5 -12,-6.1 -16.6,-10.7c-4.6,-4.6 -8.3,-10.1 -10.8,-16.4c-2.6,-6.3 -3.9,-13.3 -3.9,-20.9c0,-7.7 1.3,-14.7 4,-21.1c2.6,-6.3 6.3,-11.8 11,-16.3c4.7,-4.5 10.2,-8 16.6,-10.5c6.4,-2.5 13.3,-3.8 20.9,-3.8c7.9,0 14.9,1.2 21.1,3.5c6.2,2.3 11.3,5.4 15.4,9.3l-10,10.1Z" style="fill:rgb(30,53,130);fill-rule:nonzero;"/>        </g>        <g transform="matrix(4.74032,0,0,4.73978,0,3.73978)">            <path d="M548.8,61.4c0,-4.9 -1.5,-8.5 -4.4,-10.9c-3,-2.4 -6.9,-3.5 -11.8,-3.5c-3.7,0 -7.2,0.7 -10.5,2.2c-3.3,1.4 -6,3.3 -8.3,5.5l-7,-8.3c3.2,-3.1 7.2,-5.5 11.9,-7.2c4.7,-1.8 9.7,-2.6 15.1,-2.6c4.7,0 8.8,0.7 12.3,2c3.5,1.3 6.3,3.2 8.6,5.5c2.2,2.3 3.9,5 5,8.2c1.1,3.2 1.7,6.5 1.7,10.2l0,28.5c0,2.2 0.1,4.6 0.2,7c0.1,2.5 0.4,4.5 0.8,6l-11.8,0c-0.7,-3.1 -1.1,-6.3 -1.1,-9.5l-0.4,0c-2.4,3.5 -5.4,6.3 -9.1,8.2c-3.7,1.9 -8,2.9 -13,2.9c-2.6,0 -5.3,-0.3 -8.1,-1c-2.8,-0.7 -5.4,-1.8 -7.7,-3.4c-2.3,-1.6 -4.2,-3.7 -5.8,-6.3c-1.5,-2.6 -2.3,-5.8 -2.3,-9.6c0,-5 1.3,-9 4,-11.9c2.7,-2.9 6.2,-5.1 10.6,-6.7c4.4,-1.5 9.3,-2.5 14.7,-3c5.5,-0.5 11,-0.7 16.5,-0.7l0,-1.6l-0.1,0Zm-3.2,11.3c-3.2,0 -6.6,0.1 -10.1,0.4c-3.5,0.3 -6.6,0.8 -9.5,1.7c-2.8,0.8 -5.2,2.1 -7,3.8c-1.9,1.7 -2.8,3.9 -2.8,6.7c0,1.9 0.4,3.6 1.2,4.9c0.8,1.3 1.8,2.4 3.1,3.2c1.3,0.8 2.7,1.4 4.3,1.7c1.6,0.3 3.2,0.5 4.9,0.5c6.1,0 10.8,-1.8 14.1,-5.5c3.3,-3.7 4.9,-8.3 4.9,-13.8l0,-3.5l-3.1,0l0,-0.1Z" style="fill:rgb(30,53,130);fill-rule:nonzero;"/>        </g>        <g transform="matrix(4.74032,0,0,4.73978,0,3.73978)">            <path d="M614.9,48.9l-17.5,0l0,34.2c0,4 0.7,6.8 2.2,8.5c1.5,1.7 3.8,2.6 7.1,2.6c1.2,0 2.5,-0.1 3.9,-0.4c1.4,-0.3 2.6,-0.6 3.8,-1.2l0.4,10.7c-1.6,0.6 -3.3,1 -5.2,1.3c-1.9,0.3 -3.9,0.5 -5.9,0.5c-6.2,0 -11,-1.7 -14.3,-5.1c-3.3,-3.4 -4.9,-8.6 -4.9,-15.4l0,-35.7l-12.7,0l0,-10.7l12.7,0l0,-18.9l12.9,0l0,18.9l17.5,0l0,10.7Z" style="fill:rgb(30,53,130);fill-rule:nonzero;"/>        </g>        <g transform="matrix(4.74032,0,0,4.73978,0,3.73978)">            <path d="M688.7,70.6l0,2.2c0,0.7 0,1.5 -0.1,2.2l-52.4,0c0.1,2.8 0.7,5.4 1.9,7.8c1.2,2.4 2.7,4.6 4.7,6.4c1.9,1.8 4.2,3.2 6.7,4.2c2.5,1 5.3,1.5 8.1,1.5c4.4,0 8.3,-1 11.5,-2.9c3.2,-1.9 5.8,-4.3 7.7,-7.1l9.2,7.4c-3.5,4.7 -7.7,8.1 -12.4,10.3c-4.8,2.2 -10.1,3.3 -15.9,3.3c-5,0 -9.6,-0.8 -13.9,-2.5c-4.3,-1.7 -7.9,-4 -11,-7c-3.1,-3 -5.5,-6.6 -7.2,-10.9c-1.8,-4.3 -2.6,-9 -2.6,-14.2c0,-5.1 0.9,-9.8 2.6,-14.1c1.7,-4.3 4.1,-8 7.2,-11.1c3.1,-3.1 6.7,-5.4 10.9,-7.2c4.2,-1.7 8.7,-2.6 13.5,-2.6c4.8,0 9.2,0.8 13.2,2.4c4,1.6 7.3,3.8 10,6.8c2.7,3 4.9,6.6 6.3,10.8c1.3,4.3 2,9 2,14.3Zm-13.3,-5.3c-0.1,-2.6 -0.5,-5 -1.3,-7.3c-0.8,-2.3 -1.9,-4.2 -3.5,-5.9c-1.5,-1.7 -3.4,-3 -5.7,-4c-2.3,-1 -4.9,-1.5 -8,-1.5c-2.8,0 -5.4,0.5 -7.8,1.5c-2.5,1 -4.6,2.3 -6.4,4c-1.8,1.7 -3.3,3.6 -4.4,5.9c-1.2,2.3 -1.8,4.7 -2,7.3l39.1,0Z" style="fill:rgb(30,53,130);fill-rule:nonzero;"/>        </g>        <g transform="matrix(4.74032,0,0,4.73978,0,3.73978)">            <path d="M765.1,104.1l-64.2,0l0,-12.9l39.2,-38.9c3,-3.1 5.5,-6.3 7.6,-9.6c2.1,-3.3 3.2,-7.1 3.2,-11.3c0,-2.6 -0.5,-4.9 -1.4,-7c-0.9,-2.1 -2.2,-3.9 -3.8,-5.4c-1.6,-1.5 -3.4,-2.6 -5.6,-3.4c-2.1,-0.8 -4.4,-1.2 -6.8,-1.2c-5,0 -9.1,1.6 -12.4,4.8c-3.2,3.2 -5.3,7.3 -6.1,12.3l-13.2,-2.2c0.6,-3.7 1.7,-7.2 3.5,-10.4c1.8,-3.2 4.1,-6 6.9,-8.3c2.8,-2.4 6,-4.2 9.7,-5.5c3.7,-1.3 7.6,-1.9 11.7,-1.9c4.1,0 8,0.6 11.8,1.8c3.8,1.2 7.1,3 9.9,5.3c2.9,2.3 5.2,5.2 6.9,8.8c1.7,3.5 2.6,7.6 2.6,12.1c0,3.1 -0.4,6.1 -1.3,8.8c-0.8,2.7 -2,5.2 -3.4,7.7c-1.4,2.4 -3.1,4.7 -5.1,6.9c-1.9,2.2 -4,4.3 -6.1,6.5l-32,31.1l48.2,0l0,11.9l0.2,0Z" style="fill:rgb(122,178,225);fill-rule:nonzero;"/>        </g>        <g transform="matrix(4.74032,0,0,4.73978,0,3.73978)">            <path d="M833,70.5l14.2,0l0,11.5l-14.2,0l0,22.1l-13.1,0l0,-22.1l-45.3,0l0,-12.2l41.9,-64.1l16.5,0l0,64.8Zm-13.1,-49.4l-0.3,0l-31.2,49.4l31.4,0l0,-49.4l0.1,0Z" style="fill:rgb(122,178,225);fill-rule:nonzero;"/>        </g>    </g></svg>