<?xml version="1.0" encoding="UTF-8" standalone="no"?><!DOCTYPE svg PUBLIC "-//W3C//DTD SVG 1.1//EN" "http://www.w3.org/Graphics/SVG/1.1/DTD/svg11.dtd"><svg width="100%" height="100%" viewBox="0 0 1024 512" version="1.1" xmlns="http://www.w3.org/2000/svg" xmlns:xlink="http://www.w3.org/1999/xlink" xml:space="preserve" style="fill-rule:evenodd;clip-rule:evenodd;stroke-linejoin:round;stroke-miterlimit:2;"><title>UOWN</title><desc>UOWN is a platform offering anyone the ability to invest and potentially earn money from property at the click of a button. Giving the ownership of UK property back to the people.</desc>    <g transform="matrix(20.4483,0,0,20.4483,2.03905,139.65)">        <g transform="matrix(1,0,0,1,-0.06,-0.04)">            <path d="M38.91,0l-1.79,0c-0.23,0 -0.42,0.19 -0.42,0.42l0,6.41c0,0.001 0,0.001 0,0.002c0,1.097 -0.903,2 -2,2c-0.528,0 -1.035,-0.21 -1.41,-0.582c-0.357,-0.353 -0.567,-0.828 -0.59,-1.33l0,-6.46c0.001,-0.013 0.002,-0.027 0.002,-0.04c0,-0.23 -0.19,-0.42 -0.42,-0.42c-0.001,0 -0.001,0 -0.002,0l-1.79,0c-0.003,0 -0.007,0 -0.01,0c-0.23,0 -0.42,0.189 -0.42,0.42l0,6.5c-0.046,1.064 -0.934,1.913 -1.998,1.913c-0.529,0 -1.037,-0.209 -1.412,-0.583c-0.378,-0.376 -0.59,-0.887 -0.59,-1.42l0,-6.37c0.001,-0.013 0.002,-0.027 0.002,-0.04c0,-0.227 -0.185,-0.416 -0.412,-0.42l-1.79,0c-0.23,0 -0.42,0.19 -0.42,0.42l0,6.41c0.004,2.537 2.093,4.623 4.63,4.623c1.245,0 2.439,-0.503 3.31,-1.393c0.871,0.89 2.065,1.393 3.31,1.393c2.537,0 4.626,-2.086 4.63,-4.623l0,-6.37c0.001,-0.013 0.002,-0.027 0.002,-0.04c0,-0.227 -0.185,-0.416 -0.412,-0.42Z" style="fill:rgb(29,29,27);fill-rule:nonzero;"/>        </g>        <g transform="matrix(1,0,0,1,-0.06,-0.04)">            <path d="M9.32,6.83c0,2.54 -2.09,4.63 -4.63,4.63c-2.54,0 -4.63,-2.09 -4.63,-4.63l0,-6.37c-0.001,-0.013 -0.002,-0.027 -0.002,-0.04c0,-0.23 0.19,-0.42 0.42,-0.42c0.001,0 0.001,0 0.002,0l1.79,0c0.23,0 0.42,0.19 0.42,0.42l0,6.41c0,1.097 0.903,2 2,2c1.097,0 2,-0.903 2,-2l0,-6.37c-0.001,-0.013 -0.002,-0.027 -0.002,-0.04c0,-0.23 0.19,-0.42 0.42,-0.42c0.001,0 0.001,0 0.002,0l1.79,0c0.23,0 0.42,0.19 0.42,0.42l0,6.41Z" style="fill:rgb(113,229,189);fill-rule:nonzero;"/>        </g>        <g transform="matrix(1,0,0,1,-0.06,-0.04)">            <path d="M40.68,4.67c0,-2.54 2.09,-4.63 4.63,-4.63c2.54,0 4.63,2.09 4.63,4.63l0,6.33c0,0.23 -0.19,0.42 -0.42,0.42l-1.79,0c-0.23,0 -0.42,-0.19 -0.42,-0.42l0,-6.33c0,-1.097 -0.903,-2 -2,-2c-0.527,-0.003 -1.034,0.202 -1.41,0.57c-0.38,0.378 -0.593,0.894 -0.59,1.43l0,6.33c0,0.23 -0.19,0.42 -0.42,0.42l-1.79,0c-0.23,0 -0.42,-0.19 -0.42,-0.42l0,-6.33Z" style="fill:rgb(29,29,27);fill-rule:nonzero;"/>        </g>        <g transform="matrix(1,0,0,1,-0.06,-0.04)">            <path d="M16.38,0c-3.132,0 -5.71,2.578 -5.71,5.71c0,3.132 2.578,5.71 5.71,5.71c3.132,0 5.71,-2.578 5.71,-5.71c0,-3.132 -2.578,-5.71 -5.71,-5.71Zm1.62,8.59c-0.974,0.546 -2.166,0.546 -3.14,0c-1.035,-0.571 -1.68,-1.664 -1.68,-2.846c0,-1.783 1.467,-3.25 3.25,-3.25c1.783,0 3.25,1.467 3.25,3.25c0,1.182 -0.645,2.275 -1.68,2.846Z" style="fill:rgb(29,29,27);fill-rule:nonzero;"/>        </g>    </g></svg>