<?xml version="1.0" encoding="UTF-8" standalone="no"?><!DOCTYPE svg PUBLIC "-//W3C//DTD SVG 1.1//EN" "http://www.w3.org/Graphics/SVG/1.1/DTD/svg11.dtd"><svg width="100%" height="100%" viewBox="0 0 1024 512" version="1.1" xmlns="http://www.w3.org/2000/svg" xmlns:xlink="http://www.w3.org/1999/xlink" xml:space="preserve" style="fill-rule:evenodd;clip-rule:evenodd;stroke-linejoin:round;stroke-miterlimit:2;"><title>MoneyZen</title><desc>MoneyZen is a financial portal, where people can grant loans to each other. The portal provides services to lenders (investors) as well as borrowers. Compared to banks, who are also lending money deposited by the people, the interest revenue earned by investors in our financial portal is much higher than in case of bank deposit.</desc>    <g transform="matrix(1.01971,0,0,1.01971,-13.0537,-5.04529)">        <g transform="matrix(3.61008,0,0,3.61008,-2.93142,-295.441)">            <g transform="matrix(40,0,0,40,96.3805,162.427)">                <path d="M0.446,-0.192l-0.077,0l-0.207,-0.38l0,0.572l-0.088,0l0,-0.719l0.086,-0.01l0.247,0.447l0.236,-0.442l0.094,-0.005l0,0.729l-0.083,0l-0.005,-0.557l-0.203,0.365Z" style="fill:url(#_Linear1);fill-rule:nonzero;"/>            </g>            <g transform="matrix(34.3248,0,0,40,130.505,162.427)">                <path d="M0.309,-0.067c0.173,0 0.164,-0.142 0.158,-0.198c-0.008,-0.082 0.015,-0.202 -0.158,-0.199c-0.114,0.002 -0.121,0.062 -0.119,0.199c0.002,0.097 -0.014,0.198 0.119,0.198Zm0,0.076c-0.082,0 -0.143,-0.032 -0.187,-0.077c-0.058,-0.059 -0.036,-0.218 -0.036,-0.218c0,0 -0.008,-0.137 0.04,-0.183c0.042,-0.04 0.108,-0.067 0.183,-0.067c0.077,0 0.171,0.017 0.216,0.067c0.05,0.054 0.042,0.198 0.042,0.198c0,0 0.014,0.149 -0.037,0.203c-0.07,0.074 -0.15,0.077 -0.221,0.077Z" style="fill:url(#_Linear2);fill-rule:nonzero;"/>            </g>            <g transform="matrix(40,0,0,40,151.654,162.427)">                <path d="M0.129,-0.413c0,-0.021 -0.022,-0.083 -0.025,-0.107l0.076,-0.01c0.003,0.015 0.024,0.054 0.028,0.074c0.014,-0.028 0.04,-0.06 0.073,-0.071c0.032,-0.011 0.057,-0.013 0.089,-0.013c0.05,0 0.081,0.019 0.11,0.048c0.029,0.029 0.044,0.07 0.044,0.123l0,0.369l-0.078,0l0,-0.362c0,-0.032 -0.041,-0.097 -0.095,-0.098c-0.03,-0.001 -0.063,-0.002 -0.093,0.007c-0.029,0.01 -0.02,0.007 -0.043,0.022l0,0.431l-0.095,0l0.009,-0.413Z" style="fill:url(#_Linear3);fill-rule:nonzero;"/>            </g>            <g transform="matrix(40,0,0,40,151.654,162.427)">                <path d="M0.129,-0.413c0,-0.021 -0.022,-0.083 -0.025,-0.107l0.076,-0.01c0.003,0.015 0.024,0.054 0.028,0.074c0.014,-0.028 0.04,-0.06 0.073,-0.071c0.032,-0.011 0.057,-0.013 0.089,-0.013c0.05,0 0.081,0.019 0.11,0.048c0.029,0.029 0.044,0.07 0.044,0.123l0,0.369l-0.078,0l0,-0.362c0,-0.032 -0.041,-0.097 -0.095,-0.098c-0.03,-0.001 -0.063,-0.002 -0.093,0.007c-0.029,0.01 -0.02,0.007 -0.043,0.022l0,0.431l-0.095,0l0.009,-0.413Z" style="fill:url(#_Linear4);fill-rule:nonzero;"/>            </g>            <g transform="matrix(40,0,0,40,261.04,162.427)">                <path d="M0.129,-0.413c0,-0.021 -0.022,-0.083 -0.025,-0.107l0.076,-0.01c0.003,0.015 0.024,0.054 0.028,0.074c0.014,-0.028 0.04,-0.06 0.073,-0.071c0.032,-0.011 0.057,-0.013 0.089,-0.013c0.05,0 0.081,0.019 0.11,0.048c0.029,0.029 0.044,0.07 0.044,0.123l0,0.369l-0.078,0l0,-0.362c0,-0.032 -0.041,-0.097 -0.095,-0.098c-0.03,-0.001 -0.063,-0.002 -0.093,0.007c-0.029,0.01 -0.02,0.007 -0.043,0.022l0,0.431l-0.095,0l0.009,-0.413Z" style="fill:url(#_Linear5);fill-rule:nonzero;"/>            </g>            <g transform="matrix(40,0,0,40,174.466,162.427)">                <path d="M0.282,-0.457c-0.071,0.015 -0.072,0.096 -0.074,0.135c0,0 0.077,0.033 0.146,0.018c0.036,-0.008 0.097,-0.057 0.055,-0.117c-0.02,-0.03 -0.063,-0.05 -0.127,-0.036Zm0.244,0.357c-0.023,0.031 -0.052,0.114 -0.188,0.115c-0.069,0 -0.133,-0.006 -0.186,-0.075c-0.04,-0.051 -0.025,-0.202 -0.025,-0.202c0,0 -0.015,-0.149 0.023,-0.198c0.038,-0.049 0.083,-0.079 0.156,-0.079c0.062,0 0.117,-0.01 0.192,0.083c0.031,0.039 0.03,0.182 -0.069,0.216c-0.166,0.057 -0.22,-0.04 -0.22,-0.04c0,0.059 0,0.139 0.012,0.159c0.024,0.036 0.061,0.058 0.107,0.057c0.064,-0.001 0.097,-0.03 0.118,-0.058l0.08,0.022Z" style="fill:url(#_Linear6);fill-rule:nonzero;"/>            </g>            <g transform="matrix(40,0,0,40,238.586,162.427)">                <path d="M0.282,-0.457c-0.071,0.015 -0.072,0.096 -0.074,0.135c0,0 0.077,0.033 0.146,0.018c0.036,-0.008 0.097,-0.057 0.055,-0.117c-0.02,-0.03 -0.063,-0.05 -0.127,-0.036Zm0.244,0.357c-0.023,0.031 -0.052,0.114 -0.188,0.115c-0.069,0 -0.133,-0.006 -0.186,-0.075c-0.04,-0.051 -0.025,-0.202 -0.025,-0.202c0,0 -0.015,-0.149 0.023,-0.198c0.038,-0.049 0.083,-0.079 0.156,-0.079c0.062,0 0.117,-0.01 0.192,0.083c0.031,0.039 0.03,0.182 -0.069,0.216c-0.166,0.057 -0.22,-0.04 -0.22,-0.04c0,0.059 0,0.139 0.012,0.159c0.024,0.036 0.061,0.058 0.107,0.057c0.064,-0.001 0.097,-0.03 0.118,-0.058l0.08,0.022Z" style="fill:url(#_Linear7);fill-rule:nonzero;"/>            </g>            <g transform="matrix(40,0,0,40,198.408,162.427)">                <path d="M0.248,-0.096l0.134,-0.428l0.097,-0.009l-0.201,0.573c-0.011,0.03 -0.04,0.164 -0.127,0.195c-0.071,0.025 -0.159,-0.001 -0.19,-0.037l0.035,-0.062c0.02,0.009 0.066,0.052 0.123,0.024c0.057,-0.029 0.083,-0.138 0.097,-0.177c0.004,-0.012 -0.019,0 -0.024,-0.018c-0.035,-0.115 -0.181,-0.488 -0.181,-0.488l0.096,-0.012l0.141,0.439Z" style="fill:url(#_Linear8);fill-rule:nonzero;"/>            </g>            <g transform="matrix(40,0,0,40,219.617,162.427)">                <path d="M0.026,-0.717l0.432,0l0,0.061l-0.342,0.569l0.339,0l0,0.087l-0.44,0l-0.009,-0.062l0.334,-0.572l-0.323,-0.001l0.009,-0.082Z" style="fill:url(#_Linear9);fill-rule:nonzero;"/>            </g>        </g>        <g transform="matrix(0.531359,0,0,0.531359,13.0555,105.36)">            <g transform="matrix(0.709018,0,0,0.709018,-115.787,-35.3909)">                <path d="M561.745,55.857c-217.403,0 -393.907,176.504 -393.907,393.907c0,217.403 176.504,393.907 393.907,393.907c217.403,0 393.907,-176.504 393.907,-393.907c0,-217.403 -176.504,-393.907 -393.907,-393.907Zm0,56.416c186.266,0 337.491,151.225 337.491,337.491c0,186.266 -151.225,337.491 -337.491,337.491c-186.266,0 -337.491,-151.225 -337.491,-337.491c0,-186.266 151.225,-337.491 337.491,-337.491Z" style="fill:white;"/>            </g>            <g transform="matrix(0.709018,0,0,0.709018,-115.787,-35.3909)">                <circle cx="561.745" cy="449.764" r="337.491" style="fill:url(#_Linear10);"/>            </g>            <g transform="matrix(0.682857,0,0,0.682857,-91.508,14.4111)">                <path d="M337.084,274.772l0,292.273l84.884,0l0,-345.964l-84.884,53.691Z" style="fill:white;"/>                <path d="M508.379,221.081l74.52,85.751l-160.931,0l0,-85.751l86.411,0Z" style="fill:rgb(205,204,203);"/>                <g transform="matrix(1,0,0,1,165.37,0)">                    <path d="M508.379,221.081l74.52,85.751l-160.931,0l0,-85.751l86.411,0Z" style="fill:rgb(205,204,203);"/>                </g>                <g transform="matrix(-1,0,0,1,1095.42,0)">                    <path d="M337.084,274.772l0,292.273l84.884,0l0,-345.964l-84.884,53.691Z" style="fill:white;"/>                </g>                <g transform="matrix(1,0,0,1,166.085,0)">                    <path d="M337.084,304.772l0,262.273l84.884,0l0,-345.964l-84.884,83.691Z" style="fill:white;"/>                </g>            </g>        </g>    </g>    <defs>        <linearGradient id="_Linear1" x1="0" y1="0" x2="1" y2="0" gradientUnits="userSpaceOnUse" gradientTransform="matrix(4.48518,0,0,4.48518,0.0893519,-0.323961)"><stop offset="0" style="stop-color:rgb(87,43,118);stop-opacity:1"/><stop offset="1" style="stop-color:rgb(34,150,209);stop-opacity:1"/></linearGradient>        <linearGradient id="_Linear2" x1="0" y1="0" x2="1" y2="0" gradientUnits="userSpaceOnUse" gradientTransform="matrix(5.22674,0,0,4.48518,-0.890047,-0.323961)"><stop offset="0" style="stop-color:rgb(87,43,118);stop-opacity:1"/><stop offset="1" style="stop-color:rgb(34,150,209);stop-opacity:1"/></linearGradient>        <linearGradient id="_Linear3" x1="0" y1="0" x2="1" y2="0" gradientUnits="userSpaceOnUse" gradientTransform="matrix(4.48518,0,0,4.48518,-1.29248,-0.323961)"><stop offset="0" style="stop-color:rgb(87,43,118);stop-opacity:1"/><stop offset="1" style="stop-color:rgb(34,150,209);stop-opacity:1"/></linearGradient>        <linearGradient id="_Linear4" x1="0" y1="0" x2="1" y2="0" gradientUnits="userSpaceOnUse" gradientTransform="matrix(4.48518,0,0,4.48518,-1.29248,-0.323961)"><stop offset="0" style="stop-color:rgb(87,43,118);stop-opacity:1"/><stop offset="1" style="stop-color:rgb(34,150,209);stop-opacity:1"/></linearGradient>        <linearGradient id="_Linear5" x1="0" y1="0" x2="1" y2="0" gradientUnits="userSpaceOnUse" gradientTransform="matrix(4.48518,0,0,4.48518,-4.02713,-0.323961)"><stop offset="0" style="stop-color:rgb(87,43,118);stop-opacity:1"/><stop offset="1" style="stop-color:rgb(34,150,209);stop-opacity:1"/></linearGradient>        <linearGradient id="_Linear6" x1="0" y1="0" x2="1" y2="0" gradientUnits="userSpaceOnUse" gradientTransform="matrix(4.48518,0,0,4.48518,-1.8628,-0.323961)"><stop offset="0" style="stop-color:rgb(87,43,118);stop-opacity:1"/><stop offset="1" style="stop-color:rgb(34,150,209);stop-opacity:1"/></linearGradient>        <linearGradient id="_Linear7" x1="0" y1="0" x2="1" y2="0" gradientUnits="userSpaceOnUse" gradientTransform="matrix(4.48518,0,0,4.48518,-3.46578,-0.323961)"><stop offset="0" style="stop-color:rgb(87,43,118);stop-opacity:1"/><stop offset="1" style="stop-color:rgb(34,150,209);stop-opacity:1"/></linearGradient>        <linearGradient id="_Linear8" x1="0" y1="0" x2="1" y2="0" gradientUnits="userSpaceOnUse" gradientTransform="matrix(4.48518,0,0,4.48518,-2.46133,-0.323961)"><stop offset="0" style="stop-color:rgb(87,43,118);stop-opacity:1"/><stop offset="1" style="stop-color:rgb(34,150,209);stop-opacity:1"/></linearGradient>        <linearGradient id="_Linear9" x1="0" y1="0" x2="1" y2="0" gradientUnits="userSpaceOnUse" gradientTransform="matrix(4.48518,0,0,4.48518,-2.99155,-0.323961)"><stop offset="0" style="stop-color:rgb(87,43,118);stop-opacity:1"/><stop offset="1" style="stop-color:rgb(34,150,209);stop-opacity:1"/></linearGradient>        <linearGradient id="_Linear10" x1="0" y1="0" x2="1" y2="0" gradientUnits="userSpaceOnUse" gradientTransform="matrix(3.63676e-14,593.928,-593.928,3.63676e-14,539.442,170.079)"><stop offset="0" style="stop-color:rgb(30,114,187);stop-opacity:1"/><stop offset="0.61" style="stop-color:rgb(56,54,129);stop-opacity:1"/><stop offset="1" style="stop-color:rgb(177,27,109);stop-opacity:1"/></linearGradient>    </defs></svg>