<?xml version="1.0" encoding="UTF-8" standalone="no"?><!DOCTYPE svg PUBLIC "-//W3C//DTD SVG 1.1//EN" "http://www.w3.org/Graphics/SVG/1.1/DTD/svg11.dtd"><svg width="100%" height="100%" viewBox="0 0 1024 512" version="1.1" xmlns="http://www.w3.org/2000/svg" xmlns:xlink="http://www.w3.org/1999/xlink" xml:space="preserve" style="fill-rule:evenodd;clip-rule:evenodd;stroke-linejoin:round;stroke-miterlimit:2;"><title>Crowdo</title><desc>Crowdo is a regional Fintech platform offering a full portfolio of alternative financing solutions across Peer-to-Business Lending and Equity Crowdfunding. With operations in Singapore, Malaysia and Indonesia, Crowdo boasts a global community of over 30,000 members and has successfully financed more than 3,500 projects to date.</desc>    <g id="XMLID_14_" transform="matrix(0.679999,0,0,0.679999,-65.9822,18.7194)">        <g id="XMLID_22_" transform="matrix(2.36072,1.60241e-17,1.60241e-17,2.29529,-283.171,-293.624)">            <path d="M213.6,331.7c-29.5,0 -51.3,-22.7 -51.3,-51.5l0,-0.3c0,-28.5 21.5,-51.8 52.2,-51.8c18.9,0 30.2,6.3 39.5,15.4l-14,16.2c-7.7,-7 -15.6,-11.3 -25.6,-11.3c-16.9,0 -29,14 -29,31.2l0,0.3c0,17.2 11.9,31.5 29,31.5c11.4,0 18.4,-4.6 26.3,-11.7l14,14.2c-10.3,10.9 -21.8,17.8 -41.1,17.8Z" style="fill:rgb(215,25,32);fill-rule:nonzero;"/>        </g>        <g id="XMLID_19_" transform="matrix(2.36072,1.60241e-17,1.60241e-17,2.29529,-283.171,-293.624)">            <path d="M328.6,329.9l-21.5,-32l-17.3,0l0,32l-22,0l0,-100.1l45.8,0c23.6,0 37.8,12.4 37.8,33l0,0.3c0,16.2 -8.7,26.3 -21.5,31l24.5,35.8l-25.8,0Zm0.4,-65.9c0,-9.4 -6.6,-14.3 -17.3,-14.3l-21.9,0l0,28.8l22.3,0c10.7,0 16.9,-5.7 16.9,-14.2l0,-0.3Z" style="fill:rgb(215,25,32);fill-rule:nonzero;"/>        </g>        <g id="XMLID_16_" transform="matrix(2.36072,1.60241e-17,1.60241e-17,2.29529,-283.171,-293.624)">            <path d="M411.6,331.7c-30.9,0 -53.1,-23 -53.1,-51.5l0,-0.3c0,-28.5 22.5,-51.8 53.3,-51.8c30.8,0 53.1,23 53.1,51.5l0,0.3c0,28.5 -22.4,51.8 -53.3,51.8Zm30.3,-51.8c0,-17.2 -12.6,-31.5 -30.3,-31.5c-17.7,0 -30,14 -30,31.2l0,0.3c0,17.2 12.6,31.5 30.3,31.5c17.7,0 30,-14 30,-31.2l0,-0.3Z" style="fill:rgb(215,25,32);fill-rule:nonzero;"/>        </g>        <g id="XMLID_15_" transform="matrix(2.36072,1.60241e-17,1.60241e-17,2.29529,-283.171,-293.624)">            <path d="M579.3,330.7l-19.2,0l-22.6,-65.5l-22.6,65.5l-19.2,0l-34.2,-100.8l23.6,0l20.7,67.8l22.5,-68.1l18.9,0l22.5,68.1l20.7,-67.8l23,0l-34.1,100.8Z" style="fill:rgb(215,25,32);fill-rule:nonzero;"/>        </g>        <g id="XMLID_1256_" transform="matrix(2.36072,1.60241e-17,1.60241e-17,2.29529,-283.171,-293.624)">            <path d="M744.7,228.3c-13.9,0 -25.9,4.9 -35.1,12.6c4.9,5.6 8.7,12.1 11.2,19.3c5.3,-7.1 13.5,-11.7 23.6,-11.7c17.7,0 30.3,14.3 30.3,31.5l0,0.3c0,17.2 -12.3,31.2 -30,31.2c-17.7,0 -30.4,-14.6 -30.4,-31.7c0,-28.2 -21.8,-50 -53.3,-50l-39,0l0,100.1l39,0c13.6,0 25.2,-4.2 34.2,-11.1c-4.6,-5.7 -8.2,-12.1 -10.5,-19.2c-5.3,6.5 -13.5,10.5 -23.6,10.5l-17,0l0,-60.4l17,0c18,0 30.2,12.7 30.2,30.4c0,28.5 22.2,51.7 53.1,51.7c30.9,0 53.3,-23.3 53.3,-51.8l0,-0.3c0,-28.3 -22.2,-51.4 -53,-51.4Z" style="fill:rgb(215,25,32);fill-rule:nonzero;"/>        </g>    </g></svg>