<?xml version="1.0" encoding="UTF-8" standalone="no"?><!DOCTYPE svg PUBLIC "-//W3C//DTD SVG 1.1//EN" "http://www.w3.org/Graphics/SVG/1.1/DTD/svg11.dtd"><svg width="100%" height="100%" viewBox="0 0 1024 512" version="1.1" xmlns="http://www.w3.org/2000/svg" xmlns:xlink="http://www.w3.org/1999/xlink" xml:space="preserve" style="fill-rule:evenodd;clip-rule:evenodd;stroke-linejoin:round;stroke-miterlimit:2;"><title>VQF</title><desc></desc>    <g transform="matrix(4.3225,0,0,4.3225,-1476.68,-4032.77)">        <g transform="matrix(1.33333,0,0,1.33333,400.345,994.158)">            <path d="M0,-7.635l0.523,0l1.287,5.202c0.164,0.677 0.284,1.211 0.426,1.756l0.022,0c0.141,-0.535 0.261,-1.092 0.425,-1.756l1.287,-5.202l0.535,0l-1.964,7.635l-0.578,0l-1.963,-7.635Z" style="fill:rgb(0,149,218);fill-rule:nonzero;"/>        </g>        <g transform="matrix(1.33333,0,0,1.33333,408.501,991.726)">            <path d="M0,-2.071l0,0.84l2.629,0l0,-0.84c0,-0.948 -0.502,-1.472 -1.331,-1.472c-0.807,0 -1.298,0.524 -1.298,1.472m3.185,2.183c-0.098,1.132 -0.742,1.819 -1.897,1.819c-1.08,0 -1.757,-0.73 -1.757,-1.931l0,-2.071c0,-1.211 0.688,-1.931 1.767,-1.931c1.091,0 1.8,0.72 1.8,1.931l0,1.276l-3.098,0l0,0.795c0,0.949 0.491,1.474 1.298,1.474c0.884,0 1.32,-0.491 1.408,-1.362l0.479,0Z" style="fill:rgb(0,149,218);fill-rule:nonzero;"/>        </g>        <g transform="matrix(1.33333,0,0,1.33333,418.798,994.056)">            <path d="M0,-5.683l0,0.502c-0.207,-0.066 -0.426,-0.099 -0.687,-0.099c-0.84,0 -1.429,0.73 -1.429,1.875l0,3.47l-0.47,0l0,-5.693l0.404,0l0.066,0.719l0,0.13c0.305,-0.589 0.829,-0.969 1.527,-0.969c0.24,0 0.436,0.02 0.589,0.065" style="fill:rgb(0,149,218);fill-rule:nonzero;"/>        </g>        <g transform="matrix(1.33333,0,0,1.33333,421.298,991.726)">            <path d="M0,-2.071l0,0.84l2.629,0l0,-0.84c0,-0.948 -0.502,-1.472 -1.33,-1.472c-0.808,0 -1.299,0.524 -1.299,1.472m3.185,2.183c-0.097,1.132 -0.742,1.819 -1.898,1.819c-1.079,0 -1.756,-0.73 -1.756,-1.931l0,-2.071c0,-1.211 0.688,-1.931 1.768,-1.931c1.09,0 1.799,0.72 1.799,1.931l0,1.276l-3.098,0l0,0.795c0,0.949 0.491,1.474 1.299,1.474c0.883,0 1.319,-0.491 1.407,-1.362l0.479,0Z" style="fill:rgb(0,149,218);fill-rule:nonzero;"/>        </g>        <g transform="matrix(1.33333,0,0,1.33333,-28,827.613)">            <path d="M342.111,119.204l0.469,0l0,5.703l-0.469,0l0,-5.703Zm-0.185,-1.506c0,-0.25 0.164,-0.425 0.415,-0.425c0.262,0 0.425,0.175 0.425,0.425c0,0.262 -0.163,0.426 -0.425,0.426c-0.251,0 -0.415,-0.164 -0.415,-0.426" style="fill:rgb(0,149,218);fill-rule:nonzero;"/>        </g>        <g transform="matrix(1.33333,0,0,1.33333,436.321,991.305)">            <path d="M0,-1.547l0,3.685l-0.469,0l0,-3.62c0,-1.188 -0.371,-1.756 -1.123,-1.756c-0.84,0 -1.43,0.73 -1.43,1.898l0,3.478l-0.469,0l0,-5.704l0.404,0l0.065,0.742l0,0.098c0.306,-0.589 0.83,-0.959 1.539,-0.959c0.905,0 1.483,0.654 1.483,2.138" style="fill:rgb(0,149,218);fill-rule:nonzero;"/>        </g>        <g transform="matrix(1.33333,0,0,1.33333,447.153,987.131)">            <path d="M0,4.833l0,0.435l-3.294,0l0,-0.392l2.661,-4.875l-2.508,0l0,-0.436l3.076,0l0,0.381l-2.662,4.887l2.727,0Z" style="fill:rgb(0,149,218);fill-rule:nonzero;"/>        </g>        <g transform="matrix(1.33333,0,0,1.33333,454.002,994.317)">            <path d="M0,-5.825l0,5.704l-0.404,0l-0.065,-0.742l0,-0.098c-0.306,0.59 -0.83,0.961 -1.537,0.961c-0.906,0 -1.484,-0.655 -1.484,-2.138l0,-3.687l0.468,0l0,3.621c0,1.189 0.371,1.756 1.124,1.756c0.84,0 1.429,-0.73 1.429,-1.897l0,-3.48l0.469,0Z" style="fill:rgb(0,149,218);fill-rule:nonzero;"/>        </g>        <g transform="matrix(1.33333,0,0,1.33333,460.356,994.056)">            <path d="M0,-5.683l0,0.502c-0.207,-0.066 -0.425,-0.099 -0.686,-0.099c-0.84,0 -1.429,0.73 -1.429,1.875l0,3.47l-0.469,0l0,-5.693l0.403,0l0.066,0.719l0,0.13c0.306,-0.589 0.828,-0.969 1.528,-0.969c0.239,0 0.435,0.02 0.587,0.065" style="fill:rgb(0,149,218);fill-rule:nonzero;"/>        </g>        <g transform="matrix(1.33333,0,0,1.33333,470.737,985.301)">            <path d="M0,6.086l-0.851,-1.004l0.328,-0.283l0.861,1.015c0.273,-0.329 0.426,-0.808 0.426,-1.43l0,-3.108c0,-1.255 -0.589,-1.919 -1.626,-1.919c-1.025,0 -1.614,0.664 -1.614,1.919l0,3.108c0,1.244 0.589,1.909 1.614,1.909c0.339,0 0.622,-0.065 0.862,-0.207m0.961,1.124l-0.633,-0.752c-0.328,0.207 -0.732,0.314 -1.19,0.314c-1.308,0 -2.116,-0.882 -2.116,-2.388l0,-3.108c0,-1.527 0.808,-2.4 2.116,-2.4c1.321,0 2.127,0.873 2.127,2.4l0,3.108c0,0.785 -0.218,1.396 -0.609,1.81l0.621,0.732l-0.316,0.284Z" style="fill:rgb(0,149,218);fill-rule:nonzero;"/>        </g>        <g transform="matrix(1.33333,0,0,1.33333,479.784,994.317)">            <path d="M0,-5.825l0,5.704l-0.405,0l-0.065,-0.742l0,-0.098c-0.306,0.59 -0.829,0.961 -1.538,0.961c-0.904,0 -1.482,-0.655 -1.482,-2.138l0,-3.687l0.468,0l0,3.621c0,1.189 0.371,1.756 1.123,1.756c0.84,0 1.429,-0.73 1.429,-1.897l0,-3.48l0.47,0Z" style="fill:rgb(0,149,218);fill-rule:nonzero;"/>        </g>        <g transform="matrix(1.33333,0,0,1.33333,486.442,988.763)">            <path d="M0,2.388l0,-1.2l-1.19,0c-0.937,0 -1.429,0.447 -1.429,1.255c0,0.818 0.514,1.264 1.287,1.264c0.852,0 1.332,-0.512 1.332,-1.319m0.469,-2.367l0,4.024l-0.414,0l-0.045,-0.61c-0.25,0.426 -0.719,0.731 -1.407,0.731c-1.003,0 -1.701,-0.632 -1.701,-1.735c0,-1.067 0.688,-1.679 1.919,-1.679l1.179,0l0,-0.72c0,-0.874 -0.427,-1.364 -1.199,-1.364c-0.732,0 -1.223,0.448 -1.244,1.102l-0.48,0c0.054,-0.916 0.708,-1.548 1.733,-1.548c1.038,0 1.659,0.676 1.659,1.799" style="fill:rgb(0,149,218);fill-rule:nonzero;"/>        </g>        <g transform="matrix(1.33333,0,0,1.33333,-28,827.276)">            <rect x="388.504" y="117.274" width="0.469" height="7.885" style="fill:rgb(0,149,218);"/>        </g>        <g transform="matrix(1.33333,0,0,1.33333,-28,827.613)">            <path d="M391.176,119.204l0.469,0l0,5.703l-0.469,0l0,-5.703Zm-0.185,-1.506c0,-0.25 0.164,-0.425 0.414,-0.425c0.263,0 0.426,0.175 0.426,0.425c0,0.262 -0.163,0.426 -0.426,0.426c-0.25,0 -0.414,-0.164 -0.414,-0.426" style="fill:rgb(0,149,218);fill-rule:nonzero;"/>        </g>        <g transform="matrix(1.33333,0,0,1.33333,499.908,985.373)">            <path d="M0,6.184l0,0.448l-0.272,0c-1.003,0 -1.538,-0.568 -1.538,-1.615l0,-3.697l-0.84,0l0,-0.437l0.84,0l0,-1.331l0.469,0l0,1.331l1.232,0l0,0.437l-1.232,0l0,3.697c0,0.785 0.349,1.167 1.069,1.167l0.272,0Z" style="fill:rgb(0,149,218);fill-rule:nonzero;"/>        </g>        <g transform="matrix(1.33333,0,0,1.33333,504.618,993.836)">            <path d="M0,-6.969c0,-0.219 0.153,-0.36 0.382,-0.36c0.218,0 0.359,0.141 0.359,0.36c0,0.229 -0.141,0.359 -0.359,0.359c-0.229,0 -0.382,-0.13 -0.382,-0.359m-1.199,0c0,-0.219 0.141,-0.36 0.37,-0.36c0.218,0 0.359,0.141 0.359,0.36c0,0.229 -0.141,0.359 -0.359,0.359c-0.229,0 -0.37,-0.13 -0.37,-0.359m2.159,5.552l0,-1.2l-1.19,0c-0.937,0 -1.428,0.447 -1.428,1.253c0,0.819 0.512,1.266 1.287,1.266c0.852,0 1.331,-0.512 1.331,-1.319m0.468,-2.367l0,4.025l-0.414,0l-0.044,-0.611c-0.25,0.424 -0.719,0.73 -1.407,0.73c-1.002,0 -1.701,-0.632 -1.701,-1.734c0,-1.068 0.688,-1.679 1.92,-1.679l1.178,0l0,-0.721c0,-0.873 -0.425,-1.363 -1.201,-1.363c-0.729,0 -1.22,0.447 -1.243,1.102l-0.479,0c0.055,-0.917 0.709,-1.548 1.733,-1.548c1.037,0 1.658,0.674 1.658,1.799" style="fill:rgb(0,149,218);fill-rule:nonzero;"/>        </g>        <g transform="matrix(1.33333,0,0,1.33333,512.252,985.373)">            <path d="M0,6.184l0,0.448l-0.273,0c-1.002,0 -1.536,-0.568 -1.536,-1.615l0,-3.697l-0.841,0l0,-0.437l0.841,0l0,-1.331l0.468,0l0,1.331l1.232,0l0,0.437l-1.232,0l0,3.697c0,0.785 0.349,1.167 1.068,1.167l0.273,0Z" style="fill:rgb(0,149,218);fill-rule:nonzero;"/>        </g>        <g transform="matrix(1.33333,0,0,1.33333,513.998,988.705)">            <path d="M0,2.474l0.47,0c0.02,0.84 0.511,1.276 1.341,1.276c0.707,0 1.209,-0.392 1.209,-1.047c0,-1.526 -2.955,-1.068 -2.955,-2.977c0,-0.873 0.676,-1.461 1.636,-1.461c1.015,0 1.668,0.632 1.69,1.612l-0.468,0c-0.023,-0.74 -0.469,-1.166 -1.222,-1.166c-0.698,0 -1.156,0.394 -1.156,1.026c0,1.472 2.956,1.004 2.956,2.978c0,0.895 -0.72,1.494 -1.69,1.494c-1.08,0 -1.791,-0.654 -1.811,-1.735" style="fill:rgb(0,149,218);fill-rule:nonzero;"/>        </g>        <g transform="matrix(1.33333,0,0,1.33333,520.614,988.705)">            <path d="M0,2.474l0.469,0c0.021,0.84 0.511,1.276 1.341,1.276c0.709,0 1.211,-0.392 1.211,-1.047c0,-1.526 -2.957,-1.068 -2.957,-2.977c0,-0.873 0.676,-1.461 1.637,-1.461c1.014,0 1.668,0.632 1.689,1.612l-0.467,0c-0.023,-0.74 -0.47,-1.166 -1.222,-1.166c-0.698,0 -1.156,0.394 -1.156,1.026c0,1.472 2.956,1.004 2.956,2.978c0,0.895 -0.72,1.494 -1.691,1.494c-1.08,0 -1.789,-0.654 -1.81,-1.735" style="fill:rgb(0,149,218);fill-rule:nonzero;"/>        </g>        <g transform="matrix(1.33333,0,0,1.33333,-28,827.613)">            <path d="M416.793,119.204l0.469,0l0,5.703l-0.469,0l0,-5.703Zm-0.185,-1.506c0,-0.25 0.162,-0.425 0.414,-0.425c0.262,0 0.426,0.175 0.426,0.425c0,0.262 -0.164,0.426 -0.426,0.426c-0.252,0 -0.414,-0.164 -0.414,-0.426" style="fill:rgb(0,149,218);fill-rule:nonzero;"/>        </g>        <g transform="matrix(1.33333,0,0,1.33333,531.053,988.965)">            <path d="M0,2.072l0,-2.071c0,-1.211 0.677,-1.931 1.735,-1.931c1.101,0 1.778,0.72 1.8,1.963l-0.481,0c-0.021,-0.982 -0.502,-1.505 -1.319,-1.505c-0.786,0 -1.265,0.523 -1.265,1.473l0,2.071c0,0.949 0.49,1.474 1.275,1.474c0.83,0 1.309,-0.525 1.331,-1.517l0.48,0c-0.021,1.243 -0.709,1.973 -1.811,1.973c-1.068,0 -1.745,-0.73 -1.745,-1.93" style="fill:rgb(0,149,218);fill-rule:nonzero;"/>        </g>        <g transform="matrix(1.33333,0,0,1.33333,542.904,988.413)">            <path d="M0,0.753l0,3.556l-0.469,0l0,-3.523c0,-1.287 -0.381,-1.855 -1.123,-1.855c-0.839,0 -1.43,0.73 -1.43,1.908l0,3.47l-0.469,0l0,-7.865l0.469,0l0,2.999c0.307,-0.588 0.841,-0.959 1.539,-0.959c0.938,0 1.483,0.708 1.483,2.269" style="fill:rgb(0,149,218);fill-rule:nonzero;"/>        </g>        <g transform="matrix(1.33333,0,0,1.33333,546.145,991.726)">            <path d="M0,-2.071l0,0.84l2.63,0l0,-0.84c0,-0.948 -0.502,-1.472 -1.331,-1.472c-0.807,0 -1.299,0.524 -1.299,1.472m3.186,2.183c-0.098,1.132 -0.742,1.819 -1.897,1.819c-1.08,0 -1.758,-0.73 -1.758,-1.931l0,-2.071c0,-1.211 0.688,-1.931 1.768,-1.931c1.091,0 1.8,0.72 1.8,1.931l0,1.276l-3.099,0l0,0.795c0,0.949 0.492,1.474 1.299,1.474c0.884,0 1.318,-0.491 1.406,-1.362l0.481,0Z" style="fill:rgb(0,149,218);fill-rule:nonzero;"/>        </g>        <g transform="matrix(1.33333,0,0,1.33333,556.442,994.056)">            <path d="M0,-5.683l0,0.502c-0.207,-0.066 -0.426,-0.099 -0.688,-0.099c-0.839,0 -1.428,0.73 -1.428,1.875l0,3.47l-0.47,0l0,-5.693l0.403,0l0.067,0.719l0,0.13c0.305,-0.589 0.829,-0.969 1.526,-0.969c0.24,0 0.438,0.02 0.59,0.065" style="fill:rgb(0,149,218);fill-rule:nonzero;"/>        </g>        <g transform="matrix(1.33333,0,0,1.33333,563.132,994.317)">            <path d="M0,-5.825l0,5.704l-0.403,0l-0.067,-0.742l0,-0.098c-0.305,0.59 -0.828,0.961 -1.537,0.961c-0.906,0 -1.483,-0.655 -1.483,-2.138l0,-3.687l0.468,0l0,3.621c0,1.189 0.372,1.756 1.124,1.756c0.84,0 1.428,-0.73 1.428,-1.897l0,-3.48l0.47,0Z" style="fill:rgb(0,149,218);fill-rule:nonzero;"/>        </g>        <g transform="matrix(1.33333,0,0,1.33333,570.692,991.305)">            <path d="M0,-1.547l0,3.685l-0.468,0l0,-3.62c0,-1.188 -0.371,-1.756 -1.124,-1.756c-0.839,0 -1.429,0.73 -1.429,1.898l0,3.478l-0.469,0l0,-5.704l0.403,0l0.066,0.742l0,0.098c0.306,-0.589 0.83,-0.959 1.539,-0.959c0.904,0 1.482,0.654 1.482,2.138" style="fill:rgb(0,149,218);fill-rule:nonzero;"/>        </g>        <g transform="matrix(1.33333,0,0,1.33333,577.424,991.875)">            <path d="M0,-0.307l0,-1.918c0,-0.918 -0.556,-1.441 -1.242,-1.441c-0.819,0 -1.377,0.523 -1.377,1.57l0,1.734c0,0.961 0.558,1.494 1.377,1.494c0.74,0 1.242,-0.533 1.242,-1.439m0.48,-3.687l0,6.077c0,1.057 -0.665,1.723 -1.701,1.723c-1.058,0 -1.724,-0.633 -1.779,-1.604l0.459,0c0.065,0.731 0.524,1.156 1.32,1.156c0.762,0 1.221,-0.459 1.221,-1.275l0,-1.179c-0.283,0.426 -0.763,0.677 -1.308,0.677c-1.037,0 -1.78,-0.732 -1.78,-1.943l0,-1.734c0,-1.287 0.733,-2.017 1.758,-2.017c0.578,0 1.057,0.273 1.352,0.773l0.044,-0.654l0.414,0Z" style="fill:rgb(0,149,218);fill-rule:nonzero;"/>        </g>        <g transform="matrix(1.33333,0,0,1.33333,405.377,1009.74)">            <path d="M0,-5.705l-1.625,5.705l-0.513,0l-1.636,-5.705l0.501,0l0.982,3.545c0.12,0.492 0.295,1.146 0.393,1.539l0.022,0c0.109,-0.393 0.272,-1.047 0.403,-1.539l0.982,-3.545l0.491,0Z" style="fill:rgb(0,149,218);fill-rule:nonzero;"/>        </g>        <g transform="matrix(1.33333,0,0,1.33333,411.454,1004.58)">            <path d="M0,2.041l0,-2.039c0,-0.971 -0.502,-1.494 -1.33,-1.494c-0.829,0 -1.342,0.523 -1.342,1.494l0,2.039c0,0.971 0.513,1.494 1.342,1.494c0.828,0 1.33,-0.523 1.33,-1.494m-3.142,0l0,-2.039c0,-1.234 0.699,-1.953 1.812,-1.953c1.101,0 1.81,0.719 1.81,1.953l0,2.039c0,1.232 -0.709,1.951 -1.81,1.951c-1.113,0 -1.812,-0.719 -1.812,-1.951" style="fill:rgb(0,149,218);fill-rule:nonzero;"/>        </g>        <g transform="matrix(1.33333,0,0,1.33333,419.467,1006.9)">            <path d="M0,-1.551l0,3.688l-0.469,0l0,-3.622c0,-1.189 -0.371,-1.755 -1.123,-1.755c-0.84,0 -1.43,0.73 -1.43,1.896l0,3.481l-0.468,0l0,-5.704l0.403,0l0.065,0.741l0,0.097c0.307,-0.588 0.83,-0.959 1.539,-0.959c0.905,0 1.483,0.654 1.483,2.137" style="fill:rgb(0,149,218);fill-rule:nonzero;"/>        </g>        <g transform="matrix(1.33333,0,0,1.33333,427.479,1009.13)">            <path d="M0,-6.721l0,3.186l2.672,0l0,0.459l-2.672,0l0,3.533l-0.491,0l0,-7.635l3.36,0l0,0.457l-2.869,0Z" style="fill:rgb(0,149,218);fill-rule:nonzero;"/>        </g>        <g transform="matrix(1.33333,0,0,1.33333,-28,858.788)">            <path d="M346.037,107.514l0.469,0l0,5.703l-0.469,0l0,-5.703Zm-0.185,-1.506c0,-0.25 0.163,-0.426 0.414,-0.426c0.261,0 0.425,0.176 0.425,0.426c0,0.262 -0.164,0.426 -0.425,0.426c-0.251,0 -0.414,-0.164 -0.414,-0.426" style="fill:rgb(0,149,218);fill-rule:nonzero;"/>        </g>        <g transform="matrix(1.33333,0,0,1.33333,441.554,1006.9)">            <path d="M0,-1.551l0,3.688l-0.469,0l0,-3.622c0,-1.189 -0.371,-1.755 -1.123,-1.755c-0.839,0 -1.429,0.73 -1.429,1.896l0,3.481l-0.469,0l0,-5.704l0.404,0l0.065,0.741l0,0.097c0.306,-0.588 0.829,-0.959 1.538,-0.959c0.905,0 1.483,0.654 1.483,2.137" style="fill:rgb(0,149,218);fill-rule:nonzero;"/>        </g>        <g transform="matrix(1.33333,0,0,1.33333,448.113,1004.35)">            <path d="M0,2.387l0,-1.199l-1.189,0c-0.938,0 -1.429,0.447 -1.429,1.254c0,0.818 0.513,1.265 1.286,1.265c0.851,0 1.332,-0.511 1.332,-1.32m0.469,-2.365l0,4.023l-0.415,0l-0.044,-0.611c-0.25,0.426 -0.719,0.732 -1.406,0.732c-1.004,0 -1.702,-0.634 -1.702,-1.736c0,-1.068 0.687,-1.678 1.919,-1.678l1.179,0l0,-0.72c0,-0.874 -0.426,-1.364 -1.2,-1.364c-0.731,0 -1.221,0.446 -1.243,1.102l-0.481,0c0.055,-0.916 0.71,-1.549 1.735,-1.549c1.036,0 1.658,0.676 1.658,1.801" style="fill:rgb(0,149,218);fill-rule:nonzero;"/>        </g>        <g transform="matrix(1.33333,0,0,1.33333,456.298,1006.9)">            <path d="M0,-1.551l0,3.688l-0.468,0l0,-3.622c0,-1.189 -0.371,-1.755 -1.123,-1.755c-0.84,0 -1.43,0.73 -1.43,1.896l0,3.481l-0.469,0l0,-5.704l0.405,0l0.064,0.741l0,0.097c0.307,-0.588 0.83,-0.959 1.539,-0.959c0.904,0 1.482,0.654 1.482,2.137" style="fill:rgb(0,149,218);fill-rule:nonzero;"/>        </g>        <g transform="matrix(1.33333,0,0,1.33333,462.741,1002.72)">            <path d="M0,4.834l0,0.436l-3.294,0l0,-0.393l2.662,-4.875l-2.508,0l0,-0.438l3.075,0l0,0.383l-2.661,4.887l2.726,0Z" style="fill:rgb(0,149,218);fill-rule:nonzero;"/>        </g>        <g transform="matrix(1.33333,0,0,1.33333,468.978,1001.83)">            <path d="M0,4.102l0,-1.877c0,-1.057 -0.567,-1.678 -1.308,-1.678c-0.829,0 -1.321,0.522 -1.321,1.547l0,1.944c0,1.046 0.535,1.58 1.342,1.58c0.709,0 1.287,-0.557 1.287,-1.516m0.459,-6.053l0,7.885l-0.393,0l-0.054,-0.6c-0.295,0.436 -0.807,0.719 -1.397,0.719c-0.992,0 -1.712,-0.728 -1.712,-2.015l0,-1.944c0,-1.254 0.655,-1.984 1.679,-1.984c0.612,0 1.146,0.283 1.418,0.84l0,-2.901l0.459,0Z" style="fill:rgb(0,149,218);fill-rule:nonzero;"/>        </g>        <g transform="matrix(1.33333,0,0,1.33333,-28,858.788)">            <path d="M375.373,107.514l0.469,0l0,5.703l-0.469,0l0,-5.703Zm-0.185,-1.506c0,-0.25 0.163,-0.426 0.414,-0.426c0.261,0 0.426,0.176 0.426,0.426c0,0.262 -0.165,0.426 -0.426,0.426c-0.251,0 -0.414,-0.164 -0.414,-0.426" style="fill:rgb(0,149,218);fill-rule:nonzero;"/>        </g>        <g transform="matrix(1.33333,0,0,1.33333,476.453,1007.32)">            <path d="M0,-2.074l0,0.84l2.629,0l0,-0.84c0,-0.947 -0.502,-1.471 -1.33,-1.471c-0.809,0 -1.299,0.524 -1.299,1.471m3.184,2.182c-0.096,1.134 -0.741,1.822 -1.897,1.822c-1.08,0 -1.756,-0.731 -1.756,-1.932l0,-2.072c0,-1.211 0.687,-1.93 1.768,-1.93c1.09,0 1.798,0.719 1.798,1.93l0,1.277l-3.097,0l0,0.795c0,0.949 0.49,1.473 1.299,1.473c0.882,0 1.32,-0.49 1.406,-1.363l0.479,0Z" style="fill:rgb(0,149,218);fill-rule:nonzero;"/>        </g>        <g transform="matrix(1.33333,0,0,1.33333,487.956,1006.9)">            <path d="M0,-1.551l0,3.688l-0.469,0l0,-3.622c0,-1.189 -0.371,-1.755 -1.123,-1.755c-0.84,0 -1.43,0.73 -1.43,1.896l0,3.481l-0.469,0l0,-5.704l0.404,0l0.065,0.741l0,0.097c0.306,-0.588 0.83,-0.959 1.539,-0.959c0.905,0 1.483,0.654 1.483,2.137" style="fill:rgb(0,149,218);fill-rule:nonzero;"/>        </g>        <g transform="matrix(1.33333,0,0,1.33333,490.268,1004.29)">            <path d="M0,2.475l0.469,0c0.021,0.84 0.512,1.277 1.342,1.277c0.709,0 1.21,-0.392 1.21,-1.047c0,-1.527 -2.956,-1.068 -2.956,-2.978c0,-0.873 0.676,-1.461 1.635,-1.461c1.015,0 1.669,0.633 1.692,1.613l-0.47,0c-0.022,-0.74 -0.469,-1.166 -1.222,-1.166c-0.696,0 -1.155,0.393 -1.155,1.026c0,1.472 2.957,1.004 2.957,2.978c0,0.893 -0.722,1.492 -1.691,1.492c-1.08,0 -1.789,-0.654 -1.811,-1.734" style="fill:rgb(0,149,218);fill-rule:nonzero;"/>        </g>        <g transform="matrix(1.33333,0,0,1.33333,500.197,1000.96)">            <path d="M0,6.182l0,0.449l-0.271,0c-1.004,0 -1.538,-0.568 -1.538,-1.615l0,-3.697l-0.84,0l0,-0.438l0.84,0l0,-1.33l0.467,0l0,1.33l1.234,0l0,0.438l-1.234,0l0,3.697c0,0.785 0.351,1.166 1.071,1.166l0.271,0Z" style="fill:rgb(0,149,218);fill-rule:nonzero;"/>        </g>        <g transform="matrix(1.33333,0,0,1.33333,-28,858.452)">            <rect x="397.849" y="105.582" width="0.469" height="7.887" style="fill:rgb(0,149,218);"/>        </g>        <g transform="matrix(1.33333,0,0,1.33333,506.465,1007.32)">            <path d="M0,-2.074l0,0.84l2.628,0l0,-0.84c0,-0.947 -0.501,-1.471 -1.33,-1.471c-0.807,0 -1.298,0.524 -1.298,1.471m3.184,2.182c-0.097,1.134 -0.74,1.822 -1.898,1.822c-1.079,0 -1.756,-0.731 -1.756,-1.932l0,-2.072c0,-1.211 0.687,-1.93 1.768,-1.93c1.091,0 1.799,0.719 1.799,1.93l0,1.277l-3.097,0l0,0.795c0,0.949 0.491,1.473 1.298,1.473c0.883,0 1.32,-0.49 1.407,-1.363l0.479,0Z" style="fill:rgb(0,149,218);fill-rule:nonzero;"/>        </g>        <g transform="matrix(1.33333,0,0,1.33333,-28,858.788)">            <path d="M405.985,107.514l0.469,0l0,5.703l-0.469,0l0,-5.703Zm-0.184,-1.506c0,-0.25 0.164,-0.426 0.414,-0.426c0.261,0 0.425,0.176 0.425,0.426c0,0.262 -0.164,0.426 -0.425,0.426c-0.25,0 -0.414,-0.164 -0.414,-0.426" style="fill:rgb(0,149,218);fill-rule:nonzero;"/>        </g>        <g transform="matrix(1.33333,0,0,1.33333,516.338,1004.29)">            <path d="M0,2.475l0.469,0c0.021,0.84 0.513,1.277 1.343,1.277c0.707,0 1.209,-0.392 1.209,-1.047c0,-1.527 -2.955,-1.068 -2.955,-2.978c0,-0.873 0.676,-1.461 1.635,-1.461c1.016,0 1.67,0.633 1.691,1.613l-0.468,0c-0.022,-0.74 -0.469,-1.166 -1.223,-1.166c-0.697,0 -1.155,0.393 -1.155,1.026c0,1.472 2.956,1.004 2.956,2.978c0,0.893 -0.721,1.492 -1.69,1.492c-1.08,0 -1.791,-0.654 -1.812,-1.734" style="fill:rgb(0,149,218);fill-rule:nonzero;"/>        </g>        <g transform="matrix(1.33333,0,0,1.33333,526.27,1000.96)">            <path d="M0,6.182l0,0.449l-0.273,0c-1.002,0 -1.538,-0.568 -1.538,-1.615l0,-3.697l-0.839,0l0,-0.438l0.839,0l0,-1.33l0.469,0l0,1.33l1.233,0l0,0.438l-1.233,0l0,3.697c0,0.785 0.35,1.166 1.069,1.166l0.273,0Z" style="fill:rgb(0,149,218);fill-rule:nonzero;"/>        </g>        <g transform="matrix(1.33333,0,0,1.33333,533.062,1009.9)">            <path d="M0,-5.824l0,5.705l-0.405,0l-0.066,-0.742l0,-0.098c-0.305,0.588 -0.828,0.959 -1.537,0.959c-0.905,0 -1.483,-0.654 -1.483,-2.136l0,-3.688l0.469,0l0,3.621c0,1.19 0.37,1.756 1.123,1.756c0.84,0 1.428,-0.729 1.428,-1.897l0,-3.48l0.471,0Z" style="fill:rgb(0,149,218);fill-rule:nonzero;"/>        </g>        <g transform="matrix(1.33333,0,0,1.33333,540.622,1006.9)">            <path d="M0,-1.551l0,3.688l-0.469,0l0,-3.622c0,-1.189 -0.371,-1.755 -1.125,-1.755c-0.839,0 -1.428,0.73 -1.428,1.896l0,3.481l-0.47,0l0,-5.704l0.404,0l0.066,0.741l0,0.097c0.305,-0.588 0.829,-0.959 1.538,-0.959c0.906,0 1.484,0.654 1.484,2.137" style="fill:rgb(0,149,218);fill-rule:nonzero;"/>        </g>        <g transform="matrix(1.33333,0,0,1.33333,547.353,1007.46)">            <path d="M0,-0.304l0,-1.92c0,-0.916 -0.556,-1.439 -1.243,-1.439c-0.817,0 -1.375,0.523 -1.375,1.57l0,1.734c0,0.959 0.558,1.494 1.375,1.494c0.742,0 1.243,-0.535 1.243,-1.439m0.481,-3.688l0,6.077c0,1.056 -0.666,1.722 -1.703,1.722c-1.057,0 -1.723,-0.632 -1.778,-1.603l0.458,0c0.066,0.73 0.525,1.158 1.32,1.158c0.764,0 1.222,-0.459 1.222,-1.277l0,-1.178c-0.284,0.426 -0.763,0.676 -1.308,0.676c-1.036,0 -1.778,-0.731 -1.778,-1.942l0,-1.734c0,-1.287 0.731,-2.018 1.755,-2.018c0.579,0 1.058,0.274 1.353,0.774l0.043,-0.655l0.416,0Z" style="fill:rgb(0,149,218);fill-rule:nonzero;"/>        </g>        <g transform="matrix(1.33333,0,0,1.33333,551.324,1007.32)">            <path d="M0,-2.074l0,0.84l2.629,0l0,-0.84c0,-0.947 -0.502,-1.471 -1.331,-1.471c-0.808,0 -1.298,0.524 -1.298,1.471m3.185,2.182c-0.098,1.134 -0.743,1.822 -1.898,1.822c-1.08,0 -1.757,-0.731 -1.757,-1.932l0,-2.072c0,-1.211 0.688,-1.93 1.768,-1.93c1.092,0 1.799,0.719 1.799,1.93l0,1.277l-3.097,0l0,0.795c0,0.949 0.49,1.473 1.298,1.473c0.883,0 1.32,-0.49 1.406,-1.363l0.481,0Z" style="fill:rgb(0,149,218);fill-rule:nonzero;"/>        </g>        <g transform="matrix(1.33333,0,0,1.33333,562.825,1006.9)">            <path d="M0,-1.551l0,3.688l-0.469,0l0,-3.622c0,-1.189 -0.371,-1.755 -1.123,-1.755c-0.84,0 -1.429,0.73 -1.429,1.896l0,3.481l-0.469,0l0,-5.704l0.403,0l0.066,0.741l0,0.097c0.306,-0.588 0.83,-0.959 1.539,-0.959c0.904,0 1.482,0.654 1.482,2.137" style="fill:rgb(0,149,218);fill-rule:nonzero;"/>        </g>        <g transform="matrix(1.33333,0,0,1.33333,362.749,994.145)">            <path d="M0,-10.9l1.65,0l1.308,6.012c0.218,0.965 0.389,2.023 0.545,2.896l0.062,0c0.156,-0.873 0.343,-1.931 0.545,-2.896l1.324,-6.012l1.635,0l-2.679,10.9l-1.712,0l-2.678,-10.9Z" style="fill:rgb(0,149,218);fill-rule:nonzero;"/>        </g>        <g transform="matrix(1.33333,0,0,1.33333,389.349,992.173)">            <path d="M0,-7.94l0,3.254l3.286,0l0,1.433l-3.286,0l0,4.732l-1.572,0l0,-10.898l5.137,0l0,1.479l-3.565,0Z" style="fill:rgb(0,149,218);fill-rule:nonzero;"/>        </g>        <g transform="matrix(1.33333,0,0,1.33333,376.785,988.131)">            <path d="M0,1.054l0,-3.986c0,-1.369 0.577,-2.118 1.713,-2.118c1.121,0 1.713,0.749 1.713,2.118l0,3.986c0,1.37 -0.592,2.118 -1.713,2.118c-1.136,0 -1.713,-0.748 -1.713,-2.118m1.713,3.66c2.086,0 3.332,-1.386 3.332,-3.66l0,-3.986c0,-2.273 -1.246,-3.659 -3.332,-3.659c-2.086,0 -3.332,1.386 -3.332,3.659l0,3.986c0,2.059 1.024,3.386 2.767,3.619l-0.738,0.738l-0.563,-0.096l-0.261,1.555l4.631,0.775l0.26,-1.552l-3.597,-0.604l0.779,-0.777c0.018,0 0.036,0.002 0.054,0.002" style="fill:rgb(0,149,218);fill-rule:nonzero;"/>        </g>        <g transform="matrix(-1.33333,0,0,1.33333,742.233,793.721)">            <rect x="277.573" y="133.601" width="22.529" height="0.397" style="fill:rgb(0,149,218);"/>        </g>        <g transform="matrix(-1.33333,0,0,1.33333,342.151,979.817)">            <rect x="-13.765" y="-0.16" width="13.805" height="0.16" style="fill:rgb(0,149,218);"/>        </g>        <g transform="matrix(-1.33333,0,0,1.33333,342.151,982.001)">            <rect x="-14.172" y="-0.159" width="14.212" height="0.159" style="fill:rgb(0,149,218);"/>        </g>        <g transform="matrix(-1.33333,0,0,1.33333,342.149,984.186)">            <rect x="-14.581" y="-0.159" width="14.62" height="0.159" style="fill:rgb(0,149,218);"/>        </g>        <g transform="matrix(-1.33333,0,0,1.33333,342.15,986.369)">            <rect x="-14.988" y="-0.158" width="15.027" height="0.158" style="fill:rgb(0,149,218);"/>        </g>        <g transform="matrix(-1.33333,0,0,1.33333,342.221,994.145)">            <path d="M-16.325,-0.398l16.424,0l0,0.398l-16.523,0l0.099,-0.398Z" style="fill:rgb(0,149,218);fill-rule:nonzero;"/>        </g>    </g></svg>