<?xml version="1.0" encoding="UTF-8" standalone="no"?><!DOCTYPE svg PUBLIC "-//W3C//DTD SVG 1.1//EN" "http://www.w3.org/Graphics/SVG/1.1/DTD/svg11.dtd"><svg width="100%" height="100%" viewBox="0 0 1024 512" version="1.1" xmlns="http://www.w3.org/2000/svg" xmlns:xlink="http://www.w3.org/1999/xlink" xml:space="preserve" style="fill-rule:evenodd;clip-rule:evenodd;stroke-linejoin:round;stroke-miterlimit:2;"><title>Lendora</title><desc>Lendora is a Swiss crowdlending startup. Our platform connects borrowers and investors online to make credit more accessible and investing more rewarding.Since its launch, Lendora has gathered a community of more than 750 smart-money investors and has reached close to CHF 1.5mio in financed loans, with more than CHF 40mio worth of loan requests received on its platform.</desc>    <g transform="matrix(1.28507,0,0,1.28507,-179.195,93.4388)">        <g transform="matrix(0.39375,0,0,0.39375,129.975,32)">            <path d="M447.7,120.6c-2.3,-4.2 -5.5,-7.8 -9.1,-9.9l-139,-80.3l-47.5,-27.4c-6.9,-4 -18.1,-4 -25,0l-54.9,31.7l-131.7,75.9c-6.9,4 -12.5,13.7 -12.5,21.7l0,215.4c0,4.2 1.6,8.8 4.1,12.8c2.2,3.7 5.2,7 8.4,8.8l186.6,107.7c6.9,4 18.1,4 25,0l45.6,-26.3l140.9,-81.3c4.5,-2.6 8.2,-7.6 10.4,-13c1.2,-2.9 2.1,-5.9 2.1,-8.6l0,-213.6l0,-1.9c0,-3.8 -1.4,-7.9 -3.4,-11.7Z" style="fill:url(#_Linear1);fill-rule:nonzero;"/>            <g>                <path d="M40.5,110.6c-6.9,4 -12.5,13.7 -12.5,21.7l0,199.6l144.1,-297.2l-131.6,75.9Z" style="fill:rgb(136,182,92);fill-rule:nonzero;"/>                <path d="M449,356.3c1.2,-2.9 2.1,-5.9 2.1,-8.6l0,-213.5l-53.4,110.2l51.3,111.9Z" style="fill:rgb(161,195,124);fill-rule:nonzero;"/>                <path d="M297.7,450.7l140.9,-81.3c4.5,-2.6 8.2,-7.6 10.4,-13l-51.3,-111.9l-100,206.2Z" style="fill:rgb(106,168,77);fill-rule:nonzero;"/>                <path d="M447.7,120.6c-2.3,-4.2 -5.5,-7.8 -9.1,-9.9l-139,-80.3l63.7,138.9l84.4,-48.7Z" style="fill:rgb(161,195,124);fill-rule:nonzero;"/>                <path d="M299.5,30.4l-47.4,-27.4c-6.9,-4 -18.1,-4 -25,0l-54.9,31.7l-144.2,297.2l0,15.8c0,4.2 1.6,8.8 4.1,12.8l331.1,-191.2l-63.7,-138.9Z" style="fill:url(#_Linear2);fill-rule:nonzero;"/>                <path d="M397.7,244.4l53.4,-110.2l0,-1.9c0,-3.8 -1.4,-7.9 -3.4,-11.7l-84.4,48.7l34.4,75.1Z" style="fill:rgb(139,183,104);fill-rule:nonzero;"/>                <path d="M40.5,369.3l186.6,107.7c6.9,4 18.1,4 25,0l45.6,-26.3l100,-206.3l-34.4,-75.1l-331.2,191.2c2.2,3.7 5.2,6.9 8.4,8.8Z" style="fill:url(#_Linear3);fill-rule:nonzero;"/>            </g>            <path d="M189.7,126l0,178l38.6,38.6l0.1,0l0,-94.6l0,-122l-38.7,0Z" style="fill:url(#_Linear4);fill-rule:nonzero;"/>            <path d="M189.7,304l38.6,38.6l75.8,0l0,-38.6l-114.4,0Z" style="fill:white;fill-rule:nonzero;"/>        </g>        <g transform="matrix(3.54908,0,0,3.54908,-1531.92,-511.99)">            <g transform="matrix(24,0,0,24,534,187.808)">                <path d="M0.114,-0.7l0.074,0l0,0.636l0.392,0l0,0.064l-0.466,0l0,-0.7Z" style="fill-rule:nonzero;"/>            </g>            <g transform="matrix(24,0,0,24,554.287,187.808)">                <path d="M0.609,-0.064l0,0.064l-0.495,0l0,-0.7l0.48,0l0,0.064l-0.406,0l0,0.249l0.362,0l0,0.063l-0.362,0l0,0.26l0.421,0Z" style="fill-rule:nonzero;"/>            </g>            <g transform="matrix(24,0,0,24,576.546,187.808)">                <path d="M0.699,-0.7l0,0.7l-0.061,0l-0.45,-0.568l0,0.568l-0.074,0l0,-0.7l0.061,0l0.451,0.568l0,-0.568l0.073,0Z" style="fill-rule:nonzero;"/>            </g>            <g transform="matrix(24,0,0,24,602.187,187.808)">                <path d="M0.114,-0.7l0.285,0c0.074,0 0.139,0.015 0.196,0.045c0.057,0.029 0.101,0.071 0.132,0.124c0.031,0.053 0.047,0.113 0.047,0.181c0,0.068 -0.016,0.129 -0.047,0.182c-0.031,0.053 -0.075,0.094 -0.132,0.124c-0.057,0.029 -0.122,0.044 -0.196,0.044l-0.285,0l0,-0.7Zm0.281,0.636c0.061,0 0.115,-0.012 0.161,-0.036c0.046,-0.025 0.082,-0.058 0.107,-0.101c0.025,-0.043 0.038,-0.093 0.038,-0.149c0,-0.056 -0.013,-0.105 -0.038,-0.148c-0.025,-0.043 -0.061,-0.077 -0.107,-0.101c-0.046,-0.025 -0.1,-0.037 -0.161,-0.037l-0.207,0l0,0.572l0.207,0Z" style="fill-rule:nonzero;"/>            </g>            <g transform="matrix(24,0,0,24,627.906,187.808)">                <path d="M0.42,0.006c-0.069,0 -0.132,-0.016 -0.188,-0.047c-0.057,-0.031 -0.101,-0.073 -0.132,-0.127c-0.032,-0.054 -0.048,-0.115 -0.048,-0.182c0,-0.067 0.016,-0.128 0.048,-0.182c0.031,-0.054 0.075,-0.096 0.132,-0.127c0.056,-0.031 0.119,-0.047 0.188,-0.047c0.069,0 0.132,0.015 0.188,0.046c0.055,0.031 0.099,0.073 0.131,0.128c0.032,0.054 0.048,0.115 0.048,0.182c0,0.067 -0.016,0.128 -0.048,0.183c-0.032,0.054 -0.076,0.096 -0.131,0.127c-0.056,0.031 -0.119,0.046 -0.188,0.046Zm0,-0.066c0.055,0 0.105,-0.012 0.15,-0.037c0.045,-0.025 0.08,-0.06 0.105,-0.104c0.025,-0.045 0.038,-0.094 0.038,-0.149c0,-0.055 -0.013,-0.104 -0.038,-0.148c-0.025,-0.045 -0.06,-0.08 -0.105,-0.105c-0.045,-0.025 -0.095,-0.037 -0.15,-0.037c-0.055,0 -0.105,0.012 -0.15,0.037c-0.045,0.025 -0.081,0.06 -0.106,0.104c-0.026,0.045 -0.039,0.094 -0.039,0.149c0,0.055 0.013,0.104 0.039,0.148c0.025,0.045 0.061,0.079 0.106,0.104c0.045,0.025 0.095,0.038 0.15,0.038Z" style="fill-rule:nonzero;"/>            </g>            <g transform="matrix(24,0,0,24,654.313,187.808)">                <path d="M0.592,0l-0.16,-0.225c-0.018,0.002 -0.037,0.003 -0.056,0.003l-0.188,0l0,0.222l-0.074,0l0,-0.7l0.262,0c0.089,0 0.159,0.021 0.21,0.064c0.051,0.043 0.076,0.101 0.076,0.176c0,0.055 -0.014,0.101 -0.041,0.139c-0.028,0.037 -0.068,0.064 -0.119,0.081l0.171,0.24l-0.081,0Zm-0.218,-0.285c0.069,0 0.122,-0.015 0.159,-0.046c0.037,-0.031 0.055,-0.074 0.055,-0.129c0,-0.057 -0.018,-0.1 -0.055,-0.13c-0.037,-0.031 -0.09,-0.046 -0.159,-0.046l-0.186,0l0,0.351l0.186,0Z" style="fill-rule:nonzero;"/>            </g>            <g transform="matrix(24,0,0,24,677.851,187.808)">                <path d="M0.553,-0.187l-0.39,0l-0.084,0.187l-0.077,0l0.32,-0.7l0.073,0l0.32,0.7l-0.078,0l-0.084,-0.187Zm-0.027,-0.06l-0.168,-0.376l-0.168,0.376l0.336,0Z" style="fill-rule:nonzero;"/>            </g>        </g>    </g>    <defs>        <linearGradient id="_Linear1" x1="0" y1="0" x2="1" y2="0" gradientUnits="userSpaceOnUse" gradientTransform="matrix(357.251,-287.642,287.642,357.251,94.123,357.075)"><stop offset="0" style="stop-color:rgb(45,144,68);stop-opacity:1"/><stop offset="0.29" style="stop-color:rgb(48,145,69);stop-opacity:1"/><stop offset="0.51" style="stop-color:rgb(57,149,71);stop-opacity:1"/><stop offset="0.7" style="stop-color:rgb(73,155,75);stop-opacity:1"/><stop offset="0.87" style="stop-color:rgb(95,163,80);stop-opacity:1"/><stop offset="1" style="stop-color:rgb(118,172,86);stop-opacity:1"/></linearGradient>        <linearGradient id="_Linear2" x1="0" y1="0" x2="1" y2="0" gradientUnits="userSpaceOnUse" gradientTransform="matrix(222.216,-0.6761,0.6761,222.216,112.656,180.319)"><stop offset="0" style="stop-color:rgb(66,151,69);stop-opacity:1"/><stop offset="1" style="stop-color:rgb(118,172,86);stop-opacity:1"/></linearGradient>        <linearGradient id="_Linear3" x1="0" y1="0" x2="1" y2="0" gradientUnits="userSpaceOnUse" gradientTransform="matrix(284.423,-229.005,229.005,284.423,137.591,427.558)"><stop offset="0" style="stop-color:rgb(45,144,68);stop-opacity:1"/><stop offset="0.29" style="stop-color:rgb(48,145,69);stop-opacity:1"/><stop offset="0.51" style="stop-color:rgb(57,149,71);stop-opacity:1"/><stop offset="0.7" style="stop-color:rgb(73,155,75);stop-opacity:1"/><stop offset="0.87" style="stop-color:rgb(95,163,80);stop-opacity:1"/><stop offset="1" style="stop-color:rgb(118,172,86);stop-opacity:1"/></linearGradient>        <linearGradient id="_Linear4" x1="0" y1="0" x2="1" y2="0" gradientUnits="userSpaceOnUse" gradientTransform="matrix(-0.6947,90.7971,-90.7971,-0.6947,208.907,253.825)"><stop offset="0" style="stop-color:white;stop-opacity:1"/><stop offset="0.02" style="stop-color:rgb(254,254,254);stop-opacity:1"/><stop offset="0.89" style="stop-color:rgb(189,189,189);stop-opacity:1"/><stop offset="1" style="stop-color:rgb(189,189,189);stop-opacity:1"/></linearGradient>    </defs></svg>