<?xml version="1.0" encoding="UTF-8" standalone="no"?><!DOCTYPE svg PUBLIC "-//W3C//DTD SVG 1.1//EN" "http://www.w3.org/Graphics/SVG/1.1/DTD/svg11.dtd"><svg width="100%" height="100%" viewBox="0 0 1024 512" version="1.1" xmlns="http://www.w3.org/2000/svg" xmlns:xlink="http://www.w3.org/1999/xlink" xml:space="preserve" style="fill-rule:evenodd;clip-rule:evenodd;stroke-linejoin:round;stroke-miterlimit:2;"><title>Amberside ALP</title><desc>Amberside ALP has identified a gap in the market for senior debt lending into infrastructure projects that are either too large for the corporate lending arms of banks, or too small for their project finance arms. By focussing on this market, we can obtain the levels of risk traditional banks take, with slightly higher returns.</desc>    <g transform="matrix(8.12661,0,0,8.11857,257,-4.90738)">        <g id="Fill-1" transform="matrix(1,0,0,1,0,0.726562)">            <path d="M4.648,56.574c0,0.236 -0.007,0.51 -0.021,0.825c-0.014,0.315 -0.031,0.649 -0.052,1.001c-0.02,0.353 -0.04,0.713 -0.057,1.079c-0.017,0.367 -0.026,0.72 -0.026,1.059l-0.913,0c0.056,-0.408 0.094,-0.875 0.114,-1.401c0.021,-0.526 0.045,-1.062 0.073,-1.608c-0.111,0.117 -0.277,0.218 -0.498,0.301c-0.221,0.083 -0.501,0.169 -0.84,0.259c-0.298,0.076 -0.549,0.156 -0.752,0.239c-0.204,0.083 -0.369,0.173 -0.493,0.269c-0.125,0.097 -0.215,0.201 -0.27,0.312c-0.055,0.11 -0.083,0.235 -0.083,0.373c0,0.291 0.114,0.502 0.342,0.633c0.229,0.132 0.502,0.197 0.82,0.197c0.18,0 0.36,-0.017 0.54,-0.052c0.179,-0.034 0.356,-0.079 0.529,-0.135l-0.166,0.623c-0.201,0.034 -0.383,0.06 -0.545,0.078c-0.163,0.017 -0.32,0.026 -0.472,0.026c-1.252,0 -1.878,-0.453 -1.878,-1.359c0,-0.256 0.048,-0.474 0.145,-0.654c0.097,-0.18 0.234,-0.334 0.41,-0.462c0.176,-0.128 0.389,-0.237 0.638,-0.327c0.249,-0.089 0.522,-0.169 0.82,-0.238c0.228,-0.056 0.449,-0.111 0.664,-0.166c0.214,-0.056 0.401,-0.121 0.56,-0.197c0.159,-0.076 0.287,-0.168 0.384,-0.275c0.097,-0.107 0.145,-0.244 0.145,-0.41c0,-0.235 -0.1,-0.417 -0.301,-0.545c-0.201,-0.128 -0.501,-0.192 -0.903,-0.192c-0.318,0 -0.636,0.035 -0.954,0.104c-0.318,0.069 -0.629,0.17 -0.934,0.301l0.094,-0.674c0.318,-0.083 0.634,-0.149 0.949,-0.198c0.315,-0.048 0.638,-0.072 0.97,-0.072c0.657,0 1.148,0.1 1.473,0.301c0.325,0.2 0.488,0.529 0.488,0.985" style="fill:rgb(26,25,25);"/>        </g>        <g id="Fill-2" transform="matrix(1,0,0,1,0,0.726562)">            <path d="M10.157,56.336c0.18,-0.374 0.425,-0.642 0.737,-0.804c0.311,-0.163 0.667,-0.244 1.068,-0.244c0.463,0 0.846,0.116 1.147,0.347c0.3,0.232 0.451,0.583 0.451,1.053c0,0.083 -0.005,0.229 -0.016,0.436c-0.01,0.208 -0.029,0.481 -0.057,0.82c-0.027,0.339 -0.05,0.731 -0.067,1.178c-0.017,0.445 -0.03,0.918 -0.036,1.416l-0.872,0c0.035,-0.561 0.071,-1.142 0.109,-1.744c0.038,-0.601 0.057,-1.182 0.057,-1.742c0,-0.332 -0.081,-0.593 -0.244,-0.784c-0.162,-0.19 -0.424,-0.285 -0.783,-0.285c-0.125,0 -0.237,0.016 -0.337,0.047c-0.101,0.031 -0.191,0.067 -0.27,0.109c-0.08,0.041 -0.145,0.083 -0.197,0.124c-0.052,0.042 -0.088,0.073 -0.109,0.093c-0.042,0.042 -0.09,0.096 -0.145,0.161c-0.056,0.066 -0.109,0.151 -0.161,0.254c-0.052,0.104 -0.099,0.229 -0.14,0.374c-0.042,0.145 -0.073,0.318 -0.094,0.519c-0.013,0.131 -0.025,0.276 -0.036,0.435c-0.01,0.16 -0.021,0.35 -0.031,0.571c-0.01,0.221 -0.021,0.484 -0.031,0.789c-0.01,0.304 -0.019,0.664 -0.026,1.079l-0.913,0c0.034,-0.54 0.071,-1.114 0.109,-1.723c0.038,-0.608 0.057,-1.193 0.057,-1.753c0,-0.311 -0.076,-0.569 -0.228,-0.773c-0.152,-0.204 -0.419,-0.306 -0.799,-0.306c-0.18,0 -0.353,0.036 -0.519,0.109c-0.166,0.072 -0.311,0.175 -0.436,0.306c-0.152,0.159 -0.266,0.346 -0.342,0.56c-0.076,0.215 -0.132,0.484 -0.166,0.809c-0.028,0.277 -0.05,0.64 -0.068,1.09c-0.017,0.45 -0.032,1.01 -0.046,1.681l-0.913,0c0.034,-0.353 0.064,-0.725 0.088,-1.116c0.024,-0.39 0.047,-0.817 0.068,-1.281c0.027,-0.643 0.046,-1.197 0.056,-1.66c0.011,-0.463 0.016,-0.823 0.016,-1.079l0.861,0l-0.052,0.923l0.021,-0.02c0.173,-0.333 0.412,-0.585 0.716,-0.758c0.304,-0.173 0.643,-0.259 1.017,-0.259c0.366,0 0.693,0.081 0.98,0.244c0.287,0.162 0.479,0.43 0.576,0.804" style="fill:rgb(26,25,25);"/>        </g>        <g id="Fill-3" transform="matrix(1,0,0,1,0,0.726562)">            <path d="M15.749,56.19c-0.007,0.319 -0.019,0.621 -0.036,0.908c-0.018,0.287 -0.026,0.614 -0.026,0.981c0,0.65 0.141,1.134 0.425,1.452c0.283,0.318 0.667,0.477 1.152,0.477c0.297,0 0.555,-0.065 0.773,-0.197c0.218,-0.131 0.394,-0.302 0.529,-0.513c0.135,-0.211 0.235,-0.45 0.301,-0.716c0.065,-0.266 0.098,-0.534 0.098,-0.804c0,-0.588 -0.149,-1.043 -0.446,-1.364c-0.298,-0.322 -0.751,-0.483 -1.359,-0.483c-0.235,0 -0.476,0.025 -0.721,0.073c-0.246,0.048 -0.476,0.11 -0.69,0.186Zm0.176,-2.573c-0.034,0.312 -0.06,0.623 -0.078,0.934c-0.017,0.311 -0.033,0.623 -0.046,0.934c0.242,-0.055 0.493,-0.102 0.752,-0.14c0.259,-0.038 0.514,-0.057 0.762,-0.057c0.817,0 1.443,0.206 1.878,0.617c0.436,0.412 0.654,1.032 0.654,1.862c0,0.388 -0.048,0.756 -0.145,1.105c-0.097,0.35 -0.246,0.656 -0.446,0.918c-0.201,0.263 -0.454,0.473 -0.758,0.628c-0.304,0.156 -0.664,0.234 -1.079,0.234c-0.408,0 -0.774,-0.095 -1.099,-0.286c-0.326,-0.19 -0.564,-0.482 -0.716,-0.876l-0.021,0.021l0,1.027l-0.872,0c0.035,-0.547 0.068,-1.102 0.099,-1.666c0.031,-0.563 0.057,-1.122 0.078,-1.675c0.021,-0.56 0.04,-1.131 0.057,-1.712c0.017,-0.581 0.033,-1.203 0.046,-1.868l0.934,0Z" style="fill:rgb(26,25,25);"/>        </g>        <g id="Fill-4" transform="matrix(1,0,0,1,0,0.726562)">            <path d="M24.63,57.321c0,-0.477 -0.113,-0.845 -0.338,-1.105c-0.224,-0.259 -0.554,-0.389 -0.99,-0.389c-0.457,0 -0.834,0.134 -1.131,0.4c-0.298,0.266 -0.484,0.631 -0.56,1.094l3.019,0Zm0.83,0.062c0,0.077 -0.002,0.151 -0.005,0.224c-0.004,0.072 -0.013,0.157 -0.026,0.254l-3.881,0l0,0.28c0,0.609 0.173,1.072 0.519,1.39c0.346,0.318 0.813,0.477 1.401,0.477c0.262,0 0.532,-0.034 0.809,-0.103c0.276,-0.069 0.533,-0.142 0.768,-0.218l-0.146,0.757c-0.235,0.062 -0.487,0.113 -0.757,0.151c-0.27,0.037 -0.54,0.057 -0.809,0.057c-0.892,0 -1.56,-0.22 -2.003,-0.659c-0.442,-0.439 -0.664,-1.074 -0.664,-1.904c0,-0.422 0.061,-0.806 0.182,-1.152c0.121,-0.345 0.292,-0.641 0.514,-0.887c0.221,-0.245 0.489,-0.434 0.804,-0.565c0.314,-0.131 0.669,-0.197 1.063,-0.197c0.678,0 1.219,0.175 1.624,0.524c0.404,0.349 0.607,0.873 0.607,1.571Z" style="fill:rgb(26,25,25);"/>        </g>        <g id="Fill-5" transform="matrix(1,0,0,1,0,0.726562)">            <path d="M27.296,56.222l0.021,0c0.166,-0.318 0.37,-0.554 0.612,-0.706c0.242,-0.152 0.553,-0.228 0.934,-0.228c0.131,0 0.266,0.017 0.404,0.052l0.031,0.757c-0.2,-0.055 -0.394,-0.083 -0.581,-0.083c-0.408,0 -0.74,0.149 -0.996,0.446c-0.103,0.118 -0.192,0.265 -0.264,0.441c-0.073,0.176 -0.127,0.386 -0.161,0.628c-0.035,0.235 -0.059,0.55 -0.073,0.944c-0.014,0.394 -0.02,0.847 -0.02,1.359l0,0.706l-0.913,0c0.034,-0.526 0.062,-0.998 0.083,-1.416c0.02,-0.419 0.038,-0.822 0.052,-1.209c0.013,-0.381 0.024,-0.784 0.031,-1.209c0.006,-0.425 0.01,-0.859 0.01,-1.302l0.861,0l-0.031,0.82" style="fill:rgb(26,25,25);"/>        </g>        <g id="Fill-6" transform="matrix(1,0,0,1,0,0.726562)">            <path d="M32.992,56.149c-0.173,-0.062 -0.358,-0.114 -0.555,-0.156c-0.198,-0.041 -0.407,-0.062 -0.628,-0.062c-0.298,0 -0.534,0.047 -0.711,0.14c-0.176,0.093 -0.264,0.244 -0.264,0.452c0,0.179 0.076,0.359 0.228,0.539c0.152,0.18 0.411,0.411 0.778,0.695c0.366,0.291 0.645,0.555 0.835,0.794c0.19,0.238 0.286,0.503 0.286,0.793c0,0.236 -0.054,0.436 -0.161,0.602c-0.108,0.166 -0.248,0.301 -0.421,0.405c-0.172,0.104 -0.366,0.18 -0.58,0.228c-0.215,0.048 -0.429,0.073 -0.644,0.073c-0.242,0 -0.491,-0.02 -0.747,-0.057c-0.256,-0.038 -0.505,-0.089 -0.747,-0.151l-0.072,-0.768c0.228,0.098 0.463,0.177 0.705,0.239c0.242,0.062 0.491,0.093 0.747,0.093c0.298,0 0.545,-0.053 0.742,-0.16c0.197,-0.108 0.296,-0.275 0.296,-0.504c0,-0.2 -0.083,-0.39 -0.249,-0.57c-0.166,-0.18 -0.429,-0.412 -0.789,-0.695c-0.346,-0.263 -0.614,-0.512 -0.804,-0.747c-0.19,-0.235 -0.285,-0.488 -0.285,-0.758c0,-0.373 0.141,-0.681 0.425,-0.923c0.284,-0.242 0.726,-0.363 1.328,-0.363c0.208,0 0.415,0.014 0.623,0.041c0.207,0.028 0.415,0.059 0.622,0.094l0.042,0.726" style="fill:rgb(26,25,25);"/>        </g>        <g id="Fill-7" transform="matrix(1,0,0,1,0,0.726562)">            <path d="M35.233,54.333l-0.976,0l0.021,-0.716l0.976,0l-0.021,0.716Zm-0.052,1.069c-0.035,0.422 -0.064,0.856 -0.089,1.302c-0.024,0.446 -0.043,0.891 -0.056,1.333c-0.014,0.443 -0.027,0.875 -0.037,1.297c-0.01,0.422 -0.015,0.823 -0.015,1.204l-0.955,0c0.035,-0.415 0.064,-0.829 0.088,-1.24c0.024,-0.412 0.045,-0.827 0.063,-1.245c0.017,-0.419 0.032,-0.846 0.046,-1.282c0.014,-0.435 0.024,-0.892 0.031,-1.369l0.924,0Z" style="fill:rgb(26,25,25);"/>        </g>        <g id="Fill-8" transform="matrix(1,0,0,1,0,0.726562)">            <path d="M38.688,60.008c0.435,0 0.803,-0.153 1.104,-0.461c0.301,-0.308 0.489,-0.742 0.566,-1.302c0.027,-0.201 0.047,-0.388 0.057,-0.561c0.01,-0.172 0.017,-0.344 0.021,-0.513c0.003,-0.17 0.005,-0.342 0.005,-0.519c0,-0.176 0.006,-0.368 0.02,-0.576c-0.152,-0.048 -0.313,-0.084 -0.482,-0.109c-0.169,-0.024 -0.382,-0.036 -0.638,-0.036c-0.401,0 -0.742,0.073 -1.022,0.218c-0.28,0.145 -0.508,0.33 -0.685,0.555c-0.176,0.225 -0.304,0.474 -0.384,0.747c-0.079,0.273 -0.119,0.534 -0.119,0.783c0,0.526 0.135,0.953 0.405,1.282c0.269,0.328 0.653,0.492 1.152,0.492Zm2.759,-6.391c-0.035,0.595 -0.066,1.173 -0.093,1.733c-0.028,0.56 -0.052,1.12 -0.073,1.681c-0.021,0.56 -0.038,1.129 -0.052,1.707c-0.014,0.577 -0.024,1.177 -0.031,1.8l-0.861,0l0.062,-1.038l-0.021,-0.021c-0.2,0.395 -0.461,0.689 -0.783,0.882c-0.321,0.194 -0.711,0.291 -1.167,0.291c-0.311,0 -0.598,-0.052 -0.861,-0.156c-0.263,-0.104 -0.493,-0.257 -0.69,-0.462c-0.197,-0.204 -0.351,-0.453 -0.462,-0.747c-0.11,-0.293 -0.166,-0.631 -0.166,-1.011c0,-0.401 0.064,-0.783 0.192,-1.147c0.128,-0.363 0.322,-0.681 0.581,-0.954c0.26,-0.273 0.585,-0.489 0.975,-0.649c0.391,-0.159 0.849,-0.238 1.375,-0.238c0.194,0 0.384,0.009 0.571,0.026c0.187,0.017 0.373,0.043 0.56,0.078c0.007,-0.104 0.012,-0.209 0.016,-0.317c0.003,-0.107 0.007,-0.228 0.01,-0.363c0.003,-0.135 0.005,-0.29 0.005,-0.467l0,-0.628l0.913,0Z" style="fill:rgb(26,25,25);"/>        </g>        <g id="Fill-9" transform="matrix(1,0,0,1,0,0.726562)">            <path d="M46.437,57.321c0,-0.477 -0.112,-0.845 -0.337,-1.105c-0.225,-0.259 -0.555,-0.389 -0.991,-0.389c-0.456,0 -0.833,0.134 -1.13,0.4c-0.298,0.266 -0.485,0.631 -0.561,1.094l3.019,0Zm0.83,0.062c0,0.077 -0.001,0.151 -0.005,0.224c-0.003,0.072 -0.012,0.157 -0.026,0.254l-3.88,0l0,0.28c0,0.609 0.173,1.072 0.519,1.39c0.345,0.318 0.812,0.477 1.4,0.477c0.263,0 0.533,-0.034 0.81,-0.103c0.276,-0.069 0.532,-0.142 0.767,-0.218l-0.145,0.757c-0.235,0.062 -0.488,0.113 -0.757,0.151c-0.27,0.037 -0.54,0.057 -0.81,0.057c-0.892,0 -1.559,-0.22 -2.002,-0.659c-0.443,-0.439 -0.664,-1.074 -0.664,-1.904c0,-0.422 0.061,-0.806 0.182,-1.152c0.12,-0.345 0.292,-0.641 0.513,-0.887c0.222,-0.245 0.49,-0.434 0.804,-0.565c0.315,-0.131 0.67,-0.197 1.064,-0.197c0.678,0 1.219,0.175 1.624,0.524c0.404,0.349 0.606,0.873 0.606,1.571Z" style="fill:rgb(26,25,25);"/>        </g>        <g id="Fill-10" transform="matrix(1,0,0,1,0,0.726562)">            <path d="M54.042,56.574c0,0.236 -0.007,0.51 -0.02,0.825c-0.014,0.315 -0.032,0.649 -0.052,1.001c-0.021,0.353 -0.04,0.713 -0.057,1.079c-0.018,0.367 -0.026,0.72 -0.026,1.059l-0.913,0c0.055,-0.408 0.093,-0.875 0.114,-1.401c0.021,-0.526 0.045,-1.062 0.072,-1.608c-0.11,0.117 -0.276,0.218 -0.498,0.301c-0.221,0.083 -0.501,0.169 -0.84,0.259c-0.298,0.076 -0.548,0.156 -0.752,0.239c-0.204,0.083 -0.368,0.173 -0.493,0.269c-0.124,0.097 -0.214,0.201 -0.27,0.312c-0.055,0.11 -0.083,0.235 -0.083,0.373c0,0.291 0.114,0.502 0.343,0.633c0.228,0.132 0.501,0.197 0.819,0.197c0.18,0 0.36,-0.017 0.54,-0.052c0.18,-0.034 0.356,-0.079 0.529,-0.135l-0.166,0.623c-0.201,0.034 -0.382,0.06 -0.545,0.078c-0.162,0.017 -0.32,0.026 -0.472,0.026c-1.252,0 -1.878,-0.453 -1.878,-1.359c0,-0.256 0.049,-0.474 0.146,-0.654c0.096,-0.18 0.233,-0.334 0.409,-0.462c0.177,-0.128 0.389,-0.237 0.639,-0.327c0.248,-0.089 0.522,-0.169 0.819,-0.238c0.228,-0.056 0.45,-0.111 0.664,-0.166c0.214,-0.056 0.401,-0.121 0.56,-0.197c0.159,-0.076 0.287,-0.168 0.384,-0.275c0.097,-0.107 0.145,-0.244 0.145,-0.41c0,-0.235 -0.1,-0.417 -0.3,-0.545c-0.201,-0.128 -0.502,-0.192 -0.903,-0.192c-0.318,0 -0.636,0.035 -0.955,0.104c-0.318,0.069 -0.629,0.17 -0.933,0.301l0.093,-0.674c0.318,-0.083 0.635,-0.149 0.949,-0.198c0.315,-0.048 0.638,-0.072 0.97,-0.072c0.657,0 1.149,0.1 1.474,0.301c0.325,0.2 0.487,0.529 0.487,0.985" style="fill:rgb(26,142,194);"/>        </g>        <g id="Fill-11" transform="matrix(1,0,0,1,18.36,0.726562)">            <path d="M38.079,53.617c-0.035,0.499 -0.068,1.028 -0.099,1.588c-0.031,0.56 -0.057,1.1 -0.078,1.618c-0.02,0.471 -0.041,1.019 -0.062,1.645c-0.021,0.626 -0.041,1.316 -0.062,2.07l-0.934,0c0.076,-1.142 0.14,-2.288 0.192,-3.44c0.052,-1.151 0.092,-2.311 0.119,-3.481l0.924,0" style="fill:rgb(26,142,194);"/>        </g>        <g id="Fill-13" transform="matrix(1,0,0,1,18.36,0.726562)">            <path d="M40.299,56.19c-0.007,0.319 -0.019,0.62 -0.036,0.903c-0.018,0.284 -0.026,0.609 -0.026,0.975c0,0.651 0.138,1.137 0.415,1.458c0.276,0.322 0.664,0.482 1.162,0.482c0.297,0 0.555,-0.065 0.773,-0.197c0.218,-0.131 0.394,-0.302 0.529,-0.513c0.134,-0.211 0.235,-0.45 0.301,-0.716c0.065,-0.266 0.098,-0.534 0.098,-0.804c0,-0.588 -0.149,-1.043 -0.446,-1.364c-0.298,-0.322 -0.75,-0.483 -1.359,-0.483c-0.242,0 -0.484,0.025 -0.726,0.073c-0.243,0.048 -0.471,0.11 -0.685,0.186Zm4.098,1.577c0,0.388 -0.048,0.756 -0.145,1.105c-0.097,0.35 -0.246,0.656 -0.446,0.918c-0.201,0.263 -0.453,0.473 -0.758,0.628c-0.304,0.156 -0.664,0.234 -1.079,0.234c-0.359,0 -0.697,-0.082 -1.011,-0.244c-0.315,-0.163 -0.573,-0.42 -0.773,-0.773l-0.021,0c0,0.242 -0.004,0.482 -0.01,0.721c-0.007,0.239 -0.016,0.486 -0.026,0.742c-0.011,0.256 -0.019,0.524 -0.026,0.804c-0.007,0.28 -0.011,0.586 -0.011,0.918l-0.923,0c0.083,-1.19 0.145,-2.355 0.187,-3.496c0.007,-0.284 0.015,-0.562 0.026,-0.836c0.01,-0.273 0.02,-0.556 0.031,-0.85c0.01,-0.294 0.019,-0.607 0.026,-0.939c0.007,-0.332 0.014,-0.702 0.021,-1.11c0.352,-0.076 0.729,-0.146 1.13,-0.208c0.402,-0.062 0.823,-0.093 1.266,-0.093c0.823,0 1.453,0.206 1.888,0.617c0.436,0.412 0.654,1.032 0.654,1.862Z" style="fill:rgb(26,142,194);"/>        </g>        <g id="Fill-14" transform="matrix(1,0,0,1,18.36,0.726562)">            <path d="M0.066,1.542c0,0 -0.088,-0.765 0.501,-1.089c0.588,-0.324 4.074,-0.738 7.739,-0.172c3.71,0.573 8.025,3.726 10.32,7.08c2.295,3.355 4.2,6.96 5.19,12.51l-6.435,2.07c0,0 -1.778,-6.746 -3.72,-10.218c-1.942,-3.472 -3.943,-6.591 -6.768,-7.915c-2.825,-1.325 -4.061,-1.089 -4.237,-0.795c-0.177,0.294 -0.236,1.412 -0.206,1.56l-1.118,0.294l-1.266,-3.325" style="fill:rgb(26,25,25);"/>        </g>        <g id="Fill-16" transform="matrix(1,0,0,1,0,0.726562)">            <path d="M37.226,27.386c0,0 2.365,-0.516 6.075,-2.655c0,0 2.668,10.591 3.079,12.239c0.412,1.648 2.06,7.945 2.884,9.181c0.824,1.235 2.06,3.119 5.297,2.942l0.294,1c0,0 -2.884,1.001 -4.826,1.119c-1.942,0.118 -4.649,0.353 -6.003,-2.943c-1.353,-3.295 -3.975,-10.584 -6.8,-20.883" style="fill:rgb(26,25,25);"/>        </g>        <g id="Fill-17" transform="matrix(1,0,0,1,0,0.726562)">            <path d="M32.492,48.505c0,0 -6.533,1.176 -11.888,-0.766c-5.355,-1.942 -7.121,-6.241 -5.355,-10.123c1.765,-3.883 6.179,-5.531 11.534,-7.414c5.356,-1.883 14.124,-5.296 16.949,-7.415c2.825,-2.119 4.885,-3.767 6.591,-7.415c0,0 -3.943,4.472 -12.417,7.415c-8.475,2.942 -19.433,5.792 -23.776,7.945c-5.462,2.707 -7.474,7.65 -6.414,11.064c1.059,3.413 3.354,7.356 9.533,8.356c6.18,1.001 9.122,0.426 10.652,0c1.53,-0.425 3.708,-0.882 4.591,-1.647" style="fill:rgb(26,142,194);"/>        </g>    </g></svg>