<?xml version="1.0" encoding="UTF-8" standalone="no"?><!DOCTYPE svg PUBLIC "-//W3C//DTD SVG 1.1//EN" "http://www.w3.org/Graphics/SVG/1.1/DTD/svg11.dtd"><svg width="100%" height="100%" viewBox="0 0 1024 512" version="1.1" xmlns="http://www.w3.org/2000/svg" xmlns:xlink="http://www.w3.org/1999/xlink" xml:space="preserve" style="fill-rule:evenodd;clip-rule:evenodd;stroke-linejoin:round;stroke-miterlimit:2;"><title>The Money Platform</title><desc>A new peer to peer lending platform. The Money Platform allows users to borrow &amp; lend to one another over short periods of time in a fair, safe &amp; regulated environment.</desc>    <g transform="matrix(1.04186,0,0,1.04186,136.378,-5.31994)">        <g transform="matrix(7.90547,0,0,7.90547,-34.5274,-41.8885)">            <path d="M15.183,35.748l9.117,-12.504l0,19.046l-3.747,0l0,-7.714l-5.371,7.412l-5.371,-7.412l0,7.714l-3.745,0l0,-19.046l9.117,12.504Z" style="fill:rgb(0,144,224);fill-rule:nonzero;"/>            <path d="M42.291,26.283c1.856,1.856 2.784,4.083 2.784,6.681c-0,2.598 -0.928,4.825 -2.784,6.669c-1.856,1.845 -4.083,2.772 -6.681,2.772c-2.599,0 -4.826,-0.928 -6.67,-2.772c-1.844,-1.844 -2.772,-4.071 -2.772,-6.669c-0,-2.598 0.928,-4.825 2.772,-6.681c1.844,-1.856 4.071,-2.784 6.67,-2.784c2.598,0 4.825,0.928 6.681,2.784Zm-10.684,2.656c-1.102,1.113 -1.659,2.447 -1.659,4.001c-0,1.566 0.557,2.9 1.659,4.002c1.102,1.103 2.436,1.659 4.002,1.659c1.554,0 2.888,-0.557 4.001,-1.659c1.114,-1.102 1.67,-2.436 1.67,-4.002c0,-1.554 -0.557,-2.888 -1.67,-4.001c-1.113,-1.114 -2.447,-1.67 -4.001,-1.67c-1.566,0 -2.9,0.556 -4.002,1.67Z" style="fill:rgb(0,144,224);fill-rule:nonzero;"/>            <path d="M58.135,33.927l0,-10.335l3.746,0l0,19.046l-11.217,-10.695l0,10.347l-3.746,0l0,-19.046l11.217,10.683Z" style="fill:rgb(0,144,224);fill-rule:nonzero;"/>            <path d="M75.429,23.592l0,3.735l-7.47,0l0,3.747l5.602,0l0,3.735l-5.602,0l0,3.735l7.47,0l0,3.747l-11.217,0l0,-18.699l11.217,0Z" style="fill:rgb(0,144,224);fill-rule:nonzero;"/>            <path d="M81.425,23.592l3.225,5.927l3.225,-5.927l4.257,0l-5.613,10.312l0,8.387l-3.735,0l0,-8.387l-5.604,-10.312l4.245,0Z" style="fill:rgb(0,144,224);fill-rule:nonzero;"/>        </g>        <g transform="matrix(7.90547,0,0,7.90547,-34.5274,-41.8885)">            <path d="M46.548,15.927c-0.335,0.788 -0.939,1.576 -1.677,2.18c-0.771,0.637 -1.593,1.023 -2.314,1.073l-0.185,0c-0.688,0 -1.274,-0.319 -1.626,-0.889c-0.319,-0.52 -0.386,-1.274 -0.201,-2.314c0.117,-0.671 0.335,-1.443 0.654,-2.314c-0.05,0 -0.117,0 -0.168,-0.017c-0.335,-0.034 -0.469,-0.218 -0.436,-0.554c0.101,-0.67 0.62,-0.553 1.056,-0.586c0.688,-1.643 1.493,-3.153 1.929,-3.723c0.352,-0.453 1.09,-1.023 1.644,-0.638c0.101,0.067 0.403,0.319 0.268,0.822c-0.05,0.168 -0.134,0.369 -0.285,0.604c-0.654,1.022 -1.341,2.197 -1.794,2.952l1.811,-0.051c0.335,-0.033 0.621,0.218 0.654,0.537c0.017,0.335 -0.218,0.62 -0.536,0.654c-0.101,-0 -1.007,0.067 -2.6,0.067l-0.302,-0c-0.352,0.939 -0.604,1.778 -0.721,2.465c-0.185,0.989 -0.034,1.358 0.033,1.459c0.101,0.167 0.286,0.369 0.721,0.335c1.023,-0.084 2.449,-1.291 2.985,-2.532c0.134,-0.302 0.486,-0.436 0.788,-0.319c0.302,0.135 0.436,0.487 0.302,0.789Z" style="fill:rgb(123,123,123);fill-rule:nonzero;"/>            <path d="M46.647,18.979c-0.251,0 -0.469,-0.101 -0.62,-0.302c-0.15,-0.184 -0.352,-0.553 -0.302,-1.626c0.017,-0.688 0.135,-1.543 0.336,-2.465c0.318,-1.476 0.922,-2.985 1.392,-3.992c0.586,-1.274 1.291,-2.532 1.929,-3.438c0.284,-0.402 0.587,-0.705 0.872,-0.889c0.52,-0.318 0.939,-0.184 1.123,-0.1c0.302,0.151 0.638,0.503 0.688,1.324c0.016,0.537 -0.085,1.191 -0.336,1.912c-0.353,1.106 -0.855,2.046 -1.459,2.801c-0.771,0.972 -1.744,1.643 -2.885,1.979c-0.066,0.218 -0.117,0.436 -0.168,0.655c-0.134,0.704 -0.234,1.357 -0.285,1.911c0.336,-0.671 0.771,-1.493 1.274,-2.18c0.755,-1.04 1.493,-1.543 2.248,-1.543c0.587,0 1.022,0.185 1.291,0.554c0.469,0.67 0.134,1.644 -0.201,2.583c-0.117,0.352 -0.251,0.704 -0.302,0.989c-0.067,0.269 -0.05,0.402 -0.05,0.436c0.032,0 0.101,0.034 0.251,0.034c0.134,0 0.637,-0.084 1.61,-1.191c0.569,-0.654 0.972,-1.308 0.989,-1.308c0.168,-0.268 0.536,-0.352 0.821,-0.184c0.269,0.184 0.353,0.553 0.185,0.821c-0.033,0.034 -0.47,0.738 -1.106,1.459c-0.939,1.073 -1.761,1.593 -2.499,1.593c-0.554,0 -0.973,-0.185 -1.225,-0.537c-0.218,-0.318 -0.269,-0.737 -0.167,-1.291c0.084,-0.386 0.234,-0.805 0.368,-1.225c0.135,-0.368 0.269,-0.737 0.336,-1.056c0.066,-0.318 0.017,-0.419 0.017,-0.436c-0.017,-0.017 -0.101,-0.05 -0.318,-0.05c-0.201,0 -0.621,0.134 -1.274,1.04c-0.521,0.705 -0.956,1.593 -1.325,2.297c-0.168,0.319 -0.302,0.604 -0.436,0.822c-0.134,0.217 -0.352,0.603 -0.772,0.603Zm4.194,-11.672c-0.101,0.084 -0.269,0.218 -0.487,0.536c-0.821,1.157 -1.811,3.02 -2.498,4.864c1.224,-0.654 2.146,-1.878 2.75,-3.672c0.201,-0.637 0.269,-1.074 0.269,-1.325c-0.001,-0.185 -0.018,-0.319 -0.034,-0.403Z" style="fill:rgb(123,123,123);fill-rule:nonzero;"/>            <path d="M56.44,19.096c-0.771,0 -1.844,-0.335 -2.314,-1.257c-0.251,-0.487 -0.302,-1.057 -0.15,-1.711c0.15,-0.653 0.52,-1.409 1.106,-2.213c0.738,-1.023 1.51,-1.661 2.314,-1.912c0.905,-0.268 1.51,0.067 1.66,0.168c0.252,0.167 0.437,0.419 0.537,0.72c0.117,0.285 0.134,0.621 0.067,0.956c-0.168,0.805 -0.99,2.23 -4.579,2.901c-0.016,0.201 0.017,0.386 0.102,0.537c0.218,0.419 0.805,0.62 1.257,0.62c0.922,0 2.566,-0.653 3.321,-2.431c0.134,-0.302 0.485,-0.453 0.787,-0.319c0.303,0.117 0.437,0.469 0.319,0.771c-0.437,1.023 -1.141,1.861 -2.063,2.432c-0.737,0.47 -1.609,0.738 -2.364,0.738Zm1.645,-6.004c-0.102,0 -0.219,0.017 -0.353,0.051c-0.37,0.117 -0.957,0.453 -1.677,1.458c-0.219,0.302 -0.387,0.571 -0.537,0.839c1.995,-0.486 2.852,-1.241 2.969,-1.844c0.05,-0.235 -0.034,-0.403 -0.085,-0.436c-0.049,-0.034 -0.167,-0.068 -0.317,-0.068Z" style="fill:rgb(123,123,123);fill-rule:nonzero;"/>        </g>        <g transform="matrix(7.90547,0,0,7.90547,-34.5274,-41.8885)">            <path d="M5.458,59.724l0,-12.098l4.233,0c1.163,0 2.162,0.412 2.995,1.245c0.833,0.833 1.246,1.832 1.246,2.994c0,1.164 -0.413,2.162 -1.246,2.987c-0.833,0.826 -1.832,1.239 -2.995,1.239l-1.809,0l0,3.633l-2.424,0Zm4.233,-6.043c0.503,-0 0.931,-0.18 1.283,-0.532c0.353,-0.354 0.533,-0.78 0.533,-1.284c0,-0.495 -0.18,-0.922 -0.533,-1.282c-0.353,-0.36 -0.78,-0.541 -1.283,-0.541l-1.809,0l0,3.632l1.809,0.007Z" style="fill:rgb(0,199,161);fill-rule:nonzero;"/>            <path d="M17.714,47.625l0,9.674l4.833,0l0,2.425l-7.257,0l0,-12.099l2.424,0Z" style="fill:rgb(0,199,161);fill-rule:nonzero;"/>            <path d="M26.863,57.854c-0.27,0.616 -0.548,1.225 -0.825,1.84l-2.604,0l5.486,-12.294l5.501,12.294l-2.612,0c-0.27,-0.608 -0.541,-1.224 -0.811,-1.831l-4.121,0l-0.014,-0.009Zm3.145,-2.131l-1.066,-2.514l-1.073,2.514l2.139,0Z" style="fill:rgb(0,199,161);fill-rule:nonzero;"/>            <path d="M35.502,47.625l8.473,0l0,2.416l-3.025,0l0,9.683l-2.424,0l0,-9.683l-3.024,0l0,-2.416Z" style="fill:rgb(0,199,161);fill-rule:nonzero;"/>            <path d="M52.591,47.625l0,2.416l-4.834,0l0,2.424l3.626,0l0,2.417l-3.626,0l0,4.842l-2.424,0l0,-12.099l7.258,0Z" style="fill:rgb(0,199,161);fill-rule:nonzero;"/>            <path d="M63.932,49.366c1.201,1.2 1.802,2.642 1.802,4.323c0,1.681 -0.601,3.122 -1.802,4.314c-1.2,1.194 -2.642,1.795 -4.323,1.795c-1.681,0 -3.122,-0.601 -4.315,-1.795c-1.193,-1.192 -1.794,-2.634 -1.794,-4.314c0,-1.682 0.601,-3.123 1.794,-4.323c1.193,-1.201 2.635,-1.802 4.315,-1.802c1.681,0 3.122,0.601 4.323,1.802Zm-6.913,1.718c-0.712,0.721 -1.072,1.584 -1.072,2.59c-0,1.013 0.36,1.877 1.072,2.589c0.714,0.714 1.576,1.074 2.59,1.074c1.006,0 1.868,-0.36 2.589,-1.074c0.721,-0.712 1.081,-1.576 1.081,-2.589c-0,-1.006 -0.36,-1.869 -1.081,-2.59c-0.721,-0.721 -1.583,-1.081 -2.589,-1.081c-1.014,0 -1.877,0.36 -2.59,1.081Z" style="fill:rgb(0,199,161);fill-rule:nonzero;"/>            <path d="M66.918,47.609l3.934,0c1.163,0 2.312,0.405 3.145,1.238c0.833,0.833 1.171,1.614 1.171,2.776l0,0.377c0,0.9 -0.255,1.561 -0.766,2.281c-0.511,0.72 -0.938,0.931 -1.733,1.23l2.731,4.212l-2.957,0l-3.092,-4.729l0,4.729l-2.425,0l-0.008,-12.114Zm4.158,5.831c0.503,0 0.758,-0.127 1.111,-0.48c0.353,-0.352 0.48,-0.757 0.48,-1.261c-0,-0.495 -0.128,-0.825 -0.48,-1.186c-0.354,-0.36 -0.983,-0.487 -1.486,-0.487l-1.358,0l-0,3.407l1.733,0.007Z" style="fill:rgb(0,199,161);fill-rule:nonzero;"/>            <path d="M82.732,55.49l5.899,-8.091l0,12.324l-2.425,0l0,-4.992l-3.475,4.797l-3.476,-4.797l0,4.992l-2.424,0l0,-12.324l5.901,8.091Z" style="fill:rgb(0,199,161);fill-rule:nonzero;"/>        </g>        <g transform="matrix(7.90547,0,0,7.90547,-34.5274,-41.8885)">            <rect x="5.01" y="13.601" width="29.551" height="0.699" style="fill:rgb(193,193,193);"/>        </g>        <g transform="matrix(7.90547,0,0,7.90547,-34.5274,-41.8885)">            <rect x="65.395" y="13.601" width="29.55" height="0.699" style="fill:rgb(193,193,193);"/>        </g>        <g transform="matrix(7.90547,0,0,7.90547,-34.5274,-41.8885)">            <rect x="5" y="67.287" width="89.638" height="0.699" style="fill:rgb(193,193,193);"/>        </g>    </g></svg>