<?xml version="1.0" encoding="UTF-8" standalone="no"?><!DOCTYPE svg PUBLIC "-//W3C//DTD SVG 1.1//EN" "http://www.w3.org/Graphics/SVG/1.1/DTD/svg11.dtd"><svg width="100%" height="100%" viewBox="0 0 1024 512" version="1.1" xmlns="http://www.w3.org/2000/svg" xmlns:xlink="http://www.w3.org/1999/xlink" xml:space="preserve" style="fill-rule:evenodd;clip-rule:evenodd;stroke-linejoin:round;stroke-miterlimit:2;"><title>Basset &amp; Gold</title><desc>We set out to provide everyday investors with the opportunity to take advantage of an offer that was previously available only to institutional and ultra-high net worth investors. Today, investors’ can access our attractive returns from as little as £1,000.</desc>    <g id="Layer_1" transform="matrix(2.03243,0,0,2.03243,-20.9868,58.8541)">        <path d="M315.37,141.12c1.745,0.317 3.539,0.221 5.24,-0.28c3.376,-1.136 7.107,-0.513 9.93,1.66c1.649,1.178 2.737,2.99 3,5c-0.828,0.282 -1.731,0.254 -2.54,-0.08c-0.658,-0.386 -1.287,-0.82 -1.88,-1.3l0,2.76c-0.577,-0.219 -1.13,-0.497 -1.65,-0.83c-0.746,-0.93 -1.392,-1.936 -1.93,-3l-1.38,2.76l-1.07,-2.81c-0.548,0.704 -1.328,1.193 -2.2,1.38l-0.71,-1.84c-0.512,1.051 -1.147,2.038 -1.89,2.94c-0.331,0.229 -0.711,0.376 -1.11,0.43c-0.69,0.119 -1.391,0.159 -2.09,0.12c-11,-1.31 -13.79,1.66 -13.79,1.66c0.28,-2.21 -0.17,-2.82 -0.44,-5l-2.3,5c0,0 -0.1,-3.38 -0.2,-4.5c0.007,-1.181 -0.684,-2.262 -1.76,-2.75c-0.042,3.01 -0.796,5.968 -2.2,8.63l-0.1,-3.65c0,0 -1.24,0.14 -1.83,2c-0.558,-0.729 -0.709,-1.695 -0.4,-2.56c0.55,-1.38 1.78,-2.4 2.06,-4.06c0.223,-1.134 0.024,-2.312 -0.56,-3.31c-1.576,-2.455 -2.258,-5.381 -1.93,-8.28l1.38,1.66c1.197,-2.779 1.582,-5.841 1.11,-8.83l1.1,0.55c0,-7.72 -2.25,-12.15 -9.82,-14.16c-1.464,-0.409 -2.641,-1.507 -3.15,-2.94l3,-0.55c0,0 -0.86,-1.42 -3.94,-2.51c-2.7,-0.699 -5.438,-1.243 -8.2,-1.63c1.1,0 2.26,-0.41 2.54,-1.31c0,0 -6.41,-0.49 -8.89,-2.28c0.274,-0.718 0.904,-1.242 1.66,-1.38c0.935,-0.078 1.875,-0.078 2.81,0l-1.43,-1.93c8.19,1.15 11.63,-0.9 11.63,-0.9c-0.144,-0.812 -0.05,-1.649 0.27,-2.41c0.516,-0.756 1.311,-1.278 2.21,-1.45l0.83,4.41c0.55,0 1.16,-0.7 1.51,-2.86c1.11,1.93 0.52,2.16 1.28,4.61c0.519,-0.192 0.935,-0.59 1.15,-1.1c0.248,-0.421 0.395,-0.893 0.43,-1.38c0.482,0.645 0.853,1.364 1.1,2.13c0.44,1.7 0.66,3.23 0.66,3.23c0.549,-0.748 0.822,-1.664 0.77,-2.59c0.083,-0.962 -0.012,-1.932 -0.28,-2.86c1.72,2.533 3.024,5.325 3.86,8.27l0.83,-2.48c0.457,1.625 0.643,3.314 0.55,5c0.057,1.233 -0.057,2.468 -0.34,3.67c-0.283,1.202 2.35,0 3.38,-4c-0.097,1.111 -0.006,2.23 0.27,3.31c0.222,1.022 0.681,1.978 1.34,2.79l1.15,-1.68c0,0 5.36,4.69 7.17,7.44c1.81,2.75 2.48,4.42 1.1,5.24c-0.55,0.28 -1.08,-0.3 -2.67,0.22l1,2c-0.624,0.155 -1.276,0.155 -1.9,0c-0.36,-0.2 0.93,2.94 0.93,2.94c0,0 -1,-0.68 -1.36,-0.85c-0.368,-0.164 -0.754,-0.285 -1.15,-0.36c2.77,6.32 -1.49,8.67 -0.11,13.5c0.32,1.12 1.65,1.93 2.21,3c2.201,-1.664 5.031,-2.269 7.72,-1.65m13.52,18.76c0,0 -1.92,2.42 -0.83,6.62c-5.41,-0.35 -10.48,9.38 -10.48,9.38l-1.66,2.48c-1.1,1.11 -2,1.16 -3,0.28c-0.48,-0.4 -0.84,-1.46 -0.28,-3c1,-2.79 2.88,-3.71 4.69,-5.24c1.072,-1.087 1.491,-2.664 1.1,-4.14l-1.41,1.92l-1.93,-0.82l0.28,1.93c-1.576,1.969 -4.233,2.744 -6.62,1.93c-1.1,-0.28 -1.38,-1.38 -0.83,-3c0.959,-2.06 2.797,-3.583 5,-4.14c-1.325,-0.55 -2.815,-0.55 -4.14,0c-1.574,-0.096 -2.818,-1.417 -2.818,-2.994c0,-0.197 0.02,-0.393 0.058,-0.586c1.1,-0.55 3.21,-0.52 5.24,1.1c1.249,1.174 2.767,2.026 4.42,2.48c4.78,0.89 7.72,0 9.65,-2.2c-1.15,-3.282 -1.34,-6.824 -0.55,-10.21c1.38,0.28 3,2.21 4.69,5.79l-1.65,-0.27c0.014,1.024 0.406,2.007 1.1,2.76m-49.44,-35.39c0,0 -0.75,0.19 -1.14,-1.4c-0.143,-0.525 -0.431,-1 -0.83,-1.37c-0.148,0.356 -0.252,0.729 -0.31,1.11c0.001,0.397 0.045,0.792 0.13,1.18c-1.134,-2.406 -2.959,-4.422 -5.24,-5.79c-1.633,-0.883 -3.109,-2.028 -4.37,-3.39c-1.261,-1.362 -0.22,1.09 -0.23,1.45c0.045,0.497 0.118,0.991 0.22,1.48c-0.354,0.02 -0.705,-0.074 -1,-0.27c-0.32,-0.19 -1.65,-0.78 -1.65,-0.78c0,0 0.12,1.66 0.16,2.1c0.115,0.604 0.042,1.229 -0.21,1.79c-0.252,0.561 -0.16,0 -0.64,-0.61c-0.319,-0.386 -0.693,-0.722 -1.11,-1c-0.417,-0.278 0,1.16 0.06,2c0,0.55 0.21,2.16 0.21,2.16l-1.65,-1.65c0,0 -0.8,1.14 -0.33,4.93c0.31,2.43 2.52,4.39 2.41,4.61c0,0 -1.22,-0.33 -3.69,-2.53c-0.43,-0.39 -1.65,-1.66 -1.65,-1.66c-0.266,1.817 -0.094,3.672 0.5,5.41l-1.93,-2.21c-0.066,2.093 -0.534,4.154 -1.38,6.07l-1.14,-1.16c-0.576,-0.704 -1.441,-1.109 -2.35,-1.1c0.132,0.683 0.212,1.375 0.24,2.07c-0.18,0.22 -1.33,-1.25 -2.7,-1.51c-1.37,-0.26 -2.8,0.1 -5.52,0.65c-0.747,0.126 -1.511,-0.108 -2.06,-0.63l-2.13,-1.9c-0.127,0.512 -0.127,1.048 0,1.56c0.12,0.576 0.336,1.127 0.64,1.63l-2.88,-2.39c-0.27,3.31 -0.82,5.24 -1.93,5.79l0,-1.93c-0.272,0.041 -0.548,0.041 -0.82,0c-0.26,-0.1 -0.57,-0.52 0,-1.1c1.4,-1.43 1.65,-2.76 1.1,-5.24c-0.83,2.48 -1.93,3.86 -3.31,3.58c-0.189,-0.628 -0.437,-1.238 -0.74,-1.82c-0.52,-1.07 -1.19,-0.94 -1.19,-0.94c0.083,0.918 0.083,1.842 0,2.76c-0.29,1.21 -1.66,1.79 -3,1.66c-1.34,-0.13 -2.62,-1.86 -2,-3.12c0.26,-0.405 0.6,-0.752 1,-1.02c4.21,-2.68 7,-3.51 13.68,-1.09c2.453,0.828 5.054,1.124 7.63,0.87c0.96,-0.113 1.894,-0.39 2.76,-0.82c1.337,-0.461 2.825,-0.145 3.86,0.82c1.035,0.965 -0.48,-4.28 1.1,-7.17c0.419,-0.583 0.88,-1.135 1.38,-1.65l0,-1.38c0.28,-3.31 1.43,-6.88 4.14,-9.11c1.489,-1.152 3.47,-1.462 5.24,-0.82c3.311,0.845 6.119,3.046 7.73,6.06c0.638,-0.04 1.233,-0.336 1.65,-0.82l2.49,3.31c0.223,-0.902 0.314,-1.832 0.27,-2.76l3.31,2.76c-1.476,1.015 -2.488,2.578 -2.81,4.34m-53.19,2.83c-1.33,-0.3 -0.29,-1.69 -1.43,-2.73c-0.401,-0.278 -0.853,-0.475 -1.33,-0.58c2.86,-1.811 6.659,-1.217 8.83,1.38c0,1.1 -0.28,1.65 -0.83,1.93c-1.048,0.201 -2.098,-0.384 -2.48,-1.38l-2.76,1.38Zm5,-9.93c1.11,-0.28 1.93,0.55 2.76,3c-1.1,0.28 -1.65,1.11 -1.93,2.49c-1.346,-0.452 -2.438,-1.456 -3,-2.76c-0.013,-0.103 -0.02,-0.208 -0.02,-0.312c0,-1.259 0.967,-2.325 2.22,-2.448m29.53,-36.87c0,0 -0.09,0.59 -0.09,0.79c0,0.2 0.08,0.77 0.08,0.77c-0.74,-0.014 -1.462,-0.229 -2.09,-0.62c-0.797,-0.477 -1.561,-1.005 -2.29,-1.58c-0.216,0.43 -0.269,0.924 -0.15,1.39c0.07,0.35 0.39,1.36 0.39,1.36c-1.664,0.178 -3.311,-0.492 -4.38,-1.78c-0.188,0.216 -0.337,0.463 -0.44,0.73c-0.115,0.441 -0.069,0.91 0.13,1.32c-0.92,0.47 -3.26,0.16 -4.33,0c-2.68,-0.41 -1.45,-2.52 -4.68,-2.52c-0.47,0.015 -0.934,0.114 -1.37,0.29l0.45,0.86c0,0 -2.11,0.28 -3.1,-0.74c-0.614,-0.691 -1.185,-1.419 -1.71,-2.18c-0.256,0.927 -1.118,1.566 -2.08,1.54l-0.56,-2.2c-1.13,0.07 -2.157,0.686 -2.75,1.65c-0.498,0.803 -0.71,1.751 -0.6,2.69c-0.209,0.252 -0.487,0.436 -0.8,0.53c-0.393,0.07 -0.797,0.032 -1.17,-0.11c-0.373,-0.142 0.52,1.11 0.34,1.44c-0.67,1.23 -3,0.58 -3.57,-0.69c-0.145,-0.836 -0.048,-1.697 0.28,-2.48c0.09,-0.24 0.47,-0.93 0.47,-0.93c1,-2.26 2.1,-2.16 3.67,-2.93c0.44,-0.22 1.65,-1.11 1.65,-1.11c-4.69,-0.27 -7.72,0.28 -8.83,1.66c-0.392,-0.52 -1.02,-0.81 -1.67,-0.77c-0.472,0.106 -0.929,0.271 -1.36,0.49c-0.354,-0.312 -0.688,-0.646 -1,-1c-0.46,-0.61 -0.27,-0.84 -0.11,-1c2.52,-1.665 5.602,-2.259 8.56,-1.65c2.958,0.609 10.11,2 13.51,2.48c1.632,0.374 3.285,0.651 4.95,0.83c1.142,-0.085 2.271,-0.289 3.37,-0.61c2.827,-0.53 5.311,-2.207 6.86,-4.63c1.549,-2.423 1.59,2.1 0.87,2.61c-3.09,2.17 -1.57,3.37 -1.57,3.37c1.93,-1.1 2.17,-1 3.7,-0.67c5,1 6.65,1.31 8.86,0.2c-0.637,1.585 -0.827,3.315 -0.55,5c0.08,0.44 0.73,2.46 0.25,1.79c-1.56,-2.21 -3.62,-2 -5.07,-2.25c-0.799,-0.266 -1.513,-0.739 -2.07,-1.37m-39.13,-13.43c-0.568,-0.781 -1.175,-1.532 -1.82,-2.25c4.69,-0.3 5.86,3.17 8.06,7.31l-4,0.1c-0.59,-1.786 -1.343,-3.513 -2.25,-5.16m30.27,-14.47c-0.479,-0.047 -0.95,-0.158 -1.4,-0.33c-2.31,-0.9 -2.57,-1.8 -2.76,-2.76c-0.835,-4.389 -2.227,-8.653 -4.14,-12.69c-0.85,-1.71 -2.93,-4.76 -3.26,-6.64c-0.18,-1.06 1.21,-2.65 2.43,-3.29c0.161,-0.06 0.332,-0.09 0.503,-0.09c0.698,0 1.302,0.503 1.427,1.19c0.421,2.422 0.975,4.819 1.66,7.18c0.55,1.1 1.1,2.48 1.65,3.58c1.542,3.318 2.555,6.858 3,10.49c0.06,0.9 1.14,1.36 1.65,1.65c0.51,0.29 2.17,1.44 2.17,1.44c-0.963,0.333 -1.993,0.426 -3,0.27m-17.17,-19.18c-1.33,0.35 -2.36,1.19 -3.74,0.36c-0.681,-0.309 -1.12,-0.991 -1.12,-1.739c0,-0.357 0.101,-0.708 0.29,-1.011c2,-2.72 6.25,-0.83 9.73,4.45c0,0 -3.95,-2.38 -5.16,-2.06m-2.09,-11.22c2.21,-0.28 4.42,1.38 6.9,4.69c-0.848,0.898 -1.339,2.076 -1.38,3.31c-0.926,-0.77 -2.107,-1.167 -3.31,-1.11c-2.363,-1.399 -3.319,-4.377 -2.21,-6.89m8.28,-2.21c0.62,-2.41 1.7,-2.46 2.45,-2.14c0.569,0.27 0.967,0.807 1.06,1.43c0.054,0.442 0.054,0.888 0,1.33c-0.29,1.24 -2.1,3.6 -1.83,4.35l-1.1,0.55c-0.717,-1.747 -0.908,-3.666 -0.55,-5.52m24.19,39.37l-1.32,-4.06c3.038,3.064 7.026,5.011 11.31,5.52c-3.909,1.87 -8.442,1.958 -12.42,0.24c-1.217,-0.541 -2.195,-1.509 -2.75,-2.72c1.65,0.27 3.41,0.56 5.18,1m15.51,2.29c2.128,-0.83 4.492,-0.83 6.62,0c2.21,0.83 4.36,0.55 6.62,0.27c0.55,-0.06 0.83,-0.27 0.83,-1.1l0,-1.5c0.026,-0.845 0.407,-1.641 1.05,-2.19c0.643,-0.549 0.67,-1 4.19,-1.55c0.823,-0.155 1.667,-0.155 2.49,0l-1.66,3.86c1.93,-0.55 5.78,-0.93 8.24,-5.52c1.425,2.556 1.138,5.74 -0.72,8c-1.67,2.14 -3.17,1.81 -5.35,3.23l4.24,-0.29c0,0 -0.29,1.35 -0.34,1.8c-0.097,1.452 -0.435,2.878 -1,4.22c-0.714,1.573 -1.699,3.009 -2.91,4.24c0.67,-0.243 1.355,-0.443 2.05,-0.6c0.71,-0.12 1,-0.13 1.32,0.15l-1.38,1.65c0.935,-0.441 1.969,-0.631 3,-0.55c-1.349,1.586 -3.066,2.818 -5,3.59c-4.1,1.67 -5.59,4.62 -6.07,8.27c-0.11,0.967 -0.073,1.944 0.11,2.9c0.19,0.64 -1.74,-1.69 -2.18,-2.36c-2.57,-3.93 -0.69,-9.92 3.72,-16.26c-2.187,1.133 -4.005,2.868 -5.24,5l-0.24,-3.9c-1.828,1.954 -4.084,3.46 -6.59,4.4c-2.76,1.38 -4.17,4.15 -4.72,7.46c-1.37,-5.24 -1,-6.39 -0.24,-8.31c0.408,-0.893 0.929,-1.73 1.55,-2.49c1.581,-1.589 3.08,-3.258 4.49,-5c-2.125,1.669 -4.568,2.888 -7.18,3.58c-1.894,0.343 -3.742,0.9 -5.51,1.66c1.45,-2.39 3.84,-2.21 6.06,-3.59c1.311,-0.957 2.044,-2.521 1.94,-4.14c-2.401,3.259 -6.596,4.695 -10.49,3.59c-2.823,-0.55 -5.727,-0.55 -8.55,0c-0.28,0 -0.2,-0.18 -0.1,-0.44c0.73,-2 3.35,-3.19 5.62,-3.42c1.71,-0.18 5.19,0.48 6.92,0.6c1.73,0.12 3.29,-1.15 4.11,-2.81c-2.514,0.274 -5.058,-0.009 -7.45,-0.83c2.21,0.56 5,-0.27 7.73,-1.65m10.76,-28.43c-0.28,1.11 -0.79,1.92 -1.66,1.94c-2.28,0 -3.25,-0.1 -7.45,1.65c-0.925,0.481 -2.002,0.581 -3,0.28c-1.05,-0.43 -1.38,-1.37 -1.11,-3.86c-0.077,-0.883 0.354,-1.737 1.11,-2.2c0.59,-0.33 2.48,-1.11 2.48,-1.11c-2.48,-1.1 -3.31,-1.93 -2.48,-2.2c3.86,-2.21 7.17,-3 9.38,-2.21c0.942,0.636 1.701,1.509 2.2,2.53c2.476,0.247 4.972,-0.233 7.18,-1.38c0,-0.55 -0.55,-0.77 -1.38,-0.83c-2.08,-0.14 -8.28,-1.1 -8.28,-1.1c-0.55,-3 1.94,-4.41 7.45,-4.69c0,-1.93 2.48,-1.93 7.73,-0.55c0,0 -0.43,-1.71 0,-1.93c2.75,-1.41 5.79,0 6.34,0.82c-1.866,1.114 -3.467,2.623 -4.69,4.42c-0.83,1.1 -1.1,3.86 -0.55,8.55l0.46,2.45c-0.85,-1.73 -4.2,-2.23 -4.2,-2.23c0.87,2.2 0.77,3.65 0,4.42c-0.787,0.568 -1.713,0.913 -2.68,1c-1.368,0.17 -2.756,-0.055 -4,-0.65c-1,-0.58 -1.66,-1.94 -2.76,-3.05m58.76,33.39c-4.28,-2.64 -10.63,-1.64 -14.69,1.36c-5.25,3.85 -9.18,8.84 -9.38,15.73c-0.15,4.94 1.39,10.54 4,15.74c2.5,5 5.47,9.8 6.75,14.61c1.58,6 -0.83,10.21 -5.52,12.41c-4.046,2.29 -9.234,1.087 -11.86,-2.75c-3.53,-5.38 -5.82,-9.21 -12.69,-14.63c-4.77,-3.76 -6.9,-9.38 -6.9,-17.1l3.86,4.14c-1.65,-5.8 -1.1,-10.21 1.66,-13.8c0,3.59 0.55,5.52 1.65,6.07c-0.153,-1.879 0.131,-3.769 0.83,-5.52l4.42,-5.24c1.119,-1.421 1.704,-3.192 1.65,-5c1.116,1.41 2.534,2.552 4.15,3.34c-0.565,-1.207 -0.849,-2.527 -0.83,-3.86c0.226,-2.032 1.212,-3.905 2.76,-5.24c1.588,-1.559 3.062,-3.23 4.41,-5c1.706,-2.298 2.495,-5.152 2.21,-8c1.369,1.039 2.986,1.704 4.69,1.93l-2.21,-4.69c-0.545,-1.533 -0.444,-3.223 0.28,-4.68c1.562,-3.6 0.919,-7.794 -1.65,-10.76c2.75,0.27 4.25,0 5.35,-1.38c0.265,-0.445 0.502,-0.906 0.71,-1.38c-1.308,0.651 -2.834,0.713 -4.19,0.17c-2.63,-1.4 -3.26,-3.76 -5.46,-5.69c2.42,-0.753 4.095,-2.986 4.14,-5.52c-1.061,1.177 -2.556,1.874 -4.14,1.93c-1.764,-0.14 -3.381,-1.047 -4.42,-2.48c-1.039,-1.433 0.65,-0.32 1.63,-3.17c0.205,-0.647 0.316,-1.321 0.33,-2c-2.49,1.37 -4.72,1.6 -7.75,1.88c-2.012,-1.95 -4.475,-3.372 -7.17,-4.14c0.227,-1.688 -0.276,-3.394 -1.38,-4.69c-0.12,1.411 -0.819,2.712 -1.93,3.59c-1.74,1.17 -3.6,0.94 -5.25,3.58c-8,1.11 -12.74,2.89 -12.69,4.14c0.19,0.847 0.468,1.671 0.83,2.46c-6.34,0.56 -10.76,1.94 -13,4.7l2.49,3l0,6.07c-0.013,1.263 0.945,2.342 2.2,2.48c0.87,0.1 1.81,1 2.49,2.49c0.394,0.829 1.311,1.285 2.21,1.1c-0.791,-1.016 -1.094,-2.33 -0.83,-3.59c0.264,-1.26 2.88,-0.72 3.86,-0.83c4.39,-0.46 6.07,1.93 5,6.07c-0.606,1.158 -1.714,1.974 -3,2.21l-1.93,-1.1c0,1.38 0,1.93 -0.55,1.65l-2.48,-1.65c0.82,1.93 -0.09,3.91 0.82,6.34c0.574,1.296 1.661,2.296 3,2.76c-0.12,-0.88 -0.71,-1.62 0,-2.76c0.95,-1.53 4,-1.84 5.52,-1.1c1.65,0.82 1.93,3.59 0.82,5.24l-0.82,0.83c-1.11,1.1 -3.59,1.1 -8,0c-3.286,-1.086 -6.788,-1.35 -10.2,-0.77l3.31,2.21c-5.613,0.255 -11.064,-1.965 -14.9,-6.07l0,3.86c-0.573,-0.001 -1.135,-0.164 -1.62,-0.47c-3.24,-2.19 -4.95,-10.35 -6.66,-13.87c-1.71,-3.52 -3.58,-7.18 -3.86,-11c-0.28,-1.66 -0.24,-3.73 -1.1,-5.24c-1.9,-3.31 -3.87,-6.9 -6.07,-10.21c-1.94,-2.76 -4.69,-3 -8.56,-0.83c0,0 5,0.62 5,3c-0.741,1.446 -0.936,3.112 -0.55,4.69c-1.09,-1.424 -2.662,-2.406 -4.42,-2.76c-1.729,-0.196 -3.416,-0.661 -5,-1.38c-2.48,-1.1 -4.41,0 -5.52,3.31c1.931,-0.846 4.184,-0.523 5.8,0.83c-0.28,3.31 0,5.52 1.37,6.34c0,0 -3.48,1.73 -4.69,2.21c-2.43,1 -4.13,3.31 -3.58,5.79c0.885,-0.737 1.904,-1.297 3,-1.65c2.26,-0.43 9.11,1.1 9.11,1.1c2.2,0.55 5.68,4.1 6.34,7.73c0.51,2.73 0.55,7.77 1,11.56c0.5,4.66 1.69,8.66 7,15.2c0.79,1.19 1.81,2.21 3,3c-1.033,0.553 -2.152,0.929 -3.31,1.11l-0.83,0l-0.55,0c-1.579,-0.011 -3.152,-0.199 -4.69,-0.56c-4.32,-1 -6.25,0.36 -13.24,-3c-1.338,-1.913 -2.515,-3.933 -3.52,-6.04c-0.539,-0.898 -1.454,-1.507 -2.49,-1.66c-0.41,-0.05 -1.65,0 -1.65,0l-3.86,-0.82c-1.93,-0.28 -2.81,0.33 -3.42,1.29c-0.61,0.96 -0.45,3.4 -0.45,3.4c3.4,-2.44 6.07,-0.83 7.73,4.69c0.17,0.52 0.06,0.84 -0.28,0.82c-2.2,0 -3.52,0.58 -3.86,1.38c-0.23,0.57 -1.1,2.21 -1.1,2.21c-0.733,0.597 -1.403,1.267 -2,2c-1,1.48 -1.53,3.9 3.11,6.33c-0.55,-3 0,-4.42 1.66,-4.42l2.76,-0.27c0.819,-0.149 1.648,-0.243 2.48,-0.28c0.373,0.068 0.74,0.162 1.1,0.28c0.36,0.118 -0.21,0.2 -0.27,0.27c-1,1.27 -0.83,3.31 -0.55,4.69c-0.067,1.196 -0.067,2.394 0,3.59c0.27,2 2.48,3.31 4.41,3.59c-0.83,-1.66 -1.7,-3.5 -0.59,-5.17c0.945,-1.527 2.437,-2.639 4.17,-3.11c2.1,-0.52 4.28,-0.08 8.21,2.74c5.26,3.76 6.82,2.31 9.73,5.54c0.761,1.125 1.749,2.079 2.9,2.8c0,-1.33 0.26,-2.39 0.26,-3.5c2.2,3.31 4.25,6.14 7.56,8.34l9.65,5.52c2.941,1.526 5.421,3.812 7.18,6.62c-4.506,-1.338 -9.126,-2.262 -13.8,-2.76c-3,-0.27 -5.84,0.4 -7,4.47c-1.059,4.153 -2.437,8.218 -4.12,12.16c-2.63,5.79 -8.62,3.88 -11.52,3.51c-1.862,-0.17 -3.683,-0.647 -5.39,-1.41c-0.452,-1.129 -0.683,-2.334 -0.68,-3.55c0.198,-2.086 -0.183,-4.186 -1.1,-6.07c-0.611,-1.154 -1.716,-1.969 -3,-2.21c-1.284,-0.241 -3.29,-0.91 -4.41,-1.1c-2.774,-0.498 -5.515,1.168 -6.35,3.86l0,0.55c2.21,-1.38 4.14,-1.66 5.24,-1.1c0.83,0.55 1.11,1.65 0.83,3.31c-2.701,-0.774 -5.608,-0.374 -8,1.1c-1.55,1.001 -2.232,2.939 -1.65,4.69c0.682,-0.682 1.541,-1.16 2.48,-1.38c0.782,-0.198 1.612,0.009 2.21,0.55l4.13,4.69c0,0 -1.88,1.21 -2.48,1.66c-1.17,0.88 -5.36,5.62 -0.89,8.41c0.254,-0.864 0.763,-1.63 1.46,-2.2c0.572,-0.349 1.244,-0.497 1.91,-0.42c2.06,0.272 4.156,-0.011 6.07,-0.82c1.93,4.41 3.59,6.89 5.52,7.17c0.58,-5.76 6.9,-3 6.9,-3c0.704,0.388 1.373,0.837 2,1.34c0.811,0.485 1.72,0.782 2.66,0.87c-0.531,-0.505 -0.941,-1.124 -1.2,-1.81c0,-0.07 -0.16,-0.65 -0.16,-0.65c2.352,1.049 4.864,1.695 7.43,1.91l0,-2.48c1.612,1.088 3.388,1.912 5.26,2.44c1.872,0.528 -2,-3.32 -0.83,-4.69c1.17,-1.37 3,-3.59 3,-3.59c0.361,0.113 0.729,0.207 1.1,0.28c3.93,0.36 4.69,-7.45 4.69,-7.45c3.03,0.838 5.789,2.455 8,4.69l1.38,-0.55l1.66,1.93c0.55,0.83 1.1,0.83 1.93,0c0.953,1.511 2.284,2.748 3.86,3.59c1.576,0.842 -0.85,-3.37 2.48,-4.14c0,0 -0.42,1.14 -0.53,1.54c-0.192,0.607 -0.28,1.243 -0.26,1.88l1.62,-1.49c0,2.48 -0.05,5.09 -1.38,7.17c-1.9,3 -4.06,6 -1.38,9.66c0.73,1 1.76,1.22 2.76,3c0.81,1.47 1.11,3.31 2.48,4.14c0.625,-0.916 1.091,-1.93 1.38,-3l4.14,3.58l0.83,-4.41c0,0 9.23,-2.76 12.41,-3c4.14,-0.36 8.28,-0.27 12.14,-1.38c-0.547,3.42 -0.262,6.923 0.83,10.21c-2.76,1.93 -6.67,2.35 -9.36,0.39c-3.32,-2.41 -4.48,-3.9 -7.47,-3.15c-5.84,-1 -6.16,2.11 -6.16,2.11c1.11,-0.55 2.41,0.43 3.52,0.71c-0.11,2.84 1.26,3 3.47,4.08l-2.76,2.76c-2.76,1.1 -3.86,3.31 -2.76,6.62l2.21,-2.21c1.001,-0.576 2.177,-0.772 3.31,-0.55l2.21,0.55l2.2,0.28c0,0 -1,4.31 -1.4,6.1c-0.312,1.851 -0.129,3.752 0.53,5.51c0.837,-0.919 1.754,-1.762 2.74,-2.52c1.045,-0.694 2.179,-1.246 3.37,-1.64c2.75,-1.16 3.59,-3 3.87,-5.52c0.15,-1.36 0.57,-2.54 4.14,-3.59c2.917,-0.457 5.869,-0.641 8.82,-0.55c-1.37,-1.1 -1.65,-3.58 -1.1,-7.72c0.53,-0.35 3.34,2.71 3.34,2.71c0.28,-1.38 1.08,-2.16 0.8,-3.82c-0.171,-0.623 -0.553,-1.167 -1.08,-1.54l2,1.14c0.463,-1.265 0.235,-2.683 -0.6,-3.74l1.93,1.66c0.217,-1.108 0.12,-2.255 -0.28,-3.31c-0.34,-1.06 -1.29,-3.09 -1.65,-4.14c-0.234,-0.724 -0.421,-1.462 -0.56,-2.21c-0.47,-2.73 -1.22,-5.64 -3,-7.72c-2.05,-2.36 -5.74,-4.24 -8.94,-3.77c-4.09,0.361 -8.195,0.514 -12.3,0.46l3.58,-4.42l7.73,0.28c10.48,0 16.83,-3.86 18.76,-11.59c1.1,-6.34 -0.43,-13.74 -5.24,-21.79c-3.07,-5.12 -5.63,-10.47 -6.35,-16.28c-0.771,-5.372 1.589,-10.738 6.07,-13.8c5.51,-3.86 9.93,-2.75 14.07,1.66c-3.31,1.66 -6.09,3.81 -6.62,8.28c-0.232,1.79 0.057,3.609 0.83,5.24c0.482,-1.095 1.133,-2.107 1.93,-3c-0.1,1.665 -0.1,3.335 0,5c0.1,1.665 0.32,6.61 6.9,7.73c-1.213,-1.611 -1.976,-3.517 -2.21,-5.52c-0.19,-3.35 1.75,-6.76 2.76,-9.93c2,-6.4 0.22,-11.23 -4.42,-14.08" style="fill-rule:nonzero;"/>        <path d="M315.37,141.12c1.745,0.317 3.539,0.221 5.24,-0.28c3.376,-1.136 7.107,-0.513 9.93,1.66c1.649,1.178 2.737,2.99 3,5c-0.828,0.282 -1.731,0.254 -2.54,-0.08c-0.658,-0.386 -1.287,-0.82 -1.88,-1.3l0,2.76c-0.577,-0.219 -1.13,-0.497 -1.65,-0.83c-0.746,-0.93 -1.392,-1.936 -1.93,-3l-1.38,2.76l-1.07,-2.81c-0.548,0.704 -1.328,1.193 -2.2,1.38l-0.71,-1.84c-0.512,1.051 -1.147,2.038 -1.89,2.94c-0.331,0.229 -0.711,0.376 -1.11,0.43c-0.69,0.119 -1.391,0.159 -2.09,0.12c-11,-1.31 -13.79,1.66 -13.79,1.66c0.28,-2.21 -0.17,-2.82 -0.44,-5l-2.3,5c0,0 -0.1,-3.38 -0.2,-4.5c0.007,-1.181 -0.684,-2.262 -1.76,-2.75c-0.042,3.01 -0.796,5.968 -2.2,8.63l-0.1,-3.65c0,0 -1.24,0.14 -1.83,2c-0.558,-0.729 -0.709,-1.695 -0.4,-2.56c0.55,-1.38 1.78,-2.4 2.06,-4.06c0.223,-1.134 0.024,-2.312 -0.56,-3.31c-1.576,-2.455 -2.258,-5.381 -1.93,-8.28l1.38,1.66c1.197,-2.779 1.582,-5.841 1.11,-8.83l1.1,0.55c0,-7.72 -2.25,-12.15 -9.82,-14.16c-1.464,-0.409 -2.641,-1.507 -3.15,-2.94l3,-0.55c0,0 -0.86,-1.42 -3.94,-2.51c-2.7,-0.699 -5.438,-1.243 -8.2,-1.63c1.1,0 2.26,-0.41 2.54,-1.31c0,0 -6.41,-0.49 -8.89,-2.28c0.274,-0.718 0.904,-1.242 1.66,-1.38c0.935,-0.078 1.875,-0.078 2.81,0l-1.43,-1.93c8.19,1.15 11.63,-0.9 11.63,-0.9c-0.144,-0.812 -0.05,-1.649 0.27,-2.41c0.516,-0.756 1.311,-1.278 2.21,-1.45l0.83,4.41c0.55,0 1.16,-0.7 1.51,-2.86c1.11,1.93 0.52,2.16 1.28,4.61c0.519,-0.192 0.935,-0.59 1.15,-1.1c0.248,-0.421 0.395,-0.893 0.43,-1.38c0.482,0.645 0.853,1.364 1.1,2.13c0.44,1.7 0.66,3.23 0.66,3.23c0.549,-0.748 0.822,-1.664 0.77,-2.59c0.083,-0.962 -0.012,-1.932 -0.28,-2.86c1.72,2.533 3.024,5.325 3.86,8.27l0.83,-2.48c0.457,1.625 0.643,3.314 0.55,5c0.057,1.233 -0.057,2.468 -0.34,3.67c-0.283,1.202 2.35,0 3.38,-4c-0.097,1.111 -0.006,2.23 0.27,3.31c0.222,1.022 0.681,1.978 1.34,2.79l1.15,-1.68c0,0 5.36,4.69 7.17,7.44c1.81,2.75 2.48,4.42 1.1,5.24c-0.55,0.28 -1.08,-0.3 -2.67,0.22l1,2c-0.624,0.155 -1.276,0.155 -1.9,0c-0.36,-0.2 0.93,2.94 0.93,2.94c0,0 -1,-0.68 -1.36,-0.85c-0.368,-0.164 -0.754,-0.285 -1.15,-0.36c2.77,6.32 -1.49,8.67 -0.11,13.5c0.32,1.12 1.65,1.93 2.21,3c2.201,-1.664 5.031,-2.269 7.72,-1.65m13.52,18.76c0,0 -1.92,2.42 -0.83,6.62c-5.41,-0.35 -10.48,9.38 -10.48,9.38l-1.66,2.48c-1.1,1.11 -2,1.16 -3,0.28c-0.48,-0.4 -0.84,-1.46 -0.28,-3c1,-2.79 2.88,-3.71 4.69,-5.24c1.072,-1.087 1.491,-2.664 1.1,-4.14l-1.41,1.92l-1.93,-0.82l0.28,1.93c-1.576,1.969 -4.233,2.744 -6.62,1.93c-1.1,-0.28 -1.38,-1.38 -0.83,-3c0.959,-2.06 2.797,-3.583 5,-4.14c-1.325,-0.55 -2.815,-0.55 -4.14,0c-1.574,-0.096 -2.818,-1.417 -2.818,-2.994c0,-0.197 0.02,-0.393 0.058,-0.586c1.1,-0.55 3.21,-0.52 5.24,1.1c1.249,1.174 2.767,2.026 4.42,2.48c4.78,0.89 7.72,0 9.65,-2.2c-1.15,-3.282 -1.34,-6.824 -0.55,-10.21c1.38,0.28 3,2.21 4.69,5.79l-1.65,-0.27c0.014,1.024 0.406,2.007 1.1,2.76m-49.44,-35.39c0,0 -0.75,0.19 -1.14,-1.4c-0.143,-0.525 -0.431,-1 -0.83,-1.37c-0.148,0.356 -0.252,0.729 -0.31,1.11c0.001,0.397 0.045,0.792 0.13,1.18c-1.134,-2.406 -2.959,-4.422 -5.24,-5.79c-1.633,-0.883 -3.109,-2.028 -4.37,-3.39c-1.261,-1.362 -0.22,1.09 -0.23,1.45c0.045,0.497 0.118,0.991 0.22,1.48c-0.354,0.02 -0.705,-0.074 -1,-0.27c-0.32,-0.19 -1.65,-0.78 -1.65,-0.78c0,0 0.12,1.66 0.16,2.1c0.115,0.604 0.042,1.229 -0.21,1.79c-0.252,0.561 -0.16,0 -0.64,-0.61c-0.319,-0.386 -0.693,-0.722 -1.11,-1c-0.417,-0.278 0,1.16 0.06,2c0,0.55 0.21,2.16 0.21,2.16l-1.65,-1.65c0,0 -0.8,1.14 -0.33,4.93c0.31,2.43 2.52,4.39 2.41,4.61c0,0 -1.22,-0.33 -3.69,-2.53c-0.43,-0.39 -1.65,-1.66 -1.65,-1.66c-0.266,1.817 -0.094,3.672 0.5,5.41l-1.93,-2.21c-0.066,2.093 -0.534,4.154 -1.38,6.07l-1.14,-1.16c-0.576,-0.704 -1.441,-1.109 -2.35,-1.1c0.132,0.683 0.212,1.375 0.24,2.07c-0.18,0.22 -1.33,-1.25 -2.7,-1.51c-1.37,-0.26 -2.8,0.1 -5.52,0.65c-0.747,0.126 -1.511,-0.108 -2.06,-0.63l-2.13,-1.9c-0.127,0.512 -0.127,1.048 0,1.56c0.12,0.576 0.336,1.127 0.64,1.63l-2.88,-2.39c-0.27,3.31 -0.82,5.24 -1.93,5.79l0,-1.93c-0.272,0.041 -0.548,0.041 -0.82,0c-0.26,-0.1 -0.57,-0.52 0,-1.1c1.4,-1.43 1.65,-2.76 1.1,-5.24c-0.83,2.48 -1.93,3.86 -3.31,3.58c-0.189,-0.628 -0.437,-1.238 -0.74,-1.82c-0.52,-1.07 -1.19,-0.94 -1.19,-0.94c0.083,0.918 0.083,1.842 0,2.76c-0.29,1.21 -1.66,1.79 -3,1.66c-1.34,-0.13 -2.62,-1.86 -2,-3.12c0.26,-0.405 0.6,-0.752 1,-1.02c4.21,-2.68 7,-3.51 13.68,-1.09c2.453,0.828 5.054,1.124 7.63,0.87c0.96,-0.113 1.894,-0.39 2.76,-0.82c1.337,-0.461 2.825,-0.145 3.86,0.82c1.035,0.965 -0.48,-4.28 1.1,-7.17c0.419,-0.583 0.88,-1.135 1.38,-1.65l0,-1.38c0.28,-3.31 1.43,-6.88 4.14,-9.11c1.489,-1.152 3.47,-1.462 5.24,-0.82c3.311,0.845 6.119,3.046 7.73,6.06c0.638,-0.04 1.233,-0.336 1.65,-0.82l2.49,3.31c0.223,-0.902 0.314,-1.832 0.27,-2.76l3.31,2.76c-1.476,1.015 -2.488,2.578 -2.81,4.34m-53.19,2.83c-1.33,-0.3 -0.29,-1.69 -1.43,-2.73c-0.401,-0.278 -0.853,-0.475 -1.33,-0.58c2.86,-1.811 6.659,-1.217 8.83,1.38c0,1.1 -0.28,1.65 -0.83,1.93c-1.048,0.201 -2.098,-0.384 -2.48,-1.38l-2.76,1.38Zm5,-9.93c1.11,-0.28 1.93,0.55 2.76,3c-1.1,0.28 -1.65,1.11 -1.93,2.49c-1.346,-0.452 -2.438,-1.456 -3,-2.76c-0.013,-0.103 -0.02,-0.208 -0.02,-0.312c0,-1.259 0.967,-2.325 2.22,-2.448m29.53,-36.87c0,0 -0.09,0.59 -0.09,0.79c0,0.2 0.08,0.77 0.08,0.77c-0.74,-0.014 -1.462,-0.229 -2.09,-0.62c-0.797,-0.477 -1.561,-1.005 -2.29,-1.58c-0.216,0.43 -0.269,0.924 -0.15,1.39c0.07,0.35 0.39,1.36 0.39,1.36c-1.664,0.178 -3.311,-0.492 -4.38,-1.78c-0.188,0.216 -0.337,0.463 -0.44,0.73c-0.115,0.441 -0.069,0.91 0.13,1.32c-0.92,0.47 -3.26,0.16 -4.33,0c-2.68,-0.41 -1.45,-2.52 -4.68,-2.52c-0.47,0.015 -0.934,0.114 -1.37,0.29l0.45,0.86c0,0 -2.11,0.28 -3.1,-0.74c-0.614,-0.691 -1.185,-1.419 -1.71,-2.18c-0.256,0.927 -1.118,1.566 -2.08,1.54l-0.56,-2.2c-1.13,0.07 -2.157,0.686 -2.75,1.65c-0.498,0.803 -0.71,1.751 -0.6,2.69c-0.209,0.252 -0.487,0.436 -0.8,0.53c-0.393,0.07 -0.797,0.032 -1.17,-0.11c-0.373,-0.142 0.52,1.11 0.34,1.44c-0.67,1.23 -3,0.58 -3.57,-0.69c-0.145,-0.836 -0.048,-1.697 0.28,-2.48c0.09,-0.24 0.47,-0.93 0.47,-0.93c1,-2.26 2.1,-2.16 3.67,-2.93c0.44,-0.22 1.65,-1.11 1.65,-1.11c-4.69,-0.27 -7.72,0.28 -8.83,1.66c-0.392,-0.52 -1.02,-0.81 -1.67,-0.77c-0.472,0.106 -0.929,0.271 -1.36,0.49c-0.354,-0.312 -0.688,-0.646 -1,-1c-0.46,-0.61 -0.27,-0.84 -0.11,-1c2.52,-1.665 5.602,-2.259 8.56,-1.65c2.958,0.609 10.11,2 13.51,2.48c1.632,0.374 3.285,0.651 4.95,0.83c1.142,-0.085 2.271,-0.289 3.37,-0.61c2.827,-0.53 5.311,-2.207 6.86,-4.63c1.549,-2.423 1.59,2.1 0.87,2.61c-3.09,2.17 -1.57,3.37 -1.57,3.37c1.93,-1.1 2.17,-1 3.7,-0.67c5,1 6.65,1.31 8.86,0.2c-0.637,1.585 -0.827,3.315 -0.55,5c0.08,0.44 0.73,2.46 0.25,1.79c-1.56,-2.21 -3.62,-2 -5.07,-2.25c-0.799,-0.266 -1.513,-0.739 -2.07,-1.37m-39.13,-13.43c-0.568,-0.781 -1.175,-1.532 -1.82,-2.25c4.69,-0.3 5.86,3.17 8.06,7.31l-4,0.1c-0.59,-1.786 -1.343,-3.513 -2.25,-5.16m30.27,-14.47c-0.479,-0.047 -0.95,-0.158 -1.4,-0.33c-2.31,-0.9 -2.57,-1.8 -2.76,-2.76c-0.835,-4.389 -2.227,-8.653 -4.14,-12.69c-0.85,-1.71 -2.93,-4.76 -3.26,-6.64c-0.18,-1.06 1.21,-2.65 2.43,-3.29c0.161,-0.06 0.332,-0.09 0.503,-0.09c0.698,0 1.302,0.503 1.427,1.19c0.421,2.422 0.975,4.819 1.66,7.18c0.55,1.1 1.1,2.48 1.65,3.58c1.542,3.318 2.555,6.858 3,10.49c0.06,0.9 1.14,1.36 1.65,1.65c0.51,0.29 2.17,1.44 2.17,1.44c-0.963,0.333 -1.993,0.426 -3,0.27m-17.17,-19.18c-1.33,0.35 -2.36,1.19 -3.74,0.36c-0.681,-0.309 -1.12,-0.991 -1.12,-1.739c0,-0.357 0.101,-0.708 0.29,-1.011c2,-2.72 6.25,-0.83 9.73,4.45c0,0 -3.95,-2.38 -5.16,-2.06m-2.09,-11.22c2.21,-0.28 4.42,1.38 6.9,4.69c-0.848,0.898 -1.339,2.076 -1.38,3.31c-0.926,-0.77 -2.107,-1.167 -3.31,-1.11c-2.363,-1.399 -3.319,-4.377 -2.21,-6.89m8.28,-2.21c0.62,-2.41 1.7,-2.46 2.45,-2.14c0.569,0.27 0.967,0.807 1.06,1.43c0.054,0.442 0.054,0.888 0,1.33c-0.29,1.24 -2.1,3.6 -1.83,4.35l-1.1,0.55c-0.717,-1.747 -0.908,-3.666 -0.55,-5.52m24.19,39.37l-1.32,-4.06c3.038,3.064 7.026,5.011 11.31,5.52c-3.909,1.87 -8.442,1.958 -12.42,0.24c-1.217,-0.541 -2.195,-1.509 -2.75,-2.72c1.65,0.27 3.41,0.56 5.18,1m15.51,2.29c2.128,-0.83 4.492,-0.83 6.62,0c2.21,0.83 4.36,0.55 6.62,0.27c0.55,-0.06 0.83,-0.27 0.83,-1.1l0,-1.5c0.026,-0.845 0.407,-1.641 1.05,-2.19c0.643,-0.549 0.67,-1 4.19,-1.55c0.823,-0.155 1.667,-0.155 2.49,0l-1.66,3.86c1.93,-0.55 5.78,-0.93 8.24,-5.52c1.425,2.556 1.138,5.74 -0.72,8c-1.67,2.14 -3.17,1.81 -5.35,3.23l4.24,-0.29c0,0 -0.29,1.35 -0.34,1.8c-0.097,1.452 -0.435,2.878 -1,4.22c-0.714,1.573 -1.699,3.009 -2.91,4.24c0.67,-0.243 1.355,-0.443 2.05,-0.6c0.71,-0.12 1,-0.13 1.32,0.15l-1.38,1.65c0.935,-0.441 1.969,-0.631 3,-0.55c-1.349,1.586 -3.066,2.818 -5,3.59c-4.1,1.67 -5.59,4.62 -6.07,8.27c-0.11,0.967 -0.073,1.944 0.11,2.9c0.19,0.64 -1.74,-1.69 -2.18,-2.36c-2.57,-3.93 -0.69,-9.92 3.72,-16.26c-2.187,1.133 -4.005,2.868 -5.24,5l-0.24,-3.9c-1.828,1.954 -4.084,3.46 -6.59,4.4c-2.76,1.38 -4.17,4.15 -4.72,7.46c-1.37,-5.24 -1,-6.39 -0.24,-8.31c0.408,-0.893 0.929,-1.73 1.55,-2.49c1.581,-1.589 3.08,-3.258 4.49,-5c-2.125,1.669 -4.568,2.888 -7.18,3.58c-1.894,0.343 -3.742,0.9 -5.51,1.66c1.45,-2.39 3.84,-2.21 6.06,-3.59c1.311,-0.957 2.044,-2.521 1.94,-4.14c-2.401,3.259 -6.596,4.695 -10.49,3.59c-2.823,-0.55 -5.727,-0.55 -8.55,0c-0.28,0 -0.2,-0.18 -0.1,-0.44c0.73,-2 3.35,-3.19 5.62,-3.42c1.71,-0.18 5.19,0.48 6.92,0.6c1.73,0.12 3.29,-1.15 4.11,-2.81c-2.514,0.274 -5.058,-0.009 -7.45,-0.83c2.21,0.56 5,-0.27 7.73,-1.65m10.76,-28.43c-0.28,1.11 -0.79,1.92 -1.66,1.94c-2.28,0 -3.25,-0.1 -7.45,1.65c-0.925,0.481 -2.002,0.581 -3,0.28c-1.05,-0.43 -1.38,-1.37 -1.11,-3.86c-0.077,-0.883 0.354,-1.737 1.11,-2.2c0.59,-0.33 2.48,-1.11 2.48,-1.11c-2.48,-1.1 -3.31,-1.93 -2.48,-2.2c3.86,-2.21 7.17,-3 9.38,-2.21c0.942,0.636 1.701,1.509 2.2,2.53c2.476,0.247 4.972,-0.233 7.18,-1.38c0,-0.55 -0.55,-0.77 -1.38,-0.83c-2.08,-0.14 -8.28,-1.1 -8.28,-1.1c-0.55,-3 1.94,-4.41 7.45,-4.69c0,-1.93 2.48,-1.93 7.73,-0.55c0,0 -0.43,-1.71 0,-1.93c2.75,-1.41 5.79,0 6.34,0.82c-1.866,1.114 -3.467,2.623 -4.69,4.42c-0.83,1.1 -1.1,3.86 -0.55,8.55l0.46,2.45c-0.85,-1.73 -4.2,-2.23 -4.2,-2.23c0.87,2.2 0.77,3.65 0,4.42c-0.787,0.568 -1.713,0.913 -2.68,1c-1.368,0.17 -2.756,-0.055 -4,-0.65c-1,-0.58 -1.66,-1.94 -2.76,-3.05m58.76,33.39c-4.28,-2.64 -10.63,-1.64 -14.69,1.36c-5.25,3.85 -9.18,8.84 -9.38,15.73c-0.15,4.94 1.39,10.54 4,15.74c2.5,5 5.47,9.8 6.75,14.61c1.58,6 -0.83,10.21 -5.52,12.41c-4.046,2.29 -9.234,1.087 -11.86,-2.75c-3.53,-5.38 -5.82,-9.21 -12.69,-14.63c-4.77,-3.76 -6.9,-9.38 -6.9,-17.1l3.86,4.14c-1.65,-5.8 -1.1,-10.21 1.66,-13.8c0,3.59 0.55,5.52 1.65,6.07c-0.153,-1.879 0.131,-3.769 0.83,-5.52l4.42,-5.24c1.119,-1.421 1.704,-3.192 1.65,-5c1.116,1.41 2.534,2.552 4.15,3.34c-0.565,-1.207 -0.849,-2.527 -0.83,-3.86c0.226,-2.032 1.212,-3.905 2.76,-5.24c1.588,-1.559 3.062,-3.23 4.41,-5c1.706,-2.298 2.495,-5.152 2.21,-8c1.369,1.039 2.986,1.704 4.69,1.93l-2.21,-4.69c-0.545,-1.533 -0.444,-3.223 0.28,-4.68c1.562,-3.6 0.919,-7.794 -1.65,-10.76c2.75,0.27 4.25,0 5.35,-1.38c0.265,-0.445 0.502,-0.906 0.71,-1.38c-1.308,0.651 -2.834,0.713 -4.19,0.17c-2.63,-1.4 -3.26,-3.76 -5.46,-5.69c2.42,-0.753 4.095,-2.986 4.14,-5.52c-1.061,1.177 -2.556,1.874 -4.14,1.93c-1.764,-0.14 -3.381,-1.047 -4.42,-2.48c-1.039,-1.433 0.65,-0.32 1.63,-3.17c0.205,-0.647 0.316,-1.321 0.33,-2c-2.49,1.37 -4.72,1.6 -7.75,1.88c-2.012,-1.95 -4.475,-3.372 -7.17,-4.14c0.227,-1.688 -0.276,-3.394 -1.38,-4.69c-0.12,1.411 -0.819,2.712 -1.93,3.59c-1.74,1.17 -3.6,0.94 -5.25,3.58c-8,1.11 -12.74,2.89 -12.69,4.14c0.19,0.847 0.468,1.671 0.83,2.46c-6.34,0.56 -10.76,1.94 -13,4.7l2.49,3l0,6.07c-0.013,1.263 0.945,2.342 2.2,2.48c0.87,0.1 1.81,1 2.49,2.49c0.394,0.829 1.311,1.285 2.21,1.1c-0.791,-1.016 -1.094,-2.33 -0.83,-3.59c0.264,-1.26 2.88,-0.72 3.86,-0.83c4.39,-0.46 6.07,1.93 5,6.07c-0.606,1.158 -1.714,1.974 -3,2.21l-1.93,-1.1c0,1.38 0,1.93 -0.55,1.65l-2.48,-1.65c0.82,1.93 -0.09,3.91 0.82,6.34c0.574,1.296 1.661,2.296 3,2.76c-0.12,-0.88 -0.71,-1.62 0,-2.76c0.95,-1.53 4,-1.84 5.52,-1.1c1.65,0.82 1.93,3.59 0.82,5.24l-0.82,0.83c-1.11,1.1 -3.59,1.1 -8,0c-3.286,-1.086 -6.788,-1.35 -10.2,-0.77l3.31,2.21c-5.613,0.255 -11.064,-1.965 -14.9,-6.07l0,3.86c-0.573,-0.001 -1.135,-0.164 -1.62,-0.47c-3.24,-2.19 -4.95,-10.35 -6.66,-13.87c-1.71,-3.52 -3.58,-7.18 -3.86,-11c-0.28,-1.66 -0.24,-3.73 -1.1,-5.24c-1.9,-3.31 -3.87,-6.9 -6.07,-10.21c-1.94,-2.76 -4.69,-3 -8.56,-0.83c0,0 5,0.62 5,3c-0.741,1.446 -0.936,3.112 -0.55,4.69c-1.09,-1.424 -2.662,-2.406 -4.42,-2.76c-1.729,-0.196 -3.416,-0.661 -5,-1.38c-2.48,-1.1 -4.41,0 -5.52,3.31c1.931,-0.846 4.184,-0.523 5.8,0.83c-0.28,3.31 0,5.52 1.37,6.34c0,0 -3.48,1.73 -4.69,2.21c-2.43,1 -4.13,3.31 -3.58,5.79c0.885,-0.737 1.904,-1.297 3,-1.65c2.26,-0.43 9.11,1.1 9.11,1.1c2.2,0.55 5.68,4.1 6.34,7.73c0.51,2.73 0.55,7.77 1,11.56c0.5,4.66 1.69,8.66 7,15.2c0.79,1.19 1.81,2.21 3,3c-1.033,0.553 -2.152,0.929 -3.31,1.11l-0.83,0l-0.55,0c-1.579,-0.011 -3.152,-0.199 -4.69,-0.56c-4.32,-1 -6.25,0.36 -13.24,-3c-1.338,-1.913 -2.515,-3.933 -3.52,-6.04c-0.539,-0.898 -1.454,-1.507 -2.49,-1.66c-0.41,-0.05 -1.65,0 -1.65,0l-3.86,-0.82c-1.93,-0.28 -2.81,0.33 -3.42,1.29c-0.61,0.96 -0.45,3.4 -0.45,3.4c3.4,-2.44 6.07,-0.83 7.73,4.69c0.17,0.52 0.06,0.84 -0.28,0.82c-2.2,0 -3.52,0.58 -3.86,1.38c-0.23,0.57 -1.1,2.21 -1.1,2.21c-0.733,0.597 -1.403,1.267 -2,2c-1,1.48 -1.53,3.9 3.11,6.33c-0.55,-3 0,-4.42 1.66,-4.42l2.76,-0.27c0.819,-0.149 1.648,-0.243 2.48,-0.28c0.373,0.068 0.74,0.162 1.1,0.28c0.36,0.118 -0.21,0.2 -0.27,0.27c-1,1.27 -0.83,3.31 -0.55,4.69c-0.067,1.196 -0.067,2.394 0,3.59c0.27,2 2.48,3.31 4.41,3.59c-0.83,-1.66 -1.7,-3.5 -0.59,-5.17c0.945,-1.527 2.437,-2.639 4.17,-3.11c2.1,-0.52 4.28,-0.08 8.21,2.74c5.26,3.76 6.82,2.31 9.73,5.54c0.761,1.125 1.749,2.079 2.9,2.8c0,-1.33 0.26,-2.39 0.26,-3.5c2.2,3.31 4.25,6.14 7.56,8.34l9.65,5.52c2.941,1.526 5.421,3.812 7.18,6.62c-4.506,-1.338 -9.126,-2.262 -13.8,-2.76c-3,-0.27 -5.84,0.4 -7,4.47c-1.059,4.153 -2.437,8.218 -4.12,12.16c-2.63,5.79 -8.62,3.88 -11.52,3.51c-1.862,-0.17 -3.683,-0.647 -5.39,-1.41c-0.452,-1.129 -0.683,-2.334 -0.68,-3.55c0.198,-2.086 -0.183,-4.186 -1.1,-6.07c-0.611,-1.154 -1.716,-1.969 -3,-2.21c-1.284,-0.241 -3.29,-0.91 -4.41,-1.1c-2.774,-0.498 -5.515,1.168 -6.35,3.86l0,0.55c2.21,-1.38 4.14,-1.66 5.24,-1.1c0.83,0.55 1.11,1.65 0.83,3.31c-2.701,-0.774 -5.608,-0.374 -8,1.1c-1.55,1.001 -2.232,2.939 -1.65,4.69c0.682,-0.682 1.541,-1.16 2.48,-1.38c0.782,-0.198 1.612,0.009 2.21,0.55l4.13,4.69c0,0 -1.88,1.21 -2.48,1.66c-1.17,0.88 -5.36,5.62 -0.89,8.41c0.254,-0.864 0.763,-1.63 1.46,-2.2c0.572,-0.349 1.244,-0.497 1.91,-0.42c2.06,0.272 4.156,-0.011 6.07,-0.82c1.93,4.41 3.59,6.89 5.52,7.17c0.58,-5.76 6.9,-3 6.9,-3c0.704,0.388 1.373,0.837 2,1.34c0.811,0.485 1.72,0.782 2.66,0.87c-0.531,-0.505 -0.941,-1.124 -1.2,-1.81c0,-0.07 -0.16,-0.65 -0.16,-0.65c2.352,1.049 4.864,1.695 7.43,1.91l0,-2.48c1.612,1.088 3.388,1.912 5.26,2.44c1.872,0.528 -2,-3.32 -0.83,-4.69c1.17,-1.37 3,-3.59 3,-3.59c0.361,0.113 0.729,0.207 1.1,0.28c3.93,0.36 4.69,-7.45 4.69,-7.45c3.03,0.838 5.789,2.455 8,4.69l1.38,-0.55l1.66,1.93c0.55,0.83 1.1,0.83 1.93,0c0.953,1.511 2.284,2.748 3.86,3.59c1.576,0.842 -0.85,-3.37 2.48,-4.14c0,0 -0.42,1.14 -0.53,1.54c-0.192,0.607 -0.28,1.243 -0.26,1.88l1.62,-1.49c0,2.48 -0.05,5.09 -1.38,7.17c-1.9,3 -4.06,6 -1.38,9.66c0.73,1 1.76,1.22 2.76,3c0.81,1.47 1.11,3.31 2.48,4.14c0.625,-0.916 1.091,-1.93 1.38,-3l4.14,3.58l0.83,-4.41c0,0 9.23,-2.76 12.41,-3c4.14,-0.36 8.28,-0.27 12.14,-1.38c-0.547,3.42 -0.262,6.923 0.83,10.21c-2.76,1.93 -6.67,2.35 -9.36,0.39c-3.32,-2.41 -4.48,-3.9 -7.47,-3.15c-5.84,-1 -6.16,2.11 -6.16,2.11c1.11,-0.55 2.41,0.43 3.52,0.71c-0.11,2.84 1.26,3 3.47,4.08l-2.76,2.76c-2.76,1.1 -3.86,3.31 -2.76,6.62l2.21,-2.21c1.001,-0.576 2.177,-0.772 3.31,-0.55l2.21,0.55l2.2,0.28c0,0 -1,4.31 -1.4,6.1c-0.312,1.851 -0.129,3.752 0.53,5.51c0.837,-0.919 1.754,-1.762 2.74,-2.52c1.045,-0.694 2.179,-1.246 3.37,-1.64c2.75,-1.16 3.59,-3 3.87,-5.52c0.15,-1.36 0.57,-2.54 4.14,-3.59c2.917,-0.457 5.869,-0.641 8.82,-0.55c-1.37,-1.1 -1.65,-3.58 -1.1,-7.72c0.53,-0.35 3.34,2.71 3.34,2.71c0.28,-1.38 1.08,-2.16 0.8,-3.82c-0.171,-0.623 -0.553,-1.167 -1.08,-1.54l2,1.14c0.463,-1.265 0.235,-2.683 -0.6,-3.74l1.93,1.66c0.217,-1.108 0.12,-2.255 -0.28,-3.31c-0.34,-1.06 -1.29,-3.09 -1.65,-4.14c-0.234,-0.724 -0.421,-1.462 -0.56,-2.21c-0.47,-2.73 -1.22,-5.64 -3,-7.72c-2.05,-2.36 -5.74,-4.24 -8.94,-3.77c-4.09,0.361 -8.195,0.514 -12.3,0.46l3.58,-4.42l7.73,0.28c10.48,0 16.83,-3.86 18.76,-11.59c1.1,-6.34 -0.43,-13.74 -5.24,-21.79c-3.07,-5.12 -5.63,-10.47 -6.35,-16.28c-0.771,-5.372 1.589,-10.738 6.07,-13.8c5.51,-3.86 9.93,-2.75 14.07,1.66c-3.31,1.66 -6.09,3.81 -6.62,8.28c-0.232,1.79 0.057,3.609 0.83,5.24c0.482,-1.095 1.133,-2.107 1.93,-3c-0.1,1.665 -0.1,3.335 0,5c0.1,1.665 0.32,6.61 6.9,7.73c-1.213,-1.611 -1.976,-3.517 -2.21,-5.52c-0.19,-3.35 1.75,-6.76 2.76,-9.93c2,-6.4 0.22,-11.23 -4.42,-14.08" style="fill-rule:nonzero;"/>        <path d="M11.31,112.82l0,-38l12.11,0c2.022,-0.033 4.039,0.199 6,0.69c1.505,0.385 2.919,1.065 4.16,2c1.059,0.809 1.893,1.876 2.42,3.1c0.537,1.317 0.802,2.728 0.78,4.15c0.002,0.918 -0.147,1.83 -0.44,2.7c-0.3,0.877 -0.754,1.693 -1.34,2.41c-0.629,0.784 -1.382,1.46 -2.23,2c-0.975,0.62 -2.032,1.101 -3.14,1.43c2.349,0.339 4.54,1.385 6.28,3c1.462,1.528 2.242,3.587 2.16,5.7c0.023,1.514 -0.28,3.014 -0.89,4.4c-0.591,1.323 -1.477,2.493 -2.59,3.42c-1.241,0.993 -2.665,1.733 -4.19,2.18c-1.836,0.546 -3.745,0.809 -5.66,0.78l-13.43,0.04Zm5.14,-21l6.78,0c1.271,0.036 2.541,-0.112 3.77,-0.44c0.955,-0.261 1.85,-0.71 2.63,-1.32c0.675,-0.528 1.207,-1.215 1.55,-2c0.345,-0.837 0.519,-1.735 0.51,-2.64c0.157,-1.858 -0.587,-3.683 -2,-4.9c-1.34,-1 -3.43,-1.57 -6.25,-1.57l-7,0l0.01,12.87Zm0,3.66l0,13.22l8.21,0c1.278,0.025 2.552,-0.144 3.78,-0.5c0.957,-0.286 1.843,-0.77 2.6,-1.42c0.668,-0.589 1.18,-1.335 1.49,-2.17c0.328,-0.886 0.49,-1.825 0.48,-2.77c0.078,-1.79 -0.694,-3.515 -2.08,-4.65c-1.39,-1.14 -3.48,-1.71 -6.29,-1.71l-8.19,0Z" style="fill-rule:nonzero;"/>        <path d="M77.58,112.82l-4,0c-0.398,0.021 -0.792,-0.099 -1.11,-0.34c-0.291,-0.229 -0.512,-0.533 -0.64,-0.88l-3.55,-9.17l-17,0l-3.55,9.17c-0.139,0.332 -0.359,0.625 -0.64,0.85c-0.313,0.253 -0.708,0.385 -1.11,0.37l-3.98,0l15.19,-38l5.21,0l15.18,38Zm-24.88,-14.1l14.18,0l-6,-15.44c-0.449,-1.169 -0.826,-2.365 -1.13,-3.58c-0.2,0.72 -0.39,1.39 -0.58,2c-0.19,0.61 -0.36,1.14 -0.54,1.6l-5.93,15.42Z" style="fill-rule:nonzero;"/>        <path d="M102.57,80.78c-0.124,0.232 -0.294,0.436 -0.5,0.6c-0.203,0.139 -0.445,0.209 -0.69,0.2c-0.371,-0.045 -0.72,-0.202 -1,-0.45c-0.485,-0.36 -0.989,-0.693 -1.51,-1c-0.699,-0.405 -1.436,-0.74 -2.2,-1c-2.008,-0.607 -4.152,-0.607 -6.16,0c-0.812,0.27 -1.564,0.699 -2.21,1.26c-0.58,0.516 -1.037,1.155 -1.34,1.87c-0.302,0.736 -0.455,1.525 -0.45,2.32c-0.036,0.941 0.239,1.869 0.78,2.64c0.55,0.721 1.236,1.326 2.02,1.78c0.925,0.523 1.9,0.951 2.91,1.28l3.34,1.13c1.14,0.39 2.26,0.82 3.34,1.31c1.057,0.469 2.041,1.088 2.92,1.84c0.866,0.759 1.568,1.689 2.06,2.73c0.559,1.257 0.825,2.625 0.78,4c0.011,1.595 -0.274,3.179 -0.84,4.67c-0.548,1.431 -1.393,2.73 -2.48,3.81c-1.147,1.109 -2.508,1.974 -4,2.54c-1.723,0.645 -3.551,0.96 -5.39,0.93c-2.309,0.029 -4.599,-0.428 -6.72,-1.34c-1.955,-0.842 -3.718,-2.073 -5.18,-3.62l1.48,-2.44c0.143,-0.193 0.319,-0.359 0.52,-0.49c0.199,-0.131 0.432,-0.2 0.67,-0.2c0.482,0.048 0.934,0.26 1.28,0.6c0.57,0.468 1.164,0.905 1.78,1.31c0.817,0.53 1.688,0.969 2.6,1.31c1.192,0.429 2.454,0.633 3.72,0.6c1.107,0.016 2.209,-0.153 3.26,-0.5c0.899,-0.302 1.726,-0.785 2.43,-1.42c0.661,-0.609 1.18,-1.357 1.52,-2.19c0.366,-0.898 0.547,-1.861 0.53,-2.83c0.043,-0.999 -0.23,-1.986 -0.78,-2.82c-0.527,-0.752 -1.209,-1.383 -2,-1.85c-0.92,-0.52 -1.892,-0.942 -2.9,-1.26l-3.34,-1.06c-1.134,-0.358 -2.249,-0.776 -3.34,-1.25c-1.06,-0.46 -2.04,-1.088 -2.9,-1.86c-0.878,-0.796 -1.58,-1.767 -2.06,-2.85c-0.557,-1.335 -0.823,-2.774 -0.78,-4.22c-0.015,-2.718 1.067,-5.33 3,-7.24c1.055,-1.014 2.303,-1.807 3.67,-2.33c1.596,-0.607 3.293,-0.906 5,-0.88c1.978,-0.026 3.945,0.313 5.8,1c1.715,0.646 3.278,1.64 4.59,2.92l-1.23,2.45Z" style="fill-rule:nonzero;"/>        <path d="M131.4,80.78c-0.121,0.234 -0.292,0.439 -0.5,0.6c-0.203,0.139 -0.445,0.209 -0.69,0.2c-0.389,-0.035 -0.756,-0.193 -1.05,-0.45c-0.485,-0.36 -0.989,-0.693 -1.51,-1c-0.699,-0.405 -1.436,-0.74 -2.2,-1c-2.008,-0.607 -4.152,-0.607 -6.16,0c-0.812,0.27 -1.564,0.699 -2.21,1.26c-0.58,0.516 -1.037,1.155 -1.34,1.87c-0.302,0.736 -0.455,1.525 -0.45,2.32c-0.036,0.941 0.239,1.869 0.78,2.64c0.564,0.726 1.268,1.331 2.07,1.78c0.928,0.523 1.906,0.952 2.92,1.28l3.33,1.13c1.14,0.39 2.26,0.82 3.34,1.31c1.057,0.469 2.041,1.088 2.92,1.84c0.869,0.759 1.574,1.688 2.07,2.73c0.559,1.257 0.825,2.625 0.78,4c0.008,1.596 -0.28,3.179 -0.85,4.67c-0.548,1.431 -1.393,2.73 -2.48,3.81c-1.147,1.109 -2.508,1.974 -4,2.54c-1.723,0.645 -3.551,0.96 -5.39,0.93c-2.309,0.029 -4.599,-0.428 -6.72,-1.34c-1.954,-0.844 -3.716,-2.076 -5.18,-3.62l1.48,-2.44c0.146,-0.19 0.321,-0.356 0.52,-0.49c0.202,-0.132 0.439,-0.202 0.68,-0.2c0.479,0.049 0.928,0.261 1.27,0.6c0.571,0.47 1.169,0.907 1.79,1.31c0.812,0.532 1.68,0.971 2.59,1.31c1.195,0.43 2.46,0.633 3.73,0.6c1.107,0.015 2.209,-0.154 3.26,-0.5c0.894,-0.305 1.717,-0.788 2.42,-1.42c0.661,-0.609 1.18,-1.357 1.52,-2.19c0.366,-0.898 0.547,-1.861 0.53,-2.83c0.043,-0.999 -0.23,-1.986 -0.78,-2.82c-0.527,-0.752 -1.209,-1.383 -2,-1.85c-0.92,-0.52 -1.892,-0.942 -2.9,-1.26l-3.34,-1.06c-1.134,-0.36 -2.249,-0.777 -3.34,-1.25c-1.06,-0.46 -2.04,-1.088 -2.9,-1.86c-0.878,-0.796 -1.58,-1.767 -2.06,-2.85c-0.557,-1.335 -0.823,-2.774 -0.78,-4.22c-0.015,-2.718 1.067,-5.33 3,-7.24c1.055,-1.014 2.303,-1.807 3.67,-2.33c1.596,-0.607 3.293,-0.906 5,-0.88c1.982,-0.026 3.951,0.313 5.81,1c1.711,0.649 3.27,1.643 4.58,2.92l-1.23,2.45Z" style="fill-rule:nonzero;"/>        <path d="M164.18,74.85l0,4.15l-18.18,0l0,12.65l14.76,0l0,4l-14.76,0l0,13l18.23,0l0,4.18l-23.4,0l0,-38l23.35,0.02Z" style="fill-rule:nonzero;"/>        <path d="M198.18,74.85l0,4.32l-12.27,0l0,33.65l-5.14,0l0,-33.65l-12.32,0l0,-4.32l29.73,0Z" style="fill-rule:nonzero;"/>        <path d="M386.53,108.61c0.942,0.005 1.884,-0.046 2.82,-0.15c0.819,-0.089 1.631,-0.236 2.43,-0.44c0.73,-0.179 1.445,-0.413 2.14,-0.7c0.67,-0.27 1.35,-0.59 2,-0.94l0,-8.38l-5.89,0c-0.294,0.012 -0.582,-0.092 -0.8,-0.29c-0.197,-0.188 -0.309,-0.448 -0.31,-0.72l0,-2.9l11.68,0l0,14.57c-0.947,0.684 -1.951,1.286 -3,1.8c-1.065,0.522 -2.172,0.954 -3.31,1.29c-1.238,0.354 -2.502,0.611 -3.78,0.77c-1.45,0.17 -2.91,0.253 -4.37,0.25c-2.596,0.032 -5.172,-0.45 -7.58,-1.42c-2.236,-0.907 -4.259,-2.27 -5.94,-4c-1.695,-1.764 -3.015,-3.852 -3.88,-6.14c-0.952,-2.513 -1.423,-5.183 -1.39,-7.87c-0.034,-2.702 0.431,-5.387 1.37,-7.92c1.698,-4.663 5.354,-8.356 10,-10.1c2.556,-0.962 5.269,-1.437 8,-1.4c1.403,-0.008 2.805,0.102 4.19,0.33c1.225,0.22 2.427,0.555 3.59,1c1.069,0.398 2.094,0.904 3.06,1.51c0.933,0.589 1.813,1.258 2.63,2l-1.46,2.33c-0.228,0.436 -0.678,0.713 -1.17,0.72c-0.327,-0.015 -0.644,-0.115 -0.92,-0.29c-0.45,-0.25 -0.94,-0.55 -1.49,-0.9c-0.633,-0.397 -1.303,-0.732 -2,-1c-0.899,-0.364 -1.83,-0.646 -2.78,-0.84c-1.251,-0.245 -2.525,-0.359 -3.8,-0.34c-1.983,-0.039 -3.955,0.3 -5.81,1c-1.675,0.664 -3.184,1.688 -4.42,3c-1.258,1.358 -2.215,2.967 -2.81,4.72c-0.689,1.997 -1.027,4.098 -1,6.21c-0.041,2.185 0.297,4.361 1,6.43c0.618,1.773 1.595,3.401 2.87,4.78c1.233,1.305 2.734,2.329 4.4,3c1.823,0.719 3.771,1.069 5.73,1.03Z" style="fill-rule:nonzero;"/>        <path d="M444.51,93.37c0.029,2.67 -0.429,5.324 -1.35,7.83c-0.842,2.286 -2.142,4.375 -3.82,6.14c-1.666,1.739 -3.685,3.103 -5.92,4c-4.916,1.893 -10.364,1.893 -15.28,0c-2.227,-0.901 -4.238,-2.265 -5.9,-4c-1.678,-1.765 -2.978,-3.854 -3.82,-6.14c-1.8,-5.064 -1.8,-10.596 0,-15.66c0.841,-2.289 2.141,-4.381 3.82,-6.15c1.664,-1.733 3.674,-3.096 5.9,-4c4.913,-1.906 10.367,-1.906 15.28,0c2.234,0.899 4.252,2.262 5.92,4c1.679,1.769 2.979,3.861 3.82,6.15c0.921,2.506 1.379,5.16 1.35,7.83Zm-5.27,0c0.019,-2.134 -0.319,-4.257 -1,-6.28c-0.561,-1.738 -1.481,-3.339 -2.7,-4.7c-1.168,-1.308 -2.618,-2.333 -4.24,-3c-3.572,-1.373 -7.528,-1.373 -11.1,0c-1.623,0.669 -3.076,1.694 -4.25,3c-1.227,1.358 -2.154,2.959 -2.72,4.7c-1.279,4.085 -1.279,8.465 0,12.55c0.569,1.736 1.496,3.334 2.72,4.69c1.179,1.285 2.631,2.29 4.25,2.94c3.574,1.36 7.526,1.36 11.1,0c1.617,-0.648 3.066,-1.653 4.24,-2.94c1.214,-1.36 2.134,-2.957 2.7,-4.69c0.681,-2.02 1.019,-4.139 1,-6.27Z" style="fill-rule:nonzero;"/>        <path d="M457.42,108l16.43,0l0,4.32l-21.57,0l0,-38l5.14,0l0,33.68Z" style="fill-rule:nonzero;"/>        <path d="M513.17,93.37c0.034,2.648 -0.424,5.279 -1.35,7.76c-1.672,4.53 -5.216,8.129 -9.72,9.87c-2.438,0.933 -5.03,1.395 -7.64,1.36l-14.2,0l0,-38l14.2,0c2.61,-0.035 5.202,0.427 7.64,1.36c2.218,0.864 4.228,2.186 5.9,3.88c1.677,1.712 2.978,3.756 3.82,6c0.928,2.484 1.385,5.119 1.35,7.77Zm-5.27,0c0.031,-2.122 -0.29,-4.234 -0.95,-6.25c-0.571,-1.727 -1.494,-3.317 -2.71,-4.67c-1.175,-1.278 -2.625,-2.273 -4.24,-2.91c-1.765,-0.688 -3.646,-1.028 -5.54,-1l-9,0l0,29.65l9,0c1.894,0.028 3.775,-0.312 5.54,-1c1.615,-0.637 3.065,-1.632 4.24,-2.91c1.237,-1.342 2.177,-2.93 2.76,-4.66c0.643,-2.019 0.948,-4.131 0.9,-6.25Z" style="fill-rule:nonzero;"/>    </g></svg>