<?xml version="1.0" encoding="UTF-8" standalone="no"?><!DOCTYPE svg PUBLIC "-//W3C//DTD SVG 1.1//EN" "http://www.w3.org/Graphics/SVG/1.1/DTD/svg11.dtd"><svg width="100%" height="100%" viewBox="0 0 1024 512" version="1.1" xmlns="http://www.w3.org/2000/svg" xmlns:xlink="http://www.w3.org/1999/xlink" xml:space="preserve" style="fill-rule:evenodd;clip-rule:evenodd;stroke-linejoin:round;stroke-miterlimit:2;"><title>Bondster</title><desc>Bondster is a Czech FinTech start-up that offers investments in loans.We connect investors from the general public with trusted lenders. We bring new opportunities for investors who can easily earn attractive returns without any in-depth knowledge of the financial market.On the Bondster marketplace, you can invest in many loans from various loans providers. To eliminate the risk, loans are usually secured, for example by real estate. Thanks to Bondster, investors can earn high returns of 10 % annually and more.</desc>    <g id="Layer-1" transform="matrix(1.21016,0,0,1.21016,159.629,-58.2276)">        <g transform="matrix(0,-1,-1,0,284.165,50.6821)">            <path d="M-143.581,-143.581c-80.258,0 -145.321,64.283 -145.321,143.581c0,79.298 65.063,143.581 145.321,143.581c80.258,0 145.321,-64.283 145.321,-143.581c0,-79.298 -65.063,-143.581 -145.321,-143.581" style="fill:rgb(209,88,87);fill-rule:nonzero;"/>        </g>        <g transform="matrix(1,0,0,1,71.6682,439.241)">            <path d="M0,-37.854c-5.807,-2.467 -15.399,-2.789 -25.35,-2.659c-0.023,-10.111 0.075,-7.748 0.174,-19.78c0.037,-4.646 -3.653,-8.444 -8.246,-8.482l-0.069,0c-4.559,0 -8.273,3.722 -8.311,8.345c0,0 -0.135,14.021 -0.099,17.559c0.143,14.149 0.683,14.44 2.494,16.849c1.057,1.045 2.241,2.49 5.933,2.49c0,0 2.193,-0.031 3.699,-0.066c4.776,-0.114 19.304,-0.455 23.342,1.26c1.246,0.529 12.165,5.533 12.121,18.288c-0.036,10.525 -7.85,18.144 -18.593,18.144l-0.08,0c-5.348,-0.02 -9.251,-0.029 -12.367,-0.034l0,-21.96c0,-4.646 -3.722,-8.413 -8.313,-8.413c-4.591,0 -8.313,3.767 -8.313,8.413l0,28.236c0,0.368 0.003,1.757 0.003,2.112c-0.009,4.646 3.705,8.421 8.298,8.429l3.855,0.005c3.739,0.003 8.566,0.007 16.776,0.039l0.141,0c20.018,0 35.151,-14.987 35.218,-34.914c0.06,-17.975 -11.982,-29.475 -22.313,-33.861" style="fill:rgb(43,94,130);fill-rule:nonzero;"/>        </g>        <g transform="matrix(1,0,0,1,118.032,434.701)">            <path d="M0,-0.138c0,6.11 1.847,11.085 5.116,15.064c3.552,3.409 8.242,5.258 13.644,5.258c4.973,0 9.521,-1.849 13.074,-5.258c3.553,-3.979 5.543,-8.954 5.543,-15.064c0,-5.828 -1.99,-10.944 -5.543,-14.782c-3.553,-3.127 -8.101,-5.401 -13.074,-5.401c-5.402,0 -10.092,2.274 -13.644,5.401c-3.269,3.838 -5.116,8.954 -5.116,14.782m-5.685,25.012c-6.111,-6.254 -9.807,-15.064 -9.807,-25.012c0,-9.666 3.696,-18.05 9.807,-24.871c6.395,-6.68 14.638,-10.803 24.445,-10.803c9.379,0 17.905,4.123 23.733,10.803c6.395,6.821 9.948,15.205 9.948,24.871c0,9.948 -3.553,18.758 -9.948,25.012c-5.828,6.68 -14.354,10.8 -23.733,10.8c-9.807,0 -18.05,-4.12 -24.445,-10.8" style="fill:rgb(43,94,130);fill-rule:nonzero;"/>        </g>        <g transform="matrix(1,0,0,1,238.316,440.388)">            <path d="M0,-11.937l0,33.966c0,4.12 -3.269,7.532 -7.391,7.532c-3.979,0 -7.532,-3.412 -7.532,-7.532l0,-33.966c0,-7.958 -6.68,-14.353 -14.781,-14.353c-7.958,0 -14.211,6.395 -14.211,14.353l0,33.966c0,0.426 0,0.852 -0.284,1.423c-0.711,3.409 -3.837,6.109 -7.532,6.109c-4.264,0 -7.532,-3.412 -7.532,-7.532l0,-33.966l0,-22.029c0,-4.12 3.268,-7.532 7.532,-7.532c2.984,0 5.685,1.707 6.963,4.405c4.265,-2.698 9.522,-4.405 15.064,-4.405c16.487,0 29.704,13.501 29.704,29.561" style="fill:rgb(43,94,130);fill-rule:nonzero;"/>        </g>        <g transform="matrix(1,0,0,1,281.45,426.035)">            <path d="M0,-11.655c-5.116,0 -9.804,2.133 -13.357,5.828c-3.553,3.553 -5.686,8.669 -5.686,14.355c0,5.399 2.133,10.515 5.686,14.068c3.553,3.694 8.241,5.828 13.357,5.828c5.26,0 9.807,-2.134 13.36,-5.828c3.553,-3.553 5.686,-8.669 5.686,-14.068c0,-5.686 -2.133,-10.802 -5.686,-14.355c-3.553,-3.695 -8.1,-5.828 -13.36,-5.828m34.536,47.896c0,4.12 -3.412,7.673 -7.676,7.673c-3.835,0 -6.821,-2.701 -7.532,-6.11c-5.398,3.694 -12.222,6.11 -19.328,6.11c-19.184,0 -34.533,-16.201 -34.533,-35.386c0,-19.472 15.349,-35.673 34.533,-35.673c6.965,0 13.786,2.274 19.046,5.968l0,-26.716c0,-4.123 3.409,-7.676 7.814,-7.676c4.264,0 7.676,3.553 7.676,7.676l0,84.134Z" style="fill:rgb(43,94,130);fill-rule:nonzero;"/>        </g>        <g transform="matrix(1,0,0,1,326.31,419.211)">            <path d="M0,30.416c2.557,-3.412 7.532,-3.838 10.659,-1.137c3.694,3.127 10.089,6.394 15.631,6.253c3.838,0 7.391,-1.281 9.666,-2.7c1.989,-1.708 2.556,-3.127 2.556,-4.264c0,-0.712 -0.141,-0.997 -0.426,-1.423c-0.141,-0.426 -0.711,-0.993 -1.848,-1.704c-1.99,-1.423 -6.251,-2.986 -11.367,-3.979l-0.144,0c-4.405,-0.853 -8.67,-1.99 -12.364,-3.694c-3.838,-1.849 -7.247,-4.409 -9.806,-8.244c-1.564,-2.559 -2.416,-5.686 -2.416,-8.954c0,-6.536 3.697,-12.078 8.384,-15.631c4.976,-3.412 10.944,-5.261 17.483,-5.261c9.804,0 16.769,4.691 21.315,7.817c3.412,2.275 4.408,6.965 2.274,10.518c-2.274,3.409 -6.962,4.405 -10.514,1.99c-4.55,-2.986 -8.529,-5.261 -13.075,-5.261c-3.553,0 -6.68,1.138 -8.528,2.56c-1.849,1.278 -2.275,2.557 -2.275,3.268c0,0.57 0,0.711 0.285,1.137c0.141,0.285 0.567,0.853 1.564,1.423c1.848,1.278 5.542,2.556 10.373,3.409l0.144,0.144l0.141,0c4.691,0.852 9.096,2.13 13.216,4.12c3.838,1.704 7.676,4.405 10.092,8.384c1.704,2.842 2.701,6.113 2.701,9.381c0,6.964 -3.838,12.789 -8.955,16.486c-5.116,3.553 -11.511,5.684 -18.476,5.684c-11.085,-0.142 -19.61,-5.258 -25.297,-9.807c-3.127,-2.557 -3.553,-7.388 -0.993,-10.515" style="fill:rgb(43,94,130);fill-rule:nonzero;"/>        </g>        <g transform="matrix(1,0,0,1,422.657,433.708)">            <path d="M0,-27.001c0,4.264 -3.694,7.817 -7.958,7.817l-3.553,0l0,39.65c4.405,0 7.817,3.553 7.817,7.958c0,4.405 -3.412,7.817 -7.817,7.817c-8.669,0 -15.775,-7.106 -15.775,-15.775l0,-39.65l-4.121,0c-4.405,0 -7.817,-3.553 -7.817,-7.817c0,-4.405 3.412,-7.817 7.817,-7.817l4.121,0l0,-20.607c0,-4.405 3.553,-7.817 7.958,-7.817c4.408,0 7.817,3.412 7.817,7.817l0,20.607l3.553,0c4.264,0 7.958,3.412 7.958,7.817" style="fill:rgb(43,94,130);fill-rule:nonzero;"/>        </g>        <g transform="matrix(1,0,0,1,446.83,441.459)">            <path d="M0,-13.924l40.22,0c-1.422,-5.686 -8.669,-14.071 -21.033,-15.067c-12.081,0.57 -18.05,9.239 -19.187,15.067m-15.49,6.962c0.141,-19.328 15.205,-35.53 34.677,-35.53c18.473,0 33.111,13.786 34.249,32.973l0,0.708c0,0.286 0,0.997 -0.142,1.282c-0.426,3.409 -3.411,5.683 -7.391,5.683l-45.192,0c0.711,3.268 2.275,6.965 4.832,9.381c2.985,3.409 8.669,5.968 13.644,6.395c5.114,0.426 11.226,-0.853 14.779,-3.553c2.983,-3.127 8.811,-2.701 10.659,-0.426c1.849,1.989 3.268,6.253 0,9.236c-6.965,6.395 -15.349,9.381 -25.438,9.381c-19.472,-0.142 -34.536,-16.202 -34.677,-35.53" style="fill:rgb(43,94,130);fill-rule:nonzero;"/>        </g>        <g transform="matrix(1,0,0,1,552.667,462.417)">            <path d="M0,-55.995c0,3.979 -3.268,7.532 -7.532,7.532c-3.268,0 -6.11,0.855 -8.525,2.701c-2.701,1.707 -4.835,4.123 -6.539,6.821c-3.412,4.549 -5.117,9.95 -5.828,11.94l0,27.001c0,4.12 -3.553,7.532 -7.817,7.532c-4.12,0 -7.532,-3.412 -7.532,-7.532l0,-55.995c0,-4.12 3.412,-7.388 7.532,-7.388c4.264,0 7.817,3.268 7.817,7.388l0,0.996c0.853,-0.996 1.99,-2.133 2.986,-2.842c4.69,-3.126 10.8,-5.686 17.906,-5.542c4.264,0 7.532,3.268 7.532,7.388" style="fill:rgb(43,94,130);fill-rule:nonzero;"/>        </g>        <g transform="matrix(1,0,0,1,319.311,229.629)">            <path d="M0,-70.732c-10.85,-4.61 -28.773,-5.212 -47.368,-4.968c-0.043,-18.894 0.141,-14.477 0.325,-36.959c0.07,-8.682 -6.826,-15.779 -15.408,-15.85l-0.129,0c-8.519,0 -15.458,6.954 -15.528,15.592c0,0 -0.253,26.199 -0.186,32.811c0.267,26.438 1.275,26.982 4.66,31.482c1.975,1.953 4.188,4.654 11.086,4.654c0,0 4.099,-0.059 6.911,-0.125c8.926,-0.212 36.072,-0.849 43.617,2.356c2.327,0.987 22.73,10.338 22.647,34.171c-0.066,19.667 -14.668,33.903 -34.741,33.903l-0.149,0c-9.992,-0.038 -17.286,-0.055 -23.109,-0.064l0,-41.033c0,-8.681 -6.955,-15.72 -15.532,-15.72c-8.578,0 -15.533,7.039 -15.533,15.72l0,52.76c0,0.689 0.005,3.283 0.004,3.947c-0.016,8.682 6.923,15.735 15.505,15.751l7.205,0.008c6.986,0.005 16.006,0.013 31.347,0.073l0.262,0c37.405,0 65.681,-28.003 65.806,-65.238c0.114,-33.587 -22.389,-55.076 -41.692,-63.271" style="fill:white;fill-rule:nonzero;"/>        </g>    </g></svg>