<?xml version="1.0" encoding="UTF-8" standalone="no"?><!DOCTYPE svg PUBLIC "-//W3C//DTD SVG 1.1//EN" "http://www.w3.org/Graphics/SVG/1.1/DTD/svg11.dtd"><svg width="100%" height="100%" viewBox="0 0 1024 512" version="1.1" xmlns="http://www.w3.org/2000/svg" xmlns:xlink="http://www.w3.org/1999/xlink" xml:space="preserve" style="fill-rule:evenodd;clip-rule:evenodd;stroke-linejoin:round;stroke-miterlimit:2;"><title>Companisto</title><desc>Companisto is a Berlin-based equity crowdfunding platform with several renowned business angels, corporate finance specialists, and venture capital companies in its network.Founded in 2012, Companisto differentiates itself by offering various forms of payment, ranging from payments directly through one ́s credit card to instant money transfers to bank transfers, allowing investors to be located anywhere in the world.</desc>    <g transform="matrix(1.02543,0,0,1.02543,-35.5182,63.5136)">        <g transform="matrix(2.3399,0,0,1.44601,-255.812,-247.529)">            <g transform="matrix(0.427369,0,0,0.691558,116.732,-133.864)">                <path d="M423.079,589.065l-18.785,0l0,77.591l20.785,0l0,-41.316l24.813,29.894l23.733,-29.894l0,41.316l22.702,0l0,-77.591l-20.702,0l-25.733,34.45l-26.813,-34.45Z" style="fill-rule:nonzero;"/>            </g>            <g transform="matrix(0.427369,0,0,0.691558,118.287,-54.7308)">                <path d="M506.405,474.638l0,77.591l22.568,0l0,-22.072l5,0c5.486,0 10.608,-0.591 15.365,-1.791c4.483,-1.131 7.408,-2.889 10.759,-5.312c3.191,-2.306 5.696,-5.334 7.541,-9.063c1.917,-3.874 2.813,-8.581 2.813,-14.093c0,-9.826 -7.163,-15.85 -10.354,-18.156c-3.351,-2.423 -6.276,-4.181 -10.759,-5.312c-4.757,-1.2 -9.879,-1.792 -15.365,-1.792l-27.568,0Zm21.829,36.671l0,-18.332l11.292,0c6.288,0 11.393,4.108 11.393,9.166c0,5.059 -5.105,9.166 -11.393,9.166l-11.292,0Z"/>            </g>            <g transform="matrix(0.427369,0,0,0.691558,112.304,-54.7308)">                <path d="M621.174,503.323l-16.863,48.906l-24.416,0l30.328,-78.591l22.309,0l31.327,78.591l-24.415,0l-18.27,-48.906Z"/>            </g>            <g transform="matrix(0.427369,0,0,0.691558,109.894,-133.864)">                <path d="M697.838,589.065l-21.013,0l0,77.591l21.013,0l0,-42.537l25.975,42.537l20.86,0l0,-77.591l-20.86,0l0,41.676l-25.975,-41.676Z" style="fill-rule:nonzero;"/>            </g>            <g transform="matrix(0.427369,0,0,0.691558,116.732,-133.864)">                <rect x="742.391" y="590.065" width="24.373" height="76.591" style="fill-rule:nonzero;"/>            </g>            <g transform="matrix(0.427369,0,0,0.691558,116.732,-133.864)">                <path d="M922.531,607.358l0,-19.293l-68.688,0l0,19.293l24.074,0l0,59.298l21.54,0l0,-59.298l23.074,0Z" style="fill-rule:nonzero;"/>            </g>            <g transform="matrix(0.418786,0,0,0.649084,128.217,-105.447)">                <path d="M920.143,625.43c0,-5.966 1.133,-11.602 3.411,-16.905c2.288,-5.324 5.402,-9.965 9.353,-13.917c3.952,-3.951 8.593,-7.065 13.917,-9.352c5.303,-2.279 10.939,-3.412 16.905,-3.412c5.966,0 11.602,1.133 16.905,3.412c5.324,2.287 9.965,5.401 13.917,9.352c3.951,3.952 7.065,8.593 9.353,13.917c2.278,5.303 3.411,10.939 3.411,16.905c0,5.966 -1.133,11.602 -3.411,16.905c-2.288,5.324 -5.402,9.965 -9.353,13.917c-3.952,3.951 -8.593,7.065 -13.917,9.353c-5.303,2.278 -10.939,3.411 -16.905,3.411c-5.966,0 -11.602,-1.133 -16.905,-3.411c-5.324,-2.288 -9.965,-5.402 -13.917,-9.353c-3.951,-3.952 -7.065,-8.593 -9.353,-13.917c-2.278,-5.303 -3.411,-10.939 -3.411,-16.905Zm19.152,0c0,3.387 0.651,6.568 1.936,9.546c1.274,2.955 3.018,5.531 5.22,7.733c2.202,2.201 4.777,3.945 7.732,5.22c2.978,1.284 6.159,1.936 9.546,1.936c3.387,0 6.568,-0.652 9.546,-1.936c2.955,-1.275 5.531,-3.019 7.732,-5.22c2.202,-2.202 3.946,-4.778 5.22,-7.733c1.285,-2.978 1.936,-6.159 1.936,-9.546c0,-3.387 -0.651,-6.568 -1.936,-9.546c-1.274,-2.955 -3.018,-5.53 -5.22,-7.732c-2.201,-2.202 -4.777,-3.945 -7.732,-5.22c-2.978,-1.285 -6.159,-1.936 -9.546,-1.936c-3.387,0 -6.568,0.651 -9.546,1.936c-2.955,1.275 -5.53,3.018 -7.732,5.22c-2.202,2.202 -3.946,4.777 -5.22,7.732c-1.285,2.978 -1.936,6.159 -1.936,9.546Z" style="fill-rule:nonzero;"/>            </g>            <g transform="matrix(0.418786,0,0,0.649084,-136.774,-105.447)">                <path d="M920.143,625.43c0,-5.966 1.133,-11.602 3.411,-16.905c2.288,-5.324 5.402,-9.965 9.353,-13.917c3.952,-3.951 8.593,-7.065 13.917,-9.352c5.303,-2.279 10.939,-3.412 16.905,-3.412c5.966,0 11.602,1.133 16.905,3.412c5.324,2.287 9.965,5.401 13.917,9.352c3.951,3.952 7.065,8.593 9.353,13.917c2.278,5.303 3.411,10.939 3.411,16.905c0,5.966 -1.133,11.602 -3.411,16.905c-2.288,5.324 -5.402,9.965 -9.353,13.917c-3.952,3.951 -8.593,7.065 -13.917,9.353c-5.303,2.278 -10.939,3.411 -16.905,3.411c-5.966,0 -11.602,-1.133 -16.905,-3.411c-5.324,-2.288 -9.965,-5.402 -13.917,-9.353c-3.951,-3.952 -7.065,-8.593 -9.353,-13.917c-2.278,-5.303 -3.411,-10.939 -3.411,-16.905Zm19.152,0c0,3.387 0.651,6.568 1.936,9.546c1.274,2.955 3.018,5.531 5.22,7.733c2.202,2.201 4.777,3.945 7.732,5.22c2.978,1.284 6.159,1.936 9.546,1.936c3.387,0 6.568,-0.652 9.546,-1.936c2.955,-1.275 5.531,-3.019 7.732,-5.22c2.202,-2.202 3.946,-4.778 5.22,-7.733c1.285,-2.978 1.936,-6.159 1.936,-9.546c0,-3.387 -0.651,-6.568 -1.936,-9.546c-1.274,-2.955 -3.018,-5.53 -5.22,-7.732c-2.201,-2.202 -4.777,-3.945 -7.732,-5.22c-2.978,-1.285 -6.159,-1.936 -9.546,-1.936c-3.387,0 -6.568,0.651 -9.546,1.936c-2.955,1.275 -5.53,3.018 -7.732,5.22c-2.202,2.202 -3.946,4.777 -5.22,7.732c-1.285,2.978 -1.936,6.159 -1.936,9.546Z" style="fill-rule:nonzero;"/>            </g>            <g transform="matrix(0.427369,0,0,0.691558,118.287,-54.7308)">                <path d="M840.831,480.661l-7.888,15.956c0,0 -8.971,-5.375 -16.263,-6.151c-6.406,-0.681 -12.918,0.21 -13.592,4.683c-0.509,3.381 0.578,4.501 6.929,7.835c6.35,3.333 10.199,1.276 21.81,8.31c2.804,1.698 11.17,7.503 11.537,15.399c0.367,7.897 -1.676,12.672 -4.58,17.28c-2.904,4.607 -8.387,7.065 -16.544,8.776c-8.158,1.71 -18.908,1.051 -24.874,-0.387c-5.965,-1.438 -11.134,-3.252 -14.824,-5.329c-3.689,-2.076 -7.086,-4.828 -7.086,-4.828l9.602,-15.514c0,0 5.473,6.474 20.024,8.927c4.393,0.741 10.692,-0.223 12.301,-1.506c3.2,-2.553 2.192,-7.447 -0.161,-8.858c-2.353,-1.412 -9.234,-3.931 -15.055,-5.554c-5.822,-1.624 -12.502,-4.742 -14.634,-7.437c-2.133,-2.695 -6.732,-6.116 -7.008,-12.887c-0.254,-6.195 1.76,-14.396 5.8,-18.266c4.041,-3.87 15.109,-9.351 31.479,-8.04c16.371,1.311 23.027,7.591 23.027,7.591Z"/>            </g>            <g transform="matrix(0.427369,0,0,0.691558,118.287,-54.7308)">                <path d="M301.096,543.282c-3.541,3.083 -7.602,5.563 -12.177,7.446c-5.197,2.138 -10.719,3.201 -16.566,3.201c-5.846,0 -11.369,-1.063 -16.565,-3.201c-5.217,-2.147 -9.765,-5.07 -13.637,-8.779c-3.872,-3.709 -6.924,-8.065 -9.165,-13.062c-2.233,-4.977 -3.343,-10.267 -3.343,-15.867c0,-5.599 1.11,-10.889 3.343,-15.866c2.241,-4.997 5.293,-9.353 9.165,-13.062c3.872,-3.709 8.42,-6.632 13.637,-8.779c5.196,-2.138 10.719,-3.201 16.565,-3.201c5.847,0 11.369,1.063 16.566,3.201c4.911,2.021 9.229,4.73 12.948,8.134l-12.257,13.675c-0.107,-0.107 -0.215,-0.213 -0.325,-0.319c-2.158,-2.066 -4.681,-3.703 -7.577,-4.899c-2.919,-1.206 -6.036,-1.817 -9.355,-1.817c-3.319,0 -6.435,0.611 -9.354,1.817c-2.896,1.196 -5.419,2.833 -7.577,4.899c-2.158,2.067 -3.866,4.484 -5.115,7.258c-1.259,2.795 -1.897,5.781 -1.897,8.959c0,3.179 0.638,6.165 1.897,8.96c1.249,2.774 2.957,5.191 5.115,7.258c2.158,2.066 4.681,3.703 7.577,4.899c2.919,1.206 6.035,1.817 9.354,1.817c3.319,0 6.436,-0.611 9.355,-1.817c2.709,-1.119 5.092,-2.623 7.155,-4.505l12.233,13.65Z" style="fill-rule:nonzero;"/>            </g>        </g>        <g transform="matrix(1,0,0,1,-74.0971,-468.868)">            <g transform="matrix(1.2622,0,0,1.2622,77.639,-2.70678)">                <circle cx="94.316" cy="522.333" r="68.135" style="fill:url(#_Linear1);"/>            </g>            <g transform="matrix(1.18147,0,0,1.18147,85.2524,39.457)">                <circle cx="94.316" cy="522.333" r="68.135" style="fill:rgb(15,15,87);"/>            </g>            <g transform="matrix(0.799693,-0.258837,0.258837,0.799693,-13.9387,263.287)">                <circle cx="94.316" cy="522.333" r="68.135" style="fill:url(#_Radial2);"/>            </g>            <g transform="matrix(2.32035,0,0,2.32035,-720.709,-828.861)">                <circle cx="409.251" cy="628.69" r="6.784" style="fill:white;"/>            </g>            <g transform="matrix(0.38046,0,0,0.38046,160.801,457.854)">                <circle cx="94.316" cy="522.333" r="68.135" style="fill:rgb(15,15,87);"/>            </g>        </g>    </g>    <defs>        <linearGradient id="_Linear1" x1="0" y1="0" x2="1" y2="0" gradientUnits="userSpaceOnUse" gradientTransform="matrix(133.782,0,0,138.445,27.838,527.438)"><stop offset="0" style="stop-color:rgb(122,233,167);stop-opacity:1"/><stop offset="1" style="stop-color:rgb(20,154,189);stop-opacity:1"/></linearGradient>        <radialGradient id="_Radial2" cx="0" cy="0" r="1" gradientUnits="userSpaceOnUse" gradientTransform="matrix(82.3856,26.6658,-26.6658,82.3856,93.8763,519.387)"><stop offset="0" style="stop-color:rgb(15,15,87);stop-opacity:1"/><stop offset="0.12" style="stop-color:rgb(15,40,107);stop-opacity:1"/><stop offset="0.21" style="stop-color:rgb(13,140,184);stop-opacity:1"/><stop offset="0.56" style="stop-color:rgb(123,231,171);stop-opacity:1"/><stop offset="0.76" style="stop-color:rgb(228,250,238);stop-opacity:1"/><stop offset="1" style="stop-color:white;stop-opacity:1"/></radialGradient>    </defs></svg>