<?xml version="1.0" encoding="UTF-8" standalone="no"?><!DOCTYPE svg PUBLIC "-//W3C//DTD SVG 1.1//EN" "http://www.w3.org/Graphics/SVG/1.1/DTD/svg11.dtd"><svg width="100%" height="100%" viewBox="0 0 1024 512" version="1.1" xmlns="http://www.w3.org/2000/svg" xmlns:xlink="http://www.w3.org/1999/xlink" xml:space="preserve" style="fill-rule:evenodd;clip-rule:evenodd;stroke-linejoin:round;stroke-miterlimit:2;"><title>FundedByMe</title><desc>FundedByMe is a crowdfunding platform based in Stockholm, Sweden. The company is active in Scandinavia with joint ventures in Finland, Poland, Malaysia, The Netherlands, Singapore and The United Arab Emirates (at the Dubai International Financial Centre - DIFC).</desc>    <g id="Lager_1" transform="matrix(5.76274,0,0,5.76274,-3.76274,164.701)">        <path d="M14.71,0l-5.052,2.019l10.84,5.669l0,6.629l-8.348,3.359l-6.869,-3.354l0,-2.172l6.869,3.337l6.338,-2.532l0,-4.464l-10.862,-5.66l-6.626,2.648l0,20.727l4.326,2.126l-0.035,-6.332l-0.01,-0.005l0,-2.213l6.869,3.377l8.348,-3.336l0,2.167l-8.348,3.359l-4.813,-2.351l0,6.322l4.813,2.366l13.71,-5.48l0,-10.363l0,-10.364l-11.15,-5.479Z" style="fill:rgb(31,205,115);fill-rule:nonzero;"/>        <path d="M36.01,17.654l0,7.776l-4.104,0l0,-19.066l12.979,0l0,3.353l-8.875,0l0,4.612l7.696,0l0,3.325l-7.696,0Z" style="fill:rgb(31,205,115);fill-rule:nonzero;"/>        <path d="M50.225,25.672c-4.075,0 -5.148,-1.878 -5.148,-5.229l0,-8.743l3.995,0l0,7.643c0,1.771 0.081,3.11 1.985,3.11c0.562,0 1.662,-0.133 2.413,-0.402l0,-10.351l3.995,0l0,13.73l-3.219,0l-0.24,-0.751c-1.367,0.671 -2.762,0.993 -3.781,0.993Z" style="fill:rgb(31,205,115);fill-rule:nonzero;"/>        <path d="M66.462,11.459c4.076,0 5.148,1.877 5.148,5.229l0,8.741l-3.995,0l0,-7.643c0,-1.77 -0.081,-3.11 -1.985,-3.11c-0.562,0 -1.662,0.134 -2.412,0.402l0,10.352l-3.995,0l0,-13.73l3.217,0l0.241,0.752c1.367,-0.671 2.761,-0.993 3.781,-0.993Z" style="fill:rgb(31,205,115);fill-rule:nonzero;"/>        <path d="M81.486,11.915l0,-5.551l3.969,0l0,19.066l-3.191,0l-0.24,-0.778c-1.341,0.696 -2.869,1.019 -3.889,1.019c-4.076,0 -5.176,-2.601 -5.176,-5.953l0,-2.601c0,-3.889 2.012,-5.578 5.39,-5.658c1.314,0 2.36,0.215 3.137,0.456Zm0,3.03c-0.644,-0.16 -1.313,-0.268 -2.226,-0.268c-1.662,0 -2.359,0.455 -2.359,2.439l0,2.896c0,1.77 0.482,2.44 2.359,2.44c0.563,0 1.502,-0.134 2.226,-0.295l0,-7.212Z" style="fill:rgb(31,205,115);fill-rule:nonzero;"/>        <path d="M90.69,19.691c0,2.065 0.751,2.602 1.717,2.789c1.957,0.402 3.889,0.135 5.738,-0.321l0,2.977c-1.126,0.214 -2.815,0.536 -4.371,0.536c-4.987,0 -7.053,-1.448 -7.053,-7.053c0,-5.98 2.441,-7.159 6.489,-7.159c3.621,0 5.9,1.233 5.9,5.792c0,0.696 -0.055,1.475 -0.161,2.439l-8.259,0Zm4.586,-2.574c0.161,-1.796 -0.562,-2.601 -1.958,-2.601l-0.107,0c-1.312,0 -2.225,0.455 -2.467,2.601l4.532,0Z" style="fill:rgb(31,205,115);fill-rule:nonzero;"/>        <path d="M108.672,11.915l0,-5.551l3.969,0l0,19.066l-3.19,0l-0.241,-0.778c-1.341,0.696 -2.869,1.019 -3.889,1.019c-4.075,0 -5.175,-2.601 -5.175,-5.953l0,-2.601c0,-3.889 2.011,-5.578 5.39,-5.658c1.313,0 2.359,0.215 3.136,0.456Zm0,3.03c-0.644,-0.16 -1.313,-0.268 -2.226,-0.268c-1.662,0 -2.359,0.455 -2.359,2.439l0,2.896c0,1.77 0.482,2.44 2.359,2.44c0.563,0 1.502,-0.134 2.226,-0.295l0,-7.212Z" style="fill:rgb(31,205,115);fill-rule:nonzero;"/>        <path d="M114.471,25.431l0,-19.067l7.642,0c3.058,0 5.873,0.43 5.873,5.122l0,0.482c0,1.609 -0.805,2.869 -2.172,3.379l0,0.054c1.797,0.536 2.949,1.984 2.949,3.942l0,0.831c-0.107,4.8 -3.459,5.256 -6.274,5.256l-8.018,0l0,0.001Zm4.102,-11.344l3.54,0c0.857,0 1.742,-0.322 1.742,-2.012l0,-0.401c0,-1.582 -0.83,-1.957 -1.742,-1.957l-3.54,0l0,4.37Zm3.915,7.964c0.966,0 2.065,-0.375 2.146,-2.172l0,-0.509c0,-1.985 -1.26,-2.146 -2.252,-2.146l-3.809,0l0,4.826l3.915,0l0,0.001Z" style="fill:rgb(31,205,115);fill-rule:nonzero;"/>        <path d="M128.87,27.95c2.763,-0.08 3.916,-0.053 5.042,-2.814l-5.337,-13.436l4.372,0l2.948,9.145l0.055,0l2.869,-9.145l4.37,0l-4.987,12.846c-1.1,3.218 -2.413,5.229 -5.202,6.194c-1.153,0.402 -2.628,0.321 -4.13,0.349l0,-3.139Z" style="fill:rgb(31,205,115);fill-rule:nonzero;"/>        <path d="M159.742,12.773l-0.107,0l-4.183,10.352l-3.245,0l-4.049,-9.682l-0.134,0l-0.857,11.987l-4.237,0l1.528,-19.066l4.772,0l4.612,11.88l4.693,-11.88l4.72,0l1.502,19.066l-4.184,0l-0.831,-12.657Z" style="fill:rgb(31,205,115);fill-rule:nonzero;"/>        <path d="M169.579,19.691c0,2.065 0.751,2.602 1.717,2.789c1.957,0.402 3.888,0.135 5.738,-0.321l0,2.977c-1.127,0.214 -2.815,0.536 -4.37,0.536c-4.988,0 -7.053,-1.448 -7.053,-7.053c0,-5.98 2.44,-7.159 6.489,-7.159c3.62,0 5.899,1.233 5.899,5.792c0,0.696 -0.054,1.475 -0.161,2.439l-8.259,0Zm4.585,-2.574c0.162,-1.796 -0.562,-2.601 -1.956,-2.601l-0.108,0c-1.313,0 -2.226,0.455 -2.466,2.601l4.53,0Z" style="fill:rgb(31,205,115);fill-rule:nonzero;"/>    </g></svg>