<?xml version="1.0" encoding="UTF-8" standalone="no"?><!DOCTYPE svg PUBLIC "-//W3C//DTD SVG 1.1//EN" "http://www.w3.org/Graphics/SVG/1.1/DTD/svg11.dtd"><svg width="100%" height="100%" viewBox="0 0 1024 512" version="1.1" xmlns="http://www.w3.org/2000/svg" xmlns:xlink="http://www.w3.org/1999/xlink" xml:space="preserve" style="fill-rule:evenodd;clip-rule:evenodd;stroke-linejoin:round;stroke-miterlimit:2;"><title>gust</title><desc></desc>    <g transform="matrix(8.13129,0,0,8.13129,-2742.12,-3117.23)">        <g transform="matrix(1,0,0,1,337.318,399.845)">            <path d="M46.7,0c-0.1,0.1 -7.3,8.4 -17.9,14.4c-0.1,0 -0.2,-0.1 -0.1,-0.1c3.5,-2.6 6.6,-5.5 9.2,-8.2c0.6,-0.6 0.6,-1.6 0,-2.2l-0.6,-0.6c-4.3,4.5 -10.1,10.1 -17.3,13.8c-0.1,0 -0.1,-0.1 -0.1,-0.1c3.2,-2.2 6.5,-5 9.3,-7.8c0.6,-0.6 0.6,-1.6 0,-2.2l-0.6,-0.6c-4.9,4.8 -10.2,9.7 -15.5,12.1c-0.1,0 -0.1,-0.1 -0.1,-0.1c3.2,-2 6.6,-5.2 8.3,-6.8c0.6,-0.6 0.6,-1.6 0,-2.2l-0.5,-0.5c0,0 -7.5,7.7 -11.8,9.6c-4.2,1.9 -7.1,1.9 -8.7,1.6c-0.1,0 -0.2,0.2 -0.1,0.2c1.7,0.7 5,1.6 9.8,1.5c13.6,-0.4 27.2,-8.7 37.1,-19c0.6,-0.6 0.6,-1.7 -0.1,-2.3l-0.3,-0.5Z" style="fill:url(#_Linear1);fill-rule:nonzero;"/>        </g>        <g transform="matrix(1,0,0,1,337.318,399.845)">            <path d="M71,21.4c0,5.1 -3.7,8.6 -9.2,8.6c-3.2,0 -5.8,-0.8 -8.2,-3l2.2,-2.7c1.7,1.8 3.5,2.7 6,2.7c4.7,0 6.1,-3 6.1,-5.8l0,-2.5l-0.1,0c-1.2,2 -3.5,3 -5.8,3c-4.9,0 -8.6,-3.7 -8.5,-8.6c0,-5 3.3,-8.8 8.5,-8.8c2.3,0 4.6,1 5.8,2.8l0.1,0l0,-2.4l3.1,0l0,16.7Zm-14.3,-8.3c0,3.4 2.1,5.6 5.5,5.6c3.4,0 5.5,-2.2 5.5,-5.6c0,-3.4 -2.1,-5.8 -5.5,-5.8c-3.3,0 -5.5,2.4 -5.5,5.8Z" style="fill:rgb(74,74,74);fill-rule:nonzero;"/>            <path d="M92.4,21.5l-3.2,0l0,-2.6l-0.1,0c-0.8,1.8 -2.9,3 -5.5,3c-3.3,0 -6.1,-1.9 -6.1,-6.4l0,-10.8l3.2,0l0,9.9c0,3.2 1.8,4.3 3.8,4.3c2.7,0 4.7,-1.7 4.7,-5.6l0,-8.6l3.2,0l0,16.8Z" style="fill:rgb(74,74,74);fill-rule:nonzero;"/>            <path d="M107.9,8.9c-0.7,-0.9 -1.8,-1.7 -3.4,-1.7c-1.5,0 -2.8,0.7 -2.8,1.9c0,2 2.9,2.3 4.3,2.6c2.8,0.7 4.9,1.7 4.9,4.9c0,3.8 -3.5,5.3 -6.8,5.3c-2.8,0 -4.8,-0.7 -6.5,-3l2.4,-2c1,1 2.2,2 4.1,2c1.6,0 3.4,-0.7 3.4,-2.1c0,-1.9 -2.7,-2.3 -4,-2.6c-2.7,-0.7 -5.1,-1.6 -5.1,-4.8c0,-3.5 3.2,-5.2 6.4,-5.2c2.2,0 4.5,0.8 5.7,2.8l-2.6,1.9Z" style="fill:rgb(74,74,74);fill-rule:nonzero;"/>            <path d="M125.5,7.5l-4.6,0l0,7.6c0,1.9 0,3.9 2.4,3.9c0.7,0 1.6,-0.1 2.3,-0.5l0,2.9c-0.7,0.4 -2.2,0.6 -2.9,0.6c-4.9,0 -5,-3 -5,-5.7l0,-8.8l-3.7,0l0,-2.8l3.7,0l0,-4.7l3.2,0l0,4.7l4.6,0l0,2.8Z" style="fill:rgb(74,74,74);fill-rule:nonzero;"/>        </g>    </g>    <defs>        <linearGradient id="_Linear1" x1="0" y1="0" x2="1" y2="0" gradientUnits="userSpaceOnUse" gradientTransform="matrix(42.6893,0,0,42.6893,5.65412,19.5918)"><stop offset="0" style="stop-color:rgb(0,184,55);stop-opacity:1"/><stop offset="0.57" style="stop-color:rgb(0,183,93);stop-opacity:1"/><stop offset="1" style="stop-color:rgb(0,177,245);stop-opacity:1"/></linearGradient>    </defs></svg>