<?xml version="1.0" encoding="UTF-8" standalone="no"?><!DOCTYPE svg PUBLIC "-//W3C//DTD SVG 1.1//EN" "http://www.w3.org/Graphics/SVG/1.1/DTD/svg11.dtd"><svg width="100%" height="100%" viewBox="0 0 1024 512" version="1.1" xmlns="http://www.w3.org/2000/svg" xmlns:xlink="http://www.w3.org/1999/xlink" xml:space="preserve" style="fill-rule:evenodd;clip-rule:evenodd;stroke-linejoin:round;stroke-miterlimit:2;"><title>Zopa</title><desc>Zopa created peer-to-peer lending back in 2005, has lent more than £1.2bnm and returned over £60m in interest to lenders. Zopa has over a 2% market share in UK personal loans and has helped over 250k consumers get a better deal on their money.</desc>    <g id="zopa-512x256.svg" transform="matrix(2.21723,0,0,2.21723,-55.6605,-27.7931)">        <path d="M62.32,88.08l32.84,0c1.38,0 1.73,0.35 1.73,1.73c0.35,9.33 -3.11,16.94 -8.3,24.2c-3.981,5.618 -8.373,10.932 -13.14,15.9c-3.46,3.8 -7.26,7.61 -10.37,12.1c-1.016,1.06 -1.731,2.372 -2.07,3.8c-0.69,1.38 -0.35,1.73 1,1.73l29.42,0c1.38,0 1.73,0.35 1.73,1.73l0,16.59c0,1 0,1.38 -1.38,1.38l-66.37,0c-1,0 -1.38,-0.35 -1.38,-1.38c-0.35,-9.33 3.11,-17.28 8.3,-24.54c3.8,-5.88 8.64,-10.72 13.14,-15.9c3.46,-3.8 7.26,-7.61 10.37,-11.75c1.007,-1.257 1.822,-2.655 2.42,-4.15c0.35,-1.38 0.35,-1.73 -1,-1.73l-29.43,0c-1.73,0.35 -2.07,-0.35 -2.07,-1.73l0,-16.25c0,-2.07 -0.35,-1.73 1.73,-1.73l32.83,0Zm167,34.22c1.73,13.14 -1.73,24.2 -11.06,33.53c-6.22,6.22 -14.17,9.68 -22.82,11.06c-9.68,1.38 -19,0.69 -27.66,-3.8c-13.14,-6.57 -20.4,-16.94 -21.78,-31.8c-1.73,-20.74 11.06,-38 31.46,-42.17c3.293,-0.655 6.642,-0.99 10,-1c10.37,0 19.7,2.77 28,9.33c7.668,6.168 12.632,15.092 13.83,24.86l0.03,-0.01Zm-31.8,20.05c4.84,-3.8 6.57,-8.64 6.22,-14.86l0,-2.42c0,-10.37 -10.72,-18 -20.4,-14.86c-13.48,4.49 -15.21,22.12 -7.26,30.42c6.2,6.22 14.49,7.26 21.41,1.73l0.03,-0.01Zm288.31,23.85c0.35,1 0.35,1.38 -0.69,1.38l-24.24,0c-1,0 -1.38,-0.35 -1.73,-1.38c-1,-3.11 -2.07,-5.88 -3.11,-9c-0.35,-0.69 -0.69,-1 -1.38,-1l-26.27,0c-1,0 -1.38,0.35 -1.38,1c-1,3.11 -2.07,5.88 -3.11,9c-0.35,1 -0.69,1.38 -1.73,1.38l-23.19,0c-1.38,0 -1.38,0 -1,-1.38c7.26,-17.63 14.17,-34.91 21.43,-52.55c3.11,-8 6.57,-15.9 9.68,-24.2c0.35,-1 0.69,-1.38 1.73,-1.38l23.51,0c0.718,-0.021 1.39,0.367 1.73,1c10.01,25.93 20.03,51.56 29.71,77.14l0.04,-0.01Zm-51.51,-28.69l15.9,0l-7.61,-22.82l-0.35,0l-7.94,22.82Zm-80.89,-24.89c0.778,6.328 -0.058,12.752 -2.43,18.67c-3.8,8.64 -11.06,13.14 -20.05,15.21c-5.88,1 -11.75,0.69 -17.63,0.69c-1.38,0 -1.73,0.35 -1.73,1.73l0,17.63c0,1 -0.35,1.38 -1.38,1.38l-21.81,0c-1,0 -1.38,-0.35 -1.38,-1.38l0,-76.39c0,-1.38 0.35,-1.73 1.73,-1.73l33.19,0c5.88,0 11.75,0.69 16.94,3.46c8.98,3.8 13.48,11.06 14.51,20.74l0.04,-0.01Zm-24.2,7.61c0.288,-1.478 0.405,-2.985 0.35,-4.49c0,-4.15 -3.46,-8 -7.61,-8l-9.37,0c-1,0 -1,0.35 -1,1.38l0,15.9c0,1.38 0.35,1.38 1.38,1.38l8.64,0c3.624,-0.094 6.752,-2.641 7.58,-6.17l0.03,0Z" style="fill:rgb(0,200,180);fill-rule:nonzero;"/>    </g></svg>