<?xml version="1.0" encoding="UTF-8" standalone="no"?><!DOCTYPE svg PUBLIC "-//W3C//DTD SVG 1.1//EN" "http://www.w3.org/Graphics/SVG/1.1/DTD/svg11.dtd"><svg width="100%" height="100%" viewBox="0 0 1024 512" version="1.1" xmlns="http://www.w3.org/2000/svg" xmlns:xlink="http://www.w3.org/1999/xlink" xml:space="preserve" style="fill-rule:evenodd;clip-rule:evenodd;stroke-linejoin:round;stroke-miterlimit:2;"><title>DoFinance</title><desc>The global online lending and investment management company Alfa Finance Group was founded in 2015 with business essence in consumer loans and P2P investment platform services for private individuals.In less than two years, we have successfully expanded to Poland, Georgia and Indonesia, with a total of more than 150,000 registered clients.A subsidiary of the Alfa Finance Group, DoFinance is a platform providing web P2P platform operations which, thanks to innovative financial technologies, offer easy, secure and smart way of borrowing money or investing available financial resources and earning money in a manner that offers an alternative to traditional opportunities such as conservative bank deposits or risky stock markets.</desc>    <g id="dofinance-512x256.svg" transform="matrix(2.2168,0,0,2.2168,-55.4153,-27.7352)">        <path d="M402.11,163.66l0,-13c0,-1.08 0.32,-1.32 1.31,-1.25c1.285,0.079 2.575,0.079 3.86,0c0.81,0 1.17,0.19 1.33,1c0.41,2 0.45,2 2.14,0.92c2.543,-1.78 5.586,-2.708 8.69,-2.65c4.451,-0.049 8.201,3.465 8.44,7.91c0.137,1.359 0.204,2.724 0.2,4.09l0,16.28c0,0.77 -0.13,1.11 -1,1.08c-1.79,-0.07 -3.59,-0.07 -5.38,0c-0.88,0 -1,-0.31 -1,-1.08l0,-15.57c0.045,-1.325 -0.141,-2.649 -0.55,-3.91c-0.435,-1.423 -1.752,-2.407 -3.24,-2.42c-2.84,-0.2 -5.11,1.1 -7.25,2.75c-0.43,0.33 -0.28,0.78 -0.28,1.19l0,17.8c0,1.08 -0.3,1.3 -1.3,1.25c-1.6,-0.08 -3.2,-0.07 -4.8,0c-0.89,0 -1.2,-0.18 -1.18,-1.14c0.04,-4.43 0.01,-8.84 0.01,-13.25Z" style="fill:rgb(103,69,147);fill-rule:nonzero;"/>        <path d="M346.93,152.52c2.219,-1.816 4.843,-3.072 7.65,-3.66c2.009,-0.388 4.087,-0.208 6,0.52c3.41,1.36 4.89,4.05 5.2,7.54c0.28,3.23 0.1,6.47 0.13,9.71l0,10.42c0,0.75 -0.19,1 -1,1c-1.79,-0.06 -3.59,-0.06 -5.38,0c-0.83,0 -1,-0.24 -1,-1l0,-16c0.017,-1.171 -0.158,-2.336 -0.52,-3.45c-0.414,-1.432 -1.729,-2.428 -3.22,-2.44c-2.84,-0.22 -5.12,1.07 -7.26,2.72c-0.43,0.33 -0.27,0.78 -0.27,1.19l0,17.91c0,0.91 -0.21,1.2 -1.15,1.16c-1.75,-0.08 -3.51,0 -5.27,0c-0.62,0 -0.89,-0.11 -0.88,-0.82l0,-26.93c0,-0.65 0.17,-0.88 0.84,-0.86c1.48,0.047 2.963,0.047 4.45,0c0.7,0 1.07,0.13 1.15,0.9c0.135,0.707 0.312,1.404 0.53,2.09Z" style="fill:rgb(103,69,147);fill-rule:nonzero;"/>        <path d="M320.34,138.28c-0.6,1.87 -1.21,3.71 -1.78,5.56c-0.21,0.71 -0.74,0.56 -1.23,0.56l-10.66,0c-1,0 -1.27,0.25 -1.24,1.23c0.07,2.69 0,5.39 0,8.08c0,0.77 0.24,1 1,1l10.42,0c1.12,0 1.39,0.34 1.33,1.39c-0.073,1.332 -0.073,2.668 0,4c0,0.75 -0.24,0.91 -0.94,0.91l-10.66,0c-0.93,0 -1.17,0.26 -1.16,1.17l0,14.87c0,0.87 -0.21,1.14 -1.1,1.11c-1.75,-0.08 -3.51,0 -5.27,0c-0.67,0 -1,-0.1 -1,-0.88l0,-38.06c0,-0.59 0.06,-0.92 0.8,-0.92l21,0c0.162,-0.022 0.326,-0.028 0.49,-0.02Z" style="fill:rgb(103,69,147);fill-rule:nonzero;"/>        <path d="M456.15,156.77c-1.982,-1.388 -4.331,-2.161 -6.75,-2.22c-4.87,-0.07 -8.2,3 -8.64,8.1c-0.179,1.75 0.029,3.519 0.61,5.18c1.39,3.85 5.19,5.68 9.66,4.69c1.298,-0.282 2.55,-0.743 3.72,-1.37c0.58,-0.31 0.78,-0.19 1,0.38c0.48,1.23 1,2.44 1.57,3.65c0.16,0.37 0.29,0.65 -0.18,1c-4.87,3.22 -15.11,4 -20,-1.71c-4.36,-5.06 -5,-10.89 -2.53,-16.85c2.38,-5.8 7.11,-8.68 13.39,-8.88c2.461,-0.145 4.921,0.318 7.16,1.35c0.667,0.223 1.088,0.892 1,1.59c-0.07,1.58 -0.01,3.22 -0.01,5.09Z" style="fill:rgb(103,69,147);fill-rule:nonzero;"/>        <path d="M333.16,163.84l0,13.11c0,0.91 -0.26,1.11 -1.12,1.08c-1.79,-0.07 -3.59,0 -5.38,0c-0.61,0 -0.8,-0.18 -0.8,-0.79l0,-27c0,-0.63 0.21,-0.79 0.81,-0.78c1.83,0 3.67,0.06 5.5,0c0.9,0 1,0.35 1,1.1c-0.03,4.39 -0.01,8.84 -0.01,13.28Z" style="fill:rgb(103,69,147);fill-rule:nonzero;"/>        <path d="M329.49,144.78c-0.053,0.002 -0.107,0.003 -0.16,0.003c-2.345,0 -4.28,-1.918 -4.3,-4.263c0.005,-2.421 1.999,-4.41 4.42,-4.41c0.02,0 0.04,0 0.06,0c0.06,-0.002 0.12,-0.004 0.18,-0.004c2.375,0 4.33,1.955 4.33,4.33c0,0.005 0,0.009 0,0.014c-0.026,2.385 -1.995,4.333 -4.38,4.333c-0.05,0 -0.1,-0.001 -0.15,-0.003Z" style="fill:rgb(103,69,147);fill-rule:nonzero;"/>        <path d="M143.5,167.09c0.36,-0.518 0.494,-1.161 0.37,-1.78l0,-29.59c0.036,-0.663 -0.087,-1.325 -0.36,-1.93c0,-0.55 -0.06,-1.09 -0.06,-1.64l0,-91c0,-1 -0.23,-1.3 -1.28,-1.29c-6.987,0.053 -13.987,0.053 -21,0c-1.13,0 -1.41,0.26 -1.4,1.4c0.04,22.487 0.04,44.973 0,67.46l0,1.44c-10.141,-7.546 -22.45,-11.623 -35.09,-11.623c-32.246,0 -58.78,26.534 -58.78,58.78c0,11.342 3.283,22.445 9.45,31.963c6.96,11.033 17.528,19.325 29.9,23.46c19.45,6.54 37.61,3.48 54.52,-8.18l0,10.43c0,0.89 0.24,1.1 1.11,1.1l21.2,0c1.09,0 1.33,-0.3 1.33,-1.35c-0.033,-15.42 -0.033,-30.84 0,-46.26c0.05,-0.48 0.07,-0.93 0.09,-1.39Zm-23.6,-8.68c-0.575,18.887 -16.268,34.11 -35.164,34.11c-19.299,0 -35.18,-15.881 -35.18,-35.18c0,-19.278 15.846,-35.149 35.124,-35.18c19.344,0.054 35.232,15.986 35.232,35.33c0,0.303 -0.004,0.607 -0.012,0.91l0,0.01Z" style="fill:rgb(103,69,147);fill-rule:nonzero;"/>        <path d="M275.42,152.26c-0.618,-7.952 -2.908,-15.684 -6.72,-22.69c-10.21,-19.047 -30.142,-30.977 -51.753,-30.977c-18.049,0 -35.125,8.322 -46.247,22.537c-5.257,6.622 -8.965,14.338 -10.85,22.58c-0.38,1.65 -0.71,3.32 -1.07,5l-0.34,0.26c-0.65,-0.76 -1.25,-1.58 -2,-2.29c-4.3,-4.307 -8.633,-8.6 -13,-12.88l0,33.3c0.24,0.2 0.49,0.38 0.7,0.6l30.14,30.16c2.557,2.633 5.341,5.036 8.32,7.18c14.81,10.36 31.06,13.49 48.59,9.26c12.263,-2.895 23.205,-9.828 31.06,-19.68c9.865,-11.791 14.611,-27.054 13.17,-42.36Zm-58.56,40.2c-19.241,-0.06 -35.04,-15.909 -35.04,-35.15c0,-19.283 15.867,-35.15 35.15,-35.15c19.268,0 35.128,15.842 35.15,35.11c0,0.064 0.001,0.127 0.001,0.191c0,19.2 -15.8,35 -35,35c-0.087,0 -0.174,0 -0.261,-0.001Z" style="fill:rgb(120,193,235);fill-rule:nonzero;"/>        <path d="M395.81,177.4c-0.377,-3.319 -0.511,-6.661 -0.4,-10l0,-8.47c0,-5.16 -2.21,-8.48 -6.56,-9.61c-5.198,-1.329 -10.71,-0.661 -15.44,1.87c-0.52,0.26 -0.55,0.52 -0.3,1c0.59,1.1 1.16,2.21 1.68,3.34c0.28,0.61 0.55,0.64 1.14,0.36c2.541,-1.327 5.424,-1.857 8.27,-1.52c1.648,0.063 3.095,1.14 3.63,2.7c0.79,2.26 0.42,2.83 -1.91,2.88c-3.24,0.07 -6.48,0.11 -9.52,1.46c-3.82,1.69 -5.55,4.68 -5.28,9.12c0.254,3.61 2.772,6.687 6.26,7.65c3.62,1.086 7.553,0.293 10.47,-2.11c0.76,-0.6 1.1,-0.63 1.35,0.36c0.09,0.37 0.32,0.71 0.43,1.08c0.084,0.353 0.433,0.582 0.79,0.52l4.92,0c0.51,-0.03 0.54,-0.17 0.47,-0.63Zm-8.07,-6.4c-1.417,1.251 -3.261,1.913 -5.15,1.85c-3.1,0 -4.87,-2.38 -3.95,-5.24c0.502,-1.344 1.716,-2.299 3.14,-2.47c1.922,-0.295 3.866,-0.422 5.81,-0.38c0.58,0 0.51,0.34 0.51,0.67l0,2.45c-0.15,1.06 0.52,2.35 -0.36,3.12Z" style="fill:rgb(103,69,147);fill-rule:nonzero;"/>        <path d="M485.2,157.67c-1.37,-4.44 -4,-7.71 -8.75,-8.66c-4.89,-1 -9.34,-0.12 -12.68,4c-1.895,2.41 -3.027,5.332 -3.25,8.39c-0.489,3.647 0.183,7.356 1.92,10.6c1.637,3.128 4.601,5.356 8.06,6.06c4.638,1.094 9.516,0.516 13.77,-1.63c0.67,-0.34 0.93,-0.66 0.54,-1.43c-0.546,-1.078 -1.03,-2.187 -1.45,-3.32c-0.27,-0.7 -0.56,-0.73 -1.19,-0.4c-2.198,1.125 -4.654,1.653 -7.12,1.53c-3.568,0.004 -6.645,-2.6 -7.23,-6.12c-0.15,-0.93 0.15,-1 0.94,-1l16.24,0c0.55,0 1,0 1,-0.77c0.106,-2.443 -0.164,-4.889 -0.8,-7.25Zm-6.55,2.47c-0.07,0.63 -0.49,0.49 -0.85,0.5l-9.34,0c-0.47,0 -0.79,0 -0.78,-0.66c0,-0.021 0,-0.043 0,-0.064c0,-3.105 2.555,-5.66 5.66,-5.66c0.325,0 0.65,0.028 0.97,0.084c2.32,0.38 4.59,3.44 4.34,5.79l0,0.01Z" style="fill:rgb(103,69,147);fill-rule:nonzero;"/>    </g></svg>