<?xml version="1.0" encoding="UTF-8" standalone="no"?><!DOCTYPE svg PUBLIC "-//W3C//DTD SVG 1.1//EN" "http://www.w3.org/Graphics/SVG/1.1/DTD/svg11.dtd"><svg width="100%" height="100%" viewBox="0 0 1024 512" version="1.1" xmlns="http://www.w3.org/2000/svg" xmlns:xlink="http://www.w3.org/1999/xlink" xml:space="preserve" style="fill-rule:evenodd;clip-rule:evenodd;stroke-linejoin:round;stroke-miterlimit:2;"><title>EstateGuru</title><desc>EstateGuru is an Estonian peer to peer (P2P) lending platform established in 2014. You can lend money to businesses. All the loans listed are backed by property assets and interest rates are between 10% and 12%.EstateGuru provides excellent information and transparency about the projects.</desc>    <g id="estateguru-512x256.svg" transform="matrix(2.21733,0,0,2.21733,-55.6503,-27.8289)">        <path id="_6d9fd3f9-e8d4-4a7f-996e-a00913cf6b2d" d="M144.44,95.76l-51.44,-45.63l-51.06,45.63c-10.137,8.7 -15.967,21.421 -15.94,34.78l0,30.06c0,25 19.56,45.28 44.19,45.28l46.36,0c23.91,0 43.46,-20.28 43.46,-45.28l0,-30.06c0,-13.275 -5.669,-25.938 -15.57,-34.78Zm4,64.83c0,18.11 -14.49,33 -31.87,33l-1.09,0c-4,0 -12.31,-0.36 -22.46,-0.36c-10.15,0 -18.47,0 -22.09,0.36l-0.72,0c-17.75,0 -32.24,-14.85 -32.24,-33l0,-30.05c0,-9.726 4.234,-18.987 11.59,-25.35l43.44,-38.76l43.83,39.12c7.294,6.41 11.514,15.64 11.59,25.35l0.02,29.69Zm-15.57,-51.07l-39.87,-35.52l-39.84,35.5c-6.28,5.112 -9.778,12.91 -9.42,21l0,30.1c0,14.85 11.59,27.17 26.08,27.17l0.72,0c4,0 12.68,-0.36 22.46,-0.36c9.78,0 18.47,0 22.46,0.36l0.72,0c14.49,0 26.08,-12 26.08,-27.17l0,-30.06c0.048,-8.03 -3.387,-15.699 -9.41,-21.01l0.02,-0.01Zm-2.17,51.07c0.001,0.08 0.002,0.16 0.002,0.24c0,7.971 -6.522,14.546 -14.492,14.61l-0.36,0c-4,0 -12.68,-0.36 -22.82,-0.36c-10.14,0 -18.83,0 -22.82,0.36l-0.36,0c-8,0 -14.49,-6.88 -14.49,-14.85l0,-30.05c0.119,-4.448 2.088,-8.652 5.43,-11.59l32.21,-28.62l32.24,29c3.342,2.938 5.311,7.142 5.43,11.59l0.03,29.67Zm-9.06,-37.31l-28.64,-25.34l-28.61,25.35c-2.059,1.69 -3.256,4.216 -3.26,6.88l0,30.06c0.069,2.401 0.967,4.705 2.54,6.52c1.581,1.708 3.835,2.637 6.16,2.54c8.69,-0.36 37.31,-0.36 46,0l0.36,0c2.22,0.093 4.363,-0.845 5.8,-2.54c1.718,-1.723 2.639,-4.089 2.54,-6.52l0,-30.06c0.36,-2.54 -1.09,-5.07 -2.9,-6.88l0.01,-0.01Zm-8.69,34.41l-39.86,0l0,-25.69l19.91,-17.76l19.93,17.76l0.02,25.69Z" style="fill:rgb(0,205,236);fill-rule:nonzero;"/>        <path id="aceedbc4-6ada-4c8a-b7c4-ee0aa534f07c" d="M212.17,144.66l-13,0l0,8.69l15.21,0l0,5.43l-21.77,0l0,-32.6l21.73,0l0,5.43l-15.21,0l0,7.61l13,0l0.04,5.44Z" style="fill:rgb(3,18,39);fill-rule:nonzero;"/>        <path id="fa0fcd24-14ab-4d60-a07a-f2c829551442" d="M240.06,150.09c0.06,-1.153 -0.492,-2.256 -1.45,-2.9c-1.563,-0.99 -3.275,-1.722 -5.07,-2.17l-5.43,-2.17c-3.62,-1.81 -5.8,-4.71 -5.8,-8c-0.079,-1.69 0.434,-3.357 1.45,-4.71c1.117,-1.472 2.624,-2.601 4.35,-3.26c1.976,-0.712 4.06,-1.081 6.16,-1.09c2.103,-0.023 4.192,0.347 6.16,1.09c1.822,0.671 3.359,1.95 4.35,3.62c1.02,1.488 1.529,3.268 1.45,5.07l-6.88,0c0.142,-1.267 -0.414,-2.517 -1.45,-3.26c-2.463,-1.459 -5.537,-1.459 -8,0c-0.814,0.609 -1.34,1.529 -1.45,2.54c-0.049,1.054 0.517,2.046 1.45,2.54c1.505,0.76 3.083,1.366 4.71,1.81c3.026,0.736 5.864,2.098 8.33,4c1.847,1.479 2.808,3.809 2.54,6.16c0.152,2.596 -1.093,5.084 -3.26,6.52c-2.619,1.565 -5.643,2.321 -8.69,2.17c-2.377,0.08 -4.738,-0.417 -6.88,-1.45c-1.83,-0.787 -3.43,-2.026 -4.65,-3.6c-1.132,-1.588 -1.763,-3.48 -1.81,-5.43l6.81,0c0,3.62 2.17,5.43 6.52,5.07c1.298,0.084 2.584,-0.303 3.62,-1.09c2.54,0.36 2.9,-0.36 2.9,-1.45" style="fill:rgb(3,18,39);fill-rule:nonzero;"/>        <path id="e112786f-8064-492a-acc0-81f60677e5c4" d="M275.92,131.62l-9.42,0l0,27.17l-6.5,0l0,-27.17l-9.42,0l0,-5.43l25.35,0l-0.01,5.43Z" style="fill:rgb(3,18,39);fill-rule:nonzero;"/>        <path id="_49177a75-d80a-4d4d-9c1b-9ac84dca073c" d="M292.22,151.91l-11.22,0l-1.81,6.88l-6.89,0l11.59,-32.6l5.8,0l11.59,32.6l-6.88,0l-2.18,-6.88Zm-9.42,-5.43l7.61,0l-3.62,-12l-3.99,12Z" style="fill:rgb(3,18,39);fill-rule:nonzero;"/>        <path id="b13cc859-2f7e-4209-a407-08e6854b8d58" d="M326.63,131.62l-9.42,0l0,27.17l-6.52,0l0,-27.17l-9.42,0l0,-5.43l25.35,0l0.01,5.43Z" style="fill:rgb(3,18,39);fill-rule:nonzero;"/>        <path id="_672ce871-036b-43b7-9e06-2d03830081c6" d="M353.43,144.66l-13,0l0,8.69l15.21,0l0,5.43l-21.77,0l0,-32.6l21.73,0l0,5.43l-15.21,0l0,7.61l13,0l0.04,5.44Z" style="fill:rgb(3,18,39);fill-rule:nonzero;"/>        <path id="b1ebc490-ad00-4302-af23-a556b7790af5" d="M388.2,154.44c-1.324,1.405 -2.929,2.515 -4.71,3.26c-2.347,0.715 -4.786,1.082 -7.24,1.09c-2.522,-0.034 -5.002,-0.647 -7.25,-1.79c-2.089,-1.12 -3.746,-2.905 -4.71,-5.07c-1.118,-2.523 -1.733,-5.241 -1.81,-8l0,-2.17c-0.08,-2.846 0.414,-5.679 1.45,-8.33c1.034,-2.107 2.519,-3.961 4.35,-5.43c2.115,-1.146 4.475,-1.767 6.88,-1.81c3.62,0 6.52,0.72 8.69,2.54c2.17,1.82 3.26,4.35 3.62,8l-6.16,0c-0.227,-1.473 -0.853,-2.857 -1.81,-4c-1.136,-0.912 -2.543,-1.422 -4,-1.45c-2.028,-0.161 -3.985,0.819 -5.07,2.54c-1.325,2.309 -1.953,4.952 -1.81,7.61l0,2.17c-0.094,2.653 0.531,5.283 1.81,7.61c1.09,1.81 2.9,2.54 5.43,2.54c2.53,0 4,-0.36 5.07,-1.45l0,-5.43l-5.8,0l0,-4.71l12.31,0l0.76,12.28Z" style="fill:rgb(3,18,39);fill-rule:nonzero;"/>        <path id="e8c42a41-e362-43ad-a1cd-30b9d11c9597" d="M424.43,126.19l0,21c0.154,3.113 -1.034,6.148 -3.26,8.33c-2.17,2.17 -5.43,2.9 -9.42,2.9c-3.27,0.16 -6.49,-0.871 -9.06,-2.9c-2.17,-1.81 -3.26,-4.71 -3.62,-8.33l0,-21l6.93,0l0,21.37c0,2.17 0.36,3.62 1.45,4.71c1.187,1.063 2.763,1.588 4.35,1.45c4,0 5.8,-1.81 5.8,-5.8l0,-21.73l6.83,0Z" style="fill:rgb(3,18,39);fill-rule:nonzero;"/>        <path id="_3c9b5758-fd7f-4c37-bf2b-df460925f25f" d="M443.62,146.83l-5.43,0l0,12l-6.52,0l0,-32.6l12,0c4,0 6.88,0.72 9.06,2.54c2.195,1.74 3.412,4.443 3.26,7.24c0.128,1.92 -0.382,3.83 -1.45,5.43c-1.097,1.577 -2.6,2.828 -4.35,3.62l6.88,13.4l0,0.36l-7.24,0l-6.21,-11.99Zm-5.07,-5.43l5.45,0c1.482,0.136 2.95,-0.396 4,-1.45c0.99,-0.935 1.52,-2.26 1.45,-3.62c0.14,-1.37 -0.403,-2.725 -1.45,-3.62c-1.136,-0.912 -2.543,-1.422 -4,-1.45l-5.43,0l-0.02,10.14Z" style="fill:rgb(3,18,39);fill-rule:nonzero;"/>        <path id="_60aaa051-df39-49bc-8314-4578991fb805" d="M486,126.19l0,21c0.154,3.113 -1.034,6.148 -3.26,8.33c-2.17,2.17 -5.43,2.9 -9.42,2.9c-3.27,0.16 -6.49,-0.871 -9.06,-2.9c-2.17,-1.81 -3.26,-4.71 -3.62,-8.33l0,-21l6.88,0l0,21.37c0,2.17 0.36,3.62 1.45,4.71c1.187,1.063 2.763,1.588 4.35,1.45c4,0 5.8,-1.81 5.8,-5.8l0,-21.73l6.88,0Z" style="fill:rgb(3,18,39);fill-rule:nonzero;"/>    </g></svg>