<?xml version="1.0" encoding="UTF-8" standalone="no"?><!DOCTYPE svg PUBLIC "-//W3C//DTD SVG 1.1//EN" "http://www.w3.org/Graphics/SVG/1.1/DTD/svg11.dtd"><svg width="100%" height="100%" viewBox="0 0 1024 512" version="1.1" xmlns="http://www.w3.org/2000/svg" xmlns:xlink="http://www.w3.org/1999/xlink" xml:space="preserve" style="fill-rule:evenodd;clip-rule:evenodd;stroke-linejoin:round;stroke-miterlimit:2;"><title>Exporo</title><desc>Exporo is an innovative Internet platform that offers investors the opportunity to participate in attractive real estate projects through crowdinvesting. The founding team of Exporo has many years of experience in asset-backed investments and has a proven track record for successful funded real estate projects.</desc>    <g transform="matrix(3.14233,0,0,3.14233,-259.359,-533.882)">        <g transform="matrix(1,0,0,1,54.5737,212.968)">            <path d="M91.4,29.5l0,29.3l-6.3,4.6l0,-29.2l6.3,-4.7Z" style="fill:rgb(206,231,251);fill-rule:nonzero;"/>        </g>        <g transform="matrix(1,0,0,1,54.5737,212.968)">            <path d="M91.4,29.5l-6.3,4.7l-9.8,-3.2l0,-6.7l16.1,5.2Z" style="fill:rgb(80,117,192);fill-rule:nonzero;"/>        </g>        <g transform="matrix(1,0,0,1,54.5737,212.968)">            <path d="M75.3,12l-6.3,4.7l-18.7,-6.1l-6.4,-2l6.4,-4.7l25,8.1Z" style="fill:rgb(80,117,192);fill-rule:nonzero;"/>        </g>        <g transform="matrix(1,0,0,1,54.5737,212.968)">            <path d="M69,66.9l0,-9.9l0,-28l0,-6.7l0,-5.6l6.3,-4.7l0,50.3l-6.3,4.6Z" style="fill:rgb(206,231,251);fill-rule:nonzero;"/>        </g>        <g transform="matrix(1,0,0,1,54.5737,212.968)">            <path d="M60.8,54.3l6.3,-4.6l0,18.6l-6.3,4.6l0,-9.9l0,-3l0,-5.7Z" style="fill:rgb(206,231,251);fill-rule:nonzero;"/>        </g>        <g transform="matrix(1,0,0,1,54.5737,212.968)">            <path d="M58.5,25.6l0,14.3l-6.3,-7.2l0,-9.2l6.3,2.1Z" style="fill:rgb(58,78,138);fill-rule:nonzero;"/>        </g>        <g transform="matrix(1,0,0,1,54.5737,212.968)">            <path d="M52.2,52.8l4.4,-3.2l4.2,4.7l0,5.7l-8.6,-7.2Z" style="fill:rgb(80,117,192);fill-rule:nonzero;"/>        </g>        <g transform="matrix(1,0,0,1,54.5737,212.968)">            <path d="M52.2,44.5l4.4,5.1l-4.4,3.2l0,-8.3Z" style="fill:rgb(58,78,138);fill-rule:nonzero;"/>        </g>        <g transform="matrix(1,0,0,1,54.5737,212.968)">            <path d="M52.2,23.5l6.3,-4.6l10.5,3.4l0,6.7l-10.5,-3.4l-6.3,-2.1Z" style="fill:rgb(80,117,192);fill-rule:nonzero;"/>        </g>        <g transform="matrix(1,0,0,1,54.5737,212.968)">            <path d="M58.5,39.9l8.6,9.8l-6.3,4.6l-4.2,-4.7l-4.4,-5.1l-1.9,-2.2l-5.6,-6.3l6.4,-4.6l1.1,1.3l6.3,7.2Z" style="fill:rgb(80,117,192);fill-rule:nonzero;"/>        </g>        <g transform="matrix(1,0,0,1,54.5737,212.968)">            <path d="M43.9,34.9l0,-26.3l6.4,2l0,21.2l-6.4,3.1Z" style="fill:rgb(58,78,138);fill-rule:nonzero;"/>        </g>        <g transform="matrix(1,0,0,1,54.5737,212.968)">            <path d="M60.8,72.9l-16.9,-14.1l6.4,-4.6l10.5,8.8l0,9.9Z" style="fill:rgb(80,117,192);fill-rule:nonzero;"/>        </g>        <g transform="matrix(1,0,0,1,54.5737,212.968)">            <path d="M50.3,54.2l-6.4,4.6l0,-22.4l0.8,-0.4l5.6,6.3l0,11.9Z" style="fill:rgb(58,78,138);fill-rule:nonzero;"/>        </g>        <g transform="matrix(1,0,0,1,54.5737,212.968)">            <path d="M43.9,34.9l6.4,-3.1l0.8,-0.4l-6.4,4.6l-0.8,0.4l-8.9,4.4l-6.4,3.2l6.4,-4.7l8.9,-4.4Z" style="fill:rgb(80,117,192);fill-rule:nonzero;"/>        </g>        <g transform="matrix(1,0,0,1,54.5737,212.968)">            <path d="M35,40.8l0,17.1l-6.4,4.7l0,-18.6l6.4,-3.2Z" style="fill:rgb(58,78,138);fill-rule:nonzero;"/>        </g>        <g transform="matrix(1,0,0,1,54.5737,212.968)">            <path d="M122.1,31.8l14.5,0l0,2.5l-12,0l0,7.9l11.9,0l0,2.5l-11.9,0l0,10l11.9,0l0,2.5l-14.4,0l0,-25.4Z" style="fill:rgb(39,74,127);fill-rule:nonzero;"/>            <path d="M158.1,31.8l3,0l6.1,9.9l6.1,-9.9l2.9,0l-7.6,12.2l8.1,13.1l-3,0l-6.6,-10.7l-6.6,10.7l-3,0l8.1,-13.1l-7.5,-12.2Z" style="fill:rgb(39,74,127);fill-rule:nonzero;"/>            <path d="M199.4,31.8l5,0c2.9,0 4.8,0.1 5.9,0.4c1.4,0.4 2.6,1.1 3.5,2.2c0.9,1.1 1.4,2.5 1.4,4.2c0,1.7 -0.4,3.1 -1.3,4.2c-0.9,1.1 -2.1,1.8 -3.7,2.2c-1.1,0.3 -3.3,0.4 -6.4,0.4l-1.8,0l0,11.8l-2.5,0l0,-25.4l-0.1,0Zm2.5,2.5l0,8.6l4.3,0.1c1.7,0 3,-0.2 3.8,-0.5c0.8,-0.3 1.4,-0.8 1.9,-1.5c0.5,-0.7 0.7,-1.5 0.7,-2.4c0,-0.8 -0.2,-1.6 -0.7,-2.3c-0.5,-0.7 -1.1,-1.2 -1.8,-1.5c-0.8,-0.3 -2,-0.4 -3.7,-0.4l-4.5,0l0,-0.1Z" style="fill:rgb(39,74,127);fill-rule:nonzero;"/>            <path d="M250.8,31.1c3.8,0 7,1.3 9.6,3.8c2.6,2.6 3.9,5.7 3.9,9.5c0,3.7 -1.3,6.9 -3.9,9.4c-2.6,2.6 -5.7,3.9 -9.4,3.9c-3.8,0 -6.9,-1.3 -9.5,-3.9c-2.6,-2.6 -3.9,-5.7 -3.9,-9.3c0,-2.4 0.6,-4.7 1.8,-6.8c1.2,-2.1 2.8,-3.7 4.8,-4.9c2,-1.1 4.2,-1.7 6.6,-1.7Zm0.1,2.5c-1.9,0 -3.7,0.5 -5.3,1.5c-1.7,1 -3,2.3 -3.9,3.9c-0.9,1.7 -1.4,3.5 -1.4,5.5c0,3 1,5.6 3.1,7.6c2.1,2.1 4.6,3.1 7.5,3.1c2,0 3.8,-0.5 5.5,-1.4c1.7,-1 3,-2.3 3.9,-3.9c0.9,-1.7 1.4,-3.5 1.4,-5.5c0,-2 -0.5,-3.8 -1.4,-5.5c-0.9,-1.6 -2.3,-2.9 -4,-3.9c-1.7,-0.9 -3.5,-1.4 -5.4,-1.4Z" style="fill:rgb(39,74,127);fill-rule:nonzero;"/>            <path d="M287.9,31.8l5,0c2.8,0 4.7,0.1 5.7,0.3c1.5,0.3 2.7,1.1 3.7,2.2c0.9,1.1 1.4,2.5 1.4,4.2c0,1.4 -0.3,2.6 -1,3.6c-0.6,1 -1.6,1.8 -2.8,2.4c-1.2,0.5 -2.9,0.8 -5,0.8l9.1,11.8l-3,0l-9.1,-11.8l-1.4,0l0,11.8l-2.5,0l0,-25.3l-0.1,0Zm2.6,2.5l0,8.6l4.4,0c1.7,0 2.9,-0.2 3.8,-0.5c0.8,-0.3 1.4,-0.8 1.9,-1.5c0.5,-0.7 0.7,-1.5 0.7,-2.4c0,-0.8 -0.2,-1.6 -0.7,-2.3c-0.5,-0.7 -1.1,-1.2 -1.8,-1.5c-0.7,-0.3 -2,-0.4 -3.7,-0.4l-4.6,0Z" style="fill:rgb(39,74,127);fill-rule:nonzero;"/>            <path d="M339.7,31.1c3.8,0 7,1.3 9.6,3.8c2.6,2.6 3.9,5.7 3.9,9.5c0,3.7 -1.3,6.9 -3.9,9.4c-2.6,2.6 -5.7,3.9 -9.4,3.9c-3.8,0 -6.9,-1.3 -9.5,-3.9c-2.6,-2.6 -3.9,-5.7 -3.9,-9.3c0,-2.4 0.6,-4.7 1.8,-6.8c1.2,-2.1 2.8,-3.7 4.8,-4.9c2.1,-1.1 4.3,-1.7 6.6,-1.7Zm0.1,2.5c-1.9,0 -3.7,0.5 -5.3,1.5c-1.7,1 -3,2.3 -3.9,3.9c-0.9,1.7 -1.4,3.5 -1.4,5.5c0,3 1,5.6 3.1,7.6c2.1,2.1 4.6,3.1 7.5,3.1c2,0 3.8,-0.5 5.5,-1.4c1.7,-1 3,-2.3 3.9,-3.9c0.9,-1.7 1.4,-3.5 1.4,-5.5c0,-2 -0.5,-3.8 -1.4,-5.5c-0.9,-1.6 -2.3,-2.9 -4,-3.9c-1.6,-0.9 -3.5,-1.4 -5.4,-1.4Z" style="fill:rgb(39,74,127);fill-rule:nonzero;"/>        </g>    </g></svg>