<?xml version="1.0" encoding="UTF-8" standalone="no"?><!DOCTYPE svg PUBLIC "-//W3C//DTD SVG 1.1//EN" "http://www.w3.org/Graphics/SVG/1.1/DTD/svg11.dtd"><svg width="100%" height="100%" viewBox="0 0 1024 512" version="1.1" xmlns="http://www.w3.org/2000/svg" xmlns:xlink="http://www.w3.org/1999/xlink" xml:space="preserve" style="fill-rule:evenodd;clip-rule:evenodd;stroke-linejoin:round;stroke-miterlimit:2;"><title>LITA</title><desc>LITA.co is the participative investment platform dedicated to social entrepreneurship and sustainable development. Created in January 2014 by Eva Sadoun and Julien Benayoun, LITA.co, formerly 1001PACT, collected 7 million euros from 2,000 individuals to finance 24 social enterprises. We allow individuals to invest from € 100 in companies with a positive impact</desc>    <g transform="matrix(0.499022,0,0,0.499022,2.00499,128.75)">        <g transform="matrix(3.28654,0,0,3.28608,0.0228654,0)">            <circle cx="171.17" cy="29.96" r="7.69" style="fill:url(#_Linear1);"/>        </g>        <g transform="matrix(3.28654,0,0,3.28608,0.0228654,0)">            <rect x="163.48" y="41.79" width="15.37" height="54.39" style="fill:url(#_Linear2);"/>        </g>        <g transform="matrix(3.28654,0,0,3.28608,0.0228654,0)">            <rect x="32.16" y="22.14" width="15.37" height="54.52" style="fill:url(#_Linear3);"/>        </g>        <g transform="matrix(3.28654,0,0,3.28608,0.0228654,0)">            <circle cx="39.85" cy="88.5" r="7.69" style="fill:url(#_Linear4);"/>        </g>        <g transform="matrix(3.28654,0,0,3.28608,0.0228654,0)">            <rect x="51.68" y="82.21" width="33.88" height="13.98" style="fill:url(#_Linear5);"/>        </g>        <g transform="matrix(3.28654,0,0,3.28608,0.0228654,0)">            <circle cx="282.78" cy="88.5" r="7.69" style="fill:url(#_Linear6);"/>        </g>        <g transform="matrix(3.28654,0,0,3.28608,0.0228654,0)">            <rect x="275.09" y="40.41" width="15.37" height="36.25" style="fill:url(#_Linear7);"/>        </g>        <g transform="matrix(3.28654,0,0,3.28608,0.0228654,0)">            <path d="M290.47,36.26l21.27,0l0,-14.18l-57.91,0l0,14.18l36.64,0Z" style="fill:url(#_Linear8);fill-rule:nonzero;"/>        </g>        <g transform="matrix(3.28654,0,0,3.28608,0.0228654,0)">            <path d="M383.03,62.77l9.29,-22.66l7.29,-18.47l-14.18,0l-31.67,74.52l15.57,0l13.7,-33.39Z" style="fill:url(#_Linear9);fill-rule:nonzero;"/>        </g>        <g transform="matrix(3.28654,0,0,3.28608,0.0228654,0)">            <path d="M419.75,96.16l15.97,0l-31.75,-74.52l-7.29,18.47l23.07,56.05Z" style="fill:url(#_Linear10);fill-rule:nonzero;"/>        </g>        <g transform="matrix(3.28654,0,0,3.28608,0.0228654,0)">            <circle cx="394.51" cy="64.8" r="7.69" style="fill:url(#_Linear11);"/>        </g>        <g transform="matrix(3.28654,0,0,3.28608,-456.84,-580.289)">            <path d="M593,176.59l-454,0l0,118.19l621.93,0l0,-118.19l-167.93,0Zm-342,111.95l-105.75,0l0,-105.71l105.75,0l0,105.71Zm112,0l-105.81,0l0,-105.71l105.71,0l0.1,105.71Zm111.81,0l-105.67,0l0,-105.71l105.57,0l0.1,105.71Zm112.08,0l-105.89,0l0,-105.71l105.79,0l0.1,105.71Zm36.28,-28.2c-0.003,0 -0.007,0 -0.01,0c-2.836,0 -5.17,-2.334 -5.17,-5.17c0,-2.836 2.334,-5.17 5.17,-5.17c2.836,0 5.17,2.334 5.17,5.17c0,0 0,0.001 0,0.001c0,2.836 -2.334,5.17 -5.17,5.17c-0.03,0 -0.06,0 -0.09,-0.001l0.1,0Zm31.79,-0.23c-0.004,0 -0.008,0 -0.012,0c-13.901,0 -25.34,-11.439 -25.34,-25.34c0,-13.901 11.439,-25.34 25.34,-25.34c6.969,0 13.637,2.874 18.422,7.94l-6.16,7.09c-3.038,-3.623 -7.531,-5.718 -12.259,-5.718c-8.778,0 -16,7.222 -16,16c0,8.777 7.222,16 16,16c5.181,0 10.051,-2.517 13.049,-6.742l6.66,6.66c-4.819,5.99 -12.112,9.471 -19.8,9.45l0.1,0Zm49.63,0c-13.901,0 -25.34,-11.439 -25.34,-25.34c0,-13.901 11.439,-25.34 25.34,-25.34c13.901,0 25.34,11.439 25.34,25.34c-0.016,13.906 -11.464,25.34 -25.37,25.34c-0.023,0 -0.047,0 -0.07,0l0.1,0Z" style="fill:url(#_Linear12);fill-rule:nonzero;"/>        </g>        <g transform="matrix(3.28654,0,0,3.28608,-456.84,-580.289)">            <path d="M704.49,218.75c-8.777,0 -16,7.223 -16,16c0,8.777 7.223,16 16,16c8.777,0 16,-7.223 16,-16c0,-8.777 -7.223,-16 -16,-16Z" style="fill:url(#_Linear13);fill-rule:nonzero;"/>        </g>        <g transform="matrix(3.28654,0,0,3.28608,-456.84,-580.289)">            <path d="M139,303.81l5,0l0,18.26l11.2,0l0,4.57l-16.2,0l0,-22.83Z" style="fill:url(#_Linear14);fill-rule:nonzero;"/>        </g>        <g transform="matrix(3.28654,0,0,3.28608,-456.84,-580.289)">            <path d="M172.69,302.83l5.15,0l0,4.4l-5.15,0l0,-4.4Zm0.13,6.32l4.89,0l0,17.49l-4.89,0l0,-17.49Z" style="fill:url(#_Linear15);fill-rule:nonzero;"/>        </g>        <g transform="matrix(3.28654,0,0,3.28608,-456.84,-580.289)">            <path d="M194.94,309.15l5.18,0l3.88,11.71l3.89,-11.71l5.11,0l-6.8,17.62l-4.44,0l-6.82,-17.62Z" style="fill:url(#_Linear16);fill-rule:nonzero;"/>        </g>        <g transform="matrix(3.28654,0,0,3.28608,-456.84,-580.289)">            <path d="M228.17,318l0,-0.06c0,-5 3.51,-9.1 8.53,-9.1c5.76,0 8.4,4.53 8.4,9.49c0,0.39 0,0.85 -0.06,1.3l-12.04,0c0.292,2.059 2.144,3.565 4.22,3.43c1.585,0.021 3.106,-0.634 4.18,-1.8l2.8,2.51c-1.679,2.139 -4.282,3.355 -7,3.27c-0.116,0.005 -0.232,0.007 -0.347,0.007c-4.768,0 -8.69,-3.923 -8.69,-8.69c0,-0.119 0.002,-0.238 0.007,-0.357Zm12.17,-1.47c-0.29,-2.21 -1.58,-3.71 -3.64,-3.71c-2.06,0 -3.35,1.46 -3.73,3.71l7.37,0Z" style="fill:url(#_Linear17);fill-rule:nonzero;"/>        </g>        <g transform="matrix(3.28654,0,0,3.28608,-456.84,-580.289)">            <rect x="263.28" y="321.42" width="5.22" height="5.22" style="fill:url(#_Linear18);fill-rule:nonzero;"/>        </g>        <g transform="matrix(3.28654,0,0,3.28608,-456.84,-580.289)">            <rect x="286.65" y="303.81" width="5" height="22.83" style="fill:url(#_Linear19);fill-rule:nonzero;"/>        </g>        <g transform="matrix(3.28654,0,0,3.28608,-456.84,-580.289)">            <path d="M310.89,309.15l4.9,0l0,2.48c1.113,-1.727 3.025,-2.781 5.08,-2.8c2.021,-0.116 3.93,0.972 4.86,2.77c1.352,-1.757 3.453,-2.783 5.67,-2.77c3.64,0 5.83,2.22 5.83,6.42l0,11.39l-4.9,0l0,-9.76c0,-2.34 -1,-3.55 -2.86,-3.55c-1.86,0 -3,1.21 -3,3.55l0,9.76l-4.9,0l0,-9.76c0,-2.34 -1,-3.55 -2.86,-3.55c-1.86,0 -3,1.21 -3,3.55l0,9.76l-4.9,0l0.08,-17.49Z" style="fill:url(#_Linear20);fill-rule:nonzero;"/>        </g>        <g transform="matrix(3.28654,0,0,3.28608,-456.84,-580.289)">            <path d="M355.65,309.15l4.9,0l0,2.52c1.183,-1.804 3.213,-2.878 5.37,-2.84c4,0 7.86,3.19 7.86,9l0,0.07c0,5.83 -3.77,9 -7.86,9c-2.102,0.036 -4.099,-0.935 -5.37,-2.61l0,7.5l-4.9,0l0,-22.64Zm13.23,8.78l0,-0.07c0,-2.9 -1.93,-4.82 -4.21,-4.82c-2.28,0 -4.19,1.92 -4.19,4.82l0,0.07c0,2.9 1.9,4.82 4.19,4.82c2.29,0 4.21,-1.89 4.21,-4.82Z" style="fill:url(#_Linear21);fill-rule:nonzero;"/>        </g>        <g transform="matrix(3.28654,0,0,3.28608,-456.84,-580.289)">            <path d="M390.53,321.61l0,-0.06c0,-3.82 2.86,-5.58 7,-5.58c1.438,-0.015 2.868,0.229 4.22,0.72l0,-0.3c0,-2.05 -1.26,-3.19 -3.7,-3.19c-1.636,0.003 -3.255,0.323 -4.77,0.94l-1.28,-3.78c2.092,-0.975 4.382,-1.454 6.69,-1.4c2.68,0 4.61,0.72 5.83,2c1.339,1.537 2.012,3.546 1.87,5.58l0,10.15l-4.74,0l0,-1.9c-1.312,1.487 -3.229,2.303 -5.21,2.22c-3.24,-0.01 -5.91,-1.94 -5.91,-5.4Zm11.23,-1.14l0,-0.88c-0.982,-0.437 -2.046,-0.658 -3.12,-0.65c-2.09,0 -3.38,0.85 -3.38,2.41l0,0.07c0,1.33 1.09,2.12 2.67,2.12c2.29,0 3.83,-1.28 3.83,-3.07Z" style="fill:url(#_Linear22);fill-rule:nonzero;"/>        </g>        <g transform="matrix(3.28654,0,0,3.28608,-456.84,-580.289)">            <path d="M423.92,318l0,-0.06c-0.001,-0.06 -0.002,-0.12 -0.002,-0.18c0,-4.894 4.027,-8.92 8.92,-8.92c0.027,0 0.055,0 0.082,0c2.626,-0.151 5.177,0.934 6.89,2.93l-3,3.26c-0.945,-1.209 -2.396,-1.917 -3.93,-1.92c-2.44,0 -4.18,2.19 -4.18,4.76l0,0.07c0,2.67 1.7,4.82 4.38,4.82c1.519,-0.035 2.955,-0.711 3.95,-1.86l2.87,2.94c-1.712,2.118 -4.329,3.306 -7.05,3.2c-0.021,0 -0.041,0 -0.062,0c-4.866,0 -8.87,-4.004 -8.87,-8.87c0,-0.057 0.001,-0.113 0.002,-0.17Z" style="fill:url(#_Linear23);fill-rule:nonzero;"/>        </g>        <g transform="matrix(3.28654,0,0,3.28608,-456.84,-580.289)">            <path d="M458.12,321.68l0,-8.29l-2.06,0l0,-4.24l2.06,0l0,-4.46l4.88,0l0,4.46l4.06,0l0,4.24l-4.06,0l0,7.47c0,1.14 0.48,1.7 1.58,1.7c0.843,0.003 1.673,-0.211 2.41,-0.62l0,4c-1.165,0.694 -2.505,1.041 -3.86,1c-2.99,-0.01 -5.01,-1.22 -5.01,-5.26Z" style="fill:url(#_Linear24);fill-rule:nonzero;"/>        </g>        <g transform="matrix(3.28654,0,0,3.28608,-456.84,-580.289)">            <rect x="482.88" y="321.42" width="5.21" height="5.22" style="fill:url(#_Linear25);fill-rule:nonzero;"/>        </g>        <g transform="matrix(3.28654,0,0,3.28608,-456.84,-580.289)">            <path d="M510.76,308.44l-6.85,0l0,-4.63l18.67,0l0,4.63l-6.86,0l0,18.2l-5,0l0.04,-18.2Z" style="fill:url(#_Linear26);fill-rule:nonzero;"/>        </g>        <g transform="matrix(3.28654,0,0,3.28608,-456.84,-580.289)">            <path d="M537.17,309.15l4.89,0l0,3.53c1,-2.42 2.61,-4 5.51,-3.85l0,5.17l-0.26,0c-3.25,0 -5.25,2 -5.25,6.17l0,6.46l-4.89,0l0,-17.48Z" style="fill:url(#_Linear27);fill-rule:nonzero;"/>        </g>        <g transform="matrix(3.28654,0,0,3.28608,-456.84,-580.289)">            <path d="M564.67,320.47l0,-11.32l4.89,0l0,9.76c0,2.34 1.1,3.55 3,3.55c1.9,0 3.06,-1.21 3.06,-3.55l0,-9.76l4.89,0l0,17.49l-4.89,0l0,-2.48c-1.106,1.72 -3.006,2.773 -5.05,2.8c-3.74,0.04 -5.9,-2.48 -5.9,-6.49Z" style="fill:url(#_Linear28);fill-rule:nonzero;"/>        </g>        <g transform="matrix(3.28654,0,0,3.28608,-456.84,-580.289)">            <path d="M597.64,324.32l2.09,-3.26c1.556,1.238 3.455,1.968 5.44,2.09c1.42,0 2.07,-0.53 2.07,-1.31l0,-0.06c0,-1.08 -1.68,-1.44 -3.58,-2c-2.41,-0.71 -5.15,-1.86 -5.15,-5.25l0,-0.06c0,-3.56 2.83,-5.55 6.31,-5.55c2.295,0.029 4.532,0.724 6.44,2l-1.87,3.43c-1.398,-0.92 -3.003,-1.48 -4.67,-1.63c-1.19,0 -1.8,0.52 -1.8,1.21l0,0.07c0,1 1.64,1.44 3.51,2.09c2.41,0.81 5.21,2 5.21,5.18l0,0.07c0,3.88 -2.86,5.64 -6.59,5.64c-2.698,-0.028 -5.31,-0.966 -7.41,-2.66Z" style="fill:url(#_Linear29);fill-rule:nonzero;"/>        </g>        <g transform="matrix(3.28654,0,0,3.28608,-456.84,-580.289)">            <path d="M629.81,321.68l0,-8.29l-2.06,0l0,-4.24l2.06,0l0,-4.46l4.89,0l0,4.46l4.06,0l0,4.24l-4.06,0l0,7.47c0,1.14 0.49,1.7 1.58,1.7c0.843,0.004 1.673,-0.209 2.41,-0.62l0,4c-1.165,0.694 -2.505,1.041 -3.86,1c-2.99,-0.01 -5.02,-1.22 -5.02,-5.26Z" style="fill:url(#_Linear30);fill-rule:nonzero;"/>        </g>        <g transform="matrix(3.28654,0,0,3.28608,-456.84,-580.289)">            <rect x="656" y="321.42" width="5.21" height="5.22" style="fill:url(#_Linear31);fill-rule:nonzero;"/>        </g>        <g transform="matrix(3.28654,0,0,3.28608,-456.84,-580.289)">            <path d="M688.12,303.64l4.57,0l9.66,23l-5.18,0l-2.06,-5.13l-9.53,0l-2.06,5.13l-5,0l9.6,-23Zm5.22,13.44l-3,-7.4l-3,7.4l6,0Z" style="fill:url(#_Linear32);fill-rule:nonzero;"/>        </g>        <g transform="matrix(3.28654,0,0,3.28608,-456.84,-580.289)">            <path d="M717.85,318l0,-0.06c-0.001,-0.063 -0.002,-0.127 -0.002,-0.19c0,-4.888 4.022,-8.91 8.91,-8.91c0.031,0 0.061,0 0.092,0c2.626,-0.15 5.176,0.935 6.89,2.93l-3,3.26c-0.945,-1.209 -2.396,-1.917 -3.93,-1.92c-2.45,0 -4.18,2.19 -4.18,4.76l0,0.07c0,2.67 1.7,4.82 4.37,4.82c1.537,-0.021 2.994,-0.698 4,-1.86l2.87,2.94c-1.704,2.1 -4.297,3.286 -7,3.2c-0.051,0.001 -0.101,0.001 -0.152,0.001c-4.866,0 -8.87,-4.004 -8.87,-8.87c0,-0.057 0.001,-0.114 0.002,-0.171Z" style="fill:url(#_Linear33);fill-rule:nonzero;"/>        </g>        <g transform="matrix(3.28654,0,0,3.28608,-456.84,-580.289)">            <path d="M752,321.68l0,-8.29l-2,0l0,-4.24l2,0l0,-4.46l4.9,0l0,4.46l4,0l0,4.24l-4,0l0,7.47c0,1.14 0.48,1.7 1.57,1.7c0.846,0.004 1.68,-0.209 2.42,-0.62l0,4c-1.165,0.694 -2.505,1.041 -3.86,1c-2.96,-0.01 -5.03,-1.22 -5.03,-5.26Z" style="fill:url(#_Linear34);fill-rule:nonzero;"/>        </g>    </g>    <defs>        <linearGradient id="_Linear1" x1="0" y1="0" x2="1" y2="0" gradientUnits="userSpaceOnUse" gradientTransform="matrix(592.63,0,0,592.63,11.67,29.96)"><stop offset="0" style="stop-color:rgb(85,36,184);stop-opacity:1"/><stop offset="0.01" style="stop-color:rgb(83,41,186);stop-opacity:1"/><stop offset="0.14" style="stop-color:rgb(53,99,210);stop-opacity:1"/><stop offset="0.25" style="stop-color:rgb(30,145,230);stop-opacity:1"/><stop offset="0.35" style="stop-color:rgb(14,178,243);stop-opacity:1"/><stop offset="0.44" style="stop-color:rgb(4,199,252);stop-opacity:1"/><stop offset="0.49" style="stop-color:rgb(0,206,255);stop-opacity:1"/><stop offset="0.98" style="stop-color:rgb(0,233,150);stop-opacity:1"/><stop offset="1" style="stop-color:rgb(0,233,150);stop-opacity:1"/></linearGradient>        <linearGradient id="_Linear2" x1="0" y1="0" x2="1" y2="0" gradientUnits="userSpaceOnUse" gradientTransform="matrix(592.63,0,0,592.63,11.67,68.99)"><stop offset="0" style="stop-color:rgb(85,36,184);stop-opacity:1"/><stop offset="0.01" style="stop-color:rgb(83,41,186);stop-opacity:1"/><stop offset="0.14" style="stop-color:rgb(53,99,210);stop-opacity:1"/><stop offset="0.25" style="stop-color:rgb(30,145,230);stop-opacity:1"/><stop offset="0.35" style="stop-color:rgb(14,178,243);stop-opacity:1"/><stop offset="0.44" style="stop-color:rgb(4,199,252);stop-opacity:1"/><stop offset="0.49" style="stop-color:rgb(0,206,255);stop-opacity:1"/><stop offset="0.98" style="stop-color:rgb(0,233,150);stop-opacity:1"/><stop offset="1" style="stop-color:rgb(0,233,150);stop-opacity:1"/></linearGradient>        <linearGradient id="_Linear3" x1="0" y1="0" x2="1" y2="0" gradientUnits="userSpaceOnUse" gradientTransform="matrix(592.63,0,0,592.63,11.67,49.4)"><stop offset="0" style="stop-color:rgb(85,36,184);stop-opacity:1"/><stop offset="0.01" style="stop-color:rgb(83,41,186);stop-opacity:1"/><stop offset="0.14" style="stop-color:rgb(53,99,210);stop-opacity:1"/><stop offset="0.25" style="stop-color:rgb(30,145,230);stop-opacity:1"/><stop offset="0.35" style="stop-color:rgb(14,178,243);stop-opacity:1"/><stop offset="0.44" style="stop-color:rgb(4,199,252);stop-opacity:1"/><stop offset="0.49" style="stop-color:rgb(0,206,255);stop-opacity:1"/><stop offset="0.98" style="stop-color:rgb(0,233,150);stop-opacity:1"/><stop offset="1" style="stop-color:rgb(0,233,150);stop-opacity:1"/></linearGradient>        <linearGradient id="_Linear4" x1="0" y1="0" x2="1" y2="0" gradientUnits="userSpaceOnUse" gradientTransform="matrix(592.63,0,0,592.63,11.67,88.5)"><stop offset="0" style="stop-color:rgb(85,36,184);stop-opacity:1"/><stop offset="0.01" style="stop-color:rgb(83,41,186);stop-opacity:1"/><stop offset="0.14" style="stop-color:rgb(53,99,210);stop-opacity:1"/><stop offset="0.25" style="stop-color:rgb(30,145,230);stop-opacity:1"/><stop offset="0.35" style="stop-color:rgb(14,178,243);stop-opacity:1"/><stop offset="0.44" style="stop-color:rgb(4,199,252);stop-opacity:1"/><stop offset="0.49" style="stop-color:rgb(0,206,255);stop-opacity:1"/><stop offset="0.98" style="stop-color:rgb(0,233,150);stop-opacity:1"/><stop offset="1" style="stop-color:rgb(0,233,150);stop-opacity:1"/></linearGradient>        <linearGradient id="_Linear5" x1="0" y1="0" x2="1" y2="0" gradientUnits="userSpaceOnUse" gradientTransform="matrix(592.63,0,0,592.63,11.67,89.2)"><stop offset="0" style="stop-color:rgb(85,36,184);stop-opacity:1"/><stop offset="0.01" style="stop-color:rgb(83,41,186);stop-opacity:1"/><stop offset="0.14" style="stop-color:rgb(53,99,210);stop-opacity:1"/><stop offset="0.25" style="stop-color:rgb(30,145,230);stop-opacity:1"/><stop offset="0.35" style="stop-color:rgb(14,178,243);stop-opacity:1"/><stop offset="0.44" style="stop-color:rgb(4,199,252);stop-opacity:1"/><stop offset="0.49" style="stop-color:rgb(0,206,255);stop-opacity:1"/><stop offset="0.98" style="stop-color:rgb(0,233,150);stop-opacity:1"/><stop offset="1" style="stop-color:rgb(0,233,150);stop-opacity:1"/></linearGradient>        <linearGradient id="_Linear6" x1="0" y1="0" x2="1" y2="0" gradientUnits="userSpaceOnUse" gradientTransform="matrix(592.63,0,0,592.63,11.67,88.5)"><stop offset="0" style="stop-color:rgb(85,36,184);stop-opacity:1"/><stop offset="0.01" style="stop-color:rgb(83,41,186);stop-opacity:1"/><stop offset="0.14" style="stop-color:rgb(53,99,210);stop-opacity:1"/><stop offset="0.25" style="stop-color:rgb(30,145,230);stop-opacity:1"/><stop offset="0.35" style="stop-color:rgb(14,178,243);stop-opacity:1"/><stop offset="0.44" style="stop-color:rgb(4,199,252);stop-opacity:1"/><stop offset="0.49" style="stop-color:rgb(0,206,255);stop-opacity:1"/><stop offset="0.98" style="stop-color:rgb(0,233,150);stop-opacity:1"/><stop offset="1" style="stop-color:rgb(0,233,150);stop-opacity:1"/></linearGradient>        <linearGradient id="_Linear7" x1="0" y1="0" x2="1" y2="0" gradientUnits="userSpaceOnUse" gradientTransform="matrix(592.63,0,0,592.63,11.67,58.53)"><stop offset="0" style="stop-color:rgb(85,36,184);stop-opacity:1"/><stop offset="0.01" style="stop-color:rgb(83,41,186);stop-opacity:1"/><stop offset="0.14" style="stop-color:rgb(53,99,210);stop-opacity:1"/><stop offset="0.25" style="stop-color:rgb(30,145,230);stop-opacity:1"/><stop offset="0.35" style="stop-color:rgb(14,178,243);stop-opacity:1"/><stop offset="0.44" style="stop-color:rgb(4,199,252);stop-opacity:1"/><stop offset="0.49" style="stop-color:rgb(0,206,255);stop-opacity:1"/><stop offset="0.98" style="stop-color:rgb(0,233,150);stop-opacity:1"/><stop offset="1" style="stop-color:rgb(0,233,150);stop-opacity:1"/></linearGradient>        <linearGradient id="_Linear8" x1="0" y1="0" x2="1" y2="0" gradientUnits="userSpaceOnUse" gradientTransform="matrix(592.63,0,0,592.63,11.67,29.17)"><stop offset="0" style="stop-color:rgb(85,36,184);stop-opacity:1"/><stop offset="0.01" style="stop-color:rgb(83,41,186);stop-opacity:1"/><stop offset="0.14" style="stop-color:rgb(53,99,210);stop-opacity:1"/><stop offset="0.25" style="stop-color:rgb(30,145,230);stop-opacity:1"/><stop offset="0.35" style="stop-color:rgb(14,178,243);stop-opacity:1"/><stop offset="0.44" style="stop-color:rgb(4,199,252);stop-opacity:1"/><stop offset="0.49" style="stop-color:rgb(0,206,255);stop-opacity:1"/><stop offset="0.98" style="stop-color:rgb(0,233,150);stop-opacity:1"/><stop offset="1" style="stop-color:rgb(0,233,150);stop-opacity:1"/></linearGradient>        <linearGradient id="_Linear9" x1="0" y1="0" x2="1" y2="0" gradientUnits="userSpaceOnUse" gradientTransform="matrix(592.63,0,0,592.63,11.67,58.9)"><stop offset="0" style="stop-color:rgb(85,36,184);stop-opacity:1"/><stop offset="0.01" style="stop-color:rgb(83,41,186);stop-opacity:1"/><stop offset="0.14" style="stop-color:rgb(53,99,210);stop-opacity:1"/><stop offset="0.25" style="stop-color:rgb(30,145,230);stop-opacity:1"/><stop offset="0.35" style="stop-color:rgb(14,178,243);stop-opacity:1"/><stop offset="0.44" style="stop-color:rgb(4,199,252);stop-opacity:1"/><stop offset="0.49" style="stop-color:rgb(0,206,255);stop-opacity:1"/><stop offset="0.98" style="stop-color:rgb(0,233,150);stop-opacity:1"/><stop offset="1" style="stop-color:rgb(0,233,150);stop-opacity:1"/></linearGradient>        <linearGradient id="_Linear10" x1="0" y1="0" x2="1" y2="0" gradientUnits="userSpaceOnUse" gradientTransform="matrix(592.63,0,0,592.63,11.67,58.9)"><stop offset="0" style="stop-color:rgb(85,36,184);stop-opacity:1"/><stop offset="0.01" style="stop-color:rgb(83,41,186);stop-opacity:1"/><stop offset="0.14" style="stop-color:rgb(53,99,210);stop-opacity:1"/><stop offset="0.25" style="stop-color:rgb(30,145,230);stop-opacity:1"/><stop offset="0.35" style="stop-color:rgb(14,178,243);stop-opacity:1"/><stop offset="0.44" style="stop-color:rgb(4,199,252);stop-opacity:1"/><stop offset="0.49" style="stop-color:rgb(0,206,255);stop-opacity:1"/><stop offset="0.98" style="stop-color:rgb(0,233,150);stop-opacity:1"/><stop offset="1" style="stop-color:rgb(0,233,150);stop-opacity:1"/></linearGradient>        <linearGradient id="_Linear11" x1="0" y1="0" x2="1" y2="0" gradientUnits="userSpaceOnUse" gradientTransform="matrix(592.63,0,0,592.63,11.67,64.8)"><stop offset="0" style="stop-color:rgb(85,36,184);stop-opacity:1"/><stop offset="0.01" style="stop-color:rgb(83,41,186);stop-opacity:1"/><stop offset="0.14" style="stop-color:rgb(53,99,210);stop-opacity:1"/><stop offset="0.25" style="stop-color:rgb(30,145,230);stop-opacity:1"/><stop offset="0.35" style="stop-color:rgb(14,178,243);stop-opacity:1"/><stop offset="0.44" style="stop-color:rgb(4,199,252);stop-opacity:1"/><stop offset="0.49" style="stop-color:rgb(0,206,255);stop-opacity:1"/><stop offset="0.98" style="stop-color:rgb(0,233,150);stop-opacity:1"/><stop offset="1" style="stop-color:rgb(0,233,150);stop-opacity:1"/></linearGradient>        <linearGradient id="_Linear12" x1="0" y1="0" x2="1" y2="0" gradientUnits="userSpaceOnUse" gradientTransform="matrix(592.64,0,0,592.64,150.67,235.7)"><stop offset="0" style="stop-color:rgb(85,36,184);stop-opacity:1"/><stop offset="0.01" style="stop-color:rgb(83,41,186);stop-opacity:1"/><stop offset="0.14" style="stop-color:rgb(53,99,210);stop-opacity:1"/><stop offset="0.25" style="stop-color:rgb(30,145,230);stop-opacity:1"/><stop offset="0.35" style="stop-color:rgb(14,178,243);stop-opacity:1"/><stop offset="0.44" style="stop-color:rgb(4,199,252);stop-opacity:1"/><stop offset="0.49" style="stop-color:rgb(0,206,255);stop-opacity:1"/><stop offset="0.98" style="stop-color:rgb(0,233,150);stop-opacity:1"/><stop offset="1" style="stop-color:rgb(0,233,150);stop-opacity:1"/></linearGradient>        <linearGradient id="_Linear13" x1="0" y1="0" x2="1" y2="0" gradientUnits="userSpaceOnUse" gradientTransform="matrix(592.64,0,0,592.64,150.67,234.77)"><stop offset="0" style="stop-color:rgb(85,36,184);stop-opacity:1"/><stop offset="0.01" style="stop-color:rgb(83,41,186);stop-opacity:1"/><stop offset="0.14" style="stop-color:rgb(53,99,210);stop-opacity:1"/><stop offset="0.25" style="stop-color:rgb(30,145,230);stop-opacity:1"/><stop offset="0.35" style="stop-color:rgb(14,178,243);stop-opacity:1"/><stop offset="0.44" style="stop-color:rgb(4,199,252);stop-opacity:1"/><stop offset="0.49" style="stop-color:rgb(0,206,255);stop-opacity:1"/><stop offset="0.98" style="stop-color:rgb(0,233,150);stop-opacity:1"/><stop offset="1" style="stop-color:rgb(0,233,150);stop-opacity:1"/></linearGradient>        <linearGradient id="_Linear14" x1="0" y1="0" x2="1" y2="0" gradientUnits="userSpaceOnUse" gradientTransform="matrix(592.64,0,0,592.64,150.67,315.22)"><stop offset="0" style="stop-color:rgb(85,36,184);stop-opacity:1"/><stop offset="0.01" style="stop-color:rgb(83,41,186);stop-opacity:1"/><stop offset="0.14" style="stop-color:rgb(53,99,210);stop-opacity:1"/><stop offset="0.25" style="stop-color:rgb(30,145,230);stop-opacity:1"/><stop offset="0.35" style="stop-color:rgb(14,178,243);stop-opacity:1"/><stop offset="0.44" style="stop-color:rgb(4,199,252);stop-opacity:1"/><stop offset="0.49" style="stop-color:rgb(0,206,255);stop-opacity:1"/><stop offset="0.98" style="stop-color:rgb(0,233,150);stop-opacity:1"/><stop offset="1" style="stop-color:rgb(0,233,150);stop-opacity:1"/></linearGradient>        <linearGradient id="_Linear15" x1="0" y1="0" x2="1" y2="0" gradientUnits="userSpaceOnUse" gradientTransform="matrix(592.64,0,0,592.64,150.67,314.73)"><stop offset="0" style="stop-color:rgb(85,36,184);stop-opacity:1"/><stop offset="0.01" style="stop-color:rgb(83,41,186);stop-opacity:1"/><stop offset="0.14" style="stop-color:rgb(53,99,210);stop-opacity:1"/><stop offset="0.25" style="stop-color:rgb(30,145,230);stop-opacity:1"/><stop offset="0.35" style="stop-color:rgb(14,178,243);stop-opacity:1"/><stop offset="0.44" style="stop-color:rgb(4,199,252);stop-opacity:1"/><stop offset="0.49" style="stop-color:rgb(0,206,255);stop-opacity:1"/><stop offset="0.98" style="stop-color:rgb(0,233,150);stop-opacity:1"/><stop offset="1" style="stop-color:rgb(0,233,150);stop-opacity:1"/></linearGradient>        <linearGradient id="_Linear16" x1="0" y1="0" x2="1" y2="0" gradientUnits="userSpaceOnUse" gradientTransform="matrix(592.64,0,0,592.64,150.67,317.96)"><stop offset="0" style="stop-color:rgb(85,36,184);stop-opacity:1"/><stop offset="0.01" style="stop-color:rgb(83,41,186);stop-opacity:1"/><stop offset="0.14" style="stop-color:rgb(53,99,210);stop-opacity:1"/><stop offset="0.25" style="stop-color:rgb(30,145,230);stop-opacity:1"/><stop offset="0.35" style="stop-color:rgb(14,178,243);stop-opacity:1"/><stop offset="0.44" style="stop-color:rgb(4,199,252);stop-opacity:1"/><stop offset="0.49" style="stop-color:rgb(0,206,255);stop-opacity:1"/><stop offset="0.98" style="stop-color:rgb(0,233,150);stop-opacity:1"/><stop offset="1" style="stop-color:rgb(0,233,150);stop-opacity:1"/></linearGradient>        <linearGradient id="_Linear17" x1="0" y1="0" x2="1" y2="0" gradientUnits="userSpaceOnUse" gradientTransform="matrix(592.64,0,0,592.64,150.67,317.93)"><stop offset="0" style="stop-color:rgb(85,36,184);stop-opacity:1"/><stop offset="0.01" style="stop-color:rgb(83,41,186);stop-opacity:1"/><stop offset="0.14" style="stop-color:rgb(53,99,210);stop-opacity:1"/><stop offset="0.25" style="stop-color:rgb(30,145,230);stop-opacity:1"/><stop offset="0.35" style="stop-color:rgb(14,178,243);stop-opacity:1"/><stop offset="0.44" style="stop-color:rgb(4,199,252);stop-opacity:1"/><stop offset="0.49" style="stop-color:rgb(0,206,255);stop-opacity:1"/><stop offset="0.98" style="stop-color:rgb(0,233,150);stop-opacity:1"/><stop offset="1" style="stop-color:rgb(0,233,150);stop-opacity:1"/></linearGradient>        <linearGradient id="_Linear18" x1="0" y1="0" x2="1" y2="0" gradientUnits="userSpaceOnUse" gradientTransform="matrix(592.64,0,0,592.64,150.67,324.03)"><stop offset="0" style="stop-color:rgb(85,36,184);stop-opacity:1"/><stop offset="0.01" style="stop-color:rgb(83,41,186);stop-opacity:1"/><stop offset="0.14" style="stop-color:rgb(53,99,210);stop-opacity:1"/><stop offset="0.25" style="stop-color:rgb(30,145,230);stop-opacity:1"/><stop offset="0.35" style="stop-color:rgb(14,178,243);stop-opacity:1"/><stop offset="0.44" style="stop-color:rgb(4,199,252);stop-opacity:1"/><stop offset="0.49" style="stop-color:rgb(0,206,255);stop-opacity:1"/><stop offset="0.98" style="stop-color:rgb(0,233,150);stop-opacity:1"/><stop offset="1" style="stop-color:rgb(0,233,150);stop-opacity:1"/></linearGradient>        <linearGradient id="_Linear19" x1="0" y1="0" x2="1" y2="0" gradientUnits="userSpaceOnUse" gradientTransform="matrix(592.64,0,0,592.64,150.67,315.22)"><stop offset="0" style="stop-color:rgb(85,36,184);stop-opacity:1"/><stop offset="0.01" style="stop-color:rgb(83,41,186);stop-opacity:1"/><stop offset="0.14" style="stop-color:rgb(53,99,210);stop-opacity:1"/><stop offset="0.25" style="stop-color:rgb(30,145,230);stop-opacity:1"/><stop offset="0.35" style="stop-color:rgb(14,178,243);stop-opacity:1"/><stop offset="0.44" style="stop-color:rgb(4,199,252);stop-opacity:1"/><stop offset="0.49" style="stop-color:rgb(0,206,255);stop-opacity:1"/><stop offset="0.98" style="stop-color:rgb(0,233,150);stop-opacity:1"/><stop offset="1" style="stop-color:rgb(0,233,150);stop-opacity:1"/></linearGradient>        <linearGradient id="_Linear20" x1="0" y1="0" x2="1" y2="0" gradientUnits="userSpaceOnUse" gradientTransform="matrix(592.64,0,0,592.64,150.67,317.73)"><stop offset="0" style="stop-color:rgb(85,36,184);stop-opacity:1"/><stop offset="0.01" style="stop-color:rgb(83,41,186);stop-opacity:1"/><stop offset="0.14" style="stop-color:rgb(53,99,210);stop-opacity:1"/><stop offset="0.25" style="stop-color:rgb(30,145,230);stop-opacity:1"/><stop offset="0.35" style="stop-color:rgb(14,178,243);stop-opacity:1"/><stop offset="0.44" style="stop-color:rgb(4,199,252);stop-opacity:1"/><stop offset="0.49" style="stop-color:rgb(0,206,255);stop-opacity:1"/><stop offset="0.98" style="stop-color:rgb(0,233,150);stop-opacity:1"/><stop offset="1" style="stop-color:rgb(0,233,150);stop-opacity:1"/></linearGradient>        <linearGradient id="_Linear21" x1="0" y1="0" x2="1" y2="0" gradientUnits="userSpaceOnUse" gradientTransform="matrix(592.64,0,0,592.64,150.67,320.34)"><stop offset="0" style="stop-color:rgb(85,36,184);stop-opacity:1"/><stop offset="0.01" style="stop-color:rgb(83,41,186);stop-opacity:1"/><stop offset="0.14" style="stop-color:rgb(53,99,210);stop-opacity:1"/><stop offset="0.25" style="stop-color:rgb(30,145,230);stop-opacity:1"/><stop offset="0.35" style="stop-color:rgb(14,178,243);stop-opacity:1"/><stop offset="0.44" style="stop-color:rgb(4,199,252);stop-opacity:1"/><stop offset="0.49" style="stop-color:rgb(0,206,255);stop-opacity:1"/><stop offset="0.98" style="stop-color:rgb(0,233,150);stop-opacity:1"/><stop offset="1" style="stop-color:rgb(0,233,150);stop-opacity:1"/></linearGradient>        <linearGradient id="_Linear22" x1="0" y1="0" x2="1" y2="0" gradientUnits="userSpaceOnUse" gradientTransform="matrix(592.64,0,0,592.64,150.67,317.96)"><stop offset="0" style="stop-color:rgb(85,36,184);stop-opacity:1"/><stop offset="0.01" style="stop-color:rgb(83,41,186);stop-opacity:1"/><stop offset="0.14" style="stop-color:rgb(53,99,210);stop-opacity:1"/><stop offset="0.25" style="stop-color:rgb(30,145,230);stop-opacity:1"/><stop offset="0.35" style="stop-color:rgb(14,178,243);stop-opacity:1"/><stop offset="0.44" style="stop-color:rgb(4,199,252);stop-opacity:1"/><stop offset="0.49" style="stop-color:rgb(0,206,255);stop-opacity:1"/><stop offset="0.98" style="stop-color:rgb(0,233,150);stop-opacity:1"/><stop offset="1" style="stop-color:rgb(0,233,150);stop-opacity:1"/></linearGradient>        <linearGradient id="_Linear23" x1="0" y1="0" x2="1" y2="0" gradientUnits="userSpaceOnUse" gradientTransform="matrix(592.64,0,0,592.64,150.67,317.93)"><stop offset="0" style="stop-color:rgb(85,36,184);stop-opacity:1"/><stop offset="0.01" style="stop-color:rgb(83,41,186);stop-opacity:1"/><stop offset="0.14" style="stop-color:rgb(53,99,210);stop-opacity:1"/><stop offset="0.25" style="stop-color:rgb(30,145,230);stop-opacity:1"/><stop offset="0.35" style="stop-color:rgb(14,178,243);stop-opacity:1"/><stop offset="0.44" style="stop-color:rgb(4,199,252);stop-opacity:1"/><stop offset="0.49" style="stop-color:rgb(0,206,255);stop-opacity:1"/><stop offset="0.98" style="stop-color:rgb(0,233,150);stop-opacity:1"/><stop offset="1" style="stop-color:rgb(0,233,150);stop-opacity:1"/></linearGradient>        <linearGradient id="_Linear24" x1="0" y1="0" x2="1" y2="0" gradientUnits="userSpaceOnUse" gradientTransform="matrix(592.64,0,0,592.64,150.67,315.81)"><stop offset="0" style="stop-color:rgb(85,36,184);stop-opacity:1"/><stop offset="0.01" style="stop-color:rgb(83,41,186);stop-opacity:1"/><stop offset="0.14" style="stop-color:rgb(53,99,210);stop-opacity:1"/><stop offset="0.25" style="stop-color:rgb(30,145,230);stop-opacity:1"/><stop offset="0.35" style="stop-color:rgb(14,178,243);stop-opacity:1"/><stop offset="0.44" style="stop-color:rgb(4,199,252);stop-opacity:1"/><stop offset="0.49" style="stop-color:rgb(0,206,255);stop-opacity:1"/><stop offset="0.98" style="stop-color:rgb(0,233,150);stop-opacity:1"/><stop offset="1" style="stop-color:rgb(0,233,150);stop-opacity:1"/></linearGradient>        <linearGradient id="_Linear25" x1="0" y1="0" x2="1" y2="0" gradientUnits="userSpaceOnUse" gradientTransform="matrix(592.64,0,0,592.64,150.67,324.03)"><stop offset="0" style="stop-color:rgb(85,36,184);stop-opacity:1"/><stop offset="0.01" style="stop-color:rgb(83,41,186);stop-opacity:1"/><stop offset="0.14" style="stop-color:rgb(53,99,210);stop-opacity:1"/><stop offset="0.25" style="stop-color:rgb(30,145,230);stop-opacity:1"/><stop offset="0.35" style="stop-color:rgb(14,178,243);stop-opacity:1"/><stop offset="0.44" style="stop-color:rgb(4,199,252);stop-opacity:1"/><stop offset="0.49" style="stop-color:rgb(0,206,255);stop-opacity:1"/><stop offset="0.98" style="stop-color:rgb(0,233,150);stop-opacity:1"/><stop offset="1" style="stop-color:rgb(0,233,150);stop-opacity:1"/></linearGradient>        <linearGradient id="_Linear26" x1="0" y1="0" x2="1" y2="0" gradientUnits="userSpaceOnUse" gradientTransform="matrix(592.64,0,0,592.64,150.67,315.22)"><stop offset="0" style="stop-color:rgb(85,36,184);stop-opacity:1"/><stop offset="0.01" style="stop-color:rgb(83,41,186);stop-opacity:1"/><stop offset="0.14" style="stop-color:rgb(53,99,210);stop-opacity:1"/><stop offset="0.25" style="stop-color:rgb(30,145,230);stop-opacity:1"/><stop offset="0.35" style="stop-color:rgb(14,178,243);stop-opacity:1"/><stop offset="0.44" style="stop-color:rgb(4,199,252);stop-opacity:1"/><stop offset="0.49" style="stop-color:rgb(0,206,255);stop-opacity:1"/><stop offset="0.98" style="stop-color:rgb(0,233,150);stop-opacity:1"/><stop offset="1" style="stop-color:rgb(0,233,150);stop-opacity:1"/></linearGradient>        <linearGradient id="_Linear27" x1="0" y1="0" x2="1" y2="0" gradientUnits="userSpaceOnUse" gradientTransform="matrix(592.64,0,0,592.64,150.67,317.73)"><stop offset="0" style="stop-color:rgb(85,36,184);stop-opacity:1"/><stop offset="0.01" style="stop-color:rgb(83,41,186);stop-opacity:1"/><stop offset="0.14" style="stop-color:rgb(53,99,210);stop-opacity:1"/><stop offset="0.25" style="stop-color:rgb(30,145,230);stop-opacity:1"/><stop offset="0.35" style="stop-color:rgb(14,178,243);stop-opacity:1"/><stop offset="0.44" style="stop-color:rgb(4,199,252);stop-opacity:1"/><stop offset="0.49" style="stop-color:rgb(0,206,255);stop-opacity:1"/><stop offset="0.98" style="stop-color:rgb(0,233,150);stop-opacity:1"/><stop offset="1" style="stop-color:rgb(0,233,150);stop-opacity:1"/></linearGradient>        <linearGradient id="_Linear28" x1="0" y1="0" x2="1" y2="0" gradientUnits="userSpaceOnUse" gradientTransform="matrix(592.64,0,0,592.64,150.67,318.06)"><stop offset="0" style="stop-color:rgb(85,36,184);stop-opacity:1"/><stop offset="0.01" style="stop-color:rgb(83,41,186);stop-opacity:1"/><stop offset="0.14" style="stop-color:rgb(53,99,210);stop-opacity:1"/><stop offset="0.25" style="stop-color:rgb(30,145,230);stop-opacity:1"/><stop offset="0.35" style="stop-color:rgb(14,178,243);stop-opacity:1"/><stop offset="0.44" style="stop-color:rgb(4,199,252);stop-opacity:1"/><stop offset="0.49" style="stop-color:rgb(0,206,255);stop-opacity:1"/><stop offset="0.98" style="stop-color:rgb(0,233,150);stop-opacity:1"/><stop offset="1" style="stop-color:rgb(0,233,150);stop-opacity:1"/></linearGradient>        <linearGradient id="_Linear29" x1="0" y1="0" x2="1" y2="0" gradientUnits="userSpaceOnUse" gradientTransform="matrix(592.64,0,0,592.64,150.67,317.93)"><stop offset="0" style="stop-color:rgb(85,36,184);stop-opacity:1"/><stop offset="0.01" style="stop-color:rgb(83,41,186);stop-opacity:1"/><stop offset="0.14" style="stop-color:rgb(53,99,210);stop-opacity:1"/><stop offset="0.25" style="stop-color:rgb(30,145,230);stop-opacity:1"/><stop offset="0.35" style="stop-color:rgb(14,178,243);stop-opacity:1"/><stop offset="0.44" style="stop-color:rgb(4,199,252);stop-opacity:1"/><stop offset="0.49" style="stop-color:rgb(0,206,255);stop-opacity:1"/><stop offset="0.98" style="stop-color:rgb(0,233,150);stop-opacity:1"/><stop offset="1" style="stop-color:rgb(0,233,150);stop-opacity:1"/></linearGradient>        <linearGradient id="_Linear30" x1="0" y1="0" x2="1" y2="0" gradientUnits="userSpaceOnUse" gradientTransform="matrix(592.64,0,0,592.64,150.67,315.81)"><stop offset="0" style="stop-color:rgb(85,36,184);stop-opacity:1"/><stop offset="0.01" style="stop-color:rgb(83,41,186);stop-opacity:1"/><stop offset="0.14" style="stop-color:rgb(53,99,210);stop-opacity:1"/><stop offset="0.25" style="stop-color:rgb(30,145,230);stop-opacity:1"/><stop offset="0.35" style="stop-color:rgb(14,178,243);stop-opacity:1"/><stop offset="0.44" style="stop-color:rgb(4,199,252);stop-opacity:1"/><stop offset="0.49" style="stop-color:rgb(0,206,255);stop-opacity:1"/><stop offset="0.98" style="stop-color:rgb(0,233,150);stop-opacity:1"/><stop offset="1" style="stop-color:rgb(0,233,150);stop-opacity:1"/></linearGradient>        <linearGradient id="_Linear31" x1="0" y1="0" x2="1" y2="0" gradientUnits="userSpaceOnUse" gradientTransform="matrix(592.64,0,0,592.64,150.67,324.03)"><stop offset="0" style="stop-color:rgb(85,36,184);stop-opacity:1"/><stop offset="0.01" style="stop-color:rgb(83,41,186);stop-opacity:1"/><stop offset="0.14" style="stop-color:rgb(53,99,210);stop-opacity:1"/><stop offset="0.25" style="stop-color:rgb(30,145,230);stop-opacity:1"/><stop offset="0.35" style="stop-color:rgb(14,178,243);stop-opacity:1"/><stop offset="0.44" style="stop-color:rgb(4,199,252);stop-opacity:1"/><stop offset="0.49" style="stop-color:rgb(0,206,255);stop-opacity:1"/><stop offset="0.98" style="stop-color:rgb(0,233,150);stop-opacity:1"/><stop offset="1" style="stop-color:rgb(0,233,150);stop-opacity:1"/></linearGradient>        <linearGradient id="_Linear32" x1="0" y1="0" x2="1" y2="0" gradientUnits="userSpaceOnUse" gradientTransform="matrix(592.64,0,0,592.64,150.67,315.14)"><stop offset="0" style="stop-color:rgb(85,36,184);stop-opacity:1"/><stop offset="0.01" style="stop-color:rgb(83,41,186);stop-opacity:1"/><stop offset="0.14" style="stop-color:rgb(53,99,210);stop-opacity:1"/><stop offset="0.25" style="stop-color:rgb(30,145,230);stop-opacity:1"/><stop offset="0.35" style="stop-color:rgb(14,178,243);stop-opacity:1"/><stop offset="0.44" style="stop-color:rgb(4,199,252);stop-opacity:1"/><stop offset="0.49" style="stop-color:rgb(0,206,255);stop-opacity:1"/><stop offset="0.98" style="stop-color:rgb(0,233,150);stop-opacity:1"/><stop offset="1" style="stop-color:rgb(0,233,150);stop-opacity:1"/></linearGradient>        <linearGradient id="_Linear33" x1="0" y1="0" x2="1" y2="0" gradientUnits="userSpaceOnUse" gradientTransform="matrix(592.64,0,0,592.64,150.67,317.93)"><stop offset="0" style="stop-color:rgb(85,36,184);stop-opacity:1"/><stop offset="0.01" style="stop-color:rgb(83,41,186);stop-opacity:1"/><stop offset="0.14" style="stop-color:rgb(53,99,210);stop-opacity:1"/><stop offset="0.25" style="stop-color:rgb(30,145,230);stop-opacity:1"/><stop offset="0.35" style="stop-color:rgb(14,178,243);stop-opacity:1"/><stop offset="0.44" style="stop-color:rgb(4,199,252);stop-opacity:1"/><stop offset="0.49" style="stop-color:rgb(0,206,255);stop-opacity:1"/><stop offset="0.98" style="stop-color:rgb(0,233,150);stop-opacity:1"/><stop offset="1" style="stop-color:rgb(0,233,150);stop-opacity:1"/></linearGradient>        <linearGradient id="_Linear34" x1="0" y1="0" x2="1" y2="0" gradientUnits="userSpaceOnUse" gradientTransform="matrix(592.64,0,0,592.64,150.67,315.81)"><stop offset="0" style="stop-color:rgb(85,36,184);stop-opacity:1"/><stop offset="0.01" style="stop-color:rgb(83,41,186);stop-opacity:1"/><stop offset="0.14" style="stop-color:rgb(53,99,210);stop-opacity:1"/><stop offset="0.25" style="stop-color:rgb(30,145,230);stop-opacity:1"/><stop offset="0.35" style="stop-color:rgb(14,178,243);stop-opacity:1"/><stop offset="0.44" style="stop-color:rgb(4,199,252);stop-opacity:1"/><stop offset="0.49" style="stop-color:rgb(0,206,255);stop-opacity:1"/><stop offset="0.98" style="stop-color:rgb(0,233,150);stop-opacity:1"/><stop offset="1" style="stop-color:rgb(0,233,150);stop-opacity:1"/></linearGradient>    </defs></svg>