<?xml version="1.0" encoding="UTF-8" standalone="no"?><!DOCTYPE svg PUBLIC "-//W3C//DTD SVG 1.1//EN" "http://www.w3.org/Graphics/SVG/1.1/DTD/svg11.dtd"><svg width="100%" height="100%" viewBox="0 0 1024 512" version="1.1" xmlns="http://www.w3.org/2000/svg" xmlns:xlink="http://www.w3.org/1999/xlink" xml:space="preserve" style="fill-rule:evenodd;clip-rule:evenodd;stroke-linejoin:round;stroke-miterlimit:2;"><title>Inveslar</title><desc>Inveslar is an online real estate investment platform that puts real estate investment available to everyone.Investing selects properties that, after a thorough and detailed analysis, are considered a strategic investment in a quality asset, enjoy added value and offer an interesting return.</desc>    <g transform="matrix(1.65316,0,0,1.65316,2,-528.425)">        <g transform="matrix(2.12765,0,0,2.12765,-204.637,-48.9685)">            <g transform="matrix(36,0,0,36,95,207)">                <rect x="0.059" y="-0.709" width="0.109" height="0.722" style="fill:rgb(28,28,27);fill-rule:nonzero;"/>            </g>            <g transform="matrix(36,0,0,36,105.512,207)">                <path d="M0.628,0.013l0.013,-0.722l-0.12,0l0,0.529l-0.283,-0.529l-0.153,0l0,0.735l0.12,0l0,-0.537l0.298,0.524l0.125,0Z" style="fill:rgb(28,28,27);fill-rule:nonzero;"/>            </g>            <g transform="matrix(36,0,0,36,133.052,207)">                <path d="M0.312,-0.157l-0.172,-0.552l-0.13,0l0.251,0.722l0.096,0l0.268,-0.722l-0.127,0l-0.186,0.552Z" style="fill:rgb(28,28,27);fill-rule:nonzero;"/>            </g>            <g transform="matrix(36,0,0,36,157.316,207)">                <path d="M0.471,0.013l0,-0.125l-0.266,0l0,-0.188l0.275,0l0,-0.096l-0.275,0l0,-0.201l0.279,0l0,-0.112l-0.412,0l0,0.722l0.399,0Z" style="fill:rgb(28,28,27);fill-rule:nonzero;"/>            </g>            <g transform="matrix(36,0,0,36,178.268,207)">                <path d="M0.551,-0.517c-0.016,-0.079 -0.081,-0.207 -0.248,-0.207c-0.132,0 -0.241,0.098 -0.241,0.217c0,0.106 0.072,0.177 0.18,0.199l0.1,0.021c0.061,0.013 0.095,0.05 0.095,0.096c0,0.055 -0.044,0.098 -0.129,0.098c-0.102,0 -0.155,-0.068 -0.162,-0.142l-0.112,0.032c0.011,0.102 0.094,0.218 0.274,0.218c0.162,0 0.251,-0.105 0.251,-0.215c0,-0.1 -0.067,-0.179 -0.192,-0.204l-0.102,-0.021c-0.055,-0.012 -0.083,-0.046 -0.083,-0.091c0,-0.054 0.05,-0.102 0.122,-0.102c0.095,0 0.132,0.065 0.139,0.109l0.108,-0.008Z" style="fill:rgb(28,28,27);fill-rule:nonzero;"/>            </g>            <g transform="matrix(36,0,0,36,202.652,207)">                <path d="M0.426,0.026l0,-0.114l-0.221,0l0,-0.621l-0.12,0l0,0.735l0.341,0Z" style="fill:rgb(28,28,27);fill-rule:nonzero;"/>            </g>            <g transform="matrix(36,0,0,36,220.28,207)">                <path d="M0.531,0.013l0.118,0l-0.224,-0.722l-0.139,0l-0.224,0.722l0.127,0l0.027,-0.113l0.287,0l0.028,0.113Zm-0.178,-0.566l0.108,0.355l-0.216,0l0.108,-0.355Z" style="fill:rgb(28,28,27);fill-rule:nonzero;"/>            </g>            <g transform="matrix(36,0,0,36,245.876,207)">                <path d="M0.443,0l0.136,0l-0.16,-0.24c0.099,-0.024 0.16,-0.153 0.16,-0.254c0,-0.12 -0.085,-0.215 -0.222,-0.215l-0.272,0l0,0.709l0.121,0l0,-0.228l0.088,0l0.149,0.228Zm-0.237,-0.334l0,-0.269l0.129,0c0.074,0 0.122,0.043 0.122,0.109c0,0.065 -0.048,0.16 -0.122,0.16l-0.129,0Z" style="fill:rgb(28,28,27);fill-rule:nonzero;"/>            </g>        </g>        <g transform="matrix(3.79578,0,0,3.79578,-347.626,-288.308)">            <g>                <g transform="matrix(30,0,0,30,91.1921,208.658)">                    <path d="M0.524,-0.561l0,-0.148l-0.511,0l0,0.148l0.169,0l0,0.587l0.172,0l0,-0.587l0.17,0Z" style="fill:rgb(28,28,27);fill-rule:nonzero;"/>                </g>                <g transform="matrix(30,0,0,30,178.921,237)">                    <path d="M0.489,-0.561l0,-0.148l-0.476,0l0,0.148l0.16,0l0,0.57l0.155,0l0,-0.57l0.161,0Z" style="fill:rgb(28,28,27);fill-rule:nonzero;"/>                </g>                <g transform="matrix(30,0,0,30,109.402,208.658)">                    <path d="M0.562,0.026l0,-0.735l-0.165,0l0,0.293l-0.253,0l0,-0.293l-0.164,0l0,0.735l0.164,0l0,-0.303l0.253,0l0,0.303l0.165,0Z" style="fill:rgb(28,28,27);fill-rule:nonzero;"/>                </g>                <g transform="matrix(30,0,0,30,131.722,208.658)">                    <path d="M0.4,0.026l0,-0.138l-0.274,0l0,-0.162l0.279,0l0,-0.135l-0.279,0l0,-0.162l0.274,0l0,-0.138l-0.447,0l0,0.735l0.447,0Z" style="fill:rgb(28,28,27);fill-rule:nonzero;"/>                </g>                <g transform="matrix(30,0,0,30,152.79,208.844)">                    <path d="M0.376,0.024c0.149,0 0.265,-0.1 0.265,-0.271l0,-0.462l-0.155,0l0,0.455c0,0.1 -0.059,0.155 -0.11,0.155c-0.08,0 -0.145,-0.055 -0.145,-0.155l0,-0.455l-0.154,0l0,0.462c0,0.171 0.151,0.271 0.299,0.271Z" style="fill:rgb(28,28,27);fill-rule:nonzero;"/>                </g>                <g transform="matrix(34.1312,0,0,31.1147,172.985,209.449)">                    <path d="M0.428,0l0.159,0l-0.129,-0.233c0.099,-0.024 0.121,-0.143 0.121,-0.244c0,-0.12 -0.085,-0.232 -0.222,-0.232l-0.272,0l0,0.709l0.152,0l0,-0.204l0.057,0l0.134,0.204Zm-0.191,-0.318l0,-0.26l0.098,0c0.074,0 0.122,0.052 0.122,0.118c0,0.065 -0.048,0.142 -0.122,0.142l-0.098,0Z" style="fill:rgb(28,28,27);fill-rule:nonzero;"/>                </g>                <g transform="matrix(34.1312,0,0,31.1147,216.454,237.45)">                    <path d="M0.428,0l0.159,0l-0.129,-0.233c0.099,-0.024 0.121,-0.143 0.121,-0.244c0,-0.12 -0.085,-0.232 -0.222,-0.232l-0.272,0l0,0.709l0.152,0l0,-0.204l0.057,0l0.134,0.204Zm-0.191,-0.318l0,-0.26l0.098,0c0.074,0 0.122,0.052 0.122,0.118c0,0.065 -0.048,0.142 -0.122,0.142l-0.098,0Z" style="fill:rgb(28,28,27);fill-rule:nonzero;"/>                </g>                <g transform="matrix(34.0979,0,0,31.2244,200.023,207.804)">                    <path d="M-0.108,-0.656l0,0.709l0.262,0c0.132,0 0.22,-0.082 0.22,-0.196c0,-0.084 -0.052,-0.149 -0.127,-0.169c0.061,-0.022 0.105,-0.078 0.105,-0.153c0,-0.111 -0.08,-0.191 -0.216,-0.191l-0.244,0Zm0.119,0.3l0,-0.198l0.106,0c0.073,0 0.115,0.039 0.115,0.099c0,0.059 -0.042,0.099 -0.112,0.099l-0.109,0Zm0,0.307l0,-0.206l0.126,0c0.074,0 0.115,0.043 0.115,0.104c0,0.063 -0.047,0.102 -0.119,0.102l-0.122,0Z" style="fill:rgb(28,28,27);fill-rule:nonzero;"/>                </g>                <g transform="matrix(30.882,0,0,31.1147,212.46,209.449)">                    <path d="M0.51,0l0.191,0l-0.276,-0.709l-0.139,0l-0.276,0.709l0.195,0l0.015,-0.085l0.266,0l0.024,0.085Zm-0.157,-0.503l0.099,0.29l-0.19,0l0.091,-0.29Z" style="fill:rgb(28,28,27);fill-rule:nonzero;"/>                </g>                <g transform="matrix(30,0,0,30,238.58,207)">                    <path d="M0.504,0.088l0,-0.736l-0.164,0l0,0.477l-0.26,-0.477l-0.179,0l0,0.736l0.172,0l0,-0.467l0.262,0.467l0.169,0Z" style="fill:rgb(28,28,27);fill-rule:nonzero;"/>                </g>                <g transform="matrix(30,0,0,30,95,237)">                    <rect x="0.059" y="-0.709" width="0.157" height="0.709" style="fill:rgb(28,28,27);fill-rule:nonzero;"/>                </g>                <g transform="matrix(30,0,0,30,103.76,237)">                    <path d="M0.645,0l0,-0.709l-0.155,0l0,0.459l-0.252,-0.459l-0.179,0l0,0.709l0.164,0l0,-0.458l0.253,0.458l0.169,0Z" style="fill:rgb(28,28,27);fill-rule:nonzero;"/>                </g>                <g transform="matrix(30,0,0,30,126.71,237)">                    <path d="M0.268,-0.21l-0.163,-0.499l-0.165,0l0.255,0.709l0.14,0l0.259,-0.709l-0.171,0l-0.155,0.499Z" style="fill:rgb(28,28,27);fill-rule:nonzero;"/>                </g>                <g transform="matrix(30,0,0,30,146.93,237)">                    <path d="M0.409,0l0,-0.138l-0.265,0l0,-0.162l0.27,0l0,-0.109l-0.27,0l0,-0.179l0.265,0l0,-0.121l-0.429,0l0,0.709l0.429,0Z" style="fill:rgb(28,28,27);fill-rule:nonzero;"/>                </g>                <g transform="matrix(30,0,0,30,164.39,237)">                    <path d="M0.436,-0.509c-0.009,-0.108 -0.071,-0.215 -0.238,-0.215c-0.132,0 -0.254,0.054 -0.25,0.217c0.002,0.106 0.081,0.177 0.189,0.199c0,0 0.167,0.016 0.154,0.099c-0.006,0.039 -0.003,0.098 -0.088,0.098c-0.102,0 -0.111,-0.05 -0.118,-0.124l-0.174,-0.003c0.011,0.102 0.077,0.253 0.292,0.253c0.162,0 0.242,-0.105 0.242,-0.215c0,-0.1 -0.05,-0.179 -0.175,-0.204l-0.093,-0.039c-0.055,-0.012 -0.083,-0.028 -0.083,-0.073c0,-0.054 0.033,-0.094 0.105,-0.093c0.061,0.001 0.07,0.056 0.077,0.1l0.16,0Z" style="fill:rgb(28,28,27);fill-rule:nonzero;"/>                </g>                <g transform="matrix(30,0,0,30,240.786,237)">                    <path d="M0.436,-0.509c-0.009,-0.108 -0.071,-0.215 -0.238,-0.215c-0.132,0 -0.254,0.054 -0.25,0.217c0.002,0.106 0.081,0.177 0.189,0.199c0,0 0.167,0.016 0.154,0.099c-0.006,0.039 -0.003,0.098 -0.088,0.098c-0.102,0 -0.111,-0.05 -0.118,-0.124l-0.174,-0.003c0.011,0.102 0.077,0.253 0.292,0.253c0.162,0 0.242,-0.105 0.242,-0.215c0,-0.1 -0.05,-0.179 -0.175,-0.204l-0.093,-0.039c-0.055,-0.012 -0.083,-0.028 -0.083,-0.073c0,-0.054 0.033,-0.094 0.105,-0.093c0.061,0.001 0.07,0.056 0.077,0.1l0.16,0Z" style="fill:rgb(28,28,27);fill-rule:nonzero;"/>                </g>                <g transform="matrix(31.0586,0,0,30,193.023,237)">                    <path d="M0.199,-0.355c0,-0.171 0.084,-0.23 0.203,-0.23c0.12,0 0.204,0.059 0.204,0.23c0,0.171 -0.084,0.23 -0.204,0.23c-0.119,0 -0.203,-0.059 -0.203,-0.23Zm-0.157,0c0,0.233 0.174,0.37 0.36,0.37c0.186,0 0.361,-0.137 0.361,-0.37c0,-0.232 -0.175,-0.369 -0.361,-0.369c-0.186,0 -0.36,0.137 -0.36,0.369Z" style="fill:rgb(28,28,27);fill-rule:nonzero;"/>                </g>            </g>        </g>    </g></svg>