<?xml version="1.0" encoding="UTF-8" standalone="no"?><!DOCTYPE svg PUBLIC "-//W3C//DTD SVG 1.1//EN" "http://www.w3.org/Graphics/SVG/1.1/DTD/svg11.dtd"><svg width="100%" height="100%" viewBox="0 0 1024 512" version="1.1" xmlns="http://www.w3.org/2000/svg" xmlns:xlink="http://www.w3.org/1999/xlink" xml:space="preserve" style="fill-rule:evenodd;clip-rule:evenodd;stroke-linejoin:round;stroke-miterlimit:2;"><title>Safe as Houses ISA</title><desc>Safe As Houses ISA allows you to acquire Loan Notes paying a fixed rate of return. The Loan Note issuers invest in property development companies that meet our very strict criteria. Our offering is designed to reduce the risk of investing in UK property. The property market’s strong past performance is not necessarily a reliable indicator of how it will perform in the future, but it remains the best performing major asset class of the last 50 years. </desc>    <g transform="matrix(1.59098,0,0,1.59098,-321.922,-269.828)">        <g transform="matrix(1.36745,-5.47382e-48,5.47382e-48,1.36745,-37.6801,358.2)">            <g transform="matrix(60,0,0,60,174.165,80.0231)">                <path d="M0.376,-0.537c-0.019,-0.087 -0.067,-0.131 -0.144,-0.131c-0.018,0 -0.035,0.003 -0.05,0.009c-0.015,0.005 -0.029,0.013 -0.04,0.022c-0.012,0.009 -0.021,0.02 -0.027,0.033c-0.007,0.013 -0.01,0.026 -0.01,0.04c0,0.011 0.002,0.022 0.006,0.031c0.004,0.01 0.012,0.02 0.023,0.03c0.011,0.011 0.027,0.022 0.047,0.034c0.02,0.012 0.046,0.026 0.077,0.043c0.032,0.016 0.059,0.03 0.082,0.043c0.022,0.013 0.04,0.027 0.055,0.041c0.015,0.015 0.025,0.031 0.032,0.048c0.007,0.017 0.01,0.038 0.01,0.063c0,0.056 -0.02,0.101 -0.059,0.135c-0.039,0.035 -0.093,0.052 -0.163,0.052c-0.065,0 -0.124,-0.016 -0.177,-0.047l0.011,-0.149l0.014,0c0.003,0.024 0.009,0.046 0.02,0.067c0.011,0.021 0.024,0.038 0.039,0.053c0.016,0.015 0.034,0.027 0.053,0.036c0.019,0.009 0.039,0.013 0.059,0.013c0.018,0 0.036,-0.003 0.053,-0.009c0.017,-0.005 0.032,-0.013 0.045,-0.023c0.013,-0.01 0.024,-0.022 0.032,-0.037c0.008,-0.014 0.012,-0.03 0.012,-0.047c0,-0.016 -0.002,-0.03 -0.007,-0.042c-0.005,-0.011 -0.013,-0.023 -0.024,-0.034c-0.012,-0.011 -0.028,-0.023 -0.048,-0.035c-0.02,-0.012 -0.045,-0.026 -0.076,-0.042c-0.059,-0.031 -0.103,-0.062 -0.13,-0.091c-0.027,-0.029 -0.041,-0.063 -0.041,-0.101c0,-0.024 0.005,-0.046 0.015,-0.066c0.009,-0.019 0.023,-0.036 0.041,-0.051c0.017,-0.015 0.038,-0.026 0.062,-0.034c0.024,-0.008 0.051,-0.012 0.08,-0.012c0.058,0 0.106,0.015 0.145,0.044l-0.004,0.114l-0.013,0Z" style="fill:rgb(153,142,112);fill-rule:nonzero;"/>            </g>            <g transform="matrix(60,0,0,60,202.905,80.0231)">                <path d="M0.224,-0.344l-0.08,0.232c-0.003,0.01 -0.004,0.018 -0.002,0.023c0.002,0.005 0.012,0.009 0.03,0.01l0.07,0.005l0,0.016c-0.007,-0.001 -0.02,-0.001 -0.041,-0.001c-0.02,-0.001 -0.047,-0.001 -0.082,-0.001c-0.035,0 -0.062,0 -0.083,0.001c-0.02,0 -0.033,0 -0.04,0.001l0,-0.016l0.063,-0.005c0.022,-0.002 0.037,-0.014 0.046,-0.037l0.224,-0.604l0.029,0l0.221,0.597c0.005,0.011 0.009,0.019 0.013,0.023c0.004,0.004 0.011,0.008 0.022,0.011l0.055,0.017l0,0.015c-0.034,-0.002 -0.078,-0.003 -0.131,-0.003l-0.05,0c-0.015,0 -0.03,0 -0.044,0.001c-0.013,0.001 -0.026,0.001 -0.037,0.002l0,-0.015l0.066,-0.01c0.009,-0.001 0.017,-0.003 0.022,-0.005c0.005,-0.001 0.009,-0.003 0.01,-0.006c0.002,-0.003 0.003,-0.007 0.002,-0.011c-0.001,-0.005 -0.002,-0.01 -0.005,-0.017l-0.081,-0.223l-0.197,0Zm0.189,-0.022l-0.093,-0.258l-0.088,0.258l0.181,0Z" style="fill:rgb(153,142,112);fill-rule:nonzero;"/>            </g>            <g transform="matrix(60,0,0,60,243.525,80.0231)">                <path d="M0.299,-0.056c-0.023,-0.001 -0.047,-0.002 -0.072,-0.003c-0.025,-0.001 -0.051,-0.001 -0.078,-0.001c-0.027,0 -0.051,0 -0.072,0.001c-0.021,0.001 -0.039,0.002 -0.054,0.003l0,-0.016l0.064,-0.007c0.011,-0.001 0.019,-0.004 0.023,-0.009c0.003,-0.005 0.005,-0.014 0.005,-0.027l0,-0.502c0,-0.015 -0.001,-0.025 -0.004,-0.032c-0.003,-0.007 -0.01,-0.012 -0.021,-0.013l-0.059,-0.007l0,-0.018c0.015,0.001 0.054,0.001 0.116,0.002c0.062,0 0.149,0 0.26,0c0.03,0 0.056,0 0.077,0c0.021,-0.001 0.039,-0.001 0.054,-0.002c-0.001,0.009 -0.001,0.019 -0.002,0.031c0,0.012 0,0.026 0,0.041l0,0.041c0,0.012 0,0.022 0.001,0.031l-0.013,0c-0.007,-0.024 -0.014,-0.044 -0.019,-0.059c-0.006,-0.014 -0.012,-0.026 -0.018,-0.035c-0.005,-0.008 -0.012,-0.013 -0.019,-0.016c-0.007,-0.003 -0.016,-0.004 -0.027,-0.004l-0.215,0c-0.011,0 -0.019,0.003 -0.023,0.01c-0.004,0.006 -0.006,0.017 -0.006,0.032l0,0.222l0.208,0c0.012,0 0.02,-0.002 0.025,-0.006c0.004,-0.003 0.007,-0.011 0.01,-0.024l0.016,-0.071l0.016,0c-0.001,0.013 -0.001,0.027 -0.002,0.044c0,0.016 0,0.035 0,0.056c0,0.042 0.001,0.082 0.003,0.121l-0.014,0l-0.021,-0.069c-0.004,-0.013 -0.009,-0.021 -0.016,-0.024c-0.007,-0.003 -0.02,-0.004 -0.04,-0.004l-0.185,0l0,0.254c0,0.017 0.003,0.028 0.009,0.031c0.005,0.003 0.015,0.005 0.029,0.006l0.064,0.007l0,0.016Z" style="fill:rgb(153,142,112);fill-rule:nonzero;"/>            </g>            <g transform="matrix(60,0,0,60,277.305,80.0231)">                <path d="M0.633,-0.223c-0.015,0.059 -0.023,0.114 -0.025,0.165c-0.083,-0.002 -0.181,-0.003 -0.292,-0.003c-0.112,0 -0.209,0.001 -0.292,0.003l0,-0.017l0.072,-0.005c0.011,-0.001 0.019,-0.003 0.023,-0.007c0.005,-0.004 0.007,-0.013 0.007,-0.028l0,-0.503c0,-0.016 -0.002,-0.028 -0.006,-0.034c-0.003,-0.007 -0.01,-0.011 -0.019,-0.012l-0.073,-0.007l0,-0.018c0.054,0.002 0.144,0.003 0.27,0.003c0.125,0 0.215,-0.001 0.268,-0.003c-0.002,0.021 -0.003,0.044 -0.003,0.069c0,0.025 0.001,0.049 0.002,0.07l-0.013,0c-0.011,-0.028 -0.021,-0.049 -0.028,-0.065c-0.007,-0.015 -0.013,-0.026 -0.018,-0.033c-0.005,-0.008 -0.011,-0.013 -0.016,-0.014c-0.005,-0.002 -0.012,-0.003 -0.021,-0.004l-0.232,0c-0.011,0 -0.019,0.003 -0.023,0.01c-0.004,0.006 -0.006,0.017 -0.006,0.032l0,0.23l0.225,0c0.011,0 0.02,-0.002 0.025,-0.006c0.005,-0.003 0.009,-0.011 0.012,-0.024l0.013,-0.07l0.02,0c-0.004,0.079 -0.004,0.159 0,0.24l-0.012,0l-0.022,-0.078c-0.003,-0.01 -0.007,-0.018 -0.012,-0.023c-0.005,-0.005 -0.011,-0.009 -0.018,-0.011c-0.008,-0.003 -0.017,-0.004 -0.028,-0.004c-0.011,-0.001 -0.025,-0.001 -0.041,-0.001l-0.162,0l0,0.249c0,0.015 0.003,0.025 0.008,0.031c0.005,0.005 0.017,0.008 0.034,0.008l0.222,0c0.015,0 0.028,-0.001 0.039,-0.004c0.011,-0.003 0.022,-0.01 0.033,-0.02c0.011,-0.01 0.021,-0.024 0.032,-0.042c0.011,-0.019 0.024,-0.043 0.037,-0.074l0.02,0Z" style="fill:rgb(153,142,112);fill-rule:nonzero;"/>            </g>            <g transform="matrix(60,0,0,60,331.665,80.0231)">                <path d="M0.224,-0.344l-0.08,0.232c-0.003,0.01 -0.004,0.018 -0.002,0.023c0.002,0.005 0.012,0.009 0.03,0.01l0.07,0.005l0,0.016c-0.007,-0.001 -0.02,-0.001 -0.041,-0.001c-0.02,-0.001 -0.047,-0.001 -0.082,-0.001c-0.035,0 -0.062,0 -0.083,0.001c-0.02,0 -0.033,0 -0.04,0.001l0,-0.016l0.063,-0.005c0.022,-0.002 0.037,-0.014 0.046,-0.037l0.224,-0.604l0.029,0l0.221,0.597c0.005,0.011 0.009,0.019 0.013,0.023c0.004,0.004 0.011,0.008 0.022,0.011l0.055,0.017l0,0.015c-0.034,-0.002 -0.078,-0.003 -0.131,-0.003l-0.05,0c-0.015,0 -0.03,0 -0.044,0.001c-0.013,0.001 -0.026,0.001 -0.037,0.002l0,-0.015l0.066,-0.01c0.009,-0.001 0.017,-0.003 0.022,-0.005c0.005,-0.001 0.009,-0.003 0.01,-0.006c0.002,-0.003 0.003,-0.007 0.002,-0.011c-0.001,-0.005 -0.002,-0.01 -0.005,-0.017l-0.081,-0.223l-0.197,0Zm0.189,-0.022l-0.093,-0.258l-0.088,0.258l0.181,0Z" style="fill:rgb(153,142,112);fill-rule:nonzero;"/>            </g>            <g transform="matrix(60,0,0,60,372.285,80.0231)">                <path d="M0.376,-0.537c-0.019,-0.087 -0.067,-0.131 -0.144,-0.131c-0.018,0 -0.035,0.003 -0.05,0.009c-0.015,0.005 -0.029,0.013 -0.04,0.022c-0.012,0.009 -0.021,0.02 -0.027,0.033c-0.007,0.013 -0.01,0.026 -0.01,0.04c0,0.011 0.002,0.022 0.006,0.031c0.004,0.01 0.012,0.02 0.023,0.03c0.011,0.011 0.027,0.022 0.047,0.034c0.02,0.012 0.046,0.026 0.077,0.043c0.032,0.016 0.059,0.03 0.082,0.043c0.022,0.013 0.04,0.027 0.055,0.041c0.015,0.015 0.025,0.031 0.032,0.048c0.007,0.017 0.01,0.038 0.01,0.063c0,0.056 -0.02,0.101 -0.059,0.135c-0.039,0.035 -0.093,0.052 -0.163,0.052c-0.065,0 -0.124,-0.016 -0.177,-0.047l0.011,-0.149l0.014,0c0.003,0.024 0.009,0.046 0.02,0.067c0.011,0.021 0.024,0.038 0.039,0.053c0.016,0.015 0.034,0.027 0.053,0.036c0.019,0.009 0.039,0.013 0.059,0.013c0.018,0 0.036,-0.003 0.053,-0.009c0.017,-0.005 0.032,-0.013 0.045,-0.023c0.013,-0.01 0.024,-0.022 0.032,-0.037c0.008,-0.014 0.012,-0.03 0.012,-0.047c0,-0.016 -0.002,-0.03 -0.007,-0.042c-0.005,-0.011 -0.013,-0.023 -0.024,-0.034c-0.012,-0.011 -0.028,-0.023 -0.048,-0.035c-0.02,-0.012 -0.045,-0.026 -0.076,-0.042c-0.059,-0.031 -0.103,-0.062 -0.13,-0.091c-0.027,-0.029 -0.041,-0.063 -0.041,-0.101c0,-0.024 0.005,-0.046 0.015,-0.066c0.009,-0.019 0.023,-0.036 0.041,-0.051c0.017,-0.015 0.038,-0.026 0.062,-0.034c0.024,-0.008 0.051,-0.012 0.08,-0.012c0.058,0 0.106,0.015 0.145,0.044l-0.004,0.114l-0.013,0Z" style="fill:rgb(153,142,112);fill-rule:nonzero;"/>            </g>            <g transform="matrix(60,0,0,60,416.025,80.0231)">                <path d="M0.56,-0.628c0,-0.013 -0.002,-0.023 -0.005,-0.028c-0.003,-0.006 -0.009,-0.009 -0.017,-0.01l-0.053,-0.006l0,-0.016c0.013,0.001 0.029,0.002 0.049,0.003c0.021,0.001 0.045,0.001 0.074,0.001c0.029,0 0.053,0 0.074,-0.001c0.02,-0.001 0.036,-0.002 0.048,-0.003l0,0.016l-0.071,0.01c-0.009,0.001 -0.014,0.004 -0.017,0.009c-0.003,0.005 -0.004,0.013 -0.004,0.026l0,0.499c0,0.014 0.001,0.024 0.004,0.03c0.004,0.006 0.011,0.01 0.023,0.012l0.077,0.014l0,0.016c-0.017,-0.001 -0.036,-0.002 -0.057,-0.003c-0.022,-0.001 -0.047,-0.001 -0.074,-0.001c-0.027,0 -0.051,0 -0.074,0.001c-0.022,0.001 -0.042,0.002 -0.059,0.003l0,-0.016l0.062,-0.01c0.008,-0.001 0.013,-0.005 0.016,-0.012c0.003,-0.007 0.004,-0.018 0.004,-0.034l0,-0.231l-0.359,0l0,0.231c0,0.017 0.001,0.028 0.004,0.034c0.003,0.007 0.008,0.011 0.017,0.012l0.062,0.01l0,0.016c-0.017,-0.001 -0.037,-0.002 -0.06,-0.003c-0.022,-0.001 -0.047,-0.001 -0.074,-0.001c-0.027,0 -0.051,0 -0.073,0.001c-0.021,0.001 -0.04,0.002 -0.057,0.003l0,-0.016l0.077,-0.014c0.011,-0.002 0.018,-0.006 0.021,-0.012c0.003,-0.006 0.005,-0.016 0.005,-0.03l0,-0.5c0,-0.013 -0.002,-0.023 -0.005,-0.028c-0.003,-0.006 -0.009,-0.009 -0.017,-0.01l-0.053,-0.006l0,-0.016c0.013,0.001 0.029,0.002 0.05,0.003c0.021,0.001 0.046,0.001 0.076,0.001c0.03,0 0.055,0 0.075,-0.001c0.021,-0.001 0.037,-0.002 0.049,-0.003l0,0.016l-0.076,0.01c-0.009,0.001 -0.014,0.004 -0.017,0.009c-0.003,0.005 -0.004,0.013 -0.004,0.026l0,0.239l0.359,0l0,-0.24Z" style="fill:rgb(153,142,112);fill-rule:nonzero;"/>            </g>            <g transform="matrix(60,0,0,60,461.625,80.0231)">                <path d="M0.389,-0.044c-0.051,0 -0.097,-0.008 -0.139,-0.024c-0.042,-0.016 -0.078,-0.038 -0.108,-0.067c-0.031,-0.029 -0.054,-0.063 -0.071,-0.102c-0.017,-0.039 -0.025,-0.081 -0.025,-0.127c0,-0.046 0.008,-0.089 0.026,-0.129c0.017,-0.04 0.04,-0.075 0.072,-0.105c0.031,-0.03 0.068,-0.054 0.112,-0.071c0.044,-0.017 0.093,-0.026 0.147,-0.026c0.045,0 0.088,0.008 0.128,0.025c0.04,0.016 0.075,0.038 0.105,0.068c0.03,0.029 0.054,0.063 0.071,0.104c0.017,0.04 0.026,0.084 0.026,0.131c0,0.047 -0.008,0.091 -0.025,0.131c-0.017,0.039 -0.04,0.073 -0.071,0.102c-0.03,0.028 -0.066,0.05 -0.109,0.066c-0.042,0.016 -0.088,0.024 -0.139,0.024Zm-0.253,-0.315c0,0.039 0.006,0.076 0.019,0.112c0.013,0.035 0.03,0.067 0.052,0.095c0.022,0.027 0.048,0.049 0.079,0.066c0.03,0.016 0.063,0.024 0.099,0.024c0.085,0 0.15,-0.026 0.194,-0.077c0.044,-0.052 0.066,-0.126 0.066,-0.222c0,-0.047 -0.006,-0.089 -0.018,-0.128c-0.013,-0.039 -0.03,-0.072 -0.052,-0.099c-0.023,-0.028 -0.05,-0.05 -0.081,-0.065c-0.031,-0.015 -0.066,-0.023 -0.105,-0.023c-0.04,0 -0.076,0.008 -0.107,0.025c-0.032,0.016 -0.059,0.038 -0.08,0.067c-0.021,0.029 -0.038,0.062 -0.049,0.101c-0.011,0.039 -0.017,0.08 -0.017,0.124Z" style="fill:rgb(153,142,112);fill-rule:nonzero;"/>            </g>            <g transform="matrix(60,0,0,60,508.485,80.0231)">                <path d="M0.288,-0.688l0,0.016l-0.063,0.008c-0.012,0.001 -0.021,0.006 -0.026,0.014c-0.005,0.007 -0.007,0.019 -0.007,0.036l0,0.357c0,0.064 0.013,0.11 0.04,0.139c0.027,0.028 0.07,0.042 0.131,0.042c0.042,0 0.076,-0.005 0.103,-0.014c0.027,-0.009 0.048,-0.023 0.063,-0.044c0.015,-0.021 0.026,-0.048 0.032,-0.081c0.006,-0.033 0.009,-0.073 0.009,-0.121l0,-0.277c0,-0.027 -0.014,-0.043 -0.041,-0.048l-0.059,-0.011l0,-0.016c0.008,0.001 0.021,0.001 0.039,0.002c0.018,0.001 0.039,0.001 0.063,0.001c0.051,0 0.086,-0.001 0.103,-0.003l0,0.016l-0.058,0.013c-0.015,0.003 -0.022,0.018 -0.022,0.046l0,0.303c0,0.047 -0.004,0.087 -0.012,0.121c-0.009,0.033 -0.022,0.061 -0.04,0.082c-0.018,0.021 -0.041,0.037 -0.07,0.047c-0.029,0.011 -0.065,0.016 -0.106,0.016c-0.083,0 -0.146,-0.017 -0.189,-0.051c-0.043,-0.033 -0.065,-0.082 -0.065,-0.147l0,-0.375c0,-0.016 -0.002,-0.027 -0.005,-0.034c-0.003,-0.007 -0.01,-0.012 -0.019,-0.013l-0.071,-0.008l0,-0.016c0.044,0.002 0.094,0.003 0.15,0.003c0.056,0 0.096,-0.001 0.12,-0.003Z" style="fill:rgb(153,142,112);fill-rule:nonzero;"/>            </g>            <g transform="matrix(60,0,0,60,550.965,80.0231)">                <path d="M0.376,-0.537c-0.019,-0.087 -0.067,-0.131 -0.144,-0.131c-0.018,0 -0.035,0.003 -0.05,0.009c-0.015,0.005 -0.029,0.013 -0.04,0.022c-0.012,0.009 -0.021,0.02 -0.027,0.033c-0.007,0.013 -0.01,0.026 -0.01,0.04c0,0.011 0.002,0.022 0.006,0.031c0.004,0.01 0.012,0.02 0.023,0.03c0.011,0.011 0.027,0.022 0.047,0.034c0.02,0.012 0.046,0.026 0.077,0.043c0.032,0.016 0.059,0.03 0.082,0.043c0.022,0.013 0.04,0.027 0.055,0.041c0.015,0.015 0.025,0.031 0.032,0.048c0.007,0.017 0.01,0.038 0.01,0.063c0,0.056 -0.02,0.101 -0.059,0.135c-0.039,0.035 -0.093,0.052 -0.163,0.052c-0.065,0 -0.124,-0.016 -0.177,-0.047l0.011,-0.149l0.014,0c0.003,0.024 0.009,0.046 0.02,0.067c0.011,0.021 0.024,0.038 0.039,0.053c0.016,0.015 0.034,0.027 0.053,0.036c0.019,0.009 0.039,0.013 0.059,0.013c0.018,0 0.036,-0.003 0.053,-0.009c0.017,-0.005 0.032,-0.013 0.045,-0.023c0.013,-0.01 0.024,-0.022 0.032,-0.037c0.008,-0.014 0.012,-0.03 0.012,-0.047c0,-0.016 -0.002,-0.03 -0.007,-0.042c-0.005,-0.011 -0.013,-0.023 -0.024,-0.034c-0.012,-0.011 -0.028,-0.023 -0.048,-0.035c-0.02,-0.012 -0.045,-0.026 -0.076,-0.042c-0.059,-0.031 -0.103,-0.062 -0.13,-0.091c-0.027,-0.029 -0.041,-0.063 -0.041,-0.101c0,-0.024 0.005,-0.046 0.015,-0.066c0.009,-0.019 0.023,-0.036 0.041,-0.051c0.017,-0.015 0.038,-0.026 0.062,-0.034c0.024,-0.008 0.051,-0.012 0.08,-0.012c0.058,0 0.106,0.015 0.145,0.044l-0.004,0.114l-0.013,0Z" style="fill:rgb(153,142,112);fill-rule:nonzero;"/>            </g>            <g transform="matrix(60,0,0,60,579.705,80.0231)">                <path d="M0.633,-0.223c-0.015,0.059 -0.023,0.114 -0.025,0.165c-0.083,-0.002 -0.181,-0.003 -0.292,-0.003c-0.112,0 -0.209,0.001 -0.292,0.003l0,-0.017l0.072,-0.005c0.011,-0.001 0.019,-0.003 0.023,-0.007c0.005,-0.004 0.007,-0.013 0.007,-0.028l0,-0.503c0,-0.016 -0.002,-0.028 -0.006,-0.034c-0.003,-0.007 -0.01,-0.011 -0.019,-0.012l-0.073,-0.007l0,-0.018c0.054,0.002 0.144,0.003 0.27,0.003c0.125,0 0.215,-0.001 0.268,-0.003c-0.002,0.021 -0.003,0.044 -0.003,0.069c0,0.025 0.001,0.049 0.002,0.07l-0.013,0c-0.011,-0.028 -0.021,-0.049 -0.028,-0.065c-0.007,-0.015 -0.013,-0.026 -0.018,-0.033c-0.005,-0.008 -0.011,-0.013 -0.016,-0.014c-0.005,-0.002 -0.012,-0.003 -0.021,-0.004l-0.232,0c-0.011,0 -0.019,0.003 -0.023,0.01c-0.004,0.006 -0.006,0.017 -0.006,0.032l0,0.23l0.225,0c0.011,0 0.02,-0.002 0.025,-0.006c0.005,-0.003 0.009,-0.011 0.012,-0.024l0.013,-0.07l0.02,0c-0.004,0.079 -0.004,0.159 0,0.24l-0.012,0l-0.022,-0.078c-0.003,-0.01 -0.007,-0.018 -0.012,-0.023c-0.005,-0.005 -0.011,-0.009 -0.018,-0.011c-0.008,-0.003 -0.017,-0.004 -0.028,-0.004c-0.011,-0.001 -0.025,-0.001 -0.041,-0.001l-0.162,0l0,0.249c0,0.015 0.003,0.025 0.008,0.031c0.005,0.005 0.017,0.008 0.034,0.008l0.222,0c0.015,0 0.028,-0.001 0.039,-0.004c0.011,-0.003 0.022,-0.01 0.033,-0.02c0.011,-0.01 0.021,-0.024 0.032,-0.042c0.011,-0.019 0.024,-0.043 0.037,-0.074l0.02,0Z" style="fill:rgb(153,142,112);fill-rule:nonzero;"/>            </g>            <g transform="matrix(60,0,0,60,619.065,80.0231)">                <path d="M0.376,-0.537c-0.019,-0.087 -0.067,-0.131 -0.144,-0.131c-0.018,0 -0.035,0.003 -0.05,0.009c-0.015,0.005 -0.029,0.013 -0.04,0.022c-0.012,0.009 -0.021,0.02 -0.027,0.033c-0.007,0.013 -0.01,0.026 -0.01,0.04c0,0.011 0.002,0.022 0.006,0.031c0.004,0.01 0.012,0.02 0.023,0.03c0.011,0.011 0.027,0.022 0.047,0.034c0.02,0.012 0.046,0.026 0.077,0.043c0.032,0.016 0.059,0.03 0.082,0.043c0.022,0.013 0.04,0.027 0.055,0.041c0.015,0.015 0.025,0.031 0.032,0.048c0.007,0.017 0.01,0.038 0.01,0.063c0,0.056 -0.02,0.101 -0.059,0.135c-0.039,0.035 -0.093,0.052 -0.163,0.052c-0.065,0 -0.124,-0.016 -0.177,-0.047l0.011,-0.149l0.014,0c0.003,0.024 0.009,0.046 0.02,0.067c0.011,0.021 0.024,0.038 0.039,0.053c0.016,0.015 0.034,0.027 0.053,0.036c0.019,0.009 0.039,0.013 0.059,0.013c0.018,0 0.036,-0.003 0.053,-0.009c0.017,-0.005 0.032,-0.013 0.045,-0.023c0.013,-0.01 0.024,-0.022 0.032,-0.037c0.008,-0.014 0.012,-0.03 0.012,-0.047c0,-0.016 -0.002,-0.03 -0.007,-0.042c-0.005,-0.011 -0.013,-0.023 -0.024,-0.034c-0.012,-0.011 -0.028,-0.023 -0.048,-0.035c-0.02,-0.012 -0.045,-0.026 -0.076,-0.042c-0.059,-0.031 -0.103,-0.062 -0.13,-0.091c-0.027,-0.029 -0.041,-0.063 -0.041,-0.101c0,-0.024 0.005,-0.046 0.015,-0.066c0.009,-0.019 0.023,-0.036 0.041,-0.051c0.017,-0.015 0.038,-0.026 0.062,-0.034c0.024,-0.008 0.051,-0.012 0.08,-0.012c0.058,0 0.106,0.015 0.145,0.044l-0.004,0.114l-0.013,0Z" style="fill:rgb(153,142,112);fill-rule:nonzero;"/>            </g>        </g>        <g transform="matrix(0.267872,-5.15815e-33,5.15815e-33,0.267872,395.374,162.758)">            <path d="M578.2,348c14.2,26.3 33.1,62.8 59.3,114.5c44.4,87.5 69.2,132.6 90.8,165l6.3,9.4l-2.8,16.3c-5.6,34 -7.8,59.8 -7.8,94.9c0,44.3 4.1,75.2 14.1,105.7c1.7,5.1 2.8,9.6 2.5,9.9c-1,1 -8.8,-4.7 -14.4,-10.6c-27.9,-29.1 -50.2,-98.2 -50.2,-155.7c0,-13.3 -0.2,-14.4 -2.5,-18.7c-5.4,-9.6 -17.8,-45.6 -36.8,-106.7c-27.1,-87.1 -65.6,-219.5 -71.1,-244.5c-0.7,-2.8 -0.6,-2.9 0.7,-1c0.8,1.1 6.1,10.8 11.9,21.5Z" style="fill:rgb(153,142,112);"/>        </g>        <g transform="matrix(0.267872,-5.15815e-33,5.15815e-33,0.267872,395.374,162.758)">            <path d="M371.4,592.4c26.1,25.1 67.9,52.9 118.6,78.8c62,31.6 128.4,54.8 157.1,54.8l6.7,0l0.6,6.7c3.9,37.8 21.9,82.4 46.2,114.5c2.4,3.2 4,5.8 3.5,5.8c-2,0 -25.1,-8.5 -36.1,-13.3c-97.1,-42.1 -222.5,-136 -282,-211.2c-13.1,-16.5 -27.2,-40.5 -29.6,-50c-0.6,-2.7 -0.3,-2.5 4.1,2.5c2.7,3 7.6,8.1 10.9,11.4Z" style="fill:rgb(153,142,112);"/>        </g>        <g transform="matrix(0.267872,-5.15815e-33,5.15815e-33,0.267872,395.374,162.758)">            <path d="M352.3,487.8c75.1,58.2 197.3,111.2 256.3,111.2l6.2,0l6.2,22.2c8.4,29.9 13.4,45.2 18.2,56.2c2.2,5 4.2,9.7 4.5,10.3c0.6,1.5 -0.1,1.4 -18.2,-2.3c-42.4,-8.5 -106.1,-36.2 -159,-69.2c-56.6,-35.3 -101.3,-75 -125.7,-111.7c-8.7,-13.1 -17.3,-31.1 -19.3,-40.4c-0.7,-3.3 -0.3,-3.1 9.9,6.2c5.8,5.3 15.2,13.2 20.9,17.5Z" style="fill:rgb(153,142,112);"/>        </g>        <g transform="matrix(0.267872,-5.15815e-33,5.15815e-33,0.267872,395.374,162.758)">            <path d="M336.6,371.2c32,24 70.6,47 116.9,69.8c54.7,26.9 108,46 128.3,46l4.9,0l1.1,5.2c7.8,37.4 13,59.9 17.9,77c0.6,2.1 -0.1,2 -17.2,-1.9c-55.2,-12.8 -138.4,-58.2 -199,-108.8c-45.9,-38.3 -78,-78.2 -88.3,-110c-4.5,-13.7 -4.5,-13.7 9,-0.2c7,7 18.4,16.9 26.4,22.9Z" style="fill:rgb(153,142,112);"/>        </g>        <g transform="matrix(0.267872,-5.15815e-33,5.15815e-33,0.267872,395.374,162.758)">            <path d="M249.4,149.9c3,8.1 11.6,23.5 18.2,32.4c20.1,26.9 48.5,52.3 87.4,78.2c22,14.6 33.7,21.4 56.7,32.9c31.6,15.8 63.5,27.9 93.7,35.6c15.2,3.8 37.3,8 42.7,8c2.1,0 3.2,0.6 3.9,2.2c0.5,1.3 4.7,20.5 9.4,42.8c4.8,22.3 10.8,49.9 13.5,61.5c2.7,11.5 4.8,21.1 4.7,21.3c-0.2,0.1 -6.3,-1.8 -13.7,-4.4c-77.1,-26.4 -168.3,-80.9 -229.4,-137.1c-65.8,-60.5 -99.2,-125.6 -93.6,-182.5c0.6,-6.3 1.1,-12.1 1.2,-12.9c0,-0.7 0.9,2.9 1.9,8.1c1,5.2 2.5,11.5 3.4,13.9Z" style="fill:rgb(153,142,112);"/>        </g>    </g></svg>