<?xml version="1.0" encoding="UTF-8" standalone="no"?><!DOCTYPE svg PUBLIC "-//W3C//DTD SVG 1.1//EN" "http://www.w3.org/Graphics/SVG/1.1/DTD/svg11.dtd"><svg width="100%" height="100%" viewBox="0 0 1024 512" version="1.1" xmlns="http://www.w3.org/2000/svg" xmlns:xlink="http://www.w3.org/1999/xlink" xml:space="preserve" style="fill-rule:evenodd;clip-rule:evenodd;stroke-linejoin:round;stroke-miterlimit:2;"><title>First Cavendish</title><desc>First Cavendish is a new way of helping investors enjoy the rewards of property development only previously accessible by a few. It may be a new process but the people and businesses lending to property developers have been doing so for 50 years</desc>    <g transform="matrix(4.11582,0,0,4.11582,-35.2131,154.891)">        <g transform="matrix(2.06505,0,0,2.06505,-95.7536,-27.2144)">            <g transform="matrix(12,0,0,12,81.5411,29.3695)">                <path d="M0.074,0l0,-0.716l0.49,0l0,0.121l-0.346,0l0,0.17l0.299,0l0,0.121l-0.299,0l0,0.304l-0.144,0Z" style="fill:rgb(96,94,115);fill-rule:nonzero;"/>            </g>            <g transform="matrix(12,0,0,12,88.8712,29.3695)">                <path d="M0.072,-0.589l0,-0.127l0.137,0l0,0.127l-0.137,0Zm0,0.589l0,-0.519l0.137,0l0,0.519l-0.137,0Z" style="fill:rgb(96,94,115);fill-rule:nonzero;"/>            </g>            <g transform="matrix(12,0,0,12,92.2052,29.3695)">                <path d="M0.203,0l-0.137,0l0,-0.519l0.127,0l0,0.074c0.022,-0.035 0.042,-0.058 0.059,-0.069c0.018,-0.011 0.037,-0.016 0.06,-0.016c0.031,0 0.061,0.008 0.09,0.026l-0.043,0.119c-0.023,-0.015 -0.044,-0.022 -0.064,-0.022c-0.019,0 -0.036,0.005 -0.049,0.016c-0.013,0.01 -0.024,0.029 -0.031,0.057c-0.008,0.028 -0.012,0.086 -0.012,0.174l0,0.16Z" style="fill:rgb(96,94,115);fill-rule:nonzero;"/>            </g>            <g transform="matrix(12,0,0,12,96.8751,29.3695)">                <path d="M0.023,-0.148l0.138,-0.021c0.006,0.027 0.018,0.047 0.036,0.061c0.018,0.014 0.043,0.021 0.075,0.021c0.035,0 0.062,-0.007 0.08,-0.02c0.012,-0.009 0.018,-0.021 0.018,-0.037c0,-0.01 -0.003,-0.019 -0.01,-0.025c-0.006,-0.007 -0.022,-0.013 -0.046,-0.019c-0.11,-0.024 -0.18,-0.046 -0.21,-0.066c-0.041,-0.028 -0.062,-0.067 -0.062,-0.117c0,-0.045 0.018,-0.083 0.054,-0.113c0.035,-0.031 0.09,-0.046 0.165,-0.046c0.071,0 0.123,0.011 0.158,0.034c0.034,0.024 0.058,0.058 0.071,0.103l-0.129,0.024c-0.006,-0.02 -0.016,-0.036 -0.032,-0.047c-0.015,-0.01 -0.037,-0.016 -0.066,-0.016c-0.036,0 -0.062,0.005 -0.077,0.015c-0.011,0.008 -0.016,0.017 -0.016,0.028c0,0.01 0.004,0.018 0.014,0.025c0.012,0.009 0.055,0.022 0.128,0.039c0.073,0.016 0.124,0.037 0.153,0.061c0.028,0.024 0.043,0.058 0.043,0.102c0,0.047 -0.02,0.088 -0.06,0.122c-0.039,0.035 -0.098,0.052 -0.176,0.052c-0.071,0 -0.127,-0.015 -0.168,-0.043c-0.041,-0.029 -0.068,-0.068 -0.081,-0.117Z" style="fill:rgb(96,94,115);fill-rule:nonzero;"/>            </g>            <g transform="matrix(12,0,0,12,103.549,29.3695)">                <path d="M0.31,-0.519l0,0.11l-0.094,0l0,0.209c0,0.042 0.001,0.067 0.003,0.074c0.001,0.007 0.005,0.013 0.012,0.017c0.006,0.005 0.014,0.007 0.023,0.007c0.013,0 0.031,-0.004 0.055,-0.013l0.012,0.106c-0.032,0.014 -0.068,0.021 -0.109,0.021c-0.024,0 -0.047,-0.004 -0.066,-0.013c-0.02,-0.008 -0.035,-0.019 -0.044,-0.032c-0.009,-0.013 -0.016,-0.031 -0.019,-0.053c-0.003,-0.016 -0.005,-0.049 -0.005,-0.097l0,-0.226l-0.063,0l0,-0.11l0.063,0l0,-0.103l0.138,-0.08l0,0.183l0.094,0Z" style="fill:rgb(96,94,115);fill-rule:nonzero;"/>            </g>            <g transform="matrix(12,0,0,12,110.879,29.3695)">                <path d="M0.531,-0.263l0.14,0.044c-0.022,0.078 -0.057,0.136 -0.107,0.174c-0.05,0.038 -0.114,0.057 -0.19,0.057c-0.096,0 -0.174,-0.032 -0.235,-0.097c-0.061,-0.065 -0.092,-0.154 -0.092,-0.267c0,-0.119 0.031,-0.211 0.093,-0.277c0.061,-0.066 0.142,-0.099 0.242,-0.099c0.088,0 0.159,0.026 0.214,0.078c0.032,0.03 0.057,0.074 0.073,0.131l-0.143,0.035c-0.009,-0.037 -0.026,-0.067 -0.053,-0.088c-0.027,-0.022 -0.06,-0.032 -0.098,-0.032c-0.053,0 -0.096,0.019 -0.129,0.057c-0.033,0.038 -0.05,0.099 -0.05,0.185c0,0.09 0.017,0.155 0.049,0.193c0.033,0.038 0.075,0.058 0.127,0.058c0.038,0 0.072,-0.013 0.099,-0.037c0.028,-0.024 0.048,-0.063 0.06,-0.115Z" style="fill:rgb(96,94,115);fill-rule:nonzero;"/>            </g>            <g transform="matrix(12,0,0,12,119.545,29.3695)">                <path d="M0.174,-0.36l-0.124,-0.023c0.014,-0.05 0.038,-0.087 0.072,-0.111c0.034,-0.024 0.085,-0.036 0.152,-0.036c0.062,0 0.107,0.007 0.137,0.021c0.03,0.015 0.051,0.033 0.063,0.056c0.013,0.022 0.019,0.063 0.019,0.122l-0.002,0.161c0,0.045 0.002,0.079 0.007,0.1c0.004,0.022 0.012,0.045 0.024,0.07l-0.135,0c-0.004,-0.009 -0.008,-0.023 -0.013,-0.041c-0.003,-0.008 -0.004,-0.013 -0.005,-0.016c-0.024,0.023 -0.049,0.04 -0.076,0.052c-0.026,0.011 -0.055,0.017 -0.085,0.017c-0.053,0 -0.095,-0.015 -0.126,-0.044c-0.031,-0.029 -0.046,-0.065 -0.046,-0.11c0,-0.029 0.007,-0.055 0.021,-0.078c0.014,-0.023 0.033,-0.04 0.058,-0.053c0.026,-0.012 0.062,-0.023 0.11,-0.032c0.064,-0.012 0.108,-0.023 0.133,-0.033l0,-0.014c0,-0.026 -0.007,-0.045 -0.02,-0.056c-0.013,-0.012 -0.037,-0.017 -0.073,-0.017c-0.025,0 -0.044,0.005 -0.057,0.014c-0.014,0.01 -0.025,0.027 -0.034,0.051Zm0.184,0.111c-0.018,0.006 -0.045,0.013 -0.084,0.021c-0.038,0.008 -0.063,0.016 -0.074,0.024c-0.018,0.013 -0.027,0.029 -0.027,0.048c0,0.019 0.007,0.036 0.021,0.05c0.015,0.014 0.033,0.021 0.055,0.021c0.025,0 0.048,-0.008 0.071,-0.024c0.016,-0.013 0.027,-0.028 0.033,-0.046c0.003,-0.012 0.005,-0.034 0.005,-0.067l0,-0.027Z" style="fill:rgb(96,94,115);fill-rule:nonzero;"/>            </g>            <g transform="matrix(12,0,0,12,126.219,29.3695)">                <path d="M0.214,0l-0.209,-0.519l0.144,0l0.098,0.265l0.028,0.088c0.008,-0.022 0.013,-0.037 0.015,-0.044c0.004,-0.015 0.009,-0.029 0.014,-0.044l0.099,-0.265l0.141,0l-0.206,0.519l-0.124,0Z" style="fill:rgb(96,94,115);fill-rule:nonzero;"/>            </g>            <g transform="matrix(12,0,0,12,132.893,29.3695)">                <path d="M0.372,-0.165l0.137,0.023c-0.018,0.05 -0.046,0.088 -0.083,0.114c-0.038,0.027 -0.086,0.04 -0.143,0.04c-0.09,0 -0.157,-0.03 -0.2,-0.089c-0.034,-0.047 -0.051,-0.106 -0.051,-0.178c0,-0.086 0.022,-0.154 0.067,-0.202c0.045,-0.049 0.102,-0.073 0.171,-0.073c0.077,0 0.138,0.025 0.182,0.076c0.045,0.051 0.066,0.129 0.064,0.234l-0.344,0c0.001,0.041 0.012,0.073 0.034,0.095c0.021,0.023 0.047,0.034 0.079,0.034c0.021,0 0.039,-0.006 0.054,-0.017c0.015,-0.012 0.026,-0.031 0.033,-0.057Zm0.008,-0.139c-0.001,-0.039 -0.011,-0.07 -0.031,-0.09c-0.019,-0.021 -0.043,-0.031 -0.071,-0.031c-0.03,0 -0.055,0.011 -0.074,0.032c-0.02,0.022 -0.03,0.052 -0.029,0.089l0.205,0Z" style="fill:rgb(96,94,115);fill-rule:nonzero;"/>            </g>            <g transform="matrix(12,0,0,12,139.567,29.3695)">                <path d="M0.543,0l-0.137,0l0,-0.265c0,-0.056 -0.003,-0.092 -0.009,-0.108c-0.005,-0.017 -0.015,-0.03 -0.028,-0.039c-0.013,-0.009 -0.029,-0.013 -0.048,-0.013c-0.023,0 -0.045,0.006 -0.064,0.019c-0.019,0.013 -0.031,0.031 -0.038,0.052c-0.007,0.021 -0.011,0.061 -0.011,0.119l0,0.235l-0.137,0l0,-0.519l0.127,0l0,0.077c0.045,-0.059 0.102,-0.088 0.171,-0.088c0.03,0 0.058,0.005 0.083,0.016c0.025,0.011 0.044,0.025 0.057,0.042c0.013,0.017 0.022,0.036 0.027,0.057c0.005,0.022 0.007,0.053 0.007,0.093l0,0.322Z" style="fill:rgb(96,94,115);fill-rule:nonzero;"/>            </g>            <g transform="matrix(12,0,0,12,146.897,29.3695)">                <path d="M0.547,0l-0.127,0l0,-0.076c-0.021,0.029 -0.046,0.052 -0.075,0.066c-0.029,0.014 -0.058,0.022 -0.087,0.022c-0.06,0 -0.111,-0.024 -0.153,-0.072c-0.043,-0.048 -0.064,-0.115 -0.064,-0.201c0,-0.088 0.021,-0.155 0.062,-0.201c0.041,-0.045 0.094,-0.068 0.157,-0.068c0.058,0 0.108,0.024 0.15,0.072l0,-0.258l0.137,0l0,0.716Zm-0.366,-0.271c0,0.056 0.008,0.096 0.023,0.121c0.022,0.035 0.053,0.053 0.093,0.053c0.031,0 0.058,-0.013 0.08,-0.04c0.023,-0.027 0.034,-0.067 0.034,-0.12c0,-0.06 -0.011,-0.103 -0.033,-0.129c-0.021,-0.026 -0.049,-0.039 -0.082,-0.039c-0.033,0 -0.06,0.013 -0.082,0.039c-0.022,0.025 -0.033,0.064 -0.033,0.115Z" style="fill:rgb(96,94,115);fill-rule:nonzero;"/>            </g>            <g transform="matrix(12,0,0,12,154.227,29.3695)">                <path d="M0.072,-0.589l0,-0.127l0.137,0l0,0.127l-0.137,0Zm0,0.589l0,-0.519l0.137,0l0,0.519l-0.137,0Z" style="fill:rgb(96,94,115);fill-rule:nonzero;"/>            </g>            <g transform="matrix(12,0,0,12,157.561,29.3695)">                <path d="M0.023,-0.148l0.138,-0.021c0.006,0.027 0.018,0.047 0.036,0.061c0.018,0.014 0.043,0.021 0.075,0.021c0.035,0 0.062,-0.007 0.08,-0.02c0.012,-0.009 0.018,-0.021 0.018,-0.037c0,-0.01 -0.003,-0.019 -0.01,-0.025c-0.006,-0.007 -0.022,-0.013 -0.046,-0.019c-0.11,-0.024 -0.18,-0.046 -0.21,-0.066c-0.041,-0.028 -0.062,-0.067 -0.062,-0.117c0,-0.045 0.018,-0.083 0.054,-0.113c0.035,-0.031 0.09,-0.046 0.165,-0.046c0.071,0 0.123,0.011 0.158,0.034c0.034,0.024 0.058,0.058 0.071,0.103l-0.129,0.024c-0.006,-0.02 -0.016,-0.036 -0.032,-0.047c-0.015,-0.01 -0.037,-0.016 -0.066,-0.016c-0.036,0 -0.062,0.005 -0.077,0.015c-0.011,0.008 -0.016,0.017 -0.016,0.028c0,0.01 0.004,0.018 0.014,0.025c0.012,0.009 0.055,0.022 0.128,0.039c0.073,0.016 0.124,0.037 0.153,0.061c0.028,0.024 0.043,0.058 0.043,0.102c0,0.047 -0.02,0.088 -0.06,0.122c-0.039,0.035 -0.098,0.052 -0.176,0.052c-0.071,0 -0.127,-0.015 -0.168,-0.043c-0.041,-0.029 -0.068,-0.068 -0.081,-0.117Z" style="fill:rgb(96,94,115);fill-rule:nonzero;"/>            </g>            <g transform="matrix(12,0,0,12,164.235,29.3695)">                <path d="M0.208,-0.716l0,0.263c0.045,-0.051 0.098,-0.077 0.159,-0.077c0.032,0 0.06,0.006 0.086,0.017c0.025,0.012 0.044,0.027 0.057,0.045c0.013,0.018 0.022,0.039 0.026,0.061c0.005,0.022 0.007,0.056 0.007,0.103l0,0.304l-0.137,0l0,-0.274c0,-0.054 -0.002,-0.089 -0.008,-0.103c-0.005,-0.015 -0.014,-0.027 -0.027,-0.035c-0.013,-0.009 -0.03,-0.013 -0.05,-0.013c-0.022,0 -0.043,0.005 -0.061,0.016c-0.018,0.011 -0.031,0.028 -0.039,0.05c-0.008,0.023 -0.013,0.056 -0.013,0.099l0,0.26l-0.137,0l0,-0.716l0.137,0Z" style="fill:rgb(96,94,115);fill-rule:nonzero;"/>            </g>        </g>        <g transform="matrix(1,0,0,1,0,-1.90992)">            <g transform="matrix(1.06171,0,0,1.06171,2.62719,-4.2833)">                <path d="M27.566,4.773c0.937,-0.126 1.89,-0.182 2.856,-0.182c13.456,0 24.38,10.924 24.38,24.38c0,13.456 -10.924,24.381 -24.38,24.381c-0.966,0 -1.919,-0.057 -2.856,-0.182l0,-20.123l-0.394,-0.012l0.394,0l0,0.012c3.017,0.017 5.307,0.36 6.869,1.019c1.63,0.687 2.906,1.717 3.827,3.091c0.921,1.374 1.405,3.528 1.452,6.462l2.622,0l0,-25.568l-2.622,0c-0.614,4.122 -1.854,6.88 -3.72,8.272c-1.804,1.347 -4.613,2.042 -8.428,2.071l0,0.018l-0.394,0l0.394,-0.018l0,-23.621Z" style="fill:rgb(96,94,115);"/>            </g>            <g transform="matrix(1.06171,0,0,1.06171,2.62719,-4.2833)">                <path d="M13.961,11.031l0,35.881c-4.874,-4.437 -7.92,-10.836 -7.92,-17.941c0,-7.104 3.046,-13.503 7.92,-17.94Z" style="fill:rgb(96,94,115);"/>            </g>            <g transform="matrix(154.074,0,0,121.119,0.372028,70.1781)">                <path d="M0.205,-0.573l0,0.207l-0.003,0l0.003,0l0,0c0.026,0 0.045,-0.006 0.058,-0.018c0.013,-0.012 0.021,-0.036 0.025,-0.073l0.018,0l0,0.225l-0.018,0c0,-0.026 -0.003,-0.045 -0.01,-0.057c-0.006,-0.012 -0.015,-0.021 -0.026,-0.027c-0.011,-0.006 -0.027,-0.009 -0.047,-0.009l0,0l-0.003,0l0.003,0l0,0.176c-0.036,-0.005 -0.069,-0.025 -0.094,-0.055l0,-0.314c0.025,-0.03 0.058,-0.05 0.094,-0.055Z" style="fill:white;"/>            </g>        </g>    </g></svg>