<?xml version="1.0" encoding="UTF-8" standalone="no"?><!DOCTYPE svg PUBLIC "-//W3C//DTD SVG 1.1//EN" "http://www.w3.org/Graphics/SVG/1.1/DTD/svg11.dtd"><svg width="100%" height="100%" viewBox="0 0 1024 512" version="1.1" xmlns="http://www.w3.org/2000/svg" xmlns:xlink="http://www.w3.org/1999/xlink" xml:space="preserve" style="fill-rule:evenodd;clip-rule:evenodd;stroke-linejoin:round;stroke-miterlimit:2;"><title>Lendy</title><desc>We're one of Europe's leading peer-to-peer secured property lending platformsAt Lendy we have a reputation for having one of the most experienced and specialist credit assessment teams in the industry, who ensure each investment loan has met our rigorous and robust lending criteria. We only offer investors loans to invest in that have been through our rigorous and streamlined due diligence, credit and legal checking.</desc>    <g transform="matrix(1.40134,0,0,1.40134,-205.57,-89.8587)">        <path d="M235,354.2c0,-1.7 5.7,-6.1 30,-23.7c61.1,-44 86.2,-65.5 94.1,-80.7c2.7,-5.3 2.5,-10.9 -0.6,-14.2c-4.7,-5.1 -10.7,-6.9 -24.3,-7.4c-15.1,-0.5 -25.5,0.7 -53.7,6.4c-12.1,2.4 -22.9,4.4 -24,4.4c-7.6,-0.2 25.8,-18.3 55.3,-30.1c50.3,-20.1 88.6,-21.8 106.2,-4.8c5.7,5.6 8,10.9 8,19c0,5.8 -0.5,7.7 -4.2,15c-7.8,15.6 -31.7,37 -64,57.3c-32.3,20.3 -79.2,43.9 -108.8,54.9c-12.6,4.6 -14,5 -14,3.9Z" style="fill:rgb(21,122,189);fill-rule:nonzero;"/>        <path d="M182,301.4c-16.6,-3 -26.6,-9.4 -31.6,-19.9c-6,-12.7 -0.2,-27.6 18.1,-45.9c22.3,-22.5 58.1,-45.7 110.4,-71.5c23.7,-11.7 51.7,-23.6 58.1,-24.7l3.5,-0.5l-4.2,3.9c-2.3,2.1 -17.6,13.6 -34,25.5c-55.7,40.5 -79.2,61 -86.9,75.9c-3.2,6.4 -3.1,9.9 0.6,14.2c4.8,5.4 9.6,6.9 24.7,7.4c15.5,0.5 27.1,-0.9 55.7,-6.9c25.2,-5.2 26.8,-5.1 17.4,1.1c-22.4,14.6 -67.2,33 -94.3,38.6c-11.4,2.3 -31.8,3.9 -37.5,2.8Z" style="fill:rgb(21,122,189);fill-rule:nonzero;"/>        <g transform="matrix(136.26,0,0,136.26,487.267,297.147)">            <path d="M0.071,0l0,-0.794c0,0 0.096,-0.014 0.099,0.074c0.008,0.183 0,0.629 0,0.629c0,0 0.324,0.008 0.283,0c0.066,0.009 0.056,0.091 0.056,0.091l-0.438,0Z" style="fill:rgb(21,123,189);fill-rule:nonzero;"/>        </g>        <g transform="matrix(136.26,0,0,136.26,556.735,297.147)">            <path d="M0.473,-0.133c0,0 0.051,0.047 0.032,0.072c-0.019,0.025 -0.059,0.044 -0.091,0.057c-0.032,0.013 -0.068,0.019 -0.109,0.019c-0.083,0 -0.147,-0.027 -0.192,-0.081c-0.045,-0.053 -0.067,-0.121 -0.067,-0.203c0,-0.084 0.023,-0.153 0.071,-0.209c0.048,-0.055 0.109,-0.082 0.184,-0.082c0.042,0 0.079,0.008 0.113,0.026c0.033,0.018 0.06,0.046 0.079,0.084c0.02,0.038 0.022,0.091 0.022,0.159l0,0.03l-0.38,0c0,0.058 0.016,0.106 0.047,0.144c0.032,0.038 0.075,0.057 0.131,0.057c0.04,0 0.069,-0.008 0.088,-0.024c0.018,-0.015 0.072,-0.049 0.072,-0.049Zm-0.332,-0.197l0.287,0l0,-0.011c0,-0.025 0.001,-0.049 -0.011,-0.073c-0.012,-0.025 -0.029,-0.042 -0.05,-0.054c-0.022,-0.011 -0.047,-0.017 -0.076,-0.017c-0.033,0 -0.064,0.014 -0.093,0.041c-0.029,0.027 -0.048,0.065 -0.057,0.114Z" style="fill:rgb(21,123,189);fill-rule:nonzero;"/>        </g>        <g transform="matrix(136.26,0,0,136.26,636.132,297.147)">            <path d="M0.162,0l-0.091,0l0,-0.56c0,0 0.097,-0.006 0.091,0.05c0,0.005 0,0.022 0,0.022c0.02,-0.029 0.031,-0.029 0.049,-0.044c0.018,-0.014 0.044,-0.017 0.064,-0.025c0.02,-0.007 0.042,-0.003 0.066,-0.003c0.034,0 0.065,0.006 0.092,0.02c0.027,0.014 0.048,0.035 0.063,0.062c0.015,0.027 0.023,0.071 0.023,0.131l0,0.347l-0.091,0l0,-0.308c0,-0.049 -0.003,-0.084 -0.01,-0.104c-0.007,-0.02 -0.019,-0.036 -0.038,-0.048c-0.019,-0.011 -0.039,-0.017 -0.061,-0.017c-0.027,0 -0.052,0.008 -0.076,0.023c-0.025,0.016 -0.044,0.038 -0.059,0.066c-0.014,0.028 -0.022,0.068 -0.022,0.12l0,0.268Z" style="fill:rgb(21,123,189);fill-rule:nonzero;"/>        </g>        <g transform="matrix(136.26,0,0,136.26,721.6,297.147)">            <path d="M0.417,-0.847c0,0 0.107,0.003 0.106,0.075c-0.001,0.066 0,0.772 0,0.772l-0.106,0l0,-0.051c-0.018,0.036 -0.007,0.016 -0.024,0.03c-0.018,0.013 -0.037,0.023 -0.059,0.028c-0.022,0.005 -0.044,0.008 -0.066,0.008c-0.041,0 -0.079,-0.011 -0.113,-0.034c-0.035,-0.022 -0.062,-0.056 -0.081,-0.101c-0.019,-0.045 -0.028,-0.096 -0.028,-0.152c0,-0.082 0.02,-0.151 0.06,-0.206c0.04,-0.055 0.095,-0.082 0.167,-0.082c0.024,0 0.046,0.003 0.066,0.009c0.02,0.007 0.059,0.008 0.078,0.042l0,-0.338Zm0,0.574c0.004,-0.183 -0.075,-0.212 -0.123,-0.212c-0.044,0 -0.08,0.018 -0.11,0.053c-0.029,0.035 -0.043,0.088 -0.043,0.157c0,0.082 0.014,0.139 0.042,0.171c0.028,0.032 0.065,0.047 0.109,0.047c0.029,0 0.056,-0.008 0.081,-0.026c0.025,-0.017 0.041,-0.043 0.044,-0.19Z" style="fill:rgb(21,123,189);fill-rule:nonzero;"/>        </g>        <g transform="matrix(136.26,0,0,136.26,803.634,297.147)">            <path d="M0.198,-0.002l-0.183,-0.558c0,0 0.038,0.001 0.07,0.003c0.026,0.001 0.048,0.018 0.056,0.043c0.037,0.113 0.135,0.418 0.135,0.418c0,0 0.102,-0.313 0.138,-0.421c0.006,-0.021 0.027,-0.035 0.049,-0.033c0.031,0.002 0.068,0.004 0.068,0.004l-0.201,0.547c-0.03,0.073 -0.049,0.158 -0.07,0.182c-0.021,0.025 -0.043,0.049 -0.066,0.058c-0.024,0.01 -0.062,0.015 -0.101,0.015c0,0 -0.024,-0.004 -0.049,-0.007c-0.011,-0.002 -0.022,-0.009 -0.027,-0.019c-0.006,-0.011 -0.007,-0.023 -0.002,-0.034c0.012,-0.028 0.024,-0.058 0.024,-0.058c0,0 0.062,0.031 0.082,0.031c0.058,-0.001 0.064,-0.031 0.076,-0.045c0.013,-0.015 0.026,-0.066 0.043,-0.126l-0.042,0Z" style="fill:rgb(21,123,189);fill-rule:nonzero;"/>        </g>    </g></svg>