<?xml version="1.0" encoding="UTF-8" standalone="no"?><!DOCTYPE svg PUBLIC "-//W3C//DTD SVG 1.1//EN" "http://www.w3.org/Graphics/SVG/1.1/DTD/svg11.dtd"><svg width="100%" height="100%" viewBox="0 0 1024 512" version="1.1" xmlns="http://www.w3.org/2000/svg" xmlns:xlink="http://www.w3.org/1999/xlink" xml:space="preserve" style="fill-rule:evenodd;clip-rule:evenodd;stroke-linejoin:round;stroke-miterlimit:2;"><title>Crowdestor</title><desc>Crowdestor give everyone the opportunity to invest directly in real estate and business projects without the middlemen and hidden conditions or costs. With Crowdestor you can start investing from 50€ with annual interest rate from 15%. There are two type of crowdfunding models Crowdestor offer: - Classic Crowdfunding: way of raising capital for business from multiple investors by secure of pledge on it. - Equity Crowdfunding: way of raising capital for business from multiple investors by selling parts of it off.</desc>    <g id="crowdestor-512x256.svg" transform="matrix(2.21687,0,0,2.21687,-55.5761,-28.2028)">        <path d="M150.2,136.76l0,9.08c0,11 -5.48,17.22 -16,17.22c-10.52,0 -16,-6.26 -16,-17.22l0,-35.68c0,-11 5.48,-17.22 16,-17.22c10.52,0 16,6.26 16,17.22l0,6.65l-10.2,0l0,-7.36c0,-4.93 -2.19,-6.73 -5.56,-6.73c-3.37,0 -5.56,1.88 -5.56,6.73l0,37c0,4.93 2.19,6.65 5.56,6.65c3.37,0 5.56,-1.8 5.56,-6.65l0,-9.7l10.2,0.01Zm26.45,25.51c-0.63,-1.8 -1,-2.82 -1,-8.45l0,-10.72c0,-6.34 -2.19,-8.69 -7,-8.69l-3.76,0l0,27.94l-10.89,0l0,-68.63l16.28,0c11.19,0 16,5.17 16,15.81l0,5.4c0,7 -2.27,11.66 -7,13.93c5.4,2.27 7.12,7.43 7.12,14.63l0,10.56c0,3.37 0.08,5.79 1.17,8.3l-10.92,0l0,-0.08Zm-11.74,-58.77l0,21.05l4.23,0c4,0 6.5,-1.8 6.5,-7.28l0,-6.73c0,-4.93 -1.64,-7 -5.48,-7l-5.25,-0.04Zm25,6.65c0,-11 5.79,-17.22 16.36,-17.22c10.57,0 16.36,6.26 16.36,17.22l0,35.69c0,11 -5.79,17.22 -16.36,17.22c-10.57,0 -16.27,-6.26 -16.27,-17.22l-0.09,-35.69Zm10.8,36.39c0,4.93 2.19,6.73 5.56,6.73c3.37,0 5.56,-1.88 5.56,-6.73l0,-37c0,-4.93 -2.19,-6.73 -5.56,-6.73c-3.37,0 -5.56,1.88 -5.56,6.73l0,37Zm50.09,-20.82l-3.91,36.55l-14.76,0l-7.67,-68.55l10.49,0l5.79,54.08l5.17,-54.08l10.41,0l5.4,54.47l5.56,-54.47l9.39,0l-7.67,68.56l-14.33,0l-3.83,-36.55l-0.04,-0.01Zm28.64,-32l17.06,0c10.8,0 16,5.95 16,17l0,34.67c0,11 -5.32,17 -16,17l-17.02,0l-0.04,-68.67Zm10.8,9.78l0,49l6.1,0c3.44,0 5.48,-1.8 5.48,-6.65l0,-35.69c0,-4.93 -2,-6.65 -5.48,-6.65l-6.1,-0.01Zm37.25,19.09l14.79,0l0,9.78l-14.75,0l0,20.11l18.63,0l0,9.78l-29.43,0l0,-68.54l29.42,0l0,9.78l-18.62,0l-0.04,19.09Zm37.21,-29.65c10.49,0 15.89,6.26 15.89,17.22l0,2.19l-10.18,0l0,-2.82c0,-4.93 -2,-6.73 -5.4,-6.73c-3.4,0 -5.4,1.88 -5.4,6.73c0,14.09 21.05,16.75 21.05,36.31c0,11 -5.48,17.22 -16,17.22c-10.52,0 -16,-6.26 -16,-17.22l0,-4.23l10.17,0l0,4.93c0,4.93 2.19,6.65 5.56,6.65c3.37,0 5.56,-1.8 5.56,-6.65c0,-14.09 -21.05,-16.75 -21.05,-36.31c-0.09,-11.03 5.31,-17.29 15.8,-17.29Zm16.36,0.78l33.34,0l0,9.78l-11.28,0l0,58.77l-10.8,0l0,-58.76l-11.26,0l0,-9.79Zm34.43,16.43c0,-11 5.79,-17.22 16.36,-17.22c10.57,0 16.36,6.26 16.36,17.22l0,35.69c0,11 -5.79,17.22 -16.36,17.22c-10.57,0 -16.36,-6.26 -16.36,-17.22l0,-35.69Zm10.8,36.39c0,4.93 2.19,6.73 5.56,6.73c3.37,0 5.56,-1.88 5.56,-6.73l0,-37c0,-4.93 -2.19,-6.73 -5.56,-6.73c-3.37,0 -5.56,1.88 -5.56,6.73l0,37Zm48.71,15.74c-0.63,-1.8 -1,-2.82 -1,-8.45l0,-10.73c0,-6.34 -2.19,-8.69 -7,-8.69l-3.76,0l0,27.94l-10.73,0l0,-68.63l16.28,0c11.19,0 16,5.17 16,15.81l0,5.4c0,7 -2.27,11.66 -7,13.93c5.4,2.27 7.12,7.43 7.12,14.63l0,10.56c0,3.37 0.08,5.79 1.17,8.3l-11.08,0l0,-0.07Zm-11.74,-58.77l0,21.05l4.23,0c4,0 6.5,-1.8 6.5,-7.28l0,-6.73c0,-4.93 -1.64,-7 -5.48,-7l-5.25,-0.04Z" style="fill:rgb(48,51,54);fill-rule:nonzero;"/>        <path d="M110.52,102.53c-0.218,-8.819 -7.533,-15.956 -16.355,-15.956c-8.822,0 -16.137,7.137 -16.355,15.956l0,0.39l-20.59,5.48c-2.641,-5.843 -8.486,-9.615 -14.898,-9.615c-8.97,0 -16.35,7.381 -16.35,16.35c0,8.97 7.38,16.35 16.35,16.35c2.476,0 4.921,-0.562 7.148,-1.645l16.43,16.43c-1.128,2.232 -1.717,4.699 -1.72,7.2c0.002,8.973 7.387,16.356 16.36,16.356c8.975,0 16.36,-7.386 16.36,-16.36c0,-5.467 -2.74,-10.585 -7.29,-13.616l5.63,-21.05c8.544,-0.531 15.286,-7.71 15.28,-16.27Zm-30,34.59c-3.886,0.001 -7.649,1.375 -10.62,3.88l-15.18,-15.15c2.593,-2.967 4.016,-6.78 4,-10.72l0,-0.31l20.58,-5.56c1.823,4.077 5.252,7.224 9.47,8.69l-5.24,19.49c-0.983,-0.188 -1.98,-0.295 -2.98,-0.32l-0.03,0Z" style="fill:rgb(254,224,0);fill-rule:nonzero;"/>    </g></svg>