<?xml version="1.0" encoding="UTF-8" standalone="no"?><!DOCTYPE svg PUBLIC "-//W3C//DTD SVG 1.1//EN" "http://www.w3.org/Graphics/SVG/1.1/DTD/svg11.dtd"><svg width="100%" height="100%" viewBox="0 0 1024 512" version="1.1" xmlns="http://www.w3.org/2000/svg" xmlns:xlink="http://www.w3.org/1999/xlink" xml:space="preserve" style="fill-rule:evenodd;clip-rule:evenodd;stroke-linejoin:round;stroke-miterlimit:2;"><title>Octopus Choice</title><desc>Octopus Investments is the market leader in venture capital trust and inheritance tax investments. We also offer a range of investment funds that draw on our deep experience in smaller company and multi-manager investing.Octopus Choice, the peer-to-peer product that lets you invest in property-backed loans, is offered through Octopus Co-Lend. Through Octopus Co-Lend we also provide Octopus Cash, an easy-to-use cash management platform that advisers can use to get investors top tier savings rates.</desc>    <g id="Group_689" transform="matrix(9.72461,0,0,9.72519,2.02334,68.3174)">        <g id="Group_684" transform="matrix(1,0,0,1,20.73,27.328)">            <g id="Path_389" transform="matrix(1,0,0,1,-401.8,-556.445)">                <path d="M409.183,561.413c0.003,0.061 0.004,0.121 0.004,0.182c0,2.027 -1.667,3.695 -3.695,3.695c-2.027,0 -3.695,-1.668 -3.695,-3.695c0,-2.027 1.668,-3.695 3.695,-3.695c0.001,0 0.001,0 0.002,0c0.048,-0.002 0.095,-0.003 0.143,-0.003c1.934,0 3.53,1.582 3.546,3.516Zm-3.694,2.265c1.154,-0.01 2.097,-0.961 2.097,-2.115c0,-0.033 0,-0.065 -0.002,-0.098c0.004,-0.051 0.006,-0.101 0.006,-0.152c0,-1.152 -0.948,-2.1 -2.1,-2.1c-1.153,0 -2.1,0.948 -2.1,2.1c0,0.051 0.001,0.101 0.005,0.152c-0.002,0.034 -0.002,0.068 -0.002,0.102c0,1.153 0.943,2.103 2.096,2.111Z" style="fill:rgb(27,7,58);fill-rule:nonzero;"/>            </g>            <g id="Path_390" transform="matrix(1,0,0,1,-730.898,-556.445)">                <path d="M756.183,561.413c0.003,0.061 0.004,0.121 0.004,0.182c0,2.027 -1.667,3.695 -3.695,3.695c-2.027,0 -3.695,-1.668 -3.695,-3.695c0,-2.027 1.668,-3.695 3.695,-3.695c0.001,0 0.001,0 0.002,0c0.048,-0.002 0.095,-0.003 0.143,-0.003c1.934,0 3.53,1.582 3.546,3.516Zm-3.694,2.265c1.154,-0.01 2.097,-0.961 2.097,-2.115c0,-0.033 0,-0.065 -0.002,-0.098c0.004,-0.051 0.006,-0.101 0.006,-0.152c0,-1.152 -0.948,-2.1 -2.1,-2.1c-1.153,0 -2.1,0.948 -2.1,2.1c0,0.051 0.001,0.101 0.005,0.152c-0.002,0.034 -0.002,0.068 -0.002,0.102c0,1.153 0.943,2.103 2.096,2.111Z" style="fill:rgb(27,7,58);fill-rule:nonzero;"/>            </g>            <g id="Path_391" transform="matrix(1,0,0,1,-1016.37,-556.136)">                <path d="M1049.8,561.811l0,-3.431c0.129,-0.985 1.522,-0.459 1.522,-0.459l0,3.679c0.032,0.94 0.814,1.696 1.754,1.696c0.94,0 1.722,-0.756 1.754,-1.696c0.032,-0.94 0.005,-2.513 0.005,-3.219c0.129,-0.985 1.522,-0.459 1.522,-0.459l0,2.363c0.074,1.636 1.356,2.981 2.987,3.132c2.776,0.382 2.533,-0.753 2.533,-0.753c-0.072,-0.573 -0.5,-0.7 -1.238,-0.8c-0.459,-0.057 -0.856,-0.1 -0.856,-0.1c-2.977,-0.186 -2.683,-2.151 -2.683,-2.151c0.073,-0.985 0.836,-1.789 1.816,-1.914c0.884,-0.172 1.793,-0.174 2.678,-0.005c2.44,0.511 1.238,1.666 1.037,1.733c-0.633,-0.452 -1.394,-0.691 -2.172,-0.681c-1.873,-0.119 -1.842,0.764 -1.842,0.764c-0.062,0.645 0.764,0.764 0.764,0.764l2.007,0.279c2.373,0.33 2.084,2.012 2.084,2.012c-0.155,2.1 -2.662,2.12 -2.662,2.12c-3.431,0.2 -4.721,-1.584 -4.721,-1.584c-0.599,1.093 -1.8,1.723 -3.039,1.594c-1.9,0 -3.245,-1.068 -3.245,-2.982" style="fill:rgb(27,7,58);fill-rule:nonzero;"/>            </g>            <g id="Path_392" transform="matrix(1,0,0,1,-545.682,-529.7)">                <path d="M556.815,531.268c-1.832,0.124 -3.274,1.666 -3.274,3.503c0,1.926 1.585,3.511 3.511,3.511c0.08,0 0.159,-0.003 0.238,-0.008c0.369,-0.002 0.737,-0.036 1.1,-0.1l0,-1.357c-0.352,0.057 -0.707,0.089 -1.063,0.093c-0.026,0.001 -0.052,0.001 -0.078,0.001c-1.171,0 -2.135,-0.963 -2.135,-2.135c0,-0.004 0,-0.008 0,-0.012c0.006,-1.179 0.978,-2.147 2.157,-2.147c0.019,0 0.037,0.001 0.056,0.001l2.451,0l0.005,3.359c0,0 -0.175,2.843 3.415,2.249l0,-1.352c-1.992,0.428 -1.888,-0.825 -1.888,-0.825l0,-3.421l1.89,0l0,-1.341l-1.888,0l0,-1.587l-1.532,0l0,1.584l-2.965,-0.016Z" style="fill:rgb(27,7,58);fill-rule:nonzero;"/>            </g>            <g id="Path_393" transform="matrix(1,0,0,1,-874.866,-556.427)">                <path d="M902.122,567.039c-0.129,0.985 -1.522,0.459 -1.522,0.459l0,-6.057c0.041,-1.959 1.663,-3.548 3.622,-3.548c1.94,0 3.553,1.558 3.621,3.496c0.004,0.07 0.007,0.14 0.007,0.21c0,1.858 -1.529,3.387 -3.387,3.387c-0.091,0 -0.182,-0.004 -0.273,-0.011c-0.807,-0.021 -1.565,-0.397 -2.069,-1.027c0.006,0.006 0.001,2.389 0.001,3.091Zm2.064,-3.374c1.143,-0.012 2.077,-0.957 2.077,-2.1c0,-0.038 -0.001,-0.075 -0.003,-0.113c0.003,-0.043 0.004,-0.086 0.004,-0.129c0,-1.14 -0.938,-2.078 -2.078,-2.078c-1.14,0 -2.078,0.938 -2.078,2.078c0,0.043 0.001,0.086 0.004,0.129c-0.002,0.038 -0.003,0.075 -0.003,0.113c0,1.143 0.934,2.088 2.077,2.1Z" style="fill:rgb(27,7,58);fill-rule:nonzero;"/>            </g>        </g>        <g id="Group_687">            <path id="Path_406" d="M17.263,18.181c-0.282,0.198 -0.574,0.379 -0.877,0.542c-0.46,0.248 -0.939,0.457 -1.434,0.624c-0.663,0.228 -1.343,0.406 -2.033,0.531c-0.873,0.157 -1.76,0.231 -2.647,0.222c-1.343,0.009 -2.678,-0.202 -3.952,-0.624c-1.207,-0.396 -2.32,-1.034 -3.271,-1.876c-0.961,-0.865 -1.721,-1.929 -2.229,-3.118c-0.572,-1.377 -0.852,-2.858 -0.82,-4.349c-0.027,-1.472 0.243,-2.935 0.795,-4.3c0.492,-1.2 1.233,-2.282 2.172,-3.176c0.932,-0.872 2.032,-1.544 3.233,-1.976c1.279,-0.462 2.629,-0.692 3.989,-0.681c0.689,-0.005 1.377,0.041 2.059,0.139c0.552,0.078 1.097,0.199 1.63,0.361c0.416,0.125 0.821,0.284 1.212,0.475c0.335,0.165 0.6,0.315 0.81,0.444c0.376,0.258 0.689,0.597 0.918,0.991c0.183,0.328 0.28,0.697 0.282,1.072c0.002,0.344 -0.068,0.685 -0.206,1c-0.131,0.303 -0.299,0.589 -0.5,0.851c-0.176,0.229 -0.371,0.443 -0.583,0.64c-0.149,0.142 -0.311,0.268 -0.485,0.377c-0.186,-0.186 -0.423,-0.4 -0.712,-0.655c-0.316,-0.271 -0.667,-0.5 -1.042,-0.681c-0.451,-0.222 -0.923,-0.4 -1.408,-0.531c-0.577,-0.155 -1.173,-0.23 -1.77,-0.222c-0.762,-0.011 -1.518,0.125 -2.229,0.4c-0.659,0.261 -1.253,0.662 -1.742,1.174c-0.504,0.532 -0.892,1.163 -1.14,1.852c-0.278,0.787 -0.413,1.617 -0.4,2.451c-0.016,0.838 0.135,1.671 0.444,2.451c0.275,0.671 0.692,1.275 1.223,1.77c0.535,0.483 1.165,0.848 1.85,1.072c0.751,0.247 1.537,0.369 2.327,0.361c0.912,0.02 1.82,-0.112 2.688,-0.392c0.606,-0.189 1.182,-0.462 1.713,-0.81l2.089,3.591l0.046,0Z" style="fill:rgb(27,7,58);fill-rule:nonzero;"/>            <g id="Path_407" transform="matrix(1,0,0,1,-358.783,-9.294)">                <path d="M378.3,28.894l0,-17.035c-0.065,-0.612 0.189,-1.217 0.671,-1.6c0.525,-0.326 1.136,-0.486 1.754,-0.459c0.485,-0.005 0.969,0.062 1.434,0.2c0.418,0.129 0.681,0.212 0.795,0.253l0,6.542l7.4,0l0,-4.936c-0.065,-0.612 0.189,-1.217 0.671,-1.6c0.525,-0.327 1.136,-0.487 1.754,-0.459c0.485,-0.005 0.969,0.062 1.434,0.2c0.418,0.129 0.681,0.212 0.794,0.253l0,18.647l-4.654,0l0,-7.719l-7.409,0l0,7.713l-4.644,0Z" style="fill:rgb(27,7,58);fill-rule:nonzero;"/>            </g>            <g id="Path_408" transform="matrix(1,0,0,1,-722.213,0)">                <path d="M761.5,10.05c-0.02,-2.686 1.058,-5.266 2.982,-7.14c0.95,-0.913 2.065,-1.636 3.286,-2.131c2.608,-1.038 5.518,-1.038 8.126,0c1.222,0.493 2.338,1.216 3.286,2.131c1.924,1.874 3.002,4.454 2.982,7.14c0.02,2.686 -1.058,5.266 -2.982,7.14c-0.948,0.915 -2.064,1.638 -3.286,2.131c-2.61,1.038 -5.521,1.038 -8.131,0c-1.222,-0.493 -2.338,-1.216 -3.286,-2.131c-1.925,-1.873 -3.002,-4.454 -2.977,-7.14Zm10.329,5.711c0.755,0.009 1.505,-0.138 2.2,-0.433c0.655,-0.278 1.244,-0.691 1.728,-1.212c0.487,-0.528 0.87,-1.142 1.13,-1.811c0.273,-0.72 0.409,-1.485 0.4,-2.255c0.008,-0.775 -0.128,-1.545 -0.4,-2.27c-0.253,-0.672 -0.637,-1.288 -1.13,-1.811c-0.488,-0.514 -1.076,-0.923 -1.728,-1.2c-1.409,-0.579 -2.991,-0.579 -4.4,0c-0.652,0.277 -1.24,0.686 -1.728,1.2c-0.491,0.524 -0.875,1.14 -1.13,1.811c-0.272,0.725 -0.408,1.495 -0.4,2.27c-0.009,0.77 0.127,1.535 0.4,2.255c0.258,0.67 0.642,1.285 1.13,1.811c0.484,0.521 1.073,0.934 1.728,1.212c0.695,0.295 1.445,0.442 2.2,0.433Z" style="fill:rgb(27,7,58);fill-rule:nonzero;"/>            </g>            <g id="Path_409" transform="matrix(1,0,0,1,-1158.29,-9.294)">                <path d="M1221.3,28.894l0,-17.035c-0.065,-0.612 0.189,-1.217 0.671,-1.6c0.525,-0.326 1.136,-0.486 1.754,-0.459c0.485,-0.005 0.969,0.062 1.434,0.2c0.418,0.129 0.681,0.212 0.795,0.253l0,18.647l-4.654,0l0,-0.006Z" style="fill:rgb(27,7,58);fill-rule:nonzero;"/>            </g>            <g id="Path_410" transform="matrix(1,0,0,1,-1300.08,-0.095)">                <path d="M1388.06,18.276c-0.282,0.198 -0.574,0.379 -0.877,0.542c-0.46,0.248 -0.939,0.457 -1.434,0.624c-0.663,0.228 -1.343,0.406 -2.033,0.531c-0.873,0.157 -1.76,0.231 -2.647,0.222c-1.343,0.009 -2.678,-0.202 -3.952,-0.624c-1.207,-0.397 -2.32,-1.036 -3.271,-1.878c-0.96,-0.865 -1.721,-1.928 -2.229,-3.116c-0.572,-1.375 -0.852,-2.855 -0.82,-4.344c-0.027,-1.472 0.243,-2.935 0.794,-4.3c0.493,-1.199 1.233,-2.28 2.172,-3.173c0.933,-0.872 2.033,-1.545 3.234,-1.979c1.279,-0.462 2.63,-0.692 3.989,-0.681c0.689,-0.005 1.376,0.041 2.058,0.139c0.552,0.078 1.097,0.199 1.63,0.361c0.416,0.125 0.821,0.284 1.212,0.475c0.335,0.165 0.6,0.315 0.81,0.444c0.376,0.258 0.689,0.597 0.918,0.991c0.182,0.329 0.278,0.698 0.279,1.073c0.002,0.344 -0.068,0.685 -0.206,1c-0.131,0.303 -0.299,0.589 -0.5,0.851c-0.176,0.229 -0.371,0.443 -0.583,0.64c-0.149,0.142 -0.311,0.268 -0.485,0.377c-0.186,-0.186 -0.423,-0.4 -0.712,-0.655c-0.316,-0.271 -0.667,-0.5 -1.042,-0.681c-0.451,-0.222 -0.923,-0.4 -1.409,-0.531c-0.577,-0.155 -1.173,-0.23 -1.77,-0.222c-0.762,-0.011 -1.518,0.125 -2.229,0.4c-0.657,0.26 -1.25,0.66 -1.739,1.171c-0.504,0.532 -0.892,1.163 -1.14,1.852c-0.278,0.787 -0.413,1.617 -0.4,2.451c-0.016,0.838 0.135,1.671 0.444,2.451c0.275,0.671 0.692,1.275 1.223,1.77c0.536,0.483 1.166,0.849 1.852,1.073c0.751,0.247 1.537,0.369 2.327,0.361c0.912,0.02 1.82,-0.113 2.688,-0.392c0.606,-0.189 1.182,-0.462 1.713,-0.81l2.09,3.591l0.046,0l-0.001,-0.004Z" style="fill:rgb(27,7,58);fill-rule:nonzero;"/>            </g>            <g id="Path_411" transform="matrix(1,0,0,1,-1658.77,-9.2)">                <path d="M1749.01,12.347c0,-1.765 0.918,-2.647 2.755,-2.647l9.524,0c0.654,-0.064 1.308,0.131 1.821,0.542c0.386,0.429 0.582,0.998 0.542,1.574c0.006,0.469 -0.069,0.935 -0.222,1.378c-0.095,0.294 -0.215,0.579 -0.361,0.851l-9.41,0l0,2.977l7.269,0c0.654,-0.064 1.308,0.131 1.821,0.542c0.386,0.429 0.582,0.998 0.542,1.574c0.006,0.469 -0.069,0.935 -0.222,1.378c-0.095,0.294 -0.215,0.579 -0.361,0.851l-9.049,0l0,3.09l9.854,0l0,4.343l-14.508,0l0,-16.453l0.005,0Z" style="fill:rgb(27,7,58);fill-rule:nonzero;"/>            </g>        </g>        <g id="Group_688" transform="matrix(1,0,0,1,1.181,25.595)">            <g id="Path_412" transform="matrix(1,0,0,1,-22.9,-496.1)">                <path d="M22.9,496.564c-0.004,-0.123 0.038,-0.243 0.119,-0.335c0.101,-0.096 0.239,-0.143 0.377,-0.129c0.082,-0.001 0.164,0.011 0.242,0.036c0.059,0.014 0.116,0.035 0.17,0.062l0,4.421c0.297,-0.418 0.687,-0.76 1.14,-1c0.467,-0.252 0.991,-0.382 1.522,-0.377c0.503,-0.005 1.002,0.088 1.47,0.273c0.432,0.175 0.825,0.435 1.156,0.764c0.321,0.328 0.575,0.715 0.748,1.14c0.182,0.447 0.273,0.926 0.268,1.408c0.008,0.945 -0.357,1.856 -1.016,2.533c-0.329,0.332 -0.723,0.593 -1.156,0.769c-0.466,0.191 -0.966,0.287 -1.47,0.284c-0.434,0.004 -0.867,-0.064 -1.279,-0.2c-0.378,-0.126 -0.731,-0.318 -1.042,-0.567c-0.307,-0.251 -0.563,-0.56 -0.753,-0.908c-0.209,-0.376 -0.354,-0.784 -0.428,-1.207c-0.021,-0.129 -0.036,-0.279 -0.046,-0.444c-0.01,-0.165 -0.021,-0.366 -0.021,-0.583l-0.001,-5.94Zm6.232,6.263c0.002,-0.375 -0.06,-0.747 -0.186,-1.1c-0.117,-0.333 -0.299,-0.639 -0.537,-0.9c-0.233,-0.257 -0.518,-0.462 -0.836,-0.6c-0.706,-0.283 -1.494,-0.283 -2.2,0c-0.318,0.138 -0.603,0.343 -0.836,0.6c-0.235,0.263 -0.419,0.569 -0.542,0.9c-0.129,0.352 -0.194,0.725 -0.191,1.1c-0.004,0.382 0.06,0.761 0.191,1.12c0.119,0.329 0.304,0.631 0.542,0.887c0.235,0.25 0.52,0.449 0.836,0.583c0.346,0.147 0.718,0.22 1.094,0.212c0.378,0.007 0.754,-0.069 1.1,-0.222c0.317,-0.14 0.602,-0.344 0.836,-0.6c0.237,-0.258 0.42,-0.562 0.537,-0.893c0.127,-0.348 0.192,-0.716 0.192,-1.086l0,-0.001Z" style="fill:rgb(27,7,58);fill-rule:nonzero;"/>            </g>            <g id="Path_413" transform="matrix(1,0,0,1,-181.758,-557.557)">                <path d="M196.782,567.179c0.012,0.522 -0.072,1.041 -0.248,1.532c-0.294,0.811 -0.967,1.43 -1.8,1.656c-0.466,0.134 -0.949,0.198 -1.434,0.191c-0.574,0.012 -1.148,-0.045 -1.708,-0.17c-0.324,-0.073 -0.643,-0.168 -0.954,-0.284l0.263,-0.712c0.286,0.105 0.579,0.189 0.877,0.253c0.497,0.107 1.004,0.156 1.512,0.145c0.33,0.001 0.658,-0.035 0.98,-0.108c0.302,-0.066 0.586,-0.198 0.831,-0.387c0.25,-0.199 0.445,-0.458 0.568,-0.753c0.152,-0.384 0.224,-0.794 0.212,-1.207l0,-0.635c-0.201,0.371 -0.517,0.668 -0.9,0.846c-0.467,0.225 -0.981,0.337 -1.5,0.325c-0.838,0.057 -1.664,-0.226 -2.291,-0.784c-0.549,-0.569 -0.837,-1.341 -0.795,-2.131l0,-3.6c-0.004,-0.123 0.038,-0.243 0.119,-0.335c0.101,-0.096 0.239,-0.143 0.377,-0.129c0.082,-0.001 0.164,0.011 0.242,0.036c0.059,0.014 0.116,0.035 0.17,0.062l0,3.777c-0.037,0.616 0.154,1.224 0.537,1.708c0.445,0.442 1.063,0.665 1.687,0.609c0.658,0.053 1.307,-0.189 1.77,-0.66c0.41,-0.507 0.616,-1.149 0.578,-1.8l0,-3.266c-0.004,-0.123 0.038,-0.243 0.119,-0.335c0.101,-0.096 0.239,-0.143 0.377,-0.129c0.082,-0.001 0.164,0.011 0.242,0.036c0.059,0.014 0.116,0.035 0.17,0.062l0,6.181l-0.001,0.006Z" style="fill:rgb(27,7,58);fill-rule:nonzero;"/>            </g>        </g>    </g></svg>