<?xml version="1.0" encoding="UTF-8" standalone="no"?><!DOCTYPE svg PUBLIC "-//W3C//DTD SVG 1.1//EN" "http://www.w3.org/Graphics/SVG/1.1/DTD/svg11.dtd"><svg width="100%" height="100%" viewBox="0 0 1024 512" version="1.1" xmlns="http://www.w3.org/2000/svg" xmlns:xlink="http://www.w3.org/1999/xlink" xml:space="preserve" style="fill-rule:evenodd;clip-rule:evenodd;stroke-linejoin:round;stroke-miterlimit:2;"><title>Beesfund</title><desc>Beesfund.com is the first equity based crowdfunding platform in Poland. It enables idea originators to encourage Internet users to raise capital to carry out their own business, social and cultural ventures.</desc>    <g transform="matrix(1,0,0,1,2,130.533)">        <g transform="matrix(1.81377,0,0,1.81377,-29.6478,-23.617)">            <path d="M108.58,115.502l0,25.62l-20.497,10.249l-20.496,-10.249l0,-25.62l20.496,-10.248l20.497,10.248Zm-51.241,0l0,25.62l-20.496,10.249l-20.497,-10.249l0,-25.62l20.497,-10.248l20.496,10.248Zm25.619,-46.116l0,25.62l-20.496,10.248l-20.495,-10.248l0,-25.62l20.495,-10.248l20.496,10.248Zm51.242,0l0,25.62l-20.496,10.248l-20.497,-10.248l0,-25.62l20.497,-10.248l20.496,10.248Zm-25.62,-46.117l0,25.62l-20.497,10.249l-20.496,-10.249l0,-25.62l20.496,-10.248l20.497,10.248Zm51.24,92.233l0,25.62l-20.496,10.249l-20.496,-10.249l0,-25.62l20.496,-10.248l20.496,10.248Z" style="fill:rgb(251,186,0);fill-rule:nonzero;"/>        </g>        <g transform="matrix(1.81377,0,0,1.81377,-29.6478,-23.617)">            <path d="M185.44,49.266l11.944,0l0,20.595c0,2.352 -0.189,4.044 -0.189,4.044l0.189,0c0,0 4.231,-6.959 14.387,-6.959c12.978,0 21.255,10.25 21.255,25.109c0,15.235 -9.311,25.109 -22.006,25.109c-9.969,0 -14.294,-7.146 -14.294,-7.146l-0.188,0c0,0 0.188,1.41 0.188,3.291l0,2.728l-11.286,0l0,-66.771Zm23.511,57.836c6.583,0 12.038,-5.36 12.038,-14.858c0,-9.122 -4.891,-15.047 -11.943,-15.047c-6.208,0 -12.037,4.514 -12.037,15.141c-0.001,7.429 3.949,14.764 11.942,14.764Zm55.261,-40.156c13.823,0 21.253,10.062 21.253,22.758c0,1.411 -0.282,4.608 -0.282,4.608l-33.103,0c0.751,8.369 7.241,12.695 14.389,12.695c7.711,0 13.824,-5.267 13.824,-5.267l4.607,8.559c0,0 -7.335,6.864 -19.278,6.864c-15.893,0 -25.767,-11.473 -25.767,-25.109c0.001,-14.763 10.063,-25.108 24.357,-25.108Zm9.216,19.185c-0.188,-6.489 -4.231,-9.969 -9.498,-9.969c-6.113,0 -10.345,3.762 -11.473,9.969l20.971,0Zm43.223,-19.185c13.824,0 21.255,10.062 21.255,22.758c0,1.411 -0.282,4.608 -0.282,4.608l-33.104,0c0.752,8.369 7.241,12.695 14.389,12.695c7.711,0 13.824,-5.267 13.824,-5.267l4.608,8.559c0,0 -7.337,6.864 -19.279,6.864c-15.894,0 -25.768,-11.473 -25.768,-25.109c0,-14.763 10.063,-25.108 24.357,-25.108Zm9.217,19.185c-0.188,-6.489 -4.232,-9.969 -9.499,-9.969c-6.111,0 -10.345,3.762 -11.473,9.969l20.972,0Zm22.893,15.61c0,0 5.267,5.267 13.072,5.267c3.387,0 6.302,-1.504 6.302,-4.326c0,-7.146 -23.323,-6.207 -23.323,-21.63c0,-8.934 7.994,-14.106 18.34,-14.106c10.813,0 16.081,5.454 16.081,5.454l-4.421,8.841c0,0 -4.42,-4.138 -11.755,-4.138c-3.104,0 -6.112,1.316 -6.112,4.326c0,6.771 23.322,5.924 23.322,21.347c0,7.994 -6.96,14.389 -18.338,14.389c-11.944,0 -18.621,-7.053 -18.621,-7.053l5.453,-8.371Zm43.883,-23.416l-5.924,0l0,-9.498l5.924,0l0,-2.163c0,-15.705 12.885,-17.774 19.562,-17.774c2.445,0 4.044,0.282 4.044,0.282l0,10.157c0,0 -1.035,-0.188 -2.445,-0.188c-3.386,0 -9.216,0.846 -9.216,7.806l0,1.881l10.25,0l0,9.498l-10.25,0l0,37.711l-11.944,0l0,-37.712l-0.001,0Zm29.613,-10.251l11.943,0l0,28.401c0,5.831 1.505,9.781 7.429,9.781c8.653,0 13.449,-7.617 13.449,-16.176l0,-22.006l11.943,0l0,47.962l-11.473,0l0,-5.454c0,-1.881 0.188,-3.387 0.188,-3.387l-0.188,0c-2.352,4.985 -8.465,9.969 -16.646,9.969c-10.251,0 -16.646,-5.172 -16.646,-18.243l0,-30.847l0.001,0Zm55.453,0l11.473,0l0,5.549c-0.002,1.1 -0.065,2.199 -0.188,3.292l0.188,0c2.069,-4.044 7.336,-9.969 17.022,-9.969c10.626,0 16.646,5.549 16.646,18.245l0,30.846l-11.85,0l0,-28.402c0,-5.831 -1.505,-9.78 -7.618,-9.78c-6.395,0 -11.097,4.043 -12.884,9.78c-0.658,1.976 -0.847,4.138 -0.847,6.396l0,22.006l-11.942,0l0,-47.963Zm75.141,-1.128c10.532,0 13.824,6.113 13.824,6.113l0.188,0c0,0 -0.094,-1.223 -0.094,-2.728l0,-21.065l11.943,0l0,66.771l-11.286,0l0,-3.95c0,-1.786 0.189,-3.104 0.189,-3.104l-0.189,0c0,0 -4.043,8.182 -15.047,8.182c-12.978,0 -21.253,-10.25 -21.253,-25.109c0,-15.236 9.027,-25.11 21.725,-25.11Zm2.255,40.156c6.207,0 12.037,-4.514 12.037,-15.141c0,-7.43 -3.949,-14.765 -11.942,-14.765c-6.583,0 -12.038,5.361 -12.038,14.858c0,9.124 4.89,15.048 11.943,15.048Z" style="fill:rgb(251,186,0);fill-rule:nonzero;"/>        </g>    </g></svg>