<?xml version="1.0" encoding="UTF-8" standalone="no"?><!DOCTYPE svg PUBLIC "-//W3C//DTD SVG 1.1//EN" "http://www.w3.org/Graphics/SVG/1.1/DTD/svg11.dtd"><svg width="100%" height="100%" viewBox="0 0 1024 512" version="1.1" xmlns="http://www.w3.org/2000/svg" xmlns:xlink="http://www.w3.org/1999/xlink" xml:space="preserve" style="fill-rule:evenodd;clip-rule:evenodd;stroke-linecap:round;stroke-linejoin:round;stroke-miterlimit:1.5;"><title>Kensington Crowd</title><desc>Kensington Family Office AG concentrates on the selection and acquisition of real estate projects and selected start-up companies. The Kensington Crowd investment platform offers investors the opportunity to use their money in the form of inter- est-bearing subordinated loans to finance real estate projects and young companies.</desc>    <g transform="matrix(1,0,0,1,59.6407,-177.5)">        <g transform="matrix(0.657774,0,0,0.657774,61.6416,61.4163)">            <g transform="matrix(0.959525,0,0,0.976744,34.0728,15.8605)">                <rect x="324" y="166" width="517.819" height="516" style="fill:white;stroke:black;stroke-width:1.41px;"/>            </g>            <path d="M345.7,681.3c-0.6,-0.6 -1.1,-84.3 -0.4,-84.3c0.1,0 3.4,0.7 7.2,1.5c25.7,5.7 36.1,6.8 61.5,6.9c29.4,0 54.9,-3.3 87.9,-11.3c37.8,-9.3 79.1,-25.6 112.5,-44.5c5.4,-3.1 10,-5.6 10.2,-5.6c1.4,0 38.3,-24.1 50.9,-33.2c17.5,-12.8 26.2,-19.1 27.5,-20.1c0.8,-0.7 4.9,-3.7 9,-6.7c4.1,-3 7.7,-5.7 8,-6c0.3,-0.3 7.3,-5.9 15.5,-12.5c8.3,-6.6 15.2,-12.2 15.5,-12.5c0.3,-0.3 3.4,-3 7,-6c28.3,-23.9 62.8,-58.2 77.8,-77.2c2.5,-3.2 4.9,-5.8 5.4,-5.8c0.4,0 0.7,71.3 0.6,158.8l-0.3,158.7l-47.7,0.3l-47.8,0.2l0,-107.5c0,-59.1 -0.3,-107.5 -0.6,-107.5c-0.5,0 -8.2,5.7 -9.4,7c-2.6,2.8 -42.2,32.5 -55.7,41.9l-6.3,4.4l-0.2,80.6l-0.3,80.6l-2.8,0l-2.7,0l0,-78.2c0,-43.1 -0.2,-78.3 -0.4,-78.3c-0.2,0 -4,2.4 -8.3,5.4c-15.4,10.6 -41.6,26 -56.5,33.3l-6.8,3.3l-0.2,57.2l-0.3,57.3l-2.7,0.3c-1.8,0.2 -2.8,-0.1 -2.8,-1l0,-55.5c0,-29.9 -0.4,-54.3 -0.9,-54.3c-0.5,0 -3.5,1.2 -6.7,2.6c-3.3,1.4 -6.8,3 -7.9,3.4c-1.1,0.5 -4.9,2.1 -8.5,3.5c-3.6,1.4 -7.4,3 -8.5,3.5c-2.8,1.3 -26.7,9.5 -33.6,11.5l-5.6,1.6l-0.7,11.2c-0.4,6.2 -0.6,25.2 -0.6,42.2l0.1,31l-2.8,0l-2.8,0l-0.3,-41.3c-0.2,-38.7 -0.3,-41.3 -2,-40.8c-11,3.4 -40.2,8.9 -58.2,10.9l-11.5,1.3l-0.2,34.9l-0.2,35l-46.4,0.3c-25.5,0.1 -46.7,-0.1 -47,-0.5Z" style="fill:rgb(208,207,208);fill-rule:nonzero;"/>            <path d="M344.5,178l498.389,0l0,142.436l0.611,-0.621l0,22.851c-94.218,98.248 -310.485,207.194 -413.905,205.001c-35.58,-0.754 -63.378,-8.302 -85.095,-20.744l0,-348.923Zm166.5,333.4l0,-124.4l-71.697,64l0,74.546c20.946,-1.416 45.322,-6.379 71.697,-14.146Zm78.697,-28.809l0,-273.591l-71.697,63l0,237.287c22.828,-7.053 47.024,-16.106 71.697,-26.696Zm5.303,-2.297c23.782,-10.39 47.945,-22.171 71.697,-34.931l0,-131.363l-71.697,-62l0,228.294Zm78,-38.345c12.913,-7.053 25.682,-14.386 38.18,-21.933l-38.18,-33.016l0,54.949Z" style="fill:rgb(31,96,80);"/>        </g>        <g transform="matrix(0.657774,0,0,0.657774,49.6228,61.0874)">            <g transform="matrix(0.599155,0,0,0.599155,57.2638,288.818)">                <g transform="matrix(170.318,0,0,170.318,134,906)">                    <path d="M0.073,0l0,-0.63l0.122,0l0,0.272l0.232,-0.272l0.152,0l-0.244,0.276l0.264,0.354l-0.151,0l-0.201,-0.275l-0.052,0.056l0,0.219l-0.122,0Z" style="fill:rgb(31,96,80);fill-rule:nonzero;"/>                </g>                <g transform="matrix(170.318,0,0,170.318,303.466,906)">                    <path d="M0.073,-0.63l0.4,0l0,0.096l-0.278,0l0,0.159l0.252,0l0,0.095l-0.252,0l0,0.184l0.281,0l0,0.096l-0.403,0l0,-0.63Z" style="fill:rgb(31,96,80);fill-rule:nonzero;"/>                </g>                <g transform="matrix(170.318,0,0,170.318,457.944,906)">                    <path d="M0.073,-0.63l0.11,0l0.24,0.354c0.013,0.02 0.026,0.04 0.037,0.06c0.011,0.019 0.02,0.035 0.027,0.048l0.002,0c-0.004,-0.046 -0.006,-0.092 -0.006,-0.138l0,-0.139l0,-0.185l0.115,0l0,0.63l-0.11,0l-0.229,-0.335c-0.015,-0.023 -0.03,-0.046 -0.044,-0.071c-0.013,-0.025 -0.024,-0.045 -0.031,-0.06l-0.002,0c0.003,0.049 0.005,0.097 0.005,0.144c0.001,0.046 0.001,0.093 0.001,0.141l0,0.181l-0.115,0l0,-0.63Z" style="fill:rgb(31,96,80);fill-rule:nonzero;"/>                </g>                <g transform="matrix(170.318,0,0,170.318,639.503,906)">                    <path d="M0.268,-0.64c0.037,0 0.071,0.004 0.101,0.01c0.031,0.007 0.059,0.017 0.084,0.03l-0.028,0.094c-0.027,-0.013 -0.053,-0.023 -0.078,-0.03c-0.025,-0.007 -0.049,-0.01 -0.073,-0.01c-0.034,0 -0.06,0.007 -0.079,0.021c-0.019,0.014 -0.029,0.033 -0.029,0.057c0,0.023 0.008,0.041 0.024,0.053c0.015,0.013 0.04,0.025 0.075,0.036l0.061,0.02c0.052,0.017 0.092,0.041 0.119,0.072c0.027,0.031 0.041,0.067 0.041,0.109c0,0.027 -0.005,0.052 -0.016,0.075c-0.011,0.023 -0.026,0.042 -0.046,0.059c-0.02,0.017 -0.044,0.031 -0.073,0.04c-0.029,0.009 -0.062,0.014 -0.099,0.014c-0.036,0 -0.071,-0.004 -0.105,-0.011c-0.034,-0.007 -0.067,-0.018 -0.098,-0.033l0.028,-0.093c0.029,0.014 0.057,0.025 0.084,0.032c0.027,0.007 0.056,0.011 0.086,0.011c0.036,0 0.064,-0.007 0.085,-0.021c0.02,-0.014 0.03,-0.034 0.03,-0.061c0,-0.009 -0.002,-0.018 -0.005,-0.027c-0.003,-0.009 -0.009,-0.017 -0.017,-0.024c-0.009,-0.008 -0.02,-0.016 -0.034,-0.023c-0.015,-0.007 -0.033,-0.014 -0.056,-0.021l-0.056,-0.019c-0.046,-0.016 -0.083,-0.037 -0.11,-0.064c-0.028,-0.026 -0.042,-0.063 -0.042,-0.111c0,-0.055 0.019,-0.1 0.058,-0.134c0.039,-0.034 0.095,-0.051 0.168,-0.051Z" style="fill:rgb(31,96,80);fill-rule:nonzero;"/>                </g>                <g transform="matrix(170.318,0,0,170.318,796.365,906)">                    <rect x="0.073" y="-0.63" width="0.122" height="0.63" style="fill:rgb(31,96,80);fill-rule:nonzero;"/>                </g>                <g transform="matrix(170.318,0,0,170.318,909.116,906)">                    <path d="M0.073,-0.63l0.11,0l0.24,0.354c0.013,0.02 0.026,0.04 0.037,0.06c0.011,0.019 0.02,0.035 0.027,0.048l0.002,0c-0.004,-0.046 -0.006,-0.092 -0.006,-0.138l0,-0.139l0,-0.185l0.115,0l0,0.63l-0.11,0l-0.229,-0.335c-0.015,-0.023 -0.03,-0.046 -0.044,-0.071c-0.013,-0.025 -0.024,-0.045 -0.031,-0.06l-0.002,0c0.003,0.049 0.005,0.097 0.005,0.144c0.001,0.046 0.001,0.093 0.001,0.141l0,0.181l-0.115,0l0,-0.63Z" style="fill:rgb(31,96,80);fill-rule:nonzero;"/>                </g>                <g transform="matrix(170.318,0,0,170.318,1090.67,906)">                    <path d="M0.366,-0.64c0.038,0 0.072,0.003 0.103,0.009c0.03,0.006 0.057,0.015 0.082,0.027l-0.026,0.086c-0.023,-0.011 -0.047,-0.019 -0.072,-0.024c-0.025,-0.005 -0.05,-0.008 -0.075,-0.008c-0.028,0 -0.054,0.004 -0.079,0.013c-0.025,0.009 -0.047,0.022 -0.066,0.042c-0.019,0.019 -0.034,0.043 -0.045,0.073c-0.011,0.029 -0.017,0.065 -0.017,0.108c0,0.075 0.017,0.133 0.051,0.173c0.033,0.04 0.081,0.06 0.144,0.06c0.039,0 0.07,-0.004 0.092,-0.013l0,-0.156l-0.109,0l0,-0.092l0.225,0l0,0.314c-0.027,0.011 -0.057,0.021 -0.091,0.028c-0.034,0.007 -0.073,0.01 -0.117,0.01c-0.045,0 -0.088,-0.007 -0.127,-0.021c-0.04,-0.014 -0.075,-0.035 -0.104,-0.062c-0.029,-0.027 -0.052,-0.061 -0.069,-0.101c-0.017,-0.041 -0.025,-0.087 -0.025,-0.14c0,-0.053 0.008,-0.099 0.025,-0.14c0.017,-0.041 0.04,-0.075 0.069,-0.102c0.029,-0.028 0.063,-0.049 0.103,-0.063c0.039,-0.014 0.082,-0.021 0.128,-0.021Z" style="fill:rgb(31,96,80);fill-rule:nonzero;"/>                </g>                <g transform="matrix(170.318,0,0,170.318,1264.74,906)">                    <path d="M0.497,-0.63l0,0.098l-0.185,0l0,0.532l-0.122,0l0,-0.532l-0.18,0l0,-0.098l0.487,0Z" style="fill:rgb(31,96,80);fill-rule:nonzero;"/>                </g>                <g transform="matrix(170.318,0,0,170.318,1418.2,906)">                    <path d="M0.351,-0.64c0.044,0 0.085,0.007 0.122,0.021c0.037,0.015 0.069,0.036 0.096,0.064c0.027,0.027 0.049,0.061 0.064,0.101c0.015,0.041 0.023,0.087 0.023,0.14c0,0.051 -0.008,0.097 -0.023,0.137c-0.016,0.04 -0.038,0.074 -0.066,0.101c-0.027,0.028 -0.06,0.049 -0.097,0.064c-0.038,0.015 -0.079,0.022 -0.123,0.022c-0.044,0 -0.085,-0.007 -0.122,-0.021c-0.037,-0.014 -0.069,-0.035 -0.096,-0.062c-0.027,-0.027 -0.049,-0.061 -0.064,-0.102c-0.015,-0.04 -0.023,-0.086 -0.023,-0.139c0,-0.051 0.008,-0.097 0.024,-0.138c0.015,-0.04 0.037,-0.074 0.065,-0.102c0.027,-0.028 0.06,-0.049 0.098,-0.064c0.037,-0.015 0.078,-0.022 0.122,-0.022Zm-0.179,0.326c0,0.039 0.005,0.073 0.014,0.102c0.009,0.029 0.022,0.052 0.039,0.071c0.016,0.019 0.035,0.034 0.057,0.043c0.021,0.009 0.044,0.014 0.069,0.014c0.025,0 0.048,-0.005 0.069,-0.014c0.021,-0.009 0.04,-0.024 0.055,-0.043c0.016,-0.019 0.028,-0.042 0.037,-0.071c0.009,-0.029 0.014,-0.063 0.014,-0.102c0,-0.04 -0.005,-0.075 -0.014,-0.104c-0.009,-0.029 -0.022,-0.054 -0.038,-0.073c-0.017,-0.019 -0.036,-0.033 -0.058,-0.042c-0.021,-0.009 -0.044,-0.013 -0.069,-0.013c-0.025,0 -0.048,0.005 -0.069,0.014c-0.021,0.01 -0.04,0.024 -0.056,0.043c-0.015,0.019 -0.028,0.044 -0.037,0.073c-0.009,0.029 -0.013,0.063 -0.013,0.102Z" style="fill:rgb(31,96,80);fill-rule:nonzero;"/>                </g>                <g transform="matrix(170.318,0,0,170.318,1604.35,906)">                    <path d="M0.073,-0.63l0.11,0l0.24,0.354c0.013,0.02 0.026,0.04 0.037,0.06c0.011,0.019 0.02,0.035 0.027,0.048l0.002,0c-0.004,-0.046 -0.006,-0.092 -0.006,-0.138l0,-0.139l0,-0.185l0.115,0l0,0.63l-0.11,0l-0.229,-0.335c-0.015,-0.023 -0.03,-0.046 -0.044,-0.071c-0.013,-0.025 -0.024,-0.045 -0.031,-0.06l-0.002,0c0.003,0.049 0.005,0.097 0.005,0.144c0.001,0.046 0.001,0.093 0.001,0.141l0,0.181l-0.115,0l0,-0.63Z" style="fill:rgb(31,96,80);fill-rule:nonzero;"/>                </g>            </g>            <g transform="matrix(0.519957,0,0,0.587002,324.967,421.019)">                <g transform="matrix(170.318,0,0,170.318,134,906)">                    <path d="M0.372,-0.086c0.031,0 0.058,-0.003 0.079,-0.008c0.021,-0.005 0.041,-0.013 0.058,-0.022l0.026,0.092c-0.019,0.009 -0.042,0.017 -0.071,0.024c-0.029,0.007 -0.064,0.01 -0.105,0.01c-0.045,0 -0.088,-0.007 -0.127,-0.022c-0.039,-0.015 -0.072,-0.036 -0.101,-0.064c-0.028,-0.027 -0.05,-0.061 -0.066,-0.101c-0.016,-0.041 -0.024,-0.087 -0.024,-0.138c0,-0.05 0.008,-0.095 0.023,-0.136c0.015,-0.04 0.037,-0.074 0.065,-0.102c0.029,-0.028 0.063,-0.049 0.102,-0.065c0.039,-0.014 0.083,-0.022 0.131,-0.022c0.043,0 0.078,0.004 0.105,0.011c0.027,0.007 0.051,0.016 0.07,0.026l-0.028,0.092c-0.02,-0.01 -0.04,-0.018 -0.061,-0.024c-0.021,-0.006 -0.045,-0.009 -0.072,-0.009c-0.028,0 -0.054,0.004 -0.08,0.013c-0.024,0.008 -0.046,0.021 -0.064,0.04c-0.019,0.018 -0.033,0.042 -0.044,0.071c-0.011,0.029 -0.017,0.064 -0.017,0.105c0,0.04 0.005,0.075 0.016,0.104c0.011,0.029 0.025,0.052 0.043,0.071c0.018,0.019 0.039,0.032 0.063,0.041c0.025,0.009 0.051,0.013 0.079,0.013Z" style="fill:rgb(31,96,80);fill-rule:nonzero;"/>                </g>                <g transform="matrix(170.318,0,0,170.318,297.675,906)">                    <path d="M0.073,-0.63l0.227,0c0.035,0 0.065,0.005 0.091,0.015c0.026,0.01 0.048,0.024 0.066,0.041c0.017,0.017 0.03,0.038 0.039,0.061c0.009,0.023 0.014,0.049 0.014,0.076c0,0.025 -0.004,0.048 -0.012,0.067c-0.007,0.019 -0.017,0.036 -0.029,0.051c-0.012,0.015 -0.025,0.027 -0.04,0.036c-0.015,0.01 -0.029,0.018 -0.043,0.024l0.159,0.259l-0.139,0l-0.131,-0.237l-0.083,0l0,0.237l-0.119,0l0,-0.63Zm0.119,0.298l0.061,0c0.038,0 0.069,-0.008 0.094,-0.024c0.025,-0.015 0.037,-0.041 0.037,-0.078c0,-0.033 -0.01,-0.059 -0.029,-0.076c-0.02,-0.017 -0.049,-0.026 -0.087,-0.026l-0.076,0l0,0.204Z" style="fill:rgb(31,96,80);fill-rule:nonzero;"/>                </g>                <g transform="matrix(170.318,0,0,170.318,460.329,906)">                    <path d="M0.351,-0.64c0.044,0 0.085,0.007 0.122,0.021c0.037,0.015 0.069,0.036 0.096,0.064c0.027,0.027 0.049,0.061 0.064,0.101c0.015,0.041 0.023,0.087 0.023,0.14c0,0.051 -0.008,0.097 -0.023,0.137c-0.016,0.04 -0.038,0.074 -0.066,0.101c-0.027,0.028 -0.06,0.049 -0.097,0.064c-0.038,0.015 -0.079,0.022 -0.123,0.022c-0.044,0 -0.085,-0.007 -0.122,-0.021c-0.037,-0.014 -0.069,-0.035 -0.096,-0.062c-0.027,-0.027 -0.049,-0.061 -0.064,-0.102c-0.015,-0.04 -0.023,-0.086 -0.023,-0.139c0,-0.051 0.008,-0.097 0.024,-0.138c0.015,-0.04 0.037,-0.074 0.065,-0.102c0.027,-0.028 0.06,-0.049 0.098,-0.064c0.037,-0.015 0.078,-0.022 0.122,-0.022Zm-0.179,0.326c0,0.039 0.005,0.073 0.014,0.102c0.009,0.029 0.022,0.052 0.039,0.071c0.016,0.019 0.035,0.034 0.057,0.043c0.021,0.009 0.044,0.014 0.069,0.014c0.025,0 0.048,-0.005 0.069,-0.014c0.021,-0.009 0.04,-0.024 0.055,-0.043c0.016,-0.019 0.028,-0.042 0.037,-0.071c0.009,-0.029 0.014,-0.063 0.014,-0.102c0,-0.04 -0.005,-0.075 -0.014,-0.104c-0.009,-0.029 -0.022,-0.054 -0.038,-0.073c-0.017,-0.019 -0.036,-0.033 -0.058,-0.042c-0.021,-0.009 -0.044,-0.013 -0.069,-0.013c-0.025,0 -0.048,0.005 -0.069,0.014c-0.021,0.01 -0.04,0.024 -0.056,0.043c-0.015,0.019 -0.028,0.044 -0.037,0.073c-0.009,0.029 -0.013,0.063 -0.013,0.102Z" style="fill:rgb(31,96,80);fill-rule:nonzero;"/>                </g>                <g transform="matrix(170.318,0,0,170.318,646.486,906)">                    <path d="M0.131,-0.63l0.081,0.318c0.002,0.009 0.005,0.021 0.008,0.036c0.003,0.015 0.007,0.032 0.01,0.049c0.003,0.017 0.006,0.034 0.009,0.051c0.003,0.017 0.006,0.031 0.007,0.043l0.002,0c0.002,-0.013 0.004,-0.027 0.007,-0.044c0.003,-0.017 0.007,-0.033 0.01,-0.05l0.019,-0.085l0.086,-0.318l0.123,0l0.086,0.317c0.002,0.009 0.005,0.021 0.008,0.036c0.004,0.015 0.008,0.032 0.011,0.049c0.003,0.017 0.007,0.035 0.01,0.052c0.003,0.017 0.006,0.031 0.008,0.043l0.002,0c0.002,-0.012 0.005,-0.026 0.008,-0.043c0.003,-0.017 0.007,-0.033 0.01,-0.05c0.003,-0.017 0.007,-0.034 0.01,-0.049c0.003,-0.015 0.006,-0.028 0.008,-0.038l0.078,-0.317l0.123,0l-0.169,0.63l-0.13,0l-0.087,-0.331c-0.007,-0.027 -0.014,-0.054 -0.02,-0.079c-0.006,-0.026 -0.012,-0.054 -0.019,-0.083l-0.002,0c-0.006,0.03 -0.012,0.057 -0.017,0.082c-0.005,0.025 -0.012,0.051 -0.019,0.079l-0.084,0.332l-0.129,0l-0.173,-0.63l0.125,0Z" style="fill:rgb(31,96,80);fill-rule:nonzero;"/>                </g>                <g transform="matrix(170.318,0,0,170.318,860.405,906)">                    <path d="M0.288,-0.63c0.047,0 0.091,0.006 0.13,0.019c0.039,0.013 0.073,0.032 0.101,0.057c0.029,0.025 0.051,0.057 0.067,0.094c0.015,0.038 0.023,0.082 0.023,0.132c0,0.058 -0.009,0.108 -0.028,0.149c-0.019,0.042 -0.044,0.076 -0.076,0.102c-0.032,0.027 -0.069,0.046 -0.112,0.058c-0.042,0.013 -0.087,0.019 -0.135,0.019l-0.185,0l0,-0.63l0.215,0Zm-0.093,0.534l0.054,0c0.029,0 0.058,-0.004 0.085,-0.011c0.028,-0.007 0.053,-0.019 0.074,-0.036c0.021,-0.017 0.038,-0.041 0.051,-0.071c0.013,-0.03 0.02,-0.068 0.02,-0.114c0,-0.067 -0.019,-0.118 -0.057,-0.153c-0.037,-0.035 -0.088,-0.053 -0.152,-0.053l-0.075,0l0,0.438Z" style="fill:rgb(31,96,80);fill-rule:nonzero;"/>                </g>            </g>            <g transform="matrix(1,0,0,1,4.27202,0)">                <rect x="145" y="853" width="926" height="13" style="fill:rgb(31,96,80);"/>            </g>        </g>    </g></svg>