<?xml version="1.0" encoding="UTF-8" standalone="no"?><!DOCTYPE svg PUBLIC "-//W3C//DTD SVG 1.1//EN" "http://www.w3.org/Graphics/SVG/1.1/DTD/svg11.dtd"><svg width="100%" height="100%" viewBox="0 0 1024 512" version="1.1" xmlns="http://www.w3.org/2000/svg" xmlns:xlink="http://www.w3.org/1999/xlink" xml:space="preserve" style="fill-rule:evenodd;clip-rule:evenodd;stroke-linejoin:round;stroke-miterlimit:2;"><title>PrêtStory</title><desc>PrêtStory allows entrepreneurs to present their project and promote their loan application!</desc>    <g id="Story" transform="matrix(2.55392,0,0,2.55392,1.59302,55.0642)">        <path d="M45.583,26.524c-1.927,0.139 -3.553,0.34 -5.083,0.626c-0.504,0.095 -1.455,0.269 -2.113,0.388c-0.658,0.119 -1.252,0.272 -1.32,0.339c-0.067,0.068 -0.294,0.123 -0.504,0.123c-0.209,-0 -0.553,0.068 -0.763,0.152c-0.211,0.083 -0.833,0.276 -1.383,0.43c-1.063,0.295 -1.79,0.531 -2.334,0.756c-0.183,0.076 -0.774,0.296 -1.314,0.49c-0.966,0.346 -1.867,0.727 -3.197,1.353c-0.372,0.175 -0.76,0.319 -0.861,0.319c-0.101,-0 -0.208,0.056 -0.239,0.125c-0.03,0.069 -0.58,0.396 -1.222,0.727c-1.969,1.017 -4.163,2.337 -5.167,3.108c-0.091,0.071 -0.579,0.425 -1.083,0.787c-0.504,0.362 -0.954,0.703 -1,0.756c-0.046,0.054 -0.383,0.319 -0.75,0.589c-1.82,1.341 -5.9,5.423 -7.327,7.331c-0.272,0.363 -0.577,0.746 -0.678,0.85c-0.102,0.105 -0.554,0.742 -1.006,1.417c-0.452,0.675 -0.879,1.252 -0.947,1.282c-0.069,0.031 -0.125,0.124 -0.125,0.207c0,0.083 -0.324,0.658 -0.719,1.278c-0.396,0.619 -1.014,1.726 -1.375,2.46c-0.361,0.733 -0.713,1.358 -0.781,1.389c-0.069,0.03 -0.125,0.162 -0.125,0.292c0,0.13 -0.188,0.626 -0.417,1.101c-0.229,0.475 -0.417,0.962 -0.417,1.082c0,0.121 -0.075,0.219 -0.166,0.219c-0.092,-0 -0.169,0.131 -0.172,0.292c-0.007,0.337 -0.561,1.996 -0.72,2.156c-0.06,0.059 -0.108,0.278 -0.108,0.487c0,0.208 -0.067,0.42 -0.148,0.47c-0.081,0.05 -0.188,0.298 -0.238,0.551c-0.05,0.253 -0.216,1.023 -0.369,1.711c-0.511,2.297 -0.6,2.743 -0.76,3.833c-0.73,4.969 -0.655,8.944 0.267,14.167c0.425,2.408 1.655,6.615 2.423,8.29c0.179,0.388 0.325,0.751 0.325,0.806c0,0.145 2.05,4.304 2.17,4.404c0.055,0.045 0.533,0.795 1.061,1.666c2.489,4.105 6.048,8.141 10.079,11.429c0.216,0.177 0.479,0.399 0.583,0.494c0.105,0.095 0.49,0.395 0.857,0.666c0.366,0.271 0.704,0.538 0.75,0.594c0.045,0.055 0.158,0.131 0.25,0.168c0.091,0.037 1.066,0.659 2.164,1.383c2.042,1.344 5.673,3.297 7.169,3.855c0.458,0.171 1.079,0.446 1.38,0.611c0.301,0.165 0.68,0.3 0.842,0.3c0.162,-0 0.366,0.06 0.453,0.133c0.087,0.073 0.608,0.268 1.158,0.433c0.55,0.166 1.131,0.368 1.29,0.451c0.159,0.082 0.404,0.15 0.544,0.15c0.14,-0 0.384,0.072 0.544,0.16c0.281,0.156 1.447,0.447 2.456,0.613c0.275,0.046 0.65,0.148 0.833,0.228c0.183,0.08 0.596,0.185 0.917,0.234c6.44,0.987 9.514,1.165 14.69,0.854c2.093,-0.127 2.311,-0.112 2.75,0.181c0.262,0.175 0.926,0.542 1.476,0.815c0.55,0.273 1.038,0.534 1.084,0.581c0.045,0.046 0.57,0.329 1.166,0.628c1.106,0.556 3.145,1.634 5.656,2.991c1.603,0.866 4.051,2.155 5.761,3.033c0.642,0.329 1.204,0.637 1.25,0.683c0.046,0.046 0.683,0.381 1.417,0.745c0.733,0.363 1.37,0.701 1.416,0.749c0.046,0.049 0.534,0.313 1.084,0.587c0.55,0.275 1.037,0.537 1.083,0.584c0.069,0.07 2.116,1.123 2.538,1.306c0.071,0.031 0.129,-5.081 0.129,-11.36l0,-11.416l0.766,-0.64c0.421,-0.352 0.852,-0.715 0.958,-0.808c0.106,-0.093 0.676,-0.581 1.267,-1.084c1.777,-1.512 4.287,-4.126 5.57,-5.798c0.189,-0.247 0.389,-0.487 0.445,-0.533c0.373,-0.308 2.917,-4.041 3.408,-5c0.164,-0.32 0.348,-0.621 0.408,-0.666c0.123,-0.095 2.178,-4.249 2.178,-4.404c0,-0.055 0.146,-0.418 0.324,-0.806c0.812,-1.771 2.342,-7.064 2.342,-8.104c0,-0.249 0.069,-0.524 0.152,-0.611c0.828,-0.862 0.743,-11.515 -0.123,-15.575c-0.088,-0.413 -0.248,-1.2 -0.355,-1.75c-0.186,-0.957 -0.41,-1.782 -0.677,-2.5c-0.069,-0.184 -0.261,-0.784 -0.428,-1.334c-0.167,-0.55 -0.363,-1.071 -0.436,-1.158c-0.073,-0.087 -0.133,-0.331 -0.133,-0.542c0,-0.211 -0.075,-0.383 -0.166,-0.383c-0.092,0 -0.167,-0.098 -0.167,-0.219c0,-0.12 -0.187,-0.607 -0.417,-1.082c-0.229,-0.475 -0.416,-0.977 -0.416,-1.115c0,-0.138 -0.057,-0.252 -0.125,-0.253c-0.069,-0.001 -0.35,-0.525 -0.625,-1.164c-0.275,-0.639 -0.557,-1.163 -0.625,-1.165c-0.069,-0.001 -0.125,-0.076 -0.125,-0.167c0,-0.091 -0.338,-0.691 -0.75,-1.335c-0.413,-0.644 -0.75,-1.206 -0.75,-1.25c0,-0.093 -2.013,-2.96 -2.165,-3.083c-0.057,-0.046 -0.324,-0.381 -0.594,-0.744c-1.092,-1.468 -4.891,-5.381 -6.398,-6.59c-0.399,-0.321 -0.959,-0.774 -1.243,-1.008c-0.284,-0.234 -0.93,-0.719 -1.434,-1.078c-0.504,-0.359 -0.954,-0.694 -1,-0.744c-0.308,-0.338 -3.823,-2.442 -5.416,-3.243c-0.55,-0.276 -1.025,-0.56 -1.056,-0.631c-0.03,-0.071 -0.122,-0.129 -0.204,-0.129c-0.081,0 -0.581,-0.197 -1.111,-0.437c-1.555,-0.705 -1.909,-0.852 -2.963,-1.229c-0.55,-0.197 -1.15,-0.42 -1.333,-0.496c-0.544,-0.225 -1.271,-0.461 -2.333,-0.756c-0.55,-0.154 -1.173,-0.347 -1.383,-0.43c-0.211,-0.084 -0.554,-0.152 -0.764,-0.152c-0.21,0 -0.437,-0.056 -0.506,-0.125c-0.116,-0.116 -0.855,-0.274 -3.347,-0.716c-4.104,-0.726 -8.911,-0.956 -13.334,-0.635Z" style="fill:rgb(236,156,68);"/>        <path d="M358.54,57.792c0.178,0.375 0.47,1.035 0.719,1.625c0.154,0.366 0.459,1.049 0.678,1.516c0.218,0.468 0.396,0.904 0.396,0.969c0,0.066 0.233,0.621 0.517,1.234c0.284,0.612 0.579,1.264 0.657,1.447c0.078,0.184 0.296,0.69 0.484,1.125c0.188,0.436 0.496,1.148 0.685,1.584c0.188,0.435 0.406,0.941 0.483,1.125c0.078,0.183 0.3,0.692 0.495,1.132c0.195,0.439 0.479,1.114 0.631,1.5c0.152,0.385 0.413,0.947 0.579,1.248c0.167,0.3 0.303,0.614 0.303,0.696c0,0.083 0.217,0.624 0.482,1.204c0.435,0.95 0.963,2.152 1.343,3.053c0.077,0.183 0.335,0.767 0.574,1.296c0.239,0.53 0.434,1.001 0.434,1.047c-0,0.046 0.262,0.636 0.583,1.312c0.321,0.677 0.584,1.272 0.584,1.325c-0,0.052 0.225,0.586 0.5,1.187c0.275,0.6 0.5,1.125 0.5,1.166c-0,0.041 0.187,0.489 0.416,0.996c0.23,0.506 0.605,1.336 0.834,1.842c0.229,0.507 0.416,0.957 0.416,1c-0,0.042 0.263,0.646 0.584,1.34c0.321,0.695 0.583,1.293 0.583,1.33c-0,0.037 0.225,0.559 0.5,1.159c0.275,0.6 0.5,1.125 0.5,1.166c-0,0.041 0.198,0.492 0.439,1.003l0.44,0.928l-0.344,0.701c-0.341,0.699 -1.336,2.815 -2.367,5.035c-0.297,0.642 -1.011,2.142 -1.585,3.334c-0.574,1.191 -1.43,2.991 -1.902,4c-0.473,1.008 -0.932,1.963 -1.02,2.122c-0.439,0.79 -0.418,0.794 3.735,0.794c4.171,0 4.662,-0.078 5.377,-0.86c0.393,-0.429 1.06,-1.743 1.06,-2.088c-0,-0.12 0.075,-0.218 0.167,-0.218c0.092,0 0.167,-0.135 0.167,-0.3c-0,-0.165 0.062,-0.372 0.139,-0.459c0.076,-0.087 0.276,-0.533 0.445,-0.991c0.168,-0.459 0.443,-1.08 0.61,-1.38c0.168,-0.301 0.306,-0.618 0.306,-0.704c-0,-0.087 0.187,-0.572 0.416,-1.078c0.23,-0.507 0.605,-1.336 0.834,-1.843c0.229,-0.507 0.416,-0.987 0.416,-1.067c-0,-0.081 0.143,-0.435 0.318,-0.788c0.281,-0.565 0.432,-0.911 1.009,-2.307c0.076,-0.183 0.334,-0.753 0.573,-1.267c0.238,-0.513 0.434,-0.98 0.434,-1.037c-0,-0.057 0.225,-0.596 0.5,-1.196c0.275,-0.6 0.5,-1.125 0.5,-1.166c-0,-0.041 0.179,-0.471 0.397,-0.954c0.889,-1.966 1.103,-2.465 1.103,-2.57c-0,-0.061 0.178,-0.493 0.396,-0.96c0.219,-0.468 0.522,-1.15 0.675,-1.517c0.153,-0.366 0.35,-0.797 0.437,-0.956c0.087,-0.159 0.158,-0.403 0.158,-0.541c-0,-0.139 0.075,-0.253 0.167,-0.253c0.092,-0 0.167,-0.145 0.167,-0.323c-0,-0.178 0.075,-0.37 0.166,-0.427c0.092,-0.056 0.167,-0.209 0.167,-0.338c-0,-0.13 0.197,-0.669 0.437,-1.199c0.398,-0.878 0.687,-1.554 1.053,-2.463c0.074,-0.183 0.286,-0.671 0.472,-1.083c0.185,-0.413 0.461,-1.05 0.612,-1.417c0.152,-0.366 0.347,-0.797 0.434,-0.956c0.087,-0.159 0.159,-0.403 0.159,-0.541c-0,-0.139 0.075,-0.253 0.166,-0.253c0.092,-0 0.167,-0.103 0.167,-0.228c-0,-0.22 0.251,-0.843 1.104,-2.735c0.218,-0.484 0.396,-0.926 0.396,-0.983c-0,-0.057 0.179,-0.486 0.397,-0.954c0.38,-0.814 0.81,-1.807 1.091,-2.516c0.072,-0.184 0.292,-0.66 0.488,-1.058c0.197,-0.398 0.357,-0.79 0.357,-0.87c-0,-0.081 0.188,-0.561 0.417,-1.068c0.229,-0.506 0.604,-1.336 0.833,-1.842c0.23,-0.507 0.417,-0.958 0.417,-1.002c-0,-0.044 0.157,-0.436 0.35,-0.87c0.192,-0.435 0.411,-0.94 0.486,-1.124c0.237,-0.579 1.02,-2.321 1.18,-2.625c0.144,-0.274 -0.109,-0.291 -4.251,-0.291l-4.404,-0l-0.657,0.625c-0.471,0.448 -0.785,0.979 -1.111,1.875c-0.249,0.687 -0.522,1.418 -0.606,1.625c-0.32,0.78 -0.46,1.142 -0.662,1.708c-0.115,0.321 -0.317,0.846 -0.45,1.167c-0.459,1.105 -0.516,1.254 -0.967,2.5c-0.249,0.687 -0.518,1.321 -0.597,1.408c-0.079,0.087 -0.144,0.326 -0.144,0.532c-0,0.205 -0.07,0.416 -0.154,0.468c-0.085,0.053 -0.207,0.336 -0.271,0.63c-0.065,0.294 -0.174,0.649 -0.244,0.79c-0.069,0.14 -0.199,0.443 -0.29,0.672c-0.09,0.229 -0.244,0.604 -0.342,0.833c-0.098,0.229 -0.23,0.604 -0.294,0.833c-0.063,0.23 -0.263,0.754 -0.444,1.167c-0.439,1.004 -0.544,1.273 -0.876,2.25c-0.156,0.458 -0.427,1.151 -0.601,1.54c-0.175,0.388 -0.318,0.78 -0.318,0.869c-0,0.09 -0.123,0.447 -0.273,0.794c-0.15,0.347 -0.337,0.799 -0.416,1.005c-0.079,0.207 -0.216,0.544 -0.304,0.75c-0.088,0.207 -0.281,0.788 -0.429,1.292c-0.523,1.787 -1.078,2.553 -1.078,1.488c-0,-0.179 -0.067,-0.456 -0.148,-0.615c-0.082,-0.159 -0.273,-0.74 -0.426,-1.29c-0.152,-0.55 -0.348,-1.168 -0.435,-1.375c-0.163,-0.387 -0.434,-1.044 -0.672,-1.625c-0.074,-0.183 -0.52,-1.308 -0.989,-2.5c-0.978,-2.484 -1.009,-2.56 -1.48,-3.623c-0.192,-0.434 -0.35,-0.835 -0.35,-0.891c-0,-0.101 -0.131,-0.414 -0.82,-1.956c-0.198,-0.442 -0.403,-1.024 -0.457,-1.292c-0.054,-0.268 -0.163,-0.488 -0.243,-0.488c-0.081,-0 -0.146,-0.113 -0.146,-0.252c-0,-0.139 -0.069,-0.382 -0.153,-0.542c-0.294,-0.558 -0.681,-1.508 -0.681,-1.673c-0,-0.093 -0.143,-0.456 -0.317,-0.809c-0.362,-0.729 -0.704,-1.542 -1.008,-2.39c-0.237,-0.664 -0.36,-0.976 -0.752,-1.917c-0.153,-0.367 -0.341,-0.817 -0.417,-1c-0.508,-1.224 -0.72,-1.573 -1.243,-2.049l-0.587,-0.534l-4.764,-0c-2.621,-0 -4.738,0.056 -4.705,0.125Z" style="fill:rgb(236,156,68);"/>        <path d="M260.88,45.26c-0.659,0.291 -0.975,0.875 -1.223,2.259c-0.229,1.284 -0.45,2.472 -0.648,3.481c-0.08,0.413 -0.272,1.462 -0.426,2.333c-0.153,0.871 -0.345,1.921 -0.426,2.334c-0.081,0.412 -0.205,1.087 -0.277,1.5c-0.124,0.715 -0.161,0.755 -0.797,0.86c-2.286,0.378 -4.114,0.659 -4.875,0.749l-0.875,0.104l0,2.401c0,3.302 -0.086,3.219 3.323,3.219c2.461,0 2.506,0.007 2.59,0.375c0.046,0.206 0.104,6.128 0.128,13.158c0.033,9.958 0.089,12.83 0.251,12.992c0.115,0.115 0.208,0.375 0.208,0.578c0,0.329 1.08,2.685 1.328,2.897c0.054,0.046 0.347,0.404 0.652,0.795c0.734,0.943 2.383,2.096 3.52,2.462c0.504,0.162 1.067,0.354 1.25,0.426c2.856,1.124 8.731,0.166 12.618,-2.058c0.201,-0.114 0.515,-0.34 0.697,-0.5c0.182,-0.16 0.392,-0.292 0.467,-0.292c0.32,-0 0.073,-0.61 -0.828,-2.047c-0.529,-0.845 -1.064,-1.737 -1.189,-1.983c-0.862,-1.706 -1.625,-1.972 -3.156,-1.099c-2.162,1.233 -4.922,0.7 -5.864,-1.132l-0.411,-0.799l0,-23.69l10.583,-0.088l0,-6.49l-10.583,-0.088l-0.084,-6.417l-0.083,-6.417l-2.667,-0.03c-1.996,-0.022 -2.801,0.03 -3.203,0.207Z" style="fill:rgb(236,156,68);"/>        <path d="M233.667,40.63l-4.046,-0.233c-1.63,-0.031 -3.135,-0.005 -3.288,0.097c-0.137,0.092 -0.544,0.169 -0.905,0.17c-0.36,0.002 -0.885,0.074 -1.166,0.162c-0.282,0.087 -0.924,0.278 -1.429,0.423c-1.587,0.457 -3.821,1.532 -5.25,2.527c-4.356,3.033 -6.525,7.177 -6.702,12.807c-0.072,2.301 -0.009,2.88 0.574,5.239c0.831,3.36 3.854,6.906 7.212,8.458c1.524,0.704 2.353,1.058 3.083,1.315c0.458,0.161 0.905,0.356 0.992,0.433c0.087,0.076 0.326,0.139 0.531,0.139c0.206,-0 0.42,0.075 0.477,0.166l1,0.334c0.057,0.091 0.24,0.166 0.407,0.166c0.352,-0 1.956,0.46 2.382,0.682c0.16,0.084 0.478,0.152 0.709,0.152c0.23,-0 0.419,0.075 0.419,0.166c-0,0.092 0.184,0.167 0.41,0.167c0.74,-0 3.778,1.321 5.049,2.196c1.844,1.269 2.628,2.448 3.046,4.584c0.543,2.769 -1.303,6.938 -3.502,7.912c-0.277,0.122 -0.503,0.267 -0.503,0.322c-0,0.054 -0.432,0.234 -0.959,0.399c-0.527,0.165 -1.138,0.384 -1.358,0.485c-0.536,0.248 -6.559,0.243 -6.872,-0.005c-0.125,-0.099 -0.5,-0.222 -0.832,-0.273c-0.333,-0.051 -0.928,-0.249 -1.323,-0.44c-0.396,-0.19 -0.817,-0.347 -0.938,-0.347c-0.12,-0 -0.218,-0.067 -0.218,-0.148c-0,-0.082 -0.169,-0.192 -0.375,-0.244c-0.338,-0.085 -3.257,-1.85 -3.459,-2.092c-0.134,-0.159 -1.043,-0.689 -1.541,-0.897c-0.252,-0.106 -0.459,-0.25 -0.459,-0.322c-0,-0.071 -0.45,-0.13 -1,-0.13c-0.555,-0 -1,0.074 -1,0.167c-0,0.091 -0.093,0.169 -0.208,0.172c-0.429,0.011 -1.792,1.652 -1.792,2.157c-0,0.094 -0.066,0.171 -0.147,0.171c-0.081,-0 -0.191,0.131 -0.245,0.291c-0.094,0.28 -0.187,0.441 -0.797,1.375c-0.15,0.229 -0.468,0.767 -0.706,1.196l-0.434,0.778l1.012,0.888c0.556,0.489 1.474,1.205 2.039,1.592c0.566,0.387 1.106,0.762 1.2,0.833c0.648,0.49 4.218,2.213 4.585,2.213c0.091,-0 0.295,0.067 0.454,0.148c0.553,0.281 1.125,0.494 1.539,0.574c0.23,0.044 0.942,0.207 1.584,0.362c2.17,0.524 3.324,0.641 6.333,0.643c4.418,0.003 6.367,-0.398 9.915,-2.041c2.12,-0.981 4.932,-3.271 6.265,-5.102c0.266,-0.367 0.523,-0.705 0.57,-0.75c0.075,-0.073 0.837,-1.471 1.182,-2.167c0.363,-0.735 0.651,-1.497 0.651,-1.724c0,-0.141 0.075,-0.303 0.167,-0.359c0.092,-0.057 0.167,-0.319 0.167,-0.584c0,-0.264 0.075,-0.526 0.166,-0.583c0.092,-0.057 0.167,-0.329 0.167,-0.604c0,-0.276 0.079,-0.649 0.176,-0.83c0.239,-0.446 0.24,-6.8 0.001,-7.039c-0.097,-0.097 -0.177,-0.346 -0.177,-0.552c0,-0.207 -0.086,-0.586 -0.19,-0.842c-0.105,-0.257 -0.296,-0.729 -0.425,-1.05c-0.129,-0.321 -0.319,-0.733 -0.423,-0.916c-0.103,-0.184 -0.268,-0.485 -0.367,-0.669c-0.716,-1.345 -2.606,-3.27 -4.266,-4.345c-1.211,-0.784 -3.43,-1.903 -3.773,-1.903c-0.123,-0 -0.223,-0.075 -0.223,-0.167c0,-0.091 -0.111,-0.166 -0.248,-0.166c-0.211,-0 -1.675,-0.519 -2.835,-1.004c-0.183,-0.076 -0.746,-0.261 -1.25,-0.41c-0.504,-0.149 -1.047,-0.342 -1.206,-0.429c-0.159,-0.086 -0.404,-0.157 -0.544,-0.157c-0.14,-0 -0.385,-0.069 -0.544,-0.153c-0.159,-0.083 -0.814,-0.314 -1.456,-0.512c-0.642,-0.198 -1.41,-0.467 -1.708,-0.598c-0.298,-0.13 -0.823,-0.355 -1.167,-0.498c-3.081,-1.286 -5.201,-3.398 -5.206,-5.188c-0.001,-0.384 -0.082,-0.748 -0.18,-0.808c-0.098,-0.061 -0.128,-0.234 -0.067,-0.385c0.061,-0.151 0.169,-0.725 0.24,-1.275c0.571,-4.412 5.736,-6.95 11.755,-5.777c0.987,0.192 2.178,0.567 2.35,0.738c0.067,0.067 0.259,0.122 0.427,0.122c0.169,-0 0.306,0.075 0.306,0.167c0,0.092 0.109,0.167 0.241,0.167c0.3,-0 1.949,0.879 3.578,1.907c0.553,0.349 0.879,0.426 1.813,0.426c1.585,-0 1.423,0.198 4.215,-5.139l0.552,-1.055l-0.658,-0.625c-0.362,-0.344 -0.995,-0.837 -1.408,-1.095c-0.412,-0.258 -0.787,-0.514 -0.833,-0.569c-0.046,-0.055 -0.233,-0.182 -0.417,-0.282c-0.183,-0.1 -0.671,-0.367 -1.083,-0.593c-0.636,-0.349 -2.131,-0.993 -3.417,-1.472c-1.01,-0.376 -1.992,-0.607 -4.416,-1.04Z" style="fill:rgb(236,156,68);"/>        <path d="M349.25,57.017c-0.275,0.086 -0.913,0.284 -1.417,0.439c-2.109,0.647 -5.096,3.184 -6.921,5.876c-1.232,1.818 -1.173,1.872 -1.565,-1.415c-0.513,-4.308 -0.433,-4.242 -5.139,-4.247l-3.541,-0.003l-0,40.333l9.5,0l-0,-25.135l0.375,-0.724c0.206,-0.398 0.412,-0.762 0.458,-0.808c0.046,-0.046 0.228,-0.346 0.404,-0.666c0.785,-1.428 3.598,-4 4.374,-4c0.125,0 0.357,-0.066 0.516,-0.147c0.996,-0.503 4.751,-0.757 5.5,-0.371c1.154,0.594 2.709,0.52 3.122,-0.148c0.117,-0.189 0.378,-1.535 0.516,-2.668c0.051,-0.412 0.158,-0.9 0.237,-1.083c0.08,-0.183 0.183,-0.633 0.23,-1c0.046,-0.367 0.162,-1.187 0.257,-1.823c0.213,-1.429 0.097,-1.572 -1.753,-2.176c-1.369,-0.447 -4.084,-0.57 -5.153,-0.234Z" style="fill:rgb(236,156,68);"/>        <path d="M302.25,56.92c-0.092,0.033 -1.067,0.142 -2.167,0.242c-1.1,0.1 -2.375,0.284 -2.833,0.408c-1.114,0.303 -3.759,1.27 -3.917,1.432c-0.046,0.047 -0.457,0.272 -0.915,0.5c-2.444,1.218 -6.918,5.836 -6.918,7.142c0,0.104 -0.075,0.189 -0.167,0.189c-0.091,0 -0.166,0.114 -0.166,0.253c-0,0.138 -0.072,0.382 -0.159,0.541c-0.145,0.264 -0.508,1.11 -0.839,1.956c-0.822,2.097 -1.409,7.15 -1.152,9.917c0.205,2.212 0.659,5.035 0.843,5.242c0.077,0.087 0.14,0.315 0.14,0.508c-0,0.193 0.06,0.421 0.133,0.508c0.073,0.087 0.275,0.571 0.448,1.075c1.107,3.221 3.833,6.636 6.876,8.609c0.755,0.49 1.409,0.891 1.454,0.891c0.044,0 0.513,0.196 1.043,0.434c4.153,1.872 9.332,2.315 14.463,1.238c3.212,-0.675 6.694,-2.597 9.02,-4.979c1.403,-1.437 2.319,-2.855 3.905,-6.047c0.075,-0.149 0.186,-0.544 0.249,-0.877c0.062,-0.333 0.18,-0.647 0.261,-0.697c0.082,-0.05 0.148,-0.307 0.148,-0.572c-0,-0.264 0.067,-0.521 0.149,-0.572c0.16,-0.099 0.233,-0.492 0.527,-2.844c0.231,-1.837 0.107,-8.534 -0.162,-8.803c-0.099,-0.099 -0.181,-0.387 -0.181,-0.639c-0,-0.253 -0.068,-0.632 -0.151,-0.842c-0.084,-0.211 -0.283,-0.833 -0.444,-1.383c-0.16,-0.55 -0.349,-1.113 -0.418,-1.25c-0.07,-0.138 -0.356,-0.738 -0.637,-1.333c-0.502,-1.066 -1.015,-2.003 -1.187,-2.167c-0.048,-0.046 -0.229,-0.308 -0.402,-0.583c-0.985,-1.563 -3.989,-4.167 -5.802,-5.031c-0.344,-0.164 -0.625,-0.355 -0.625,-0.425c-0,-0.07 -0.094,-0.127 -0.209,-0.127c-0.114,-0 -0.696,-0.196 -1.291,-0.436c-0.596,-0.24 -1.234,-0.494 -1.417,-0.564c-1.199,-0.456 -6.861,-1.146 -7.5,-0.914Zm3.011,7.42c2.657,0.464 6.406,3.488 6.406,5.166c-0,0.067 0.112,0.337 0.249,0.6c0.137,0.263 0.249,0.642 0.25,0.842c-0,0.201 0.076,0.412 0.167,0.469c0.092,0.056 0.167,0.356 0.167,0.666c-0,0.31 0.064,0.604 0.142,0.652c0.367,0.227 0.588,6.376 0.306,8.515c-0.26,1.977 -1.29,5.317 -1.772,5.75c-0.051,0.046 -0.196,0.282 -0.321,0.525c-0.195,0.38 -1.174,1.432 -2.022,2.175c-2.052,1.797 -7.507,2.136 -10.666,0.663c-1.723,-0.804 -4.334,-4.067 -4.334,-5.415c0,-0.144 -0.066,-0.303 -0.148,-0.353c-0.081,-0.051 -0.19,-0.336 -0.241,-0.635c-0.051,-0.299 -0.215,-1.218 -0.365,-2.043c-0.587,-3.244 -0.258,-9.132 0.604,-10.79c0.083,-0.159 0.15,-0.41 0.15,-0.559c0,-0.25 1.028,-2.351 1.414,-2.888c1.954,-2.726 5.935,-4.054 10.014,-3.34Z" style="fill:rgb(236,156,68);"/>        <path d="M58.417,38.973c3.208,0.266 5.739,0.676 6.456,1.045c0.159,0.082 0.441,0.149 0.627,0.149c0.186,0 0.468,0.064 0.627,0.143c0.159,0.079 0.702,0.275 1.206,0.437c0.504,0.162 1.466,0.548 2.138,0.857c0.671,0.309 1.257,0.563 1.303,0.563c0.045,0 0.41,0.225 0.809,0.5c0.4,0.275 0.775,0.5 0.833,0.5c0.203,0 1.735,1.203 2.967,2.329c1.006,0.92 2.682,3.122 3.161,4.153c0.196,0.422 0.417,0.793 0.49,0.823c0.073,0.031 0.133,0.195 0.133,0.365c0,0.171 0.061,0.348 0.135,0.394c0.075,0.046 0.281,0.538 0.459,1.093l0.322,1.009l5.199,0c5.339,0 5.605,0.034 5.046,0.635c-0.181,0.193 -0.328,0.401 -0.328,0.461c0,0.061 -0.206,0.353 -0.458,0.65c-0.618,0.728 -0.876,1.053 -1.461,1.838c-0.272,0.366 -0.538,0.704 -0.589,0.75c-0.051,0.045 -0.314,0.383 -0.584,0.75c-0.27,0.366 -0.623,0.812 -0.783,0.989c-0.16,0.178 -0.292,0.384 -0.292,0.459c0,0.074 -1.05,0.135 -2.333,0.135l-2.333,0l0,2.833l3.666,0c2.826,0 3.666,0.048 3.661,0.209c-0.005,0.17 -0.849,1.285 -2.873,3.795c-0.112,0.139 -0.427,0.551 -0.698,0.916c-0.272,0.365 -0.572,0.749 -0.667,0.853c-0.095,0.105 -0.303,0.349 -0.463,0.542c-0.264,0.321 -0.459,0.352 -2.212,0.352l-1.923,0l-0.174,0.458c-0.147,0.389 -0.773,1.682 -1.399,2.891c-0.09,0.175 -0.221,0.318 -0.291,0.318c-0.07,0 -0.127,0.098 -0.127,0.219c0,0.586 -2.776,3.513 -4.5,4.745c-0.596,0.426 -1.121,0.814 -1.167,0.863c-0.308,0.33 -4.012,2.173 -4.365,2.173c-0.166,0 -0.302,0.075 -0.302,0.166c0,0.092 -0.183,0.167 -0.406,0.167c-0.224,0 -0.448,0.066 -0.498,0.147c-0.051,0.082 -0.299,0.19 -0.552,0.243c-0.253,0.052 -0.948,0.216 -1.544,0.365c-3.494,0.874 -4.319,0.945 -11.874,1.022l-7.123,0.073l-0.086,23.9l-13,0l-0.042,-34.066c-0.031,-25.232 0.007,-34.125 0.147,-34.294c0.227,-0.273 22.63,-0.202 26.062,0.083Zm-6.792,10.247l-6.292,-0.061l0,23.878l6.576,-0.061c4.955,-0.046 6.627,-0.112 6.784,-0.269c0.114,-0.114 0.45,-0.207 0.747,-0.207c0.297,0 0.587,-0.075 0.643,-0.167c0.057,-0.091 0.23,-0.169 0.385,-0.172c0.155,-0.002 0.657,-0.189 1.115,-0.415c0.459,-0.225 0.927,-0.41 1.042,-0.411c0.115,-0.001 0.208,-0.072 0.208,-0.157c0,-0.086 0.134,-0.198 0.298,-0.25c0.164,-0.052 0.632,-0.392 1.042,-0.756l0.744,-0.663l-4.199,-0.004c-3.981,-0.005 -4.812,-0.098 -4.28,-0.482c0.081,-0.058 0.368,-0.406 0.637,-0.773c0.27,-0.367 0.533,-0.704 0.584,-0.75c0.051,-0.046 0.316,-0.383 0.589,-0.75c0.273,-0.367 0.588,-0.779 0.7,-0.917c0.112,-0.137 0.664,-0.85 1.226,-1.583l1.022,-1.333l3.361,-0.084l3.36,-0.083l0.096,-2.75l-4.728,0c-2.601,0 -4.774,-0.045 -4.829,-0.099c-0.079,-0.08 3.831,-5.263 4.201,-5.568c0.055,-0.045 0.232,-0.289 0.392,-0.541c0.274,-0.43 0.367,-0.459 1.497,-0.464l1.204,-0.006l-1.09,-1.036c-1.505,-1.43 -3.405,-2.343 -5.91,-2.839c-0.458,-0.091 -3.665,-0.193 -7.125,-0.227Z" style="fill:white;"/>        <path d="M187.54,45.221c-0.736,0.409 -0.92,0.908 -1.459,3.946c-0.341,1.927 -0.569,3.146 -1.162,6.226c-0.139,0.72 -0.252,1.477 -0.252,1.682c0,0.606 -0.493,0.864 -2.084,1.091c-0.825,0.118 -1.875,0.279 -2.333,0.358c-0.458,0.079 -1.152,0.19 -1.542,0.248l-0.708,0.105l0,2.217c0,3.489 0.086,3.573 3.658,3.573l2.342,0l0,12.176c0,7.724 0.063,12.462 0.171,12.958c0.095,0.43 0.254,1.157 0.355,1.616c0.373,1.692 1.773,3.966 3.096,5.025c4.024,3.223 12.183,2.888 17.089,-0.701l0.794,-0.581l-0.278,-0.538c-0.431,-0.835 -2.743,-4.495 -3.004,-4.756c-0.389,-0.39 -1.283,-0.263 -2.594,0.367c-2.789,1.342 -5.224,0.381 -5.795,-2.287c-0.128,-0.597 -0.17,-4.3 -0.135,-12.029l0.051,-11.167l5.25,-0.083l5.25,-0.084l0,-6.666l-5.25,-0.084l-5.25,-0.083l-0.044,-6.375l-0.043,-6.375l-2.873,0.006c-1.983,0.004 -2.99,0.071 -3.25,0.215Z" style="fill:rgb(53,53,53);"/>        <path d="M125.083,56.937c-2.934,0.722 -5.934,3.032 -8.116,6.249c-1.199,1.768 -1.163,1.792 -1.487,-1.019c-0.1,-0.871 -0.217,-1.884 -0.26,-2.25c-0.246,-2.11 -0.556,-2.25 -4.964,-2.25l-3.589,-0l0,40.333l9.666,0l0,-25.221l0.792,-1.421c2.31,-4.146 6.305,-6.077 10.542,-5.095c2.861,0.663 3.423,0.422 3.726,-1.596c0.079,-0.52 0.808,-4.762 1.049,-6.099c0.211,-1.168 -4.763,-2.27 -7.359,-1.631Z" style="fill:rgb(53,53,53);"/>        <path d="M153.75,56.932c-0.864,0.087 -2.551,0.395 -3.083,0.564c-0.229,0.073 -0.755,0.23 -1.167,0.35c-5.908,1.714 -10.92,7.307 -12.31,13.737c-0.099,0.459 -0.258,1.186 -0.352,1.616c-0.222,1.015 -0.222,6.79 0.001,8.065c1.322,7.569 4.913,12.83 10.549,15.458c7.792,3.633 19.201,2.04 24.82,-3.464c1.186,-1.161 1.236,-0.869 -0.543,-3.149c-2.497,-3.203 -2.557,-3.207 -7.45,-0.51c-4.822,2.658 -11.423,1.957 -14.737,-1.565c-1.791,-1.904 -3.292,-5.936 -3.116,-8.367l0.055,-0.75l13.095,-0.084c14.77,-0.094 13.509,0.033 13.944,-1.403c0.56,-1.852 -0.047,-7.327 -1.112,-10.013c-2.666,-6.728 -7.964,-10.292 -15.594,-10.491c-1.283,-0.033 -2.633,-0.03 -3,0.006Zm6.367,7.65c2.654,1.224 4.128,3.363 4.727,6.861c0.327,1.91 1.316,1.724 -9.172,1.724c-8.626,0 -9.172,-0.018 -9.166,-0.292c0.057,-2.844 2.422,-6.739 4.833,-7.961c2.566,-1.301 6.366,-1.444 8.778,-0.332Z" style="fill:rgb(53,53,53);"/>        <path d="M150.653,42.125c-0.583,0.71 -1.099,1.329 -1.148,1.375c-0.048,0.046 -0.387,0.458 -0.752,0.917c-0.364,0.458 -0.739,0.915 -0.833,1.014c-0.093,0.1 -0.583,0.689 -1.087,1.31c-0.504,0.621 -1.216,1.486 -1.583,1.923c-1.527,1.818 -2.011,2.408 -2.218,2.697c-0.277,0.388 6.993,0.481 7.679,0.097c0.421,-0.235 2.237,-1.765 4.184,-3.523c0.721,-0.652 1.381,-1.211 1.467,-1.243c0.131,-0.05 1.988,1.476 2.805,2.304c0.594,0.603 2.614,2.301 2.947,2.477c0.244,0.13 1.573,0.194 4.043,0.194l3.679,-0l-3.114,-3.792c-1.713,-2.085 -3.532,-4.283 -4.043,-4.883c-0.511,-0.6 -1.116,-1.33 -1.346,-1.623l-0.416,-0.533l-4.603,-0.001l-4.602,-0.002l-1.059,1.292Z" style="fill:rgb(53,53,53);"/>    </g></svg>