<?xml version="1.0" encoding="UTF-8" standalone="no"?><!DOCTYPE svg PUBLIC "-//W3C//DTD SVG 1.1//EN" "http://www.w3.org/Graphics/SVG/1.1/DTD/svg11.dtd"><svg width="100%" height="100%" viewBox="0 0 1024 512" version="1.1" xmlns="http://www.w3.org/2000/svg" xmlns:xlink="http://www.w3.org/1999/xlink" xml:space="preserve" style="fill-rule:evenodd;clip-rule:evenodd;stroke-linejoin:round;stroke-miterlimit:2;"><title>Rockpool Investments</title><desc>Since 2011 we have invested over £400m into a diverse range of private companies. We offer equity and loan investment and combine these with tax reliefs where possible.We invest in development capital, management buy-out and equity release opportunities across all sectors. Many of our investment opportunities target growth across both loans and equity.</desc>    <g transform="matrix(4.30498,0,0,4.30498,-1296.58,-2901.45)">        <g transform="matrix(1,0,0,1,526.049,749.052)">            <path d="M0,6.267c0.733,0 1.408,-0.252 1.941,-0.674c0.534,-0.423 1.073,-1.694 2.759,-1.694c1.686,0 2.225,1.271 2.758,1.694c0.534,0.422 1.209,0.674 1.943,0.674c0.864,0 1.648,-0.351 2.214,-0.918c0.567,-0.567 0.918,-1.35 0.918,-2.216c0,-0.865 -0.351,-1.648 -0.918,-2.215c-0.566,-0.567 -1.35,-0.918 -2.214,-0.918c-0.734,0 -1.409,0.253 -1.943,0.675c-0.533,0.421 -1.063,1.694 -2.758,1.694c-1.694,0 -2.225,-1.273 -2.759,-1.694c-0.533,-0.422 -1.208,-0.675 -1.941,-0.675c-0.865,0 -1.649,0.351 -2.216,0.918c-0.567,0.567 -0.918,1.35 -0.918,2.215c0,0.866 0.351,1.649 0.918,2.216c0.567,0.567 1.351,0.918 2.216,0.918" style="fill:rgb(195,32,50);fill-rule:nonzero;"/>        </g>        <g transform="matrix(1,0,0,1,316.05,711.522)">            <path d="M0,43.837c-0.375,-1.127 -0.625,-1.815 -0.625,-5.386l0,-6.888c0,-4.071 -1.379,-5.574 -4.509,-5.574l-2.38,0l0,17.848l-6.889,0l0,-43.837l10.396,0c7.138,0 10.207,3.319 10.207,10.083l0,3.444c0,4.51 -1.44,7.39 -4.508,8.83l0,0.125c3.443,1.441 4.571,4.697 4.571,9.269l0,6.763c0,2.129 0.062,3.695 0.751,5.323l-7.014,0Zm-7.514,-37.574l0,13.464l2.692,0c2.568,0 4.133,-1.126 4.133,-4.633l0,-4.322c0,-3.131 -1.064,-4.509 -3.507,-4.509l-3.318,0Z" style="fill:rgb(195,32,50);fill-rule:nonzero;"/>        </g>        <g transform="matrix(1,0,0,1,329.389,744.838)">            <path d="M0,-22.794c0,-7.015 3.695,-11.022 10.458,-11.022c6.764,0 10.459,4.007 10.459,11.022l0,22.794c0,7.014 -3.695,11.022 -10.459,11.022c-6.763,0 -10.458,-4.008 -10.458,-11.022l0,-22.794Zm6.889,23.233c0,3.131 1.377,4.32 3.569,4.32c2.192,0 3.571,-1.189 3.571,-4.32l0,-23.672c0,-3.131 -1.379,-4.321 -3.571,-4.321c-2.192,0 -3.569,1.19 -3.569,4.321l0,23.672Z" style="fill:rgb(195,32,50);fill-rule:nonzero;"/>        </g>        <g transform="matrix(1,0,0,1,377.86,727.868)">            <path d="M0,11.146l0,5.824c0,7.014 -3.507,11.022 -10.27,11.022c-6.763,0 -10.27,-4.008 -10.27,-11.022l0,-22.795c0,-7.014 3.507,-11.021 10.27,-11.021c6.763,0 10.27,4.007 10.27,11.021l0,4.258l-6.514,0l0,-4.696c0,-3.131 -1.377,-4.322 -3.569,-4.322c-2.191,0 -3.569,1.191 -3.569,4.322l0,23.672c0,3.131 1.378,4.258 3.569,4.258c2.192,0 3.569,-1.127 3.569,-4.258l0,-6.263l6.514,0Z" style="fill:rgb(195,32,50);fill-rule:nonzero;"/>        </g>        <g transform="matrix(1,0,0,1,394.203,728.994)">            <path d="M0,8.893l-2.129,4.008l0,13.463l-6.889,0l0,-43.835l6.889,0l0,18.975l0.125,0l8.893,-18.975l6.888,0l-9.581,19.538l9.581,24.297l-7.076,0l-6.701,-17.471Z" style="fill:rgb(195,32,50);fill-rule:nonzero;"/>        </g>        <g transform="matrix(1,0,0,1,434.657,744.525)">            <path d="M0,-22.169l0,5.699c0,7.014 -3.382,10.834 -10.27,10.834l-3.256,0l0,16.47l-6.89,0l0,-43.837l10.146,0c6.888,0 10.27,3.82 10.27,10.834m-13.526,-4.571l0,14.842l3.256,0c2.192,0 3.381,-1.003 3.381,-4.133l0,-6.576c0,-3.131 -1.189,-4.133 -3.381,-4.133l-3.256,0Z" style="fill:rgb(195,32,50);fill-rule:nonzero;"/>        </g>        <g transform="matrix(1,0,0,1,440.418,744.838)">            <path d="M0,-22.794c0,-7.015 3.695,-11.022 10.459,-11.022c6.763,0 10.458,4.007 10.458,11.022l0,22.794c0,7.014 -3.695,11.022 -10.458,11.022c-6.764,0 -10.459,-4.008 -10.459,-11.022l0,-22.794Zm6.889,23.233c0,3.131 1.378,4.32 3.57,4.32c2.192,0 3.569,-1.189 3.569,-4.32l0,-23.672c0,-3.131 -1.377,-4.321 -3.569,-4.321c-2.192,0 -3.57,1.19 -3.57,4.321l0,23.672Z" style="fill:rgb(195,32,50);fill-rule:nonzero;"/>        </g>        <g transform="matrix(1,0,0,1,468.348,744.838)">            <path d="M0,-22.794c0,-7.015 3.695,-11.022 10.459,-11.022c6.763,0 10.458,4.007 10.458,11.022l0,22.794c0,7.014 -3.695,11.022 -10.458,11.022c-6.764,0 -10.459,-4.008 -10.459,-11.022l0,-22.794Zm6.889,23.233c0,3.131 1.378,4.32 3.57,4.32c2.192,0 3.569,-1.189 3.569,-4.32l0,-23.672c0,-3.131 -1.377,-4.321 -3.569,-4.321c-2.192,0 -3.57,1.19 -3.57,4.321l0,23.672Z" style="fill:rgb(195,32,50);fill-rule:nonzero;"/>        </g>        <g transform="matrix(1,0,0,1,496.842,755.36)">            <path d="M0,-43.837l6.889,0l0,37.574l11.335,0l0,6.263l-18.224,0l0,-43.837Z" style="fill:rgb(195,32,50);fill-rule:nonzero;"/>        </g>    </g></svg>