<?xml version="1.0" encoding="UTF-8" standalone="no"?><!DOCTYPE svg PUBLIC "-//W3C//DTD SVG 1.1//EN" "http://www.w3.org/Graphics/SVG/1.1/DTD/svg11.dtd"><svg width="100%" height="100%" viewBox="0 0 1024 512" version="1.1" xmlns="http://www.w3.org/2000/svg" xmlns:xlink="http://www.w3.org/1999/xlink" xml:space="preserve" style="fill-rule:evenodd;clip-rule:evenodd;stroke-linejoin:round;stroke-miterlimit:2;"><title>Collin Crowdfund</title><desc>Collin Crowdfund is the market leader in the crowdfunding industry and provides linear loans to SMEs. You have the opportunity to invest in these responsible investment opportunities, where you as an investor receive monthly repayments in the form of interest and repayment during the term.</desc>    <g transform="matrix(2.86855,0,0,2.86855,2,181.418)">        <g transform="matrix(1,0,0,1,-27.42,-33.53)">            <path d="M27.42,59.72c0,-9.31 5,-17 15.6,-17c2.738,-0.061 5.46,0.436 8,1.46l0,6.19c-2.217,-1.185 -4.708,-1.761 -7.22,-1.67c-5.72,0 -8.84,3.8 -8.84,11c0.04,6.62 3.43,10.3 9.04,10.3c2.604,0.058 5.17,-0.637 7.39,-2l0,6.34c-2.601,1.144 -5.431,1.678 -8.27,1.56c-10.4,0.04 -15.7,-6.9 -15.7,-16.18Z" style="fill:rgb(0,50,108);fill-rule:nonzero;"/>        </g>        <g transform="matrix(1,0,0,1,-27.42,-33.53)">            <path d="M53.13,62.79c0,-6.86 4,-13.21 12.38,-13.21c8.38,0 12.27,5.77 12.27,13.21c0,6.81 -4,13.16 -12.32,13.16c-8.32,0 -12.33,-5.78 -12.33,-13.16Zm17.47,0c0,-4.63 -1.3,-8.06 -5.15,-8.06c-3.85,0 -5.1,3.43 -5.1,8.06c0,4.63 1.25,8 5.15,8c3.9,0 5.11,-3.37 5.11,-8l-0.01,0Z" style="fill:rgb(0,50,108);fill-rule:nonzero;"/>        </g>        <g transform="matrix(1,0,0,1,-27.42,-33.53)">            <rect x="81.52" y="33.53" width="5.93" height="52" style="fill:rgb(111,178,222);fill-rule:nonzero;"/>        </g>        <g transform="matrix(1,0,0,1,-27.42,-33.53)">            <rect x="93.51" y="33.53" width="5.93" height="52" style="fill:rgb(111,178,222);fill-rule:nonzero;"/>        </g>        <g transform="matrix(1,0,0,1,-27.42,-33.53)">            <path d="M104,42.51c-0.001,-0.043 -0.002,-0.087 -0.002,-0.13c0,-2.299 1.891,-4.19 4.19,-4.19c2.299,0 4.19,1.891 4.19,4.19c0,2.29 -1.878,4.178 -4.168,4.19c-0.037,0.001 -0.073,0.001 -0.11,0.001c-2.235,0 -4.079,-1.826 -4.1,-4.061Zm0.69,7.49l7,0l0,25.53l-7,0l0,-25.53Z" style="fill:rgb(0,50,108);fill-rule:nonzero;"/>        </g>        <g transform="matrix(1,0,0,1,-27.42,-33.53)">            <path d="M117.41,50l6.81,0l0,2c1.989,-1.583 4.458,-2.443 7,-2.44c6.24,0 8.37,3.85 8.37,9l0,17l-6.89,0l0,-15.94c0,-3 -1,-4.58 -4,-4.58c-1.576,0.053 -3.093,0.618 -4.32,1.61l0,18.88l-7,0l0,-25.53l0.03,0Z" style="fill:rgb(0,50,108);fill-rule:nonzero;"/>        </g>        <g transform="matrix(1,0,0,1,-27.42,-33.53)">            <path d="M150.17,59.72c0,-9.31 5,-17 15.6,-17c2.738,-0.061 5.46,0.436 8,1.46l0,6.19c-2.221,-1.183 -4.716,-1.756 -7.23,-1.66c-5.72,0 -8.84,3.8 -8.84,11c0,6.6 3.43,10.24 9,10.24c2.619,0.085 5.208,-0.593 7.45,-1.95l0,6.34c-2.601,1.144 -5.431,1.678 -8.27,1.56c-10.4,0.04 -15.71,-6.9 -15.71,-16.18Z" style="fill:rgb(0,50,108);fill-rule:nonzero;"/>        </g>        <g transform="matrix(1,0,0,1,-27.42,-33.53)">            <path d="M178.36,50l6.81,0l0,2.7c1.567,-1.96 3.941,-3.108 6.45,-3.12c0.721,-0.001 1.439,0.103 2.13,0.31l0,6.11c-0.884,-0.215 -1.791,-0.319 -2.7,-0.31c-2.061,-0.026 -4.079,0.593 -5.77,1.77l0,18.1l-6.92,0l0,-25.56Z" style="fill:rgb(0,50,108);fill-rule:nonzero;"/>        </g>        <g transform="matrix(1,0,0,1,-27.42,-33.53)">            <path d="M195,62.79c0,-6.86 4,-13.21 12.38,-13.21c8.38,0 12.27,5.77 12.27,13.21c0,6.81 -4,13.16 -12.32,13.16c-8.32,0 -12.33,-5.78 -12.33,-13.16Zm17.47,0c0,-4.63 -1.3,-8.06 -5.15,-8.06c-3.85,0 -5.1,3.43 -5.1,8.06c0,4.63 1.25,8 5.15,8c3.9,0 5.06,-3.37 5.06,-8l0.04,0Z" style="fill:rgb(0,50,108);fill-rule:nonzero;"/>        </g>        <g transform="matrix(1,0,0,1,-27.42,-33.53)">            <path d="M220.47,50l7.07,0l4,13.68c0.57,1.87 1,3.59 1.25,4.89l0.11,0c0.36,-1.51 0.73,-3 1.3,-4.78l2.5,-8l-1.88,-5.79l7.07,0l3.85,13.83c0.52,1.82 0.94,3.43 1.2,4.73l0.06,0c0.36,-1.46 0.62,-3.07 1.09,-4.94l3.42,-13.62l6.76,0l-7.33,25.53l-7.75,0l-3.48,-12.12l-0.1,0l-3.61,12.12l-7.59,0l-7.94,-25.53Z" style="fill:rgb(0,50,108);fill-rule:nonzero;"/>        </g>        <g transform="matrix(1,0,0,1,-27.42,-33.53)">            <path d="M259.31,63c0,-7.49 4.52,-13.47 11.8,-13.47c1.59,-0.062 3.174,0.239 4.63,0.88l0,-10.24l6.92,0l0,35.36l-6.92,0l0,-2c-1.599,1.616 -3.808,2.485 -6.08,2.39c-7.07,0.02 -10.35,-5.23 -10.35,-12.92Zm16.43,6l0,-13.44c-1.008,-0.485 -2.112,-0.734 -3.23,-0.73c-4,0 -5.88,3.07 -5.88,7.9c0,4.32 1.3,7.75 5.3,7.75c1.403,0.045 2.77,-0.457 3.81,-1.4l0,-0.08Z" style="fill:rgb(0,50,108);fill-rule:nonzero;"/>        </g>        <g transform="matrix(1,0,0,1,-27.42,-33.53)">            <path d="M289.83,55l-3.9,0l0,-5l3.9,0l0,-2.29c0,-5.46 3.33,-8 8.79,-8c1.692,0.011 3.375,0.256 5,0.73l0,5c-1.07,-0.289 -2.172,-0.447 -3.28,-0.47c-2.6,0 -3.59,1 -3.59,3.59l0,1.44l5.88,0l0,5l-5.83,0l0,20.53l-7,0l0,-20.53l0.03,0Z" style="fill:rgb(0,50,108);fill-rule:nonzero;"/>        </g>        <g transform="matrix(1,0,0,1,-27.42,-33.53)">            <path d="M305.57,66.95l0,-16.95l7,0l0,15.91c0,3 1,4.58 4.06,4.58c1.57,-0.087 3.077,-0.648 4.32,-1.61l0,-18.88l6.92,0l0,25.53l-6.87,0l0,-2c-1.98,1.598 -4.455,2.461 -7,2.44c-6.25,-0.03 -8.43,-3.87 -8.43,-9.02Z" style="fill:rgb(0,50,108);fill-rule:nonzero;"/>        </g>        <g transform="matrix(1,0,0,1,-27.42,-33.53)">            <path d="M333.37,50l6.81,0l0,2c1.989,-1.583 4.458,-2.444 7,-2.44c6.24,0 8.37,3.85 8.37,9l0,17l-6.92,0l0,-15.94c0,-3 -1,-4.58 -4,-4.58c-1.576,0.053 -3.093,0.618 -4.32,1.61l0,18.88l-7,0l0,-25.53l0.06,0Z" style="fill:rgb(0,50,108);fill-rule:nonzero;"/>        </g>        <g transform="matrix(1,0,0,1,-27.42,-33.53)">            <path d="M359.69,63c0,-7.49 4.52,-13.47 11.81,-13.47c1.59,-0.062 3.174,0.239 4.63,0.88l0,-10.24l6.87,0l0,35.36l-6.92,0l0,-2c-1.596,1.624 -3.805,2.499 -6.08,2.41c-7,0 -10.31,-5.25 -10.31,-12.94Zm16.43,6l0,-13.44c-1.004,-0.483 -2.105,-0.733 -3.22,-0.73c-4,0 -5.88,3.07 -5.88,7.9c0,4.32 1.3,7.75 5.3,7.75c1.4,0.043 2.763,-0.459 3.8,-1.4l0,-0.08Z" style="fill:rgb(0,50,108);fill-rule:nonzero;"/>        </g>    </g></svg>