<?xml version="1.0" encoding="UTF-8" standalone="no"?><!DOCTYPE svg PUBLIC "-//W3C//DTD SVG 1.1//EN" "http://www.w3.org/Graphics/SVG/1.1/DTD/svg11.dtd"><svg width="100%" height="100%" viewBox="0 0 1024 512" version="1.1" xmlns="http://www.w3.org/2000/svg" xmlns:xlink="http://www.w3.org/1999/xlink" xml:space="preserve" style="fill-rule:evenodd;clip-rule:evenodd;stroke-linejoin:round;stroke-miterlimit:2;"><title>UdenomBanken</title><desc>UdenomBanken is a mortgage broker, which connects borrowers in Denmark with institutional and private investors in Denmark.UdenomBanken is able to identify properties and buyers through fine-masked credit rating systems, which, despite the refusal of banks and mortgage banks, are suitable for obtaining a loan for the purchase of real estate.</desc>    <g transform="matrix(1,0,0,0.99953,4,149.587)">        <g transform="matrix(0.821317,0,0,0.821317,-241.825,-25.406)">            <g transform="matrix(1,0,0,1,226.271,4.44866)">                <path d="M65.729,187.008l0,-162.457l74.386,0l0,182.27c6.593,13.6 19.286,22.67 32.745,22.67c17.349,0 31.956,-15.072 36.183,-35.489l-9.314,75.549c0,0 -47.447,18.004 -70.008,11c-28.992,-9 -63.992,-47.668 -63.992,-93.051l0.002,-0.5l-0.002,0.008Z" style="fill:rgb(76,157,253);"/>            </g>            <g transform="matrix(1,0,0,1,226.271,2.44866)">                <path d="M207.043,204.526l0,-126.234c41.163,9.709 71.706,46.07 71.706,101.767c0,65.599 -42.37,109.608 -94.559,109.608c-18.725,0 -37.758,-1.782 -54.469,-7.097c45.937,-1.501 67.841,-35.522 77.322,-78.044Z" style="fill:rgb(150,16,160);"/>            </g>        </g>        <g transform="matrix(1.98267,0,0,3.23771,-551.29,-455.093)">            <g transform="matrix(53.9203,0,0,33.0191,393.708,184.494)">                <path d="M0.669,-0.273c0,0.042 -0.006,0.081 -0.019,0.116c-0.013,0.035 -0.031,0.066 -0.056,0.092c-0.025,0.026 -0.057,0.046 -0.094,0.061c-0.037,0.015 -0.08,0.022 -0.129,0.022c-0.049,0 -0.093,-0.007 -0.13,-0.022c-0.037,-0.015 -0.069,-0.035 -0.094,-0.061c-0.024,-0.026 -0.043,-0.057 -0.056,-0.092c-0.013,-0.035 -0.019,-0.074 -0.019,-0.116l0,-0.435l0.156,0l0,0.429c0,0.022 0.004,0.042 0.011,0.061c0.007,0.019 0.016,0.035 0.029,0.048c0.013,0.014 0.028,0.025 0.045,0.032c0.018,0.008 0.037,0.012 0.058,0.012c0.021,0 0.04,-0.004 0.057,-0.012c0.017,-0.007 0.032,-0.018 0.045,-0.032c0.013,-0.013 0.023,-0.029 0.03,-0.048c0.007,-0.019 0.01,-0.039 0.01,-0.061l0,-0.429l0.156,0l0,0.435Z" style="fill-rule:nonzero;"/>            </g>            <g transform="matrix(53.9203,0,0,33.0191,433.663,184.692)">                <path d="M0.563,0l-0.138,0l0,-0.064l-0.002,0c-0.006,0.009 -0.014,0.017 -0.024,0.027c-0.009,0.009 -0.021,0.017 -0.034,0.024c-0.012,0.007 -0.027,0.013 -0.042,0.018c-0.016,0.005 -0.032,0.007 -0.049,0.007c-0.036,0 -0.069,-0.006 -0.098,-0.018c-0.029,-0.013 -0.055,-0.03 -0.076,-0.053c-0.021,-0.022 -0.037,-0.048 -0.048,-0.079c-0.011,-0.031 -0.017,-0.064 -0.017,-0.101c0,-0.034 0.005,-0.066 0.015,-0.098c0.011,-0.03 0.025,-0.058 0.044,-0.082c0.019,-0.024 0.043,-0.043 0.07,-0.057c0.027,-0.015 0.058,-0.022 0.093,-0.022c0.031,0 0.061,0.005 0.088,0.015c0.027,0.009 0.049,0.026 0.066,0.049l0.002,0l0,-0.322l0.15,0l0,0.756Zm-0.138,-0.243c0,-0.037 -0.01,-0.066 -0.031,-0.089c-0.021,-0.023 -0.051,-0.034 -0.089,-0.034c-0.038,0 -0.067,0.011 -0.088,0.034c-0.021,0.023 -0.032,0.052 -0.032,0.089c0,0.037 0.011,0.066 0.032,0.089c0.021,0.023 0.05,0.034 0.088,0.034c0.038,0 0.068,-0.011 0.089,-0.034c0.021,-0.023 0.031,-0.052 0.031,-0.089Z" style="fill-rule:nonzero;"/>            </g>            <g transform="matrix(53.9203,0,0,33.0191,467.632,184.692)">                <path d="M0.513,-0.084c-0.024,0.031 -0.054,0.054 -0.091,0.071c-0.037,0.017 -0.075,0.025 -0.114,0.025c-0.037,0 -0.073,-0.006 -0.106,-0.018c-0.033,-0.012 -0.061,-0.029 -0.086,-0.052c-0.024,-0.022 -0.043,-0.049 -0.057,-0.08c-0.014,-0.031 -0.021,-0.066 -0.021,-0.105c0,-0.039 0.007,-0.074 0.021,-0.105c0.014,-0.031 0.033,-0.058 0.057,-0.081c0.025,-0.022 0.053,-0.039 0.086,-0.051c0.033,-0.012 0.069,-0.018 0.106,-0.018c0.035,0 0.066,0.006 0.094,0.018c0.029,0.012 0.053,0.029 0.073,0.051c0.019,0.023 0.034,0.05 0.045,0.081c0.011,0.031 0.016,0.066 0.016,0.105l0,0.047l-0.348,0c0.006,0.029 0.019,0.052 0.039,0.069c0.02,0.017 0.045,0.025 0.074,0.025c0.025,0 0.046,-0.005 0.063,-0.017c0.017,-0.01 0.031,-0.025 0.044,-0.042l0.105,0.077Zm-0.127,-0.214c0.001,-0.025 -0.008,-0.047 -0.025,-0.065c-0.017,-0.018 -0.04,-0.027 -0.067,-0.027c-0.017,0 -0.031,0.003 -0.044,0.008c-0.013,0.005 -0.023,0.012 -0.033,0.021c-0.008,0.008 -0.015,0.018 -0.02,0.028c-0.006,0.011 -0.008,0.023 -0.009,0.035l0.198,0Z" style="fill-rule:nonzero;"/>            </g>            <g transform="matrix(53.9203,0,0,33.0191,498.583,185.089)">                <path d="M0.053,-0.486l0.144,0l0,0.066l0.002,0c0.005,-0.009 0.011,-0.019 0.02,-0.028c0.009,-0.009 0.019,-0.018 0.031,-0.025c0.012,-0.007 0.026,-0.013 0.041,-0.018c0.015,-0.005 0.032,-0.007 0.05,-0.007c0.038,0 0.069,0.006 0.092,0.018c0.023,0.011 0.042,0.027 0.055,0.048c0.013,0.021 0.021,0.045 0.026,0.073c0.005,0.028 0.007,0.058 0.007,0.091l0,0.268l-0.15,0l0,-0.238c0,-0.014 0,-0.028 -0.001,-0.044c-0.001,-0.014 -0.004,-0.028 -0.009,-0.041c-0.005,-0.013 -0.013,-0.023 -0.023,-0.031c-0.011,-0.008 -0.026,-0.012 -0.045,-0.012c-0.019,0 -0.035,0.004 -0.047,0.011c-0.012,0.006 -0.021,0.016 -0.027,0.027c-0.007,0.012 -0.011,0.025 -0.013,0.04c-0.002,0.015 -0.003,0.03 -0.003,0.046l0,0.242l-0.15,0l0,-0.486Z" style="fill-rule:nonzero;"/>            </g>            <g transform="matrix(53.9203,0,0,33.0191,529.533,184.692)">                <path d="M0.035,-0.243c0,-0.039 0.007,-0.074 0.021,-0.105c0.014,-0.031 0.033,-0.058 0.057,-0.081c0.025,-0.022 0.053,-0.039 0.086,-0.051c0.034,-0.012 0.069,-0.018 0.106,-0.018c0.037,0 0.073,0.006 0.106,0.018c0.033,0.012 0.061,0.029 0.086,0.051c0.024,0.023 0.043,0.05 0.057,0.081c0.014,0.031 0.021,0.066 0.021,0.105c0,0.039 -0.007,0.074 -0.021,0.105c-0.014,0.031 -0.033,0.058 -0.058,0.081c-0.024,0.022 -0.053,0.039 -0.086,0.051c-0.033,0.012 -0.068,0.018 -0.105,0.018c-0.037,0 -0.073,-0.006 -0.106,-0.018c-0.033,-0.012 -0.061,-0.029 -0.086,-0.051c-0.024,-0.023 -0.043,-0.05 -0.057,-0.081c-0.014,-0.031 -0.021,-0.066 -0.021,-0.105Zm0.15,0c0,0.037 0.01,0.066 0.031,0.089c0.021,0.023 0.051,0.034 0.089,0.034c0.038,0 0.067,-0.011 0.088,-0.034c0.022,-0.023 0.032,-0.052 0.032,-0.089c0,-0.037 -0.011,-0.066 -0.032,-0.089c-0.021,-0.023 -0.05,-0.034 -0.088,-0.034c-0.038,0 -0.068,0.011 -0.089,0.034c-0.021,0.023 -0.031,0.052 -0.031,0.089Z" style="fill-rule:nonzero;"/>            </g>            <g transform="matrix(53.9203,0,0,33.0191,562.424,185.089)">                <path d="M0.053,-0.486l0.144,0l0,0.066l0.002,0c0.005,-0.009 0.011,-0.019 0.02,-0.028c0.009,-0.009 0.019,-0.018 0.031,-0.025c0.012,-0.007 0.026,-0.013 0.041,-0.018c0.015,-0.005 0.032,-0.007 0.05,-0.007c0.034,0 0.064,0.007 0.091,0.021c0.026,0.014 0.046,0.036 0.059,0.066c0.017,-0.031 0.038,-0.054 0.063,-0.067c0.025,-0.013 0.055,-0.02 0.091,-0.02c0.033,0 0.06,0.006 0.083,0.017c0.022,0.011 0.04,0.026 0.053,0.045c0.013,0.019 0.022,0.041 0.028,0.067c0.005,0.025 0.008,0.053 0.008,0.082l0,0.287l-0.15,0l0,-0.283c0,-0.023 -0.005,-0.042 -0.014,-0.058c-0.01,-0.017 -0.027,-0.025 -0.052,-0.025c-0.017,0 -0.032,0.003 -0.043,0.009c-0.012,0.005 -0.021,0.013 -0.028,0.023c-0.007,0.01 -0.012,0.022 -0.015,0.035c-0.003,0.013 -0.005,0.027 -0.005,0.042l0,0.257l-0.15,0l0,-0.257c0,-0.009 0,-0.019 -0.001,-0.032c-0.001,-0.013 -0.003,-0.025 -0.007,-0.036c-0.004,-0.011 -0.01,-0.021 -0.019,-0.029c-0.009,-0.008 -0.023,-0.012 -0.04,-0.012c-0.019,0 -0.035,0.004 -0.047,0.011c-0.012,0.007 -0.021,0.016 -0.027,0.028c-0.007,0.011 -0.011,0.024 -0.013,0.039c-0.002,0.015 -0.003,0.03 -0.003,0.046l0,0.242l-0.15,0l0,-0.486Z" style="fill-rule:nonzero;"/>            </g>            <g transform="matrix(53.9203,0,0,33.0191,607.635,185.089)">                <path d="M0.072,-0.708l0.264,0c0.031,0 0.061,0.002 0.092,0.006c0.031,0.005 0.059,0.013 0.084,0.026c0.025,0.013 0.045,0.032 0.06,0.055c0.015,0.023 0.023,0.054 0.023,0.093c0,0.04 -0.011,0.073 -0.034,0.099c-0.022,0.027 -0.051,0.046 -0.088,0.057l0,0.002c0.023,0.003 0.044,0.01 0.063,0.019c0.019,0.01 0.036,0.022 0.049,0.037c0.014,0.015 0.025,0.033 0.032,0.053c0.007,0.02 0.011,0.041 0.011,0.064c0,0.037 -0.008,0.068 -0.024,0.093c-0.016,0.025 -0.037,0.046 -0.062,0.061c-0.025,0.015 -0.054,0.026 -0.086,0.033c-0.031,0.007 -0.063,0.01 -0.094,0.01l-0.29,0l0,-0.708Zm0.156,0.283l0.113,0c0.012,0 0.024,-0.001 0.035,-0.004c0.012,-0.003 0.023,-0.007 0.032,-0.013c0.009,-0.006 0.017,-0.014 0.022,-0.024c0.006,-0.01 0.009,-0.022 0.009,-0.036c0,-0.015 -0.003,-0.027 -0.01,-0.036c-0.006,-0.01 -0.014,-0.018 -0.024,-0.023c-0.01,-0.005 -0.021,-0.009 -0.034,-0.011c-0.013,-0.003 -0.025,-0.004 -0.037,-0.004l-0.106,0l0,0.151Zm0,0.293l0.14,0c0.012,0 0.024,-0.001 0.036,-0.004c0.013,-0.003 0.024,-0.007 0.034,-0.014c0.01,-0.007 0.018,-0.015 0.024,-0.026c0.007,-0.011 0.01,-0.024 0.01,-0.039c0,-0.017 -0.004,-0.03 -0.013,-0.04c-0.008,-0.011 -0.018,-0.019 -0.031,-0.024c-0.013,-0.005 -0.026,-0.009 -0.041,-0.011c-0.015,-0.002 -0.028,-0.003 -0.041,-0.003l-0.118,0l0,0.161Z" style="fill-rule:nonzero;"/>            </g>            <g transform="matrix(53.9203,0,0,33.0191,642.575,184.692)">                <path d="M0.358,-0.061l-0.002,0c-0.017,0.026 -0.039,0.045 -0.067,0.056c-0.027,0.011 -0.056,0.017 -0.087,0.017c-0.023,0 -0.044,-0.003 -0.065,-0.01c-0.021,-0.006 -0.04,-0.015 -0.056,-0.028c-0.016,-0.013 -0.029,-0.028 -0.038,-0.047c-0.009,-0.019 -0.014,-0.04 -0.014,-0.065c0,-0.028 0.005,-0.052 0.016,-0.071c0.01,-0.019 0.024,-0.035 0.042,-0.048c0.017,-0.013 0.037,-0.023 0.06,-0.03c0.023,-0.007 0.046,-0.012 0.071,-0.015c0.024,-0.003 0.048,-0.005 0.073,-0.006c0.024,-0.001 0.046,-0.001 0.067,-0.001c0,-0.027 -0.009,-0.048 -0.028,-0.063c-0.019,-0.016 -0.042,-0.024 -0.068,-0.024c-0.025,0 -0.047,0.005 -0.067,0.016c-0.021,0.01 -0.039,0.024 -0.055,0.042l-0.08,-0.082c0.028,-0.026 0.061,-0.045 0.098,-0.058c0.037,-0.013 0.076,-0.02 0.116,-0.02c0.044,0 0.08,0.006 0.109,0.017c0.028,0.011 0.051,0.027 0.068,0.048c0.017,0.021 0.028,0.048 0.035,0.079c0.007,0.031 0.01,0.066 0.01,0.107l0,0.247l-0.138,0l0,-0.061Zm-0.037,-0.152c-0.011,0 -0.025,0.001 -0.042,0.002c-0.018,0.001 -0.034,0.003 -0.05,0.008c-0.015,0.005 -0.029,0.012 -0.04,0.021c-0.011,0.009 -0.016,0.022 -0.016,0.039c0,0.018 0.008,0.031 0.023,0.04c0.015,0.009 0.031,0.013 0.048,0.013c0.015,0 0.029,-0.002 0.042,-0.006c0.014,-0.004 0.026,-0.01 0.037,-0.017c0.011,-0.007 0.019,-0.017 0.026,-0.028c0.006,-0.011 0.009,-0.025 0.009,-0.04l0,-0.032l-0.037,0Z" style="fill-rule:nonzero;"/>            </g>            <g transform="matrix(53.9203,0,0,33.0191,671.53,185.089)">                <path d="M0.053,-0.486l0.144,0l0,0.066l0.002,0c0.005,-0.009 0.011,-0.019 0.02,-0.028c0.009,-0.009 0.019,-0.018 0.031,-0.025c0.012,-0.007 0.026,-0.013 0.041,-0.018c0.015,-0.005 0.032,-0.007 0.05,-0.007c0.038,0 0.069,0.006 0.092,0.018c0.023,0.011 0.042,0.027 0.055,0.048c0.013,0.021 0.021,0.045 0.026,0.073c0.005,0.028 0.007,0.058 0.007,0.091l0,0.268l-0.15,0l0,-0.238c0,-0.014 0,-0.028 -0.001,-0.044c-0.001,-0.014 -0.004,-0.028 -0.009,-0.041c-0.005,-0.013 -0.013,-0.023 -0.023,-0.031c-0.011,-0.008 -0.026,-0.012 -0.045,-0.012c-0.019,0 -0.035,0.004 -0.047,0.011c-0.012,0.006 -0.021,0.016 -0.027,0.027c-0.007,0.012 -0.011,0.025 -0.013,0.04c-0.002,0.015 -0.003,0.03 -0.003,0.046l0,0.242l-0.15,0l0,-0.486Z" style="fill-rule:nonzero;"/>            </g>            <g transform="matrix(53.9203,0,0,33.0191,702.48,185.089)">                <path d="M0.053,-0.756l0.15,0l0,0.462l0.166,-0.192l0.184,0l-0.193,0.219l0.198,0.267l-0.189,0l-0.164,-0.246l-0.002,0l0,0.246l-0.15,0l0,-0.756Z" style="fill-rule:nonzero;"/>            </g>            <g transform="matrix(53.9203,0,0,33.0191,732.46,184.692)">                <path d="M0.513,-0.084c-0.024,0.031 -0.054,0.054 -0.091,0.071c-0.037,0.017 -0.075,0.025 -0.114,0.025c-0.037,0 -0.073,-0.006 -0.106,-0.018c-0.033,-0.012 -0.061,-0.029 -0.086,-0.052c-0.024,-0.022 -0.043,-0.049 -0.057,-0.08c-0.014,-0.031 -0.021,-0.066 -0.021,-0.105c0,-0.039 0.007,-0.074 0.021,-0.105c0.014,-0.031 0.033,-0.058 0.057,-0.081c0.025,-0.022 0.053,-0.039 0.086,-0.051c0.033,-0.012 0.069,-0.018 0.106,-0.018c0.035,0 0.066,0.006 0.094,0.018c0.029,0.012 0.053,0.029 0.073,0.051c0.019,0.023 0.034,0.05 0.045,0.081c0.011,0.031 0.016,0.066 0.016,0.105l0,0.047l-0.348,0c0.006,0.029 0.019,0.052 0.039,0.069c0.02,0.017 0.045,0.025 0.074,0.025c0.025,0 0.046,-0.005 0.063,-0.017c0.017,-0.01 0.031,-0.025 0.044,-0.042l0.105,0.077Zm-0.127,-0.214c0.001,-0.025 -0.008,-0.047 -0.025,-0.065c-0.017,-0.018 -0.04,-0.027 -0.067,-0.027c-0.017,0 -0.031,0.003 -0.044,0.008c-0.013,0.005 -0.023,0.012 -0.033,0.021c-0.008,0.008 -0.015,0.018 -0.02,0.028c-0.006,0.011 -0.008,0.023 -0.009,0.035l0.198,0Z" style="fill-rule:nonzero;"/>            </g>            <g transform="matrix(53.9203,0,0,33.0191,763.41,185.089)">                <path d="M0.053,-0.486l0.144,0l0,0.066l0.002,0c0.005,-0.009 0.011,-0.019 0.02,-0.028c0.009,-0.009 0.019,-0.018 0.031,-0.025c0.012,-0.007 0.026,-0.013 0.041,-0.018c0.015,-0.005 0.032,-0.007 0.05,-0.007c0.038,0 0.069,0.006 0.092,0.018c0.023,0.011 0.042,0.027 0.055,0.048c0.013,0.021 0.021,0.045 0.026,0.073c0.005,0.028 0.007,0.058 0.007,0.091l0,0.268l-0.15,0l0,-0.238c0,-0.014 0,-0.028 -0.001,-0.044c-0.001,-0.014 -0.004,-0.028 -0.009,-0.041c-0.005,-0.013 -0.013,-0.023 -0.023,-0.031c-0.011,-0.008 -0.026,-0.012 -0.045,-0.012c-0.019,0 -0.035,0.004 -0.047,0.011c-0.012,0.006 -0.021,0.016 -0.027,0.027c-0.007,0.012 -0.011,0.025 -0.013,0.04c-0.002,0.015 -0.003,0.03 -0.003,0.046l0,0.242l-0.15,0l0,-0.486Z" style="fill-rule:nonzero;"/>            </g>        </g>    </g></svg>