<?xml version="1.0" encoding="UTF-8" standalone="no"?><!DOCTYPE svg PUBLIC "-//W3C//DTD SVG 1.1//EN" "http://www.w3.org/Graphics/SVG/1.1/DTD/svg11.dtd"><svg width="100%" height="100%" viewBox="0 0 1024 512" version="1.1" xmlns="http://www.w3.org/2000/svg" xmlns:xlink="http://www.w3.org/1999/xlink" xml:space="preserve" style="fill-rule:evenodd;clip-rule:evenodd;stroke-linejoin:round;stroke-miterlimit:2;"><title>Cubefunder</title><desc>At Cubefunder, we understand what it is like to own and run a small to medium-sized business. Even when things are going well, cashflow can be an ongoing struggle and a source of much stress. That is why when we reviewed the existing funding options for SME’s, we felt something new was required.</desc>    <g transform="matrix(5.07149,0,0,5.07149,-976.798,-2449.64)">        <g transform="matrix(0.333319,0,0,0.333319,84.1656,358.428)">            <g transform="matrix(74.24,0,0,74.24,474,551)">                <path d="M0.389,-0.1c-0.138,0 -0.233,-0.115 -0.233,-0.25c0,-0.135 0.095,-0.25 0.233,-0.25c0.115,0 0.178,0.077 0.178,0.077l0.081,-0.079c0,0 -0.091,-0.11 -0.259,-0.11c-0.202,0 -0.355,0.155 -0.355,0.362c0,0.207 0.153,0.362 0.355,0.362c0.177,0 0.269,-0.119 0.269,-0.119l-0.08,-0.079c0,0 -0.066,0.086 -0.189,0.086Z" style="fill:rgb(53,52,53);fill-rule:nonzero;"/>            </g>            <g transform="matrix(74.24,0,0,74.24,524.186,551)">                <path d="M0.494,-0.269c0,0.1 -0.051,0.167 -0.15,0.167c-0.1,0 -0.15,-0.067 -0.15,-0.167l0,-0.431l-0.12,0l0,0.446c0,0.154 0.105,0.266 0.27,0.266c0.165,0 0.27,-0.112 0.27,-0.266l0,-0.446l-0.12,0l0,0.431Z" style="fill:rgb(53,52,53);fill-rule:nonzero;"/>            </g>            <g transform="matrix(74.24,0,0,74.24,578.263,551)">                <path d="M0.074,0l0.252,0c0.132,0 0.234,-0.084 0.234,-0.207c0,-0.126 -0.099,-0.162 -0.109,-0.164c0.01,-0.003 0.073,-0.044 0.073,-0.129c0,-0.147 -0.109,-0.2 -0.223,-0.2l-0.227,0l0,0.7Zm0.248,-0.114l-0.128,0l0,-0.186l0.128,0c0.066,0 0.116,0.027 0.116,0.093c0,0.066 -0.05,0.093 -0.116,0.093Zm-0.128,-0.3l0,-0.172l0.103,0c0.059,0 0.105,0.025 0.105,0.086c0,0.061 -0.038,0.086 -0.105,0.086l-0.103,0Z" style="fill:rgb(53,52,53);fill-rule:nonzero;"/>            </g>            <g transform="matrix(74.24,0,0,74.24,628.065,551)">                <path d="M0.194,-0.586l0.304,0l0,-0.114l-0.424,0l0,0.7l0.43,0l0,-0.114l-0.31,0l0,-0.188l0.28,0l0,-0.114l-0.28,0l0,-0.17Z" style="fill:rgb(53,52,53);fill-rule:nonzero;"/>            </g>            <g transform="matrix(74.24,0,0,74.24,674.601,551)">                <path d="M0.168,0l-0.072,0l0,-0.708l0.427,0l0,0.066l-0.355,0l0,0.241l0.33,0l0,0.066l-0.33,0l0,0.335Z" style="fill:rgb(53,52,53);fill-rule:nonzero;"/>            </g>            <g transform="matrix(74.24,0,0,74.24,709.878,551)">                <path d="M0.602,-0.264c0,0.029 -0.003,0.061 -0.01,0.094c-0.008,0.033 -0.021,0.063 -0.04,0.091c-0.019,0.028 -0.046,0.051 -0.079,0.07c-0.034,0.018 -0.077,0.027 -0.13,0.027c-0.053,0 -0.097,-0.009 -0.13,-0.027c-0.033,-0.019 -0.06,-0.042 -0.079,-0.07c-0.019,-0.028 -0.032,-0.058 -0.039,-0.092c-0.007,-0.033 -0.011,-0.064 -0.011,-0.093l0,-0.444l0.072,0l0,0.436c0,0.034 0.003,0.063 0.01,0.087c0.007,0.025 0.016,0.045 0.027,0.062c0.011,0.017 0.023,0.03 0.037,0.039c0.013,0.01 0.027,0.018 0.041,0.023c0.013,0.005 0.026,0.009 0.039,0.01c0.013,0.002 0.024,0.003 0.033,0.003c0.009,0 0.02,-0.001 0.033,-0.003c0.013,-0.001 0.026,-0.005 0.04,-0.01c0.013,-0.005 0.027,-0.013 0.041,-0.023c0.013,-0.009 0.026,-0.022 0.037,-0.039c0.011,-0.017 0.019,-0.037 0.026,-0.062c0.007,-0.024 0.01,-0.053 0.01,-0.087l0,-0.436l0.072,0l0,0.444Z" style="fill:rgb(53,52,53);fill-rule:nonzero;"/>            </g>            <g transform="matrix(74.24,0,0,74.24,751.806,551)">                <path d="M0.608,-0.108l0.002,0l0,-0.6l0.072,0l0,0.708l-0.09,0l-0.422,-0.606l-0.002,0l0,0.606l-0.072,0l0,-0.708l0.09,0l0.422,0.6Z" style="fill:rgb(53,52,53);fill-rule:nonzero;"/>            </g>            <g transform="matrix(74.24,0,0,74.24,803.565,551)">                <path d="M0.158,-0.066l0.14,0c0.054,0 0.101,-0.008 0.14,-0.024c0.04,-0.017 0.073,-0.039 0.099,-0.066c0.027,-0.026 0.046,-0.057 0.059,-0.092c0.013,-0.034 0.019,-0.069 0.019,-0.106c0,-0.037 -0.006,-0.072 -0.019,-0.107c-0.013,-0.034 -0.032,-0.065 -0.059,-0.092c-0.026,-0.027 -0.059,-0.048 -0.099,-0.065c-0.039,-0.016 -0.086,-0.024 -0.14,-0.024l-0.14,0l0,0.576Zm-0.072,-0.642l0.235,0c0.044,0 0.088,0.007 0.132,0.022c0.045,0.015 0.085,0.037 0.12,0.066c0.036,0.03 0.065,0.067 0.087,0.111c0.022,0.045 0.033,0.096 0.033,0.155c0,0.059 -0.011,0.111 -0.033,0.155c-0.022,0.044 -0.051,0.081 -0.087,0.11c-0.035,0.03 -0.075,0.052 -0.12,0.067c-0.044,0.015 -0.088,0.022 -0.132,0.022l-0.235,0l0,-0.708Z" style="fill:rgb(53,52,53);fill-rule:nonzero;"/>            </g>            <g transform="matrix(74.24,0,0,74.24,849.576,551)">                <path d="M0.168,-0.066l0.379,0l0,0.066l-0.451,0l0,-0.708l0.439,0l0,0.066l-0.367,0l0,0.241l0.343,0l0,0.066l-0.343,0l0,0.269Z" style="fill:rgb(53,52,53);fill-rule:nonzero;"/>            </g>            <g transform="matrix(74.24,0,0,74.24,887.6,551)">                <path d="M0.168,-0.395l0.128,0c0.032,0 0.059,-0.003 0.081,-0.01c0.023,-0.007 0.041,-0.016 0.054,-0.026c0.013,-0.012 0.023,-0.024 0.029,-0.039c0.006,-0.016 0.009,-0.032 0.009,-0.049c0,-0.017 -0.003,-0.032 -0.009,-0.047c-0.006,-0.015 -0.016,-0.029 -0.029,-0.04c-0.013,-0.011 -0.031,-0.02 -0.054,-0.026c-0.022,-0.007 -0.049,-0.01 -0.081,-0.01l-0.128,0l0,0.247Zm0,0.395l-0.072,0l0,-0.708l0.218,0c0.072,0 0.129,0.016 0.17,0.047c0.042,0.031 0.063,0.079 0.063,0.142c0,0.049 -0.016,0.091 -0.047,0.125c-0.031,0.033 -0.075,0.053 -0.134,0.058l0.204,0.336l-0.088,0l-0.194,-0.329l-0.12,0l0,0.329Z" style="fill:rgb(53,52,53);fill-rule:nonzero;"/>            </g>        </g>        <g transform="matrix(1,0,0,1,-49.0414,36)">            <g transform="matrix(1,0,0,1,-17.9586,13)">                <path d="M288.978,506.047c-2.043,0.62 -4.222,0.953 -6.478,0.953c-12.418,0 -22.5,-10.082 -22.5,-22.5c0,-12.418 10.082,-22.5 22.5,-22.5c12.418,0 22.5,10.082 22.5,22.5c0,4.095 -1.096,7.935 -3.037,11.244l-0.046,0.079c-2.803,4.832 -7.37,8.521 -12.842,10.194l-0.097,0.03Z" style="fill:rgb(241,109,84);"/>            </g>            <g transform="matrix(1,0,0,1,5.4172,-56.0168)">                <path d="M250.583,559l0,-11l9,-4l8,4l0,11l10.917,5.823c-2.803,4.832 -7.37,8.521 -12.843,10.194l-15.074,-16.017Z" style="fill:rgb(202,91,76);"/>                <g transform="matrix(1,0,0,1,43.5828,20)">                    <path d="M216,532l-9,-4l0,11l9,4l0,-11Z" style="fill:white;"/>                </g>                <g transform="matrix(1,0,0,1,46.5828,6.673)">                    <path d="M221,552.327l0,-11l-7.583,4l0,11l7.583,-4Z" style="fill:white;"/>                </g>            </g>        </g>    </g></svg>