<?xml version="1.0" encoding="UTF-8" standalone="no"?><!DOCTYPE svg PUBLIC "-//W3C//DTD SVG 1.1//EN" "http://www.w3.org/Graphics/SVG/1.1/DTD/svg11.dtd"><svg width="100%" height="100%" viewBox="0 0 1024 512" version="1.1" xmlns="http://www.w3.org/2000/svg" xmlns:xlink="http://www.w3.org/1999/xlink" xml:space="preserve" style="fill-rule:evenodd;clip-rule:evenodd;stroke-linejoin:round;stroke-miterlimit:2;"><title>Crowd4Cash</title><desc>Crowd4Cash connects borrowers with investors on its user-friendly platform. Crowd4Cash offers private and institutional investors access to high-quality Swiss consumer and SME loans. </desc>    <g transform="matrix(1.87099,0,0,1.87103,-69.8771,-62.0748)">        <g transform="matrix(8.33333,0,0,8.33333,478.389,176.571)">            <path d="M0,-1.619c0.015,-0.099 0.025,-0.2 0.025,-0.303c0,-1.127 -0.914,-2.041 -2.041,-2.041c-1.128,0 -2.041,0.914 -2.041,2.041c0,0.108 0.008,0.214 0.024,0.317c-0.771,0.291 -1.322,1.034 -1.322,1.908c0,1.127 0.914,2.041 2.042,2.041c0.501,0 0.96,-0.182 1.316,-0.482c0.355,0.3 0.814,0.482 1.316,0.482c1.127,0 2.041,-0.914 2.041,-2.041c0,-0.888 -0.568,-1.641 -1.36,-1.922" style="fill:white;fill-rule:nonzero;"/>        </g>        <g transform="matrix(8.33333,0,0,8.33333,450.777,162.092)">            <path d="M0,4.082c1.127,0 2.041,-0.914 2.041,-2.041c0,-1.128 -0.914,-2.041 -2.041,-2.041c-1.127,0 -2.041,0.913 -2.041,2.041c0,1.127 0.914,2.041 2.041,2.041" style="fill:rgb(46,163,220);fill-rule:nonzero;"/>        </g>        <g transform="matrix(8.33333,0,0,8.33333,444.778,143.552)">            <path d="M0,2.355c-0.016,-0.101 -0.024,-0.204 -0.024,-0.309c0,0.105 0.009,0.208 0.024,0.309m4.036,-0.013c-0.001,-0.001 -0.002,-0.001 -0.002,-0.001c0.014,-0.099 0.024,-0.198 0.024,-0.301c0,0.103 -0.007,0.203 -0.022,0.302m-4.06,-0.297l0,-0.005l0,0.005m4.082,-0.005c0,-1.109 -0.885,-2.012 -1.988,-2.04c1.103,0.028 1.988,0.931 1.988,2.04m-4.082,0c0,-1.109 0.885,-2.012 1.988,-2.04c-1.103,0.028 -1.988,0.931 -1.988,2.04" style="fill:rgb(175,212,104);fill-rule:nonzero;"/>        </g>        <g transform="matrix(8.33333,0,0,8.33333,461.747,143.547)">            <path d="M0,2.706c-0.355,-0.3 -0.815,-0.481 -1.316,-0.481c-0.254,0 -0.496,0.046 -0.72,0.13c-0.015,-0.1 -0.024,-0.204 -0.024,-0.309l0,-0.001l0,-0.004c0,-1.11 0.885,-2.013 1.988,-2.041l0.106,0c1.103,0.028 1.988,0.931 1.988,2.041c0,0.102 -0.01,0.202 -0.025,0.3c-0.213,-0.075 -0.442,-0.116 -0.681,-0.116c-0.501,0 -0.961,0.181 -1.316,0.481" style="fill:rgb(175,212,104);fill-rule:nonzero;"/>        </g>        <g transform="matrix(7.85842,-2.77303,-2.77303,-7.85842,458.153,175.299)">            <path d="M-0.307,-0.055c-0.575,0.464 -0.863,1.217 -0.722,1.961c0.239,0.004 0.483,-0.032 0.722,-0.116c0.473,-0.167 0.846,-0.491 1.081,-0.892c-0.454,-0.173 -0.844,-0.504 -1.081,-0.953" style="fill:rgb(46,153,104);fill-rule:nonzero;"/>        </g>        <g transform="matrix(8.33333,0,0,8.33333,472.715,163.067)">            <path d="M0,3.965l-0.005,0l0.005,0c1.127,0 2.041,-0.914 2.041,-2.041c0,-0.887 -0.567,-1.64 -1.358,-1.922c0,0 0.001,-0.001 0.001,-0.002c0.791,0.281 1.357,1.036 1.357,1.924c0,1.127 -0.914,2.041 -2.041,2.041m-0.006,0l-0.005,0l0.005,0m-0.006,0l-0.005,0l0.005,0m-0.006,0c-0.495,-0.004 -0.947,-0.185 -1.298,-0.481l0,-0.001c0.352,0.297 0.804,0.478 1.298,0.482" style="fill:rgb(49,143,150);fill-rule:nonzero;"/>        </g>        <g transform="matrix(8.33333,0,0,8.33333,472.715,163.084)">            <path d="M0,3.963l-0.005,0l-0.001,0l-0.005,0l-0.001,0l-0.005,0l-0.001,0c-0.494,-0.004 -0.946,-0.185 -1.298,-0.482c0.443,-0.374 0.725,-0.934 0.725,-1.559c0,-0.107 -0.009,-0.212 -0.024,-0.315c0.68,-0.257 1.188,-0.867 1.298,-1.607c0.791,0.282 1.358,1.035 1.358,1.922c0,1.127 -0.914,2.041 -2.041,2.041" style="fill:rgb(49,143,150);fill-rule:nonzero;"/>        </g>        <g transform="matrix(8.33333,0,0,8.33333,461.747,176.475)">            <path d="M0,1.875c-0.443,-0.374 -0.725,-0.934 -0.725,-1.56c0,-0.103 0.008,-0.203 0.022,-0.302c0.214,0.076 0.444,0.118 0.684,0.118c0.253,0 0.496,-0.046 0.72,-0.131c0.016,0.103 0.024,0.208 0.024,0.315c0,0.625 -0.281,1.185 -0.724,1.559l-0.001,0.001" style="fill:rgb(1,119,140);fill-rule:nonzero;"/>        </g>        <g transform="matrix(6.93375,-4.6225,-4.6225,-6.93375,478.416,163.08)">            <path d="M-0.001,0c-0.001,0 -0.001,0.002 -0.001,0.002c0,0 0.001,0.001 0.001,0.001c0.001,0 0.002,-0.001 0.001,-0.002c0,0 0,0 -0.001,-0.001" style="fill:rgb(25,137,84);fill-rule:nonzero;"/>        </g>        <g transform="matrix(8.33333,0,0,8.33333,467.587,162.092)">            <path d="M0,1.726c-0.077,-0.497 -0.333,-0.935 -0.701,-1.245c0.356,-0.301 0.815,-0.481 1.316,-0.481c0.239,0 0.469,0.041 0.682,0.116c0,0.001 0,0.002 -0.001,0.003l0.003,0c-0.111,0.74 -0.618,1.35 -1.299,1.607" style="fill:rgb(25,137,84);fill-rule:nonzero;"/>        </g>        <g transform="matrix(8.33254,0.115057,0.115057,-8.33254,461.508,177.561)">            <path d="M0.01,0c-0.24,-0.003 -0.471,0.034 -0.686,0.107c0.068,0.504 0.319,0.951 0.686,1.269c0.371,-0.305 0.634,-0.739 0.718,-1.235c-0.223,-0.088 -0.466,-0.138 -0.718,-0.141" style="fill:rgb(0,116,81);fill-rule:nonzero;"/>        </g>        <g transform="matrix(8.33333,0,0,8.33333,54.2,159.287)">            <path d="M0,2.695c-0.339,-0.339 -0.508,-0.788 -0.508,-1.347c0,-0.56 0.179,-1.005 0.538,-1.335c0.359,-0.33 0.791,-0.495 1.296,-0.495c0.631,0 1.159,0.264 1.584,0.792l0.835,-0.947c-0.666,-0.752 -1.492,-1.128 -2.479,-1.128c-0.884,0 -1.632,0.299 -2.243,0.896c-0.611,0.597 -0.917,1.342 -0.917,2.234c0,0.892 0.3,1.631 0.9,2.217c0.599,0.585 1.363,0.878 2.29,0.878c0.927,0 1.732,-0.385 2.415,-1.154l-0.861,-0.887c-0.419,0.523 -0.959,0.784 -1.619,0.784c-0.482,0 -0.892,-0.169 -1.231,-0.508m8.836,-3.848c-0.398,-0.316 -1.066,-0.474 -2.001,-0.474l-2.282,0l0,6.018l1.343,0l0,-1.92l0.93,0l1.335,1.92l1.653,0l-1.524,-2.152c0.763,-0.281 1.145,-0.904 1.145,-1.868c0,-0.701 -0.2,-1.209 -0.599,-1.524m-1.958,2.462l-0.982,0l0,-1.782l1.008,0c0.43,0 0.731,0.06 0.904,0.181c0.172,0.12 0.258,0.343 0.258,0.667c0,0.324 -0.083,0.561 -0.25,0.71c-0.166,0.149 -0.479,0.224 -0.938,0.224m7.77,1.407c-0.344,0.377 -0.767,0.564 -1.269,0.564c-0.503,0 -0.926,-0.187 -1.27,-0.564c-0.345,-0.375 -0.517,-0.832 -0.517,-1.368c0,-0.537 0.172,-0.995 0.517,-1.373c0.344,-0.379 0.767,-0.569 1.27,-0.569c0.502,0 0.925,0.19 1.269,0.569c0.345,0.378 0.517,0.836 0.517,1.373c0,0.536 -0.172,0.993 -0.517,1.368m1.886,-1.373c0,-0.883 -0.305,-1.622 -0.913,-2.217c-0.608,-0.594 -1.357,-0.891 -2.247,-0.891c-0.89,0 -1.639,0.297 -2.247,0.891c-0.608,0.595 -0.912,1.334 -0.912,2.217c0,0.884 0.304,1.623 0.912,2.217c0.608,0.594 1.357,0.891 2.247,0.891c0.89,0 1.639,-0.297 2.247,-0.891c0.608,-0.594 0.913,-1.333 0.913,-2.217m2.234,0.353l0,-3.323l-1.343,0l0,3.366c0,0.867 0.242,1.536 0.727,2.006c0.485,0.471 1.104,0.706 1.855,0.706c0.752,0 1.369,-0.233 1.851,-0.701c0.483,-0.468 0.663,-1.138 0.663,-2.011l0,-3.366l-1.282,0l0,3.323c0,0.482 -0.111,0.863 -0.332,1.141c-0.221,0.279 -0.521,0.418 -0.9,0.418c-0.378,0 -0.68,-0.139 -0.903,-0.418c-0.224,-0.278 -0.336,-0.659 -0.336,-1.141m3.791,0l0,-3.323l-1.282,0l0,3.366c0,0.867 0.243,1.536 0.728,2.006c0.485,0.471 1.103,0.706 1.855,0.706c0.752,0 1.369,-0.233 1.851,-0.701c0.482,-0.468 0.723,-1.138 0.723,-2.011l0,-3.366l-1.343,0l0,3.323c0,0.482 -0.111,0.863 -0.331,1.141c-0.221,0.279 -0.521,0.418 -0.9,0.418c-0.379,0 -0.68,-0.139 -0.904,-0.418c-0.224,-0.278 -0.397,-0.659 -0.397,-1.141m7.102,-3.323l-2.126,0l0,6.018l2.057,0c1.148,0 2.002,-0.273 2.561,-0.818c0.56,-0.545 0.84,-1.285 0.84,-2.221c0,-0.936 -0.287,-1.666 -0.861,-2.191c-0.574,-0.525 -1.398,-0.788 -2.471,-0.788m0.069,4.83l-0.852,0l0,-3.659l0.749,0c0.683,0 1.189,0.159 1.519,0.478c0.33,0.318 0.495,0.773 0.495,1.364c0,0.592 -0.165,1.042 -0.495,1.352c-0.33,0.31 -0.802,0.465 -1.416,0.465m6.997,1.188l1.265,0l0,-1.3l0.809,0l0,-1.076l-0.809,0l0,-3.693l-1.119,0l-3.306,3.831l0.215,0.938l2.945,0l0,1.3Zm-1.602,-2.376l1.602,-1.877l0,1.877l-1.602,0Zm6.263,0.68c-0.338,-0.339 -0.508,-0.788 -0.508,-1.347c0,-0.56 0.18,-1.005 0.539,-1.335c0.358,-0.33 0.79,-0.495 1.295,-0.495c0.631,0 1.16,0.264 1.584,0.792l0.835,-0.947c-0.665,-0.752 -1.492,-1.128 -2.479,-1.128c-0.884,0 -1.632,0.299 -2.243,0.896c-0.611,0.597 -0.917,1.342 -0.917,2.234c0,0.892 0.3,1.631 0.9,2.217c0.6,0.585 1.363,0.878 2.29,0.878c0.927,0 1.732,-0.385 2.415,-1.154l-0.861,-0.887c-0.419,0.523 -0.959,0.784 -1.618,0.784c-0.483,0 -0.893,-0.169 -1.232,-0.508m13.618,-3.28c0.557,0 1.096,0.198 1.619,0.594l0.68,-0.982c-0.299,-0.252 -0.649,-0.447 -1.05,-0.585c-0.402,-0.138 -0.804,-0.207 -1.206,-0.207c-0.614,0 -1.126,0.155 -1.537,0.465c-0.41,0.31 -0.615,0.751 -0.615,1.322c0,0.571 0.162,0.99 0.486,1.257c0.325,0.267 0.837,0.483 1.537,0.65c0.442,0.109 0.737,0.216 0.887,0.323c0.149,0.106 0.224,0.249 0.224,0.43c0,0.181 -0.071,0.324 -0.211,0.431c-0.141,0.106 -0.335,0.159 -0.581,0.159c-0.551,0 -1.151,-0.284 -1.8,-0.853l-0.8,0.982c0.763,0.706 1.621,1.059 2.574,1.059c0.66,0 1.192,-0.168 1.597,-0.504c0.404,-0.335 0.607,-0.773 0.607,-1.313c0,-0.539 -0.158,-0.95 -0.474,-1.231c-0.316,-0.281 -0.759,-0.492 -1.33,-0.633c-0.571,-0.14 -0.936,-0.262 -1.093,-0.365c-0.158,-0.104 -0.237,-0.243 -0.237,-0.418c0,-0.175 0.064,-0.316 0.194,-0.422c0.129,-0.106 0.305,-0.159 0.529,-0.159m7.177,1.472l-2.393,0l0,-2.514l-1.343,0l0,6.018l1.343,0l0,-2.368l2.393,0l0,2.368l1.343,0l0,-6.018l-1.343,0l0,2.514Z" style="fill:rgb(67,82,90);fill-rule:nonzero;"/>        </g>    </g></svg>