<?xml version="1.0" encoding="UTF-8" standalone="no"?><!DOCTYPE svg PUBLIC "-//W3C//DTD SVG 1.1//EN" "http://www.w3.org/Graphics/SVG/1.1/DTD/svg11.dtd"><svg width="100%" height="100%" viewBox="0 0 1024 512" version="1.1" xmlns="http://www.w3.org/2000/svg" xmlns:xlink="http://www.w3.org/1999/xlink" xml:space="preserve" style="fill-rule:evenodd;clip-rule:evenodd;stroke-linejoin:round;stroke-miterlimit:2;"><title>Koregraf</title><desc>Koregraf is a platform exclusively dedicated to crowdfunding real estate. It was created by Philippe Sénéchal and Vincent Sillègue. Surrounded by a dedicated team, these two partners have combined their skills to successfully cover all the fields of a real estate investment, from controlling the financial circuits to the sound and effective management of real estate development.</desc>    <g transform="matrix(5.41899,0,0,5.42553,27,1)">        <g transform="matrix(1,0,0,1,-72.9207,0)">            <g transform="matrix(1,0,0,1,72.9207,0)">                <rect x="0" y="0" width="23.188" height="94" style="fill:rgb(198,224,247);"/>            </g>            <g transform="matrix(1,0,0,1,72.9207,0)">                <path d="M51.459,40.07l-11.501,21.939l17.042,31.991l23.188,0l-28.729,-53.93Z" style="fill:rgb(171,171,101);"/>            </g>            <g transform="matrix(1,0,0,1,72.9207,0)">                <path d="M23.188,94l49.278,-94l-23.188,0l-49.278,94l23.188,0Z" style="fill:rgb(101,119,137);"/>            </g>        </g>        <g transform="matrix(1.74757,0,0,1.45296,-78.7842,-56.6384)">            <g transform="matrix(12.4713,0,0,15,86.1511,71.8671)">                <path d="M0.234,-0.701l-0.153,0l-0,0.701l0.153,-0l0,-0.701Zm0.004,0.344l0,0.004l0.215,0.353l0.191,0l-0.24,-0.36l0.218,-0.341l-0.176,0l-0.208,0.344Z" style="fill:rgb(42,56,69);fill-rule:nonzero;"/>            </g>            <g transform="matrix(12.4713,0,0,15,94.2325,71.8671)">                <path d="M0.203,-0.356c0,-0.174 0.053,-0.228 0.128,-0.228c0.085,0 0.138,0.062 0.138,0.237c0,0.173 -0.049,0.23 -0.129,0.23c-0.085,-0 -0.137,-0.062 -0.137,-0.239Zm0.424,0.002c0,-0.261 -0.113,-0.357 -0.287,-0.357c-0.17,0 -0.294,0.11 -0.294,0.365c0,0.262 0.11,0.356 0.285,0.356c0.171,-0 0.296,-0.109 0.296,-0.364Z" style="fill:rgb(42,56,69);fill-rule:nonzero;"/>            </g>            <g transform="matrix(12.4713,0,0,15,102.626,71.8671)">                <path d="M0.081,-0.701l0,0.701l0.151,-0l0,-0.261l0.01,0c0.032,0 0.051,0.008 0.064,0.033l0.116,0.228l0.182,-0l-0.107,-0.193c-0.033,-0.059 -0.056,-0.085 -0.093,-0.103l0,-0.004c0.082,-0.016 0.148,-0.073 0.148,-0.195c0,-0.147 -0.088,-0.206 -0.243,-0.206l-0.228,0Zm0.151,0.126l0.06,0c0.067,0 0.105,0.029 0.105,0.093c0,0.065 -0.026,0.1 -0.107,0.1l-0.058,0l-0,-0.193Z" style="fill:rgb(42,56,69);fill-rule:nonzero;"/>            </g>            <g transform="matrix(12.4713,0,0,15,110.271,71.8671)">                <path d="M0.508,-0l0,-0.126l-0.275,0l0,-0.167l0.226,0l0,-0.126l-0.226,0l0,-0.156l0.263,0l0,-0.126l-0.415,0l0,0.701l0.427,-0Z" style="fill:rgb(42,56,69);fill-rule:nonzero;"/>            </g>            <g transform="matrix(12.4713,0,0,15,117.167,71.8671)">                <path d="M0.379,-0.711c-0.186,0 -0.333,0.114 -0.333,0.367c0,0.234 0.099,0.354 0.298,0.354c0.13,-0 0.2,-0.027 0.251,-0.062l0,-0.309l-0.153,0l0,0.237c-0.014,0.006 -0.045,0.01 -0.066,0.01c-0.117,-0 -0.173,-0.075 -0.173,-0.248c0,-0.166 0.078,-0.217 0.17,-0.217c0.065,0 0.102,0.028 0.128,0.056l0.098,-0.107c-0.019,-0.022 -0.082,-0.081 -0.22,-0.081Z" style="fill:rgb(42,56,69);fill-rule:nonzero;"/>            </g>            <g transform="matrix(12.4713,0,0,15,125.373,71.8671)">                <path d="M0.081,-0.701l0,0.701l0.151,-0l0,-0.261l0.01,0c0.032,0 0.051,0.008 0.064,0.033l0.116,0.228l0.182,-0l-0.107,-0.193c-0.033,-0.059 -0.056,-0.085 -0.093,-0.103l0,-0.004c0.082,-0.016 0.148,-0.073 0.148,-0.195c0,-0.147 -0.088,-0.206 -0.243,-0.206l-0.228,0Zm0.151,0.126l0.06,0c0.067,0 0.105,0.029 0.105,0.093c0,0.065 -0.026,0.1 -0.107,0.1l-0.058,0l-0,-0.193Z" style="fill:rgb(42,56,69);fill-rule:nonzero;"/>            </g>            <g transform="matrix(12.4713,0,0,15,133.018,71.8671)">                <path d="M0.277,-0.389c0.025,-0.089 0.04,-0.146 0.052,-0.206l0.004,0c0.012,0.062 0.026,0.113 0.053,0.21l0.027,0.098l-0.165,0l0.029,-0.102Zm-0.051,-0.312l-0.212,0.701l0.154,-0l0.045,-0.161l0.235,0l0.044,0.161l0.16,-0l-0.213,-0.701l-0.213,0Z" style="fill:rgb(42,56,69);fill-rule:nonzero;"/>            </g>            <g transform="matrix(12.4713,0,0,15,141.324,71.8671)">                <path d="M0.233,-0l0,-0.263l0.226,0l0,-0.126l-0.226,0l0,-0.186l0.263,-0l0,-0.126l-0.415,-0l0,0.701l0.152,-0Z" style="fill:rgb(42,56,69);fill-rule:nonzero;"/>            </g>        </g>    </g></svg>