<?xml version="1.0" encoding="UTF-8" standalone="no"?><!DOCTYPE svg PUBLIC "-//W3C//DTD SVG 1.1//EN" "http://www.w3.org/Graphics/SVG/1.1/DTD/svg11.dtd"><svg width="100%" height="100%" viewBox="0 0 1024 512" version="1.1" xmlns="http://www.w3.org/2000/svg" xmlns:xlink="http://www.w3.org/1999/xlink" xml:space="preserve" style="fill-rule:evenodd;clip-rule:evenodd;stroke-linejoin:round;stroke-miterlimit:2;"><title>Pujcmefirme</title><desc>Pujcmefirme.cz is an online platform that connects loan applicants from self-employed persons and smaller companies with investors registered with Pujcmefirme.cz</desc>    <g transform="matrix(3.68249,0,0,3.68249,-120.038,-5.48803)">        <g>            <g transform="matrix(-5.19869e-05,1,1,5.19869e-05,-609.784,-90.9767)">                <path d="M149.996,728.725l46.165,0l-0.004,85.17l-69.284,-0.001l23.123,-85.169" style="fill:rgb(117,192,67);fill-rule:nonzero;"/>            </g>            <g transform="matrix(1,0,0,1,0,-676.168)">                <path d="M159.36,771.555l0,-13.384c0,-1.667 -0.228,-2.916 -0.686,-3.749c-0.455,-0.833 -1.176,-1.249 -2.16,-1.249c-1.304,0 -2.262,0.558 -2.869,1.672c-0.61,1.115 -0.913,2.863 -0.913,5.236l0,11.474l-8.518,0l0,-13.384c0,-1.667 -0.217,-2.916 -0.651,-3.749c-0.435,-0.833 -1.139,-1.249 -2.108,-1.249c-1.334,0 -2.305,0.592 -2.912,1.78c-0.61,1.189 -0.912,3.13 -0.912,5.825l0,10.777l-8.497,0l0,-24.619l6.41,0l1.064,3.042l0.5,0c0.652,-1.13 1.597,-1.992 2.837,-2.585c1.238,-0.595 2.646,-0.891 4.226,-0.891c3.549,0 6.039,1.079 7.474,3.238l0.675,0c0.696,-1.014 1.662,-1.808 2.9,-2.38c1.238,-0.573 2.603,-0.858 4.097,-0.858c2.912,0 5.062,0.746 6.453,2.237c1.391,1.494 2.086,3.759 2.086,6.802l0,16.014l-8.496,0" style="fill:white;fill-rule:nonzero;"/>            </g>            <g transform="matrix(1,0,0,1,0,-675.734)">                <path d="M183.509,751.847c-1.001,0 -1.835,0.315 -2.509,0.946c-0.674,0.629 -1.068,1.618 -1.185,2.966l7.3,0c-0.028,-1.187 -0.364,-2.136 -1.011,-2.847c-0.644,-0.709 -1.508,-1.065 -2.595,-1.065m0.499,19.708c-4.1,0 -7.282,-1.09 -9.548,-3.268c-2.269,-2.182 -3.404,-5.286 -3.404,-9.313c0,-4.156 1.052,-7.347 3.154,-9.571c2.098,-2.224 5.097,-3.335 8.994,-3.335c3.709,0 6.572,0.966 8.596,2.901c2.018,1.932 3.03,4.718 3.03,8.354l0,3.782l-15.189,0c0.058,1.375 0.561,2.454 1.51,3.237c0.95,0.782 2.241,1.174 3.879,1.174c1.491,0 2.865,-0.142 4.117,-0.425c1.254,-0.282 2.612,-0.764 4.076,-1.445l0,6.107c-1.335,0.682 -2.71,1.153 -4.129,1.413c-1.419,0.26 -3.114,0.39 -5.086,0.39" style="fill:white;fill-rule:nonzero;"/>            </g>            <g transform="matrix(1,0,0,1,0,-712.897)">                <rect x="175.023" y="775.997" width="15.799" height="2.792" style="fill:white;"/>            </g>        </g>        <g transform="matrix(1,0,0,1,0,-664.501)">            <path d="M43.2,758.412c2.419,0 4.292,-0.898 5.617,-2.694c1.327,-1.798 1.989,-4.311 1.989,-7.54c0,-6.94 -2.506,-10.41 -7.517,-10.41c-2.753,0 -4.776,0.759 -6.065,2.271c-1.289,1.515 -1.933,3.982 -1.933,7.401l0,0.695c0,3.692 0.619,6.329 1.858,7.909c1.238,1.577 3.257,2.368 6.051,2.368m0.044,1.912c-3.637,0 -6.287,-1.362 -7.953,-4.083l-0.152,0l0.065,1.824c0.057,1.072 0.087,2.244 0.087,3.52l0,8.995l-2.151,0l0,-34.31l1.825,0l0.412,3.368l0.132,0c1.622,-2.551 4.216,-3.826 7.78,-3.826c3.185,0 5.616,1.048 7.288,3.14c1.673,2.095 2.51,5.141 2.51,9.14c0,3.881 -0.879,6.891 -2.641,9.027c-1.758,2.136 -4.16,3.204 -7.202,3.204" style="fill:rgb(52,50,49);fill-rule:nonzero;"/>        </g>        <g transform="matrix(1,0,0,1,0,-674.3)">            <path d="M61.497,746.068l0,15.298c0,2.376 0.5,4.105 1.5,5.181c0.999,1.081 2.548,1.62 4.649,1.62c2.811,0 4.878,-0.709 6.204,-2.131c1.326,-1.419 1.989,-3.729 1.989,-6.931l0,-13.037l2.129,0l0,23.62l-1.825,0l-0.391,-3.258l-0.131,0c-1.536,2.462 -4.267,3.692 -8.192,3.692c-5.374,0 -8.061,-2.875 -8.061,-8.626l0,-15.428" style="fill:rgb(52,50,49);fill-rule:nonzero;"/>        </g>        <g transform="matrix(1,0,0,1,0,-672.692)">            <path d="M85.574,737.898c0,-1.39 0.456,-2.086 1.369,-2.086c0.448,0 0.8,0.181 1.053,0.544c0.255,0.363 0.38,0.877 0.38,1.542c0,0.653 -0.125,1.168 -0.38,1.543c-0.253,0.377 -0.605,0.565 -1.053,0.565c-0.913,0 -1.369,-0.703 -1.369,-2.108m-2.847,40.873c-1.159,0 -2.136,-0.18 -2.935,-0.543l0,-1.869c1,0.29 1.936,0.435 2.804,0.435c2.187,0 3.281,-1.276 3.281,-3.825l0,-28.508l2.152,0l0,28.206c0,1.954 -0.459,3.46 -1.38,4.519c-0.92,1.057 -2.227,1.585 -3.922,1.585" style="fill:rgb(52,50,49);fill-rule:nonzero;"/>        </g>        <g transform="matrix(1,0,0,1,0,-674.755)">            <path d="M105.368,770.577c-3.374,0 -6.018,-1.064 -7.931,-3.194c-1.912,-2.129 -2.868,-5.099 -2.868,-8.908c0,-3.913 0.993,-6.958 2.978,-9.138c1.984,-2.179 4.701,-3.269 8.147,-3.269c2.044,0 4,0.354 5.868,1.065l-0.587,1.91c-2.042,-0.678 -3.818,-1.021 -5.324,-1.021c-2.896,0 -5.091,0.894 -6.583,2.684c-1.492,1.787 -2.239,4.366 -2.239,7.726c0,3.186 0.747,5.682 2.239,7.486c1.492,1.803 3.577,2.704 6.257,2.704c2.145,0 4.137,-0.383 5.976,-1.152l0,2c-1.506,0.738 -3.483,1.107 -5.933,1.107" style="fill:rgb(52,50,49);fill-rule:nonzero;"/>        </g>        <g transform="matrix(1,0,0,1,0,-685.165)">            <path d="M227.706,780.553l-2.152,0l0,-23.62l2.152,0l0,23.62Zm-2.455,-30.183c0,-1.39 0.457,-2.086 1.37,-2.086c0.448,0 0.8,0.181 1.052,0.543c0.255,0.363 0.38,0.876 0.38,1.543c0,0.652 -0.125,1.165 -0.38,1.544c-0.252,0.376 -0.604,0.564 -1.052,0.564c-0.913,0 -1.37,-0.703 -1.37,-2.108m-4.259,8.432l-5.562,0l0,21.751l-2.152,0l0,-21.751l-4.389,0l0,-1.26l4.389,-0.806l0,-1.824c0,-2.897 0.533,-5.024 1.598,-6.378c1.064,-1.354 2.806,-2.032 5.226,-2.032c1.303,0 2.607,0.195 3.911,0.587l-0.501,1.868c-1.158,-0.362 -2.309,-0.543 -3.454,-0.543c-1.682,0 -2.87,0.497 -3.575,1.49c-0.702,0.99 -1.053,2.603 -1.053,4.834l0,2.195l5.562,0" style="fill:rgb(52,50,49);fill-rule:nonzero;"/>        </g>        <g transform="matrix(1,0,0,1,0,-675.192)">            <path d="M244.916,746.502c1,0 2.073,0.103 3.217,0.305l-0.414,2.065c-0.985,-0.246 -2.007,-0.368 -3.062,-0.368c-2.015,0 -3.667,0.853 -4.956,2.563c-1.289,1.709 -1.934,3.867 -1.934,6.477l0,13.036l-2.151,0l0,-23.62l1.825,0l0.218,4.258l0.151,0c0.971,-1.738 2.008,-2.957 3.108,-3.661c1.101,-0.703 2.433,-1.055 3.998,-1.055" style="fill:rgb(52,50,49);fill-rule:nonzero;"/>        </g>        <g transform="matrix(1,0,0,1,0,-675.192)">            <path d="M282.444,770.58l0,-15.493c0,-2.305 -0.452,-3.984 -1.347,-5.042c-0.899,-1.057 -2.274,-1.584 -4.129,-1.584c-2.419,0 -4.209,0.664 -5.368,1.998c-1.159,1.332 -1.739,3.426 -1.739,6.28l0,13.841l-2.192,0l0,-16.145c0,-3.983 -1.826,-5.974 -5.478,-5.974c-2.477,0 -4.28,0.719 -5.412,2.16c-1.129,1.443 -1.694,3.748 -1.694,6.923l0,13.036l-2.151,0l0,-23.62l1.781,0l0.458,3.238l0.13,0c0.652,-1.174 1.578,-2.084 2.781,-2.727c1.202,-0.645 2.529,-0.969 3.977,-0.969c3.723,0 6.113,1.4 7.17,4.194l0.089,0c0.767,-1.346 1.798,-2.381 3.095,-3.107c1.297,-0.724 2.772,-1.087 4.422,-1.087c2.58,0 4.513,0.689 5.802,2.067c1.29,1.376 1.933,3.562 1.933,6.562l0,15.449" style="fill:rgb(52,50,49);fill-rule:nonzero;"/>        </g>        <g transform="matrix(1,0,0,1,0,-674.755)">            <path d="M301.13,747.979c-2.273,0 -4.098,0.75 -5.474,2.249c-1.378,1.5 -2.182,3.663 -2.412,6.487l14.603,0c0,-2.739 -0.595,-4.88 -1.783,-6.423c-1.187,-1.541 -2.832,-2.313 -4.934,-2.313m0.63,22.598c-3.432,0 -6.108,-1.055 -8.028,-3.172c-1.92,-2.114 -2.878,-5.077 -2.878,-8.887c0,-3.766 0.925,-6.782 2.78,-9.05c1.855,-2.267 4.353,-3.4 7.496,-3.4c2.783,0 4.977,0.97 6.586,2.911c1.605,1.941 2.411,4.578 2.411,7.91l0,1.737l-17.015,0c0.029,3.246 0.787,5.723 2.271,7.432c1.484,1.709 3.61,2.565 6.377,2.565c1.348,0 2.531,-0.093 3.552,-0.284c1.024,-0.188 2.315,-0.593 3.883,-1.216l0,1.955c-1.336,0.579 -2.565,0.974 -3.695,1.185c-1.129,0.21 -2.376,0.314 -3.74,0.314" style="fill:rgb(52,50,49);fill-rule:nonzero;"/>        </g>        <g transform="matrix(1,0,0,1,0,-715.32)">            <path d="M65.605,778.605c0,0.818 0.273,1.509 0.823,2.074c0.546,0.566 1.212,0.849 1.994,0.849c0.771,0 1.434,-0.277 1.986,-0.835c0.553,-0.557 0.828,-1.253 0.828,-2.088c0,-0.826 -0.269,-1.52 -0.808,-2.082c-0.54,-0.561 -1.208,-0.842 -2.006,-0.842c-0.809,0 -1.481,0.288 -2.015,0.862c-0.536,0.575 -0.802,1.263 -0.802,2.062Zm-1.213,0c0,-1.186 0.39,-2.154 1.166,-2.904c0.776,-0.749 1.732,-1.125 2.864,-1.125c1.131,0 2.084,0.376 2.862,1.125c0.776,0.75 1.164,1.718 1.164,2.904c0,1.186 -0.388,2.154 -1.164,2.903c-0.778,0.751 -1.731,1.125 -2.862,1.125c-1.169,0 -2.132,-0.372 -2.891,-1.118c-0.759,-0.746 -1.139,-1.715 -1.139,-2.91" style="fill:rgb(52,50,49);fill-rule:nonzero;"/>        </g>        <g transform="matrix(1,0,0,1,0,-714.683)">            <path d="M109.959,776.126c-1.665,1.842 -2.851,3.366 -3.557,4.571l-1.44,0c-0.744,-1.254 -1.93,-2.778 -3.557,-4.571l0,-0.25l1.029,0c1.117,0.921 2.2,1.935 3.248,3.042c1.058,-1.116 2.141,-2.131 3.248,-3.042l1.029,0" style="fill:rgb(52,50,49);fill-rule:nonzero;"/>        </g>        <g transform="matrix(1,0,0,1,0,-714.683)">            <path d="M304.776,776.126c-1.666,1.842 -2.85,3.366 -3.556,4.571l-1.441,0c-0.745,-1.254 -1.932,-2.778 -3.558,-4.571l0,-0.25l1.029,0c1.117,0.921 2.201,1.935 3.249,3.042c1.058,-1.116 2.141,-2.131 3.248,-3.042l1.029,0" style="fill:rgb(52,50,49);fill-rule:nonzero;"/>        </g>    </g></svg>