<?xml version="1.0" encoding="UTF-8" standalone="no"?><!DOCTYPE svg PUBLIC "-//W3C//DTD SVG 1.1//EN" "http://www.w3.org/Graphics/SVG/1.1/DTD/svg11.dtd"><svg width="100%" height="100%" viewBox="0 0 1024 512" version="1.1" xmlns="http://www.w3.org/2000/svg" xmlns:xlink="http://www.w3.org/1999/xlink" xml:space="preserve" style="fill-rule:evenodd;clip-rule:evenodd;stroke-linejoin:round;stroke-miterlimit:2;"><title>Growth Capital Ventures</title><desc>Property. Clean Energy. Growth SMEs.We focus on originating impact driven investments across property, clean energy and growth SMEs that have the potential to deliver superior investment profit precisely because there’s real purpose underpinning the opportunity.We proactively engage with management teams on social and environmental issues, not just to mitigate risks but to identify opportunities that can create additional value and drive investment growth.</desc>    <g>        <g transform="matrix(3.73564,0,0,2.5605,-782.655,-181.947)">            <g transform="matrix(22.5434,0,0,32.8897,246.818,187.782)">                <path d="M0.56,-0.495c-0.011,-0.049 -0.039,-0.084 -0.083,-0.103c-0.025,-0.011 -0.053,-0.016 -0.083,-0.016c-0.058,0 -0.106,0.022 -0.143,0.065c-0.037,0.044 -0.056,0.11 -0.056,0.198c0,0.088 0.02,0.151 0.061,0.188c0.04,0.037 0.086,0.055 0.138,0.055c0.05,0 0.091,-0.014 0.124,-0.044c0.032,-0.029 0.052,-0.067 0.059,-0.114l-0.166,0l0,-0.12l0.299,0l0,0.386l-0.099,0l-0.015,-0.09c-0.029,0.034 -0.055,0.058 -0.078,0.072c-0.04,0.025 -0.089,0.037 -0.147,0.037c-0.095,0 -0.173,-0.033 -0.234,-0.099c-0.064,-0.066 -0.095,-0.157 -0.095,-0.273c0,-0.116 0.032,-0.21 0.096,-0.28c0.064,-0.07 0.149,-0.105 0.254,-0.105c0.092,0 0.165,0.023 0.221,0.069c0.055,0.047 0.087,0.105 0.095,0.174l-0.148,0Z" style="fill:rgb(54,65,68);fill-rule:nonzero;"/>            </g>            <g transform="matrix(22.5434,0,0,32.8897,263.225,187.782)">                <path d="M0.354,-0.545l0.019,0.001l0,0.143c-0.009,-0.001 -0.017,-0.002 -0.024,-0.002c-0.007,-0.001 -0.012,-0.001 -0.016,-0.001c-0.056,0 -0.094,0.018 -0.113,0.055c-0.011,0.02 -0.016,0.052 -0.016,0.095l0,0.254l-0.141,0l0,-0.532l0.133,0l0,0.093c0.022,-0.036 0.04,-0.06 0.056,-0.073c0.026,-0.022 0.06,-0.033 0.102,-0.033Z" style="fill:rgb(54,65,68);fill-rule:nonzero;"/>            </g>            <g transform="matrix(22.5434,0,0,32.8897,271.769,187.782)">                <path d="M0.304,-0.098c0.04,0 0.072,-0.015 0.093,-0.044c0.022,-0.029 0.033,-0.07 0.033,-0.123c0,-0.054 -0.011,-0.095 -0.033,-0.123c-0.021,-0.029 -0.053,-0.044 -0.093,-0.044c-0.041,0 -0.072,0.015 -0.094,0.044c-0.022,0.028 -0.033,0.069 -0.033,0.123c0,0.053 0.011,0.094 0.033,0.123c0.022,0.029 0.053,0.044 0.094,0.044Zm0.272,-0.167c0,0.078 -0.022,0.145 -0.067,0.2c-0.045,0.056 -0.113,0.084 -0.205,0.084c-0.091,0 -0.159,-0.028 -0.204,-0.084c-0.045,-0.055 -0.068,-0.122 -0.068,-0.2c0,-0.077 0.023,-0.144 0.068,-0.2c0.045,-0.056 0.113,-0.084 0.204,-0.084c0.092,0 0.16,0.028 0.205,0.084c0.045,0.056 0.067,0.123 0.067,0.2Z" style="fill:rgb(54,65,68);fill-rule:nonzero;"/>            </g>            <g transform="matrix(22.5434,0,0,32.8897,284.862,187.782)">                <path d="M0.316,-0.532l0.141,0l0.081,0.383l0.083,-0.383l0.145,0l-0.154,0.532l-0.143,0l-0.084,-0.388l-0.084,0.388l-0.145,0l-0.149,-0.532l0.149,0l0.083,0.382l0.077,-0.382Z" style="fill:rgb(54,65,68);fill-rule:nonzero;"/>            </g>            <g transform="matrix(22.5434,0,0,32.8897,302.622,187.782)">                <path d="M0.01,-0.428l0,-0.099l0.074,0l0,-0.149l0.138,0l0,0.149l0.087,0l0,0.099l-0.087,0l0,0.281c0,0.022 0.003,0.035 0.008,0.041c0.006,0.005 0.023,0.008 0.051,0.008c0.004,0 0.009,0 0.014,0c0.004,-0.001 0.009,-0.001 0.014,-0.001l0,0.104l-0.066,0.002c-0.066,0.003 -0.111,-0.009 -0.135,-0.034c-0.016,-0.016 -0.024,-0.04 -0.024,-0.074l0,-0.327l-0.074,0Z" style="fill:rgb(54,65,68);fill-rule:nonzero;"/>            </g>            <g transform="matrix(22.5434,0,0,32.8897,309.904,187.782)">                <path d="M0.358,-0.546c0.033,0 0.063,0.006 0.09,0.017c0.027,0.012 0.049,0.029 0.066,0.052c0.015,0.02 0.024,0.041 0.027,0.062c0.003,0.021 0.005,0.055 0.005,0.103l0,0.312l-0.142,0l0,-0.324c0,-0.028 -0.005,-0.051 -0.015,-0.069c-0.013,-0.025 -0.037,-0.037 -0.072,-0.037c-0.037,0 -0.065,0.012 -0.084,0.037c-0.019,0.024 -0.028,0.059 -0.028,0.105l0,0.288l-0.139,0l0,-0.717l0.139,0l0,0.254c0.02,-0.031 0.043,-0.052 0.07,-0.065c0.026,-0.012 0.054,-0.018 0.083,-0.018Z" style="fill:rgb(54,65,68);fill-rule:nonzero;"/>            </g>            <g transform="matrix(23.0601,0,0,33.6434,324.533,187.782)">                <path d="M0.378,-0.737c0.091,0 0.162,0.024 0.212,0.072c0.05,0.048 0.078,0.102 0.083,0.163l-0.094,0c-0.011,-0.046 -0.033,-0.083 -0.065,-0.11c-0.032,-0.027 -0.077,-0.04 -0.135,-0.04c-0.07,0 -0.127,0.024 -0.171,0.074c-0.043,0.05 -0.065,0.126 -0.065,0.228c0,0.084 0.02,0.152 0.059,0.205c0.039,0.052 0.098,0.078 0.175,0.078c0.072,0 0.127,-0.027 0.164,-0.082c0.02,-0.029 0.035,-0.067 0.044,-0.115l0.095,0c-0.008,0.076 -0.036,0.139 -0.084,0.19c-0.057,0.062 -0.134,0.093 -0.23,0.093c-0.084,0 -0.154,-0.026 -0.21,-0.076c-0.075,-0.067 -0.112,-0.17 -0.112,-0.309c0,-0.106 0.028,-0.193 0.084,-0.26c0.06,-0.074 0.144,-0.111 0.25,-0.111Z" style="fill:rgb(54,65,68);fill-rule:nonzero;"/>            </g>            <g transform="matrix(23.0601,0,0,33.6434,340.953,187.782)">                <path d="M0.132,-0.139c0,0.025 0.009,0.045 0.028,0.06c0.018,0.015 0.04,0.022 0.066,0.022c0.031,0 0.06,-0.007 0.089,-0.022c0.049,-0.023 0.074,-0.062 0.074,-0.116l0,-0.071c-0.011,0.007 -0.025,0.012 -0.042,0.017c-0.017,0.005 -0.033,0.008 -0.05,0.01l-0.053,0.007c-0.032,0.004 -0.056,0.01 -0.072,0.02c-0.027,0.015 -0.04,0.039 -0.04,0.073Zm0.213,-0.178c0.02,-0.002 0.033,-0.011 0.04,-0.025c0.004,-0.008 0.006,-0.019 0.006,-0.034c0,-0.03 -0.011,-0.052 -0.032,-0.065c-0.021,-0.014 -0.052,-0.02 -0.091,-0.02c-0.046,0 -0.079,0.012 -0.098,0.037c-0.011,0.013 -0.018,0.034 -0.021,0.061l-0.082,0c0.002,-0.065 0.022,-0.11 0.063,-0.135c0.04,-0.025 0.086,-0.038 0.14,-0.038c0.061,0 0.111,0.012 0.149,0.036c0.039,0.023 0.058,0.059 0.058,0.109l0,0.301c0,0.009 0.001,0.017 0.005,0.022c0.004,0.006 0.012,0.008 0.024,0.008c0.004,0 0.008,0 0.013,0c0.005,-0.001 0.01,-0.002 0.016,-0.002l0,0.064c-0.014,0.004 -0.024,0.007 -0.032,0.008c-0.007,0.001 -0.017,0.001 -0.029,0.001c-0.03,0 -0.052,-0.011 -0.066,-0.032c-0.007,-0.011 -0.012,-0.028 -0.015,-0.048c-0.018,0.023 -0.044,0.043 -0.077,0.061c-0.034,0.017 -0.071,0.026 -0.111,0.026c-0.048,0 -0.088,-0.015 -0.119,-0.045c-0.031,-0.029 -0.046,-0.066 -0.046,-0.11c0,-0.049 0.015,-0.086 0.045,-0.113c0.031,-0.027 0.07,-0.043 0.12,-0.049l0.14,-0.018Z" style="fill:rgb(54,65,68);fill-rule:nonzero;"/>            </g>            <g transform="matrix(23.0601,0,0,33.6434,353.545,187.782)">                <path d="M0.285,-0.059c0.041,0 0.075,-0.017 0.102,-0.052c0.028,-0.034 0.041,-0.085 0.041,-0.154c0,-0.041 -0.006,-0.077 -0.018,-0.107c-0.023,-0.058 -0.064,-0.086 -0.125,-0.086c-0.061,0 -0.102,0.03 -0.125,0.091c-0.012,0.032 -0.018,0.074 -0.018,0.124c0,0.04 0.006,0.075 0.018,0.103c0.023,0.054 0.065,0.081 0.125,0.081Zm-0.227,-0.462l0.085,0l0,0.07c0.018,-0.024 0.037,-0.042 0.058,-0.055c0.029,-0.02 0.064,-0.03 0.104,-0.03c0.059,0 0.11,0.023 0.151,0.068c0.041,0.046 0.062,0.111 0.062,0.195c0,0.114 -0.03,0.195 -0.089,0.244c-0.038,0.031 -0.082,0.047 -0.132,0.047c-0.04,0 -0.073,-0.009 -0.099,-0.026c-0.016,-0.01 -0.033,-0.027 -0.052,-0.051l0,0.267l-0.088,0l0,-0.729Z" style="fill:rgb(54,65,68);fill-rule:nonzero;"/>            </g>            <g transform="matrix(23.0601,0,0,33.6434,366.137,187.782)">                <path d="M0.064,-0.521l0.09,0l0,0.521l-0.09,0l0,-0.521Zm0,-0.196l0.09,0l0,0.099l-0.09,0l0,-0.099Z" style="fill:rgb(54,65,68);fill-rule:nonzero;"/>            </g>            <g transform="matrix(23.0601,0,0,33.6434,371.027,187.782)">                <path d="M0.082,-0.669l0.089,0l0,0.146l0.083,0l0,0.072l-0.083,0l0,0.341c0,0.018 0.006,0.031 0.018,0.037c0.007,0.003 0.019,0.005 0.035,0.005c0.004,0 0.008,0 0.013,0c0.005,0 0.011,-0.001 0.017,-0.001l0,0.069c-0.01,0.003 -0.02,0.005 -0.031,0.006c-0.011,0.002 -0.023,0.002 -0.036,0.002c-0.041,0 -0.068,-0.01 -0.083,-0.031c-0.015,-0.021 -0.022,-0.048 -0.022,-0.082l0,-0.346l-0.071,0l0,-0.072l0.071,0l0,-0.146Z" style="fill:rgb(54,65,68);fill-rule:nonzero;"/>            </g>            <g transform="matrix(23.0601,0,0,33.6434,377.201,187.782)">                <path d="M0.132,-0.139c0,0.025 0.009,0.045 0.028,0.06c0.018,0.015 0.04,0.022 0.066,0.022c0.031,0 0.06,-0.007 0.089,-0.022c0.049,-0.023 0.074,-0.062 0.074,-0.116l0,-0.071c-0.011,0.007 -0.025,0.012 -0.042,0.017c-0.017,0.005 -0.033,0.008 -0.05,0.01l-0.053,0.007c-0.032,0.004 -0.056,0.01 -0.072,0.02c-0.027,0.015 -0.04,0.039 -0.04,0.073Zm0.213,-0.178c0.02,-0.002 0.033,-0.011 0.04,-0.025c0.004,-0.008 0.006,-0.019 0.006,-0.034c0,-0.03 -0.011,-0.052 -0.032,-0.065c-0.021,-0.014 -0.052,-0.02 -0.091,-0.02c-0.046,0 -0.079,0.012 -0.098,0.037c-0.011,0.013 -0.018,0.034 -0.021,0.061l-0.082,0c0.002,-0.065 0.022,-0.11 0.063,-0.135c0.04,-0.025 0.086,-0.038 0.14,-0.038c0.061,0 0.111,0.012 0.149,0.036c0.039,0.023 0.058,0.059 0.058,0.109l0,0.301c0,0.009 0.001,0.017 0.005,0.022c0.004,0.006 0.012,0.008 0.024,0.008c0.004,0 0.008,0 0.013,0c0.005,-0.001 0.01,-0.002 0.016,-0.002l0,0.064c-0.014,0.004 -0.024,0.007 -0.032,0.008c-0.007,0.001 -0.017,0.001 -0.029,0.001c-0.03,0 -0.052,-0.011 -0.066,-0.032c-0.007,-0.011 -0.012,-0.028 -0.015,-0.048c-0.018,0.023 -0.044,0.043 -0.077,0.061c-0.034,0.017 -0.071,0.026 -0.111,0.026c-0.048,0 -0.088,-0.015 -0.119,-0.045c-0.031,-0.029 -0.046,-0.066 -0.046,-0.11c0,-0.049 0.015,-0.086 0.045,-0.113c0.031,-0.027 0.07,-0.043 0.12,-0.049l0.14,-0.018Z" style="fill:rgb(54,65,68);fill-rule:nonzero;"/>            </g>            <g transform="matrix(23.0601,0,0,33.6434,389.793,187.782)">                <rect x="0.067" y="-0.717" width="0.088" height="0.717" style="fill:rgb(54,65,68);fill-rule:nonzero;"/>            </g>            <g transform="matrix(23.0601,0,0,33.6434,396.455,187.782)">                <path d="M0.018,-0.72l0.071,0l0.217,0.64l0.216,-0.64l0.071,0l-0.25,0.72l-0.075,0l-0.25,-0.72Z" style="fill:rgb(54,65,68);fill-rule:nonzero;"/>            </g>            <g transform="matrix(23.0601,0,0,33.6434,409.045,187.782)">                <path d="M0.447,-0.295c0,-0.025 -0.004,-0.049 -0.011,-0.072c-0.007,-0.022 -0.017,-0.041 -0.03,-0.057c-0.014,-0.017 -0.031,-0.03 -0.052,-0.04c-0.021,-0.009 -0.044,-0.014 -0.071,-0.014c-0.027,0 -0.05,0.005 -0.071,0.015c-0.02,0.01 -0.037,0.023 -0.052,0.04c-0.014,0.017 -0.025,0.036 -0.034,0.058c-0.009,0.022 -0.014,0.045 -0.017,0.07l0.338,0Zm-0.338,0.05c0,0.028 0.004,0.054 0.011,0.079c0.007,0.025 0.018,0.047 0.032,0.065c0.015,0.019 0.033,0.033 0.055,0.044c0.022,0.011 0.047,0.017 0.076,0.017c0.039,0 0.073,-0.01 0.101,-0.031c0.028,-0.021 0.047,-0.05 0.056,-0.088l0.067,0c-0.007,0.025 -0.017,0.047 -0.029,0.068c-0.012,0.021 -0.027,0.04 -0.045,0.055c-0.018,0.016 -0.039,0.028 -0.064,0.037c-0.025,0.009 -0.053,0.013 -0.086,0.013c-0.041,0 -0.077,-0.007 -0.107,-0.021c-0.03,-0.014 -0.055,-0.033 -0.074,-0.058c-0.019,-0.024 -0.034,-0.053 -0.043,-0.086c-0.009,-0.033 -0.014,-0.068 -0.014,-0.106c0,-0.038 0.006,-0.074 0.017,-0.107c0.011,-0.033 0.026,-0.063 0.047,-0.088c0.02,-0.025 0.045,-0.044 0.074,-0.059c0.029,-0.014 0.063,-0.021 0.1,-0.021c0.071,0 0.127,0.025 0.168,0.074c0.041,0.049 0.061,0.12 0.06,0.213l-0.402,0Z" style="fill:rgb(54,65,68);fill-rule:nonzero;"/>            </g>            <g transform="matrix(23.0601,0,0,33.6434,421.636,187.782)">                <path d="M0.132,0l-0.06,0l0,-0.518l0.06,0l0,0.072c0.024,-0.025 0.049,-0.046 0.075,-0.062c0.025,-0.016 0.056,-0.024 0.092,-0.024c0.032,0 0.062,0.006 0.089,0.017c0.027,0.01 0.05,0.03 0.069,0.057c0.013,0.019 0.02,0.038 0.023,0.057c0.002,0.02 0.003,0.041 0.003,0.062l0,0.339l-0.06,0l0,-0.338c0,-0.047 -0.01,-0.082 -0.031,-0.105c-0.021,-0.023 -0.055,-0.035 -0.103,-0.035c-0.019,0 -0.036,0.003 -0.051,0.008c-0.015,0.006 -0.029,0.014 -0.042,0.023c-0.012,0.009 -0.022,0.02 -0.031,0.032c-0.009,0.012 -0.015,0.025 -0.02,0.038c-0.006,0.017 -0.01,0.033 -0.011,0.048c-0.001,0.015 -0.002,0.032 -0.002,0.05l0,0.279Z" style="fill:rgb(54,65,68);fill-rule:nonzero;"/>            </g>            <g transform="matrix(23.0601,0,0,33.6434,434.227,187.782)">                <path d="M0.254,0.002c-0.007,0.001 -0.017,0.004 -0.029,0.007c-0.012,0.003 -0.025,0.005 -0.04,0.005c-0.03,0 -0.053,-0.008 -0.068,-0.023c-0.016,-0.015 -0.024,-0.041 -0.024,-0.08l0,-0.379l-0.073,0l0,-0.05l0.073,0l0,-0.144l0.06,0l0,0.144l0.097,0l0,0.05l-0.097,0l0,0.355c0,0.013 0,0.024 0.001,0.033c0.001,0.009 0.003,0.017 0.006,0.023c0.003,0.006 0.009,0.01 0.016,0.013c0.007,0.003 0.016,0.004 0.029,0.004c0.008,0 0.016,-0.001 0.025,-0.002c0.008,-0.001 0.016,-0.003 0.024,-0.005l0,0.049Z" style="fill:rgb(54,65,68);fill-rule:nonzero;"/>            </g>            <g transform="matrix(23.0601,0,0,33.6434,440.407,187.782)">                <path d="M0.423,-0.518l0.06,0l0,0.518l-0.06,0l0,-0.072c-0.008,0.009 -0.017,0.019 -0.027,0.029c-0.01,0.01 -0.021,0.019 -0.034,0.028c-0.013,0.008 -0.029,0.015 -0.046,0.021c-0.017,0.005 -0.037,0.008 -0.06,0.008c-0.035,0 -0.064,-0.005 -0.087,-0.014c-0.023,-0.01 -0.042,-0.024 -0.056,-0.041c-0.015,-0.017 -0.025,-0.037 -0.031,-0.061c-0.007,-0.023 -0.01,-0.048 -0.01,-0.075l0,-0.341l0.06,0l0,0.34c0,0.045 0.01,0.079 0.031,0.102c0.021,0.024 0.055,0.036 0.102,0.036c0.025,0 0.047,-0.005 0.067,-0.015c0.019,-0.009 0.036,-0.023 0.049,-0.04c0.013,-0.017 0.024,-0.038 0.031,-0.062c0.007,-0.024 0.011,-0.05 0.011,-0.079l0,-0.282Z" style="fill:rgb(54,65,68);fill-rule:nonzero;"/>            </g>            <g transform="matrix(23.0601,0,0,33.6434,452.998,187.782)">                <path d="M0.135,0l-0.06,0l0,-0.518l0.06,0l0,0.097l0.002,0c0.017,-0.041 0.038,-0.07 0.065,-0.087c0.026,-0.016 0.061,-0.024 0.104,-0.024l0,0.065c-0.034,-0.001 -0.062,0.005 -0.084,0.016c-0.022,0.011 -0.04,0.027 -0.053,0.046c-0.013,0.019 -0.022,0.042 -0.027,0.069c-0.005,0.026 -0.007,0.053 -0.007,0.082l0,0.254Z" style="fill:rgb(54,65,68);fill-rule:nonzero;"/>            </g>            <g transform="matrix(23.0601,0,0,33.6434,460.031,187.782)">                <path d="M0.447,-0.295c0,-0.025 -0.004,-0.049 -0.011,-0.072c-0.007,-0.022 -0.017,-0.041 -0.03,-0.057c-0.014,-0.017 -0.031,-0.03 -0.052,-0.04c-0.021,-0.009 -0.044,-0.014 -0.071,-0.014c-0.027,0 -0.05,0.005 -0.071,0.015c-0.02,0.01 -0.037,0.023 -0.052,0.04c-0.014,0.017 -0.025,0.036 -0.034,0.058c-0.009,0.022 -0.014,0.045 -0.017,0.07l0.338,0Zm-0.338,0.05c0,0.028 0.004,0.054 0.011,0.079c0.007,0.025 0.018,0.047 0.032,0.065c0.015,0.019 0.033,0.033 0.055,0.044c0.022,0.011 0.047,0.017 0.076,0.017c0.039,0 0.073,-0.01 0.101,-0.031c0.028,-0.021 0.047,-0.05 0.056,-0.088l0.067,0c-0.007,0.025 -0.017,0.047 -0.029,0.068c-0.012,0.021 -0.027,0.04 -0.045,0.055c-0.018,0.016 -0.039,0.028 -0.064,0.037c-0.025,0.009 -0.053,0.013 -0.086,0.013c-0.041,0 -0.077,-0.007 -0.107,-0.021c-0.03,-0.014 -0.055,-0.033 -0.074,-0.058c-0.019,-0.024 -0.034,-0.053 -0.043,-0.086c-0.009,-0.033 -0.014,-0.068 -0.014,-0.106c0,-0.038 0.006,-0.074 0.017,-0.107c0.011,-0.033 0.026,-0.063 0.047,-0.088c0.02,-0.025 0.045,-0.044 0.074,-0.059c0.029,-0.014 0.063,-0.021 0.1,-0.021c0.071,0 0.127,0.025 0.168,0.074c0.041,0.049 0.061,0.12 0.06,0.213l-0.402,0Z" style="fill:rgb(54,65,68);fill-rule:nonzero;"/>            </g>            <g transform="matrix(23.0601,0,0,33.6434,472.622,187.782)">                <path d="M0.107,-0.162c0.009,0.045 0.026,0.076 0.051,0.095c0.024,0.018 0.059,0.027 0.104,0.027c0.022,0 0.041,-0.003 0.057,-0.008c0.016,-0.005 0.029,-0.012 0.039,-0.021c0.011,-0.009 0.019,-0.02 0.024,-0.031c0.005,-0.011 0.008,-0.023 0.008,-0.036c0,-0.025 -0.008,-0.044 -0.025,-0.056c-0.016,-0.013 -0.036,-0.022 -0.061,-0.029c-0.025,-0.008 -0.051,-0.014 -0.08,-0.019c-0.029,-0.005 -0.055,-0.012 -0.08,-0.022c-0.025,-0.01 -0.045,-0.024 -0.061,-0.043c-0.017,-0.019 -0.025,-0.045 -0.025,-0.079c0,-0.043 0.016,-0.079 0.048,-0.106c0.031,-0.028 0.076,-0.042 0.134,-0.042c0.056,0 0.102,0.013 0.137,0.038c0.034,0.025 0.056,0.066 0.063,0.125l-0.061,0c-0.005,-0.04 -0.021,-0.068 -0.045,-0.084c-0.026,-0.017 -0.057,-0.025 -0.095,-0.025c-0.038,0 -0.067,0.008 -0.087,0.025c-0.02,0.016 -0.03,0.037 -0.03,0.064c0,0.023 0.008,0.041 0.024,0.054c0.017,0.012 0.037,0.022 0.062,0.03c0.025,0.007 0.051,0.014 0.08,0.02c0.029,0.006 0.055,0.015 0.08,0.026c0.025,0.01 0.045,0.025 0.061,0.044c0.017,0.019 0.025,0.045 0.025,0.078c0,0.025 -0.005,0.047 -0.016,0.066c-0.011,0.018 -0.025,0.034 -0.044,0.047c-0.019,0.013 -0.041,0.022 -0.067,0.029c-0.025,0.006 -0.053,0.009 -0.084,0.009c-0.031,0 -0.058,-0.004 -0.082,-0.013c-0.023,-0.009 -0.043,-0.022 -0.06,-0.038c-0.017,-0.016 -0.03,-0.035 -0.039,-0.056c-0.009,-0.021 -0.015,-0.044 -0.016,-0.069l0.061,0Z" style="fill:rgb(54,65,68);fill-rule:nonzero;"/>            </g>        </g>        <g transform="matrix(1.53257,0,0,1.53257,-402.599,-23.9884)">            <g transform="matrix(1,0,0,1,328.065,209.579)">                <path d="M0,-56.52c-6.968,-6.395 -16.306,-10.231 -26.508,-10.053c-21.108,0.369 -37.92,17.778 -37.551,38.885c0.368,21.107 17.778,37.919 38.885,37.551c9.569,-0.167 18.244,-3.76 24.846,-9.592l-0.232,-13.303l-9.323,0.163c-3.932,3.993 -9.437,6.479 -15.573,6.586c-12.19,0.213 -22.245,-9.497 -22.457,-21.687c-0.213,-12.19 9.496,-22.244 21.686,-22.457c5.396,-0.094 10.373,1.756 14.264,4.904l11.963,-10.997Z" style="fill:url(#_Linear1);fill-rule:nonzero;"/>            </g>            <g transform="matrix(1,0,0,1,310.29,214.295)">                <path d="M0,-34.885l0,14.131l20.754,0l0,20.754l14.131,0l0,-20.754l0,-14.131l-34.885,0Z" style="fill:rgb(209,218,38);fill-rule:nonzero;"/>            </g>        </g>    </g>    <defs>        <linearGradient id="_Linear1" x1="0" y1="0" x2="1" y2="0" gradientUnits="userSpaceOnUse" gradientTransform="matrix(50.2966,-21.01,21.01,50.2966,-63.4283,-14.5075)"><stop offset="0" style="stop-color:rgb(209,218,38);stop-opacity:1"/><stop offset="0.48" style="stop-color:rgb(209,218,38);stop-opacity:1"/><stop offset="0.63" style="stop-color:rgb(209,218,38);stop-opacity:1"/><stop offset="0.76" style="stop-color:rgb(209,218,38);stop-opacity:1"/><stop offset="1" style="stop-color:rgb(209,218,38);stop-opacity:0"/></linearGradient>    </defs></svg>