<?xml version="1.0" encoding="UTF-8" standalone="no"?><!DOCTYPE svg PUBLIC "-//W3C//DTD SVG 1.1//EN" "http://www.w3.org/Graphics/SVG/1.1/DTD/svg11.dtd"><svg width="100%" height="100%" viewBox="0 0 1024 512" version="1.1" xmlns="http://www.w3.org/2000/svg" xmlns:xlink="http://www.w3.org/1999/xlink" xml:space="preserve" style="fill-rule:evenodd;clip-rule:evenodd;stroke-linejoin:round;stroke-miterlimit:2;"><title>FinanceUtile</title><desc>FinanceUtile is a crowdfunding platform created in late 2009. FinanceUtile allows you to invest in innovative companies rigorously selected by a multidisciplinary team, stemming from venture capital, incubation and entrepreneurship.</desc>    <g transform="matrix(3.31721,0,0,3.31721,-163.823,76.4834)">        <g>            <g transform="matrix(50,0,0,50,45.6916,71.7231)">                <path d="M0.556,-0.681l0,0.097l-0.355,0l0,0.184l0.308,0l0,0.098l-0.308,0l0,0.302l-0.115,0l0,-0.681l0.47,0Z" style="fill:url(#_Linear1);fill-rule:nonzero;"/>            </g>            <g transform="matrix(50,0,0,50,76.2336,71.7231)">                <path d="M0.167,-0.681l0,0.115l-0.115,0l0,-0.115l0.115,0Zm0,0.184l0,0.497l-0.115,0l0,-0.497l0.115,0Z" style="fill:url(#_Linear2);fill-rule:nonzero;"/>            </g>            <g transform="matrix(50,0,0,50,87.1955,71.7231)">                <path d="M0.061,-0.497l0.115,0l0,0.059c0.022,-0.025 0.044,-0.042 0.068,-0.053c0.023,-0.011 0.048,-0.016 0.072,-0.016c0.026,0 0.049,0.004 0.069,0.011c0.02,0.008 0.037,0.019 0.051,0.032c0.014,0.014 0.024,0.031 0.032,0.05c0.007,0.02 0.011,0.041 0.011,0.065l0,0.349l-0.115,0l0,-0.331c0,-0.012 -0.002,-0.023 -0.006,-0.033c-0.003,-0.01 -0.008,-0.018 -0.014,-0.025c-0.006,-0.007 -0.014,-0.012 -0.022,-0.016c-0.009,-0.003 -0.018,-0.005 -0.027,-0.005c-0.015,0 -0.03,0.004 -0.045,0.01c-0.014,0.006 -0.026,0.015 -0.037,0.025c-0.011,0.011 -0.02,0.023 -0.027,0.037c-0.006,0.014 -0.01,0.028 -0.01,0.043l0,0.295l-0.115,0l0,-0.497Z" style="fill:url(#_Linear3);fill-rule:nonzero;"/>            </g>            <g transform="matrix(50,0,0,50,114.149,71.7231)">                <path d="M0.505,-0.013c-0.01,0.006 -0.018,0.01 -0.025,0.013c-0.007,0.003 -0.014,0.006 -0.019,0.007c-0.006,0.002 -0.011,0.002 -0.015,0.003c-0.004,0 -0.008,0 -0.01,0c-0.012,0 -0.023,-0.002 -0.032,-0.007c-0.01,-0.004 -0.019,-0.009 -0.026,-0.016c-0.007,-0.007 -0.013,-0.016 -0.019,-0.025c-0.005,-0.009 -0.01,-0.019 -0.013,-0.029c-0.015,0.015 -0.029,0.028 -0.042,0.037c-0.013,0.01 -0.026,0.018 -0.038,0.024c-0.013,0.006 -0.026,0.01 -0.038,0.012c-0.013,0.003 -0.026,0.004 -0.04,0.004c-0.022,0 -0.043,-0.004 -0.063,-0.011c-0.019,-0.007 -0.036,-0.017 -0.05,-0.03c-0.015,-0.012 -0.026,-0.028 -0.034,-0.046c-0.008,-0.018 -0.012,-0.039 -0.012,-0.061c0,-0.019 0.004,-0.036 0.013,-0.049c0.008,-0.014 0.02,-0.027 0.034,-0.037c0.014,-0.011 0.03,-0.019 0.048,-0.027c0.018,-0.007 0.037,-0.014 0.055,-0.02c0.019,-0.006 0.038,-0.012 0.056,-0.018c0.018,-0.005 0.034,-0.011 0.048,-0.017c0.014,-0.006 0.026,-0.013 0.034,-0.021c0.009,-0.008 0.013,-0.017 0.013,-0.027c0,-0.011 -0.003,-0.02 -0.008,-0.027c-0.005,-0.007 -0.012,-0.012 -0.02,-0.017c-0.009,-0.004 -0.018,-0.007 -0.028,-0.009c-0.011,-0.002 -0.021,-0.003 -0.03,-0.003c-0.01,0 -0.02,0.001 -0.03,0.004c-0.009,0.003 -0.018,0.007 -0.026,0.013c-0.008,0.006 -0.015,0.013 -0.021,0.023c-0.005,0.009 -0.009,0.02 -0.01,0.033l-0.117,0c0.002,-0.029 0.009,-0.054 0.021,-0.075c0.012,-0.022 0.028,-0.039 0.047,-0.053c0.019,-0.014 0.04,-0.025 0.064,-0.032c0.023,-0.006 0.047,-0.01 0.072,-0.01c0.026,0 0.052,0.003 0.076,0.009c0.024,0.006 0.046,0.015 0.064,0.028c0.019,0.012 0.034,0.029 0.045,0.048c0.011,0.02 0.016,0.044 0.016,0.071l0,0.242c0,0.006 0.002,0.012 0.007,0.017c0.004,0.006 0.01,0.009 0.018,0.009c0.001,0 0.004,-0.001 0.01,-0.002c0.007,-0.001 0.015,-0.004 0.025,-0.009l0,0.081Zm-0.175,-0.225c-0.007,0.004 -0.017,0.008 -0.029,0.012c-0.012,0.004 -0.025,0.007 -0.039,0.011c-0.014,0.004 -0.028,0.008 -0.043,0.012c-0.014,0.004 -0.026,0.009 -0.038,0.015c-0.011,0.005 -0.021,0.012 -0.028,0.02c-0.007,0.007 -0.011,0.016 -0.011,0.027c0,0.01 0.002,0.019 0.005,0.026c0.003,0.007 0.008,0.013 0.013,0.017c0.005,0.005 0.011,0.008 0.018,0.01c0.007,0.002 0.014,0.004 0.021,0.004c0.022,0 0.045,-0.008 0.068,-0.023c0.024,-0.015 0.045,-0.038 0.063,-0.069l0,-0.062Z" style="fill:url(#_Linear4);fill-rule:nonzero;"/>            </g>            <g transform="matrix(50,0,0,50,139.295,71.7231)">                <path d="M0.061,-0.497l0.115,0l0,0.059c0.022,-0.025 0.044,-0.042 0.068,-0.053c0.023,-0.011 0.048,-0.016 0.072,-0.016c0.026,0 0.049,0.004 0.069,0.011c0.02,0.008 0.037,0.019 0.051,0.032c0.014,0.014 0.024,0.031 0.032,0.05c0.007,0.02 0.011,0.041 0.011,0.065l0,0.349l-0.115,0l0,-0.331c0,-0.012 -0.002,-0.023 -0.006,-0.033c-0.003,-0.01 -0.008,-0.018 -0.014,-0.025c-0.006,-0.007 -0.014,-0.012 -0.022,-0.016c-0.009,-0.003 -0.018,-0.005 -0.027,-0.005c-0.015,0 -0.03,0.004 -0.045,0.01c-0.014,0.006 -0.026,0.015 -0.037,0.025c-0.011,0.011 -0.02,0.023 -0.027,0.037c-0.006,0.014 -0.01,0.028 -0.01,0.043l0,0.295l-0.115,0l0,-0.497Z" style="fill:url(#_Linear5);fill-rule:nonzero;"/>            </g>            <g transform="matrix(50,0,0,50,166.248,71.7231)">                <path d="M0.348,-0.32c-0.009,-0.033 -0.022,-0.056 -0.037,-0.07c-0.015,-0.015 -0.034,-0.022 -0.058,-0.022c-0.018,0 -0.034,0.004 -0.048,0.013c-0.014,0.008 -0.025,0.02 -0.035,0.034c-0.009,0.015 -0.017,0.031 -0.022,0.05c-0.004,0.019 -0.007,0.039 -0.007,0.059c0,0.022 0.003,0.043 0.008,0.063c0.005,0.021 0.012,0.039 0.022,0.055c0.009,0.016 0.021,0.029 0.034,0.039c0.014,0.01 0.029,0.015 0.046,0.015c0.013,0 0.025,-0.003 0.035,-0.01c0.011,-0.006 0.02,-0.014 0.028,-0.024c0.008,-0.01 0.015,-0.022 0.02,-0.036c0.005,-0.013 0.009,-0.027 0.012,-0.043l0.12,0c-0.004,0.032 -0.012,0.061 -0.024,0.087c-0.011,0.025 -0.026,0.047 -0.045,0.065c-0.019,0.017 -0.04,0.031 -0.065,0.041c-0.026,0.009 -0.053,0.014 -0.084,0.014c-0.026,0 -0.049,-0.004 -0.07,-0.011c-0.021,-0.007 -0.039,-0.016 -0.056,-0.029c-0.016,-0.012 -0.03,-0.026 -0.042,-0.043c-0.012,-0.017 -0.022,-0.035 -0.03,-0.055c-0.008,-0.02 -0.014,-0.041 -0.018,-0.062c-0.004,-0.022 -0.006,-0.044 -0.006,-0.066c0,-0.036 0.005,-0.07 0.016,-0.101c0.011,-0.03 0.027,-0.057 0.046,-0.079c0.02,-0.023 0.044,-0.04 0.072,-0.052c0.028,-0.013 0.059,-0.019 0.094,-0.019c0.03,0 0.057,0.005 0.081,0.015c0.024,0.009 0.044,0.022 0.062,0.039c0.018,0.016 0.032,0.036 0.043,0.059c0.012,0.023 0.02,0.047 0.026,0.074l-0.118,0Z" style="fill:url(#_Linear6);fill-rule:nonzero;"/>            </g>            <g transform="matrix(50,0,0,50,190.809,71.7231)">                <path d="M0.147,-0.218c0.002,0.018 0.006,0.035 0.013,0.051c0.006,0.016 0.014,0.031 0.025,0.043c0.01,0.012 0.021,0.022 0.035,0.029c0.013,0.007 0.027,0.011 0.043,0.011c0.028,0 0.052,-0.008 0.07,-0.024c0.019,-0.015 0.034,-0.038 0.045,-0.069l0.106,0c-0.006,0.029 -0.017,0.056 -0.031,0.079c-0.015,0.023 -0.032,0.042 -0.052,0.058c-0.019,0.016 -0.041,0.029 -0.065,0.037c-0.024,0.009 -0.049,0.013 -0.074,0.013c-0.036,0 -0.068,-0.007 -0.097,-0.022c-0.029,-0.014 -0.053,-0.033 -0.073,-0.057c-0.02,-0.024 -0.036,-0.053 -0.047,-0.085c-0.011,-0.032 -0.016,-0.065 -0.016,-0.101c0,-0.033 0.005,-0.065 0.016,-0.095c0.011,-0.031 0.027,-0.058 0.047,-0.081c0.02,-0.023 0.044,-0.042 0.073,-0.055c0.029,-0.014 0.061,-0.021 0.097,-0.021c0.035,0 0.066,0.006 0.094,0.019c0.028,0.012 0.052,0.029 0.072,0.051c0.02,0.022 0.035,0.048 0.045,0.078c0.011,0.03 0.016,0.062 0.016,0.096l0,0.045l-0.342,0Zm0.225,-0.087c-0.002,-0.016 -0.006,-0.03 -0.012,-0.043c-0.006,-0.012 -0.014,-0.023 -0.024,-0.033c-0.009,-0.009 -0.021,-0.016 -0.034,-0.021c-0.014,-0.005 -0.028,-0.008 -0.044,-0.008c-0.015,0 -0.028,0.003 -0.041,0.009c-0.012,0.005 -0.024,0.013 -0.033,0.022c-0.01,0.01 -0.018,0.021 -0.024,0.033c-0.006,0.013 -0.011,0.027 -0.013,0.041l0.225,0Z" style="fill:url(#_Linear7);fill-rule:nonzero;"/>            </g>            <g transform="matrix(50,0,0,50,243.545,71.7231)">                <path d="M0.201,-0.681l0,0.451c0,0.024 0.004,0.045 0.012,0.064c0.008,0.018 0.018,0.034 0.031,0.047c0.013,0.013 0.028,0.023 0.045,0.029c0.017,0.007 0.035,0.01 0.054,0.01c0.02,0 0.039,-0.003 0.058,-0.009c0.018,-0.006 0.035,-0.015 0.05,-0.028c0.014,-0.012 0.026,-0.028 0.035,-0.046c0.009,-0.019 0.013,-0.04 0.013,-0.065l0,-0.453l0.115,0l0,0.448c0,0.041 -0.007,0.077 -0.022,0.108c-0.016,0.031 -0.036,0.057 -0.061,0.078c-0.025,0.021 -0.054,0.037 -0.086,0.048c-0.033,0.011 -0.066,0.016 -0.101,0.016c-0.033,0 -0.066,-0.005 -0.097,-0.016c-0.031,-0.01 -0.058,-0.026 -0.082,-0.047c-0.024,-0.021 -0.043,-0.047 -0.058,-0.079c-0.014,-0.032 -0.021,-0.068 -0.021,-0.11l0,-0.446l0.115,0Z" style="fill:url(#_Linear8);fill-rule:nonzero;"/>            </g>            <g transform="matrix(50,0,0,50,278.604,71.7231)">                <path d="M0.2,-0.634l0,0.137l0.092,0l0,0.094l-0.092,0l0,0.271c0,0.013 0.003,0.025 0.01,0.034c0.006,0.009 0.015,0.014 0.026,0.014c0.004,0 0.011,-0.001 0.022,-0.002c0.011,-0.001 0.025,-0.006 0.044,-0.013l0,0.091c-0.02,0.008 -0.039,0.012 -0.057,0.015c-0.018,0.002 -0.033,0.003 -0.045,0.003c-0.015,0 -0.03,-0.003 -0.044,-0.01c-0.014,-0.006 -0.026,-0.014 -0.037,-0.026c-0.01,-0.011 -0.019,-0.024 -0.025,-0.04c-0.006,-0.016 -0.009,-0.034 -0.009,-0.054l0,-0.283l-0.071,0l0,-0.094l0.071,0l0,-0.137l0.115,0Z" style="fill:url(#_Linear9);fill-rule:nonzero;"/>            </g>            <g transform="matrix(50,0,0,50,294.204,71.7231)">                <path d="M0.167,-0.681l0,0.115l-0.115,0l0,-0.115l0.115,0Zm0,0.184l0,0.497l-0.115,0l0,-0.497l0.115,0Z" style="fill:url(#_Linear10);fill-rule:nonzero;"/>            </g>            <g transform="matrix(50,0,0,50,305.166,71.7231)">                <rect x="0.052" y="-0.681" width="0.115" height="0.681" style="fill:url(#_Linear11);fill-rule:nonzero;"/>            </g>            <g transform="matrix(50,0,0,50,316.128,71.7231)">                <path d="M0.147,-0.218c0.002,0.018 0.006,0.035 0.013,0.051c0.006,0.016 0.014,0.031 0.025,0.043c0.01,0.012 0.021,0.022 0.035,0.029c0.013,0.007 0.027,0.011 0.043,0.011c0.028,0 0.052,-0.008 0.07,-0.024c0.019,-0.015 0.034,-0.038 0.045,-0.069l0.106,0c-0.006,0.029 -0.017,0.056 -0.031,0.079c-0.015,0.023 -0.032,0.042 -0.052,0.058c-0.019,0.016 -0.041,0.029 -0.065,0.037c-0.024,0.009 -0.049,0.013 -0.074,0.013c-0.036,0 -0.068,-0.007 -0.097,-0.022c-0.029,-0.014 -0.053,-0.033 -0.073,-0.057c-0.02,-0.024 -0.036,-0.053 -0.047,-0.085c-0.011,-0.032 -0.016,-0.065 -0.016,-0.101c0,-0.033 0.005,-0.065 0.016,-0.095c0.011,-0.031 0.027,-0.058 0.047,-0.081c0.02,-0.023 0.044,-0.042 0.073,-0.055c0.029,-0.014 0.061,-0.021 0.097,-0.021c0.035,0 0.066,0.006 0.094,0.019c0.028,0.012 0.052,0.029 0.072,0.051c0.02,0.022 0.035,0.048 0.045,0.078c0.011,0.03 0.016,0.062 0.016,0.096l0,0.045l-0.342,0Zm0.225,-0.087c-0.002,-0.016 -0.006,-0.03 -0.012,-0.043c-0.006,-0.012 -0.014,-0.023 -0.024,-0.033c-0.009,-0.009 -0.021,-0.016 -0.034,-0.021c-0.014,-0.005 -0.028,-0.008 -0.044,-0.008c-0.015,0 -0.028,0.003 -0.041,0.009c-0.012,0.005 -0.024,0.013 -0.033,0.022c-0.01,0.01 -0.018,0.021 -0.024,0.033c-0.006,0.013 -0.011,0.027 -0.013,0.041l0.225,0Z" style="fill:url(#_Linear12);fill-rule:nonzero;"/>            </g>            <g transform="matrix(0.617259,0,0,0.617259,51.0697,-81.6382)">                <path d="M496.397,170.28c0,-2.877 -2.331,-5.208 -5.208,-5.208l-195.177,0c-2.876,0 -5.208,2.331 -5.208,5.208l0,99.304c0,2.876 2.332,5.208 5.208,5.208l195.177,0c2.877,0 5.208,-2.332 5.208,-5.208l0,-99.304Zm-195.176,5.208l0,88.887l184.76,0l0,-88.887l-184.76,0Z" style="fill:url(#_Linear13);"/>            </g>        </g>    </g>    <defs>        <linearGradient id="_Linear1" x1="0" y1="0" x2="1" y2="0" gradientUnits="userSpaceOnUse" gradientTransform="matrix(4.22096e-17,0.689335,-0.689335,4.22096e-17,2.69483,-0.688169)"><stop offset="0" style="stop-color:rgb(82,131,169);stop-opacity:1"/><stop offset="0.54" style="stop-color:rgb(100,151,191);stop-opacity:1"/><stop offset="0.71" style="stop-color:rgb(61,97,133);stop-opacity:1"/><stop offset="1" style="stop-color:rgb(39,64,97);stop-opacity:1"/></linearGradient>        <linearGradient id="_Linear2" x1="0" y1="0" x2="1" y2="0" gradientUnits="userSpaceOnUse" gradientTransform="matrix(4.22096e-17,0.689335,-0.689335,4.22096e-17,2.08399,-0.688169)"><stop offset="0" style="stop-color:rgb(82,131,169);stop-opacity:1"/><stop offset="0.54" style="stop-color:rgb(100,151,191);stop-opacity:1"/><stop offset="0.71" style="stop-color:rgb(61,97,133);stop-opacity:1"/><stop offset="1" style="stop-color:rgb(39,64,97);stop-opacity:1"/></linearGradient>        <linearGradient id="_Linear3" x1="0" y1="0" x2="1" y2="0" gradientUnits="userSpaceOnUse" gradientTransform="matrix(4.22096e-17,0.689335,-0.689335,4.22096e-17,1.86475,-0.688169)"><stop offset="0" style="stop-color:rgb(82,131,169);stop-opacity:1"/><stop offset="0.54" style="stop-color:rgb(100,151,191);stop-opacity:1"/><stop offset="0.71" style="stop-color:rgb(61,97,133);stop-opacity:1"/><stop offset="1" style="stop-color:rgb(39,64,97);stop-opacity:1"/></linearGradient>        <linearGradient id="_Linear4" x1="0" y1="0" x2="1" y2="0" gradientUnits="userSpaceOnUse" gradientTransform="matrix(4.22096e-17,0.689335,-0.689335,4.22096e-17,1.32569,-0.688169)"><stop offset="0" style="stop-color:rgb(82,131,169);stop-opacity:1"/><stop offset="0.54" style="stop-color:rgb(100,151,191);stop-opacity:1"/><stop offset="0.71" style="stop-color:rgb(61,97,133);stop-opacity:1"/><stop offset="1" style="stop-color:rgb(39,64,97);stop-opacity:1"/></linearGradient>        <linearGradient id="_Linear5" x1="0" y1="0" x2="1" y2="0" gradientUnits="userSpaceOnUse" gradientTransform="matrix(4.22096e-17,0.689335,-0.689335,4.22096e-17,0.822758,-0.688169)"><stop offset="0" style="stop-color:rgb(82,131,169);stop-opacity:1"/><stop offset="0.54" style="stop-color:rgb(100,151,191);stop-opacity:1"/><stop offset="0.71" style="stop-color:rgb(61,97,133);stop-opacity:1"/><stop offset="1" style="stop-color:rgb(39,64,97);stop-opacity:1"/></linearGradient>        <linearGradient id="_Linear6" x1="0" y1="0" x2="1" y2="0" gradientUnits="userSpaceOnUse" gradientTransform="matrix(4.22096e-17,0.689335,-0.689335,4.22096e-17,0.283695,-0.688169)"><stop offset="0" style="stop-color:rgb(82,131,169);stop-opacity:1"/><stop offset="0.54" style="stop-color:rgb(100,151,191);stop-opacity:1"/><stop offset="0.71" style="stop-color:rgb(61,97,133);stop-opacity:1"/><stop offset="1" style="stop-color:rgb(39,64,97);stop-opacity:1"/></linearGradient>        <linearGradient id="_Linear7" x1="0" y1="0" x2="1" y2="0" gradientUnits="userSpaceOnUse" gradientTransform="matrix(4.22096e-17,0.689335,-0.689335,4.22096e-17,-0.207516,-0.688169)"><stop offset="0" style="stop-color:rgb(82,131,169);stop-opacity:1"/><stop offset="0.54" style="stop-color:rgb(100,151,191);stop-opacity:1"/><stop offset="0.71" style="stop-color:rgb(61,97,133);stop-opacity:1"/><stop offset="1" style="stop-color:rgb(39,64,97);stop-opacity:1"/></linearGradient>        <linearGradient id="_Linear8" x1="0" y1="0" x2="1" y2="0" gradientUnits="userSpaceOnUse" gradientTransform="matrix(4.22096e-17,0.689335,-0.689335,4.22096e-17,-1.26224,-0.688169)"><stop offset="0" style="stop-color:rgb(82,131,169);stop-opacity:1"/><stop offset="0.54" style="stop-color:rgb(100,151,191);stop-opacity:1"/><stop offset="0.71" style="stop-color:rgb(61,97,133);stop-opacity:1"/><stop offset="1" style="stop-color:rgb(39,64,97);stop-opacity:1"/></linearGradient>        <linearGradient id="_Linear9" x1="0" y1="0" x2="1" y2="0" gradientUnits="userSpaceOnUse" gradientTransform="matrix(4.22096e-17,0.689335,-0.689335,4.22096e-17,-1.96341,-0.688169)"><stop offset="0" style="stop-color:rgb(82,131,169);stop-opacity:1"/><stop offset="0.54" style="stop-color:rgb(100,151,191);stop-opacity:1"/><stop offset="0.71" style="stop-color:rgb(61,97,133);stop-opacity:1"/><stop offset="1" style="stop-color:rgb(39,64,97);stop-opacity:1"/></linearGradient>        <linearGradient id="_Linear10" x1="0" y1="0" x2="1" y2="0" gradientUnits="userSpaceOnUse" gradientTransform="matrix(4.22096e-17,0.689335,-0.689335,4.22096e-17,-2.27542,-0.688169)"><stop offset="0" style="stop-color:rgb(82,131,169);stop-opacity:1"/><stop offset="0.54" style="stop-color:rgb(100,151,191);stop-opacity:1"/><stop offset="0.71" style="stop-color:rgb(61,97,133);stop-opacity:1"/><stop offset="1" style="stop-color:rgb(39,64,97);stop-opacity:1"/></linearGradient>        <linearGradient id="_Linear11" x1="0" y1="0" x2="1" y2="0" gradientUnits="userSpaceOnUse" gradientTransform="matrix(4.22096e-17,0.689335,-0.689335,4.22096e-17,-2.49466,-0.688169)"><stop offset="0" style="stop-color:rgb(82,131,169);stop-opacity:1"/><stop offset="0.54" style="stop-color:rgb(100,151,191);stop-opacity:1"/><stop offset="0.71" style="stop-color:rgb(61,97,133);stop-opacity:1"/><stop offset="1" style="stop-color:rgb(39,64,97);stop-opacity:1"/></linearGradient>        <linearGradient id="_Linear12" x1="0" y1="0" x2="1" y2="0" gradientUnits="userSpaceOnUse" gradientTransform="matrix(4.22096e-17,0.689335,-0.689335,4.22096e-17,-2.7139,-0.688169)"><stop offset="0" style="stop-color:rgb(82,131,169);stop-opacity:1"/><stop offset="0.54" style="stop-color:rgb(100,151,191);stop-opacity:1"/><stop offset="0.71" style="stop-color:rgb(61,97,133);stop-opacity:1"/><stop offset="1" style="stop-color:rgb(39,64,97);stop-opacity:1"/></linearGradient>        <linearGradient id="_Linear13" x1="0" y1="0" x2="1" y2="0" gradientUnits="userSpaceOnUse" gradientTransform="matrix(17.8119,105.052,-105.052,17.8119,371.53,169.818)"><stop offset="0" style="stop-color:rgb(247,153,55);stop-opacity:1"/><stop offset="0.27" style="stop-color:rgb(248,163,75);stop-opacity:1"/><stop offset="0.55" style="stop-color:rgb(252,194,135);stop-opacity:1"/><stop offset="0.62" style="stop-color:rgb(243,126,66);stop-opacity:1"/><stop offset="1" style="stop-color:rgb(236,143,94);stop-opacity:1"/></linearGradient>    </defs></svg>