<?xml version="1.0" encoding="UTF-8" standalone="no"?><!DOCTYPE svg PUBLIC "-//W3C//DTD SVG 1.1//EN" "http://www.w3.org/Graphics/SVG/1.1/DTD/svg11.dtd"><svg width="100%" height="100%" viewBox="0 0 1024 512" version="1.1" xmlns="http://www.w3.org/2000/svg" xmlns:xlink="http://www.w3.org/1999/xlink" xml:space="preserve" style="fill-rule:evenodd;clip-rule:evenodd;stroke-linejoin:round;stroke-miterlimit:2;"><title>Ekassa</title><desc>Ekassa.eu is an online investment platform, launched in May 2018 but part of an international finance group which has been operating since 2012.Company is focused on investing in P2P consumer loans issued by trusted lending partners in Poland one of the fastest-growing areas of finance in Europe.Our new online technologies allow us to offer our clients higher returns compared to other investment classes such as saving accounts.</desc>    <g id="ekassa-512x256.svg" transform="matrix(2.21739,0,0,2.21739,-55.652,-27.826)">        <path d="M102,168.39c-16.102,-0.017 -30.633,-9.939 -36.51,-24.93l-0.27,24.93c-21.559,-0.055 -39.258,-17.831 -39.22,-39.39c0,-21.76 18.13,-39.4 39.8,-39.4l0,24.09c6.098,-14.562 20.413,-24.088 36.2,-24.09l0,78.79Z" style="fill-rule:nonzero;"/>        <path d="M173.66,145.65l0,12.94l-47.52,0l0,-59.18l46.41,0l0,12.94l-29.84,0l0,10l26.29,0l0,12.51l-26.29,0l0,10.82l30.95,-0.03Z" style="fill-rule:nonzero;"/>        <path d="M205.7,137.11l-6.26,6.68l0,14.8l-16.57,0l0,-59.18l16.57,0l0,24.59l22.91,-24.6l18.43,0l-24.18,26.21l25.45,33l-19.44,0l-16.91,-21.5Z" style="fill-rule:nonzero;"/>        <path d="M289.23,147.09l-25,0l-4.65,11.5l-17.11,0l26.13,-59.18l16.49,0l26.21,59.18l-17.42,0l-4.65,-11.5Zm-4.9,-12.34l-7.61,-18.94l-7.61,18.94l15.22,0Z" style="fill-rule:nonzero;"/>        <path d="M311.12,153.26l5.5,-12.34c5.842,3.717 12.606,5.736 19.53,5.83c6.93,0 9.64,-1.94 9.64,-4.82c0,-9.38 -33.65,-2.54 -33.65,-24.52c0,-10.57 8.62,-19.19 26.21,-19.19c7.69,0 15.64,1.78 21.47,5.16l-5.16,12.43c-5.007,-2.85 -10.641,-4.42 -16.4,-4.57c-7,0 -9.55,2.37 -9.55,5.33c0,9 33.56,2.28 33.56,24.1c0,10.31 -8.62,19.11 -26.21,19.11c-9.72,-0.01 -19.36,-2.63 -24.94,-6.52Z" style="fill-rule:nonzero;"/>        <path d="M364.64,153.26l5.5,-12.34c5.842,3.717 12.606,5.736 19.53,5.83c6.93,0 9.64,-1.94 9.64,-4.82c0,-9.38 -33.65,-2.54 -33.65,-24.52c0,-10.57 8.62,-19.19 26.21,-19.19c7.69,0 15.64,1.78 21.47,5.16l-5.16,12.43c-5.007,-2.85 -10.641,-4.42 -16.4,-4.57c-7,0 -9.55,2.37 -9.55,5.33c0,9 33.56,2.28 33.56,24.1c0,10.31 -8.62,19.11 -26.21,19.11c-9.73,-0.01 -19.36,-2.63 -24.94,-6.52Z" style="fill-rule:nonzero;"/>        <path d="M461.94,147.09l-25,0l-4.65,11.5l-17.1,0l26.12,-59.18l16.49,0l26.2,59.18l-17.41,0l-4.65,-11.5Zm-4.94,-12.35l-7.61,-18.94l-7.61,18.94l15.22,0Z" style="fill-rule:nonzero;"/>        <path d="M104,166.4c-16.099,-0.021 -30.624,-9.942 -36.5,-24.93l-0.27,24.93c-21.567,-0.049 -39.274,-17.833 -39.23,-39.4c0,-21.76 18.13,-39.39 39.8,-39.39l0,24.09c6.098,-14.562 20.413,-24.088 36.2,-24.09l0,78.79Z" style="fill:rgb(90,102,174);fill-rule:nonzero;"/>        <path d="M175.65,143.66l0,12.94l-47.51,0l0,-59.19l46.41,0l0,12.94l-29.84,0l0,10l26.29,0l0,12.51l-26.29,0l0,10.82l30.94,-0.02Z" style="fill:rgb(90,102,174);fill-rule:nonzero;"/>        <path d="M207.69,135.12l-6.26,6.68l0,14.8l-16.57,0l0,-59.19l16.57,0l0,24.59l22.91,-24.6l18.43,0l-24.17,26.22l25.45,33l-19.45,0l-16.91,-21.5Z" style="fill:rgb(90,102,174);fill-rule:nonzero;"/>        <path d="M291.22,145.1l-25,0l-4.65,11.5l-17.11,0l26.12,-59.18l16.49,0l26.21,59.18l-17.41,0l-4.65,-11.5Zm-4.9,-12.34l-7.61,-18.94l-7.61,18.94l15.22,0Z" style="fill:rgb(90,102,174);fill-rule:nonzero;"/>        <path d="M313.11,151.27l5.5,-12.34c5.842,3.717 12.606,5.736 19.53,5.83c6.93,0 9.64,-1.94 9.64,-4.82c0,-9.38 -33.65,-2.54 -33.65,-24.52c0,-10.57 8.62,-19.19 26.21,-19.19c7.69,0 15.64,1.78 21.47,5.16l-5.16,12.43c-5.007,-2.85 -10.641,-4.42 -16.4,-4.57c-7,0 -9.55,2.37 -9.55,5.33c0,9 33.56,2.28 33.56,24.1c0,10.31 -8.62,19.11 -26.21,19.11c-9.72,-0.01 -19.36,-2.63 -24.94,-6.52Z" style="fill:rgb(90,102,174);fill-rule:nonzero;"/>        <path d="M366.63,151.27l5.5,-12.34c5.842,3.717 12.606,5.736 19.53,5.83c6.93,0 9.64,-1.94 9.64,-4.82c0,-9.38 -33.65,-2.54 -33.65,-24.52c0,-10.57 8.62,-19.19 26.21,-19.19c7.69,0 15.64,1.78 21.47,5.16l-5.16,12.43c-5.007,-2.85 -10.641,-4.42 -16.4,-4.57c-7,0 -9.55,2.37 -9.55,5.33c0,9 33.56,2.28 33.56,24.1c0,10.31 -8.62,19.11 -26.21,19.11c-9.73,-0.01 -19.36,-2.63 -24.94,-6.52Z" style="fill:rgb(90,102,174);fill-rule:nonzero;"/>        <path d="M463.93,145.1l-25,0l-4.65,11.5l-17.1,0l26.12,-59.18l16.49,0l26.21,59.17l-17.42,0l-4.65,-11.49Zm-4.93,-12.35l-7.61,-18.94l-7.61,18.94l15.22,0Z" style="fill:rgb(90,102,174);fill-rule:nonzero;"/>    </g></svg>