<?xml version="1.0" encoding="UTF-8" standalone="no"?><!DOCTYPE svg PUBLIC "-//W3C//DTD SVG 1.1//EN" "http://www.w3.org/Graphics/SVG/1.1/DTD/svg11.dtd"><svg width="100%" height="100%" viewBox="0 0 1024 512" version="1.1" xmlns="http://www.w3.org/2000/svg" xmlns:xlink="http://www.w3.org/1999/xlink" xml:space="preserve" style="fill-rule:evenodd;clip-rule:evenodd;stroke-linejoin:round;stroke-miterlimit:2;"><title>Optimise</title><desc>We're recognised around the world as one of the leading global performance-marketing networks, helping to deliver over $1 billion in online sales each year for our clients</desc>    <g transform="matrix(14.8041,0,0,14.8041,2,128.685)">        <path d="M68.6,12.1l0.1,0c0,0.1 0,0.1 -0.1,0Zm-0.1,0.3l0.1,-0.1l0.1,0l0,0.1l0.1,0l0,-0.1c0,0 0,-0.1 -0.1,-0.1c0,0 0.1,0 0.1,-0.1c0,-0.1 -0.1,-0.1 -0.1,-0.1l-0.2,0l0,0.4Zm0.1,0.1c-0.2,0 -0.3,-0.1 -0.3,-0.3c0,-0.2 0.1,-0.3 0.3,-0.3c0.2,0 0.3,0.1 0.3,0.3c0,0.2 -0.1,0.3 -0.3,0.3m0,0.1c0.2,0 0.3,-0.1 0.3,-0.3c0,-0.2 -0.2,-0.3 -0.3,-0.3c-0.2,0 -0.3,0.1 -0.3,0.3c0,0.1 0.1,0.3 0.3,0.3" style="fill:rgb(8,9,55);fill-rule:nonzero;"/>        <path d="M65.2,7.5c1.1,0 1.5,0.7 1.5,1.4l-3.1,0c0.1,-0.8 0.7,-1.4 1.6,-1.4m3,2.4l0,-0.3c0,-1.9 -1.1,-3.2 -3.1,-3.2c-1.9,0 -3.2,1.4 -3.2,3.1c0,1.7 1.3,3.1 3.2,3.1c1.2,0 2.3,-0.5 2.8,-1.3l-1,-0.8c-0.3,0.5 -1,0.8 -1.6,0.8c-1,0 -1.6,-0.6 -1.8,-1.4l4.7,0Zm-11.8,2.1c0.9,0.4 1.6,0.6 2.7,0.6c1.6,0 2.5,-0.8 2.5,-1.9c0,-1.1 -0.8,-1.6 -2.3,-1.9c-0.9,-0.3 -1.3,-0.4 -1.3,-0.8c0,-0.3 0.3,-0.5 0.9,-0.5c0.6,0 1.3,0.2 2,0.4l0.5,-1.1c-0.7,-0.3 -1.5,-0.5 -2.5,-0.5c-1.5,0 -2.4,0.8 -2.4,1.9c0,1.2 1,1.6 2.3,1.9c1,0.2 1.3,0.4 1.3,0.7c0,0.3 -0.3,0.6 -1,0.6c-0.8,0 -1.4,-0.2 -2.2,-0.5l-0.5,1.1Zm-2,0.4l1.6,0l0,-6l-1.6,0l0,6Zm-3.2,-6.1c-0.7,0 -1.4,0.3 -2,0.8c-0.4,-0.5 -1.1,-0.8 -2.1,-0.8c-0.6,0 -1.2,0.2 -1.6,0.5l0,-0.4l-1.6,0l0,6.1l1.6,0l0,-4.4c0.3,-0.3 0.8,-0.5 1.4,-0.5c0.8,0 1.3,0.5 1.3,1.4l0,3.4l1.6,0l0,-3.3c0,-0.5 0,-0.8 -0.1,-0.9c0.3,-0.3 0.7,-0.5 1.2,-0.5c0.9,0 1.4,0.5 1.4,1.4l0,3.4l1.6,0l0,-3.4c0,-2 -0.8,-2.8 -2.7,-2.8m-9.4,6.1l1.6,0l0,-6l-1.6,0l0,6Zm-0.5,-4.7l0,-1.3l-1.8,0l0,-3l-1.6,2.3l0,0.8l-0.5,0l0,1.3l0.5,0l0,3c0,1.3 0.8,1.9 1.9,1.9c0.9,0 1.4,-0.2 1.5,-0.2l0,-1.2c-0.2,0 -0.5,0.1 -0.7,0.1c-0.8,0 -1,-0.3 -1,-1.4l0,-2.3l1.7,0Zm-7.4,3.4c-0.6,0 -1.2,-0.2 -1.5,-0.5l0,-2.4c0.4,-0.3 0.9,-0.5 1.5,-0.5c1.1,0 1.9,0.8 1.9,1.7c0,1 -0.8,1.7 -1.9,1.7m0.3,-4.8c-0.7,0 -1.3,0.2 -1.8,0.5l0,-0.4l-1.6,0l0,9.1l1.6,-2.2l0,-1.2c0.5,0.3 1.2,0.5 1.8,0.5c1.7,0 3.2,-1.3 3.2,-3.1c0,-2 -1.5,-3.2 -3.2,-3.2" style="fill:rgb(8,9,55);fill-rule:nonzero;"/>        <path d="M23.3,8.4c0,-1.4 1.2,-2.6 2.7,-2.6c1.5,0 2.7,1.2 2.7,2.6c0,1.4 -1.2,2.6 -2.7,2.6c-1.5,0 -2.7,-1.1 -2.7,-2.6m-1.6,0c0,2.3 1.9,4.1 4.3,4.1c2.4,0 4.3,-1.8 4.3,-4.1c0,-2.3 -1.9,-4.1 -4.3,-4.1c-2.3,0 -4.3,1.8 -4.3,4.1" style="fill:rgb(8,9,55);fill-rule:nonzero;"/>        <path d="M16.8,5.3l0.1,0.2l-1.2,0.5l-0.1,-0.2l1.2,-0.5Zm-1.5,3.4c0,3.4 -2.9,6.2 -6.4,6.2c-3.5,0 -6.4,-2.8 -6.4,-6.2c0,-3.4 2.9,-6.2 6.4,-6.2c3.5,-0.1 6.4,2.7 6.4,6.2m-3.1,-7.8l-0.4,1.1l-0.2,-0.1l0.5,-1.1l0.1,0.1Zm-6.1,1l-0.1,0.1l-0.5,-1.1l0.2,-0.1l0.4,1.1Zm-4,9.5l-1.1,0.5l-0.1,-0.2l1.1,-0.5l0.1,0.2Zm0,-5.6l-0.1,0.1l-1.1,-0.4l0.1,-0.2l1.1,0.5Zm3.4,10.5l0.5,-1.1l0.2,0.1l-0.5,1.1l-0.2,-0.1Zm6.1,-1.1l0.2,-0.1l0.5,1.1l-0.2,0.1l-0.5,-1.1Zm4.1,-3.8l0.1,-0.2l1.1,0.4l-0.1,0.2l-1.1,-0.4Zm2,-2.8c0,-4.7 -4,-8.6 -8.9,-8.6c-4.9,0 -8.8,3.8 -8.8,8.6c0,4.8 4,8.6 8.9,8.6c4.9,0 8.8,-3.9 8.8,-8.6" style="fill:rgb(0,158,235);fill-rule:nonzero;"/>    </g></svg>