<?xml version="1.0" encoding="UTF-8" standalone="no"?><!DOCTYPE svg PUBLIC "-//W3C//DTD SVG 1.1//EN" "http://www.w3.org/Graphics/SVG/1.1/DTD/svg11.dtd"><svg width="100%" height="100%" viewBox="0 0 1024 512" version="1.1" xmlns="http://www.w3.org/2000/svg" xmlns:xlink="http://www.w3.org/1999/xlink" xml:space="preserve" style="fill-rule:evenodd;clip-rule:evenodd;stroke-linejoin:round;stroke-miterlimit:2;"><title>SIDA</title><desc>The Swedish International Development Cooperation Agency, Sida, is a government agency working on behalf of the Swedish parliament and government, with the mission to reduce poverty in the world. Through our work and in cooperation with others, we contribute to implementing Sweden’s Policy for Global Development.</desc>    <g transform="matrix(0.415238,0,0,0.415238,1.99989,70.7408)">        <g>            <g transform="matrix(4.16667,0,0,4.16667,0,-470.058)">                <path d="M62.68,148.566l55.259,55.259l-11.026,11.027l-55.259,-55.259c-3.552,-3.553 -3.964,-8.901 -0.919,-11.946c3.045,-3.045 8.392,-2.633 11.945,0.919Zm6.778,-25.454l64.561,64.562l-11.026,11.026l-64.562,-64.562c-3.552,-3.552 -3.963,-8.9 -0.918,-11.945c3.044,-3.045 8.392,-2.634 11.945,0.919Zm57.904,-6.56l38.889,38.889l-11.026,11.027l-38.889,-38.89c-3.553,-3.552 -3.964,-8.9 -0.919,-11.945c3.045,-3.044 8.393,-2.633 11.945,0.919Zm-32.802,-0.626l55.629,55.628l-11.026,11.027l-55.629,-55.629c-3.553,-3.553 -3.964,-8.901 -0.919,-11.945c3.045,-3.045 8.392,-2.634 11.945,0.919" style="fill:rgb(253,184,39);fill-rule:nonzero;"/>            </g>            <g transform="matrix(4.16667,0,0,4.16667,0,-1.27917)">                <path d="M35.53,151.445l55.259,-55.26l11.026,11.026l-55.259,55.259c-3.552,3.554 -8.9,3.964 -11.945,0.919c-3.045,-3.044 -2.633,-8.392 0.919,-11.944Zm-25.454,-6.778l64.561,-64.561l11.027,11.026l-64.562,64.562c-3.552,3.552 -8.9,3.963 -11.945,0.918c-3.045,-3.045 -2.634,-8.393 0.919,-11.945Zm-6.56,-57.905l38.889,-38.889l11.027,11.026l-38.889,38.89c-3.553,3.552 -8.901,3.963 -11.946,0.919c-3.045,-3.045 -2.633,-8.393 0.919,-11.946Zm-0.558,32.985l55.63,-55.629l11.026,11.027l-55.629,55.628c-3.552,3.553 -8.901,3.964 -11.945,0.919c-3.045,-3.044 -2.634,-8.393 0.918,-11.945" style="fill:rgb(0,73,144);fill-rule:nonzero;"/>            </g>            <g transform="matrix(4.16667,0,0,4.16667,0,471.333)">                <path d="M151.182,65.281l-55.26,-55.259l11.027,-11.027l55.259,55.259c3.553,3.553 3.964,8.901 0.919,11.946c-3.045,3.044 -8.393,2.633 -11.945,-0.919Zm-6.778,25.455l-64.561,-64.563l11.026,-11.026l64.562,64.561c3.552,3.553 3.963,8.902 0.918,11.946c-3.044,3.045 -8.392,2.633 -11.945,-0.918Zm-57.905,6.558l-38.889,-38.888l11.027,-11.027l38.889,38.89c3.553,3.552 3.964,8.899 0.919,11.945c-3.045,3.045 -8.393,2.633 -11.946,-0.92Zm32.789,0.628l-55.629,-55.629l11.026,-11.026l55.629,55.629c3.552,3.552 3.964,8.9 0.919,11.944c-3.045,3.045 -8.393,2.634 -11.945,-0.918" style="fill:rgb(0,169,161);fill-rule:nonzero;"/>            </g>            <g transform="matrix(4.16667,0,0,4.16667,0,1.0875)">                <path d="M178.317,62.579l-55.259,55.259l-11.026,-11.026l55.259,-55.259c3.552,-3.553 8.9,-3.964 11.945,-0.919c3.045,3.045 2.634,8.392 -0.919,11.945Zm25.455,6.777l-64.562,64.562l-11.026,-11.026l64.562,-64.562c3.552,-3.552 8.9,-3.963 11.945,-0.919c3.044,3.045 2.633,8.393 -0.919,11.945Zm6.56,57.905l-38.89,38.889l-11.026,-11.026l38.889,-38.889c3.552,-3.553 8.901,-3.964 11.945,-0.919c3.045,3.045 2.634,8.393 -0.918,11.945Zm0.557,-32.809l-55.629,55.629l-11.027,-11.027l55.629,-55.629c3.553,-3.552 8.901,-3.964 11.946,-0.919c3.045,3.045 2.633,8.393 -0.919,11.946" style="fill:rgb(182,31,84);fill-rule:nonzero;"/>            </g>        </g>        <g transform="matrix(4.16667,0,0,4.16667,0,12.4458)">            <path d="M356.417,62.374c0,5.936 4.875,11.024 10.809,11.024c5.936,0 10.599,-5.088 10.599,-11.024c0,-5.937 -4.663,-11.024 -10.599,-11.024c-6.146,0 -10.809,5.087 -10.809,11.024Zm-106.786,112.389l5.161,0c1.72,-8.603 3.87,-11.83 5.16,-13.765c3.441,3.871 15.698,17.851 39.136,17.851c27.31,0 44.727,-16.991 44.727,-41.08c0,-27.101 -17.417,-35.273 -45.157,-47.533c-16.557,-7.313 -34.19,-15.056 -34.19,-32.047c0,-9.463 6.451,-21.723 24.514,-21.723c16.772,0 31.825,11.184 37.846,34.628l4.515,0l0,-37.209l-4.515,0c-0.43,2.581 -0.861,6.667 -5.591,12.474c-5.161,-5.591 -14.193,-15.055 -32.901,-15.055c-23.653,0 -37.63,16.776 -37.63,35.273c0,27.1 23.439,37.209 39.351,44.091c1.29,0.431 8.386,3.442 9.676,4.087c14.408,6.238 29.029,14.411 29.029,31.187c0,13.12 -10.536,27.745 -31.609,27.745c-33.33,0 -40.426,-34.843 -42.361,-44.736l-5.161,0l0,45.812Zm128.723,-87.968c-3.44,0 -8.602,1.936 -11.827,2.581c-8.171,1.505 -13.978,2.581 -19.569,3.011l0,4.732c15.053,0 16.344,0 16.344,23.658l0,26.025c0,22.369 0,24.735 -12.687,24.735l-3.657,0l0,4.731l46.449,0l0,-4.731c-15.053,0 -15.053,-0.861 -15.053,-24.735l0,-60.007Zm89.562,12.689c-7.097,-6.452 -18.494,-12.689 -31.18,-12.689c-22.364,0 -41.933,18.282 -41.933,46.887c0,28.607 21.073,46.027 40.857,46.027c17.203,0 28.384,-10.968 33.115,-15.486c0,4.948 0,10.324 1.291,15.486c4.085,-0.86 16.342,-2.366 27.094,-2.795l0,-4.733c-14.193,0 -14.193,-1.29 -14.193,-24.733l0,-115.714c-1.719,0 -2.365,0.215 -7.956,1.506c-3.441,0.86 -13.332,2.796 -22.148,3.011l0,4.731c15.053,0 15.053,0.861 15.053,24.735l0,33.767Zm0,58.932c-11.613,15.056 -24.945,15.056 -27.525,15.056c-10.106,0 -28.169,-6.452 -28.169,-40.65c0,-6.452 0.215,-39.575 27.524,-39.575c13.546,0 23.438,8.388 28.17,12.26l0,52.909Zm117.755,2.152c-1.505,8.817 -6.236,10.108 -8.816,10.108c-6.666,0 -6.666,-6.453 -6.666,-18.927l0,-34.843c0,-10.539 0,-30.111 -32.686,-30.111c-26.448,0 -35.049,13.98 -35.049,19.787c0,3.872 3.225,6.022 6.451,6.022c7.096,0 8.171,-7.313 9.031,-11.829c1.505,-7.528 10.106,-9.249 17.633,-9.249c17.633,0 19.568,10.325 19.568,23.014l0,4.302l-16.343,6.667c-29.674,12.045 -39.566,22.368 -39.566,34.628c0,12.475 11.611,18.281 21.288,18.281c11.827,0 24.084,-7.527 34.621,-15.054c1.074,5.162 2.795,15.054 16.773,15.054c11.826,0 17.202,-8.171 17.632,-17.85l-3.871,0Zm-30.534,-2.796c-3.656,3.011 -16.343,13.119 -26.019,13.119c-8.386,0 -12.472,-7.312 -12.472,-14.84c0,-14.411 15.912,-23.014 27.094,-27.531l11.397,-4.731l0,33.983" style="fill:rgb(35,31,32);fill-rule:nonzero;"/>        </g>    </g></svg>