<?xml version="1.0" encoding="UTF-8" standalone="no"?><!DOCTYPE svg PUBLIC "-//W3C//DTD SVG 1.1//EN" "http://www.w3.org/Graphics/SVG/1.1/DTD/svg11.dtd"><svg width="100%" height="100%" viewBox="0 0 1024 512" version="1.1" xmlns="http://www.w3.org/2000/svg" xmlns:xlink="http://www.w3.org/1999/xlink" xml:space="preserve" style="fill-rule:evenodd;clip-rule:evenodd;stroke-linejoin:round;stroke-miterlimit:2;"><title>Investly</title><desc>We provide an invoice finance platform that lets you easily upload invoices and get them paid with the best rates much faster. </desc>    <g transform="matrix(2.63323,0,0,2.63323,-31.2903,121.411)">        <g transform="matrix(0.0862701,0,0,0.0862701,-77.0623,6.59823)">            <g transform="matrix(6.64077e-17,1.08452,-1.08452,6.64077e-17,2187.12,-65.4116)">                <circle cx="532.412" cy="185.03" r="63.953" style="fill:rgb(38,169,224);"/>            </g>            <g transform="matrix(1.08452,0,0,1.08452,970.401,-127.31)">                <circle cx="532.412" cy="185.03" r="63.953" style="fill:rgb(144,39,142);"/>            </g>            <g transform="matrix(1.08452,0,0,1.08452,970.401,749.973)">                <circle cx="532.412" cy="185.03" r="63.953" style="fill:rgb(87,184,71);"/>            </g>            <g transform="matrix(6.64077e-17,1.08452,-1.08452,6.64077e-17,1309.84,-65.4116)">                <circle cx="532.412" cy="185.03" r="63.953" style="fill:rgb(246,146,30);"/>            </g>            <g transform="matrix(0.766871,0.766871,-0.766871,0.766871,1591.58,-348.352)">                <circle cx="532.412" cy="185.03" r="63.953" style="fill:rgb(27,117,187);"/>            </g>            <g transform="matrix(0.766871,0.766871,-0.766871,0.766871,971.248,271.981)">                <circle cx="532.412" cy="185.03" r="63.953" style="fill:rgb(168,206,56);"/>            </g>            <g transform="matrix(-0.766871,0.766871,-0.766871,-0.766871,2408.16,555.769)">                <circle cx="532.412" cy="185.03" r="63.953" style="fill:rgb(0,166,156);"/>            </g>            <g transform="matrix(-0.766871,0.766871,-0.766871,-0.766871,1787.83,-64.5639)">                <circle cx="532.412" cy="185.03" r="63.953" style="fill:rgb(238,64,54);"/>            </g>            <g transform="matrix(6.12323e-17,1,-1,6.12323e-17,2059.81,2)">                <path d="M442.5,674.959l67.5,-67.5l67.5,67.5l0,99.164c0,37.255 -30.246,67.5 -67.5,67.5c-37.254,0 -67.5,-30.245 -67.5,-67.5l0,-99.164Z" style="fill:rgb(246,146,30);"/>            </g>            <g transform="matrix(6.12323e-17,1,-1,6.12323e-17,2059.81,2)">                <path d="M510,416.541l-67.5,-67.5l0,-101.767c0,-37.254 30.246,-67.5 67.5,-67.5c37.254,0 67.5,30.246 67.5,67.5l0,101.767l-67.5,67.5Z" style="fill:rgb(38,169,224);"/>            </g>            <g transform="matrix(1,0,0,1,1037.81,0)">                <path d="M482.041,579.5l55.918,0l-27.959,27.959l-27.959,-27.959Z" style="fill:rgb(87,184,71);"/>            </g>            <g transform="matrix(1,0,0,1,1037.81,0)">                <path d="M510,607.459l67.5,67.5l0,99.164c0,37.255 -30.246,67.5 -67.5,67.5c-37.254,0 -67.5,-30.245 -67.5,-67.5l0,-99.164l67.5,-67.5Z" style="fill:rgb(87,184,71);"/>            </g>            <g transform="matrix(0.707107,0.707107,-0.707107,0.707107,1549.23,-210.663)">                <path d="M510,607.459l67.5,67.5l0,99.164c0,37.255 -30.246,67.5 -67.5,67.5c-37.254,0 -67.5,-30.245 -67.5,-67.5l0,-99.164l67.5,-67.5Z" style="fill:rgb(168,206,56);"/>            </g>            <g transform="matrix(0.707107,0.707107,-0.707107,0.707107,1549.23,-210.663)">                <path d="M482.041,579.5l55.918,0l-27.959,27.959l-27.959,-27.959Z" style="fill:rgb(168,206,56);"/>            </g>            <g transform="matrix(0.707107,0.707107,-0.707107,0.707107,1549.23,-210.663)">                <path d="M482.041,579.5l27.959,27.959l-67.5,67.5l0,-95.459l39.541,0Z" style="fill:rgb(252,234,79);"/>            </g>            <g transform="matrix(0.707107,0.707107,-0.707107,0.707107,1549.23,-210.663)">                <path d="M577.5,579.5l0,95.459l-67.5,-67.5l27.959,-27.959l39.541,0Z" style="fill:rgb(198,241,111);"/>            </g>            <g transform="matrix(0.707107,0.707107,-0.707107,0.707107,1549.23,-210.663)">                <path d="M537.959,444.5l-55.918,0l27.959,-27.959l27.959,27.959Z" style="fill:rgb(172,220,252);"/>            </g>            <g transform="matrix(0.707107,0.707107,-0.707107,0.707107,1549.23,-210.663)">                <path d="M510,416.541l-67.5,-67.5l0,-101.767c0,-37.254 30.246,-67.5 67.5,-67.5c37.254,0 67.5,30.246 67.5,67.5l0,101.767l-67.5,67.5Z" style="fill:rgb(27,117,187);"/>            </g>            <g transform="matrix(0.707107,0.707107,-0.707107,0.707107,1549.23,-210.663)">                <path d="M537.959,444.5l-27.959,-27.959l67.5,-67.5l0,95.459l-39.541,0Z" style="fill:rgb(61,208,247);"/>            </g>            <g transform="matrix(-0.707107,0.707107,-0.707107,-0.707107,2270.48,513.414)">                <path d="M537.959,444.5l-55.918,0l27.959,-27.959l27.959,27.959Z" style="fill:rgb(114,248,247);"/>            </g>            <g transform="matrix(-0.707107,0.707107,-0.707107,-0.707107,2270.48,513.414)">                <path d="M510,416.541l-67.5,-67.5l0,-101.767c0,-37.254 30.246,-67.5 67.5,-67.5c37.254,0 67.5,30.246 67.5,67.5l0,101.767l-67.5,67.5Z" style="fill:rgb(0,166,156);"/>            </g>            <g transform="matrix(-0.707107,0.707107,-0.707107,-0.707107,2270.48,513.414)">                <path d="M577.5,349.041l0,95.459l-39.541,0l-27.959,-27.959l67.5,-67.5Z" style="fill:rgb(87,230,184);"/>            </g>            <g transform="matrix(-0.707107,0.707107,-0.707107,-0.707107,2270.48,513.414)">                <path d="M442.5,349.041l67.5,67.5l-27.959,27.959l-39.541,0l0,-95.459Z" style="fill:rgb(34,211,227);"/>            </g>            <g transform="matrix(-0.707107,0.707107,-0.707107,-0.707107,2270.48,513.414)">                <path d="M577.5,674.959l0,99.164c0,37.255 -30.246,67.5 -67.5,67.5c-37.254,0 -67.5,-30.245 -67.5,-67.5l0,-99.164l67.5,-67.5l67.5,67.5Z" style="fill:rgb(238,64,54);"/>            </g>            <g transform="matrix(-0.707107,0.707107,-0.707107,-0.707107,2270.48,513.414)">                <path d="M510,607.459l-27.959,-27.959l55.918,0l-27.959,27.959Z" style="fill:rgb(255,186,176);"/>            </g>            <g transform="matrix(-0.707107,0.707107,-0.707107,-0.707107,2270.48,513.414)">                <path d="M510,607.459l27.959,-27.959l39.541,0l0,95.459l-67.5,-67.5Z" style="fill:rgb(254,173,78);"/>            </g>            <g transform="matrix(1,0,0,1,1037.81,0)">                <path d="M510,416.541l27.959,27.959l-55.918,0l27.959,-27.959Z" style="fill:rgb(144,39,142);"/>            </g>            <g transform="matrix(1,0,0,1,1037.81,0)">                <path d="M510,416.541l-67.5,-67.5l0,-101.767c0,-37.254 30.246,-67.5 67.5,-67.5c37.254,0 67.5,30.246 67.5,67.5l0,101.767l-67.5,67.5Z" style="fill:rgb(144,39,142);"/>            </g>            <g transform="matrix(1,0,0,1,1037.81,0)">                <path d="M577.5,444.5l-39.541,0l-27.959,-27.959l67.5,-67.5l0,95.459Z" style="fill:rgb(156,138,225);"/>            </g>            <g transform="matrix(1,0,0,1,1037.81,0)">                <path d="M510,416.541l-27.959,27.959l-39.541,0l0,-95.459l67.5,67.5Z" style="fill:rgb(248,93,166);"/>            </g>            <g transform="matrix(-0.707107,0.707107,-0.707107,-0.707107,2270.48,513.414)">                <path d="M577.5,444.5l0,39.541l-39.541,-39.541l39.541,0Z" style="fill:rgb(198,250,200);"/>            </g>            <g transform="matrix(-0.707107,0.707107,-0.707107,-0.707107,2270.48,513.414)">                <path d="M442.5,444.5l39.541,0l-39.541,39.541l0,-39.541Z" style="fill:rgb(42,228,245);"/>            </g>            <g transform="matrix(-0.707107,0.707107,-0.707107,-0.707107,2270.48,513.414)">                <path d="M537.959,579.5l39.541,-39.541l0,39.541l-39.541,0Z" style="fill:rgb(255,245,124);"/>            </g>            <g transform="matrix(-0.707107,0.707107,-0.707107,-0.707107,2270.48,513.414)">                <path d="M442.5,539.959l39.541,39.541l-39.541,0l0,-39.541Z" style="fill:rgb(248,166,231);"/>            </g>            <g transform="matrix(1.17186,0,0,1.17186,923.9,295.171)">                <circle cx="532.412" cy="185.03" r="63.953" style="fill:white;"/>            </g>        </g>        <g transform="matrix(2.33404,0,0,1.6361,-196.167,8.48006)">            <g transform="matrix(33.6469,0,0,48,131.334,41.9172)">                <path d="M0.086,-0.028c0,0.027 0.02,0.041 0.047,0.041c0.028,0 0.049,-0.014 0.049,-0.041l0,-0.709c0,-0.028 -0.021,-0.041 -0.049,-0.041c-0.027,0 -0.047,0.013 -0.047,0.041l0,0.709Z" style="fill:rgb(87,84,67);fill-rule:nonzero;"/>            </g>            <g transform="matrix(33.6469,0,0,48,140.418,41.9172)">                <path d="M0.531,-0.366c0,-0.123 -0.064,-0.195 -0.183,-0.195c-0.095,0 -0.155,0.045 -0.19,0.116c0.001,-0.019 0.004,-0.029 0.004,-0.042l0,-0.027c0,-0.026 -0.018,-0.039 -0.044,-0.039c-0.028,0 -0.047,0.013 -0.047,0.039l0,0.487c0,0.027 0.018,0.04 0.046,0.04c0.026,0 0.045,-0.013 0.045,-0.04l0,-0.28c0,-0.039 0.01,-0.068 0.035,-0.102c0.034,-0.047 0.079,-0.071 0.133,-0.071c0.075,0 0.109,0.048 0.109,0.133l0,0.32c0,0.027 0.019,0.04 0.046,0.04c0.026,0 0.046,-0.013 0.046,-0.04l0,-0.339Z" style="fill:rgb(87,84,67);fill-rule:nonzero;"/>            </g>            <g transform="matrix(33.6469,0,0,48,160.606,41.9172)">                <path d="M0.317,-0.215c-0.013,0.034 -0.032,0.105 -0.041,0.142c-0.008,-0.036 -0.028,-0.103 -0.04,-0.137l-0.116,-0.315c-0.007,-0.02 -0.022,-0.028 -0.04,-0.028c-0.006,0 -0.013,0.001 -0.02,0.003c-0.019,0.005 -0.032,0.02 -0.032,0.039c0,0.005 0.001,0.01 0.003,0.016l0.184,0.467c0.012,0.031 0.033,0.041 0.06,0.041c0.026,0 0.048,-0.009 0.06,-0.04l0.184,-0.468c0.003,-0.006 0.004,-0.012 0.004,-0.017c0,-0.019 -0.013,-0.032 -0.033,-0.038c-0.007,-0.002 -0.013,-0.003 -0.019,-0.003c-0.018,0 -0.032,0.009 -0.04,0.029l-0.114,0.309Z" style="fill:rgb(87,84,67);fill-rule:nonzero;"/>            </g>            <g transform="matrix(33.6469,0,0,48,179.112,41.9172)">                <path d="M0.486,-0.253c0.031,0 0.05,-0.019 0.05,-0.055l0,-0.008c-0.01,-0.131 -0.092,-0.245 -0.238,-0.245c-0.163,0 -0.253,0.121 -0.253,0.294c0,0.173 0.095,0.289 0.259,0.289c0.13,0 0.188,-0.066 0.22,-0.132c0.004,-0.006 0.005,-0.012 0.005,-0.018c0,-0.018 -0.014,-0.03 -0.031,-0.035c-0.007,-0.002 -0.014,-0.004 -0.021,-0.004c-0.014,0 -0.027,0.007 -0.036,0.025c-0.024,0.053 -0.064,0.089 -0.136,0.089c-0.108,0 -0.169,-0.077 -0.171,-0.2l0.352,0Zm-0.349,-0.073c0.013,-0.098 0.065,-0.162 0.161,-0.162c0.092,0 0.135,0.073 0.147,0.144l0,0.005c0,0.009 -0.004,0.013 -0.015,0.013l-0.293,0Z" style="fill:rgb(87,84,67);fill-rule:nonzero;"/>            </g>            <g transform="matrix(33.6469,0,0,48,198.426,41.9172)">                <path d="M0.286,-0.236c0.091,0.018 0.117,0.045 0.117,0.094c0,0.051 -0.052,0.086 -0.132,0.086c-0.079,0 -0.12,-0.029 -0.138,-0.087c-0.006,-0.019 -0.024,-0.027 -0.043,-0.027c-0.004,0 -0.009,0.001 -0.014,0.002c-0.019,0.004 -0.036,0.018 -0.036,0.038c0,0.004 0.001,0.008 0.002,0.013c0.026,0.089 0.101,0.14 0.229,0.14c0.14,0 0.222,-0.071 0.222,-0.167c0,-0.105 -0.052,-0.143 -0.182,-0.17l-0.062,-0.013c-0.084,-0.018 -0.103,-0.038 -0.103,-0.084c0,-0.042 0.038,-0.075 0.119,-0.075c0.057,0 0.101,0.023 0.114,0.068c0.005,0.019 0.023,0.027 0.041,0.027c0.005,0 0.011,-0.001 0.016,-0.002c0.018,-0.005 0.035,-0.018 0.035,-0.037c0,-0.004 -0.001,-0.008 -0.002,-0.012c-0.025,-0.073 -0.096,-0.12 -0.207,-0.12c-0.129,0 -0.207,0.062 -0.207,0.153c0,0.095 0.051,0.138 0.174,0.162l0.057,0.011Z" style="fill:rgb(87,84,67);fill-rule:nonzero;"/>            </g>            <g transform="matrix(33.6469,0,0,48,216.427,41.9172)">                <path d="M0.13,-0.547l-0.077,0c-0.025,0 -0.036,0.017 -0.036,0.04c0,0.023 0.011,0.039 0.035,0.039l0.078,0l0,0.343c0,0.105 0.06,0.146 0.142,0.146c0.043,0 0.07,-0.008 0.099,-0.022c0.015,-0.008 0.021,-0.022 0.021,-0.036c0,-0.007 -0.001,-0.015 -0.004,-0.022c-0.006,-0.015 -0.018,-0.026 -0.033,-0.026c-0.006,0 -0.012,0.002 -0.018,0.005c-0.017,0.01 -0.034,0.017 -0.059,0.017c-0.037,0 -0.058,-0.021 -0.058,-0.07l0,-0.335l0.128,0c0.024,0 0.037,-0.016 0.037,-0.039c0,-0.024 -0.012,-0.04 -0.037,-0.04l-0.128,0l0,-0.121c0,-0.026 -0.019,-0.04 -0.045,-0.04c-0.028,0 -0.045,0.014 -0.045,0.04l0,0.121Z" style="fill:rgb(87,84,67);fill-rule:nonzero;"/>            </g>            <g transform="matrix(33.6469,0,0,48,229.986,41.9172)">                <path d="M0.07,-0.027c0,0.027 0.018,0.04 0.046,0.04c0.027,0 0.045,-0.013 0.045,-0.04l0,-0.711c0,-0.027 -0.018,-0.04 -0.045,-0.04c-0.028,0 -0.046,0.013 -0.046,0.04l0,0.711Z" style="fill:rgb(87,84,67);fill-rule:nonzero;"/>            </g>            <g transform="matrix(33.6469,0,0,48,237.826,41.9172)">                <path d="M0.307,-0.194c-0.011,0.029 -0.025,0.067 -0.033,0.098c-0.009,-0.031 -0.018,-0.068 -0.03,-0.1l-0.126,-0.332c-0.007,-0.018 -0.022,-0.025 -0.038,-0.025c-0.007,0 -0.014,0.001 -0.021,0.003c-0.018,0.006 -0.033,0.021 -0.033,0.039c0,0.005 0.001,0.011 0.003,0.016l0.202,0.49l-0.028,0.07c-0.018,0.046 -0.039,0.084 -0.082,0.084c-0.018,0 -0.036,-0.007 -0.05,-0.013c-0.007,-0.003 -0.013,-0.004 -0.019,-0.004c-0.017,0 -0.03,0.011 -0.037,0.028c-0.003,0.008 -0.005,0.015 -0.005,0.023c0,0.015 0.008,0.029 0.028,0.036c0.023,0.009 0.047,0.013 0.072,0.013c0.098,0 0.139,-0.057 0.174,-0.143l0.236,-0.585c0.002,-0.006 0.003,-0.012 0.003,-0.017c0,-0.018 -0.014,-0.032 -0.033,-0.037c-0.006,-0.001 -0.012,-0.002 -0.018,-0.002c-0.017,0 -0.032,0.007 -0.039,0.026l-0.126,0.332Z" style="fill:rgb(87,84,67);fill-rule:nonzero;"/>            </g>        </g>    </g></svg>