<?xml version="1.0" encoding="UTF-8" standalone="no"?><!DOCTYPE svg PUBLIC "-//W3C//DTD SVG 1.1//EN" "http://www.w3.org/Graphics/SVG/1.1/DTD/svg11.dtd"><svg width="100%" height="100%" viewBox="0 0 1024 512" version="1.1" xmlns="http://www.w3.org/2000/svg" xmlns:xlink="http://www.w3.org/1999/xlink" xml:space="preserve" style="fill-rule:evenodd;clip-rule:evenodd;stroke-linejoin:round;stroke-miterlimit:2;"><title>Look &amp; Fin</title><desc>Founded in 2012, Look &amp; Fin has 30 employees. It analyzes and selects companies in search of financing which it presents via its website to private and professional investors. It is also responsible for monitoring each funded file and supports investors throughout their loans.</desc>    <g transform="matrix(3.8461,0,0,3.8461,2,181.422)">        <path d="M107.69,23.672c0,4.671 0,8.516 -0.243,10.559c-0.194,1.411 -0.438,2.482 -1.411,2.676c-0.437,0.097 -1.021,0.195 -1.46,0.195c-0.292,0 -0.389,0.146 -0.389,0.292c0,0.292 0.244,0.39 0.779,0.39c1.459,0 4.281,-0.147 4.671,-0.147c0.389,0 3.212,0.147 5.596,0.147c0.536,0 0.778,-0.147 0.778,-0.39c0,-0.146 -0.097,-0.292 -0.389,-0.292c-0.437,0 -1.217,-0.098 -1.898,-0.195c-1.459,-0.194 -1.751,-1.265 -1.897,-2.676c-0.244,-2.043 -0.244,-5.888 -0.244,-10.559l0,-4.769l0.244,0c2.335,2.871 12.651,14.014 14.841,15.814c2.091,1.655 3.309,2.726 5.888,2.969c1.07,0.098 1.995,0.098 3.357,0.098l2.482,0c0.827,0 1.07,-0.147 1.07,-0.39c0,-0.194 -0.292,-0.292 -0.633,-0.292c-0.341,0 -1.751,-0.098 -3.017,-0.633c-2.336,-0.972 -3.163,-1.752 -7.25,-5.547c-1.995,-1.849 -12.116,-12.31 -13.38,-13.721c1.021,-1.217 9.488,-9.49 10.704,-10.657c2.189,-2.092 3.26,-3.309 5.256,-4.184c0.972,-0.439 1.995,-0.682 2.724,-0.682c0.39,0 0.486,-0.097 0.486,-0.34c0,-0.244 -0.194,-0.341 -0.729,-0.341c-1.217,0 -4.428,0.146 -4.673,0.146c-1.166,0 -2.675,-0.146 -3.648,-0.146c-0.34,0 -0.584,0.097 -0.584,0.341c0,0.194 0.195,0.291 0.438,0.389c0.39,0.147 0.633,0.438 0.633,1.022c0,0.828 -1.266,2.092 -2.628,3.503c-1.752,1.898 -10.56,10.851 -11.386,11.776l-0.195,0l0,-2.92c0,-7.59 0,-8.953 0.098,-10.51c0.097,-1.703 0.486,-2.531 1.8,-2.773c0.584,-0.098 0.875,-0.147 1.216,-0.147c0.195,0 0.39,-0.097 0.39,-0.292c0,-0.292 -0.244,-0.389 -0.779,-0.389c-1.459,0 -4.282,0.146 -4.719,0.146c-0.293,0 -3.164,-0.146 -5.354,-0.146c-0.535,0 -0.778,0.097 -0.778,0.389c0,0.195 0.194,0.292 0.39,0.292c0.437,0 1.264,0.049 1.654,0.147c1.605,0.34 1.995,1.119 2.092,2.773c0.097,1.557 0.097,2.92 0.097,10.51l0,8.564Z" style="fill:rgb(16,20,22);fill-rule:nonzero;"/>        <path d="M163.65,32.285c-1.655,1.703 -4.671,3.6 -9.197,3.6c-5.449,0 -9.731,-4.379 -9.731,-10.461c0,-3.892 1.848,-6.52 4.379,-8.176c1.363,1.997 4.476,5.452 5.742,6.813c1.264,1.363 6.082,5.985 8.807,8.224Zm16.982,5.157c0,-0.291 -0.243,-0.34 -0.681,-0.34c-1.752,0 -4.233,-0.973 -5.791,-1.898c-1.362,-0.778 -3.503,-2.092 -6.715,-4.817c2.141,-2.628 4.818,-7.542 4.818,-11.483c0,-0.488 -0.147,-0.876 -0.876,-0.974c-2.819,-0.012 -4.806,-0.012 -5.974,-0.012c-0.39,0 -0.586,0.027 -0.586,0.27c0,0.244 0.203,0.451 0.495,0.451c0.731,0 1.983,0.134 2.615,0.766c0.73,0.73 0.725,1.299 0.725,2.029c0,2.969 -1.119,6.229 -2.481,8.077c-1.558,-1.313 -7.543,-6.909 -9.198,-8.71c-5.06,-5.498 -7.687,-8.661 -7.687,-12.457c0,-4.574 3.26,-6.374 6.18,-6.374c2.14,0 3.795,1.023 4.865,2.142c1.217,1.264 1.509,2.871 1.509,4.135c0,0.73 0.299,1.016 0.543,1.016c0.194,0 0.541,-0.202 0.541,-0.946c0,-1.014 0,-3.832 0.035,-5.568c0.011,-0.584 -0.049,-0.875 -0.633,-1.217c-1.314,-0.729 -3.406,-1.216 -5.888,-1.216c-6.52,0 -10.462,5.109 -10.462,8.953c0,2.19 0.584,4.185 2.385,6.715c-3.796,2.239 -7.445,6.034 -7.445,11.727c0,4.233 3.309,10.753 11.824,10.753c7.202,0 11.046,-4.135 12.165,-5.255c5.353,4.233 6.521,4.575 10.121,4.575l4.769,0c0.438,0 0.827,-0.147 0.827,-0.342Z" style="fill:rgb(16,20,22);fill-rule:nonzero;"/>        <path d="M219.878,15.108c0,-7.59 0,-8.953 0.097,-10.51c0.097,-1.703 0.486,-2.531 1.8,-2.773c0.584,-0.098 0.876,-0.147 1.216,-0.147c0.196,0 0.39,-0.097 0.39,-0.292c0,-0.292 -0.243,-0.389 -0.778,-0.389c-1.46,0 -4.526,0.146 -4.769,0.146c-0.243,0 -3.309,-0.146 -4.915,-0.146c-0.535,0 -0.778,0.097 -0.778,0.389c0,0.195 0.194,0.292 0.389,0.292c0.34,0 0.973,0.049 1.508,0.196c1.07,0.242 1.558,1.07 1.654,2.724c0.098,1.557 0.098,2.92 0.098,10.51l0,8.564c0,4.671 0,8.516 -0.243,10.559c-0.194,1.411 -0.439,2.482 -1.411,2.676c-0.438,0.097 -1.022,0.195 -1.46,0.195c-0.292,0 -0.389,0.146 -0.389,0.292c0,0.292 0.243,0.39 0.778,0.39c1.46,0 4.526,-0.147 4.769,-0.147c0.243,0 3.309,0.147 5.985,0.147c0.535,0 0.779,-0.147 0.779,-0.39c0,-0.146 -0.098,-0.292 -0.39,-0.292c-0.437,0 -1.508,-0.098 -2.189,-0.195c-1.46,-0.194 -1.752,-1.265 -1.898,-2.676c-0.243,-2.043 -0.243,-5.888 -0.243,-10.559l0,-8.564Z" style="fill:rgb(16,20,22);fill-rule:nonzero;"/>        <path d="M232.857,7.858c1.528,1.752 6.918,7.883 12.453,13.965c5.056,5.547 11.926,12.7 12.452,13.187c2.528,2.578 3.1,3.113 3.481,3.113c0.335,0 0.431,-0.243 0.431,-3.455l0.095,-28.513c0,-2.92 0.19,-3.99 1.765,-4.33c0.572,-0.147 0.906,-0.147 1.145,-0.147c0.334,0 0.525,-0.146 0.525,-0.34c0,-0.293 -0.334,-0.341 -0.859,-0.341c-1.956,0 -3.531,0.146 -4.055,0.146c-0.525,0 -2.814,-0.146 -4.962,-0.146c-0.572,0 -0.954,0.048 -0.954,0.341c0,0.194 0.048,0.34 0.382,0.34c0.382,0 1.478,0.049 2.338,0.243c1.477,0.39 1.812,1.46 1.86,4.623l0.525,24.719c-1.527,-1.606 -6.727,-7.542 -11.45,-12.7c-7.347,-8.029 -14.456,-15.863 -15.172,-16.689c-0.476,-0.488 -1.288,-1.558 -1.669,-1.558c-0.381,0 -0.525,0.535 -0.525,2.433l-0.048,27.881c0,4.429 -0.238,5.839 -1.43,6.18c-0.716,0.243 -1.576,0.292 -1.956,0.292c-0.24,0 -0.382,0.098 -0.382,0.292c0,0.341 0.286,0.39 0.762,0.39c2.148,0 4.152,-0.147 4.58,-0.147c0.43,0 2.338,0.147 5.058,0.147c0.572,0 0.858,-0.098 0.858,-0.39c0,-0.194 -0.142,-0.292 -0.381,-0.292c-0.429,0 -1.479,-0.049 -2.385,-0.292c-1.288,-0.39 -1.766,-1.654 -1.861,-5.645l-0.621,-23.307Z" style="fill:rgb(16,20,22);fill-rule:nonzero;"/>        <g transform="matrix(0.142343,0,0,0.142388,29.5487,-17.0604)">            <g transform="matrix(7.02286,9.86076e-32,9.86076e-32,7.02286,-207.516,119.823)">                <path d="M102.311,18.563c0,-11.338 -8.176,-18.247 -19.123,-18.247c-13.431,0 -19.172,11.143 -19.172,19.026c0,2.844 0.589,5.856 1.836,8.629c2.4,-5.359 2.805,-10.977 2.805,-10.977l0.015,0.028c0.362,-10.01 6.299,-15.052 14.174,-15.052c7.689,0 14.793,6.277 14.793,17.956c0,14.158 -9.051,16.69 -13.429,16.69c-7.266,0 -13.177,-5.033 -14.987,-13.215c-0.437,1.897 -1.163,4.213 -2.353,6.532c2.886,4.839 8.068,8.531 16.025,8.531c11.727,0 19.416,-9.002 19.416,-19.901Z" style="fill:url(#_Linear1);"/>            </g>            <g transform="matrix(7.02286,9.86076e-32,9.86076e-32,7.02286,-207.516,119.823)">                <path d="M80.872,0.497l0,-0.045c-15.618,1.48 -17.034,17.087 -17.227,19.986c-0.207,1.381 -0.418,2.766 -0.65,3.795c-0.059,0.368 -0.129,0.719 -0.202,1.066c-0.539,2.093 -1.232,3.819 -2.013,5.256c-3.008,4.922 -7.981,6.061 -10.896,6.061c-8.758,0 -15.571,-7.299 -15.571,-18.637c0,-10.656 6.083,-16.008 14.209,-16.008c6.475,0 12.536,4.452 14.287,12.834c0.004,0.021 0.008,0.043 0.012,0.064c0.08,-0.285 0.159,-0.568 0.246,-0.871c0.93,-3.255 1.804,-4.696 2.31,-5.312l-0.014,-0.054c-3.257,-5.305 -9.275,-8.315 -16.5,-8.315c-13.431,0 -19.172,11.142 -19.172,19.025c0,8.758 5.547,19.123 18.88,19.123c3.013,0 5.754,-0.603 8.172,-1.671c3.703,-1.53 6.24,-4.122 7.974,-6.829c0.149,-0.228 0.29,-0.461 0.428,-0.696c0.195,-0.331 0.379,-0.663 0.553,-0.995c0.06,-0.119 0.127,-0.235 0.186,-0.358c2.157,-3.775 2.479,-8.105 2.479,-8.105c1.014,-16.43 12.509,-19.314 12.509,-19.314Z" style="fill:url(#_Linear2);"/>            </g>        </g>        <path d="M9.391,35.034c-0.876,-0.877 -1.071,-3.991 -1.071,-11.144l0,-8.661c0,-7.591 0,-8.953 0.097,-10.511c0.098,-1.702 0.487,-2.53 1.898,-2.773c0.584,-0.097 1.266,-0.146 1.606,-0.146c0.195,0 0.389,-0.097 0.389,-0.293c0,-0.291 -0.243,-0.388 -0.778,-0.388c-1.46,0 -5.012,0.146 -5.256,0.146c-0.243,0 -3.308,-0.146 -5.498,-0.146c-0.535,0 -0.778,0.097 -0.778,0.388c0,0.196 0.194,0.293 0.389,0.293c0.438,0 1.265,0.049 1.654,0.146c1.606,0.341 1.995,1.119 2.093,2.773c0.097,1.558 0.097,2.92 0.097,10.511l0,8.564c0,4.67 0,8.515 -0.243,10.559c-0.195,1.41 -0.438,2.481 -1.411,2.676c-0.438,0.097 -1.022,0.195 -1.46,0.195c-0.292,0 -0.39,0.146 -0.39,0.291c0,0.293 0.244,0.39 0.779,0.39c0.73,0 1.801,-0.048 2.774,-0.097c0.973,0 1.8,-0.049 1.994,-0.049c1.411,0 2.92,0.049 4.964,0.146c1.124,0.026 2.396,0.068 3.863,0.089c1.448,0 9.26,0.056 10.237,0.056c2.578,0 2.725,-0.193 3.066,-1.313c0.389,-1.411 0.729,-4.331 0.729,-4.866c0,-0.536 -0.049,-0.73 -0.291,-0.73c-0.293,0 -0.389,0.243 -0.438,0.633c-0.146,0.925 -0.633,2.141 -1.265,2.919c-1.346,1.681 -9.601,1.398 -11.94,1.465c-3.766,-0.004 -5.032,-0.346 -5.81,-1.123Z" style="fill:rgb(16,20,22);fill-rule:nonzero;"/>        <path d="M208.834,3.667l0,-2.524c0,-0.243 -0.099,-0.451 -0.293,-0.451c-0.194,0 -1.149,0.338 -1.961,0.338c-0.608,0.023 -1.573,0.015 -2.497,0.064c-0.39,0.018 -4.223,0.034 -5.988,0.047l0.016,0c-3.31,0.024 -7.733,0.033 -8.368,0.002l-1.995,-0.098c-1.07,-0.048 -2.384,-0.048 -3.503,-0.048c-0.535,0 -0.779,0.097 -0.779,0.389c0,0.195 0.195,0.292 0.389,0.292c0.438,0 1.265,0.049 1.655,0.147c1.605,0.34 1.995,1.119 2.093,2.773c0.096,1.557 0.096,2.92 0.096,10.51l0,8.564c0,4.671 0,8.516 -0.243,10.559c-0.194,1.411 -0.437,2.482 -1.411,2.676c-0.438,0.097 -1.022,0.195 -1.46,0.195c-0.292,0 -0.389,0.146 -0.389,0.292c0,0.292 0.243,0.39 0.779,0.39c1.46,0 4.525,-0.147 4.768,-0.147c0.243,0 3.309,0.147 5.986,0.147c0.535,0 0.778,-0.147 0.778,-0.39c0,-0.146 -0.098,-0.292 -0.39,-0.292c-0.437,0 -1.508,-0.098 -2.189,-0.195c-1.46,-0.194 -1.752,-1.265 -1.898,-2.676c-0.243,-2.043 -0.243,-5.888 -0.243,-10.559l0,-3.883c0,-0.341 0.09,-0.542 0.333,-0.542l5.598,0c0.847,-0.001 3.808,-0.002 4.134,-0.002c1.508,0.194 2.223,0.386 2.809,1.355c0.338,0.631 0.293,0.563 0.474,1.014c0.09,0.271 0.184,0.518 0.428,0.518c0.451,0 0.338,-0.518 0.338,-1.532l0,-4.373c0,-0.242 -0.01,-0.34 -0.205,-0.34c-0.195,0 -0.341,0.242 -0.535,0.486c-0.438,0.633 -1.112,0.704 -2.28,0.801c-0.682,0.049 -1.36,0 -2.187,0l-3.02,0l-0.025,0l-5.529,0c-0.292,0 -0.333,0.027 -0.333,-0.265l0,-13.43c0,-0.39 0.146,-0.535 0.438,-0.535l5.84,0.07l8.56,0.075c1.127,-0.075 0.971,0.727 1.162,1.509c0.102,0.547 0.067,0.427 0.18,0.857c0.136,0.518 0.253,0.668 0.496,0.653c0.383,-0.023 0.322,-0.846 0.371,-1.088c0,-0.654 0.012,-0.805 0,-1.353Z" style="fill:rgb(16,20,22);fill-rule:nonzero;"/>    </g>    <defs>        <linearGradient id="_Linear1" x1="0" y1="0" x2="1" y2="5.28882e-06" gradientUnits="userSpaceOnUse" gradientTransform="matrix(-38.295,0.319499,-0.319499,-38.295,102.311,19.3905)"><stop offset="0" style="stop-color:rgb(243,111,44);stop-opacity:1"/><stop offset="1" style="stop-color:rgb(232,71,36);stop-opacity:1"/></linearGradient>        <linearGradient id="_Linear2" x1="0" y1="0" x2="1" y2="1.7569e-05" gradientUnits="userSpaceOnUse" gradientTransform="matrix(-51.3234,1.42342,-1.42342,-51.3234,80.872,17.9666)"><stop offset="0" style="stop-color:rgb(243,111,44);stop-opacity:1"/><stop offset="1" style="stop-color:rgb(232,71,36);stop-opacity:1"/></linearGradient>    </defs></svg>