<?xml version="1.0" encoding="UTF-8" standalone="no"?><!DOCTYPE svg PUBLIC "-//W3C//DTD SVG 1.1//EN" "http://www.w3.org/Graphics/SVG/1.1/DTD/svg11.dtd"><svg width="100%" height="100%" viewBox="0 0 1024 512" version="1.1" xmlns="http://www.w3.org/2000/svg" xmlns:xlink="http://www.w3.org/1999/xlink" xml:space="preserve" style="fill-rule:evenodd;clip-rule:evenodd;stroke-linejoin:round;stroke-miterlimit:2;"><title>WKO</title><desc>The Austrian Economic Chambers represent more than 517,000 member companies. As the voice of Austrian business, we are committed to forward-looking policies which benefit the economy e.g. tax relief, cutting red tape, subsidies.</desc>    <g transform="matrix(1.7068,0,0,1.7068,-195.989,-283.256)">        <g transform="matrix(4.16667,0,0,4.16667,-583.933,99.2042)">            <g transform="matrix(1,0,0,1,173.162,74.2457)">                <path d="M0,-5.064l-0.666,2.693l-0.824,-2.693l-0.888,0l-0.823,2.693l-0.666,-2.693l-1.311,0l1.394,5.064l1.038,0l0.813,-2.478l0.812,2.478l1.044,0l1.387,-5.064l-1.31,0Z" style="fill:rgb(99,100,102);fill-rule:nonzero;"/>            </g>            <g transform="matrix(1,0,0,1,0,-395.155)">                <rect x="175.392" y="464.337" width="1.253" height="5.064" style="fill:rgb(99,100,102);"/>            </g>            <g transform="matrix(1,0,0,1,182.113,69.1813)">                <path d="M0,5.1l-1.103,-2.127c0.401,-0.201 0.83,-0.637 0.83,-1.333c0,-0.837 -0.608,-1.64 -1.74,-1.64l-2.019,0l0,5.1l1.253,0l0,-1.898l0.423,0l0.902,1.898l1.454,0Zm-1.526,-3.46c0,0.265 -0.2,0.516 -0.544,0.516l-0.709,0l0,-1.031l0.709,0c0.344,0 0.544,0.251 0.544,0.515" style="fill:rgb(99,100,102);"/>            </g>            <g transform="matrix(1,0,0,1,186.613,73.1642)">                <path d="M0,-2.865l0,-1.117l-3.76,0l0,1.117l1.254,0l0,3.982l1.253,0l0,-3.982l1.253,0Z" style="fill:rgb(99,100,102);fill-rule:nonzero;"/>            </g>            <g transform="matrix(1,0,0,1,191.172,70.7439)">                <path d="M0,1.976c0,-0.472 -0.107,-0.852 -0.38,-1.117c-0.214,-0.215 -0.544,-0.358 -1.002,-0.423l-0.616,-0.085c-0.179,-0.022 -0.286,-0.087 -0.351,-0.151c-0.079,-0.079 -0.101,-0.172 -0.101,-0.236c0,-0.222 0.18,-0.474 0.617,-0.474c0.222,0 0.644,-0.02 0.966,0.301l0.788,-0.788c-0.437,-0.436 -0.988,-0.608 -1.718,-0.608c-1.161,0 -1.863,0.681 -1.863,1.611c0,0.437 0.115,0.781 0.351,1.024c0.229,0.237 0.573,0.387 1.025,0.452l0.615,0.086c0.165,0.022 0.273,0.071 0.337,0.136c0.072,0.078 0.1,0.179 0.1,0.301c0,0.293 -0.236,0.458 -0.731,0.458c-0.408,0 -0.873,-0.093 -1.138,-0.358l-0.802,0.802c0.516,0.53 1.153,0.674 1.934,0.674c1.074,0 1.969,-0.567 1.969,-1.605" style="fill:rgb(99,100,102);fill-rule:nonzero;"/>            </g>            <g transform="matrix(1,0,0,1,196.101,70.8008)">                <path d="M0,1.862l-1.275,0c-0.079,0.286 -0.236,0.544 -0.652,0.544c-0.229,0 -0.401,-0.093 -0.493,-0.215c-0.116,-0.15 -0.194,-0.329 -0.194,-1.261c0,-0.93 0.078,-1.109 0.194,-1.26c0.092,-0.122 0.264,-0.215 0.493,-0.215c0.416,0 0.573,0.258 0.652,0.545l1.275,0c-0.186,-1.125 -0.967,-1.662 -1.934,-1.662c-0.594,0 -1.046,0.201 -1.418,0.573c-0.537,0.537 -0.515,1.253 -0.515,2.019c0,0.767 -0.022,1.483 0.515,2.02c0.372,0.373 0.824,0.574 1.418,0.574c0.967,0 1.748,-0.538 1.934,-1.662" style="fill:rgb(99,100,102);fill-rule:nonzero;"/>            </g>            <g transform="matrix(1,0,0,1,201.003,69.1813)">                <path d="M0,5.1l0,-5.1l-1.254,0l0,1.963l-1.331,0l0,-1.963l-1.254,0l0,5.1l1.254,0l0,-2.02l1.331,0l0,2.02l1.254,0Z" style="fill:rgb(99,100,102);fill-rule:nonzero;"/>            </g>            <g transform="matrix(1,0,0,1,206.599,69.1813)">                <path d="M0,5.1l-1.854,-5.1l-0.968,0l-1.854,5.1l1.31,0l0.251,-0.759l1.568,0l0.237,0.759l1.31,0Zm-1.876,-1.805l-0.888,0l0.458,-1.361l0.43,1.361Z" style="fill:rgb(99,100,102);"/>            </g>            <g transform="matrix(1,0,0,1,210.986,73.1642)">                <path d="M0,-2.865l0,-1.117l-3.466,0l0,5.099l1.253,0l0,-1.97l1.891,0l0,-1.117l-1.891,0l0,-0.895l2.213,0Z" style="fill:rgb(99,100,102);fill-rule:nonzero;"/>            </g>            <g transform="matrix(1,0,0,1,215.651,73.1642)">                <path d="M0,-2.865l0,-1.117l-3.76,0l0,1.117l1.254,0l0,3.982l1.253,0l0,-3.982l1.253,0Z" style="fill:rgb(99,100,102);fill-rule:nonzero;"/>            </g>            <g transform="matrix(1,0,0,1,220.209,70.7439)">                <path d="M0,1.976c0,-0.472 -0.107,-0.852 -0.379,-1.117c-0.215,-0.215 -0.544,-0.358 -1.003,-0.423l-0.616,-0.085c-0.179,-0.022 -0.286,-0.087 -0.351,-0.151c-0.079,-0.079 -0.1,-0.172 -0.1,-0.236c0,-0.222 0.179,-0.474 0.616,-0.474c0.222,0 0.645,-0.02 0.967,0.301l0.787,-0.788c-0.437,-0.436 -0.988,-0.608 -1.718,-0.608c-1.161,0 -1.862,0.681 -1.862,1.611c0,0.437 0.114,0.781 0.35,1.024c0.23,0.237 0.574,0.387 1.025,0.452l0.615,0.086c0.165,0.022 0.272,0.071 0.337,0.136c0.072,0.078 0.1,0.179 0.1,0.301c0,0.293 -0.236,0.458 -0.73,0.458c-0.408,0 -0.874,-0.093 -1.139,-0.358l-0.802,0.802c0.516,0.53 1.153,0.674 1.934,0.674c1.074,0 1.969,-0.567 1.969,-1.605" style="fill:rgb(99,100,102);fill-rule:nonzero;"/>            </g>            <g transform="matrix(1,0,0,1,225.741,69.1813)">                <path d="M0,5.1l-1.797,-3.037l1.74,-2.063l-1.533,0l-1.475,1.805l0,-1.805l-1.239,0l0,5.1l1.239,0l0,-1.597l0.43,-0.495l1.174,2.092l1.461,0Z" style="fill:rgb(99,100,102);fill-rule:nonzero;"/>            </g>            <g transform="matrix(1,0,0,1,230.822,69.1813)">                <path d="M0,5.1l-1.855,-5.1l-0.967,0l-1.855,5.1l1.311,0l0.25,-0.759l1.569,0l0.236,0.759l1.311,0Zm-1.876,-1.805l-0.888,0l0.458,-1.361l0.43,1.361Z" style="fill:rgb(99,100,102);"/>            </g>            <g transform="matrix(1,0,0,1,236.497,69.1813)">                <path d="M0,5.1l0,-5.1l-1.231,0l-1.146,2.249l-1.147,-2.249l-1.231,0l0,5.1l1.253,0l0,-2.442l0.723,1.26l0.803,0l0.723,-1.26l0,2.442l1.253,0Z" style="fill:rgb(99,100,102);fill-rule:nonzero;"/>            </g>            <g transform="matrix(1,0,0,1,242.687,69.1813)">                <path d="M0,5.1l0,-5.1l-1.232,0l-1.146,2.249l-1.145,-2.249l-1.232,0l0,5.1l1.253,0l0,-2.442l0.723,1.26l0.803,0l0.723,-1.26l0,2.442l1.253,0Z" style="fill:rgb(99,100,102);fill-rule:nonzero;"/>            </g>            <g transform="matrix(1,0,0,1,247.588,69.1813)">                <path d="M0,5.1l0,-1.118l-2.213,0l0,-0.895l1.891,0l0,-1.117l-1.891,0l0,-0.852l2.213,0l0,-1.118l-3.467,0l0,5.1l3.467,0Z" style="fill:rgb(99,100,102);fill-rule:nonzero;"/>            </g>            <g transform="matrix(1,0,0,1,252.913,69.1813)">                <path d="M0,5.1l-1.103,-2.127c0.401,-0.201 0.831,-0.637 0.831,-1.333c0,-0.837 -0.61,-1.64 -1.741,-1.64l-2.019,0l0,5.1l1.253,0l0,-1.898l0.422,0l0.903,1.898l1.454,0Zm-1.526,-3.46c0,0.265 -0.2,0.516 -0.544,0.516l-0.709,0l0,-1.031l0.709,0c0.344,0 0.544,0.251 0.544,0.515" style="fill:rgb(99,100,102);"/>            </g>            <g transform="matrix(1,0,0,1,257.936,69.1813)">                <path d="M0,5.1l0,-5.1l-1.253,0l0,2.564l-1.633,-2.564l-1.096,0l0,5.1l1.254,0l0,-2.564l1.633,2.564l1.095,0Z" style="fill:rgb(99,100,102);fill-rule:nonzero;"/>            </g>            <g transform="matrix(1,0,0,1,0,-396.61)">                <path d="M264.392,464.259l-0.96,0l0,1.038l0.96,0l0,-1.038Zm-1.619,0l-0.96,0l0,1.038l0.96,0l0,-1.038Zm2.271,4.082c0,-0.766 0.021,-1.482 -0.515,-2.019c-0.374,-0.372 -0.803,-0.573 -1.426,-0.573c-0.623,0 -1.052,0.201 -1.425,0.573c-0.537,0.537 -0.516,1.253 -0.516,2.019c0,0.767 -0.021,1.483 0.516,2.02c0.373,0.372 0.802,0.573 1.425,0.573c0.623,0 1.052,-0.201 1.426,-0.573c0.536,-0.537 0.515,-1.253 0.515,-2.02m-1.254,0c0,0.932 -0.071,1.096 -0.186,1.246c-0.093,0.122 -0.271,0.23 -0.501,0.23c-0.229,0 -0.408,-0.108 -0.502,-0.23c-0.114,-0.15 -0.185,-0.314 -0.185,-1.246c0,-0.93 0.071,-1.102 0.185,-1.253c0.094,-0.122 0.273,-0.222 0.502,-0.222c0.23,0 0.408,0.1 0.501,0.222c0.115,0.151 0.186,0.323 0.186,1.253" style="fill:rgb(99,100,102);"/>            </g>            <g transform="matrix(1,0,0,1,269.738,70.7439)">                <path d="M0,1.976c0,-0.472 -0.108,-0.852 -0.38,-1.117c-0.214,-0.215 -0.545,-0.358 -1.003,-0.423l-0.616,-0.085c-0.179,-0.022 -0.286,-0.087 -0.351,-0.151c-0.078,-0.079 -0.1,-0.172 -0.1,-0.236c0,-0.222 0.179,-0.474 0.616,-0.474c0.222,0 0.645,-0.02 0.967,0.301l0.788,-0.788c-0.437,-0.436 -0.989,-0.608 -1.719,-0.608c-1.161,0 -1.863,0.681 -1.863,1.611c0,0.437 0.116,0.781 0.351,1.024c0.23,0.237 0.573,0.387 1.025,0.452l0.616,0.086c0.165,0.022 0.272,0.071 0.336,0.136c0.072,0.078 0.1,0.179 0.1,0.301c0,0.293 -0.236,0.458 -0.73,0.458c-0.408,0 -0.874,-0.093 -1.138,-0.358l-0.803,0.802c0.515,0.53 1.153,0.674 1.934,0.674c1.074,0 1.97,-0.567 1.97,-1.605" style="fill:rgb(99,100,102);fill-rule:nonzero;"/>            </g>            <g transform="matrix(1,0,0,1,274.424,73.1642)">                <path d="M0,-2.865l0,-1.117l-3.76,0l0,1.117l1.254,0l0,3.982l1.253,0l0,-3.982l1.253,0Z" style="fill:rgb(99,100,102);fill-rule:nonzero;"/>            </g>            <g transform="matrix(1,0,0,1,279.025,69.1813)">                <path d="M0,5.1l0,-1.118l-2.213,0l0,-0.895l1.891,0l0,-1.117l-1.891,0l0,-0.852l2.213,0l0,-1.118l-3.466,0l0,5.1l3.466,0Z" style="fill:rgb(99,100,102);fill-rule:nonzero;"/>            </g>            <g transform="matrix(1,0,0,1,284.35,69.1813)">                <path d="M0,5.1l-1.103,-2.127c0.401,-0.201 0.831,-0.637 0.831,-1.333c0,-0.837 -0.61,-1.64 -1.741,-1.64l-2.019,0l0,5.1l1.253,0l0,-1.898l0.422,0l0.903,1.898l1.454,0Zm-1.526,-3.46c0,0.265 -0.2,0.516 -0.544,0.516l-0.709,0l0,-1.031l0.709,0c0.344,0 0.544,0.251 0.544,0.515" style="fill:rgb(99,100,102);"/>            </g>            <g transform="matrix(1,0,0,1,289.424,69.1813)">                <path d="M0,5.1l-1.104,-2.127c0.402,-0.201 0.831,-0.637 0.831,-1.333c0,-0.837 -0.608,-1.64 -1.74,-1.64l-2.019,0l0,5.1l1.253,0l0,-1.898l0.422,0l0.903,1.898l1.454,0Zm-1.525,-3.46c0,0.265 -0.201,0.516 -0.544,0.516l-0.71,0l0,-1.031l0.71,0c0.343,0 0.544,0.251 0.544,0.515" style="fill:rgb(99,100,102);"/>            </g>            <g transform="matrix(1,0,0,1,293.932,69.1813)">                <path d="M0,5.1l0,-1.118l-2.213,0l0,-0.895l1.89,0l0,-1.117l-1.89,0l0,-0.852l2.213,0l0,-1.118l-3.467,0l0,5.1l3.467,0Z" style="fill:rgb(99,100,102);fill-rule:nonzero;"/>            </g>            <g transform="matrix(-1,0,0,1,591.701,-395.119)">                <rect x="295.224" y="464.301" width="1.253" height="5.1" style="fill:rgb(99,100,102);"/>            </g>            <g transform="matrix(1,0,0,1,301.615,70.8008)">                <path d="M0,1.862l-1.274,0c-0.08,0.286 -0.237,0.544 -0.653,0.544c-0.229,0 -0.401,-0.093 -0.494,-0.215c-0.115,-0.15 -0.193,-0.329 -0.193,-1.261c0,-0.93 0.078,-1.109 0.193,-1.26c0.093,-0.122 0.265,-0.215 0.494,-0.215c0.416,0 0.573,0.258 0.653,0.545l1.274,0c-0.186,-1.125 -0.967,-1.662 -1.934,-1.662c-0.595,0 -1.045,0.201 -1.418,0.573c-0.537,0.537 -0.515,1.253 -0.515,2.019c0,0.767 -0.022,1.483 0.515,2.02c0.373,0.373 0.823,0.574 1.418,0.574c0.967,0 1.748,-0.538 1.934,-1.662" style="fill:rgb(99,100,102);fill-rule:nonzero;"/>            </g>            <g transform="matrix(1,0,0,1,306.516,69.1813)">                <path d="M0,5.1l0,-5.1l-1.253,0l0,1.963l-1.333,0l0,-1.963l-1.252,0l0,5.1l1.252,0l0,-2.02l1.333,0l0,2.02l1.253,0Z" style="fill:rgb(99,100,102);fill-rule:nonzero;"/>            </g>            <g transform="matrix(1,0,0,1,311.375,70.7439)">                <path d="M0,1.976c0,-0.472 -0.107,-0.852 -0.379,-1.117c-0.215,-0.215 -0.544,-0.358 -1.003,-0.423l-0.616,-0.085c-0.179,-0.022 -0.286,-0.087 -0.35,-0.151c-0.079,-0.079 -0.101,-0.172 -0.101,-0.236c0,-0.222 0.179,-0.474 0.616,-0.474c0.222,0 0.644,-0.02 0.966,0.301l0.788,-0.788c-0.437,-0.436 -0.987,-0.608 -1.718,-0.608c-1.16,0 -1.862,0.681 -1.862,1.611c0,0.437 0.114,0.781 0.35,1.024c0.231,0.237 0.574,0.387 1.025,0.452l0.616,0.086c0.165,0.022 0.273,0.071 0.337,0.136c0.071,0.078 0.099,0.179 0.099,0.301c0,0.293 -0.236,0.458 -0.73,0.458c-0.408,0 -0.874,-0.093 -1.139,-0.358l-0.802,0.802c0.516,0.53 1.154,0.674 1.934,0.674c1.074,0 1.969,-0.567 1.969,-1.605" style="fill:rgb(99,100,102);fill-rule:nonzero;"/>            </g>        </g>        <g transform="matrix(4.16667,0,0,4.16667,-583.933,-1755.36)">            <rect x="276.92" y="486.162" width="34.063" height="11.355" style="fill:white;"/>        </g>        <g transform="matrix(4.16667,0,0,4.16667,-583.933,-1755.37)">            <rect x="239.517" y="474.809" width="34.064" height="34.063" style="fill:rgb(237,28,36);"/>        </g>        <g transform="matrix(4.16667,0,0,4.16667,-583.933,-1754.52)">            <rect x="203.953" y="474.707" width="34.063" height="34.062" style="fill:rgb(237,28,36);"/>        </g>        <g transform="matrix(4.16667,0,0,4.16667,380.748,244.552)">            <path d="M0,23.164l-8.166,-13.794l7.906,-9.37l-6.962,0l-6.703,8.198l0,-8.198l-5.628,0l0,23.164l5.628,0l0,-7.255l1.952,-2.245l5.337,9.5l6.636,0Z" style="fill:white;fill-rule:nonzero;"/>        </g>        <g transform="matrix(4.16667,0,0,4.16667,-583.933,-1755.37)">            <rect x="168.051" y="474.809" width="34.064" height="34.063" style="fill:rgb(237,28,36);"/>        </g>        <g transform="matrix(4.16667,0,0,4.16667,248.639,341.055)">            <path d="M0,-23.164l-5.954,0l-3.026,12.233l-3.741,-12.233l-4.034,0l-3.742,12.233l-3.025,-12.233l-5.954,0l6.377,23.164l4.619,0l3.742,-11.419l3.741,11.419l4.652,0l6.345,-23.164Z" style="fill:white;fill-rule:nonzero;"/>        </g>        <g transform="matrix(4.16667,0,0,4.16667,-583.933,-1849.98)">            <rect x="276.92" y="497.517" width="34.455" height="11.354" style="fill:rgb(237,28,36);"/>        </g>        <g transform="matrix(4.16667,0,0,4.16667,-583.933,-1660.75)">            <rect x="276.92" y="474.809" width="34.49" height="11.354" style="fill:rgb(237,28,36);"/>        </g>        <g transform="matrix(4.16667,0,0,4.16667,484.956,343.644)">            <path d="M0,-24.504c7.005,0 12.285,5.279 12.285,12.251c0,6.973 -5.28,12.253 -12.285,12.253c-7.007,0 -12.254,-5.28 -12.254,-12.253c0,-6.972 5.247,-12.251 12.254,-12.251m0,18.507c3.029,0 5.343,-2.704 5.343,-6.256c0,-3.551 -2.314,-6.256 -5.343,-6.256c-2.999,0 -5.311,2.705 -5.311,6.224c0,3.584 2.28,6.288 5.311,6.288" style="fill:white;fill-rule:nonzero;"/>        </g>        <g transform="matrix(4.16667,0,0,4.16667,484.956,266.525)">            <path d="M0,12.511c3.029,0 5.343,-2.704 5.343,-6.255c0,-3.551 -2.314,-6.256 -5.343,-6.256c-2.999,0 -5.311,2.705 -5.311,6.223c0,3.584 2.28,6.288 5.311,6.288" style="fill:rgb(237,28,36);fill-rule:nonzero;"/>        </g>    </g></svg>