<?xml version="1.0" encoding="UTF-8" standalone="no"?><!DOCTYPE svg PUBLIC "-//W3C//DTD SVG 1.1//EN" "http://www.w3.org/Graphics/SVG/1.1/DTD/svg11.dtd"><svg width="100%" height="100%" viewBox="0 0 1024 512" version="1.1" xmlns="http://www.w3.org/2000/svg" xmlns:xlink="http://www.w3.org/1999/xlink" xml:space="preserve" style="fill-rule:evenodd;clip-rule:evenodd;stroke-linejoin:round;stroke-miterlimit:2;"><title>auxmoney</title><desc></desc>    <g transform="matrix(5.6044,0,0,5.6044,2,171.934)">        <path d="M57.338,11.571l-3.073,4.115l1.921,2.634c1.262,1.591 2.414,2.249 4.718,2.249l3.402,0c0.275,0 0.494,-0.219 0.494,-0.548l0,-3.073c0,-0.274 -0.219,-0.549 -0.494,-0.549l-2.469,-0.11c-0.878,-0.054 -1.207,-0.384 -1.81,-1.042l-2.689,-3.676Zm-7.901,-2.305l3.072,-4.06l-1.755,-2.305c-1.262,-1.646 -2.415,-2.304 -4.719,-2.304l-3.951,0c-0.274,0 -0.493,0.219 -0.493,0.549l0,3.072c0,0.275 0.219,0.549 0.493,0.549l3.018,0.11c0.878,0.055 1.207,0.384 1.811,1.042l2.524,3.347Zm15.418,-8.12c0,-0.33 -0.219,-0.549 -0.494,-0.549l-3.402,0c-2.304,0 -3.402,0.713 -4.718,2.25l-9.328,12.345c-0.604,0.658 -0.933,0.988 -1.811,1.043l-1.207,0.164c-0.274,0 -0.494,0.22 -0.494,0.549l0,3.073c0,0.274 0.22,0.548 0.494,0.548l1.701,0c2.305,0 3.457,-0.658 4.719,-2.249l9.327,-12.346c0.604,-0.658 0.988,-0.988 1.811,-1.042l2.908,-0.11c0.275,0 0.494,-0.22 0.494,-0.549l0,-3.127Zm117.145,4.993l0,-4.664c0,-0.768 -0.165,-1.043 -0.878,-1.043l-5.981,0.33c-0.548,0.054 -0.768,0.219 -0.768,0.768l0,2.085c0,0.494 0.11,0.823 0.659,0.823c1.81,0 2.03,0.384 2.03,1.536l0,4.06c0,4.39 -1.482,6.914 -4.499,6.914c-2.14,0 -2.963,-1.262 -2.963,-3.018l0,-12.455c0,-0.768 -0.165,-1.043 -0.823,-1.043l-6.036,0.33c-0.549,0.054 -0.768,0.219 -0.768,0.768l0,2.085c0,0.494 0.11,0.823 0.658,0.823c1.811,0 2.03,0.384 2.03,1.536l0,8.45c0,5.103 2.47,6.694 6.091,6.694c2.634,0 4.938,-0.659 6.31,-2.195l0,1.372c0,4.28 -2.25,5.816 -5.432,5.816c-0.988,0 -1.921,-0.165 -2.744,-0.439c0.22,-0.384 0.384,-0.878 0.384,-1.372c0,-1.591 -1.262,-2.579 -2.633,-2.579c-1.482,0 -2.689,1.043 -2.689,2.47c0,4.718 3.951,5.761 7.846,5.761c6.091,0 10.206,-3.018 10.206,-10.151l0,-13.662Zm-29.41,3.511c2.36,0 3.786,-0.932 3.786,-3.072c0,-2.085 -1.262,-2.908 -3.566,-2.908c-2.469,0 -3.731,1.975 -4.006,5.486c1.317,0.275 2.689,0.494 3.786,0.494m1.482,7.298c1.92,0 3.841,-0.384 4.938,-0.823c0.658,-0.275 1.097,-0.549 1.427,-0.549c0.274,0 0.384,0.165 0.384,0.549l0,2.414c0,0.439 -0.165,0.713 -0.769,1.043c-1.426,0.713 -4.005,1.262 -6.419,1.262c-7.133,0 -10.096,-4.28 -10.096,-10.261c0,-6.2 3.127,-10.535 9.218,-10.535c5.158,0 8.066,2.414 8.066,6.639c0,3.786 -2.36,6.365 -7.847,6.365c-1.426,0 -2.853,-0.164 -4.17,-0.494c0.439,3.073 1.866,4.39 5.268,4.39m-30.562,-11.248l0,9.712c-0.055,1.316 -0.549,1.481 -1.756,1.481l-0.494,0c-0.658,0 -0.768,0.165 -0.768,0.658l0,2.25c0,0.658 0.165,0.768 0.768,0.768l9.383,0c0.548,0 0.768,-0.164 0.768,-0.768l0,-2.25c0,-0.439 -0.165,-0.658 -0.768,-0.658l-0.494,0c-1.317,0 -1.756,-0.219 -1.756,-1.866l0,-2.743c0,-5.048 1.482,-8.011 4.445,-8.011c1.975,0 2.743,1.262 2.743,3.073l0,9.108c0,3.512 2.14,4.335 4.005,4.335c1.701,0 2.36,-0.165 2.963,-0.439c0.384,-0.165 0.494,-0.549 0.494,-0.878l0,-2.25c0,-0.329 -0.11,-0.439 -0.384,-0.384c-0.384,0 -0.494,0.165 -1.207,0.165c-0.713,0 -1.043,-0.549 -1.043,-1.756l0,-8.615c0,-4.993 -2.524,-6.584 -5.816,-6.584c-3.017,0 -5.596,1.152 -6.584,3.786l0,-2.359c0,-0.768 -0.165,-1.043 -0.768,-1.043l-5.761,0.33c-0.604,0.054 -0.769,0.219 -0.769,0.768l0,2.085c0,0.494 0.11,0.823 0.659,0.823c1.701,0 2.03,0.384 2.14,1.262m-13.443,-2.085c-3.018,0 -4.39,2.579 -4.39,6.913c0,4.28 1.427,6.914 4.39,6.914c3.073,0 4.444,-2.579 4.444,-6.914c0.055,-4.28 -1.371,-6.913 -4.444,-6.913m0,17.448c-6.859,0 -9.602,-4.883 -9.602,-10.535c0,-5.651 2.743,-10.48 9.602,-10.48c6.859,0 9.602,4.829 9.602,10.48c0.055,5.652 -2.743,10.535 -9.602,10.535m-31.495,-16.79c1.756,0 2.414,1.262 2.414,3.073l0,8.175c-0.054,1.153 -0.384,1.372 -1.152,1.372l-0.384,0c-0.603,0 -0.713,0.165 -0.713,0.658l0,2.25c0,0.658 0.164,0.768 0.713,0.768l8.505,0c0.603,0 0.768,-0.164 0.768,-0.768l0,-2.25c0,-0.439 -0.11,-0.658 -0.768,-0.658l-0.384,0c-1.262,0 -1.701,-0.219 -1.701,-1.866l0,-3.401c0.055,-4.664 1.481,-7.353 4.17,-7.353c1.756,0 2.414,1.262 2.414,3.073l0,9.108c0,3.512 2.14,4.335 4.06,4.335c1.701,0 2.36,-0.165 2.908,-0.439c0.439,-0.165 0.494,-0.549 0.494,-0.878l0,-2.25c0,-0.329 -0.11,-0.439 -0.384,-0.384c-0.384,0 -0.494,0.165 -1.152,0.165c-0.713,0 -1.098,-0.549 -1.098,-1.756l0,-8.615c0,-4.993 -2.359,-6.584 -5.541,-6.584c-2.963,0 -5.377,1.098 -6.31,3.676c-0.768,-2.688 -2.689,-3.676 -5.158,-3.676c-2.634,0 -4.883,0.878 -5.981,3.018l0,-1.591c0,-0.768 -0.164,-1.043 -0.877,-1.043l-5.981,0.33c-0.549,0.054 -0.768,0.219 -0.768,0.768l0,2.085c0,0.494 0.164,0.823 0.658,0.823c1.866,0 2.03,0.384 2.03,1.536l0,8.999c0,1.591 -0.439,1.865 -1.701,1.865l-0.384,0c-0.603,0 -0.768,0.165 -0.768,0.659l0,2.304c0,0.658 0.22,0.768 0.768,0.768l8.505,0c0.549,0 0.713,-0.164 0.713,-0.768l0,-2.25c0,-0.439 -0.11,-0.658 -0.713,-0.658l-0.384,0c-0.878,0 -1.152,-0.219 -1.152,-1.866l0,-3.072c0.164,-4.829 1.536,-7.682 4.334,-7.682m-38.737,12.73c0.658,0 0.823,-0.165 1.207,-0.165c0.274,-0.055 0.384,0.055 0.384,0.384l0,2.25c0,0.384 -0.11,0.768 -0.549,0.878c-0.548,0.274 -1.207,0.439 -2.908,0.439c-1.481,0 -3.072,-0.494 -3.731,-2.25c-1.317,1.866 -3.731,2.579 -6.584,2.579c-3.567,0 -6.091,-1.536 -6.091,-6.694l0,-8.395c0,-1.152 -0.219,-1.536 -2.03,-1.536c-0.548,0 -0.658,-0.33 -0.658,-0.823l0,-2.14c0,-0.549 0.164,-0.768 0.768,-0.768l6.036,-0.33c0.658,0 0.823,0.33 0.823,1.043l0,12.455c0,1.756 0.768,3.018 2.963,3.018c3.017,0 4.499,-2.524 4.499,-6.914l0,-4.06c-0.055,-1.152 -0.275,-1.536 -2.14,-1.536c-0.549,0 -0.658,-0.329 -0.658,-0.823l0,-2.085c0,-0.549 0.164,-0.768 0.768,-0.768l5.98,-0.33c0.659,0 0.878,0.33 0.878,1.043l0,14.046c0,0.988 0.384,1.482 1.043,1.482m-27.819,-4.829c0,3.183 -1.81,4.993 -4.499,4.993c-1.92,0 -2.634,-0.878 -2.634,-2.194c0,-2.47 2.36,-3.183 5.871,-3.183l1.317,0l0,0.384l-0.055,0Zm7.462,7.298l0,-2.25c0,-0.329 -0.164,-0.439 -0.384,-0.384c-0.384,0 -0.493,0.165 -1.152,0.165c-0.658,0 -0.988,-0.549 -1.042,-1.591l0,-7.847c0,-6.09 -2.908,-7.517 -8.121,-7.517c-5.103,0 -7.846,1.427 -7.846,5.048c0,1.756 1.152,2.853 2.524,2.853c1.536,0 2.853,-1.207 2.853,-3.017c0,-0.22 -0.055,-0.439 -0.055,-0.659c0.768,-0.219 1.591,-0.329 2.414,-0.329c2.415,0 3.292,1.042 3.292,3.457l0,1.042l-1.316,0c-6.255,0 -10.645,1.207 -10.645,6.694c0,3.786 2.14,5.652 6.2,5.652c2.744,0 4.829,-0.878 6.091,-2.25c0.658,1.756 2.249,2.25 3.731,2.25c1.701,0 2.359,-0.165 2.908,-0.439c0.439,-0.11 0.548,-0.494 0.548,-0.878" style="fill:rgb(81,115,141);fill-rule:nonzero;"/>    </g></svg>