<?xml version="1.0" encoding="UTF-8" standalone="no"?><!DOCTYPE svg PUBLIC "-//W3C//DTD SVG 1.1//EN" "http://www.w3.org/Graphics/SVG/1.1/DTD/svg11.dtd"><svg width="100%" height="100%" viewBox="0 0 1024 512" version="1.1" xmlns="http://www.w3.org/2000/svg" xmlns:xlink="http://www.w3.org/1999/xlink" xml:space="preserve" style="fill-rule:evenodd;clip-rule:evenodd;stroke-linejoin:round;stroke-miterlimit:2;"><title>Earthworm</title><desc>We only invest in projects that will make a positive environmental or social impact – if it’s good for the environment, it’s good for us all.</desc>    <g transform="matrix(1.52293,0,0,1.52293,-6.64261,96.6818)">        <g>            <path d="M225.921,81.14c2.012,7.484 3.101,15.346 3.102,23.473c-0.004,24.935 -10.092,47.458 -26.43,63.805c-16.345,16.337 -38.869,26.424 -63.802,26.427c-24.668,-0.003 -46.965,-9.886 -63.267,-25.915c-1.21,0.04 -2.427,0.071 -3.663,0.071c-3.826,0 -7.676,-0.211 -11.533,-0.54c18.55,22.769 46.802,37.32 78.463,37.322c55.875,-0.003 101.165,-45.293 101.168,-101.17c-0.001,-12.941 -2.456,-25.3 -6.885,-36.673c-2.681,4.201 -4.998,8.616 -7.153,13.2" style="fill:rgb(51,178,181);fill-rule:nonzero;"/>            <path d="M56.35,141.293c-4.994,-11.207 -7.79,-23.605 -7.792,-36.681c0.003,-24.933 10.091,-47.457 26.428,-63.804c16.347,-16.336 38.87,-26.424 63.805,-26.427c24.933,0.003 47.457,10.091 63.802,26.427c3.526,3.528 6.739,7.357 9.644,11.421c2.257,-3.133 4.648,-6.031 7.133,-8.771c-18.477,-24.308 -47.688,-40.013 -80.579,-40.014c-55.878,0.002 -101.167,45.292 -101.17,101.168c0,12.225 2.169,23.944 6.142,34.792c4.227,0.751 8.431,1.396 12.587,1.889" style="fill:rgb(51,178,181);fill-rule:nonzero;"/>            <path d="M127.958,121.03c-0.381,-0.529 -0.789,-1.001 -1.155,-1.559c-6.07,-9.23 -8.954,-20.356 -9.908,-31.264c-0.428,-4.894 -0.793,-10.398 0.218,-15.263c2.319,-11.155 16.309,-12.936 21.011,-3.092c7.249,15.173 -1.383,38.041 -10.166,51.178m147.727,-95.762l-5.469,-9.47l-7.633,4.407c-0.258,0.108 -0.515,0.233 -0.776,0.391c-21.521,13.009 -38.914,25.379 -50.617,48.166c-8.354,16.268 -13.406,34.744 -23.811,49.857c-13.041,18.941 -35.53,23.537 -51.801,10.529c7.234,-10.072 12.328,-21.748 14.296,-33.93c2.138,-13.223 1.97,-31.968 -9.287,-41.495c-11.759,-9.948 -27.366,-1.638 -32.427,11.112c-6.19,15.593 -1.889,37.64 4.922,52.311c2.22,4.78 4.927,8.998 7.982,12.674c-27.137,29.617 -66.062,20.086 -102.562,12.389l0.028,-0.142l-10.728,-2.126l-2.127,10.728l4.655,0.923c0.264,0.094 0.537,0.179 0.835,0.241c39.929,8.23 81.498,20.614 114.572,-11.224c1.07,-1.032 2.075,-2.132 3.091,-3.221c20.191,15.844 49.274,13.146 66.812,-11.491c13.491,-18.95 18.436,-42.695 30.994,-62.286c9.631,-15.026 24.628,-23.877 39.569,-32.891l0.01,0.017l9.472,-5.469Z" style="fill:rgb(51,178,181);fill-rule:nonzero;"/>        </g>        <g>            <path d="M330.443,79.238l-23.974,0l0,14.367l23.276,0l0,8.487l-23.276,0l0,19.986l23.974,0l0,8.48l-32.999,0l0,-59.801l32.999,0l0,8.481Z" style="fill:rgb(24,24,24);fill-rule:nonzero;"/>            <g>                <path d="M347.255,111.578c0,3.617 0.971,6.559 2.906,8.831c1.989,2.298 4.494,3.449 7.517,3.449c3.225,0 5.833,-1.112 7.822,-3.333c1.987,-2.298 2.984,-5.214 2.984,-8.754c0,-3.535 -0.997,-6.455 -2.984,-8.752c-1.989,-2.247 -4.57,-3.368 -7.744,-3.368c-2.998,0 -5.502,1.134 -7.517,3.407c-1.987,2.298 -2.984,5.139 -2.984,8.52m20.685,-18.744l8.753,0l0,37.725l-8.753,0l0,-3.95c-3.592,3.355 -7.451,5.033 -11.582,5.033c-5.217,0 -9.529,-1.884 -12.936,-5.653c-3.384,-3.847 -5.075,-8.651 -5.075,-14.411c0,-5.653 1.691,-10.366 5.075,-14.135c3.381,-3.768 7.615,-5.657 12.704,-5.657c4.39,0 8.327,1.811 11.814,5.424l0,-4.376Z" style="fill:rgb(24,24,24);fill-rule:nonzero;"/>                <path d="M388.022,92.834l8.713,0l0,3.366c1.601,-1.676 3.019,-2.824 4.26,-3.444c1.264,-0.646 2.761,-0.97 4.494,-0.97c2.299,0 4.696,0.75 7.201,2.247l-3.988,7.98c-1.652,-1.189 -3.265,-1.785 -4.842,-1.785c-4.752,0 -7.125,3.592 -7.125,10.773l0,19.558l-8.713,0l0,-37.725Z" style="fill:rgb(24,24,24);fill-rule:nonzero;"/>            </g>            <path d="M429.477,100.966l0,29.593l-8.714,0l0,-29.593l-3.718,0l0,-8.132l3.718,0l0,-27.808l8.714,0l0,27.808l6.779,0l0,8.132l-6.779,0Z" style="fill:rgb(24,24,24);fill-rule:nonzero;"/>            <path d="M443.137,65.137l8.715,0l0,30.831c3.096,-2.785 6.52,-4.182 10.262,-4.182c4.26,0 7.667,1.384 10.225,4.143c2.168,2.402 3.254,6.24 3.254,11.505l0,23.125l-8.714,0l0,-22.31c0,-3.024 -0.539,-5.209 -1.608,-6.567c-1.074,-1.355 -2.793,-2.031 -5.17,-2.031c-3.049,0 -5.192,0.939 -6.429,2.824c-1.217,1.915 -1.82,5.191 -1.82,9.84l0,18.244l-8.715,0l0,-65.422l0,0Z" style="fill:rgb(24,24,24);fill-rule:nonzero;"/>            <path d="M490.113,92.834l9.878,21.534l10.651,-24.984l10.728,24.984l9.762,-21.534l9.757,0l-19.751,40.549l-10.496,-24.284l-10.613,24.284l-19.713,-40.549l9.797,0Z" style="fill:rgb(24,24,24);fill-rule:nonzero;"/>            <g>                <path d="M552.348,111.578c0,3.774 1.008,6.752 3.021,8.947c2.067,2.221 4.793,3.333 8.172,3.333c3.412,0 6.132,-1.099 8.175,-3.294c2.036,-2.195 3.059,-5.122 3.059,-8.793c0,-3.664 -1.023,-6.598 -3.059,-8.791c-2.069,-2.221 -4.789,-3.33 -8.175,-3.33c-3.329,0 -6.029,1.109 -8.092,3.33c-2.067,2.221 -3.101,5.088 -3.101,8.598m-8.91,-0.156c0,-5.445 1.95,-10.08 5.853,-13.902c3.898,-3.82 8.65,-5.734 14.25,-5.734c5.633,0 10.405,1.922 14.333,5.774c3.872,3.847 5.809,8.572 5.809,14.172c0,5.659 -1.95,10.397 -5.848,14.218c-3.928,3.795 -8.739,5.693 -14.449,5.693c-5.653,0 -10.392,-1.937 -14.212,-5.809c-3.825,-3.821 -5.736,-8.624 -5.736,-14.412" style="fill:rgb(24,24,24);fill-rule:nonzero;"/>                <path d="M592.975,92.834l8.713,0l0,3.366c1.601,-1.676 3.02,-2.824 4.262,-3.444c1.263,-0.646 2.76,-0.97 4.494,-0.97c2.297,0 4.695,0.75 7.199,2.247l-3.988,7.98c-1.651,-1.189 -3.265,-1.785 -4.842,-1.785c-4.752,0 -7.125,3.592 -7.125,10.773l0,19.558l-8.713,0l0,-37.725Z" style="fill:rgb(24,24,24);fill-rule:nonzero;"/>                <path d="M623.693,92.834l8.715,0l0,3.484c1.677,-1.755 3.11,-2.942 4.299,-3.562c1.264,-0.646 2.85,-0.97 4.761,-0.97c4.264,0 7.632,1.859 10.111,5.579c2.738,-3.72 6.442,-5.579 11.117,-5.579c8.495,0 12.742,5.152 12.742,15.454l0,23.319l-8.753,0l0,-20.957c0,-3.613 -0.441,-6.17 -1.315,-7.665c-0.906,-1.527 -2.39,-2.286 -4.455,-2.286c-2.401,0 -4.152,0.901 -5.248,2.711c-1.1,1.807 -1.647,4.71 -1.647,8.715l0,19.482l-8.754,0l0,-20.84c0,-6.713 -1.935,-10.068 -5.811,-10.068c-2.454,0 -4.239,0.914 -5.365,2.75c-1.121,1.833 -1.682,4.722 -1.682,8.676l0,19.482l-8.715,0l0,-37.725Z" style="fill:rgb(24,24,24);fill-rule:nonzero;"/>            </g>        </g>    </g></svg>