<?xml version="1.0" encoding="UTF-8" standalone="no"?><!DOCTYPE svg PUBLIC "-//W3C//DTD SVG 1.1//EN" "http://www.w3.org/Graphics/SVG/1.1/DTD/svg11.dtd"><svg width="100%" height="100%" viewBox="0 0 1024 512" version="1.1" xmlns="http://www.w3.org/2000/svg" xmlns:xlink="http://www.w3.org/1999/xlink" xml:space="preserve" style="fill-rule:evenodd;clip-rule:evenodd;stroke-linejoin:round;stroke-miterlimit:2;"><title>AVI</title><desc>There are six Regional State Administrative Agencies in Finland. The agencies work in close collaboration with local authorities.The agencies' mission is to promote regional equality by carrying out executive, steering and supervisory tasks laid down in the law. To this end, they aim to strengthen implementation of basic rights and legal protection, access to basic public services, environmental protection, environmental sustainability, and public safety and also to provide a safe and healthy living and working environment in the regions.</desc>    <g transform="matrix(0.837131,0,0,0.837131,-292.443,36.2605)">        <g transform="matrix(4.16667,0,0,4.16667,680.229,295.46)">            <path d="M0,11.358l1.632,0l1.923,-4.964l7.267,0l1.945,4.964l1.632,0l-6.26,-15.964l-1.7,0l-6.439,15.964Zm7.222,-14.444l3.085,8.184l-6.282,0l3.197,-8.184Zm9.278,8.675c0,-2.392 1.096,-4.918 3.779,-4.918c2.996,0 4.047,2.526 4.047,4.918c0,2.393 -1.051,4.919 -4.047,4.919c-2.683,0 -3.779,-2.526 -3.779,-4.919m9.234,-10.195l-1.408,0l0,6.618l-0.045,0c-0.603,-1.654 -2.28,-2.526 -4.002,-2.526c-3.51,0 -5.187,2.839 -5.187,6.103c0,3.265 1.677,6.104 5.187,6.104c1.677,0 3.51,-1.028 4.114,-2.526l0.045,0l0,2.191l1.296,0l0,-15.964Zm2.683,15.964l1.409,0l0,-6.439c0.022,-2.415 1.006,-4.248 3.443,-4.248c1.789,0 2.437,1.296 2.415,2.861l0,7.826l1.408,0l0,-6.529c0,-2.146 0.694,-4.158 3.131,-4.158c2.012,0 2.727,1.028 2.727,2.929l0,7.758l1.409,0l0,-7.826c0,-2.727 -1.297,-4.046 -3.823,-4.046c-1.521,0 -2.974,0.737 -3.667,2.258c-0.425,-1.521 -1.789,-2.258 -3.309,-2.258c-1.834,0 -3.041,0.894 -3.779,2.28l-0.067,0l0,-1.945l-1.297,0l0,11.537Zm18.647,0l1.409,0l0,-11.537l-1.409,0l0,11.537Zm0,-13.706l1.409,0l0,-2.258l-1.409,0l0,2.258Zm4.092,13.706l1.408,0l0,-6.73c0.045,-2.258 1.387,-3.957 3.622,-3.957c2.281,0 2.929,1.498 2.929,3.488l0,7.199l1.409,0l0,-7.423c0,-2.75 -0.984,-4.449 -4.226,-4.449c-1.632,0 -3.175,0.939 -3.689,2.325l-0.045,0l0,-1.99l-1.408,0l0,11.537Zm12.051,0l1.409,0l0,-11.537l-1.409,0l0,11.537Zm0,-13.706l1.409,0l0,-2.258l-1.409,0l0,2.258Zm12.431,5.545c-0.089,-2.504 -1.923,-3.711 -4.226,-3.711c-2.034,0 -4.337,0.894 -4.337,3.242c0,1.967 1.386,2.593 3.219,3.085l1.811,0.403c1.275,0.313 2.527,0.76 2.527,2.101c0,1.61 -1.833,2.191 -3.153,2.191c-1.878,0 -3.286,-0.983 -3.398,-2.884l-1.409,0c0.224,2.817 2.057,4.069 4.74,4.069c2.147,0 4.629,-0.961 4.629,-3.465c0,-2.012 -1.677,-2.952 -3.287,-3.197l-1.878,-0.425c-0.962,-0.246 -2.393,-0.693 -2.393,-1.945c0,-1.499 1.476,-1.99 2.728,-1.99c1.61,0 2.951,0.782 3.018,2.526l1.409,0Zm4.673,-6.842l-1.409,0l0,3.466l-2.012,0l0,1.185l2.012,0l0,7.893c-0.022,1.967 0.626,2.593 2.504,2.593c0.425,0 0.828,-0.045 1.252,-0.045l0,-1.207c-0.402,0.045 -0.805,0.067 -1.207,0.067c-1.006,-0.067 -1.14,-0.604 -1.14,-1.52l0,-7.781l2.347,0l0,-1.185l-2.347,0l0,-3.466Zm4.382,15.003l1.408,0l0,-6.149c0,-2.392 1.744,-4.27 4.293,-4.136l0,-1.409c-2.079,-0.089 -3.644,1.007 -4.36,2.862l-0.044,0l0,-2.705l-1.297,0l0,11.537Zm14.421,-4.472c0.022,2.258 -1.878,3.622 -4.025,3.622c-1.319,0 -2.571,-0.872 -2.571,-2.28c0,-2.258 2.974,-2.236 5.366,-2.661c0.38,-0.067 1.006,-0.179 1.185,-0.514l0.045,0l0,1.833Zm-6.104,-3.532c0.045,-1.878 1.341,-2.683 3.085,-2.683c1.655,0 3.019,0.469 3.019,2.37c0,1.274 -0.649,1.431 -1.811,1.565c-3.041,0.357 -6.194,0.469 -6.194,3.711c0,2.326 1.744,3.376 3.868,3.376c2.214,0 3.22,-0.849 4.204,-2.347l0.045,0c0,1.207 0.223,2.012 1.654,2.012c0.38,0 0.604,-0.022 0.917,-0.089l0,-1.185c-0.112,0.044 -0.291,0.089 -0.447,0.089c-0.559,0 -0.828,-0.313 -0.828,-0.85l0,-6.126c0,-3.085 -2.213,-3.711 -4.248,-3.711c-2.638,0 -4.539,1.162 -4.673,3.868l1.409,0Zm12.565,-6.999l-1.408,0l0,3.466l-2.013,0l0,1.185l2.013,0l0,7.893c-0.023,1.967 0.626,2.593 2.504,2.593c0.425,0 0.827,-0.045 1.252,-0.045l0,-1.207c-0.402,0.045 -0.805,0.067 -1.207,0.067c-1.006,-0.067 -1.141,-0.604 -1.141,-1.52l0,-7.781l2.348,0l0,-1.185l-2.348,0l0,-3.466Zm4.405,15.003l1.409,0l0,-11.537l-1.409,0l0,11.537Zm0,-13.706l1.409,0l0,-2.258l-1.409,0l0,2.258Zm7.266,13.706l1.498,0l4.315,-11.537l-1.453,0l-3.577,10.128l-0.045,0l-3.622,-10.128l-1.565,0l4.449,11.537Zm16.903,-5.388c0.112,-3.242 -1.364,-6.484 -5.075,-6.484c-3.667,0 -5.21,3.063 -5.21,6.103c0,3.287 1.543,6.104 5.21,6.104c2.907,0 4.427,-1.52 5.031,-4.136l-1.409,0c-0.447,1.744 -1.565,2.951 -3.622,2.951c-2.705,0 -3.779,-2.481 -3.801,-4.538l8.876,0Zm-8.876,-1.185c0.224,-2.102 1.498,-4.114 3.801,-4.114c2.28,0 3.6,1.99 3.667,4.114l-7.468,0Zm15.494,6.573l1.633,0l1.922,-4.964l7.267,0l1.945,4.964l1.632,0l-6.26,-15.964l-1.699,0l-6.44,15.964Zm7.222,-14.444l3.086,8.184l-6.283,0l3.197,-8.184Zm12.99,13.125c-2.593,0 -3.801,-2.258 -3.801,-4.584c0,-2.392 1.118,-4.784 3.801,-4.784c2.661,0 3.712,2.526 3.712,4.784c0,2.348 -1.275,4.584 -3.712,4.584m5.12,-10.218l-1.408,0l0,1.99l-0.045,0c-0.559,-1.275 -1.99,-2.325 -3.667,-2.325c-3.331,0 -5.209,2.638 -5.209,5.813c0,3.287 1.52,5.925 5.209,5.925c1.655,0 3.019,-0.962 3.667,-2.37l0.045,0l0,1.565c0,2.817 -1.118,4.36 -3.712,4.36c-1.565,0 -3.063,-0.604 -3.376,-2.303l-1.408,0c0.201,2.459 2.481,3.488 4.784,3.488c3.779,0 5.098,-2.102 5.12,-5.545l0,-10.598Zm12.387,6.149c0.112,-3.242 -1.364,-6.484 -5.075,-6.484c-3.667,0 -5.21,3.063 -5.21,6.103c0,3.287 1.543,6.104 5.21,6.104c2.906,0 4.427,-1.52 5.03,-4.136l-1.408,0c-0.447,1.744 -1.565,2.951 -3.622,2.951c-2.706,0 -3.779,-2.481 -3.801,-4.538l8.876,0Zm-8.876,-1.185c0.223,-2.102 1.498,-4.114 3.801,-4.114c2.28,0 3.599,1.99 3.666,4.114l-7.467,0Zm10.754,6.573l1.409,0l0,-6.73c0.044,-2.258 1.386,-3.957 3.622,-3.957c2.28,0 2.929,1.498 2.929,3.488l0,7.199l1.408,0l0,-7.423c0,-2.75 -0.983,-4.449 -4.225,-4.449c-1.633,0 -3.175,0.939 -3.69,2.325l-0.044,0l0,-1.99l-1.409,0l0,11.537Zm21.576,-7.915c-0.313,-2.638 -2.214,-3.957 -4.673,-3.957c-3.533,0 -5.456,2.794 -5.456,6.103c0,3.31 1.923,6.104 5.456,6.104c2.571,0 4.382,-1.699 4.762,-4.471l-1.408,0c-0.179,1.922 -1.61,3.286 -3.354,3.286c-2.705,0 -4.047,-2.459 -4.047,-4.919c0,-2.459 1.342,-4.918 4.047,-4.918c1.833,0 2.884,1.05 3.264,2.772l1.409,0Zm5.366,7.87l-0.492,1.319c-0.47,1.074 -0.76,1.811 -2.012,1.811c-0.313,0 -0.626,-0.044 -0.962,-0.111l0,1.185c0.224,0.089 0.515,0.089 1.073,0.111c1.767,0 2.236,-0.558 3.041,-2.504l5.009,-13.303l-1.409,0l-3.555,9.838l-3.801,-9.838l-1.498,0l4.606,11.492Z" style="fill:rgb(17,61,141);fill-rule:nonzero;"/>        </g>        <g transform="matrix(4.16667,0,0,4.16667,687.588,194.496)">            <path d="M0,11.693l1.52,0l0,-7.088l5.769,0c2.884,-0.111 3.063,2.37 3.197,4.606c0.045,0.671 0.045,1.856 0.425,2.482l1.677,0c-0.671,-0.805 -0.671,-2.996 -0.738,-4.092c-0.112,-1.9 -0.715,-3.331 -2.795,-3.599l0,-0.045c2.057,-0.403 3.108,-2.057 3.108,-4.069c0,-2.885 -2.213,-4.159 -4.852,-4.159l-7.311,0l0,15.964Zm1.52,-14.667l5.679,0c2.281,0 3.444,1.229 3.444,3.175c0,1.945 -1.588,3.108 -3.444,3.108l-5.679,0l0,-6.283Zm22.828,9.279c0.112,-3.242 -1.364,-6.484 -5.075,-6.484c-3.667,0 -5.21,3.063 -5.21,6.103c0,3.287 1.543,6.104 5.21,6.104c2.907,0 4.427,-1.52 5.031,-4.136l-1.409,0c-0.447,1.744 -1.565,2.951 -3.622,2.951c-2.705,0 -3.779,-2.481 -3.801,-4.538l8.876,0Zm-8.876,-1.185c0.224,-2.102 1.498,-4.114 3.801,-4.114c2.28,0 3.6,1.99 3.667,4.114l-7.468,0Zm15.405,5.254c-2.594,0 -3.801,-2.258 -3.801,-4.584c0,-2.392 1.118,-4.784 3.801,-4.784c2.661,0 3.711,2.526 3.711,4.784c0,2.348 -1.274,4.584 -3.711,4.584m5.12,-10.218l-1.409,0l0,1.99l-0.044,0c-0.559,-1.275 -1.99,-2.325 -3.667,-2.325c-3.331,0 -5.21,2.638 -5.21,5.813c0,3.287 1.521,5.925 5.21,5.925c1.655,0 3.018,-0.962 3.667,-2.37l0.044,0l0,1.565c0,2.817 -1.117,4.36 -3.711,4.36c-1.565,0 -3.063,-0.604 -3.376,-2.303l-1.409,0c0.201,2.459 2.482,3.488 4.785,3.488c3.779,0 5.098,-2.102 5.12,-5.545l0,-10.598Zm2.705,11.537l1.409,0l0,-11.537l-1.409,0l0,11.537Zm0,-13.706l1.409,0l0,-2.258l-1.409,0l0,2.258Zm8.989,1.834c-3.533,0 -5.456,2.794 -5.456,6.103c0,3.31 1.923,6.104 5.456,6.104c3.532,0 5.455,-2.794 5.455,-6.104c0,-3.309 -1.923,-6.103 -5.455,-6.103m0,1.185c2.705,0 4.046,2.459 4.046,4.918c0,2.46 -1.341,4.919 -4.046,4.919c-2.706,0 -4.047,-2.459 -4.047,-4.919c0,-2.459 1.341,-4.918 4.047,-4.918m7.534,10.687l1.409,0l0,-6.73c0.045,-2.258 1.386,-3.957 3.622,-3.957c2.281,0 2.929,1.498 2.929,3.488l0,7.199l1.409,0l0,-7.423c0,-2.75 -0.984,-4.449 -4.226,-4.449c-1.632,0 -3.175,0.939 -3.689,2.325l-0.045,0l0,-1.99l-1.409,0l0,11.537Zm19.407,-4.472c0.023,2.258 -1.878,3.622 -4.024,3.622c-1.319,0 -2.571,-0.872 -2.571,-2.28c0,-2.258 2.973,-2.236 5.366,-2.661c0.38,-0.067 1.006,-0.179 1.185,-0.514l0.044,0l0,1.833Zm-6.104,-3.532c0.045,-1.878 1.342,-2.683 3.086,-2.683c1.654,0 3.018,0.469 3.018,2.37c0,1.274 -0.648,1.431 -1.811,1.565c-3.04,0.357 -6.193,0.469 -6.193,3.711c0,2.326 1.744,3.376 3.868,3.376c2.214,0 3.22,-0.849 4.203,-2.347l0.045,0c0,1.207 0.224,2.012 1.655,2.012c0.38,0 0.603,-0.022 0.916,-0.089l0,-1.185c-0.111,0.044 -0.29,0.089 -0.447,0.089c-0.559,0 -0.827,-0.313 -0.827,-0.85l0,-6.126c0,-3.085 -2.214,-3.711 -4.248,-3.711c-2.639,0 -4.539,1.162 -4.673,3.868l1.408,0Zm10.352,8.004l1.409,0l0,-15.964l-1.409,0l0,15.964Zm9.793,-5.254c-0.178,3.89 2.594,5.589 6.373,5.589c5.656,0 6.103,-3.465 6.103,-4.561c0,-2.616 -1.878,-3.6 -4.136,-4.203l-3.89,-0.962c-1.297,-0.313 -2.415,-0.939 -2.415,-2.437c0,-2.37 1.923,-3.175 4.002,-3.175c2.258,0 4.271,1.23 4.36,3.667l1.521,0c0.022,-3.264 -2.751,-4.963 -5.903,-4.963c-4.494,0 -5.5,2.929 -5.5,4.494c0,2.481 1.721,3.376 3.599,3.845l3.555,0.872c1.476,0.358 3.287,1.074 3.287,2.885c0,2.325 -2.549,3.242 -4.226,3.242c-2.906,0 -5.276,-1.007 -5.209,-4.293l-1.521,0Zm16.859,-9.749l-1.409,0l0,3.466l-2.012,0l0,1.185l2.012,0l0,7.893c-0.022,1.967 0.626,2.593 2.504,2.593c0.425,0 0.827,-0.045 1.252,-0.045l0,-1.207c-0.402,0.045 -0.805,0.067 -1.207,0.067c-1.006,-0.067 -1.14,-0.604 -1.14,-1.52l0,-7.781l2.347,0l0,-1.185l-2.347,0l0,-3.466Zm11.76,10.531c0.022,2.258 -1.878,3.622 -4.025,3.622c-1.319,0 -2.571,-0.872 -2.571,-2.28c0,-2.258 2.974,-2.236 5.366,-2.661c0.38,-0.067 1.006,-0.179 1.185,-0.514l0.045,0l0,1.833Zm-6.104,-3.532c0.045,-1.878 1.342,-2.683 3.086,-2.683c1.654,0 3.018,0.469 3.018,2.37c0,1.274 -0.648,1.431 -1.811,1.565c-3.041,0.357 -6.193,0.469 -6.193,3.711c0,2.326 1.744,3.376 3.868,3.376c2.213,0 3.219,-0.849 4.203,-2.347l0.045,0c0,1.207 0.223,2.012 1.654,2.012c0.38,0 0.604,-0.022 0.917,-0.089l0,-1.185c-0.112,0.044 -0.291,0.089 -0.447,0.089c-0.559,0 -0.827,-0.313 -0.827,-0.85l0,-6.126c0,-3.085 -2.214,-3.711 -4.249,-3.711c-2.638,0 -4.538,1.162 -4.673,3.868l1.409,0Zm12.566,-6.999l-1.409,0l0,3.466l-2.012,0l0,1.185l2.012,0l0,7.893c-0.022,1.967 0.626,2.593 2.504,2.593c0.425,0 0.827,-0.045 1.252,-0.045l0,-1.207c-0.402,0.045 -0.805,0.067 -1.207,0.067c-1.006,-0.067 -1.14,-0.604 -1.14,-1.52l0,-7.781l2.347,0l0,-1.185l-2.347,0l0,-3.466Zm14.085,9.615c0.112,-3.242 -1.364,-6.484 -5.075,-6.484c-3.667,0 -5.21,3.063 -5.21,6.103c0,3.287 1.543,6.104 5.21,6.104c2.906,0 4.427,-1.52 5.031,-4.136l-1.409,0c-0.447,1.744 -1.565,2.951 -3.622,2.951c-2.706,0 -3.779,-2.481 -3.801,-4.538l8.876,0Zm-8.876,-1.185c0.223,-2.102 1.498,-4.114 3.801,-4.114c2.28,0 3.6,1.99 3.667,4.114l-7.468,0Z" style="fill:rgb(17,61,141);fill-rule:nonzero;"/>        </g>        <g transform="matrix(4.16667,0,0,4.16667,630.956,403.526)">            <path d="M0,-54.276c0.453,3.825 0.746,6.843 0.733,11.235c-0.015,4.991 -0.995,10.629 -5.097,16.268c-7.652,10.523 -23.675,11.336 -31.547,11.172c-13.672,-0.284 -21.958,-4.311 -23.239,-4.209c-0.038,0.003 -0.093,0.002 -0.119,0.012c-0.024,0.065 -0.647,2.822 -0.981,4.967c-1.02,6.079 -1.742,13.223 -1.867,14.819c-0.001,0.008 -0.001,0.012 -0.001,0.012c0.061,-0.119 3.026,-0.709 7.397,-1.336c3.984,-0.571 8.837,-0.843 11.825,-1.052c2.987,-0.208 6.414,-0.352 8.24,-0.415c49.735,-1.719 34.656,-51.473 34.656,-51.473" style="fill:rgb(0,94,171);fill-rule:nonzero;"/>        </g>        <g transform="matrix(4.16667,0,0,4.16667,562.975,287.703)">            <path d="M0,-30.974c0.055,0.008 0.191,0.069 0.389,0.184c2.403,1.397 13.914,10.759 -0.441,30.79c0,0 19.494,-9.894 7.35,-29.772c0,0 -1.317,-0.393 -3.025,-0.715c-2.385,-0.448 -3.973,-0.487 -4.273,-0.487" style="fill:rgb(0,94,171);fill-rule:nonzero;"/>        </g>        <g transform="matrix(0.376138,-4.14965,-4.14965,-0.376138,407.536,56.6505)">            <path d="M-15.273,-44.072c-0.171,0.702 9.542,48.529 -45.944,50.075c0,0 36.717,12.87 45.944,-19.512c0.836,-2.933 1.409,-5.831 1.783,-9.955c0.941,-10.39 -1.297,-17.88 -1.783,-20.608" style="fill:rgb(141,194,233);fill-rule:nonzero;"/>        </g>        <g transform="matrix(4.16667,0,0,4.16667,0,-1369.48)">            <g opacity="0.67">                <g transform="matrix(1,0,0,1,89.3116,353.472)">                    <path d="M0,72.049c0,0 0.004,-0.04 0.105,-0.112c0.883,-0.631 5.052,-3.244 6.893,-4.511c3.841,-2.644 7.53,-6.176 9.82,-10.735c9.2,-18.315 8.134,-50.022 36.29,-42.212c0,0 -38.083,-14.479 -50.33,38.068c-1.486,6.374 -2.622,17.495 -2.778,19.502" style="fill:rgb(141,194,233);fill-rule:nonzero;"/>                </g>            </g>        </g>    </g></svg>