<?xml version="1.0" encoding="UTF-8" standalone="no"?><!DOCTYPE svg PUBLIC "-//W3C//DTD SVG 1.1//EN" "http://www.w3.org/Graphics/SVG/1.1/DTD/svg11.dtd"><svg width="100%" height="100%" viewBox="0 0 1024 512" version="1.1" xmlns="http://www.w3.org/2000/svg" xmlns:xlink="http://www.w3.org/1999/xlink" xml:space="preserve" style="fill-rule:evenodd;clip-rule:evenodd;stroke-linejoin:round;stroke-miterlimit:2;"><title>OJK</title><desc></desc>    <g transform="matrix(1.13082,0,0,1.12902,-11.5698,-11.126)">        <path d="M287,192l0,75.8c0,90.4 -0.3,94.1 -9.1,112.1c-9.6,19.6 -27,29.2 -53.4,29.5c-12.2,0 -21.7,-1.7 -35.2,-6.6l-8.2,-3l-6.3,2.5c-13.5,5.4 -18.1,6.2 -37.8,6.2c-20.4,0 -25,-0.8 -38.7,-7c-32.4,-14.7 -51.1,-47.7 -53,-93.5c-1.4,-35.5 9.2,-68.6 29,-90.6l45.3,-24.6l19.5,0c27.6,0.1 47.1,8 64.1,26.1c8.9,9.5 15.5,20.9 20.2,35.1c5,15.2 6.6,25.8 6.6,45c0,25.7 -3.7,44.4 -12.3,62c-2.2,4.7 -4.3,8.9 -4.5,9.4c-0.3,0.5 3.3,0.7 8.1,0.4c7.2,-0.4 9.2,-0.9 12.6,-3.1c5,-3.3 8.6,-10.1 10.1,-18.8c0.6,-4 1,-34.7 1,-81.7l0,-75.2l42,0Zm84.5,-3c-0.128,-0.193 61.8,0.9 62.8,0.9c0.9,0.1 1.7,0.4 1.7,0.8c0,0.5 -15.8,19 -35.1,41.3c-19.3,22.3 -35.3,41 -35.6,41.7c-0.5,1.3 -0.4,1.3 51.6,81.2c18.7,28.8 34.1,52.8 34.1,53.3c0,0.4 -14.3,0.7 -32.2,0.6l-32.1,-0.3l-20.8,-35.5c-11.5,-19.5 -23.2,-39.6 -26,-44.5c-2.9,-5 -6.3,-10.7 -7.6,-12.9l-2.5,-3.9l-28.8,28.8l0,-65.1l35.5,-42.7c19.6,-23.5 35.3,-43.2 35,-43.7Zm-225.5,41.1c18.7,3 32.4,17 39.6,40.4c2.7,8.6 3.8,18.9 2.8,29.5c-2.207,23.396 -1.3,30.2 -8.3,44.5c-17.9,36.5 -67.2,36.1 -85.4,-0.6c-6.8,-13.8 -8.1,-20.7 -8.1,-42.9c0,-17 0.3,-20.5 2.2,-27.5c7.6,-27.7 24.6,-43.3 48.2,-44.4c1.4,0 5.4,0.4 9,1Z" style="fill:rgb(129,0,0);"/>        <g transform="matrix(1,0,0,1,-47,-148)">            <path d="M538.3,335.8l-3.3,0.3l0,114c0,100.5 0.2,113.9 1.5,114c0.8,0.1 2.5,0.2 3.8,0.2l2.2,0.1l0.3,-113.9c0.1,-62.6 -0.1,-114.1 -0.5,-114.5c-0.5,-0.3 -2.3,-0.4 -4,-0.2Z" style="fill:rgb(129,0,0);"/>        </g>        <g transform="matrix(2.32692,0,0,2.32692,-278.865,0.689231)">            <path d="M125,45c0,0 15.401,14.208 19,21c8.737,16.488 9,32.16 9,32.16c0,0 27.364,-25.485 41.4,-26.16c14.036,-0.675 23.662,-5.198 81.92,8c28.934,6.555 49.592,-6.369 56.68,-14c-21.156,8.835 -47.236,14.791 -72.68,-7c-38.068,-32.602 -66.861,-35.975 -85.32,-34.64c-29.281,2.118 -50,20.64 -50,20.64Z" style="fill:white;"/>            <path d="M125,45c0,0 16.825,13.296 19,23.16c11.203,-16.056 30.406,-26.444 44.4,-26.16c58.268,1.182 62.512,26.631 95.6,30c-13.156,-4.165 -26.079,-15.528 -31.68,-20c-32.068,-25.602 -58.861,-28.975 -77.32,-27.64c-29.281,2.118 -50,20.64 -50,20.64Z" style="fill:rgb(129,0,0);"/>        </g>        <g transform="matrix(1,0,0,1,-47,-148)">            <path d="M597.6,342.5c-11.4,4.1 -17.3,15 -16.4,30.4c1,16.3 9.1,25.4 22.8,25.5c10.3,0.1 16.7,-4.1 21.2,-13.9c3.2,-6.9 3.2,-22.7 0,-29.5c-5.2,-11.2 -16.7,-16.4 -27.6,-12.5Zm14.5,7.6c4.9,3.4 7.4,10.3 7.4,19.9c0,11.3 -2.8,17.4 -9.6,20.8c-5.6,2.8 -9.7,2.2 -14.4,-2.2c-8.5,-8 -8.4,-30.1 0.2,-37.8c4.5,-4.1 11.2,-4.4 16.4,-0.7Z" style="fill:rgb(97,97,97);"/>        </g>        <g transform="matrix(1,0,0,1,-47,-148)">            <path d="M691.8,342.2c-5,1.3 -10.8,6.6 -13.8,12.4c-2.2,4.3 -2.5,6.2 -2.5,15.4c0,8.6 0.4,11.3 2.1,15.1c4.2,9.1 10.5,13.2 20.4,13.2c10.4,0.1 16.7,-4.1 21.2,-13.8c3.3,-7.3 3.3,-21.8 -0.1,-29.2c-3.2,-7.1 -8.5,-11.8 -15,-13.2c-6,-1.3 -7.2,-1.3 -12.3,0.1Zm14.3,7.9c4.7,3.3 7.2,10.3 7.3,19.9c0,7.6 -0.3,9.1 -2.9,13.9c-2.3,4.2 -3.9,5.8 -7.2,7.3c-7.3,3.2 -13.3,0.4 -17.9,-8.2c-2.9,-5.3 -2.7,-21 0.2,-26.5c1.2,-2.2 3.1,-4.8 4.2,-5.8c4.3,-3.9 11.2,-4.2 16.3,-0.6Z" style="fill:rgb(97,97,97);"/>        </g>        <g transform="matrix(1,0,0,1,-47,-148)">            <path d="M892.7,342.4c-6.9,2.5 -10.7,7.6 -10.7,14.4c0,6.1 3.3,10.1 12.5,14.9c9,4.7 10.7,6.6 10.7,12c0,5.5 -3.6,8.3 -10.8,8.3c-3,0 -7,-0.7 -8.9,-1.4c-2.6,-1.1 -3.5,-1.2 -3.5,-0.3c0,0.7 -0.3,2.1 -0.6,3.3c-0.8,2.9 4.1,4.8 12.5,4.8c11.9,0.1 19.1,-5.8 19.1,-15.6c0,-8.3 -2.7,-11.6 -14.8,-17.7c-6.6,-3.3 -8.2,-5.3 -8.2,-9.9c0,-4.5 3.8,-7.4 9.8,-7.4c2.7,0 5.9,0.5 7.1,1.2c2.7,1.4 2.7,1.4 3.5,-2.6c0.7,-3 0.6,-3.2 -3.8,-4.3c-5.8,-1.4 -9.2,-1.3 -13.9,0.3Z" style="fill:rgb(97,97,97);"/>        </g>        <g transform="matrix(1,0,0,1,-47,-148)">            <path d="M632,345l0,3l15,0l0.2,24.7l0.3,24.8l3.7,0.3l3.8,0.3l0.2,-24.8l0.3,-24.8l14.5,0l0,-3.3l0,-3.2l-19,0l-19,0l0,3Z" style="fill:rgb(97,97,97);"/>        </g>        <g transform="matrix(1,0,0,1,-47,-148)">            <path d="M733.3,342.6c-1,0.4 -1.3,7 -1.3,28l0,27.4l7,0l0,-12l0,-12l4.9,0c7.5,0 9.6,2.3 12.4,14l2.3,9.5l4.1,0.3l4,0.3l-1.9,-7.3c-3.3,-12.9 -4.1,-14.9 -7,-17.3l-2.8,-2.3l3.3,-2c6.3,-3.7 8.6,-13.5 4.7,-19.9c-3.4,-5.7 -6.2,-6.8 -17.9,-7c-5.8,-0.1 -11.2,0 -11.8,0.3Zm16.3,5.4c1.2,0 3.3,1.1 4.8,2.5c2.1,1.9 2.6,3.3 2.6,7c0,3.8 -0.5,5.2 -2.9,7.6c-2.6,2.6 -3.6,2.9 -9,2.9l-6.1,0l0,-9.9c0,-9.5 0.1,-10 2.3,-10.4c1.2,-0.3 3.1,-0.3 4.2,-0.1c1.1,0.2 2.9,0.4 4.1,0.4Z" style="fill:rgb(97,97,97);"/>        </g>        <g transform="matrix(1,0,0,1,-47,-148)">            <path d="M776,370l0,28l7.5,0l0,-28l0,-28l-3.7,0l-3.8,0l0,28Z" style="fill:rgb(97,97,97);"/>        </g>        <g transform="matrix(1,0,0,1,-47,-148)">            <path d="M791,345.2l0,3.3l14.5,0l0.3,24.7l0.2,24.8l8.1,0l-0.3,-24.5l-0.3,-24.6l2.2,-0.5c1.2,-0.3 4.7,-0.3 7.8,0l5.5,0.5l0,-3.5l0,-3.4l-19,0l-19,0l0,3.2Z" style="fill:rgb(97,97,97);"/>        </g>        <g transform="matrix(1,0,0,1,-47,-148)">            <path d="M847.5,343.2c-1.5,4.3 -12.2,39.5 -16.1,53c-0.4,1.5 0.1,1.8 3.4,1.8l4,0l1.8,-6.8c2.8,-10.7 2.2,-10.2 12.2,-10.2l8.7,0l2.4,8.5l2.3,8.5l8.5,0l-5.7,-18.8c-3.1,-10.3 -7,-22.9 -8.5,-28l-2.9,-9.2l-4.8,0c-3,0 -5,0.5 -5.3,1.2Zm9,19.3c1.9,6.6 3.5,12.3 3.5,12.7c0,1.1 -12.2,1 -13.8,0c-1,-0.7 -0.6,-3.3 1.9,-12.3c4.1,-14.6 4.1,-14.6 4.5,-13.4c0.2,0.5 2,6.4 3.9,13Z" style="fill:rgb(97,97,97);"/>        </g>        <g transform="matrix(1,0,0,1,-47,-148)">            <path d="M673.1,415c-10.1,2.4 -15.3,14 -9.8,22c1.3,2 5.4,5.1 10.5,7.9c11.6,6.4 14,11.5 8.3,17.2c-2.5,2.5 -3.7,2.9 -8.4,2.9c-3,0 -6.8,-0.5 -8.6,-1.1c-3.6,-1.3 -3.6,-1.3 -4.4,2.2c-0.6,2.3 -0.2,2.9 2.6,4c4.5,1.9 16.4,1.7 20.3,-0.4c7.8,-4.1 10.9,-12.4 7.5,-20.1c-2,-4.7 -4.6,-6.8 -13.8,-11.5c-6.7,-3.3 -8.3,-5.3 -8.3,-10c0,-4.3 4,-7.1 10.2,-7.1c2.7,0 5.8,0.5 7,1.1c2.4,1.3 2.4,1.2 3.2,-2.7c0.7,-3 0.6,-3.2 -3.8,-4.3c-5,-1.2 -7.5,-1.3 -12.5,-0.1Z" style="fill:rgb(97,97,97);"/>        </g>        <g transform="matrix(1,0,0,1,-47,-148)">            <path d="M594,435.9c0,26.8 -0.8,29 -10.2,29.1c-4.3,0 -4.8,0.3 -5.4,2.5c-0.4,1.4 -0.3,2.9 0.1,3.3c0.4,0.4 3.5,0.7 7,0.7c7.2,0 10.6,-1.9 14,-7.6c1.7,-3 2,-5.7 2.3,-26.1l0.4,-22.8l-4.1,0l-4.1,0l0,20.9Z" style="fill:rgb(97,97,97);"/>        </g>        <g transform="matrix(1,0,0,1,-47,-148)">            <path d="M626.5,416.2c-0.2,0.7 -1.8,5.8 -3.4,11.3c-1.7,5.5 -5.1,16.7 -7.6,25c-2.5,8.2 -4.8,15.8 -5.1,16.7c-0.4,1.5 0.1,1.8 3.4,1.8l3.9,0l2.5,-8.3l2.4,-8.2l9,-0.3l8.9,-0.3l5,16.6l8.4,0.6l-1.3,-4.3c-0.7,-2.4 -4.6,-15 -8.6,-28.1l-7.3,-23.7l-4.9,0c-3,0 -5,0.5 -5.3,1.2Zm6.5,8.7c0,1 1.3,6.5 3,12.2c1.6,5.6 2.7,10.5 2.4,10.8c-0.5,0.6 -13.5,0.3 -14.1,-0.2c-0.1,-0.2 1.1,-4.8 2.7,-10.2c1.5,-5.5 3.1,-11.3 3.4,-12.8c0.7,-3 2.6,-2.8 2.6,0.2Z" style="fill:rgb(97,97,97);"/>        </g>        <g transform="matrix(1,0,0,1,-47,-148)">            <path d="M715.7,415.7c-0.5,0.9 -16.7,54 -16.7,54.8c0,0.3 1.7,0.5 3.8,0.5l3.9,0l2.4,-8.5l2.4,-8.6l9,0.3l8.9,0.3l2.6,8.2l2.5,8.3l8.3,0l-2,-6.3c-3.9,-12.4 -14.8,-48.6 -14.8,-49.1c0,-0.9 -9.8,-0.7 -10.3,0.1Zm9.1,20.8c1.7,6 3,11 2.9,11.1c-0.8,0.6 -12.7,1 -13.6,0.5c-0.8,-0.5 -0.4,-3.1 1.4,-9.2c1.3,-4.6 2.9,-10.4 3.6,-12.9c1.4,-5.3 1.4,-5.4 5.7,10.5Z" style="fill:rgb(97,97,97);"/>        </g>        <g transform="matrix(1,0,0,1,-47,-148)">            <path d="M584,516l0,28l7.5,0l0,-10.3c0,-9.7 0.2,-10.5 2.7,-13.5l2.6,-3.1l3.9,6.7c2.2,3.7 5.7,9.7 7.8,13.4c3.9,6.7 4,6.8 8.2,6.8c2.4,0 4.3,-0.3 4.3,-0.6c0,-0.3 -4.2,-7.5 -9.4,-15.9l-9.4,-15.5l8.2,-10.7c10.9,-14.4 10.5,-13.3 5.2,-13.3l-4.5,0l-8.4,11.7c-4.6,6.5 -8.9,12.7 -9.5,13.8c-1,1.9 -1.1,1.9 -1.8,0.1c-0.4,-1 -0.4,-7.2 -0.1,-13.7l0.7,-11.9l-4,0l-4,0l0,28Z" style="fill:rgb(97,97,97);"/>        </g>        <g transform="matrix(1,0,0,1,-47,-148)">            <path d="M628,516l0,28l30,0l0,-3l0,-3l-11,0l-11,0l0,-10l0,-10l20,0l0,-3l0,-3l-10,0l-10.1,0l0.3,-8.8l0.3,-8.7l20.5,0l0,-3.3l0,-3.2l-14.5,0l-14.5,0l0,28Z" style="fill:rgb(97,97,97);"/>        </g>        <g transform="matrix(1,0,0,1,-47,-148)">            <path d="M668.2,509.7c0.3,21.1 0.4,21.9 2.8,26.2c3.6,6.5 7.8,8.6 16.7,8.6c6.5,-0.1 7.6,-0.4 11,-3.1c7.1,-5.8 7.8,-8.2 8.1,-32.2l0.3,-21.2l-4,0l-4.1,0l0,20.9c0,20 -0.1,20.9 -2.3,24.2c-5.7,8.5 -16,7.2 -19.6,-2.4c-0.7,-1.7 -1.1,-11.1 -1.1,-22.8l0,-19.9l-4.1,0l-4,0l0.3,21.7Z" style="fill:rgb(97,97,97);"/>        </g>        <g transform="matrix(1,0,0,1,-47,-148)">            <path d="M732.7,488.7c-0.3,0.5 -1.7,4.8 -3.1,9.8c-1.5,4.9 -5.2,16.9 -8.2,26.6c-3,9.7 -5.4,17.9 -5.4,18.2c0,0.4 1.7,0.7 3.8,0.7l3.8,0l2.4,-8.3l2.5,-8.2l18,0l2.5,8.2l2.4,8.3l8.3,0l-8.6,-28l-8.6,-28l-4.7,0c-2.6,0 -4.9,0.3 -5.1,0.7Zm8.7,19.5c2,7 3.6,13 3.6,13.3c0,0.3 -3.4,0.5 -7.5,0.5c-8.5,0 -8.5,0.1 -5.7,-8.1c1.1,-3 2.5,-7.9 3.1,-10.9c1.5,-6.8 2,-8.4 2.5,-7.9c0.2,0.2 2,6.1 4,13.1Z" style="fill:rgb(97,97,97);"/>        </g>        <g transform="matrix(1,0,0,1,-47,-148)">            <path d="M768,515.9l0,28.1l8.3,0l-0.7,-23c-0.3,-12.7 -0.5,-23 -0.2,-23c0.2,0 2,3.5 4.1,7.7c2,4.3 7.5,14.7 12.2,23l8.5,15.3l7.8,0l0,-28l0,-28l-3.6,0l-3.7,0l0.5,22.5c0.3,12.4 0.4,22.4 0.3,22.3c-0.1,-0.2 -3.2,-5.9 -6.8,-12.8c-3.5,-6.9 -8.9,-16.8 -11.9,-22l-5.4,-9.5l-4.7,-0.3l-4.6,-0.3l-0.1,28Z" style="fill:rgb(97,97,97);"/>        </g>        <g transform="matrix(1,0,0,1,-47,-148)">            <path d="M837,488.9c-12.7,4.1 -19.8,15.5 -18.8,30c0.9,12.1 6.2,20.3 15.6,24.1c4.2,1.6 18.5,1.7 23.5,0.1l3.7,-1.3l0,-13.9l0,-13.9l-8.5,0l-8.5,0l0,3.3c0,3.2 0.1,3.2 4.6,3.2l4.7,0l-0.2,8.5c-0.1,4.7 -0.4,8.6 -0.6,8.8c-0.2,0.2 -3.1,0.4 -6.4,0.4c-8,0 -13.6,-3.1 -17.1,-9.2c-2,-3.7 -2.5,-5.9 -2.5,-12.5c0,-9.7 2.1,-14.6 8.4,-19c3.7,-2.6 5.1,-3 11.4,-3c4,0 8.2,0.4 9.4,0.8c1.8,0.7 2.2,0.3 2.8,-2.3c0.4,-1.7 0.4,-3.4 0.1,-3.8c-1,-1 -18.8,-1.2 -21.6,-0.3Z" style="fill:rgb(97,97,97);"/>        </g>        <g transform="matrix(1,0,0,1,-47,-148)">            <path d="M882.6,496.7c-6.2,20.1 -9.9,32.2 -12.1,39.3l-2.3,7.5l3.5,0.3c4.2,0.4 4.6,-0.1 6.9,-8.8c1,-3.6 2.3,-6.8 2.8,-7.2c1.9,-1.3 16.4,-0.9 17.3,0.4c0.4,0.7 1.7,4.4 2.9,8.3l2.1,7l4.2,0.3c2.2,0.2 4.1,0.2 4.1,0c0,-0.2 -3.8,-12.7 -8.4,-27.8l-8.4,-27.5l-5,-0.3l-4.9,-0.3l-2.7,8.8Zm9.3,4.8c0.7,3 2.3,8.7 3.5,12.5c1.3,3.8 2.1,7.2 1.8,7.5c-0.8,0.8 -14,0.6 -14.5,-0.3c-0.3,-0.4 0.6,-4.1 1.9,-8.2c1.3,-4.1 2.9,-9.8 3.5,-12.7c0.7,-2.9 1.5,-5 1.9,-4.8c0.4,0.2 1.2,2.9 1.9,6Z" style="fill:rgb(97,97,97);"/>        </g>        <g transform="matrix(1,0,0,1,-47,-148)">            <path d="M921,516l0,28l7.1,0l-0.3,-22.5c-0.2,-12.4 0,-22.5 0.3,-22.5c0.3,0 1.9,2.8 3.5,6.2c1.6,3.5 7,13.6 11.9,22.5l9,16.3l8.5,0l0,-28l0,-28l-3.5,0l-3.6,0l0.1,21.7c0.1,12 0.1,22.2 0.1,22.7c-0.1,0.5 -2.7,-4.2 -5.9,-10.5c-3.2,-6.3 -8.6,-16.5 -12.2,-22.7l-6.4,-11.2l-4.3,0l-4.3,0l0,28Z" style="fill:rgb(97,97,97);"/>        </g>    </g></svg>