<?xml version="1.0" encoding="UTF-8" standalone="no"?><!DOCTYPE svg PUBLIC "-//W3C//DTD SVG 1.1//EN" "http://www.w3.org/Graphics/SVG/1.1/DTD/svg11.dtd"><svg width="100%" height="100%" viewBox="0 0 1024 512" version="1.1" xmlns="http://www.w3.org/2000/svg" xmlns:xlink="http://www.w3.org/1999/xlink" xml:space="preserve" style="fill-rule:evenodd;clip-rule:evenodd;stroke-linejoin:round;stroke-miterlimit:2;"><title>CircleWise</title><desc>Connect directly to affiliate programs run by the advertisers themselves. Everything in one place. Full transparency.No losses in margins to re-brokering or vague network fees.Start making bank today!</desc>    <g id="Logo" transform="matrix(5.76463,0,0,5.76463,2,163.766)">        <path id="circlewise" d="M61.497,24.951c-0.614,0.457 -1.357,0.805 -2.227,1.044c-0.871,0.239 -1.767,0.358 -2.689,0.358c-1.229,0 -2.269,-0.197 -3.119,-0.592c-0.85,-0.395 -1.541,-0.95 -2.074,-1.667c-0.533,-0.716 -0.917,-1.584 -1.152,-2.601c-0.236,-1.018 -0.354,-2.14 -0.354,-3.365c0,-2.638 0.584,-4.669 1.752,-6.091c1.167,-1.423 2.868,-2.135 5.101,-2.135c1.126,0 2.033,0.094 2.719,0.281c0.686,0.187 1.306,0.426 1.859,0.716l-0.953,3.303c-0.471,-0.228 -0.937,-0.405 -1.398,-0.53c-0.461,-0.124 -0.988,-0.187 -1.582,-0.187c-1.106,0 -1.946,0.369 -2.52,1.106c-0.573,0.738 -0.86,1.917 -0.86,3.537c0,0.664 0.072,1.277 0.215,1.838c0.143,0.561 0.358,1.049 0.645,1.464c0.287,0.416 0.661,0.743 1.122,0.982c0.461,0.239 0.998,0.358 1.613,0.358c0.676,0 1.25,-0.088 1.721,-0.265c0.471,-0.176 0.891,-0.389 1.26,-0.639l0.921,3.085Zm2.797,-14.612l3.994,0l0,15.578l-3.994,0l0,-15.578Zm-0.584,-4.393c0,-0.603 0.22,-1.117 0.66,-1.543c0.441,-0.425 1.05,-0.638 1.829,-0.638c0.778,0 1.408,0.213 1.889,0.638c0.482,0.426 0.723,0.94 0.723,1.543c0,0.602 -0.241,1.106 -0.723,1.511c-0.481,0.405 -1.111,0.607 -1.889,0.607c-0.779,0 -1.388,-0.202 -1.829,-0.607c-0.44,-0.405 -0.66,-0.909 -0.66,-1.511Zm16.961,8.194c-0.635,-0.229 -1.208,-0.343 -1.72,-0.343c-0.717,0 -1.316,0.192 -1.798,0.576c-0.481,0.385 -0.804,0.878 -0.968,1.48l0,10.064l-3.994,0l0,-15.578l3.103,0l0.461,2.056l0.123,0c0.348,-0.769 0.819,-1.361 1.413,-1.776c0.594,-0.415 1.291,-0.623 2.09,-0.623c0.533,0 1.137,0.114 1.813,0.343l-0.523,3.801Zm13.183,10.811c-0.615,0.457 -1.358,0.805 -2.228,1.044c-0.871,0.239 -1.767,0.358 -2.689,0.358c-1.229,0 -2.269,-0.197 -3.119,-0.592c-0.85,-0.395 -1.541,-0.95 -2.074,-1.667c-0.532,-0.716 -0.916,-1.584 -1.152,-2.601c-0.236,-1.018 -0.353,-2.14 -0.353,-3.365c0,-2.638 0.583,-4.669 1.751,-6.091c1.168,-1.423 2.868,-2.135 5.101,-2.135c1.127,0 2.033,0.094 2.719,0.281c0.686,0.187 1.306,0.426 1.859,0.716l-0.952,3.303c-0.471,-0.228 -0.937,-0.405 -1.398,-0.53c-0.461,-0.124 -0.989,-0.187 -1.583,-0.187c-1.106,0 -1.946,0.369 -2.52,1.106c-0.573,0.738 -0.86,1.917 -0.86,3.537c0,0.664 0.072,1.277 0.215,1.838c0.144,0.561 0.359,1.049 0.645,1.464c0.287,0.416 0.661,0.743 1.122,0.982c0.461,0.239 0.999,0.358 1.613,0.358c0.676,0 1.25,-0.088 1.721,-0.265c0.471,-0.176 0.891,-0.389 1.26,-0.639l0.922,3.085Zm6.545,-4.268c0,0.726 0.092,1.256 0.276,1.588c0.185,0.333 0.482,0.499 0.891,0.499c0.246,0 0.487,-0.021 0.722,-0.062c0.236,-0.042 0.528,-0.135 0.876,-0.281l0.43,3.178c-0.327,0.166 -0.829,0.333 -1.505,0.499c-0.676,0.166 -1.373,0.249 -2.09,0.249c-1.168,0 -2.059,-0.275 -2.673,-0.826c-0.615,-0.55 -0.922,-1.459 -0.922,-2.726l0,-18.694l3.995,0l0,16.576Zm17.207,3.894c-0.614,0.499 -1.449,0.919 -2.504,1.262c-1.055,0.343 -2.177,0.514 -3.365,0.514c-2.479,0 -4.292,-0.732 -5.439,-2.197c-1.147,-1.464 -1.72,-3.473 -1.72,-6.028c0,-2.742 0.645,-4.798 1.935,-6.169c1.291,-1.371 3.104,-2.057 5.439,-2.057c0.779,0 1.537,0.104 2.274,0.312c0.738,0.208 1.393,0.55 1.967,1.028c0.573,0.478 1.034,1.122 1.382,1.932c0.349,0.81 0.523,1.817 0.523,3.022c0,0.436 -0.026,0.904 -0.077,1.402c-0.051,0.499 -0.128,1.018 -0.231,1.558l-9.218,0c0.062,1.308 0.394,2.295 0.999,2.96c0.604,0.664 1.582,0.997 2.934,0.997c0.84,0 1.593,-0.13 2.259,-0.39c0.666,-0.259 1.173,-0.524 1.521,-0.794l1.321,2.648Zm-5.715,-11.434c-1.045,0 -1.818,0.316 -2.32,0.95c-0.502,0.633 -0.804,1.48 -0.907,2.539l5.716,0c0.082,-1.121 -0.087,-1.983 -0.507,-2.586c-0.42,-0.602 -1.081,-0.903 -1.982,-0.903Zm20.003,-2.804l2.797,7.976l0.553,2.586l0.123,0l0.43,-2.618l1.966,-7.944l3.657,0l-4.732,15.734l-2.95,0l-3.103,-8.724l-0.4,-1.963l-0.153,0l-0.369,1.994l-2.95,8.693l-3.042,0l-4.947,-15.734l4.332,0l2.243,7.82l0.369,2.773l0.154,0l0.522,-2.804l2.551,-7.789l2.949,0Zm11.4,0l3.995,0l0,15.578l-3.995,0l0,-15.578Zm-0.583,-4.393c0,-0.603 0.22,-1.117 0.66,-1.543c0.441,-0.425 1.05,-0.638 1.829,-0.638c0.778,0 1.408,0.213 1.889,0.638c0.482,0.426 0.722,0.94 0.722,1.543c0,0.602 -0.24,1.106 -0.722,1.511c-0.481,0.405 -1.111,0.607 -1.889,0.607c-0.779,0 -1.388,-0.202 -1.829,-0.607c-0.44,-0.405 -0.66,-0.909 -0.66,-1.511Zm14.841,15.671c0,-0.415 -0.174,-0.748 -0.522,-0.997c-0.349,-0.249 -0.779,-0.478 -1.291,-0.685c-0.512,-0.208 -1.075,-0.421 -1.69,-0.639c-0.614,-0.218 -1.178,-0.519 -1.69,-0.903c-0.512,-0.385 -0.942,-0.873 -1.291,-1.465c-0.348,-0.592 -0.522,-1.355 -0.522,-2.29c0,-1.537 0.451,-2.71 1.352,-3.52c0.901,-0.81 2.202,-1.216 3.903,-1.216c1.167,0 2.222,0.125 3.165,0.374c0.942,0.25 1.679,0.53 2.212,0.842l-0.891,2.928c-0.471,-0.187 -1.065,-0.384 -1.782,-0.592c-0.717,-0.207 -1.445,-0.311 -2.182,-0.311c-1.188,0 -1.782,0.467 -1.782,1.402c0,0.374 0.174,0.675 0.522,0.903c0.348,0.229 0.779,0.442 1.291,0.639c0.512,0.197 1.075,0.41 1.69,0.639c0.614,0.228 1.178,0.524 1.69,0.888c0.512,0.363 0.942,0.836 1.29,1.417c0.349,0.582 0.523,1.33 0.523,2.243c0,1.579 -0.497,2.82 -1.491,3.724c-0.993,0.903 -2.483,1.355 -4.471,1.355c-1.085,0 -2.104,-0.14 -3.057,-0.421c-0.953,-0.28 -1.726,-0.607 -2.32,-0.981l1.106,-3.022c0.471,0.27 1.096,0.535 1.875,0.794c0.778,0.26 1.577,0.39 2.396,0.39c0.595,0 1.071,-0.115 1.429,-0.343c0.359,-0.229 0.538,-0.613 0.538,-1.153Zm18.898,2.96c-0.615,0.499 -1.45,0.919 -2.505,1.262c-1.055,0.343 -2.176,0.514 -3.364,0.514c-2.479,0 -4.292,-0.732 -5.439,-2.197c-1.147,-1.464 -1.721,-3.473 -1.721,-6.028c0,-2.742 0.645,-4.798 1.936,-6.169c1.29,-1.371 3.103,-2.057 5.439,-2.057c0.778,0 1.536,0.104 2.273,0.312c0.738,0.208 1.393,0.55 1.967,1.028c0.574,0.478 1.035,1.122 1.383,1.932c0.348,0.81 0.522,1.817 0.522,3.022c0,0.436 -0.025,0.904 -0.077,1.402c-0.051,0.499 -0.128,1.018 -0.23,1.558l-9.218,0c0.061,1.308 0.394,2.295 0.998,2.96c0.605,0.664 1.583,0.997 2.935,0.997c0.84,0 1.592,-0.13 2.258,-0.39c0.666,-0.259 1.173,-0.524 1.521,-0.794l1.322,2.648Zm-5.716,-11.434c-1.045,0 -1.818,0.316 -2.32,0.95c-0.502,0.633 -0.804,1.48 -0.906,2.539l5.715,0c0.082,-1.121 -0.087,-1.983 -0.507,-2.586c-0.42,-0.602 -1.08,-0.903 -1.982,-0.903Z" style="fill-rule:nonzero;"/>        <path id="Combined-Shape" d="M21.647,1.068c-5.959,2.313 -10.187,8.126 -10.187,14.932c0,6.806 4.228,12.619 10.187,14.932c-1.778,0.69 -3.71,1.068 -5.73,1.068c-8.791,0 -15.917,-7.163 -15.917,-16c0,-8.837 7.126,-16 15.917,-16c2.02,0 3.952,0.378 5.73,1.068Z" style="fill:rgb(208,46,125);"/>        <path id="Combined-Shape1" d="M21.647,30.932c5.959,-2.313 10.187,-8.126 10.187,-14.932c0,-6.806 -4.228,-12.619 -10.187,-14.932c1.778,-0.69 3.71,-1.068 5.73,-1.068c8.791,0 15.917,7.163 15.917,16c0,8.837 -7.126,16 -15.917,16c-2.02,0 -3.952,-0.378 -5.73,-1.068Z" style="fill:rgb(255,185,0);"/>    </g></svg>