<?xml version="1.0" encoding="UTF-8" standalone="no"?><!DOCTYPE svg PUBLIC "-//W3C//DTD SVG 1.1//EN" "http://www.w3.org/Graphics/SVG/1.1/DTD/svg11.dtd"><svg width="100%" height="100%" viewBox="0 0 1024 512" version="1.1" xmlns="http://www.w3.org/2000/svg" xmlns:xlink="http://www.w3.org/1999/xlink" xml:space="preserve" style="fill-rule:evenodd;clip-rule:evenodd;stroke-linejoin:round;stroke-miterlimit:2;"><title>ecoligo</title><desc>ecoligo.investments is a crowdinvesting platform for renewable energy projects initiated by ecoligo GmbH with a focus on developing and emerging countries. The crowdinvesting platform ecoligo.investments enables private investors to benefit financially from renewable energy projects and at the same time to support local economic development in developing and emerging countries and to combat climate change. This effectively promotes public participation in the global energy transition. </desc>    <g transform="matrix(2.61378,0,0,2.61378,-47.6614,27.8174)">        <path d="M254.08,36l0,-15.21l15.3,0l0,15.21l-15.3,0Zm9,13.77l-9,0l0,57.44l-2.12,0.14c-7.39,0 -13.67,-1.67 -16,-5c-2.33,-3.33 -3.45,-9.15 -3.5,-17.59l0,-63.97l-15.3,0l0,58.26c-0.09,1.65 -0.14,3.37 -0.14,5.17c0,1.8 0,3.56 0.13,5.24c0.527,10.287 2.657,17.883 6.39,22.79c4.353,5.707 11.863,8.557 22.53,8.55l23.31,0l0,-71.08l-6.3,0.05Zm102.25,52.72c2.153,3.713 6.363,5.567 12.63,5.56c6.267,-0.007 10.477,-1.86 12.63,-5.56c2.153,-3.707 3.23,-9.78 3.23,-18.22c0,-8.44 -1.147,-14.423 -3.44,-17.95c-2.313,-3.547 -6.463,-5.32 -12.45,-5.32c-5.987,0 -10.13,1.757 -12.43,5.27c-2.293,3.527 -3.44,9.51 -3.44,17.95c0,8.44 1.077,14.513 3.23,18.22l0.04,0.05Zm-11.48,-45.26c4.82,-6 12.847,-9 24.08,-9c11.233,0 19.26,3 24.08,9c4.82,6 7.23,15.043 7.23,27.13c0,12.087 -2.333,21.177 -7,27.27c-4.667,6.12 -12.763,9.18 -24.29,9.18c-11.527,0 -19.623,-3.06 -24.29,-9.18c-4.667,-6.12 -7,-15.21 -7,-27.27c0,-12.06 2.41,-21.103 7.23,-27.13l-0.04,0Zm-56.08,24.69c2.053,2 5.387,3 10,3c4.613,0 7.913,-1 9.9,-3c2,-2 3,-5.13 3,-9.39c0,-4.26 -1.03,-7.39 -3.09,-9.39c-2.06,-2 -5.393,-3 -10,-3c-8.613,0 -12.92,4.127 -12.92,12.38c0,4.267 1.03,7.397 3.09,9.39l0.02,0.01Zm-4.21,50.46c-0.219,2.906 1.335,5.674 3.93,7c2.62,1.393 7.113,2.09 13.48,2.09c11.333,0 17,-3.2 17,-9.6c0,-3.62 -1,-5.917 -3,-6.89c-2,-0.973 -6,-1.507 -12,-1.6l-13.76,-0.84c-1.71,1.289 -3.182,2.866 -4.35,4.66c-0.88,1.595 -1.316,3.399 -1.26,5.22l-0.04,-0.04Zm49.69,-1.38c0,15.207 -11.09,22.81 -33.27,22.81c-10.667,0 -18.573,-1.437 -23.72,-4.31c-5.147,-2.873 -7.72,-8.113 -7.72,-15.72c-0.085,-3.133 0.799,-6.217 2.53,-8.83c2.291,-3.065 5.036,-5.763 8.14,-8c-3.087,-2.04 -4.63,-5.423 -4.63,-10.15c0.434,-3.996 1.727,-7.851 3.79,-11.3l1.26,-2.09c-6.74,-4 -10.11,-10.957 -10.11,-20.87c0,-8.347 2.527,-14.467 7.58,-18.36c5.053,-3.893 11.887,-5.84 20.5,-5.84c4.109,-0.001 8.206,0.466 12.21,1.39l2.11,0.42l21.76,-0.56l0,12.23l-11.68,-0.69c2.533,3.256 3.872,7.286 3.79,11.41c0,9.093 -2.317,15.377 -6.95,18.85c-4.633,3.473 -11.857,5.21 -21.67,5.21c-2.072,0.02 -4.141,-0.181 -6.17,-0.6c-1.158,3.064 -1.833,6.289 -2,9.56c-0.059,1.637 1.021,3.113 2.6,3.55c1.733,0.667 5.92,1.037 12.56,1.11c11.14,0.093 18.767,1.577 22.88,4.45c4.113,2.873 6.183,8.317 6.21,16.33Zm-180,-28.55c2.153,3.713 6.363,5.567 12.63,5.56c6.267,-0.007 10.477,-1.86 12.63,-5.56c2.153,-3.707 3.23,-9.78 3.23,-18.22c0,-8.44 -1.147,-14.423 -3.44,-17.95c-2.267,-3.52 -6.393,-5.28 -12.38,-5.28c-5.987,0 -10.127,1.757 -12.42,5.27c-2.293,3.527 -3.44,9.51 -3.44,17.95c0,8.44 1.077,14.513 3.23,18.22l-0.04,0.01Zm-11.4,-45.22c4.82,-6 12.843,-9 24.07,-9c11.227,0 19.253,3 24.08,9c4.82,6 7.23,15.043 7.23,27.13c0,12.087 -2.333,21.177 -7,27.27c-4.667,6.12 -12.763,9.18 -24.29,9.18c-11.527,0 -19.623,-3.06 -24.29,-9.18c-4.667,-6.12 -7,-15.21 -7,-27.27c0,-12.06 2.41,-21.103 7.23,-27.13l-0.03,0Zm-35.63,-9c5.898,0.102 11.774,0.755 17.55,1.95l3.51,0.7l-0.56,12c-7.393,-0.74 -12.867,-1.11 -16.42,-1.11c-7.113,0 -11.887,1.577 -14.32,4.73c-2.433,3.153 -3.65,9.09 -3.65,17.81c0,8.72 1.17,14.747 3.51,18.08c2.34,3.333 7.207,5 14.6,5l16.42,-1.11l0.42,12.1c-9.453,1.673 -16.567,2.507 -21.34,2.5c-10.667,0 -18.177,-2.85 -22.53,-8.55c-4.353,-5.7 -6.53,-15.033 -6.53,-28c0,-12.987 2.293,-22.237 6.88,-27.75c4.587,-5.513 12.073,-8.273 22.46,-8.28l0,-0.07Zm-52.32,31c0,-6.867 -1.1,-11.667 -3.3,-14.4c-2.2,-2.733 -5.92,-4.1 -11.16,-4.1c-5.24,-0.013 -9.053,1.41 -11.44,4.27c-2.387,2.86 -3.627,7.597 -3.72,14.21l29.62,0.02Zm8.42,27.54l3.93,-0.42l0.28,11.27c-9.327,1.986 -18.825,3.058 -28.36,3.2c-10.387,0 -17.85,-2.827 -22.39,-8.48c-4.54,-5.653 -6.8,-14.703 -6.78,-27.15c0,-24.667 10.153,-37 30.46,-37c19.653,0 29.48,10.62 29.48,31.86l-1,10.85l-43.52,0c0.093,5.753 1.357,9.973 3.79,12.66c2.433,2.687 6.973,4.02 13.62,4c6.667,0 13.5,-0.277 20.5,-0.83l-0.01,0.04Z" style="fill:url(#_Linear1);fill-rule:nonzero;"/>    </g>    <defs>        <linearGradient id="_Linear1" x1="0" y1="0" x2="1" y2="0" gradientUnits="userSpaceOnUse" gradientTransform="matrix(408,0,0,408,18.98,85.595)"><stop offset="0" style="stop-color:rgb(1,179,213);stop-opacity:1"/><stop offset="1" style="stop-color:rgb(130,53,140);stop-opacity:1"/></linearGradient>    </defs></svg>