<?xml version="1.0" encoding="UTF-8" standalone="no"?><!DOCTYPE svg PUBLIC "-//W3C//DTD SVG 1.1//EN" "http://www.w3.org/Graphics/SVG/1.1/DTD/svg11.dtd"><svg width="100%" height="100%" viewBox="0 0 1024 512" version="1.1" xmlns="http://www.w3.org/2000/svg" xmlns:xlink="http://www.w3.org/1999/xlink" xml:space="preserve" style="fill-rule:evenodd;clip-rule:evenodd;stroke-linejoin:round;stroke-miterlimit:2;"><title>Net Gotówka</title><desc>Net Gotówka is a Polish non-banking provider registered in Polish Financial Supervision Authority in Lending Institution Registry. The company provides two types of loans PDL (Payday Loans) and STL (Short-term Loans) with maturity of 2-6 weeks and 3-12 months respectively.The company has been operating since 2012 in the market and provides loans only online. </desc>    <g transform="matrix(3.2435,0,0,3.2435,-108.684,-550.878)">        <g transform="matrix(0.375,0,0,0.375,0,0)">            <rect x="91" y="569" width="245" height="188.76" style="fill:rgb(116,156,205);"/>        </g>        <g transform="matrix(0.908571,0,0,0.375,43.32,0)">            <rect x="91" y="569" width="245" height="188.76" style="fill:rgb(217,217,217);"/>        </g>        <g transform="matrix(0.614473,0,0,0.328701,-64.2092,-52.3239)">            <g transform="matrix(80.3702,0,0,170.667,323.122,982.773)">                <path d="M0.38,-0.728c-0.106,0 -0.19,0.036 -0.252,0.11c-0.059,0.069 -0.088,0.157 -0.088,0.264c0,0.106 0.029,0.193 0.088,0.26c0.063,0.072 0.151,0.108 0.265,0.108c0.064,0 0.121,-0.008 0.173,-0.024c0.049,-0.016 0.092,-0.038 0.13,-0.068l0,-0.302l-0.306,0l0,0.1l0.189,0l0,0.147c-0.024,0.014 -0.049,0.025 -0.077,0.033c-0.03,0.008 -0.062,0.012 -0.096,0.012c-0.087,0 -0.151,-0.024 -0.192,-0.072c-0.038,-0.045 -0.057,-0.11 -0.057,-0.194c0,-0.088 0.021,-0.155 0.064,-0.203c0.039,-0.046 0.092,-0.068 0.159,-0.068c0.054,0 0.098,0.011 0.131,0.034c0.032,0.023 0.054,0.057 0.064,0.103l0.118,0c-0.013,-0.08 -0.045,-0.139 -0.096,-0.179c-0.053,-0.041 -0.125,-0.061 -0.217,-0.061Z" style="fill:rgb(0,43,95);fill-rule:nonzero;"/>            </g>            <g transform="matrix(80.3702,0,0,170.667,383.882,982.773)">                <path d="M0.3,-0.531c-0.079,0 -0.142,0.025 -0.189,0.077c-0.048,0.051 -0.071,0.116 -0.071,0.196c0,0.079 0.023,0.144 0.07,0.194c0.048,0.052 0.111,0.078 0.19,0.078c0.078,0 0.142,-0.026 0.19,-0.078c0.046,-0.05 0.07,-0.115 0.07,-0.194c0,-0.08 -0.024,-0.145 -0.071,-0.196c-0.048,-0.052 -0.111,-0.077 -0.189,-0.077Zm0,0.093c0.047,0 0.084,0.018 0.11,0.056c0.022,0.032 0.034,0.074 0.034,0.124c0,0.049 -0.012,0.09 -0.034,0.123c-0.026,0.037 -0.063,0.056 -0.11,0.056c-0.048,0 -0.084,-0.019 -0.11,-0.056c-0.022,-0.032 -0.033,-0.073 -0.033,-0.123c0,-0.05 0.011,-0.092 0.033,-0.124c0.026,-0.038 0.062,-0.056 0.11,-0.056Z" style="fill:rgb(0,43,95);fill-rule:nonzero;"/>            </g>            <g transform="matrix(80.3702,0,0,170.667,432.104,982.773)">                <path d="M0.222,-0.684l-0.114,0.047l0,0.12l-0.093,0l0,0.094l0.093,0l0,0.292c0,0.042 0.01,0.073 0.03,0.095c0.021,0.024 0.054,0.036 0.099,0.036l0.087,0l0,-0.094l-0.068,0c-0.012,0 -0.02,-0.003 -0.026,-0.009c-0.006,-0.007 -0.008,-0.016 -0.008,-0.028l0,-0.292l0.115,0l0,-0.094l-0.115,0l0,-0.167Z" style="fill:rgb(0,43,95);fill-rule:nonzero;"/>            </g>            <g transform="matrix(80.3702,0,0,170.667,461.198,982.773)">                <path d="M0.338,-0.722l-0.093,0.146l0.074,0l0.144,-0.146l-0.125,0Zm-0.038,0.191c-0.079,0 -0.143,0.026 -0.191,0.079c-0.046,0.05 -0.069,0.115 -0.069,0.194c0,0.078 0.023,0.143 0.069,0.193c0.048,0.052 0.111,0.079 0.191,0.079c0.079,0 0.143,-0.027 0.191,-0.079c0.046,-0.05 0.069,-0.115 0.069,-0.193c0,-0.079 -0.023,-0.144 -0.069,-0.194c-0.049,-0.053 -0.113,-0.079 -0.191,-0.079Zm0,0.093c0.043,0 0.078,0.016 0.104,0.048c0.025,0.032 0.038,0.076 0.038,0.132c0,0.054 -0.013,0.098 -0.038,0.13c-0.026,0.032 -0.061,0.049 -0.104,0.049c-0.044,0 -0.078,-0.017 -0.104,-0.049c-0.026,-0.032 -0.038,-0.076 -0.038,-0.13c0,-0.056 0.012,-0.1 0.038,-0.132c0.026,-0.032 0.06,-0.048 0.104,-0.048Z" style="fill:rgb(0,43,95);fill-rule:nonzero;"/>            </g>            <g transform="matrix(80.3702,0,0,170.667,509.421,982.773)">                <path d="M0.005,-0.517l0.174,0.517l0.106,0l0.104,-0.378l0.103,0.378l0.106,0l0.174,-0.517l-0.126,0l-0.103,0.382l-0.102,-0.382l-0.105,0l-0.102,0.382l-0.103,-0.382l-0.126,0Z" style="fill:rgb(0,43,95);fill-rule:nonzero;"/>            </g>            <g transform="matrix(80.3702,0,0,170.667,573.699,982.773)">                <path d="M0.06,-0.728l0,0.728l0.114,0l0,-0.181l0.052,-0.049l0.181,0.23l0.146,0l-0.249,-0.303l0.229,-0.214l-0.147,0l-0.212,0.205l0,-0.416l-0.114,0Z" style="fill:rgb(0,43,95);fill-rule:nonzero;"/>            </g>            <g transform="matrix(80.3702,0,0,170.667,616.313,982.773)">                <path d="M0.295,-0.531c-0.066,0 -0.118,0.011 -0.156,0.035c-0.045,0.026 -0.073,0.068 -0.084,0.125l0.113,0.009c0.006,-0.027 0.021,-0.047 0.043,-0.06c0.019,-0.012 0.044,-0.017 0.076,-0.017c0.074,0 0.111,0.033 0.111,0.101l0,0.02l-0.113,0.003c-0.076,0.002 -0.135,0.018 -0.177,0.048c-0.046,0.031 -0.068,0.076 -0.068,0.134c0,0.043 0.016,0.078 0.048,0.106c0.031,0.027 0.073,0.041 0.127,0.041c0.045,0 0.084,-0.008 0.117,-0.023c0.029,-0.014 0.054,-0.033 0.074,-0.059l0,0.068l0.106,0l0,-0.33c0,-0.063 -0.016,-0.111 -0.048,-0.144c-0.036,-0.038 -0.093,-0.057 -0.169,-0.057Zm0.103,0.295l0,0.026c0,0.04 -0.016,0.073 -0.046,0.099c-0.03,0.025 -0.067,0.038 -0.111,0.038c-0.025,0 -0.045,-0.007 -0.061,-0.019c-0.016,-0.012 -0.023,-0.027 -0.023,-0.045c0,-0.062 0.045,-0.094 0.136,-0.096l0.105,-0.003Z" style="fill:rgb(0,43,95);fill-rule:nonzero;"/>            </g>        </g>        <g transform="matrix(0.614473,0,0,0.328701,-64.9592,-53.8239)">            <g transform="matrix(80.3702,0,0,170.667,323.122,982.773)">                <path d="M0.38,-0.728c-0.106,0 -0.19,0.036 -0.252,0.11c-0.059,0.069 -0.088,0.157 -0.088,0.264c0,0.106 0.029,0.193 0.088,0.26c0.063,0.072 0.151,0.108 0.265,0.108c0.064,0 0.121,-0.008 0.173,-0.024c0.049,-0.016 0.092,-0.038 0.13,-0.068l0,-0.302l-0.306,0l0,0.1l0.189,0l0,0.147c-0.024,0.014 -0.049,0.025 -0.077,0.033c-0.03,0.008 -0.062,0.012 -0.096,0.012c-0.087,0 -0.151,-0.024 -0.192,-0.072c-0.038,-0.045 -0.057,-0.11 -0.057,-0.194c0,-0.088 0.021,-0.155 0.064,-0.203c0.039,-0.046 0.092,-0.068 0.159,-0.068c0.054,0 0.098,0.011 0.131,0.034c0.032,0.023 0.054,0.057 0.064,0.103l0.118,0c-0.013,-0.08 -0.045,-0.139 -0.096,-0.179c-0.053,-0.041 -0.125,-0.061 -0.217,-0.061Z" style="fill:rgb(116,156,205);fill-rule:nonzero;"/>            </g>            <g transform="matrix(80.3702,0,0,170.667,383.882,982.773)">                <path d="M0.3,-0.531c-0.079,0 -0.142,0.025 -0.189,0.077c-0.048,0.051 -0.071,0.116 -0.071,0.196c0,0.079 0.023,0.144 0.07,0.194c0.048,0.052 0.111,0.078 0.19,0.078c0.078,0 0.142,-0.026 0.19,-0.078c0.046,-0.05 0.07,-0.115 0.07,-0.194c0,-0.08 -0.024,-0.145 -0.071,-0.196c-0.048,-0.052 -0.111,-0.077 -0.189,-0.077Zm0,0.093c0.047,0 0.084,0.018 0.11,0.056c0.022,0.032 0.034,0.074 0.034,0.124c0,0.049 -0.012,0.09 -0.034,0.123c-0.026,0.037 -0.063,0.056 -0.11,0.056c-0.048,0 -0.084,-0.019 -0.11,-0.056c-0.022,-0.032 -0.033,-0.073 -0.033,-0.123c0,-0.05 0.011,-0.092 0.033,-0.124c0.026,-0.038 0.062,-0.056 0.11,-0.056Z" style="fill:rgb(116,156,205);fill-rule:nonzero;"/>            </g>            <g transform="matrix(80.3702,0,0,170.667,432.104,982.773)">                <path d="M0.222,-0.684l-0.114,0.047l0,0.12l-0.093,0l0,0.094l0.093,0l0,0.292c0,0.042 0.01,0.073 0.03,0.095c0.021,0.024 0.054,0.036 0.099,0.036l0.087,0l0,-0.094l-0.068,0c-0.012,0 -0.02,-0.003 -0.026,-0.009c-0.006,-0.007 -0.008,-0.016 -0.008,-0.028l0,-0.292l0.115,0l0,-0.094l-0.115,0l0,-0.167Z" style="fill:rgb(116,156,205);fill-rule:nonzero;"/>            </g>            <g transform="matrix(80.3702,0,0,170.667,461.198,982.773)">                <path d="M0.338,-0.722l-0.093,0.146l0.074,0l0.144,-0.146l-0.125,0Zm-0.038,0.191c-0.079,0 -0.143,0.026 -0.191,0.079c-0.046,0.05 -0.069,0.115 -0.069,0.194c0,0.078 0.023,0.143 0.069,0.193c0.048,0.052 0.111,0.079 0.191,0.079c0.079,0 0.143,-0.027 0.191,-0.079c0.046,-0.05 0.069,-0.115 0.069,-0.193c0,-0.079 -0.023,-0.144 -0.069,-0.194c-0.049,-0.053 -0.113,-0.079 -0.191,-0.079Zm0,0.093c0.043,0 0.078,0.016 0.104,0.048c0.025,0.032 0.038,0.076 0.038,0.132c0,0.054 -0.013,0.098 -0.038,0.13c-0.026,0.032 -0.061,0.049 -0.104,0.049c-0.044,0 -0.078,-0.017 -0.104,-0.049c-0.026,-0.032 -0.038,-0.076 -0.038,-0.13c0,-0.056 0.012,-0.1 0.038,-0.132c0.026,-0.032 0.06,-0.048 0.104,-0.048Z" style="fill:rgb(116,156,205);fill-rule:nonzero;"/>            </g>            <g transform="matrix(80.3702,0,0,170.667,509.421,982.773)">                <path d="M0.005,-0.517l0.174,0.517l0.106,0l0.104,-0.378l0.103,0.378l0.106,0l0.174,-0.517l-0.126,0l-0.103,0.382l-0.102,-0.382l-0.105,0l-0.102,0.382l-0.103,-0.382l-0.126,0Z" style="fill:rgb(116,156,205);fill-rule:nonzero;"/>            </g>            <g transform="matrix(80.3702,0,0,170.667,573.699,982.773)">                <path d="M0.06,-0.728l0,0.728l0.114,0l0,-0.181l0.052,-0.049l0.181,0.23l0.146,0l-0.249,-0.303l0.229,-0.214l-0.147,0l-0.212,0.205l0,-0.416l-0.114,0Z" style="fill:rgb(116,156,205);fill-rule:nonzero;"/>            </g>            <g transform="matrix(80.3702,0,0,170.667,616.313,982.773)">                <path d="M0.295,-0.531c-0.066,0 -0.118,0.011 -0.156,0.035c-0.045,0.026 -0.073,0.068 -0.084,0.125l0.113,0.009c0.006,-0.027 0.021,-0.047 0.043,-0.06c0.019,-0.012 0.044,-0.017 0.076,-0.017c0.074,0 0.111,0.033 0.111,0.101l0,0.02l-0.113,0.003c-0.076,0.002 -0.135,0.018 -0.177,0.048c-0.046,0.031 -0.068,0.076 -0.068,0.134c0,0.043 0.016,0.078 0.048,0.106c0.031,0.027 0.073,0.041 0.127,0.041c0.045,0 0.084,-0.008 0.117,-0.023c0.029,-0.014 0.054,-0.033 0.074,-0.059l0,0.068l0.106,0l0,-0.33c0,-0.063 -0.016,-0.111 -0.048,-0.144c-0.036,-0.038 -0.093,-0.057 -0.169,-0.057Zm0.103,0.295l0,0.026c0,0.04 -0.016,0.073 -0.046,0.099c-0.03,0.025 -0.067,0.038 -0.111,0.038c-0.025,0 -0.045,-0.007 -0.061,-0.019c-0.016,-0.012 -0.023,-0.027 -0.023,-0.045c0,-0.062 0.045,-0.094 0.136,-0.096l0.105,-0.003Z" style="fill:rgb(116,156,205);fill-rule:nonzero;"/>            </g>        </g>        <g transform="matrix(1,0,0,1,1,1.00569)">            <g transform="matrix(52.0204,0,0,56.9483,70.7235,269.203)">                <path d="M0.529,-0.166l-0.143,0c-0.015,0.042 -0.124,0.094 -0.168,0.029c-0.022,-0.032 -0.022,-0.033 -0.025,-0.07l0.344,0c0,-0.093 -0.022,-0.215 -0.1,-0.276c-0.081,-0.064 -0.22,-0.067 -0.303,-0.004c-0.054,0.041 -0.089,0.106 -0.1,0.173c-0.017,0.105 0.011,0.226 0.105,0.288c0.139,0.093 0.349,0.026 0.39,-0.14Zm-0.161,-0.147l-0.173,0c0.001,-0.005 0.009,-0.041 0.017,-0.053c0.017,-0.03 0.038,-0.04 0.071,-0.039c0.018,0 0.048,0.01 0.065,0.028c0.016,0.017 0.017,0.046 0.02,0.064Z" style="fill:rgb(78,78,78);fill-rule:nonzero;"/>            </g>            <g transform="matrix(52.0204,0,0,56.9483,98.9697,270)">                <path d="M0.244,-0.691l-0.165,0.047l0,0.114l-0.064,0l0,0.14l0.064,0l0,0.259c0,0.042 0.01,0.073 0.03,0.095c0.021,0.024 0.083,0.036 0.128,0.036l0.101,-0.013l0,-0.14l-0.082,0.013c-0.012,0 -0.012,-0.025 -0.012,-0.037l0,-0.213l0.093,0l0,-0.14l-0.093,0l0,-0.161Z" style="fill:rgb(78,78,78);fill-rule:nonzero;"/>            </g>            <g transform="matrix(0.375,0,0,0.375,0,-68.625)">                <path d="M142.504,902.252l-22.171,0l0,-80.215l21.171,0c0,0 -0.513,5.073 0.129,4.513c11.187,-9.624 30.945,-9.248 39.676,4.325c4.292,6.672 5.32,14.913 5.357,22.638l0.001,0.25l0,48.489l-22.171,0c0,-14.47 0.035,-28.939 -0.001,-43.409c-0.038,-4.958 -0.309,-10.53 -3.496,-13.45c-5.369,-4.918 -14.781,-1.607 -17.493,6.458c-0.552,1.642 -0.825,3.358 -0.99,5.078l-0.012,45.323Z" style="fill:rgb(78,78,78);fill-rule:nonzero;"/>            </g>        </g>        <g transform="matrix(1,0,0,1,0.25,-0.119308)">            <g transform="matrix(52.0204,0,0,56.9483,70.7235,269.203)">                <path d="M0.529,-0.166l-0.143,0c-0.015,0.042 -0.124,0.094 -0.168,0.029c-0.022,-0.032 -0.022,-0.033 -0.025,-0.07l0.344,0c0,-0.093 -0.022,-0.215 -0.1,-0.276c-0.081,-0.064 -0.22,-0.067 -0.303,-0.004c-0.054,0.041 -0.089,0.106 -0.1,0.173c-0.017,0.105 0.011,0.226 0.105,0.288c0.139,0.093 0.349,0.026 0.39,-0.14Zm-0.161,-0.147l-0.173,0c0.001,-0.005 0.009,-0.041 0.017,-0.053c0.017,-0.03 0.038,-0.04 0.071,-0.039c0.018,0 0.048,0.01 0.065,0.028c0.016,0.017 0.017,0.046 0.02,0.064Z" style="fill:white;fill-rule:nonzero;"/>            </g>            <g transform="matrix(52.0204,0,0,56.9483,98.9697,270)">                <path d="M0.244,-0.691l-0.165,0.047l0,0.114l-0.064,0l0,0.14l0.064,0l0,0.259c0,0.042 0.01,0.073 0.03,0.095c0.021,0.024 0.083,0.036 0.128,0.036l0.101,-0.013l0,-0.14l-0.082,0.013c-0.012,0 -0.012,-0.025 -0.012,-0.037l0,-0.213l0.093,0l0,-0.14l-0.093,0l0,-0.161Z" style="fill:white;fill-rule:nonzero;"/>            </g>            <g transform="matrix(0.375,0,0,0.375,0,-68.625)">                <path d="M142.504,902.252l-22.171,0l0,-80.215l21.171,0c0,0 -0.513,5.073 0.129,4.513c11.187,-9.624 30.945,-9.248 39.676,4.325c4.292,6.672 5.32,14.913 5.357,22.638l0.001,0.25l0,48.489l-22.171,0c0,-14.47 0.035,-28.939 -0.001,-43.409c-0.038,-4.958 -0.309,-10.53 -3.496,-13.45c-5.369,-4.918 -14.781,-1.607 -17.493,6.458c-0.552,1.642 -0.825,3.358 -0.99,5.078l-0.012,45.323Z" style="fill:white;fill-rule:nonzero;"/>            </g>        </g>    </g></svg>