<?xml version="1.0" encoding="UTF-8" standalone="no"?><!DOCTYPE svg PUBLIC "-//W3C//DTD SVG 1.1//EN" "http://www.w3.org/Graphics/SVG/1.1/DTD/svg11.dtd"><svg width="100%" height="100%" viewBox="0 0 1024 512" version="1.1" xmlns="http://www.w3.org/2000/svg" xmlns:xlink="http://www.w3.org/1999/xlink" xml:space="preserve" style="fill-rule:evenodd;clip-rule:evenodd;stroke-linejoin:round;stroke-miterlimit:2;"><title>Dansk LåneFormidling</title><desc>Danish Mortgage Brokerage is the pioneer in so-called peer-to-peer lending, which uses the Internet to cut banks completely out of lending. It matches savers with companies that want to borrow, omits the bank and offers better rates and terms all around.</desc>    <g transform="matrix(1,0,0,1,2,98.6458)">        <g transform="matrix(3.095,0,0,3.095,0,-2.00486)">            <path d="M0,4c0,0 10.004,11.509 9,23.475c-1.004,11.967 -5,27.525 -5,27.525l27,-11l0,-25c0,0 23.471,-4.288 28,1c4.529,5.288 5.353,10.465 5,13c8.515,-1.198 40,-14 40,-14c0,0 -6.442,-17.414 -27,-18c-20.558,-0.586 -41.055,5.018 -52.701,4.744c-11.646,-0.274 -24.299,-1.744 -24.299,-1.744Z" style="fill:url(#_Linear1);"/>            <path d="M5.958,62.748l0,9.901c0,0 74.769,-18.552 84.042,-24.649c11.853,-7.794 13.175,-17.504 13.175,-17.504l-97.217,32.252Z" style="fill:url(#_Linear2);"/>            <path d="M35,72c-9.841,2.489 -28,6 -28,6c0,0 5.722,18.779 19.366,22.212c9.979,2.51 19.892,2.314 34.616,0c20.602,-3.238 30.018,-10.212 30.018,-10.212l0,-5c0,0 -10.358,3.248 -30.018,2.292c-10.62,-0.517 -22.044,-5.95 -25.982,-15.292Z" style="fill:url(#_Linear3);"/>        </g>        <g transform="matrix(8.02851,0,0,8.51924,-941.997,64.3077)">            <g transform="matrix(8.87704,0,0,12,157.066,20.0459)">                <path d="M0.156,-0.702l0,0.639l0.062,0c0.092,0 0.163,-0.029 0.215,-0.085c0.051,-0.057 0.077,-0.14 0.077,-0.25c0,-0.097 -0.024,-0.172 -0.073,-0.225c-0.048,-0.052 -0.12,-0.079 -0.217,-0.079l-0.064,0Zm0.081,-0.063c0.122,0 0.213,0.033 0.273,0.099c0.06,0.067 0.09,0.157 0.09,0.27c0,0.127 -0.032,0.225 -0.095,0.293c-0.064,0.069 -0.155,0.103 -0.274,0.103l-0.158,0l0,-0.765l0.164,0Z" style="fill:rgb(77,77,77);fill-rule:nonzero;"/>            </g>            <g transform="matrix(8.87704,0,0,12,162.953,20.0459)">                <path d="M0.382,-0.276c-0.044,0.001 -0.082,0.005 -0.114,0.012c-0.032,0.007 -0.058,0.016 -0.079,0.028c-0.02,0.012 -0.035,0.026 -0.045,0.043c-0.01,0.016 -0.015,0.034 -0.015,0.053c0,0.028 0.008,0.048 0.024,0.061c0.015,0.013 0.037,0.02 0.065,0.02c0.015,0 0.03,-0.002 0.044,-0.005c0.015,-0.003 0.03,-0.008 0.044,-0.013c0.014,-0.006 0.027,-0.012 0.04,-0.02c0.013,-0.008 0.025,-0.016 0.036,-0.025l0,-0.154Zm-0.307,-0.186c0.012,-0.011 0.026,-0.021 0.042,-0.03c0.017,-0.009 0.034,-0.017 0.052,-0.024c0.018,-0.006 0.036,-0.011 0.056,-0.015c0.019,-0.003 0.039,-0.005 0.058,-0.005c0.054,0 0.097,0.014 0.129,0.041c0.032,0.027 0.047,0.064 0.047,0.113l0,0.235c0,0.019 0.001,0.035 0.002,0.047c0.002,0.012 0.004,0.022 0.008,0.029c0.003,0.007 0.007,0.012 0.013,0.015c0.006,0.003 0.013,0.004 0.022,0.004c0.011,0 0.022,-0.001 0.034,-0.003l0.012,0.035c-0.009,0.009 -0.021,0.016 -0.038,0.021c-0.016,0.005 -0.033,0.008 -0.052,0.008c-0.02,0 -0.037,-0.007 -0.049,-0.022c-0.013,-0.014 -0.021,-0.035 -0.024,-0.062c-0.028,0.026 -0.058,0.046 -0.091,0.061c-0.033,0.015 -0.068,0.023 -0.105,0.023c-0.021,0 -0.04,-0.003 -0.057,-0.009c-0.018,-0.006 -0.034,-0.015 -0.047,-0.026c-0.013,-0.012 -0.023,-0.026 -0.03,-0.042c-0.007,-0.017 -0.011,-0.036 -0.011,-0.057c0,-0.028 0.005,-0.053 0.016,-0.074c0.011,-0.021 0.026,-0.038 0.043,-0.053c0.018,-0.015 0.039,-0.026 0.062,-0.036c0.024,-0.009 0.048,-0.016 0.073,-0.021c0.024,-0.005 0.049,-0.009 0.074,-0.011c0.025,-0.001 0.047,-0.002 0.068,-0.002l0,-0.054c0,-0.035 -0.009,-0.06 -0.027,-0.076c-0.017,-0.015 -0.043,-0.023 -0.075,-0.023c-0.018,0 -0.035,0.002 -0.051,0.006c-0.016,0.004 -0.03,0.01 -0.044,0.016c-0.014,0.007 -0.026,0.014 -0.038,0.022c-0.011,0.008 -0.021,0.015 -0.03,0.022l-0.042,-0.053Z" style="fill:rgb(77,77,77);fill-rule:nonzero;"/>            </g>            <g transform="matrix(8.87704,0,0,12,168.028,20.0459)">                <path d="M0.079,-0.459c0,-0.022 -0.002,-0.044 -0.005,-0.068l0.075,0c0.003,0.014 0.005,0.03 0.006,0.047c0.022,-0.015 0.05,-0.028 0.082,-0.039c0.032,-0.011 0.065,-0.017 0.097,-0.017c0.05,0 0.089,0.015 0.118,0.044c0.03,0.029 0.044,0.07 0.044,0.123l0,0.369l-0.077,0l0,-0.362c0,-0.032 -0.008,-0.058 -0.025,-0.079c-0.017,-0.021 -0.04,-0.032 -0.07,-0.032c-0.031,0 -0.06,0.005 -0.09,0.014c-0.03,0.009 -0.056,0.021 -0.078,0.035l0,0.424l-0.077,0l0,-0.459Z" style="fill:rgb(77,77,77);fill-rule:nonzero;"/>            </g>            <g transform="matrix(8.87704,0,0,12,173.091,20.0459)">                <path d="M0.085,-0.127c0.023,0.024 0.045,0.042 0.069,0.056c0.023,0.013 0.053,0.02 0.088,0.02c0.036,0 0.065,-0.008 0.089,-0.023c0.023,-0.015 0.034,-0.036 0.034,-0.062c0,-0.018 -0.006,-0.034 -0.017,-0.047c-0.012,-0.014 -0.036,-0.026 -0.071,-0.039c-0.013,-0.005 -0.04,-0.014 -0.079,-0.027c-0.037,-0.01 -0.071,-0.026 -0.103,-0.05c-0.032,-0.023 -0.049,-0.056 -0.049,-0.099c0,-0.041 0.018,-0.075 0.053,-0.1c0.034,-0.025 0.08,-0.038 0.135,-0.038c0.019,0 0.038,0.001 0.054,0.004c0.017,0.002 0.033,0.005 0.048,0.01c0.015,0.005 0.029,0.011 0.042,0.019c0.013,0.008 0.026,0.018 0.038,0.029l-0.044,0.054c-0.023,-0.02 -0.044,-0.034 -0.065,-0.042c-0.021,-0.009 -0.045,-0.014 -0.072,-0.014c-0.033,0 -0.061,0.007 -0.082,0.019c-0.022,0.012 -0.033,0.03 -0.033,0.054c0,0.023 0.01,0.041 0.03,0.055c0.021,0.013 0.044,0.024 0.072,0.032c0.015,0.005 0.029,0.009 0.044,0.014c0.014,0.005 0.028,0.01 0.043,0.014c0.046,0.017 0.08,0.037 0.1,0.059c0.02,0.022 0.03,0.052 0.03,0.088c0,0.046 -0.019,0.082 -0.056,0.109c-0.038,0.027 -0.084,0.041 -0.139,0.041c-0.043,0 -0.081,-0.006 -0.114,-0.017c-0.033,-0.01 -0.065,-0.032 -0.096,-0.064l0.051,-0.055Z" style="fill:rgb(77,77,77);fill-rule:nonzero;"/>            </g>            <g transform="matrix(8.87704,0,0,12,177.391,20.0459)">                <path d="M0.148,-0.328l0.22,-0.199l0.093,0l-0.21,0.194l0.22,0.333l-0.091,0l-0.18,-0.289l-0.052,0.042l0,0.247l-0.077,0l0,-0.766l0.077,0l0,0.438Z" style="fill:rgb(77,77,77);fill-rule:nonzero;"/>            </g>            <g transform="matrix(8.87704,0,0,12,184.129,20.126)">                <path d="M0.501,0l-0.428,0l0,-0.765l0.083,0l0,0.698l0.345,0l0,0.067Z" style="fill:rgb(77,77,77);fill-rule:nonzero;"/>            </g>            <g transform="matrix(8.87704,0,0,12,188.715,20.126)">                <path d="M0.382,-0.276c-0.044,0.001 -0.082,0.005 -0.114,0.012c-0.032,0.007 -0.058,0.016 -0.079,0.028c-0.02,0.012 -0.035,0.026 -0.045,0.043c-0.01,0.016 -0.015,0.034 -0.015,0.053c0,0.028 0.008,0.048 0.024,0.061c0.015,0.013 0.037,0.02 0.065,0.02c0.015,0 0.03,-0.002 0.044,-0.005c0.015,-0.003 0.03,-0.008 0.044,-0.013c0.014,-0.006 0.027,-0.012 0.04,-0.02c0.013,-0.008 0.025,-0.016 0.036,-0.025l0,-0.154Zm-0.307,-0.186c0.012,-0.011 0.026,-0.021 0.042,-0.03c0.017,-0.009 0.034,-0.017 0.052,-0.024c0.018,-0.006 0.036,-0.011 0.056,-0.015c0.019,-0.003 0.039,-0.005 0.058,-0.005c0.054,0 0.097,0.014 0.129,0.041c0.032,0.027 0.047,0.064 0.047,0.113l0,0.235c0,0.019 0.001,0.035 0.002,0.047c0.002,0.012 0.004,0.022 0.008,0.029c0.003,0.007 0.007,0.012 0.013,0.015c0.006,0.003 0.013,0.004 0.022,0.004c0.011,0 0.022,-0.001 0.034,-0.003l0.012,0.035c-0.009,0.009 -0.021,0.016 -0.038,0.021c-0.016,0.005 -0.033,0.008 -0.052,0.008c-0.02,0 -0.037,-0.007 -0.049,-0.022c-0.013,-0.014 -0.021,-0.035 -0.024,-0.062c-0.028,0.026 -0.058,0.046 -0.091,0.061c-0.033,0.015 -0.068,0.023 -0.105,0.023c-0.021,0 -0.04,-0.003 -0.057,-0.009c-0.018,-0.006 -0.034,-0.015 -0.047,-0.026c-0.013,-0.012 -0.023,-0.026 -0.03,-0.042c-0.007,-0.017 -0.011,-0.036 -0.011,-0.057c0,-0.028 0.005,-0.053 0.016,-0.074c0.011,-0.021 0.026,-0.038 0.043,-0.053c0.018,-0.015 0.039,-0.026 0.062,-0.036c0.024,-0.009 0.048,-0.016 0.073,-0.021c0.024,-0.005 0.049,-0.009 0.074,-0.011c0.025,-0.001 0.047,-0.002 0.068,-0.002l0,-0.054c0,-0.035 -0.009,-0.06 -0.027,-0.076c-0.017,-0.015 -0.043,-0.023 -0.075,-0.023c-0.018,0 -0.035,0.002 -0.051,0.006c-0.016,0.004 -0.03,0.01 -0.044,0.016c-0.014,0.007 -0.026,0.014 -0.038,0.022c-0.011,0.008 -0.021,0.015 -0.03,0.022l-0.042,-0.053Zm0.087,-0.246c0,-0.029 0.011,-0.056 0.032,-0.081c0.022,-0.024 0.051,-0.037 0.086,-0.037c0.035,0 0.064,0.012 0.086,0.037c0.022,0.024 0.033,0.051 0.033,0.081c0,0.031 -0.011,0.059 -0.033,0.083c-0.022,0.024 -0.051,0.036 -0.086,0.036c-0.034,0 -0.063,-0.012 -0.085,-0.036c-0.022,-0.023 -0.033,-0.051 -0.033,-0.083Zm0.051,0.001c0,0.02 0.006,0.038 0.019,0.054c0.013,0.015 0.029,0.023 0.048,0.023c0.02,0 0.037,-0.008 0.049,-0.024c0.013,-0.015 0.019,-0.033 0.019,-0.053c0,-0.02 -0.006,-0.038 -0.019,-0.053c-0.012,-0.016 -0.029,-0.024 -0.049,-0.024c-0.02,0 -0.036,0.008 -0.049,0.024c-0.012,0.016 -0.018,0.033 -0.018,0.053Z" style="fill:rgb(77,77,77);fill-rule:nonzero;"/>            </g>            <g transform="matrix(8.87704,0,0,12,193.799,20.126)">                <path d="M0.079,-0.459c0,-0.022 -0.002,-0.044 -0.005,-0.068l0.075,0c0.003,0.014 0.005,0.03 0.006,0.047c0.022,-0.015 0.05,-0.028 0.082,-0.039c0.032,-0.011 0.065,-0.017 0.097,-0.017c0.05,0 0.089,0.015 0.118,0.044c0.03,0.029 0.044,0.07 0.044,0.123l0,0.369l-0.077,0l0,-0.362c0,-0.032 -0.008,-0.058 -0.025,-0.079c-0.017,-0.021 -0.04,-0.032 -0.07,-0.032c-0.031,0 -0.06,0.005 -0.09,0.014c-0.03,0.009 -0.056,0.021 -0.078,0.035l0,0.424l-0.077,0l0,-0.459Z" style="fill:rgb(77,77,77);fill-rule:nonzero;"/>            </g>            <g transform="matrix(8.87704,0,0,12,198.862,20.126)">                <path d="M0.278,-0.475c-0.046,0 -0.08,0.016 -0.104,0.047c-0.023,0.031 -0.036,0.067 -0.037,0.107l0.274,0c-0.002,-0.042 -0.012,-0.078 -0.032,-0.109c-0.019,-0.03 -0.053,-0.045 -0.101,-0.045Zm0.22,0.381c-0.023,0.03 -0.051,0.055 -0.084,0.074c-0.033,0.019 -0.076,0.029 -0.13,0.029c-0.069,0 -0.124,-0.025 -0.166,-0.074c-0.042,-0.049 -0.063,-0.118 -0.063,-0.207c0,-0.078 0.019,-0.141 0.057,-0.19c0.038,-0.049 0.094,-0.074 0.167,-0.074c0.062,0 0.112,0.017 0.148,0.052c0.036,0.034 0.056,0.081 0.061,0.143c0.002,0.023 0.002,0.047 0.001,0.072l-0.353,0c0,0.059 0.013,0.109 0.04,0.151c0.026,0.041 0.063,0.062 0.109,0.062c0.034,0 0.063,-0.007 0.088,-0.021c0.025,-0.014 0.048,-0.034 0.069,-0.062l0.056,0.045Z" style="fill:rgb(77,77,77);fill-rule:nonzero;"/>            </g>            <g transform="matrix(8.87704,0,0,12,203.769,20.126)">                <path d="M0.093,-0.527l0,-0.041c0,-0.068 0.016,-0.119 0.048,-0.153c0.032,-0.034 0.076,-0.051 0.131,-0.051c0.02,0 0.04,0.002 0.059,0.007c0.019,0.005 0.033,0.011 0.043,0.017l-0.034,0.066c-0.005,-0.003 -0.015,-0.009 -0.03,-0.016c-0.015,-0.007 -0.029,-0.01 -0.043,-0.01c-0.037,0 -0.063,0.01 -0.078,0.029c-0.008,0.011 -0.014,0.028 -0.016,0.053c-0.002,0.024 -0.003,0.057 -0.003,0.099l0.124,0l-0.007,0.065l-0.117,0l0,0.462l-0.077,0l0,-0.462l-0.072,0l0,-0.065l0.072,0Z" style="fill:rgb(77,77,77);fill-rule:nonzero;"/>            </g>            <g transform="matrix(8.87704,0,0,12,206.526,20.126)">                <path d="M0.306,-0.053c0.027,0 0.051,-0.007 0.071,-0.019c0.02,-0.013 0.04,-0.036 0.06,-0.069c0.02,-0.033 0.03,-0.078 0.03,-0.135c0,-0.05 -0.013,-0.096 -0.041,-0.136c-0.027,-0.041 -0.068,-0.062 -0.121,-0.062c-0.053,0 -0.094,0.02 -0.123,0.059c-0.028,0.039 -0.043,0.09 -0.043,0.153c0,0.054 0.01,0.096 0.031,0.126c0.021,0.03 0.042,0.051 0.063,0.064c0.021,0.013 0.045,0.019 0.073,0.019Zm0.004,0.062c-0.083,0 -0.146,-0.026 -0.188,-0.077c-0.042,-0.051 -0.063,-0.119 -0.063,-0.203c0,-0.076 0.022,-0.139 0.067,-0.189c0.046,-0.05 0.106,-0.076 0.181,-0.076c0.077,0 0.136,0.027 0.178,0.079c0.042,0.052 0.063,0.118 0.063,0.196c0,0.074 -0.022,0.138 -0.066,0.19c-0.044,0.053 -0.101,0.08 -0.172,0.08Z" style="fill:rgb(77,77,77);fill-rule:nonzero;"/>            </g>            <g transform="matrix(8.87704,0,0,12,211.909,20.126)">                <path d="M0.143,-0.527c0.002,0.008 0.004,0.019 0.005,0.034c0.001,0.014 0.001,0.032 0.001,0.055c0.025,-0.03 0.055,-0.054 0.089,-0.071c0.033,-0.018 0.068,-0.027 0.105,-0.027c0.004,0 0.008,0.001 0.013,0.001c0.005,0.001 0.008,0.002 0.011,0.002l-0.017,0.081c-0.01,-0.003 -0.022,-0.004 -0.037,-0.004c-0.043,0 -0.079,0.01 -0.108,0.029c-0.029,0.02 -0.047,0.039 -0.055,0.058l0,0.369l-0.077,0l0,-0.455c-0.001,-0.042 -0.002,-0.066 -0.003,-0.072l0.073,0Z" style="fill:rgb(77,77,77);fill-rule:nonzero;"/>            </g>            <g transform="matrix(8.87704,0,0,12,215.164,20.126)">                <path d="M0.146,-0.527c0.003,0.01 0.005,0.024 0.006,0.04c0.01,-0.006 0.021,-0.011 0.033,-0.017c0.013,-0.006 0.026,-0.011 0.04,-0.016c0.014,-0.004 0.028,-0.008 0.044,-0.011c0.015,-0.003 0.03,-0.005 0.046,-0.005c0.027,0 0.05,0.005 0.07,0.013c0.021,0.009 0.039,0.023 0.053,0.043c0.066,-0.037 0.127,-0.056 0.186,-0.056c0.025,0 0.046,0.005 0.065,0.013c0.018,0.008 0.033,0.02 0.045,0.034c0.012,0.014 0.021,0.032 0.027,0.051c0.006,0.02 0.009,0.041 0.009,0.063l0,0.375l-0.078,0l0,-0.367c0,-0.018 -0.002,-0.034 -0.007,-0.047c-0.004,-0.013 -0.011,-0.024 -0.019,-0.033c-0.009,-0.009 -0.019,-0.015 -0.03,-0.019c-0.012,-0.005 -0.024,-0.007 -0.037,-0.007c-0.047,0 -0.093,0.012 -0.138,0.036c0.004,0.02 0.006,0.041 0.006,0.064l0,0.373l-0.077,0l0,-0.366c0,-0.037 -0.008,-0.064 -0.024,-0.081c-0.016,-0.017 -0.04,-0.026 -0.07,-0.026c-0.025,0 -0.049,0.004 -0.073,0.012c-0.024,0.007 -0.047,0.017 -0.068,0.027l0,0.434l-0.077,0l0,-0.466c0,-0.022 -0.002,-0.043 -0.004,-0.061l0.072,0Z" style="fill:rgb(77,77,77);fill-rule:nonzero;"/>            </g>            <g transform="matrix(8.87704,0,0,12,222.65,20.126)">                <path d="M0.082,-0.527l0.077,0l0,0.527l-0.077,0l0,-0.527Zm-0.008,-0.171c0,-0.012 0.004,-0.023 0.013,-0.032c0.008,-0.01 0.02,-0.015 0.034,-0.015c0.013,0 0.024,0.005 0.033,0.015c0.008,0.009 0.012,0.02 0.012,0.032c0,0.013 -0.005,0.024 -0.014,0.033c-0.009,0.009 -0.019,0.014 -0.031,0.014c-0.013,0 -0.024,-0.005 -0.033,-0.014c-0.009,-0.009 -0.014,-0.02 -0.014,-0.033Z" style="fill:rgb(77,77,77);fill-rule:nonzero;"/>            </g>            <g transform="matrix(8.87704,0,0,12,224.782,20.126)">                <path d="M0.286,-0.058c0.032,0 0.058,-0.002 0.078,-0.008c0.02,-0.005 0.042,-0.018 0.067,-0.038l0,-0.345c-0.037,-0.013 -0.078,-0.019 -0.122,-0.019c-0.061,0 -0.105,0.021 -0.132,0.062c-0.027,0.042 -0.04,0.09 -0.04,0.142c0,0.057 0.013,0.105 0.04,0.146c0.027,0.04 0.063,0.06 0.109,0.06Zm0.009,-0.478c0.046,0 0.091,0.009 0.136,0.027l0,-0.256l0.077,0l0,0.598c0,0.044 0.002,0.077 0.006,0.099c0.004,0.022 0.009,0.045 0.016,0.068l-0.072,0c-0.004,-0.006 -0.008,-0.012 -0.012,-0.02c-0.003,-0.007 -0.006,-0.015 -0.009,-0.024c-0.023,0.015 -0.047,0.028 -0.071,0.037c-0.024,0.01 -0.055,0.015 -0.092,0.015c-0.066,0 -0.119,-0.025 -0.159,-0.075c-0.039,-0.05 -0.059,-0.114 -0.059,-0.192c0,-0.079 0.022,-0.145 0.065,-0.198c0.044,-0.052 0.102,-0.079 0.174,-0.079Z" style="fill:rgb(77,77,77);fill-rule:nonzero;"/>            </g>            <g transform="matrix(8.87704,0,0,12,230.079,20.126)">                <path d="M0.073,-0.765l0.077,0l0,0.657c0,0.02 0.004,0.033 0.012,0.041c0.008,0.007 0.022,0.01 0.041,0.01c0.003,0 0.007,0 0.012,0c0.005,0 0.01,-0.001 0.015,-0.002l0.011,0.045c-0.006,0.003 -0.012,0.006 -0.019,0.008c-0.007,0.003 -0.015,0.005 -0.023,0.007c-0.008,0.002 -0.015,0.004 -0.023,0.005c-0.008,0.001 -0.015,0.002 -0.022,0.002c-0.026,0 -0.045,-0.008 -0.06,-0.025c-0.014,-0.016 -0.021,-0.04 -0.021,-0.072l0,-0.676Z" style="fill:rgb(77,77,77);fill-rule:nonzero;"/>            </g>            <g transform="matrix(8.87704,0,0,12,232.277,20.126)">                <path d="M0.082,-0.527l0.077,0l0,0.527l-0.077,0l0,-0.527Zm-0.008,-0.171c0,-0.012 0.004,-0.023 0.013,-0.032c0.008,-0.01 0.02,-0.015 0.034,-0.015c0.013,0 0.024,0.005 0.033,0.015c0.008,0.009 0.012,0.02 0.012,0.032c0,0.013 -0.005,0.024 -0.014,0.033c-0.009,0.009 -0.019,0.014 -0.031,0.014c-0.013,0 -0.024,-0.005 -0.033,-0.014c-0.009,-0.009 -0.014,-0.02 -0.014,-0.033Z" style="fill:rgb(77,77,77);fill-rule:nonzero;"/>            </g>            <g transform="matrix(8.87704,0,0,12,234.409,20.126)">                <path d="M0.079,-0.459c0,-0.022 -0.002,-0.044 -0.005,-0.068l0.075,0c0.003,0.014 0.005,0.03 0.006,0.047c0.022,-0.015 0.05,-0.028 0.082,-0.039c0.032,-0.011 0.065,-0.017 0.097,-0.017c0.05,0 0.089,0.015 0.118,0.044c0.03,0.029 0.044,0.07 0.044,0.123l0,0.369l-0.077,0l0,-0.362c0,-0.032 -0.008,-0.058 -0.025,-0.079c-0.017,-0.021 -0.04,-0.032 -0.07,-0.032c-0.031,0 -0.06,0.005 -0.09,0.014c-0.03,0.009 -0.056,0.021 -0.078,0.035l0,0.424l-0.077,0l0,-0.459Z" style="fill:rgb(77,77,77);fill-rule:nonzero;"/>            </g>            <g transform="matrix(8.87704,0,0,12,239.472,20.126)">                <path d="M0.279,-0.221c0.02,0 0.037,-0.004 0.051,-0.01c0.014,-0.007 0.026,-0.016 0.035,-0.029c0.009,-0.012 0.016,-0.027 0.02,-0.044c0.004,-0.017 0.006,-0.037 0.006,-0.058c0,-0.016 -0.002,-0.031 -0.007,-0.046c-0.004,-0.015 -0.011,-0.028 -0.02,-0.039c-0.01,-0.011 -0.022,-0.02 -0.036,-0.026c-0.014,-0.007 -0.031,-0.01 -0.051,-0.01c-0.023,0 -0.043,0.003 -0.059,0.011c-0.015,0.008 -0.028,0.018 -0.037,0.03c-0.01,0.012 -0.016,0.026 -0.02,0.042c-0.004,0.016 -0.006,0.032 -0.006,0.047c0,0.017 0.002,0.033 0.007,0.048c0.005,0.016 0.013,0.03 0.023,0.042c0.011,0.013 0.023,0.023 0.039,0.03c0.015,0.008 0.034,0.012 0.055,0.012Zm-0.114,0.2c-0.015,0.015 -0.026,0.031 -0.034,0.047c-0.008,0.016 -0.012,0.032 -0.012,0.047c0,0.02 0.004,0.036 0.013,0.049c0.008,0.013 0.019,0.023 0.033,0.03c0.013,0.008 0.028,0.013 0.044,0.016c0.017,0.003 0.034,0.004 0.05,0.004c0.009,0 0.02,0 0.033,-0.001c0.013,-0.001 0.026,-0.003 0.04,-0.006c0.014,-0.003 0.028,-0.006 0.041,-0.01c0.014,-0.005 0.026,-0.01 0.037,-0.017c0.01,-0.006 0.019,-0.014 0.026,-0.023c0.006,-0.009 0.01,-0.019 0.01,-0.031c0,-0.011 -0.004,-0.022 -0.011,-0.031c-0.007,-0.008 -0.016,-0.016 -0.028,-0.023c-0.011,-0.007 -0.025,-0.013 -0.041,-0.019c-0.015,-0.005 -0.042,-0.012 -0.08,-0.019c-0.026,-0.004 -0.046,-0.006 -0.06,-0.008c-0.014,-0.001 -0.026,-0.002 -0.037,-0.003c-0.011,-0.001 -0.019,-0.002 -0.024,-0.002Zm0.346,-0.442c-0.013,-0.001 -0.025,0 -0.036,0.002c-0.011,0.001 -0.022,0.004 -0.033,0.007c0.009,0.012 0.015,0.026 0.021,0.042c0.006,0.016 0.009,0.034 0.009,0.056c0,0.031 -0.006,0.059 -0.017,0.082c-0.011,0.024 -0.026,0.043 -0.044,0.058c-0.019,0.015 -0.04,0.026 -0.064,0.034c-0.024,0.007 -0.049,0.011 -0.076,0.011c-0.022,0 -0.045,-0.003 -0.068,-0.009c-0.006,0.001 -0.012,0.003 -0.02,0.006c-0.009,0.003 -0.016,0.007 -0.024,0.011c-0.008,0.005 -0.014,0.011 -0.02,0.017c-0.005,0.007 -0.008,0.014 -0.008,0.021c0,0.008 0.006,0.015 0.017,0.02c0.011,0.005 0.026,0.009 0.045,0.012c0.018,0.004 0.051,0.009 0.099,0.015c0.049,0.009 0.086,0.016 0.11,0.023c0.023,0.006 0.044,0.015 0.063,0.026c0.018,0.011 0.033,0.025 0.045,0.041c0.011,0.016 0.017,0.036 0.017,0.059c0,0.023 -0.004,0.042 -0.013,0.058c-0.008,0.017 -0.02,0.031 -0.034,0.042c-0.014,0.012 -0.03,0.021 -0.049,0.028c-0.018,0.008 -0.038,0.014 -0.058,0.018c-0.021,0.004 -0.042,0.007 -0.063,0.008c-0.021,0.002 -0.041,0.003 -0.06,0.003c-0.029,0 -0.057,-0.003 -0.082,-0.008c-0.025,-0.005 -0.046,-0.014 -0.064,-0.024c-0.018,-0.011 -0.032,-0.025 -0.042,-0.042c-0.01,-0.017 -0.015,-0.037 -0.015,-0.06c0,-0.012 0.002,-0.024 0.006,-0.037c0.005,-0.012 0.011,-0.023 0.019,-0.035c0.007,-0.011 0.016,-0.021 0.026,-0.03c0.01,-0.01 0.02,-0.018 0.031,-0.026c-0.008,-0.004 -0.017,-0.008 -0.025,-0.013c-0.009,-0.005 -0.017,-0.01 -0.023,-0.016c-0.007,-0.006 -0.012,-0.013 -0.017,-0.021c-0.004,-0.008 -0.006,-0.018 -0.006,-0.028c0,-0.012 0.004,-0.023 0.011,-0.033c0.007,-0.009 0.015,-0.018 0.025,-0.026c0.011,-0.008 0.022,-0.014 0.033,-0.019c0.011,-0.006 0.021,-0.009 0.03,-0.012c-0.027,-0.015 -0.048,-0.035 -0.062,-0.059c-0.014,-0.025 -0.021,-0.055 -0.021,-0.092c0,-0.029 0.006,-0.055 0.018,-0.078c0.012,-0.023 0.027,-0.042 0.047,-0.058c0.019,-0.015 0.041,-0.027 0.066,-0.035c0.024,-0.008 0.05,-0.012 0.075,-0.012c0.023,0 0.045,0.003 0.068,0.01c0.022,0.006 0.043,0.015 0.063,0.027c0.025,-0.009 0.05,-0.016 0.074,-0.02c0.024,-0.004 0.046,-0.006 0.068,-0.006l-0.009,0.063l-0.033,-0.001Z" style="fill:rgb(77,77,77);fill-rule:nonzero;"/>            </g>        </g>    </g>    <defs>        <linearGradient id="_Linear1" x1="0" y1="0" x2="1" y2="0" gradientUnits="userSpaceOnUse" gradientTransform="matrix(-50.5811,39.053,-39.053,-50.5811,55.9446,11.3248)"><stop offset="0" style="stop-color:rgb(6,117,144);stop-opacity:1"/><stop offset="1" style="stop-color:rgb(0,56,69);stop-opacity:1"/></linearGradient>        <linearGradient id="_Linear2" x1="0" y1="0" x2="1" y2="0" gradientUnits="userSpaceOnUse" gradientTransform="matrix(-36.2683,13.3348,-13.3348,-36.2683,49.9616,54.9051)"><stop offset="0" style="stop-color:rgb(6,117,144);stop-opacity:1"/><stop offset="1" style="stop-color:rgb(0,56,69);stop-opacity:1"/></linearGradient>        <linearGradient id="_Linear3" x1="0" y1="0" x2="1" y2="0" gradientUnits="userSpaceOnUse" gradientTransform="matrix(84,0,-0,84,7,87.0108)"><stop offset="0" style="stop-color:rgb(150,190,61);stop-opacity:1"/><stop offset="1" style="stop-color:rgb(192,217,137);stop-opacity:1"/></linearGradient>    </defs></svg>