<?xml version="1.0" encoding="UTF-8" standalone="no"?><!DOCTYPE svg PUBLIC "-//W3C//DTD SVG 1.1//EN" "http://www.w3.org/Graphics/SVG/1.1/DTD/svg11.dtd"><svg width="100%" height="100%" viewBox="0 0 1024 512" version="1.1" xmlns="http://www.w3.org/2000/svg" xmlns:xlink="http://www.w3.org/1999/xlink" xml:space="preserve" style="fill-rule:evenodd;clip-rule:evenodd;stroke-linejoin:round;stroke-miterlimit:2;"><title>CreoEnTuProyecto</title><desc>Creoentuproyecto.com is an online platform for participatory financing founded in Barcelona in 2013 and has been created independently of public bodies and / or financial entities. This is the place where investors and entrepreneurs find themselves, and where everyone can invest regardless of their personal income or the amount they want to contribute.</desc>    <g transform="matrix(2.53131,0,0,2.53131,2,172.411)">        <g>            <path d="M87.353,48.542c-6.688,0 -12.133,-5.228 -12.133,-11.979c0,-6.752 5.382,-11.916 12.071,-11.916c4.169,0 7.84,1.93 10.142,5.414c0.747,1.119 1.338,2.426 1.556,3.764l-6.16,0c-0.902,-2.365 -2.987,-4.014 -5.569,-4.014c-3.733,0 -6.16,3.174 -6.16,6.721c0,3.547 2.427,6.845 6.191,6.845c2.583,0 4.511,-1.618 5.538,-3.89l6.16,0c-1.339,5.446 -6.068,9.055 -11.636,9.055Z" style="fill:rgb(1,59,76);fill-rule:nonzero;"/>            <path d="M112.429,48.106l-5.32,-7.436l-0.062,0l0,7.436l-5.631,0l0,-23.023l7.28,0c2.427,0 5.102,0.062 7.093,1.648c1.898,1.525 2.832,3.89 2.832,6.285c0,3.547 -2.084,6.658 -5.725,7.249l6.253,7.84l-6.72,0l0,0.001Zm-3.236,-17.857l-2.146,0l0,6.408l2.084,0c2.209,0 3.857,-0.933 3.857,-3.298c0,-2.271 -1.773,-3.11 -3.795,-3.11Z" style="fill:rgb(1,59,76);fill-rule:nonzero;"/>            <path d="M148.021,48.542c-6.502,0 -12.103,-5.041 -12.103,-11.668c0,-1.711 0.28,-3.328 0.903,-4.916c0.342,-0.901 0.902,-1.804 1.493,-2.582c2.364,-3.111 5.817,-4.729 9.738,-4.729c6.72,0 12.165,5.164 12.165,11.947c0,6.814 -5.445,11.948 -12.196,11.948Zm0.062,-18.73c-3.764,0 -6.284,3.111 -6.284,6.721c0,3.671 2.52,6.845 6.347,6.845c3.702,0 6.191,-3.236 6.191,-6.751c0,-3.579 -2.489,-6.815 -6.254,-6.815Z" style="fill:rgb(1,59,76);fill-rule:nonzero;"/>            <path d="M127.299,47.81l6.591,-4.769l0,-0.099l-7.15,0l0,-3.951l6.938,0l0,-5.165l-6.938,0l0,-3.577l7.156,0l0,-5.166l-12.787,0l0,23.023l6.134,0l0.056,-0.296Z" style="fill:rgb(1,59,76);fill-rule:nonzero;"/>            <path d="M162.768,48.106l0,-23.023l12.787,0l0,5.165l-7.156,0l0,3.577l6.938,0l0,5.165l-6.938,0l0,3.951l7.156,0l0,5.164l-12.787,0l0,0.001Z" style="fill:rgb(146,172,179);fill-rule:nonzero;"/>            <path d="M193.507,48.106l-8.773,-14l-0.062,0.031l0.155,13.969l-5.631,0l0,-23.023l5.071,0l8.898,14.467l0.062,-0.062l-0.249,-14.404l5.631,0l0,23.022l-5.102,0Z" style="fill:rgb(146,172,179);fill-rule:nonzero;"/>            <path d="M211.459,30.249l0,17.857l-5.881,0l0,-17.857l-4.542,0l0,-5.165l14.934,0l0,5.165l-4.511,0Z" style="fill:rgb(1,59,76);fill-rule:nonzero;"/>            <path d="M233.641,46.052c-1.741,1.773 -3.981,2.49 -6.439,2.49c-2.396,0 -4.947,-0.686 -6.627,-2.459c-2.084,-2.209 -2.303,-4.168 -2.303,-7.093l0,-13.907l5.881,0l0,13.907c0,2.084 0.342,4.387 2.985,4.387c2.77,0 2.926,-2.21 2.926,-4.387l0,-13.907l5.88,0l0,13.907c-0.001,2.738 -0.312,5.072 -2.303,7.062Z" style="fill:rgb(1,59,76);fill-rule:nonzero;"/>            <path d="M253.92,39.332c-1.991,1.742 -4.138,1.991 -6.72,1.991l-2.551,0l0,7.218l-5.631,0l0,-23.022l7.529,0c2.363,0 5.194,0.094 7.092,1.68c1.806,1.524 2.707,3.732 2.707,6.098c0.001,2.115 -0.808,4.603 -2.426,6.035Zm-7.093,-8.649l-2.178,0l0,5.475l2.396,0c1.929,0 3.671,-0.436 3.671,-2.768c0,-2.396 -1.96,-2.707 -3.889,-2.707Z" style="fill:rgb(146,172,179);fill-rule:nonzero;"/>            <path d="M270.059,48.541l-5.319,-7.436l-0.062,0l0,7.436l-5.631,0l0,-23.022l7.279,0c2.427,0 5.103,0.062 7.093,1.648c1.898,1.524 2.832,3.89 2.832,6.284c0,3.546 -2.085,6.657 -5.725,7.249l6.253,7.84l-6.72,0l0,0.001Zm-3.236,-17.858l-2.146,0l0,6.408l2.084,0c2.209,0 3.858,-0.934 3.858,-3.297c0,-2.271 -1.773,-3.111 -3.796,-3.111Z" style="fill:rgb(146,172,179);fill-rule:nonzero;"/>            <path d="M315.673,40.171l0,8.369l-5.88,0l0,-8.369l-6.875,-14.652l6.376,0l3.423,9.239l3.454,-9.239l6.314,0l-6.812,14.652Z" style="fill:rgb(146,172,179);fill-rule:nonzero;"/>            <path d="M324.154,48.541l0,-23.022l12.787,0l0,5.164l-7.156,0l0,3.577l6.937,0l0,5.165l-6.937,0l0,3.95l7.156,0l0,5.165l-12.787,0l0,0.001Z" style="fill:rgb(146,172,179);fill-rule:nonzero;"/>            <path d="M351.157,48.976c-6.689,0 -12.133,-5.227 -12.133,-11.979c0,-6.75 5.382,-11.914 12.07,-11.914c4.169,0 7.84,1.929 10.142,5.412c0.747,1.121 1.338,2.428 1.556,3.765l-6.159,0c-0.902,-2.363 -2.986,-4.013 -5.568,-4.013c-3.733,0 -6.16,3.173 -6.16,6.72c0,3.547 2.427,6.844 6.19,6.844c2.582,0 4.511,-1.618 5.538,-3.889l6.159,0c-1.337,5.445 -6.065,9.054 -11.635,9.054Z" style="fill:rgb(146,172,179);fill-rule:nonzero;"/>            <path d="M373.867,30.683l0,17.857l-5.88,0l0,-17.857l-4.543,0l0,-5.164l14.934,0l0,5.164l-4.511,0Z" style="fill:rgb(146,172,179);fill-rule:nonzero;"/>            <path d="M390.759,48.976c-6.502,0 -12.102,-5.04 -12.102,-11.666c0,-1.711 0.279,-3.33 0.902,-4.916c0.342,-0.902 0.901,-1.805 1.493,-2.582c2.364,-3.111 5.817,-4.729 9.737,-4.729c6.72,0 12.164,5.164 12.164,11.946c0.001,6.813 -5.443,11.947 -12.194,11.947Zm0.061,-18.728c-3.764,0 -6.284,3.111 -6.284,6.72c0,3.671 2.521,6.844 6.347,6.844c3.703,0 6.191,-3.235 6.191,-6.751c0,-3.578 -2.488,-6.813 -6.254,-6.813Z" style="fill:rgb(146,172,179);fill-rule:nonzero;"/>            <path d="M290.619,48.976c-6.502,0 -12.102,-5.04 -12.102,-11.666c0,-1.711 0.28,-3.33 0.902,-4.916c0.343,-0.902 0.901,-1.805 1.494,-2.582c2.363,-3.111 5.815,-4.729 9.736,-4.729c6.72,0 12.164,5.164 12.164,11.946c0.001,6.813 -5.443,11.947 -12.194,11.947Zm0.063,-18.728c-3.764,0 -6.283,3.111 -6.283,6.72c0,3.671 2.52,6.844 6.345,6.844c3.703,0 6.191,-3.235 6.191,-6.751c0,-3.578 -2.489,-6.813 -6.253,-6.813Z" style="fill:rgb(146,172,179);fill-rule:nonzero;"/>        </g>        <g>            <path d="M12.482,22.328l1.823,-5.174l-4.171,3.018l-1.95,5.021l4.298,-2.865Z" style="fill:rgb(146,172,179);fill-rule:nonzero;"/>            <path d="M13.57,26.606c0.029,-0.018 0.057,-0.025 0.077,-0.029c0.075,-0.034 0.152,-0.053 0.231,-0.056c0.021,-0.005 0.041,-0.008 0.059,-0.008l0.013,0.001c0.062,0.005 0.117,0.017 0.17,0.034c0.015,0.006 0.03,0.012 0.044,0.02l0.006,0.002c0.023,0.01 0.055,0.022 0.089,0.045l1.182,0.775l0.511,-1.736l-2.956,-2.144l-5.02,3.347l2.403,1.75l3.191,-2.001Z" style="fill:rgb(146,172,179);fill-rule:nonzero;"/>            <path d="M8.138,40.375l0.405,-1.242c0.053,-0.161 0.165,-0.292 0.316,-0.367l2.598,-1.325l-0.486,-0.32l-5.278,2.731l1.584,0.941l0.861,-0.418Z" style="fill:rgb(146,172,179);fill-rule:nonzero;"/>            <path d="M10.483,35.942l2.304,-7.346l-4.782,2.997l-2.477,6.914l4.955,-2.565Z" style="fill:rgb(146,172,179);fill-rule:nonzero;"/>            <path d="M54.924,29.269l0.556,-0.21c0.206,-0.077 0.401,-0.151 0.565,-0.214l-0.512,-6.286l-0.485,0.219l0.235,4.132c0.002,0.033 -0.005,0.062 -0.011,0.081c-0.006,0.082 -0.029,0.161 -0.066,0.236c-0.006,0.017 -0.015,0.043 -0.034,0.071c-0.064,0.095 -0.144,0.166 -0.235,0.213l-1.114,0.567l1.101,1.191Z" style="fill:rgb(146,172,179);fill-rule:nonzero;"/>            <path d="M11.758,36.119l0.998,0.658l1.664,-0.848l-0.887,-0.571l-0.012,-0.017c-0.026,-0.022 -0.047,-0.049 -0.062,-0.068c-0.004,-0.004 -0.008,-0.01 -0.012,-0.015c-0.045,-0.052 -0.09,-0.108 -0.119,-0.181c-0.02,-0.051 -0.026,-0.096 -0.031,-0.131c-0.011,-0.072 -0.013,-0.133 -0.005,-0.19c-0.002,-0.021 -0.003,-0.054 0.007,-0.09l1.767,-6.003l-0.803,-0.527l-2.505,7.983Z" style="fill:rgb(146,172,179);fill-rule:nonzero;"/>            <path d="M31.084,61.472l-1.55,-0.706l0,0.96c0,0.029 -0.006,0.054 -0.011,0.068c-0.004,0.027 -0.011,0.047 -0.015,0.061l-0.003,0.01c-0.021,0.091 -0.059,0.173 -0.113,0.242c-0.023,0.031 -0.05,0.06 -0.078,0.085c-0.063,0.056 -0.134,0.087 -0.191,0.109c-0.024,0.017 -0.062,0.041 -0.115,0.05l-4.015,0.704l-0.031,0.306l6.105,-1.041l0.017,-0.848Z" style="fill:rgb(146,172,179);fill-rule:nonzero;"/>            <path d="M16.72,24.644l1.573,-0.94l-1.12,-0.964c-0.077,-0.066 -0.133,-0.15 -0.174,-0.258c-0.006,-0.017 -0.011,-0.034 -0.016,-0.053l-0.002,-0.01c-0.029,-0.111 -0.032,-0.213 -0.01,-0.307l0,-0.01l0.011,-0.037l1.124,-3.812l-2.223,-1.756l-2.116,6.005l2.953,2.142Z" style="fill:rgb(146,172,179);fill-rule:nonzero;"/>            <path d="M24.28,20.124c0.028,-0.019 0.057,-0.026 0.078,-0.029c0.068,-0.03 0.138,-0.039 0.186,-0.044l0.021,-0.002c0.037,-0.005 0.074,-0.007 0.111,-0.003c0.086,0.009 0.16,0.043 0.221,0.074c0.021,0.008 0.045,0.017 0.07,0.032c0.014,0.006 0.031,0.017 0.048,0.031l1.678,1.381l0.372,-1.909l-1.729,-1.46l-6.678,4.148l0.785,0.675l4.837,-2.894Z" style="fill:rgb(146,172,179);fill-rule:nonzero;"/>            <path d="M15.928,30.228l-0.988,3.355l6.86,-3.619l1.85,-7.985l-6.425,3.841l-1.297,4.408Z" style="fill:rgb(146,172,179);fill-rule:nonzero;"/>            <path d="M20.093,56.747l-3.108,0.836c-0.137,0.037 -0.287,0.026 -0.417,-0.03l-0.261,-0.113l-2.173,0.596l-0.224,1.07l6.041,-1.461l0.142,-0.898Z" style="fill:rgb(146,172,179);fill-rule:nonzero;"/>            <path d="M47.334,60.58c-0.081,-0.057 -0.146,-0.127 -0.191,-0.207c-0.007,-0.01 -0.015,-0.021 -0.021,-0.034c-0.024,-0.051 -0.04,-0.104 -0.051,-0.165c-0.003,-0.016 -0.004,-0.031 -0.005,-0.047c-0.004,-0.024 -0.006,-0.043 -0.006,-0.062l0,-1.105l-1.788,0.345c-0.154,0.029 -0.302,0.003 -0.43,-0.069l-0.213,-0.118l0,1.266l4.854,2.568l0.024,-1.152l-2.121,-1.178c-0.022,-0.014 -0.039,-0.029 -0.052,-0.042Z" style="fill:rgb(146,172,179);fill-rule:nonzero;"/>            <path d="M26.677,61.472l-6.222,-2.645l-5.219,1.262l6.142,2.312l5.299,-0.929Z" style="fill:rgb(146,172,179);fill-rule:nonzero;"/>            <path d="M28.265,60.189l-4.957,-2.26c-0.018,-0.008 -0.031,-0.018 -0.042,-0.027c-0.07,-0.041 -0.133,-0.102 -0.19,-0.18l-0.01,-0.013c-0.013,-0.018 -0.032,-0.042 -0.048,-0.074c-0.046,-0.095 -0.068,-0.192 -0.067,-0.291c0,-0.003 -0.001,-0.006 -0.001,-0.009l-0.001,-0.006l0,-0.036l0.16,-1.359l-1.672,0.45l-0.222,1.387l7.051,2.996l0,-0.578l-0.001,0Z" style="fill:rgb(146,172,179);fill-rule:nonzero;"/>            <path d="M56.368,30.08l-0.047,0.018c-0.023,0.01 -0.05,0.02 -0.077,0.029l-0.568,0.216l0.111,1.792l2.029,-0.705l-1.279,-1.413l-0.169,0.063Z" style="fill:rgb(146,172,179);fill-rule:nonzero;"/>            <path d="M59.118,30.978l0.51,-0.178c0.042,-0.015 0.082,-0.02 0.111,-0.023c0.011,-0.002 0.021,-0.004 0.032,-0.005c0.021,-0.001 0.038,-0.002 0.054,-0.002c0.043,0 0.086,0.005 0.126,0.013c0.029,0.006 0.051,0.015 0.065,0.02c0.016,0.006 0.023,0.008 0.031,0.01c0.033,0.01 0.079,0.021 0.125,0.051c0.041,0.026 0.066,0.055 0.084,0.076c0.017,0.009 0.037,0.023 0.056,0.045l0.017,0.019l-0.385,-3.605l-3.052,-3.779l0.438,5.386l1.788,1.972Z" style="fill:rgb(146,172,179);fill-rule:nonzero;"/>            <path d="M14.451,56.632l-8.643,-3.757l-5.025,1.755l8.688,3.369l4.98,-1.367Z" style="fill:rgb(146,172,179);fill-rule:nonzero;"/>            <path d="M34.505,62.896c-0.084,-0.049 -0.151,-0.114 -0.206,-0.195c-0.012,-0.014 -0.028,-0.033 -0.042,-0.061c-0.025,-0.049 -0.044,-0.101 -0.058,-0.16c-0.003,-0.012 -0.005,-0.025 -0.006,-0.039l-0.002,-0.013c-0.003,-0.019 -0.008,-0.046 -0.008,-0.077l0,-1.004l-1.833,0.343l-0.015,0.747l5.412,2.241l0,-0.3l-3.189,-1.449c-0.02,-0.008 -0.037,-0.019 -0.053,-0.033Z" style="fill:rgb(146,172,179);fill-rule:nonzero;"/>            <path d="M43.359,58.408l-1.475,-0.823l0,1.791c0,0.031 -0.007,0.056 -0.011,0.071c-0.003,0.022 -0.009,0.043 -0.013,0.059l-0.003,0.012c-0.022,0.094 -0.063,0.177 -0.121,0.248l-0.002,0.004c-0.009,0.015 -0.024,0.035 -0.045,0.058c-0.078,0.073 -0.167,0.125 -0.265,0.153c-0.015,0.008 -0.035,0.016 -0.059,0.02l-5.913,1.109l0,0.488l7.907,-1.366l0,-1.824Z" style="fill:rgb(146,172,179);fill-rule:nonzero;"/>            <path d="M54.812,42.207l5.454,-1.591l-0.97,-8.357l-3.43,1.188l0.38,6.178c0.019,0.061 0.028,0.123 0.028,0.188c0,0.263 -0.17,0.501 -0.415,0.588l-0.003,0.002l-0.06,0.021l-2.136,0.773l1.152,1.01Z" style="fill:rgb(1,59,76);fill-rule:nonzero;"/>            <path d="M16.973,36.051l-7.305,3.726l-3.604,11.049l7.786,-2.769l3.123,-12.006Z" style="fill:rgb(1,59,76);fill-rule:nonzero;"/>            <path d="M24.525,54.238l-1.002,-0.492l-9.184,-4.517l-7.551,2.687l8.737,3.798l1.345,0.585l7.655,-2.061Z" style="fill:rgb(1,59,76);fill-rule:nonzero;"/>            <path d="M24.407,52.766l1.419,0.697l0.689,-4.337l-4.395,-2.436c-0.024,-0.014 -0.042,-0.029 -0.053,-0.042c-0.055,-0.038 -0.096,-0.089 -0.133,-0.138l-0.007,-0.01c-0.023,-0.029 -0.051,-0.065 -0.073,-0.115c-0.031,-0.068 -0.039,-0.139 -0.043,-0.199l-0.002,-0.018c-0.004,-0.023 -0.008,-0.056 -0.006,-0.092c-0.002,-0.017 -0.002,-0.039 0.002,-0.064l1.42,-7.102l-4.886,-3.068l-3.215,12.357l9.283,4.567Z" style="fill:rgb(1,59,76);fill-rule:nonzero;"/>            <path d="M55.94,43.195l0.46,0.404c0.124,0.107 0.202,0.264 0.215,0.429l0.124,1.644l1.361,-0.314c0.046,-0.011 0.098,-0.012 0.151,-0.009l0.022,0.001c0.022,-0.002 0.044,-0.002 0.066,0.003c0.098,0.015 0.194,0.055 0.279,0.116c0.016,0.01 0.032,0.02 0.045,0.032l1.578,1.382l4.47,-1.145l-3.938,-3.948l-4.833,1.405Z" style="fill:rgb(1,59,76);fill-rule:nonzero;"/>            <path d="M37.821,11.803c0.033,-0.02 0.064,-0.027 0.084,-0.031c0.051,-0.021 0.098,-0.03 0.139,-0.038c0.048,-0.007 0.121,-0.016 0.19,-0.006c0.061,0.007 0.118,0.029 0.156,0.045c0.053,0.022 0.101,0.048 0.143,0.08c0.021,0.009 0.051,0.025 0.08,0.056l4.483,4.707l3.366,-1.907l-0.894,-1.074l-5.577,-6.702l-8.854,5.84l1.966,1.902l4.718,-2.872Z" style="fill:rgb(1,59,76);fill-rule:nonzero;"/>            <path d="M39.505,5.734l0.41,-5.734l-7.799,5.644l-1.084,5.678l8.473,-5.588Z" style="fill:rgb(1,59,76);fill-rule:nonzero;"/>            <path d="M46.801,13.132l0,-5.641l-5.64,-7.126l-0.393,5.517l6.033,7.25Z" style="fill:rgb(1,59,76);fill-rule:nonzero;"/>            <path d="M60.704,33.384l0.859,7.399l3.467,3.477l-1.073,-7.096l-3.253,-3.78Z" style="fill:rgb(1,59,76);fill-rule:nonzero;"/>            <path d="M24.832,17.013l1.304,-5.77l-5.865,4.154l-1.605,5.444l6.166,-3.828Z" style="fill:rgb(146,172,179);fill-rule:nonzero;"/>            <path d="M40.616,56.876l-3.916,-2.185c-0.021,-0.011 -0.038,-0.025 -0.049,-0.038c-0.067,-0.047 -0.126,-0.11 -0.174,-0.187c-0.011,-0.012 -0.026,-0.031 -0.038,-0.057c-0.03,-0.061 -0.048,-0.13 -0.057,-0.209l-0.001,-0.006c-0.003,-0.018 -0.007,-0.047 -0.006,-0.08l0.063,-2.006l-2.62,0.711l-0.203,1.986l7,3.538l0,-1.467l0.001,0Z" style="fill:rgb(146,172,179);fill-rule:nonzero;"/>            <path d="M15.164,34.899l0.563,0.363l1.961,-1.001l0.019,-0.001c0.098,-0.04 0.197,-0.058 0.295,-0.048c0.024,0.002 0.043,0.008 0.057,0.014c0.042,0.008 0.081,0.019 0.121,0.033l0.035,0.016c0.016,0.006 0.041,0.016 0.066,0.031l5.211,3.273l0.971,-4.854l-2.165,-1.59l-7.134,3.764Z" style="fill:rgb(146,172,179);fill-rule:nonzero;"/>            <path d="M4.457,52.001c-0.006,-0.022 -0.01,-0.046 -0.013,-0.068c-0.009,-0.023 -0.02,-0.058 -0.018,-0.102c0.001,-0.034 0.01,-0.062 0.019,-0.082c0,-0.025 0.001,-0.058 0.013,-0.094l0.013,-0.041l3.121,-9.564l-4.15,2.012l-3.442,9.498l4.457,-1.559Z" style="fill:rgb(146,172,179);fill-rule:nonzero;"/>            <path d="M46.894,22.012l-0.025,1.864l1.69,-0.829c0.023,-0.013 0.044,-0.018 0.06,-0.021c0.023,-0.007 0.044,-0.01 0.058,-0.012c0.1,-0.024 0.177,-0.03 0.258,-0.019c0.042,0.007 0.073,0.019 0.096,0.027l0.016,0.006c0.071,0.025 0.132,0.06 0.187,0.103c0.02,0.01 0.049,0.025 0.075,0.055l3.622,3.924l0.697,-0.355l-5.028,-5.598l-1.706,0.855Z" style="fill:rgb(146,172,179);fill-rule:nonzero;"/>            <path d="M23.066,30.126l2.391,1.754l2.398,-1.161l-2.251,-1.829c-0.083,-0.067 -0.148,-0.156 -0.188,-0.258c-0.013,-0.034 -0.016,-0.064 -0.017,-0.081c-0.02,-0.077 -0.027,-0.149 -0.021,-0.219c-0.001,-0.017 -0.001,-0.038 0.004,-0.062l1.032,-5.291l-1.422,-1.171l-1.926,8.318Z" style="fill:rgb(146,172,179);fill-rule:nonzero;"/>            <path d="M48.897,37.412c0.055,-0.017 0.115,-0.025 0.177,-0.025c0.131,0 0.257,0.04 0.364,0.115c0.01,0.007 0.018,0.014 0.025,0.021c0.01,0.006 0.021,0.014 0.031,0.023l3.076,2.695l1.855,-0.672l-5.609,-5.197l-2.074,0.802c0.021,0.063 0.032,0.129 0.03,0.194l-0.059,2.803l2.184,-0.759Z" style="fill:rgb(146,172,179);fill-rule:nonzero;"/>            <path d="M46.85,25.298l-0.076,5.601c0,0.028 -0.006,0.052 -0.012,0.069c-0.012,0.084 -0.042,0.153 -0.066,0.199c-0.007,0.022 -0.018,0.054 -0.039,0.085c-0.073,0.101 -0.158,0.172 -0.256,0.217l-2.48,1.117l1.852,1.61l2.547,-0.992l-0.1,-8.577l-1.37,0.671Z" style="fill:rgb(146,172,179);fill-rule:nonzero;"/>            <path d="M46.474,48.984c-0.007,0.041 -0.021,0.076 -0.03,0.104l-0.006,0.017c-0.018,0.05 -0.042,0.113 -0.087,0.173c-0.034,0.044 -0.073,0.074 -0.104,0.1l-0.007,0.006c-0.042,0.033 -0.089,0.067 -0.148,0.093c-0.016,0.012 -0.041,0.026 -0.074,0.034l-8.298,2.252l-0.049,1.564l10.973,-2.646l-0.19,-11.772l-1.767,0.621l-0.198,9.381c-0.001,0.031 -0.009,0.057 -0.015,0.073Z" style="fill:rgb(146,172,179);fill-rule:nonzero;"/>            <path d="M24.32,56.533l8.035,-1.873l0.222,-2.174l-4.88,-2.705l-0.752,4.73c-0.006,0.038 -0.017,0.068 -0.025,0.091l-0.004,0.012c-0.004,0.017 -0.009,0.032 -0.017,0.048c-0.023,0.052 -0.052,0.1 -0.086,0.143c-0.023,0.028 -0.047,0.047 -0.061,0.057c-0.058,0.057 -0.125,0.1 -0.196,0.13c-0.016,0.012 -0.041,0.026 -0.073,0.034l-2.034,0.548l-0.129,0.959Z" style="fill:rgb(146,172,179);fill-rule:nonzero;"/>            <path d="M47.747,15.439l-3.75,2.125l2.737,2.873c0.048,0.052 0.087,0.112 0.116,0.178l1.257,-0.632l-0.073,-4.905c-0.015,0.052 -0.035,0.1 -0.062,0.144l-0.002,0.008l-0.02,0.028c-0.05,0.072 -0.121,0.136 -0.203,0.181Z" style="fill:rgb(146,172,179);fill-rule:nonzero;"/>            <path d="M36.412,26.574c0.02,-0.012 0.04,-0.016 0.056,-0.019c0.035,-0.011 0.066,-0.015 0.091,-0.018c0.007,0 0.014,-0.001 0.021,-0.003l0.02,-0.003c0.044,-0.009 0.105,-0.02 0.166,-0.012c0.053,0.007 0.096,0.024 0.127,0.038l0.037,0.016c0.037,0.014 0.081,0.029 0.125,0.06c0.014,0.007 0.033,0.017 0.051,0.032l5.759,5.005l2.14,-0.964l-7.915,-7.314l-9.933,5.127l1.953,1.593l7.302,-3.538Z" style="fill:rgb(146,172,179);fill-rule:nonzero;"/>            <path d="M23.268,45.169l3.579,-1.249l0,0.001l0.686,-0.24l7.196,-2.513l1.222,-12.961l-10.287,4.984l-2.396,11.978Z" style="fill:rgb(146,172,179);fill-rule:nonzero;"/>            <path d="M44.367,48.642l-3.481,-2.4l0.001,-0.001l-5.66,-3.902l-11.252,3.928l9.58,5.309l10.812,-2.934Z" style="fill:rgb(146,172,179);fill-rule:nonzero;"/>            <path d="M37.204,28.433l-1.215,12.891l9.255,6.381l0.254,-12.065l-4.229,-3.676l-4.065,-3.531Z" style="fill:rgb(146,172,179);fill-rule:nonzero;"/>            <path d="M27.373,18.255c0.052,-0.09 0.126,-0.167 0.217,-0.222l0.882,-0.537l3.471,-2.113l-2.287,-2.276l-2.166,-2.097l-1.394,6.167l1.277,1.078Z" style="fill:rgb(146,172,179);fill-rule:nonzero;"/>            <path d="M58.674,57.625l-0.997,-10.867l-0.842,0.195l0.7,9.261c0.02,0.063 0.03,0.128 0.03,0.195c0,0.167 -0.074,0.326 -0.207,0.448c-0.023,0.021 -0.045,0.033 -0.059,0.041c-0.05,0.041 -0.113,0.076 -0.183,0.101c-0.02,0.013 -0.05,0.028 -0.091,0.035l-8.698,1.681l0,0.604l10.347,-1.694Z" style="fill:rgb(146,172,179);fill-rule:nonzero;"/>            <path d="M26.878,27.233l9.715,-5.013l0.809,-8.676l-8.911,5.427l-1.613,8.262Z" style="fill:rgb(146,172,179);fill-rule:nonzero;"/>            <path d="M37.854,22.371l7.669,7.086l0.113,-8.332l-6.982,-7.332l-0.8,8.578Z" style="fill:rgb(146,172,179);fill-rule:nonzero;"/>            <path d="M35.311,59.843l3.981,-0.746l-6.432,-3.252l-7.321,1.707l6.413,2.92l3.359,-0.629Z" style="fill:rgb(146,172,179);fill-rule:nonzero;"/>            <path d="M36.003,65.331l-4.385,-1.817l-4.972,0.848l4.424,1.682l4.933,-0.713Z" style="fill:rgb(146,172,179);fill-rule:nonzero;"/>            <path d="M36.957,62.625l4.354,1.978l6.81,-0.937l-4.231,-2.238l-6.933,1.197Z" style="fill:rgb(146,172,179);fill-rule:nonzero;"/>            <path d="M49.161,51.862l-10.425,2.512l6.523,3.64l10.043,-1.939l-6.141,-4.213Z" style="fill:rgb(146,172,179);fill-rule:nonzero;"/>            <path d="M49.599,60.396l4.421,2.457l9.27,-1.248l-4.078,-2.783l-9.613,1.574Z" style="fill:rgb(146,172,179);fill-rule:nonzero;"/>            <path d="M59.021,47.5l0.944,10.299l4.244,2.896l-1.22,-9.72l-3.968,-3.475Z" style="fill:rgb(146,172,179);fill-rule:nonzero;"/>            <path d="M49.731,39.441l0.185,11.4l0.955,0.655l5.31,3.641l-0.813,-10.755l-5.637,-4.941Z" style="fill:rgb(146,172,179);fill-rule:nonzero;"/>            <path d="M49.59,33.357l5.301,4.912l-0.472,-7.676l-4.924,-5.334l0.095,8.098Z" style="fill:rgb(146,172,179);fill-rule:nonzero;"/>            <path d="M49.293,14.362l0.086,5.763l4.535,5.05l-0.313,-5.491l-4.308,-5.322Z" style="fill:rgb(146,172,179);fill-rule:nonzero;"/>        </g>    </g></svg>