<?xml version="1.0" encoding="UTF-8" standalone="no"?><!DOCTYPE svg PUBLIC "-//W3C//DTD SVG 1.1//EN" "http://www.w3.org/Graphics/SVG/1.1/DTD/svg11.dtd"><svg width="100%" height="100%" viewBox="0 0 1024 512" version="1.1" xmlns="http://www.w3.org/2000/svg" xmlns:xlink="http://www.w3.org/1999/xlink" xml:space="preserve" style="fill-rule:evenodd;clip-rule:evenodd;stroke-linejoin:round;stroke-miterlimit:2;"><title>PrepayWay</title><desc>PrepayWay is a blockchain ecosystem that simplifies and streamlines international collaboration, contracting, and payments for companies across multiple industries.</desc>    <g transform="matrix(6.30888,0,0,6.30888,-2679.33,-1323.55)">        <g id="Layer_1" transform="matrix(1,0,0,1,415.696,222.574)">            <path d="M53.937,26.778c0.76,0.319 1.407,0.857 1.859,1.546c0.861,1.471 0.861,3.298 0,4.768c-0.45,0.692 -1.098,1.233 -1.859,1.552c-0.901,0.377 -1.871,0.56 -2.848,0.538l-2.817,0l0,3.625l-2.334,0l0,-12.556l5.171,0c0.969,-0.022 1.932,0.157 2.828,0.527Zm-0.65,5.779c1.009,-0.969 1.047,-2.594 0.084,-3.608l-0.084,-0.084c-0.674,-0.475 -1.491,-0.705 -2.314,-0.649l-2.712,0l0,4.974l2.728,0c0.816,0.057 1.627,-0.167 2.298,-0.633Z" style="fill:rgb(29,24,50);fill-rule:nonzero;"/>            <path d="M64.014,29.112l0,2.135c-0.164,-0.033 -0.332,-0.052 -0.499,-0.056c-0.759,-0.043 -1.501,0.234 -2.046,0.763c-0.525,0.607 -0.791,1.398 -0.738,2.199l0,4.648l-2.245,0l0,-9.583l2.134,0l0,1.388c0.638,-0.996 1.77,-1.494 3.394,-1.494Z" style="fill:rgb(29,24,50);fill-rule:nonzero;"/>            <path d="M74.805,34.733l-7.524,0c0.111,0.673 0.482,1.276 1.032,1.679c0.607,0.422 1.335,0.633 2.073,0.602c0.977,0.031 1.923,-0.35 2.606,-1.049l1.213,1.388c-0.443,0.511 -1.007,0.903 -1.64,1.14c-1.629,0.594 -3.429,0.51 -4.996,-0.233c-0.775,-0.393 -1.42,-1.001 -1.859,-1.751c-0.444,-0.758 -0.677,-1.62 -0.677,-2.498c-0.013,-0.882 0.207,-1.753 0.638,-2.523c0.417,-0.733 1.03,-1.335 1.771,-1.737c0.781,-0.425 1.658,-0.641 2.548,-0.627c0.872,-0.014 1.733,0.199 2.497,0.619c0.724,0.402 1.318,1.002 1.716,1.729c0.424,0.796 0.637,1.689 0.618,2.592c0.012,0.223 0.007,0.446 -0.016,0.669Zm-6.631,-3.209c-0.501,0.434 -0.825,1.038 -0.907,1.696l5.448,0c-0.148,-1.364 -1.341,-2.394 -2.712,-2.342c-0.668,-0.019 -1.32,0.212 -1.829,0.646Z" style="fill:rgb(29,24,50);fill-rule:nonzero;"/>            <path d="M84.813,29.72c0.727,0.401 1.327,1 1.729,1.727c0.836,1.609 0.836,3.53 0,5.14c-0.401,0.728 -1.001,1.328 -1.729,1.729c-0.767,0.413 -1.627,0.622 -2.498,0.607c-1.164,0.054 -2.292,-0.422 -3.067,-1.293l0,4.649l-2.245,0l0,-13.061l2.134,0l0,1.257c0.365,-0.449 0.837,-0.8 1.371,-1.021c0.573,-0.232 1.186,-0.347 1.804,-0.339c0.872,-0.016 1.733,0.193 2.501,0.605Zm-0.719,6.484c1.061,-1.247 1.061,-3.098 0,-4.344c-0.531,-0.553 -1.273,-0.856 -2.04,-0.832c-0.51,-0.008 -1.012,0.119 -1.457,0.369c-0.432,0.248 -0.786,0.612 -1.021,1.052c-0.504,0.992 -0.504,2.168 0,3.161c0.235,0.439 0.589,0.804 1.021,1.052c0.445,0.249 0.947,0.376 1.457,0.369c0.77,0.018 1.512,-0.292 2.04,-0.852l0,0.025Z" style="fill:rgb(29,24,50);fill-rule:nonzero;"/>            <path d="M96.089,30.137c0.74,0.664 1.11,1.681 1.11,3.053l0,5.62l-2.12,0l0,-1.18c-0.288,0.431 -0.698,0.766 -1.177,0.963c-0.584,0.236 -1.21,0.35 -1.84,0.333c-0.647,0.015 -1.29,-0.111 -1.884,-0.369c-0.504,-0.216 -0.936,-0.57 -1.247,-1.021c-0.296,-0.442 -0.449,-0.964 -0.438,-1.496c-0.026,-0.804 0.332,-1.574 0.963,-2.073c0.648,-0.518 1.66,-0.777 3.036,-0.777l2.498,0l0,-0.145c0.037,-0.578 -0.183,-1.145 -0.602,-1.546c-0.511,-0.392 -1.149,-0.58 -1.79,-0.53c-0.54,0 -1.077,0.084 -1.591,0.25c-0.491,0.149 -0.948,0.393 -1.346,0.719l-0.877,-1.635c0.546,-0.403 1.161,-0.7 1.815,-0.877c0.731,-0.207 1.487,-0.309 2.246,-0.305c1.413,-0.006 2.495,0.333 3.244,1.016Zm-2.045,6.785c0.428,-0.249 0.755,-0.643 0.921,-1.11l0,-1.11l-2.315,0c-1.295,0 -1.942,0.426 -1.942,1.277c-0.009,0.386 0.18,0.751 0.499,0.968c0.399,0.261 0.871,0.387 1.346,0.358c0.52,0.008 1.032,-0.124 1.482,-0.383l0.009,0Z" style="fill:rgb(29,24,50);fill-rule:nonzero;"/>            <path d="M108.878,29.218l-4.488,10.355c-0.291,0.862 -0.82,1.624 -1.526,2.198c-0.639,0.437 -1.4,0.661 -2.173,0.638c-0.482,0 -0.96,-0.079 -1.416,-0.233c-0.423,-0.133 -0.814,-0.354 -1.146,-0.649l0.897,-1.652c0.22,0.213 0.479,0.383 0.763,0.5c0.281,0.118 0.583,0.179 0.888,0.18c0.357,0.019 0.71,-0.089 0.996,-0.305c0.312,-0.281 0.555,-0.63 0.708,-1.021l0.158,-0.38l-4.182,-9.623l2.334,0l2.992,7.091l3.03,-7.091l2.165,-0.008Z" style="fill:rgb(29,24,50);fill-rule:nonzero;"/>            <path d="M128.855,26.251l-4.163,12.567l-2.498,0l-3.102,-9.311l-3.162,9.3l-2.497,0l-4.161,-12.556l2.423,0l3.122,9.55l3.267,-9.55l2.154,0l3.175,9.603l3.214,-9.603l2.228,0Z" style="fill:rgb(29,24,50);fill-rule:nonzero;"/>            <path d="M136.729,30.137c0.74,0.664 1.11,1.681 1.11,3.053l0,5.62l-2.12,0l0,-1.18c-0.293,0.431 -0.707,0.764 -1.191,0.958c-0.584,0.236 -1.21,0.349 -1.84,0.333c-0.647,0.014 -1.29,-0.112 -1.884,-0.369c-0.504,-0.217 -0.936,-0.571 -1.247,-1.022c-0.296,-0.442 -0.449,-0.964 -0.438,-1.496c-0.026,-0.804 0.332,-1.574 0.963,-2.073c0.648,-0.514 1.66,-0.771 3.036,-0.771l2.498,0l0,-0.145c0.037,-0.578 -0.183,-1.145 -0.602,-1.546c-0.512,-0.393 -1.152,-0.582 -1.796,-0.53c-0.54,0 -1.076,0.084 -1.59,0.25c-0.481,0.146 -0.93,0.384 -1.321,0.699l-0.877,-1.634c0.545,-0.403 1.161,-0.7 1.815,-0.877c0.73,-0.207 1.486,-0.31 2.245,-0.306c1.412,0.008 2.492,0.353 3.239,1.036Zm-2.045,6.785c0.428,-0.249 0.755,-0.643 0.921,-1.11l0,-1.11l-2.315,0c-1.295,0 -1.942,0.426 -1.942,1.277c-0.009,0.386 0.18,0.751 0.499,0.968c0.399,0.261 0.871,0.387 1.346,0.358c0.523,0.006 1.039,-0.13 1.491,-0.394l0,0.011Z" style="fill:rgb(29,24,50);fill-rule:nonzero;"/>            <path d="M149.499,29.218l-4.488,10.355c-0.292,0.862 -0.821,1.624 -1.527,2.198c-0.638,0.437 -1.399,0.661 -2.173,0.638c-0.481,0 -0.959,-0.079 -1.415,-0.233c-0.424,-0.133 -0.815,-0.354 -1.146,-0.649l0.896,-1.652c0.221,0.213 0.48,0.383 0.763,0.5c0.282,0.118 0.583,0.179 0.888,0.18c0.358,0.019 0.711,-0.089 0.997,-0.305c0.312,-0.281 0.554,-0.63 0.707,-1.021l0.159,-0.38l-4.183,-9.623l2.334,0l2.992,7.091l3.031,-7.091l2.165,-0.008Z" style="fill:rgb(29,24,50);fill-rule:nonzero;"/>        </g>        <g id="Layer_2" transform="matrix(1,0,0,1,415.696,222.574)">            <path d="M17.921,47.233l0,-19.727c0.006,-6.171 5.084,-11.245 11.254,-11.246c6.175,0 11.257,5.081 11.257,11.257c0,6.175 -5.082,11.257 -11.257,11.257l-5.421,0l0,-5.881l5.421,0c2.955,0 5.387,-2.432 5.387,-5.387c0,-2.956 -2.432,-5.387 -5.387,-5.387c-2.954,0.001 -5.384,2.432 -5.384,5.387l0,13.843c0.012,3.212 -2.617,5.866 -5.829,5.884l-0.041,0Z" style="fill:url(#_Linear1);fill-rule:nonzero;"/>            <path d="M15.184,26.162l5.39,0c2.953,-0.001 5.383,-2.431 5.384,-5.384c-0.001,-2.954 -2.433,-5.384 -5.387,-5.384c-2.954,0.001 -5.384,2.433 -5.384,5.387l0,5.134l-0.02,8.881c-0.016,3.201 -2.652,5.826 -5.853,5.829l0,-19.847c0,-6.174 5.08,-11.255 11.254,-11.257c6.175,-0.004 11.26,5.072 11.266,11.246c0,0.003 0,0.005 0,0.008c0,6.174 -5.079,11.254 -11.252,11.257l-5.431,0l0.033,-5.87Z" style="fill:url(#_Linear2);fill-rule:nonzero;"/>            <path d="M24.615,17.212c-1.017,-1.158 -2.486,-1.821 -4.027,-1.818c-2.955,0 -5.387,2.432 -5.387,5.387l0,13.841c0.001,3.222 -2.645,5.876 -5.867,5.883l0,-19.705c0,-0.002 0,-0.003 0,-0.005c0,-6.175 5.079,-11.256 11.254,-11.257c4.505,-0.002 8.595,2.702 10.36,6.847c-2.32,-0.25 -4.443,-0.036 -6.333,0.827Z" style="fill:url(#_Radial3);fill-rule:nonzero;"/>            <path d="M24.598,17.228c0.906,-0.428 1.873,-0.709 2.867,-0.832c1.154,-0.135 2.317,-0.094 3.475,0c-0.703,-1.381 -1.178,-2.649 -2.953,-4.083c-3.067,1.146 -5.59,3.392 -5.59,3.392c0,0 1.43,0.555 2.201,1.523Z" style="fill:url(#_Linear4);fill-rule:nonzero;"/>            <path d="M25.736,23.212c1.078,-0.78 2.403,-1.143 3.727,-1.021c1.646,0.155 2.19,0.535 2.19,0.535c0,0 -0.441,1.957 -0.921,2.87c-2.853,-0.76 -6.001,-1.41 -6.001,-1.41c0.306,-0.353 0.642,-0.679 1.005,-0.974Z" style="fill:url(#_Linear5);fill-rule:nonzero;"/>            <path d="M23.788,32.929l-0.034,5.833l4.913,-0.027l-0.305,-5.806l-4.574,0Z" style="fill:url(#_Linear6);fill-rule:nonzero;"/>            <path d="M15.223,26.162l-0.031,5.837l4.913,-0.028l-0.305,-5.809l-4.577,0Z" style="fill:url(#_Linear7);fill-rule:nonzero;"/>            <path d="M157.442,10.767c4.318,0 4.951,-2.409 9.231,-2.409c1.54,-0.016 3.048,0.444 4.318,1.316l0,16.458c-1.073,-1.015 -2.512,-1.555 -3.988,-1.496c-4.183,0 -5.776,2.498 -9.5,2.498c-3.361,0 -4.363,-0.997 -4.363,-0.997l0,-16.735c0,0 0.477,1.365 4.302,1.365Z" style="fill:url(#_Linear8);fill-rule:nonzero;"/>            <path d="M160.17,16.89c-0.819,0.744 -3.716,0.744 -3.716,0.744l0,2.991c1.288,0.031 2.567,-0.219 3.749,-0.732l0,3.608l3.267,-1.324l0,-3.492c1.236,-0.624 2.603,-0.946 3.988,-0.938l0,-2.992c-1.329,0.1 -2.637,0.386 -3.885,0.852l0,-3.51l-3.331,1.262c0,0 -0.036,2.285 -0.036,3.545l-0.036,-0.014Z" style="fill:white;fill-rule:nonzero;"/>        </g>    </g>    <defs>        <linearGradient id="_Linear1" x1="0" y1="0" x2="1" y2="0" gradientUnits="userSpaceOnUse" gradientTransform="matrix(13.3968,-12.689,12.689,13.3968,18.0982,26.5838)"><stop offset="0" style="stop-color:rgb(159,0,38);stop-opacity:1"/><stop offset="0.19" style="stop-color:rgb(159,0,38);stop-opacity:1"/><stop offset="0.31" style="stop-color:rgb(172,0,24);stop-opacity:1"/><stop offset="1" style="stop-color:rgb(232,0,0);stop-opacity:1"/></linearGradient>        <linearGradient id="_Linear2" x1="0" y1="0" x2="1" y2="0" gradientUnits="userSpaceOnUse" gradientTransform="matrix(11.6094,-2.98631,2.98631,11.6094,9.57506,14.9411)"><stop offset="0" style="stop-color:rgb(163,0,34);stop-opacity:1"/><stop offset="0.19" style="stop-color:rgb(165,0,34);stop-opacity:1"/><stop offset="0.31" style="stop-color:rgb(172,0,24);stop-opacity:1"/><stop offset="1" style="stop-color:rgb(232,0,0);stop-opacity:1"/></linearGradient>        <radialGradient id="_Radial3" cx="0" cy="0" r="1" gradientUnits="userSpaceOnUse" gradientTransform="matrix(22.0865,0,0,-22.0865,26.9573,-0.814728)"><stop offset="0" style="stop-color:rgb(255,41,7);stop-opacity:1"/><stop offset="1" style="stop-color:rgb(250,0,12);stop-opacity:0"/></radialGradient>        <linearGradient id="_Linear4" x1="0" y1="0" x2="1" y2="0" gradientUnits="userSpaceOnUse" gradientTransform="matrix(-1.40989,-4.36845,4.36845,-1.40989,27.5012,7.19779)"><stop offset="0" style="stop-color:rgb(146,0,46);stop-opacity:0.96"/><stop offset="0.17" style="stop-color:rgb(146,0,46);stop-opacity:0.96"/><stop offset="0.54" style="stop-color:rgb(164,0,31);stop-opacity:0.51"/><stop offset="0.83" style="stop-color:rgb(247,0,38);stop-opacity:0.18"/><stop offset="1" style="stop-color:rgb(252,43,53);stop-opacity:0"/></linearGradient>        <linearGradient id="_Linear5" x1="0" y1="0" x2="1" y2="0" gradientUnits="userSpaceOnUse" gradientTransform="matrix(-1.09072,5.18718,-5.18718,-1.09072,28.8501,8.89355)"><stop offset="0" style="stop-color:rgb(146,0,46);stop-opacity:0.96"/><stop offset="0.17" style="stop-color:rgb(146,0,46);stop-opacity:0.96"/><stop offset="0.54" style="stop-color:rgb(164,0,31);stop-opacity:0.51"/><stop offset="0.9" style="stop-color:rgb(232,0,0);stop-opacity:0.18"/><stop offset="1" style="stop-color:rgb(232,0,0);stop-opacity:0.18"/></linearGradient>        <linearGradient id="_Linear6" x1="0" y1="0" x2="1" y2="0" gradientUnits="userSpaceOnUse" gradientTransform="matrix(4.92075,0.0277538,-0.0277538,4.92075,22.2058,24.3968)"><stop offset="0" style="stop-color:rgb(146,0,46);stop-opacity:0.96"/><stop offset="0.17" style="stop-color:rgb(146,0,46);stop-opacity:0.96"/><stop offset="0.63" style="stop-color:rgb(164,0,31);stop-opacity:0.51"/><stop offset="0.87" style="stop-color:rgb(181,0,24);stop-opacity:0.18"/><stop offset="1" style="stop-color:rgb(174,0,33);stop-opacity:0"/></linearGradient>        <linearGradient id="_Linear7" x1="0" y1="0" x2="1" y2="0" gradientUnits="userSpaceOnUse" gradientTransform="matrix(4.91242,-0.0305292,0.0305292,4.91242,13.6465,26.2206)"><stop offset="0" style="stop-color:rgb(146,0,46);stop-opacity:0.96"/><stop offset="0.17" style="stop-color:rgb(146,0,46);stop-opacity:0.96"/><stop offset="0.63" style="stop-color:rgb(164,0,31);stop-opacity:0.51"/><stop offset="0.87" style="stop-color:rgb(181,0,24);stop-opacity:0.18"/><stop offset="1" style="stop-color:rgb(174,0,33);stop-opacity:0"/></linearGradient>        <linearGradient id="_Linear8" x1="0" y1="0" x2="1" y2="0" gradientUnits="userSpaceOnUse" gradientTransform="matrix(23.6018,-11.8009,11.8009,23.6018,150.229,12.2573)"><stop offset="0" style="stop-color:rgb(136,0,25);stop-opacity:1"/><stop offset="0.19" style="stop-color:rgb(146,0,22);stop-opacity:1"/><stop offset="0.31" style="stop-color:rgb(172,0,24);stop-opacity:1"/><stop offset="1" style="stop-color:rgb(232,0,0);stop-opacity:1"/></linearGradient>    </defs></svg>