<?xml version="1.0" encoding="UTF-8" standalone="no"?><!DOCTYPE svg PUBLIC "-//W3C//DTD SVG 1.1//EN" "http://www.w3.org/Graphics/SVG/1.1/DTD/svg11.dtd"><svg width="100%" height="100%" viewBox="0 0 1024 512" version="1.1" xmlns="http://www.w3.org/2000/svg" xmlns:xlink="http://www.w3.org/1999/xlink" xml:space="preserve" style="fill-rule:evenodd;clip-rule:evenodd;stroke-linejoin:round;stroke-miterlimit:2;"><title>Flender</title><desc>Flender is a Peer-to-Peer Crowd Finance platform which helps businesses raise​ growth finance very quickly.Flender launched early 2017 and is successfully raising funds for Irish businesses, while lenders are currently participating from 28 countries.</desc>    <g id="flender-512x256.svg" transform="matrix(2.21739,0,0,2.21739,-55.6522,-27.8261)">        <path d="M214.15,179.25l0,-63.66l-1.22,-13.31l15.23,0l1.52,9.64c5.32,-7.64 13.4,-11.92 23.45,-11.92c15.23,0 24.22,8.57 24.22,26.62l0,52.64l-18.12,0l0,-48.67c0,-9.33 -1.67,-16.52 -11.42,-16.52c-8.496,-0.016 -15.503,6.955 -15.53,15.45l0,49.74l-18.13,0l0,-0.01Zm-34.61,-11.62c-13,0 -18.58,-9.64 -19.19,-19.58c14,-0.16 43.11,-3.21 43.11,-26.77c0,-13.62 -9.3,-21.27 -24.22,-21.27c-24.22,0 -37.16,19.89 -37.16,42.38c0,23 10.36,39.18 35.48,39.18c14.31,0 24.37,-6.43 26.81,-8.57l-5.65,-12.1c-3.66,2.6 -10.2,6.73 -19.19,6.73l0.01,0Zm-1.38,-54.63c5.48,0 9.14,3.37 9.14,9c0,11.78 -19.34,14.38 -27.56,14.23c0.45,-11.31 6.26,-23.23 18.42,-23.23Zm177.52,-40.1l-18,0l0,28.91c-3.832,-1.23 -7.836,-1.841 -11.86,-1.81c-23.45,0 -36.86,17.6 -36.86,43.76c0,19.13 6.25,37.79 30,37.79c8.268,0.189 16.087,-3.849 20.72,-10.7l0.61,0.16l1.22,8.27l15.49,0l-1.37,-15l0,-91.38l0.05,0Zm-18,82.47c0,6 -5.78,12.7 -15.08,12.7c-12.34,0 -15.69,-12.09 -15.69,-26c0,-15 4.87,-28.77 19.34,-28.77c3.936,0.011 7.826,0.845 11.42,2.45l0,39.63l0.01,-0.01Zm86.13,5.51c-3.66,2.6 -10.2,6.74 -19.19,6.74c-13,0 -18.58,-9.64 -19.19,-19.58c14,-0.16 43.11,-3.21 43.11,-26.77c0,-13.62 -9.3,-21.27 -24.22,-21.27c-24.22,0 -37.16,19.89 -37.16,42.38c0,23 10.36,39.18 35.48,39.18c14.31,0 24.37,-6.43 26.81,-8.57l-5.64,-12.11Zm-20,-46.32c5.48,0 9.14,3.37 9.14,9c0,11.78 -19.34,14.38 -27.56,14.23c0.5,-11.3 6.29,-23.22 18.47,-23.22l-0.05,-0.01Zm54.27,66.25l-18.08,0l0,-64.57l-1.37,-12.39l14.92,0l1.83,11.15c3.36,-8.72 10.81,-13.46 18.43,-13.46c4.263,-0.074 8.47,0.986 12.19,3.07l-3.2,15.46c-3.275,-1.936 -6.996,-2.993 -10.8,-3.07c-8.22,0 -13.56,6.58 -13.86,15.45l-0.06,48.36Zm-367.19,-90.12l0,-16.22l-64.89,0l0,106.34l18.58,0l0,-47.74l38.42,0l0,-16.21l-38.42,0l0,-26.17l46.31,0Zm46.2,75.58c-3.006,1.435 -6.264,2.268 -9.59,2.45c-6.25,0 -8.22,-3.52 -8.22,-13l0,-81.25l-18.13,0l0,85.07c0,11.47 1.22,23.56 21.78,23.56c6.55,0 14,-2 18.12,-4.59l-3.96,-12.24Z" style="fill:url(#_Linear1);fill-rule:nonzero;"/>    </g>    <defs>        <linearGradient id="_Linear1" x1="0" y1="0" x2="1" y2="0" gradientUnits="userSpaceOnUse" gradientTransform="matrix(460.16,0,0,460.16,26.01,127.51)"><stop offset="0" style="stop-color:rgb(0,59,113);stop-opacity:1"/><stop offset="0.15" style="stop-color:rgb(0,59,113);stop-opacity:1"/><stop offset="0.85" style="stop-color:rgb(34,211,197);stop-opacity:1"/><stop offset="1" style="stop-color:rgb(34,211,197);stop-opacity:1"/></linearGradient>    </defs></svg>