<?xml version="1.0" encoding="UTF-8" standalone="no"?><!DOCTYPE svg PUBLIC "-//W3C//DTD SVG 1.1//EN" "http://www.w3.org/Graphics/SVG/1.1/DTD/svg11.dtd"><svg width="100%" height="100%" viewBox="0 0 1024 512" version="1.1" xmlns="http://www.w3.org/2000/svg" xmlns:xlink="http://www.w3.org/1999/xlink" xml:space="preserve" style="fill-rule:evenodd;clip-rule:evenodd;stroke-linejoin:round;stroke-miterlimit:2;"><title>WeCan.Fund</title><desc>WeCan.Fund connects investors to Swiss SMEs seeking crowdfunded loans in a secure, user-friendly, transparent platform.We co-create, run and scale joint ventures to transform socio-economic paradigms through pioneering blockchain solutions.</desc>    <g transform="matrix(1.11954,0,0,1.11954,-103.228,19.4118)">        <g transform="matrix(1.92637,0,0,1.2393,56.106,-318.262)">            <g transform="matrix(61.7599,0,0,96,135.179,463.789)">                <path d="M0.386,-0.117l0,-0.664l0.044,0l0,0.664c0.008,0.014 0.017,0.026 0.028,0.037c0.029,0.029 0.064,0.043 0.104,0.043c0.041,0 0.076,-0.015 0.105,-0.043c0.03,-0.029 0.044,-0.064 0.044,-0.105l0,-0.596l0.044,0l0,0.6c-0.001,0.051 -0.019,0.095 -0.056,0.131c-0.038,0.038 -0.083,0.057 -0.137,0.057c-0.053,0 -0.098,-0.019 -0.136,-0.056c-0.007,-0.007 -0.013,-0.014 -0.018,-0.02c-0.005,0.006 -0.011,0.013 -0.018,0.02c-0.038,0.037 -0.083,0.056 -0.136,0.056c-0.053,0 -0.099,-0.019 -0.136,-0.057c-0.037,-0.036 -0.056,-0.08 -0.057,-0.131l0,-0.6l0.044,0l0,0.596c0,0.041 0.015,0.076 0.044,0.105c0.03,0.028 0.065,0.043 0.105,0.043c0.04,0 0.075,-0.014 0.104,-0.043c0.011,-0.011 0.021,-0.023 0.028,-0.037Z" style="fill:rgb(220,6,28);fill-rule:nonzero;"/>            </g>            <g transform="matrix(61.7599,0,0,96,183.398,463.789)">                <path d="M0.165,-0.09c0.041,0.038 0.09,0.057 0.147,0.057c0.061,0 0.113,-0.022 0.157,-0.065c0.005,-0.006 0.01,-0.011 0.015,-0.017l0.047,0.016c-0.009,0.012 -0.018,0.023 -0.029,0.034c-0.052,0.052 -0.116,0.079 -0.19,0.079c-0.074,0 -0.137,-0.027 -0.189,-0.079c-0.053,-0.052 -0.079,-0.116 -0.079,-0.19c0,-0.074 0.026,-0.137 0.079,-0.189c0.052,-0.053 0.115,-0.079 0.189,-0.079c0.063,0 0.119,0.019 0.167,0.057c0.007,0.007 0.015,0.014 0.023,0.022c0.003,0.003 0.006,0.006 0.008,0.008l-0.345,0.346Zm0.28,-0.342c-0.038,-0.029 -0.083,-0.044 -0.133,-0.044c-0.061,0 -0.113,0.021 -0.156,0.065c-0.044,0.043 -0.065,0.095 -0.065,0.156c0,0.051 0.014,0.095 0.044,0.133l0.31,-0.31Z" style="fill:rgb(220,6,28);fill-rule:nonzero;"/>            </g>            <g transform="matrix(61.7599,0,0,96,218.892,463.789)">                <path d="M0.697,-0.125l0.033,0.03c-0.076,0.07 -0.166,0.104 -0.269,0.104c-0.111,0 -0.205,-0.039 -0.283,-0.117c-0.078,-0.078 -0.117,-0.172 -0.117,-0.283c0,-0.11 0.039,-0.204 0.117,-0.282c0.078,-0.078 0.172,-0.118 0.283,-0.118c0.103,0 0.193,0.035 0.269,0.104l-0.033,0.031c-0.067,-0.06 -0.146,-0.09 -0.236,-0.09c-0.098,0 -0.182,0.035 -0.251,0.104c-0.069,0.07 -0.104,0.153 -0.104,0.251c0,0.099 0.035,0.183 0.104,0.252c0.069,0.069 0.153,0.104 0.251,0.104c0.09,0 0.169,-0.03 0.236,-0.09Z" style="fill:rgb(220,6,28);fill-rule:nonzero;"/>            </g>            <g transform="matrix(61.7599,0,0,96,266.991,463.789)">                <path d="M0.591,0l-0.044,0l0,-0.098c-0.009,0.012 -0.018,0.023 -0.028,0.033c-0.052,0.052 -0.116,0.079 -0.19,0.079c-0.074,0 -0.137,-0.027 -0.189,-0.079c-0.053,-0.052 -0.079,-0.116 -0.079,-0.189c0,-0.075 0.026,-0.138 0.079,-0.19c0.052,-0.053 0.115,-0.079 0.189,-0.079c0.074,0 0.138,0.026 0.19,0.079c0.01,0.01 0.019,0.021 0.028,0.032l0,-0.067l0.044,0l0,0.479Zm-0.044,-0.211l0,-0.087c-0.008,-0.043 -0.029,-0.081 -0.061,-0.113c-0.043,-0.043 -0.096,-0.065 -0.157,-0.065c-0.061,0 -0.113,0.022 -0.157,0.065c-0.043,0.043 -0.065,0.095 -0.065,0.157c0,0.061 0.022,0.113 0.065,0.156c0.044,0.043 0.096,0.065 0.157,0.065c0.061,0 0.114,-0.022 0.157,-0.065c0.032,-0.033 0.053,-0.07 0.061,-0.113Z" style="fill:rgb(220,6,28);fill-rule:nonzero;"/>            </g>            <g transform="matrix(61.7599,0,0,96,308.004,463.789)">                <path d="M0.117,-0.373l0,0.373l-0.044,0l0,-0.479l0.044,0l0,0.03c0.04,-0.039 0.087,-0.059 0.14,-0.059c0.056,0 0.103,0.017 0.138,0.053c0.036,0.035 0.054,0.08 0.055,0.134l0,0.321l-0.044,0l0,-0.317c0,-0.041 -0.015,-0.075 -0.044,-0.104c-0.03,-0.029 -0.065,-0.043 -0.105,-0.043c-0.041,0 -0.075,0.014 -0.105,0.042c-0.016,0.016 -0.027,0.033 -0.035,0.049Z" style="fill:rgb(220,6,28);fill-rule:nonzero;"/>            </g>            <g transform="matrix(61.7599,0,0,96,340.301,463.789)">                <path d="M0.12,-0.135c0.019,0 0.036,0.007 0.05,0.02c0.014,0.014 0.02,0.031 0.02,0.05c0,0.02 -0.006,0.037 -0.02,0.051c-0.014,0.014 -0.031,0.02 -0.05,0.02c-0.02,0 -0.036,-0.006 -0.05,-0.02c-0.014,-0.014 -0.021,-0.031 -0.021,-0.051c0,-0.019 0.007,-0.036 0.021,-0.05c0.014,-0.013 0.03,-0.02 0.05,-0.02Z" style="fill:rgb(220,6,28);fill-rule:nonzero;"/>            </g>            <g transform="matrix(61.7599,0,0,96,355.078,463.789)">                <path d="M0.449,-0.781l0,0.101l-0.275,0l0,0.239l0.275,0l0,0.101l-0.275,0l0,0.34l-0.101,0l0,-0.781l0.376,0Z" style="fill:rgb(220,6,28);fill-rule:nonzero;"/>            </g>            <g transform="matrix(61.7599,0,0,96,385.505,463.789)">                <path d="M0.286,0.007c-0.063,0 -0.114,-0.02 -0.153,-0.058c-0.039,-0.039 -0.059,-0.088 -0.06,-0.146l0,-0.305l0.102,0l0,0.301c0,0.029 0.01,0.054 0.032,0.075c0.021,0.021 0.047,0.031 0.079,0.031c0.029,0 0.054,-0.01 0.075,-0.031c0.021,-0.02 0.032,-0.045 0.032,-0.075l0,-0.301l0.101,0l0,0.305c-0.001,0.058 -0.021,0.107 -0.059,0.146c-0.039,0.038 -0.088,0.058 -0.149,0.058Z" style="fill:rgb(220,6,28);fill-rule:nonzero;"/>            </g>            <g transform="matrix(61.7599,0,0,96,420.547,463.789)">                <path d="M0.175,-0.368l0,0.368l-0.102,0l0,-0.502l0.102,0l0,0.058c0.021,-0.057 0.063,-0.086 0.127,-0.086c0.055,0 0.098,0.02 0.13,0.058c0.032,0.039 0.048,0.087 0.049,0.145l0,0.327l-0.101,0l0,-0.323c0,-0.029 -0.01,-0.054 -0.031,-0.074c-0.022,-0.021 -0.047,-0.031 -0.076,-0.031c-0.029,0 -0.054,0.01 -0.075,0.03c-0.012,0.012 -0.02,0.022 -0.023,0.03Z" style="fill:rgb(220,6,28);fill-rule:nonzero;"/>            </g>            <g transform="matrix(61.7599,0,0,96,454.894,463.789)">                <path d="M0.509,-0.228l0,-0.074c-0.006,-0.032 -0.021,-0.06 -0.047,-0.086c-0.034,-0.034 -0.075,-0.051 -0.123,-0.051c-0.048,0 -0.089,0.017 -0.123,0.051c-0.034,0.034 -0.051,0.075 -0.051,0.123c0,0.048 0.017,0.089 0.051,0.123c0.034,0.034 0.075,0.051 0.123,0.051c0.048,0 0.089,-0.017 0.123,-0.051c0.026,-0.026 0.041,-0.054 0.047,-0.086Zm0,-0.24l0,-0.313l0.102,0l0,0.781l-0.102,0l0,-0.063c-0.049,0.051 -0.105,0.076 -0.17,0.076c-0.077,0 -0.142,-0.027 -0.197,-0.081c-0.054,-0.055 -0.081,-0.12 -0.081,-0.197c0,-0.077 0.027,-0.143 0.081,-0.197c0.055,-0.054 0.12,-0.081 0.197,-0.081c0.065,0 0.121,0.025 0.17,0.075Z" style="fill:rgb(220,6,28);fill-rule:nonzero;"/>            </g>        </g>        <g>            <g transform="matrix(1.15388,0,0,1.02231,-41.1978,-8.50163)">                <path d="M271.784,160.119c0,-10.86 -7.812,-19.677 -17.434,-19.677c-9.622,0 -17.434,8.817 -17.434,19.677l0,109.823c0,10.86 7.812,19.678 17.434,19.678c9.622,0 17.434,-8.818 17.434,-19.678l0,-109.823Z" style="fill:rgb(220,6,28);"/>            </g>            <g transform="matrix(1.0801,0,0,0.923868,-73.1664,16.2621)">                <path d="M271.784,160.823c0,-11.249 -7.812,-20.381 -17.434,-20.381c-9.622,0 -17.434,9.132 -17.434,20.381l0,108.415c0,11.249 7.812,20.382 17.434,20.382c9.622,0 17.434,-9.133 17.434,-20.382l0,-108.415Z" style="fill:rgb(220,6,28);"/>            </g>            <g transform="matrix(1.08542,0,0,0.835176,-124.524,39.8689)">                <path d="M271.784,163.099c0,-12.505 -7.812,-22.657 -17.434,-22.657c-9.622,0 -17.434,10.152 -17.434,22.657l0,103.863c0,12.505 7.812,22.658 17.434,22.658c9.622,0 17.434,-10.153 17.434,-22.658l0,-103.863Z" style="fill:rgb(220,6,28);"/>            </g>            <g transform="matrix(0.856424,0,0,0.635041,-108.91,85.1991)">                <path d="M271.784,163.953c0,-12.976 -7.812,-23.511 -17.434,-23.511c-9.622,0 -17.434,10.535 -17.434,23.511l0,102.155c0,12.977 7.812,23.512 17.434,23.512c9.622,0 17.434,-10.535 17.434,-23.512l0,-102.155Z" style="fill:rgb(220,6,28);"/>            </g>        </g>    </g></svg>