<?xml version="1.0" encoding="UTF-8" standalone="no"?><!DOCTYPE svg PUBLIC "-//W3C//DTD SVG 1.1//EN" "http://www.w3.org/Graphics/SVG/1.1/DTD/svg11.dtd"><svg width="100%" height="100%" viewBox="0 0 1024 512" version="1.1" xmlns="http://www.w3.org/2000/svg" xmlns:xlink="http://www.w3.org/1999/xlink" xml:space="preserve" style="fill-rule:evenodd;clip-rule:evenodd;stroke-linejoin:round;stroke-miterlimit:2;"><title>Procentas</title><desc></desc>    <g transform="matrix(4.30718,0,0,4.30718,-23.3826,-449.828)">        <g>            <g transform="matrix(1,0,0,1,0,42.0475)">                <path d="M56.325,138.602c1.168,1.274 2.846,2.073 4.709,2.073l175.281,-0c3.528,-0 6.392,-2.864 6.392,-6.392l-0,-24.917c-0,-3.527 -2.864,-6.391 -6.392,-6.391l-175.281,0c-1.863,0 -3.541,0.799 -4.709,2.073c-1.142,-1.272 -2.798,-2.073 -4.64,-2.073l-39.559,0c-3.44,0 -6.233,2.793 -6.233,6.233l0,25.234c0,3.44 2.793,6.233 6.233,6.233l39.559,-0c1.842,-0 3.498,-0.801 4.64,-2.073Z" style="fill:rgb(143,176,197);"/>            </g>            <g transform="matrix(39.1806,0,0,39.1806,15.4898,177.805)">                <path d="M0.069,-0.665c0.032,-0.031 0.07,-0.047 0.115,-0.047c0.045,0 0.083,0.016 0.114,0.047c0.032,0.031 0.048,0.068 0.048,0.112c0,0.044 -0.016,0.082 -0.047,0.113c-0.032,0.031 -0.07,0.046 -0.115,0.046c-0.045,0 -0.083,-0.015 -0.114,-0.046c-0.032,-0.031 -0.048,-0.069 -0.048,-0.113c0,-0.044 0.016,-0.081 0.047,-0.112Zm0.115,0.194c0.023,0 0.043,-0.008 0.058,-0.023c0.015,-0.016 0.023,-0.036 0.023,-0.059c0,-0.023 -0.008,-0.043 -0.023,-0.058c-0.015,-0.016 -0.035,-0.024 -0.058,-0.024c-0.024,0 -0.044,0.008 -0.059,0.024c-0.015,0.015 -0.023,0.035 -0.023,0.058c-0,0.023 0.008,0.043 0.023,0.059c0.015,0.015 0.035,0.023 0.059,0.023Zm0.229,0.212c0.032,-0.031 0.07,-0.047 0.115,-0.047c0.045,0 0.083,0.016 0.114,0.046c0.032,0.032 0.048,0.069 0.048,0.113c0,0.044 -0.016,0.082 -0.048,0.113c-0.031,0.031 -0.069,0.046 -0.114,0.046c-0.045,0 -0.083,-0.015 -0.114,-0.046c-0.032,-0.031 -0.048,-0.069 -0.048,-0.113c-0,-0.044 0.016,-0.081 0.047,-0.112Zm0.115,0.194c0.023,0 0.043,-0.008 0.058,-0.023c0.015,-0.016 0.023,-0.036 0.023,-0.059c-0,-0.023 -0.008,-0.043 -0.023,-0.059c-0.015,-0.015 -0.035,-0.023 -0.058,-0.023c-0.024,-0 -0.044,0.008 -0.059,0.023c-0.015,0.016 -0.023,0.036 -0.023,0.059c0,0.023 0.008,0.043 0.023,0.058c0.015,0.016 0.035,0.024 0.059,0.024Zm-0.439,0.058l0.471,-0.724l0.057,0.039l-0.471,0.724l-0.057,-0.039Z" style="fill:rgb(233,233,233);fill-rule:nonzero;"/>            </g>            <g transform="matrix(0.540779,0,0,1,28.762,40.4424)">                <rect x="51.355" y="118.364" width="11.277" height="8.196" style="fill:rgb(46,46,46);"/>            </g>            <g transform="matrix(0.49621,0,0,1,25.8722,40.4605)">                <rect x="51.355" y="118.364" width="11.277" height="8.196" style="fill:rgb(233,233,233);"/>            </g>        </g>        <g transform="matrix(3.73767,0,0,0.982754,-169.175,-20.7792)">            <g transform="matrix(7.46016,0,0,28.3729,63.8569,197.905)">                <path d="M0.297,-0.366c0.04,0 0.071,-0.01 0.093,-0.03c0.021,-0.019 0.032,-0.046 0.032,-0.08c-0,-0.034 -0.011,-0.061 -0.033,-0.08c-0.021,-0.02 -0.052,-0.03 -0.092,-0.03l-0.103,0l-0,0.22l0.103,0Zm-0.223,0.366l-0,-0.7l0.238,0c0.069,0 0.125,0.021 0.167,0.064c0.043,0.042 0.065,0.095 0.065,0.16c0,0.065 -0.021,0.118 -0.065,0.161c-0.042,0.042 -0.098,0.063 -0.167,0.063l-0.118,0l-0,0.252l-0.12,0Z" style="fill:rgb(46,46,46);fill-rule:nonzero;"/>            </g>            <g transform="matrix(7.46016,0,0,28.3729,68.0794,197.905)">                <path d="M0.074,-0l0,-0.7l0.23,0c0.069,0 0.125,0.02 0.168,0.061c0.043,0.041 0.064,0.093 0.064,0.157c0,0.053 -0.014,0.098 -0.041,0.135c-0.027,0.037 -0.066,0.062 -0.115,0.075l0.175,0.272l-0.14,-0l-0.166,-0.264l-0.055,-0l-0,0.264l-0.12,-0Zm0.215,-0.378c0.039,0 0.07,-0.009 0.092,-0.027c0.022,-0.017 0.033,-0.043 0.033,-0.077c-0,-0.034 -0.011,-0.06 -0.033,-0.078c-0.022,-0.017 -0.053,-0.026 -0.092,-0.026l-0.095,0l-0,0.208l0.095,-0Z" style="fill:rgb(46,46,46);fill-rule:nonzero;"/>            </g>            <g transform="matrix(7.46016,0,0,28.3729,72.4287,197.905)">                <path d="M0.134,-0.609c0.067,-0.069 0.152,-0.103 0.254,-0.103c0.102,-0 0.187,0.034 0.253,0.103c0.067,0.069 0.101,0.155 0.101,0.259c0,0.104 -0.034,0.19 -0.101,0.259c-0.067,0.069 -0.151,0.103 -0.253,0.103c-0.102,-0 -0.187,-0.034 -0.254,-0.103c-0.067,-0.069 -0.1,-0.155 -0.1,-0.259c0,-0.104 0.033,-0.19 0.1,-0.259Zm0.086,0.435c0.043,0.048 0.099,0.072 0.168,0.072c0.069,-0 0.125,-0.024 0.167,-0.072c0.043,-0.048 0.065,-0.107 0.065,-0.176c-0,-0.069 -0.022,-0.128 -0.065,-0.176c-0.043,-0.048 -0.098,-0.072 -0.167,-0.072c-0.069,0 -0.125,0.024 -0.168,0.072c-0.043,0.048 -0.064,0.107 -0.064,0.176c-0,0.069 0.021,0.128 0.064,0.176Z" style="fill:rgb(46,46,46);fill-rule:nonzero;"/>            </g>            <g transform="matrix(7.46016,0,0,28.3729,78.2178,197.905)">                <path d="M0.389,-0.1c0.023,-0 0.045,-0.003 0.067,-0.009c0.021,-0.006 0.039,-0.013 0.053,-0.021c0.014,-0.009 0.026,-0.017 0.037,-0.025c0.011,-0.009 0.019,-0.016 0.024,-0.022l0.008,-0.009l0.08,0.079c-0.003,0.003 -0.006,0.008 -0.011,0.013c-0.005,0.005 -0.015,0.015 -0.032,0.028c-0.017,0.014 -0.036,0.026 -0.055,0.037c-0.019,0.01 -0.044,0.019 -0.075,0.028c-0.031,0.009 -0.063,0.013 -0.096,0.013c-0.101,0 -0.186,-0.035 -0.253,-0.103c-0.068,-0.069 -0.102,-0.156 -0.102,-0.259c0,-0.103 0.034,-0.189 0.102,-0.259c0.067,-0.068 0.152,-0.103 0.253,-0.103c0.031,-0 0.062,0.004 0.091,0.011c0.029,0.008 0.054,0.017 0.073,0.028c0.019,0.011 0.037,0.021 0.052,0.032c0.015,0.011 0.026,0.02 0.033,0.027l0.01,0.012l-0.081,0.079c-0.002,-0.002 -0.004,-0.005 -0.007,-0.009c-0.003,-0.003 -0.011,-0.009 -0.022,-0.018c-0.012,-0.009 -0.024,-0.016 -0.037,-0.023c-0.013,-0.007 -0.029,-0.013 -0.049,-0.019c-0.021,-0.005 -0.042,-0.008 -0.063,-0.008c-0.067,0 -0.123,0.024 -0.167,0.073c-0.044,0.049 -0.066,0.108 -0.066,0.177c0,0.069 0.022,0.128 0.066,0.177c0.044,0.049 0.1,0.073 0.167,0.073Z" style="fill:rgb(46,46,46);fill-rule:nonzero;"/>            </g>            <g transform="matrix(7.46016,0,0,28.3729,83.2608,197.905)">                <path d="M0.194,-0.586l0,0.17l0.28,-0l0,0.114l-0.28,-0l0,0.188l0.31,-0l0,0.114l-0.43,-0l-0,-0.7l0.424,-0l0,0.114l-0.304,0Z" style="fill:rgb(46,46,46);fill-rule:nonzero;"/>            </g>            <g transform="matrix(7.46016,0,0,28.3729,87.3341,197.905)">                <path d="M0.074,-0.7l0.108,0l0.35,0.482l0,-0.482l0.12,0l0,0.7l-0.108,-0l-0.35,-0.481l0,0.481l-0.12,-0l-0,-0.7Z" style="fill:rgb(46,46,46);fill-rule:nonzero;"/>            </g>            <g transform="matrix(7.46016,0,0,28.3729,92.7501,197.905)">                <path d="M0.207,-0l0,-0.586l-0.193,0l-0,-0.114l0.506,-0l0,0.114l-0.193,0l0,0.586l-0.12,-0Z" style="fill:rgb(46,46,46);fill-rule:nonzero;"/>            </g>            <g transform="matrix(7.46016,0,0,28.3729,96.4578,197.905)">                <path d="M0.006,-0l0.272,-0.7l0.122,0l0.272,0.7l-0.121,-0l-0.064,-0.166l-0.296,0l-0.064,0.166l-0.121,-0Zm0.333,-0.549l-0.105,0.273l0.21,0l-0.105,-0.273Z" style="fill:rgb(46,46,46);fill-rule:nonzero;"/>            </g>            <g transform="matrix(7.46016,0,0,28.3729,101.516,197.905)">                <path d="M0.424,-0.183c0,-0.027 -0.01,-0.048 -0.029,-0.063c-0.019,-0.014 -0.052,-0.029 -0.099,-0.046c-0.03,-0.011 -0.056,-0.022 -0.078,-0.033c-0.023,-0.011 -0.046,-0.025 -0.069,-0.042c-0.023,-0.017 -0.041,-0.039 -0.053,-0.064c-0.013,-0.025 -0.019,-0.052 -0.019,-0.083c0,-0.052 0.021,-0.098 0.064,-0.138c0.043,-0.04 0.098,-0.06 0.165,-0.06c0.027,-0 0.054,0.004 0.08,0.011c0.025,0.008 0.046,0.017 0.064,0.028c0.017,0.011 0.032,0.022 0.045,0.033c0.013,0.011 0.023,0.02 0.029,0.028l0.01,0.011l-0.083,0.082c-0.001,-0.002 -0.003,-0.005 -0.006,-0.009c-0.003,-0.003 -0.01,-0.01 -0.02,-0.019c-0.01,-0.009 -0.02,-0.017 -0.03,-0.024c-0.011,-0.007 -0.024,-0.013 -0.04,-0.019c-0.017,-0.005 -0.033,-0.008 -0.049,-0.008c-0.03,0 -0.055,0.008 -0.076,0.024c-0.021,0.017 -0.031,0.037 -0.031,0.06c0,0.019 0.007,0.035 0.021,0.049c0.013,0.015 0.027,0.025 0.041,0.032c0.014,0.006 0.041,0.017 0.082,0.032c0.003,0.001 0.006,0.002 0.007,0.003c0.031,0.011 0.056,0.022 0.077,0.033c0.021,0.011 0.041,0.024 0.061,0.041c0.019,0.017 0.034,0.037 0.044,0.06c0.009,0.023 0.014,0.05 0.014,0.081c0,0.061 -0.023,0.109 -0.07,0.143c-0.047,0.035 -0.105,0.052 -0.174,0.052c-0.033,-0 -0.064,-0.005 -0.093,-0.015c-0.03,-0.009 -0.054,-0.021 -0.073,-0.036c-0.019,-0.014 -0.035,-0.028 -0.049,-0.042c-0.015,-0.014 -0.025,-0.026 -0.031,-0.035l-0.01,-0.015l0.09,-0.076c0.001,0.003 0.004,0.006 0.007,0.011c0.003,0.005 0.01,0.013 0.021,0.025c0.011,0.013 0.022,0.024 0.034,0.033c0.012,0.009 0.027,0.017 0.046,0.025c0.019,0.007 0.038,0.011 0.058,0.011c0.033,0 0.062,-0.007 0.086,-0.02c0.024,-0.014 0.036,-0.034 0.036,-0.061Z" style="fill:rgb(46,46,46);fill-rule:nonzero;"/>            </g>        </g>    </g></svg>