<?xml version="1.0" encoding="UTF-8" standalone="no"?><!DOCTYPE svg PUBLIC "-//W3C//DTD SVG 1.1//EN" "http://www.w3.org/Graphics/SVG/1.1/DTD/svg11.dtd"><svg width="100%" height="100%" viewBox="0 0 1024 512" version="1.1" xmlns="http://www.w3.org/2000/svg" xmlns:xlink="http://www.w3.org/1999/xlink" xml:space="preserve" style="fill-rule:evenodd;clip-rule:evenodd;stroke-linejoin:round;stroke-miterlimit:2;"><title>Property Partner</title><desc>Property Partner is the simpler, smarter way to grow your property portfolio. Choose a property, decide how much to invest, and start earning from your share - or sell it on. Build a diversified portfolio in minutes, with properties selected by expert teams. Invest in residential, purpose-built student accommodation and commercial properties from across the UK. </desc>    <g id="property-partner-512x256.svg" transform="matrix(2.21741,0,0,2.21741,-55.5774,-27.8721)">        <path d="M67.59,160.35c-16.92,-1.88 -29.67,-9.89 -37.16,-25.52c-2.434,-4.744 -3.938,-9.911 -4.43,-15.22c-0.22,-3.23 0.67,-6.4 1.52,-9.51c4.75,-17.1 14.94,-30.1 29.89,-39.55c1.42,-0.89 2.81,-0.89 3.68,-0.06c0.978,1.065 1.164,2.647 0.46,3.91c-1.11,2.12 -2.22,4.23 -3.22,6.41c-4.15,8.803 -6.79,18.241 -7.81,27.92c-1,9.68 -0.25,19.19 3.7,28.24c3.12,7.374 8.587,13.517 15.55,17.47c1.87,1.07 2.42,2.6 1.63,4.28c-0.79,1.68 -2.22,1.73 -3.81,1.63Z" style="fill:rgb(77,135,189);fill-rule:nonzero;"/>        <path d="M102.6,86.84c-8.2,0.15 -15.87,1.33 -23,4.84c-6.773,3.172 -12.224,8.619 -15.4,15.39c-0.493,1.48 -2.099,2.308 -3.59,1.85c-1.393,-0.421 -2.288,-1.796 -2.11,-3.24c0.398,-9.741 3.797,-19.124 9.73,-26.86c7.3,-9.45 17.21,-14.52 28.73,-16.77c1.931,-0.225 3.887,-0.072 5.76,0.45c11.658,2.298 22.396,7.95 30.89,16.26c4.855,4.604 9.006,9.897 12.32,15.71c1.23,2.16 0.06,4.58 -2.26,4.76c-0.686,0.049 -1.368,-0.15 -1.92,-0.56c-9.17,-6.38 -19.45,-9.76 -30.45,-11.2c-2.888,-0.356 -5.791,-0.567 -8.7,-0.63Z" style="fill:rgb(77,135,189);fill-rule:nonzero;"/>        <path d="M81.06,194.09c-4.7,-0.445 -9.318,-1.521 -13.73,-3.2c-8.049,-3.048 -15.39,-7.71 -21.57,-13.7c-4.728,-4.516 -8.795,-9.677 -12.08,-15.33c-0.589,-0.805 -0.804,-1.826 -0.59,-2.8c0.296,-1.332 1.487,-2.287 2.851,-2.287c0.622,0 1.228,0.199 1.729,0.567c8.57,6 18.17,9.3 28.42,10.92c5.356,0.885 10.801,1.1 16.21,0.64c8.85,-0.8 17.14,-3.17 24.22,-8.83c3.686,-2.957 6.645,-6.721 8.65,-11c0.78,-1.64 2,-2.35 3.51,-2c1.493,0.368 2.474,1.828 2.25,3.35c-1,17.63 -10.75,34.47 -30.1,41.29c-3.14,1.212 -6.424,2.012 -9.77,2.38Z" style="fill:rgb(77,135,189);fill-rule:nonzero;"/>        <path d="M154.5,137.11c-0.405,4.611 -1.386,9.153 -2.92,13.52c-5.188,14.679 -15.286,27.127 -28.58,35.23c-1.4,0.85 -2.52,0.91 -3.38,0.17c-0.948,-0.99 -1.162,-2.483 -0.53,-3.7c0.87,-1.81 1.85,-3.57 2.73,-5.38c4.271,-8.666 7.037,-17.996 8.18,-27.59c1.23,-8.983 0.395,-18.128 -2.44,-26.74c-2.728,-8.507 -8.403,-15.768 -16,-20.47c-0.247,-0.177 -0.512,-0.328 -0.79,-0.45c-1.188,-0.227 -2.055,-1.276 -2.055,-2.485c0,-0.256 0.039,-0.511 0.115,-0.755c0.206,-1.481 1.539,-2.563 3.03,-2.46c7.997,0.445 15.742,2.965 22.47,7.31c7.936,5.214 13.964,12.872 17.17,21.81c1.252,3.298 2.189,6.706 2.8,10.18c0.11,0.59 0.14,1.19 0.2,1.81Z" style="fill:rgb(77,135,189);fill-rule:nonzero;"/>        <path d="M466.55,104.84c0.82,-2.1 1.62,-4.17 2.43,-6.24c1.11,-2.83 2.19,-5.66 3.34,-8.47c0.31,-0.75 0.18,-1 -0.63,-1c-0.81,0 -1.35,-0.21 -2,-0.27c-0.65,-0.06 -1.12,-0.38 -1,-1.24c0.28,-1.45 0.48,-2.92 0.67,-4.38c0,-0.015 -0.001,-0.03 -0.001,-0.046c0,-0.861 0.709,-1.57 1.57,-1.57c0.074,0 0.148,0.006 0.221,0.016c4.6,0.04 9.2,0.04 13.8,0c0.78,0 1.08,0.19 1,1c-0.09,1.67 0.05,3.34 -0.1,5c-0.06,0.62 -0.27,1.05 -0.9,1.1c-2.21,0.15 -3.18,1.64 -3.9,3.47c-3.587,9.107 -7.183,18.21 -10.79,27.31c-0.72,1.83 -1.41,3.68 -2.16,5.51c-0.24,0.58 -0.15,0.81 0.5,0.88c1.51,0.16 3,0.39 4.52,0.54c0.91,0.09 1.24,0.57 1.23,1.44l0,4.67c0,0.65 -0.21,0.85 -0.85,0.85l-22,0c-0.53,0 -0.72,-0.13 -0.7,-0.7c0,-1.75 0.06,-3.5 0,-5.24c0,-0.75 0.28,-1 1,-1c1.28,-0.14 2.55,-0.36 3.83,-0.54c0.969,-0.089 1.81,-0.716 2.17,-1.62c0.667,-1.493 1.333,-2.983 2,-4.47c0.363,-0.765 0.363,-1.655 0,-2.42c-3.96,-8.867 -7.893,-17.707 -11.8,-26.52c-0.61,-1.38 -1.9,-1.65 -3.14,-2c-1.49,-0.41 -1.5,-0.38 -1.2,-1.9c0.3,-1.52 0.57,-2.75 0.84,-4.12c0.076,-0.729 0.699,-1.29 1.432,-1.29c0.056,0 0.112,0.003 0.168,0.01l16.76,0c0.72,0 0.9,0.27 0.89,0.94c0,1.6 -0.06,3.19 0,4.79c0,1 -0.47,1.37 -1.31,1.53l-0.9,0.15c-1.6,0.29 -1.6,0.29 -1,1.76c1.793,4.387 3.593,8.777 5.4,13.17c0.13,0.3 0.14,0.68 0.61,0.9Z" style="fill:rgb(77,135,189);fill-rule:nonzero;"/>        <path d="M344.74,153.86c1.807,-1.218 3.763,-2.199 5.82,-2.92c2.749,-0.919 5.685,-1.139 8.54,-0.64c4.56,0.86 7.56,4.56 7.64,9.46c0.08,5.17 0.06,10.33 0.08,15.5l0,3.64c0,1.22 0.55,1.85 1.85,1.91c0.45,0 0.9,0.11 1.35,0.17c0.739,0.018 1.337,0.631 1.337,1.37c0,0.09 -0.009,0.181 -0.027,0.27c-0.05,1.56 0,3.12 0,4.67c0,0.59 -0.2,0.79 -0.79,0.79l-13.8,0c-1.12,0 -1.44,-0.39 -1.44,-1.69l0,-17.44c0.061,-2.162 0.001,-4.325 -0.18,-6.48c-0.24,-2.13 -1.19,-2.84 -3.3,-2.42c-1.551,0.369 -3.064,0.881 -4.52,1.53c-0.714,0.326 -1.125,1.095 -1,1.87l0,15.5c0,1.45 0.29,1.75 1.67,1.89c2.6,0.26 2.6,0.26 2.6,2.83c0,1 -0.06,2.06 0,3.08c0.06,1.02 -0.22,1.22 -1.19,1.21l-15.62,0c-1,0 -2.25,0.46 -2.81,-0.25c-0.56,-0.71 -0.16,-1.82 -0.17,-2.76c-0.01,-0.94 0,-2 0,-3c0,-0.56 0.18,-0.85 0.76,-0.9c0.58,-0.05 1,-0.18 1.46,-0.21c1.42,-0.09 1.85,-0.46 1.86,-1.87l0,-18c0.071,-1.06 -0.631,-2.028 -1.66,-2.29c-2.95,-1 -3,-1.1 -2.48,-4.3c0.14,-0.9 0.29,-1.8 0.4,-2.7c0.07,-0.54 0.29,-0.76 0.88,-0.75l11.4,0c0.53,0 0.83,0.11 0.9,0.72c0.07,0.61 0.25,1.35 0.44,2.21Z" style="fill:rgb(77,135,189);fill-rule:nonzero;"/>        <path d="M315.47,168.37l0,7.75c0,2.58 1.3,3.8 4,3.43c1.54,-0.21 3.07,-0.49 4.59,-0.79c0.76,-0.15 1.18,0 1.39,0.82c0.44,1.69 1,3.35 1.49,5c0.072,0.156 0.11,0.326 0.11,0.497c0,0.489 -0.303,0.929 -0.76,1.103c-4.78,2.27 -9.76,3.36 -15,2.24c-4.81,-1 -7.19,-4.18 -7.34,-9.3c-0.18,-6.27 -0.09,-12.53 -0.09,-18.8c0,-1 -0.29,-1.25 -1.22,-1.18c-0.93,0.07 -2.12,0 -3.19,0.06c-0.42,0 -0.86,0.07 -0.84,-0.6c0.07,-2 -0.08,-3.94 0.09,-5.92c-0.036,-0.671 0.462,-1.262 1.13,-1.34c4.76,-0.88 7.05,-3.85 7.48,-8.57c0.22,-2.43 0.33,-2.42 2.75,-2.42l4.1,0c0.88,0 1.19,0.2 1.17,1.13c-0.06,2.7 0,5.4 0,8.09c0,0.91 0.26,1.16 1.15,1.14c2.62,-0.06 5.24,0 7.86,0c0.72,0 1,0.16 1,0.94c-0.05,2.2 0,4.41 0,6.61c0,0.73 -0.24,0.89 -0.91,0.88l-7.75,0c-0.93,0 -1.2,0.33 -1.19,1.18l0,8.09l-0.02,-0.04Z" style="fill:rgb(77,135,189);fill-rule:nonzero;"/>        <path d="M419.85,100.91l0,-9.8c0,-0.87 -0.25,-1.12 -1.1,-1.07c-1.14,0.07 -2.28,0 -3.42,0c-0.54,0 -0.74,-0.17 -0.73,-0.72l0,-5.81c0,-0.86 0.63,-1.06 1.26,-1.23c1.066,-0.272 2.104,-0.643 3.1,-1.11c3,-1.48 3.87,-4.21 4.27,-7.2c0.36,-2.69 0.33,-2.69 3.07,-2.69l4,0c0.76,0 1,0.24 1,1l0,8.2c0,0.86 0.17,1.18 1.11,1.16c2.66,-0.07 5.32,0 8,0c0.77,0 1,0.24 1,1c-0.04,2.2 -0.04,4.403 0,6.61c0,0.69 -0.2,0.93 -0.9,0.91l-7.41,0c-1,0 -1.67,0.35 -1.66,1.4c0.06,5.31 -0.24,10.63 0.18,15.93c0.2,2.46 1.28,3.31 3.76,3.22c1.737,-0.153 3.453,-0.488 5.12,-1c0.6,-0.15 0.79,0 1,0.55c0.56,2 1.16,3.92 1.77,5.88c0.16,0.51 0.1,0.76 -0.46,1c-3.354,1.726 -7.05,2.685 -10.82,2.81c-3,0 -6.1,-0.29 -8.66,-2.22c-1.856,-1.449 -2.98,-3.647 -3.07,-6c-0.52,-3.95 -0.33,-7.79 -0.41,-10.82Z" style="fill:rgb(77,135,189);fill-rule:nonzero;"/>        <path d="M422.66,188.08l-10,0c-1.34,0 -1.6,-0.26 -1.61,-1.59c-0.01,-1.33 0,-2.59 0,-3.87c-0.016,-0.089 -0.025,-0.179 -0.025,-0.27c0,-0.823 0.678,-1.5 1.5,-1.5c0.002,0 0.003,0 0.005,0c0.3,0 0.61,-0.06 0.9,-0.11c1.37,-0.25 1.72,-0.64 1.73,-2.07l0,-17.9c0.033,-0.924 -0.579,-1.756 -1.47,-2c-3.18,-1.19 -3.18,-1.21 -2.67,-4.6c0.51,-3.39 0.64,-3.43 3.93,-3.43l8.09,0c1.12,0 1.7,0.35 1.71,1.56c0.059,0.719 0.18,1.431 0.36,2.13c0,0.25 0,0.6 0.31,0.67c0.31,0.07 0.39,-0.3 0.54,-0.49c2.029,-2.882 5.366,-4.571 8.89,-4.5c1.441,0.055 2.875,0.222 4.29,0.5c1.024,0.098 1.815,0.971 1.81,2c0.163,2.577 0.18,5.161 0.05,7.74c-0.04,1.1 -0.04,2.2 0,3.3c0,0.53 -0.1,0.79 -0.74,0.86c-2.55,0.28 -5.08,-0.05 -7.62,0c-0.65,0 -0.95,-0.41 -1.07,-1c-0.18,-0.81 -0.35,-1.63 -0.5,-2.45c-0.11,-0.6 -0.4,-0.81 -1,-0.71c-1.91,0.153 -3.369,1.827 -3.26,3.74l0,14.7c0,1.5 0.34,1.82 1.88,1.93c1.54,0.11 3.1,0.26 4.65,0.34c0.93,0 1.14,0.58 1.13,1.36c0,1.44 -0.07,2.89 0,4.33c0,1 -0.38,1.42 -1.41,1.41c-3.56,-0.11 -6.98,-0.08 -10.4,-0.08Z" style="fill:rgb(77,135,189);fill-rule:nonzero;"/>        <path d="M240.67,119l-10,0c-1.24,0 -1.61,-0.37 -1.52,-1.55c0.104,-1.248 0.104,-2.502 0,-3.75c-0.12,-1.29 0.31,-1.81 1.63,-2c2.83,-0.34 2.46,-0.93 2.53,-3c0.1,-2.88 -0.07,-5.77 -0.07,-8.65c0,-2.54 0.09,-5.09 0.11,-7.63c0,-2 -0.28,-2.37 -2.09,-3c-2.47,-0.85 -2.65,-1.15 -2.22,-3.73c0.13,-0.79 0.24,-1.57 0.37,-2.36c0.083,-0.967 0.902,-1.719 1.873,-1.719c0.063,0 0.125,0.003 0.187,0.009l10,0c0.05,-0.006 0.1,-0.01 0.151,-0.01c0.652,0 1.19,0.538 1.19,1.19c0,0.014 -0.001,0.027 -0.001,0.04c0.07,0.79 0.24,1.57 0.38,2.36c0,0.28 -0.05,0.68 0.37,0.72c0.42,0.04 0.38,-0.32 0.53,-0.52c2.135,-2.951 5.633,-4.619 9.27,-4.42c1.404,0.028 2.8,0.219 4.16,0.57c0.807,0.156 1.413,0.84 1.47,1.66c0.161,1.969 0.204,3.946 0.13,5.92l0,5.36c0,0.68 -0.17,0.93 -0.91,0.91c-2.32,-0.05 -4.64,-0.07 -7,0c-0.089,0.016 -0.18,0.024 -0.271,0.024c-0.813,0 -1.489,-0.652 -1.519,-1.464c-0.1,-0.6 -0.31,-1.19 -0.35,-1.78c-0.06,-1 -0.59,-1.09 -1.38,-0.91c-1.689,0.257 -2.945,1.732 -2.93,3.44c-0.06,5.13 0,10.26 0,15.39c0,1.08 0.72,1.43 1.64,1.5c1.59,0.12 3.17,0.26 4.76,0.32c0.92,0 1.32,0.45 1.32,1.33l0,4.1c0,1.36 -0.28,1.67 -1.66,1.68l-10.15,-0.03Z" style="fill:rgb(77,135,189);fill-rule:nonzero;"/>        <path d="M277.58,188.08l-10,0c-1.47,0 -1.68,-0.25 -1.66,-1.74l0,-3.64c0,-1.21 0.26,-1.66 1.59,-1.88c0.22,0 0.46,0 0.68,-0.08c1.44,-0.26 1.83,-0.65 1.83,-2.13l0,-14.36c0,-1.06 0.08,-2.12 0.09,-3.18c0.094,-1.137 -0.668,-2.182 -1.78,-2.44c-2.92,-1 -2.91,-1 -2.51,-4.06c0.5,-3.77 0.6,-3.86 4.36,-3.86l7.75,0c0.091,-0.017 0.182,-0.026 0.274,-0.026c0.818,0 1.49,0.673 1.49,1.49c0,0.039 -0.001,0.078 -0.004,0.116c0.06,0.72 0.19,1.43 0.29,2.14c0,0.23 0.08,0.48 0.31,0.57c0.23,0.09 0.38,-0.16 0.52,-0.34c3.65,-4.85 8.38,-5.19 13.46,-4c0.945,0.142 1.636,0.986 1.59,1.94c0.05,3.76 0,7.52 0.06,11.28c0,0.51 -0.26,0.62 -0.71,0.65c-2.58,0.19 -5.15,-0.07 -7.73,-0.06c-0.67,0 -0.95,-0.44 -1.08,-1c-0.225,-0.803 -0.389,-1.622 -0.49,-2.45c-0.07,-0.69 -0.4,-0.8 -1,-0.73c-1.862,0.121 -3.33,1.686 -3.33,3.553c0,0.089 0.003,0.178 0.01,0.267c-0.08,5 0,10 0,14.93c0,1.14 0.71,1.6 1.76,1.67c1.51,0.1 3,0.25 4.54,0.28c1,0 1.47,0.4 1.44,1.43l0,4.33c0,1 -0.41,1.36 -1.38,1.35c-3.53,-0.04 -6.95,-0.02 -10.37,-0.02Z" style="fill:rgb(77,135,189);fill-rule:nonzero;"/>        <path d="M393.55,118.78l-10.37,0c-1,0 -1.22,-0.3 -1.17,-1.22c0.07,-1.55 0,-3.12 0,-4.67c0,-0.7 0.16,-1 0.92,-1.05c3,-0.24 3,-0.45 3,-3.51c-0.05,-5.39 0,-10.79 0,-16.18c0,-1.86 -0.17,-2.11 -1.92,-2.72c-2.28,-0.8 -2.42,-1 -2.22,-3.36c0.1,-1.21 0.33,-2.41 0.43,-3.61c0.05,-0.62 0.34,-0.74 0.88,-0.74l11.4,0c0.69,0 0.92,0.28 1,0.92c0.12,1 0.31,1.95 0.48,2.92c0.022,0.233 0.179,0.433 0.4,0.51c0.25,0.08 0.31,-0.16 0.4,-0.31c2.38,-3.88 6,-5 10.32,-4.78c0.94,0.06 1.88,0.23 2.82,0.35c1.067,0.043 1.921,0.932 1.92,2c0.08,3.84 0.06,7.67 0.09,11.51c0,0.54 -0.28,0.61 -0.72,0.61l-8,0c-0.04,0.008 -0.08,0.012 -0.12,0.012c-0.346,0 -0.63,-0.285 -0.63,-0.63c0,-0.001 0,-0.001 0,-0.002c-0.17,-1 -0.47,-1.92 -0.61,-2.89c-0.11,-0.79 -0.52,-0.9 -1.18,-0.79c-1.78,0.184 -3.149,1.7 -3.15,3.49c-0.05,5.09 0,10.18 0,15.27c-0.006,0.054 -0.01,0.108 -0.01,0.163c0,0.752 0.619,1.37 1.37,1.37c0.03,0 0.06,-0.001 0.09,-0.003c1.7,0.12 3.4,0.32 5.1,0.39c0.76,0 1.08,0.21 1,1c-0.06,1.59 -0.06,3.19 0,4.79c0,0.84 -0.19,1.11 -1.07,1.1c-3.46,0.03 -7,0.06 -10.45,0.06Z" style="fill:rgb(77,135,189);fill-rule:nonzero;"/>        <path d="M339.68,89.88c-0.609,-2.464 -2.015,-4.658 -4,-6.24c-3.76,-2.84 -8,-3.24 -12.44,-2.12c-2.425,0.723 -4.735,1.787 -6.86,3.16c-0.164,-0.551 -0.29,-1.112 -0.38,-1.68c-0.09,-1 -0.56,-1.35 -1.62,-1.34c-3.65,0.05 -7.29,0 -10.94,0c-0.61,0 -0.78,0.23 -0.83,0.79c-0.08,0.94 -0.22,1.88 -0.37,2.82c-0.47,2.93 -0.33,3.25 2.46,4.28c1.064,0.273 1.761,1.312 1.61,2.4c-0.06,1.78 0,3.57 0,5.36l0,27.48c0,0.86 -0.29,1.29 -1.11,1.39l-0.91,0.09c-1.57,0.15 -2,0.64 -2,2.17c0,1.21 0.07,2.43 0,3.64c0,1 0.42,1.49 1.41,1.49l21,0c0.66,0 1,-0.19 0.93,-0.91l0,-4.67c0,-1.07 -0.46,-1.47 -1.51,-1.51c-1.63,-0.07 -3.25,-0.25 -4.88,-0.41c-1.15,-0.11 -1.59,-0.62 -1.6,-1.79l0,-4.45c0,-0.78 -0.36,-2 0.17,-2.25c0.53,-0.25 1.48,0.49 2.23,0.84c7.47,3.51 15.22,0.75 18.51,-6.82c2.959,-6.871 3.36,-14.579 1.13,-21.72Zm-11.94,17.12c-0.658,2.289 -3.035,3.671 -5.35,3.11c-1.122,-0.198 -2.203,-0.58 -3.2,-1.13c-0.786,-0.349 -1.288,-1.14 -1.27,-2c0,-0.57 -0.11,-1.13 -0.12,-1.7l0,-5.24l0.13,0l0,-6.13c-0.03,-0.783 0.466,-1.496 1.21,-1.74c1.286,-0.589 2.626,-1.054 4,-1.39c0.346,-0.102 0.705,-0.154 1.066,-0.154c1.672,0 3.153,1.116 3.614,2.724c1.717,4.392 1.688,9.279 -0.08,13.65Z" style="fill:rgb(77,135,189);fill-rule:nonzero;"/>        <path d="M224.63,78.15c-0.9,-4.509 -4.284,-8.138 -8.72,-9.35c-2.398,-0.732 -4.893,-1.097 -7.4,-1.08c-6.84,-0.06 -13.68,0 -20.52,0l-2.17,0c-0.73,0 -0.8,0.25 -0.8,0.83l0,5.47c0,0.45 0.12,0.69 0.63,0.74c1.09,0.11 2.18,0.34 3.27,0.41c1.09,0.07 1.33,0.46 1.33,1.42l0,33.63c0,1 -0.47,1.43 -1.44,1.46c-0.797,-0.022 -1.594,0.035 -2.38,0.17c-0.93,0.22 -1.5,0.69 -1.49,1.71c0,1.17 0.06,2.35 0,3.52c0,1.62 0.27,1.93 1.9,1.93l24.58,0c0.85,0 1.23,-0.22 1.18,-1.17c-0.08,-1.55 -0.07,-3.12 0,-4.67c0,-0.91 -0.29,-1.18 -1.16,-1.21c-2.54,-0.09 -5.08,-0.25 -7.62,-0.39c-1.57,-0.08 -2,-0.5 -1.84,-2c0.138,-2.198 0.138,-4.402 0,-6.6c-0.08,-2.06 0.2,-2.38 2.29,-2.37c2.696,0.083 5.395,-0.085 8.06,-0.5c5.45,-1 9.66,-3.65 11.56,-9.09c1.471,-4.127 1.728,-8.591 0.74,-12.86Zm-17.4,13.37c-1.509,0.137 -3.027,0.161 -4.54,0.07c-0.67,0 -0.58,-0.44 -0.58,-0.85l0,-12.97c0,-0.76 0.23,-1 1,-1c1.669,-0.07 3.34,-0.013 5,0.17c2.563,0.317 4.638,2.271 5.11,4.81c1.02,4.38 -1.78,9.04 -5.99,9.77Z" style="fill:rgb(77,135,189);fill-rule:nonzero;"/>        <path d="M224.72,147.54c-0.708,-4.381 -3.85,-7.997 -8.09,-9.31c-3.299,-1.029 -6.746,-1.506 -10.2,-1.41c-4.33,-0.07 -8.66,0 -13,0l-7.07,0c-0.53,0 -1.21,-0.09 -1.21,0.81l0,5.47c-0.007,0.037 -0.01,0.074 -0.01,0.111c0,0.345 0.285,0.63 0.63,0.63c0.01,0 0.02,-0.001 0.03,-0.001c1.09,0.13 2.18,0.38 3.27,0.43c0.94,0 1.2,0.37 1.19,1.3l0,33.28c0,1.52 -0.39,1.87 -1.87,1.95c-0.83,0 -1.66,0.2 -2.49,0.23c-0.66,0 -0.79,0.32 -0.77,0.94l0,4.9c0,0.88 0.25,1.08 1.08,1c1.33,-0.07 2.66,0 4,0l21.32,0c0.91,0 1.17,-0.26 1.13,-1.15c-0.07,-1.55 -0.07,-3.12 0,-4.67c0,-0.82 -0.28,-1 -1,-1.05c-2.61,-0.12 -5.23,-0.3 -7.84,-0.44c-1.5,-0.08 -1.86,-0.36 -1.79,-1.83c0.122,-2.388 0.122,-4.782 0,-7.17c-0.08,-1.62 0.31,-2 1.9,-2c2.846,0.073 5.692,-0.095 8.51,-0.5c5.63,-1 9.77,-3.91 11.63,-9.47c1.263,-3.891 1.487,-8.046 0.65,-12.05Zm-12.19,9.06c-0.43,1.993 -2.078,3.508 -4.1,3.77c-1.905,0.32 -3.829,0.513 -5.76,0.58c-0.53,0 -0.71,-0.12 -0.7,-0.7l0,-13.08c0,-1 0.35,-1.37 1.35,-1.32c1.932,0.04 3.859,0.204 5.77,0.49c1.927,0.33 3.426,1.883 3.69,3.82c0.32,2.14 0.235,4.321 -0.25,6.43l0,0.01Z" style="fill:rgb(77,135,189);fill-rule:nonzero;"/>        <path d="M263,182.94c0,-1.89 -0.11,-2 -2,-2.16l-0.46,0c-0.037,0.003 -0.074,0.004 -0.11,0.004c-0.837,0 -1.531,-0.678 -1.55,-1.514c-0.09,-1.395 -0.09,-2.795 0,-4.19c0,-5 -0.08,-10.1 -0.2,-15.14c0.059,-4.429 -3.16,-8.277 -7.53,-9c-1.372,-0.286 -2.762,-0.48 -4.16,-0.58c-4.42,-0.33 -8.79,-0.26 -12.93,1.73c-3.409,1.647 -5.483,5.223 -5.22,9c0.06,0.68 0.25,1.08 1.06,1.14c2.8,0.21 5.6,0.46 8.38,0.8c1.14,0.14 1.51,-0.28 1.46,-1.32c-0.009,-0.153 -0.009,-0.307 0,-0.46c-0.007,-0.077 -0.011,-0.154 -0.011,-0.231c0,-1.32 1.062,-2.417 2.381,-2.459c0.94,-0.155 1.9,-0.155 2.84,0c1.273,0.049 2.314,1.068 2.39,2.34c0.147,1.281 0.211,2.571 0.19,3.86c0.08,1.08 -0.44,1.44 -1.47,1.54c-3.28,0.3 -6.57,0.57 -9.83,1.11c-4.69,0.77 -7.6,3.19 -8.48,7.25c-0.449,2.356 -0.415,4.778 0.1,7.12c0.47,3.416 3.098,6.161 6.49,6.78c4.639,1.137 9.552,0.13 13.37,-2.74c1.18,-0.87 1.24,-0.83 1.41,0.62c0.17,1.45 0.57,1.78 1.91,1.7c2.5,-0.16 5,0.07 7.22,0l3.82,0c0.69,0 0.94,-0.18 0.92,-0.9c-0.06,-1.48 0.01,-2.89 0.01,-4.3Zm-15.48,-7.42c0,2.56 -1.77,4.15 -4.86,4.33c-2.89,0.17 -3.73,-1.35 -3.35,-4c0.14,-0.894 0.87,-1.587 1.77,-1.68c1.94,-0.32 3.88,-0.58 5.82,-0.87c0.44,-0.07 0.64,0.07 0.62,0.53c-0.02,0.46 -0.03,1.17 -0.03,1.7l0.03,-0.01Z" style="fill:rgb(77,135,189);fill-rule:nonzero;"/>        <path d="M297.32,90.6c-1.54,-4.407 -5.282,-7.697 -9.85,-8.66c-2.222,-0.511 -4.503,-0.713 -6.78,-0.6l-2.73,0c-6.495,0.156 -12.228,4.395 -14.28,10.56c-1.769,5.134 -1.971,10.681 -0.58,15.93c1.44,5.72 5,9.7 10.84,11.19c3.353,0.878 6.846,1.089 10.28,0.62c5.79,-0.82 10.22,-3.68 12.62,-9.09c2.852,-6.308 3.025,-13.512 0.48,-19.95Zm-11.55,16.9c-0.565,2.24 -2.701,3.748 -5,3.53c-2.89,0 -4.45,-1 -5.34,-3.5c-1.596,-4.426 -1.642,-9.265 -0.13,-13.72c0.85,-2.6 2.82,-3.84 5.81,-3.77c2.57,0.06 4.11,1.3 4.92,3.92c0.628,2.033 0.925,4.153 0.88,6.28c0.062,2.469 -0.325,4.929 -1.14,7.26Z" style="fill:rgb(77,135,189);fill-rule:nonzero;"/>        <path d="M358.64,103.68c3,0.06 6,0 9,0l8.89,0c0.86,0 1.22,-0.1 1.28,-1.13c0.223,-3.14 0.106,-6.295 -0.35,-9.41c-1,-5.83 -4,-9.94 -9.88,-11.5c-2.491,-0.693 -5.093,-0.894 -7.66,-0.59c-6.6,0.84 -11.22,4.27 -13.44,10.56c-2.013,5.79 -1.985,12.098 0.08,17.87c1.443,4.638 5.222,8.193 9.94,9.35c1.247,0.321 2.518,0.545 3.8,0.67c5.851,0.685 11.772,-0.487 16.92,-3.35c0.4,-0.21 0.54,-0.42 0.37,-0.89c-0.873,-2.307 -1.72,-4.62 -2.54,-6.94c-0.17,-0.47 -0.34,-0.55 -0.83,-0.39c-3.245,1.095 -6.597,1.843 -10,2.23c-0.26,0.035 -0.522,0.053 -0.784,0.053c-3.056,0 -5.623,-2.395 -5.836,-5.443c-0.04,-0.77 0.11,-1.11 1.04,-1.09Zm4.69,-13.54c2.046,0.701 3.313,2.78 3,4.92c-0.1,0.49 -0.41,0.46 -0.75,0.46l-7.15,0c-0.42,0 -0.76,0 -0.73,-0.6c0.14,-3.66 2.7,-5.47 5.63,-4.79l0,0.01Z" style="fill:rgb(77,135,189);fill-rule:nonzero;"/>        <path d="M406.69,184.44c-0.85,-2.27 -1.69,-4.55 -2.49,-6.84c-0.21,-0.61 -0.44,-0.7 -1.07,-0.5c-2.919,0.957 -5.903,1.699 -8.93,2.22c-0.422,0.089 -0.853,0.134 -1.285,0.134c-3.16,0 -5.841,-2.412 -6.175,-5.554c-0.13,-0.86 0,-1.14 0.93,-1.12l18.12,0c0.47,0 0.9,0.06 0.9,-0.66c0,-3.52 0.3,-7 -0.25,-10.56c-0.736,-5.38 -4.769,-9.756 -10.07,-10.93c-2.229,-0.479 -4.517,-0.631 -6.79,-0.45c-5.528,0.108 -10.554,3.302 -13,8.26c-2.45,4.62 -2.81,9.64 -2.16,14.74c0.283,3.268 1.373,6.416 3.17,9.16c3.79,5.36 9.4,6.57 15.46,6.54c4.69,0 8.94,-1.9 13.26,-3.44c0.69,-0.21 0.56,-0.51 0.38,-1Zm-14.69,-25.38c1.72,0.26 2.84,1.48 3.23,3.49c0.07,0.37 0.08,0.75 0.15,1.13c0.12,0.66 0,1 -0.81,0.93c-1.17,-0.07 -2.35,0 -3.53,0l-3.53,0c-0.44,0 -0.7,-0.08 -0.7,-0.61c-0.03,-2.86 2.12,-5.41 5.19,-4.94Z" style="fill:rgb(77,135,189);fill-rule:nonzero;"/>    </g></svg>