<?xml version="1.0" encoding="UTF-8" standalone="no"?><!DOCTYPE svg PUBLIC "-//W3C//DTD SVG 1.1//EN" "http://www.w3.org/Graphics/SVG/1.1/DTD/svg11.dtd"><svg width="100%" height="100%" viewBox="0 0 1024 512" version="1.1" xmlns="http://www.w3.org/2000/svg" xmlns:xlink="http://www.w3.org/1999/xlink" xml:space="preserve" style="fill-rule:evenodd;clip-rule:evenodd;stroke-linejoin:round;stroke-miterlimit:2;"><title>Monify</title><desc>Monify supports small-medium enterprises by providing unsecured on-line business loans of up to 250'000 EUR in 1 business hour.</desc>    <g id="layer101" transform="matrix(1.22302,0,0,1.22302,-28.5755,104.345)">        <path d="M781.2,212.4c-1.6,-0.4 -2.1,-1.1 -1.8,-2.2c0.3,-0.9 1,-5.4 1.7,-9.9l1.2,-8.2l5.6,0.5c7.2,0.6 10,-0.8 13,-6.8l2.3,-4.8l-16.1,-40.2c-8.9,-22.2 -16.1,-40.9 -16.1,-41.6c0,-1 2.7,-1.2 11.7,-1l11.7,0.3l10.1,26.8c5.5,14.7 10.2,26.7 10.5,26.7c0.3,0 5,-12 10.5,-26.7l10.1,-26.8l11.7,-0.3c9.3,-0.2 11.7,0 11.7,1.1c0,0.7 -8.9,23.4 -19.9,50.5c-13.3,32.8 -20.9,50.4 -23,53.1c-5,6.3 -12.3,9.3 -23.4,9.7c-5.1,0.1 -10.2,0 -11.5,-0.2Z" style="fill:rgb(34,31,31);fill-rule:nonzero;"/>        <path d="M505,180.6c-9.6,-2.8 -17.8,-8.6 -22.9,-16.3c-8.2,-12.3 -9.4,-30.4 -3.1,-44.1c7.9,-17.1 26.5,-26.5 46.3,-23.3c15,2.4 25.6,10 31.9,22.9c3,6 3.3,7.7 3.6,17.2c0.3,8.8 0,11.6 -1.8,16.9c-3.9,11.7 -10.6,19.1 -21.9,24.4c-5.7,2.7 -7.7,3.1 -17,3.4c-6.6,0.1 -12.3,-0.2 -15.1,-1.1Zm20.7,-20.1c5.2,-2.2 7.2,-4.2 9.9,-10c6.2,-13.1 0,-30 -12.3,-33.4c-4.7,-1.3 -5.9,-1.3 -10.5,-0.1c-13.7,3.8 -19.2,23.6 -10.3,37.1c4.5,6.9 15,9.8 23.2,6.4Z" style="fill:rgb(34,31,31);fill-rule:nonzero;"/>        <path d="M337,139l0,-41l23,0l0,9l4.4,-3.4c9.3,-7.1 24.6,-9.3 33.2,-4.8c3.9,2 10.4,8.3 10.4,10.1c0,0.4 1.8,-0.9 3.9,-2.9c7.9,-7.5 20.1,-11.2 30.3,-9.1c7.3,1.5 11.7,4.5 14.8,10.1l2.5,4.5l0.3,34.3l0.3,34.2l-11.1,0l-11,0l0,-25.9c0,-14.2 -0.3,-27.2 -0.6,-29c-0.8,-3.8 -4.6,-7.8 -8.4,-8.6c-4.3,-1 -10.7,1.2 -15.1,5.2l-3.9,3.5l0,54.8l-11.5,0l-11.5,0l0,-28.4l0,-28.4l-2.5,-3c-4.7,-5.5 -13.5,-4.9 -20.6,1.5l-3.9,3.5l0,54.8l-11.5,0l-11.5,0l0,-41Z" style="fill:rgb(34,31,31);fill-rule:nonzero;"/>        <path d="M576,139l0,-41l22,0l0,10.2l4.2,-3.6c6.3,-5.4 13.7,-7.9 23.9,-8c7.3,0 9.3,0.3 14.2,2.7c3.1,1.6 6.6,4.2 7.8,5.8c4.4,6.3 4.9,10.3 4.9,43.6l0,31.3l-10.9,0l-11,0l-0.3,-27.2c-0.3,-23.4 -0.5,-27.7 -2,-30.4c-4.3,-7.8 -19,-7.8 -27.2,0l-3.6,3.3l0,54.3l-11,0l-11,0l0,-41Z" style="fill:rgb(34,31,31);fill-rule:nonzero;"/>        <path d="M671,139l0,-41l22,0l0,82l-11,0l-11,0l0,-41Z" style="fill:rgb(34,31,31);fill-rule:nonzero;"/>        <path d="M720,149l0,-31l-6.5,0l-6.5,0l0,-10l0,-10l12.7,0l0.6,-6.4c0.7,-7.8 2.4,-12.1 6.7,-17c5.7,-6.5 10,-8.1 21.5,-8.1c8.4,0 10.7,0.4 14,2.2c8.2,4.4 8.1,4 3.4,11.3c-2.3,3.6 -4.3,6.7 -4.5,6.9c-0.1,0.1 -1.3,-0.4 -2.6,-1.3c-2.3,-1.6 -8.3,-2.1 -11.3,-1c-2.3,0.9 -4.5,5.7 -4.5,9.9l0,3.5l16,0l0,20l-8,0l-8,0l0,62l-11.5,0l-11.5,0l0,-31Z" style="fill:rgb(34,31,31);fill-rule:nonzero;"/>        <path d="M678.5,90.3c-5.6,-1.5 -9.5,-6.6 -9.5,-12.8c0,-12.4 15.4,-17.9 23.5,-8.4c3.4,4.1 3.6,12.3 0.3,16.4c-3.4,4.3 -8.8,6.1 -14.3,4.8Z" style="fill:rgb(34,31,31);fill-rule:nonzero;"/>        <path id="layer104" d="M25,139.5c0,-45.9 0.2,-83.5 0.5,-83.5c0.3,0 14.5,5.7 31.5,12.6l31,12.7l0,141.7l-31.5,0l-31.5,0l0,-83.5Z" style="fill:rgb(164,207,89);fill-rule:nonzero;"/>        <path d="M189.2,136.3l0.3,-86.7l30,-12.2c16.5,-6.8 30.6,-12.3 31.3,-12.4c0.9,0 1.2,20.4 1.2,99l0,99l-31.5,0l-31.5,0l0.2,-86.7Z" style="fill:rgb(0,172,108);fill-rule:nonzero;"/>        <path d="M107.2,122.4l0.3,-37.6l30.4,-12.4c16.7,-6.8 30.8,-12.4 31.2,-12.4c0.5,0 0.9,22.5 0.9,50l0,50l-31.5,0l-31.5,0l0.2,-37.6Z" style="fill:rgb(109,192,104);fill-rule:nonzero;"/>    </g></svg>