<?xml version="1.0" encoding="UTF-8" standalone="no"?><!DOCTYPE svg PUBLIC "-//W3C//DTD SVG 1.1//EN" "http://www.w3.org/Graphics/SVG/1.1/DTD/svg11.dtd"><svg width="100%" height="100%" viewBox="0 0 1024 512" version="1.1" xmlns="http://www.w3.org/2000/svg" xmlns:xlink="http://www.w3.org/1999/xlink" xml:space="preserve" style="fill-rule:evenodd;clip-rule:evenodd;stroke-linejoin:round;stroke-miterlimit:2;"><title>Zank</title><desc>Zank is a platform that connects solvent people who are looking for a loan and want to pay a fairer interest with people who have money to invest and want to obtain a higher return.</desc>    <g transform="matrix(1,0,0,1,2,67.4996)">        <g transform="matrix(1.63696,0,0,1.63696,0,0)">            <path d="M571.651,71.227l49.07,0c-6.949,12.098 -15.368,23.74 -25.281,34.943c-9.913,11.211 -30.03,31.079 -30.03,31.079c0,0 49.756,74.355 57.695,90.414l-49.07,0c-5.761,-11.302 -39.254,-64.843 -39.254,-64.843c0,0 -5.466,3.877 -8.037,5.659c-2.579,1.79 -5.254,3.566 -8.037,5.362l0,53.822l-45.504,0l0,-157.331l45.504,0l0,43.124c0,3.175 -0.05,6.249 -0.145,9.224c-0.1,2.97 -0.145,5.954 -0.145,8.923l1.185,0l52.049,-60.376Z" style="fill:rgb(68,68,68);fill-rule:nonzero;"/>        </g>        <g transform="matrix(1.63696,0,0,1.63696,0,0)">            <path d="M214.683,67.915c24.576,0 43.209,6.049 55.908,18.141c12.682,12.105 19.035,28.369 19.035,48.784l0,92.768l-30.627,0l0,-17.819l-1.196,0c-6.347,6.944 -14.079,12.097 -23.201,15.463c-9.128,3.366 -19.037,5.053 -29.734,5.053c-9.925,0 -18.987,-1.291 -27.215,-3.87c-8.23,-2.56 -15.416,-6.193 -21.568,-10.856c-6.145,-4.657 -10.905,-10.201 -14.266,-16.653c-3.373,-6.43 -5.057,-13.622 -5.057,-21.561c0,-16.06 5.651,-28.74 16.957,-38.059c11.289,-9.319 28.438,-13.99 51.436,-13.99c6.347,0 13.133,0.357 20.38,1.046c7.238,0.697 13.42,1.645 18.588,2.833l0,-3.879c0,-8.321 -2.239,-14.911 -6.691,-19.772c-4.469,-4.854 -11.655,-7.285 -21.565,-7.285c-6.354,0 -11.797,1.387 -16.359,4.158c-4.565,2.786 -7.637,6.452 -9.22,10.999l-46.688,0c1.775,-6.336 4.655,-12.277 8.626,-17.834c3.954,-5.551 8.918,-10.357 14.874,-14.427c5.94,-4.063 12.935,-7.285 20.957,-9.668c8.034,-2.37 16.906,-3.572 26.626,-3.572Zm-4.77,130.867c10.514,0 18.841,-2.875 24.987,-8.625c6.138,-5.756 9.223,-12.685 9.223,-20.817l0,-11.607c-11.705,-2.978 -23.102,-4.453 -34.21,-4.453c-18.431,0 -27.651,7.627 -27.651,22.895c0,6.548 2.482,11.949 7.427,16.21c4.964,4.272 11.701,6.397 20.224,6.397Z" style="fill:rgb(68,68,68);fill-rule:nonzero;"/>        </g>        <g transform="matrix(1.63696,0,0,1.63696,0,0)">            <path d="M56.503,191.814l0,-1.182c2.961,-3.168 60.773,-69.6 65.736,-76.135c4.947,-6.547 8.869,-13.287 11.747,-20.217c2.871,-6.944 4.504,-14.782 4.902,-23.501l-138.888,0l0,35.394l76.433,0l0,1.188c-2.373,2.179 -75.361,83.114 -76.433,85.476l0,34.377l131.139,0l0,-35.401l-74.346,0l-0.29,0.001Z" style="fill:rgb(68,68,68);fill-rule:nonzero;"/>        </g>        <g transform="matrix(1.63696,0,0,1.63696,0,0)">            <circle cx="330.882" cy="28.27" r="28.27" style="fill:rgb(68,68,68);"/>        </g>        <g transform="matrix(1.63696,0,0,1.63696,0,0)">            <path d="M461.135,28.27c0,15.613 -12.66,28.27 -28.27,28.27c-15.616,0 -28.27,-12.657 -28.27,-28.27c0,-15.613 12.654,-28.27 28.27,-28.27c15.61,0 28.27,12.657 28.27,28.27Z" style="fill:rgb(68,68,68);fill-rule:nonzero;"/>        </g>        <g transform="matrix(1.63696,0,0,1.63696,0,0)">            <path d="M455.812,110.738c0,-15.836 -9.423,-29.444 -22.947,-35.611l0,-0.001c-0.003,-0.002 -0.011,-0.004 -0.014,-0.006c-1.899,-0.863 -3.87,-1.571 -5.917,-2.126c-7.052,-2.243 -14.542,-3.494 -22.339,-3.494c-19.712,0 -37.576,7.765 -50.827,20.343l0,-20.344l-12.211,0l-29.383,0l-4.177,0l0,157.336l45.629,0l0,-29.994c0.003,0.006 0.006,0.008 0.011,0.008l0,-62.888l0,-0.647c0,-15.613 12.655,-28.269 28.27,-28.269c15.61,0 28.265,12.656 28.265,28.269l0,94.349c0.047,-0.006 0.092,-0.017 0.137,-0.025l0,0.025l45.504,0l0,-77.779l0,-15.728l0,-22.572l-0.036,0c0.004,-0.283 0.035,-0.561 0.035,-0.846Z" style="fill:rgb(68,68,68);fill-rule:nonzero;"/>        </g>    </g></svg>