<?xml version="1.0" encoding="UTF-8" standalone="no"?><!DOCTYPE svg PUBLIC "-//W3C//DTD SVG 1.1//EN" "http://www.w3.org/Graphics/SVG/1.1/DTD/svg11.dtd"><svg width="100%" height="100%" viewBox="0 0 1024 512" version="1.1" xmlns="http://www.w3.org/2000/svg" xmlns:xlink="http://www.w3.org/1999/xlink" xml:space="preserve" style="fill-rule:evenodd;clip-rule:evenodd;stroke-linejoin:round;stroke-miterlimit:2;"><title>DEGIRO</title><desc>DEGIRO is the first wholesale broker for private investors. An online investment platform for all types of investors. DEGIRO enables its customers to invest worldwide at unprecedented low rates. DEGIRO is investing globally for everyone. </desc>    <g id="degiro-512x256.svg" transform="matrix(2.21739,0,0,2.21739,-55.6522,-27.8261)">        <path d="M201.9,126.84c0,24.25 -16.26,31.8 -36.87,31.8l-20.8,0l0,-63.54l20.77,0c20.64,0 36.9,7.55 36.9,31.74Zm-42.76,-19.09l0,38.32l6.14,0c10.95,0 20.87,-2.39 20.87,-19.16c0,-16.77 -9.92,-19.1 -20.87,-19.1l-6.14,0l0,-0.06Zm100.13,-12.65l0,13.16l-33.75,0l0,11.16l31.88,0l0,13.23l-31.88,0l0,12.77l33.75,0l0,13.23l-48.72,0l0,-63.55l48.72,0Zm51.56,20.9c-1.27,-4.38 -5.71,-8.57 -13.71,-8.57c-9.07,0 -16.11,6.82 -16.11,20.22c0,13.4 6.54,20.73 16.37,20.73c6.79,0 13.89,-2.64 13.89,-10.69l0,-1.23l-15.1,0l0,-12.3l29.83,0l0,35.36l-11.3,0l-0.45,-7c-4.06,5.54 -10.15,8.11 -19.16,8.11c-18.46,0 -29.75,-12.75 -29.75,-33c0,-20 12.94,-32.52 31.91,-32.52c13.89,0 25.06,7.08 28,20.93l-14.42,-0.04Zm26.6,42.61l0,-63.51l14.92,0l0,63.54l-14.92,-0.03Zm40.7,-23.86l0,24l-14.75,0l0,-63.65l24.09,0c16.21,0 28.41,3.88 28.41,19.65c0,9.37 -5.09,14.73 -12.27,17.58l15.44,26.43l-17.35,0l-13.54,-24l-10,0l-0.03,-0.01Zm0,-12.6l9.73,0c7,0 12.33,-1.23 12.33,-7.17c0,-5.94 -5.34,-7.17 -12.33,-7.17l-9.72,0l-0.01,14.34Zm42.87,5.85c0,-19.84 13.22,-32.9 32.48,-32.9c19.26,0 32.52,13.06 32.52,32.9c0,19.84 -13.28,32.9 -32.48,32.9c-19.2,0 -32.52,-13.06 -32.52,-32.9Zm49.32,0c0,-13.51 -7.69,-20.55 -16.84,-20.55c-9.15,0 -16.84,7 -16.84,20.55c0,13.55 7.69,20.55 16.84,20.55c9.15,0 16.84,-7 16.84,-20.55Z" style="fill:rgb(34,34,34);fill-rule:nonzero;"/>        <path d="M26,95.1l104.4,0l0,25.21l-104.4,0l0,-25.21Zm0,37.49l104.4,0l0,25.21l-104.4,0l0,-25.21Z" style="fill:rgb(0,159,227);fill-rule:nonzero;"/>    </g></svg>