<?xml version="1.0" encoding="UTF-8" standalone="no"?><!DOCTYPE svg PUBLIC "-//W3C//DTD SVG 1.1//EN" "http://www.w3.org/Graphics/SVG/1.1/DTD/svg11.dtd"><svg width="100%" height="100%" viewBox="0 0 1024 512" version="1.1" xmlns="http://www.w3.org/2000/svg" xmlns:xlink="http://www.w3.org/1999/xlink" xml:space="preserve" style="fill-rule:evenodd;clip-rule:evenodd;stroke-linejoin:round;stroke-miterlimit:2;"><title>Property Bridges</title><desc>Property Bridges is on a mission to bring high-quality peer to peer property loans to Ireland. Through our online platform, we bring experienced developers together with property investors. Providing much-needed finance for small to medium-sized Irish developers. For investors, we provide unprecedented access to the property market.</desc>    <g transform="matrix(1.63551,0,0,1.63551,-571.689,76.3333)">        <g transform="matrix(-4.16667,0,0,4.16667,1988.45,-351.055)">            <rect x="299.189" y="94.095" width="17.464" height="3.419" style="fill:rgb(132,207,203);"/>        </g>        <g transform="matrix(-4.16667,0,0,4.16667,1988.45,-262.789)">            <rect x="299.189" y="83.503" width="17.464" height="3.419" style="fill:rgb(132,207,203);"/>        </g>        <g transform="matrix(-4.16667,0,0,4.16667,1948.13,-306.797)">            <rect x="299.187" y="88.783" width="7.792" height="3.421" style="fill:rgb(132,207,203);"/>        </g>        <g transform="matrix(-4.16667,0,0,4.16667,2028.84,-306.797)">            <rect x="308.872" y="88.783" width="7.792" height="3.421" style="fill:rgb(132,207,203);"/>        </g>        <g transform="matrix(4.16667,0,0,4.16667,385.646,79.6992)">            <path d="M0,-4.517c0,0.766 -0.272,1.382 -0.816,1.842c-0.542,0.466 -1.285,0.698 -2.224,0.698l-2.881,0l0,-5.08l2.881,0c0.926,0 1.665,0.211 2.214,0.637c0.551,0.421 0.826,1.058 0.826,1.903m18.871,-0.18c0,0.726 -0.262,1.303 -0.786,1.733c-0.523,0.431 -1.228,0.647 -2.114,0.647l-3.623,0l0,-4.74l3.602,0c0.927,0 1.645,0.197 2.154,0.596c0.513,0.396 0.767,0.985 0.767,1.764m2.949,9.463l-3.793,-5.319c0.496,-0.135 0.947,-0.325 1.355,-0.572c0.409,-0.247 0.76,-0.549 1.053,-0.903c0.294,-0.353 0.526,-0.762 0.692,-1.223c0.169,-0.462 0.251,-0.986 0.251,-1.576c0,-0.683 -0.12,-1.302 -0.36,-1.857c-0.241,-0.555 -0.586,-1.024 -1.034,-1.403c-0.448,-0.383 -0.997,-0.679 -1.646,-0.887c-0.649,-0.206 -1.375,-0.311 -2.176,-0.311l-6.263,-0l0,14.051l2.449,-0l0,-4.896l3.1,-0l3.463,4.896l2.909,-0Zm18.931,-7.004c0,0.681 -0.117,1.328 -0.352,1.936c-0.233,0.608 -0.558,1.137 -0.972,1.585c-0.415,0.45 -0.913,0.802 -1.496,1.064c-0.581,0.261 -1.22,0.391 -1.916,0.391c-0.697,-0 -1.339,-0.133 -1.928,-0.402c-0.588,-0.267 -1.092,-0.627 -1.515,-1.082c-0.421,-0.455 -0.75,-0.986 -0.983,-1.596c-0.234,-0.61 -0.351,-1.253 -0.351,-1.937c-0,-0.683 0.117,-1.328 0.351,-1.938c0.233,-0.606 0.559,-1.135 0.973,-1.585c0.415,-0.448 0.914,-0.8 1.497,-1.064c0.581,-0.26 1.219,-0.391 1.915,-0.391c0.696,-0 1.339,0.134 1.927,0.402c0.589,0.267 1.094,0.63 1.516,1.085c0.421,0.453 0.749,0.984 0.982,1.596c0.235,0.608 0.352,1.255 0.352,1.936m2.589,-0.041c0,-0.991 -0.181,-1.926 -0.542,-2.808c-0.361,-0.883 -0.863,-1.653 -1.505,-2.308c-0.644,-0.657 -1.412,-1.177 -2.308,-1.558c-0.897,-0.379 -1.886,-0.57 -2.97,-0.57c-1.084,0 -2.074,0.194 -2.972,0.581c-0.895,0.388 -1.672,0.912 -2.327,1.574c-0.655,0.663 -1.165,1.436 -1.525,2.319c-0.362,0.885 -0.542,1.822 -0.542,2.811c0,0.991 0.18,1.925 0.542,2.808c0.36,0.885 0.862,1.653 1.505,2.308c0.642,0.656 1.41,1.175 2.308,1.558c0.896,0.381 1.887,0.57 2.97,0.57c1.084,0 2.074,-0.194 2.97,-0.58c0.897,-0.389 1.672,-0.913 2.328,-1.577c0.656,-0.661 1.165,-1.436 1.526,-2.317c0.361,-0.885 0.542,-1.822 0.542,-2.811m16.221,-2.238c0,0.766 -0.27,1.382 -0.817,1.842c-0.541,0.466 -1.283,0.698 -2.224,0.698l-2.879,0l0,-5.08l2.879,0c0.926,0 1.667,0.211 2.214,0.637c0.553,0.421 0.827,1.058 0.827,1.903m2.509,-0.049c0,-0.723 -0.124,-1.372 -0.372,-1.949c-0.247,-0.573 -0.602,-1.07 -1.062,-1.483c-0.463,-0.415 -1.025,-0.732 -1.687,-0.955c-0.662,-0.22 -1.401,-0.332 -2.217,-0.332l-5.54,0l0,14.051l2.449,0l0,-4.515l2.796,0c0.779,0 1.508,-0.103 2.194,-0.311c0.683,-0.207 1.279,-0.513 1.79,-0.915c0.509,-0.401 0.911,-0.903 1.207,-1.506c0.294,-0.601 0.442,-1.296 0.442,-2.085m38.828,-0.131c0,0.726 -0.262,1.303 -0.786,1.733c-0.521,0.431 -1.228,0.647 -2.114,0.647l-3.623,0l0,-4.74l3.603,0c0.927,0 1.645,0.197 2.155,0.596c0.511,0.396 0.765,0.985 0.765,1.764m16.281,-2.299l4.454,0l0,-2.289l-11.398,0l0,2.289l4.455,0l0,11.762l2.489,0l0,-11.762Zm18.55,6.162l5.579,-8.451l-2.83,0l-3.974,6.223l-3.934,-6.223l-2.909,0l5.579,8.512l0,5.539l2.489,0l0,-5.6Zm-31.882,5.6l-3.79,-5.319c0.493,-0.135 0.944,-0.325 1.353,-0.572c0.407,-0.247 0.76,-0.549 1.052,-0.903c0.294,-0.353 0.526,-0.762 0.694,-1.223c0.167,-0.462 0.25,-0.986 0.25,-1.576c0,-0.683 -0.121,-1.304 -0.361,-1.857c-0.241,-0.555 -0.586,-1.024 -1.034,-1.403c-0.448,-0.382 -0.995,-0.679 -1.645,-0.887c-0.65,-0.206 -1.375,-0.311 -2.178,-0.311l-6.261,0l0,14.051l2.448,0l0,-4.896l3.101,0l3.461,4.896l2.91,0Zm-101.338,-9.332c0,-0.723 -0.124,-1.372 -0.371,-1.949c-0.248,-0.573 -0.602,-1.07 -1.065,-1.483c-0.46,-0.415 -1.023,-0.732 -1.684,-0.955c-0.663,-0.22 -1.403,-0.332 -2.22,-0.332l-5.539,0l0,14.051l2.449,0l0,-4.515l2.797,0c0.78,0 1.509,-0.103 2.193,-0.311c0.683,-0.207 1.279,-0.513 1.79,-0.915c0.51,-0.401 0.91,-0.903 1.208,-1.506c0.294,-0.601 0.442,-1.296 0.442,-2.085" style="fill:rgb(44,58,76);fill-rule:nonzero;"/>        </g>        <g transform="matrix(4.16667,0,0,4.16667,856.554,169.058)">            <path d="M0,-4.822c0,-0.219 0.047,-0.426 0.145,-0.616c0.093,-0.192 0.231,-0.357 0.411,-0.494c0.177,-0.138 0.392,-0.247 0.643,-0.33c0.251,-0.082 0.532,-0.122 0.843,-0.122c0.495,-0 0.966,0.081 1.418,0.246c0.453,0.163 0.903,0.427 1.351,0.795l0.63,-0.836c-0.494,-0.39 -1.002,-0.681 -1.528,-0.876c-0.525,-0.193 -1.14,-0.29 -1.843,-0.29c-0.456,0 -0.877,0.065 -1.262,0.198c-0.382,0.132 -0.716,0.315 -1,0.552c-0.283,0.231 -0.502,0.507 -0.658,0.828c-0.155,0.32 -0.233,0.674 -0.233,1.058c0,0.402 0.063,0.748 0.19,1.042c0.131,0.294 0.33,0.55 0.595,0.77c0.265,0.219 0.598,0.407 1.008,0.561c0.407,0.156 0.886,0.293 1.436,0.413c0.504,0.111 0.918,0.225 1.245,0.343c0.324,0.119 0.576,0.251 0.761,0.397c0.182,0.148 0.312,0.309 0.384,0.489c0.075,0.18 0.111,0.383 0.111,0.61c-0,0.494 -0.195,0.891 -0.583,1.194c-0.391,0.303 -0.906,0.454 -1.556,0.454c-0.667,0 -1.257,-0.112 -1.768,-0.335c-0.511,-0.225 -1.018,-0.567 -1.521,-1.023l-0.672,0.794c0.577,0.52 1.182,0.903 1.817,1.152c0.635,0.248 1.335,0.37 2.104,0.37c0.475,-0 0.913,-0.064 1.315,-0.191c0.402,-0.126 0.745,-0.309 1.031,-0.551c0.286,-0.236 0.508,-0.525 0.67,-0.863c0.163,-0.339 0.243,-0.715 0.243,-1.127c-0,-0.739 -0.251,-1.323 -0.759,-1.742c-0.507,-0.421 -1.295,-0.753 -2.363,-0.988c-0.531,-0.111 -0.964,-0.228 -1.303,-0.349c-0.34,-0.124 -0.605,-0.261 -0.795,-0.413c-0.191,-0.151 -0.324,-0.316 -0.398,-0.502c-0.074,-0.184 -0.109,-0.388 -0.109,-0.618m-11.037,-2.387l-6.935,0l0,9.595l7.004,0l0,-0.987l-5.921,0l0,-3.357l5.236,0l-0,-0.987l-5.236,0l0,-3.277l5.852,0l0,-0.987Zm-17.326,8.299l0,-3.817l-3.963,0l0,0.961l2.92,0l0,2.393c-0.328,0.269 -0.737,0.492 -1.219,0.68c-0.484,0.191 -1,0.283 -1.549,0.283c-0.586,0 -1.11,-0.099 -1.576,-0.299c-0.466,-0.201 -0.865,-0.484 -1.194,-0.84c-0.328,-0.356 -0.581,-0.78 -0.761,-1.269c-0.177,-0.489 -0.266,-1.025 -0.266,-1.599c0,-0.539 0.092,-1.051 0.273,-1.531c0.184,-0.483 0.435,-0.901 0.754,-1.257c0.321,-0.357 0.702,-0.643 1.152,-0.851c0.448,-0.209 0.937,-0.317 1.466,-0.317c0.34,0 0.648,0.029 0.926,0.082c0.279,0.055 0.533,0.13 0.769,0.229c0.23,0.094 0.449,0.21 0.649,0.342c0.202,0.133 0.394,0.279 0.576,0.446l0.699,-0.825c-0.238,-0.2 -0.481,-0.381 -0.733,-0.541c-0.251,-0.159 -0.521,-0.292 -0.809,-0.402c-0.289,-0.113 -0.597,-0.194 -0.932,-0.249c-0.334,-0.054 -0.701,-0.082 -1.102,-0.082c-0.723,0 -1.379,0.135 -1.968,0.404c-0.589,0.27 -1.095,0.633 -1.515,1.089c-0.42,0.458 -0.747,0.989 -0.978,1.59c-0.234,0.606 -0.351,1.234 -0.351,1.892c0,0.686 0.112,1.329 0.335,1.933c0.225,0.603 0.549,1.127 0.975,1.575c0.424,0.45 0.935,0.801 1.534,1.056c0.599,0.258 1.277,0.385 2.036,0.385c0.813,0 1.545,-0.144 2.199,-0.432c0.653,-0.286 1.203,-0.629 1.653,-1.029m-19.672,-3.488c0,0.538 -0.094,1.039 -0.281,1.496c-0.188,0.455 -0.453,0.856 -0.796,1.199c-0.341,0.341 -0.761,0.609 -1.253,0.802c-0.494,0.192 -1.042,0.286 -1.645,0.286l-2.248,0l0,-7.593l2.248,0c0.603,0 1.151,0.098 1.645,0.295c0.492,0.197 0.912,0.466 1.253,0.808c0.343,0.342 0.608,0.747 0.796,1.212c0.187,0.468 0.281,0.964 0.281,1.495m1.124,-0.026c0,-0.678 -0.123,-1.307 -0.37,-1.893c-0.247,-0.584 -0.597,-1.09 -1.049,-1.521c-0.451,-0.427 -0.991,-0.764 -1.617,-1.005c-0.626,-0.245 -1.314,-0.366 -2.063,-0.366l-3.331,0l0,9.595l3.331,0c0.749,0 1.437,-0.124 2.063,-0.369c0.626,-0.248 1.166,-0.584 1.617,-1.017c0.452,-0.428 0.802,-0.938 1.049,-1.527c0.247,-0.589 0.37,-1.22 0.37,-1.897m-20.275,4.81l1.083,-0l0,-9.594l-1.083,0l0,9.594Zm-11.447,-6.682c0,0.31 -0.062,0.591 -0.186,0.838c-0.122,0.25 -0.294,0.456 -0.516,0.628c-0.22,0.166 -0.48,0.3 -0.783,0.391c-0.302,0.093 -0.631,0.138 -0.989,0.138l-2.955,0l0,-3.907l2.969,0c0.778,0 1.383,0.166 1.813,0.502c0.432,0.333 0.647,0.805 0.647,1.41m1.425,6.682l-2.947,-3.919c0.375,-0.063 0.723,-0.171 1.042,-0.328c0.319,-0.154 0.595,-0.348 0.829,-0.584c0.233,-0.23 0.413,-0.504 0.542,-0.822c0.127,-0.314 0.192,-0.672 0.192,-1.074c0,-0.43 -0.083,-0.824 -0.248,-1.175c-0.163,-0.351 -0.397,-0.654 -0.699,-0.905c-0.301,-0.251 -0.664,-0.443 -1.089,-0.583c-0.424,-0.136 -0.902,-0.205 -1.433,-0.205l-4.125,0l0,9.595l1.082,0l0,-3.728l2.743,0l2.781,3.728l1.33,0Zm-21.488,-0.958l-3.214,0l0,-3.4l3.022,-0c0.839,-0 1.472,0.144 1.902,0.433c0.427,0.288 0.641,0.7 0.641,1.233c0,0.549 -0.21,0.976 -0.629,1.278c-0.419,0.305 -0.992,0.456 -1.722,0.456m-0.384,-4.361l-2.83,0l0,-3.315l2.912,0c0.684,0 1.206,0.14 1.573,0.426c0.362,0.284 0.545,0.67 0.545,1.158c0,0.567 -0.205,1 -0.613,1.291c-0.411,0.295 -0.941,0.44 -1.587,0.44m0.165,-4.276l-4.078,0l0,9.595l4.256,0c0.52,0 0.994,-0.061 1.423,-0.177c0.427,-0.119 0.796,-0.292 1.101,-0.514c0.306,-0.225 0.54,-0.502 0.703,-0.831c0.166,-0.329 0.248,-0.697 0.248,-1.109c0,-0.328 -0.055,-0.622 -0.165,-0.878c-0.109,-0.257 -0.256,-0.476 -0.438,-0.659c-0.181,-0.181 -0.398,-0.34 -0.649,-0.472c-0.252,-0.133 -0.518,-0.238 -0.8,-0.322c0.19,-0.082 0.375,-0.184 0.553,-0.307c0.179,-0.124 0.342,-0.276 0.488,-0.459c0.143,-0.185 0.26,-0.393 0.346,-0.632c0.087,-0.237 0.13,-0.515 0.13,-0.835c0,-0.367 -0.073,-0.698 -0.219,-0.994c-0.146,-0.297 -0.356,-0.55 -0.628,-0.755c-0.274,-0.206 -0.603,-0.364 -0.984,-0.479c-0.384,-0.115 -0.813,-0.172 -1.287,-0.172" style="fill:rgb(44,58,76);fill-rule:nonzero;"/>        </g>    </g></svg>