<?xml version="1.0" encoding="UTF-8" standalone="no"?><!DOCTYPE svg PUBLIC "-//W3C//DTD SVG 1.1//EN" "http://www.w3.org/Graphics/SVG/1.1/DTD/svg11.dtd"><svg width="100%" height="100%" viewBox="0 0 1024 512" version="1.1" xmlns="http://www.w3.org/2000/svg" xmlns:xlink="http://www.w3.org/1999/xlink" xml:space="preserve" style="fill-rule:evenodd;clip-rule:evenodd;stroke-linejoin:round;stroke-miterlimit:2;"><title>Katipult</title><desc>Katipult is an award winning, proprietary cloud-based software infrastructure to digitize and automate private placements, while providing best-of-breed standards for eliminating transaction redundancy, enhancing investor experience, and accelerating deal flow.</desc>    <g id="Katipult-2021-Logo" transform="matrix(4.03561,0,0,4.03561,22.8761,1)">        <g id="g18" transform="matrix(1,0,0,1,30.9767,64.1954)">            <g id="path14" transform="matrix(1,0,0,1,-30.9767,0)">                <path d="M8.346,38.484l0,9.347l-8.346,-0l0,-47.049l8.346,0l0,26.329l10.663,-11.822l11.479,0l-12.058,12.664l12.795,19.825l-10.531,0l-8.109,-13.69l-4.239,4.396Z" style="fill:rgb(15,77,129);fill-rule:nonzero;"/>            </g>            <g id="path26" transform="matrix(1,0,0,1,0,14.1719)">                <path d="M24.865,13.781c-0.421,-1.085 -1.037,-2.084 -1.816,-2.949c-0.737,-0.834 -1.632,-1.514 -2.633,-2.001c-2.046,-0.949 -4.405,-0.949 -6.451,0c-0.99,0.481 -1.883,1.142 -2.632,1.949c-0.786,0.879 -1.402,1.897 -1.817,3.001c-0.446,1.177 -0.669,2.427 -0.658,3.686c-0.018,1.242 0.205,2.476 0.658,3.633c0.422,1.071 1.028,2.06 1.79,2.923c0.737,0.807 1.634,1.453 2.633,1.895c1.014,0.474 2.12,0.717 3.238,0.711c1.114,0.007 2.213,-0.246 3.212,-0.737c0.994,-0.476 1.888,-1.137 2.633,-1.948c0.786,-0.85 1.402,-1.842 1.817,-2.923c0.435,-1.134 0.658,-2.339 0.658,-3.554c0.011,-1.256 -0.203,-2.505 -0.632,-3.686m9.005,19.825l-7.899,0l0,-3.528c-1.24,1.335 -2.747,2.393 -4.423,3.107c-3.709,1.483 -7.861,1.397 -11.505,-0.237c-1.859,-0.851 -3.532,-2.058 -4.924,-3.554c-1.427,-1.537 -2.56,-3.321 -3.343,-5.266c-0.847,-2.127 -1.267,-4.399 -1.238,-6.687c-0.027,-2.297 0.393,-4.578 1.238,-6.714c0.773,-1.95 1.908,-3.736 3.343,-5.266c1.394,-1.501 3.066,-2.717 4.924,-3.58c1.863,-0.865 3.895,-1.305 5.95,-1.29c1.907,-0.034 3.799,0.333 5.555,1.079c1.675,0.704 3.182,1.754 4.423,3.081l0,-3.713l7.899,0l-0,32.568Z" style="fill:rgb(15,77,129);fill-rule:nonzero;"/>            </g>            <path id="path32" d="M84.42,47.726l-8.346,-0l-0,-32.516l8.346,0l-0,32.516Zm-0,-36.044l-8.346,0l-0,-7.767l8.346,0l-0,7.767Z" style="fill:rgb(15,77,129);fill-rule:nonzero;"/>            <g id="path36" transform="matrix(1,0,0,1,92.1485,14.1719)">                <path d="M24.497,13.571c-0.429,-1.06 -1.034,-2.039 -1.791,-2.897c-0.741,-0.808 -1.636,-1.461 -2.632,-1.922c-1.019,-0.454 -2.123,-0.687 -3.239,-0.684c-1.11,-0.003 -2.207,0.24 -3.212,0.711c-0.992,0.479 -1.885,1.139 -2.633,1.948c-0.809,0.887 -1.435,1.925 -1.843,3.054c-0.422,1.092 -0.636,2.252 -0.631,3.423c-0.011,1.233 0.212,2.457 0.658,3.607c0.421,1.085 1.037,2.084 1.816,2.948c0.727,0.846 1.624,1.528 2.633,2.001c2.052,0.918 4.398,0.918 6.451,0c1.004,-0.458 1.901,-1.122 2.632,-1.948c0.757,-0.867 1.362,-1.854 1.791,-2.922c0.452,-1.185 0.676,-2.445 0.658,-3.713c0.013,-1.241 -0.211,-2.474 -0.658,-3.633m7.898,10.373c-0.779,1.989 -1.902,3.825 -3.317,5.424c-1.37,1.517 -3.037,2.736 -4.897,3.581c-1.89,0.87 -3.949,1.31 -6.029,1.29c-1.805,0.026 -3.597,-0.314 -5.266,-1.001c-1.64,-0.619 -3.13,-1.579 -4.37,-2.817l-0,17.614l-8.425,-0l-0,-46.97l7.898,0l-0,3.423c1.261,-1.297 2.764,-2.334 4.423,-3.054c1.738,-0.747 3.612,-1.124 5.503,-1.106c2.077,-0.016 4.133,0.415 6.029,1.264c1.848,0.866 3.511,2.082 4.897,3.581c2.978,3.303 4.595,7.611 4.528,12.058c0.038,2.299 -0.355,4.585 -1.158,6.74" style="fill:rgb(15,77,129);fill-rule:nonzero;"/>            </g>            <g id="path40" transform="matrix(1,0,0,1,129.625,14.789)">                <path d="M29.83,32.937l-7.899,-0l0,-2.976c-0.992,1.123 -2.213,2.02 -3.58,2.633c-1.462,0.668 -3.054,1.001 -4.66,0.974c-1.81,0.027 -3.606,-0.332 -5.266,-1.053c-1.543,-0.65 -2.92,-1.64 -4.028,-2.896c-1.175,-1.296 -2.071,-2.819 -2.633,-4.476c-0.622,-1.884 -0.925,-3.86 -0.895,-5.844l-0,-18.878l8.32,0l-0,19.009c0.021,0.592 0.082,1.181 0.184,1.764c0.143,0.754 0.42,1.476 0.816,2.133c0.479,0.715 1.108,1.317 1.843,1.764c0.989,0.516 2.097,0.761 3.212,0.711c1.717,0.078 3.384,-0.584 4.581,-1.817c1.158,-1.229 1.782,-2.867 1.738,-4.555l-0,-19.009l8.319,0l-0.052,32.516Z" style="fill:rgb(15,77,129);fill-rule:nonzero;"/>            </g>            <path id="path42" d="M175.568,47.726l-8.346,-0l-0,-46.944l8.346,0l-0,46.944Z" style="fill:rgb(15,77,129);fill-rule:nonzero;"/>            <g id="path46" transform="matrix(1,0,0,1,182.281,6.89057)">                <path d="M29.145,27.25c0.023,1.96 -0.326,3.908 -1.027,5.739c-0.635,1.691 -1.612,3.232 -2.869,4.529c-1.264,1.305 -2.789,2.327 -4.476,3.001c-1.877,0.741 -3.88,1.107 -5.898,1.079c-2.034,0.023 -4.053,-0.343 -5.95,-1.079c-1.698,-0.667 -3.233,-1.69 -4.502,-3.001c-1.246,-1.306 -2.221,-2.845 -2.87,-4.529c-0.679,-1.836 -1.018,-3.781 -1,-5.739l-0,-27.25l8.32,-0l-0,8.267l20.088,0l-0,7.898l-20.088,0l-0,11.559c0.008,0.741 0.123,1.477 0.342,2.185c0.232,0.712 0.598,1.373 1.079,1.948c0.517,0.58 1.155,1.039 1.87,1.343c0.833,0.346 1.73,0.516 2.632,0.5c0.903,0.019 1.8,-0.152 2.633,-0.5c0.705,-0.308 1.334,-0.766 1.843,-1.343c0.481,-0.575 0.847,-1.236 1.08,-1.948c0.231,-0.705 0.346,-1.443 0.342,-2.185l-0,-3.107l8.346,-0l0.105,2.633Z" style="fill:rgb(15,77,129);fill-rule:nonzero;"/>            </g>        </g>        <path id="Shape" d="M213.811,71.086l-0,8.267l8.346,0l-0,-8.267l-8.346,-0Zm-112.737,10.163l-2.791,-7.53l-17.877,6.661l0,-9.294l-8.32,-0l0,12.401l-4.791,1.79l2.791,7.477l2,-0.737l0,6.266c-0.022,1.961 0.326,3.908 1.027,5.739c0.629,1.694 1.607,3.237 2.87,4.529c1.269,1.311 2.804,2.335 4.502,3.001c3.818,1.439 8.03,1.439 11.848,0c1.687,-0.673 3.212,-1.696 4.476,-3.001c1.245,-1.306 2.221,-2.845 2.869,-4.529c0.692,-1.833 1.032,-3.78 1.001,-5.739l-0,-2.633l-8.32,0l0,3.107c-0.005,0.743 -0.129,1.481 -0.368,2.185c-0.224,0.711 -0.581,1.372 -1.054,1.948c-0.521,0.575 -1.158,1.032 -1.869,1.343c-1.696,0.646 -3.57,0.646 -5.266,0c-0.718,-0.297 -1.358,-0.757 -1.869,-1.343c-0.481,-0.574 -0.847,-1.236 -1.079,-1.948c-0.24,-0.704 -0.364,-1.442 -0.369,-2.185l0,-9.794l20.589,-7.714Zm118.476,-24.407l-9.399,-2.185l-1.895,8.109l9.425,2.212l1.869,-8.136Zm-7.451,-17.534l-10.531,-0.421l-0.316,8.346l10.532,0.421l0.315,-8.346Zm-10.899,-15.797l-11.348,3.818l2.633,7.661l11.321,-3.844l-2.606,-7.635Zm-14.876,-11.663l-11.163,8.635l4.897,6.293l11.137,-8.61l-4.871,-6.318Zm-26.723,5.397l6.688,4.186l8.74,-13.901l-6.713,-4.213l-8.715,13.928Zm-16.297,0.632l7.741,1.737l4.001,-17.876l-7.608,-1.738l-4.134,17.877Zm-16.797,-16.271l2.764,20.694l7.899,-1.053l-2.739,-20.72l-7.924,1.079Zm-19.246,9.268l10.979,20.509l6.74,-3.607l-10.979,-20.509l-6.74,3.607Zm-16.719,14.506l18.93,17.298l5.266,-5.687l-18.956,-17.35l-5.24,5.739Zm-13.164,18.799l26.171,10.741l2.922,-7.082l-26.17,-10.768l-2.923,7.109Zm22.959,15.296l-30.91,-0.79l-0.184,7.478l30.909,0.816l0.185,-7.504Z" style="fill:url(#_Linear1);fill-rule:nonzero;"/>    </g>    <defs>        <linearGradient id="_Linear1" x1="0" y1="0" x2="1" y2="0" gradientUnits="userSpaceOnUse" gradientTransform="matrix(154.862,0,0,154.862,67.2947,56.3422)"><stop offset="0" style="stop-color:rgb(241,106,36);stop-opacity:1"/><stop offset="0.25" style="stop-color:rgb(241,106,36);stop-opacity:1"/><stop offset="1" style="stop-color:rgb(91,194,167);stop-opacity:1"/></linearGradient>    </defs></svg>