<?xml version="1.0" encoding="UTF-8" standalone="no"?><!DOCTYPE svg PUBLIC "-//W3C//DTD SVG 1.1//EN" "http://www.w3.org/Graphics/SVG/1.1/DTD/svg11.dtd"><svg width="100%" height="100%" viewBox="0 0 1024 512" version="1.1" xmlns="http://www.w3.org/2000/svg" xmlns:xlink="http://www.w3.org/1999/xlink" xml:space="preserve" style="fill-rule:evenodd;clip-rule:evenodd;stroke-linejoin:round;stroke-miterlimit:2;"><title>Crowdrealestate</title><desc>Crowdrealestate is a crowdfunding platform for real estate. Real estate entrepreneurs can finance real estate projects via the online platform and it is possible for everyone to invest in these real estate projects. The projects are carefully screened for quality and feasibility beforehand. Crowdrealestate has an exemption for mediating in repayable funds and is therefore under the supervision of the Netherlands Authority for the Financial Markets.</desc>    <g transform="matrix(5.49544,0,0,4.34018,456.743,-340.212)">        <g>            <g transform="matrix(39.489,0,0,50,-40.0003,114.213)">                <path d="M0.364,-0.149c-0.026,0.035 -0.06,0.052 -0.103,0.053c-0.087,0.001 -0.131,-0.051 -0.132,-0.157c0.001,-0.107 0.045,-0.159 0.132,-0.158c0.043,0.001 0.077,0.019 0.103,0.053l0.075,-0.067c-0.022,-0.026 -0.048,-0.048 -0.078,-0.064c-0.03,-0.015 -0.065,-0.024 -0.104,-0.024c-0.06,-0.001 -0.113,0.019 -0.158,0.06c-0.047,0.041 -0.071,0.108 -0.072,0.2c0.001,0.091 0.025,0.157 0.072,0.198c0.045,0.041 0.098,0.061 0.158,0.061c0.039,-0.001 0.074,-0.009 0.104,-0.026c0.03,-0.016 0.056,-0.037 0.078,-0.062l-0.075,-0.067Z" style="fill:rgb(100,188,70);fill-rule:nonzero;"/>            </g>            <g transform="matrix(39.489,0,0,50,-22.4732,114.213)">                <path d="M0.066,-0l0.102,-0l-0,-0.305c0.001,-0.037 0.011,-0.064 0.032,-0.081c0.019,-0.017 0.041,-0.025 0.067,-0.025c0.023,-0 0.045,0.008 0.067,0.025l0.074,-0.088c-0.03,-0.026 -0.066,-0.039 -0.106,-0.039c-0.055,-0 -0.099,0.02 -0.132,0.06l-0.002,-0l-0,-0.054l-0.102,0l-0,0.507Z" style="fill:rgb(100,188,70);fill-rule:nonzero;"/>            </g>            <g transform="matrix(39.489,0,0,50,-7.81908,114.213)">                <path d="M0.041,-0.254c0,0.053 0.004,0.094 0.013,0.122c0.009,0.028 0.023,0.052 0.042,0.073c0.014,0.016 0.034,0.03 0.059,0.043c0.025,0.014 0.056,0.021 0.095,0.022c0.04,-0.001 0.072,-0.008 0.097,-0.022c0.014,-0.006 0.024,-0.013 0.033,-0.021c0.009,-0.007 0.017,-0.015 0.024,-0.022c0.02,-0.021 0.034,-0.045 0.043,-0.073c0.008,-0.028 0.012,-0.069 0.012,-0.122c-0,-0.053 -0.004,-0.094 -0.012,-0.123c-0.009,-0.028 -0.023,-0.052 -0.043,-0.071c-0.014,-0.017 -0.032,-0.032 -0.057,-0.045c-0.025,-0.013 -0.057,-0.02 -0.097,-0.02c-0.039,0 -0.07,0.007 -0.095,0.02c-0.025,0.013 -0.045,0.028 -0.059,0.045c-0.019,0.019 -0.033,0.043 -0.042,0.071c-0.009,0.029 -0.013,0.07 -0.013,0.123Zm0.316,0.001c-0,0.035 -0.002,0.06 -0.005,0.076c-0.003,0.017 -0.01,0.031 -0.02,0.044c-0.007,0.01 -0.019,0.019 -0.033,0.026c-0.014,0.007 -0.03,0.011 -0.049,0.011c-0.017,-0 -0.033,-0.004 -0.048,-0.011c-0.014,-0.007 -0.025,-0.016 -0.034,-0.026c-0.009,-0.013 -0.015,-0.027 -0.019,-0.044c-0.004,-0.016 -0.006,-0.042 -0.006,-0.077c0,-0.035 0.002,-0.061 0.006,-0.078c0.004,-0.016 0.01,-0.03 0.019,-0.042c0.009,-0.011 0.02,-0.02 0.034,-0.027c0.015,-0.007 0.031,-0.01 0.048,-0.01c0.019,-0 0.035,0.003 0.049,0.01c0.014,0.007 0.026,0.016 0.033,0.027c0.01,0.012 0.017,0.026 0.02,0.042c0.003,0.017 0.005,0.043 0.005,0.079Z" style="fill:rgb(100,188,70);fill-rule:nonzero;"/>            </g>            <g transform="matrix(39.489,0,0,50,11.9254,114.213)">                <path d="M0.468,-0l0.09,-0l0.162,-0.507l-0.108,0l-0.097,0.355l-0.002,0l-0.115,-0.355l-0.074,0l-0.115,0.355l-0.002,0l-0.097,-0.355l-0.108,0l0.162,0.507l0.09,-0l0.106,-0.355l0.002,0l0.106,0.355Z" style="fill:rgb(100,188,70);fill-rule:nonzero;"/>            </g>            <g transform="matrix(39.489,0,0,50,40.4431,114.213)">                <path d="M0.369,-0.053l0,0.053l0.102,-0l0,-0.712l-0.102,0l0,0.259c-0.019,-0.018 -0.038,-0.033 -0.059,-0.044c-0.022,-0.011 -0.046,-0.016 -0.072,-0.016c-0.062,0.001 -0.107,0.024 -0.136,0.066c-0.014,0.016 -0.023,0.037 -0.028,0.063c-0.005,0.026 -0.008,0.069 -0.008,0.13c-0,0.06 0.003,0.103 0.008,0.129c0.005,0.027 0.014,0.049 0.028,0.065c0.015,0.019 0.034,0.035 0.057,0.047c0.022,0.012 0.048,0.018 0.079,0.019c0.054,-0.001 0.098,-0.021 0.131,-0.059Zm-0.1,-0.358c0.024,-0 0.043,0.005 0.057,0.014c0.014,0.009 0.024,0.022 0.029,0.037c0.006,0.015 0.011,0.032 0.013,0.05c0.001,0.018 0.001,0.037 0.001,0.056c0,0.018 -0,0.036 -0.001,0.055c-0.002,0.019 -0.007,0.036 -0.013,0.051c-0.005,0.015 -0.015,0.028 -0.029,0.037c-0.014,0.01 -0.033,0.015 -0.057,0.015c-0.024,-0 -0.042,-0.005 -0.055,-0.014c-0.014,-0.009 -0.024,-0.021 -0.031,-0.036c-0.006,-0.015 -0.01,-0.033 -0.012,-0.052c-0.002,-0.018 -0.003,-0.037 -0.003,-0.056c-0,-0.02 0.001,-0.04 0.003,-0.059c0.002,-0.018 0.006,-0.034 0.012,-0.05c0.007,-0.015 0.017,-0.027 0.031,-0.036c0.013,-0.008 0.031,-0.012 0.055,-0.012Z" style="fill:rgb(100,188,70);fill-rule:nonzero;"/>            </g>        </g>        <g transform="matrix(1,0,0,1,-1.78356,0)">            <g transform="matrix(39.489,0,0,50,-39.7592,156.618)">                <path d="M0.066,-0l0.102,-0l-0,-0.305c0.001,-0.037 0.011,-0.064 0.032,-0.081c0.019,-0.017 0.041,-0.025 0.067,-0.025c0.023,-0 0.045,0.008 0.067,0.025l0.074,-0.088c-0.03,-0.026 -0.066,-0.039 -0.106,-0.039c-0.055,-0 -0.099,0.02 -0.132,0.06l-0.002,-0l-0,-0.054l-0.102,0l-0,0.507Z" style="fill:rgb(0,31,49);fill-rule:nonzero;"/>            </g>            <g transform="matrix(39.489,0,0,50,-25.1051,156.618)">                <path d="M0.459,-0.215l-0,-0.084c-0.001,-0.067 -0.021,-0.119 -0.062,-0.157c-0.04,-0.037 -0.089,-0.057 -0.147,-0.057c-0.024,-0 -0.049,0.004 -0.073,0.013c-0.025,0.009 -0.048,0.023 -0.068,0.043c-0.02,0.02 -0.036,0.046 -0.049,0.08c-0.013,0.033 -0.019,0.075 -0.019,0.125c0,0.052 0.007,0.094 0.022,0.127c0.013,0.034 0.031,0.06 0.052,0.079c0.011,0.009 0.023,0.017 0.036,0.023c0.012,0.007 0.024,0.013 0.037,0.017c0.025,0.008 0.051,0.012 0.078,0.012c0.07,0.001 0.131,-0.027 0.183,-0.082l-0.074,-0.063c-0.033,0.033 -0.069,0.049 -0.111,0.049c-0.035,0 -0.064,-0.011 -0.086,-0.032c-0.023,-0.021 -0.035,-0.052 -0.035,-0.093l0.316,0Zm-0.316,-0.084c0.002,-0.039 0.013,-0.069 0.032,-0.089c0.019,-0.019 0.044,-0.029 0.075,-0.029c0.031,0 0.056,0.01 0.075,0.029c0.02,0.02 0.031,0.05 0.032,0.089l-0.214,0Z" style="fill:rgb(0,31,49);fill-rule:nonzero;"/>            </g>            <g transform="matrix(39.489,0,0,50,-5.36066,156.618)">                <path d="M0.332,-0l0.102,-0l0,-0.346c-0.001,-0.062 -0.02,-0.106 -0.058,-0.131c-0.038,-0.025 -0.089,-0.037 -0.153,-0.036c-0.075,-0.001 -0.133,0.023 -0.171,0.074l0.08,0.061c0.009,-0.015 0.021,-0.025 0.036,-0.031c0.015,-0.005 0.035,-0.008 0.06,-0.008c0.07,-0.001 0.105,0.02 0.104,0.065l0,0.053l-0.141,0c-0.054,0.001 -0.095,0.015 -0.123,0.044c-0.028,0.028 -0.042,0.063 -0.042,0.106c-0,0.045 0.016,0.081 0.048,0.11c0.031,0.029 0.074,0.044 0.131,0.045c0.035,-0 0.062,-0.004 0.081,-0.013c0.02,-0.008 0.035,-0.021 0.044,-0.038l0.002,0l0,0.045Zm0,-0.178c0,0.038 -0.008,0.062 -0.024,0.073c-0.017,0.011 -0.048,0.016 -0.09,0.015c-0.034,0 -0.058,-0.007 -0.073,-0.02c-0.015,-0.012 -0.023,-0.027 -0.023,-0.044c-0.001,-0.039 0.029,-0.06 0.088,-0.061l0.122,0l0,0.037Z" style="fill:rgb(0,31,49);fill-rule:nonzero;"/>            </g>            <g transform="matrix(39.489,0,0,50,14.3838,156.618)">                <path d="M0.066,-0.123c-0,0.045 0.013,0.076 0.038,0.095c0.024,0.019 0.055,0.028 0.092,0.028l0.045,-0l0,-0.096l-0.035,-0c-0.025,-0 -0.038,-0.012 -0.038,-0.035l-0,-0.581l-0.102,0l-0,0.589Z" style="fill:rgb(0,31,49);fill-rule:nonzero;"/>            </g>        </g>        <g transform="matrix(1,0,0,1,-0.661552,0)">            <g transform="matrix(39.489,0,0,50,-39.8979,195.83)">                <path d="M0.459,-0.215l-0,-0.084c-0.001,-0.067 -0.021,-0.119 -0.062,-0.157c-0.04,-0.037 -0.089,-0.057 -0.147,-0.057c-0.024,-0 -0.049,0.004 -0.073,0.013c-0.025,0.009 -0.048,0.023 -0.068,0.043c-0.02,0.02 -0.036,0.046 -0.049,0.08c-0.013,0.033 -0.019,0.075 -0.019,0.125c0,0.052 0.007,0.094 0.022,0.127c0.013,0.034 0.031,0.06 0.052,0.079c0.011,0.009 0.023,0.017 0.036,0.023c0.012,0.007 0.024,0.013 0.037,0.017c0.025,0.008 0.051,0.012 0.078,0.012c0.07,0.001 0.131,-0.027 0.183,-0.082l-0.074,-0.063c-0.033,0.033 -0.069,0.049 -0.111,0.049c-0.035,0 -0.064,-0.011 -0.086,-0.032c-0.023,-0.021 -0.035,-0.052 -0.035,-0.093l0.316,0Zm-0.316,-0.084c0.002,-0.039 0.013,-0.069 0.032,-0.089c0.019,-0.019 0.044,-0.029 0.075,-0.029c0.031,0 0.056,0.01 0.075,0.029c0.02,0.02 0.031,0.05 0.032,0.089l-0.214,0Z" style="fill:rgb(0,31,49);fill-rule:nonzero;"/>            </g>            <g transform="matrix(39.489,0,0,50,-20.1534,195.83)">                <path d="M0.081,-0.155l-0.071,0.07c0.066,0.061 0.14,0.091 0.223,0.091c0.061,-0.001 0.111,-0.015 0.15,-0.042c0.039,-0.027 0.059,-0.065 0.06,-0.114c-0,-0.042 -0.011,-0.077 -0.033,-0.104c-0.023,-0.028 -0.061,-0.044 -0.114,-0.048l-0.084,-0.006c-0.025,-0.003 -0.042,-0.009 -0.052,-0.018c-0.011,-0.009 -0.016,-0.019 -0.015,-0.03c0,-0.018 0.007,-0.033 0.02,-0.044c0.013,-0.011 0.035,-0.017 0.067,-0.017c0.028,0 0.053,0.004 0.074,0.012c0.022,0.009 0.043,0.021 0.062,0.035l0.063,-0.074c-0.025,-0.021 -0.053,-0.038 -0.084,-0.051c-0.016,-0.006 -0.034,-0.011 -0.052,-0.014c-0.019,-0.003 -0.04,-0.004 -0.063,-0.004c-0.054,-0 -0.099,0.013 -0.134,0.039c-0.036,0.026 -0.054,0.065 -0.055,0.117c0.001,0.043 0.015,0.077 0.042,0.101c0.027,0.025 0.061,0.039 0.104,0.043l0.09,0.008c0.019,0.001 0.034,0.005 0.045,0.012c0.011,0.007 0.017,0.02 0.017,0.038c-0,0.021 -0.009,0.037 -0.028,0.048c-0.019,0.011 -0.042,0.017 -0.072,0.017c-0.065,0 -0.119,-0.021 -0.16,-0.065Z" style="fill:rgb(0,31,49);fill-rule:nonzero;"/>            </g>            <g transform="matrix(39.489,0,0,50,-1.19948,195.83)">                <path d="M0.072,-0.661l-0,0.536c-0,0.04 0.011,0.071 0.035,0.092c0.023,0.022 0.052,0.033 0.088,0.033l0.053,-0l0,-0.096l-0.038,-0c-0.025,0 -0.037,-0.012 -0.036,-0.038l-0,-0.295l0.074,-0l0,-0.078l-0.074,0l-0,-0.154l-0.102,-0Z" style="fill:rgb(0,31,49);fill-rule:nonzero;"/>            </g>            <g transform="matrix(39.489,0,0,50,9.77182,195.83)">                <path d="M0.332,-0l0.102,-0l0,-0.346c-0.001,-0.062 -0.02,-0.106 -0.058,-0.131c-0.038,-0.025 -0.089,-0.037 -0.153,-0.036c-0.075,-0.001 -0.133,0.023 -0.171,0.074l0.08,0.061c0.009,-0.015 0.021,-0.025 0.036,-0.031c0.015,-0.005 0.035,-0.008 0.06,-0.008c0.07,-0.001 0.105,0.02 0.104,0.065l0,0.053l-0.141,0c-0.054,0.001 -0.095,0.015 -0.123,0.044c-0.028,0.028 -0.042,0.063 -0.042,0.106c-0,0.045 0.016,0.081 0.048,0.11c0.031,0.029 0.074,0.044 0.131,0.045c0.035,-0 0.062,-0.004 0.081,-0.013c0.02,-0.008 0.035,-0.021 0.044,-0.038l0.002,0l0,0.045Zm0,-0.178c0,0.038 -0.008,0.062 -0.024,0.073c-0.017,0.011 -0.048,0.016 -0.09,0.015c-0.034,0 -0.058,-0.007 -0.073,-0.02c-0.015,-0.012 -0.023,-0.027 -0.023,-0.044c-0.001,-0.039 0.029,-0.06 0.088,-0.061l0.122,0l0,0.037Z" style="fill:rgb(0,31,49);fill-rule:nonzero;"/>            </g>            <g transform="matrix(39.489,0,0,50,29.5163,195.83)">                <path d="M0.072,-0.661l-0,0.536c-0,0.04 0.011,0.071 0.035,0.092c0.023,0.022 0.052,0.033 0.088,0.033l0.053,-0l0,-0.096l-0.038,-0c-0.025,0 -0.037,-0.012 -0.036,-0.038l-0,-0.295l0.074,-0l0,-0.078l-0.074,0l-0,-0.154l-0.102,-0Z" style="fill:rgb(0,31,49);fill-rule:nonzero;"/>            </g>            <g transform="matrix(39.489,0,0,50,40.4876,195.83)">                <path d="M0.459,-0.215l-0,-0.084c-0.001,-0.067 -0.021,-0.119 -0.062,-0.157c-0.04,-0.037 -0.089,-0.057 -0.147,-0.057c-0.024,-0 -0.049,0.004 -0.073,0.013c-0.025,0.009 -0.048,0.023 -0.068,0.043c-0.02,0.02 -0.036,0.046 -0.049,0.08c-0.013,0.033 -0.019,0.075 -0.019,0.125c0,0.052 0.007,0.094 0.022,0.127c0.013,0.034 0.031,0.06 0.052,0.079c0.011,0.009 0.023,0.017 0.036,0.023c0.012,0.007 0.024,0.013 0.037,0.017c0.025,0.008 0.051,0.012 0.078,0.012c0.07,0.001 0.131,-0.027 0.183,-0.082l-0.074,-0.063c-0.033,0.033 -0.069,0.049 -0.111,0.049c-0.035,0 -0.064,-0.011 -0.086,-0.032c-0.023,-0.021 -0.035,-0.052 -0.035,-0.093l0.316,0Zm-0.316,-0.084c0.002,-0.039 0.013,-0.069 0.032,-0.089c0.019,-0.019 0.044,-0.029 0.075,-0.029c0.031,0 0.056,0.01 0.075,0.029c0.02,0.02 0.031,0.05 0.032,0.089l-0.214,0Z" style="fill:rgb(0,31,49);fill-rule:nonzero;"/>            </g>        </g>    </g></svg>