<?xml version="1.0" encoding="UTF-8" standalone="no"?><!DOCTYPE svg PUBLIC "-//W3C//DTD SVG 1.1//EN" "http://www.w3.org/Graphics/SVG/1.1/DTD/svg11.dtd"><svg width="100%" height="100%" viewBox="0 0 1024 512" version="1.1" xmlns="http://www.w3.org/2000/svg" xmlns:xlink="http://www.w3.org/1999/xlink" xml:space="preserve" style="fill-rule:evenodd;clip-rule:evenodd;stroke-linejoin:round;stroke-miterlimit:2;"><title>CFA</title><desc></desc>    <g id="_37a40573-ad21-48f8-ac4b-bafee752feda" transform="matrix(10.2795,0,0,10.2795,-145.891,-118.069)">        <g transform="matrix(0.215709,0,0,0.215709,8.77844,8.78429)">            <path d="M119.13,100.98l-17.93,0l-17.82,0l0,17.82l17.82,0l0,35.87l17.93,0l0,-35.87l17.94,0l0,-17.82l-17.94,0Z" style="fill:rgb(237,26,58);fill-rule:nonzero;"/>        </g>        <g transform="matrix(0.215709,0,0,0.215709,8.77844,8.78429)">            <path d="M79.8,100.98l-17.93,0l-17.94,0l-17.93,0l0,53.69l17.93,0l0,-17.93l17.94,0l0,-17.94l17.93,0l0,-17.82Z" style="fill:rgb(0,125,197);fill-rule:nonzero;"/>        </g>        <g transform="matrix(0.215709,0,0,0.215709,8.77844,8.78429)">            <path d="M146,145.53c0.024,-1.104 0.22,-2.197 0.58,-3.24c0.351,-1.084 0.947,-2.072 1.74,-2.89c0.825,-0.82 1.761,-1.52 2.78,-2.08c1.145,-0.578 2.418,-0.857 3.7,-0.81c1.49,-0.053 2.968,0.292 4.28,1c1.135,0.652 2.059,1.617 2.66,2.78l-2.74,1.88c-0.244,-0.44 -0.514,-0.864 -0.81,-1.27c-0.305,-0.303 -0.64,-0.575 -1,-0.81c-0.365,-0.203 -0.755,-0.357 -1.16,-0.46c-0.416,-0.097 -0.843,-0.137 -1.27,-0.12c-0.806,0 -1.6,0.199 -2.31,0.58c-0.639,0.333 -1.194,0.809 -1.62,1.39c-0.496,0.563 -0.819,1.258 -0.93,2c-0.228,0.67 -0.346,1.372 -0.35,2.08c0.003,0.783 0.121,1.561 0.35,2.31c0.214,0.72 0.552,1.397 1,2c0.454,0.555 1.002,1.026 1.62,1.39c0.647,0.316 1.36,0.474 2.08,0.46c0.427,0.012 0.853,-0.028 1.27,-0.12c0.44,-0.102 0.867,-0.256 1.27,-0.46c0.413,-0.23 0.802,-0.502 1.16,-0.81c0.335,-0.378 0.609,-0.807 0.81,-1.27l2.89,1.62c-0.246,0.691 -0.687,1.296 -1.27,1.74c-0.569,0.488 -1.19,0.914 -1.85,1.27c-0.673,0.32 -1.368,0.591 -2.08,0.81c-0.717,0.191 -1.459,0.268 -2.2,0.23c-1.207,0.034 -2.403,-0.245 -3.47,-0.81c-1.019,-0.56 -1.955,-1.26 -2.78,-2.08c-0.789,-0.883 -1.415,-1.899 -1.85,-3c-0.38,-1.038 -0.577,-2.134 -0.58,-3.24m6.83,-14l2.2,1.62l2.2,-1.62l1.74,0.81l-2.66,2.55l-2.43,0l-2.66,-2.55l1.61,-0.81Z" style="fill-rule:nonzero;"/>        </g>        <g transform="matrix(0.215709,0,0,0.215709,8.77844,8.78429)">            <path d="M177.44,151.54l0,3.13l-12.49,0l0,-17.93l12.26,0l0,3l-8.79,0l0,4.4l7.64,0l0,2.78l-7.64,0l0,4.62l9.02,0Z" style="fill-rule:nonzero;"/>        </g>        <g transform="matrix(0.215709,0,0,0.215709,8.77844,8.78429)">            <path d="M191.44,141.36c-0.22,-0.167 -0.451,-0.321 -0.69,-0.46c-0.375,-0.217 -0.762,-0.41 -1.16,-0.58c-0.477,-0.221 -0.981,-0.376 -1.5,-0.46c-0.53,-0.133 -1.073,-0.21 -1.62,-0.23c-0.773,-0.017 -1.536,0.184 -2.2,0.58c-0.47,0.349 -0.731,0.916 -0.69,1.5c0.007,0.323 0.085,0.641 0.23,0.93c0.245,0.258 0.516,0.489 0.81,0.69c0.395,0.222 0.824,0.377 1.27,0.46c0.46,0.12 1.16,0.35 1.74,0.46c0.832,0.2 1.645,0.471 2.43,0.81c0.672,0.219 1.299,0.558 1.85,1c0.483,0.417 0.878,0.927 1.16,1.5c0.287,0.657 0.443,1.363 0.46,2.08c0,0.844 -0.199,1.677 -0.58,2.43c-0.306,0.691 -0.834,1.261 -1.5,1.62c-0.624,0.446 -1.331,0.763 -2.08,0.93c-0.829,0.238 -1.688,0.356 -2.55,0.35c-1.33,-0.014 -2.652,-0.21 -3.93,-0.58c-1.298,-0.341 -2.518,-0.932 -3.59,-1.74l1.5,-3c0.258,0.21 0.528,0.404 0.81,0.58c0.436,0.304 0.901,0.562 1.39,0.77c0.593,0.262 1.214,0.456 1.85,0.58c0.66,0.129 1.328,0.206 2,0.23c2,0 2.89,-0.58 2.89,-1.85c-0.018,-0.36 -0.139,-0.707 -0.35,-1c-0.289,-0.258 -0.6,-0.488 -0.93,-0.69c-0.46,-0.23 -0.93,-0.35 -1.5,-0.58c-0.57,-0.23 -1.16,-0.35 -2,-0.58c-0.763,-0.18 -1.502,-0.452 -2.2,-0.81c-0.601,-0.223 -1.151,-0.563 -1.62,-1c-0.408,-0.342 -0.728,-0.777 -0.93,-1.27c-0.25,-0.545 -0.37,-1.141 -0.35,-1.74c-0.038,-0.835 0.12,-1.667 0.46,-2.43c0.33,-0.675 0.805,-1.269 1.39,-1.74c0.62,-0.468 1.327,-0.808 2.08,-1c0.829,-0.238 1.688,-0.356 2.55,-0.35c1.18,0.004 2.352,0.2 3.47,0.58c0.991,0.321 1.928,0.79 2.78,1.39l-1.15,2.62Z" style="fill-rule:nonzero;"/>        </g>        <g transform="matrix(0.215709,0,0,0.215709,8.77844,8.78429)">            <path d="M196.76,154.67l0,-17.93l3.48,0l0,8.56l7.52,-8.56l3.81,0l-6.82,7.98l7.29,9.95l-3.94,0l-5.55,-7.75l-2.31,2.43l0,5.32l-3.48,0Z" style="fill-rule:nonzero;"/>        </g>        <g transform="matrix(0.215709,0,0,0.215709,8.77844,8.78429)">            <path d="M219.79,136.73l3.12,0l6.83,17.93l-3.59,0l-1.62,-4.51l-6.25,0l-1.62,4.51l-3.59,0l6.72,-17.93Zm4,11l-2.43,-7.06l-2.55,7.06l4.98,0Zm-1.62,-12.49l-2.2,-0.69l1.39,-3l3.12,0l-2.31,3.69Z" style="fill-rule:nonzero;"/>        </g>        <g transform="matrix(0.215709,0,0,0.215709,8.77844,8.78429)">            <path d="M238.99,154.67l0,-17.93l12.04,0l0,3l-8.57,0l0,4.63l7.18,0l0,2.89l-7.18,0l0,7.41l-3.47,0Z" style="fill-rule:nonzero;"/>        </g>        <g transform="matrix(0.215709,0,0,0.215709,8.77844,8.78429)">            <rect x="254.5" y="136.73" width="3.47" height="17.93"/>        </g>        <g transform="matrix(0.215709,0,0,0.215709,8.77844,8.78429)">            <path d="M265.26,143.21l0,11.46l-3.59,0l0,-17.93l2.78,0l9.37,11.8l0,-11.8l3.47,0l0,17.93l-2.9,0l-9.13,-11.46Z" style="fill-rule:nonzero;"/>        </g>        <g transform="matrix(0.215709,0,0,0.215709,8.77844,8.78429)">            <path d="M295.45,139.74l-5.78,0l0,14.93l-3.47,0l0,-14.93l-5.67,0l0,-3l14.92,0l0,3Z" style="fill-rule:nonzero;"/>        </g>        <g transform="matrix(0.215709,0,0,0.215709,8.77844,8.78429)">            <path d="M311.07,151.54l0,3.13l-12.38,0l0,-17.93l12.15,0l0,3l-8.68,0l0,4.4l7.52,0l0,2.78l-7.52,0l0,4.62l8.91,0Z" style="fill-rule:nonzero;"/>        </g>        <g transform="matrix(0.215709,0,0,0.215709,8.77844,8.78429)">            <path d="M313.38,145.53c0.024,-1.104 0.22,-2.197 0.58,-3.24c0.351,-1.084 0.947,-2.072 1.74,-2.89c0.825,-0.82 1.761,-1.52 2.78,-2.08c1.145,-0.578 2.418,-0.857 3.7,-0.81c1.49,-0.053 2.968,0.292 4.28,1c1.135,0.652 2.059,1.617 2.66,2.78l-2.66,1.85c-0.244,-0.44 -0.514,-0.864 -0.81,-1.27c-0.305,-0.303 -0.64,-0.575 -1,-0.81c-0.365,-0.203 -0.755,-0.357 -1.16,-0.46c-0.416,-0.097 -0.843,-0.137 -1.27,-0.12c-0.806,0 -1.6,0.199 -2.31,0.58c-0.639,0.333 -1.194,0.809 -1.62,1.39c-0.496,0.563 -0.819,1.258 -0.93,2c-0.228,0.67 -0.346,1.372 -0.35,2.08c0.003,0.783 0.121,1.561 0.35,2.31c0.214,0.72 0.552,1.397 1,2c0.462,0.546 1.018,1.007 1.64,1.36c0.647,0.316 1.36,0.474 2.08,0.46c0.427,0.012 0.853,-0.028 1.27,-0.12c0.44,-0.102 0.867,-0.256 1.27,-0.46c0.413,-0.23 0.802,-0.502 1.16,-0.81c0.335,-0.378 0.609,-0.807 0.81,-1.27l2.89,1.62c-0.246,0.691 -0.687,1.296 -1.27,1.74c-0.569,0.488 -1.19,0.914 -1.85,1.27c-0.673,0.32 -1.368,0.591 -2.08,0.81c-0.718,0.185 -1.459,0.263 -2.2,0.23c-1.207,0.034 -2.403,-0.245 -3.47,-0.81c-1.019,-0.56 -1.955,-1.26 -2.78,-2.08c-0.789,-0.883 -1.415,-1.899 -1.85,-3c-0.38,-1.038 -0.577,-2.134 -0.58,-3.24" style="fill-rule:nonzero;"/>        </g>        <g transform="matrix(0.215709,0,0,0.215709,8.77844,8.78429)">            <path d="M347.4,136.74l0,17.93l-3.47,0l0,-7.64l-8.1,0l0,7.64l-3.47,0l0,-17.93l3.47,0l0,7.28l8.1,0l0,-7.28l3.47,0Z" style="fill-rule:nonzero;"/>        </g>        <g transform="matrix(0.215709,0,0,0.215709,8.77844,8.78429)">            <path d="M363.6,136.73l3.12,0l6.83,17.93l-3.55,0l-1.62,-4.51l-6.25,0l-1.62,4.51l-3.82,0l6.91,-17.93Zm3.93,11l-2.43,-7.06l-2.55,7.06l4.98,0Z" style="fill-rule:nonzero;"/>        </g>        <g transform="matrix(0.215709,0,0,0.215709,8.77844,8.78429)">            <path d="M386.85,141.36c-0.22,-0.167 -0.451,-0.321 -0.69,-0.46c-0.375,-0.217 -0.762,-0.41 -1.16,-0.58c-0.477,-0.221 -0.981,-0.376 -1.5,-0.46c-0.53,-0.133 -1.073,-0.21 -1.62,-0.23c-0.773,-0.017 -1.536,0.184 -2.2,0.58c-0.47,0.349 -0.731,0.916 -0.69,1.5c0.007,0.323 0.085,0.641 0.23,0.93c0.245,0.258 0.516,0.489 0.81,0.69c0.395,0.222 0.824,0.377 1.27,0.46c0.46,0.12 1.16,0.35 1.74,0.46c0.832,0.2 1.645,0.471 2.43,0.81c0.672,0.219 1.299,0.558 1.85,1c0.483,0.417 0.878,0.927 1.16,1.5c0.247,0.665 0.366,1.371 0.35,2.08c0,0.844 -0.199,1.677 -0.58,2.43c-0.306,0.691 -0.834,1.261 -1.5,1.62c-0.624,0.446 -1.331,0.763 -2.08,0.93c-0.829,0.238 -1.688,0.356 -2.55,0.35c-1.352,-0.027 -2.696,-0.221 -4,-0.58c-1.298,-0.341 -2.518,-0.932 -3.59,-1.74l1.5,-3c0.258,0.21 0.528,0.404 0.81,0.58c0.439,0.276 0.905,0.507 1.39,0.69c0.593,0.262 1.214,0.456 1.85,0.58c0.66,0.129 1.328,0.206 2,0.23c2,0 2.89,-0.58 2.89,-1.85c-0.018,-0.36 -0.139,-0.707 -0.35,-1c-0.289,-0.258 -0.6,-0.488 -0.93,-0.69c-0.484,-0.232 -0.986,-0.426 -1.5,-0.58c-0.58,-0.12 -1.16,-0.35 -2,-0.58c-0.763,-0.18 -1.502,-0.452 -2.2,-0.81c-0.601,-0.223 -1.151,-0.563 -1.62,-1c-0.408,-0.342 -0.728,-0.777 -0.93,-1.27c-0.25,-0.545 -0.37,-1.141 -0.35,-1.74c-0.038,-0.835 0.12,-1.667 0.46,-2.43c0.313,-0.685 0.774,-1.293 1.35,-1.78c0.62,-0.468 1.327,-0.808 2.08,-1c0.829,-0.238 1.688,-0.356 2.55,-0.35c1.18,0.004 2.352,0.2 3.47,0.58c0.991,0.321 1.928,0.79 2.78,1.39l-0.93,2.74Z" style="fill-rule:nonzero;"/>        </g>        <g transform="matrix(0.215709,0,0,0.215709,8.77844,8.78429)">            <path d="M400.27,154.78c-1.246,0.035 -2.48,-0.244 -3.59,-0.81c-1.068,-0.481 -2.017,-1.192 -2.78,-2.08c-0.793,-0.818 -1.389,-1.806 -1.74,-2.89c-0.426,-1.067 -0.624,-2.212 -0.58,-3.36c0.005,-1.19 0.24,-2.368 0.69,-3.47c0.436,-1.068 1.063,-2.047 1.85,-2.89c0.795,-0.832 1.738,-1.511 2.78,-2c1.095,-0.472 2.278,-0.707 3.47,-0.69c1.244,-0.022 2.476,0.256 3.59,0.81c1.019,0.56 1.955,1.26 2.78,2.08c0.793,0.818 1.389,1.806 1.74,2.89c0.426,1.067 0.624,2.212 0.58,3.36c-0.005,1.19 -0.24,2.368 -0.69,3.47c-0.436,1.068 -1.063,2.047 -1.85,2.89c-0.795,0.832 -1.738,1.511 -2.78,2c-1.095,0.472 -2.278,0.707 -3.47,0.69m-5.21,-9.14c-0.006,0.748 0.112,1.491 0.35,2.2c0.214,0.72 0.552,1.397 1,2c0.454,0.555 1.002,1.026 1.62,1.39c0.685,0.329 1.44,0.487 2.2,0.46c0.761,0.04 1.519,-0.119 2.2,-0.46c0.639,-0.333 1.194,-0.809 1.62,-1.39c0.448,-0.603 0.786,-1.28 1,-2c0.464,-1.43 0.464,-2.97 0,-4.4c-0.214,-0.72 -0.552,-1.397 -1,-2c-0.425,-0.552 -0.982,-0.989 -1.62,-1.27c-0.685,-0.329 -1.44,-0.487 -2.2,-0.46c-0.755,0.017 -1.501,0.173 -2.2,0.46c-0.639,0.333 -1.194,0.809 -1.62,1.39c-0.471,0.588 -0.812,1.27 -1,2c-0.228,0.67 -0.346,1.372 -0.35,2.08" style="fill-rule:nonzero;"/>        </g>        <g transform="matrix(0.215709,0,0,0.215709,8.77844,8.78429)">            <path d="M411.72,145.53c0.024,-1.104 0.22,-2.197 0.58,-3.24c0.34,-1.08 0.921,-2.068 1.7,-2.89c0.825,-0.82 1.761,-1.52 2.78,-2.08c1.145,-0.578 2.418,-0.857 3.7,-0.81c1.49,-0.053 2.968,0.292 4.28,1c1.135,0.652 2.059,1.617 2.66,2.78l-2.66,1.85c-0.244,-0.44 -0.514,-0.864 -0.81,-1.27c-0.305,-0.303 -0.64,-0.575 -1,-0.81c-0.365,-0.203 -0.755,-0.357 -1.16,-0.46c-0.416,-0.097 -0.843,-0.137 -1.27,-0.12c-0.806,0 -1.6,0.199 -2.31,0.58c-0.639,0.333 -1.194,0.809 -1.62,1.39c-0.496,0.563 -0.819,1.258 -0.93,2c-0.228,0.67 -0.346,1.372 -0.35,2.08c0.003,0.783 0.121,1.561 0.35,2.31c0.214,0.72 0.552,1.397 1,2c0.454,0.555 1.002,1.026 1.62,1.39c0.647,0.316 1.36,0.474 2.08,0.46c0.427,0.012 0.853,-0.028 1.27,-0.12c0.44,-0.102 0.867,-0.256 1.27,-0.46c0.413,-0.23 0.802,-0.502 1.16,-0.81c0.335,-0.378 0.609,-0.807 0.81,-1.27l2.89,1.62c-0.246,0.691 -0.687,1.296 -1.27,1.74c-0.569,0.488 -1.19,0.914 -1.85,1.27c-0.673,0.32 -1.368,0.591 -2.08,0.81c-0.718,0.185 -1.459,0.263 -2.2,0.23c-1.207,0.034 -2.403,-0.245 -3.47,-0.81c-1.019,-0.56 -1.955,-1.26 -2.78,-2.08c-0.789,-0.883 -1.415,-1.899 -1.85,-3c-0.38,-1.038 -0.577,-2.134 -0.58,-3.24" style="fill-rule:nonzero;"/>        </g>        <g transform="matrix(0.215709,0,0,0.215709,8.77844,8.78429)">            <rect x="430.58" y="136.73" width="3.47" height="17.93"/>        </g>        <g transform="matrix(0.215709,0,0,0.215709,8.77844,8.78429)">            <path d="M444,136.73l3.12,0l6.88,17.94l-3.59,0l-1.62,-4.51l-6.29,0l-1.62,4.51l-3.59,0l6.71,-17.94Zm3.93,11l-2.43,-7.06l-2.5,7.06l4.93,0Z" style="fill-rule:nonzero;"/>        </g>        <g transform="matrix(0.215709,0,0,0.215709,8.77844,8.78429)">            <path d="M454.65,145.53c0.024,-1.104 0.22,-2.197 0.58,-3.24c0.36,-1.086 0.966,-2.075 1.77,-2.89c0.825,-0.82 1.761,-1.52 2.78,-2.08c1.145,-0.578 2.418,-0.857 3.7,-0.81c1.49,-0.053 2.968,0.292 4.28,1c1.135,0.652 2.059,1.617 2.66,2.78l-2.66,1.85c-0.244,-0.44 -0.514,-0.864 -0.81,-1.27c-0.305,-0.303 -0.64,-0.575 -1,-0.81c-0.365,-0.203 -0.755,-0.357 -1.16,-0.46c-0.416,-0.097 -0.843,-0.137 -1.27,-0.12c-0.806,0 -1.6,0.199 -2.31,0.58c-0.639,0.333 -1.194,0.809 -1.62,1.39c-0.496,0.563 -0.819,1.258 -0.93,2c-0.228,0.67 -0.346,1.372 -0.35,2.08c0.003,0.783 0.121,1.561 0.35,2.31c0.214,0.72 0.552,1.397 1,2c0.454,0.555 1.002,1.026 1.62,1.39c0.647,0.316 1.36,0.474 2.08,0.46c0.427,0.012 0.853,-0.028 1.27,-0.12c0.44,-0.102 0.867,-0.256 1.27,-0.46c0.413,-0.23 0.802,-0.502 1.16,-0.81c0.335,-0.378 0.609,-0.807 0.81,-1.27l2.89,1.62c-0.246,0.691 -0.687,1.296 -1.27,1.74c-0.569,0.488 -1.19,0.914 -1.85,1.27c-0.673,0.32 -1.368,0.591 -2.08,0.81c-0.718,0.185 -1.459,0.263 -2.2,0.23c-1.207,0.034 -2.403,-0.245 -3.47,-0.81c-1.019,-0.56 -1.955,-1.26 -2.78,-2.08c-0.789,-0.883 -1.415,-1.899 -1.85,-3c-0.435,-1.022 -0.634,-2.13 -0.58,-3.24" style="fill-rule:nonzero;"/>        </g>        <g transform="matrix(0.215709,0,0,0.215709,8.77844,8.78429)">            <path d="M486,151.54l0,3.13l-12.5,0l0,-17.93l12.27,0l0,3l-8.79,0l0,4.4l7.63,0l0,2.78l-7.63,0l0,4.62l9.02,0Z" style="fill-rule:nonzero;"/>        </g>    </g></svg>