<?xml version="1.0" encoding="UTF-8" standalone="no"?><!DOCTYPE svg PUBLIC "-//W3C//DTD SVG 1.1//EN" "http://www.w3.org/Graphics/SVG/1.1/DTD/svg11.dtd"><svg width="100%" height="100%" viewBox="0 0 1024 512" version="1.1" xmlns="http://www.w3.org/2000/svg" xmlns:xlink="http://www.w3.org/1999/xlink" xml:space="preserve" style="fill-rule:evenodd;clip-rule:evenodd;stroke-linejoin:round;stroke-miterlimit:2;"><title>Bricks&amp;People</title><desc>We connect investors who want to improve the profitability of their savings with promoter companies that are willing to share their projects through participatory financing formulas</desc>    <g transform="matrix(7.28566,0,0,7.28566,128.047,-31.782)">        <path d="M43.7,74.5c-19.3,0 -35,-15.7 -34.9,-35.1c0.1,-19.4 15.7,-35 35.1,-34.9c14.4,0 27.4,8.9 32.6,22.3l20.1,47.5l-51.4,0.2l-1.5,0Z" style="fill:rgb(255,221,0);fill-rule:nonzero;"/>        <path d="M29.8,40.2l0.5,-3.5l0.5,0l2.2,3.5l3.4,0l-2.6,-3.7c1.4,-0.4 2.3,-1.5 2.6,-3.6c0.3,-2.5 -1.3,-3.6 -3.5,-3.6l-4.3,0l-1.6,10.9l2.8,0Zm1.2,-8.3l1.6,0c1.7,0 1.4,2.5 -0.3,2.5l-1.6,0l0.3,-2.5Z" style="fill:rgb(28,28,27);fill-rule:nonzero;"/>        <path d="M39.2,40.2l1.5,-10.9l-2.7,0l-1.5,10.9l2.7,0Z" style="fill:rgb(28,28,27);fill-rule:nonzero;"/>        <path d="M44.2,40.3c1.7,0 3.3,-1 4.3,-2.4l-2.2,-1.1c-0.8,1.5 -3.2,1.1 -3,-0.2l0.5,-3.7c0.2,-1.4 2.7,-1.7 3.2,-0.3l2.4,-0.9c-0.4,-1.5 -1.9,-2.6 -3.5,-2.5c-2.2,0 -4.5,1.3 -4.8,3.7l-0.5,3.7c-0.5,2.5 1.5,3.7 3.6,3.7Z" style="fill:rgb(28,28,27);fill-rule:nonzero;"/>        <path d="M51.3,40.2l0.5,-3.8l0.1,-0.1l2.3,3.9l3.5,0c-1.2,-1.7 -2.3,-3.8 -3.5,-5.5l5,-5.3l-3.4,0l-3.5,4l0.6,-4l-2.9,0l-1.5,10.9l2.8,0l0,-0.1Z" style="fill:rgb(28,28,27);fill-rule:nonzero;"/>        <path d="M57.9,32.4c-0.3,2.1 1.2,3.2 2.9,3.5c0.9,0.1 1.8,0.5 1.7,1.1c-0.2,1.2 -2.6,1.1 -3.5,-0.2l-2,1.6c0.7,1.2 2,2 3.4,2c2,0 4.3,-1.1 4.8,-3.2c0.5,-2.7 -1.3,-3.3 -3.2,-3.7c-0.8,-0.2 -1.3,-0.5 -1.3,-1c0.2,-1.3 2.2,-1.3 3.1,-0.1l2,-1.4c-0.8,-1.2 -2.1,-1.8 -3.5,-1.7c-2.1,-0.2 -3.9,1.2 -4.4,3.1Z" style="fill:rgb(28,28,27);fill-rule:nonzero;"/>        <path d="M32,41.2l-4.3,0l-0.4,3l0,-0.1c-0.1,-0.8 -0.7,-1.4 -1.5,-1.3l-0.1,0c-0.7,0.1 -1.2,0.8 -1.1,1.5c0,0.2 0.1,0.4 0.2,0.6c-0.7,0.3 -1.4,0.6 -2.1,0.8c-1.5,0.6 -2.8,1.4 -3.2,3.1l1.3,0.4c0.3,-0.8 1,-1.5 1.9,-1.7c0.1,0.2 0.2,0.4 0.2,0.6c0.1,1.4 -0.9,2.7 -2.3,2.8c-1.5,0.2 -3,-0.8 -3.2,-2.3l0,-0.1c-0.2,-1.3 0.5,-2.6 1.7,-3.2c0.4,0.4 1,0.8 1.6,1l0.6,-1.4c-0.6,-0.3 -1,-0.8 -1.1,-1.5c-0.2,-0.8 0.4,-1.6 1.2,-1.7c0.5,-0.1 0.9,0.2 1,0.6c0,0.4 -0.2,0.7 -0.6,0.7l-0.2,0l0,1.6c1.9,-0.1 2.7,-1.3 2.6,-2.6c-0.1,-1 -0.8,-1.7 -1.8,-2l0.3,0c2.4,0 3.7,-1.1 4.3,-2.8c0.4,-1.1 0,-2.4 -1.1,-3c0.7,-0.3 1.2,-1 1.4,-1.7c0.4,-2.1 -1,-3.3 -3.1,-3.3l-4.3,0l-1.5,10.9l2.4,0c-1.6,0.3 -2.6,1.8 -2.4,3.4l0,0.2c-2.1,0.7 -3.4,2.8 -3.1,5.1c0.4,2.5 2.7,4.3 5.3,3.9l0.2,0c2.5,-0.2 4.3,-2.4 4.1,-4.8l0,-0.3c0,-0.3 -0.1,-0.5 -0.2,-0.8c1.3,-0.4 2.5,-1 2.9,-1.9l-1,7l2.8,0l0.5,-3.2l1.1,0c2.3,0 4.2,-1.6 4.5,-3.8c0.3,-1.7 -0.8,-3.4 -2.5,-3.7l-1,0Zm-10,-9.6l1.6,0c1.4,0 1.1,2 -0.3,2l-1.6,0l0.3,-2Zm-0.5,3.9l1.6,0c1.6,0 1.4,2.2 -0.3,2.2l-1.6,0l0.3,-2.2Zm9.8,11l-1.6,0l0.4,-2.7l1.6,0c1.6,0 1.3,2.7 -0.4,2.7Z" style="fill:rgb(28,28,27);fill-rule:nonzero;"/>        <path d="M42.7,47.9l0.3,-2.5l-4.4,0l0.2,-1.6l4.8,0l0.4,-2.6l-7.6,0l-1.5,10.9l7.6,0l0.3,-2.6l-4.8,0l0.3,-1.6l4.4,0Z" style="fill:rgb(28,28,27);fill-rule:nonzero;"/>        <path d="M48.8,41c-2.3,0 -4.7,1.2 -5,3.7l-0.5,3.9c-0.4,2.5 1.7,3.7 4,3.7c2.3,0 4.7,-1.3 5,-3.7l0.5,-3.9c0.3,-2.5 -1.8,-3.7 -4,-3.7Zm1.2,3.7l-0.5,3.9c-0.2,1.6 -3.8,1.6 -3.5,0l0.5,-3.9c0.2,-1.6 3.7,-1.7 3.5,0Z" style="fill:rgb(28,28,27);fill-rule:nonzero;"/>        <path d="M58.3,41.2l-4.3,0l-1.5,10.9l2.8,0l0.4,-3.2l1.6,0c2.3,0 4.2,-1.6 4.5,-3.8c0.4,-1.7 -0.7,-3.4 -2.5,-3.8c-0.3,-0.1 -0.6,-0.1 -1,-0.1Zm-0.7,5.3l-1.6,0l0.4,-2.7l1.6,0c1.7,0 1.3,2.7 -0.4,2.7Z" style="fill:rgb(28,28,27);fill-rule:nonzero;"/>        <path d="M65.5,41.2l-2.8,0l-1.5,10.9l7.2,0l0.4,-2.7l-4.5,0l1.2,-8.2Z" style="fill:rgb(28,28,27);fill-rule:nonzero;"/>        <path d="M77.9,43.8l0.4,-2.6l-7.6,0l-1.5,10.9l7.5,0l0.4,-2.6l-4.8,0l0.2,-1.6l4.4,0l0.4,-2.5l-4.4,0l0.2,-1.6l4.8,0Z" style="fill:rgb(28,28,27);fill-rule:nonzero;"/>    </g></svg>