<?xml version="1.0" encoding="UTF-8" standalone="no"?><!DOCTYPE svg PUBLIC "-//W3C//DTD SVG 1.1//EN" "http://www.w3.org/Graphics/SVG/1.1/DTD/svg11.dtd"><svg width="100%" height="100%" viewBox="0 0 1024 512" version="1.1" xmlns="http://www.w3.org/2000/svg" xmlns:xlink="http://www.w3.org/1999/xlink" xml:space="preserve" style="fill-rule:evenodd;clip-rule:evenodd;stroke-linejoin:round;stroke-miterlimit:2;"><title>Borsa Del Credito</title><desc>BorsadelCredito.it is the 1st Peer to Peer Lending platform for companies. On the platform, which in the first two years of life has handled the credit requests of over 10,000 companies, companies can find hundreds of lenders who have decided to invest in the real economy. With a significant advantage: if the request is successful, the company gets the money in 3 days.</desc>    <g transform="matrix(2.88546,0,0,2.88546,-75.0782,-160.155)">        <g transform="matrix(1.65633,0,0,1.65565,19.1953,86.9847)">            <path d="M4.539,45.53l7.426,0c5.176,0 6.826,-2.927 6.826,-6.38c0,-2.927 -1.575,-4.803 -3.975,-5.103l0,-0.075c2.175,-0.601 3.3,-2.402 3.3,-4.804c0,-4.203 -2.625,-5.554 -6.226,-5.554l-7.352,0l0,21.916Zm4.426,-18.613l1.576,0c2.175,0 3.15,0.75 3.15,2.852c0,2.026 -1.05,2.852 -3.525,2.852l-1.201,0l0,-5.704Zm0,8.781l1.876,0c1.95,0 3.375,0.75 3.375,3.302c0,2.552 -1.425,3.302 -3.6,3.302l-1.651,0l0,-6.604Z" style="fill:rgb(44,115,129);fill-rule:nonzero;"/>        </g>        <g transform="matrix(1.65633,0,0,1.65565,19.1953,95.9318)">            <path d="M20.892,31.87c0,5.779 1.425,8.781 6.526,8.706c4.801,0 6.526,-3.077 6.526,-8.706c0,-5.704 -1.425,-8.781 -6.526,-8.706c-4.876,0 -6.526,3.077 -6.526,8.706Zm4.276,0c0,-3.377 0.15,-5.779 2.25,-5.779c1.725,0 2.251,1.651 2.251,5.779c0,4.128 -0.526,5.854 -2.251,5.854c-2.1,0 -2.25,-2.477 -2.25,-5.854Z" style="fill:rgb(44,115,129);fill-rule:nonzero;"/>        </g>        <g transform="matrix(1.65633,0,0,1.65565,19.1953,95.1868)">            <path d="M36.195,40.576l4.201,0l0,-9.907c0,-2.177 1.65,-3.002 3.15,-3.002c0.45,0 0.901,0.075 1.351,0.075l0,-4.053c-0.3,0 -0.525,-0.075 -0.825,-0.075c-1.726,0 -2.926,1.051 -3.751,2.702l-0.075,0l0,-2.252l-4.051,0l0,16.512Z" style="fill:rgb(44,115,129);fill-rule:nonzero;"/>        </g>        <g transform="matrix(1.65633,0,0,1.65565,19.1953,95.9318)">            <path d="M45.722,34.722l0,0.6c0,3.153 1.275,5.254 6.076,5.254c3.526,0 6.076,-1.726 6.076,-5.179c0,-2.476 -0.975,-3.827 -3.6,-4.728l-2.551,-0.901c-1.425,-0.45 -1.875,-1.125 -1.875,-1.876c0,-1.201 0.975,-1.801 2.025,-1.801c1.35,0 1.875,0.825 1.875,2.477l3.826,0l0,-0.676c0,-3.002 -1.875,-4.728 -5.701,-4.728c-4.351,0 -6.076,2.251 -6.076,5.028c0,2.327 1.2,3.753 3.526,4.579l3,1.05c0.825,0.301 1.575,0.826 1.575,1.877c0,1.351 -0.9,2.026 -2.175,2.026c-1.425,0 -2.25,-0.976 -2.25,-2.402l0,-0.6l-3.751,0Z" style="fill:rgb(44,115,129);fill-rule:nonzero;"/>        </g>        <g transform="matrix(1.65633,0,0,1.65565,19.1953,95.9318)">            <path d="M63.8,28.718l0,-0.451c0,-1.351 0.676,-2.176 1.951,-2.176c1.425,0 1.95,0.75 1.95,2.026c0,1.126 -0.375,1.576 -1.65,1.952l-2.401,0.6c-2.925,0.826 -4.2,2.102 -4.2,5.179c0,2.176 1.05,4.728 4.05,4.728c2.026,0 3.226,-0.45 4.201,-2.176c0.15,0.6 0.3,1.2 0.525,1.726l4.051,0c-0.375,-0.901 -0.525,-1.651 -0.525,-3.152l0,-8.707c0,-3.002 -0.9,-5.103 -5.926,-5.103c-3.226,0 -5.851,1.351 -5.851,5.103l0,0.451l3.825,0Zm3.901,6.454c0,1.802 -1.425,2.552 -2.55,2.552c-1.125,0 -1.651,-1.051 -1.651,-2.327c0,-1.501 0.676,-2.326 2.401,-2.702c0.525,-0.075 1.275,-0.375 1.8,-0.825l0,3.302Z" style="fill:rgb(44,115,129);fill-rule:nonzero;"/>        </g>        <g transform="matrix(1.65633,0,0,1.65565,19.1953,87.7297)">            <path d="M78.653,36.824c0,-3.603 0.376,-5.404 2.176,-5.404c1.875,0 2.25,1.801 2.25,5.404c0,3.602 -0.375,5.479 -2.25,5.479c-1.8,0 -2.176,-1.877 -2.176,-5.479Zm4.576,8.256l4.051,0l0,-21.916l-4.201,0l0,6.98l-0.075,0c-0.9,-1.351 -1.95,-2.026 -3.525,-2.026c-3.451,0 -5.101,2.552 -5.101,8.706c0,6.154 1.65,8.706 5.101,8.706c1.65,0 2.775,-0.675 3.75,-2.176l0,1.726Z" style="fill:rgb(44,115,129);fill-rule:nonzero;"/>        </g>        <g transform="matrix(1.65633,0,0,1.65565,19.1953,95.9318)">            <path d="M102.13,32.545l0,-0.975c0,-5.029 -1.12,-8.406 -6.073,-8.406c-5.701,0 -6.526,4.128 -6.526,8.556c0,4.128 0.225,8.856 6.376,8.856c3.976,0 5.853,-2.176 6.003,-6.004l-3.828,0c-0.225,2.026 -0.825,3.152 -2.25,3.152c-1.575,0 -2.1,-1.951 -2.1,-3.903l0,-1.276l8.398,0Zm-8.398,-2.551l0,-0.601c0,-1.576 0.525,-3.302 2.175,-3.302c1.8,0 2.1,1.426 2.175,3.903l-4.35,0Z" style="fill:rgb(44,115,129);fill-rule:nonzero;"/>        </g>        <g transform="matrix(1.65633,0,0,1.65565,19.1953,86.9847)">            <rect x="104.53" y="23.614" width="4.2" height="21.916" style="fill:rgb(44,115,129);"/>        </g>        <g transform="matrix(1.65633,0,0,1.65565,19.1953,86.9847)">            <path d="M125.61,31.045c0,-3.228 -0.45,-7.881 -6.75,-7.881c-6.67,0 -7.5,4.728 -7.5,11.408c0,6.68 0.83,11.408 7.5,11.408c5.78,0 6.98,-4.053 6.98,-8.781l-4.43,0c0,4.728 -1.2,5.554 -2.77,5.554c-1.95,0 -2.85,-1.201 -2.85,-7.881c0,-6.154 0.52,-8.406 2.77,-8.406c2.03,0 2.63,1.351 2.63,4.579l4.42,0Z" style="fill:rgb(44,115,129);fill-rule:nonzero;"/>        </g>        <g transform="matrix(1.65633,0,0,1.65565,19.1953,95.1868)">            <path d="M128.16,40.576l4.28,0l0,-9.907c0,-2.177 1.65,-3.002 3.15,-3.002c0.38,0 0.83,0.075 1.28,0.075l0,-4.053c-0.23,0 -0.53,-0.075 -0.75,-0.075c-1.73,0 -2.93,1.051 -3.83,2.702l-0.08,0l0,-2.252l-4.05,0l0,16.512Z" style="fill:rgb(44,115,129);fill-rule:nonzero;"/>        </g>        <g transform="matrix(1.65633,0,0,1.65565,19.1953,95.9318)">            <path d="M150.44,32.545l0,-0.975c0,-5.029 -1.12,-8.406 -6.07,-8.406c-5.7,0 -6.53,4.128 -6.53,8.556c0,4.128 0.23,8.856 6.38,8.856c3.97,0 5.77,-2.176 5.92,-6.004l-3.75,0c-0.3,2.026 -0.82,3.152 -2.25,3.152c-1.57,0 -2.1,-1.951 -2.1,-3.903l0,-1.276l8.4,0Zm-8.4,-2.551l0,-0.601c0,-1.576 0.53,-3.302 2.18,-3.302c1.72,0 2.02,1.426 2.17,3.903l-4.35,0Z" style="fill:rgb(44,115,129);fill-rule:nonzero;"/>        </g>        <g transform="matrix(1.65633,0,0,1.65565,19.1953,87.7297)">            <path d="M156.44,36.824c0,-3.603 0.38,-5.404 2.25,-5.404c1.88,0 2.26,1.801 2.26,5.404c0,3.602 -0.38,5.479 -2.26,5.479c-1.87,0 -2.25,-1.877 -2.25,-5.479Zm4.66,8.256l4.05,0l0,-21.916l-4.2,0l0,6.98l-0.08,0c-0.9,-1.351 -1.95,-2.026 -3.6,-2.026c-3.45,0 -5.03,2.552 -5.03,8.706c0,6.154 1.58,8.706 5.03,8.706c1.65,0 2.85,-0.675 3.75,-2.176l0.08,0l0,1.726Z" style="fill:rgb(44,115,129);fill-rule:nonzero;"/>        </g>        <g transform="matrix(1.65633,0,0,1.65565,19.1953,86.6122)">            <path d="M168.15,45.755l4.2,0l0,-16.512l-4.2,0l0,16.512Zm0,-18.538l4.2,0l0,-3.603l-4.2,0l0,3.603Z" style="fill:rgb(44,115,129);fill-rule:nonzero;"/>        </g>        <g transform="matrix(1.65633,0,0,1.65565,19.1953,88.4764)">            <path d="M176.25,28.117l-2.1,0l0,2.927l2.1,0l0,9.457c0,3.302 0.6,4.353 3.97,4.353c0.98,0 1.8,-0.15 2.7,-0.225l0,-2.927c-0.22,0 -0.6,0.075 -0.9,0.075c-1.27,0 -1.5,-0.526 -1.5,-1.802l0,-8.931l2.4,0l0,-2.927l-2.4,0l0,-4.728l-4.27,0l0,4.728Z" style="fill:rgb(44,115,129);fill-rule:nonzero;"/>        </g>        <g transform="matrix(1.65633,0,0,1.65565,19.1953,95.9318)">            <path d="M183.9,31.87c0,5.779 1.35,8.781 6.45,8.706c4.88,0 6.53,-3.077 6.53,-8.706c0,-5.704 -1.43,-8.781 -6.53,-8.706c-4.8,0 -6.45,3.077 -6.45,8.706Zm4.2,0c0,-3.377 0.23,-5.779 2.25,-5.779c1.73,0 2.33,1.651 2.33,5.779c0,4.128 -0.6,5.854 -2.33,5.854c-2.02,0 -2.25,-2.477 -2.25,-5.854Z" style="fill:rgb(44,115,129);fill-rule:nonzero;"/>        </g>        <g transform="matrix(1.65633,0,0,1.65565,19.1953,118.175)">            <rect x="200.4" y="23.614" width="2.1" height="3.077" style="fill:rgb(230,132,33);"/>        </g>        <g transform="matrix(1.65633,0,0,1.65565,19.1953,86.9847)">            <path d="M207,45.53l1.88,0l0,-16.287l-1.88,0l0,16.287Zm0,-18.764l1.88,0l0,-3.152l-1.88,0l0,3.152Z" style="fill:rgb(230,132,33);fill-rule:nonzero;"/>        </g>        <g transform="matrix(1.65633,0,0,1.65565,19.1953,89.2215)">            <path d="M213.23,41.552c0,2.176 0.9,2.852 3.45,2.852c0.6,0 1.05,-0.075 1.28,-0.225l0,-1.501c-0.45,0.075 -0.75,0.15 -1.13,0.15c-1.2,0 -1.8,-0.375 -1.8,-1.726l0,-11.709l2.93,0l0,-1.501l-2.93,0l0,-4.503l-1.8,0l0,4.503l-2.25,0l0,1.501l2.25,0l0,12.159Z" style="fill:rgb(230,132,33);fill-rule:nonzero;"/>        </g>    </g></svg>