<?xml version="1.0" encoding="UTF-8" standalone="no"?><!DOCTYPE svg PUBLIC "-//W3C//DTD SVG 1.1//EN" "http://www.w3.org/Graphics/SVG/1.1/DTD/svg11.dtd"><svg width="100%" height="100%" viewBox="0 0 1024 512" version="1.1" xmlns="http://www.w3.org/2000/svg" xmlns:xlink="http://www.w3.org/1999/xlink" xml:space="preserve" style="fill-rule:evenodd;clip-rule:evenodd;stroke-linejoin:round;stroke-miterlimit:2;"><title>JustUs</title><desc>JustUs plans to disrupt the lending landscape and become the provider of the biggest range of consumer mortgages and loans.</desc>    <g transform="matrix(1.28068,0,0,1.28068,252.199,-1.44492)">        <path d="M401.2,183c-8.6,-99.3 -95.9,-186.8 -211.9,-179.2c-105.4,6.8 -187.9,93.6 -185.5,200.9c2.6,116.8 99.9,197.3 205.5,193.9c110,-3.3 202.1,-97.3 191.9,-215.6Zm-189.3,187.8c-97.8,4 -177.2,-68.3 -180.9,-164.6c-3.6,-94.3 69.9,-173.1 165.1,-176.8c92.4,-3.7 173.3,70.6 176.5,162c3.3,95.2 -68.8,175.7 -160.7,179.4Z" style="fill-rule:nonzero;"/>        <g>            <path d="M174.6,234.7c-4.7,5.9 -8.1,12.1 -13.2,15.9c-6.7,5 -14.4,10.3 -22.3,11.6c-17,2.8 -29.7,-9.7 -33.3,-30.1c-4.1,-23.4 -0.3,-46.1 5.5,-68.7c3.7,-14.5 8,-28.9 10.9,-43.6c1.2,-6.1 -0.5,-12.9 -0.9,-20c8.9,-4.4 24.5,-2.2 32.6,5.9c5.4,5.4 6.7,12.3 4.2,19.2c-6,16.1 -13.3,31.8 -18.9,48.1c-5.3,15.3 -9.5,31 -13.3,46.7c-1.3,5.3 -0.6,11.3 0.5,16.8c1.6,8.4 8,11.6 14.6,6.4c6.1,-4.8 12.2,-11.5 14.7,-18.6c8.9,-25.2 16.6,-50.9 23.9,-76.6c3.2,-11.5 4.5,-23.7 6.1,-35.6c0.9,-6.5 5.6,-8.4 10.4,-10.1c5.6,-2 12,-3.9 16.6,0.9c2.1,2.2 2.4,7.4 1.5,10.8c-7.5,29.8 -15.5,59.5 -23.2,89.3c-5,19.6 4.9,37.1 23.2,40.1c13.4,2.2 26.1,0.2 34.1,-12.1c8.3,-12.8 10.3,-26.8 2.1,-40.5c-3.2,-5.4 -8,-9.9 -12.5,-14.5c-9.3,-9.5 -19.6,-18.1 -23.1,-31.8c-3.9,-15.1 0.1,-26.5 12.6,-35.7c13.4,-9.9 33.3,-11.6 46.1,-3.8c9.8,5.9 13.6,17.9 9,28.3c-2.9,6.4 -7.8,10.1 -14.9,10.5c-7.7,0.3 -10.1,-3.1 -8,-10.4c1,-3.8 2.2,-7.7 2.4,-11.5c0.4,-8.3 -5.7,-12.6 -13.7,-10.2c-11.4,3.4 -16.1,16 -9.1,26.9c3.8,5.9 9.2,10.8 14.3,15.8c7.6,7.4 16.2,13.8 23.1,21.8c22.5,25.9 16.9,59.2 -12.8,76.5c-19.9,11.6 -41.5,13.2 -63.6,7.8c-13.1,-3.3 -21.8,-11.7 -25.6,-25.5Z" style="fill-rule:nonzero;"/>            <path d="M283.8,142c4.7,-3 9.3,-6.1 14,-9.1c-9.2,-6 -9.7,-12.1 -8,-18.7c1.9,-7 9.9,-13.8 16.4,-14.3c5.4,-0.4 9.7,1.7 9.9,7.4c0.2,5 -0.2,10.5 -2.3,14.8c-5,10.4 -14.4,16.6 -24.6,21.4c-1.1,0.5 -2.6,0.2 -4,0.3c-0.5,-0.6 -1,-1.2 -1.4,-1.8Z" style="fill-rule:nonzero;"/>            <path d="M121.2,88.2c-4.3,5 -7.8,9 -11.7,13.5c7.2,3.3 9.3,8.4 7.4,15.3c-2.2,7.7 -9.5,14.9 -16.1,15.6c-6.6,0.7 -10.3,-2.9 -11.1,-10.8c-1.2,-12.8 16.8,-32.9 31.5,-33.6Z" style="fill-rule:nonzero;"/>        </g>        <g>            <path d="M121.7,315.5l3.7,-6.7c1.2,1 2.9,2 4.9,2c2.8,0 4.6,-1.8 4.6,-4.7l0,-22.4l8.8,0l0,22.5c0,8.5 -5.1,12.4 -12.7,12.4c-3.3,-0.1 -6.7,-0.9 -9.3,-3.1Z" style="fill-rule:nonzero;"/>            <path d="M166.5,317.9l0,-3c-1.5,1.7 -4.4,3.6 -8.6,3.6c-5.7,0 -8.2,-3.2 -8.2,-7.8l0,-17.7l7.9,0l0,14.4c0,3 1.5,4 4.1,4c2.3,0 3.8,-1.2 4.7,-2.4l0,-16l7.9,0l0,24.8l-7.8,0l0,0.1Z" style="fill-rule:nonzero;"/>            <path d="M178.1,314.7l3.3,-5.5c1.9,1.6 5.8,3.3 8.7,3.3c2.4,0 3.3,-0.8 3.3,-1.9c0,-3.2 -14.4,-0.1 -14.4,-10c0,-4.4 3.8,-8.2 10.6,-8.2c4.2,0 7.7,1.3 10.4,3.3l-3,5.2c-1.5,-1.4 -4.3,-2.7 -7.3,-2.7c-1.9,0 -3.1,0.8 -3.1,1.8c0,2.9 14.5,0.1 14.5,10.2c0,4.7 -4.2,8.2 -11.3,8.2c-4.5,0.1 -9.1,-1.4 -11.7,-3.7Z" style="fill-rule:nonzero;"/>            <path d="M206.7,311.2l0,-11.2l-4.1,0l0,-6.9l4.1,0l0,-6.8l7.9,0l0,6.8l5,0l0,6.9l-5,0l0,9c0,1.4 0.8,2.5 2.2,2.5c0.9,0 1.7,-0.3 2,-0.6l1.5,6c-1,0.9 -2.9,1.6 -5.9,1.6c-5,0 -7.7,-2.5 -7.7,-7.3Z" style="fill-rule:nonzero;"/>            <path d="M223.8,304l0,-20.4l9,0l0,20.1c0,4.1 2.4,7 7.3,7c4.7,0 7.2,-2.9 7.2,-7l0,-20.1l8.9,0l0,20.4c0,8.5 -5.2,14.6 -16.1,14.6c-11.1,-0.1 -16.3,-6.1 -16.3,-14.6Z" style="fill-rule:nonzero;"/>            <path d="M260,314.7l3.3,-5.5c1.9,1.6 5.8,3.3 8.7,3.3c2.4,0 3.3,-0.8 3.3,-1.9c0,-3.2 -14.4,-0.1 -14.4,-10c0,-4.4 3.8,-8.2 10.6,-8.2c4.2,0 7.7,1.3 10.4,3.3l-3,5.2c-1.5,-1.4 -4.3,-2.7 -7.3,-2.7c-1.9,0 -3.1,0.8 -3.1,1.8c0,2.9 14.5,0.1 14.5,10.2c0,4.7 -4.2,8.2 -11.3,8.2c-4.5,0.1 -9,-1.4 -11.7,-3.7Z" style="fill-rule:nonzero;"/>        </g>    </g></svg>