<?xml version="1.0" encoding="UTF-8" standalone="no"?><!DOCTYPE svg PUBLIC "-//W3C//DTD SVG 1.1//EN" "http://www.w3.org/Graphics/SVG/1.1/DTD/svg11.dtd"><svg width="100%" height="100%" viewBox="0 0 1024 512" version="1.1" xmlns="http://www.w3.org/2000/svg" xmlns:xlink="http://www.w3.org/1999/xlink" xml:space="preserve" style="fill-rule:evenodd;clip-rule:evenodd;stroke-linejoin:round;stroke-miterlimit:2;"><title>Triodos Bank</title><desc>On Triodos Bank, you can invest directly in pioneering organisations delivering positive change.We create direct investment opportunities with businesses, charities and social enterprises spanning a range of sectors and industries. We work with these organisations to get them ready for investment and provide you with all of the information you need to make your decision.</desc>    <g transform="matrix(5.57882,0,0,5.57882,-124.514,-2152.8)">        <g transform="matrix(1,0,0,1,157.011,425.156)">            <path d="M0,10.139c-0.006,2.235 -1.085,3.854 -3.58,3.859c-0.718,-0.005 -1.474,-0.175 -2.217,-0.447l0,-7.897l1.195,0c3.273,0.014 4.596,2.23 4.602,4.485m-0.853,-9.243c-0.018,3.093 -1.851,3.692 -3.919,3.681l-1.025,0l0,-6.999c0.5,-0.123 0.96,-0.182 1.451,-0.182c2.045,0 3.475,1.338 3.493,3.5m13.213,12.295c-0.245,0.149 -0.759,0.662 -1.705,0.627c-1.188,0.035 -1.969,-0.988 -1.96,-2.33c-0.009,-2.127 1.692,-2.979 3.239,-2.961c0.099,-0.018 0.181,0.01 0.255,0l0,3.14c0.033,0.507 0.115,1.218 0.171,1.524m-8.865,-3.499c0.009,-3.456 -2.879,-4.593 -4.517,-4.848l0,-0.087c1.394,-0.424 3.662,-1.477 3.666,-4.487c-0.004,-3.952 -4.487,-3.952 -5.798,-3.951l-8.012,0l0,0.721l0.597,0.087c1.303,0.186 1.303,0.186 1.279,3.324l0,10.406c0.024,3.222 0.052,3.222 -1.279,3.41l-0.597,0.09l0,0.72l6.99,0c4.033,-0.002 7.68,-1.197 7.671,-5.385m13.978,5.116l-0.083,-0.359l-0.171,0c-1.759,0 -1.759,-2.103 -1.79,-4.129l0,-3.499c0.031,-3.256 -0.564,-5.104 -3.921,-5.115c-2.769,0.011 -4.632,1.63 -5.881,3.051c0.251,0.654 0.386,0.883 0.766,1.436l0.257,0c0.363,-0.867 1.146,-2.826 3.238,-2.781c1.901,-0.045 2.334,1.46 2.301,3.14l0,0.717c-2.207,0.586 -6.958,1.553 -6.99,5.116c0.032,1.838 1.462,3.115 3.582,3.141c1.877,-0.026 2.984,-0.906 3.75,-1.438c0.42,0.674 0.907,1.412 2.641,1.438c1.18,-0.026 1.963,-0.538 2.301,-0.718m15.684,0.269l0,-0.72l-0.512,-0.09c-0.987,-0.075 -1.124,-0.387 -1.107,-1.882l0,-5.564c-0.017,-3.882 -1.662,-5.104 -4.092,-5.115c-2.295,0.011 -3.59,1.035 -4.262,1.706l0,-1.706c-1.407,0.097 -2.836,0.323 -4.859,1.077l0,0.808c0.104,-0.056 0.457,-0.197 0.853,-0.179c0.82,-0.018 0.82,1.261 0.853,2.242l0,6.731c-0.033,1.495 -0.171,1.807 -1.107,1.882l-0.512,0.09l0,0.72l6.477,0l0,-0.72l-0.51,-0.09c-1.011,-0.075 -1.143,-0.387 -1.109,-1.882l0,-7.898c0.397,-0.525 1.098,-1.12 2.215,-1.075c2.799,-0.045 2.799,2.681 2.814,4.932l0,4.041c-0.015,1.495 -0.152,1.807 -1.107,1.882l-0.599,0.09l0,0.72l6.564,0Zm15.344,0l0,-0.72c-1.054,-0.022 -1.295,-0.306 -5.626,-7.448c3.034,-3.259 3.063,-3.686 4.688,-3.949l0.511,-0.089l0,-0.718l-5.967,0l0,0.718l0.853,0.089c0.385,0.092 0.844,0.178 0.853,0.452c-0.009,0.379 -0.28,0.777 -1.195,1.973l-0.936,1.075c-0.982,1.169 -1.55,1.224 -2.558,1.257l0,-13.102c-1.421,-0.002 -2.636,0.168 -4.858,0.628l0,0.717c0.09,0.045 0.413,-0.012 0.766,0c0.89,-0.012 0.89,1.098 0.853,3.592l0,12.833c0.037,1.495 -0.126,1.807 -1.107,1.882l-0.512,0.09l0,0.72l6.564,0l0,-0.72l-0.597,-0.09c-0.936,-0.075 -1.072,-0.387 -1.109,-1.882l0,-3.59l0.34,0c1.128,-0.029 1.153,0.737 2.558,2.962c1.405,2.265 1.566,3.318 4.432,3.32l2.047,0Zm-138,-6.104c-0.013,2.206 -0.604,5.448 -3.153,5.476c-2.553,-0.028 -3.525,-3.298 -3.495,-6.281c-0.03,-2.36 0.645,-5.37 3.068,-5.385c2.759,0.015 3.567,3.169 3.58,6.19m15.172,4.398c-0.284,0.225 -0.849,0.482 -1.535,0.447c-2.177,0.035 -4.525,-2.182 -4.516,-6.012c-0.009,-2.878 1.367,-5.008 3.75,-5.023c1.289,0.015 1.803,0.525 2.301,0.988l0,9.6Zm15.684,-4.398c0.012,2.206 -0.58,5.448 -3.069,5.476c-2.614,-0.028 -3.586,-3.298 -3.58,-6.281c-0.006,-2.36 0.671,-5.37 3.154,-5.385c2.697,0.015 3.507,3.169 3.495,6.19m-60.007,-7.805c0.015,-0.417 -0.229,-4.224 -0.341,-4.849l-15.001,0c-0.11,0.625 -0.353,4.432 -0.341,4.849l0.937,0c0.724,-3.032 1.02,-3.772 4.092,-3.772l1.022,0l0,13.551c0.036,2.906 0.036,3.075 -1.704,3.32l-0.682,0.09l0,0.72l8.353,0l0,-0.72l-0.682,-0.09c-1.739,-0.245 -1.739,-0.414 -1.705,-3.32l0,-13.551l1.023,0c3.073,0 3.37,0.74 4.092,3.772l0.937,0Zm9.547,1.792c-0.408,-0.419 -1.084,-1.243 -2.217,-1.254c-1.377,0.011 -2.51,1.376 -3.068,1.973c0.019,-0.853 -0.117,-1.45 -0.171,-1.973c-1.971,0.323 -2.538,0.523 -4.603,1.254l0,0.719c0.202,-0.059 0.499,-0.172 0.938,-0.18c0.776,0.008 0.776,1.288 0.768,2.243l0,6.643c0.008,1.495 -0.126,1.807 -1.109,1.882l-0.597,0.09l0,0.72l7.161,0l0,-0.72l-1.108,-0.18c-1.1,-0.126 -1.1,-0.496 -1.109,-2.51l0,-6.91c0.361,-0.452 0.685,-0.568 1.109,-0.541c0.359,-0.027 1.923,0.656 2.386,0.81c0.832,-0.666 1.212,-1.149 1.62,-2.066m7.842,12.117l0,-0.72l-0.597,-0.09c-0.932,-0.075 -1.067,-0.387 -1.109,-1.882l0,-10.679c-1.363,0.097 -2.846,0.323 -4.857,1.077l0,0.808c0.093,-0.056 0.443,-0.197 0.851,-0.179c0.808,-0.018 0.808,1.261 0.768,2.242l0,6.731c0.04,1.495 -0.095,1.807 -1.109,1.882l-0.51,0.09l0,0.72l6.563,0Zm-1.62,-17.768c0.037,-1.049 -0.828,-1.93 -1.875,-1.886c-1.057,-0.044 -1.867,0.837 -1.876,1.886c0.009,1.197 0.819,2.05 1.876,2.061c1.047,-0.011 1.912,-0.835 1.875,-2.061m16.792,11.035c0.034,-4.581 -3.152,-6.627 -6.649,-6.638c-3.439,0.011 -6.894,2.171 -6.903,7.089c0.009,4.744 3.22,6.705 6.648,6.731c3.481,-0.026 6.938,-2.129 6.904,-7.182m16.877,5.923l-0.086,-0.716l-0.596,0c-1.179,-0.012 -1.179,-0.666 -1.193,-2.963l0,-15.973c-1.444,-0.002 -2.659,0.168 -4.86,0.628l0,0.717c0.068,0.045 0.393,-0.012 0.682,0c0.953,-0.012 0.953,1.098 0.938,3.592l0,2.331c-0.498,-0.08 -0.985,-0.166 -1.789,-0.177c-2.219,0.011 -7.724,0.948 -7.757,7.446c0.033,4.332 3.001,6.348 5.966,6.374c1.758,-0.026 3.055,-0.936 3.751,-1.349l0.682,1.349c1.429,-0.311 2.915,-0.652 4.262,-1.259m14.064,-5.923c-0.026,-4.581 -3.213,-6.627 -6.733,-6.638c-3.417,0.011 -6.87,2.171 -6.905,7.089c0.035,4.744 3.245,6.705 6.733,6.731c3.422,-0.026 6.879,-2.129 6.905,-7.182m11.081,3.052c-0.012,-4.336 -6.086,-3.853 -6.052,-6.819c-0.034,-1.012 0.64,-1.779 1.449,-1.794c2.026,0.015 2.62,2.316 2.728,3.23l1.022,0c0.031,-1.141 0.002,-2.393 -0.256,-3.499c-0.658,-0.37 -1.82,-0.797 -3.238,-0.808c-4.817,0.011 -4.817,3.506 -4.859,3.768c0.042,4.514 6.115,3.689 6.137,7.09c-0.022,1.005 -0.67,1.857 -1.79,1.885c-2.038,-0.028 -3.254,-2.302 -3.409,-3.861l-1.108,0c0.024,1.701 0.239,2.896 0.511,4.04c0.97,0.503 2.131,0.872 3.75,0.898c3.617,-0.026 5.103,-1.93 5.115,-4.13" style="fill:rgb(33,45,98);fill-rule:nonzero;"/>        </g>        <g transform="matrix(1,0,0,1,132.217,433.287)">            <path d="M0,-2.993c-0.573,1.853 -1.623,3.529 -2.898,4.846c-1.236,-1.404 -2.074,-3.223 -2.472,-5.024c0.697,-0.187 1.452,-0.273 2.216,-0.271c1.069,-0.002 2.123,0.17 3.154,0.449m8.865,1.976c0.039,-3.449 -1.368,-6.802 -3.24,-8.793c-1.176,-1.248 -2.257,-2.015 -3.833,-2.785l-0.173,0.362c0.751,0.463 1.373,0.975 2.131,1.702c2.05,2.143 3.397,5.78 3.41,8.797c-0.013,0.423 -0.013,1.02 -0.085,1.524c-0.413,-1.273 -1.114,-2.351 -2.046,-3.319c-0.257,-0.311 -0.632,-0.709 -0.937,-0.899c-0.021,0.673 -0.289,2.151 -0.596,2.963c0.386,0.382 0.603,0.636 1.023,0.985c0.82,0.96 1.387,2.151 1.362,3.141c0.025,0.574 -0.217,1.17 -0.682,1.617c-0.399,0.464 -1.289,0.803 -2.215,0.807c-1.017,-0.004 -2.584,-0.601 -3.41,-1.259c1.663,-1.727 2.662,-3.63 3.324,-6.011c0.229,-1.03 0.363,-2.053 0.34,-3.052c0.023,-1.873 -0.41,-3.633 -1.193,-5.022c-1.186,-2.219 -3.021,-3.473 -5.454,-3.5c-2.831,0.027 -5.504,1.506 -7.5,3.677c-2.296,2.404 -3.429,5.389 -3.41,8.435c-0.019,0.564 0.008,1.075 0.084,1.705l0.342,0c0.015,-0.944 0.121,-1.797 0.34,-2.87c0.483,-1.881 1.727,-3.983 3.324,-5.652c1.1,-1.174 2.344,-2.026 3.496,-2.513c-0.832,1.025 -1.396,2.192 -1.791,3.497c-0.064,0.4 -0.172,0.968 -0.17,1.347c0.537,-0.323 1.887,-0.833 2.727,-0.986c0.214,-1.296 0.672,-2.747 1.621,-3.681c0.428,-0.515 0.965,-0.827 1.619,-0.805c1.05,-0.022 1.858,0.774 2.385,1.703c0.498,0.919 0.823,2.594 0.682,3.769c-1.126,-0.379 -2.206,-0.549 -3.323,-0.539c-1.043,-0.01 -2.123,0.16 -3.324,0.539c-1.85,0.501 -3.576,1.525 -4.859,2.873c-1.282,1.351 -2.307,3.284 -2.301,5.293c-0.006,2.055 0.991,3.787 2.301,5.207c2.227,2.333 5.383,3.526 8.525,3.497c2.476,0.029 4.716,-0.88 6.733,-2.42l-0.172,-0.272c-1.604,0.901 -3.303,1.357 -5.199,1.345c-2.639,0.012 -5.475,-0.84 -7.415,-2.42c0.537,0.073 1.052,0.13 1.534,0.088c0.946,0.042 2.593,-0.213 3.411,-0.716c-0.494,-0.35 -1.573,-1.344 -2.132,-2.064c-0.818,0.351 -1.816,0.605 -2.727,0.627c-0.817,-0.022 -1.736,-0.22 -2.301,-0.898c-0.378,-0.403 -0.597,-0.942 -0.597,-1.524c0,-1.181 0.622,-2.174 1.363,-2.963c0.557,-0.633 1.285,-1.173 1.875,-1.436c0.596,2.396 1.65,4.328 3.323,6.103c2.025,2.089 4.698,3.284 7.076,3.322c1.751,-0.01 3.263,-0.551 4.519,-1.887c1.362,-1.449 2.254,-4.006 2.215,-6.639" style="fill:rgb(0,156,128);fill-rule:nonzero;"/>        </g>    </g></svg>