<?xml version="1.0" encoding="UTF-8" standalone="no"?><!DOCTYPE svg PUBLIC "-//W3C//DTD SVG 1.1//EN" "http://www.w3.org/Graphics/SVG/1.1/DTD/svg11.dtd"><svg width="100%" height="100%" viewBox="0 0 1024 512" version="1.1" xmlns="http://www.w3.org/2000/svg" xmlns:xlink="http://www.w3.org/1999/xlink" xml:space="preserve" style="fill-rule:evenodd;clip-rule:evenodd;stroke-linejoin:round;stroke-miterlimit:2;"><title>Symbid</title><desc>Symbid makes the market for equity funding accessible for ambitious entrepreneurs. At Symbid, ambitious entrepreneurs present their plans to thousands of crowdfunders and professional investors. These investors invest in the businesses they believe in and become a shareholder. This way they benefit from future growth of the company.</desc>    <g transform="matrix(1.26446,0,0,1.26446,-261.868,33.414)">        <g transform="matrix(266.667,0,0,266.667,200.68,238.119)">            <path d="M0.03,-0.074l0.067,-0.087c0.005,0.005 0.011,0.012 0.02,0.019c0.008,0.007 0.024,0.017 0.05,0.03c0.024,0.013 0.049,0.019 0.073,0.019c0.026,0 0.048,-0.004 0.065,-0.011c0.017,-0.007 0.025,-0.018 0.025,-0.032c0,-0.015 -0.006,-0.025 -0.018,-0.031c-0.012,-0.006 -0.037,-0.013 -0.076,-0.021c-0.117,-0.025 -0.176,-0.075 -0.176,-0.15c0,-0.039 0.019,-0.074 0.056,-0.104c0.037,-0.029 0.086,-0.044 0.148,-0.044c0.032,0 0.063,0.005 0.092,0.014c0.03,0.01 0.052,0.02 0.066,0.03l0.02,0.014l-0.06,0.088c-0.036,-0.027 -0.075,-0.041 -0.118,-0.041c-0.024,0 -0.044,0.004 -0.061,0.012c-0.017,0.008 -0.025,0.019 -0.025,0.033c0,0.013 0.007,0.023 0.022,0.029c0.015,0.007 0.045,0.015 0.09,0.024c0.053,0.011 0.093,0.028 0.121,0.049c0.026,0.021 0.04,0.055 0.04,0.1c0,0.041 -0.02,0.076 -0.058,0.104c-0.04,0.028 -0.089,0.042 -0.149,0.042c-0.026,0 -0.051,-0.003 -0.076,-0.009c-0.024,-0.006 -0.044,-0.013 -0.06,-0.022c-0.016,-0.008 -0.03,-0.016 -0.043,-0.025c-0.012,-0.008 -0.021,-0.015 -0.027,-0.021l-0.008,-0.009Z" style="fill:rgb(73,139,202);fill-rule:nonzero;"/>        </g>        <g transform="matrix(0.655116,0,0,0.655116,70.5327,-99.8482)">            <path d="M488.429,593.077l-53.155,0l34.779,-89.033c0,0 -3.952,-0.316 -7.596,-1.635c-2.865,-1.037 -7.033,-4.852 -7.033,-4.852l-69.898,-174.611l54.138,0l51.129,131.247l52.881,-131.247l52.51,0l-107.755,270.131Z" style="fill:rgb(73,139,202);fill-rule:nonzero;"/>        </g>        <g transform="matrix(266.667,0,0,266.667,456.395,238.119)">            <path d="M0.61,-0.486c0.049,0 0.089,0.016 0.12,0.048c0.031,0.033 0.046,0.077 0.046,0.133l0,0.305l-0.12,0l0,-0.274c0,-0.067 -0.028,-0.1 -0.085,-0.1c-0.019,0 -0.036,0.005 -0.051,0.015c-0.015,0.01 -0.026,0.02 -0.032,0.031l-0.01,0.015l0,0.313l-0.12,0l0,-0.274c0,-0.067 -0.028,-0.1 -0.085,-0.1c-0.012,0 -0.023,0.002 -0.034,0.007c-0.011,0.004 -0.019,0.009 -0.026,0.015c-0.007,0.005 -0.013,0.011 -0.018,0.017c-0.005,0.006 -0.009,0.011 -0.011,0.015l-0.004,0.007l0,0.313l-0.12,0l0,-0.474l0.112,0l0,0.069c0.001,-0.002 0.003,-0.005 0.006,-0.009c0.002,-0.003 0.007,-0.01 0.016,-0.019c0.008,-0.009 0.017,-0.018 0.027,-0.025c0.01,-0.006 0.023,-0.013 0.04,-0.019c0.016,-0.006 0.033,-0.009 0.051,-0.009c0.021,0 0.041,0.003 0.059,0.009c0.018,0.005 0.032,0.012 0.043,0.021c0.01,0.008 0.019,0.016 0.026,0.024c0.007,0.008 0.012,0.015 0.015,0.02l0.004,0.009c0.001,-0.002 0.003,-0.005 0.005,-0.009c0.002,-0.004 0.007,-0.011 0.016,-0.02c0.009,-0.009 0.018,-0.018 0.029,-0.025c0.011,-0.007 0.025,-0.014 0.043,-0.02c0.018,-0.006 0.037,-0.009 0.058,-0.009Z" style="fill:rgb(73,139,202);fill-rule:nonzero;"/>        </g>        <g transform="matrix(266.667,0,0,266.667,668.191,238.119)">            <path d="M0.074,0l0,-0.655l0.12,0l0,0.231c0.003,-0.005 0.008,-0.011 0.015,-0.017c0.007,-0.007 0.021,-0.017 0.044,-0.028c0.024,-0.011 0.048,-0.017 0.075,-0.017c0.063,0 0.117,0.024 0.162,0.071c0.046,0.047 0.069,0.107 0.069,0.178c0,0.071 -0.023,0.131 -0.068,0.178c-0.046,0.047 -0.1,0.071 -0.163,0.071c-0.019,0 -0.037,-0.002 -0.054,-0.007c-0.017,-0.005 -0.03,-0.012 -0.04,-0.019c-0.011,-0.007 -0.02,-0.015 -0.027,-0.022c-0.008,-0.007 -0.014,-0.013 -0.017,-0.018l-0.005,-0.008l0,0.062l-0.111,0Zm0.12,-0.308l0,0.142c0.003,0.005 0.007,0.011 0.012,0.018c0.005,0.007 0.017,0.017 0.037,0.03c0.019,0.012 0.041,0.018 0.064,0.018c0.04,0 0.072,-0.013 0.095,-0.038c0.023,-0.026 0.035,-0.059 0.035,-0.099c0,-0.04 -0.012,-0.073 -0.035,-0.098c-0.023,-0.026 -0.055,-0.039 -0.095,-0.039c-0.015,0 -0.029,0.002 -0.042,0.007c-0.013,0.005 -0.024,0.01 -0.032,0.017c-0.009,0.006 -0.016,0.012 -0.022,0.019c-0.006,0.006 -0.01,0.011 -0.013,0.016l-0.004,0.007Z" style="fill:rgb(73,139,202);fill-rule:nonzero;"/>        </g>        <g transform="matrix(0.790852,0,0,0.790852,210.636,-7.14008)">            <path d="M790.702,310.12l0,-159.827l40.463,0l0,159.827l-40.463,0Zm45.423,-220.399c0.964,2.784 1.447,5.778 1.447,8.982c0,7.418 -2.586,13.712 -7.756,18.882c-5.17,5.171 -11.464,7.756 -18.882,7.756c-7.419,0 -13.713,-2.585 -18.883,-7.756c-5.17,-5.17 -7.755,-11.464 -7.755,-18.882c0,-3.204 0.482,-6.198 1.446,-8.982l50.383,0Z" style="fill:rgb(73,139,202);fill-rule:nonzero;"/>        </g>        <g transform="matrix(266.667,0,0,266.667,878.549,238.119)">            <path d="M0.513,-0.655l0,0.655l-0.111,0l0,-0.062c-0.001,0.002 -0.003,0.005 -0.005,0.008c-0.002,0.003 -0.007,0.009 -0.016,0.018c-0.009,0.009 -0.018,0.016 -0.028,0.023c-0.01,0.006 -0.023,0.012 -0.04,0.017c-0.017,0.005 -0.035,0.008 -0.054,0.008c-0.063,0 -0.117,-0.024 -0.163,-0.071c-0.045,-0.047 -0.068,-0.107 -0.068,-0.178c0,-0.071 0.023,-0.131 0.069,-0.178c0.045,-0.047 0.099,-0.071 0.162,-0.071c0.027,0 0.051,0.005 0.074,0.015c0.022,0.011 0.038,0.021 0.047,0.031l0.013,0.016l0,-0.231l0.12,0Zm-0.12,0.489l0,-0.142c-0.003,-0.005 -0.007,-0.011 -0.012,-0.018c-0.005,-0.007 -0.017,-0.017 -0.036,-0.03c-0.02,-0.012 -0.042,-0.018 -0.065,-0.018c-0.04,0 -0.072,0.013 -0.095,0.038c-0.023,0.026 -0.035,0.059 -0.035,0.099c0,0.04 0.012,0.073 0.035,0.099c0.023,0.025 0.055,0.038 0.095,0.038c0.015,0 0.029,-0.002 0.042,-0.007c0.013,-0.005 0.024,-0.01 0.033,-0.016c0.008,-0.007 0.015,-0.013 0.021,-0.02c0.006,-0.006 0.01,-0.011 0.013,-0.016l0.004,-0.007Z" style="fill:rgb(73,139,202);fill-rule:nonzero;"/>        </g>    </g></svg>