<?xml version="1.0" encoding="UTF-8" standalone="no"?><!DOCTYPE svg PUBLIC "-//W3C//DTD SVG 1.1//EN" "http://www.w3.org/Graphics/SVG/1.1/DTD/svg11.dtd"><svg width="100%" height="100%" viewBox="0 0 1024 512" version="1.1" xmlns="http://www.w3.org/2000/svg" xmlns:xlink="http://www.w3.org/1999/xlink" xml:space="preserve" style="fill-rule:evenodd;clip-rule:evenodd;stroke-linejoin:round;stroke-miterlimit:2;"><title>Price Value Partners</title><desc></desc>    <g transform="matrix(14.3783,0,0,5.99916,-612.529,123.198)">        <g transform="matrix(6.06284,0,0,12.8641,42.1702,27.1079)">            <path d="M0.094,-0.708l0.2,0c0.036,0 0.069,0.004 0.098,0.011c0.029,0.008 0.055,0.02 0.076,0.035c0.02,0.016 0.037,0.036 0.048,0.059c0.011,0.024 0.017,0.052 0.017,0.084c0,0.032 -0.006,0.06 -0.018,0.083c-0.011,0.024 -0.028,0.044 -0.048,0.059c-0.022,0.016 -0.047,0.028 -0.077,0.036c-0.029,0.008 -0.062,0.012 -0.098,0.012l-0.126,-0l-0,0.329l-0.072,-0l-0,-0.708Zm0.072,0.318l0.122,-0c0.057,-0 0.1,-0.011 0.129,-0.033c0.029,-0.022 0.044,-0.054 0.044,-0.096c0,-0.044 -0.015,-0.076 -0.045,-0.097c-0.031,-0.02 -0.073,-0.03 -0.128,-0.03l-0.122,-0l-0,0.256Z" style="fill:rgb(32,67,156);fill-rule:nonzero;"/>        </g>        <g transform="matrix(6.06284,0,0,12.8641,45.882,27.1079)">            <path d="M0.166,-0l-0.072,-0l0,-0.708l0.208,0c0.035,0 0.067,0.003 0.096,0.01c0.03,0.007 0.056,0.017 0.078,0.032c0.021,0.015 0.038,0.035 0.05,0.059c0.012,0.024 0.018,0.053 0.018,0.088c0,0.026 -0.005,0.05 -0.014,0.071c-0.009,0.021 -0.022,0.04 -0.038,0.055c-0.016,0.016 -0.035,0.029 -0.057,0.038c-0.022,0.009 -0.046,0.015 -0.072,0.018l0.207,0.337l-0.088,-0l-0.196,-0.331l-0.12,-0l-0,0.331Zm-0,-0.393l0.125,-0c0.058,-0 0.103,-0.011 0.134,-0.032c0.031,-0.021 0.047,-0.052 0.047,-0.094c-0,-0.023 -0.004,-0.043 -0.013,-0.059c-0.009,-0.016 -0.021,-0.029 -0.036,-0.039c-0.015,-0.01 -0.034,-0.017 -0.056,-0.022c-0.022,-0.005 -0.046,-0.007 -0.073,-0.007l-0.128,0l-0,0.253Z" style="fill:rgb(32,67,156);fill-rule:nonzero;"/>        </g>        <g transform="matrix(6.06284,0,0,12.8641,49.5136,27.1079)">            <rect x="0.094" y="-0.708" width="0.072" height="0.708" style="fill:rgb(32,67,156);fill-rule:nonzero;"/>        </g>        <g transform="matrix(6.06284,0,0,12.8641,51.09,27.1079)">            <path d="M0.69,-0.114c-0.012,0.018 -0.027,0.035 -0.044,0.051c-0.016,0.016 -0.036,0.03 -0.058,0.042c-0.023,0.012 -0.047,0.021 -0.075,0.028c-0.027,0.007 -0.056,0.011 -0.088,0.011c-0.053,0 -0.103,-0.009 -0.148,-0.028c-0.045,-0.019 -0.084,-0.045 -0.117,-0.078c-0.033,-0.033 -0.058,-0.072 -0.077,-0.117c-0.018,-0.045 -0.027,-0.095 -0.027,-0.149c-0,-0.054 0.009,-0.104 0.028,-0.149c0.019,-0.045 0.044,-0.085 0.077,-0.118c0.033,-0.033 0.072,-0.058 0.117,-0.077c0.046,-0.019 0.094,-0.028 0.147,-0.028c0.026,0 0.051,0.003 0.077,0.008c0.025,0.005 0.048,0.013 0.07,0.022c0.022,0.01 0.042,0.022 0.06,0.035c0.018,0.014 0.033,0.03 0.045,0.047l-0.06,0.044c-0.007,-0.011 -0.017,-0.023 -0.03,-0.034c-0.012,-0.011 -0.026,-0.021 -0.043,-0.03c-0.017,-0.009 -0.035,-0.016 -0.055,-0.021c-0.019,-0.005 -0.04,-0.008 -0.063,-0.008c-0.046,-0 -0.087,0.008 -0.124,0.025c-0.036,0.017 -0.067,0.039 -0.092,0.067c-0.025,0.029 -0.045,0.062 -0.058,0.099c-0.013,0.037 -0.02,0.077 -0.02,0.118c-0,0.041 0.007,0.081 0.02,0.118c0.014,0.037 0.034,0.07 0.059,0.098c0.025,0.029 0.056,0.051 0.092,0.068c0.037,0.017 0.078,0.025 0.123,0.025c0.041,-0 0.079,-0.008 0.116,-0.025c0.037,-0.017 0.067,-0.043 0.092,-0.08l0.056,0.036Z" style="fill:rgb(32,67,156);fill-rule:nonzero;"/>        </g>        <g transform="matrix(6.06284,0,0,12.8641,55.4552,27.1079)">            <path d="M0.166,-0.064l0.379,0l0,0.064l-0.451,-0l-0,-0.708l0.439,0l0,0.064l-0.367,-0l-0,0.244l0.343,-0l-0,0.063l-0.343,-0l-0,0.273Z" style="fill:rgb(32,67,156);fill-rule:nonzero;"/>        </g>        <g transform="matrix(7.7239,0,0,17.2547,59.0066,28.0811)">            <path d="M0.424,-0l-0.171,-0l-0.268,-0.708l0.192,0l0.164,0.502l0.004,-0l0.163,-0.502l0.189,0l-0.273,0.708Z" style="fill:rgb(11,34,100);fill-rule:nonzero;"/>        </g>        <g transform="matrix(7.7239,0,0,17.2547,64.0426,28.0811)">            <path d="M0.553,-0l-0.055,-0.139l-0.274,0l-0.052,0.139l-0.186,-0l0.297,-0.708l0.166,0l0.294,0.708l-0.19,-0Zm-0.19,-0.519l-0.09,0.243l0.178,0l-0.088,-0.243Z" style="fill:rgb(11,34,100);fill-rule:nonzero;"/>        </g>        <g transform="matrix(7.7239,0,0,17.2547,69.6733,28.0811)">            <path d="M0.073,-0l0,-0.708l0.172,0l0,0.559l0.274,-0l0,0.149l-0.446,-0Z" style="fill:rgb(11,34,100);fill-rule:nonzero;"/>        </g>        <g transform="matrix(7.7239,0,0,17.2547,73.5507,28.0811)">            <path d="M0.673,-0.267c0,0.043 -0.007,0.082 -0.022,0.117c-0.014,0.035 -0.034,0.065 -0.061,0.09c-0.027,0.025 -0.059,0.044 -0.097,0.058c-0.037,0.014 -0.079,0.021 -0.125,0.021c-0.047,0 -0.089,-0.007 -0.126,-0.021c-0.037,-0.014 -0.069,-0.033 -0.095,-0.058c-0.026,-0.025 -0.046,-0.055 -0.06,-0.09c-0.014,-0.035 -0.021,-0.074 -0.021,-0.117l-0,-0.441l0.17,0l-0,0.427c-0,0.019 0.002,0.038 0.007,0.055c0.005,0.017 0.013,0.033 0.023,0.046c0.011,0.014 0.024,0.025 0.041,0.033c0.017,0.008 0.038,0.012 0.062,0.012c0.024,-0 0.044,-0.004 0.061,-0.012c0.017,-0.008 0.031,-0.019 0.042,-0.033c0.011,-0.013 0.018,-0.029 0.023,-0.046c0.005,-0.017 0.007,-0.036 0.007,-0.055l-0,-0.427l0.171,0l-0,0.441Z" style="fill:rgb(11,34,100);fill-rule:nonzero;"/>        </g>        <g transform="matrix(7.7239,0,0,17.2547,79.2509,28.0811)">            <path d="M0.073,-0l0,-0.708l0.476,0l0,0.145l-0.311,-0l-0,0.133l0.294,-0l0,0.137l-0.294,-0l-0,0.147l0.329,-0l0,0.146l-0.494,-0Z" style="fill:rgb(11,34,100);fill-rule:nonzero;"/>        </g>        <g transform="matrix(6.06284,0,0,12.8641,84.3606,27.1082)">            <path d="M0.094,-0.708l0.2,0c0.036,0 0.069,0.004 0.098,0.011c0.029,0.008 0.055,0.02 0.076,0.035c0.02,0.016 0.037,0.036 0.048,0.059c0.011,0.024 0.017,0.052 0.017,0.084c0,0.032 -0.006,0.06 -0.018,0.083c-0.011,0.024 -0.028,0.044 -0.048,0.059c-0.022,0.016 -0.047,0.028 -0.077,0.036c-0.029,0.008 -0.062,0.012 -0.098,0.012l-0.126,-0l-0,0.329l-0.072,-0l-0,-0.708Zm0.072,0.318l0.122,-0c0.057,-0 0.1,-0.011 0.129,-0.033c0.029,-0.022 0.044,-0.054 0.044,-0.096c0,-0.044 -0.015,-0.076 -0.045,-0.097c-0.031,-0.02 -0.073,-0.03 -0.128,-0.03l-0.122,-0l-0,0.256Z" style="fill:rgb(32,67,156);fill-rule:nonzero;"/>        </g>        <g transform="matrix(6.06284,0,0,12.8641,87.5132,27.1082)">            <path d="M0.089,-0l-0.079,-0l0.306,-0.708l0.07,0l0.304,0.708l-0.08,-0l-0.078,-0.186l-0.366,0l-0.077,0.186Zm0.104,-0.252l0.312,0l-0.156,-0.376l-0.156,0.376Z" style="fill:rgb(32,67,156);fill-rule:nonzero;"/>        </g>        <g transform="matrix(6.06284,0,0,12.8641,91.7572,27.1082)">            <path d="M0.166,-0l-0.072,-0l0,-0.708l0.208,0c0.035,0 0.067,0.003 0.096,0.01c0.03,0.007 0.056,0.017 0.078,0.032c0.021,0.015 0.038,0.035 0.05,0.059c0.012,0.024 0.018,0.053 0.018,0.088c0,0.026 -0.005,0.05 -0.014,0.071c-0.009,0.021 -0.022,0.04 -0.038,0.055c-0.016,0.016 -0.035,0.029 -0.057,0.038c-0.022,0.009 -0.046,0.015 -0.072,0.018l0.207,0.337l-0.088,-0l-0.196,-0.331l-0.12,-0l-0,0.331Zm-0,-0.393l0.125,-0c0.058,-0 0.103,-0.011 0.134,-0.032c0.031,-0.021 0.047,-0.052 0.047,-0.094c-0,-0.023 -0.004,-0.043 -0.013,-0.059c-0.009,-0.016 -0.021,-0.029 -0.036,-0.039c-0.015,-0.01 -0.034,-0.017 -0.056,-0.022c-0.022,-0.005 -0.046,-0.007 -0.073,-0.007l-0.128,0l-0,0.253Z" style="fill:rgb(32,67,156);fill-rule:nonzero;"/>        </g>        <g transform="matrix(6.06284,0,0,12.8641,95.3161,27.1082)">            <path d="M0.321,-0l-0.072,-0l0,-0.644l-0.237,0l0,-0.064l0.546,0l0,0.064l-0.237,-0l-0,0.644Z" style="fill:rgb(32,67,156);fill-rule:nonzero;"/>        </g>        <g transform="matrix(6.06284,0,0,12.8641,98.7719,27.1082)">            <path d="M0.596,-0.105l0.002,0l0,-0.603l0.072,0l0,0.708l-0.09,-0l-0.412,-0.609l-0.002,0l0,0.609l-0.072,-0l0,-0.708l0.09,0l0.412,0.603Z" style="fill:rgb(32,67,156);fill-rule:nonzero;"/>        </g>        <g transform="matrix(6.06284,0,0,12.8641,103.404,27.1082)">            <path d="M0.166,-0.064l0.379,0l0,0.064l-0.451,-0l-0,-0.708l0.439,0l0,0.064l-0.367,-0l-0,0.244l0.343,-0l-0,0.063l-0.343,-0l-0,0.273Z" style="fill:rgb(32,67,156);fill-rule:nonzero;"/>        </g>        <g transform="matrix(6.06284,0,0,12.8641,106.993,27.1082)">            <path d="M0.166,-0l-0.072,-0l0,-0.708l0.208,0c0.035,0 0.067,0.003 0.096,0.01c0.03,0.007 0.056,0.017 0.078,0.032c0.021,0.015 0.038,0.035 0.05,0.059c0.012,0.024 0.018,0.053 0.018,0.088c0,0.026 -0.005,0.05 -0.014,0.071c-0.009,0.021 -0.022,0.04 -0.038,0.055c-0.016,0.016 -0.035,0.029 -0.057,0.038c-0.022,0.009 -0.046,0.015 -0.072,0.018l0.207,0.337l-0.088,-0l-0.196,-0.331l-0.12,-0l-0,0.331Zm-0,-0.393l0.125,-0c0.058,-0 0.103,-0.011 0.134,-0.032c0.031,-0.021 0.047,-0.052 0.047,-0.094c-0,-0.023 -0.004,-0.043 -0.013,-0.059c-0.009,-0.016 -0.021,-0.029 -0.036,-0.039c-0.015,-0.01 -0.034,-0.017 -0.056,-0.022c-0.022,-0.005 -0.046,-0.007 -0.073,-0.007l-0.128,0l-0,0.253Z" style="fill:rgb(32,67,156);fill-rule:nonzero;"/>        </g>        <g transform="matrix(6.06284,0,0,12.8641,110.625,27.1082)">            <path d="M0.437,-0.594c-0.015,-0.021 -0.035,-0.038 -0.059,-0.051c-0.024,-0.013 -0.053,-0.02 -0.087,-0.02c-0.017,0 -0.035,0.003 -0.053,0.008c-0.018,0.005 -0.034,0.013 -0.049,0.024c-0.015,0.011 -0.026,0.025 -0.036,0.042c-0.009,0.017 -0.013,0.036 -0.013,0.059c0,0.023 0.004,0.041 0.013,0.056c0.009,0.015 0.02,0.027 0.035,0.037c0.014,0.011 0.03,0.019 0.049,0.026c0.018,0.007 0.037,0.013 0.057,0.02c0.025,0.008 0.049,0.017 0.075,0.026c0.025,0.009 0.047,0.021 0.067,0.036c0.02,0.015 0.036,0.034 0.049,0.057c0.013,0.023 0.019,0.053 0.019,0.088c0,0.035 -0.007,0.066 -0.021,0.091c-0.013,0.026 -0.031,0.047 -0.052,0.064c-0.022,0.017 -0.047,0.029 -0.075,0.037c-0.027,0.008 -0.055,0.012 -0.083,0.012c-0.021,-0 -0.043,-0.002 -0.064,-0.007c-0.021,-0.004 -0.042,-0.01 -0.061,-0.019c-0.019,-0.009 -0.037,-0.02 -0.054,-0.033c-0.017,-0.013 -0.031,-0.029 -0.044,-0.046l0.062,-0.046c0.015,0.025 0.037,0.046 0.065,0.063c0.027,0.017 0.06,0.026 0.097,0.026c0.018,-0 0.036,-0.003 0.055,-0.009c0.019,-0.005 0.035,-0.014 0.05,-0.026c0.016,-0.011 0.028,-0.026 0.037,-0.043c0.01,-0.017 0.015,-0.036 0.015,-0.059c0,-0.025 -0.005,-0.045 -0.015,-0.062c-0.009,-0.016 -0.022,-0.03 -0.038,-0.041c-0.016,-0.011 -0.034,-0.02 -0.055,-0.027c-0.021,-0.007 -0.042,-0.015 -0.065,-0.022c-0.023,-0.007 -0.046,-0.016 -0.069,-0.025c-0.023,-0.009 -0.043,-0.022 -0.061,-0.037c-0.018,-0.015 -0.032,-0.033 -0.043,-0.055c-0.011,-0.022 -0.017,-0.049 -0.017,-0.081c0,-0.034 0.007,-0.063 0.021,-0.088c0.013,-0.025 0.031,-0.045 0.053,-0.061c0.022,-0.016 0.046,-0.028 0.073,-0.035c0.027,-0.007 0.053,-0.011 0.079,-0.011c0.048,0 0.089,0.009 0.123,0.025c0.034,0.017 0.06,0.038 0.077,0.061l-0.057,0.046Z" style="fill:rgb(32,67,156);fill-rule:nonzero;"/>        </g>    </g></svg>