<?xml version="1.0" encoding="UTF-8" standalone="no"?><!DOCTYPE svg PUBLIC "-//W3C//DTD SVG 1.1//EN" "http://www.w3.org/Graphics/SVG/1.1/DTD/svg11.dtd"><svg width="100%" height="100%" viewBox="0 0 1024 512" version="1.1" xmlns="http://www.w3.org/2000/svg" xmlns:xlink="http://www.w3.org/1999/xlink" xml:space="preserve" style="fill-rule:evenodd;clip-rule:evenodd;stroke-linejoin:round;stroke-miterlimit:2;"><title>Finanzas Para Todos</title><desc>Portal del Plan de Educación Financiera. Sitio web con consejos prácticos y herramientas para planificar el ahorro y la economía personal.</desc>    <g transform="matrix(5.6199,0,0,5.6199,-23.1715,108.688)">        <path d="M67.743,4.248l0,2.444l-8.106,-0l0,5.414l7.239,-0l-0,2.444l-7.239,-0l0,8.322l-2.599,0l0,-18.624l10.705,0Z" style="fill:rgb(26,29,28);fill-rule:nonzero;"/>        <path d="M72.289,9.879l-0,12.993l-2.474,0l0,-12.993l2.474,0Zm0.434,-4.177c0,0.898 -0.773,1.64 -1.64,1.64c-0.896,0 -1.639,-0.742 -1.639,-1.64c0,-0.866 0.743,-1.639 1.639,-1.639c0.866,0 1.64,0.773 1.64,1.639Z" style="fill:rgb(26,29,28);fill-rule:nonzero;"/>        <path d="M87.726,15.448l0,7.424l-2.444,0l-0,-7.084c-0,-2.289 -1.361,-3.744 -3.435,-3.744c-1.484,-0 -2.938,0.804 -3.681,2.073l0,8.755l-2.474,-0l0,-12.993l2.474,0l0,1.887c0.804,-1.299 2.476,-2.166 4.239,-2.166c3.249,0.031 5.321,2.32 5.321,5.848Z" style="fill:rgb(26,29,28);fill-rule:nonzero;"/>        <path d="M101.152,18.664l-0,-4.547c-0.681,-1.269 -2.258,-2.196 -3.866,-2.196c-2.507,0 -4.424,1.887 -4.424,4.456c0,2.536 1.917,4.455 4.424,4.455c1.609,-0.002 3.155,-0.899 3.866,-2.168Zm2.476,-8.785l-0,12.993l-2.476,0l-0,-1.887c-0.711,1.237 -2.536,2.167 -4.331,2.167c-3.589,0 -6.342,-2.941 -6.342,-6.744c-0,-3.806 2.753,-6.745 6.342,-6.745c1.825,-0 3.65,0.928 4.331,2.164l-0,-1.887l2.476,-0l-0,-0.061Z" style="fill:rgb(26,29,28);fill-rule:nonzero;"/>        <path d="M119.064,15.448l0,7.424l-2.443,0l0,-7.084c0,-2.289 -1.361,-3.744 -3.435,-3.744c-1.485,-0 -2.938,0.804 -3.682,2.073l0,8.755l-2.475,-0l-0,-12.993l2.475,0l0,1.887c0.804,-1.299 2.476,-2.166 4.239,-2.166c3.249,0.031 5.321,2.32 5.321,5.848Z" style="fill:rgb(26,29,28);fill-rule:nonzero;"/>        <path d="M132.985,11.704l-8.011,8.878l8.044,-0.031l-0,2.321l-11.478,-0l-0,-1.795l8.043,-8.91l-7.485,0.062l-0,-2.35l10.887,0l0,1.825Z" style="fill:rgb(26,29,28);fill-rule:nonzero;"/>        <path d="M145.328,18.664l-0,-4.547c-0.681,-1.269 -2.258,-2.196 -3.866,-2.196c-2.505,0 -4.425,1.887 -4.425,4.456c0,2.536 1.92,4.455 4.425,4.455c1.577,-0.002 3.156,-0.899 3.866,-2.168Zm2.476,-8.785l-0,12.993l-2.476,0l-0,-1.887c-0.71,1.237 -2.537,2.167 -4.33,2.167c-3.59,0 -6.343,-2.941 -6.343,-6.744c-0,-3.806 2.753,-6.745 6.343,-6.745c1.826,-0 3.649,0.928 4.33,2.164l-0,-1.887l2.476,-0l-0,-0.061Z" style="fill:rgb(26,29,28);fill-rule:nonzero;"/>        <path d="M150.31,21.293l1.021,-1.824c1.021,0.989 2.878,1.64 4.361,1.64c1.518,0 2.537,-0.774 2.537,-1.765c0,-2.907 -7.518,-0.959 -7.518,-5.753c0,-2.383 2.012,-3.959 4.919,-3.959c1.763,0 3.59,0.556 4.703,1.64l-1.053,1.855c-0.959,-0.928 -2.723,-1.423 -3.897,-1.423c-1.361,0 -2.227,0.681 -2.227,1.67c0,2.63 7.549,0.959 7.549,5.878c-0,2.228 -2.012,3.899 -4.98,3.899c-2.042,-0 -4.147,-0.743 -5.415,-1.858Z" style="fill:rgb(26,29,28);fill-rule:nonzero;"/>        <path d="M67.371,34.844c-0,-1.765 -1.392,-3.094 -3.156,-3.094l-4.578,0l0,6.188l4.578,0c1.764,0 3.156,-1.331 3.156,-3.094Zm2.567,-0c0,3.156 -2.444,5.568 -5.724,5.568l-4.578,-0l0,7.516l-2.568,0l0,-18.622l7.146,0c3.281,0 5.724,2.351 5.724,5.538Z" style="fill:rgb(26,29,28);fill-rule:nonzero;"/>        <path d="M81.478,43.723l0,-4.548c-0.681,-1.269 -2.258,-2.198 -3.866,-2.198c-2.506,0 -4.425,1.89 -4.425,4.455c0,2.538 1.918,4.455 4.425,4.455c1.607,0 3.185,-0.927 3.866,-2.164Zm2.475,-8.787l-0,12.992l-2.475,0l-0,-1.884c-0.711,1.235 -2.537,2.163 -4.331,2.163c-3.589,0 -6.342,-2.938 -6.342,-6.742c-0,-3.807 2.753,-6.776 6.342,-6.776c1.824,0 3.65,0.929 4.331,2.167l-0,-1.889l2.475,0l-0,-0.031Z" style="fill:rgb(26,29,28);fill-rule:nonzero;"/>        <path d="M94.687,34.875l-0.123,2.319c-0.434,-0.152 -0.99,-0.247 -1.454,-0.247c-1.053,0 -2.475,0.866 -3.248,2.32l0,8.66l-2.476,-0l0,-12.992l2.476,-0l0,1.888c0.711,-1.3 2.165,-2.166 3.403,-2.166c0.555,0.031 1.052,0.125 1.422,0.218Z" style="fill:rgb(26,29,28);fill-rule:nonzero;"/>        <path d="M105.917,43.723l-0,-4.548c-0.682,-1.269 -2.259,-2.198 -3.867,-2.198c-2.506,0 -4.423,1.89 -4.423,4.455c-0,2.538 1.917,4.455 4.423,4.455c1.608,0 3.154,-0.927 3.867,-2.164Zm2.476,-8.787l-0,12.992l-2.476,0l-0,-1.884c-0.713,1.235 -2.536,2.163 -4.331,2.163c-3.589,0 -6.342,-2.938 -6.342,-6.742c-0,-3.807 2.753,-6.776 6.342,-6.776c1.825,0 3.649,0.929 4.331,2.167l-0,-1.889l2.476,0l-0,-0.031Z" style="fill:rgb(26,29,28);fill-rule:nonzero;"/>        <path d="M131.222,31.75l-5.908,0l0,16.178l-2.599,0l-0,-16.178l-5.909,0l-0,-2.444l14.416,0l-0,2.444Z" style="fill:rgb(26,29,28);fill-rule:nonzero;"/>        <path d="M132.088,41.465c0,2.474 1.856,4.393 4.301,4.393c2.413,0 4.301,-1.919 4.301,-4.393c0,-2.537 -1.888,-4.455 -4.301,-4.455c-2.445,0 -4.301,1.918 -4.301,4.455Zm11.015,0c0,3.804 -2.939,6.742 -6.714,6.742c-3.775,0 -6.714,-2.938 -6.714,-6.742c0,-3.838 2.938,-6.776 6.714,-6.776c3.774,-0.001 6.714,2.938 6.714,6.776Z" style="fill:rgb(26,29,28);fill-rule:nonzero;"/>        <path d="M155.505,43.723l0,-4.548c-0.68,-1.269 -2.257,-2.198 -3.864,-2.198c-2.507,0 -4.425,1.89 -4.425,4.455c0,2.538 1.918,4.455 4.425,4.455c1.607,0 3.184,-0.927 3.864,-2.164Zm2.477,-14.417l0,18.622l-2.478,0l0,-1.884c-0.71,1.235 -2.536,2.163 -4.328,2.163c-3.59,0 -6.343,-2.938 -6.343,-6.742c0,-3.807 2.753,-6.776 6.343,-6.776c1.825,0 3.648,0.929 4.328,2.167l0,-7.518l2.478,0l0,-0.032Z" style="fill:rgb(26,29,28);fill-rule:nonzero;"/>        <path d="M162.808,41.465c0,2.474 1.856,4.393 4.3,4.393c2.413,0 4.3,-1.919 4.3,-4.393c0,-2.537 -1.887,-4.455 -4.3,-4.455c-2.444,0 -4.3,1.918 -4.3,4.455Zm11.012,0c0,3.804 -2.97,6.742 -6.713,6.742c-3.773,0 -6.713,-2.938 -6.713,-6.742c-0,-3.838 2.939,-6.776 6.713,-6.776c3.744,-0.001 6.713,2.938 6.713,6.776Z" style="fill:rgb(26,29,28);fill-rule:nonzero;"/>        <path d="M175.584,46.321l1.021,-1.825c1.021,0.99 2.877,1.639 4.361,1.639c1.516,-0 2.538,-0.772 2.538,-1.763c0,-2.907 -7.518,-0.958 -7.518,-5.755c0,-2.381 2.011,-3.96 4.918,-3.96c1.763,0 3.589,0.558 4.702,1.64l-1.052,1.856c-0.958,-0.927 -2.723,-1.422 -3.898,-1.422c-1.36,-0 -2.228,0.68 -2.228,1.67c0,2.63 7.549,0.958 7.549,5.879c-0,2.226 -2.01,3.897 -4.981,3.897c-2.041,0.03 -4.176,-0.744 -5.412,-1.856Z" style="fill:rgb(26,29,28);fill-rule:nonzero;"/>        <path d="M47.449,38.371c0,5.507 -4.486,9.991 -9.992,9.991c-5.507,-0 -9.992,-4.484 -9.992,-9.991c-0,-5.508 4.485,-9.994 9.992,-9.994c5.537,-0 9.992,4.486 9.992,9.994Z" style="fill:rgb(236,115,47);fill-rule:nonzero;"/>        <path d="M24,33.079l-4.456,-4.484l-5.321,5.29l-5.289,-5.29l-4.455,4.484l5.289,5.292l-5.289,5.288l4.455,4.487l5.289,-5.32l5.321,5.32l4.456,-4.487l-5.291,-5.288l5.291,-5.292Z" style="fill:rgb(57,173,223);fill-rule:nonzero;"/>        <path d="M47.231,23.954l-0,-19.551l-6.527,0l0,6.557l-6.526,-0l0,6.653l-6.467,0l0,6.341l19.52,-0Z" style="fill:rgb(136,186,51);fill-rule:nonzero;"/>    </g></svg>