<?xml version="1.0" encoding="UTF-8" standalone="no"?><!DOCTYPE svg PUBLIC "-//W3C//DTD SVG 1.1//EN" "http://www.w3.org/Graphics/SVG/1.1/DTD/svg11.dtd"><svg width="100%" height="100%" viewBox="0 0 1024 512" version="1.1" xmlns="http://www.w3.org/2000/svg" xmlns:xlink="http://www.w3.org/1999/xlink" xml:space="preserve" style="fill-rule:evenodd;clip-rule:evenodd;stroke-linejoin:round;stroke-miterlimit:2;"><title>GreenVesting</title><desc>GreenVesting sees itself as a consultant and solution provider for everything to do with renewable energies. Our expertise lies in the valuation competence of the most complex issues, which is unique in the crowdinvesting industry. Both technically and commercially: Our engineers evaluate all technical aspects in detail, while our business department analyzes and assesses the business risks. In the end there is an overall recommendation based on which we invest or not.</desc>    <g transform="matrix(4.5785,0,0,4.5785,2.00158,142.426)">        <g>            <path d="M74.415,15.067l-2.268,2.666c-1.378,-1.134 -2.818,-1.654 -4.442,-1.654c-1.256,0 -2.328,0.367 -3.064,1.072c-1.44,1.379 -1.808,3.677 -1.808,6.863c0,3.033 0.521,4.994 1.594,6.066c0.797,0.766 1.961,1.195 3.34,1.195c0.949,0 1.715,-0.152 2.419,-0.52l0,-4.842l-3.247,0l-0.551,-3.492l8.242,0l0,10.172c-2.176,1.287 -4.566,1.899 -7.078,1.899c-3.187,0 -5.546,-1.042 -7.262,-3.248c-1.563,-1.989 -2.267,-4.259 -2.267,-7.445c0,-4.503 1.471,-7.69 4.443,-9.682c1.562,-1.042 3.155,-1.502 5.178,-1.502c2.574,0.001 4.902,0.828 6.771,2.452" style="fill:rgb(50,41,36);fill-rule:nonzero;"/>            <path d="M76.716,19.172l3.677,-0.979c0.367,0.643 0.582,1.348 0.643,2.236c0.582,-0.797 1.563,-1.624 2.328,-1.991c0.337,-0.153 0.889,-0.245 1.349,-0.245c0.612,0 0.889,0.061 1.531,0.337l-1.132,3.615c-0.399,-0.215 -0.737,-0.307 -1.196,-0.307c-0.919,0 -1.746,0.429 -2.513,1.317l0,11.092l-4.105,0l0,-10.478c0,-2.114 -0.245,-3.708 -0.582,-4.597" style="fill:rgb(50,41,36);fill-rule:nonzero;"/>            <path d="M90.36,24.718l4.749,0l0,-0.184c0,-1.164 -0.122,-1.777 -0.49,-2.359c-0.399,-0.611 -0.981,-0.919 -1.808,-0.919c-1.562,0 -2.451,1.227 -2.451,3.401l0,0.061Zm7.231,5.363l1.593,2.45c-1.807,1.472 -3.707,2.177 -5.913,2.177c-4.504,0 -7.415,-3.187 -7.415,-8.12c0,-2.817 0.582,-4.686 1.961,-6.22c1.287,-1.439 2.85,-2.114 4.933,-2.114c1.807,0 3.523,0.613 4.535,1.655c1.439,1.471 2.083,3.584 2.083,6.863l0,0.949l-9.07,0l0,0.123c0,2.421 1.196,3.8 3.31,3.8c1.409,0 2.727,-0.521 3.983,-1.563" style="fill:rgb(50,41,36);fill-rule:nonzero;"/>            <path d="M105.158,24.718l4.749,0l0,-0.184c0,-1.164 -0.122,-1.777 -0.491,-2.359c-0.398,-0.611 -0.981,-0.919 -1.807,-0.919c-1.562,0 -2.451,1.227 -2.451,3.401l0,0.061Zm7.231,5.363l1.592,2.45c-1.807,1.472 -3.706,2.177 -5.912,2.177c-4.504,0 -7.415,-3.187 -7.415,-8.12c0,-2.817 0.582,-4.686 1.961,-6.22c1.287,-1.439 2.85,-2.114 4.933,-2.114c1.806,0 3.523,0.613 4.534,1.655c1.44,1.471 2.083,3.584 2.083,6.863l0,0.949l-9.069,0l0,0.123c0,2.421 1.195,3.8 3.31,3.8c1.408,0 2.726,-0.521 3.983,-1.563" style="fill:rgb(50,41,36);fill-rule:nonzero;"/>            <path d="M115.862,19.204l3.646,-1.042c0.368,0.644 0.583,1.317 0.583,1.961c0.949,-0.674 1.133,-0.797 1.808,-1.164c0.826,-0.429 1.898,-0.674 2.817,-0.674c1.747,0 3.28,0.919 3.77,2.267c0.213,0.582 0.306,1.257 0.306,2.237l0,11.459l-4.044,0l0,-10.203c0,-1.777 -0.307,-2.298 -1.379,-2.298c-0.827,0 -1.9,0.552 -2.85,1.409l0,11.092l-4.105,0l0,-11.368c0,-1.348 -0.183,-2.634 -0.552,-3.676" style="fill:rgb(50,41,36);fill-rule:nonzero;"/>            <path d="M128.678,12.953l4.689,0l3.523,11.092c0.092,0.368 0.429,1.473 0.674,2.39c0.123,0.521 0.183,0.735 0.306,1.318c0.122,-0.613 0.184,-0.797 0.368,-1.531c0.337,-1.135 0.521,-1.656 0.857,-2.728l3.615,-10.54l4.504,-0.03l-7.414,21.478l-3.892,0l-7.23,-21.449Z" style="fill:rgb(50,41,36);fill-rule:nonzero;"/>            <path d="M150.566,24.718l4.749,0l0,-0.184c0,-1.164 -0.122,-1.777 -0.491,-2.359c-0.397,-0.611 -0.979,-0.919 -1.808,-0.919c-1.562,0 -2.45,1.227 -2.45,3.401l0,0.061Zm7.231,5.363l1.592,2.45c-1.807,1.472 -3.707,2.177 -5.912,2.177c-4.504,0 -7.415,-3.187 -7.415,-8.12c0,-2.817 0.582,-4.686 1.961,-6.22c1.287,-1.439 2.849,-2.114 4.933,-2.114c1.807,0 3.523,0.613 4.534,1.655c1.44,1.471 2.083,3.584 2.083,6.863l0,0.949l-9.068,0l0,0.123c0,2.421 1.194,3.8 3.309,3.8c1.409,0 2.725,-0.521 3.983,-1.563" style="fill:rgb(50,41,36);fill-rule:nonzero;"/>            <path d="M172.903,19.602l-1.349,2.758c-1.563,-0.797 -2.696,-1.134 -3.86,-1.134c-1.194,0 -1.992,0.612 -1.992,1.531c0,0.797 0.52,1.226 1.961,1.594l1.9,0.49c1.93,0.489 2.573,1.072 3.125,1.778c0.582,0.734 0.858,1.623 0.858,2.664c0,3.248 -2.697,5.454 -6.71,5.454c-1.932,0 -4.045,-0.612 -6.344,-1.808l1.471,-3.003c1.257,0.767 3.432,1.777 5.21,1.777c1.164,0 2.083,-0.767 2.083,-1.777c0,-1.072 -0.766,-1.624 -2.42,-1.93l-1.839,-0.338c-1.042,-0.184 -2.328,-0.919 -2.88,-1.593c-0.553,-0.674 -0.889,-1.808 -0.889,-2.818c0,-3.064 2.42,-5.117 6.066,-5.117c2.513,0.001 4.168,0.767 5.609,1.472" style="fill:rgb(50,41,36);fill-rule:nonzero;"/>            <path d="M183.588,18.53l-1.041,2.728l-2.636,0l0,7.996c0,1.991 0.368,2.513 1.778,2.513c0.367,0 0.734,-0.091 1.47,-0.307l0.522,2.451c-1.197,0.49 -2.268,0.705 -3.34,0.705c-2.084,0 -3.771,-0.92 -4.23,-2.299c-0.245,-0.674 -0.274,-0.98 -0.274,-2.42l0,-8.64l-1.563,0l0,-2.666l1.563,0c0,-1.532 0,-2.574 0.151,-3.738l4.167,-1.042c-0.152,1.439 -0.245,3.125 -0.245,4.719l3.678,0Z" style="fill:rgb(50,41,36);fill-rule:nonzero;"/>            <path d="M184.641,18.836l4.105,-0.644l0,16.057l-4.105,0l0,-15.413Zm2.115,-7.139c1.379,0 2.48,1.134 2.48,2.543c0,1.408 -1.133,2.543 -2.543,2.543c-1.378,0 -2.512,-1.135 -2.512,-2.543c0.001,-1.409 1.165,-2.543 2.575,-2.543" style="fill:rgb(50,41,36);fill-rule:nonzero;"/>            <path d="M191.2,19.204l3.646,-1.042c0.368,0.644 0.584,1.317 0.584,1.961c0.948,-0.674 1.132,-0.797 1.807,-1.164c0.826,-0.429 1.899,-0.674 2.818,-0.674c1.747,0 3.279,0.919 3.77,2.267c0.213,0.582 0.306,1.257 0.306,2.237l0,11.459l-4.044,0l0,-10.203c0,-1.777 -0.307,-2.298 -1.379,-2.298c-0.827,0 -1.9,0.552 -2.85,1.409l0,11.092l-4.105,0l0,-11.368c-0.001,-1.348 -0.184,-2.634 -0.553,-3.676" style="fill:rgb(50,41,36);fill-rule:nonzero;"/>            <path d="M213.036,21.287c-1.562,0 -2.451,0.858 -2.451,2.329c0,1.593 0.98,2.236 2.42,2.236c1.625,0 2.513,-0.797 2.513,-2.236c0,-1.471 -0.918,-2.329 -2.482,-2.329m8.029,-3.615l1.715,2.604c-0.889,0.827 -1.746,1.164 -2.881,1.164c-0.398,0 -0.551,-0.03 -1.071,-0.091c0.612,0.734 0.919,1.532 0.919,2.574c0,2.695 -2.452,4.656 -5.79,4.656c-0.185,0 -0.308,0 -0.614,-0.031c-1.042,0.49 -1.624,0.858 -1.624,1.288c0,0.215 0.245,0.367 0.675,0.367l2.207,0.03c2.389,0.03 3.646,0.399 4.748,1.409c0.92,0.858 1.348,1.931 1.348,3.34c0,1.318 -0.398,2.328 -1.256,3.248c-1.379,1.471 -3.737,2.022 -6.189,2.022c-2.237,0 -4.535,-0.368 -5.944,-1.686c-0.857,-0.797 -1.287,-1.716 -1.287,-2.788c0,-0.858 0.215,-1.287 0.367,-1.594l3.801,0c-0.123,0.337 -0.185,0.46 -0.185,1.012c0,1.256 1.041,1.931 2.94,1.931c1.166,0 2.054,-0.153 2.605,-0.521c0.582,-0.368 0.981,-0.98 0.981,-1.594c0,-0.612 -0.307,-1.163 -0.735,-1.409c-0.429,-0.215 -1.011,-0.399 -2.145,-0.459c-0.215,0 -0.797,-0.031 -1.746,-0.031c-1.838,-0.03 -3.033,-0.215 -3.77,-0.49c-0.367,-0.153 -0.673,-0.429 -0.887,-0.766c-0.186,-0.368 -0.307,-0.797 -0.307,-1.287c0,-0.582 0.152,-1.072 0.489,-1.44c0.46,-0.521 1.472,-0.981 2.39,-1.194c-2.268,-0.582 -3.369,-2.022 -3.369,-4.352c0,-3.217 2.604,-5.3 6.617,-5.3c0.89,0 1.684,0.092 2.818,0.398c1.135,0.275 1.409,0.337 1.932,0.337c1.133,0.001 2.297,-0.489 3.248,-1.347" style="fill:rgb(50,41,36);fill-rule:nonzero;"/>        </g>        <path d="M27.593,49.612c-0.652,0 -1.292,-0.318 -1.675,-0.904l-3.142,-4.801c-0.53,-0.81 -0.404,-1.882 0.297,-2.547l4.163,-3.947c0.802,-0.762 2.067,-0.728 2.827,0.075c0.76,0.802 0.727,2.067 -0.075,2.827l-1.553,1.473c3.203,0.613 8.691,0.944 12.152,-2.801c0.749,-0.812 2.014,-0.862 2.826,-0.111c0.811,0.749 0.861,2.015 0.111,2.826c-4.338,4.693 -10.516,4.826 -14.645,4.227l0.384,0.587c0.605,0.925 0.346,2.164 -0.578,2.77c-0.337,0.22 -0.716,0.326 -1.092,0.326Z" style="fill:rgb(102,151,48);fill-rule:nonzero;"/>        <path d="M50.298,28.949c-0.696,-0.729 -1.81,-0.81 -2.608,-0.238c0.56,-4.374 -0.607,-8.591 -3.352,-11.109c-1.29,-1.183 -2.817,-1.857 -4.451,-2.014c0.191,-0.677 0.339,-1.543 0.443,-2.724c0.013,-0.141 0.01,-0.282 -0.007,-0.422c-0.935,-7.559 -6.891,-12.208 -15.931,-12.437c-6.043,-0.136 -13.724,2.498 -17.314,8.762c-0.549,0.958 -0.217,2.181 0.741,2.73c0.959,0.549 2.181,0.217 2.73,-0.741c2.361,-4.121 8.021,-6.901 13.741,-6.752c4.067,0.103 11.002,1.379 12.037,8.723c-0.185,1.933 -0.427,2.233 -0.817,2.719c-0.175,0.218 -0.386,0.48 -0.615,0.827l-1.016,0.991c-0.722,0.706 -0.806,1.838 -0.194,2.642c0.611,0.804 1.726,1.028 2.598,0.518c1.456,-0.847 3.567,-1.513 5.351,0.125c1.958,1.796 2.911,5.892 1.533,10.131l-1.909,-1.397c-0.892,-0.652 -2.142,-0.46 -2.795,0.432c-0.652,0.892 -0.459,2.143 0.432,2.795l4.625,3.387c0.354,0.26 0.768,0.387 1.181,0.387c0.5,0 0.997,-0.187 1.38,-0.552l4.149,-3.954c0.8,-0.764 0.83,-2.029 0.068,-2.829Z" style="fill:rgb(96,150,208);fill-rule:nonzero;"/>        <path d="M19.388,38.299c-6.631,-3.189 -10.835,-9.876 -10.988,-17.109l0.778,0.899c0.396,0.457 0.953,0.691 1.513,0.691c0.464,0 0.93,-0.161 1.308,-0.488c0.835,-0.723 0.926,-1.986 0.203,-2.821l-3.754,-4.337c-0.633,-0.731 -1.699,-0.905 -2.529,-0.413l-4.936,2.916c-0.951,0.562 -1.267,1.788 -0.705,2.739c0.563,0.951 1.79,1.267 2.739,0.705l1.37,-0.809c-0.2,9.103 4.965,17.639 13.266,21.633c0.28,0.134 0.575,0.197 0.866,0.197c0.745,0 1.459,-0.417 1.804,-1.133c0.479,-0.995 0.06,-2.19 -0.935,-2.67Z" style="fill:rgb(249,178,45);fill-rule:nonzero;"/>    </g></svg>