<?xml version="1.0" encoding="UTF-8" standalone="no"?><!DOCTYPE svg PUBLIC "-//W3C//DTD SVG 1.1//EN" "http://www.w3.org/Graphics/SVG/1.1/DTD/svg11.dtd"><svg width="100%" height="100%" viewBox="0 0 1024 512" version="1.1" xmlns="http://www.w3.org/2000/svg" xmlns:xlink="http://www.w3.org/1999/xlink" xml:space="preserve" style="fill-rule:evenodd;clip-rule:evenodd;stroke-linejoin:round;stroke-miterlimit:2;"><title>Kiosk to Invest</title><desc>The company Kiosk to Invest is a crowdfunding platform, or crowdfunding, whose desire is to promote the funding of startups and SMEs with potential and to involve individuals in the economic development of their territory.</desc>    <g transform="matrix(6.16312,0,0,6.16312,-371.653,-2628.74)">        <g transform="matrix(1,0,0,1,66.5901,475.463)">            <path d="M0,9.398c-0.411,0 -0.82,-0.157 -1.133,-0.471c-0.622,-0.627 -0.618,-1.638 0.007,-2.258l5.78,-5.748c0.499,-0.494 1.264,-0.607 1.884,-0.272c1.308,0.703 2.792,1.077 4.289,1.077c1.636,-0.001 3.239,-0.44 4.636,-1.273c0.757,-0.453 1.738,-0.205 2.19,0.552c0.451,0.757 0.204,1.738 -0.553,2.19c-1.892,1.129 -4.061,1.724 -6.273,1.724c-1.62,0 -3.23,-0.323 -4.716,-0.941l-4.986,4.955c-0.31,0.311 -0.718,0.465 -1.125,0.465" style="fill:rgb(188,207,0);fill-rule:nonzero;"/>        </g>        <g transform="matrix(1,0,0,1,86.5349,455.422)">            <path d="M0,19.825c-0.283,0 -0.569,-0.073 -0.827,-0.232c-0.755,-0.458 -0.995,-1.441 -0.537,-2.193c0.857,-1.413 1.309,-3.035 1.309,-4.696c0,-1.511 -0.378,-3.004 -1.093,-4.319c-0.339,-0.626 -0.224,-1.399 0.281,-1.899l5.938,-5.866c0.628,-0.62 1.639,-0.613 2.259,0.014c0.62,0.628 0.614,1.638 -0.014,2.258l-5.13,5.068c0.627,1.495 0.954,3.112 0.954,4.744c0,2.245 -0.614,4.442 -1.774,6.353c-0.3,0.495 -0.826,0.768 -1.366,0.768" style="fill:rgb(87,87,86);fill-rule:nonzero;"/>        </g>        <g transform="matrix(1,0,0,1,62.2245,460.786)">            <path d="M0,19.709c-0.409,0 -0.817,-0.155 -1.13,-0.467c-0.623,-0.622 -0.623,-1.635 0,-2.258l4.984,-4.984c-0.602,-1.471 -0.918,-3.06 -0.919,-4.66c0.001,-2.242 0.612,-4.436 1.769,-6.345c0.457,-0.754 1.439,-0.995 2.193,-0.538c0.754,0.458 0.996,1.439 0.539,2.194c-0.854,1.409 -1.306,3.03 -1.306,4.689c0,1.481 0.365,2.95 1.055,4.248c0.329,0.62 0.216,1.382 -0.281,1.879l-5.774,5.775c-0.312,0.312 -0.721,0.467 -1.13,0.467" style="fill:rgb(188,207,0);fill-rule:nonzero;"/>        </g>        <g transform="matrix(1,0,0,1,71.8796,451.111)">            <path d="M0,9.503c-0.539,0 -1.064,-0.272 -1.365,-0.766c-0.459,-0.754 -0.221,-1.736 0.533,-2.196c1.915,-1.167 4.117,-1.784 6.37,-1.784c1.602,0.001 3.193,0.317 4.664,0.921l5.105,-5.057c0.626,-0.621 1.637,-0.615 2.258,0.01c0.621,0.627 0.616,1.638 -0.01,2.259l-5.896,5.84c-0.497,0.493 -1.256,0.605 -1.873,0.277c-1.298,-0.69 -2.766,-1.055 -4.248,-1.055c-1.666,0 -3.294,0.455 -4.708,1.317c-0.26,0.158 -0.547,0.234 -0.83,0.234" style="fill:rgb(87,87,86);fill-rule:nonzero;"/>        </g>        <g transform="matrix(0,1,1,0,80.4977,461.959)">            <path d="M3.139,-3.139c-1.734,0.001 -3.14,1.406 -3.139,3.139c0,1.733 1.406,3.139 3.139,3.139c1.734,-0.001 3.138,-1.406 3.138,-3.14c0,-1.733 -1.404,-3.138 -3.139,-3.138" style="fill:rgb(188,207,0);fill-rule:nonzero;"/>        </g>        <g transform="matrix(0,1,1,0,74.3488,468.108)">            <path d="M3.139,-3.139c-1.735,0.001 -3.139,1.407 -3.139,3.14c0.001,1.733 1.405,3.138 3.139,3.138c1.733,0 3.138,-1.406 3.138,-3.14c0,-1.731 -1.406,-3.137 -3.139,-3.137" style="fill:rgb(87,87,86);fill-rule:nonzero;"/>        </g>        <g transform="matrix(0,1,1,0,113.755,460.079)">            <path d="M1.996,-1.995c-1.102,0 -1.996,0.894 -1.996,1.996c0,1.101 0.894,1.995 1.996,1.995c1.102,0 1.995,-0.894 1.995,-1.995c0,-1.102 -0.893,-1.996 -1.995,-1.996" style="fill:rgb(87,87,86);fill-rule:nonzero;"/>        </g>        <g transform="matrix(1,0,0,1,106.859,460.952)">            <path d="M0,14.98l-3.406,-5.19l-0.044,0l0,5.19l-3.407,0l0,-14.98l3.407,0l0,9.235l0.044,0l3.318,-4.541l3.429,0l-3.714,4.619l4.219,5.667l-3.846,0Z" style="fill:rgb(87,87,86);fill-rule:nonzero;"/>        </g>        <g transform="matrix(1,0,0,1,0,346.304)">            <rect x="112.024" y="119.343" width="3.429" height="10.286" style="fill:rgb(87,87,86);"/>        </g>        <g transform="matrix(1,0,0,1,122.924,465.455)">            <path d="M0,10.668c-3.428,0 -5.23,-2.271 -5.23,-5.343c0,-3.072 1.802,-5.325 5.209,-5.325c3.45,0 5.252,2.253 5.252,5.325c0,3.072 -1.802,5.343 -5.231,5.343m0,-8.816c-1.516,0 -1.824,1.603 -1.824,3.435c0,1.851 0.33,3.358 1.824,3.358c1.516,0 1.824,-1.507 1.824,-3.358c0,-1.832 -0.308,-3.435 -1.824,-3.435" style="fill:rgb(87,87,86);fill-rule:nonzero;"/>        </g>        <g transform="matrix(1,0,0,1,133.101,465.456)">            <path d="M0,10.648c-1.451,0 -2.748,-0.324 -3.473,-0.744l0.879,-1.89c0.44,0.306 1.253,0.593 2.11,0.593c0.88,0 1.473,-0.477 1.473,-1.126c0,-0.687 -0.418,-1.069 -1.517,-1.451c-2.175,-0.744 -2.659,-1.794 -2.659,-2.862c0,-1.756 1.582,-3.168 3.956,-3.168c1.473,0 2.484,0.248 3.407,0.744l-0.836,1.698c-0.351,-0.248 -1.033,-0.534 -1.802,-0.534c-0.901,0 -1.362,0.477 -1.362,1.069c0,0.687 0.593,1.069 1.516,1.412c2.286,0.84 2.813,1.813 2.813,3.015c0,1.794 -1.692,3.244 -4.505,3.244" style="fill:rgb(87,87,86);fill-rule:nonzero;"/>        </g>        <g transform="matrix(1,0,0,1,146.639,460.952)">            <path d="M0,14.98l-3.407,-5.19l-0.044,0l0,5.19l-3.406,0l0,-14.98l3.406,0l0,9.235l0.044,0l3.319,-4.541l3.428,0l-3.714,4.619l4.22,5.667l-3.846,0Z" style="fill:rgb(87,87,86);fill-rule:nonzero;"/>        </g>        <g transform="matrix(1,0,0,1,157.418,462.873)">            <path d="M0,13.21c-2.449,0 -3.512,-1.374 -3.512,-2.936l0,-5.457l-1.278,0l0,-1.9l1.278,0l0,-2.164l3.382,-0.753l0,2.917l1.799,0l0,1.9l-1.799,0l0,5.232c0,0.771 0.325,1.186 1.083,1.186c0.282,0 0.434,-0.039 0.716,-0.112l0,1.805c-0.282,0.113 -0.889,0.282 -1.669,0.282" style="fill:rgb(188,207,0);fill-rule:nonzero;"/>        </g>        <g transform="matrix(1,0,0,1,165.632,465.601)">            <path d="M0,10.519c-3.381,0 -5.158,-2.239 -5.158,-5.269c0,-3.03 1.777,-5.25 5.137,-5.25c3.402,0 5.179,2.22 5.179,5.25c0,3.03 -1.777,5.269 -5.158,5.269m0,-8.694c-1.496,0 -1.799,1.581 -1.799,3.388c0,1.825 0.325,3.311 1.799,3.311c1.495,0 1.798,-1.486 1.798,-3.311c0,-1.807 -0.303,-3.388 -1.798,-3.388" style="fill:rgb(188,207,0);fill-rule:nonzero;"/>        </g>        <g transform="matrix(1,0,0,1,0,346.445)">            <rect x="174.82" y="119.344" width="1.908" height="10.143" style="fill:rgb(157,157,156);"/>        </g>        <g transform="matrix(1,0,0,1,186.481,465.601)">            <path d="M0,10.331l0,-7.283c0,-0.94 -0.455,-1.975 -2.449,-1.975c-1.084,0 -1.604,0.131 -2.211,0.357l0,8.901l-1.907,0l0,-9.616c1.04,-0.433 2.406,-0.715 4.27,-0.715c3.25,0 4.204,1.562 4.204,3.011l0,7.32l-1.907,0Z" style="fill:rgb(157,157,156);fill-rule:nonzero;"/>        </g>        <g transform="matrix(1,0,0,1,196.014,465.789)">            <path d="M0,10.143l-1.713,0l-3.879,-10.143l2.037,0l2.449,7.264c0.239,0.677 0.304,1.242 0.304,1.242l0.044,0c0,0 0.043,-0.545 0.281,-1.242l2.493,-7.264l1.777,0l-3.793,10.143Z" style="fill:rgb(157,157,156);fill-rule:nonzero;"/>        </g>        <g transform="matrix(1,0,0,1,203.009,470.231)">            <path d="M0,1.261c0.217,2.296 1.452,3.425 3.554,3.425c1.323,0 2.277,-0.282 2.884,-0.584l0.498,1.091c-0.715,0.377 -1.95,0.697 -3.533,0.697c-3.056,0 -5.202,-1.675 -5.202,-5.287c0,-3.444 1.951,-5.232 4.703,-5.232c2.796,0 4.486,1.58 4.443,4.968l-7.347,0.922Zm2.839,-4.818c-1.69,0 -2.947,1.186 -2.904,3.934l5.591,-0.735c0,-2.295 -1.018,-3.199 -2.687,-3.199" style="fill:rgb(157,157,156);fill-rule:nonzero;"/>        </g>        <g transform="matrix(1,0,0,1,215.164,465.583)">            <path d="M0,10.5c-1.257,0 -2.363,-0.282 -2.991,-0.696l0.52,-1.091c0.413,0.3 1.235,0.602 2.276,0.602c1.3,0 2.168,-0.772 2.168,-1.751c0,-1.053 -0.651,-1.524 -1.93,-1.938c-2.275,-0.733 -2.731,-1.787 -2.731,-2.841c0,-1.506 1.366,-2.785 3.49,-2.785c1.192,0 2.124,0.339 2.731,0.696l-0.499,0.998c-0.347,-0.226 -1.04,-0.565 -1.95,-0.565c-1.279,0 -1.951,0.734 -1.951,1.6c0,0.978 0.823,1.449 1.951,1.825c2.275,0.752 2.839,1.807 2.839,2.973c0,1.543 -1.539,2.973 -3.923,2.973" style="fill:rgb(157,157,156);fill-rule:nonzero;"/>        </g>        <g transform="matrix(1,0,0,1,225.088,462.948)">            <path d="M0,13.079c-2.124,0 -2.904,-1.319 -2.904,-2.56l0,-6.642l-1.344,0l0,-1.036l1.344,0l0,-2.333l1.907,-0.508l0,2.841l2.037,0l0,1.036l-2.037,0l0,6.604c0,0.809 0.412,1.468 1.474,1.468c0.195,0 0.369,-0.037 0.563,-0.076l0,1.054c-0.217,0.057 -0.563,0.152 -1.04,0.152" style="fill:rgb(157,157,156);fill-rule:nonzero;"/>        </g>        <g transform="matrix(0,1,1,0,175.789,461.33)">            <path d="M1.253,-1.255c-0.692,0 -1.253,0.563 -1.253,1.255c0,0.692 0.561,1.253 1.253,1.253c0.692,0 1.254,-0.561 1.254,-1.254c0,-0.692 -0.562,-1.254 -1.254,-1.254" style="fill:rgb(157,157,156);fill-rule:nonzero;"/>        </g>    </g></svg>