<?xml version="1.0" encoding="UTF-8" standalone="no"?><!DOCTYPE svg PUBLIC "-//W3C//DTD SVG 1.1//EN" "http://www.w3.org/Graphics/SVG/1.1/DTD/svg11.dtd"><svg width="100%" height="100%" viewBox="0 0 1024 512" version="1.1" xmlns="http://www.w3.org/2000/svg" xmlns:xlink="http://www.w3.org/1999/xlink" xml:space="preserve" style="fill-rule:evenodd;clip-rule:evenodd;stroke-linejoin:round;stroke-miterlimit:2;"><title>Lendity</title><desc>Lendity provides institutional-grade investment solutions to access to the best marketplace and private debt opportunities across the globe.Lendity connects alternative lending platforms with professional investment managers and institutional investors using cost-effective investment solutions.</desc>    <g transform="matrix(0.682274,0,0,0.682274,-515.846,-253.147)">        <path d="M991,579.629l-41,8.371l-44,-3l44,-76l41,70.629Z" style="fill:rgb(0,199,245);"/>        <path d="M1027,644l-33.544,57.913l-30.456,-34.913l-13,-79l40.285,-8.371l36.715,64.371Z" style="fill:rgb(0,177,239);"/>        <path d="M906,585l44.349,3.117l12.704,79.283l-62.433,53.047l-34.62,-64.447l40,-71Z" style="fill:rgb(0,148,210);"/>        <path d="M866,656l56,104l-74,20l-51,-6l69,-118Z" style="fill:rgb(0,107,156);"/>        <path d="M797,774l51,6l-3,94l-71,-6l-15,-26l38,-68Z" style="fill:rgb(0,72,126);"/>        <path d="M774,868l64,111l84,-40l-77,-65l-71,-6Z" style="fill:rgb(0,57,126);"/>        <path d="M845,874l65,-29l84,-143l-30.947,-35l-62.053,53.447l21,39.553l-74,20l-3,94Z" style="fill:rgb(0,120,180);"/>        <path d="M910,845l111,0l-99,94l-77,-65l65,-29Z" style="fill:rgb(0,39,96);"/>        <path d="M922,939l72,40l-156,0l84,-40Z" style="fill:rgb(0,39,96);"/>        <path d="M922,939l99,-94l76,134l-103,0l-72,-40Z" style="fill:rgb(0,23,64);"/>        <g transform="matrix(0.845307,0,0,0.845307,275.522,-316.428)">            <g transform="matrix(395.081,0,0,395.081,1051,1443)">                <path d="M0.168,-0.066l0.33,0l0,0.066l-0.402,0l0,-0.708l0.072,0l0,0.642Z" style="fill:rgb(0,44,88);fill-rule:nonzero;"/>            </g>            <g transform="matrix(395.081,0,0,395.081,1248.54,1443)">                <path d="M0.436,-0.27c0,-0.045 -0.013,-0.081 -0.04,-0.108c-0.027,-0.028 -0.064,-0.042 -0.112,-0.042c-0.021,0 -0.042,0.004 -0.062,0.012c-0.02,0.009 -0.038,0.02 -0.053,0.034c-0.015,0.014 -0.027,0.03 -0.036,0.048c-0.009,0.018 -0.013,0.037 -0.013,0.056l0.316,0Zm-0.318,0.054c0.002,0.023 0.008,0.045 0.017,0.066c0.009,0.021 0.022,0.039 0.037,0.054c0.015,0.015 0.033,0.026 0.053,0.035c0.02,0.009 0.042,0.013 0.065,0.013c0.035,0 0.066,-0.008 0.091,-0.024c0.026,-0.017 0.046,-0.036 0.059,-0.057l0.051,0.042c-0.028,0.035 -0.059,0.061 -0.092,0.076c-0.034,0.015 -0.07,0.023 -0.109,0.023c-0.035,0 -0.067,-0.006 -0.097,-0.018c-0.029,-0.013 -0.055,-0.03 -0.076,-0.052c-0.021,-0.022 -0.038,-0.048 -0.051,-0.078c-0.012,-0.03 -0.018,-0.063 -0.018,-0.098c0,-0.035 0.006,-0.068 0.018,-0.098c0.012,-0.03 0.029,-0.056 0.05,-0.078c0.021,-0.022 0.046,-0.039 0.075,-0.051c0.029,-0.013 0.06,-0.019 0.093,-0.019c0.035,0 0.067,0.006 0.095,0.019c0.028,0.013 0.052,0.03 0.071,0.051c0.018,0.021 0.033,0.045 0.043,0.074c0.01,0.028 0.015,0.058 0.015,0.09l0,0.03l-0.39,0Z" style="fill:rgb(0,44,88);fill-rule:nonzero;"/>            </g>            <g transform="matrix(395.081,0,0,395.081,1468.21,1443)">                <path d="M0.135,-0.468c0.001,0.013 0.002,0.025 0.003,0.038c0,0.012 0,0.024 0,0.037l0.002,0c0.007,-0.013 0.017,-0.024 0.028,-0.035c0.011,-0.011 0.024,-0.02 0.038,-0.027c0.014,-0.008 0.029,-0.014 0.044,-0.018c0.016,-0.005 0.032,-0.007 0.047,-0.007c0.06,0 0.104,0.016 0.133,0.048c0.029,0.031 0.043,0.076 0.043,0.135l0,0.297l-0.066,0l0,-0.259c0,-0.052 -0.009,-0.092 -0.027,-0.119c-0.018,-0.028 -0.051,-0.042 -0.1,-0.042c-0.003,0 -0.013,0.001 -0.028,0.004c-0.015,0.003 -0.031,0.01 -0.048,0.022c-0.017,0.012 -0.033,0.03 -0.046,0.054c-0.013,0.024 -0.02,0.057 -0.02,0.1l0,0.24l-0.066,0l0,-0.365c0,-0.013 0,-0.029 -0.001,-0.048c-0.001,-0.019 -0.003,-0.038 -0.004,-0.055l0.068,0Z" style="fill:rgb(0,44,88);fill-rule:nonzero;"/>            </g>            <g transform="matrix(395.081,0,0,395.081,1687.87,1443)">                <path d="M0.112,-0.234c0,0.026 0.004,0.05 0.012,0.073c0.009,0.023 0.021,0.042 0.036,0.059c0.015,0.017 0.034,0.03 0.055,0.04c0.022,0.009 0.047,0.014 0.074,0.014c0.027,0 0.052,-0.005 0.075,-0.014c0.023,-0.01 0.042,-0.023 0.059,-0.04c0.017,-0.017 0.03,-0.036 0.039,-0.059c0.009,-0.023 0.014,-0.047 0.014,-0.073c0,-0.026 -0.005,-0.05 -0.014,-0.073c-0.009,-0.023 -0.022,-0.042 -0.039,-0.059c-0.017,-0.017 -0.036,-0.03 -0.059,-0.039c-0.023,-0.01 -0.048,-0.015 -0.075,-0.015c-0.027,0 -0.052,0.005 -0.073,0.015c-0.022,0.009 -0.041,0.022 -0.056,0.039c-0.015,0.017 -0.027,0.036 -0.035,0.059c-0.009,0.023 -0.013,0.047 -0.013,0.073Zm0.427,0.234l-0.066,0l0,-0.078l-0.002,0c-0.011,0.016 -0.023,0.03 -0.038,0.041c-0.015,0.011 -0.03,0.021 -0.046,0.028c-0.016,0.007 -0.032,0.013 -0.049,0.016c-0.017,0.003 -0.034,0.005 -0.049,0.005c-0.037,0 -0.07,-0.006 -0.1,-0.018c-0.031,-0.013 -0.057,-0.03 -0.079,-0.052c-0.022,-0.022 -0.039,-0.048 -0.051,-0.078c-0.013,-0.03 -0.019,-0.063 -0.019,-0.098c0,-0.035 0.006,-0.068 0.019,-0.098c0.012,-0.03 0.029,-0.056 0.051,-0.078c0.022,-0.022 0.048,-0.039 0.079,-0.051c0.03,-0.013 0.063,-0.019 0.1,-0.019c0.015,0 0.032,0.002 0.049,0.005c0.017,0.003 0.033,0.009 0.049,0.016c0.016,0.007 0.031,0.017 0.046,0.028c0.015,0.011 0.027,0.025 0.038,0.041l0.002,0l0,-0.366l0.066,0l0,0.756Z" style="fill:rgb(0,44,88);fill-rule:nonzero;"/>            </g>            <g transform="matrix(395.081,0,0,395.081,1929.27,1443)">                <path d="M0.168,-0.648c0,0.014 -0.005,0.025 -0.015,0.034c-0.01,0.01 -0.021,0.014 -0.033,0.014c-0.012,0 -0.023,-0.004 -0.033,-0.014c-0.01,-0.009 -0.015,-0.02 -0.015,-0.034c0,-0.014 0.005,-0.026 0.015,-0.034c0.01,-0.009 0.021,-0.014 0.033,-0.014c0.012,0 0.023,0.005 0.033,0.014c0.01,0.008 0.015,0.02 0.015,0.034Zm-0.015,0.648l-0.066,0l0,-0.468l0.066,0l0,0.468Z" style="fill:rgb(0,44,88);fill-rule:nonzero;"/>            </g>            <g transform="matrix(395.081,0,0,395.081,2024.08,1443)">                <path d="M0.314,-0.408l-0.135,0l0,0.276c0,0.017 0.002,0.032 0.005,0.043c0.003,0.01 0.008,0.019 0.014,0.025c0.006,0.006 0.013,0.01 0.021,0.012c0.009,0.003 0.018,0.004 0.028,0.004c0.011,0 0.023,-0.002 0.035,-0.005c0.012,-0.003 0.023,-0.008 0.033,-0.013l0.003,0.061c-0.025,0.011 -0.054,0.017 -0.089,0.017c-0.013,0 -0.026,-0.002 -0.04,-0.005c-0.013,-0.003 -0.026,-0.01 -0.037,-0.019c-0.011,-0.009 -0.021,-0.022 -0.028,-0.038c-0.007,-0.016 -0.011,-0.037 -0.011,-0.063l0,-0.295l-0.099,0l0,-0.06l0.099,0l0,-0.132l0.066,0l0,0.132l0.135,0l0,0.06Z" style="fill:rgb(0,44,88);fill-rule:nonzero;"/>            </g>            <g transform="matrix(395.081,0,0,395.081,2155.25,1443)">                <path d="M0.246,-0.081l0.143,-0.387l0.08,0l-0.234,0.59c-0.014,0.036 -0.032,0.065 -0.054,0.086c-0.021,0.021 -0.052,0.032 -0.093,0.032c-0.01,0 -0.02,0 -0.031,-0.001c-0.01,-0.001 -0.02,-0.003 -0.03,-0.006l0.007,-0.064c0.014,0.007 0.031,0.011 0.05,0.011c0.023,0 0.042,-0.007 0.055,-0.022c0.013,-0.015 0.025,-0.035 0.035,-0.062l0.034,-0.09l-0.192,-0.474l0.083,0l0.147,0.387Z" style="fill:rgb(0,44,88);fill-rule:nonzero;"/>            </g>        </g>    </g></svg>