<?xml version="1.0" encoding="UTF-8" standalone="no"?><!DOCTYPE svg PUBLIC "-//W3C//DTD SVG 1.1//EN" "http://www.w3.org/Graphics/SVG/1.1/DTD/svg11.dtd"><svg width="100%" height="100%" viewBox="0 0 1024 512" version="1.1" xmlns="http://www.w3.org/2000/svg" xmlns:xlink="http://www.w3.org/1999/xlink" xml:space="preserve" style="fill-rule:evenodd;clip-rule:evenodd;stroke-linejoin:round;stroke-miterlimit:2;"><title>Asetku</title><desc>ASETKU provides an easy way to grow your wealth in one click away. No more long and complicated process on lending money with ASETKU. Start funding and get a return up to 24%.</desc>    <g id="layer101" transform="matrix(2.24176,0,0,2.24121,-54.044,-263.605)">        <path d="M29.4,287.8c8.4,-23.7 33.5,-93.3 34.1,-95.1c0.7,-1.6 1.9,-1.7 10.3,-1.5l9.5,0.3l18.8,52.5c10.4,28.9 19.2,53.3 19.5,54.3c0.5,1.5 -0.4,1.7 -9.9,1.7l-10.4,0l-4.9,-13.7l-4.9,-13.8l-17.9,0l-17.8,0l-3.4,9.5c-1.9,5.2 -4.1,11.4 -5,13.8l-1.6,4.2l-10.4,0l-10.4,0l4.4,-12.2Zm54.6,-36.7c0,-1.3 -9.2,-26.4 -10,-27.4c-0.6,-0.7 -11,25.6 -11,27.7c0,0.3 4.7,0.6 10.5,0.6c5.8,0 10.5,-0.4 10.5,-0.9Z" style="fill-rule:nonzero;"/>        <path d="M140.5,298.6c-9.4,-3 -15.8,-8.6 -18,-16c-2.6,-8.8 -2.8,-8.6 7.8,-8.6l9.3,0l1.1,3c3,8.1 23.3,7.6 23.3,-0.5c0,-3.4 -2.9,-5 -13.5,-7.5c-19.1,-4.5 -27.2,-11.2 -27.4,-22.9c-0.2,-9.2 4.7,-16.4 14.6,-21.3c6,-2.9 7.4,-3.2 15.5,-3.2c8,0.1 9.5,0.4 15.5,3.5c7.2,3.6 11.8,8.8 12.9,14.4c0.6,3 0.5,3.1 -7,5.3c-8.9,2.6 -10.6,2.7 -10.6,0.7c0,-0.9 -1.1,-2.7 -2.5,-4c-3.3,-3.4 -12.8,-3.6 -16.9,-0.4c-5.5,4.3 -2.5,6.9 12,10.7c13,3.5 18,5.9 22.2,10.6c10.9,12.4 3.3,30.6 -15.1,36.1c-6.1,1.8 -17.6,1.9 -23.2,0.1Z" style="fill-rule:nonzero;"/>        <path d="M211.4,298.9c-4.9,-1.4 -12.5,-6.9 -16.1,-11.7c-5.4,-7.1 -7.6,-16.4 -7.1,-29c0.4,-8.9 0.9,-11.7 3.2,-16.8c5.4,-12 16,-19.3 29.2,-20.2c18.1,-1.2 31,9 34.9,27.5c0.8,3.7 1.5,9.4 1.5,12.6l0,5.7l-25.5,0c-28.9,0 -27.5,-0.5 -23.2,8c3.2,6.4 7.5,9 14.9,9c7.1,0 12.5,-2.2 14.7,-6.2c1.6,-2.7 1.8,-2.8 10.3,-2.8l8.7,0l-1.5,4.5c-3.2,9.3 -10.4,16.2 -19.6,19c-5.6,1.6 -19.4,1.9 -24.4,0.4Zm26.6,-49.3c0,-3.4 -4,-8.8 -8,-10.9c-4.5,-2.3 -13,-1.9 -16.8,1c-2.8,2 -7.2,8.8 -7.2,11.1c0,0.9 3.9,1.2 16,1.2l16,0l0,-2.4Z" style="fill-rule:nonzero;"/>        <path d="M287,297.8c-2.6,-1.4 -5.7,-4.1 -7.5,-6.6l-3,-4.4l-0.3,-19.9l-0.3,-19.9l-8.5,0l-8.4,0l0,-8l0,-7.9l8.3,-0.3l8.2,-0.3l0.5,-9.4l0.5,-9.4l8,-2.3c4.4,-1.3 8.6,-2.4 9.3,-2.4c0.9,0 1.2,3.1 1.2,12l0,12l19,0l0,16l-9.5,0l-9.5,0l0,15.3c0,19.5 -0.2,19.1 11.9,19.5l9.1,0.4l0,17.8l-12.3,0c-10.7,0 -12.8,-0.3 -16.7,-2.2Z" style="fill-rule:nonzero;"/>        <path d="M416,299.1c-8,-2.6 -13.2,-7.2 -16.9,-15.1c-2.6,-5.4 -2.6,-6 -2.9,-30.7l-0.4,-25.2l3.9,-1c2.1,-0.6 6.1,-1.7 8.8,-2.6c2.8,-0.8 5.3,-1.5 5.8,-1.5c0.4,0 0.7,10.5 0.7,23.3c0,24.7 0.7,29.8 4.4,32.2c4.1,2.7 10.8,3 15.3,0.6c8.2,-4.1 8.3,-4.5 8.3,-29.2l0,-21.8l3.8,-1c2,-0.6 6,-1.7 8.7,-2.6c2.8,-0.8 5.3,-1.5 5.8,-1.5c0.4,0 0.7,17.3 0.7,38.5l0,38.5l-9.5,0c-8.8,0 -9.5,-0.1 -9.5,-2c0,-2.4 -0.7,-2.5 -5.1,-0.3c-3.7,1.9 -17.8,2.8 -21.9,1.4Z" style="fill-rule:nonzero;"/>        <g id="layer102">            <path d="M323.2,249.3l0.3,-51.8l9,-2.6l9,-2.6l0.3,24.8c0.1,13.7 0.6,24.9 1,24.9c0.4,0 11.5,-12.8 24.7,-28.5l23.9,-28.5l11.8,0c6.5,0 11.8,0.4 11.8,0.8c0,0.4 -13.2,16.5 -29.4,35.8l-29.4,34.9l21.4,21.5c11.8,11.8 21.4,21.9 21.4,22.3c0,0.4 -5.7,0.7 -12.8,0.7l-12.7,0l-15,-15c-8.2,-8.2 -15.3,-15 -15.7,-15c-0.5,0 -0.8,6.8 -0.8,15l0,15l-9.5,0l-9.5,0l0.2,-51.7Z" style="fill:rgb(242,142,30);fill-rule:nonzero;"/>            <path d="M413,207.4c-3.6,-3 -6.6,-5.8 -6.8,-6.2c-0.3,-0.9 10.6,-14.2 11.6,-14.2c1,0 29.6,24 30,25.1c0.2,0.5 -6,0.9 -14,0.9l-14.3,-0.1l-6.5,-5.5Z" style="fill:rgb(242,142,30);fill-rule:nonzero;"/>            <path d="M443.3,205.3c-3.7,-3.1 -7,-5.8 -7.2,-5.9c-0.2,-0.2 4.9,-6.5 11.2,-14.1l11.6,-13.8l-2.6,-2.7c-1.5,-1.6 -2.3,-2.8 -1.7,-2.8c0.5,0 6.1,-0.9 12.4,-2c8.9,-1.5 11.6,-1.7 12.2,-0.7c0.4,0.6 0.8,6.5 0.8,13l0,11.8l-2.9,-2c-1.6,-1.2 -3.1,-2.1 -3.3,-2.1c-0.3,0 -5.6,6.1 -11.8,13.5c-6.2,7.4 -11.4,13.5 -11.6,13.5c-0.1,0 -3.3,-2.6 -7.1,-5.7Z" style="fill:rgb(242,142,30);fill-rule:nonzero;"/>        </g>    </g></svg>