<?xml version="1.0" encoding="UTF-8" standalone="no"?><!DOCTYPE svg PUBLIC "-//W3C//DTD SVG 1.1//EN" "http://www.w3.org/Graphics/SVG/1.1/DTD/svg11.dtd"><svg width="100%" height="100%" viewBox="0 0 1024 512" version="1.1" xmlns="http://www.w3.org/2000/svg" xmlns:xlink="http://www.w3.org/1999/xlink" xml:space="preserve" style="fill-rule:evenodd;clip-rule:evenodd;stroke-linejoin:round;stroke-miterlimit:2;"><title>Civislend</title><desc>CIVISLEND PFP, SA is the first real estate investment platform in Spain authorized by the CNMV in all its forms, including securities, participations and loans.</desc>    <g transform="matrix(1.24259,0,0,1.24177,-191.724,-61.8928)">        <g transform="matrix(4.16667,0,0,4.16667,423.701,273.661)">            <path d="M0,-8.506l-8.215,0l0,8.377l8.215,0l0,-2.203l3.043,0l0,1.564c0,1.229 -0.227,2.058 -0.685,2.485c-0.455,0.427 -1.309,0.641 -2.56,0.641l-7.81,0c-1.251,0 -2.105,-0.214 -2.562,-0.641c-0.455,-0.427 -0.683,-1.256 -0.683,-2.485l0,-6.97c0,-1.231 0.228,-2.058 0.683,-2.485c0.457,-0.427 1.311,-0.641 2.562,-0.641l7.81,0c1.251,0 2.105,0.214 2.56,0.641c0.458,0.427 0.685,1.254 0.685,2.485l0,1.255l-3.043,0l0,-2.023Z" style="fill:rgb(85,86,90);fill-rule:nonzero;"/>        </g>        <g transform="matrix(4.16667,0,0,4.16667,0,-551.379)">            <rect x="108.484" y="187.146" width="3.044" height="13.222" style="fill:rgb(85,86,90);"/>        </g>        <g transform="matrix(4.16667,0,0,4.16667,510.964,228.395)">            <path d="M0,13.222l-7.554,-13.222l3.474,0l5.299,9.556l5.046,-9.556l3.042,0l-7.201,13.222l-2.106,0Z" style="fill:rgb(85,86,90);fill-rule:nonzero;"/>        </g>        <g transform="matrix(4.16667,0,0,4.16667,0,-551.379)">            <rect x="135.487" y="187.146" width="3.044" height="13.222" style="fill:rgb(85,86,90);"/>        </g>        <g transform="matrix(4.16667,0,0,4.16667,641.755,273.88)">            <path d="M0,-8.61l-8.569,0l0,2.844l8.163,0c1.253,0 2.11,0.213 2.576,0.64c0.464,0.428 0.697,1.256 0.697,2.486l0,1.819c0,1.229 -0.233,2.059 -0.697,2.486c-0.466,0.426 -1.323,0.641 -2.576,0.641l-8.087,0c-1.253,0 -2.108,-0.215 -2.574,-0.641c-0.465,-0.427 -0.696,-1.257 -0.696,-2.486l0,-0.358l2.687,0l0,0.997l9.254,0l0,-3.021l-8.163,0c-1.252,0 -2.105,-0.215 -2.561,-0.642c-0.457,-0.426 -0.686,-1.254 -0.686,-2.485l0,-1.461c0,-1.231 0.229,-2.058 0.686,-2.484c0.456,-0.427 1.309,-0.641 2.561,-0.641l7.429,0c1.199,0 2.041,0.205 2.523,0.614c0.482,0.41 0.721,1.171 0.721,2.28l0,0.283l-2.688,0l0,-0.871Z" style="fill:rgb(85,86,90);fill-rule:nonzero;"/>        </g>        <g transform="matrix(4.16667,0,0,4.16667,688.245,228.395)">            <path d="M0,13.222l0,-13.222l3.042,0l0,10.734l9.813,0l0,2.488l-12.855,0Z" style="fill:rgb(85,86,90);fill-rule:nonzero;"/>        </g>        <g transform="matrix(4.16667,0,0,4.16667,756.28,228.395)">            <path d="M0,13.222l0,-13.222l13.389,0l0,2.254l-10.346,0l0,2.948l6.035,0l0,2.255l-6.035,0l0,3.277l10.471,0l0,2.488l-13.514,0Z" style="fill:rgb(85,86,90);fill-rule:nonzero;"/>        </g>        <g transform="matrix(4.16667,0,0,4.16667,830.664,228.395)">            <path d="M0,13.222l0,-13.222l2.079,0l9.203,7.788c0.661,0.565 1.158,1.043 1.496,1.436c-0.085,-1.229 -0.126,-1.989 -0.126,-2.281l0,-6.943l2.739,0l0,13.222l-2.079,0l-9.611,-8.175c-0.406,-0.342 -0.769,-0.7 -1.091,-1.077c0.086,0.855 0.129,1.557 0.129,2.101l0,7.151l-2.739,0Z" style="fill:rgb(85,86,90);fill-rule:nonzero;"/>        </g>        <g transform="matrix(4.16667,0,0,4.16667,910.533,228.395)">            <path d="M0,13.222l0,-13.222l8.418,0c2.418,0 4.268,0.573 5.553,1.716c1.283,1.144 1.926,2.752 1.926,4.819c0,1.314 -0.296,2.509 -0.888,3.586c-0.641,1.128 -1.538,1.939 -2.686,2.435c-1.048,0.443 -2.612,0.666 -4.692,0.666l-7.631,0Zm3.042,-2.488l3.932,0c2.01,0 3.456,-0.296 4.335,-0.894c0.962,-0.65 1.444,-1.769 1.444,-3.358c0,-2.749 -1.436,-4.124 -4.309,-4.124l-5.402,0l0,8.376Z" style="fill:rgb(85,86,90);fill-rule:nonzero;"/>        </g>        <g transform="matrix(4.16667,0,0,4.16667,265.479,145.271)">            <path d="M0,53.15c-3.549,0 -6.993,-0.704 -10.236,-2.089c-3.133,-1.339 -5.945,-3.255 -8.358,-5.697c-2.414,-2.437 -4.312,-5.279 -5.638,-8.446c-1.37,-3.276 -2.066,-6.756 -2.066,-10.343c0,-3.588 0.696,-7.068 2.066,-10.345c1.326,-3.166 3.224,-6.008 5.638,-8.446c2.413,-2.439 5.224,-4.356 8.355,-5.696c3.246,-1.385 6.69,-2.088 10.239,-2.088c0.782,0 1.415,0.641 1.415,1.429c0,0.791 -0.633,1.432 -1.415,1.432c-3.168,0 -6.241,0.625 -9.135,1.861c-2.794,1.195 -5.305,2.906 -7.459,5.084c-2.156,2.178 -3.849,4.714 -5.031,7.538c-1.223,2.923 -1.841,6.028 -1.841,9.231c0,3.203 0.618,6.307 1.841,9.229c1.182,2.827 2.875,5.362 5.031,7.539c2.154,2.18 4.665,3.888 7.459,5.083c2.894,1.237 5.967,1.863 9.135,1.863c3.168,0 6.241,-0.626 9.135,-1.863c2.793,-1.195 5.303,-2.902 7.46,-5.083c0.552,-0.559 1.446,-0.559 2,0c0.554,0.561 0.554,1.464 0,2.021c-2.416,2.442 -5.227,4.358 -8.359,5.697c-3.244,1.385 -6.687,2.089 -10.236,2.089" style="fill:rgb(143,21,56);fill-rule:nonzero;"/>        </g>        <g transform="matrix(4.16667,0,0,4.16667,266.042,160.164)">            <path d="M0,45.164c-2.861,0 -5.723,-0.569 -8.445,-1.711c-5.446,-2.281 -9.683,-6.567 -11.931,-12.067c-2.253,-5.497 -2.25,-11.555 0.006,-17.055c2.257,-5.499 6.498,-9.78 11.94,-12.055c5.443,-2.276 11.438,-2.273 16.877,0.006c0.722,0.302 1.064,1.14 0.765,1.869c-0.3,0.731 -1.129,1.075 -1.848,0.774c-4.744,-1.988 -9.968,-1.99 -14.712,-0.006c-4.745,1.984 -8.439,5.715 -10.406,10.508c-1.968,4.793 -1.971,10.073 -0.007,14.867c1.961,4.793 5.653,8.528 10.399,10.517c4.743,1.987 9.968,1.989 14.71,0.006c0.723,-0.303 1.551,0.044 1.85,0.775c0.299,0.728 -0.044,1.564 -0.767,1.867c-2.717,1.138 -5.575,1.705 -8.431,1.705" style="fill:rgb(161,34,65);fill-rule:nonzero;"/>        </g>        <g transform="matrix(4.16667,0,0,4.16667,265.479,181.022)">            <path d="M0,35.989c-4.756,0 -9.227,-1.872 -12.59,-5.27c-3.365,-3.399 -5.217,-7.92 -5.217,-12.724c0,-4.806 1.852,-9.326 5.217,-12.724c3.363,-3.4 7.836,-5.271 12.59,-5.271c0.782,0 1.415,0.64 1.415,1.429c0,0.79 -0.633,1.43 -1.415,1.43c-4,0 -7.76,1.576 -10.591,4.433c-2.828,2.859 -4.386,6.66 -4.386,10.703c0,4.043 1.558,7.842 4.386,10.702c2.829,2.857 6.591,4.431 10.591,4.431c4.001,0 7.761,-1.574 10.59,-4.431c0.553,-0.559 1.449,-0.559 2,0c0.554,0.559 0.554,1.463 0,2.022c-3.361,3.398 -7.834,5.27 -12.59,5.27" style="fill:rgb(189,58,73);fill-rule:nonzero;"/>        </g>        <g transform="matrix(4.16667,0,0,4.16667,265.371,196.952)">            <path d="M0,27.881c-2.566,0 -5.081,-0.741 -7.293,-2.174c-3.049,-1.974 -5.155,-5.03 -5.93,-8.61c-0.774,-3.575 -0.121,-7.242 1.831,-10.323c1.959,-3.083 4.984,-5.211 8.521,-5.992c3.538,-0.782 7.167,-0.124 10.217,1.852c0.66,0.427 0.85,1.311 0.427,1.975c-0.421,0.666 -1.297,0.858 -1.955,0.431c-2.414,-1.563 -5.285,-2.083 -8.084,-1.464c-2.799,0.62 -5.194,2.301 -6.745,4.742c-1.544,2.439 -2.058,5.339 -1.448,8.169c0.614,2.832 2.281,5.251 4.693,6.815c2.414,1.56 5.286,2.08 8.083,1.463c0.765,-0.168 1.518,0.319 1.686,1.092c0.167,0.771 -0.316,1.534 -1.08,1.702c-0.97,0.215 -1.951,0.322 -2.923,0.322" style="fill:rgb(215,92,114);fill-rule:nonzero;"/>        </g>        <g transform="matrix(4.16667,0,0,4.16667,265.393,215.392)">            <path d="M0,19.11c-1.131,0 -2.266,-0.212 -3.352,-0.635c-2.323,-0.904 -4.158,-2.668 -5.166,-4.969c-1.01,-2.295 -1.073,-4.853 -0.177,-7.201c0.893,-2.347 2.639,-4.2 4.913,-5.222c2.274,-1.02 4.805,-1.083 7.128,-0.18c0.729,0.284 1.094,1.111 0.814,1.848c-0.283,0.734 -1.1,1.104 -1.831,0.821c-1.616,-0.629 -3.378,-0.585 -4.963,0.124c-1.583,0.711 -2.798,2.002 -3.42,3.636c-0.623,1.636 -0.58,3.415 0.123,5.017c0.703,1.601 1.979,2.827 3.595,3.457c1.618,0.628 3.38,0.585 4.967,-0.127c0.713,-0.318 1.55,0.007 1.866,0.729c0.316,0.722 -0.006,1.567 -0.72,1.887c-1.21,0.541 -2.493,0.815 -3.777,0.815" style="fill:rgb(228,98,132);fill-rule:nonzero;"/>        </g>    </g></svg>