<?xml version="1.0" encoding="UTF-8" standalone="no"?><!DOCTYPE svg PUBLIC "-//W3C//DTD SVG 1.1//EN" "http://www.w3.org/Graphics/SVG/1.1/DTD/svg11.dtd"><svg width="100%" height="100%" viewBox="0 0 1024 512" version="1.1" xmlns="http://www.w3.org/2000/svg" xmlns:xlink="http://www.w3.org/1999/xlink" xml:space="preserve" style="fill-rule:evenodd;clip-rule:evenodd;stroke-linejoin:round;stroke-miterlimit:2;"><title>Homunity</title><desc>Homunity.com is a 100% online platform that makes real estate investing accessible.To help you have a diversified portfolio, three investment solutions are available on the platform. Real estate crowdfunding, SCPI and New real estate</desc>    <g transform="matrix(1.01512,0,0,1.01512,185.78,138.78)">        <g transform="matrix(2.22411,0,0,2.22411,70.2861,-33.1072)">            <path d="M5.668,29.05l0,23.95c3.786,-4.221 9.171,-6.67 14.84,-6.75c10.525,0.138 19.158,8.726 19.35,19.25l0,20.32l-4.37,0.73l0,-20.37c-0.157,-8.057 -6.851,-14.59 -14.91,-14.55c-5.644,0.191 -10.804,3.294 -13.62,8.19c-0.848,1.465 -1.3,3.127 -1.31,4.82l0,21.86l-5.07,-0l0,-57.5l5.09,0.05Z" style="fill:rgb(38,52,129);"/>            <path d="M260.918,32.33c0.027,-1.828 1.532,-3.319 3.36,-3.33c1.846,0.027 3.358,1.534 3.39,3.38c-0.097,1.772 -1.581,3.177 -3.355,3.177c-1.774,-0 -3.258,-1.405 -3.355,-3.177l0,0.32l-0.04,-0.37Z" style="fill:rgb(38,52,129);"/>            <path d="M127.234,55.96c3.583,-5.752 9.852,-9.327 16.654,-9.49c10.581,0.061 19.322,8.632 19.59,19.21l0,20.07l-4.37,0l0,-20.15c-0.355,-7.984 -7.008,-14.366 -15,-14.39c-0.07,-0.001 -0.141,-0.002 -0.211,-0.002c-7.551,0 -13.791,6.152 -13.899,13.702l0,21.59l-5.09,0l0,-20.5c-0.055,-7.907 -6.603,-14.37 -14.51,-14.32l-0.13,0c-6.533,0.006 -12.313,4.369 -14.11,10.65c-0.199,0.649 -0.313,1.321 -0.34,2l0,22.17l-5.09,0l0,-39.28l5.09,0l0,5.78c3.74,-4.12 9.053,-6.473 14.617,-6.473c6.87,-0 13.248,3.586 16.799,9.433l-0.346,0.51l0.69,0.01l-0.344,-0.52Z" style="fill:rgb(38,52,129);"/>            <g transform="matrix(1,0,0,1,-192.221,-124.333)">                <path d="M257.619,170.823c11.006,0.022 20.05,9.084 20.05,20.09c0,11.021 -9.069,20.09 -20.09,20.09c-11.021,0 -20.09,-9.069 -20.09,-20.09c0,0 0,0 0,0c0,-11.021 9.069,-20.09 20.09,-20.09c0.013,0 0.027,0 0.04,0Zm15.4,20.25c0,-8.448 -6.952,-15.4 -15.4,-15.4c-8.448,0 -15.4,6.952 -15.4,15.4c0,8.448 6.952,15.4 15.4,15.4c8.428,-0.054 15.346,-6.972 15.4,-15.4Z" style="fill:rgb(38,52,129);"/>            </g>            <path d="M304.578,47.22l0,20c-0.116,8.052 6.409,14.775 14.46,14.9c6.305,-0.214 11.892,-4.218 14.12,-10.12c0.34,-0.933 0.52,-1.917 0.53,-2.91l0,-21.87l5.09,0l0,38.55c0,10.64 -10,18.84 -20.36,18.84l0,-5.05c7.89,-0 15.27,-5.74 15.27,-14l0,-5.29c-3.45,4.41 -9.21,6.35 -14.63,6.55c-10.678,0.028 -19.495,-8.722 -19.55,-19.4l0,-20.2l5.07,0Z" style="fill:rgb(38,52,129);"/>            <path d="M175.098,47.25l0,20.11c-0.194,7.968 6.193,14.689 14.16,14.9l0.3,0c5.697,-0.209 10.856,-3.484 13.47,-8.55c0.729,-1.301 1.131,-2.759 1.17,-4.25l0,-22.24l5.09,-0l0,39.28l-5.09,0l0,-5.86c-3.781,4.063 -9.07,6.4 -14.62,6.46c-0.053,0 -0.107,0.001 -0.161,0.001c-10.593,-0 -19.332,-8.668 -19.419,-19.261l0,-20.62l5.1,0.03Z" style="fill:rgb(38,52,129);"/>            <path d="M277.688,29l0,18.18l15.27,0l0,5.1l-15.27,0l0,16c0.006,8.115 6.685,14.79 14.8,14.79l0.47,-0l0,3.53c-10.75,-0 -20.36,-7.92 -20.36,-19.08l0,-38.52l5.09,-0Z" style="fill:rgb(38,52,129);"/>            <path d="M220.958,53.31c3.706,-4.204 9.047,-6.616 14.651,-6.616c10.63,-0 19.407,8.677 19.529,19.306l0,20.5l-5.09,0l0,-20.45c0,-0.023 0,-0.047 0,-0.07c0,-7.791 -6.389,-14.212 -14.18,-14.25l-0.29,-0c-6.46,-0.046 -12.245,4.125 -14.24,10.27c-0.239,0.751 -0.371,1.532 -0.39,2.32l0,22.2l-5.09,0l0,-39.3l5.09,0l0.01,6.09Z" style="fill:rgb(38,52,129);"/>            <rect x="260.958" y="47.22" width="5.09" height="39.28" style="fill:rgb(38,52,129);"/>        </g>        <g transform="matrix(5.75353,0,0,5.75353,-2171.68,12.659)">            <path id="Tracé_3" d="M380.338,19c-0.266,5.292 -3.078,10.141 -7.54,13l-2.9,-5l0.11,0c0.003,0 0.007,0 0.01,0c0.417,0 0.76,-0.343 0.76,-0.76c0,-0.003 0,-0.007 0,-0.01l0,-7.23l9.56,0Z" style="fill:rgb(38,52,129);"/>            <path id="Tracé_4" d="M378.768,10c1.096,2.131 1.733,4.468 1.87,6.86l-9.86,0l0,-1.49l1.8,0c0.44,0.37 0.79,0 0.79,-0.44c-0.01,-0.204 -0.092,-0.399 -0.23,-0.55l-0.73,-0.72l6.36,-3.66Z" style="fill:rgb(38,52,129);"/>            <path id="Tracé_5" d="M372.818,3.44c2.056,1.322 3.802,3.072 5.12,5.13l-6.75,3.9l-2.27,-2.27l3.9,-6.76Z" style="fill:rgb(38,52,129);"/>            <path id="Tracé_6" d="M364.238,0.74c2.442,0.111 4.831,0.753 7,1.88l-3.66,6.38l-3.33,-3.33l-0.01,-4.93Z" style="fill:rgb(38,52,129);"/>            <path id="Tracé_7" d="M347.908,26c-4.3,-8.15 -1.142,-18.395 7,-22.71l0.67,-0.29c2.254,-1.13 4.721,-1.771 7.24,-1.88l0,4.88l-9,8.72c-0.152,0.146 -0.239,0.349 -0.24,0.56c0.006,0.441 0.369,0.8 0.81,0.8c0.003,0 0.007,0 0.01,0l1.9,0l0,5.23l-8.39,4.69Z" style="fill:rgb(38,52,129);"/>            <path id="Tracé_8" d="M363.368,35c-5.807,-0.002 -11.23,-2.965 -14.37,-7.85l7.24,-4.15l0,3.28c0,0.428 0.352,0.78 0.78,0.78c0.003,0 0.007,0 0.01,0l10.67,0l3.49,6c-2.417,1.25 -5.099,1.902 -7.82,1.9" style="fill:rgb(38,52,129);"/>        </g>    </g></svg>