<?xml version="1.0" encoding="UTF-8" standalone="no"?><!DOCTYPE svg PUBLIC "-//W3C//DTD SVG 1.1//EN" "http://www.w3.org/Graphics/SVG/1.1/DTD/svg11.dtd"><svg width="100%" height="100%" viewBox="0 0 1024 512" version="1.1" xmlns="http://www.w3.org/2000/svg" xmlns:xlink="http://www.w3.org/1999/xlink" xml:space="preserve" style="fill-rule:evenodd;clip-rule:evenodd;stroke-linejoin:round;stroke-miterlimit:2;"><title>BienPrêter</title><desc>Founded in 2017, Ulends, under the brand name Bienprêter, is a Fintech that allows companies to finance their working capital needs with retail investors. Combining the advantages of factoring and crowdfunding, the Bienprêter platform is a real alternative to existing financing solutions.</desc>    <g id="bienpreter-512x256.svg" transform="matrix(2.21737,0,0,2.21737,-55.6405,-27.8591)">        <path d="M185.41,124.57c4.573,2.901 7.285,8.016 7.12,13.43c0,0 0,0 0,0c0,8.86 -7.29,16.15 -16.15,16.15c-0.013,0 -0.027,0 -0.04,0l-14.52,0c-0.892,0 -1.747,-0.361 -2.37,-1c-0.643,-0.607 -1.006,-1.455 -1,-2.34l0,-46.81c-0.007,-0.885 0.356,-1.733 1,-2.34c0.618,-0.646 1.476,-1.008 2.37,-1l14,0c7.613,0.002 13.877,6.267 13.877,13.88c0,3.801 -1.562,7.441 -4.317,10.06l0.03,-0.03Zm-9.56,-2.76c3.983,0 7.26,-3.277 7.26,-7.26c0.031,-1.933 -0.741,-3.795 -2.13,-5.14c-1.35,-1.382 -3.208,-2.152 -5.14,-2.13l-10.73,0l0,14.52l10.74,0.01Zm-10.73,6.62l0,19.06l11.23,0c5.228,0 9.53,-4.302 9.53,-9.53c0,-5.228 -4.302,-9.53 -9.53,-9.53l-11.23,0Z" style="fill-rule:nonzero;"/>        <path d="M200.11,100.7c0.725,0.005 1.438,0.195 2.07,0.55c0.67,0.364 1.221,0.913 1.59,1.58c0.765,1.304 0.765,2.926 0,4.23c-0.366,0.666 -0.914,1.214 -1.58,1.58c-1.3,0.753 -2.91,0.753 -4.21,0c-0.666,-0.366 -1.214,-0.914 -1.58,-1.58c-0.371,-0.642 -0.567,-1.369 -0.57,-2.11c0.004,-0.747 0.2,-1.481 0.57,-2.13c0.362,-0.672 0.916,-1.222 1.59,-1.58c0.65,-0.356 1.379,-0.542 2.12,-0.54Zm0,13.46c1.815,0.032 3.298,1.515 3.33,3.33l0,33.33c0.013,0.886 -0.351,1.737 -1,2.34c-1.291,1.267 -3.389,1.267 -4.68,0c-0.649,-0.603 -1.013,-1.454 -1,-2.34l0,-33.33c0.032,-1.815 1.515,-3.298 3.33,-3.33l0.02,0Z" style="fill-rule:nonzero;"/>        <path d="M213.75,148.27c-1.821,-1.806 -3.277,-3.944 -4.29,-6.3c-3.208,-7.494 -1.501,-16.234 4.29,-21.97c1.842,-1.828 4.018,-3.285 6.41,-4.29c2.474,-1.061 5.139,-1.602 7.83,-1.59c5.338,-0.075 10.478,2.053 14.2,5.88c1.833,1.826 3.29,3.994 4.29,6.38c1.057,2.461 1.598,5.112 1.59,7.79c0.007,0.885 -0.356,1.733 -1,2.34c-0.618,0.646 -1.476,1.008 -2.37,1l-29.78,0c0.734,2.841 2.409,5.351 4.75,7.12c2.369,1.865 5.306,2.864 8.32,2.83c4.913,0 8.703,-1.5 11.37,-4.5c0.565,-0.674 1.391,-1.074 2.27,-1.1c0.88,-0.059 1.748,0.237 2.41,0.82c0.702,0.626 1.105,1.523 1.105,2.464c0,0.819 -0.305,1.609 -0.855,2.216c-4,4.487 -9.43,6.73 -16.29,6.73c-5.344,0.093 -10.499,-2.013 -14.25,-5.82Zm27.25,-17.39c-1.528,-5.938 -6.923,-10.122 -13.055,-10.122c-6.132,0 -11.527,4.184 -13.055,10.122l26.11,0Z" style="fill-rule:nonzero;"/>        <path d="M270.32,114.05c4.983,-0.041 9.741,2.111 13,5.88c3.561,3.83 5.492,8.902 5.38,14.13l0,16.75c-0.016,1.816 -1.514,3.301 -3.33,3.301c-0.876,0 -1.717,-0.346 -2.34,-0.961c-0.635,-0.613 -0.996,-1.457 -1,-2.34l0,-16.74c0.077,-3.472 -1.151,-6.849 -3.44,-9.46c-2.051,-2.467 -5.097,-3.896 -8.305,-3.896c-3.208,0 -6.254,1.429 -8.305,3.896c-2.288,2.612 -3.516,5.989 -3.44,9.46l0,16.65c0.007,0.885 -0.356,1.733 -1,2.34c-0.612,0.636 -1.457,0.997 -2.34,1c-0.892,0.001 -1.748,-0.36 -2.37,-1c-0.644,-0.607 -1.007,-1.455 -1,-2.34l0,-33.34c-0.008,-0.885 0.355,-1.734 1,-2.34c0.617,-0.647 1.476,-1.009 2.37,-1c1.812,0.022 3.29,1.518 3.29,3.33l0,1.31c3.196,-3.013 7.438,-4.673 11.83,-4.63Z" style="fill-rule:nonzero;"/>        <path d="M314,114.12c5.229,-0.056 10.25,2.078 13.84,5.88c7.603,7.806 7.603,20.424 0,28.23c-7.249,7.422 -19.233,7.787 -26.92,0.82l0,15.27c0.007,0.885 -0.356,1.733 -1,2.34c-0.612,0.636 -1.457,0.997 -2.34,1c-0.892,0.001 -1.748,-0.36 -2.37,-1c-0.644,-0.607 -1.007,-1.455 -1,-2.34l0,-46.86c-0.007,-0.885 0.356,-1.733 1,-2.34c0.618,-0.646 1.476,-1.008 2.37,-1c1.812,0.022 3.29,1.518 3.29,3.33l0,1.7c3.565,-3.303 8.271,-5.105 13.13,-5.03Zm0,33.33c3.479,0.046 6.822,-1.37 9.21,-3.9c5.024,-5.247 5.024,-13.633 0,-18.88c-2.415,-2.491 -5.741,-3.898 -9.21,-3.898c-3.469,0 -6.795,1.407 -9.21,3.898c-5.069,5.227 -5.069,13.653 0,18.88c2.386,2.534 5.73,3.953 9.21,3.91l0,-0.01Z" style="fill-rule:nonzero;"/>        <path d="M356.07,114.16c1.827,0 3.33,1.503 3.33,3.33c0,1.827 -1.503,3.33 -3.33,3.33c-3.207,-0.013 -6.255,1.421 -8.29,3.9c-2.288,2.612 -3.516,5.989 -3.44,9.46l0,16.65c0.007,0.885 -0.356,1.733 -1,2.34c-0.612,0.636 -1.457,0.997 -2.34,1c-0.892,0.001 -1.748,-0.36 -2.37,-1c-0.644,-0.607 -1.007,-1.455 -1,-2.34l0,-33.34c-0.007,-0.885 0.356,-1.733 1,-2.34c0.618,-0.646 1.476,-1.008 2.37,-1c1.812,0.022 3.29,1.518 3.29,3.33l0,1.31c3.179,-3.008 7.404,-4.669 11.78,-4.63Z" style="fill-rule:nonzero;"/>        <path d="M363.67,148.27c-1.821,-1.806 -3.277,-3.944 -4.29,-6.3c-3.208,-7.494 -1.501,-16.234 4.29,-21.97c1.842,-1.828 4.018,-3.285 6.41,-4.29c2.474,-1.061 5.139,-1.602 7.83,-1.59c5.338,-0.075 10.478,2.053 14.2,5.88c1.833,1.826 3.29,3.994 4.29,6.38c1.057,2.461 1.598,5.112 1.59,7.79c0.007,0.885 -0.356,1.733 -1,2.34c-0.618,0.646 -1.476,1.008 -2.37,1l-29.78,0c0.734,2.841 2.409,5.351 4.75,7.12c2.369,1.865 5.306,2.864 8.32,2.83c4.913,0 8.703,-1.5 11.37,-4.5c0.565,-0.674 1.391,-1.074 2.27,-1.1c0.88,-0.059 1.748,0.237 2.41,0.82c0.702,0.626 1.105,1.523 1.105,2.464c0,0.819 -0.305,1.609 -0.855,2.216c-4,4.487 -9.43,6.73 -16.29,6.73c-5.344,0.093 -10.499,-2.013 -14.25,-5.82Zm27.27,-17.39c-1.528,-5.938 -6.923,-10.122 -13.055,-10.122c-6.132,0 -11.527,4.184 -13.055,10.122l26.11,0Zm-11.33,-31l7.69,7.54c0.453,0.449 0.709,1.062 0.71,1.7c0.002,0.037 0.003,0.074 0.003,0.111c0,1.3 -1.07,2.37 -2.37,2.37c-0.025,0 -0.049,0 -0.073,-0.001c-0.651,0.004 -1.278,-0.252 -1.74,-0.71l-5.91,-5.81l-5.92,5.86c-0.472,0.462 -1.109,0.718 -1.77,0.71c-0.629,-0.045 -1.226,-0.294 -1.7,-0.71c-0.462,-0.472 -0.718,-1.109 -0.71,-1.77c0.001,-0.638 0.257,-1.251 0.71,-1.7l7.69,-7.54c0.95,-0.894 2.45,-0.894 3.4,0l-0.01,-0.05Z" style="fill-rule:nonzero;"/>        <path d="M418,114.16c0.886,-0.014 1.738,0.35 2.34,1c1.267,1.291 1.267,3.389 0,4.68c-0.602,0.65 -1.454,1.014 -2.34,1l-5.17,0l0,30c-0.011,1.808 -1.502,3.289 -3.31,3.289c-0.868,0 -1.701,-0.341 -2.32,-0.949c-0.65,-0.602 -1.014,-1.454 -1,-2.34l0,-30l-5.2,0c-0.894,0.008 -1.752,-0.354 -2.37,-1c-1.273,-1.289 -1.273,-3.391 0,-4.68c0.618,-0.646 1.476,-1.008 2.37,-1l5.14,0l0,-10.16c0,-0.006 0,-0.013 0,-0.019c0,-1.816 1.494,-3.31 3.31,-3.31c0.887,0 1.738,0.356 2.36,0.989c0.644,0.607 1.007,1.455 1,2.34l0,10.2l5.19,-0.04Z" style="fill-rule:nonzero;"/>        <path d="M426.14,148.27c-1.821,-1.806 -3.277,-3.944 -4.29,-6.3c-3.208,-7.494 -1.501,-16.234 4.29,-21.97c1.842,-1.828 4.018,-3.285 6.41,-4.29c2.474,-1.061 5.139,-1.602 7.83,-1.59c5.338,-0.075 10.478,2.053 14.2,5.88c1.833,1.826 3.29,3.994 4.29,6.38c1.057,2.461 1.598,5.112 1.59,7.79c0.007,0.885 -0.356,1.733 -1,2.34c-0.618,0.646 -1.476,1.008 -2.37,1l-29.78,0c0.734,2.841 2.409,5.351 4.75,7.12c2.369,1.865 5.306,2.864 8.32,2.83c4.913,0 8.703,-1.5 11.37,-4.5c0.565,-0.674 1.391,-1.074 2.27,-1.1c0.88,-0.059 1.748,0.237 2.41,0.82c0.702,0.626 1.105,1.523 1.105,2.464c0,0.819 -0.305,1.609 -0.855,2.216c-4,4.487 -9.43,6.73 -16.29,6.73c-5.344,0.093 -10.499,-2.013 -14.25,-5.82Zm27.27,-17.39c-1.528,-5.938 -6.923,-10.122 -13.055,-10.122c-6.132,0 -11.527,4.184 -13.055,10.122l26.11,0Z" style="fill-rule:nonzero;"/>        <path d="M482.67,114.16c1.827,0 3.33,1.503 3.33,3.33c0,1.827 -1.503,3.33 -3.33,3.33c-3.207,-0.013 -6.255,1.421 -8.29,3.9c-2.288,2.612 -3.516,5.989 -3.44,9.46l0,16.65c0.007,0.885 -0.356,1.733 -1,2.34c-0.612,0.636 -1.457,0.997 -2.34,1c-0.892,0.001 -1.748,-0.36 -2.37,-1c-0.644,-0.607 -1.007,-1.455 -1,-2.34l0,-33.34c-0.007,-0.885 0.356,-1.733 1,-2.34c0.618,-0.646 1.476,-1.008 2.37,-1c1.812,0.022 3.29,1.518 3.29,3.33l0,1.31c3.179,-3.008 7.404,-4.669 11.78,-4.63Z" style="fill-rule:nonzero;"/>        <circle cx="427.89" cy="164.22" r="3.71" style="fill:rgb(45,46,131);"/>        <circle cx="447.79" cy="164.22" r="3.71" style="fill:rgb(29,113,184);"/>        <circle cx="467.7" cy="164.22" r="3.71" style="fill:rgb(54,169,225);"/>        <path d="M123.13,66.3c1.426,-0.681 2.987,-1.034 4.567,-1.034c5.815,0 10.6,4.785 10.6,10.6c0,5.815 -4.785,10.6 -10.6,10.6c-4.079,0 -7.811,-2.355 -9.567,-6.036c-2.503,-5.247 -0.247,-11.625 5,-14.13Z" style="fill:rgb(54,169,225);"/>        <path d="M138.12,181c-0.432,5.484 -5.066,9.767 -10.567,9.767c-5.815,0 -10.6,-4.785 -10.6,-10.6c0,-5.815 4.785,-10.6 10.6,-10.6c0.279,0 0.558,0.011 0.837,0.033c5.795,0.459 10.187,5.605 9.73,11.4Z" style="fill:rgb(29,113,184);"/>        <path d="M30.59,135.38c-2.874,-1.976 -4.595,-5.247 -4.595,-8.735c0,-5.815 4.785,-10.6 10.6,-10.6c5.815,0 10.6,4.785 10.6,10.6c0,2.144 -0.65,4.238 -1.865,6.005c-1.976,2.874 -5.248,4.595 -8.735,4.595c-2.144,0 -4.238,-0.65 -6.005,-1.865Z" style="fill:rgb(45,46,131);"/>        <path d="M72.46,113.71c2.15,-3.659 5.096,-6.786 8.62,-9.15c-1.09,-0.84 -2.18,-1.68 -3.31,-2.48c-1.963,-1.336 -4.569,-1.296 -6.49,0.1c-2.08,1.46 -4.24,2.83 -6.2,4.42c-2.888,2.211 -5.627,4.609 -8.2,7.18c-4.439,4.569 -6.421,11.005 -5.32,17.28c0.683,4.743 3.038,9.089 6.64,12.25c3.88,3.49 8.2,6.48 12.19,9.85c2.345,1.789 5.632,1.756 7.94,-0.08c0.75,-0.61 1.52,-1.2 2.29,-1.78c-12.01,-8.461 -15.581,-24.911 -8.16,-37.59Z" style="fill:rgb(45,46,131);"/>        <path d="M132.19,118.8c-0.22,-2.53 -0.33,-5.08 -0.73,-7.59c-0.478,-3.606 -1.19,-7.176 -2.13,-10.69c-1.74,-6.134 -6.335,-11.068 -12.33,-13.24c-4.449,-1.784 -9.393,-1.915 -13.93,-0.37c-5,1.61 -9.71,3.86 -14.63,5.62c-2.721,1.14 -4.334,4.002 -3.9,6.92c0.16,1 0.28,1.92 0.39,2.88c3.764,-1.758 7.868,-2.669 12.022,-2.669c14.824,0 27.283,11.603 28.338,26.389c1.24,-0.51 2.48,-1 3.7,-1.58c2.159,-1.014 3.448,-3.298 3.2,-5.67Z" style="fill:rgb(54,169,225);"/>        <path d="M128,131.66c-0.92,-0.34 -1.83,-0.72 -2.73,-1.11c-1.228,14.612 -13.597,25.984 -28.26,25.984c-4.304,0 -8.551,-0.979 -12.42,-2.864c-0.18,1.33 -0.36,2.66 -0.49,4c-0.177,2.371 1.165,4.61 3.34,5.57c2.3,1.07 4.57,2.26 6.93,3.16c3.357,1.4 6.805,2.573 10.32,3.51c1.542,0.36 3.12,0.542 4.703,0.542c9.752,0 18.241,-6.904 20.227,-16.452c1.09,-5.1 1.51,-10.35 2.45,-15.49c0.379,-2.938 -1.308,-5.778 -4.07,-6.85Z" style="fill:rgb(29,113,184);"/>    </g></svg>