<?xml version="1.0" encoding="UTF-8" standalone="no"?><!DOCTYPE svg PUBLIC "-//W3C//DTD SVG 1.1//EN" "http://www.w3.org/Graphics/SVG/1.1/DTD/svg11.dtd"><svg width="100%" height="100%" viewBox="0 0 1024 512" version="1.1" xmlns="http://www.w3.org/2000/svg" xmlns:xlink="http://www.w3.org/1999/xlink" xml:space="preserve" style="fill-rule:evenodd;clip-rule:evenodd;stroke-linejoin:round;stroke-miterlimit:2;"><title>Lendino</title><desc>Lendino is a marketplace for loans where individuals and organizations can lend directly to smaller Danish companies.Companies apply quickly and easily on transparent terms. Lenders provide financing at an attractive interest rate.We are 100% online without affiliate networks and use technology to reduce costs that we pass on to companies in the form of low interest rates and to lenders as attractive rates.</desc>    <g id="g3800" transform="matrix(2.88947,0,0,2.88947,-4.09197,58.7169)">        <path id="path14" d="M122.638,51.022l-50.531,-22.309l-25.708,32.322l30.273,24.963l45.966,-34.976" style="fill:rgb(102,196,48);"/>        <path id="path16" d="M22.507,44.408l-12.9,-10.991l-7.499,18.536l10.014,12.202l10.385,-19.747" style="fill:rgb(34,77,105);"/>        <path id="path18" d="M13.146,65.459l13.739,16.533l15.602,-20.491l-18.629,-15.835l-10.712,19.793" style="fill:rgb(54,158,155);"/>        <path id="path20" d="M73.737,88.28l-29.108,-24.917l-16.3,20.399l19.793,24.078l25.615,-19.56" style="fill:rgb(49,150,71);"/>        <path id="path22" d="M162.965,83.16l-21.281,0l0,-29.077l6.989,0l0,24.104l14.292,0l0,4.973" style="fill:rgb(35,31,32);fill-rule:nonzero;"/>        <path id="path24" d="M194.008,83.16l-22.626,0l0,-29.077l22.178,0l0,4.974l-15.188,0l0,6.675l13.709,0l0,4.973l-13.709,0l0,7.482l15.636,0l0,4.973" style="fill:rgb(35,31,32);fill-rule:nonzero;"/>        <path id="path26" d="M229.822,83.16l-7.079,0l-14.068,-20.161l0,20.161l-6.227,0l0,-29.077l7.078,0l14.068,19.848l0,-19.848l6.228,0l0,29.077" style="fill:rgb(35,31,32);fill-rule:nonzero;"/>        <path id="path28" d="M258.499,74.737l0,-11.962c0,-1.403 -0.567,-2.374 -1.702,-2.912c-1.136,-0.538 -2.853,-0.806 -5.153,-0.806l-5.331,0l0,19.13l5.108,0c2.688,0 4.539,-0.202 5.555,-0.605c1.015,-0.403 1.523,-1.351 1.523,-2.845l0,0Zm6.99,-11.828l0,11.828c0,3.286 -1.016,5.511 -3.047,6.676c-2.031,1.165 -5.6,1.747 -10.708,1.747l-12.41,0l0,-29.077l12.365,0c4.929,0 8.461,0.613 10.596,1.837c2.135,1.225 3.204,3.555 3.204,6.989" style="fill:rgb(35,31,32);fill-rule:nonzero;"/>        <rect id="path30" x="274.592" y="54.083" width="6.989" height="29.077" style="fill:rgb(35,31,32);fill-rule:nonzero;"/>        <path id="path32" d="M318.453,83.16l-7.079,0l-14.067,-20.161l0,20.161l-6.228,0l0,-29.077l7.079,0l14.067,19.848l0,-19.848l6.228,0l0,29.077" style="fill:rgb(35,31,32);fill-rule:nonzero;"/>        <path id="path34" d="M348.125,75.185l0,-12.768c0,-1.404 -0.576,-2.39 -1.724,-2.958c-1.151,-0.566 -2.846,-0.851 -5.086,-0.851c-2.27,0 -3.973,0.277 -5.107,0.829c-1.136,0.554 -1.703,1.546 -1.703,2.98l0,12.768c0,0.747 0.194,1.367 0.583,1.86c0.387,0.493 0.947,0.844 1.68,1.052c0.731,0.21 1.433,0.352 2.105,0.426c0.671,0.075 1.501,0.112 2.487,0.112c0.985,0 1.814,-0.037 2.486,-0.112c0.672,-0.074 1.367,-0.216 2.083,-0.426c0.717,-0.208 1.262,-0.559 1.636,-1.052c0.373,-0.493 0.56,-1.113 0.56,-1.86l0,0Zm6.989,-12.723l0,12.723c0,1.643 -0.433,3.047 -1.299,4.212c-0.867,1.165 -2.032,2.038 -3.495,2.621c-1.463,0.582 -2.927,0.993 -4.39,1.232c-1.464,0.238 -3.017,0.358 -4.66,0.358c-1.553,0 -3.009,-0.097 -4.368,-0.291c-1.359,-0.194 -2.808,-0.56 -4.346,-1.098c-1.539,-0.537 -2.762,-1.403 -3.673,-2.598c-0.912,-1.194 -1.367,-2.673 -1.367,-4.436l0,-12.723c0,-1.493 0.336,-2.807 1.008,-3.943c0.673,-1.135 1.479,-2.001 2.419,-2.599c0.941,-0.597 2.084,-1.082 3.428,-1.456c1.344,-0.372 2.538,-0.605 3.584,-0.694c1.045,-0.09 2.15,-0.134 3.315,-0.134c1.195,0 2.322,0.044 3.383,0.134c1.059,0.089 2.263,0.322 3.607,0.694c1.343,0.374 2.493,0.859 3.449,1.456c0.955,0.598 1.762,1.457 2.42,2.576c0.656,1.121 0.985,2.442 0.985,3.966" style="fill:rgb(35,31,32);fill-rule:nonzero;"/>    </g></svg>