<?xml version="1.0" encoding="UTF-8" standalone="no"?><!DOCTYPE svg PUBLIC "-//W3C//DTD SVG 1.1//EN" "http://www.w3.org/Graphics/SVG/1.1/DTD/svg11.dtd"><svg width="100%" height="100%" viewBox="0 0 1024 512" version="1.1" xmlns="http://www.w3.org/2000/svg" xmlns:xlink="http://www.w3.org/1999/xlink" xml:space="preserve" style="fill-rule:evenodd;clip-rule:evenodd;stroke-linejoin:round;stroke-miterlimit:2;"><title>LAFPA</title><desc></desc>    <g transform="matrix(0.388289,0,0,0.388289,412.596,206.267)">        <g id="_505a059f-0917-4a05-b65b-d6cbd6f66dfa" transform="matrix(5.7108,0,0,5.7108,-1205.99,-603.369)">            <path d="M150.84,86.3c0,0 -0.46,1.85 -0.81,2.89l-2.29,6.47l6.26,0l-2.26,-6.47c-0.35,-1 -0.78,-2.89 -0.78,-2.89l-0.12,0Zm3.87,11.7l-7.71,0l-2,5.87l-3,0l7.38,-20.41l3,0l7.38,20.41l-3,0l-2.05,-5.87Z" style="fill:rgb(0,66,95);fill-rule:nonzero;"/>        </g>        <g id="b5aabf61-a683-49b0-b89f-b2f6d8ac3780" transform="matrix(5.7108,0,0,5.7108,-1205.99,-603.369)">            <path d="M162.8,83.5l2.87,0l0,17.92l9.18,0l0,2.48l-12.05,0l0,-20.4Z" style="fill:rgb(0,66,95);fill-rule:nonzero;"/>        </g>        <g id="_4f28ea2a-9b9e-41e7-81f7-86809b7e3393" transform="matrix(5.7108,0,0,5.7108,-1205.99,-603.369)">            <path d="M179.96,85.98l-7.02,0l0,-2.48l16.93,0l0,2.48l-7.03,0l0,17.92l-2.88,0l0,-17.92Z" style="fill:rgb(0,66,95);fill-rule:nonzero;"/>        </g>        <g id="e2587f35-9f4e-473a-9824-c8c8d95edc8d" transform="matrix(5.7108,0,0,5.7108,-1205.99,-603.369)">            <path d="M192.87,83.5l11.9,0l0,2.48l-9.03,0l0,6.39l7.35,0l0,2.49l-7.35,0l0,6.56l9.52,0l0,2.48l-12.39,0l0,-20.4Z" style="fill:rgb(0,66,95);fill-rule:nonzero;"/>        </g>        <g id="_94001efa-03a6-4cba-89bd-8a4f9f694540" transform="matrix(5.7108,0,0,5.7108,-1205.99,-603.369)">            <path d="M215.92,93.3c0.081,0.006 0.163,0.009 0.244,0.009c1.865,0 3.4,-1.535 3.4,-3.4c0,-0.103 -0.005,-0.206 -0.014,-0.309c0.105,-1.273 -0.53,-2.5 -1.63,-3.15c-0.885,-0.392 -1.856,-0.55 -2.82,-0.46l-3.3,0l0,7.31l4.12,0Zm-7,-9.8l6.27,0c1.29,-0.071 2.582,0.098 3.81,0.5c2.086,1.008 3.418,3.13 3.418,5.447c0,2.408 -1.438,4.597 -3.648,5.553l0,0.06c0.232,0.287 0.436,0.595 0.61,0.92l4.35,7.92l-3.25,0l-4.33,-8.12l-4.35,0l0,8.12l-2.87,0l-0.01,-20.4Z" style="fill:rgb(0,66,95);fill-rule:nonzero;"/>        </g>        <g id="dcd5a207-29b7-436f-90fa-cd1f2478073f" transform="matrix(5.7108,0,0,5.7108,-1205.99,-603.369)">            <path d="M227.41,83.5l2.85,0l9.12,13.27c0.75,1.1 1.71,2.95 1.71,2.95l0.06,0c0,0 -0.2,-1.82 -0.2,-2.95l0,-13.27l2.87,0l0,20.4l-2.82,0l-9.15,-13.24c-0.76,-1.13 -1.71,-3 -1.71,-3l-0.06,0c0,0 0.2,1.82 0.2,3l0,13.24l-2.87,0l0,-20.4Z" style="fill:rgb(0,66,95);fill-rule:nonzero;"/>        </g>        <g id="_585b3d7a-93a9-4ac7-9e94-3ae628702421" transform="matrix(5.7108,0,0,5.7108,-1205.99,-603.369)">            <path d="M255.71,86.3c0,0 -0.46,1.85 -0.81,2.89l-2.29,6.47l6.21,0l-2.26,-6.47c-0.35,-1 -0.78,-2.89 -0.78,-2.89l-0.07,0Zm3.86,11.7l-7.72,0l-2,5.87l-3,0l7.38,-20.41l3,0l7.37,20.41l-3,0l-2.03,-5.87Z" style="fill:rgb(0,66,95);fill-rule:nonzero;"/>        </g>        <g id="_96a59ea7-058d-42f3-92e4-f93535412464" transform="matrix(5.7108,0,0,5.7108,-1205.99,-603.369)">            <path d="M269.99,85.98l-7.03,0l0,-2.48l16.93,0l0,2.48l-7.03,0l0,17.92l-2.87,0l0,-17.92Z" style="fill:rgb(0,66,95);fill-rule:nonzero;"/>        </g>        <g id="a4deed92-37c3-416c-9ac8-aea55b24d828" transform="matrix(5.7108,0,0,5.7108,-1205.99,-603.369)">            <rect x="282.89" y="83.5" width="2.88" height="20.4" style="fill:rgb(0,66,95);fill-rule:nonzero;"/>        </g>        <g id="_2677e169-2c4a-43ae-bbe7-b0cefd0e245a" transform="matrix(5.7108,0,0,5.7108,-1205.99,-603.369)">            <path d="M288.73,83.5l3.11,0l5.08,14.42c0.38,1.1 0.78,2.8 0.78,2.8l0.06,0c0,0 0.41,-1.71 0.78,-2.8l5.14,-14.42l3,0l-7.55,20.41l-2.87,0l-7.53,-20.41Z" style="fill:rgb(0,66,95);fill-rule:nonzero;"/>        </g>        <g id="_153e1b31-a975-4dae-ae00-62edf36965f2" transform="matrix(5.7108,0,0,5.7108,-1205.99,-603.369)">            <path d="M309.75,83.5l11.9,0l0,2.48l-9.03,0l0,6.39l7.35,0l0,2.49l-7.35,0l0,6.56l9.53,0l0,2.48l-12.4,0l0,-20.4Z" style="fill:rgb(0,66,95);fill-rule:nonzero;"/>        </g>        <g id="c3931b3c-76da-47f7-9996-051def3d3010" transform="matrix(5.7108,0,0,5.7108,-1205.99,-603.369)">            <path d="M144.54,117.66l11.3,0l0,2.48l-8.42,0l0,6.71l7.17,0l0,2.48l-7.17,0l0,8.73l-2.88,0l0,-20.4Z" style="fill:rgb(0,66,95);fill-rule:nonzero;"/>        </g>        <g id="b90e1294-1acc-4b1a-ba0e-9922b0509fe6" transform="matrix(5.7108,0,0,5.7108,-1205.99,-603.369)">            <rect x="159.23" y="117.66" width="2.87" height="20.4" style="fill:rgb(0,66,95);fill-rule:nonzero;"/>        </g>        <g id="ff51597f-0864-48c1-9c5a-cb3ee04b7744" transform="matrix(5.7108,0,0,5.7108,-1205.99,-603.369)">            <path d="M167.59,117.66l2.85,0l9.12,13.27c0.75,1.1 1.71,2.95 1.71,2.95l0.06,0c0,0 -0.2,-1.82 -0.2,-2.95l0,-13.27l2.87,0l0,20.41l-2.82,0l-9.18,-13.25c-0.75,-1.13 -1.71,-3 -1.71,-3l-0.06,0c0,0 0.2,1.82 0.2,3l0,13.24l-2.87,0l0.03,-20.4Z" style="fill:rgb(0,66,95);fill-rule:nonzero;"/>        </g>        <g id="_9f7e7334-a140-4ec0-86c0-7143a59d783e" transform="matrix(5.7108,0,0,5.7108,-1205.99,-603.369)">            <path d="M195.89,120.46c0,0 -0.46,1.85 -0.81,2.89l-2.29,6.47l6.21,0l-2.26,-6.47c-0.35,-1 -0.78,-2.89 -0.78,-2.89l-0.07,0Zm3.86,11.74l-7.75,0l-2,5.87l-3,0l7.37,-20.41l3,0l7.38,20.41l-3,0l-2,-5.87Z" style="fill:rgb(0,66,95);fill-rule:nonzero;"/>        </g>        <g id="_62f2bc3a-02a8-4f13-b9e9-aa797f950cc4" transform="matrix(5.7108,0,0,5.7108,-1205.99,-603.369)">            <path d="M207.84,117.66l2.85,0l9.12,13.27c0.75,1.1 1.71,2.95 1.71,2.95l0.06,0c0,0 -0.2,-1.82 -0.2,-2.95l0,-13.27l2.87,0l0,20.41l-2.82,0l-9.15,-13.24c-0.75,-1.13 -1.71,-3 -1.71,-3l-0.06,0c0,0 0.2,1.82 0.2,3l0,13.24l-2.87,0l0,-20.41Z" style="fill:rgb(0,66,95);fill-rule:nonzero;"/>        </g>        <g id="_5fac8766-240c-41e8-8b65-0dbc4d2cb6ca" transform="matrix(5.7108,0,0,5.7108,-1205.99,-603.369)">            <path d="M238.94,117.31c2.74,-0.104 5.417,0.861 7.46,2.69l-1.4,2.14c-1.655,-1.407 -3.748,-2.195 -5.92,-2.23c-4.59,0 -7.58,3.47 -7.58,7.8c0,4.33 3,8.06 7.61,8.06c2.371,-0.046 4.638,-0.998 6.33,-2.66l1.54,2.05c-2.113,2.124 -5.005,3.295 -8,3.24c-0.01,0 -0.02,0 -0.03,0c-5.788,0 -10.55,-4.762 -10.55,-10.55c0,-5.776 4.744,-10.534 10.52,-10.55l0.02,0.01Z" style="fill:rgb(0,66,95);fill-rule:nonzero;"/>        </g>        <g id="_44bffd6c-1133-4c20-924d-e7b90537de4c" transform="matrix(5.7108,0,0,5.7108,-1205.99,-603.369)">            <rect x="250.48" y="117.66" width="2.87" height="20.4" style="fill:rgb(0,66,95);fill-rule:nonzero;"/>        </g>        <g id="d14ae846-41d6-4476-b12c-312619b2616d" transform="matrix(5.7108,0,0,5.7108,-1205.99,-603.369)">            <path d="M265.2,120.46c0,0 -0.46,1.85 -0.81,2.89l-2.29,6.47l6.21,0l-2.31,-6.47c-0.35,-1 -0.78,-2.89 -0.78,-2.89l-0.02,0Zm3.86,11.74l-7.72,0l-2,5.87l-3,0l7.37,-20.41l3,0l7.37,20.41l-3,0l-2.02,-5.87Z" style="fill:rgb(0,66,95);fill-rule:nonzero;"/>        </g>        <g id="beafaddb-8c0d-40d4-9401-4fe89c519e0e" transform="matrix(5.7108,0,0,5.7108,-1205.99,-603.369)">            <path d="M277.15,117.66l2.88,0l0,17.92l9.17,0l0,2.48l-12.05,0l0,-20.4Z" style="fill:rgb(0,66,95);fill-rule:nonzero;"/>        </g>        <g id="b6e9590f-b11d-47fc-80c3-431baecd70c4" transform="matrix(5.7108,0,0,5.7108,-1205.99,-603.369)">            <path d="M301.48,133.55c1.421,1.339 3.279,2.12 5.23,2.2c1.92,0 3.54,-1.07 3.54,-3c0,-4.42 -9.93,-3.47 -9.93,-9.74c0,-3.18 2.76,-5.69 6.62,-5.69c2.125,-0.075 4.202,0.658 5.81,2.05l-1.31,2.37c-1.254,-1.084 -2.843,-1.706 -4.5,-1.76c-2.18,0 -3.72,1.36 -3.72,3c0,4.22 9.93,3.09 9.93,9.71c0,3.15 -2.44,5.75 -6.5,5.75c-2.528,0.032 -4.97,-0.935 -6.79,-2.69l1.62,-2.2Z" style="fill:rgb(0,66,95);fill-rule:nonzero;"/>        </g>        <g id="_4007ce96-07fb-46c6-995a-febf673f75d7" transform="matrix(5.7108,0,0,5.7108,-1205.99,-603.369)">            <path d="M317.31,117.66l11.91,0l0,2.48l-9.03,0l0,6.39l7.35,0l0,2.48l-7.35,0l0,6.57l9.52,0l0,2.48l-12.4,0l0,-20.4Z" style="fill:rgb(0,66,95);fill-rule:nonzero;"/>        </g>        <g id="d451f80a-0747-43bf-a1cd-83c240b597ae" transform="matrix(5.7108,0,0,5.7108,-1205.99,-603.369)">            <path d="M340.37,127.45c0.081,0.006 0.163,0.009 0.244,0.009c1.865,0 3.4,-1.535 3.4,-3.4c0,-0.103 -0.005,-0.206 -0.014,-0.309c0.105,-1.273 -0.53,-2.5 -1.63,-3.15c-0.885,-0.392 -1.856,-0.55 -2.82,-0.46l-3.31,0l0,7.31l4.13,0Zm-7,-9.8l6.27,0c1.294,-0.087 2.593,0.069 3.83,0.46c2.086,1.008 3.418,3.13 3.418,5.447c0,2.408 -1.438,4.597 -3.648,5.553l0,0.06c0.232,0.29 0.436,0.602 0.61,0.93l4.36,7.92l-3.21,0l-4.33,-8.12l-4.38,0l0,8.12l-2.87,0l-0.05,-20.37Z" style="fill:rgb(0,66,95);fill-rule:nonzero;"/>        </g>        <g id="_44d00719-5e38-48d8-9ee6-fed8e560357a" transform="matrix(5.7108,0,0,5.7108,-1205.99,-603.369)">            <path d="M348.87,117.66l3.13,0l5.08,14.42c0.38,1.1 0.78,2.8 0.78,2.8l0.06,0c0,0 0.41,-1.71 0.78,-2.8l5.14,-14.42l3,0l-7.55,20.41l-2.87,0l-7.55,-20.41Z" style="fill:rgb(0,66,95);fill-rule:nonzero;"/>        </g>        <g id="a4a5822e-c151-468f-8b76-e132dd030c2d" transform="matrix(5.7108,0,0,5.7108,-1205.99,-603.369)">            <rect x="369.88" y="117.66" width="2.88" height="20.4" style="fill:rgb(0,66,95);fill-rule:nonzero;"/>        </g>        <g id="_4ef60ac8-91e6-4382-8284-d9975ca724b2" transform="matrix(5.7108,0,0,5.7108,-1205.99,-603.369)">            <path d="M387.39,117.31c2.74,-0.104 5.417,0.861 7.46,2.69l-1.42,2.14c-1.655,-1.407 -3.748,-2.195 -5.92,-2.23c-4.59,0 -7.58,3.47 -7.58,7.8c0,4.33 3,8.06 7.61,8.06c2.371,-0.046 4.638,-0.998 6.33,-2.66l1.54,2.05c-2.113,2.124 -5.005,3.295 -8,3.24c-0.01,0 -0.02,0 -0.03,0c-5.788,0 -10.55,-4.762 -10.55,-10.55c0,-5.776 4.744,-10.534 10.52,-10.55l0.04,0.01Z" style="fill:rgb(0,66,95);fill-rule:nonzero;"/>        </g>        <g id="_9320416a-00e7-4728-8196-2084ac48260d" transform="matrix(5.7108,0,0,5.7108,-1205.99,-603.369)">            <path d="M398.94,117.66l11.9,0l0,2.48l-9.03,0l0,6.39l7.35,0l0,2.48l-7.35,0l0,6.57l9.52,0l0,2.48l-12.39,0l0,-20.4Z" style="fill:rgb(0,66,95);fill-rule:nonzero;"/>        </g>        <g id="aac00ffe-40cc-4c7a-9c2b-0c3dc67cf69e" transform="matrix(5.7108,0,0,5.7108,-1205.99,-603.369)">            <path d="M415.83,133.55c1.421,1.34 3.279,2.121 5.23,2.2c1.91,0 3.54,-1.07 3.54,-3c0,-4.42 -9.93,-3.47 -9.93,-9.74c0,-3.18 2.76,-5.69 6.62,-5.69c2.125,-0.074 4.202,0.659 5.81,2.05l-1.31,2.37c-1.254,-1.084 -2.843,-1.705 -4.5,-1.76c-2.18,0 -3.72,1.36 -3.72,3c0,4.22 9.93,3.09 9.93,9.71c0,3.15 -2.44,5.75 -6.5,5.75c-2.528,0.032 -4.97,-0.935 -6.79,-2.69l1.62,-2.2Z" style="fill:rgb(0,66,95);fill-rule:nonzero;"/>        </g>        <g id="_64ecac4c-05e7-4aa6-9651-cbfbe8f8b594" transform="matrix(5.7108,0,0,5.7108,-1205.99,-603.369)">            <path d="M150.84,154.62c0,0 -0.46,1.85 -0.81,2.89l-2.29,6.49l6.26,0l-2.26,-6.47c-0.35,-1 -0.78,-2.89 -0.78,-2.89l-0.12,-0.02Zm3.86,11.74l-7.7,0l-2,5.87l-3,0l7.38,-20.41l3,0l7.38,20.41l-3,0l-2.06,-5.87Z" style="fill:rgb(0,66,95);fill-rule:nonzero;"/>        </g>        <g id="_8e8848a5-f665-441c-8e1b-8dfeba851718" transform="matrix(5.7108,0,0,5.7108,-1205.99,-603.369)">            <path d="M163.35,167.71c1.421,1.34 3.279,2.121 5.23,2.2c1.92,0 3.54,-1.07 3.54,-3c0,-4.42 -9.93,-3.47 -9.93,-9.74c0,-3.18 2.76,-5.69 6.62,-5.69c2.125,-0.075 4.202,0.658 5.81,2.05l-1.31,2.37c-1.254,-1.084 -2.843,-1.706 -4.5,-1.76c-2.18,0 -3.72,1.36 -3.72,3c0,4.22 9.93,3.09 9.93,9.71c0,3.15 -2.44,5.75 -6.5,5.75c-2.528,0.032 -4.97,-0.935 -6.79,-2.69l1.62,-2.2Z" style="fill:rgb(0,66,95);fill-rule:nonzero;"/>        </g>        <g id="_2027b36f-a0e7-48f2-b1b8-d9bb48948492" transform="matrix(5.7108,0,0,5.7108,-1205.99,-603.369)">            <path d="M179.15,167.71c1.421,1.34 3.279,2.121 5.23,2.2c1.92,0 3.54,-1.07 3.54,-3c0,-4.42 -9.93,-3.47 -9.93,-9.74c0,-3.18 2.76,-5.69 6.62,-5.69c2.125,-0.075 4.202,0.658 5.81,2.05l-1.31,2.37c-1.254,-1.084 -2.843,-1.706 -4.5,-1.76c-2.18,0 -3.72,1.36 -3.72,3c0,4.22 9.93,3.09 9.93,9.71c0,3.15 -2.44,5.75 -6.5,5.75c-2.528,0.032 -4.97,-0.935 -6.79,-2.69l1.62,-2.2Z" style="fill:rgb(0,66,95);fill-rule:nonzero;"/>        </g>        <g id="a078c93b-5ec7-4ae3-a2cf-10d530d93d71" transform="matrix(5.7108,0,0,5.7108,-1205.99,-603.369)">            <path d="M204,169.94c4.18,0 7.55,-3.47 7.55,-8.06c0.003,-0.092 0.005,-0.183 0.005,-0.275c0,-4.153 -3.417,-7.57 -7.57,-7.57c-4.153,0 -7.57,3.417 -7.57,7.57c0,0.092 0.002,0.183 0.005,0.275c-0.004,0.104 -0.006,0.208 -0.006,0.312c0,4.189 3.397,7.659 7.586,7.748Zm0,-18.47c0.067,-0.001 0.134,-0.002 0.201,-0.002c5.655,0 10.31,4.654 10.31,10.31c0,0.034 -0.001,0.068 -0.001,0.102c0.003,0.108 0.005,0.216 0.005,0.324c0,5.777 -4.753,10.53 -10.53,10.53c-5.777,0 -10.53,-4.753 -10.53,-10.53c0,-0.108 0.002,-0.216 0.005,-0.324c0,-0.027 0,-0.055 0,-0.082c0,-5.667 4.663,-10.33 10.33,-10.33c0.07,0 0.14,0.001 0.21,0.002Z" style="fill:rgb(0,66,95);fill-rule:nonzero;"/>        </g>        <g id="_94f1d148-8a33-42bf-9625-10ed4003ace9"  transform="matrix(5.7108,0,0,5.7108,-1205.99,-603.369)">            <path d="M227.85,151.47c2.74,-0.104 5.417,0.861 7.46,2.69l-1.42,2.14c-1.655,-1.407 -3.748,-2.195 -5.92,-2.23c-4.59,0 -7.58,3.47 -7.58,7.8c0,4.33 3,8.06 7.61,8.06c2.371,-0.046 4.638,-0.998 6.33,-2.66l1.54,2.05c-2.113,2.124 -5.005,3.295 -8,3.24c-0.01,0 -0.02,0 -0.03,0c-5.788,0 -10.55,-4.762 -10.55,-10.55c0,-5.776 4.744,-10.534 10.52,-10.55l0.04,0.01Z" style="fill:rgb(0,66,95);fill-rule:nonzero;"/>        </g>        <g id="_1546ac20-d094-4858-8659-33184b4b2803" transform="matrix(5.7108,0,0,5.7108,-1205.99,-603.369)">            <rect x="239.38" y="151.81" width="2.87" height="20.41" style="fill:rgb(0,66,95);fill-rule:nonzero;"/>        </g>        <g id="_711d331b-0d73-4503-858b-ce6418d4dc94" transform="matrix(5.7108,0,0,5.7108,-1205.99,-603.369)">            <path d="M254.1,154.62c0,0 -0.46,1.85 -0.81,2.89l-2.29,6.49l6.21,0l-2.26,-6.47c-0.35,-1 -0.78,-2.89 -0.78,-2.89l-0.07,-0.02Zm3.9,11.73l-7.72,0l-2,5.87l-3,0l7.37,-20.41l3,0l7.35,20.41l-3,0l-2,-5.87Z" style="fill:rgb(0,66,95);fill-rule:nonzero;"/>        </g>        <g id="_7ad748b7-ee48-47b7-af30-755731a7ce3c" transform="matrix(5.7108,0,0,5.7108,-1205.99,-603.369)">            <path d="M268.38,154.3l-7.03,0l0,-2.49l16.93,0l0,2.49l-7.03,0l0,17.92l-2.87,0l0,-17.92Z" style="fill:rgb(0,66,95);fill-rule:nonzero;"/>        </g>        <g id="_60728ed1-05ff-4815-b248-c1f9ee5ff1e9" transform="matrix(5.7108,0,0,5.7108,-1205.99,-603.369)">            <rect x="281.28" y="151.81" width="2.88" height="20.41" style="fill:rgb(0,66,95);fill-rule:nonzero;"/>        </g>        <g id="_8f9dc0e8-4f79-4407-9cff-c88b163ceea1" transform="matrix(5.7108,0,0,5.7108,-1205.99,-603.369)">            <path d="M298.9,169.94c4.18,0 7.55,-3.47 7.55,-8.06c0.003,-0.092 0.005,-0.183 0.005,-0.275c0,-4.153 -3.417,-7.57 -7.57,-7.57c-4.153,0 -7.57,3.417 -7.57,7.57c0,0.092 0.002,0.183 0.005,0.275c-0.004,0.104 -0.006,0.208 -0.006,0.312c0,4.189 3.397,7.659 7.586,7.748Zm0,-18.47c0.067,-0.001 0.134,-0.002 0.201,-0.002c5.655,0 10.31,4.654 10.31,10.31c0,0.034 -0.001,0.068 -0.001,0.102c0.003,0.108 0.005,0.216 0.005,0.324c0,5.777 -4.753,10.53 -10.53,10.53c-5.777,0 -10.53,-4.753 -10.53,-10.53c0,-0.108 0.002,-0.216 0.005,-0.324c0,-0.027 0,-0.055 0,-0.082c0,-5.667 4.663,-10.33 10.33,-10.33c0.07,0 0.14,0.001 0.21,0.002Z" style="fill:rgb(0,66,95);fill-rule:nonzero;"/>        </g>        <g id="ac2cf08b-0de9-4a30-828a-6b7bd8fbc381" transform="matrix(5.7108,0,0,5.7108,-1205.99,-603.369)">            <path d="M313.63,151.81l2.85,0l9.12,13.27c0.75,1.1 1.71,2.95 1.71,2.95l0.06,0c0,0 -0.2,-1.82 -0.2,-2.95l0,-13.27l2.83,0l0,20.41l-2.82,0l-9.11,-13.22c-0.75,-1.13 -1.71,-3 -1.71,-3l-0.06,0c0,0 0.2,1.82 0.2,3l0,13.24l-2.87,0l0,-20.43Z" style="fill:rgb(0,66,95);fill-rule:nonzero;"/>        </g>        <g id="_01dc835b-21be-4611-b316-74798be533e5" transform="matrix(5.7108,0,0,5.7108,-1205.99,-603.369)">            <path d="M353.67,169.94c4.18,0 7.55,-3.47 7.55,-8.06c0.003,-0.092 0.005,-0.183 0.005,-0.275c0,-4.153 -3.417,-7.57 -7.57,-7.57c-4.153,0 -7.57,3.417 -7.57,7.57c0,0.092 0.002,0.183 0.005,0.275c-0.004,0.104 -0.006,0.208 -0.006,0.312c0,4.189 3.397,7.659 7.586,7.748Zm0,-18.47c0.067,-0.001 0.134,-0.002 0.201,-0.002c5.655,0 10.31,4.654 10.31,10.31c0,0.034 -0.001,0.068 -0.001,0.102c0.003,0.108 0.005,0.216 0.005,0.324c0,5.777 -4.753,10.53 -10.53,10.53c-5.777,0 -10.53,-4.753 -10.53,-10.53c0,-0.108 0.002,-0.216 0.005,-0.324c0,-0.027 0,-0.055 0,-0.082c0,-5.667 4.663,-10.33 10.33,-10.33c0.07,0 0.14,0.001 0.21,0.002Z" style="fill:rgb(0,66,95);fill-rule:nonzero;"/>        </g>        <g id="_950cd7c8-9144-4852-b26f-8566a10d3db9" transform="matrix(5.7108,0,0,5.7108,-1205.99,-603.369)">            <path d="M368.4,151.81l11.29,0l0,2.49l-8.42,0l0,6.7l7.17,0l0,2.49l-7.17,0l0,8.73l-2.87,0l0,-20.41Z" style="fill:rgb(0,66,95);fill-rule:nonzero;"/>        </g>        <g id="_747e8310-13a0-4589-b25d-c40701507e2d" transform="matrix(5.7108,0,0,5.7108,-1205.99,-603.369)">            <path d="M392.44,151.81l2.87,0l0,17.92l9.18,0l0,2.49l-12.05,0l0,-20.41Z" style="fill:rgb(0,66,95);fill-rule:nonzero;"/>        </g>        <g id="d1d6eb0b-900e-440c-b0dc-f6c32ffec688" transform="matrix(5.7108,0,0,5.7108,-1205.99,-603.369)">            <path d="M415.35,154.62c0,0 -0.46,1.85 -0.81,2.89l-2.3,6.47l6.21,0l-2.26,-6.47c-0.35,-1 -0.78,-2.89 -0.78,-2.89l-0.06,0Zm3.86,11.74l-7.72,0l-2,5.87l-3,0l7.37,-20.41l3,0l7.37,20.41l-3,0l-2.02,-5.87Z" style="fill:rgb(0,66,95);fill-rule:nonzero;"/>        </g>        <g id="ec198669-9584-4454-90be-95f5a09293a9" transform="matrix(5.7108,0,0,5.7108,-1205.99,-603.369)">            <path d="M429.62,154.3l-7.02,0l0,-2.49l16.93,0l0,2.49l-7.03,0l0,17.92l-2.88,0l0,-17.92Z" style="fill:rgb(0,66,95);fill-rule:nonzero;"/>        </g>        <g id="_96dc3902-82f9-4bc1-8eb0-86cb7c6cd86d" transform="matrix(5.7108,0,0,5.7108,-1205.99,-603.369)">            <path d="M441.35,151.81l3.11,0l5.08,14.42c0.38,1.1 0.78,2.8 0.78,2.8l0.06,0c0,0 0.4,-1.71 0.78,-2.8l5.14,-14.42l3,0l-7.55,20.41l-2.88,0l-7.52,-20.41Z" style="fill:rgb(0,66,95);fill-rule:nonzero;"/>        </g>        <g id="_839f2fbb-db4b-472b-ba0e-0dfed3dea2b4" transform="matrix(5.7108,0,0,5.7108,-1205.99,-603.369)">            <rect x="462.37" y="151.81" width="2.87" height="20.41" style="fill:rgb(0,66,95);fill-rule:nonzero;"/>        </g>        <g id="e963192a-8f4a-4436-9e46-8123b1b344a8" transform="matrix(5.7108,0,0,5.7108,-1205.99,-603.369)">            <path d="M477.09,154.62c0,0 -0.46,1.85 -0.82,2.89l-2.27,6.49l6.21,0l-2.26,-6.47c-0.35,-1 -0.78,-2.89 -0.78,-2.89l-0.08,-0.02Zm3.86,11.74l-7.72,0l-2,5.87l-3,0l7.37,-20.41l3,0l7.4,20.4l-3,0l-2.05,-5.86Z" style="fill:rgb(0,66,95);fill-rule:nonzero;"/>        </g>        <g id="_4d04b9a6-ae34-4ad8-9801-df5439a0dc39" transform="matrix(5.7108,0,0,5.7108,-1205.99,-603.369)">            <path d="M48.83,94.8c0,0.013 0,0.027 0,0.04c0,6.259 -5.151,11.41 -11.41,11.41c-6.259,0 -11.41,-5.151 -11.41,-11.41c0,-6.256 5.144,-11.404 11.4,-11.41c0.01,0 0.02,0 0.03,0c6.241,0 11.379,5.129 11.39,11.37Z" style="fill:rgb(0,66,95);fill-rule:nonzero;"/>        </g>        <g id="ca95f94b-4f7f-4e77-8f28-dd586cb8b920" transform="matrix(5.7108,0,0,5.7108,-1205.99,-603.369)">            <path d="M82.12,94.8c0,0.013 0,0.027 0,0.04c0,6.259 -5.151,11.41 -11.41,11.41c-6.259,0 -11.41,-5.151 -11.41,-11.41c0,-6.256 5.144,-11.404 11.4,-11.41c0.01,0 0.02,0 0.03,0c6.241,0 11.379,5.129 11.39,11.37Z" style="fill:rgb(84,142,171);fill-rule:nonzero;"/>        </g>        <g id="_2ae81c53-1513-4c7f-a387-f388ae396ce2" transform="matrix(5.7108,0,0,5.7108,-1205.99,-603.369)">            <path d="M115.41,94.8c0,0.013 0,0.027 0,0.04c0,6.259 -5.151,11.41 -11.41,11.41c-6.259,0 -11.41,-5.151 -11.41,-11.41c0,-6.259 5.151,-11.41 11.41,-11.41c0.007,0 0.013,0 0.02,0c6.241,0 11.379,5.129 11.39,11.37Z" style="fill:rgb(0,66,95);fill-rule:nonzero;"/>        </g>        <g id="_383571cf-be2a-4d07-bb43-242f18e53660" transform="matrix(5.7108,0,0,5.7108,-1205.99,-603.369)">            <path d="M37.41,139.3c-6.213,-0.027 -11.31,-5.147 -11.31,-11.36c0,-6.232 5.128,-11.36 11.36,-11.36c6.232,0 11.36,5.128 11.36,11.36c-0.016,6.245 -5.165,11.371 -11.41,11.36Z" style="fill:rgb(0,66,95);fill-rule:nonzero;"/>        </g>        <g id="_368bda3c-d76a-4d66-b023-cfffd2c1d206" transform="matrix(5.7108,0,0,5.7108,-1205.99,-603.369)">            <path d="M37.41,172.44c-6.213,-0.027 -11.31,-5.147 -11.31,-11.36c0,-6.232 5.128,-11.36 11.36,-11.36c6.232,0 11.36,5.128 11.36,11.36c-0.016,6.245 -5.165,11.371 -11.41,11.36Z" style="fill:rgb(0,66,95);fill-rule:nonzero;"/>        </g>        <g id="_2edfa36c-e85d-4ac7-9cc6-5364413d2c8b" transform="matrix(5.7108,0,0,5.7108,-1205.99,-603.369)">            <path d="M70.7,139.3c-6.213,-0.027 -11.31,-5.147 -11.31,-11.36c0,-6.232 5.128,-11.36 11.36,-11.36c6.232,0 11.36,5.128 11.36,11.36c-0.016,6.245 -5.165,11.371 -11.41,11.36Z" style="fill:rgb(0,66,95);fill-rule:nonzero;"/>        </g>        <g id="_7e80f87c-86ef-4e9b-8df9-23cc286228e2" transform="matrix(5.7108,0,0,5.7108,-1205.99,-603.369)">            <path d="M70.7,172.44c-6.213,-0.027 -11.31,-5.147 -11.31,-11.36c0,-6.232 5.128,-11.36 11.36,-11.36c6.232,0 11.36,5.128 11.36,11.36c-0.016,6.245 -5.165,11.371 -11.41,11.36Z" style="fill:rgb(84,142,171);fill-rule:nonzero;"/>        </g>        <g id="_76225e55-6c6d-4c23-9015-5d403ad10943" transform="matrix(5.7108,0,0,5.7108,-1205.99,-603.369)">            <path d="M104,139.3c-6.213,-0.027 -11.31,-5.147 -11.31,-11.36c0,-6.232 5.128,-11.36 11.36,-11.36c6.232,0 11.36,5.128 11.36,11.36c-0.016,6.245 -5.165,11.371 -11.41,11.36Z" style="fill:rgb(84,142,171);fill-rule:nonzero;"/>        </g>        <g id="_4f33ce5c-c8e0-4925-88bd-02c7e706a7b2" transform="matrix(5.7108,0,0,5.7108,-1205.99,-603.369)">            <path d="M104,172.44c-6.213,-0.027 -11.31,-5.147 -11.31,-11.36c0,-6.232 5.128,-11.36 11.36,-11.36c6.232,0 11.36,5.128 11.36,11.36c-0.016,6.245 -5.165,11.371 -11.41,11.36Z" style="fill:rgb(0,66,95);fill-rule:nonzero;"/>        </g>    </g></svg>