<?xml version="1.0" encoding="UTF-8" standalone="no"?><!DOCTYPE svg PUBLIC "-//W3C//DTD SVG 1.1//EN" "http://www.w3.org/Graphics/SVG/1.1/DTD/svg11.dtd"><svg width="100%" height="100%" viewBox="0 0 1024 512" version="1.1" xmlns="http://www.w3.org/2000/svg" xmlns:xlink="http://www.w3.org/1999/xlink" xml:space="preserve" style="fill-rule:evenodd;clip-rule:evenodd;stroke-linejoin:round;stroke-miterlimit:2;"><title>neocredit</title><desc>neocredit.ch AG is a Crowdlending platform specialised in business loans to Swiss SMEs. Thanks to the simple, fast and transparent process, SMEs can easily finance their projects. neocredit.ch AG is the only Swiss Crowdlending platform uniting two strong partners: Vaudoise Insurance and Credit.fr, a leading French crowdlending platform.</desc>    <g transform="matrix(1.28983,0,0,1.28983,-4.29439,158.731)">        <g>            <path d="M188.63,71.73c12.2,0 25.6,5.02 25.6,30.74l0,36.12l-10.64,0l0,-31.58c0,-13.03 -2.39,-24.76 -16.15,-24.76c-11.36,0 -18.66,9.69 -21.17,16.74l0,39.59l-10.64,0l0,-65.18l9.69,0l0.95,11.36c4.9,-6.94 11.48,-13.03 22.36,-13.03Z" style="fill:rgb(3,44,92);fill-rule:nonzero;"/>            <path d="M285.03,104.98l0,2.99l-49.16,0c0,11.84 9.09,21.77 20.33,21.77c9.21,0 14.95,-2.99 18.42,-8.13l8.25,6.34c-5.14,7.42 -14.47,12.44 -26.67,12.44c-18.78,0 -30.98,-15.91 -30.98,-34.21c0,-19.14 12.08,-34.45 30.98,-34.45c16.87,0 28.83,14.23 28.83,33.25Zm-48.8,-6.7l38.15,0c-2.39,-9.81 -9.45,-16.15 -18.18,-16.15c-10.04,0 -17.69,6.34 -19.97,16.15Z" style="fill:rgb(3,44,92);fill-rule:nonzero;"/>            <path d="M326.53,71.73c18.9,0 34.09,15.43 34.09,34.33c0,18.9 -15.19,34.2 -34.09,34.2c-18.9,0 -33.97,-15.31 -33.97,-34.2c0,-18.9 15.07,-34.33 33.97,-34.33Zm0,57.88c13.04,0 23.44,-10.52 23.44,-23.56c0,-13.04 -10.4,-23.92 -23.44,-23.92c-13.04,0 -23.32,10.88 -23.32,23.92c0,13.04 10.28,23.56 23.32,23.56Z" style="fill:rgb(3,44,92);fill-rule:nonzero;"/>        </g>        <path d="M402.6,133.8c8.25,0 14.95,-3.47 19.5,-9.21l5.02,3.94c-5.62,7.18 -14.23,11.72 -24.52,11.72c-18.9,0 -33.85,-15.31 -33.85,-34.2c0,-19.02 14.95,-34.33 33.85,-34.33c9.45,0 17.58,4.07 23.2,10.52l-5.02,3.95c-4.43,-4.9 -10.76,-8.01 -18.18,-8.01c-15.43,0 -27.51,12.56 -27.51,27.87c0,15.43 12.08,27.75 27.51,27.75Z" style="fill:rgb(3,44,92);fill-rule:nonzero;"/>        <path d="M445.9,85.84c3.47,-5.74 11.36,-14.23 22.96,-14.23l0,7.18c-10.88,0 -19.61,9.21 -22.96,16.51l0,43.3l-6.46,0l0,-65.2l5.98,0l0.48,12.44Z" style="fill:rgb(3,44,92);fill-rule:nonzero;"/>        <path d="M478.91,106.17c0,15.43 9.21,27.63 24.64,27.63c8.49,0 17.94,-3.94 21.41,-10.05l4.91,3.95c-4.66,7.53 -15.79,12.56 -26.31,12.56c-18.9,0 -30.98,-15.31 -30.98,-34.2c0,-19.02 11.96,-34.33 30.86,-34.33c18.78,0 28.47,15.67 28.58,34.45l-53.11,0l0,-0.01Zm0.47,-6.46l45.81,0c-1.79,-12.2 -8.73,-21.53 -21.77,-21.53c-13.27,0 -21.88,9.21 -24.04,21.53Z" style="fill:rgb(3,44,92);fill-rule:nonzero;"/>        <path d="M573.87,71.73c9.69,0 19.61,5.26 24.52,14.11l0,-36.96l6.46,0l0,89.7l-5.86,0l-0.48,-12.44c-4.9,8.85 -14.95,14.11 -24.64,14.11c-18.9,0 -32.65,-14.11 -32.65,-34.2c0,-19.97 13.75,-34.32 32.65,-34.32Zm-0.84,6.45c-15.31,0 -25.6,12.8 -25.6,27.99c0,15.31 10.29,27.63 25.6,27.63c15.31,0 25.6,-12.32 25.6,-27.63c0,-15.19 -11.12,-27.99 -25.6,-27.99Z" style="fill:rgb(3,44,92);fill-rule:nonzero;"/>        <path d="M624.03,51.58c3.14,0 5.57,2.43 5.57,5.57c0,3.14 -2.43,5.42 -5.57,5.42c-3.14,0 -5.42,-2.28 -5.42,-5.42c-0.01,-3.14 2.28,-5.57 5.42,-5.57Zm3.24,21.82l0,65.19l-6.46,0l0,-65.19l6.46,0Z" style="fill:rgb(3,44,92);fill-rule:nonzero;"/>        <path d="M653.76,58.45l0,14.95l20.22,0l0,6.46l-20.22,0l0,42.46c0,8.25 4.91,11.6 9.69,11.6c4.55,0 6.22,-1.32 8.61,-4.07c2.27,1.67 3.71,2.99 5.5,4.3c-3.94,4.3 -7.89,6.34 -13.87,6.34c-8.97,0 -16.38,-5.5 -16.38,-16.86l0,-43.77l-8.49,0l0,-6.46l8.49,0l0,-14.95l6.45,0Z" style="fill:rgb(3,44,92);fill-rule:nonzero;"/>        <path d="M693.38,129.5c3.14,0 5.57,2.43 5.57,5.57c0,3.14 -2.43,5.43 -5.57,5.43c-3.14,0 -5.42,-2.29 -5.42,-5.43c0,-3.14 2.28,-5.57 5.42,-5.57Z" style="fill:rgb(3,44,92);fill-rule:nonzero;"/>        <path d="M731.55,135.98c5.78,0 10.47,-2.43 13.65,-6.45l3.52,2.76c-3.94,5.02 -9.96,8.2 -17.16,8.2c-13.23,0 -23.69,-10.72 -23.69,-23.94c0,-13.31 10.47,-24.03 23.69,-24.03c6.61,0 12.31,2.85 16.24,7.37l-3.52,2.76c-3.1,-3.43 -7.53,-5.61 -12.73,-5.61c-10.8,0 -19.26,8.79 -19.26,19.51c0,10.8 8.46,19.43 19.26,19.43Z" style="fill:rgb(3,44,92);fill-rule:nonzero;"/>        <path d="M762.11,101.66c1.59,-2.93 8.2,-9.96 16.91,-9.96c8.46,0 16.66,3.52 16.66,21.43l0,25.45l-4.52,0l0,-22.02c0,-10.38 -0.42,-20.34 -12.98,-20.34c-7.45,0 -13.81,7.28 -16.08,12.31l0,30.06l-4.52,0l0,-62.8l4.52,0l0,25.87l0.01,0Z" style="fill:rgb(3,44,92);fill-rule:nonzero;"/>        <g transform="matrix(1.01489,0,0,1.01489,-0.0726676,-0.153729)">            <path d="M71.7,74.82l-26.44,-36.15c-0.02,-0.02 -0.04,-0.03 -0.06,-0.05c0.78,0.9 1.27,2.07 1.27,3.39l0,63.03l26.29,31.49l0.01,0.01c-0.67,-0.88 -1.07,-1.97 -1.07,-3.16l0,-58.56Z" style="fill:rgb(65,123,187);fill-rule:nonzero;"/>            <path d="M4.89,53.3c0,0.02 -0.01,0.04 -0.01,0.07l0,80.02c0,2.87 2.33,5.2 5.2,5.2l31.19,0c2.87,0 5.2,-2.33 5.2,-5.2l0,-28.34l-40.37,-48.34c-0.85,-1.01 -1.22,-2.22 -1.21,-3.41Z" style="fill:rgb(155,204,237);fill-rule:nonzero;"/>            <path d="M45.2,38.63c-0.31,-0.36 -0.67,-0.67 -1.05,-0.92c-0.12,-0.08 -0.26,-0.14 -0.4,-0.21c-0.29,-0.16 -0.59,-0.29 -0.9,-0.39c-0.16,-0.05 -0.31,-0.09 -0.48,-0.13c-0.33,-0.07 -0.66,-0.1 -0.99,-0.11c-0.15,0 -0.29,-0.02 -0.44,-0.01c-0.45,0.03 -0.89,0.11 -1.33,0.26c-0.04,0.01 -0.08,0.01 -0.12,0.03l-31.19,11.34c-0.48,0.18 -0.92,0.43 -1.31,0.72c-0.09,0.07 -0.17,0.15 -0.26,0.23c-0.28,0.24 -0.54,0.51 -0.76,0.8c-0.09,0.11 -0.17,0.23 -0.24,0.35c-0.19,0.3 -0.35,0.62 -0.47,0.96c-0.04,0.12 -0.1,0.23 -0.14,0.35c-0.13,0.45 -0.21,0.92 -0.22,1.41c-0.02,1.19 0.36,2.39 1.21,3.4l40.37,48.34l0,-63.03c-0.01,-1.33 -0.5,-2.5 -1.28,-3.39Z" style="fill:rgb(118,176,223);fill-rule:nonzero;"/>            <path d="M113.29,133.39l0,-117.86c0,-3.61 -3.59,-6.12 -6.98,-4.89l-31.19,11.36c-2.05,0.75 -3.42,2.7 -3.42,4.88l0,47.94l40.37,55.19c0.41,0.48 0.9,1.6 0.9,1.6c0,0 0.32,0.9 0.32,1.78Z" style="fill:rgb(155,204,237);fill-rule:nonzero;"/>            <path d="M113.29,133.39c0,-0.88 -0.31,-1.78 -0.31,-1.78c0,0 -0.49,-1.12 -0.9,-1.6l-40.38,-55.19l0,58.57c0,1.19 0.4,2.29 1.07,3.16c0.47,0.62 1.08,1.12 1.78,1.48c0.7,0.36 1.5,0.56 2.34,0.56l31.19,0c1.5,0 2.86,-0.64 3.81,-1.66c0.87,-0.93 1.39,-2.17 1.4,-3.54Z" style="fill:rgb(118,176,223);fill-rule:nonzero;"/>        </g>    </g></svg>