<?xml version="1.0" encoding="UTF-8" standalone="no"?><!DOCTYPE svg PUBLIC "-//W3C//DTD SVG 1.1//EN" "http://www.w3.org/Graphics/SVG/1.1/DTD/svg11.dtd"><svg width="100%" height="100%" viewBox="0 0 1024 512" version="1.1" xmlns="http://www.w3.org/2000/svg" xmlns:xlink="http://www.w3.org/1999/xlink" xml:space="preserve" style="fill-rule:evenodd;clip-rule:evenodd;stroke-linejoin:round;stroke-miterlimit:2;"><title>Primo Invest</title><desc>Being prominent members of the financing scene in real estate development and financing since 1999, the board of the company accumulated vast experience and expertize in this field.SIA “Primo Invest” was founded in 2017 with a goal of financing short and medium term real estate investment projects. We’re proud to invest and support wooden real estate development in Norway, with our overall commitment surpassing a million euro. Our other project include large scale real estate development in Belarus.</desc>    <g transform="matrix(5.39683,0,0,5.39683,-704.984,-1071.62)">        <path d="M185,267l-36,0l0,13l-18,0l0,-68l54,0l0,55Zm-41,-37l-8,0l0,45l8,0l0,-45Zm5,24l0,8l31,0l0,-8l-31,0Zm0,-24l0,19l18,0l0,-19l-18,0Zm31,-13l-8,0l0,31.703l8,0l0,-31.703Zm-31,8l18,0l0,-8l-31,0l0,8l13,0l0,0Z" style="fill:rgb(0,62,203);"/>        <g transform="matrix(1.67336,0,0,1.90644,-203.245,-370.937)">            <g transform="matrix(18.8444,0,0,16.5405,239,318.308)">                <path d="M0.379,-0.705c0.037,0 0.07,0.006 0.1,0.018c0.029,0.012 0.055,0.028 0.077,0.049c0.021,0.021 0.038,0.047 0.05,0.077c0.012,0.03 0.018,0.064 0.018,0.1c0,0.036 -0.007,0.069 -0.019,0.099c-0.012,0.03 -0.029,0.055 -0.052,0.077c-0.022,0.021 -0.048,0.037 -0.079,0.049c-0.031,0.011 -0.065,0.017 -0.102,0.017l-0.139,0l0,0.219l-0.148,0l0,-0.705l0.294,0Zm-0.146,0.367l0.107,0c0.042,0 0.075,-0.011 0.099,-0.032c0.023,-0.02 0.035,-0.051 0.035,-0.09c0,-0.041 -0.012,-0.071 -0.035,-0.092c-0.023,-0.021 -0.056,-0.031 -0.099,-0.031l-0.107,0l0,0.245Z" style="fill:rgb(0,62,203);fill-rule:nonzero;"/>            </g>            <g transform="matrix(18.8444,0,0,16.5405,251.698,318.308)">                <path d="M0.233,-0.369l0.129,0c0.038,0 0.067,-0.009 0.087,-0.028c0.021,-0.019 0.031,-0.045 0.031,-0.08c0,-0.016 -0.003,-0.031 -0.008,-0.045c-0.006,-0.013 -0.014,-0.025 -0.024,-0.034c-0.01,-0.01 -0.023,-0.017 -0.038,-0.022c-0.014,-0.005 -0.031,-0.007 -0.049,-0.007l-0.128,0l0,0.216Zm0,0.369l-0.148,0l0,-0.705l0.296,0c0.039,0 0.074,0.006 0.105,0.016c0.031,0.01 0.057,0.025 0.078,0.045c0.022,0.019 0.038,0.043 0.05,0.071c0.012,0.028 0.017,0.059 0.017,0.094c0,0.023 -0.003,0.045 -0.008,0.065c-0.006,0.021 -0.014,0.04 -0.025,0.057c-0.011,0.018 -0.024,0.033 -0.04,0.046c-0.016,0.014 -0.034,0.025 -0.055,0.033l0.149,0.278l-0.167,0l-0.131,-0.255l-0.121,0l0,0.255Z" style="fill:rgb(0,62,203);fill-rule:nonzero;"/>            </g>            <g transform="matrix(18.8444,0,0,16.5405,264.782,318.308)">                <rect x="0.085" y="-0.705" width="0.147" height="0.705" style="fill:rgb(0,62,203);fill-rule:nonzero;"/>            </g>            <g transform="matrix(18.8444,0,0,16.5405,270.782,318.308)">                <path d="M0.085,0l0,-0.705l0.174,0l0.195,0.474l0.009,0l0.195,-0.474l0.174,0l0,0.705l-0.137,0l0,-0.471l-0.008,0l-0.179,0.43l-0.098,0l-0.18,-0.43l-0.008,0l0,0.471l-0.137,0Z" style="fill:rgb(0,62,203);fill-rule:nonzero;"/>            </g>            <g transform="matrix(18.8444,0,0,16.5405,288.062,318.308)">                <path d="M0.394,-0.723c0.052,0 0.099,0.009 0.14,0.026c0.042,0.017 0.077,0.042 0.107,0.074c0.029,0.032 0.051,0.071 0.067,0.116c0.016,0.046 0.024,0.097 0.024,0.154c0,0.058 -0.008,0.109 -0.024,0.155c-0.015,0.046 -0.038,0.085 -0.067,0.116c-0.029,0.032 -0.065,0.057 -0.107,0.074c-0.041,0.017 -0.088,0.026 -0.14,0.026c-0.053,0 -0.1,-0.009 -0.142,-0.026c-0.042,-0.017 -0.077,-0.042 -0.106,-0.074c-0.03,-0.031 -0.052,-0.07 -0.068,-0.116c-0.016,-0.046 -0.024,-0.097 -0.024,-0.155c0,-0.057 0.008,-0.108 0.024,-0.154c0.016,-0.045 0.039,-0.084 0.068,-0.116c0.03,-0.032 0.065,-0.057 0.107,-0.074c0.042,-0.017 0.089,-0.026 0.141,-0.026Zm0,0.13c-0.029,0 -0.055,0.005 -0.078,0.017c-0.023,0.011 -0.043,0.027 -0.059,0.048c-0.017,0.021 -0.03,0.046 -0.038,0.076c-0.009,0.029 -0.014,0.063 -0.014,0.099c0,0.037 0.004,0.07 0.013,0.1c0.009,0.03 0.022,0.055 0.038,0.076c0.016,0.021 0.036,0.037 0.059,0.049c0.023,0.011 0.05,0.017 0.079,0.017c0.028,0 0.054,-0.006 0.077,-0.017c0.023,-0.012 0.043,-0.028 0.06,-0.049c0.016,-0.021 0.029,-0.046 0.037,-0.076c0.009,-0.03 0.014,-0.063 0.014,-0.1c0,-0.036 -0.005,-0.07 -0.014,-0.099c-0.008,-0.03 -0.021,-0.055 -0.037,-0.076c-0.017,-0.021 -0.037,-0.037 -0.06,-0.048c-0.023,-0.012 -0.049,-0.017 -0.077,-0.017Z" style="fill:rgb(0,62,203);fill-rule:nonzero;"/>            </g>            <g transform="matrix(18.8444,0,0,16.5405,239,334.679)">                <rect x="0.085" y="-0.705" width="0.147" height="0.705" style="fill:rgb(0,62,203);fill-rule:nonzero;"/>            </g>            <g transform="matrix(18.8444,0,0,16.5405,245.597,334.679)">                <path d="M0.085,0l0,-0.705l0.123,0l0.325,0.439l0.009,0l0,-0.439l0.141,0l0,0.705l-0.122,0l-0.326,-0.441l-0.008,0l0,0.441l-0.142,0Z" style="fill:rgb(0,62,203);fill-rule:nonzero;"/>            </g>            <g transform="matrix(18.8444,0,0,16.5405,261.266,334.679)">                <path d="M0.273,0l-0.238,-0.705l0.167,0l0.16,0.539l0.009,0l0.157,-0.539l0.159,0l-0.235,0.705l-0.179,0Z" style="fill:rgb(0,62,203);fill-rule:nonzero;"/>            </g>            <g transform="matrix(18.8444,0,0,16.5405,275.454,334.679)">                <path d="M0.552,0l-0.467,0l0,-0.705l0.467,0l0,0.126l-0.319,0l0,0.165l0.301,0l0,0.117l-0.301,0l0,0.171l0.319,0l0,0.126Z" style="fill:rgb(0,62,203);fill-rule:nonzero;"/>            </g>            <g transform="matrix(18.8444,0,0,16.5405,288.372,334.679)">                <path d="M0.196,-0.196c0.002,0.015 0.007,0.027 0.014,0.039c0.008,0.012 0.019,0.021 0.031,0.03c0.013,0.008 0.028,0.014 0.046,0.018c0.017,0.005 0.036,0.007 0.057,0.007c0.019,0 0.037,-0.002 0.052,-0.007c0.016,-0.004 0.03,-0.01 0.042,-0.018c0.011,-0.008 0.02,-0.018 0.027,-0.029c0.006,-0.011 0.01,-0.023 0.01,-0.036c0,-0.011 -0.003,-0.022 -0.007,-0.031c-0.005,-0.009 -0.012,-0.017 -0.022,-0.024c-0.009,-0.007 -0.022,-0.014 -0.038,-0.019c-0.015,-0.006 -0.033,-0.011 -0.055,-0.016l-0.092,-0.019c-0.127,-0.027 -0.191,-0.094 -0.191,-0.201c0,-0.034 0.006,-0.064 0.019,-0.091c0.013,-0.027 0.031,-0.05 0.055,-0.069c0.023,-0.02 0.051,-0.035 0.085,-0.045c0.033,-0.01 0.07,-0.016 0.11,-0.016c0.039,0 0.075,0.006 0.107,0.016c0.033,0.01 0.061,0.025 0.085,0.044c0.024,0.018 0.042,0.041 0.056,0.067c0.014,0.026 0.021,0.054 0.022,0.086l-0.139,0c-0.001,-0.014 -0.006,-0.027 -0.013,-0.038c-0.007,-0.012 -0.016,-0.021 -0.028,-0.03c-0.011,-0.008 -0.024,-0.014 -0.039,-0.018c-0.015,-0.005 -0.032,-0.007 -0.05,-0.007c-0.018,0 -0.035,0.002 -0.05,0.006c-0.015,0.004 -0.028,0.01 -0.039,0.018c-0.01,0.007 -0.019,0.017 -0.024,0.027c-0.006,0.011 -0.009,0.024 -0.009,0.037c0,0.022 0.009,0.039 0.027,0.053c0.018,0.013 0.048,0.024 0.089,0.033l0.085,0.018c0.035,0.007 0.066,0.017 0.091,0.028c0.026,0.012 0.047,0.026 0.063,0.042c0.017,0.016 0.029,0.035 0.037,0.057c0.008,0.021 0.012,0.046 0.012,0.073c0,0.036 -0.007,0.067 -0.02,0.096c-0.013,0.028 -0.032,0.052 -0.057,0.072c-0.025,0.019 -0.055,0.035 -0.09,0.045c-0.035,0.011 -0.075,0.016 -0.119,0.016c-0.042,0 -0.08,-0.005 -0.114,-0.015c-0.035,-0.01 -0.064,-0.024 -0.088,-0.043c-0.025,-0.018 -0.044,-0.041 -0.058,-0.067c-0.013,-0.026 -0.021,-0.056 -0.022,-0.089l0.142,0Z" style="fill:rgb(0,62,203);fill-rule:nonzero;"/>            </g>            <g transform="matrix(18.8444,0,0,16.5405,301.097,334.679)">                <path d="M0.256,0l0,-0.579l-0.211,0l0,-0.126l0.57,0l0,0.126l-0.211,0l0,0.579l-0.148,0Z" style="fill:rgb(0,62,203);fill-rule:nonzero;"/>            </g>        </g>    </g></svg>