<?xml version="1.0" encoding="UTF-8" standalone="no"?><!DOCTYPE svg PUBLIC "-//W3C//DTD SVG 1.1//EN" "http://www.w3.org/Graphics/SVG/1.1/DTD/svg11.dtd"><svg width="100%" height="100%" viewBox="0 0 1024 512" version="1.1" xmlns="http://www.w3.org/2000/svg" xmlns:xlink="http://www.w3.org/1999/xlink" xml:space="preserve" style="fill-rule:evenodd;clip-rule:evenodd;stroke-linejoin:round;stroke-miterlimit:2;"><title>Fundeen</title><desc>Fundeen is the first crowdfunding platform authorized by the CNMV that allows:People to invest in renewable energy projects, until now reserved for large electricity companies and investment funds,Renewable energy projects to get finance without having to go to a bank or an investment fund.</desc>    <g transform="matrix(0.782689,0,0,0.782689,-98.5755,18.9627)">        <g>            <path id="f_6_" d="M635.5,292.6l-14.1,0l0,-24.3l14.2,0l0,-3.4c0,-37.6 30.8,-42.5 46.8,-42.5c5.9,0 9.7,0.7 9.7,0.7l0,24.1c0,0 -2.5,-0.4 -5.9,-0.4c-8.1,0 -22.1,2.3 -22.1,18.9l0,2.7l24.5,0l0,24.3l-24.6,0l0.1,90.5l-28.6,0l0,-90.6Z" style="fill:rgb(0,51,51);fill-rule:nonzero;"/>            <path id="u_6_" d="M707.2,297.5c0,-3.4 -1.8,-5 -5,-5l-9,0l0,-24.3l27.2,0c10.6,0 15.1,4.7 15.1,15.1l0,52.9c0,14 3.6,22.5 17.8,22.5c20.7,0 32.2,-17.3 32.2,-37.8l0,-52.7l28.6,0l0,85.8c0,3.2 1.8,5 5,5l9,0l0,24.1l-26.3,0c-9.9,0 -15.1,-4.7 -15.1,-12.8l0,-3.2l0,-5.2c-5.4,11.9 -20,21.2 -39.8,21.2c-24.5,0 -39.6,-9.7 -39.6,-41l0,-44.6l-0.1,0Z" style="fill:rgb(0,51,51);fill-rule:nonzero;"/>            <path id="n_12_" d="M832.1,297.5c0,-3.4 -1.8,-5 -5,-5l-9,0l0,-24.3l26.3,0c10.1,0 15.1,4.7 15.1,12.8l0,8.4c5,-9.7 17.3,-21.2 40.5,-21.2c25.4,0 40.1,10.6 40.1,41l0,44.8c0,3.2 1.8,5 5,5l9,0l0,24.1l-27.2,0c-10.8,0 -15.3,-4.5 -15.3,-15.3l0,-52.7c0,-14 -3.6,-22.5 -18,-22.5c-15.3,0 -26.8,8.8 -30.8,22.5c-1.6,4.7 -2.3,9.9 -2.3,15.3l0,52.7l-28.4,0l0,-85.6Z" style="fill:rgb(0,51,51);fill-rule:nonzero;"/>            <path id="d_6_" d="M1003.1,268.3c25,0 33.3,13.9 33.3,13.9l0,-5.4l0,-6.7l0,-18.5c0,-3.4 -1.8,-4.9 -5,-4.9l-9,0l0,-24.3l27.2,0c10.6,0 15.3,4.7 15.3,15.3l0,116.1c0,3.2 1.8,5 5,5l8.8,0l0,24.3l-25.9,0c-10.4,0 -16,-7.7 -16,-14.4l0,-4.3c0,0 -8.6,18.7 -34.9,18.7c-31.1,0 -51.1,-21.9 -51.1,-57.4c0.1,-36.6 21.9,-57.4 52.3,-57.4Zm32.6,57.3c0,-17.8 -8.6,-33 -27.7,-33c-15.8,0 -28.1,10.3 -28.1,33c0,21.8 11.9,33.1 28.8,33.1c14.9,0.1 27,-7.7 27,-33.1Z" style="fill:rgb(0,51,51);fill-rule:nonzero;"/>            <path id="e_12_" d="M1131.6,268.3c32.9,0 50.9,21.4 50.9,51.8c0,3.4 -0.7,10.6 -0.7,10.6l-79.2,0c2.3,20.3 17.1,28.1 34.4,28.1c18.5,0 32.2,-12.8 32.2,-12.8l11.9,19.8c0,0 -17.6,17.3 -46.1,17.3c-38,0 -61.7,-24.8 -61.7,-57.4c0,-35.4 23.9,-57.4 58.3,-57.4Zm22.8,45.2c-0.5,-13.7 -11,-22.2 -22.7,-22.2c-14.6,0 -25,7.8 -28.1,22.2l50.8,0Z" style="fill:rgb(0,153,51);fill-rule:nonzero;"/>            <path id="e_11_" d="M1245.3,268.3c32.9,0 50.9,21.4 50.9,51.8c0,3.4 -0.7,10.6 -0.7,10.6l-79.2,0c2.3,20.3 17.1,28.1 34.4,28.1c18.5,0 32.2,-12.8 32.2,-12.8l11.9,19.8c0,0 -17.6,17.3 -46.1,17.3c-38,0 -61.7,-24.8 -61.7,-57.4c0,-35.4 23.8,-57.4 58.3,-57.4Zm22.7,45.2c-0.5,-13.7 -11,-22.2 -22.7,-22.2c-14.6,0 -25,7.8 -28.1,22.2l50.8,0Z" style="fill:rgb(0,153,51);fill-rule:nonzero;"/>            <path id="n_11_" d="M1309.7,297.5c0,-3.4 -1.8,-5 -5,-5l-9,0l0,-24.3l26.3,0c10.1,0 15.1,4.7 15.1,12.8l0,8.4c5,-9.7 17.3,-21.2 40.5,-21.2c25.4,0 40.1,10.6 40.1,41l0,44.8c0,3.2 1.8,5 5,5l9,0l0,24.1l-27.2,0c-10.8,0 -15.3,-4.5 -15.3,-15.3l0,-52.7c0,-14 -3.6,-22.5 -18,-22.5c-15.3,0 -26.8,8.8 -30.8,22.5c-1.6,4.7 -2.3,9.9 -2.3,15.3l0,52.7l-28.4,0l0,-85.6Z" style="fill:rgb(0,153,51);fill-rule:nonzero;"/>        </g>        <path d="M284.6,271.2c-20.6,0 -37.5,16.9 -37.5,37.5l0,108.6c0,20.6 16.9,37.5 37.5,37.5c20.6,0 37.5,-16.9 37.5,-37.5l0,-108.6c0,-20.6 -16.9,-37.5 -37.5,-37.5Z" style="fill:rgb(0,153,51);fill-rule:nonzero;"/>        <path d="M166,222.8c-20.6,0 -37.5,16.9 -37.5,37.5l0,108.6c0,20.6 16.9,37.5 37.5,37.5c20.6,0 37.5,-16.9 37.5,-37.5l0,-108.6c0,-20.6 -16.9,-37.5 -37.5,-37.5Z" style="fill:rgb(0,51,51);fill-rule:nonzero;"/>        <path d="M521.8,106.2c-20.6,0 -37.5,16.9 -37.5,37.5l0,225.1c0,20.6 16.9,37.5 37.5,37.5c20.6,0 37.5,-16.9 37.5,-37.5l0,-225.1c0,-20.6 -16.8,-37.5 -37.5,-37.5Z" style="fill:rgb(255,166,0);fill-rule:nonzero;"/>        <path d="M403.2,199.4c-20.6,0 -37.5,16.9 -37.5,37.5l0,225.1c0,20.6 16.9,37.5 37.5,37.5c20.6,0 37.5,-16.9 37.5,-37.5l0,-225.1c0,-20.6 -16.9,-37.5 -37.5,-37.5Z" style="fill:rgb(205,205,205);fill-rule:nonzero;"/>    </g></svg>