<?xml version="1.0" encoding="UTF-8" standalone="no"?><!DOCTYPE svg PUBLIC "-//W3C//DTD SVG 1.1//EN" "http://www.w3.org/Graphics/SVG/1.1/DTD/svg11.dtd"><svg width="100%" height="100%" viewBox="0 0 1024 512" version="1.1" xmlns="http://www.w3.org/2000/svg" xmlns:xlink="http://www.w3.org/1999/xlink" xml:space="preserve" style="fill-rule:evenodd;clip-rule:evenodd;stroke-linejoin:round;stroke-miterlimit:2;"><title>Funding Empire</title><desc>We are an online platform that connects new and existing businesses seeking loans, with individuals who want to lend their money out and get better returns. We provide an exciting and interactive platform to enable this to take place, where lenders and borrowers get a better deal with minimal delays.</desc>    <g transform="matrix(0.614823,0,0,0.614823,-42.0841,36.5582)">        <g transform="matrix(1,0,0,1,0.581192,0)">            <path d="M510.736,409.8c0.713,2.278 1.079,4.594 1.079,6.94c0,34.455 -78.984,62.429 -176.271,62.429c-97.287,0 -176.271,-27.974 -176.271,-62.429c0,-2.346 0.366,-4.662 1.079,-6.94c9.763,24.953 84.53,44.384 175.192,44.384c90.662,0 165.429,-19.431 175.192,-44.384Zm-175.192,-55.488c0,0 0,0 0,0Z" style="fill:url(#_Linear1);"/>            <g transform="matrix(1,0,0,1,0,43.4651)">                <path d="M510.736,409.8c0.713,2.278 1.079,4.594 1.079,6.94c0,34.455 -78.984,62.429 -176.271,62.429c-97.287,0 -176.271,-27.974 -176.271,-62.429c0,-2.346 0.366,-4.662 1.079,-6.94c9.763,24.953 84.53,44.384 175.192,44.384c90.662,0 165.429,-19.431 175.192,-44.384Zm-175.192,-55.488c0,0 0,0 0,0Z" style="fill:url(#_Linear2);"/>            </g>            <g transform="matrix(1,0,0,1,0,91.9227)">                <path d="M510.736,399.8c0.713,2.278 1.079,4.594 1.079,6.94c0,34.455 -78.984,72.429 -176.271,72.429c-97.287,0 -176.271,-37.974 -176.271,-72.429c0,-2.346 0.366,-4.662 1.079,-6.94c9.763,24.953 84.53,54.384 175.192,54.384c90.662,0 165.429,-29.431 175.192,-54.384Zm-175.192,-45.488c0,0 0,0 0,0Z" style="fill:url(#_Linear3);"/>            </g>            <path d="M334.86,113.146c11.4,-0.186 21.961,5.791 25.312,17.212c3.051,10.396 2.232,21.57 -5.4,28.297l0.049,0.044c0.191,-0.061 0.383,-0.12 0.576,-0.176c14.309,-4.199 26.929,3.461 31.128,17.771c4.198,14.31 -5,28.363 -14.654,32.242c-9.35,3.757 -20.924,1.85 -27.687,-4.698c-7.127,36.675 16.82,73.933 37.594,79.153c17.135,4.307 35.704,-2.317 53.475,-18.624c-0.843,0.113 -1.703,0.172 -2.576,0.172c-10.595,0 -19.197,-8.603 -19.197,-19.198c0,-10.595 8.602,-19.197 19.197,-19.197c4.324,0 8.316,1.432 11.526,3.848c-1.353,-2.628 -2.117,-5.61 -2.117,-8.768c0,-10.595 9.265,-17.826 19.86,-17.826c10.596,0 18.534,7.231 18.534,17.826c0,7.733 -4.582,16.405 -11.179,19.445c0.181,-0.005 0.361,-0.007 0.542,-0.007c10.596,0 17.796,8.568 17.796,19.163c0,10.595 -8.235,19.055 -18.83,19.055c-6.778,0 -11.706,-5.344 -15.121,-10.653c2.719,25.578 11.016,45.559 28.951,51.928c19.454,6.91 48.14,-4.913 67.381,-26.351c-1.42,-3.79 -3.979,-12.284 -3.979,-16.568c0,-19.179 9.736,-28.358 28.916,-28.358c10.036,0 17.295,6.776 23.642,13.591c-11.16,6.741 -15.231,11.966 -25.095,22.131l0,0c-1.003,1.034 -14.828,17.013 -18.739,22.409l-0.001,-0.001c-19.781,27.287 -35.459,61.798 -45.369,100.91c-2.947,-24.401 -79.923,-43.992 -174.535,-44.145c-94.612,0.153 -171.588,19.744 -174.535,44.145c-9.91,-39.112 -25.588,-73.623 -45.369,-100.91l-0.001,0.001c-3.911,-5.396 -17.736,-21.375 -18.739,-22.409l0.001,0c-9.865,-10.165 -13.936,-15.39 -25.096,-22.131c6.347,-6.815 13.606,-13.591 23.642,-13.591c19.18,0 28.916,9.179 28.916,28.358c0,4.284 -2.559,12.778 -3.979,16.568c19.241,21.438 47.927,33.261 67.381,26.351c17.935,-6.369 26.232,-26.35 28.951,-51.928c-3.415,5.309 -8.343,10.653 -15.121,10.653c-10.595,0 -18.83,-8.46 -18.83,-19.055c0,-10.595 7.2,-19.163 17.796,-19.163c0.181,0 0.361,0.002 0.542,0.007c-6.597,-3.04 -11.179,-11.712 -11.179,-19.445c0,-10.595 7.938,-17.826 18.534,-17.826c10.595,0 19.86,7.231 19.86,17.826c0,3.158 -0.764,6.14 -2.117,8.768c3.21,-2.416 7.202,-3.848 11.526,-3.848c10.595,0 19.197,8.602 19.197,19.197c0,10.595 -8.602,19.198 -19.197,19.198c-0.873,0 -1.733,-0.059 -2.576,-0.172c17.771,16.307 36.34,22.931 53.475,18.624c20.774,-5.22 44.721,-42.478 37.594,-79.153c-6.763,6.548 -18.337,8.455 -27.687,4.698c-9.654,-3.879 -18.852,-17.932 -14.654,-32.242c4.199,-14.31 16.819,-21.97 31.128,-17.771c0.193,0.056 0.385,0.115 0.576,0.176l0.049,-0.044c-7.632,-6.727 -8.451,-17.901 -5.4,-28.297c0.353,-1.205 0.787,-2.349 1.293,-3.43c-0.088,-0.174 -0.038,-0.266 0.135,-0.284c4.355,-8.996 13.789,-13.662 23.884,-13.498Z" style="fill:url(#_Linear4);"/>        </g>        <g transform="matrix(2.7861,0,0,2.7861,-1890.95,-865.004)">            <g transform="matrix(1,0,0,1,1.01306,1.1607)">                <g transform="matrix(96,0,0,96,918.539,437.194)">                    <path d="M0.099,0l0.131,0l0,-0.287l0.227,0l0,-0.111l-0.227,0l0,-0.201l0.137,0c0.014,0 0.022,0.008 0.022,0.022l0,0.043l0.118,0l0,-0.108c0,-0.047 -0.02,-0.068 -0.068,-0.068l-0.405,0l0,0.111l0.065,0l0,0.599Z" style="fill:rgb(56,16,71);fill-rule:nonzero;"/>                </g>                <g transform="matrix(96,0,0,96,969.035,437.194)">                    <path d="M0.081,-0.182c0,0.139 0.067,0.194 0.176,0.194c0.088,0 0.152,-0.053 0.176,-0.106l0.002,0c0,0 -0.001,0.011 -0.001,0.023l0,0.014c0,0.036 0.023,0.057 0.067,0.057l0.117,0l0,-0.107l-0.04,0c-0.014,0 -0.022,-0.008 -0.022,-0.022l0,-0.381l-0.127,0l0,0.234c0,0.091 -0.051,0.172 -0.143,0.172c-0.063,0 -0.079,-0.042 -0.079,-0.104l0,-0.235c0,-0.046 -0.02,-0.067 -0.067,-0.067l-0.121,0l0,0.108l0.04,0c0.014,0 0.022,0.007 0.022,0.022l0,0.198Z" style="fill:rgb(56,16,71);fill-rule:nonzero;"/>                </g>                <g transform="matrix(96,0,0,96,1030.28,437.194)">                    <path d="M0.083,0l0.126,0l0,-0.234c0,-0.024 0.003,-0.047 0.01,-0.068c0.018,-0.061 0.069,-0.104 0.137,-0.104c0.064,0 0.08,0.042 0.08,0.104l0,0.234c0,0.048 0.02,0.068 0.068,0.068l0.121,0l0,-0.107l-0.04,0c-0.014,0 -0.022,-0.008 -0.022,-0.022l0,-0.199c0,-0.135 -0.065,-0.194 -0.178,-0.194c-0.103,0 -0.158,0.063 -0.18,0.106l-0.002,0c0,0 0.002,-0.011 0.002,-0.022l0,-0.015c0,-0.036 -0.022,-0.057 -0.067,-0.057l-0.117,0l0,0.108l0.04,0c0.014,0 0.022,0.007 0.022,0.022l0,0.38Z" style="fill:rgb(56,16,71);fill-rule:nonzero;"/>                </g>                <g transform="matrix(96,0,0,96,1092.01,437.194)">                    <path d="M0.032,-0.255c0,0.158 0.089,0.267 0.227,0.267c0.117,0 0.159,-0.083 0.159,-0.083l0.002,0l0,0.019c0,0.03 0.017,0.052 0.063,0.052l0.117,0l0,-0.107l-0.039,0c-0.014,0 -0.022,-0.008 -0.022,-0.022l0,-0.513c0,-0.047 -0.021,-0.068 -0.068,-0.068l-0.121,0l0,0.108l0.04,0c0.014,0 0.022,0.007 0.022,0.022l0,0.09c0,0.017 0.001,0.03 0.001,0.03l-0.002,0c0,0 -0.036,-0.062 -0.147,-0.062c-0.135,0 -0.232,0.105 -0.232,0.267Zm0.255,0.16c-0.075,0 -0.126,-0.063 -0.126,-0.16c0,-0.101 0.058,-0.158 0.128,-0.158c0.085,0 0.126,0.078 0.126,0.157c0,0.113 -0.062,0.161 -0.128,0.161Z" style="fill:rgb(56,16,71);fill-rule:nonzero;"/>                </g>                <g transform="matrix(96,0,0,96,1151.72,437.194)">                    <path d="M0.093,-0.593l0.11,0l0,-0.117l-0.11,0l0,0.117Zm-0.006,0.525c0,0.048 0.02,0.068 0.067,0.068l0.121,0l0,-0.107l-0.04,0c-0.014,0 -0.022,-0.008 -0.022,-0.022l0,-0.313c0,-0.047 -0.02,-0.068 -0.067,-0.068l-0.121,0l0,0.108l0.04,0c0.014,0 0.022,0.007 0.022,0.022l0,0.312Z" style="fill:rgb(56,16,71);fill-rule:nonzero;"/>                </g>                <g transform="matrix(96,0,0,96,1180.43,437.194)">                    <path d="M0.083,0l0.126,0l0,-0.234c0,-0.024 0.003,-0.047 0.01,-0.068c0.018,-0.061 0.069,-0.104 0.137,-0.104c0.064,0 0.08,0.042 0.08,0.104l0,0.234c0,0.048 0.02,0.068 0.068,0.068l0.121,0l0,-0.107l-0.04,0c-0.014,0 -0.022,-0.008 -0.022,-0.022l0,-0.199c0,-0.135 -0.065,-0.194 -0.178,-0.194c-0.103,0 -0.158,0.063 -0.18,0.106l-0.002,0c0,0 0.002,-0.011 0.002,-0.022l0,-0.015c0,-0.036 -0.022,-0.057 -0.067,-0.057l-0.117,0l0,0.108l0.04,0c0.014,0 0.022,0.007 0.022,0.022l0,0.38Z" style="fill:rgb(56,16,71);fill-rule:nonzero;"/>                </g>                <g transform="matrix(96,0,0,96,1242.15,437.194)">                    <path d="M0.032,-0.268c0,0.14 0.083,0.258 0.229,0.258c0.068,0 0.112,-0.023 0.142,-0.066l0.002,0c0,0 -0.001,0.015 -0.001,0.027l0,0.024c0,0.092 -0.067,0.125 -0.144,0.125c-0.078,0 -0.141,-0.034 -0.141,-0.034l-0.039,0.1c0.049,0.026 0.117,0.044 0.181,0.044c0.133,0 0.269,-0.066 0.269,-0.241l0,-0.351c0,-0.013 0.009,-0.02 0.022,-0.02l0.039,0l0,-0.108l-0.118,0c-0.04,0 -0.056,0.024 -0.056,0.047l0,0.013l-0.002,0c0,0 -0.039,-0.072 -0.157,-0.072c-0.147,0 -0.226,0.114 -0.226,0.254Zm0.256,0.151c-0.082,0 -0.127,-0.066 -0.127,-0.155c0,-0.086 0.042,-0.142 0.119,-0.142c0.069,0 0.127,0.031 0.127,0.147c0,0.115 -0.058,0.15 -0.119,0.15Z" style="fill:rgb(56,16,71);fill-rule:nonzero;"/>                </g>            </g>            <g transform="matrix(0.624764,0,0,0.624764,505.162,159.481)">                <g transform="matrix(128,0,0,128,674.818,561.429)">                    <path d="M0.318,-0.7l-0.251,0c-0.034,0 -0.067,0.027 -0.067,0.065l0,0.468c0,0.089 0.076,0.167 0.166,0.167l0.152,0l0,-0.083l-0.152,0c-0.046,0 -0.083,-0.039 -0.083,-0.084l0,-0.15l0.225,0l0,-0.083l-0.225,0l0,-0.215l0.235,-0.002l0,-0.083Z" style="fill:rgb(177,77,155);fill-rule:nonzero;"/>                </g>                <g transform="matrix(128,0,0,128,728.45,561.429)">                    <path d="M0.08,-0.328c0,-0.042 0.034,-0.078 0.077,-0.078c0.044,0 0.079,0.036 0.079,0.078l0,0.328l0.08,0l0,-0.328c0,-0.104 0.157,-0.109 0.156,0l0,0.328l0.08,0l0,-0.328c0,-0.089 -0.07,-0.159 -0.156,-0.159c-0.046,0 -0.095,0.018 -0.119,0.08c-0.025,-0.062 -0.078,-0.081 -0.118,-0.08c-0.029,0.001 -0.066,0.014 -0.086,0.053l-0.01,-0.047l-0.063,0l0,0.481l0.08,0l0,-0.328Z" style="fill:rgb(177,77,155);fill-rule:nonzero;"/>                </g>                <g transform="matrix(128,0,0,128,815.106,561.429)">                    <path d="M0.16,-0.49c-0.03,0 -0.065,0.015 -0.083,0.056l-0.016,-0.05l-0.061,0l0,0.682l0.081,0l0,-0.238c0.018,0.033 0.05,0.039 0.077,0.041c0.089,0.007 0.161,-0.073 0.161,-0.154l0,-0.191c0,-0.083 -0.05,-0.146 -0.159,-0.146Zm0.078,0.337c0,0.041 -0.037,0.073 -0.08,0.073c-0.05,0 -0.076,-0.029 -0.077,-0.069l0,-0.19c0,-0.035 0.034,-0.071 0.077,-0.071c0.044,0 0.08,0.026 0.08,0.066l0,0.191Z" style="fill:rgb(177,77,155);fill-rule:nonzero;"/>                </g>                <g transform="matrix(128,0,0,128,868.098,561.429)">                    <path d="M0.045,-0.637c-0.026,0 -0.049,0.02 -0.049,0.051c0,0.029 0.023,0.05 0.049,0.05c0.027,0 0.052,-0.021 0.052,-0.05c0,-0.031 -0.025,-0.051 -0.052,-0.051Zm0.041,0.156l-0.08,0l0,0.481l0.08,0l0,-0.481Z" style="fill:rgb(177,77,155);fill-rule:nonzero;"/>                </g>                <g transform="matrix(128,0,0,128,890.754,561.429)">                    <path d="M0.08,0l0,-0.345c0.008,-0.066 0.08,-0.074 0.127,-0.041l0.028,-0.073c-0.054,-0.043 -0.131,-0.042 -0.159,0.029l-0.009,-0.049l-0.067,0l0,0.479l0.08,0Z" style="fill:rgb(177,77,155);fill-rule:nonzero;"/>                </g>                <g transform="matrix(128,0,0,128,924.546,561.429)">                    <path d="M0.317,-0.328c0,-0.088 -0.072,-0.159 -0.158,-0.159c-0.09,0 -0.159,0.076 -0.159,0.16l0,0.173c0,0.091 0.074,0.158 0.159,0.158c0.046,0 0.106,-0.019 0.149,-0.082l-0.066,-0.048c-0.025,0.035 -0.059,0.049 -0.083,0.049c-0.043,0 -0.078,-0.035 -0.078,-0.077l0,-0.032l0.078,0c0.085,0 0.158,-0.051 0.158,-0.142Zm-0.236,0.079l0,-0.077c0,-0.043 0.035,-0.079 0.078,-0.079c0.042,0 0.077,0.035 0.077,0.077c0,0.043 -0.035,0.079 -0.077,0.079l-0.078,0Z" style="fill:rgb(177,77,155);fill-rule:nonzero;"/>                </g>            </g>        </g>    </g>    <defs>        <linearGradient id="_Linear1" x1="0" y1="0" x2="1" y2="0" gradientUnits="userSpaceOnUse" gradientTransform="matrix(351.674,-5.06657,5.06657,351.674,159.458,460.11)"><stop offset="0" style="stop-color:rgb(110,59,105);stop-opacity:1"/><stop offset="0.25" style="stop-color:rgb(137,57,129);stop-opacity:1"/><stop offset="0.5" style="stop-color:rgb(195,128,182);stop-opacity:1"/><stop offset="1" style="stop-color:rgb(94,38,101);stop-opacity:1"/></linearGradient>        <linearGradient id="_Linear2" x1="0" y1="0" x2="1" y2="0" gradientUnits="userSpaceOnUse" gradientTransform="matrix(351.674,-5.06657,5.06657,351.674,159.458,416.645)"><stop offset="0" style="stop-color:rgb(110,59,105);stop-opacity:1"/><stop offset="0.25" style="stop-color:rgb(137,57,129);stop-opacity:1"/><stop offset="0.5" style="stop-color:rgb(195,128,182);stop-opacity:1"/><stop offset="1" style="stop-color:rgb(94,38,101);stop-opacity:1"/></linearGradient>        <linearGradient id="_Linear3" x1="0" y1="0" x2="1" y2="0" gradientUnits="userSpaceOnUse" gradientTransform="matrix(351.674,-5.06657,5.06657,351.674,159.458,368.188)"><stop offset="0" style="stop-color:rgb(110,59,105);stop-opacity:1"/><stop offset="0.25" style="stop-color:rgb(137,57,129);stop-opacity:1"/><stop offset="0.5" style="stop-color:rgb(195,128,182);stop-opacity:1"/><stop offset="1" style="stop-color:rgb(94,38,101);stop-opacity:1"/></linearGradient>        <linearGradient id="_Linear4" x1="0" y1="0" x2="1" y2="0" gradientUnits="userSpaceOnUse" gradientTransform="matrix(470.846,0,0,470.846,102.939,340.45)"><stop offset="0" style="stop-color:rgb(110,59,105);stop-opacity:1"/><stop offset="0.19" style="stop-color:rgb(120,61,112);stop-opacity:1"/><stop offset="0.34" style="stop-color:rgb(156,71,139);stop-opacity:1"/><stop offset="0.53" style="stop-color:rgb(211,152,200);stop-opacity:1"/><stop offset="0.74" style="stop-color:rgb(184,92,164);stop-opacity:1"/><stop offset="1" style="stop-color:rgb(177,77,155);stop-opacity:1"/></linearGradient>    </defs></svg>