<?xml version="1.0" encoding="UTF-8" standalone="no"?><!DOCTYPE svg PUBLIC "-//W3C//DTD SVG 1.1//EN" "http://www.w3.org/Graphics/SVG/1.1/DTD/svg11.dtd"><svg width="100%" height="100%" viewBox="0 0 1024 512" version="1.1" xmlns="http://www.w3.org/2000/svg" xmlns:xlink="http://www.w3.org/1999/xlink" xml:space="preserve" style="fill-rule:evenodd;clip-rule:evenodd;stroke-linejoin:round;stroke-miterlimit:2;"><title>Fast Invest</title><desc>FAST INVEST is a P2P investment platform operating since 2015 in most EU countries.Over 28 000 users who have already joined the FAST INVEST platform can build passive income flow by investing in consumer loans in EUR and PLN originated from Spain, Denmark Poland and United Kingdom.</desc>    <g id="fastinvest-512x256.svg" transform="matrix(2.27222,0,0,2.27222,-69.6886,-34.9474)">        <rect x="441.9" y="141.23" width="3" height="15.58" style="fill:rgb(65,184,187);fill-rule:nonzero;"/>        <rect x="453.72" y="135.75" width="3" height="21.06" style="fill:rgb(65,184,187);fill-rule:nonzero;"/>        <rect x="464.35" y="128.89" width="3" height="27.92" style="fill:rgb(65,184,187);fill-rule:nonzero;"/>        <rect x="475.66" y="120.15" width="3" height="36.66" style="fill:rgb(65,184,187);fill-rule:nonzero;"/>        <path d="M434.56,138.88c15.74,-8 27.89,-18.23 39.89,-31.48c0.6,0.39 1.53,1.16 2.57,1.81c1.08,-4.21 2.28,-7.75 3.43,-11.55c-3.61,2 -6.24,3.51 -10.62,5.72l2.41,2.14c0.34,0.34 -0.56,1.33 -1,2c-8.34,11.28 -22.44,22.48 -36.93,30.64c-0.59,0.25 -0.62,1 0.25,0.72" style="fill:rgb(77,84,83);fill-rule:nonzero;"/>        <path d="M60,112.4l0,3.6l-24.18,0l0,16.21l21.5,0l0,3.64l-21.5,0l0,21.37l-4.27,0l0,-44.82l28.45,0" style="fill:rgb(77,84,83);fill-rule:nonzero;"/>        <path d="M92.13,139.67l-8.67,-23l-9,23l17.67,0Zm-6.13,-27.27l17.6,44.87l-4.6,0l-5.47,-13.95l-20.38,0l-5.4,13.95l-4.53,0l18,-44.87l4.78,0" style="fill:rgb(77,84,83);fill-rule:nonzero;"/>        <path d="M117.08,148.28c0.697,1.485 1.769,2.764 3.11,3.71c1.413,0.968 3.004,1.648 4.68,2c1.899,0.41 3.837,0.612 5.78,0.6c1.295,-0.013 2.584,-0.181 3.84,-0.5c1.362,-0.328 2.665,-0.868 3.86,-1.6c1.187,-0.723 2.209,-1.687 3,-2.83c0.818,-1.237 1.233,-2.698 1.19,-4.18c0.03,-1.148 -0.265,-2.282 -0.85,-3.27c-0.564,-0.921 -1.313,-1.714 -2.2,-2.33c-0.929,-0.642 -1.937,-1.16 -3,-1.54c-1.046,-0.395 -2.115,-0.729 -3.2,-1l-10,-2.45c-1.293,-0.332 -2.562,-0.75 -3.8,-1.25c-1.19,-0.47 -2.287,-1.147 -3.24,-2c-0.941,-0.868 -1.699,-1.915 -2.23,-3.08c-0.604,-1.407 -0.894,-2.929 -0.85,-4.46c0.035,-1.299 0.247,-2.588 0.63,-3.83c0.462,-1.544 1.269,-2.963 2.36,-4.15c1.33,-1.422 2.945,-2.547 4.74,-3.3c2.455,-0.98 5.088,-1.44 7.73,-1.35c2.144,-0.011 4.279,0.286 6.34,0.88c1.912,0.535 3.705,1.431 5.28,2.64c3.242,2.47 5.105,6.355 5,10.43l-4.25,0c-0.044,-1.565 -0.44,-3.1 -1.16,-4.49c-0.664,-1.245 -1.584,-2.336 -2.7,-3.2c-1.15,-0.879 -2.452,-1.54 -3.84,-1.95c-1.479,-0.446 -3.016,-0.668 -4.56,-0.66c-1.427,-0.005 -2.849,0.153 -4.24,0.47c-1.276,0.28 -2.489,0.792 -3.58,1.51c-1.032,0.704 -1.883,1.643 -2.48,2.74c-0.668,1.3 -0.992,2.749 -0.94,4.21c-0.025,0.938 0.156,1.87 0.53,2.73c0.34,0.765 0.841,1.447 1.47,2c0.647,0.555 1.38,1.001 2.17,1.32c0.846,0.345 1.719,0.619 2.61,0.82l10.94,2.7c1.533,0.399 3.034,0.914 4.49,1.54c1.34,0.569 2.59,1.33 3.71,2.26c1.067,0.904 1.924,2.03 2.51,3.3c0.645,1.488 0.956,3.099 0.91,4.72c-0.015,0.669 -0.068,1.337 -0.16,2c-0.127,0.92 -0.379,1.819 -0.75,2.67c-0.445,1.02 -1.016,1.981 -1.7,2.86c-0.827,1.051 -1.844,1.937 -3,2.61c-1.482,0.858 -3.083,1.491 -4.75,1.88c-2.225,0.52 -4.506,0.762 -6.79,0.72c-2.479,0.02 -4.95,-0.286 -7.35,-0.91c-2.098,-0.529 -4.065,-1.482 -5.78,-2.8c-1.611,-1.281 -2.877,-2.945 -3.68,-4.84c-0.904,-2.252 -1.28,-4.68 -1.1,-7.1l4.22,0c-0.101,1.984 0.265,3.964 1.07,5.78" style="fill:rgb(77,84,83);fill-rule:nonzero;"/>        <path d="M190.6,112.4l0,3.6l-15.6,0l0,41.22l-4.27,0l0,-41.22l-15.63,0l0,-3.6l35.5,0" style="fill:rgb(77,84,83);fill-rule:nonzero;"/>        <path d="M203.27,112.4l2.73,0l0,44.87l-2.77,0l0.04,-44.87Z" style="fill:rgb(77,84,83);fill-rule:nonzero;"/>        <path d="M223,112.4l3.46,0l28.34,41.16l0.12,0l0,-41.16l2.76,0l0,44.87l-3.28,0l-28.53,-41.47l-0.12,0l0,41.48l-2.75,0l0,-44.88" style="fill:rgb(77,84,83);fill-rule:nonzero;"/>        <path d="M285.32,154.88l0.12,0l15.56,-42.48l2.76,0l-16.76,44.87l-3.2,0l-16.8,-44.87l2.89,0l15.4,42.48" style="fill:rgb(77,84,83);fill-rule:nonzero;"/>        <path d="M313.1,112.4l30.17,0l0,2.39l-27.4,0l0,18l25.77,0l0,2.38l-25.77,0l0,19.73l27.71,0l0,2.39l-30.48,0l0,-44.89" style="fill:rgb(77,84,83);fill-rule:nonzero;"/>        <path d="M383.86,125.22c-0.042,-1.735 -0.458,-3.441 -1.22,-5c-0.72,-1.402 -1.745,-2.626 -3,-3.58c-1.346,-1.007 -2.874,-1.744 -4.5,-2.17c-1.855,-0.496 -3.77,-0.738 -5.69,-0.72c-1.361,0.012 -2.718,0.159 -4.05,0.44c-1.411,0.283 -2.763,0.804 -4,1.54c-1.24,0.744 -2.286,1.772 -3.05,3c-0.835,1.392 -1.249,2.997 -1.19,4.62c-0.067,1.573 0.398,3.124 1.32,4.4c0.924,1.168 2.109,2.103 3.46,2.73c1.567,0.744 3.215,1.304 4.91,1.67c1.84,0.42 3.703,0.817 5.59,1.19c1.887,0.373 3.76,0.823 5.62,1.35c1.725,0.482 3.374,1.202 4.9,2.14c1.427,0.879 2.623,2.086 3.49,3.52c0.937,1.655 1.394,3.539 1.32,5.44c0.072,2.074 -0.452,4.125 -1.51,5.91c-0.971,1.559 -2.267,2.889 -3.8,3.9c-1.556,1.017 -3.279,1.752 -5.09,2.17c-1.758,0.427 -3.561,0.648 -5.37,0.66c-2.499,0.017 -4.99,-0.268 -7.42,-0.85c-2.165,-0.508 -4.206,-1.447 -6,-2.76c-1.732,-1.291 -3.126,-2.982 -4.06,-4.93c-1.041,-2.305 -1.524,-4.823 -1.41,-7.35l2.76,0c-0.184,2.14 0.184,4.293 1.07,6.25c0.803,1.658 2.002,3.094 3.49,4.18c1.573,1.132 3.359,1.935 5.25,2.36c2.073,0.469 4.194,0.694 6.32,0.67c1.447,-0.012 2.889,-0.179 4.3,-0.5c1.494,-0.319 2.922,-0.894 4.22,-1.7c1.283,-0.801 2.375,-1.873 3.2,-3.14c0.907,-1.469 1.356,-3.175 1.29,-4.9c0.072,-1.642 -0.391,-3.264 -1.32,-4.62c-0.919,-1.225 -2.115,-2.215 -3.49,-2.89c-1.56,-0.774 -3.204,-1.364 -4.9,-1.76c-1.827,-0.44 -3.7,-0.85 -5.62,-1.23c-1.88,-0.38 -3.75,-0.82 -5.6,-1.32c-1.718,-0.436 -3.367,-1.109 -4.9,-2c-1.392,-0.828 -2.573,-1.968 -3.45,-3.33c-0.942,-1.584 -1.401,-3.409 -1.32,-5.25c-0.057,-1.922 0.41,-3.823 1.35,-5.5c0.866,-1.496 2.072,-2.767 3.52,-3.71c1.493,-0.964 3.14,-1.664 4.87,-2.07c1.747,-0.434 3.54,-0.655 5.34,-0.66c2.214,-0.014 4.422,0.252 6.57,0.79c1.922,0.471 3.738,1.302 5.35,2.45c1.542,1.131 2.799,2.607 3.67,4.31c0.974,1.975 1.51,4.138 1.57,6.34l-2.77,0" style="fill:rgb(77,84,83);fill-rule:nonzero;"/>        <path d="M394.23,114.79l0,-2.39l34.37,0l0,2.39l-15.83,0l0,42.48l-2.77,0l0,-42.48l-15.77,0" style="fill:rgb(77,84,83);fill-rule:nonzero;"/>    </g></svg>