<?xml version="1.0" encoding="UTF-8" standalone="no"?><!DOCTYPE svg PUBLIC "-//W3C//DTD SVG 1.1//EN" "http://www.w3.org/Graphics/SVG/1.1/DTD/svg11.dtd"><svg width="100%" height="100%" viewBox="0 0 1024 512" version="1.1" xmlns="http://www.w3.org/2000/svg" xmlns:xlink="http://www.w3.org/1999/xlink" xml:space="preserve" style="fill-rule:evenodd;clip-rule:evenodd;stroke-linejoin:round;stroke-miterlimit:2;"><title>Prestiamoci</title><desc>Prestiamoci is the first community of loans between people born in Italy for the Italian market, which allows its members to make investments and obtain loans at an advantageous rate, to achieve common passions and projects. We are a network of people who know each other and lend money, bringing the bank back to its original role as a safe. We guarantee the service to those trustworthy people who want to carry out their life projects and to those small quality businesses that want to grow.</desc>    <g transform="matrix(1.2893,0,0,0.608894,293.907,152.39)">        <g transform="matrix(1,0,0,1,0,-0.450878)">            <g transform="matrix(72,0,0,161.24,-70.7091,225.928)">                <path d="M0.376,-0.7c0.089,0 0.159,0.021 0.21,0.064c0.051,0.043 0.076,0.101 0.076,0.176c0,0.075 -0.025,0.133 -0.076,0.176c-0.051,0.042 -0.121,0.063 -0.21,0.063l-0.188,0l0,0.221l-0.074,0l0,-0.7l0.262,0Zm-0.002,0.414c0.069,0 0.122,-0.015 0.159,-0.045c0.037,-0.031 0.055,-0.074 0.055,-0.129c0,-0.057 -0.018,-0.1 -0.055,-0.13c-0.037,-0.031 -0.09,-0.046 -0.159,-0.046l-0.186,0l0,0.35l0.186,0Z" style="fill:rgb(17,70,136);fill-rule:nonzero;"/>            </g>            <g transform="matrix(72,0,0,161.24,-9.25111,225.928)">                <path d="M0.592,0l-0.16,-0.225c-0.018,0.002 -0.037,0.003 -0.056,0.003l-0.188,0l0,0.222l-0.074,0l0,-0.7l0.262,0c0.089,0 0.159,0.021 0.21,0.064c0.051,0.043 0.076,0.101 0.076,0.176c0,0.055 -0.014,0.101 -0.041,0.139c-0.028,0.037 -0.068,0.064 -0.119,0.081l0.171,0.24l-0.081,0Zm-0.218,-0.285c0.069,0 0.122,-0.015 0.159,-0.046c0.037,-0.031 0.055,-0.074 0.055,-0.129c0,-0.057 -0.018,-0.1 -0.055,-0.13c-0.037,-0.031 -0.09,-0.046 -0.159,-0.046l-0.186,0l0,0.351l0.186,0Z" style="fill:rgb(17,70,136);fill-rule:nonzero;"/>            </g>            <g transform="matrix(72,0,0,161.24,56.1456,225.928)">                <path d="M0.609,-0.064l0,0.064l-0.495,0l0,-0.7l0.48,0l0,0.064l-0.406,0l0,0.249l0.362,0l0,0.063l-0.362,0l0,0.26l0.421,0Z" style="fill:rgb(17,70,136);fill-rule:nonzero;"/>            </g>            <g transform="matrix(72,0,0,161.24,119.56,225.928)">                <path d="M0.307,0.006c-0.052,0 -0.102,-0.008 -0.15,-0.025c-0.047,-0.017 -0.084,-0.039 -0.11,-0.066l0.029,-0.057c0.025,0.025 0.059,0.046 0.101,0.062c0.042,0.015 0.085,0.023 0.13,0.023c0.063,0 0.11,-0.011 0.141,-0.034c0.031,-0.023 0.047,-0.053 0.047,-0.09c0,-0.028 -0.009,-0.05 -0.025,-0.067c-0.018,-0.017 -0.038,-0.029 -0.063,-0.039c-0.025,-0.009 -0.059,-0.018 -0.103,-0.029c-0.053,-0.013 -0.095,-0.026 -0.126,-0.038c-0.031,-0.013 -0.058,-0.032 -0.08,-0.057c-0.023,-0.025 -0.034,-0.06 -0.034,-0.103c0,-0.035 0.009,-0.068 0.028,-0.097c0.019,-0.029 0.047,-0.052 0.086,-0.069c0.039,-0.017 0.087,-0.026 0.144,-0.026c0.04,0 0.079,0.006 0.118,0.016c0.038,0.011 0.071,0.027 0.099,0.046l-0.025,0.059c-0.029,-0.019 -0.061,-0.034 -0.094,-0.044c-0.033,-0.009 -0.066,-0.014 -0.098,-0.014c-0.061,0 -0.107,0.012 -0.138,0.035c-0.031,0.024 -0.047,0.055 -0.047,0.092c0,0.028 0.009,0.05 0.026,0.067c0.017,0.017 0.038,0.03 0.064,0.039c0.025,0.009 0.06,0.019 0.103,0.03c0.051,0.013 0.093,0.025 0.125,0.037c0.031,0.013 0.058,0.031 0.08,0.056c0.022,0.025 0.033,0.059 0.033,0.102c0,0.035 -0.009,0.067 -0.028,0.096c-0.019,0.029 -0.049,0.052 -0.088,0.069c-0.039,0.017 -0.088,0.026 -0.145,0.026Z" style="fill:rgb(17,70,136);fill-rule:nonzero;"/>            </g>            <g transform="matrix(72,0,0,161.24,181.225,225.928)">                <path d="M0.25,-0.636l-0.246,0l0,-0.064l0.566,0l0,0.064l-0.246,0l0,0.636l-0.074,0l0,-0.636Z" style="fill:rgb(17,70,136);fill-rule:nonzero;"/>            </g>            <g transform="matrix(72,0,0,161.24,238.753,225.928)">                <rect x="0.114" y="-0.7" width="0.074" height="0.7" style="fill:rgb(17,70,136);fill-rule:nonzero;"/>            </g>            <g transform="matrix(72,0,0,161.24,274.791,225.928)">                <path d="M0.553,-0.187l-0.39,0l-0.084,0.187l-0.077,0l0.32,-0.7l0.073,0l0.32,0.7l-0.078,0l-0.084,-0.187Zm-0.027,-0.06l-0.168,-0.376l-0.168,0.376l0.336,0Z" style="fill:rgb(17,70,136);fill-rule:nonzero;"/>            </g>            <g transform="matrix(72,0,0,161.24,336.897,225.928)">                <path d="M0.841,-0.7l0,0.7l-0.071,0l0,-0.56l-0.275,0.471l-0.035,0l-0.275,-0.468l0,0.557l-0.071,0l0,-0.7l0.061,0l0.304,0.519l0.301,-0.519l0.061,0Z" style="fill:rgb(17,70,136);fill-rule:nonzero;"/>            </g>            <g transform="matrix(72,0,0,161.24,415.186,225.928)">                <path d="M0.42,0.006c-0.069,0 -0.132,-0.016 -0.188,-0.047c-0.057,-0.031 -0.101,-0.073 -0.132,-0.127c-0.032,-0.054 -0.048,-0.115 -0.048,-0.182c0,-0.067 0.016,-0.128 0.048,-0.182c0.031,-0.054 0.075,-0.096 0.132,-0.127c0.056,-0.031 0.119,-0.047 0.188,-0.047c0.069,0 0.132,0.015 0.188,0.046c0.055,0.031 0.099,0.073 0.131,0.128c0.032,0.054 0.048,0.115 0.048,0.182c0,0.067 -0.016,0.128 -0.048,0.183c-0.032,0.054 -0.076,0.096 -0.131,0.127c-0.056,0.031 -0.119,0.046 -0.188,0.046Zm0,-0.066c0.055,0 0.105,-0.012 0.15,-0.037c0.045,-0.025 0.08,-0.06 0.105,-0.104c0.025,-0.045 0.038,-0.094 0.038,-0.149c0,-0.055 -0.013,-0.104 -0.038,-0.148c-0.025,-0.045 -0.06,-0.08 -0.105,-0.105c-0.045,-0.025 -0.095,-0.037 -0.15,-0.037c-0.055,0 -0.105,0.012 -0.15,0.037c-0.045,0.025 -0.081,0.06 -0.106,0.104c-0.026,0.045 -0.039,0.094 -0.039,0.149c0,0.055 0.013,0.104 0.039,0.148c0.025,0.045 0.061,0.079 0.106,0.104c0.045,0.025 0.095,0.038 0.15,0.038Z" style="fill:rgb(17,70,136);fill-rule:nonzero;"/>            </g>            <g transform="matrix(72,0,0,161.24,485.123,225.928)">                <path d="M0.418,0.006c-0.069,0 -0.132,-0.015 -0.187,-0.046c-0.056,-0.031 -0.1,-0.073 -0.131,-0.128c-0.032,-0.054 -0.048,-0.115 -0.048,-0.182c0,-0.067 0.016,-0.128 0.048,-0.183c0.031,-0.054 0.075,-0.096 0.131,-0.127c0.056,-0.031 0.119,-0.046 0.188,-0.046c0.052,0 0.1,0.009 0.144,0.026c0.044,0.017 0.081,0.043 0.112,0.076l-0.047,0.047c-0.055,-0.055 -0.124,-0.083 -0.207,-0.083c-0.055,0 -0.106,0.013 -0.151,0.038c-0.045,0.025 -0.081,0.06 -0.106,0.104c-0.026,0.044 -0.039,0.093 -0.039,0.148c0,0.055 0.013,0.104 0.039,0.148c0.025,0.044 0.061,0.079 0.106,0.104c0.045,0.025 0.096,0.038 0.151,0.038c0.084,0 0.153,-0.028 0.207,-0.084l0.047,0.047c-0.031,0.033 -0.068,0.059 -0.112,0.076c-0.045,0.018 -0.093,0.027 -0.145,0.027Z" style="fill:rgb(17,70,136);fill-rule:nonzero;"/>            </g>            <g transform="matrix(72,0,0,161.24,551.184,225.928)">                <rect x="0.114" y="-0.7" width="0.074" height="0.7" style="fill:rgb(17,70,136);fill-rule:nonzero;"/>            </g>        </g>        <g>            <g transform="matrix(0.952909,0,0,2.01773,-284.659,-605.656)">                <path d="M111.323,337.022c-11.175,-0.642 -25.178,4.612 -36.452,17.135c-15.357,17.057 -14.875,26.881 -12.473,35.5c3.332,11.958 8.162,14.689 8.162,14.689l41.279,-35.851c0,0 8.145,-7.449 19.19,-4.589c11.045,2.861 17.808,10.645 17.808,10.645c0,0 -8.891,-18.418 -15.029,-24.989c-4.638,-4.965 -14.272,-12.068 -22.485,-12.54Z" style="fill:rgb(17,70,136);"/>            </g>            <g transform="matrix(-0.952909,-3.33067e-16,2.77556e-17,-2.01773,-48.6001,945.98)">                <path d="M111.323,337.022c-11.175,-0.642 -25.178,4.612 -36.452,17.135c-15.357,17.057 -14.875,26.881 -12.473,35.5c3.332,11.958 8.162,14.689 8.162,14.689l41.279,-35.851c0,0 8.145,-7.449 19.19,-4.589c11.045,2.861 17.808,10.645 17.808,10.645c0,0 -8.891,-18.418 -15.029,-24.989c-4.638,-4.965 -14.272,-12.068 -22.485,-12.54Z" style="fill:rgb(97,186,216);"/>            </g>        </g>    </g></svg>