<?xml version="1.0" encoding="UTF-8" standalone="no"?><!DOCTYPE svg PUBLIC "-//W3C//DTD SVG 1.1//EN" "http://www.w3.org/Graphics/SVG/1.1/DTD/svg11.dtd"><svg width="100%" height="100%" viewBox="0 0 1024 512" version="1.1" xmlns="http://www.w3.org/2000/svg" xmlns:xlink="http://www.w3.org/1999/xlink" xml:space="preserve" style="fill-rule:evenodd;clip-rule:evenodd;stroke-linejoin:round;stroke-miterlimit:2;"><title>Real Funds</title><desc>Real Funds is a fintech peer-to-peer lending platform providing alternative finance to Britain’s smaller house builders who currently have limited access to finance, especially after 2008 banking crisis. At the same time, we are opening this exclusive market, as anyone can invest in their local asset-backed property development project and beyond from as small as £100 for 7% fixed interest per annum</desc>    <g transform="matrix(4.29496,0,0,2.07737,34.0011,7.70098)">        <g transform="matrix(24.1838,0,0,50,39.0858,139.338)">            <path d="M0.117,-0.737l0,0.422l0.259,0c0.057,0 0.107,-0.021 0.148,-0.062c0.041,-0.041 0.062,-0.091 0.062,-0.149c0,-0.059 -0.021,-0.108 -0.062,-0.149c-0.041,-0.041 -0.091,-0.062 -0.148,-0.062l-0.259,0Zm0.272,0.466c-0.005,0 -0.009,0 -0.013,0l-0.259,0l0,0.271l-0.044,0l0,-0.781l0.331,0c0.059,0.008 0.11,0.033 0.152,0.074c0.049,0.05 0.074,0.11 0.074,0.181c0,0.07 -0.025,0.13 -0.074,0.18c-0.035,0.035 -0.074,0.057 -0.119,0.068l0.243,0.278l-0.054,0l-0.237,-0.271Z" style="fill:rgb(213,160,91);fill-rule:nonzero;"/>        </g>        <g transform="matrix(24.1838,0,0,50,59.5333,139.338)">            <path d="M0.527,-0.781l0,0.044l-0.41,0l0,0.324l0.41,0l0,0.044l-0.41,0l0,0.325l0.41,0l0,0.044l-0.454,0l0,-0.781l0.454,0Z" style="fill:rgb(213,160,91);fill-rule:nonzero;"/>        </g>        <g transform="matrix(0.758808,0,0,1.56883,40.8071,-127.263)">            <path d="M60.46,148.553l-8.781,21.382l-1.493,0l10.274,-25.475l11.26,25.475l-1.479,0l-9.781,-21.382Z" style="fill:rgb(213,160,91);fill-rule:nonzero;"/>        </g>        <g transform="matrix(24.1838,0,0,50,100.372,139.338)">            <path d="M0.073,0l0,-0.781l0.044,0l0,0.737l0.428,0l0,0.044l-0.472,0Z" style="fill:rgb(213,160,91);fill-rule:nonzero;"/>        </g>        <g transform="matrix(24.1838,0,0,50,148.916,139.338)">            <path d="M0.57,-0.781l0.045,0l0,0.561c-0.008,0.06 -0.033,0.11 -0.075,0.152c-0.05,0.05 -0.11,0.075 -0.18,0.075c-0.071,0 -0.162,-0.025 -0.212,-0.075c-0.05,-0.05 -0.075,-0.11 -0.075,-0.18l0,-0.533l0.045,0l0,0.533c0,0.058 0.02,0.107 0.061,0.149c0.042,0.041 0.123,0.061 0.181,0.061c0.058,0 0.108,-0.02 0.149,-0.061c0.041,-0.042 0.061,-0.091 0.061,-0.149l0,-0.533Z" style="fill:rgb(213,160,91);fill-rule:nonzero;"/>        </g>        <g transform="matrix(24.1838,0,0,50,170.869,139.338)">            <path d="M0.073,-0.781l0.049,0l0.558,0.695l0,-0.695l0.044,0l0,0.781l-0.044,0l-0.563,-0.702l0,0.702l-0.044,0l0,-0.781Z" style="fill:rgb(213,160,91);fill-rule:nonzero;"/>        </g>        <g transform="matrix(24.1838,0,0,50,194.697,139.338)">            <path d="M0.117,-0.735l0,0.69l0.004,0c0.115,0 0.33,-0.032 0.392,-0.094c0.07,-0.069 0.104,-0.153 0.104,-0.252c0,-0.098 -0.034,-0.181 -0.104,-0.251c-0.062,-0.062 -0.277,-0.093 -0.392,-0.093l-0.004,0Zm0,-0.045l0.004,0c0.128,0 0.353,0.035 0.424,0.106c0.078,0.079 0.117,0.173 0.117,0.283c0,0.111 -0.039,0.205 -0.117,0.284c-0.071,0.071 -0.296,0.106 -0.424,0.106l-0.004,0l0,0.001l-0.044,0l0,-0.781l0.044,0l0,0.001Z" style="fill:rgb(213,160,91);fill-rule:nonzero;"/>        </g>        <g transform="matrix(0.758808,0,0,1.56883,40.8071,-127.263)">            <path d="M248.643,147.887c-1.078,-0.661 -2.284,-1.192 -3.616,-1.594c-1.514,-0.457 -2.988,-0.686 -4.424,-0.686c-1.135,0 -2.178,0.155 -3.129,0.47c-0.933,0.308 -1.732,0.739 -2.394,1.297c-0.654,0.551 -1.168,1.197 -1.54,1.937c-0.368,0.732 -0.55,1.544 -0.55,2.434l0,0.095c0,0.951 0.213,1.752 0.658,2.395c0.46,0.666 1.061,1.221 1.802,1.669c0.773,0.467 1.646,0.851 2.62,1.153c1.012,0.313 2.017,0.611 3.016,0.894c0.878,0.254 1.706,0.507 2.486,0.761c0.816,0.265 1.547,0.598 2.194,0.996c0.678,0.418 1.212,0.908 1.605,1.466c0.414,0.588 0.627,1.285 0.627,2.094l0,0.095c0,1.596 -0.646,2.855 -1.936,3.777c-1.229,0.877 -2.74,1.325 -4.539,1.325c-1.644,0 -3.238,-0.287 -4.781,-0.859c-1.378,-0.512 -2.702,-1.213 -3.973,-2.107l-0.779,1.022c1.192,0.865 2.572,1.577 4.14,2.137c1.749,0.624 3.498,0.938 5.247,0.938c1.138,0 2.198,-0.157 3.182,-0.472c0.97,-0.31 1.819,-0.752 2.547,-1.329c0.714,-0.565 1.272,-1.247 1.673,-2.045c0.401,-0.796 0.598,-1.686 0.598,-2.67l0,-0.095c0,-0.957 -0.2,-1.762 -0.618,-2.409c-0.431,-0.667 -1.004,-1.238 -1.717,-1.716c-0.738,-0.495 -1.569,-0.899 -2.492,-1.214c-0.96,-0.328 -1.936,-0.632 -2.93,-0.914c-0.876,-0.253 -1.736,-0.514 -2.58,-0.783c-0.874,-0.279 -1.639,-0.6 -2.295,-0.961c-0.695,-0.383 -1.254,-0.845 -1.682,-1.384c-0.46,-0.58 -0.694,-1.262 -0.694,-2.048l0,-0.094c0,-1.358 0.569,-2.497 1.723,-3.408c1.098,-0.867 2.566,-1.316 4.414,-1.316c1.379,0 2.75,0.229 4.112,0.688c1.18,0.398 2.29,0.908 3.33,1.53l0.695,-1.069Z" style="fill:rgb(213,160,91);fill-rule:nonzero;"/>        </g>        <g transform="matrix(0.758808,0,0,1.56883,40.8071,-127.263)">            <path d="M118.634,156.785l12.893,0l0,1.401l-11.493,0l0,11.749l-1.4,0l0,-13.15Zm0,-10.348l0,-1.401l15.893,0l0,1.401l-15.893,0Z" style="fill:rgb(213,160,91);fill-rule:nonzero;"/>        </g>        <g transform="matrix(0.540288,0,0,1.11704,-52.8606,28.9946)">            <path d="M87.54,131.498l21.76,0l0,-81.367l33.235,22.281l-2.754,2.005l0,56.707l19.063,0l0,-41.315l-11.485,-6.989l12.847,-8.385l0,-21.151l-32.89,-22.692l-21.325,11.359l0,-3.95l-10.817,5.016l0,4.004l-11.127,5.775l2.847,4.448l0.646,74.254Z" style="fill:rgb(213,160,91);"/>        </g>    </g></svg>