<?xml version="1.0" encoding="UTF-8" standalone="no"?><!DOCTYPE svg PUBLIC "-//W3C//DTD SVG 1.1//EN" "http://www.w3.org/Graphics/SVG/1.1/DTD/svg11.dtd"><svg width="100%" height="100%" viewBox="0 0 1024 512" version="1.1" xmlns="http://www.w3.org/2000/svg" xmlns:xlink="http://www.w3.org/1999/xlink" xml:space="preserve" style="fill-rule:evenodd;clip-rule:evenodd;stroke-linejoin:round;stroke-miterlimit:2;"><title>Receptum</title><desc>Receptum intends to offer a P2P loan channel (from person to person) with a mortgage guarantee before a notary. We make our community available to you by having people who need financing communicate with people who invest their money</desc>    <g transform="matrix(3.14786,0,0,3.14786,-13.7393,98.3959)">        <g transform="matrix(4.22779,0,0,4.04069,-332.397,-257.965)">            <g transform="matrix(12,0,0,12,103.389,79.4833)">                <path d="M0.065,0l0,-0.519l0.079,0l0,0.079c0.02,-0.037 0.039,-0.061 0.056,-0.073c0.017,-0.011 0.036,-0.017 0.056,-0.017c0.03,0 0.06,0.009 0.091,0.028l-0.031,0.082c-0.021,-0.013 -0.043,-0.019 -0.064,-0.019c-0.019,0 -0.037,0.005 -0.052,0.017c-0.015,0.011 -0.026,0.027 -0.033,0.048c-0.009,0.031 -0.014,0.065 -0.014,0.103l0,0.271l-0.088,0Z" style="fill:rgb(0,172,222);fill-rule:nonzero;"/>            </g>            <g transform="matrix(12,0,0,12,107.891,79.4833)">                <path d="M0.421,-0.167l0.091,0.011c-0.015,0.053 -0.041,0.094 -0.08,0.124c-0.039,0.029 -0.088,0.044 -0.148,0.044c-0.076,0 -0.136,-0.024 -0.181,-0.07c-0.044,-0.047 -0.066,-0.113 -0.066,-0.197c0,-0.087 0.022,-0.155 0.067,-0.203c0.045,-0.048 0.103,-0.072 0.175,-0.072c0.069,0 0.126,0.023 0.17,0.071c0.044,0.047 0.066,0.113 0.066,0.199c0,0.005 -0.001,0.013 -0.001,0.023l-0.387,0c0.004,0.057 0.02,0.101 0.049,0.131c0.029,0.03 0.065,0.045 0.108,0.045c0.032,0 0.06,-0.008 0.083,-0.025c0.022,-0.017 0.041,-0.044 0.054,-0.081Zm-0.289,-0.142l0.29,0c-0.004,-0.044 -0.015,-0.076 -0.033,-0.098c-0.028,-0.034 -0.065,-0.051 -0.109,-0.051c-0.041,0 -0.075,0.014 -0.102,0.041c-0.028,0.027 -0.043,0.063 -0.046,0.108Z" style="fill:rgb(0,172,222);fill-rule:nonzero;"/>            </g>            <g transform="matrix(12,0,0,12,114.834,79.4833)">                <path d="M0.404,-0.19l0.087,0.011c-0.01,0.06 -0.034,0.106 -0.073,0.14c-0.039,0.034 -0.086,0.051 -0.143,0.051c-0.071,0 -0.128,-0.023 -0.171,-0.07c-0.043,-0.046 -0.065,-0.113 -0.065,-0.199c0,-0.056 0.009,-0.105 0.028,-0.147c0.018,-0.042 0.047,-0.074 0.085,-0.095c0.038,-0.021 0.079,-0.031 0.123,-0.031c0.057,0 0.103,0.014 0.139,0.042c0.035,0.029 0.058,0.069 0.068,0.122l-0.085,0.013c-0.008,-0.035 -0.023,-0.061 -0.043,-0.079c-0.021,-0.017 -0.046,-0.026 -0.075,-0.026c-0.044,0 -0.08,0.016 -0.108,0.048c-0.028,0.031 -0.042,0.082 -0.042,0.15c0,0.07 0.014,0.121 0.04,0.152c0.027,0.032 0.062,0.047 0.105,0.047c0.034,0 0.063,-0.01 0.086,-0.031c0.023,-0.021 0.038,-0.054 0.044,-0.098Z" style="fill:rgb(0,172,222);fill-rule:nonzero;"/>            </g>            <g transform="matrix(12,0,0,12,121.34,79.4833)">                <path d="M0.421,-0.167l0.091,0.011c-0.015,0.053 -0.041,0.094 -0.08,0.124c-0.039,0.029 -0.088,0.044 -0.148,0.044c-0.076,0 -0.136,-0.024 -0.181,-0.07c-0.044,-0.047 -0.066,-0.113 -0.066,-0.197c0,-0.087 0.022,-0.155 0.067,-0.203c0.045,-0.048 0.103,-0.072 0.175,-0.072c0.069,0 0.126,0.023 0.17,0.071c0.044,0.047 0.066,0.113 0.066,0.199c0,0.005 -0.001,0.013 -0.001,0.023l-0.387,0c0.004,0.057 0.02,0.101 0.049,0.131c0.029,0.03 0.065,0.045 0.108,0.045c0.032,0 0.06,-0.008 0.083,-0.025c0.022,-0.017 0.041,-0.044 0.054,-0.081Zm-0.289,-0.142l0.29,0c-0.004,-0.044 -0.015,-0.076 -0.033,-0.098c-0.028,-0.034 -0.065,-0.051 -0.109,-0.051c-0.041,0 -0.075,0.014 -0.102,0.041c-0.028,0.027 -0.043,0.063 -0.046,0.108Z" style="fill:rgb(0,172,222);fill-rule:nonzero;"/>            </g>            <g transform="matrix(12,0,0,12,128.508,79.4833)">                <path d="M0.066,0.199l0,-0.718l0.08,0l0,0.068c0.019,-0.027 0.04,-0.046 0.064,-0.059c0.024,-0.014 0.053,-0.02 0.086,-0.02c0.045,0 0.084,0.011 0.118,0.034c0.033,0.023 0.059,0.055 0.076,0.096c0.017,0.042 0.026,0.087 0.026,0.137c0,0.053 -0.009,0.101 -0.028,0.143c-0.019,0.043 -0.047,0.075 -0.083,0.098c-0.037,0.022 -0.075,0.034 -0.115,0.034c-0.029,0 -0.056,-0.006 -0.079,-0.019c-0.023,-0.012 -0.042,-0.028 -0.057,-0.047l0,0.253l-0.088,0Zm0.08,-0.455c0,0.066 0.013,0.116 0.04,0.148c0.027,0.032 0.06,0.047 0.098,0.047c0.039,0 0.073,-0.016 0.101,-0.049c0.027,-0.033 0.041,-0.084 0.041,-0.154c0,-0.066 -0.013,-0.115 -0.041,-0.148c-0.027,-0.033 -0.059,-0.049 -0.097,-0.049c-0.037,0 -0.07,0.017 -0.099,0.052c-0.029,0.035 -0.043,0.086 -0.043,0.153Z" style="fill:rgb(0,172,222);fill-rule:nonzero;"/>            </g>            <g transform="matrix(12,0,0,12,135.699,79.4833)">                <path d="M0.258,-0.079l0.013,0.078c-0.025,0.005 -0.047,0.008 -0.067,0.008c-0.032,0 -0.057,-0.005 -0.074,-0.015c-0.018,-0.01 -0.03,-0.024 -0.037,-0.04c-0.007,-0.017 -0.011,-0.051 -0.011,-0.104l0,-0.298l-0.064,0l0,-0.069l0.064,0l0,-0.128l0.087,-0.053l0,0.181l0.089,0l0,0.069l-0.089,0l0,0.303c0,0.025 0.002,0.041 0.005,0.048c0.003,0.008 0.008,0.013 0.015,0.017c0.007,0.005 0.017,0.007 0.03,0.007c0.01,0 0.023,-0.001 0.039,-0.004Z" style="fill:rgb(0,172,222);fill-rule:nonzero;"/>            </g>            <g transform="matrix(12,0,0,12,140.034,79.4833)">                <path d="M0.406,0l0,-0.076c-0.041,0.058 -0.095,0.088 -0.165,0.088c-0.03,0 -0.059,-0.006 -0.085,-0.018c-0.027,-0.012 -0.047,-0.026 -0.06,-0.044c-0.012,-0.018 -0.021,-0.04 -0.027,-0.065c-0.003,-0.017 -0.005,-0.045 -0.005,-0.082l0,-0.322l0.088,0l0,0.288c0,0.046 0.002,0.077 0.005,0.093c0.006,0.023 0.017,0.041 0.035,0.054c0.018,0.013 0.04,0.02 0.067,0.02c0.026,0 0.051,-0.007 0.074,-0.02c0.023,-0.014 0.039,-0.032 0.049,-0.055c0.01,-0.024 0.014,-0.057 0.014,-0.102l0,-0.278l0.088,0l0,0.519l-0.078,0Z" style="fill:rgb(0,172,222);fill-rule:nonzero;"/>            </g>            <g transform="matrix(12,0,0,12,147.225,79.4833)">                <path d="M0.066,0l0,-0.519l0.079,0l0,0.073c0.016,-0.025 0.037,-0.046 0.064,-0.061c0.027,-0.016 0.058,-0.023 0.093,-0.023c0.038,0 0.07,0.008 0.094,0.024c0.025,0.016 0.042,0.038 0.052,0.067c0.041,-0.061 0.095,-0.091 0.16,-0.091c0.052,0 0.091,0.014 0.119,0.042c0.028,0.029 0.042,0.073 0.042,0.132l0,0.356l-0.088,0l0,-0.327c0,-0.035 -0.003,-0.06 -0.008,-0.076c-0.006,-0.015 -0.016,-0.028 -0.031,-0.037c-0.015,-0.009 -0.033,-0.014 -0.053,-0.014c-0.037,0 -0.067,0.012 -0.091,0.036c-0.024,0.025 -0.036,0.063 -0.036,0.117l0,0.301l-0.088,0l0,-0.337c0,-0.039 -0.007,-0.068 -0.021,-0.088c-0.015,-0.019 -0.038,-0.029 -0.071,-0.029c-0.025,0 -0.047,0.006 -0.068,0.019c-0.021,0.013 -0.037,0.032 -0.046,0.058c-0.009,0.025 -0.014,0.061 -0.014,0.108l0,0.269l-0.088,0Z" style="fill:rgb(0,172,222);fill-rule:nonzero;"/>            </g>        </g>        <g>            <g transform="matrix(1.19304,0,0,1.19304,55.6204,-11.267)">                <circle cx="25.513" cy="51.184" r="12.362" style="fill:rgb(0,171,222);"/>            </g>            <path d="M77.12,36.23c-4.606,-7.972 -13.242,-13.312 -23.927,-13.312c-3.035,0 -5.5,-2.464 -5.5,-5.5c0,-3.035 2.465,-5.5 5.5,-5.5c16.304,0 29.161,8.911 35.056,21.778c-0.717,-0.097 -1.448,-0.147 -2.19,-0.147c-3.301,0 -6.374,0.987 -8.939,2.681Z" style="fill:rgb(0,171,222);"/>            <path d="M77.343,63.51c2.519,1.606 5.51,2.536 8.716,2.536c0.832,0 1.649,-0.062 2.448,-0.183c-5.232,11.943 -16.401,20.602 -30.768,22.116c1.463,-1.283 2.387,-3.166 2.387,-5.263c0,-2.379 -1.189,-4.483 -3.005,-5.748c9.029,-1.157 16.237,-6.28 20.222,-13.458Z" style="fill:rgb(0,171,222);"/>            <g transform="matrix(1.19304,0,0,1.19304,-10.6897,-11.267)">                <circle cx="25.513" cy="51.184" r="12.362" style="fill:rgb(192,192,192);"/>            </g>            <path d="M28.841,63.263c4.507,8.325 13.316,13.953 24.285,13.953c3.036,0 5.5,2.464 5.5,5.5c0,3.036 -2.464,5.5 -5.5,5.5c-16.516,0 -29.495,-9.145 -35.281,-22.28c0.624,0.073 1.26,0.11 1.903,0.11c3.368,0 6.497,-1.026 9.093,-2.783Z" style="fill:rgb(192,192,192);"/>            <path d="M18.1,33.632c5.526,-12.006 17.126,-20.556 31.932,-21.605c-1.848,1.086 -3.089,3.095 -3.089,5.391c0,2.464 1.429,4.597 3.503,5.614c-9.553,0.823 -17.206,6.021 -21.39,13.449c-2.638,-1.847 -5.847,-2.932 -9.308,-2.932c-0.556,0 -1.107,0.029 -1.648,0.083Z" style="fill:rgb(192,192,192);"/>        </g>    </g></svg>