<?xml version="1.0" encoding="UTF-8" standalone="no"?><!DOCTYPE svg PUBLIC "-//W3C//DTD SVG 1.1//EN" "http://www.w3.org/Graphics/SVG/1.1/DTD/svg11.dtd"><svg width="100%" height="100%" viewBox="0 0 1024 512" version="1.1" xmlns="http://www.w3.org/2000/svg" xmlns:xlink="http://www.w3.org/1999/xlink" xml:space="preserve" style="fill-rule:evenodd;clip-rule:evenodd;stroke-linejoin:round;stroke-miterlimit:2;"><title>Unbolted</title><desc>Unbolted is part of a technological revolution. It is an online-only, peer-to-peer (p2p) lending platform that provides a simple and fast opportunity for borrowers to receive immediate funds against their personal assets, in complete privacy</desc>    <g transform="matrix(12.4742,0,0,12.4742,-5256.78,-389.53)">        <g transform="matrix(1,0,0,1,0,-745.677)">            <path d="M462.933,797.085c-1.815,0 -3.292,-1.482 -3.292,-3.302c0,-1.82 1.477,-3.3 3.292,-3.3c1.815,0 3.291,1.48 3.291,3.3c0,1.82 -1.476,3.302 -3.291,3.302m0,-8.917c-3.087,0 -5.598,2.519 -5.598,5.615c0,3.097 2.511,5.616 5.598,5.616c3.087,0 5.597,-2.519 5.597,-5.616c0,-3.096 -2.51,-5.615 -5.597,-5.615" style="fill:rgb(0,165,81);fill-rule:nonzero;"/>        </g>        <g transform="matrix(1,0,0,1,0,-748.869)">            <rect x="470.145" y="788.291" width="2.307" height="14.177" style="fill:rgb(0,165,81);"/>        </g>        <g transform="matrix(1,0,0,1,0,-748.87)">            <path d="M476.705,788.292l-2.307,0l0,10.715c0,1.91 1.547,3.461 3.449,3.461l1.466,0l0,-2.314l-1.466,0c-0.63,0 -1.142,-0.514 -1.142,-1.147l0,-5.264l2.608,0l0,-2.184l-2.608,0l0,-3.267Z" style="fill:rgb(0,165,81);fill-rule:nonzero;"/>        </g>        <g transform="matrix(1,0,0,1,0,-748.746)">            <path d="M450.417,800.154c-1.194,0 -2.294,-0.651 -2.877,-1.701l0,-3.201c0.583,-1.05 1.683,-1.7 2.877,-1.7c1.815,0 3.292,1.481 3.292,3.301c0,1.82 -1.477,3.301 -3.292,3.301m0,-8.917c-1.017,0 -2.008,0.277 -2.877,0.802l0,-3.871l-2.307,0l0,14.177l2.307,0l0,-0.679c0.87,0.525 1.86,0.802 2.877,0.802c3.087,0 5.598,-2.519 5.598,-5.615c0,-3.097 -2.511,-5.616 -5.598,-5.616" style="fill:rgb(0,165,81);fill-rule:nonzero;"/>        </g>        <g transform="matrix(1,0,0,1,0,-748.746)">            <path d="M498.157,793.552c1.194,0 2.294,0.65 2.876,1.7l0,3.201c-0.582,1.05 -1.682,1.701 -2.876,1.701c-1.815,0 -3.292,-1.481 -3.292,-3.301c0,-1.82 1.477,-3.301 3.291,-3.301m2.877,-5.384l0,3.871c-0.869,-0.525 -1.86,-0.802 -2.877,-0.802c-3.087,0 -5.598,2.519 -5.598,5.616c0,3.096 2.511,5.615 5.599,5.615c1.016,0 2.007,-0.277 2.876,-0.802l0,0.679l2.308,0l0,-14.177l-2.308,0Z" style="fill:rgb(0,165,81);fill-rule:nonzero;"/>        </g>        <g transform="matrix(1,0,0,1,0,-745.678)">            <path d="M486.065,790.485c1.239,0 2.313,0.756 2.773,1.938l-5.529,0c0.552,-1.427 1.818,-1.938 2.756,-1.938m3.01,5.436c-0.571,0.793 -1.72,1.198 -2.912,1.198c-1.177,0 -2.657,-0.691 -3.021,-2.512l8.349,0l0.002,-0.345c0.01,-1.79 -0.601,-3.396 -1.717,-4.523c-1.004,-1.013 -2.322,-1.569 -3.711,-1.569c-2.982,0 -5.407,2.538 -5.407,5.659c0,3.151 2.418,5.569 5.505,5.569c1.771,0 3.44,-0.649 4.524,-1.855l-1.612,-1.622Z" style="fill:rgb(0,165,81);fill-rule:nonzero;"/>        </g>        <g transform="matrix(1,0,0,1,0,-742.895)">            <path d="M435.525,790.439l0,6.045l-2.314,0l0,-6.045c0,-2.786 2.259,-5.053 5.038,-5.053c2.778,0 5.037,2.267 5.037,5.053l0,8.96l-2.313,0l0,-8.96c0,-1.506 -1.223,-2.733 -2.724,-2.733c-1.502,0 -2.724,1.227 -2.724,2.733" style="fill:rgb(0,165,81);fill-rule:nonzero;"/>        </g>        <g transform="matrix(1,0,0,1,0,-748.746)">            <path d="M429.334,788.168l0,9.246c0,1.507 -1.222,2.734 -2.724,2.734c-1.502,0 -2.725,-1.227 -2.725,-2.734l0,-9.246l-2.313,0l0,9.246c0,2.787 2.259,5.054 5.038,5.054c2.778,0 5.037,-2.267 5.037,-5.054l0,-9.246l-2.313,0Z" style="fill:rgb(0,165,81);fill-rule:nonzero;"/>        </g>        <g transform="matrix(1,0,0,1,0,-717.108)">            <path d="M443.56,783.681l-10.622,0l0,-8.364l10.622,0l0,8.364Zm1.097,-10.678l-12.817,0c-0.667,0 -1.209,0.544 -1.209,1.213l0,10.565c0,0.67 0.542,1.214 1.209,1.214l12.817,0c0.667,0 1.21,-0.544 1.21,-1.214l0,-10.565c0,-0.669 -0.543,-1.213 -1.21,-1.213" style="fill:rgb(0,165,81);fill-rule:nonzero;"/>        </g>    </g></svg>