<?xml version="1.0" encoding="UTF-8" standalone="no"?><!DOCTYPE svg PUBLIC "-//W3C//DTD SVG 1.1//EN" "http://www.w3.org/Graphics/SVG/1.1/DTD/svg11.dtd"><svg width="100%" height="100%" viewBox="0 0 1024 512" version="1.1" xmlns="http://www.w3.org/2000/svg" xmlns:xlink="http://www.w3.org/1999/xlink" xml:space="preserve" style="fill-rule:evenodd;clip-rule:evenodd;stroke-linejoin:round;stroke-miterlimit:2;"><title>creditworld</title><desc>creditworld is the leading Swiss direct lending specialist with focus on Swiss SMEs. creditworld offers Swiss SMEs a financing alternative and investors a new asset class by providing loans and bonds starting at CHF 100’000.  </desc>    <g transform="matrix(12.3533,0,0,12.3533,-3161.87,-157.116)">        <g transform="matrix(0.0791008,0,0,0.0790762,255.67,43.1672)">            <path d="M80.261,114.73l-5.55,0c-12.002,0 -19.803,-0.15 -23.479,-0.525c-3.75,-0.375 -7.801,-1.425 -12.226,-3.15c-10.352,-3.901 -18.828,-11.102 -25.354,-21.454c-5.326,-8.327 -8.026,-17.703 -8.026,-28.055c0,-14.253 4.65,-26.631 13.952,-36.982c9.301,-10.427 21.753,-16.127 37.13,-17.178c2.25,-0.229 8.551,-0.299 18.903,-0.299l4.65,0l0,23.928c-13.577,0 -22.803,0.525 -27.829,1.725c-5.925,1.426 -10.726,4.426 -14.552,8.852c-5.025,5.775 -7.501,12.302 -7.501,19.729c0,9.001 3.526,16.428 10.577,22.279c3.375,2.775 7.051,4.651 11.101,5.626c4.051,1.05 10.052,1.575 18.078,1.65l10.126,-0.001l0,23.855Z" style="fill:rgb(58,141,210);fill-rule:nonzero;"/>        </g>        <g transform="matrix(0.0791008,0,0,0.0790762,255.67,43.0897)">            <path d="M125.87,115.71l-24.76,0l0,-63.311c0,-15.154 4.05,-26.63 12.08,-34.433c7.5,-7.279 17.63,-10.88 30.31,-10.88c1.2,0 3.15,0.081 5.92,0.23l0,24.078c-9.08,0.451 -15.3,2.626 -18.6,6.527c-3.3,3.901 -4.95,10.951 -4.95,21.153l0,56.636Z" style="fill:rgb(58,141,210);fill-rule:nonzero;"/>        </g>        <g transform="matrix(0.0791008,0,0,0.0790762,255.67,43.1672)">            <path d="M243.33,49.467c-2.02,-5.926 -5.7,-10.652 -10.8,-14.252c-5.17,-3.526 -11.1,-5.326 -17.62,-5.326c-6.61,0 -12.46,1.725 -17.56,5.176c-5.17,3.45 -9,8.251 -11.55,14.402l57.53,0Zm22.51,30.456c-2.48,6.976 -6.08,12.977 -10.58,17.928c-5.17,5.776 -11.4,10.277 -18.83,13.578c-7.2,3.226 -14.55,4.801 -22.05,4.801c-14.1,0 -26.55,-4.951 -37.28,-14.928c-12,-11.027 -18,-24.605 -18,-40.657c0,-7.877 1.65,-15.453 5.02,-22.655c3.38,-7.276 8.1,-13.577 14.18,-18.904c10.2,-9 22.2,-13.5 35.93,-13.5c15.45,0 28.5,5.47 39.23,16.276c4.35,4.426 7.8,9.377 10.35,14.853c2.63,5.476 3.9,10.577 3.9,15.228c0,6.451 -2.32,11.552 -6.97,15.153c-2.4,1.8 -4.88,3 -7.43,3.525c-2.55,0.525 -6.82,0.75 -12.9,0.75l-54.98,0c2.17,6.302 5.92,11.253 11.32,15.003c5.33,3.751 11.33,5.626 18.01,5.626c10.05,0 18.3,-4.05 24.75,-12.077l26.33,0Z" style="fill:rgb(58,141,210);fill-rule:nonzero;"/>        </g>        <g transform="matrix(0.0791008,0,0,0.0790762,255.67,38.5049)">            <path d="M339.72,88.849c-9.67,0 -17.55,3.45 -23.63,10.352c-5.17,5.776 -7.8,12.602 -7.8,20.554c0,9.676 3.6,17.553 10.73,23.554c6,5.101 12.83,7.651 20.55,7.651c8.85,0 16.36,-3.225 22.28,-9.526c5.63,-6.002 8.4,-13.128 8.4,-21.454c0,-9.752 -3.3,-17.554 -9.97,-23.405c-5.48,-4.876 -12.38,-7.501 -20.56,-7.726Zm54.46,-83.263l0,104.117c0,10.727 -0.6,18.903 -1.8,24.379c-1.2,5.551 -3.45,11.027 -6.83,16.503c-5.25,8.102 -12.6,14.403 -21.97,18.979c-7.8,3.751 -15.83,5.626 -24.23,5.626c-15.08,0 -28.21,-5.401 -39.16,-16.128c-11.1,-10.877 -16.65,-23.93 -16.65,-39.307c0,-11.628 3.53,-22.43 10.58,-32.256c6.37,-8.923 14.77,-15.383 25.43,-19.353c6.3,-2.4 12.45,-3.6 18.45,-3.6c11.1,0 21.53,3.82 31.43,11.4l0,-70.36l24.75,0Z" style="fill:rgb(58,141,210);fill-rule:nonzero;"/>        </g>        <g transform="matrix(0.0791008,0,0,0.0790762,255.67,39.4593)">            <path d="M446.84,161.62l-24.83,0l0,-107.644l24.83,0.001l0,107.643Zm-12.45,-154.534c4.42,0 8.1,1.511 11.02,4.66c2.93,2.921 4.35,6.6 4.35,10.8c0,4.121 -1.57,7.72 -4.8,10.871c-3.07,2.929 -6.67,4.429 -10.87,4.429c-4.05,0 -7.65,-1.5 -10.65,-4.58c-3.01,-3 -4.51,-6.6 -4.51,-10.799c0,-3.97 1.43,-7.421 4.13,-10.351c2.93,-3.22 6.68,-4.88 11.33,-5.03Z" style="fill:rgb(58,141,210);fill-rule:nonzero;"/>        </g>        <g transform="matrix(0.0791008,0,0,0.0790762,255.67,40.1773)">            <path d="M528.9,152.54c-8.7,0 -15.6,-0.75 -20.7,-2.175c-5.1,-1.5 -9.83,-4.201 -14.25,-8.176c-8.48,-7.877 -12.61,-20.03 -12.46,-36.458l0,-37.057l-18.37,0.001l0,-23.779l18.37,0l0,-37.81l24.76,0.001l0,37.809l22.65,0l0,23.779l-22.65,-0.001l0,37.733c0,8.401 1.57,14.252 4.8,17.403c3.22,3.15 9.15,4.8 17.85,4.875l0,23.855Z" style="fill:rgb(58,141,210);fill-rule:nonzero;"/>        </g>        <g transform="matrix(0.0791008,0,0,0.0790762,255.67,43.0783)">            <path d="M676.6,8.211l-24.76,92.416c-1.57,6.226 -3.6,10.652 -5.85,13.127c-2.32,2.551 -5.47,3.826 -9.37,3.826c-8.41,0 -13.81,-6.226 -16.13,-18.679l-10.35,-54.46l-11.85,58.286c-2.03,9.902 -6.76,14.853 -14.18,14.853c-3.53,0 -6.3,-0.975 -8.33,-3.076c-2.1,-2.025 -3.82,-5.551 -5.17,-10.427l-27.16,-95.866l23.33,0l16.73,70.212l11.7,-57.762c2.02,-10.2 7.13,-15.3 15.3,-15.3c7.95,0 12.9,5.1 14.78,15.3l11.33,59.712l15.37,-72.162l24.61,0Z" style="fill:rgb(152,152,152);fill-rule:nonzero;"/>        </g>        <g transform="matrix(0.0791008,0,0,0.0790762,255.67,43.1672)">            <path d="M744.41,29.889c-9.23,0 -17.11,3.525 -23.48,10.577c-5.25,5.776 -7.88,12.602 -7.88,20.554c0,9.001 3.15,16.428 9.6,22.429c6,5.701 13.13,8.551 21.53,8.551c9.6,0 17.55,-3.75 23.93,-11.102c4.8,-5.776 7.28,-12.302 7.28,-19.578c0,-9.452 -3.46,-17.254 -10.28,-23.33c-5.93,-5.176 -12.83,-7.876 -20.7,-8.101Zm0,-24.303c15.15,0 28.2,5.55 39.3,16.576c10.95,10.727 16.43,24.08 16.43,39.983c0,9.902 -2.78,19.128 -8.18,27.83c-5.32,8.552 -12.75,15.228 -22.13,19.954c-8.25,4.201 -16.87,6.301 -25.87,6.301c-15.91,0 -29.26,-5.626 -40.21,-17.028c-10.28,-10.727 -15.45,-23.405 -15.45,-38.032c0,-17.554 7.05,-32.031 21.3,-43.504c9.75,-7.96 21.38,-11.93 34.81,-12.08Z" style="fill:rgb(152,152,152);fill-rule:nonzero;"/>        </g>        <g transform="matrix(0.0791008,0,0,0.0790762,255.67,43.0897)">            <path d="M846.95,115.71l-24.76,0l0,-63.311c0,-15.154 4.05,-26.63 12.08,-34.433c7.5,-7.279 17.55,-10.88 30.3,-10.88c1.13,0 3.15,0.081 5.93,0.23l0,24.078c-9.15,0.451 -15.3,2.626 -18.6,6.527c-3.3,3.901 -4.95,10.951 -4.95,21.153l0,56.636Z" style="fill:rgb(152,152,152);fill-rule:nonzero;"/>        </g>        <g transform="matrix(-0.0791008,0,0,0.0790762,398.511,38.3863)">            <rect x="890.53" y="7.087" width="24.75" height="168.104" style="fill:rgb(152,152,152);"/>        </g>        <g transform="matrix(0.0791008,0,0,0.0790762,255.67,38.5049)">            <path d="M995.02,88.849c-9.68,0 -17.56,3.45 -23.63,10.352c-5.18,5.776 -7.8,12.602 -7.8,20.554c0,9.676 3.6,17.553 10.72,23.554c6,5.101 12.83,7.651 20.56,7.651c8.85,0 16.35,-3.225 22.27,-9.526c5.63,-6.002 8.41,-13.128 8.41,-21.454c0,-9.752 -3.3,-17.554 -9.98,-23.405c-5.48,-4.876 -12.38,-7.501 -20.55,-7.726Zm54.45,-83.263l0,104.117c0,10.727 -0.6,18.903 -1.8,24.379c-1.2,5.551 -3.45,11.027 -6.82,16.503c-5.25,8.102 -12.6,14.403 -21.98,18.979c-7.8,3.751 -15.83,5.626 -24.23,5.626c-15.08,0 -28.2,-5.401 -39.15,-16.128c-11.11,-10.877 -16.66,-23.93 -16.66,-39.307c0,-11.628 3.53,-22.43 10.58,-32.256c6.38,-8.923 14.78,-15.383 25.43,-19.353c6.3,-2.4 12.45,-3.6 18.45,-3.6c11.1,0 21.53,3.82 31.43,11.4l0,-70.36l24.75,0Z" style="fill:rgb(152,152,152);fill-rule:nonzero;"/>        </g>        <g transform="matrix(0.0791008,0,0,0.0790762,255.67,-2.31218)">            <path d="M533.7,285.84c-5.02,0.75 -10.35,1.12 -15.9,1.12c-10.43,0 -20.1,-1.42 -27.91,-3.75c-6.52,12.38 -11.62,26.86 -14.85,42.76c9.68,1.65 20.18,2.63 31.21,2.63c11.1,0 21.75,-0.98 31.5,-2.63c-0.82,-14.4 -2.1,-27.83 -4.05,-40.13Zm39.83,128.5c4.35,-9.9 8.55,-20.86 11.33,-32.56c-11.25,3.68 -24.68,6.23 -39.38,7.28c-1.35,14.03 -3.68,27.08 -6.98,38.33c24.98,-1.28 42.46,-7.88 53.48,-19.43c7.96,-11.18 13.66,-24 16.66,-37.81c-4.5,3.46 -10.35,6.61 -17.18,9.31c-4.13,13.05 -10.65,24.9 -17.93,34.88Zm-37.05,19.43c-0.9,2.7 -1.95,5.25 -3,7.65c0.52,-2.48 0.9,-5.1 1.27,-7.73c-19.73,-0.82 -36.83,-5.4 -46.81,-12.08c11.41,3.75 25.58,6.08 40.96,6.08c2.33,0 4.5,-0.07 6.68,-0.15c1.5,-11.85 2.32,-24.68 2.7,-38.03c-2.7,0.07 -5.48,0.15 -8.33,0.15c-21.98,0 -42.16,-3.3 -57.76,-8.78c0.98,9.75 2.7,18.98 5.18,27.61c-4.58,-8.78 -7.95,-18.76 -10.05,-29.48c-5.1,-2.1 -9.53,-4.43 -13.36,-6.98c4.06,1.35 8.33,2.55 12.76,3.6c-1.65,-10.2 -2.1,-21 -1.13,-32.18c0.53,-5.4 1.28,-10.65 2.33,-15.75c-5.25,-1.95 -9.83,-4.28 -13.66,-6.83c4.43,1.5 9.31,2.78 14.41,3.83c3.75,-16.21 10.5,-30.61 19.12,-42.16c-3.9,-1.35 -7.27,-2.93 -9.97,-4.65c3.45,1.12 7.27,2.02 11.4,2.7c2.02,-2.55 4.2,-5.03 6.38,-7.28c-1.5,2.4 -3.08,4.95 -4.51,7.58c5.03,0.75 10.43,1.2 16.06,1.2c9.37,0 18.07,-1.13 25.35,-3.08c-0.82,-4.65 -1.8,-9.15 -2.85,-13.42c1.88,3.9 3.6,8.17 5.18,12.82c11.55,-3.45 19.05,-9 19.05,-15.23c0,-4.05 -3.15,-7.72 -8.48,-10.8c-11.7,-4.57 -24.45,-7.12 -37.73,-7.12c-57.01,0 -103.29,46.2 -103.29,103.22c0,57.01 46.28,103.21 103.29,103.21c23.41,0 45.01,-7.8 62.26,-20.92c-8.63,1.95 -18.6,3.07 -29.1,3.07c-1.5,0 -2.93,0 -4.35,-0.07Zm0.52,-148.53c3.45,11.55 6.15,24.9 7.88,39.31c15.07,-3.38 27.75,-8.63 36.23,-15.08c-3.98,-11.63 -9.15,-22.36 -14.7,-31.66c7.27,7.8 13.95,17.26 19.12,27.83c4.73,-4.72 7.28,-9.97 7.28,-15.45l0,-0.08c-7.8,-11.4 -17.93,-21.15 -29.63,-28.65c1.35,1.8 2.1,3.75 2.1,5.7c0,8.1 -11.63,15 -28.28,18.08Zm53.93,33.76c3.3,9.9 5.18,20.4 5.18,31.43c0,3.45 -0.23,6.9 -0.6,10.27c8.4,-5.85 13.8,-12.6 15.08,-19.88c-0.98,-13.57 -4.58,-26.48 -10.35,-38.03c0,0.23 0.07,0.45 0.07,0.75c0,5.55 -3.38,10.88 -9.38,15.46Zm-118.89,27.6c-0.9,10.35 -0.9,20.48 -0.15,30.16c12.45,2.55 26.33,4.05 40.96,4.05c8.92,0 17.55,-0.6 25.73,-1.58c0.07,-5.47 0.15,-11.1 0.15,-16.73c0,-9.15 -0.23,-18.15 -0.53,-26.85c-5.4,0.52 -11.1,0.75 -16.88,0.75c-17.62,0 -33.9,-2.4 -47.03,-6.45c-0.97,5.4 -1.72,10.95 -2.25,16.65Zm115.82,18.68c0.37,-3.98 0.67,-8.1 0.67,-12.23c0,-10.43 -1.35,-20.48 -3.6,-30.08c-9.67,5.48 -23.25,9.68 -39.08,11.85c0.68,7.88 1.05,15.98 1.05,24.31c0,6.37 -0.22,12.75 -0.6,19.05c16.28,-2.62 30.53,-7.13 41.56,-12.9Z" style="fill:rgb(58,141,210);fill-rule:nonzero;"/>        </g>        <g transform="matrix(0.0791008,0,0,0.0790762,255.67,-2.31218)">            <path d="M507.52,461.82c-62.63,0 -113.34,-50.78 -113.34,-113.34c0,-62.57 50.71,-113.35 113.34,-113.35c62.56,0 113.34,50.78 113.34,113.35c0,62.56 -50.78,113.34 -113.34,113.34Zm0,-249.12c-75.01,0 -135.77,60.76 -135.77,135.78c0,75.01 60.76,135.77 135.77,135.77c74.94,0 135.77,-60.76 135.77,-135.77c0,-75.02 -60.83,-135.78 -135.77,-135.78Z" style="fill:rgb(152,152,152);fill-rule:nonzero;"/>        </g>    </g></svg>