<?xml version="1.0" encoding="UTF-8" standalone="no"?><!DOCTYPE svg PUBLIC "-//W3C//DTD SVG 1.1//EN" "http://www.w3.org/Graphics/SVG/1.1/DTD/svg11.dtd"><svg width="100%" height="100%" viewBox="0 0 1024 512" version="1.1" xmlns="http://www.w3.org/2000/svg" xmlns:xlink="http://www.w3.org/1999/xlink" xml:space="preserve" style="fill-rule:evenodd;clip-rule:evenodd;stroke-linejoin:round;stroke-miterlimit:2;"><title>VIASMS PL</title><desc>VIA SMS PL Sp. z o.o. (operating under the brand VIASMS.pl) is consumer lending company founded in 2011 that is registered and operating in Poland. VIASMS.pl offers short-term consumer lending services:	•	Payday loans - short-term consumer loan up to PLN 4000 with a loan term up to 30 days. VIASMS.pl offers fast and convenient lending by ensuring online application process and 0% fee for the first loan.</desc>    <g transform="matrix(2.62867,0,0,2.62867,2.07636,46.7807)">        <path d="M79.5,159.2c-41.9,0 -77.1,-32.9 -79.4,-75.3c-1.2,-21.2 6,-41.6 20.3,-57.4c14.2,-15.9 33.7,-25.2 54.9,-26.4c25.7,-1.4 50.5,9.8 66.6,29.9c1.2,1.5 1,3.7 -0.6,4.9c-1.5,1.2 -3.7,1 -4.9,-0.6c-14.6,-18.3 -37.3,-28.5 -60.7,-27.2c-19.3,1.1 -37.1,9.6 -50.1,24c-13,14.5 -19.6,33.1 -18.5,52.4c2.2,40 36.5,70.8 76.4,68.6c20.8,-1.1 40.2,-11.2 53.1,-27.6c1.2,-1.5 3.4,-1.8 4.9,-0.6c1.5,1.2 1.8,3.4 0.6,4.9c-14.2,18 -35.4,29 -58.3,30.2c-1.4,0.2 -2.8,0.2 -4.3,0.2Z" style="fill:url(#_Linear1);fill-rule:nonzero;"/>        <g>            <path d="M161.1,102.2c-2.5,-1 -4.6,-2.4 -6.2,-4.3l3.7,-5c1.5,1.5 3.1,2.6 4.8,3.4c1.7,0.8 3.4,1.2 5,1.2c2,0 3.7,-0.4 5,-1.2c1.3,-0.8 1.9,-2 1.9,-3.7c0,-1.3 -0.4,-2.3 -1.2,-3.1c-0.8,-0.8 -1.7,-1.4 -2.7,-1.7c-1,-0.4 -2.7,-0.9 -5.1,-1.7c-6.5,-2.1 -9.8,-5.8 -9.8,-11.1c0,-3.2 1.2,-5.9 3.5,-8.2c2.4,-2.3 5.7,-3.4 9.9,-3.4c2.7,0 5.1,0.3 7.2,1c2.1,0.7 4,1.7 5.8,3.2l-3.4,5.2c-1,-1 -2.2,-1.9 -3.7,-2.5c-1.5,-0.6 -2.9,-1 -4.3,-1c-1.7,0 -3.2,0.4 -4.4,1.2c-1.2,0.8 -1.8,1.9 -1.8,3.4c0,1.2 0.4,2.1 1.2,2.9c0.8,0.8 1.6,1.3 2.5,1.7c0.9,0.3 2.5,0.9 5.1,1.7c3.1,1 5.6,2.4 7.3,4c1.7,1.7 2.6,3.9 2.6,6.7c0,3.7 -1.3,6.7 -3.9,9.1c-2.6,2.4 -6.2,3.6 -10.9,3.6c-2.9,0.1 -5.6,-0.4 -8.1,-1.4Z" style="fill:rgb(0,58,81);fill-rule:nonzero;"/>            <path d="M253.5,66.4c2.2,2.1 3.3,4.8 3.5,8.3l0,28.2l-8.6,0l0,-25.1c-0.2,-4.5 -2.2,-6.8 -6.1,-7.1c-2.2,0 -4.2,0.7 -5.9,2c-1.7,1.3 -3.1,3.1 -4.1,5.2c-1,2.1 -1.5,4.4 -1.6,6.9l0,18.1l-8.6,0l0,-25.1c-0.2,-4.5 -2.3,-6.8 -6.3,-7.1c-2.1,0 -4.1,0.7 -5.8,2c-1.7,1.3 -3.1,3.1 -4.1,5.2c-1,2.2 -1.5,4.5 -1.5,6.9l0,18l-8.6,0l0,-38l7.7,0l0.6,7.2c1.5,-2.8 3.5,-4.9 6,-6.4c2.5,-1.5 5.4,-2.3 8.7,-2.3c3.1,0 5.6,0.7 7.7,2.2c2.1,1.4 3.4,3.4 4,5.9c1.6,-2.5 3.6,-4.5 6.1,-5.9c2.5,-1.4 5.1,-2.2 7.9,-2.2c3.9,-0.1 6.9,1 9,3.1Z" style="fill:rgb(0,58,81);fill-rule:nonzero;"/>            <path d="M274.5,102.2c-2.5,-1 -4.6,-2.4 -6.2,-4.3l3.7,-5c1.5,1.5 3.1,2.6 4.8,3.4c1.7,0.8 3.4,1.2 5,1.2c2,0 3.7,-0.4 5,-1.2c1.3,-0.8 1.9,-2 1.9,-3.7c0,-1.3 -0.4,-2.3 -1.2,-3.1c-0.8,-0.8 -1.7,-1.4 -2.7,-1.7c-1,-0.4 -2.7,-0.9 -5.1,-1.7c-6.5,-2.1 -9.8,-5.8 -9.8,-11.1c0,-3.2 1.2,-5.9 3.5,-8.2c2.4,-2.3 5.7,-3.4 9.9,-3.4c2.7,0 5.1,0.3 7.2,1c2.1,0.7 4,1.7 5.8,3.2l-3.4,5.2c-1,-1 -2.2,-1.9 -3.7,-2.5c-1.5,-0.6 -2.9,-1 -4.3,-1c-1.7,0 -3.2,0.4 -4.4,1.2c-1.2,0.8 -1.8,1.9 -1.8,3.4c0,1.2 0.4,2.1 1.2,2.9c0.8,0.8 1.6,1.3 2.5,1.7c0.9,0.3 2.5,0.9 5.1,1.7c3.1,1 5.6,2.4 7.3,4c1.7,1.6 2.6,3.9 2.6,6.7c0,3.7 -1.3,6.7 -3.9,9.1c-2.6,2.4 -6.2,3.6 -10.9,3.6c-2.9,0.1 -5.6,-0.4 -8.1,-1.4Z" style="fill:rgb(0,58,81);fill-rule:nonzero;"/>            <path d="M306.5,94.5c1,-1 2.1,-1.5 3.4,-1.5c1.2,0 2.3,0.5 3.3,1.5c1,1 1.5,2.1 1.5,3.5c0,1.4 -0.5,2.6 -1.5,3.5c-1,0.9 -2.1,1.4 -3.3,1.4c-1.3,0 -2.4,-0.5 -3.4,-1.4c-1,-0.9 -1.5,-2.1 -1.5,-3.5c0,-1.3 0.5,-2.5 1.5,-3.5Z" style="fill:rgb(0,58,81);fill-rule:nonzero;"/>            <path d="M358.6,65.8c2.9,1.7 5.2,4.1 6.8,7.2c1.7,3.1 2.5,6.7 2.5,10.7c0,4 -0.9,7.5 -2.7,10.5c-1.8,3 -4.2,5.4 -7.4,7c-3.1,1.7 -6.6,2.5 -10.5,2.5c-2.8,0 -5.4,-0.6 -7.9,-1.8c-2.5,-1.2 -4.5,-2.8 -6.1,-4.8l0,24l-8.6,0l0,-57l7.5,0l0.7,6.4c2,-2.2 4.3,-4 7,-5.3c2.7,-1.3 5.7,-2 8.9,-2c3.7,0 7,0.9 9.8,2.6Zm-6.2,29.4c2.1,-1.1 3.7,-2.7 4.9,-4.7c1.2,-2 1.8,-4.2 1.8,-6.7c0,-2.5 -0.6,-4.8 -1.7,-6.8c-1.1,-2 -2.7,-3.6 -4.6,-4.8c-2,-1.2 -4.1,-1.7 -6.5,-1.7c-3.3,0 -6,0.9 -8.3,2.7c-2.3,1.8 -3.8,4.2 -4.6,7.3l0,6.3c0.5,2.9 1.9,5.4 4.2,7.2c2.3,1.9 5,2.8 8.1,2.8c2.4,0.1 4.7,-0.5 6.7,-1.6Z" style="fill:rgb(0,58,81);fill-rule:nonzero;"/>            <rect x="379.4" y="31.6" width="8.6" height="71.3" style="fill:rgb(0,58,81);fill-rule:nonzero;"/>            <path d="M70.1,64.4l-20.6,39.7l-0.5,0l-21.4,-39.7l10.3,0l11.7,24.6l10.8,-24.6l9.7,0Z" style="fill:rgb(0,58,81);fill-rule:nonzero;"/>            <path d="M80.4,47.1c1.1,-0.9 2.3,-1.4 3.6,-1.4c1.4,0 2.6,0.5 3.6,1.4c1,0.9 1.5,2.1 1.5,3.4c0,1.4 -0.5,2.5 -1.5,3.5c-1,0.9 -2.2,1.4 -3.6,1.4c-1.4,0 -2.6,-0.5 -3.6,-1.4c-1.1,-0.9 -1.6,-2.1 -1.6,-3.5c0,-1.4 0.5,-2.5 1.6,-3.4Zm7.7,17.3l0,38.6l-8.7,0l0,-38.6l8.7,0Z" style="fill:rgb(0,58,81);fill-rule:nonzero;"/>            <path d="M142.8,64.4l0,38.6l-8.7,0l0,-6.3c-1.4,1.8 -3.4,3.5 -6,5c-2.6,1.5 -5.6,2.3 -8.9,2.3c-3.7,0 -7,-0.8 -9.9,-2.4c-3,-1.6 -5.3,-3.9 -7,-6.9c-1.7,-3 -2.6,-6.7 -2.6,-10.9c0,-4.2 0.9,-7.9 2.7,-11c1.8,-3.1 4.2,-5.6 7.2,-7.3c3,-1.7 6.4,-2.6 10,-2.6c3.3,0 6.2,0.7 8.6,2.1c2.4,1.4 4.4,3.3 5.9,5.6l0.7,-6.2l8,0Zm-13,29.7c2.3,-1.8 3.7,-4.2 4.3,-7.2l0,-7.6c-0.7,-2.7 -2.3,-5 -4.7,-6.7c-2.4,-1.7 -5.1,-2.6 -8.1,-2.6c-2.3,0 -4.4,0.6 -6.4,1.7c-2,1.1 -3.5,2.7 -4.7,4.7c-1.2,2 -1.7,4.3 -1.7,6.9c0,2.5 0.6,4.8 1.8,6.8c1.2,2.1 2.8,3.7 4.8,4.9c2,1.2 4.2,1.8 6.5,1.8c3.2,0 6,-0.9 8.2,-2.7Z" style="fill:rgb(0,58,81);fill-rule:nonzero;"/>        </g>    </g>    <defs>        <linearGradient id="_Linear1" x1="0" y1="0" x2="1" y2="0" gradientUnits="userSpaceOnUse" gradientTransform="matrix(142.87,0,0,142.87,-0.0290507,79.5914)"><stop offset="0" style="stop-color:rgb(206,76,113);stop-opacity:1"/><stop offset="1" style="stop-color:rgb(1,58,81);stop-opacity:1"/></linearGradient>    </defs></svg>