<?xml version="1.0" encoding="UTF-8" standalone="no"?><!DOCTYPE svg PUBLIC "-//W3C//DTD SVG 1.1//EN" "http://www.w3.org/Graphics/SVG/1.1/DTD/svg11.dtd"><svg width="100%" height="100%" viewBox="0 0 1024 512" version="1.1" xmlns="http://www.w3.org/2000/svg" xmlns:xlink="http://www.w3.org/1999/xlink" xml:space="preserve" style="fill-rule:evenodd;clip-rule:evenodd;stroke-linejoin:round;stroke-miterlimit:2;"><title>Euro Groshi</title><desc>Established in 2016, Euro Groshi prides itself on its unique business model. The company has implemented European norms and business principles in Ukraine. Euro Groshi takes Ukraine’s political and financial circumstances very seriously, hence their main task is to make lending processes in Ukraine much easier, more convenient and faster. On top of that, they take customer service very seriously and put a strong emphasis on responsible lending. Taking into consideration legal requirements, investors are able to obtain exposure to Euro Groshi loans by investing in loans issued by Shareholder of Euro Groshi which is Lithuanian company, Imarina, LLC.</desc>    <g transform="matrix(2.05227,0,0,2.05227,-1.40904,104.142)">        <g>            <path d="M29.019,0.041l205.587,0c8.175,2.281 16.431,6.194 21.154,13.589c3.862,5.484 5.283,12.288 5.163,18.922l0,69.577c-0.33,3.522 1.942,6.374 3.713,9.186c8.065,12.188 15.8,24.596 24.016,36.634l-261.174,0c-6.784,-1.811 -13.709,-4.813 -18.242,-10.537c-3.928,-4.327 -6.554,-9.676 -7.575,-15.43l0,-94.563c1.341,-5.263 3.012,-10.637 6.344,-15.01c4.924,-6.914 13.009,-10.517 21.014,-12.368Z" style="fill:rgb(86,194,241);fill-rule:nonzero;"/>            <path d="M287.621,37.446c12.488,-0.12 25.017,0 37.465,0c-0.12,3.402 -0.13,6.804 0,10.207c-8.566,0.34 -17.142,0.13 -25.707,0.16c0,17.381 0.44,34.803 -0.22,52.174c-3.83,-0.086 -7.669,-0.086 -11.518,0c-0.1,-20.894 -0.05,-41.727 -0.02,-62.541Z" style="fill:rgb(86,194,241);fill-rule:nonzero;"/>            <path d="M489.185,40.658c3.392,-1.851 8.515,-0.571 9.486,3.432l0,4.573c-1.001,4.463 -5.313,5.314 -8.486,4.213c-5.543,-1.241 -6.184,-9.987 -1,-12.218Z" style="fill:rgb(86,194,241);fill-rule:nonzero;"/>            <path d="M313.698,58.079l10.797,0l0,5.444c4.724,-5.904 12.939,-7.885 20.014,-5.514c8.135,2.912 11.728,12.349 11.447,20.414c0.371,8.235 -3.952,16.921 -11.717,20.283c-6.004,2.912 -12.799,2.322 -19.013,0.611c-0.12,6.451 -0.12,12.898 0,19.343c-3.873,0.13 -7.765,0.15 -11.638,0.1c0.03,-20.224 -0.1,-40.447 0.11,-60.681Zm11.698,11.598c-0.47,7.425 0,14.88 -0.18,22.325c5.263,1.211 11.878,2.001 15.87,-2.532c4.153,-5.353 4.303,-13.219 1.521,-19.232c-2.981,-6.515 -13.679,-6.505 -17.211,-0.541l0,-0.02Z" style="fill:rgb(86,194,241);fill-rule:nonzero;"/>            <path d="M376.44,58.44c7.115,-2.472 15.55,-2.132 22.095,1.791c11.777,7.605 11.888,27.448 0.43,35.383c-7.605,4.914 -18.012,4.884 -25.857,0.461c-13.469,-8.216 -11.868,-32.222 3.332,-37.635Zm4.453,7.144c-6.434,3.843 -6.584,13.139 -4.493,19.523c1.831,7.575 13.739,9.006 17.442,2.292c3.001,-5.164 3.001,-11.888 0.78,-17.332c-2.041,-5.273 -8.966,-7.084 -13.729,-4.483Z" style="fill:rgb(86,194,241);fill-rule:nonzero;"/>            <path d="M415.126,57.259c3.655,0 7.325,0.02 11.007,0.06c-0.25,10.897 -0.15,21.814 -0.07,32.722l14.7,0c-0.087,-10.901 -0.087,-21.801 0,-32.702c3.672,0 7.355,-0.06 11.007,0c0.087,10.901 0.087,21.808 0,32.722c4.893,0.06 9.806,0 14.7,0.1c0.07,-10.918 0.1,-21.835 0,-32.752c3.712,-0.12 7.445,-0.12 11.167,0.06c-0.18,14.083 -0.18,28.159 0,42.228c-20.824,0.46 -41.668,0.13 -62.511,0.16c-0.14,-14.249 -0.17,-28.429 0,-42.598Z" style="fill:rgb(86,194,241);fill-rule:nonzero;"/>            <path d="M486.593,58.079c4.003,0 8.005,0 12.068,0.121l0,41.177l-12.088,0c-0.05,-13.739 -0.08,-27.518 0.02,-41.298Z" style="fill:rgb(86,194,241);fill-rule:nonzero;"/>        </g>        <g>            <path d="M43.029,53.256c9.776,-11.477 27.018,-11.938 40.326,-7.205c-0.46,3.002 -1,6.004 -1.631,9.006c-7.915,-1.771 -16.761,-3.162 -24.256,0.771c-4.553,2.422 -7.115,7.305 -7.585,12.338c7.945,0.28 15.891,0.09 23.826,0.25c-0.06,3.192 -0.06,6.395 0,9.587c-7.895,-0.07 -15.811,-0.301 -23.696,0.25c0.841,4.483 2.822,9.006 7.005,11.327c7.515,4.203 16.671,2.912 24.646,0.831c0.651,2.942 1.331,5.874 1.921,8.826c-11.327,4.323 -25.016,4.673 -35.443,-2.172c-13.819,-9.476 -15.12,-31.14 -5.113,-43.809Z" style="fill:white;fill-rule:nonzero;"/>            <path d="M90.85,59.64c8.516,0.401 17.082,-0.34 25.587,0.431c5.064,0.55 11.388,3.552 10.858,9.566c0.8,5.724 -4.884,8.316 -8.806,11.007c3.802,1.001 8.285,1.852 10.006,5.574c0.701,2.98 0.405,6.11 -0.84,8.906c-2.542,4.233 -7.795,5.814 -12.438,6.254c-8.126,0.44 -16.261,-0.1 -24.397,0.3c0.094,-14.022 0.104,-28.035 0.03,-42.038Zm12.649,8.006l0,9.596c4.172,-0.12 11.357,0.951 12.008,-4.803c0.2,-6.354 -7.916,-4.653 -12.018,-4.773l0.01,-0.02Zm0,16.261c-0.047,3.222 -0.067,6.437 -0.06,9.646c4.293,-0.22 12.678,1.861 12.688,-4.763c0.01,-6.625 -8.255,-4.773 -12.608,-4.863l-0.02,-0.02Z" style="fill:white;fill-rule:nonzero;"/>            <path d="M136.2,59.62c3.813,0.091 7.636,0.101 11.438,0.07c0.1,1.792 0.21,3.583 0.33,5.374c3.463,-2.852 7.175,-6.124 12.008,-6.084c8.006,-1.001 14.87,5.594 16.831,12.909c2.622,9.426 0.691,21.444 -8.145,27.018c-6.004,4.082 -13.539,3.122 -20.364,2.901c0,6.085 -0.13,11.758 -0.16,17.672c-4.002,-0.046 -7.975,-0.046 -11.918,0c-0.64,-19.933 -0.73,-39.936 -0.02,-59.86Zm16.852,9.006c-1.822,0.671 -4.493,1.772 -4.463,4.063c-0.15,6.595 -0.251,13.259 0.19,19.833c4.853,1.451 11.407,1.241 14.289,-3.592c2.882,-4.833 2.532,-10.827 0.801,-15.871c-1.471,-4.403 -6.765,-5.553 -10.827,-4.413l0.01,-0.02Z" style="fill:white;fill-rule:nonzero;"/>            <path d="M198.932,59.841c7.005,-1.802 14.91,-1.061 21.014,3.002c11.888,8.465 11.107,29.609 -2.001,36.584c-8.296,4.213 -19.233,3.592 -26.758,-2.001c-12.378,-10.067 -8.606,-33.913 7.745,-37.585Zm3.002,8.805c-6.494,4.093 -6.744,13.92 -3.532,20.194c2.902,6.394 13.168,5.784 15.87,-0.46c2.071,-4.954 2.071,-10.537 0,-15.491c-1.821,-4.803 -7.995,-6.184 -12.338,-4.243Z" style="fill:white;fill-rule:nonzero;"/>        </g>    </g></svg>