<?xml version="1.0" encoding="UTF-8" standalone="no"?><!DOCTYPE svg PUBLIC "-//W3C//DTD SVG 1.1//EN" "http://www.w3.org/Graphics/SVG/1.1/DTD/svg11.dtd"><svg width="100%" height="100%" viewBox="0 0 1024 512" version="1.1" xmlns="http://www.w3.org/2000/svg" xmlns:xlink="http://www.w3.org/1999/xlink" xml:space="preserve" style="fill-rule:evenodd;clip-rule:evenodd;stroke-linejoin:round;stroke-miterlimit:2;"><title>Grundag</title><desc>A new real estate crowdfunding platform has launched in Germany. Grundag GmbH &amp; Co., a wholly-owned subsidiary of CrowdDesk, has launched to provide debt based crowdfunding for German real estate projects. The new site was launched in partnership with ERGE Miet- &amp; Finanzvermittlung GmbH &amp; Co. KG.</desc>    <g transform="matrix(0.587948,0,0,0.587948,2.56672,105.485)">        <g transform="matrix(1,0,0,1,0,70.7369)">            <path d="M282.545,45.71l-6.728,-1.084c0,0 -78.449,-12.571 -129.742,-39.484l-3.5,-1.836l-3.585,1.664c-62.545,29.027 -133.144,39.643 -133.144,39.643l-6.81,1.025l0,220.487l0.842,1.687c0,0 39.168,79.016 140.908,99.408l3.265,-0.025c110.437,-23.92 137.998,-100.183 137.998,-100.183l0.496,-1.342l0,-219.96Zm-140.383,-24.598c-51.817,23.393 -107.998,34.754 -127.126,38.173l0,202.941c5.883,10.546 43.112,71.423 127.261,88.97c91.393,-20.41 120.286,-79.425 124.248,-88.542l0,-203.424c-20.02,-3.702 -80.562,-16.134 -124.383,-38.118Z" style="fill:rgb(189,210,220);"/>            <path d="M94.95,153.092l-25.72,-6.597l0,62.147l18.229,10.558l18.653,-4.594l0,-12.545l-17.107,-3.031l0,-44.646l5.945,-1.292Z" style="fill:rgb(87,135,158);"/>            <path d="M106.009,200.298l-17.004,-8.633l0,-3.494l17.049,4.73l-0.045,7.397Z" style="fill:rgb(118,163,188);"/>            <path d="M40.478,250.692l0,-177.401l102.487,-30.526l0.168,76.629l-74.093,14.219l0,74.96l36.945,21.278l-0.12,-41.981l-17.278,-2.967l0,-30.104l53.559,-10.618l0,182.709c0,0 -33.808,-11.678 -55.732,-24.13c-23.164,-13.156 -45.936,-52.068 -45.936,-52.068Z" style="fill:rgb(189,210,220);"/>            <path d="M244.116,163.07l0,87.622c0,0 -22.772,38.912 -45.936,52.068c-21.924,12.452 -55.732,24.13 -55.732,24.13l0,-182.709l101.668,18.889Zm0,-21.053l-102.655,-22.623l0.168,-76.629l102.487,30.526l0,68.726Z" style="fill:rgb(118,163,188);"/>            <path d="M160.732,199.413l83.384,-8.848l-100.695,-20.118l0,25.086l17.311,3.88Z" style="fill:rgb(58,106,125);"/>            <path d="M89.637,184.943l0,2.934l16.461,5.267l0,-4.913l-16.461,-3.288Z" style="fill:rgb(58,106,125);"/>        </g>        <g transform="matrix(5.54247,0,0,4.47006,-1796.55,-1020.31)">            <g transform="matrix(0.180425,0,0,0.223711,324.143,256.675)">                <path d="M483.632,147.156l0,68.759c0,1.068 -0.619,2.04 -1.587,2.492c-17.891,8.349 -46.672,12.559 -65.994,12.559c-28.092,0 -49.853,-9.101 -65.352,-27.143c-15.375,-17.897 -23.159,-42.55 -23.159,-74.02c0,-31.242 8.022,-55.846 23.883,-73.87c15.942,-18.116 43.134,-28.992 69.945,-28.992c18.36,0 40.46,1.512 59.535,9.142c1.044,0.417 1.729,1.429 1.729,2.553l0,44.989c0,1.519 -1.232,2.75 -2.75,2.75l-21.332,0c-1.518,0 -2.75,-1.231 -2.75,-2.75l0,-29.217c-5.007,-1.203 -16.312,-2.55 -29.383,-1.345c-15.038,1.385 -32.444,6.157 -45.282,18.704c-10.992,10.744 -18.545,27.183 -18.545,51.918c0,40.129 13.133,60.726 29.944,70.648c23.317,13.761 53.157,7.141 62.86,4.539l0,-51.716l-29.205,0c-1.518,0 -2.75,-1.231 -2.75,-2.75l0,-17.574c0,-1.519 1.232,-2.75 2.75,-2.75l68.752,0c1.518,0 2.75,1.231 2.75,2.75l0,17.574c0,1.519 -1.232,2.75 -2.75,2.75l-11.309,0Z" style="fill:rgb(184,50,40);fill-rule:nonzero;"/>            </g>            <g transform="matrix(0.180425,0,0,0.223711,324.143,256.675)">                <path d="M546.368,55.227l-15.878,0c-1.519,0 -2.75,-1.231 -2.75,-2.75l0,-18.574c0,-1.518 1.231,-2.75 2.75,-2.75l82.157,0c22.723,0 75.783,4.35 75.523,55.897c-0.168,33.358 -21.194,45.114 -32.455,50.552c-1.689,0.816 -3.142,1.477 -4.236,2.047c0.976,1.639 2.3,4.145 3.819,7.274c7.818,16.101 22.231,49.608 25.593,57.455l15.759,0c1.519,0 2.75,1.231 2.75,2.75l0,17.574c0,1.518 -1.231,2.75 -2.75,2.75c0,0 -16.941,0 -26.815,0c-5.247,0 -10.021,-3.037 -12.246,-7.792c-1.783,-3.821 -3.517,-7.339 -5.201,-10.553c-2.566,-4.9 -5.016,-9.449 -7.349,-13.648c-0.006,-0.012 -0.013,-0.024 -0.019,-0.036l-13.003,-24.249c-3.272,-5.764 -6.846,-17.638 -10.618,-24.258c-0.669,-1.174 -1.327,-2.161 -2.01,-2.842c-0.203,-0.201 -0.565,-0.442 -0.642,-0.492l-40.79,0l0,60.796l24.338,0c1.519,0 2.75,1.231 2.75,2.75l0,17.574c0,1.518 -1.231,2.75 -2.75,2.75l-74.266,0c-1.518,0 -2.75,-1.232 -2.75,-2.75l0,-17.574c0,-1.519 1.232,-2.75 2.75,-2.75l18.339,0l0,-149.151Zm31.589,61.281l30.121,0c14.271,0 25.059,-2.498 32.306,-7.738c6.957,-5.031 10.284,-13.176 10.284,-24.308c0,-10.817 -2.905,-18.437 -9.161,-22.679c-6.579,-4.46 -16.921,-6.556 -30.969,-6.556l-32.581,0l0,61.281Z" style="fill:rgb(184,50,40);fill-rule:nonzero;"/>            </g>            <g transform="matrix(0.180425,0,0,0.223711,324.143,256.675)">                <path d="M729.018,55.227l-16.338,0c-1.519,0 -2.75,-1.231 -2.75,-2.75l0,-17.574c0,-1.518 1.231,-2.75 2.75,-2.75l65.266,0c1.519,0 2.75,1.232 2.75,2.75l0,17.574c0,1.519 -1.231,2.75 -2.75,2.75l-16.339,0l0,108.669c0,13.954 14.976,39.239 53.591,39.239c29.841,0 44.699,-26.426 44.699,-40.293l0,-107.615l-18.69,0c-1.519,0 -2.75,-1.231 -2.75,-2.75l0,-17.574c0,-1.518 1.231,-2.75 2.75,-2.75l62.212,0c1.519,0 2.75,1.232 2.75,2.75l0,17.574c0,1.519 -1.231,2.75 -2.75,2.75l-12.339,0l0,106.56c0,12.302 -4.805,34.752 -22.3,50.745c-11.601,10.605 -28.786,18.434 -53.934,18.434c-38.291,0 -59.639,-11.678 -71.485,-25.663c-12.009,-14.179 -14.343,-30.889 -14.343,-41.056l0,-109.02Z" style="fill:rgb(184,50,40);fill-rule:nonzero;"/>            </g>            <g transform="matrix(0.180425,0,0,0.223711,324.143,256.675)">                <path d="M957.331,55.227l-18.338,0c-1.519,0 -2.75,-1.231 -2.75,-2.75l0,-17.574c0,-1.518 1.231,-2.75 2.75,-2.75l52.177,0c0.903,0 1.749,0.444 2.262,1.187l96.749,139.98l0,-118.093l-18.339,0c-1.519,0 -2.75,-1.231 -2.75,-2.75l0,-17.574c0,-1.518 1.231,-2.75 2.75,-2.75l67.86,0c1.519,0 2.75,1.232 2.75,2.75l0,17.574c0,1.519 -1.231,2.75 -2.75,2.75l-18.338,0l0,169.475c0,1.518 -1.232,2.75 -2.75,2.75l-26.386,0c-0.888,0 -1.721,-0.429 -2.237,-1.151l-101.477,-141.978l0,118.055l18.339,0c1.519,0 2.75,1.231 2.75,2.75l0,19.574c0,1.518 -1.231,2.75 -2.75,2.75l-67.86,0c-1.519,0 -2.75,-1.232 -2.75,-2.75l0,-19.574c0,-1.519 1.231,-2.75 2.75,-2.75l18.338,0l0,-147.151Z" style="fill:rgb(184,50,40);fill-rule:nonzero;"/>            </g>            <g transform="matrix(0.180425,0,0,0.223711,324.143,256.675)">                <path d="M1193.13,55.227l-18.339,0c-1.519,0 -2.75,-1.231 -2.75,-2.75l0,-19.574c0,-1.518 1.231,-2.75 2.75,-2.75l76.915,0c18.753,0 50.91,-1.243 73.679,18.851c15.22,13.432 26.427,36.401 26.427,75.878c0,42.636 -12.178,67.493 -28.58,82.05c-24.56,21.798 -58.98,20.52 -77.853,20.52l-70.588,0c-1.519,0 -2.75,-1.232 -2.75,-2.75l0,-19.574c0,-1.519 1.231,-2.75 2.75,-2.75l18.339,0l0,-147.151Zm32.588,147.151l22.121,0c21.844,0 38.735,-4.095 50.557,-16.48c11.907,-12.475 17.692,-32.144 17.692,-58.907c0,-24.894 -5.261,-43.162 -16.124,-54.703c-10.818,-11.495 -28.233,-17.061 -52.125,-17.061l-22.121,0l0,147.151Z" style="fill:rgb(184,50,40);fill-rule:nonzero;"/>            </g>            <g transform="matrix(0.180425,0,0,0.223711,324.143,256.675)">                <path d="M1376.53,204.378l55.97,-172.082c0.368,-1.133 1.424,-1.9 2.615,-1.9l45.386,0c1.185,0 2.237,0.76 2.61,1.885l57.018,172.097l14.534,0c1.518,0 2.75,1.231 2.75,2.75l0,17.574c0,1.518 -1.232,2.75 -2.75,2.75l-66.237,0c-1.519,0 -2.75,-1.232 -2.75,-2.75l0,-17.574c0,-1.519 1.231,-2.75 2.75,-2.75l18.76,0l-10.391,-31.222l-79.586,0l-8.094,31.222l17.075,0c1.518,0 2.75,1.231 2.75,2.75l0,17.574c0,1.518 -1.232,2.75 -2.75,2.75l-65.237,0c-1.519,0 -2.75,-1.232 -2.75,-2.75l0,-17.574c0,-1.519 1.231,-2.75 2.75,-2.75l15.577,0Zm52.786,-58.676l54.858,0.492l-27.92,-78.896l-26.938,78.404Z" style="fill:rgb(184,50,40);fill-rule:nonzero;"/>            </g>            <g transform="matrix(0.180425,0,0,0.223711,324.143,256.675)">                <path d="M1719.82,147.156l0,68.759c0,1.068 -0.619,2.04 -1.588,2.492c-17.891,8.349 -46.671,12.559 -65.993,12.559c-28.092,0 -49.853,-9.101 -65.352,-27.143c-15.375,-17.897 -23.159,-42.55 -23.159,-74.02c0,-31.242 8.022,-55.846 23.883,-73.87c15.942,-18.116 43.134,-28.992 69.945,-28.992c18.36,0 40.46,1.512 59.535,9.142c1.044,0.417 1.729,1.429 1.729,2.553l0,44.989c0,1.519 -1.232,2.75 -2.75,2.75l-21.332,0c-1.519,0 -2.75,-1.231 -2.75,-2.75l0,-29.217c-5.007,-1.203 -16.312,-2.55 -29.383,-1.345c-15.038,1.385 -32.444,6.157 -45.282,18.704c-10.992,10.744 -18.545,27.183 -18.545,51.918c0,40.129 13.133,60.726 29.944,70.648c23.317,13.761 53.157,7.141 62.86,4.539l0,-51.716l-29.205,0c-1.518,0 -2.75,-1.231 -2.75,-2.75l0,-17.574c0,-1.519 1.232,-2.75 2.75,-2.75l68.752,0c1.518,0 2.75,1.231 2.75,2.75l0,17.574c0,1.519 -1.232,2.75 -2.75,2.75l-11.309,0Z" style="fill:rgb(184,50,40);fill-rule:nonzero;"/>            </g>        </g>    </g></svg>