<?xml version="1.0" encoding="UTF-8" standalone="no"?><!DOCTYPE svg PUBLIC "-//W3C//DTD SVG 1.1//EN" "http://www.w3.org/Graphics/SVG/1.1/DTD/svg11.dtd"><svg width="100%" height="100%" viewBox="0 0 1024 512" version="1.1" xmlns="http://www.w3.org/2000/svg" xmlns:xlink="http://www.w3.org/1999/xlink" xml:space="preserve" style="fill-rule:evenodd;clip-rule:evenodd;stroke-linejoin:round;stroke-miterlimit:2;"><title>Workinvoice</title><desc>Workinvoice is the first Italian platform via the web that allows SMEs to sell their invoices issued to large companies in a more flexible way than using traditional channels (factoring and banks), all thanks to a public auction mechanism involving institutional and professional investors.</desc>    <g transform="matrix(5.1966,0,0,5.1966,-1722.95,-1085.6)">        <g transform="matrix(2,0,0,2,-1239.76,99.336)">            <path d="M826.758,85.683c-0.777,-0.007 -1.475,-0.156 -2.09,-0.456c-0.611,-0.296 -1.135,-0.714 -1.563,-1.244c-0.43,-0.534 -0.758,-1.155 -0.985,-1.863c-0.225,-0.705 -0.337,-1.472 -0.34,-2.296c0.003,-0.783 0.084,-1.456 0.236,-2.018c0.157,-0.565 0.369,-1.033 0.64,-1.407c0.269,-0.374 0.574,-0.667 0.914,-0.886c0.343,-0.215 0.702,-0.368 1.076,-0.462c0.378,-0.09 0.749,-0.134 1.12,-0.131c0.668,0.003 1.292,0.134 1.869,0.393c0.574,0.262 1.08,0.64 1.516,1.133c0.434,0.493 0.774,1.089 1.017,1.79c0.243,0.702 0.368,1.492 0.371,2.374c-0.003,0.752 -0.068,1.401 -0.199,1.95c-0.128,0.546 -0.303,1.005 -0.521,1.379c-0.222,0.374 -0.465,0.674 -0.734,0.908c-0.271,0.231 -0.548,0.405 -0.829,0.527c-0.284,0.122 -0.555,0.206 -0.814,0.246c-0.259,0.044 -0.487,0.066 -0.684,0.063Zm-0.673,0.861c0.851,-0.003 1.634,-0.113 2.349,-0.328c0.717,-0.215 1.356,-0.521 1.918,-0.914c0.562,-0.396 1.039,-0.861 1.432,-1.404c0.393,-0.539 0.692,-1.135 0.898,-1.79c0.203,-0.652 0.309,-1.345 0.309,-2.078c-0.003,-0.914 -0.159,-1.737 -0.468,-2.47c-0.308,-0.73 -0.757,-1.357 -1.341,-1.875c-0.587,-0.518 -1.295,-0.914 -2.122,-1.189c-0.829,-0.278 -1.765,-0.415 -2.807,-0.418c-0.833,0.003 -1.582,0.094 -2.246,0.275c-0.668,0.177 -1.254,0.424 -1.766,0.739c-0.511,0.312 -0.948,0.674 -1.316,1.086c-0.365,0.408 -0.665,0.845 -0.899,1.31c-0.234,0.465 -0.405,0.939 -0.515,1.419c-0.112,0.48 -0.165,0.948 -0.165,1.404c0,0.474 0.057,0.955 0.165,1.445c0.113,0.486 0.285,0.963 0.518,1.428c0.231,0.465 0.528,0.899 0.89,1.304c0.362,0.402 0.792,0.761 1.288,1.067c0.499,0.309 1.07,0.549 1.716,0.724c0.642,0.174 1.363,0.262 2.162,0.265Zm12.072,-11.137c0,-0.066 0.01,-0.116 0.031,-0.147c0.025,-0.034 0.063,-0.062 0.119,-0.078c0.087,-0.018 0.222,-0.034 0.396,-0.043c0.175,-0.009 0.368,-0.013 0.577,-0.013c0.197,-0.003 0.409,0.025 0.634,0.078c0.227,0.053 0.449,0.144 0.67,0.269c0.219,0.127 0.421,0.299 0.602,0.514c0.181,0.216 0.328,0.487 0.434,0.808c0.109,0.325 0.165,0.708 0.168,1.158c-0.003,0.433 -0.059,0.808 -0.165,1.113c-0.103,0.309 -0.237,0.565 -0.399,0.768c-0.162,0.199 -0.331,0.362 -0.502,0.477c-0.091,0.069 -0.184,0.122 -0.281,0.159c-0.097,0.038 -0.212,0.066 -0.349,0.081c-0.138,0.016 -0.316,0.022 -0.531,0.022c-0.209,0 -0.427,-0.009 -0.649,-0.031c-0.221,-0.025 -0.424,-0.063 -0.605,-0.119c-0.056,-0.025 -0.094,-0.059 -0.119,-0.1c-0.021,-0.037 -0.031,-0.099 -0.031,-0.181l0,-4.735Zm12.897,4.212l0,-2.796c0.003,-0.23 0.003,-0.421 0.003,-0.577c0.003,-0.153 0.003,-0.287 0.006,-0.396c0.003,-0.109 0.006,-0.215 0.009,-0.312c0.013,-0.278 0.066,-0.48 0.153,-0.615c0.091,-0.13 0.244,-0.211 0.465,-0.246c0.1,-0.019 0.181,-0.034 0.247,-0.044c0.068,-0.009 0.14,-0.012 0.221,-0.012c0.065,0 0.121,-0.016 0.162,-0.044c0.041,-0.028 0.063,-0.068 0.063,-0.125c0,-0.056 -0.028,-0.093 -0.088,-0.118c-0.056,-0.022 -0.146,-0.031 -0.268,-0.031c-0.14,0 -0.309,0.003 -0.505,0.006c-0.197,0.003 -0.4,0.006 -0.609,0.012c-0.209,0.007 -0.402,0.01 -0.58,0.013c-0.178,0.003 -0.318,0.006 -0.421,0.006c-0.137,0 -0.331,-0.003 -0.58,-0.009c-0.25,-0.006 -0.528,-0.013 -0.83,-0.019c-0.303,-0.006 -0.599,-0.009 -0.892,-0.009c-0.122,0 -0.216,0.009 -0.278,0.031c-0.065,0.025 -0.097,0.062 -0.097,0.118c0,0.057 0.029,0.097 0.078,0.125c0.05,0.028 0.119,0.044 0.203,0.044c0.125,0 0.25,0.003 0.371,0.012c0.119,0.01 0.216,0.025 0.284,0.044c0.175,0.047 0.309,0.103 0.409,0.169c0.1,0.065 0.172,0.152 0.218,0.262c0.047,0.106 0.075,0.252 0.085,0.43c0.003,0.097 0.006,0.203 0.009,0.312c0.003,0.109 0.003,0.243 0.006,0.396c0,0.156 0.003,0.347 0.003,0.577l0,4.892c0,0.489 0,0.948 -0.003,1.378c-0.003,0.428 -0.009,0.815 -0.019,1.155c-0.009,0.343 -0.028,0.627 -0.053,0.855c-0.025,0.234 -0.068,0.424 -0.137,0.567c-0.068,0.144 -0.184,0.238 -0.349,0.275c-0.075,0.019 -0.16,0.034 -0.256,0.044c-0.094,0.009 -0.203,0.012 -0.325,0.012c-0.099,0.003 -0.171,0.022 -0.208,0.056c-0.01,0.009 -0.019,0.019 -0.027,0.028c-0.006,-0.009 -0.014,-0.019 -0.024,-0.028c-0.037,-0.034 -0.087,-0.053 -0.152,-0.056c-0.063,0 -0.125,0 -0.181,-0.003c-0.06,-0.006 -0.131,-0.016 -0.213,-0.034c-0.087,-0.013 -0.208,-0.044 -0.368,-0.094c-0.159,-0.047 -0.355,-0.144 -0.586,-0.287c-0.231,-0.144 -0.499,-0.368 -0.805,-0.668c-0.493,-0.498 -1.036,-1.101 -1.631,-1.812c-0.593,-0.711 -1.255,-1.516 -1.981,-2.418c0.536,-0.427 0.97,-0.836 1.307,-1.223c0.337,-0.389 0.583,-0.77 0.742,-1.147c0.159,-0.375 0.237,-0.759 0.234,-1.149c-0.003,-0.268 -0.04,-0.517 -0.115,-0.748c-0.075,-0.231 -0.172,-0.44 -0.29,-0.627c-0.119,-0.188 -0.244,-0.35 -0.378,-0.49c-0.131,-0.137 -0.259,-0.243 -0.377,-0.324c-0.297,-0.191 -0.618,-0.337 -0.968,-0.434c-0.349,-0.097 -0.708,-0.162 -1.076,-0.193c-0.371,-0.035 -0.73,-0.05 -1.082,-0.047c-0.131,0 -0.309,0.003 -0.534,0.006c-0.227,0.003 -0.467,0.006 -0.726,0.012c-0.259,0.007 -0.506,0.01 -0.737,0.013c-0.234,0.003 -0.421,0.006 -0.568,0.006c-0.087,0 -0.208,-0.003 -0.371,-0.006c-0.162,-0.003 -0.346,-0.006 -0.555,-0.013c-0.209,-0.006 -0.424,-0.009 -0.652,-0.012c-0.228,-0.003 -0.449,-0.006 -0.667,-0.006c-0.122,0 -0.216,0.009 -0.278,0.031c-0.066,0.025 -0.097,0.062 -0.097,0.118c0,0.057 0.028,0.097 0.078,0.125c0.05,0.028 0.119,0.044 0.203,0.044c0.125,0 0.25,0.003 0.371,0.012c0.119,0.01 0.216,0.025 0.284,0.044c0.175,0.047 0.309,0.103 0.409,0.169c0.1,0.065 0.171,0.152 0.218,0.262c0.047,0.106 0.075,0.252 0.084,0.43c0.003,0.097 0.007,0.203 0.01,0.312c0.003,0.109 0.003,0.243 0.006,0.396c0,0.156 0.003,0.347 0.003,0.577l0,4.892c0,0.489 0,0.948 -0.003,1.378c-0.003,0.428 -0.009,0.815 -0.019,1.155c-0.009,0.343 -0.028,0.627 -0.053,0.855c-0.025,0.234 -0.068,0.424 -0.137,0.567c-0.069,0.144 -0.184,0.238 -0.35,0.275c-0.075,0.019 -0.159,0.034 -0.255,0.044c-0.094,0.009 -0.203,0.012 -0.325,0.012c-0.099,0.003 -0.171,0.022 -0.209,0.056c-0.037,0.035 -0.056,0.072 -0.053,0.112c0,0.057 0.028,0.097 0.082,0.125c0.056,0.028 0.133,0.044 0.236,0.044c0.169,0 0.35,-0.003 0.549,-0.009c0.197,-0.007 0.394,-0.013 0.59,-0.019c0.193,-0.006 0.368,-0.012 0.524,-0.019c0.156,-0.006 0.278,-0.009 0.359,-0.009c0.065,0 0.187,0.003 0.368,0.009c0.181,0.007 0.399,0.013 0.649,0.019c0.249,0.006 0.509,0.012 0.78,0.019c0.268,0.006 0.524,0.009 0.767,0.009c0.103,0 0.187,-0.016 0.247,-0.044c0.059,-0.028 0.09,-0.068 0.09,-0.125c0,-0.04 -0.019,-0.077 -0.053,-0.112c-0.037,-0.034 -0.087,-0.053 -0.153,-0.056c-0.068,0 -0.153,-0.003 -0.246,-0.006c-0.094,-0.003 -0.191,-0.01 -0.287,-0.019c-0.097,-0.009 -0.187,-0.019 -0.272,-0.031c-0.165,-0.025 -0.29,-0.075 -0.377,-0.147c-0.084,-0.075 -0.147,-0.168 -0.181,-0.287c-0.037,-0.115 -0.062,-0.252 -0.078,-0.408c-0.025,-0.228 -0.044,-0.509 -0.056,-0.849c-0.016,-0.34 -0.025,-0.723 -0.031,-1.154c-0.003,-0.428 -0.007,-0.889 -0.007,-1.385l0,-0.225c0,-0.046 0.013,-0.081 0.038,-0.1c0.025,-0.021 0.056,-0.031 0.093,-0.031l1.479,0.038c0.056,0 0.109,0.006 0.156,0.022c0.05,0.015 0.097,0.043 0.144,0.09c0.053,0.062 0.131,0.171 0.237,0.321c0.106,0.15 0.23,0.328 0.371,0.534c0.143,0.203 0.293,0.421 0.455,0.648c0.162,0.228 0.325,0.45 0.49,0.668c0.303,0.412 0.58,0.771 0.833,1.076c0.25,0.306 0.49,0.565 0.718,0.774c0.23,0.209 0.461,0.371 0.695,0.49c0.141,0.075 0.293,0.134 0.452,0.181c0.163,0.047 0.353,0.081 0.568,0.106c0.215,0.022 0.474,0.031 0.777,0.031l1.572,0c0.103,0 0.181,-0.009 0.237,-0.034c0.025,-0.012 0.044,-0.027 0.057,-0.047c0.013,0.015 0.03,0.026 0.05,0.037c0.056,0.028 0.134,0.044 0.237,0.044c0.165,0 0.349,-0.003 0.549,-0.009c0.199,-0.007 0.396,-0.013 0.595,-0.019c0.197,-0.006 0.378,-0.012 0.543,-0.019c0.162,-0.006 0.294,-0.009 0.39,-0.009c0.106,0 0.253,0.003 0.437,0.009c0.184,0.007 0.396,0.013 0.627,0.019c0.234,0.006 0.474,0.012 0.724,0.019c0.249,0.006 0.49,0.009 0.72,0.009c0.097,0 0.172,-0.016 0.228,-0.044c0.059,-0.028 0.088,-0.068 0.091,-0.125c0,-0.04 -0.023,-0.077 -0.063,-0.112c-0.041,-0.034 -0.097,-0.053 -0.162,-0.056c-0.072,0 -0.153,-0.003 -0.25,-0.006c-0.096,-0.003 -0.193,-0.01 -0.293,-0.019c-0.097,-0.009 -0.184,-0.019 -0.262,-0.031c-0.203,-0.037 -0.349,-0.128 -0.44,-0.271c-0.09,-0.141 -0.143,-0.325 -0.159,-0.552c-0.012,-0.235 -0.022,-0.522 -0.025,-0.868c-0.006,-0.343 -0.009,-0.73 -0.012,-1.161l0,-2.82l0.074,0l0.169,0.225c0.062,0.085 0.193,0.247 0.387,0.481c0.197,0.233 0.43,0.511 0.711,0.836c0.278,0.324 0.571,0.664 0.883,1.02c0.312,0.359 0.618,0.702 0.914,1.032c0.3,0.331 0.565,0.621 0.799,0.871c0.234,0.246 0.414,0.424 0.536,0.533c0.234,0.206 0.459,0.381 0.674,0.524c0.215,0.144 0.44,0.259 0.674,0.343c0.234,0.085 0.496,0.138 0.786,0.163c0.171,0.018 0.346,0.028 0.521,0.031c0.175,0.006 0.384,0.006 0.621,0.006l1.441,0c0.147,0 0.25,-0.016 0.309,-0.044c0.059,-0.028 0.087,-0.068 0.084,-0.125c0,-0.046 -0.022,-0.087 -0.062,-0.118c-0.041,-0.031 -0.097,-0.05 -0.162,-0.05c-0.094,0.003 -0.225,-0.003 -0.394,-0.025c-0.168,-0.022 -0.374,-0.081 -0.617,-0.181c-0.29,-0.121 -0.562,-0.271 -0.811,-0.455c-0.25,-0.181 -0.49,-0.378 -0.724,-0.593c-0.234,-0.215 -0.471,-0.434 -0.711,-0.655c-0.109,-0.103 -0.281,-0.272 -0.512,-0.505c-0.231,-0.234 -0.496,-0.506 -0.798,-0.818c-0.3,-0.312 -0.615,-0.639 -0.94,-0.979c-0.324,-0.34 -0.636,-0.671 -0.932,-0.992c-0.3,-0.322 -0.562,-0.606 -0.786,-0.855c-0.225,-0.25 -0.387,-0.44 -0.487,-0.568c0.106,-0.121 0.274,-0.296 0.505,-0.527c0.231,-0.234 0.493,-0.49 0.786,-0.777c0.297,-0.284 0.59,-0.568 0.883,-0.848c0.296,-0.281 0.559,-0.534 0.793,-0.752c0.234,-0.222 0.405,-0.381 0.515,-0.484c0.343,-0.324 0.654,-0.58 0.932,-0.764c0.281,-0.187 0.549,-0.325 0.808,-0.415c0.103,-0.037 0.209,-0.071 0.328,-0.1c0.115,-0.028 0.227,-0.05 0.336,-0.065c0.113,-0.016 0.207,-0.022 0.291,-0.022c0.075,0 0.134,-0.016 0.178,-0.044c0.043,-0.028 0.065,-0.068 0.065,-0.125c0,-0.056 -0.028,-0.093 -0.078,-0.118c-0.05,-0.022 -0.119,-0.031 -0.203,-0.031c-0.174,0 -0.377,0.003 -0.611,0.009c-0.234,0.006 -0.471,0.013 -0.705,0.019c-0.234,0.006 -0.437,0.009 -0.612,0.009c-0.115,0 -0.249,-0.003 -0.405,-0.006c-0.156,-0.003 -0.315,-0.006 -0.481,-0.013c-0.165,-0.006 -0.321,-0.009 -0.464,-0.012c-0.144,-0.003 -0.262,-0.006 -0.353,-0.006c-0.084,0 -0.15,0.009 -0.193,0.031c-0.047,0.025 -0.069,0.062 -0.069,0.118c0,0.044 0.019,0.082 0.056,0.106c0.038,0.022 0.094,0.044 0.168,0.063c0.075,0.019 0.132,0.056 0.169,0.109c0.038,0.053 0.056,0.125 0.056,0.209c-0.006,0.137 -0.084,0.306 -0.237,0.499c-0.153,0.19 -0.346,0.418 -0.586,0.68c-0.103,0.113 -0.266,0.284 -0.49,0.515c-0.228,0.231 -0.484,0.49 -0.771,0.78c-0.287,0.29 -0.577,0.58 -0.87,0.87c-0.29,0.293 -0.552,0.556 -0.786,0.792c-0.234,0.238 -0.409,0.419 -0.528,0.544l-0.074,0Zm-45.821,6.345c0.072,0.203 0.141,0.352 0.203,0.443c0.066,0.093 0.147,0.137 0.247,0.137c0.078,0 0.146,-0.022 0.206,-0.072c0.059,-0.053 0.121,-0.137 0.187,-0.262c0.065,-0.122 0.146,-0.293 0.243,-0.509c0.097,-0.212 0.222,-0.498 0.375,-0.854c0.149,-0.356 0.314,-0.758 0.499,-1.208c0.18,-0.445 0.371,-0.91 0.567,-1.397c0.194,-0.484 0.384,-0.961 0.571,-1.429c0.187,-0.468 0.362,-0.901 0.521,-1.301c0.156,-0.399 0.293,-0.736 0.403,-1.013c0.109,-0.275 0.187,-0.465 0.227,-0.565l0.038,0l3.35,7.842c0.115,0.287 0.215,0.487 0.296,0.602c0.082,0.116 0.178,0.169 0.284,0.166c0.116,0.003 0.212,-0.05 0.284,-0.166c0.072,-0.112 0.153,-0.305 0.241,-0.583c0.136,-0.399 0.293,-0.861 0.467,-1.385c0.175,-0.524 0.365,-1.079 0.565,-1.672c0.2,-0.593 0.402,-1.192 0.611,-1.8c0.206,-0.608 0.409,-1.198 0.606,-1.769c0.199,-0.571 0.383,-1.098 0.555,-1.578c0.171,-0.481 0.324,-0.893 0.452,-1.23c0.11,-0.305 0.212,-0.576 0.3,-0.807c0.09,-0.231 0.184,-0.418 0.28,-0.565c0.097,-0.143 0.21,-0.243 0.337,-0.293c0.097,-0.028 0.197,-0.047 0.297,-0.06c0.103,-0.012 0.199,-0.015 0.284,-0.015c0.075,0 0.131,-0.019 0.168,-0.053c0.038,-0.032 0.056,-0.078 0.056,-0.134c0,-0.047 -0.028,-0.081 -0.078,-0.1c-0.053,-0.022 -0.128,-0.031 -0.221,-0.031c-0.184,0 -0.375,0.003 -0.571,0.009c-0.193,0.006 -0.365,0.013 -0.512,0.019c-0.146,0.006 -0.24,0.009 -0.284,0.009c-0.053,0 -0.162,-0.003 -0.33,-0.009c-0.169,-0.006 -0.374,-0.013 -0.621,-0.019c-0.25,-0.006 -0.518,-0.009 -0.808,-0.009c-0.131,0 -0.228,0.009 -0.294,0.031c-0.065,0.025 -0.099,0.062 -0.099,0.118c0.003,0.047 0.031,0.088 0.084,0.119c0.053,0.031 0.119,0.047 0.197,0.05c0.215,0 0.384,0.019 0.499,0.056c0.118,0.041 0.199,0.094 0.243,0.159c0.044,0.069 0.066,0.147 0.063,0.234c0,0.112 -0.013,0.246 -0.041,0.403c-0.028,0.155 -0.072,0.327 -0.128,0.514c-0.097,0.312 -0.209,0.677 -0.337,1.095c-0.128,0.418 -0.265,0.861 -0.409,1.329c-0.143,0.471 -0.283,0.939 -0.427,1.407c-0.143,0.471 -0.281,0.914 -0.409,1.332c-0.127,0.415 -0.243,0.78 -0.34,1.095c-0.099,0.312 -0.174,0.549 -0.23,0.705l-0.057,0l-3.294,-7.861c-0.1,-0.253 -0.193,-0.44 -0.277,-0.565c-0.085,-0.121 -0.175,-0.184 -0.266,-0.184c-0.074,-0.003 -0.152,0.038 -0.237,0.122c-0.081,0.084 -0.165,0.237 -0.249,0.458l-3.145,8.136l-0.056,0c-0.034,-0.106 -0.094,-0.287 -0.175,-0.54c-0.078,-0.252 -0.174,-0.552 -0.284,-0.904c-0.109,-0.35 -0.224,-0.727 -0.349,-1.129c-0.125,-0.403 -0.25,-0.808 -0.377,-1.217c-0.125,-0.409 -0.244,-0.799 -0.356,-1.17c-0.112,-0.368 -0.209,-0.695 -0.293,-0.98c-0.085,-0.283 -0.147,-0.505 -0.188,-0.658c-0.106,-0.368 -0.19,-0.677 -0.255,-0.926c-0.066,-0.253 -0.097,-0.431 -0.1,-0.537c-0.003,-0.084 0.006,-0.149 0.028,-0.199c0.022,-0.053 0.069,-0.091 0.14,-0.119c0.066,-0.019 0.135,-0.034 0.206,-0.044c0.072,-0.009 0.14,-0.012 0.206,-0.012c0.087,0 0.156,-0.016 0.212,-0.044c0.056,-0.028 0.084,-0.068 0.088,-0.125c0,-0.056 -0.029,-0.093 -0.088,-0.118c-0.056,-0.022 -0.146,-0.031 -0.268,-0.031c-0.322,0 -0.618,0.003 -0.886,0.009c-0.268,0.006 -0.493,0.013 -0.674,0.019c-0.181,0.006 -0.296,0.009 -0.349,0.009c-0.041,0 -0.122,-0.003 -0.244,-0.006c-0.121,-0.003 -0.271,-0.006 -0.452,-0.013c-0.177,-0.006 -0.371,-0.009 -0.58,-0.012c-0.209,-0.003 -0.421,-0.006 -0.633,-0.006c-0.122,0 -0.216,0.009 -0.278,0.031c-0.065,0.025 -0.097,0.062 -0.097,0.118c0,0.057 0.022,0.097 0.069,0.125c0.044,0.028 0.109,0.044 0.194,0.044c0.052,0 0.115,0.003 0.193,0.009c0.078,0.006 0.156,0.019 0.237,0.038c0.078,0.019 0.146,0.046 0.206,0.084c0.119,0.075 0.218,0.206 0.305,0.39c0.085,0.184 0.175,0.424 0.275,0.714l3.482,10.108" style="fill:rgb(23,90,148);fill-rule:nonzero;"/>        </g>        <g transform="matrix(2,0,0,2,-1352.72,131.998)">            <path d="M871.064,77.728l0.056,0c0.084,0.075 0.244,0.237 0.484,0.49c0.24,0.253 0.536,0.565 0.889,0.936c0.356,0.371 0.742,0.77 1.167,1.204c0.424,0.43 0.864,0.864 1.316,1.301c0.434,0.421 0.88,0.848 1.335,1.285c0.453,0.437 0.899,0.861 1.329,1.273c0.434,0.415 0.836,0.796 1.204,1.142c0.368,0.349 0.683,0.642 0.943,0.886c0.084,0.087 0.183,0.165 0.296,0.231c0.112,0.068 0.237,0.103 0.377,0.106c0.069,0 0.128,-0.038 0.181,-0.119c0.05,-0.081 0.078,-0.209 0.081,-0.387l0.187,-10.032c0.007,-0.297 0.025,-0.534 0.066,-0.711c0.037,-0.175 0.097,-0.309 0.184,-0.403c0.084,-0.091 0.2,-0.156 0.349,-0.197c0.1,-0.028 0.191,-0.043 0.269,-0.049c0.074,-0.007 0.156,-0.01 0.237,-0.007c0.093,-0.003 0.165,-0.018 0.212,-0.049c0.046,-0.032 0.068,-0.072 0.068,-0.119c0,-0.063 -0.034,-0.106 -0.102,-0.125c-0.066,-0.019 -0.156,-0.028 -0.272,-0.025c-0.405,0 -0.752,0.006 -1.036,0.019c-0.283,0.012 -0.474,0.018 -0.573,0.018c-0.122,0 -0.291,-0.003 -0.509,-0.009c-0.218,-0.006 -0.465,-0.012 -0.739,-0.019c-0.275,-0.006 -0.559,-0.009 -0.849,-0.009c-0.121,-0.003 -0.221,0.006 -0.296,0.025c-0.075,0.019 -0.113,0.062 -0.116,0.125c0,0.047 0.016,0.087 0.053,0.119c0.041,0.031 0.11,0.046 0.209,0.049c0.078,0 0.169,0 0.269,0.003c0.103,0.004 0.206,0.01 0.312,0.025c0.103,0.013 0.199,0.035 0.281,0.066c0.131,0.047 0.237,0.118 0.318,0.212c0.078,0.097 0.137,0.24 0.178,0.427c0.037,0.188 0.059,0.443 0.065,0.765l0.168,7.075l-0.074,0c-0.054,-0.05 -0.172,-0.165 -0.356,-0.353c-0.184,-0.184 -0.409,-0.414 -0.677,-0.686c-0.268,-0.272 -0.552,-0.558 -0.858,-0.867c-0.303,-0.306 -0.599,-0.605 -0.889,-0.895c-0.29,-0.291 -0.549,-0.549 -0.777,-0.774c-0.483,-0.471 -0.957,-0.939 -1.429,-1.407c-0.468,-0.465 -0.913,-0.908 -1.332,-1.329c-0.421,-0.421 -0.795,-0.802 -1.126,-1.136c-0.334,-0.336 -0.602,-0.608 -0.807,-0.82c-0.21,-0.209 -0.334,-0.337 -0.378,-0.38c-0.141,-0.144 -0.268,-0.269 -0.384,-0.369c-0.115,-0.099 -0.225,-0.153 -0.327,-0.156c-0.084,0.003 -0.154,0.053 -0.203,0.153c-0.05,0.097 -0.078,0.228 -0.078,0.39l-0.15,9.434c-0.003,0.458 -0.019,0.82 -0.044,1.092c-0.025,0.268 -0.071,0.468 -0.143,0.596c-0.072,0.124 -0.178,0.205 -0.318,0.24c-0.116,0.028 -0.24,0.046 -0.375,0.059c-0.134,0.009 -0.258,0.016 -0.374,0.016c-0.075,0 -0.137,0.018 -0.187,0.049c-0.047,0.032 -0.072,0.072 -0.075,0.119c0.003,0.072 0.037,0.119 0.103,0.14c0.069,0.022 0.159,0.031 0.271,0.028c0.284,0 0.552,-0.006 0.802,-0.015c0.25,-0.009 0.462,-0.016 0.637,-0.025c0.174,-0.009 0.286,-0.016 0.34,-0.016c0.152,0.003 0.411,0.013 0.78,0.028c0.364,0.016 0.817,0.025 1.353,0.028c0.116,0 0.206,-0.009 0.272,-0.034c0.068,-0.025 0.102,-0.069 0.102,-0.134c0,-0.047 -0.021,-0.087 -0.068,-0.119c-0.047,-0.031 -0.118,-0.049 -0.212,-0.049c-0.134,0 -0.274,-0.007 -0.425,-0.023c-0.149,-0.015 -0.293,-0.043 -0.436,-0.09c-0.106,-0.034 -0.2,-0.106 -0.278,-0.221c-0.081,-0.116 -0.143,-0.29 -0.193,-0.531c-0.047,-0.237 -0.078,-0.561 -0.091,-0.97l-0.187,-6.495Zm17.501,7.918c0.103,0.246 0.193,0.439 0.265,0.58c0.075,0.14 0.144,0.237 0.206,0.293c0.063,0.056 0.131,0.084 0.203,0.081c0.071,0.003 0.143,-0.031 0.212,-0.097c0.069,-0.068 0.147,-0.187 0.237,-0.355c0.09,-0.169 0.203,-0.405 0.337,-0.708c0.125,-0.272 0.293,-0.64 0.502,-1.105c0.209,-0.464 0.453,-1.013 0.736,-1.647c0.284,-0.633 0.602,-1.338 0.952,-2.115c0.221,-0.483 0.421,-0.911 0.596,-1.285c0.177,-0.371 0.34,-0.717 0.486,-1.036c0.15,-0.318 0.297,-0.636 0.443,-0.954c0.144,-0.315 0.297,-0.662 0.459,-1.03c0.143,-0.333 0.265,-0.592 0.368,-0.78c0.103,-0.187 0.197,-0.327 0.274,-0.418c0.078,-0.093 0.15,-0.162 0.219,-0.206c0.097,-0.068 0.193,-0.115 0.296,-0.14c0.103,-0.025 0.197,-0.04 0.287,-0.044c0.091,-0.003 0.166,-0.006 0.222,-0.003c0.084,0 0.15,-0.015 0.193,-0.043c0.047,-0.029 0.069,-0.069 0.069,-0.125c0,-0.056 -0.031,-0.094 -0.091,-0.119c-0.059,-0.022 -0.143,-0.031 -0.246,-0.031c-0.172,0 -0.362,0.003 -0.565,0.009c-0.203,0.007 -0.393,0.013 -0.574,0.019c-0.178,0.006 -0.315,0.009 -0.415,0.009c-0.071,0 -0.193,-0.003 -0.365,-0.009c-0.171,-0.006 -0.377,-0.012 -0.617,-0.019c-0.241,-0.006 -0.499,-0.009 -0.777,-0.009c-0.159,0 -0.278,0.009 -0.353,0.031c-0.077,0.025 -0.115,0.063 -0.115,0.119c0.003,0.056 0.031,0.096 0.084,0.125c0.053,0.028 0.119,0.043 0.197,0.043c0.106,0 0.218,0.003 0.334,0.016c0.118,0.012 0.224,0.031 0.321,0.059c0.075,0.025 0.131,0.059 0.168,0.097c0.038,0.04 0.056,0.103 0.056,0.184c0,0.069 -0.015,0.156 -0.046,0.262c-0.029,0.106 -0.063,0.212 -0.103,0.318c-0.056,0.153 -0.147,0.378 -0.265,0.677c-0.119,0.296 -0.259,0.646 -0.422,1.045c-0.162,0.396 -0.333,0.824 -0.521,1.279c-0.187,0.456 -0.377,0.914 -0.57,1.382c-0.194,0.468 -0.381,0.917 -0.562,1.354c-0.181,0.434 -0.346,0.83 -0.499,1.189c-0.15,0.358 -0.278,0.658 -0.381,0.898l-0.056,0l-2.77,-7.131c-0.112,-0.284 -0.203,-0.527 -0.271,-0.733c-0.066,-0.206 -0.1,-0.362 -0.103,-0.465c0,-0.075 0.015,-0.137 0.043,-0.187c0.028,-0.05 0.069,-0.094 0.125,-0.132c0.069,-0.046 0.156,-0.077 0.268,-0.09c0.113,-0.015 0.234,-0.025 0.368,-0.022c0.079,0 0.141,-0.015 0.188,-0.043c0.05,-0.028 0.075,-0.069 0.075,-0.125c-0.003,-0.056 -0.044,-0.094 -0.119,-0.119c-0.078,-0.022 -0.168,-0.031 -0.274,-0.031c-0.278,0 -0.55,0.003 -0.818,0.009c-0.268,0.007 -0.515,0.013 -0.736,0.019c-0.222,0.006 -0.403,0.009 -0.543,0.009c-0.196,0 -0.424,-0.003 -0.683,-0.009c-0.259,-0.006 -0.537,-0.012 -0.83,-0.019c-0.293,-0.006 -0.587,-0.009 -0.883,-0.009c-0.124,-0.003 -0.221,0.006 -0.296,0.025c-0.075,0.019 -0.112,0.062 -0.116,0.125c0,0.047 0.013,0.087 0.038,0.119c0.028,0.031 0.078,0.046 0.15,0.049c0.068,-0.003 0.162,0 0.278,0.007c0.115,0.006 0.233,0.021 0.358,0.049c0.196,0.044 0.362,0.103 0.499,0.175c0.134,0.075 0.259,0.187 0.368,0.34c0.113,0.153 0.228,0.375 0.35,0.664l4.155,9.734Zm14.937,0.093c-0.777,-0.006 -1.476,-0.156 -2.091,-0.455c-0.611,-0.296 -1.135,-0.714 -1.562,-1.245c-0.431,-0.533 -0.759,-1.154 -0.986,-1.862c-0.225,-0.705 -0.337,-1.473 -0.34,-2.296c0.003,-0.783 0.084,-1.457 0.237,-2.018c0.156,-0.565 0.368,-1.033 0.639,-1.408c0.269,-0.374 0.574,-0.667 0.915,-0.886c0.342,-0.215 0.701,-0.368 1.076,-0.461c0.377,-0.091 0.748,-0.134 1.119,-0.131c0.668,0.003 1.292,0.134 1.869,0.393c0.574,0.262 1.079,0.639 1.516,1.132c0.434,0.493 0.774,1.089 1.017,1.791c0.244,0.702 0.368,1.491 0.371,2.374c-0.003,0.752 -0.068,1.401 -0.199,1.95c-0.128,0.545 -0.303,1.004 -0.521,1.379c-0.222,0.374 -0.465,0.673 -0.733,0.907c-0.272,0.231 -0.549,0.406 -0.83,0.528c-0.284,0.121 -0.555,0.205 -0.814,0.246c-0.259,0.044 -0.487,0.066 -0.683,0.062Zm-0.674,0.861c0.851,-0.003 1.634,-0.112 2.349,-0.327c0.717,-0.215 1.357,-0.521 1.918,-0.914c0.562,-0.396 1.039,-0.861 1.432,-1.404c0.393,-0.54 0.693,-1.136 0.898,-1.791c0.203,-0.652 0.309,-1.344 0.309,-2.077c-0.003,-0.914 -0.159,-1.738 -0.468,-2.471c-0.308,-0.73 -0.758,-1.357 -1.341,-1.875c-0.586,-0.518 -1.295,-0.914 -2.121,-1.188c-0.83,-0.278 -1.766,-0.415 -2.808,-0.418c-0.833,0.003 -1.582,0.093 -2.246,0.274c-0.668,0.178 -1.254,0.424 -1.766,0.739c-0.511,0.312 -0.948,0.674 -1.316,1.086c-0.365,0.408 -0.664,0.845 -0.899,1.31c-0.234,0.465 -0.405,0.939 -0.514,1.42c-0.113,0.48 -0.166,0.948 -0.166,1.403c0,0.475 0.056,0.955 0.166,1.445c0.112,0.486 0.284,0.964 0.517,1.429c0.232,0.464 0.528,0.898 0.89,1.303c0.362,0.403 0.792,0.762 1.288,1.067c0.499,0.309 1.07,0.55 1.716,0.724c0.642,0.175 1.363,0.262 2.162,0.265Zm9.976,-4.829c0,0.515 0,0.992 -0.003,1.435c-0.003,0.443 -0.009,0.836 -0.019,1.179c-0.009,0.347 -0.028,0.628 -0.053,0.849c-0.025,0.231 -0.068,0.408 -0.137,0.53c-0.069,0.122 -0.184,0.203 -0.349,0.237c-0.075,0.019 -0.16,0.034 -0.256,0.044c-0.094,0.009 -0.203,0.013 -0.325,0.013c-0.1,0.002 -0.172,0.021 -0.209,0.056c-0.037,0.034 -0.056,0.072 -0.053,0.112c0,0.056 0.028,0.097 0.081,0.125c0.057,0.028 0.135,0.043 0.237,0.043c0.169,0 0.353,-0.003 0.562,-0.009c0.206,-0.006 0.412,-0.013 0.621,-0.019c0.206,-0.006 0.396,-0.012 0.567,-0.019c0.172,-0.006 0.306,-0.009 0.403,-0.009c0.153,0 0.371,0.007 0.649,0.016c0.277,0.009 0.589,0.016 0.936,0.025c0.349,0.009 0.708,0.015 1.073,0.015c0.096,0 0.171,-0.015 0.228,-0.043c0.059,-0.028 0.087,-0.069 0.09,-0.125c0,-0.04 -0.019,-0.078 -0.062,-0.112c-0.041,-0.035 -0.107,-0.054 -0.2,-0.056c-0.084,0 -0.175,-0.004 -0.278,-0.007c-0.1,-0.003 -0.199,-0.009 -0.299,-0.018c-0.1,-0.01 -0.187,-0.019 -0.265,-0.032c-0.159,-0.025 -0.284,-0.068 -0.375,-0.131c-0.087,-0.062 -0.153,-0.146 -0.193,-0.249c-0.041,-0.103 -0.072,-0.225 -0.088,-0.368c-0.024,-0.228 -0.04,-0.515 -0.052,-0.861c-0.01,-0.347 -0.016,-0.743 -0.019,-1.186c-0.003,-0.443 -0.003,-0.92 -0.003,-1.435l0,-4.037c0,-0.339 0,-0.624 0.003,-0.854c0,-0.231 0.003,-0.425 0.006,-0.577c0,-0.153 0.006,-0.287 0.009,-0.397c0.007,-0.109 0.013,-0.215 0.019,-0.312c0.013,-0.277 0.066,-0.48 0.153,-0.614c0.09,-0.131 0.243,-0.212 0.465,-0.247c0.09,-0.018 0.174,-0.034 0.249,-0.043c0.075,-0.01 0.156,-0.013 0.237,-0.013c0.084,0 0.15,-0.012 0.194,-0.037c0.047,-0.028 0.068,-0.078 0.068,-0.15c0,-0.047 -0.031,-0.081 -0.09,-0.1c-0.059,-0.022 -0.144,-0.031 -0.247,-0.031c-0.162,0 -0.342,0.003 -0.539,0.006c-0.2,0.003 -0.399,0.007 -0.602,0.013c-0.203,0.006 -0.387,0.009 -0.559,0.012c-0.171,0.003 -0.309,0.006 -0.415,0.006c-0.118,0 -0.271,-0.003 -0.455,-0.006c-0.184,-0.003 -0.38,-0.006 -0.593,-0.012c-0.212,-0.006 -0.418,-0.01 -0.621,-0.013c-0.202,-0.003 -0.38,-0.006 -0.539,-0.006c-0.131,0 -0.228,0.009 -0.293,0.031c-0.066,0.019 -0.1,0.053 -0.1,0.1c0,0.072 0.021,0.122 0.068,0.15c0.044,0.025 0.109,0.037 0.194,0.037c0.103,0 0.206,0.003 0.306,0.016c0.103,0.012 0.199,0.031 0.293,0.059c0.118,0.034 0.218,0.084 0.296,0.147c0.078,0.062 0.141,0.15 0.181,0.262c0.044,0.109 0.072,0.253 0.084,0.433c0.003,0.097 0.007,0.203 0.01,0.312c0.003,0.11 0.003,0.244 0.006,0.397c0,0.152 0.003,0.346 0.003,0.577l0,4.891Zm13.345,4.829c0.362,0 0.727,-0.012 1.101,-0.034c0.372,-0.022 0.724,-0.059 1.049,-0.112c0.327,-0.053 0.605,-0.122 0.826,-0.209c0.138,-0.05 0.234,-0.109 0.294,-0.172c0.059,-0.062 0.106,-0.162 0.137,-0.296c0.034,-0.113 0.069,-0.247 0.103,-0.412c0.034,-0.162 0.065,-0.334 0.096,-0.515c0.029,-0.178 0.057,-0.352 0.078,-0.521c0.025,-0.165 0.044,-0.309 0.057,-0.427c0.015,-0.119 0.022,-0.2 0.022,-0.24c0,-0.069 -0.019,-0.131 -0.05,-0.191c-0.035,-0.056 -0.082,-0.087 -0.138,-0.09c-0.062,-0.003 -0.109,0.022 -0.137,0.068c-0.028,0.047 -0.05,0.132 -0.068,0.25c-0.019,0.103 -0.057,0.215 -0.11,0.34c-0.05,0.125 -0.115,0.25 -0.193,0.374c-0.078,0.128 -0.165,0.244 -0.259,0.353c-0.215,0.24 -0.455,0.421 -0.724,0.543c-0.268,0.122 -0.58,0.203 -0.936,0.243c-0.355,0.04 -0.776,0.059 -1.26,0.056c-0.446,0 -0.908,-0.072 -1.382,-0.218c-0.474,-0.144 -0.933,-0.362 -1.379,-0.655c-0.443,-0.293 -0.842,-0.665 -1.198,-1.108c-0.356,-0.446 -0.639,-0.967 -0.848,-1.566c-0.209,-0.599 -0.315,-1.275 -0.322,-2.03c-0.003,-0.521 0.038,-1.03 0.122,-1.532c0.088,-0.499 0.24,-0.97 0.462,-1.413c0.218,-0.443 0.53,-0.84 0.933,-1.192c0.246,-0.212 0.52,-0.384 0.817,-0.515c0.3,-0.134 0.636,-0.231 1.01,-0.293c0.375,-0.062 0.802,-0.09 1.28,-0.09c0.761,0.003 1.41,0.093 1.949,0.265c0.54,0.168 0.949,0.393 1.233,0.67c0.206,0.209 0.362,0.443 0.464,0.705c0.107,0.259 0.163,0.518 0.172,0.774c0,0.103 0.012,0.187 0.034,0.247c0.025,0.059 0.072,0.09 0.135,0.09c0.074,-0.003 0.127,-0.041 0.162,-0.112c0.034,-0.072 0.053,-0.166 0.062,-0.281c0.006,-0.081 0.009,-0.194 0.012,-0.331c0.004,-0.137 0.007,-0.287 0.01,-0.452c0.003,-0.166 0.006,-0.331 0.012,-0.493c0.007,-0.166 0.013,-0.312 0.022,-0.446c0.013,-0.187 0.025,-0.334 0.038,-0.45c0.009,-0.112 0.019,-0.202 0.028,-0.268c0.006,-0.068 0.009,-0.121 0.009,-0.162c0.003,-0.047 -0.016,-0.087 -0.05,-0.122c-0.037,-0.034 -0.1,-0.056 -0.193,-0.065c-0.244,-0.031 -0.499,-0.069 -0.774,-0.119c-0.274,-0.046 -0.565,-0.096 -0.873,-0.143c-0.247,-0.031 -0.487,-0.059 -0.724,-0.084c-0.237,-0.028 -0.49,-0.047 -0.758,-0.063c-0.268,-0.015 -0.574,-0.021 -0.914,-0.021c-0.814,0 -1.541,0.068 -2.178,0.202c-0.636,0.134 -1.204,0.328 -1.703,0.58c-0.499,0.25 -0.945,0.55 -1.341,0.902c-0.39,0.353 -0.712,0.727 -0.964,1.12c-0.253,0.393 -0.45,0.786 -0.59,1.179c-0.14,0.393 -0.237,0.767 -0.293,1.12c-0.056,0.353 -0.084,0.668 -0.081,0.942c-0.003,0.515 0.053,1.049 0.171,1.597c0.119,0.549 0.331,1.086 0.631,1.616c0.299,0.531 0.72,1.027 1.257,1.485c0.499,0.415 1.045,0.752 1.631,1.005c0.59,0.253 1.22,0.436 1.891,0.549c0.67,0.115 1.381,0.171 2.13,0.168Zm7.281,-4.829c0,0.49 0,0.948 -0.003,1.376c-0.003,0.431 -0.009,0.817 -0.019,1.157c-0.009,0.343 -0.027,0.627 -0.053,0.855c-0.024,0.234 -0.068,0.424 -0.137,0.568c-0.068,0.143 -0.184,0.237 -0.349,0.274c-0.075,0.019 -0.159,0.034 -0.256,0.044c-0.093,0.009 -0.203,0.013 -0.324,0.013c-0.1,0.002 -0.172,0.021 -0.209,0.056c-0.038,0.034 -0.056,0.072 -0.054,0.112c0,0.056 0.029,0.097 0.082,0.125c0.056,0.028 0.134,0.043 0.237,0.043c0.171,0 0.352,-0.003 0.549,-0.012c0.197,-0.006 0.393,-0.016 0.593,-0.025c0.199,0 0.38,-0.003 0.546,-0.01c0.162,-0.006 0.293,-0.009 0.389,-0.009c0.244,0 0.521,0.003 0.836,0.013c0.316,0.006 0.671,0.015 1.073,0.025c0.403,0.018 0.852,0.031 1.354,0.04c0.503,0.01 1.061,0.016 1.679,0.016c0.203,0.003 0.362,-0.003 0.477,-0.016c0.115,-0.012 0.203,-0.046 0.262,-0.106c0.059,-0.059 0.106,-0.156 0.141,-0.29c0.025,-0.084 0.05,-0.203 0.075,-0.359c0.024,-0.156 0.049,-0.324 0.071,-0.505c0.025,-0.184 0.041,-0.356 0.056,-0.515c0.016,-0.162 0.022,-0.287 0.022,-0.38c0.003,-0.091 -0.006,-0.172 -0.025,-0.25c-0.019,-0.078 -0.062,-0.118 -0.125,-0.125c-0.053,0 -0.093,0.019 -0.121,0.06c-0.025,0.037 -0.047,0.099 -0.066,0.184c-0.053,0.324 -0.134,0.58 -0.243,0.764c-0.109,0.187 -0.265,0.324 -0.468,0.415c-0.147,0.062 -0.312,0.106 -0.499,0.137c-0.184,0.028 -0.372,0.047 -0.556,0.056c-0.187,0.01 -0.352,0.013 -0.499,0.013c-0.558,0.003 -0.995,-0.032 -1.316,-0.103c-0.321,-0.072 -0.552,-0.206 -0.692,-0.399c-0.138,-0.194 -0.21,-0.469 -0.219,-0.827c-0.003,-0.122 -0.006,-0.284 -0.009,-0.49c0,-0.206 0,-0.424 0.003,-0.661c0,-0.237 0.003,-0.462 0.003,-0.677c0.003,-0.212 0.003,-0.39 0.003,-0.531l0,-1.272c0,-0.047 0.006,-0.088 0.018,-0.119c0.013,-0.031 0.038,-0.05 0.076,-0.05c0.087,0 0.218,0 0.399,0.003c0.178,0.003 0.377,0.006 0.602,0.013c0.222,0.003 0.443,0.009 0.661,0.015c0.219,0.007 0.412,0.013 0.577,0.022c0.166,0.006 0.281,0.013 0.343,0.022c0.207,0.019 0.369,0.056 0.494,0.115c0.121,0.056 0.218,0.128 0.284,0.212c0.065,0.088 0.112,0.185 0.14,0.291c0.019,0.103 0.031,0.206 0.034,0.302c0.006,0.1 0.016,0.194 0.022,0.278c0,0.038 0.009,0.069 0.034,0.094c0.022,0.024 0.059,0.037 0.116,0.037c0.05,-0.003 0.087,-0.022 0.109,-0.062c0.025,-0.041 0.04,-0.088 0.05,-0.144c0.006,-0.053 0.009,-0.103 0.009,-0.15c0,-0.031 0.003,-0.087 0.006,-0.168c0.003,-0.084 0.01,-0.181 0.019,-0.287c0.006,-0.109 0.013,-0.218 0.022,-0.328c0.009,-0.106 0.019,-0.202 0.028,-0.284c0.031,-0.265 0.056,-0.477 0.075,-0.636c0.019,-0.162 0.034,-0.281 0.043,-0.362c0.01,-0.078 0.013,-0.134 0.013,-0.162c0,-0.047 -0.013,-0.087 -0.037,-0.119c-0.025,-0.031 -0.057,-0.05 -0.094,-0.05c-0.034,0 -0.072,0.023 -0.109,0.06c-0.037,0.04 -0.091,0.087 -0.153,0.146c-0.075,0.081 -0.175,0.138 -0.303,0.172c-0.125,0.031 -0.287,0.056 -0.483,0.072c-0.078,0.006 -0.215,0.012 -0.409,0.018c-0.19,0.004 -0.412,0.01 -0.658,0.01c-0.25,0.003 -0.499,0.006 -0.746,0.006c-0.249,0.003 -0.471,0.003 -0.661,0.003l-0.409,0c-0.047,0 -0.074,-0.019 -0.09,-0.05c-0.016,-0.031 -0.022,-0.072 -0.022,-0.118l0,-3.931c0,-0.047 0.009,-0.084 0.028,-0.109c0.019,-0.028 0.047,-0.041 0.084,-0.041c0.072,0 0.197,0 0.372,0.003c0.174,0.004 0.377,0.007 0.602,0.013c0.227,0.003 0.452,0.009 0.677,0.016c0.224,0.006 0.421,0.012 0.589,0.021c0.169,0.007 0.284,0.013 0.343,0.022c0.272,0.025 0.478,0.066 0.618,0.122c0.144,0.053 0.247,0.121 0.312,0.199c0.065,0.079 0.115,0.166 0.156,0.259c0.031,0.063 0.056,0.135 0.072,0.209c0.015,0.075 0.025,0.147 0.031,0.213c0.006,0.065 0.009,0.118 0.009,0.159c0,0.065 0.007,0.115 0.025,0.152c0.016,0.035 0.053,0.053 0.106,0.053c0.044,-0.003 0.078,-0.018 0.103,-0.053c0.025,-0.031 0.044,-0.068 0.056,-0.109c0.013,-0.04 0.022,-0.074 0.029,-0.1c0.009,-0.05 0.018,-0.121 0.028,-0.218c0.009,-0.097 0.018,-0.203 0.025,-0.312c0.009,-0.112 0.015,-0.215 0.021,-0.309c0.01,-0.093 0.016,-0.165 0.019,-0.209c0.013,-0.24 0.031,-0.43 0.05,-0.568c0.022,-0.137 0.04,-0.24 0.056,-0.305c0.016,-0.069 0.025,-0.122 0.025,-0.156c0,-0.041 -0.006,-0.075 -0.022,-0.103c-0.015,-0.031 -0.044,-0.047 -0.09,-0.047c-0.038,0.003 -0.078,0.013 -0.125,0.031c-0.044,0.019 -0.091,0.032 -0.137,0.044c-0.069,0.009 -0.162,0.025 -0.284,0.047c-0.122,0.018 -0.256,0.034 -0.409,0.046c-0.056,0.004 -0.193,0.007 -0.405,0.007c-0.215,0 -0.475,0.003 -0.783,0.003c-0.309,0 -0.637,-0.003 -0.98,-0.003c-0.346,0 -0.677,0 -0.998,-0.003c-0.318,0 -0.596,0 -0.833,-0.004l-0.493,0c-0.159,0 -0.371,-0.003 -0.633,-0.009c-0.262,-0.006 -0.543,-0.012 -0.849,-0.019c-0.305,-0.006 -0.602,-0.009 -0.895,-0.009c-0.122,0 -0.215,0.009 -0.278,0.031c-0.065,0.025 -0.096,0.063 -0.096,0.119c0,0.056 0.028,0.096 0.077,0.125c0.05,0.028 0.119,0.043 0.203,0.043c0.125,0 0.25,0.003 0.372,0.013c0.118,0.009 0.215,0.025 0.283,0.043c0.175,0.047 0.309,0.103 0.409,0.169c0.1,0.065 0.172,0.153 0.218,0.262c0.047,0.106 0.075,0.253 0.085,0.43c0.003,0.097 0.006,0.203 0.009,0.312c0.003,0.11 0.003,0.244 0.006,0.397c0,0.156 0.003,0.346 0.003,0.577l0,4.891Zm-70.238,0c0,0.515 0,0.992 -0.004,1.435c-0.003,0.443 -0.009,0.836 -0.018,1.179c-0.01,0.347 -0.028,0.628 -0.053,0.849c-0.025,0.231 -0.069,0.408 -0.137,0.53c-0.069,0.122 -0.185,0.203 -0.35,0.237c-0.075,0.019 -0.159,0.034 -0.256,0.044c-0.093,0.009 -0.202,0.013 -0.324,0.013c-0.1,0.002 -0.172,0.021 -0.209,0.056c-0.037,0.034 -0.056,0.072 -0.053,0.112c0,0.056 0.028,0.097 0.081,0.125c0.056,0.028 0.134,0.043 0.237,0.043c0.168,0 0.352,-0.003 0.562,-0.009c0.205,-0.006 0.411,-0.013 0.62,-0.019c0.206,-0.006 0.397,-0.012 0.568,-0.019c0.172,-0.006 0.306,-0.009 0.403,-0.009c0.152,0 0.371,0.007 0.648,0.016c0.278,0.009 0.59,0.016 0.936,0.025c0.35,0.009 0.708,0.015 1.073,0.015c0.097,0 0.172,-0.015 0.228,-0.043c0.059,-0.028 0.088,-0.069 0.09,-0.125c0,-0.04 -0.018,-0.078 -0.062,-0.112c-0.041,-0.035 -0.106,-0.054 -0.199,-0.056c-0.085,0 -0.175,-0.004 -0.278,-0.007c-0.1,-0.003 -0.2,-0.009 -0.3,-0.018c-0.099,-0.01 -0.187,-0.019 -0.265,-0.032c-0.159,-0.025 -0.284,-0.068 -0.374,-0.131c-0.088,-0.062 -0.153,-0.146 -0.193,-0.249c-0.041,-0.103 -0.072,-0.225 -0.088,-0.368c-0.025,-0.228 -0.04,-0.515 -0.053,-0.861c-0.009,-0.347 -0.016,-0.743 -0.019,-1.186c-0.003,-0.443 -0.003,-0.92 -0.003,-1.435l0,-4.037c0,-0.339 0,-0.624 0.003,-0.854c0,-0.231 0.003,-0.425 0.007,-0.577c0,-0.153 0.006,-0.287 0.009,-0.397c0.006,-0.109 0.012,-0.215 0.019,-0.312c0.012,-0.277 0.065,-0.48 0.153,-0.614c0.09,-0.131 0.243,-0.212 0.464,-0.247c0.091,-0.018 0.175,-0.034 0.25,-0.043c0.075,-0.01 0.156,-0.013 0.237,-0.013c0.084,0 0.15,-0.012 0.193,-0.037c0.047,-0.028 0.069,-0.078 0.069,-0.15c0,-0.047 -0.031,-0.081 -0.09,-0.1c-0.06,-0.022 -0.144,-0.031 -0.247,-0.031c-0.162,0 -0.343,0.003 -0.539,0.006c-0.2,0.003 -0.4,0.007 -0.603,0.013c-0.202,0.006 -0.387,0.009 -0.558,0.012c-0.172,0.003 -0.309,0.006 -0.415,0.006c-0.118,0 -0.271,-0.003 -0.455,-0.006c-0.184,-0.003 -0.381,-0.006 -0.593,-0.012c-0.212,-0.006 -0.418,-0.01 -0.621,-0.013c-0.203,-0.003 -0.381,-0.006 -0.54,-0.006c-0.131,0 -0.227,0.009 -0.293,0.031c-0.065,0.019 -0.1,0.053 -0.1,0.1c0,0.072 0.022,0.122 0.069,0.15c0.044,0.025 0.109,0.037 0.193,0.037c0.104,0 0.206,0.003 0.306,0.016c0.103,0.012 0.2,0.031 0.293,0.059c0.119,0.034 0.219,0.084 0.297,0.147c0.078,0.062 0.14,0.15 0.181,0.262c0.043,0.109 0.071,0.253 0.084,0.433c0.003,0.097 0.006,0.203 0.009,0.312c0.003,0.11 0.003,0.244 0.006,0.397c0,0.152 0.004,0.346 0.004,0.577l0,4.891" style="fill:rgb(134,181,71);fill-rule:nonzero;"/>        </g>        <g>            <g transform="matrix(2,0,0,2,-1239.76,105.433)">                <path d="M785.85,72.726c1.271,-0.606 2.542,-1.212 3.813,-1.818c5.162,6.16 7.439,11.15 8.778,15.76c-3.097,-5.645 -7.219,-10.36 -12.591,-13.942" style="fill:rgb(134,181,71);"/>            </g>            <g transform="matrix(2,0,0,2,-1239.76,91.4137)">                <path d="M813.984,59.863c-7.706,6.021 -16.331,10.527 -25.702,13.801c9.143,10.478 13.101,20.82 13.212,31.06c1.528,-11.392 -1.755,-22.333 -8.018,-29.662c6.795,-2.704 13.658,-6.422 19.627,-10.646c2.105,2.021 4.138,5.835 6.228,12.568c-0.56,-6.852 -2.271,-11.543 -5.347,-17.121" style="fill:rgb(23,90,148);"/>            </g>            <g transform="matrix(2,0,0,2,-1239.76,125.276)">                <path d="M785.887,68.272c0.763,-0.548 1.525,-1.095 2.288,-1.642c5.249,4.59 8.596,9.409 10.552,14.395c-3.053,-4.68 -6.961,-9.061 -12.84,-12.753" style="fill:rgb(134,181,71);"/>            </g>        </g>    </g></svg>