<?xml version="1.0" encoding="UTF-8" standalone="no"?><!DOCTYPE svg PUBLIC "-//W3C//DTD SVG 1.1//EN" "http://www.w3.org/Graphics/SVG/1.1/DTD/svg11.dtd"><svg width="100%" height="100%" viewBox="0 0 1024 512" version="1.1" xmlns="http://www.w3.org/2000/svg" xmlns:xlink="http://www.w3.org/1999/xlink" xml:space="preserve" style="fill-rule:evenodd;clip-rule:evenodd;stroke-linejoin:round;stroke-miterlimit:2;"><title>FI</title><desc>Financial Supervisory Authority (Swedish: Finansinspektionen, FI) is the Swedish government agency responsible for financial regulation in Sweden. It is responsible for the oversight, regulation and authorisation of financial markets and their participants. The agency falls under the Swedish Ministry of Finance and regulates all organisations that provide financial services in Sweden.[2]</desc>    <g transform="matrix(1,0,0,1,271.701,4.43406)">        <g id="svg_1" transform="matrix(4.29601,0,0,4.29601,-17.0392,1.81909)">            <path d="M74.843,17.095c0,0 -9.997,2.709 -15.644,9.997c-5.61,7.288 -8.548,21.865 -8.548,21.865l-4.159,0.19c0,0 -1.259,1.45 -3.129,2.9c-1.87,1.45 -5.609,3.549 -5.609,3.549c0,0 1.374,0.611 5.342,0.458c4.045,-0.153 6.525,-0.458 6.525,-0.458c0,0 -1.259,25.833 -2.709,33.961c-1.45,8.127 -3.74,14.805 -4.808,15.835c-1.03,1.03 -7.097,2.519 -13.126,1.87c-6.029,-0.611 -14.042,-3.473 -18.965,-6.334c-3.587,-2.099 -5.113,-3.816 -5.876,-5.495c-0.84,-1.87 0.267,-2.747 0.267,-2.747l-0.801,-0.344c0,0 -0.649,0.572 -1.26,1.794c-1.679,3.243 -2.022,5.723 -1.679,8.318c0.268,2.099 4.999,7.517 12.287,9.807c7.288,2.289 12.936,3.319 16.866,2.518c3.969,-0.84 17.095,-8.318 20.415,-12.936c3.319,-4.579 5.418,-8.738 6.448,-13.126c1.031,-4.388 3.74,-35.22 3.74,-35.22l8.318,-2.098c0,0 -2.289,9.577 -3.129,16.865c-0.839,7.289 -1.03,16.065 -1.03,16.065c0,0 1.03,-1.03 4.808,-3.129c4.388,-2.442 7.288,-3.549 7.288,-3.549c0,0 -0.42,-3.739 0.191,-10.646c0.61,-6.868 4.159,-22.093 4.159,-22.093l-19.804,3.32c0,0 1.87,-13.127 4.808,-18.774c2.9,-5.609 3.549,-6.678 5.228,-8.319c1.679,-1.678 3.739,-3.319 3.739,-3.319l-0.153,-0.725Z" style="fill:rgb(3,120,143);fill-rule:nonzero;"/>        </g>        <g id="Lager_2" transform="matrix(4.29601,0,0,4.29601,-17.0392,1.81909)">            <path id="svg_2" d="M23.941,87.42c-0.153,0.61 -0.191,0.992 -0.153,1.641c0.076,0.725 0.458,1.182 0.916,1.678c0.229,0.268 0.458,0.535 0.725,0.764c0.878,-0.764 1.755,-1.527 2.633,-2.328c0.038,-0.038 0.229,-0.191 0.267,-0.267c-0.038,-0.115 -0.42,-0.534 -0.496,-0.649c-0.267,-0.305 -0.84,-0.954 -1.259,-0.954c-0.382,0 -0.611,0.191 -0.916,0.382l-0.229,-0.267c0.229,-0.191 0.458,-0.42 0.725,-0.611c0.534,-0.458 1.068,-0.954 1.603,-1.373l0.229,0.228c-0.268,0.344 -0.611,0.687 -0.573,1.145c0.038,0.382 0.649,1.069 0.878,1.374c0.152,0.153 0.267,0.343 0.42,0.458c0.076,-0.038 0.114,-0.077 0.152,-0.115l2.023,-1.793c0.915,-0.801 0.381,-1.03 -0.153,-1.832l0.305,-0.267l2.786,3.167l-0.306,0.267c-0.267,-0.229 -0.801,-0.725 -1.144,-0.725c-0.267,0 -0.496,0.229 -0.687,0.382c-1.908,1.679 -1.107,0.992 -4.121,3.663c-0.267,0.229 -0.84,0.725 -0.84,1.107c-0.038,0.381 0.306,0.763 0.535,1.03l-0.268,0.229c-0.267,-0.343 -0.572,-0.687 -0.839,-1.03c-0.763,-0.878 -1.603,-1.641 -2.404,-2.519c-0.382,-0.419 -0.725,-0.839 -1.03,-1.297c0.267,-0.572 0.61,-1.145 0.916,-1.717l0.305,0.229Z" style="fill-rule:nonzero;"/>            <path id="svg_3" d="M17.034,78.262c0.267,0.038 1.565,-0.649 1.87,-0.801c1.259,-0.611 2.48,-1.26 3.739,-1.87c1.221,-0.611 1.374,-0.611 0.84,-1.946l0.343,-0.191l1.794,3.625l-0.344,0.191c-0.687,-1.298 -0.877,-1.031 -2.022,-0.458c-1.412,0.687 -2.862,1.374 -4.274,2.06c-0.229,0.115 -0.496,0.229 -0.763,0.344c-0.954,0.496 -0.649,0.839 -0.343,1.641l-0.344,0.19l-1.793,-3.625l0.343,-0.19c0.267,0.381 0.496,0.992 0.954,1.03Z" style="fill-rule:nonzero;"/>            <path id="svg_4" d="M11.997,59.526c0.306,0.153 1.45,-0.038 1.794,-0.076c1.602,-0.191 3.205,-0.42 4.808,-0.649c0.534,-0.076 1.068,-0.152 1.564,-0.305l0.191,0.42c-0.191,0.114 -0.382,0.305 -0.534,0.458c-0.344,0.381 -0.687,0.801 -1.031,1.221c-0.534,0.687 -1.106,1.373 -1.64,2.06c-1.107,1.374 -2.213,2.748 -3.282,4.159l0.153,-0.038c1.488,-0.229 2.938,-0.458 4.426,-0.687c0.42,-0.076 1.412,-0.228 1.755,-0.457c0.382,-0.306 0.306,-1.069 0.306,-1.527l0.381,-0.076l0.573,3.663l-0.382,0.076c-0.115,-0.381 -0.191,-0.992 -0.572,-1.182c-0.382,-0.191 -1.489,0.038 -1.908,0.076c-1.45,0.191 -2.9,0.305 -4.312,0.534c-1.221,0.191 -1.412,0.687 -1.336,1.793l-0.381,0.039l-0.382,-2.519c0.191,-0.191 0.382,-0.381 0.534,-0.572c0.611,-0.725 1.221,-1.45 1.794,-2.213c1.145,-1.45 2.289,-2.9 3.396,-4.35l-4.083,0.648c-1.565,0.229 -2.175,0.306 -2.022,2.023l-0.382,0.038l-0.572,-3.74l0.343,-0.038c0.153,0.534 0.305,0.992 0.801,1.221Z" style="fill-rule:nonzero;"/>            <path id="svg_5" d="M16.691,45.446l-0.42,2.29c-1.755,-1.031 -2.709,-1.603 -3.129,-1.87c0.763,-0.115 1.946,-0.229 3.549,-0.42Zm5.037,-2.938l-0.382,-0.076c-0.191,0.801 -0.649,1.068 -0.839,1.106c-0.458,0.115 -1.031,0.229 -1.565,0.305c-2.289,0.306 -4.464,0.573 -7.441,0.916l0,0.077c0.382,0.343 0.535,0.725 0.725,1.182c0.382,0.077 0.611,0.191 0.916,0.382c1.755,1.107 3.892,2.404 5.304,3.396c0.878,0.611 0.954,0.84 1.068,0.916c0.153,0.152 0.191,0.305 0.115,0.763l0.382,0.076l0.61,-3.167l-0.382,-0.076c-0.152,0.42 -0.228,1.183 -0.801,1.106c-0.229,-0.038 -0.687,-0.228 -1.106,-0.496c-0.535,-0.305 -1.069,-0.61 -1.641,-0.954l0.496,-2.594c0.877,-0.115 1.755,-0.229 2.366,-0.267c0.343,-0.039 0.648,0 0.763,0.076c0.42,0.305 0.343,0.839 0.229,1.412l0.381,0.076l0.802,-4.159Z" style="fill-rule:nonzero;"/>            <path id="svg_6" d="M21.461,24.917c0.152,0.305 1.144,0.878 1.411,1.069c1.374,0.877 2.748,1.717 4.121,2.556c0.458,0.267 0.916,0.534 1.412,0.763l-0.114,0.458c-0.229,-0.038 -0.496,0 -0.687,0.038c-0.534,0.077 -1.03,0.153 -1.565,0.267c-0.839,0.191 -1.717,0.344 -2.556,0.535c-1.717,0.381 -3.434,0.725 -5.151,1.106l0.114,0.077c1.297,0.763 2.557,1.526 3.854,2.251c0.382,0.229 1.259,0.725 1.641,0.763c0.496,0 0.916,-0.649 1.183,-0.954l0.343,0.191l-1.908,3.205l-0.343,-0.191c0.152,-0.381 0.496,-0.877 0.305,-1.297c-0.191,-0.382 -1.183,-0.916 -1.526,-1.145c-1.221,-0.763 -2.442,-1.602 -3.663,-2.327c-1.069,-0.611 -1.527,-0.382 -2.175,0.534l-0.306,-0.191l1.298,-2.175c0.267,0 0.534,-0.038 0.801,-0.114c0.916,-0.191 1.87,-0.382 2.786,-0.573c1.793,-0.381 3.586,-0.801 5.38,-1.221l-3.549,-2.099c-1.374,-0.801 -1.87,-1.182 -2.824,0.306l-0.305,-0.191l1.908,-3.244l0.305,0.191c-0.267,0.458 -0.419,0.916 -0.19,1.412Z" style="fill-rule:nonzero;"/>            <path id="svg_7" d="M35.846,21.559c-0.153,0.191 -0.343,0.344 -0.534,0.496c-0.496,0.458 -1.107,0.802 -1.679,1.145c-0.649,-0.496 -1.221,-0.992 -1.794,-1.564l0.229,-0.306c0.764,0.382 1.565,0.878 2.443,0.611c0.267,-0.115 0.534,-0.229 0.763,-0.42c0.725,-0.649 0.839,-1.755 0.19,-2.48c-0.915,-1.03 -2.365,-0.382 -3.472,-0.115c-1.03,0.267 -2.099,0.191 -2.862,-0.687c-0.992,-1.144 -0.648,-2.861 0.42,-3.815c0.42,-0.344 0.916,-0.573 1.374,-0.84c0.076,-0.038 0.114,-0.076 0.19,-0.114c0.115,-0.077 0.191,-0.191 0.229,-0.306c0.191,0.115 0.382,0.306 0.573,0.497l1.106,0.992l-0.229,0.305c-0.954,-0.496 -2.136,-0.84 -3.052,-0.038c-0.687,0.61 -0.763,1.564 -0.153,2.251c0.573,0.649 1.526,0.458 2.251,0.305c1.565,-0.343 3.015,-0.992 4.274,0.458c0.954,1.03 0.611,2.633 -0.267,3.625Z" style="fill-rule:nonzero;"/>            <path id="svg_8" d="M42.218,7.364c-0.038,0.268 0.649,1.565 0.802,1.87c0.61,1.259 1.259,2.48 1.869,3.74c0.611,1.221 0.611,1.373 1.947,0.839l0.19,0.344l-3.625,1.793l-0.19,-0.343c1.297,-0.687 1.03,-0.878 0.457,-2.023c-0.686,-1.412 -1.373,-2.862 -2.06,-4.273c-0.115,-0.229 -0.229,-0.497 -0.344,-0.764c-0.496,-0.992 -0.839,-0.648 -1.64,-0.343l-0.191,-0.343l3.625,-1.794l0.191,0.344c-0.344,0.267 -0.992,0.534 -1.031,0.953Z" style="fill-rule:nonzero;"/>            <path id="svg_9" d="M60.992,2.366c-0.153,0.305 0.038,1.45 0.076,1.793c0.191,1.603 0.382,3.205 0.649,4.808c0.076,0.534 0.153,1.069 0.305,1.565l-0.419,0.19c-0.115,-0.19 -0.306,-0.381 -0.458,-0.534c-0.382,-0.343 -0.802,-0.687 -1.183,-1.03c-0.687,-0.534 -1.374,-1.107 -2.061,-1.641c-1.373,-1.106 -2.747,-2.213 -4.121,-3.281l0.038,0.152c0.229,1.488 0.458,2.938 0.687,4.426c0.077,0.42 0.229,1.412 0.458,1.756c0.305,0.381 1.069,0.305 1.526,0.305l0.077,0.382l-3.663,0.572l-0.077,-0.382c0.382,-0.114 0.992,-0.19 1.183,-0.572c0.191,-0.382 -0.038,-1.488 -0.076,-1.908c-0.191,-1.45 -0.305,-2.9 -0.534,-4.312c-0.191,-1.221 -0.649,-1.412 -1.794,-1.335l-0.038,-0.382l2.519,-0.381c0.152,0.19 0.381,0.381 0.572,0.534c0.725,0.61 1.45,1.221 2.213,1.793c1.45,1.145 2.9,2.29 4.35,3.396l-0.649,-4.083c-0.229,-1.564 -0.267,-2.175 -2.022,-2.022l-0.038,-0.382l3.739,-0.572l0.038,0.343c-0.61,0.153 -1.068,0.306 -1.297,0.802Z" style="fill-rule:nonzero;"/>            <path id="svg_10" d="M72.707,11.371c-0.268,0 -0.496,-0.038 -0.725,-0.076c-0.649,-0.115 -1.336,-0.344 -1.946,-0.573c-0.039,-0.801 0,-1.602 0.038,-2.404l0.381,0c0.191,0.802 0.306,1.794 1.069,2.252c0.267,0.152 0.534,0.267 0.801,0.343c0.954,0.153 1.87,-0.458 2.061,-1.412c0.228,-1.373 -1.183,-2.098 -2.099,-2.747c-0.84,-0.649 -1.488,-1.526 -1.298,-2.633c0.229,-1.488 1.794,-2.328 3.206,-2.099c0.534,0.077 1.03,0.344 1.526,0.535c0.076,0.038 0.115,0.038 0.229,0.076c0.153,0.038 0.267,0 0.382,0c0.038,0.229 0,0.496 0,0.763l-0.077,1.488l-0.381,0.038c-0.229,-1.068 -0.687,-2.175 -1.908,-2.404c-0.916,-0.152 -1.679,0.42 -1.832,1.298c-0.152,0.839 0.611,1.45 1.183,1.908c1.259,0.992 2.671,1.717 2.366,3.587c-0.191,1.373 -1.641,2.098 -2.976,2.06Z" style="fill-rule:nonzero;"/>            <path id="svg_11" d="M87.168,11.982c-0.343,-0.153 -0.648,-0.382 -0.954,-0.573l0.153,-0.267c0.191,0.115 0.382,0.229 0.572,0.344c0.191,0.076 0.382,0.152 0.611,0.19c0.839,0.115 1.717,-0.648 2.061,-1.373c0.305,-0.649 0.343,-1.527 -0.039,-2.175c-0.229,-0.382 -0.725,-0.725 -1.106,-0.916c-0.191,-0.076 -0.382,-0.153 -0.573,-0.229c-0.229,0.267 -0.648,1.221 -0.839,1.564c-0.42,0.878 -0.84,1.756 -1.259,2.633c-0.382,0.763 -0.763,1.527 -1.145,2.29c-0.076,0.191 -0.191,0.419 -0.153,0.61c0.077,0.382 0.687,0.725 0.992,0.878l-0.19,0.343c-0.84,-0.419 -1.641,-0.839 -2.481,-1.221c-0.381,-0.191 -0.801,-0.381 -1.221,-0.572l0.191,-0.344c1.069,0.382 1.259,0.573 1.832,-0.61l2.366,-4.846c0.114,-0.267 0.496,-0.916 0.419,-1.183c-0.076,-0.343 -0.61,-0.572 -0.877,-0.763l0.152,-0.344c0.344,0.191 0.687,0.382 1.031,0.535c0.763,0.381 1.564,0.725 2.327,1.068c0.076,0.038 0.115,0.076 0.191,0.076c1.45,0.725 2.328,2.175 1.564,3.74c-0.61,1.335 -2.365,1.755 -3.625,1.145Z" style="fill-rule:nonzero;"/>            <path id="svg_12" d="M98.349,25.07c-1.183,-1.145 -2.366,-2.29 -3.587,-3.434l-0.649,-0.611c-0.458,-0.42 -0.916,-0.878 -1.412,-1.297l0.267,-0.267l0.077,0.076c0.267,0.267 0.954,0.954 1.335,0.877c0.382,-0.076 0.954,-0.686 1.221,-0.953c1.221,-1.298 2.442,-2.595 3.702,-3.893c0.763,-0.801 0.534,-1.03 -0.153,-1.717l0.267,-0.267c0.496,0.496 0.992,0.992 1.488,1.45c0.802,0.763 1.679,1.412 2.481,2.175c0.228,0.229 0.457,0.458 0.686,0.687c-0.267,0.687 -0.496,1.374 -0.839,2.022l-0.344,-0.152c0.458,-1.794 -0.038,-2.442 -1.335,-3.663c-0.115,-0.077 -0.382,-0.382 -0.534,-0.382c-0.191,0.115 -0.306,0.305 -0.458,0.458c-0.687,0.725 -1.374,1.412 -2.061,2.099c-0.038,0.038 -0.114,0.114 -0.152,0.152c0.038,0.038 0.114,0.115 0.152,0.153c0.306,0.305 0.649,0.649 1.031,0.878c0.648,0.381 1.03,0.038 1.526,-0.344l0.267,0.229l-2.099,2.175l-0.267,-0.229c0.229,-0.305 0.496,-0.61 0.496,-0.992c0,-0.42 -0.877,-1.183 -1.221,-1.488c-0.038,-0.038 -0.114,-0.115 -0.152,-0.115c-0.039,0 -0.306,0.306 -0.382,0.344l-1.336,1.412c-0.114,0.114 -0.915,0.992 -0.953,1.068c-0.039,0.191 0.992,1.183 1.182,1.374c0.306,0.267 0.649,0.534 0.993,0.687c0.725,0.305 1.869,-0.153 2.48,-0.458l0.191,0.229c-0.573,0.61 -1.221,1.221 -1.908,1.717Z" style="fill-rule:nonzero;"/>            <path id="svg_13" d="M106.171,37.013c-0.305,-0.572 -0.61,-1.183 -0.954,-1.717l0.344,-0.191c0.076,0.153 0.381,0.802 0.648,0.649c0.229,-0.115 0.305,-0.572 0.382,-0.763c0.343,-0.916 0.648,-1.832 0.992,-2.748c0.076,-0.229 0.305,-0.725 0.267,-0.954c0,-0.038 -0.038,-0.076 -0.038,-0.114c-0.076,-0.114 -0.115,-0.229 -0.191,-0.305l-2.442,1.297c-0.191,0.115 -0.458,0.229 -0.572,0.458c-0.153,0.343 0.076,0.878 0.229,1.221l-0.344,0.191c-0.343,-0.687 -0.687,-1.374 -1.03,-2.023c-0.267,-0.496 -0.534,-0.992 -0.801,-1.45l0.343,-0.19c0.191,0.267 0.42,0.801 0.801,0.877c0.306,0.038 0.916,-0.343 1.183,-0.458c0.992,-0.534 1.984,-1.03 3.015,-1.564c0.458,-0.229 2.442,-1.221 2.594,-1.565c0.115,-0.305 -0.229,-0.877 -0.343,-1.182l0.343,-0.191l1.908,3.548l-0.343,0.191c-0.191,-0.305 -0.344,-0.763 -0.687,-0.916c-0.305,-0.152 -0.954,0.268 -1.221,0.42c-0.153,0.077 -0.382,0.191 -0.534,0.267c-0.573,0.306 -1.145,0.611 -1.717,0.916l0.038,0.076c0.305,0.573 1.068,0.687 1.641,0.84c0.572,0.153 2.632,0.725 3.09,0.496c0.344,-0.191 0,-0.801 -0.114,-1.068l0.343,-0.191l1.679,3.129l-0.343,0.19c-0.649,-1.03 -0.725,-0.992 -1.832,-1.335c-0.572,-0.191 -1.183,-0.305 -1.755,-0.458c-0.572,-0.153 -1.145,-0.267 -1.755,-0.42c-0.191,0.611 -0.42,1.26 -0.649,1.87c-0.305,0.84 -0.572,1.679 -0.878,2.518c-0.114,0.306 -0.381,1.107 -0.381,1.412c0,0.306 0.038,0.458 0.152,0.725l-0.343,0.191c-0.153,-0.649 -0.458,-1.183 -0.725,-1.679Z" style="fill-rule:nonzero;"/>            <path id="svg_14" d="M116.626,50.674c0.344,-0.115 1.069,-0.382 1.26,-0.649c0.381,-0.534 0.267,-1.336 0.152,-1.946c-0.038,-0.229 -0.076,-0.42 -0.114,-0.649c-2.213,0.344 -4.465,0.687 -6.678,1.031c-1.221,0.19 -1.145,0.725 -1.068,1.793l-0.42,0.076l-0.725,-4.388l0.42,-0.038c0.114,0.382 0.152,0.992 0.572,1.183c0.305,0.114 0.954,0.038 1.259,-0.038c1.183,-0.191 2.404,-0.382 3.587,-0.573l2.786,-0.458c-0.039,-0.267 -0.077,-0.534 -0.153,-0.839c-0.038,-0.229 -0.076,-0.458 -0.115,-0.687c-0.19,-0.916 -1.182,-1.145 -1.984,-1.335c0,-0.153 0.038,-0.268 0.038,-0.42l2.633,0.229l0,0.191c-0.381,0.305 -0.343,0.648 -0.267,1.068l0.878,5.38c0.076,0.42 0.229,0.573 0.572,0.763l0,0.191c-0.839,0.229 -1.679,0.344 -2.556,0.496c0,-0.114 -0.039,-0.229 -0.077,-0.381Z" style="fill-rule:nonzero;"/>            <path id="svg_15" d="M117.771,62.159c-0.191,-0.152 -1.679,-0.305 -2.022,-0.343c-1.374,-0.153 -2.786,-0.305 -4.16,-0.458c-1.335,-0.153 -1.488,-0.229 -1.755,1.183l-0.381,-0.038l0.458,-4.007l0.381,0.038c-0.114,1.45 0.191,1.336 1.45,1.45c1.565,0.191 3.167,0.382 4.694,0.573c0.267,0.038 0.534,0.076 0.801,0.114c1.068,0.115 0.992,-0.343 1.183,-1.221l0.381,0.038l-0.458,4.007l-0.381,-0.038c0.038,-0.344 0.191,-0.993 -0.191,-1.298Z" style="fill-rule:nonzero;"/>            <path id="svg_16" d="M109.071,78.033c-0.954,-0.42 -2.022,-1.03 -2.518,-1.984c-0.344,-0.687 -0.458,-1.641 -0.115,-2.366c0.916,-2.061 3.549,-2.175 5.342,-1.374c1.641,0.725 3.358,2.519 2.519,4.427c-0.458,1.03 -1.336,1.488 -2.404,1.678c-0.802,0.153 -2.099,-0.076 -2.824,-0.381Zm-0.687,1.526c0.954,0.42 2.099,0.611 3.129,0.305c1.45,-0.419 2.442,-1.335 3.053,-2.709c1.068,-2.404 0.191,-5.304 -2.29,-6.372c-1.526,-0.649 -2.671,-0.649 -4.121,0.191c-0.954,0.534 -1.564,1.297 -2.022,2.289c-0.572,1.336 -0.534,2.557 -0.038,3.892c0.419,1.031 1.297,1.946 2.289,2.404Z" style="fill-rule:nonzero;"/>            <path id="svg_17" d="M100.18,95.357c-0.076,-0.306 -0.877,-1.145 -1.144,-1.374c-1.107,-1.145 -2.252,-2.328 -3.397,-3.434c-0.381,-0.382 -0.763,-0.763 -1.182,-1.069l0.19,-0.419c0.229,0.076 0.458,0.114 0.687,0.152c0.534,0.076 1.069,0.076 1.565,0.076c0.877,0.039 1.755,0.039 2.633,0.077c1.755,0.038 3.51,0.114 5.265,0.114l-0.114,-0.114c-1.069,-1.03 -2.137,-2.061 -3.205,-3.091c-0.306,-0.305 -1.031,-0.992 -1.45,-1.107c-0.458,-0.114 -1.069,0.382 -1.374,0.649l-0.267,-0.267l2.595,-2.671l0.267,0.267c-0.229,0.305 -0.687,0.763 -0.611,1.183c0.076,0.42 0.916,1.145 1.221,1.45c0.992,1.03 1.984,2.099 3.015,3.129c0.877,0.839 1.373,0.725 2.251,-0.038l0.267,0.267l-1.755,1.831c-0.267,-0.076 -0.534,-0.076 -0.801,-0.076c-0.954,-0.038 -1.908,-0.076 -2.862,-0.114c-1.832,-0.039 -3.702,-0.077 -5.533,-0.115l2.976,2.862c1.145,1.107 1.565,1.564 2.824,0.382l0.267,0.267l-2.633,2.709l-0.267,-0.267c0.42,-0.305 0.687,-0.725 0.572,-1.259Z" style="fill-rule:nonzero;"/>            <path id="svg_18" d="M82.132,97.112c1.488,-0.725 2.976,-1.45 4.426,-2.175l0.801,-0.382c0.573,-0.267 1.107,-0.572 1.679,-0.877l0.191,0.343l-0.115,0.038c-0.343,0.153 -1.221,0.573 -1.297,0.954c-0.076,0.382 0.305,1.145 0.458,1.45c0.801,1.603 1.603,3.205 2.404,4.808c0.496,0.992 0.801,0.84 1.679,0.458l0.153,0.343c-0.611,0.306 -1.26,0.611 -1.908,0.916c-0.992,0.496 -1.908,1.107 -2.862,1.603c-0.267,0.152 -0.573,0.267 -0.878,0.381c-0.534,-0.496 -1.106,-0.915 -1.602,-1.488l0.267,-0.267c1.526,1.069 2.327,0.801 3.892,0c0.114,-0.076 0.496,-0.229 0.534,-0.343c-0.038,-0.191 -0.191,-0.42 -0.267,-0.573c-0.42,-0.877 -0.84,-1.755 -1.298,-2.633c-0.038,-0.076 -0.076,-0.152 -0.114,-0.19c-0.076,0 -0.153,0.038 -0.229,0.076c-0.382,0.191 -0.839,0.382 -1.183,0.687c-0.572,0.458 -0.381,0.954 -0.191,1.526l-0.305,0.153l-1.335,-2.709l0.305,-0.153c0.191,0.305 0.381,0.687 0.763,0.801c0.42,0.153 1.45,-0.42 1.832,-0.61c0.038,0 0.152,-0.077 0.19,-0.115c0,-0.038 -0.19,-0.42 -0.19,-0.458l-0.878,-1.755c-0.076,-0.153 -0.611,-1.221 -0.687,-1.259c-0.153,-0.076 -1.45,0.534 -1.679,0.649c-0.343,0.19 -0.725,0.419 -0.992,0.725c-0.534,0.572 -0.496,1.793 -0.42,2.518l-0.267,0.114c-0.305,-0.915 -0.648,-1.717 -0.877,-2.556Z" style="fill-rule:nonzero;"/>            <path id="svg_19" d="M67.364,108.559c0.153,-0.305 0,-1.45 0,-1.793c-0.152,-1.603 -0.305,-3.205 -0.496,-4.808c-0.076,-0.534 -0.114,-1.069 -0.267,-1.603l0.42,-0.191c0.115,0.191 0.305,0.382 0.458,0.535c0.382,0.381 0.763,0.725 1.183,1.068c0.649,0.572 1.335,1.145 1.984,1.717c1.336,1.145 2.671,2.29 4.045,3.396l0,-0.152c-0.191,-1.489 -0.344,-2.977 -0.573,-4.427c-0.038,-0.419 -0.19,-1.45 -0.419,-1.793c-0.267,-0.382 -1.069,-0.344 -1.488,-0.344l-0.039,-0.381l3.702,-0.458l0.038,0.382c-0.382,0.076 -0.992,0.152 -1.221,0.534c-0.191,0.381 0,1.488 0.038,1.908c0.153,1.45 0.229,2.9 0.382,4.312c0.152,1.221 0.61,1.45 1.755,1.373l0.038,0.382l-2.518,0.305c-0.153,-0.229 -0.382,-0.382 -0.573,-0.572c-0.725,-0.611 -1.412,-1.26 -2.137,-1.87c-1.412,-1.183 -2.823,-2.366 -4.235,-3.549l0.496,4.083c0.191,1.565 0.229,2.213 1.984,2.061l0.038,0.381l-3.739,0.458l-0.038,-0.343c0.457,0.038 0.954,-0.115 1.182,-0.611Z" style="fill-rule:nonzero;"/>        </g>    </g></svg>