<?xml version="1.0" encoding="UTF-8" standalone="no"?><!DOCTYPE svg PUBLIC "-//W3C//DTD SVG 1.1//EN" "http://www.w3.org/Graphics/SVG/1.1/DTD/svg11.dtd"><svg width="100%" height="100%" viewBox="0 0 1024 512" version="1.1" xmlns="http://www.w3.org/2000/svg" xmlns:xlink="http://www.w3.org/1999/xlink" xml:space="preserve" style="fill-rule:evenodd;clip-rule:evenodd;stroke-linejoin:round;stroke-miterlimit:2;"><title>ViaConto SE</title><desc></desc>    <g transform="matrix(2.71554,0,0,2.71554,2.04255,39.5716)">        <path d="M70.1,64.5l-20.6,39.7l-0.5,0l-21.4,-39.7l10.3,0l11.7,24.6l10.8,-24.6l9.7,0Z" style="fill:rgb(0,58,81);fill-rule:nonzero;"/>        <path d="M80.4,47.2c1.1,-0.9 2.3,-1.4 3.6,-1.4c1.4,0 2.6,0.5 3.6,1.4c1,0.9 1.5,2.1 1.5,3.4c0,1.4 -0.5,2.5 -1.5,3.5c-1,0.9 -2.2,1.4 -3.6,1.4c-1.4,0 -2.6,-0.5 -3.6,-1.4c-1.1,-0.9 -1.6,-2.1 -1.6,-3.5c0,-1.4 0.5,-2.5 1.6,-3.4Zm7.7,17.3l0,38.6l-8.7,0l0,-38.6l8.7,0Z" style="fill:rgb(0,58,81);fill-rule:nonzero;"/>        <path d="M142.8,64.5l0,38.6l-8.7,0l0,-6.3c-1.4,1.8 -3.4,3.5 -6,5c-2.6,1.5 -5.6,2.3 -8.9,2.3c-3.7,0 -7,-0.8 -9.9,-2.4c-3,-1.6 -5.3,-3.9 -7,-6.9c-1.7,-3 -2.6,-6.7 -2.6,-10.9c0,-4.2 0.9,-7.9 2.7,-11c1.8,-3.1 4.2,-5.6 7.2,-7.3c3,-1.7 6.4,-2.6 10,-2.6c3.3,0 6.2,0.7 8.6,2.1c2.4,1.4 4.4,3.3 5.9,5.6l0.7,-6.2l8,0Zm-13,29.7c2.3,-1.8 3.7,-4.2 4.3,-7.2l0,-7.6c-0.7,-2.7 -2.3,-5 -4.7,-6.7c-2.4,-1.7 -5.1,-2.6 -8.1,-2.6c-2.3,0 -4.4,0.6 -6.4,1.7c-2,1.1 -3.5,2.7 -4.7,4.7c-1.2,2 -1.7,4.3 -1.7,6.9c0,2.5 0.6,4.8 1.8,6.8c1.2,2.1 2.8,3.7 4.8,4.9c2,1.2 4.2,1.8 6.5,1.8c3.2,0 6,-0.9 8.2,-2.7Z" style="fill:rgb(0,58,81);fill-rule:nonzero;"/>        <path d="M183.1,102.8c-2.4,0.8 -4.8,1.2 -7.3,1.2c-4.2,0 -7.8,-0.8 -11,-2.5c-3.2,-1.7 -5.7,-4.1 -7.5,-7.1c-1.8,-3.1 -2.7,-6.6 -2.7,-10.7c0,-4 0.9,-7.5 2.8,-10.6c1.9,-3.1 4.4,-5.5 7.5,-7.1c3.1,-1.7 6.5,-2.5 10.1,-2.5c5.9,0 10.8,1.6 14.6,4.8l-4.4,5.7c-1.2,-0.9 -2.7,-1.7 -4.3,-2.4c-1.6,-0.7 -3.4,-1 -5.2,-1c-2.3,0 -4.4,0.6 -6.3,1.7c-1.9,1.2 -3.4,2.7 -4.5,4.7c-1.1,2 -1.6,4.2 -1.6,6.6c0,2.4 0.6,4.6 1.7,6.6c1.1,2 2.7,3.6 4.7,4.8c2,1.2 4.3,1.8 6.8,1.8c3.2,0 5.9,-0.9 8.3,-2.8l4.5,5.4c-1.8,1.5 -3.8,2.6 -6.2,3.4Z" style="fill:rgb(0,58,81);fill-rule:nonzero;"/>        <path d="M199.8,73c1.8,-3.1 4.4,-5.6 7.6,-7.4c3.3,-1.8 6.9,-2.7 11,-2.7c4.1,0 7.8,0.9 11,2.7c3.2,1.8 5.7,4.3 7.5,7.4c1.8,3.1 2.7,6.6 2.7,10.4c0,3.9 -0.9,7.4 -2.7,10.5c-1.8,3.1 -4.3,5.6 -7.5,7.4c-3.2,1.8 -6.9,2.7 -11.1,2.7c-4,0 -7.7,-0.9 -10.9,-2.6c-3.2,-1.7 -5.8,-4.1 -7.6,-7.2c-1.8,-3.1 -2.8,-6.7 -2.8,-10.8c0.1,-3.8 1,-7.2 2.8,-10.4Zm7.7,17.2c1.1,2.1 2.6,3.7 4.5,4.8c1.9,1.2 4,1.8 6.3,1.8c3.6,0 6.6,-1.3 9,-3.8c2.4,-2.5 3.5,-5.7 3.5,-9.5c0,-3.8 -1.2,-7 -3.5,-9.6c-2.4,-2.6 -5.3,-3.9 -9,-3.9c-2.4,0 -4.5,0.6 -6.3,1.8c-1.9,1.2 -3.3,2.8 -4.4,4.9c-1.1,2.1 -1.6,4.3 -1.6,6.7c0,2.4 0.4,4.8 1.5,6.8Z" style="fill:rgb(0,58,81);fill-rule:nonzero;"/>        <path d="M284.2,66.2c2.4,2.1 3.6,4.9 3.6,8.3l0,28.5l-8.8,0l0,-25.4c-0.1,-2.2 -0.8,-3.9 -2,-5.1c-1.2,-1.2 -3,-1.9 -5.3,-2c-3.4,0 -6.2,1.4 -8.5,4.1c-2.2,2.7 -3.4,6.2 -3.4,10.4l0,18.1l-8.7,0l0,-38.6l7.8,0l0.6,7.5c1.4,-2.8 3.4,-5 6.2,-6.6c2.7,-1.6 5.9,-2.4 9.4,-2.4c3.7,0 6.7,1.1 9.1,3.2Z" style="fill:rgb(0,58,81);fill-rule:nonzero;"/>        <path d="M335.8,73c1.8,-3.1 4.4,-5.6 7.6,-7.4c3.3,-1.8 6.9,-2.7 11,-2.7c4.1,0 7.8,0.9 11,2.7c3.2,1.8 5.7,4.3 7.5,7.4c1.8,3.1 2.7,6.6 2.7,10.4c0,3.9 -0.9,7.4 -2.7,10.5c-1.8,3.1 -4.3,5.6 -7.5,7.4c-3.2,1.8 -6.9,2.7 -11.1,2.7c-4,0 -7.7,-0.9 -10.9,-2.6c-3.2,-1.7 -5.8,-4.1 -7.6,-7.2c-1.8,-3.1 -2.7,-6.7 -2.7,-10.8c-0.1,-3.8 0.8,-7.2 2.7,-10.4Zm7.6,17.2c1.1,2.1 2.6,3.7 4.5,4.8c1.9,1.2 4,1.8 6.3,1.8c3.6,0 6.6,-1.3 9,-3.8c2.4,-2.5 3.5,-5.7 3.5,-9.5c0,-3.8 -1.2,-7 -3.5,-9.6c-2.4,-2.6 -5.3,-3.9 -9,-3.9c-2.4,0 -4.5,0.6 -6.3,1.8c-1.9,1.2 -3.3,2.8 -4.4,4.9c-1.1,2.1 -1.6,4.3 -1.6,6.7c0,2.4 0.4,4.8 1.5,6.8Z" style="fill:rgb(0,58,81);fill-rule:nonzero;"/>        <path d="M136.652,124.632c-12.497,15.836 -31.481,26.428 -53.137,27.573c-40.075,2.194 -74.226,-28.624 -76.42,-68.597c-2.194,-39.973 28.624,-74.219 68.597,-76.413c24.325,-1.336 46.551,9.541 60.669,27.284c1.203,1.512 3.407,1.763 4.918,0.56c1.512,-1.203 1.763,-3.407 0.56,-4.918c-15.482,-19.457 -39.856,-31.38 -66.531,-29.916c-43.827,2.406 -77.609,39.96 -75.203,83.787c2.406,43.827 39.855,77.609 83.786,75.203c23.738,-1.255 44.554,-12.863 58.257,-30.227c1.196,-1.516 0.937,-3.719 -0.58,-4.916c-1.516,-1.196 -3.719,-0.937 -4.916,0.58Z" style="fill:url(#_Linear1);"/>        <path d="M321.3,95.7c0,0 -1.5,0.1 -1.9,0.1c-2.7,0 -4.1,-1.2 -4.1,-5.2l0,-19.1l10.5,0l0,-6.9l-10.5,0l0,-17.1l-8.8,0l0,17.1l-7.1,0l0,6.9l7.1,0l0,19.8c0,3.9 0.9,7.2 3,9.3c2.1,2.1 4.8,3.1 8,3.2c1.7,0.1 3.7,-0.3 3.7,-0.3l0.1,-7.8Z" style="fill:rgb(0,58,81);fill-rule:nonzero;"/>    </g>    <defs>        <linearGradient id="_Linear1" x1="0" y1="0" x2="1" y2="0" gradientUnits="userSpaceOnUse" gradientTransform="matrix(142.909,0,0,142.909,0,79.627)"><stop offset="0" style="stop-color:rgb(206,76,113);stop-opacity:1"/><stop offset="1" style="stop-color:rgb(1,58,81);stop-opacity:1"/></linearGradient>    </defs></svg>