<?xml version="1.0" encoding="UTF-8" standalone="no"?><!DOCTYPE svg PUBLIC "-//W3C//DTD SVG 1.1//EN" "http://www.w3.org/Graphics/SVG/1.1/DTD/svg11.dtd"><svg width="100%" height="100%" viewBox="0 0 1024 512" version="1.1" xmlns="http://www.w3.org/2000/svg" xmlns:xlink="http://www.w3.org/1999/xlink" xml:space="preserve" style="fill-rule:evenodd;clip-rule:evenodd;stroke-linejoin:round;stroke-miterlimit:2;"><title>My Blue Bricks</title><desc>My Blue Bricks is building a community of like-minded peers leveraging the power of many and learning together along the way. We facilitate various types of real estate projects as well as real estate management &amp; consulting services. We are excited about the future because we know we can shape it together with you.My Blue Bricks stands for secure investments into something tangible, physical: A brick. A brick cannot be moved easily, and does not evaporate just like that. A brick is there to stay, and so are we.Our Spain based company is focused on the generation of Crowdfunding Real Estate investment opportunities for our community.</desc>    <g transform="matrix(1.88358,0,0,0.820926,-190.562,279.823)">        <g transform="matrix(65.0869,0,0,200,167,279.164)">            <path d="M0.074,-0.716l0.414,0c0.069,0 0.122,0.017 0.159,0.051c0.037,0.035 0.055,0.077 0.055,0.127c0,0.043 -0.013,0.079 -0.039,0.109c-0.018,0.02 -0.044,0.036 -0.078,0.048c0.052,0.013 0.09,0.034 0.114,0.064c0.024,0.03 0.036,0.068 0.036,0.113c0,0.037 -0.008,0.071 -0.026,0.1c-0.017,0.03 -0.04,0.054 -0.07,0.071c-0.019,0.011 -0.047,0.018 -0.084,0.023c-0.05,0.007 -0.083,0.01 -0.099,0.01l-0.382,0l0,-0.716Zm0.223,0.281l0.096,0c0.035,0 0.059,-0.006 0.072,-0.018c0.014,-0.012 0.02,-0.029 0.02,-0.051c0,-0.021 -0.006,-0.038 -0.02,-0.049c-0.013,-0.012 -0.037,-0.018 -0.07,-0.018l-0.098,0l0,0.136Zm0,0.281l0.113,0c0.038,0 0.065,-0.007 0.08,-0.02c0.016,-0.014 0.024,-0.032 0.024,-0.055c0,-0.021 -0.008,-0.038 -0.024,-0.051c-0.015,-0.012 -0.042,-0.019 -0.081,-0.019l-0.112,0l0,0.145Z" style="fill-rule:nonzero;"/>        </g>        <g transform="matrix(65.0869,0,0,200,218.928,279.164)">            <rect x="0.067" y="-0.716" width="0.199" height="0.716" style="fill-rule:nonzero;"/>        </g>        <g transform="matrix(65.0869,0,0,200,241.905,279.164)">            <path d="M0.606,0l-0.185,0l0,-0.084c-0.028,0.035 -0.056,0.059 -0.084,0.074c-0.028,0.014 -0.063,0.022 -0.104,0.022c-0.054,0 -0.097,-0.017 -0.128,-0.049c-0.031,-0.033 -0.047,-0.083 -0.047,-0.151l0,-0.331l0.2,0l0,0.286c0,0.032 0.006,0.055 0.018,0.069c0.012,0.014 0.029,0.02 0.051,0.02c0.023,0 0.043,-0.009 0.058,-0.027c0.015,-0.018 0.023,-0.051 0.023,-0.098l0,-0.25l0.198,0l0,0.519Z" style="fill-rule:nonzero;"/>        </g>        <g transform="matrix(65.0869,0,0,200,286.944,279.164)">            <path d="M0.636,-0.21l-0.399,0c0.004,0.032 0.013,0.056 0.026,0.071c0.019,0.023 0.044,0.034 0.075,0.034c0.02,0 0.038,-0.005 0.056,-0.015c0.011,-0.006 0.037,-0.039 0.05,-0.055l0.181,0.011c-0.024,0.068 -0.067,0.119 -0.109,0.142c-0.042,0.022 -0.103,0.034 -0.182,0.034c-0.069,0 -0.123,-0.01 -0.162,-0.029c-0.04,-0.02 -0.072,-0.05 -0.098,-0.093c-0.026,-0.042 -0.039,-0.091 -0.039,-0.148c0,-0.081 0.026,-0.147 0.078,-0.197c0.052,-0.05 0.124,-0.075 0.215,-0.075c0.074,0 0.133,0.011 0.176,0.033c0.043,0.023 0.076,0.055 0.098,0.098c0.023,0.043 0.034,0.098 0.034,0.167l0,0.022Zm-0.202,-0.106c-0.004,-0.039 -0.015,-0.055 -0.031,-0.072c-0.017,-0.016 -0.039,-0.025 -0.067,-0.025c-0.031,0 -0.056,0.013 -0.075,0.038c-0.012,0.016 -0.02,0.028 -0.023,0.059l0.196,0Z" style="fill-rule:nonzero;"/>        </g>        <g transform="matrix(65.0869,0,0,200,332.862,279.164)">            <path d="M0.074,-0.716l0.414,0c0.069,0 0.122,0.017 0.159,0.051c0.037,0.035 0.055,0.077 0.055,0.127c0,0.043 -0.013,0.079 -0.039,0.109c-0.018,0.02 -0.044,0.036 -0.078,0.048c0.052,0.013 0.09,0.034 0.114,0.064c0.024,0.03 0.036,0.068 0.036,0.113c0,0.037 -0.008,0.071 -0.026,0.1c-0.017,0.03 -0.04,0.054 -0.07,0.071c-0.019,0.011 -0.047,0.018 -0.084,0.023c-0.05,0.007 -0.083,0.01 -0.099,0.01l-0.382,0l0,-0.716Zm0.223,0.281l0.096,0c0.035,0 0.059,-0.006 0.072,-0.018c0.014,-0.012 0.02,-0.029 0.02,-0.051c0,-0.021 -0.006,-0.038 -0.02,-0.049c-0.013,-0.012 -0.037,-0.018 -0.07,-0.018l-0.098,0l0,0.136Zm0,0.281l0.113,0c0.038,0 0.065,-0.007 0.08,-0.02c0.016,-0.014 0.024,-0.032 0.024,-0.055c0,-0.021 -0.008,-0.038 -0.024,-0.051c-0.015,-0.012 -0.042,-0.019 -0.081,-0.019l-0.112,0l0,0.145Z" style="fill:rgb(49,174,242);fill-rule:nonzero;"/>        </g>        <g transform="matrix(65.0869,0,0,200,385.804,279.164)">            <path d="M0.062,-0.53l0.176,0l0,0.096c0.018,-0.036 0.046,-0.062 0.065,-0.076c0.02,-0.013 0.051,-0.027 0.079,-0.027c0.015,0 0.04,-0.003 0.058,0.004l-0.001,0.149c-0.027,-0.003 -0.053,-0.003 -0.067,-0.003c-0.026,0 -0.065,0.022 -0.08,0.043c-0.02,0.031 -0.03,0.087 -0.03,0.17l0,0.174l-0.2,0l0,-0.53Z" style="fill:rgb(49,174,242);fill-rule:nonzero;"/>        </g>        <g transform="matrix(65.0869,0,0,200,450.975,279.164)">            <path d="M0.432,-0.199l0.189,0.007c-0.011,0.039 -0.013,0.084 -0.037,0.113c-0.023,0.029 -0.054,0.051 -0.091,0.067c-0.037,0.016 -0.083,0.024 -0.14,0.024c-0.055,0 -0.101,-0.005 -0.138,-0.015c-0.037,-0.01 -0.068,-0.027 -0.094,-0.05c-0.027,-0.023 -0.032,-0.05 -0.047,-0.081c-0.015,-0.031 -0.023,-0.072 -0.023,-0.123c0,-0.053 0.009,-0.098 0.027,-0.133c0.014,-0.026 0.022,-0.05 0.045,-0.07c0.023,-0.021 0.042,-0.044 0.066,-0.054c0.039,-0.016 0.089,-0.024 0.149,-0.024c0.085,0 0.15,0.015 0.194,0.046c0.044,0.03 0.079,0.086 0.093,0.162l-0.192,0.003c-0.005,-0.022 -0.011,-0.039 -0.027,-0.05c-0.015,-0.011 -0.036,-0.017 -0.062,-0.017c-0.033,0 -0.059,0.012 -0.08,0.035c-0.02,0.024 -0.015,0.06 -0.015,0.108c0,0.042 -0.005,0.075 0.015,0.097c0.02,0.022 0.046,0.033 0.077,0.033c0.026,0 0.048,-0.007 0.066,-0.02c0.018,-0.013 0.016,-0.03 0.025,-0.058Z" style="fill:rgb(49,174,242);fill-rule:nonzero;"/>        </g>        <g transform="matrix(65.0869,0,0,200,494.576,279.164)">            <path d="M0.06,-0.716l0.203,0l0,0.392l0.204,-0.206l0.179,0l-0.181,0.182l0.197,0.348l-0.219,0l-0.105,-0.249l-0.075,0.077l0,0.172l-0.203,0l0,-0.716Z" style="fill:rgb(49,174,242);fill-rule:nonzero;"/>        </g>        <g transform="matrix(65.0869,0,0,200,537.338,279.164)">            <path d="M0.03,-0.14l0.162,-0.018c0.002,0.028 0.025,0.051 0.039,0.061c0.015,0.01 0.055,0.015 0.079,0.015c0.027,0 0.046,-0.003 0.061,-0.015c0.011,-0.008 0.013,-0.027 0.013,-0.04c0,-0.014 -0.005,-0.023 -0.02,-0.031c-0.011,-0.006 -0.032,-0.023 -0.078,-0.031c-0.069,-0.012 -0.117,-0.023 -0.144,-0.034c-0.027,-0.01 -0.044,-0.027 -0.063,-0.052c-0.018,-0.024 -0.027,-0.052 -0.027,-0.083c0,-0.034 0.005,-0.064 0.025,-0.089c0.02,-0.024 0.047,-0.043 0.082,-0.055c0.035,-0.012 0.081,-0.029 0.14,-0.029c0.062,0 0.107,0.012 0.137,0.021c0.029,0.01 0.054,0.028 0.074,0.048c0.019,0.02 0.031,0.035 0.044,0.069l-0.144,0.034c-0.005,-0.017 -0.028,-0.044 -0.039,-0.052c-0.016,-0.01 -0.034,-0.019 -0.056,-0.019c-0.023,0 -0.049,0.003 -0.059,0.012c-0.017,0.015 -0.016,0.029 -0.016,0.041c0,0.012 0.016,0.031 0.029,0.037c0.013,0.007 0.016,0.007 0.06,0.012c0.066,0.008 0.115,0.018 0.148,0.031c0.032,0.014 0.056,0.033 0.074,0.057c0.017,0.025 0.025,0.052 0.025,0.082c0,0.03 -0.009,0.059 -0.027,0.087c-0.018,0.029 -0.046,0.051 -0.085,0.068c-0.039,0.017 -0.092,0.025 -0.159,0.025c-0.095,0 -0.163,-0.013 -0.203,-0.04c-0.04,-0.027 -0.061,-0.062 -0.072,-0.112Z" style="fill:rgb(49,174,242);fill-rule:nonzero;"/>        </g>        <g transform="matrix(0.327038,0,0,0.783569,170.21,-356.606)">            <path d="M585,395.601c0,-9.162 -7.768,-16.601 -17.336,-16.601l-168.328,0c-9.568,0 -17.336,7.439 -17.336,16.601l0,47.798c0,9.162 7.768,16.601 17.336,16.601l168.328,0c9.568,0 17.336,-7.439 17.336,-16.601l0,-47.798Z" style="fill:rgb(49,174,242);"/>        </g>        <g transform="matrix(0.327038,0,0,0.783569,128.555,-255.056)">            <path d="M585,395.601c0,-9.162 -7.768,-16.601 -17.336,-16.601l-168.328,0c-9.568,0 -17.336,7.439 -17.336,16.601l0,47.798c0,9.162 7.768,16.601 17.336,16.601l168.328,0c9.568,0 17.336,-7.439 17.336,-16.601l0,-47.798Z" style="fill:rgb(49,174,242);"/>        </g>        <g transform="matrix(0.327038,0,0,0.783569,128.555,-458.157)">            <path d="M585,395.601c0,-9.162 -7.768,-16.601 -17.336,-16.601l-168.328,0c-9.568,0 -17.336,7.439 -17.336,16.601l0,47.798c0,9.162 7.768,16.601 17.336,16.601l168.328,0c9.568,0 17.336,-7.439 17.336,-16.601l0,-47.798Z" style="fill:rgb(49,174,242);"/>        </g>        <g transform="matrix(2.00253e-17,-0.750373,0.341505,4.79797e-17,247.067,99.3237)">            <path d="M585,395.601c0,-9.162 -7.768,-16.601 -17.336,-16.601l-168.328,0c-9.568,0 -17.336,7.439 -17.336,16.601l0,47.798c0,9.162 7.768,16.601 17.336,16.601l168.328,0c9.568,0 17.336,-7.439 17.336,-16.601l0,-47.798Z" style="fill:rgb(49,174,242);"/>        </g>        <g transform="matrix(2.00253e-17,-0.750373,0.341505,4.79797e-17,291.326,194.901)">            <path d="M585,395.601c0,-9.162 -7.768,-16.601 -17.336,-16.601l-168.328,0c-9.568,0 -17.336,7.439 -17.336,16.601l0,47.798c0,9.162 7.768,16.601 17.336,16.601l168.328,0c9.568,0 17.336,-7.439 17.336,-16.601l0,-47.798Z" style="fill:rgb(49,174,242);"/>        </g>        <g transform="matrix(2.00253e-17,-0.750373,0.341505,4.79797e-17,335.585,289.731)">            <path d="M585,395.601c0,-9.162 -7.768,-16.601 -17.336,-16.601l-168.328,0c-9.568,0 -17.336,7.439 -17.336,16.601l0,47.798c0,9.162 7.768,16.601 17.336,16.601l168.328,0c9.568,0 17.336,-7.439 17.336,-16.601l0,-47.798Z" style="fill:rgb(49,174,242);"/>        </g>        <g transform="matrix(2.00253e-17,-0.750373,0.341505,4.79797e-17,291.326,384.561)">            <path d="M585,395.601c0,-9.162 -7.768,-16.601 -17.336,-16.601l-168.328,0c-9.568,0 -17.336,7.439 -17.336,16.601l0,47.798c0,9.162 7.768,16.601 17.336,16.601l168.328,0c9.568,0 17.336,-7.439 17.336,-16.601l0,-47.798Z" style="fill:rgb(49,174,242);"/>        </g>        <g transform="matrix(2.00253e-17,-0.750373,0.341505,4.79797e-17,291.326,384.561)">            <path d="M585,395.601c0,-9.162 -7.768,-16.601 -17.336,-16.601l-168.328,0c-9.568,0 -17.336,7.439 -17.336,16.601l0,47.798c0,9.162 7.768,16.601 17.336,16.601l168.328,0c9.568,0 17.336,-7.439 17.336,-16.601l0,-47.798Z" style="fill:rgb(49,174,242);"/>        </g>        <g transform="matrix(2.00253e-17,-0.750373,0.341505,4.79797e-17,291.326,566.008)">            <path d="M585,395.601c0,-9.162 -7.768,-16.601 -17.336,-16.601l-168.328,0c-9.568,0 -17.336,7.439 -17.336,16.601l0,47.798c0,9.162 7.768,16.601 17.336,16.601l168.328,0c9.568,0 17.336,-7.439 17.336,-16.601l0,-47.798Z" style="fill:rgb(49,174,242);"/>        </g>        <g transform="matrix(2.00253e-17,-0.750373,0.341505,4.79797e-17,247.067,289.731)">            <path d="M585,395.601c0,-9.162 -7.768,-16.601 -17.336,-16.601l-168.328,0c-9.568,0 -17.336,7.439 -17.336,16.601l0,47.798c0,9.162 7.768,16.601 17.336,16.601l168.328,0c9.568,0 17.336,-7.439 17.336,-16.601l0,-47.798Z"/>        </g>        <g transform="matrix(2.00253e-17,-0.750373,0.341505,4.79797e-17,202.808,194.154)">            <path d="M585,395.601c0,-9.162 -7.768,-16.601 -17.336,-16.601l-168.328,0c-9.568,0 -17.336,7.439 -17.336,16.601l0,47.798c0,9.162 7.768,16.601 17.336,16.601l168.328,0c9.568,0 17.336,-7.439 17.336,-16.601l0,-47.798Z"/>        </g>        <g transform="matrix(-0.327038,-9.18942e-17,4.18223e-17,-0.783569,403.795,300.808)">            <path d="M585,395.601c0,-9.162 -7.768,-16.601 -17.336,-16.601l-168.328,0c-9.568,0 -17.336,7.439 -17.336,16.601l0,47.798c0,9.162 7.768,16.601 17.336,16.601l168.328,0c9.568,0 17.336,-7.439 17.336,-16.601l0,-47.798Z"/>        </g>        <g transform="matrix(-0.327038,-9.18942e-17,4.18223e-17,-0.783569,656.658,401.611)">            <path d="M585,395.601c0,-9.162 -7.768,-16.601 -17.336,-16.601l-168.328,0c-9.568,0 -17.336,7.439 -17.336,16.601l0,47.798c0,9.162 7.768,16.601 17.336,16.601l168.328,0c9.568,0 17.336,-7.439 17.336,-16.601l0,-47.798Z"/>        </g>        <g transform="matrix(2.00253e-17,-0.750373,0.341505,4.79797e-17,374.637,194.154)">            <path d="M585,395.601c0,-9.162 -7.768,-16.601 -17.336,-16.601l-168.328,0c-9.568,0 -17.336,7.439 -17.336,16.601l0,47.798c0,9.162 7.768,16.601 17.336,16.601l168.328,0c9.568,0 17.336,-7.439 17.336,-16.601l0,-47.798Z"/>        </g>        <g transform="matrix(0.327038,0,0,0.783569,46.2197,-255.056)">            <path d="M585,395.601c0,-9.162 -7.768,-16.601 -17.336,-16.601l-168.328,0c-9.568,0 -17.336,7.439 -17.336,16.601l0,47.798c0,9.162 7.768,16.601 17.336,16.601l168.328,0c9.568,0 17.336,-7.439 17.336,-16.601l0,-47.798Z" style="fill:rgb(49,174,242);"/>        </g>        <g transform="matrix(0.327038,0,0,0.783569,381.417,-356.606)">            <path d="M585,395.601c0,-9.162 -7.768,-16.601 -17.336,-16.601l-168.328,0c-9.568,0 -17.336,7.439 -17.336,16.601l0,47.798c0,9.162 7.768,16.601 17.336,16.601l168.328,0c9.568,0 17.336,-7.439 17.336,-16.601l0,-47.798Z" style="fill:rgb(49,174,242);"/>        </g>    </g></svg>