<?xml version="1.0" encoding="UTF-8" standalone="no"?><!DOCTYPE svg PUBLIC "-//W3C//DTD SVG 1.1//EN" "http://www.w3.org/Graphics/SVG/1.1/DTD/svg11.dtd"><svg width="100%" height="100%" viewBox="0 0 1024 512" version="1.1" xmlns="http://www.w3.org/2000/svg" xmlns:xlink="http://www.w3.org/1999/xlink" xml:space="preserve" style="fill-rule:evenodd;clip-rule:evenodd;stroke-linejoin:round;stroke-miterlimit:2;"><title>1000x1000</title><desc>The 1000x1000 is an initiative of the ISN - innovation service network GmbH. As Austria's leading innovation service provider, since 2001 we have been supporting companies in the development, evaluation and implementation of innovations. With 1000x1000.at we have developed together with our partners a tailor-made solution for the financing of innovation projects.</desc>    <g transform="matrix(935.914,0,0,935.914,44.043,723.043)">        <path d="M0.158,-0.672l-0.033,0l0,0.09l-0.029,0l0,-0.09l-0.034,0l0.001,-0.027l0.095,0l0,0.027Zm0.113,0.09l-0.029,0l-0.008,-0.023l-0.047,0l-0.007,0.023l-0.03,0l0.045,-0.117l0.034,0l0.042,0.117Zm-0.074,-0.049l0.028,0l-0.014,-0.039l-0.014,0.039Zm0.184,0.002c0,0.033 -0.017,0.049 -0.051,0.049c-0.034,0 -0.051,-0.016 -0.051,-0.049l0,-0.07l0.028,0l0,0.07c0,0.016 0.007,0.024 0.023,0.024c0.016,0 0.024,-0.008 0.024,-0.024l0,-0.07l0.027,0l0,0.07Zm0.101,-0.037c-0.013,-0.007 -0.024,-0.01 -0.033,-0.01c-0.012,0 -0.017,0.004 -0.017,0.012c0,0.004 0.007,0.008 0.023,0.012l0.004,0c0.025,0.004 0.037,0.015 0.037,0.033c0,0.026 -0.016,0.039 -0.049,0.039c-0.021,0 -0.037,-0.005 -0.051,-0.014l0.014,-0.023c0.013,0.008 0.026,0.012 0.037,0.012c0.013,0 0.02,-0.004 0.02,-0.01c0,-0.007 -0.008,-0.011 -0.024,-0.012l-0.006,0c-0.024,-0.004 -0.037,-0.016 -0.037,-0.037c0.003,-0.025 0.019,-0.037 0.047,-0.037c0.015,0 0.03,0.004 0.047,0.014l-0.012,0.021Zm0.122,0.084l-0.088,0l0,-0.117l0.088,0l0,0.025l-0.061,0l0,0.022l0.057,0l0,0.023l-0.057,0l0,0.022l0.061,0l0,0.025Zm0.126,0l-0.025,0l-0.055,-0.07l0,0.07l-0.027,0l0,-0.117l0.027,0l0.053,0.072l0,-0.072l0.027,0l0,0.117Zm0.077,-0.117c0.018,0 0.033,0.005 0.044,0.015c0.011,0.011 0.016,0.025 0.016,0.043c0,0.019 -0.005,0.033 -0.016,0.043c-0.011,0.011 -0.026,0.016 -0.044,0.016l-0.049,0l0,-0.117l0.049,0Zm-0.022,0.027l0,0.065l0.022,0c0.02,0 0.031,-0.011 0.031,-0.034c0,-0.02 -0.011,-0.031 -0.031,-0.031l-0.022,0Zm-0.582,0.236l-0.029,0l0,-0.08l-0.024,0.069l-0.029,0l-0.023,-0.069l0,0.08l-0.028,0l0,-0.117l0.039,0l0.028,0.074l0.025,-0.074l0.041,0l0,0.117Zm0.133,0l-0.029,0l-0.008,-0.025l-0.047,0l-0.01,0.025l-0.029,0l0.045,-0.117l0.033,0l0.045,0.117Zm-0.076,-0.048l0.029,0l-0.014,-0.041l-0.015,0.041Zm0.176,0.048l-0.088,0l0,-0.117l0.029,0l0,0.092l0.059,0l0,0.025Zm-0.202,0.055l-0.035,0l0,0.092l-0.027,0l0,-0.092l-0.035,0l0,-0.025l0.097,0l0,0.025Zm0.114,0.092l-0.03,0l-0.009,-0.025l-0.047,0l-0.008,0.025l-0.029,0l0.045,-0.117l0.033,0l0.045,0.117Zm-0.077,-0.051l0.028,0l-0.014,-0.039l-0.014,0.039Zm0.184,0.004c0,0.033 -0.017,0.049 -0.051,0.049c-0.034,0 -0.05,-0.016 -0.05,-0.049l0,-0.07l0.027,0l0,0.068c0,0.016 0.008,0.024 0.023,0.024c0.016,0 0.024,-0.008 0.024,-0.024l0,-0.068l0.027,0l0,0.07Zm0.102,-0.037c-0.009,-0.007 -0.021,-0.01 -0.034,-0.01c-0.011,0 -0.017,0.003 -0.017,0.01c0,0.005 0.008,0.009 0.023,0.012l0.006,0c0.025,0.004 0.037,0.015 0.037,0.035c0,0.026 -0.016,0.039 -0.049,0.039c-0.02,0 -0.038,-0.005 -0.052,-0.016l0.013,-0.021c0.013,0.008 0.026,0.011 0.039,0.011c0.012,0 0.018,-0.003 0.018,-0.011c0,-0.005 -0.008,-0.009 -0.023,-0.01l-0.006,-0.002c-0.025,-0.004 -0.037,-0.016 -0.035,-0.035c0,-0.025 0.015,-0.037 0.046,-0.037c0.017,0 0.033,0.004 0.047,0.012l-0.013,0.023Zm0.123,0.084l-0.09,0l0,-0.117l0.09,0l0,0.025l-0.063,0l0,0.02l0.059,0l0,0.025l-0.059,0l0,0.022l0.063,0l0,0.025Zm0.127,0l-0.028,0l-0.052,-0.072l0,0.072l-0.03,0l0,-0.117l0.028,0l0.052,0.07l0,-0.07l0.03,0l0,0.117Zm0.074,-0.117c0.018,0 0.033,0.005 0.044,0.015c0.011,0.011 0.016,0.025 0.016,0.043c0,0.019 -0.005,0.033 -0.016,0.043c-0.011,0.011 -0.026,0.016 -0.044,0.016l-0.049,0l0,-0.117l0.049,0Zm-0.022,0.025l0,0.067l0.022,0c0.022,0 0.033,-0.012 0.033,-0.034c0,-0.022 -0.011,-0.033 -0.033,-0.033l-0.022,0Zm-0.148,0.154l-0.711,0l0,-0.201l0.027,0l0,0.174l0.684,0l0,0.027Zm0.289,-0.164l-0.027,0l0,-0.353l-0.184,0l0,-0.027l0.211,0l0,0.38Z" style="fill:rgb(224,0,37);fill-rule:nonzero;"/>    </g></svg>