<?xml version="1.0" encoding="UTF-8" standalone="no"?><!DOCTYPE svg PUBLIC "-//W3C//DTD SVG 1.1//EN" "http://www.w3.org/Graphics/SVG/1.1/DTD/svg11.dtd"><svg width="100%" height="100%" viewBox="0 0 1024 512" version="1.1" xmlns="http://www.w3.org/2000/svg" xmlns:xlink="http://www.w3.org/1999/xlink" xml:space="preserve" style="fill-rule:evenodd;clip-rule:evenodd;stroke-linejoin:round;stroke-miterlimit:2;"><title>Finexkap</title><desc></desc>    <g id="Finexkap" transform="matrix(2.06889,0,0,2.06889,186.504,1.02244)">        <path d="M122.59,75.09l0,69.47c0,0.015 -0.001,0.03 -0.001,0.045c0,1.059 0.872,1.93 1.93,1.93c0.477,0 0.937,-0.176 1.291,-0.495c2.8,-2.6 16.58,-15.85 16.58,-15.85c2.974,-3.115 7.93,-3.363 11.2,-0.56c3.018,2.637 3.334,7.289 0.7,10.31l-0.25,0.27l-13.78,14.31l16.74,32.74c0.67,1.12 1.025,2.402 1.025,3.707c0,2.542 -1.342,4.902 -3.525,6.203l-0.47,0.26c-3.516,1.936 -7.967,0.99 -10.39,-2.21l-14.8,-29.52l-6.5,6.52l0,18.65c0,0.01 0,0.02 0,0.03c0,4.107 -3.373,7.489 -7.48,7.5c-3.664,-0.108 -6.598,-3.195 -6.52,-6.86l0,-114.16" style="fill:rgb(78,229,136);fill-rule:nonzero;"/>        <path d="M224.49,128.57c-3.858,0.019 -7.079,3.069 -7.31,6.92c-5.986,-4.503 -13.277,-6.939 -20.768,-6.939c-18.954,0 -34.55,15.597 -34.55,34.55c0,18.836 15.403,34.379 34.238,34.549c7.76,0 16.07,-2.55 20.3,-6.89l0,0.24c-0.003,0.093 -0.005,0.186 -0.005,0.279c0,4.257 3.503,7.76 7.76,7.76c4.257,0 7.76,-3.503 7.76,-7.76c0,-0.093 -0.002,-0.186 -0.005,-0.279l0,-55c-0.011,-4.068 -3.352,-7.414 -7.42,-7.43Zm-28.14,54.15c-10.752,0 -19.6,-8.848 -19.6,-19.6c0,-10.752 8.848,-19.6 19.6,-19.6c10.752,0 19.6,8.848 19.6,19.6c0,10.752 -8.848,19.6 -19.6,19.6Z" style="fill:rgb(78,229,136);fill-rule:nonzero;"/>        <path d="M306.19,142c-6.598,-8.294 -16.636,-13.135 -27.234,-13.135c-7.873,0 -15.517,2.671 -21.676,7.575c0.04,-0.305 0.06,-0.611 0.06,-0.918c0,-3.873 -3.187,-7.06 -7.06,-7.06c-3.873,0 -7.06,3.187 -7.06,7.06c0,0.307 0.02,0.613 0.06,0.918l0,102.08c-0.04,0.305 -0.06,0.611 -0.06,0.918c0,3.873 3.187,7.06 7.06,7.06c3.873,0 7.06,-3.187 7.06,-7.06c0,-0.307 -0.02,-0.613 -0.06,-0.918l0,-48.13c6.16,4.906 13.806,7.579 21.681,7.579c19.007,0 34.678,-15.572 34.799,-34.579c-0.063,-7.774 -2.729,-15.307 -7.57,-21.39Zm-27,41c-10.752,0 -19.6,-8.848 -19.6,-19.6c0,-10.752 8.848,-19.6 19.6,-19.6c10.752,0 19.6,8.848 19.6,19.6l0,0c0,10.752 -8.848,19.6 -19.6,19.6c-0.003,0 -0.007,0 -0.01,0l0.01,0Z" style="fill:rgb(78,229,136);fill-rule:nonzero;"/>        <path d="M108.31,77.38c0,-7.53 -7.36,-13.66 -15.09,-13.66c-5.721,0.051 -10.872,3.569 -13,8.88c-0.68,1.641 -1.021,3.404 -1,5.18l0,33.15c0.232,3.892 -2.778,7.286 -6.67,7.52l-0.16,0c-3.959,-0.208 -7.081,-3.567 -7,-7.53l0,-56.3c0,-2.471 1.203,-4.793 3.22,-6.22c1.496,-1.142 3.438,-1.533 5.26,-1.06l0.45,0.14l0.31,0c2.146,0.741 3.786,2.506 4.37,4.7c4.384,-2.459 9.327,-3.751 14.354,-3.751c15.083,0 27.833,11.631 29.216,26.651l0,35.84c0.237,4.007 -2.863,7.5 -6.87,7.74l-0.16,0c-4.085,-0.198 -7.316,-3.661 -7.23,-7.75l0,-28.39l0,-5.14Zm-56.54,-50.78c-1.466,-1.466 -3.457,-2.291 -5.53,-2.291c-4.29,0 -7.821,3.531 -7.821,7.821c0,2.073 0.825,4.064 2.291,5.53l0.39,0.39c1.472,1.454 3.461,2.27 5.53,2.27c4.317,0 7.87,-3.553 7.87,-7.87c0,-2.104 -0.843,-4.122 -2.34,-5.6l-0.39,-0.25Zm-5.6,22l-32.08,0l0,-11.21c0,-8.85 2,-15.09 6.33,-18.62c6.94,-5.6 24.67,-3.42 24.89,-3.39c3.97,0.884 7.967,-1.637 8.88,-5.6c0.896,-4 -1.616,-8.036 -5.6,-9c-0.73,-0.17 -24.22,-3.86 -36.9,6.3c-8.33,6.34 -11.69,16.64 -11.69,30.31l0,73.54c-0.081,3.963 3.041,7.322 7,7.53c3.898,-0.027 7.09,-3.242 7.09,-7.14c0,-0.017 0,-0.033 0,-0.05l0,-0.35l0,-48.12l23,0c1.265,0 2.309,1.035 2.32,2.3l0,45.84c-0.007,0.13 -0.011,0.26 -0.011,0.391c0,3.77 2.986,6.923 6.751,7.129l0.35,0c3.959,-0.208 7.081,-3.567 7,-7.53l0,-54.83c0,-4.059 -3.331,-7.404 -7.39,-7.42l0.06,-0.08Zm130.88,66.28c1.937,-0.72 3.802,-1.621 5.57,-2.69c4.613,-2.776 8.497,-6.612 11.33,-11.19c0.661,-1.124 1.01,-2.404 1.01,-3.708c0,-4.01 -3.299,-7.31 -7.31,-7.31c-2.472,0 -4.783,1.254 -6.13,3.328c-3.49,5.653 -9.677,9.105 -16.321,9.105c-10.522,0 -19.18,-8.658 -19.18,-19.18c0,-10.522 8.658,-19.18 19.18,-19.18c2.407,0 4.792,0.453 7.031,1.335l-11.81,11.76c-1.406,1.375 -2.2,3.26 -2.2,5.227c0,4.01 3.3,7.31 7.31,7.31c0.943,0 1.877,-0.182 2.75,-0.537c1.025,-0.385 1.953,-0.989 2.72,-1.77l17.48,-17.7c1.881,-2.282 2.48,-5.37 1.59,-8.19c-0.487,-1.464 -1.386,-2.756 -2.59,-3.72c-6.157,-5.378 -14.061,-8.344 -22.236,-8.344c-18.542,0 -33.8,15.258 -33.8,33.8c0,18.542 15.258,33.8 33.8,33.8c4.038,0 8.043,-0.723 11.826,-2.136l-0.02,-0.01Z" style="fill:rgb(78,229,136);fill-rule:nonzero;"/>        <path d="M265.93,103.89l-20.6,-20.58l-25.23,0.11l-18.84,18.76c-1.691,1.688 -2.642,3.981 -2.642,6.37c0,2.389 0.951,4.682 2.642,6.37c3.636,3.479 9.444,3.479 13.08,0l18.28,-19l20.44,20.66c1.722,1.726 4.062,2.698 6.5,2.698c2.438,0 4.778,-0.972 6.5,-2.698c3.472,-3.369 3.558,-8.997 0.19,-12.47l-0.32,-0.22Z" style="fill:rgb(78,229,136);fill-rule:nonzero;"/>        <path d="M230,93.34c0.714,0.59 1.596,0.94 2.52,1c0.984,-0.11 1.936,-0.416 2.8,-0.9l10.16,-10.16l66.26,-66.28c0.18,-0.167 0.353,-0.34 0.52,-0.52c1.542,-1.668 2.4,-3.858 2.4,-6.13c0,-4.953 -4.077,-9.03 -9.03,-9.03c-2.516,0 -4.922,1.052 -6.63,2.9l-66.27,66.33l-19,-19c-1.687,-1.687 -3.979,-2.636 -6.365,-2.636c-4.938,0 -9.001,4.063 -9.001,9.001c0,2.386 0.949,4.678 2.636,6.365l19.1,19.29l9.9,9.77Z" style="fill:rgb(78,229,136);fill-rule:nonzero;"/>        <path d="M245.47,83.32l66.27,-66.32c0.18,-0.167 0.353,-0.34 0.52,-0.52c1.542,-1.668 2.4,-3.858 2.4,-6.13c0,-4.953 -4.077,-9.03 -9.03,-9.03c-2.516,0 -4.922,1.052 -6.63,2.9l-66.27,66.33l-0.22,23.83c0.996,-0.052 1.961,-0.362 2.8,-0.9c0.51,-0.37 10.16,-10.16 10.16,-10.16" style="fill:url(#_Linear1);fill-rule:nonzero;"/>    </g>    <defs>        <linearGradient id="_Linear1" x1="0" y1="0" x2="1" y2="0" gradientUnits="userSpaceOnUse" gradientTransform="matrix(82.15,0,0,82.15,232.5,47.85)"><stop offset="0" style="stop-color:rgb(69,196,115);stop-opacity:1"/><stop offset="0.4" style="stop-color:rgb(78,229,136);stop-opacity:1"/><stop offset="0.42" style="stop-color:rgb(78,229,136);stop-opacity:1"/><stop offset="1" style="stop-color:rgb(78,229,136);stop-opacity:1"/></linearGradient>    </defs></svg>