<?xml version="1.0" encoding="UTF-8" standalone="no"?><!DOCTYPE svg PUBLIC "-//W3C//DTD SVG 1.1//EN" "http://www.w3.org/Graphics/SVG/1.1/DTD/svg11.dtd"><svg width="100%" height="100%" viewBox="0 0 1024 512" version="1.1" xmlns="http://www.w3.org/2000/svg" xmlns:xlink="http://www.w3.org/1999/xlink" xml:space="preserve" style="fill-rule:evenodd;clip-rule:evenodd;stroke-linejoin:round;stroke-miterlimit:2;"><title>NordStreet</title><desc>Nordstreet is a crowdfunding platform that radically changes real estate investment opportunities. From now on, RE investments are no longer reserved for venture capital firms or very rich entities: everyone has an opportunity to choose an RE project and invest an amount of their choice (from EUR 100). Only thoroughly verified and analysed real estate projects are presented on the platform. Moreover, NordStreet gives investors all information on the projects, their risks, guarantees, etc.</desc>    <g transform="matrix(0.472871,0,0,0.472871,-38.9683,156.596)">        <g transform="matrix(4.16667,0,0,4.16667,244.621,178.675)">            <path d="M0,15.138l-24.822,-33.986l-13.094,0l0,52.834l10.927,0l0,-36.674l26.783,36.674l11.002,0l0,-52.834l-10.796,0l0,33.986Z" style="fill:rgb(3,4,5);fill-rule:nonzero;"/>        </g>        <g transform="matrix(4.16667,0,0,4.16667,478.927,155.359)">            <path d="M0,26.33c-2.468,3.239 -5.801,4.813 -10.19,4.813c-4.273,0 -7.592,-1.528 -10.146,-4.673c-2.684,-3.306 -4.045,-7.722 -4.045,-13.128c0,-5.555 1.35,-10.067 4.015,-13.411c2.525,-3.17 5.84,-4.71 10.133,-4.71c4.279,0 7.609,1.428 10.177,4.364c2.664,3.047 4.014,7.473 4.014,13.154c0,5.572 -1.331,10.145 -3.958,13.591m-10.146,-40.573c-8.093,0 -14.702,2.671 -19.643,7.939c-4.848,5.17 -7.306,11.768 -7.306,19.61c0,7.513 2.34,13.969 6.955,19.188c4.741,5.36 11.393,8.079 19.776,8.079c8.518,0 15.263,-2.862 20.047,-8.505c4.637,-5.471 6.989,-11.962 6.989,-19.293c0,-7.659 -2.446,-14.122 -7.271,-19.212c-4.912,-5.18 -11.488,-7.806 -19.547,-7.806" style="fill:rgb(3,4,5);fill-rule:nonzero;"/>        </g>        <g transform="matrix(4.16667,0,0,4.16667,639.652,279.375)">            <path d="M0,-33.198l14.017,0c2.711,0 4.947,0.571 6.646,1.697c1.491,0.989 2.186,2.299 2.186,4.121c0,1.922 -0.741,3.5 -2.264,4.827c-1.538,1.339 -4.056,2.018 -7.483,2.018l-13.102,0l0,-12.663Zm32.23,14.574c1.979,-2.726 2.983,-5.636 2.983,-8.65c0,-3.953 -1.788,-7.604 -5.315,-10.849c-3.529,-3.247 -8.872,-4.893 -15.881,-4.893l-25.902,0l0,52.834l11.885,0l0,-20.924l13.043,0l10.97,20.924l13.254,0l-12.174,-23.324c3.139,-1.195 5.533,-2.911 7.137,-5.118" style="fill:rgb(3,4,5);fill-rule:nonzero;"/>        </g>        <g transform="matrix(4.16667,0,0,4.16667,861.936,280.402)">            <path d="M0,-33.692l9.616,0c5.955,0 10.155,1.574 12.841,4.811c2.844,3.429 4.227,7.187 4.227,11.487c0,5.301 -1.476,9.587 -4.386,12.74c-2.848,3.084 -6.996,4.584 -12.682,4.584l-9.616,0l0,-33.622Zm10.052,-9.571l-22.417,0l0,52.834l24.857,0c7.699,0 14.151,-2.617 19.177,-7.78c4.955,-5.089 7.467,-11.401 7.467,-18.761c0,-7.279 -2.58,-13.534 -7.668,-18.594c-5.14,-5.108 -12.346,-7.699 -21.416,-7.699" style="fill:rgb(3,4,5);fill-rule:nonzero;"/>        </g>        <g transform="matrix(4.16667,0,0,4.16667,1170.02,231.008)">            <path d="M0,-9.982l-10.025,-2.117c-6.965,-1.506 -6.965,-4.174 -6.965,-5.051c0,-1.774 0.729,-3.011 2.364,-4.007c1.961,-1.197 4.155,-1.778 6.705,-1.778c2.574,0 5.036,0.64 7.316,1.903c2.075,1.148 3.352,2.784 3.905,5.001l0.551,2.202l10.666,-2.849l-0.91,-2.359c-3.419,-8.867 -10.583,-13.362 -21.292,-13.362c-5.733,0 -10.539,1.347 -14.284,4.004c-3.995,2.834 -6.021,6.706 -6.021,11.509c0,2.875 0.746,5.478 2.217,7.734c1.441,2.212 3.241,3.883 5.35,4.967c1.923,0.99 4.391,1.834 7.35,2.514l10.742,2.383c1.823,0.402 3.443,1.139 4.815,2.191c1.089,0.835 1.575,1.814 1.575,3.174c0,2.013 -0.741,3.51 -2.33,4.709c-1.749,1.32 -4.532,1.989 -8.274,1.989c-7.171,0 -11.676,-2.753 -13.773,-8.417l-0.664,-1.794l-10.5,2.149l0.973,2.506c3.915,10.084 12.018,15.198 24.082,15.198c6.748,0 12.113,-1.564 15.944,-4.647c3.989,-3.21 6.012,-7.314 6.012,-12.196c0,-5.565 -2.692,-12.782 -15.529,-15.556" style="fill:rgb(3,4,5);fill-rule:nonzero;"/>        </g>        <g transform="matrix(4.16667,0,0,4.16667,1239.31,279.375)">            <path d="M0,-33.198l17.04,0l0,43.016l12.365,0l0,-43.016l17.083,0l0,-9.818l-46.488,0l0,9.818Z" style="fill:rgb(3,4,5);fill-rule:nonzero;"/>        </g>        <g transform="matrix(4.16667,0,0,4.16667,1502.18,279.375)">            <path d="M0,-33.198l14.019,0c2.71,0 4.946,0.571 6.644,1.697c1.492,0.989 2.187,2.299 2.187,4.121c0,1.921 -0.741,3.5 -2.264,4.827c-1.539,1.339 -4.056,2.018 -7.483,2.018l-13.103,0l0,-12.663Zm32.231,14.574c1.98,-2.727 2.984,-5.637 2.984,-8.65c0,-3.953 -1.789,-7.603 -5.316,-10.849c-3.529,-3.247 -8.872,-4.893 -15.88,-4.893l-25.904,0l0,52.834l11.885,0l0,-20.924l13.045,0l10.969,20.924l13.255,0l-12.175,-23.324c3.139,-1.195 5.533,-2.911 7.137,-5.118" style="fill:rgb(3,4,5);fill-rule:nonzero;"/>        </g>        <g transform="matrix(4.16667,0,0,4.16667,1717.65,194.847)">            <path d="M0,7.375l22.334,0l0,-9.429l-22.334,0l0,-10.857l28.141,0l0,-9.818l-39.662,0l0,52.833l40.433,0l0,-9.818l-28.912,0l0,-12.911Z" style="fill:rgb(3,4,5);fill-rule:nonzero;"/>        </g>        <g transform="matrix(4.16667,0,0,4.16667,2049.98,320.353)">            <path d="M0,-52.833l0,9.818l17.04,0l0,43.015l12.364,0l0,-43.015l17.084,0l0,-9.818l-46.488,0Z" style="fill:rgb(3,4,5);fill-rule:nonzero;"/>        </g>        <g transform="matrix(4.16667,0,0,4.16667,1911.06,194.92)">            <path d="M0,7.375l22.334,0l0,-9.429l-22.334,0l0,-10.857l28.141,0l0,-9.818l-39.662,0l0,52.833l40.433,0l0,-9.818l-28.912,0l0,-12.911Z" style="fill:rgb(3,4,5);fill-rule:nonzero;"/>        </g>    </g></svg>