<?xml version="1.0" encoding="UTF-8" standalone="no"?><!DOCTYPE svg PUBLIC "-//W3C//DTD SVG 1.1//EN" "http://www.w3.org/Graphics/SVG/1.1/DTD/svg11.dtd"><svg width="100%" height="100%" viewBox="0 0 1024 512" version="1.1" xmlns="http://www.w3.org/2000/svg" xmlns:xlink="http://www.w3.org/1999/xlink" xml:space="preserve" style="fill-rule:evenodd;clip-rule:evenodd;stroke-linejoin:round;stroke-miterlimit:2;"><title>Kreddy</title><desc>Kreddy.mk is a non-bank lender that specializes in short term installment consumer loan underwriting in North Macedonia. Launched in 2018, as a part of Digital Finance International, Kreddy has supplied over half million EUR worth of loans. Kreddy.mk provides tailored lending installment products via smart fintech technology to serve remote markets with mobile connectivity for fast and easy access to money.</desc>    <g transform="matrix(0.680128,0,0,0.682734,-32.1991,97.1402)">        <path d="M1404,472.2c-10.8,-5.3 -10.8,-5.9 -2.7,-24.2c28,-62.9 35.7,-80.4 35.7,-81.5c0,-0.7 -1.4,-4.4 -3.1,-8.2c-29,-64 -78.9,-177.8 -78.9,-179.7c0,-3.7 2.6,-5.8 11.3,-9.4c8.8,-3.7 11.6,-3.3 14.3,2c1.6,3.1 25.5,56.6 57.6,129.1c7.8,17.5 14.5,31.4 14.8,31c0.4,-0.5 15.6,-34.3 33.8,-75.3c18.2,-41 34.4,-77.5 36.1,-81.1c4.3,-9.4 6.5,-10.2 16.3,-5.8c9.3,4.2 10.8,5.5 10.8,9.4c0,2.8 -9.4,24.9 -31.5,74c-3.4,7.7 -26.8,60.4 -52,117c-25.1,56.7 -46.6,103.8 -47.7,104.8c-2.9,2.5 -6.4,2 -14.8,-2.1Z" style="fill:rgb(15,60,101);fill-rule:nonzero;"/>        <path d="M823.6,368.9c-45.8,-4.1 -80.5,-32.7 -91,-75c-6.1,-24.7 -2.6,-54.6 9,-75.8c12.3,-22.5 32.7,-39 57.4,-46.4c12.8,-3.9 20.2,-4.9 34.5,-4.9c24.5,0 41.6,6.3 56,20.5c9.1,9.1 13.1,15.5 16.9,26.7c5.3,16.1 5.5,34.5 0.4,54.8c-1.7,6.8 -2.8,9.4 -5.4,12l-3.2,3.2l-69.7,0l-69.7,0l0.7,3.8c1.9,10.2 10.6,25.2 19.7,33.8c15.2,14.5 36.3,21.2 62.3,20c16.9,-0.7 29,-2.8 42.6,-7.2c10.4,-3.3 11.2,-3.4 13.5,-1.9c3,1.9 9.4,14.4 9.4,18.3c0,3.7 -2.3,5.8 -9.6,8.3c-14.7,5.3 -29.8,8.4 -44.4,9.3c-5.2,0.4 -12,0.8 -15,1c-3,0.2 -9.5,0 -14.4,-0.5Zm58,-113.1c0.4,-0.7 1,-5.9 1.2,-11.8c0.8,-20.5 -5.9,-34.8 -20.2,-42.9c-9.2,-5.3 -15.6,-6.6 -31.1,-6.5c-12.1,0.1 -15.2,0.5 -23,2.8c-20.7,6.2 -35.5,18.6 -44.1,37.1c-3.1,6.7 -6.4,17.5 -6.4,20.9c0,1.5 5.7,1.6 61.4,1.6c46.8,0 61.7,-0.3 62.2,-1.2Z" style="fill:rgb(15,60,101);fill-rule:nonzero;"/>        <path d="M1036,369.3c-53.7,-3.2 -91.4,-38.2 -97.2,-90.4c-4.7,-42.5 16.2,-82.3 53.2,-100.9c25.5,-12.9 60.6,-15.1 87.3,-5.4c4,1.4 8,2.8 9,3.1c1.6,0.5 1.7,-1.8 1.7,-37.9l0,-38.5l2.3,-2.1c2,-1.9 3.5,-2.2 11.3,-2.2c8.2,0 9.3,0.2 11.2,2.3l2.2,2.3l0,247.6l-3.2,3.2c-7.5,7.4 -36.3,17 -54.3,18.1c-4.9,0.3 -11,0.7 -13.5,0.8c-2.5,0.2 -7,0.2 -10,0Zm26.3,-28.8c9.5,-1.4 23.9,-5.6 26.4,-7.7c1,-0.8 1.3,-14.1 1.3,-62.3c0,-57 -0.1,-61.3 -1.7,-62.7c-3.8,-3.3 -13.2,-7.8 -21.8,-10.4c-8,-2.4 -10.7,-2.7 -24,-2.8c-16.1,0 -22,1 -33.9,6.1c-26.5,11.1 -42.6,36.4 -42.6,66.8c0,39.5 25.2,68.4 64.5,73.8c7,1 22.7,0.6 31.8,-0.8Z" style="fill:rgb(15,60,101);fill-rule:nonzero;"/>        <path d="M1244.5,368.8c-25.6,-2.2 -48.9,-12.9 -65.2,-30.1c-8.8,-9.3 -12.4,-14.5 -17.9,-26.1c-7,-14.9 -8.8,-23.9 -8.9,-44.6c0,-20.7 1.8,-29.5 9,-44.8c5.6,-11.8 11.3,-19.8 20.1,-28.3c19.9,-19 43.7,-28.1 73.9,-28.1c16.8,-0.1 30.7,2.6 45.8,8.7c1.6,0.7 1.7,-1.5 1.7,-37.4l0,-38.2l2.5,-2.4c2.2,-2.3 3.2,-2.5 11.5,-2.5c8.3,0 9.3,0.2 11.5,2.5l2.5,2.4l0,122.8c0,142.2 1.4,126.6 -11.7,132.8c-11.4,5.5 -19.7,8.4 -29.3,10.5c-7.6,1.7 -11.8,2.2 -30.5,3.4c-2.7,0.2 -9.5,-0.1 -15,-0.6Zm28.1,-27.8c9.5,-1.2 17.9,-3.2 25.2,-6.1l5.2,-2.1l-0.2,-62.7l-0.3,-62.6l-9.1,-4.6c-12.7,-6.3 -21.8,-8.4 -37.9,-8.4c-15.7,0 -24.1,1.8 -37,8c-18.3,8.8 -30.8,24.1 -36.7,45.1c-1.7,6.2 -2.2,10.6 -2.2,20.4c0,9.8 0.5,14.2 2.2,20.4c10.8,38.4 45.1,58.3 90.8,52.6Z" style="fill:rgb(15,60,101);fill-rule:nonzero;"/>        <path d="M536.4,323.4c-23.1,-25.1 -42.9,-47 -44.1,-48.7c-1.5,-2.1 -2.3,-4.6 -2.3,-7.4c0,-4.1 0.9,-5.4 23.7,-32.5c13,-15.6 31,-37.1 40.1,-48c10.5,-12.5 17.3,-19.8 18.8,-20.2c3.1,-0.8 6.5,1 13.2,6.9c9.2,8.2 10.6,5.6 -28.8,52.5c-18.7,22.3 -34,40.8 -34,41.1c0,0.4 15.6,17.7 34.8,38.6c45.3,49.5 41.5,45 40.8,48.7c-0.4,2.1 -2.6,4.9 -6.8,8.8c-5.2,4.7 -6.9,5.7 -9.9,5.8c-3.6,0 -4.9,-1.4 -45.5,-45.6Z" style="fill:rgb(15,60,101);fill-rule:nonzero;"/>        <path d="M449.3,365c-1.2,-0.5 -2.6,-1.8 -3.2,-2.9c-0.8,-1.4 -1.1,-42 -1.1,-132.4l0,-130.4l2.3,-2.1c2,-1.9 3.5,-2.2 11.3,-2.2c7.7,0 9.3,0.3 11.2,2l2.2,2.1l0,262.6l-2.1,1.9c-1.7,1.5 -3.9,2 -10.3,2.1c-4.4,0.2 -9.1,-0.1 -10.3,-0.7Z" style="fill:rgb(15,60,101);fill-rule:nonzero;"/>        <path d="M629,363.2l-3,-3l0,-84.2c0,-90.8 -0.1,-88.9 5.3,-92.4c4.2,-2.8 19.3,-8.5 29.1,-11.1c12.9,-3.3 29.5,-5.4 44.8,-5.7c12.1,-0.3 12.8,-0.2 15,2c1.9,1.9 2.3,3.5 2.6,10.1c0.4,8.8 -1.3,13.8 -5.1,14.5c-1.2,0.3 -8.4,0.7 -16,1.1c-15.4,0.6 -26.1,2.3 -38.9,6.2l-8.8,2.6l0,78.7c0,92.7 1.4,83.3 -12.9,83.8c-8.9,0.4 -9.1,0.4 -12.1,-2.6Z" style="fill:rgb(15,60,101);fill-rule:nonzero;"/>        <path d="M179.4,294.7c-1.2,-0.7 -17.3,-19.2 -35.8,-41.2c-28.5,-33.9 -33.6,-40.5 -33.6,-43.2c0,-2.6 1.1,-4.1 6.7,-9.2c6.8,-6.1 10.5,-7.5 14.2,-5.2c0.7,0.5 14.7,16.8 31,36.2c16.3,19.4 30.1,35.4 30.6,35.5c0.6,0.2 26.2,-29.9 57,-66.8c30.8,-36.8 58,-69.2 60.6,-71.9c6.1,-6.6 8.2,-6.5 16.9,0.5c7.2,5.9 8.9,9.1 6.8,13c-1.7,3.2 -123.3,148.4 -126.7,151.3c-2.4,2.1 -3.6,2.3 -14.1,2.3c-7.1,-0.1 -12.3,-0.5 -13.6,-1.3Z" style="fill:rgb(15,60,101);fill-rule:nonzero;"/>        <path id="layer102" d="M170,391.6c-32,-5.8 -58.8,-20 -80.4,-42.7c-27.8,-29.2 -42.6,-71.2 -38.7,-110.1c3.5,-34.8 17.4,-64.2 41.5,-88.3c20.6,-20.6 43.2,-32.8 72.6,-39.1c12.1,-2.7 42.9,-2.7 55,0c18.2,3.9 35.3,10.8 48.7,19.5c9.6,6.2 9.5,9.9 -0.6,20.9c-5.7,6.2 -7.7,6.5 -14.7,2c-5.6,-3.6 -17.1,-9 -23.5,-11.2c-41,-13.7 -84.1,-4.4 -115.6,24.8c-17.1,15.9 -29.7,38.6 -34.4,62.1c-1.8,9.1 -1.8,33.8 0,43c4.3,21.8 15.7,43 31.5,59c22.3,22.3 49.7,33.8 81.1,33.8c19.3,0 38.1,-4.5 53.3,-12.8c48.2,-26.4 71,-79 57.1,-131.8c-2.5,-9.7 -2.1,-11.2 6.2,-21.3c5.6,-6.7 6.6,-7.5 9.3,-7.2c2.7,0.3 3.5,1.1 5.8,6c7.5,15.3 11.8,44.2 9.8,65c-6.1,63.6 -50.4,113.4 -113,127.3c-10.2,2.3 -40.7,2.9 -51,1.1Z" style="fill:rgb(50,200,160);fill-rule:nonzero;"/>    </g></svg>