<?xml version="1.0" encoding="UTF-8" standalone="no"?><!DOCTYPE svg PUBLIC "-//W3C//DTD SVG 1.1//EN" "http://www.w3.org/Graphics/SVG/1.1/DTD/svg11.dtd"><svg width="100%" height="100%" viewBox="0 0 1024 512" version="1.1" xmlns="http://www.w3.org/2000/svg" xmlns:xlink="http://www.w3.org/1999/xlink" xml:space="preserve" style="fill-rule:evenodd;clip-rule:evenodd;stroke-linejoin:round;stroke-miterlimit:2;"><title>Grupeer</title><desc>Grupeer is a human company, it translates to how we are doing business and how we choose our employees.We are working hard to bring you the best service and products possible.Grupeer scouted experienced strategic management team, financial experts, bankers, marketing gurus, IT developers and real estate professionals.</desc>    <g id="grupeer-512x256.svg" transform="matrix(2.21441,0,0,2.21441,-54.9324,-27.4441)">        <path d="M360.38,99.08c-4.864,-2.714 -10.35,-4.12 -15.92,-4.08c-5.742,-0.03 -11.395,1.424 -16.41,4.22c-4.928,2.787 -8.98,6.895 -11.7,11.86c-3.021,5.479 -4.523,11.666 -4.35,17.92c-0.145,6.325 1.306,12.585 4.22,18.2c2.585,5.023 6.677,9.115 11.7,11.7c5.297,2.806 11.227,4.204 17.22,4.06c5.157,0.12 10.289,-0.763 15.11,-2.6c4.495,-1.909 8.529,-4.76 11.83,-8.36l-7.15,-8.61c-2.548,2.579 -5.588,4.619 -8.94,6c-3.148,1.263 -6.52,1.872 -9.91,1.79c-6,0 -10.72,-1.62 -14.3,-4.87c-3.58,-3.25 -5.69,-7.8 -6.17,-14l49.23,0l0.16,-3.57c0.149,-6.289 -1.187,-12.525 -3.9,-18.2c-2.313,-4.846 -6.055,-8.871 -10.72,-11.53l0,0.07Zm-34.44,24c0.536,-3.123 1.696,-6.105 3.41,-8.77c3.373,-5.027 9.056,-8.035 15.11,-8c4.87,0 8.77,1.46 11.7,4.55c3.101,3.396 4.938,7.759 5.2,12.35l-35.42,-0.13Zm102,-24c-4.862,-2.737 -10.361,-4.144 -15.94,-4.08c-5.742,-0.03 -11.395,1.424 -16.41,4.22c-4.928,2.787 -8.98,6.895 -11.7,11.86c-3.017,5.48 -4.516,11.667 -4.34,17.92c-0.116,6.303 1.276,12.544 4.06,18.2c2.585,5.023 6.677,9.115 11.7,11.7c5.297,2.806 11.227,4.204 17.22,4.06c5.157,0.12 10.289,-0.763 15.11,-2.6c4.506,-1.906 8.551,-4.757 11.86,-8.36l-7.15,-8.61c-2.518,2.536 -5.494,4.572 -8.77,6c-3.148,1.263 -6.52,1.872 -9.91,1.79c-6,0 -10.72,-1.62 -14.3,-4.87c-3.58,-3.25 -5.69,-7.8 -6.17,-14l49.23,0l0.16,-3.57c0.149,-6.289 -1.187,-12.525 -3.9,-18.2c-2.415,-4.749 -6.12,-8.721 -10.69,-11.46l-0.06,0Zm-34.6,24c0.536,-3.123 1.696,-6.105 3.41,-8.77c3.373,-5.027 9.056,-8.035 15.11,-8c4.87,0 8.77,1.46 11.7,4.55c3.101,3.396 4.938,7.759 5.2,12.35l-35.42,-0.13Zm68.56,-13.32l-0.32,-13l-12.66,0l0,64.66l13.32,0l0,-31.15c0,-5 1,-9.26 3.09,-12.35c1.929,-2.98 4.72,-5.304 8,-6.66c3.364,-1.316 6.948,-1.978 10.56,-1.95l2.44,0.16l0,-13.47c-11.41,-0.17 -19.54,4.54 -24.41,13.8l-0.02,-0.04Zm-320.86,0l-0.32,-13l-12.66,0l0,64.66l13.32,0l0,-31.15c0,-5 1,-9.26 3.09,-12.35c1.929,-2.98 4.72,-5.304 8,-6.66c3.355,-1.309 6.929,-1.967 10.53,-1.94l2.44,0.16l0,-13.48c-11.39,-0.17 -19.51,4.54 -24.38,13.8l-0.02,-0.04Zm-59.93,22.95l18.52,0c-3.221,5.64 -7.8,10.388 -13.32,13.81c-4.457,2.691 -9.574,4.097 -14.78,4.06c-6.73,0.022 -13.287,-2.144 -18.68,-6.17c-8.46,-6.17 -13.85,-16.57 -13.85,-28.41c0,-9.59 3.09,-18.2 8.77,-24.53c2.771,-3.155 6.212,-5.652 10.07,-7.31c4.327,-1.994 9.046,-2.991 13.81,-2.92l4.06,0c10.07,0.49 21.61,6.5 28.11,19.17l10.56,-7.47c-7.698,-14.261 -22.434,-23.393 -38.63,-23.94l-4.75,0c-5.906,0.016 -11.753,1.174 -17.22,3.41c-0.32,0.16 -0.81,0.32 -1.14,0.49c-0.16,0 -0.32,0.16 -0.49,0.16c-15.72,7.34 -26.44,23.58 -26.44,42.94c0,16.41 7.8,30.54 19.66,38.83c0.291,0.126 0.563,0.291 0.81,0.49l0.16,0.16c7.294,4.763 15.818,7.304 24.53,7.31c6.66,0 13.16,-1.14 18.68,-4.06l1,-0.49l0.16,0c0.16,-0.16 0.49,-0.16 0.65,-0.32c6.79,-3.842 12.408,-9.46 16.25,-16.25l0,19.5l12.18,0l0,-40.64l-38.68,0l0,12.18Zm210.71,-33.14c-4.826,-3.131 -10.49,-4.725 -16.24,-4.57c-4.822,-0.088 -9.583,1.088 -13.81,3.41c-3.95,2.268 -7.252,5.512 -9.59,9.42l-0.32,-11l-12.67,0l0,90.17l13.32,0l0,-35.9c2.299,3.713 5.552,6.742 9.42,8.77c4.157,2.159 8.797,3.223 13.48,3.09c5.642,0.117 11.191,-1.469 15.92,-4.55c4.669,-2.991 8.432,-7.204 10.88,-12.18c2.641,-5.351 3.978,-11.253 3.9,-17.22c0.051,-5.947 -1.227,-11.83 -3.74,-17.22c-2.259,-5.009 -5.925,-9.255 -10.55,-12.22Zm-1.95,41.1c-1.68,3.217 -4.208,5.915 -7.31,7.8c-6.32,3.62 -14.094,3.681 -20.47,0.16c-3.079,-1.746 -5.529,-4.421 -7,-7.64c-1.77,-3.643 -2.66,-7.651 -2.6,-11.7c-0.07,-4.069 0.879,-8.091 2.76,-11.7c1.646,-3.294 4.251,-6.013 7.47,-7.8c3.176,-1.769 6.765,-2.666 10.4,-2.6c3.533,-0.087 7.021,0.814 10.07,2.6c2.994,1.868 5.368,4.583 6.82,7.8c1.681,3.667 2.515,7.667 2.44,11.7c0.103,3.948 -0.791,7.859 -2.6,11.37l0.02,0.01Zm-72.78,-9.75c0.12,3.862 -0.657,7.699 -2.27,11.21c-1.234,2.765 -3.343,5.049 -6,6.5c-2.573,1.456 -5.494,2.185 -8.45,2.11c-4.71,0 -8.29,-1.46 -10.88,-4.39c-2.59,-2.93 -3.9,-7.31 -3.9,-13.16l0,-36.38l-13.34,0l0,38.19c0,6.17 1,11.21 2.92,15.43c1.703,3.881 4.533,7.163 8.12,9.42c3.703,2.119 7.915,3.187 12.18,3.09c4.357,0.091 8.668,-0.92 12.53,-2.94c3.729,-2.045 6.823,-5.081 8.94,-8.77l0.49,10.07l12.67,0l0,-64.49l-13,0l0,34.12l-0.01,-0.01Z" style="fill:url(#_Linear1);fill-rule:nonzero;"/>    </g>    <defs>        <linearGradient id="_Linear1" x1="0" y1="0" x2="1" y2="0" gradientUnits="userSpaceOnUse" gradientTransform="matrix(302.18,157.59,-157.59,302.18,49.46,12.75)"><stop offset="0" style="stop-color:rgb(34,206,243);stop-opacity:1"/><stop offset="0.27" style="stop-color:rgb(62,146,244);stop-opacity:1"/><stop offset="0.71" style="stop-color:rgb(54,88,244);stop-opacity:1"/><stop offset="1" style="stop-color:rgb(74,23,249);stop-opacity:1"/></linearGradient>    </defs></svg>