<?xml version="1.0" encoding="UTF-8" standalone="no"?><!DOCTYPE svg PUBLIC "-//W3C//DTD SVG 1.1//EN" "http://www.w3.org/Graphics/SVG/1.1/DTD/svg11.dtd"><svg width="100%" height="100%" viewBox="0 0 1024 512" version="1.1" xmlns="http://www.w3.org/2000/svg" xmlns:xlink="http://www.w3.org/1999/xlink" xml:space="preserve" style="fill-rule:evenodd;clip-rule:evenodd;stroke-linejoin:round;stroke-miterlimit:2;"><title>TrustBuddy</title><desc>TrustBuddy is a unique peer-to-peer company which mediates 30-day loans of up to 10 000 SEK between private parties. As a lender, you can expect a better return than at the bank.TrustBuddy is the world's largest short-term peer-to-peer company and are active in 6 countries throughout Europe.</desc>    <g transform="matrix(1.07725,0,0,1.07725,-28.9074,106.691)">        <g transform="matrix(188.295,0,0,197.606,17.4515,188.471)">            <path d="M0.633,-0.567l-0.206,0l-0.076,0.577l-0.175,0l0.076,-0.577l-0.192,0l0.021,-0.154l0.573,0l-0.021,0.154Z" style="fill:rgb(107,181,34);fill-rule:nonzero;"/>        </g>        <g transform="matrix(188.295,0,0,197.606,125.39,188.471)">            <path d="M0.296,-0.366c-0.106,-0.001 -0.12,-0.008 -0.149,0.03l-0.045,0.346l-0.17,0l0.071,-0.523l0.108,-0.001l0.014,0.024c0.048,-0.035 0.179,-0.027 0.197,-0.022l-0.026,0.146Z" style="fill:rgb(107,181,34);fill-rule:nonzero;"/>        </g>        <g transform="matrix(188.295,0,0,197.606,179.967,188.471)">            <path d="M0.495,0.015c0,0 -0.254,-0.004 -0.312,-0.005c-0.051,-0.001 -0.089,-0.019 -0.115,-0.055c-0.026,-0.036 -0.036,-0.083 -0.03,-0.142l0.035,-0.326l0.17,0l-0.04,0.328c-0.002,0.011 0.013,0.055 0.045,0.056c0.043,0.001 0.036,0.006 0.1,-0.003l0.052,-0.381l0.17,0l-0.075,0.528Z" style="fill:rgb(107,181,34);fill-rule:nonzero;"/>        </g>        <g transform="matrix(188.295,0,0,197.606,544.306,188.471)">            <path d="M0.495,0.015c0,0 -0.254,-0.004 -0.312,-0.005c-0.051,-0.001 -0.089,-0.019 -0.115,-0.055c-0.026,-0.036 -0.036,-0.083 -0.03,-0.142l0.035,-0.326l0.17,0l-0.04,0.328c-0.002,0.011 0.013,0.055 0.045,0.056c0.043,0.001 0.036,0.006 0.1,-0.003l0.052,-0.381l0.17,0l-0.075,0.528Z" style="fill:rgb(107,181,34);fill-rule:nonzero;"/>        </g>        <g transform="matrix(188.295,0,0,197.606,278.125,193.471)">            <path d="M0.279,-0.165c0.005,-0.04 -0.072,-0.04 -0.072,-0.04c-0.106,-0.029 -0.154,-0.092 -0.151,-0.165c0.001,-0.05 0.023,-0.091 0.066,-0.122c0.042,-0.031 0.092,-0.05 0.152,-0.05c0.059,0.001 0.169,0.017 0.205,0.058l-0.071,0.121c-0.139,-0.056 -0.162,-0.043 -0.177,-0.031c-0.041,0.033 0.099,0.054 0.146,0.086c0.023,0.015 0.051,0.027 0.063,0.058c0.009,0.022 0.011,0.05 0.008,0.079c-0.013,0.113 -0.128,0.15 -0.18,0.161c-0.098,0.02 -0.192,-0.018 -0.266,-0.058l0.08,-0.128c0.122,0.059 0.195,0.049 0.197,0.031Z" style="fill:rgb(107,181,34);fill-rule:nonzero;"/>        </g>        <g transform="matrix(188.295,0,0,197.606,362.916,188.471)">            <path d="M0.275,-0.613l-0.012,0.1l0.099,0l-0.018,0.149l-0.104,0c0,0 -0.027,0.229 -0.018,0.234c0.037,0 0.066,0.002 0.089,0l-0.009,0.14c-0.042,0.001 -0.089,-0.001 -0.117,-0.001c-0.045,-0.001 -0.094,-0.005 -0.116,-0.033c-0.022,-0.027 -0.025,-0.057 -0.021,-0.104l0.027,-0.236l-0.048,0l0.018,-0.149l0.054,0l0.022,-0.1l0.154,0Z" style="fill:rgb(107,181,34);fill-rule:nonzero;"/>        </g>        <g transform="matrix(188.295,0,0,197.606,438.528,189.471)">            <path d="M-0.04,0.01l0.1,-0.737l0.34,0.001c0.082,0.005 0.112,0.031 0.153,0.065c0.042,0.033 0.048,0.081 0.044,0.141c-0.004,0.072 -0.046,0.124 -0.124,0.158c0.028,0.009 0.05,0.028 0.066,0.055c0.015,0.026 0.022,0.058 0.02,0.095c-0.005,0.067 -0.031,0.119 -0.079,0.156c-0.048,0.037 -0.119,0.066 -0.202,0.066l-0.318,0Zm0.214,-0.297l-0.015,0.142l0.128,0c0.035,0 0.088,-0.02 0.094,-0.067c0.005,-0.036 -0.015,-0.071 -0.039,-0.075l-0.168,0Zm0.02,-0.137l0.162,0.001c0.017,0.004 0.067,-0.048 0.071,-0.077c0.007,-0.042 -0.026,-0.066 -0.058,-0.07l-0.153,-0.002l-0.022,0.148Z" style="fill:rgb(107,181,34);fill-rule:nonzero;"/>        </g>        <g transform="matrix(188.295,0,0,197.606,642.787,189.434)">            <path d="M0.265,-0.521c0.049,-0.003 0.113,-0.008 0.148,0.024l0.032,-0.228l0.165,0l-0.1,0.735l-0.195,0c0,0 -0.073,0 -0.125,0c-0.016,0 -0.057,-0.013 -0.081,-0.03c-0.025,-0.017 -0.049,-0.037 -0.063,-0.069c-0.013,-0.031 -0.021,-0.067 -0.022,-0.106c-0.001,-0.02 -0.001,-0.04 0.001,-0.059l0.003,-0.022c0.008,-0.054 0.027,-0.09 0.05,-0.131c0.039,-0.069 0.143,-0.112 0.187,-0.114Zm-0.074,0.247c-0.003,0.025 -0.016,0.124 0.057,0.138c0.038,0.007 0.094,0.005 0.118,-0.025l0.025,-0.197c-0.031,-0.022 -0.066,-0.024 -0.1,-0.019c-0.033,0.005 -0.092,0.043 -0.1,0.103Z" style="fill:rgb(107,181,34);fill-rule:nonzero;"/>        </g>        <g transform="matrix(188.295,0,0,197.606,743.787,189.434)">            <path d="M0.265,-0.521c0.049,-0.003 0.113,-0.008 0.148,0.024l0.032,-0.228l0.165,0l-0.1,0.735l-0.195,0c0,0 -0.073,0 -0.125,0c-0.016,0 -0.057,-0.013 -0.081,-0.03c-0.025,-0.017 -0.049,-0.037 -0.063,-0.069c-0.013,-0.031 -0.021,-0.067 -0.022,-0.106c-0.001,-0.02 -0.001,-0.04 0.001,-0.059l0.003,-0.022c0.008,-0.054 0.027,-0.09 0.05,-0.131c0.039,-0.069 0.143,-0.112 0.187,-0.114Zm-0.074,0.247c-0.003,0.025 -0.016,0.124 0.057,0.138c0.038,0.007 0.094,0.005 0.118,-0.025l0.025,-0.197c-0.031,-0.022 -0.066,-0.024 -0.1,-0.019c-0.033,0.005 -0.092,0.043 -0.1,0.103Z" style="fill:rgb(107,181,34);fill-rule:nonzero;"/>        </g>        <g transform="matrix(188.295,0,0,197.606,871.789,188.471)">            <path d="M0.204,-0.225l0.162,-0.288l0.185,0l-0.424,0.73l-0.179,0l0.139,-0.25l-0.148,-0.48l0.19,0l0.075,0.288Z" style="fill:rgb(107,181,34);fill-rule:nonzero;"/>        </g>    </g></svg>