<?xml version="1.0" encoding="UTF-8" standalone="no"?><!DOCTYPE svg PUBLIC "-//W3C//DTD SVG 1.1//EN" "http://www.w3.org/Graphics/SVG/1.1/DTD/svg11.dtd"><svg width="100%" height="100%" viewBox="0 0 1024 512" version="1.1" xmlns="http://www.w3.org/2000/svg" xmlns:xlink="http://www.w3.org/1999/xlink" xml:space="preserve" style="fill-rule:evenodd;clip-rule:evenodd;stroke-linejoin:round;stroke-miterlimit:2;"><title>Crowdfunding Bizkaia</title><desc>Crowdfunding Bizkaia is a crowdfunding platform that puts Promoters who need financing for the development of an innovative project in contact with Investors interested in participating in it.A link between Promoters who have innovative projects born and located in Bizkaia, with Investors from all over the world.</desc>    <g transform="matrix(1.32484,0,0,1.32484,-417.531,-83.1588)">        <g transform="matrix(5.55556,0,0,5.55556,478.61,370.589)">            <path d="M0,8.553c-0.327,0.263 -0.647,0.47 -0.961,0.621c-0.313,0.152 -0.631,0.255 -0.955,0.31c-0.325,0.055 -0.669,0.083 -1.033,0.083c-0.594,0 -1.108,-0.102 -1.545,-0.305c-0.438,-0.204 -0.801,-0.488 -1.091,-0.853c-0.288,-0.365 -0.506,-0.797 -0.65,-1.302c-0.145,-0.502 -0.216,-1.05 -0.216,-1.641c0,-0.545 0.056,-1.084 0.169,-1.618c0.114,-0.534 0.277,-1.042 0.491,-1.524c0.214,-0.482 0.471,-0.926 0.775,-1.332c0.303,-0.407 0.644,-0.759 1.022,-1.055c0.38,-0.295 0.791,-0.529 1.236,-0.697c0.444,-0.169 0.918,-0.254 1.419,-0.254c0.339,0 0.643,0.033 0.915,0.099c0.273,0.066 0.523,0.159 0.749,0.279c0.228,0.121 0.435,0.267 0.621,0.439c0.185,0.172 0.358,0.365 0.517,0.578l-0.291,0.342c-0.062,0.075 -0.133,0.113 -0.216,0.113c-0.069,0 -0.155,-0.054 -0.253,-0.165c-0.1,-0.11 -0.235,-0.229 -0.404,-0.357c-0.169,-0.128 -0.387,-0.246 -0.655,-0.356c-0.269,-0.11 -0.606,-0.165 -1.012,-0.165c-0.58,0 -1.119,0.155 -1.618,0.464c-0.499,0.31 -0.933,0.727 -1.302,1.251c-0.369,0.524 -0.657,1.127 -0.867,1.814c-0.21,0.684 -0.316,1.399 -0.316,2.144c0,0.474 0.053,0.915 0.16,1.322c0.106,0.405 0.273,0.757 0.496,1.053c0.224,0.296 0.505,0.527 0.844,0.692c0.336,0.166 0.735,0.249 1.197,0.249c0.365,0 0.692,-0.041 0.981,-0.119c0.29,-0.079 0.546,-0.177 0.77,-0.295c0.223,-0.118 0.42,-0.246 0.589,-0.387c0.169,-0.142 0.319,-0.27 0.45,-0.389c0.129,-0.116 0.242,-0.214 0.336,-0.293c0.093,-0.08 0.175,-0.119 0.253,-0.119c0.075,0 0.147,0.035 0.217,0.103l0.217,0.269c-0.365,0.406 -0.712,0.74 -1.039,1.001" style="fill:rgb(215,25,32);fill-rule:nonzero;"/>        </g>        <g transform="matrix(5.55556,0,0,5.55556,505.042,403.322)">            <path d="M0,-3.351c0.282,-0.675 0.59,-1.261 0.925,-1.756c0.334,-0.497 0.689,-0.889 1.064,-1.178c0.375,-0.29 0.765,-0.468 1.173,-0.537c0.406,-0.069 0.819,-0.022 1.239,0.145l-0.175,0.918c-0.469,-0.178 -0.914,-0.221 -1.334,-0.129c-0.419,0.093 -0.814,0.314 -1.183,0.663c-0.368,0.346 -0.709,0.817 -1.022,1.409c-0.314,0.592 -0.595,1.294 -0.842,2.108l-0.63,5.248l-0.961,0l1.239,-10.31l0.445,0c0.24,0 0.36,0.124 0.36,0.371l-0.298,3.048Z" style="fill:rgb(215,25,32);fill-rule:nonzero;"/>        </g>        <g transform="matrix(5.55556,0,0,5.55556,550.733,369.331)">            <path d="M0,9.018c0.598,0 1.145,-0.157 1.638,-0.47c0.492,-0.313 0.914,-0.731 1.266,-1.25c0.35,-0.519 0.62,-1.117 0.81,-1.787c0.19,-0.671 0.284,-1.362 0.284,-2.073c0,-1.1 -0.244,-1.949 -0.733,-2.541c-0.489,-0.592 -1.168,-0.889 -2.035,-0.889c-0.6,0 -1.147,0.156 -1.639,0.467c-0.492,0.308 -0.911,0.721 -1.26,1.233c-0.347,0.514 -0.618,1.104 -0.811,1.773c-0.193,0.668 -0.289,1.364 -0.289,2.087c0,1.094 0.243,1.944 0.729,2.547c0.485,0.601 1.165,0.903 2.04,0.903m-0.082,0.776c-0.551,0 -1.053,-0.098 -1.504,-0.292c-0.451,-0.19 -0.838,-0.471 -1.157,-0.836c-0.321,-0.365 -0.568,-0.807 -0.743,-1.327c-0.176,-0.52 -0.265,-1.111 -0.265,-1.771c0,-0.834 0.124,-1.633 0.373,-2.398c0.248,-0.765 0.597,-1.439 1.047,-2.026c0.452,-0.584 0.988,-1.052 1.608,-1.399c0.62,-0.347 1.302,-0.521 2.045,-0.521c0.551,0 1.052,0.097 1.503,0.289c0.452,0.193 0.838,0.472 1.158,0.837c0.32,0.365 0.567,0.808 0.742,1.328c0.177,0.52 0.265,1.103 0.265,1.751c0,0.833 -0.126,1.631 -0.378,2.396c-0.25,0.765 -0.6,1.442 -1.047,2.031c-0.448,0.589 -0.982,1.058 -1.602,1.41c-0.62,0.353 -1.302,0.528 -2.045,0.528" style="fill:rgb(215,25,32);fill-rule:nonzero;"/>        </g>        <g transform="matrix(5.55556,0,0,5.55556,664.496,422.698)">            <path d="M0,-10.227l-4.412,10.279l-0.703,0c-0.108,0 -0.174,-0.072 -0.196,-0.216l-1.57,-8.348c-0.034,-0.166 -0.055,-0.327 -0.061,-0.486c-0.028,0.083 -0.057,0.164 -0.084,0.242c-0.027,0.081 -0.058,0.161 -0.092,0.244l-3.648,8.348c-0.055,0.144 -0.138,0.216 -0.248,0.216l-0.671,0l-1.901,-10.279l0.692,0c0.18,0 0.286,0.082 0.32,0.248l1.374,8.11c0.035,0.303 0.056,0.595 0.062,0.879c0.056,-0.146 0.111,-0.29 0.166,-0.435c0.054,-0.144 0.114,-0.293 0.176,-0.444l3.532,-8.183c0.048,-0.151 0.148,-0.227 0.3,-0.227l0.382,0c0.152,0 0.235,0.076 0.249,0.227l1.518,8.183c0.027,0.151 0.05,0.3 0.068,0.444c0.016,0.145 0.033,0.289 0.046,0.435c0.049,-0.139 0.096,-0.281 0.146,-0.424c0.047,-0.145 0.098,-0.297 0.154,-0.455l3.368,-8.11c0.035,-0.076 0.082,-0.137 0.144,-0.182c0.062,-0.044 0.131,-0.066 0.207,-0.066l0.682,0Z" style="fill:rgb(215,25,32);fill-rule:nonzero;"/>        </g>        <g transform="matrix(5.55556,0,0,5.55556,710.13,385.736)">            <path d="M0,-1.486c-0.152,-0.27 -0.322,-0.499 -0.511,-0.689c-0.189,-0.188 -0.393,-0.34 -0.606,-0.454c-0.214,-0.114 -0.436,-0.196 -0.671,-0.247c-0.234,-0.053 -0.469,-0.079 -0.702,-0.079c-0.434,0 -0.84,0.088 -1.215,0.265c-0.375,0.175 -0.716,0.415 -1.023,0.718c-0.306,0.302 -0.578,0.654 -0.816,1.053c-0.237,0.401 -0.437,0.823 -0.599,1.272c-0.163,0.447 -0.286,0.908 -0.372,1.383c-0.086,0.475 -0.129,0.934 -0.129,1.373c0,0.925 0.176,1.644 0.527,2.161c0.351,0.517 0.863,0.775 1.539,0.775c0.393,0 0.786,-0.11 1.179,-0.331c0.391,-0.22 0.772,-0.53 1.141,-0.929c0.368,-0.401 0.713,-0.881 1.033,-1.441c0.32,-0.563 0.605,-1.184 0.853,-1.866l0.372,-2.964Zm1.797,-6.841l-1.838,15.032l-0.478,0c-0.136,0 -0.229,-0.036 -0.276,-0.113c-0.05,-0.076 -0.074,-0.162 -0.074,-0.258l0.342,-3.234c-0.268,0.558 -0.57,1.067 -0.904,1.524c-0.335,0.458 -0.688,0.852 -1.059,1.183c-0.373,0.331 -0.762,0.586 -1.168,0.766c-0.407,0.178 -0.819,0.268 -1.239,0.268c-0.449,0 -0.841,-0.087 -1.178,-0.259c-0.338,-0.172 -0.621,-0.417 -0.848,-0.734c-0.226,-0.317 -0.4,-0.699 -0.516,-1.146c-0.118,-0.448 -0.175,-0.952 -0.175,-1.509c0,-0.523 0.054,-1.059 0.163,-1.606c0.112,-0.548 0.267,-1.079 0.471,-1.592c0.204,-0.512 0.452,-0.995 0.744,-1.446c0.293,-0.451 0.625,-0.845 0.997,-1.182c0.372,-0.338 0.779,-0.605 1.22,-0.802c0.44,-0.196 0.912,-0.294 1.415,-0.294c0.558,0 1.072,0.122 1.544,0.367c0.473,0.245 0.856,0.607 1.152,1.09l0.754,-6.055l0.951,0Z" style="fill:rgb(215,25,32);fill-rule:nonzero;"/>        </g>        <g transform="matrix(5.55556,0,0,5.55556,741.929,406.411)">            <path d="M0,-6.253l-1.096,9.021l-0.434,2.375c-0.083,0.282 -0.251,0.425 -0.507,0.425l-0.349,0l1.434,-11.81l-1.29,-0.083c-0.083,-0.013 -0.144,-0.041 -0.187,-0.083c-0.04,-0.04 -0.059,-0.102 -0.051,-0.184l0.041,-0.384l1.57,0l0.165,-1.302c0.076,-0.584 0.213,-1.1 0.415,-1.543c0.199,-0.446 0.449,-0.814 0.748,-1.112c0.3,-0.296 0.639,-0.518 1.018,-0.665c0.378,-0.15 0.785,-0.223 1.218,-0.223c0.193,0 0.385,0.019 0.574,0.057c0.19,0.038 0.364,0.091 0.522,0.16l-0.104,0.495c-0.014,0.055 -0.044,0.088 -0.092,0.099c-0.049,0.01 -0.112,0.01 -0.191,0c-0.078,-0.011 -0.174,-0.024 -0.284,-0.042c-0.111,-0.016 -0.239,-0.026 -0.383,-0.026c-0.315,0 -0.613,0.052 -0.889,0.156c-0.275,0.103 -0.523,0.266 -0.744,0.491c-0.221,0.224 -0.406,0.515 -0.557,0.873c-0.152,0.357 -0.259,0.795 -0.321,1.311l-0.164,1.271l2.902,0l-0.102,0.723l-2.862,0Z" style="fill:rgb(215,25,32);fill-rule:nonzero;"/>        </g>        <g transform="matrix(5.55556,0,0,5.55556,811.376,423.743)">            <path d="M0,-10.415l-1.239,10.279l-0.454,0c-0.132,0 -0.227,-0.033 -0.286,-0.102c-0.058,-0.069 -0.087,-0.163 -0.087,-0.28l0.309,-2.923c-0.282,0.544 -0.593,1.028 -0.93,1.457c-0.337,0.426 -0.693,0.786 -1.07,1.079c-0.374,0.293 -0.764,0.517 -1.166,0.671c-0.403,0.156 -0.804,0.234 -1.203,0.234c-0.882,0 -1.514,-0.34 -1.892,-1.019c-0.378,-0.678 -0.491,-1.631 -0.34,-2.857l0.775,-6.539l0.97,0l-0.774,6.539c-0.118,0.986 -0.052,1.741 0.197,2.268c0.248,0.528 0.711,0.791 1.394,0.791c0.378,0 0.763,-0.097 1.153,-0.291c0.389,-0.192 0.766,-0.468 1.13,-0.831c0.365,-0.361 0.71,-0.795 1.034,-1.301c0.323,-0.506 0.609,-1.076 0.858,-1.709l0.649,-5.466l0.972,0Z" style="fill:rgb(215,25,32);fill-rule:nonzero;"/>        </g>        <g transform="matrix(5.55556,0,0,5.55556,831.922,403.756)">            <path d="M0,-3.511c0.276,-0.545 0.584,-1.032 0.925,-1.462c0.343,-0.431 0.7,-0.795 1.08,-1.091c0.378,-0.295 0.767,-0.522 1.167,-0.677c0.399,-0.154 0.802,-0.232 1.21,-0.232c0.44,0 0.817,0.086 1.13,0.258c0.313,0.174 0.566,0.425 0.756,0.754c0.188,0.331 0.313,0.735 0.371,1.215c0.057,0.479 0.051,1.025 -0.027,1.637l-0.774,6.571l-0.971,0l0.774,-6.571c0.118,-0.978 0.053,-1.73 -0.196,-2.252c-0.247,-0.523 -0.713,-0.785 -1.394,-0.785c-0.387,0 -0.774,0.097 -1.163,0.294c-0.389,0.196 -0.768,0.475 -1.137,0.837c-0.368,0.361 -0.713,0.8 -1.037,1.313c-0.324,0.513 -0.612,1.09 -0.857,1.729l-0.631,5.435l-0.971,0l1.228,-10.31l0.444,0c0.242,0 0.362,0.124 0.362,0.371l-0.289,2.966Z" style="fill:rgb(215,25,32);fill-rule:nonzero;"/>        </g>        <g transform="matrix(5.55556,0,0,5.55556,923.188,385.736)">            <path d="M0,-1.486c-0.152,-0.27 -0.322,-0.499 -0.511,-0.689c-0.19,-0.188 -0.393,-0.34 -0.606,-0.454c-0.214,-0.114 -0.438,-0.196 -0.671,-0.247c-0.235,-0.053 -0.468,-0.079 -0.702,-0.079c-0.434,0 -0.84,0.088 -1.214,0.265c-0.375,0.175 -0.716,0.415 -1.023,0.718c-0.306,0.302 -0.578,0.654 -0.816,1.053c-0.238,0.401 -0.438,0.823 -0.6,1.272c-0.162,0.447 -0.286,0.908 -0.371,1.383c-0.087,0.475 -0.13,0.934 -0.13,1.373c0,0.925 0.176,1.644 0.528,2.161c0.351,0.517 0.863,0.775 1.538,0.775c0.393,0 0.785,-0.11 1.178,-0.331c0.393,-0.22 0.773,-0.53 1.142,-0.929c0.368,-0.401 0.713,-0.881 1.033,-1.441c0.321,-0.563 0.605,-1.184 0.853,-1.866l0.372,-2.964Zm1.797,-6.841l-1.84,15.032l-0.475,0c-0.136,0 -0.23,-0.036 -0.277,-0.113c-0.049,-0.076 -0.073,-0.162 -0.073,-0.258l0.34,-3.234c-0.267,0.558 -0.569,1.067 -0.903,1.524c-0.335,0.458 -0.687,0.852 -1.059,1.183c-0.373,0.331 -0.762,0.586 -1.167,0.766c-0.407,0.178 -0.82,0.268 -1.241,0.268c-0.448,0 -0.84,-0.087 -1.177,-0.259c-0.338,-0.172 -0.62,-0.417 -0.848,-0.734c-0.228,-0.317 -0.399,-0.699 -0.517,-1.146c-0.117,-0.448 -0.176,-0.952 -0.176,-1.509c0,-0.523 0.057,-1.059 0.167,-1.606c0.111,-0.548 0.265,-1.079 0.469,-1.592c0.203,-0.512 0.451,-0.995 0.745,-1.446c0.291,-0.451 0.623,-0.845 0.997,-1.182c0.372,-0.338 0.778,-0.605 1.219,-0.802c0.44,-0.196 0.912,-0.294 1.415,-0.294c0.557,0 1.072,0.122 1.544,0.367c0.472,0.245 0.857,0.607 1.151,1.09l0.755,-6.055l0.951,0Z" style="fill:rgb(215,25,32);fill-rule:nonzero;"/>        </g>        <g transform="matrix(5.55556,0,0,5.55556,957.741,417.888)">            <path d="M0,-12.906c0,0.124 -0.026,0.24 -0.078,0.347c-0.052,0.106 -0.119,0.201 -0.201,0.284c-0.084,0.084 -0.177,0.148 -0.285,0.197c-0.106,0.047 -0.215,0.07 -0.325,0.07c-0.117,0 -0.228,-0.023 -0.332,-0.07c-0.102,-0.049 -0.193,-0.113 -0.266,-0.197c-0.078,-0.083 -0.139,-0.178 -0.187,-0.284c-0.05,-0.107 -0.074,-0.223 -0.074,-0.347c0,-0.124 0.024,-0.241 0.074,-0.35c0.048,-0.11 0.111,-0.209 0.191,-0.295c0.078,-0.086 0.17,-0.153 0.273,-0.202c0.103,-0.048 0.213,-0.071 0.332,-0.071c0.109,0 0.217,0.023 0.324,0.071c0.108,0.049 0.201,0.114 0.284,0.197c0.083,0.083 0.148,0.181 0.196,0.294c0.048,0.113 0.074,0.232 0.074,0.356m-0.755,3.545l-1.251,10.279l-0.96,0l1.25,-10.279l0.961,0Z" style="fill:rgb(215,25,32);fill-rule:nonzero;"/>        </g>        <g transform="matrix(5.55556,0,0,5.55556,974.669,403.756)">            <path d="M0,-3.511c0.275,-0.545 0.583,-1.032 0.924,-1.462c0.341,-0.431 0.701,-0.795 1.081,-1.091c0.378,-0.295 0.766,-0.522 1.167,-0.677c0.399,-0.154 0.802,-0.232 1.209,-0.232c0.439,0 0.818,0.086 1.131,0.258c0.313,0.174 0.565,0.425 0.754,0.754c0.189,0.331 0.314,0.735 0.373,1.215c0.056,0.479 0.048,1.025 -0.027,1.637l-0.775,6.571l-0.971,0l0.775,-6.571c0.118,-0.978 0.051,-1.73 -0.197,-2.252c-0.247,-0.523 -0.712,-0.785 -1.394,-0.785c-0.386,0 -0.775,0.097 -1.163,0.294c-0.39,0.196 -0.768,0.475 -1.135,0.837c-0.369,0.361 -0.716,0.8 -1.038,1.313c-0.325,0.513 -0.61,1.09 -0.86,1.729l-0.629,5.435l-0.973,0l1.23,-10.31l0.446,0c0.24,0 0.361,0.124 0.361,0.371l-0.289,2.966Z" style="fill:rgb(215,25,32);fill-rule:nonzero;"/>        </g>        <g transform="matrix(5.55556,0,0,5.55556,1043.49,410.647)">            <path d="M0,-2.169c0.44,0 0.835,-0.092 1.184,-0.279c0.345,-0.187 0.639,-0.429 0.877,-0.728c0.237,-0.301 0.419,-0.642 0.547,-1.024c0.127,-0.381 0.191,-0.766 0.191,-1.152c0,-0.716 -0.191,-1.253 -0.574,-1.616c-0.382,-0.362 -0.891,-0.542 -1.523,-0.542c-0.448,0 -0.844,0.088 -1.189,0.264c-0.344,0.175 -0.633,0.407 -0.868,0.696c-0.233,0.291 -0.412,0.622 -0.538,0.998c-0.122,0.374 -0.184,0.758 -0.184,1.152c0,0.729 0.184,1.284 0.558,1.664c0.372,0.377 0.878,0.567 1.519,0.567m2.014,3.43c-0.991,-0.145 -1.857,-0.183 -2.593,-0.113c-0.737,0.068 -1.349,0.213 -1.833,0.433c-0.488,0.22 -0.85,0.5 -1.092,0.838c-0.241,0.336 -0.365,0.695 -0.372,1.074c0,0.296 0.068,0.559 0.203,0.79c0.133,0.23 0.324,0.424 0.572,0.578c0.248,0.156 0.548,0.276 0.899,0.357c0.352,0.082 0.741,0.124 1.169,0.124c0.541,0 1.036,-0.073 1.477,-0.217c0.439,-0.144 0.817,-0.338 1.131,-0.579c0.313,-0.242 0.555,-0.516 0.727,-0.825c0.174,-0.31 0.26,-0.632 0.26,-0.963c0.005,-0.336 -0.046,-0.626 -0.156,-0.867c-0.11,-0.242 -0.245,-0.461 -0.403,-0.662l0.011,0.032Zm3.275,-8.957l-0.031,0.33c-0.013,0.069 -0.041,0.13 -0.084,0.182c-0.04,0.05 -0.109,0.084 -0.205,0.097l-1.674,0.134c0.124,0.214 0.221,0.449 0.289,0.708c0.07,0.259 0.103,0.547 0.103,0.862c-0.006,0.381 -0.056,0.724 -0.149,1.034c-0.094,0.31 -0.21,0.594 -0.347,0.853c-0.137,0.258 -0.287,0.498 -0.45,0.723c-0.161,0.223 -0.31,0.442 -0.449,0.656c-0.138,0.214 -0.251,0.43 -0.341,0.65c-0.088,0.221 -0.134,0.456 -0.134,0.703c-0.007,0.193 0.031,0.373 0.114,0.537c0.083,0.166 0.186,0.331 0.31,0.496c0.125,0.165 0.256,0.331 0.399,0.497c0.141,0.164 0.272,0.343 0.398,0.537c0.122,0.192 0.225,0.403 0.304,0.63c0.078,0.226 0.119,0.482 0.119,0.764c-0.007,0.433 -0.119,0.852 -0.337,1.256c-0.217,0.402 -0.525,0.759 -0.924,1.068c-0.399,0.31 -0.881,0.558 -1.441,0.745c-0.562,0.187 -1.188,0.278 -1.876,0.278c-0.543,0 -1.041,-0.055 -1.491,-0.165c-0.454,-0.11 -0.84,-0.271 -1.169,-0.48c-0.327,-0.21 -0.581,-0.467 -0.759,-0.77c-0.18,-0.303 -0.269,-0.647 -0.269,-1.033c0.007,-0.578 0.185,-1.082 0.531,-1.507c0.349,-0.428 0.813,-0.771 1.395,-1.029c0.583,-0.26 1.253,-0.426 2.01,-0.502c0.758,-0.075 1.55,-0.058 2.375,0.052c-0.116,-0.158 -0.216,-0.327 -0.298,-0.506c-0.083,-0.18 -0.124,-0.379 -0.124,-0.6c0,-0.24 0.041,-0.486 0.124,-0.733c0.082,-0.247 0.241,-0.547 0.475,-0.899c-0.275,0.193 -0.572,0.341 -0.889,0.444c-0.316,0.103 -0.661,0.156 -1.031,0.156c-0.394,0 -0.76,-0.062 -1.097,-0.186c-0.338,-0.124 -0.626,-0.309 -0.868,-0.554c-0.24,-0.244 -0.43,-0.544 -0.567,-0.898c-0.139,-0.354 -0.207,-0.766 -0.207,-1.234c0,-0.477 0.085,-0.943 0.252,-1.401c0.169,-0.458 0.413,-0.866 0.735,-1.224c0.318,-0.357 0.712,-0.646 1.183,-0.863c0.468,-0.218 1.002,-0.325 1.6,-0.325c0.709,0 1.317,0.172 1.82,0.517l2.675,0Z" style="fill:rgb(215,25,32);fill-rule:nonzero;"/>        </g>        <g transform="matrix(5.55556,0,0,5.55556,786.56,146.877)">            <path d="M0,28.539c-0.689,0 -1.018,-0.325 -1.23,-0.729l-4.531,-8.839l-1.349,8.675c-0.112,0.609 -0.349,0.893 -0.998,0.893l-3.202,0c-0.608,0 -0.897,-0.284 -0.827,-0.893l4.276,-26.795c0.112,-0.608 0.391,-0.851 0.998,-0.851l3.202,0c0.609,0 0.937,0.243 0.825,0.851l-2.082,12.973l6.252,-6.405c0.318,-0.364 0.678,-0.608 1.367,-0.608l4.055,0c0.729,0 0.821,0.648 0.263,1.175l-8.648,8.553l5.866,10.905c0.253,0.527 0.02,1.095 -0.629,1.095l-3.608,0Z" style="fill:rgb(35,31,32);fill-rule:nonzero;"/>        </g>        <g transform="matrix(5.55556,0,0,5.55556,910.304,189.224)">            <path d="M0,20.024c-0.111,0.609 -0.349,0.893 -0.956,0.893l-2.717,0c-0.608,0 -0.857,-0.284 -0.825,-0.771l0.171,-1.865c-1.031,1.379 -2.909,2.919 -5.95,2.919c-3.444,0 -5.508,-2.027 -5.561,-5.107c-0.125,-7.216 6.301,-8.31 12.985,-8.553l0.22,-1.339c0.409,-2.229 -0.502,-3.243 -3.178,-3.243c-2.108,0 -3.882,0.527 -5.253,1.014c-0.522,0.162 -0.972,-0.041 -0.943,-0.609l-0.12,-2.35c-0.009,-0.487 0.309,-0.851 0.791,-1.055c1.611,-0.648 4.075,-1.134 6.467,-1.134c4.864,0 7.166,1.824 7.228,5.39c0.01,0.568 -0.019,1.217 -0.129,1.866l-2.23,13.944Zm-3.325,-9.323c-4.983,0.284 -7.721,1.216 -7.659,4.743c0.021,1.256 0.807,2.109 2.387,2.109c2.837,0 4.505,-2.028 4.908,-4.542l0.364,-2.31Z" style="fill:rgb(35,31,32);fill-rule:nonzero;"/>        </g>        <g transform="matrix(5.55556,0,0,5.55556,960.737,152.291)">            <path d="M0,26.672c-0.111,0.609 -0.349,0.893 -0.957,0.893l-3.244,0c-0.608,0 -0.897,-0.284 -0.786,-0.893l3.179,-19.944c0.111,-0.608 0.39,-0.892 0.998,-0.892l3.244,0c0.608,0 0.857,0.284 0.746,0.892l-3.18,19.944Zm3.879,-23.998c-0.112,0.649 -0.349,0.933 -0.957,0.933l-3.363,0c-0.61,0 -0.857,-0.284 -0.788,-0.933l0.438,-2.675c0.112,-0.608 0.391,-0.892 0.999,-0.892l3.323,0c0.65,0 0.9,0.284 0.787,0.892l-0.439,2.675Z" style="fill:rgb(35,31,32);fill-rule:nonzero;"/>        </g>        <g transform="matrix(5.55556,0,0,5.55556,1073.46,189.103)">            <path d="M0,20.025c-0.111,0.607 -0.349,0.892 -0.957,0.892l-2.718,0c-0.606,0 -0.854,-0.285 -0.822,-0.771l0.17,-1.865c-1.031,1.379 -2.909,2.92 -5.949,2.92c-3.445,0 -5.508,-2.027 -5.563,-5.109c-0.125,-7.215 6.302,-8.309 12.987,-8.554l0.219,-1.337c0.408,-2.229 -0.502,-3.243 -3.178,-3.243c-2.107,0 -3.882,0.528 -5.252,1.014c-0.525,0.162 -0.974,-0.041 -0.944,-0.608l-0.121,-2.351c-0.008,-0.486 0.309,-0.852 0.792,-1.054c1.61,-0.649 4.075,-1.135 6.467,-1.135c4.863,0 7.165,1.824 7.227,5.391c0.01,0.568 -0.017,1.217 -0.128,1.865l-2.23,13.945Zm-3.326,-9.324c-4.979,0.285 -7.72,1.216 -7.659,4.744c0.022,1.255 0.808,2.107 2.39,2.107c2.835,0 4.503,-2.027 4.905,-4.541l0.364,-2.31Z" style="fill:rgb(35,31,32);fill-rule:nonzero;"/>        </g>        <g transform="matrix(5.55556,0,0,5.55556,447.404,147.095)">            <path d="M0,28.538c-0.689,0 -0.979,-0.284 -0.868,-0.973l4.237,-26.632c0.111,-0.65 0.389,-0.933 1.079,-0.933l8.228,0c5.472,0 8.788,1.864 8.859,5.918c0.055,3.122 -1.349,6.243 -4.651,7.54c1.874,0.568 3.285,2.392 3.335,5.311c0.113,6.404 -4.328,9.769 -11.017,9.769l-9.202,0Zm9.204,-4.5c3.365,0 5.81,-1.539 5.746,-5.23c-0.035,-1.985 -1.305,-2.837 -4.346,-2.837l-4.379,0l-1.319,8.067l4.298,0Zm1.773,-12.282c3.04,0 5.203,-1.46 5.146,-4.784c-0.033,-1.824 -1.262,-2.513 -3.978,-2.513l-4.094,0l-1.168,7.297l4.094,0Z" style="fill:rgb(35,31,32);fill-rule:nonzero;"/>        </g>        <g transform="matrix(5.55556,0,0,5.55556,599.094,152.291)">            <path d="M0,26.672c-0.109,0.609 -0.349,0.893 -0.956,0.893l-3.243,0c-0.609,0 -0.897,-0.284 -0.787,-0.893l3.179,-19.944c0.112,-0.608 0.39,-0.892 0.999,-0.892l3.242,0c0.608,0 0.857,0.284 0.745,0.892l-3.179,19.944Zm3.878,-23.998c-0.108,0.649 -0.346,0.933 -0.956,0.933l-3.364,0c-0.608,0 -0.856,-0.284 -0.787,-0.933l0.44,-2.675c0.11,-0.608 0.391,-0.892 0.998,-0.892l3.324,0c0.649,0 0.897,0.284 0.786,0.892l-0.441,2.675Z" style="fill:rgb(35,31,32);fill-rule:nonzero;"/>        </g>        <g transform="matrix(5.55556,0,0,5.55556,715.131,289.662)">            <path d="M0,-16.054c-0.031,0.488 -0.308,0.894 -0.586,1.218l-10.266,13.336l7.783,0c0.608,0 0.897,0.243 0.785,0.851l-0.442,2.594c-0.11,0.609 -0.349,0.892 -0.957,0.892l-12.972,0c-0.649,0 -0.896,-0.283 -0.785,-0.892l0.29,-1.946c0.073,-0.445 0.31,-0.85 0.547,-1.135l10.387,-13.378l-7.458,0c-0.608,0 -0.856,-0.283 -0.786,-0.89l0.442,-2.595c0.071,-0.608 0.389,-0.892 0.996,-0.892l12.568,0c0.648,0 0.896,0.284 0.785,0.892l-0.331,1.945Z" style="fill:rgb(35,31,32);fill-rule:nonzero;"/>        </g>        <g transform="matrix(5.55556,0,0,5.55556,428.474,190.116)">            <path d="M0,-1.457c1.429,-1.441 3.178,-3.308 3.72,-4.078c0.416,-0.513 0.646,-1.114 0.488,-1.67c-0.041,-0.501 -0.304,-0.86 -0.719,-1.064c-0.475,-0.24 -1.064,-0.128 -1.707,-0.052c-0.581,0.102 -1.136,0.134 -1.486,-0.052c-0.835,-0.429 -0.931,-1.212 -0.622,-1.773c0.379,-0.681 1.137,-1.247 1.928,-1.883c0.912,-0.731 1.814,-1.475 2.307,-2.425c0.557,-1.081 -0.006,-1.524 -0.397,-1.731c-0.282,-0.139 -0.637,-0.165 -0.983,-0.178c-0.261,-0.059 -0.554,-0.052 -0.72,-0.139c-0.455,-0.232 -0.509,-0.672 -0.207,-1.229c0.105,-0.189 0.325,-0.472 0.591,-0.826c0.286,-0.404 0.577,-0.82 0.772,-1.2c0.263,-0.505 0.207,-1.734 -0.604,-2.156c-0.82,-0.419 -2.059,0.464 -3.104,1.195c-0.891,0.572 -1.613,1.067 -2.053,0.834c-0.383,-0.205 -0.406,-0.532 -0.468,-0.798c-0.063,-0.271 -0.064,-0.507 -0.335,-0.65c-0.658,-0.34 -1.699,0.451 -2.531,1.796c-0.508,0.822 -0.724,1.404 -0.996,1.96c-0.197,0.441 -0.492,0.9 -0.819,1.415c-0.727,1.149 -1.067,1.423 -1.628,1.087c-0.561,-0.335 -0.855,-0.832 -1.136,-1.228c-0.254,-0.307 -0.513,-0.611 -0.736,-0.745c-0.609,-0.36 -1.524,-0.153 -2.204,0.787c-1.616,2.245 -1.716,4.844 -1.742,6.647c-0.055,0.898 -0.055,1.617 -0.284,1.924c-0.23,0.31 -0.663,0.301 -1.17,-0.079c-0.166,-0.129 -0.41,-0.395 -0.656,-0.657c-0.191,-0.225 -0.39,-0.537 -0.618,-0.704c-0.279,-0.216 -1.251,-0.574 -1.666,-0.064c-0.647,0.78 -0.245,4.166 0.16,5.728c0.746,2.879 1.979,5.067 2.766,6.431c0.701,1.129 1.094,1.773 0.836,2.136c-0.282,0.373 -0.715,0.183 -1.115,-0.053c-0.524,-0.346 -1.082,-0.638 -1.539,-0.036c-0.85,1.077 1.533,4.54 4.351,6.616c1.341,0.98 2.841,1.85 4.338,2.544c1.498,0.692 2.916,1.337 4.201,2.014c-7.903,-19.102 3.137,-30.774 2.788,-31.017c0.397,0.084 -10.363,13.057 -0.332,31.74c0.97,1.67 2.818,3.493 3.282,3.965c0.005,-0.008 0.011,-0.015 0.014,-0.021c-0.604,-0.929 -3.401,-6.235 0.237,-13.851c0.751,-1.628 1.565,-3.075 1.268,-3.846c-0.364,-0.956 -1.304,-0.694 -2.283,-0.382c-0.622,0.246 -1.276,0.39 -1.658,0.192c-0.256,-0.129 -0.435,-0.389 -0.486,-0.58c-0.063,-0.6 0.576,-1.298 1.014,-1.792c0.244,-0.28 1.012,-1.081 1.943,-2.052" style="fill:rgb(215,25,32);fill-rule:nonzero;"/>        </g>    </g></svg>