<?xml version="1.0" encoding="UTF-8" standalone="no"?><!DOCTYPE svg PUBLIC "-//W3C//DTD SVG 1.1//EN" "http://www.w3.org/Graphics/SVG/1.1/DTD/svg11.dtd"><svg width="100%" height="100%" viewBox="0 0 1024 512" version="1.1" xmlns="http://www.w3.org/2000/svg" xmlns:xlink="http://www.w3.org/1999/xlink" xml:space="preserve" style="fill-rule:evenodd;clip-rule:evenodd;stroke-linejoin:round;stroke-miterlimit:2;"><title>Maxcredit</title><desc></desc>    <g transform="matrix(1.85316,0,0,1.85316,-826.698,-668.874)">        <g transform="matrix(2,0,0,2,0,-60.66)">            <path d="M294.52,286.18c-0.49,0.14 -1.14,0.26 -1.96,0.37c-4.07,0.49 -6.73,1.21 -7.98,2.15c-0.88,0.68 -1.33,1.6 -1.33,2.75c0,0.94 0.34,1.74 1.02,2.39c0.68,0.65 1.58,0.98 2.69,0.98c1.23,0 2.38,-0.3 3.47,-0.9c1.08,-0.59 1.89,-1.35 2.43,-2.29c0.54,-0.93 1.02,-2.39 1.43,-4.37l0.23,-1.08Zm15.75,-16.04l8.63,0l4.39,8.57l7.61,-8.57l9.88,0l-13.95,15.59l7.58,14.46l-8.63,0l-4.33,-8.43l-7.47,8.43l-9.96,0l13.89,-15.39l-7.64,-14.66Zm-17.71,-0.71c3.87,0 6.73,0.78 8.58,2.33c1.85,1.56 2.77,3.46 2.77,5.71c0,0.9 -0.08,1.86 -0.24,2.88c-0.16,1.02 -0.72,3.7 -1.68,8.04c-0.79,3.59 -1.19,6.09 -1.19,7.53c0,1.28 0.23,2.71 0.68,4.27l-7.9,0c-0.32,-1.09 -0.52,-2.22 -0.59,-3.39c-1.19,1.32 -2.56,2.33 -4.1,3.04c-1.55,0.71 -3.11,1.06 -4.67,1.06c-2.49,0 -4.55,-0.82 -6.17,-2.45c-1.63,-1.63 -2.44,-3.73 -2.44,-6.3c0,-2.86 0.89,-5.16 2.68,-6.87c1.78,-1.72 4.96,-2.76 9.55,-3.12c3.87,-0.32 6.45,-0.7 7.75,-1.16c0.34,-1.13 0.51,-2.03 0.51,-2.71c0,-0.87 -0.35,-1.6 -1.05,-2.18c-0.69,-0.59 -1.73,-0.88 -3.11,-0.88c-1.45,0 -2.6,0.3 -3.44,0.89c-0.84,0.6 -1.41,1.44 -1.71,2.54l-7.92,-0.68c0.9,-2.68 2.48,-4.78 4.74,-6.29c2.25,-1.51 5.24,-2.26 8.95,-2.26Zm-46.41,0c2.26,0 4.01,0.47 5.24,1.41c1.22,0.95 2.01,2.25 2.34,3.91c1.04,-1.51 2.53,-2.77 4.48,-3.79c1.94,-1.02 3.96,-1.53 6.05,-1.53c2.4,0 4.27,0.64 5.61,1.92c1.34,1.29 2.01,2.98 2.01,5.1c0,1.04 -0.27,2.83 -0.8,5.37l-3.85,18.37l-8.12,0l3.85,-18.37c0.47,-2.3 0.71,-3.6 0.71,-3.9c0,-0.83 -0.25,-1.49 -0.75,-1.97c-0.5,-0.48 -1.25,-0.72 -2.25,-0.72c-2.02,0 -3.82,1.07 -5.41,3.2c-1.15,1.53 -2.13,4.23 -2.94,8.12l-2.86,13.64l-8.12,0l3.79,-18.17c0.44,-2.09 0.65,-3.45 0.65,-4.07c0,-0.79 -0.27,-1.45 -0.8,-1.95c-0.54,-0.51 -1.28,-0.77 -2.23,-0.77c-0.88,0 -1.8,0.27 -2.74,0.79c-0.94,0.53 -1.77,1.26 -2.48,2.18c-0.7,0.93 -1.31,2.12 -1.82,3.57c-0.23,0.68 -0.6,2.22 -1.11,4.61l-2.88,13.81l-8.13,0l6.29,-30.05l7.64,0l-0.77,3.65c2.99,-2.91 6.12,-4.36 9.4,-4.36Z" style="fill:url(#_Linear1);"/>        </g>        <g transform="matrix(2,0,0,2,0,0)">            <g transform="matrix(57.96,0,0,57.96,337.63,269.93)">                <path d="M0.392,-0.195l0.136,0.022c-0.023,0.06 -0.056,0.106 -0.1,0.138c-0.044,0.031 -0.095,0.047 -0.153,0.047c-0.066,0 -0.118,-0.019 -0.157,-0.059c-0.039,-0.039 -0.058,-0.093 -0.058,-0.162c0,-0.057 0.012,-0.11 0.035,-0.16c0.024,-0.05 0.059,-0.09 0.106,-0.119c0.047,-0.028 0.099,-0.043 0.155,-0.043c0.062,0 0.11,0.016 0.147,0.048c0.036,0.032 0.057,0.074 0.061,0.126l-0.133,0.014c-0.003,-0.029 -0.012,-0.05 -0.026,-0.064c-0.015,-0.013 -0.034,-0.02 -0.057,-0.02c-0.027,0 -0.053,0.01 -0.076,0.03c-0.023,0.02 -0.041,0.05 -0.054,0.091c-0.013,0.04 -0.019,0.077 -0.019,0.113c0,0.03 0.008,0.054 0.023,0.07c0.015,0.017 0.033,0.025 0.056,0.025c0.022,0 0.044,-0.008 0.065,-0.024c0.021,-0.016 0.037,-0.041 0.049,-0.073Z" style="fill-rule:nonzero;"/>            </g>            <g transform="matrix(57.96,0,0,57.96,369.863,269.93)">                <path d="M0.141,-0.519l0.13,0l-0.021,0.101c0.049,-0.075 0.102,-0.113 0.159,-0.113c0.02,0 0.042,0.005 0.065,0.015l-0.054,0.115c-0.012,-0.004 -0.026,-0.007 -0.04,-0.007c-0.024,0 -0.049,0.009 -0.074,0.028c-0.025,0.018 -0.044,0.042 -0.058,0.073c-0.014,0.03 -0.028,0.078 -0.041,0.144l-0.035,0.163l-0.14,0l0.109,-0.519Z" style="fill-rule:nonzero;"/>            </g>            <g transform="matrix(57.96,0,0,57.96,392.417,269.93)">                <path d="M0.545,-0.216l-0.352,0c0,0.006 0,0.01 0,0.013c0,0.034 0.01,0.062 0.029,0.083c0.02,0.022 0.044,0.032 0.072,0.032c0.047,0 0.083,-0.024 0.109,-0.072l0.126,0.021c-0.025,0.05 -0.057,0.088 -0.098,0.113c-0.041,0.026 -0.087,0.038 -0.138,0.038c-0.069,0 -0.126,-0.022 -0.169,-0.066c-0.044,-0.044 -0.066,-0.102 -0.066,-0.175c0,-0.071 0.02,-0.134 0.059,-0.189c0.054,-0.075 0.131,-0.113 0.23,-0.113c0.064,0 0.114,0.02 0.152,0.059c0.037,0.039 0.056,0.094 0.056,0.165c0,0.034 -0.004,0.064 -0.01,0.091Zm-0.118,-0.085c0,-0.006 0,-0.011 0,-0.014c0,-0.039 -0.008,-0.068 -0.026,-0.087c-0.017,-0.019 -0.04,-0.029 -0.069,-0.029c-0.029,0 -0.055,0.011 -0.078,0.033c-0.023,0.022 -0.038,0.054 -0.046,0.097l0.219,0Z" style="fill-rule:nonzero;"/>            </g>            <g transform="matrix(57.96,0,0,57.96,424.65,269.93)">                <path d="M0.519,0l-0.133,0l0.012,-0.056c-0.025,0.024 -0.05,0.042 -0.075,0.052c-0.025,0.011 -0.052,0.016 -0.083,0.016c-0.054,0 -0.098,-0.018 -0.131,-0.055c-0.033,-0.036 -0.05,-0.09 -0.05,-0.162c0,-0.083 0.024,-0.158 0.07,-0.225c0.047,-0.067 0.109,-0.101 0.186,-0.101c0.07,0 0.122,0.028 0.157,0.083l0.056,-0.268l0.14,0l-0.149,0.716Zm-0.324,-0.211c0,0.037 0.01,0.066 0.028,0.087c0.019,0.021 0.042,0.031 0.069,0.031c0.026,0 0.05,-0.008 0.072,-0.026c0.021,-0.017 0.039,-0.044 0.052,-0.08c0.013,-0.036 0.02,-0.07 0.02,-0.103c0,-0.037 -0.01,-0.067 -0.03,-0.091c-0.02,-0.023 -0.044,-0.034 -0.07,-0.034c-0.041,0 -0.075,0.023 -0.101,0.068c-0.027,0.046 -0.04,0.095 -0.04,0.148Z" style="fill-rule:nonzero;"/>            </g>            <g transform="matrix(57.96,0,0,57.96,460.053,269.93)">                <path d="M0.189,-0.716l0.141,0l-0.027,0.127l-0.14,0l0.026,-0.127Zm-0.041,0.197l0.141,0l-0.109,0.519l-0.14,0l0.108,-0.519Z" style="fill-rule:nonzero;"/>            </g>            <g transform="matrix(57.96,0,0,57.96,476.154,269.93)">                <path d="M0.075,-0.415l0.022,-0.104l0.068,0l0.017,-0.083l0.161,-0.096l-0.038,0.179l0.086,0l-0.022,0.104l-0.086,0l-0.045,0.218c-0.008,0.039 -0.012,0.062 -0.012,0.067c0,0.011 0.003,0.019 0.01,0.025c0.007,0.006 0.019,0.009 0.037,0.009c0.006,0 0.022,-0.001 0.046,-0.003l-0.022,0.104c-0.024,0.005 -0.048,0.007 -0.074,0.007c-0.049,0 -0.085,-0.009 -0.108,-0.028c-0.022,-0.019 -0.033,-0.046 -0.033,-0.08c0,-0.016 0.006,-0.052 0.018,-0.11l0.043,-0.209l-0.068,0Z" style="fill-rule:nonzero;"/>            </g>        </g>    </g>    <defs>        <linearGradient id="_Linear1" x1="0" y1="0" x2="1" y2="0" gradientUnits="userSpaceOnUse" gradientTransform="matrix(4.26177e-15,69.6,69.6,-4.26177e-15,358.59,243.79)"><stop offset="0" style="stop-color:rgb(255,79,11);stop-opacity:1"/><stop offset="1" style="stop-color:rgb(254,114,0);stop-opacity:1"/></linearGradient>    </defs></svg>