<?xml version="1.0" encoding="UTF-8" standalone="no"?><!DOCTYPE svg PUBLIC "-//W3C//DTD SVG 1.1//EN" "http://www.w3.org/Graphics/SVG/1.1/DTD/svg11.dtd"><svg width="100%" height="100%" viewBox="0 0 1024 512" version="1.1" xmlns="http://www.w3.org/2000/svg" xmlns:xlink="http://www.w3.org/1999/xlink" xml:space="preserve" style="fill-rule:evenodd;clip-rule:evenodd;stroke-linejoin:round;stroke-miterlimit:2;"><title>Adventureros</title><desc></desc>    <g id="layer101" transform="matrix(0.682404,0,0,0.682404,102.387,0.592627)">        <path d="M22.5,439.2c-7.6,-2.8 -9.6,-4 -14.2,-8.5c-5.9,-5.6 -7.8,-11.5 -7.8,-24.3c0,-9.2 0.2,-10.5 3,-15.9c5.3,-10.4 16.5,-16.1 37.3,-19c13,-1.8 18.7,-3.7 22,-7.2c6.2,-6.7 -1.8,-13.3 -16.1,-13.3c-6.4,0 -11.3,1.8 -14.1,5l-2.5,3l-13.5,0c-13.4,0 -13.6,0 -13.6,-2.2c0,-4.7 5.6,-14.3 11.1,-19.1c7.4,-6.5 14.9,-8.9 30,-9.5c24.7,-0.9 42.6,7 46.7,20.6c1.6,5.2 1.6,54.1 0.1,61.3c-2.8,13 -12.1,22.9 -26.5,28c-8.7,3.1 -34.7,3.8 -41.9,1.1Zm30,-23.1c8.3,-3.8 12.5,-11.5 12.5,-23.1l0,-7.7l-6.7,2.2c-3.8,1.3 -10.3,3.1 -14.5,4c-4.2,0.9 -9.1,2.6 -10.9,3.8c-6.6,4.4 -7.5,14.2 -1.9,19.9c2.6,2.6 3.4,2.8 10.2,2.8c4.9,0 8.6,-0.6 11.3,-1.9Z" style="fill:rgb(87,87,86);fill-rule:nonzero;"/>        <path d="M137.1,439.5c-12.9,-3.6 -21,-9.9 -26.3,-20.3c-9.3,-18.1 -9.4,-48.9 -0.3,-67.2c8.1,-16 20.4,-24 37,-24c11.5,0 19.9,3.7 27.2,11.9l3.3,3.6l0,-22.7l0,-22.8l8.8,0c9.9,0 13.8,1.6 17.2,7.2c1.9,3.2 2,5.1 2,49.3c0,49 -0.5,54.5 -5,63.6c-4.5,9 -11.3,14.1 -26,19.6c-8.4,3.2 -29.3,4.2 -37.9,1.8Zm25.1,-23.7c5.4,-1.6 11.4,-8.6 13.5,-15.7c2.1,-7.5 2.2,-22.9 0,-30.1c-5.1,-17.1 -24.3,-22.6 -35.9,-10.3c-5.5,5.8 -7.2,11.6 -7.2,24.8c0,10 0.3,12.9 2.2,17.6c4.7,11.8 15.5,17.3 27.4,13.7Z" style="fill:rgb(87,87,86);fill-rule:nonzero;"/>        <path d="M373.3,439.5c-8.2,-2.3 -13.2,-5.3 -19.6,-11.6c-11.2,-11.2 -15.3,-24.9 -14.5,-48c0.4,-11.1 0.9,-14.7 3.1,-20.8c7.2,-20.5 22.9,-31.1 46.2,-31.1c31.2,0 48.6,18.1 50.2,52.3l0.6,11.7l-35.7,0l-35.7,0l0.6,3.8c1.5,8.5 2.8,11.5 6.5,15.2c8.1,8.1 22,8.1 29.9,0c2.1,-2.2 5,-4.4 6.5,-5c1.5,-0.5 8.1,-1 14.7,-1l11.9,0l-1.9,5c-5.3,14 -13.8,22.7 -27.2,28c-7.2,2.9 -27.8,3.7 -35.6,1.5Zm35.1,-70.2c-1.7,-9.7 -8,-15.9 -17.1,-17c-6.4,-0.7 -11.5,0.9 -16.4,5.4c-3.5,3.2 -4.8,5.7 -6.3,12.6l-0.6,2.7l41.1,0l-0.7,-3.7Z" style="fill:rgb(87,87,86);fill-rule:nonzero;"/>        <path d="M660.5,440.4c-6.6,-1.7 -17.6,-6 -21.5,-8.3c-6,-3.7 -10.5,-9.7 -13.1,-17.9c-2,-6.3 -2.2,-9.1 -2.6,-45.4l-0.5,-38.8l30.1,0l0.3,38.8l0.3,38.7l2.4,3.4c7.5,10.5 27.1,8.7 32.5,-2.9c0.7,-1.6 1.3,-14.1 1.6,-36.2l0.5,-33.7l2.9,-3c3.7,-3.8 8,-5.1 17.4,-5.1l7.2,0l0,38.3c0,45.8 -0.5,49.1 -9.2,59.8c-2.1,2.6 -9.4,6.8 -16.6,9.5c-5.4,2 -8.9,2.6 -18.2,2.9c-6.3,0.2 -12.4,0.2 -13.5,-0.1Z" style="fill:rgb(87,87,86);fill-rule:nonzero;"/>        <path d="M840.9,440c-17.7,-4.5 -30.3,-18.5 -34.5,-38.3c-2.5,-11.4 -1.5,-33 1.9,-42.4c7.4,-20.8 23,-31.3 46.4,-31.3c31,0 48.5,18.2 50,51.8l0.6,12.2l-35.6,0l-35.5,0l0.5,4.3c0.8,6.6 5,14.4 9.3,17.3c8.1,5.4 20.5,4.1 27.3,-2.7c2.1,-2.2 5,-4.4 6.4,-5c1.3,-0.5 7.8,-0.9 14.3,-0.9l11.9,0l-2,5.7c-4.4,12.9 -12.8,21.6 -26.2,27c-5.3,2.2 -8.1,2.6 -18.7,2.9c-6.9,0.2 -14.1,-0.1 -16.1,-0.6Zm33.6,-70.7c-1.1,-6 -4.3,-11.1 -8.7,-14c-3.5,-2.4 -5.2,-2.8 -10.9,-2.8c-5.9,0 -7.3,0.4 -11,3c-5.6,4 -7.7,7 -8.8,12.8l-0.8,4.7l40.9,0l-0.7,-3.7Z" style="fill:rgb(87,87,86);fill-rule:nonzero;"/>        <path d="M1027,439.4c-13.4,-3.6 -24.2,-11.9 -29.2,-22.4c-3.3,-7 -6.8,-24 -6.8,-33.1c0,-8.8 3.5,-24.9 6.7,-31.4c8.3,-16.5 22.6,-24.5 43.8,-24.5c20.8,0 34.9,8 43.2,24.4c4.1,8.2 7.3,22 7.3,32.1c0,9.6 -3.1,23.6 -7,31.7c-3.7,7.8 -12.5,16.8 -19.3,19.8c-11.3,5 -27.4,6.4 -38.7,3.4Zm24.4,-24.7c3.4,-2.2 7.1,-7.3 9.3,-12.7c1.4,-3.6 1.8,-7.2 1.8,-18c0,-11.9 -0.3,-14.1 -2.3,-18.2c-3,-6.3 -10,-12.4 -15.2,-13.2c-7,-1.1 -15.2,2.1 -19.4,7.6c-4.6,6.1 -5.9,12.5 -5.4,26.1c0.6,15.5 3,22.5 9.5,27.1c6.6,4.6 15.8,5.1 21.7,1.3Z" style="fill:rgb(87,87,86);fill-rule:nonzero;"/>        <path d="M1135.5,440.4c-11.3,-2.7 -20.1,-7.3 -24.8,-13c-3.4,-4.1 -6.3,-11.6 -7.1,-18.6l-0.6,-5.8l28.5,0l1.5,4.7c1.8,5.7 5.6,8.6 13.7,10.4c11.6,2.6 24.3,-2.2 24.3,-9.1c0,-5.2 -6.3,-8.5 -22.5,-12c-32.6,-7.1 -43.9,-17 -42.2,-36.9c1.7,-20.6 17.7,-32.1 44.4,-32.1c26.3,0 42.4,11.6 45.7,32.8l0.6,4.2l-9.3,0c-11.9,0 -15,-1.1 -21.6,-7.6c-6,-6 -8.4,-6.8 -19.1,-6.2c-5.6,0.3 -7.4,0.8 -9.5,2.8c-3.3,3.1 -3.3,7.2 0.1,9.9c3,2.3 14.9,6.4 23.6,8c7.4,1.3 20,5.7 25.6,8.8c9,5 13.2,12.8 13.2,24.3c0,16.1 -9,28 -25.1,33.1c-5.1,1.7 -9.6,2.2 -21.9,2.4c-8.5,0.2 -16.4,0.2 -17.5,-0.1Z" style="fill:rgb(87,87,86);fill-rule:nonzero;"/>        <path d="M587,439.3c-7.7,-0.7 -13.8,-2.5 -15.8,-4.6c-5.3,-5.6 -5.2,-4.8 -5.2,-73.2l0,-63.5l8.2,0c6.3,0 9.2,0.5 12.5,2.1c6.3,3.1 7.3,5.7 7.3,19.4l0,11.5l17,0l0,5c0,2.8 -0.7,6.4 -1.5,8c-2,3.8 -7.4,7 -11.9,7l-3.7,0l0.3,30.9c0.4,36.5 -0.1,35.1 10.5,35.1l6.3,0l0,10.9c0,9 -0.3,11 -1.6,11.5c-1.6,0.6 -15.8,0.6 -22.4,-0.1Z" style="fill:rgb(87,87,86);fill-rule:nonzero;"/>        <path d="M256.5,433.8c-0.9,-2.9 -5.3,-15.6 -9.7,-28.3c-4.4,-12.6 -11.4,-32.7 -15.5,-44.5c-4.1,-11.8 -7.8,-22.2 -8.3,-23c-0.4,-0.9 -1.1,-3 -1.5,-4.8l-0.7,-3.3l15.4,0.3l15.3,0.3l3.3,11.5c1.8,6.3 4.4,15.3 5.7,20c1.3,4.7 4.4,15.7 6.9,24.4c2.5,8.8 4.6,16.6 4.6,17.5c0,2.9 1.2,0.2 3.5,-8.1c16.2,-57.5 17.5,-61.5 22.3,-63.9c1.6,-0.8 7.7,-1.4 15.6,-1.7l12.8,-0.4l-0.7,3.1c-0.4,1.8 -7.5,22.4 -15.9,45.9c-8.4,23.5 -16.5,46.6 -18.1,51.5l-3,8.7l-15.1,0l-15.2,0l-1.7,-5.2Z" style="fill:rgb(87,87,86);fill-rule:nonzero;"/>        <path d="M453,404.8c0,-18.9 0.5,-37.2 1,-40.7c2.7,-19 11.5,-28.4 32.2,-34.1c21.7,-6 49,2.7 56.9,18.2c4.5,8.8 4.9,13.2 4.9,53l0,37.8l-9.1,0c-10.5,0 -14.5,-1.4 -17.4,-6.3c-1.9,-3 -2,-5.8 -2.6,-37.7c-0.3,-19 -0.6,-34.6 -0.7,-34.7c-7.8,-9 -18.5,-11.3 -27.7,-5.9c-7.6,4.5 -7.5,4.1 -7.5,47.1l0,37.5l-15,0l-15,0l0,-34.2Z" style="fill:rgb(87,87,86);fill-rule:nonzero;"/>        <path d="M733,407.6c0,-34.8 0.6,-40.1 6.2,-51.3c4.3,-8.8 13.5,-17.2 22.5,-20.6c8.7,-3.3 13.7,-4.4 24.6,-5.3l8.7,-0.7l0,30.3l-7.9,0c-12.1,0 -18.7,3 -22.9,10.4c-1.5,2.7 -1.7,7.1 -2,35.9l-0.3,32.7l-14.5,0l-14.4,0l0,-31.4Z" style="fill:rgb(87,87,86);fill-rule:nonzero;"/>        <path d="M919,411.8c0,-31 0.9,-41.7 4.4,-50.5c7.7,-19.6 22,-28.5 49.9,-30.9l7.7,-0.7l0,30.1l-9.2,0.4c-10.8,0.4 -15.8,2.6 -19.8,8.5l-2.5,3.6l-0.3,33.4l-0.3,33.3l-15,0l-14.9,0l0,-27.2Z" style="fill:rgb(87,87,86);fill-rule:nonzero;"/>        <path d="M1094.8,583.4c-28,-14 -50.8,-25.9 -50.8,-26.4c0,-0.6 -0.9,-2.9 -1.9,-5.3c-12.9,-28.4 -15.9,-35.2 -15.7,-35.5c0.2,-0.2 24.9,12 55,27c51.6,25.8 54.6,27.4 55.2,30.3c0.3,1.6 2.6,9.9 5,18.4c2.5,8.5 4.3,15.8 4.2,16.2c-0.2,0.4 -23.1,-10.7 -51,-24.7Z" style="fill:rgb(29,112,183);fill-rule:nonzero;"/>        <path d="M343,207.5c-48.5,-24.3 -50.4,-25.4 -47.5,-26.4c1.7,-0.6 3.9,-1.6 5,-2.1c1.1,-0.5 6.3,-2.5 11.5,-4.5c5.2,-1.9 11,-4.2 12.8,-5c1.8,-0.8 3.9,-1.5 4.7,-1.5c1.5,0 107.3,52.4 108.8,53.9c0.4,0.4 -2.5,1.5 -6.5,2.4c-29.2,6.7 -37.9,8.7 -38.1,8.6c-0.1,0 -22.9,-11.4 -50.7,-25.4Z" style="fill:rgb(29,112,183);fill-rule:nonzero;"/>        <path d="M1137.8,746.1c-7.2,-2.3 -13.5,-6 -18.5,-10.8c-5.9,-5.6 -8.1,-9.3 -11.8,-19.5c-6.7,-18.7 -11.4,-31.5 -14.3,-39c-1.7,-4.3 -2.8,-7.8 -2.4,-7.8c1.9,0 83.5,41.6 84.2,43c0.5,0.9 1.8,5.2 2.9,9.5l2,8l-2.1,4.4c-1.5,3.1 -3.7,5.4 -8,8.1c-9.4,6.1 -21,7.6 -32,4.1Z" style="fill:rgb(115,204,18);fill-rule:nonzero;"/>        <path d="M1066.6,509l-57.9,-29l-3.4,-7.1c-1.8,-3.9 -3.3,-7.2 -3.3,-7.4c0,-0.1 3.3,1 7.3,2.5c25.6,10 57.5,7.1 78.9,-7.2l5.7,-3.8l6.3,4.3c6.3,4.3 6.3,4.4 8.4,12.3c1.2,4.3 3.4,12.2 4.9,17.4c4,14.4 7.1,25.5 9.8,35.6c1.3,5 2.7,9.7 3.1,10.3c0.4,0.6 0.1,1.1 -0.6,1.1c-0.7,0 -27.4,-13.1 -59.2,-29Z" style="fill:rgb(115,204,18);fill-rule:nonzero;"/>        <path d="M914,314.7c-2.9,-4.7 -18.9,-25.7 -26.8,-35.2c-32.2,-38.6 -62.1,-62.6 -91.2,-73c-27.9,-9.9 -67.2,-15.5 -109.8,-15.5c-49.2,0 -120.3,7.7 -190.2,20.6c-8,1.4 -15.3,2.7 -16.2,2.8c-1.8,0.1 -118.7,-57.4 -118.7,-58.5c-0.1,-0.4 14.5,-6.2 47.4,-18.9c3.9,-1.5 16.5,-6.4 28,-10.9c17.4,-6.9 64.2,-24.6 80,-30.4c49.9,-18.1 103.3,-36.4 135,-46.2c6.6,-2 13.8,-4.3 16,-5c2.2,-0.8 8.1,-2.6 13,-4c5,-1.5 11.7,-3.5 15,-4.5c34.9,-10.6 88.4,-23.9 117,-29c27.3,-4.9 40.6,-6.3 62.5,-6.4c32,-0.1 39.1,2.2 54.6,17.8c18.3,18.5 35.8,47.6 57.8,96.6c10.7,23.6 10.2,22.6 20,47.5c4.8,12.1 9.2,22.9 9.7,24c0.5,1.1 2.7,7 4.8,13c2.2,6.1 5.2,14.2 6.7,18c4.6,12.2 26.4,76 26.4,77.4c0,0.3 -5.7,0.6 -12.7,0.7c-7.1,0.1 -28.3,0.6 -47.3,1.2c-31.3,1 -35.4,1.3 -44,3.5c-11.7,3 -20.6,6.7 -27.9,11.6c-3.1,2 -6.1,4 -6.6,4.3c-0.6,0.4 -1.7,-0.3 -2.5,-1.5Z" style="fill:rgb(115,204,18);fill-rule:nonzero;"/>        <path d="M207.9,279.9c-9.8,-1.4 -19.2,-6 -25.5,-12.5c-3.7,-3.8 -6.3,-8.9 -8,-15.4c-1.3,-5.2 -1.4,-7.3 -0.4,-12.5c1.7,-9.2 3.9,-12.1 11.5,-15.6c3.6,-1.6 6.9,-2.9 7.4,-2.9c0.9,0 18.8,8.6 63.6,30.5c19.7,9.7 21.7,10.9 19.5,11.7c-1.4,0.5 -7.7,2.5 -14,4.4c-6.3,1.9 -17.8,5.5 -25.5,7.9c-15.7,4.9 -20.5,5.6 -28.6,4.4Z" style="fill:rgb(115,204,18);fill-rule:nonzero;"/>        <path d="M1120.7,656.9c-32.4,-16.2 -44,-22.5 -44.7,-24.2c-2.1,-5 -15.2,-37.2 -15.7,-38.5c-0.3,-0.7 21,9.4 47.3,22.6l47.9,24l2.3,8.3c3.8,14.2 7,25.5 7.7,27.8c0.3,1.1 0.3,2.1 -0.2,2c-0.4,0 -20.5,-9.9 -44.6,-22Z" style="fill:rgb(0,158,226);fill-rule:nonzero;"/>        <path d="M268.6,230.9c-24.1,-12.1 -43.6,-22.2 -43.4,-22.4c0.2,-0.3 8.6,-3.6 18.7,-7.5l18.3,-7l47.3,23.7c26.1,13.1 47.2,23.9 47.1,24.1c-0.3,0.3 -3.6,1.1 -27.3,7.3c-8.3,2.1 -15.5,3.9 -16,3.8c-0.4,0 -20.5,-9.9 -44.7,-22Z" style="fill:rgb(0,158,226);fill-rule:nonzero;"/>    </g></svg>