<?xml version="1.0" encoding="UTF-8" standalone="no"?><!DOCTYPE svg PUBLIC "-//W3C//DTD SVG 1.1//EN" "http://www.w3.org/Graphics/SVG/1.1/DTD/svg11.dtd"><svg width="100%" height="100%" viewBox="0 0 1024 512" version="1.1" xmlns="http://www.w3.org/2000/svg" xmlns:xlink="http://www.w3.org/1999/xlink" xml:space="preserve" style="fill-rule:evenodd;clip-rule:evenodd;stroke-linejoin:round;stroke-miterlimit:2;"><title>Huddle</title><desc>Huddle Capital is a straightforward, peer-to-peer lending platform, matching investors with borrowers, to support the growth of UK SMEs.We know that the fintech market is growing at an incredibly fast rate - we'll help you understand what peer to peer lending is, how to invest, and help you make informed investment choices.</desc>    <g transform="matrix(9.09116,0,0,9.09116,-309.836,-846.663)">        <g transform="matrix(1,0,0,1,49.3211,124.73)">            <path d="M0,-5.247c1.58,-1.964 3.024,-4.292 4.333,-6.982c0.622,-1.274 1.08,-2.441 1.374,-3.502l0.001,-0.054c0.018,0.036 0.004,0.054 -0.04,0.053c-0.047,-0.001 -2.362,2.871 -4.267,6.156c-1.78,3.071 -3.154,6.548 -3.376,7.16c0,0 0.686,-0.952 1.975,-2.831m6.347,-12.615l0.121,0.001c0.793,0.103 1.185,0.491 1.175,1.168c-0.024,1.796 -1.439,5.013 -4.247,9.651c-0.932,1.477 -2.43,3.456 -4.495,5.938c-2.036,2.4 -3.057,3.758 -3.061,4.074c-0.178,0.485 -0.336,1.436 -0.472,2.852c0.025,0.108 0.315,-1.161 1.246,-2.056c0.931,-0.895 1.896,-1.64 2.852,-1.627c1.246,0.017 2.274,1.15 3.082,3.4c0.551,1.299 1.114,2.075 1.688,2.325c0.188,0.094 0.396,0.141 0.622,0.144l0.324,0.004c0.849,0.012 1.817,-0.512 2.905,-1.571c0.792,-1.055 1.938,-3.774 2.359,-4.897c0.353,-1.385 0.819,-2.074 1.396,-2.066c0.577,0.061 -0.248,0.469 -0.256,0.993c-0.272,1.239 -1.84,3.751 -2.315,5.067c-0.198,0.547 0.565,1.464 0.141,2.044c-1.255,1.41 -2.781,2.102 -4.577,2.077c-1.923,-0.026 -3.345,-1.376 -4.264,-4.051c-0.59,-1.136 -0.98,-1.706 -1.169,-1.709c-0.063,-0.037 -0.104,-0.055 -0.122,-0.056l-0.053,-0.001c-0.858,-0.011 -2.714,3.225 -3.042,5.629c-0.515,1.606 -0.276,3.151 -1.288,3.151c-1.575,0 -1.341,-3.331 -1.369,-3.972c0.046,-3.349 0.542,-6.963 1.487,-8.765c3.112,-7.125 5.425,-11.644 6.941,-13.555c1.159,-1.645 2.074,-2.784 2.741,-3.416c0.622,-0.523 1.171,-0.783 1.65,-0.776" style="fill:rgb(190,22,34);fill-rule:nonzero;"/>        </g>        <g transform="matrix(1,0,0,1,61.0062,135.189)">            <path d="M0,-11.444l0.095,0.001c0.568,0.126 0.974,0.59 0.698,1.211c-0.276,0.621 -2.631,6.256 -2.642,7.077c-0.005,0.388 0.276,0.585 0.845,0.593c1.706,0.023 5.718,-2.341 7.049,-3.51c1.332,-1.169 2.812,-3.648 3.411,-4.312c0.599,-0.665 1.034,-0.544 1.034,-0.544c0.532,0.081 0.795,0.359 0.788,0.837l-0.001,0.108c-0.005,0.299 -0.456,0.893 -1.352,1.783c-1.377,1.634 -2.829,4.499 -2.846,5.762c-0.006,0.388 0.276,0.585 0.844,0.593c1.706,0.023 5.549,-2.451 7.082,-3.939c1.533,-1.487 2.294,-2.117 3.101,-3.018l0.555,0.007c0.531,0.081 0.794,0.36 0.788,0.838l-0.712,0.143c-0.004,0.297 0.255,0.852 -0.641,1.734c-0.449,0.563 -1.049,1.096 -1.796,1.6c-3.363,2.997 -6.181,4.48 -8.455,4.449c-1.743,-0.024 -2.603,-0.852 -2.581,-2.485c0.006,-0.425 0.043,-0.754 0.109,-0.988c-2.373,1.863 -4.506,2.782 -6.401,2.756c-1.779,-0.023 -2.657,-0.852 -2.635,-2.485c0,-2.514 2.765,-7.71 2.925,-7.861c0.16,-0.152 0.342,-0.337 0.738,-0.35" style="fill:rgb(190,22,34);fill-rule:nonzero;"/>        </g>        <g transform="matrix(1,0,0,1,121.818,109.04)">            <path d="M0,16.581c0,0 0.927,-1.49 2.23,-3.693c1.293,-2.149 2.772,-5.356 4.437,-9.621c0.744,-2.328 1.12,-3.745 1.127,-4.251c-0.031,-0.316 -1.014,1.283 -2.672,4.392c-1.325,2.429 -2.788,5.857 -4.392,10.286c-0.302,0.889 -0.728,2.743 -0.73,2.887m-1.907,3.821c-0.11,-0.535 -0.181,-0.992 -0.212,-1.372c0.094,-6.021 5.044,-15.44 6.512,-17.866c1.09,-1.791 1.671,-2.685 1.744,-2.684c0.211,-0.259 0.482,-0.694 0.816,-1.303c0.595,-0.668 1.254,-0.998 1.976,-0.989l0.176,0.003c0.539,0.251 0.803,0.728 0.793,1.432l-0.001,0.055c-0.026,1.921 -1.259,5.705 -3.701,11.35c-0.951,2.226 -3.263,7.621 -6.184,10.614" style="fill:rgb(190,22,34);fill-rule:nonzero;"/>        </g>        <g transform="matrix(1,0,0,1,93.6428,131.247)">            <path d="M0,-19.897c-0.07,0.063 -0.156,0.147 -0.258,0.261c-1.508,1.688 -4.434,7.144 -3.856,13.232c0.065,0.693 0.176,1.36 0.324,1.988c0.893,-1.995 2.075,-4.843 2.569,-6.931c0.805,-3.404 1.248,-6.396 1.248,-8.427c-0.004,-0.029 -0.015,-0.074 -0.027,-0.123m-0.229,22.043c-0.318,0 -0.613,-0.042 -0.882,-0.107c-2.508,-0.618 -4.398,-3.864 -4.817,-8.271c-0.609,-6.447 2.32,-12.387 4.312,-14.616c0.776,-0.871 1.528,-1.195 2.233,-0.959c1.038,0.346 1.204,1.69 1.227,1.956c0.003,2.276 -0.444,5.335 -1.293,8.922c-0.709,2.999 -2.658,7.27 -3.466,8.97c0.614,1.204 1.398,2.023 2.239,2.229c1.269,0.31 2.774,-0.779 4.265,-3.068l1.167,1.522c-2.036,3.128 -3.565,3.422 -4.985,3.422" style="fill:rgb(190,22,34);fill-rule:nonzero;"/>        </g>        <g transform="matrix(1,0,0,1,81.4078,124.818)">            <path d="M0,8.913c-1.383,0 -2.427,-1.694 -2.406,-3.229c0.003,-0.207 0.056,-0.549 0.162,-1.026c1.33,-2.791 3.935,-4.127 6.231,-4.127c1.189,0 2.308,0.523 2.308,0.533c0.206,1.446 0.46,2.651 0.763,3.611c0,2.255 -3.916,4.238 -7.058,4.238m9.251,-4.113l0.001,-0.095c0.004,-0.262 0.069,-1.419 0.902,-2.971c0.478,-1.32 1.247,-2.267 1.621,-3.386l-1.451,0c-0.493,1.496 -1.331,2.59 -1.679,3.235c-0.16,0.476 -0.276,0.714 -0.348,0.713c-0.019,-0.001 -0.11,-0.99 -0.271,-2.97c0.032,-0.362 -0.357,-0.516 -0.333,-0.807l-1.169,-0.171c-0.012,0.196 -0.025,0.333 -0.032,0.528c0.013,0.16 -0.003,0.422 0.005,0.52c-0.595,-0.169 -1.559,-0.565 -3.15,-0.58c-5.293,0 -7.509,5.211 -7.568,6.843c0,0 0.283,4.906 5.202,4.906c3.373,0 5.73,-1.869 7.008,-3.575c0.198,-0.226 0.582,-0.71 0.553,-0.803c0.847,-0.933 0.912,-0.831 0.709,-1.387" style="fill:rgb(190,22,34);fill-rule:nonzero;"/>        </g>        <g transform="matrix(1,0,0,1,113.057,131.414)">            <path d="M0,-19.862c-0.07,0.063 -0.156,0.147 -0.258,0.261c-1.508,1.688 -4.434,7.144 -3.856,13.232c0.068,0.72 0.173,1.395 0.311,2.018c0.893,-1.996 2.086,-4.863 2.582,-6.961c0.805,-3.404 1.248,-6.396 1.248,-8.426c-0.004,-0.03 -0.015,-0.075 -0.027,-0.124m0.034,22.007c-0.524,0 -1.026,-0.082 -1.507,-0.247c-2.421,-0.824 -4.045,-3.775 -4.455,-8.095c-0.609,-6.447 2.32,-12.387 4.312,-14.617c0.777,-0.871 1.529,-1.193 2.233,-0.958c1.038,0.346 1.204,1.69 1.227,1.955c0.003,2.277 -0.444,5.335 -1.293,8.923c-0.717,3.035 -2.706,7.373 -3.495,9.03c0.546,1.054 1.247,1.763 2.059,2.039c1.965,0.67 4.824,-0.93 8.275,-4.625l1.33,1.243c-3.323,3.558 -6.237,5.351 -8.686,5.352" style="fill:rgb(190,22,34);fill-rule:nonzero;"/>        </g>        <g transform="matrix(1,0,0,1,100.806,124.947)">            <path d="M0,8.913c-1.384,0 -2.428,-1.694 -2.406,-3.229c0.002,-0.207 0.056,-0.549 0.162,-1.026c1.329,-2.791 3.935,-4.127 6.23,-4.127c1.19,0 2.309,0.523 2.309,0.533c0.206,1.446 0.46,2.651 0.763,3.611c0,2.255 -3.917,4.238 -7.058,4.238m9.251,-4.113l0.001,-0.095c0.004,-0.262 0.069,-1.42 0.902,-2.971c0.478,-1.32 1.247,-2.267 1.621,-3.386l-1.452,0c-0.493,1.496 -1.483,3.939 -2.027,3.948c-0.018,0 -0.109,-0.99 -0.271,-2.97c0.033,-0.362 -0.356,-0.516 -0.332,-0.807l-1.169,-0.171c-0.012,0.196 -0.025,0.333 -0.032,0.528c0.013,0.16 -0.003,0.422 0.004,0.52c-0.594,-0.169 -1.558,-0.565 -3.149,-0.581c-5.293,0 -7.509,5.212 -7.568,6.844c0,0 0.283,4.906 5.202,4.906c3.372,0 5.729,-1.869 7.008,-3.575c0.197,-0.226 0.582,-0.71 0.553,-0.803c0.847,-0.933 0.912,-0.831 0.709,-1.387" style="fill:rgb(190,22,34);fill-rule:nonzero;"/>        </g>        <g transform="matrix(1,0,0,1,119.985,131.373)">            <path d="M0,-4.385c-0.472,3.498 2.503,5.453 5.764,5.419c4.325,-0.044 7.902,-2.406 10.798,-5.042c0.944,-0.757 0.363,-1.257 -0.374,-0.666c-1.03,0.826 -2.038,1.676 -3.293,2.329c-0.153,0.08 -0.793,-0.152 -0.937,-0.068c-0.951,0.552 -1.659,0.886 -2.651,1.289c-2.852,1.155 -8.119,1.288 -7.49,-3.372c0.129,-0.957 -1.7,-0.754 -1.817,0.111" style="fill:rgb(190,22,34);fill-rule:nonzero;"/>        </g>        <g transform="matrix(0.486929,0.873441,0.873441,-0.486929,35.7337,124.585)">            <path d="M5.123,-3.659c0.673,-0.281 1.349,-0.554 2.028,-0.807c0.032,7.226 -1.983,13.729 -2.028,13.803l-1.557,-0.946c0.04,-0.064 1.506,-5.714 1.557,-12.05" style="fill:rgb(190,22,34);fill-rule:nonzero;"/>        </g>        <g transform="matrix(1,0,0,1,137.116,132.894)">            <path d="M0,-8.192c0,1.004 -3.851,4.266 -4.726,3.975c-0.001,-1.367 3.118,-3.905 4.726,-3.975m-0.348,7.752l-0.449,-0.006c-1.012,-0.013 -1.888,-0.229 -2.63,-0.645c-0.733,-0.434 -1.265,-1.23 -1.597,-2.387l0,-0.049c0.001,-0.043 0.026,-0.08 0.076,-0.112l0.792,0.788c2.026,-0.978 5.893,-3.764 6.016,-5.289c0.06,-0.751 -0.709,-1.406 -1.811,-1.406c-1.682,0 -4.643,1.897 -5.414,2.83c-0.77,0.934 -1.278,2.503 -1.208,3.271c0.07,0.768 1.454,3.065 2.333,3.637c0.879,0.572 1.696,0.675 3.336,0.879c2.58,0.283 5.858,-1.018 7.47,-1.859c0.565,-0.295 1.234,-0.774 1.876,-1.311c0.084,-0.75 0.154,-1.505 0.208,-2.264c-2.779,2.657 -5.778,3.967 -8.998,3.923" style="fill:rgb(190,22,34);fill-rule:nonzero;"/>        </g>    </g></svg>