<?xml version="1.0" encoding="UTF-8" standalone="no"?><!DOCTYPE svg PUBLIC "-//W3C//DTD SVG 1.1//EN" "http://www.w3.org/Graphics/SVG/1.1/DTD/svg11.dtd"><svg width="100%" height="100%" viewBox="0 0 1024 512" version="1.1" xmlns="http://www.w3.org/2000/svg" xmlns:xlink="http://www.w3.org/1999/xlink" xml:space="preserve" style="fill-rule:evenodd;clip-rule:evenodd;stroke-linejoin:round;stroke-miterlimit:2;"><title>RateSetter</title><desc>RateSetter offers people a new, simple and accessible way to put their money to work.We are making investing better by opening the asset class of loans to everyone, giving ordinary investors access to investment choices that were previously only available to professional investors.</desc>    <g transform="matrix(7.06803,0,0,7.07825,-83.3151,-17.0152)">        <g transform="matrix(0.174359,0,0,0.174118,11.8962,28.2664)">            <circle cx="121.88" cy="81.59" r="6.22" style="fill:rgb(82,0,107);"/>        </g>        <g transform="matrix(0.174359,0,0,0.174118,11.8962,28.2664)">            <path d="M77,39.14c1.168,-1.166 1.825,-2.751 1.825,-4.401c0,-3.413 -2.808,-6.22 -6.22,-6.22c-3.412,0 -6.22,2.807 -6.22,6.22c0,1.65 0.657,3.235 1.825,4.401c1.164,1.167 2.747,1.823 4.395,1.823c1.648,0 3.231,-0.656 4.395,-1.823Z" style="fill:rgb(82,0,107);fill-rule:nonzero;"/>        </g>        <g transform="matrix(0.174359,0,0,0.174118,11.8962,28.2664)">            <path d="M127.44,17.65l10.84,-17.65l-77.52,0l-59.76,99.21l65,0l-10.32,17.65l77.64,0l59.68,-99.21l-65.56,0Zm-71.58,15.57c0.788,-8.587 8.077,-15.237 16.7,-15.237c9.2,0 16.77,7.57 16.77,16.77c0,9.199 -7.57,16.77 -16.77,16.77c-0.521,0 -1.041,-0.025 -1.56,-0.073c-9.15,-0.855 -15.98,-9.079 -15.14,-18.23Zm10.14,65.99l48.91,-81.56l12.58,0l-48.97,81.56l-12.52,0Zm54.41,-0.92c-8.588,-0.786 -15.241,-8.076 -15.241,-16.7c0,-9.2 7.57,-16.77 16.77,-16.77c9.2,0 16.77,7.57 16.77,16.77c0,0.507 -0.023,1.015 -0.069,1.52c-0.78,8.594 -8.072,15.254 -16.701,15.254c-0.527,0 -1.054,-0.024 -1.579,-0.074l0.05,0Zm120.2,-17.65l-16.43,0l0,36.36l-20.62,0l0,-99.35l37.19,0c11.82,0 20.94,2.617 27.36,7.85c6.42,5.233 9.627,12.627 9.62,22.18c0,6.78 -1.477,12.43 -4.43,16.95c-2.953,4.52 -7.433,8.127 -13.44,10.82l21.65,40.6l0,1l-22.13,0l-18.77,-36.41Zm-16.43,-16.59l16.64,0c5.18,0 9.18,-1.307 12,-3.92c2.82,-2.613 4.24,-6.22 4.26,-10.82c0,-4.667 -1.333,-8.35 -4,-11.05c-2.667,-2.7 -6.78,-4.033 -12.34,-4l-16.56,0l0,29.79Zm102.23,52.95c-1.012,-2.069 -1.688,-4.287 -2,-6.57c-4.74,5.28 -10.903,7.92 -18.49,7.92c-7.18,0 -13.127,-2.077 -17.84,-6.23c-4.605,-3.895 -7.209,-9.67 -7.08,-15.7c0,-7.767 2.877,-13.727 8.63,-17.88c5.753,-4.153 14.087,-6.253 25,-6.3l9,0l0,-4.24c0.133,-2.926 -0.802,-5.802 -2.63,-8.09c-1.74,-2 -4.483,-3 -8.23,-3c-3.29,0 -5.88,0.79 -7.75,2.37c-1.895,1.61 -2.935,4.016 -2.81,6.5l-19.56,0c0.004,-4.247 1.383,-8.381 3.93,-11.78c2.857,-3.795 6.7,-6.735 11.11,-8.5c5.107,-2.114 10.593,-3.162 16.12,-3.08c9.027,0 16.193,2.27 21.5,6.81c5.307,4.54 7.973,10.917 8,19.13l0,31.77c0.04,6.947 1.01,12.207 2.91,15.78l0,1.09l-19.81,0Zm-16.19,-13.62c2.785,0.029 5.534,-0.634 8,-1.93c2.29,-1.136 4.181,-2.943 5.42,-5.18l0,-12.58l-7.32,0c-9.793,0 -15.007,3.383 -15.64,10.15l-0.08,1.16c-0.056,2.279 0.887,4.473 2.58,6c1.952,1.671 4.474,2.528 7.04,2.39l0,-0.01Zm121.68,14.98c-10.747,0 -19.493,-3.297 -26.24,-9.89c-6.747,-6.593 -10.123,-15.373 -10.13,-26.34l0,-1.9c-0.12,-6.821 1.342,-13.578 4.27,-19.74c2.624,-5.561 6.83,-10.226 12.09,-13.41c5.396,-3.189 11.573,-4.82 17.84,-4.71c10,0 17.89,3.16 23.67,9.48c5.78,6.32 8.647,15.283 8.6,26.89l0,8l-46.63,0c0.444,4.408 2.482,8.507 5.73,11.52c3.324,2.941 7.655,4.492 12.09,4.33c7.54,0 13.43,-2.73 17.67,-8.19l9.62,10.77c-3.039,4.239 -7.154,7.591 -11.92,9.71c-5.229,2.372 -10.918,3.561 -16.66,3.48Zm-0.23,-60.21c-3.582,-0.118 -7.041,1.346 -9.45,4c-2.42,2.633 -3.967,6.397 -4.64,11.29l27.22,0l0,-1.61c-0.09,-4.36 -1.26,-7.72 -3.52,-10.11c-2.26,-2.39 -5.46,-3.57 -9.61,-3.57Zm90.9,32.99c0.187,-3.435 -1.339,-6.749 -4.07,-8.84c-2.713,-2.06 -7.59,-4.227 -14.63,-6.5c-5.761,-1.758 -11.359,-4.014 -16.73,-6.74c-11.187,-6.04 -16.783,-14.19 -16.79,-24.45c-0.068,-5.112 1.51,-10.113 4.5,-14.26c3.311,-4.41 7.796,-7.803 12.94,-9.79c6.011,-2.432 12.446,-3.642 18.93,-3.56c6.481,-0.114 12.909,1.193 18.83,3.83c5.216,2.307 9.667,6.054 12.83,10.8c3.091,4.716 4.7,10.252 4.62,15.89l-20.37,0c0,-4.51 -1.42,-8 -4.26,-10.53c-2.84,-2.53 -6.84,-3.76 -12,-3.76c-4.967,0 -8.827,1.05 -11.58,3.15c-2.663,1.911 -4.212,5.023 -4.13,8.3c0,3.2 1.613,5.867 4.84,8c3.227,2.133 7.98,4.167 14.26,6.1c11.56,3.513 19.973,7.843 25.24,12.99c5.252,4.996 8.159,11.983 8,19.23c0,8.533 -3.227,15.227 -9.68,20.08c-6.453,4.853 -15.147,7.28 -26.08,7.28c-7.123,0.092 -14.185,-1.326 -20.72,-4.16c-5.739,-2.378 -10.686,-6.339 -14.26,-11.42c-3.327,-4.955 -5.058,-10.812 -4.96,-16.78l20.39,0c0,10.88 6.5,16.32 19.5,16.32c4.827,0 8.597,-1 11.31,-3c2.652,-1.859 4.186,-4.943 4.07,-8.18Zm62.57,27.22c-10.747,0 -19.493,-3.297 -26.24,-9.89c-6.747,-6.593 -10.123,-15.373 -10.13,-26.34l0,-1.9c-0.132,-6.818 1.316,-13.575 4.23,-19.74c2.624,-5.561 6.83,-10.226 12.09,-13.41c5.416,-3.202 11.619,-4.833 17.91,-4.71c10,0 17.89,3.16 23.67,9.48c5.78,6.32 8.66,15.283 8.64,26.89l0,8l-46.69,0c0.44,4.407 2.475,8.506 5.72,11.52c3.324,2.941 7.655,4.492 12.09,4.33c7.54,0 13.43,-2.73 17.67,-8.19l9.62,10.77c-3.039,4.239 -7.154,7.591 -11.92,9.71c-5.229,2.372 -10.918,3.561 -16.66,3.48Zm-2.23,-60.21c-3.582,-0.118 -7.041,1.346 -9.45,4c-2.42,2.633 -3.967,6.397 -4.64,11.29l27.23,0l0,-1.61c-0.1,-4.36 -1.27,-7.72 -3.53,-10.11c-2.26,-2.39 -5.46,-3.57 -9.61,-3.57Zm166.82,60.14c-10.74,0 -19.477,-3.333 -26.21,-10c-6.733,-6.667 -10.083,-15.43 -10.05,-26.29l0,-1.9c-0.1,-6.822 1.383,-13.576 4.33,-19.73c2.643,-5.55 6.862,-10.201 12.13,-13.37c5.41,-3.167 11.592,-4.776 17.86,-4.65c10,0 17.883,3.183 23.65,9.55c5.767,6.367 8.62,15.32 8.56,26.86l0,8l-46.67,-0.14c0.429,4.403 2.445,8.502 5.67,11.53c3.317,2.949 7.644,4.515 12.08,4.37c7.54,0 13.44,-2.717 17.7,-8.15l9.58,10.8c-3.048,4.231 -7.17,7.573 -11.94,9.68c-5.243,2.359 -10.942,3.534 -16.69,3.44Zm-2.05,-60.21c-3.573,-0.138 -7.032,1.295 -9.46,3.92c-2.42,2.633 -3.977,6.393 -4.67,11.28l27.22,0.08l0,-1.57c-0.08,-4.353 -1.243,-7.723 -3.49,-10.11c-2.247,-2.387 -5.447,-3.587 -9.6,-3.6Zm80.65,4.18c-2.335,-0.346 -4.69,-0.533 -7.05,-0.56c-7.4,0 -12.26,2.49 -14.58,7.47l-0.14,48l-19.56,-0.11l0.22,-73.28l18.49,0.06l0.52,8.73c3.947,-6.713 9.397,-10.047 16.35,-10c2.064,-0.006 4.116,0.298 6.09,0.9l-0.34,18.79Z" style="fill:rgb(82,0,107);fill-rule:nonzero;"/>        </g>        <g transform="matrix(0.174359,0,0,0.174118,11.8962,28.2664)">            <path d="M381.24,100.48c-1,-1.17 -1.55,-3.11 -1.55,-5.82l0,-36.57l9.68,0l8.63,-14.36l-18.31,0l0,-18l-19.58,0l0,18l-5.11,0l-8.59,14.27l0,0.05l13.7,0l0,39.52c0.267,13.86 7.267,20.79 21,20.79c4.029,0.009 8.036,-0.584 11.89,-1.76l0,-14.83c-1.901,0.336 -3.83,0.494 -5.76,0.47c-2.97,0 -4.96,-0.58 -6,-1.76Zm318.29,0c-1.02,-1.167 -1.53,-3.107 -1.53,-5.82l0,-36.57l9.68,0l8.65,-14.36l-18.33,0l0,-18l-19.61,0l0,18l-5.09,0l-8.61,14.27l0,0.05l13.7,0l0,39.52c0.28,13.86 7.28,20.79 21,20.79c4.015,0.005 8.009,-0.588 11.85,-1.76l0,-14.83c-1.898,0.336 -3.823,0.493 -5.75,0.47c-2.94,0 -4.93,-0.58 -5.96,-1.76Z" style="fill:rgb(82,0,107);fill-rule:nonzero;"/>        </g>        <g transform="matrix(0.174359,0,0,0.174118,11.8962,28.2664)">            <path d="M651.52,100.48c-1.013,-1.167 -1.52,-3.107 -1.52,-5.82l0,-36.57l9.68,0l8.65,-14.36l-18.33,0l0,-18l-19.61,0l0,18l-5.1,0l-8.6,14.27l0,0.05l13.7,0l0,39.52c0.267,13.86 7.267,20.79 21,20.79c4.015,0.006 8.009,-0.588 11.85,-1.76l0,-14.83c-1.898,0.336 -3.823,0.493 -5.75,0.47c-2.95,0 -4.94,-0.58 -5.97,-1.76Z" style="fill:rgb(82,0,107);fill-rule:nonzero;"/>        </g>    </g></svg>