<?xml version="1.0" encoding="UTF-8" standalone="no"?><!DOCTYPE svg PUBLIC "-//W3C//DTD SVG 1.1//EN" "http://www.w3.org/Graphics/SVG/1.1/DTD/svg11.dtd"><svg width="100%" height="100%" viewBox="0 0 1024 512" version="1.1" xmlns="http://www.w3.org/2000/svg" xmlns:xlink="http://www.w3.org/1999/xlink" xml:space="preserve" style="fill-rule:evenodd;clip-rule:evenodd;stroke-linejoin:round;stroke-miterlimit:2;"><title>Blackfinch</title><desc>Our businesses cover tax-efficient solutions, early-stage investing, managed portfolio services and property financing. We are entrusted with £300 million in assets under management and administration.Our focus is always on delivering value through expertise and a high-quality service with a transparent approach.We work to help people thrive.</desc>    <g transform="matrix(1.8403,0,0,1.8403,2,-73.94)">        <g transform="matrix(4.16667,0,0,4.16667,554.258,207.377)">            <path d="M0,13.259l0,-13.26l-2.994,0l0,5.247l-5.518,0l0,-5.247l-2.993,0l0,13.26l2.993,0l0,-5.323l5.518,0l0,5.323l2.994,0Zm-20.247,0.228c-4.003,0 -6.977,-3.013 -6.977,-6.821l0,-0.037c0,-3.77 2.916,-6.857 7.093,-6.857c2.565,0 4.101,0.834 5.363,2.046l-1.904,2.14c-1.049,-0.927 -2.118,-1.496 -3.478,-1.496c-2.293,0 -3.945,1.856 -3.945,4.128l0,0.039c0,2.273 1.614,4.168 3.945,4.168c1.555,0 2.507,-0.606 3.576,-1.554l1.904,1.875c-1.399,1.459 -2.955,2.369 -5.577,2.369m-9.638,-0.228l0,-13.26l-2.953,0l0,8.165l-6.373,-8.165l-2.76,0l0,13.26l2.954,0l0,-8.43l6.586,8.43l2.546,0Zm-18.478,-13.26l2.993,0l0,13.26l-2.993,0l0,-13.26Zm-2.914,2.652l0,-2.652l-10.358,0l0,13.26l2.994,0l0,-5.133l6.489,0l0,-2.653l-6.489,0l0,-2.822l7.364,0Zm-16.535,10.608l-4.218,-5.645l-1.574,1.591l0,4.054l-2.992,0l0,-13.26l2.992,0l0,5.797l5.52,-5.797l3.614,0l-5.539,5.626l5.791,7.634l-3.594,0Zm-11.949,-2.141l-1.906,-1.875c-1.067,0.948 -2.02,1.554 -3.575,1.554c-2.332,0 -3.945,-1.895 -3.945,-4.168l0,-0.039c0,-2.272 1.652,-4.128 3.945,-4.128c1.36,0 2.43,0.569 3.478,1.496l1.905,-2.14c-1.264,-1.212 -2.798,-2.046 -5.363,-2.046c-4.179,0 -7.093,3.087 -7.093,6.857l0,0.037c0,3.808 2.972,6.821 6.975,6.821c2.624,0 4.18,-0.91 5.579,-2.369m-20.423,-7.71l-1.807,4.301l3.614,0l-1.807,-4.301Zm4.12,9.851l-1.244,-2.974l-5.753,0l-1.243,2.974l-3.05,0l5.83,-13.355l2.758,0l5.83,13.355l-3.128,0Zm-13.154,0l0,-2.653l-6.783,0l0,-10.607l-2.992,0l0,13.26l9.775,0Zm-15.215,-4.034c0,-0.891 -0.679,-1.44 -2.216,-1.44l-3.457,0l0,2.917l3.555,0c1.322,0 2.118,-0.455 2.118,-1.439l0,-0.038Zm-0.757,-5.304c0,-0.873 -0.7,-1.364 -1.963,-1.364l-2.953,0l0,2.803l2.759,0c1.321,0 2.157,-0.417 2.157,-1.402l0,-0.037Zm-1.361,9.338l-6.471,0l0,-13.26l6.316,0c2.779,0 4.487,1.346 4.487,3.428l0,0.039c0,1.497 -0.815,2.33 -1.786,2.86c1.574,0.588 2.545,1.477 2.545,3.259l0,0.037c0,2.424 -2.021,3.637 -5.091,3.637" style="fill:rgb(12,12,12);fill-rule:nonzero;"/>        </g>        <g transform="matrix(-4.16667,0,0,4.16667,230.21,174.589)">            <path d="M-8.119,-4.497l3.128,0l4.991,4.497l-3.132,0l-4.987,-4.497Z" style="fill:rgb(12,12,12);fill-rule:nonzero;"/>        </g>        <g transform="matrix(4.16667,0,0,4.16667,324.049,170.185)">            <path d="M0,-17.486l-2.695,-0.507c-0.594,-0.116 -1.31,-0.031 -1.981,0.204c-1.072,0.375 -1.897,1.307 -2.172,2.325l0,0.001l-0.004,0.013c-0.009,0.041 -0.02,0.085 -0.03,0.126l-0.727,2.274l-10.195,9.176l4.65,0l-4.999,4.497l3.133,0l4.994,-4.497c4.406,0 6.873,-1.592 7.806,-4.3c1.16,-3.367 -0.815,-6.566 0.503,-7.762c1.328,-1.206 1.717,-1.55 1.717,-1.55m-2.826,0.917c-0.258,0.096 -0.544,-0.035 -0.642,-0.29c-0.097,-0.255 0.036,-0.538 0.292,-0.631c0.259,-0.095 0.545,0.035 0.642,0.29c0.096,0.255 -0.034,0.538 -0.292,0.631" style="fill:rgb(12,12,12);fill-rule:nonzero;"/>        </g>    </g></svg>