<?xml version="1.0" encoding="UTF-8" standalone="no"?><!DOCTYPE svg PUBLIC "-//W3C//DTD SVG 1.1//EN" "http://www.w3.org/Graphics/SVG/1.1/DTD/svg11.dtd"><svg width="100%" height="100%" viewBox="0 0 1024 512" version="1.1" xmlns="http://www.w3.org/2000/svg" xmlns:xlink="http://www.w3.org/1999/xlink" xml:space="preserve" style="fill-rule:evenodd;clip-rule:evenodd;stroke-linejoin:round;stroke-miterlimit:2;"><title>UKPA</title><desc></desc>    <g id="Group" transform="matrix(5.18622,0,0,5.18622,-31.7098,122.194)">        <path id="Solid-S1" d="M74.175,18.475l0,-7.5l2.9,0l0,7.5c0,2.2 1.1,3.3 2.9,3.3c1.8,0 2.9,-1.1 2.9,-3.2l0,-7.6l2.9,0l0,7.5c0,4 -2.3,6 -5.8,6c-3.5,0 -5.8,-2 -5.8,-6Zm16.399,-7.5l2.9,0l0,5.8l5.4,-5.8l3.5,0l-5.4,5.6l5.7,7.7l-3.5,0l-4.1,-5.7l-1.5,1.5l0,4.1l-2.9,0l0,-13.2l-0.1,0Zm-11.8,24.7l-1.1,-2.5l-1.1,2.5l2.2,0Zm-1.6,-3.8l1,0l2.8,6.3l-1.1,0l-0.6,-1.5l-3,0l-0.7,1.5l-1.1,0l2.7,-6.3Zm11.001,5.4l0.7,-0.8c0.5,0.5 1.3,0.8 2,0.8c0.7,0 1.1,-0.3 1.1,-0.8c0,-0.5 -0.2,-0.7 -1.4,-1c-1.3,-0.3 -2.1,-0.7 -2.1,-1.9c0,-1.1 0.9,-1.9 2,-1.8l0.1,0c0.8,0 1.6,0.3 2.3,0.8l-0.6,0.801c-0.5,-0.401 -1.1,-0.601 -1.8,-0.601c-0.7,0 -1,0.3 -1,0.7c0,0.5 0.3,0.7 1.5,1c1.2,0.3 2,0.8 2,1.8c0,1.2 -0.9,1.9 -2.3,1.9c-0.9,0.1 -1.8,-0.299 -2.5,-0.9Zm12.099,0l0.7,-0.8c0.5,0.5 1.3,0.8 2,0.8c0.7,0 1.1,-0.3 1.1,-0.8c0,-0.5 -0.2,-0.7 -1.4,-1c-1.3,-0.3 -2.1,-0.7 -2.1,-1.9c0.1,-1.1 1,-1.9 2,-1.8l0.1,0c0.8,0 1.6,0.3 2.3,0.8l-0.6,0.801c-0.5,-0.401 -1.1,-0.601 -1.7,-0.701c-0.7,0 -1,0.3 -1,0.701c0,0.5 0.3,0.699 1.5,1c1.2,0.299 2,0.799 2,1.799c0,1.201 -0.9,1.9 -2.2,1.9c-1,0.2 -1.9,-0.199 -2.7,-0.8Zm17.8,-2.2c0,-1.199 -0.899,-2.199 -2.1,-2.199l-0.099,0c-1.2,0 -2.101,1 -2.101,2.099l0,0.1c0,1.2 0.901,2.2 2.101,2.2l0.099,0c1.1,0 2.1,-1 2.1,-2.2Zm-5.5,0c0.101,-1.8 1.7,-3.199 3.5,-3.1c1.7,0.1 3,1.401 3.101,3.1c-0.101,1.801 -1.701,3.2 -3.5,3.101c-1.601,-0.101 -3,-1.401 -3.101,-3.101Zm14.101,0c0,-1.8 1.399,-3.199 3.1,-3.3l0.1,0c0.9,0 1.8,0.3 2.5,1l-0.7,0.8c-0.5,-0.5 -1.101,-0.8 -1.8,-0.8c-1.2,0 -2.1,1 -2.1,2.101l0,0.099c-0.1,1.201 0.799,2.201 2,2.201l0.1,0c0.699,0 1.3,-0.3 1.8,-0.8l0.7,0.699c-0.6,0.7 -1.6,1.101 -2.6,1.101c-1.8,0 -3.201,-1.401 -3.201,-3.101c0.101,0.101 0.101,0 0.101,0Zm13.399,3.1l0,-6.3l1.101,0l0,6.3l-1.101,0Zm13,-2.5l-1.1,-2.5l-1.099,2.5l2.199,0Zm-1.6,-3.8l1,0l2.8,6.3l-1.2,0l-0.6,-1.5l-3,0l-0.599,1.5l-1.101,0l2.7,-6.3Zm12.1,1l-2,0l0,-1l5.101,0l0,1l-2,0l0,5.3l-1.101,0l0,-5.3Zm10.7,5.3l0,-6.3l1.101,0l0,6.3l-1.101,0Zm14.401,-3.1c0.1,-1.199 -0.9,-2.199 -2,-2.3l-0.101,0c-1.199,0 -2.099,1 -2.099,2.101l0,0.099c-0.1,1.201 0.9,2.201 2.099,2.3l0.101,0c1.2,0 2.1,-0.899 2.2,-2.099c-0.2,0 -0.2,-0.101 -0.2,-0.101Zm-5.5,0c0.1,-1.8 1.7,-3.199 3.5,-3.1c1.7,0.1 3,1.401 3.1,3.1c-0.1,1.801 -1.701,3.2 -3.5,3.101c-1.6,-0.101 -3,-1.401 -3.1,-3.101Zm14.399,-3.2l1,0l3.4,4.3l0,-4.3l1.1,0l0,6.3l-0.899,0l-3.5,-4.5l0,4.5l-1.101,0l0,-6.3Z" style="fill:rgb(44,62,80);"/>        <path id="Solid-P1" d="M111.274,17.675c1.101,0.1 2.2,-0.7 2.3,-1.8l0,-0.2c0,-1.3 -0.9,-2 -2.4,-2l-2.299,0l0,4.1l2.399,-0.1Zm-5.3,-6.7l5.5,0c3.2,0 5.1,1.9 5.1,4.6c0,3.1 -2.4,4.7 -5.4,4.7l-2.2,0l0,4l-2.9,0l-0.1,-13.3Zm13.901,3.1l2.899,0l0,2.1c0.401,-1.4 1.8,-2.4 3.201,-2.2l0,3l-0.1,0c-1.9,0 -3.101,1.2 -3.101,3.6l0,3.8l-2.899,0l0,-10.3Zm17,5.1c0.1,-1.5 -1.101,-2.8 -2.601,-2.8l-0.099,0c-1.401,0 -2.601,1.1 -2.601,2.6l0,0.2c-0.099,1.5 1.101,2.8 2.601,2.8l0.099,0c1.401,0 2.601,-1.1 2.701,-2.6c-0.1,-0.1 -0.1,-0.1 -0.1,-0.2Zm-8.2,0c0.2,-3 2.8,-5.4 5.8,-5.2c2.799,0.2 5,2.4 5.2,5.2c-0.2,3 -2.8,5.4 -5.8,5.2c-2.801,-0.2 -5,-2.4 -5.2,-5.2Zm22.5,0c0,-1.4 -1.101,-2.5 -2.5,-2.5c-1.4,0 -2.5,1.1 -2.5,2.5c0,1.4 1.1,2.5 2.5,2.5c1.399,0 2.5,-1.1 2.5,-2.5Zm-7.8,-5.1l2.9,0l0,1.5c0.7,-1.1 1.9,-1.7 3.2,-1.7c2.4,0 4.599,1.9 4.599,5.3c0,3.4 -2.199,5.3 -4.599,5.3c-1.2,0 -2.401,-0.5 -3.2,-1.5l0,4.4l-2.9,0l0,-13.3Zm16.199,-0.5l-4.1,0l0,-2.6l11,0l0,2.7l-4,0l0,10.6l-2.9,0l0,-10.7Zm15.5,4.8c0,-1.2 -1,-2.1 -2.1,-2.2c-1.2,0 -2.2,1 -2.2,2.2l4.3,0Zm-7.199,0.8c-0.101,-2.8 2,-5.2 4.8,-5.3l0.2,0c3.399,0 5,2.6 5,5.5l0,0.8l-7.101,0c0.2,1.2 1.3,2.1 2.5,2c0.901,0 1.8,-0.4 2.5,-1l1.601,1.5c-1.901,2.3 -5.301,2.5 -7.601,0.6c-1.099,-1.1 -1.8,-2.5 -1.899,-4.1Zm13.199,0c0,-2.9 2.301,-5.3 5.2,-5.3l0.2,0c1.6,-0.1 3.1,0.5 4.1,1.7l-1.8,1.9c-0.599,-0.7 -1.399,-1.1 -2.3,-1.1c-1.4,0.1 -2.5,1.3 -2.5,2.7l0,0.1c-0.099,1.4 0.901,2.7 2.401,2.8l0.199,0c0.9,0 1.7,-0.4 2.301,-1.1l1.699,1.7c-1,1.2 -2.6,1.9 -4.199,1.9c-2.901,0.1 -5.2,-2.2 -5.301,-5.1c-0.1,-0.1 -0.1,-0.1 0,-0.2Zm12.7,-8.8l3,0l0,5.1c0.701,-1 1.8,-1.6 3,-1.6c2.201,0 3.401,1.5 3.401,3.8l0,6.6l-2.901,0l0,-5.7c0,-1.4 -0.599,-2.1 -1.799,-2.1c-1.201,0 -1.8,0.7 -1.8,2.1l0,5.7l-2.901,0l0,-13.9Zm-182.4,20.8l7,4.7c0.1,0 0.1,0.1 0.2,0.199c0.2,0.301 0.1,0.601 -0.2,0.801l-1.5,1c-0.2,0.1 -0.4,0.1 -0.6,0l-9.4,-6.301c-0.1,0 -0.1,-0.099 -0.2,-0.199c-0.3,-0.4 -0.2,-0.9 0.2,-1.2l15.2,-10l0,3.4l-10.7,7.1c-0.1,0 -0.1,0.1 -0.1,0.1c-0.1,0.1 0,0.299 0.1,0.4Z" style="fill:rgb(231,76,60);"/>        <path id="Gradient" d="M58.874,30.175l-15.1,-10l0,-9.6c0,-0.2 -0.1,-0.4 -0.2,-0.5l-10.5,-7c-0.1,-0.1 -0.2,-0.1 -0.3,0l-10.4,7c-0.1,0.1 -0.2,0.3 -0.1,0.4l0.1,0.1l7,4.7l2.6,1.7l0.8,0.6l0.1,0.1l0,19.8c0,0.3 0.2,0.599 0.6,0.599c0.1,0 0.2,0 0.3,-0.099l9.8,-6.5c0.2,-0.1 0.3,-0.3 0.2,-0.5l0,-7.3l10.7,7c0.1,0.1 0.2,0.3 0.1,0.399c0,0 0,0.101 -0.1,0.101l-21.6,14.3l-2.6,1.7l1.8,1.2c0.5,0.3 1.1,0.3 1.6,0l25.2,-16.801c0.4,-0.299 0.5,-0.799 0.2,-1.199c0,0 -0.1,-0.1 -0.2,-0.2" style="fill:url(#_Linear1);"/>    </g>    <defs>        <linearGradient id="_Linear1" x1="0" y1="0" x2="1" y2="0" gradientUnits="userSpaceOnUse" gradientTransform="matrix(-4.14063,15.7949,-15.7949,-4.14063,40.7408,29.3008)"><stop offset="0" style="stop-color:rgb(231,76,60);stop-opacity:1"/><stop offset="1" style="stop-color:rgb(231,76,60);stop-opacity:0"/></linearGradient>    </defs></svg>