<?xml version="1.0" encoding="UTF-8" standalone="no"?><!DOCTYPE svg PUBLIC "-//W3C//DTD SVG 1.1//EN" "http://www.w3.org/Graphics/SVG/1.1/DTD/svg11.dtd"><svg width="100%" height="100%" viewBox="0 0 1024 512" version="1.1" xmlns="http://www.w3.org/2000/svg" xmlns:xlink="http://www.w3.org/1999/xlink" xml:space="preserve" style="fill-rule:evenodd;clip-rule:evenodd;stroke-linejoin:round;stroke-miterlimit:2;"><title>Crowdify</title><desc>On the platform crowdify.net Initiators (musicians, artists, designers... you!) present their projects and leave them there for 100 days to be funded by Boosters.</desc>    <g transform="matrix(1.06505,0,0,1.06505,-41.8235,7.31584)">        <g transform="matrix(205.593,0,0,205.593,30.3052,290.742)">            <path d="M0.743,-0.671l-0.068,0.116c-0.039,-0.081 -0.161,-0.116 -0.232,-0.116c-0.077,0 -0.142,0.028 -0.195,0.084c-0.054,0.055 -0.076,0.132 -0.076,0.212c0,0.08 0.027,0.141 0.08,0.196c0.054,0.054 0.114,0.081 0.192,0.081c0.04,0 0.074,-0.006 0.102,-0.019c0.016,-0.007 0.032,-0.011 0.048,-0.022c0.017,-0.011 0.015,-0.005 0.034,-0.02l0,0.137c-0.065,0.037 -0.114,0.036 -0.186,0.036c-0.107,0 -0.199,-0.038 -0.275,-0.113c-0.076,-0.076 -0.114,-0.167 -0.114,-0.275c0,-0.096 0.031,-0.191 0.095,-0.266c0.078,-0.092 0.179,-0.138 0.303,-0.138c0.068,0 0.199,0.011 0.292,0.107Z" style="fill:rgb(244,57,82);fill-rule:nonzero;"/>        </g>        <g transform="matrix(234.337,0,0,244.567,176.986,294.349)">            <path d="M0.069,-0.476l0.11,0l0,0.043c0.02,-0.021 0.038,-0.032 0.054,-0.039c0.016,-0.009 0.039,-0.021 0.061,-0.021c0.029,0 0.051,-0.007 0.082,0.012l0,0.099c-0.021,-0.015 -0.079,-0.002 -0.098,0c-0.065,0.004 -0.099,0.074 -0.099,0.135l0,0.247l-0.11,0l0,-0.476Z" style="fill:rgb(244,57,82);fill-rule:nonzero;"/>        </g>        <g transform="matrix(245.732,0,0,245.732,258.039,297.242)">            <path d="M0.047,-0.25c0,-0.068 0.024,-0.135 0.074,-0.184c0.049,-0.048 0.109,-0.072 0.179,-0.072c0.071,0 0.131,0.024 0.181,0.073c0.049,0.048 0.073,0.117 0.073,0.187c0,0.071 -0.024,0.135 -0.074,0.184c-0.049,0.047 -0.11,0.071 -0.182,0.071c-0.071,0 -0.131,-0.024 -0.179,-0.073c-0.048,-0.048 -0.072,-0.113 -0.072,-0.186Zm0.112,0.002c0,0.048 0.013,0.09 0.038,0.117c0.026,0.028 0.061,0.042 0.103,0.042c0.043,0 0.078,-0.014 0.103,-0.041c0.026,-0.028 0.039,-0.069 0.039,-0.115c0,-0.047 -0.013,-0.092 -0.039,-0.12c-0.026,-0.028 -0.06,-0.042 -0.103,-0.042c-0.042,0 -0.076,0.014 -0.102,0.042c-0.026,0.028 -0.039,0.073 -0.039,0.117Z" style="fill:rgb(244,57,82);fill-rule:nonzero;"/>        </g>        <g transform="matrix(255.052,0,0,234.337,395.854,294.349)">            <path d="M0.129,-0.501l0.109,0.34l0.114,-0.341l0.076,0.001l0.126,0.34l0.108,-0.34l0.123,0l-0.177,0.515l-0.09,0l-0.13,-0.285l-0.117,0.285l-0.086,0l-0.18,-0.515l0.124,0Z" style="fill:rgb(244,57,82);fill-rule:nonzero;"/>        </g>        <g transform="matrix(234.337,0,0,234.337,588.325,294.349)">            <path d="M0.42,-0.705l0.127,0l0,0.705l-0.127,0l0,-0.05c-0.043,0.043 -0.109,0.064 -0.164,0.064c-0.065,0 -0.119,-0.024 -0.162,-0.072c-0.043,-0.048 -0.064,-0.109 -0.064,-0.181c0,-0.071 0.021,-0.152 0.064,-0.199c0.042,-0.048 0.095,-0.072 0.159,-0.072c0.056,0 0.123,0.023 0.167,0.068l0,-0.263Zm-0.278,0.466c0,0.045 0.012,0.082 0.037,0.111c0.025,0.029 0.056,0.044 0.094,0.044c0.041,0 0.074,-0.014 0.099,-0.042c0.025,-0.029 0.046,-0.07 0.046,-0.115c0,-0.045 -0.021,-0.099 -0.046,-0.128c-0.025,-0.028 -0.058,-0.042 -0.098,-0.042c-0.037,0 -0.069,0.014 -0.094,0.043c-0.025,0.029 -0.038,0.086 -0.038,0.129Z" style="fill:rgb(244,57,82);fill-rule:nonzero;"/>        </g>        <g transform="matrix(234.337,0,0,255.75,730.835,294.349)">            <rect x="0.069" y="-0.476" width="0.11" height="0.476" style="fill:rgb(244,57,82);"/>        </g>        <g transform="matrix(234.337,0,0,234.337,730.835,298.349)">            <path d="M0.053,-0.673c0,-0.02 0.007,-0.036 0.021,-0.05c0.014,-0.014 0.03,-0.021 0.05,-0.021c0.02,0 0.037,0.007 0.051,0.021c0.014,0.014 0.021,0.03 0.021,0.05c0,0.02 -0.007,0.037 -0.021,0.051c-0.014,0.014 -0.031,0.021 -0.05,0.021c-0.02,0 -0.037,-0.007 -0.051,-0.021c-0.014,-0.014 -0.021,-0.031 -0.021,-0.051Z" style="fill:rgb(244,57,82);"/>        </g>        <g transform="matrix(234.337,0,0,234.337,795.191,294.349)">            <path d="M0.183,-0.407l0,0.407l-0.11,0l0,-0.407l-0.095,0l0,-0.103l0.095,0l0,-0.042c0,-0.06 0.01,-0.103 0.031,-0.127c0.029,-0.035 0.07,-0.052 0.125,-0.052c0.02,0 0.078,0.005 0.108,0.017l0,0.112l-0.011,-0.006c-0.024,-0.012 -0.078,-0.009 -0.093,-0.009c-0.02,0 -0.033,0.011 -0.04,0.025c-0.006,0.014 -0.01,0.027 -0.01,0.066l0,0.016l0.081,0l0.047,0.103l-0.128,0Z" style="fill:rgb(244,57,82);fill-rule:nonzero;"/>        </g>        <g transform="matrix(234.337,0,0,234.337,872.759,288.349)">            <path d="M0.211,-0.041l-0.214,-0.435l0.136,0l0.137,0.304l0.144,-0.304l0.124,0l-0.332,0.713l-0.125,0l0.13,-0.278Z" style="fill:rgb(244,57,82);fill-rule:nonzero;"/>        </g>    </g></svg>