<?xml version="1.0" encoding="UTF-8" standalone="no"?><!DOCTYPE svg PUBLIC "-//W3C//DTD SVG 1.1//EN" "http://www.w3.org/Graphics/SVG/1.1/DTD/svg11.dtd"><svg width="100%" height="100%" viewBox="0 0 1024 512" version="1.1" xmlns="http://www.w3.org/2000/svg" xmlns:xlink="http://www.w3.org/1999/xlink" xml:space="preserve" style="fill-rule:evenodd;clip-rule:evenodd;stroke-linejoin:round;stroke-miterlimit:2;"><title>EuroRaiser</title><desc>EuroRaiser is a crowdfunding company that connects project leaders in the field of real estate transactions. EuroRaiser through its EuroRaiser.com site, allows Investors and Lenders to become members of its community in order to finance projects selected by our committee of experts. The platform offers a space to all its Members and presents the project and the operator who carries it.</desc>    <g transform="matrix(3.94864,0,0,2.9928,-751.746,-409.691)">        <g transform="matrix(46.9734,0,0,66.7914,199.828,245.741)">            <path d="M0.099,-0.068c0,0.048 0.02,0.068 0.068,0.068l0.322,-0c0.047,-0 0.068,-0.02 0.068,-0.068l0,-0.108l-0.119,0l0,0.043c0,0.014 -0.008,0.022 -0.022,0.022l-0.164,-0c-0.014,-0 -0.022,-0.008 -0.022,-0.022l0,-0.102l0.23,-0l0,-0.079l-0.23,0l0,-0.068l0.23,0l0,-0.082l-0.23,-0l0,-0.135l0.16,0c0.014,0 0.022,0.008 0.022,0.022l0,0.043l0.119,-0l0,-0.108c0,-0.047 -0.021,-0.068 -0.068,-0.068l-0.459,0l0,0.111l0.095,-0l0,0.135l-0.289,-0l-0,0.082l0.289,0l0,0.068l-0.289,0l-0,0.079l0.289,-0l0,0.167Z" style="fill:rgb(8,62,90);fill-rule:nonzero;"/>        </g>        <g transform="matrix(46.9734,0,0,66.7914,227.445,245.741)">            <path d="M0.081,-0.182c0,0.139 0.067,0.194 0.176,0.194c0.088,-0 0.152,-0.053 0.176,-0.106l0.002,-0c0,-0 -0.001,0.011 -0.001,0.023l0,0.014c0,0.036 0.023,0.057 0.067,0.057l0.117,-0l0,-0.107l-0.04,-0c-0.014,-0 -0.022,-0.008 -0.022,-0.022l0,-0.381l-0.127,0l0,0.234c0,0.091 -0.051,0.172 -0.143,0.172c-0.063,0 -0.079,-0.042 -0.079,-0.104l0,-0.235c0,-0.046 -0.02,-0.067 -0.067,-0.067l-0.121,0l0,0.108l0.04,0c0.014,0 0.022,0.007 0.022,0.022l0,0.198Z" style="fill:rgb(8,62,90);fill-rule:nonzero;"/>        </g>        <g transform="matrix(46.9734,0,0,66.7914,258.744,245.741)">            <path d="M0.083,-0l0.126,-0l-0,-0.202c-0,-0.03 0.004,-0.058 0.011,-0.083c0.023,-0.076 0.085,-0.107 0.139,-0.107c0.018,0 0.031,0.002 0.031,0.002l0,-0.125c0,0 -0.012,-0.002 -0.023,-0.002c-0.078,0 -0.139,0.058 -0.162,0.131l-0.002,0c0,0 0.002,-0.013 0.002,-0.032l0,-0.03c0,-0.043 -0.023,-0.062 -0.068,-0.062l-0.116,0l0,0.108l0.04,0c0.014,0 0.022,0.007 0.022,0.022l0,0.38Z" style="fill:rgb(8,62,90);fill-rule:nonzero;"/>        </g>        <g transform="matrix(0.234867,0,0,0.309879,173.152,70.4966)">            <path d="M585.644,486.164l-46.009,-0c-4.79,-21.119 -17.632,-35.742 -43.661,-35.742c-34.692,-0 -45.957,25.975 -45.957,58.685c-0,32.71 11.265,59.007 45.957,59.007c34.692,-0 45.958,-26.297 45.958,-59.007c-0,-1.193 -0.015,-2.378 -0.046,-3.555l43.758,-0l-0,59.975l26.2,0l-0,-57.118l13.2,0c7.4,0 10.4,1.078 13.4,7.113l18.2,38.582c4.6,9.699 9.2,11.423 19.8,11.423l13.8,0l-0,-23.925l-2.6,0c-4.4,0 -7.8,-0.431 -10,-4.957l-13.8,-29.529c-2.6,-5.604 -7,-7.76 -7,-7.76l-0,-0.431c6,-1.293 23.6,-12.717 23.6,-40.306c-0,-28.882 -18.2,-46.126 -44.2,-46.126l-63.6,0l-0,23.925l13,0l-0,49.746Zm-89.67,63.029c-17.346,0 -22.353,-17.637 -22.353,-40.086c0,-22.127 5.007,-39.604 22.353,-39.604c17.346,-0 22.353,17.477 22.353,39.604c0,22.449 -5.007,40.086 -22.353,40.086Zm115.87,-64.925l-0,-47.85l21.2,0c12.8,0 20.6,8.622 20.6,23.71c-0,15.303 -7.8,24.14 -21,24.14l-20.8,0Z" style="fill:rgb(8,62,90);fill-rule:nonzero;"/>        </g>        <g transform="matrix(46.9734,0,0,66.7914,337.067,245.741)">            <path d="M0.033,-0.147c0,0.102 0.083,0.159 0.174,0.159c0.115,-0 0.154,-0.09 0.154,-0.09l0.002,-0c0,-0 -0.001,0.009 -0.001,0.022c0,0.03 0.018,0.056 0.065,0.056l0.114,-0l0,-0.107l-0.04,-0c-0.014,-0 -0.022,-0.008 -0.022,-0.022l0,-0.19c0,-0.114 -0.05,-0.203 -0.22,-0.203c-0.053,0 -0.187,0.01 -0.187,0.105l0,0.054l0.118,0l0,-0.027c0,-0.028 0.045,-0.034 0.068,-0.034c0.065,0 0.094,0.027 0.094,0.1l0,0.004l-0.016,0c-0.083,0 -0.303,0.013 -0.303,0.173Zm0.128,-0.006c0,-0.071 0.105,-0.08 0.171,-0.08l0.022,0l0,0.012c0,0.062 -0.048,0.134 -0.116,0.134c-0.052,0 -0.077,-0.032 -0.077,-0.066Z" style="fill:rgb(8,62,90);fill-rule:nonzero;"/>        </g>        <g transform="matrix(46.9734,0,0,66.7914,364.702,245.741)">            <path d="M0.093,-0.593l0.11,0l0,-0.117l-0.11,0l-0,0.117Zm-0.006,0.525c0,0.048 0.02,0.068 0.067,0.068l0.121,-0l0,-0.107l-0.04,-0c-0.014,-0 -0.022,-0.008 -0.022,-0.022l-0,-0.313c-0,-0.047 -0.02,-0.068 -0.067,-0.068l-0.121,0l-0,0.108l0.04,0c0.014,0 0.022,0.007 0.022,0.022l-0,0.312Z" style="fill:rgb(8,62,90);fill-rule:nonzero;"/>        </g>        <g transform="matrix(46.9734,0,0,66.7914,380.077,245.741)">            <path d="M0.025,-0.079c0,0 0.072,0.091 0.212,0.091c0.111,0 0.196,-0.06 0.196,-0.156c0,-0.17 -0.271,-0.154 -0.271,-0.234c0,-0.03 0.031,-0.046 0.076,-0.046c0.028,0 0.064,0.012 0.064,0.036l0,0.025l0.112,0l0,-0.053c0,-0.083 -0.11,-0.106 -0.179,-0.106c-0.106,0 -0.198,0.047 -0.198,0.149c0,0.165 0.269,0.164 0.269,0.236c0,0.034 -0.03,0.05 -0.069,0.05c-0.087,-0 -0.152,-0.075 -0.152,-0.075l-0.06,0.083Z" style="fill:rgb(8,62,90);fill-rule:nonzero;"/>        </g>        <g transform="matrix(46.9734,0,0,66.7914,403.391,245.741)">            <path d="M0.032,-0.255c0,0.145 0.105,0.267 0.274,0.267c0.127,-0 0.205,-0.077 0.205,-0.077l-0.053,-0.088c-0,-0 -0.061,0.057 -0.143,0.057c-0.077,-0 -0.143,-0.047 -0.153,-0.137l0.352,-0c-0,-0 0.003,-0.032 0.003,-0.047c-0,-0.135 -0.08,-0.242 -0.226,-0.242c-0.153,0 -0.259,0.11 -0.259,0.267Zm0.134,-0.066c0.014,-0.064 0.06,-0.103 0.125,-0.103c0.052,0 0.094,0.042 0.096,0.103l-0.221,0Z" style="fill:rgb(8,62,90);fill-rule:nonzero;"/>        </g>        <g transform="matrix(46.9734,0,0,66.7914,430.885,245.741)">            <path d="M0.083,-0l0.126,-0l-0,-0.202c-0,-0.03 0.004,-0.058 0.011,-0.083c0.023,-0.076 0.085,-0.107 0.139,-0.107c0.018,0 0.031,0.002 0.031,0.002l0,-0.125c0,0 -0.012,-0.002 -0.023,-0.002c-0.078,0 -0.139,0.058 -0.162,0.131l-0.002,0c0,0 0.002,-0.013 0.002,-0.032l0,-0.03c0,-0.043 -0.023,-0.062 -0.068,-0.062l-0.116,0l0,0.108l0.04,0c0.014,0 0.022,0.007 0.022,0.022l0,0.38Z" style="fill:rgb(8,62,90);fill-rule:nonzero;"/>        </g>    </g></svg>