<?xml version="1.0" encoding="UTF-8" standalone="no"?><!DOCTYPE svg PUBLIC "-//W3C//DTD SVG 1.1//EN" "http://www.w3.org/Graphics/SVG/1.1/DTD/svg11.dtd"><svg width="100%" height="100%" viewBox="0 0 1024 512" version="1.1" xmlns="http://www.w3.org/2000/svg" xmlns:xlink="http://www.w3.org/1999/xlink" xml:space="preserve" style="fill-rule:evenodd;clip-rule:evenodd;stroke-linejoin:round;stroke-miterlimit:2;"><title>3CF</title><desc>3CF gives both borrowers and lenders more freedom and control over their loans. 3CF allows borrowers to set loan interest rates and investors to sell loan parts in its secondary market. This makes 3CF one of the few secondary market providers in Switzerland.</desc>    <g transform="matrix(2.01743,0,0,2.01743,-125.098,-46.3688)">        <g transform="matrix(105.923,0,0,82.4883,345.198,111.227)">            <path d="M0.155,-0.46c0.031,0 0.042,-0.004 0.054,-0.011c0.012,-0.008 0.018,-0.013 0.018,-0.039l0,-0.056c0,-0.015 -0.005,-0.027 -0.014,-0.036c-0.009,-0.009 -0.012,-0.014 -0.027,-0.014c-0.018,0 -0.021,0.006 -0.029,0.017c-0.008,0.011 -0.012,0.022 -0.012,0.033l0,0.058l-0.111,0l0,-0.059c0,-0.021 0.004,-0.04 0.012,-0.059c0.008,-0.019 0.019,-0.035 0.033,-0.048c0.014,-0.013 0.03,-0.024 0.049,-0.032c0.019,-0.008 0.039,-0.012 0.06,-0.012c0.028,0 0.051,0.006 0.07,0.017c0.018,0.011 0.032,0.022 0.041,0.033c0.007,0.008 0.013,0.016 0.018,0.024c0.005,0.008 0.009,0.018 0.012,0.029c0.006,0.022 0.009,0.055 0.009,0.098c0,0.025 0,0.045 -0.001,0.06c-0.002,0.015 -0.004,0.028 -0.008,0.038c-0.005,0.011 -0.011,0.02 -0.019,0.027c-0.009,0.007 -0.02,0.015 -0.035,0.024c0.016,0.01 0.028,0.019 0.037,0.028c0.008,0.009 0.014,0.019 0.018,0.03c0.004,0.012 0.006,0.026 0.007,0.043c0.001,0.016 0.001,0.037 0.001,0.062c0,0.023 0,0.043 -0.001,0.058c-0.001,0.015 -0.003,0.028 -0.005,0.038c-0.002,0.011 -0.005,0.02 -0.008,0.027c-0.003,0.007 -0.008,0.015 -0.013,0.023c-0.013,0.019 -0.029,0.034 -0.048,0.047c-0.02,0.012 -0.046,0.018 -0.078,0.018c-0.016,0 -0.033,-0.003 -0.051,-0.008c-0.018,-0.005 -0.034,-0.014 -0.049,-0.026c-0.015,-0.012 -0.027,-0.028 -0.036,-0.047c-0.01,-0.019 -0.015,-0.043 -0.015,-0.071l0,-0.106l0.102,0l0,0.101c0,0.016 0.005,0.029 0.014,0.04c0.009,0.01 0.021,0.015 0.036,0.015c0.015,0 0.018,-0.005 0.027,-0.015c0.009,-0.011 0.014,-0.025 0.014,-0.042l0,-0.102c0,-0.028 -0.006,-0.058 -0.016,-0.067c-0.006,-0.005 -0.005,-0.009 -0.015,-0.01c-0.011,-0.001 -0.024,-0.002 -0.041,-0.002l0,-0.126Z" style="fill:rgb(192,192,192);fill-rule:nonzero;"/>        </g>        <g transform="matrix(1,0,0,1,-221,0)">            <g transform="matrix(108.553,0,0,106.509,564.789,185.639)">                <path d="M0.159,-0.146c0,0.016 0.005,0.028 0.014,0.037c0.009,0.009 0.012,0.013 0.027,0.013c0.019,0 0.016,0.002 0.022,-0.009c0.007,-0.012 -0.001,-0.096 0,-0.108l0.112,0c0,0.045 0.004,0.147 -0.023,0.174c-0.013,0.014 -0.029,0.025 -0.048,0.033c-0.019,0.008 -0.04,0.012 -0.063,0.012c-0.032,0 -0.059,-0.007 -0.082,-0.02c-0.022,-0.013 -0.039,-0.031 -0.051,-0.053c-0.007,-0.013 -0.012,-0.029 -0.015,-0.046c-0.003,-0.017 -0.004,-0.036 -0.004,-0.057l0,-0.167c0,-0.021 0.001,-0.04 0.004,-0.057c0.003,-0.017 0.008,-0.033 0.015,-0.046c0.012,-0.022 0.029,-0.04 0.052,-0.053c0.022,-0.013 0.049,-0.02 0.081,-0.02c0.023,0 0.045,0.004 0.064,0.012c0.018,0.008 0.035,0.019 0.048,0.033c0.027,0.03 0.022,0.125 0.022,0.173l-0.112,0c0,-0.02 0.009,-0.092 0,-0.102c-0.009,-0.009 -0.007,-0.014 -0.022,-0.014c-0.015,0 -0.018,0.005 -0.027,0.014c-0.009,0.01 -0.014,0.025 -0.014,0.044l0,0.207Z" style="fill:rgb(125,125,125);fill-rule:nonzero;"/>            </g>            <g transform="matrix(108.553,0,0,106.509,645.789,185.639)">                <path d="M0.159,-0.146c0,0.016 0.005,0.028 0.014,0.037c0.009,0.009 0.012,0.013 0.027,0.013c0.019,0 0.016,0.002 0.022,-0.009c0.007,-0.012 -0.001,-0.096 0,-0.108l0.112,0c0,0.045 0.004,0.147 -0.023,0.174c-0.013,0.014 -0.029,0.025 -0.048,0.033c-0.019,0.008 -0.04,0.012 -0.063,0.012c-0.032,0 -0.059,-0.007 -0.082,-0.02c-0.022,-0.013 -0.039,-0.031 -0.051,-0.053c-0.007,-0.013 -0.012,-0.029 -0.015,-0.046c-0.003,-0.017 -0.004,-0.036 -0.004,-0.057l0,-0.167c0,-0.021 0.001,-0.04 0.004,-0.057c0.003,-0.017 0.008,-0.033 0.015,-0.046c0.012,-0.022 0.029,-0.04 0.052,-0.053c0.022,-0.013 0.049,-0.02 0.081,-0.02c0.023,0 0.045,0.004 0.064,0.012c0.018,0.008 0.035,0.019 0.048,0.033c0.027,0.03 0.022,0.125 0.022,0.173l-0.112,0c0,-0.02 0.009,-0.092 0,-0.102c-0.009,-0.009 -0.007,-0.014 -0.022,-0.014c-0.015,0 -0.018,0.005 -0.027,0.014c-0.009,0.01 -0.014,0.025 -0.014,0.044l0,0.207Z" style="fill:rgb(125,125,125);fill-rule:nonzero;"/>            </g>            <g transform="matrix(134.443,0,0,103.894,600.64,185.674)">                <rect x="0.042" y="-0.507" width="0.102" height="0.507" style="fill:rgb(125,125,125);"/>            </g>            <g transform="matrix(134.443,0,0,123.617,681.353,185.674)">                <rect x="0.042" y="-0.507" width="0.102" height="0.507" style="fill:rgb(125,125,125);"/>            </g>            <g transform="matrix(134.443,0,0,100.666,600.64,190.674)">                <rect x="0.042" y="-0.712" width="0.102" height="0.102" style="fill:rgb(125,125,125);"/>            </g>            <g transform="matrix(108.688,0,0,102.678,620.676,185.674)">                <path d="M0.042,0l0,-0.507l0.102,0l0,0.054c0.021,-0.019 0.032,-0.053 0.052,-0.063c0.02,-0.011 0.026,-0.016 0.055,-0.016l0,0.127c-0.01,-0.004 -0.025,-0.004 -0.038,-0.001c-0.012,0.004 -0.023,0.01 -0.033,0.019c-0.011,0.009 -0.019,0.02 -0.026,0.034c-0.007,0.014 -0.01,0.031 -0.01,0.052l0,0.301l-0.102,0Z" style="fill:rgb(125,125,125);fill-rule:nonzero;"/>            </g>            <g transform="matrix(106.711,0,0,106.509,702.038,185.639)">                <path d="M0.337,-0.215l-0.183,0l0,0.069c0,0.014 0.002,0.046 0.014,0.056c0.013,0.009 0.042,-0.007 0.046,-0.023c0.01,-0.04 -0.003,-0.04 0.002,-0.081l0.121,0c0,0.037 -0.007,0.123 -0.041,0.155c-0.067,0.063 -0.199,0.063 -0.244,-0.028c-0.017,-0.034 -0.019,-0.065 -0.019,-0.103l0,-0.167c0,-0.048 0.006,-0.097 0.041,-0.133c0.057,-0.059 0.166,-0.058 0.223,0.002c0.028,0.03 0.04,0.073 0.04,0.113l0,0.14Zm-0.183,-0.08l0.062,0l0,-0.058c0,-0.015 -0.006,-0.029 -0.013,-0.043c-0.007,-0.014 -0.027,-0.019 -0.042,0.008c-0.006,0.01 -0.007,0.023 -0.007,0.035l0,0.058Z" style="fill:rgb(125,125,125);fill-rule:nonzero;"/>            </g>        </g>        <g transform="matrix(1,0,0,1,-221,0)">            <g transform="matrix(96.5279,0,0,100.666,566.517,262.368)">                <path d="M0.055,0l0,-0.407l-0.05,0l0,-0.08l0.05,0l0,-0.01c0,-0.024 0.004,-0.065 0.011,-0.082c0.007,-0.017 0.017,-0.031 0.03,-0.042c0.012,-0.012 0.026,-0.02 0.042,-0.024c0.015,-0.005 0.031,-0.007 0.048,-0.007l0.037,0l0,0.115l-0.036,0c-0.02,0 -0.03,0.012 -0.03,0.035l0,0.015l0.055,0l0,0.08l-0.055,0l0,0.407l-0.102,0Z" style="fill:rgb(66,66,66);fill-rule:nonzero;"/>            </g>            <g transform="matrix(96.5279,0,0,100.666,587.947,262.368)">                <path d="M0.347,-0.507l0,0.507l-0.102,0l0,-0.049l-0.002,0c-0.011,0.016 -0.023,0.029 -0.039,0.04c-0.015,0.01 -0.034,0.015 -0.057,0.015c-0.013,0 -0.025,-0.002 -0.038,-0.006c-0.013,-0.005 -0.024,-0.012 -0.034,-0.022c-0.01,-0.01 -0.018,-0.023 -0.024,-0.039c-0.006,-0.015 -0.009,-0.034 -0.009,-0.057l0,-0.389l0.102,0l0,0.351c0,0.019 0.004,0.033 0.013,0.044c0.009,0.011 0.021,0.016 0.037,0.016c0.019,0 0.033,-0.006 0.04,-0.018c0.007,-0.012 0.011,-0.029 0.011,-0.052l0,-0.341l0.102,0Z" style="fill:rgb(66,66,66);fill-rule:nonzero;"/>            </g>            <g transform="matrix(96.5279,0,0,100.666,625.496,262.368)">                <path d="M0.042,0l0,-0.507l0.102,0l0,0.049l0.002,0c0.011,-0.016 0.023,-0.029 0.038,-0.039c0.015,-0.011 0.035,-0.016 0.058,-0.016c0.013,0 0.025,0.002 0.038,0.006c0.013,0.005 0.024,0.012 0.034,0.022c0.01,0.01 0.018,0.023 0.024,0.038c0.006,0.016 0.009,0.035 0.009,0.058l0,0.389l-0.102,0l0,-0.351c0,-0.019 -0.004,-0.033 -0.013,-0.044c-0.009,-0.011 -0.021,-0.016 -0.037,-0.016c-0.019,0 -0.033,0.006 -0.04,0.018c-0.007,0.012 -0.011,0.029 -0.011,0.052l0,0.341l-0.102,0Z" style="fill:rgb(66,66,66);fill-rule:nonzero;"/>            </g>            <g transform="matrix(96.5279,0,0,100.666,663.045,262.368)">                <path d="M0.144,-0.165c0,0.021 0.004,0.037 0.012,0.05c0.008,0.013 0.021,0.019 0.038,0.019c0.015,0 0.028,-0.006 0.037,-0.018c0.009,-0.011 0.014,-0.026 0.014,-0.045l0,-0.197c0,-0.016 -0.005,-0.029 -0.015,-0.04c-0.009,-0.01 -0.021,-0.015 -0.036,-0.015c-0.019,0 -0.033,0.006 -0.04,0.018c-0.007,0.012 -0.01,0.026 -0.01,0.042l0,0.186Zm0.101,0.165l0,-0.046c-0.007,0.007 -0.013,0.014 -0.019,0.02c-0.006,0.007 -0.013,0.012 -0.02,0.017c-0.007,0.005 -0.016,0.008 -0.025,0.011c-0.009,0.003 -0.02,0.004 -0.033,0.004c-0.043,0 -0.072,-0.016 -0.089,-0.048c-0.006,-0.011 -0.01,-0.025 -0.013,-0.042c-0.003,-0.017 -0.004,-0.039 -0.004,-0.067l0,-0.193c0,-0.037 0.001,-0.064 0.003,-0.081c0.004,-0.033 0.02,-0.058 0.047,-0.075c0.013,-0.009 0.032,-0.013 0.057,-0.013c0.02,0 0.038,0.004 0.053,0.014c0.016,0.009 0.03,0.021 0.041,0.038l0.002,0l0,-0.152l0.102,0l0,0.613l-0.102,0Z" style="fill:rgb(66,66,66);fill-rule:nonzero;"/>            </g>            <g transform="matrix(96.5279,0,0,100.666,700.595,262.368)">                <path d="M0.032,0l0,-0.507l0.122,0l0,0.507l-0.122,0Zm0,-0.55l0,-0.102l0.122,0l0,0.102l-0.122,0Z" style="fill:rgb(66,66,66);fill-rule:nonzero;"/>            </g>            <g transform="matrix(96.5279,0,0,100.666,718.549,262.368)">                <path d="M0.042,0l0,-0.507l0.102,0l0,0.049l0.002,0c0.011,-0.016 0.023,-0.029 0.038,-0.039c0.015,-0.011 0.035,-0.016 0.058,-0.016c0.013,0 0.025,0.002 0.038,0.006c0.013,0.005 0.024,0.012 0.034,0.022c0.01,0.01 0.018,0.023 0.024,0.038c0.006,0.016 0.009,0.035 0.009,0.058l0,0.389l-0.102,0l0,-0.351c0,-0.019 -0.004,-0.033 -0.013,-0.044c-0.009,-0.011 -0.021,-0.016 -0.037,-0.016c-0.019,0 -0.033,0.006 -0.04,0.018c-0.007,0.012 -0.011,0.029 -0.011,0.052l0,0.341l-0.102,0Z" style="fill:rgb(66,66,66);fill-rule:nonzero;"/>            </g>            <g transform="matrix(96.5279,0,0,100.666,756.098,262.368)">                <path d="M0.059,-0.036c0.001,0.012 0.064,0.042 0.097,0.042c0.017,0 0.06,-0.011 0.068,-0.022c0.007,-0.01 0.021,-0.023 0.021,-0.039l0,-0.031l-0.002,0c-0.011,0.017 -0.025,0.03 -0.04,0.039c-0.016,0.009 -0.034,0.013 -0.055,0.013c-0.043,0 -0.072,-0.016 -0.089,-0.048c-0.006,-0.011 -0.01,-0.025 -0.013,-0.042c-0.003,-0.016 -0.004,-0.039 -0.004,-0.067l0,-0.153c0,-0.037 0.001,-0.064 0.003,-0.081c0.004,-0.033 0.02,-0.058 0.047,-0.075c0.013,-0.009 0.032,-0.013 0.057,-0.013c0.013,0 0.024,0.001 0.033,0.004c0.009,0.003 0.017,0.006 0.024,0.011c0.007,0.005 0.014,0.01 0.02,0.017c0.006,0.006 0.012,0.013 0.019,0.02l0,-0.046l0.102,0l0,0.46c0,0.017 -0.003,0.035 -0.008,0.052c-0.006,0.018 -0.015,0.034 -0.028,0.048c-0.013,0.014 -0.029,0.026 -0.048,0.035c-0.019,0.009 -0.042,0.012 -0.069,0.014c-0.081,0.004 -0.18,-0.023 -0.183,-0.053l0.048,-0.085Zm0.085,-0.16c0,0.016 0.004,0.03 0.011,0.042c0.007,0.012 0.02,0.018 0.039,0.018c0.015,0 0.027,-0.005 0.037,-0.015c0.009,-0.011 0.014,-0.024 0.014,-0.04l0,-0.157c0,-0.019 -0.005,-0.034 -0.014,-0.046c-0.009,-0.011 -0.022,-0.017 -0.037,-0.017c-0.017,0 -0.03,0.006 -0.038,0.019c-0.008,0.013 -0.012,0.029 -0.012,0.05l0,0.146Z" style="fill:rgb(66,66,66);fill-rule:nonzero;"/>            </g>        </g>        <g transform="matrix(0.243902,0,0,0.243902,93.7317,10.0366)">            <g transform="matrix(1,0,0,1,-214,31)">                <path d="M863.641,651.676c-10.014,-42.525 -32.685,-93.253 -65.187,-147.516c0.481,-16.571 1.268,-32.876 2.319,-48.874c43.978,73.361 72.541,145.235 83.355,207.42c-6.595,-3.77 -13.432,-7.431 -20.487,-11.03Z" style="fill:rgb(135,136,138);"/>            </g>            <g transform="matrix(1,0,0,1,-214,31)">                <path d="M764.736,905.461c-7.97,-16.378 -15.351,-34.145 -22.136,-53.132c36.071,3.924 67.705,-1.442 92.501,-17.221c4.38,14.632 9.084,28.358 14.115,41.006c-24.376,11.358 -52.836,21.249 -84.48,29.347Z" style="fill:rgb(198,199,200);"/>            </g>            <g transform="matrix(2.38372,0,0,2.38372,-1591.99,-995.523)">                <path d="M870.495,693.989c-19.235,-3.221 -40.262,-4.977 -62.291,-4.977c-3.417,0 -6.809,0.042 -10.137,0.139c-4.202,-4.028 -8.383,-8.207 -12.52,-12.557c6.656,-0.359 13.38,-0.539 20.186,-0.539c22.406,0 43.915,1.944 63.908,5.534l0.564,9.085l0.29,3.315Z" style="fill:rgb(66,66,66);"/>            </g>            <g transform="matrix(2.38372,0,0,2.38372,-1591.99,-995.523)">                <path d="M923.895,846.917c-32.482,12.932 -73.543,20.64 -118.162,20.64c-105.268,0 -190.733,-42.905 -190.733,-95.751c0,-39.825 48.537,-74.004 117.503,-88.416l1.966,2.36l7.815,8.845c-58.218,10.305 -98.954,33.883 -98.954,61.289c0,36.908 73.877,65.115 164.874,65.115c33.49,0 64.662,-3.821 90.695,-10.508l0.622,-0.16c13.035,-3.37 24.765,-7.458 34.818,-12.152l0.565,-0.263c23.822,-11.188 38.173,-25.765 38.173,-42.032c0,-12.266 -8.159,-23.765 -22.382,-33.606c-2.506,-1.744 -5.201,-3.437 -8.074,-5.073l-0.176,-0.1c-7.946,-4.522 -17.244,-8.626 -27.638,-12.18l-0.678,-8.187l-0.221,-3.759c9.512,3.275 18.36,6.978 26.483,11.046l0.278,0.139c2.869,1.443 5.647,2.931 8.317,4.488c29.546,16.824 47.48,38.946 47.48,63.154c0,22.642 -15.689,43.459 -41.935,59.848l-0.309,0.192c-8.666,5.401 -18.476,10.319 -29.279,14.653l-1.048,0.418Z" style="fill:rgb(66,66,66);"/>            </g>            <g transform="matrix(2.38372,0,0,2.38372,-1591.99,-995.523)">                <path d="M870.495,693.989c0,0 -0.29,-3.315 -0.29,-3.315l-0.564,-9.085l-0.047,-0.83c-0.485,-8.584 -0.723,-17.34 -0.723,-26.226c0,-23.804 1.705,-46.677 4.866,-67.971l0.08,-0.547c0.838,-5.647 1.776,-11.183 2.818,-16.598l0.162,-0.845c13.853,-71.698 44.544,-121.572 80.139,-121.572c48.604,0 88.064,92.993 88.064,207.533c0,114.541 -39.46,207.533 -88.064,207.533c-11.684,0 -22.839,-5.373 -33.041,-15.149c11.182,-4.432 21.351,-9.48 30.327,-15.071c5.929,5.932 12.27,9.138 18.855,9.138c33.271,0 60.284,-81.824 60.284,-182.608c0,-100.783 -27.013,-182.607 -60.284,-182.607c-29.004,0 -53.252,62.182 -58.994,144.894l-0.066,0.974c-0.439,6.499 -0.764,13.122 -0.955,19.852l-0.018,0.651c-0.171,5.347 -0.25,10.764 -0.25,16.236c0,11.65 0.361,23.046 1.08,34.078l0.034,0.525l0.221,3.759l0.678,8.187c1.495,17.562 3.866,34.089 6.943,49.167c-11.452,2.617 -26.629,-0.34 -43.83,-7.965c-3.419,-16.289 -5.952,-33.784 -7.425,-52.138l0,0Z" style="fill:rgb(198,199,200);"/>            </g>            <g transform="matrix(2.38372,0,0,2.38372,-1591.99,-995.523)">                <path d="M732.503,683.39c-69.707,-82.878 -95.325,-175.883 -57.116,-208.468c38.572,-32.895 127.677,8.16 198.857,91.624l2.391,2.871c-1.075,5.585 -2.046,11.301 -2.898,17.145c-2.793,-3.464 -5.663,-6.911 -8.598,-10.352c-62.157,-72.884 -134.909,-113.048 -162.363,-89.635c-27.453,23.413 3.357,98.08 65.514,170.964c5.645,6.618 11.399,12.978 17.257,19.055c4.147,4.336 8.326,8.527 12.52,12.557c27.48,26.454 55.67,46.306 79.853,56.976l0.403,0.178c17.041,7.497 32.071,10.395 43.427,7.787l0.207,-0.048c4.347,-1.009 8.159,-2.848 11.331,-5.553c7.776,-6.632 10.666,-17.48 9.333,-31.286c2.878,1.636 5.577,3.327 8.074,5.073c1.823,23.97 -3.672,43.416 -17.369,55.097c-1.504,1.282 -3.084,2.452 -4.747,3.501l-0.161,0.101c-10.407,6.61 -23.677,8.866 -38.805,7.225c-40.469,-4.39 -98.071,-39.005 -147.329,-93.607l-7.815,-8.845l-1.966,-2.36Z" style="fill:rgb(135,136,138);"/>            </g>        </g>    </g></svg>