<?xml version="1.0" encoding="UTF-8" standalone="no"?><!DOCTYPE svg PUBLIC "-//W3C//DTD SVG 1.1//EN" "http://www.w3.org/Graphics/SVG/1.1/DTD/svg11.dtd"><svg width="100%" height="100%" viewBox="0 0 1024 512" version="1.1" xmlns="http://www.w3.org/2000/svg" xmlns:xlink="http://www.w3.org/1999/xlink" xml:space="preserve" style="fill-rule:evenodd;clip-rule:evenodd;stroke-linejoin:round;stroke-miterlimit:2;"><title>Growth Street</title><desc>Ambitious businesses use GrowthLine to manage working capital and cash flow. Businesses of all shapes and sizes have working capital tied up in assets. GrowthLine helps you unlock these funds and put them to work.</desc>    <g id="growth-street-512x256.svg" transform="matrix(2.21734,0,0,2.21734,-55.6738,-27.7759)">        <path id="a2fb068c-675a-4f1f-87ac-18f162149798" d="M153.81,128.34c0,0.02 0,0.04 0,0.06c0,7.264 5.977,13.24 13.24,13.24c0.03,0 0.06,0 0.09,0c3.226,0.002 6.398,-0.828 9.21,-2.41c0.17,-0.153 0.277,-0.363 0.3,-0.59l0,-10c0.006,-0.377 -0.294,-0.694 -0.67,-0.71l-7.46,0c-0.01,0 -0.02,-0.001 -0.031,-0.001c-0.373,0 -0.68,0.307 -0.68,0.68c0,0.011 0.001,0.021 0.001,0.031l0,3.68c0,0 0,0.001 0,0.001c0,0.368 0.302,0.67 0.67,0.67c0.013,0 0.027,0 0.04,-0.001l2.34,0l0,2.15c-1.055,0.408 -2.179,0.608 -3.31,0.59c-3.981,-0.146 -7.177,-3.461 -7.177,-7.445c0,-3.984 3.196,-7.299 7.177,-7.445c1.79,-0.067 3.537,0.573 4.86,1.78c0.29,0.237 0.71,0.237 1,0l2.93,-3.12c0.129,-0.123 0.202,-0.293 0.202,-0.471c0,-0.21 -0.101,-0.407 -0.272,-0.529c-2.522,-2.181 -5.727,-3.416 -9.06,-3.49c-0.007,0 -0.013,0 -0.02,0c-7.302,0 -13.31,6.008 -13.31,13.31c0,0.02 0,0.04 0,0.06l-0.07,-0.04Zm30.53,12.26c0,0.003 0,0.007 0,0.01c0,0.384 0.316,0.7 0.7,0.7c0.003,0 0.007,0 0.01,0l4.42,0c0.385,-0.01 0.7,-0.325 0.71,-0.71l0,-9.47l2.56,0l4.94,9.84c0.124,0.207 0.349,0.332 0.59,0.33l4.94,0c0.014,0.001 0.029,0.001 0.043,0.001c0.384,0 0.7,-0.316 0.7,-0.7c0,-0.135 -0.039,-0.268 -0.113,-0.381l-5.09,-9.43c3.23,-1.3 5.5,-4 5.5,-7.46c-0.044,-4.41 -3.69,-8.011 -8.1,-8l-11.15,0c-0.389,0 -0.71,0.321 -0.71,0.71l0.05,24.56Zm5.83,-14.19l0,-5.79l5.5,0c1.543,0.011 2.809,1.277 2.82,2.82c0.003,1.58 -1.243,2.905 -2.82,3l-5.5,-0.03Zm19.76,1.93c0.033,7.301 6.049,13.29 13.35,13.29c7.323,0 13.35,-6.026 13.35,-13.35c0,-7.324 -6.027,-13.35 -13.35,-13.35c-0.007,0 -0.013,0 -0.02,0c-0.027,0 -0.054,0 -0.081,0c-7.269,0 -13.25,5.981 -13.25,13.25c0,0.053 0,0.107 0.001,0.16Zm5.94,0c0,-0.007 0,-0.013 0,-0.02c0,-4.065 3.345,-7.41 7.41,-7.41c4.065,0 7.41,3.345 7.41,7.41c0,4.065 -3.345,7.41 -7.41,7.41c-0.007,0 -0.013,0 -0.02,0c-4.038,-0.043 -7.347,-3.352 -7.39,-7.39Zm31.64,12.81c0.084,0.301 0.357,0.514 0.67,0.52l0.59,0c0.268,-0.014 0.509,-0.171 0.63,-0.41l6.76,-15.19l0.11,0l6.8,15.19c0.121,0.239 0.362,0.396 0.63,0.41l0.59,0c0.313,-0.006 0.586,-0.219 0.67,-0.52l7,-25c0.031,-0.077 0.047,-0.16 0.047,-0.243c0,-0.357 -0.293,-0.65 -0.65,-0.65c-0.022,0 -0.045,0.001 -0.067,0.003l-4.29,0c-0.308,0.021 -0.573,0.227 -0.67,0.52l-3.19,12.59l-0.14,0l-5.76,-13.07c-0.096,-0.26 -0.353,-0.427 -0.63,-0.41l-0.67,0c-0.271,0.005 -0.516,0.165 -0.63,0.41l-5.76,13.07l-0.15,0l-3.19,-12.59c-0.097,-0.293 -0.362,-0.499 -0.67,-0.52l-4.34,0c-0.022,-0.002 -0.045,-0.003 -0.067,-0.003c-0.357,0 -0.65,0.293 -0.65,0.65c0,0.083 0.016,0.166 0.047,0.243l6.98,25Zm36.73,-0.56c0.01,0.385 0.325,0.7 0.71,0.71l4.46,0c0.385,-0.01 0.7,-0.325 0.71,-0.71l0,-19.82l5.31,0c0.003,0 0.007,0 0.01,0c0.384,0 0.7,-0.316 0.7,-0.7c0,-0.003 0,-0.007 0,-0.01l0,-4c0,-0.389 -0.321,-0.71 -0.71,-0.71l-16.51,0c-0.389,0 -0.71,0.321 -0.71,0.71l0,4c0,0.389 0.321,0.71 0.71,0.71l5.31,0l0.01,19.82Zm18.38,0c0.01,0.385 0.325,0.7 0.71,0.71l4.42,0c0.003,0 0.007,0 0.01,0c0.384,0 0.7,-0.316 0.7,-0.7c0,-0.003 0,-0.007 0,-0.01l0,-9.77l10.62,0l0,9.77c0,0.389 0.321,0.71 0.71,0.71l4.42,0c0.385,-0.01 0.7,-0.325 0.71,-0.71l0,-24.59c-0.01,-0.385 -0.325,-0.7 -0.71,-0.71l-4.42,0c-0.389,0 -0.71,0.321 -0.71,0.71l0,9.36l-10.63,0l0,-9.36c0,-0.003 0,-0.007 0,-0.01c0,-0.384 -0.316,-0.7 -0.7,-0.7c-0.003,0 -0.007,0 -0.01,0l-4.42,0c-0.385,0.01 -0.7,0.325 -0.71,0.71l0.01,24.59Zm43.38,-1.77c0.85,0.85 3.53,2.86 8.36,2.86c5.46,0 8.76,-3.86 8.76,-7.69c0,-5.05 -4.6,-7.32 -7.5,-8.47c-2.9,-1.15 -4,-2.23 -4,-3.6c0.12,-1.142 1.135,-1.996 2.28,-1.92c2.27,0 5,2 5.31,2.23c0.31,0.23 1,-0.07 1.26,-0.48l1.89,-2.86c0.225,-0.396 0.131,-0.901 -0.22,-1.19c-2.294,-1.735 -5.074,-2.711 -7.95,-2.79c-5.72,0 -8.58,3.71 -8.58,7.39c0,4.46 4,6.94 7.2,8.21c2.53,1 3.82,2.19 3.82,3.75c-0.047,1.244 -1.083,2.242 -2.328,2.242c-0.078,0 -0.155,-0.004 -0.232,-0.012c-2.45,0 -5.13,-2 -5.27,-2c-0.416,-0.239 -0.949,-0.146 -1.26,0.22l-1.75,3.08c-0.3,0.52 -0.19,0.67 0.19,1l0.02,0.03Zm27.78,1.78c0.01,0.385 0.325,0.7 0.71,0.71l4.46,0c0.385,-0.01 0.7,-0.325 0.71,-0.71l0,-19.83l5.34,0c0.003,0 0.007,0 0.01,0c0.384,0 0.7,-0.316 0.7,-0.7c0,-0.003 0,-0.007 0,-0.01l0,-4c0,-0.003 0,-0.007 0,-0.01c0,-0.384 -0.316,-0.7 -0.7,-0.7c-0.003,0 -0.007,0 -0.01,0l-16.54,0c-0.003,0 -0.007,0 -0.01,0c-0.384,0 -0.7,0.316 -0.7,0.7c0,0.003 0,0.007 0,0.01l0,4c0,0.003 0,0.007 0,0.01c0,0.384 0.316,0.7 0.7,0.7c0.003,0 0.007,0 0.01,0l5.31,0l0.01,19.83Zm18.75,0c0,0.003 0,0.007 0,0.01c0,0.384 0.316,0.7 0.7,0.7c0.003,0 0.007,0 0.01,0l4.42,0c0.385,-0.01 0.7,-0.325 0.71,-0.71l0,-9.47l2.56,0l4.94,9.84c0.124,0.207 0.349,0.332 0.59,0.33l4.94,0c0.014,0.001 0.029,0.001 0.043,0.001c0.384,0 0.7,-0.316 0.7,-0.7c0,-0.135 -0.039,-0.268 -0.113,-0.381l-5.09,-9.43c3.23,-1.3 5.5,-4 5.5,-7.46c-0.044,-4.41 -3.69,-8.011 -8.1,-8l-11.1,0c-0.003,0 -0.007,0 -0.01,0c-0.384,0 -0.7,0.316 -0.7,0.7c0,0.003 0,0.007 0,0.01l0,24.56Zm5.83,-14.19l0,-5.79l5.5,0c1.543,0.011 2.809,1.277 2.82,2.82c0.003,1.58 -1.243,2.905 -2.82,3l-5.5,-0.03Zm20.72,14.19c0,0.389 0.321,0.71 0.71,0.71l15.37,0c0.003,0 0.007,0 0.01,0c0.384,0 0.7,-0.316 0.7,-0.7c0,-0.003 0,-0.007 0,-0.01l0,-4c0,-0.003 0,-0.007 0,-0.01c0,-0.384 -0.316,-0.7 -0.7,-0.7c-0.003,0 -0.007,0 -0.01,0l-10.29,0l0,-5l8.47,0c0.003,0 0.007,0 0.01,0c0.384,0 0.7,-0.316 0.7,-0.7c0,-0.003 0,-0.007 0,-0.01l0,-4c-0.01,-0.385 -0.325,-0.7 -0.71,-0.71l-8.47,0l0,-4.61l10.29,0c0.003,0 0.007,0 0.01,0c0.384,0 0.7,-0.316 0.7,-0.7c0,-0.003 0,-0.007 0,-0.01l0,-4c0,-0.003 0,-0.007 0,-0.01c0,-0.384 -0.316,-0.7 -0.7,-0.7c-0.003,0 -0.007,0 -0.01,0l-15.38,0c-0.389,0 -0.71,0.321 -0.71,0.71l0.01,24.45Zm25.85,0c0,0.003 0,0.007 0,0.01c0,0.384 0.316,0.7 0.7,0.7c0.003,0 0.007,0 0.01,0l15.36,0c0.003,0 0.007,0 0.01,0c0.384,0 0.7,-0.316 0.7,-0.7c0,-0.003 0,-0.007 0,-0.01l0,-4c0,-0.389 -0.321,-0.71 -0.71,-0.71l-10.28,0l0,-5l8.47,0c0.389,0 0.71,-0.321 0.71,-0.71l0,-4c-0.01,-0.385 -0.325,-0.7 -0.71,-0.71l-8.47,0l0,-4.61l10.28,0c0.003,0 0.007,0 0.01,0c0.384,0 0.7,-0.316 0.7,-0.7c0,-0.003 0,-0.007 0,-0.01l0,-4c0,-0.389 -0.321,-0.71 -0.71,-0.71l-15.37,0c-0.003,0 -0.007,0 -0.01,0c-0.384,0 -0.7,0.316 -0.7,0.7c0,0.003 0,0.007 0,0.01l0.01,24.45Zm29.19,0c0.01,0.385 0.325,0.7 0.71,0.71l4.46,0c0.385,-0.01 0.7,-0.325 0.71,-0.71l0,-19.83l5.31,0c0.003,0 0.007,0 0.01,0c0.384,0 0.7,-0.316 0.7,-0.7c0,-0.003 0,-0.007 0,-0.01l0,-4c0,-0.389 -0.321,-0.71 -0.71,-0.71l-16.5,0c-0.003,0 -0.007,0 -0.01,0c-0.384,0 -0.7,0.316 -0.7,0.7c0,0.003 0,0.007 0,0.01l0,4c0,0.003 0,0.007 0,0.01c0,0.384 0.316,0.7 0.7,0.7c0.003,0 0.007,0 0.01,0l5.31,0l0,19.83Z" style="fill-rule:nonzero;"/>        <g id="_04988c61-5f2a-44be-9772-af93284ce501">            <path id="c5991483-5711-48c8-9ef1-c3f5a20e2578" d="M129.82,98.63l-33.22,0c-2.452,0.001 -4.468,2.018 -4.468,4.47c0,1.185 0.471,2.322 1.308,3.16l1.71,1.74l-19.86,19.83l-18.18,-18.18c-1.734,-1.733 -4.586,-1.733 -6.32,0l-23.48,23.49c-1.733,1.734 -1.733,4.586 0,6.32l11.89,11.89l0.5,0.47c3.794,3.551 8.804,5.523 14,5.51l43.1,0c5.451,0.022 10.69,-2.14 14.54,-6l13.66,-13.56l1.71,1.71c0.83,0.838 1.961,1.31 3.14,1.31c2.456,0 4.479,-2.014 4.49,-4.47l0,-33.22c0,-2.452 -2.018,-4.47 -4.47,-4.47l-0.05,0Zm-81.36,52.37c-2.179,0.007 -4.283,-0.799 -5.9,-2.26l-0.39,-0.37l-11.88,-11.89c-0.049,-0.047 -0.077,-0.112 -0.077,-0.18c0,-0.068 0.028,-0.133 0.077,-0.18l23.48,-23.48c0.047,-0.049 0.112,-0.077 0.18,-0.077c0.068,0 0.133,0.028 0.18,0.077l18.17,18.17l-17.6,17.6c-1.649,1.662 -3.898,2.596 -6.24,2.59Zm81.61,-14.68c0,0.25 -0.27,0.26 -0.27,0.26c-0.062,-0.003 -0.12,-0.032 -0.16,-0.08l-4.64,-4.69l-16.56,16.56c-3.057,3.076 -7.223,4.803 -11.56,4.79l-13.63,0l5.75,-5.78l-3.4,-3.4l-9.13,9.13l-21,0c0.791,-0.506 1.525,-1.097 2.19,-1.76l17.6,-17.6l25.85,-25.75l-4.69,-4.69c-0.049,-0.047 -0.077,-0.112 -0.077,-0.18c0,-0.137 0.113,-0.25 0.25,-0.25c0.003,0 0.005,0 0.007,0l33.22,0c0.137,0 0.25,0.113 0.25,0.25l0,33.19Z" style="fill:rgb(104,194,198);fill-rule:nonzero;"/>            <path id="f12de39c-84f8-4397-a55e-c3e453c3ccc4" d="M107.47,122.1l3.35,3.35l9.38,-9.38l-3.35,-3.35l-9.38,9.38Z" style="fill:rgb(104,194,198);fill-rule:nonzero;"/>            <path id="_76656684-8f03-47df-ae40-6fcac2bf8035" d="M91.88,137.69l3.35,3.35l9.38,-9.38l-3.35,-3.35l-9.38,9.38Z" style="fill:rgb(104,194,198);fill-rule:nonzero;"/>        </g>    </g></svg>