<?xml version="1.0" encoding="UTF-8" standalone="no"?><!DOCTYPE svg PUBLIC "-//W3C//DTD SVG 1.1//EN" "http://www.w3.org/Graphics/SVG/1.1/DTD/svg11.dtd"><svg width="100%" height="100%" viewBox="0 0 1024 512" version="1.1" xmlns="http://www.w3.org/2000/svg" xmlns:xlink="http://www.w3.org/1999/xlink" xml:space="preserve" style="fill-rule:evenodd;clip-rule:evenodd;stroke-linejoin:round;stroke-miterlimit:2;"><title>Fintech Austria</title><desc>Our mission is to foster the development of the Fintech sector in Austria and CEE, be an active contributor to the eco-system and facilitate communication and cooperation within the community as well as external participants.</desc>    <g transform="matrix(1.67488,0,0,1.67488,-338,-122.184)">        <g transform="matrix(1.82687,0,0,1.07547,-202.754,167.456)">            <g transform="matrix(75.3532,0,0,128,216,110.024)">                <path d="M0.233,0l0,-0.263l0.226,0l0,-0.126l-0.226,0l0,-0.186l0.263,0l0,-0.126l-0.415,0l0,0.701l0.152,0Z" style="fill:rgb(77,77,77);fill-rule:nonzero;"/>            </g>            <g transform="matrix(75.3532,0,0,128,256.389,110.024)">                <rect x="0.089" y="-0.701" width="0.153" height="0.701" style="fill:rgb(77,77,77);fill-rule:nonzero;"/>            </g>            <g transform="matrix(75.3532,0,0,128,281.331,110.024)">                <path d="M0.223,-0.51c0.029,0.077 0.058,0.146 0.093,0.214l0.154,0.296l0.179,0l0,-0.701l-0.145,0l0,0.222c0,0.074 0,0.171 0.008,0.269l-0.004,0c-0.026,-0.07 -0.064,-0.148 -0.099,-0.215l-0.143,-0.276l-0.183,0l0,0.701l0.146,0l0,-0.265c0,-0.121 -0.003,-0.175 -0.01,-0.245l0.004,0Z" style="fill:rgb(77,77,77);fill-rule:nonzero;"/>            </g>            <g transform="matrix(75.3532,0,0,128,336.49,110.024)">                <path d="M0.177,0l0.153,0l0,-0.575l0.174,0l0,-0.126l-0.501,0l0,0.126l0.174,0l0,0.575Z" style="fill:rgb(77,77,77);fill-rule:nonzero;"/>            </g>            <g transform="matrix(75.3532,0,0,128,374.694,110.024)">                <path d="M0.508,0l0,-0.126l-0.275,0l0,-0.167l0.226,0l0,-0.126l-0.226,0l0,-0.156l0.263,0l0,-0.126l-0.415,0l0,0.701l0.427,0Z" style="fill:rgb(77,77,77);fill-rule:nonzero;"/>            </g>            <g transform="matrix(75.3532,0,0,128,417.118,110.024)">                <path d="M0.046,-0.343c0,0.209 0.084,0.353 0.299,0.353c0.121,0 0.192,-0.046 0.222,-0.082l-0.084,-0.108c-0.021,0.025 -0.06,0.059 -0.125,0.059c-0.105,0 -0.155,-0.087 -0.155,-0.232c0,-0.157 0.048,-0.228 0.142,-0.228c0.074,0 0.107,0.036 0.13,0.064l0.1,-0.111c-0.019,-0.021 -0.081,-0.082 -0.219,-0.082c-0.205,0 -0.31,0.146 -0.31,0.367Z" style="fill:rgb(77,77,77);fill-rule:nonzero;"/>            </g>            <g transform="matrix(75.3532,0,0,128,461.651,110.024)">                <path d="M0.489,-0.701l0,0.288l-0.255,0l0,-0.288l-0.153,0l0,0.701l0.153,0l0,-0.287l0.255,0l0,0.287l0.153,0l0,-0.701l-0.153,0Z" style="fill:rgb(77,77,77);fill-rule:nonzero;"/>            </g>        </g>        <g>            <path d="M785,133l0,49l-17,0l0,-32l-32,0l0,-17l49,0Z" style="fill:rgb(255,0,0);"/>            <g transform="matrix(1,0,0,1,27,-27)">                <path d="M785,133l0,49l-17,0l0,-32l-32,0l0,-17l49,0Z" style="fill:rgb(255,0,0);"/>            </g>        </g>        <g transform="matrix(0.763906,0,0,0.449709,373.867,295.485)">            <g transform="matrix(75.3532,0,0,128,216,110.024)">                <path d="M0.332,-0.146c-0.017,0.023 -0.05,0.04 -0.087,0.04c-0.039,0 -0.061,-0.023 -0.061,-0.055c0,-0.049 0.049,-0.072 0.148,-0.065l0,0.08Zm-0.082,-0.429c-0.125,0 -0.181,0.075 -0.203,0.106l0.107,0.079c0.014,-0.033 0.043,-0.064 0.097,-0.064c0.046,0 0.081,0.019 0.081,0.082l0,0.044c-0.178,-0.009 -0.295,0.051 -0.295,0.181c0,0.081 0.057,0.156 0.167,0.156c0.081,0 0.123,-0.035 0.144,-0.063l0.004,0c0.017,0.035 0.048,0.061 0.102,0.061c0.025,0 0.051,-0.004 0.075,-0.019l0,-0.104l-0.016,0c-0.027,0 -0.039,-0.014 -0.039,-0.046l0,-0.226c0,-0.137 -0.08,-0.187 -0.224,-0.187Z" style="fill:rgb(255,0,0);fill-rule:nonzero;"/>            </g>            <g transform="matrix(75.3532,0,0,128,257.218,110.024)">                <path d="M0.066,-0.186c0,0.134 0.058,0.197 0.179,0.197c0.071,0 0.116,-0.023 0.149,-0.063l0.004,0l0.021,0.052l0.128,0l0,-0.565l-0.151,0l0,0.391c-0.008,0.018 -0.032,0.068 -0.098,0.068c-0.051,0 -0.081,-0.032 -0.081,-0.094l0,-0.365l-0.151,0l0,0.379Z" style="fill:rgb(255,0,0);fill-rule:nonzero;"/>            </g>            <g transform="matrix(75.3532,0,0,128,303.56,110.024)">                <path d="M0.312,-0.157c0,0.026 -0.018,0.048 -0.065,0.048c-0.068,0 -0.123,-0.041 -0.148,-0.07l-0.09,0.104c0.031,0.033 0.106,0.085 0.23,0.085c0.164,0 0.223,-0.101 0.223,-0.176c0,-0.189 -0.266,-0.159 -0.266,-0.244c0,-0.026 0.022,-0.044 0.056,-0.044c0.052,0 0.091,0.03 0.111,0.053l0.097,-0.095c-0.037,-0.043 -0.102,-0.079 -0.204,-0.079c-0.131,0 -0.21,0.083 -0.21,0.175c0,0.188 0.266,0.161 0.266,0.243Z" style="fill:rgb(255,0,0);fill-rule:nonzero;"/>            </g>            <g transform="matrix(75.3532,0,0,128,340.936,110.024)">                <path d="M0.247,0.005c0.094,0 0.138,-0.021 0.157,-0.035l-0.039,-0.113c-0.022,0.017 -0.053,0.025 -0.077,0.025c-0.037,0 -0.059,-0.02 -0.059,-0.059l0,-0.273l0.141,0l0,-0.115l-0.141,0l0,-0.142l-0.096,0l-0.052,0.133l-0.073,0.03l0,0.094l0.072,0l0,0.269c0,0.137 0.07,0.186 0.167,0.186Z" style="fill:rgb(255,0,0);fill-rule:nonzero;"/>            </g>            <g transform="matrix(75.3532,0,0,128,371.228,110.024)">                <path d="M0.415,-0.572c-0.013,-0.003 -0.032,-0.005 -0.048,-0.005c-0.074,0 -0.123,0.04 -0.146,0.095l-0.004,0l-0.031,-0.083l-0.118,0l0,0.565l0.15,0l0,-0.383c0.033,-0.027 0.085,-0.045 0.132,-0.045c0.02,0 0.045,0.001 0.065,0.005l0,-0.149Z" style="fill:rgb(255,0,0);fill-rule:nonzero;"/>            </g>            <g transform="matrix(75.3532,0,0,128,402.801,110.024)">                <path d="M0.072,0l0.151,0l0,-0.565l-0.151,0l0,0.565Zm-0.013,-0.712c0,0.047 0.038,0.085 0.086,0.085c0.051,0 0.089,-0.038 0.089,-0.085c0,-0.052 -0.038,-0.09 -0.089,-0.09c-0.048,0 -0.086,0.038 -0.086,0.09Z" style="fill:rgb(255,0,0);fill-rule:nonzero;"/>            </g>            <g transform="matrix(75.3532,0,0,128,425.03,110.024)">                <path d="M0.332,-0.146c-0.017,0.023 -0.05,0.04 -0.087,0.04c-0.039,0 -0.061,-0.023 -0.061,-0.055c0,-0.049 0.049,-0.072 0.148,-0.065l0,0.08Zm-0.082,-0.429c-0.125,0 -0.181,0.075 -0.203,0.106l0.107,0.079c0.014,-0.033 0.043,-0.064 0.097,-0.064c0.046,0 0.081,0.019 0.081,0.082l0,0.044c-0.178,-0.009 -0.295,0.051 -0.295,0.181c0,0.081 0.057,0.156 0.167,0.156c0.081,0 0.123,-0.035 0.144,-0.063l0.004,0c0.017,0.035 0.048,0.061 0.102,0.061c0.025,0 0.051,-0.004 0.075,-0.019l0,-0.104l-0.016,0c-0.027,0 -0.039,-0.014 -0.039,-0.046l0,-0.226c0,-0.137 -0.08,-0.187 -0.224,-0.187Z" style="fill:rgb(255,0,0);fill-rule:nonzero;"/>            </g>        </g>    </g></svg>