<?xml version="1.0" encoding="UTF-8" standalone="no"?><!DOCTYPE svg PUBLIC "-//W3C//DTD SVG 1.1//EN" "http://www.w3.org/Graphics/SVG/1.1/DTD/svg11.dtd"><svg width="100%" height="100%" viewBox="0 0 1024 512" version="1.1" xmlns="http://www.w3.org/2000/svg" xmlns:xlink="http://www.w3.org/1999/xlink" xml:space="preserve" style="fill-rule:evenodd;clip-rule:evenodd;stroke-linejoin:round;stroke-miterlimit:2;"><title>Loanpad</title><desc>A peer-to-peer lending platform with the operational simplicity and control of an online account. Inflation-busting interest paid daily. Watch your money grow with Loanpad.Loanpad changes the landscape for investors. It offers two online lending accounts that are simple and flexible to operate, and with daily interest that beats inflation. Both are also available as an ISA for tax-free returns, and come with some degree of risk.</desc>    <g transform="matrix(1.8125,0,0,1.8125,58.9421,430.824)">        <g transform="matrix(4.16667,0,0,4.16667,333.385,-58.2866)">            <path d="M0,-9.252c0,3.21 -2.603,5.812 -5.813,5.812c-3.21,0 -5.812,-2.602 -5.812,-5.812c0,-3.21 2.602,-5.813 5.812,-5.813c3.21,0 5.813,2.603 5.813,5.813m3.223,0c0,-4.991 -4.045,-9.037 -9.036,-9.037c-4.943,0 -8.957,3.971 -9.033,8.896c-0.001,0.023 -0.003,0.046 -0.003,0.07l0,16.751c0,0.885 0.724,1.609 1.608,1.609c0.885,0 1.609,-0.724 1.609,-1.609l0,-9.769c1.572,1.325 3.602,2.125 5.819,2.125c4.991,0 9.036,-4.046 9.036,-9.036" style="fill:rgb(86,152,137);fill-rule:nonzero;"/>        </g>        <g transform="matrix(4.16667,0,0,4.16667,253.105,-83.6524)">            <path d="M0,-5.777c0,-1.735 -0.611,-2.832 -0.771,-3.127c-1.066,-1.978 -2.981,-3.043 -6.65,-3.043c-2.183,0 -4.317,0.52 -5.441,1.744l-0.013,-0.007l0,-0.045c0,-0.903 -0.74,-1.643 -1.644,-1.643c-0.903,0 -1.643,0.74 -1.643,1.643l0.009,14.782c0,0.904 0.738,1.643 1.643,1.643c0.903,0 1.643,-0.739 1.643,-1.643l0,-0.244l0.005,0.109l0,-7.986c0,-1.679 -0.005,-2.691 0.741,-3.613c0.824,-1.018 2.61,-1.957 4.483,-1.957c2.174,0 3.149,0.771 3.769,1.656c0.74,1.057 0.585,2.489 0.585,4.443l0,7.592c0,0.904 0.739,1.643 1.643,1.643c0.904,0 1.643,-0.739 1.643,-1.643l0,-0.135l0,-6.469l0,-0.681c0,-1.337 -0.002,-1.019 -0.002,-3.019" style="fill:rgb(86,152,137);fill-rule:nonzero;"/>        </g>        <g transform="matrix(4.16667,0,0,4.16667,-24.7162,-171.372)">            <path d="M0,27.345c-0.884,0 -1.608,-0.724 -1.608,-1.608l0,-24.129c0,-0.885 0.724,-1.608 1.608,-1.608c0.885,0 1.609,0.723 1.609,1.608l0,24.129c0,0.884 -0.724,1.608 -1.609,1.608" style="fill:rgb(86,152,137);fill-rule:nonzero;"/>        </g>        <g transform="matrix(4.16667,0,0,4.16667,63.4854,-64.4041)">            <path d="M0,-11.314l-2.175,0.013c1.972,2.283 1.875,5.736 -0.292,7.903c-1.982,1.981 -5.037,2.233 -7.292,0.756l-2.425,0l0,2.219c3.547,2.814 8.718,2.583 11.996,-0.695c3.465,-3.466 3.528,-9.045 0.188,-12.587l0,2.391Z" style="fill:rgb(114,115,117);fill-rule:nonzero;"/>        </g>        <g transform="matrix(4.16667,0,0,4.16667,8.4075,-127.027)">            <path d="M0,11.314l2.175,-0.013c-1.971,-2.283 -1.875,-5.736 0.292,-7.904c1.982,-1.981 5.037,-2.232 7.292,-0.755l2.425,0l0,-2.219c-3.547,-2.814 -8.717,-2.584 -11.996,0.695c-3.465,3.466 -3.528,9.045 -0.188,12.587l0,-2.391Z" style="fill:rgb(86,152,137);fill-rule:nonzero;"/>        </g>        <g transform="matrix(4.16667,0,0,4.16667,517.937,-165.993)">            <path d="M0,24.477l0,-0.068l0,-0.032c0,0.11 0.012,0.219 0.033,0.323c0.151,0.731 0.801,1.285 1.576,1.285c0.885,0 1.608,-0.723 1.608,-1.608l0,-3.125l0,-1.05c0,0 -0.654,1.604 -1.543,2.658c-0.918,1.087 -1.674,1.617 -1.674,1.617m-11.669,-7.696c0,-3.21 2.602,-5.813 5.812,-5.813c3.211,0 5.813,2.603 5.813,5.813c0,3.21 -2.602,5.813 -5.813,5.813c-3.21,0 -5.812,-2.603 -5.812,-5.813m-3.224,0c0,4.99 4.046,9.036 9.036,9.036c4.943,0 8.957,-3.97 9.033,-8.895c0.001,-0.024 0.004,-0.047 0.004,-0.07l0,-16.751c0,-0.885 -0.724,-1.609 -1.609,-1.609c-0.885,0 -1.609,0.724 -1.609,1.609l0,9.769c-1.572,-1.326 -3.602,-2.125 -5.819,-2.125c-4.99,0 -9.036,4.045 -9.036,9.036" style="fill:rgb(86,152,137);fill-rule:nonzero;"/>        </g>        <g transform="matrix(4.16667,0,0,4.16667,424.305,-127.439)">            <path d="M0,15.224l0,-0.068l0,-0.032c0,0.11 0.012,0.219 0.033,0.323c0.151,0.731 0.801,1.285 1.576,1.285c0.885,0 1.608,-0.723 1.608,-1.608l0,-3.125l0,-1.05c0,0 -0.654,1.604 -1.543,2.658c-0.918,1.087 -1.674,1.617 -1.674,1.617m-11.669,-7.696c0,-3.21 2.602,-5.813 5.812,-5.813c3.211,0 5.813,2.603 5.813,5.813c0,3.21 -2.602,5.813 -5.813,5.813c-3.21,0 -5.812,-2.603 -5.812,-5.813m-3.224,0c0,4.99 4.046,9.036 9.036,9.036c4.943,0 8.957,-3.97 9.033,-8.895c0.001,-0.024 0.004,-0.047 0.004,-0.07l0,-7.445c0,-0.885 -0.724,-1.609 -1.609,-1.609c-0.885,0 -1.609,0.724 -1.609,1.609l0,0.463c-1.572,-1.326 -3.602,-2.125 -5.819,-2.125c-4.99,0 -9.036,4.045 -9.036,9.036" style="fill:rgb(86,152,137);fill-rule:nonzero;"/>        </g>        <g transform="matrix(4.16667,0,0,4.16667,152.395,-127.439)">            <path d="M0,15.224l0,-0.068l0,-0.032c0,0.11 0.011,0.219 0.033,0.323c0.151,0.731 0.801,1.285 1.575,1.285c0.885,0 1.609,-0.723 1.609,-1.608l0,-3.125l0,-1.05c0,0 -0.655,1.604 -1.543,2.658c-0.918,1.087 -1.674,1.617 -1.674,1.617m-11.67,-7.696c0,-3.21 2.603,-5.813 5.813,-5.813c3.211,0 5.813,2.603 5.813,5.813c0,3.21 -2.602,5.813 -5.813,5.813c-3.21,0 -5.813,-2.603 -5.813,-5.813m-3.223,0c0,4.99 4.045,9.036 9.036,9.036c4.943,0 8.957,-3.97 9.033,-8.895c0.001,-0.024 0.003,-0.047 0.003,-0.07l0,-7.445c0,-0.885 -0.723,-1.609 -1.608,-1.609c-0.885,0 -1.609,0.724 -1.609,1.609l0,0.463c-1.572,-1.326 -3.602,-2.125 -5.819,-2.125c-4.991,0 -9.036,4.045 -9.036,9.036" style="fill:rgb(86,152,137);fill-rule:nonzero;"/>        </g>    </g></svg>