<?xml version="1.0" encoding="UTF-8" standalone="no"?><!DOCTYPE svg PUBLIC "-//W3C//DTD SVG 1.1//EN" "http://www.w3.org/Graphics/SVG/1.1/DTD/svg11.dtd"><svg width="100%" height="100%" viewBox="0 0 1024 512" version="1.1" xmlns="http://www.w3.org/2000/svg" xmlns:xlink="http://www.w3.org/1999/xlink" xml:space="preserve" style="fill-rule:evenodd;clip-rule:evenodd;stroke-linejoin:round;stroke-miterlimit:2;"><title>Mongoose Crowd</title><desc>Mongoose Crowd offers bond and share investments in renewable energy projects across the UKThe team at Mongoose is now applying their renewable energy finance expertise to crowdfunding. Bonds will typically offer between 4-7% interest</desc>    <g transform="matrix(1.63561,0,0,1.63561,-287.531,-217.125)">        <g>            <path d="M641.445,291.691c-3.955,7.237 -9.469,11.73 -15.564,11.73c-6.095,0 -11.609,-4.493 -15.564,-11.73c4.678,2.674 9.966,4.181 15.564,4.181c5.598,0 10.886,-1.507 15.564,-4.181Z" style="fill:rgb(134,195,65);"/>            <path d="M626.943,252.325c4.676,3.088 30.189,20.192 30.189,38.143c0,17.951 -12.116,27.422 -30.703,27.422c-18.586,0 -30.178,-9.436 -30.178,-27.387c0,-17.952 26.051,-35.603 30.692,-38.178Zm-0.117,16.312c2.492,1.646 16.088,12.761 16.088,22.327c0,9.566 -6.457,14.613 -16.362,14.613c-9.905,0 -16.082,-5.028 -16.082,-14.594c0,-9.567 13.883,-20.974 16.356,-22.346Z" style="fill:rgb(0,167,227);"/>            <path d="M591.516,291.083c-4.176,-5.699 -6.602,-12.487 -6.602,-19.77c0,-20.17 18.601,-36.545 41.513,-36.545c22.911,0 41.512,16.375 41.512,36.545c0,7.551 -2.607,14.571 -7.073,20.399c-1.271,-8.145 -3.985,-15.544 -7.75,-21.655c-1.257,-11.864 -12.612,-21.163 -26.414,-21.163c-12.908,0 -23.675,8.132 -26.046,18.889c-4.435,6.357 -7.657,14.368 -9.14,23.3Z" style="fill:rgb(134,195,65);"/>        </g>        <g transform="matrix(2.10375,0,0,2.10375,-431.304,12.2538)">            <g transform="matrix(24,0,0,24,455.68,170.841)">                <path d="M0.093,0l0,-0.723l0.404,0l0,0.077l-0.301,0l0,0.232l0.252,0l0,0.076l-0.252,0l0,0.261l0.322,0l0,0.077l-0.425,0Z" style="fill:rgb(134,195,65);fill-rule:nonzero;"/>            </g>            <g transform="matrix(24,0,0,24,476.884,170.841)">                <path d="M0.093,0l0,-0.723l0.101,0l0.364,0.558l0,-0.558l0.088,0l0,0.723l-0.101,0l-0.364,-0.558l0,0.558l-0.088,0Z" style="fill:rgb(134,195,65);fill-rule:nonzero;"/>            </g>            <g transform="matrix(24,0,0,24,501.156,170.841)">                <path d="M0.093,0l0,-0.723l0.404,0l0,0.077l-0.301,0l0,0.232l0.252,0l0,0.076l-0.252,0l0,0.261l0.322,0l0,0.077l-0.425,0Z" style="fill:rgb(134,195,65);fill-rule:nonzero;"/>            </g>            <g transform="matrix(24,0,0,24,521.918,170.841)">                <path d="M0.093,0l0,-0.723l0.219,0c0.069,0 0.122,0.016 0.159,0.046c0.037,0.031 0.056,0.075 0.056,0.134c0,0.096 -0.049,0.164 -0.146,0.205l0.241,0.338l-0.126,0l-0.205,-0.306l-0.096,0l0,0.306l-0.102,0Zm0.102,-0.382l0.033,0c0.129,0 0.193,-0.051 0.193,-0.152c0,-0.075 -0.054,-0.112 -0.162,-0.112l-0.064,0l0,0.264Z" style="fill:rgb(134,195,65);fill-rule:nonzero;"/>            </g>            <g transform="matrix(24,0,0,24,542.953,170.841)">                <path d="M0.636,-0.02c-0.087,0.026 -0.164,0.038 -0.229,0.038c-0.115,0 -0.203,-0.033 -0.264,-0.098c-0.062,-0.066 -0.092,-0.159 -0.092,-0.281c0,-0.12 0.031,-0.213 0.093,-0.28c0.062,-0.066 0.149,-0.1 0.262,-0.1c0.073,0 0.15,0.011 0.229,0.033l0,0.095c-0.099,-0.034 -0.176,-0.051 -0.229,-0.051c-0.078,0 -0.139,0.026 -0.182,0.08c-0.043,0.053 -0.064,0.127 -0.064,0.224c0,0.095 0.023,0.169 0.069,0.222c0.046,0.053 0.111,0.079 0.194,0.079c0.035,0 0.071,-0.006 0.111,-0.018l0,-0.235l0.102,0l0,0.292Z" style="fill:rgb(134,195,65);fill-rule:nonzero;"/>            </g>            <g transform="matrix(24,0,0,24,565.958,170.841)">                <path d="M0.25,0l0,-0.302l-0.242,-0.421l0.117,0l0.188,0.327l0.202,-0.327l0.095,0l-0.258,0.419l0,0.304l-0.102,0Z" style="fill:rgb(134,195,65);fill-rule:nonzero;"/>            </g>        </g>        <path d="M572.639,224.136l0,0.028" style="fill:none;"/>        <path d="M178.365,227.494c0,0 -3.283,7.452 0.398,10.459c3.681,3.006 7.419,-3.703 15.523,-10.797c4.555,-3.987 10.884,-4.384 10.615,-0.257c-0.348,5.323 -2.53,32.005 -6.087,50.544c-2.632,13.716 -6.303,22.892 -6.303,24.168c0,2.999 -0.815,8.494 1.382,10.127c5.924,4.404 17.416,5.007 18.779,-1.515c6.582,-31.511 29.753,-86.465 40.058,-88.896c2.79,-0.658 5.017,1.448 6.102,3.687c2.998,6.185 1.432,16.208 1.306,18.397c-1.107,19.34 -12.756,57.46 -10.956,63.428c1.799,5.968 2.024,8.136 7.403,8.206c5.379,0.069 11.793,-1.76 12.35,-6.583c0.557,-4.823 14.44,-90.406 39.853,-86.704c9.37,1.365 1.866,22.22 -2.893,48.797c-4.76,26.577 -6.625,34.705 2.51,40.065c9.135,5.359 24.042,6.798 31.318,-1.341c3.842,-4.297 7.448,-4.405 7.448,-4.405c0,0 1.88,10.208 14.865,9.932c12.985,-0.276 24.382,-5.241 28.659,-15.89c5.466,-13.61 2.227,-17.396 3.441,-20.298c0.297,-0.712 6.734,-2.368 6.734,-2.368c0,0 -2.211,10.681 -2.211,21.382c0,6.459 -0.706,9.417 2.081,13.885c1.831,2.936 6.843,4.237 10.091,3.059c8.193,-2.971 23.719,-36.191 23.719,-36.191c0,0 -4.57,29.021 2.671,33.451c14.381,8.798 18.99,-3.496 25.995,-3.718c2.859,-0.091 6.394,7.128 14.54,7.418c8.147,0.29 13.009,-5.62 16.599,-6.493c3.156,-0.768 -2.617,5.582 -5.009,7.317c-12.64,9.173 -38.911,32.948 -38.235,42.463c1.066,14.994 9.69,14.392 20.587,14.897c7.651,0.354 29.042,-14.325 32.933,-31.65c3.891,-17.326 5.366,-20.346 5.366,-20.346l23.955,-15.092c0,0 6.634,9.807 15.664,10.078c9.029,0.272 26.506,-4.165 30.811,-23.88c4.306,-19.715 -6.903,-32.231 -10.349,-34.939c-3.447,-2.708 -15.695,-4.763 -23.112,-0.454c-7.416,4.31 -17.095,10.133 -18.52,23.81c-1.425,13.677 0.009,13.916 0.009,13.916c0,0 -15.995,12.422 -16.873,12.695c-0.877,0.273 5.134,-24.255 6.28,-33.958c0.847,-7.177 0.065,-11.825 -0.4,-13.759c-0.191,-0.611 -0.737,-1.044 -1.376,-1.091c-2.306,-0.167 -7.598,-0.553 -9.063,-0.829c-1.578,-0.297 -3.461,-4.723 -6.541,-4.582c-5.845,0.267 -15.174,1.706 -21.381,7.726c-4.163,4.038 -16.599,16.942 -17.373,26.097c-0.774,9.155 -0.751,7.498 -0.751,7.498c0,0 -6.626,4.994 -9.809,5.133c-6.06,0.263 -4.715,-17.24 -0.244,-29.512c3.893,-10.686 -2.15,-16.855 -6.028,-17.026c-3.878,-0.171 -6.413,-1.55 -10.066,3.87c-3.653,5.42 -16.174,22.695 -16.174,22.695c0,0 2.948,-14.212 2.65,-18.933c-0.203,-3.211 -0.311,-4.568 -1.595,-5.866c-2.16,-2.182 -6.826,-2.787 -9.455,-1.354c-4.192,2.286 -6.579,9.242 -10.307,10.206c-5.581,1.444 -11.241,0.441 -11.241,0.441c0,0 -5.176,-10.273 -12.012,-10.638c-6.837,-0.365 -18.554,-0.351 -26.291,9.592c-7.738,9.943 -9.736,17.837 -9.287,22.209c0.448,4.371 -4.312,8.735 -4.312,8.735c0,0 -8.865,7.46 -12.976,5.033c-4.112,-2.426 -5.761,-3.417 -1.194,-20.235c4.567,-16.818 11.364,-47.902 8.349,-56.583c-3.015,-8.681 -7.438,-19.429 -18.831,-17.747c-11.393,1.682 -24.623,8.093 -30.822,22.178c-6.2,14.084 -8.209,17.184 -8.209,17.184c0,0 2.663,-12.42 2.559,-18.863c-0.105,-6.443 -5.654,-18.137 -10.654,-19.757c-5.59,-1.81 -11.683,-0.539 -18.791,3.97c-7.108,4.509 -17.412,19.831 -24.679,34.794c-2.177,4.484 -4.566,8.678 -4.566,8.678c0,0 4.003,-30.969 3.45,-34.576c-0.553,-3.606 -4.045,-12.298 -12.354,-11.906c-8.309,0.392 -9.052,-0.674 -15.376,3.482c-8.237,5.413 -14.347,17.33 -14.347,17.33Zm310.61,104.371c0,0 -21.866,21.272 -22.708,24.04c-0.535,1.757 1.318,4.499 1.988,4.637c2.141,0.442 7.698,-0.732 9.588,-3.231c4.087,-5.404 11.31,-17.079 11.716,-20.772c0.406,-3.692 -0.584,-4.674 -0.584,-4.674Zm70.173,-65.403c6.407,0 9.013,9.238 9.013,18.203c0,8.964 -8.032,19.195 -14.438,19.195c-6.407,0 -9.905,-5.863 -9.905,-14.828c0,-8.965 8.924,-22.57 15.33,-22.57Zm-187.3,-0.524c6.406,0 8.1,7.123 8.1,16.088c0,8.965 -6.946,20.344 -13.352,20.344c-6.407,0 -8.932,-5.808 -8.932,-14.772c0,-8.965 7.777,-21.66 14.184,-21.66Zm129.47,1.776c0,0 -3.911,22.315 -7.977,27.665c-4.066,5.35 -3.874,6.564 -9.235,6.656c-3.669,0.062 -6.037,-3.051 -4.618,-11.204c1.419,-8.152 8.5,-19.613 14.274,-22.373c5.775,-2.76 7.556,-0.744 7.556,-0.744Z" style="fill:rgb(0,167,227);"/>        <path d="M676.685,286.622c0,0 14.459,-13.827 19.027,-19.67c4.567,-5.844 9.403,-12.953 13.74,-12.885c4.338,0.067 11.386,-0.439 12.527,3.971c0.935,3.613 -0.75,5.782 -8.361,12.894c-2.393,2.237 -0.267,5.629 -0.267,5.629c0,0 2.651,3.369 3.711,12.453c0.581,4.979 -0.064,9.252 -0.064,9.252l15.344,-6.198c0,0 -0.662,-5.464 2.437,-15.688c3.099,-10.225 12.247,-18.777 17.481,-20.266c5.234,-1.489 14.85,-3.904 20.306,0.426c5.456,4.329 9.896,7.137 8.134,14.74c-1.762,7.604 -2.86,8.767 -7.242,13.039c-4.381,4.272 -10.588,7.918 -13.817,9.695c-3.23,1.778 -6.877,1.752 -6.877,1.752c0,0 -0.006,2.601 2.193,3.093c2.199,0.491 1.507,5.079 13.121,1.073c11.614,-4.005 17.662,-8.068 17.662,-8.068l5.059,-4.255l9.838,9.761c0,0 -15.261,10.54 -18.957,11.981c-3.695,1.442 -13.312,5.963 -21.559,5.468c-8.247,-0.495 -13.05,-1.708 -15.401,-3.854c-2.351,-2.145 -6.684,-6.256 -6.684,-6.256c0,0 -13.686,4.943 -21.125,7.318c-7.439,2.376 -17.375,4.266 -25.072,3.536c-7.696,-0.731 -13.926,-3.399 -15.355,-5.474c-1.43,-2.075 -2.425,-7.167 -2.425,-7.167l-6.239,0.227c0,0 -5.017,-2.05 -2.969,-6.009c2.048,-3.958 11.834,-10.518 11.834,-10.518Zm5.815,11.236l16.544,-15.017c0,0 2.799,8.268 2.648,13.107c-0.082,2.636 -2.123,7.47 -6.676,7.444c-9.047,-0.052 -12.516,-5.534 -12.516,-5.534Zm68.886,-12.822c0,0 7.053,-0.814 15.106,-9.154c1.339,-1.386 2.103,-9.649 -1.858,-9.426c-3.961,0.223 -10.521,1.852 -12.139,7.344c-1.618,5.491 -1.109,11.236 -1.109,11.236Z" style="fill:rgb(0,167,227);"/>    </g></svg>