<?xml version="1.0" encoding="UTF-8" standalone="no"?><!DOCTYPE svg PUBLIC "-//W3C//DTD SVG 1.1//EN" "http://www.w3.org/Graphics/SVG/1.1/DTD/svg11.dtd"><svg width="100%" height="100%" viewBox="0 0 1024 512" version="1.1" xmlns="http://www.w3.org/2000/svg" xmlns:xlink="http://www.w3.org/1999/xlink" xml:space="preserve" style="fill-rule:evenodd;clip-rule:evenodd;stroke-linejoin:round;stroke-miterlimit:2;"><title>LendingCrowd</title><desc>LendingCrowd was launched in 2014 to offer businesses keener loan rates and investors better returns. We do this by providing a leading-edge fintech lending service that brings interested parties together – hence LendingCrowd.We believe people looking to invest their money seek more control, convenience and faster, easier access to competitive products to achieve better financial returns.</desc>    <g id="lendingcrowd-512x256.svg" transform="matrix(2.22372,0,0,2.22372,-57.2845,-28.6367)">        <path d="M141.84,139.27l17.87,0l0,4.7l-23.46,0l0,-41.3l5.59,0l0,36.6Z" style="fill:rgb(26,53,97);fill-rule:nonzero;"/>        <path d="M174.55,118.09c-2.162,-0.119 -4.28,0.659 -5.85,2.15c-1.526,1.649 -2.459,3.761 -2.65,6l15.88,0c0.012,-1.109 -0.153,-2.213 -0.49,-3.27c-0.301,-0.942 -0.791,-1.813 -1.44,-2.56c-0.638,-0.724 -1.431,-1.295 -2.32,-1.67c-0.992,-0.409 -2.057,-0.61 -3.13,-0.59m-0.11,-3.78c1.655,-0.017 3.297,0.281 4.84,0.88c1.443,0.563 2.749,1.43 3.83,2.54c1.118,1.171 1.977,2.565 2.52,4.09c0.633,1.781 0.941,3.66 0.91,5.55c0.046,0.55 -0.043,1.103 -0.26,1.61c-0.238,0.302 -0.62,0.454 -1,0.4l-19.4,0c0.006,1.632 0.258,3.254 0.75,4.81c0.398,1.256 1.044,2.419 1.9,3.42c0.792,0.881 1.778,1.566 2.88,2c1.194,0.467 2.468,0.698 3.75,0.68c1.126,0.021 2.25,-0.13 3.33,-0.45c0.83,-0.266 1.636,-0.6 2.41,-1c0.581,-0.303 1.145,-0.637 1.69,-1c0.339,-0.259 0.745,-0.416 1.17,-0.45c0.396,-0.024 0.776,0.163 1,0.49l1.44,1.87c-0.65,0.783 -1.419,1.458 -2.28,2c-0.891,0.571 -1.844,1.041 -2.84,1.4c-1.017,0.366 -2.064,0.64 -3.13,0.82c-1.057,0.179 -2.128,0.27 -3.2,0.27c-1.907,0.029 -3.802,-0.311 -5.58,-1c-1.673,-0.663 -3.179,-1.688 -4.41,-3c-1.297,-1.41 -2.285,-3.076 -2.9,-4.89c-0.714,-2.156 -1.052,-4.419 -1,-6.69c-0.015,-1.943 0.303,-3.874 0.94,-5.71c0.585,-1.698 1.503,-3.262 2.7,-4.6c1.196,-1.311 2.659,-2.352 4.29,-3.05c1.805,-0.763 3.75,-1.141 5.71,-1.11" style="fill:rgb(26,53,97);fill-rule:nonzero;"/>        <path d="M191.84,144l0,-29.2l3.05,0c0.662,-0.046 1.26,0.417 1.38,1.07l0.4,3.17c1.218,-1.362 2.654,-2.511 4.25,-3.4c1.669,-0.89 3.539,-1.337 5.43,-1.3c1.446,-0.029 2.882,0.24 4.22,0.79c1.179,0.501 2.224,1.271 3.05,2.25c0.849,1.03 1.482,2.22 1.86,3.5c0.436,1.47 0.648,2.997 0.63,4.53l0,18.59l-5.11,0l0,-18.62c0.114,-1.837 -0.421,-3.657 -1.51,-5.14c-1.176,-1.293 -2.888,-1.969 -4.63,-1.83c-1.487,-0.01 -2.951,0.366 -4.25,1.09c-1.378,0.786 -2.612,1.8 -3.65,3l0,21.5l-5.12,0Z" style="fill:rgb(26,53,97);fill-rule:nonzero;"/>        <path d="M233.35,140.22c1.545,0.035 3.07,-0.363 4.4,-1.15c1.352,-0.858 2.53,-1.964 3.47,-3.26l0,-14.12c-0.789,-1.14 -1.856,-2.059 -3.1,-2.67c-1.175,-0.516 -2.447,-0.776 -3.73,-0.76c-2.444,-0.131 -4.8,0.961 -6.28,2.91c-1.46,1.94 -2.19,4.707 -2.19,8.3c-0.028,1.644 0.137,3.285 0.49,4.89c0.257,1.197 0.747,2.331 1.44,3.34c0.588,0.839 1.394,1.503 2.33,1.92c1.004,0.418 2.083,0.622 3.17,0.6m9.94,3.75c-0.662,0.046 -1.26,-0.417 -1.38,-1.07l-0.46,-3.54c-1.191,1.469 -2.642,2.706 -4.28,3.65c-1.688,0.933 -3.592,1.405 -5.52,1.37c-1.572,0.01 -3.127,-0.331 -4.55,-1c-1.375,-0.652 -2.572,-1.626 -3.49,-2.84c-1.032,-1.4 -1.786,-2.986 -2.22,-4.67c-0.549,-2.098 -0.811,-4.261 -0.78,-6.43c-0.014,-2.032 0.279,-4.055 0.87,-6c0.521,-1.751 1.365,-3.39 2.49,-4.83c2.223,-2.84 5.665,-4.465 9.27,-4.38c1.575,-0.042 3.14,0.269 4.58,0.91c1.288,0.621 2.443,1.487 3.4,2.55l0,-16.2l5.13,0l0,42.51l-3.06,-0.03Z" style="fill:rgb(26,53,97);fill-rule:nonzero;"/>        <path d="M259.43,144l-5.13,0l0,-29.2l5.13,0l0,29.2Zm1.15,-38.36c0.004,0.483 -0.099,0.961 -0.3,1.4c-0.2,0.428 -0.474,0.818 -0.81,1.15c-0.336,0.335 -0.734,0.603 -1.17,0.79c-0.445,0.193 -0.925,0.292 -1.41,0.29c-0.482,0.004 -0.959,-0.095 -1.4,-0.29c-0.429,-0.189 -0.82,-0.457 -1.15,-0.79c-0.332,-0.331 -0.6,-0.721 -0.79,-1.15c-0.195,-0.441 -0.293,-0.918 -0.29,-1.4c-0.002,-0.491 0.097,-0.978 0.29,-1.43c0.185,-0.441 0.453,-0.841 0.79,-1.18c0.33,-0.333 0.721,-0.601 1.15,-0.79c0.441,-0.195 0.918,-0.294 1.4,-0.29c0.485,-0.002 0.965,0.097 1.41,0.29c0.436,0.187 0.834,0.455 1.17,0.79c0.34,0.34 0.615,0.74 0.81,1.18c0.199,0.45 0.302,0.938 0.3,1.43" style="fill:rgb(26,53,97);fill-rule:nonzero;"/>        <path d="M267.24,144l0,-29.2l3.05,0c0.662,-0.046 1.26,0.417 1.38,1.07l0.4,3.17c1.218,-1.362 2.654,-2.511 4.25,-3.4c1.669,-0.89 3.539,-1.337 5.43,-1.3c1.446,-0.029 2.882,0.24 4.22,0.79c1.179,0.501 2.224,1.271 3.05,2.25c0.847,1.031 1.48,2.221 1.86,3.5c0.436,1.47 0.648,2.997 0.63,4.53l0,18.59l-5.13,0l0,-18.62c0.114,-1.837 -0.421,-3.657 -1.51,-5.14c-1.176,-1.293 -2.888,-1.969 -4.63,-1.83c-1.484,-0.008 -2.944,0.367 -4.24,1.09c-1.378,0.786 -2.612,1.8 -3.65,3l0,21.5l-5.11,0Z" style="fill:rgb(26,53,97);fill-rule:nonzero;"/>        <path d="M308,129.7c0.935,0.017 1.865,-0.128 2.75,-0.43c0.745,-0.256 1.427,-0.669 2,-1.21c0.538,-0.522 0.951,-1.157 1.21,-1.86c0.274,-0.763 0.41,-1.569 0.4,-2.38c0.08,-1.588 -0.512,-3.139 -1.63,-4.27c-2.788,-2.105 -6.662,-2.105 -9.45,0c-1.117,1.132 -1.709,2.682 -1.63,4.27c-0.01,0.813 0.133,1.62 0.42,2.38c0.264,0.703 0.681,1.338 1.22,1.86c0.573,0.541 1.255,0.953 2,1.21c0.871,0.302 1.788,0.448 2.71,0.43m9.11,15.75c0.031,-0.652 -0.188,-1.292 -0.61,-1.79c-0.455,-0.465 -1.019,-0.809 -1.64,-1c-0.775,-0.264 -1.576,-0.445 -2.39,-0.54c-0.948,-0.121 -1.904,-0.182 -2.86,-0.18l-3.05,0c-1.013,0.007 -2.022,-0.124 -3,-0.39c-1.006,0.456 -1.913,1.105 -2.67,1.91c-0.666,0.735 -1.025,1.698 -1,2.69c-0.002,0.644 0.171,1.276 0.5,1.83c0.382,0.611 0.912,1.117 1.54,1.47c0.813,0.467 1.693,0.805 2.61,1c1.216,0.257 2.457,0.377 3.7,0.36c1.25,0.015 2.498,-0.113 3.72,-0.38c0.98,-0.21 1.919,-0.578 2.78,-1.09c0.702,-0.418 1.298,-0.993 1.74,-1.68c0.403,-0.644 0.615,-1.39 0.61,-2.15m-9.09,-31.23c1.199,-0.007 2.395,0.134 3.56,0.42c1.054,0.262 2.065,0.676 3,1.23l7.93,0l0,1.9c0,0.667 -0.403,1.07 -1.21,1.21l-3.31,0.46c0.671,1.29 1.014,2.726 1,4.18c0.019,1.338 -0.262,2.664 -0.82,3.88c-0.535,1.153 -1.313,2.176 -2.28,3c-1.019,0.851 -2.195,1.497 -3.46,1.9c-1.422,0.454 -2.907,0.677 -4.4,0.66c-1.303,0.007 -2.601,-0.157 -3.86,-0.49c-0.544,0.333 -1.019,0.768 -1.4,1.28c-0.29,0.388 -0.455,0.856 -0.47,1.34c-0.03,0.651 0.291,1.27 0.84,1.62c0.678,0.412 1.434,0.681 2.22,0.79c1.038,0.169 2.088,0.249 3.14,0.24l3.52,0c1.204,-0.002 2.405,0.105 3.59,0.32c1.091,0.172 2.15,0.51 3.14,1c0.9,0.464 1.665,1.153 2.22,2c0.598,1.004 0.89,2.162 0.84,3.33c-0.006,1.285 -0.329,2.549 -0.94,3.68c-0.667,1.232 -1.587,2.309 -2.7,3.16c-1.289,0.986 -2.741,1.737 -4.29,2.22c-1.857,0.578 -3.795,0.858 -5.74,0.83c-1.889,0.029 -3.774,-0.182 -5.61,-0.63c-1.418,-0.341 -2.77,-0.916 -4,-1.7c-0.975,-0.626 -1.79,-1.472 -2.38,-2.47c-0.516,-0.89 -0.789,-1.901 -0.79,-2.93c-0.032,-1.357 0.458,-2.675 1.37,-3.68c1.041,-1.094 2.331,-1.921 3.76,-2.41c-0.784,-0.34 -1.471,-0.869 -2,-1.54c-0.526,-0.754 -0.787,-1.662 -0.74,-2.58c0.005,-0.446 0.082,-0.889 0.23,-1.31c0.169,-0.479 0.408,-0.931 0.71,-1.34c0.723,-0.991 1.678,-1.791 2.78,-2.33c-1.39,-0.756 -2.559,-1.863 -3.39,-3.21c-0.836,-1.415 -1.259,-3.037 -1.22,-4.68c-0.019,-1.338 0.262,-2.664 0.82,-3.88c0.532,-1.157 1.314,-2.182 2.29,-3c1.035,-0.848 2.223,-1.49 3.5,-1.89c1.439,-0.453 2.941,-0.676 4.45,-0.66" style="fill:rgb(26,53,97);fill-rule:nonzero;"/>        <path d="M358.76,135.44c0.319,0.003 0.623,0.137 0.84,0.37l2.19,2.39c-1.69,1.958 -3.79,3.522 -6.15,4.58c-2.757,1.161 -5.73,1.721 -8.72,1.64c-2.776,0.039 -5.532,-0.484 -8.1,-1.54c-2.352,-0.979 -4.467,-2.452 -6.2,-4.32c-1.767,-1.933 -3.127,-4.201 -4,-6.67c-0.967,-2.749 -1.445,-5.646 -1.41,-8.56c-0.035,-2.923 0.477,-5.826 1.51,-8.56c0.944,-2.497 2.39,-4.775 4.25,-6.69c1.86,-1.888 4.095,-3.367 6.56,-4.34c2.697,-1.058 5.574,-1.581 8.47,-1.54c5.092,-0.185 10.047,1.708 13.72,5.24l-1.84,2.56c-0.125,0.185 -0.281,0.347 -0.46,0.48c-0.224,0.139 -0.486,0.206 -0.75,0.19c-0.284,-0.012 -0.558,-0.106 -0.79,-0.27l-1,-0.68c-0.38,-0.27 -0.84,-0.56 -1.35,-0.86c-0.587,-0.343 -1.203,-0.634 -1.84,-0.87c-0.806,-0.295 -1.636,-0.522 -2.48,-0.68c-1.076,-0.193 -2.167,-0.283 -3.26,-0.27c-2.079,-0.025 -4.142,0.363 -6.07,1.14c-1.793,0.73 -3.409,1.834 -4.74,3.24c-1.374,1.48 -2.429,3.226 -3.1,5.13c-0.766,2.174 -1.142,4.466 -1.11,6.77c-0.039,2.344 0.337,4.677 1.11,6.89c0.655,1.884 1.674,3.62 3,5.11c1.261,1.384 2.811,2.473 4.54,3.19c1.792,0.737 3.713,1.107 5.65,1.09c1.107,0.007 2.213,-0.067 3.31,-0.22c0.928,-0.132 1.839,-0.36 2.72,-0.68c0.822,-0.299 1.607,-0.692 2.34,-1.17c0.766,-0.507 1.491,-1.072 2.17,-1.69c0.267,-0.265 0.624,-0.419 1,-0.43" style="fill:rgb(112,196,215);fill-rule:nonzero;"/>        <path d="M367.17,144l0,-29.2l2.94,0c0.41,-0.043 0.821,0.072 1.15,0.32c0.254,0.313 0.404,0.698 0.43,1.1l0.34,4.55c0.855,-1.853 2.125,-3.485 3.71,-4.77c2.11,-1.563 4.817,-2.093 7.36,-1.44c0.637,0.174 1.249,0.429 1.82,0.76l-0.66,3.84c-0.074,0.427 -0.457,0.736 -0.89,0.72c-0.424,-0.031 -0.842,-0.121 -1.24,-0.27c-0.759,-0.206 -1.544,-0.297 -2.33,-0.27c-1.634,-0.051 -3.231,0.505 -4.48,1.56c-1.342,1.253 -2.37,2.805 -3,4.53l0,18.57l-5.15,0Z" style="fill:rgb(112,196,215);fill-rule:nonzero;"/>        <path d="M401.07,140.37c2.501,0.176 4.93,-0.914 6.46,-2.9c1.42,-1.933 2.13,-4.627 2.13,-8.08c0,-3.453 -0.71,-6.163 -2.13,-8.13c-1.527,-1.991 -3.957,-3.086 -6.46,-2.91c-1.31,-0.032 -2.61,0.224 -3.81,0.75c-1.064,0.487 -1.991,1.229 -2.7,2.16c-0.763,1.038 -1.31,2.218 -1.61,3.47c-0.372,1.525 -0.55,3.091 -0.53,4.66c-0.001,1.555 0.194,3.104 0.58,4.61c0.299,1.244 0.846,2.414 1.61,3.44c0.711,0.926 1.638,1.665 2.7,2.15c1.2,0.526 2.5,0.782 3.81,0.75m0,-26.06c1.978,-0.028 3.943,0.336 5.78,1.07c1.663,0.665 3.159,1.69 4.38,3c1.241,1.372 2.184,2.986 2.77,4.74c1.288,4.046 1.288,8.394 0,12.44c-0.588,1.751 -1.531,3.361 -2.77,4.73c-1.218,1.314 -2.714,2.34 -4.38,3c-3.724,1.404 -7.836,1.404 -11.56,0c-1.666,-0.665 -3.165,-1.689 -4.39,-3c-1.249,-1.367 -2.202,-2.978 -2.8,-4.73c-1.304,-4.043 -1.304,-8.397 0,-12.44c0.596,-1.756 1.55,-3.37 2.8,-4.74c1.227,-1.308 2.726,-2.332 4.39,-3c1.837,-0.734 3.802,-1.098 5.78,-1.07" style="fill:rgb(112,196,215);fill-rule:nonzero;"/>        <path d="M416.26,114.77l4,0c0.359,-0.006 0.711,0.107 1,0.32c0.254,0.19 0.446,0.451 0.55,0.75l5.59,18.79c0.15,0.69 0.3,1.36 0.43,2c0.13,0.64 0.25,1.29 0.34,1.95c0.153,-0.667 0.327,-1.317 0.52,-1.95l0.61,-2l6.17,-18.91c0.092,-0.284 0.266,-0.534 0.5,-0.72c0.26,-0.2 0.582,-0.302 0.91,-0.29l2.22,0c0.357,-0.025 0.712,0.078 1,0.29c0.243,0.181 0.424,0.432 0.52,0.72l6,18.91c0.213,0.667 0.4,1.333 0.56,2c0.16,0.65 0.32,1.3 0.47,1.93c0.1,-0.633 0.227,-1.3 0.38,-2c0.15,-0.69 0.32,-1.33 0.49,-1.93l5.71,-18.79c0.096,-0.306 0.289,-0.573 0.55,-0.76c0.288,-0.213 0.642,-0.319 1,-0.3l3.86,0l-9.46,29.22l-4.06,0c-0.5,0 -0.833,-0.333 -1,-1l-6.46,-19.8c-0.15,-0.439 -0.274,-0.886 -0.37,-1.34c-0.093,-0.453 -0.19,-0.9 -0.29,-1.34c-0.09,0.44 -0.19,0.9 -0.29,1.36c-0.095,0.457 -0.219,0.908 -0.37,1.35l-6.59,19.77c-0.097,0.574 -0.598,0.998 -1.18,1l-3.86,0l-9.45,-29.23Z" style="fill:rgb(112,196,215);fill-rule:nonzero;"/>        <path d="M472.34,140.22c1.545,0.035 3.07,-0.363 4.4,-1.15c1.353,-0.857 2.53,-1.963 3.47,-3.26l0,-14.12c-0.789,-1.14 -1.856,-2.059 -3.1,-2.67c-1.175,-0.516 -2.447,-0.776 -3.73,-0.76c-2.444,-0.131 -4.8,0.961 -6.28,2.91c-1.46,1.94 -2.19,4.707 -2.19,8.3c-0.029,1.644 0.136,3.285 0.49,4.89c0.259,1.196 0.748,2.331 1.44,3.34c0.592,0.84 1.401,1.503 2.34,1.92c1.004,0.418 2.083,0.622 3.17,0.6m9.94,3.75c-0.662,0.046 -1.26,-0.417 -1.38,-1.07l-0.46,-3.54c-1.191,1.469 -2.642,2.706 -4.28,3.65c-1.688,0.933 -3.592,1.405 -5.52,1.37c-1.572,0.01 -3.127,-0.331 -4.55,-1c-1.375,-0.651 -2.573,-1.626 -3.49,-2.84c-1.033,-1.4 -1.787,-2.985 -2.22,-4.67c-0.549,-2.098 -0.811,-4.261 -0.78,-6.43c-0.014,-2.032 0.279,-4.055 0.87,-6c0.521,-1.751 1.365,-3.39 2.49,-4.83c2.223,-2.84 5.665,-4.465 9.27,-4.38c1.575,-0.042 3.14,0.269 4.58,0.91c1.288,0.621 2.443,1.487 3.4,2.55l0,-16.2l5.13,0l0,42.51l-3.06,-0.03Z" style="fill:rgb(112,196,215);fill-rule:nonzero;"/>        <path d="M77.73,151.26l-37.29,-37.29l-13.78,13.78l51.17,51.17l0.01,-0.01l0.11,0.1l50.74,-50.74l-13.99,-13.98l-36.97,36.97Z" style="fill:rgb(26,53,97);fill-rule:nonzero;"/>        <path d="M96.27,95.84l-18.65,18.65l-5.18,-5.18l18.65,-18.65l-13.67,-13.67l-18.65,18.65l-7.56,7.56l-6.11,6.11l32.53,32.53l13.67,-13.67l0,-0.01l18.64,-18.64l-13.67,-13.68Z" style="fill:rgb(112,196,215);fill-rule:nonzero;"/>    </g></svg>