<?xml version="1.0" encoding="UTF-8" standalone="no"?><!DOCTYPE svg PUBLIC "-//W3C//DTD SVG 1.1//EN" "http://www.w3.org/Graphics/SVG/1.1/DTD/svg11.dtd"><svg width="100%" height="100%" viewBox="0 0 1024 512" version="1.1" xmlns="http://www.w3.org/2000/svg" xmlns:xlink="http://www.w3.org/1999/xlink" xml:space="preserve" style="fill-rule:evenodd;clip-rule:evenodd;stroke-linejoin:round;stroke-miterlimit:2;"><title>Credito BG</title><desc></desc>    <g transform="matrix(0.0380259,-6.16298e-34,6.16298e-34,-0.0380259,1.80519,447.144)">        <path d="M15960,5510l0,-1749l-132,64c-589,283 -1269,308 -1828,67c-222,-95 -393,-208 -562,-371c-121,-116 -190,-198 -272,-320c-296,-443 -404,-1049 -290,-1620c174,-869 853,-1481 1743,-1571c387,-39 844,46 1200,222c69,35 129,64 134,66c4,2 7,-48 7,-112l0,-116l1010,0l0,5440l-1010,0Zm-700,-2377c237,-38 460,-130 637,-262l63,-46l-3,-790l-2,-789l-74,-57c-212,-163 -513,-264 -826,-276c-587,-23 -1052,295 -1193,815c-24,89 -26,113 -26,297c0,186 2,207 27,300c35,132 119,299 202,402c272,340 702,486 1195,406Z" style="fill:rgb(26,45,87);fill-rule:nonzero;"/>        <path d="M20090,5510l0,-1520l-277,-2l-278,-3l-3,-412l-2,-413l560,0l0,-1000c0,-661 4,-1034 11,-1102c16,-145 60,-311 113,-423c161,-341 450,-549 846,-610c263,-41 735,2 1025,93l90,28l3,377c2,298 0,377 -10,377c-7,0 -71,-7 -143,-15c-176,-20 -424,-20 -523,1c-258,53 -360,210 -392,598c-6,75 -10,453 -10,902l0,774l1100,0l-2,413l-3,412l-547,3l-548,2l0,1520l-1010,0Z" style="fill:rgb(26,45,87);fill-rule:nonzero;"/>        <path d="M2410,5200c-521,-63 -967,-237 -1357,-528c-568,-427 -922,-1018 -1029,-1722c-25,-159 -25,-518 -1,-685c81,-562 331,-1060 737,-1465c420,-420 962,-685 1580,-772c127,-17 573,-17 700,0c327,46 615,134 894,274c266,133 473,284 700,510c135,134 157,161 145,172c-115,106 -792,666 -798,660c-4,-5 -31,-39 -60,-76c-74,-96 -229,-239 -335,-309c-311,-209 -665,-302 -1029,-271c-663,56 -1184,450 -1396,1056c-105,298 -119,685 -37,1008c97,383 336,714 672,930c145,93 368,180 565,220c98,19 144,23 324,22c180,0 225,-3 315,-22c394,-86 724,-291 951,-594l37,-48l396,336c218,184 396,339 396,344c0,15 -143,169 -227,246c-418,380 -912,615 -1475,700c-121,18 -555,27 -668,14Z" style="fill:rgb(26,45,87);fill-rule:nonzero;"/>        <path d="M7588,4050c-441,-46 -820,-254 -1065,-585l-22,-30l-1,278l0,277l-1010,0l0,-3920l1009,0l4,1033c3,919 5,1040 20,1107c97,434 354,686 768,756c129,21 370,15 544,-15c66,-11 126,-21 133,-21c9,0 12,115 12,544l0,544l-65,16c-83,21 -216,27 -327,16Z" style="fill:rgb(26,45,87);fill-rule:nonzero;"/>        <path d="M10192,4049c-544,-45 -1067,-323 -1385,-736c-315,-411 -468,-957 -416,-1489c47,-482 243,-913 562,-1236c293,-297 647,-477 1092,-555c142,-25 553,-25 715,0c394,60 734,196 1023,409c93,69 265,234 331,318l44,56l-321,267l-321,266l-30,-37c-169,-214 -454,-374 -760,-427c-115,-20 -337,-20 -452,0c-432,76 -758,367 -873,783l-20,72l2911,0l-5,273c-6,327 -28,487 -103,733c-115,381 -333,714 -609,929c-369,287 -850,418 -1383,374Zm438,-815c319,-60 542,-253 645,-555c28,-80 55,-213 55,-265l0,-34l-1940,0l6,28c63,282 227,535 442,681c136,92 263,138 457,165c55,8 251,-4 335,-20Z" style="fill:rgb(26,45,87);fill-rule:nonzero;"/>        <path d="M24485,4049c-291,-26 -619,-124 -861,-255c-334,-181 -626,-460 -811,-772c-538,-911 -260,-2055 644,-2649c261,-172 542,-281 878,-340c141,-25 557,-24 700,0c237,41 419,99 624,198c443,214 773,539 976,962c122,254 179,479 192,757c24,528 -175,1045 -551,1438c-186,193 -352,314 -596,436c-220,109 -436,176 -685,211c-131,19 -384,26 -510,14Zm309,-899c282,-28 536,-149 728,-348c141,-146 232,-305 284,-497c25,-91 27,-115 27,-275c0,-146 -3,-188 -20,-250c-93,-337 -301,-597 -597,-744c-161,-80 -293,-114 -476,-123c-480,-23 -935,255 -1121,687c-68,158 -84,242 -83,435c0,150 4,181 27,267c133,496 568,833 1107,856c14,1 70,-3 124,-8Z" style="fill:rgb(26,45,87);fill-rule:nonzero;"/>        <path d="M17897,3983c-4,-3 -7,-885 -7,-1960l0,-1953l1010,0l-2,1958l-3,1957l-496,3c-272,1 -499,-1 -502,-5Z" style="fill:rgb(26,45,87);fill-rule:nonzero;"/>        <g transform="matrix(11.2546,0,0,-11.2546,-1273.68,11733.5)">            <circle cx="715.574" cy="382.861" r="197.576" style="fill:url(#_Linear1);"/>        </g>        <g transform="matrix(8.49556,0,0,-8.49556,5736.83,11626.8)">            <circle cx="715.574" cy="382.861" r="197.576" style="fill:url(#_Linear2);"/>        </g>        <g transform="matrix(5.64433,0,0,-5.64433,11929,9690.63)">            <circle cx="715.574" cy="382.861" r="197.576" style="fill:url(#_Linear3);"/>        </g>        <g transform="matrix(4.12251,0,0,-4.12251,15482.7,6701.05)">            <circle cx="715.574" cy="382.861" r="197.576" style="fill:url(#_Linear4);"/>        </g>    </g>    <defs>        <linearGradient id="_Linear1" x1="0" y1="0" x2="1" y2="0" gradientUnits="userSpaceOnUse" gradientTransform="matrix(-292.992,-219.616,219.616,-292.992,859.548,484.27)"><stop offset="0" style="stop-color:rgb(243,117,33);stop-opacity:1"/><stop offset="1" style="stop-color:rgb(252,174,22);stop-opacity:1"/></linearGradient>        <linearGradient id="_Linear2" x1="0" y1="0" x2="1" y2="0" gradientUnits="userSpaceOnUse" gradientTransform="matrix(-253.409,-251.912,251.912,-253.409,847.11,513.293)"><stop offset="0" style="stop-color:rgb(165,33,142);stop-opacity:1"/><stop offset="1" style="stop-color:rgb(235,0,140);stop-opacity:1"/></linearGradient>        <linearGradient id="_Linear3" x1="0" y1="0" x2="1" y2="0" gradientUnits="userSpaceOnUse" gradientTransform="matrix(-293.486,-254.442,254.442,-293.486,863.398,504.492)"><stop offset="0" style="stop-color:rgb(78,186,71);stop-opacity:1"/><stop offset="1" style="stop-color:rgb(189,214,48);stop-opacity:1"/></linearGradient>        <linearGradient id="_Linear4" x1="0" y1="0" x2="1" y2="0" gradientUnits="userSpaceOnUse" gradientTransform="matrix(-240.285,-217.255,217.255,-240.285,865.73,490.985)"><stop offset="0" style="stop-color:rgb(23,49,89);stop-opacity:1"/><stop offset="1" style="stop-color:rgb(0,173,238);stop-opacity:1"/></linearGradient>    </defs></svg>