<?xml version="1.0" encoding="UTF-8" standalone="no"?><!DOCTYPE svg PUBLIC "-//W3C//DTD SVG 1.1//EN" "http://www.w3.org/Graphics/SVG/1.1/DTD/svg11.dtd"><svg width="100%" height="100%" viewBox="0 0 1024 512" version="1.1" xmlns="http://www.w3.org/2000/svg" xmlns:xlink="http://www.w3.org/1999/xlink" xml:space="preserve" style="fill-rule:evenodd;clip-rule:evenodd;stroke-linejoin:round;stroke-miterlimit:2;"><title>Lendosphere</title><desc>Lendosphere is the crowdfunding platform for paid loans dedicated to the energy transition.At Lendosphere, individuals lend, with interest, to project owners they believe in. For individuals, it is the opportunity to know where their savings are and what it is for. For project leaders, it's a new and responsive way of funding and a tailor-made communication campaign.</desc>    <g transform="matrix(1.40772,0,0,1.40772,-90.1774,-205.929)">        <g transform="matrix(2.28922,0,0,2.28922,-382.095,-592.529)">            <g transform="matrix(34,0,0,34,295.005,412.651)">                <path d="M0.073,0l0,-0.708l0.172,0l0,0.559l0.274,0l0,0.149l-0.446,0Z" style="fill:rgb(205,218,42);fill-rule:nonzero;"/>            </g>            <g transform="matrix(34,0,0,34,312.601,412.651)">                <path d="M0.407,-0.306c0,-0.026 -0.008,-0.048 -0.025,-0.067c-0.016,-0.019 -0.04,-0.028 -0.073,-0.028c-0.016,0 -0.031,0.003 -0.044,0.008c-0.013,0.005 -0.025,0.011 -0.035,0.02c-0.01,0.009 -0.018,0.019 -0.024,0.03c-0.006,0.012 -0.009,0.024 -0.01,0.037l0.211,0Zm0.151,0.063l0,0.02c0,0.007 0,0.013 -0.001,0.019l-0.361,0c0.001,0.014 0.005,0.027 0.012,0.038c0.007,0.011 0.016,0.021 0.027,0.029c0.011,0.009 0.024,0.015 0.037,0.02c0.014,0.005 0.028,0.007 0.043,0.007c0.026,0 0.048,-0.005 0.066,-0.014c0.018,-0.01 0.033,-0.023 0.044,-0.038l0.114,0.072c-0.023,0.034 -0.054,0.06 -0.093,0.079c-0.038,0.018 -0.082,0.027 -0.133,0.027c-0.037,0 -0.073,-0.006 -0.106,-0.018c-0.033,-0.011 -0.063,-0.028 -0.088,-0.051c-0.025,-0.022 -0.044,-0.049 -0.059,-0.082c-0.014,-0.033 -0.021,-0.07 -0.021,-0.112c0,-0.041 0.007,-0.078 0.021,-0.11c0.014,-0.034 0.033,-0.062 0.057,-0.085c0.024,-0.022 0.052,-0.04 0.085,-0.053c0.033,-0.013 0.068,-0.019 0.106,-0.019c0.037,0 0.07,0.006 0.101,0.019c0.031,0.012 0.057,0.03 0.079,0.053c0.022,0.023 0.039,0.052 0.051,0.085c0.013,0.033 0.019,0.071 0.019,0.114Z" style="fill:rgb(205,218,42);fill-rule:nonzero;"/>            </g>            <g transform="matrix(34,0,0,34,333.188,412.651)">                <path d="M0.391,0l0,-0.272c0,-0.014 -0.001,-0.027 -0.004,-0.04c-0.002,-0.013 -0.006,-0.024 -0.011,-0.034c-0.005,-0.009 -0.013,-0.017 -0.023,-0.023c-0.009,-0.005 -0.021,-0.008 -0.036,-0.008c-0.015,0 -0.027,0.003 -0.038,0.009c-0.011,0.005 -0.021,0.013 -0.028,0.023c-0.007,0.01 -0.013,0.021 -0.016,0.034c-0.004,0.013 -0.006,0.027 -0.006,0.041l0,0.27l-0.165,0l0,-0.498l0.159,0l0,0.069l0.002,0c0.006,-0.011 0.014,-0.021 0.024,-0.032c0.009,-0.01 0.021,-0.019 0.034,-0.026c0.013,-0.007 0.027,-0.013 0.042,-0.018c0.015,-0.005 0.032,-0.007 0.049,-0.007c0.033,0 0.062,0.006 0.085,0.018c0.023,0.012 0.042,0.027 0.057,0.046c0.014,0.02 0.024,0.041 0.031,0.066c0.006,0.025 0.009,0.049 0.009,0.074l0,0.308l-0.165,0Z" style="fill:rgb(205,218,42);fill-rule:nonzero;"/>            </g>            <g transform="matrix(34,0,0,34,354.455,412.651)">                <path d="M0.441,0l0,-0.065l-0.002,0c-0.016,0.025 -0.039,0.045 -0.069,0.059c-0.029,0.013 -0.061,0.02 -0.094,0.02c-0.037,0 -0.071,-0.007 -0.1,-0.022c-0.029,-0.015 -0.054,-0.034 -0.075,-0.059c-0.02,-0.024 -0.035,-0.052 -0.046,-0.084c-0.011,-0.032 -0.016,-0.065 -0.016,-0.1c0,-0.035 0.005,-0.068 0.016,-0.1c0.011,-0.031 0.027,-0.059 0.047,-0.083c0.021,-0.024 0.045,-0.043 0.074,-0.057c0.029,-0.014 0.062,-0.021 0.098,-0.021c0.037,0 0.068,0.007 0.093,0.021c0.025,0.014 0.045,0.029 0.059,0.046l0.002,0l0,-0.24l0.164,0l0,0.685l-0.151,0Zm-0.006,-0.25c0,-0.016 -0.003,-0.032 -0.008,-0.047c-0.006,-0.015 -0.014,-0.029 -0.024,-0.041c-0.011,-0.012 -0.023,-0.022 -0.038,-0.029c-0.015,-0.007 -0.031,-0.011 -0.05,-0.011c-0.019,0 -0.036,0.004 -0.051,0.011c-0.015,0.007 -0.027,0.017 -0.037,0.028c-0.01,0.012 -0.017,0.026 -0.022,0.041c-0.005,0.015 -0.008,0.031 -0.008,0.047c0,0.016 0.003,0.032 0.008,0.047c0.005,0.016 0.012,0.03 0.022,0.042c0.01,0.012 0.022,0.022 0.037,0.029c0.015,0.007 0.032,0.011 0.051,0.011c0.019,0 0.035,-0.004 0.05,-0.011c0.015,-0.007 0.027,-0.017 0.038,-0.029c0.01,-0.012 0.018,-0.026 0.024,-0.041c0.005,-0.015 0.008,-0.031 0.008,-0.047Z" style="fill:rgb(205,218,42);fill-rule:nonzero;"/>            </g>            <g transform="matrix(34,0,0,34,377.15,412.651)">                <path d="M0.592,-0.251c0,0.041 -0.007,0.078 -0.022,0.11c-0.015,0.034 -0.035,0.062 -0.06,0.085c-0.025,0.023 -0.055,0.04 -0.088,0.053c-0.033,0.013 -0.069,0.019 -0.107,0.019c-0.037,0 -0.073,-0.006 -0.107,-0.019c-0.033,-0.013 -0.063,-0.03 -0.088,-0.053c-0.025,-0.023 -0.044,-0.051 -0.059,-0.085c-0.015,-0.032 -0.022,-0.069 -0.022,-0.11c0,-0.041 0.007,-0.077 0.022,-0.11c0.015,-0.033 0.034,-0.06 0.059,-0.083c0.025,-0.023 0.055,-0.04 0.088,-0.052c0.034,-0.012 0.07,-0.018 0.107,-0.018c0.038,0 0.074,0.006 0.107,0.018c0.033,0.012 0.063,0.029 0.088,0.052c0.025,0.023 0.045,0.05 0.06,0.083c0.015,0.033 0.022,0.069 0.022,0.11Zm-0.158,0c0,-0.016 -0.003,-0.032 -0.008,-0.047c-0.005,-0.015 -0.013,-0.029 -0.023,-0.041c-0.01,-0.011 -0.022,-0.021 -0.037,-0.028c-0.015,-0.007 -0.032,-0.011 -0.051,-0.011c-0.019,0 -0.036,0.004 -0.051,0.011c-0.015,0.007 -0.027,0.017 -0.037,0.028c-0.009,0.012 -0.017,0.026 -0.022,0.041c-0.005,0.015 -0.007,0.031 -0.007,0.047c0,0.016 0.002,0.032 0.007,0.047c0.005,0.015 0.013,0.029 0.023,0.042c0.01,0.012 0.022,0.022 0.037,0.029c0.015,0.007 0.032,0.011 0.051,0.011c0.019,0 0.036,-0.004 0.051,-0.011c0.015,-0.007 0.027,-0.017 0.037,-0.029c0.01,-0.013 0.017,-0.027 0.022,-0.042c0.005,-0.015 0.008,-0.031 0.008,-0.047Z" style="fill:rgb(205,218,42);fill-rule:nonzero;"/>            </g>            <g transform="matrix(34,0,0,34,398.962,412.651)">                <path d="M0.357,-0.351c-0.013,-0.013 -0.029,-0.023 -0.047,-0.032c-0.018,-0.009 -0.037,-0.013 -0.057,-0.013c-0.015,0 -0.029,0.003 -0.043,0.009c-0.012,0.006 -0.019,0.016 -0.019,0.031c0,0.014 0.007,0.024 0.021,0.03c0.015,0.006 0.038,0.013 0.07,0.02c0.019,0.004 0.037,0.01 0.056,0.017c0.019,0.007 0.037,0.017 0.052,0.029c0.015,0.012 0.028,0.027 0.037,0.044c0.009,0.017 0.014,0.038 0.014,0.062c0,0.031 -0.006,0.058 -0.019,0.079c-0.013,0.022 -0.029,0.04 -0.049,0.053c-0.021,0.013 -0.044,0.023 -0.069,0.029c-0.025,0.006 -0.051,0.009 -0.076,0.009c-0.041,0 -0.08,-0.007 -0.119,-0.02c-0.039,-0.013 -0.072,-0.032 -0.098,-0.057l0.092,-0.097c0.015,0.016 0.033,0.029 0.054,0.04c0.021,0.011 0.044,0.016 0.068,0.016c0.013,0 0.027,-0.003 0.04,-0.01c0.013,-0.006 0.019,-0.017 0.019,-0.033c0,-0.015 -0.008,-0.027 -0.024,-0.034c-0.016,-0.007 -0.041,-0.015 -0.075,-0.023c-0.017,-0.004 -0.035,-0.009 -0.052,-0.016c-0.017,-0.007 -0.033,-0.016 -0.046,-0.027c-0.014,-0.011 -0.025,-0.025 -0.034,-0.042c-0.009,-0.017 -0.013,-0.037 -0.013,-0.06c0,-0.03 0.006,-0.056 0.019,-0.077c0.013,-0.021 0.029,-0.038 0.049,-0.051c0.02,-0.013 0.042,-0.023 0.067,-0.03c0.024,-0.006 0.048,-0.009 0.072,-0.009c0.037,0 0.074,0.006 0.11,0.017c0.035,0.012 0.065,0.03 0.09,0.053l-0.09,0.093Z" style="fill:rgb(205,218,42);fill-rule:nonzero;"/>            </g>            <g transform="matrix(34,0,0,34,415.333,412.651)">                <path d="M0.618,-0.251c0,0.035 -0.005,0.068 -0.016,0.1c-0.011,0.032 -0.026,0.06 -0.046,0.084c-0.021,0.025 -0.046,0.044 -0.075,0.059c-0.029,0.015 -0.063,0.022 -0.1,0.022c-0.031,0 -0.06,-0.006 -0.087,-0.019c-0.027,-0.012 -0.049,-0.029 -0.064,-0.05l-0.002,0l0,0.226l-0.164,0l0,-0.669l0.156,0l0,0.061l0.003,0c0.015,-0.02 0.037,-0.037 0.064,-0.052c0.027,-0.016 0.058,-0.023 0.095,-0.023c0.036,0 0.069,0.007 0.098,0.021c0.029,0.014 0.054,0.033 0.075,0.057c0.02,0.024 0.036,0.052 0.047,0.083c0.011,0.032 0.016,0.065 0.016,0.1Zm-0.159,0c0,-0.016 -0.002,-0.032 -0.007,-0.047c-0.005,-0.015 -0.013,-0.029 -0.022,-0.041c-0.01,-0.011 -0.022,-0.021 -0.037,-0.028c-0.015,-0.007 -0.032,-0.011 -0.051,-0.011c-0.019,0 -0.035,0.004 -0.05,0.011c-0.015,0.007 -0.027,0.017 -0.037,0.029c-0.011,0.012 -0.019,0.026 -0.024,0.041c-0.006,0.015 -0.009,0.031 -0.009,0.047c0,0.016 0.003,0.032 0.009,0.047c0.005,0.015 0.013,0.029 0.024,0.041c0.01,0.012 0.022,0.022 0.037,0.029c0.015,0.007 0.031,0.011 0.05,0.011c0.019,0 0.036,-0.004 0.051,-0.011c0.015,-0.007 0.027,-0.017 0.037,-0.029c0.009,-0.012 0.017,-0.026 0.022,-0.042c0.005,-0.015 0.007,-0.031 0.007,-0.047Z" style="fill-rule:nonzero;"/>            </g>            <g transform="matrix(34,0,0,34,437.994,412.651)">                <path d="M0.392,0l0,-0.27c0,-0.014 -0.001,-0.027 -0.003,-0.04c-0.002,-0.013 -0.006,-0.024 -0.012,-0.034c-0.005,-0.009 -0.013,-0.017 -0.022,-0.023c-0.009,-0.005 -0.021,-0.008 -0.036,-0.008c-0.029,0 -0.051,0.01 -0.066,0.03c-0.015,0.021 -0.023,0.046 -0.023,0.076l0,0.269l-0.164,0l0,-0.688l0.164,0l0,0.253l0.002,0c0.011,-0.02 0.029,-0.038 0.054,-0.054c0.025,-0.015 0.054,-0.023 0.089,-0.023c0.034,0 0.063,0.006 0.086,0.018c0.022,0.012 0.041,0.027 0.055,0.046c0.015,0.019 0.025,0.041 0.031,0.066c0.007,0.025 0.01,0.049 0.01,0.074l0,0.308l-0.165,0Z" style="fill-rule:nonzero;"/>            </g>            <g transform="matrix(34,0,0,34,459.295,412.651)">                <path d="M0.407,-0.306c0,-0.026 -0.008,-0.048 -0.025,-0.067c-0.016,-0.019 -0.04,-0.028 -0.073,-0.028c-0.016,0 -0.031,0.003 -0.044,0.008c-0.013,0.005 -0.025,0.011 -0.035,0.02c-0.01,0.009 -0.018,0.019 -0.024,0.03c-0.006,0.012 -0.009,0.024 -0.01,0.037l0.211,0Zm0.151,0.063l0,0.02c0,0.007 0,0.013 -0.001,0.019l-0.361,0c0.001,0.014 0.005,0.027 0.012,0.038c0.007,0.011 0.016,0.021 0.027,0.029c0.011,0.009 0.024,0.015 0.037,0.02c0.014,0.005 0.028,0.007 0.043,0.007c0.026,0 0.048,-0.005 0.066,-0.014c0.018,-0.01 0.033,-0.023 0.044,-0.038l0.114,0.072c-0.023,0.034 -0.054,0.06 -0.093,0.079c-0.038,0.018 -0.082,0.027 -0.133,0.027c-0.037,0 -0.073,-0.006 -0.106,-0.018c-0.033,-0.011 -0.063,-0.028 -0.088,-0.051c-0.025,-0.022 -0.044,-0.049 -0.059,-0.082c-0.014,-0.033 -0.021,-0.07 -0.021,-0.112c0,-0.041 0.007,-0.078 0.021,-0.11c0.014,-0.034 0.033,-0.062 0.057,-0.085c0.024,-0.022 0.052,-0.04 0.085,-0.053c0.033,-0.013 0.068,-0.019 0.106,-0.019c0.037,0 0.07,0.006 0.101,0.019c0.031,0.012 0.057,0.03 0.079,0.053c0.022,0.023 0.039,0.052 0.051,0.085c0.013,0.033 0.019,0.071 0.019,0.114Z" style="fill-rule:nonzero;"/>            </g>            <g transform="matrix(34,0,0,34,479.883,412.651)">                <path d="M0.387,-0.364c-0.007,-0.002 -0.015,-0.003 -0.022,-0.004c-0.007,-0.001 -0.013,-0.001 -0.02,-0.001c-0.022,0 -0.04,0.004 -0.055,0.012c-0.015,0.008 -0.027,0.018 -0.036,0.029c-0.009,0.011 -0.016,0.024 -0.02,0.037c-0.004,0.013 -0.006,0.025 -0.006,0.035l0,0.256l-0.164,0l0,-0.498l0.158,0l0,0.072l0.002,0c0.013,-0.025 0.031,-0.046 0.054,-0.062c0.023,-0.016 0.05,-0.024 0.081,-0.024c0.007,0 0.013,0 0.019,0.001c0.007,0.001 0.012,0.002 0.016,0.003l-0.007,0.144Z" style="fill-rule:nonzero;"/>            </g>            <g transform="matrix(34,0,0,34,493.058,412.651)">                <path d="M0.407,-0.306c0,-0.026 -0.008,-0.048 -0.025,-0.067c-0.016,-0.019 -0.04,-0.028 -0.073,-0.028c-0.016,0 -0.031,0.003 -0.044,0.008c-0.013,0.005 -0.025,0.011 -0.035,0.02c-0.01,0.009 -0.018,0.019 -0.024,0.03c-0.006,0.012 -0.009,0.024 -0.01,0.037l0.211,0Zm0.151,0.063l0,0.02c0,0.007 0,0.013 -0.001,0.019l-0.361,0c0.001,0.014 0.005,0.027 0.012,0.038c0.007,0.011 0.016,0.021 0.027,0.029c0.011,0.009 0.024,0.015 0.037,0.02c0.014,0.005 0.028,0.007 0.043,0.007c0.026,0 0.048,-0.005 0.066,-0.014c0.018,-0.01 0.033,-0.023 0.044,-0.038l0.114,0.072c-0.023,0.034 -0.054,0.06 -0.093,0.079c-0.038,0.018 -0.082,0.027 -0.133,0.027c-0.037,0 -0.073,-0.006 -0.106,-0.018c-0.033,-0.011 -0.063,-0.028 -0.088,-0.051c-0.025,-0.022 -0.044,-0.049 -0.059,-0.082c-0.014,-0.033 -0.021,-0.07 -0.021,-0.112c0,-0.041 0.007,-0.078 0.021,-0.11c0.014,-0.034 0.033,-0.062 0.057,-0.085c0.024,-0.022 0.052,-0.04 0.085,-0.053c0.033,-0.013 0.068,-0.019 0.106,-0.019c0.037,0 0.07,0.006 0.101,0.019c0.031,0.012 0.057,0.03 0.079,0.053c0.022,0.023 0.039,0.052 0.051,0.085c0.013,0.033 0.019,0.071 0.019,0.114Z" style="fill-rule:nonzero;"/>            </g>        </g>        <g transform="matrix(0.12,0,0,0.12,0,0.33397)">            <path d="M1905,3084c15.667,0 -2.788,-151.857 52,-244c66,-111 315,-193 272,-286c-33.829,-73.165 -276,-122 -289,-99c-32.312,57.168 -12,162 -35,162c-24.021,0 4.527,-162.495 -42,-162c-94,1 -281,25 -282,124c-0.798,78.965 243.12,181.343 282,261c41,84 26.333,244 42,244Z"/>        </g>        <g transform="matrix(0.12,0,0,0.12,-63.5998,40.92)">            <path d="M1905,3084c15.667,0 -2.788,-151.857 52,-244c66,-111 315,-193 272,-286c-33.829,-73.165 -276,-122 -289,-99c-32.312,57.168 -12,162 -35,162c-24.021,0 4.527,-162.495 -42,-162c-94,1 -281,25 -282,124c-0.798,78.965 243.12,181.343 282,261c41,84 26.333,244 42,244Z"/>        </g>        <g transform="matrix(0.12,0,0,0.12,-124.24,0.33397)">            <path d="M1905,3084c15.667,0 -2.788,-151.857 52,-244c66,-111 315,-193 272,-286c-33.829,-73.165 -276,-122 -289,-99c-32.312,57.168 -12,162 -35,162c-24.021,0 4.527,-162.495 -42,-162c-94,1 -281,25 -282,124c-0.798,78.965 243.12,181.343 282,261c41,84 26.333,244 42,244Z"/>        </g>        <g transform="matrix(0.12,0,0,0.12,-63.5998,-48.6318)">            <path d="M1905,3084c15.667,0 -2.788,-151.857 52,-244c66,-111 315,-193 272,-286c-33.829,-73.165 -276,-122 -289,-99c-32.312,57.168 -12,162 -35,162c-24.021,0 4.527,-162.495 -42,-162c-94,1 -281,25 -282,124c-0.798,78.965 243.12,181.343 282,261c41,84 26.333,244 42,244Z" style="fill:rgb(205,218,42);"/>        </g>    </g></svg>