<?xml version="1.0" encoding="UTF-8" standalone="no"?><!DOCTYPE svg PUBLIC "-//W3C//DTD SVG 1.1//EN" "http://www.w3.org/Graphics/SVG/1.1/DTD/svg11.dtd"><svg width="100%" height="100%" viewBox="0 0 1024 512" version="1.1" xmlns="http://www.w3.org/2000/svg" xmlns:xlink="http://www.w3.org/1999/xlink" xml:space="preserve" style="fill-rule:evenodd;clip-rule:evenodd;stroke-linejoin:round;stroke-miterlimit:2;"><title>Orias</title><desc></desc>    <g transform="matrix(1.8358,0,0,1.8358,394.509,188.694)">        <g transform="matrix(1.20786,0,0,1.20786,-245.213,-119.459)">            <path d="M80.12,129.22l0,-0.22c0,-19.93 15.37,-36.61 37.12,-36.61c21.75,0 36.91,16.49 36.91,36.41l0,0.2c0,19.92 -15.37,36.61 -37.12,36.61c-21.75,0 -36.91,-16.48 -36.91,-36.41m61,0l0,-0.2c0,-13.75 -10,-25.18 -24.07,-25.18c-14.07,0 -23.87,11.23 -23.87,25l0,0.2c0,13.75 10,25.08 24.07,25.08c14.07,0 23.87,-11.13 23.87,-24.88" style="fill:rgb(41,98,137);fill-rule:nonzero;"/>        </g>        <g transform="matrix(1.20786,0,0,1.20786,-245.213,-119.459)">            <path d="M165.28,116.58c-0.002,-0.057 -0.002,-0.114 -0.002,-0.17c0,-3.292 2.708,-6 6,-6c0.024,0 0.048,0 0.072,0c0.013,0 0.027,0 0.04,0c3.363,0 6.13,2.767 6.13,6.13c0,0.013 0,0.027 0,0.04l0,5.42c2.83,-6.68 8.09,-11.73 13.45,-11.73c0.135,-0.01 0.269,-0.014 0.404,-0.014c3.116,0 5.68,2.564 5.68,5.68c0,0.135 -0.004,0.269 -0.014,0.404c0.099,2.891 -2.001,5.428 -4.86,5.87c-8.7,1.52 -14.67,8.19 -14.67,20.83l0,15.78c-0.022,3.337 -2.773,6.07 -6.11,6.07c-0.02,0 -0.04,0 -0.06,0c-0.023,0 -0.047,0 -0.07,0c-3.292,0 -6,-2.708 -6,-6c0,-0.023 0,-0.047 0,-0.07l0.01,-42.24Z" style="fill:rgb(41,98,137);fill-rule:nonzero;"/>        </g>        <g transform="matrix(1.20786,0,0,1.20786,-245.213,-119.459)">            <path d="M204.32,96.65c0,-3.64 3,-6 7,-6c4,0 7,2.33 7,6l0,0.61c0,3.64 -3,6.07 -7,6.07c-4,0 -7,-2.43 -7,-6.07l0,-0.61Zm0.91,19.92c-0.002,-0.057 -0.002,-0.114 -0.002,-0.17c0,-3.292 2.708,-6 6,-6c0.024,0 0.048,0 0.072,0c0.013,0 0.027,0 0.04,0c3.363,0 6.13,2.767 6.13,6.13c0,0.013 0,0.027 0,0.04l0,42.27c0,3.357 -2.763,6.12 -6.12,6.12c-3.357,0 -6.12,-2.763 -6.12,-6.12l0,-42.27Z" style="fill:rgb(41,98,137);fill-rule:nonzero;"/>        </g>        <g transform="matrix(1.20786,0,0,1.20786,-245.213,-119.459)">            <path d="M227.38,149l0,-0.2c0,-11.53 9,-17.19 22,-17.19c4.876,-0.047 9.728,0.706 14.36,2.23l0,-1.32c0,-7.58 -4.65,-11.63 -13.25,-11.63c-4.042,-0.054 -8.058,0.665 -11.83,2.12c-0.623,0.19 -1.269,0.291 -1.92,0.3c-0.023,0 -0.047,0 -0.07,0c-2.781,0 -5.074,-2.279 -5.09,-5.06c0.037,-2.139 1.356,-4.059 3.34,-4.86c5.475,-2.141 11.312,-3.208 17.19,-3.14c8,0 14,2.12 17.7,6c3.94,3.84 5.77,9.51 5.77,16.49l0,26.29c0,0.014 0,0.028 0,0.042c0,3.199 -2.632,5.83 -5.83,5.83c-0.057,0 -0.113,0 -0.17,-0.002c-3.54,0 -6,-2.43 -6,-5.16l0,-2c-3.64,4.35 -9.2,7.79 -17.4,7.79c-10,0 -18.91,-5.77 -18.91,-16.49m36.73,-3.84l0,-3.64c-3.883,-1.442 -7.998,-2.16 -12.14,-2.12c-7.89,0 -12.54,3.34 -12.54,8.9l0,0.2c0,5.16 4.55,8.09 10.42,8.09c8.09,0 14.26,-4.65 14.26,-11.43" style="fill:rgb(41,98,137);fill-rule:nonzero;"/>        </g>        <g transform="matrix(1.20786,0,0,1.20786,-245.213,-119.459)">            <path d="M285.74,159.06c-1.503,-0.873 -2.402,-2.513 -2.33,-4.25c-0.001,-0.034 -0.001,-0.067 -0.001,-0.101c0,-2.688 2.212,-4.9 4.9,-4.9c0.034,0 0.067,0 0.101,0.001c0.923,0.005 1.83,0.25 2.63,0.71c4.507,3.187 9.853,4.982 15.37,5.16c5.26,0 8.3,-2.22 8.3,-5.77l0,-0.2c0,-4.15 -5.67,-5.56 -11.93,-7.49c-7.94,-2.22 -16.78,-5.41 -16.78,-15.63l0,-0.2c0,-10.11 8.39,-16.28 19,-16.28c5.863,0.088 11.621,1.58 16.79,4.35c1.782,0.862 2.922,2.671 2.93,4.65c0,0.027 0.001,0.055 0.001,0.082c0,2.699 -2.221,4.92 -4.92,4.92c-0.047,0 -0.094,-0.001 -0.141,-0.002c-0.85,0.015 -1.688,-0.196 -2.43,-0.61c-4.35,-2.23 -8.8,-3.64 -12.54,-3.64c-4.75,0 -7.48,2.22 -7.48,5.26l0,0.2c0,3.94 5.76,5.56 12,7.59c7.79,2.43 16.59,6 16.59,15.58l0,0.2c0,11.23 -8.7,16.79 -19.82,16.79c-7.259,-0.053 -14.339,-2.272 -20.33,-6.37" style="fill:rgb(41,98,137);fill-rule:nonzero;"/>        </g>        <g transform="matrix(1.20786,0,0,1.20786,-245.213,-119.459)">            <rect x="26" y="96.38" width="16.24" height="68.17" style="fill:rgb(253,201,62);"/>        </g>        <g transform="matrix(1.20786,0,0,1.20786,-245.213,-119.459)">            <rect x="50.91" y="102.18" width="16.24" height="48.38" style="fill:rgb(161,200,116);"/>        </g>        <g transform="matrix(1.20786,0,0,1.20786,-245.213,-119.459)">            <rect x="345.2" y="83.72" width="16.24" height="80.82" style="fill:rgb(253,201,62);"/>        </g>        <g transform="matrix(1.20786,0,0,1.20786,-245.213,-119.459)">            <rect x="370.12" y="90.69" width="16.24" height="84.1" style="fill:rgb(161,200,116);"/>        </g>        <g transform="matrix(1.20786,0,0,1.20786,-245.213,-119.459)">            <rect x="395.02" y="100.12" width="16.24" height="67.03" style="fill:rgb(234,82,72);"/>        </g>        <g transform="matrix(1.20786,0,0,1.20786,-245.213,-119.459)">            <rect x="419.94" y="83.72" width="16.24" height="86.86" style="fill:rgb(253,201,62);"/>        </g>        <g transform="matrix(1.20786,0,0,1.20786,-245.213,-119.459)">            <rect x="444.85" y="97.29" width="16.24" height="59.63" style="fill:rgb(41,98,137);"/>        </g>        <g transform="matrix(1.20786,0,0,1.20786,-245.213,-119.459)">            <rect x="469.76" y="91.09" width="16.24" height="73.86" style="fill:rgb(234,82,72);"/>        </g>    </g></svg>