<?xml version="1.0" encoding="UTF-8" standalone="no"?><!DOCTYPE svg PUBLIC "-//W3C//DTD SVG 1.1//EN" "http://www.w3.org/Graphics/SVG/1.1/DTD/svg11.dtd"><svg width="100%" height="100%" viewBox="0 0 1024 512" version="1.1" xmlns="http://www.w3.org/2000/svg" xmlns:xlink="http://www.w3.org/1999/xlink" xml:space="preserve" style="fill-rule:evenodd;clip-rule:evenodd;stroke-linejoin:round;stroke-miterlimit:2;"><title>Invesdor</title><desc>Invesdor Group offers a variety of investment opportunities from different business sectors, across several European countries and with both equity and bond opportunities. We are MiFID II -licensed investment service, licensed to help companies in 30 countries across the European Economic Area. Currently Invesdor Group actively operates in six countries: Finland, Austria, Sweden, Denmark, Norway and Germany.</desc>    <g transform="matrix(7.31581,0,0,7.31581,2,191.851)">        <path d="M0,17.262l1.765,0l0,-16.987l-1.765,0l0,16.987Zm8.688,0l1.742,0l0,-14.42l10.477,14.42l1.65,0l0,-16.987l-1.742,0l0,14.007l-10.155,-14.007l-1.972,0l0,16.987Zm25.996,0.114l1.81,0l6.786,-17.1l-1.856,0l-5.8,14.83l-5.846,-14.829l-1.858,0l6.764,17.1l0,-0.001Zm13.937,-0.114l11.325,0l0,-1.65l-9.512,0l0,-6.306l9.19,0l0,-1.696l-9.19,0l0,-5.615l9.42,0l0,-1.721l-11.232,0l0,16.988l-0.001,0Zm22.994,0.23c4.63,0 6.785,-1.63 6.785,-4.998c0,-3.645 -2.683,-4.196 -6.397,-4.86c-3.026,-0.55 -4.79,-0.963 -4.79,-3.118c0,-2.017 1.306,-2.865 4.355,-2.865c1.925,0 3.736,0.528 4.95,1.33l0.964,-1.467c-1.352,-0.918 -3.255,-1.514 -5.914,-1.514c-4.035,0 -6.144,1.284 -6.144,4.562c0,3.438 2.476,4.057 6.144,4.7c3.05,0.55 5.066,0.893 5.066,3.3c0,2.34 -1.56,3.324 -5.066,3.324c-2.04,0 -4.035,-0.435 -6.075,-1.72l-0.917,1.376c2.155,1.422 4.47,1.95 7.038,1.95l0.001,0Zm12.883,-0.23l5.25,0c6.395,0 9.01,-2.086 9.01,-8.505c0,-6.556 -2.34,-8.482 -8.712,-8.482l-5.548,0l0,16.987Zm1.81,-1.65l0,-13.642l3.76,0c5.388,0 6.878,1.65 6.878,6.785c0,5.043 -1.765,6.854 -7.13,6.854l-3.507,0l-0.001,0.003Zm25.722,1.925c5.455,0 8.572,-2.705 8.572,-8.78c0,-6.052 -3.117,-8.757 -8.573,-8.757c-5.434,0 -8.53,2.705 -8.53,8.757c0,6.075 3.096,8.78 8.53,8.78l0.001,0Zm0,-1.674c-4.61,0 -6.718,-2.475 -6.718,-7.083c0,-4.585 2.11,-7.06 6.717,-7.06c4.63,0 6.76,2.475 6.76,7.06c0,4.608 -2.13,7.083 -6.76,7.083l0.001,0Zm25.215,1.4l1.926,0l-4.103,-6.993c2.957,-0.39 4.356,-2.086 4.356,-5.02c0,-3.37 -1.788,-4.975 -5.73,-4.975l-7.337,0l0,16.987l1.765,0l0,-6.922l5.067,0l4.058,6.922l-0.002,0.001Zm-9.124,-8.575l0,-6.74l5.526,0c2.522,0 3.966,0.734 3.966,3.37c0,2.636 -1.49,3.37 -3.897,3.37l-5.594,0l-0.001,0Z" style="fill:rgb(255,76,136);"/>        <path d="M0,17.262l1.765,0l0,-16.987l-1.765,0l0,16.987Zm8.688,0l1.742,0l0,-14.42l10.477,14.42l1.65,0l0,-16.987l-1.742,0l0,14.007l-10.155,-14.007l-1.972,0l0,16.987Zm25.996,0.114l1.81,0l6.786,-17.1l-1.856,0l-5.8,14.83l-5.846,-14.829l-1.858,0l6.764,17.1l0,-0.001Zm13.937,-0.114l11.325,0l0,-1.65l-9.512,0l0,-6.306l9.19,0l0,-1.696l-9.19,0l0,-5.615l9.42,0l0,-1.721l-11.232,0l0,16.988l-0.001,0Zm22.994,0.23c4.63,0 6.785,-1.63 6.785,-4.998c0,-3.645 -2.683,-4.196 -6.397,-4.86c-3.026,-0.55 -4.79,-0.963 -4.79,-3.118c0,-2.017 1.306,-2.865 4.355,-2.865c1.925,0 3.736,0.528 4.95,1.33l0.964,-1.467c-1.352,-0.918 -3.255,-1.514 -5.914,-1.514c-4.035,0 -6.144,1.284 -6.144,4.562c0,3.438 2.476,4.057 6.144,4.7c3.05,0.55 5.066,0.893 5.066,3.3c0,2.34 -1.56,3.324 -5.066,3.324c-2.04,0 -4.035,-0.435 -6.075,-1.72l-0.917,1.376c2.155,1.422 4.47,1.95 7.038,1.95l0.001,0Zm12.883,-0.23l5.25,0c6.395,0 9.01,-2.086 9.01,-8.505c0,-6.556 -2.34,-8.482 -8.712,-8.482l-5.548,0l0,16.987Zm1.81,-1.65l0,-13.642l3.76,0c5.388,0 6.878,1.65 6.878,6.785c0,5.043 -1.765,6.854 -7.13,6.854l-3.507,0l-0.001,0.003Zm25.722,1.925c5.455,0 8.572,-2.705 8.572,-8.78c0,-6.052 -3.117,-8.757 -8.573,-8.757c-5.434,0 -8.53,2.705 -8.53,8.757c0,6.075 3.096,8.78 8.53,8.78l0.001,0Zm0,-1.674c-4.61,0 -6.718,-2.475 -6.718,-7.083c0,-4.585 2.11,-7.06 6.717,-7.06c4.63,0 6.76,2.475 6.76,7.06c0,4.608 -2.13,7.083 -6.76,7.083l0.001,0Zm25.215,1.4l1.926,0l-4.103,-6.993c2.957,-0.39 4.356,-2.086 4.356,-5.02c0,-3.37 -1.788,-4.975 -5.73,-4.975l-7.337,0l0,16.987l1.765,0l0,-6.922l5.067,0l4.058,6.922l-0.002,0.001Zm-9.124,-8.575l0,-6.74l5.526,0c2.522,0 3.966,0.734 3.966,3.37c0,2.636 -1.49,3.37 -3.897,3.37l-5.594,0l-0.001,0Z" style="fill:rgb(255,76,136);"/>        <path d="M112.027,9.793c0.575,0 1.042,-0.466 1.042,-1.04c0,-0.576 -0.468,-1.042 -1.043,-1.042c-0.575,0 -1.04,0.467 -1.04,1.042c0,0.575 0.466,1.04 1.04,1.04" style="fill:rgb(255,76,136);"/>    </g></svg>