<?xml version="1.0" encoding="UTF-8" standalone="no"?><!DOCTYPE svg PUBLIC "-//W3C//DTD SVG 1.1//EN" "http://www.w3.org/Graphics/SVG/1.1/DTD/svg11.dtd"><svg width="100%" height="100%" viewBox="0 0 1024 512" version="1.1" xmlns="http://www.w3.org/2000/svg" xmlns:xlink="http://www.w3.org/1999/xlink" xml:space="preserve" style="fill-rule:evenodd;clip-rule:evenodd;stroke-linejoin:round;stroke-miterlimit:2;"><title>CrowdCube</title><desc>Crowdcube is a leading equity crowdfunding platform for entrepreneurs of start-ups and growing businesses to connect with potential investors. Dedicated to helping UK-based entrepreneurs raise finance to start or grow their business, Crowdcube gives investors real equity in the companies they fund. Crowdcube uses the web-based notion of ‘crowdfunding’ where a community of like minded people pool their money and knowledge together to back an idea, business or person.</desc>    <g transform="matrix(4.93726,0,0,4.92322,-14.9323,97.334)">        <path d="M192.079,61.274l-170.734,0c-9.904,0 -17.916,-7.941 -17.916,-17.759c0,-8.894 6.64,-16.427 15.557,-17.597l170.733,-22.573c10.755,-1.441 20.303,6.854 20.303,17.596l0,22.574c0,9.818 -8.039,17.759 -17.943,17.759Z" style="fill:rgb(255,81,0);fill-rule:nonzero;"/>        <path d="M128.181,49.552c-3.265,0 -5.927,-2.611 -5.927,-5.874c0,-3.237 2.634,-5.875 5.927,-5.875c1.755,0 3.347,0.762 4.417,1.986l4.499,-0.272c-1.564,-3.318 -4.966,-5.63 -8.916,-5.63c-5.433,0 -9.85,4.379 -9.85,9.764c0,5.385 4.417,9.763 9.85,9.763c3.95,0 7.352,-2.311 8.916,-5.629l-4.499,-0.272c-1.07,1.278 -2.662,2.039 -4.417,2.039Z" style="fill:white;fill-rule:nonzero;"/>        <path d="M25.707,47.567c-1.07,1.224 -2.661,1.985 -4.417,1.985c-3.265,0 -5.926,-2.611 -5.926,-5.874c0,-3.237 2.634,-5.875 5.926,-5.875c1.756,0 3.347,0.762 4.417,1.986l4.5,-0.272c-1.564,-3.318 -4.966,-5.63 -8.917,-5.63c-5.432,0 -9.849,4.379 -9.849,9.764c0,5.385 4.417,9.763 9.849,9.763c3.951,0 7.353,-2.311 8.917,-5.629l-4.5,-0.218Z" style="fill:white;fill-rule:nonzero;"/>        <path d="M170.075,34.077c-2.222,0 -4.28,0.735 -5.926,1.959l0,-16.182l-3.896,0.435l0,22.954c0,0.19 -0.027,0.38 -0.027,0.598c0,0.19 0,0.381 0.027,0.598l0,8.975l3.896,0l0,-1.768c1.646,1.224 3.704,1.959 5.926,1.959c5.432,0 9.85,-4.379 9.85,-9.764c0,-5.385 -4.39,-9.764 -9.85,-9.764Zm0,15.611c-3.265,0 -6.036,-2.747 -6.036,-5.983c0,-3.236 2.771,-5.738 6.036,-5.738c3.265,0 5.926,2.638 5.926,5.874c0,3.236 -2.661,5.847 -5.926,5.847Z" style="fill:white;fill-rule:nonzero;"/>        <path d="M64.529,43.705c0,5.385 -4.417,9.764 -9.849,9.764c-5.433,0 -9.85,-4.379 -9.85,-9.764c0,-5.385 4.417,-9.764 9.85,-9.764c5.432,0 9.849,4.352 9.849,9.764Zm-9.849,-5.874c-3.265,0 -5.926,2.61 -5.926,5.874c0,3.236 2.633,5.874 5.926,5.874c3.265,0 5.926,-2.61 5.926,-5.874c-0.028,-3.236 -2.661,-5.874 -5.926,-5.874Z" style="fill:white;fill-rule:nonzero;"/>        <path d="M111.637,27.496l0,8.404c-1.646,-1.224 -3.704,-1.959 -5.926,-1.959c-5.433,0 -9.85,4.379 -9.85,9.764c0,5.385 4.417,9.764 9.85,9.764c2.222,0 4.252,-0.735 5.926,-1.959l0,1.959l3.95,0l0,-26.381l-3.95,0.408Zm-5.926,22.056c-3.265,0 -5.927,-2.611 -5.927,-5.874c0,-3.237 2.634,-5.875 5.927,-5.875c3.264,0 6.035,2.611 6.035,5.875c0,3.263 -2.771,5.874 -6.035,5.874Z" style="fill:white;fill-rule:nonzero;"/>        <path d="M44.474,33.805c-0.439,-0.054 -0.906,-0.108 -1.372,-0.108c-2.14,0 -4.17,0.68 -5.46,1.931c-0.137,0.136 -0.302,0.272 -0.439,0.462l0,-2.149l-3.951,0l0,19.528l3.951,0l0,-9.682c0,-0.272 0.028,-0.843 0.055,-1.088c0.357,-3.237 2.853,-5.086 5.871,-5.086c0.329,0 0.631,0.027 0.96,0.082l0.385,-3.89Z" style="fill:white;fill-rule:nonzero;"/>        <path d="M153.065,33.941l0,10.879c-0.028,0.435 -0.082,0.925 -0.165,1.251c-0.603,2.067 -2.469,3.59 -4.746,3.59c-2.415,0 -4.417,-1.74 -4.829,-3.998c-0.055,-0.272 -0.055,-0.544 -0.082,-0.843l0,-10.879l-3.951,0l0,10.906c0,4.841 3.951,8.758 8.834,8.758c1.811,0 3.677,-0.626 4.911,-1.931l0,1.713l3.951,0l0,-19.446l-3.923,0Z" style="fill:white;fill-rule:nonzero;"/>        <path d="M76.628,53.387l3.759,-13.707l3.786,13.707l5.597,0l5.323,-19.418l-4.28,0l-3.896,14.74l-4.033,-14.74l-4.966,0l-4.061,14.74l-3.868,-14.74l-4.307,0l5.322,19.418l5.624,0Z" style="fill:white;fill-rule:nonzero;"/>        <path d="M200.858,44.793l1.235,0c0.027,-0.354 0.055,-0.734 0.055,-1.088c0,-5.385 -4.417,-9.764 -9.85,-9.764c-5.432,0 -9.849,4.379 -9.849,9.764c0,5.385 4.417,9.764 9.849,9.764c3.786,0 7.079,-2.122 8.725,-5.222l-4.198,-0.789c-1.097,1.278 -2.716,2.121 -4.527,2.121c-2.881,0 -5.295,-2.039 -5.816,-4.759l14.376,0l0,-0.027Zm-8.56,-6.962c2.332,0 4.363,1.332 5.323,3.29l-10.645,0c0.96,-1.931 2.963,-3.29 5.322,-3.29Z" style="fill:white;fill-rule:nonzero;"/>    </g></svg>