<?xml version="1.0" encoding="UTF-8" standalone="no"?><!DOCTYPE svg PUBLIC "-//W3C//DTD SVG 1.1//EN" "http://www.w3.org/Graphics/SVG/1.1/DTD/svg11.dtd"><svg width="100%" height="100%" viewBox="0 0 1024 512" version="1.1" xmlns="http://www.w3.org/2000/svg" xmlns:xlink="http://www.w3.org/1999/xlink" xml:space="preserve" style="fill-rule:evenodd;clip-rule:evenodd;stroke-linejoin:round;stroke-miterlimit:2;"><title>Initiative Ireland</title><desc>At Initiative Ireland we work with our Impact Investor Community, to co-fund property development loans across Ireland. Together we finance the construction of energy-efficient social, affordable and mid-market housing projects nationwide, delivering a real social impact. All loans are secured against Irish Property, to provide minimum of 133% of collateral cover for our community and our professional team manages each loan from end-to-end, so you can lend with confidence while we do all the work.</desc>    <g id="InitiativeIreland" transform="matrix(4.4522,0,0,4.4522,2,111.303)">        <path id="Fill-1" d="M178.4,0l-50.8,33.1l0,2.9l2.5,0l0,-1.6l48.3,-31.4l48.2,32.4l0,27.1l-226.6,0l0,2.5l229.1,0l0,-30.9l-50.7,-34.1Z" style="fill:rgb(26,48,62);"/>        <g id="Group-54" transform="matrix(1,0,0,1,0,38.1837)">            <path id="Fill-34" d="M127.5,21.6l2.4,0l0,-20.6l-2.4,0l0,20.6Z" style="fill:rgb(27,172,227);"/>            <path id="Fill-35" d="M165.2,1l0,17.7c0,1.2 0.3,2.1 0.9,2.6c0.6,0.5 1.3,0.8 2.2,0.8c0.4,0 0.9,0 1.5,-0.1c0.6,-0.1 1,-0.2 1.3,-0.4l-0.3,-1.9c-0.4,0.1 -0.7,0.2 -1,0.3c-0.3,0 -0.6,0.1 -0.8,0.1c-0.4,0 -0.8,-0.1 -1,-0.4c-0.2,-0.3 -0.4,-0.8 -0.4,-1.5l0,-17.2l-2.4,0Z" style="fill:rgb(27,172,227);"/>            <path id="Fill-36" d="M182.9,17.5c-0.1,0.3 -0.3,0.5 -0.5,0.8c-0.2,0.3 -0.5,0.5 -0.8,0.8c-0.3,0.2 -0.7,0.4 -1.1,0.6c-0.4,0.1 -0.9,0.2 -1.5,0.2c-0.8,0 -1.4,-0.2 -1.9,-0.7c-0.5,-0.4 -0.8,-1 -0.8,-1.7c0,-0.5 0.1,-0.9 0.4,-1.2c0.3,-0.3 0.6,-0.6 1.1,-0.8c0.4,-0.2 1,-0.3 1.6,-0.4c0.6,-0.1 1.2,-0.1 1.8,-0.1l1.8,0l0,2.5l-0.1,0Zm-0.8,-4.3l-0.8,0c-1.1,0 -2.1,0.1 -3,0.2c-0.9,0.1 -1.7,0.4 -2.3,0.7c-0.7,0.3 -1.2,0.8 -1.5,1.4c-0.4,0.6 -0.5,1.3 -0.5,2.2c0,0.6 0.1,1.2 0.3,1.7c0.2,0.5 0.5,1 0.9,1.3c0.4,0.4 0.9,0.6 1.4,0.8c0.6,0.2 1.1,0.3 1.8,0.3c0.6,0 1.2,-0.1 1.7,-0.2c0.5,-0.1 0.9,-0.3 1.3,-0.5c0.4,-0.2 0.7,-0.4 1,-0.7c0.3,-0.3 0.5,-0.5 0.7,-0.8l0.2,0l0.6,2.1l1.8,0c-0.2,-0.6 -0.3,-1.2 -0.3,-1.8c-0.1,-0.6 -0.1,-1.3 -0.1,-2.1c0,-1 0,-2.1 0.1,-3.2c0.1,-1.1 0.1,-2.3 0.1,-3.5c0,-0.5 -0.1,-1.1 -0.2,-1.6c-0.1,-0.5 -0.3,-1 -0.7,-1.5c-0.3,-0.4 -0.8,-0.8 -1.4,-1.1c-0.6,-0.3 -1.5,-0.4 -2.5,-0.4c-1.1,0 -2.2,0.1 -3.2,0.3c-1,0.2 -1.9,0.6 -2.7,1l0.8,1.8c0.3,-0.2 0.6,-0.3 1,-0.4c0.4,-0.1 0.8,-0.2 1.2,-0.3c0.4,-0.1 0.8,-0.2 1.2,-0.2c0.4,-0.1 0.8,-0.1 1.1,-0.1c1.2,0 2,0.2 2.4,0.6c0.4,0.4 0.7,1.2 0.7,2.3c0,0.5 0,1 -0.1,1.6c-0.4,0.1 -0.7,0.1 -1,0.1Z" style="fill:rgb(27,172,227);"/>            <path id="Fill-37" d="M150,12.6c0.1,-1.5 0.6,-2.5 1.3,-3.1c0.7,-0.6 1.7,-0.9 2.8,-0.9c1.1,0 1.9,0.3 2.5,0.9c0.6,0.6 0.9,1.6 0.9,3.1l-7.5,0Zm9.8,-0.3c0,-1.2 -0.2,-2.2 -0.5,-3c-0.3,-0.8 -0.8,-1.3 -1.3,-1.8c-0.5,-0.4 -1.2,-0.7 -1.8,-0.8c-0.7,-0.1 -1.4,-0.2 -2,-0.2c-2.1,0 -3.8,0.7 -4.9,2c-1.1,1.3 -1.7,3.2 -1.7,5.8c0,1.2 0.1,2.2 0.4,3.2c0.3,0.9 0.7,1.8 1.2,2.4c0.5,0.7 1.2,1.2 2.1,1.6c0.8,0.4 1.8,0.5 3,0.5c1,0 2,-0.1 2.9,-0.4c0.9,-0.3 1.7,-0.7 2.3,-1.1l-0.9,-1.7c-0.3,0.3 -0.9,0.6 -1.5,0.8c-0.7,0.2 -1.4,0.4 -2,0.4c-0.9,0 -1.6,-0.1 -2.2,-0.4c-0.6,-0.2 -1.1,-0.6 -1.5,-1.1c-0.4,-0.5 -0.7,-1 -0.8,-1.7c-0.2,-0.7 -0.3,-1.4 -0.3,-2.3l9.6,0c-0.2,-0.8 -0.1,-1.5 -0.1,-2.2Z" style="fill:rgb(27,172,227);"/>            <path id="Fill-38" d="M218.2,16.8c-0.2,1.1 -0.6,1.9 -1.2,2.4c-0.6,0.5 -1.4,0.8 -2.4,0.8c-0.7,0 -1.3,-0.1 -1.8,-0.4c-0.5,-0.3 -0.9,-0.7 -1.2,-1.2c-0.3,-0.5 -0.5,-1.1 -0.6,-1.8c-0.1,-0.7 -0.2,-1.4 -0.2,-2.2c0,-2 0.4,-3.4 1.2,-4.3c0.8,-0.9 1.9,-1.3 3.2,-1.3c0.8,0 1.4,0.1 1.8,0.2c0.5,0.1 0.9,0.3 1.2,0.6l0,7.2Zm0,-15.8l0,6.1c-0.5,-0.2 -1,-0.3 -1.4,-0.4c-0.4,-0.1 -1,-0.1 -1.8,-0.1c-2.1,0 -3.8,0.7 -5,2c-1.2,1.3 -1.8,3.2 -1.8,5.7c0,2.6 0.5,4.6 1.5,5.8c1,1.2 2.5,1.9 4.5,1.9c1,0 1.9,-0.2 2.7,-0.7c0.8,-0.5 1.3,-1 1.7,-1.7l0.1,0l0.6,2.1l1.6,0c-0.2,-0.8 -0.2,-1.6 -0.3,-2.4l0,-2.7l0,-15.6l-2.4,0Z" style="fill:rgb(27,172,227);"/>            <path id="Fill-39" d="M203.3,21.6l0,-8.9c0,-1.2 -0.1,-2.2 -0.3,-3c-0.2,-0.8 -0.5,-1.4 -0.9,-1.9c-0.4,-0.5 -0.9,-0.8 -1.5,-1c-0.6,-0.2 -1.3,-0.3 -2.2,-0.3c-1.1,0 -2.1,0.2 -2.9,0.6c-0.8,0.4 -1.5,0.9 -1.9,1.5l-0.1,0l-0.4,-1.8l-1.7,0l0,14.8l2.4,0l0,-10c0.3,-0.8 0.8,-1.6 1.5,-2.1c0.7,-0.6 1.6,-0.8 2.6,-0.8c1.2,0 2,0.4 2.5,1.2c0.4,0.8 0.7,1.9 0.7,3.5l0,8.4l2.2,0l0,-0.2Z" style="fill:rgb(27,172,227);"/>            <path id="Fill-40" d="M140.1,9.6c0.5,-0.5 1.2,-0.7 2,-0.7c0.5,0 1.1,0.1 1.7,0.3l0.5,-2.3c-0.7,-0.2 -1.4,-0.3 -2,-0.3c-0.8,0 -1.5,0.2 -2,0.5c-0.5,0.4 -1,0.9 -1.4,1.5l-0.1,0l-0.5,-1.8l-1.7,0l0,14.8l2.4,0l0,-10.3c0.3,-0.7 0.6,-1.3 1.1,-1.7" style="fill:rgb(27,172,227);"/>            <path id="Fill-41" d="M59.1,16.2c0.3,-0.3 0.6,-0.6 1.1,-0.8c0.5,-0.2 1,-0.3 1.6,-0.4l3.6,0l0,2.5c-0.1,0.3 -0.3,0.5 -0.5,0.8c-0.2,0.3 -0.5,0.5 -0.8,0.8c-0.3,0.2 -0.7,0.4 -1.1,0.6c-0.4,0.1 -0.9,0.2 -1.5,0.2c-0.8,0 -1.4,-0.2 -1.9,-0.7c-0.5,-0.4 -0.8,-1 -0.8,-1.7c-0.1,-0.5 0.1,-0.9 0.3,-1.3m-1.6,4.5c0.4,0.4 0.9,0.6 1.4,0.8c0.5,0.2 1.1,0.3 1.8,0.3c0.6,0 1.2,-0.1 1.7,-0.2c0.5,-0.1 0.9,-0.3 1.3,-0.5c0.4,-0.2 0.7,-0.4 1,-0.7c0.3,-0.3 0.5,-0.5 0.7,-0.8l0.2,0l0.6,2.1l1.8,0c-0.2,-0.6 -0.3,-1.2 -0.3,-1.8c-0.1,-0.7 -0.1,-1.3 -0.1,-2.1c0,-1 0,-2.1 0.1,-3.2c0.1,-1.1 0.1,-2.3 0.1,-3.5c0,-0.5 -0.1,-1.1 -0.2,-1.6c-0.1,-0.5 -0.3,-1 -0.7,-1.5c-0.3,-0.4 -0.8,-0.8 -1.4,-1.1c-0.6,-0.3 -1.5,-0.4 -2.5,-0.4c-1.1,0 -2.2,0.1 -3.2,0.3c-1,0.2 -1.9,0.6 -2.7,1l0.8,1.8c0.3,-0.2 0.6,-0.3 1,-0.4c0.4,-0.1 0.8,-0.2 1.2,-0.3c0.4,-0.1 0.8,-0.2 1.2,-0.2c0.4,-0.1 0.8,-0.1 1.1,-0.1c1.2,0 2,0.2 2.4,0.7c0.4,0.4 0.7,1.2 0.7,2.3c0,0.5 0,1 -0.1,1.6c-0.3,0 -0.6,-0.1 -0.8,-0.1l-0.8,0c-1.1,0 -2.1,0.1 -3,0.2c-0.9,0.1 -1.7,0.4 -2.3,0.7c-0.7,0.3 -1.2,0.8 -1.5,1.4c-0.4,0.6 -0.5,1.3 -0.5,2.2c0,0.6 0.1,1.2 0.3,1.7c0,0.6 0.3,1.1 0.7,1.4" style="fill:rgb(26,48,62);"/>            <path id="Fill-42" d="M113,9.5c0.7,-0.6 1.7,-0.9 2.8,-0.9c1.1,0 1.9,0.3 2.5,0.9c0.6,0.6 0.9,1.7 0.9,3.1l-7.4,0c0.1,-1.4 0.5,-2.5 1.2,-3.1m-2.2,10.4c0.5,0.7 1.2,1.2 2.1,1.6c0.8,0.4 1.8,0.5 3,0.5c1,0 2,-0.1 2.9,-0.4c0.9,-0.3 1.7,-0.6 2.3,-1.1l-0.9,-1.7c-0.3,0.3 -0.9,0.6 -1.5,0.8c-0.7,0.2 -1.4,0.4 -2,0.4c-0.9,0 -1.6,-0.1 -2.2,-0.4c-0.6,-0.2 -1.1,-0.6 -1.5,-1.1c-0.4,-0.5 -0.7,-1 -0.8,-1.7c-0.2,-0.7 -0.3,-1.4 -0.3,-2.3l9.6,0c0.1,-0.8 0.2,-1.5 0.2,-2.2c0,-1.2 -0.2,-2.2 -0.5,-3c-0.3,-0.8 -0.8,-1.3 -1.3,-1.8c-0.5,-0.4 -1.2,-0.7 -1.8,-0.8c-0.7,-0.1 -1.4,-0.2 -2,-0.2c-2.1,0 -3.8,0.7 -4.9,2c-1.1,1.3 -1.7,3.2 -1.7,5.8c0,1.2 0.1,2.2 0.4,3.2c-0.1,0.9 0.3,1.7 0.9,2.4" style="fill:rgb(26,48,62);"/>            <path id="Fill-43" d="M74,17.6c0,1.6 0.2,2.7 0.8,3.4c0.5,0.7 1.4,1 2.6,1c0.7,0 1.4,-0.1 2.1,-0.2c0.6,-0.2 1.2,-0.4 1.8,-0.6l-0.5,-1.8c-0.4,0.2 -0.8,0.3 -1.2,0.4c-0.4,0.1 -0.8,0.2 -1.3,0.2c-0.6,0 -1.1,-0.2 -1.3,-0.6c-0.3,-0.4 -0.4,-1.1 -0.4,-2.2l0,-8.2l4.1,0l0,-2.1l-4.1,0l0,-3.6l-2.6,0.7l0,2.9l-2.3,0l0,2.1l2.3,0l0,8.6Z" style="fill:rgb(26,48,62);"/>            <path id="Fill-44" d="M49.6,4c0.5,0 0.9,-0.1 1.2,-0.4c0.3,-0.3 0.5,-0.7 0.5,-1.1c0,-0.5 -0.2,-0.8 -0.5,-1.2c-0.3,-0.3 -0.8,-0.5 -1.2,-0.5c-0.5,0 -0.9,0.2 -1.2,0.5c-0.3,0.3 -0.5,0.7 -0.5,1.2c0,0.5 0.2,0.8 0.5,1.1c0.4,0.2 0.7,0.4 1.2,0.4" style="fill:rgb(26,48,62);"/>            <path id="Fill-45" d="M48.5,21.6l2.4,0l0,-14.7l-2.4,0l0,14.7Z" style="fill:rgb(26,48,62);"/>            <path id="Fill-46" d="M85.7,21.6l2.4,0l0,-14.7l-2.4,0l0,14.7Z" style="fill:rgb(26,48,62);"/>            <path id="Fill-47" d="M86.8,4c0.5,0 0.9,-0.1 1.2,-0.4c0.3,-0.3 0.5,-0.7 0.5,-1.1c0,-0.5 -0.2,-0.8 -0.5,-1.2c-0.3,-0.3 -0.8,-0.5 -1.2,-0.5c-0.5,0 -0.9,0.2 -1.2,0.5c-0.3,0.3 -0.5,0.7 -0.5,1.2c0,0.5 0.2,0.8 0.5,1.1c0.3,0.2 0.7,0.4 1.2,0.4" style="fill:rgb(26,48,62);"/>            <path id="Fill-48" d="M100,22l6.4,-15.1l-2.5,0l-3.4,8.6l-0.8,2.8l-0.8,-2.8l-3.6,-8.6l-2.8,0l6.5,15.1l1,0Z" style="fill:rgb(26,48,62);"/>            <path id="Fill-49" d="M28.7,4c0.5,0 0.9,-0.1 1.2,-0.4c0.3,-0.3 0.5,-0.7 0.5,-1.1c0,-0.5 -0.2,-0.8 -0.5,-1.2c-0.3,-0.3 -0.8,-0.5 -1.2,-0.5c-0.5,0 -0.9,0.2 -1.2,0.5c-0.3,0.3 -0.5,0.7 -0.5,1.2c0,0.5 0.2,0.8 0.5,1.1c0.3,0.2 0.7,0.4 1.2,0.4" style="fill:rgb(26,48,62);"/>            <path id="Fill-50" d="M36.8,17.6c0,1.6 0.2,2.7 0.8,3.4c0.5,0.7 1.4,1 2.6,1c0.7,0 1.4,-0.1 2.1,-0.2c0.6,-0.2 1.2,-0.4 1.8,-0.6l-0.5,-1.8c-0.4,0.2 -0.8,0.3 -1.2,0.4c-0.4,0.1 -0.8,0.2 -1.3,0.2c-0.6,0 -1.1,-0.2 -1.3,-0.6c-0.3,-0.4 -0.4,-1.1 -0.4,-2.2l0,-8.2l4.1,0l0,-2.1l-4.1,0l0,-3.6l-2.6,0.7l0,2.9l-2.3,0l0,2.1l2.3,0l0,8.6Z" style="fill:rgb(26,48,62);"/>            <path id="Fill-51" d="M27.6,21.6l2.4,0l0,-14.7l-2.4,0l0,14.7Z" style="fill:rgb(26,48,62);"/>            <path id="Fill-52" d="M11.7,11.5c0.3,-0.8 0.8,-1.6 1.5,-2.1c0.7,-0.5 1.6,-0.8 2.6,-0.8c1.2,0 2,0.4 2.5,1.2c0.5,0.8 0.7,1.9 0.7,3.5l0,8.4l2.4,0l0,-8.9c0,-1.2 -0.1,-2.2 -0.3,-3c-0.2,-0.8 -0.5,-1.4 -0.9,-1.9c-0.4,-0.5 -0.9,-0.8 -1.5,-1c-0.6,-0.2 -1.3,-0.3 -2.2,-0.3c-1.1,0 -2.1,0.2 -2.9,0.6c-0.8,0.4 -1.5,0.9 -1.9,1.5l-0.1,0l-0.6,-1.8l-1.7,0l0,14.8l2.4,0l0,-10.2Z" style="fill:rgb(26,48,62);"/>            <path id="Fill-53" d="M0,21.6l2.5,0l0,-20.6l-2.5,0l0,20.6Z" style="fill:rgb(26,48,62);"/>        </g>    </g></svg>