<?xml version="1.0" encoding="UTF-8" standalone="no"?><!DOCTYPE svg PUBLIC "-//W3C//DTD SVG 1.1//EN" "http://www.w3.org/Graphics/SVG/1.1/DTD/svg11.dtd"><svg width="100%" height="100%" viewBox="0 0 1024 512" version="1.1" xmlns="http://www.w3.org/2000/svg" xmlns:xlink="http://www.w3.org/1999/xlink" xml:space="preserve" style="fill-rule:evenodd;clip-rule:evenodd;stroke-linejoin:round;stroke-miterlimit:2;"><title>GetCash</title><desc></desc>    <g id="layer102" transform="matrix(1.01479,0,0,1.01405,-8.51701,-9.20829)">        <path d="M739.2,474.5c-10.7,-2.3 -18.8,-8.5 -22.9,-17.3c-2.5,-5.3 -3.2,-69.5 -0.9,-77.5c3.8,-13 14.8,-20.4 33.1,-22.2c12.2,-1.2 36.8,3.5 38.2,7.2c0.8,2 -1.3,8.7 -3.5,11.1l-1.7,2.1l-9,-3.1c-20.2,-7 -36.7,-2.6 -41.3,11.1c-1.6,4.5 -1.6,57 -0.1,62.6c1.6,5.7 7.4,11 14,12.5c6.9,1.7 21.2,0.7 30.8,-2c8.2,-2.3 8.3,-2.3 10.1,4c1.9,6.8 1.6,7.6 -4.7,9.3c-13.9,3.9 -30.4,4.7 -42.1,2.2Z" style="fill:rgb(139,188,9);fill-rule:nonzero;"/>        <path d="M814.5,475.4c-6.2,-1.6 -9,-2.9 -12.1,-5.7c-5.6,-4.9 -7.7,-9.9 -8.2,-19.9c-0.4,-8 -0.2,-9.3 2.2,-14.2c5.2,-10.5 14.2,-13.9 35.6,-13.4l14,0.3l0,-4.8c0,-9.4 -4,-14.4 -12.5,-15.7c-5.8,-0.9 -17.4,0.6 -23.7,3c-2.8,1.1 -5.4,1.7 -5.9,1.5c-0.9,-0.6 -3.9,-9.3 -3.9,-11.6c0,-4.1 23.2,-8.4 36.4,-6.8c8.5,1 14.7,3.9 18.6,8.7c5.5,6.7 6,10.3 6,45.3l0,31.6l-3.8,0.6c-2,0.4 -5.4,0.4 -7.5,0c-3.4,-0.5 -3.7,-0.8 -3.7,-3.8l0,-3.3l-7.7,4c-6.4,3.2 -9.1,4 -14.8,4.3c-3.8,0.2 -7.9,0.2 -9,-0.1Zm23,-16.7c8.7,-4.6 8.5,-4.3 8.5,-14.9l0,-9.5l-5.2,-0.7c-13.6,-1.6 -24.4,0.2 -28.8,4.9c-1.7,1.8 -2.4,4 -2.7,7.7c-0.5,6.6 1.8,11.4 6.7,14c5,2.7 14.7,2 21.5,-1.5Z" style="fill:rgb(139,188,9);fill-rule:nonzero;"/>        <path d="M891.8,474.5c-3.2,-0.8 -8.1,-2.6 -10.9,-4c-4.6,-2.4 -5,-2.9 -4.4,-5.3c0.8,-3.1 4.3,-9.2 5.4,-9.2c0.3,0 3.8,1.3 7.6,2.9c3.9,1.6 9.1,3.2 11.6,3.6c9.9,1.5 17.9,-3.7 17.9,-11.5c0,-6.1 -3.6,-9.5 -17.5,-16c-18.1,-8.6 -22.7,-13.5 -22.8,-25c-0.1,-14.6 10.6,-23 29.1,-23c9.3,0 24.2,4 24.2,6.4c0,1.9 -3.1,10.5 -4,11.1c-0.4,0.3 -2.3,-0.1 -4.2,-0.9c-5.2,-2.2 -15.6,-3.8 -20,-3.1c-5.4,0.9 -9.8,4.8 -9.8,8.7c0,4.4 4.3,7.9 15.8,12.8c12,5.1 18.8,10.1 22.2,16c3.4,6.1 3.5,17.5 0.3,23.6c-2.6,4.9 -8,9.8 -13.1,12c-5.2,2.2 -20.2,2.7 -27.4,0.9Z" style="fill:rgb(139,188,9);fill-rule:nonzero;"/>        <path d="M951.2,474.3l-3.2,-0.4l0.2,-58.2l0.3,-58.2l15,0l0.3,21.4l0.2,21.3l4.6,-4.2c7,-6.5 12.3,-8.5 22.5,-8.5c7.8,0 9,0.3 13.5,3c3.7,2.4 5.6,4.4 7.9,9l3,5.9l0,68l-3.5,0.8c-1.9,0.4 -5.4,0.5 -7.7,0.2l-4.2,-0.6l-0.3,-31.2c-0.3,-34.3 -0.6,-35.9 -6.8,-39.1c-7,-3.6 -15.7,-0.7 -23.9,8l-5.1,5.4l0,56.8l-3.7,0.7c-2.1,0.3 -4.2,0.5 -4.8,0.4c-0.5,-0.1 -2.5,-0.3 -4.3,-0.5Z" style="fill:rgb(139,188,9);fill-rule:nonzero;"/>        <path d="M378.1,369.5l-9.6,-9.5l95.7,-95.7c74.3,-74.3 95.9,-96.5 96.3,-98.8c0.4,-1.9 0,-4.1 -1.2,-6.1c-2,-3.3 -96.2,-96.1 -99.7,-98.1c-2.8,-1.6 -6.1,-1.6 -9.4,0.1c-1.5,0.8 -45.2,44 -97.1,96.1l-94.3,94.7l-9.9,-9.8c-8.6,-8.6 -9.9,-10.3 -9.9,-13.2c0,-3.2 6.4,-9.9 91.9,-96.1c130,-131 122.3,-123.5 126.3,-122.7c2.7,0.5 16.9,14.2 77.1,74.4c69.4,69.4 73.7,73.9 73.7,77.2c0,3.3 -6,9.5 -106.8,110.2c-99.7,99.8 -106.9,106.8 -110.1,106.8c-3,0 -4.7,-1.3 -13,-9.5Z" style="fill:rgb(139,188,9);fill-rule:nonzero;"/>        <path d="M313.9,306.6c-26,-25.6 -47.5,-46.9 -47.6,-47.3c-0.2,-0.4 42.2,-43.3 94.2,-95.3l94.5,-94.5l19.2,19c10.6,10.5 32.2,31.7 47.9,47.2l28.7,28l-94.7,94.7l-94.7,94.7l-47.5,-46.5Z" style="fill:rgb(139,188,9);fill-rule:nonzero;"/>        <path d="M131.6,391.1c-116.3,-116.3 -121.8,-122 -121.2,-124.7c0.5,-2 18.7,-20.9 60.6,-62.8c53.9,-54 60.1,-59.9 63,-59.9c2.9,0 14.4,11.2 124.6,121.4c93.2,93.2 121.4,122 121.4,123.8c0,1.7 -2.9,5.3 -9.7,12.2c-8.1,8.2 -10.2,9.9 -12.7,9.9c-2.7,0 -9.4,-6.3 -57.6,-54.5c-48,-48 -54.9,-54.5 -57.6,-54.5c-1.6,0 -3.5,0.5 -4.2,1.2c-3.7,3.7 -2.8,4.6 53.8,61.3c41.6,41.6 55,55.6 55,57.4c0,1.7 -3,5.4 -9.7,12.2c-8.1,8.2 -10.2,9.9 -12.7,9.9c-2.7,0 -9.4,-6.3 -57.6,-54.5c-48,-48 -54.9,-54.5 -57.6,-54.5c-1.6,0 -3.5,0.5 -4.2,1.2c-3.7,3.7 -2.8,4.6 53.5,61c48.9,49 54.6,55 54.6,57.8c0,2.6 -1.5,4.7 -9.4,12.6c-7.7,7.7 -9.9,9.4 -12.4,9.4c-2.6,0 -9.6,-6.7 -57.5,-54.5c-48,-48 -54.9,-54.5 -57.6,-54.5c-1.6,0 -3.5,0.5 -4.2,1.2c-3.7,3.7 -2.8,4.6 53.5,61c49.3,49.3 54.6,55 54.6,57.8c0,2.8 -1.5,4.8 -11,14.1c-7.8,7.8 -11.7,10.9 -13.4,10.9c-1.8,0 -29.9,-27.5 -124.3,-121.9Z" style="fill:rgb(0,143,215);fill-rule:nonzero;"/>        <path d="M499,474.5c-8.3,-2.4 -13.9,-5.5 -18.1,-10.3c-6.8,-7.8 -7,-9.5 -6.7,-49.4l0.3,-35.3l2.7,-5.1c5,-9.5 13.7,-14.6 28.3,-16.5c6.6,-0.8 11.4,-0.8 17.5,0c10.2,1.2 23,4.9 23.7,6.9c0.8,1.9 -1.3,8.5 -3.5,11.1l-1.7,2.1l-6.6,-2.5c-19.1,-6.9 -36.6,-3.9 -42.6,7.4c-2.2,4.3 -2.3,5 -2.3,32.5c0,16.2 0.4,29.7 1,31.8c2.5,8.7 10.3,13.9 22,14.6c12.7,0.7 20.7,-2.8 24.8,-10.8c1.9,-3.8 2.2,-6 2.2,-15.2l0,-10.8l-10.9,0l-10.8,0l-0.6,-3.8c-0.4,-2 -0.4,-5.4 0,-7.5l0.6,-3.7l39,0l-0.5,20.4l-0.4,20.4l-3.5,6.8c-3.9,7.9 -9.8,13 -18.3,15.9c-7.2,2.5 -28.1,3 -35.6,1Z" style="fill:rgb(0,143,215);fill-rule:nonzero;"/>        <path d="M591.3,474.1c-7.2,-2.4 -11.9,-5.8 -15.4,-11c-4.8,-7.2 -5.4,-10.9 -5.4,-31.6c0,-22.1 1.1,-26.6 8.2,-34.5c6.6,-7.4 12.4,-9.5 25.8,-9.5c10,0 11.5,0.3 16.7,2.8c6.4,3.2 11.1,8 14.2,14.6c1.7,3.8 2.1,7 2.4,18.9l0.4,14.2l-26.1,0l-26.1,0l0,4.8c0,6.9 1.6,11.4 5.2,14.9c7.7,7.3 20.3,6.9 38.9,-1.1c2.2,-1 6.1,4.4 6.3,8.7c0.1,2.9 -0.4,3.4 -4.8,5.5c-10.8,5.2 -30.3,6.8 -40.3,3.3Zm31.7,-53c0,-12.6 -7.5,-21 -18.7,-21.1c-11.1,0 -18.2,7.9 -18.3,20.3l0,5.7l37,0l0,-4.9Z" style="fill:rgb(0,143,215);fill-rule:nonzero;"/>        <path d="M674.1,472.8c-5.1,-1.4 -8,-3.7 -10.2,-7.9c-1.7,-3.5 -1.9,-6.1 -1.9,-32.4l0,-28.5l-6.5,0l-6.6,0l0.3,-6.2l0.3,-6.3l6.2,-0.3l6.2,-0.3l0.3,-10.2l0.3,-10.2l14,0l0.3,10.3l0.3,10.2l17.9,0l0,13l-9,0l-9,0l0,25.8c0,31.1 -0.3,30.2 10,30.2c7.6,0 9,1 9,6.7c0,7.1 -0.4,7.3 -9.9,7.2c-4.7,0 -10.1,-0.5 -12,-1.1Z" style="fill:rgb(0,143,215);fill-rule:nonzero;"/>    </g></svg>