<?xml version="1.0" encoding="UTF-8" standalone="no"?><!DOCTYPE svg PUBLIC "-//W3C//DTD SVG 1.1//EN" "http://www.w3.org/Graphics/SVG/1.1/DTD/svg11.dtd"><svg width="100%" height="100%" viewBox="0 0 1024 512" version="1.1" xmlns="http://www.w3.org/2000/svg" xmlns:xlink="http://www.w3.org/1999/xlink" xml:space="preserve" style="fill-rule:evenodd;clip-rule:evenodd;stroke-linejoin:round;stroke-miterlimit:2;"><title>Lendex</title><desc>Lendex originates point-of-sale consumer loans in the Netherlands with an initial asset focus on housing, sustainability, health(care) and mobility. Lendex developed a full-service state-of-the-art digital first online and offline point-of-sale consumer lending platform. Lendex specifically targets customers that need financing when buying a product that should feel like an investment rather than consumption.</desc>    <g transform="matrix(8.06628,0,0,8.06628,-294.484,124.242)">        <g transform="matrix(36,0,0,36,34.2719,29.3864)">            <path d="M0.069,-0.678l0,0.678l0.457,0l0,-0.108l-0.312,0l0,-0.57l-0.145,0Z" style="fill:rgb(11,54,117);fill-rule:nonzero;"/>        </g>        <g transform="matrix(36,0,0,36,54.7519,29.3864)">            <path d="M0.402,-0.314l-0.231,0c0.001,-0.01 0.003,-0.021 0.006,-0.034c0.004,-0.013 0.01,-0.025 0.019,-0.036c0.01,-0.011 0.021,-0.021 0.037,-0.029c0.015,-0.007 0.033,-0.011 0.056,-0.011c0.035,0 0.06,0.009 0.077,0.028c0.017,0.019 0.029,0.046 0.036,0.082Zm-0.231,0.09l0.373,0c0.003,-0.04 -0.001,-0.078 -0.01,-0.115c-0.009,-0.037 -0.025,-0.069 -0.046,-0.098c-0.021,-0.029 -0.047,-0.051 -0.08,-0.069c-0.033,-0.017 -0.071,-0.025 -0.115,-0.025c-0.039,0 -0.075,0.007 -0.108,0.021c-0.032,0.014 -0.06,0.033 -0.083,0.057c-0.023,0.025 -0.041,0.054 -0.054,0.087c-0.013,0.033 -0.019,0.069 -0.019,0.108c0,0.04 0.006,0.077 0.018,0.11c0.013,0.033 0.03,0.062 0.053,0.086c0.023,0.024 0.05,0.043 0.083,0.056c0.033,0.013 0.069,0.019 0.11,0.019c0.059,0 0.109,-0.013 0.15,-0.04c0.041,-0.027 0.072,-0.071 0.092,-0.133l-0.125,0c-0.005,0.016 -0.017,0.031 -0.038,0.046c-0.021,0.014 -0.045,0.021 -0.074,0.021c-0.04,0 -0.071,-0.01 -0.092,-0.031c-0.021,-0.021 -0.033,-0.054 -0.035,-0.1Z" style="fill:rgb(11,54,117);fill-rule:nonzero;"/>        </g>        <g transform="matrix(36,0,0,36,75.8499,29.3864)">            <path d="M0.054,-0.517l0,0.517l0.142,0l0,-0.271c0,-0.053 0.009,-0.09 0.026,-0.113c0.017,-0.023 0.045,-0.035 0.084,-0.035c0.034,0 0.058,0.011 0.071,0.032c0.013,0.021 0.02,0.052 0.02,0.095l0,0.292l0.13,0l0,-0.318c0,-0.032 -0.007,-0.079 -0.05,-0.142c-0.044,-0.065 -0.109,-0.067 -0.147,-0.067c-0.03,0 -0.039,0.003 -0.068,0.017c-0.029,0.013 -0.052,0.035 -0.07,0.065l-0.003,0l0,-0.072l-0.135,0Z" style="fill:rgb(11,54,117);fill-rule:nonzero;"/>        </g>        <g transform="matrix(36,0,0,36,96.7639,29.3864)">            <path d="M0.421,-0.26c0,0.021 -0.002,0.042 -0.006,0.062c-0.004,0.02 -0.011,0.038 -0.02,0.054c-0.009,0.015 -0.022,0.028 -0.037,0.037c-0.016,0.009 -0.036,0.014 -0.059,0.014c-0.022,0 -0.041,-0.005 -0.056,-0.014c-0.016,-0.01 -0.029,-0.023 -0.039,-0.038c-0.011,-0.016 -0.018,-0.034 -0.023,-0.054c-0.005,-0.02 -0.007,-0.04 -0.007,-0.06c0,-0.021 0.002,-0.042 0.007,-0.062c0.004,-0.019 0.011,-0.037 0.021,-0.052c0.009,-0.015 0.022,-0.028 0.038,-0.037c0.016,-0.009 0.036,-0.014 0.059,-0.014c0.023,0 0.043,0.005 0.058,0.014c0.015,0.009 0.028,0.021 0.038,0.036c0.009,0.015 0.016,0.033 0.02,0.052c0.004,0.02 0.006,0.041 0.006,0.062Zm0.002,0.194l0,0.066l0.135,0l0,-0.738l-0.142,0l0,0.284l-0.002,0c-0.016,-0.025 -0.038,-0.045 -0.066,-0.058c-0.027,-0.013 -0.056,-0.019 -0.087,-0.019c-0.038,0 -0.071,0.008 -0.1,0.022c-0.029,0.015 -0.053,0.035 -0.072,0.06c-0.019,0.025 -0.033,0.053 -0.042,0.086c-0.01,0.032 -0.015,0.065 -0.015,0.1c0,0.036 0.005,0.071 0.015,0.104c0.009,0.033 0.024,0.063 0.043,0.089c0.019,0.025 0.043,0.046 0.072,0.061c0.029,0.015 0.063,0.022 0.102,0.022c0.034,0 0.065,-0.006 0.091,-0.018c0.028,-0.013 0.049,-0.033 0.066,-0.061l0.002,0Z" style="fill:rgb(11,54,117);fill-rule:nonzero;"/>        </g>        <g transform="matrix(36,0,0,36,119.628,29.3864)">            <path d="M0.402,-0.314l-0.231,0c0.001,-0.01 0.003,-0.021 0.006,-0.034c0.004,-0.013 0.01,-0.025 0.019,-0.036c0.01,-0.011 0.021,-0.021 0.037,-0.029c0.015,-0.007 0.033,-0.011 0.056,-0.011c0.035,0 0.06,0.009 0.077,0.028c0.017,0.019 0.029,0.046 0.036,0.082Zm-0.231,0.09l0.373,0c0.003,-0.04 -0.001,-0.078 -0.01,-0.115c-0.009,-0.037 -0.025,-0.069 -0.046,-0.098c-0.021,-0.029 -0.047,-0.051 -0.08,-0.069c-0.033,-0.017 -0.071,-0.025 -0.115,-0.025c-0.039,0 -0.075,0.007 -0.108,0.021c-0.032,0.014 -0.06,0.033 -0.083,0.057c-0.023,0.025 -0.041,0.054 -0.054,0.087c-0.013,0.033 -0.019,0.069 -0.019,0.108c0,0.04 0.006,0.077 0.018,0.11c0.013,0.033 0.03,0.062 0.053,0.086c0.023,0.024 0.05,0.043 0.083,0.056c0.033,0.013 0.069,0.019 0.11,0.019c0.059,0 0.109,-0.013 0.15,-0.04c0.041,-0.027 0.072,-0.071 0.092,-0.133l-0.125,0c-0.005,0.016 -0.017,0.031 -0.038,0.046c-0.021,0.014 -0.045,0.021 -0.074,0.021c-0.04,0 -0.071,-0.01 -0.092,-0.031c-0.021,-0.021 -0.033,-0.054 -0.035,-0.1Z" style="fill:rgb(11,54,117);fill-rule:nonzero;"/>        </g>        <g transform="matrix(36,0,0,36,140.726,29.3864)">            <path d="M0.186,-0.263l-0.186,0.263l0.147,0l0.108,-0.163l0.12,0.163l0.138,0l-0.179,-0.263l-0.148,0Z" style="fill:rgb(11,54,117);fill-rule:nonzero;"/>        </g>        <g transform="matrix(36,0,0,36,140.726,29.3864)">            <path d="M0.016,-0.517l0.239,0.354l0.37,-0.523l-0.157,0l-0.211,0.316l-0.103,-0.147l-0.138,0Z" style="fill:rgb(35,190,190);fill-rule:nonzero;"/>        </g>    </g></svg>