<?xml version="1.0" encoding="UTF-8" standalone="no"?><!DOCTYPE svg PUBLIC "-//W3C//DTD SVG 1.1//EN" "http://www.w3.org/Graphics/SVG/1.1/DTD/svg11.dtd"><svg width="100%" height="100%" viewBox="0 0 1024 512" version="1.1" xmlns="http://www.w3.org/2000/svg" xmlns:xlink="http://www.w3.org/1999/xlink" xml:space="preserve" style="fill-rule:evenodd;clip-rule:evenodd;stroke-linejoin:round;stroke-miterlimit:2;"><title>Neufund</title><desc>Founded in 2016 in Berlin by Zoe Adamovicz and Marcin Rudolf, Neufund is a fintech startup that connects investors and entrepreneurs in a novel way. The company creates blockchain-based solutions and services, which include a fundraising and investing platform, an employee stock option plan (ESOP) manager, a light wallet, post-investment instruments, and more.</desc>    <g transform="matrix(8.2569,0,0,8.2569,-1652.4,-1954.98)">        <g transform="matrix(1,0,0,1,200.267,253.744)">            <path d="M107.399,7.146l0,10.751l-1.273,-1.489l-7.97,-9.398l-0.254,0l0,14.137l1.41,0l0,-10.711l1.586,1.86l7.636,9.008l0.255,0l0,-14.158l-1.39,0Z" style="fill:rgb(16,37,50);fill-rule:nonzero;"/>        </g>        <g transform="matrix(1,0,0,1,200.267,253.744)">            <path d="M24.24,7.049l-12.021,-6.932l-0.059,-0.02l-6.03,3.467l-6.032,3.485l-0,13.941l6.03,3.486l6.031,3.485l6.05,-3.485l6.032,-3.486l-0,-13.94l-0.001,-0.001Zm-19.05,15.37l-3.78,-2.192l-0,-12.414l3.78,-2.193l-0,16.8l-0,-0.001Zm11.69,1.313l-10.4,-18.016l-0,17.447l5.698,3.29l4.7,-2.723l0.002,0.002Zm6.05,-3.486l-3.82,2.194l-0,-16.84l3.819,2.193l-0,12.453l0.001,0Zm-15.685,-15.82l10.573,18.307l-0,-17.897l-5.639,-3.25l-4.934,2.84Z" style="fill:rgb(16,37,50);"/>        </g>        <g transform="matrix(1,0,0,1,200.267,253.744)">            <path d="M67.259,16.271c0,2.487 -1.39,3.72 -3.544,3.72c-2.193,0 -3.544,-1.233 -3.544,-3.72l0,-9.124l-1.489,0l0,9.222c0,3.27 2.174,4.934 5.033,4.934c2.858,0 5.032,-1.664 5.032,-4.934l0,-9.222l-1.488,0l0,9.124Zm-18.934,0.059l6.304,-0l-0,-1.292l-6.304,-0l-0,-6.58l7.068,-0l-0,-1.31l-8.557,-0l-0,14l8.85,-0l-0,-1.312l-7.361,-0l-0,-3.506Zm44.232,-0.059c-0,2.487 -1.39,3.72 -3.544,3.72c-2.193,0 -3.544,-1.233 -3.544,-3.72l-0,-9.124l-1.489,0l-0,9.222c-0,3.27 2.174,4.934 5.033,4.934c2.858,0 5.032,-1.664 5.032,-4.934l-0,-9.222l-1.488,0l-0,9.124Z" style="fill:rgb(16,37,50);fill-rule:nonzero;"/>        </g>        <g transform="matrix(1,0,0,1,200.267,253.744)">            <path d="M112.627,7.147l3.407,0c4.679,0 7.597,2.741 7.597,6.99c0,4.249 -2.898,7.01 -7.597,7.01l-3.407,0l0,-14Zm1.488,12.668l1.821,0c4.151,0 6.128,-2.33 6.128,-5.678c0,-3.329 -1.977,-5.659 -6.128,-5.659l-1.821,0l0,11.337Z" style="fill:rgb(16,37,50);"/>        </g>        <g transform="matrix(1,0,0,1,200.267,253.744)">            <path d="M72.526,21.147l1.488,-0l0,-4.758l6.325,-0l0,-1.351l-6.325,-0l0,-6.58l6.97,-0l0,-1.31l-8.458,-0l0,14l0,-0.001Zm-30.976,-14.001l0,10.751l-1.273,-1.489l-7.97,-9.398l-0.254,-0l0,14.137l1.41,-0l0,-10.711l1.586,1.86l7.636,9.008l0.255,-0l0,-14.158l-1.39,-0Z" style="fill:rgb(16,37,50);fill-rule:nonzero;"/>        </g>    </g></svg>