<?xml version="1.0" encoding="UTF-8" standalone="no"?><!DOCTYPE svg PUBLIC "-//W3C//DTD SVG 1.1//EN" "http://www.w3.org/Graphics/SVG/1.1/DTD/svg11.dtd"><svg width="100%" height="100%" viewBox="0 0 1024 512" version="1.1" xmlns="http://www.w3.org/2000/svg" xmlns:xlink="http://www.w3.org/1999/xlink" xml:space="preserve" style="fill-rule:evenodd;clip-rule:evenodd;stroke-linejoin:round;stroke-miterlimit:2;"><title>Collateral</title><desc>Collateral was founded with a vision to become a leading alternative secured finance company and to become a prominent online provider of finance. Collateral is making finance more accessible to both businesses and individuals in the high margin, secured short-term finance sector, we offer pawnbroker style and property backed loans</desc>    <g transform="matrix(1.17325,0,0,1.17325,-79.7015,335.944)">        <g transform="matrix(1.4392,0,0,1.4392,-31.0873,-376.385)">            <g transform="matrix(0.960992,0,0,0.960992,-149.032,65.4652)">                <path d="M306.165,245l0,-0.403l0,0.403Zm-77.895,-135.08l77.895,-45.422l77.435,45.422l0,89.97l-77.608,45.11l-78.083,-45.181l0.361,-89.899Z" style="fill:rgb(20,28,67);"/>            </g>            <g>                <g transform="matrix(0.960992,0,0,0.960992,19.3209,96.5169)">                    <path d="M90.971,160.054l0,12.538l-24.257,-14.005l0,-12.538l24.257,14.005Z" style="fill:rgb(235,235,235);"/>                </g>                <g transform="matrix(0.960992,0,0,0.960992,19.3209,96.5169)">                    <path d="M64.714,144.894l0,12.538l-11.992,-6.923l0,-12.539l11.992,6.924Z" style="fill:rgb(235,235,235);"/>                </g>                <g transform="matrix(0.960992,0,0,0.960992,19.3209,96.5169)">                    <path d="M105.1,123.951l25.878,14.94l0,12.193l-25.878,-14.941l0,-12.192Z" style="fill:rgb(235,235,235);"/>                </g>                <g transform="matrix(0.960992,0,0,0.960992,19.3209,96.5169)">                    <path d="M66.714,116.29l12.129,7.003l0,12.961l-12.129,-7.003l0,-12.961Z" style="fill:rgb(235,235,235);"/>                </g>                <g transform="matrix(0.960992,0,0,0.960992,19.3209,96.5169)">                    <path d="M64.714,115.135l0,12.961l-11.992,-6.923l0,-12.961l11.992,6.923Z" style="fill:rgb(235,235,235);"/>                </g>                <g transform="matrix(0.960992,0,0,0.960992,19.3209,96.5169)">                    <path d="M52.722,105.902l0,-12.192l26.121,15.081l0,12.192l-26.121,-15.081Z" style="fill:rgb(235,235,235);"/>                </g>                <g transform="matrix(0.960992,0,0,0.960992,19.3209,96.5169)">                    <path d="M106.1,183.636l24.878,14.363l0,14.689l-24.878,-14.363l0,-14.689Zm-26.257,-15.16l24.257,14.006l0,14.688l-24.257,-14.005l0,-14.689Zm-2,-1.154l0,14.688l-25.121,-14.503l0,-14.689l25.121,14.504Z" style="fill:rgb(235,235,235);"/>                </g>                <g transform="matrix(0.960992,0,0,0.960992,19.3209,96.5169)">                    <path d="M66.714,85.121l12.129,7.002l0,14.358l-12.129,-7.002l0,-14.358Z" style="fill:rgb(235,235,235);"/>                </g>                <g transform="matrix(0.960992,0,0,0.960992,19.3209,96.5169)">                    <path d="M64.714,83.966l0,14.358l-11.992,-6.924l0,-13.05l2.265,0l9.727,5.616Z" style="fill:rgb(235,235,235);"/>                </g>                <g transform="matrix(0.960992,0,0,0.960992,19.3209,96.5169)">                    <path d="M118.849,176.149l12.129,7.003l0,12.538l-12.129,-7.003l0,-12.538Zm-2,-1.155l0,12.539l-23.878,-13.786l0,-12.538l23.878,13.785Z" style="fill:rgb(235,235,235);"/>                </g>                <g transform="matrix(0.960992,0,0,0.960992,19.3209,96.5169)">                    <path d="M118.849,115.221l12.129,7.002l0,14.359l-12.129,-7.003l0,-14.358Zm-2,-1.155l0,14.358l-11.749,-6.783l0,-14.358l11.749,6.783Z" style="fill:rgb(235,235,235);"/>                </g>                <g transform="matrix(0.960992,0,0,0.960992,19.3209,96.5169)">                    <path d="M52.722,135.661l0,-12.179l26.121,15.081l0,12.179l-26.121,-15.081Z" style="fill:rgb(235,235,235);"/>                </g>            </g>            <g>                <g transform="matrix(0.960992,0,0,0.960992,19.3209,96.5169)">                    <path d="M194.404,131.624l0,12.553l-13.545,7.821l-10.871,-6.277l24.416,-14.097Zm2,-1.154l12.009,-6.934l0,12.553l-12.009,6.933l0,-12.552Z" style="fill:white;"/>                </g>                <g transform="matrix(0.960992,0,0,0.960992,19.3209,96.5169)">                    <path d="M155.996,168.662l0,12.709l-25.018,14.444l0,-12.709l25.018,-14.444Zm25.399,-14.665l0,12.71l-23.399,13.509l0,-12.709l23.399,-13.51Zm2,-1.155l25.018,-14.443l0,12.709l-25.018,14.444l0,-12.71Z" style="fill:white;"/>                </g>                <g transform="matrix(0.960992,0,0,0.960992,19.3209,96.5169)">                    <path d="M181.395,124.123l0,12.703l-13.407,7.741l-11.001,-6.352l24.408,-14.092Zm2,-1.154l25.018,-14.444l0,12.702l-25.018,14.444l0,-12.702Z" style="fill:white;"/>                </g>                <g transform="matrix(0.960992,0,0,0.960992,19.3209,96.5169)">                    <path d="M155.875,107.715l0,14.347l-24.897,14.375l0,-14.348l24.897,-14.374Zm25.52,-14.734l0,14.347l-23.52,13.579l0,-14.347l23.52,-13.579Zm2,-1.155l24.628,-14.219l0.39,0l0,14.122l-25.018,14.444l0,-14.347Z" style="fill:white;"/>                </g>                <g transform="matrix(0.960992,0,0,0.960992,19.3209,96.5169)">                    <path d="M142.867,191.26l0,14.161l-11.889,6.864l0,-14.161l11.889,-6.864Zm25.43,-14.681l0,14.16l-23.43,13.528l0,-14.161l23.43,-13.527Zm2,-1.155l24.107,-13.919l0,14.161l-24.107,13.919l0,-14.161Zm26.107,-15.073l12.009,-6.934l0,14.161l-12.009,6.934l0,-14.161Z" style="fill:white;"/>                </g>                <g transform="matrix(0.960992,0,0,0.960992,19.3209,96.5169)">                    <path d="M142.867,131.882l0,12.177l-11.889,6.863l0,-12.176l11.889,-6.864Zm25.43,-14.682l0,12.177l-23.43,13.527l0,-12.177l23.43,-13.527Zm2,-1.155l24.107,-13.918l0,12.176l-24.107,13.919l0,-12.177Zm26.107,-15.073l12.009,-6.933l0,12.176l-12.009,6.934l0,-12.177Z" style="fill:white;"/>                </g>            </g>            <g>                <g transform="matrix(0.960992,0,0,0.960992,19.3209,96.5169)">                    <path d="M117.813,101.765l10.614,6.129l-11.363,6.587l-10.624,-6.123l11.373,-6.593Zm12.794,-7.416l10.615,6.128l-10.799,6.26l-10.615,-6.129l10.799,-6.259Zm27.822,-16.129l11.017,-6.386l10.615,6.128l-11.017,6.387l-10.615,-6.129Zm13.013,-7.543l12.652,-7.335l10.531,6.178l-12.568,7.285l-10.615,-6.128Z" style="fill:rgb(255,71,0);"/>                </g>                <g transform="matrix(0.960992,0,0,0.960992,19.3209,96.5169)">                    <path d="M143.22,101.631l11.902,6.871l-24.144,13.998l-11.914,-6.866l24.156,-14.003Zm27.822,-16.129l25.565,-14.82l11.806,6.925l-25.47,14.766l-11.901,-6.871Z" style="fill:rgb(255,71,0);"/>                </g>                <g transform="matrix(0.960992,0,0,0.960992,19.3209,96.5169)">                    <path d="M145.871,70.97l25.764,-14.936l10.477,6.146l-25.681,14.887l-10.56,-6.097Z" style="fill:rgb(255,71,0);"/>                </g>                <g transform="matrix(0.960992,0,0,0.960992,19.3209,96.5169)">                    <path d="M91.575,71.813l11.213,6.474l-24.192,14.024l-11.223,-6.468l24.202,-14.03Zm1.996,-1.157l24.02,-13.925l11.214,6.474l-24.021,13.925l-11.213,-6.474Zm26.016,-15.082l25.783,-14.946l11.125,6.525l-25.695,14.895l-11.213,-6.474Z" style="fill:rgb(255,71,0);"/>                </g>                <g transform="matrix(0.960992,0,0,0.960992,19.3209,96.5169)">                    <path d="M143.598,56.941l11.265,6.504l-10.99,6.371l-11.265,-6.504l10.99,-6.371Zm1.996,-1.157l12.883,-7.468l11.176,6.556l-12.794,7.416l-11.265,-6.504Z" style="fill:rgb(255,71,0);"/>                </g>                <g transform="matrix(0.960992,0,0,0.960992,19.3209,96.5169)">                    <path d="M64.417,70.998l12.312,7.109l-11.356,6.583l-12.29,-7.083l11.334,-6.609Zm25.841,-15.068l12.389,7.153l-23.922,13.867l-12.318,-7.112l23.851,-13.908Zm25.667,-14.966l12.464,7.196l-23.746,13.766l-12.395,-7.156l23.677,-13.806Zm1.99,-1.161l13.063,-7.617l12.41,7.279l-13.003,7.538l-12.47,-7.2Z" style="fill:rgb(255,71,0);"/>                </g>            </g>        </g>        <g transform="matrix(1.4392,0,0,1.4392,-31.0873,-357.63)">            <g transform="matrix(64,0,0,64,244.581,223.547)">                <path d="M0.66,-0.525l0,-0.115c-0.065,-0.047 -0.145,-0.075 -0.24,-0.075c-0.205,0 -0.37,0.165 -0.37,0.365c0,0.2 0.165,0.365 0.37,0.365c0.095,0 0.175,-0.028 0.24,-0.075l0,-0.115l-0.005,-0.005c-0.065,0.055 -0.15,0.09 -0.235,0.09c-0.14,0 -0.255,-0.115 -0.255,-0.26c0,-0.145 0.115,-0.26 0.255,-0.26c0.085,0 0.17,0.035 0.235,0.09l0.005,-0.005Z" style="fill:rgb(20,28,67);fill-rule:nonzero;"/>            </g>            <g transform="matrix(64,0,0,64,288.42,223.547)">                <path d="M0.42,-0.715c-0.204,0 -0.37,0.164 -0.37,0.365c0,0.201 0.166,0.365 0.37,0.365c0.204,0 0.37,-0.164 0.37,-0.365c0,-0.201 -0.166,-0.365 -0.37,-0.365Zm0,0.105c0.141,0 0.255,0.116 0.255,0.26c0,0.144 -0.114,0.26 -0.255,0.26c-0.141,0 -0.255,-0.116 -0.255,-0.26c0,-0.144 0.114,-0.26 0.255,-0.26Z" style="fill:rgb(20,28,67);fill-rule:nonzero;"/>            </g>            <g transform="matrix(64,0,0,64,340.258,223.547)">                <path d="M0.084,-0.7l-0.004,0.004l0,0.692l0.004,0.004l0.497,0l0.004,-0.004l0,-0.091l-0.004,-0.005l-0.401,0l0,-0.596l-0.004,-0.004l-0.092,0Z" style="fill:rgb(20,28,67);fill-rule:nonzero;"/>            </g>            <g transform="matrix(64,0,0,64,379.623,223.547)">                <path d="M0.084,-0.7l-0.004,0.004l0,0.692l0.004,0.004l0.497,0l0.004,-0.004l0,-0.091l-0.004,-0.005l-0.401,0l0,-0.596l-0.004,-0.004l-0.092,0Z" style="fill:rgb(20,28,67);fill-rule:nonzero;"/>            </g>            <g transform="matrix(64,0,0,64,422.832,223.547)">                <path d="M0.28,-0.7l-0.005,0.005l-0.28,0.69l0.005,0.005l0.1,0l0.005,-0.005l0.065,-0.13l0.355,0l0.065,0.13l0.005,0.005l0.1,0l0.005,-0.005l-0.31,-0.69l-0.005,-0.005l-0.105,0Zm0.06,0.14l0.145,0.295l-0.275,0l0.13,-0.295Z" style="fill:rgb(20,28,67);fill-rule:nonzero;"/>            </g>            <g transform="matrix(64,0,0,64,465.399,223.547)">                <path d="M0.035,-0.7l-0.005,0.005l0,0.09l0.005,0.005l0.225,0l0,0.595l0.005,0.005l0.09,0l0.005,-0.005l0,-0.595l0.225,0l0.005,-0.005l0,-0.09l-0.005,-0.005l-0.55,0Z" style="fill:rgb(20,28,67);fill-rule:nonzero;"/>            </g>            <g transform="matrix(64,0,0,64,506.04,223.547)">                <path d="M0.07,-0.7l-0.005,0.005l0,0.69l0.005,0.005l0.54,0l0.005,-0.005l0,-0.09l-0.005,-0.005l-0.43,0l0,-0.22l0.275,0l0.005,-0.005l0,-0.09l-0.005,-0.005l-0.275,0l0,-0.18l0.4,0l0.005,-0.005l0,-0.09l-0.005,-0.005l-0.51,0Z" style="fill:rgb(20,28,67);fill-rule:nonzero;"/>            </g>            <g transform="matrix(64,0,0,64,547.004,223.547)">                <path d="M0.085,-0.7l-0.005,0.005l0,0.69l0.005,0.005l0.09,0l0.005,-0.005l0,-0.265l0.09,0l0.25,0.265l0.005,0.005l0.12,0l0.005,-0.005l-0.23,-0.27c0.075,-0.03 0.159,-0.05 0.165,-0.225c0.006,-0.187 -0.165,-0.2 -0.305,-0.2l-0.195,0Zm0.095,0.1l0.1,0c0.075,0 0.186,-0.006 0.19,0.1c0.005,0.137 -0.115,0.13 -0.19,0.13l-0.1,0l0,-0.23Z" style="fill:rgb(20,28,67);fill-rule:nonzero;"/>            </g>            <g transform="matrix(64,0,0,64,592.129,223.547)">                <path d="M0.295,-0.7l-0.005,0.005l-0.28,0.69l0.005,0.005l0.1,0l0.005,-0.005l0.065,-0.13l0.355,0l0.065,0.13l0.005,0.005l0.1,0l0.005,-0.005l-0.31,-0.69l-0.02,-0.005l-0.09,0Zm0.06,0.14l0.145,0.295l-0.275,0l0.13,-0.295Z" style="fill:rgb(20,28,67);fill-rule:nonzero;"/>            </g>            <g transform="matrix(64,0,0,64,636.61,223.547)">                <path d="M0.084,-0.7l-0.004,0.004l0,0.692l0.004,0.004l0.497,0l0.004,-0.004l0,-0.091l-0.004,-0.005l-0.401,0l0,-0.596l-0.004,-0.004l-0.092,0Z" style="fill:rgb(20,28,67);fill-rule:nonzero;"/>            </g>        </g>    </g></svg>