<?xml version="1.0" encoding="UTF-8" standalone="no"?><!DOCTYPE svg PUBLIC "-//W3C//DTD SVG 1.1//EN" "http://www.w3.org/Graphics/SVG/1.1/DTD/svg11.dtd"><svg width="100%" height="100%" viewBox="0 0 1024 512" version="1.1" xmlns="http://www.w3.org/2000/svg" xmlns:xlink="http://www.w3.org/1999/xlink" xml:space="preserve" style="fill-rule:evenodd;clip-rule:evenodd;stroke-linejoin:round;stroke-miterlimit:2;"><title>Fundwise</title><desc>Fundwise is a crowd investment platform for small to medium businesses in the CEE region. Funding hardware, consumer products, ICT, energy &amp; clean tech and gaming projects. Brought to you by the people who built Hooandja – the CEE region’s first non-profit crowdfunding platform.</desc>    <g transform="matrix(1.28318,0,0,1.28337,2,155.264)">        <path d="M745.459,66.784c13.227,0 21.25,8.023 22.984,22.334c0.217,1.301 -0.434,2.385 -2.168,2.385l-42.934,0c-1.3,0 -2.385,-0.867 -2.168,-2.385c1.953,-14.745 10.409,-22.334 24.286,-22.334m-50.738,39.897c0,29.056 23.418,50.305 54.642,50.305c14.527,0 27.103,-4.337 36.861,-13.01c1.519,-1.301 1.734,-3.469 0.218,-4.771l-14.312,-11.059c-1.085,-0.867 -3.036,-0.867 -4.12,0.217c-5.421,4.554 -11.492,6.722 -18.647,6.722c-15.828,0 -26.888,-9.106 -28.405,-24.284c0,-1.084 0.868,-2.168 1.952,-2.168l68.735,0c1.951,0 3.253,-1.519 3.253,-3.254l0,-10.19c0,-30.357 -20.6,-50.305 -49.654,-50.305c-29.706,0 -50.522,20.382 -50.522,50.305l0,11.492l-0.001,0Zm-49.001,-61.58c-21.25,0 -37.512,13.443 -37.512,32.091l0,0.867c0,20.815 14.961,27.32 32.741,31.007c13.227,3.036 18.865,5.638 18.865,13.444l0,0.649c0,5.855 -4.338,11.709 -15.829,11.709c-8.891,0 -17.13,-4.12 -22.768,-8.456c-1.301,-0.868 -3.47,-0.65 -4.337,0.65l-9.974,13.01c-1.084,1.301 -0.868,3.253 0.433,4.337c8.891,6.723 22.117,12.576 37.729,12.576c26.236,0 40.765,-15.829 40.765,-34.693l0,-0.866c0,-22.117 -16.046,-27.538 -32.959,-31.008c-12.576,-2.602 -18.431,-4.987 -18.431,-12.359l0,-0.867c0,-4.987 4.337,-9.758 12.359,-9.758c6.288,0 11.059,2.819 14.961,5.638c1.519,1.084 3.47,0.867 4.555,-0.434l9.54,-12.576c1.084,-1.518 0.867,-3.469 -0.434,-4.337c-8.021,-6.288 -18.212,-10.624 -29.704,-10.624m-76.975,-26.671c0,7.806 6.289,13.661 13.878,13.661c7.589,0 13.877,-5.855 13.877,-13.661c0,-7.806 -6.288,-13.877 -13.877,-13.877c-7.589,0 -13.878,6.071 -13.878,13.877m0.651,31.875l0,101.26c0,1.735 1.301,3.036 3.035,3.036l20.383,0c1.733,0 3.034,-1.301 3.034,-3.036l0,-101.26c0,-1.735 -1.301,-3.036 -3.034,-3.036l-20.383,0c-1.734,0 -3.035,1.301 -3.035,3.036m-161.54,0.433l30.14,101.044c0.433,1.519 1.951,2.819 3.685,2.819l20.165,0c1.735,0 3.036,-1.084 3.687,-2.603l17.781,-43.583c0.433,-1.084 1.084,-1.084 1.517,-1.084c0.434,0 1.085,0 1.518,1.084l17.78,43.583c0.651,1.519 1.952,2.603 3.688,2.603l19.947,0c1.735,0 3.47,-1.301 3.903,-2.819l30.14,-101.044c0.434,-1.951 -0.867,-3.469 -2.602,-3.469l-20.382,0c-1.952,0 -3.47,1.301 -3.903,3.036l-18.865,70.253c-0.433,1.301 -2.168,1.734 -2.818,0.217l-24.068,-60.496c-0.434,-1.301 -1.951,-2.385 -3.686,-2.385l-1.302,0c-1.518,0 -3.035,1.084 -3.686,2.385l-24.069,60.496c-0.649,1.518 -2.385,1.084 -2.602,-0.217l-19.081,-70.253c-0.433,-1.735 -1.951,-3.036 -4.12,-3.036l-20.165,0c-1.735,0 -3.036,1.518 -2.602,3.469m-86.515,45.535c0,-17.346 9.758,-28.405 25.37,-28.405c7.589,0 14.744,2.602 19.948,7.372c1.735,1.518 2.819,3.687 2.819,6.072l0,39.463c0,2.385 -1.084,4.554 -2.819,5.854c-5.637,4.771 -12.359,7.59 -19.948,7.59c-15.612,0 -25.37,-11.06 -25.37,-28.405l0,-9.541Zm-26.019,10.19c0,29.489 17.996,49.872 43.583,49.872c11.709,0 22.117,-4.337 29.706,-12.359c0.867,-0.867 1.951,-0.435 2.168,0.434l1.952,8.239c0.216,1.301 1.517,1.952 2.818,1.952l17.564,0c1.518,0 3.035,-1.301 3.035,-3.036l0,-147.012c0,-1.735 -1.517,-3.036 -3.035,-3.036l-20.599,0c-1.735,0 -3.036,1.301 -3.036,3.036l0,50.522c0,1.518 -1.518,1.951 -2.385,1.084c-7.589,-6.938 -16.479,-10.625 -27.754,-10.625c-23.852,0 -44.017,19.082 -44.017,50.089l0,10.84Zm-104.295,-56.158l0,101.26c0,1.735 1.301,3.036 3.036,3.036l20.382,0c1.735,0 3.036,-1.301 3.036,-3.036l0,-69.169c0,-2.385 1.084,-4.554 3.035,-6.288c5.204,-4.554 12.36,-7.373 19.515,-7.373c10.842,0 19.081,5.204 19.081,20.166l0,62.664c0,1.735 1.518,3.036 3.036,3.036l20.382,0c1.952,0 3.253,-1.301 3.253,-3.036l0,-63.965c0,-26.671 -13.661,-42.066 -37.079,-42.066c-11.708,0 -22.116,4.12 -30.139,12.577c-0.868,1.084 -2.385,0.867 -2.602,-0.434l-1.735,-8.456c-0.217,-1.301 -1.518,-1.952 -2.819,-1.952l-17.346,0c-1.735,0 -3.036,1.301 -3.036,3.036m-112.968,0l0,63.531c0,27.104 13.443,42.5 36.644,42.5c11.492,0 22.117,-4.337 29.489,-12.359c0.868,-0.867 1.735,-0.435 2.169,0.434l1.951,8.239c0.434,1.518 1.518,1.952 2.819,1.952l17.13,0c1.951,0 3.252,-1.301 3.252,-3.036l0,-101.261c0,-1.735 -1.301,-3.036 -3.252,-3.036l-20.382,0c-1.518,0 -3.036,1.301 -3.036,3.036l0,69.603c0,2.385 -0.867,4.336 -3.036,6.071c-4.987,4.337 -11.275,7.372 -18.43,7.372c-12.577,0 -18.648,-6.505 -18.648,-20.165l0,-62.881c0,-1.735 -1.301,-3.036 -3.252,-3.036l-20.383,0c-1.734,0 -3.035,1.301 -3.035,3.036m-61.363,-21.033l0,15.612c0,1.301 -0.867,2.385 -2.385,2.385l-11.059,0c-1.734,0 -3.252,1.301 -3.252,3.036l0,10.841c0,1.735 1.518,3.253 3.252,3.253l11.059,0c1.518,0 2.385,0.867 2.385,2.168l0,84.998c0,1.735 1.518,3.036 3.036,3.036l20.382,0c1.951,0 3.252,-1.301 3.252,-3.036l0,-84.998c0,-1.301 0.868,-2.168 2.169,-2.168l23.201,0c1.518,0 3.035,-1.518 3.035,-3.253l0,-10.841c0,-1.735 -1.517,-3.036 -3.035,-3.036l-23.201,0c-1.301,0 -2.169,-1.084 -2.169,-2.385l0,-12.793c0,-7.156 5.204,-10.408 11.492,-10.408c4.554,0 8.674,1.735 11.276,3.252c1.518,0.868 3.686,0.217 4.336,-1.084l6.939,-12.576c1.084,-1.735 0.434,-3.686 -1.301,-4.554c-4.337,-2.385 -14.094,-6.721 -26.454,-6.721c-21.683,0 -32.958,10.408 -32.958,29.272" style="fill:rgb(242,108,79);fill-rule:nonzero;"/>    </g></svg>