<?xml version="1.0" encoding="UTF-8" standalone="no"?><!DOCTYPE svg PUBLIC "-//W3C//DTD SVG 1.1//EN" "http://www.w3.org/Graphics/SVG/1.1/DTD/svg11.dtd"><svg width="100%" height="100%" viewBox="0 0 1024 512" version="1.1" xmlns="http://www.w3.org/2000/svg" xmlns:xlink="http://www.w3.org/1999/xlink" xml:space="preserve" style="fill-rule:evenodd;clip-rule:evenodd;stroke-linejoin:round;stroke-miterlimit:2;"><title>Bolden</title><desc>Bolden is an online marketplace that allows individual and institutional investors to directly lend to small businesses. Bolden offers a fast, smart and transparent financing alternative to growing businesses and provides lenders with attractive returns. </desc>    <g transform="matrix(0.842279,0,0,0.842279,-78.0165,30.2242)">        <path d="M227,452l-132,0l0,-13c7.381,-1.431 15.639,-2.563 22,-6.85c17.451,-11.762 20.222,-37.434 25.424,-56.15c14.995,-53.945 29.788,-107.957 44.425,-162c3.611,-13.333 7.09,-26.712 10.861,-40c2.727,-9.61 6.194,-21.003 3.999,-31c-3.359,-15.303 -23.43,-14.448 -35.709,-16l0,-12l116,0c38.752,0 85.964,-2.805 118,23.465c8.153,6.685 12.062,15.196 18,23.535c5.169,-11.996 13.78,-23.017 22.081,-33c25.868,-31.109 59.86,-52 100.919,-52c9.182,0 18.12,0.403 27,3.036c12.116,3.593 23.744,9.272 32.985,18.054c4.322,4.107 8.885,14.89 15.058,15.747c7.949,1.104 17.998,-1.574 25.957,-2.552c15.092,-1.855 30.011,-3.926 45,-6.535c9.57,-1.666 19.277,-4.332 29,-4.75c-6.01,26.215 -14.37,52.085 -21.576,78c-15.369,55.277 -31.34,110.478 -45.795,166c-5.124,19.68 -11.236,39.032 -15.229,59c-1.309,6.544 -2.302,19.573 8.6,17.398c6.488,-1.294 12.445,-7.641 16.575,-12.399c3.802,-4.38 9.224,-9.285 10.912,-14.999c1.559,-5.28 -0.678,-10.684 -0.303,-16c0.926,-13.097 1.932,-26.357 5.842,-39c17.047,-55.133 62.759,-110.945 122.974,-118.155c14.863,-1.78 32.004,-1.867 46,4.155c4.432,-21.474 10.67,-42.592 15.424,-64c1.908,-8.588 6.537,-19.009 0.007,-26.812c-6.447,-7.704 -18.507,-6.188 -27.431,-6.188l0,-13c23.32,-1.001 46.984,-4.202 70,-8.081c11.303,-1.905 22.558,-5.015 34,-5.919c-0.899,11.01 -5.278,22.386 -8.29,33c-4.908,17.292 -9.472,34.682 -14.286,52c-14.899,53.602 -29.103,107.398 -44,161c-5.434,19.555 -10.563,39.261 -15.294,59c-1.139,4.756 -4.029,17.971 5.156,16.852c6.249,-0.762 11.712,-8.451 15.439,-12.852c3.724,-4.397 8.702,-9.444 10.572,-15c2.131,-6.33 0.453,-14.397 0.742,-21c0.441,-10.06 2.129,-20.265 4.696,-30c13.124,-49.784 53.562,-101.224 103.265,-117.996c22.58,-7.621 51.28,-9.694 72,4.101c19.78,13.173 20.99,40.103 11.24,59.895c-15.23,30.934 -47.68,50.307 -79.24,61.305c-9.027,3.146 -18.596,5.571 -28,7.271c-4.297,0.776 -11.012,0.585 -14.566,3.362c-4.466,3.489 -4.368,15.836 -4.43,21.062c-0.198,16.627 2.921,35.525 20.996,41.638c3.517,1.19 7.294,2.013 11,2.272c32.48,2.277 60.81,-25.216 80.27,-47.91c6.04,-7.047 13.4,-14.589 17.49,-23c6.07,-12.469 8.38,-28.582 11.87,-42c3.47,-13.327 7.83,-26.497 10.57,-40c1.01,-4.983 3.13,-10.895 2.43,-16c-1.26,-9.225 -9.63,-11.656 -17.63,-12c0,-3.168 -1.21,-9.593 1.6,-11.821c2.18,-1.725 5.83,-1.101 8.4,-1.218c4.96,-0.226 10.07,-0.882 15,-1.537c21.58,-2.869 43.37,-8.714 65,-10.424c-4.98,21.519 -13.34,43.034 -20.33,64c-3.01,9.035 -8.75,20.454 -8.67,30c12.38,-18.356 24.03,-37.581 39,-54c10.19,-11.174 20.89,-21.747 34,-29.547c20.98,-12.479 61.71,-19.163 72.3,10.547c1.57,4.42 2.46,9.314 2.66,14c0.63,14.375 -3.94,29.308 -7.82,43c-6.88,24.262 -15.17,48.08 -23.14,72c-3.77,11.298 -7.88,22.545 -11.14,34c-1.46,5.138 -3.61,10.31 0.41,14.863c5.16,5.846 11.16,1.184 15.69,-3.037c9.67,-9.012 16.71,-20.953 24.04,-31.826c3.87,1.668 7.32,3.962 11,6c-2.37,8.054 -8.37,15.088 -13,22c-18.01,26.876 -56.06,62.741 -89.96,37.211c-12.68,-9.55 -10.38,-27.581 -8.12,-41.211c5.83,-35.225 18.54,-69.978 29.11,-104c3,-9.662 5.99,-19.325 8.95,-29c1.43,-4.689 3.01,-9.668 -0.41,-13.892c-6.3,-7.755 -16.45,-4.57 -23.57,-0.018c-15.27,9.768 -27.07,26.753 -36.58,41.91c-19.68,31.375 -33.44,65.433 -43.56,101l-9.57,34c-1.01,3.572 -1.68,10.639 -4.85,12.972c-3.61,2.649 -12.16,1.028 -16.44,1.028l-43,0c1.82,-12.38 6.29,-24.955 9.71,-37c1.72,-6.073 4.36,-12.672 4.29,-19c-5.19,10.431 -14.35,19.538 -23,27.155c-26,22.887 -64.575,41.197 -100,34.584c-22.388,-4.179 -50.694,-21.586 -55,-45.739c-4.767,5.509 -9.072,11.412 -13.754,17c-10.281,12.271 -24.064,24.879 -40.246,28.331c-15.489,3.305 -33.219,-1.773 -38,-18.331c-8.164,5.581 -15.517,11.505 -25,14.91c-23.685,8.504 -50.812,3.091 -72,-9.514c-11.859,-7.055 -24.448,-18.081 -27,-32.396c-6.015,4.896 -10.376,12.105 -15.428,18c-5.329,6.217 -11.702,11.675 -18.572,16.135c-19.009,12.34 -50.576,18.309 -65.031,-4.135c-1.962,-3.047 -3.179,-6.479 -3.954,-10c-0.94,-4.273 -1.262,-8.637 -0.845,-13c2.325,-24.354 11.31,-48.486 17.679,-72c6.082,-22.458 12.242,-44.894 18.404,-67.329l1.192,-4.342c6.162,-22.435 12.322,-44.871 18.404,-67.329c4.778,-17.643 10.166,-35.181 14.264,-53c1.699,-7.39 3.55,-16.574 -2.507,-22.606c-5.025,-5.005 -14.041,-4.564 -20.606,-5.394c17.244,54.379 -14.487,113.547 -52,151c-14.142,14.119 -31.044,25.399 -50,31.921c-36.514,12.564 -89.792,5.36 -109.677,-31.921c-5.754,-10.789 -8.222,-23.854 -8.323,-36c-11.057,7.283 -21.626,14.382 -34,19.396c-11.395,4.617 -23.789,6.781 -35,11.604c20.471,6.925 43.125,16.467 55.64,35c7.821,11.581 10.36,25.264 10.36,39c0,34.209 -18.523,67.939 -49,84.688c-36.229,19.911 -78.748,20.312 -119,20.312Zm581,-217.405c-19.356,0.793 -32.38,16.708 -41.138,32.405c-11.946,21.412 -19.51,45.39 -25.746,69c-4.307,16.305 -8.673,33.128 -10.03,50c-1.408,17.492 -6.459,48.379 15.914,54.829c2.942,0.849 5.943,1.192 9,1.152c19.049,-0.246 31.872,-18.736 39.742,-33.981c9.224,-17.871 12.528,-37.536 17.142,-57c5.607,-23.651 12.291,-47.176 17.112,-71c2.762,-13.651 5.533,-39.205 -11.996,-44.363c-3.085,-0.907 -6.796,-1.173 -10,-1.042Zm-564.437,48.433c-3.23,2.373 -3.735,9.357 -4.714,12.972c-3.251,12.004 -6.432,24.043 -9.849,36c-5.503,19.259 -10.241,38.731 -15.71,58c-2.831,9.975 -8.095,22.506 -5.807,33c2.192,10.052 11.992,11.317 20.517,12.169c18.38,1.838 37.624,-1.347 53,-12.212c24.941,-17.625 36.989,-53.429 37,-82.957c0.004,-9.961 -0.643,-19.648 -4.454,-29c-8.597,-21.099 -29.504,-24.696 -49.546,-27.424c-4.795,-0.652 -16.326,-3.569 -20.437,-0.548Zm714.437,59.972c34.7,-2.834 61.6,-30.203 73.8,-61c4.42,-11.171 9.58,-30.198 1.55,-40.945c-6.71,-8.974 -20.1,-4.447 -27.35,1.325c-15.809,12.59 -25.006,33.32 -32.396,51.62c-6.44,15.949 -10.949,32.475 -15.604,49Zm-425,-250.561c-18.968,2.986 -30.128,19.03 -38.999,34.561c-8.55,14.969 -13.937,31.619 -19.026,48c-7.116,22.903 -12.874,46.165 -15.69,70c-2.137,18.1 -5.321,49.817 18.715,54.076c2.666,0.473 5.288,0.907 8,0.62c18.475,-1.954 29.823,-18.792 38.138,-33.696c8.101,-14.518 13.624,-30.285 18.862,-46c7.905,-23.714 14.902,-48.985 16.914,-74c1.437,-17.863 6.963,-50.033 -17.914,-53.699c-2.983,-0.44 -6.029,-0.33 -9,0.138Zm-286,173.561c29.561,-5.488 61.556,-0.399 82.482,-27c4.229,-5.375 7.427,-11.725 10.09,-18c7.302,-17.207 9.374,-37.638 6.178,-56c-1.543,-8.863 -4.811,-18.574 -11.793,-24.671c-6.617,-5.779 -15.464,-7.731 -23.957,-8.415c-7.234,-0.582 -15.361,-1.759 -21.957,2.314c-10.194,6.296 -11.767,24.25 -14.753,34.772c-9.109,32.093 -18.837,64.488 -26.29,97Z" style="fill:rgb(1,25,81);fill-rule:nonzero;"/>    </g></svg>