<?xml version="1.0" encoding="UTF-8" standalone="no"?><!DOCTYPE svg PUBLIC "-//W3C//DTD SVG 1.1//EN" "http://www.w3.org/Graphics/SVG/1.1/DTD/svg11.dtd"><svg width="100%" height="100%" viewBox="0 0 1024 512" version="1.1" xmlns="http://www.w3.org/2000/svg" xmlns:xlink="http://www.w3.org/1999/xlink" xml:space="preserve" style="fill-rule:evenodd;clip-rule:evenodd;stroke-linejoin:round;stroke-miterlimit:2;"><title>Nibble</title><desc>Nibble, is a P2P crowdfunding platform that belongs to the IT Smart Finance Group (ITSF) - a financial conglomerate with current headquarters in Spain and Russia founded in 2014 with more than 200 employees worldwide among all the companies in the corporate group and 1.5 million dollars of net income in the last reported year.</desc>    <g transform="matrix(0.991896,0,0,0.991896,0.432982,45.7225)">        <path d="M398.5,331.6c-13.5,-2.6 -22.6,-6.8 -32.1,-14.5c-14.6,-12.1 -24.9,-31.7 -30.4,-58.4c-6,-28.9 -8.8,-121.2 -4.9,-164.6c2.2,-23.9 8.2,-33.1 21.9,-33.1c8.9,0 13.7,3.9 16.7,13.5c1.6,5.4 1.8,9.8 1.7,43.5c0,20.6 -0.3,43.1 -0.7,50c-0.7,11.9 -0.6,12.4 1,10c0.9,-1.4 5.1,-5.9 9.2,-10c13.2,-13.1 29.8,-19.8 51.7,-20.7c14.6,-0.7 22.9,0.6 34.2,5.2c31.2,12.7 49.2,44.2 49.2,86.5c0,47 -23.8,79.7 -65.9,90.7c-8,2.1 -12.4,2.6 -27.1,2.9c-12.1,0.2 -19.7,-0.1 -24.5,-1Zm43.5,-36.6c16.1,-4.3 28.3,-16.8 33.6,-34.5c2.5,-8.2 2.5,-28.3 0.1,-37.5c-6.5,-24.6 -23.5,-38 -48,-38c-19.4,0 -36.9,9.5 -44.2,24.1c-5.3,10.4 -6.7,15.8 -7.2,28.5c-1.6,35 13.1,56.4 40.7,59.2c7.3,0.8 18.3,0 25,-1.8Z" style="fill:rgb(51,51,51);fill-rule:nonzero;"/>        <path d="M619.6,294.9c-10.8,-1.5 -18.4,-3.7 -27.6,-8.1c-6.8,-3.3 -10.1,-5.7 -17.1,-12.7c-7.3,-7.4 -9.3,-10.1 -13.7,-19.1c-10.5,-21.3 -13.2,-38.4 -13.2,-83.8c0,-55.9 4.4,-115.2 9.6,-131.7c4.6,-14.1 12.8,-19.9 24.5,-17.4c8.4,1.8 12.2,7.6 13.5,20.5c0.9,8.7 -2.6,60.8 -6.2,93.2l-0.7,5.7l3.5,-4.3c12.4,-15.5 31.9,-23.9 57.4,-24.9c16.7,-0.7 25,1 39.4,7.9c9.3,4.5 11.5,6.1 19.5,14.2c7.2,7.2 9.9,10.8 13.3,17.6c8.4,16.9 11.9,37.1 10.2,58c-3.6,44.3 -26.1,72.4 -65.9,82.7c-11,2.8 -34.3,3.9 -46.5,2.2Zm36.4,-36c8.2,-1.8 16.7,-6.8 22.9,-13.5c10.6,-11.3 14.5,-22.7 14.5,-42.4c-0.1,-10.7 -0.4,-13.6 -2.6,-20.2c-4.5,-13.6 -12.6,-23.4 -23.3,-28.4c-20.5,-9.5 -44.5,-6.4 -60,7.8c-6.6,6 -12.8,17.7 -15,28.3c-1.9,9 -1.9,26.2 0,34.3c5,21 17.3,31.6 41.5,35.6c3.4,0.6 16.5,-0.3 22,-1.5Z" style="fill:rgb(51,51,51);fill-rule:nonzero;"/>        <path d="M790.5,290.7c-4.4,-2.1 -6.6,-5 -8.2,-10.9c-2.4,-8.7 -3.4,-67.9 -3,-162.8c0.4,-92.7 0.6,-96 5.6,-106.4c3.6,-7.3 6.3,-9.1 13.6,-9.1c5.5,0 6.8,0.4 10.1,3c8.4,6.9 8.9,13.8 8.8,138.5c0,145.3 -0.3,148 -17.2,148.7c-4.2,0.2 -7.8,-0.2 -9.7,-1Z" style="fill:rgb(51,51,51);fill-rule:nonzero;"/>        <path d="M940.5,291.4c-20.9,-2.9 -29.7,-5.4 -42.5,-12c-16.4,-8.4 -28.2,-20.6 -36.5,-37.8c-6.7,-13.7 -8.6,-22.9 -9.2,-43.1c-0.4,-12.8 -0.1,-19.2 1.1,-26.1c5.6,-32.5 25.6,-57.8 55,-69.4c20.4,-8 46.8,-9.1 69.6,-2.8c25.2,6.9 42.8,22.4 50,43.8c1.9,5.8 2.1,8.1 1.8,22c-0.4,13.5 -0.7,16.2 -2.7,20.5c-7.2,15.9 -20.7,25.3 -44.1,30.7c-8.2,1.9 -12.6,2.2 -31,2.2c-24,0 -33.1,-1.2 -48.4,-6.4c-4.9,-1.6 -9.1,-2.8 -9.3,-2.6c-0.2,0.2 0.7,3.9 2.2,8.1c6.4,19.1 18.6,28.9 41,33.2c6,1.1 12.1,1.4 24,1c14.2,-0.4 17.6,-0.9 30,-4.1c7.7,-2 16.2,-3.6 18.8,-3.6c4.9,0 11.2,2.5 13.6,5.4c4,4.8 3,15.9 -2,21.9c-6.4,7.8 -21.8,14.5 -39.6,17.2c-9.8,1.5 -36.1,2.7 -41.8,1.9Zm19.8,-103.4c22,-2.1 30.7,-8.8 30.7,-23.6c0,-7.9 -2.7,-14.2 -8.8,-20.4c-7.8,-7.8 -13.8,-10.1 -29.2,-10.7c-25.6,-1.1 -44.1,7.8 -53.3,25.5c-3.6,6.9 -6.3,16.2 -5.4,18.6c0.3,0.7 5.4,2.9 11.4,4.9c11.5,3.8 22.9,5.7 40.3,6.5c1.9,0.1 8.3,-0.3 14.3,-0.8Z" style="fill:rgb(51,51,51);fill-rule:nonzero;"/>        <path d="M14.5,289.5c-4.8,-1.7 -7.9,-5.4 -9.4,-10.9c-2.6,-9.7 -3.5,-43 -3.5,-136.1c-0.1,-100.2 0,-104 4.5,-112.6c2.3,-4.6 4.3,-5.8 10.8,-6.6c7.2,-0.8 12.7,2.3 23.6,13.2c20.4,20.5 52.4,66.7 96,138.7l18,29.8l0.7,-75.3c0.7,-83.9 1.2,-91 7.1,-99.8c3.2,-4.9 8.1,-7.1 14,-6.5c10.1,1.1 14.2,6.3 15.7,19.9c4.4,40.9 3.2,219 -1.6,235.6c-2,7.1 -5.7,10.7 -11.8,11.6c-6.8,1.1 -12.8,-0.9 -17.8,-5.9c-9.1,-9.1 -27.3,-35.4 -54.3,-78.1c-11.5,-18.1 -30.8,-48.1 -42.9,-66.5l-22.1,-33.4l-0.7,61.4c-0.8,71.9 -2,104.3 -4.2,111.6c-3,9.8 -11.5,13.6 -22.1,9.9Z" style="fill:rgb(51,51,51);fill-rule:nonzero;"/>        <path d="M256.5,289.5c-8,-2.8 -10.2,-7.9 -11.6,-27c-1.6,-21.8 -2.2,-94.6 -1,-120.5c1.2,-26.2 2.5,-34.3 6.7,-42.1c3.4,-6.1 7.5,-8.4 13.9,-7.7c7.3,0.9 12.8,5.9 14.6,13.4c3.1,13.4 4.6,87.2 2.5,132.9c-1.6,36.8 -2.6,43.6 -6.9,48.3c-3.7,4 -11.2,5.2 -18.2,2.7Z" style="fill:rgb(51,51,51);fill-rule:nonzero;"/>        <path d="M254,69.4c-8.9,-3.8 -13.7,-10.4 -14.7,-20c-1.8,-17.6 17,-30.7 33.2,-23c13.1,6.2 18.2,20 11.8,31.8c-5.7,10.4 -19.9,15.7 -30.3,11.2Z" style="fill:rgb(51,51,51);fill-rule:nonzero;"/>        <path d="M510.5,421.9c-31.5,-2.6 -62.3,-11.3 -91.3,-25.8c-9.6,-4.8 -12.2,-6.6 -12.2,-8.1c0,-3.3 2.2,-3.3 13.7,-0.1c21,5.9 38.6,9.1 60.7,11.2c16.1,1.5 56.7,0.6 72.6,-1.6c37.9,-5.1 70.8,-15 103.5,-31c15.7,-7.7 44,-24.3 43,-25.3c-0.8,-0.8 -14.1,2 -25.1,5.4c-13.1,4 -15.4,4.3 -14.7,1.4c1.5,-5.7 17.9,-15.5 31.7,-19c9.9,-2.5 23.7,-2.7 26,-0.5c2.3,2.3 3.1,7.8 3,20.5c0,9.8 -0.5,12.7 -2.8,19.5c-4.6,13.4 -10.1,21.4 -12.8,18.7c-0.6,-0.6 -0.3,-5.3 0.6,-11.4c0.9,-5.8 1.6,-14 1.6,-18.3l0,-7.7l-7.7,7.2c-27,25 -66.1,46.6 -102.8,57c-22.4,6.3 -62.7,10 -87,7.9Z" style="fill:rgb(18,144,224);fill-rule:nonzero;"/>    </g></svg>