<?xml version="1.0" encoding="UTF-8" standalone="no"?><!DOCTYPE svg PUBLIC "-//W3C//DTD SVG 1.1//EN" "http://www.w3.org/Graphics/SVG/1.1/DTD/svg11.dtd"><svg width="100%" height="100%" viewBox="0 0 1024 512" version="1.1" xmlns="http://www.w3.org/2000/svg" xmlns:xlink="http://www.w3.org/1999/xlink" xml:space="preserve" style="fill-rule:evenodd;clip-rule:evenodd;stroke-linejoin:round;stroke-miterlimit:2;"><title>Angels Den</title><desc>Angels Den Funding is an online investment platform that makes it simple for investors to own shares in early-stage companies with great potential. Using Artificial Intelligence combined with our team’s vast experience, we are constantly improving our start-up selection process. Our mission is to ensure that investors have access to businesses that meet the highest standards.</desc>    <g transform="matrix(1,0,0,1,-40.5196,156.904)">        <g transform="matrix(4.58491,0,0,4.58491,261.592,144.09)">            <path d="M0,-19.689l5.242,0l8.353,19.689l-5.831,0l-1.429,-3.49l-7.568,0l-1.402,3.49l-5.719,0l8.354,-19.689Zm4.765,11.982l-2.186,-5.559l-2.215,5.559l4.401,0Z" style="fill-rule:nonzero;"/>        </g>        <g transform="matrix(4.58491,0,0,4.58491,332.66,144.09)">            <path d="M0,-19.689l5.073,0l8.073,10.408l0,-10.408l5.382,0l0,19.689l-4.765,0l-8.381,-10.8l0,10.8l-5.382,0l0,-19.689Z" style="fill-rule:nonzero;"/>        </g>        <g transform="matrix(4.58491,0,0,4.58491,431.973,98.6909)">            <path d="M0,0.114l0,-0.056c0,-5.738 4.485,-10.239 10.568,-10.239c3.448,0 5.886,1.069 7.961,2.869l-3.196,3.854c-1.402,-1.182 -2.803,-1.857 -4.737,-1.857c-2.831,0 -5.018,2.391 -5.018,5.401l0,0.056c0,3.179 2.214,5.457 5.326,5.457c1.317,0 2.327,-0.281 3.139,-0.815l0,-2.391l-3.339,0l0,-3.995l8.497,0l0,8.861c-2.074,1.716 -4.961,3.036 -8.521,3.036c-6.111,0 -10.68,-4.217 -10.68,-10.181" style="fill-rule:nonzero;"/>        </g>        <g transform="matrix(4.58491,0,0,4.58491,536.336,144.09)">            <path d="M0,-19.689l15.782,0l0,4.641l-10.4,0l0,2.982l8.626,0l0,4.304l-8.626,0l0,3.122l10.54,0l0,4.64l-15.922,0l0,-19.689Z" style="fill-rule:nonzero;"/>        </g>        <g transform="matrix(4.58491,0,0,4.58491,624.152,144.09)">            <path d="M0,-19.689l5.438,0l0,14.909l9.238,0l0,4.78l-14.676,0l0,-19.689Z" style="fill-rule:nonzero;"/>        </g>        <g transform="matrix(4.58491,0,0,4.58491,695.294,67.2223)">            <path d="M0,13.841l3.027,-3.628c1.935,1.547 4.093,2.362 6.363,2.362c1.458,0 2.242,-0.506 2.242,-1.349l0,-0.057c0,-0.815 -0.644,-1.266 -3.307,-1.884c-4.177,-0.957 -7.4,-2.138 -7.4,-6.189l0,-0.057c0,-3.656 2.887,-6.3 7.596,-6.3c3.336,0 5.943,0.9 8.073,2.616l-2.719,3.853c-1.794,-1.266 -3.756,-1.94 -5.494,-1.94c-1.317,0 -1.962,0.562 -1.962,1.265l0,0.057c0,0.899 0.673,1.293 3.392,1.912c4.512,0.985 7.316,2.447 7.316,6.132l0,0.057c0,4.022 -3.168,6.411 -7.933,6.411c-3.476,0 -6.784,-1.095 -9.194,-3.261" style="fill-rule:nonzero;"/>        </g>        <g transform="matrix(4.58491,0,0,4.58491,787.722,144.09)">            <path d="M0,-19.689l7.568,0c7.008,0 11.073,4.051 11.073,9.732l0,0.056c0,5.683 -4.121,9.901 -11.185,9.901l-7.456,0l0,-19.689Zm7.652,14.852c3.252,0 5.411,-1.8 5.411,-4.979l0,-0.056c0,-3.151 -2.159,-4.979 -5.411,-4.979l-2.214,0l0,10.014l2.214,0Z" style="fill:rgb(190,159,86);fill-rule:nonzero;"/>        </g>        <g transform="matrix(4.58491,0,0,4.58491,887.552,144.09)">            <path d="M0,-19.689l15.781,0l0,4.641l-10.399,0l0,2.982l8.625,0l0,4.304l-8.625,0l0,3.122l10.54,0l0,4.64l-15.922,0l0,-19.689Z" style="fill:rgb(190,159,86);fill-rule:nonzero;"/>        </g>        <g transform="matrix(4.58491,0,0,4.58491,977.566,144.09)">            <path d="M0,-19.689l5.074,0l8.072,10.408l0,-10.408l5.383,0l0,19.689l-4.765,0l-8.382,-10.8l0,10.8l-5.382,0l0,-19.689Z" style="fill:rgb(190,159,86);fill-rule:nonzero;"/>        </g>        <g transform="matrix(4.58491,0,0,4.58491,193.936,102.887)">            <path d="M0,15.686c-8.473,-0.417 -15.268,-7.212 -15.686,-15.686l15.686,0l0,15.686Z" style="fill:rgb(179,178,178);fill-rule:nonzero;"/>        </g>        <g transform="matrix(4.58491,0,0,4.58491,193.937,23.3864)">            <path d="M0,15.686c-0.417,-8.473 -7.213,-15.269 -15.686,-15.686l0,15.686l15.686,0Z" style="fill-rule:nonzero;"/>        </g>        <g transform="matrix(4.58491,0,0,4.58491,114.439,23.3864)">            <path d="M0,15.686c-8.473,-0.417 -15.269,-7.213 -15.686,-15.686l15.686,0l0,15.686Z" style="fill:rgb(190,159,86);fill-rule:nonzero;"/>        </g>    </g></svg>