<?xml version="1.0" encoding="UTF-8" standalone="no"?><!DOCTYPE svg PUBLIC "-//W3C//DTD SVG 1.1//EN" "http://www.w3.org/Graphics/SVG/1.1/DTD/svg11.dtd"><svg width="100%" height="100%" viewBox="0 0 1024 512" version="1.1" xmlns="http://www.w3.org/2000/svg" xmlns:xlink="http://www.w3.org/1999/xlink" xml:space="preserve" style="fill-rule:evenodd;clip-rule:evenodd;stroke-linejoin:round;stroke-miterlimit:2;"><title>SMLA</title><desc>The Swiss Marketplace Lending Association (SMLA) is an association with a non-commercial and non-profit purpose. It brings together all stakeholders of marketplace lending.The association is a joint initiative of marketplace lending platforms and investors in Switzerland and the Lucerne University of Applied Sciences and Arts.</desc>    <g transform="matrix(7.72,0,0,7.70459,-304.514,-2780.27)">        <g>            <clipPath id="_clip1">                <rect x="39.323" y="373.133" width="132.505" height="41.208" clip-rule="nonzero"/>            </clipPath>            <g clip-path="url(#_clip1)">                <g transform="matrix(6.12323e-17,1,-1,6.12323e-17,84.7977,410.282)">                    <path d="M0,0.006c0,0.093 0.014,0.175 0.042,0.246c0.028,0.072 0.068,0.132 0.117,0.182c0.05,0.05 0.107,0.087 0.172,0.112c0.064,0.025 0.133,0.037 0.206,0.037c0.129,0 0.24,-0.042 0.331,-0.125c0.091,-0.082 0.176,-0.187 0.252,-0.313c0.076,-0.126 0.151,-0.261 0.226,-0.406c0.075,-0.144 0.16,-0.279 0.256,-0.405c0.096,-0.126 0.21,-0.23 0.339,-0.313c0.129,-0.083 0.288,-0.125 0.477,-0.125c0.123,0 0.243,0.026 0.359,0.077c0.116,0.052 0.218,0.128 0.308,0.229c0.09,0.101 0.161,0.225 0.214,0.371c0.052,0.146 0.079,0.313 0.079,0.503c0,0.069 -0.004,0.147 -0.012,0.233c-0.009,0.087 -0.021,0.175 -0.038,0.264c-0.016,0.09 -0.039,0.181 -0.069,0.274c-0.03,0.093 -0.065,0.181 -0.105,0.263l-0.323,-0.129c0.067,-0.149 0.114,-0.299 0.144,-0.45c0.03,-0.151 0.045,-0.285 0.045,-0.401c0,-0.235 -0.059,-0.418 -0.176,-0.547c-0.117,-0.13 -0.262,-0.194 -0.435,-0.194c-0.142,0 -0.26,0.041 -0.356,0.124c-0.094,0.083 -0.178,0.186 -0.256,0.309c-0.076,0.122 -0.149,0.257 -0.22,0.403c-0.071,0.146 -0.152,0.28 -0.244,0.403c-0.091,0.123 -0.199,0.225 -0.325,0.308c-0.125,0.083 -0.281,0.125 -0.467,0.125c-0.122,0 -0.238,-0.024 -0.348,-0.072c-0.109,-0.048 -0.205,-0.117 -0.288,-0.207c-0.082,-0.09 -0.147,-0.195 -0.193,-0.318c-0.047,-0.123 -0.07,-0.259 -0.07,-0.408c0,-0.143 0.011,-0.286 0.034,-0.431c0.023,-0.144 0.061,-0.301 0.113,-0.47l0.321,0.134c-0.044,0.143 -0.073,0.275 -0.088,0.396c-0.014,0.121 -0.022,0.228 -0.022,0.321" style="fill:rgb(112,111,111);fill-rule:nonzero;"/>                </g>                <g transform="matrix(6.12323e-17,1,-1,6.12323e-17,87.7666,413.601)">                    <path d="M0,-1.155l-2.572,0.906l0,-0.498l2.004,-0.637l0.125,-0.035l-0.125,-0.035l-2.004,-0.632l0,-0.472l2.572,0.905l0,0.498Zm0,1.174l0,0.473l-2.572,0.911l0,-0.498l2.004,-0.637l0.125,-0.035l-0.125,-0.035l-1.213,-0.452c0.039,-0.037 0.091,-0.069 0.154,-0.098c0.063,-0.028 0.132,-0.047 0.207,-0.059c0.074,-0.011 0.152,-0.015 0.233,-0.01c0.081,0.005 0.162,0.021 0.242,0.047l0.945,0.393Z" style="fill:rgb(112,111,111);fill-rule:nonzero;"/>                </g>                <g transform="matrix(6.12323e-17,1,-1,6.12323e-17,182.132,-1.11524e-14)">                    <path d="M411.029,90.828l2.572,0l0,0.477l-2.572,0l0,-0.477Zm-0.744,0.537c-0.086,0 -0.157,-0.028 -0.215,-0.085c-0.057,-0.056 -0.086,-0.128 -0.086,-0.214c0,-0.086 0.029,-0.158 0.086,-0.214c0.058,-0.056 0.129,-0.085 0.215,-0.085c0.085,0 0.156,0.029 0.212,0.085c0.056,0.056 0.084,0.128 0.084,0.214c0,0.086 -0.028,0.158 -0.084,0.214c-0.056,0.057 -0.127,0.085 -0.212,0.085" style="fill:rgb(112,111,111);fill-rule:nonzero;"/>                </g>                <g transform="matrix(6.12323e-17,1,-1,6.12323e-17,93.504,413.113)">                    <path d="M0,1.503c0.063,-0.126 0.109,-0.253 0.137,-0.381c0.028,-0.127 0.042,-0.244 0.042,-0.351c0,-0.149 -0.035,-0.26 -0.104,-0.333c-0.07,-0.073 -0.16,-0.109 -0.269,-0.109c-0.09,0 -0.165,0.029 -0.225,0.089c-0.059,0.06 -0.114,0.134 -0.162,0.224c-0.048,0.089 -0.095,0.186 -0.142,0.289c-0.046,0.102 -0.101,0.198 -0.165,0.288c-0.063,0.09 -0.14,0.164 -0.231,0.224c-0.092,0.06 -0.207,0.09 -0.347,0.09c-0.08,0 -0.16,-0.018 -0.24,-0.053c-0.079,-0.034 -0.151,-0.085 -0.214,-0.151c-0.063,-0.067 -0.115,-0.149 -0.155,-0.249c-0.039,-0.1 -0.059,-0.214 -0.059,-0.344c0,-0.096 0.009,-0.2 0.028,-0.313c0.018,-0.113 0.052,-0.239 0.103,-0.378l0.327,0.114c-0.037,0.107 -0.063,0.204 -0.078,0.292c-0.014,0.087 -0.022,0.166 -0.022,0.236c0,0.116 0.026,0.211 0.079,0.286c0.054,0.075 0.132,0.112 0.234,0.112c0.089,0 0.164,-0.03 0.222,-0.09c0.058,-0.059 0.111,-0.134 0.159,-0.224c0.048,-0.089 0.097,-0.185 0.145,-0.288c0.047,-0.103 0.104,-0.199 0.169,-0.289c0.064,-0.089 0.145,-0.164 0.241,-0.223c0.096,-0.06 0.215,-0.09 0.358,-0.09c0.097,0 0.186,0.022 0.271,0.067c0.085,0.045 0.16,0.106 0.224,0.184c0.065,0.078 0.116,0.167 0.154,0.266c0.038,0.1 0.057,0.204 0.057,0.313c0,0.127 -0.011,0.262 -0.031,0.406c-0.022,0.145 -0.081,0.313 -0.178,0.505l-0.328,-0.119Z" style="fill:rgb(112,111,111);fill-rule:nonzero;"/>                </g>                <g transform="matrix(6.12323e-17,1,-1,6.12323e-17,95.5739,413.113)">                    <path d="M0,1.503c0.063,-0.126 0.109,-0.253 0.137,-0.381c0.028,-0.127 0.042,-0.245 0.042,-0.351c0,-0.149 -0.035,-0.26 -0.104,-0.333c-0.07,-0.073 -0.16,-0.109 -0.269,-0.109c-0.09,0 -0.165,0.03 -0.225,0.089c-0.059,0.06 -0.114,0.134 -0.162,0.224c-0.048,0.09 -0.095,0.186 -0.142,0.289c-0.046,0.103 -0.101,0.198 -0.165,0.288c-0.063,0.09 -0.14,0.164 -0.231,0.224c-0.092,0.06 -0.207,0.09 -0.347,0.09c-0.08,0 -0.16,-0.018 -0.24,-0.052c-0.079,-0.035 -0.151,-0.086 -0.214,-0.152c-0.063,-0.067 -0.115,-0.149 -0.155,-0.249c-0.039,-0.099 -0.059,-0.214 -0.059,-0.343c0,-0.096 0.009,-0.201 0.028,-0.314c0.018,-0.112 0.052,-0.239 0.103,-0.378l0.327,0.114c-0.037,0.107 -0.063,0.204 -0.078,0.291c-0.014,0.089 -0.022,0.167 -0.022,0.237c0,0.116 0.026,0.211 0.079,0.286c0.054,0.075 0.132,0.112 0.234,0.112c0.089,0 0.164,-0.03 0.222,-0.089c0.058,-0.06 0.111,-0.135 0.159,-0.225c0.048,-0.089 0.097,-0.185 0.145,-0.288c0.047,-0.103 0.104,-0.199 0.169,-0.289c0.064,-0.089 0.145,-0.164 0.241,-0.224c0.096,-0.059 0.215,-0.089 0.358,-0.089c0.097,0 0.186,0.022 0.271,0.067c0.085,0.045 0.16,0.106 0.224,0.184c0.065,0.078 0.116,0.167 0.154,0.266c0.038,0.1 0.057,0.204 0.057,0.314c0,0.126 -0.011,0.261 -0.031,0.405c-0.022,0.144 -0.081,0.313 -0.178,0.505l-0.328,-0.119Z" style="fill:rgb(112,111,111);fill-rule:nonzero;"/>                </g>                <g transform="matrix(6.12323e-17,1,-1,6.12323e-17,101.097,409.984)">                    <path d="M0,3.229l0,-0.612l2.906,-0.97l0.154,-0.035l-0.154,-0.035l-2.906,-0.97l0,-0.612l3.618,-0.398l0,0.453l-2.896,0.283l-0.214,0.015l0.214,0.06l2.846,0.985l0,0.443l-2.851,0.99l-0.209,0.065l0.209,0.015l2.901,0.278l0,0.448l-3.618,-0.403Z" style="fill:rgb(112,111,111);fill-rule:nonzero;"/>                </g>                <g transform="matrix(6.12323e-17,1,-1,6.12323e-17,102.151,412.75)">                    <path d="M0,-1.946c0.2,0 0.369,-0.007 0.511,-0.022c0.14,-0.015 0.254,-0.034 0.34,-0.057l0,0.338c-0.027,0.046 -0.062,0.083 -0.107,0.109c-0.045,0.027 -0.094,0.05 -0.147,0.07l-0.089,0.005l0.089,0.055c0.127,0.126 0.209,0.243 0.246,0.35c0.039,0.108 0.058,0.222 0.058,0.341c0,0.13 -0.018,0.246 -0.055,0.349c-0.036,0.102 -0.086,0.19 -0.149,0.263c-0.064,0.073 -0.138,0.129 -0.224,0.167c-0.086,0.038 -0.179,0.057 -0.279,0.057c-0.126,0 -0.235,-0.024 -0.328,-0.072c-0.093,-0.048 -0.173,-0.126 -0.239,-0.234c-0.066,-0.108 -0.122,-0.249 -0.166,-0.425c-0.046,-0.176 -0.082,-0.392 -0.113,-0.647c0.031,0.007 0.066,0.016 0.105,0.028c0.04,0.011 0.079,0.031 0.117,0.059c0.038,0.028 0.072,0.064 0.102,0.107c0.03,0.043 0.049,0.098 0.06,0.164c0.016,0.11 0.04,0.198 0.069,0.266c0.03,0.068 0.064,0.122 0.103,0.162c0.037,0.04 0.079,0.067 0.124,0.08c0.044,0.013 0.09,0.02 0.137,0.02c0.103,0 0.191,-0.037 0.266,-0.11c0.074,-0.073 0.111,-0.172 0.111,-0.298c0,-0.113 -0.028,-0.227 -0.084,-0.341c-0.056,-0.115 -0.147,-0.22 -0.274,-0.316l-0.93,0c-0.196,0 -0.356,0.048 -0.48,0.144c-0.125,0.097 -0.186,0.257 -0.186,0.483c0,0.089 0.008,0.178 0.026,0.266c0.019,0.088 0.05,0.192 0.093,0.311l-0.309,0.114c-0.069,-0.162 -0.115,-0.306 -0.137,-0.43c-0.021,-0.124 -0.032,-0.241 -0.032,-0.351c0,-0.321 0.092,-0.57 0.276,-0.744c0.184,-0.174 0.446,-0.261 0.784,-0.261l0.711,0Z" style="fill:rgb(112,111,111);fill-rule:nonzero;"/>                </g>                <g transform="matrix(6.12323e-17,1,-1,6.12323e-17,105.932,411.029)">                    <path d="M0,0.771c0.056,-0.053 0.117,-0.091 0.182,-0.112c0.065,-0.022 0.136,-0.041 0.216,-0.057l0.09,0l-0.09,-0.04c-0.126,-0.066 -0.23,-0.159 -0.311,-0.279c-0.081,-0.119 -0.122,-0.247 -0.122,-0.383c0,-0.066 0.013,-0.147 0.04,-0.243l0.388,0.059c-0.013,0.053 -0.021,0.099 -0.025,0.137c-0.003,0.038 -0.005,0.072 -0.005,0.102c0,0.076 0.016,0.153 0.047,0.229c0.032,0.076 0.081,0.144 0.147,0.204c0.066,0.06 0.153,0.109 0.259,0.147c0.106,0.038 0.234,0.057 0.383,0.057l1.373,0l0,0.443l-1.701,0c-0.153,0 -0.307,0.006 -0.463,0.02c-0.156,0.013 -0.292,0.033 -0.408,0.059l0,-0.343Z" style="fill:rgb(112,111,111);fill-rule:nonzero;"/>                </g>                <g transform="matrix(6.12323e-17,1,-1,6.12323e-17,107.793,411.934)">                    <path d="M0,-0.418l1.667,-0.97l0,0.527l-1.343,0.737l0.433,0.382c-0.051,0.02 -0.105,0.033 -0.164,0.038c-0.061,0.005 -0.123,0.002 -0.188,-0.01c-0.064,-0.011 -0.128,-0.031 -0.193,-0.057c-0.065,-0.027 -0.124,-0.063 -0.177,-0.11l-0.94,-0.81l0,-0.548l0.905,0.821Zm1.667,1.388l-3.772,0l0,-0.463l3.772,0l0,0.463Z" style="fill:rgb(112,111,111);fill-rule:nonzero;"/>                </g>                <g transform="matrix(6.12323e-17,1,-1,6.12323e-17,110.039,412.024)">                    <path d="M0,-1.237c-0.097,-0.01 -0.186,-0.004 -0.269,0.02c-0.083,0.023 -0.156,0.059 -0.219,0.106c-0.063,0.049 -0.112,0.108 -0.147,0.177c-0.034,0.07 -0.052,0.145 -0.052,0.224c0,0.209 0.083,0.379 0.249,0.51c0.165,0.131 0.403,0.196 0.711,0.196c0.149,0 0.285,-0.02 0.406,-0.059c0.121,-0.04 0.225,-0.095 0.313,-0.166c0.088,-0.072 0.157,-0.156 0.204,-0.252c0.048,-0.096 0.072,-0.201 0.072,-0.313c0,-0.117 -0.011,-0.225 -0.035,-0.327c-0.023,-0.101 -0.071,-0.222 -0.144,-0.365l0.328,-0.125c0.084,0.16 0.139,0.314 0.167,0.463c0.029,0.15 0.042,0.284 0.042,0.403c0,0.183 -0.034,0.348 -0.101,0.498c-0.068,0.149 -0.162,0.276 -0.284,0.381c-0.121,0.104 -0.264,0.184 -0.431,0.241c-0.166,0.056 -0.346,0.084 -0.542,0.084c-0.202,0 -0.384,-0.028 -0.544,-0.084c-0.161,-0.057 -0.299,-0.138 -0.414,-0.244c-0.114,-0.106 -0.202,-0.234 -0.264,-0.383c-0.06,-0.15 -0.091,-0.319 -0.091,-0.508c0,-0.169 0.038,-0.32 0.114,-0.452c0.077,-0.133 0.178,-0.239 0.306,-0.319c0.128,-0.08 0.275,-0.129 0.441,-0.147c0.165,-0.018 0.337,0 0.517,0.053l0,1.442c-0.096,-0.036 -0.176,-0.086 -0.239,-0.149c-0.063,-0.062 -0.094,-0.154 -0.094,-0.273l0,-0.632Z" style="fill:rgb(112,111,111);fill-rule:nonzero;"/>                </g>                <g transform="matrix(6.12323e-17,1,-1,6.12323e-17,112.38,411.373)">                    <path d="M0,-1.17c0,0.116 -0.034,0.206 -0.1,0.271c-0.066,0.065 -0.147,0.113 -0.244,0.147l0,-0.702l0.344,0l0,0.284Zm0,1.035l0,0.458l-0.224,0l-0.12,-0.458l-0.657,0l-0.139,-0.438l2.473,0c0.173,0 0.315,-0.036 0.43,-0.109c0.115,-0.073 0.172,-0.171 0.172,-0.294c0,-0.066 -0.006,-0.129 -0.017,-0.189c-0.012,-0.06 -0.031,-0.133 -0.057,-0.219l0.313,-0.109c0.043,0.125 0.072,0.223 0.087,0.293c0.015,0.069 0.022,0.144 0.022,0.224c0,0.272 -0.087,0.48 -0.263,0.624c-0.176,0.145 -0.424,0.217 -0.742,0.217l-1.278,0Z" style="fill:rgb(112,111,111);fill-rule:nonzero;"/>                </g>                <g transform="matrix(6.12323e-17,1,-1,6.12323e-17,114.491,412.327)">                    <path d="M0,-2.358c0.2,0 0.379,0.032 0.54,0.097c0.161,0.064 0.297,0.15 0.41,0.256c0.113,0.106 0.2,0.229 0.262,0.368c0.061,0.14 0.091,0.284 0.091,0.433c0,0.077 -0.005,0.156 -0.017,0.239c-0.011,0.083 -0.034,0.169 -0.067,0.259c-0.083,-0.047 -0.15,-0.107 -0.201,-0.182c-0.052,-0.074 -0.076,-0.169 -0.073,-0.286c0.003,-0.086 -0.012,-0.171 -0.047,-0.254c-0.034,-0.083 -0.091,-0.157 -0.17,-0.221c-0.077,-0.065 -0.176,-0.117 -0.295,-0.157c-0.12,-0.04 -0.264,-0.059 -0.433,-0.059c-0.143,0 -0.275,0.014 -0.398,0.042c-0.123,0.028 -0.227,0.071 -0.314,0.129c-0.086,0.058 -0.154,0.13 -0.203,0.214c-0.05,0.085 -0.075,0.181 -0.075,0.291c0,0.113 0.029,0.224 0.087,0.334c0.058,0.109 0.15,0.216 0.277,0.318l3.099,0l0,0.458l-2.92,0c-0.2,0 -0.37,0.008 -0.511,0.024c-0.141,0.017 -0.255,0.035 -0.341,0.055l0,-0.333c0.037,-0.043 0.074,-0.077 0.113,-0.102c0.037,-0.025 0.09,-0.049 0.156,-0.072l0.079,-0.01l-0.089,-0.04c-0.116,-0.106 -0.197,-0.225 -0.241,-0.356c-0.045,-0.13 -0.067,-0.249 -0.067,-0.356c0,-0.172 0.035,-0.326 0.104,-0.463c0.07,-0.135 0.165,-0.249 0.286,-0.343c0.121,-0.093 0.264,-0.163 0.428,-0.211c0.164,-0.048 0.341,-0.072 0.53,-0.072" style="fill:rgb(112,111,111);fill-rule:nonzero;"/>                </g>                <g transform="matrix(-6.12323e-17,-1,-1,6.12323e-17,235.504,823.43)">                    <rect x="409.829" y="117.526" width="3.772" height="0.452" style="fill:rgb(112,111,111);"/>                </g>                <g transform="matrix(6.12323e-17,1,-1,6.12323e-17,118.675,412.75)">                    <path d="M0,-1.945c0.2,0 0.369,-0.008 0.511,-0.023c0.14,-0.014 0.254,-0.034 0.34,-0.057l0,0.339c-0.027,0.046 -0.062,0.083 -0.107,0.109c-0.045,0.027 -0.094,0.05 -0.147,0.07l-0.089,0.005l0.089,0.055c0.127,0.125 0.209,0.243 0.246,0.35c0.039,0.107 0.058,0.222 0.058,0.341c0,0.129 -0.018,0.245 -0.055,0.348c-0.036,0.103 -0.086,0.191 -0.149,0.264c-0.064,0.073 -0.138,0.129 -0.224,0.167c-0.086,0.038 -0.179,0.057 -0.279,0.057c-0.126,0 -0.235,-0.024 -0.328,-0.072c-0.093,-0.048 -0.173,-0.126 -0.239,-0.234c-0.066,-0.108 -0.122,-0.25 -0.166,-0.426c-0.046,-0.175 -0.082,-0.391 -0.113,-0.646c0.031,0.006 0.066,0.016 0.105,0.027c0.04,0.012 0.079,0.032 0.117,0.059c0.038,0.029 0.072,0.065 0.102,0.107c0.03,0.044 0.049,0.098 0.06,0.165c0.016,0.109 0.04,0.198 0.069,0.266c0.03,0.068 0.064,0.122 0.103,0.162c0.037,0.04 0.079,0.066 0.124,0.079c0.044,0.014 0.09,0.02 0.137,0.02c0.103,0 0.191,-0.036 0.266,-0.109c0.074,-0.073 0.111,-0.172 0.111,-0.299c0,-0.112 -0.028,-0.226 -0.084,-0.341c-0.056,-0.114 -0.147,-0.219 -0.274,-0.316l-0.93,0c-0.196,0 -0.356,0.048 -0.48,0.145c-0.125,0.096 -0.186,0.257 -0.186,0.482c0,0.09 0.008,0.178 0.026,0.267c0.019,0.087 0.05,0.191 0.093,0.31l-0.309,0.115c-0.069,-0.163 -0.115,-0.306 -0.137,-0.43c-0.021,-0.125 -0.032,-0.242 -0.032,-0.351c0,-0.322 0.092,-0.57 0.276,-0.744c0.184,-0.174 0.446,-0.261 0.784,-0.261l0.711,0Z" style="fill:rgb(112,111,111);fill-rule:nonzero;"/>                </g>                <g transform="matrix(6.12323e-17,1,-1,6.12323e-17,121.87,413.651)">                    <path d="M0,-0.527c0,0.166 -0.029,0.322 -0.087,0.468c-0.058,0.146 -0.143,0.273 -0.256,0.38c-0.113,0.108 -0.253,0.194 -0.42,0.257c-0.168,0.063 -0.359,0.094 -0.575,0.094c-0.216,0 -0.406,-0.032 -0.573,-0.097c-0.165,-0.064 -0.304,-0.152 -0.417,-0.261c-0.113,-0.11 -0.198,-0.237 -0.256,-0.383c-0.058,-0.146 -0.087,-0.299 -0.087,-0.458c0,-0.089 0.008,-0.188 0.024,-0.296c0.017,-0.108 0.043,-0.211 0.08,-0.311l0.324,0.115c-0.027,0.096 -0.045,0.182 -0.056,0.261c-0.01,0.078 -0.014,0.155 -0.014,0.231c0,0.097 0.02,0.187 0.06,0.271c0.039,0.085 0.099,0.16 0.178,0.224c0.08,0.065 0.181,0.116 0.304,0.154c0.123,0.039 0.267,0.058 0.433,0.058c0.169,0 0.315,-0.019 0.437,-0.058c0.124,-0.038 0.225,-0.089 0.304,-0.154c0.08,-0.064 0.139,-0.139 0.179,-0.224c0.04,-0.084 0.06,-0.174 0.06,-0.271c0,-0.073 -0.01,-0.153 -0.032,-0.241c-0.022,-0.088 -0.059,-0.19 -0.112,-0.306l0.328,-0.125c0.067,0.136 0.112,0.263 0.137,0.381c0.025,0.118 0.037,0.215 0.037,0.291" style="fill:rgb(112,111,111);fill-rule:nonzero;"/>                </g>                <g transform="matrix(6.12323e-17,1,-1,6.12323e-17,123.851,412.024)">                    <path d="M0,-1.237c-0.097,-0.01 -0.186,-0.004 -0.269,0.02c-0.083,0.023 -0.156,0.059 -0.219,0.107c-0.063,0.048 -0.112,0.107 -0.147,0.176c-0.034,0.07 -0.052,0.145 -0.052,0.224c0,0.209 0.083,0.379 0.249,0.51c0.165,0.132 0.403,0.197 0.711,0.197c0.149,0 0.285,-0.02 0.406,-0.06c0.121,-0.04 0.225,-0.095 0.313,-0.166c0.088,-0.072 0.157,-0.155 0.204,-0.252c0.048,-0.096 0.072,-0.201 0.072,-0.314c0,-0.116 -0.011,-0.224 -0.035,-0.326c-0.023,-0.101 -0.071,-0.222 -0.144,-0.365l0.328,-0.124c0.084,0.159 0.139,0.313 0.167,0.462c0.029,0.15 0.042,0.284 0.042,0.403c0,0.183 -0.034,0.349 -0.101,0.498c-0.068,0.149 -0.162,0.276 -0.284,0.381c-0.121,0.104 -0.264,0.185 -0.431,0.241c-0.166,0.056 -0.346,0.084 -0.542,0.084c-0.202,0 -0.384,-0.028 -0.544,-0.084c-0.161,-0.056 -0.299,-0.137 -0.414,-0.244c-0.114,-0.106 -0.202,-0.234 -0.264,-0.383c-0.06,-0.149 -0.091,-0.318 -0.091,-0.508c0,-0.169 0.038,-0.32 0.114,-0.453c0.077,-0.132 0.178,-0.238 0.306,-0.318c0.128,-0.079 0.275,-0.128 0.441,-0.146c0.165,-0.019 0.337,-0.001 0.517,0.051l0,1.444c-0.096,-0.037 -0.176,-0.087 -0.239,-0.15c-0.063,-0.063 -0.094,-0.154 -0.094,-0.273l0,-0.632Z" style="fill:rgb(112,111,111);fill-rule:nonzero;"/>                </g>                <g transform="matrix(6.12323e-17,1,-1,6.12323e-17,129.532,409.984)">                    <path d="M0,1.991l0,-0.478l3.259,0l0,-1.513l0.359,0.005l0,1.986l-3.618,0Z" style="fill:rgb(112,111,111);fill-rule:nonzero;"/>                </g>                <g transform="matrix(6.12323e-17,1,-1,6.12323e-17,130.424,412.024)">                    <path d="M0,-1.237c-0.097,-0.01 -0.186,-0.004 -0.269,0.02c-0.083,0.023 -0.156,0.059 -0.219,0.107c-0.063,0.048 -0.112,0.107 -0.147,0.176c-0.034,0.07 -0.052,0.145 -0.052,0.224c0,0.209 0.083,0.379 0.249,0.51c0.165,0.132 0.403,0.196 0.711,0.196c0.149,0 0.285,-0.019 0.406,-0.059c0.121,-0.04 0.225,-0.095 0.313,-0.166c0.088,-0.072 0.157,-0.156 0.204,-0.252c0.048,-0.096 0.072,-0.201 0.072,-0.314c0,-0.116 -0.011,-0.224 -0.035,-0.326c-0.023,-0.1 -0.071,-0.222 -0.144,-0.365l0.328,-0.125c0.084,0.16 0.139,0.314 0.167,0.463c0.029,0.15 0.042,0.284 0.042,0.403c0,0.183 -0.034,0.349 -0.101,0.498c-0.068,0.149 -0.162,0.276 -0.284,0.381c-0.121,0.104 -0.264,0.185 -0.431,0.241c-0.166,0.056 -0.346,0.084 -0.542,0.084c-0.202,0 -0.384,-0.028 -0.544,-0.084c-0.161,-0.056 -0.299,-0.137 -0.414,-0.244c-0.114,-0.106 -0.202,-0.234 -0.264,-0.383c-0.06,-0.149 -0.091,-0.318 -0.091,-0.508c0,-0.169 0.038,-0.32 0.114,-0.453c0.077,-0.132 0.178,-0.238 0.306,-0.318c0.128,-0.08 0.275,-0.128 0.441,-0.147c0.165,-0.018 0.337,0 0.517,0.052l0,1.443c-0.096,-0.036 -0.176,-0.086 -0.239,-0.149c-0.063,-0.063 -0.094,-0.154 -0.094,-0.273l0,-0.632Z" style="fill:rgb(112,111,111);fill-rule:nonzero;"/>                </g>                <g transform="matrix(6.12323e-17,1,-1,6.12323e-17,133.218,411.731)">                    <path d="M0,-1.23c-0.116,0 -0.211,0.026 -0.284,0.077c-0.073,0.052 -0.109,0.129 -0.109,0.232c0,0.039 0.003,0.074 0.012,0.104c0.008,0.03 0.018,0.066 0.027,0.11c0.024,0.096 0.026,0.185 0.005,0.268c-0.019,0.083 -0.066,0.16 -0.139,0.229c-0.103,-0.175 -0.173,-0.324 -0.209,-0.442c-0.036,-0.12 -0.054,-0.225 -0.054,-0.315c0,-0.098 0.012,-0.193 0.037,-0.283c0.024,-0.089 0.068,-0.168 0.132,-0.236c0.063,-0.068 0.145,-0.122 0.248,-0.162c0.103,-0.04 0.231,-0.059 0.383,-0.059l1.822,0l0,0.477l-1.871,0Zm-0.702,1.348c0.09,-0.079 0.178,-0.131 0.266,-0.156c0.088,-0.025 0.182,-0.038 0.281,-0.038l2.026,0l0,0.478l-1.946,0c-0.093,0 -0.191,0.006 -0.297,0.018c-0.104,0.012 -0.214,0.03 -0.33,0.057l0,-0.359Z" style="fill:rgb(112,111,111);fill-rule:nonzero;"/>                </g>                <g transform="matrix(6.12323e-17,1,-1,6.12323e-17,137.97,412.303)">                    <path d="M0,2.358c-0.2,0 -0.379,-0.032 -0.54,-0.097c-0.161,-0.064 -0.298,-0.151 -0.411,-0.259c-0.112,-0.107 -0.199,-0.23 -0.261,-0.368c-0.061,-0.137 -0.092,-0.281 -0.092,-0.43c0,-0.076 0.006,-0.156 0.018,-0.239c0.011,-0.083 0.033,-0.169 0.067,-0.259c0.083,0.047 0.15,0.107 0.201,0.182c0.052,0.074 0.076,0.17 0.072,0.286c-0.003,0.086 0.013,0.171 0.047,0.254c0.035,0.083 0.091,0.156 0.167,0.221c0.076,0.065 0.175,0.117 0.296,0.157c0.121,0.04 0.266,0.06 0.436,0.06c0.146,0 0.279,-0.015 0.4,-0.045c0.121,-0.03 0.225,-0.073 0.311,-0.13c0.087,-0.056 0.155,-0.126 0.204,-0.211c0.05,-0.085 0.075,-0.181 0.075,-0.291c0,-0.236 -0.121,-0.453 -0.364,-0.652l-3.099,0l0,-0.463l2.92,0c0.2,0 0.369,-0.007 0.511,-0.022c0.14,-0.015 0.254,-0.032 0.34,-0.052l0,0.333c-0.037,0.04 -0.073,0.072 -0.112,0.097c-0.037,0.025 -0.09,0.051 -0.156,0.078l-0.08,0.009l0.084,0.04c0.116,0.103 0.198,0.221 0.244,0.353c0.047,0.133 0.07,0.251 0.07,0.354c0,0.175 -0.035,0.33 -0.105,0.465c-0.069,0.134 -0.164,0.248 -0.285,0.343c-0.121,0.095 -0.264,0.166 -0.428,0.214c-0.165,0.048 -0.341,0.072 -0.53,0.072" style="fill:rgb(112,111,111);fill-rule:nonzero;"/>                </g>                <g transform="matrix(6.12323e-17,1,-1,6.12323e-17,277.94,-1.70189e-14)">                    <path d="M411.029,138.731l2.572,0l0,0.477l-2.572,0l0,-0.477Zm-0.744,0.537c-0.086,0 -0.157,-0.028 -0.215,-0.084c-0.057,-0.056 -0.086,-0.128 -0.086,-0.214c0,-0.086 0.029,-0.158 0.086,-0.214c0.058,-0.056 0.129,-0.084 0.215,-0.084c0.085,0 0.156,0.028 0.212,0.084c0.056,0.056 0.084,0.128 0.084,0.214c0,0.086 -0.028,0.158 -0.084,0.214c-0.056,0.056 -0.127,0.084 -0.212,0.084" style="fill:rgb(112,111,111);fill-rule:nonzero;"/>                </g>                <g transform="matrix(6.12323e-17,1,-1,6.12323e-17,140.433,411.731)">                    <path d="M0,-1.229c-0.116,0 -0.211,0.026 -0.284,0.077c-0.073,0.052 -0.109,0.129 -0.109,0.232c0,0.039 0.003,0.074 0.012,0.104c0.008,0.03 0.018,0.066 0.027,0.11c0.024,0.096 0.026,0.186 0.005,0.268c-0.019,0.083 -0.066,0.159 -0.139,0.229c-0.103,-0.176 -0.173,-0.324 -0.209,-0.443c-0.036,-0.119 -0.054,-0.224 -0.054,-0.313c0,-0.1 0.012,-0.194 0.037,-0.284c0.024,-0.089 0.068,-0.168 0.132,-0.236c0.063,-0.068 0.145,-0.122 0.248,-0.162c0.103,-0.04 0.231,-0.059 0.383,-0.059l1.822,0l0,0.477l-1.871,0Zm-0.702,1.348c0.09,-0.079 0.178,-0.131 0.266,-0.157c0.088,-0.024 0.182,-0.036 0.281,-0.036l2.026,0l0,0.477l-1.946,0c-0.093,0 -0.191,0.006 -0.297,0.017c-0.104,0.012 -0.214,0.031 -0.33,0.057l0,-0.358Z" style="fill:rgb(112,111,111);fill-rule:nonzero;"/>                </g>                <g transform="matrix(6.12323e-17,1,-1,6.12323e-17,145.04,412.327)">                    <path d="M0,2.199c-0.202,0 -0.386,-0.032 -0.553,-0.097c-0.165,-0.065 -0.307,-0.156 -0.424,-0.274c-0.118,-0.117 -0.209,-0.256 -0.275,-0.418c-0.064,-0.161 -0.096,-0.337 -0.096,-0.53c0,-0.139 0.012,-0.277 0.037,-0.415c0.025,-0.137 0.065,-0.293 0.122,-0.465l2.463,0c0.186,0 0.355,0.027 0.507,0.082c0.153,0.055 0.284,0.133 0.394,0.236c0.109,0.103 0.193,0.227 0.253,0.371c0.06,0.144 0.09,0.307 0.09,0.49c0,0.129 -0.013,0.27 -0.04,0.423c-0.027,0.153 -0.083,0.312 -0.169,0.478l-0.339,-0.13c0.069,-0.142 0.119,-0.274 0.147,-0.393c0.029,-0.119 0.042,-0.232 0.042,-0.339c0,-0.102 -0.016,-0.2 -0.049,-0.293c-0.033,-0.093 -0.084,-0.174 -0.152,-0.244c-0.068,-0.069 -0.154,-0.125 -0.259,-0.166c-0.105,-0.042 -0.228,-0.062 -0.371,-0.062l-2.263,0c-0.02,0.076 -0.035,0.146 -0.042,0.213c-0.009,0.066 -0.013,0.137 -0.013,0.213c0,0.248 0.084,0.447 0.254,0.6c0.169,0.151 0.414,0.227 0.736,0.227c0.139,0 0.27,-0.014 0.391,-0.042c0.121,-0.028 0.224,-0.071 0.308,-0.129c0.085,-0.058 0.149,-0.13 0.192,-0.214c0.043,-0.085 0.057,-0.185 0.044,-0.301c-0.006,-0.073 0.004,-0.144 0.03,-0.212c0.027,-0.068 0.078,-0.132 0.154,-0.191c0.057,0.083 0.1,0.167 0.129,0.254c0.031,0.086 0.049,0.167 0.055,0.243c0.014,0.15 -0.009,0.29 -0.067,0.421c-0.058,0.131 -0.145,0.246 -0.261,0.345c-0.116,0.098 -0.256,0.176 -0.423,0.234c-0.165,0.056 -0.35,0.085 -0.552,0.085" style="fill:rgb(112,111,111);fill-rule:nonzero;"/>                </g>                <g transform="matrix(6.12323e-17,1,-1,6.12323e-17,148.17,409.984)">                    <path d="M0,-0.462l3.618,-1.304l0,0.508l-2.916,1.01l-0.144,0.034l0.144,0.035l1.597,0.557l0.104,0.055l-0.009,-0.06l0,-0.671c0,-0.12 0.035,-0.21 0.106,-0.273c0.072,-0.064 0.155,-0.114 0.252,-0.15l0,1.254l0.866,0.299l0,0.472l-3.618,-1.304l0,-0.462Z" style="fill:rgb(112,111,111);fill-rule:nonzero;"/>                </g>                <g transform="matrix(6.12323e-17,1,-1,6.12323e-17,151.911,413.113)">                    <path d="M0,1.503c0.063,-0.126 0.109,-0.253 0.137,-0.381c0.028,-0.127 0.042,-0.244 0.042,-0.351c0,-0.149 -0.035,-0.26 -0.104,-0.333c-0.07,-0.073 -0.16,-0.109 -0.269,-0.109c-0.09,0 -0.165,0.03 -0.225,0.089c-0.059,0.06 -0.114,0.134 -0.162,0.224c-0.048,0.089 -0.095,0.186 -0.142,0.289c-0.046,0.103 -0.101,0.199 -0.165,0.288c-0.063,0.09 -0.14,0.164 -0.231,0.224c-0.092,0.06 -0.207,0.09 -0.347,0.09c-0.08,0 -0.16,-0.018 -0.24,-0.052c-0.079,-0.035 -0.151,-0.086 -0.214,-0.152c-0.063,-0.067 -0.115,-0.15 -0.155,-0.249c-0.039,-0.099 -0.059,-0.214 -0.059,-0.344c0,-0.095 0.009,-0.2 0.028,-0.313c0.018,-0.112 0.052,-0.239 0.103,-0.378l0.327,0.115c-0.037,0.106 -0.063,0.203 -0.078,0.291c-0.014,0.088 -0.022,0.167 -0.022,0.236c0,0.116 0.026,0.211 0.079,0.286c0.054,0.075 0.132,0.112 0.234,0.112c0.089,0 0.164,-0.03 0.222,-0.089c0.058,-0.06 0.111,-0.135 0.159,-0.225c0.048,-0.089 0.097,-0.185 0.145,-0.288c0.047,-0.103 0.104,-0.199 0.169,-0.289c0.064,-0.089 0.145,-0.164 0.241,-0.223c0.096,-0.06 0.215,-0.09 0.358,-0.09c0.097,0 0.186,0.022 0.271,0.067c0.085,0.044 0.16,0.106 0.224,0.184c0.065,0.078 0.116,0.167 0.154,0.266c0.038,0.1 0.057,0.204 0.057,0.314c0,0.126 -0.011,0.261 -0.031,0.405c-0.022,0.145 -0.081,0.313 -0.178,0.505l-0.328,-0.119Z" style="fill:rgb(112,111,111);fill-rule:nonzero;"/>                </g>                <g transform="matrix(6.12323e-17,1,-1,6.12323e-17,153.981,413.113)">                    <path d="M0,1.503c0.063,-0.126 0.109,-0.253 0.137,-0.381c0.028,-0.127 0.042,-0.244 0.042,-0.351c0,-0.149 -0.035,-0.26 -0.104,-0.333c-0.07,-0.073 -0.16,-0.109 -0.269,-0.109c-0.09,0 -0.165,0.03 -0.225,0.089c-0.059,0.06 -0.114,0.134 -0.162,0.224c-0.048,0.09 -0.095,0.186 -0.142,0.289c-0.046,0.103 -0.101,0.198 -0.165,0.288c-0.063,0.09 -0.14,0.164 -0.231,0.225c-0.092,0.059 -0.207,0.089 -0.347,0.089c-0.08,0 -0.16,-0.018 -0.24,-0.053c-0.079,-0.034 -0.151,-0.085 -0.214,-0.151c-0.063,-0.067 -0.115,-0.15 -0.155,-0.249c-0.039,-0.099 -0.059,-0.214 -0.059,-0.344c0,-0.096 0.009,-0.2 0.028,-0.313c0.018,-0.112 0.052,-0.238 0.103,-0.378l0.327,0.115c-0.037,0.106 -0.063,0.203 -0.078,0.291c-0.014,0.087 -0.022,0.166 -0.022,0.236c0,0.116 0.026,0.211 0.079,0.286c0.054,0.075 0.132,0.112 0.234,0.112c0.089,0 0.164,-0.03 0.222,-0.09c0.058,-0.059 0.111,-0.134 0.159,-0.224c0.048,-0.089 0.097,-0.185 0.145,-0.288c0.047,-0.103 0.104,-0.199 0.169,-0.289c0.064,-0.089 0.145,-0.164 0.241,-0.223c0.096,-0.06 0.215,-0.09 0.358,-0.09c0.097,0 0.186,0.022 0.271,0.067c0.085,0.044 0.16,0.106 0.224,0.184c0.065,0.078 0.116,0.166 0.154,0.266c0.038,0.1 0.057,0.204 0.057,0.313c0,0.127 -0.011,0.262 -0.031,0.406c-0.022,0.145 -0.081,0.313 -0.178,0.505l-0.328,-0.119Z" style="fill:rgb(112,111,111);fill-rule:nonzero;"/>                </g>                <g transform="matrix(6.12323e-17,1,-1,6.12323e-17,156.354,412.312)">                    <path d="M0,1.413c0.146,0 0.279,-0.015 0.397,-0.047c0.12,-0.032 0.223,-0.078 0.309,-0.137c0.087,-0.06 0.154,-0.133 0.202,-0.221c0.048,-0.088 0.072,-0.189 0.072,-0.301c0,-0.12 -0.026,-0.224 -0.077,-0.314c-0.051,-0.089 -0.122,-0.163 -0.212,-0.221c-0.089,-0.058 -0.193,-0.102 -0.313,-0.13c-0.12,-0.028 -0.245,-0.042 -0.378,-0.042c-0.166,0 -0.31,0.019 -0.433,0.057c-0.123,0.039 -0.224,0.09 -0.304,0.155c-0.079,0.065 -0.139,0.14 -0.179,0.226c-0.039,0.086 -0.059,0.176 -0.059,0.269c0,0.096 0.02,0.186 0.059,0.271c0.04,0.084 0.1,0.159 0.179,0.224c0.08,0.065 0.181,0.116 0.304,0.154c0.123,0.038 0.267,0.057 0.433,0.057m0,0.493c-0.229,0 -0.427,-0.035 -0.594,-0.105c-0.168,-0.069 -0.307,-0.161 -0.416,-0.273c-0.109,-0.113 -0.19,-0.242 -0.244,-0.386c-0.053,-0.144 -0.079,-0.29 -0.079,-0.435c0,-0.189 0.035,-0.359 0.104,-0.508c0.07,-0.149 0.164,-0.275 0.284,-0.378c0.119,-0.103 0.26,-0.181 0.422,-0.234c0.163,-0.053 0.337,-0.08 0.523,-0.08c0.216,0 0.407,0.033 0.575,0.097c0.167,0.065 0.307,0.152 0.42,0.262c0.113,0.109 0.198,0.237 0.256,0.383c0.058,0.146 0.087,0.298 0.087,0.458c0,0.166 -0.029,0.322 -0.087,0.467c-0.058,0.146 -0.143,0.273 -0.256,0.381c-0.113,0.108 -0.253,0.193 -0.42,0.256c-0.168,0.063 -0.359,0.095 -0.575,0.095" style="fill:rgb(112,111,111);fill-rule:nonzero;"/>                </g>                <g transform="matrix(6.12323e-17,1,-1,6.12323e-17,157.947,413.651)">                    <path d="M0,-0.527c0,0.166 -0.029,0.322 -0.087,0.468c-0.058,0.146 -0.143,0.273 -0.256,0.38c-0.113,0.108 -0.253,0.194 -0.42,0.257c-0.168,0.063 -0.359,0.094 -0.575,0.094c-0.216,0 -0.406,-0.032 -0.573,-0.097c-0.165,-0.064 -0.304,-0.152 -0.417,-0.261c-0.113,-0.109 -0.198,-0.237 -0.256,-0.383c-0.058,-0.146 -0.087,-0.299 -0.087,-0.458c0,-0.089 0.008,-0.188 0.024,-0.296c0.017,-0.108 0.043,-0.211 0.08,-0.311l0.324,0.115c-0.027,0.096 -0.045,0.182 -0.056,0.261c-0.01,0.078 -0.014,0.155 -0.014,0.231c0,0.096 0.02,0.187 0.06,0.271c0.039,0.085 0.099,0.159 0.178,0.224c0.08,0.065 0.181,0.116 0.304,0.154c0.123,0.038 0.267,0.058 0.433,0.058c0.169,0 0.315,-0.02 0.437,-0.058c0.124,-0.038 0.225,-0.089 0.304,-0.154c0.08,-0.065 0.139,-0.139 0.179,-0.224c0.04,-0.084 0.06,-0.175 0.06,-0.271c0,-0.073 -0.01,-0.153 -0.032,-0.241c-0.022,-0.088 -0.059,-0.19 -0.112,-0.306l0.328,-0.125c0.067,0.137 0.112,0.263 0.137,0.381c0.025,0.118 0.037,0.215 0.037,0.291" style="fill:rgb(112,111,111);fill-rule:nonzero;"/>                </g>                <g transform="matrix(6.12323e-17,1,-1,6.12323e-17,319.654,-1.95732e-14)">                    <path d="M411.029,159.588l2.572,0l0,0.477l-2.572,0l0,-0.477Zm-0.744,0.538c-0.086,0 -0.157,-0.029 -0.215,-0.085c-0.057,-0.057 -0.086,-0.128 -0.086,-0.214c0,-0.086 0.029,-0.158 0.086,-0.214c0.058,-0.056 0.129,-0.085 0.215,-0.085c0.085,0 0.156,0.029 0.212,0.085c0.056,0.056 0.084,0.128 0.084,0.214c0,0.086 -0.028,0.157 -0.084,0.214c-0.056,0.056 -0.127,0.085 -0.212,0.085" style="fill:rgb(112,111,111);fill-rule:nonzero;"/>                </g>                <g transform="matrix(6.12323e-17,1,-1,6.12323e-17,160.772,412.75)">                    <path d="M0,-1.946c0.2,0 0.369,-0.007 0.511,-0.023c0.14,-0.014 0.254,-0.033 0.34,-0.056l0,0.338c-0.027,0.046 -0.062,0.083 -0.107,0.109c-0.045,0.027 -0.094,0.05 -0.147,0.07l-0.089,0.005l0.089,0.055c0.127,0.126 0.209,0.243 0.246,0.35c0.039,0.108 0.058,0.222 0.058,0.341c0,0.13 -0.018,0.246 -0.055,0.349c-0.036,0.102 -0.086,0.19 -0.149,0.263c-0.064,0.073 -0.138,0.129 -0.224,0.167c-0.086,0.038 -0.179,0.057 -0.279,0.057c-0.126,0 -0.235,-0.024 -0.328,-0.072c-0.093,-0.048 -0.173,-0.126 -0.239,-0.234c-0.066,-0.108 -0.122,-0.249 -0.166,-0.425c-0.046,-0.176 -0.082,-0.392 -0.113,-0.647c0.031,0.007 0.066,0.016 0.105,0.027c0.04,0.012 0.079,0.032 0.117,0.06c0.038,0.028 0.072,0.064 0.102,0.106c0.03,0.044 0.049,0.099 0.06,0.165c0.016,0.109 0.04,0.198 0.069,0.266c0.03,0.068 0.064,0.123 0.103,0.162c0.037,0.04 0.079,0.066 0.124,0.08c0.044,0.013 0.09,0.019 0.137,0.019c0.103,0 0.191,-0.036 0.266,-0.109c0.074,-0.073 0.111,-0.172 0.111,-0.299c0,-0.112 -0.028,-0.226 -0.084,-0.34c-0.056,-0.115 -0.147,-0.22 -0.274,-0.316l-0.93,0c-0.196,0 -0.356,0.048 -0.48,0.144c-0.125,0.097 -0.186,0.257 -0.186,0.483c0,0.089 0.008,0.178 0.026,0.266c0.019,0.087 0.05,0.191 0.093,0.31l-0.309,0.115c-0.069,-0.162 -0.115,-0.306 -0.137,-0.43c-0.021,-0.125 -0.032,-0.242 -0.032,-0.351c0,-0.322 0.092,-0.57 0.276,-0.744c0.184,-0.174 0.446,-0.261 0.784,-0.261l0.711,0Z" style="fill:rgb(112,111,111);fill-rule:nonzero;"/>                </g>                <g transform="matrix(6.12323e-17,1,-1,6.12323e-17,163.459,411.373)">                    <path d="M0,-1.169c0,0.116 -0.034,0.206 -0.1,0.271c-0.066,0.065 -0.147,0.113 -0.244,0.147l0,-0.702l0.344,0l0,0.284Zm0,1.035l0,0.458l-0.224,0l-0.12,-0.458l-0.657,0l-0.139,-0.438l2.473,0c0.173,0 0.315,-0.036 0.43,-0.109c0.115,-0.074 0.172,-0.172 0.172,-0.294c0,-0.066 -0.006,-0.129 -0.017,-0.189c-0.012,-0.06 -0.031,-0.133 -0.057,-0.219l0.313,-0.11c0.043,0.126 0.072,0.224 0.087,0.294c0.015,0.07 0.022,0.144 0.022,0.224c0,0.272 -0.087,0.48 -0.263,0.624c-0.176,0.145 -0.424,0.217 -0.742,0.217l-1.278,0Z" style="fill:rgb(112,111,111);fill-rule:nonzero;"/>                </g>                <g transform="matrix(6.12323e-17,1,-1,6.12323e-17,331.685,-2.03098e-14)">                    <path d="M411.029,165.604l2.572,0l0,0.477l-2.572,0l0,-0.477Zm-0.744,0.537c-0.086,0 -0.157,-0.028 -0.215,-0.085c-0.057,-0.056 -0.086,-0.127 -0.086,-0.213c0,-0.086 0.029,-0.158 0.086,-0.214c0.058,-0.057 0.129,-0.085 0.215,-0.085c0.085,0 0.156,0.028 0.212,0.085c0.056,0.056 0.084,0.128 0.084,0.214c0,0.086 -0.028,0.157 -0.084,0.213c-0.056,0.057 -0.127,0.085 -0.212,0.085" style="fill:rgb(112,111,111);fill-rule:nonzero;"/>                </g>                <g transform="matrix(6.12323e-17,1,-1,6.12323e-17,168.585,412.312)">                    <path d="M0,1.414c0.146,0 0.279,-0.016 0.397,-0.047c0.12,-0.032 0.223,-0.078 0.309,-0.137c0.087,-0.06 0.154,-0.134 0.202,-0.222c0.048,-0.087 0.072,-0.188 0.072,-0.3c0,-0.12 -0.026,-0.224 -0.077,-0.314c-0.051,-0.089 -0.122,-0.164 -0.212,-0.222c-0.089,-0.057 -0.193,-0.101 -0.313,-0.129c-0.12,-0.028 -0.245,-0.042 -0.378,-0.042c-0.166,0 -0.31,0.019 -0.433,0.057c-0.123,0.038 -0.224,0.09 -0.304,0.154c-0.079,0.065 -0.139,0.141 -0.179,0.227c-0.039,0.086 -0.059,0.176 -0.059,0.269c0,0.096 0.02,0.186 0.059,0.271c0.04,0.084 0.1,0.159 0.179,0.224c0.08,0.064 0.181,0.115 0.304,0.154c0.123,0.038 0.267,0.057 0.433,0.057m0,0.492c-0.229,0 -0.427,-0.034 -0.594,-0.104c-0.168,-0.069 -0.307,-0.161 -0.416,-0.274c-0.109,-0.112 -0.19,-0.241 -0.244,-0.385c-0.053,-0.144 -0.079,-0.29 -0.079,-0.435c0,-0.189 0.035,-0.359 0.104,-0.508c0.07,-0.15 0.164,-0.276 0.284,-0.378c0.119,-0.103 0.26,-0.181 0.422,-0.234c0.163,-0.053 0.337,-0.08 0.523,-0.08c0.216,0 0.407,0.033 0.575,0.097c0.167,0.065 0.307,0.152 0.42,0.261c0.113,0.11 0.198,0.238 0.256,0.384c0.058,0.146 0.087,0.298 0.087,0.458c0,0.165 -0.029,0.321 -0.087,0.467c-0.058,0.146 -0.143,0.273 -0.256,0.381c-0.113,0.108 -0.253,0.193 -0.42,0.256c-0.168,0.063 -0.359,0.094 -0.575,0.094" style="fill:rgb(112,111,111);fill-rule:nonzero;"/>                </g>                <g transform="matrix(6.12323e-17,1,-1,6.12323e-17,170.122,411.731)">                    <path d="M0,-1.229c-0.116,0 -0.211,0.026 -0.284,0.077c-0.073,0.052 -0.109,0.129 -0.109,0.231c0,0.04 0.003,0.075 0.012,0.105c0.008,0.03 0.018,0.066 0.027,0.109c0.024,0.097 0.026,0.186 0.005,0.269c-0.019,0.083 -0.066,0.159 -0.139,0.229c-0.103,-0.175 -0.173,-0.324 -0.209,-0.442c-0.036,-0.12 -0.054,-0.225 -0.054,-0.314c0,-0.1 0.012,-0.195 0.037,-0.284c0.024,-0.09 0.068,-0.168 0.132,-0.236c0.063,-0.068 0.145,-0.122 0.248,-0.162c0.103,-0.04 0.231,-0.06 0.383,-0.06l1.822,0l0,0.478l-1.871,0Zm-0.702,1.348c0.09,-0.079 0.178,-0.131 0.266,-0.156c0.088,-0.025 0.182,-0.038 0.281,-0.038l2.026,0l0,0.478l-1.946,0c-0.093,0 -0.191,0.006 -0.297,0.018c-0.104,0.011 -0.214,0.03 -0.33,0.057l0,-0.359Z" style="fill:rgb(112,111,111);fill-rule:nonzero;"/>                </g>                <g transform="matrix(6.12323e-17,1,-1,6.12323e-17,97.506,388.478)">                    <path d="M0,0.082c0,0.975 0.267,1.73 0.8,2.263c0.534,0.534 1.178,0.801 1.933,0.801c0.699,0 1.292,-0.23 1.78,-0.69c0.488,-0.459 0.942,-1.04 1.366,-1.739c0.424,-0.699 0.842,-1.453 1.256,-2.264c0.414,-0.809 0.892,-1.563 1.435,-2.263c0.543,-0.699 1.178,-1.279 1.905,-1.738c0.727,-0.46 1.614,-0.69 2.664,-0.69c0.754,0 1.457,0.151 2.11,0.454c0.655,0.305 1.22,0.742 1.698,1.311c0.479,0.571 0.86,1.27 1.146,2.098c0.285,0.828 0.428,1.767 0.428,2.815c0,0.793 -0.097,1.712 -0.291,2.761c-0.193,1.049 -0.538,2.089 -1.034,3.119l-2.016,-0.801c0.405,-0.883 0.69,-1.747 0.856,-2.595c0.165,-0.845 0.248,-1.6 0.248,-2.263c0,-0.606 -0.083,-1.149 -0.248,-1.627c-0.166,-0.479 -0.391,-0.884 -0.677,-1.215c-0.283,-0.332 -0.62,-0.589 -1.007,-0.773c-0.385,-0.183 -0.799,-0.276 -1.242,-0.276c-0.754,0 -1.388,0.231 -1.905,0.69c-0.514,0.46 -0.979,1.035 -1.393,1.725c-0.414,0.69 -0.818,1.436 -1.215,2.236c-0.395,0.8 -0.845,1.545 -1.351,2.235c-0.507,0.69 -1.11,1.266 -1.809,1.726c-0.699,0.46 -1.563,0.689 -2.595,0.689c-0.754,0 -1.444,-0.142 -2.07,-0.427c-0.625,-0.285 -1.159,-0.685 -1.6,-1.201c-0.441,-0.515 -0.786,-1.122 -1.035,-1.822c-0.249,-0.699 -0.373,-1.462 -0.373,-2.29c0,-0.809 0.065,-1.61 0.193,-2.401c0.129,-0.792 0.35,-1.694 0.663,-2.706l1.987,0.828c-0.239,0.811 -0.4,1.551 -0.483,2.223c-0.082,0.671 -0.124,1.274 -0.124,1.807" style="fill:rgb(60,60,59);fill-rule:nonzero;"/>                </g>                <g transform="matrix(6.12323e-17,1,-1,6.12323e-17,129.607,406.667)">                    <path d="M0,22.578l-20.066,-2.152l0,-3.865l15.926,-5.106l0.91,-0.194l-0.91,-0.193l-15.926,-5.078l0,-3.864l20.066,-2.126l0,2.843l-15.788,1.435l-1.242,0.083l1.242,0.331l15.512,5.134l0,2.926l-15.539,5.161l-1.215,0.359l17.03,1.491l0,2.815Z" style="fill:rgb(60,60,59);fill-rule:nonzero;"/>                </g>                <g transform="matrix(6.12323e-17,1,-1,6.12323e-17,145.064,406.667)">                    <path d="M0,11.096l-20.066,0l0,-3.036l17.83,0l0,-8.06c0.364,0 0.737,0.005 1.119,0.015c0.381,0.008 0.754,0.013 1.117,0.013l0,11.068Z" style="fill:rgb(60,60,59);fill-rule:nonzero;"/>                </g>                <g transform="matrix(6.12323e-17,1,-1,6.12323e-17,157.125,386.602)">                    <path d="M0,2.98l0,-2.953l20.066,-7.231l0,3.201l-15.815,5.41l-0.857,0.193l0.884,0.221l8.363,2.871l0.552,0.303l-0.056,-0.331l0,-3.257c0,-0.349 0.065,-0.658 0.194,-0.924c0.129,-0.267 0.299,-0.502 0.511,-0.705c0.211,-0.202 0.451,-0.372 0.717,-0.51c0.268,-0.138 0.539,-0.253 0.814,-0.345l0,6.679l4.693,1.602l0,2.98l-20.066,-7.204Z" style="fill:rgb(60,60,59);fill-rule:nonzero;"/>                </g>                <g transform="matrix(-6.12323e-17,-1,-1,6.12323e-17,56.094,394.356)">                    <path d="M-0.001,-12.598c-3.478,0 -6.299,2.82 -6.299,6.299c0,3.48 2.821,6.299 6.299,6.299c3.48,0 6.3,-2.819 6.3,-6.299c0,-3.479 -2.82,-6.299 -6.3,-6.299" style="fill:rgb(227,6,19);fill-rule:nonzero;"/>                </g>                <g transform="matrix(6.12323e-17,1,-1,6.12323e-17,77.6239,396.797)">                    <path d="M0,-7.257c1.461,0.585 2.174,2.241 1.595,3.701c-0.303,0.767 -0.902,1.318 -1.614,1.594c2.054,0.603 4.292,2.4 4.44,2.54c-4.695,-1.257 -9.715,-1.025 -13.161,-0.319c0.175,-0.168 2.424,-2.334 5.712,-2.82c-0.807,-0.78 -1.11,-1.991 -0.673,-3.095c0.585,-1.467 2.241,-2.179 3.701,-1.601" style="fill:rgb(227,6,19);fill-rule:nonzero;"/>                </g>                <g transform="matrix(6.12323e-17,1,-1,6.12323e-17,57.4028,373.356)">                    <path d="M0,3.934c-0.223,-1.557 0.854,-3.003 2.409,-3.231c0.814,-0.122 1.593,0.121 2.187,0.6c-0.505,-2.079 -0.068,-4.916 -0.02,-5.115c1.258,4.695 3.97,8.927 6.304,11.558c-0.234,-0.067 -3.234,-0.933 -5.299,-3.538c-0.272,1.09 -1.17,1.957 -2.343,2.129c-1.563,0.228 -3.009,-0.849 -3.238,-2.403" style="fill:rgb(156,16,6);fill-rule:nonzero;"/>                </g>                <g transform="matrix(6.12323e-17,1,-1,6.12323e-17,47.4847,410.543)">                    <path d="M0,-12.803c0.888,2.03 0.094,5.699 -0.511,6.856c1.075,-0.31 2.28,0.041 3.014,0.969c0.975,1.238 0.768,3.028 -0.463,4.004c-1.238,0.974 -3.028,0.766 -4.005,-0.472c-0.511,-0.645 -0.687,-1.44 -0.571,-2.2c-2.273,1.856 -4.377,2.156 -4.348,2.119c4.575,-5.53 5.333,-7.212 6.884,-11.276" style="fill:rgb(192,13,14);fill-rule:nonzero;"/>                </g>                <g transform="matrix(6.12323e-17,1,-1,6.12323e-17,39.3227,410.543)">                    <path d="M0,-20.965c-0.081,0.154 -0.168,0.309 -0.262,0.463c-1.938,3.406 -5.356,7.772 -8.114,10.585c-0.492,0.498 -0.955,0.942 -1.387,1.325c-1.285,1.144 -2.625,2.12 -4.003,2.712c0.713,0.283 1.311,0.834 1.615,1.602c0.578,1.459 -0.135,3.114 -1.595,3.694c-1.46,0.584 -3.116,-0.136 -3.701,-1.595c-0.437,-1.104 -0.134,-2.322 0.673,-3.096c-1.311,-0.054 -2.65,-0.545 -4.009,-1.656c-0.465,-0.376 -0.869,-0.766 -1.225,-1.156c-0.041,-0.048 -0.082,-0.087 -0.121,-0.135c-0.586,-0.666 -1.037,-1.346 -1.373,-2.011c-1.044,-2.012 -1.117,-3.89 -1.231,-4.845c0,0 1.049,0.585 2.913,1.036c2.341,0.565 5.961,0.915 10.402,-0.39c3.311,-0.969 7.079,-2.853 11.102,-6.265c0.1,-0.086 0.208,-0.174 0.316,-0.268" style="fill:rgb(192,13,14);fill-rule:nonzero;"/>                </g>                <g transform="matrix(6.12323e-17,1,-1,6.12323e-17,60.6388,412.583)">                    <path d="M0,-15.01c1.231,0.975 1.438,2.765 0.463,4.003c-0.734,0.929 -1.938,1.272 -3.014,0.969c0.605,1.157 0.847,2.563 0.572,4.299c-0.08,0.505 -0.188,0.975 -0.323,1.42c-0.014,0.067 -0.033,0.128 -0.054,0.195c-0.29,0.915 -0.672,1.696 -1.11,2.368c-1.225,1.919 -2.82,2.927 -3.592,3.506c0,0 -0.022,-1.407 -0.708,-3.506c-0.759,-2.348 -2.361,-5.57 -5.699,-8.639c-2.482,-2.287 -5.927,-4.495 -10.703,-6.203c-0.116,-0.048 -0.238,-0.087 -0.358,-0.128c0.155,-0.007 0.316,-0.007 0.478,-0.007c4.043,-0.027 9.796,0.801 13.645,1.837c0.532,0.142 1.029,0.289 1.48,0.437c1.628,0.545 3.142,1.219 4.347,2.114c-0.115,-0.754 0.06,-1.555 0.571,-2.201c0.977,-1.232 2.767,-1.44 4.005,-0.464" style="fill:rgb(227,6,19);fill-rule:nonzero;"/>                </g>                <g transform="matrix(6.12323e-17,1,-1,6.12323e-17,49.7386,387.101)">                    <path d="M0,-25.608c2.052,0.182 3.573,0.962 4.401,1.326c0,0 -1.339,0.8 -2.92,2.631c-1.595,1.85 -3.432,4.75 -4.382,8.935c-0.765,3.364 -0.955,7.562 0.022,12.723c0.007,0.027 0.007,0.048 0.013,0.074c-0.013,-0.026 -0.035,-0.053 -0.048,-0.08c-2.038,-3.37 -4.237,-8.774 -5.335,-12.717c-0.181,-0.659 -0.336,-1.278 -0.45,-1.844c-0.343,-1.689 -0.518,-3.33 -0.343,-4.825c-0.6,0.48 -1.38,0.72 -2.194,0.6c-1.555,-0.228 -2.631,-1.668 -2.402,-3.229c0.229,-1.555 1.668,-2.632 3.228,-2.403c1.178,0.169 2.081,1.036 2.349,2.127c0.701,-1.104 1.796,-2.019 3.439,-2.646c0.591,-0.228 1.157,-0.389 1.702,-0.497c0.013,-0.007 0.027,-0.007 0.041,-0.007c1.048,-0.222 2.011,-0.249 2.879,-0.168" style="fill:rgb(156,16,6);fill-rule:nonzero;"/>                </g>            </g>        </g>    </g></svg>