<?xml version="1.0" encoding="UTF-8" standalone="no"?><!DOCTYPE svg PUBLIC "-//W3C//DTD SVG 1.1//EN" "http://www.w3.org/Graphics/SVG/1.1/DTD/svg11.dtd"><svg width="100%" height="100%" viewBox="0 0 1024 512" version="1.1" xmlns="http://www.w3.org/2000/svg" xmlns:xlink="http://www.w3.org/1999/xlink" xml:space="preserve" style="fill-rule:evenodd;clip-rule:evenodd;stroke-linejoin:round;stroke-miterlimit:2;"><title>DKB Crowd</title><desc></desc>    <g transform="matrix(1,0,0,1,62.0187,1)">        <g id="path8" transform="matrix(3.17559,0,0,3.17559,331.849,-1005.07)">            <path d="M-104.5,316.5l41.2,0c23.6,0 51.6,17.7 51.6,53c0,32.4 -28,53 -51.6,53l-41.2,0l0,-106Zm63.3,53c0,-22.1 -17.7,-26.5 -33.9,-26.5l0,53c16.2,0 33.9,-4.4 33.9,-26.5Z" style="fill:rgb(20,141,234);fill-rule:nonzero;"/>        </g>        <g id="path10" transform="matrix(3.17559,0,0,3.17559,331.849,-1005.07)">            <path d="M-0.1,316.5l29.5,0l0,39.8l0.3,0l23.3,-39.8l33.9,0l-30.9,48.6l33.9,57.5l-33.9,0l-26.2,-45.7l-0.3,0l0,45.7l-29.5,0l0,-106.1l-0.1,0Z" style="fill:rgb(20,141,234);fill-rule:nonzero;"/>        </g>        <g id="path12" transform="matrix(3.17559,0,0,3.17559,331.849,-1005.07)">            <path d="M97.9,316.5l42.7,0c19.2,0 32.4,11.5 32.4,26.5c0,10 -3.5,18.6 -11.5,21.1l0,0.3c6.6,2.5 17.4,11.5 17.4,25.8c0,21.2 -16.2,32.4 -33.9,32.4l-47.1,0l0,-106.1Zm38.5,42.4c5,0 9.3,-3.2 9.3,-9.3c0,-5.7 -4.3,-9.3 -9.3,-9.3l-9,0l0,18.6l9,0Zm2.6,38.4c5.9,0 9.3,-4.7 9.3,-10.6c0,-5.9 -4.7,-10.6 -10.6,-10.6l-10.3,0l0,21.2l11.6,0Z" style="fill:rgb(20,141,234);fill-rule:nonzero;"/>        </g>        <g id="path17" transform="matrix(3.17559,0,0,3.17559,331.849,-1005.07)">            <path d="M-94.3,476.4l-10.2,0l0,-32.6l10,0c7.7,0 16.3,5.4 16.3,16.3c0,10.8 -8.7,16.3 -16.1,16.3Zm-1.6,-27l-2.5,0l0,21.3l2.5,0c5.4,0 11.3,-3.4 11.3,-10.7c0,-7.2 -5.9,-10.6 -11.3,-10.6Z" style="fill:rgb(20,141,234);fill-rule:nonzero;"/>        </g>        <g id="path19" transform="matrix(3.17559,0,0,3.17559,331.849,-1005.07)">            <path d="M-60.7,476.4l0,-1.8l-0.1,0c-1.5,1.8 -3.8,2.5 -6.5,2.5c-4.5,0 -8.6,-3.9 -8.6,-10.2c0,-6.3 4.1,-10.2 8.6,-10.2c2.7,0 5,0.7 6.5,2.5l0.1,0l0,-1.8l5.7,0l0,19l-5.7,0Zm-4.8,-14.5c-2.3,0 -4.5,1.8 -4.5,5c0,3.2 2.3,5 4.5,5c2.7,0 4.8,-1.8 4.8,-5c0,-3.2 -2,-5 -4.8,-5Z" style="fill:rgb(20,141,234);fill-rule:nonzero;"/>        </g>        <g id="path21" transform="matrix(3.17559,0,0,3.17559,331.849,-1005.07)">            <path d="M-44.4,477.1c-3.3,0 -5.6,-1.5 -7.3,-3.1l2.4,-3.7c1.2,1.2 3.3,2.4 4.9,2.4c1.7,0 2.4,-0.6 2.4,-1.6c0,-3.3 -8.9,-2.1 -8.9,-9c0,-3.7 3.2,-5.4 6.8,-5.4c3.3,0 5.3,0.6 7.3,2.2l-2.4,3.3c-1.2,-0.8 -2.9,-1.4 -4.5,-1.4c-1,0 -2,0.2 -2,1.4c0,2.4 9.3,2 9.3,9c0.1,4.6 -3.5,5.9 -8,5.9Z" style="fill:rgb(20,141,234);fill-rule:nonzero;"/>        </g>        <g id="path23" transform="matrix(3.17559,0,0,3.17559,331.849,-1005.07)">            <path d="M-9.1,476.4l-6,-8.2l-0.1,0l0,8.2l-5.7,0l0,-33.1l5.7,0l0,20.9l0.1,0l5.1,-6.8l6.8,0l-7.3,9.1l8.2,10l-6.8,0l0,-0.1Z" style="fill:rgb(20,141,234);fill-rule:nonzero;"/>        </g>        <g id="path25" transform="matrix(3.17559,0,0,3.17559,331.849,-1005.07)">            <path d="M13.2,476.4l0,-1.8l-0.1,0c-1.5,1.8 -3.8,2.5 -6.5,2.5c-4.5,0 -8.6,-3.9 -8.6,-10.2c0,-6.3 4.1,-10.2 8.6,-10.2c2.7,0 5,0.7 6.5,2.5l0.1,0l0,-1.8l5.7,0l0,19l-5.7,0Zm-4.8,-14.5c-2.3,0 -4.5,1.8 -4.5,5c0,3.2 2.3,5 4.5,5c2.7,0 4.8,-1.8 4.8,-5c0,-3.2 -2,-5 -4.8,-5Z" style="fill:rgb(20,141,234);fill-rule:nonzero;"/>        </g>        <g id="path27" transform="matrix(3.17559,0,0,3.17559,331.849,-1005.07)">            <path d="M36.6,476.4l0,-10.4c0,-2.7 -0.9,-4.1 -3.6,-4.1c-2.3,0 -3.9,1.8 -3.9,4.1l0,10.4l-5.7,0l0,-19l5.7,0l0,1.8l0.1,0c1.5,-1.8 3.8,-2.5 6.1,-2.5c4.4,0 6.9,2.5 6.9,7.5l0,12.2l-5.6,0Z" style="fill:rgb(20,141,234);fill-rule:nonzero;"/>        </g>        <g id="path29" transform="matrix(3.17559,0,0,3.17559,331.849,-1005.07)">            <path d="M60,476.4l0,-10.4c0,-2.7 -0.9,-4.1 -3.6,-4.1c-2.3,0 -3.9,1.8 -3.9,4.1l0,10.4l-5.7,0l0,-19l5.7,0l0,1.8l0.1,0c1.5,-1.8 3.8,-2.5 6.1,-2.5c4.4,0 6.9,2.5 6.9,7.5l0,12.2l-5.6,0Z" style="fill:rgb(20,141,234);fill-rule:nonzero;"/>        </g>        <g id="path31" transform="matrix(3.17559,0,0,3.17559,331.849,-1005.07)">            <path d="M93,476.4l-10.9,0l0,-32.6l10,0c5.4,0 10,3.3 10,8.2c0,3.6 -1.8,6.3 -4.1,7.3c2.3,0.9 5.4,3.2 5.4,7.7c0.1,5.8 -4.5,9.4 -10.4,9.4Zm-1.3,-27.4l-3.4,0l0,7.7l3.4,0c2.3,0 4.5,-1.1 4.5,-3.9c0,-2.7 -2.2,-3.8 -4.5,-3.8Zm0.4,12.9l-3.9,0l0,9.1l3.9,0c3.2,0 5,-1.8 5,-4.5c0,-2.8 -1.8,-4.6 -5,-4.6Z" style="fill:rgb(20,141,234);fill-rule:nonzero;"/>        </g>        <g id="path33" transform="matrix(3.17559,0,0,3.17559,331.849,-1005.07)">            <path d="M121.8,476.4l0,-1.8l-0.1,0c-1.5,1.8 -3.8,2.5 -6.5,2.5c-4.5,0 -8.6,-3.9 -8.6,-10.2c0,-6.3 4.1,-10.2 8.6,-10.2c2.7,0 5,0.7 6.5,2.5l0.1,0l0,-1.8l5.7,0l0,19l-5.7,0Zm-4.8,-14.5c-2.3,0 -4.5,1.8 -4.5,5c0,3.2 2.3,5 4.5,5c2.7,0 4.8,-1.8 4.8,-5c0,-3.2 -2.1,-5 -4.8,-5Z" style="fill:rgb(20,141,234);fill-rule:nonzero;"/>        </g>        <g id="path35" transform="matrix(3.17559,0,0,3.17559,331.849,-1005.07)">            <path d="M145.2,476.4l0,-10.4c0,-2.7 -0.9,-4.1 -3.6,-4.1c-2.3,0 -3.9,1.8 -3.9,4.1l0,10.4l-5.7,0l0,-19l5.7,0l0,1.8l0.1,0c1.5,-1.8 3.8,-2.5 6.1,-2.5c4.4,0 6.9,2.5 6.9,7.5l0,12.2l-5.6,0Z" style="fill:rgb(20,141,234);fill-rule:nonzero;"/>        </g>        <g id="path37" transform="matrix(3.17559,0,0,3.17559,331.849,-1005.07)">            <path d="M167.2,476.4l-6,-8.2l-0.2,0l0,8.2l-5.7,0l0,-33.1l5.7,0l0,20.9l0.1,0l5.1,-6.8l6.8,0l-7.3,9.1l8.2,10l-6.7,0l0,-0.1Z" style="fill:rgb(20,141,234);fill-rule:nonzero;"/>        </g>    </g></svg>