<?xml version="1.0" encoding="UTF-8" standalone="no"?><!DOCTYPE svg PUBLIC "-//W3C//DTD SVG 1.1//EN" "http://www.w3.org/Graphics/SVG/1.1/DTD/svg11.dtd"><svg width="100%" height="100%" viewBox="0 0 1024 512" version="1.1" xmlns="http://www.w3.org/2000/svg" xmlns:xlink="http://www.w3.org/1999/xlink" xml:space="preserve" style="fill-rule:evenodd;clip-rule:evenodd;stroke-linejoin:round;stroke-miterlimit:2;"><title>Ibancar</title><desc>Ibancar, an asset-based lender from Spain offers consumer loans backed by second hand cars. The company offers loans from EUR 1’200 to EUR 6’000 for 12 to 36 months. Ibancar was incorporated in 2014 and has established themselves as a market pioneer offering an alternative to standard consumer lending.</desc>    <g transform="matrix(2.90419,0,0,2.90419,-283.605,-401.542)">        <g transform="matrix(1,0,0,1,98.3229,190.985)">            <path d="M1.6,41c1.5,-12.8 12.5,-22 23.5,-26.9c10.3,-4.6 22,-6.2 33.2,-4.8c10.7,1.3 21.7,5.3 28.8,13.7l7.5,0c-3.4,-8.4 -10.9,-14.4 -18.9,-18c-9.8,-4.4 -20.9,-5.7 -31.6,-4.5c-10.2,1 -20.3,4.5 -28.7,10.6c-6.9,5 -12.8,12.1 -14.7,20.6c-1.2,5 -0.8,10.4 1.1,15.3c-0.3,-1.9 -0.4,-3.9 -0.2,-6c0.3,-2.9 -0.2,2.1 0,0Z" style="fill:rgb(43,80,109);fill-rule:nonzero;"/>        </g>        <g transform="matrix(1,0,0,1,98.3229,190.985)">            <path d="M61.8,58.8l-1.8,10.5c14.3,-3.2 26,-10.8 32.1,-20.4l-10,0c-4.9,4.6 -11.8,8.3 -20.3,9.9Z" style="fill:rgb(43,80,109);fill-rule:nonzero;"/>        </g>        <g transform="matrix(1,0,0,1,98.3229,190.985)">            <path d="M54.1,59.6l2.4,-13.7c0.6,-3.6 -2.1,-7 -5.8,-6.9l-2.4,0c-4.1,0 -7.6,2.9 -8.3,6.9l-2,10.8c-7.4,-2.9 -14.9,-8.6 -16.8,-16.7c-2,-8.4 3.6,-16.5 9.9,-21.5c-10.8,4.3 -23.7,13.4 -23.1,26.5c0.6,12.7 13.4,20.2 24.2,23.4c6.4,1.9 13.3,2.9 20,2.1l1.9,-10.9Z" style="fill:rgb(43,80,109);fill-rule:nonzero;"/>        </g>        <g transform="matrix(1,0,0,1,98.3229,190.985)">            <path d="M60.4,25.4c0.4,-4.8 -3.1,-8.6 -7.9,-8.6c-4.8,0 -9,3.9 -9.4,8.6c-0.5,4.7 3.1,8.6 7.9,8.6c4.7,0 8.9,-3.9 9.4,-8.6Z" style="fill:rgb(132,132,132);fill-rule:nonzero;"/>        </g>        <g transform="matrix(1,0,0,1,98.3229,190.985)">            <path d="M114.9,23.1l7.9,0l-5.4,25.4l-7.9,0l5.4,-25.4Z" style="fill:rgb(43,80,109);fill-rule:nonzero;"/>        </g>        <g transform="matrix(1,0,0,1,98.3229,190.985)">            <path d="M128.5,23.1l22.6,0c6.3,0 9,1.7 7.9,6.7c-0.9,4.4 -2.7,5.2 -5,5.8l0,0.1c3.3,0.4 4.2,2.2 3.4,6.1c-1.2,5.6 -4.8,6.7 -9.3,6.7l-25.1,0l5.5,-25.4Zm3.8,19.4l14.1,0c1.7,0 2.9,-0.4 3.2,-1.9c0.4,-1.7 -0.7,-2.1 -2.4,-2.1l-14.1,0l-0.8,4Zm1.9,-9.3l13.9,0c1.5,0 2.4,-0.5 2.7,-2c0.3,-1.5 -0.4,-2 -1.9,-2l-13.9,0l-0.8,4Z" style="fill:rgb(43,80,109);fill-rule:nonzero;"/>        </g>        <g transform="matrix(1,0,0,1,98.3229,190.985)">            <path d="M177.5,23.1l10.2,0l8.7,25.4l-8.8,0l-1.5,-4.5l-15.9,0l-3.3,4.5l-8.8,0l19.4,-25.4Zm-3.1,15.5l10.1,0l-3.1,-9.5l-7,9.5Z" style="fill:rgb(43,80,109);fill-rule:nonzero;"/>        </g>        <g transform="matrix(1,0,0,1,98.3229,190.985)">            <path d="M204.7,23.1l12.2,0l10.8,18.5l0.1,0l3.9,-18.5l7.9,0l-5.4,25.4l-12.2,0l-10.8,-18.5l-0.1,0l-3.9,18.5l-7.9,0l5.4,-25.4Z" style="fill:rgb(43,80,109);fill-rule:nonzero;"/>        </g>        <g transform="matrix(1,0,0,1,98.3229,190.985)">            <path d="M242.4,32.1c1.6,-7.4 6.2,-9.2 13.3,-9.2l9.2,0c11.2,0 12.1,2.4 10.5,9.6l-7.9,0l0.1,-0.7c0.4,-1.8 -0.8,-2.4 -3.2,-2.4l-8.4,0c-4.1,0 -5.3,1.9 -6,5.1l-0.6,2.7c-0.8,3.7 -0.3,5.1 3.4,5.1l8.4,0c3.5,0 4.7,-0.4 5.4,-3.5l7.9,0l-0.5,2.4c-0.9,4.3 -3.2,7.7 -11.1,7.7l-12.7,0c-7.1,0 -10.9,-1.8 -9.3,-9.2l1.5,-7.6Z" style="fill:rgb(43,80,109);fill-rule:nonzero;"/>        </g>        <g transform="matrix(1,0,0,1,98.3229,190.985)">            <path d="M293.9,23.1l10.2,0l8.7,25.4l-8.8,0l-1.5,-4.5l-15.9,0l-3.3,4.5l-8.8,0l19.4,-25.4Zm-3.1,15.5l10.1,0l-3.1,-9.5l-7,9.5Z" style="fill:rgb(43,80,109);fill-rule:nonzero;"/>        </g>        <g transform="matrix(1,0,0,1,98.3229,190.985)">            <path d="M321.1,23.1l23.7,0c6.1,0 7.1,3 6.1,7.5l-0.3,1.6c-0.7,3.4 -1.9,5.4 -5.7,6.2l0,0.1c2.2,0.4 4,1.4 3.1,5.6l-0.9,4.3l-7.9,0l0.7,-3.1c0.6,-2.7 0,-3.5 -2.5,-3.5l-12.4,0l-1.4,6.6l-7.9,0l5.4,-25.3Zm5.2,12.5l13,0c2.1,0 3.1,-0.8 3.5,-2.7l0.2,-0.8c0.5,-2.2 -0.6,-2.7 -3,-2.7l-12.3,0l-1.4,6.2Z" style="fill:rgb(43,80,109);fill-rule:nonzero;"/>        </g>    </g></svg>