<?xml version="1.0" encoding="UTF-8" standalone="no"?><!DOCTYPE svg PUBLIC "-//W3C//DTD SVG 1.1//EN" "http://www.w3.org/Graphics/SVG/1.1/DTD/svg11.dtd"><svg width="100%" height="100%" viewBox="0 0 1024 512" version="1.1" xmlns="http://www.w3.org/2000/svg" xmlns:xlink="http://www.w3.org/1999/xlink" xml:space="preserve" style="fill-rule:evenodd;clip-rule:evenodd;stroke-linejoin:round;stroke-miterlimit:2;"><title>PretUp</title><desc>PretUp is a crowdfunding platform born from the will to put in direct contact individuals and companies in need of financing, by freeing themselves from banking constraints.PretUp brings together the projects of local companies requiring financing and private investors wishing to increase the return on their savings.</desc>    <g transform="matrix(7.29204,0,0,7.29204,2,117.829)">        <g id="Fill-1" transform="matrix(1,0,0,1,30.9339,6.11864)">            <path d="M10.399,18.214c3.011,0 4.559,-2.154 4.684,-6.461c0,-4.519 -1.589,-6.758 -4.768,-6.758c-3.178,0 -4.684,2.239 -4.642,6.758c0.167,4.307 1.715,6.461 4.726,6.461Zm-4.726,10.558c0,1.858 -0.92,2.788 -2.76,2.788l-2.802,0l0,-21.37c0.293,-6.673 3.722,-9.967 10.372,-9.967c6.858,0 10.288,3.759 10.288,11.276c0,7.602 -2.928,11.53 -8.825,11.741c-2.76,0 -4.851,-1.14 -6.273,-3.464l0,8.996Z" style="fill:rgb(40,40,40);"/>        </g>        <path id="Fill-4" d="M53.328,17.407c0.167,-7.222 3.973,-10.812 11.375,-10.812l0.795,0l0,5.828l-1.883,0c-3.094,0 -4.642,1.647 -4.642,4.899l0,11.614l-5.645,0l0,-11.529" style="fill:rgb(40,40,40);"/>        <path id="Fill-5" d="M72.068,15.337l8.323,0c-0.335,-2.956 -1.715,-4.476 -4.098,-4.476c-2.385,0 -3.807,1.52 -4.225,4.476Zm4.225,14.106c-6.692,-0.212 -10.038,-4.139 -10.038,-11.741c0,-7.601 3.388,-11.402 10.121,-11.445c7.026,0 10.33,4.35 9.912,13.092l-14.303,0c0.208,3.421 1.672,5.153 4.391,5.153c1.296,0 2.509,-0.549 3.597,-1.605c0.501,-0.549 1.129,-0.803 1.881,-0.803l4.099,0c-1.213,4.73 -4.224,7.349 -9.66,7.349Z" style="fill:rgb(40,40,40);"/>        <path id="Fill-6" d="M94.137,10.607l-0.585,0l0,12.374c0,0.929 0.543,1.436 1.631,1.436l1.715,0l0,4.266c-1.798,0.169 -3.765,0.169 -5.856,-0.043c-2.091,-0.211 -3.095,-1.52 -3.052,-4.012l0,-24.41l2.885,0c1.464,0 2.677,1.351 2.677,2.83l0,3.547l3.346,0l0,1.225c0,1.605 -1.213,2.787 -2.761,2.787" style="fill:rgb(40,40,40);"/>        <g id="Fill-7" transform="matrix(1,0,0,1,98.5421,6.11864)">            <path d="M18.715,13.906c0,3.844 -0.962,6.377 -2.927,7.602c-1.966,1.14 -4.141,1.732 -6.525,1.732c-2.3,0 -4.349,-0.634 -6.273,-1.901c-1.924,-1.224 -2.885,-3.674 -2.885,-7.433l0,-13.429l5.562,0l0,14.57c0,2.491 1.255,3.716 3.764,3.716c2.509,0 3.764,-1.225 3.764,-3.716l0,-11.783c-0.042,-1.858 0.836,-2.787 2.676,-2.787l2.844,0l0,13.429" style="fill:rgb(56,88,163);"/>        </g>        <g id="Fill-9" transform="matrix(1,0,0,1,98.5421,6.11864)">            <path d="M30.965,18.214c3.01,0 4.558,-2.154 4.684,-6.461c0,-4.519 -1.59,-6.758 -4.768,-6.758c-3.179,0 -4.684,2.239 -4.643,6.758c0.167,4.307 1.715,6.461 4.727,6.461Zm-4.727,10.558c0,1.858 -0.92,2.788 -2.76,2.788l-2.802,0l0,-21.37c0.293,-6.673 3.722,-9.967 10.372,-9.967c6.859,0 10.288,3.759 10.288,11.276c0,7.602 -2.927,11.53 -8.824,11.741c-2.76,0 -4.851,-1.14 -6.274,-3.464l0,8.996Z" style="fill:rgb(56,88,163);"/>        </g>        <path id="Fill-11" d="M21.039,10.895l0,-4.508l-6.398,6.461l4.767,4.813l-4.767,4.814l6.398,6.461l0,-4.509l5.912,0l0,-13.532l-5.912,0" style="fill:rgb(56,88,163);"/>        <path id="Fill-12" d="M12.525,22.475l4.767,-4.814l-11.165,-11.274l0,4.508l-6.127,0l0,13.532l6.127,0l0,4.509l6.398,-6.461" style="fill:rgb(40,40,40);"/>    </g></svg>