<?xml version="1.0" encoding="UTF-8" standalone="no"?><!DOCTYPE svg PUBLIC "-//W3C//DTD SVG 1.1//EN" "http://www.w3.org/Graphics/SVG/1.1/DTD/svg11.dtd"><svg width="100%" height="100%" viewBox="0 0 1024 512" version="1.1" xmlns="http://www.w3.org/2000/svg" xmlns:xlink="http://www.w3.org/1999/xlink" xml:space="preserve" style="fill-rule:evenodd;clip-rule:evenodd;stroke-linejoin:round;stroke-miterlimit:2;"><title>CreditOn CZ</title><desc></desc>    <g transform="matrix(7.68651,0,0,7.68651,-44.1191,-6.87867)">        <g>            <path d="M73.4,33.6l2.2,0c0.1,0 1.1,-0.1 1.3,-1.3c0.6,-2.3 2.3,-4.2 4.5,-4.8l0.1,0c1,-0.3 1.1,-1.3 1.1,-1.4l0,-2.4c-4.9,0.2 -8.9,4.5 -9.2,9.9Z" style="fill:rgb(0,154,203);fill-rule:nonzero;"/>            <path d="M90.8,34.7c-0.1,0 -1.1,0.1 -1.3,1.3c-0.6,2.3 -2.3,4.2 -4.5,4.8l-0.1,0c-1,0.3 -1.1,1.3 -1.1,1.4l0,2.4c5,-0.3 9,-4.6 9.3,-10l-2.3,0.1Z" style="fill:rgb(255,119,0);fill-rule:nonzero;"/>            <path d="M81.5,40.8c-2.2,-0.7 -3.9,-2.5 -4.5,-4.8l0,-0.1c-0.3,-1.1 -1.2,-1.2 -1.3,-1.2l-2.2,0c0.3,5.4 4.3,9.7 9.3,10l0,-2.4c-0.1,-0.2 -0.2,-1.2 -1.3,-1.5Z" style="fill:rgb(0,175,25);fill-rule:nonzero;"/>            <path d="M91.9,29.7c-2.2,-0.7 -3.9,-2.5 -4.5,-4.8l0,-0.1c-0.3,-1.1 -1.2,-1.2 -1.3,-1.2l-2.2,0c0.3,5.4 4.3,9.7 9.3,10l0,-2.4c-0.1,-0.2 -0.2,-1.2 -1.3,-1.5Z" style="fill:rgb(210,0,132);fill-rule:nonzero;"/>            <g>                <path d="M17,31.1l-1.2,1.8c-0.2,-0.3 -0.7,-0.5 -1.3,-0.7c-0.6,-0.2 -1.2,-0.4 -1.8,-0.4c-1.3,0 -2.3,0.5 -3.1,1.5c-0.8,1 -1.1,2.3 -1.1,4c0,1.7 0.4,3 1.2,3.9c0.8,0.9 1.9,1.3 3.3,1.3c1.1,0 2.2,-0.4 3.3,-1.3l0.9,2.2c-1.3,0.9 -2.9,1.3 -4.8,1.3c-1.8,0 -3.4,-0.7 -4.6,-2c-1.2,-1.3 -1.8,-3.1 -1.8,-5.4c0,-2.3 0.6,-4.2 1.9,-5.6c1.2,-1.4 3,-2.1 5.1,-2.1c0.7,0 1.5,0.2 2.3,0.5c0.7,0.4 1.3,0.7 1.7,1Z" style="fill:rgb(74,70,64);fill-rule:nonzero;"/>                <path d="M26.7,32.4c-0.5,-0.4 -1,-0.6 -1.6,-0.6c-0.9,0 -1.6,0.4 -2.2,1.3c-0.6,0.8 -1,1.8 -1,3l0,8.3l-2.4,0l0,-14.4l2.4,0l0,2.3c0.9,-1.7 2.2,-2.6 3.9,-2.6c0.4,0 1,0.1 1.9,0.2l-1,2.5Z" style="fill:rgb(74,70,64);fill-rule:nonzero;"/>                <path d="M40.4,37.4l-9.7,0c0,1.7 0.4,3 1.3,3.9c0.8,0.8 1.8,1.2 3,1.2c1.4,0 2.5,-0.4 3.4,-1.3l1,1.9c-0.4,0.4 -0.9,0.7 -1.7,1c-1,0.4 -2,0.6 -3.2,0.6c-1.7,0 -3.1,-0.6 -4.3,-1.9c-1.3,-1.4 -2,-3.2 -2,-5.5c0,-2.4 0.7,-4.3 2,-5.8c1.2,-1.3 2.6,-1.9 4.3,-1.9c1.9,0 3.4,0.6 4.5,1.7c1.1,1.1 1.6,2.6 1.6,4.5c0,0.6 -0.1,1.2 -0.2,1.6Zm-5.9,-5.6c-1.1,0 -2,0.4 -2.7,1.1c-0.7,0.7 -1.1,1.6 -1.2,2.6l7.5,0c0,-1 -0.3,-1.9 -0.9,-2.6c-0.6,-0.7 -1.5,-1.1 -2.7,-1.1Z" style="fill:rgb(74,70,64);fill-rule:nonzero;"/>                <path d="M51.8,44.4l0,-1.1c-0.8,0.9 -2,1.3 -3.6,1.3c-1.7,0 -3.1,-0.6 -4.1,-1.9c-1.1,-1.3 -1.6,-3 -1.6,-5.2c0,-2.2 0.6,-4 1.8,-5.6c1.2,-1.5 2.7,-2.3 4.3,-2.3c1.4,0 2.5,0.4 3.2,1.1l0,-6.7l2.4,0l0,20.4l-2.4,0Zm0,-11.1c-0.6,-1 -1.4,-1.5 -2.5,-1.5c-1.3,0 -2.3,0.5 -3.1,1.5c-0.8,1 -1.2,2.3 -1.2,3.9c0,3.5 1.5,5.2 4.4,5.2c0.4,0 0.8,-0.1 1.4,-0.4c0.5,-0.3 0.9,-0.5 1,-0.8l0,-7.9Z" style="fill:rgb(74,70,64);fill-rule:nonzero;"/>                <path d="M58.5,44.4l0,-12.3l-1.9,0l0,-2.1l4.3,0l0,14.5l-2.4,0l0,-0.1Zm1.3,-19.9c0.4,0 0.8,0.2 1.1,0.5c0.3,0.3 0.4,0.7 0.4,1.1c0,0.4 -0.1,0.8 -0.4,1.1c-0.3,0.3 -0.6,0.5 -1.1,0.5c-0.4,0 -0.8,-0.2 -1,-0.5c-0.3,-0.3 -0.4,-0.7 -0.4,-1.1c0,-0.4 0.1,-0.8 0.4,-1.1c0.3,-0.4 0.6,-0.5 1,-0.5Z" style="fill:rgb(74,70,64);fill-rule:nonzero;"/>                <path d="M65.1,32l-1.6,0l0,-2l1.6,0l0,-3l2.4,-1l0,4l3.7,0l0,2l-3.7,0l0,7.2c0,1.2 0.2,2.1 0.6,2.6c0.4,0.5 1,0.8 1.8,0.8c0.6,0 1.3,-0.2 1.9,-0.5l0.4,2.3c-1,0.3 -2.1,0.4 -3.3,0.4c-1.1,0 -2,-0.4 -2.7,-1.3c-0.7,-0.9 -1.1,-1.9 -1.1,-3.2l0,-8.3Z" style="fill:rgb(74,70,64);fill-rule:nonzero;"/>            </g>            <path d="M103.8,44.4l0,-8.4c0,-1.5 -0.2,-2.6 -0.7,-3.2c-0.4,-0.6 -1.2,-0.9 -2.2,-0.9c-0.5,0 -1.1,0.2 -1.7,0.5c-0.6,0.4 -1.1,0.8 -1.4,1.3l0,10.8l-2.4,0l0,-14.5l1.6,0l0.8,1.9c0.8,-1.4 2.1,-2.1 3.9,-2.1c3,0 4.4,1.9 4.4,5.8l0,9l-2.3,-0.2Z" style="fill:rgb(74,70,64);fill-rule:nonzero;"/>            <path d="M111.1,40.6c0.5,0 1,0.2 1.3,0.6c0.4,0.4 0.6,0.9 0.6,1.4c0,0.6 -0.2,1 -0.6,1.4c-0.4,0.4 -0.8,0.6 -1.3,0.6c-0.5,0 -1,-0.2 -1.3,-0.6c-0.4,-0.4 -0.6,-0.9 -0.6,-1.4c0,-0.6 0.2,-1 0.6,-1.4c0.3,-0.4 0.8,-0.6 1.3,-0.6Z" style="fill:rgb(74,70,64);fill-rule:nonzero;"/>        </g>        <g>            <path d="M126.3,31.1l-1.2,1.8c-0.2,-0.3 -0.7,-0.5 -1.3,-0.7c-0.6,-0.2 -1.2,-0.4 -1.8,-0.4c-1.3,0 -2.3,0.5 -3.1,1.5c-0.8,1 -1.1,2.3 -1.1,4c0,1.7 0.4,3 1.2,3.9c0.8,0.9 1.9,1.3 3.3,1.3c1.1,0 2.2,-0.4 3.3,-1.3l0.9,2.2c-1.3,0.9 -2.9,1.3 -4.8,1.3c-1.8,0 -3.4,-0.7 -4.6,-2c-1.2,-1.3 -1.8,-3.1 -1.8,-5.4c0,-2.3 0.6,-4.2 1.9,-5.6c1.3,-1.4 3,-2.1 5.1,-2.1c0.7,0 1.5,0.2 2.3,0.5c0.7,0.4 1.3,0.7 1.7,1Z" style="fill:rgb(74,70,64);fill-rule:nonzero;"/>            <path d="M131.2,42.1l7.5,0l0,2.3l-11.3,0l0,-0.7l7.7,-11.5l-7.6,0l0,-2.2l11.1,0l0,0.7l-7.4,11.4Z" style="fill:rgb(74,70,64);fill-rule:nonzero;"/>        </g>    </g></svg>