<?xml version="1.0" encoding="UTF-8" standalone="no"?><!DOCTYPE svg PUBLIC "-//W3C//DTD SVG 1.1//EN" "http://www.w3.org/Graphics/SVG/1.1/DTD/svg11.dtd"><svg width="100%" height="100%" viewBox="0 0 1024 512" version="1.1" xmlns="http://www.w3.org/2000/svg" xmlns:xlink="http://www.w3.org/1999/xlink" xml:space="preserve" style="fill-rule:evenodd;clip-rule:evenodd;stroke-linejoin:round;stroke-miterlimit:2;"><title>Hyposcout</title><desc>Hyposcout AG is an emerging fintech start-up focused on brokering capital and lenders. As an online brokerage platform, Hyposcout AG brings together investors (investors) and real estate owners (borrowers). Investors include private individuals as well as institutional clients from all over the world who want to hedge their investment through a Swiss property and benefit from attractive interest rates. On the other hand, capital investors have the opportunity to raise capital at a market-oriented interest rate and provide their Swiss property as collateral.</desc>    <g transform="matrix(0.955679,0,0,0.955679,-18.0693,2.54004)">        <g>            <g transform="matrix(92.7754,0,0,92.7758,221.558,265.179)">                <path d="M-0.972,-0.272l0.181,1.299l1.583,0l0.181,-1.299l-0.26,-0.202l0,-0.333l-0.235,0l0,0.152l-0.478,-0.371l-0.972,0.754Zm0.377,0.154l0.595,-0.462l0.596,0.462l-0.111,0.792l-0.969,0l-0.111,-0.792Z" style="fill:url(#_Radial1);fill-rule:nonzero;"/>            </g>            <g transform="matrix(74.0008,9.56091,-4.00267,30.9313,174.194,338.51)">                <path d="M0.986,-0.637l-0.856,0.265l-0.016,1.028l0.927,-0.286l-0.055,-1.007Z" style="fill:url(#_Linear2);"/>            </g>            <g transform="matrix(36.9435,69.224,-37.9705,20.2607,136.907,249.435)">                <path d="M0.873,-0.048l-0.867,-0.844l-0.001,1.001l1.158,0.783l-0.29,-0.94Z" style="fill:url(#_Linear3);"/>            </g>            <g transform="matrix(92.7754,0,0,92.7758,111.258,265.179)">                <path d="M-0.973,-0.272l0.181,1.299l1.584,0l0.049,-0.353l0.132,-0.946l-0.091,-0.07l-0.274,0.213l-0.014,0.011l-0.01,0.078l-0.099,0.714l-0.137,0l-0.231,0l0,-0.301l-0.234,0l0,0.301l-0.368,0l-0.11,-0.792l0.595,-0.462l0.307,0.238l0.288,-0.223l-0.278,-0.215l-0.317,-0.246l-0.973,0.754Z" style="fill:url(#_Radial4);fill-rule:nonzero;"/>            </g>            <g transform="matrix(16.8625,22.0107,-47.8083,36.6293,174.354,251.97)">                <path d="M0.253,-0.479l-0.374,0.046l0.004,0.559l0.931,0.42l0.084,-0.724l-0.645,-0.301Z" style="fill:url(#_Linear5);"/>            </g>            <g transform="matrix(13.5163,17.6432,-47.8096,36.6268,137.515,207.561)">                <path d="M0.047,0.317l0.946,-0.088l-0.009,-0.555l-0.976,0.088l0.039,0.555Z" style="fill:url(#_Linear6);fill-rule:nonzero;"/>            </g>        </g>        <g transform="matrix(4.16667,0,0,4.16667,369.017,262.58)">            <path d="M0,1.201l0,10.113l-3.973,0l0,-21.427l3.973,0l0,9.745l8.958,0l0,-9.745l3.944,0l0,21.427l-3.944,0l0,-10.113l-8.958,0Z" style="fill:rgb(20,111,148);fill-rule:nonzero;"/>        </g>        <g transform="matrix(4.16667,0,0,4.16667,460.9,220.443)">            <path d="M0,21.426l0,-10.368l-7.179,-11.058l4.694,0l5.418,8.797l5.801,-8.797l2.404,0l-7.163,10.497l0,10.929l-3.975,0Z" style="fill:rgb(20,111,148);fill-rule:nonzero;"/>        </g>        <g transform="matrix(4.16667,0,0,4.16667,532.008,262.983)">            <path d="M0,1.007l1.764,0c1.784,0 3.117,-0.381 3.998,-1.145c0.881,-0.763 1.323,-1.916 1.323,-3.453c0,-1.763 -0.44,-3.077 -1.315,-3.942c-0.876,-0.866 -2.213,-1.299 -4.006,-1.299l-1.764,0l0,9.839Zm-3.973,10.209l0,-21.425l7.676,0c2.286,0 4.083,0.568 5.392,1.706c1.308,1.138 1.963,2.69 1.963,4.656c0,1.922 -0.603,3.43 -1.81,4.527c-1.209,1.095 -2.869,1.643 -4.985,1.643l-4.263,0l0,8.893l-3.973,0Z" style="fill:rgb(20,111,148);fill-rule:nonzero;"/>        </g>        <g transform="matrix(4.16667,0,0,4.16667,660.288,265.185)">            <path d="M0,0.015c0,-2.928 -0.625,-5.3 -1.876,-7.115c-1.249,-1.816 -2.857,-2.726 -4.824,-2.726c-1.954,0 -3.56,0.91 -4.814,2.726c-1.257,1.815 -1.884,4.187 -1.884,7.115c0,2.916 0.627,5.283 1.884,7.099c1.254,1.816 2.86,2.724 4.814,2.724c1.956,0 3.562,-0.904 4.816,-2.716c1.256,-1.812 1.884,-4.18 1.884,-7.107m-6.7,11.203c-1.495,0 -2.899,-0.272 -4.215,-0.811c-1.313,-0.539 -2.494,-1.332 -3.541,-2.379c-1.035,-1.036 -1.825,-2.239 -2.364,-3.607c-0.539,-1.366 -0.808,-2.836 -0.808,-4.406c0,-1.593 0.272,-3.072 0.817,-4.44c0.544,-1.367 1.341,-2.563 2.389,-3.589c1.045,-1.026 2.231,-1.813 3.556,-2.364c1.324,-0.551 2.713,-0.825 4.166,-0.825c1.165,0 2.298,0.182 3.399,0.544c1.1,0.363 2.13,0.893 3.092,1.586c1.442,1.048 2.548,2.355 3.318,3.919c0.77,1.566 1.154,3.289 1.154,5.169c0,1.581 -0.275,3.053 -0.825,4.415c-0.552,1.362 -1.351,2.562 -2.396,3.598c-1.059,1.047 -2.244,1.84 -3.559,2.379c-1.314,0.539 -2.708,0.811 -4.183,0.811" style="fill:rgb(20,111,148);fill-rule:nonzero;"/>        </g>        <g transform="matrix(38.678,0,0,38.678,718.25,265.221)">            <path d="M-0.532,-1.015c-0.133,0.128 -0.2,0.292 -0.2,0.493c0,0.146 0.039,0.267 0.116,0.362c0.078,0.096 0.21,0.181 0.395,0.257l0.005,0.002c0.344,0.142 0.516,0.31 0.516,0.504c0,0.122 -0.038,0.222 -0.115,0.3c-0.077,0.077 -0.177,0.116 -0.301,0.116c-0.091,0 -0.175,-0.027 -0.254,-0.081c-0.079,-0.054 -0.144,-0.129 -0.195,-0.226l-0.17,0.121c0.085,0.128 0.185,0.222 0.3,0.283c0.115,0.061 0.252,0.091 0.411,0.091c0.22,0 0.401,-0.067 0.545,-0.202c0.143,-0.134 0.214,-0.305 0.214,-0.512c0,-0.157 -0.04,-0.285 -0.121,-0.385c-0.081,-0.1 -0.249,-0.205 -0.504,-0.314c-0.161,-0.07 -0.271,-0.136 -0.329,-0.201c-0.059,-0.064 -0.088,-0.143 -0.088,-0.235c0,-0.116 0.035,-0.21 0.107,-0.282c0.071,-0.072 0.163,-0.108 0.274,-0.108c0.105,0 0.195,0.029 0.271,0.088c0.076,0.058 0.133,0.141 0.171,0.249l0.152,-0.102c-0.058,-0.131 -0.146,-0.232 -0.265,-0.304c-0.119,-0.071 -0.258,-0.107 -0.417,-0.107c-0.212,0 -0.384,0.064 -0.518,0.193Z" style="fill:url(#_Radial7);fill-rule:nonzero;"/>        </g>        <g transform="matrix(43.2063,0,0,43.2063,796.696,265.221)">            <path d="M-0.625,-0.773c-0.192,0.206 -0.288,0.462 -0.288,0.77c0,0.317 0.093,0.576 0.281,0.779c0.188,0.203 0.423,0.305 0.706,0.305c0.191,0 0.358,-0.047 0.502,-0.14c0.144,-0.093 0.256,-0.227 0.336,-0.401l-0.125,-0.08c-0.068,0.148 -0.156,0.26 -0.264,0.337c-0.107,0.077 -0.231,0.115 -0.37,0.115c-0.208,0 -0.37,-0.078 -0.485,-0.236c-0.116,-0.158 -0.173,-0.379 -0.173,-0.665c0,-0.295 0.06,-0.529 0.181,-0.7c0.121,-0.171 0.286,-0.256 0.493,-0.256c0.123,0 0.232,0.031 0.326,0.094c0.095,0.063 0.174,0.157 0.238,0.283l0.124,-0.087c-0.084,-0.142 -0.189,-0.248 -0.317,-0.32c-0.127,-0.071 -0.277,-0.106 -0.45,-0.106c-0.285,0 -0.523,0.103 -0.715,0.308Z" style="fill:url(#_Radial8);fill-rule:nonzero;"/>        </g>        <g transform="matrix(46.1533,0,0,46.1533,888.971,265.195)">            <path d="M-0.377,-0.937c-0.12,0.05 -0.227,0.121 -0.321,0.213c-0.095,0.093 -0.167,0.201 -0.216,0.324c-0.049,0.124 -0.074,0.257 -0.074,0.401c0,0.142 0.024,0.275 0.073,0.398c0.049,0.123 0.12,0.232 0.214,0.325c0.094,0.095 0.201,0.167 0.319,0.215c0.119,0.049 0.246,0.073 0.381,0.073c0.133,0 0.259,-0.024 0.377,-0.073c0.119,-0.048 0.226,-0.12 0.322,-0.215c0.094,-0.093 0.166,-0.201 0.216,-0.324c0.05,-0.123 0.074,-0.256 0.074,-0.399c0,-0.17 -0.034,-0.325 -0.104,-0.466c-0.069,-0.142 -0.169,-0.26 -0.299,-0.354c-0.087,-0.063 -0.18,-0.111 -0.279,-0.144c-0.1,-0.032 -0.202,-0.049 -0.307,-0.049c-0.131,0 -0.257,0.025 -0.376,0.075Zm-0.059,1.579c-0.113,-0.164 -0.17,-0.378 -0.17,-0.641c0,-0.264 0.057,-0.478 0.17,-0.642c0.113,-0.164 0.258,-0.246 0.435,-0.246c0.177,0 0.323,0.082 0.435,0.246c0.113,0.164 0.17,0.378 0.17,0.642c0,0.264 -0.057,0.478 -0.17,0.642c-0.114,0.163 -0.259,0.245 -0.435,0.245c-0.177,0 -0.322,-0.082 -0.435,-0.246Z" style="fill:url(#_Radial9);fill-rule:nonzero;"/>        </g>        <g transform="matrix(39.2643,0,0,39.2643,982.433,266.226)">            <path d="M0.6,-1.166l0,1.372c0,0.268 -0.038,0.454 -0.112,0.559c-0.074,0.105 -0.2,0.157 -0.378,0.157c-0.178,0 -0.305,-0.052 -0.379,-0.157c-0.075,-0.105 -0.113,-0.291 -0.113,-0.559l0,-1.372l-0.421,0l0,1.449c0,0.166 0.014,0.297 0.044,0.39c0.029,0.094 0.079,0.177 0.148,0.249c0.07,0.075 0.16,0.134 0.269,0.177c0.11,0.043 0.224,0.065 0.343,0.065c0.267,0 0.468,-0.073 0.601,-0.22c0.133,-0.147 0.2,-0.368 0.2,-0.661l0,-1.449l-0.202,0Z" style="fill:url(#_Radial10);fill-rule:nonzero;"/>        </g>        <g transform="matrix(38.6773,0,0,38.6773,1056.73,265.085)">            <path d="M-0.817,-1.154l0,0.172l0.604,0l0,2.136l0.425,0l0,-2.136l0.604,0l0,-0.172l-1.633,0Z" style="fill:url(#_Radial11);fill-rule:nonzero;"/>        </g>    </g>    <defs>        <radialGradient id="_Radial1" cx="0" cy="0" r="1" gradientUnits="userSpaceOnUse" gradientTransform="matrix(1,0,0,-1,0,0.000763489)"><stop offset="0" style="stop-color:rgb(100,143,162);stop-opacity:1"/><stop offset="1" style="stop-color:rgb(20,111,148);stop-opacity:1"/></radialGradient>        <linearGradient id="_Linear2" x1="0" y1="0" x2="1" y2="0" gradientUnits="userSpaceOnUse" gradientTransform="matrix(-1,0.000102232,0.000102232,1,1.17044,-5.98285e-05)"><stop offset="0" style="stop-color:rgb(100,143,162);stop-opacity:1"/><stop offset="1" style="stop-color:rgb(0,70,123);stop-opacity:1"/></linearGradient>        <linearGradient id="_Linear3" x1="0" y1="0" x2="1" y2="1.36883e-06" gradientUnits="userSpaceOnUse" gradientTransform="matrix(1,-5.49154e-05,-5.49154e-05,-1,5.31024e-08,0.00193397)"><stop offset="0" style="stop-color:rgb(100,143,162);stop-opacity:1"/><stop offset="1" style="stop-color:rgb(0,70,123);stop-opacity:1"/></linearGradient>        <radialGradient id="_Radial4" cx="0" cy="0" r="1" gradientUnits="userSpaceOnUse" gradientTransform="matrix(1,0,0,-1,0,0.000763489)"><stop offset="0" style="stop-color:rgb(103,158,97);stop-opacity:1"/><stop offset="1" style="stop-color:rgb(39,138,68);stop-opacity:1"/></radialGradient>        <linearGradient id="_Linear5" x1="0" y1="0" x2="1" y2="0" gradientUnits="userSpaceOnUse" gradientTransform="matrix(-1,2.391e-05,2.391e-05,1,0.877147,-1.04863e-05)"><stop offset="0" style="stop-color:rgb(103,158,97);stop-opacity:1"/><stop offset="1" style="stop-color:rgb(27,102,42);stop-opacity:1"/></linearGradient>        <linearGradient id="_Linear6" x1="0" y1="0" x2="1" y2="1.26437e-06" gradientUnits="userSpaceOnUse" gradientTransform="matrix(1,0,0,-1,0,0.00153637)"><stop offset="0" style="stop-color:rgb(103,158,97);stop-opacity:1"/><stop offset="1" style="stop-color:rgb(27,102,42);stop-opacity:1"/></linearGradient>        <radialGradient id="_Radial7" cx="0" cy="0" r="1" gradientUnits="userSpaceOnUse" gradientTransform="matrix(1,0,0,-1,0,-0.000409363)"><stop offset="0" style="stop-color:rgb(103,158,97);stop-opacity:1"/><stop offset="1" style="stop-color:rgb(39,138,68);stop-opacity:1"/></radialGradient>        <radialGradient id="_Radial8" cx="0" cy="0" r="1" gradientUnits="userSpaceOnUse" gradientTransform="matrix(1,0,0,-1,0,-0.000366459)"><stop offset="0" style="stop-color:rgb(103,158,97);stop-opacity:1"/><stop offset="1" style="stop-color:rgb(39,138,68);stop-opacity:1"/></radialGradient>        <radialGradient id="_Radial9" cx="0" cy="0" r="1" gradientUnits="userSpaceOnUse" gradientTransform="matrix(1,0,0,-1,0,0.000758342)"><stop offset="0" style="stop-color:rgb(103,158,97);stop-opacity:1"/><stop offset="1" style="stop-color:rgb(39,138,68);stop-opacity:1"/></radialGradient>        <radialGradient id="_Radial10" cx="0" cy="0" r="1" gradientUnits="userSpaceOnUse" gradientTransform="matrix(1,0,0,-1,0,-0.00214359)"><stop offset="0" style="stop-color:rgb(103,158,97);stop-opacity:1"/><stop offset="1" style="stop-color:rgb(39,138,68);stop-opacity:1"/></radialGradient>        <radialGradient id="_Radial11" cx="0" cy="0" r="1" gradientUnits="userSpaceOnUse" gradientTransform="matrix(1,0,0,-1,0,-0.000172367)"><stop offset="0" style="stop-color:rgb(103,158,97);stop-opacity:1"/><stop offset="1" style="stop-color:rgb(39,138,68);stop-opacity:1"/></radialGradient>    </defs></svg>