<?xml version="1.0" encoding="UTF-8" standalone="no"?><!DOCTYPE svg PUBLIC "-//W3C//DTD SVG 1.1//EN" "http://www.w3.org/Graphics/SVG/1.1/DTD/svg11.dtd"><svg width="100%" height="100%" viewBox="0 0 1024 512" version="1.1" xmlns="http://www.w3.org/2000/svg" xmlns:xlink="http://www.w3.org/1999/xlink" xml:space="preserve" style="fill-rule:evenodd;clip-rule:evenodd;stroke-linejoin:round;stroke-miterlimit:2;"><title>Daisycon</title><desc></desc>    <g id="svg-logo-big" transform="matrix(2.09807,0,0,2.09807,2.01673,46.0153)">        <g>            <path d="M133.1,4.2c3.8,1.5 0.7,18.6 -7.1,38.1c-7.7,19.5 -17.1,34.1 -21,32.6c-3.8,-1.5 -0.7,-18.6 7.1,-38.1c7.8,-19.6 17.2,-34.1 21,-32.6" style="fill:rgb(156,209,55);fill-rule:nonzero;"/>            <path d="M85.1,0c4.2,-0.9 9,14.8 10.8,35c1.8,20.2 -0.2,37.4 -4.4,38.3c-4.2,0.9 -9,-14.8 -10.8,-35c-1.7,-20.2 0.2,-37.4 4.4,-38.3" style="fill:rgb(156,209,55);fill-rule:nonzero;"/>            <path d="M39.4,24.1c3.4,-3.1 15,7.1 25.8,22.6c10.8,15.6 16.8,30.7 13.4,33.8c-3.4,3.1 -15,-7.1 -25.8,-22.6c-10.8,-15.6 -16.8,-30.7 -13.4,-33.8" style="fill:rgb(156,209,55);fill-rule:nonzero;"/>            <path d="M8.1,68.5c1.7,-4.4 16.9,-2.6 33.9,4.2c17,6.7 29.3,15.7 27.5,20.1c-1.8,4.4 -16.9,2.5 -33.9,-4.2c-16.9,-6.7 -29.3,-15.7 -27.5,-20.1" style="fill:rgb(156,209,55);fill-rule:nonzero;"/>            <path d="M0,122.1c-0.4,-4.6 14.3,-11.5 32.9,-15.4c18.6,-3.9 33.9,-3.4 34.3,1.2c0.4,4.6 -14.3,11.5 -32.9,15.4c-18.5,3.9 -33.9,3.4 -34.3,-1.2" style="fill:rgb(156,209,55);fill-rule:nonzero;"/>            <path d="M17,170.8c-2.4,-3.5 7.9,-17.3 23.1,-30.9c15.2,-13.5 29.5,-21.6 31.9,-18.1c2.4,3.5 -7.9,17.3 -23.1,30.9c-15.2,13.5 -29.5,21.6 -31.9,18.1" style="fill:rgb(156,209,55);fill-rule:nonzero;"/>            <path d="M55.2,200.1c-3.8,-1.5 -0.7,-18.6 7.1,-38.1c7.7,-19.5 17.1,-34.1 21,-32.6c3.8,1.5 0.7,18.6 -7.1,38.1c-7.8,19.5 -17.2,34.1 -21,32.6" style="fill:rgb(156,209,55);fill-rule:nonzero;"/>        </g>        <g>            <path d="M133.8,111.4c-2.5,1.5 -5.6,2.5 -8.6,2.5c-7,0 -8.6,-4.3 -7.8,-9.1c1,-5.5 5,-10.1 12.3,-10.1c2.3,0 5.6,0.6 7,2l-2.9,14.7Zm22.9,-42l-15.2,0l-3.4,18.2c-2.8,-1.2 -6.3,-1.9 -10,-1.9c-14.6,0 -24.7,9.1 -26.7,20.3c-1.5,8.8 3.8,18.2 17.6,18.2c5.1,-0.2 9.8,-1.8 13.4,-3.9l-0.4,2.6l14.9,0l9.8,-53.5Z" style="fill-rule:nonzero;"/>            <path d="M183.8,113.7c-0.1,0.8 -3.6,2.4 -6.7,2.4c-2.5,0 -5.3,-1.2 -4.9,-3.6c0.7,-4 6.1,-5.6 10.1,-5.8c1.3,-0.1 2.1,-0.2 2.8,-0.3l-1.3,7.3Zm-15.5,-15.1c4.4,-1.6 9,-3.9 13.8,-3.9c3,0 4.8,1.4 4.3,4.2l-0.2,1.4c-4.3,0.3 -8.8,0.9 -11.7,1.4c-10.1,2 -15.8,4.8 -17.1,12.2c-1.1,6.5 4.2,10.4 12.5,10.4c4.8,0 10,-1.7 13.9,-3.9c0.2,2.6 2.8,3.9 7.1,3.9c2.7,0 10.2,-0.9 12.5,-2.2l-0.5,-6.8c-0.5,0.3 -1.3,0.4 -2,0.4c-2,0 -2.4,-1.1 -2.2,-2.4l3,-17.4c1.2,-6.8 -3.7,-10.1 -12.1,-10.1c-9.3,0 -16.7,2.2 -25.3,6l4,6.8Z" style="fill-rule:nonzero;"/>            <path d="M217.6,81.2l15.7,0l1.8,-10.3l-15.7,0l-1.8,10.3Zm-7.6,41.7l15.7,0l6.7,-36l-15.7,0l-6.7,36Z" style="fill-rule:nonzero;"/>            <path d="M234.4,121.8c2,0.9 9.4,2.4 16.2,2.4c11,0 21.7,-2.9 23.4,-12.2c1.4,-8 -4.7,-10.3 -13.3,-11.7c-4.8,-0.8 -5.5,-1.7 -5.2,-3.2c0.4,-2.1 3.8,-2.9 6.3,-2.9c4.4,0 7.9,0.9 10.8,1.5l4.2,-7.7c-1.6,-0.9 -8,-2.4 -15.8,-2.4c-9.6,0 -20.5,3.3 -22,11.9c-1.2,6.7 3,9.6 10.4,11.3c7.6,1.8 8.4,2.4 8.1,3.9c-0.3,1.8 -3.5,2.9 -5.7,2.9c-3.9,0 -9.4,-1 -12.5,-2l-4.9,8.2Z" style="fill-rule:nonzero;"/>            <path d="M290.6,125.4c-0.5,1.4 -2.7,3.9 -4,5.1c-1.9,1.6 -4.5,1.9 -6.9,1.9c-1.3,0 -2.5,-0.1 -3.7,-0.3l-1.5,8.6c2.6,0.2 5.3,0.2 8.1,0.2c12.2,0 16.2,-3.4 21.7,-11.8l26.4,-42.2l-16.2,0l-12.3,22.3l-0.2,0l-3.4,-22.3l-16.6,0l8.6,38.5Z" style="fill-rule:nonzero;"/>            <path d="M366.7,112.3c-2.7,1 -5.9,2.1 -8.9,2.1c-6.7,0 -11,-4.1 -10.1,-9.2c1,-5.9 6.9,-9.6 14.8,-9.6c2.5,0 4.9,0.6 7.2,1.4l6.5,-8.1c-3.2,-1.8 -9.5,-3.1 -14.9,-3.1c-15.5,0 -27.2,8 -29.4,20.1c-2.1,11.8 7.2,18.4 21.6,18.4c5.2,0 12.7,-1.6 17.4,-3.7l-4.2,-8.3Z" style="fill-rule:nonzero;"/>            <path d="M394.6,104.9c0.8,-4.7 4,-9.8 11.5,-9.8c7.5,0 8.9,5.1 8,9.8c-0.8,4.7 -4,9.8 -11.5,9.8c-7.4,0.1 -8.8,-5.1 -8,-9.8m-15.7,0c-1.9,10.8 5.3,19.3 22.1,19.3c16.8,0 27,-8.4 28.9,-19.3c1.9,-10.8 -5.3,-19.3 -22.1,-19.3c-16.8,0.1 -27,8.5 -28.9,19.3" style="fill-rule:nonzero;"/>            <path d="M436.1,122.9l15.7,0l4.4,-23.3c2.4,-1.6 6.3,-3.3 8.8,-3.3c4.7,0 5.3,2.3 4.8,5.2c-1.3,7.4 -2.6,14.4 -3.9,21.3l15.7,0c1.5,-7.9 3,-15.8 4.2,-23.2c1.7,-9.8 -2.8,-14.1 -12.4,-14.1c-5.6,0 -11.5,2.4 -15.6,5.2l0.7,-3.9l-15.7,0l-6.7,36.1Z" style="fill-rule:nonzero;"/>        </g>    </g></svg>