<?xml version="1.0" encoding="UTF-8" standalone="no"?><!DOCTYPE svg PUBLIC "-//W3C//DTD SVG 1.1//EN" "http://www.w3.org/Graphics/SVG/1.1/DTD/svg11.dtd"><svg width="100%" height="100%" viewBox="0 0 1024 512" version="1.1" xmlns="http://www.w3.org/2000/svg" xmlns:xlink="http://www.w3.org/1999/xlink" xml:space="preserve" style="fill-rule:evenodd;clip-rule:evenodd;stroke-linejoin:round;stroke-miterlimit:2;"><title>Revolut</title><desc></desc>    <g>        <g>            <path d="M856.858,345.11c-6.592,9.687 -20.333,15.961 -36.944,15.961c-1.751,0 -3.508,-0.07 -5.236,-0.235c-1.701,-0.163 -3.388,-0.445 -5.05,-0.84c-1.599,-0.38 -3.157,-0.919 -4.649,-1.608c-7.294,-3.418 -12.012,-10.743 -9.687,-25.535l0.291,-2.571c-0.77,1.493 -1.586,2.928 -2.448,4.303c-1.664,2.655 -3.547,5.167 -5.628,7.513c-1.96,2.21 -4.092,4.263 -6.376,6.141c-1.108,0.917 -2.236,1.78 -3.387,2.589c-2.235,1.577 -4.574,3.001 -7.003,4.263c-4.429,2.306 -9.121,4.074 -13.976,5.268c-2.123,0.519 -4.274,0.92 -6.442,1.203c-1.895,0.244 -3.801,0.369 -5.712,0.374c-1.233,0 -2.413,-0.068 -3.558,-0.182c-0.417,-0.037 -0.819,-0.107 -1.229,-0.154c-0.683,-0.093 -1.351,-0.2 -2,-0.331c-0.499,-0.101 -0.977,-0.219 -1.451,-0.343c-0.475,-0.125 -0.96,-0.27 -1.423,-0.422c-0.536,-0.166 -1.07,-0.341 -1.583,-0.548c-0.258,-0.097 -0.498,-0.235 -0.749,-0.335c-12.28,-5.415 -16.054,-20.065 -12.908,-39.316l8.589,-54.749c0.256,-1.582 0.473,-3.086 0.711,-4.57c0.081,-0.572 0.161,-1.133 0.237,-1.686c0.122,-0.877 0.238,-1.732 0.346,-2.589c0.093,-0.706 0.181,-1.412 0.263,-2.103c0.072,-0.642 0.14,-1.276 0.207,-1.904c0.32,-2.967 0.548,-5.912 0.684,-8.904c0.016,-0.306 0.038,-0.617 0.047,-0.926c0.038,-1.003 0.067,-2.028 0.082,-3.06c0,-0.32 0,-0.638 0.015,-0.962c0.014,-1.093 0.026,-2.191 0.014,-3.324c-0.029,-3 -0.116,-6.15 -0.306,-9.622c0.612,-0.152 1.291,-0.302 2.019,-0.455c0.607,-0.13 1.25,-0.254 1.926,-0.386l0.89,-0.149c0.474,-0.083 0.949,-0.174 1.439,-0.254c0.342,-0.054 0.712,-0.108 1.058,-0.159c0.496,-0.076 0.994,-0.161 1.519,-0.236c0.372,-0.047 0.77,-0.104 1.159,-0.155c0.527,-0.079 1.053,-0.151 1.606,-0.236c0.42,-0.055 0.854,-0.106 1.286,-0.155c0.553,-0.071 1.105,-0.144 1.681,-0.21c0.454,-0.052 0.916,-0.106 1.381,-0.153c0.578,-0.07 1.158,-0.132 1.749,-0.198l1.501,-0.146c0.591,-0.064 1.186,-0.117 1.781,-0.174l1.588,-0.149c0.612,-0.058 1.238,-0.109 1.863,-0.157c0.536,-0.045 1.075,-0.092 1.619,-0.134l1.951,-0.144l1.661,-0.123c0.667,-0.042 1.34,-0.077 2.019,-0.119l1.674,-0.109c0.711,-0.037 1.424,-0.07 2.135,-0.111c0.543,-0.026 1.082,-0.059 1.624,-0.077c0.755,-0.04 1.519,-0.068 2.278,-0.099c0.522,-0.016 1.039,-0.045 1.558,-0.063c0.788,-0.029 1.578,-0.046 2.372,-0.071c0.515,-0.019 1.03,-0.034 1.542,-0.047c0.838,-0.022 1.677,-0.035 2.514,-0.047c0.475,0 0.93,-0.022 1.393,-0.022c1.305,-0.018 2.609,-0.025 3.905,-0.025c0.286,11.968 -2.007,28.225 -4.296,43.342l-7.446,46.196c-0.141,0.856 -0.271,1.7 -0.39,2.53c-0.128,0.903 -0.061,1.79 -0.16,2.663c-0.206,2.113 -0.292,4.235 -0.259,6.356l0,0.071c-0.097,2.343 0.013,4.689 0.328,7.014c0.178,1.218 0.545,2.4 1.09,3.505c0.369,0.773 1.018,1.378 1.817,1.696c0.239,0.084 0.492,0.127 0.745,0.127c1.702,0 4.343,-1.726 7.377,-4.88c4.644,-5.083 8.543,-10.79 11.583,-16.952c1.252,-2.448 2.46,-5.071 3.58,-7.834c1.119,-2.765 2.156,-5.689 3.083,-8.742c0.457,-1.516 0.884,-3.068 1.28,-4.657l4.012,-26.239c0.572,-3.563 1.073,-6.951 1.516,-10.273c0.662,-4.973 1.186,-9.809 1.648,-14.861c0.463,-5.053 0.809,-10.336 1.135,-16.216c0.542,-0.085 1.128,-0.169 1.746,-0.251c0.205,-0.032 0.423,-0.062 0.638,-0.085l1.315,-0.17c0.291,-0.03 0.598,-0.062 0.903,-0.104c0.409,-0.044 0.829,-0.091 1.268,-0.132c0.337,-0.042 0.69,-0.077 1.041,-0.115c0.428,-0.044 0.862,-0.085 1.312,-0.129c0.396,-0.043 0.795,-0.079 1.208,-0.115c0.412,-0.038 0.834,-0.074 1.262,-0.117c0.473,-0.039 0.948,-0.074 1.423,-0.119c0.384,-0.031 0.783,-0.059 1.186,-0.094c0.548,-0.043 1.09,-0.088 1.66,-0.125c0.316,-0.027 0.639,0.706 0.948,0.68c2.486,-0.178 5.124,0.258 7.902,0.258c0.861,0 1.744,-0.836 2.624,-0.882c0.218,0 0.426,-0.395 0.642,-0.407c0.868,-0.038 1.751,-0.261 2.635,-0.302c0.238,-0.013 0.475,-0.118 0.698,-0.127c0.873,-0.035 1.755,-0.11 2.642,-0.144c0.279,0 0.553,-0.044 0.83,-0.048c0.888,-0.031 1.783,-0.069 2.684,-0.097c0.256,0 0.514,-0.021 0.773,-0.031c0.949,-0.021 1.881,-0.049 2.835,-0.071c0.204,0 0.405,-0.586 0.604,-0.592c1.013,-0.017 2.025,-0.634 3.045,-0.634c2.442,0 4.907,0.516 7.399,0.516c-0.691,14.621 -2.223,29.192 -4.587,43.64l-10.305,64.883c-1.714,10.549 2.579,15.832 10.602,15.832l-0.008,0.003Z" style="fill:white;"/>            <path d="M948.872,246.983l-10.605,67.299c-0.169,1.435 -0.224,1.741 -0.25,2.07c-0.049,0.765 -0.087,1.392 -0.096,2.006c-0.161,9.257 4.255,16.48 11.518,16.48c11.17,0 13.758,-8.845 18.039,-8.845c3.411,0.234 6.684,1.418 9.446,3.418l6.857,4.264c-7.709,14.552 -26.609,28.24 -47.222,28.24c-30.83,0.016 -48.713,-13.522 -49.82,-34.298c-0.151,-3.117 0.036,-6.239 0.559,-9.315l10.883,-67.568c-1.959,0.268 -3.043,0.43 -4.131,0.602c-2.47,0.431 -3.642,0.645 -4.828,0.878c-1.734,0.337 -3.501,0.706 -5.351,1.109c-1.41,-9.735 -1.374,-19.622 0.105,-29.346c2.338,-0.111 4.176,-0.256 7.533,-0.394c1.717,-0.065 2.643,-0.117 3.615,-0.159c1.054,-0.047 2.066,0.094 3.15,0.065c1.143,-0.042 2.305,0.114 3.482,0.114c0.857,0 1.993,-0.236 2.801,-0.236c3.718,-10.137 9.736,-18.605 11.75,-30.584c3.434,-0.532 7.251,-1.09 11.841,-1.564c2.027,-0.216 3.282,-0.344 4.658,-0.454c1.661,-0.146 3.371,-0.268 5.171,-0.385c5.397,-0.338 11.398,-0.555 18.059,-0.555c-0.285,9.128 -1.44,20.405 -3.162,33.769l9.448,0c14.889,0 20.788,-1.839 25.656,-5.257c2.677,4.757 4.114,10.103 4.182,15.552c-0.021,7.281 -2.306,12.415 -25.553,13.035c-1.562,0.038 -3.386,0.059 -5.141,0.059l-12.594,0Z" style="fill:white;"/>            <path d="M710.017,171.974c-0.824,7.452 -1.969,15.302 -3.255,22.836l-6.076,38.598l-15.115,96.008c-0.174,1.091 -0.278,2.192 -0.314,3.295c0,0.236 -0.015,0.495 -0.02,0.735c-0.011,0.909 0.048,1.818 0.175,2.718c0.023,0.195 0.073,0.357 0.11,0.539c0.117,0.639 0.286,1.269 0.502,1.883c0.081,0.235 0.149,0.459 0.238,0.67c0.255,0.609 0.574,1.188 0.948,1.732c0.149,0.209 0.318,0.4 0.475,0.595c0.289,0.353 0.605,0.681 0.948,0.982c0.18,0.157 0.351,0.333 0.544,0.471c2.126,1.453 4.669,2.182 7.248,2.079c-2.155,3.044 -4.859,5.666 -7.974,7.735c-0.387,0.261 -0.772,0.528 -1.168,0.787c-0.766,0.487 -1.556,0.942 -2.372,1.395c-0.522,0.279 -1.065,0.542 -1.606,0.803c-0.791,0.387 -1.569,0.78 -2.4,1.124c-1.305,0.544 -2.652,1.041 -4.049,1.48c-0.616,0.194 -1.266,0.344 -1.898,0.519c-1.026,0.28 -2.056,0.551 -3.127,0.774c-0.659,0.144 -1.323,0.257 -1.999,0.374c-1.164,0.208 -2.347,0.374 -3.558,0.514c-0.593,0.068 -1.185,0.148 -1.779,0.195c-1.827,0.16 -3.684,0.262 -5.584,0.262c-0.789,0 -1.586,-0.017 -2.372,-0.05c-0.291,-0.014 -0.586,-0.041 -0.877,-0.056c-0.498,-0.032 -1.003,-0.071 -1.499,-0.111c-0.361,-0.033 -0.713,-0.083 -1.072,-0.127c-0.428,-0.047 -0.851,-0.104 -1.274,-0.162c-0.422,-0.059 -0.788,-0.135 -1.186,-0.212c-0.399,-0.079 -0.745,-0.144 -1.115,-0.224c-0.418,-0.094 -0.826,-0.2 -1.236,-0.309c-0.327,-0.085 -0.645,-0.188 -0.965,-0.285c-0.432,-0.132 -0.866,-0.273 -1.286,-0.421c-0.265,-0.103 -0.521,-0.212 -0.786,-0.323c-0.455,-0.183 -0.91,-0.374 -1.347,-0.582c-0.163,-0.077 -0.317,-0.177 -0.474,-0.262c-2.329,-1.184 -4.352,-2.884 -5.914,-4.968c-0.09,-0.118 -0.183,-0.221 -0.262,-0.339c-0.344,-0.497 -0.661,-1.011 -0.95,-1.541c-0.094,-0.176 -0.189,-0.341 -0.282,-0.515c-0.27,-0.539 -0.519,-1.111 -0.747,-1.695c-0.081,-0.209 -0.16,-0.419 -0.237,-0.632c-0.212,-0.606 -0.401,-1.244 -0.562,-1.906c-0.058,-0.221 -0.102,-0.459 -0.15,-0.688c-0.149,-0.706 -0.28,-1.412 -0.374,-2.183c-0.024,-0.191 -0.034,-0.415 -0.058,-0.62c-0.08,-0.833 -0.149,-1.678 -0.163,-2.59c-0.033,-2.487 0.15,-4.971 0.548,-7.427l21.766,-137.177c0.284,-1.779 0.552,-3.492 0.802,-5.154c0.994,-6.228 1.641,-12.505 1.94,-18.804c0.191,-4.758 0.153,-9.799 -0.168,-15.677c0.805,-0.207 1.723,-0.407 2.73,-0.605c1.006,-0.198 2.099,-0.398 3.273,-0.593c1.807,-0.298 3.79,-0.588 5.949,-0.869c0.996,-0.134 2.026,-0.257 3.083,-0.38c3.177,-0.366 6.624,-0.706 10.262,-0.995c2.427,-0.195 4.936,-0.376 7.498,-0.52c6.404,-0.377 13.177,-0.601 19.892,-0.601c0,4.492 -0.282,9.587 -0.771,14.994c-0.161,1.802 -0.351,3.638 -0.553,5.501l0.043,0.005Z" style="fill:white;"/>            <path d="M437.555,329.419c-5.01,8.096 -9.136,16.698 -12.308,25.661c-9.726,5.135 -20.618,5.985 -31.499,5.985c-9.161,0 -17.463,-4.56 -22.041,-28.224l-13.456,-67.306c-2.732,-13.63 -6.958,-26.922 -12.603,-39.64c4.83,-1.145 9.726,-1.994 14.662,-2.542l0.03,0c1.125,-0.136 2.292,-0.273 3.49,-0.397c0.13,-0.02 0.261,-0.032 0.396,-0.045c1.136,-0.116 2.308,-0.235 3.513,-0.34c0.123,0 0.249,-0.025 0.372,-0.033c2.659,-0.235 5.456,-0.452 8.414,-0.629c0.156,0 0.327,-0.013 0.474,-0.024c1.234,-0.068 2.488,-0.133 3.762,-0.191c0.43,-0.02 0.868,-0.033 1.3,-0.057c1.044,-0.043 2.101,-0.082 3.172,-0.117c0.51,0 1.022,-0.034 1.539,-0.047c1.084,-0.029 2.189,-0.047 3.3,-0.071c0.474,0 0.948,-0.02 1.423,-0.024c1.584,-0.023 3.185,-0.035 4.82,-0.035c2.373,4.206 4.398,8.596 6.053,13.127c0.536,1.464 1.022,2.917 1.457,4.358c0.996,3.234 1.74,6.54 2.225,9.888l8.876,61.308c7.443,-14.545 14.604,-29.665 21.187,-44.774c4.374,-10.064 8.033,-20.421 10.949,-30.992c0.949,-3.53 1.785,-7.076 2.507,-10.639c3.262,-0.278 6.528,-0.501 9.783,-0.69c1.831,-0.099 3.66,-0.162 5.486,-0.235c1.376,-0.056 2.754,-0.132 4.13,-0.174c2.597,-0.093 5.185,-0.149 7.771,-0.191c0.548,0 1.098,-0.031 1.644,-0.035c3.084,-0.055 6.153,-0.079 9.213,-0.088l2.063,0c-0.868,9.087 -3.29,17.96 -7.161,26.239c-12.6,27.945 -28.346,54.187 -44.957,80.988l0.014,-0.014Z" style="fill:white;"/>            <path d="M604.238,329.734c-4.871,6.223 -10.624,11.714 -17.078,16.303c-0.011,0.008 -0.02,0.016 -0.032,0.022c-1.219,0.868 -2.463,1.695 -3.74,2.493c-0.159,0.105 -0.323,0.205 -0.474,0.313c-1.141,0.704 -2.299,1.385 -3.475,2.04c-0.238,0.121 -0.442,0.248 -0.66,0.365c-1.185,0.634 -2.371,1.25 -3.557,1.835c-0.204,0.099 -0.404,0.2 -0.611,0.292c-1.365,0.649 -2.755,1.273 -4.172,1.853c-0.024,0.017 -0.052,0.031 -0.081,0.041c-2.938,1.2 -5.939,2.238 -8.991,3.111c-0.381,0.115 -0.767,0.207 -1.147,0.306c-1.117,0.304 -2.244,0.598 -3.378,0.86c-0.514,0.117 -1.036,0.235 -1.56,0.333c-1.02,0.217 -2.048,0.418 -3.084,0.603c-0.576,0.104 -1.153,0.203 -1.734,0.293c-1.022,0.154 -2.045,0.294 -3.083,0.418c-0.582,0.073 -1.17,0.151 -1.758,0.215c-1.106,0.117 -2.217,0.195 -3.336,0.265c-0.513,0.038 -1.029,0.088 -1.553,0.118c-1.635,0.081 -3.281,0.128 -4.943,0.128c-2.014,0 -3.973,-0.088 -5.883,-0.25c-0.648,-0.055 -1.262,-0.155 -1.898,-0.235c-1.24,-0.141 -2.486,-0.273 -3.681,-0.471c-0.738,-0.129 -1.423,-0.314 -2.154,-0.471c-1.049,-0.222 -2.107,-0.44 -3.119,-0.707c-0.74,-0.207 -1.447,-0.451 -2.168,-0.687c-0.949,-0.297 -1.897,-0.588 -2.789,-0.941c-0.725,-0.281 -1.424,-0.594 -2.115,-0.897c-0.851,-0.368 -1.694,-0.742 -2.509,-1.15c-0.692,-0.348 -1.359,-0.729 -2.023,-1.103c-0.769,-0.439 -1.53,-0.882 -2.265,-1.353c-0.655,-0.423 -1.286,-0.863 -1.912,-1.318c-0.693,-0.498 -1.372,-1.005 -2.033,-1.532c-0.607,-0.492 -1.186,-1.003 -1.779,-1.519c-0.62,-0.558 -1.221,-1.127 -1.807,-1.715c-0.586,-0.59 -1.11,-1.124 -1.643,-1.715c-0.53,-0.591 -1.071,-1.243 -1.588,-1.883c-0.517,-0.641 -1.009,-1.253 -1.485,-1.908c-0.477,-0.654 -0.925,-1.344 -1.371,-2.038c-0.446,-0.695 -0.904,-1.372 -1.321,-2.098c-0.417,-0.724 -0.776,-1.433 -1.156,-2.159c-0.379,-0.724 -0.791,-1.506 -1.15,-2.3c-0.337,-0.736 -0.631,-1.518 -0.935,-2.278c-0.332,-0.82 -0.678,-1.637 -0.97,-2.489c-0.268,-0.775 -0.486,-1.579 -0.723,-2.368c-0.266,-0.9 -0.556,-1.778 -0.786,-2.699c-0.19,-0.768 -0.322,-1.586 -0.49,-2.375c-0.581,-2.737 -0.993,-5.508 -1.234,-8.294c-0.002,-0.027 -0.002,-0.051 0,-0.078c-0.166,-2.047 -0.256,-4.135 -0.256,-6.288c0,-30.052 13.771,-55.274 35.497,-70.505c3.519,-2.466 7.227,-4.656 11.09,-6.551c0.085,-0.047 0.171,-0.089 0.259,-0.127c3.829,-1.866 7.793,-3.447 11.859,-4.727l0.577,-0.182c1.984,-0.615 3.999,-1.153 6.047,-1.631c0.258,-0.059 0.516,-0.108 0.775,-0.164c1.897,-0.425 3.824,-0.797 5.776,-1.094c0.225,-0.035 0.443,-0.082 0.668,-0.112c2.029,-0.304 4.092,-0.53 6.169,-0.706l1.349,-0.094c2.113,-0.138 4.244,-0.236 6.404,-0.236c1.832,0 3.608,0.094 5.362,0.224c0.49,0.042 0.976,0.091 1.46,0.138c1.407,0.139 2.783,0.327 4.135,0.551c0.344,0.056 0.712,0.103 1.046,0.167c1.589,0.297 3.136,0.655 4.64,1.077c0.473,0.132 0.948,0.282 1.423,0.427c1.079,0.328 2.135,0.688 3.168,1.074c0.504,0.187 1.009,0.375 1.504,0.579c1.314,0.541 2.61,1.121 3.834,1.762c0.512,0.261 0.997,0.558 1.49,0.835c0.784,0.442 1.551,0.897 2.305,1.377c0.581,0.37 1.16,0.751 1.725,1.15c0.659,0.47 1.292,0.959 1.924,1.459c0.948,0.736 1.845,1.506 2.722,2.316c0.489,0.452 0.977,0.896 1.443,1.368c0.592,0.591 1.162,1.205 1.722,1.841c0.353,0.394 0.697,0.808 1.038,1.217c1.286,1.541 2.474,3.159 3.558,4.843c0,0.019 0.027,0.038 0.036,0.057c0.523,0.819 1.004,1.669 1.476,2.526c0.211,0.384 0.417,0.767 0.624,1.154c4.534,9.059 6.805,19.066 6.625,29.179c0.246,19.463 -6.092,38.446 -17.999,53.913l-0.041,0.007Zm-43.873,-80.938c-0.301,-0.257 -0.626,-0.48 -0.973,-0.671c-0.654,-0.357 -1.387,-0.546 -2.134,-0.547c-1.565,0.055 -3.067,0.637 -4.255,1.649c-0.485,0.381 -0.942,0.795 -1.367,1.24c-0.392,0.405 -0.764,0.83 -1.11,1.273c-2.592,3.533 -4.618,7.441 -6.004,11.589c-0.294,0.807 -0.583,1.648 -0.861,2.489c-0.894,2.724 -1.71,5.68 -2.429,8.787c-0.536,2.356 -1.025,4.766 -1.449,7.262c-1.315,7.797 -1.982,15.688 -1.993,23.595c-0.018,3.983 0.193,7.964 0.632,11.923c0.102,0.897 0.22,1.759 0.35,2.591c0.331,2.263 0.829,4.5 1.49,6.69c0.362,1.183 0.811,2.337 1.345,3.454c1.487,3.023 3.38,4.709 5.631,4.709c0.878,-0.037 1.737,-0.268 2.512,-0.679c1.132,-0.549 2.15,-1.303 3.006,-2.219c3.424,-3.589 6.546,-10.277 8.97,-18.6c0.594,-2.038 1.146,-4.157 1.644,-6.375c0.598,-2.633 1.125,-5.365 1.58,-8.195c0.582,-3.614 1.039,-7.343 1.336,-11.14c0.28,-3.532 0.427,-7.11 0.427,-10.672c0.292,-7.802 -0.76,-15.596 -3.11,-23.047c-0.65,-1.935 -1.759,-3.688 -3.235,-5.109l-0.003,0.003Z" style="fill:white;"/>            <path d="M260.024,303.768c0.018,1.05 0.06,2.084 0.126,3.106c0.982,15.359 7.41,28.114 21.635,28.114c1.07,-0.005 2.138,-0.065 3.2,-0.18c13.476,-1.424 21.38,-11.381 28.292,-11.381c3.252,0.353 6.383,1.427 9.161,3.142l6.878,4.568c-0.011,0.009 -0.019,0.022 -0.023,0.035c-4.812,6.922 -10.943,12.841 -18.047,17.421c-13.883,8.911 -30.107,13.556 -46.639,13.352c-35.393,0 -56.763,-19.859 -58.781,-51.721c-0.038,-0.525 0.69,-1.055 0.661,-1.582c-0.045,-1.14 0.593,-2.256 0.593,-3.43l0,-0.114c0,-40.171 25.099,-84.537 83.734,-84.537c8.477,-0.155 16.917,1.167 24.934,3.906c-0.004,0.017 -0.011,0.034 -0.021,0.049c14.097,5.105 22.269,14.978 22.269,28.624c0,16.056 -10.323,45.577 -63.213,50.042l0,-0.002l-0.431,0.035c-1.846,0.144 -3.748,0.271 -5.693,0.356c-0.418,0.014 -0.826,0.044 -1.246,0.059c-2.208,0.085 -4.468,0.138 -6.81,0.138l-0.579,0Zm19.764,-57.002l-0.012,0l0.002,0c-8.584,0.014 -14.596,16.914 -17.74,30.277l4.581,0c10.88,0 19.182,-7.014 20.613,-15.569c0.16,-1.159 0.239,-2.327 0.237,-3.496c0.109,-2.699 -0.56,-5.373 -1.931,-7.706c-1.187,-2.072 -3.361,-3.396 -5.76,-3.506l0.01,0Z" style="fill:white;"/>            <path d="M92.506,287.043l-6.879,43.141c-0.824,4.821 -1.349,9.688 -1.57,14.575l0,1.321c-0.049,2.776 0.569,5.524 1.803,8.016c0.021,0.039 0.038,0.077 0.057,0.118c-11.74,5.415 -28.057,6.827 -37.509,6.827c-8.16,0 -15.746,-2.646 -16.13,-16.716c-0.046,-3.858 0.272,-7.71 0.948,-11.509l20.042,-128.322c1.762,-9.595 2.679,-19.323 2.74,-29.074c-0.064,9.697 -0.981,19.372 -2.74,28.91c1.76,-9.738 2.677,-19.607 2.74,-29.501c-0.019,-3.357 0.106,-4.751 -0.183,-11.432l0.28,0l0,1.177c6.708,-1.869 29.491,-4.21 50.273,-4.49c1.388,-0.023 2.502,-0.031 3.878,-0.031l19.472,0c13.81,-0.33 27.508,2.519 40.024,8.321c3.486,1.709 6.792,3.759 9.867,6.121c2.913,2.238 5.566,4.79 7.911,7.608c3.439,4.13 6.112,8.834 7.894,13.891c1.844,5.3 2.769,10.873 2.735,16.48c0,1.619 -0.061,3.225 -0.178,4.805l-0.002,0.059c-1.758,23.779 -16.536,43.368 -39.613,55.399l20.613,55.326c6.011,15.123 9.448,21.212 16.317,26.054c-1.625,0.855 -3.305,1.605 -5.029,2.241c-10.363,3.488 -21.248,5.205 -32.19,5.081c-10.596,0 -25.486,-2.46 -34.364,-29.264l-15.748,-45.132l-15.459,0Zm27.198,-96.869l-11.742,0c-1.042,4.722 -1.805,9.498 -2.286,14.308l-8.592,52.521l14.315,0c18.614,0 32.64,-15.738 32.64,-39.121c0,-17.111 -9.445,-27.707 -24.335,-27.708Z" style="fill:white;"/>        </g>        <g transform="matrix(13.0769,0,0,13.0769,-834.923,-8923.16)">            <path d="M72.002,694.604c-1.589,0.022 -3.352,0.201 -3.865,0.344c0.513,-0.144 2.276,-0.323 3.865,-0.344l0,0Zm50.757,12.412c0.002,-0.149 0.013,-0.313 0.032,-0.486c-0.019,0.174 -0.03,0.337 -0.032,0.486Zm0.127,0.81c-0.045,-0.084 -0.075,-0.175 -0.091,-0.268c0.016,0.093 0.046,0.184 0.091,0.268Zm-49.885,-10.924l-0.898,0c-0.08,0.361 -0.138,0.727 -0.175,1.094l-0.657,4.017l1.095,0c1.423,0 2.496,-1.204 2.496,-2.992c0,-1.308 -0.723,-2.119 -1.861,-2.119Zm12.242,4.328c-0.657,0 -1.117,1.293 -1.358,2.315l0.351,0c0.832,0 1.466,-0.536 1.576,-1.19c0.012,-0.089 0.018,-0.178 0.018,-0.268c0.008,-0.206 -0.043,-0.411 -0.148,-0.589c-0.09,-0.158 -0.257,-0.26 -0.44,-0.268l0.001,0Zm21.456,0.155c-0.023,-0.019 -0.048,-0.036 -0.075,-0.051c-0.05,-0.027 -0.106,-0.042 -0.163,-0.042c-0.12,0.004 -0.235,0.049 -0.325,0.126c-0.038,0.029 -0.072,0.061 -0.105,0.095c-0.03,0.031 -0.058,0.064 -0.085,0.097c-0.198,0.271 -0.353,0.569 -0.459,0.887c-0.022,0.061 -0.045,0.126 -0.066,0.19c-0.068,0.208 -0.131,0.434 -0.186,0.672c-0.041,0.18 -0.078,0.364 -0.11,0.555c-0.101,0.596 -0.152,1.2 -0.153,1.805c-0.001,0.304 0.015,0.609 0.049,0.911c0.007,0.069 0.016,0.135 0.026,0.198c0.026,0.174 0.064,0.345 0.114,0.512c0.028,0.091 0.062,0.179 0.103,0.264c0.114,0.231 0.259,0.36 0.431,0.36c0.067,-0.003 0.133,-0.02 0.192,-0.052c0.086,-0.042 0.164,-0.099 0.23,-0.169c0.262,-0.275 0.5,-0.786 0.686,-1.423c0.045,-0.156 0.087,-0.318 0.125,-0.487c0.046,-0.202 0.086,-0.41 0.121,-0.627c0.045,-0.276 0.08,-0.561 0.102,-0.852c0.022,-0.27 0.033,-0.543 0.033,-0.816c0.022,-0.596 -0.058,-1.192 -0.238,-1.762c-0.05,-0.148 -0.134,-0.282 -0.247,-0.391l0,0Zm31.463,3.623l0.223,-1.409c0.923,-0.074 1.593,-0.265 2.146,-0.599c0.671,-0.403 1.469,-1.202 1.469,-2.711c0.001,-0.811 -0.203,-1.61 -0.593,-2.323c-0.404,-0.733 -1.18,-1.19 -2.023,-1.191c-0.041,0 -0.082,0.001 -0.123,0.004c-0.048,-1.231 -1.066,-2.204 -2.307,-2.207c-1.145,-0.004 -2.289,0.081 -3.421,0.254c-0.984,0.153 -1.758,1.071 -1.922,2.049c-0.009,0.055 -2.614,0 -4.369,0c-1.347,0 -2.063,0.666 -2.063,0.666c0,0 -0.663,-0.863 -2.411,-0.666c-0.85,0.042 -1.695,0.152 -2.528,0.328c0.179,-1.057 0.283,-2.126 0.31,-3.198l0,-0.115c0.007,-1.279 -1.02,-2.326 -2.308,-2.354l-0.001,0c-1.687,0 -3.617,0.229 -4.589,0.471c-1.079,0.282 -1.809,1.278 -1.746,2.383c0.055,0.992 -0.392,3.946 -0.392,3.946c-1.085,-0.9 -2.512,-1.415 -4.157,-1.415c-1.493,-0.007 -2.965,0.349 -4.287,1.038c-0.445,-0.514 -1.095,-0.807 -1.777,-0.802l-0.001,0c-1.297,0 -2.302,-0.016 -3.262,0.065c-0.741,0.053 -1.41,0.461 -1.792,1.094c-0.023,-0.044 -0.047,-0.101 -0.072,-0.144c-0.407,-0.727 -1.176,-1.18 -2.014,-1.186c-1.734,0 -4.728,0.509 -4.857,0.57c-1.026,-0.458 -2.142,-0.683 -3.267,-0.657c-1.668,-0.023 -3.31,0.419 -4.737,1.276c-0.234,-3.493 -3.261,-5.873 -7.526,-5.873c0,0 -5.223,0.195 -6.165,0.4c-1.122,0.241 -1.893,1.266 -1.809,2.402c0.063,0.845 0.012,1.695 -0.152,2.528l-1.533,9.814c-0.098,0.595 -0.383,2.361 0.731,3.668c0.449,0.528 1.284,1.156 2.709,1.156c0.676,0 2.402,-0.072 3.839,-0.736c0.382,-0.176 0.708,-0.452 0.944,-0.799c0.78,0.9 1.926,1.556 3.604,1.575c1.468,-0.01 2.913,-0.359 4.221,-1.019c1.184,0.708 2.546,1.069 3.928,1.04c2.5,0 4.842,-1.008 6.322,-2.674c0.833,2.122 2.338,2.614 3.553,2.614c1.046,0 2.265,-0.111 3.489,-0.724c1.008,-0.506 1.486,-2.187 1.697,-2.56c1.021,2.065 3.077,3.349 5.676,3.349c2.07,0.018 4.082,-0.676 5.694,-1.964c0.11,0.192 0.238,0.374 0.382,0.542c0.531,0.617 1.541,1.355 3.34,1.355c1.275,0.022 2.525,-0.341 3.586,-1.043c0.587,0.559 1.53,1.109 2.967,1.109c1.079,-0.016 2.139,-0.29 3.089,-0.799c0.703,0.488 1.596,0.734 2.669,0.734c1.687,0 3.2,-0.585 4.206,-1.593c0.828,0.816 2.274,1.659 4.713,1.659c2.271,0 4.506,-1.44 5.654,-3.383c0.881,-1.49 -0.119,-4.045 -2.957,-3.945l0,0Zm-59.175,-6.028c-0.135,1.818 -1.265,3.316 -3.03,4.236l1.577,4.231c0.459,1.156 0.722,1.622 1.247,1.992c-0.124,0.066 -0.252,0.123 -0.384,0.172c-0.793,0.266 -1.625,0.398 -2.462,0.388c-0.81,0 -1.949,-0.188 -2.628,-2.238l-1.204,-3.451l-1.182,0l-0.526,3.299c-0.063,0.369 -0.103,0.741 -0.12,1.115l0,0.101c-0.004,0.212 0.043,0.422 0.138,0.613c0.001,0.003 0.003,0.006 0.004,0.009c-0.898,0.414 -2.145,0.522 -2.868,0.522c-0.624,0 -1.204,-0.203 -1.234,-1.279c-0.003,-0.295 0.021,-0.589 0.073,-0.88l1.532,-9.813c0.135,-0.733 0.205,-1.477 0.21,-2.223c-0.005,0.742 -0.075,1.481 -0.21,2.211c0.135,-0.745 0.205,-1.5 0.21,-2.256c-0.001,-0.257 0.008,-0.363 -0.014,-0.874l0.021,0l0,0.09c0.513,-0.143 2.256,-0.322 3.845,-0.344c0.106,-0.001 0.191,-0.002 0.296,-0.002l1.489,0c1.056,-0.025 2.104,0.193 3.061,0.636c0.267,0.131 0.519,0.288 0.755,0.468c0.222,0.171 0.425,0.367 0.605,0.582c0.263,0.316 0.467,0.676 0.603,1.062c0.141,0.406 0.212,0.832 0.209,1.261c0,0.123 -0.004,0.246 -0.013,0.367l0,0.005Zm9.011,0.527c-0.004,-0.005 -0.006,-0.011 -0.007,-0.017c-0.359,-0.124 -0.732,-0.208 -1.111,-0.248c0.383,0.04 0.761,0.123 1.125,0.248c-0.001,0.006 -0.004,0.012 -0.008,0.017l0.001,0Zm-1.912,-0.31l0.002,0c-4.485,0 -6.406,3.413 -6.406,6.487c0,-3.074 1.915,-6.487 6.403,-6.487l0.001,0Zm-1.226,6.347l-0.033,0.003c-0.141,0.011 -0.287,0.02 -0.435,0.027c-0.032,0.001 -0.064,0.003 -0.096,0.004c-0.169,0.007 -0.341,0.011 -0.52,0.011l-0.045,0c0.002,0.08 0.005,0.159 0.01,0.237c0.075,1.175 0.567,2.15 1.654,2.15c0.082,0 0.164,-0.005 0.245,-0.013c1.031,-0.109 1.635,-0.871 2.164,-0.871c0.248,0.027 0.488,0.109 0.7,0.241l0.526,0.349c-0.001,0.001 -0.001,0.002 -0.002,0.003c-0.368,0.529 -0.837,0.981 -1.38,1.332c-1.061,0.681 -2.302,1.036 -3.566,1.021c-2.707,0 -4.341,-1.519 -4.495,-3.955c-0.003,-0.041 0.052,-0.081 0.05,-0.121c-0.003,-0.088 0.046,-0.173 0.046,-0.263l0,-0.008c0,-3.072 1.919,-6.465 6.403,-6.465c0.648,-0.012 1.293,0.089 1.907,0.299c-0.001,0.001 -0.001,0.002 -0.002,0.004c1.078,0.39 1.703,1.145 1.703,2.188c0,1.228 -0.79,3.486 -4.834,3.827l0,0Zm12.447,2.007c-0.383,0.619 -0.698,1.276 -0.941,1.962c-0.744,0.393 -1.577,0.458 -2.409,0.458c-0.7,0 -1.335,-0.349 -1.685,-2.159l-1.029,-5.147c-0.209,-1.042 -0.532,-2.058 -0.964,-3.031c0.369,-0.088 0.744,-0.152 1.121,-0.194l0.002,0c0.086,-0.011 0.176,-0.021 0.267,-0.031c0.01,-0.001 0.02,-0.002 0.031,-0.003c0.086,-0.009 0.176,-0.018 0.268,-0.026c0.01,0 0.019,-0.002 0.029,-0.003c0.203,-0.018 0.417,-0.034 0.643,-0.048c0.012,0 0.025,-0.001 0.036,-0.002c0.095,-0.005 0.191,-0.01 0.288,-0.014c0.033,-0.002 0.066,-0.003 0.099,-0.005c0.08,-0.003 0.161,-0.006 0.243,-0.009c0.039,0 0.078,-0.002 0.118,-0.003c0.083,-0.002 0.167,-0.004 0.252,-0.006c0.036,0 0.073,-0.001 0.109,-0.001c0.121,-0.002 0.243,-0.003 0.368,-0.003c0.182,0.321 0.337,0.657 0.463,1.004c0.041,0.112 0.079,0.223 0.112,0.333c0.076,0.247 0.133,0.5 0.17,0.756l0.679,4.688c0.569,-1.112 1.117,-2.268 1.62,-3.423c0.334,-0.77 0.614,-1.562 0.837,-2.37c0.073,-0.27 0.137,-0.542 0.192,-0.814c0.249,-0.021 0.499,-0.038 0.748,-0.053c0.14,-0.007 0.28,-0.012 0.42,-0.018c0.105,-0.004 0.21,-0.01 0.315,-0.013c0.199,-0.007 0.397,-0.011 0.595,-0.015c0.042,0 0.084,-0.002 0.125,-0.002c0.236,-0.005 0.471,-0.006 0.705,-0.007l0.158,0c-0.067,0.695 -0.252,1.373 -0.548,2.006c-0.964,2.137 -2.168,4.144 -3.438,6.194l0.001,-0.001Zm12.747,0.024c-0.373,0.476 -0.813,0.895 -1.306,1.246c-0.001,0.001 -0.002,0.001 -0.003,0.002c-0.093,0.066 -0.188,0.13 -0.286,0.191c-0.012,0.008 -0.025,0.015 -0.036,0.024c-0.087,0.053 -0.176,0.106 -0.266,0.156c-0.018,0.009 -0.034,0.019 -0.05,0.028c-0.091,0.048 -0.182,0.095 -0.272,0.14c-0.016,0.007 -0.031,0.015 -0.047,0.022c-0.104,0.05 -0.211,0.098 -0.319,0.142c-0.002,0.001 -0.004,0.002 -0.006,0.003c-0.225,0.092 -0.454,0.171 -0.688,0.238c-0.029,0.009 -0.058,0.016 -0.088,0.023c-0.085,0.023 -0.171,0.046 -0.258,0.066c-0.039,0.009 -0.079,0.018 -0.119,0.025c-0.078,0.017 -0.157,0.032 -0.236,0.047c-0.044,0.008 -0.088,0.015 -0.133,0.022c-0.078,0.012 -0.156,0.022 -0.235,0.032c-0.045,0.006 -0.09,0.011 -0.135,0.016c-0.084,0.009 -0.169,0.015 -0.255,0.021c-0.039,0.003 -0.079,0.006 -0.119,0.009c-0.125,0.006 -0.251,0.009 -0.378,0.009c-0.154,0 -0.303,-0.006 -0.45,-0.019c-0.049,-0.004 -0.096,-0.012 -0.145,-0.018c-0.094,-0.01 -0.19,-0.021 -0.281,-0.036c-0.057,-0.01 -0.109,-0.024 -0.165,-0.036c-0.08,-0.017 -0.161,-0.033 -0.238,-0.054c-0.057,-0.016 -0.111,-0.034 -0.166,-0.052c-0.073,-0.023 -0.145,-0.045 -0.213,-0.072c-0.056,-0.022 -0.109,-0.046 -0.162,-0.069c-0.065,-0.028 -0.13,-0.057 -0.192,-0.088c-0.053,-0.026 -0.104,-0.056 -0.155,-0.084c-0.059,-0.034 -0.117,-0.068 -0.173,-0.104c-0.05,-0.032 -0.098,-0.066 -0.146,-0.1c-0.053,-0.038 -0.105,-0.077 -0.156,-0.118c-0.046,-0.037 -0.09,-0.076 -0.136,-0.116c-0.047,-0.042 -0.093,-0.086 -0.138,-0.131c-0.045,-0.045 -0.085,-0.086 -0.125,-0.131c-0.041,-0.045 -0.082,-0.095 -0.122,-0.144c-0.039,-0.049 -0.077,-0.096 -0.113,-0.146c-0.037,-0.05 -0.071,-0.103 -0.105,-0.156c-0.034,-0.053 -0.069,-0.105 -0.101,-0.16c-0.032,-0.056 -0.06,-0.11 -0.089,-0.165c-0.029,-0.056 -0.06,-0.115 -0.088,-0.176c-0.025,-0.056 -0.048,-0.116 -0.071,-0.174c-0.026,-0.063 -0.052,-0.126 -0.074,-0.191c-0.021,-0.059 -0.038,-0.12 -0.056,-0.181c-0.02,-0.069 -0.042,-0.136 -0.06,-0.206c-0.014,-0.059 -0.024,-0.121 -0.037,-0.182c-0.045,-0.209 -0.076,-0.421 -0.095,-0.634c0,-0.002 0,-0.004 0,-0.006c-0.012,-0.157 -0.019,-0.316 -0.019,-0.481c0,-2.298 1.053,-4.227 2.714,-5.391c0.269,-0.189 0.553,-0.356 0.848,-0.501c0.007,-0.004 0.013,-0.007 0.02,-0.01c0.293,-0.143 0.596,-0.264 0.907,-0.362l0.044,-0.013c0.152,-0.047 0.306,-0.089 0.463,-0.125c0.019,-0.005 0.039,-0.008 0.059,-0.013c0.145,-0.032 0.292,-0.061 0.442,-0.083c0.017,-0.003 0.033,-0.007 0.051,-0.009c0.155,-0.023 0.313,-0.04 0.471,-0.054l0.104,-0.007c0.161,-0.011 0.324,-0.018 0.489,-0.018c0.14,0 0.276,0.007 0.41,0.017c0.038,0.003 0.075,0.007 0.112,0.011c0.108,0.01 0.213,0.025 0.316,0.042c0.026,0.004 0.055,0.008 0.08,0.012c0.122,0.023 0.24,0.051 0.355,0.083c0.036,0.01 0.072,0.021 0.109,0.032c0.082,0.026 0.163,0.053 0.242,0.083c0.039,0.014 0.077,0.028 0.115,0.044c0.101,0.041 0.2,0.086 0.293,0.135c0.039,0.02 0.076,0.042 0.114,0.063c0.06,0.034 0.119,0.069 0.176,0.106c0.045,0.028 0.089,0.057 0.132,0.088c0.051,0.036 0.099,0.073 0.147,0.111c0.073,0.057 0.142,0.115 0.209,0.177c0.037,0.035 0.074,0.069 0.11,0.105c0.045,0.045 0.089,0.092 0.132,0.141c0.027,0.03 0.053,0.062 0.079,0.093c0.098,0.118 0.189,0.241 0.272,0.37c0,0.002 0.002,0.003 0.003,0.005c0.04,0.062 0.077,0.127 0.113,0.193c0.016,0.029 0.032,0.058 0.047,0.088c0.347,0.693 0.521,1.458 0.507,2.231c0.019,1.489 -0.466,2.94 -1.376,4.123l-0.003,0.001Zm8.089,-12.064c-0.063,0.569 -0.151,1.17 -0.249,1.746l-0.465,2.951l-1.156,7.342c-0.013,0.084 -0.021,0.168 -0.024,0.252c0,0.018 -0.001,0.038 -0.001,0.056c-0.001,0.07 0.003,0.139 0.013,0.208c0.002,0.015 0.006,0.028 0.008,0.041c0.009,0.049 0.022,0.098 0.039,0.144c0.006,0.018 0.011,0.036 0.018,0.052c0.019,0.046 0.044,0.091 0.072,0.132c0.012,0.016 0.025,0.031 0.037,0.046c0.022,0.027 0.046,0.052 0.072,0.075c0.014,0.012 0.027,0.025 0.042,0.036c0.162,0.111 0.357,0.167 0.554,0.159c-0.165,0.233 -0.371,0.433 -0.61,0.591c-0.029,0.02 -0.059,0.041 -0.089,0.06c-0.059,0.038 -0.119,0.072 -0.181,0.107c-0.04,0.021 -0.082,0.042 -0.123,0.062c-0.061,0.029 -0.12,0.059 -0.184,0.085c-0.099,0.042 -0.202,0.08 -0.309,0.114c-0.047,0.014 -0.097,0.026 -0.145,0.039c-0.079,0.022 -0.158,0.042 -0.24,0.06c-0.05,0.011 -0.101,0.019 -0.152,0.028c-0.089,0.016 -0.18,0.029 -0.273,0.039c-0.045,0.006 -0.09,0.012 -0.136,0.015c-0.139,0.013 -0.281,0.02 -0.427,0.02c-0.06,0 -0.121,-0.001 -0.181,-0.003c-0.022,-0.002 -0.045,-0.004 -0.067,-0.005c-0.038,-0.002 -0.077,-0.005 -0.115,-0.008c-0.027,-0.003 -0.054,-0.007 -0.082,-0.01c-0.032,-0.004 -0.065,-0.008 -0.097,-0.012c-0.032,-0.005 -0.06,-0.011 -0.091,-0.017c-0.03,-0.006 -0.057,-0.011 -0.085,-0.017c-0.032,-0.007 -0.063,-0.015 -0.095,-0.023c-0.025,-0.007 -0.049,-0.015 -0.073,-0.022c-0.033,-0.01 -0.067,-0.021 -0.099,-0.032c-0.02,-0.008 -0.04,-0.016 -0.06,-0.025c-0.035,-0.014 -0.069,-0.029 -0.103,-0.044c-0.012,-0.006 -0.024,-0.014 -0.036,-0.021c-0.178,-0.09 -0.333,-0.22 -0.452,-0.379c-0.007,-0.009 -0.014,-0.017 -0.02,-0.026c-0.027,-0.038 -0.051,-0.078 -0.073,-0.118c-0.007,-0.014 -0.015,-0.026 -0.022,-0.04c-0.02,-0.041 -0.039,-0.085 -0.057,-0.129c-0.006,-0.016 -0.012,-0.032 -0.018,-0.049c-0.016,-0.046 -0.031,-0.095 -0.043,-0.145c-0.004,-0.017 -0.008,-0.035 -0.011,-0.053c-0.012,-0.054 -0.022,-0.108 -0.029,-0.167c-0.002,-0.014 -0.003,-0.032 -0.004,-0.047c-0.006,-0.064 -0.012,-0.129 -0.013,-0.198c-0.002,-0.19 0.012,-0.38 0.042,-0.568l1.665,-10.49c0.021,-0.136 0.042,-0.267 0.061,-0.394c0.076,-0.477 0.125,-0.957 0.148,-1.438c0.015,-0.364 0.012,-0.75 -0.013,-1.199c0.062,-0.016 0.132,-0.031 0.209,-0.046c0.077,-0.016 0.161,-0.031 0.25,-0.046c0.139,-0.023 0.29,-0.045 0.455,-0.066c0.077,-0.01 0.155,-0.02 0.236,-0.029c0.243,-0.028 0.507,-0.054 0.785,-0.076c0.185,-0.015 0.377,-0.029 0.573,-0.04c0.49,-0.029 1.008,-0.046 1.521,-0.046c0,0.343 -0.021,0.733 -0.059,1.147c-0.012,0.137 -0.026,0.278 -0.042,0.42l0.003,0.001Zm11.229,13.239c-0.504,0.741 -1.554,1.221 -2.825,1.221c-0.134,0 -0.268,-0.005 -0.4,-0.018c-0.13,-0.012 -0.259,-0.034 -0.386,-0.064c-0.123,-0.029 -0.242,-0.071 -0.356,-0.123c-0.558,-0.262 -0.918,-0.822 -0.741,-1.953l0.023,-0.197c-0.059,0.115 -0.122,0.224 -0.187,0.33c-0.128,0.203 -0.272,0.395 -0.431,0.574c-0.15,0.169 -0.313,0.326 -0.487,0.47c-0.085,0.07 -0.171,0.136 -0.259,0.198c-0.171,0.12 -0.35,0.229 -0.536,0.326c-0.339,0.176 -0.697,0.311 -1.069,0.402c-0.162,0.04 -0.327,0.071 -0.492,0.092c-0.145,0.019 -0.291,0.029 -0.437,0.029c-0.094,0 -0.185,-0.005 -0.272,-0.014c-0.032,-0.003 -0.063,-0.008 -0.094,-0.012c-0.052,-0.007 -0.104,-0.015 -0.153,-0.025c-0.038,-0.008 -0.075,-0.017 -0.111,-0.026c-0.036,-0.01 -0.074,-0.021 -0.109,-0.032c-0.041,-0.013 -0.082,-0.027 -0.121,-0.042c-0.02,-0.008 -0.038,-0.018 -0.057,-0.026c-0.939,-0.414 -1.228,-1.534 -0.987,-3.006l0.656,-4.187c0.02,-0.121 0.037,-0.236 0.055,-0.35c0.006,-0.043 0.012,-0.086 0.018,-0.129c0.009,-0.067 0.018,-0.132 0.026,-0.198c0.008,-0.054 0.014,-0.108 0.021,-0.16c0.005,-0.049 0.01,-0.098 0.015,-0.146c0.025,-0.227 0.042,-0.452 0.053,-0.681c0.001,-0.023 0.003,-0.047 0.003,-0.071c0.003,-0.076 0.005,-0.155 0.007,-0.234c0,-0.024 0,-0.048 0.001,-0.073c0.001,-0.084 0.002,-0.168 0.001,-0.254c-0.002,-0.23 -0.009,-0.471 -0.024,-0.736c0.047,-0.012 0.099,-0.023 0.155,-0.035c0.046,-0.01 0.095,-0.019 0.147,-0.03l0.068,-0.011c0.036,-0.006 0.073,-0.013 0.11,-0.019c0.026,-0.004 0.055,-0.009 0.081,-0.013c0.038,-0.005 0.076,-0.012 0.116,-0.018c0.029,-0.003 0.059,-0.008 0.089,-0.011c0.04,-0.006 0.08,-0.012 0.123,-0.018c0.032,-0.005 0.065,-0.009 0.098,-0.012c0.042,-0.006 0.084,-0.011 0.129,-0.016c0.034,-0.004 0.07,-0.008 0.105,-0.012c0.044,-0.005 0.089,-0.01 0.134,-0.015l0.115,-0.011c0.045,-0.005 0.09,-0.009 0.136,-0.014l0.121,-0.011c0.047,-0.005 0.095,-0.008 0.143,-0.012c0.041,-0.004 0.082,-0.007 0.124,-0.01l0.149,-0.011l0.127,-0.01c0.051,-0.003 0.102,-0.006 0.154,-0.009l0.128,-0.008c0.055,-0.003 0.109,-0.006 0.163,-0.009c0.042,-0.002 0.083,-0.004 0.125,-0.006c0.057,-0.003 0.116,-0.005 0.174,-0.007c0.04,-0.001 0.079,-0.004 0.119,-0.005c0.06,-0.002 0.121,-0.003 0.181,-0.005c0.04,-0.002 0.079,-0.003 0.118,-0.004c0.064,-0.002 0.129,-0.003 0.193,-0.004c0.036,0 0.071,-0.001 0.106,-0.001c0.1,-0.002 0.2,-0.002 0.299,-0.002c0.022,0.915 -0.154,2.158 -0.329,3.314l-0.569,3.533c-0.011,0.065 -0.021,0.13 -0.03,0.193c-0.01,0.069 -0.005,0.137 -0.012,0.204c-0.016,0.162 -0.023,0.324 -0.02,0.486l0,0.005c-0.008,0.18 0.001,0.359 0.025,0.537c0.014,0.093 0.042,0.183 0.083,0.268c0.029,0.059 0.078,0.105 0.139,0.13c0.019,0.006 0.038,0.009 0.057,0.009c0.13,0 0.332,-0.132 0.564,-0.373c0.355,-0.389 0.654,-0.825 0.886,-1.296c0.096,-0.187 0.188,-0.388 0.274,-0.599c0.085,-0.212 0.165,-0.435 0.236,-0.669c0.035,-0.116 0.067,-0.234 0.098,-0.356l0.306,-2.006c0.044,-0.273 0.082,-0.532 0.116,-0.786c0.051,-0.38 0.091,-0.75 0.126,-1.136c0.036,-0.387 0.062,-0.791 0.087,-1.241c0.042,-0.006 0.086,-0.012 0.134,-0.019c0.015,-0.002 0.032,-0.004 0.048,-0.006l0.101,-0.013c0.022,-0.003 0.046,-0.005 0.069,-0.008c0.031,-0.004 0.063,-0.007 0.097,-0.01c0.026,-0.003 0.053,-0.006 0.08,-0.009c0.032,-0.003 0.065,-0.007 0.1,-0.01c0.03,-0.003 0.061,-0.006 0.092,-0.009c0.032,-0.003 0.064,-0.005 0.097,-0.009c0.036,-0.003 0.072,-0.005 0.109,-0.009c0.029,-0.002 0.059,-0.004 0.09,-0.007c0.042,-0.003 0.084,-0.007 0.127,-0.01c0.024,-0.002 0.049,0.054 0.073,0.052c0.19,-0.013 0.392,0.02 0.604,0.02c0.066,0 0.133,-0.064 0.201,-0.067c0.016,0 0.032,-0.03 0.049,-0.031c0.066,-0.003 0.134,-0.02 0.201,-0.023c0.018,-0.001 0.037,-0.009 0.054,-0.01c0.066,-0.003 0.134,-0.009 0.202,-0.011c0.021,0 0.042,-0.004 0.063,-0.004c0.068,-0.002 0.136,-0.005 0.205,-0.007c0.02,0 0.04,-0.002 0.059,-0.003c0.073,-0.001 0.144,-0.003 0.217,-0.005c0.016,0 0.031,-0.045 0.046,-0.045c0.078,-0.002 0.155,-0.049 0.233,-0.049c0.187,0 0.376,0.04 0.566,0.04c-0.053,1.118 -0.17,2.232 -0.351,3.337l-0.788,4.961c-0.131,0.807 0.198,1.211 0.811,1.211l-0.001,0Zm2.285,-1.337c-0.011,-0.239 0.003,-0.477 0.043,-0.713l0.832,-5.167c-0.149,0.021 -0.232,0.033 -0.315,0.046c-0.189,0.033 -0.279,0.05 -0.37,0.068c-0.132,0.025 -0.267,0.054 -0.409,0.084c-0.108,-0.744 -0.105,-1.5 0.008,-2.244c0.179,-0.008 0.32,-0.019 0.576,-0.03c0.132,-0.005 0.202,-0.009 0.277,-0.012c0.08,-0.004 0.158,0.007 0.241,0.005c0.087,-0.003 0.176,0.009 0.266,0.009c0.065,0 0.152,-0.018 0.214,-0.018c0.284,-0.776 0.745,-1.423 0.899,-2.339c0.262,-0.041 0.554,-0.084 0.905,-0.12c0.155,-0.016 0.251,-0.026 0.356,-0.034c0.127,-0.012 0.258,-0.021 0.396,-0.03c0.412,-0.026 0.871,-0.042 1.381,-0.042c-0.022,0.698 -0.11,1.56 -0.242,2.582l0.722,0c1.139,0 1.59,-0.141 1.962,-0.402c0.205,0.364 0.315,0.773 0.32,1.189c-0.002,0.557 -0.176,0.95 -1.954,0.997c-0.119,0.003 -0.259,0.005 -0.393,0.005l-0.963,0l-0.811,5.146c-0.013,0.11 -0.017,0.133 -0.019,0.158c-0.004,0.059 -0.007,0.107 -0.008,0.154c-0.012,0.708 0.326,1.26 0.881,1.26c0.854,0 1.052,-0.677 1.38,-0.677c0.261,0.018 0.511,0.109 0.722,0.262l0.524,0.326c-0.589,1.113 -2.034,2.159 -3.611,2.159c-2.357,0.002 -3.725,-1.034 -3.81,-2.622Z" style="fill:url(#_Linear1);"/>        </g>    </g>    <defs>        <linearGradient id="_Linear1" x1="0" y1="0" x2="1" y2="1.04694" gradientUnits="userSpaceOnUse" gradientTransform="matrix(177.894,37.8625,-141.984,47.4383,21.1738,681.325)"><stop offset="0" style="stop-color:rgb(12,236,252);stop-opacity:1"/><stop offset="1" style="stop-color:rgb(13,111,205);stop-opacity:1"/></linearGradient>    </defs></svg>