<?xml version="1.0" encoding="UTF-8" standalone="no"?><!DOCTYPE svg PUBLIC "-//W3C//DTD SVG 1.1//EN" "http://www.w3.org/Graphics/SVG/1.1/DTD/svg11.dtd"><svg width="100%" height="100%" viewBox="0 0 1024 512" version="1.1" xmlns="http://www.w3.org/2000/svg" xmlns:xlink="http://www.w3.org/1999/xlink" xml:space="preserve" style="fill-rule:evenodd;clip-rule:evenodd;stroke-linejoin:round;stroke-miterlimit:2;"><title>Reinvest24</title><desc>Real Estate always was and will be a valuable asset, that is why property investments are considered to be the most secure way of investment. Real Estate investments have high requirements for legal paperwork and steep entrance fees, but we are changing this. Reinvest24 helps you to multiply your investments and grow your portfolio.</desc>    <g id="reinvest24-512x256.svg" transform="matrix(2.21749,0,0,2.21749,-55.7016,-27.839)">        <g id="ef76444b-6c1e-4a4c-b6f2-4734ecd67935">            <path id="_548df41d-ca73-45e2-803c-1cdcb8a7fe2b" d="M42.15,80l-15.75,74.26c-0.252,1.21 -0.379,2.444 -0.379,3.68c0,9.903 8.146,18.054 18.049,18.06l77.93,0l15.72,-74.28c0.258,-1.223 0.389,-2.47 0.389,-3.72c0,-9.875 -8.126,-18 -18,-18c-0.02,0 -0.039,0 -0.059,0l-77.9,0Z" style="fill:url(#_Linear1);fill-rule:nonzero;"/>            <g id="_929ccd26-1111-4e8c-af5a-667d2a4d1122">                <path id="_60d8c20c-455e-4475-b7e1-836c3ce752b2" d="M103.63,134.68l-14.63,-22.12c-0.724,-1.117 -1.967,-1.793 -3.298,-1.793c-1.845,0 -3.454,1.299 -3.842,3.103l-2.21,10.13l-46.85,0l-3.1,14.72l45.12,7.75l-1.67,7.78c-0.058,0.272 -0.088,0.549 -0.088,0.827c0,2.161 1.779,3.94 3.94,3.94c0.763,0 1.509,-0.221 2.148,-0.637l23.34,-18.25c1.776,-1.2 2.289,-3.624 1.15,-5.44" style="fill-opacity:0.3;fill-rule:nonzero;"/>                <path id="_2c3646f9-5beb-44fc-acb0-8a70f2df162a" d="M79,147.59l23.34,-18.25c1.114,-0.724 1.787,-1.966 1.787,-3.295c0,-0.761 -0.221,-1.507 -0.637,-2.145l-14.65,-22.13c-0.724,-1.117 -1.967,-1.793 -3.298,-1.793c-1.845,0 -3.454,1.299 -3.842,3.103l-2.18,10.12l-45.69,0l-4.77,22.48l45.62,0l-1.68,7.78c-0.058,0.272 -0.088,0.549 -0.088,0.827c0,2.161 1.779,3.94 3.94,3.94c0.763,0 1.509,-0.221 2.148,-0.637" style="fill:white;fill-rule:nonzero;"/>            </g>        </g>        <g id="_486ed04d-2a50-4730-8d5f-3afb8eb23854">            <path id="_89d38a76-14d4-49a6-9d2f-d77af3bf70b3" d="M182.55,110.55l-1.55,0c-0.54,0 -1.09,0 -1.6,0.06l-1.47,0.1c-0.368,0.031 -0.733,0.094 -1.09,0.19l0,15.37l4.64,0c2.421,0.1 4.809,-0.604 6.79,-2c1.76,-1.38 2.66,-3.49 2.66,-6.34c0.061,-1.996 -0.746,-3.923 -2.21,-5.28c-1.689,-1.502 -3.915,-2.26 -6.17,-2.1Zm-10.69,-3.39c1.725,-0.321 3.468,-0.535 5.22,-0.64c2,-0.13 3.75,-0.22 5.38,-0.22c1.758,-0.012 3.512,0.193 5.22,0.61c1.565,0.382 3.041,1.061 4.35,2c1.262,0.951 2.288,2.179 3,3.59c0.769,1.665 1.142,3.486 1.09,5.32c0.133,2.881 -0.829,5.707 -2.69,7.91c-1.792,2.007 -4.166,3.406 -6.79,4l2.85,2.21l10.34,16.49l-5.73,0l-11.49,-18l-5.83,-0.9l0,18.87l-4.93,0l0.01,-41.24Z" style="fill:rgb(48,47,47);fill-rule:nonzero;"/>            <path id="_06fbf6e8-5de2-4da8-af03-0e1a0715911e" d="M207.24,106.74l22.7,0l0,4.39l-17.74,0l0,13.64l16.24,0l0,4.38l-16.24,0l0,14.83l18.03,0l0,4.42l-22.99,0l0,-41.66Z" style="fill:rgb(48,47,47);fill-rule:nonzero;"/>            <rect id="_2edc23cd-9bd0-4d86-b4e7-7d18869d52a9" x="238.49" y="106.74" width="8.17" height="41.66" style="fill:rgb(48,47,47);fill-rule:nonzero;"/>            <path id="c0b8fefa-e939-472d-b4ac-961d38b4f9df" d="M264.97,126.66l-3.27,-6.54l-0.28,0l0.96,6.54l0,21.74l-7.75,0l0,-41.98l5.95,0l15.76,22.22l3.17,6.37l0.29,0l-0.97,-6.37l0,-21.9l7.75,0l0,41.94l-5.95,0l-15.66,-22.02Z" style="fill:rgb(48,47,47);fill-rule:nonzero;"/>            <path id="_12013ac2-8389-4532-a3eb-bc95c89c096f" d="M307.43,131.2l1.06,7.08l0.28,0l1.19,-7.14l8,-24.4l8.55,0l-15.46,41.94l-5.83,0l-15.59,-41.94l9.44,0l8.36,24.46Z" style="fill:rgb(48,47,47);fill-rule:nonzero;"/>            <path id="_59522e60-24a0-40c7-ae4a-7161c127df1c" d="M329.55,106.74l24.69,0l0,7.24l-16.52,0l0,9.7l15.05,0l0,7.27l-15.05,0l0,10.18l16.84,0l0,7.27l-25.01,0l0,-41.66Z" style="fill:rgb(48,47,47);fill-rule:nonzero;"/>            <path id="_25cf4069-9b39-401c-abc6-8f0b15b298a8" d="M378.58,137.19c0.031,-1.197 -0.489,-2.345 -1.41,-3.11c-1.073,-0.878 -2.256,-1.611 -3.52,-2.18c-1.41,-0.64 -2.95,-1.34 -4.58,-2c-1.617,-0.681 -3.153,-1.54 -4.58,-2.56c-1.41,-1.016 -2.606,-2.301 -3.52,-3.78c-0.997,-1.751 -1.486,-3.746 -1.41,-5.76c-0.046,-1.801 0.295,-3.592 1,-5.25c0.652,-1.448 1.639,-2.72 2.88,-3.71c1.311,-1.024 2.814,-1.776 4.42,-2.21c1.859,-0.493 3.777,-0.729 5.7,-0.7c2.299,-0.007 4.592,0.207 6.85,0.64c1.849,0.315 3.633,0.933 5.28,1.83l-2.5,6.82c-1.232,-0.693 -2.56,-1.198 -3.94,-1.5c-1.854,-0.461 -3.759,-0.686 -5.67,-0.67c-1.544,-0.091 -3.078,0.301 -4.39,1.12c-0.973,0.683 -1.537,1.812 -1.5,3c-0.015,1.163 0.505,2.27 1.41,3c1.071,0.888 2.255,1.631 3.52,2.21c1.41,0.67 2.95,1.38 4.58,2.08c1.618,0.691 3.154,1.56 4.58,2.59c1.402,1.014 2.597,2.287 3.52,3.75c0.99,1.685 1.48,3.617 1.41,5.57c0.053,1.966 -0.318,3.921 -1.09,5.73c-0.7,1.564 -1.767,2.936 -3.11,4c-1.433,1.109 -3.076,1.915 -4.83,2.37c-2.027,0.529 -4.115,0.788 -6.21,0.77c-2.637,0.033 -5.268,-0.246 -7.84,-0.83c-1.723,-0.372 -3.399,-0.932 -5,-1.67l2.63,-6.95c0.55,0.292 1.118,0.549 1.7,0.77c0.762,0.309 1.544,0.566 2.34,0.77c0.86,0.22 1.79,0.45 2.75,0.61c0.992,0.155 1.996,0.228 3,0.22c1.933,0.111 3.86,-0.311 5.57,-1.22c1.269,-0.81 2.005,-2.247 1.92,-3.75" style="fill:rgb(48,47,47);fill-rule:nonzero;"/>            <path id="_107d535d-c083-4fb4-8781-b6d7f7777f6a" d="M421.74,114.01l-12.14,0l0,34.39l-8.16,0l0,-34.39l-12.2,0l0,-7.27l32.5,0l0,7.27Z" style="fill:rgb(48,47,47);fill-rule:nonzero;"/>            <path id="_1fbd27b7-df6c-4dbc-bb87-ce1c5202ad72" d="M448.92,116.18c-0.016,2.206 -0.405,4.394 -1.15,6.47c-0.8,2.295 -1.804,4.514 -3,6.63c-1.279,2.25 -2.678,4.43 -4.19,6.53c-1.54,2.11 -3.11,4.13 -4.64,6.05l-2.94,2.57l0,0.22l3.81,-0.64l13,0l0,4.42l-23.75,0l0,-1.73l3.17,-3.39c1.22,-1.34 2.5,-2.85 3.84,-4.48c1.34,-1.63 2.63,-3.39 3.94,-5.25c1.268,-1.819 2.443,-3.702 3.52,-5.64c1.01,-1.811 1.856,-3.709 2.53,-5.67c0.622,-1.693 0.96,-3.477 1,-5.28c0.075,-1.761 -0.518,-3.487 -1.66,-4.83c-1.314,-1.363 -3.172,-2.068 -5.06,-1.92c-1.521,0.009 -3.024,0.325 -4.42,0.93c-1.314,0.538 -2.552,1.248 -3.68,2.11l-2,-3.46c1.457,-1.226 3.129,-2.172 4.93,-2.79c1.968,-0.682 4.038,-1.02 6.12,-1c1.535,-0.02 3.062,0.231 4.51,0.74c1.256,0.44 2.395,1.162 3.33,2.11c0.916,0.916 1.626,2.017 2.08,3.23c0.497,1.309 0.748,2.699 0.74,4.1" style="fill:rgb(48,47,47);fill-rule:nonzero;"/>            <path id="_719b18d6-e663-4b69-9f0e-4f0e2e467023" d="M474.34,118.46l0.61,-4.87l-0.19,0l-2.08,4l-8.39,11.41l-2.85,2.91l4.16,-0.48l8.74,0l0,-12.97Zm11.66,17.13l-7,0l0,12.81l-4.64,0l0,-12.81l-18.36,0l0,-2l19.76,-27.57l3.24,0l0,25.36l7,0l0,4.21Z" style="fill:rgb(48,47,47);fill-rule:nonzero;"/>        </g>    </g>    <defs>        <linearGradient id="_Linear1" x1="0" y1="0" x2="1" y2="0" gradientUnits="userSpaceOnUse" gradientTransform="matrix(-110.688,1.35554e-14,-1.35554e-14,-110.688,137.497,127.429)"><stop offset="0" style="stop-color:rgb(42,163,255);stop-opacity:1"/><stop offset="1" style="stop-color:rgb(58,21,255);stop-opacity:1"/></linearGradient>    </defs></svg>