<?xml version="1.0" encoding="UTF-8" standalone="no"?><!DOCTYPE svg PUBLIC "-//W3C//DTD SVG 1.1//EN" "http://www.w3.org/Graphics/SVG/1.1/DTD/svg11.dtd"><svg width="100%" height="100%" viewBox="0 0 1024 512" version="1.1" xmlns="http://www.w3.org/2000/svg" xmlns:xlink="http://www.w3.org/1999/xlink" xml:space="preserve" style="fill-rule:evenodd;clip-rule:evenodd;stroke-linejoin:round;stroke-miterlimit:2;"><title>Trillion Fund</title><desc>rillion is an FCA-regulated peer-to-project platform allowing everyone to invest in UK clean energy.In 2014, we raised £1.6 million for renewable energy projects. In 2015, we’re planning on raising a further £10 million.There is £1 trillion sitting in UK banks earning less than the rate of inflation, and losing money in real terms. £1 trillion a year is also the amount needed to fund sufficient renewable energy to stay within two degrees of warming.</desc>    <g transform="matrix(0.784409,0,0,0.784409,-47.8894,-126.662)">        <g>            <path d="M824.743,618.908l5.158,-33.053l-26.458,-0.282l-1.912,37.252l23.212,-3.917Z" style="fill:rgb(78,168,191);fill-opacity:0.6;"/>            <path d="M828.451,521.681l17.557,15.861l13.315,-19.6l-16.478,-16.308l-14.394,20.047Z" style="fill:rgb(78,168,191);fill-opacity:0.6;"/>            <path d="M829.989,504.636l2.833,17.023l20.818,-3.861l-1.53,-17.631l-22.121,4.469Z" style="fill:rgb(78,168,191);fill-opacity:0.6;"/>            <path d="M804.305,515.618l11.991,15.868l18.062,-14.672l-13.354,-16.67l-16.699,15.474Z" style="fill:rgb(78,168,191);fill-opacity:0.6;"/>            <path d="M799.551,495.396l19.962,15.798l14.249,-17.233l-22.726,-12.253l-11.485,13.688Z" style="fill:rgb(78,168,191);fill-opacity:0.6;"/>            <path d="M782.055,449.94l5.886,18.715l18.315,-5.298l-7.145,-19.147l-17.056,5.73Z" style="fill:rgb(78,168,191);fill-opacity:0.6;"/>            <path d="M783.165,417.134l6.997,26.177l22.293,-4.786l-6.701,-25.74l-22.589,4.349Z" style="fill:rgb(78,168,191);fill-opacity:0.6;"/>            <path d="M767.453,473.793l-0.972,23.984l19.864,-0.216l0.08,-24.653l-18.972,0.885Z" style="fill:rgb(78,168,191);fill-opacity:0.6;"/>            <path d="M771.057,425.856l-3.724,27.252l22.377,2.516l5.874,-25.751l-24.527,-4.017Z" style="fill:rgb(78,168,191);fill-opacity:0.6;"/>            <path d="M763.539,443.269l-20.744,20.15l11.958,22.515l29.632,-21.072l-20.846,-21.593Z" style="fill:rgb(78,168,191);fill-opacity:0.6;"/>            <path d="M682.602,378.718l4.474,14.429l23.424,-5.49l-11.94,-18.14l-15.958,9.201Z" style="fill:rgb(78,168,191);fill-opacity:0.6;"/>            <path d="M660.977,402.886l3.885,28.841l26.637,-4.159l-6.033,-30.235l-24.489,5.553Z" style="fill:rgb(78,168,191);fill-opacity:0.6;"/>            <path d="M656.82,409.771l1.306,25.409l22.54,-0.241l-0.931,-26.047l-22.915,0.879Z" style="fill:rgb(78,168,191);fill-opacity:0.6;"/>            <path d="M698.554,415.261l-6.205,28.717l34.285,11.007l3.985,-30.425l-32.065,-9.299Z" style="fill:rgb(78,168,191);fill-opacity:0.6;"/>            <path d="M718.191,434.615l12.1,24.055l14.049,-8.837l-11.46,-21.827l-14.689,6.609Z" style="fill:rgb(78,168,191);fill-opacity:0.6;"/>            <path d="M707.211,371.269l-17.867,9.406l5.845,29.476l23.88,-8.61l-11.858,-30.272Z" style="fill:rgb(78,168,191);fill-opacity:0.6;"/>            <path d="M889.456,503.167l31.467,21.824l16.304,-32.678l-28.97,-20.394l-18.801,31.248Z" style="fill:rgb(78,168,191);fill-opacity:0.6;"/>            <path d="M869.985,478.555l3.862,18.719l24.892,-3.745l-1.899,-19.33l-26.855,4.356Z" style="fill:rgb(78,168,191);fill-opacity:0.6;"/>            <path d="M858.976,459.566l-8.591,6.582l10.73,12.693l10.119,-8.724l-12.258,-10.551Z" style="fill:rgb(78,168,191);fill-opacity:0.6;"/>            <path d="M840.181,443.535l-14.023,22.735l20.022,14.644l15.343,-19.947l-21.342,-17.432Z" style="fill:rgb(78,168,191);fill-opacity:0.6;"/>            <path d="M723.004,331.391l-13.789,20.928l13.03,8.009l15.591,-20.441l-14.832,-8.496Z" style="fill:rgb(78,168,191);fill-opacity:0.6;"/>            <path d="M727.104,344.386l-14.776,15.312l20.734,15.292l13.598,-15.619l-19.556,-14.985Z" style="fill:rgb(78,168,191);fill-opacity:0.6;"/>            <path d="M748.183,355.633l10.071,21.026l23.475,-8.107l-9.132,-21.19l-24.414,8.271Z" style="fill:rgb(78,168,191);fill-opacity:0.6;"/>            <path d="M770.54,364.169l9.082,19.129l20.254,-14.391l-8.916,-14.897l-20.42,10.159Z" style="fill:rgb(78,168,191);fill-opacity:0.6;"/>            <path d="M814.528,347.717l7.866,18.027l17.362,-10.302l-6.748,-18.87l-18.48,11.145Z" style="fill:rgb(78,168,191);fill-opacity:0.6;"/>            <path d="M816.848,366.502l-1.611,22.008l20.398,4.279l1.186,-19.57l-19.973,-6.717Z" style="fill:rgb(78,168,191);fill-opacity:0.6;"/>            <path d="M854.15,360.295l4.967,16.831l16.748,-9.583l-6.991,-12.731l-14.724,5.483Z" style="fill:rgb(78,168,191);fill-opacity:0.6;"/>            <path d="M861.83,380.764l17.831,8.542l6.108,-20.459l-17.044,-7.497l-6.895,19.414Z" style="fill:rgb(78,168,191);fill-opacity:0.6;"/>            <path d="M868.488,394.949l13.782,33.811l30.845,-16.045l-14.562,-31.626l-30.065,13.86Z" style="fill:rgb(78,168,191);fill-opacity:0.6;"/>            <path d="M816.871,410.531l18.15,18.756l22.777,-24.178l-18.869,-19.316l-22.058,24.738Z" style="fill:rgb(78,168,191);fill-opacity:0.6;"/>            <path d="M809.655,442.819l35.322,8.061l11.725,-40.563l-38.639,-10.329l-8.408,42.831Z" style="fill:rgb(78,168,191);fill-opacity:0.6;"/>            <path d="M895.874,463.486l35.245,18.48l14.92,-32.913l-37.987,-19.926l-12.178,34.359Z" style="fill:rgb(78,168,191);fill-opacity:0.6;"/>            <path d="M924.161,437.925l3.711,22.368l12.366,-2.283l-3.357,-20.724l-12.72,0.639Z" style="fill:rgb(78,168,191);fill-opacity:0.6;"/>            <path d="M918.152,502.396l15.395,14.043l13.546,-16.35l-16.651,-13.29l-12.29,15.597Z" style="fill:rgb(78,168,191);fill-opacity:0.6;"/>            <path d="M914.657,517.379l7.292,24.157l16.928,-5.907l-6.513,-24.701l-17.707,6.451Z" style="fill:rgb(78,168,191);fill-opacity:0.6;"/>            <path d="M876.266,522.581l-3.214,36.186l45.908,-3.073l-0.752,-36.001l-41.942,2.888Z" style="fill:rgb(78,168,191);fill-opacity:0.6;"/>            <path d="M864.26,611.831l15.036,7.396l14.102,-21.753l-19.152,-8.644l-9.986,23.001Z" style="fill:rgb(78,168,191);fill-opacity:0.6;"/>            <path d="M826.078,559.945l25.652,25.343l25.443,-28.837l-23.588,-23.07l-27.507,26.564Z" style="fill:rgb(78,168,191);fill-opacity:0.6;"/>            <path d="M823.909,529.419l0.153,19.937l18.361,0.283l0.816,-20.404l-19.33,0.184Z" style="fill:rgb(78,168,191);fill-opacity:0.6;"/>            <path d="M803.391,537.877l1.552,31.871l26.508,-0.627l-2.912,-31.967l-25.148,0.723Z" style="fill:rgb(78,168,191);fill-opacity:0.6;"/>            <path d="M794.044,549.982l0.309,29.799l19.911,-0.072l-1.921,-29.683l-18.299,-0.044Z" style="fill:rgb(78,168,191);fill-opacity:0.6;"/>            <path d="M740.009,616.39l19.185,30.803l31.744,-22.82l-21.437,-32.175l-29.492,24.192Z" style="fill:rgb(78,168,191);fill-opacity:0.6;"/>            <path d="M706.626,623.343l5.189,12.841l13.72,-6.645l-4.126,-13.893l-14.783,7.697Z" style="fill:rgb(78,168,191);fill-opacity:0.6;"/>            <path d="M681.497,571.632l-7.759,42.388l39.432,6.417l5.747,-40.01l-37.42,-8.795Z" style="fill:rgb(78,168,191);fill-opacity:0.6;"/>            <path d="M642.182,537.534l-4.652,23.294l33.207,0.664l5.383,-23.862l-33.938,-0.096Z" style="fill:rgb(78,168,191);fill-opacity:0.6;"/>            <path d="M654.788,506.144l-20.118,12.167l20.838,26.181l21.877,-13.323l-22.597,-25.025Z" style="fill:rgb(78,168,191);fill-opacity:0.6;"/>            <path d="M654.636,487.151l-8.918,25.416l21.878,5.314l7.986,-21.701l-20.946,-9.029Z" style="fill:rgb(78,168,191);fill-opacity:0.6;"/>            <path d="M646.008,491.647l-10.662,11.162l18.696,17.351l9.4,-13.022l-17.434,-15.491Z" style="fill:rgb(78,168,191);fill-opacity:0.6;"/>            <path d="M676.106,525.04l-14.767,14.679l21.357,16.854l14.685,-15.85l-21.275,-15.683Z" style="fill:rgb(78,168,191);fill-opacity:0.6;"/>            <path d="M693.427,538.712l-15.358,28.326l31.079,11.602l15.384,-27.26l-31.105,-12.668Z" style="fill:rgb(78,168,191);fill-opacity:0.6;"/>            <path d="M697.519,557.029l-29.213,8.373l4.21,32.242l29.523,-1.229l-4.52,-39.386Z" style="fill:rgb(78,168,191);fill-opacity:0.6;"/>            <path d="M711.364,452.692l-19.856,5.661l5.186,25.367l23.161,-7.592l-8.491,-23.436Z" style="fill:rgb(78,168,191);fill-opacity:0.6;"/>            <path d="M710.523,464.57l-17.475,19.848l23.117,19.78l18.423,-22.339l-24.065,-17.289Z" style="fill:rgb(78,168,191);fill-opacity:0.6;"/>            <path d="M701.821,473.951l-27.298,38.594l34.261,22.972l21.626,-37.336l-28.589,-24.23Z" style="fill:rgb(78,168,191);fill-opacity:0.6;"/>            <path d="M759.947,460.718l-30.891,9.303l3.675,32.785l31.449,-9.217l-4.233,-32.871Z" style="fill:rgb(78,168,191);fill-opacity:0.6;"/>            <path d="M774.013,508.943l-20.054,-2.591l1.168,21.788l20.587,1.332l-1.701,-20.529Z" style="fill:rgb(78,168,191);fill-opacity:0.6;"/>            <path d="M697.269,502.995l-15.747,9.708l11.454,23.135l19.853,-12.308l-15.56,-20.535Z" style="fill:rgb(78,168,191);fill-opacity:0.6;"/>            <path d="M733.911,508.446l-21.744,4.597l5.495,22.549l22.842,-7.596l-6.593,-19.55Z" style="fill:rgb(78,168,191);fill-opacity:0.6;"/>            <path d="M750.361,543.284l-17.672,-7.401l-8.894,15.842l14.722,8.275l11.844,-16.716Z" style="fill:rgb(78,168,191);fill-opacity:0.6;"/>            <path d="M781.859,540.278l-22.093,5.688l8.571,20.018l20.045,-7.017l-6.523,-18.689Z" style="fill:rgb(78,168,191);fill-opacity:0.6;"/>            <path d="M786.916,559.481l-12.25,-3.848l-8.335,19.007l15.326,4.996l5.259,-20.155Z" style="fill:rgb(78,168,191);fill-opacity:0.6;"/>            <path d="M775.827,565.148l-25.173,-11.983l-12.695,29.549l25.784,13.356l12.084,-30.922Z" style="fill:rgb(78,168,191);fill-opacity:0.6;"/>            <path d="M775.976,600.031l-14.786,-39.777l-36.682,13.657l12.942,36.829l38.526,-10.709Z" style="fill:rgb(78,168,191);fill-opacity:0.6;"/>            <path d="M758.331,603.8l-2.409,-20.784l-19.721,4.404l0.562,17.072l21.568,-0.692Z" style="fill:rgb(78,168,191);fill-opacity:0.6;"/>            <path d="M807.571,638.647l-3.669,-23.155l-25.589,7.139l8.782,22.864l20.476,-6.848Z" style="fill:rgb(78,168,191);fill-opacity:0.6;"/>        </g>        <g transform="matrix(1,0,0,1,-0.493972,0)">            <path d="M748.745,340.94l24.061,-3.985l1.471,7.731l-25.141,3.246l-0.391,-6.992Z" style="fill:rgb(1,102,210);fill-opacity:0.6;"/>            <path d="M742.298,347.826l27.874,37.65l-10.148,6.66l-24.842,-40.624l7.116,-3.686Z" style="fill:rgb(1,102,210);fill-opacity:0.6;"/>            <path d="M738.683,354.441l6.44,22.854l-6.287,2.331l-6.882,-23.095l6.729,-2.09Z" style="fill:rgb(1,102,210);fill-opacity:0.6;"/>            <path d="M761.684,384.979l18.53,9.342l-2.824,7.614l-19.759,-10.935l4.053,-6.021Z" style="fill:rgb(1,102,210);fill-opacity:0.6;"/>            <path d="M742.951,400.353l39.605,-10.569l4.584,12.025l-40.68,11.221l-3.509,-12.677Z" style="fill:rgb(1,102,210);fill-opacity:0.6;"/>            <path d="M752.306,425.147l19.276,-13.661l3.575,4.34l-19.243,14.362l-3.608,-5.041Z" style="fill:rgb(1,102,210);fill-opacity:0.6;"/>            <path d="M754.91,440.229l21.516,-21.566l6.755,7.231l-22.616,21.227l-5.655,-6.892Z" style="fill:rgb(1,102,210);fill-opacity:0.6;"/>            <path d="M782.731,448.147l-6.327,-20.452l7.287,-0.343l6.302,19.92l-7.262,0.875Z" style="fill:rgb(1,102,210);fill-opacity:0.6;"/>            <path d="M766.282,463.082l3.25,-33.761l10.162,-0.208l-5.446,34.688l-7.966,-0.719Z" style="fill:rgb(1,102,210);fill-opacity:0.6;"/>            <path d="M777.082,465.305l-2.774,-20.436l7.016,0.931l2.529,18.863l-6.771,0.642Z" style="fill:rgb(1,102,210);fill-opacity:0.6;"/>            <path d="M777.256,466.447l18.543,-10.573l3.592,6.082l-18.171,10.979l-3.964,-6.488Z" style="fill:rgb(1,102,210);fill-opacity:0.6;"/>            <path d="M786.637,428.904l21.9,-6.912l1.44,6.631l-22.874,5.391l-0.466,-5.11Z" style="fill:rgb(1,102,210);fill-opacity:0.6;"/>            <path d="M793.943,439.227l4.785,-4.677l17.489,15.02l-3.657,5.968l-18.617,-16.311Z" style="fill:rgb(1,102,210);fill-opacity:0.6;"/>            <path d="M772.7,483.665l5.836,-1.046l9.414,20.639l-7.564,0.547l-7.686,-20.14Z" style="fill:rgb(1,102,210);fill-opacity:0.6;"/>            <path d="M793.011,479.55l-0.896,-8.867l28.82,-1.957l-0.029,9.212l-27.895,1.612Z" style="fill:rgb(1,102,210);fill-opacity:0.6;"/>            <path d="M807.738,495.255l-4.229,-13.658l44.853,-14.951l3.945,11.485l-44.569,17.124Z" style="fill:rgb(1,102,210);fill-opacity:0.6;"/>            <path d="M783.262,507.778l0.689,-9.561l33.819,4.228l-0.887,10.129l-33.621,-4.796Z" style="fill:rgb(1,102,210);fill-opacity:0.6;"/>            <path d="M812.032,534.674l-4.767,-4.846l13.113,-18.506l5.402,5.314l-13.748,18.038Z" style="fill:rgb(1,102,210);fill-opacity:0.6;"/>            <path d="M815.541,563.454l-4.941,-7.34l33.173,-31.954l7.575,10.116l-35.807,29.178Z" style="fill:rgb(1,102,210);fill-opacity:0.6;"/>            <path d="M771.559,600.46l-8.733,-11.266l36.112,-27.622l9.227,11.588l-36.606,27.3Z" style="fill:rgb(1,102,210);fill-opacity:0.6;"/>            <path d="M739.714,545.707l-7.28,-7.003l17.655,-27.263l8.397,6.661l-18.772,27.605Z" style="fill:rgb(1,102,210);fill-opacity:0.6;"/>            <path d="M739.714,542.637l-0.101,-7.444l31.784,-1.275l-0.212,7.074l-31.471,1.645Z" style="fill:rgb(1,102,210);fill-opacity:0.6;"/>            <path d="M719.87,539.386l10.886,-20.724l6.57,1.95l-10.857,21.481l-6.599,-2.707Z" style="fill:rgb(1,102,210);fill-opacity:0.6;"/>            <path d="M744.404,538.33l6.095,0.314l0.896,11.507l-6.167,0.358l-0.824,-12.179Z" style="fill:rgb(1,102,210);fill-opacity:0.6;"/>            <path d="M774.097,513.249l4.044,-5.185l20.629,9.641l-3.552,5.581l-21.121,-10.037Z" style="fill:rgb(1,102,210);fill-opacity:0.6;"/>            <path d="M729.674,447.523l12.801,-22.317l5.406,3.286l-12.603,22.598l-5.604,-3.567Z" style="fill:rgb(1,102,210);fill-opacity:0.6;"/>            <path d="M692.403,404.277l31.65,3.99l-0.214,9.278l-32.297,-3.681l0.861,-9.587Z" style="fill:rgb(1,102,210);fill-opacity:0.6;"/>            <path d="M671.816,391.237l22.95,9.388l-0.51,7.103l-25.356,-8.886l2.916,-7.605Z" style="fill:rgb(1,102,210);fill-opacity:0.6;"/>            <path d="M654.606,444.924l32.564,-28.114l8.861,10.614l-32.463,27.617l-8.962,-10.117Z" style="fill:rgb(1,102,210);fill-opacity:0.6;"/>            <path d="M702.808,432.695l11.691,18.719l-8.226,4.149l-12.421,-19.793l8.956,-3.075Z" style="fill:rgb(1,102,210);fill-opacity:0.6;"/>            <path d="M678.874,446.805l-28.425,36.115l-11.841,-9.68l27.631,-34.881l12.635,8.446Z" style="fill:rgb(1,102,210);fill-opacity:0.6;"/>            <path d="M693.781,425.14l20.402,45.269l-15.27,1.271l-14.416,-42.439l9.284,-4.101Z" style="fill:rgb(1,102,210);fill-opacity:0.6;"/>            <path d="M706.094,482.923l15.824,22.45l-4.723,4.036l-16.5,-21.338l5.399,-5.148Z" style="fill:rgb(1,102,210);fill-opacity:0.6;"/>            <path d="M708.008,493.21l28.262,6.045l-3.568,7.41l-25.568,-5.3l0.874,-8.155Z" style="fill:rgb(1,102,210);fill-opacity:0.6;"/>            <path d="M658.908,469.003l26.173,25.993l-7.648,8.421l-28.705,-29.911l10.18,-4.503Z" style="fill:rgb(1,102,210);fill-opacity:0.6;"/>            <path d="M637.605,489.779l1.493,24.748l-7.444,1.324l-1.212,-25.142l7.163,-0.93Z" style="fill:rgb(1,102,210);fill-opacity:0.6;"/>            <path d="M667.896,544.218l2.266,7.104l-23.092,6.886l-2.019,-7.065l22.845,-6.925Z" style="fill:rgb(1,102,210);fill-opacity:0.6;"/>            <path d="M686.284,552.954l2.466,9.774l-33.391,12.772l-3.569,-10.052l34.494,-12.494Z" style="fill:rgb(1,102,210);fill-opacity:0.6;"/>            <path d="M709.705,562.167l9.184,11.773l-34.789,29.981l-8.679,-10.305l34.284,-31.449Z" style="fill:rgb(1,102,210);fill-opacity:0.6;"/>            <path d="M725.166,592.805l13.579,-0.793l-0.343,43.486l-12.354,-0.114l-0.882,-42.579Z" style="fill:rgb(1,102,210);fill-opacity:0.6;"/>            <path d="M766.476,591.784l5.167,11.843l-38.952,19.006l-5.169,-12.987l38.954,-17.862Z" style="fill:rgb(1,102,210);fill-opacity:0.6;"/>            <path d="M816.24,586.393l6.933,7.993l-36.753,25.272l-6.888,-8.649l36.708,-24.616Z" style="fill:rgb(1,102,210);fill-opacity:0.6;"/>            <path d="M840.948,591.31l0.376,6.266l-34.847,0.084l0.805,-7.675l33.666,1.325Z" style="fill:rgb(1,102,210);fill-opacity:0.6;"/>            <path d="M812.903,582.239l-4.192,5.73l-15.83,-9.993l2.975,-6.582l17.047,10.845Z" style="fill:rgb(1,102,210);fill-opacity:0.6;"/>            <path d="M825.462,578.781l-4.445,6.756l-22.85,-9.574l4.951,-6.879l22.344,9.697Z" style="fill:rgb(1,102,210);fill-opacity:0.6;"/>            <path d="M833.063,592.984l-8.001,1.476l-2.728,-25.292l7.673,-0.811l3.056,24.627Z" style="fill:rgb(1,102,210);fill-opacity:0.6;"/>            <path d="M850.178,588.259l-5.137,3.475l-12.396,-17.375l6.171,-3.354l11.362,17.254Z" style="fill:rgb(1,102,210);fill-opacity:0.6;"/>            <path d="M858.312,624.162l-7.824,3.774l-11.804,-28.564l7.835,-3.833l11.793,28.623Z" style="fill:rgb(1,102,210);fill-opacity:0.6;"/>            <path d="M648.092,472.662l35.087,-8.912l3.169,8.052l-34.126,10.834l-4.13,-9.974Z" style="fill:rgb(1,102,210);fill-opacity:0.6;"/>            <path d="M810.608,340.706l33.517,24.791l-7.468,10.292l-34.786,-23.385l8.737,-11.698Z" style="fill:rgb(1,102,210);fill-opacity:0.6;"/>            <path d="M856.497,358.435l2.641,25.059l-5.801,-0.164l-4.661,-24.361l7.821,-0.534Z" style="fill:rgb(1,102,210);fill-opacity:0.6;"/>            <path d="M884.374,385.75l3.145,33.005l-9.828,0.081l-1.864,-33.405l8.547,0.319Z" style="fill:rgb(1,102,210);fill-opacity:0.6;"/>            <path d="M853.762,385.549l15.75,19.397l-4.364,2.687l-15.295,-18.185l3.909,-3.899Z" style="fill:rgb(1,102,210);fill-opacity:0.6;"/>            <path d="M844.916,409.535l28.85,9.387l-2.362,7.417l-29.67,-8.237l3.182,-8.567Z" style="fill:rgb(1,102,210);fill-opacity:0.6;"/>            <path d="M859.666,408.522l1.934,43.159l-9.186,-0.292l-0.43,-42.718l7.682,-0.149Z" style="fill:rgb(1,102,210);fill-opacity:0.6;"/>            <path d="M897.412,396.485l28.262,30.892l-4.862,8.633l-31.521,-31.217l8.121,-8.308Z" style="fill:rgb(1,102,210);fill-opacity:0.6;"/>            <path d="M825.084,426.912l13.903,14.585l-3.58,5.289l-14.874,-14.974l4.551,-4.9Z" style="fill:rgb(1,102,210);fill-opacity:0.6;"/>            <path d="M836.27,454.97l22.399,24.919l-4.302,6.656l-23.569,-23.624l5.472,-7.951Z" style="fill:rgb(1,102,210);fill-opacity:0.6;"/>            <path d="M899.046,469.436l28.494,4.928l-0.325,8.205l-29.333,-4.211l1.164,-8.922Z" style="fill:rgb(1,102,210);fill-opacity:0.6;"/>            <path d="M893.947,488.395l16.754,15.605l-3.725,6.416l-16.701,-15.744l3.672,-6.277Z" style="fill:rgb(1,102,210);fill-opacity:0.6;"/>            <path d="M858.734,509.969l33.408,-3.613l0.699,8.61l-33.598,4.001l-0.509,-8.998Z" style="fill:rgb(1,102,210);fill-opacity:0.6;"/>            <path d="M830.729,492.577l27.003,20.76l-3.947,5.71l-27.787,-21.079l4.731,-5.391Z" style="fill:rgb(1,102,210);fill-opacity:0.6;"/>            <path d="M859.841,530.328l14.957,-11.62l4.304,4.602l-17.243,12.531l-2.018,-5.513Z" style="fill:rgb(1,102,210);fill-opacity:0.6;"/>            <path d="M849.229,547.232l42.765,-19.872l5.984,8.809l-44.66,23.102l-4.089,-12.039Z" style="fill:rgb(1,102,210);fill-opacity:0.6;"/>            <path d="M881.545,544.932l30.93,-10.515l1.679,8.455l-30.388,10.294l-2.221,-8.234Z" style="fill:rgb(1,102,210);fill-opacity:0.6;"/>            <path d="M888.391,563.214l25.944,-17.316l6.156,6.882l-26.655,17.742l-5.445,-7.308Z" style="fill:rgb(1,102,210);fill-opacity:0.6;"/>            <path d="M893.267,555.183l31.074,12.618l-2.649,8.808l-30.976,-11.892l2.551,-9.534Z" style="fill:rgb(1,102,210);fill-opacity:0.6;"/>            <path d="M902.003,553.808l7.849,0.987l-6.111,22.544l-7.178,0.822l5.44,-24.353Z" style="fill:rgb(1,102,210);fill-opacity:0.6;"/>        </g>        <g>            <g transform="matrix(1,0,0,1,-3.85417,-21.5892)">                <path d="M767.249,469.309l-9.158,49.078l-37.475,-30.197l46.633,-18.881Z" style="fill:rgb(225,82,5);fill-opacity:0.69;"/>            </g>            <g transform="matrix(1,0,0,1,48.7514,-65.49)">                <path d="M747.809,452.089l13.535,40.704l-40.728,-4.603l27.193,-36.101Z" style="fill:rgb(225,82,5);fill-opacity:0.69;"/>            </g>            <g transform="matrix(1,0,0,1,48.7514,-65.49)">                <path d="M751.375,420.481l16.943,41.689l-44.218,-12.987l27.275,-28.702Z" style="fill:rgb(225,82,5);fill-opacity:0.69;"/>            </g>            <g transform="matrix(1,0,0,1,48.7514,-65.49)">                <path d="M765.005,446.981l1.962,38.011l-33.151,-22.383l31.189,-15.628Z" style="fill:rgb(225,82,5);fill-opacity:0.69;"/>            </g>            <g transform="matrix(1,0,0,1,48.7514,-65.49)">                <path d="M695.628,419.149l35.378,17.767l-35.786,24.518l0.408,-42.285Z" style="fill:rgb(225,82,5);fill-opacity:0.69;"/>            </g>            <g transform="matrix(1,0,0,1,48.7514,-65.49)">                <path d="M662.789,423.175l37.961,36.877l-54.475,13.607l16.514,-50.484Z" style="fill:rgb(225,82,5);fill-opacity:0.69;"/>            </g>            <g transform="matrix(1,0,0,1,48.7514,-65.49)">                <path d="M721.232,389.761l14.118,22.394l-28.56,-0.109l14.442,-22.285Z" style="fill:rgb(225,82,5);fill-opacity:0.69;"/>            </g>            <g transform="matrix(1,0,0,1,48.7514,-65.49)">                <path d="M633.118,446.095l39.196,4.472l-14.888,-34.169l-24.308,29.697Z" style="fill:rgb(225,82,5);fill-opacity:0.69;"/>            </g>            <g transform="matrix(1,0,0,1,48.7514,-65.49)">                <path d="M639.16,494.603l-15.988,39.777l40.488,-12.659l-24.5,-27.118Z" style="fill:rgb(225,82,5);fill-opacity:0.69;"/>            </g>            <g transform="matrix(1,0,0,1,48.7514,-65.49)">                <path d="M603.757,531.469l0.399,18.773l21.224,-11.154l-21.623,-7.619Z" style="fill:rgb(225,82,5);fill-opacity:0.69;"/>            </g>            <g transform="matrix(1,0,0,1,48.7514,-65.49)">                <path d="M621.248,543.359l31.465,20.691l-3.724,-32.62l-27.741,11.929Z" style="fill:rgb(225,82,5);fill-opacity:0.69;"/>            </g>            <g transform="matrix(1,0,0,1,48.7514,-65.49)">                <path d="M588.912,576.548l21.47,6.148l-7.011,-18.617l-14.459,12.469Z" style="fill:rgb(225,82,5);fill-opacity:0.69;"/>            </g>            <g transform="matrix(1,0,0,1,48.7514,-65.49)">                <path d="M639.009,583.655l24.281,-12.852l-22.374,-14.698l-1.907,27.55Z" style="fill:rgb(225,82,5);fill-opacity:0.69;"/>            </g>            <g transform="matrix(1,0,0,1,48.7514,-65.49)">                <path d="M626.371,636.285l18.446,27.599l-34.716,-2.065l16.27,-25.534Z" style="fill:rgb(225,82,5);fill-opacity:0.69;"/>            </g>            <g transform="matrix(1,0,0,1,48.7514,-65.49)">                <path d="M661.655,596.361l22.709,33.121l-43.529,0.452l20.82,-33.573Z" style="fill:rgb(225,82,5);fill-opacity:0.69;"/>            </g>            <g transform="matrix(1,0,0,1,48.7514,-65.49)">                <path d="M673.07,643.643l30.358,32.056l-38.661,8.303l8.303,-40.359Z" style="fill:rgb(225,82,5);fill-opacity:0.69;"/>            </g>            <g transform="matrix(1,0,0,1,48.7514,-65.49)">                <path d="M691.474,611.002l21.527,35.875l-44.497,-5.235l22.97,-30.64Z" style="fill:rgb(225,82,5);fill-opacity:0.69;"/>            </g>            <g transform="matrix(1,0,0,1,48.7514,-65.49)">                <path d="M673.178,459.544l40.834,9.569l-27.763,36.076l-13.071,-45.645Z" style="fill:rgb(225,82,5);fill-opacity:0.69;"/>            </g>            <g transform="matrix(1,0,0,1,48.7514,-65.49)">                <path d="M713.491,477.125l20.752,38.925l-44.23,-4.079l23.478,-34.846Z" style="fill:rgb(225,82,5);fill-opacity:0.69;"/>            </g>            <g transform="matrix(1,0,0,1,48.7514,-65.49)">                <path d="M698.607,492.155l12.194,17.449l-22.102,-0.867l9.908,-16.582Z" style="fill:rgb(225,82,5);fill-opacity:0.69;"/>            </g>            <g transform="matrix(1,0,0,1,48.7514,-65.49)">                <path d="M699.409,585.795l-29.394,-5.342l18.109,-23.667l11.285,29.009Z" style="fill:rgb(225,82,5);fill-opacity:0.69;"/>            </g>            <g transform="matrix(1,0,0,1,48.7514,-65.49)">                <path d="M680.141,593.612l-24.802,-14.537l24.757,-14.641l0.045,29.178Z" style="fill:rgb(225,82,5);fill-opacity:0.69;"/>            </g>            <g transform="matrix(1,0,0,1,48.7514,-65.49)">                <path d="M712.438,566.244l-20.281,-0.13l11.027,-16.951l9.254,17.081Z" style="fill:rgb(225,82,5);fill-opacity:0.69;"/>            </g>            <g transform="matrix(1,0,0,1,48.7514,-65.49)">                <path d="M700.153,591.443l-11.609,-24.326l25.371,0.578l-13.762,23.748Z" style="fill:rgb(225,82,5);fill-opacity:0.69;"/>            </g>            <g transform="matrix(1,0,0,1,48.7514,-65.49)">                <path d="M700.243,608.965l-16.904,-22.751l28.143,-5.077l-11.239,27.828Z" style="fill:rgb(225,82,5);fill-opacity:0.69;"/>            </g>            <g transform="matrix(1,0,0,1,48.7514,-65.49)">                <path d="M745.202,579.794l-25.224,12.213l3.259,-27.847l21.965,15.634Z" style="fill:rgb(225,82,5);fill-opacity:0.69;"/>            </g>            <g transform="matrix(1,0,0,1,48.7514,-65.49)">                <path d="M757.995,552.266l-20.837,16.744l2.49,-26.799l18.347,10.055Z" style="fill:rgb(225,82,5);fill-opacity:0.69;"/>            </g>            <g transform="matrix(1,0,0,1,48.7514,-65.49)">                <path d="M765.377,590.341l-17.391,8.418l1.465,-24.956l15.926,16.538Z" style="fill:rgb(225,82,5);fill-opacity:0.69;"/>            </g>            <g transform="matrix(1,0,0,1,48.7514,-65.49)">                <path d="M748.621,586.97l-5.193,33.175l-22.776,-17.969l27.969,-15.206Z" style="fill:rgb(225,82,5);fill-opacity:0.69;"/>            </g>            <g transform="matrix(1,0,0,1,48.7514,-65.49)">                <path d="M740.747,602.81l-11.363,17.728l-12.103,-15.302l23.466,-2.426Z" style="fill:rgb(225,82,5);fill-opacity:0.69;"/>            </g>            <g transform="matrix(1,0,0,1,48.7514,-65.49)">                <path d="M732.504,576.308l25.678,16.161l-27.935,7.711l2.257,-23.872Z" style="fill:rgb(225,82,5);fill-opacity:0.69;"/>            </g>            <g transform="matrix(1,0,0,1,48.7514,-65.49)">                <path d="M725.943,626.64l-18.98,15.314l-0.634,-25.88l19.614,10.566Z" style="fill:rgb(225,82,5);fill-opacity:0.69;"/>            </g>            <g transform="matrix(1,0,0,1,41.6694,-57.8046)">                <path d="M727.471,658.739l-22.569,-17.756l24.417,-11.476l-1.848,29.232Z" style="fill:rgb(225,82,5);fill-opacity:0.69;"/>            </g>            <g transform="matrix(1,0,0,1,41.6694,-57.8046)">                <path d="M730.425,652.093l19.863,21.973l7.875,-27.255l-27.738,5.282Z" style="fill:rgb(225,82,5);fill-opacity:0.69;"/>            </g>            <g transform="matrix(1,0,0,1,41.6694,-57.8046)">                <path d="M731.781,696.328l31.316,12.874l-5.371,-37.794l-25.945,24.92Z" style="fill:rgb(225,82,5);fill-opacity:0.69;"/>            </g>            <g transform="matrix(1,0,0,1,41.6694,-57.8046)">                <path d="M764.441,696.288l19.679,5.031l-2.653,-17.769l-17.026,12.738Z" style="fill:rgb(225,82,5);fill-opacity:0.69;"/>            </g>            <g transform="matrix(1,0,0,1,41.6694,-57.8046)">                <path d="M767.419,671.76l36.788,32.317l5.187,-45.621l-41.975,13.304Z" style="fill:rgb(225,82,5);fill-opacity:0.69;"/>            </g>            <g transform="matrix(1,0,0,1,41.6694,-57.8046)">                <path d="M744.276,655.642l39.265,28.936l1.455,-48.072l-40.72,19.136Z" style="fill:rgb(225,82,5);fill-opacity:0.69;"/>            </g>            <g transform="matrix(1,0,0,1,41.6694,-57.8046)">                <path d="M778.617,648.673l54.605,-5.971l-26.648,-41.997l-27.957,47.968Z" style="fill:rgb(225,82,5);fill-opacity:0.69;"/>            </g>            <g transform="matrix(1,0,0,1,41.6694,-57.8046)">                <path d="M807.186,644.086l44.853,0.776l-18.026,-37.119l-26.827,36.343Z" style="fill:rgb(225,82,5);fill-opacity:0.69;"/>            </g>            <g transform="matrix(1,0,0,1,41.6694,-57.8046)">                <path d="M808.078,673.532l33.911,-10.71l-29.763,-32.061l-4.148,42.771Z" style="fill:rgb(225,82,5);fill-opacity:0.69;"/>            </g>            <g transform="matrix(1,0,0,1,41.6694,-57.8046)">                <path d="M852.464,653.367l19.601,-21.777l-28.621,-7.228l9.02,29.005Z" style="fill:rgb(225,82,5);fill-opacity:0.69;"/>            </g>            <g transform="matrix(1,0,0,1,41.6694,-57.8046)">                <path d="M743.214,652.451l18.543,-8.269l-17.767,-8.467l-0.776,16.736Z" style="fill:rgb(225,82,5);fill-opacity:0.69;"/>            </g>            <g transform="matrix(1,0,0,1,41.6694,-57.8046)">                <path d="M780.553,574.044l40.327,-31.001l-41.971,-18.101l1.644,49.102Z" style="fill:rgb(225,82,5);fill-opacity:0.69;"/>            </g>            <g transform="matrix(1,0,0,1,41.6694,-57.8046)">                <path d="M754.798,514.974l31.945,9.512l-13.983,-28.445l-17.962,18.933Z" style="fill:rgb(225,82,5);fill-opacity:0.69;"/>            </g>            <g transform="matrix(1,0,0,1,41.6694,-57.8046)">                <path d="M755.684,530.713l22.068,4.685l-4.11,-19.956l-17.958,15.271Z" style="fill:rgb(225,82,5);fill-opacity:0.69;"/>            </g>            <g transform="matrix(1,0,0,1,41.6694,-57.8046)">                <path d="M806.873,545.679l8.619,33.426l22.497,-24.775l-31.116,-8.651Z" style="fill:rgb(225,82,5);fill-opacity:0.69;"/>            </g>            <g transform="matrix(1,0,0,1,41.6694,-57.8046)">                <path d="M822.782,565.084l3.564,24.174l16.014,-17.326l-19.578,-6.848Z" style="fill:rgb(225,82,5);fill-opacity:0.69;"/>            </g>            <g transform="matrix(1,0,0,1,41.6694,-57.8046)">                <path d="M847.539,556.311l-15.739,46.668l52.579,-8.044l-36.84,-38.624Z" style="fill:rgb(225,82,5);fill-opacity:0.69;"/>            </g>            <g transform="matrix(1,0,0,1,41.6694,-57.8046)">                <path d="M813.203,533.961l30.717,37.861l7.79,-47.518l-38.507,9.657Z" style="fill:rgb(225,82,5);fill-opacity:0.69;"/>            </g>            <g transform="matrix(1,0,0,1,41.6694,-57.8046)">                <path d="M824.464,512.513l32.003,25.787l9.645,-32.203l-41.648,6.416Z" style="fill:rgb(225,82,5);fill-opacity:0.69;"/>            </g>            <g transform="matrix(1,0,0,1,41.6694,-57.8046)">                <path d="M796.206,510.977l9.68,26.447l19.163,-21.948l-28.843,-4.499Z" style="fill:rgb(225,82,5);fill-opacity:0.69;"/>            </g>            <g transform="matrix(1,0,0,1,41.6694,-57.8046)">                <path d="M815.281,520.769l25.419,9.782l-1.341,-27.676l-24.078,17.894Z" style="fill:rgb(225,82,5);fill-opacity:0.69;"/>            </g>            <g transform="matrix(1,0,0,1,41.6694,-57.8046)">                <path d="M806.918,503.679l35.025,15.833l-4.315,-35.205l-30.71,19.372Z" style="fill:rgb(225,82,5);fill-opacity:0.69;"/>            </g>            <g transform="matrix(1,0,0,1,41.6694,-57.8046)">                <path d="M828.479,501.802l39.941,-8.184l-24.705,-31.857l-15.236,40.041Z" style="fill:rgb(225,82,5);fill-opacity:0.69;"/>            </g>            <g transform="matrix(1,0,0,1,41.6694,-57.8046)">                <path d="M848.781,490.215l42.643,21.7l-1.547,-42.312l-41.096,20.612Z" style="fill:rgb(225,82,5);fill-opacity:0.69;"/>            </g>            <g transform="matrix(1,0,0,1,41.6694,-57.8046)">                <path d="M855.186,480.036l15.019,-17.406l-17.609,-1.929l2.59,19.335Z" style="fill:rgb(225,82,5);fill-opacity:0.69;"/>            </g>            <g transform="matrix(1,0,0,1,41.6694,-57.8046)">                <path d="M823.492,483.012l13.474,-17.963l-21.977,-4.611l8.503,22.574Z" style="fill:rgb(225,82,5);fill-opacity:0.69;"/>            </g>            <g transform="matrix(1,0,0,1,41.6694,-57.8046)">                <path d="M814.222,501.65l9.886,-20.315l-22.392,1.25l12.506,19.065Z" style="fill:rgb(225,82,5);fill-opacity:0.69;"/>            </g>            <g transform="matrix(1,0,0,1,41.6694,-57.8046)">                <path d="M801.826,486.877l11.585,-19.633l-18.496,-1.101l6.911,20.734Z" style="fill:rgb(225,82,5);fill-opacity:0.69;"/>            </g>            <g transform="matrix(1,0,0,1,41.6694,-57.8046)">                <path d="M800.669,513.43l18.933,-1.619l-11.545,-17.694l-7.388,19.313Z" style="fill:rgb(225,82,5);fill-opacity:0.69;"/>            </g>            <g transform="matrix(1,0,0,1,41.6694,-57.8046)">                <path d="M812.06,450.923l7.549,-25.16l-21.63,3.3l14.081,21.86Z" style="fill:rgb(225,82,5);fill-opacity:0.69;"/>            </g>            <g transform="matrix(1,0,0,1,41.6694,-57.8046)">                <path d="M836.044,442.84l-9.008,-16.257l-10.479,15.032l19.487,1.225Z" style="fill:rgb(225,82,5);fill-opacity:0.69;"/>            </g>            <g transform="matrix(1,0,0,1,41.6694,-57.8046)">                <path d="M783.646,445.355l3.986,-29.107l-29.421,3.088l25.435,26.019Z" style="fill:rgb(225,82,5);fill-opacity:0.69;"/>            </g>            <g transform="matrix(1,0,0,1,41.6694,-57.8046)">                <path d="M785.674,454.302l18.378,-9.211l-19.493,-10.28l1.115,19.491Z" style="fill:rgb(225,82,5);fill-opacity:0.69;"/>            </g>        </g>        <g transform="matrix(2.50663,0,0,1.0885,-315.693,241.577)">            <g transform="matrix(0.398942,0,0,0.918698,125.943,-221.936)">                <path d="M92.562,461.291l-26.961,0c-1.104,0 -2,-0.895 -2,-2l0,-21.398c0,-1.105 0.896,-2 2,-2l85.235,0c1.104,0 2,0.895 2,2l0,21.398c0,1.105 -0.896,2 -2,2l-28.891,0l0,87.164c0,1.105 -0.895,2 -2,2l-25.383,0c-1.104,0 -2,-0.895 -2,-2l0,-87.164Z" style="fill:rgb(76,78,77);fill-rule:nonzero;"/>            </g>            <g transform="matrix(0.398942,0,0,0.918698,125.943,-221.936)">                <path d="M190.336,475.703c3.81,-5.636 7.596,-8.661 11.398,-10.321c5.016,-2.191 10.135,-1.979 15.637,-1.979c1.104,0 2,0.896 2,2l0,22.232c0,0.536 -0.216,1.05 -0.598,1.426c-0.383,0.376 -0.901,0.583 -1.437,0.573c-15.837,-0.274 -27,10.26 -27,22.313l0,37.508c0,1.105 -0.896,2 -2,2l-20.821,0c-1.104,0 -2,-0.895 -2,-2l0,-81.484c0,-1.105 0.896,-2 2,-2l20.821,0c1.104,0 2,0.895 2,2l0,7.732Z" style="fill:rgb(76,78,77);fill-rule:nonzero;"/>            </g>            <g transform="matrix(0.398942,0,0,0.918698,125.943,-221.936)">                <path d="M259.375,465.971c0,-1.105 -0.896,-2 -2,-2l-21.821,0c-1.104,0 -2,0.895 -2,2l0,82.484c0,1.105 0.896,2 2,2l21.821,0c1.104,0 2,-0.895 2,-2l0,-82.484Z" style="fill:rgb(76,78,77);fill-rule:nonzero;"/>            </g>            <g transform="matrix(0.398942,0,0,0.918698,125.943,-221.936)">                <path d="M389.375,465.971c0,-1.105 -0.896,-2 -2,-2l-21.821,0c-1.104,0 -2,0.895 -2,2l0,82.484c0,1.105 0.896,2 2,2l21.821,0c1.104,0 2,-0.895 2,-2l0,-82.484Z" style="fill:rgb(76,78,77);fill-rule:nonzero;"/>            </g>            <g transform="matrix(0.398942,0,0,0.918698,125.943,-221.936)">                <path d="M302.234,429.697c0,-1.104 -0.895,-2 -2,-2l-21.82,0c-1.105,0 -2,0.896 -2,2l0,118.758c0,1.105 0.895,2 2,2l21.82,0c1.105,0 2,-0.895 2,-2l0,-118.758Z" style="fill:rgb(76,78,77);fill-rule:nonzero;"/>            </g>            <g transform="matrix(0.398942,0,0,0.918698,125.943,-221.936)">                <path d="M345.175,429.697c0,-1.104 -0.895,-2 -2,-2l-21.82,0c-1.105,0 -2,0.896 -2,2l0,118.758c0,1.105 0.895,2 2,2l21.82,0c1.105,0 2,-0.895 2,-2l0,-118.758Z" style="fill:rgb(76,78,77);fill-rule:nonzero;"/>            </g>            <g transform="matrix(0.398942,0,0,0.918698,125.943,-221.936)">                <path d="M404.758,505.839c0,13.326 4.422,24.383 13.226,33.187c8.802,8.921 19.722,13.398 32.761,13.398c13.135,0 24.215,-4.381 33.249,-13.118c9,-8.822 13.507,-19.744 13.507,-32.784c0,-12.918 -4.473,-23.809 -13.403,-32.68c-9.048,-8.87 -20.047,-13.307 -33.012,-13.307c-12.907,0 -23.849,4.409 -32.831,13.213c-8.999,8.819 -13.497,19.517 -13.497,32.091Zm23.644,0.341c0,-7.181 2.073,-13.057 6.298,-17.599c4.178,-4.492 9.649,-6.707 16.386,-6.707c6.848,0 12.376,2.212 16.558,6.707c4.177,4.495 6.212,10.517 6.212,18.027c0,7.509 -2.035,13.531 -6.213,18.026c-4.128,4.443 -9.658,6.622 -16.557,6.622c-6.847,0 -12.376,-2.212 -16.557,-6.708c-4.123,-4.493 -6.127,-10.633 -6.127,-18.368Z" style="fill:rgb(76,78,77);fill-rule:nonzero;"/>            </g>            <g transform="matrix(0.398942,0,0,0.918698,125.943,-221.936)">                <path d="M538.132,468.056c6.26,-5.027 13.172,-7.521 20.719,-7.521c10.33,0 18.357,3.309 24.12,9.8c4.923,5.463 7.518,14.34 7.518,26.706l0,50.991c0,1.105 -0.895,2 -2,2l-19.303,0c-1.105,0 -2,-0.895 -2,-2c0,0 0,-46.464 0,-46.464c0,-7.619 -0.918,-12.91 -3.058,-15.854c-1.907,-2.739 -5.449,-3.926 -10.487,-3.926c-5.559,0 -9.559,1.72 -11.888,5.387c-2.489,3.949 -3.621,10.867 -3.621,20.714l0,40.143c0,1.105 -0.896,2 -2,2l-19.303,0c-1.105,0 -2,-0.895 -2,-2l0,-83.191c0,-1.104 0.895,-2 2,-2l19.303,0c1.104,0 2,0.896 2,2l0,3.215Z" style="fill:rgb(76,78,77);fill-rule:nonzero;"/>            </g>            <g transform="matrix(0.398942,0,0,0.918698,125.943,-221.936)">                <path d="M1005.01,505.775l0,42.68c0,1.105 -0.896,2 -2,2l-21.383,0c-1.104,0 -2,-0.895 -2,-2l0,-108.562c0,-1.105 0.896,-2 2,-2l77.211,0c1.105,0 2,0.895 2,2l0,19.398c0,1.105 -0.895,2 -2,2l-53.828,0l0,21.086l46.492,0c1.105,0 2,0.895 2,2l0,19.398c0,1.105 -0.895,2 -2,2l-46.492,0Z" style="fill:rgb(76,78,77);fill-rule:nonzero;"/>            </g>            <g transform="matrix(0.398942,0,0,0.918698,125.943,-221.936)">                <path d="M1082.94,530.798c-1.673,-4.082 -2.553,-10.13 -2.553,-18.155l0,-48.648c0,-1.105 0.895,-2 2,-2l19.407,0c1.105,0 2,0.895 2,2l0,48.217c0,7.595 1.625,12.969 5.222,16.007c2.309,1.95 5.405,2.867 9.253,2.867c3.848,0 6.945,-0.917 9.254,-2.867c3.596,-3.038 5.221,-8.412 5.221,-16.007l0,-48.217c0,-1.105 0.896,-2 2,-2l19.408,0c1.105,0 2,0.895 2,2l0,48.648c0,6.979 -0.879,13 -2.625,18.116c-1.718,4.665 -4.683,8.879 -8.932,12.635c-6.902,5.995 -15.669,9.03 -26.326,9.03c-10.597,0 -19.335,-3.034 -26.242,-9.032c-4.287,-3.736 -7.308,-7.941 -9.087,-12.594Z" style="fill:rgb(76,78,77);fill-rule:nonzero;"/>            </g>            <g transform="matrix(0.398942,0,0,0.918698,125.943,-221.936)">                <path d="M1200.14,467.283c6.325,-5.091 13.313,-7.617 20.944,-7.617c10.426,0 18.528,3.34 24.344,9.891c4.969,5.514 7.587,14.474 7.587,26.957l0,51.495c0,1.104 -0.895,2 -2,2l-19.494,0c-1.104,0 -2,-0.896 -2,-2c0,0 0,-46.924 0,-46.924c0,-7.7 -0.929,-13.048 -3.091,-16.022c-1.93,-2.77 -5.512,-3.973 -10.608,-3.973c-5.622,0 -9.667,1.74 -12.022,5.449c-2.515,3.99 -3.66,10.98 -3.66,20.929l0,40.541c0,1.104 -0.896,2 -2,2l-19.494,0c-1.105,0 -2,-0.896 -2,-2l0,-84.014c0,-1.105 0.895,-2 2,-2l19.494,0c1.104,0 2,0.895 2,2l0,3.288Z" style="fill:rgb(76,78,77);fill-rule:nonzero;"/>            </g>            <g transform="matrix(0.398942,0,0,0.918698,125.943,-221.936)">                <path d="M1340.45,469.095l0,-36.774c0,-1.104 0.896,-2 2,-2l19.494,0c1.105,0 2,0.896 2,2l0,115.688c0,1.104 -0.895,2 -2,2l-19.494,0c-1.104,0 -2,-0.896 -2,-2l0,-4.334c-7.199,5.845 -15.192,8.749 -23.963,8.749c-12.098,0 -22.136,-4.421 -30.139,-13.273c-7.846,-8.924 -11.798,-20.053 -11.798,-33.408c0,-13.073 3.955,-23.978 11.802,-32.722c7.872,-8.903 17.773,-13.355 29.704,-13.355c8.937,0 17.076,3.126 24.394,9.429Zm-42.061,36.648c0,-7.01 2.034,-12.905 6.154,-17.668c4.069,-4.59 9.147,-6.899 15.222,-6.899c6.455,0 11.712,2.264 15.753,6.83c4.113,4.754 6.14,10.824 6.14,18.168c0,7.344 -2.027,13.415 -6.155,18.186c-4.023,4.493 -9.342,6.726 -15.911,6.726c-6.12,0 -11.193,-2.33 -15.221,-6.985c-4.015,-4.712 -5.982,-10.845 -5.982,-18.358Z" style="fill:rgb(76,78,77);"/>            </g>        </g>    </g></svg>