<?xml version="1.0" encoding="UTF-8" standalone="no"?><!DOCTYPE svg PUBLIC "-//W3C//DTD SVG 1.1//EN" "http://www.w3.org/Graphics/SVG/1.1/DTD/svg11.dtd"><svg width="100%" height="100%" viewBox="0 0 1024 512" version="1.1" xmlns="http://www.w3.org/2000/svg" xmlns:xlink="http://www.w3.org/1999/xlink" xml:space="preserve" style="fill-rule:evenodd;clip-rule:evenodd;stroke-linejoin:round;stroke-miterlimit:2;"><title>Sourced Capital</title><desc>At Sourced, it is our mission to be the ultimate brand name for investment services and also packaging investment opportunities by developing and converting projects in partnership with investors across the world.</desc>    <g transform="matrix(2.71032,0,0,2.71032,-659.317,20.0929)">        <g>            <g transform="matrix(0.617094,0,0,0.617094,244.086,42.0004)">                <path d="M116.23,79.23l6.43,-7.63c5.81,5 11.62,7.89 19.17,7.89c6.6,0 10.76,-3 10.76,-7.63l0,-0.18c0,-4.33 -2.43,-6.68 -13.71,-9.28c-12.93,-3.12 -20.22,-6.94 -20.22,-18.13l0,-0.18c0,-10.41 8.68,-17.61 20.74,-17.61c8.006,-0.15 15.81,2.56 22,7.64l-5.73,8.06c-5.46,-4.07 -10.93,-6.24 -16.48,-6.24c-6.25,0 -9.89,3.21 -9.89,7.2l0,0.17c0,4.69 2.77,6.77 14.4,9.55c12.84,3.12 19.52,7.72 19.52,17.78l0,0.18c0,11.36 -8.93,18.13 -21.69,18.13c-9.363,0.05 -18.412,-3.421 -25.34,-9.72" style="fill:rgb(36,31,70);fill-rule:nonzero;"/>            </g>            <g transform="matrix(0.617094,0,0,0.617094,244.086,42.0004)">                <path d="M182.26,57.89l0,-0.17c0,-17.1 13.19,-31.41 31.84,-31.41c18.65,0 31.67,14.14 31.67,31.23l0,0.18c0,17.09 -13.19,31.4 -31.84,31.4c-18.65,0 -31.67,-14.12 -31.67,-31.23m52.32,0l0,-0.17c0,-11.8 -8.59,-21.61 -20.65,-21.61c-12.06,0 -20.48,9.63 -20.48,21.43l0,0.18c0,11.8 8.59,21.6 20.65,21.6c12.06,0 20.48,-9.63 20.48,-21.43" style="fill:rgb(36,31,70);fill-rule:nonzero;"/>            </g>            <g transform="matrix(0.617094,0,0,0.617094,244.086,42.0004)">                <path d="M266.85,62.31l0,-35l10.67,0l0,34.57c0,11.28 5.81,17.35 15.36,17.35c9.55,0 15.27,-5.72 15.27,-16.92l0,-35l10.67,0l0,34.48c0,18.14 -10.24,27.21 -26.12,27.21c-15.88,0 -25.85,-9.11 -25.85,-26.73" style="fill:rgb(36,31,70);fill-rule:nonzero;"/>            </g>            <g transform="matrix(0.617094,0,0,0.617094,244.086,42.0004)">                <path d="M342.59,27.35l27.07,0c7.63,0 13.62,2.25 17.52,6.07c3.331,3.533 5.13,8.246 5,13.1l0,0.18c0,10 -6,16 -14.49,18.39l16.4,23l-12.55,0l-14.92,-21.18l-13.36,0l0,21.17l-10.67,0l0,-60.73Zm26.29,30.1c7.63,0 12.49,-4 12.49,-10.15l0,-0.17c0,-6.51 -4.69,-10.06 -12.58,-10.06l-15.53,0l0,20.38l15.62,0Z" style="fill:rgb(36,31,70);fill-rule:nonzero;"/>            </g>            <g transform="matrix(0.617094,0,0,0.617094,244.086,42.0004)">                <path d="M411.73,57.89l0,-0.17c0,-17.27 12.93,-31.41 31.32,-31.41c11.2,0 18,3.9 23.78,9.46l-6.83,7.89c-4.86,-4.51 -10.06,-7.55 -17,-7.55c-11.63,0 -20,9.55 -20,21.43l0,0.18c0,11.88 8.41,21.6 20,21.6c7.46,0 12.23,-3 17.44,-7.9l6.85,7c-6.36,6.58 -13.29,10.7 -24.67,10.7c-17.7,0 -30.89,-13.79 -30.89,-31.23" style="fill:rgb(36,31,70);fill-rule:nonzero;"/>            </g>            <g transform="matrix(0.617094,0,0,0.617094,244.086,42.0004)">                <path d="M487.56,27.35l45.03,0l0,9.54l-34.36,0l0,15.79l30.45,0l0,9.55l-30.45,0l0,16.31l34.79,0l0,9.54l-45.46,0l0,-60.73Z" style="fill:rgb(36,31,70);fill-rule:nonzero;"/>            </g>            <g transform="matrix(0.617094,0,0,0.617094,244.086,42.0004)">                <path d="M554.8,27.35l22.64,0c19.09,0 32.28,13.1 32.28,30.19l0,0.18c0,17.09 -13.19,30.36 -32.28,30.36l-22.64,0l0,-60.73Zm22.64,51c12.76,0 21.09,-8.58 21.09,-20.47l0,-0.17c0,-11.89 -8.33,-20.65 -21.09,-20.65l-12,0l0,41.3l12,-0.01Z" style="fill:rgb(36,31,70);fill-rule:nonzero;"/>            </g>        </g>        <g transform="matrix(1,0,0,1,-44,-8.88705)">            <g transform="matrix(26,0,0,26,534,140.656)">                <path d="M0.389,-0.1c-0.138,0 -0.233,-0.115 -0.233,-0.25c0,-0.135 0.095,-0.25 0.233,-0.25c0.115,0 0.178,0.077 0.178,0.077l0.081,-0.079c0,0 -0.091,-0.11 -0.259,-0.11c-0.202,0 -0.355,0.155 -0.355,0.362c0,0.207 0.153,0.362 0.355,0.362c0.177,0 0.269,-0.119 0.269,-0.119l-0.08,-0.079c0,0 -0.066,0.086 -0.189,0.086Z" style="fill:rgb(42,170,226);fill-rule:nonzero;"/>            </g>            <g transform="matrix(26,0,0,26,556.646,140.656)">                <path d="M0.006,0l0.121,0l0.064,-0.166l0.296,0l0.064,0.166l0.121,0l-0.272,-0.7l-0.122,0l-0.272,0.7Zm0.333,-0.549l0.105,0.273l-0.21,0l0.105,-0.273Z" style="fill:rgb(42,170,226);fill-rule:nonzero;"/>            </g>            <g transform="matrix(26,0,0,26,579.344,140.656)">                <path d="M0.297,-0.366l-0.103,0l0,-0.22l0.103,0c0.082,0 0.125,0.044 0.125,0.11c0,0.066 -0.043,0.11 -0.125,0.11Zm-0.223,0.366l0.12,0l0,-0.252l0.118,0c0.139,0 0.232,-0.096 0.232,-0.224c0,-0.128 -0.093,-0.224 -0.232,-0.224l-0.238,0l0,0.7Z" style="fill:rgb(42,170,226);fill-rule:nonzero;"/>            </g>            <g transform="matrix(26,0,0,26,599.13,140.656)">                <rect x="0.088" y="-0.7" width="0.12" height="0.7" style="fill:rgb(42,170,226);fill-rule:nonzero;"/>            </g>            <g transform="matrix(26,0,0,26,611.896,140.656)">                <path d="M0.207,0l0.12,0l0,-0.586l0.193,0l0,-0.114l-0.506,0l0,0.114l0.193,0l0,0.586Z" style="fill:rgb(42,170,226);fill-rule:nonzero;"/>            </g>            <g transform="matrix(26,0,0,26,628.85,140.656)">                <path d="M0.006,0l0.121,0l0.064,-0.166l0.296,0l0.064,0.166l0.121,0l-0.272,-0.7l-0.122,0l-0.272,0.7Zm0.333,-0.549l0.105,0.273l-0.21,0l0.105,-0.273Z" style="fill:rgb(42,170,226);fill-rule:nonzero;"/>            </g>            <g transform="matrix(26,0,0,26,651.548,140.656)">                <path d="M0.074,0l0.418,0l0,-0.114l-0.298,0l0,-0.586l-0.12,0l0,0.7Z" style="fill:rgb(42,170,226);fill-rule:nonzero;"/>            </g>        </g>        <g transform="matrix(0.617094,0,0,0.617094,244.086,42.0004)">            <path d="M35,47.24c-14.7,-2.79 -23.26,-6.24 -27.71,-11.19c-0.562,-0.62 -1.067,-1.29 -1.51,-2c4.56,-7.9 15.3,-13 27.41,-13c7.816,-0.03 15.55,1.599 22.69,4.78l0.83,0.35c1.064,0.4 2.191,0.605 3.328,0.605c5.189,0 9.46,-4.271 9.46,-9.46c0,-3.15 -1.573,-6.1 -4.188,-7.855l-0.07,0l-0.34,-0.22c-9.449,-6.091 -20.468,-9.305 -31.71,-9.25c-18.61,0 -33.19,10.93 -33.19,24.88l0,0.26c-0.067,3.075 0.565,6.125 1.85,8.92l0,0.06c-0.043,0.07 -0.079,0.144 -0.11,0.22c-0.322,0.722 -0.6,1.463 -0.83,2.22c-0.232,0.755 -0.419,1.523 -0.56,2.3c-0.226,1.18 -0.343,2.378 -0.35,3.58l0,0.25c0,13.65 9.64,20.8 34.39,25.5c14.73,2.81 23.29,6.24 27.75,11.19c0.559,0.623 1.064,1.292 1.51,2c-4.57,7.9 -15.31,13 -27.42,13c-7.806,0.033 -15.53,-1.593 -22.66,-4.77l-0.85,-0.36c-1.05,-0.387 -2.161,-0.583 -3.28,-0.58c-0.046,-0.001 -0.092,-0.001 -0.139,-0.001c-5.178,0 -9.44,4.261 -9.44,9.44c0,3.177 1.604,6.147 4.259,7.891l0.4,0.26c9.452,6.08 20.472,9.281 31.71,9.21c18.61,0 33.19,-10.93 33.19,-24.88l0,-0.26c0.067,-3.075 -0.565,-6.125 -1.85,-8.92l0,-0.06l0.11,-0.22c0.322,-0.722 0.6,-1.463 0.83,-2.22c0.24,-0.753 0.431,-1.522 0.57,-2.3c0.218,-1.191 0.332,-2.399 0.34,-3.61l0,-0.25c0,-13.65 -9.64,-20.75 -34.42,-25.5m-31.55,-22.37c0,-12 13.07,-21.43 29.74,-21.43c10.565,-0.051 20.921,2.961 29.81,8.67l0.34,0.21c1.623,1.119 2.595,2.969 2.595,4.94c0,3.267 -2.668,5.965 -5.935,6c-0.681,0.003 -1.358,-0.112 -2,-0.34l-0.74,-0.32c-7.576,-3.367 -15.78,-5.092 -24.07,-5.06c-12.27,0 -23.37,4.86 -29.1,12.7c-0.442,-1.667 -0.657,-3.386 -0.64,-5.11l0,-0.26Zm62.55,65.67c0,12 -13.06,21.43 -29.74,21.43c-10.578,0.061 -20.95,-2.951 -29.85,-8.67l-0.41,-0.21c-1.643,-1.116 -2.629,-2.977 -2.629,-4.963c0,-3.292 2.709,-6 6,-6c0.692,0 1.378,0.119 2.029,0.353l0.77,0.33c7.57,3.373 15.772,5.098 24.06,5.06c12.27,0 23.37,-4.86 29.1,-12.7c0.458,1.664 0.683,3.384 0.67,5.11l0,0.26Zm0,-17.55c0,1.006 -0.09,2.01 -0.27,3c-0.109,0.604 -0.253,1.202 -0.43,1.79c-0.18,-0.22 -0.37,-0.45 -0.57,-0.67c-5,-5.54 -14.14,-9.33 -29.67,-12.27c-23.06,-4.42 -31.61,-10.41 -31.61,-22.16l0,-0.25c0,-1.006 0.09,-2.01 0.27,-3c0.109,-0.604 0.253,-1.202 0.43,-1.79l0.57,0.67c5,5.54 14.14,9.33 29.67,12.27c23.02,4.41 31.61,10.41 31.61,22.15l0,0.26Z" style="fill:rgb(42,170,226);fill-rule:nonzero;"/>        </g>    </g></svg>