<?xml version="1.0" encoding="UTF-8" standalone="no"?><!DOCTYPE svg PUBLIC "-//W3C//DTD SVG 1.1//EN" "http://www.w3.org/Graphics/SVG/1.1/DTD/svg11.dtd"><svg width="100%" height="100%" viewBox="0 0 1024 512" version="1.1" xmlns="http://www.w3.org/2000/svg" xmlns:xlink="http://www.w3.org/1999/xlink" xml:space="preserve" style="fill-rule:evenodd;clip-rule:evenodd;stroke-linejoin:round;stroke-miterlimit:2;"><title>FinAi</title><desc>In FinAi we are developing a fintech platform driven by big data based innovative technology, impeccable user experience, and behavioral economics to support its customers in easier, smarter, faster and more convenient financial decisions. That is why we are building a top-notch fully digital lending platform which puts the customer in the center of the decision-making process - now we let you grab the steering wheel!</desc>    <g transform="matrix(2.96512,0,0,2.96512,2,107.744)">        <path d="M0,50c0,27.6 22.4,50 50,50c8,0 15.6,-1.9 22.4,-5.3l-22,-44.3l-50.4,0l0,-0.4Z" style="fill:rgb(255,242,187);fill-rule:nonzero;"/>        <path d="M50.4,0l-0.4,0c-27.6,0 -50,22.4 -50,50l0,0.4l50.4,0l0,-50.4Z" style="fill:rgb(83,83,83);fill-rule:nonzero;"/>        <path d="M100,50c0,-27.5 -22.2,-49.8 -49.6,-50l0,50.4l46.4,17.1c2.1,-5.5 3.2,-11.3 3.2,-17.5Z" style="fill:rgb(223,223,223);fill-rule:nonzero;"/>        <path d="M96.8,67.5l-46.4,-17.1l22,44.3c11.2,-5.6 20,-15.3 24.4,-27.2Z" style="fill:rgb(222,99,86);fill-rule:nonzero;"/>        <path d="M156,20l0,58.3l3.5,0l0,-26.8l25.2,0l0,-3.3l-25.2,0l0,-24.9l29,0l0,-3.3l-32.5,0Z" style="fill:rgb(43,43,43);fill-rule:nonzero;"/>        <path d="M202,25.3c0,-2.4 1.5,-3.5 3.4,-3.5c1.7,0 3.4,1 3.4,3.5c0,2.3 -1.6,3.4 -3.4,3.4c-1.9,0 -3.4,-1 -3.4,-3.4m1.7,13.7l3.3,0l0,39.4l-3.3,0l0,-39.4Zm20.1,0l3.3,0l0,4.9c2.7,-3.5 8.5,-5.8 13.7,-5.8c10.6,0 14.2,5.1 14.2,14.6l0,25.6l-3.3,0l0,-25.6c0,-7.5 -2.5,-11.4 -10.9,-11.4c-6.3,0 -11,2.5 -13.7,6.2l0,30.8l-3.3,0l0,-39.3Zm79.9,27.4l-19.3,0l-3.5,11.9l-13.9,0l19.6,-57.1l14.9,0l19.7,57.1l-13.9,0l-3.6,-11.9Zm-16.1,-10.5l12.9,0l-6.4,-21.3l-6.5,21.3Zm42.7,-28.9c0,-4.6 3,-6.8 6.9,-6.8c3.5,0 6.8,2.1 6.8,6.8c0,4.8 -3.4,6.6 -6.8,6.6c-4,0 -6.9,-1.8 -6.9,-6.6m1.1,12.8l12,0l0,38.5l-12,0l0,-38.5Z" style="fill:rgb(43,43,43);fill-rule:nonzero;"/>    </g></svg>