<?xml version="1.0" encoding="UTF-8" standalone="no"?><!DOCTYPE svg PUBLIC "-//W3C//DTD SVG 1.1//EN" "http://www.w3.org/Graphics/SVG/1.1/DTD/svg11.dtd"><svg width="100%" height="100%" viewBox="0 0 1024 512" version="1.1" xmlns="http://www.w3.org/2000/svg" xmlns:xlink="http://www.w3.org/1999/xlink" xml:space="preserve" style="fill-rule:evenodd;clip-rule:evenodd;stroke-miterlimit:10;"><title>Raizers</title><desc>Raizers is an investment platform that allows individuals as well as professionals to lend to real estate developers, thus providing access to investment opportunities previously limited to institutional investors.</desc>    <g id="Layer_1" transform="matrix(3.54044,0,0,3.54044,-12.3388,134.103)">        <path d="M16.28,34.69l0.13,0c2.35,-4.24 6.39,-6.12 11.16,-6.12l2.35,0l0,11.76c-1.68,-0.94 -3.29,-1.14 -5.18,-1.14c-6.79,0 -8.47,4.5 -8.47,10.42l0,13.91l-12.22,0l0,-34.47l12.23,0l0,5.64Z" style="fill:rgb(64,64,65);fill-rule:nonzero;"/>        <path d="M70.52,63.52l-12.23,0l0,-3.83l-0.14,0c-2.15,3.43 -6.39,4.97 -10.42,4.97c-10.21,0 -17.41,-8.53 -17.41,-18.41c0,-9.88 7.06,-18.35 17.27,-18.35c3.96,0 8.13,1.48 10.69,4.5l0,-3.36l12.23,0l0,34.48l0.01,0Zm-27.56,-17.2c0,4.37 2.89,7.73 7.86,7.73c4.97,0 7.86,-3.36 7.86,-7.73c0,-4.23 -2.89,-7.8 -7.86,-7.8c-4.97,0 -7.86,3.56 -7.86,7.8Z" style="fill:rgb(64,64,65);fill-rule:nonzero;"/>        <path d="M89.94,15.81c0,3.76 -3.09,6.86 -6.86,6.86c-3.76,0 -6.86,-3.09 -6.86,-6.86c0,-3.76 3.09,-6.86 6.86,-6.86c3.77,0 6.86,3.09 6.86,6.86Z" style="fill:rgb(64,64,65);fill-rule:nonzero;"/>        <rect x="76.97" y="29.05" width="12.23" height="34.48" style="fill:rgb(64,64,65);"/>        <path d="M166.9,48.33l-25.74,0c0,4.97 2.62,7.66 7.66,7.66c2.62,0 4.5,-0.87 5.85,-3.16l11.76,0c-0.94,4.03 -3.36,6.99 -6.52,8.94c-3.16,1.95 -7.06,2.89 -11.02,2.89c-11.43,0 -19.96,-6.45 -19.96,-18.35c0,-11.49 7.86,-18.42 19.09,-18.42c11.96,0 18.89,7.39 18.89,19.16l0,1.28l-0.01,0Zm-11.36,-7.05c-0.6,-3.29 -3.63,-5.44 -6.92,-5.44c-3.56,0 -6.52,1.88 -7.26,5.44l14.18,0Z" style="fill:rgb(64,64,65);fill-rule:nonzero;"/>        <path d="M183.02,34.69l0.13,0c2.35,-4.24 6.39,-6.12 11.16,-6.12l2.35,0l0,11.76c-1.68,-0.94 -3.29,-1.14 -5.18,-1.14c-6.79,0 -8.47,4.5 -8.47,10.42l0,13.91l-12.23,0l0,-34.47l12.23,0l0,5.64l0.01,0Z" style="fill:rgb(64,64,65);fill-rule:nonzero;"/>        <path d="M222.34,37.92c-1.88,-1.01 -4.5,-1.68 -6.59,-1.68c-1.41,0 -3.83,0.61 -3.83,2.35c0,2.35 3.83,2.69 5.51,3.02c5.71,1.14 10.01,3.83 10.01,10.22c0,9.07 -8.27,12.84 -16.27,12.84c-4.91,0 -9.75,-1.41 -13.91,-3.96l4.43,-8.54c2.49,1.75 6.66,3.49 9.68,3.49c1.55,0 3.83,-0.74 3.83,-2.62c0,-2.69 -3.83,-2.82 -7.66,-3.83c-3.83,-1.01 -7.66,-2.89 -7.66,-9.07c0,-8.47 7.66,-12.23 15.19,-12.23c3.9,0 7.8,0.61 11.36,2.22l-4.09,7.79Z" style="fill:rgb(64,64,65);fill-rule:nonzero;"/>        <path d="M109.72,63.52l17.32,0l0,-9.99l-10.65,0l-6.67,9.99Z" style="fill:rgb(37,169,224);fill-rule:nonzero;"/>        <path d="M111.2,29.05l-16.96,0l0,10.15l10.18,0l6.78,-10.15Z" style="fill:rgb(37,169,224);fill-rule:nonzero;"/>        <path d="M115.12,29.05l-23.03,34.47l13.69,0.02l23.04,-34.49l-13.7,0Z" style="fill:rgb(0,173,238);fill-rule:nonzero;"/>        <g id="Calque_3">            <g>                <path d="M244,3.07c4.9,5.74 3.33,11.07 1.27,14.77c-2.97,-2.84 -5.27,-8.28 -1.27,-14.77Z" style="fill:rgb(45,170,225);"/>                <path d="M258.09,11.84c1.25,4.1 1.14,15.33 -10.66,19.57l0,-0.17c-1.45,-8.71 3.72,-15.68 10.66,-19.4Z" style="fill:rgb(45,170,225);"/>                <path d="M288.23,19.16c1.1,3.2 1.23,9.69 -5.58,13.66c-1.74,-6.81 1.16,-11.06 5.58,-13.66Z" style="fill:rgb(45,170,225);"/>                <path d="M266.59,21c2.98,3.95 3.11,10.57 -0.92,14.74c-2.53,-3.23 -4.21,-9.29 0.92,-14.74Z" style="fill:rgb(45,170,225);"/>                <path d="M231.12,27.24c-4.9,1.33 -8.4,-0.71 -10.07,-3.91c4.33,-1.11 7.98,0.2 10.07,3.91Z" style="fill:rgb(45,170,225);"/>                <path d="M273.91,24.41c0.98,-0.06 0.47,0.68 1.67,0.67c1.26,-0.01 0.58,-0.64 1.58,-0.67c0.61,-0.02 0.9,0.39 1.08,0.75c-0.7,0.65 -1.12,1.21 -1.42,2.08c-0.91,-0.37 -1.56,-0.37 -2.5,0c-0.34,-0.98 -1.02,-1.67 -1.5,-2.08c0.19,-0.44 0.52,-0.71 1.09,-0.75Z" style="fill:rgb(45,170,225);"/>                <path d="M258.34,26.66c1.96,4.12 1.92,10.7 -3.75,15.32c-2.6,-4.98 -2.13,-11.01 3.75,-15.32Z" style="fill:rgb(45,170,225);"/>                <path d="M243.27,34.15c-3.61,3.26 -10.17,3.76 -14.49,-0.92c2.45,-2 9.13,-3.77 14.49,0.92Z" style="fill:rgb(45,170,225);"/>                <path d="M244.27,31.24c6.65,5.13 6.37,12.76 10.32,12.82c2.76,0.05 3.46,-4.93 11.07,-6.66c-10.62,6 -9.49,20.5 -3.91,28.39c-6.24,-2.09 -6.07,-10.49 -8.74,-10.49c-3.08,-0.01 -1.95,7.76 -11.57,9.08c0.06,-0.08 0.11,-0.17 0.17,-0.25c7.06,-5.41 11.06,-12.32 8.08,-21.32c-1.69,-5.07 -5.96,-12.54 -5.42,-11.57Z" style="fill:rgb(55,55,54);"/>                <path d="M292.15,45.31c-6.5,1.8 -11.32,-1.43 -13.07,-5.91c4.62,-1.15 10,0.01 13.07,5.91Z" style="fill:rgb(45,170,225);"/>                <path d="M279.49,46.06c-6.34,1.43 -10.75,-1.92 -12.49,-6.33c5.07,-1.1 10.09,1.1 12.49,6.33Z" style="fill:rgb(45,170,225);"/>            </g>            <circle cx="239.21" cy="23.5" r="6.6" style="fill:none;stroke:rgb(45,170,225);stroke-width:0.35px;"/>            <g id="Calque_4">                <path d="M236.77,17.47c0,0 0.07,0.16 0,0.16c-0.07,0 -0.21,0.04 -0.51,0.24c-0.29,0.2 -0.67,0.38 -0.81,0.67c-0.14,0.29 -0.21,0.44 -0.05,0.67c0.16,0.23 0.43,0.58 0.43,0.58c0,0 -0.5,0.22 -0.68,0.36c-0.18,0.14 -0.34,0.69 -0.12,0.93c0.22,0.24 0.32,0.32 0.62,0.16c0.31,-0.15 0.73,-0.47 0.73,-0.47c0,0 0.15,0.26 0.22,0.32c0.07,0.06 0.19,0.14 0.29,0.23c0.11,0.09 0.2,0.37 0.59,0.6c0.41,0.25 0.74,0.21 0.95,0.14c0.18,-0.06 0.71,0.12 0.82,0.11c0.11,-0.01 0.34,-0.13 0.36,-0.2c0.02,-0.07 0.15,-0.07 0.15,-0.07c0,0 -0.42,0.27 -0.46,0.41c-0.04,0.14 -0.19,0.87 -0.06,1.06c0.13,0.19 0.21,0.27 0.36,0.41c0.15,0.14 0.31,0.47 0.49,0.56c0.18,0.09 0.45,0.12 0.62,0.15c0.18,0.04 0.44,0.06 0.54,0.12c0.1,0.06 0.24,0.07 0.32,0c0.08,-0.07 0.28,-0.38 0.25,-0.45c-0.03,-0.07 0,-0.26 0,-0.26l0.29,-0.16c0,0 -0.06,0.29 0,0.41c0.06,0.12 0.22,0.38 0.45,0.51c0.22,0.13 0.64,0.49 0.81,0.42c0.18,-0.07 0.27,-0.02 0.29,-0.15c0.02,-0.13 0.22,-0.67 0.19,-0.82c-0.03,-0.15 -0.05,-0.37 -0.16,-0.51c-0.11,-0.13 -0.41,-0.34 -0.55,-0.33c-0.14,0.01 -0.25,0.01 -0.25,0.01c0,0 0.01,-0.16 -0.32,-0.2c-0.33,-0.04 -0.82,-0.02 -0.98,-0.07c-0.15,-0.05 -0.24,-0.24 -0.24,-0.24c0,0 0.28,0.07 0.46,-0.06c0.19,-0.13 0.49,-0.2 0.41,-0.42c-0.2,-0.55 -0.42,-0.03 -0.61,-0.42c-0.12,-0.24 0.25,-0.3 0.2,-0.6c-0.05,-0.3 -0.44,-0.5 -0.39,-0.65c0.08,-0.24 0.66,-0.51 0.73,-0.89c0.07,-0.38 -0.14,-0.92 -0.02,-1.06c0.12,-0.14 0.82,-0.46 0.82,-0.46c0,0 -1.07,-1.04 -2.38,-1.19c-1.31,-0.15 -3.05,0.04 -3.38,0.15c-0.33,0.11 -0.42,0.3 -0.42,0.3Z" style="fill:rgb(45,170,225);"/>                <path d="M243.76,20.88c0.34,0.05 0.42,0.35 0.42,0.42c0,0.07 -0.06,0.04 0,0.13c0.06,0.09 0.3,0.4 0.37,0.53c0.07,0.13 0.16,0.25 0,0.36c-0.16,0.12 -0.29,0.16 -0.35,0.12c-0.06,-0.05 -0.16,-0.06 -0.31,-0.09c-0.15,-0.04 -0.53,-0.04 -0.77,-0.07c-0.24,-0.03 -0.53,-0.02 -0.58,-0.36c-0.05,-0.34 0.27,-0.69 0.52,-0.81c0.25,-0.12 0.48,-0.26 0.7,-0.23Z" style="fill:rgb(45,170,225);"/>                <path d="M234.01,19.43c0.16,-0.18 0.32,0.64 0.13,0.89c-0.19,0.25 -0.34,0.61 -0.45,0.74c-0.11,0.13 -0.29,0.42 -0.21,0.57c0.08,0.15 0.54,0.44 0.59,0.56c0.05,0.12 0.24,0.72 0.35,0.91c0.12,0.19 0.99,0.6 1.21,0.69c0.22,0.09 0.95,0.48 0.95,0.87c0,0.54 -0.76,0.8 -1,1.12c-0.24,0.32 0.09,0.62 -0.12,0.78c-0.21,0.15 -0.29,-0.01 -0.54,0.05c-0.26,0.06 -0.23,0.24 -0.66,0.19c-0.42,-0.05 -0.64,-0.39 -0.72,-0.46c-0.08,-0.07 -0.04,0.22 -0.04,0.22l-0.14,0.04c0,0 -1.03,-2.04 -0.77,-3.48c0.27,-1.45 0.75,-2.95 1.42,-3.69Z" style="fill:rgb(45,170,225);"/>                <path d="M236.99,29.55c-0.08,-0.24 -0.16,-0.34 0,-0.62c0.16,-0.28 0.11,-0.62 0.43,-0.86c0.32,-0.24 1.23,-0.08 1.52,-0.42c0.29,-0.34 0.07,-0.91 0.34,-1.32c0.27,-0.41 1.13,-0.64 1.29,-0.72c0.16,-0.08 0.89,-0.56 1.19,-0.42c0.29,0.14 0.6,0.96 0.78,0.98c0.18,0.02 1.05,-0.87 1.77,-0.69c0.65,0.15 -0.64,2.86 -2.15,3.75c-1.43,0.85 -2.31,0.78 -2.68,0.87c-0.48,0.11 -2.56,-0.45 -2.49,-0.55Z" style="fill:rgb(45,170,225);"/>            </g>            <path id="Calque_5" d="M275.66,27.91c-4.87,0.07 -7.03,10.11 -2.58,10.16c2.48,0.03 5.56,0 4.83,0c5.11,-0.04 2.07,-10.22 -2.25,-10.16Zm0.2,7.81c-0.61,0 -1.15,-0.23 -1.53,-0.67c-0.29,-0.32 -0.47,-0.75 -0.54,-1.3l-0.47,0l0,-0.37l0.43,0l0,-0.11c0,-0.12 0.01,-0.23 0.02,-0.34l-0.45,0l0,-0.38l0.5,0c0.09,-0.53 0.32,-0.96 0.62,-1.27c0.38,-0.4 0.87,-0.63 1.49,-0.63c0.44,0 0.79,0.13 1,0.24l-0.15,0.5c-0.19,-0.11 -0.5,-0.21 -0.84,-0.21c-0.41,0 -0.74,0.14 -1,0.41c-0.23,0.22 -0.38,0.56 -0.45,0.96l2.1,0l0,0.38l-2.17,0c-0.01,0.1 -0.01,0.21 -0.01,0.32l0,0.14l2.19,0l0,0.37l-2.13,0c0.06,0.44 0.21,0.76 0.41,0.99c0.28,0.29 0.66,0.44 1.06,0.44c0.4,0 0.75,-0.15 0.92,-0.25l0.13,0.47c-0.24,0.15 -0.63,0.31 -1.13,0.31Z" style="fill:rgb(45,170,225);"/>        </g>    </g></svg>