<?xml version="1.0" encoding="UTF-8" standalone="no"?><!DOCTYPE svg PUBLIC "-//W3C//DTD SVG 1.1//EN" "http://www.w3.org/Graphics/SVG/1.1/DTD/svg11.dtd"><svg width="100%" height="100%" viewBox="0 0 1024 512" version="1.1" xmlns="http://www.w3.org/2000/svg" xmlns:xlink="http://www.w3.org/1999/xlink" xml:space="preserve" style="fill-rule:evenodd;clip-rule:evenodd;stroke-linejoin:round;stroke-miterlimit:2;"><title>LeihDeinerStadtGeld</title><desc></desc>    <g transform="matrix(1.32742,0,0,1.32742,2,31.6435)">        <path d="M10.694,266.32c0.741,1.799 0.953,3.811 0.953,7.729l0,53.787c2.435,0.212 5.823,0.318 9,0.318c3.705,0 8.152,0 13.128,-0.424c0.212,2.33 0.212,3.071 0.212,4.023c-0.317,1.801 -1.482,4.13 -4.129,4.765c-2.012,0.106 -5.506,0.212 -10.588,0.212c-6.988,0 -14.082,-0.318 -18.211,-0.635c-0.106,-0.953 -0.318,-2.118 -0.424,-3.071c-0.106,-0.847 -0.212,-1.8 -0.424,-2.647l0,-51.034c0,-4.976 -0.106,-8.577 -0.211,-11.118c1.376,-1.8 3.6,-2.224 9.741,-2.224l0.953,0.319Z" style="fill:rgb(38,54,66);fill-rule:nonzero;"/>        <path d="M58.024,292.896c-3.812,0.529 -7.518,4.975 -8.153,14.505l2.965,0c3.706,0 8.047,-0.106 10.165,-0.318c0.529,-0.105 1.058,-0.105 1.588,-0.424c0.211,-0.741 0.423,-1.905 0.423,-3.175c0,-0.424 -0.106,-0.742 -0.106,-1.165l0,-1.059c-0.529,-5.611 -2.435,-8.364 -6.458,-8.364l-0.424,0Zm15.141,33.034c0.635,2.012 0.953,4.13 1.059,5.294c-0.106,2.224 -3.6,4.659 -6.883,5.506l0.106,0c-1.588,0.424 -4.87,1.058 -8.258,1.058c-5.294,0 -10.694,-0.952 -14.929,-5.187c-3.918,-4.024 -5.824,-10.694 -5.824,-19.376c0,-20.541 8.894,-28.165 21.07,-28.165c10.059,0 15.247,5.93 16.094,15.141c0.106,1.588 0.212,3.283 0.212,5.083c0,2.329 -0.212,4.659 -0.529,6.247c-1.271,1.058 -5.189,2.435 -8.259,2.858c-3.282,0.424 -8.682,0.636 -13.659,0.636c-1.694,0 -2.011,0.105 -3.705,0c0.211,10.588 4.658,13.975 11.223,13.975c4.129,0 8.153,-0.846 12.282,-3.07Z" style="fill:rgb(38,54,66);fill-rule:nonzero;"/>        <path d="M94.342,286.437c0.847,1.694 0.953,3.177 0.953,7.623l0,35.471c0,2.434 -0.423,4.128 -1.482,5.823c-0.741,1.164 -2.541,1.164 -9.847,1.376l0,-8.682c0,-3.071 0.106,-6.353 0.106,-9.741l0,-18.424c0,-4.765 -0.106,-8.047 -0.212,-10.8c1.271,-2.646 4.871,-2.964 9.636,-2.964l0.846,0.318Zm-4.235,-23.929c4.977,0 5.93,2.117 5.824,6.141c-0.106,4.023 -1.377,6.776 -6.459,6.776c-4.341,0 -5.929,-2.012 -5.929,-6.564c0,-4.13 2.117,-6.353 6.564,-6.353Z" style="fill:rgb(38,54,66);fill-rule:nonzero;"/>        <path d="M106.52,336.201c0.105,-6.036 0.211,-13.129 0.211,-21.706l0,-39.917c0,-4.341 -0.106,-7.412 -0.211,-9.741c1.376,-2.753 4.764,-3.282 10.059,-3.282c0.846,1.588 1.164,3.07 1.164,7.411l0,20.117c1.694,-1.164 3.494,-2.011 5.082,-2.753c1.906,-0.74 4.342,-1.27 7.199,-1.27c11.013,0 14.083,5.824 14.083,20.118l0,15.353c0,5.717 0,10.693 0.106,14.505c-1.27,1.376 -2.859,1.694 -10.376,1.694c-0.635,-1.694 -0.953,-3.388 -0.953,-5.294l0,-25.306c0,-1.905 0,-3.282 -0.212,-4.341c-0.318,-6.247 -2.541,-7.941 -5.717,-7.941c-3.6,0 -6.882,2.012 -9.212,4.235l0,31.659c0,2.118 -0.212,3.812 -1.164,5.505c-1.907,1.483 -3.177,1.483 -9.106,1.483l-0.953,-0.529Z" style="fill:rgb(38,54,66);fill-rule:nonzero;"/>        <path d="M177.356,274.896c-1.8,-0.424 -3.812,-0.636 -6.035,-0.636c-1.483,0 -3.071,0 -4.236,0.107l0,53.787c1.8,0.212 4.024,0.317 6.353,0.317c8.365,0 17.365,-4.976 17.365,-29.752c0,-15.671 -4.447,-22.341 -13.447,-23.823Zm-19.377,-8.047c2.648,-0.317 9.424,-0.848 14.824,-0.848c23.929,0 30.282,13.765 30.282,32.718c0,14.399 -2.753,24.458 -9.847,31.234c-6.141,5.718 -14.294,6.989 -20.117,6.989c-6.247,0 -11.435,-0.424 -17.365,-1.165l0,-61.305c0,-4.129 0.212,-5.611 1.483,-7.411l0.74,-0.212Z" style="fill:rgb(38,54,66);fill-rule:nonzero;"/>        <path d="M229.24,292.896c-3.812,0.529 -7.518,4.975 -8.153,14.505l2.965,0c3.705,0 8.047,-0.106 10.164,-0.318c0.53,-0.105 1.059,-0.105 1.588,-0.424c0.212,-0.741 0.424,-1.905 0.424,-3.175c0,-0.424 -0.106,-0.742 -0.106,-1.165l0,-1.059c-0.529,-5.611 -2.435,-8.364 -6.458,-8.364l-0.424,0Zm15.141,33.034c0.635,2.012 0.952,4.13 1.058,5.294c-0.106,2.224 -3.599,4.659 -6.882,5.506l0.106,0c-1.588,0.424 -4.871,1.058 -8.259,1.058c-5.294,0 -10.694,-0.952 -14.929,-5.187c-3.917,-4.024 -5.823,-10.694 -5.823,-19.376c0,-20.541 8.894,-28.165 21.07,-28.165c10.059,0 15.247,5.93 16.094,15.141c0.106,1.588 0.212,3.283 0.212,5.083c0,2.329 -0.212,4.659 -0.529,6.247c-1.271,1.058 -5.189,2.435 -8.259,2.858c-3.282,0.424 -8.682,0.636 -13.659,0.636c-1.694,0 -2.012,0.105 -3.706,0c0.212,10.588 4.659,13.975 11.224,13.975c4.129,0 8.152,-0.846 12.282,-3.07Z" style="fill:rgb(38,54,66);fill-rule:nonzero;"/>        <path d="M265.558,286.437c0.847,1.694 0.953,3.177 0.953,7.623l0,35.471c0,2.434 -0.423,4.128 -1.482,5.823c-0.741,1.164 -2.541,1.164 -9.847,1.376l0,-8.682c0,-3.071 0.106,-6.353 0.106,-9.741l0,-18.424c0,-4.765 -0.106,-8.047 -0.212,-10.8c1.27,-2.646 4.87,-2.964 9.635,-2.964l0.847,0.318Zm-4.235,-23.929c4.976,0 5.929,2.117 5.823,6.141c-0.105,4.023 -1.376,6.776 -6.459,6.776c-4.341,0 -5.929,-2.012 -5.929,-6.564c0,-4.13 2.118,-6.353 6.565,-6.353Z" style="fill:rgb(38,54,66);fill-rule:nonzero;"/>        <path d="M288.853,297.978l0.317,-0.318l0,32.612c0,2.329 -0.212,3.599 -1.27,5.082c-1.483,1.27 -2.648,1.27 -7.306,1.376l-2.753,0c0.106,-5.612 0.212,-12.812 0.212,-20.859l0,-17.788c0,-3.387 -0.424,-5.823 -1.165,-7.94c0.741,-0.848 2.118,-1.694 4.447,-2.648c0.635,-0.211 1.27,-0.211 1.482,-0.211c1.906,0 3.177,0.953 3.812,2.223c2.118,-1.482 4.341,-2.541 6.247,-3.177c2.224,-0.74 4.341,-1.164 6.882,-1.164c13.235,0 15.777,6.777 15.777,18.847l0,15.988c0,5.717 0.106,10.906 0.211,15.035c-1.376,1.271 -3.282,1.694 -10.27,1.694c-0.847,-1.588 -1.165,-3.176 -1.165,-4.765l0,-27.74c0,-7.624 -1.8,-10.377 -7.2,-10.377c-3.388,0 -6.141,1.801 -8.258,4.13Z" style="fill:rgb(38,54,66);fill-rule:nonzero;"/>        <path d="M343.806,292.896c-3.811,0.529 -7.517,4.975 -8.153,14.505l2.965,0c3.706,0 8.047,-0.106 10.165,-0.318c0.529,-0.105 1.058,-0.105 1.588,-0.424c0.212,-0.741 0.423,-1.905 0.423,-3.175c0,-0.424 -0.106,-0.742 -0.106,-1.165l0,-1.059c-0.529,-5.611 -2.435,-8.364 -6.458,-8.364l-0.424,0Zm15.141,33.034c0.636,2.012 0.953,4.13 1.059,5.294c-0.106,2.224 -3.6,4.659 -6.882,5.506l0.105,0c-1.587,0.424 -4.87,1.058 -8.258,1.058c-5.294,0 -10.694,-0.952 -14.929,-5.187c-3.918,-4.024 -5.824,-10.694 -5.824,-19.376c0,-20.541 8.894,-28.165 21.071,-28.165c10.058,0 15.247,5.93 16.093,15.141c0.106,1.588 0.212,3.283 0.212,5.083c0,2.329 -0.212,4.659 -0.529,6.247c-1.271,1.058 -5.189,2.435 -8.259,2.858c-3.282,0.424 -8.682,0.636 -13.659,0.636c-1.693,0 -2.011,0.105 -3.705,0c0.211,10.588 4.659,13.975 11.223,13.975c4.129,0 8.153,-0.846 12.282,-3.07Z" style="fill:rgb(38,54,66);fill-rule:nonzero;"/>        <path d="M381.184,297.66l0,33.352c0,1.694 -0.106,2.965 -1.059,4.342c-1.694,1.27 -3.282,1.376 -10.165,1.376c0.106,-5.612 0.212,-12.812 0.212,-20.964l0.106,-17.683c0,-3.387 -0.635,-5.823 -1.376,-7.94c0.847,-0.848 2.223,-1.694 4.553,-2.648c0.635,-0.211 1.059,-0.211 1.482,-0.211c2.224,0 3.176,0.635 3.812,2.118c2.011,-1.377 4.235,-2.33 6.247,-3.072c1.799,-0.74 4.129,-1.164 6.141,-0.846c3.071,0.317 4.976,1.377 5.294,2.965c0,1.587 -0.424,4.552 -1.906,6.669c-0.741,0.212 -0.741,0.212 -1.694,0.212c-1.164,0 -2.224,-0.105 -3.071,-0.212c-0.741,-0.21 -1.058,-0.21 -1.376,-0.21c-2.859,0 -5.188,0.741 -7.2,2.752Z" style="fill:rgb(38,54,66);fill-rule:nonzero;"/>        <path d="M434.973,269.39c0,1.482 -0.636,3.388 -1.8,5.188c-0.635,0.423 -1.27,0.635 -2.011,0.635c-0.848,0 -1.589,-0.212 -2.224,-0.529c-2.012,-0.953 -4.871,-1.694 -7.73,-1.694c-5.505,0 -8.893,2.647 -8.893,7.836l0,1.375c0.423,2.648 1.693,4.765 3.6,6.882c2.117,2.33 5.4,5.506 7.941,7.836c0.105,0.106 0.423,0.318 0.423,0.423c2.118,1.906 4.235,4.024 5.929,5.824c4.448,4.659 6.565,9.318 6.565,15.246c0,11.753 -7.411,19.588 -21.176,19.588c-7.305,0 -12.282,-1.905 -14.294,-3.811c-1.165,-1.059 -1.589,-1.695 -1.589,-2.647c0,-1.694 1.377,-4.976 2.86,-7.306c3.494,2.859 8.152,4.871 12.705,4.871c5.718,0 9.529,-3.6 9.529,-9.953c0,-4.341 -1.693,-7.518 -6.458,-11.964c-1.165,-1.377 -2.435,-2.648 -3.812,-4.024c-0.318,-0.318 -0.847,-0.741 -1.376,-1.271l-1.271,-1.271c-2.541,-2.541 -4.87,-4.658 -6.564,-6.776c-3.601,-4.553 -4.871,-8.47 -4.871,-12.388c0,-8.364 5.612,-16.729 19.799,-16.729c8.895,0 13.66,2.965 14.718,4.659Z" style="fill:rgb(38,54,66);fill-rule:nonzero;"/>        <path d="M471.504,327.942c0.106,0.635 0.212,1.482 0.212,2.435c0,0.953 0,2.117 -0.106,2.965c-0.212,0.741 -0.741,1.376 -1.483,2.012c-2.434,1.588 -6.459,2.541 -9.846,2.541c-10.588,0 -12.6,-9.424 -12.6,-18.106l0,-25.2c-2.859,-0.105 -4.659,-0.741 -6.247,-1.482c0,-3.071 0.106,-3.071 0.953,-3.917c1.588,-1.059 3.176,-1.483 4.553,-1.906c0.847,-0.212 1.059,0 1.694,-0.318c0.106,-2.965 0.423,-6.247 0.53,-9.212c0.846,-2.434 3.599,-4.446 9.952,-4.87l0,1.694c-0.106,4.447 -0.211,7.835 -0.211,11.859l13.446,0c-0.317,5.929 -1.165,7.305 -3.282,7.729c-0.741,0.106 -1.8,0.212 -2.648,0.212c-2.117,0.106 -3.599,0.106 -7.516,0.106c-0.107,4.659 -0.212,9.212 -0.212,13.658c0,2.435 0.105,4.659 0.105,6.883l0,5.187c0.424,5.506 1.165,9.424 4.553,9.424c1.377,0.106 5.612,-1.376 6.354,-2.012l1.799,0.318Z" style="fill:rgb(38,54,66);fill-rule:nonzero;"/>        <path d="M500.305,320.107l0,-6.989l-1.059,0c-1.059,0 -2.224,0.107 -3.283,0.212l0.107,0c-4.554,0.847 -8.471,2.859 -8.471,9.106c0,4.871 1.905,6.671 4.553,6.883l0.636,0c2.753,0 5.928,-1.377 7.199,-3.071l-0.106,0.106c0,0.105 0.106,-0.636 0.212,-1.271c0.212,-1.27 0.212,-2.859 0.212,-4.976Zm-20.435,-27c-0.212,-0.635 -0.212,-0.952 -0.212,-1.376c0,-0.318 0.106,-0.847 0.318,-1.377c2.329,-2.117 8.999,-5.082 16.411,-5.294c1.695,0 2.012,0 3.706,0.106c8.47,0.53 11.223,5.824 11.223,15.035l0,4.659c0,3.918 0,8.047 -0.106,11.965c0,2.435 -0.105,7.2 -0.105,9.105c0,0 -0.318,4.765 2.963,4.13c-0.105,1.482 -0.211,3.917 -0.211,4.553c-0.952,1.376 -3.282,2.858 -6.565,2.964c-2.434,0 -4.975,-1.588 -6.352,-3.071c-0.529,0.424 -1.694,1.165 -2.329,1.589c-2.541,1.271 -5.189,1.482 -8.153,1.482c-7.2,0 -14.083,-4.447 -14.083,-14.293c0,-12.812 11.859,-16.518 18.53,-17.259c0.953,-0.107 2.117,-0.107 3.07,-0.107c0.953,0 1.694,0 2.33,0.107l0,-5.189c0,-4.446 -0.424,-6.776 -3.918,-6.776c-3.388,0 -7.517,1.482 -10.588,2.647c-1.165,0.53 -2.33,0.847 -3.918,0.847c-1.482,-1.588 -1.905,-3.388 -2.117,-4.553l0.106,0.106Z" style="fill:rgb(38,54,66);fill-rule:nonzero;"/>        <path d="M549.012,294.696c-1.377,-0.954 -3.494,-1.589 -5.612,-1.589c-5.611,0 -11.435,5.083 -11.435,18.953c0,13.023 4.341,17.152 10.059,17.152c2.753,0 5.399,-1.058 6.776,-2.753l-0.106,0.107c0.106,-0.107 0.212,-0.741 0.212,-1.271c0.106,-1.165 0.106,-2.753 0.106,-4.976l0,-25.623Zm13.87,35.364c-0.105,1.482 -0.212,4.129 -0.212,4.658c-1.058,1.483 -3.387,2.859 -6.564,2.965c-2.648,0.212 -4.977,-1.588 -6.353,-3.07c-0.635,0.529 -1.482,1.164 -2.541,1.694l0,-0.106c-2.33,1.27 -5.083,1.694 -8.047,1.587c-11.011,-0.529 -19.058,-6.458 -19.058,-24.67c0,-9.422 2.858,-16.728 7.199,-21.599c3.918,-4.341 9.318,-6.459 14.611,-6.459c3.177,0 5.295,0.424 7.095,1.165l0,-11.224c0,-4.552 -0.106,-7.623 -0.212,-10.058c1.271,-2.859 4.87,-3.388 10.271,-3.388c0.741,1.8 0.953,3.705 0.953,8.47l0,46.905c0,2.33 -0.107,7.2 -0.107,9.106c0,0 -0.317,4.765 2.965,4.024Z" style="fill:rgb(38,54,66);fill-rule:nonzero;"/>        <path d="M598.25,327.942c0.105,0.635 0.211,1.482 0.211,2.435c0,0.953 0,2.117 -0.106,2.965c-0.212,0.741 -0.741,1.376 -1.482,2.012c-2.435,1.588 -6.458,2.541 -9.847,2.541c-10.588,0 -12.6,-9.424 -12.6,-18.106l0,-25.2c-2.859,-0.105 -4.659,-0.741 -6.247,-1.482c0,-3.071 0.106,-3.071 0.953,-3.917c1.588,-1.059 3.176,-1.483 4.553,-1.906c0.847,-0.212 1.059,0 1.694,-0.318c0.106,-2.965 0.423,-6.247 0.53,-9.212c0.846,-2.434 3.599,-4.446 9.952,-4.87l0,1.694c-0.106,4.447 -0.211,7.835 -0.211,11.859l13.446,0c-0.317,5.929 -1.165,7.305 -3.282,7.729c-0.741,0.106 -1.8,0.212 -2.647,0.212c-2.118,0.106 -3.6,0.106 -7.517,0.106c-0.107,4.659 -0.212,9.212 -0.212,13.658c0,2.435 0.105,4.659 0.105,6.883l0,5.187c0.424,5.506 1.165,9.424 4.553,9.424c1.377,0.106 5.612,-1.376 6.354,-2.012l1.8,0.318Z" style="fill:rgb(38,54,66);fill-rule:nonzero;"/>        <path d="M636.898,296.495c3.282,-0.211 11.541,-0.317 14.399,-0.317c0.742,2.541 0.953,7.835 0.953,11.223l0,24.883c-1.482,1.058 -4.023,2.752 -5.929,3.599c-3.071,1.165 -7.411,2.117 -12.917,2.117c-1.059,0 -2.436,0 -3.494,-0.105c-14.718,-1.377 -25.941,-10.059 -25.941,-35.47c0,-15.035 4.658,-24.564 9.74,-30.07c4.872,-5.189 11.965,-7.518 20.965,-7.518c9.318,0 14.294,3.6 15.353,5.718c0,2.012 -0.847,3.494 -2.117,5.187l-0.636,0.107c-0.741,0.105 -1.588,0 -2.329,-0.424l0.105,0c-0.317,-0.105 -0.953,-0.529 -1.376,-0.636c-2.435,-0.846 -5.294,-1.376 -8.365,-1.376c-12.07,0 -19.269,8.683 -19.269,28.376c0,21.917 8.469,27.635 17.999,27.635c3.282,0 5.824,-0.741 7.094,-1.694l0,-22.764c-2.753,-0.106 -5.824,-0.848 -6.247,-7.095c0,0 0.953,-1.376 2.012,-1.376Z" style="fill:rgb(38,54,66);fill-rule:nonzero;"/>        <path d="M679.677,292.896c-3.812,0.529 -7.517,4.975 -8.153,14.505l2.965,0c3.706,0 8.047,-0.106 10.164,-0.318c0.53,-0.105 1.059,-0.105 1.589,-0.424c0.212,-0.741 0.423,-1.905 0.423,-3.175c0,-0.424 -0.106,-0.742 -0.106,-1.165l0,-1.059c-0.529,-5.611 -2.435,-8.364 -6.459,-8.364l-0.423,0Zm15.141,33.034c0.635,2.012 0.953,4.13 1.058,5.294c-0.105,2.224 -3.599,4.659 -6.881,5.506l0.105,0c-1.588,0.424 -4.87,1.058 -8.259,1.058c-5.294,0 -10.693,-0.952 -14.928,-5.187c-3.918,-4.024 -5.824,-10.694 -5.824,-19.376c0,-20.541 8.894,-28.165 21.07,-28.165c10.059,0 15.247,5.93 16.094,15.141c0.106,1.588 0.211,3.283 0.211,5.083c0,2.329 -0.211,4.659 -0.529,6.247c-1.27,1.058 -5.187,2.435 -8.259,2.858c-3.282,0.424 -8.681,0.636 -13.658,0.636c-1.694,0 -2.012,0.105 -3.706,0c0.212,10.588 4.659,13.975 11.224,13.975c4.129,0 8.152,-0.846 12.282,-3.07Z" style="fill:rgb(38,54,66);fill-rule:nonzero;"/>        <path d="M719.807,330.165c-0.105,1.483 -0.211,4.024 -0.211,4.553c-1.059,1.483 -3.388,2.859 -6.565,2.965c-1.483,0 -3.071,-0.635 -4.236,-1.482c-2.011,-1.376 -3.07,-3.495 -3.07,-5.612l0,-53.999c0,-5.083 -0.105,-8.682 -0.212,-11.753c1.271,-2.964 5.083,-3.282 10.483,-3.282c0.635,2.435 0.741,4.87 0.741,10.271l0,54.21c0,0 -0.318,4.765 3.07,4.129Z" style="fill:rgb(38,54,66);fill-rule:nonzero;"/>        <path d="M754.538,294.696c-1.377,-0.954 -3.495,-1.589 -5.613,-1.589c-5.611,0 -11.434,5.083 -11.434,18.953c0,13.023 4.341,17.152 10.058,17.152c2.753,0 5.4,-1.058 6.777,-2.753l-0.107,0.107c0.107,-0.107 0.212,-0.741 0.212,-1.271c0.107,-1.165 0.107,-2.753 0.107,-4.976l0,-25.623Zm13.87,35.364c-0.106,1.482 -0.212,4.129 -0.212,4.658c-1.059,1.483 -3.388,2.859 -6.565,2.965c-2.647,0.212 -4.976,-1.588 -6.352,-3.07c-0.636,0.529 -1.483,1.164 -2.541,1.694l0,-0.106c-2.33,1.27 -5.083,1.694 -8.048,1.587c-11.011,-0.529 -19.058,-6.458 -19.058,-24.67c0,-9.422 2.859,-16.728 7.2,-21.599c3.918,-4.341 9.317,-6.459 14.611,-6.459c3.177,0 5.295,0.424 7.095,1.165l0,-11.224c0,-4.552 -0.107,-7.623 -0.212,-10.058c1.27,-2.859 4.87,-3.388 10.27,-3.388c0.741,1.8 0.953,3.705 0.953,8.47l0,46.905c0,2.33 -0.106,7.2 -0.106,9.106c0,0 -0.318,4.765 2.965,4.024Z" style="fill:rgb(38,54,66);fill-rule:nonzero;"/>        <path d="M372.865,126.021l10.542,0l0,14.058l-10.542,0l0,-14.058Zm0,-24.266l10.542,0l0,14.059l-10.542,0l0,-14.059Zm0,-26.472l10.542,0l0,14.059l-10.542,0l0,-14.059Zm0,-25.502l10.542,0l0,14.059l-10.542,0l0,-14.059Zm0,-25.498l10.542,0l0,14.059l-10.542,0l0,-14.059Zm15.818,101.738l10.543,0l0,14.058l-10.543,0l0,-14.058Zm0,-24.266l10.543,0l0,14.059l-10.543,0l0,-14.059Zm0,-26.472l10.543,0l0,14.059l-10.543,0l0,-14.059Zm0,-25.502l10.543,0l0,14.059l-10.543,0l0,-14.059Zm0,-25.498l10.543,0l0,14.059l-10.543,0l0,-14.059Zm-141.559,111.794l10.543,0l0,14.058l-10.543,0l0,-14.058Zm0,-25.498l10.543,0l0,14.058l-10.543,0l0,-14.058Zm0,-25.503l10.543,0l0,14.06l-10.543,0l0,-14.06Zm0,-25.498l10.543,0l0,14.059l-10.543,0l0,-14.059Zm15.817,76.499l10.543,0l0,14.058l-10.543,0l0,-14.058Zm0,-25.498l10.543,0l0,14.058l-10.543,0l0,-14.058Zm0,-25.503l10.543,0l0,14.06l-10.543,0l0,-14.06Zm0,-25.498l10.543,0l0,14.059l-10.543,0l0,-14.059Zm48.157,85.06l10.543,0l0,14.059l-10.543,0l0,-14.059Zm0,-24.266l10.543,0l0,14.058l-10.543,0l0,-14.058Zm15.817,24.266l10.542,0l0,14.059l-10.542,0l0,-14.059Zm0,-24.266l10.542,0l0,14.058l-10.542,0l0,-14.058Zm171.692,29.914l10.543,0l0,14.06l-10.543,0l0,-14.06Zm0,-25.502l10.543,0l0,14.059l-10.543,0l0,-14.059Zm0,-25.498l10.543,0l0,14.059l-10.543,0l0,-14.059Zm15.815,51l10.544,0l0,14.06l-10.544,0l0,-14.06Zm0,-25.502l10.544,0l0,14.059l-10.544,0l0,-14.059Zm0,-25.498l10.544,0l0,14.059l-10.544,0l0,-14.059Zm23.536,88.434l0,-110.23l-53.175,0l0,96.222c-2.633,-0.556 -5.283,-1.101 -7.967,-1.626l0,-54.627l0,-34.588l-8.74,-20.996l-8.168,20.996l-0.002,0l0,34.588l-36.266,0l0,47.054c-3.334,-0.293 -6.683,-0.558 -10.06,-0.782l0,-163.697l-53.177,0l0,163.292c-2.756,0.14 -5.498,0.304 -8.225,0.494l0,-63.785l-53.177,0l0,70.412c-4.084,0.727 -8.115,1.496 -12.087,2.3l0,-139.231l-0.099,0l-24.423,-25.747l-26.974,25.644l0.099,0.103l-0.099,0l0,152.239c-55.238,16.733 -90.682,36.451 -90.682,36.451c0,0 106.906,-26.923 238.781,-26.923c131.873,0 238.779,26.923 238.779,26.923c0,0 -32.75,-18.216 -84.338,-34.486Z" style="fill:rgb(38,54,66);"/>    </g></svg>