<?xml version="1.0" encoding="UTF-8" standalone="no"?><!DOCTYPE svg PUBLIC "-//W3C//DTD SVG 1.1//EN" "http://www.w3.org/Graphics/SVG/1.1/DTD/svg11.dtd"><svg width="100%" height="100%" viewBox="0 0 1024 512" version="1.1" xmlns="http://www.w3.org/2000/svg" xmlns:xlink="http://www.w3.org/1999/xlink" xml:space="preserve" style="fill-rule:evenodd;clip-rule:evenodd;stroke-linejoin:round;stroke-miterlimit:2;"><title>ECrowd!</title><desc>Ecrowd! is a crowdlending platform, and a new, highly efficient and innovative way to finance projects with positive impact in society and the environment, and which also generates a dynamic source of profitable investment, for both individual and corporate investors.</desc>    <g transform="matrix(1.1242,0,0,0.920966,-146.514,-740.788)">        <g transform="matrix(302.636,0,0,369.421,109.712,1211.25)">            <path d="M0.194,-0.586l0,0.17l0.188,0c0.006,0 0.011,0.005 0.011,0.011l0,0.095c0,0.004 -0.004,0.008 -0.008,0.008l-0.191,0l0,0.188l0.208,0c0.005,0 0.009,0.002 0.011,0.006c0.013,0.018 0.053,0.073 0.07,0.097c0.001,0.002 0.001,0.005 0,0.007c-0.001,0.003 -0.003,0.004 -0.006,0.004l-0.345,0c-0.015,0 -0.03,-0.006 -0.041,-0.017c-0.011,-0.011 -0.017,-0.026 -0.017,-0.041l0,-0.57c0,-0.04 0.032,-0.072 0.072,-0.072l0.334,0c0.003,0 0.005,0.001 0.006,0.003c0.001,0.003 0.001,0.005 -0.001,0.007c-0.017,0.025 -0.062,0.088 -0.072,0.101c-0.001,0.002 -0.003,0.003 -0.005,0.003l-0.214,0Z" style="fill:url(#_Linear1);fill-rule:nonzero;"/>        </g>        <g transform="matrix(302.636,0,0,369.421,250.374,1211.25)">            <path d="M0.283,-0.1c0.015,0 0.03,-0.002 0.043,-0.006c0.013,-0.004 0.024,-0.009 0.033,-0.014c0.009,-0.006 0.016,-0.012 0.023,-0.018c0.007,-0.005 0.011,-0.01 0.014,-0.014c0,0 0,0 0,0c0.001,-0.001 0.003,-0.002 0.004,-0.003c0.002,0 0.004,0.001 0.005,0.002c0.013,0.013 0.049,0.049 0.065,0.066c0.005,0.005 0.006,0.013 0.001,0.019c0,0 0,0 0,0c-0.003,0.004 -0.011,0.011 -0.024,0.022c-0.013,0.01 -0.026,0.019 -0.04,0.027c-0.014,0.008 -0.032,0.015 -0.055,0.022c-0.022,0.006 -0.045,0.009 -0.069,0.009c-0.071,0 -0.132,-0.024 -0.181,-0.072c-0.049,-0.049 -0.074,-0.108 -0.074,-0.177c0,-0.07 0.025,-0.129 0.074,-0.177c0.049,-0.048 0.11,-0.072 0.181,-0.072c0.037,0 0.072,0.007 0.104,0.022c0.033,0.015 0.056,0.029 0.069,0.044c0,0 0.008,0.008 0.014,0.015c0.002,0.002 0.003,0.004 0.003,0.007c0,0.003 -0.002,0.005 -0.004,0.007c-0.016,0.014 -0.053,0.048 -0.068,0.061c-0.002,0.002 -0.004,0.002 -0.006,0.002c-0.003,0 -0.005,-0.001 -0.006,-0.003c-0.002,-0.002 -0.005,-0.004 -0.008,-0.007c-0.005,-0.005 -0.018,-0.013 -0.037,-0.022c-0.019,-0.009 -0.04,-0.014 -0.061,-0.014c-0.039,0 -0.071,0.013 -0.096,0.04c-0.025,0.027 -0.037,0.059 -0.037,0.097c0,0.038 0.012,0.07 0.037,0.097c0.025,0.027 0.057,0.04 0.096,0.04Z" style="fill:url(#_Linear2);fill-rule:nonzero;"/>        </g>        <g transform="matrix(0.819218,0,0,1,96.2775,108.308)">            <path d="M469.66,965.913c-3.654,-0.754 -19.282,-0.678 -33.912,9.78c-6.203,4.433 -11.145,14.881 -13.854,18.822l-3.694,5.91l0,96.104c0,1.702 -0.676,3.334 -1.879,4.537c-1.204,1.204 -2.836,1.88 -4.538,1.88c-9.265,0 -26.122,0 -33.848,0c-2.245,0 -4.065,-1.82 -4.065,-4.065c0,-23.697 0,-143.759 0,-167.104c0,-2.174 1.762,-3.937 3.936,-3.937c7.571,0 24.17,0 32.771,0c2.986,0 5.407,2.421 5.407,5.407c0,4.808 0,11.083 0,11.083c0.492,-0.739 7.972,-10.278 22.142,-16.711c13.484,-6.122 29.494,-4.124 31.534,-3.948l0,42.242Z" style="fill:url(#_Linear3);fill-rule:nonzero;"/>        </g>        <g transform="matrix(302.636,0,0,369.421,472.101,1211.25)">            <path d="M0.101,-0.414c0.049,-0.048 0.109,-0.072 0.18,-0.072c0.071,0 0.131,0.024 0.18,0.072c0.049,0.048 0.073,0.107 0.073,0.177c0,0.069 -0.024,0.128 -0.074,0.177c-0.048,0.048 -0.108,0.072 -0.179,0.072c-0.071,0 -0.131,-0.024 -0.18,-0.072c-0.049,-0.049 -0.073,-0.108 -0.073,-0.177c0,-0.07 0.024,-0.129 0.073,-0.177Zm0.085,0.274c0.024,0.027 0.056,0.04 0.095,0.04c0.039,0 0.071,-0.013 0.095,-0.04c0.024,-0.027 0.036,-0.059 0.036,-0.097c0,-0.038 -0.012,-0.07 -0.036,-0.097c-0.024,-0.027 -0.056,-0.04 -0.095,-0.04c-0.039,0 -0.071,0.013 -0.095,0.04c-0.024,0.027 -0.036,0.059 -0.036,0.097c0,0.038 0.012,0.07 0.036,0.097Z" style="fill:url(#_Linear4);fill-rule:nonzero;"/>        </g>        <g transform="matrix(302.636,0,0,369.421,620.956,1211.25)">            <path d="M0.024,-0.463c-0.001,-0.002 0,-0.005 0.001,-0.007c0.002,-0.003 0.004,-0.004 0.007,-0.004l0.114,0c0.005,0 0.009,0.003 0.011,0.008c0.014,0.041 0.079,0.225 0.079,0.225c0,0 0.061,-0.174 0.077,-0.221c0.003,-0.007 0.009,-0.012 0.017,-0.012l0.078,0c0.006,0 0.012,0.004 0.014,0.01c0.014,0.043 0.075,0.223 0.075,0.223c0,0 0.061,-0.183 0.075,-0.225c0.001,-0.005 0.006,-0.008 0.011,-0.008l0.105,0c0.002,0 0.004,0.001 0.005,0.003c0.001,0.001 0.001,0.003 0.001,0.005c-0.02,0.057 -0.134,0.391 -0.155,0.454c-0.003,0.007 -0.008,0.011 -0.015,0.011l-0.077,0c-0.007,0 -0.012,-0.004 -0.014,-0.01c-0.014,-0.046 -0.072,-0.23 -0.072,-0.23c0,0 -0.058,0.184 -0.072,0.23c-0.002,0.006 -0.008,0.01 -0.014,0.01l-0.089,0c-0.004,0 -0.006,-0.002 -0.007,-0.005c-0.016,-0.046 -0.132,-0.39 -0.155,-0.457Z" style="fill:url(#_Linear5);fill-rule:nonzero;"/>        </g>        <g transform="matrix(1.05082,0,0,1.28271,-31.1475,228.043)">            <path d="M923.751,636.794l0,-70.373c0,-2.423 1.964,-4.386 4.386,-4.386c7.478,0 22.426,0 28.006,0c1.198,0 2.168,0.97 2.168,2.167c0,20.665 0,182.518 0,200.656c0,0.912 -0.739,1.652 -1.651,1.652c-5.064,0 -20.437,0 -27.138,0c-0.843,0 -1.652,-0.335 -2.248,-0.932c-0.596,-0.596 -0.931,-1.404 -0.931,-2.248c0,-2.427 0,-5.357 0,-5.357c-11.839,7.995 -25.471,11.993 -40.896,11.993l-0.178,-0.001l-0.11,0.001c-0.846,0 -1.687,-0.015 -2.523,-0.045c-19.133,-0.616 -35.428,-7.561 -48.885,-20.835c-14.112,-13.92 -21.168,-30.864 -21.168,-50.832c0,-20.16 7.008,-37.152 21.024,-50.976c13.572,-13.205 29.946,-20.103 49.125,-20.695c0.804,-0.028 1.613,-0.041 2.427,-0.041l0.135,0l0.153,0c14.312,0 27.08,3.417 38.304,10.252Zm-35.474,22.087c-10.146,0.582 -18.29,4.25 -24.43,11.005c-6.72,7.392 -10.08,16.848 -10.08,28.368c0,11.52 3.36,20.976 10.08,28.368c6.14,6.754 14.284,10.422 24.43,11.004c10.027,-0.595 18.203,-4.407 24.53,-11.436c6.912,-7.68 10.368,-16.992 10.368,-27.936c0,-10.944 -3.456,-20.256 -10.368,-27.936c-6.327,-7.03 -14.503,-10.842 -24.53,-11.437Z" style="fill:url(#_Linear6);fill-rule:nonzero;"/>        </g>        <g transform="matrix(248.377,0,0,303.188,981.794,1212.05)">            <path d="M0.097,-0.011c-0.015,-0.015 -0.023,-0.034 -0.023,-0.056c0,-0.022 0.008,-0.041 0.023,-0.056c0.015,-0.015 0.034,-0.023 0.056,-0.023c0.022,0 0.041,0.008 0.056,0.023c0.015,0.015 0.023,0.034 0.023,0.056c0,0.022 -0.008,0.041 -0.023,0.056c-0.015,0.015 -0.034,0.023 -0.056,0.023c-0.022,0 -0.041,-0.008 -0.056,-0.023Z" style="fill:rgb(253,198,43);"/>        </g>        <g transform="matrix(302.636,0,0,369.421,973.683,1211.25)">            <path d="M0.207,-0.7c0.002,0 0.004,0.001 0.006,0.002c0.001,0.002 0.002,0.004 0.002,0.006c-0.001,0.062 -0.004,0.464 -0.005,0.518c0,0.004 -0.003,0.006 -0.006,0.006l-0.101,0c-0.004,0 -0.007,-0.003 -0.007,-0.007c-0.001,-0.059 -0.004,-0.457 -0.005,-0.517c0,-0.002 0.001,-0.004 0.002,-0.006c0.002,-0.001 0.004,-0.002 0.006,-0.002l0.108,0Z" style="fill:url(#_Linear7);"/>        </g>    </g>    <defs>        <linearGradient id="_Linear1" x1="0" y1="0" x2="1" y2="0" gradientUnits="userSpaceOnUse" gradientTransform="matrix(2.92116,0,0,2.92116,0.110676,-0.348448)"><stop offset="0" style="stop-color:rgb(35,194,236);stop-opacity:1"/><stop offset="1" style="stop-color:rgb(98,196,195);stop-opacity:1"/></linearGradient>        <linearGradient id="_Linear2" x1="0" y1="0" x2="1" y2="0" gradientUnits="userSpaceOnUse" gradientTransform="matrix(2.92116,0,0,2.92116,-0.354116,-0.348448)"><stop offset="0" style="stop-color:rgb(35,194,236);stop-opacity:1"/><stop offset="1" style="stop-color:rgb(98,196,195);stop-opacity:1"/></linearGradient>        <linearGradient id="_Linear3" x1="0" y1="0" x2="1" y2="0" gradientUnits="userSpaceOnUse" gradientTransform="matrix(1079.14,0,0,1079.14,57.2846,974.222)"><stop offset="0" style="stop-color:rgb(35,194,236);stop-opacity:1"/><stop offset="1" style="stop-color:rgb(98,196,195);stop-opacity:1"/></linearGradient>        <linearGradient id="_Linear4" x1="0" y1="0" x2="1" y2="0" gradientUnits="userSpaceOnUse" gradientTransform="matrix(2.92116,0,0,2.92116,-1.08677,-0.348448)"><stop offset="0" style="stop-color:rgb(35,194,236);stop-opacity:1"/><stop offset="1" style="stop-color:rgb(98,196,195);stop-opacity:1"/></linearGradient>        <linearGradient id="_Linear5" x1="0" y1="0" x2="1" y2="0" gradientUnits="userSpaceOnUse" gradientTransform="matrix(2.92116,0,0,2.92116,-1.57863,-0.348448)"><stop offset="0" style="stop-color:rgb(35,194,236);stop-opacity:1"/><stop offset="1" style="stop-color:rgb(98,196,195);stop-opacity:1"/></linearGradient>        <linearGradient id="_Linear6" x1="0" y1="0" x2="1" y2="0" gradientUnits="userSpaceOnUse" gradientTransform="matrix(841.295,0,0,841.295,165.922,666.157)"><stop offset="0" style="stop-color:rgb(35,194,236);stop-opacity:1"/><stop offset="1" style="stop-color:rgb(98,196,195);stop-opacity:1"/></linearGradient>        <linearGradient id="_Linear7" x1="0" y1="0" x2="1" y2="0" gradientUnits="userSpaceOnUse" gradientTransform="matrix(2.92116,0,0,2.92116,-2.74414,-0.348448)"><stop offset="0" style="stop-color:rgb(35,194,236);stop-opacity:1"/><stop offset="1" style="stop-color:rgb(98,196,195);stop-opacity:1"/></linearGradient>    </defs></svg>