<?xml version="1.0" encoding="UTF-8" standalone="no"?><!DOCTYPE svg PUBLIC "-//W3C//DTD SVG 1.1//EN" "http://www.w3.org/Graphics/SVG/1.1/DTD/svg11.dtd"><svg width="100%" height="100%" viewBox="0 0 1024 512" version="1.1" xmlns="http://www.w3.org/2000/svg" xmlns:xlink="http://www.w3.org/1999/xlink" xml:space="preserve" style="fill-rule:evenodd;clip-rule:evenodd;stroke-linejoin:round;stroke-miterlimit:2;"><title>GrowthFunders</title><desc>Property. Clean Energy. Growth SMEs.We focus on originating impact driven investments across property, clean energy and growth SMEs that have the potential to deliver superior investment profit precisely because there’s real purpose underpinning the opportunity.We proactively engage with management teams on social and environmental issues, not just to mitigate risks but to identify opportunities that can create additional value and drive investment growth.</desc>    <g transform="matrix(9.1268,0,0,9.1268,-2256.14,-1672.94)">        <g>            <g transform="matrix(12.4248,0,0,12.4248,272.39,219.085)">                <path d="M0.585,-0.081l0.016,0.081l0.1,0l0,-0.386l-0.3,0l0,0.117l0.158,0c-0.005,0.05 -0.021,0.088 -0.049,0.115c-0.029,0.026 -0.069,0.039 -0.121,0.039c-0.035,0 -0.065,-0.007 -0.09,-0.02c-0.025,-0.014 -0.045,-0.032 -0.06,-0.055c-0.015,-0.023 -0.026,-0.048 -0.033,-0.077c-0.007,-0.028 -0.011,-0.057 -0.011,-0.087c0,-0.031 0.004,-0.062 0.011,-0.091c0.007,-0.029 0.018,-0.055 0.033,-0.078c0.015,-0.023 0.035,-0.042 0.06,-0.055c0.025,-0.014 0.055,-0.021 0.09,-0.021c0.038,0 0.07,0.01 0.097,0.03c0.027,0.02 0.045,0.05 0.054,0.09l0.15,0c-0.004,-0.041 -0.015,-0.077 -0.033,-0.108c-0.018,-0.031 -0.041,-0.058 -0.068,-0.079c-0.028,-0.021 -0.059,-0.037 -0.093,-0.048c-0.035,-0.011 -0.07,-0.017 -0.107,-0.017c-0.055,0 -0.104,0.01 -0.148,0.029c-0.043,0.019 -0.08,0.046 -0.11,0.08c-0.03,0.034 -0.053,0.074 -0.069,0.12c-0.016,0.045 -0.024,0.095 -0.024,0.148c0,0.052 0.008,0.101 0.024,0.146c0.016,0.045 0.039,0.084 0.069,0.117c0.03,0.033 0.067,0.06 0.11,0.079c0.044,0.019 0.093,0.028 0.148,0.028c0.035,0 0.069,-0.007 0.103,-0.021c0.034,-0.015 0.065,-0.04 0.093,-0.076Z" style="fill-rule:nonzero;"/>            </g>            <g transform="matrix(12.4248,0,0,12.4248,281.837,219.085)">                <path d="M0.054,-0.517l0,0.517l0.142,0l0,-0.233c0,-0.023 0.002,-0.045 0.007,-0.065c0.005,-0.02 0.012,-0.037 0.023,-0.052c0.012,-0.015 0.026,-0.027 0.044,-0.036c0.018,-0.009 0.04,-0.013 0.066,-0.013c0.009,0 0.018,0.001 0.027,0.002c0.009,0.001 0.017,0.002 0.024,0.003l0,-0.132c-0.011,-0.003 -0.022,-0.005 -0.031,-0.005c-0.018,0 -0.035,0.003 -0.052,0.008c-0.017,0.005 -0.032,0.013 -0.047,0.022c-0.015,0.01 -0.028,0.022 -0.039,0.035c-0.011,0.014 -0.02,0.029 -0.027,0.045l-0.002,0l0,-0.096l-0.135,0Z" style="fill-rule:nonzero;"/>            </g>            <g transform="matrix(12.4248,0,0,12.4248,286.463,219.085)">                <path d="M0.18,-0.258c0,-0.021 0.002,-0.041 0.006,-0.061c0.004,-0.02 0.011,-0.038 0.021,-0.053c0.009,-0.015 0.022,-0.028 0.038,-0.038c0.016,-0.009 0.036,-0.014 0.06,-0.014c0.024,0 0.044,0.005 0.061,0.014c0.016,0.01 0.029,0.023 0.039,0.038c0.009,0.015 0.016,0.033 0.02,0.053c0.004,0.02 0.006,0.04 0.006,0.061c0,0.021 -0.002,0.041 -0.006,0.061c-0.004,0.019 -0.011,0.037 -0.02,0.053c-0.01,0.015 -0.023,0.028 -0.039,0.037c-0.017,0.009 -0.037,0.014 -0.061,0.014c-0.024,0 -0.044,-0.005 -0.06,-0.014c-0.016,-0.009 -0.029,-0.022 -0.038,-0.037c-0.01,-0.016 -0.017,-0.034 -0.021,-0.053c-0.004,-0.02 -0.006,-0.04 -0.006,-0.061Zm-0.142,0c0,0.041 0.006,0.079 0.019,0.112c0.013,0.033 0.031,0.062 0.054,0.086c0.023,0.023 0.051,0.041 0.084,0.054c0.033,0.013 0.069,0.019 0.11,0.019c0.041,0 0.078,-0.006 0.111,-0.019c0.033,-0.013 0.061,-0.031 0.084,-0.054c0.023,-0.024 0.041,-0.053 0.054,-0.086c0.013,-0.033 0.019,-0.071 0.019,-0.112c0,-0.041 -0.006,-0.079 -0.019,-0.112c-0.013,-0.034 -0.031,-0.063 -0.054,-0.087c-0.023,-0.023 -0.051,-0.041 -0.084,-0.055c-0.033,-0.013 -0.07,-0.019 -0.111,-0.019c-0.041,0 -0.077,0.006 -0.11,0.019c-0.033,0.014 -0.061,0.032 -0.084,0.055c-0.023,0.024 -0.041,0.053 -0.054,0.087c-0.013,0.033 -0.019,0.071 -0.019,0.112Z" style="fill-rule:nonzero;"/>            </g>            <g transform="matrix(12.4248,0,0,12.4248,294.071,219.085)">                <path d="M0.645,0l0.163,-0.517l-0.146,0l-0.095,0.35l-0.002,0l-0.088,-0.35l-0.138,0l-0.086,0.351l-0.002,0l-0.095,-0.351l-0.15,0l0.164,0.517l0.147,0l0.088,-0.347l0.002,0l0.092,0.347l0.146,0Z" style="fill-rule:nonzero;"/>            </g>            <g transform="matrix(12.4248,0,0,12.4248,304.202,219.085)">                <path d="M0.234,-0.517l0,-0.155l-0.142,0l0,0.155l-0.086,0l0,0.095l0.086,0l0,0.305c0,0.026 0.004,0.047 0.013,0.063c0.009,0.016 0.021,0.028 0.036,0.037c0.014,0.009 0.032,0.015 0.051,0.018c0.02,0.003 0.041,0.004 0.063,0.004c0.014,0 0.028,0 0.043,-0.001c0.015,-0.001 0.028,-0.002 0.04,-0.004l0,-0.11c-0.007,0.001 -0.014,0.002 -0.021,0.003c-0.007,0.001 -0.015,0.001 -0.023,0.001c-0.024,0 -0.04,-0.004 -0.048,-0.012c-0.008,-0.008 -0.012,-0.024 -0.012,-0.048l0,-0.256l0.104,0l0,-0.095l-0.104,0Z" style="fill-rule:nonzero;"/>            </g>            <g transform="matrix(12.4248,0,0,12.4248,308.592,219.085)">                <path d="M0.054,-0.714l0,0.714l0.142,0l0,-0.271c0,-0.053 0.009,-0.09 0.026,-0.113c0.017,-0.023 0.045,-0.035 0.084,-0.035c0.034,0 0.058,0.011 0.071,0.032c0.013,0.021 0.02,0.052 0.02,0.095l0,0.292l0.142,0l0,-0.318c0,-0.032 -0.003,-0.061 -0.009,-0.087c-0.005,-0.027 -0.015,-0.049 -0.029,-0.067c-0.014,-0.019 -0.033,-0.033 -0.057,-0.043c-0.025,-0.011 -0.056,-0.016 -0.094,-0.016c-0.027,0 -0.054,0.007 -0.082,0.021c-0.028,0.013 -0.051,0.035 -0.069,0.065l-0.003,0l0,-0.269l-0.142,0Z" style="fill-rule:nonzero;"/>            </g>            <g transform="matrix(12.4248,0,0,12.4248,315.976,219.085)">                <path d="M0.072,-0.714l0,0.714l0.068,0l0,-0.34l0.342,0l0,-0.058l-0.342,0l0,-0.258l0.385,0l0,-0.058l-0.453,0Z" style="fill-rule:nonzero;"/>            </g>            <g transform="matrix(12.4248,0,0,12.4248,322.665,219.085)">                <path d="M0.478,0l0,-0.516l-0.063,0l0,0.271c0,0.026 -0.003,0.051 -0.009,0.076c-0.006,0.025 -0.015,0.048 -0.028,0.067c-0.013,0.019 -0.029,0.035 -0.048,0.046c-0.019,0.012 -0.043,0.018 -0.07,0.018c-0.05,0 -0.085,-0.012 -0.106,-0.036c-0.02,-0.024 -0.031,-0.059 -0.032,-0.106l0,-0.336l-0.063,0l0,0.335c0,0.031 0.003,0.058 0.01,0.082c0.007,0.024 0.017,0.044 0.031,0.061c0.015,0.017 0.033,0.029 0.056,0.038c0.023,0.009 0.051,0.014 0.084,0.014c0.039,0 0.074,-0.009 0.105,-0.028c0.032,-0.018 0.056,-0.044 0.073,-0.079l0.002,0l0,0.093l0.058,0Z" style="fill-rule:nonzero;"/>            </g>            <g transform="matrix(12.4248,0,0,12.4248,329.354,219.085)">                <path d="M0.059,-0.516l0,0.516l0.063,0l0,-0.301c0.001,-0.025 0.005,-0.049 0.013,-0.071c0.007,-0.021 0.018,-0.04 0.032,-0.055c0.013,-0.016 0.03,-0.029 0.049,-0.038c0.02,-0.009 0.043,-0.013 0.068,-0.013c0.025,0 0.046,0.004 0.064,0.012c0.017,0.008 0.03,0.019 0.04,0.033c0.01,0.014 0.017,0.03 0.021,0.049c0.004,0.019 0.006,0.04 0.006,0.062l0,0.322l0.063,0l0,-0.332c0,-0.031 -0.003,-0.058 -0.009,-0.083c-0.006,-0.025 -0.016,-0.045 -0.031,-0.063c-0.015,-0.017 -0.034,-0.03 -0.059,-0.039c-0.024,-0.009 -0.054,-0.014 -0.09,-0.014c-0.037,0 -0.07,0.009 -0.101,0.028c-0.031,0.019 -0.052,0.045 -0.064,0.076l-0.002,0l0,-0.089l-0.063,0Z" style="fill-rule:nonzero;"/>            </g>            <g transform="matrix(12.4248,0,0,12.4248,336.042,219.085)">                <path d="M0.514,0l0,-0.714l-0.063,0l0,0.296l-0.002,0c-0.007,-0.019 -0.016,-0.035 -0.029,-0.049c-0.012,-0.014 -0.026,-0.026 -0.042,-0.036c-0.016,-0.009 -0.033,-0.016 -0.051,-0.021c-0.019,-0.005 -0.038,-0.007 -0.057,-0.007c-0.039,0 -0.074,0.007 -0.103,0.022c-0.029,0.015 -0.053,0.035 -0.072,0.059c-0.019,0.025 -0.034,0.054 -0.043,0.088c-0.009,0.033 -0.014,0.067 -0.014,0.104c0,0.037 0.005,0.072 0.014,0.105c0.009,0.033 0.024,0.062 0.043,0.087c0.019,0.025 0.043,0.044 0.073,0.059c0.029,0.014 0.063,0.021 0.102,0.021c0.019,0 0.037,-0.003 0.056,-0.008c0.019,-0.005 0.037,-0.013 0.054,-0.022c0.017,-0.01 0.032,-0.022 0.044,-0.036c0.014,-0.014 0.023,-0.029 0.03,-0.046l0.002,0l0,0.098l0.058,0Zm-0.413,-0.258c0,-0.027 0.003,-0.053 0.01,-0.08c0.006,-0.026 0.016,-0.049 0.03,-0.07c0.013,-0.021 0.031,-0.037 0.052,-0.05c0.021,-0.014 0.047,-0.02 0.077,-0.02c0.033,0 0.062,0.007 0.085,0.02c0.023,0.013 0.041,0.029 0.056,0.05c0.014,0.021 0.024,0.044 0.031,0.071c0.006,0.026 0.009,0.052 0.009,0.079c0,0.027 -0.003,0.053 -0.009,0.08c-0.007,0.026 -0.017,0.049 -0.031,0.07c-0.015,0.021 -0.033,0.037 -0.056,0.05c-0.023,0.013 -0.052,0.02 -0.085,0.02c-0.03,0 -0.056,-0.007 -0.077,-0.02c-0.021,-0.013 -0.039,-0.029 -0.052,-0.05c-0.014,-0.021 -0.024,-0.044 -0.03,-0.071c-0.007,-0.026 -0.01,-0.052 -0.01,-0.079Z" style="fill-rule:nonzero;"/>            </g>            <g transform="matrix(12.4248,0,0,12.4248,343.191,219.085)">                <path d="M0.431,-0.294l-0.334,0c0.003,-0.023 0.008,-0.046 0.017,-0.069c0.008,-0.022 0.019,-0.042 0.033,-0.058c0.014,-0.018 0.031,-0.031 0.051,-0.042c0.02,-0.01 0.043,-0.015 0.069,-0.015c0.025,0 0.048,0.005 0.068,0.015c0.02,0.011 0.037,0.024 0.051,0.041c0.014,0.017 0.025,0.037 0.033,0.059c0.007,0.022 0.011,0.045 0.012,0.069Zm-0.334,0.053l0.397,0c0.001,-0.036 -0.002,-0.072 -0.01,-0.107c-0.008,-0.035 -0.021,-0.066 -0.039,-0.093c-0.019,-0.027 -0.043,-0.048 -0.072,-0.065c-0.029,-0.017 -0.065,-0.025 -0.106,-0.025c-0.041,0 -0.076,0.008 -0.105,0.023c-0.03,0.016 -0.054,0.037 -0.073,0.063c-0.019,0.025 -0.032,0.054 -0.041,0.087c-0.009,0.033 -0.014,0.066 -0.014,0.1c0,0.037 0.005,0.072 0.014,0.105c0.009,0.033 0.022,0.062 0.041,0.087c0.019,0.025 0.043,0.044 0.073,0.059c0.029,0.014 0.064,0.021 0.105,0.021c0.065,0 0.116,-0.016 0.152,-0.048c0.035,-0.032 0.06,-0.077 0.073,-0.136l-0.063,0c-0.01,0.04 -0.028,0.072 -0.054,0.096c-0.026,0.024 -0.062,0.036 -0.108,0.036c-0.03,0 -0.056,-0.006 -0.077,-0.019c-0.021,-0.013 -0.039,-0.029 -0.053,-0.048c-0.014,-0.019 -0.024,-0.041 -0.03,-0.065c-0.007,-0.025 -0.01,-0.048 -0.01,-0.071Z" style="fill-rule:nonzero;"/>            </g>            <g transform="matrix(12.4248,0,0,12.4248,349.656,219.085)">                <path d="M0.06,-0.516l0,0.516l0.063,0l0,-0.275c0,-0.027 0.005,-0.052 0.014,-0.076c0.009,-0.022 0.022,-0.042 0.039,-0.059c0.017,-0.017 0.038,-0.029 0.061,-0.038c0.023,-0.01 0.049,-0.013 0.078,-0.012l0,-0.063c-0.047,-0.002 -0.087,0.008 -0.121,0.031c-0.033,0.023 -0.058,0.055 -0.074,0.097l-0.002,0l0,-0.121l-0.058,0Z" style="fill-rule:nonzero;"/>            </g>            <g transform="matrix(12.4248,0,0,12.4248,353.586,219.085)">                <path d="M0.369,-0.365l0.063,0c-0.001,-0.028 -0.007,-0.052 -0.017,-0.073c-0.01,-0.021 -0.023,-0.038 -0.04,-0.052c-0.018,-0.014 -0.037,-0.024 -0.059,-0.031c-0.023,-0.007 -0.047,-0.01 -0.073,-0.01c-0.023,0 -0.045,0.003 -0.068,0.008c-0.023,0.005 -0.044,0.014 -0.063,0.025c-0.019,0.011 -0.034,0.026 -0.045,0.045c-0.012,0.019 -0.018,0.041 -0.018,0.067c0,0.022 0.004,0.041 0.011,0.055c0.007,0.016 0.018,0.028 0.031,0.039c0.013,0.01 0.028,0.019 0.045,0.026c0.017,0.007 0.036,0.013 0.057,0.018l0.081,0.018c0.014,0.003 0.028,0.007 0.042,0.012c0.013,0.005 0.025,0.01 0.036,0.017c0.011,0.007 0.019,0.016 0.026,0.026c0.006,0.011 0.009,0.024 0.009,0.039c0,0.018 -0.005,0.033 -0.014,0.045c-0.009,0.013 -0.02,0.023 -0.034,0.031c-0.014,0.008 -0.029,0.014 -0.045,0.017c-0.017,0.003 -0.033,0.005 -0.048,0.005c-0.042,0 -0.077,-0.011 -0.105,-0.033c-0.029,-0.021 -0.044,-0.053 -0.047,-0.096l-0.063,0c0.005,0.063 0.027,0.109 0.064,0.138c0.038,0.029 0.087,0.043 0.148,0.043c0.024,0 0.048,-0.003 0.073,-0.008c0.025,-0.005 0.047,-0.014 0.067,-0.027c0.019,-0.012 0.035,-0.028 0.048,-0.048c0.013,-0.019 0.019,-0.043 0.019,-0.071c0,-0.023 -0.004,-0.042 -0.013,-0.059c-0.009,-0.017 -0.02,-0.031 -0.033,-0.042c-0.014,-0.011 -0.03,-0.021 -0.048,-0.028c-0.017,-0.007 -0.035,-0.011 -0.053,-0.014l-0.084,-0.019c-0.011,-0.003 -0.022,-0.006 -0.035,-0.011c-0.013,-0.004 -0.024,-0.009 -0.035,-0.016c-0.011,-0.007 -0.02,-0.015 -0.027,-0.024c-0.007,-0.01 -0.01,-0.022 -0.01,-0.036c0,-0.017 0.004,-0.031 0.011,-0.042c0.007,-0.011 0.017,-0.021 0.029,-0.028c0.012,-0.007 0.025,-0.012 0.039,-0.015c0.015,-0.002 0.029,-0.004 0.043,-0.004c0.018,0 0.035,0.002 0.051,0.007c0.016,0.004 0.03,0.011 0.042,0.02c0.013,0.009 0.023,0.021 0.03,0.035c0.007,0.015 0.011,0.032 0.012,0.051Z" style="fill-rule:nonzero;"/>            </g>        </g>        <g transform="matrix(0.234117,0,0,0.234117,262.417,217.987)">            <path d="M0,-56.52c-6.968,-6.395 -16.306,-10.231 -26.508,-10.053c-21.108,0.369 -37.92,17.778 -37.551,38.885c0.368,21.107 17.778,37.919 38.885,37.551c9.569,-0.167 18.244,-3.76 24.846,-9.592l-0.232,-13.303l-9.323,0.163c-3.932,3.993 -9.437,6.479 -15.573,6.586c-12.19,0.213 -22.245,-9.497 -22.457,-21.687c-0.213,-12.19 9.496,-22.244 21.686,-22.457c5.396,-0.094 10.373,1.756 14.264,4.904l11.963,-10.997Z" style="fill:url(#_Linear1);fill-rule:nonzero;"/>        </g>        <g transform="matrix(1,0,0,1,258.265,219.05)">            <path d="M0,-8.274l0,3.352l4.922,0l0,4.922l3.352,0l0,-8.274l-8.274,0Z" style="fill:rgb(27,168,192);fill-rule:nonzero;"/>        </g>    </g>    <defs>        <linearGradient id="_Linear1" x1="0" y1="0" x2="1" y2="0" gradientUnits="userSpaceOnUse" gradientTransform="matrix(50.2966,-21.01,21.01,50.2966,-63.4283,-14.5075)"><stop offset="0" style="stop-color:rgb(0,171,196);stop-opacity:1"/><stop offset="0.48" style="stop-color:rgb(0,171,196);stop-opacity:1"/><stop offset="0.63" style="stop-color:rgb(0,171,196);stop-opacity:1"/><stop offset="0.76" style="stop-color:rgb(0,171,196);stop-opacity:1"/><stop offset="1" style="stop-color:rgb(0,171,196);stop-opacity:0"/></linearGradient>    </defs></svg>