<?xml version="1.0" encoding="UTF-8" standalone="no"?><!DOCTYPE svg PUBLIC "-//W3C//DTD SVG 1.1//EN" "http://www.w3.org/Graphics/SVG/1.1/DTD/svg11.dtd"><svg width="100%" height="100%" viewBox="0 0 1024 512" version="1.1" xmlns="http://www.w3.org/2000/svg" xmlns:xlink="http://www.w3.org/1999/xlink" xml:space="preserve" style="fill-rule:evenodd;clip-rule:evenodd;stroke-linejoin:round;stroke-miterlimit:2;"><title>CrowdLords</title><desc>The property crowdfunding platform for direct investment into hand-picked UK developments and rental property projectsChoose investments that match your financial goals, from first charge or second charge lending, to shares in individual property development projects</desc>    <g transform="matrix(6.72437,0,0,6.72437,2,100.254)">        <g transform="matrix(1,0,0,1,111,0)">            <path d="M40.212,18.196l-18.85,-17.483c-0.552,-0.52 -1.426,-0.52 -1.978,0l-18.85,17.482c-0.448,0.416 -0.598,1.066 -0.377,1.636c0.22,0.577 0.757,0.95 1.367,0.95l3.556,0l0,24.474c0,0.411 0.329,0.744 0.734,0.744c0.403,-0.003 0.733,-0.335 0.733,-0.738c0,-0.002 0,-0.004 0,-0.006l0,-25.217c0,-0.002 0,-0.004 0,-0.006c0,-0.403 -0.33,-0.735 -0.733,-0.738l-4.29,0l18.85,-17.484l18.848,17.484l-4.288,0c-0.405,0.003 -0.736,0.339 -0.733,0.744l0,25.218c0,0.411 0.328,0.744 0.733,0.744c0.403,-0.003 0.733,-0.335 0.733,-0.738c0,-0.002 0,-0.004 0,-0.006l0,-24.474l3.555,0c0.61,0 1.147,-0.373 1.368,-0.95c0.215,-0.571 0.066,-1.218 -0.378,-1.636Zm-28.842,15.016c-0.363,0.343 -0.485,0.873 -0.307,1.34c0.178,0.465 0.626,0.776 1.117,0.776l0.005,0l0.976,-0.003l-0.025,10.065c0,0.002 0,0.004 0,0.006c0,0.329 0.27,0.601 0.599,0.604l0.001,0c0.33,0 0.6,-0.272 0.6,-0.607l0.026,-10.676c0.001,-0.161 -0.062,-0.317 -0.175,-0.432c-0.11,-0.118 -0.265,-0.183 -0.426,-0.178l-1.58,0.004l8.214,-7.622l8.176,7.58l-1.587,0.005c-0.33,0.003 -0.6,0.277 -0.598,0.607l-0.027,10.681c0,0.336 0.268,0.61 0.599,0.61l0.001,0c0.331,0 0.6,-0.271 0.6,-0.606l0.026,-10.077l0.99,-0.002c0.497,-0.002 0.943,-0.314 1.115,-0.78c0.179,-0.47 0.058,-0.995 -0.31,-1.337l-8.176,-7.58c-0.453,-0.426 -1.167,-0.426 -1.62,0l-8.214,7.622Z" style="fill:url(#_Linear1);"/>        </g>        <path d="M0,37.407c0,4.23 3.008,7.593 7.541,7.593c2.797,0 4.64,-1.32 5.339,-1.898c0.233,-0.227 0.254,-0.475 0.042,-0.722l-0.19,-0.227c-0.212,-0.269 -0.466,-0.269 -0.72,-0.062c-0.658,0.516 -2.204,1.568 -4.428,1.568c-3.686,0 -6.059,-2.827 -6.059,-6.273c0,-3.404 2.373,-6.045 5.995,-6.045c2.055,0 3.496,0.846 4.131,1.28c0.276,0.185 0.53,0.164 0.72,-0.083l0.191,-0.269c0.17,-0.268 0.17,-0.515 -0.085,-0.722c-0.677,-0.515 -2.35,-1.547 -5,-1.547c-4.383,0 -7.477,3.198 -7.477,7.407Zm14.786,6.83c0,0.33 0.191,0.515 0.53,0.515l0.403,0c0.338,0 0.508,-0.185 0.508,-0.515l0,-3.88c0,-2.166 1.08,-4.662 3.326,-4.662c0.36,0 0.593,-0.186 0.593,-0.516l0,-0.372c0,-0.33 -0.17,-0.495 -0.55,-0.495c-1.695,0 -2.924,1.3 -3.433,2.806l-0.042,0c0,0 0.085,-0.371 0.085,-0.825l0,-1.403c0,-0.33 -0.19,-0.516 -0.509,-0.516l-0.381,0c-0.339,0 -0.53,0.186 -0.53,0.516l0,9.347Zm5.593,-4.725c0,3.136 2.521,5.488 5.635,5.488c3.093,0 5.614,-2.352 5.614,-5.488c0,-3.075 -2.521,-5.386 -5.635,-5.386c-3.093,0 -5.614,2.311 -5.614,5.386Zm1.483,0c0,-2.353 1.864,-4.127 4.152,-4.127c2.267,0 4.13,1.774 4.13,4.127c0,2.414 -1.863,4.23 -4.13,4.23c-2.288,0 -4.152,-1.816 -4.152,-4.23Zm13.6,4.807c0.106,0.31 0.296,0.433 0.614,0.433l0.657,0c0.318,0 0.508,-0.124 0.593,-0.433l2.457,-6.953c0.191,-0.516 0.34,-1.114 0.34,-1.114l0.042,0c0,0 0.148,0.598 0.318,1.114l2.478,6.953c0.085,0.31 0.276,0.433 0.594,0.433l0.656,0c0.297,0 0.508,-0.124 0.593,-0.433l3.263,-9.367c0.105,-0.35 -0.043,-0.578 -0.424,-0.578l-0.445,0c-0.297,0 -0.509,0.124 -0.593,0.433l-2.436,7.304c-0.129,0.365 -0.235,0.737 -0.318,1.115l-0.043,0c0,0 -0.17,-0.62 -0.338,-1.115l-2.479,-7.283c-0.085,-0.289 -0.297,-0.413 -0.593,-0.413l-0.509,0c-0.296,0 -0.508,0.124 -0.593,0.413l-2.478,7.283c-0.17,0.496 -0.339,1.115 -0.339,1.115l-0.042,0c0,0 -0.149,-0.62 -0.318,-1.115l-2.436,-7.304c-0.085,-0.31 -0.297,-0.433 -0.594,-0.433l-0.444,0c-0.382,0 -0.551,0.227 -0.445,0.578l3.262,9.367Zm13.219,-4.766c-0.001,3.218 1.779,5.447 4.639,5.447c2.796,0 3.707,-2.167 3.707,-2.167l0.042,0c0,0 -0.084,0.269 -0.084,0.64l0,0.784c0,0.33 0.19,0.495 0.53,0.495l0.36,0c0.338,0 0.508,-0.185 0.508,-0.515l0,-13.474c0,-0.33 -0.17,-0.516 -0.508,-0.516l-0.403,0c-0.34,0 -0.53,0.186 -0.53,0.516l0,4.663c0,0.434 0.064,0.784 0.064,0.784l-0.043,0c0,0 -0.91,-2.084 -3.495,-2.084c-2.796,0 -4.787,2.146 -4.787,5.427Zm1.482,0c0,-2.62 1.547,-4.147 3.432,-4.147c2.288,0 3.39,2.042 3.39,4.147c0,2.95 -1.674,4.188 -3.453,4.188c-1.992,0 -3.369,-1.63 -3.369,-4.188Zm10.974,4.684c0,0.33 0.17,0.515 0.508,0.515l7.33,0c0.339,0 0.53,-0.185 0.53,-0.515l0,-0.248c0,-0.33 -0.191,-0.516 -0.53,-0.516l-6.376,0l0,-12.71c0,-0.33 -0.191,-0.516 -0.509,-0.516l-0.445,0c-0.339,0 -0.508,0.186 -0.508,0.516l0,13.474Zm8.198,-4.725c0,3.136 2.52,5.488 5.635,5.488c3.093,0 5.614,-2.352 5.614,-5.488c0,-3.075 -2.521,-5.386 -5.635,-5.386c-3.093,0 -5.614,2.311 -5.614,5.386Zm1.483,0c0,-2.353 1.864,-4.127 4.152,-4.127c2.267,0 4.13,1.774 4.13,4.127c0,2.414 -1.863,4.23 -4.13,4.23c-2.288,0 -4.152,-1.816 -4.152,-4.23Zm11.545,4.725c0,0.33 0.19,0.515 0.53,0.515l0.402,0c0.34,0 0.509,-0.185 0.509,-0.515l0,-3.88c0,-2.166 1.08,-4.662 3.325,-4.662c0.36,0 0.594,-0.186 0.594,-0.516l0,-0.372c0,-0.33 -0.17,-0.495 -0.551,-0.495c-1.695,0 -2.924,1.3 -3.432,2.806l-0.042,0c0,0 0.084,-0.371 0.084,-0.825l0,-1.403c0,-0.33 -0.19,-0.516 -0.508,-0.516l-0.381,0c-0.34,0 -0.53,0.186 -0.53,0.516l0,9.347Zm5.656,-4.684c0,3.218 1.78,5.447 4.64,5.447c2.796,0 3.707,-2.167 3.707,-2.167l0.042,0c0,0 -0.085,0.269 -0.085,0.64l0,0.784c0,0.33 0.191,0.495 0.53,0.495l0.36,0c0.34,0 0.509,-0.185 0.509,-0.515l0,-13.474c0,-0.33 -0.17,-0.516 -0.509,-0.516l-0.402,0c-0.34,0 -0.53,0.186 -0.53,0.516l0,4.663c0,0.434 0.064,0.784 0.064,0.784l-0.043,0c0,0 -0.91,-2.084 -3.495,-2.084c-2.796,0 -4.788,2.146 -4.788,5.427Zm1.483,0c0,-2.62 1.547,-4.147 3.432,-4.147c2.288,0 3.39,2.042 3.39,4.147c0,2.95 -1.674,4.188 -3.453,4.188c-1.992,0 -3.369,-1.63 -3.369,-4.188Zm10.295,4.25c0.53,0.434 1.738,1.197 3.602,1.197c2.118,0 3.601,-1.217 3.601,-2.93c0,-3.466 -5.677,-2.703 -5.677,-5.096c0,-1.135 0.974,-1.61 2.097,-1.61c1.123,0 1.885,0.393 2.288,0.66c0.296,0.166 0.55,0.145 0.72,-0.144l0.149,-0.227c0.169,-0.268 0.126,-0.516 -0.149,-0.68c-0.445,-0.31 -1.398,-0.847 -2.923,-0.847c-1.95,0 -3.623,0.99 -3.623,2.91c0,3.425 5.699,2.723 5.699,5.055c0,1.093 -0.975,1.67 -2.16,1.67c-1.017,-0.001 -2.007,-0.334 -2.818,-0.948c-0.297,-0.186 -0.53,-0.165 -0.721,0.082l-0.17,0.207c-0.19,0.268 -0.169,0.516 0.085,0.701Z" style="fill:rgb(88,88,91);"/>    </g>    <defs>        <linearGradient id="_Linear1" x1="0" y1="0" x2="1" y2="0" gradientUnits="userSpaceOnUse" gradientTransform="matrix(2.79691e-15,-45.677,45.677,2.79691e-15,20.3716,46)"><stop offset="0" style="stop-color:rgb(202,97,168);stop-opacity:1"/><stop offset="1" style="stop-color:rgb(145,171,255);stop-opacity:1"/></linearGradient>    </defs></svg>