<?xml version="1.0" encoding="UTF-8" standalone="no"?><!DOCTYPE svg PUBLIC "-//W3C//DTD SVG 1.1//EN" "http://www.w3.org/Graphics/SVG/1.1/DTD/svg11.dtd"><svg width="100%" height="100%" viewBox="0 0 1024 512" version="1.1" xmlns="http://www.w3.org/2000/svg" xmlns:xlink="http://www.w3.org/1999/xlink" xml:space="preserve" style="fill-rule:evenodd;clip-rule:evenodd;stroke-linejoin:round;stroke-miterlimit:2;"><title>Crealsa</title><desc>Our commitment is to offer financing quickly and easily to companies and freelancers, without complicated formal requirements or policies.   We are aware of the treasury tensions that prevent companies and freelancers from discounting the promissory notes issued by their clients. Our innovative business model is based on two fundamental values: the application of new technologies and the concept of "alternative to traditional banking."</desc>    <g id="g30" transform="matrix(8.93526,-1.31477e-31,1.31477e-31,-8.93526,-796.799,1766.08)">        <g id="path38" transform="matrix(0.266695,0,0,0.281204,126.996,168.186)">            <path d="M0,0c3.073,-2.598 4.642,-5.943 4.642,-10.023c0,-2.184 -0.626,-4.086 -1.845,-5.698c-1.23,-1.605 -2.797,-2.416 -4.706,-2.416c-1.271,0 -2.383,0.369 -3.338,1.117c-1.801,1.313 -2.702,3.709 -2.702,7.186c0,0.359 0.022,0.918 0.053,1.631c0.031,0.723 0.043,1.494 0.043,2.328c0,2.225 -0.402,3.746 -1.23,4.572c-0.836,0.832 -1.812,1.24 -2.903,1.24c-3.106,0 -5.31,-2.158 -6.624,-6.462c-1.314,-4.317 -1.96,-9.264 -1.96,-14.829c0,-7.921 1.25,-14.56 3.729,-19.929c2.492,-5.367 5.839,-8.047 10.069,-8.047c2.67,0 4.918,0.74 6.782,2.228c1.114,0.866 2.49,2.454 4.133,4.764l1.865,-2.166c-3.275,-5.738 -7.11,-9.68 -11.498,-11.822c-2.321,-1.113 -4.791,-1.674 -7.428,-1.674c-6.444,0 -11.722,2.91 -15.823,8.732c-4.102,5.819 -7.049,12.436 -7.049,20.815c0,8.832 3.085,16.83 7.419,23.037c4.345,6.211 10.132,9.316 17.381,9.316c4.218,0 7.884,-1.291 10.99,-3.9" style="fill:rgb(18,80,135);fill-rule:nonzero;"/>        </g>        <g id="path42" transform="matrix(0.266695,0,0,0.281204,129.574,152.857)">            <path d="M0,0c2.002,0.307 3.371,0.895 4.154,1.789c0.784,0.897 1.208,2.619 1.272,5.174l0.095,3.824l0,35.522c0,2.744 -0.371,4.611 -1.103,5.595c-0.751,0.987 -2.225,1.666 -4.418,1.994l0,3.125l19.648,0l0,-10.267c2.205,3.611 4.376,6.484 6.55,8.615c2.171,2.119 4.673,3.184 7.512,3.184c2.143,0 4.06,-0.869 5.766,-2.58c1.716,-1.727 2.575,-4.239 2.575,-7.565c0,-2.543 -0.625,-4.654 -1.811,-6.308c-1.188,-1.659 -2.766,-2.489 -4.697,-2.489c-2.204,0 -4.099,1.303 -5.71,3.889c-1.601,2.596 -2.724,3.9 -3.371,3.9c-1.398,0 -2.788,-1.082 -4.197,-3.232c-1.409,-2.141 -2.109,-5.215 -2.109,-9.232l0,-24.735c0,-4.312 0.509,-6.994 1.505,-8.08c0.985,-1.074 2.968,-1.785 5.945,-2.123l0,-3.129l-27.606,0l0,3.129Z" style="fill:rgb(18,80,135);fill-rule:nonzero;"/>        </g>        <g id="path46" transform="matrix(0.266695,0,0,0.281204,148.787,162.476)">            <path d="M0,0c-0.074,7.471 -0.531,12.686 -1.379,15.664c-0.879,2.969 -2.574,4.451 -5.139,4.461c-2.628,-0.01 -4.42,-1.717 -5.395,-5.139c-0.985,-3.423 -1.524,-8.42 -1.663,-14.986l13.576,0Zm-21.398,16.002c4.102,5.385 9.084,8.076 14.88,8.076c3.317,0 6.432,-1.092 9.346,-3.285c2.926,-2.182 5.174,-5.215 6.742,-9.098c1.176,-2.92 2.002,-6.722 2.457,-11.381c0.235,-2.187 0.35,-3.863 0.35,-5.013l-25.699,0c0.223,-5.076 0.879,-9.471 1.96,-13.19c1.972,-6.974 5.437,-10.459 10.397,-10.459c2.373,0 4.6,0.932 6.688,2.785c1.293,1.114 2.882,2.991 4.789,5.635l2.31,-1.791c-3.115,-6.439 -6.728,-10.918 -10.83,-13.443c-2.648,-1.6 -5.701,-2.406 -9.158,-2.406c-4.948,0 -9.59,2.457 -13.913,7.365c-4.335,4.912 -7.535,12.685 -7.535,23.465c0,9.738 3.095,17.357 7.216,22.74" style="fill:rgb(18,80,135);fill-rule:nonzero;"/>        </g>        <g id="path50" transform="matrix(0.266695,0,0,0.281204,159.881,155.017)">            <path d="M0,0c0.783,0.742 1.707,1.908 2.797,3.475l0,18.552c-2.682,-0.82 -5.055,-2.134 -7.078,-3.904c-3.424,-3.031 -5.153,-6.867 -5.153,-11.553c0,-2.765 0.498,-4.863 1.496,-6.295c0.985,-1.418 2.12,-2.14 3.37,-2.14c1.642,0 3.158,0.625 4.568,1.865m-17.539,16.314c4.346,3.346 11.18,6.721 20.484,10.106l0,9.225c0,3.755 -0.634,6.535 -1.884,8.324c-1.262,1.797 -3.51,2.691 -6.711,2.691c-1.811,0 -3.286,-0.424 -4.45,-1.262c-1.166,-0.851 -1.75,-1.916 -1.75,-3.187c0,-0.498 0.065,-0.912 0.204,-1.24c0.117,-0.33 0.328,-0.69 0.591,-1.061l0.584,-0.863c0.455,-0.705 0.826,-1.479 1.102,-2.317c0.287,-0.847 0.424,-1.748 0.424,-2.689c0,-2.402 -0.627,-4.24 -1.885,-5.545c-1.274,-1.301 -2.736,-1.959 -4.408,-1.959c-1.932,0 -3.573,0.731 -4.94,2.168c-1.357,1.436 -2.035,3.524 -2.035,6.24c0,4.856 1.822,8.707 5.447,11.535c3.645,2.846 8.118,4.266 13.418,4.266c5.702,0 10.481,-1.383 14.305,-4.148c3.795,-2.803 6.635,-8.012 6.635,-15.526l-0.932,-30.636c0,-0.922 0.18,-1.696 0.561,-2.338c0.371,-0.631 0.795,-0.948 1.25,-0.948c0.402,0 0.754,0.09 1.06,0.286c0.307,0.173 0.793,0.677 1.451,1.503l1.516,-2.658c-1.961,-2.894 -4.144,-4.918 -6.527,-6.072c-1.506,-0.73 -3.096,-1.107 -4.77,-1.107c-2.988,0 -5.162,1.089 -6.539,3.285c-0.783,1.244 -1.357,3.078 -1.717,5.525c-2.775,-3.519 -5.933,-5.998 -9.443,-7.449c-2.129,-0.908 -4.219,-1.361 -6.283,-1.361c-2.744,0 -5.321,1.095 -7.715,3.314c-2.397,2.205 -3.594,5.654 -3.594,10.318c0,5.707 2.184,10.239 6.551,13.58" style="fill:rgb(18,80,135);fill-rule:nonzero;"/>        </g>        <g id="path54" transform="matrix(0.266695,0,0,0.281204,166.313,152.547)">            <path d="M0,0c1.994,0.074 3.402,0.408 4.25,0.986c1.443,0.944 2.162,2.76 2.162,5.446l0,44.277c0,2.66 -0.68,4.457 -2.045,5.367c-0.804,0.569 -2.258,0.918 -4.367,1.067l0,2.32l27.619,0l0,-2.32c-2.957,-0.122 -4.918,-0.637 -5.916,-1.559c-0.986,-0.91 -1.461,-3.18 -1.461,-6.793l0,-43.207c0,-2.029 0.414,-3.369 1.262,-4.033c0.838,-0.651 2.469,-0.979 4.896,-0.979c4.387,0 5.827,1.219 8.795,3.645c2.957,2.422 5.522,7.148 7.662,14.17l2.131,0l-0.711,-20.719l-42.041,0l-2.236,2.332Z" style="fill:rgb(18,80,135);fill-rule:nonzero;"/>        </g>        <g id="path58" transform="matrix(0.266695,0,0,0.281204,180.335,157.854)">            <path d="M0,0l2.797,0c0.974,-6.072 2.808,-10.354 5.51,-12.85c2.681,-2.496 5.437,-3.742 8.246,-3.742c2.595,0 4.494,0.733 5.711,2.199c1.199,1.463 1.824,3.393 1.824,5.782c0,2.267 -0.668,4.213 -1.983,5.816c-0.72,0.865 -1.875,1.799 -3.484,2.795l-7.463,4.578c-3.931,2.426 -6.75,5.065 -8.445,7.914c-1.748,2.852 -2.617,6.213 -2.617,10.102c0,4.906 1.355,9.144 4.078,12.715c2.724,3.562 6.519,5.347 11.402,5.347c2.119,0 4.389,-0.439 6.783,-1.33c2.397,-0.89 3.879,-1.334 4.473,-1.334c0.816,0 1.41,0.227 1.75,0.658c0.338,0.428 0.635,1.043 0.857,1.823l2.204,0l0,-18.325l-2.555,0c-0.942,4.299 -2.51,7.747 -4.662,10.332c-2.162,2.608 -4.694,3.901 -7.578,3.901c-2.235,0 -3.887,-0.779 -4.991,-2.348c-1.08,-1.562 -1.63,-3.263 -1.63,-5.076c0,-1.488 0.496,-2.973 1.461,-4.455c0.943,-1.527 2.767,-3.094 5.406,-4.707l5.521,-3.348c3.403,-2.056 5.891,-4.049 7.459,-5.994c2.619,-3.307 4.822,-7.111 4.822,-11.937c0,-4.711 -2.246,-9.348 -4.949,-13.407c-2.691,-4.07 -6.75,-6.097 -12.154,-6.097c-1.346,0 -2.703,0.174 -4.059,0.533c-1.355,0.34 -3.041,0.943 -5.035,1.814l-1.715,0.752c-0.625,0.28 -1.007,0.446 -1.156,0.485c-0.16,0.045 -0.34,0.066 -0.572,0.066c-0.563,0 -1.037,-0.275 -1.442,-0.828c-0.423,-0.566 -0.878,-1.504 -1.41,-2.822l-2.404,0l0,20.988Z" style="fill:rgb(18,80,135);fill-rule:nonzero;"/>        </g>        <g id="path62" transform="matrix(0.266695,0,0,0.281204,197.55,155.017)">            <path d="M0,0c0.795,0.742 1.727,1.908 2.809,3.475l0,18.552c-2.692,-0.82 -5.045,-2.134 -7.08,-3.904c-3.432,-3.021 -5.161,-6.867 -5.161,-11.541c0,-2.777 0.51,-4.875 1.506,-6.307c1.006,-1.418 2.119,-2.14 3.369,-2.14c1.633,0 3.159,0.625 4.557,1.865m-17.527,16.314c4.345,3.346 11.181,6.721 20.484,10.106l0,9.225c0,3.755 -0.637,6.535 -1.885,8.324c-1.261,1.797 -3.498,2.691 -6.72,2.691c-1.791,0 -3.274,-0.424 -4.452,-1.262c-1.156,-0.851 -1.736,-1.916 -1.736,-3.187c0,-0.498 0.084,-0.912 0.201,-1.24c0.137,-0.34 0.328,-0.69 0.582,-1.049l0.606,-0.875c0.453,-0.705 0.826,-1.479 1.09,-2.317c0.275,-0.847 0.412,-1.748 0.412,-2.689c0,-2.402 -0.625,-4.24 -1.885,-5.545c-1.252,-1.301 -2.725,-1.959 -4.399,-1.959c-1.927,0 -3.57,0.731 -4.937,2.168c-1.357,1.436 -2.035,3.524 -2.035,6.24c0,4.856 1.822,8.707 5.447,11.535c3.645,2.846 8.117,4.266 13.416,4.266c5.711,0 10.469,-1.383 14.318,-4.148c3.793,-2.803 6.454,-8.504 6.454,-16.024l-0.752,-30.138c-0.012,-0.922 0.168,-1.696 0.541,-2.338c0.39,-0.631 0.804,-0.948 1.259,-0.948c0.405,0 0.752,0.09 1.049,0.286c0.33,0.173 0.807,0.677 1.465,1.503l1.514,-2.658c-1.961,-2.894 -4.133,-4.918 -6.539,-6.072c-1.504,-0.73 -3.094,-1.107 -4.746,-1.107c-3,0 -5.162,1.095 -6.541,3.285c-0.793,1.244 -1.377,3.078 -1.727,5.525c-2.789,-3.519 -5.924,-5.998 -9.441,-7.449c-2.131,-0.908 -4.219,-1.361 -6.297,-1.361c-2.733,0 -5.309,1.095 -7.703,3.314c-2.395,2.205 -3.592,5.654 -3.592,10.318c0,5.707 2.181,10.239 6.549,13.58" style="fill:rgb(18,80,135);fill-rule:nonzero;"/>        </g>        <g id="g64" transform="matrix(0.173971,0,0,0.183436,76.7163,123.471)">            <path id="path88" d="M198.099,303.208c27.447,-15.191 33.922,-56.066 14.445,-91.348l-8.532,-15.427c-19.521,-35.258 -57.566,-50.885 -85.013,-35.725c-27.47,15.207 -28.858,53.941 -18.081,80.256c6.74,16.457 13.067,26.844 13.067,26.844c19.32,34.302 56.677,50.561 84.114,35.4" style="fill:url(#_Linear1);fill-rule:nonzero;"/>        </g>        <g id="g102" transform="matrix(0.173971,0,0,0.183436,76.7163,123.471)">            <clipPath id="_clip2">                <rect id="path126" x="72.898" y="155.137" width="105.421" height="186.436"/>            </clipPath>            <g clip-path="url(#_clip2)">                <path d="M175.388,256.96c0.561,-4.897 1.218,-8.451 1.706,-12.285c0.626,-4.983 1.038,-9.699 1.134,-13.981c0.414,-19.191 -0.275,-33.859 -8.447,-53.863c-0.72,-1.695 -3.507,-6.385 -4.799,-8.256c-1.337,-1.881 -2.618,-3.32 -3.997,-4.668c-4.534,-4.424 -11.88,-9.373 -24.342,-8.711c-2.49,0.117 -11.424,1.803 -17.38,5.369c-4.154,2.479 -8.923,5.791 -12.94,10.803c-11.477,14.287 -24.173,38.194 -30.881,67.736c-8.192,45.723 4.536,83.562 22.032,96.792c2.512,1.914 3.105,2.109 4.621,2.873c2.405,1.198 4.07,1.632 6.443,2.114c1.526,0.318 3.74,0.62 4.6,0.641c1.123,0.032 2.246,0.08 3.454,0.021c24.078,-1.144 49.778,-34.134 58.796,-84.585" style="fill:url(#_Linear3);fill-rule:nonzero;"/>            </g>        </g>        <g id="g140" transform="matrix(0.173971,0,0,0.183436,76.7163,123.471)">            <clipPath id="_clip4">                <rect id="path166" x="111.031" y="159.801" width="57.834" height="75.74"/>            </clipPath>            <g clip-path="url(#_clip4)">                <path d="M166.57,189.999c-5.944,-20.166 -21.386,-33.371 -34.494,-29.537l-5.734,1.719c-13.12,3.847 -18.917,23.336 -12.983,43.492c5.956,20.156 23.464,31.931 34.529,29.568c0,0 1.026,-0.191 2.764,-0.609c2.555,-0.627 2.078,-0.611 2.958,-0.918c12.908,-4.471 18.885,-23.547 12.96,-43.715" style="fill:url(#_Linear5);fill-rule:nonzero;"/>            </g>        </g>        <g transform="matrix(0.173971,0,0,0.183436,103.206,161.267)">            <g id="g180">                <clipPath id="_clip6">                    <rect id="path188" x="-76.726" y="0" width="148.24" height="135.529"/>                </clipPath>                <g clip-path="url(#_clip6)">                    <path d="M0,0c32.376,0 60.079,19.924 71.514,48.166c-0.107,21.133 -9.009,39.783 -25.678,48.998c-11.871,6.577 -25.754,7.239 -39.244,3.004c-11.817,21.715 -27.352,34.628 -42.242,35.333c-1.208,0.059 -2.342,0.011 -3.466,-0.021c-0.815,-0.021 -3.051,-0.323 -4.599,-0.641c-2.373,-0.482 -4.027,-0.916 -6.432,-2.114c-1.516,-0.764 -2.12,-0.959 -4.621,-2.872c-12.643,-9.559 -21.259,-31.665 -21.958,-60.443c3.868,-38.984 36.741,-69.41 76.726,-69.41" style="fill:rgb(244,244,244);fill-opacity:0.17;fill-rule:nonzero;"/>                </g>            </g>        </g>    </g>    <defs>        <linearGradient id="_Linear1" x1="0" y1="0" x2="1" y2="0" gradientUnits="userSpaceOnUse" gradientTransform="matrix(129.13,0,0,129.13,94.6558,231.914)"><stop offset="0" style="stop-color:rgb(47,139,141);stop-opacity:0.77"/><stop offset="0.36" style="stop-color:rgb(62,190,189);stop-opacity:0.77"/><stop offset="0.98" style="stop-color:rgb(18,125,197);stop-opacity:0.77"/><stop offset="0.99" style="stop-color:rgb(18,125,197);stop-opacity:0.77"/><stop offset="1" style="stop-color:rgb(18,125,197);stop-opacity:0.77"/></linearGradient>        <linearGradient id="_Linear3" x1="0" y1="0" x2="1" y2="0" gradientUnits="userSpaceOnUse" gradientTransform="matrix(105.421,0,0,105.421,72.8984,248.354)"><stop offset="0" style="stop-color:rgb(47,139,141);stop-opacity:0.25"/><stop offset="0.52" style="stop-color:rgb(166,223,184);stop-opacity:0.25"/><stop offset="0.98" style="stop-color:rgb(18,125,197);stop-opacity:0.25"/><stop offset="0.99" style="stop-color:rgb(18,125,197);stop-opacity:0.25"/><stop offset="1" style="stop-color:rgb(18,125,197);stop-opacity:0.25"/></linearGradient>        <linearGradient id="_Linear5" x1="0" y1="0" x2="1" y2="-0.0298332" gradientUnits="userSpaceOnUse" gradientTransform="matrix(61.0009,19.8204,-19.8204,61.0009,109.545,187.506)"><stop offset="0" style="stop-color:rgb(12,16,41);stop-opacity:0.72"/><stop offset="0.38" style="stop-color:rgb(12,16,41);stop-opacity:0.72"/><stop offset="0.58" style="stop-color:rgb(12,16,41);stop-opacity:0.72"/><stop offset="0.98" style="stop-color:rgb(19,123,201);stop-opacity:0.72"/><stop offset="0.99" style="stop-color:rgb(19,123,201);stop-opacity:0.72"/><stop offset="1" style="stop-color:rgb(19,123,201);stop-opacity:0.72"/></linearGradient>    </defs></svg>