<?xml version="1.0" encoding="UTF-8" standalone="no"?><!DOCTYPE svg PUBLIC "-//W3C//DTD SVG 1.1//EN" "http://www.w3.org/Graphics/SVG/1.1/DTD/svg11.dtd"><svg width="100%" height="100%" viewBox="0 0 1024 512" version="1.1" xmlns="http://www.w3.org/2000/svg" xmlns:xlink="http://www.w3.org/1999/xlink" xml:space="preserve" style="fill-rule:evenodd;clip-rule:evenodd;stroke-linejoin:round;stroke-miterlimit:2;"><title>UKCFA</title><desc>The UK is a world leader in the creation of new forms of crowdfunding from simple donations and rewards based schemes to fully regulated investments in the businesses and projects that shape our world.The UKCFA represents this diverse and vibrant industry and gives our members a collective voice across government, media, regulators, and most importantly, to the general public. Our members provide the platforms necessary to bring investors and fundraisers together across many industries, providing choice in this ever expanding marketplace.</desc>    <g transform="matrix(0.383067,0,0,0.383067,180.1,77.3718)">        <g transform="matrix(6.68821,0,0,2.19877,-983.977,537.233)">            <g transform="matrix(51.3181,0,0,156.099,75,171.044)">                <path d="M0.522,-0.199c-0.029,0.065 -0.156,0.097 -0.217,0.097c-0.025,0 -0.047,-0.005 -0.065,-0.016c-0.019,-0.009 -0.034,-0.021 -0.045,-0.036c-0.014,-0.015 -0.014,-0.035 -0.019,-0.06c-0.005,-0.025 -0.008,-0.072 -0.008,-0.142c0,-0.07 0.003,-0.118 0.008,-0.143c0.005,-0.024 0.005,-0.044 0.019,-0.059c0.011,-0.015 0.026,-0.027 0.045,-0.037c0.018,-0.009 0.04,-0.014 0.065,-0.015c0.035,0.001 0.055,0.001 0.079,0.02c0.023,0.02 0.021,0.039 0.03,0.068l0.114,0c-0.011,-0.06 -0.012,-0.094 -0.055,-0.135c-0.043,-0.04 -0.099,-0.06 -0.168,-0.061c-0.056,0.001 -0.103,0.014 -0.14,0.04c-0.038,0.026 -0.066,0.055 -0.083,0.088c-0.011,0.017 -0.019,0.04 -0.024,0.068c-0.005,0.028 -0.007,0.083 -0.007,0.166c0,0.081 0.002,0.136 0.007,0.165c0.003,0.015 0.006,0.028 0.01,0.038c0.004,0.01 0.009,0.02 0.014,0.031c0.017,0.033 0.045,0.062 0.083,0.087c0.037,0.026 0.084,0.04 0.14,0.041c0.062,0 0.116,0 0.161,-0.035c0.044,-0.035 0.023,-0.014 0.056,-0.043l0,-0.127Z" style="fill:rgb(41,41,41);fill-rule:nonzero;"/>            </g>            <g transform="matrix(51.3181,0,0,156.099,103.541,171.044)">                <path d="M0.183,-0.616l0.169,0c0.035,0 0.061,0.008 0.079,0.022c0.023,0.017 0.035,0.044 0.036,0.081c0,0.031 -0.01,0.057 -0.03,0.078c-0.02,0.023 -0.05,0.034 -0.091,0.035l-0.163,0l0,-0.216Zm-0.108,0.616l0.108,0l0,-0.304l0.138,0l0.147,0.304l0.128,0l-0.165,-0.316c0.091,-0.035 0.137,-0.101 0.138,-0.197c-0.002,-0.066 -0.026,-0.117 -0.071,-0.152c-0.037,-0.031 -0.086,-0.047 -0.145,-0.047l-0.278,0l0,0.712Z" style="fill:rgb(41,41,41);fill-rule:nonzero;"/>            </g>            <g transform="matrix(51.3181,0,0,156.099,137.162,171.044)">                <path d="M0.051,-0.356c0,0.081 0.002,0.136 0.007,0.165c0.003,0.015 0.006,0.028 0.01,0.038c0.004,0.01 0.009,0.02 0.014,0.031c0.017,0.033 0.045,0.062 0.083,0.087c0.037,0.026 0.084,0.04 0.14,0.041c0.057,-0.001 0.104,-0.015 0.142,-0.041c0.037,-0.025 0.064,-0.054 0.081,-0.087c0.012,-0.017 0.02,-0.04 0.025,-0.069c0.004,-0.029 0.006,-0.084 0.006,-0.165c0,-0.083 -0.002,-0.138 -0.006,-0.166c-0.005,-0.028 -0.013,-0.051 -0.025,-0.068c-0.017,-0.033 -0.044,-0.062 -0.081,-0.088c-0.038,-0.026 -0.085,-0.039 -0.142,-0.04c-0.056,0.001 -0.103,0.014 -0.14,0.04c-0.038,0.026 -0.066,0.055 -0.083,0.088c-0.011,0.017 -0.019,0.04 -0.024,0.068c-0.005,0.028 -0.007,0.083 -0.007,0.166Zm0.108,0c0,-0.07 0.003,-0.118 0.008,-0.143c0.005,-0.024 0.014,-0.044 0.028,-0.059c0.011,-0.015 0.026,-0.027 0.045,-0.037c0.018,-0.009 0.04,-0.014 0.065,-0.015c0.026,0.001 0.048,0.006 0.067,0.015c0.018,0.01 0.032,0.022 0.043,0.037c0.014,0.015 0.024,0.035 0.029,0.059c0.005,0.025 0.007,0.073 0.007,0.143c0,0.07 -0.002,0.117 -0.007,0.142c-0.005,0.025 -0.015,0.045 -0.029,0.06c-0.011,0.015 -0.025,0.027 -0.043,0.036c-0.019,0.011 -0.041,0.016 -0.067,0.016c-0.025,0 -0.047,-0.005 -0.065,-0.016c-0.019,-0.009 -0.034,-0.021 -0.045,-0.036c-0.014,-0.015 -0.023,-0.035 -0.028,-0.06c-0.005,-0.025 -0.008,-0.072 -0.008,-0.142Z" style="fill:rgb(41,41,41);fill-rule:nonzero;"/>            </g>            <g transform="matrix(60.5072,0,0,156.099,170.684,171.044)">                <path d="M0.189,0l0.09,0l0.136,-0.513l0.002,0l0.136,0.513l0.09,0l0.178,-0.712l-0.114,0l-0.112,0.506l-0.002,0l-0.138,-0.506l-0.078,0l-0.138,0.506l-0.002,0l-0.112,-0.506l-0.114,0l0.178,0.712Z" style="fill:rgb(41,41,41);fill-rule:nonzero;"/>            </g>            <g transform="matrix(55.9316,0,0,156.099,221.972,171.044)">                <path d="M0.075,0l0.242,0c0.053,0 0.098,-0.012 0.135,-0.035c0.037,-0.022 0.066,-0.05 0.087,-0.083c0.008,-0.013 0.015,-0.025 0.02,-0.037c0.005,-0.012 0.009,-0.026 0.012,-0.041c0.005,-0.03 0.008,-0.083 0.008,-0.16c0,-0.072 -0.002,-0.123 -0.005,-0.152c-0.005,-0.029 -0.016,-0.057 -0.033,-0.084c-0.048,-0.079 -0.12,-0.119 -0.217,-0.12l-0.249,0l0,0.712Zm0.108,-0.61l0.129,0c0.055,-0.001 0.097,0.019 0.127,0.06c0.015,0.017 0.024,0.038 0.028,0.065c0.003,0.027 0.004,0.071 0.004,0.133c0,0.063 -0.001,0.107 -0.004,0.13c-0.003,0.023 -0.011,0.043 -0.023,0.058c-0.027,0.041 -0.071,0.062 -0.132,0.062l-0.129,0l0,-0.508Z" style="fill:rgb(41,41,41);fill-rule:nonzero;"/>            </g>            <g transform="matrix(51.3181,0,0,156.099,257.434,171.044)">                <path d="M0.075,0l0.108,0l0,-0.304l0.296,0l0,-0.096l-0.296,0l0,-0.21l0.347,0l0,-0.102l-0.455,0l0,0.712Z" style="fill:rgb(41,41,41);fill-rule:nonzero;"/>            </g>            <g transform="matrix(51.3181,0,0,156.099,284.997,171.044)">                <path d="M0.062,-0.241c0.001,0.075 0.025,0.134 0.074,0.178c0.048,0.045 0.108,0.068 0.179,0.069c0.073,-0.001 0.133,-0.024 0.18,-0.069c0.047,-0.044 0.072,-0.103 0.073,-0.178l0,-0.471l-0.108,0l0,0.459c-0.001,0.049 -0.014,0.086 -0.041,0.111c-0.027,0.027 -0.062,0.04 -0.104,0.04c-0.042,0 -0.076,-0.013 -0.103,-0.04c-0.027,-0.025 -0.041,-0.062 -0.042,-0.111l0,-0.459l-0.108,0l0,0.471Z" style="fill:rgb(41,41,41);fill-rule:nonzero;"/>            </g>            <g transform="matrix(51.3181,0,0,156.099,319.646,171.044)">                <path d="M0.075,0l0.108,0l0,-0.506l0.002,0l0.322,0.506l0.102,0l0,-0.712l-0.108,0l0,0.506l-0.002,0l-0.322,-0.506l-0.102,0l0,0.712Z" style="fill:rgb(41,41,41);fill-rule:nonzero;"/>            </g>            <g transform="matrix(51.3181,0,0,156.099,357.542,171.044)">                <path d="M0.075,0l0.242,0c0.053,0 0.098,-0.012 0.135,-0.035c0.037,-0.022 0.066,-0.05 0.087,-0.083c0.008,-0.013 0.015,-0.025 0.02,-0.037c0.005,-0.012 0.009,-0.026 0.012,-0.041c0.005,-0.03 0.008,-0.083 0.008,-0.16c0,-0.072 -0.002,-0.123 -0.005,-0.152c-0.005,-0.029 -0.016,-0.057 -0.033,-0.084c-0.048,-0.079 -0.12,-0.119 -0.217,-0.12l-0.249,0l0,0.712Zm0.108,-0.61l0.129,0c0.055,-0.001 0.097,0.019 0.127,0.06c0.015,0.017 0.024,0.038 0.028,0.065c0.003,0.027 0.004,0.071 0.004,0.133c0,0.063 -0.001,0.107 -0.004,0.13c-0.003,0.023 -0.011,0.043 -0.023,0.058c-0.027,0.041 -0.071,0.062 -0.132,0.062l-0.129,0l0,-0.508Z" style="fill:rgb(41,41,41);fill-rule:nonzero;"/>            </g>            <g transform="matrix(51.3181,0,0,156.099,392.656,171.044)">                <rect x="0.075" y="-0.712" width="0.108" height="0.712" style="fill:rgb(41,41,41);fill-rule:nonzero;"/>            </g>            <g transform="matrix(51.3181,0,0,156.099,408.211,171.044)">                <path d="M0.075,0l0.108,0l0,-0.506l0.002,0l0.322,0.506l0.102,0l0,-0.712l-0.108,0l0,0.506l-0.002,0l-0.322,-0.506l-0.102,0l0,0.712Z" style="fill:rgb(41,41,41);fill-rule:nonzero;"/>            </g>            <g transform="matrix(51.3181,0,0,156.099,447.036,171.044)">                <path d="M0.306,-0.29l0.145,0l0,0.037c0,0.045 -0.014,0.081 -0.042,0.108c-0.027,0.029 -0.062,0.043 -0.104,0.043c-0.025,0 -0.047,-0.005 -0.065,-0.016c-0.019,-0.009 -0.034,-0.021 -0.045,-0.036c-0.014,-0.015 -0.023,-0.035 -0.028,-0.06c-0.005,-0.025 -0.008,-0.072 -0.008,-0.142c0,-0.07 0.003,-0.118 0.008,-0.143c0.005,-0.024 0.014,-0.044 0.028,-0.059c0.011,-0.015 0.026,-0.027 0.045,-0.037c0.018,-0.009 0.04,-0.014 0.065,-0.015c0.035,0.001 0.064,0.011 0.088,0.03c0.023,0.02 0.039,0.045 0.048,0.073l0.114,0c-0.011,-0.059 -0.039,-0.109 -0.082,-0.15c-0.043,-0.04 -0.099,-0.06 -0.168,-0.061c-0.056,0.001 -0.103,0.014 -0.14,0.04c-0.038,0.026 -0.066,0.055 -0.083,0.088c-0.011,0.017 -0.019,0.04 -0.024,0.068c-0.005,0.028 -0.007,0.083 -0.007,0.166c0,0.081 0.002,0.136 0.007,0.165c0.003,0.015 0.006,0.028 0.01,0.038c0.004,0.01 0.009,0.02 0.014,0.031c0.017,0.033 0.045,0.062 0.083,0.087c0.037,0.026 0.084,0.04 0.14,0.041c0.073,-0.001 0.133,-0.026 0.181,-0.074c0.047,-0.048 0.072,-0.108 0.073,-0.179l0,-0.145l-0.253,0l0,0.102Z" style="fill:rgb(41,41,41);fill-rule:nonzero;"/>            </g>        </g>        <g transform="matrix(29.3155,0,0,8.14504,-2882.04,-3125.03)">            <g transform="matrix(0.106078,0,0,0.381793,73.5123,342.936)">                <path d="M145.11,282.01c-0.127,10.496 -6.061,20.65 -15.707,24.989c-3.715,1.671 -7.759,2.517 -11.842,2.823l-2.784,0.109c-12.271,-0.026 -24.74,-6.375 -28.633,-17.918c-1.091,-3.236 -1.545,-6.66 -1.584,-10.077l0,-54.798l15.014,0c0,18.235 -0.077,36.47 0.001,54.705c0.064,4.896 1.648,10.097 6.232,12.772c3.182,1.856 7.046,2.21 10.601,1.991c4.659,-0.287 9.515,-2.201 11.841,-6.765c1.281,-2.514 1.679,-5.379 1.691,-8.188l0,-54.515l15.172,0c0,18.291 0.131,36.582 -0.002,54.872Z" style="fill:rgb(87,87,87);fill-rule:nonzero;"/>            </g>            <g transform="matrix(0.106078,0,0,0.381793,73.5123,342.936)">                <path d="M175.201,308.877l-15.12,0l0,-81.739l15.12,0l0,33.926l30.485,-33.926l13.343,0c0.622,1.388 1.244,2.776 1.866,4.163l-28.83,32.353l31.326,41.21l-1.991,4.013l-13.36,0l-26.178,-34.347l-6.661,6.923l0,27.424Z" style="fill:rgb(87,87,87);fill-rule:nonzero;"/>            </g>        </g>        <g>            <path d="M38,624l0,-80c0,-19.041 15.459,-34.5 34.5,-34.5c19.041,0 34.5,15.459 34.5,34.5l0,80l-69,0Z" style="fill:rgb(250,185,47);"/>            <path d="M132,624l0,-154.601c0,-21.801 17.699,-39.5 39.5,-39.5c21.801,0 39.5,17.699 39.5,39.5l0,154.601l-79,0Z" style="fill:rgb(247,170,40);"/>            <path d="M237,624l0,-237.435c0,-22.077 17.923,-40 40,-40c22.077,0 40,17.923 40,40l0,237.435l-80,0Z" style="fill:rgb(206,16,29);"/>            <path d="M353.5,624l0,-331.688c0,-25.388 20.612,-46 46,-46c25.388,0 46,20.612 46,46l0,331.688l-92,0Z" style="fill:rgb(187,24,124);"/>            <path d="M481.703,624l0,-429.709c0,-29.251 23.749,-53 53,-53c29.252,0 53,23.749 53,53l0,429.709l-106,0Z" style="fill:rgb(125,53,139);"/>            <path d="M623.5,624l0,-331.688c0,-25.388 20.612,-46 46,-46c25.388,0 46,20.612 46,46l0,331.688l-92,0Z" style="fill:rgb(0,117,189);"/>            <path d="M752,624l0,-237.435c0,-22.077 17.923,-40 40,-40c22.077,0 40,17.923 40,40l0,237.435l-80,0Z" style="fill:rgb(0,156,220);"/>            <path d="M860,624l0,-154.601c0,-21.801 17.699,-39.5 39.5,-39.5c21.801,0 39.5,17.699 39.5,39.5l0,154.601l-79,0Z" style="fill:rgb(14,149,54);"/>            <path d="M961,624l0,-80c0,-19.041 15.459,-34.5 34.5,-34.5c19.041,0 34.5,15.459 34.5,34.5l0,80l-69,0Z" style="fill:rgb(185,206,0);"/>            <g transform="matrix(1.13833,0,0,1.13833,8.35,38.1189)">                <circle cx="56.354" cy="369.646" r="26.354" style="fill:rgb(250,185,47);"/>            </g>            <g transform="matrix(1.30908,0,0,1.30908,97.7275,-110.106)">                <circle cx="56.354" cy="369.646" r="26.354" style="fill:rgb(247,170,40);"/>            </g>            <g transform="matrix(1.44189,0,0,1.44189,195.743,-254.697)">                <circle cx="56.354" cy="369.646" r="26.354" style="fill:rgb(206,16,29);"/>            </g>            <g transform="matrix(1.63161,0,0,1.63161,307.552,-423.827)">                <circle cx="56.354" cy="369.646" r="26.354" style="fill:rgb(187,24,124);"/>            </g>            <g transform="matrix(1.93517,0,0,1.93517,425.648,-647.035)">                <circle cx="56.354" cy="369.646" r="26.354" style="fill:rgb(125,53,139);"/>            </g>            <g transform="matrix(1.63161,0,0,1.63161,577.552,-423.827)">                <circle cx="56.354" cy="369.646" r="26.354" style="fill:rgb(0,117,189);"/>            </g>            <g transform="matrix(1.44189,0,0,1.44189,710.743,-254.697)">                <circle cx="56.354" cy="369.646" r="26.354" style="fill:rgb(0,156,220);"/>            </g>            <g transform="matrix(1.30908,0,0,1.30908,825.727,-110.106)">                <circle cx="56.354" cy="369.646" r="26.354" style="fill:rgb(14,149,54);"/>            </g>            <g transform="matrix(1.13833,0,0,1.13833,931.35,38.1189)">                <circle cx="56.354" cy="369.646" r="26.354" style="fill:rgb(185,206,0);"/>            </g>        </g>    </g></svg>