<?xml version="1.0" encoding="UTF-8" standalone="no"?><!DOCTYPE svg PUBLIC "-//W3C//DTD SVG 1.1//EN" "http://www.w3.org/Graphics/SVG/1.1/DTD/svg11.dtd"><svg width="100%" height="100%" viewBox="0 0 1024 512" version="1.1" xmlns="http://www.w3.org/2000/svg" xmlns:xlink="http://www.w3.org/1999/xlink" xml:space="preserve" style="fill-rule:evenodd;clip-rule:evenodd;stroke-linejoin:round;stroke-miterlimit:2;"><title>finGOOD</title><desc>We are a Czech intermediary of P2P loans. We connect applicants who are looking for a favorable loan with investors who can provide them with money. We make it possible to obtain a loan or increase the value of your money without the participation of banks or credit companies and thus achieve more favorable conditions. We believe that investments and loans are among the people.</desc>    <g id="Finexkap">    </g>    <g id="Fingood" transform="matrix(8.37438,0,0,8.37438,2,101.778)">        <path id="Path" d="M12.033,27.111c-0.333,0 -0.466,0.168 -0.633,0.572l-0.9,1.951c-0.3,0.605 -0.4,0.908 -0.4,1.211c0,0.47 0.267,0.941 2.4,1.984c4.267,2.086 10.367,4.003 18.4,4.003c8.033,0 14.133,-1.951 18.4,-4.003c2.133,-1.043 2.4,-1.514 2.4,-1.984c0,-0.303 -0.1,-0.606 -0.4,-1.211l-0.9,-1.951c-0.167,-0.404 -0.3,-0.572 -0.633,-0.572c-0.3,0 -1.1,0.639 -3.8,1.514c-3.334,1.076 -8.134,2.119 -15.067,2.119c-6.933,0 -11.733,-1.043 -15.067,-2.119c-2.7,-0.875 -3.5,-1.514 -3.8,-1.514" style="fill:rgb(26,181,115);fill-rule:nonzero;"/>        <path id="Shape" d="M49.633,21.157l0,-9.048c0,-0.538 -0.333,-0.605 -0.6,-0.605l-4.033,0c-0.267,0 -0.6,0.067 -0.6,0.605l0,6.559c0,0.437 -0.267,0.673 -1.367,0.673c-4.8,0 -7,-2.523 -7,-7.232c0,-5.483 2.7,-8.106 7.267,-8.106c4.1,0 5.167,1.48 5.867,1.48c0.4,0 0.5,-0.202 0.5,-0.572l0,-2.859c0,-0.505 -0.167,-0.74 -1.1,-1.11c-1.4,-0.572 -3.467,-0.942 -6.067,-0.942c-7.833,0 -12,4.575 -12,12.042c0,7.265 4.5,11.066 12,11.066c2.333,0 4.033,-0.303 5.267,-0.639c1.633,-0.37 1.866,-0.774 1.866,-1.312m18.767,-9.519c0,5.012 -2,7.703 -5.633,7.703c-3.734,0 -5.6,-2.691 -5.6,-7.736c0,-5.18 2.133,-7.67 5.6,-7.67c3.6,0.034 5.633,2.523 5.633,7.703m5.533,-0.067c0,-6.929 -3.8,-11.504 -11.166,-11.504c-7.634,0 -11.134,4.911 -11.134,11.605c0,6.929 3.8,11.503 11.134,11.503c7.666,0.034 11.166,-4.877 11.166,-11.604m19.034,0.168c0,5.012 -2,7.703 -5.634,7.703c-3.733,0 -5.6,-2.691 -5.6,-7.737c0,-5.18 2.134,-7.669 5.6,-7.669c3.634,0 5.634,2.489 5.634,7.703m5.566,-0.067c0,-6.929 -3.8,-11.504 -11.166,-11.504c-7.634,0 -11.134,4.911 -11.134,11.605c0,6.929 3.8,11.503 11.134,11.503c7.633,0 11.166,-4.911 11.166,-11.604m17.667,-0.337c0,6.56 -4.267,7.434 -7.267,7.434l-2,0c-0.266,0 -0.433,-0.101 -0.433,-0.437l0,-13.825c0,-0.269 0.133,-0.403 0.367,-0.403l2.4,0c4.133,0 6.933,1.883 6.933,7.231m5.6,-0.033c0,-3.263 -1.033,-5.92 -2.567,-7.77c-2.033,-2.456 -4.866,-3.397 -9.333,-3.397l-8.167,0c-0.433,0 -0.633,0.168 -0.633,0.639l0,21.325c0,0.37 0.2,0.606 0.6,0.606l7.733,0c3.267,0 5.567,-0.572 7.334,-1.548c3.166,-1.749 5.033,-5.348 5.033,-9.855" style="fill:rgb(67,71,80);fill-rule:nonzero;"/>        <path id="Shape1" d="M27.567,22.301l0,-9.755c0,-2.018 -0.2,-3.229 -1.167,-4.238c-0.867,-0.908 -2.067,-1.345 -3.733,-1.345c-2.367,0 -3.334,0.908 -3.834,0.908c-0.233,0 -0.233,-0.101 -0.233,-0.236c0,-0.235 -0.133,-0.437 -0.4,-0.437l-0.9,0c-0.267,0 -0.4,0.202 -0.4,0.505l0,14.665c0,0.303 0.133,0.505 0.433,0.505l0.934,0c0.266,0 0.433,-0.168 0.433,-0.505l0,-11.806c0,-1.312 1.933,-2.018 3.633,-2.018c1.167,0 2,0.37 2.6,0.975c0.534,0.538 0.834,1.346 0.834,3.397l0,9.452c0,0.269 0.133,0.505 0.433,0.505l0.933,0c0.3,-0.068 0.434,-0.303 0.434,-0.572m-14.134,0l0,-14.666c0,-0.336 -0.166,-0.504 -0.5,-0.504l-1.033,0c-0.333,0 -0.5,0.168 -0.5,0.504l0,14.666c0,0.336 0.167,0.504 0.533,0.504l1,0c0.367,0 0.5,-0.168 0.5,-0.504m0.434,-20.148c0,-1.043 -0.567,-1.548 -1.434,-1.548c-0.9,0 -1.433,0.505 -1.433,1.514c0,1.076 0.533,1.581 1.433,1.581c0.9,0 1.434,-0.404 1.434,-1.547m-5.2,0.101l0,-0.976c0,-0.538 -1.2,-0.807 -2.1,-0.807c-2.7,0 -3.9,1.682 -3.9,3.935l0,2.389c0,0.235 -0.1,0.37 -0.3,0.37l-1.934,0c-0.3,0 -0.433,0.168 -0.433,0.47l0,0.808c0,0.302 0.133,0.437 0.433,0.437l1.934,0c0.2,0 0.3,0.135 0.3,0.404l0,13.051c0,0.336 0.166,0.504 0.466,0.504l1.1,0c0.334,0 0.5,-0.168 0.5,-0.504l0,-13.051c0,-0.269 0.1,-0.404 0.334,-0.404l2.9,0c0.3,0 0.433,-0.135 0.433,-0.437l0,-0.808c0,-0.302 -0.133,-0.47 -0.433,-0.47l-2.9,0c-0.234,0 -0.334,-0.135 -0.334,-0.37l0,-2.355c0,-1.648 0.7,-2.254 1.9,-2.254c1.134,0 1.5,0.438 1.767,0.438c0.167,0 0.267,-0.101 0.267,-0.37" style="fill:rgb(67,71,80);fill-rule:nonzero;"/>    </g></svg>