<?xml version="1.0" encoding="UTF-8" standalone="no"?><!DOCTYPE svg PUBLIC "-//W3C//DTD SVG 1.1//EN" "http://www.w3.org/Graphics/SVG/1.1/DTD/svg11.dtd"><svg width="100%" height="100%" viewBox="0 0 1024 512" version="1.1" xmlns="http://www.w3.org/2000/svg" xmlns:xlink="http://www.w3.org/1999/xlink" xml:space="preserve" style="fill-rule:evenodd;clip-rule:evenodd;stroke-linejoin:round;stroke-miterlimit:2;"><title>Syndicate Room</title><desc>We’re a fintech company made up of data-scientists, investment professionals, software developers and marketers with one mission: to be an early investor in every British startup success story.Instead, we apply a data-driven model to portfolio construction; a repeatable process designed to maximise returns and minimise risk for fund investors. As such, we build startup portfolios that don’t attempt to predict the future; they work to stack the odds in investors’ favour.</desc>    <g transform="matrix(11.5913,0,0,11.5913,-5220.87,-3120.44)">        <g transform="matrix(1,0,0,1,466.423,306.143)">            <path d="M0,-29.704l-15.717,0c-0.151,0 -0.165,0.224 -0.015,0.243l12.682,1.6c0.061,0.008 0.106,0.06 0.106,0.121l0,25.775c0,0.062 -0.045,0.113 -0.106,0.121l-12.682,1.601c-0.15,0.018 -0.137,0.243 0.015,0.243l15.714,0c0.407,0 0.736,-0.333 0.736,-0.744l0,-28.22c0,-0.408 -0.328,-0.74 -0.733,-0.74" style="fill:rgb(31,31,33);fill-rule:nonzero;"/>        </g>        <g transform="matrix(0,-1,-1,0,461.418,290.47)">            <path d="M-0.817,-0.817c0.456,0 0.825,0.366 0.825,0.817c0,0.451 -0.369,0.817 -0.825,0.817c-0.455,0 -0.825,-0.366 -0.825,-0.817c0,-0.451 0.369,-0.817 0.825,-0.817" style="fill:rgb(31,31,33);fill-rule:nonzero;"/>        </g>        <g transform="matrix(1,0,0,1,473.522,286.25)">            <path d="M0,-5.056c-0.183,0.151 -0.275,0.352 -0.275,0.602c0,0.249 0.112,0.447 0.336,0.594c0.224,0.148 0.741,0.321 1.55,0.522c0.81,0.201 1.439,0.501 1.887,0.902c0.447,0.401 0.671,0.986 0.671,1.755c0,0.769 -0.286,1.393 -0.86,1.872c-0.574,0.478 -1.329,0.717 -2.265,0.717c-1.351,0 -2.567,-0.502 -3.65,-1.509l1.136,-1.399c0.919,0.81 1.77,1.215 2.551,1.215c0.35,0 0.625,-0.075 0.824,-0.227c0.2,-0.151 0.3,-0.356 0.3,-0.613c0,-0.258 -0.107,-0.462 -0.318,-0.614c-0.212,-0.152 -0.631,-0.305 -1.258,-0.46c-0.992,-0.237 -1.719,-0.546 -2.179,-0.927c-0.46,-0.38 -0.689,-0.977 -0.689,-1.792c0,-0.813 0.29,-1.442 0.873,-1.883c0.582,-0.442 1.307,-0.663 2.179,-0.663c0.569,0 1.139,0.098 1.709,0.294c0.569,0.197 1.066,0.475 1.489,0.835l-0.965,1.399c-0.74,-0.565 -1.505,-0.847 -2.295,-0.847c-0.317,0 -0.568,0.076 -0.751,0.227" style="fill:rgb(31,31,33);fill-rule:nonzero;"/>        </g>        <g transform="matrix(1,0,0,1,482.598,279.481)">            <path d="M0,8.578l-1.904,0l0,-3.387l-2.954,-5.191l2.063,0l1.843,3.191l1.844,-3.191l2.062,0l-2.954,5.191l0,3.387Z" style="fill:rgb(31,31,33);fill-rule:nonzero;"/>        </g>        <g transform="matrix(1,0,0,1,492.108,288.06)">            <path d="M0,-8.578l1.905,0l0,8.578l-1.905,0l-4.065,-5.375l0,5.375l-1.904,0l0,-8.578l1.782,0l4.187,5.522l0,-5.522Z" style="fill:rgb(31,31,33);fill-rule:nonzero;"/>        </g>        <g transform="matrix(1,0,0,1,500.904,281.838)">            <path d="M0,3.866c0.468,-0.442 0.702,-1.084 0.702,-1.927c0,-0.842 -0.235,-1.49 -0.702,-1.945c-0.468,-0.454 -1.186,-0.681 -2.155,-0.681l-1.062,0l0,5.216l1.208,0c0.871,0 1.541,-0.222 2.009,-0.663m1.397,-5.099c0.814,0.748 1.221,1.79 1.221,3.123c0,1.333 -0.396,2.389 -1.19,3.166c-0.794,0.777 -2.004,1.166 -3.632,1.166l-2.917,0l0,-8.578l3.015,0c1.521,0 2.69,0.374 3.503,1.123" style="fill:rgb(31,31,33);fill-rule:nonzero;"/>        </g>        <g transform="matrix(1,0,0,1,0,-27.734)">            <rect x="504.841" y="307.216" width="1.904" height="8.578" style="fill:rgb(31,31,33);"/>        </g>        <g transform="matrix(1,0,0,1,512.434,281.076)">            <path d="M0,5.29c0.936,0 1.701,-0.372 2.295,-1.117l1.221,1.264c-0.969,1.096 -2.11,1.644 -3.424,1.644c-1.315,0 -2.397,-0.417 -3.248,-1.251c-0.85,-0.835 -1.275,-1.888 -1.275,-3.161c0,-1.271 0.433,-2.333 1.299,-3.184c0.867,-0.85 1.927,-1.276 3.18,-1.276c1.4,0 2.572,0.536 3.516,1.608l-1.184,1.35c-0.602,-0.753 -1.351,-1.129 -2.246,-1.129c-0.716,0 -1.329,0.235 -1.837,0.705c-0.509,0.47 -0.763,1.104 -0.763,1.902c0,0.798 0.24,1.438 0.72,1.921c0.48,0.483 1.062,0.724 1.746,0.724" style="fill:rgb(31,31,33);fill-rule:nonzero;"/>        </g>        <g transform="matrix(1,0,0,1,520.564,285.506)">            <path d="M0,-3.472l-1.074,2.491l2.136,0l-1.062,-2.491Zm2.576,6.025l-0.794,-1.852l-3.577,0l-0.793,1.852l-2.027,0l3.687,-8.578l1.844,0l3.686,8.578l-2.026,0Z" style="fill:rgb(31,31,33);fill-rule:nonzero;"/>        </g>        <g transform="matrix(1,0,0,1,528.817,286.402)">            <path d="M0,-5.264l0,6.921l-1.904,0l0,-6.921l-2.418,0l0,-1.657l6.739,0l0,1.657l-2.417,0Z" style="fill:rgb(31,31,33);fill-rule:nonzero;"/>        </g>        <g transform="matrix(1,0,0,1,532.296,288.06)">            <path d="M0,-8.578l0,8.578l6.287,0l0,-1.694l-4.383,0l0,-1.779l3.822,0l0,-1.632l-3.822,0l0,-1.767l4.249,0l0,-1.706l-6.153,0Z" style="fill:rgb(31,31,33);fill-rule:nonzero;"/>        </g>        <g transform="matrix(1,0,0,1,476.152,296.688)">            <path d="M0,-0.846c0.236,-0.212 0.355,-0.55 0.355,-1.013c0,-0.462 -0.123,-0.779 -0.367,-0.95c-0.244,-0.173 -0.671,-0.258 -1.282,-0.258l-1.428,0l0,2.54l1.392,0c0.651,0 1.094,-0.107 1.33,-0.319m2.295,-1.019c0,1.374 -0.541,2.262 -1.623,2.663l2.161,3.068l-2.344,0l-1.893,-2.736l-1.318,0l0,2.736l-1.904,0l0,-8.578l3.235,0c1.327,0 2.272,0.226 2.838,0.675c0.566,0.451 0.848,1.174 0.848,2.172" style="fill:rgb(31,31,33);fill-rule:nonzero;"/>        </g>        <g transform="matrix(1,0,0,1,486.517,296.204)">            <path d="M0,0.012c0,-0.764 -0.244,-1.417 -0.733,-1.957c-0.488,-0.541 -1.088,-0.81 -1.8,-0.81c-0.712,0 -1.312,0.269 -1.801,0.81c-0.488,0.54 -0.732,1.192 -0.732,1.957c0,0.765 0.244,1.415 0.732,1.951c0.489,0.536 1.089,0.804 1.801,0.804c0.712,0 1.312,-0.268 1.8,-0.804c0.489,-0.536 0.733,-1.186 0.733,-1.951m0.647,3.154c-0.863,0.847 -1.925,1.27 -3.186,1.27c-1.262,0 -2.324,-0.423 -3.186,-1.27c-0.863,-0.846 -1.294,-1.9 -1.294,-3.16c0,-1.26 0.431,-2.314 1.294,-3.16c0.862,-0.847 1.924,-1.27 3.186,-1.27c1.261,0 2.323,0.423 3.186,1.27c0.862,0.846 1.294,1.9 1.294,3.16c0,1.26 -0.432,2.313 -1.294,3.16" style="fill:rgb(31,31,33);fill-rule:nonzero;"/>        </g>        <g transform="matrix(1,0,0,1,496.271,296.204)">            <path d="M0,0.012c0,-0.764 -0.244,-1.417 -0.733,-1.957c-0.488,-0.541 -1.088,-0.81 -1.801,-0.81c-0.712,0 -1.312,0.269 -1.8,0.81c-0.488,0.54 -0.733,1.192 -0.733,1.957c0,0.765 0.245,1.415 0.733,1.951c0.488,0.536 1.088,0.804 1.8,0.804c0.713,0 1.313,-0.268 1.801,-0.804c0.489,-0.536 0.733,-1.186 0.733,-1.951m0.646,3.154c-0.862,0.847 -1.924,1.27 -3.186,1.27c-1.261,0 -2.323,-0.423 -3.186,-1.27c-0.863,-0.846 -1.294,-1.9 -1.294,-3.16c0,-1.26 0.431,-2.314 1.294,-3.16c0.863,-0.847 1.925,-1.27 3.186,-1.27c1.262,0 2.324,0.423 3.186,1.27c0.863,0.846 1.294,1.9 1.294,3.16c0,1.26 -0.431,2.313 -1.294,3.16" style="fill:rgb(31,31,33);fill-rule:nonzero;"/>        </g>        <g transform="matrix(1,0,0,1,507.136,297.376)">            <path d="M0,-2.221l-2.307,4.687l-1.135,0l-2.296,-4.687l0,5.399l-1.904,0l0,-8.577l2.576,0l2.198,4.712l2.209,-4.712l2.564,0l0,8.577l-1.905,0l0,-5.399Z" style="fill:rgb(31,31,33);fill-rule:nonzero;"/>        </g>    </g></svg>