<?xml version="1.0" encoding="UTF-8" standalone="no"?><!DOCTYPE svg PUBLIC "-//W3C//DTD SVG 1.1//EN" "http://www.w3.org/Graphics/SVG/1.1/DTD/svg11.dtd"><svg width="100%" height="100%" viewBox="0 0 1024 512" version="1.1" xmlns="http://www.w3.org/2000/svg" xmlns:xlink="http://www.w3.org/1999/xlink" xml:space="preserve" style="fill-rule:evenodd;clip-rule:evenodd;stroke-linecap:round;stroke-linejoin:round;"><title>Younited Credit</title><desc>Younited Credit is the only personal loan platform in Europe with its own credit institution approval, its innovative refinancing model allows professional investors (individuals, but also legal persons: companies, insurers, foundations, pension funds, etc.) directly finance consumer credit for French, Italian and Spanish households.</desc>    <g transform="matrix(4.584,0,0,4.584,2,192.276)">        <g transform="matrix(1,0,0,1,11.899,-4.168)">            <path d="M134.872,26.974c-1.043,0.009 -2.076,-0.207 -3.029,-0.633c-0.915,-0.407 -1.745,-0.984 -2.445,-1.7c-0.699,-0.721 -1.251,-1.57 -1.628,-2.5c-0.393,-0.961 -0.593,-1.991 -0.587,-3.029l0,-0.064c-0.006,-1.038 0.194,-2.068 0.587,-3.029c0.758,-1.881 2.225,-3.392 4.083,-4.205c0.957,-0.424 1.993,-0.64 3.039,-0.633c1.21,-0.041 2.41,0.235 3.48,0.8c0.942,0.538 1.801,1.212 2.547,2l-0.451,0.422c-0.695,-0.73 -1.494,-1.353 -2.371,-1.85c-0.992,-0.535 -2.108,-0.799 -3.234,-0.766c-0.959,-0.009 -1.909,0.187 -2.787,0.574c-0.839,0.371 -1.597,0.904 -2.23,1.567c-0.635,0.667 -1.137,1.449 -1.477,2.305c-0.354,0.887 -0.534,1.833 -0.528,2.788l0,0.06c-0.004,1.905 0.725,3.74 2.034,5.123c0.639,0.668 1.401,1.205 2.245,1.583c0.871,0.393 1.817,0.593 2.773,0.587c1.155,0.034 2.298,-0.253 3.3,-0.828c0.888,-0.53 1.686,-1.196 2.367,-1.974l0.451,0.422c-0.724,0.842 -1.585,1.556 -2.547,2.112c-1.098,0.605 -2.339,0.905 -3.592,0.868Z" style="fill:rgb(81,93,113);fill-rule:nonzero;stroke:rgb(81,93,113);stroke-width:0.89px;"/>        </g>        <g transform="matrix(1,0,0,1,13.642,-4.167)">            <path d="M142.8,11.544l0.667,0l0,4.822c0.193,-0.652 0.462,-1.279 0.8,-1.869c0.35,-0.619 0.792,-1.181 1.311,-1.667c0.53,-0.499 1.142,-0.903 1.809,-1.194c0.723,-0.309 1.504,-0.463 2.29,-0.451l0,0.608l-0.151,0c-0.892,-0.014 -1.77,0.226 -2.531,0.693c-0.736,0.455 -1.38,1.044 -1.9,1.736c-0.521,0.69 -0.928,1.46 -1.206,2.279c-0.267,0.745 -0.41,1.529 -0.422,2.321l0,7.806l-0.667,0l0,-15.084Z" style="fill:rgb(81,93,113);fill-rule:nonzero;stroke:rgb(81,93,113);stroke-width:0.89px;"/>        </g>        <g transform="matrix(1,0,0,1,14.489,-4.167)">            <path d="M157.941,26.973c-0.999,0.006 -1.989,-0.183 -2.916,-0.556c-0.898,-0.361 -1.715,-0.899 -2.4,-1.583c-0.702,-0.712 -1.254,-1.557 -1.625,-2.486c-0.414,-1.04 -0.618,-2.151 -0.6,-3.27l0,-0.06c-0.008,-1.058 0.176,-2.108 0.542,-3.1c0.334,-0.92 0.846,-1.765 1.506,-2.487c0.647,-0.694 1.426,-1.252 2.292,-1.64c0.909,-0.406 1.895,-0.611 2.89,-0.6c1.073,-0.026 2.135,0.217 3.089,0.708c0.85,0.452 1.592,1.085 2.171,1.854c0.574,0.768 1.003,1.635 1.265,2.557c0.268,0.92 0.405,1.874 0.407,2.832l0,0.12l-13.5,0c0.004,1.01 0.21,2.009 0.606,2.939c0.357,0.835 0.866,1.596 1.5,2.245c0.614,0.622 1.352,1.11 2.165,1.432c0.838,0.334 1.732,0.504 2.634,0.5c1.136,0.009 2.253,-0.299 3.224,-0.889c0.931,-0.549 1.74,-1.282 2.377,-2.154l0.515,0.361c-0.667,0.964 -1.54,1.768 -2.557,2.351c-1.086,0.631 -2.323,0.954 -3.579,0.935l-0.006,-0.009Zm5.952,-8.288c-0.04,-0.862 -0.203,-1.715 -0.484,-2.531c-0.27,-0.8 -0.68,-1.545 -1.212,-2.2c-0.536,-0.651 -1.201,-1.185 -1.953,-1.567c-0.821,-0.411 -1.731,-0.617 -2.649,-0.6c-0.891,-0.012 -1.774,0.168 -2.589,0.528c-0.765,0.343 -1.455,0.834 -2.029,1.445c-0.589,0.635 -1.051,1.376 -1.362,2.184c-0.338,0.876 -0.526,1.803 -0.556,2.742l12.834,-0.001Z" style="fill:rgb(81,93,113);fill-rule:nonzero;stroke:rgb(81,93,113);stroke-width:0.89px;"/>        </g>        <g transform="matrix(1,0,0,1,16.199,-4.827)">            <path d="M173.226,27.633c-3.089,0.021 -5.879,-1.899 -6.962,-4.792c-0.374,-0.981 -0.563,-2.024 -0.556,-3.074l0,-0.06c-0.007,-1.05 0.182,-2.093 0.556,-3.074c1.083,-2.893 3.873,-4.813 6.962,-4.792c0.822,-0.006 1.64,0.121 2.421,0.377c0.729,0.24 1.415,0.596 2.03,1.055c0.595,0.446 1.113,0.987 1.534,1.6c0.421,0.613 0.746,1.288 0.963,2l0,-11.601l0.667,0l0,22l-0.667,0l0,-4.672c-0.217,0.712 -0.541,1.387 -0.963,2c-0.421,0.613 -0.939,1.154 -1.534,1.6c-0.615,0.459 -1.301,0.815 -2.03,1.055c-0.781,0.256 -1.599,0.384 -2.421,0.378Zm0.03,-0.6c0.969,0.012 1.929,-0.189 2.812,-0.587c0.829,-0.376 1.574,-0.914 2.192,-1.582c0.617,-0.672 1.101,-1.454 1.428,-2.305c0.344,-0.889 0.517,-1.834 0.511,-2.787l0,-0.061c0.003,-0.948 -0.17,-1.888 -0.511,-2.773c-0.65,-1.73 -1.959,-3.135 -3.638,-3.907c-0.879,-0.4 -1.835,-0.6 -2.8,-0.587c-0.966,-0.012 -1.923,0.177 -2.812,0.556c-0.827,0.353 -1.57,0.877 -2.181,1.537c-0.612,0.67 -1.088,1.453 -1.4,2.305c-0.336,0.906 -0.505,1.866 -0.5,2.832l0,0.06c-0.005,0.966 0.164,1.926 0.5,2.832c0.314,0.856 0.789,1.644 1.4,2.321c0.609,0.669 1.353,1.203 2.181,1.567c0.885,0.39 1.844,0.587 2.812,0.577l0.006,0.002Z" style="fill:rgb(81,93,113);fill-rule:nonzero;stroke:rgb(81,93,113);stroke-width:0.89px;"/>        </g>        <g transform="matrix(1,0,0,1,18.223,-4.736)">            <path d="M183.845,6.085l0.964,0l0,1.715l-0.964,0l0,-1.715Zm0.155,6.028l0.667,0l0,15.068l-0.667,0l0,-15.068Z" style="fill:rgb(81,93,113);fill-rule:nonzero;stroke:rgb(81,93,113);stroke-width:0.89px;"/>        </g>        <g transform="matrix(1,0,0,1,18.664,-4.654)">            <path d="M194.073,27.37c-1.072,0.073 -2.125,-0.317 -2.89,-1.07c-0.712,-0.854 -1.068,-1.949 -0.994,-3.058l0,-10.642l-2.389,0l0,-0.569l2.381,0l0,-5.209l0.667,0l0,5.21l5.576,0l0,0.568l-5.576,0l0,10.584c-0.061,0.951 0.223,1.893 0.8,2.651c0.626,0.662 1.518,1.006 2.426,0.935c0.795,0.002 1.58,-0.184 2.29,-0.542l0,0.667c-0.72,0.322 -1.501,0.485 -2.29,0.476l-0.001,-0.001Z" style="fill:rgb(81,93,113);fill-rule:nonzero;stroke:rgb(81,93,113);stroke-width:0.89px;"/>        </g>        <g transform="matrix(1,0,0,1,218.171,19.124)">            <circle cx="2.171" cy="2.171" r="2.171" style="fill:rgb(235,91,38);"/>        </g>        <g transform="matrix(1,0,0,1,-2.064,-4.216)">            <path d="M6.825,31.572c-0.686,0.01 -1.369,-0.077 -2.031,-0.256c-0.602,-0.171 -1.184,-0.406 -1.736,-0.7l1.235,-2.716c0.331,0.176 0.678,0.322 1.035,0.435c0.356,0.111 0.727,0.167 1.1,0.166c0.465,0.019 0.923,-0.119 1.3,-0.391c0.435,-0.396 0.766,-0.892 0.965,-1.445l-6.629,-15.914l3.891,0l4.518,11.813l4.127,-11.814l3.8,0l-6.336,16.363c-0.272,0.72 -0.604,1.416 -0.994,2.08c-0.304,0.517 -0.69,0.981 -1.145,1.372c-0.408,0.343 -0.879,0.604 -1.386,0.768c-0.556,0.168 -1.134,0.249 -1.714,0.24l0,-0.001Z" style="fill:rgb(81,93,113);fill-rule:nonzero;"/>        </g>        <g transform="matrix(1,0,0,1,-0.258,-4.25)">            <path d="M26.689,27.056c-1.154,0.01 -2.298,-0.211 -3.365,-0.651c-1,-0.408 -1.911,-1.007 -2.683,-1.762c-0.757,-0.748 -1.356,-1.639 -1.763,-2.622c-0.423,-1.011 -0.638,-2.098 -0.632,-3.194l0,-0.061c-0.007,-1.108 0.215,-2.205 0.651,-3.224c0.848,-2.004 2.451,-3.596 4.46,-4.431c1.073,-0.451 2.226,-0.678 3.39,-0.667c1.162,-0.011 2.315,0.21 3.39,0.651c3.085,1.252 5.105,4.275 5.082,7.605l0,0.06c0.005,1.098 -0.217,2.185 -0.651,3.194c-0.848,2.011 -2.46,3.606 -4.479,4.434c-1.077,0.448 -2.234,0.674 -3.4,0.664l0,0.004Zm0.061,-3.164c0.686,0.011 1.366,-0.128 1.992,-0.407c0.574,-0.26 1.089,-0.634 1.513,-1.1c0.422,-0.47 0.746,-1.019 0.954,-1.615c0.22,-0.624 0.331,-1.282 0.326,-1.944l0,-0.06c0.004,-0.679 -0.117,-1.354 -0.359,-1.989c-0.226,-0.602 -0.565,-1.155 -1,-1.628c-0.432,-0.464 -0.951,-0.838 -1.527,-1.1c-1.251,-0.542 -2.673,-0.542 -3.924,0c-0.571,0.258 -1.085,0.627 -1.513,1.085c-0.427,0.466 -0.753,1.015 -0.958,1.613c-0.219,0.63 -0.33,1.292 -0.326,1.959l0,0.06c-0.005,0.675 0.116,1.344 0.359,1.974c0.23,0.6 0.569,1.152 1,1.628c0.43,0.471 0.951,0.849 1.532,1.112c0.606,0.276 1.266,0.415 1.932,0.409l-0.001,0.003Z" style="fill:rgb(81,93,113);fill-rule:nonzero;"/>        </g>        <g transform="matrix(1,0,0,1,1.738,-4.216)">            <path d="M41.794,26.993c-1.568,0.095 -3.101,-0.512 -4.177,-1.657c-1.032,-1.249 -1.558,-2.842 -1.473,-4.461l0,-10.124l3.677,0l0,9.021c-0.068,1.033 0.246,2.055 0.882,2.872c0.639,0.694 1.558,1.064 2.5,1.007c0.965,0.037 1.9,-0.341 2.569,-1.037c0.696,-0.799 1.051,-1.842 0.987,-2.9l0,-8.963l3.681,0l0,15.909l-3.684,0l0,-2.5c-0.527,0.778 -1.189,1.454 -1.956,1.997c-0.889,0.589 -1.941,0.881 -3.006,0.836Z" style="fill:rgb(235,91,38);fill-rule:nonzero;"/>        </g>        <g transform="matrix(1,0,0,1,3.573,-4.25)">            <path d="M52.572,10.785l3.675,0l0,2.5c0.257,-0.381 0.543,-0.742 0.856,-1.079c0.322,-0.345 0.687,-0.647 1.085,-0.9c0.42,-0.27 0.875,-0.482 1.352,-0.629c0.541,-0.159 1.103,-0.236 1.667,-0.228c1.569,-0.096 3.102,0.512 4.18,1.656c1.032,1.25 1.558,2.843 1.473,4.461l0,10.134l-3.68,0l0,-9.024c0.069,-1.034 -0.244,-2.058 -0.88,-2.876c-0.64,-0.692 -1.559,-1.059 -2.5,-1c-0.965,-0.037 -1.9,0.341 -2.569,1.037c-0.696,0.8 -1.05,1.842 -0.986,2.9l0,8.959l-3.673,0l0,-15.911Z" style="fill:rgb(81,93,113);fill-rule:nonzero;"/>        </g>        <g transform="matrix(1,0,0,1,5.394,-4.809)">            <path d="M70.626,5.435l0.482,0c0.951,0 1.733,0.782 1.733,1.733c-0.001,0.95 -0.783,1.732 -1.733,1.732l-0.482,0c-0.951,0 -1.733,-0.782 -1.733,-1.733c0.001,-0.95 0.783,-1.732 1.733,-1.732Zm0.151,5.908l0.211,0c0.951,0 1.733,0.782 1.733,1.733l0,12.44c0,0.951 -0.782,1.733 -1.733,1.733l-0.211,0c-0.951,0 -1.733,-0.782 -1.733,-1.733l0,-12.45c0.006,-0.947 0.786,-1.722 1.733,-1.722l0,-0.001Z" style="fill:rgb(81,93,113);fill-rule:nonzero;"/>        </g>        <g transform="matrix(1,0,0,1,6.066,-4.654)">            <path d="M81.54,27.37c-0.623,0.005 -1.244,-0.076 -1.845,-0.241c-0.543,-0.146 -1.047,-0.412 -1.474,-0.778c-0.434,-0.389 -0.763,-0.882 -0.957,-1.432c-0.242,-0.714 -0.356,-1.465 -0.334,-2.219l0,-8.379l-2.02,0l0,-3.131l2.019,0l0,-4.372l3.677,0l0,4.372l4.28,0l0,3.135l-4.278,0l0,7.805c-0.052,0.556 0.134,1.109 0.512,1.52c0.405,0.333 0.922,0.5 1.445,0.467c0.786,0 1.561,-0.186 2.261,-0.542l0,2.984c-0.465,0.262 -0.961,0.463 -1.477,0.6c-0.592,0.149 -1.2,0.219 -1.81,0.21l0.001,0.001Z" style="fill:rgb(81,93,113);fill-rule:nonzero;"/>        </g>        <g transform="matrix(1,0,0,1,7.285,-4.25)">            <path d="M94,27.056c-1.098,0.01 -2.188,-0.194 -3.209,-0.6c-1.971,-0.777 -3.537,-2.333 -4.325,-4.3c-0.432,-1.068 -0.647,-2.213 -0.632,-3.365l0,-0.061c-0.008,-1.101 0.186,-2.193 0.572,-3.224c0.365,-0.973 0.914,-1.866 1.616,-2.632c0.692,-0.75 1.529,-1.354 2.459,-1.774c0.985,-0.442 2.055,-0.664 3.135,-0.651c1.15,-0.025 2.291,0.212 3.335,0.694c0.923,0.438 1.737,1.076 2.381,1.869c0.647,0.81 1.133,1.736 1.432,2.728c0.325,1.059 0.487,2.162 0.482,3.27c0,0.161 0,0.326 -0.016,0.5c-0.016,0.174 -0.024,0.347 -0.046,0.528l-11.7,0c0.124,1.16 0.679,2.231 1.556,3c0.852,0.699 1.928,1.068 3.029,1.039c0.81,0.02 1.614,-0.145 2.351,-0.482c0.721,-0.365 1.379,-0.841 1.95,-1.412l2.139,1.89c-0.756,0.898 -1.683,1.636 -2.728,2.171c-1.177,0.569 -2.474,0.848 -3.781,0.812Zm3.616,-9.435c-0.056,-0.562 -0.187,-1.115 -0.391,-1.642c-0.187,-0.489 -0.463,-0.938 -0.814,-1.326c-0.345,-0.374 -0.761,-0.676 -1.223,-0.889c-0.506,-0.229 -1.057,-0.343 -1.613,-0.333c-1.048,-0.026 -2.059,0.398 -2.775,1.164c-0.763,0.837 -1.235,1.899 -1.344,3.026l8.16,0Z" style="fill:rgb(81,93,113);fill-rule:nonzero;"/>        </g>        <g transform="matrix(1,0,0,1,9.058,-4.827)">            <path d="M109.109,27.6c-0.941,0.001 -1.872,-0.183 -2.742,-0.542c-0.887,-0.364 -1.687,-0.909 -2.351,-1.6c-0.713,-0.75 -1.276,-1.63 -1.657,-2.592c-0.44,-1.122 -0.655,-2.321 -0.633,-3.526l0,-0.061c-0.022,-1.204 0.188,-2.401 0.617,-3.526c0.371,-0.963 0.928,-1.844 1.638,-2.592c0.666,-0.694 1.47,-1.239 2.361,-1.6c0.873,-0.358 1.807,-0.542 2.751,-0.542c1.142,-0.043 2.271,0.251 3.247,0.845c0.824,0.527 1.556,1.187 2.165,1.953l0,-8.545l3.677,0l0,22l-3.677,0l0.03,-2.651c-0.591,0.833 -1.332,1.549 -2.184,2.112c-0.969,0.608 -2.099,0.912 -3.243,0.871l0.001,-0.004Zm0.858,-3.165c1.219,0 2.384,-0.508 3.214,-1.4c0.432,-0.471 0.773,-1.018 1.006,-1.613c0.258,-0.663 0.386,-1.369 0.376,-2.08l0,-0.061c0.009,-0.716 -0.119,-1.426 -0.376,-2.094c-0.228,-0.598 -0.57,-1.145 -1.006,-1.613c-0.416,-0.438 -0.917,-0.787 -1.472,-1.025c-0.55,-0.238 -1.143,-0.361 -1.742,-0.361c-0.603,-0.003 -1.2,0.114 -1.757,0.346c-0.55,0.231 -1.046,0.575 -1.456,1.009c-0.435,0.466 -0.771,1.014 -0.99,1.613c-0.248,0.681 -0.37,1.401 -0.36,2.125l0,0.06c-0.009,0.714 0.113,1.424 0.36,2.094c0.218,0.599 0.555,1.147 0.99,1.613c0.412,0.436 0.907,0.785 1.456,1.025c0.554,0.243 1.153,0.368 1.758,0.366l-0.001,-0.004Z" style="fill:rgb(81,93,113);fill-rule:nonzero;"/>        </g>    </g></svg>