<?xml version="1.0" encoding="UTF-8" standalone="no"?><!DOCTYPE svg PUBLIC "-//W3C//DTD SVG 1.1//EN" "http://www.w3.org/Graphics/SVG/1.1/DTD/svg11.dtd"><svg width="100%" height="100%" viewBox="0 0 1024 512" version="1.1" xmlns="http://www.w3.org/2000/svg" xmlns:xlink="http://www.w3.org/1999/xlink" xml:space="preserve" style="fill-rule:evenodd;clip-rule:evenodd;stroke-linejoin:round;stroke-miterlimit:2;"><title>Lendahand</title><desc>Lendahand is a for-profit company that is on a mission to eradicate poverty all over the world using crowdfunding. We give investors in Europe the chance to invest in people and businesses in emerging markets that don’t have access to the capital they desperately need.</desc>    <g id="g30" transform="matrix(0.719884,0,0,0.719884,-254.822,-355.26)">        <g id="path4" transform="matrix(0.927778,0,0,0.927778,174.54,348.105)">            <path d="M1648.2,567.7l-13.2,-7.7c-2.3,-1.3 -3.1,-4.3 -1.7,-6.6l53.7,-92.5c1.3,-2.3 4.3,-3.1 6.6,-1.7l13.2,7.7c2.3,1.3 3.1,4.3 1.7,6.6l-53.7,92.5c-1.4,2.3 -4.3,3 -6.6,1.7" style="fill:rgb(0,56,52);fill-rule:nonzero;"/>        </g>        <g id="path6" transform="matrix(0.927778,0,0,0.927778,174.54,348.105)">            <path d="M1605.8,665.2c-12.3,0 -24.5,-3.3 -35.5,-9.6c-19.3,-11.2 -31.9,-30.5 -34.7,-52.4c-0.4,-3.2 2,-6.1 5.2,-6.2l13.9,-0.6c2.8,-0.1 5.2,1.9 5.6,4.7c2,13.8 10.1,25.9 22.3,33c10.7,6.2 23.1,7.9 34.9,4.7c11.8,-3.2 21.8,-10.8 28,-21.4l55.9,-96.6c1.3,-2.3 4.3,-3.1 6.6,-1.8l13.2,7.6c2.3,1.3 3.1,4.3 1.7,6.6l-55.9,96.6c-9.5,16.4 -24.8,28.1 -43.1,33c-5.9,1.6 -12,2.4 -18.1,2.4" style="fill:rgb(0,145,155);fill-rule:nonzero;"/>        </g>        <g id="path8" transform="matrix(0.927778,0,0,0.927778,174.54,348.105)">            <path d="M1599.7,566.7l-13.2,-7.6c-2.3,-1.3 -3.1,-4.3 -1.8,-6.6l74.5,-129c1.3,-2.3 4.3,-3.1 6.6,-1.8l13.2,7.6c2.3,1.3 3.1,4.3 1.8,6.6l-74.5,129c-1.4,2.3 -4.3,3.1 -6.6,1.8" style="fill:rgb(0,56,52);fill-rule:nonzero;"/>        </g>        <g id="path10" transform="matrix(0.927778,0,0,0.927778,174.54,348.105)">            <path d="M1530.9,565.9l-25,-42c-1.4,-2.3 -0.6,-5.2 1.7,-6.6l13.1,-7.8c2.3,-1.4 5.2,-0.6 6.6,1.7l16.2,27.1l70.4,-121.2c1.3,-2.3 4.3,-3.1 6.6,-1.7l13.2,7.7c2.3,1.3 3.1,4.3 1.7,6.6l-79,136.1c-1.2,2.1 -3.4,3.3 -5.8,3.3l-13.7,0.1c-2.6,0 -4.8,-1.2 -6,-3.3" style="fill:rgb(255,95,90);fill-rule:nonzero;"/>        </g>        <g id="path12" transform="matrix(0.927778,0,0,0.927778,174.54,348.105)">            <path d="M230.7,665.2c-21.3,0 -34.3,-12.8 -34.3,-36.5l0,-164.8c0,-2.2 1.8,-4 4,-4l18.2,0c2.2,0 4,1.8 4,4l0,156.6c0,13.9 3.3,20.2 16.1,20.2l2.5,0c2.2,-0.1 4,1.7 4,3.9l0,15.6c0,1.9 -1.3,3.5 -3.1,3.9c-3.6,0.6 -7.3,1.1 -11.4,1.1" style="fill:rgb(0,56,52);fill-rule:nonzero;"/>        </g>        <g id="path14" transform="matrix(0.927778,0,0,0.927778,174.54,348.105)">            <path d="M323.5,553.7c-20.2,0 -35.2,13.6 -39.8,31.9l79,0c-2.9,-18 -18.7,-31.9 -39.2,-31.9m1.4,87.8c12.9,0 25.7,-5.2 34,-14.8c1.3,-1.6 3.7,-1.8 5.3,-0.5l12.4,9.5c1.8,1.4 2,3.9 0.6,5.6c-12.2,15 -31.4,24 -52.3,24c-37.6,0 -67.9,-29.4 -67.9,-67.6c0,-36.2 27.5,-67.9 66.2,-67.9c38.4,0 66.2,31.3 66.2,67.6c0,2 -0.1,3.7 -0.2,5.4c-0.2,2.1 -1.9,3.6 -3.9,3.6l-102.4,0c3.6,19.8 19.9,35.1 42,35.1" style="fill:rgb(0,56,52);fill-rule:nonzero;"/>        </g>        <g id="path16" transform="matrix(0.927778,0,0,0.927778,174.54,348.105)">            <path d="M501.3,593.8c0,-25.9 -10.1,-39.2 -31.6,-39.2c-22.4,0 -33,14.4 -33,41.2l0,62c0,2.2 -1.8,4 -4,4l-18.2,0c-2.2,0 -4,-1.8 -4,-4l0,-121.6c0,-2.2 1.8,-4 4,-4l18.2,0c2.2,0 4,1.8 4,4l0,9.9c8.7,-9.8 19.4,-16.4 37.6,-16.4c30.8,0 53.4,18 53.4,58.6l0,69.4c0,2.2 -1.8,4 -4,4l-18.5,0c-2.2,0 -4,-1.8 -4,-4l0,-63.9l0.1,0Z" style="fill:rgb(0,56,52);fill-rule:nonzero;"/>        </g>        <g id="path18" transform="matrix(0.927778,0,0,0.927778,174.54,348.105)">            <path d="M617.4,554.5c-24.3,0 -42.5,19.1 -42.5,43.1c0,24.3 18.3,43.1 42.5,43.1c24.8,0 42.8,-19.6 42.8,-43.1c0,-23.5 -18.3,-43.1 -42.8,-43.1m43.3,91.9c-10.9,12.8 -25.9,18.8 -43.3,18.8c-38.4,0 -68.4,-29.7 -68.4,-67.6c0,-38.4 30.5,-67.9 68.4,-67.9c17.4,0 32.2,6.3 43.3,19.1l0,-84.9c0,-2.2 1.8,-4 4,-4l18.2,0c2.2,0 4,1.8 4,4l0,193.8c0,2.2 -1.8,4 -4,4l-18.2,0c-2.2,0 -4,-1.8 -4,-4l0,-11.3Z" style="fill:rgb(0,56,52);fill-rule:nonzero;"/>        </g>        <g id="path20" transform="matrix(0.927778,0,0,0.927778,174.54,348.105)">            <path d="M776.1,554.5c-24.3,0 -42.5,19.1 -42.5,43.1c0,24.3 18.3,43.1 42.5,43.1c24.8,0 42.8,-19.6 42.8,-43.1c0,-23.5 -18.2,-43.1 -42.8,-43.1m43.4,91.9c-10.9,12.8 -25.9,18.8 -43.3,18.8c-38.4,0 -68.4,-29.7 -68.4,-67.6c0,-38.4 30.5,-67.9 68.4,-67.9c17.4,0 32.2,6.3 43.3,19.1l0,-12.7c0,-2.2 1.8,-4 4,-4l18.2,0c2.2,0 4,1.8 4,4l0,121.5c0,2.2 -1.8,4 -4,4l-18.2,0c-2.2,0 -4,-1.8 -4,-4l0,-11.2Z" style="fill:rgb(0,56,52);fill-rule:nonzero;"/>        </g>        <g id="path22" transform="matrix(0.927778,0,0,0.927778,174.54,348.105)">            <path d="M963.2,593.8c0,-25.9 -10.1,-39.2 -31.6,-39.2c-22.4,0 -33,14.4 -33,41.2l0,62c0,2.2 -1.8,4 -4,4l-18.2,0c-2.2,0 -4,-1.8 -4,-4l0,-193.9c0,-2.2 1.8,-4 4,-4l18.2,0c2.2,0 4,1.8 4,4l0,82.2c8.7,-9.8 19.4,-16.4 37.6,-16.4c30.8,0 53.4,18 53.4,58.6l0,69.4c0,2.2 -1.8,4 -4,4l-18.5,0c-2.2,0 -4,-1.8 -4,-4l0,-63.9l0.1,0Z" style="fill:rgb(0,56,52);fill-rule:nonzero;"/>        </g>        <g id="path24" transform="matrix(0.927778,0,0,0.927778,174.54,348.105)">            <path d="M1079.2,554.5c-24.3,0 -42.5,19.1 -42.5,43.1c0,24.3 18.3,43.1 42.5,43.1c24.8,0 42.8,-19.6 42.8,-43.1c0,-23.5 -18.3,-43.1 -42.8,-43.1m43.3,91.9c-10.9,12.8 -25.9,18.8 -43.3,18.8c-38.4,0 -68.4,-29.7 -68.4,-67.6c0,-38.4 30.5,-67.9 68.4,-67.9c17.4,0 32.2,6.3 43.3,19.1l0,-12.7c0,-2.2 1.8,-4 4,-4l18.2,0c2.2,0 4,1.8 4,4l0,121.5c0,2.2 -1.8,4 -4,4l-18.2,0c-2.2,0 -4,-1.8 -4,-4l0,-11.2Z" style="fill:rgb(0,56,52);fill-rule:nonzero;"/>        </g>        <g id="path26" transform="matrix(0.927778,0,0,0.927778,174.54,348.105)">            <path d="M1266.1,593.8c0,-25.9 -10.1,-39.2 -31.6,-39.2c-22.4,0 -33,14.4 -33,41.2l0,62c0,2.2 -1.8,4 -4,4l-18.2,0c-2.2,0 -4,-1.8 -4,-4l0,-121.6c0,-2.2 1.8,-4 4,-4l18.2,0c2.2,0 4,1.8 4,4l0,9.9c8.7,-9.8 19.4,-16.4 37.6,-16.4c30.8,0 53.4,18 53.4,58.6l0,69.4c0,2.2 -1.8,4 -4,4l-18.5,0c-2.2,0 -4,-1.8 -4,-4l0,-63.9l0.1,0Z" style="fill:rgb(0,56,52);fill-rule:nonzero;"/>        </g>        <g id="path28" transform="matrix(0.927778,0,0,0.927778,174.54,348.105)">            <path d="M1382.1,554.5c-24.3,0 -42.5,19.1 -42.5,43.1c0,24.3 18.3,43.1 42.5,43.1c24.8,0 42.8,-19.6 42.8,-43.1c0,-23.5 -18.3,-43.1 -42.8,-43.1m43.3,91.9c-10.9,12.8 -25.9,18.8 -43.3,18.8c-38.4,0 -68.4,-29.7 -68.4,-67.6c0,-38.4 30.5,-67.9 68.4,-67.9c17.4,0 32.2,6.3 43.3,19.1l0,-84.9c0,-2.2 1.8,-4 4,-4l18.2,0c2.2,0 4,1.8 4,4l0,193.8c0,2.2 -1.8,4 -4,4l-18.2,0c-2.2,0 -4,-1.8 -4,-4l0,-11.3Z" style="fill:rgb(0,56,52);fill-rule:nonzero;"/>        </g>    </g></svg>