<?xml version="1.0" encoding="UTF-8" standalone="no"?><!DOCTYPE svg PUBLIC "-//W3C//DTD SVG 1.1//EN" "http://www.w3.org/Graphics/SVG/1.1/DTD/svg11.dtd"><svg width="100%" height="100%" viewBox="0 0 1024 512" version="1.1" xmlns="http://www.w3.org/2000/svg" xmlns:xlink="http://www.w3.org/1999/xlink" xml:space="preserve" style="fill-rule:evenodd;clip-rule:evenodd;stroke-linejoin:round;stroke-miterlimit:2;"><title>GIROMATCH</title><desc>We are your digital loan platformSince 2016 we have been offering our customers simple and suitable solutions for everything related to credit and money. Whether personal loan, online loan or credit without Schufa: with our digital loan application you have various options to get your desired loan.</desc>    <g transform="matrix(2.12382,0,0,2.12382,-184.797,-256.362)">        <path d="M147.979,190.313l0.681,101.438c0,3.707 -3.009,6.716 -6.716,6.716l-47.275,0c-3.707,0 -6.716,-3.009 -6.716,-6.716l0,-47.275c0,-3.707 3.009,-6.716 6.716,-6.716l41.318,0l0,6.289l-41.745,0l0,48.129l48.129,0l-0.681,-101.439c0,-3.706 3.009,-6.715 6.715,-6.715l47.276,0c3.706,0 6.715,3.009 6.715,6.715l0,47.276c0,3.706 -3.009,6.715 -6.715,6.715l-41.376,0l0,-6.289l41.802,0l0,-48.128l-48.128,0Z" style="fill:rgb(13,47,75);"/>        <g transform="matrix(1.403,0,0,1.59792,-30.6804,120.811)">            <g transform="matrix(48,0,0,48,175.536,110.411)">                <path d="M0.358,-0.711c-0.163,0 -0.293,0.109 -0.293,0.362c0,0.24 0.095,0.359 0.272,0.359c0.102,0 0.168,-0.026 0.211,-0.063l0,-0.302l-0.06,0l0,0.277c-0.032,0.022 -0.087,0.032 -0.139,0.032c-0.142,0 -0.222,-0.086 -0.222,-0.307c0,-0.246 0.121,-0.301 0.226,-0.301c0.071,0 0.119,0.017 0.151,0.046l0.039,-0.048c-0.024,-0.022 -0.075,-0.055 -0.185,-0.055Z" style="fill:rgb(13,47,75);fill-rule:nonzero;"/>            </g>            <g transform="matrix(48,0,0,48,204.35,110.411)">                <rect x="0.108" y="-0.701" width="0.06" height="0.701" style="fill:rgb(13,47,75);fill-rule:nonzero;"/>            </g>            <g transform="matrix(54.0785,0,0,48,215.577,110.411)">                <path d="M0.098,-0.701l0,0.701l0.06,0l0,-0.299l0.067,0c0.056,0 0.091,0.025 0.121,0.076l0.13,0.223l0.072,0l-0.135,-0.226c-0.031,-0.053 -0.057,-0.075 -0.083,-0.086l0,-0.004c0.085,-0.008 0.161,-0.077 0.161,-0.19c0,-0.138 -0.088,-0.195 -0.231,-0.195l-0.162,0Zm0.06,0.056l0.092,0c0.116,0 0.179,0.039 0.179,0.146c0,0.106 -0.071,0.145 -0.172,0.145l-0.099,0l0,-0.291Z" style="fill:rgb(13,47,75);fill-rule:nonzero;"/>            </g>            <g transform="matrix(48,0,0,48,245.206,110.411)">                <path d="M0.127,-0.354c0,-0.229 0.08,-0.3 0.204,-0.3c0.126,0 0.206,0.076 0.206,0.307c0,0.229 -0.079,0.3 -0.204,0.3c-0.125,0 -0.206,-0.076 -0.206,-0.307Zm0.472,0c0,-0.257 -0.099,-0.357 -0.263,-0.357c-0.168,0 -0.271,0.104 -0.271,0.364c0,0.257 0.099,0.357 0.263,0.357c0.168,0 0.271,-0.104 0.271,-0.364Z" style="fill:rgb(13,47,75);fill-rule:nonzero;"/>            </g>            <g transform="matrix(48,0,0,48,276.365,110.411)">                <path d="M0.402,-0.38l0.186,-0.321l0.142,0l0,0.701l-0.098,0l0,-0.582l-0.005,0c-0.04,0.097 -0.137,0.22 -0.177,0.317l-0.097,0l-0.161,-0.317l-0.006,0l0,0.582l-0.095,0l0,-0.701l0.13,0l0.181,0.321Z" style="fill:rgb(13,47,75);fill-rule:nonzero;"/>            </g>            <g transform="matrix(48,0,0,48,316.507,110.411)">                <path d="M0.261,-0.477c0.011,-0.039 0.038,-0.128 0.043,-0.154l0.004,0c0.006,0.027 0.033,0.114 0.045,0.157l0.06,0.169l-0.213,0l0.061,-0.172Zm-0.013,-0.224c-0.009,0 -0.018,0.006 -0.02,0.014c-0.031,0.097 -0.218,0.687 -0.218,0.687l0.103,0l0.06,-0.218l0.267,0l0.059,0.218l0.107,0c0,0 -0.183,-0.572 -0.218,-0.683c-0.004,-0.011 -0.015,-0.018 -0.028,-0.018l-0.112,0Z" style="fill:rgb(13,47,75);fill-rule:nonzero;"/>            </g>            <g transform="matrix(48,0,0,48,345.862,110.411)">                <path d="M0.193,0l0.101,0l0,-0.614l0.198,0l0,-0.087l-0.513,0l0,0.087l0.214,0l0,0.614Z" style="fill:rgb(13,47,75);fill-rule:nonzero;"/>            </g>            <g transform="matrix(48,0,0,48,370.135,110.411)">                <path d="M0.057,-0.345c0,0.214 0.083,0.355 0.282,0.355c0.106,0 0.171,-0.034 0.201,-0.066l-0.056,-0.071c-0.024,0.024 -0.064,0.047 -0.133,0.047c-0.126,0 -0.191,-0.096 -0.191,-0.272c0,-0.186 0.067,-0.27 0.182,-0.27c0.073,0 0.112,0.026 0.139,0.052l0.065,-0.076c-0.022,-0.02 -0.08,-0.065 -0.196,-0.065c-0.192,0 -0.293,0.139 -0.293,0.366Z" style="fill:rgb(13,47,75);fill-rule:nonzero;"/>            </g>            <g transform="matrix(48,0,0,48,397.735,110.411)">                <path d="M0.506,-0.701l0,0.304l-0.315,0l0,-0.304l-0.1,0l0,0.701l0.1,0l0,-0.31l0.315,0l0,0.31l0.101,0l0,-0.701l-0.101,0Z" style="fill:rgb(13,47,75);fill-rule:nonzero;"/>            </g>        </g>    </g></svg>