<?xml version="1.0" encoding="UTF-8" standalone="no"?><!DOCTYPE svg PUBLIC "-//W3C//DTD SVG 1.1//EN" "http://www.w3.org/Graphics/SVG/1.1/DTD/svg11.dtd"><svg width="100%" height="100%" viewBox="0 0 1024 512" version="1.1" xmlns="http://www.w3.org/2000/svg" xmlns:xlink="http://www.w3.org/1999/xlink" xml:space="preserve" style="fill-rule:evenodd;clip-rule:evenodd;stroke-linejoin:round;stroke-miterlimit:2;"><title>Acredius</title><desc>Acredius is a Swiss independent crowdlending platform. Private and institutional investors can diversify their portfolios starting from a CHF 200 investment. SMEs and startups get access to fair loans using their traditional and non-traditional data.</desc>    <g transform="matrix(0.363638,0,0,0.363638,2,163.272)">        <g transform="matrix(5.66667,0,0,5.66667,0,0)">            <path d="M34.641,80l17.32,10l0,-20l-17.32,10Z" style="fill:rgb(48,56,78);fill-rule:nonzero;"/>        </g>        <g transform="matrix(5.66667,0,0,5.66667,0,0)">            <path d="M17.321,90l17.32,-10l-17.32,-10l0,20Z" style="fill:rgb(59,67,88);fill-rule:nonzero;"/>        </g>        <g transform="matrix(5.66667,0,0,5.66667,0,0)">            <path d="M161.153,72.629l8.208,1.415l-0.848,5.188l-17.549,0.944l3.773,-17.359c-2.516,5.033 -5.347,9.121 -8.491,12.265c-1.509,1.511 -3.412,2.896 -5.708,4.15c-2.296,1.258 -4.608,1.887 -6.935,1.887c-3.523,0 -6.463,-1.57 -8.821,-4.717c-2.359,-3.144 -3.538,-7.075 -3.538,-11.792c0,-10.945 2.783,-19.579 8.35,-25.899c5.567,-6.321 12.155,-9.481 19.766,-9.481c1.824,0 3.616,0.235 5.377,0.706c1.76,0.474 3.082,0.93 3.963,1.37l1.227,0.754l2.831,-1.887l5.189,0l-6.794,42.456Zm-5.19,-25.003l1.887,-9.905c-2.391,-0.945 -5.222,-1.416 -8.491,-1.416c-5.033,0 -9.404,2.28 -13.115,6.84c-3.712,4.561 -5.566,11.244 -5.566,20.051c0,3.206 0.533,5.66 1.604,7.356c1.069,1.699 2.563,2.548 4.482,2.548c1.917,0 3.93,-0.879 6.038,-2.641c2.106,-1.761 3.916,-3.87 5.425,-6.323c3.27,-5.343 5.566,-9.968 6.888,-13.868l0.848,-2.642Z" style="fill:rgb(254,236,181);fill-rule:nonzero;"/>        </g>        <g transform="matrix(5.66667,0,0,5.66667,0,0)">            <path d="M208.766,45.738l-0.283,-8.018c-1.51,-0.629 -3.555,-0.945 -6.133,-0.945c-5.158,0 -9.279,2.596 -12.36,7.784c-3.083,5.19 -4.624,11.32 -4.624,18.399c0,7.075 2.987,10.613 8.963,10.613c1.949,0 4.104,-0.344 6.463,-1.038c2.359,-0.691 4.229,-1.416 5.614,-2.17l2.076,-1.038l2.83,4.718c-0.693,0.504 -1.651,1.147 -2.877,1.935c-1.227,0.786 -3.507,1.839 -6.84,3.16c-3.335,1.32 -6.385,1.979 -9.151,1.979c-4.907,0 -8.885,-1.538 -11.936,-4.621c-3.051,-3.081 -4.576,-7.358 -4.576,-12.831c0,-10.252 2.609,-18.556 7.831,-24.908c5.22,-6.353 11.888,-9.529 20.001,-9.529c2.265,0 4.497,0.315 6.699,0.943c2.201,0.629 3.836,1.259 4.906,1.887l1.604,0.942l-2.076,12.737l-6.131,0l0,0.001Z" style="fill:rgb(254,236,181);fill-rule:nonzero;"/>        </g>        <g transform="matrix(5.66667,0,0,5.66667,0,0)">            <path d="M263.739,30.172l-2.831,14.151l-6.133,0l0,-6.603c-1.95,0 -3.884,0.847 -5.802,2.547c-1.92,1.696 -3.538,3.742 -4.859,6.133c-2.769,5.033 -4.781,9.467 -6.039,13.302l-0.755,2.548l-3.019,17.926l-8.962,0l6.887,-42.455l-8.02,-1.89l0.849,-5.187l17.36,-0.473l-3.679,16.416c2.012,-4.779 4.496,-8.68 7.454,-11.699c1.383,-1.446 3.223,-2.75 5.519,-3.914c2.296,-1.165 4.732,-1.746 7.312,-1.746c1.383,0.001 2.956,0.316 4.718,0.944Z" style="fill:rgb(254,236,181);fill-rule:nonzero;"/>        </g>        <g transform="matrix(5.66667,0,0,5.66667,0,0)">            <path d="M307.427,41.493c0,5.411 -3.066,9.798 -9.199,13.162c-6.134,3.366 -14.106,5.047 -23.919,5.047c-0.188,1.386 -0.281,2.736 -0.281,4.058c0,6.542 3.458,9.813 10.377,9.813c2.012,0 4.309,-0.344 6.889,-1.038c2.578,-0.691 4.654,-1.416 6.227,-2.17l2.359,-1.038l2.831,4.813c-0.757,0.504 -1.794,1.148 -3.115,1.934c-1.321,0.787 -3.837,1.825 -7.547,3.113c-3.713,1.289 -7.204,1.933 -10.474,1.933c-5.158,0 -9.277,-1.508 -12.359,-4.526c-3.082,-3.02 -4.623,-7.015 -4.623,-11.982c0,-9.938 2.656,-18.318 7.972,-25.146c5.314,-6.824 11.746,-10.235 19.293,-10.235c4.781,0 8.57,1.117 11.37,3.349c2.797,2.23 4.199,5.203 4.199,8.913Zm-32.269,11.604c6.731,0 12.298,-1.004 16.699,-3.017c4.403,-2.014 6.605,-4.562 6.605,-7.643c0,-4.088 -2.359,-6.133 -7.076,-6.133c-3.46,0 -6.73,1.571 -9.813,4.717c-3.08,3.147 -5.219,7.17 -6.415,12.076Z" style="fill:rgb(254,236,181);fill-rule:nonzero;"/>        </g>        <g transform="matrix(5.66667,0,0,5.66667,0,0)">            <path d="M352.746,72.629l8.114,1.415l-0.85,5.188l-17.267,0.944l4.153,-17.359c-1.952,4.401 -4.718,8.492 -8.304,12.265c-1.574,1.573 -3.508,2.974 -5.803,4.198c-2.297,1.226 -4.609,1.839 -6.935,1.839c-3.649,0 -6.638,-1.556 -8.963,-4.67c-2.329,-3.113 -3.491,-7.06 -3.491,-11.839c0,-10.881 2.75,-19.499 8.256,-25.852c5.502,-6.353 12.061,-9.529 19.672,-9.529c3.396,0 6.416,0.693 9.057,2.076l2.642,-16.229l-8.019,-1.888l0.851,-5.188l17.454,-0.474l-10.567,65.103Zm-4.906,-25.003l1.51,-9.905c-2.202,-0.945 -4.876,-1.416 -8.02,-1.416c-5.411,0 -9.845,2.5 -13.303,7.5c-3.461,5 -5.189,11.306 -5.189,18.917c0,3.334 0.519,5.896 1.556,7.69c1.038,1.79 2.548,2.688 4.529,2.688c1.98,0 4.009,-0.879 6.085,-2.641c2.077,-1.761 3.836,-3.87 5.283,-6.323c3.02,-5.03 5.221,-9.654 6.606,-13.868l0.943,-2.642Z" style="fill:rgb(254,236,181);fill-rule:nonzero;"/>        </g>        <g transform="matrix(5.66667,0,0,5.66667,0,0)">            <path d="M371.581,80.176l6.794,-42.455l-8.02,-1.89l0.943,-5.187l17.266,-0.473l-6.792,42.457l8.019,1.415l-0.85,5.188l-17.36,0.945Zm19.814,-66.75c0,1.917 -0.581,3.695 -1.744,5.329c-1.165,1.638 -2.658,2.454 -4.481,2.454c-1.825,0 -3.209,-0.426 -4.151,-1.274c-0.944,-0.85 -1.415,-2.232 -1.415,-4.151c0,-1.919 0.579,-3.694 1.745,-5.331c1.162,-1.636 2.655,-2.453 4.479,-2.453c1.824,0 3.208,0.423 4.153,1.272c0.943,0.85 1.414,2.236 1.414,4.154Z" style="fill:rgb(254,236,181);fill-rule:nonzero;"/>        </g>        <g transform="matrix(5.66667,0,0,5.66667,0,0)">            <path d="M431.055,80.176l3.868,-18.304c-0.817,2.076 -2.06,4.325 -3.726,6.746c-1.668,2.423 -3.303,4.467 -4.907,6.133c-1.602,1.668 -3.679,3.146 -6.226,4.435c-2.549,1.289 -5.142,1.933 -7.785,1.933c-6.981,0 -10.473,-3.834 -10.473,-11.509c0,-1.447 0.156,-3.271 0.472,-5.474l4.341,-26.415l-8.02,-1.89l0.849,-5.187l17.267,-0.473l-5.189,32.55c-0.253,2.014 -0.378,3.396 -0.378,4.15c0,4.153 1.634,6.228 4.905,6.228c2.326,0 4.624,-0.897 6.889,-2.688c2.265,-1.794 4.15,-3.948 5.661,-6.464c3.208,-5.472 5.438,-10.188 6.699,-14.151l0.847,-2.643l2.833,-16.982l8.962,0l-6.793,42.457l8.114,1.415l-0.85,5.188l-17.36,0.945Z" style="fill:rgb(254,236,181);fill-rule:nonzero;"/>        </g>        <g transform="matrix(5.66667,0,0,5.66667,0,0)">            <path d="M465.063,65.08l0.095,8.02c1.895,0.756 4.341,1.132 7.342,1.132c2.998,0 5.445,-0.659 7.341,-1.98c1.896,-1.321 2.843,-3.02 2.843,-5.096c0,-2.075 -0.711,-3.741 -2.131,-5c-1.422,-1.258 -3.159,-2.358 -5.211,-3.302c-2.055,-0.944 -4.106,-1.981 -6.158,-3.114c-2.053,-1.13 -3.789,-2.655 -5.211,-4.575c-1.42,-1.918 -2.131,-4.197 -2.131,-6.841c0,-4.968 1.802,-8.727 5.4,-11.275c3.6,-2.547 8.178,-3.819 13.736,-3.819c4.23,0 8.242,0.565 12.032,1.697l1.988,0.662l-2.274,12.735l-6.158,0l-0.567,-7.359c-1.389,-0.566 -3.442,-0.85 -6.158,-0.85c-2.716,0 -4.894,0.566 -6.536,1.699c-1.643,1.134 -2.463,2.69 -2.463,4.671c0,1.982 0.725,3.648 2.18,5c1.451,1.354 3.221,2.533 5.306,3.538c2.081,1.007 4.181,2.074 6.298,3.208c2.117,1.133 3.9,2.611 5.354,4.436c1.453,1.823 2.178,3.963 2.178,6.414c0,4.908 -1.941,8.809 -5.825,11.7c-3.884,2.893 -9.048,4.338 -15.489,4.338c-4.735,0 -8.843,-0.563 -12.314,-1.696l-1.896,-0.661l2.275,-13.681l6.154,0l0,-0.001Z" style="fill:rgb(254,236,181);fill-rule:nonzero;"/>        </g>        <g transform="matrix(5.66667,0,0,5.66667,0,0)">            <path d="M34.641,0l-34.641,20l0,60l17.321,10l0,-20l17.32,10l17.32,-10l0,20l17.321,-10l0,-20l17.321,-10l0,-20l-51.962,-30Z" style="fill:rgb(254,236,181);fill-rule:nonzero;"/>        </g>        <g transform="matrix(5.66667,0,0,5.66667,0,0)">            <path d="M34.641,20l-17.32,10l0,20l17.32,10l17.32,-10l0,-20l-17.32,-10Z" style="fill:rgb(94,100,117);fill-rule:nonzero;"/>            <path d="M34.641,40l17.32,10l-17.32,10l-17.32,-10l17.32,-10Z" style="fill:rgb(186,189,196);fill-rule:nonzero;"/>            <path d="M34.641,40l0,-20l17.32,10l0,20l-17.32,-10Z" style="fill:rgb(71,78,97);fill-rule:nonzero;"/>        </g>        <g transform="matrix(5.66667,0,0,5.66667,0,0)">            <path d="M34.641,60l-17.32,-10l0,-20l-17.321,-10l0,60l17.321,10l0,-20l17.32,10l0,-20Z" style="fill:rgb(253,205,57);fill-rule:nonzero;"/>        </g>        <g transform="matrix(5.66667,0,0,5.66667,0,0)">            <path d="M51.961,50l-17.32,10l0,20l17.32,-10l0,20l17.321,-10l0,-20l17.321,-10l0,-20l-17.321,10l0,-20l-17.321,10l0,20Z" style="fill:rgb(253,223,131);fill-rule:nonzero;"/>        </g>        <g transform="matrix(5.66667,0,0,5.66667,0,0)">            <path d="M69.282,20l0,20l17.321,-10l-17.321,-10Z" style="fill:rgb(254,236,181);fill-rule:nonzero;"/>        </g>        <g transform="matrix(5.66667,0,0,5.66667,0,0)">            <path d="M34.641,20l17.32,10l17.321,-10l-34.641,-20l-34.641,20l17.321,10l17.32,-10Z" style="fill:rgb(254,236,181);fill-rule:nonzero;"/>        </g>    </g></svg>