<?xml version="1.0" encoding="UTF-8" standalone="no"?><!DOCTYPE svg PUBLIC "-//W3C//DTD SVG 1.1//EN" "http://www.w3.org/Graphics/SVG/1.1/DTD/svg11.dtd"><svg width="100%" height="100%" viewBox="0 0 1024 512" version="1.1" xmlns="http://www.w3.org/2000/svg" xmlns:xlink="http://www.w3.org/1999/xlink" xml:space="preserve" style="fill-rule:evenodd;clip-rule:evenodd;stroke-linejoin:round;stroke-miterlimit:2;"><title>Energise Africa</title><desc>Two online impact investing platforms, Ethex and Lendahand have joined forces to provide UK based retail investors with investment opportunities which will significantly improve off grid energy access for families in Sub Saharan Africa. Ethex is a UK based non-profit social impact savings and investment platform and Lendahand is a Dutch based crowdfunding platform focused on impact investing in emerging markets. Together, both organisations have launched Energise Africa – an initiative that provides working capital to businesses that sell solar home systems in sub-Saharan Africa.</desc>    <g transform="matrix(1.02862,0,0,1.02207,50.555,-39.1427)">        <g transform="matrix(3.47938,0,0,3.47938,-47.2041,242.784)">            <path d="M232,0l-6,1l0,24l6,0l0,-25Zm-59,1l-5,-1l-9,25l6,1l2,-4l11,-1l2,4l6,0l-8,-24l-5,0Zm-4,15l3,-10l3,1l2,9l-8,0Zm108,-16l-11,1l-8,24l6,1l2,-5l11,0l2,5l3,0l3,-1l-8,-25Zm-10,16l3,-9l3,0l3,8l-9,1Zm-79,9l6,0l0,-8l7,0l0,-6l-7,0l0,-5l7,0l0,-6l-14,1l1,24Zm57,-5c-5.058,-2.514 -5,-7 -5,-7c0.432,-3.117 2.883,-5.568 6,-6c2.522,-0.86 5.312,-0.06 7,2l5,-3c-2.599,-3.952 -7.364,-5.937 -12,-5c-7.866,0.307 -11,9 -11,9c-1.637,9.82 5,14 5,14c12.284,5.528 17,-3 17,-3l-3,-3c-3.82,2.968 -9,2 -9,2Zm-22,-12c-0.063,-4.207 -5,-7 -5,-7l-3,-1l-10,0l0,25l6,0l-1,-8l2,0l5,8l5,0l-5,-8c5.312,-2.028 6,-9 6,-9Zm-8,4l-5,0l0,-7l5,1c0,0 2.78,0.5 3,3c-0.316,1.504 -1.496,2.684 -3,3Z" style="fill:rgb(255,153,0);fill-rule:nonzero;"/>        </g>        <g transform="matrix(3.47938,0,0,3.47938,-47.2041,242.784)">            <path d="M6,16l8,0l1,-5l-9,0l0,-6l9,1l1,-5l-16,0l0,13l1,11l15,0l0,-4l-10,-1l0,-4Zm27,-16l0,14l-9,-13l-5,0l0,25l6,-1l-1,-13l11,14l4,-1l0,-24l-6,-1Zm46,8c-0.053,-4.15 -4,-7 -4,-7l-3,0l-11,-1l0,25l6,0l0,-8l2,0l5,8l6,-1l-5,-7c5.245,-1.987 4,-9 4,-9Zm-7,4l-5,0l0,-7l4,0c0,0 3.8,1.53 4,4c-0.327,1.498 -1.502,2.673 -3,3Zm46,-11l-6,0l0,25l6,-1l0,-24Zm-69,15l8,0l0,-5l-9,0l1,-6l8,1l1,-5l-15,-1l0,25l15,0l0,-4l-9,-1l0,-4Zm97,4l0,-4l8,0l0,-5l-8,0l0,-5l9,0l1,-5l-16,0l0,15l1,9l14,0l1,-5l-10,0Zm-15,-10c0,0 -5.1,-0.84 -4,-4c0.882,-1.294 2.613,-1.727 4,-1l3,2l1,-1l1,-3c0,0 -2.8,-3.33 -9,-2c0,0 -7,0.606 -5,9c1.212,2.431 3.39,4.246 6,5c2.6,0.754 3.913,0.7 4,2c0,0 0.377,4.453 -4,3l-5,-2l-2,4c0,0 2.857,4.472 11,4c0,0 7.416,-3.383 5,-11c-1.445,-2.238 -3.538,-3.982 -6,-5Zm-36,1l0,4l15,0l0,-4l-15,0Zm5,6c-0.92,1.9 -3.432,2.83 -4,3c-1.328,0.163 -2.672,0.163 -4,0c-5,-2.5 -4,-7 -4,-7c0.786,-5.355 5,-6 5,-6c2.523,-0.832 5.298,-0.04 7,2l5,-3c-4.546,-6.336 -12,-5 -12,-5c-7.783,0.285 -11,9 -11,9c-1.087,5.447 1.306,11.031 6,14c4.694,2.969 5.656,3.12 11,1c0.332,0.043 0.668,0.043 1,0c1.242,-0.5 1.3,-1.337 2,-2c1.736,-1.3 3.112,-3.021 4,-5c0.085,-0.178 1,0 1,0l-7,-1Z" style="fill:rgb(84,0,0);fill-rule:nonzero;"/>        </g>    </g></svg>