<?xml version="1.0" encoding="UTF-8" standalone="no"?><!DOCTYPE svg PUBLIC "-//W3C//DTD SVG 1.1//EN" "http://www.w3.org/Graphics/SVG/1.1/DTD/svg11.dtd"><svg width="100%" height="100%" viewBox="0 0 1024 512" version="1.1" xmlns="http://www.w3.org/2000/svg" xmlns:xlink="http://www.w3.org/1999/xlink" xml:space="preserve" style="fill-rule:evenodd;clip-rule:evenodd;stroke-linejoin:round;stroke-miterlimit:2;"><title>MAS</title><desc></desc>    <g transform="matrix(4.37697,0,0,4.37697,2,87.7712)">        <rect x="0" y="0" width="76.87" height="76.87" style="fill:rgb(2,15,80);fill-rule:nonzero;"/>        <path d="M10.174,38.435c0,-15.61 12.652,-28.261 28.26,-28.261c15.608,0 28.262,12.65 28.262,28.26c0,15.608 -12.652,28.262 -28.261,28.262c-15.608,0 -28.261,-12.653 -28.261,-28.261Z" style="fill:rgb(167,131,55);fill-rule:nonzero;"/>        <g>            <path d="M19.02,47.323l-1.724,0l0,0.964l4.913,0l0,-0.964l-2.26,0l0,-18.488l0.051,0l5.576,19.8l0.683,0l5.337,-19.126l0.049,0l0,17.814l-2.26,0l0,0.964l6.535,0l0,-0.964l-1.917,0l0,-18.74l1.917,0l0,-0.964l-4.692,0l-4.571,16.447l-4.544,-16.447l-4.816,0l0,0.964l1.724,0l-0.001,18.74Z" style="fill:white;fill-rule:nonzero;"/>            <path d="M44.099,40.194l-2.076,-8.908l-2.353,8.908l4.429,0Zm-7.296,7.13l5.263,-20.05l1.627,0l4.668,20.05l1.724,0l0,0.963l-6.596,0l0,-0.964l2.24,0l-1.42,-6.139l-4.918,0l-1.586,6.14l2.24,0l0,0.963l-4.127,0l0,-0.964l0.885,0l0,0.001Zm13.285,-0.001c1.354,0.81 3.682,1.246 5.164,1.246c3.014,0 5.342,-1.536 5.204,-5.937c-0.244,-7.794 -8.582,-5.648 -8.745,-10.832c-0.072,-2.29 1.59,-3.852 3.098,-3.852c2.019,0 3.631,1.766 4.043,5.068l0.683,0l0,-4.546c-1.198,-0.724 -3.215,-1.219 -4.492,-1.219c-2.529,0 -5.181,1.74 -5.058,5.707c0.224,7.154 8.541,5.156 8.716,10.746c0.088,2.783 -1.529,4.171 -3.342,4.171c-2.783,0 -4.294,-2.173 -4.586,-5.821l-0.683,0l-0.002,5.27l0,-0.001Z" style="fill:white;fill-rule:nonzero;"/>        </g>        <path d="M97.792,61.76c0,1.863 0.864,4.737 3.648,4.737c2.783,0 3.648,-2.874 3.648,-4.736c0,-1.863 -0.864,-4.737 -3.648,-4.737c-2.784,0 -3.648,2.878 -3.648,4.737l0,-0.001Zm1.787,0c0,-1.933 0.019,-4.253 1.862,-4.253c1.842,0 1.861,2.322 1.861,4.254c0,1.936 -0.019,4.274 -1.86,4.274c-1.846,0 -1.863,-2.338 -1.863,-4.274l0,-0.001Zm7.461,-4.068l0,8.124l-1.326,0l0,0.459l4.182,0l0,-0.46l-1.254,0l0,-8.123l1.495,0l0,-0.461l-1.495,0l0,-2.047c0,-1.106 0.112,-1.84 0.958,-1.84c0.61,0 0.828,0.44 0.828,1.231c0,0.588 0.222,0.866 0.737,0.866c0.406,0 0.683,-0.278 0.683,-0.773c0,-1.439 -1.401,-1.786 -2.34,-1.786c-1.178,0 -2.467,0.515 -2.467,2.523l0,1.823l-1.327,0l0,0.462l1.327,0l0,0.002l-0.001,0Zm8.155,7.975c0.958,0.515 2.561,0.793 3.63,0.793c2.175,0 3.887,-0.976 3.887,-3.777c0,-4.958 -6.06,-3.594 -6.06,-6.892c0,-1.453 1.234,-2.449 2.322,-2.449c1.454,0 2.58,1.122 2.8,3.223l0.498,0l-0.092,-2.893c-0.85,-0.46 -2.1,-0.774 -3.021,-0.774c-1.823,0 -3.777,1.106 -3.777,3.63c0,4.552 6.043,3.283 6.043,6.836c0,1.77 -1.198,2.653 -2.507,2.653c-2.007,0 -3.224,-1.384 -3.353,-3.702l-0.479,0l0.11,3.352l-0.001,0Zm9.697,0.149l-1.364,0l0,0.459l4.296,0l0,-0.46l-1.347,0l0,-8.584l-2.95,0l0,0.461l1.365,0l0,8.124Zm-0.185,-11.443c0,0.645 0.46,1.107 0.976,1.107c0.498,0 0.977,-0.444 0.977,-1.107c0,-0.682 -0.46,-1.106 -0.977,-1.106c-0.552,0 -0.976,0.405 -0.976,1.106Zm3.281,11.443l0,0.459l4.182,0l0,-0.46l-1.234,0l0,-4.79c0,-1.715 0.738,-3.334 2.192,-3.334c1.106,0 1.254,1.013 1.254,2.024l0,6.1l-1.235,0l0,0.459l4.072,0l0,-0.46l-1.234,0l0,-6.188c0,-1.843 -0.774,-2.6 -2.304,-2.6c-1.289,0 -2.23,0.701 -2.707,1.955l-0.038,0l0,-1.75l-2.948,0l0,0.479l1.363,0l0,8.108l-1.363,-0.002Zm13.08,-8.792c-1.326,0 -2.561,1.052 -2.561,2.784c0,0.81 0.112,1.29 0.534,1.953c-0.757,0.332 -1.402,0.994 -1.402,2.082c0,1.05 0.609,1.864 1.567,2.12l0,0.036l0,-0.02c-0.756,0.167 -1.53,0.701 -1.53,1.77c0,2.176 2.321,2.578 3.666,2.578c1.695,0 3.758,-0.828 3.758,-3.316c0,-2.046 -1.143,-2.82 -2.728,-2.82l-2.708,0c-0.885,0 -1.419,-0.13 -1.419,-0.808c0,-0.626 0.7,-1.162 1.163,-1.162c0.536,0.37 1.171,0.57 1.822,0.573c1.475,0 2.654,-1.143 2.654,-2.95c0.005,-0.558 -0.129,-1.108 -0.39,-1.601c0,-0.222 0.277,-0.552 0.461,-0.552c0.552,0 0.02,1.216 0.85,1.216c0.368,0 0.57,-0.35 0.57,-0.81c0,-0.703 -0.515,-1.072 -0.991,-1.072c-0.535,0 -0.888,0.335 -1.164,0.758c-0.532,-0.573 -1.322,-0.759 -2.152,-0.759Zm-1.07,2.71c0,-1.142 0.093,-2.246 1.235,-2.246c1.143,0 1.143,1.436 1.143,2.486c0,0.976 -0.093,2.34 -1.198,2.34c-1.123,0 -1.18,-1.603 -1.18,-2.58Zm2.176,6.265c1.474,0 2.283,0.257 2.283,1.495c0,1.306 -1.27,2.338 -2.911,2.338c-1.603,0 -2.728,-0.497 -2.728,-1.993c0.002,-1.71 1.163,-1.84 3.356,-1.84Zm8.418,-0.923c0.257,1.106 0.867,1.199 1.731,1.199l1.198,0l0,-0.46c-0.885,0 -1.233,0.163 -1.233,-1.234l0,-4.883c0,-1.531 -0.533,-2.674 -2.967,-2.674c-1.254,0 -3.021,0.408 -3.021,2.176c0,0.554 0.312,0.683 0.717,0.683c0.498,0 0.774,-0.3 0.774,-0.96c0,-1.16 0.737,-1.435 1.53,-1.435c1.032,0 1.363,0.828 1.363,2.096l0,0.776c-1.971,0.717 -4.828,0.737 -4.828,3.499c0,1.679 0.572,2.638 2.19,2.638c1.034,0 1.938,-0.315 2.546,-1.42l0,-0.001Zm0.093,-4.2l0,2.138c0,1.254 -0.61,2.855 -1.971,2.855c-0.85,0 -1.069,-0.938 -1.069,-2.062c0,-1.806 0.7,-2.21 1.637,-2.507l1.403,-0.425l0,0.001Zm2.947,9.452l4.347,0l0,-0.46l-1.346,0l0,-4.643l0.019,0c0.35,0.886 1.142,1.272 2.029,1.272c2.45,0 3.48,-2.249 3.48,-4.736c0,-3.391 -1.566,-4.737 -3.224,-4.737c-1.032,0 -1.788,0.335 -2.285,1.475l-0.019,0l0,-1.269l-2.912,0l0,0.479l1.31,0l0,12.159l-1.401,0l0.002,0.46Zm2.947,-9.432c0,-2.73 1.141,-3.299 1.862,-3.299c1.455,0 1.954,1.81 1.954,4.164c0,2.636 -0.7,4.163 -1.954,4.163c-1.586,0 -1.862,-1.915 -1.862,-3.519l0,-1.509Zm6.688,0.864c0,1.863 0.865,4.737 3.65,4.737c2.782,0 3.648,-2.874 3.648,-4.736c0,-1.863 -0.866,-4.737 -3.648,-4.737c-2.785,0 -3.65,2.878 -3.65,4.737l0,-0.001Zm1.788,0c0,-1.933 0.019,-4.253 1.862,-4.253c1.842,0 1.861,2.322 1.861,4.254c0,1.936 -0.019,4.274 -1.86,4.274c-1.845,0 -1.863,-2.338 -1.863,-4.274l0,-0.001Zm7.498,4.056l-1.363,0l0,0.459l4.255,0l0,-0.46l-1.308,0l0,-4.145c0,-1.991 0.884,-3.887 1.75,-3.887c0.219,0 0.387,0.164 0.387,0.425l0,0.864c0,0.572 0.313,0.757 0.737,0.757c0.553,0 0.81,-0.534 0.81,-1.142c0,-1.07 -0.573,-1.66 -1.493,-1.66c-1.199,0 -1.822,1.142 -2.156,2.214l-0.035,0l0,-2.01l-2.95,0l0,0.462l1.364,0l0.002,8.123Zm12.527,-4.625c0,-2.468 -1.234,-4.146 -3.372,-4.146c-2.284,0 -3.65,2.231 -3.65,4.716c0,2.598 0.941,4.736 3.39,4.736c1.75,0 2.709,-0.647 3.39,-2.783l-0.461,-0.127c-0.424,1.25 -1.085,2.34 -2.432,2.34c-2.028,0 -2.1,-1.824 -2.1,-4.405l0,-0.332l5.236,0l0,0.001l-0.001,0Zm-5.233,-0.517c0,-1.14 0.348,-3.167 1.695,-3.167c1.585,0 1.658,1.843 1.658,3.167l-3.353,0Zm-80.95,-12.867l-1.474,0l0,0.46l3.685,0l0,-0.46l-1.696,0l0,-11.94l0.038,0l4.182,12.622l0.331,0l4.184,-12.622l0.036,0l0,11.94l-1.75,0l0,0.46l4.955,0l0,-0.46l-1.436,0l0,-12.254l1.436,0l0,-0.46l-3.517,0l-2.802,8.457l-0.627,2.027l-0.588,-1.99l-2.82,-8.494l-3.61,0l0,0.46l1.473,0l0,12.254Zm13.287,-4.052c0,1.86 0.866,4.734 3.648,4.734c2.783,0 3.65,-2.874 3.65,-4.734c0,-1.863 -0.866,-4.734 -3.65,-4.734c-2.781,0 -3.648,2.87 -3.648,4.734Zm1.787,0c0,-1.937 0.02,-4.255 1.862,-4.255c1.844,0 1.862,2.32 1.862,4.255c0,1.933 -0.018,4.275 -1.862,4.275c-1.843,0 -1.862,-2.34 -1.862,-4.275Zm6.134,4.052l0,0.459l4.182,0l0,-0.46l-1.234,0l0,-4.792c0,-1.714 0.737,-3.334 2.192,-3.334c1.106,0 1.253,1.013 1.253,2.028l0,6.098l-1.234,0l0,0.459l4.07,0l0,-0.46l-1.232,0l0,-6.19c0,-1.843 -0.774,-2.598 -2.304,-2.598c-1.29,0 -2.23,0.699 -2.708,1.955l-0.037,0l0,-1.75l-2.948,0l0,0.476l1.362,0l0,8.112l-1.362,0l0,-0.003Zm16.875,-4.625c0,-2.468 -1.232,-4.146 -3.373,-4.146c-2.282,0 -3.648,2.23 -3.648,4.715c0,2.599 0.942,4.734 3.39,4.734c1.75,0 2.709,-0.644 3.389,-2.781l-0.46,-0.13c-0.424,1.256 -1.087,2.342 -2.432,2.342c-2.028,0 -2.1,-1.824 -2.1,-4.404l0,-0.332l5.235,0.002l-0.001,0Zm-5.232,-0.516c0,-1.142 0.35,-3.169 1.694,-3.169c1.585,0 1.659,1.844 1.659,3.17l-3.353,0l0,-0.001Zm5.695,-2.986l1.27,0l0,6.43c0,1.179 0.128,2.27 1.77,2.27c1.216,0 1.788,-0.626 2.138,-1.604l-0.424,-0.165c-0.256,0.587 -0.553,1.104 -1.125,1.104c-0.626,0 -0.774,-0.517 -0.774,-1.602l0,-6.432l1.751,0l0,-0.442l-1.75,0l0,-2.45l-1.587,0l0,2.45l-1.269,0l0,0.442l0,-0.001Z" style="fill:rgb(167,131,55);fill-rule:nonzero;"/>        <path d="M147.335,47.07c0.256,1.106 0.865,1.2 1.732,1.2l1.197,0l0,-0.46c-0.886,0 -1.234,0.162 -1.234,-1.235l0,-4.885c0,-1.53 -0.534,-2.67 -2.967,-2.67c-1.252,0 -3.022,0.405 -3.022,2.174c0,0.554 0.314,0.681 0.719,0.681c0.497,0 0.774,-0.295 0.774,-0.957c0,-1.16 0.737,-1.438 1.53,-1.438c1.033,0 1.362,0.83 1.362,2.1l0,0.774c-1.97,0.716 -4.827,0.737 -4.827,3.499c0,1.679 0.571,2.636 2.192,2.636c1.034,0 1.937,-0.314 2.544,-1.419Zm0.092,-4.2l0,2.137c0,1.255 -0.609,2.857 -1.97,2.857c-0.85,0 -1.07,-0.941 -1.07,-2.065c0,-1.805 0.7,-2.21 1.639,-2.506l1.4,-0.424l0.001,0.001Zm4.313,4.937l-1.365,0l0,0.459l4.257,0l0,-0.46l-1.31,0l0,-4.146c0,-1.99 0.884,-3.887 1.75,-3.887c0.22,0 0.388,0.165 0.388,0.425l0,0.864c0,0.572 0.312,0.755 0.737,0.755c0.553,0 0.81,-0.53 0.81,-1.14c0,-1.07 -0.572,-1.657 -1.493,-1.657c-1.199,0 -1.823,1.14 -2.156,2.21l-0.036,0l0,-2.006l-2.95,0l0,0.459l1.365,0l0.002,8.125l0.001,-0.001Z" style="fill:rgb(167,131,55);fill-rule:nonzero;"/>        <path d="M160.471,49.393c-0.424,1.655 -1.013,2.395 -1.493,2.395c-0.46,0 -0.535,-0.482 -0.535,-0.96c0,-0.476 -0.11,-0.955 -0.68,-0.955c-0.46,0 -0.717,0.386 -0.717,1.03c0,0.794 0.515,1.548 1.455,1.548c2.062,0 2.322,-2.836 2.782,-4.182l2.875,-8.604l1.123,0l0.02,-0.441l-3.189,0l0,0.441l1.511,0l-1.621,5.012c-0.222,0.645 -0.39,1.361 -0.39,1.361l-0.054,0c0,0 -0.111,-0.7 -0.332,-1.402l-1.547,-4.974l1.439,0l0,-0.44l-4.424,0l0,0.44l1.179,0l2.892,8.604l-0.294,1.127Zm8.048,-1.586l-1.326,0l0,0.459l3.594,0l0,-0.46l-1.697,0l1.178,-4.22l2.986,0l1.197,4.22l-1.638,0l0,0.46l5.05,0l0,-0.46l-1.44,0l-3.814,-12.934l-0.404,0l-3.686,12.935Zm4.606,-4.697l-2.744,0l0.957,-3.373l0.387,-1.64l0.092,0l0.368,1.64l0.94,3.373Zm9.968,5.157l2.947,0l0,-0.46l-1.346,0l0,-8.567l-3.018,0l0,0.442l1.417,0l0,4.808c0,1.714 -0.737,3.334 -2.191,3.334c-1.087,0 -1.254,-1.015 -1.254,-2.029l0,-6.556l-2.837,0l0,0.442l1.253,0l0,6.21c0,1.842 0.756,2.598 2.304,2.598c1.271,0 2.21,-0.7 2.707,-1.953l0.02,0l-0.002,1.732l0,-0.001Zm3.167,-8.587l1.27,0l0,6.43c0,1.179 0.128,2.27 1.77,2.27c1.217,0 1.786,-0.626 2.138,-1.604l-0.423,-0.165c-0.259,0.587 -0.553,1.104 -1.126,1.104c-0.625,0 -0.774,-0.517 -0.774,-1.602l0,-6.432l1.75,0l0,-0.442l-1.75,0l0,-2.45l-1.585,0l0,2.45l-1.27,0l0,0.442l0,-0.001Z" style="fill:rgb(167,131,55);fill-rule:nonzero;"/>        <path d="M191.306,47.807l0,0.459l4.182,0l0,-0.46l-1.234,0l0,-4.792c0,-1.714 0.738,-3.334 2.192,-3.334c1.106,0 1.254,1.013 1.254,2.028l0,6.098l-1.235,0l0,0.459l4.072,0l0,-0.46l-1.234,0l0,-6.19c0,-1.843 -0.774,-2.598 -2.304,-2.598c-1.289,0 -2.23,0.699 -2.707,1.955l-0.038,0l0,-5.879l-2.948,0l0,0.46l1.364,0l0,12.256l-1.364,0l0,-0.002Zm9.856,-4.052c0,1.86 0.865,4.734 3.65,4.734c2.782,0 3.648,-2.874 3.648,-4.734c0,-1.863 -0.866,-4.734 -3.648,-4.734c-2.785,0 -3.65,2.87 -3.65,4.734Zm1.787,0c0,-1.937 0.018,-4.255 1.863,-4.255c1.842,0 1.86,2.32 1.86,4.255c0,1.933 -0.018,4.275 -1.86,4.275c-1.845,0 -1.863,-2.34 -1.863,-4.275Zm7.498,4.052l-1.364,0l0,0.459l4.257,0l0,-0.46l-1.31,0l0,-4.146c0,-1.99 0.886,-3.887 1.751,-3.887c0.22,0 0.387,0.165 0.387,0.425l0,0.864c0,0.572 0.314,0.755 0.738,0.755c0.553,0 0.81,-0.53 0.81,-1.14c0,-1.07 -0.573,-1.657 -1.495,-1.657c-1.197,0 -1.822,1.14 -2.155,2.21l-0.036,0l0,-2.006l-2.949,0l0,0.459l1.363,0l0.003,8.125l0,-0.001Zm6.76,0l-1.363,0l0,0.459l4.295,0l0,-0.46l-1.346,0l0,-8.585l-2.949,0l0,0.46l1.363,0l0,8.126Zm-0.184,-11.442c0,0.645 0.461,1.104 0.977,1.104c0.498,0 0.978,-0.442 0.978,-1.104c0,-0.683 -0.46,-1.106 -0.978,-1.106c-0.552,0 -0.977,0.406 -0.977,1.106Zm3.354,3.315l1.272,0l0,6.43c0,1.179 0.129,2.27 1.77,2.27c1.217,0 1.786,-0.626 2.138,-1.604l-0.425,-0.165c-0.257,0.587 -0.553,1.104 -1.124,1.104c-0.626,0 -0.774,-0.517 -0.774,-1.602l0,-6.432l1.75,0l0,-0.442l-1.75,0l0,-2.45l-1.585,0l0,2.45l-1.272,0l0,0.442l0,-0.001Z" style="fill:rgb(167,131,55);fill-rule:nonzero;"/>        <path d="M228.207,49.393c-0.423,1.655 -1.013,2.395 -1.492,2.395c-0.461,0 -0.534,-0.482 -0.534,-0.96c0,-0.476 -0.11,-0.955 -0.681,-0.955c-0.462,0 -0.718,0.386 -0.718,1.03c0,0.794 0.517,1.548 1.454,1.548c2.064,0 2.322,-2.836 2.783,-4.182l2.874,-8.604l1.126,0l0.019,-0.441l-3.188,0l0,0.441l1.51,0l-1.622,5.012c-0.22,0.645 -0.388,1.361 -0.388,1.361l-0.055,0c0,0 -0.112,-0.7 -0.333,-1.402l-1.547,-4.974l1.438,0l0,-0.44l-4.423,0l0,0.44l1.18,0l2.892,8.604l-0.295,1.127Z" style="fill:rgb(167,131,55);fill-rule:nonzero;"/>    </g></svg>