<?xml version="1.0" encoding="UTF-8" standalone="no"?><!DOCTYPE svg PUBLIC "-//W3C//DTD SVG 1.1//EN" "http://www.w3.org/Graphics/SVG/1.1/DTD/svg11.dtd"><svg width="100%" height="100%" viewBox="0 0 1024 512" version="1.1" xmlns="http://www.w3.org/2000/svg" xmlns:xlink="http://www.w3.org/1999/xlink" xml:space="preserve" style="fill-rule:evenodd;clip-rule:evenodd;stroke-linejoin:round;stroke-miterlimit:2;"><title>British Pearl</title><desc>British Pearl is the first property investment platform to offer both share and loan investments in individual properties.  Investors can buy shares in properties they select and can also be mortgage lenders in their own right. When making loans, investors receive a fixed interest rate of up to 4.4% p.a. paid monthly. Their capital is secured with a first charge against the property just like a high street mortgage. With Loan-To-Value ratios of between 50% and 70%, investors can expect a safe source of income.</desc>    <g transform="matrix(0.996965,0,0,0.99654,1.10792,102)">        <g transform="matrix(2.94352,0,0,2.94352,-1.73906,0)">            <path d="M120.172,47.479l0,-41.117l17.551,0c4.829,0 8.421,1.214 10.777,3.642c1.767,1.841 2.65,4.073 2.65,6.696c0,4.465 -2.179,7.636 -6.537,9.516c5.89,1.762 8.834,5.11 8.834,10.044c0,3.485 -1.354,6.226 -4.063,8.224c-2.71,1.997 -6.341,2.995 -10.896,2.995l-18.316,0Zm4.594,-22.79l12.191,0c2.866,0 5.163,-0.646 6.891,-1.939c1.727,-1.292 2.591,-3.132 2.591,-5.521c0,-2.075 -0.805,-3.701 -2.415,-4.875c-1.57,-1.214 -3.808,-1.821 -6.714,-1.821l-12.544,0l0,14.156Zm0,18.62l13.84,0c3.141,0 5.615,-0.646 7.421,-1.939c1.806,-1.331 2.709,-3.171 2.709,-5.521c0,-2.271 -0.942,-4.014 -2.827,-5.228c-1.845,-1.214 -4.555,-1.821 -8.128,-1.821l-13.015,0l0,14.509Zm37.909,4.17l0,-41.117l17.727,0c5.065,0 8.972,1.371 11.72,4.112c2.12,2.115 3.18,4.856 3.18,8.223c0,3.29 -1.02,5.953 -3.062,7.989c-2.042,2.036 -4.751,3.367 -8.128,3.994l12.663,16.799l-5.713,0l-11.956,-15.977l-11.778,0l0,15.977l-4.653,0l0,0Zm4.653,-20.147l12.662,0c3.141,0 5.693,-0.764 7.656,-2.291c1.963,-1.527 2.945,-3.622 2.945,-6.285c0,-2.545 -0.942,-4.523 -2.827,-5.932c-1.845,-1.449 -4.417,-2.174 -7.715,-2.174l-12.721,0l0,16.682Zm38.32,20.147l0,-41.117l4.652,0l0,41.117l-4.652,0l0,0Zm27.622,0l0,-36.829l-13.84,0l0,-4.288l32.392,0l0,4.288l-13.84,0l0,36.829l-4.712,0l0,0Zm27.706,0l0,-41.117l4.653,0l0,41.117l-4.653,0l0,0Zm30.862,0.588c-6.321,0 -11.936,-2.193 -16.844,-6.579l2.886,-3.407c2.199,1.997 4.397,3.466 6.596,4.405c2.238,0.94 4.751,1.41 7.539,1.41c2.748,0 4.966,-0.646 6.655,-1.938c1.688,-1.332 2.532,-3.055 2.532,-5.169c0,-1.997 -0.746,-3.583 -2.238,-4.758c-1.492,-1.175 -4.319,-2.193 -8.481,-3.054c-4.908,-1.058 -8.441,-2.487 -10.601,-4.288c-2.159,-1.802 -3.239,-4.367 -3.239,-7.695c0,-3.25 1.276,-5.933 3.828,-8.047c2.552,-2.115 5.791,-3.172 9.718,-3.172c5.457,0 10.287,1.684 14.488,5.051l-2.709,3.583c-3.652,-2.976 -7.617,-4.464 -11.897,-4.464c-2.631,0 -4.751,0.646 -6.361,1.939c-1.609,1.253 -2.414,2.858 -2.414,4.816c0,2.037 0.765,3.642 2.297,4.817c1.57,1.175 4.535,2.232 8.893,3.172c4.672,1.018 8.068,2.447 10.188,4.288c2.16,1.801 3.24,4.288 3.24,7.459c0,3.486 -1.316,6.305 -3.946,8.459c-2.631,2.114 -6.008,3.172 -10.13,3.172l0,0Zm23.537,-0.588l0,-41.117l4.653,0l0,18.268l23.793,0l0,-18.268l4.653,0l0,41.117l-4.653,0l0,-18.502l-23.793,0l0,18.502l-4.653,0l0,0Zm-195.203,51.746l0,-41.117l15.43,0c4.712,0 8.461,1.175 11.249,3.524c2.788,2.35 4.182,5.561 4.182,9.633c0,4.269 -1.551,7.578 -4.653,9.927c-3.063,2.35 -6.91,3.525 -11.543,3.525l-10.012,0l0,14.508l-4.653,0Zm4.653,-18.738l10.188,0c3.416,0 6.145,-0.822 8.187,-2.467c2.081,-1.683 3.121,-3.916 3.121,-6.696c0,-2.858 -1.001,-5.051 -3.004,-6.578c-1.963,-1.567 -4.652,-2.35 -8.068,-2.35l-10.424,0l0,18.091Zm34.687,18.738l0,-41.117l29.8,0l0,4.229l-25.148,0l0,14.039l22.498,0l0,4.229l-22.498,0l0,14.391l25.443,0l0,4.229l-30.095,0Zm35.921,0l18.787,-41.411l4.358,0l18.788,41.411l-5.006,0l-4.83,-10.867l-22.439,0l-4.888,10.867l-4.77,0Zm11.484,-15.037l18.787,0l-9.364,-20.97l-9.423,20.97Zm38.578,15.037l0,-41.117l17.728,0c5.064,0 8.971,1.371 11.72,4.112c2.12,2.114 3.18,4.855 3.18,8.223c0,3.289 -1.021,5.952 -3.063,7.989c-2.041,2.036 -4.751,3.367 -8.127,3.994l12.662,16.799l-5.713,0l-11.955,-15.977l-11.779,0l0,15.977l-4.653,0Zm4.653,-20.147l12.662,0c3.141,0 5.693,-0.764 7.657,-2.291c1.963,-1.527 2.944,-3.622 2.944,-6.285c0,-2.545 -0.942,-4.523 -2.827,-5.933c-1.845,-1.449 -4.417,-2.173 -7.715,-2.173l-12.721,0l0,16.682Zm37.908,20.147l0,-41.117l4.652,0l0,36.829l23.205,0l0,4.288l-27.857,0l0,0Z" style="fill:rgb(61,57,53);fill-rule:nonzero;"/>        </g>        <g transform="matrix(2.94352,0,0,2.94352,-1.73906,0)">            <path d="M106.171,52.5c0,28.995 -23.567,52.5 -52.638,52.5c-29.071,0 -52.638,-23.505 -52.638,-52.5c0,-28.995 23.567,-52.5 52.638,-52.5c29.071,0 52.638,23.505 52.638,52.5Z" style="fill:rgb(233,196,163);fill-rule:nonzero;"/>            <path d="M91.002,38.755c0.722,-21.133 -15.15,-36.655 -36.794,-36.655c-21.644,0 -38.942,17.583 -38.238,36.655c0.704,19.071 38.238,64.145 38.238,64.145c0,0 36.073,-43.013 36.794,-64.146Z" style="fill:rgb(240,81,27);fill-rule:nonzero;"/>            <path d="M73.666,39.038c0,10.985 -9.044,19.89 -20.201,19.89c-11.156,0 -20.201,-8.905 -20.201,-19.89c0,-10.984 9.045,-19.889 20.201,-19.889c11.157,0 20.201,8.905 20.201,19.889Z" style="fill:white;fill-rule:nonzero;"/>        </g>    </g></svg>