<?xml version="1.0" encoding="UTF-8" standalone="no"?><!DOCTYPE svg PUBLIC "-//W3C//DTD SVG 1.1//EN" "http://www.w3.org/Graphics/SVG/1.1/DTD/svg11.dtd"><svg width="100%" height="100%" viewBox="0 0 1024 512" version="1.1" xmlns="http://www.w3.org/2000/svg" xmlns:xlink="http://www.w3.org/1999/xlink" xml:space="preserve" style="fill-rule:evenodd;clip-rule:evenodd;stroke-linejoin:round;stroke-miterlimit:2;"><title>CrowdingLab</title><desc>We are online crowdfunding platform implementing radical changes in real estate investment opportunities where property developers and entrepreneurs can borrow funds from broad international investor base and investors can invest in secured property loans across EU. The platform presents only thoroughly verified and analysed real estate projects. Moreover, CrowdingLab provides all information on the projects, their risks, guarantees, etc. to the investors. </desc>    <g transform="matrix(2.9912,0,0,2.9912,-196.939,-222.674)">        <g transform="matrix(8.45549,0,0,6.72326,-387.692,137.573)">            <g transform="matrix(7.45602,0,0,9.37704,56.6797,5.19488)">                <path d="M0.217,-0.288c-0.01,0 -0.015,0.005 -0.015,0.016c0,0.017 0.031,0.04 0.063,0.04c0.034,0 0.067,-0.022 0.098,-0.065c0.031,-0.044 0.047,-0.088 0.047,-0.133c0,-0.063 -0.043,-0.11 -0.119,-0.11c-0.057,0 -0.109,0.019 -0.155,0.056c-0.045,0.037 -0.079,0.082 -0.102,0.135c-0.023,0.053 -0.034,0.108 -0.034,0.163c0,0.065 0.016,0.118 0.049,0.161c0.033,0.042 0.082,0.063 0.147,0.063c0.057,0 0.118,-0.04 0.165,-0.099c0.048,-0.059 0.078,-0.109 0.105,-0.162c0.003,-0.006 0,-0.011 -0.008,-0.016c-0.009,-0.005 -0.014,-0.005 -0.017,0.001c-0.021,0.043 -0.073,0.114 -0.154,0.178c-0.041,0.031 -0.078,0.047 -0.111,0.047c-0.083,0 -0.105,-0.035 -0.105,-0.116c0,-0.09 0.025,-0.173 0.076,-0.249c0.051,-0.076 0.112,-0.114 0.183,-0.114c0.023,0 0.035,0.011 0.035,0.033c0,0.031 -0.017,0.067 -0.051,0.109c-0.034,0.041 -0.066,0.062 -0.097,0.062Z" style="fill:rgb(0,131,63);fill-rule:nonzero;"/>            </g>            <g transform="matrix(7.45602,0,0,9.37704,59.9231,5.19488)">                <path d="M0.091,-0.363c0.013,-0.031 0.02,-0.052 0.02,-0.063c0,-0.013 -0.027,-0.027 -0.05,-0.027c-0.012,0 -0.02,0.003 -0.023,0.01c-0.004,0.006 -0.009,0.018 -0.015,0.036c-0.005,0.018 -0.008,0.03 -0.008,0.035c0,0.015 0.01,0.028 0.029,0.039c-0.007,0.028 -0.021,0.062 -0.04,0.101c-0.003,0.007 0,0.013 0.007,0.018c0.005,0.005 0.014,0.004 0.017,-0.001c0.021,-0.041 0.038,-0.079 0.051,-0.115c0.022,0 0.045,-0.001 0.068,-0.004c-0.019,0.039 -0.04,0.091 -0.061,0.156c-0.021,0.065 -0.032,0.111 -0.032,0.139c-0,0.007 0.001,0.012 0.002,0.015c0.006,0.018 0.047,0.037 0.072,0.037c0.049,0 0.112,-0.079 0.189,-0.238c0.003,-0.005 -0,-0.01 -0.008,-0.016c-0.008,-0.005 -0.014,-0.005 -0.017,0.001c-0.027,0.055 -0.056,0.104 -0.089,0.148c-0.032,0.043 -0.056,0.065 -0.072,0.065c0.001,-0.022 0.014,-0.07 0.04,-0.143c0.026,-0.073 0.046,-0.124 0.061,-0.153c0.002,-0.003 0.003,-0.007 0.003,-0.01c-0,-0.021 -0.029,-0.047 -0.06,-0.047c-0.008,0 -0.023,0.003 -0.045,0.009c-0.021,0.005 -0.034,0.008 -0.039,0.008Z" style="fill:rgb(0,131,63);fill-rule:nonzero;"/>            </g>            <g transform="matrix(7.45602,0,0,9.37704,62.0406,5.19488)">                <path d="M0.155,-0.376c-0.05,0 -0.093,0.027 -0.129,0.081c-0.035,0.053 -0.053,0.11 -0.053,0.17c0,0.081 0.041,0.14 0.122,0.14c0.028,-0 0.055,-0.015 0.082,-0.045c0.027,-0.031 0.049,-0.068 0.066,-0.112c0.011,0.003 0.018,0.004 0.023,0.004c0.033,-0 0.055,-0.023 0.086,-0.083c0.004,-0.007 0.002,-0.013 -0.007,-0.019c-0.007,-0.006 -0.013,-0.005 -0.018,0.003c-0.024,0.047 -0.033,0.057 -0.049,0.057c-0.009,-0 -0.016,-0.002 -0.022,-0.006c0.006,-0.023 0.009,-0.045 0.009,-0.068c0,-0.073 -0.035,-0.122 -0.11,-0.122Zm0.038,0.046c0.015,0 0.026,0.007 0.033,0.02c-0.025,0.018 -0.037,0.045 -0.037,0.082c-0,0.028 0.008,0.051 0.025,0.068c-0.028,0.08 -0.075,0.145 -0.119,0.145c-0.027,-0 -0.04,-0.021 -0.04,-0.064c-0.004,-0.087 0.074,-0.256 0.138,-0.251Z" style="fill:rgb(0,131,63);fill-rule:nonzero;"/>            </g>            <g transform="matrix(7.45602,0,0,9.37704,64.4414,5.19488)">                <path d="M0.27,-0.332c-0.016,-0.011 -0.029,-0.017 -0.039,-0.017c-0.007,0 -0.013,0.003 -0.018,0.01c-0.004,0.008 -0.014,0.042 -0.022,0.058c-0.005,0.008 -0.006,0.015 -0.011,0.023c-0.069,0.154 -0.113,0.231 -0.132,0.231c0.001,-0.028 0.01,-0.08 0.025,-0.155c0.015,-0.075 0.029,-0.124 0.041,-0.147c0.001,-0.001 0.001,-0.002 0.001,-0.005c-0,-0.008 -0.006,-0.016 -0.017,-0.025c-0.016,-0.011 -0.029,-0.017 -0.039,-0.017c-0.007,0 -0.013,0.003 -0.018,0.01c-0.013,0.026 -0.028,0.076 -0.045,0.151c-0.017,0.074 -0.026,0.129 -0.026,0.166c-0,0.011 0.001,0.019 0.003,0.025c0.003,0.009 0.013,0.017 0.029,0.025c0.016,0.008 0.03,0.012 0.043,0.012c0.029,-0 0.066,-0.05 0.113,-0.15c-0.005,0.035 -0.008,0.064 -0.008,0.085c-0,0.013 0.001,0.022 0.003,0.028c0.003,0.009 0.013,0.017 0.029,0.025c0.016,0.008 0.03,0.012 0.043,0.012c0.019,-0 0.045,-0.021 0.078,-0.064c0.034,-0.043 0.064,-0.093 0.091,-0.151c0.027,-0.059 0.041,-0.107 0.041,-0.146c0,-0.011 -0.001,-0.018 -0.002,-0.023c-0.004,-0.019 -0.029,-0.038 -0.045,-0.038c-0.007,-0 -0.011,0.004 -0.011,0.011l0.001,0.002l0,0.003c0.001,0.005 0.002,0.012 0.002,0.023c0,0.034 -0.011,0.079 -0.032,0.135c-0.021,0.056 -0.043,0.105 -0.068,0.146c-0.024,0.041 -0.041,0.062 -0.052,0.062c0.001,-0.029 0.008,-0.077 0.021,-0.143c0.013,-0.066 0.025,-0.11 0.037,-0.132c0.001,-0.001 0.001,-0.002 0.001,-0.005c0,-0.008 -0.006,-0.016 -0.017,-0.025Z" style="fill:rgb(0,131,63);fill-rule:nonzero;"/>            </g>            <g transform="matrix(7.45602,0,0,9.37704,67.819,5.19488)">                <path d="M0.365,-0.523c-0.016,-0.011 -0.029,-0.017 -0.04,-0.017c-0.009,0 -0.015,0.003 -0.017,0.01c-0.018,0.035 -0.046,0.105 -0.084,0.21c-0.018,-0.039 -0.05,-0.058 -0.095,-0.058c-0.027,0 -0.054,0.018 -0.081,0.054c-0.026,0.036 -0.046,0.077 -0.061,0.124c-0.015,0.046 -0.022,0.087 -0.022,0.122c0,0.017 0.002,0.03 0.006,0.04c0.004,0.011 0.017,0.023 0.038,0.034c0.021,0.011 0.043,0.017 0.065,0.017c0.015,0 0.04,-0.031 0.073,-0.093c-0.005,0.019 -0.007,0.034 -0.007,0.047c0,0.005 0,0.008 0.001,0.009c0.003,0.009 0.013,0.017 0.029,0.025c0.016,0.008 0.03,0.012 0.043,0.012c0.05,0 0.113,-0.079 0.189,-0.236c0.003,-0.005 0.001,-0.011 -0.008,-0.017c-0.008,-0.005 -0.014,-0.004 -0.017,0.001c-0.026,0.055 -0.055,0.104 -0.088,0.147c-0.033,0.043 -0.057,0.065 -0.073,0.065c0.001,-0.022 0.025,-0.098 0.072,-0.228c0.047,-0.131 0.078,-0.21 0.093,-0.238l0.001,-0.002l0,-0.003c0,-0.008 -0.006,-0.016 -0.017,-0.025Zm-0.182,0.296c-0.013,0.028 -0.024,0.051 -0.033,0.068l-0.031,0.058c-0.023,0.043 -0.039,0.064 -0.048,0.064c-0.008,0 -0.013,-0.004 -0.016,-0.011c-0.003,-0.009 -0.005,-0.018 -0.005,-0.029c0,-0.056 0.025,-0.14 0.069,-0.2c0.022,-0.03 0.045,-0.045 0.068,-0.045c0.009,0 0.017,0.013 0.024,0.039l-0.028,0.056Z" style="fill:rgb(0,131,63);fill-rule:nonzero;"/>            </g>            <g transform="matrix(7.45602,0,0,9.37704,70.5852,5.19488)">                <path d="M0.111,-0.358c-0.032,-0.023 -0.053,-0.02 -0.057,-0.007c-0.018,0.034 -0.041,0.09 -0.069,0.167c-0.028,0.077 -0.042,0.131 -0.042,0.16c0,0.005 0.001,0.01 0.002,0.014c0.003,0.009 0.013,0.017 0.029,0.025c0.016,0.008 0.03,0.012 0.043,0.012c0.049,-0 0.112,-0.079 0.189,-0.236c0.003,-0.006 0,-0.012 -0.008,-0.017c-0.005,-0.004 -0.016,-0.003 -0.017,0.002c-0.026,0.054 -0.055,0.103 -0.088,0.146c-0.033,0.043 -0.057,0.065 -0.073,0.065c0.001,-0.022 0.015,-0.07 0.042,-0.145c0.028,-0.075 0.05,-0.127 0.065,-0.156l0.001,-0.002l0,-0.003c0,-0.008 -0.006,-0.016 -0.017,-0.025Zm0.07,-0.146c-0.015,-0.013 -0.03,-0.022 -0.04,-0.023c-0.007,0 -0.021,0.002 -0.027,0.008c-0.017,0.021 -0.018,0.049 -0.016,0.064c0.002,0.018 0.024,0.034 0.043,0.036c0.009,0.001 0.014,-0.001 0.018,-0.007c0.006,-0.009 0.009,-0.014 0.034,-0.046c0.001,-0.001 0.002,-0.002 0.002,-0.005c0.001,-0.008 -0.004,-0.017 -0.014,-0.027Z" style="fill:rgb(0,131,63);fill-rule:nonzero;"/>            </g>            <g transform="matrix(7.45602,0,0,9.37704,71.89,5.19488)">                <path d="M0.075,-0.376c-0.011,0 -0.018,0.003 -0.02,0.008c-0.027,0.055 -0.051,0.116 -0.073,0.181c-0.023,0.065 -0.034,0.114 -0.034,0.145c0,0.023 0.023,0.042 0.051,0.051l0.002,0.001l0.003,0c0.013,0 0.02,-0.007 0.02,-0.021c0.007,-0.034 0.031,-0.088 0.071,-0.163c0.04,-0.075 0.078,-0.127 0.115,-0.156c-0.021,0.047 -0.043,0.101 -0.064,0.162c-0.021,0.061 -0.031,0.105 -0.031,0.13c-0,0.005 0.001,0.01 0.002,0.014c0.003,0.009 0.013,0.017 0.029,0.025c0.016,0.008 0.03,0.012 0.043,0.012c0.05,0 0.113,-0.078 0.189,-0.235c0.003,-0.005 0.001,-0.011 -0.007,-0.018c-0.008,-0.005 -0.014,-0.004 -0.017,0.001c-0.026,0.054 -0.056,0.103 -0.089,0.147c-0.033,0.043 -0.057,0.065 -0.073,0.065c0.001,-0.022 0.015,-0.07 0.042,-0.145c0.028,-0.075 0.05,-0.127 0.065,-0.156c0.001,-0.001 0.001,-0.002 0.001,-0.005c-0,-0.008 -0.006,-0.016 -0.017,-0.025c-0.015,-0.011 -0.028,-0.017 -0.039,-0.017c-0.052,0 -0.114,0.071 -0.167,0.167c0.012,-0.034 0.029,-0.075 0.051,-0.123c0.001,-0.001 0.001,-0.003 0.001,-0.006c0,-0.011 -0.007,-0.02 -0.022,-0.027c-0.014,-0.008 -0.025,-0.012 -0.032,-0.012Z" style="fill:rgb(0,131,63);fill-rule:nonzero;"/>            </g>            <g transform="matrix(7.45602,0,0,9.37704,74.4847,5.19488)">                <path d="M0.072,0.107c-0.022,0.062 -0.044,0.093 -0.066,0.093c-0.011,0 -0.016,-0.005 -0.016,-0.015c-0,-0.024 0.015,-0.042 0.082,-0.078Zm0.106,-0.054c0.059,-0.031 0.108,-0.073 0.147,-0.127c0.019,-0.025 0.047,-0.075 0.084,-0.149c0.003,-0.005 0.001,-0.011 -0.008,-0.017c-0.008,-0.005 -0.014,-0.004 -0.017,0.001c-0.016,0.032 -0.028,0.056 -0.037,0.071c-0.008,0.015 -0.02,0.035 -0.037,0.062c-0.033,0.052 -0.069,0.085 -0.112,0.106c0.009,-0.023 0.022,-0.061 0.04,-0.114c0.019,-0.053 0.035,-0.101 0.049,-0.142c0.015,-0.042 0.024,-0.066 0.028,-0.073c0.001,-0.001 0.001,-0.002 0.001,-0.005c-0,-0.008 -0.006,-0.016 -0.017,-0.025c-0.016,-0.011 -0.029,-0.017 -0.039,-0.017c-0.007,0 -0.013,0.003 -0.018,0.01c-0.004,0.007 -0.011,0.023 -0.02,0.048c-0.017,-0.04 -0.049,-0.06 -0.096,-0.06c-0.027,0 -0.054,0.018 -0.081,0.054c-0.026,0.036 -0.046,0.077 -0.061,0.124c-0.015,0.046 -0.022,0.087 -0.022,0.122c-0,0.017 0.002,0.03 0.006,0.04c0.004,0.011 0.017,0.023 0.038,0.034c0.021,0.011 0.043,0.017 0.065,0.017c0.013,0 0.033,-0.022 0.058,-0.065l-0.038,0.107c-0.096,0.051 -0.137,0.092 -0.137,0.135c-0,0.032 0.03,0.06 0.067,0.06c0.037,-0.001 0.067,-0.018 0.091,-0.051c0.015,-0.021 0.037,-0.07 0.066,-0.146Zm0.026,-0.33c-0.005,0.009 -0.014,0.028 -0.027,0.056c-0.013,0.027 -0.023,0.049 -0.032,0.066l-0.03,0.056c-0.021,0.041 -0.038,0.062 -0.047,0.062c-0.007,0 -0.013,-0.004 -0.016,-0.011c-0.003,-0.007 -0.004,-0.018 -0.004,-0.031c-0,-0.046 0.014,-0.097 0.041,-0.153c0.027,-0.056 0.058,-0.084 0.092,-0.084c0.008,0 0.019,0.02 0.023,0.039Z" style="fill:rgb(0,131,63);fill-rule:nonzero;"/>            </g>        </g>        <g transform="matrix(1,0,0,1,60.508,77.1049)">            <g transform="matrix(1,0,0,1,-60.508,-77.1049)">                <path d="M292.354,137.25c-14.667,21.397 -22.663,43.808 -23.048,60.832c-0.264,11.651 3.048,20.814 10.056,25.617c7.008,4.804 16.748,4.589 27.52,0.14c15.739,-6.5 33.758,-22.041 48.424,-43.439c14.667,-21.397 22.663,-43.808 23.049,-60.832c0.264,-11.652 -3.049,-20.814 -10.057,-25.617c-7.008,-4.804 -16.748,-4.589 -27.519,-0.14c-15.739,6.5 -33.758,22.041 -48.425,43.439l0,-0Zm1.65,1.13c14.41,-21.022 32.075,-36.334 47.538,-42.721c10.03,-4.142 19.1,-4.532 25.626,-0.059c6.525,4.473 9.433,13.073 9.187,23.922c-0.378,16.726 -8.288,38.725 -22.698,59.748c-14.41,21.022 -32.075,36.334 -47.539,42.72c-10.03,4.143 -19.1,4.533 -25.625,0.06c-6.526,-4.473 -9.434,-13.073 -9.188,-23.922c0.379,-16.726 8.289,-38.725 22.699,-59.748l-0,0Z" style="fill:rgb(0,211,101);"/>            </g>            <g transform="matrix(-2.14086,-9.02988e-17,3.65144e-16,-1.65176,388.073,246.996)">                <path d="M100,69.395c-30.237,-0 -56.489,6.634 -69.52,16.298c-5.754,4.266 -8.947,9.173 -8.947,14.307c-0,5.134 3.193,10.041 8.947,14.307c13.031,9.664 39.283,16.298 69.52,16.298c30.237,0 56.489,-6.634 69.52,-16.298c5.754,-4.266 8.947,-9.173 8.947,-14.307c0,-5.134 -3.193,-10.041 -8.947,-14.307c-13.031,-9.664 -39.283,-16.298 -69.52,-16.298Zm0,1.21c30.032,0 56.113,6.54 69.056,16.139c5.379,3.988 8.477,8.456 8.477,13.256c-0,4.8 -3.098,9.268 -8.477,13.256c-12.943,9.599 -39.024,16.139 -69.056,16.139c-30.032,-0 -56.113,-6.54 -69.056,-16.139c-5.379,-3.988 -8.477,-8.456 -8.477,-13.256c0,-4.8 3.098,-9.268 8.477,-13.256c12.943,-9.599 39.024,-16.139 69.056,-16.139Z" style="fill:rgb(0,211,101);"/>            </g>            <g transform="matrix(1,0,0,1,-60.508,-77.1049)">                <path d="M355.14,137.008c-14.831,-21.284 -32.968,-36.686 -48.757,-43.065c-10.806,-4.366 -20.547,-4.506 -27.518,0.351c-6.971,4.857 -10.213,14.045 -9.859,25.694c0.516,17.02 8.684,39.369 23.515,60.653c14.83,21.284 32.968,36.687 48.756,43.066c10.806,4.366 20.547,4.506 27.518,-0.351c6.971,-4.857 10.213,-14.045 9.86,-25.694c-0.517,-17.02 -8.685,-39.37 -23.515,-60.654l-0,0Zm-1.641,1.144c14.571,20.911 22.649,42.848 23.157,59.571c0.329,10.847 -2.513,19.469 -9.004,23.992c-6.491,4.523 -15.564,4.203 -25.625,0.137c-15.512,-6.267 -33.294,-21.443 -47.865,-42.354c-14.571,-20.911 -22.65,-42.848 -23.157,-59.571c-0.329,-10.847 2.512,-19.469 9.003,-23.992c6.491,-4.523 15.564,-4.203 25.626,-0.138c15.512,6.268 33.294,21.444 47.865,42.355l-0,-0Z" style="fill:rgb(0,211,101);"/>            </g>            <g transform="matrix(0.953846,0,0,0.953846,71.4664,-3.94)">                <circle cx="154.912" cy="25.4" r="9.9" style="fill:rgb(0,211,101);"/>            </g>            <g transform="matrix(0.953846,0,0,0.953846,189.795,58.2723)">                <circle cx="154.912" cy="25.4" r="9.9" style="fill:rgb(0,211,101);"/>            </g>            <g transform="matrix(0.953846,0,0,0.953846,70.7069,121.329)">                <circle cx="154.912" cy="25.4" r="9.9" style="fill:rgb(0,211,101);"/>            </g>        </g>        <g transform="matrix(1,0,0,1,60.508,77.1049)">            <path d="M272.631,61.253c0,-0.355 -0.14,-0.695 -0.391,-0.946c-0.251,-0.25 -0.591,-0.391 -0.946,-0.391c-2.884,-0 -9.661,-0 -12.537,-0c-0.734,-0 -1.329,0.594 -1.329,1.328c0,7.27 0,41.907 0,41.907l4.056,-0l0,-9.703l7.092,0l-0,9.703l4.055,-0l0,-41.898Zm-4.055,4.12c-0,-0.282 -0.23,-0.512 -0.512,-0.512c-1.316,0 -4.803,0 -6.092,0c-0.269,0 -0.488,0.219 -0.488,0.488c0,3.329 0,22.571 0,22.571l7.092,0l-0,-22.547Z" style="fill:rgb(0,131,63);"/>            <path d="M289.769,73.409l-0,-11.994c-0,-0.738 -0.599,-1.337 -1.337,-1.337c-3.685,0 -13.713,0 -13.713,0l-0,43.073l17.524,-0l-0,-27.104c-0,-0.403 -0.183,-0.786 -0.497,-1.039c-0.722,-0.584 -1.977,-1.599 -1.977,-1.599Zm-9.995,10.302l0,15.384l8.413,-0l-0,-21.656c-0,-0.197 -0.115,-0.376 -0.295,-0.457c-0.179,-0.081 -0.389,-0.05 -0.537,0.08c-2.125,1.863 -7.581,6.649 -7.581,6.649Zm5.939,-13.242l0,-6.335l-5.939,-0l0,12.274l5.939,-5.939Z" style="fill:rgb(0,131,63);"/>            <path d="M244.777,99.095l0,-39.017l-4.056,0l0,43.073l14.196,-0l-0,-4.056l-10.14,-0Z" style="fill:rgb(0,131,63);"/>        </g>    </g></svg>