<svg viewBox="0 0 512 512" xmlns="http://www.w3.org/2000/svg" fill-rule="evenodd" clip-rule="evenodd" stroke-linejoin="round" stroke-miterlimit="2"><path fill="#f5f5f5" d="M0 0h512v512.001H0z"/><path d="M271.682 160.032c20.898 1.213 50.411-12.173 61.082-14.595 10.671-2.421 26.303-2.487 41.311-9.656 19.509-9.319 21.239-18.287 31.513-22.105 7.861-2.921 17.929-4.525 72.615-28.262 7.275-3.158 8.31 6.987 4.246 13.886-4.063 6.9-20.043 10.112-27.205 16.572-7.162 6.46-2.596 5.17-17.999 16.045-15.402 10.876-32.427 16.046-40.528 26.431-8.101 10.385-4.175 16.109-19.521 16.59-11.035.346-11.207 7.302-15.813 14.674-7.662 12.262 32.833 43.74 32.092 49.932-.742 6.191 1.714 13.676-5.911 10.095-15.769-7.406-22.641-5.921-33.939 1.821-8.488 5.817-9.285-2.143-15.742-4.209-13.067-4.181-23.324.757-24.093 8.749-1.934 20.095-6.715 21.227-20.616 24.701-18.152 4.536-34.681 23.321-65.255 21.187-9.263-.646-24.474 1.145-26.141 8.166-2.986 12.573 11.249 22.461 0 21.851-6.852-.371-23.319 3.347-25.544-4.017-2.226-7.365-2.36-19.46-14.829-17.708-12.469 1.753-16.324 8.482-25.5 4.657-15.083-6.287-56.736-15.132-56.591-25.957.232-17.294-22.17-28.829-17.376-39.241 2.161-4.694-3.024-10.644-6.947-22.682-1.921-5.894-1.654-23.046 7.121-16.492 8.776 6.553 19.731 18.339 30.323 8.006 10.592-10.333 8.871-24.246 32.253-26.866 10.278-1.152 30.9 12.13 38.001 9.624 7.101-2.506 11.228-7.553 13.167-21.646 1.94-14.093-10.3-29.534-.079-33.746 7.059-2.909.323 8.643 95.905 14.195z" fill="#d57800"/><path d="M254.484 434.786a.865.865 0 01-.297-.21l-.107-.1a18.433 18.433 0 01-1.355-1.408c-1.14-1.295-2.671-3.192-4.017-4.868-2.667-3.326-4.872-6.19-5.287-6.73l-.68-.884-6.651-2.051-4.857-2.265 2.595-2.917 8.914 3.817 6.652 1.365 12.3 9.047-.009.008c-.025.02-1.789 1.488-3.542 3.083-.782.71-1.768 1.627-2.464 2.383a9.454 9.454 0 00-.797.977c-.146.243-.279.495-.398.753m-45.682-13.72a33.94 33.94 0 01-17.039-4.767h-.006v-.007a8.77 8.77 0 012.465-2.655c1.663-1.22 4.661-2.679 9.507-2.698h.1c5.738 0 12.76 1.951 20.874 5.8a30.85 30.85 0 01-15.9 4.327l.008.009-.009-.009zm-25.153-5.575a3.632 3.632 0 01-2.715-1.142 5.515 5.515 0 01-1.216-2.465 12.551 12.551 0 01-.3-3.612 3.713 3.713 0 011.337-.303h.096c2.15 0 3.845 1.865 4.571 3.714.396.818.48 1.752.235 2.627a2.07 2.07 0 01-2.004 1.173l-.004.008zm44.26-5.13c-14.867-2.123-21.168-7.498-23.837-11.633a13.45 13.45 0 01-2.256-8.53v-.012h.011a9.887 9.887 0 012.277-.25c3.955 0 14.07 1.989 23.809 20.418l.006.012-.018-.008.008.003zm-30.472-2.946c-6.351 0-11.186-1.096-14.372-3.254a8.824 8.824 0 01-3.157-3.533 5.78 5.78 0 01-.509-1.733 19.444 19.444 0 016.65-1.413c.328-.015.659-.025 1.006-.026 4.909 0 12.374 1.602 20.251 9.233l.008.007h-.01a77.108 77.108 0 01-9.874.72l.007-.001zm-30.754-1.182c-6.697 0-15.898-2.045-21.636-7.782l-.006-.007h.017a67.219 67.219 0 0113.294-1.766c.418-.01.84-.016 1.264-.016 6.279 0 11.085 1.217 14.287 3.618a4.232 4.232 0 011.865 2.383 1.953 1.953 0 01-.904 1.842c-1.442 1.088-4.019 1.669-7.661 1.727l-.514.017-.006-.016zM144.98 395.1a2.745 2.745 0 01-2.123-.999 5.027 5.027 0 01-.95-2.16 12.245 12.245 0 01-.248-3.146v-.016c.327-.15.682-.231 1.042-.235a3.24 3.24 0 012.217.991 5.957 5.957 0 011.446 2.266c.303.713.358 1.508.154 2.256a1.64 1.64 0 01-1.541 1.037l.003.006zm50.127-1.13a3.632 3.632 0 01-2.715-1.142 5.523 5.523 0 01-1.218-2.464 12.551 12.551 0 01-.3-3.612 3.713 3.713 0 011.337-.303h.096c2.15 0 3.846 1.865 4.572 3.714.395.818.48 1.752.234 2.627a2.067 2.067 0 01-2.004 1.173l-.002.007zm-24.417-1.01c-13.478-.475-20.469-4.306-23.966-7.437a15.673 15.673 0 01-3.632-4.665 9.976 9.976 0 01-.777-2.088l.018-.008c1.079-.327 2.2-.494 3.327-.496h.315c4.545 0 13.798 1.91 24.71 14.69v.01l.005-.007zm14.636-1.362c-10.843-1.652-16.986-6.306-20.23-9.922a20.706 20.706 0 01-4.465-7.484 15.948 15.948 0 013.34-.401c.145 0 .296-.006.45-.006.152 0 .312 0 .473.006 5.453.119 15.359 2.589 20.43 17.8h.008l-.006.007zm-55.668-5.207c-3.451.01-6.891-.401-10.243-1.227-5.677-1.42-8.113-3.587-9.156-5.156a5.41 5.41 0 01-.883-2.17 3.667 3.667 0 01-.026-.92l.026-.009a38.744 38.744 0 018.962-1.137c.205 0 .411-.005.621-.005 2.462-.005 4.92.233 7.334.71a23.248 23.248 0 0113.749 8.685v.007h-.011a42.51 42.51 0 01-10.38 1.216l.007.006zm25.17-9.147a3.634 3.634 0 01-2.716-1.113 5.558 5.558 0 01-1.216-2.491 12.332 12.332 0 01-.3-3.584 3.713 3.713 0 011.337-.303h.096c2.146 0 3.844 1.866 4.573 3.715a3.64 3.64 0 01.208 2.598 2.018 2.018 0 01-1.979 1.182l-.002-.004zm-18.926-2.595a41.301 41.301 0 01-10.25-4.475c-4.747-2.923-10.556-8.093-11.264-16.127h.012c.36-.077.726-.12 1.095-.131.085 0 .186-.006.286-.006 1.418 0 4.321.4 7.834 3.07 4.47 3.408 8.598 9.352 12.29 17.685l-.003-.016zm12.358-.454a33.424 33.424 0 01-8.11-5.21 52.036 52.036 0 01-14.316-19.981 6.593 6.593 0 013.13-.615c2.066.058 5.21.916 8.697 4.679 4.005 4.322 7.58 11.424 10.62 21.112l.008.027-.026-.009-.003-.003zm-32.022-.934c-4.129 0-5.542-2.24-5.958-3.203a6.666 6.666 0 01-.475-3.174v-.017a9.091 9.091 0 012.056-.27h.141a8.494 8.494 0 016.924 3.29c.218.325.888 1.45.334 2.33-.446.694-1.456 1.045-3.024 1.045h.002zm-9.147-11.536a54.738 54.738 0 01-9.541-.816c-3.678-.669-5.762-3.796-6.863-6.3a21.882 21.882 0 01-1.541-5.356h.01c11.375.334 16.748 3.658 19.25 6.387a10.032 10.032 0 012.747 5.928h-.008c-.017 0-1.619.154-4.06.154l.006.003zm11.845-11.836a46.134 46.134 0 01-2.598-3.621c-1.347-2.094-2.593-4.283-2.593-6.067 0-1.727-.406-5.367-.648-7.382-.307-2.556-.617-4.745-.643-4.93h.012c.288.105 7.115 2.667 7.115 9.07 0 6.404-.632 12.859-.638 12.923v.01h-.009l.002-.003zm-8.847-.608a1.38 1.38 0 01-.214-.018c-2.018-.337-5.567-1.88-9.483-4.127-4.353-2.495-7.887-5.17-9.952-7.529-1.884-2.15-2.998-5.53-3.323-10.042a37.336 37.336 0 01.074-6.135 3.542 3.542 0 011.127-.171c1.51.025 3.123.705 5.3 2.204a42.619 42.619 0 015.558 4.723 85.115 85.115 0 016.167 6.826l.027.035c.227.406 2.173 3.914 3.689 7.329a23.598 23.598 0 011.733 4.921 2.658 2.658 0 010 1.525.772.772 0 01-.33.384.936.936 0 01-.376.077l.003-.002z" fill="#4e5b31" fill-rule="nonzero"/><path d="M232.046 434.786a.865.865 0 00.297-.21l.107-.1c.476-.445.928-.915 1.355-1.408 1.14-1.295 2.671-3.192 4.017-4.868 2.667-3.326 4.872-6.19 5.287-6.73l.68-.884 6.651-2.051 4.857-2.265-2.595-2.917-8.914 3.817-6.652 1.365-12.3 9.047.009.008c.025.02 1.789 1.488 3.542 3.083.782.71 1.768 1.627 2.464 2.383.287.308.553.634.797.977.146.243.279.495.398.753m45.682-13.72a33.94 33.94 0 0017.039-4.767h.006v-.007a8.77 8.77 0 00-2.465-2.655c-1.663-1.22-4.661-2.679-9.507-2.698h-.1c-5.738 0-12.76 1.951-20.874 5.8a30.85 30.85 0 0015.9 4.327l-.008.009.009-.009zm25.153-5.575a3.632 3.632 0 002.715-1.142 5.515 5.515 0 001.216-2.465c.274-1.183.376-2.4.3-3.612a3.713 3.713 0 00-1.337-.303h-.096c-2.15 0-3.845 1.865-4.571 3.714a3.725 3.725 0 00-.235 2.627 2.07 2.07 0 002.004 1.173l.004.008zm-44.26-5.13c14.867-2.123 21.168-7.498 23.837-11.633a13.45 13.45 0 002.256-8.53v-.012h-.011a9.887 9.887 0 00-2.277-.25c-3.955 0-14.07 1.989-23.809 20.418l-.006.012.018-.008-.008.003zm30.472-2.946c6.351 0 11.186-1.096 14.372-3.254a8.824 8.824 0 003.157-3.533 5.78 5.78 0 00.509-1.733 19.444 19.444 0 00-6.65-1.413 22.425 22.425 0 00-1.006-.026c-4.909 0-12.374 1.602-20.251 9.233l-.008.007h.01c3.272.452 6.571.692 9.874.72l-.007-.001zm30.754-1.182c6.697 0 15.898-2.045 21.636-7.782l.006-.007h-.017a67.219 67.219 0 00-13.294-1.766c-.418-.01-.84-.016-1.264-.016-6.279 0-11.085 1.217-14.287 3.618a4.232 4.232 0 00-1.865 2.383c-.071.736.28 1.449.904 1.842 1.442 1.088 4.019 1.669 7.661 1.727l.514.017.006-.016zM341.55 395.1c.821.002 1.6-.365 2.123-.999a5.027 5.027 0 00.95-2.16c.217-1.034.301-2.091.248-3.146v-.016a2.565 2.565 0 00-1.042-.235 3.24 3.24 0 00-2.217.991 5.957 5.957 0 00-1.446 2.266 3.451 3.451 0 00-.154 2.256 1.64 1.64 0 001.541 1.037l-.003.006zm-50.127-1.13a3.632 3.632 0 002.715-1.142 5.523 5.523 0 001.218-2.464c.274-1.183.376-2.4.3-3.612a3.713 3.713 0 00-1.337-.303h-.096c-2.15 0-3.846 1.865-4.572 3.714a3.725 3.725 0 00-.234 2.627 2.067 2.067 0 002.004 1.173l.002.007zm24.417-1.01c13.478-.475 20.469-4.306 23.966-7.437a15.673 15.673 0 003.632-4.665 9.976 9.976 0 00.777-2.088l-.018-.008c-1.079-.327-2.2-.494-3.327-.496h-.315c-4.545 0-13.798 1.91-24.71 14.69v.01l-.005-.007zm-14.636-1.362c10.843-1.652 16.986-6.306 20.23-9.922a20.706 20.706 0 004.465-7.484 15.948 15.948 0 00-3.34-.401c-.145 0-.296-.006-.45-.006-.152 0-.312 0-.473.006-5.453.119-15.359 2.589-20.43 17.8h-.008l.006.007zm55.668-5.207c3.451.01 6.891-.401 10.243-1.227 5.677-1.42 8.113-3.587 9.156-5.156.45-.65.75-1.391.883-2.17.047-.305.056-.613.026-.92l-.026-.009a38.744 38.744 0 00-8.962-1.137c-.205 0-.411-.005-.621-.005a37.517 37.517 0 00-7.334.71 23.248 23.248 0 00-13.749 8.685v.007h.011a42.51 42.51 0 0010.38 1.216l-.007.006zm-25.17-9.147a3.634 3.634 0 002.716-1.113 5.558 5.558 0 001.216-2.491c.275-1.173.376-2.38.3-3.584a3.713 3.713 0 00-1.337-.303h-.096c-2.146 0-3.844 1.866-4.573 3.715a3.64 3.64 0 00-.208 2.598 2.018 2.018 0 001.979 1.182l.002-.004zm18.926-2.595a41.301 41.301 0 0010.25-4.475c4.747-2.923 10.556-8.093 11.264-16.127h-.012a6.114 6.114 0 00-1.095-.131c-.085 0-.186-.006-.286-.006-1.418 0-4.321.4-7.834 3.07-4.47 3.408-8.598 9.352-12.29 17.685l.003-.016zm-12.358-.454a33.424 33.424 0 008.11-5.21 52.036 52.036 0 0014.316-19.981 6.593 6.593 0 00-2.734-.623c-.129 0-.261 0-.397.008-2.065.058-5.21.916-8.696 4.679-4.005 4.322-7.58 11.424-10.62 21.112l-.008.027.026-.009.003-.003zm32.022-.934c4.129 0 5.542-2.24 5.958-3.203a6.666 6.666 0 00.475-3.174v-.017a9.091 9.091 0 00-2.056-.27h-.141a8.494 8.494 0 00-6.924 3.29c-.218.325-.888 1.45-.334 2.33.446.694 1.456 1.045 3.024 1.045h-.002zm9.147-11.536c3.197.007 6.39-.266 9.541-.816 3.678-.669 5.762-3.796 6.863-6.3a21.882 21.882 0 001.541-5.356h-.01c-11.375.334-16.748 3.658-19.25 6.387a10.032 10.032 0 00-2.747 5.928h.008c.017 0 1.619.154 4.06.154l-.006.003zm-11.845-11.836a46.134 46.134 0 002.598-3.621c1.347-2.094 2.593-4.283 2.593-6.067 0-1.727.406-5.367.648-7.382.307-2.556.617-4.745.643-4.93h-.012c-.288.105-7.115 2.667-7.115 9.07 0 6.404.632 12.859.638 12.923v.01h.009l-.002-.003zm8.847-.608c.072 0 .143-.007.214-.018 2.018-.337 5.567-1.88 9.483-4.127 4.353-2.495 7.887-5.17 9.952-7.529 1.884-2.15 2.998-5.53 3.323-10.042a37.336 37.336 0 00-.074-6.135 3.542 3.542 0 00-1.127-.171c-1.51.025-3.123.705-5.3 2.204a42.619 42.619 0 00-5.558 4.723 85.115 85.115 0 00-6.167 6.826l-.027.035c-.227.406-2.173 3.914-3.689 7.329a23.598 23.598 0 00-1.733 4.921 2.658 2.658 0 000 1.525c.063.161.18.297.33.384a.936.936 0 00.376.077l-.003-.002z" fill="#4e5b31" fill-rule="nonzero"/></svg>