<?xml version="1.0" encoding="UTF-8" standalone="no"?>
<!DOCTYPE svg PUBLIC "-//W3C//DTD SVG 1.1//EN" "http://www.w3.org/Graphics/SVG/1.1/DTD/svg11.dtd">
<svg width="100%" height="100%" viewBox="0 0 1024 1024" version="1.1" xmlns="http://www.w3.org/2000/svg" xmlns:xlink="http://www.w3.org/1999/xlink" xml:space="preserve" xmlns:serif="http://www.serif.com/" style="fill-rule:evenodd;clip-rule:evenodd;stroke-linejoin:round;stroke-miterlimit:2;">
    <g id="accounts" transform="matrix(0.969227,0,0,0.969227,33.6637,87.6935)">
        <g transform="matrix(1.01895,0,0,1.01867,-18.8837,-52.9176)">
            <path d="M-15.554,243.982c-0,-11.566 22.421,-95.494 124.157,-118.414c0.232,-0.052 0.467,-0.087 0.702,-0.127c-0,0 609.527,-104.033 608.826,-103.906c9.425,-1.797 18.999,-2.701 28.595,-2.701c83.779,0 152.725,68.925 152.752,152.703l-0,32.414l81.801,0c22.093,0 40.03,17.938 40.03,40.031c0,0 0,660.555 0,660.555c0,22.094 -17.937,40.031 -40.03,40.031l-956.802,0c-22.094,0 -40.031,-17.937 -40.031,-40.031c-0,0 -0,-660.555 -0,-660.555Zm74.062,34.031l-0,592.493l888.74,0l-0,-592.493l-888.74,-0Zm766.908,-74.062l0,-32.39c-0.014,-43.159 -35.531,-78.665 -78.69,-78.665c-4.943,0 -9.875,0.466 -14.731,1.391c-0.234,0.045 -0.468,0.087 -0.702,0.127c-0,-0 -609.528,104.033 -608.826,103.907c-6.221,1.185 -12.159,3.095 -17.732,5.63l720.681,0Z"/>
        </g>
        <g transform="matrix(37.6589,0,0,37.6589,-108.503,-146.192)">
            <path d="M23,20c-1.097,0 -2,-0.903 -2,-2c0,-1.097 0.903,-2 2,-2c1.097,0 2,0.903 2,2c0,1.097 -0.903,2 -2,2Z" style="fill-rule:nonzero;"/>
        </g>
    </g>
</svg>
