<?xml version="1.0" encoding="UTF-8" standalone="no"?>
<!DOCTYPE svg PUBLIC "-//W3C//DTD SVG 1.1//EN" "http://www.w3.org/Graphics/SVG/1.1/DTD/svg11.dtd">
<svg width="100%" height="100%" viewBox="0 0 1024 1024" version="1.1" xmlns="http://www.w3.org/2000/svg" xmlns:xlink="http://www.w3.org/1999/xlink" xml:space="preserve" xmlns:serif="http://www.serif.com/" style="fill-rule:evenodd;clip-rule:evenodd;stroke-linejoin:round;stroke-miterlimit:2;">
    <g id="Location-Map" serif:id="Location Map" transform="matrix(10.9711,0,0,10.9743,-365.264,75.5698)">
        <g transform="matrix(0.0931522,0,0,0.0931245,32.2676,-7.91443)">
            <path d="M487.79,1002.37c4.182,3.515 1.551,1.365 -0.077,-0.073l-0.372,-0.314c-83.345,-72.989 -156.104,-158.717 -217.811,-249.682c-78.395,-115.566 -140.666,-247.819 -133.046,-387.02c5.506,-100.572 54.538,-197.687 131.449,-262.825c66.26,-56.116 151.628,-88.153 239.606,-89.427c0.017,-0 0.033,-0.001 0.05,-0.001c2.007,-0.02 4.014,-0.031 6.021,-0.027c0.01,-0 0.02,-0 0.03,-0c124.634,0.529 247.153,66.709 315.193,170.883c54.469,83.394 70.673,188.057 51.704,289.249c-26.837,143.157 -109.896,272.594 -202.788,383.651c-43.174,51.617 -89.435,101.069 -139.924,144.917c-0.011,0.01 -0.022,0.02 -0.034,0.03c-14.224,12.256 -35.993,12.412 -50.001,0.639Zm37.635,-912.884l-26.024,0.004c-102.352,4.815 -200.676,64.174 -250.628,154.254c-35.067,63.238 -43.558,139.119 -29.899,211.782c18.872,100.397 69.843,192.783 129.44,276.548c46.121,64.823 98.431,125.215 155.246,180.696c5.022,4.904 13.029,4.936 18.09,0.073c105.337,-101.215 198.376,-218.975 252.858,-351.614c33.195,-80.818 50.795,-171.602 27.337,-254.853c-33.719,-119.67 -148.182,-210.878 -276.42,-216.89Z" style="fill-rule:nonzero;"/>
        </g>
        <g transform="matrix(0.0931522,0,0,0.0931245,32.2676,-7.91443)">
            <path d="M510.684,567.17l0,0.002l0.129,-0.015l-0.129,0.013Zm1.406,-0.101l0.073,-0.001l-0.025,-0.002l-0.048,0.003Zm0.341,-0.002l-0.082,0.001l-0,-0.002c-84.121,-0.326 -165.454,-60.017 -189.431,-142.225c-19.019,-65.208 -1.266,-139.755 45.085,-189.559c36.209,-38.905 88.333,-62.088 141.822,-62.97c0.026,-0.001 0.052,-0.001 0.078,-0.001c1.248,-0.012 2.495,-0.016 3.742,-0.013c0.026,0.001 0.052,0.001 0.079,0.001c85.466,0.828 166.661,62.684 189.176,145.755c17.612,64.981 -0.726,138.461 -47.699,187.753c-36.699,38.51 -89.044,61.051 -142.724,61.259l-0.046,0.001Zm-3.012,-318.399c-6.234,1.141 -6.146,1.06 -0,-0l0.129,-0.025l0.647,-0.088l0.635,-0.055c0.228,-0.015 0.458,-0.023 0.689,-0.025c-55.462,0.563 -107.51,43.093 -118.11,98.287c-7.508,39.099 5.785,81.665 34.401,109.607c33.324,32.538 86.208,43.621 130.343,25.558c51.251,-20.976 83.797,-80.322 73.265,-135.165c-10.345,-53.866 -60.24,-97.011 -116.617,-98.268c-0.027,-0 -0.054,-0.001 -0.081,-0.001c-1.017,-0.017 -2.033,-0.023 -3.05,-0.02l0,0.008c2.084,0.148 0,0 0,0l-0.085,-0.007l-0.755,0.026l-0.658,0.058l-0.753,0.11Z" style="fill-rule:nonzero;"/>
        </g>
    </g>
</svg>
