<?xml version="1.0" encoding="UTF-8" standalone="no"?>
<!DOCTYPE svg PUBLIC "-//W3C//DTD SVG 1.1//EN" "http://www.w3.org/Graphics/SVG/1.1/DTD/svg11.dtd">
<svg width="100%" height="100%" viewBox="0 0 1024 1024" version="1.1" xmlns="http://www.w3.org/2000/svg" xmlns:xlink="http://www.w3.org/1999/xlink" xml:space="preserve" xmlns:serif="http://www.serif.com/" style="fill-rule:evenodd;clip-rule:evenodd;stroke-linejoin:round;stroke-miterlimit:2;">
    <g transform="matrix(1.78798,0,0,1.78829,54.2775,23.0215)">
        <g transform="matrix(0.637755,0,0,0.558894,-70.5303,-14.1637)">
            <path d="M80.795,269.776l-0.343,0.212c0,-0 411.301,-261.781 411.286,-261.771c12.352,-7.876 28.152,-7.876 40.489,-0.01l411.32,261.781c0.135,0.085 0.269,0.173 0.402,0.261l0.598,0.432l0.278,0.189c0.317,0.235 0.633,0.47 0.95,0.705l1.649,1.34l-0.074,-0.062l0.44,0.367c0.508,0.422 1.331,1.12 1.798,1.571c0.175,0.168 0.346,0.339 0.515,0.512c0.795,0.818 1.517,1.692 2.135,2.446c0.76,0.912 1.527,1.83 2.116,2.691c0.677,0.978 1.246,2.028 1.735,2.901c0.685,1.199 1.359,2.422 1.854,3.597c0.449,1.048 0.79,2.141 1.133,3.196c0.392,1.201 0.783,2.424 1.042,3.602c0.215,0.97 0.34,2.006 0.444,2.784c0.23,1.588 0.397,3.156 0.423,4.743l0.023,0.546c0,0.66 -0.077,1.652 -0.152,2.456c-0.08,1.453 -0.225,2.881 -0.479,4.288c-0.226,1.274 -0.571,2.539 -0.883,3.591c-0.343,1.202 -0.713,2.411 -1.179,3.589c-0.019,0.048 -0.039,0.096 -0.058,0.144c-0.509,1.26 -1.117,2.433 -1.747,3.62l-0.038,0.071c-0.331,0.658 -0.8,1.567 -1.05,1.963c-0.146,0.243 -0.325,0.511 -0.525,0.789l-0.069,0.111c-1.585,2.414 -3.441,4.631 -5.528,6.618c-0.092,0.088 -0.185,0.175 -0.278,0.261c-0.617,0.568 -1.235,1.065 -1.529,1.298c-1.592,1.339 -3.262,2.525 -4.85,3.463c-0.869,0.527 -1.707,0.983 -2.602,1.43c-1.901,0.951 -3.894,1.723 -5.948,2.339c-0.76,0.228 -1.485,0.457 -2.245,0.634c-0.042,0.01 -0.084,0.02 -0.126,0.029c-2.726,0.62 -5.533,0.986 -8.432,0.986c0,-0 -822.59,-0 -822.59,-0l-0.484,-0.023c-1.685,-0.024 -3.352,-0.202 -4.76,-0.408c-0.842,-0.112 -1.673,-0.212 -2.407,-0.364c-1.677,-0.341 -3.326,-0.857 -4.761,-1.367c0.204,0.07 0.622,0.201 0.622,0.201c-0,0 -1.879,-0.598 -2.792,-0.976c-0.033,-0.013 -0.066,-0.027 -0.099,-0.041c-1.575,-0.66 -3.093,-1.492 -4.592,-2.381l-0.15,-0.092c-0.609,-0.346 -1.325,-0.765 -1.678,-1.013c-1.244,-0.837 -2.424,-1.824 -3.521,-2.776c-0.83,-0.715 -1.643,-1.401 -2.09,-1.871c-0.817,-0.818 -1.556,-1.725 -2.297,-2.619c-0.054,-0.066 -0.109,-0.132 -0.162,-0.198c-0.706,-0.872 -1.402,-1.744 -1.963,-2.561l-0.415,-0.575c-0.122,-0.183 -0.242,-0.369 -0.359,-0.556c-0.387,-0.618 -0.92,-1.638 -1.271,-2.331c-0.66,-1.2 -1.255,-2.376 -1.684,-3.443c-0.543,-1.302 -0.951,-2.632 -1.331,-3.962c-0.025,-0.086 -0.049,-0.173 -0.073,-0.261c-0.265,-0.97 -0.54,-1.933 -0.739,-2.947c-0.017,-0.087 -0.034,-0.175 -0.05,-0.263c-0.266,-1.452 -0.403,-2.921 -0.5,-4.397c-0.075,-0.803 -0.152,-1.79 -0.152,-2.467l0.023,-0.523l0,-0.022c0.024,-1.469 0.185,-2.921 0.375,-4.39c0.005,-0.045 0.011,-0.09 0.017,-0.134c0.135,-0.997 0.26,-2.033 0.376,-2.534c0.275,-1.371 0.692,-2.718 1.131,-4.061c0.03,-0.092 0.06,-0.184 0.092,-0.276c0.34,-0.998 0.643,-1.968 1.051,-2.92c0.008,-0.019 0.016,-0.038 0.024,-0.057c0.437,-1.012 0.996,-2 1.526,-2.989c0.034,-0.066 0.069,-0.131 0.105,-0.195c0.55,-1.005 1.091,-1.998 1.712,-2.93c0.05,-0.076 0.101,-0.151 0.152,-0.225c0.659,-0.963 1.426,-1.881 2.077,-2.661c0.861,-1.05 1.723,-2.084 2.467,-2.804c0.743,-0.743 1.591,-1.446 2.271,-2.012c1.203,-1.02 2.432,-2 3.508,-2.694c-0.914,0.609 -2.442,1.889 -2.442,1.889c0,-0 2.107,-1.707 3.338,-2.484l0.161,-0.099c-0.052,0.031 -0.106,0.064 -0.161,0.099Zm880.008,35.008l-0.084,0.823c0,-0 0.044,-0.362 0.084,-0.823Zm-730.669,-40.686l563.712,0l-281.856,-179.392l-281.856,179.392Z" style="fill-rule:nonzero;"/>
        </g>
        <g transform="matrix(0.637755,0,0,0.55622,-70.5206,-9.4316)">
            <path d="M100.69,1023.28l822.59,0c20.833,0 37.698,-16.888 37.698,-37.7c-0,-20.812 -16.865,-37.7 -37.698,-37.7l-822.59,-0c-20.833,-0 -37.698,16.888 -37.698,37.7c-0,20.812 16.89,37.7 37.698,37.7Z" style="fill-rule:nonzero;"/>
        </g>
        <g transform="matrix(0.638141,0,0,0.558656,-70.7217,-12.6351)">
            <path d="M701.679,389.968l0.495,-0.02l100.203,-0l0.478,0.02l79.859,-0c20.834,0.002 37.696,16.89 37.696,37.7c-0,20.81 -16.862,37.699 -37.696,37.701l-18.404,-0l0,25.543c0,16.074 -10.059,29.808 -24.245,35.22l-0,235.125c14.173,5.416 24.225,19.145 24.225,35.213l-0,25.543l18.404,-0c20.834,0.002 37.696,16.89 37.696,37.7c-0,20.81 -16.862,37.699 -37.696,37.701l-79.795,-0l-0.552,0.02l-100.204,-0l-0.478,-0.02l-138.981,-0l-0.552,0.02l-100.305,-0l-0.478,-0.02l-138.981,-0l-0.552,0.02l-100.203,-0l-0.476,-0.02l-79.869,-0c-20.834,-0 -37.698,-16.889 -37.698,-37.701c-0,-20.811 16.864,-37.7 37.698,-37.7l18.402,-0l-0,-25.543c-0,-16.079 10.066,-29.817 24.255,-35.225l0,-235.109c-14.189,-5.408 -24.255,-19.145 -24.255,-35.224l-0,-25.543l-18.402,-0c-20.834,-0 -37.698,-16.889 -37.698,-37.701c-0,-20.811 16.864,-37.7 37.698,-37.7l79.86,-0l0.495,-0.02l100.203,-0l0.476,0.02l139.051,-0l0.494,-0.02l100.306,-0l0.476,0.02l139.05,-0Zm-242.162,507.316l-1.32,-0.14c-0,-0 0.582,0.071 1.32,0.14Zm240.316,-0l-1.32,-0.14c-0,-0 0.582,0.071 1.32,0.14Zm-480.55,-0.002l-1.318,-0.141c-0,0 0.584,0.071 1.318,0.141Zm520.578,-431.913l0,356.644l24.808,-0l0,-356.644l-24.808,-0Zm-140.021,-0l-0,356.644l64.616,-0l-0,-356.644l-64.616,-0Zm-100.305,-0l0,356.644l24.91,-0l-0,-356.644l-24.91,-0Zm-140.021,-0l-0,356.644l64.626,-0l-0,-356.644l-64.626,-0Zm-100.204,-0l0,356.644l24.808,-0l0,-356.644l-24.808,-0Zm64.846,-75.269l1.318,0.14c0,0 -0.584,-0.071 -1.318,-0.14Zm240.326,0l1.318,0.14c0,0 -0.584,-0.071 -1.318,-0.14Zm240.205,-0.002l1.321,0.14c-0,-0 -0.582,-0.072 -1.321,-0.14Z" style="fill-rule:nonzero;"/>
        </g>
    </g>
</svg>
