<?xml version="1.0" encoding="UTF-8" standalone="no"?>
<!DOCTYPE svg PUBLIC "-//W3C//DTD SVG 1.1//EN" "http://www.w3.org/Graphics/SVG/1.1/DTD/svg11.dtd">
<svg width="100%" height="100%" viewBox="0 0 1024 1024" version="1.1" xmlns="http://www.w3.org/2000/svg" xmlns:xlink="http://www.w3.org/1999/xlink" xml:space="preserve" xmlns:serif="http://www.serif.com/" style="fill-rule:evenodd;clip-rule:evenodd;stroke-linejoin:round;stroke-miterlimit:2;">
    <g id="company" transform="matrix(15.3816,0,0,15.3816,23.5439,50.1764)">
        <g transform="matrix(0.0648768,0,0,0.065025,-1.40175,-3.35144)">
            <path d="M104.409,954.264l-0,-859.02c-0,-19.684 16.197,-35.881 35.881,-35.881l750.468,-0c19.684,-0 35.882,16.197 35.882,35.881l-0,858.559l65.944,-0c1.943,-0 3.876,0.276 5.74,0.82c15.265,4.452 25.835,18.545 25.835,34.446c0,15.901 -10.57,29.994 -25.835,34.446c-1.864,0.544 -3.797,0.82 -5.74,0.82l-950.968,0c-2.531,0.564 -5.12,0.846 -7.721,0.846c-19.684,0 -35.882,-16.197 -35.882,-35.881c0,-19.684 16.198,-35.882 35.882,-35.882c2.601,0 5.19,0.283 7.721,0.846l62.793,0Zm582.124,0l168.82,0l0.586,-823.753l-680.382,-0l-0,823.753l168.805,0l-0,-238.218c-0,-19.684 16.197,-35.882 35.881,-35.882l270.409,0c19.684,0 35.881,16.198 35.881,35.882l0,238.218Zm-134.896,-202.798l-0,202.798l63.851,0l1.024,-202.798l-64.875,-0Zm-136.128,-0l0,202.798l64.364,0l0,-202.798l-64.364,-0Z" style="fill-rule:nonzero;"/>
        </g>
        <g transform="matrix(0.0606655,0,0,0.0652273,0.467335,-3.42744)">
            <path d="M462.689,227.791l106.132,0c19.684,0 35.882,16.198 35.882,35.882c-0,19.684 -16.198,35.882 -35.882,35.882l-106.132,-0c-19.684,-0 -35.882,-16.198 -35.882,-35.882c0,-19.684 16.198,-35.882 35.882,-35.882Z" style="fill-rule:nonzero;"/>
        </g>
        <g transform="matrix(0.0608523,0,0,0.0652273,0.370999,-3.42898)">
            <path d="M462.962,359.381l105.586,-0c19.684,-0 35.882,16.197 35.882,35.882c-0,19.684 -16.198,35.881 -35.882,35.881l-105.586,0c-19.684,0 -35.882,-16.197 -35.882,-35.881c0,-19.685 16.198,-35.882 35.882,-35.882Z" style="fill-rule:nonzero;"/>
        </g>
        <g transform="matrix(0.0608523,0,0,0.0652273,0.370999,-3.47568)">
            <path d="M462.962,491.663l105.586,-0c19.684,-0 35.882,16.197 35.882,35.881c-0,19.684 -16.198,35.882 -35.882,35.882l-105.586,-0c-19.684,-0 -35.882,-16.198 -35.882,-35.882c0,-19.684 16.198,-35.881 35.882,-35.881Z" style="fill-rule:nonzero;"/>
        </g>
        <g transform="matrix(0.0606655,0,0,0.0652273,-13.0553,-3.42744)">
            <path d="M462.689,227.791l106.132,0c19.684,0 35.882,16.198 35.882,35.882c-0,19.684 -16.198,35.882 -35.882,35.882l-106.132,-0c-19.684,-0 -35.882,-16.198 -35.882,-35.882c0,-19.684 16.198,-35.882 35.882,-35.882Z" style="fill-rule:nonzero;"/>
        </g>
        <g transform="matrix(0.0608523,0,0,0.0652273,-13.1517,-3.42898)">
            <path d="M462.962,359.381l105.586,-0c19.684,-0 35.882,16.197 35.882,35.882c-0,19.684 -16.198,35.881 -35.882,35.881l-105.586,0c-19.684,0 -35.882,-16.197 -35.882,-35.881c0,-19.685 16.198,-35.882 35.882,-35.882Z" style="fill-rule:nonzero;"/>
        </g>
        <g transform="matrix(0.0608523,0,0,0.0652273,-13.1517,-3.47568)">
            <path d="M462.962,491.663l105.586,-0c19.684,-0 35.882,16.197 35.882,35.881c-0,19.684 -16.198,35.882 -35.882,35.882l-105.586,-0c-19.684,-0 -35.882,-16.198 -35.882,-35.882c0,-19.684 16.198,-35.881 35.882,-35.881Z" style="fill-rule:nonzero;"/>
        </g>
        <g transform="matrix(0.0606655,0,0,0.0652273,13.99,-3.42744)">
            <path d="M462.689,227.791l106.132,0c19.684,0 35.882,16.198 35.882,35.882c-0,19.684 -16.198,35.882 -35.882,35.882l-106.132,-0c-19.684,-0 -35.882,-16.198 -35.882,-35.882c0,-19.684 16.198,-35.882 35.882,-35.882Z" style="fill-rule:nonzero;"/>
        </g>
        <g transform="matrix(0.0608523,0,0,0.0652273,13.8937,-3.42898)">
            <path d="M462.962,359.381l105.586,-0c19.684,-0 35.882,16.197 35.882,35.882c-0,19.684 -16.198,35.881 -35.882,35.881l-105.586,0c-19.684,0 -35.882,-16.197 -35.882,-35.881c0,-19.685 16.198,-35.882 35.882,-35.882Z" style="fill-rule:nonzero;"/>
        </g>
        <g transform="matrix(0.0608523,0,0,0.0652273,13.8937,-3.47568)">
            <path d="M462.962,491.663l105.586,-0c19.684,-0 35.882,16.197 35.882,35.881c-0,19.684 -16.198,35.882 -35.882,35.882l-105.586,-0c-19.684,-0 -35.882,-16.198 -35.882,-35.882c0,-19.684 16.198,-35.881 35.882,-35.881Z" style="fill-rule:nonzero;"/>
        </g>
    </g>
</svg>
