<?xml version="1.0" encoding="UTF-8" standalone="no"?>
<!DOCTYPE svg PUBLIC "-//W3C//DTD SVG 1.1//EN" "http://www.w3.org/Graphics/SVG/1.1/DTD/svg11.dtd">
<svg width="100%" height="100%" viewBox="0 0 1024 1024" version="1.1" xmlns="http://www.w3.org/2000/svg" xmlns:xlink="http://www.w3.org/1999/xlink" xml:space="preserve" xmlns:serif="http://www.serif.com/" style="fill-rule:evenodd;clip-rule:evenodd;stroke-linejoin:round;stroke-miterlimit:2;">
    <g id="countries" transform="matrix(1.00112,0,0,1.00112,-8.40897,18.5352)">
        <path d="M518.042,-18.499c-133.422,0.643 -264.089,55.81 -358.262,149.428c-74.59,74.151 -126.022,171.303 -144.109,275.166c-23.298,133.781 10.088,275.947 90.115,386.045c75.583,103.984 191.4,178.766 317.584,203.214c127.279,24.659 263.712,-2.148 372.576,-72.681c140.934,-91.311 233.09,-253.968 235.267,-423.066c1.735,-134.728 -53.678,-270.048 -149.703,-366.547c-92.06,-92.516 -220.495,-148.38 -350.311,-151.422c-4.363,-0.102 -8.726,-0.144 -13.098,-0.137l-0.059,-0Zm-18.99,76.786c3.973,9.136 7.898,18.355 12.794,27.156l7.529,5.818c13.721,7.578 24.955,19.53 31.558,33.849c10.018,21.723 -3.488,46.95 -3.488,46.95c-0.79,1.387 -1.757,2.667 -2.875,3.806c-13.056,13.296 -31.672,20.224 -50.049,19.004l-3.671,-0.353l0.011,0.001c0,-0 -21.385,-0.782 -29.733,0.333c-8.552,1.143 -16.505,5.288 -22.703,11.334c-4.927,4.806 -10.247,11.391 -10.247,11.391c-0.274,0.339 -0.561,0.668 -0.859,0.987c-16.442,17.586 -28.721,38.623 -35.8,61.466c-2.156,6.956 -3.13,14.272 -5.104,20.906c-2.22,7.461 -6.843,14.01 -13.066,18.576c-1.596,1.171 -3.37,2.078 -5.253,2.687c-0,-0 -0.147,0.047 -0.3,0.096c-11.757,3.688 -25.17,1.204 -34.833,-6.468c-0.042,-0.033 -0.084,-0.066 -0.125,-0.1c-0.64,-0.517 -1.114,-1.072 -2.974,-2.452c-17.719,-13.144 -43.858,-5.091 -49.473,13.169l2.466,0.597l2.811,0.701c26.868,5.527 49.644,25.283 58.934,50.621l6.163,-0c43.135,-10.1 87.994,-3.918 128.417,14.349l8.489,3.302c0.17,0.066 0.339,0.134 0.506,0.205c7.506,3.177 15.255,5.654 23.138,7.441l19.169,3.195c23.796,0.762 47.165,8.501 66.638,22.127c0.424,0.297 0.837,0.612 1.235,0.944c-0,-0 0.27,0.225 0.32,0.267c9.108,7.643 17.376,16.293 24.589,25.662l2.862,3.364c0.195,0.23 0.385,0.465 0.57,0.704c4.038,5.247 8.922,9.803 14.45,13.463l18.535,9.262c14.189,5.182 27.539,12.445 39.496,21.581c3.489,2.665 8.307,6.862 8.307,6.862c0.358,0.312 0.703,0.638 1.035,0.977c15.321,15.607 24.073,37.097 23.984,58.779c-0.003,0.794 -0.058,1.586 -0.163,2.373c0,-0 -0.033,0.248 -0.04,0.302c-6.17,45.197 -28.824,87.319 -63.051,117.51c-0.02,0.018 -0.04,0.036 -0.061,0.053c-0.492,0.431 -0.986,0.86 -1.482,1.287c-0.438,0.375 -0.893,0.731 -1.363,1.064l-11.463,8.119l-7.488,5.617c-0.638,0.478 -1.306,0.915 -2,1.307c-2.195,1.24 -4.554,2.402 -6.88,3.632c-0.912,0.482 -2.27,1.346 -3.194,1.953c0.021,0.86 -0.019,1.72 -0.118,2.574c-3.347,28.81 -17.85,56.355 -40.02,75.273c-3.039,2.594 -6.775,5.34 -7.18,5.625c-9.86,6.935 -20.43,12.749 -31.543,17.434c-4.368,1.822 -16.293,4.824 -20.936,7.395c-3.003,1.663 -5.904,3.512 -8.679,5.531c-0.629,0.458 -1.588,1.221 -2.303,1.799c-1.362,10.485 2.021,21.991 2.379,33.277l3.189,17.198c2.167,10.83 -2.907,21.843 -5.853,27.06c-0.517,1.055 -1.134,2.06 -1.839,3.008l-0.073,0.109l0.025,-0.047c-4.307,5.748 -11.848,9.393 -19.832,9.412c-1.414,0.003 -2.824,-0.156 -4.203,-0.474l-12.189,-2.813c-0.406,-0.094 -0.81,-0.201 -1.21,-0.323c-16.344,-4.957 -31.864,-13.191 -43.97,-25.128c-18.581,-18.32 -27.222,-41.509 -30.769,-66.894c-3.091,-22.121 -2.229,-45.976 -2.215,-68.893c0.001,-0.625 0.033,-1.25 0.097,-1.872c1.551,-15.152 1.536,-30.42 -0.102,-45.52c-0.692,-6.375 -2.328,-14.622 -2.894,-17.37c-3.833,-8.41 -9.458,-16.027 -16.404,-22.172c-0.911,-0.806 -1.069,-0.971 -2.921,-2.439c-16.555,-12.891 -30.374,-29.517 -39.902,-48.302c-0.213,-0.42 -0.409,-0.847 -0.59,-1.282c0,0 -0.145,-0.351 -0.17,-0.412c-4.363,-10.629 -7.647,-21.713 -9.725,-33.023c-4.119,-22.417 0.217,-45.438 -4.592,-67.908c-1.364,-6.374 -4.317,-11.325 -9.392,-13.904c-4.058,-2.062 -10.789,-4.923 -10.789,-4.923c-0.202,-0.086 -0.401,-0.175 -0.599,-0.268c-8.708,-4.085 -17.345,-8.316 -25.773,-12.933c-0.4,-0.219 -0.791,-0.452 -1.173,-0.7c-0,0 -0.436,-0.282 -0.475,-0.308c-11.789,-7.682 -23.004,-16.249 -33.563,-25.649c-12.112,-10.837 -26.934,-23.702 -44.624,-27.058l-8.604,-0.053c-1.986,-0.013 -3.956,-0.345 -5.836,-0.983c-34.64,-11.768 -61.795,-41.233 -70.84,-76.176c-0.983,-3.798 -1.763,-7.649 -2.328,-11.523c-0.084,-0.574 -0.14,-1.153 -0.17,-1.732l-0.055,-1.097l-0.906,-3.054l-0.823,-2.902c-14.026,35.015 -23.492,71.753 -28.057,109.099c-14.812,121.16 24.708,246.694 104.329,337.941c82.293,94.31 205.748,150.859 328.522,150.108c84.943,-0.52 169.726,-27.493 239.88,-75.42c101.89,-69.607 171.84,-183.419 187.177,-305.745c-4.05,3.192 -8.358,6.049 -12.878,8.536c-5.787,3.184 -13.27,6.006 -15.868,6.948c-16.226,7.245 -38.38,4.996 -56.586,-3.205c-6.292,-2.833 -12.126,-6.004 -18.017,-11.294c-29.613,-26.588 -49.522,-63.062 -56.018,-102.003c-0.879,-5.264 -1.626,-12.554 -1.649,-12.796c-2.227,-25.154 -2.226,-50.458 0.047,-75.75l0.089,-5.493c0.011,-0.678 0.059,-1.355 0.145,-2.027c3.347,-26.388 1.013,-53.541 -6.993,-78.943c-2.709,-8.595 -6.066,-18.192 -8.253,-21.283c-0.543,-0.767 -1.107,-1.52 -1.69,-2.257c-1.359,-1.719 -2.824,-3.353 -4.385,-4.891c-0.958,-0.944 -1.295,-1.293 -3.056,-2.784c-0.379,-0.322 -0.746,-0.659 -1.098,-1.01l-6.424,-6.397c-11.168,-9.163 -22.58,-19.618 -28.204,-33.485c-4.954,-12.214 -4.619,-25.781 0.255,-37.371l-3.034,-0.91c-16.972,-5.012 -34.439,-10.77 -48.684,-21.785c-19.739,-15.263 -28.926,-38.118 -30.966,-61.87c-41.312,-12.753 -83.875,-19.1 -126.684,-19.249l-17.676,0Zm-98.125,393.893l-0.879,-0.001c-5.6,0.027 -14.536,1.208 -22.713,2.509c15.711,15.061 25.842,35.759 29.206,58.017c1.212,8.024 1.951,16.119 2.211,24.23c0.48,14.987 -1.122,31.155 2.584,46.414c0.972,4 2.84,9.163 3.5,10.939c4.517,7.744 10.474,14.591 17.416,20.163c14.743,11.677 27.223,26.015 35.979,42.582c4.473,8.463 8.047,18.394 8.047,18.394c0.204,0.569 0.38,1.147 0.528,1.733c3.484,13.84 5.894,27.942 7.155,42.149c1.58,17.792 0.36,35.595 -0.584,53.455c12.196,-9.981 26.3,-17.596 41.498,-22.289c13.287,-4.621 24.237,-9.397 30.971,-19.398c4.438,-6.592 6.851,-15.28 7.691,-26.923c0.039,-0.534 0.101,-1.066 0.185,-1.595c0,-0 1.487,-16.795 27.716,-45.411c4.946,-5.395 14.859,-10.053 17.668,-11.304l12.714,-8.052c0.165,-0.148 0.319,-0.309 0.484,-0.46c13.915,-12.735 24.879,-28.984 31.474,-46.794c2.651,-7.158 4.856,-17.346 5.404,-19.989c-0.071,-1.09 -0.422,-2.148 -1.01,-3.064c-0.087,-0.135 -0.19,-0.264 -0.293,-0.377c-8.21,-5.939 -16.674,-9.899 -29.829,-15.435c-22.58,-9.503 -58.887,-45.278 -60.495,-47.351c-3.68,-4.744 -7.679,-9.191 -11.983,-13.335l-0.928,-0.878l-0.649,-0.492c-7.695,-3.975 -18.784,-5.884 -22.378,-6.017c-0.563,-0.021 -1.125,-0.067 -1.683,-0.139l-30.014,-3.873c-0.71,-0.092 -1.415,-0.225 -2.11,-0.398c-13.173,-3.286 -26.138,-7.397 -38.395,-12.119c-0,-0 -13.797,-4.928 -13.639,-4.872l-22.989,-7.976c-7.209,-1.311 -14.528,-1.995 -21.86,-2.043Zm418.708,-273.677c-0.704,0.86 -1.384,1.637 -2.01,2.319c5.205,4.638 10.065,9.662 14.53,15.016c3.897,4.671 7.539,8.975 10.822,15.925c19.24,40.737 27.51,86.011 24.159,130.512c-0.609,8.08 -1.862,17.331 -1.949,18.269c-3.769,40.393 -2.831,88.372 25.086,120.519c2.364,2.724 5.417,5.8 5.715,6.075c1.526,1.408 3.965,1.379 6.069,1.16c2.3,-0.24 3.826,-1.915 5.392,-3.481c2.497,-2.497 4.707,-5.407 6.89,-8.24c0.843,-1.094 2.194,-3.008 2.836,-3.927c7.508,-12.629 19.416,-22.409 33.107,-27.448c-10.901,-101.06 -57.287,-196.132 -130.647,-266.699Zm-399.306,-112.097c-97.792,24.802 -184.826,83.672 -244.16,163.624c-0.031,30.352 4.556,60.714 13.589,89.725c3.262,10.382 4.994,21.46 9.928,30.783c-1.55,-10.551 -0.665,-21.427 2.839,-31.563c0.019,-0.056 0.039,-0.112 0.059,-0.168l0.364,-0.966l0.633,-2.417c13.862,-52.526 68.987,-81.151 118.23,-72.135c8.832,-19.626 19.874,-38.198 32.904,-55.265c4.854,-6.358 11.009,-13.537 13.22,-16.087c18.15,-27.021 47.702,-45.535 79.458,-50.771c-8.235,-15.167 -14.024,-31.526 -21.975,-46.977c-1.059,-2.058 -3.684,-5.818 -5.089,-7.783Z"/>
    </g>
</svg>
