<?xml version="1.0" encoding="UTF-8" standalone="no"?>
<!DOCTYPE svg PUBLIC "-//W3C//DTD SVG 1.1//EN" "http://www.w3.org/Graphics/SVG/1.1/DTD/svg11.dtd">
<svg width="100%" height="100%" viewBox="0 0 1024 1024" version="1.1" xmlns="http://www.w3.org/2000/svg" xmlns:xlink="http://www.w3.org/1999/xlink" xml:space="preserve" xmlns:serif="http://www.serif.com/" style="fill-rule:evenodd;clip-rule:evenodd;stroke-linejoin:round;stroke-miterlimit:2;">
    <g id="currencies" transform="matrix(1.00068,0,0,1,694.411,816.578)">
        <g transform="matrix(0.997673,0,0,0.997673,-678.436,-815.178)">
            <path d="M683.868,587.196l0,-12.873c0,-15.092 10.672,-25.446 25.764,-25.446c14.617,0 25.445,10.287 25.445,25.446l0,12.927c40.949,7.683 72.494,33.447 81.409,69.111c0.055,0.22 0.103,0.443 0.144,0.667c0.757,4.161 1.442,7.954 1.442,11.737c-0,17.411 -12.029,29.261 -28.943,29.261c-15.509,0 -24.404,-8.368 -29.574,-22.466l-0.203,-0.612c-3.932,-13.171 -12.39,-22.702 -24.275,-28.007l0,66.024c58.617,11.61 87.765,41.541 87.765,88.719c-0,50.53 -37.398,82.622 -87.765,90.641l0,13.022c0,15.159 -10.828,25.445 -25.445,25.445c-14.554,0 -25.764,-10.352 -25.764,-25.445l0,-13.694c-42.706,-7.07 -77.259,-32.994 -86.809,-70.867c-0.043,-0.169 -0.081,-0.339 -0.115,-0.51c-0.768,-3.841 -1.476,-7.689 -1.476,-11.915c0,-17.411 12.03,-29.261 28.943,-29.261c13.76,-0 24.168,7.035 29.388,23.167l0.187,0.65c3.617,14.254 13.704,25.273 29.882,30.71l0,-72.783c-55.005,-14.319 -82.358,-42.158 -82.358,-85.719c-0,-45.691 33.485,-79.108 82.358,-87.929Zm51.209,186.801l0,60.182c17.908,-4.916 27.334,-15.685 27.334,-30.269c0,-14.525 -7.939,-23.355 -27.334,-29.913Zm-51.209,-127.417c-13.682,5.334 -22.246,14.85 -22.246,26.637c0,11.97 7.508,19.835 22.246,25.829l0,-52.466Z" style="fill-rule:nonzero;"/>
        </g>
        <g transform="matrix(5.2275,0,0,5.2275,-694.286,-816.578)">
            <path d="M137.367,85.868c-0.883,0 -1.755,0.025 -2.625,0.066l0,-56.134c0,-19.564 -33.008,-29.8 -65.616,-29.8c-32.608,0 -65.618,10.236 -65.618,29.8l0,101.447l0.058,0c1.212,18.849 33.566,28.71 65.56,28.71c5.493,0 10.979,-0.317 16.333,-0.898c7.525,21.423 27.946,36.828 51.908,36.828c30.335,0 55.012,-24.677 55.012,-55.012c0,-30.335 -24.676,-55.007 -55.012,-55.007Zm-68.238,-70.651c32.737,-0 50.399,10.35 50.399,14.583c-0,4.233 -17.662,14.583 -50.399,14.583c-32.74,-0 -50.402,-10.35 -50.402,-14.583c-0,-4.233 17.662,-14.583 50.402,-14.583Zm-50.402,34.335c12.663,6.637 31.593,10.048 50.402,10.048c18.809,-0 37.733,-3.414 50.399,-10.048l-0,14.253c-0,4.233 -17.662,14.583 -50.399,14.583c-32.74,-0 -50.402,-10.35 -50.402,-14.583l-0,-14.253Zm63.734,94.554c-4.128,0.39 -8.546,0.636 -13.332,0.636c-32.74,-0 -50.402,-10.353 -50.402,-14.583l-0,-14.205c12.663,6.637 31.593,10.051 50.402,10.051c5.217,-0 10.426,-0.292 15.524,-0.812c-1.484,4.973 -2.293,10.239 -2.293,15.689c-0,1.085 0.041,2.156 0.101,3.224Zm-13.332,-33.32c-32.74,-0 -50.402,-10.348 -50.402,-14.583l-0,-12.648c12.663,6.637 31.593,10.048 50.402,10.048c18.809,-0 37.733,-3.414 50.399,-10.048l-0,5.298c-10.842,3.731 -20.163,10.753 -26.757,19.876c-6.701,1.243 -14.565,2.057 -23.642,2.057Zm68.238,69.889c-21.941,-0 -39.793,-17.852 -39.793,-39.795c-0,-21.943 17.852,-39.795 39.793,-39.795c21.943,-0 39.795,17.852 39.795,39.795c-0,21.943 -17.849,39.795 -39.795,39.795Z" style="fill-rule:nonzero;"/>
        </g>
    </g>
</svg>
