<?xml version="1.0" encoding="UTF-8" standalone="no"?>
<!DOCTYPE svg PUBLIC "-//W3C//DTD SVG 1.1//EN" "http://www.w3.org/Graphics/SVG/1.1/DTD/svg11.dtd">
<svg width="100%" height="100%" viewBox="0 0 1024 1024" version="1.1" xmlns="http://www.w3.org/2000/svg" xmlns:xlink="http://www.w3.org/1999/xlink" xml:space="preserve" xmlns:serif="http://www.serif.com/" style="fill-rule:evenodd;clip-rule:evenodd;stroke-linejoin:round;stroke-miterlimit:2;">
    <g id="facebook" transform="matrix(35.6115,0,0,35.565,-81.5245,-57.0403)">
        <path d="M12.27,12.27l0,-2.937c0,-4.24 3.49,-7.729 7.73,-7.729l4,-0c0.587,-0 1.063,0.476 1.063,1.063l-0,5.333c-0,0.587 -0.476,1.063 -1.063,1.063c0,-0 -4,-0 -4,-0c-0.148,-0 -0.27,0.122 -0.27,0.27l-0,2.937l4.27,0c0.327,0 0.636,0.151 0.838,0.409c0.201,0.258 0.272,0.595 0.193,0.912l-1.333,5.333c-0.119,0.474 -0.544,0.806 -1.031,0.806l-2.937,-0l-0,9.603c-0,0.587 -0.476,1.063 -1.063,1.063l-5.334,0c-0.587,0 -1.063,-0.476 -1.063,-1.063l0,-9.603l-2.937,-0c-0.587,-0 -1.063,-0.476 -1.063,-1.063l0,-5.334c0,-0.587 0.476,-1.063 1.063,-1.063l2.937,0Zm10.667,-8.54l-2.937,-0c-3.074,-0 -5.604,2.529 -5.604,5.603l0,4c0,0.587 -0.476,1.063 -1.063,1.063l-2.937,0l0,3.208l2.937,-0c0.587,-0 1.063,0.476 1.063,1.063l0,9.603l3.208,0l-0,-9.603c-0,-0.587 0.476,-1.063 1.063,-1.063l3.17,-0l0.802,-3.208l-3.972,0c-0.587,0 -1.063,-0.476 -1.063,-1.063l-0,-4c-0,-1.314 1.082,-2.396 2.396,-2.396l2.937,0l0,-3.207Z"/>
    </g>
</svg>
