<?xml version="1.0" encoding="UTF-8" standalone="no"?>
<!DOCTYPE svg PUBLIC "-//W3C//DTD SVG 1.1//EN" "http://www.w3.org/Graphics/SVG/1.1/DTD/svg11.dtd">
<svg width="100%" height="100%" viewBox="0 0 1024 1024" version="1.1" xmlns="http://www.w3.org/2000/svg" xmlns:xlink="http://www.w3.org/1999/xlink" xml:space="preserve" xmlns:serif="http://www.serif.com/" style="fill-rule:evenodd;clip-rule:evenodd;stroke-linejoin:round;stroke-miterlimit:2;">
    <g id="fb-page" transform="matrix(8.96579,0,0,8.90262,-267.836,-306.168)">
        <g>
            <g transform="matrix(0.111535,0,0,0.112327,29.8477,34.3725)">
                <path d="M225.588,269.851l-146.035,-0c-0.726,-0 -1.451,-0.05 -2.17,-0.148c-0,-0 -0.398,-0.057 -0.533,-0.075c-12.223,-1.471 -22.328,-7.153 -28.55,-16.575c-3.538,-5.358 -4.913,-11.724 -5.887,-18.055c-0.123,-0.805 -0.186,-1.618 -0.186,-2.432l0,-116.11c0,-0.7 0.046,-1.4 0.138,-2.095c0,-0 0.63,-4.705 1.767,-8.814c4.284,-15.482 18.395,-23.961 32.996,-26.2c0.802,-0.123 1.613,-0.184 2.424,-0.184l860.735,-0c0.731,-0 1.461,0.05 2.185,0.149l5.914,0.816c1.565,0.216 3.09,0.662 4.525,1.325c-0,-0 6.46,3.061 10.335,5.977c11.05,8.315 15.426,23.101 13.237,36.38c-0.176,1.068 -0.379,2.132 -0.606,3.191c-0.106,0.494 -0.236,0.983 -0.388,1.466l-90.75,287.119l94.533,302.446c0.151,0.483 0.279,0.973 0.384,1.468l1.226,5.81c0.326,1.544 0.422,3.129 0.284,4.701c0,0 -0.816,8.168 -2.68,13.395c-4.712,13.215 -18.215,21.638 -32.265,23.602c-0.734,0.103 -1.474,0.155 -2.215,0.155l-864.454,-0c-0.725,-0 -1.45,-0.05 -2.17,-0.148c0,-0 -0.395,-0.057 -0.534,-0.076c-12.223,-1.471 -22.327,-7.152 -28.548,-16.574c-3.538,-5.358 -4.913,-11.725 -5.887,-18.055c-0.123,-0.805 -0.186,-1.618 -0.186,-2.432l0,-116.11c0,-0.7 0.046,-1.4 0.138,-2.095c0,-0 0.63,-4.705 1.767,-8.814c4.284,-15.481 18.395,-23.96 32.995,-26.2c0.803,-0.123 1.613,-0.184 2.426,-0.184l146.035,-0l-0,-306.624Zm662.768,-116.584l-771.942,-0l-0,42.479l146.035,0c0.726,0 1.451,0.05 2.17,0.148c-0,0 0.398,0.057 0.533,0.075c12.222,1.471 22.328,7.153 28.549,16.574c3.539,5.359 4.914,11.727 5.887,18.057c0.124,0.804 0.186,1.617 0.186,2.431l0,380.254c0,0.7 -0.046,1.4 -0.138,2.095c0,-0 -0.63,4.705 -1.767,8.814c-4.285,15.484 -18.4,23.964 -32.997,26.2c-0.802,0.123 -1.612,0.185 -2.423,0.185l-146.035,-0l-0,42.479l775.938,0l-81.952,-265.58c-0.11,-0.358 -0.208,-0.72 -0.293,-1.085l-1.144,-4.908c-0.328,-1.407 -0.464,-2.852 -0.404,-4.295c-0,-0 0.367,-7.609 1.614,-12.823c0.083,-0.349 0.179,-0.695 0.285,-1.037l77.898,-250.063Z"/>
            </g>
            <g transform="matrix(0.111007,0,0,0.112327,29.9163,34.3908)">
                <path d="M174.158,828.104l-0,195.896l-73.719,-0l-0,-195.896l73.719,0Zm-74.071,-316.104l0.352,-184.27l73.719,-0l-0.352,184.27l-73.719,0Zm12.605,-512l49.212,0c6.311,0 11.965,2.657 12.244,5.735c0.01,0.14 0.018,0.281 0.027,0.425l0.003,0.05l0.004,0.077l0.009,0.146l0.01,0.182l0.005,0.085l0.002,0.043c0.007,0.141 0.015,0.284 0.022,0.429l0.001,0.031l0.007,0.139l0.009,0.193l0.003,0.068l0.005,0.116l0.007,0.152l0.002,0.045l0.003,0.07c0.443,10.499 -0.109,28.43 -0.109,37.716l-73.719,0l0.001,-39.812c0.004,-0.1 0.014,-0.2 0.029,-0.299c0.018,-0.121 0.044,-0.241 0.078,-0.36l0.022,-0.072c0.171,-0.541 0.503,-1.064 0.971,-1.554c0.061,-0.065 0.124,-0.128 0.19,-0.192c1.392,-1.337 3.795,-2.419 6.634,-2.984c0.394,-0.079 0.797,-0.147 1.206,-0.205c0.818,-0.116 1.663,-0.189 2.524,-0.214c0.198,-0.006 0.398,-0.009 0.598,-0.01Z"/>
            </g>
        </g>
    </g>
</svg>
