<?xml version="1.0" encoding="UTF-8" standalone="no"?>
<!DOCTYPE svg PUBLIC "-//W3C//DTD SVG 1.1//EN" "http://www.w3.org/Graphics/SVG/1.1/DTD/svg11.dtd">
<svg width="100%" height="100%" viewBox="0 0 1024 1024" version="1.1" xmlns="http://www.w3.org/2000/svg" xmlns:xlink="http://www.w3.org/1999/xlink" xml:space="preserve" xmlns:serif="http://www.serif.com/" style="fill-rule:evenodd;clip-rule:evenodd;stroke-linejoin:round;stroke-miterlimit:2;">
    <g id="lending" transform="matrix(1,0,0,1.00431,29.143,-2.20465)">
        <path d="M449.089,247.589l-0,-6.913c-0,-130.827 107.654,-238.481 238.481,-238.481c130.826,0 238.481,107.654 238.481,238.481c-0,51.834 -16.9,102.21 -48.01,143.503l11.494,21.995c22.491,42.898 40.121,76.707 47.325,94.607c20.23,49.08 14.68,105.151 -14.779,149.312c-0.09,0.135 -0.183,0.268 -0.278,0.399l-0.955,1.312l-124.088,166.281c-0.045,0.061 -0.09,0.121 -0.137,0.18c-1.128,1.455 -2.353,2.833 -3.624,4.083c-19.087,18.971 -41.061,39.92 -64.33,47.132l-420.989,146.473c-39.984,14.052 -84.733,2.255 -112.595,-29.682l0.029,0.033c-0,-0 -152.506,-173.549 -152.505,-173.547c-27.991,-31.844 -33.747,-77.79 -14.505,-115.494c34.086,-67.738 116.589,-229.81 144.326,-282.141c0.795,-1.535 1.692,-3.013 2.689,-4.429c16.234,-23.044 37.916,-41.72 62.991,-54.301l210.979,-108.803Zm272.733,229.438c16.702,38.927 8.084,84.661 -22.199,114.812c0,-0 -41.868,41.76 -41.895,41.787c-21.66,21.467 -50.952,33.523 -81.433,33.522c-5.311,0.006 -10.616,-0.358 -15.877,-1.09l-21.066,-2.932c-51.178,-7.224 -89.635,-51.49 -89.635,-103.175c-0,-18.066 4.698,-35.826 13.632,-51.528c0.001,-0 0.001,-0.001 0.001,-0.001c-0,-0 26.358,-46.316 26.35,-46.303c10.798,-19.029 26.812,-34.581 46.149,-44.816l131.138,-69.42l0.593,-0.293c17.501,-8.063 30.911,-23.016 36.978,-41.132c5.003,-15.649 3.368,-32.685 -4.52,-47.096c-0.141,-0.258 -0.272,-0.521 -0.394,-0.789c-7.146,-15.692 -22.872,-25.811 -40.115,-25.811c-6.981,0 -13.862,1.659 -20.051,4.825c-0,-0 -365.862,188.3 -365.985,188.363c-13.177,6.591 -24.574,16.253 -33.228,28.166c-28.729,54.008 -108.915,212.016 -142.476,278.058l-0.017,0.034c-4.801,9.372 -3.389,20.786 3.544,28.699c0,-0 152.615,173.874 152.652,173.917c6.91,7.948 18.03,10.89 27.967,7.398c0.006,-0.002 0.012,-0.004 0.018,-0.006l421.724,-147.408c1.077,-0.377 2.201,-0.597 3.339,-0.654c2.128,-1.002 4.7,-3.159 7.629,-5.557c7.06,-5.781 14.931,-13.567 21.103,-19.737l121.36,-162.963c14.538,-22.427 17.167,-50.637 6.964,-75.491c-6.106,-15.318 -23.712,-48.828 -44.043,-87.671l-0.745,-1.411c-29.387,19.038 -62.698,31.25 -97.462,35.703Zm-110.768,-10.653l-37.977,20.1c-6.193,3.254 -11.325,8.215 -14.785,14.295c-0.01,0.018 -0.021,0.036 -0.031,0.054c-0,0 -26.683,46.316 -26.658,46.272c-2.236,3.92 -3.413,8.355 -3.413,12.867c0,12.877 9.579,23.905 22.303,25.705l20.554,2.86c1.572,0.1 3.15,0.093 4.722,-0.017c0.282,-0.02 0.565,-0.03 0.848,-0.029c9.788,0.008 19.193,-3.855 26.117,-10.706c-0,0 41.869,-41.76 41.839,-41.731c7.769,-7.802 9.74,-19.749 4.89,-29.633l-16.467,-33.592c-7.413,-1.792 -14.737,-3.942 -21.942,-6.445Zm126.3,-71.963c66.236,-19.726 115.111,-81.489 115.111,-153.773c0,-87.968 -72.387,-160.355 -160.355,-160.355c-1.341,-0 -2.682,0.017 -4.022,0.05l-0.289,0.004c-75.322,0.076 -139.886,53.174 -156.284,124.817l71.681,-36.888c17.227,-9.143 36.428,-13.943 56.087,-13.982c46.314,0.51 88.658,26.829 109.618,68.113c17.932,32.974 21.602,71.898 10.141,107.662c-8.039,24.978 -22.531,47.115 -41.688,64.352Z" style="fill-rule:nonzero;"/>
    </g>
</svg>
