<?xml version="1.0" encoding="UTF-8" standalone="no"?>
<!DOCTYPE svg PUBLIC "-//W3C//DTD SVG 1.1//EN" "http://www.w3.org/Graphics/SVG/1.1/DTD/svg11.dtd">
<svg width="100%" height="100%" viewBox="0 0 1024 1024" version="1.1" xmlns="http://www.w3.org/2000/svg" xmlns:xlink="http://www.w3.org/1999/xlink" xml:space="preserve" xmlns:serif="http://www.serif.com/" style="fill-rule:evenodd;clip-rule:evenodd;stroke-linejoin:round;stroke-miterlimit:2;">
    <g id="lending" transform="matrix(46.1438,0,0,46.4243,-1031.8,-6144.81)">
        <g transform="matrix(0.0216387,0,0,0.0215772,22.0197,132.843)">
            <path d="M300.329,928.117c-10.322,12.536 -25.899,20.096 -42.532,19.965c-0,-0 -169.895,-0 -170.069,-0.001c-30.551,-0.343 -55.611,-25.434 -55.952,-56.08c-0.001,-0.058 -0.001,-0.115 -0.001,-0.173c-0,-0 -0,-251.932 0.001,-252.102c0.333,-30.41 25.006,-55.398 55.316,-56.08c0.116,-0.002 0.232,-0.003 0.348,-0.003c0,-0 169.433,-0 169.779,0.003c28.839,0.644 52.618,23.293 55.11,51.756c29.46,-1.597 58.99,1.776 87.353,9.982c0.136,0.039 0.271,0.08 0.406,0.123l78.954,25.2l103.77,0c40.895,-0.001 75.03,31.755 78.85,71.897l180.657,-34.054c59.575,-12.507 118.58,16.389 146.673,70.552l0.609,1.322c1.733,4.281 2.624,8.859 2.624,13.48c0,14.934 -9.307,28.344 -23.206,33.574l-391.938,157.912c-23.548,9.521 -48.688,14.462 -74.102,14.56c-26.349,0.06 -52.418,-5.445 -76.468,-16.139l-126.182,-55.694Zm292.71,-177.963c-0.633,-3.557 -3.742,-6.304 -7.456,-6.304l-111.263,0c-3.7,0 -4.426,0.444 -19.036,-4.442c0,-0 -75.252,-24.082 -75.068,-24.024c-20.792,-6.37 -42.551,-8.972 -64.254,-7.684c-0.305,0.019 -0.612,0.028 -0.918,0.028l-0.659,-0l0,148.872l142.913,61.253c30.639,13.017 65.27,13.017 95.909,-0c0.107,-0.046 0.215,-0.09 0.323,-0.133l341.727,-136.172c-11.915,-5.035 -25.256,-6.463 -38.287,-3.752c-0.069,0.014 -0.138,0.028 -0.207,0.041c0,0 -150.504,29.176 -150.525,29.18c-115.9,22.303 -115.947,22.045 -119.732,22.045l-169.895,0c-19.633,0 -35.813,-16.182 -35.813,-35.876c-0,-19.695 16.18,-35.877 35.813,-35.877l165.442,-0c1.686,-0.749 4.107,-1.933 6.532,-3.473c1.397,-0.887 3.507,-2.801 4.454,-3.682Zm-490.099,-94.758l0,220.932l139.357,-0l-0,-220.932l-139.357,0Z" style="fill-rule:nonzero;"/>
        </g>
        <g transform="matrix(0.021631,0,0,0.0215684,21.9921,132.296)">
            <path d="M718.636,137.807c-4.067,-1.383 -7.835,-3.519 -11.107,-6.295c-41.395,-34.853 -93.508,-54.881 -148.304,-56.397l-6.671,-0.092c-133.071,-0 -241.108,108.037 -241.108,241.108c-0,133.072 108.037,241.109 241.108,241.109c71.264,0 138.049,-31.453 183.374,-84.554c3.26,-3.818 6.408,-7.747 9.438,-11.784c10.04,-13.277 28.397,-16.996 42.813,-8.674c0,0 18.699,15.542 20.642,25.058c1.943,9.516 -0.284,19.409 -6.119,27.173c-58.695,77.984 -151.09,124.781 -250.148,124.781c-172.809,0 -313.108,-140.299 -313.108,-313.109c-0,-170.113 135.956,-308.723 305.032,-313.006l12.411,-0.072c71.907,0.992 140.723,26.682 195.322,71.908c-4.027,-3.152 -4.027,-3.152 0,0c0,0 13.991,17.716 13.991,28.437c0,19.869 -16.131,36 -36,36c-5.18,0 -7.418,-0.16 -11.566,-1.591Z"/>
        </g>
        <g transform="matrix(0.0216358,0,0,0.0215429,18.4274,123.285)">
            <path d="M683.868,587.196l0,-12.873c0,-15.092 10.672,-25.446 25.764,-25.446c14.617,0 25.445,10.287 25.445,25.446l0,12.927c40.949,7.683 72.494,33.447 81.409,69.111c0.055,0.22 0.103,0.443 0.144,0.667c0.757,4.161 1.442,7.954 1.442,11.737c-0,17.411 -12.029,29.261 -28.943,29.261c-15.509,0 -24.404,-8.368 -29.574,-22.466l-0.203,-0.612c-3.932,-13.171 -12.39,-22.702 -24.275,-28.007l0,66.024c58.617,11.61 87.765,41.541 87.765,88.719c-0,50.53 -37.398,82.622 -87.765,90.641l0,13.022c0,15.159 -10.828,25.445 -25.445,25.445c-14.554,0 -25.764,-10.352 -25.764,-25.445l0,-13.694c-42.706,-7.07 -77.259,-32.994 -86.809,-70.867c-0.043,-0.169 -0.081,-0.339 -0.115,-0.51c-0.768,-3.841 -1.476,-7.689 -1.476,-11.915c0,-17.411 12.03,-29.261 28.943,-29.261c13.76,-0 24.168,7.035 29.388,23.167l0.187,0.65c3.617,14.254 13.704,25.273 29.882,30.71l0,-72.783c-55.005,-14.319 -82.358,-42.158 -82.358,-85.719c-0,-45.691 33.485,-79.108 82.358,-87.929Zm51.209,186.801l0,60.182c17.908,-4.916 27.334,-15.685 27.334,-30.269c0,-14.525 -7.939,-23.355 -27.334,-29.913Zm-51.209,-127.417c-13.682,5.334 -22.246,14.85 -22.246,26.637c0,11.97 7.508,19.835 22.246,25.829l0,-52.466Z" style="fill-rule:nonzero;"/>
        </g>
        <g transform="matrix(0.0216381,0,0,0.0215231,21.6095,131.168)">
            <path d="M915.519,332.251l-18.91,-18.996c-12.253,-12.474 -13.776,-33.927 -3.594,-48.12c6.733,-9.386 17.916,-14.81 29.581,-15.008c9.632,-0.055 19.232,3.564 26.341,10.421c27.62,27.365 55.052,54.923 82.459,82.838c13.23,13.847 13.118,37.941 -0.166,51.841c-27.243,27.746 -54.652,55.331 -82.299,82.672c-0.064,0.064 -0.128,0.126 -0.193,0.189c-6.96,6.673 -16.633,10.347 -26.231,10.227c-20.508,-0.257 -33.175,-15.323 -35.578,-32.006c-1.606,-11.141 1.623,-22.697 9.501,-30.94c6.319,-6.433 12.676,-12.827 19.047,-19.207l-175.14,0l-0.104,-0c-10.119,-0.06 -19.943,-4.092 -26.785,-11.317c-11.162,-11.788 -12.015,-27.487 -6.044,-40.382c5.882,-12.702 18.446,-21.905 32.547,-22.181c58.524,-0.381 117.049,-0.119 175.568,-0.031Z" style="fill-rule:nonzero;"/>
        </g>
    </g>
</svg>
