<?xml version="1.0" encoding="UTF-8" standalone="no"?>
<!DOCTYPE svg PUBLIC "-//W3C//DTD SVG 1.1//EN" "http://www.w3.org/Graphics/SVG/1.1/DTD/svg11.dtd">
<svg width="100%" height="100%" viewBox="0 0 1024 1024" version="1.1" xmlns="http://www.w3.org/2000/svg" xmlns:xlink="http://www.w3.org/1999/xlink" xml:space="preserve" xmlns:serif="http://www.serif.com/" style="fill-rule:evenodd;clip-rule:evenodd;stroke-linejoin:round;stroke-miterlimit:2;">
    <g id="link" transform="matrix(9.88873,0,0,9.86721,-111.115,863.682)">
        <path d="M62.402,-15.527l6.495,-6.592c-6.446,-0.488 -10.645,-2.442 -13.819,-5.615c-8.545,-8.545 -8.496,-20.655 -0.049,-29.102l15.918,-15.918c8.545,-8.496 20.557,-8.545 29.102,0c8.545,8.545 8.447,20.606 0,29.053l-9.571,9.57c1.368,3.125 1.661,6.738 1.172,9.912l14.356,-14.306c11.67,-11.719 11.767,-28.272 -0.049,-40.137c-11.865,-11.865 -28.467,-11.768 -40.185,-0.049l-16.651,16.699c-11.719,11.719 -11.816,28.321 0.049,40.137c3.076,3.076 6.982,5.273 13.232,6.348Zm1.221,-40.235l-6.494,6.592c6.445,0.537 10.644,2.442 13.818,5.615c8.545,8.545 8.496,20.655 0.049,29.102l-15.967,15.918c-8.496,8.496 -20.507,8.545 -29.052,0.049c-8.545,-8.594 -8.496,-20.606 -0,-29.102l9.57,-9.57c-1.367,-3.076 -1.709,-6.738 -1.172,-9.912l-14.355,14.306c-11.67,11.719 -11.768,28.321 0.048,40.137c11.866,11.865 28.467,11.768 40.137,0.098l16.699,-16.748c11.719,-11.719 11.817,-28.321 -0.048,-40.137c-3.077,-3.076 -6.983,-5.273 -13.233,-6.348Z" style="fill-rule:nonzero;"/>
    </g>
</svg>
