<?xml version="1.0" encoding="UTF-8" standalone="no"?>
<!DOCTYPE svg PUBLIC "-//W3C//DTD SVG 1.1//EN" "http://www.w3.org/Graphics/SVG/1.1/DTD/svg11.dtd">
<svg width="100%" height="100%" viewBox="0 0 1024 1024" version="1.1" xmlns="http://www.w3.org/2000/svg" xmlns:xlink="http://www.w3.org/1999/xlink" xml:space="preserve" xmlns:serif="http://www.serif.com/" style="fill-rule:evenodd;clip-rule:evenodd;stroke-linejoin:round;stroke-miterlimit:2;">
    <g id="link" transform="matrix(1,0,0,1,-2.93234,43.8878)">
        <g transform="matrix(32,0,0,32,2.93234,-43.8878)">
            <path d="M20,10.667l4,-0c2.926,-0 5.333,2.407 5.333,5.333c0,2.926 -2.407,5.333 -5.333,5.333l-4,0c-0.736,0 -1.333,0.598 -1.333,1.334c-0,0.736 0.597,1.333 1.333,1.333l4,-0c4.389,-0 8,-3.611 8,-8c0,-4.389 -3.611,-8 -8,-8l-4,0c-0.736,-0 -1.333,0.597 -1.333,1.333c-0,0.736 0.597,1.334 1.333,1.334Zm-8,10.666l-4,0c-2.926,0 -5.333,-2.407 -5.333,-5.333c-0,-2.926 2.407,-5.333 5.333,-5.333c-0,-0 4,-0 4,-0c0.736,-0 1.333,-0.598 1.333,-1.334c0,-0.736 -0.597,-1.333 -1.333,-1.333l-4,0c-4.389,0 -8,3.611 -8,8c0,4.389 3.611,8 8,8c-0,-0 4,-0 4,-0c0.736,-0 1.333,-0.597 1.333,-1.333c0,-0.736 -0.597,-1.334 -1.333,-1.334Z"/>
        </g>
        <g transform="matrix(32,0,0,32,2.93234,-43.8878)">
            <path d="M10.667,17.333l10.666,0c0.736,0 1.334,-0.597 1.334,-1.333c-0,-0.736 -0.598,-1.333 -1.334,-1.333l-10.666,-0c-0.736,-0 -1.334,0.597 -1.334,1.333c0,0.736 0.598,1.333 1.334,1.333Z"/>
        </g>
    </g>
</svg>
