<?xml version="1.0" encoding="UTF-8" standalone="no"?>
<!DOCTYPE svg PUBLIC "-//W3C//DTD SVG 1.1//EN" "http://www.w3.org/Graphics/SVG/1.1/DTD/svg11.dtd">
<svg width="100%" height="100%" viewBox="0 0 1024 1024" version="1.1" xmlns="http://www.w3.org/2000/svg" xmlns:xlink="http://www.w3.org/1999/xlink" xml:space="preserve" xmlns:serif="http://www.serif.com/" style="fill-rule:evenodd;clip-rule:evenodd;stroke-linejoin:round;stroke-miterlimit:2;">
    <g id="phone" transform="matrix(10.7215,0,0,10.7215,-120.4,888.411)">
        <path d="M82.227,12.647c8.545,-0.001 14.16,-2.295 19.091,-7.862c0.391,-0.39 0.782,-0.83 1.123,-1.221c2.93,-3.271 4.297,-6.494 4.297,-9.57c-0,-3.515 -2.05,-6.787 -6.396,-9.814l-14.209,-9.864c-4.395,-3.027 -9.522,-3.369 -13.623,0.684l-3.76,3.76c-1.123,1.123 -2.1,1.172 -3.174,0.488c-2.636,-1.66 -7.959,-6.299 -11.572,-9.912c-3.809,-3.76 -7.471,-7.959 -9.424,-11.035c-0.635,-1.123 -0.586,-2.051 0.537,-3.174l3.711,-3.76c4.102,-4.101 3.76,-9.277 0.733,-13.623l-9.864,-14.209c-3.027,-4.346 -6.299,-6.347 -9.814,-6.396c-3.076,-0.049 -6.299,1.367 -9.57,4.297c-0.44,0.39 -0.831,0.732 -1.221,1.074c-5.567,4.98 -7.861,10.596 -7.861,19.043c-0,13.965 8.593,30.957 24.365,46.728c15.674,15.674 32.715,24.366 46.631,24.366Zm0.048,-7.52c-12.451,0.244 -28.418,-9.326 -41.064,-21.924c-12.744,-12.695 -22.754,-29.199 -22.51,-41.65c0.098,-5.371 2.002,-10.01 5.811,-13.33c0.342,-0.293 0.586,-0.537 0.928,-0.782c1.464,-1.269 3.027,-1.953 4.443,-1.953c1.416,0 2.685,0.537 3.613,2.002l9.473,14.209c1.025,1.514 1.123,3.223 -0.391,4.736l-4.297,4.297c-3.369,3.37 -3.125,7.471 -0.683,10.743c2.783,3.759 7.617,9.228 11.377,12.939c3.71,3.76 9.619,9.033 13.427,11.865c3.272,2.442 7.373,2.686 10.742,-0.683l4.297,-4.297c1.514,-1.514 3.174,-1.416 4.737,-0.44l14.209,9.473c1.465,0.977 2.002,2.197 2.002,3.662c-0,1.416 -0.684,2.979 -1.953,4.444c-0.293,0.341 -0.489,0.585 -0.782,0.927c-3.32,3.809 -7.959,5.664 -13.379,5.762Z" style="fill-rule:nonzero;"/>
    </g>
</svg>
