<?xml version="1.0" encoding="UTF-8" standalone="no"?>
<!DOCTYPE svg PUBLIC "-//W3C//DTD SVG 1.1//EN" "http://www.w3.org/Graphics/SVG/1.1/DTD/svg11.dtd">
<svg width="100%" height="100%" viewBox="0 0 1024 1024" version="1.1" xmlns="http://www.w3.org/2000/svg" xmlns:xlink="http://www.w3.org/1999/xlink" xml:space="preserve" xmlns:serif="http://www.serif.com/" style="fill-rule:evenodd;clip-rule:evenodd;stroke-linejoin:round;stroke-miterlimit:2;">
    <g id="platform" transform="matrix(1.02325,0,0,1.02325,-13.5186,-7.79923)">
        <g transform="matrix(34.7146,0,0,34.7146,-41.8575,-47.4469)">
            <path d="M16.483,1.7c-0.304,-0.152 -0.662,-0.152 -0.966,0l-13.333,6.667c-0.366,0.183 -0.598,0.557 -0.598,0.966c0,0.409 0.232,0.784 0.598,0.967l13.333,6.666c0.304,0.152 0.662,0.152 0.966,0l13.333,-6.666c0.366,-0.183 0.598,-0.558 0.598,-0.967c-0,-0.409 -0.232,-0.783 -0.598,-0.966l-13.333,-6.667Zm-11.401,7.633l10.918,5.459l10.918,-5.459l-10.918,-5.459l-10.918,5.459Z"/>
        </g>
        <g transform="matrix(34.7146,0,0,34.7146,-41.8575,-47.4469)">
            <path d="M16,28.126l12.85,-6.426c0.533,-0.266 1.183,-0.05 1.45,0.484c0.266,0.533 0.05,1.182 -0.484,1.449l-13.333,6.667c-0.304,0.152 -0.662,0.152 -0.966,-0l-13.333,-6.667c-0.534,-0.267 -0.75,-0.916 -0.484,-1.449c0.267,-0.534 0.917,-0.75 1.45,-0.484l12.85,6.426Z"/>
        </g>
        <g transform="matrix(34.7146,0,0,34.7146,-41.8575,-47.4469)">
            <path d="M16,21.459l12.85,-6.425c0.533,-0.267 1.183,-0.05 1.45,0.483c0.266,0.533 0.05,1.183 -0.484,1.449l-13.333,6.667c-0.304,0.152 -0.662,0.152 -0.966,-0l-13.333,-6.667c-0.534,-0.266 -0.75,-0.916 -0.484,-1.449c0.267,-0.533 0.917,-0.75 1.45,-0.483l12.85,6.425Z"/>
        </g>
    </g>
</svg>
