<?xml version="1.0" encoding="UTF-8" standalone="no"?>
<!DOCTYPE svg PUBLIC "-//W3C//DTD SVG 1.1//EN" "http://www.w3.org/Graphics/SVG/1.1/DTD/svg11.dtd">
<svg width="100%" height="100%" viewBox="0 0 1024 1024" version="1.1" xmlns="http://www.w3.org/2000/svg" xmlns:xlink="http://www.w3.org/1999/xlink" xml:space="preserve" xmlns:serif="http://www.serif.com/" style="fill-rule:evenodd;clip-rule:evenodd;stroke-linejoin:round;stroke-miterlimit:2;">
    <g id="buyback" transform="matrix(10.3819,0,0,10.3819,-104.427,864.317)">
        <g transform="matrix(0.0963212,0,0,0.0963212,10.0586,-83.252)">
            <path d="M512,1024c8.11,0 21.291,-3.042 33.964,-10.139c288.444,-161.711 387.295,-230.146 387.295,-415.176l0,-387.802c0,-53.227 -22.812,-69.956 -65.901,-88.205c-59.818,-24.84 -252.958,-94.29 -312.775,-115.073c-13.688,-4.563 -28.389,-7.605 -42.583,-7.605c-14.194,0 -28.895,4.056 -42.075,7.605c-59.818,17.235 -253.465,90.74 -313.283,115.073c-42.582,17.742 -65.901,34.978 -65.901,88.205l-0,387.802c-0,185.03 99.358,252.958 387.295,415.176c13.179,7.097 25.854,10.139 33.964,10.139Zm-0,-92.262c-8.11,0 -16.222,-3.041 -31.429,-12.166c-234.202,-141.941 -309.228,-183.509 -309.228,-339.644l-0,-353.837c-0,-17.236 3.042,-23.825 17.236,-29.401c77.053,-30.416 226.597,-80.602 303.144,-111.018c8.11,-3.042 14.701,-4.563 20.277,-4.563c5.576,-0 12.167,1.521 20.277,4.563c76.547,30.416 225.077,84.15 303.652,111.018c13.686,5.068 16.728,12.165 16.728,29.401l0,353.837c0,156.135 -75.026,197.197 -309.228,339.644c-14.701,9.125 -23.319,12.166 -31.429,12.166Z" style="fill-rule:nonzero;"/>
        </g>
        <g transform="matrix(0.0948834,0,0,0.0951606,11.2726,-83.015)">
            <path d="M575.348,375.688c13.226,-12.64 34.135,-13.839 49.077,-4.435l-0.003,-87.733l-92.05,-0.006c9.584,15.155 7.728,36.171 -4.899,49.252c-30.924,31.233 -62.046,62.273 -93.364,93.112c-0.081,0.08 -0.163,0.16 -0.246,0.239c-8.615,8.275 -20.871,12.279 -32.622,10.732c-15.972,-2.101 -27.494,-13.241 -31.949,-27.106c-4.385,-13.648 -1.297,-29.157 8.959,-39.781c21.56,-21.778 43.338,-43.339 65.075,-64.944l-33.497,-33.41c-15.301,-15.695 -13.77,-36.715 -2.946,-51.143c7.263,-9.681 18.635,-15.791 30.731,-15.959l0.253,-0.002c72.076,-0.338 154.353,-0.439 226.428,0.015c0.116,0.001 0.233,0.002 0.349,0.005c21.295,0.404 38.467,18.605 38.853,39.165c0.46,72.005 1.061,150.133 -0.013,222.394c-0.514,21.067 -16.037,34.987 -33.662,37.744c-11.926,1.866 -24.297,-1.63 -33.353,-10.249c-11.593,-11.241 -22.973,-22.698 -34.352,-34.154l-163.853,152.397c-13.217,12.639 -34.131,13.804 -49.074,4.42l-0,81.634l98.109,0.006c-9.737,-15.275 -7.667,-36.217 4.925,-49.257c30.928,-31.233 62.053,-62.274 93.37,-93.12c0.084,-0.083 0.168,-0.165 0.253,-0.247c11.423,-10.965 28.999,-13.949 43.174,-7.809c24.386,10.561 30.335,45.419 12.43,63.974c-21.563,21.774 -43.339,43.338 -65.077,64.944l33.51,33.424c12.276,12.587 13.624,29.522 7.274,43.507c-6.208,13.676 -19.887,23.314 -35.227,23.6c-72.094,0.453 -160.512,0.428 -232.606,-0.015c-0.118,-0.001 -0.235,-0.003 -0.353,-0.005c-21.295,-0.404 -38.467,-18.628 -38.853,-39.166c-0.456,-71.875 -0.277,-143.753 0,-215.888c0.279,-21.118 15.78,-35.253 33.501,-38.11c11.991,-1.934 24.439,1.555 33.521,10.2c11.595,11.241 22.905,22.785 34.32,34.208l163.887,-152.433Zm-137.084,236.133c0.14,-0.133 0.278,-0.267 0.415,-0.402l-0.584,0.56l0.169,-0.158Zm137.084,-236.133c-0.135,0.128 -0.268,0.257 -0.4,0.387l0.566,-0.542l-0.166,0.155Z"/>
        </g>
    </g>
</svg>
