<?xml version="1.0" encoding="UTF-8" standalone="no"?>
<!DOCTYPE svg PUBLIC "-//W3C//DTD SVG 1.1//EN" "http://www.w3.org/Graphics/SVG/1.1/DTD/svg11.dtd">
<svg width="100%" height="100%" viewBox="0 0 1024 1024" version="1.1" xmlns="http://www.w3.org/2000/svg" xmlns:xlink="http://www.w3.org/1999/xlink" xml:space="preserve" xmlns:serif="http://www.serif.com/" style="fill-rule:evenodd;clip-rule:evenodd;stroke-linejoin:round;stroke-miterlimit:2;">
    <g id="protection_fund">
        <path d="M512,1024c8.11,0 21.291,-3.042 33.964,-10.139c288.444,-161.711 387.295,-230.146 387.295,-415.176l0,-387.802c0,-53.227 -22.812,-69.956 -65.901,-88.205c-59.818,-24.84 -252.958,-94.29 -312.775,-115.073c-13.688,-4.563 -28.389,-7.605 -42.583,-7.605c-14.194,0 -28.895,4.056 -42.075,7.605c-59.818,17.235 -253.465,90.74 -313.283,115.073c-42.582,17.742 -65.901,34.978 -65.901,88.205l-0,387.802c-0,185.03 99.358,252.958 387.295,415.176c13.179,7.097 25.854,10.139 33.964,10.139Zm-0,-92.262c-8.11,0 -16.222,-3.041 -31.429,-12.166c-234.202,-141.941 -309.228,-183.509 -309.228,-339.644l-0,-353.837c-0,-17.236 3.042,-23.825 17.236,-29.401c77.053,-30.416 226.597,-80.602 303.144,-111.018c8.11,-3.042 14.701,-4.563 20.277,-4.563c5.576,-0 12.167,1.521 20.277,4.563c76.547,30.416 225.077,84.15 303.652,111.018c13.686,5.068 16.728,12.165 16.728,29.401l0,353.837c0,156.135 -75.026,197.197 -309.228,339.644c-14.701,9.125 -23.319,12.166 -31.429,12.166Z" style="fill-rule:nonzero;"/>
        <g transform="matrix(0.889767,0,0,0.908642,54.5494,32.5664)">
            <path d="M363.064,354.35c-6.725,-31.779 -19.136,-82.824 -31.307,-112.065c-5.311,-12.408 -3.583,-26.789 4.375,-37.43c7.98,-10.811 21.117,-16.493 34.377,-14.894c84.899,10.263 202.336,10.263 287.1,0.017c13.084,-1.657 26.11,3.789 34.203,14.352c8.191,10.716 10.03,25.11 4.907,37.381c-12.091,29.593 -24.391,80.874 -31.144,112.811c8.976,2.089 15.625,6.431 20.532,13.344c3.668,5.169 6.838,12.592 6.838,24.356c0,6 -0.953,10.479 -2.287,13.896c52.866,57.442 93.159,121.043 93.153,181.423c1.501,66.603 -29.281,129.908 -82.051,169.206c-45.699,35.109 -118.011,55.185 -187.633,55.185c-69.625,0 -141.939,-20.079 -187.345,-54.967c-53.069,-39.523 -83.84,-102.835 -82.346,-168.873c-0,-60.9 40.3,-124.482 93.135,-181.932c-1.278,-3.374 -2.216,-7.834 -2.216,-13.893c-0,-11.769 3.163,-19.222 6.844,-24.423c4.967,-7.015 11.724,-11.4 20.865,-13.494Zm252.794,74.881l-203.461,-0c-29.616,30.112 -56.985,65.123 -74.618,98.712c-11.289,21.504 -18.708,42.147 -18.708,60.149c0,105.021 102.731,148.602 195.056,148.602c92.325,0 195.055,-43.581 195.055,-148.602c0,-18.049 -7.417,-38.704 -18.707,-60.204c-17.633,-33.581 -45.002,-68.552 -74.617,-98.657Zm-8.827,-159.018c-58.146,3.643 -127.344,3.645 -185.502,0.007c8.842,30.124 14.131,59.127 17.112,78.855l151.263,0c3.024,-19.678 8.325,-48.687 17.127,-78.862Z" style="fill-rule:nonzero;"/>
        </g>
    </g>
</svg>
