<?xml version="1.0" encoding="UTF-8" standalone="no"?>
<!DOCTYPE svg PUBLIC "-//W3C//DTD SVG 1.1//EN" "http://www.w3.org/Graphics/SVG/1.1/DTD/svg11.dtd">
<svg width="100%" height="100%" viewBox="0 0 1024 1024" version="1.1" xmlns="http://www.w3.org/2000/svg" xmlns:xlink="http://www.w3.org/1999/xlink" xml:space="preserve" xmlns:serif="http://www.serif.com/" style="fill-rule:evenodd;clip-rule:evenodd;stroke-linejoin:round;stroke-miterlimit:2;">
    <g id="protection_personal" transform="matrix(0.973255,0,0,0.973255,7.29197,20.1502)">
        <g transform="matrix(1.02748,0,0,1.02748,-7.49236,-20.7039)">
            <path d="M512,1024c8.11,0 21.291,-3.042 33.964,-10.139c288.444,-161.711 387.295,-230.146 387.295,-415.176l0,-387.802c0,-53.227 -22.812,-69.956 -65.901,-88.205c-59.818,-24.84 -252.958,-94.29 -312.775,-115.073c-13.688,-4.563 -28.389,-7.605 -42.583,-7.605c-14.194,0 -28.895,4.056 -42.075,7.605c-59.818,17.235 -253.465,90.74 -313.283,115.073c-42.582,17.742 -65.901,34.978 -65.901,88.205l-0,387.802c-0,185.03 99.358,252.958 387.295,415.176c13.179,7.097 25.854,10.139 33.964,10.139Zm-0,-92.262c-8.11,0 -16.222,-3.041 -31.429,-12.166c-234.202,-141.941 -309.228,-183.509 -309.228,-339.644l-0,-353.837c-0,-17.236 3.042,-23.825 17.236,-29.401c77.053,-30.416 226.597,-80.602 303.144,-111.018c8.11,-3.042 14.701,-4.563 20.277,-4.563c5.576,-0 12.167,1.521 20.277,4.563c76.547,30.416 225.077,84.15 303.652,111.018c13.686,5.068 16.728,12.165 16.728,29.401l0,353.837c0,156.135 -75.026,197.197 -309.228,339.644c-14.701,9.125 -23.319,12.166 -31.429,12.166Z" style="fill-rule:nonzero;"/>
        </g>
        <g transform="matrix(1.02748,0,0,1.02748,-7.49236,-20.7039)">
            <path d="M504.879,550.219l1.997,-0c25.055,0.146 50.161,3.756 74.253,10.856c73.255,21.602 135.019,75.95 166.438,145.305c2.391,5.279 4.806,10.71 5.954,15.877c1.658,7.459 1.361,14.745 -1.167,21.802c-3.803,10.578 -8.877,19.927 -27.705,24.434c-16.503,3.948 -35.722,-5.763 -43.026,-21.997c-0.048,-0.106 -0.095,-0.213 -0.141,-0.32c0,-0 -0.173,-0.41 -0.284,-0.679c-9.028,-22.423 -22.174,-42.956 -38.779,-60.312c-38.515,-40.269 -95.013,-61.453 -150.199,-57.406c-70.941,5.199 -133.829,52.179 -160.45,116.093c-6.211,15.001 -19.202,24.515 -34.198,25.409c-29.436,1.755 -47.881,-29.393 -38.234,-53.006c10.086,-24.748 23.69,-47.867 40.469,-68.485c49.85,-61.274 127.164,-97.294 205.072,-97.571Z"/>
        </g>
        <g transform="matrix(1.02748,0,0,1.02748,-7.43206,-20.7039)">
            <path d="M505.597,203.592c-89.806,-0 -162.717,72.911 -162.717,162.717c-0,89.805 72.911,162.721 162.717,162.721c89.805,-0 162.721,-72.916 162.721,-162.721c-0,-89.806 -72.916,-162.717 -162.721,-162.717Zm-0,71.3c50.457,-0 91.421,40.963 91.421,91.417c-0,50.457 -40.964,91.421 -91.421,91.421c-50.454,-0 -91.417,-40.964 -91.417,-91.421c-0,-50.454 40.963,-91.417 91.417,-91.417Z"/>
        </g>
    </g>
</svg>
