<?xml version="1.0" encoding="UTF-8" standalone="no"?>
<!DOCTYPE svg PUBLIC "-//W3C//DTD SVG 1.1//EN" "http://www.w3.org/Graphics/SVG/1.1/DTD/svg11.dtd">
<svg width="100%" height="100%" viewBox="0 0 1024 1024" version="1.1" xmlns="http://www.w3.org/2000/svg" xmlns:xlink="http://www.w3.org/1999/xlink" xml:space="preserve" xmlns:serif="http://www.serif.com/" style="fill-rule:evenodd;clip-rule:evenodd;stroke-linejoin:round;stroke-miterlimit:2;">
    <g id="protection_collateral" transform="matrix(5.70841,0,0,5.70841,173.121,684.014)">
        <g transform="matrix(0.17518,0,0,0.17518,-30.3273,-119.826)">
            <path d="M512,1024c8.11,0 21.291,-3.042 33.964,-10.139c288.444,-161.711 387.295,-230.146 387.295,-415.176l0,-387.802c0,-53.227 -22.812,-69.956 -65.901,-88.205c-59.818,-24.84 -252.958,-94.29 -312.775,-115.073c-13.688,-4.563 -28.389,-7.605 -42.583,-7.605c-14.194,0 -28.895,4.056 -42.075,7.605c-59.818,17.235 -253.465,90.74 -313.283,115.073c-42.582,17.742 -65.901,34.978 -65.901,88.205l-0,387.802c-0,185.03 99.358,252.958 387.295,415.176c13.179,7.097 25.854,10.139 33.964,10.139Zm-0,-92.262c-8.11,0 -16.222,-3.041 -31.429,-12.166c-234.202,-141.941 -309.228,-183.509 -309.228,-339.644l-0,-353.837c-0,-17.236 3.042,-23.825 17.236,-29.401c77.053,-30.416 226.597,-80.602 303.144,-111.018c8.11,-3.042 14.701,-4.563 20.277,-4.563c5.576,-0 12.167,1.521 20.277,4.563c76.547,30.416 225.077,84.15 303.652,111.018c13.686,5.068 16.728,12.165 16.728,29.401l0,353.837c0,156.135 -75.026,197.197 -309.228,339.644c-14.701,9.125 -23.319,12.166 -31.429,12.166Z" style="fill-rule:nonzero;"/>
        </g>
        <g transform="matrix(0.17518,0,0,0.17518,-32.2796,-119.79)">
            <path d="M672.827,698.527l-0,-211.113c-0,-1.113 0.088,-2.224 0.265,-3.323c1.043,-6.489 1.333,-8.352 5.401,-13.84c7.427,-10.021 21.455,-14.051 32.855,-9.962c1.832,0.657 3.531,1.643 5.234,2.583c0.976,0.538 1.907,1.153 2.784,1.839c0,0 13.734,10.74 13.734,10.74c0.832,0.65 1.613,1.363 2.337,2.131c4.28,4.54 5.497,5.819 7.421,11.991c0.549,1.76 0.791,3.606 1.068,5.429c0.057,0.374 0.1,0.749 0.129,1.126l0.067,0.894l0.043,1.132c-0,78.797 0.514,157.596 -0.005,236.666c-0.361,18.319 -16.149,34.715 -35.337,35.084c-43.708,0.286 -87.418,0.286 -131.394,-0.004c-18.25,-0.353 -34.698,-15.85 -35.073,-35.357c-0.181,-27.669 0.083,-55.34 -0.001,-82.879c-0.094,-10.039 -8.758,-19.229 -19.267,-19.229c-10.007,-0 -19.168,8.722 -19.265,19.1c-0.086,27.669 0.178,55.34 -0.006,83.276c-0.352,18.257 -16.148,34.724 -35.337,35.093c-43.708,0.286 -87.418,0.286 -131.394,-0.004c-18.498,-0.358 -34.948,-16.291 -35.074,-35.521c0,-0.046 -0,-0.091 -0,-0.137c-0,0 -0,-236.088 -0,-236.088c-0,-1.055 0.08,-2.109 0.239,-3.152c0.939,-6.17 1.197,-7.917 4.87,-13.233c1.049,-1.518 2.354,-2.845 3.619,-4.187c0.724,-0.768 1.505,-1.481 2.337,-2.131c-0,0 13.734,-10.74 13.734,-10.74c0.877,-0.686 1.808,-1.301 2.783,-1.839c5.757,-3.175 7.404,-4.094 14.236,-4.264c4.986,-0.125 9.894,1.334 14.431,3.549c2.005,0.979 3.84,2.272 5.437,3.831c1.392,1.359 2.827,2.7 3.986,4.263c4.067,5.488 4.357,7.351 5.401,13.84c0.176,1.099 0.265,2.21 0.265,3.323l0,211.113l59.134,0l-0,-46.872c0.094,-29.767 15.734,-58.938 40.377,-75.39c33.503,-22.369 82.224,-19.282 112.743,9.843c17.664,16.858 28.01,41.004 28.089,65.546c0,0.023 0,0.045 0,0.067l0,46.806l59.134,0Z"/>
        </g>
        <g transform="matrix(0.17518,0,0,0.17518,-32.2796,-119.79)">
            <path d="M240.112,420.017l0.278,-0.226c0,0 260.69,-205.71 260.69,-205.71c0.718,-0.567 1.472,-1.085 2.258,-1.553c0.055,-0.033 0.11,-0.065 0.165,-0.097c0,0 7.842,-4.339 14.34,-5.271c1.821,-0.261 2.405,-0.396 5.685,-0.39l0.349,0.004c6.5,0.121 12.897,1.889 18.452,5.223c0.381,0.229 0.754,0.47 1.12,0.722c-0,0 0.825,0.57 0.825,0.57c0.366,0.253 0.723,0.517 1.072,0.792c0,0 260.558,205.607 260.558,205.607l0.339,0.283c1.429,1.112 3.494,2.901 5.121,4.802c13.226,15.449 10.398,42.61 -8.777,53.919c-12.348,7.283 -28.931,6.431 -40.432,-2.46c-0.055,-0.042 -0.109,-0.085 -0.163,-0.127l-238.779,-188.379l-238.779,188.379c-0.055,0.043 -0.11,0.086 -0.165,0.128c-2.314,1.789 -3.037,2.169 -4.655,3.055c-16.917,9.269 -41.225,2.739 -49.794,-16.167c-6.572,-14.5 -2.226,-33.265 10.292,-43.104Z"/>
        </g>
    </g>
</svg>
