<?xml version="1.0" encoding="UTF-8" standalone="no"?>
<!DOCTYPE svg PUBLIC "-//W3C//DTD SVG 1.1//EN" "http://www.w3.org/Graphics/SVG/1.1/DTD/svg11.dtd">
<svg width="100%" height="100%" viewBox="0 0 1024 1024" version="1.1" xmlns="http://www.w3.org/2000/svg" xmlns:xlink="http://www.w3.org/1999/xlink" xml:space="preserve" xmlns:serif="http://www.serif.com/" style="fill-rule:evenodd;clip-rule:evenodd;stroke-linejoin:round;stroke-miterlimit:2;">
    <g id="Settings" transform="matrix(6.0717,0,0,6.06887,27.2341,277.516)">
        <g transform="matrix(3.24396,0,0,3.24646,-8.29687,-37.281)">
            <path d="M10.49,5.51l0.361,-2.566c0.003,-0.02 0.006,-0.04 0.009,-0.06c0.207,-1.181 1.229,-2.059 2.428,-2.085c0.013,-0 0.026,-0 0.039,-0l5.346,-0c0.011,-0 0.021,-0 0.032,0c1.175,0.02 2.188,0.861 2.425,2.012c0.008,0.038 0.014,0.076 0.02,0.114l0.36,2.561c0.281,0.149 0.556,0.31 0.823,0.481l2.4,-0.966c0.011,-0.004 0.021,-0.009 0.032,-0.013c1.132,-0.431 2.422,0.019 3.041,1.06c0.004,0.007 0.008,0.013 0.011,0.019c0,0 2.673,4.625 2.671,4.621c0.612,1.053 0.371,2.408 -0.567,3.185c-0.012,0.01 -0.025,0.019 -0.037,0.029l-2.046,1.606c0.008,0.164 0.013,0.328 0.013,0.492l-0,0.011c-0.001,0.155 -0.005,0.31 -0.013,0.465l2.043,1.603c0.013,0.01 0.026,0.02 0.039,0.031c0.937,0.776 1.178,2.129 0.569,3.179l-2.674,4.625c-0.003,0.006 -0.006,0.012 -0.01,0.018c-0.618,1.042 -1.908,1.492 -3.041,1.062c-0.011,-0.004 -0.022,-0.009 -0.033,-0.013l-2.403,-0.968c-0.267,0.17 -0.54,0.329 -0.818,0.477l-0.361,2.566c-0.003,0.02 -0.006,0.04 -0.009,0.06c-0.207,1.181 -1.229,2.059 -2.428,2.085c-0.013,0 -0.026,0 -0.039,0l-5.346,0c-0.011,0 -0.021,0 -0.032,-0c-1.175,-0.02 -2.188,-0.861 -2.425,-2.012c-0.008,-0.038 -0.014,-0.076 -0.02,-0.114l-0.36,-2.561c-0.281,-0.149 -0.556,-0.31 -0.823,-0.481l-2.4,0.966c-0.011,0.004 -0.021,0.009 -0.032,0.013c-1.132,0.431 -2.422,-0.019 -3.041,-1.06c-0.004,-0.007 -0.008,-0.013 -0.011,-0.019c-0,-0 -2.673,-4.625 -2.671,-4.621c-0.612,-1.053 -0.371,-2.408 0.567,-3.185c0.012,-0.01 0.025,-0.019 0.037,-0.029l2.041,-1.603c-0.008,-0.165 -0.013,-0.331 -0.013,-0.497c0,-0.16 0.004,-0.32 0.012,-0.477l-2.044,-1.605c-0.017,-0.013 -0.034,-0.027 -0.051,-0.041c-0.922,-0.78 -1.154,-2.122 -0.55,-3.164l2.674,-4.625c0.003,-0.006 0.006,-0.012 0.01,-0.018c0.618,-1.042 1.908,-1.492 3.041,-1.062c0.011,0.004 0.022,0.009 0.033,0.013l2.403,0.968c0.267,-0.17 0.54,-0.329 0.818,-0.477Zm3.837,-1.059l-0.279,1.992c-0.13,0.931 -0.717,1.739 -1.564,2.15c-0.385,0.187 -0.755,0.402 -1.099,0.639c-0.78,0.544 -1.784,0.66 -2.667,0.308c-0.003,-0.001 -0.005,-0.002 -0.007,-0.003l-1.868,-0.752l-1.67,2.89l1.581,1.243c0.749,0.587 1.153,1.514 1.073,2.462c-0.001,0.004 -0.001,0.008 -0.001,0.011c-0.019,0.201 -0.029,0.402 -0.029,0.607c-0,0.208 0.011,0.416 0.028,0.61c0.09,0.952 -0.309,1.887 -1.058,2.482c-0.002,0.002 -0.005,0.004 -0.007,0.006l-1.589,1.247l1.67,2.89l1.868,-0.752c0.883,-0.355 1.888,-0.241 2.672,0.305c0.346,0.241 0.71,0.454 1.08,0.633c0.855,0.407 1.45,1.216 1.585,2.153c0.001,0.002 0.001,0.004 0.001,0.006l0.277,1.971l3.349,0l0.279,-1.992c0.13,-0.931 0.717,-1.739 1.564,-2.15c0.385,-0.187 0.755,-0.402 1.099,-0.639c0.78,-0.544 1.784,-0.66 2.667,-0.308c0.003,0.001 0.005,0.002 0.007,0.003l1.868,0.752l1.67,-2.89l-2.025,-1.589c-0.513,-0.402 -0.773,-1.048 -0.681,-1.693c0.049,-0.348 0.075,-0.698 0.077,-1.049c-0,-0.21 -0.012,-0.419 -0.027,-0.606c-0.087,-0.953 0.315,-1.889 1.067,-2.482c0.001,-0.001 0.002,-0.001 0.002,-0.002l1.589,-1.247l-1.67,-2.89l-1.868,0.752c-0.883,0.355 -1.888,0.241 -2.672,-0.305c-0.346,-0.241 -0.71,-0.454 -1.08,-0.633c-0.855,-0.407 -1.45,-1.216 -1.585,-2.153c-0.001,-0.002 -0.001,-0.004 -0.001,-0.006l-0.277,-1.971l-3.349,-0Zm2.246,5.751c-0.191,-0.019 -0.382,-0.028 -0.573,-0.028c-3.196,-0 -5.826,2.63 -5.826,5.826c-0,3.196 2.63,5.826 5.826,5.826c3.196,0 5.826,-2.63 5.826,-5.826c0,-0.191 -0.009,-0.382 -0.028,-0.573c-0.277,-2.753 -2.472,-4.948 -5.222,-5.225l-0.003,0Zm-0.361,3.635c-0.07,-0.007 -0.141,-0.011 -0.212,-0.011c-1.193,0 -2.174,0.982 -2.174,2.174c0,1.193 0.981,2.174 2.174,2.174c1.192,-0 2.174,-0.981 2.174,-2.174c-0,-0.071 -0.004,-0.143 -0.01,-0.211c-0.104,-1.028 -0.924,-1.848 -1.952,-1.952Z"/>
        </g>
        <g transform="matrix(0.164453,0,0,0.164747,-4.03041,-45.6919)">
            <path d="M752.843,497.962l20.733,-32.582c0.215,-0.338 0.436,-0.673 0.662,-1.004c12.688,-18.54 36.942,-25.577 57.582,-16.706c0.234,0.101 0.466,0.203 0.697,0.309l78.649,35.794c0.189,0.086 0.377,0.174 0.565,0.263c19.888,9.47 30.637,31.66 25.738,53.137c-0.168,0.74 -0.361,1.475 -0.576,2.202l-10.924,36.947c1.843,2.476 3.623,4.995 5.336,7.555l38.477,1.71c0.226,0.01 0.452,0.022 0.677,0.036c22.67,1.436 41.203,19.139 43.676,41.719c0.015,0.144 0.03,0.289 0.044,0.434c0,-0 8.359,85.935 8.35,85.838c2.273,22.732 -12.373,43.983 -34.425,49.95c-0.298,0.081 -0.598,0.157 -0.898,0.23l-37.641,9.152c-0.623,1.505 -1.274,2.999 -1.95,4.484l-0.088,0.192c-0.618,1.338 -1.252,2.668 -1.907,3.989l17.808,34.324c0.149,0.288 0.294,0.577 0.436,0.869c9.959,20.535 3.562,45.507 -14.987,58.684l-70.289,50.142c-0.11,0.078 -0.22,0.155 -0.331,0.233c-18.645,12.986 -44.177,10.656 -60.162,-5.493c-0.165,-0.165 -0.327,-0.333 -0.488,-0.502l-26.605,-27.943c-3.022,0.376 -6.051,0.683 -9.084,0.916l-20.733,32.582c-0.215,0.339 -0.436,0.673 -0.663,1.004c-12.687,18.54 -36.941,25.577 -57.581,16.706c-0.234,-0.1 -0.466,-0.203 -0.697,-0.308l-78.649,-35.795c-0.189,-0.086 -0.377,-0.173 -0.565,-0.263c-19.888,-9.47 -30.637,-31.66 -25.738,-53.137c0.168,-0.74 0.36,-1.474 0.576,-2.202l10.924,-36.947c-1.843,-2.476 -3.623,-4.995 -5.336,-7.555l-38.477,-1.71c-0.226,-0.01 -0.452,-0.022 -0.677,-0.036c-22.67,-1.436 -41.203,-19.138 -43.676,-41.719c-0.016,-0.144 -0.031,-0.289 -0.045,-0.433c0,-0 -8.359,-85.936 -8.349,-85.838c-2.273,-22.732 12.373,-43.984 34.425,-49.951c0.298,-0.08 0.597,-0.157 0.898,-0.23l37.546,-9.129c0.633,-1.535 1.296,-3.056 1.984,-4.567c0.645,-1.418 1.307,-2.819 1.989,-4.198l-17.797,-34.368c-0.199,-0.385 -0.391,-0.773 -0.576,-1.164c-9.684,-20.474 -3.228,-45.183 15.182,-58.268l70.29,-50.141c0.11,-0.079 0.22,-0.156 0.331,-0.233c18.645,-12.987 44.177,-10.656 60.162,5.492c0.164,0.166 0.327,0.333 0.488,0.502l26.605,27.943c3.022,-0.376 6.051,-0.683 9.084,-0.916Zm69.701,24.577l-14.425,22.669c-9.297,14.655 -25.327,23.735 -42.714,24.175c-6.582,0.16 -13.142,0.819 -19.427,1.936c-17.261,3.168 -35.004,-2.56 -47.154,-15.222c-0.033,-0.034 -0.065,-0.068 -0.097,-0.102l-18.559,-19.496l-34.772,24.804l12.362,23.87c8.089,15.588 7.782,34.249 -0.814,49.562c-0.036,0.063 -0.071,0.126 -0.107,0.188c-1.514,2.66 -2.93,5.379 -4.22,8.214c-1.317,2.894 -2.469,5.855 -3.44,8.589c-5.768,16.679 -19.614,29.344 -36.74,33.605c-0.062,0.015 -0.124,0.03 -0.187,0.046l-26.261,6.385l4.132,42.501l26.896,1.195c17.547,0.783 33.56,10.377 42.566,25.546c3.288,5.564 7.017,10.856 11.024,15.673c11.242,13.361 15.066,31.507 10.172,48.269c-0.011,0.039 -0.023,0.078 -0.035,0.117l-7.524,25.449l38.996,17.752l14.425,-22.668c9.298,-14.656 25.328,-23.736 42.715,-24.176c6.582,-0.16 13.142,-0.819 19.427,-1.935c17.26,-3.168 35.004,2.559 47.154,15.221c0.033,0.034 0.065,0.068 0.097,0.102l18.559,19.497l34.763,-24.799l-16.569,-31.935c-5.92,-11.412 -5.306,-25.114 1.611,-35.95c2.891,-4.528 5.475,-9.246 7.732,-14.123c1.33,-2.929 2.491,-5.92 3.435,-8.52c5.815,-16.69 19.722,-29.334 36.888,-33.537l26.319,-6.4l-4.132,-42.5l-26.896,-1.196c-17.547,-0.783 -33.56,-10.377 -42.567,-25.546c-3.287,-5.564 -7.016,-10.856 -11.023,-15.672c-11.242,-13.362 -15.066,-31.508 -10.172,-48.27c0.011,-0.039 0.023,-0.078 0.034,-0.117l7.525,-25.448l-38.997,-17.753Zm-4.668,85.794c-2.858,-1.657 -5.796,-3.173 -8.802,-4.541c-50.256,-22.873 -110.432,-0.34 -133.304,49.916c-22.872,50.256 -0.339,110.431 49.917,133.304c50.256,22.872 110.431,0.339 133.303,-49.917c1.369,-3.007 2.588,-6.079 3.655,-9.206c15.357,-45.279 -3.448,-95.5 -44.718,-119.526l-0.051,-0.03Zm-36.147,62.27c-0.805,-0.467 -1.633,-0.894 -2.48,-1.279c-14.306,-6.511 -31.436,-0.097 -37.947,14.209c-6.511,14.306 -0.096,31.436 14.21,37.947c14.306,6.51 31.435,0.096 37.946,-14.21c0.39,-0.856 0.737,-1.73 1.021,-2.564c4.377,-12.905 -0.982,-27.235 -12.75,-34.103Z"/>
        </g>
    </g>
</svg>
