<?xml version="1.0" encoding="UTF-8" standalone="no"?>
<!DOCTYPE svg PUBLIC "-//W3C//DTD SVG 1.1//EN" "http://www.w3.org/Graphics/SVG/1.1/DTD/svg11.dtd">
<svg width="100%" height="100%" viewBox="0 0 1024 1024" version="1.1" xmlns="http://www.w3.org/2000/svg" xmlns:xlink="http://www.w3.org/1999/xlink" xml:space="preserve" xmlns:serif="http://www.serif.com/" style="fill-rule:evenodd;clip-rule:evenodd;stroke-linejoin:round;stroke-miterlimit:2;">
    <g id="sync" transform="matrix(10.526,0,0,10.5211,-140.475,884.067)">
        <g transform="matrix(0.1032,0,0,0.103247,-10.6998,-70.1416)">
            <path d="M278.548,690.787l179.489,101.707c36.039,20.759 71.263,21.073 108.018,-0.052c-0.09,0.052 179.399,-101.655 179.399,-101.655c0.012,-0.006 0.023,-0.013 0.034,-0.019c14.74,-8.397 25.787,-17.2 33.434,-29.32c7.612,-12.065 12.08,-27.635 12.08,-50.503c0,0 0,-200.833 0,-200.833c0,-22.426 -4.576,-37.571 -12.014,-49.182c-7.463,-11.649 -18.048,-19.939 -31.618,-27.759c-0.093,-0.053 -180.1,-102.277 -180.1,-102.277c-37.766,-21.614 -73.752,-21.272 -110.653,0.066c0.106,-0.06 -179.642,102.163 -179.642,102.163c-0.003,0.002 -0.006,0.003 -0.009,0.005c-13.731,7.82 -24.394,16.117 -31.898,27.767c-7.485,11.619 -12.07,26.774 -12.07,49.217l-0,200.833c-0,22.883 4.542,38.464 12.2,50.537c7.669,12.093 18.698,20.869 33.248,29.247l0.102,0.058Zm41.321,-65.707c-0.029,-0.016 -0.058,-0.033 -0.086,-0.049c-7.715,-4.328 -10.948,-8.072 -10.948,-15.377c0,0 0,-197.735 0,-197.735c0,-6.332 3.27,-9.499 9.605,-13.172c-0.078,0.045 173.471,-99.339 173.471,-99.339c0.002,-0.001 0.004,-0.001 0.005,-0.002c13.645,-7.82 26.198,-8.206 40.388,-0.023c0.035,0.02 173.325,99.404 173.325,99.404c0.02,0.011 0.04,0.022 0.059,0.033c6.411,3.643 9.477,6.819 9.477,13.099l0,197.735c0,7.32 -3.202,11.102 -10.798,15.44c0.025,-0.014 -171.975,97.821 -171.975,97.821c-14.547,8.178 -26.425,8.052 -40.497,0.015c-0.026,-0.015 -172.026,-97.85 -172.026,-97.85Z" style="fill-rule:nonzero;"/>
        </g>
        <g transform="matrix(0.095003,0,0,0.0950467,13.1635,-84.0277)">
            <path d="M770.427,217.257l217.761,-2.021c11.071,-0.283 20.126,3.77 26.939,10.584c7.068,7.068 11.054,16.103 10.776,26.924c-0,0 -2.026,218.044 -2.026,217.926c0.002,9.615 -4.363,20.026 -10.583,26.246c-15.211,15.211 -35.878,15.11 -50.805,0.183c-7.638,-7.638 -10.688,-16.232 -10.401,-25.066l1.107,-106.683c0.002,-0.276 0.015,-0.552 0.036,-0.827l2.258,-29.412l-17.238,18.938c-0.131,0.145 -0.267,0.287 -0.405,0.425c-0,0 -221.501,221.501 -221.501,221.501c-14.865,14.865 -36.31,14.678 -51.18,-0.193c-14.899,-14.898 -14.899,-36.098 -0.005,-50.992l221.501,-221.501c0.126,-0.126 0.254,-0.249 0.385,-0.369l19.041,-17.48l-29.662,2.277c-0.268,0.021 -0.537,0.033 -0.805,0.036c-0,-0 -106.496,1.294 -106.649,1.295c-9.272,-0.001 -17.399,-2.867 -24.935,-10.402c-14.927,-14.928 -15.028,-35.594 0.183,-50.805c6.21,-6.21 16.32,-10.746 26.208,-10.584Z"/>
        </g>
        <g transform="matrix(0.095003,0,0,0.0950467,13.3455,-84.0304)">
            <path d="M480.039,252.127l17.48,-19.042c0.121,-0.131 0.244,-0.26 0.37,-0.386c-0,0 221.501,-221.5 221.501,-221.5c14.894,-14.895 36.094,-14.894 50.992,0.005c14.87,14.87 15.058,36.314 0.192,51.179l-221.5,221.501c-0.139,0.138 -0.28,0.274 -0.425,0.405l-18.939,17.238l29.413,-2.258c0.275,-0.021 0.551,-0.033 0.827,-0.036c0,0 106.683,-1.107 106.411,-1.101c9.105,-0.293 17.699,2.757 25.337,10.395c14.642,14.641 15.029,35.595 -0.182,50.805c-6.22,6.22 -16.631,10.585 -26.128,10.583c0,0 -218.044,2.026 -217.842,2.023c-11.023,0.281 -20.059,-3.705 -27.126,-10.772c-6.716,-6.716 -10.774,-15.614 -10.776,-26.806c-0,-0.039 0,-0.079 0,-0.118c0,-0 2.028,-218.043 2.028,-217.918c-0.007,-9.64 4.535,-19.835 10.768,-26.068c15.211,-15.21 35.878,-15.109 50.806,-0.181c7.536,7.535 10.398,15.655 10.403,24.93c0,0.053 0,0.106 -0.001,0.16l-1.296,106.493c-0.004,0.268 -0.015,0.536 -0.036,0.804l-2.277,29.665Z"/>
        </g>
    </g>
</svg>
