<?xml version="1.0" encoding="UTF-8" standalone="no"?>
<!DOCTYPE svg PUBLIC "-//W3C//DTD SVG 1.1//EN" "http://www.w3.org/Graphics/SVG/1.1/DTD/svg11.dtd">
<svg width="100%" height="100%" viewBox="0 0 1024 1024" version="1.1" xmlns="http://www.w3.org/2000/svg" xmlns:xlink="http://www.w3.org/1999/xlink" xml:space="preserve" xmlns:serif="http://www.serif.com/" style="fill-rule:evenodd;clip-rule:evenodd;stroke-linejoin:round;stroke-miterlimit:2;">
    <g transform="matrix(0.988136,0,0,0.987748,9.2593,-5.50499)">
        <path d="M912.291,91.581l1.849,-0.808l1.72,-0.727c10.969,-4.52 22.92,-6.584 34.621,-6.516l0.445,0.008c34.526,1.078 65.735,25.737 73.829,62.715c6.259,28.598 -2.397,57.999 -8.63,87.466c-46.189,218.645 -90.833,437.501 -139.264,656.122c-7.264,31.144 -25.488,60.955 -55.652,70.868c-26.068,8.568 -56.422,1.008 -79.281,-13.447c-0.357,-0.225 -0.706,-0.464 -1.046,-0.715l-194.157,-143.446c-30.544,27.837 -61.084,55.634 -91.62,83.584c-21.572,19.745 -50.285,33.286 -79.686,27.569c-21.896,-4.258 -38.101,-23.775 -47.267,-44.752c-2.381,-5.449 -4.48,-11.013 -6.491,-16.607c-0.103,-0.287 -0.199,-0.577 -0.287,-0.87l-69.317,-230.059c-68.112,-21.182 -136.446,-41.942 -204.502,-63.867c-32.97,-11.071 -64.926,-37.763 -55.129,-77.073c7.004,-28.104 34.448,-47.213 62.969,-58.961l2.904,-1.185c0.103,-0.042 0.207,-0.083 0.311,-0.123l853.681,-329.176Zm-131.052,795.37c3.542,1.903 7.29,3.858 11.115,5.097c2.278,0.739 4.648,1.763 6.73,0.138c5.963,-4.65 6.56,-13.176 8.055,-20.14l145.548,-685.875c0.041,-0.193 0.085,-0.385 0.132,-0.576c0.896,-3.617 2.648,-6.594 2.537,-11.23c-0.097,-4.047 -0.325,-8.335 -1.291,-12.304c-0.619,-2.543 -1.213,-5.225 -3.754,-6.389c-3.243,-1.487 -6.858,0.767 -10.206,2.239l-0.74,0.305c-280.793,108.346 -561.082,216.32 -842.296,325.214c-2.478,0.961 -10.47,5.014 -18.322,9.086l196.421,61.311l493.703,-311.471c0.131,-0.083 0.264,-0.164 0.397,-0.244c0.556,-0.33 0.554,-0.33 1.227,-0.722c13.284,-7.622 28.327,-12.606 43.523,-12.682c0.08,0 0.16,0 0.24,0.001c0.721,0.006 0.72,0.006 1.44,0.023l0.253,0.008c29.407,1.104 53.662,33.052 36.862,64.784c-6.949,13.126 -19.926,21.866 -30.329,31.04c-28.342,25.372 -56.482,50.967 -84.723,76.452l-276.508,249.525l319.986,236.41Zm-201.331,-440.352l-256.773,161.995l66.743,221.517l0.443,1.295c1.164,3.545 1.927,7.403 2.763,11.155l0.039,0.155c6.2,-1.944 11.132,-6.955 15.84,-11.511c0.129,-0.125 0.26,-0.248 0.393,-0.369l78.381,-71.317l-104.6,-77.279c-0.488,-0.361 -0.958,-0.747 -1.406,-1.157c-0,-0 -27.245,-25.682 -3.547,-52.216c0.262,-0.294 0.534,-0.578 0.815,-0.853c-0,-0 0.739,-0.745 0.739,-0.745c0.22,-0.22 0.445,-0.435 0.676,-0.643l199.494,-180.027Z"/>
    </g>
</svg>
