<?xml version="1.0" encoding="UTF-8" standalone="no"?>
<!DOCTYPE svg PUBLIC "-//W3C//DTD SVG 1.1//EN" "http://www.w3.org/Graphics/SVG/1.1/DTD/svg11.dtd">
<svg width="100%" height="100%" viewBox="0 0 1024 1024" version="1.1" xmlns="http://www.w3.org/2000/svg" xmlns:xlink="http://www.w3.org/1999/xlink" xml:space="preserve" xmlns:serif="http://www.serif.com/" style="fill-rule:evenodd;clip-rule:evenodd;stroke-linejoin:round;stroke-miterlimit:2;">
    <g id="transfer" transform="matrix(8.87119,0,0,8.86852,-110.457,824.433)">
        <path d="M95.117,10.889c1.172,-0 2.295,-0.44 3.272,-1.416l28.173,-28.711c0.831,-0.83 1.319,-2.1 1.319,-3.174c-0,-2.588 -1.758,-4.346 -4.297,-4.346c-1.27,0 -2.197,0.44 -2.979,1.221l-13.72,14.062l-7.91,9.229l0.488,-11.426l-0,-63.33c-0,-2.539 -1.807,-4.346 -4.346,-4.346c-2.539,0 -4.394,1.807 -4.394,4.346l-0,63.33l0.537,11.426l-7.91,-9.229l-13.77,-14.062c-0.732,-0.781 -1.709,-1.221 -2.978,-1.221c-2.491,0 -4.297,1.758 -4.297,4.346c-0,1.074 0.537,2.344 1.367,3.174l28.174,28.711c0.927,0.976 2.05,1.416 3.271,1.416Zm-49.853,-0c2.539,-0 4.345,-1.807 4.345,-4.346l0,-63.33l-0.488,-11.426l7.91,9.229l13.721,14.062c0.781,0.781 1.709,1.221 2.978,1.221c2.539,-0 4.297,-1.758 4.297,-4.346c0,-1.074 -0.488,-2.344 -1.367,-3.174l-28.174,-28.711c-0.927,-0.976 -2.051,-1.416 -3.222,-1.416c-1.221,0 -2.344,0.44 -3.272,1.416l-28.174,28.711c-0.83,0.83 -1.367,2.1 -1.367,3.174c0,2.588 1.758,4.346 4.297,4.346c1.27,-0 2.246,-0.44 2.979,-1.221l13.769,-14.062l7.91,-9.229l-0.537,11.426l0,63.33c0,2.539 1.856,4.346 4.395,4.346Z" style="fill-rule:nonzero;"/>
    </g>
</svg>
