<?xml version="1.0" encoding="UTF-8" standalone="no"?>
<!DOCTYPE svg PUBLIC "-//W3C//DTD SVG 1.1//EN" "http://www.w3.org/Graphics/SVG/1.1/DTD/svg11.dtd">
<svg width="100%" height="100%" viewBox="0 0 1024 1024" version="1.1" xmlns="http://www.w3.org/2000/svg" xmlns:xlink="http://www.w3.org/1999/xlink" xml:space="preserve" xmlns:serif="http://www.serif.com/" style="fill-rule:evenodd;clip-rule:evenodd;stroke-linejoin:round;stroke-miterlimit:2;">
    <g transform="matrix(0.995931,0,0,0.995931,25.3699,-35.2162)">
        <path d="M41.624,399.42c-15.475,4.065 -27.111,18.112 -27.413,34.784c-0.002,0.093 -0.003,0.185 -0.004,0.278c-0.422,67.2 28.394,130.344 77.055,174.042c-7.946,8.565 -11.805,20.724 -7.069,34.345c20.737,61.566 65.753,111.098 123.148,138.117c-59.944,27.087 -126.345,37.881 -192.357,30.78c-0.088,-0.009 -0.176,-0.018 -0.263,-0.026c-20.513,-1.974 -33.605,11.019 -37.287,27.528c-3.264,14.637 2.424,31.446 15.948,39.96c0.015,0.01 0.03,0.019 0.045,0.029c95.316,59.709 205.309,91.896 317.764,92.987c0.157,0.002 0.315,0.002 0.472,0c190.634,-1.981 366.3,-85.776 477.818,-242.277c0.006,-0.009 0.013,-0.018 0.02,-0.027c49.947,-70.31 84.573,-150.341 101.626,-234.895c0.003,-0.013 0.005,-0.026 0.008,-0.039c7.512,-37.579 8.147,-74.44 11.594,-112.285c0.002,-0.012 0.003,-0.025 0.004,-0.037c1.026,-11.467 6.75,-15.885 13.652,-21.562c5.453,-4.485 11.527,-9.272 17.955,-15.395c0.096,-0.091 0.191,-0.183 0.285,-0.276c21.989,-21.664 41.794,-45.441 59.129,-70.986c0.016,-0.024 0.032,-0.047 0.048,-0.071c20.364,-30.244 -8.249,-57.501 -35.15,-55.582c4.977,-9.815 9.301,-19.977 12.937,-30.422c5.872,-16.514 -0.801,-31.579 -13.047,-40.339c-11.244,-8.044 -27.082,-9.721 -39.78,-2.478c-16.491,9.378 -41.452,25.182 -65.866,33.913c-11.765,4.208 -23.19,7.414 -32.594,4.357c-0.021,-0.007 -0.043,-0.014 -0.064,-0.021c-7.568,-2.436 -14.753,-8.705 -22.32,-14.712c-11.632,-9.234 -23.564,-18.525 -35.6,-23.685c-0.003,-0.001 -0.006,-0.003 -0.009,-0.004c-56.316,-24.119 -119.939,-25.018 -176.913,-2.501c-0.009,0.004 -0.018,0.007 -0.027,0.011c-92.488,36.68 -144.966,124.368 -144.889,218.846c-130.617,-18.361 -250.166,-85.033 -334.516,-187.311c-0.5,-0.606 -1.03,-1.187 -1.587,-1.74c-6.843,-6.781 -16.096,-10.589 -25.727,-10.589c-12.866,-0 -24.82,6.794 -31.405,17.852c-0.109,0.184 -0.216,0.37 -0.321,0.557c-38.359,68.626 -39.013,150.774 -5.3,218.874Zm782.309,-138.356c-5.568,6.531 -8.744,14.918 -8.744,23.717c-0,18.701 14.346,34.309 32.536,36.327c-7.218,6.312 -12.972,13.658 -16.345,22.421c-3.286,8.538 -4.436,19.429 -4.104,31.021c0.332,11.612 2.234,24.173 1.872,33.751c-0.975,17.484 -2.871,34.86 -5.681,52.099c-12.242,74.295 -39.664,145.275 -80.548,208.495c-95.931,148.297 -256.246,228.514 -431.401,230.323c-52.488,-0.548 -104.44,-8.814 -154.23,-24.397c59.047,-13.924 114.889,-40.082 163.743,-77.154c10.12,-6.747 16.269,-18.169 16.269,-30.411c-0,-19.739 -15.984,-36.075 -35.677,-36.546c-47.728,-1.753 -91.671,-24.522 -120.746,-60.964c11.838,-1.178 23.598,-3.169 35.196,-5.969c0.44,-0.106 0.877,-0.225 1.31,-0.356c15.36,-4.661 25.939,-18.924 25.939,-34.982c0,-16.058 -10.579,-30.321 -25.939,-34.982c-0.646,-0.195 -1.3,-0.364 -1.96,-0.503c-55.469,-11.733 -99.996,-51.511 -118.94,-103.236c13.366,2.97 26.965,4.885 40.675,5.717c39.094,2.571 48.468,-47.326 21.889,-66.665c-0.136,-0.099 -0.274,-0.197 -0.412,-0.294c-52.577,-36.547 -77.57,-100.436 -66.469,-161.414c103.612,101.936 241.149,163.305 387.119,171.747c0.563,0.033 1.128,0.045 1.692,0.037c19.896,-0.284 36.114,-16.732 36.114,-36.639c0,-2.781 -0.317,-5.552 -0.943,-8.26c-18.739,-98.767 51.586,-193.945 154.59,-194.691c27.452,-0.027 54.39,7.105 78.19,20.688c0.031,0.017 0.062,0.035 0.092,0.052c8.426,4.759 16.645,14.255 25.245,21.809c9.315,8.183 19.041,14.667 28.561,17.564c6.043,1.838 13.255,2.404 21.107,1.695Z"/>
    </g>
</svg>
